<svg width="4000" height="2000" viewBox="-0.025 -0.025 2.05 1.05" xmlns="http://www.w3.org/2000/svg">
  <style>
    path {
      fill: none;
      stroke-linecap: round;
      stroke-opacity: 0.4;
    }

    text {
      text-anchor: middle;
      alignment-baseline: hanging;
    }
  </style>
  <g opacity="0.4">
<path d="M0.204 0.455 Q1.088 0.590 1.545 0.188" stroke="hsl(0.0,100%,35%)" stroke-width="0.01096"></path>
<path d="M0.204 0.455 Q0.853 0.541 1.163 0.243" stroke="hsl(0.0,100%,35%)" stroke-width="0.01018"></path>
<path d="M0.204 0.455 Q0.126 0.516 0.227 0.568" stroke="hsl(0.0,100%,35%)" stroke-width="0.00078"></path>
<path d="M0.204 0.455 Q1.148 0.758 1.947 0.365" stroke="hsl(0.0,100%,35%)" stroke-width="0.00078"></path>
<path d="M1.545 0.188 Q0.362 0.306 0.331 0.908" stroke="hsl(0.0,100%,35%)" stroke-width="0.00783"></path>
<path d="M1.545 0.188 Q1.310 0.139 1.163 0.243" stroke="hsl(0.0,100%,35%)" stroke-width="0.06027"></path>
<path d="M1.545 0.188 Q1.486 0.084 1.271 0.090" stroke="hsl(0.0,100%,35%)" stroke-width="0.02270"></path>
<path d="M1.545 0.188 Q1.124 0.182 1.019 0.386" stroke="hsl(0.0,100%,35%)" stroke-width="0.04618"></path>
<path d="M1.545 0.188 Q0.947 0.469 1.363 0.822" stroke="hsl(0.0,100%,35%)" stroke-width="0.00157"></path>
<path d="M1.545 0.188 Q1.290 0.294 1.441 0.442" stroke="hsl(0.0,100%,35%)" stroke-width="0.00078"></path>
<path d="M1.545 0.188 Q1.604 0.357 1.947 0.365" stroke="hsl(0.0,100%,35%)" stroke-width="0.01174"></path>
<path d="M1.545 0.188 Q1.267 0.008 0.854 0.104" stroke="hsl(0.0,100%,35%)" stroke-width="0.00939"></path>
<path d="M1.545 0.188 Q1.377 0.265 1.490 0.364" stroke="hsl(0.0,100%,35%)" stroke-width="0.00078"></path>
<path d="M1.545 0.188 Q0.661 0.054 0.204 0.455" stroke="hsl(0.0,100%,35%)" stroke-width="0.00157"></path>
<path d="M1.545 0.188 Q1.769 -0.055 1.344 -0.217" stroke="hsl(0.0,100%,35%)" stroke-width="0.00078"></path>
<path d="M1.545 0.188 Q1.565 0.307 1.801 0.323" stroke="hsl(0.0,100%,35%)" stroke-width="0.00391"></path>
<path d="M1.545 0.188 Q1.029 0.087 0.718 0.316" stroke="hsl(0.0,100%,35%)" stroke-width="0.00078"></path>
<path d="M1.545 0.188 Q1.544 0.057 1.288 0.029" stroke="hsl(0.0,100%,35%)" stroke-width="0.00157"></path>
<path d="M1.163 0.243 Q1.398 0.292 1.545 0.188" stroke="hsl(0.0,100%,35%)" stroke-width="0.05479"></path>
<path d="M1.163 0.243 Q1.458 0.461 1.947 0.365" stroke="hsl(0.0,100%,35%)" stroke-width="0.01644"></path>
<path d="M1.163 0.243 Q1.178 0.057 0.818 0.008" stroke="hsl(0.0,100%,35%)" stroke-width="0.00313"></path>
<path d="M1.163 0.243 Q1.339 0.188 1.271 0.090" stroke="hsl(0.0,100%,35%)" stroke-width="0.01174"></path>
<path d="M1.163 0.243 Q0.514 0.157 0.204 0.455" stroke="hsl(0.0,100%,35%)" stroke-width="0.00313"></path>
<path d="M1.163 0.243 Q0.977 0.286 1.019 0.386" stroke="hsl(0.0,100%,35%)" stroke-width="0.00078"></path>
<path d="M1.163 0.243 Q1.156 0.322 1.309 0.343" stroke="hsl(0.0,100%,35%)" stroke-width="0.01644"></path>
<path d="M1.163 0.243 Q0.882 0.191 0.718 0.316" stroke="hsl(0.0,100%,35%)" stroke-width="0.00078"></path>
<path d="M1.947 0.365 Q0.704 0.314 0.331 0.908" stroke="hsl(0.0,100%,35%)" stroke-width="0.00704"></path>
<path d="M1.947 0.365 Q1.907 0.315 1.801 0.323" stroke="hsl(0.0,100%,35%)" stroke-width="0.02505"></path>
<path d="M1.947 0.365 Q1.289 0.477 1.363 0.822" stroke="hsl(0.0,100%,35%)" stroke-width="0.00078"></path>
<path d="M1.947 0.365 Q1.652 0.147 1.163 0.243" stroke="hsl(0.0,100%,35%)" stroke-width="0.00470"></path>
<path d="M1.947 0.365 Q1.466 0.190 1.019 0.386" stroke="hsl(0.0,100%,35%)" stroke-width="0.00078"></path>
<path d="M1.947 0.365 Q1.828 0.092 1.271 0.090" stroke="hsl(0.0,100%,35%)" stroke-width="0.00391"></path>
<path d="M1.947 0.365 Q1.887 0.196 1.545 0.188" stroke="hsl(0.0,100%,35%)" stroke-width="0.01565"></path>
<path d="M1.947 0.365 Q1.003 0.062 0.204 0.455" stroke="hsl(0.0,100%,35%)" stroke-width="0.00548"></path>
<path d="M1.947 0.365 Q1.707 0.399 1.721 0.524" stroke="hsl(0.0,100%,35%)" stroke-width="0.00078"></path>
<path d="M0.818 0.008 Q1.037 0.244 1.545 0.188" stroke="hsl(0.0,100%,35%)" stroke-width="0.00391"></path>
<path d="M0.818 0.008 Q0.802 0.195 1.163 0.243" stroke="hsl(0.0,100%,35%)" stroke-width="0.00548"></path>
<path d="M0.818 0.008 Q0.153 0.109 0.204 0.455" stroke="hsl(0.0,100%,35%)" stroke-width="0.00235"></path>
<path d="M1.271 0.090 Q1.329 0.194 1.545 0.188" stroke="hsl(0.0,100%,35%)" stroke-width="0.01096"></path>
<path d="M1.271 0.090 Q1.095 0.145 1.163 0.243" stroke="hsl(0.0,100%,35%)" stroke-width="0.00391"></path>
<path d="M1.271 0.090 Q0.731 0.475 1.363 0.822" stroke="hsl(0.0,100%,35%)" stroke-width="0.00078"></path>
<path d="M1.271 0.090 Q0.367 0.120 0.227 0.568" stroke="hsl(0.0,100%,35%)" stroke-width="0.00078"></path>
<path d="M1.271 0.090 Q1.389 0.363 1.947 0.365" stroke="hsl(0.0,100%,35%)" stroke-width="0.00704"></path>
<path d="M1.271 0.090 Q0.147 0.311 0.331 0.908" stroke="hsl(0.0,100%,35%)" stroke-width="0.00235"></path>
<path d="M1.271 0.090 Q1.349 0.313 1.801 0.323" stroke="hsl(0.0,100%,35%)" stroke-width="0.00078"></path>
<path d="M1.271 0.090 Q1.554 -0.049 1.344 -0.217" stroke="hsl(0.0,100%,35%)" stroke-width="0.00078"></path>
<path d="M1.271 0.090 Q0.446 0.059 0.204 0.455" stroke="hsl(0.0,100%,35%)" stroke-width="0.00157"></path>
<path d="M1.019 0.386 Q1.185 0.498 1.441 0.442" stroke="hsl(0.0,100%,35%)" stroke-width="0.00235"></path>
<path d="M1.019 0.386 Q0.257 0.510 0.331 0.908" stroke="hsl(0.0,100%,35%)" stroke-width="0.00704"></path>
<path d="M1.019 0.386 Q1.440 0.392 1.545 0.188" stroke="hsl(0.0,100%,35%)" stroke-width="0.01957"></path>
<path d="M1.019 0.386 Q0.742 0.411 0.731 0.551" stroke="hsl(0.0,100%,35%)" stroke-width="0.00548"></path>
<path d="M1.019 0.386 Q0.758 0.475 0.876 0.622" stroke="hsl(0.0,100%,35%)" stroke-width="0.00078"></path>
<path d="M1.019 0.386 Q0.636 0.545 0.864 0.767" stroke="hsl(0.0,100%,35%)" stroke-width="0.00078"></path>
<path d="M1.019 0.386 Q0.894 0.544 1.176 0.640" stroke="hsl(0.0,100%,35%)" stroke-width="0.00078"></path>
<path d="M1.019 0.386 Q0.982 0.446 1.091 0.476" stroke="hsl(0.0,100%,35%)" stroke-width="0.00078"></path>
<path d="M1.019 0.386 Q0.857 0.497 1.039 0.601" stroke="hsl(0.0,100%,35%)" stroke-width="0.00078"></path>
<path d="M1.019 0.386 Q1.272 0.469 1.490 0.364" stroke="hsl(0.0,100%,35%)" stroke-width="0.00078"></path>
<path d="M1.019 0.386 Q1.031 0.556 1.366 0.588" stroke="hsl(0.0,100%,35%)" stroke-width="0.00157"></path>
<path d="M1.019 0.386 Q1.459 0.511 1.801 0.323" stroke="hsl(0.0,100%,35%)" stroke-width="0.00078"></path>
<path d="M1.019 0.386 Q1.499 0.561 1.947 0.365" stroke="hsl(0.0,100%,35%)" stroke-width="0.00078"></path>
<path d="M1.019 0.386 Q1.381 0.288 1.271 0.090" stroke="hsl(0.0,100%,35%)" stroke-width="0.00078"></path>
<path d="M1.019 0.386 Q1.439 0.261 1.288 0.029" stroke="hsl(0.0,100%,35%)" stroke-width="0.00078"></path>
<path d="M1.019 0.386 Q0.998 0.466 1.151 0.493" stroke="hsl(0.0,100%,35%)" stroke-width="0.00078"></path>
<path d="M1.019 0.386 Q1.205 0.343 1.163 0.243" stroke="hsl(0.0,100%,35%)" stroke-width="0.00078"></path>
<path d="M1.801 0.323 Q1.840 0.373 1.947 0.365" stroke="hsl(0.0,100%,35%)" stroke-width="0.01331"></path>
<path d="M1.801 0.323 Q1.722 0.101 1.271 0.090" stroke="hsl(0.0,100%,35%)" stroke-width="0.00235"></path>
<path d="M1.801 0.323 Q1.781 0.205 1.545 0.188" stroke="hsl(0.0,100%,35%)" stroke-width="0.00391"></path>
<path d="M1.801 0.323 Q0.598 0.322 0.331 0.908" stroke="hsl(0.0,100%,35%)" stroke-width="0.00078"></path>
<path d="M1.801 0.323 Q1.183 0.485 1.363 0.822" stroke="hsl(0.0,100%,35%)" stroke-width="0.00078"></path>
<path d="M1.801 0.323 Q1.546 0.156 1.163 0.243" stroke="hsl(0.0,100%,35%)" stroke-width="0.00078"></path>
<path d="M1.801 0.323 Q2.005 -0.038 1.344 -0.217" stroke="hsl(0.0,100%,35%)" stroke-width="0.00078"></path>
<path d="M1.801 0.323 Q1.637 0.279 1.515 0.349" stroke="hsl(0.0,100%,35%)" stroke-width="0.00235"></path>
<path d="M1.801 0.323 Q1.688 0.381 1.775 0.448" stroke="hsl(0.0,100%,35%)" stroke-width="0.00078"></path>
<path d="M0.331 0.908 Q1.093 0.784 1.019 0.386" stroke="hsl(0.0,100%,35%)" stroke-width="0.00157"></path>
<path d="M0.331 0.908 Q0.485 0.928 0.558 0.858" stroke="hsl(0.0,100%,35%)" stroke-width="0.00313"></path>
<path d="M0.331 0.908 Q1.574 0.960 1.947 0.365" stroke="hsl(0.0,100%,35%)" stroke-width="0.00626"></path>
<path d="M0.331 0.908 Q1.514 0.791 1.545 0.188" stroke="hsl(0.0,100%,35%)" stroke-width="0.00391"></path>
<path d="M0.331 0.908 Q0.398 0.960 0.514 0.939" stroke="hsl(0.0,100%,35%)" stroke-width="0.00157"></path>
<path d="M0.331 0.908 Q1.347 0.868 1.490 0.364" stroke="hsl(0.0,100%,35%)" stroke-width="0.00078"></path>
<path d="M0.331 0.908 Q1.456 0.687 1.271 0.090" stroke="hsl(0.0,100%,35%)" stroke-width="0.00078"></path>
<path d="M0.331 0.908 Q1.534 0.910 1.801 0.323" stroke="hsl(0.0,100%,35%)" stroke-width="0.00078"></path>
<path d="M1.363 0.822 Q1.902 0.438 1.271 0.090" stroke="hsl(0.0,100%,35%)" stroke-width="0.00157"></path>
<path d="M1.363 0.822 Q1.961 0.542 1.545 0.188" stroke="hsl(0.0,100%,35%)" stroke-width="0.00157"></path>
<path d="M1.363 0.822 Q0.778 0.659 0.331 0.908" stroke="hsl(0.0,100%,35%)" stroke-width="0.00078"></path>
<path d="M1.363 0.822 Q1.981 0.660 1.801 0.323" stroke="hsl(0.0,100%,35%)" stroke-width="0.00078"></path>
<path d="M1.344 -0.217 Q1.120 0.026 1.545 0.188" stroke="hsl(0.0,100%,35%)" stroke-width="0.00470"></path>
<path d="M1.344 -0.217 Q1.061 -0.078 1.271 0.090" stroke="hsl(0.0,100%,35%)" stroke-width="0.00078"></path>
<path d="M1.344 -0.217 Q0.885 -0.023 1.163 0.243" stroke="hsl(0.0,100%,35%)" stroke-width="0.00157"></path>
<path d="M1.344 -0.217 Q1.140 0.144 1.801 0.323" stroke="hsl(0.0,100%,35%)" stroke-width="0.00157"></path>
<path d="M1.515 0.349 Q1.678 0.393 1.801 0.323" stroke="hsl(0.0,100%,35%)" stroke-width="0.00391"></path>
<path d="M1.515 0.349 Q0.476 0.392 0.331 0.908" stroke="hsl(0.0,100%,35%)" stroke-width="0.00078"></path>
<path d="M1.515 0.349 Q1.718 0.443 1.947 0.365" stroke="hsl(0.0,100%,35%)" stroke-width="0.00078"></path>
<path d="M1.775 0.448 Q0.751 0.441 0.514 0.939" stroke="hsl(0.0,100%,35%)" stroke-width="0.00078"></path>
<path d="M1.775 0.448 Q1.868 0.272 1.545 0.188" stroke="hsl(0.0,100%,35%)" stroke-width="0.00157"></path>
<path d="M1.775 0.448 Q1.888 0.391 1.801 0.323" stroke="hsl(0.0,100%,35%)" stroke-width="0.00704"></path>
<path d="M1.775 0.448 Q1.927 0.441 1.947 0.365" stroke="hsl(0.0,100%,35%)" stroke-width="0.00235"></path>
<path d="M0.680 0.805 Q1.606 0.670 1.545 0.188" stroke="hsl(0.0,100%,35%)" stroke-width="0.00078"></path>
<path d="M0.680 0.805 Q0.909 0.689 0.731 0.551" stroke="hsl(0.0,100%,35%)" stroke-width="0.00078"></path>
<path d="M0.680 0.805 Q0.423 0.787 0.331 0.908" stroke="hsl(0.0,100%,35%)" stroke-width="0.00078"></path>
<path d="M0.680 0.805 Q0.803 0.823 0.864 0.767" stroke="hsl(0.0,100%,35%)" stroke-width="0.00078"></path>
<path d="M0.731 0.551 Q1.008 0.526 1.019 0.386" stroke="hsl(0.0,100%,35%)" stroke-width="0.00470"></path>
<path d="M0.731 0.551 Q0.747 0.616 0.876 0.622" stroke="hsl(0.0,100%,35%)" stroke-width="0.00078"></path>
<path d="M0.731 0.551 Q1.429 0.533 1.545 0.188" stroke="hsl(0.0,100%,35%)" stroke-width="0.00157"></path>
<path d="M0.864 0.767 Q0.970 0.632 0.731 0.551" stroke="hsl(0.0,100%,35%)" stroke-width="0.00470"></path>
<path d="M0.864 0.767 Q0.787 0.660 0.562 0.674" stroke="hsl(0.0,100%,35%)" stroke-width="0.00078"></path>
<path d="M0.864 0.767 Q1.246 0.607 1.019 0.386" stroke="hsl(0.0,100%,35%)" stroke-width="0.00548"></path>
<path d="M0.876 0.622 Q1.558 0.539 1.545 0.188" stroke="hsl(0.0,100%,35%)" stroke-width="0.00157"></path>
<path d="M0.876 0.622 Q1.137 0.533 1.019 0.386" stroke="hsl(0.0,100%,35%)" stroke-width="0.00157"></path>
<path d="M0.876 0.622 Q0.860 0.558 0.731 0.551" stroke="hsl(0.0,100%,35%)" stroke-width="0.00157"></path>
<path d="M1.039 0.601 Q1.622 0.496 1.545 0.188" stroke="hsl(0.0,100%,35%)" stroke-width="0.00078"></path>
<path d="M1.039 0.601 Q1.564 0.392 1.271 0.090" stroke="hsl(0.0,100%,35%)" stroke-width="0.00078"></path>
<path d="M1.039 0.601 Q1.201 0.489 1.019 0.386" stroke="hsl(0.0,100%,35%)" stroke-width="0.00235"></path>
<path d="M1.039 0.601 Q1.682 0.664 1.947 0.365" stroke="hsl(0.0,100%,35%)" stroke-width="0.00078"></path>
<path d="M1.490 0.364 Q1.658 0.287 1.545 0.188" stroke="hsl(0.0,100%,35%)" stroke-width="0.00783"></path>
<path d="M1.490 0.364 Q1.237 0.280 1.019 0.386" stroke="hsl(0.0,100%,35%)" stroke-width="0.00391"></path>
<path d="M1.490 0.364 Q1.423 0.238 1.163 0.243" stroke="hsl(0.0,100%,35%)" stroke-width="0.00078"></path>
<path d="M1.490 0.364 Q1.599 0.183 1.271 0.090" stroke="hsl(0.0,100%,35%)" stroke-width="0.00078"></path>
<path d="M1.288 0.029 Q0.592 0.179 0.731 0.551" stroke="hsl(0.0,100%,35%)" stroke-width="0.00391"></path>
<path d="M1.288 0.029 Q0.868 0.153 1.019 0.386" stroke="hsl(0.0,100%,35%)" stroke-width="0.00861"></path>
<path d="M1.288 0.029 Q1.289 0.160 1.545 0.188" stroke="hsl(0.0,100%,35%)" stroke-width="0.01018"></path>
<path d="M1.288 0.029 Q0.486 0.313 0.864 0.767" stroke="hsl(0.0,100%,35%)" stroke-width="0.00157"></path>
<path d="M1.288 0.029 Q0.106 0.277 0.331 0.908" stroke="hsl(0.0,100%,35%)" stroke-width="0.00078"></path>
<path d="M0.854 0.104 Q1.132 0.284 1.545 0.188" stroke="hsl(0.0,100%,35%)" stroke-width="0.01096"></path>
<path d="M0.854 0.104 Q0.711 0.278 1.019 0.386" stroke="hsl(0.0,100%,35%)" stroke-width="0.00235"></path>
<path d="M0.854 0.104 Q0.897 0.235 1.163 0.243" stroke="hsl(0.0,100%,35%)" stroke-width="0.00235"></path>
<path d="M0.577 0.371 Q1.207 0.473 1.545 0.188" stroke="hsl(0.0,100%,35%)" stroke-width="0.00157"></path>
<path d="M0.577 0.371 Q0.691 0.372 0.718 0.316" stroke="hsl(0.0,100%,35%)" stroke-width="0.00157"></path>
<path d="M0.095 0.219 Q0.424 0.487 1.019 0.386" stroke="hsl(0.0,100%,35%)" stroke-width="0.00157"></path>
<path d="M0.095 0.219 Q0.273 0.250 0.371 0.169" stroke="hsl(0.0,100%,35%)" stroke-width="0.00078"></path>
<path d="M0.095 0.219 Q0.845 0.494 1.545 0.188" stroke="hsl(0.0,100%,35%)" stroke-width="0.00157"></path>
<path d="M0.718 0.926 Q1.663 0.619 1.271 0.090" stroke="hsl(0.0,100%,35%)" stroke-width="0.00078"></path>
<path d="M0.718 0.926 Q1.782 0.891 1.947 0.365" stroke="hsl(0.0,100%,35%)" stroke-width="0.00078"></path>
<path d="M0.718 0.926 Q0.539 0.840 0.331 0.908" stroke="hsl(0.0,100%,35%)" stroke-width="0.00078"></path>
<path d="M1.772 0.084 Q1.595 0.209 1.801 0.323" stroke="hsl(0.0,100%,35%)" stroke-width="0.00235"></path>
<path d="M1.772 0.084 Q1.517 -0.013 1.271 0.090" stroke="hsl(0.0,100%,35%)" stroke-width="0.00157"></path>
<path d="M1.296 0.346 Q1.547 0.317 1.545 0.188" stroke="hsl(0.0,100%,35%)" stroke-width="0.00391"></path>
<path d="M1.296 0.346 Q1.312 0.268 1.163 0.243" stroke="hsl(0.0,100%,35%)" stroke-width="0.00157"></path>
<path d="M1.296 0.346 Q1.126 0.311 1.019 0.386" stroke="hsl(0.0,100%,35%)" stroke-width="0.00078"></path>
<path d="M0.156 0.753 Q0.119 0.866 0.331 0.908" stroke="hsl(0.0,100%,35%)" stroke-width="0.00157"></path>
<path d="M0.156 0.753 Q1.302 0.748 1.545 0.188" stroke="hsl(0.0,100%,35%)" stroke-width="0.00078"></path>
<path d="M0.156 0.753 Q1.244 0.645 1.271 0.090" stroke="hsl(0.0,100%,35%)" stroke-width="0.00078"></path>
</g>
<text x="0.204" y="0.438" font-size="0.034108" fill="hsl(0.0,100%,20%)">abdolrashidi</text>
<text x="1.545" y="0.136" font-size="0.104123" fill="hsl(0.0,100%,20%)">syoussefi</text>
<text x="1.163" y="0.204" font-size="0.079447" fill="hsl(0.0,100%,20%)">cclao</text>
<text x="0.227" y="0.564" font-size="0.007036" fill="hsl(0.0,100%,20%)">kaiyili</text>
<text x="1.947" y="0.333" font-size="0.062932" fill="hsl(0.0,100%,20%)">romanl</text>
<text x="0.818" y="-0.003" font-size="0.021686" fill="hsl(0.0,100%,20%)">hailinzhang</text>
<text x="1.271" y="0.065" font-size="0.049752" fill="hsl(0.0,100%,20%)">yuxinhu</text>
<text x="1.019" y="0.354" font-size="0.063128" fill="hsl(0.0,100%,20%)">geofflang</text>
<text x="1.309" y="0.332" font-size="0.022799" fill="hsl(0.0,100%,20%)">chrisforbes</text>
<text x="0.718" y="0.311" font-size="0.009950" fill="hsl(0.0,100%,20%)">m.maiya</text>
<text x="1.801" y="0.299" font-size="0.047979" fill="hsl(0.0,100%,20%)">cnorthrop</text>
<text x="0.331" y="0.889" font-size="0.039489" fill="hsl(0.0,100%,20%)">ynovikov</text>
<text x="1.363" y="0.814" font-size="0.016501" fill="hsl(0.0,100%,20%)">solti</text>
<text x="1.344" y="-0.227" font-size="0.018615" fill="hsl(0.0,100%,20%)">zzyiwei</text>
<text x="1.515" y="0.341" font-size="0.015733" fill="hsl(0.0,100%,20%)">mikes</text>
<text x="1.775" y="0.438" font-size="0.019901" fill="hsl(0.0,100%,20%)">mark</text>
<text x="0.680" y="0.800" font-size="0.009950" fill="hsl(0.0,100%,20%)">djg</text>
<text x="0.731" y="0.538" font-size="0.027250" fill="hsl(0.0,100%,20%)">kbr</text>
<text x="0.864" y="0.756" font-size="0.021108" fill="hsl(0.0,100%,20%)">lehoangquyen</text>
<text x="1.441" y="0.437" font-size="0.009950" fill="hsl(0.0,100%,20%)">penghuang</text>
<text x="0.876" y="0.615" font-size="0.014072" fill="hsl(0.0,100%,20%)">jonahr</text>
<text x="1.176" y="0.637" font-size="0.004975" fill="hsl(0.0,100%,20%)">gman</text>
<text x="1.091" y="0.474" font-size="0.004975" fill="hsl(0.0,100%,20%)">blundell</text>
<text x="1.039" y="0.594" font-size="0.013163" fill="hsl(0.0,100%,20%)">hob</text>
<text x="1.490" y="0.352" font-size="0.022250" fill="hsl(0.0,100%,20%)">steven</text>
<text x="1.366" y="0.584" font-size="0.007036" fill="hsl(0.0,100%,20%)">rafael.cintron</text>
<text x="1.288" y="0.014" font-size="0.029434" fill="hsl(0.0,100%,20%)">lexa.knyazev</text>
<text x="1.151" y="0.491" font-size="0.004975" fill="hsl(0.0,100%,20%)">jamesgk</text>
<text x="0.854" y="0.090" font-size="0.028144" fill="hsl(0.0,100%,20%)">i.nazarov</text>
<text x="0.577" y="0.366" font-size="0.009950" fill="hsl(0.0,100%,20%)">j.vigil</text>
<text x="0.095" y="0.214" font-size="0.011125" fill="hsl(0.0,100%,20%)">jiawei.shao</text>
<text x="0.371" y="0.167" font-size="0.004975" fill="hsl(0.0,100%,20%)">senorblanco</text>
<text x="0.718" y="0.922" font-size="0.008617" fill="hsl(0.0,100%,20%)">jojwang</text>
<text x="0.562" y="0.672" font-size="0.004975" fill="hsl(0.0,100%,20%)">sunnyps</text>
<text x="1.772" y="0.079" font-size="0.011125" fill="hsl(0.0,100%,20%)">lpy</text>
<text x="0.514" y="0.935" font-size="0.008617" fill="hsl(0.0,100%,20%)">ianelliott</text>
<text x="1.296" y="0.339" font-size="0.014072" fill="hsl(0.0,100%,20%)">phanquangminh217</text>
<text x="1.721" y="0.522" font-size="0.004975" fill="hsl(0.0,100%,20%)">zijiehe</text>
<text x="0.156" y="0.748" font-size="0.009950" fill="hsl(0.0,100%,20%)">sokcevic</text>
<text x="0.558" y="0.853" font-size="0.009950" fill="hsl(0.0,100%,20%)">bsheedy</text>
</svg>
