<svg width="4000" height="2000" viewBox="-0.025 -0.025 2.05 1.05" xmlns="http://www.w3.org/2000/svg">
  <style>
    path {
      fill: none;
      stroke-linecap: round;
      stroke-opacity: 0.4;
    }

    text {
      text-anchor: middle;
      alignment-baseline: hanging;
    }
  </style>
  <g opacity="0.4">
<path d="M0.420 0.305 Q1.222 0.569 1.914 0.236" stroke="hsl(0.0,100%,35%)" stroke-width="0.00449"></path>
<path d="M0.420 0.305 Q0.797 0.596 1.448 0.477" stroke="hsl(0.0,100%,35%)" stroke-width="0.00037"></path>
<path d="M0.420 0.305 Q0.453 0.212 0.279 0.176" stroke="hsl(0.0,100%,35%)" stroke-width="0.00150"></path>
<path d="M1.914 0.236 Q1.773 0.078 1.433 0.111" stroke="hsl(0.0,100%,35%)" stroke-width="0.02171"></path>
<path d="M1.914 0.236 Q1.749 0.243 1.726 0.325" stroke="hsl(0.0,100%,35%)" stroke-width="0.01797"></path>
<path d="M1.914 0.236 Q1.820 0.299 1.923 0.359" stroke="hsl(0.0,100%,35%)" stroke-width="0.02209"></path>
<path d="M1.914 0.236 Q1.385 0.185 1.170 0.432" stroke="hsl(0.0,100%,35%)" stroke-width="0.02134"></path>
<path d="M1.914 0.236 Q1.483 0.403 1.715 0.650" stroke="hsl(0.0,100%,35%)" stroke-width="0.01947"></path>
<path d="M1.914 0.236 Q1.489 0.263 1.448 0.477" stroke="hsl(0.0,100%,35%)" stroke-width="0.01872"></path>
<path d="M1.914 0.236 Q1.519 0.124 1.212 0.292" stroke="hsl(0.0,100%,35%)" stroke-width="0.00973"></path>
<path d="M1.914 0.236 Q1.826 0.141 1.620 0.163" stroke="hsl(0.0,100%,35%)" stroke-width="0.00936"></path>
<path d="M1.914 0.236 Q1.237 0.222 1.061 0.550" stroke="hsl(0.0,100%,35%)" stroke-width="0.00037"></path>
<path d="M1.914 0.236 Q1.734 0.184 1.592 0.260" stroke="hsl(0.0,100%,35%)" stroke-width="0.00112"></path>
<path d="M1.914 0.236 Q1.520 0.002 0.978 0.143" stroke="hsl(0.0,100%,35%)" stroke-width="0.00262"></path>
<path d="M1.914 0.236 Q1.603 0.306 1.670 0.473" stroke="hsl(0.0,100%,35%)" stroke-width="0.00037"></path>
<path d="M1.914 0.236 Q1.291 0.108 0.904 0.384" stroke="hsl(0.0,100%,35%)" stroke-width="0.00075"></path>
<path d="M1.914 0.236 Q1.839 0.310 1.966 0.362" stroke="hsl(0.0,100%,35%)" stroke-width="0.00037"></path>
<path d="M1.914 0.236 Q1.334 0.558 1.835 0.911" stroke="hsl(0.0,100%,35%)" stroke-width="0.00150"></path>
<path d="M1.914 0.236 Q1.552 0.317 1.630 0.511" stroke="hsl(0.0,100%,35%)" stroke-width="0.00037"></path>
<path d="M1.914 0.236 Q1.673 0.135 1.423 0.231" stroke="hsl(0.0,100%,35%)" stroke-width="0.00037"></path>
<path d="M1.914 0.236 Q1.445 0.330 1.524 0.579" stroke="hsl(0.0,100%,35%)" stroke-width="0.00075"></path>
<path d="M1.914 0.236 Q1.702 0.292 1.765 0.408" stroke="hsl(0.0,100%,35%)" stroke-width="0.00037"></path>
<path d="M1.448 0.477 Q1.345 0.399 1.170 0.432" stroke="hsl(0.0,100%,35%)" stroke-width="0.01198"></path>
<path d="M1.448 0.477 Q1.873 0.449 1.914 0.236" stroke="hsl(0.0,100%,35%)" stroke-width="0.01422"></path>
<path d="M1.448 0.477 Q1.708 0.456 1.726 0.325" stroke="hsl(0.0,100%,35%)" stroke-width="0.00037"></path>
<path d="M1.448 0.477 Q1.733 0.291 1.433 0.111" stroke="hsl(0.0,100%,35%)" stroke-width="0.00299"></path>
<path d="M1.448 0.477 Q1.404 0.699 1.829 0.770" stroke="hsl(0.0,100%,35%)" stroke-width="0.00037"></path>
<path d="M1.448 0.477 Q1.683 0.593 1.962 0.504" stroke="hsl(0.0,100%,35%)" stroke-width="0.00037"></path>
<path d="M1.448 0.477 Q1.469 0.684 1.877 0.719" stroke="hsl(0.0,100%,35%)" stroke-width="0.00075"></path>
<path d="M1.448 0.477 Q1.478 0.337 1.212 0.292" stroke="hsl(0.0,100%,35%)" stroke-width="0.00112"></path>
<path d="M1.448 0.477 Q1.779 0.513 1.923 0.359" stroke="hsl(0.0,100%,35%)" stroke-width="0.00112"></path>
<path d="M1.448 0.477 Q1.250 0.321 0.904 0.384" stroke="hsl(0.0,100%,35%)" stroke-width="0.00150"></path>
<path d="M1.448 0.477 Q1.404 0.543 1.524 0.579" stroke="hsl(0.0,100%,35%)" stroke-width="0.00037"></path>
<path d="M1.448 0.477 Q1.480 0.216 0.978 0.143" stroke="hsl(0.0,100%,35%)" stroke-width="0.00075"></path>
<path d="M1.448 0.477 Q1.443 0.617 1.715 0.650" stroke="hsl(0.0,100%,35%)" stroke-width="0.00786"></path>
<path d="M1.448 0.477 Q1.294 0.771 1.835 0.911" stroke="hsl(0.0,100%,35%)" stroke-width="0.00075"></path>
<path d="M1.448 0.477 Q1.622 0.355 1.422 0.244" stroke="hsl(0.0,100%,35%)" stroke-width="0.00112"></path>
<path d="M1.448 0.477 Q1.693 0.397 1.592 0.260" stroke="hsl(0.0,100%,35%)" stroke-width="0.00037"></path>
<path d="M1.448 0.477 Q1.785 0.354 1.620 0.163" stroke="hsl(0.0,100%,35%)" stroke-width="0.00037"></path>
<path d="M1.448 0.477 Q1.648 0.480 1.698 0.383" stroke="hsl(0.0,100%,35%)" stroke-width="0.00037"></path>
<path d="M1.448 0.477 Q1.286 0.566 1.425 0.664" stroke="hsl(0.0,100%,35%)" stroke-width="0.00037"></path>
<path d="M1.936 0.583 Q1.772 0.572 1.715 0.650" stroke="hsl(0.0,100%,35%)" stroke-width="0.00075"></path>
<path d="M1.936 0.583 Q2.011 0.549 1.962 0.504" stroke="hsl(0.0,100%,35%)" stroke-width="0.00075"></path>
<path d="M1.936 0.583 Q1.777 0.432 1.448 0.477" stroke="hsl(0.0,100%,35%)" stroke-width="0.00037"></path>
<path d="M1.715 0.650 Q2.145 0.483 1.914 0.236" stroke="hsl(0.0,100%,35%)" stroke-width="0.04529"></path>
<path d="M1.715 0.650 Q2.005 0.324 1.433 0.111" stroke="hsl(0.0,100%,35%)" stroke-width="0.01385"></path>
<path d="M1.715 0.650 Q1.617 0.432 1.170 0.432" stroke="hsl(0.0,100%,35%)" stroke-width="0.00898"></path>
<path d="M1.715 0.650 Q2.057 0.387 1.620 0.163" stroke="hsl(0.0,100%,35%)" stroke-width="0.00711"></path>
<path d="M1.715 0.650 Q1.750 0.370 1.212 0.292" stroke="hsl(0.0,100%,35%)" stroke-width="0.00299"></path>
<path d="M1.715 0.650 Q1.752 0.249 0.978 0.143" stroke="hsl(0.0,100%,35%)" stroke-width="0.00337"></path>
<path d="M1.715 0.650 Q1.980 0.489 1.726 0.325" stroke="hsl(0.0,100%,35%)" stroke-width="0.00674"></path>
<path d="M1.715 0.650 Q1.940 0.554 1.802 0.423" stroke="hsl(0.0,100%,35%)" stroke-width="0.00150"></path>
<path d="M1.715 0.650 Q2.051 0.546 1.923 0.359" stroke="hsl(0.0,100%,35%)" stroke-width="0.00973"></path>
<path d="M1.715 0.650 Q1.920 0.513 1.698 0.383" stroke="hsl(0.0,100%,35%)" stroke-width="0.00187"></path>
<path d="M1.715 0.650 Q2.255 0.401 1.887 0.083" stroke="hsl(0.0,100%,35%)" stroke-width="0.00037"></path>
<path d="M1.715 0.650 Q1.720 0.510 1.448 0.477" stroke="hsl(0.0,100%,35%)" stroke-width="0.00898"></path>
<path d="M1.715 0.650 Q1.965 0.431 1.592 0.260" stroke="hsl(0.0,100%,35%)" stroke-width="0.00075"></path>
<path d="M1.715 0.650 Q1.676 0.576 1.524 0.579" stroke="hsl(0.0,100%,35%)" stroke-width="0.00037"></path>
<path d="M1.715 0.650 Q1.536 0.527 1.256 0.587" stroke="hsl(0.0,100%,35%)" stroke-width="0.00037"></path>
<path d="M1.715 0.650 Q1.762 0.186 0.867 0.062" stroke="hsl(0.0,100%,35%)" stroke-width="0.00037"></path>
<path d="M1.715 0.650 Q1.576 0.476 1.207 0.506" stroke="hsl(0.0,100%,35%)" stroke-width="0.00075"></path>
<path d="M1.715 0.650 Q2.228 0.366 1.786 0.053" stroke="hsl(0.0,100%,35%)" stroke-width="0.00037"></path>
<path d="M1.715 0.650 Q1.498 0.579 1.312 0.670" stroke="hsl(0.0,100%,35%)" stroke-width="0.00037"></path>
<path d="M1.887 0.083 Q1.778 0.165 1.914 0.236" stroke="hsl(0.0,100%,35%)" stroke-width="0.00412"></path>
<path d="M1.887 0.083 Q1.101 0.151 1.061 0.550" stroke="hsl(0.0,100%,35%)" stroke-width="0.00037"></path>
<path d="M1.887 0.083 Q1.690 0.070 1.620 0.163" stroke="hsl(0.0,100%,35%)" stroke-width="0.00075"></path>
<path d="M1.887 0.083 Q1.613 0.172 1.726 0.325" stroke="hsl(0.0,100%,35%)" stroke-width="0.00075"></path>
<path d="M1.887 0.083 Q1.348 0.332 1.715 0.650" stroke="hsl(0.0,100%,35%)" stroke-width="0.00187"></path>
<path d="M1.887 0.083 Q1.573 0.236 1.802 0.423" stroke="hsl(0.0,100%,35%)" stroke-width="0.00037"></path>
<path d="M1.061 0.550 Q1.738 0.563 1.914 0.236" stroke="hsl(0.0,100%,35%)" stroke-width="0.00112"></path>
<path d="M1.061 0.550 Q1.650 0.468 1.620 0.163" stroke="hsl(0.0,100%,35%)" stroke-width="0.00075"></path>
<path d="M1.061 0.550 Q1.598 0.405 1.433 0.111" stroke="hsl(0.0,100%,35%)" stroke-width="0.00037"></path>
<path d="M1.620 0.163 Q1.031 0.244 1.061 0.550" stroke="hsl(0.0,100%,35%)" stroke-width="0.00037"></path>
<path d="M1.620 0.163 Q1.708 0.258 1.914 0.236" stroke="hsl(0.0,100%,35%)" stroke-width="0.01572"></path>
<path d="M1.620 0.163 Q1.568 0.100 1.433 0.111" stroke="hsl(0.0,100%,35%)" stroke-width="0.00262"></path>
<path d="M1.620 0.163 Q1.179 0.207 1.170 0.432" stroke="hsl(0.0,100%,35%)" stroke-width="0.00112"></path>
<path d="M1.620 0.163 Q1.313 0.146 1.212 0.292" stroke="hsl(0.0,100%,35%)" stroke-width="0.00524"></path>
<path d="M1.620 0.163 Q1.278 0.425 1.715 0.650" stroke="hsl(0.0,100%,35%)" stroke-width="0.00524"></path>
<path d="M1.620 0.163 Q1.543 0.265 1.726 0.325" stroke="hsl(0.0,100%,35%)" stroke-width="0.00037"></path>
<path d="M1.620 0.163 Q1.283 0.285 1.448 0.477" stroke="hsl(0.0,100%,35%)" stroke-width="0.00075"></path>
<path d="M1.620 0.163 Q1.239 0.352 1.524 0.579" stroke="hsl(0.0,100%,35%)" stroke-width="0.00037"></path>
<path d="M1.620 0.163 Q1.129 0.580 1.835 0.911" stroke="hsl(0.0,100%,35%)" stroke-width="0.00037"></path>
<path d="M1.620 0.163 Q1.614 0.321 1.923 0.359" stroke="hsl(0.0,100%,35%)" stroke-width="0.00112"></path>
<path d="M1.620 0.163 Q1.133 0.509 1.701 0.822" stroke="hsl(0.0,100%,35%)" stroke-width="0.00037"></path>
<path d="M1.726 0.325 Q1.891 0.318 1.914 0.236" stroke="hsl(0.0,100%,35%)" stroke-width="0.01348"></path>
<path d="M1.726 0.325 Q1.496 0.205 1.212 0.292" stroke="hsl(0.0,100%,35%)" stroke-width="0.00524"></path>
<path d="M1.726 0.325 Q1.750 0.159 1.433 0.111" stroke="hsl(0.0,100%,35%)" stroke-width="0.00225"></path>
<path d="M1.726 0.325 Q1.797 0.381 1.923 0.359" stroke="hsl(0.0,100%,35%)" stroke-width="0.00112"></path>
<path d="M1.726 0.325 Q1.460 0.485 1.715 0.650" stroke="hsl(0.0,100%,35%)" stroke-width="0.00150"></path>
<path d="M1.726 0.325 Q1.497 0.084 0.978 0.143" stroke="hsl(0.0,100%,35%)" stroke-width="0.00075"></path>
<path d="M1.726 0.325 Q1.803 0.223 1.620 0.163" stroke="hsl(0.0,100%,35%)" stroke-width="0.00037"></path>
<path d="M1.726 0.325 Q1.362 0.267 1.170 0.432" stroke="hsl(0.0,100%,35%)" stroke-width="0.00037"></path>
<path d="M1.726 0.325 Q1.649 0.217 1.423 0.231" stroke="hsl(0.0,100%,35%)" stroke-width="0.00075"></path>
<path d="M1.726 0.325 Q1.466 0.345 1.448 0.477" stroke="hsl(0.0,100%,35%)" stroke-width="0.00075"></path>
<path d="M1.802 0.423 Q2.007 0.352 1.914 0.236" stroke="hsl(0.0,100%,35%)" stroke-width="0.00674"></path>
<path d="M1.802 0.423 Q1.577 0.519 1.715 0.650" stroke="hsl(0.0,100%,35%)" stroke-width="0.00337"></path>
<path d="M1.802 0.423 Q1.612 0.239 1.212 0.292" stroke="hsl(0.0,100%,35%)" stroke-width="0.00037"></path>
<path d="M1.802 0.423 Q1.842 0.358 1.726 0.325" stroke="hsl(0.0,100%,35%)" stroke-width="0.00037"></path>
<path d="M1.802 0.423 Q1.919 0.256 1.620 0.163" stroke="hsl(0.0,100%,35%)" stroke-width="0.00037"></path>
<path d="M1.802 0.423 Q1.582 0.379 1.448 0.477" stroke="hsl(0.0,100%,35%)" stroke-width="0.00225"></path>
<path d="M1.590 0.281 Q1.788 0.324 1.914 0.236" stroke="hsl(0.0,100%,35%)" stroke-width="0.00075"></path>
<path d="M1.590 0.281 Q1.694 0.387 1.923 0.359" stroke="hsl(0.0,100%,35%)" stroke-width="0.00037"></path>
<path d="M1.590 0.281 Q1.259 0.273 1.170 0.432" stroke="hsl(0.0,100%,35%)" stroke-width="0.00037"></path>
<path d="M1.923 0.359 Q2.017 0.296 1.914 0.236" stroke="hsl(0.0,100%,35%)" stroke-width="0.00898"></path>
<path d="M1.923 0.359 Q1.622 0.183 1.212 0.292" stroke="hsl(0.0,100%,35%)" stroke-width="0.00037"></path>
<path d="M1.923 0.359 Q1.586 0.463 1.715 0.650" stroke="hsl(0.0,100%,35%)" stroke-width="0.00150"></path>
<path d="M1.923 0.359 Q1.592 0.323 1.448 0.477" stroke="hsl(0.0,100%,35%)" stroke-width="0.00187"></path>
<path d="M1.923 0.359 Q1.929 0.201 1.620 0.163" stroke="hsl(0.0,100%,35%)" stroke-width="0.00037"></path>
<path d="M1.170 0.432 Q1.699 0.483 1.914 0.236" stroke="hsl(0.0,100%,35%)" stroke-width="0.01535"></path>
<path d="M1.170 0.432 Q1.274 0.510 1.448 0.477" stroke="hsl(0.0,100%,35%)" stroke-width="0.01497"></path>
<path d="M1.170 0.432 Q1.268 0.650 1.715 0.650" stroke="hsl(0.0,100%,35%)" stroke-width="0.00524"></path>
<path d="M1.170 0.432 Q1.076 0.355 0.904 0.384" stroke="hsl(0.0,100%,35%)" stroke-width="0.00075"></path>
<path d="M1.170 0.432 Q1.119 0.805 1.835 0.911" stroke="hsl(0.0,100%,35%)" stroke-width="0.00037"></path>
<path d="M1.170 0.432 Q1.605 0.546 1.923 0.359" stroke="hsl(0.0,100%,35%)" stroke-width="0.00187"></path>
<path d="M1.170 0.432 Q1.112 0.599 1.425 0.664" stroke="hsl(0.0,100%,35%)" stroke-width="0.00037"></path>
<path d="M1.433 0.111 Q1.408 0.277 1.726 0.325" stroke="hsl(0.0,100%,35%)" stroke-width="0.00262"></path>
<path d="M1.433 0.111 Q1.178 0.157 1.212 0.292" stroke="hsl(0.0,100%,35%)" stroke-width="0.00749"></path>
<path d="M1.433 0.111 Q1.573 0.270 1.914 0.236" stroke="hsl(0.0,100%,35%)" stroke-width="0.01460"></path>
<path d="M1.433 0.111 Q1.143 0.437 1.715 0.650" stroke="hsl(0.0,100%,35%)" stroke-width="0.00561"></path>
<path d="M1.433 0.111 Q1.485 0.174 1.620 0.163" stroke="hsl(0.0,100%,35%)" stroke-width="0.00187"></path>
<path d="M1.433 0.111 Q1.148 0.297 1.448 0.477" stroke="hsl(0.0,100%,35%)" stroke-width="0.00487"></path>
<path d="M1.433 0.111 Q1.479 0.333 1.923 0.359" stroke="hsl(0.0,100%,35%)" stroke-width="0.00187"></path>
<path d="M1.422 0.244 Q1.244 0.505 1.715 0.650" stroke="hsl(0.0,100%,35%)" stroke-width="0.00150"></path>
<path d="M1.422 0.244 Q1.249 0.365 1.448 0.477" stroke="hsl(0.0,100%,35%)" stroke-width="0.00749"></path>
<path d="M1.422 0.244 Q1.674 0.338 1.914 0.236" stroke="hsl(0.0,100%,35%)" stroke-width="0.00674"></path>
<path d="M1.422 0.244 Q1.145 0.287 1.170 0.432" stroke="hsl(0.0,100%,35%)" stroke-width="0.00112"></path>
<path d="M1.212 0.292 Q1.177 0.571 1.715 0.650" stroke="hsl(0.0,100%,35%)" stroke-width="0.00337"></path>
<path d="M1.212 0.292 Q1.214 0.170 0.978 0.143" stroke="hsl(0.0,100%,35%)" stroke-width="0.00150"></path>
<path d="M1.212 0.292 Q1.182 0.431 1.448 0.477" stroke="hsl(0.0,100%,35%)" stroke-width="0.00487"></path>
<path d="M1.212 0.292 Q1.442 0.411 1.726 0.325" stroke="hsl(0.0,100%,35%)" stroke-width="0.00150"></path>
<path d="M1.212 0.292 Q1.467 0.245 1.433 0.111" stroke="hsl(0.0,100%,35%)" stroke-width="0.00112"></path>
<path d="M1.212 0.292 Q1.519 0.309 1.620 0.163" stroke="hsl(0.0,100%,35%)" stroke-width="0.00374"></path>
<path d="M1.212 0.292 Q1.607 0.404 1.914 0.236" stroke="hsl(0.0,100%,35%)" stroke-width="0.00786"></path>
<path d="M1.212 0.292 Q1.203 0.638 1.877 0.719" stroke="hsl(0.0,100%,35%)" stroke-width="0.00037"></path>
<path d="M0.978 0.143 Q1.371 0.377 1.914 0.236" stroke="hsl(0.0,100%,35%)" stroke-width="0.00711"></path>
<path d="M0.978 0.143 Q0.941 0.544 1.715 0.650" stroke="hsl(0.0,100%,35%)" stroke-width="0.00374"></path>
<path d="M0.978 0.143 Q0.976 0.264 1.212 0.292" stroke="hsl(0.0,100%,35%)" stroke-width="0.00561"></path>
<path d="M0.978 0.143 Q1.206 0.383 1.726 0.325" stroke="hsl(0.0,100%,35%)" stroke-width="0.00337"></path>
<path d="M0.978 0.143 Q1.283 0.281 1.620 0.163" stroke="hsl(0.0,100%,35%)" stroke-width="0.00075"></path>
<path d="M0.978 0.143 Q0.946 0.404 1.448 0.477" stroke="hsl(0.0,100%,35%)" stroke-width="0.00187"></path>
<path d="M0.978 0.143 Q1.166 0.448 1.802 0.423" stroke="hsl(0.0,100%,35%)" stroke-width="0.00037"></path>
<path d="M0.978 0.143 Q1.277 0.440 1.923 0.359" stroke="hsl(0.0,100%,35%)" stroke-width="0.00075"></path>
<path d="M1.877 0.719 Q1.703 0.806 1.835 0.911" stroke="hsl(0.0,100%,35%)" stroke-width="0.00262"></path>
<path d="M1.877 0.719 Q1.857 0.512 1.448 0.477" stroke="hsl(0.0,100%,35%)" stroke-width="0.00374"></path>
<path d="M1.877 0.719 Q1.753 0.434 1.170 0.432" stroke="hsl(0.0,100%,35%)" stroke-width="0.00075"></path>
<path d="M1.877 0.719 Q2.282 0.485 1.914 0.236" stroke="hsl(0.0,100%,35%)" stroke-width="0.00487"></path>
<path d="M1.877 0.719 Q1.852 0.652 1.715 0.650" stroke="hsl(0.0,100%,35%)" stroke-width="0.00075"></path>
<path d="M0.904 0.384 Q0.999 0.461 1.170 0.432" stroke="hsl(0.0,100%,35%)" stroke-width="0.00037"></path>
<path d="M0.904 0.384 Q1.102 0.539 1.448 0.477" stroke="hsl(0.0,100%,35%)" stroke-width="0.00075"></path>
<path d="M0.904 0.384 Q1.527 0.512 1.914 0.236" stroke="hsl(0.0,100%,35%)" stroke-width="0.00075"></path>
<path d="M0.691 0.154 Q1.237 0.440 1.914 0.236" stroke="hsl(0.0,100%,35%)" stroke-width="0.00037"></path>
<path d="M0.691 0.154 Q0.844 0.206 0.978 0.143" stroke="hsl(0.0,100%,35%)" stroke-width="0.00037"></path>
<path d="M0.691 0.154 Q0.812 0.467 1.448 0.477" stroke="hsl(0.0,100%,35%)" stroke-width="0.00037"></path>
<path d="M1.765 0.408 Q1.546 0.519 1.715 0.650" stroke="hsl(0.0,100%,35%)" stroke-width="0.00412"></path>
<path d="M1.765 0.408 Q1.581 0.239 1.212 0.292" stroke="hsl(0.0,100%,35%)" stroke-width="0.00262"></path>
<path d="M1.765 0.408 Q1.976 0.352 1.914 0.236" stroke="hsl(0.0,100%,35%)" stroke-width="0.00636"></path>
<path d="M1.765 0.408 Q1.836 0.193 1.433 0.111" stroke="hsl(0.0,100%,35%)" stroke-width="0.00037"></path>
<path d="M1.765 0.408 Q1.551 0.379 1.448 0.477" stroke="hsl(0.0,100%,35%)" stroke-width="0.00037"></path>
<path d="M1.460 0.584 Q1.965 0.501 1.914 0.236" stroke="hsl(0.0,100%,35%)" stroke-width="0.00075"></path>
<path d="M1.460 0.584 Q1.572 0.267 0.978 0.143" stroke="hsl(0.0,100%,35%)" stroke-width="0.00037"></path>
<path d="M1.460 0.584 Q1.535 0.668 1.715 0.650" stroke="hsl(0.0,100%,35%)" stroke-width="0.00150"></path>
<path d="M1.966 0.362 Q2.041 0.289 1.914 0.236" stroke="hsl(0.0,100%,35%)" stroke-width="0.00374"></path>
<path d="M1.966 0.362 Q1.364 0.275 1.061 0.550" stroke="hsl(0.0,100%,35%)" stroke-width="0.00037"></path>
<path d="M1.966 0.362 Q1.616 0.316 1.448 0.477" stroke="hsl(0.0,100%,35%)" stroke-width="0.00037"></path>
<path d="M1.966 0.362 Q1.610 0.456 1.715 0.650" stroke="hsl(0.0,100%,35%)" stroke-width="0.00075"></path>
<path d="M1.829 0.770 Q2.298 0.520 1.914 0.236" stroke="hsl(0.0,100%,35%)" stroke-width="0.00037"></path>
<path d="M1.829 0.770 Q1.719 0.842 1.835 0.911" stroke="hsl(0.0,100%,35%)" stroke-width="0.00037"></path>
<path d="M1.524 0.579 Q1.993 0.485 1.914 0.236" stroke="hsl(0.0,100%,35%)" stroke-width="0.00225"></path>
<path d="M1.524 0.579 Q1.568 0.513 1.448 0.477" stroke="hsl(0.0,100%,35%)" stroke-width="0.00150"></path>
<path d="M1.524 0.579 Q1.905 0.390 1.620 0.163" stroke="hsl(0.0,100%,35%)" stroke-width="0.00037"></path>
<path d="M1.835 0.911 Q1.989 0.616 1.448 0.477" stroke="hsl(0.0,100%,35%)" stroke-width="0.00150"></path>
<path d="M1.835 0.911 Q1.984 0.757 1.715 0.650" stroke="hsl(0.0,100%,35%)" stroke-width="0.00112"></path>
<path d="M1.835 0.911 Q1.885 0.539 1.170 0.432" stroke="hsl(0.0,100%,35%)" stroke-width="0.00075"></path>
<path d="M1.835 0.911 Q2.414 0.589 1.914 0.236" stroke="hsl(0.0,100%,35%)" stroke-width="0.00150"></path>
<path d="M1.835 0.911 Q2.009 0.824 1.877 0.719" stroke="hsl(0.0,100%,35%)" stroke-width="0.00075"></path>
<path d="M1.835 0.911 Q1.839 0.840 1.701 0.822" stroke="hsl(0.0,100%,35%)" stroke-width="0.00037"></path>
<path d="M1.592 0.260 Q1.342 0.480 1.715 0.650" stroke="hsl(0.0,100%,35%)" stroke-width="0.00299"></path>
<path d="M1.592 0.260 Q1.772 0.313 1.914 0.236" stroke="hsl(0.0,100%,35%)" stroke-width="0.01348"></path>
<path d="M1.592 0.260 Q1.347 0.340 1.448 0.477" stroke="hsl(0.0,100%,35%)" stroke-width="0.00337"></path>
<path d="M1.592 0.260 Q1.607 0.319 1.726 0.325" stroke="hsl(0.0,100%,35%)" stroke-width="0.00037"></path>
<path d="M1.698 0.383 Q1.924 0.353 1.914 0.236" stroke="hsl(0.0,100%,35%)" stroke-width="0.00299"></path>
<path d="M1.698 0.383 Q1.499 0.380 1.448 0.477" stroke="hsl(0.0,100%,35%)" stroke-width="0.00187"></path>
<path d="M1.698 0.383 Q1.301 0.225 0.904 0.384" stroke="hsl(0.0,100%,35%)" stroke-width="0.00037"></path>
<path d="M1.425 0.664 Q1.607 0.782 1.877 0.719" stroke="hsl(0.0,100%,35%)" stroke-width="0.00037"></path>
<path d="M1.425 0.664 Q1.587 0.575 1.448 0.477" stroke="hsl(0.0,100%,35%)" stroke-width="0.00374"></path>
<path d="M1.425 0.664 Q1.433 0.870 1.835 0.911" stroke="hsl(0.0,100%,35%)" stroke-width="0.00112"></path>
<path d="M1.425 0.664 Q2.012 0.548 1.914 0.236" stroke="hsl(0.0,100%,35%)" stroke-width="0.00299"></path>
<path d="M1.425 0.664 Q1.483 0.497 1.170 0.432" stroke="hsl(0.0,100%,35%)" stroke-width="0.00037"></path>
<path d="M1.786 0.053 Q1.499 0.241 1.802 0.423" stroke="hsl(0.0,100%,35%)" stroke-width="0.00075"></path>
<path d="M1.786 0.053 Q1.273 0.337 1.715 0.650" stroke="hsl(0.0,100%,35%)" stroke-width="0.00075"></path>
<path d="M1.786 0.053 Q1.704 0.170 1.914 0.236" stroke="hsl(0.0,100%,35%)" stroke-width="0.00150"></path>
<path d="M1.786 0.053 Q1.539 0.177 1.726 0.325" stroke="hsl(0.0,100%,35%)" stroke-width="0.00037"></path>
<path d="M1.786 0.053 Q1.279 0.197 1.448 0.477" stroke="hsl(0.0,100%,35%)" stroke-width="0.00075"></path>
<path d="M1.657 0.378 Q1.898 0.358 1.914 0.236" stroke="hsl(0.0,100%,35%)" stroke-width="0.00187"></path>
<path d="M1.657 0.378 Q1.503 0.246 1.212 0.292" stroke="hsl(0.0,100%,35%)" stroke-width="0.00037"></path>
<path d="M1.657 0.378 Q1.693 0.429 1.802 0.423" stroke="hsl(0.0,100%,35%)" stroke-width="0.00075"></path>
<path d="M1.657 0.378 Q1.473 0.385 1.448 0.477" stroke="hsl(0.0,100%,35%)" stroke-width="0.00075"></path>
<path d="M1.611 0.362 Q1.334 0.309 1.170 0.432" stroke="hsl(0.0,100%,35%)" stroke-width="0.00037"></path>
<path d="M1.611 0.362 Q1.438 0.387 1.448 0.477" stroke="hsl(0.0,100%,35%)" stroke-width="0.00187"></path>
<path d="M1.611 0.362 Q1.863 0.360 1.914 0.236" stroke="hsl(0.0,100%,35%)" stroke-width="0.00262"></path>
<path d="M1.611 0.362 Q1.433 0.527 1.715 0.650" stroke="hsl(0.0,100%,35%)" stroke-width="0.00037"></path>
<path d="M1.611 0.362 Q1.284 0.681 1.835 0.911" stroke="hsl(0.0,100%,35%)" stroke-width="0.00075"></path>
<path d="M1.611 0.362 Q1.769 0.423 1.923 0.359" stroke="hsl(0.0,100%,35%)" stroke-width="0.00037"></path>
<path d="M1.673 0.369 Q1.900 0.351 1.914 0.236" stroke="hsl(0.0,100%,35%)" stroke-width="0.00150"></path>
<path d="M1.673 0.369 Q1.475 0.378 1.448 0.477" stroke="hsl(0.0,100%,35%)" stroke-width="0.00037"></path>
<path d="M1.203 0.643 Q1.459 0.609 1.448 0.477" stroke="hsl(0.0,100%,35%)" stroke-width="0.00075"></path>
<path d="M1.203 0.643 Q1.884 0.582 1.914 0.236" stroke="hsl(0.0,100%,35%)" stroke-width="0.00037"></path>
<path d="M1.203 0.643 Q1.453 0.749 1.715 0.650" stroke="hsl(0.0,100%,35%)" stroke-width="0.00037"></path>
<path d="M1.203 0.643 Q1.304 0.903 1.835 0.911" stroke="hsl(0.0,100%,35%)" stroke-width="0.00037"></path>
<path d="M1.203 0.643 Q1.414 0.832 1.829 0.770" stroke="hsl(0.0,100%,35%)" stroke-width="0.00037"></path>
<path d="M1.803 0.395 Q1.985 0.337 1.914 0.236" stroke="hsl(0.0,100%,35%)" stroke-width="0.00636"></path>
<path d="M1.803 0.395 Q1.560 0.365 1.448 0.477" stroke="hsl(0.0,100%,35%)" stroke-width="0.00187"></path>
<path d="M1.803 0.395 Q1.457 0.287 1.170 0.432" stroke="hsl(0.0,100%,35%)" stroke-width="0.00299"></path>
<path d="M0.944 0.325 Q1.500 0.474 1.914 0.236" stroke="hsl(0.0,100%,35%)" stroke-width="0.00299"></path>
<path d="M0.944 0.325 Q1.075 0.501 1.448 0.477" stroke="hsl(0.0,100%,35%)" stroke-width="0.00112"></path>
<path d="M0.944 0.325 Q0.971 0.424 1.170 0.432" stroke="hsl(0.0,100%,35%)" stroke-width="0.00187"></path>
<path d="M0.944 0.325 Q0.921 0.796 1.835 0.911" stroke="hsl(0.0,100%,35%)" stroke-width="0.00037"></path>
<path d="M1.892 0.072 Q1.683 0.063 1.620 0.163" stroke="hsl(0.0,100%,35%)" stroke-width="0.00337"></path>
<path d="M1.892 0.072 Q1.771 0.158 1.914 0.236" stroke="hsl(0.0,100%,35%)" stroke-width="0.00898"></path>
<path d="M1.892 0.072 Q1.346 0.185 1.448 0.477" stroke="hsl(0.0,100%,35%)" stroke-width="0.00037"></path>
<path d="M1.892 0.072 Q1.341 0.325 1.715 0.650" stroke="hsl(0.0,100%,35%)" stroke-width="0.00037"></path>
<path d="M1.892 0.072 Q1.631 -0.000 1.433 0.111" stroke="hsl(0.0,100%,35%)" stroke-width="0.00075"></path>
<path d="M1.892 0.072 Q1.378 -0.075 0.978 0.143" stroke="hsl(0.0,100%,35%)" stroke-width="0.00037"></path>
<path d="M1.951 0.520 Q1.734 0.398 1.448 0.477" stroke="hsl(0.0,100%,35%)" stroke-width="0.00225"></path>
<path d="M1.951 0.520 Q1.968 0.514 1.962 0.504" stroke="hsl(0.0,100%,35%)" stroke-width="0.00112"></path>
<path d="M1.951 0.520 Q2.159 0.370 1.914 0.236" stroke="hsl(0.0,100%,35%)" stroke-width="0.00150"></path>
<path d="M1.144 0.559 Q1.357 0.719 1.715 0.650" stroke="hsl(0.0,100%,35%)" stroke-width="0.00075"></path>
<path d="M1.144 0.559 Q1.362 0.579 1.448 0.477" stroke="hsl(0.0,100%,35%)" stroke-width="0.00037"></path>
<path d="M1.144 0.559 Q1.787 0.552 1.914 0.236" stroke="hsl(0.0,100%,35%)" stroke-width="0.00037"></path>
<path d="M0.867 0.062 Q0.821 0.525 1.715 0.650" stroke="hsl(0.0,100%,35%)" stroke-width="0.00037"></path>
<path d="M0.867 0.062 Q1.251 0.358 1.914 0.236" stroke="hsl(0.0,100%,35%)" stroke-width="0.00187"></path>
<path d="M0.867 0.062 Q1.086 0.365 1.726 0.325" stroke="hsl(0.0,100%,35%)" stroke-width="0.00075"></path>
<path d="M0.867 0.062 Q0.858 0.125 0.978 0.143" stroke="hsl(0.0,100%,35%)" stroke-width="0.00150"></path>
<path d="M1.334 0.604 Q1.918 0.536 1.914 0.236" stroke="hsl(0.0,100%,35%)" stroke-width="0.00075"></path>
<path d="M1.334 0.604 Q1.488 0.703 1.715 0.650" stroke="hsl(0.0,100%,35%)" stroke-width="0.00112"></path>
<path d="M1.334 0.604 Q1.339 0.858 1.835 0.911" stroke="hsl(0.0,100%,35%)" stroke-width="0.00037"></path>
<path d="M1.334 0.604 Q1.693 0.567 1.698 0.383" stroke="hsl(0.0,100%,35%)" stroke-width="0.00075"></path>
<path d="M1.334 0.604 Q1.493 0.563 1.448 0.477" stroke="hsl(0.0,100%,35%)" stroke-width="0.00037"></path>
</g>
<text x="0.420" y="0.298" font-size="0.013416" fill="hsl(0.0,100%,20%)">aleino</text>
<text x="1.914" y="0.184" font-size="0.104631" fill="hsl(0.0,100%,20%)">jmadill</text>
<text x="1.448" y="0.445" font-size="0.063762" fill="hsl(0.0,100%,20%)">geofflang</text>
<text x="0.279" y="0.173" font-size="0.006508" fill="hsl(0.0,100%,20%)">kkinnunen</text>
<text x="1.936" y="0.579" font-size="0.007276" fill="hsl(0.0,100%,20%)">artyom</text>
<text x="1.715" y="0.613" font-size="0.073410" fill="hsl(0.0,100%,20%)">syoussefi</text>
<text x="1.962" y="0.500" font-size="0.007970" fill="hsl(0.0,100%,20%)">rafael.cintron</text>
<text x="1.887" y="0.076" font-size="0.015605" fill="hsl(0.0,100%,20%)">b.schade</text>
<text x="1.061" y="0.545" font-size="0.010290" fill="hsl(0.0,100%,20%)">cclao</text>
<text x="1.620" y="0.142" font-size="0.042300" fill="hsl(0.0,100%,20%)">tobine</text>
<text x="1.726" y="0.304" font-size="0.041923" fill="hsl(0.0,100%,20%)">cnorthrop</text>
<text x="1.802" y="0.412" font-size="0.022069" fill="hsl(0.0,100%,20%)">m.maiya</text>
<text x="1.590" y="0.278" font-size="0.006508" fill="hsl(0.0,100%,20%)">bsheedy</text>
<text x="1.923" y="0.340" font-size="0.038911" fill="hsl(0.0,100%,20%)">ynovikov</text>
<text x="1.170" y="0.407" font-size="0.050931" fill="hsl(0.0,100%,20%)">jonahr</text>
<text x="1.433" y="0.087" font-size="0.049024" fill="hsl(0.0,100%,20%)">timvp</text>
<text x="1.422" y="0.232" font-size="0.022543" fill="hsl(0.0,100%,20%)">clemendeng</text>
<text x="1.212" y="0.270" font-size="0.043045" fill="hsl(0.0,100%,20%)">courtneygo</text>
<text x="0.978" y="0.127" font-size="0.031547" fill="hsl(0.0,100%,20%)">ianelliott</text>
<text x="1.423" y="0.228" font-size="0.005636" fill="hsl(0.0,100%,20%)">lfy</text>
<text x="1.877" y="0.709" font-size="0.020579" fill="hsl(0.0,100%,20%)">jdarpinian</text>
<text x="0.904" y="0.378" font-size="0.012175" fill="hsl(0.0,100%,20%)">cwallez</text>
<text x="0.691" y="0.151" font-size="0.005636" fill="hsl(0.0,100%,20%)">davidben</text>
<text x="1.765" y="0.398" font-size="0.020058" fill="hsl(0.0,100%,20%)">dongja</text>
<text x="1.460" y="0.580" font-size="0.008609" fill="hsl(0.0,100%,20%)">ericbinet</text>
<text x="1.966" y="0.356" font-size="0.012602" fill="hsl(0.0,100%,20%)">flibitijibibo</text>
<text x="1.829" y="0.767" font-size="0.006508" fill="hsl(0.0,100%,20%)">zmo</text>
<text x="1.524" y="0.572" font-size="0.013015" fill="hsl(0.0,100%,20%)">sugoi</text>
<text x="1.835" y="0.901" font-size="0.020579" fill="hsl(0.0,100%,20%)">kbr</text>
<text x="1.592" y="0.248" font-size="0.025204" fill="hsl(0.0,100%,20%)">spang</text>
<text x="1.698" y="0.376" font-size="0.015262" fill="hsl(0.0,100%,20%)">jiajia.qin</text>
<text x="1.425" y="0.656" font-size="0.016269" fill="hsl(0.0,100%,20%)">shrekshao</text>
<text x="1.786" y="0.047" font-size="0.011272" fill="hsl(0.0,100%,20%)">hckim.kim</text>
<text x="1.657" y="0.372" font-size="0.010290" fill="hsl(0.0,100%,20%)">j.vigil</text>
<text x="1.611" y="0.355" font-size="0.013416" fill="hsl(0.0,100%,20%)">jgilbert</text>
<text x="1.673" y="0.366" font-size="0.007276" fill="hsl(0.0,100%,20%)">jie.a.chen</text>
<text x="1.670" y="0.471" font-size="0.003254" fill="hsl(0.0,100%,20%)">amaiorano</text>
<text x="1.630" y="0.509" font-size="0.003254" fill="hsl(0.0,100%,20%)">le.hoang.q</text>
<text x="1.701" y="0.820" font-size="0.004602" fill="hsl(0.0,100%,20%)">kainino</text>
<text x="1.203" y="0.639" font-size="0.007970" fill="hsl(0.0,100%,20%)">khushalsagar</text>
<text x="1.803" y="0.386" font-size="0.017822" fill="hsl(0.0,100%,20%)">lehoangq</text>
<text x="0.944" y="0.318" font-size="0.013416" fill="hsl(0.0,100%,20%)">lexa.knyazev</text>
<text x="1.892" y="0.062" font-size="0.020058" fill="hsl(0.0,100%,20%)">lujc</text>
<text x="1.951" y="0.514" font-size="0.011732" fill="hsl(0.0,100%,20%)">mihu</text>
<text x="1.144" y="0.556" font-size="0.006508" fill="hsl(0.0,100%,20%)">shaobo.yan</text>
<text x="1.256" y="0.586" font-size="0.003254" fill="hsl(0.0,100%,20%)">jaedon1.lee</text>
<text x="0.867" y="0.056" font-size="0.011732" fill="hsl(0.0,100%,20%)">xinyi.he</text>
<text x="1.207" y="0.504" font-size="0.004602" fill="hsl(0.0,100%,20%)">sunny.sun</text>
<text x="1.312" y="0.668" font-size="0.003254" fill="hsl(0.0,100%,20%)">fei.yang</text>
<text x="1.334" y="0.599" font-size="0.009762" fill="hsl(0.0,100%,20%)">xinghua.cao</text>
</svg>
