<svg width="4000" height="2000" viewBox="-0.025 -0.025 2.05 1.05" xmlns="http://www.w3.org/2000/svg">
  <style>
    path {
      fill: none;
      stroke-linecap: round;
      stroke-opacity: 0.4;
    }

    text {
      text-anchor: middle;
      alignment-baseline: hanging;
    }
  </style>
  <g opacity="0.4">
<path d="M0.810 1.012 Q0.775 0.990 0.725 1.002" stroke="hsl(0.0,100%,35%)" stroke-width="0.00282"></path>
<path d="M0.810 1.012 Q1.281 0.887 1.142 0.630" stroke="hsl(0.0,100%,35%)" stroke-width="0.00205"></path>
<path d="M0.810 1.012 Q0.703 0.897 0.455 0.923" stroke="hsl(0.0,100%,35%)" stroke-width="0.00051"></path>
<path d="M0.810 1.012 Q1.936 0.789 1.749 0.191" stroke="hsl(0.0,100%,35%)" stroke-width="0.00026"></path>
<path d="M0.725 1.002 Q1.053 0.873 0.874 0.685" stroke="hsl(0.0,100%,35%)" stroke-width="0.00051"></path>
<path d="M0.725 1.002 Q1.088 0.928 1.021 0.734" stroke="hsl(0.0,100%,35%)" stroke-width="0.00128"></path>
<path d="M0.725 1.002 Q1.231 0.899 1.142 0.630" stroke="hsl(0.0,100%,35%)" stroke-width="0.06645"></path>
<path d="M0.725 1.002 Q0.860 0.964 0.815 0.890" stroke="hsl(0.0,100%,35%)" stroke-width="0.04747"></path>
<path d="M0.725 1.002 Q0.653 0.909 0.455 0.923" stroke="hsl(0.0,100%,35%)" stroke-width="0.00949"></path>
<path d="M0.725 1.002 Q0.815 0.730 0.304 0.627" stroke="hsl(0.0,100%,35%)" stroke-width="0.00026"></path>
<path d="M0.725 1.002 Q1.212 0.961 1.238 0.715" stroke="hsl(0.0,100%,35%)" stroke-width="0.00334"></path>
<path d="M0.725 1.002 Q1.075 0.677 0.516 0.434" stroke="hsl(0.0,100%,35%)" stroke-width="0.00462"></path>
<path d="M0.725 1.002 Q1.119 1.114 1.422 0.946" stroke="hsl(0.0,100%,35%)" stroke-width="0.00231"></path>
<path d="M0.725 1.002 Q0.824 0.864 0.575 0.785" stroke="hsl(0.0,100%,35%)" stroke-width="0.00051"></path>
<path d="M0.725 1.002 Q1.067 0.781 0.710 0.566" stroke="hsl(0.0,100%,35%)" stroke-width="0.00282"></path>
<path d="M0.725 1.002 Q1.327 0.815 1.093 0.480" stroke="hsl(0.0,100%,35%)" stroke-width="0.00128"></path>
<path d="M0.725 1.002 Q0.805 0.841 0.507 0.767" stroke="hsl(0.0,100%,35%)" stroke-width="0.00026"></path>
<path d="M0.725 1.002 Q1.255 1.039 1.443 0.788" stroke="hsl(0.0,100%,35%)" stroke-width="0.00077"></path>
<path d="M0.725 1.002 Q1.014 1.034 1.140 0.901" stroke="hsl(0.0,100%,35%)" stroke-width="0.00026"></path>
<path d="M0.725 1.002 Q1.655 1.016 1.886 0.565" stroke="hsl(0.0,100%,35%)" stroke-width="0.00026"></path>
<path d="M0.725 1.002 Q0.743 1.173 1.081 1.202" stroke="hsl(0.0,100%,35%)" stroke-width="0.00026"></path>
<path d="M0.725 1.002 Q0.966 0.864 0.749 0.716" stroke="hsl(0.0,100%,35%)" stroke-width="0.00026"></path>
<path d="M0.725 1.002 Q1.886 0.801 1.749 0.191" stroke="hsl(0.0,100%,35%)" stroke-width="0.00128"></path>
<path d="M0.725 1.002 Q0.503 0.855 0.167 0.931" stroke="hsl(0.0,100%,35%)" stroke-width="0.00026"></path>
<path d="M0.725 1.002 Q0.926 0.860 0.691 0.730" stroke="hsl(0.0,100%,35%)" stroke-width="0.00051"></path>
<path d="M0.725 1.002 Q0.686 0.857 0.394 0.844" stroke="hsl(0.0,100%,35%)" stroke-width="0.00026"></path>
<path d="M1.142 0.630 Q0.636 0.733 0.725 1.002" stroke="hsl(0.0,100%,35%)" stroke-width="0.02951"></path>
<path d="M1.142 0.630 Q1.122 0.692 1.238 0.715" stroke="hsl(0.0,100%,35%)" stroke-width="0.02720"></path>
<path d="M1.142 0.630 Q0.564 0.639 0.455 0.923" stroke="hsl(0.0,100%,35%)" stroke-width="0.00308"></path>
<path d="M1.142 0.630 Q1.360 0.601 1.352 0.489" stroke="hsl(0.0,100%,35%)" stroke-width="0.00308"></path>
<path d="M1.142 0.630 Q1.238 0.545 1.093 0.480" stroke="hsl(0.0,100%,35%)" stroke-width="0.03233"></path>
<path d="M1.142 0.630 Q0.771 0.695 0.815 0.890" stroke="hsl(0.0,100%,35%)" stroke-width="0.03310"></path>
<path d="M1.142 0.630 Q0.924 0.765 1.140 0.901" stroke="hsl(0.0,100%,35%)" stroke-width="0.00026"></path>
<path d="M1.142 0.630 Q1.085 0.528 0.873 0.533" stroke="hsl(0.0,100%,35%)" stroke-width="0.00026"></path>
<path d="M1.142 0.630 Q0.715 0.571 0.507 0.767" stroke="hsl(0.0,100%,35%)" stroke-width="0.00051"></path>
<path d="M1.142 0.630 Q0.977 0.511 0.710 0.566" stroke="hsl(0.0,100%,35%)" stroke-width="0.00718"></path>
<path d="M1.142 0.630 Q1.413 0.568 1.352 0.423" stroke="hsl(0.0,100%,35%)" stroke-width="0.00026"></path>
<path d="M1.142 0.630 Q1.029 0.844 1.422 0.946" stroke="hsl(0.0,100%,35%)" stroke-width="0.00693"></path>
<path d="M1.142 0.630 Q1.797 0.532 1.749 0.191" stroke="hsl(0.0,100%,35%)" stroke-width="0.00026"></path>
<path d="M1.142 0.630 Q0.921 0.569 0.753 0.664" stroke="hsl(0.0,100%,35%)" stroke-width="0.00077"></path>
<path d="M1.142 0.630 Q0.986 0.407 0.516 0.434" stroke="hsl(0.0,100%,35%)" stroke-width="0.00103"></path>
<path d="M1.142 0.630 Q0.948 0.565 0.780 0.646" stroke="hsl(0.0,100%,35%)" stroke-width="0.00026"></path>
<path d="M1.142 0.630 Q1.230 0.443 0.883 0.359" stroke="hsl(0.0,100%,35%)" stroke-width="0.00154"></path>
<path d="M1.142 0.630 Q1.005 0.574 0.865 0.628" stroke="hsl(0.0,100%,35%)" stroke-width="0.00026"></path>
<path d="M1.142 0.630 Q0.802 0.718 0.899 0.903" stroke="hsl(0.0,100%,35%)" stroke-width="0.00026"></path>
<path d="M1.142 0.630 Q0.725 0.461 0.304 0.627" stroke="hsl(0.0,100%,35%)" stroke-width="0.00026"></path>
<path d="M1.142 0.630 Q0.998 0.658 1.021 0.734" stroke="hsl(0.0,100%,35%)" stroke-width="0.00026"></path>
<path d="M1.142 0.630 Q1.045 0.587 0.940 0.625" stroke="hsl(0.0,100%,35%)" stroke-width="0.00026"></path>
<path d="M0.455 0.923 Q0.527 1.017 0.725 1.002" stroke="hsl(0.0,100%,35%)" stroke-width="0.01462"></path>
<path d="M0.455 0.923 Q1.033 0.914 1.142 0.630" stroke="hsl(0.0,100%,35%)" stroke-width="0.02053"></path>
<path d="M0.455 0.923 Q0.662 0.979 0.815 0.890" stroke="hsl(0.0,100%,35%)" stroke-width="0.01232"></path>
<path d="M0.455 0.923 Q0.877 0.691 0.516 0.434" stroke="hsl(0.0,100%,35%)" stroke-width="0.00616"></path>
<path d="M0.455 0.923 Q0.607 0.855 0.507 0.767" stroke="hsl(0.0,100%,35%)" stroke-width="0.00026"></path>
<path d="M0.455 0.923 Q0.890 0.942 1.021 0.734" stroke="hsl(0.0,100%,35%)" stroke-width="0.00026"></path>
<path d="M0.455 0.923 Q1.129 0.829 1.093 0.480" stroke="hsl(0.0,100%,35%)" stroke-width="0.00180"></path>
<path d="M0.455 0.923 Q0.921 1.128 1.422 0.946" stroke="hsl(0.0,100%,35%)" stroke-width="0.00077"></path>
<path d="M1.749 0.191 Q0.588 0.392 0.725 1.002" stroke="hsl(0.0,100%,35%)" stroke-width="0.00282"></path>
<path d="M1.749 0.191 Q1.604 0.163 1.517 0.228" stroke="hsl(0.0,100%,35%)" stroke-width="0.00026"></path>
<path d="M1.749 0.191 Q1.075 0.351 1.238 0.715" stroke="hsl(0.0,100%,35%)" stroke-width="0.00154"></path>
<path d="M1.749 0.191 Q1.094 0.289 1.142 0.630" stroke="hsl(0.0,100%,35%)" stroke-width="0.00231"></path>
<path d="M1.749 0.191 Q1.741 0.287 1.927 0.312" stroke="hsl(0.0,100%,35%)" stroke-width="0.00026"></path>
<path d="M1.749 0.191 Q0.724 0.354 0.815 0.890" stroke="hsl(0.0,100%,35%)" stroke-width="0.00026"></path>
<path d="M1.749 0.191 Q0.930 0.170 0.710 0.566" stroke="hsl(0.0,100%,35%)" stroke-width="0.00051"></path>
<path d="M1.749 0.191 Q1.851 0.163 1.819 0.108" stroke="hsl(0.0,100%,35%)" stroke-width="0.00026"></path>
<path d="M1.749 0.191 Q1.191 0.204 1.093 0.480" stroke="hsl(0.0,100%,35%)" stroke-width="0.00051"></path>
<path d="M1.749 0.191 Q0.982 0.503 1.422 0.946" stroke="hsl(0.0,100%,35%)" stroke-width="0.00026"></path>
<path d="M0.962 0.124 Q0.807 0.108 0.743 0.181" stroke="hsl(0.0,100%,35%)" stroke-width="0.00128"></path>
<path d="M0.962 0.124 Q0.647 0.413 1.142 0.630" stroke="hsl(0.0,100%,35%)" stroke-width="0.00128"></path>
<path d="M0.962 0.124 Q0.534 0.627 1.422 0.946" stroke="hsl(0.0,100%,35%)" stroke-width="0.00051"></path>
<path d="M1.422 0.946 Q1.706 1.005 1.883 0.879" stroke="hsl(0.0,100%,35%)" stroke-width="0.00026"></path>
<path d="M1.422 0.946 Q1.029 0.835 0.725 1.002" stroke="hsl(0.0,100%,35%)" stroke-width="0.00231"></path>
<path d="M1.422 0.946 Q1.535 0.732 1.142 0.630" stroke="hsl(0.0,100%,35%)" stroke-width="0.00641"></path>
<path d="M1.422 0.946 Q1.317 0.867 1.140 0.901" stroke="hsl(0.0,100%,35%)" stroke-width="0.00180"></path>
<path d="M1.422 0.946 Q2.190 0.634 1.749 0.191" stroke="hsl(0.0,100%,35%)" stroke-width="0.00128"></path>
<path d="M1.422 0.946 Q1.663 0.940 1.705 0.822" stroke="hsl(0.0,100%,35%)" stroke-width="0.00026"></path>
<path d="M1.422 0.946 Q1.164 0.796 0.815 0.890" stroke="hsl(0.0,100%,35%)" stroke-width="0.00103"></path>
<path d="M1.422 0.946 Q1.270 0.696 0.749 0.716" stroke="hsl(0.0,100%,35%)" stroke-width="0.00026"></path>
<path d="M1.422 0.946 Q1.370 0.613 0.710 0.566" stroke="hsl(0.0,100%,35%)" stroke-width="0.00180"></path>
<path d="M1.422 0.946 Q1.478 0.629 0.873 0.533" stroke="hsl(0.0,100%,35%)" stroke-width="0.00026"></path>
<path d="M1.422 0.946 Q1.391 0.760 1.021 0.734" stroke="hsl(0.0,100%,35%)" stroke-width="0.00026"></path>
<path d="M1.422 0.946 Q1.812 0.959 1.922 0.771" stroke="hsl(0.0,100%,35%)" stroke-width="0.00026"></path>
<path d="M1.422 0.946 Q0.957 0.741 0.455 0.923" stroke="hsl(0.0,100%,35%)" stroke-width="0.00051"></path>
<path d="M1.422 0.946 Q1.515 0.794 1.238 0.715" stroke="hsl(0.0,100%,35%)" stroke-width="0.00026"></path>
<path d="M0.904 0.796 Q1.156 0.761 1.142 0.630" stroke="hsl(0.0,100%,35%)" stroke-width="0.00103"></path>
<path d="M0.904 0.796 Q0.650 0.864 0.725 1.002" stroke="hsl(0.0,100%,35%)" stroke-width="0.00077"></path>
<path d="M0.904 0.796 Q0.785 0.825 0.815 0.890" stroke="hsl(0.0,100%,35%)" stroke-width="0.00026"></path>
<path d="M0.815 0.890 Q1.186 0.825 1.142 0.630" stroke="hsl(0.0,100%,35%)" stroke-width="0.01514"></path>
<path d="M0.815 0.890 Q0.680 0.928 0.725 1.002" stroke="hsl(0.0,100%,35%)" stroke-width="0.00949"></path>
<path d="M0.815 0.890 Q1.282 0.740 1.093 0.480" stroke="hsl(0.0,100%,35%)" stroke-width="0.00718"></path>
<path d="M0.815 0.890 Q1.030 0.602 0.516 0.434" stroke="hsl(0.0,100%,35%)" stroke-width="0.00180"></path>
<path d="M0.815 0.890 Q0.715 0.949 0.810 1.012" stroke="hsl(0.0,100%,35%)" stroke-width="0.00026"></path>
<path d="M0.815 0.890 Q0.608 0.834 0.455 0.923" stroke="hsl(0.0,100%,35%)" stroke-width="0.00385"></path>
<path d="M0.815 0.890 Q0.888 0.559 0.259 0.450" stroke="hsl(0.0,100%,35%)" stroke-width="0.00051"></path>
<path d="M0.815 0.890 Q1.074 1.039 1.422 0.946" stroke="hsl(0.0,100%,35%)" stroke-width="0.00385"></path>
<path d="M0.815 0.890 Q1.167 0.887 1.238 0.715" stroke="hsl(0.0,100%,35%)" stroke-width="0.00077"></path>
<path d="M0.753 0.642 Q0.957 0.714 1.142 0.630" stroke="hsl(0.0,100%,35%)" stroke-width="0.00154"></path>
<path d="M0.753 0.642 Q0.451 0.816 0.725 1.002" stroke="hsl(0.0,100%,35%)" stroke-width="0.00180"></path>
<path d="M0.753 0.642 Q0.813 0.742 1.021 0.734" stroke="hsl(0.0,100%,35%)" stroke-width="0.00026"></path>
<path d="M0.753 0.642 Q0.694 0.692 0.779 0.732" stroke="hsl(0.0,100%,35%)" stroke-width="0.00026"></path>
<path d="M0.753 0.642 Q0.785 0.654 0.816 0.642" stroke="hsl(0.0,100%,35%)" stroke-width="0.00026"></path>
<path d="M0.753 0.642 Q0.801 0.491 0.516 0.434" stroke="hsl(0.0,100%,35%)" stroke-width="0.00026"></path>
<path d="M1.021 0.734 Q0.659 0.809 0.725 1.002" stroke="hsl(0.0,100%,35%)" stroke-width="0.01924"></path>
<path d="M1.021 0.734 Q0.587 0.716 0.455 0.923" stroke="hsl(0.0,100%,35%)" stroke-width="0.00051"></path>
<path d="M1.021 0.734 Q1.165 0.706 1.142 0.630" stroke="hsl(0.0,100%,35%)" stroke-width="0.01950"></path>
<path d="M1.021 0.734 Q0.794 0.771 0.815 0.890" stroke="hsl(0.0,100%,35%)" stroke-width="0.00154"></path>
<path d="M1.021 0.734 Q1.053 0.920 1.422 0.946" stroke="hsl(0.0,100%,35%)" stroke-width="0.00051"></path>
<path d="M0.516 0.434 Q0.202 0.782 0.810 1.012" stroke="hsl(0.0,100%,35%)" stroke-width="0.00026"></path>
<path d="M0.516 0.434 Q0.375 0.391 0.259 0.450" stroke="hsl(0.0,100%,35%)" stroke-width="0.00026"></path>
<path d="M0.516 0.434 Q0.167 0.760 0.725 1.002" stroke="hsl(0.0,100%,35%)" stroke-width="0.00487"></path>
<path d="M0.516 0.434 Q0.095 0.667 0.455 0.923" stroke="hsl(0.0,100%,35%)" stroke-width="0.00051"></path>
<path d="M0.516 0.434 Q0.246 0.599 0.507 0.767" stroke="hsl(0.0,100%,35%)" stroke-width="0.00026"></path>
<path d="M0.516 0.434 Q0.302 0.722 0.815 0.890" stroke="hsl(0.0,100%,35%)" stroke-width="0.00334"></path>
<path d="M0.516 0.434 Q0.673 0.657 1.142 0.630" stroke="hsl(0.0,100%,35%)" stroke-width="0.00308"></path>
<path d="M0.516 0.434 Q0.891 0.629 1.352 0.489" stroke="hsl(0.0,100%,35%)" stroke-width="0.00026"></path>
<path d="M0.516 0.434 Q0.653 0.719 1.238 0.715" stroke="hsl(0.0,100%,35%)" stroke-width="0.00180"></path>
<path d="M0.516 0.434 Q0.769 0.572 1.093 0.480" stroke="hsl(0.0,100%,35%)" stroke-width="0.00308"></path>
<path d="M0.516 0.434 Q0.560 0.871 1.422 0.946" stroke="hsl(0.0,100%,35%)" stroke-width="0.00077"></path>
<path d="M0.516 0.434 Q0.594 0.375 0.494 0.324" stroke="hsl(0.0,100%,35%)" stroke-width="0.00026"></path>
<path d="M0.516 0.434 Q0.712 0.369 0.627 0.260" stroke="hsl(0.0,100%,35%)" stroke-width="0.00077"></path>
<path d="M0.516 0.434 Q1.327 0.559 1.749 0.191" stroke="hsl(0.0,100%,35%)" stroke-width="0.00026"></path>
<path d="M0.395 0.855 Q0.443 0.995 0.725 1.002" stroke="hsl(0.0,100%,35%)" stroke-width="0.00667"></path>
<path d="M0.395 0.855 Q0.949 0.892 1.142 0.630" stroke="hsl(0.0,100%,35%)" stroke-width="0.00641"></path>
<path d="M0.395 0.855 Q0.578 0.957 0.815 0.890" stroke="hsl(0.0,100%,35%)" stroke-width="0.00205"></path>
<path d="M0.395 0.855 Q0.805 0.920 1.021 0.734" stroke="hsl(0.0,100%,35%)" stroke-width="0.00026"></path>
<path d="M0.507 0.767 Q0.356 0.835 0.455 0.923" stroke="hsl(0.0,100%,35%)" stroke-width="0.00411"></path>
<path d="M0.507 0.767 Q0.821 1.039 1.422 0.946" stroke="hsl(0.0,100%,35%)" stroke-width="0.00026"></path>
<path d="M0.507 0.767 Q1.030 0.740 1.093 0.480" stroke="hsl(0.0,100%,35%)" stroke-width="0.00026"></path>
<path d="M0.507 0.767 Q0.934 0.825 1.142 0.630" stroke="hsl(0.0,100%,35%)" stroke-width="0.00436"></path>
<path d="M0.507 0.767 Q0.428 0.928 0.725 1.002" stroke="hsl(0.0,100%,35%)" stroke-width="0.00257"></path>
<path d="M0.507 0.767 Q0.563 0.890 0.815 0.890" stroke="hsl(0.0,100%,35%)" stroke-width="0.00154"></path>
<path d="M1.093 0.480 Q0.491 0.667 0.725 1.002" stroke="hsl(0.0,100%,35%)" stroke-width="0.00385"></path>
<path d="M1.093 0.480 Q0.819 0.538 0.874 0.685" stroke="hsl(0.0,100%,35%)" stroke-width="0.00026"></path>
<path d="M1.093 0.480 Q0.997 0.565 1.142 0.630" stroke="hsl(0.0,100%,35%)" stroke-width="0.02078"></path>
<path d="M1.093 0.480 Q0.626 0.629 0.815 0.890" stroke="hsl(0.0,100%,35%)" stroke-width="0.01616"></path>
<path d="M1.093 0.480 Q0.841 0.342 0.516 0.434" stroke="hsl(0.0,100%,35%)" stroke-width="0.00051"></path>
<path d="M1.093 0.480 Q0.571 0.506 0.507 0.767" stroke="hsl(0.0,100%,35%)" stroke-width="0.00077"></path>
<path d="M1.093 0.480 Q0.977 0.626 1.238 0.715" stroke="hsl(0.0,100%,35%)" stroke-width="0.00051"></path>
<path d="M1.093 0.480 Q1.617 0.366 1.511 0.086" stroke="hsl(0.0,100%,35%)" stroke-width="0.00026"></path>
<path d="M1.093 0.480 Q0.854 0.593 1.021 0.734" stroke="hsl(0.0,100%,35%)" stroke-width="0.00051"></path>
<path d="M1.093 0.480 Q0.419 0.574 0.455 0.923" stroke="hsl(0.0,100%,35%)" stroke-width="0.00051"></path>
<path d="M1.093 0.480 Q1.154 0.568 1.339 0.558" stroke="hsl(0.0,100%,35%)" stroke-width="0.00026"></path>
<path d="M1.047 0.828 Q0.675 0.757 0.455 0.923" stroke="hsl(0.0,100%,35%)" stroke-width="0.00026"></path>
<path d="M1.047 0.828 Q0.747 0.851 0.725 1.002" stroke="hsl(0.0,100%,35%)" stroke-width="0.00154"></path>
<path d="M1.047 0.828 Q1.253 0.748 1.142 0.630" stroke="hsl(0.0,100%,35%)" stroke-width="0.00128"></path>
<path d="M1.047 0.828 Q0.987 0.712 0.749 0.716" stroke="hsl(0.0,100%,35%)" stroke-width="0.00026"></path>
<path d="M1.047 0.828 Q0.882 0.812 0.815 0.890" stroke="hsl(0.0,100%,35%)" stroke-width="0.00026"></path>
<path d="M0.874 0.685 Q1.052 0.711 1.142 0.630" stroke="hsl(0.0,100%,35%)" stroke-width="0.00154"></path>
<path d="M0.874 0.685 Q0.546 0.814 0.725 1.002" stroke="hsl(0.0,100%,35%)" stroke-width="0.00026"></path>
<path d="M0.874 0.685 Q0.939 0.925 1.422 0.946" stroke="hsl(0.0,100%,35%)" stroke-width="0.00051"></path>
<path d="M1.238 0.715 Q1.282 0.793 1.443 0.788" stroke="hsl(0.0,100%,35%)" stroke-width="0.00051"></path>
<path d="M1.238 0.715 Q1.258 0.653 1.142 0.630" stroke="hsl(0.0,100%,35%)" stroke-width="0.01360"></path>
<path d="M1.238 0.715 Q0.752 0.756 0.725 1.002" stroke="hsl(0.0,100%,35%)" stroke-width="0.00128"></path>
<path d="M1.238 0.715 Q1.913 0.555 1.749 0.191" stroke="hsl(0.0,100%,35%)" stroke-width="0.00026"></path>
<path d="M1.238 0.715 Q0.887 0.718 0.815 0.890" stroke="hsl(0.0,100%,35%)" stroke-width="0.00026"></path>
<path d="M1.238 0.715 Q1.101 0.430 0.516 0.434" stroke="hsl(0.0,100%,35%)" stroke-width="0.00077"></path>
<path d="M1.238 0.715 Q1.093 0.534 0.710 0.566" stroke="hsl(0.0,100%,35%)" stroke-width="0.00077"></path>
<path d="M1.238 0.715 Q1.682 0.769 1.886 0.565" stroke="hsl(0.0,100%,35%)" stroke-width="0.00026"></path>
<path d="M0.784 0.742 Q1.053 0.758 1.142 0.630" stroke="hsl(0.0,100%,35%)" stroke-width="0.00051"></path>
<path d="M0.784 0.742 Q0.547 0.860 0.725 1.002" stroke="hsl(0.0,100%,35%)" stroke-width="0.00051"></path>
<path d="M0.784 0.742 Q1.033 0.819 1.238 0.715" stroke="hsl(0.0,100%,35%)" stroke-width="0.00026"></path>
<path d="M1.140 0.901 Q0.851 0.869 0.725 1.002" stroke="hsl(0.0,100%,35%)" stroke-width="0.00462"></path>
<path d="M1.140 0.901 Q1.357 0.766 1.142 0.630" stroke="hsl(0.0,100%,35%)" stroke-width="0.00436"></path>
<path d="M1.140 0.901 Q1.245 0.980 1.422 0.946" stroke="hsl(0.0,100%,35%)" stroke-width="0.00462"></path>
<path d="M1.140 0.901 Q1.193 0.647 0.710 0.566" stroke="hsl(0.0,100%,35%)" stroke-width="0.00103"></path>
<path d="M1.140 0.901 Q2.012 0.668 1.749 0.191" stroke="hsl(0.0,100%,35%)" stroke-width="0.00026"></path>
<path d="M0.710 0.566 Q0.368 0.787 0.725 1.002" stroke="hsl(0.0,100%,35%)" stroke-width="0.00282"></path>
<path d="M0.710 0.566 Q0.762 0.898 1.422 0.946" stroke="hsl(0.0,100%,35%)" stroke-width="0.00231"></path>
<path d="M0.710 0.566 Q1.529 0.586 1.749 0.191" stroke="hsl(0.0,100%,35%)" stroke-width="0.00180"></path>
<path d="M0.710 0.566 Q0.874 0.684 1.142 0.630" stroke="hsl(0.0,100%,35%)" stroke-width="0.00513"></path>
<path d="M0.710 0.566 Q0.854 0.746 1.238 0.715" stroke="hsl(0.0,100%,35%)" stroke-width="0.00154"></path>
<path d="M0.710 0.566 Q1.384 0.558 1.517 0.228" stroke="hsl(0.0,100%,35%)" stroke-width="0.00077"></path>
<path d="M0.710 0.566 Q0.503 0.749 0.815 0.890" stroke="hsl(0.0,100%,35%)" stroke-width="0.00026"></path>
<path d="M0.710 0.566 Q0.970 0.599 1.093 0.480" stroke="hsl(0.0,100%,35%)" stroke-width="0.00026"></path>
<path d="M0.873 0.533 Q1.577 0.633 1.927 0.312" stroke="hsl(0.0,100%,35%)" stroke-width="0.00128"></path>
<path d="M0.873 0.533 Q1.584 0.537 1.749 0.191" stroke="hsl(0.0,100%,35%)" stroke-width="0.00411"></path>
<path d="M0.873 0.533 Q0.424 0.738 0.725 1.002" stroke="hsl(0.0,100%,35%)" stroke-width="0.00128"></path>
<path d="M0.873 0.533 Q0.930 0.635 1.142 0.630" stroke="hsl(0.0,100%,35%)" stroke-width="0.00872"></path>
<path d="M0.873 0.533 Q1.439 0.509 1.517 0.228" stroke="hsl(0.0,100%,35%)" stroke-width="0.00026"></path>
<path d="M0.873 0.533 Q0.910 0.697 1.238 0.715" stroke="hsl(0.0,100%,35%)" stroke-width="0.00026"></path>
<path d="M0.873 0.533 Q0.817 0.849 1.422 0.946" stroke="hsl(0.0,100%,35%)" stroke-width="0.00231"></path>
<path d="M0.873 0.533 Q0.754 0.564 0.790 0.629" stroke="hsl(0.0,100%,35%)" stroke-width="0.00077"></path>
<path d="M0.873 0.533 Q0.765 0.516 0.710 0.566" stroke="hsl(0.0,100%,35%)" stroke-width="0.00051"></path>
<path d="M0.883 0.359 Q0.796 0.546 1.142 0.630" stroke="hsl(0.0,100%,35%)" stroke-width="0.03797"></path>
<path d="M0.883 0.359 Q0.892 0.461 1.093 0.480" stroke="hsl(0.0,100%,35%)" stroke-width="0.02720"></path>
<path d="M0.883 0.359 Q0.425 0.611 0.815 0.890" stroke="hsl(0.0,100%,35%)" stroke-width="0.00103"></path>
<path d="M0.883 0.359 Q0.631 0.427 0.710 0.566" stroke="hsl(0.0,100%,35%)" stroke-width="0.00026"></path>
<path d="M0.883 0.359 Q0.290 0.649 0.725 1.002" stroke="hsl(0.0,100%,35%)" stroke-width="0.00026"></path>
<path d="M0.883 0.359 Q0.683 0.760 1.422 0.946" stroke="hsl(0.0,100%,35%)" stroke-width="0.00051"></path>
<path d="M1.517 0.228 Q1.007 0.354 1.142 0.630" stroke="hsl(0.0,100%,35%)" stroke-width="0.00334"></path>
<path d="M1.517 0.228 Q1.662 0.256 1.749 0.191" stroke="hsl(0.0,100%,35%)" stroke-width="0.00975"></path>
<path d="M1.517 0.228 Q1.654 0.352 1.927 0.312" stroke="hsl(0.0,100%,35%)" stroke-width="0.00154"></path>
<path d="M1.517 0.228 Q0.501 0.457 0.725 1.002" stroke="hsl(0.0,100%,35%)" stroke-width="0.00462"></path>
<path d="M1.517 0.228 Q0.988 0.415 1.238 0.715" stroke="hsl(0.0,100%,35%)" stroke-width="0.00103"></path>
<path d="M1.517 0.228 Q0.843 0.235 0.710 0.566" stroke="hsl(0.0,100%,35%)" stroke-width="0.00077"></path>
<path d="M1.517 0.228 Q0.895 0.568 1.422 0.946" stroke="hsl(0.0,100%,35%)" stroke-width="0.00051"></path>
<path d="M1.517 0.228 Q1.627 0.156 1.511 0.086" stroke="hsl(0.0,100%,35%)" stroke-width="0.00026"></path>
<path d="M1.927 0.312 Q1.935 0.216 1.749 0.191" stroke="hsl(0.0,100%,35%)" stroke-width="0.00539"></path>
<path d="M1.927 0.312 Q0.774 0.417 0.725 1.002" stroke="hsl(0.0,100%,35%)" stroke-width="0.00103"></path>
<path d="M1.927 0.312 Q1.790 0.188 1.517 0.228" stroke="hsl(0.0,100%,35%)" stroke-width="0.00308"></path>
<path d="M1.927 0.312 Q1.168 0.528 1.422 0.946" stroke="hsl(0.0,100%,35%)" stroke-width="0.00205"></path>
<path d="M1.927 0.312 Q1.224 0.212 0.873 0.533" stroke="hsl(0.0,100%,35%)" stroke-width="0.00103"></path>
<path d="M1.927 0.312 Q1.280 0.314 1.142 0.630" stroke="hsl(0.0,100%,35%)" stroke-width="0.00026"></path>
<path d="M1.927 0.312 Q0.909 0.379 0.815 0.890" stroke="hsl(0.0,100%,35%)" stroke-width="0.00026"></path>
<path d="M1.927 0.312 Q1.105 0.243 0.790 0.629" stroke="hsl(0.0,100%,35%)" stroke-width="0.00051"></path>
<path d="M1.927 0.312 Q1.116 0.195 0.710 0.566" stroke="hsl(0.0,100%,35%)" stroke-width="0.00180"></path>
<path d="M0.361 0.820 Q0.397 0.984 0.725 1.002" stroke="hsl(0.0,100%,35%)" stroke-width="0.00051"></path>
<path d="M0.361 0.820 Q0.325 0.891 0.455 0.923" stroke="hsl(0.0,100%,35%)" stroke-width="0.00077"></path>
<path d="M0.361 0.820 Q0.477 0.823 0.507 0.767" stroke="hsl(0.0,100%,35%)" stroke-width="0.00026"></path>
<path d="M0.361 0.820 Q0.999 0.796 1.093 0.480" stroke="hsl(0.0,100%,35%)" stroke-width="0.00026"></path>
<path d="M1.644 0.541 Q1.746 0.601 1.886 0.565" stroke="hsl(0.0,100%,35%)" stroke-width="0.00051"></path>
<path d="M1.644 0.541 Q0.816 0.588 0.725 1.002" stroke="hsl(0.0,100%,35%)" stroke-width="0.00026"></path>
<path d="M1.644 0.541 Q1.322 0.485 1.142 0.630" stroke="hsl(0.0,100%,35%)" stroke-width="0.00026"></path>
<path d="M0.259 0.450 Q0.430 0.387 0.343 0.290" stroke="hsl(0.0,100%,35%)" stroke-width="0.00026"></path>
<path d="M0.259 0.450 Q0.051 0.820 0.725 1.002" stroke="hsl(0.0,100%,35%)" stroke-width="0.00051"></path>
<path d="M0.259 0.450 Q-0.021 0.726 0.455 0.923" stroke="hsl(0.0,100%,35%)" stroke-width="0.00026"></path>
<path d="M0.259 0.450 Q0.557 0.717 1.142 0.630" stroke="hsl(0.0,100%,35%)" stroke-width="0.00051"></path>
<path d="M0.259 0.450 Q0.444 0.931 1.422 0.946" stroke="hsl(0.0,100%,35%)" stroke-width="0.00051"></path>
<path d="M0.259 0.450 Q0.186 0.781 0.815 0.890" stroke="hsl(0.0,100%,35%)" stroke-width="0.00051"></path>
<path d="M0.259 0.450 Q0.140 0.548 0.304 0.627" stroke="hsl(0.0,100%,35%)" stroke-width="0.00026"></path>
<path d="M1.352 0.489 Q1.230 0.432 1.093 0.480" stroke="hsl(0.0,100%,35%)" stroke-width="0.00128"></path>
<path d="M1.352 0.489 Q0.628 0.620 0.725 1.002" stroke="hsl(0.0,100%,35%)" stroke-width="0.00257"></path>
<path d="M1.352 0.489 Q0.763 0.582 0.815 0.890" stroke="hsl(0.0,100%,35%)" stroke-width="0.00180"></path>
<path d="M1.352 0.489 Q0.707 0.459 0.507 0.767" stroke="hsl(0.0,100%,35%)" stroke-width="0.00026"></path>
<path d="M1.352 0.489 Q0.556 0.527 0.455 0.923" stroke="hsl(0.0,100%,35%)" stroke-width="0.00026"></path>
<path d="M1.352 0.489 Q1.134 0.517 1.142 0.630" stroke="hsl(0.0,100%,35%)" stroke-width="0.00128"></path>
<path d="M1.352 0.489 Q1.021 0.731 1.422 0.946" stroke="hsl(0.0,100%,35%)" stroke-width="0.00026"></path>
<path d="M1.352 0.489 Q0.978 0.294 0.516 0.434" stroke="hsl(0.0,100%,35%)" stroke-width="0.00026"></path>
<path d="M0.627 0.260 Q0.432 0.325 0.516 0.434" stroke="hsl(0.0,100%,35%)" stroke-width="0.00103"></path>
<path d="M0.627 0.260 Q0.082 0.651 0.725 1.002" stroke="hsl(0.0,100%,35%)" stroke-width="0.00026"></path>
<path d="M0.627 0.260 Q0.684 0.463 1.093 0.480" stroke="hsl(0.0,100%,35%)" stroke-width="0.00051"></path>
<path d="M0.627 0.260 Q0.588 0.548 1.142 0.630" stroke="hsl(0.0,100%,35%)" stroke-width="0.00026"></path>
<path d="M0.469 1.062 Q1.151 0.981 1.142 0.630" stroke="hsl(0.0,100%,35%)" stroke-width="0.00231"></path>
<path d="M0.469 1.062 Q0.645 1.083 0.725 1.002" stroke="hsl(0.0,100%,35%)" stroke-width="0.00308"></path>
<path d="M0.469 1.062 Q1.038 1.195 1.422 0.946" stroke="hsl(0.0,100%,35%)" stroke-width="0.00051"></path>
<path d="M0.167 0.931 Q0.389 1.078 0.725 1.002" stroke="hsl(0.0,100%,35%)" stroke-width="0.00026"></path>
<path d="M0.167 0.931 Q0.895 0.976 1.142 0.630" stroke="hsl(0.0,100%,35%)" stroke-width="0.00103"></path>
<path d="M0.167 0.931 Q0.783 1.190 1.422 0.946" stroke="hsl(0.0,100%,35%)" stroke-width="0.00051"></path>
<path d="M1.352 0.423 Q1.177 0.399 1.093 0.480" stroke="hsl(0.0,100%,35%)" stroke-width="0.02027"></path>
<path d="M1.352 0.423 Q1.081 0.484 1.142 0.630" stroke="hsl(0.0,100%,35%)" stroke-width="0.02104"></path>
<path d="M1.352 0.423 Q0.710 0.549 0.815 0.890" stroke="hsl(0.0,100%,35%)" stroke-width="0.00077"></path>
<path d="M1.352 0.423 Q0.575 0.587 0.725 1.002" stroke="hsl(0.0,100%,35%)" stroke-width="0.00128"></path>
<path d="M1.352 0.423 Q0.938 0.512 1.021 0.734" stroke="hsl(0.0,100%,35%)" stroke-width="0.00026"></path>
<path d="M1.352 0.423 Q0.969 0.698 1.422 0.946" stroke="hsl(0.0,100%,35%)" stroke-width="0.00026"></path>
<path d="M1.585 0.375 Q0.653 0.516 0.725 1.002" stroke="hsl(0.0,100%,35%)" stroke-width="0.00026"></path>
<path d="M1.585 0.375 Q1.814 0.316 1.749 0.191" stroke="hsl(0.0,100%,35%)" stroke-width="0.00077"></path>
<path d="M1.585 0.375 Q1.806 0.412 1.927 0.312" stroke="hsl(0.0,100%,35%)" stroke-width="0.00026"></path>
<path d="M1.585 0.375 Q0.995 0.295 0.710 0.566" stroke="hsl(0.0,100%,35%)" stroke-width="0.00026"></path>
<path d="M1.351 0.395 Q1.154 0.385 1.093 0.480" stroke="hsl(0.0,100%,35%)" stroke-width="0.01052"></path>
<path d="M1.351 0.395 Q1.058 0.470 1.142 0.630" stroke="hsl(0.0,100%,35%)" stroke-width="0.01206"></path>
<path d="M1.351 0.395 Q0.946 0.685 1.422 0.946" stroke="hsl(0.0,100%,35%)" stroke-width="0.00026"></path>
<path d="M1.422 0.302 Q1.020 0.410 1.142 0.630" stroke="hsl(0.0,100%,35%)" stroke-width="0.00026"></path>
<path d="M1.422 0.302 Q1.674 0.312 1.749 0.191" stroke="hsl(0.0,100%,35%)" stroke-width="0.00128"></path>
<path d="M1.422 0.302 Q1.446 0.371 1.585 0.375" stroke="hsl(0.0,100%,35%)" stroke-width="0.00128"></path>
<path d="M0.974 -0.085 Q-0.021 0.409 0.725 1.002" stroke="hsl(0.0,100%,35%)" stroke-width="0.00026"></path>
<path d="M0.974 -0.085 Q0.373 0.520 1.422 0.946" stroke="hsl(0.0,100%,35%)" stroke-width="0.00026"></path>
<path d="M0.974 -0.085 Q0.486 0.306 1.142 0.630" stroke="hsl(0.0,100%,35%)" stroke-width="0.00026"></path>
<path d="M0.974 -0.085 Q0.115 0.371 0.815 0.890" stroke="hsl(0.0,100%,35%)" stroke-width="0.00026"></path>
<path d="M1.486 0.652 Q1.331 0.572 1.142 0.630" stroke="hsl(0.0,100%,35%)" stroke-width="0.00103"></path>
<path d="M1.486 0.652 Q1.167 0.453 0.710 0.566" stroke="hsl(0.0,100%,35%)" stroke-width="0.00026"></path>
<path d="M1.486 0.652 Q1.986 0.474 1.749 0.191" stroke="hsl(0.0,100%,35%)" stroke-width="0.00026"></path>
<path d="M0.270 0.690 Q0.850 0.749 1.093 0.480" stroke="hsl(0.0,100%,35%)" stroke-width="0.00026"></path>
<path d="M0.270 0.690 Q0.176 0.844 0.455 0.923" stroke="hsl(0.0,100%,35%)" stroke-width="0.00026"></path>
<path d="M0.270 0.690 Q0.734 0.896 1.238 0.715" stroke="hsl(0.0,100%,35%)" stroke-width="0.00026"></path>
<path d="M0.270 0.690 Q0.754 0.834 1.142 0.630" stroke="hsl(0.0,100%,35%)" stroke-width="0.00026"></path>
<path d="M0.270 0.690 Q0.248 0.937 0.725 1.002" stroke="hsl(0.0,100%,35%)" stroke-width="0.00026"></path>
<path d="M0.629 0.757 Q0.481 0.899 0.725 1.002" stroke="hsl(0.0,100%,35%)" stroke-width="0.00103"></path>
<path d="M0.629 0.757 Q0.822 0.677 0.710 0.566" stroke="hsl(0.0,100%,35%)" stroke-width="0.00051"></path>
<path d="M0.629 0.757 Q0.967 0.858 1.238 0.715" stroke="hsl(0.0,100%,35%)" stroke-width="0.00026"></path>
<path d="M0.629 0.757 Q0.874 1.010 1.422 0.946" stroke="hsl(0.0,100%,35%)" stroke-width="0.00051"></path>
<path d="M1.466 0.834 Q1.467 0.667 1.142 0.630" stroke="hsl(0.0,100%,35%)" stroke-width="0.00026"></path>
<path d="M1.466 0.834 Q1.627 0.362 0.743 0.181" stroke="hsl(0.0,100%,35%)" stroke-width="0.00026"></path>
<path d="M1.466 0.834 Q1.354 0.881 1.422 0.946" stroke="hsl(0.0,100%,35%)" stroke-width="0.00026"></path>
<path d="M0.266 0.927 Q0.942 0.954 1.142 0.630" stroke="hsl(0.0,100%,35%)" stroke-width="0.00103"></path>
<path d="M0.266 0.927 Q0.436 1.056 0.725 1.002" stroke="hsl(0.0,100%,35%)" stroke-width="0.00231"></path>
<path d="M0.266 0.927 Q1.366 1.070 1.886 0.565" stroke="hsl(0.0,100%,35%)" stroke-width="0.00026"></path>
<path d="M0.266 0.927 Q0.829 1.168 1.422 0.946" stroke="hsl(0.0,100%,35%)" stroke-width="0.00026"></path>
<path d="M1.696 0.866 Q1.495 0.851 1.422 0.946" stroke="hsl(0.0,100%,35%)" stroke-width="0.00103"></path>
<path d="M1.696 0.866 Q1.932 0.817 1.889 0.690" stroke="hsl(0.0,100%,35%)" stroke-width="0.00026"></path>
<path d="M1.696 0.866 Q1.607 0.637 1.142 0.630" stroke="hsl(0.0,100%,35%)" stroke-width="0.00051"></path>
<path d="M1.696 0.866 Q1.101 0.740 0.725 1.002" stroke="hsl(0.0,100%,35%)" stroke-width="0.00026"></path>
<path d="M0.607 0.743 Q0.459 0.896 0.725 1.002" stroke="hsl(0.0,100%,35%)" stroke-width="0.00205"></path>
<path d="M0.607 0.743 Q0.965 0.794 1.142 0.630" stroke="hsl(0.0,100%,35%)" stroke-width="0.00077"></path>
<path d="M0.607 0.743 Q0.594 0.858 0.815 0.890" stroke="hsl(0.0,100%,35%)" stroke-width="0.00026"></path>
<path d="M1.370 0.675 Q1.272 0.668 1.238 0.715" stroke="hsl(0.0,100%,35%)" stroke-width="0.00077"></path>
<path d="M1.370 0.675 Q1.947 0.509 1.749 0.191" stroke="hsl(0.0,100%,35%)" stroke-width="0.00051"></path>
<path d="M1.370 0.675 Q1.179 0.821 1.422 0.946" stroke="hsl(0.0,100%,35%)" stroke-width="0.00051"></path>
<path d="M1.370 0.675 Q0.786 0.710 0.725 1.002" stroke="hsl(0.0,100%,35%)" stroke-width="0.00026"></path>
<path d="M0.538 0.617 Q0.665 0.626 0.710 0.566" stroke="hsl(0.0,100%,35%)" stroke-width="0.00026"></path>
<path d="M0.538 0.617 Q0.324 0.847 0.725 1.002" stroke="hsl(0.0,100%,35%)" stroke-width="0.00026"></path>
<path d="M0.538 0.617 Q0.717 0.958 1.422 0.946" stroke="hsl(0.0,100%,35%)" stroke-width="0.00026"></path>
<path d="M1.233 0.829 Q1.347 0.711 1.142 0.630" stroke="hsl(0.0,100%,35%)" stroke-width="0.00257"></path>
<path d="M1.233 0.829 Q0.841 0.814 0.725 1.002" stroke="hsl(0.0,100%,35%)" stroke-width="0.00231"></path>
<path d="M1.233 0.829 Q1.203 0.739 1.021 0.734" stroke="hsl(0.0,100%,35%)" stroke-width="0.00026"></path>
<path d="M1.233 0.829 Q1.234 0.925 1.422 0.946" stroke="hsl(0.0,100%,35%)" stroke-width="0.00051"></path>
<path d="M1.233 0.829 Q1.994 0.709 1.927 0.312" stroke="hsl(0.0,100%,35%)" stroke-width="0.00026"></path>
<path d="M1.233 0.829 Q2.001 0.613 1.749 0.191" stroke="hsl(0.0,100%,35%)" stroke-width="0.00026"></path>
<path d="M1.233 0.829 Q0.976 0.776 0.815 0.890" stroke="hsl(0.0,100%,35%)" stroke-width="0.00026"></path>
<path d="M1.443 0.788 Q1.419 0.649 1.142 0.630" stroke="hsl(0.0,100%,35%)" stroke-width="0.00308"></path>
<path d="M1.443 0.788 Q1.307 0.863 1.422 0.946" stroke="hsl(0.0,100%,35%)" stroke-width="0.00205"></path>
<path d="M1.443 0.788 Q0.913 0.752 0.725 1.002" stroke="hsl(0.0,100%,35%)" stroke-width="0.00103"></path>
<path d="M1.443 0.788 Q1.255 0.530 0.710 0.566" stroke="hsl(0.0,100%,35%)" stroke-width="0.00077"></path>
<path d="M1.443 0.788 Q2.074 0.551 1.749 0.191" stroke="hsl(0.0,100%,35%)" stroke-width="0.00026"></path>
<path d="M1.443 0.788 Q1.515 0.564 1.093 0.480" stroke="hsl(0.0,100%,35%)" stroke-width="0.00026"></path>
<path d="M0.484 1.300 Q1.349 1.097 1.142 0.630" stroke="hsl(0.0,100%,35%)" stroke-width="0.00051"></path>
<path d="M0.484 1.300 Q0.843 1.200 0.725 1.002" stroke="hsl(0.0,100%,35%)" stroke-width="0.00077"></path>
<path d="M0.484 1.300 Q1.205 1.125 1.021 0.734" stroke="hsl(0.0,100%,35%)" stroke-width="0.00026"></path>
<path d="M1.665 0.714 Q1.359 0.782 1.422 0.946" stroke="hsl(0.0,100%,35%)" stroke-width="0.00026"></path>
<path d="M1.665 0.714 Q1.796 0.747 1.889 0.690" stroke="hsl(0.0,100%,35%)" stroke-width="0.00026"></path>
<path d="M1.665 0.714 Q1.471 0.567 1.142 0.630" stroke="hsl(0.0,100%,35%)" stroke-width="0.00026"></path>
<path d="M0.876 1.476 Q1.180 1.209 0.725 1.002" stroke="hsl(0.0,100%,35%)" stroke-width="0.00026"></path>
<path d="M0.876 1.476 Q1.686 1.106 1.142 0.630" stroke="hsl(0.0,100%,35%)" stroke-width="0.00026"></path>
<path d="M0.876 1.476 Q1.574 1.320 1.422 0.946" stroke="hsl(0.0,100%,35%)" stroke-width="0.00026"></path>
</g>
<text x="0.810" y="1.006" font-size="0.011847" fill="hsl(0.0,100%,20%)">abdolrashidi</text>
<text x="0.725" y="0.962" font-size="0.080532" fill="hsl(0.0,100%,20%)">syoussefi</text>
<text x="1.142" y="0.580" font-size="0.100873" fill="hsl(0.0,100%,20%)">jmadill</text>
<text x="0.455" y="0.902" font-size="0.043124" fill="hsl(0.0,100%,20%)">cclao</text>
<text x="1.749" y="0.177" font-size="0.029120" fill="hsl(0.0,100%,20%)">kbr</text>
<text x="0.962" y="0.119" font-size="0.008377" fill="hsl(0.0,100%,20%)">adkushwa</text>
<text x="0.743" y="0.178" font-size="0.005923" fill="hsl(0.0,100%,20%)">rafael.cintron</text>
<text x="1.422" y="0.928" font-size="0.035293" fill="hsl(0.0,100%,20%)">geofflang</text>
<text x="0.904" y="0.793" font-size="0.006840" fill="hsl(0.0,100%,20%)">amy.liu</text>
<text x="0.815" y="0.859" font-size="0.061843" fill="hsl(0.0,100%,20%)">timvp</text>
<text x="0.753" y="0.637" font-size="0.009971" fill="hsl(0.0,100%,20%)">antonio.caggiano</text>
<text x="1.021" y="0.718" font-size="0.032082" fill="hsl(0.0,100%,20%)">m.maiya</text>
<text x="0.779" y="0.731" font-size="0.002418" fill="hsl(0.0,100%,20%)">jvigilsamsung</text>
<text x="0.816" y="0.641" font-size="0.002418" fill="hsl(0.0,100%,20%)">constantine.shablya</text>
<text x="0.516" y="0.420" font-size="0.028715" fill="hsl(0.0,100%,20%)">ianelliott</text>
<text x="0.395" y="0.846" font-size="0.018732" fill="hsl(0.0,100%,20%)">b.schade</text>
<text x="0.910" y="3.670" font-size="0.004189" fill="hsl(0.0,100%,20%)">capn</text>
<text x="0.507" y="0.757" font-size="0.018887" fill="hsl(0.0,100%,20%)">lfy</text>
<text x="1.093" y="0.450" font-size="0.058789" fill="hsl(0.0,100%,20%)">cnorthrop</text>
<text x="1.047" y="0.823" font-size="0.009048" fill="hsl(0.0,100%,20%)">cheryl.wei</text>
<text x="0.749" y="0.714" font-size="0.004189" fill="hsl(0.0,100%,20%)">sunny.sun</text>
<text x="0.874" y="0.681" font-size="0.008377" fill="hsl(0.0,100%,20%)">romanl</text>
<text x="1.238" y="0.697" font-size="0.036193" fill="hsl(0.0,100%,20%)">ynovikov</text>
<text x="1.511" y="0.085" font-size="0.003420" fill="hsl(0.0,100%,20%)">bajones</text>
<text x="1.339" y="0.557" font-size="0.002418" fill="hsl(0.0,100%,20%)">paulthomson</text>
<text x="0.784" y="0.739" font-size="0.005407" fill="hsl(0.0,100%,20%)">cwallez</text>
<text x="1.883" y="0.878" font-size="0.002418" fill="hsl(0.0,100%,20%)">zmo</text>
<text x="1.140" y="0.891" font-size="0.019794" fill="hsl(0.0,100%,20%)">penghuang</text>
<text x="1.705" y="0.820" font-size="0.002418" fill="hsl(0.0,100%,20%)">junov</text>
<text x="0.710" y="0.552" font-size="0.027993" fill="hsl(0.0,100%,20%)">jonahr</text>
<text x="0.873" y="0.522" font-size="0.021898" fill="hsl(0.0,100%,20%)">lexa.knyazev</text>
<text x="1.922" y="0.770" font-size="0.002418" fill="hsl(0.0,100%,20%)">vikassoni</text>
<text x="0.883" y="0.339" font-size="0.039589" fill="hsl(0.0,100%,20%)">gert.wollny</text>
<text x="1.517" y="0.215" font-size="0.024423" fill="hsl(0.0,100%,20%)">gman</text>
<text x="1.927" y="0.302" font-size="0.020803" fill="hsl(0.0,100%,20%)">kpiddington</text>
<text x="0.361" y="0.817" font-size="0.006398" fill="hsl(0.0,100%,20%)">hailinzhang</text>
<text x="1.644" y="0.539" font-size="0.004837" fill="hsl(0.0,100%,20%)">hans</text>
<text x="1.886" y="0.562" font-size="0.005407" fill="hsl(0.0,100%,20%)">thakis</text>
<text x="0.259" y="0.446" font-size="0.009048" fill="hsl(0.0,100%,20%)">natsu</text>
<text x="1.352" y="0.481" font-size="0.016041" fill="hsl(0.0,100%,20%)">yuxinhu</text>
<text x="0.494" y="0.323" font-size="0.002418" fill="hsl(0.0,100%,20%)">vantablack</text>
<text x="0.627" y="0.256" font-size="0.008020" fill="hsl(0.0,100%,20%)">mark</text>
<text x="0.469" y="1.056" font-size="0.011598" fill="hsl(0.0,100%,20%)">j.vigil</text>
<text x="0.167" y="0.928" font-size="0.006840" fill="hsl(0.0,100%,20%)">jgilbert</text>
<text x="1.352" y="0.407" font-size="0.031715" fill="hsl(0.0,100%,20%)">lubosz.sarnecki</text>
<text x="0.753" y="0.661" font-size="0.004189" fill="hsl(0.0,100%,20%)">bsheedy</text>
<text x="0.780" y="0.644" font-size="0.002418" fill="hsl(0.0,100%,20%)">brucedawson</text>
<text x="0.865" y="0.627" font-size="0.002418" fill="hsl(0.0,100%,20%)">tandrii</text>
<text x="0.899" y="0.902" font-size="0.002418" fill="hsl(0.0,100%,20%)">dpranke</text>
<text x="0.304" y="0.625" font-size="0.004189" fill="hsl(0.0,100%,20%)">nicolascapens</text>
<text x="0.940" y="0.624" font-size="0.002418" fill="hsl(0.0,100%,20%)">doughorn</text>
<text x="1.585" y="0.371" font-size="0.008020" fill="hsl(0.0,100%,20%)">johncunningham</text>
<text x="1.351" y="0.383" font-size="0.022814" fill="hsl(0.0,100%,20%)">jplate</text>
<text x="1.819" y="0.107" font-size="0.002418" fill="hsl(0.0,100%,20%)">ccameron</text>
<text x="1.422" y="0.298" font-size="0.008020" fill="hsl(0.0,100%,20%)">kkinnunen</text>
<text x="0.790" y="0.626" font-size="0.005407" fill="hsl(0.0,100%,20%)">le.hoang.q</text>
<text x="0.974" y="-0.088" font-size="0.004837" fill="hsl(0.0,100%,20%)">kyle.griffiths</text>
<text x="1.486" y="0.649" font-size="0.005923" fill="hsl(0.0,100%,20%)">lehoangq</text>
<text x="0.270" y="0.687" font-size="0.005407" fill="hsl(0.0,100%,20%)">lunpujun</text>
<text x="0.629" y="0.753" font-size="0.007255" fill="hsl(0.0,100%,20%)">msisov</text>
<text x="0.343" y="0.288" font-size="0.002418" fill="hsl(0.0,100%,20%)">zzyiwei</text>
<text x="1.466" y="0.832" font-size="0.004189" fill="hsl(0.0,100%,20%)">patrto</text>
<text x="0.266" y="0.922" font-size="0.009366" fill="hsl(0.0,100%,20%)">pkasting</text>
<text x="1.696" y="0.862" font-size="0.006840" fill="hsl(0.0,100%,20%)">senorblanco</text>
<text x="1.889" y="0.689" font-size="0.003420" fill="hsl(0.0,100%,20%)">jiajia.qin</text>
<text x="0.607" y="0.739" font-size="0.008377" fill="hsl(0.0,100%,20%)">sergeyu</text>
<text x="1.370" y="0.672" font-size="0.006840" fill="hsl(0.0,100%,20%)">shrekshao</text>
<text x="0.538" y="0.615" font-size="0.004189" fill="hsl(0.0,100%,20%)">srisser</text>
<text x="1.233" y="0.823" font-size="0.012091" fill="hsl(0.0,100%,20%)">steven</text>
<text x="1.443" y="0.781" font-size="0.014101" fill="hsl(0.0,100%,20%)">sugoi</text>
<text x="0.575" y="0.783" font-size="0.003420" fill="hsl(0.0,100%,20%)">cstout</text>
<text x="1.081" y="1.201" font-size="0.002418" fill="hsl(0.0,100%,20%)">borenet</text>
<text x="0.691" y="0.729" font-size="0.003420" fill="hsl(0.0,100%,20%)">reveman</text>
<text x="0.394" y="0.843" font-size="0.002418" fill="hsl(0.0,100%,20%)">jie.a.chen</text>
<text x="0.484" y="1.297" font-size="0.005923" fill="hsl(0.0,100%,20%)">xiaoxuan.liu</text>
<text x="1.665" y="0.712" font-size="0.004189" fill="hsl(0.0,100%,20%)">xinghua.cao</text>
<text x="0.876" y="1.474" font-size="0.004189" fill="hsl(0.0,100%,20%)">yang.gu</text>
</svg>
