<svg width="4000" height="2000" viewBox="-0.025 -0.025 2.05 1.05" xmlns="http://www.w3.org/2000/svg">
  <style>
    path {
      fill: none;
      stroke-linecap: round;
      stroke-opacity: 0.4;
    }

    text {
      text-anchor: middle;
      alignment-baseline: hanging;
    }
  </style>
  <g opacity="0.4">
<path d="M0.553 0.107 Q0.634 0.468 1.357 0.509" stroke="hsl(0.0,100%,35%)" stroke-width="0.00393"></path>
<path d="M0.553 0.107 Q0.841 0.323 1.326 0.230" stroke="hsl(0.0,100%,35%)" stroke-width="0.00039"></path>
<path d="M0.553 0.107 Q0.767 0.157 0.911 0.064" stroke="hsl(0.0,100%,35%)" stroke-width="0.00157"></path>
<path d="M1.357 0.509 Q1.255 0.362 0.947 0.380" stroke="hsl(0.0,100%,35%)" stroke-width="0.01258"></path>
<path d="M1.357 0.509 Q1.414 0.409 1.233 0.360" stroke="hsl(0.0,100%,35%)" stroke-width="0.01690"></path>
<path d="M1.357 0.509 Q1.185 0.578 1.283 0.677" stroke="hsl(0.0,100%,35%)" stroke-width="0.00943"></path>
<path d="M1.357 0.509 Q1.139 0.509 1.092 0.616" stroke="hsl(0.0,100%,35%)" stroke-width="0.00747"></path>
<path d="M1.357 0.509 Q1.191 0.481 1.101 0.556" stroke="hsl(0.0,100%,35%)" stroke-width="0.01965"></path>
<path d="M1.357 0.509 Q1.401 0.334 1.069 0.274" stroke="hsl(0.0,100%,35%)" stroke-width="0.01965"></path>
<path d="M1.357 0.509 Q1.368 0.626 1.599 0.647" stroke="hsl(0.0,100%,35%)" stroke-width="0.00039"></path>
<path d="M1.357 0.509 Q1.344 0.422 1.172 0.410" stroke="hsl(0.0,100%,35%)" stroke-width="0.02083"></path>
<path d="M1.357 0.509 Q1.564 0.363 1.326 0.230" stroke="hsl(0.0,100%,35%)" stroke-width="0.02044"></path>
<path d="M1.357 0.509 Q1.233 0.666 1.512 0.761" stroke="hsl(0.0,100%,35%)" stroke-width="0.00039"></path>
<path d="M1.357 0.509 Q1.551 0.462 1.503 0.358" stroke="hsl(0.0,100%,35%)" stroke-width="0.00079"></path>
<path d="M1.357 0.509 Q1.402 0.597 1.585 0.595" stroke="hsl(0.0,100%,35%)" stroke-width="0.00039"></path>
<path d="M1.357 0.509 Q0.846 0.374 0.472 0.594" stroke="hsl(0.0,100%,35%)" stroke-width="0.00157"></path>
<path d="M1.357 0.509 Q1.346 0.604 1.531 0.630" stroke="hsl(0.0,100%,35%)" stroke-width="0.00236"></path>
<path d="M1.357 0.509 Q1.101 0.433 0.896 0.541" stroke="hsl(0.0,100%,35%)" stroke-width="0.00039"></path>
<path d="M1.357 0.509 Q0.973 0.464 0.802 0.641" stroke="hsl(0.0,100%,35%)" stroke-width="0.00039"></path>
<path d="M1.357 0.509 Q1.073 0.437 0.872 0.560" stroke="hsl(0.0,100%,35%)" stroke-width="0.00079"></path>
<path d="M1.357 0.509 Q1.542 0.480 1.528 0.384" stroke="hsl(0.0,100%,35%)" stroke-width="0.00039"></path>
<path d="M1.357 0.509 Q1.798 0.130 1.156 -0.168" stroke="hsl(0.0,100%,35%)" stroke-width="0.00039"></path>
<path d="M1.326 0.230 Q1.162 0.201 1.069 0.274" stroke="hsl(0.0,100%,35%)" stroke-width="0.01258"></path>
<path d="M1.326 0.230 Q1.119 0.376 1.357 0.509" stroke="hsl(0.0,100%,35%)" stroke-width="0.01454"></path>
<path d="M1.326 0.230 Q0.409 0.468 0.672 0.968" stroke="hsl(0.0,100%,35%)" stroke-width="0.00039"></path>
<path d="M1.326 0.230 Q1.552 0.173 1.490 0.050" stroke="hsl(0.0,100%,35%)" stroke-width="0.00039"></path>
<path d="M1.326 0.230 Q0.448 0.296 0.385 0.739" stroke="hsl(0.0,100%,35%)" stroke-width="0.00079"></path>
<path d="M1.326 0.230 Q0.900 0.377 1.092 0.616" stroke="hsl(0.0,100%,35%)" stroke-width="0.00118"></path>
<path d="M1.326 0.230 Q1.105 0.289 1.172 0.410" stroke="hsl(0.0,100%,35%)" stroke-width="0.00118"></path>
<path d="M1.326 0.230 Q1.312 0.329 1.503 0.358" stroke="hsl(0.0,100%,35%)" stroke-width="0.00157"></path>
<path d="M1.326 0.230 Q1.175 0.276 1.233 0.360" stroke="hsl(0.0,100%,35%)" stroke-width="0.00197"></path>
<path d="M1.326 0.230 Q0.835 0.304 0.872 0.560" stroke="hsl(0.0,100%,35%)" stroke-width="0.00039"></path>
<path d="M1.326 0.230 Q1.108 0.471 1.531 0.630" stroke="hsl(0.0,100%,35%)" stroke-width="0.00079"></path>
<path d="M1.326 0.230 Q0.953 0.348 1.101 0.556" stroke="hsl(0.0,100%,35%)" stroke-width="0.00904"></path>
<path d="M1.326 0.230 Q0.607 0.241 0.472 0.594" stroke="hsl(0.0,100%,35%)" stroke-width="0.00079"></path>
<path d="M1.326 0.230 Q1.452 0.317 1.649 0.274" stroke="hsl(0.0,100%,35%)" stroke-width="0.00118"></path>
<path d="M1.326 0.230 Q1.129 0.493 1.599 0.647" stroke="hsl(0.0,100%,35%)" stroke-width="0.00039"></path>
<path d="M1.326 0.230 Q0.947 0.445 1.283 0.677" stroke="hsl(0.0,100%,35%)" stroke-width="0.00039"></path>
<path d="M1.326 0.230 Q1.297 0.296 1.420 0.324" stroke="hsl(0.0,100%,35%)" stroke-width="0.00039"></path>
<path d="M1.326 0.230 Q1.360 0.358 1.617 0.369" stroke="hsl(0.0,100%,35%)" stroke-width="0.00039"></path>
<path d="M1.725 0.110 Q1.056 0.208 1.101 0.556" stroke="hsl(0.0,100%,35%)" stroke-width="0.00079"></path>
<path d="M1.725 0.110 Q1.655 0.033 1.490 0.050" stroke="hsl(0.0,100%,35%)" stroke-width="0.00079"></path>
<path d="M1.725 0.110 Q1.429 0.090 1.326 0.230" stroke="hsl(0.0,100%,35%)" stroke-width="0.00039"></path>
<path d="M1.101 0.556 Q1.267 0.583 1.357 0.509" stroke="hsl(0.0,100%,35%)" stroke-width="0.05109"></path>
<path d="M1.101 0.556 Q1.474 0.438 1.326 0.230" stroke="hsl(0.0,100%,35%)" stroke-width="0.01061"></path>
<path d="M1.101 0.556 Q1.324 0.484 1.233 0.360" stroke="hsl(0.0,100%,35%)" stroke-width="0.01415"></path>
<path d="M1.101 0.556 Q1.095 0.653 1.283 0.677" stroke="hsl(0.0,100%,35%)" stroke-width="0.00747"></path>
<path d="M1.101 0.556 Q1.049 0.584 1.092 0.616" stroke="hsl(0.0,100%,35%)" stroke-width="0.00314"></path>
<path d="M1.101 0.556 Q1.256 0.679 1.531 0.630" stroke="hsl(0.0,100%,35%)" stroke-width="0.00432"></path>
<path d="M1.101 0.556 Q1.165 0.437 0.947 0.380" stroke="hsl(0.0,100%,35%)" stroke-width="0.00707"></path>
<path d="M1.101 0.556 Q1.311 0.409 1.069 0.274" stroke="hsl(0.0,100%,35%)" stroke-width="0.00904"></path>
<path d="M1.101 0.556 Q1.402 0.698 1.746 0.583" stroke="hsl(0.0,100%,35%)" stroke-width="0.00157"></path>
<path d="M1.101 0.556 Q1.254 0.497 1.172 0.410" stroke="hsl(0.0,100%,35%)" stroke-width="0.01179"></path>
<path d="M1.101 0.556 Q1.446 0.504 1.420 0.324" stroke="hsl(0.0,100%,35%)" stroke-width="0.00197"></path>
<path d="M1.101 0.556 Q1.234 0.632 1.411 0.583" stroke="hsl(0.0,100%,35%)" stroke-width="0.00039"></path>
<path d="M1.101 0.556 Q1.278 0.701 1.599 0.647" stroke="hsl(0.0,100%,35%)" stroke-width="0.00079"></path>
<path d="M1.101 0.556 Q0.983 0.512 0.872 0.560" stroke="hsl(0.0,100%,35%)" stroke-width="0.00039"></path>
<path d="M1.101 0.556 Q0.807 0.576 0.782 0.724" stroke="hsl(0.0,100%,35%)" stroke-width="0.00039"></path>
<path d="M1.101 0.556 Q1.385 0.767 1.859 0.674" stroke="hsl(0.0,100%,35%)" stroke-width="0.00039"></path>
<path d="M1.101 0.556 Q1.009 0.693 1.256 0.768" stroke="hsl(0.0,100%,35%)" stroke-width="0.00079"></path>
<path d="M1.101 0.556 Q0.877 0.576 0.866 0.689" stroke="hsl(0.0,100%,35%)" stroke-width="0.00039"></path>
<path d="M1.101 0.556 Q0.913 0.506 0.775 0.587" stroke="hsl(0.0,100%,35%)" stroke-width="0.00039"></path>
<path d="M1.411 0.583 Q1.444 0.535 1.357 0.509" stroke="hsl(0.0,100%,35%)" stroke-width="0.00354"></path>
<path d="M1.411 0.583 Q1.370 0.681 1.552 0.722" stroke="hsl(0.0,100%,35%)" stroke-width="0.00039"></path>
<path d="M1.411 0.583 Q1.272 0.604 1.283 0.677" stroke="hsl(0.0,100%,35%)" stroke-width="0.00039"></path>
<path d="M1.411 0.583 Q1.341 0.389 0.947 0.380" stroke="hsl(0.0,100%,35%)" stroke-width="0.00079"></path>
<path d="M1.411 0.583 Q1.278 0.508 1.101 0.556" stroke="hsl(0.0,100%,35%)" stroke-width="0.00197"></path>
<path d="M1.411 0.583 Q1.578 0.650 1.746 0.583" stroke="hsl(0.0,100%,35%)" stroke-width="0.00039"></path>
<path d="M1.552 0.722 Q1.625 0.576 1.357 0.509" stroke="hsl(0.0,100%,35%)" stroke-width="0.00039"></path>
<path d="M1.552 0.722 Q1.682 0.477 1.233 0.360" stroke="hsl(0.0,100%,35%)" stroke-width="0.00039"></path>
<path d="M1.552 0.722 Q1.453 0.646 1.283 0.677" stroke="hsl(0.0,100%,35%)" stroke-width="0.00039"></path>
<path d="M1.283 0.677 Q1.381 0.753 1.552 0.722" stroke="hsl(0.0,100%,35%)" stroke-width="0.00039"></path>
<path d="M1.283 0.677 Q1.455 0.607 1.357 0.509" stroke="hsl(0.0,100%,35%)" stroke-width="0.01611"></path>
<path d="M1.283 0.677 Q1.236 0.608 1.092 0.616" stroke="hsl(0.0,100%,35%)" stroke-width="0.00550"></path>
<path d="M1.283 0.677 Q1.511 0.508 1.233 0.360" stroke="hsl(0.0,100%,35%)" stroke-width="0.00197"></path>
<path d="M1.283 0.677 Q1.289 0.580 1.101 0.556" stroke="hsl(0.0,100%,35%)" stroke-width="0.00550"></path>
<path d="M1.283 0.677 Q1.498 0.433 1.069 0.274" stroke="hsl(0.0,100%,35%)" stroke-width="0.00079"></path>
<path d="M1.283 0.677 Q1.352 0.461 0.947 0.380" stroke="hsl(0.0,100%,35%)" stroke-width="0.00039"></path>
<path d="M1.283 0.677 Q1.662 0.462 1.326 0.230" stroke="hsl(0.0,100%,35%)" stroke-width="0.00079"></path>
<path d="M1.283 0.677 Q1.171 0.536 0.872 0.560" stroke="hsl(0.0,100%,35%)" stroke-width="0.00039"></path>
<path d="M1.283 0.677 Q0.943 0.473 0.472 0.594" stroke="hsl(0.0,100%,35%)" stroke-width="0.00039"></path>
<path d="M1.283 0.677 Q1.441 0.521 1.172 0.410" stroke="hsl(0.0,100%,35%)" stroke-width="0.00118"></path>
<path d="M1.283 0.677 Q0.841 0.427 0.257 0.588" stroke="hsl(0.0,100%,35%)" stroke-width="0.00039"></path>
<path d="M0.947 0.380 Q0.831 0.527 1.092 0.616" stroke="hsl(0.0,100%,35%)" stroke-width="0.00275"></path>
<path d="M0.947 0.380 Q1.050 0.526 1.357 0.509" stroke="hsl(0.0,100%,35%)" stroke-width="0.01100"></path>
<path d="M0.947 0.380 Q1.036 0.440 1.172 0.410" stroke="hsl(0.0,100%,35%)" stroke-width="0.00118"></path>
<path d="M0.947 0.380 Q0.884 0.499 1.101 0.556" stroke="hsl(0.0,100%,35%)" stroke-width="0.00197"></path>
<path d="M0.947 0.380 Q1.039 0.622 1.531 0.630" stroke="hsl(0.0,100%,35%)" stroke-width="0.00079"></path>
<path d="M0.947 0.380 Q0.878 0.596 1.283 0.677" stroke="hsl(0.0,100%,35%)" stroke-width="0.00039"></path>
<path d="M0.947 0.380 Q1.106 0.427 1.233 0.360" stroke="hsl(0.0,100%,35%)" stroke-width="0.00197"></path>
<path d="M0.947 0.380 Q1.093 0.352 1.069 0.274" stroke="hsl(0.0,100%,35%)" stroke-width="0.00039"></path>
<path d="M0.947 0.380 Q0.666 0.482 0.802 0.641" stroke="hsl(0.0,100%,35%)" stroke-width="0.00079"></path>
<path d="M0.947 0.380 Q1.257 0.381 1.326 0.230" stroke="hsl(0.0,100%,35%)" stroke-width="0.00079"></path>
<path d="M1.746 0.583 Q1.611 0.468 1.357 0.509" stroke="hsl(0.0,100%,35%)" stroke-width="0.00707"></path>
<path d="M1.746 0.583 Q1.445 0.441 1.101 0.556" stroke="hsl(0.0,100%,35%)" stroke-width="0.00354"></path>
<path d="M1.746 0.583 Q1.392 0.469 1.092 0.616" stroke="hsl(0.0,100%,35%)" stroke-width="0.00039"></path>
<path d="M1.746 0.583 Q1.509 0.322 0.947 0.380" stroke="hsl(0.0,100%,35%)" stroke-width="0.00039"></path>
<path d="M1.746 0.583 Q1.439 0.537 1.283 0.677" stroke="hsl(0.0,100%,35%)" stroke-width="0.00039"></path>
<path d="M1.746 0.583 Q1.818 0.323 1.326 0.230" stroke="hsl(0.0,100%,35%)" stroke-width="0.00236"></path>
<path d="M0.832 0.339 Q0.959 0.529 1.357 0.509" stroke="hsl(0.0,100%,35%)" stroke-width="0.00079"></path>
<path d="M0.832 0.339 Q0.945 0.442 1.172 0.410" stroke="hsl(0.0,100%,35%)" stroke-width="0.00039"></path>
<path d="M0.832 0.339 Q1.002 0.354 1.069 0.274" stroke="hsl(0.0,100%,35%)" stroke-width="0.00039"></path>
<path d="M1.172 0.410 Q1.186 0.496 1.357 0.509" stroke="hsl(0.0,100%,35%)" stroke-width="0.00983"></path>
<path d="M1.172 0.410 Q1.020 0.469 1.101 0.556" stroke="hsl(0.0,100%,35%)" stroke-width="0.00314"></path>
<path d="M1.172 0.410 Q1.393 0.351 1.326 0.230" stroke="hsl(0.0,100%,35%)" stroke-width="0.00236"></path>
<path d="M1.172 0.410 Q1.014 0.566 1.283 0.677" stroke="hsl(0.0,100%,35%)" stroke-width="0.00039"></path>
<path d="M1.069 0.274 Q1.026 0.449 1.357 0.509" stroke="hsl(0.0,100%,35%)" stroke-width="0.01651"></path>
<path d="M1.069 0.274 Q1.233 0.303 1.326 0.230" stroke="hsl(0.0,100%,35%)" stroke-width="0.01729"></path>
<path d="M1.069 0.274 Q0.860 0.421 1.101 0.556" stroke="hsl(0.0,100%,35%)" stroke-width="0.00550"></path>
<path d="M1.069 0.274 Q1.220 0.403 1.503 0.358" stroke="hsl(0.0,100%,35%)" stroke-width="0.00079"></path>
<path d="M1.069 0.274 Q0.515 0.315 0.472 0.594" stroke="hsl(0.0,100%,35%)" stroke-width="0.00039"></path>
<path d="M1.069 0.274 Q1.012 0.363 1.172 0.410" stroke="hsl(0.0,100%,35%)" stroke-width="0.00197"></path>
<path d="M1.069 0.274 Q1.267 0.431 1.617 0.369" stroke="hsl(0.0,100%,35%)" stroke-width="0.00039"></path>
<path d="M1.233 0.360 Q1.074 0.313 0.947 0.380" stroke="hsl(0.0,100%,35%)" stroke-width="0.00275"></path>
<path d="M1.233 0.360 Q1.010 0.432 1.101 0.556" stroke="hsl(0.0,100%,35%)" stroke-width="0.00590"></path>
<path d="M1.233 0.360 Q0.958 0.460 1.092 0.616" stroke="hsl(0.0,100%,35%)" stroke-width="0.00668"></path>
<path d="M1.233 0.360 Q1.005 0.529 1.283 0.677" stroke="hsl(0.0,100%,35%)" stroke-width="0.00236"></path>
<path d="M1.233 0.360 Q1.383 0.314 1.326 0.230" stroke="hsl(0.0,100%,35%)" stroke-width="0.00511"></path>
<path d="M1.233 0.360 Q1.176 0.459 1.357 0.509" stroke="hsl(0.0,100%,35%)" stroke-width="0.01336"></path>
<path d="M1.233 0.360 Q1.163 0.373 1.172 0.410" stroke="hsl(0.0,100%,35%)" stroke-width="0.00197"></path>
<path d="M1.233 0.360 Q1.166 0.555 1.531 0.630" stroke="hsl(0.0,100%,35%)" stroke-width="0.00039"></path>
<path d="M1.649 0.274 Q1.149 0.306 1.101 0.556" stroke="hsl(0.0,100%,35%)" stroke-width="0.00157"></path>
<path d="M1.649 0.274 Q1.523 0.187 1.326 0.230" stroke="hsl(0.0,100%,35%)" stroke-width="0.00786"></path>
<path d="M1.649 0.274 Q1.315 0.333 1.357 0.509" stroke="hsl(0.0,100%,35%)" stroke-width="0.00707"></path>
<path d="M1.649 0.274 Q1.359 0.158 1.069 0.274" stroke="hsl(0.0,100%,35%)" stroke-width="0.00118"></path>
<path d="M1.092 0.616 Q1.139 0.685 1.283 0.677" stroke="hsl(0.0,100%,35%)" stroke-width="0.00393"></path>
<path d="M1.092 0.616 Q1.518 0.470 1.326 0.230" stroke="hsl(0.0,100%,35%)" stroke-width="0.00472"></path>
<path d="M1.092 0.616 Q1.311 0.615 1.357 0.509" stroke="hsl(0.0,100%,35%)" stroke-width="0.00943"></path>
<path d="M1.092 0.616 Q1.145 0.588 1.101 0.556" stroke="hsl(0.0,100%,35%)" stroke-width="0.00354"></path>
<path d="M1.092 0.616 Q1.209 0.469 0.947 0.380" stroke="hsl(0.0,100%,35%)" stroke-width="0.00118"></path>
<path d="M1.092 0.616 Q1.368 0.516 1.233 0.360" stroke="hsl(0.0,100%,35%)" stroke-width="0.00079"></path>
<path d="M1.092 0.616 Q1.300 0.711 1.531 0.630" stroke="hsl(0.0,100%,35%)" stroke-width="0.00118"></path>
<path d="M1.092 0.616 Q0.641 0.536 0.385 0.739" stroke="hsl(0.0,100%,35%)" stroke-width="0.00039"></path>
<path d="M1.531 0.630 Q1.541 0.535 1.357 0.509" stroke="hsl(0.0,100%,35%)" stroke-width="0.00707"></path>
<path d="M1.531 0.630 Q1.375 0.507 1.101 0.556" stroke="hsl(0.0,100%,35%)" stroke-width="0.00393"></path>
<path d="M1.531 0.630 Q1.323 0.536 1.092 0.616" stroke="hsl(0.0,100%,35%)" stroke-width="0.00629"></path>
<path d="M1.531 0.630 Q1.439 0.389 0.947 0.380" stroke="hsl(0.0,100%,35%)" stroke-width="0.00354"></path>
<path d="M1.531 0.630 Q1.370 0.604 1.283 0.677" stroke="hsl(0.0,100%,35%)" stroke-width="0.00079"></path>
<path d="M1.531 0.630 Q1.748 0.389 1.326 0.230" stroke="hsl(0.0,100%,35%)" stroke-width="0.00197"></path>
<path d="M1.531 0.630 Q1.676 0.650 1.746 0.583" stroke="hsl(0.0,100%,35%)" stroke-width="0.00039"></path>
<path d="M1.531 0.630 Q1.528 0.448 1.172 0.410" stroke="hsl(0.0,100%,35%)" stroke-width="0.00118"></path>
<path d="M0.385 0.739 Q0.544 0.684 0.472 0.594" stroke="hsl(0.0,100%,35%)" stroke-width="0.00275"></path>
<path d="M0.385 0.739 Q1.262 0.673 1.326 0.230" stroke="hsl(0.0,100%,35%)" stroke-width="0.00432"></path>
<path d="M0.385 0.739 Q1.099 0.643 1.069 0.274" stroke="hsl(0.0,100%,35%)" stroke-width="0.00079"></path>
<path d="M0.385 0.739 Q1.055 0.818 1.357 0.509" stroke="hsl(0.0,100%,35%)" stroke-width="0.00511"></path>
<path d="M0.385 0.739 Q0.889 0.791 1.101 0.556" stroke="hsl(0.0,100%,35%)" stroke-width="0.00079"></path>
<path d="M1.503 0.358 Q1.353 0.229 1.069 0.274" stroke="hsl(0.0,100%,35%)" stroke-width="0.00039"></path>
<path d="M1.503 0.358 Q1.516 0.258 1.326 0.230" stroke="hsl(0.0,100%,35%)" stroke-width="0.00079"></path>
<path d="M1.503 0.358 Q1.309 0.404 1.357 0.509" stroke="hsl(0.0,100%,35%)" stroke-width="0.00079"></path>
<path d="M1.629 0.283 Q1.312 0.341 1.357 0.509" stroke="hsl(0.0,100%,35%)" stroke-width="0.00039"></path>
<path d="M1.629 0.283 Q1.302 0.437 1.531 0.630" stroke="hsl(0.0,100%,35%)" stroke-width="0.00039"></path>
<path d="M1.629 0.283 Q1.519 0.196 1.326 0.230" stroke="hsl(0.0,100%,35%)" stroke-width="0.00039"></path>
<path d="M1.528 0.384 Q1.177 0.385 1.101 0.556" stroke="hsl(0.0,100%,35%)" stroke-width="0.00432"></path>
<path d="M1.528 0.384 Q1.124 0.413 1.092 0.616" stroke="hsl(0.0,100%,35%)" stroke-width="0.00275"></path>
<path d="M1.528 0.384 Q1.343 0.412 1.357 0.509" stroke="hsl(0.0,100%,35%)" stroke-width="0.00668"></path>
<path d="M1.528 0.384 Q1.400 0.313 1.233 0.360" stroke="hsl(0.0,100%,35%)" stroke-width="0.00039"></path>
<path d="M1.528 0.384 Q1.550 0.266 1.326 0.230" stroke="hsl(0.0,100%,35%)" stroke-width="0.00039"></path>
<path d="M0.935 0.580 Q1.203 0.629 1.357 0.509" stroke="hsl(0.0,100%,35%)" stroke-width="0.00079"></path>
<path d="M0.935 0.580 Q1.192 0.724 1.531 0.630" stroke="hsl(0.0,100%,35%)" stroke-width="0.00039"></path>
<path d="M0.935 0.580 Q1.037 0.601 1.101 0.556" stroke="hsl(0.0,100%,35%)" stroke-width="0.00157"></path>
<path d="M1.585 0.595 Q1.540 0.506 1.357 0.509" stroke="hsl(0.0,100%,35%)" stroke-width="0.00393"></path>
<path d="M1.585 0.595 Q1.466 0.652 1.552 0.722" stroke="hsl(0.0,100%,35%)" stroke-width="0.00039"></path>
<path d="M1.585 0.595 Q1.747 0.361 1.326 0.230" stroke="hsl(0.0,100%,35%)" stroke-width="0.00039"></path>
<path d="M1.585 0.595 Q1.374 0.479 1.101 0.556" stroke="hsl(0.0,100%,35%)" stroke-width="0.00079"></path>
<path d="M0.672 0.968 Q1.382 0.875 1.357 0.509" stroke="hsl(0.0,100%,35%)" stroke-width="0.00039"></path>
<path d="M0.672 0.968 Q0.870 0.741 0.472 0.594" stroke="hsl(0.0,100%,35%)" stroke-width="0.00039"></path>
<path d="M0.872 0.560 Q1.155 0.631 1.357 0.509" stroke="hsl(0.0,100%,35%)" stroke-width="0.00236"></path>
<path d="M0.872 0.560 Q1.363 0.486 1.326 0.230" stroke="hsl(0.0,100%,35%)" stroke-width="0.00157"></path>
<path d="M0.872 0.560 Q0.984 0.701 1.283 0.677" stroke="hsl(0.0,100%,35%)" stroke-width="0.00039"></path>
<path d="M0.472 0.594 Q1.190 0.583 1.326 0.230" stroke="hsl(0.0,100%,35%)" stroke-width="0.00157"></path>
<path d="M0.472 0.594 Q0.817 0.701 1.101 0.556" stroke="hsl(0.0,100%,35%)" stroke-width="0.00118"></path>
<path d="M0.472 0.594 Q1.027 0.554 1.069 0.274" stroke="hsl(0.0,100%,35%)" stroke-width="0.00079"></path>
<path d="M0.472 0.594 Q0.983 0.729 1.357 0.509" stroke="hsl(0.0,100%,35%)" stroke-width="0.00157"></path>
<path d="M0.472 0.594 Q0.313 0.649 0.385 0.739" stroke="hsl(0.0,100%,35%)" stroke-width="0.00079"></path>
<path d="M0.472 0.594 Q0.369 0.548 0.257 0.588" stroke="hsl(0.0,100%,35%)" stroke-width="0.00039"></path>
<path d="M1.599 0.647 Q1.588 0.529 1.357 0.509" stroke="hsl(0.0,100%,35%)" stroke-width="0.01454"></path>
<path d="M1.599 0.647 Q1.422 0.502 1.101 0.556" stroke="hsl(0.0,100%,35%)" stroke-width="0.00275"></path>
<path d="M1.599 0.647 Q1.796 0.384 1.326 0.230" stroke="hsl(0.0,100%,35%)" stroke-width="0.00393"></path>
<path d="M1.599 0.647 Q1.486 0.383 0.947 0.380" stroke="hsl(0.0,100%,35%)" stroke-width="0.00039"></path>
<path d="M1.599 0.647 Q1.578 0.625 1.531 0.630" stroke="hsl(0.0,100%,35%)" stroke-width="0.00039"></path>
<path d="M1.599 0.647 Q1.370 0.530 1.092 0.616" stroke="hsl(0.0,100%,35%)" stroke-width="0.00039"></path>
<path d="M1.420 0.324 Q1.241 0.404 1.357 0.509" stroke="hsl(0.0,100%,35%)" stroke-width="0.00432"></path>
<path d="M1.420 0.324 Q1.448 0.258 1.326 0.230" stroke="hsl(0.0,100%,35%)" stroke-width="0.00275"></path>
<path d="M1.420 0.324 Q1.434 0.357 1.503 0.358" stroke="hsl(0.0,100%,35%)" stroke-width="0.00039"></path>
<path d="M1.617 0.369 Q0.705 0.308 0.385 0.739" stroke="hsl(0.0,100%,35%)" stroke-width="0.00039"></path>
<path d="M1.617 0.369 Q1.583 0.241 1.326 0.230" stroke="hsl(0.0,100%,35%)" stroke-width="0.00393"></path>
<path d="M1.617 0.369 Q0.864 0.253 0.472 0.594" stroke="hsl(0.0,100%,35%)" stroke-width="0.00118"></path>
<path d="M1.617 0.369 Q1.376 0.387 1.357 0.509" stroke="hsl(0.0,100%,35%)" stroke-width="0.00354"></path>
<path d="M1.617 0.369 Q1.419 0.212 1.069 0.274" stroke="hsl(0.0,100%,35%)" stroke-width="0.00039"></path>
<path d="M0.866 0.689 Q1.391 0.812 1.746 0.583" stroke="hsl(0.0,100%,35%)" stroke-width="0.00079"></path>
<path d="M0.866 0.689 Q1.090 0.670 1.101 0.556" stroke="hsl(0.0,100%,35%)" stroke-width="0.00079"></path>
<path d="M0.866 0.689 Q1.256 0.697 1.357 0.509" stroke="hsl(0.0,100%,35%)" stroke-width="0.00157"></path>
<path d="M0.866 0.689 Q1.154 0.551 0.947 0.380" stroke="hsl(0.0,100%,35%)" stroke-width="0.00039"></path>
<path d="M0.866 0.689 Q1.463 0.551 1.326 0.230" stroke="hsl(0.0,100%,35%)" stroke-width="0.00079"></path>
<path d="M1.592 0.601 Q1.548 0.508 1.357 0.509" stroke="hsl(0.0,100%,35%)" stroke-width="0.00197"></path>
<path d="M1.592 0.601 Q1.330 0.509 1.092 0.616" stroke="hsl(0.0,100%,35%)" stroke-width="0.00039"></path>
<path d="M1.592 0.601 Q1.683 0.623 1.746 0.583" stroke="hsl(0.0,100%,35%)" stroke-width="0.00079"></path>
<path d="M1.592 0.601 Q1.756 0.362 1.326 0.230" stroke="hsl(0.0,100%,35%)" stroke-width="0.00079"></path>
<path d="M1.671 0.586 Q1.619 0.310 1.069 0.274" stroke="hsl(0.0,100%,35%)" stroke-width="0.00039"></path>
<path d="M1.671 0.586 Q1.783 0.339 1.326 0.230" stroke="hsl(0.0,100%,35%)" stroke-width="0.00197"></path>
<path d="M1.671 0.586 Q1.576 0.484 1.357 0.509" stroke="hsl(0.0,100%,35%)" stroke-width="0.00275"></path>
<path d="M1.671 0.586 Q1.410 0.457 1.101 0.556" stroke="hsl(0.0,100%,35%)" stroke-width="0.00039"></path>
<path d="M1.671 0.586 Q1.064 0.350 0.472 0.594" stroke="hsl(0.0,100%,35%)" stroke-width="0.00079"></path>
<path d="M1.671 0.586 Q1.562 0.398 1.172 0.410" stroke="hsl(0.0,100%,35%)" stroke-width="0.00039"></path>
<path d="M1.443 0.586 Q1.462 0.530 1.357 0.509" stroke="hsl(0.0,100%,35%)" stroke-width="0.00197"></path>
<path d="M1.443 0.586 Q1.669 0.385 1.326 0.230" stroke="hsl(0.0,100%,35%)" stroke-width="0.00079"></path>
<path d="M0.493 0.867 Q1.046 0.833 1.101 0.556" stroke="hsl(0.0,100%,35%)" stroke-width="0.00039"></path>
<path d="M0.493 0.867 Q0.700 0.726 0.472 0.594" stroke="hsl(0.0,100%,35%)" stroke-width="0.00039"></path>
<path d="M0.493 0.867 Q0.502 0.953 0.672 0.968" stroke="hsl(0.0,100%,35%)" stroke-width="0.00039"></path>
<path d="M1.139 0.300 Q1.081 0.448 1.357 0.509" stroke="hsl(0.0,100%,35%)" stroke-width="0.00629"></path>
<path d="M1.139 0.300 Q1.288 0.302 1.326 0.230" stroke="hsl(0.0,100%,35%)" stroke-width="0.00197"></path>
<path d="M1.139 0.300 Q1.125 0.273 1.069 0.274" stroke="hsl(0.0,100%,35%)" stroke-width="0.00314"></path>
<path d="M0.742 0.676 Q1.183 0.715 1.357 0.509" stroke="hsl(0.0,100%,35%)" stroke-width="0.00118"></path>
<path d="M0.742 0.676 Q1.227 0.541 1.069 0.274" stroke="hsl(0.0,100%,35%)" stroke-width="0.00079"></path>
<path d="M0.742 0.676 Q0.672 0.581 0.472 0.594" stroke="hsl(0.0,100%,35%)" stroke-width="0.00039"></path>
<path d="M1.691 0.573 Q1.403 0.543 1.283 0.677" stroke="hsl(0.0,100%,35%)" stroke-width="0.00354"></path>
<path d="M1.691 0.573 Q1.575 0.474 1.357 0.509" stroke="hsl(0.0,100%,35%)" stroke-width="0.00943"></path>
<path d="M1.691 0.573 Q1.782 0.328 1.326 0.230" stroke="hsl(0.0,100%,35%)" stroke-width="0.00039"></path>
<path d="M1.691 0.573 Q1.409 0.446 1.101 0.556" stroke="hsl(0.0,100%,35%)" stroke-width="0.00039"></path>
<path d="M1.691 0.573 Q1.632 0.375 1.233 0.360" stroke="hsl(0.0,100%,35%)" stroke-width="0.00079"></path>
<path d="M1.691 0.573 Q1.564 0.570 1.531 0.630" stroke="hsl(0.0,100%,35%)" stroke-width="0.00039"></path>
<path d="M1.618 0.338 Q1.558 0.226 1.326 0.230" stroke="hsl(0.0,100%,35%)" stroke-width="0.00236"></path>
<path d="M1.618 0.338 Q1.784 0.169 1.490 0.050" stroke="hsl(0.0,100%,35%)" stroke-width="0.00118"></path>
<path d="M1.618 0.338 Q1.351 0.371 1.357 0.509" stroke="hsl(0.0,100%,35%)" stroke-width="0.00157"></path>
<path d="M0.785 0.683 Q1.045 0.683 1.101 0.556" stroke="hsl(0.0,100%,35%)" stroke-width="0.00079"></path>
<path d="M0.785 0.683 Q1.418 0.565 1.326 0.230" stroke="hsl(0.0,100%,35%)" stroke-width="0.00039"></path>
<path d="M0.785 0.683 Q1.211 0.710 1.357 0.509" stroke="hsl(0.0,100%,35%)" stroke-width="0.00039"></path>
<path d="M1.859 0.674 Q1.740 0.491 1.357 0.509" stroke="hsl(0.0,100%,35%)" stroke-width="0.00118"></path>
<path d="M1.859 0.674 Q1.730 0.587 1.531 0.630" stroke="hsl(0.0,100%,35%)" stroke-width="0.00157"></path>
<path d="M1.859 0.674 Q1.638 0.345 0.947 0.380" stroke="hsl(0.0,100%,35%)" stroke-width="0.00039"></path>
<path d="M0.813 0.586 Q1.147 0.656 1.357 0.509" stroke="hsl(0.0,100%,35%)" stroke-width="0.00079"></path>
<path d="M0.813 0.586 Q0.981 0.629 1.101 0.556" stroke="hsl(0.0,100%,35%)" stroke-width="0.00118"></path>
<path d="M0.813 0.586 Q0.636 0.522 0.472 0.594" stroke="hsl(0.0,100%,35%)" stroke-width="0.00039"></path>
<path d="M0.813 0.586 Q1.326 0.576 1.420 0.324" stroke="hsl(0.0,100%,35%)" stroke-width="0.00079"></path>
<path d="M0.813 0.586 Q1.354 0.510 1.326 0.230" stroke="hsl(0.0,100%,35%)" stroke-width="0.00039"></path>
</g>
<text x="0.553" y="0.100" font-size="0.012849" fill="hsl(0.0,100%,20%)">aleino</text>
<text x="1.357" y="0.457" font-size="0.103223" fill="hsl(0.0,100%,20%)">jmadill</text>
<text x="1.326" y="0.197" font-size="0.065519" fill="hsl(0.0,100%,20%)">geofflang</text>
<text x="0.911" y="0.060" font-size="0.006635" fill="hsl(0.0,100%,20%)">kkinnunen</text>
<text x="1.725" y="0.106" font-size="0.007419" fill="hsl(0.0,100%,20%)">artyom</text>
<text x="1.101" y="0.518" font-size="0.076235" fill="hsl(0.0,100%,20%)">syoussefi</text>
<text x="1.490" y="0.046" font-size="0.008127" fill="hsl(0.0,100%,20%)">rafael.cintron</text>
<text x="1.411" y="0.576" font-size="0.014837" fill="hsl(0.0,100%,20%)">b.schade</text>
<text x="1.552" y="0.718" font-size="0.008127" fill="hsl(0.0,100%,20%)">cclao</text>
<text x="1.283" y="0.656" font-size="0.042358" fill="hsl(0.0,100%,20%)">tobine</text>
<text x="0.947" y="0.361" font-size="0.038118" fill="hsl(0.0,100%,20%)">cnorthrop</text>
<text x="1.746" y="0.572" font-size="0.022502" fill="hsl(0.0,100%,20%)">m.maiya</text>
<text x="0.832" y="0.335" font-size="0.006635" fill="hsl(0.0,100%,20%)">bsheedy</text>
<text x="1.172" y="0.390" font-size="0.040225" fill="hsl(0.0,100%,20%)">ynovikov</text>
<text x="1.069" y="0.249" font-size="0.051183" fill="hsl(0.0,100%,20%)">jonahr</text>
<text x="1.233" y="0.337" font-size="0.046684" fill="hsl(0.0,100%,20%)">timvp</text>
<text x="1.649" y="0.263" font-size="0.022986" fill="hsl(0.0,100%,20%)">clemendeng</text>
<text x="1.092" y="0.595" font-size="0.041703" fill="hsl(0.0,100%,20%)">courtneygo</text>
<text x="1.531" y="0.614" font-size="0.032676" fill="hsl(0.0,100%,20%)">ianelliott</text>
<text x="0.802" y="0.638" font-size="0.005746" fill="hsl(0.0,100%,20%)">lfy</text>
<text x="0.385" y="0.728" font-size="0.021244" fill="hsl(0.0,100%,20%)">jdarpinian</text>
<text x="1.503" y="0.351" font-size="0.012414" fill="hsl(0.0,100%,20%)">cwallez</text>
<text x="1.629" y="0.280" font-size="0.005746" fill="hsl(0.0,100%,20%)">davidben</text>
<text x="1.528" y="0.374" font-size="0.020452" fill="hsl(0.0,100%,20%)">dongja</text>
<text x="0.935" y="0.575" font-size="0.008778" fill="hsl(0.0,100%,20%)">ericbinet</text>
<text x="1.585" y="0.588" font-size="0.012849" fill="hsl(0.0,100%,20%)">flibitijibibo</text>
<text x="0.672" y="0.964" font-size="0.006635" fill="hsl(0.0,100%,20%)">zmo</text>
<text x="0.872" y="0.553" font-size="0.013271" fill="hsl(0.0,100%,20%)">sugoi</text>
<text x="0.472" y="0.584" font-size="0.020983" fill="hsl(0.0,100%,20%)">kbr</text>
<text x="1.599" y="0.634" font-size="0.025912" fill="hsl(0.0,100%,20%)">spang</text>
<text x="1.420" y="0.315" font-size="0.017239" fill="hsl(0.0,100%,20%)">jiajia.qin</text>
<text x="1.617" y="0.361" font-size="0.016917" fill="hsl(0.0,100%,20%)">shrekshao</text>
<text x="0.866" y="0.683" font-size="0.011493" fill="hsl(0.0,100%,20%)">hckim.kim</text>
<text x="1.592" y="0.596" font-size="0.010491" fill="hsl(0.0,100%,20%)">j.vigil</text>
<text x="1.671" y="0.579" font-size="0.013679" fill="hsl(0.0,100%,20%)">jgilbert</text>
<text x="1.443" y="0.582" font-size="0.008778" fill="hsl(0.0,100%,20%)">jie.a.chen</text>
<text x="1.512" y="0.759" font-size="0.003318" fill="hsl(0.0,100%,20%)">amaiorano</text>
<text x="0.896" y="0.539" font-size="0.003318" fill="hsl(0.0,100%,20%)">le.hoang.q</text>
<text x="1.156" y="-0.170" font-size="0.003318" fill="hsl(0.0,100%,20%)">brucedawson</text>
<text x="0.257" y="0.586" font-size="0.004692" fill="hsl(0.0,100%,20%)">kainino</text>
<text x="0.493" y="0.864" font-size="0.005746" fill="hsl(0.0,100%,20%)">khushalsagar</text>
<text x="1.139" y="0.291" font-size="0.017866" fill="hsl(0.0,100%,20%)">lehoangq</text>
<text x="0.742" y="0.672" font-size="0.008127" fill="hsl(0.0,100%,20%)">lexa.knyazev</text>
<text x="1.691" y="0.562" font-size="0.020452" fill="hsl(0.0,100%,20%)">lujc</text>
<text x="1.618" y="0.332" font-size="0.011962" fill="hsl(0.0,100%,20%)">mihu</text>
<text x="0.785" y="0.680" font-size="0.006635" fill="hsl(0.0,100%,20%)">shaobo.yan</text>
<text x="0.782" y="0.722" font-size="0.003318" fill="hsl(0.0,100%,20%)">jaedon1.lee</text>
<text x="1.859" y="0.669" font-size="0.009953" fill="hsl(0.0,100%,20%)">xinyi.he</text>
<text x="1.256" y="0.766" font-size="0.004692" fill="hsl(0.0,100%,20%)">sunny.sun</text>
<text x="0.775" y="0.585" font-size="0.003318" fill="hsl(0.0,100%,20%)">fei.yang</text>
<text x="0.813" y="0.581" font-size="0.009953" fill="hsl(0.0,100%,20%)">xinghua.cao</text>
</svg>
