<svg width="4000" height="2000" viewBox="-0.025 -0.025 2.05 1.05" xmlns="http://www.w3.org/2000/svg">
  <style>
    path {
      fill: none;
      stroke-linecap: round;
      stroke-opacity: 0.4;
    }

    text {
      text-anchor: middle;
      alignment-baseline: hanging;
    }
  </style>
  <g opacity="0.4">
<path d="M1.520 0.629 Q1.359 0.555 1.180 0.617" stroke="hsl(0.0,100%,35%)" stroke-width="0.01443"></path>
<path d="M1.520 0.629 Q1.298 0.463 0.927 0.535" stroke="hsl(0.0,100%,35%)" stroke-width="0.01358"></path>
<path d="M1.520 0.629 Q1.696 0.517 1.517 0.406" stroke="hsl(0.0,100%,35%)" stroke-width="0.00085"></path>
<path d="M1.520 0.629 Q1.198 0.764 1.393 0.951" stroke="hsl(0.0,100%,35%)" stroke-width="0.00085"></path>
<path d="M1.180 0.617 Q0.789 0.684 0.833 0.889" stroke="hsl(0.0,100%,35%)" stroke-width="0.00509"></path>
<path d="M1.180 0.617 Q1.119 0.526 0.927 0.535" stroke="hsl(0.0,100%,35%)" stroke-width="0.05601"></path>
<path d="M1.180 0.617 Q1.140 0.731 1.354 0.776" stroke="hsl(0.0,100%,35%)" stroke-width="0.02801"></path>
<path d="M1.180 0.617 Q1.509 0.514 1.379 0.330" stroke="hsl(0.0,100%,35%)" stroke-width="0.03649"></path>
<path d="M1.180 0.617 Q1.286 0.821 1.707 0.814" stroke="hsl(0.0,100%,35%)" stroke-width="0.00170"></path>
<path d="M1.180 0.617 Q1.020 0.827 1.393 0.951" stroke="hsl(0.0,100%,35%)" stroke-width="0.01018"></path>
<path d="M1.180 0.617 Q1.341 0.691 1.520 0.629" stroke="hsl(0.0,100%,35%)" stroke-width="0.00085"></path>
<path d="M1.180 0.617 Q0.852 0.790 1.117 0.989" stroke="hsl(0.0,100%,35%)" stroke-width="0.00339"></path>
<path d="M1.180 0.617 Q1.329 0.514 1.160 0.419" stroke="hsl(0.0,100%,35%)" stroke-width="0.00339"></path>
<path d="M1.180 0.617 Q1.340 0.535 1.214 0.439" stroke="hsl(0.0,100%,35%)" stroke-width="0.00085"></path>
<path d="M1.180 0.617 Q0.775 0.509 0.475 0.683" stroke="hsl(0.0,100%,35%)" stroke-width="0.00170"></path>
<path d="M1.180 0.617 Q1.443 0.818 1.893 0.734" stroke="hsl(0.0,100%,35%)" stroke-width="0.00085"></path>
<path d="M0.927 0.535 Q0.988 0.627 1.180 0.617" stroke="hsl(0.0,100%,35%)" stroke-width="0.05262"></path>
<path d="M0.927 0.535 Q0.827 0.836 1.393 0.951" stroke="hsl(0.0,100%,35%)" stroke-width="0.01528"></path>
<path d="M0.927 0.535 Q1.350 0.613 1.595 0.424" stroke="hsl(0.0,100%,35%)" stroke-width="0.00339"></path>
<path d="M0.927 0.535 Q0.948 0.741 1.354 0.776" stroke="hsl(0.0,100%,35%)" stroke-width="0.00934"></path>
<path d="M0.927 0.535 Q1.149 0.700 1.520 0.629" stroke="hsl(0.0,100%,35%)" stroke-width="0.00339"></path>
<path d="M0.927 0.535 Q1.317 0.523 1.379 0.330" stroke="hsl(0.0,100%,35%)" stroke-width="0.00085"></path>
<path d="M0.927 0.535 Q0.884 0.644 1.087 0.689" stroke="hsl(0.0,100%,35%)" stroke-width="0.01782"></path>
<path d="M0.927 0.535 Q1.136 0.524 1.160 0.419" stroke="hsl(0.0,100%,35%)" stroke-width="0.00085"></path>
<path d="M1.393 0.951 Q1.162 0.808 0.833 0.889" stroke="hsl(0.0,100%,35%)" stroke-width="0.00509"></path>
<path d="M1.393 0.951 Q1.224 0.914 1.117 0.989" stroke="hsl(0.0,100%,35%)" stroke-width="0.02376"></path>
<path d="M1.393 0.951 Q1.513 0.856 1.354 0.776" stroke="hsl(0.0,100%,35%)" stroke-width="0.00424"></path>
<path d="M1.393 0.951 Q1.553 0.742 1.180 0.617" stroke="hsl(0.0,100%,35%)" stroke-width="0.02037"></path>
<path d="M1.393 0.951 Q1.714 0.815 1.520 0.629" stroke="hsl(0.0,100%,35%)" stroke-width="0.00764"></path>
<path d="M1.393 0.951 Q1.492 0.650 0.927 0.535" stroke="hsl(0.0,100%,35%)" stroke-width="0.00424"></path>
<path d="M1.393 0.951 Q1.354 0.830 1.111 0.823" stroke="hsl(0.0,100%,35%)" stroke-width="0.00085"></path>
<path d="M1.393 0.951 Q1.882 0.638 1.379 0.330" stroke="hsl(0.0,100%,35%)" stroke-width="0.00170"></path>
<path d="M1.595 0.424 Q1.232 0.438 1.180 0.617" stroke="hsl(0.0,100%,35%)" stroke-width="0.00424"></path>
<path d="M1.595 0.424 Q1.172 0.346 0.927 0.535" stroke="hsl(0.0,100%,35%)" stroke-width="0.00679"></path>
<path d="M1.595 0.424 Q1.393 0.511 1.520 0.629" stroke="hsl(0.0,100%,35%)" stroke-width="0.00255"></path>
<path d="M1.354 0.776 Q1.394 0.662 1.180 0.617" stroke="hsl(0.0,100%,35%)" stroke-width="0.01018"></path>
<path d="M1.354 0.776 Q1.333 0.570 0.927 0.535" stroke="hsl(0.0,100%,35%)" stroke-width="0.00255"></path>
<path d="M1.354 0.776 Q1.233 0.871 1.393 0.951" stroke="hsl(0.0,100%,35%)" stroke-width="0.00509"></path>
<path d="M1.354 0.776 Q1.706 0.802 1.835 0.637" stroke="hsl(0.0,100%,35%)" stroke-width="0.00085"></path>
<path d="M1.354 0.776 Q1.002 0.728 0.833 0.889" stroke="hsl(0.0,100%,35%)" stroke-width="0.00170"></path>
<path d="M1.354 0.776 Q1.555 0.735 1.520 0.629" stroke="hsl(0.0,100%,35%)" stroke-width="0.00170"></path>
<path d="M1.379 0.330 Q1.154 0.214 0.878 0.298" stroke="hsl(0.0,100%,35%)" stroke-width="0.00255"></path>
<path d="M1.379 0.330 Q0.658 0.501 0.833 0.889" stroke="hsl(0.0,100%,35%)" stroke-width="0.00509"></path>
<path d="M1.379 0.330 Q1.050 0.434 1.180 0.617" stroke="hsl(0.0,100%,35%)" stroke-width="0.01612"></path>
<path d="M1.379 0.330 Q0.485 0.292 0.215 0.720" stroke="hsl(0.0,100%,35%)" stroke-width="0.00255"></path>
<path d="M1.379 0.330 Q1.395 0.431 1.596 0.445" stroke="hsl(0.0,100%,35%)" stroke-width="0.00085"></path>
<path d="M1.379 0.330 Q1.239 0.227 1.006 0.272" stroke="hsl(0.0,100%,35%)" stroke-width="0.00170"></path>
<path d="M1.379 0.330 Q0.721 0.607 1.117 0.989" stroke="hsl(0.0,100%,35%)" stroke-width="0.00085"></path>
<path d="M1.379 0.330 Q0.889 0.643 1.393 0.951" stroke="hsl(0.0,100%,35%)" stroke-width="0.00085"></path>
<path d="M1.379 0.330 Q1.010 0.548 1.354 0.776" stroke="hsl(0.0,100%,35%)" stroke-width="0.00085"></path>
<path d="M1.379 0.330 Q0.645 0.326 0.475 0.683" stroke="hsl(0.0,100%,35%)" stroke-width="0.00085"></path>
<path d="M1.379 0.330 Q1.405 0.207 1.169 0.167" stroke="hsl(0.0,100%,35%)" stroke-width="0.00085"></path>
<path d="M1.379 0.330 Q0.989 0.342 0.927 0.535" stroke="hsl(0.0,100%,35%)" stroke-width="0.00085"></path>
<path d="M1.087 0.689 Q1.191 0.672 1.180 0.617" stroke="hsl(0.0,100%,35%)" stroke-width="0.00170"></path>
<path d="M1.087 0.689 Q1.130 0.580 0.927 0.535" stroke="hsl(0.0,100%,35%)" stroke-width="0.00255"></path>
<path d="M1.087 0.689 Q0.862 0.844 1.117 0.989" stroke="hsl(0.0,100%,35%)" stroke-width="0.00085"></path>
<path d="M1.117 0.989 Q1.285 1.025 1.393 0.951" stroke="hsl(0.0,100%,35%)" stroke-width="0.01188"></path>
<path d="M1.117 0.989 Q1.406 0.930 1.354 0.776" stroke="hsl(0.0,100%,35%)" stroke-width="0.00085"></path>
<path d="M1.117 0.989 Q1.445 0.816 1.180 0.617" stroke="hsl(0.0,100%,35%)" stroke-width="0.00339"></path>
<path d="M1.117 0.989 Q1.385 0.724 0.927 0.535" stroke="hsl(0.0,100%,35%)" stroke-width="0.00085"></path>
<path d="M1.117 0.989 Q1.757 0.956 1.835 0.637" stroke="hsl(0.0,100%,35%)" stroke-width="0.00085"></path>
<path d="M1.117 0.989 Q1.051 0.966 0.993 0.993" stroke="hsl(0.0,100%,35%)" stroke-width="0.00255"></path>
<path d="M1.117 0.989 Q0.956 0.944 0.834 1.013" stroke="hsl(0.0,100%,35%)" stroke-width="0.00085"></path>
<path d="M1.117 0.989 Q0.967 0.958 0.875 1.024" stroke="hsl(0.0,100%,35%)" stroke-width="0.00170"></path>
<path d="M1.835 0.637 Q1.523 0.496 1.180 0.617" stroke="hsl(0.0,100%,35%)" stroke-width="0.00424"></path>
<path d="M1.835 0.637 Q1.483 0.610 1.354 0.776" stroke="hsl(0.0,100%,35%)" stroke-width="0.00085"></path>
<path d="M1.835 0.637 Q1.462 0.404 0.927 0.535" stroke="hsl(0.0,100%,35%)" stroke-width="0.00170"></path>
<path d="M1.835 0.637 Q1.194 0.669 1.117 0.989" stroke="hsl(0.0,100%,35%)" stroke-width="0.00170"></path>
<path d="M0.993 0.993 Q1.059 1.016 1.117 0.989" stroke="hsl(0.0,100%,35%)" stroke-width="0.00424"></path>
<path d="M0.993 0.993 Q0.996 0.909 0.833 0.889" stroke="hsl(0.0,100%,35%)" stroke-width="0.00085"></path>
<path d="M0.993 0.993 Q1.227 1.052 1.393 0.951" stroke="hsl(0.0,100%,35%)" stroke-width="0.00085"></path>
<path d="M0.834 1.013 Q0.995 1.057 1.117 0.989" stroke="hsl(0.0,100%,35%)" stroke-width="0.01018"></path>
<path d="M0.834 1.013 Q1.163 1.094 1.393 0.951" stroke="hsl(0.0,100%,35%)" stroke-width="0.00255"></path>
<path d="M0.834 1.013 Q1.323 0.884 1.180 0.617" stroke="hsl(0.0,100%,35%)" stroke-width="0.00170"></path>
<path d="M0.875 1.024 Q1.025 1.055 1.117 0.989" stroke="hsl(0.0,100%,35%)" stroke-width="0.00255"></path>
<path d="M0.875 1.024 Q1.314 0.996 1.354 0.776" stroke="hsl(0.0,100%,35%)" stroke-width="0.00170"></path>
<path d="M0.580 0.820 Q1.042 0.839 1.180 0.617" stroke="hsl(0.0,100%,35%)" stroke-width="0.00085"></path>
<path d="M0.580 0.820 Q0.477 0.697 0.215 0.720" stroke="hsl(0.0,100%,35%)" stroke-width="0.00085"></path>
<path d="M0.580 0.820 Q0.651 0.905 0.833 0.889" stroke="hsl(0.0,100%,35%)" stroke-width="0.00085"></path>
<path d="M0.580 0.820 Q1.304 1.040 1.893 0.734" stroke="hsl(0.0,100%,35%)" stroke-width="0.00085"></path>
<path d="M0.215 0.720 Q1.108 0.758 1.379 0.330" stroke="hsl(0.0,100%,35%)" stroke-width="0.00339"></path>
<path d="M0.215 0.720 Q1.243 0.630 1.293 0.108" stroke="hsl(0.0,100%,35%)" stroke-width="0.00085"></path>
<path d="M0.215 0.720 Q0.779 0.862 1.180 0.617" stroke="hsl(0.0,100%,35%)" stroke-width="0.00085"></path>
<path d="M0.833 0.889 Q1.553 0.719 1.379 0.330" stroke="hsl(0.0,100%,35%)" stroke-width="0.00170"></path>
<path d="M0.833 0.889 Q0.609 0.861 0.504 0.964" stroke="hsl(0.0,100%,35%)" stroke-width="0.00255"></path>
<path d="M0.833 0.889 Q1.064 1.032 1.393 0.951" stroke="hsl(0.0,100%,35%)" stroke-width="0.00509"></path>
<path d="M0.833 0.889 Q1.224 0.823 1.180 0.617" stroke="hsl(0.0,100%,35%)" stroke-width="0.00255"></path>
<path d="M0.833 0.889 Q1.569 0.820 1.596 0.445" stroke="hsl(0.0,100%,35%)" stroke-width="0.00085"></path>
<path d="M0.833 0.889 Q1.184 0.937 1.354 0.776" stroke="hsl(0.0,100%,35%)" stroke-width="0.00085"></path>
<path d="M0.833 0.889 Q0.896 0.996 1.117 0.989" stroke="hsl(0.0,100%,35%)" stroke-width="0.00085"></path>
<path d="M1.893 0.734 Q1.065 0.392 0.215 0.720" stroke="hsl(0.0,100%,35%)" stroke-width="0.00509"></path>
<path d="M1.893 0.734 Q1.801 0.666 1.646 0.695" stroke="hsl(0.0,100%,35%)" stroke-width="0.00085"></path>
<path d="M1.893 0.734 Q1.959 0.430 1.379 0.330" stroke="hsl(0.0,100%,35%)" stroke-width="0.00594"></path>
<path d="M1.596 0.445 Q1.250 0.448 1.180 0.617" stroke="hsl(0.0,100%,35%)" stroke-width="0.00764"></path>
<path d="M1.596 0.445 Q1.579 0.344 1.379 0.330" stroke="hsl(0.0,100%,35%)" stroke-width="0.00424"></path>
<path d="M1.596 0.445 Q1.190 0.357 0.927 0.535" stroke="hsl(0.0,100%,35%)" stroke-width="0.00085"></path>
<path d="M1.596 0.445 Q1.211 0.562 1.354 0.776" stroke="hsl(0.0,100%,35%)" stroke-width="0.00085"></path>
<path d="M0.475 0.683 Q0.315 0.649 0.215 0.720" stroke="hsl(0.0,100%,35%)" stroke-width="0.00764"></path>
<path d="M0.475 0.683 Q1.209 0.687 1.379 0.330" stroke="hsl(0.0,100%,35%)" stroke-width="0.01273"></path>
<path d="M0.475 0.683 Q0.880 0.791 1.180 0.617" stroke="hsl(0.0,100%,35%)" stroke-width="0.01018"></path>
<path d="M0.475 0.683 Q1.142 0.992 1.893 0.734" stroke="hsl(0.0,100%,35%)" stroke-width="0.00170"></path>
<path d="M0.475 0.683 Q0.489 0.858 0.833 0.889" stroke="hsl(0.0,100%,35%)" stroke-width="0.00085"></path>
<path d="M0.475 0.683 Q0.807 0.543 0.607 0.350" stroke="hsl(0.0,100%,35%)" stroke-width="0.00085"></path>
<path d="M1.214 0.439 Q1.055 0.521 1.180 0.617" stroke="hsl(0.0,100%,35%)" stroke-width="0.00849"></path>
<path d="M1.214 0.439 Q1.383 0.418 1.379 0.330" stroke="hsl(0.0,100%,35%)" stroke-width="0.00170"></path>
<path d="M1.214 0.439 Q0.994 0.430 0.927 0.535" stroke="hsl(0.0,100%,35%)" stroke-width="0.00255"></path>
<path d="M1.605 0.333 Q1.165 0.390 1.180 0.617" stroke="hsl(0.0,100%,35%)" stroke-width="0.00085"></path>
<path d="M1.605 0.333 Q1.313 0.287 1.160 0.419" stroke="hsl(0.0,100%,35%)" stroke-width="0.00085"></path>
<path d="M0.115 0.442 Q0.836 0.639 1.379 0.330" stroke="hsl(0.0,100%,35%)" stroke-width="0.00170"></path>
<path d="M0.115 0.442 Q-0.044 0.519 0.070 0.613" stroke="hsl(0.0,100%,35%)" stroke-width="0.00085"></path>
<path d="M0.115 0.442 Q0.507 0.743 1.180 0.617" stroke="hsl(0.0,100%,35%)" stroke-width="0.00170"></path>
<path d="M1.293 0.108 Q0.829 0.340 1.180 0.617" stroke="hsl(0.0,100%,35%)" stroke-width="0.00170"></path>
<path d="M1.293 0.108 Q1.158 0.236 1.379 0.330" stroke="hsl(0.0,100%,35%)" stroke-width="0.00170"></path>
<path d="M1.293 0.108 Q0.265 0.198 0.215 0.720" stroke="hsl(0.0,100%,35%)" stroke-width="0.00170"></path>
<path d="M0.998 0.384 Q0.902 0.537 1.180 0.617" stroke="hsl(0.0,100%,35%)" stroke-width="0.00255"></path>
<path d="M0.998 0.384 Q1.231 0.433 1.379 0.330" stroke="hsl(0.0,100%,35%)" stroke-width="0.00170"></path>
<path d="M0.998 0.384 Q0.346 0.540 0.508 0.892" stroke="hsl(0.0,100%,35%)" stroke-width="0.00085"></path>
<path d="M0.508 0.892 Q0.673 0.956 0.833 0.889" stroke="hsl(0.0,100%,35%)" stroke-width="0.00170"></path>
<path d="M0.508 0.892 Q1.064 0.889 1.180 0.617" stroke="hsl(0.0,100%,35%)" stroke-width="0.00085"></path>
<path d="M0.508 0.892 Q1.025 1.003 1.354 0.776" stroke="hsl(0.0,100%,35%)" stroke-width="0.00085"></path>
<path d="M1.707 0.814 Q1.561 0.724 1.354 0.776" stroke="hsl(0.0,100%,35%)" stroke-width="0.00170"></path>
<path d="M1.707 0.814 Q1.601 0.610 1.180 0.617" stroke="hsl(0.0,100%,35%)" stroke-width="0.00170"></path>
<path d="M1.707 0.814 Q1.210 0.677 0.833 0.889" stroke="hsl(0.0,100%,35%)" stroke-width="0.00085"></path>
<path d="M1.707 0.814 Q1.272 0.783 1.117 0.989" stroke="hsl(0.0,100%,35%)" stroke-width="0.00085"></path>
</g>
<text x="1.520" y="0.609" font-size="0.039084" fill="hsl(0.0,100%,20%)">abdolrashidi</text>
<text x="1.180" y="0.566" font-size="0.102859" fill="hsl(0.0,100%,20%)">syoussefi</text>
<text x="0.927" y="0.495" font-size="0.080837" fill="hsl(0.0,100%,20%)">cclao</text>
<text x="1.517" y="0.403" font-size="0.005319" fill="hsl(0.0,100%,20%)">kaiyili</text>
<text x="1.393" y="0.919" font-size="0.063380" fill="hsl(0.0,100%,20%)">romanl</text>
<text x="1.595" y="0.412" font-size="0.023786" fill="hsl(0.0,100%,20%)">hailinzhang</text>
<text x="1.354" y="0.751" font-size="0.049036" fill="hsl(0.0,100%,20%)">yuxinhu</text>
<text x="1.379" y="0.300" font-size="0.059939" fill="hsl(0.0,100%,20%)">geofflang</text>
<text x="1.087" y="0.675" font-size="0.027637" fill="hsl(0.0,100%,20%)">chrisforbes</text>
<text x="1.160" y="0.413" font-size="0.013028" fill="hsl(0.0,100%,20%)">m.maiya</text>
<text x="1.117" y="0.964" font-size="0.049036" fill="hsl(0.0,100%,20%)">cnorthrop</text>
<text x="1.835" y="0.627" font-size="0.018425" fill="hsl(0.0,100%,20%)">zzyiwei</text>
<text x="0.993" y="0.985" font-size="0.016819" fill="hsl(0.0,100%,20%)">mikes</text>
<text x="0.834" y="1.002" font-size="0.022565" fill="hsl(0.0,100%,20%)">mark</text>
<text x="0.875" y="1.017" font-size="0.014072" fill="hsl(0.0,100%,20%)">lpy</text>
<text x="0.580" y="0.814" font-size="0.010637" fill="hsl(0.0,100%,20%)">djg</text>
<text x="0.215" y="0.706" font-size="0.027637" fill="hsl(0.0,100%,20%)">kbr</text>
<text x="0.833" y="0.872" font-size="0.034877" fill="hsl(0.0,100%,20%)">ynovikov</text>
<text x="1.893" y="0.723" font-size="0.022565" fill="hsl(0.0,100%,20%)">lehoangquyen</text>
<text x="0.878" y="0.294" font-size="0.009212" fill="hsl(0.0,100%,20%)">penghuang</text>
<text x="1.596" y="0.434" font-size="0.022565" fill="hsl(0.0,100%,20%)">steven</text>
<text x="1.006" y="0.268" font-size="0.007522" fill="hsl(0.0,100%,20%)">rafael.cintron</text>
<text x="0.475" y="0.665" font-size="0.034877" fill="hsl(0.0,100%,20%)">lexa.knyazev</text>
<text x="1.169" y="0.164" font-size="0.005319" fill="hsl(0.0,100%,20%)">jamesgk</text>
<text x="1.214" y="0.428" font-size="0.021275" fill="hsl(0.0,100%,20%)">i.nazarov</text>
<text x="1.605" y="0.329" font-size="0.007522" fill="hsl(0.0,100%,20%)">j.vigil</text>
<text x="0.115" y="0.436" font-size="0.011893" fill="hsl(0.0,100%,20%)">jiawei.shao</text>
<text x="0.070" y="0.610" font-size="0.005319" fill="hsl(0.0,100%,20%)">senorblanco</text>
<text x="1.293" y="0.101" font-size="0.014072" fill="hsl(0.0,100%,20%)">jonahr</text>
<text x="1.646" y="0.692" font-size="0.005319" fill="hsl(0.0,100%,20%)">sunnyps</text>
<text x="0.607" y="0.347" font-size="0.005319" fill="hsl(0.0,100%,20%)">kkinnunen</text>
<text x="0.998" y="0.377" font-size="0.013028" fill="hsl(0.0,100%,20%)">liza</text>
<text x="0.508" y="0.886" font-size="0.011893" fill="hsl(0.0,100%,20%)">sokcevic</text>
<text x="1.111" y="0.820" font-size="0.005319" fill="hsl(0.0,100%,20%)">zijiehe</text>
<text x="1.707" y="0.807" font-size="0.015044" fill="hsl(0.0,100%,20%)">solti</text>
<text x="0.504" y="0.959" font-size="0.009212" fill="hsl(0.0,100%,20%)">bsheedy</text>
</svg>
