<svg width="4000" height="2000" viewBox="-0.025 -0.025 2.05 1.05" xmlns="http://www.w3.org/2000/svg">
  <style>
    path {
      fill: none;
      stroke-linecap: round;
      stroke-opacity: 0.4;
    }

    text {
      text-anchor: middle;
      alignment-baseline: hanging;
    }
  </style>
  <g opacity="0.4">
<path d="M1.848 0.800 Q1.751 0.630 1.397 0.639" stroke="hsl(0.0,100%,35%)" stroke-width="0.03742"></path>
<path d="M1.848 0.800 Q1.553 0.816 1.518 0.963" stroke="hsl(0.0,100%,35%)" stroke-width="0.02993"></path>
<path d="M1.848 0.800 Q1.675 0.776 1.589 0.855" stroke="hsl(0.0,100%,35%)" stroke-width="0.00748"></path>
<path d="M1.397 0.639 Q1.254 0.596 1.138 0.656" stroke="hsl(0.0,100%,35%)" stroke-width="0.03742"></path>
<path d="M1.397 0.639 Q1.585 0.410 1.180 0.268" stroke="hsl(0.0,100%,35%)" stroke-width="0.01497"></path>
<path d="M1.397 0.639 Q0.758 0.438 0.225 0.705" stroke="hsl(0.0,100%,35%)" stroke-width="0.01497"></path>
<path d="M1.397 0.639 Q1.203 0.505 0.899 0.570" stroke="hsl(0.0,100%,35%)" stroke-width="0.01497"></path>
<path d="M1.397 0.639 Q0.866 0.514 0.505 0.745" stroke="hsl(0.0,100%,35%)" stroke-width="0.00748"></path>
<path d="M1.397 0.639 Q1.198 0.825 1.518 0.963" stroke="hsl(0.0,100%,35%)" stroke-width="0.00748"></path>
<path d="M1.397 0.639 Q1.294 0.537 1.072 0.564" stroke="hsl(0.0,100%,35%)" stroke-width="0.00748"></path>
<path d="M1.072 0.564 Q1.056 0.493 0.914 0.486" stroke="hsl(0.0,100%,35%)" stroke-width="0.01497"></path>
<path d="M1.072 0.564 Q1.174 0.666 1.397 0.639" stroke="hsl(0.0,100%,35%)" stroke-width="0.05238"></path>
<path d="M1.072 0.564 Q1.363 0.438 1.180 0.268" stroke="hsl(0.0,100%,35%)" stroke-width="0.02245"></path>
<path d="M1.072 0.564 Q0.536 0.465 0.225 0.705" stroke="hsl(0.0,100%,35%)" stroke-width="0.00748"></path>
<path d="M0.225 0.705 Q0.864 0.906 1.397 0.639" stroke="hsl(0.0,100%,35%)" stroke-width="0.02993"></path>
<path d="M0.225 0.705 Q0.333 0.781 0.505 0.745" stroke="hsl(0.0,100%,35%)" stroke-width="0.02245"></path>
<path d="M0.225 0.705 Q0.433 0.924 0.907 0.871" stroke="hsl(0.0,100%,35%)" stroke-width="0.00748"></path>
<path d="M0.225 0.705 Q0.161 0.809 0.349 0.863" stroke="hsl(0.0,100%,35%)" stroke-width="0.00748"></path>
<path d="M1.138 0.656 Q1.281 0.699 1.397 0.639" stroke="hsl(0.0,100%,35%)" stroke-width="0.00748"></path>
<path d="M1.138 0.656 Q0.850 0.718 0.907 0.871" stroke="hsl(0.0,100%,35%)" stroke-width="0.01497"></path>
<path d="M1.138 0.656 Q1.045 0.723 1.155 0.783" stroke="hsl(0.0,100%,35%)" stroke-width="0.00748"></path>
</g>
<text x="1.848" y="0.769" font-size="0.063246" fill="hsl(0.0,100%,20%)">kkinnunen</text>
<text x="1.397" y="0.583" font-size="0.111355" fill="hsl(0.0,100%,20%)">syoussefi</text>
<text x="1.518" y="0.941" font-size="0.044721" fill="hsl(0.0,100%,20%)">kbr</text>
<text x="1.589" y="0.845" font-size="0.020000" fill="hsl(0.0,100%,20%)">lexa.knyazev</text>
<text x="1.072" y="0.526" font-size="0.074833" fill="hsl(0.0,100%,20%)">liza</text>
<text x="0.914" y="0.472" font-size="0.028284" fill="hsl(0.0,100%,20%)">mpdenton</text>
<text x="1.180" y="0.246" font-size="0.044721" fill="hsl(0.0,100%,20%)">geofflang</text>
<text x="0.225" y="0.670" font-size="0.069282" fill="hsl(0.0,100%,20%)">romanl</text>
<text x="0.505" y="0.725" font-size="0.040000" fill="hsl(0.0,100%,20%)">cnorthrop</text>
<text x="0.907" y="0.854" font-size="0.034641" fill="hsl(0.0,100%,20%)">abdolrashidi</text>
<text x="0.349" y="0.853" font-size="0.020000" fill="hsl(0.0,100%,20%)">ynovikov</text>
<text x="1.138" y="0.626" font-size="0.060000" fill="hsl(0.0,100%,20%)">yuxinhu</text>
<text x="0.899" y="0.556" font-size="0.028284" fill="hsl(0.0,100%,20%)">cclao</text>
<text x="1.155" y="0.773" font-size="0.020000" fill="hsl(0.0,100%,20%)">lpy</text>
</svg>
