<svg width="4000" height="2000" viewBox="-0.025 -0.025 2.05 1.05" xmlns="http://www.w3.org/2000/svg">
  <style>
    path {
      fill: none;
      stroke-linecap: round;
      stroke-opacity: 0.4;
    }

    text {
      text-anchor: middle;
      alignment-baseline: hanging;
    }
  </style>
  <g opacity="0.4">
<path d="M0.660 0.814 Q0.654 0.755 0.536 0.745" stroke="hsl(0.0,100%,35%)" stroke-width="0.00282"></path>
<path d="M0.660 0.814 Q0.522 0.640 0.153 0.669" stroke="hsl(0.0,100%,35%)" stroke-width="0.00205"></path>
<path d="M0.660 0.814 Q0.860 0.787 0.851 0.684" stroke="hsl(0.0,100%,35%)" stroke-width="0.00051"></path>
<path d="M0.660 0.814 Q1.298 0.669 1.154 0.326" stroke="hsl(0.0,100%,35%)" stroke-width="0.00026"></path>
<path d="M0.536 0.745 Q0.303 0.723 0.209 0.832" stroke="hsl(0.0,100%,35%)" stroke-width="0.00051"></path>
<path d="M0.536 0.745 Q0.594 0.813 0.739 0.799" stroke="hsl(0.0,100%,35%)" stroke-width="0.00128"></path>
<path d="M0.536 0.745 Q0.405 0.631 0.153 0.669" stroke="hsl(0.0,100%,35%)" stroke-width="0.06683"></path>
<path d="M0.536 0.745 Q0.694 0.682 0.606 0.591" stroke="hsl(0.0,100%,35%)" stroke-width="0.04788"></path>
<path d="M0.536 0.745 Q0.743 0.777 0.851 0.684" stroke="hsl(0.0,100%,35%)" stroke-width="0.00947"></path>
<path d="M0.536 0.745 Q0.589 0.856 0.816 0.854" stroke="hsl(0.0,100%,35%)" stroke-width="0.00026"></path>
<path d="M0.536 0.745 Q0.256 0.699 0.104 0.825" stroke="hsl(0.0,100%,35%)" stroke-width="0.00333"></path>
<path d="M0.536 0.745 Q0.601 0.453 0.047 0.358" stroke="hsl(0.0,100%,35%)" stroke-width="0.00461"></path>
<path d="M0.536 0.745 Q0.814 1.022 1.416 0.948" stroke="hsl(0.0,100%,35%)" stroke-width="0.00230"></path>
<path d="M0.536 0.745 Q0.649 0.883 0.943 0.858" stroke="hsl(0.0,100%,35%)" stroke-width="0.00051"></path>
<path d="M0.536 0.745 Q0.659 0.585 0.373 0.490" stroke="hsl(0.0,100%,35%)" stroke-width="0.00282"></path>
<path d="M0.536 0.745 Q1.168 0.954 1.715 0.692" stroke="hsl(0.0,100%,35%)" stroke-width="0.00128"></path>
<path d="M0.536 0.745 Q0.940 0.799 1.133 0.614" stroke="hsl(0.0,100%,35%)" stroke-width="0.00026"></path>
<path d="M0.536 0.745 Q0.811 0.884 1.143 0.781" stroke="hsl(0.0,100%,35%)" stroke-width="0.00077"></path>
<path d="M0.536 0.745 Q0.824 0.912 1.213 0.809" stroke="hsl(0.0,100%,35%)" stroke-width="0.00026"></path>
<path d="M0.536 0.745 Q0.664 0.988 1.167 0.979" stroke="hsl(0.0,100%,35%)" stroke-width="0.00026"></path>
<path d="M0.536 0.745 Q0.664 0.917 1.027 0.892" stroke="hsl(0.0,100%,35%)" stroke-width="0.00026"></path>
<path d="M0.536 0.745 Q0.800 0.634 0.641 0.481" stroke="hsl(0.0,100%,35%)" stroke-width="0.00026"></path>
<path d="M0.536 0.745 Q1.181 0.659 1.154 0.326" stroke="hsl(0.0,100%,35%)" stroke-width="0.00128"></path>
<path d="M0.536 0.745 Q0.260 0.675 0.062 0.794" stroke="hsl(0.0,100%,35%)" stroke-width="0.00026"></path>
<path d="M0.536 0.745 Q0.891 0.625 0.734 0.425" stroke="hsl(0.0,100%,35%)" stroke-width="0.00051"></path>
<path d="M0.536 0.745 Q0.574 0.853 0.793 0.858" stroke="hsl(0.0,100%,35%)" stroke-width="0.00026"></path>
<path d="M0.153 0.669 Q0.284 0.784 0.536 0.745" stroke="hsl(0.0,100%,35%)" stroke-width="0.02945"></path>
<path d="M0.153 0.669 Q0.004 0.738 0.104 0.825" stroke="hsl(0.0,100%,35%)" stroke-width="0.02765"></path>
<path d="M0.153 0.669 Q0.490 0.816 0.851 0.684" stroke="hsl(0.0,100%,35%)" stroke-width="0.00307"></path>
<path d="M0.153 0.669 Q0.389 0.655 0.412 0.536" stroke="hsl(0.0,100%,35%)" stroke-width="0.00307"></path>
<path d="M0.153 0.669 Q0.916 0.993 1.715 0.692" stroke="hsl(0.0,100%,35%)" stroke-width="0.03226"></path>
<path d="M0.153 0.669 Q0.442 0.721 0.606 0.591" stroke="hsl(0.0,100%,35%)" stroke-width="0.03303"></path>
<path d="M0.153 0.669 Q0.572 0.951 1.213 0.809" stroke="hsl(0.0,100%,35%)" stroke-width="0.00026"></path>
<path d="M0.153 0.669 Q0.045 0.727 0.133 0.792" stroke="hsl(0.0,100%,35%)" stroke-width="0.00026"></path>
<path d="M0.153 0.669 Q0.687 0.838 1.133 0.614" stroke="hsl(0.0,100%,35%)" stroke-width="0.00051"></path>
<path d="M0.153 0.669 Q0.407 0.624 0.373 0.490" stroke="hsl(0.0,100%,35%)" stroke-width="0.00717"></path>
<path d="M0.153 0.669 Q0.728 0.973 1.447 0.759" stroke="hsl(0.0,100%,35%)" stroke-width="0.00026"></path>
<path d="M0.153 0.669 Q0.562 1.061 1.416 0.948" stroke="hsl(0.0,100%,35%)" stroke-width="0.00691"></path>
<path d="M0.153 0.669 Q0.928 0.698 1.154 0.326" stroke="hsl(0.0,100%,35%)" stroke-width="0.00026"></path>
<path d="M0.153 0.669 Q0.450 0.606 0.392 0.447" stroke="hsl(0.0,100%,35%)" stroke-width="0.00077"></path>
<path d="M0.153 0.669 Q0.349 0.492 0.047 0.358" stroke="hsl(0.0,100%,35%)" stroke-width="0.00102"></path>
<path d="M0.153 0.669 Q0.440 0.587 0.343 0.429" stroke="hsl(0.0,100%,35%)" stroke-width="0.00026"></path>
<path d="M0.153 0.669 Q0.112 0.746 0.253 0.783" stroke="hsl(0.0,100%,35%)" stroke-width="0.00154"></path>
<path d="M0.153 0.669 Q0.199 0.570 0.016 0.525" stroke="hsl(0.0,100%,35%)" stroke-width="0.00051"></path>
<path d="M0.153 0.669 Q0.454 0.617 0.419 0.459" stroke="hsl(0.0,100%,35%)" stroke-width="0.00026"></path>
<path d="M0.153 0.669 Q0.337 0.895 0.816 0.854" stroke="hsl(0.0,100%,35%)" stroke-width="0.00026"></path>
<path d="M0.153 0.669 Q0.342 0.851 0.739 0.799" stroke="hsl(0.0,100%,35%)" stroke-width="0.00026"></path>
<path d="M0.153 0.669 Q0.584 0.569 0.482 0.336" stroke="hsl(0.0,100%,35%)" stroke-width="0.00026"></path>
<path d="M0.851 0.684 Q0.645 0.652 0.536 0.745" stroke="hsl(0.0,100%,35%)" stroke-width="0.01460"></path>
<path d="M0.851 0.684 Q0.513 0.537 0.153 0.669" stroke="hsl(0.0,100%,35%)" stroke-width="0.02048"></path>
<path d="M0.851 0.684 Q0.803 0.589 0.606 0.591" stroke="hsl(0.0,100%,35%)" stroke-width="0.01229"></path>
<path d="M0.851 0.684 Q0.710 0.360 0.047 0.358" stroke="hsl(0.0,100%,35%)" stroke-width="0.00615"></path>
<path d="M0.851 0.684 Q1.048 0.705 1.133 0.614" stroke="hsl(0.0,100%,35%)" stroke-width="0.00026"></path>
<path d="M0.851 0.684 Q0.703 0.719 0.739 0.799" stroke="hsl(0.0,100%,35%)" stroke-width="0.00026"></path>
<path d="M0.851 0.684 Q1.276 0.861 1.715 0.692" stroke="hsl(0.0,100%,35%)" stroke-width="0.00179"></path>
<path d="M0.851 0.684 Q0.923 0.929 1.416 0.948" stroke="hsl(0.0,100%,35%)" stroke-width="0.00077"></path>
<path d="M1.154 0.326 Q0.510 0.412 0.536 0.745" stroke="hsl(0.0,100%,35%)" stroke-width="0.00282"></path>
<path d="M1.154 0.326 Q1.405 0.340 1.488 0.221" stroke="hsl(0.0,100%,35%)" stroke-width="0.00026"></path>
<path d="M1.154 0.326 Q0.229 0.366 0.104 0.825" stroke="hsl(0.0,100%,35%)" stroke-width="0.00154"></path>
<path d="M1.154 0.326 Q0.378 0.297 0.153 0.669" stroke="hsl(0.0,100%,35%)" stroke-width="0.00230"></path>
<path d="M1.154 0.326 Q1.314 0.401 1.495 0.339" stroke="hsl(0.0,100%,35%)" stroke-width="0.00026"></path>
<path d="M1.154 0.326 Q0.667 0.349 0.606 0.591" stroke="hsl(0.0,100%,35%)" stroke-width="0.00026"></path>
<path d="M1.154 0.326 Q0.632 0.252 0.373 0.490" stroke="hsl(0.0,100%,35%)" stroke-width="0.00051"></path>
<path d="M1.154 0.326 Q1.569 0.368 1.742 0.174" stroke="hsl(0.0,100%,35%)" stroke-width="0.00026"></path>
<path d="M1.154 0.326 Q1.141 0.621 1.715 0.692" stroke="hsl(0.0,100%,35%)" stroke-width="0.00051"></path>
<path d="M1.154 0.326 Q0.787 0.689 1.416 0.948" stroke="hsl(0.0,100%,35%)" stroke-width="0.00026"></path>
<path d="M1.519 0.506 Q1.545 0.554 1.644 0.553" stroke="hsl(0.0,100%,35%)" stroke-width="0.00128"></path>
<path d="M1.519 0.506 Q0.706 0.315 0.153 0.669" stroke="hsl(0.0,100%,35%)" stroke-width="0.00128"></path>
<path d="M1.519 0.506 Q1.115 0.706 1.416 0.948" stroke="hsl(0.0,100%,35%)" stroke-width="0.00051"></path>
<path d="M1.416 0.948 Q1.499 0.844 1.315 0.780" stroke="hsl(0.0,100%,35%)" stroke-width="0.00026"></path>
<path d="M1.416 0.948 Q1.138 0.670 0.536 0.745" stroke="hsl(0.0,100%,35%)" stroke-width="0.00230"></path>
<path d="M1.416 0.948 Q1.007 0.556 0.153 0.669" stroke="hsl(0.0,100%,35%)" stroke-width="0.00640"></path>
<path d="M1.416 0.948 Q1.426 0.837 1.213 0.809" stroke="hsl(0.0,100%,35%)" stroke-width="0.00179"></path>
<path d="M1.416 0.948 Q1.782 0.584 1.154 0.326" stroke="hsl(0.0,100%,35%)" stroke-width="0.00128"></path>
<path d="M1.416 0.948 Q1.644 0.792 1.391 0.647" stroke="hsl(0.0,100%,35%)" stroke-width="0.00026"></path>
<path d="M1.416 0.948 Q1.296 0.607 0.606 0.591" stroke="hsl(0.0,100%,35%)" stroke-width="0.00102"></path>
<path d="M1.416 0.948 Q1.402 0.559 0.641 0.481" stroke="hsl(0.0,100%,35%)" stroke-width="0.00026"></path>
<path d="M1.416 0.948 Q1.261 0.510 0.373 0.490" stroke="hsl(0.0,100%,35%)" stroke-width="0.00179"></path>
<path d="M1.416 0.948 Q0.899 0.613 0.133 0.792" stroke="hsl(0.0,100%,35%)" stroke-width="0.00026"></path>
<path d="M1.416 0.948 Q0.858 0.624 0.104 0.825" stroke="hsl(0.0,100%,35%)" stroke-width="0.00051"></path>
<path d="M1.416 0.948 Q1.196 0.738 0.739 0.799" stroke="hsl(0.0,100%,35%)" stroke-width="0.00026"></path>
<path d="M1.416 0.948 Q1.266 0.942 1.222 1.014" stroke="hsl(0.0,100%,35%)" stroke-width="0.00026"></path>
<path d="M1.416 0.948 Q1.344 0.703 0.851 0.684" stroke="hsl(0.0,100%,35%)" stroke-width="0.00051"></path>
<path d="M0.171 0.479 Q0.010 0.571 0.153 0.669" stroke="hsl(0.0,100%,35%)" stroke-width="0.00102"></path>
<path d="M0.171 0.479 Q0.141 0.685 0.536 0.745" stroke="hsl(0.0,100%,35%)" stroke-width="0.00077"></path>
<path d="M0.171 0.479 Q0.299 0.622 0.606 0.591" stroke="hsl(0.0,100%,35%)" stroke-width="0.00026"></path>
<path d="M0.606 0.591 Q0.317 0.540 0.153 0.669" stroke="hsl(0.0,100%,35%)" stroke-width="0.01511"></path>
<path d="M0.606 0.591 Q0.448 0.654 0.536 0.745" stroke="hsl(0.0,100%,35%)" stroke-width="0.00947"></path>
<path d="M0.606 0.591 Q1.080 0.863 1.715 0.692" stroke="hsl(0.0,100%,35%)" stroke-width="0.00717"></path>
<path d="M0.606 0.591 Q0.513 0.363 0.047 0.358" stroke="hsl(0.0,100%,35%)" stroke-width="0.00179"></path>
<path d="M0.606 0.591 Q0.455 0.714 0.660 0.814" stroke="hsl(0.0,100%,35%)" stroke-width="0.00026"></path>
<path d="M0.606 0.591 Q0.655 0.687 0.851 0.684" stroke="hsl(0.0,100%,35%)" stroke-width="0.00384"></path>
<path d="M0.606 0.591 Q0.584 0.708 0.807 0.744" stroke="hsl(0.0,100%,35%)" stroke-width="0.00051"></path>
<path d="M0.606 0.591 Q0.726 0.931 1.416 0.948" stroke="hsl(0.0,100%,35%)" stroke-width="0.00384"></path>
<path d="M0.606 0.591 Q0.168 0.608 0.104 0.825" stroke="hsl(0.0,100%,35%)" stroke-width="0.00077"></path>
<path d="M0.306 0.413 Q0.024 0.510 0.153 0.669" stroke="hsl(0.0,100%,35%)" stroke-width="0.00154"></path>
<path d="M0.306 0.413 Q0.156 0.625 0.536 0.745" stroke="hsl(0.0,100%,35%)" stroke-width="0.00179"></path>
<path d="M0.306 0.413 Q0.214 0.692 0.739 0.799" stroke="hsl(0.0,100%,35%)" stroke-width="0.00026"></path>
<path d="M0.306 0.413 Q0.396 0.458 0.503 0.424" stroke="hsl(0.0,100%,35%)" stroke-width="0.00026"></path>
<path d="M0.306 0.413 Q0.343 0.470 0.463 0.465" stroke="hsl(0.0,100%,35%)" stroke-width="0.00026"></path>
<path d="M0.306 0.413 Q0.221 0.333 0.047 0.358" stroke="hsl(0.0,100%,35%)" stroke-width="0.00026"></path>
<path d="M0.739 0.799 Q0.681 0.732 0.536 0.745" stroke="hsl(0.0,100%,35%)" stroke-width="0.01920"></path>
<path d="M0.739 0.799 Q0.887 0.764 0.851 0.684" stroke="hsl(0.0,100%,35%)" stroke-width="0.00051"></path>
<path d="M0.739 0.799 Q0.549 0.617 0.153 0.669" stroke="hsl(0.0,100%,35%)" stroke-width="0.01946"></path>
<path d="M0.739 0.799 Q0.839 0.669 0.606 0.591" stroke="hsl(0.0,100%,35%)" stroke-width="0.00154"></path>
<path d="M0.739 0.799 Q0.959 1.009 1.416 0.948" stroke="hsl(0.0,100%,35%)" stroke-width="0.00051"></path>
<path d="M0.047 0.358 Q-0.012 0.709 0.660 0.814" stroke="hsl(0.0,100%,35%)" stroke-width="0.00026"></path>
<path d="M0.047 0.358 Q0.118 0.703 0.807 0.744" stroke="hsl(0.0,100%,35%)" stroke-width="0.00026"></path>
<path d="M0.047 0.358 Q-0.018 0.649 0.536 0.745" stroke="hsl(0.0,100%,35%)" stroke-width="0.00487"></path>
<path d="M0.047 0.358 Q0.188 0.682 0.851 0.684" stroke="hsl(0.0,100%,35%)" stroke-width="0.00051"></path>
<path d="M0.047 0.358 Q0.385 0.703 1.133 0.614" stroke="hsl(0.0,100%,35%)" stroke-width="0.00026"></path>
<path d="M0.047 0.358 Q0.140 0.586 0.606 0.591" stroke="hsl(0.0,100%,35%)" stroke-width="0.00333"></path>
<path d="M0.047 0.358 Q-0.150 0.535 0.153 0.669" stroke="hsl(0.0,100%,35%)" stroke-width="0.00307"></path>
<path d="M0.047 0.358 Q0.087 0.520 0.412 0.536" stroke="hsl(0.0,100%,35%)" stroke-width="0.00026"></path>
<path d="M0.047 0.358 Q-0.299 0.603 0.104 0.825" stroke="hsl(0.0,100%,35%)" stroke-width="0.00179"></path>
<path d="M0.047 0.358 Q0.613 0.859 1.715 0.692" stroke="hsl(0.0,100%,35%)" stroke-width="0.00307"></path>
<path d="M0.047 0.358 Q0.259 0.927 1.416 0.948" stroke="hsl(0.0,100%,35%)" stroke-width="0.00077"></path>
<path d="M0.047 0.358 Q0.317 0.380 0.421 0.253" stroke="hsl(0.0,100%,35%)" stroke-width="0.00026"></path>
<path d="M0.047 0.358 Q0.130 0.317 0.070 0.268" stroke="hsl(0.0,100%,35%)" stroke-width="0.00077"></path>
<path d="M0.047 0.358 Q0.626 0.563 1.154 0.326" stroke="hsl(0.0,100%,35%)" stroke-width="0.00026"></path>
<path d="M0.530 0.503 Q0.340 0.625 0.536 0.745" stroke="hsl(0.0,100%,35%)" stroke-width="0.00666"></path>
<path d="M0.530 0.503 Q0.208 0.511 0.153 0.669" stroke="hsl(0.0,100%,35%)" stroke-width="0.00640"></path>
<path d="M0.530 0.503 Q0.498 0.563 0.606 0.591" stroke="hsl(0.0,100%,35%)" stroke-width="0.00205"></path>
<path d="M0.530 0.503 Q0.398 0.693 0.739 0.799" stroke="hsl(0.0,100%,35%)" stroke-width="0.00026"></path>
<path d="M0.921 1.319 Q1.465 1.232 1.416 0.948" stroke="hsl(0.0,100%,35%)" stroke-width="0.00026"></path>
<path d="M0.921 1.319 Q1.056 0.840 0.153 0.669" stroke="hsl(0.0,100%,35%)" stroke-width="0.00026"></path>
<path d="M0.921 1.319 Q1.188 0.955 0.536 0.745" stroke="hsl(0.0,100%,35%)" stroke-width="0.00026"></path>
<path d="M1.133 0.614 Q0.936 0.593 0.851 0.684" stroke="hsl(0.0,100%,35%)" stroke-width="0.00410"></path>
<path d="M1.133 0.614 Q1.008 0.837 1.416 0.948" stroke="hsl(0.0,100%,35%)" stroke-width="0.00026"></path>
<path d="M1.133 0.614 Q1.362 0.769 1.715 0.692" stroke="hsl(0.0,100%,35%)" stroke-width="0.00026"></path>
<path d="M1.133 0.614 Q0.599 0.446 0.153 0.669" stroke="hsl(0.0,100%,35%)" stroke-width="0.00435"></path>
<path d="M1.133 0.614 Q0.730 0.560 0.536 0.745" stroke="hsl(0.0,100%,35%)" stroke-width="0.00256"></path>
<path d="M1.133 0.614 Q0.888 0.497 0.606 0.591" stroke="hsl(0.0,100%,35%)" stroke-width="0.00154"></path>
<path d="M1.715 0.692 Q1.083 0.483 0.536 0.745" stroke="hsl(0.0,100%,35%)" stroke-width="0.00384"></path>
<path d="M1.715 0.692 Q0.850 0.461 0.209 0.832" stroke="hsl(0.0,100%,35%)" stroke-width="0.00026"></path>
<path d="M1.715 0.692 Q0.952 0.368 0.153 0.669" stroke="hsl(0.0,100%,35%)" stroke-width="0.02023"></path>
<path d="M1.715 0.692 Q1.241 0.420 0.606 0.591" stroke="hsl(0.0,100%,35%)" stroke-width="0.01562"></path>
<path d="M1.715 0.692 Q1.148 0.191 0.047 0.358" stroke="hsl(0.0,100%,35%)" stroke-width="0.00051"></path>
<path d="M1.715 0.692 Q1.487 0.537 1.133 0.614" stroke="hsl(0.0,100%,35%)" stroke-width="0.00077"></path>
<path d="M1.715 0.692 Q0.803 0.437 0.104 0.825" stroke="hsl(0.0,100%,35%)" stroke-width="0.00051"></path>
<path d="M1.715 0.692 Q2.174 0.367 1.640 0.071" stroke="hsl(0.0,100%,35%)" stroke-width="0.00026"></path>
<path d="M1.715 0.692 Q1.141 0.550 0.739 0.799" stroke="hsl(0.0,100%,35%)" stroke-width="0.00051"></path>
<path d="M1.715 0.692 Q1.289 0.515 0.851 0.684" stroke="hsl(0.0,100%,35%)" stroke-width="0.00051"></path>
<path d="M1.715 0.692 Q1.723 0.796 1.928 0.815" stroke="hsl(0.0,100%,35%)" stroke-width="0.00026"></path>
<path d="M0.526 0.514 Q0.552 0.664 0.851 0.684" stroke="hsl(0.0,100%,35%)" stroke-width="0.00026"></path>
<path d="M0.526 0.514 Q0.346 0.632 0.536 0.745" stroke="hsl(0.0,100%,35%)" stroke-width="0.00154"></path>
<path d="M0.526 0.514 Q0.215 0.517 0.153 0.669" stroke="hsl(0.0,100%,35%)" stroke-width="0.00128"></path>
<path d="M0.526 0.514 Q0.610 0.520 0.641 0.481" stroke="hsl(0.0,100%,35%)" stroke-width="0.00026"></path>
<path d="M0.526 0.514 Q0.504 0.569 0.606 0.591" stroke="hsl(0.0,100%,35%)" stroke-width="0.00026"></path>
<path d="M0.209 0.832 Q0.311 0.739 0.153 0.669" stroke="hsl(0.0,100%,35%)" stroke-width="0.00154"></path>
<path d="M0.209 0.832 Q0.442 0.854 0.536 0.745" stroke="hsl(0.0,100%,35%)" stroke-width="0.00026"></path>
<path d="M0.209 0.832 Q0.720 1.131 1.416 0.948" stroke="hsl(0.0,100%,35%)" stroke-width="0.00051"></path>
<path d="M0.104 0.825 Q0.659 1.011 1.143 0.781" stroke="hsl(0.0,100%,35%)" stroke-width="0.00051"></path>
<path d="M0.104 0.825 Q0.253 0.757 0.153 0.669" stroke="hsl(0.0,100%,35%)" stroke-width="0.01357"></path>
<path d="M0.104 0.825 Q0.385 0.872 0.536 0.745" stroke="hsl(0.0,100%,35%)" stroke-width="0.00128"></path>
<path d="M0.104 0.825 Q1.029 0.785 1.154 0.326" stroke="hsl(0.0,100%,35%)" stroke-width="0.00026"></path>
<path d="M0.104 0.825 Q0.543 0.809 0.606 0.591" stroke="hsl(0.0,100%,35%)" stroke-width="0.00026"></path>
<path d="M0.104 0.825 Q0.450 0.580 0.047 0.358" stroke="hsl(0.0,100%,35%)" stroke-width="0.00077"></path>
<path d="M0.104 0.825 Q0.507 0.711 0.373 0.490" stroke="hsl(0.0,100%,35%)" stroke-width="0.00077"></path>
<path d="M0.104 0.825 Q0.513 1.115 1.167 0.979" stroke="hsl(0.0,100%,35%)" stroke-width="0.00026"></path>
<path d="M0.500 0.454 Q0.154 0.492 0.153 0.669" stroke="hsl(0.0,100%,35%)" stroke-width="0.00051"></path>
<path d="M0.500 0.454 Q0.286 0.607 0.536 0.745" stroke="hsl(0.0,100%,35%)" stroke-width="0.00051"></path>
<path d="M0.500 0.454 Q0.005 0.561 0.104 0.825" stroke="hsl(0.0,100%,35%)" stroke-width="0.00026"></path>
<path d="M1.213 0.809 Q0.925 0.641 0.536 0.745" stroke="hsl(0.0,100%,35%)" stroke-width="0.00461"></path>
<path d="M1.213 0.809 Q0.794 0.527 0.153 0.669" stroke="hsl(0.0,100%,35%)" stroke-width="0.00435"></path>
<path d="M1.213 0.809 Q1.203 0.919 1.416 0.948" stroke="hsl(0.0,100%,35%)" stroke-width="0.00461"></path>
<path d="M1.213 0.809 Q1.048 0.481 0.373 0.490" stroke="hsl(0.0,100%,35%)" stroke-width="0.00102"></path>
<path d="M1.213 0.809 Q1.570 0.555 1.154 0.326" stroke="hsl(0.0,100%,35%)" stroke-width="0.00026"></path>
<path d="M0.373 0.490 Q0.250 0.650 0.536 0.745" stroke="hsl(0.0,100%,35%)" stroke-width="0.00282"></path>
<path d="M0.373 0.490 Q0.528 0.927 1.416 0.948" stroke="hsl(0.0,100%,35%)" stroke-width="0.00230"></path>
<path d="M0.373 0.490 Q0.895 0.564 1.154 0.326" stroke="hsl(0.0,100%,35%)" stroke-width="0.00179"></path>
<path d="M0.373 0.490 Q0.119 0.536 0.153 0.669" stroke="hsl(0.0,100%,35%)" stroke-width="0.00512"></path>
<path d="M0.373 0.490 Q-0.030 0.604 0.104 0.825" stroke="hsl(0.0,100%,35%)" stroke-width="0.00154"></path>
<path d="M0.373 0.490 Q1.146 0.578 1.488 0.221" stroke="hsl(0.0,100%,35%)" stroke-width="0.00077"></path>
<path d="M0.373 0.490 Q0.408 0.587 0.606 0.591" stroke="hsl(0.0,100%,35%)" stroke-width="0.00026"></path>
<path d="M0.373 0.490 Q0.882 0.859 1.715 0.692" stroke="hsl(0.0,100%,35%)" stroke-width="0.00026"></path>
<path d="M0.133 0.792 Q1.177 0.838 1.495 0.339" stroke="hsl(0.0,100%,35%)" stroke-width="0.00128"></path>
<path d="M0.133 0.792 Q1.017 0.763 1.154 0.326" stroke="hsl(0.0,100%,35%)" stroke-width="0.00410"></path>
<path d="M0.133 0.792 Q0.372 0.849 0.536 0.745" stroke="hsl(0.0,100%,35%)" stroke-width="0.00128"></path>
<path d="M0.133 0.792 Q0.241 0.735 0.153 0.669" stroke="hsl(0.0,100%,35%)" stroke-width="0.00871"></path>
<path d="M0.133 0.792 Q1.267 0.777 1.488 0.221" stroke="hsl(0.0,100%,35%)" stroke-width="0.00026"></path>
<path d="M0.133 0.792 Q0.092 0.803 0.104 0.825" stroke="hsl(0.0,100%,35%)" stroke-width="0.00026"></path>
<path d="M0.133 0.792 Q0.650 1.127 1.416 0.948" stroke="hsl(0.0,100%,35%)" stroke-width="0.00230"></path>
<path d="M0.133 0.792 Q0.081 0.894 0.269 0.942" stroke="hsl(0.0,100%,35%)" stroke-width="0.00077"></path>
<path d="M0.133 0.792 Q0.495 0.689 0.373 0.490" stroke="hsl(0.0,100%,35%)" stroke-width="0.00051"></path>
<path d="M0.253 0.783 Q0.294 0.706 0.153 0.669" stroke="hsl(0.0,100%,35%)" stroke-width="0.03790"></path>
<path d="M0.253 0.783 Q1.057 1.030 1.715 0.692" stroke="hsl(0.0,100%,35%)" stroke-width="0.02714"></path>
<path d="M0.253 0.783 Q0.583 0.758 0.606 0.591" stroke="hsl(0.0,100%,35%)" stroke-width="0.00102"></path>
<path d="M0.253 0.783 Q0.548 0.661 0.373 0.490" stroke="hsl(0.0,100%,35%)" stroke-width="0.00026"></path>
<path d="M0.253 0.783 Q0.425 0.821 0.536 0.745" stroke="hsl(0.0,100%,35%)" stroke-width="0.00026"></path>
<path d="M0.253 0.783 Q0.703 1.098 1.416 0.948" stroke="hsl(0.0,100%,35%)" stroke-width="0.00051"></path>
<path d="M1.488 0.221 Q0.461 0.178 0.153 0.669" stroke="hsl(0.0,100%,35%)" stroke-width="0.00333"></path>
<path d="M1.488 0.221 Q1.237 0.206 1.154 0.326" stroke="hsl(0.0,100%,35%)" stroke-width="0.00973"></path>
<path d="M1.488 0.221 Q1.397 0.281 1.495 0.339" stroke="hsl(0.0,100%,35%)" stroke-width="0.00154"></path>
<path d="M1.488 0.221 Q0.593 0.293 0.536 0.745" stroke="hsl(0.0,100%,35%)" stroke-width="0.00461"></path>
<path d="M1.488 0.221 Q0.312 0.246 0.104 0.825" stroke="hsl(0.0,100%,35%)" stroke-width="0.00102"></path>
<path d="M1.488 0.221 Q0.715 0.132 0.373 0.490" stroke="hsl(0.0,100%,35%)" stroke-width="0.00077"></path>
<path d="M1.488 0.221 Q0.870 0.570 1.416 0.948" stroke="hsl(0.0,100%,35%)" stroke-width="0.00051"></path>
<path d="M1.488 0.221 Q1.683 0.176 1.640 0.071" stroke="hsl(0.0,100%,35%)" stroke-width="0.00026"></path>
<path d="M1.495 0.339 Q1.335 0.264 1.154 0.326" stroke="hsl(0.0,100%,35%)" stroke-width="0.00538"></path>
<path d="M1.495 0.339 Q0.691 0.350 0.536 0.745" stroke="hsl(0.0,100%,35%)" stroke-width="0.00102"></path>
<path d="M1.495 0.339 Q1.586 0.278 1.488 0.221" stroke="hsl(0.0,100%,35%)" stroke-width="0.00307"></path>
<path d="M1.495 0.339 Q0.969 0.627 1.416 0.948" stroke="hsl(0.0,100%,35%)" stroke-width="0.00205"></path>
<path d="M1.495 0.339 Q0.451 0.293 0.133 0.792" stroke="hsl(0.0,100%,35%)" stroke-width="0.00102"></path>
<path d="M1.495 0.339 Q0.560 0.236 0.153 0.669" stroke="hsl(0.0,100%,35%)" stroke-width="0.00026"></path>
<path d="M1.495 0.339 Q0.849 0.287 0.606 0.591" stroke="hsl(0.0,100%,35%)" stroke-width="0.00026"></path>
<path d="M1.495 0.339 Q0.400 0.395 0.269 0.942" stroke="hsl(0.0,100%,35%)" stroke-width="0.00051"></path>
<path d="M1.495 0.339 Q0.813 0.190 0.373 0.490" stroke="hsl(0.0,100%,35%)" stroke-width="0.00179"></path>
<path d="M1.002 0.816 Q0.826 0.687 0.536 0.745" stroke="hsl(0.0,100%,35%)" stroke-width="0.00051"></path>
<path d="M1.002 0.816 Q1.032 0.720 0.851 0.684" stroke="hsl(0.0,100%,35%)" stroke-width="0.00077"></path>
<path d="M1.002 0.816 Q1.229 0.741 1.133 0.614" stroke="hsl(0.0,100%,35%)" stroke-width="0.00026"></path>
<path d="M1.002 0.816 Q1.457 0.896 1.715 0.692" stroke="hsl(0.0,100%,35%)" stroke-width="0.00026"></path>
<path d="M0.967 0.958 Q1.050 1.009 1.167 0.979" stroke="hsl(0.0,100%,35%)" stroke-width="0.00051"></path>
<path d="M0.967 0.958 Q0.922 0.765 0.536 0.745" stroke="hsl(0.0,100%,35%)" stroke-width="0.00026"></path>
<path d="M0.967 0.958 Q0.790 0.651 0.153 0.669" stroke="hsl(0.0,100%,35%)" stroke-width="0.00026"></path>
<path d="M0.807 0.744 Q1.022 0.771 1.121 0.672" stroke="hsl(0.0,100%,35%)" stroke-width="0.00026"></path>
<path d="M0.807 0.744 Q0.671 0.690 0.536 0.745" stroke="hsl(0.0,100%,35%)" stroke-width="0.00051"></path>
<path d="M0.807 0.744 Q0.877 0.723 0.851 0.684" stroke="hsl(0.0,100%,35%)" stroke-width="0.00026"></path>
<path d="M0.807 0.744 Q0.540 0.576 0.153 0.669" stroke="hsl(0.0,100%,35%)" stroke-width="0.00051"></path>
<path d="M0.807 0.744 Q0.949 0.968 1.416 0.948" stroke="hsl(0.0,100%,35%)" stroke-width="0.00051"></path>
<path d="M0.807 0.744 Q0.829 0.628 0.606 0.591" stroke="hsl(0.0,100%,35%)" stroke-width="0.00077"></path>
<path d="M0.807 0.744 Q0.724 0.801 0.816 0.854" stroke="hsl(0.0,100%,35%)" stroke-width="0.00026"></path>
<path d="M0.807 0.744 Q1.303 0.900 1.715 0.692" stroke="hsl(0.0,100%,35%)" stroke-width="0.00026"></path>
<path d="M0.807 0.744 Q0.736 0.399 0.047 0.358" stroke="hsl(0.0,100%,35%)" stroke-width="0.00026"></path>
<path d="M0.412 0.536 Q0.939 0.875 1.715 0.692" stroke="hsl(0.0,100%,35%)" stroke-width="0.00128"></path>
<path d="M0.412 0.536 Q0.307 0.665 0.536 0.745" stroke="hsl(0.0,100%,35%)" stroke-width="0.00256"></path>
<path d="M0.412 0.536 Q0.465 0.602 0.606 0.591" stroke="hsl(0.0,100%,35%)" stroke-width="0.00179"></path>
<path d="M0.412 0.536 Q0.711 0.719 1.133 0.614" stroke="hsl(0.0,100%,35%)" stroke-width="0.00026"></path>
<path d="M0.412 0.536 Q0.513 0.698 0.851 0.684" stroke="hsl(0.0,100%,35%)" stroke-width="0.00026"></path>
<path d="M0.412 0.536 Q0.176 0.551 0.153 0.669" stroke="hsl(0.0,100%,35%)" stroke-width="0.00128"></path>
<path d="M0.412 0.536 Q0.585 0.943 1.416 0.948" stroke="hsl(0.0,100%,35%)" stroke-width="0.00026"></path>
<path d="M0.412 0.536 Q0.372 0.374 0.047 0.358" stroke="hsl(0.0,100%,35%)" stroke-width="0.00026"></path>
<path d="M0.070 0.268 Q-0.014 0.308 0.047 0.358" stroke="hsl(0.0,100%,35%)" stroke-width="0.00102"></path>
<path d="M0.070 0.268 Q-0.079 0.600 0.536 0.745" stroke="hsl(0.0,100%,35%)" stroke-width="0.00026"></path>
<path d="M0.070 0.268 Q0.553 0.809 1.715 0.692" stroke="hsl(0.0,100%,35%)" stroke-width="0.00051"></path>
<path d="M0.070 0.268 Q-0.210 0.485 0.153 0.669" stroke="hsl(0.0,100%,35%)" stroke-width="0.00026"></path>
<path d="M0.185 0.840 Q0.305 0.748 0.153 0.669" stroke="hsl(0.0,100%,35%)" stroke-width="0.00230"></path>
<path d="M0.185 0.840 Q0.437 0.863 0.536 0.745" stroke="hsl(0.0,100%,35%)" stroke-width="0.00307"></path>
<path d="M0.185 0.840 Q0.714 1.140 1.416 0.948" stroke="hsl(0.0,100%,35%)" stroke-width="0.00051"></path>
<path d="M0.062 0.794 Q0.339 0.865 0.536 0.745" stroke="hsl(0.0,100%,35%)" stroke-width="0.00026"></path>
<path d="M0.062 0.794 Q0.207 0.750 0.153 0.669" stroke="hsl(0.0,100%,35%)" stroke-width="0.00102"></path>
<path d="M0.062 0.794 Q0.616 1.142 1.416 0.948" stroke="hsl(0.0,100%,35%)" stroke-width="0.00051"></path>
<path d="M1.447 0.759 Q1.635 0.779 1.715 0.692" stroke="hsl(0.0,100%,35%)" stroke-width="0.02023"></path>
<path d="M1.447 0.759 Q0.872 0.456 0.153 0.669" stroke="hsl(0.0,100%,35%)" stroke-width="0.02100"></path>
<path d="M1.447 0.759 Q1.161 0.507 0.606 0.591" stroke="hsl(0.0,100%,35%)" stroke-width="0.00077"></path>
<path d="M1.447 0.759 Q1.003 0.570 0.536 0.745" stroke="hsl(0.0,100%,35%)" stroke-width="0.00128"></path>
<path d="M1.447 0.759 Q1.061 0.638 0.739 0.799" stroke="hsl(0.0,100%,35%)" stroke-width="0.00026"></path>
<path d="M1.447 0.759 Q1.281 0.847 1.416 0.948" stroke="hsl(0.0,100%,35%)" stroke-width="0.00026"></path>
<path d="M1.939 0.429 Q0.985 0.306 0.536 0.745" stroke="hsl(0.0,100%,35%)" stroke-width="0.00026"></path>
<path d="M1.939 0.429 Q1.629 0.220 1.154 0.326" stroke="hsl(0.0,100%,35%)" stroke-width="0.00077"></path>
<path d="M1.939 0.429 Q1.789 0.295 1.495 0.339" stroke="hsl(0.0,100%,35%)" stroke-width="0.00026"></path>
<path d="M1.939 0.429 Q1.107 0.146 0.373 0.490" stroke="hsl(0.0,100%,35%)" stroke-width="0.00026"></path>
<path d="M0.426 0.465 Q0.889 0.836 1.715 0.692" stroke="hsl(0.0,100%,35%)" stroke-width="0.01050"></path>
<path d="M0.426 0.465 Q0.126 0.513 0.153 0.669" stroke="hsl(0.0,100%,35%)" stroke-width="0.01203"></path>
<path d="M0.426 0.465 Q0.535 0.904 1.416 0.948" stroke="hsl(0.0,100%,35%)" stroke-width="0.00026"></path>
<path d="M1.737 0.447 Q0.767 0.241 0.153 0.669" stroke="hsl(0.0,100%,35%)" stroke-width="0.00026"></path>
<path d="M1.737 0.447 Q1.543 0.270 1.154 0.326" stroke="hsl(0.0,100%,35%)" stroke-width="0.00128"></path>
<path d="M1.737 0.447 Q1.853 0.478 1.939 0.429" stroke="hsl(0.0,100%,35%)" stroke-width="0.00128"></path>
<path d="M0.912 0.805 Q0.773 0.700 0.536 0.745" stroke="hsl(0.0,100%,35%)" stroke-width="0.00026"></path>
<path d="M0.912 0.805 Q1.050 0.977 1.416 0.948" stroke="hsl(0.0,100%,35%)" stroke-width="0.00026"></path>
<path d="M0.912 0.805 Q0.641 0.586 0.153 0.669" stroke="hsl(0.0,100%,35%)" stroke-width="0.00026"></path>
<path d="M0.912 0.805 Q0.930 0.637 0.606 0.591" stroke="hsl(0.0,100%,35%)" stroke-width="0.00026"></path>
<path d="M0.402 0.396 Q0.058 0.483 0.153 0.669" stroke="hsl(0.0,100%,35%)" stroke-width="0.00102"></path>
<path d="M0.402 0.396 Q0.312 0.437 0.373 0.490" stroke="hsl(0.0,100%,35%)" stroke-width="0.00026"></path>
<path d="M0.402 0.396 Q0.834 0.511 1.154 0.326" stroke="hsl(0.0,100%,35%)" stroke-width="0.00026"></path>
<path d="M0.493 0.461 Q0.919 0.821 1.715 0.692" stroke="hsl(0.0,100%,35%)" stroke-width="0.00026"></path>
<path d="M0.493 0.461 Q0.494 0.644 0.851 0.684" stroke="hsl(0.0,100%,35%)" stroke-width="0.00026"></path>
<path d="M0.493 0.461 Q0.007 0.565 0.104 0.825" stroke="hsl(0.0,100%,35%)" stroke-width="0.00026"></path>
<path d="M0.493 0.461 Q0.156 0.497 0.153 0.669" stroke="hsl(0.0,100%,35%)" stroke-width="0.00026"></path>
<path d="M0.493 0.461 Q0.287 0.611 0.536 0.745" stroke="hsl(0.0,100%,35%)" stroke-width="0.00026"></path>
<path d="M0.772 0.939 Q0.809 0.795 0.536 0.745" stroke="hsl(0.0,100%,35%)" stroke-width="0.00102"></path>
<path d="M0.772 0.939 Q0.932 0.635 0.373 0.490" stroke="hsl(0.0,100%,35%)" stroke-width="0.00051"></path>
<path d="M0.772 0.939 Q0.529 0.749 0.104 0.825" stroke="hsl(0.0,100%,35%)" stroke-width="0.00026"></path>
<path d="M0.772 0.939 Q1.087 1.072 1.416 0.948" stroke="hsl(0.0,100%,35%)" stroke-width="0.00051"></path>
<path d="M1.478 0.605 Q0.764 0.372 0.153 0.669" stroke="hsl(0.0,100%,35%)" stroke-width="0.00026"></path>
<path d="M1.478 0.605 Q1.603 0.612 1.644 0.553" stroke="hsl(0.0,100%,35%)" stroke-width="0.00026"></path>
<path d="M1.478 0.605 Q1.173 0.764 1.416 0.948" stroke="hsl(0.0,100%,35%)" stroke-width="0.00026"></path>
<path d="M0.449 0.471 Q0.142 0.511 0.153 0.669" stroke="hsl(0.0,100%,35%)" stroke-width="0.00102"></path>
<path d="M0.449 0.471 Q0.273 0.626 0.536 0.745" stroke="hsl(0.0,100%,35%)" stroke-width="0.00230"></path>
<path d="M0.449 0.471 Q0.401 0.869 1.167 0.979" stroke="hsl(0.0,100%,35%)" stroke-width="0.00026"></path>
<path d="M0.449 0.471 Q0.551 0.903 1.416 0.948" stroke="hsl(0.0,100%,35%)" stroke-width="0.00026"></path>
<path d="M1.125 0.923 Q1.251 0.993 1.416 0.948" stroke="hsl(0.0,100%,35%)" stroke-width="0.00102"></path>
<path d="M1.125 0.923 Q1.894 0.549 1.333 0.092" stroke="hsl(0.0,100%,35%)" stroke-width="0.00026"></path>
<path d="M1.125 0.923 Q0.842 0.602 0.153 0.669" stroke="hsl(0.0,100%,35%)" stroke-width="0.00051"></path>
<path d="M1.125 0.923 Q0.973 0.716 0.536 0.745" stroke="hsl(0.0,100%,35%)" stroke-width="0.00026"></path>
<path d="M0.683 0.592 Q0.487 0.639 0.536 0.745" stroke="hsl(0.0,100%,35%)" stroke-width="0.00205"></path>
<path d="M0.683 0.592 Q0.355 0.524 0.153 0.669" stroke="hsl(0.0,100%,35%)" stroke-width="0.00077"></path>
<path d="M0.683 0.592 Q0.645 0.576 0.606 0.591" stroke="hsl(0.0,100%,35%)" stroke-width="0.00026"></path>
<path d="M0.397 1.263 Q0.601 0.986 0.104 0.825" stroke="hsl(0.0,100%,35%)" stroke-width="0.00077"></path>
<path d="M0.397 1.263 Q1.525 0.946 1.154 0.326" stroke="hsl(0.0,100%,35%)" stroke-width="0.00051"></path>
<path d="M0.397 1.263 Q1.159 1.309 1.416 0.948" stroke="hsl(0.0,100%,35%)" stroke-width="0.00051"></path>
<path d="M0.397 1.263 Q0.881 1.032 0.536 0.745" stroke="hsl(0.0,100%,35%)" stroke-width="0.00026"></path>
<path d="M0.729 0.866 Q0.598 0.653 0.153 0.669" stroke="hsl(0.0,100%,35%)" stroke-width="0.00256"></path>
<path d="M0.729 0.866 Q0.730 0.767 0.536 0.745" stroke="hsl(0.0,100%,35%)" stroke-width="0.00230"></path>
<path d="M0.729 0.866 Q0.788 0.835 0.739 0.799" stroke="hsl(0.0,100%,35%)" stroke-width="0.00026"></path>
<path d="M0.729 0.866 Q1.007 1.044 1.416 0.948" stroke="hsl(0.0,100%,35%)" stroke-width="0.00051"></path>
<path d="M0.729 0.866 Q1.534 0.756 1.495 0.339" stroke="hsl(0.0,100%,35%)" stroke-width="0.00026"></path>
<path d="M0.729 0.866 Q1.374 0.681 1.154 0.326" stroke="hsl(0.0,100%,35%)" stroke-width="0.00026"></path>
<path d="M0.729 0.866 Q0.887 0.704 0.606 0.591" stroke="hsl(0.0,100%,35%)" stroke-width="0.00026"></path>
<path d="M1.143 0.781 Q0.737 0.527 0.153 0.669" stroke="hsl(0.0,100%,35%)" stroke-width="0.00307"></path>
<path d="M1.143 0.781 Q1.147 0.919 1.416 0.948" stroke="hsl(0.0,100%,35%)" stroke-width="0.00205"></path>
<path d="M1.143 0.781 Q0.869 0.642 0.536 0.745" stroke="hsl(0.0,100%,35%)" stroke-width="0.00102"></path>
<path d="M1.143 0.781 Q0.991 0.481 0.373 0.490" stroke="hsl(0.0,100%,35%)" stroke-width="0.00077"></path>
<path d="M1.143 0.781 Q1.513 0.556 1.154 0.326" stroke="hsl(0.0,100%,35%)" stroke-width="0.00026"></path>
<path d="M1.143 0.781 Q1.500 0.851 1.715 0.692" stroke="hsl(0.0,100%,35%)" stroke-width="0.00026"></path>
<path d="M0.675 0.485 Q0.266 0.473 0.153 0.669" stroke="hsl(0.0,100%,35%)" stroke-width="0.00051"></path>
<path d="M0.675 0.485 Q0.397 0.587 0.536 0.745" stroke="hsl(0.0,100%,35%)" stroke-width="0.00077"></path>
<path d="M0.675 0.485 Q0.455 0.655 0.739 0.799" stroke="hsl(0.0,100%,35%)" stroke-width="0.00026"></path>
<path d="M1.099 0.123 Q0.597 0.599 1.416 0.948" stroke="hsl(0.0,100%,35%)" stroke-width="0.00026"></path>
<path d="M1.099 0.123 Q1.240 0.154 1.333 0.092" stroke="hsl(0.0,100%,35%)" stroke-width="0.00026"></path>
<path d="M1.099 0.123 Q0.188 0.207 0.153 0.669" stroke="hsl(0.0,100%,35%)" stroke-width="0.00026"></path>
<path d="M0.785 0.821 Q0.722 0.733 0.536 0.745" stroke="hsl(0.0,100%,35%)" stroke-width="0.00026"></path>
<path d="M0.785 0.821 Q0.590 0.619 0.153 0.669" stroke="hsl(0.0,100%,35%)" stroke-width="0.00026"></path>
<path d="M0.785 0.821 Q0.999 1.011 1.416 0.948" stroke="hsl(0.0,100%,35%)" stroke-width="0.00026"></path>
</g>
<text x="0.660" y="0.808" font-size="0.011835" fill="hsl(0.0,100%,20%)">abdolrashidi</text>
<text x="0.536" y="0.705" font-size="0.080595" fill="hsl(0.0,100%,20%)">syoussefi</text>
<text x="0.153" y="0.619" font-size="0.100857" fill="hsl(0.0,100%,20%)">jmadill</text>
<text x="0.851" y="0.662" font-size="0.043080" fill="hsl(0.0,100%,20%)">cclao</text>
<text x="1.154" y="0.311" font-size="0.029090" fill="hsl(0.0,100%,20%)">kbr</text>
<text x="1.519" y="0.502" font-size="0.008369" fill="hsl(0.0,100%,20%)">adkushwa</text>
<text x="1.644" y="0.550" font-size="0.005917" fill="hsl(0.0,100%,20%)">rafael.cintron</text>
<text x="1.416" y="0.930" font-size="0.035340" fill="hsl(0.0,100%,20%)">geofflang</text>
<text x="0.171" y="0.476" font-size="0.006833" fill="hsl(0.0,100%,20%)">amy.liu</text>
<text x="0.606" y="0.560" font-size="0.061827" fill="hsl(0.0,100%,20%)">timvp</text>
<text x="0.306" y="0.408" font-size="0.009961" fill="hsl(0.0,100%,20%)">antonio.caggiano</text>
<text x="0.739" y="0.783" font-size="0.032049" fill="hsl(0.0,100%,20%)">m.maiya</text>
<text x="0.503" y="0.423" font-size="0.002416" fill="hsl(0.0,100%,20%)">jvigilsamsung</text>
<text x="0.463" y="0.464" font-size="0.002416" fill="hsl(0.0,100%,20%)">constantine.shablya</text>
<text x="0.047" y="0.343" font-size="0.028787" fill="hsl(0.0,100%,20%)">ianelliott</text>
<text x="0.530" y="0.494" font-size="0.018713" fill="hsl(0.0,100%,20%)">b.schade</text>
<text x="0.921" y="1.317" font-size="0.004184" fill="hsl(0.0,100%,20%)">capn</text>
<text x="1.133" y="0.605" font-size="0.018868" fill="hsl(0.0,100%,20%)">lfy</text>
<text x="1.715" y="0.663" font-size="0.058580" fill="hsl(0.0,100%,20%)">cnorthrop</text>
<text x="0.526" y="0.509" font-size="0.009039" fill="hsl(0.0,100%,20%)">cheryl.wei</text>
<text x="0.641" y="0.479" font-size="0.004184" fill="hsl(0.0,100%,20%)">sunny.sun</text>
<text x="0.209" y="0.828" font-size="0.008369" fill="hsl(0.0,100%,20%)">romanl</text>
<text x="0.104" y="0.807" font-size="0.036397" fill="hsl(0.0,100%,20%)">ynovikov</text>
<text x="1.640" y="0.070" font-size="0.003416" fill="hsl(0.0,100%,20%)">bajones</text>
<text x="1.928" y="0.813" font-size="0.002416" fill="hsl(0.0,100%,20%)">paulthomson</text>
<text x="0.500" y="0.451" font-size="0.005402" fill="hsl(0.0,100%,20%)">cwallez</text>
<text x="1.315" y="0.779" font-size="0.002416" fill="hsl(0.0,100%,20%)">zmo</text>
<text x="1.213" y="0.799" font-size="0.019774" fill="hsl(0.0,100%,20%)">penghuang</text>
<text x="1.391" y="0.645" font-size="0.002416" fill="hsl(0.0,100%,20%)">junov</text>
<text x="0.373" y="0.476" font-size="0.027965" fill="hsl(0.0,100%,20%)">jonahr</text>
<text x="0.133" y="0.781" font-size="0.021876" fill="hsl(0.0,100%,20%)">lexa.knyazev</text>
<text x="1.222" y="1.012" font-size="0.002416" fill="hsl(0.0,100%,20%)">vikassoni</text>
<text x="0.253" y="0.764" font-size="0.039548" fill="hsl(0.0,100%,20%)">gert.wollny</text>
<text x="1.488" y="0.208" font-size="0.024398" fill="hsl(0.0,100%,20%)">gman</text>
<text x="1.495" y="0.329" font-size="0.020781" fill="hsl(0.0,100%,20%)">kpiddington</text>
<text x="1.002" y="0.812" font-size="0.006392" fill="hsl(0.0,100%,20%)">hailinzhang</text>
<text x="0.967" y="0.955" font-size="0.004832" fill="hsl(0.0,100%,20%)">hans</text>
<text x="1.167" y="0.977" font-size="0.005402" fill="hsl(0.0,100%,20%)">thakis</text>
<text x="0.807" y="0.739" font-size="0.009961" fill="hsl(0.0,100%,20%)">natsu</text>
<text x="0.412" y="0.528" font-size="0.016024" fill="hsl(0.0,100%,20%)">yuxinhu</text>
<text x="0.421" y="0.252" font-size="0.002416" fill="hsl(0.0,100%,20%)">vantablack</text>
<text x="0.070" y="0.264" font-size="0.008012" fill="hsl(0.0,100%,20%)">mark</text>
<text x="0.185" y="0.834" font-size="0.011586" fill="hsl(0.0,100%,20%)">j.vigil</text>
<text x="0.062" y="0.791" font-size="0.006833" fill="hsl(0.0,100%,20%)">jgilbert</text>
<text x="1.447" y="0.743" font-size="0.031683" fill="hsl(0.0,100%,20%)">lubosz.sarnecki</text>
<text x="0.392" y="0.445" font-size="0.004184" fill="hsl(0.0,100%,20%)">bsheedy</text>
<text x="0.343" y="0.428" font-size="0.002416" fill="hsl(0.0,100%,20%)">brucedawson</text>
<text x="0.016" y="0.524" font-size="0.003416" fill="hsl(0.0,100%,20%)">tandrii</text>
<text x="0.419" y="0.458" font-size="0.002416" fill="hsl(0.0,100%,20%)">dpranke</text>
<text x="0.816" y="0.852" font-size="0.004184" fill="hsl(0.0,100%,20%)">nicolascapens</text>
<text x="0.482" y="0.335" font-size="0.002416" fill="hsl(0.0,100%,20%)">doughorn</text>
<text x="1.939" y="0.425" font-size="0.008012" fill="hsl(0.0,100%,20%)">johncunningham</text>
<text x="0.426" y="0.454" font-size="0.022790" fill="hsl(0.0,100%,20%)">jplate</text>
<text x="1.742" y="0.173" font-size="0.002416" fill="hsl(0.0,100%,20%)">ccameron</text>
<text x="1.737" y="0.443" font-size="0.008012" fill="hsl(0.0,100%,20%)">kkinnunen</text>
<text x="0.269" y="0.939" font-size="0.005402" fill="hsl(0.0,100%,20%)">le.hoang.q</text>
<text x="0.912" y="0.803" font-size="0.004832" fill="hsl(0.0,100%,20%)">kyle.griffiths</text>
<text x="0.402" y="0.393" font-size="0.005917" fill="hsl(0.0,100%,20%)">lehoangq</text>
<text x="0.493" y="0.458" font-size="0.005402" fill="hsl(0.0,100%,20%)">lunpujun</text>
<text x="0.772" y="0.935" font-size="0.007247" fill="hsl(0.0,100%,20%)">msisov</text>
<text x="1.121" y="0.671" font-size="0.002416" fill="hsl(0.0,100%,20%)">zzyiwei</text>
<text x="1.478" y="0.603" font-size="0.004184" fill="hsl(0.0,100%,20%)">patrto</text>
<text x="0.449" y="0.466" font-size="0.009356" fill="hsl(0.0,100%,20%)">pkasting</text>
<text x="1.125" y="0.919" font-size="0.006833" fill="hsl(0.0,100%,20%)">senorblanco</text>
<text x="1.333" y="0.090" font-size="0.003416" fill="hsl(0.0,100%,20%)">jiajia.qin</text>
<text x="0.683" y="0.587" font-size="0.008369" fill="hsl(0.0,100%,20%)">sergeyu</text>
<text x="0.397" y="1.260" font-size="0.006833" fill="hsl(0.0,100%,20%)">shrekshao</text>
<text x="1.162" y="-1.752" font-size="0.004184" fill="hsl(0.0,100%,20%)">srisser</text>
<text x="0.729" y="0.860" font-size="0.012079" fill="hsl(0.0,100%,20%)">steven</text>
<text x="1.143" y="0.774" font-size="0.014086" fill="hsl(0.0,100%,20%)">sugoi</text>
<text x="0.943" y="0.857" font-size="0.003416" fill="hsl(0.0,100%,20%)">cstout</text>
<text x="1.027" y="0.891" font-size="0.002416" fill="hsl(0.0,100%,20%)">borenet</text>
<text x="0.734" y="0.423" font-size="0.003416" fill="hsl(0.0,100%,20%)">reveman</text>
<text x="0.793" y="0.857" font-size="0.002416" fill="hsl(0.0,100%,20%)">jie.a.chen</text>
<text x="0.675" y="0.482" font-size="0.005917" fill="hsl(0.0,100%,20%)">xiaoxuan.liu</text>
<text x="1.099" y="0.121" font-size="0.004184" fill="hsl(0.0,100%,20%)">xinghua.cao</text>
<text x="0.785" y="0.819" font-size="0.004184" fill="hsl(0.0,100%,20%)">yang.gu</text>
</svg>
