<svg width="4000" height="2000" viewBox="-0.025 -0.025 2.05 1.05" xmlns="http://www.w3.org/2000/svg">
  <style>
    path {
      fill: none;
      stroke-linecap: round;
      stroke-opacity: 0.4;
    }

    text {
      text-anchor: middle;
      alignment-baseline: hanging;
    }
  </style>
  <g opacity="0.4">
<path d="M1.206 0.680 Q1.208 0.737 1.320 0.748" stroke="hsl(0.0,100%,35%)" stroke-width="0.00282"></path>
<path d="M1.206 0.680 Q1.097 0.476 0.675 0.484" stroke="hsl(0.0,100%,35%)" stroke-width="0.00205"></path>
<path d="M1.206 0.680 Q1.300 0.486 0.941 0.397" stroke="hsl(0.0,100%,35%)" stroke-width="0.00051"></path>
<path d="M1.206 0.680 Q1.728 0.594 1.676 0.321" stroke="hsl(0.0,100%,35%)" stroke-width="0.00026"></path>
<path d="M1.320 0.748 Q1.158 0.539 0.714 0.572" stroke="hsl(0.0,100%,35%)" stroke-width="0.00051"></path>
<path d="M1.320 0.748 Q0.851 0.479 0.223 0.648" stroke="hsl(0.0,100%,35%)" stroke-width="0.00128"></path>
<path d="M1.320 0.748 Q1.209 0.487 0.675 0.484" stroke="hsl(0.0,100%,35%)" stroke-width="0.06476"></path>
<path d="M1.320 0.748 Q1.317 0.691 1.206 0.680" stroke="hsl(0.0,100%,35%)" stroke-width="0.00051"></path>
<path d="M1.320 0.748 Q1.418 0.514 0.983 0.414" stroke="hsl(0.0,100%,35%)" stroke-width="0.00102"></path>
<path d="M1.320 0.748 Q1.207 0.614 0.922 0.640" stroke="hsl(0.0,100%,35%)" stroke-width="0.00026"></path>
<path d="M1.320 0.748 Q1.069 0.788 1.093 0.919" stroke="hsl(0.0,100%,35%)" stroke-width="0.04633"></path>
<path d="M1.320 0.748 Q1.374 0.601 1.100 0.542" stroke="hsl(0.0,100%,35%)" stroke-width="0.00461"></path>
<path d="M1.320 0.748 Q1.411 0.497 0.941 0.397" stroke="hsl(0.0,100%,35%)" stroke-width="0.00819"></path>
<path d="M1.320 0.748 Q1.668 0.583 1.423 0.377" stroke="hsl(0.0,100%,35%)" stroke-width="0.00026"></path>
<path d="M1.320 0.748 Q1.219 0.558 0.827 0.566" stroke="hsl(0.0,100%,35%)" stroke-width="0.00333"></path>
<path d="M1.320 0.748 Q1.042 0.527 0.550 0.614" stroke="hsl(0.0,100%,35%)" stroke-width="0.00230"></path>
<path d="M1.320 0.748 Q1.518 0.768 1.601 0.676" stroke="hsl(0.0,100%,35%)" stroke-width="0.00051"></path>
<path d="M1.320 0.748 Q1.063 0.465 0.454 0.528" stroke="hsl(0.0,100%,35%)" stroke-width="0.00282"></path>
<path d="M1.320 0.748 Q1.398 0.565 1.057 0.486" stroke="hsl(0.0,100%,35%)" stroke-width="0.00026"></path>
<path d="M1.320 0.748 Q1.094 0.588 0.732 0.663" stroke="hsl(0.0,100%,35%)" stroke-width="0.00077"></path>
<path d="M1.320 0.748 Q1.524 0.607 1.293 0.476" stroke="hsl(0.0,100%,35%)" stroke-width="0.00026"></path>
<path d="M1.320 0.748 Q0.716 0.537 0.171 0.785" stroke="hsl(0.0,100%,35%)" stroke-width="0.00026"></path>
<path d="M1.320 0.748 Q1.533 0.880 1.838 0.805" stroke="hsl(0.0,100%,35%)" stroke-width="0.00026"></path>
<path d="M1.320 0.748 Q1.614 0.721 1.626 0.572" stroke="hsl(0.0,100%,35%)" stroke-width="0.00026"></path>
<path d="M1.320 0.748 Q1.840 0.606 1.676 0.321" stroke="hsl(0.0,100%,35%)" stroke-width="0.00128"></path>
<path d="M1.320 0.748 Q1.454 0.459 0.920 0.331" stroke="hsl(0.0,100%,35%)" stroke-width="0.00026"></path>
<path d="M1.320 0.748 Q1.550 0.660 1.429 0.528" stroke="hsl(0.0,100%,35%)" stroke-width="0.00051"></path>
<path d="M1.320 0.748 Q1.539 0.753 1.596 0.647" stroke="hsl(0.0,100%,35%)" stroke-width="0.00026"></path>
<path d="M0.675 0.484 Q0.786 0.745 1.320 0.748" stroke="hsl(0.0,100%,35%)" stroke-width="0.02995"></path>
<path d="M0.675 0.484 Q0.685 0.555 0.827 0.566" stroke="hsl(0.0,100%,35%)" stroke-width="0.02662"></path>
<path d="M0.675 0.484 Q0.877 0.494 0.941 0.397" stroke="hsl(0.0,100%,35%)" stroke-width="0.00384"></path>
<path d="M0.675 0.484 Q0.673 0.611 0.922 0.640" stroke="hsl(0.0,100%,35%)" stroke-width="0.00384"></path>
<path d="M0.675 0.484 Q0.508 0.524 0.550 0.614" stroke="hsl(0.0,100%,35%)" stroke-width="0.00691"></path>
<path d="M0.675 0.484 Q0.317 0.475 0.223 0.648" stroke="hsl(0.0,100%,35%)" stroke-width="0.03097"></path>
<path d="M0.675 0.484 Q0.535 0.785 1.093 0.919" stroke="hsl(0.0,100%,35%)" stroke-width="0.03277"></path>
<path d="M0.675 0.484 Q0.990 0.603 1.293 0.476" stroke="hsl(0.0,100%,35%)" stroke-width="0.00026"></path>
<path d="M0.675 0.484 Q0.797 0.375 0.613 0.292" stroke="hsl(0.0,100%,35%)" stroke-width="0.00026"></path>
<path d="M0.675 0.484 Q0.863 0.561 1.057 0.486" stroke="hsl(0.0,100%,35%)" stroke-width="0.00051"></path>
<path d="M0.675 0.484 Q0.529 0.462 0.454 0.528" stroke="hsl(0.0,100%,35%)" stroke-width="0.00717"></path>
<path d="M0.675 0.484 Q0.903 0.437 0.861 0.315" stroke="hsl(0.0,100%,35%)" stroke-width="0.00026"></path>
<path d="M0.675 0.484 Q1.305 0.602 1.676 0.321" stroke="hsl(0.0,100%,35%)" stroke-width="0.00026"></path>
<path d="M0.675 0.484 Q0.926 0.396 0.810 0.254" stroke="hsl(0.0,100%,35%)" stroke-width="0.00077"></path>
<path d="M0.675 0.484 Q0.840 0.598 1.100 0.542" stroke="hsl(0.0,100%,35%)" stroke-width="0.00102"></path>
<path d="M0.675 0.484 Q0.713 0.288 0.340 0.226" stroke="hsl(0.0,100%,35%)" stroke-width="0.00026"></path>
<path d="M0.675 0.484 Q0.568 0.340 0.264 0.360" stroke="hsl(0.0,100%,35%)" stroke-width="0.00154"></path>
<path d="M0.675 0.484 Q0.361 0.556 0.433 0.725" stroke="hsl(0.0,100%,35%)" stroke-width="0.00026"></path>
<path d="M0.675 0.484 Q0.935 0.454 0.934 0.320" stroke="hsl(0.0,100%,35%)" stroke-width="0.00026"></path>
<path d="M0.675 0.484 Q1.134 0.580 1.423 0.377" stroke="hsl(0.0,100%,35%)" stroke-width="0.00026"></path>
<path d="M0.675 0.484 Q0.884 0.511 0.983 0.414" stroke="hsl(0.0,100%,35%)" stroke-width="0.00026"></path>
<path d="M0.675 0.484 Q0.445 0.667 0.753 0.820" stroke="hsl(0.0,100%,35%)" stroke-width="0.00026"></path>
<path d="M0.941 0.397 Q0.850 0.648 1.320 0.748" stroke="hsl(0.0,100%,35%)" stroke-width="0.01638"></path>
<path d="M0.941 0.397 Q0.904 0.502 1.100 0.542" stroke="hsl(0.0,100%,35%)" stroke-width="0.00717"></path>
<path d="M0.941 0.397 Q0.739 0.387 0.675 0.484" stroke="hsl(0.0,100%,35%)" stroke-width="0.02201"></path>
<path d="M0.941 0.397 Q0.749 0.458 0.827 0.566" stroke="hsl(0.0,100%,35%)" stroke-width="0.00026"></path>
<path d="M0.941 0.397 Q0.688 0.439 0.714 0.572" stroke="hsl(0.0,100%,35%)" stroke-width="0.00026"></path>
<path d="M0.941 0.397 Q0.599 0.688 1.093 0.919" stroke="hsl(0.0,100%,35%)" stroke-width="0.01229"></path>
<path d="M0.941 0.397 Q0.927 0.465 1.057 0.486" stroke="hsl(0.0,100%,35%)" stroke-width="0.00026"></path>
<path d="M0.941 0.397 Q0.948 0.414 0.983 0.414" stroke="hsl(0.0,100%,35%)" stroke-width="0.00026"></path>
<path d="M0.941 0.397 Q0.381 0.379 0.223 0.648" stroke="hsl(0.0,100%,35%)" stroke-width="0.00179"></path>
<path d="M0.941 0.397 Q0.572 0.428 0.550 0.614" stroke="hsl(0.0,100%,35%)" stroke-width="0.00077"></path>
<path d="M1.676 0.321 Q1.156 0.463 1.320 0.748" stroke="hsl(180.0,100%,35%)" stroke-width="0.00307"></path>
<path d="M1.676 0.321 Q1.585 0.375 1.670 0.431" stroke="hsl(180.0,100%,35%)" stroke-width="0.00026"></path>
<path d="M1.676 0.321 Q1.055 0.273 0.827 0.566" stroke="hsl(180.0,100%,35%)" stroke-width="0.00154"></path>
<path d="M1.676 0.321 Q1.045 0.202 0.675 0.484" stroke="hsl(180.0,100%,35%)" stroke-width="0.00230"></path>
<path d="M1.676 0.321 Q1.569 0.296 1.498 0.342" stroke="hsl(180.0,100%,35%)" stroke-width="0.00026"></path>
<path d="M1.676 0.321 Q0.906 0.503 1.093 0.919" stroke="hsl(180.0,100%,35%)" stroke-width="0.00026"></path>
<path d="M1.676 0.321 Q0.899 0.180 0.454 0.528" stroke="hsl(180.0,100%,35%)" stroke-width="0.00051"></path>
<path d="M1.676 0.321 Q1.508 0.383 1.592 0.478" stroke="hsl(180.0,100%,35%)" stroke-width="0.00026"></path>
<path d="M1.676 0.321 Q0.688 0.194 0.223 0.648" stroke="hsl(180.0,100%,35%)" stroke-width="0.00051"></path>
<path d="M1.676 0.321 Q0.878 0.242 0.550 0.614" stroke="hsl(180.0,100%,35%)" stroke-width="0.00026"></path>
<path d="M0.862 0.970 Q0.823 0.910 0.697 0.916" stroke="hsl(180.0,100%,35%)" stroke-width="0.00128"></path>
<path d="M0.862 0.970 Q1.158 0.689 0.675 0.484" stroke="hsl(180.0,100%,35%)" stroke-width="0.00128"></path>
<path d="M0.862 0.970 Q0.991 0.730 0.550 0.614" stroke="hsl(180.0,100%,35%)" stroke-width="0.00051"></path>
<path d="M0.550 0.614 Q0.466 0.622 0.461 0.664" stroke="hsl(180.0,100%,35%)" stroke-width="0.00026"></path>
<path d="M0.550 0.614 Q0.828 0.835 1.320 0.748" stroke="hsl(180.0,100%,35%)" stroke-width="0.00230"></path>
<path d="M0.550 0.614 Q0.717 0.574 0.675 0.484" stroke="hsl(180.0,100%,35%)" stroke-width="0.00640"></path>
<path d="M0.550 0.614 Q1.032 0.694 1.293 0.476" stroke="hsl(180.0,100%,35%)" stroke-width="0.00179"></path>
<path d="M0.550 0.614 Q1.348 0.693 1.676 0.321" stroke="hsl(180.0,100%,35%)" stroke-width="0.00128"></path>
<path d="M0.550 0.614 Q0.435 0.641 0.462 0.703" stroke="hsl(180.0,100%,35%)" stroke-width="0.00026"></path>
<path d="M0.550 0.614 Q0.578 0.875 1.093 0.919" stroke="hsl(180.0,100%,35%)" stroke-width="0.00102"></path>
<path d="M0.550 0.614 Q1.122 0.808 1.626 0.572" stroke="hsl(180.0,100%,35%)" stroke-width="0.00026"></path>
<path d="M0.550 0.614 Q0.571 0.552 0.454 0.528" stroke="hsl(180.0,100%,35%)" stroke-width="0.00179"></path>
<path d="M0.550 0.614 Q0.840 0.466 0.613 0.292" stroke="hsl(180.0,100%,35%)" stroke-width="0.00026"></path>
<path d="M0.550 0.614 Q0.927 0.601 0.983 0.414" stroke="hsl(180.0,100%,35%)" stroke-width="0.00026"></path>
<path d="M0.550 0.614 Q0.682 0.586 0.656 0.516" stroke="hsl(180.0,100%,35%)" stroke-width="0.00026"></path>
<path d="M0.550 0.614 Q0.920 0.584 0.941 0.397" stroke="hsl(180.0,100%,35%)" stroke-width="0.00051"></path>
<path d="M0.550 0.614 Q0.727 0.645 0.827 0.566" stroke="hsl(180.0,100%,35%)" stroke-width="0.00026"></path>
<path d="M0.600 0.255 Q0.455 0.384 0.675 0.484" stroke="hsl(0.0,100%,35%)" stroke-width="0.00102"></path>
<path d="M0.600 0.255 Q0.566 0.646 1.320 0.748" stroke="hsl(0.0,100%,35%)" stroke-width="0.00077"></path>
<path d="M0.600 0.255 Q0.315 0.686 1.093 0.919" stroke="hsl(0.0,100%,35%)" stroke-width="0.00026"></path>
<path d="M1.093 0.919 Q1.232 0.618 0.675 0.484" stroke="hsl(0.0,100%,35%)" stroke-width="0.01408"></path>
<path d="M1.093 0.919 Q1.343 0.879 1.320 0.748" stroke="hsl(0.0,100%,35%)" stroke-width="0.00870"></path>
<path d="M1.093 0.919 Q0.875 0.610 0.223 0.648" stroke="hsl(0.0,100%,35%)" stroke-width="0.00717"></path>
<path d="M1.093 0.919 Q1.398 0.732 1.100 0.542" stroke="hsl(0.0,100%,35%)" stroke-width="0.00179"></path>
<path d="M1.093 0.919 Q1.341 0.822 1.206 0.680" stroke="hsl(0.0,100%,35%)" stroke-width="0.00026"></path>
<path d="M1.093 0.919 Q1.435 0.628 0.941 0.397" stroke="hsl(0.0,100%,35%)" stroke-width="0.00358"></path>
<path d="M1.093 0.919 Q1.634 0.807 1.534 0.518" stroke="hsl(0.0,100%,35%)" stroke-width="0.00051"></path>
<path d="M1.093 0.919 Q1.065 0.658 0.550 0.614" stroke="hsl(0.0,100%,35%)" stroke-width="0.00384"></path>
<path d="M1.093 0.919 Q1.243 0.689 0.827 0.566" stroke="hsl(0.0,100%,35%)" stroke-width="0.00077"></path>
<path d="M1.362 0.863 Q1.322 0.536 0.675 0.484" stroke="hsl(0.0,100%,35%)" stroke-width="0.00205"></path>
<path d="M1.362 0.863 Q1.433 0.797 1.320 0.748" stroke="hsl(0.0,100%,35%)" stroke-width="0.00307"></path>
<path d="M1.362 0.863 Q1.532 0.563 0.983 0.414" stroke="hsl(0.0,100%,35%)" stroke-width="0.00026"></path>
<path d="M1.362 0.863 Q1.632 0.817 1.601 0.676" stroke="hsl(0.0,100%,35%)" stroke-width="0.00026"></path>
<path d="M1.362 0.863 Q1.343 0.902 1.416 0.920" stroke="hsl(0.0,100%,35%)" stroke-width="0.00026"></path>
<path d="M1.362 0.863 Q1.291 0.621 0.802 0.603" stroke="hsl(0.0,100%,35%)" stroke-width="0.00026"></path>
<path d="M1.362 0.863 Q1.488 0.650 1.100 0.542" stroke="hsl(0.0,100%,35%)" stroke-width="0.00026"></path>
<path d="M0.983 0.414 Q0.884 0.648 1.320 0.748" stroke="hsl(0.0,100%,35%)" stroke-width="0.01843"></path>
<path d="M0.983 0.414 Q0.773 0.387 0.675 0.484" stroke="hsl(0.0,100%,35%)" stroke-width="0.01843"></path>
<path d="M0.983 0.414 Q0.976 0.397 0.941 0.397" stroke="hsl(0.0,100%,35%)" stroke-width="0.00051"></path>
<path d="M0.983 0.414 Q0.634 0.689 1.093 0.919" stroke="hsl(0.0,100%,35%)" stroke-width="0.00154"></path>
<path d="M0.983 0.414 Q0.606 0.428 0.550 0.614" stroke="hsl(0.0,100%,35%)" stroke-width="0.00026"></path>
<path d="M0.802 0.603 Q0.874 0.845 1.362 0.863" stroke="hsl(0.0,100%,35%)" stroke-width="0.00026"></path>
<path d="M0.802 0.603 Q0.999 0.632 1.100 0.542" stroke="hsl(0.0,100%,35%)" stroke-width="0.00026"></path>
<path d="M0.802 0.603 Q0.834 0.518 0.675 0.484" stroke="hsl(0.0,100%,35%)" stroke-width="0.00051"></path>
<path d="M0.802 0.603 Q0.945 0.779 1.320 0.748" stroke="hsl(0.0,100%,35%)" stroke-width="0.00026"></path>
<path d="M1.100 0.542 Q0.934 0.428 0.675 0.484" stroke="hsl(0.0,100%,35%)" stroke-width="0.00307"></path>
<path d="M1.100 0.542 Q1.043 0.632 1.206 0.680" stroke="hsl(0.0,100%,35%)" stroke-width="0.00026"></path>
<path d="M1.100 0.542 Q1.337 0.617 1.534 0.518" stroke="hsl(0.0,100%,35%)" stroke-width="0.00026"></path>
<path d="M1.100 0.542 Q1.046 0.689 1.320 0.748" stroke="hsl(0.0,100%,35%)" stroke-width="0.00461"></path>
<path d="M1.100 0.542 Q1.137 0.438 0.941 0.397" stroke="hsl(0.0,100%,35%)" stroke-width="0.00051"></path>
<path d="M1.100 0.542 Q1.123 0.506 1.057 0.486" stroke="hsl(0.0,100%,35%)" stroke-width="0.00026"></path>
<path d="M1.100 0.542 Q0.795 0.729 1.093 0.919" stroke="hsl(0.0,100%,35%)" stroke-width="0.00256"></path>
<path d="M1.100 0.542 Q0.933 0.555 0.922 0.640" stroke="hsl(0.0,100%,35%)" stroke-width="0.00026"></path>
<path d="M1.100 0.542 Q0.945 0.499 0.827 0.566" stroke="hsl(0.0,100%,35%)" stroke-width="0.00179"></path>
<path d="M1.100 0.542 Q0.577 0.420 0.223 0.648" stroke="hsl(0.0,100%,35%)" stroke-width="0.00256"></path>
<path d="M1.100 0.542 Q0.768 0.468 0.550 0.614" stroke="hsl(0.0,100%,35%)" stroke-width="0.00077"></path>
<path d="M1.100 0.542 Q0.822 0.515 0.707 0.644" stroke="hsl(0.0,100%,35%)" stroke-width="0.00026"></path>
<path d="M1.100 0.542 Q0.666 0.556 0.598 0.771" stroke="hsl(0.0,100%,35%)" stroke-width="0.00077"></path>
<path d="M1.100 0.542 Q1.565 0.547 1.676 0.321" stroke="hsl(0.0,100%,35%)" stroke-width="0.00026"></path>
<path d="M0.555 0.326 Q0.600 0.690 1.320 0.748" stroke="hsl(0.0,100%,35%)" stroke-width="0.00666"></path>
<path d="M0.555 0.326 Q0.489 0.429 0.675 0.484" stroke="hsl(0.0,100%,35%)" stroke-width="0.00640"></path>
<path d="M0.555 0.326 Q0.349 0.730 1.093 0.919" stroke="hsl(0.0,100%,35%)" stroke-width="0.00205"></path>
<path d="M0.555 0.326 Q0.698 0.456 0.983 0.414" stroke="hsl(0.0,100%,35%)" stroke-width="0.00026"></path>
<path d="M0.837 0.661 Q0.730 0.580 0.550 0.614" stroke="hsl(180.0,100%,35%)" stroke-width="0.00026"></path>
<path d="M0.837 0.661 Q0.897 0.540 0.675 0.484" stroke="hsl(180.0,100%,35%)" stroke-width="0.00026"></path>
<path d="M0.837 0.661 Q1.008 0.801 1.320 0.748" stroke="hsl(180.0,100%,35%)" stroke-width="0.00026"></path>
<path d="M0.827 0.566 Q0.927 0.755 1.320 0.748" stroke="hsl(0.0,100%,35%)" stroke-width="0.00154"></path>
<path d="M0.827 0.566 Q0.701 0.595 0.732 0.663" stroke="hsl(0.0,100%,35%)" stroke-width="0.00051"></path>
<path d="M0.827 0.566 Q0.816 0.494 0.675 0.484" stroke="hsl(0.0,100%,35%)" stroke-width="0.01280"></path>
<path d="M0.827 0.566 Q1.447 0.613 1.676 0.321" stroke="hsl(0.0,100%,35%)" stroke-width="0.00026"></path>
<path d="M0.827 0.566 Q0.677 0.796 1.093 0.919" stroke="hsl(0.0,100%,35%)" stroke-width="0.00026"></path>
<path d="M0.827 0.566 Q0.982 0.609 1.100 0.542" stroke="hsl(0.0,100%,35%)" stroke-width="0.00077"></path>
<path d="M0.827 0.566 Q0.670 0.472 0.454 0.528" stroke="hsl(0.0,100%,35%)" stroke-width="0.00077"></path>
<path d="M0.827 0.566 Q0.323 0.544 0.171 0.785" stroke="hsl(0.0,100%,35%)" stroke-width="0.00026"></path>
<path d="M0.714 0.572 Q0.765 0.520 0.675 0.484" stroke="hsl(0.0,100%,35%)" stroke-width="0.00154"></path>
<path d="M0.714 0.572 Q0.876 0.781 1.320 0.748" stroke="hsl(0.0,100%,35%)" stroke-width="0.00026"></path>
<path d="M0.714 0.572 Q0.598 0.560 0.550 0.614" stroke="hsl(0.0,100%,35%)" stroke-width="0.00051"></path>
<path d="M1.057 0.486 Q1.070 0.419 0.941 0.397" stroke="hsl(0.0,100%,35%)" stroke-width="0.00410"></path>
<path d="M1.057 0.486 Q0.701 0.449 0.550 0.614" stroke="hsl(0.0,100%,35%)" stroke-width="0.00026"></path>
<path d="M1.057 0.486 Q0.511 0.400 0.223 0.648" stroke="hsl(0.0,100%,35%)" stroke-width="0.00026"></path>
<path d="M1.057 0.486 Q0.868 0.409 0.675 0.484" stroke="hsl(0.0,100%,35%)" stroke-width="0.00435"></path>
<path d="M1.057 0.486 Q0.979 0.670 1.320 0.748" stroke="hsl(0.0,100%,35%)" stroke-width="0.00256"></path>
<path d="M1.057 0.486 Q0.728 0.710 1.093 0.919" stroke="hsl(0.0,100%,35%)" stroke-width="0.00154"></path>
<path d="M0.223 0.648 Q0.691 0.917 1.320 0.748" stroke="hsl(0.0,100%,35%)" stroke-width="0.00410"></path>
<path d="M0.223 0.648 Q0.769 0.734 1.057 0.486" stroke="hsl(0.0,100%,35%)" stroke-width="0.00102"></path>
<path d="M0.223 0.648 Q0.580 0.656 0.675 0.484" stroke="hsl(0.0,100%,35%)" stroke-width="0.02253"></path>
<path d="M0.223 0.648 Q0.441 0.958 1.093 0.919" stroke="hsl(0.0,100%,35%)" stroke-width="0.01689"></path>
<path d="M0.223 0.648 Q0.530 0.708 0.714 0.572" stroke="hsl(0.0,100%,35%)" stroke-width="0.00026"></path>
<path d="M0.223 0.648 Q0.746 0.771 1.100 0.542" stroke="hsl(0.0,100%,35%)" stroke-width="0.00051"></path>
<path d="M0.223 0.648 Q0.590 0.727 0.827 0.566" stroke="hsl(0.0,100%,35%)" stroke-width="0.00051"></path>
<path d="M0.223 0.648 Q1.230 0.734 1.620 0.262" stroke="hsl(0.0,100%,35%)" stroke-width="0.00026"></path>
<path d="M0.223 0.648 Q0.790 0.683 0.983 0.414" stroke="hsl(0.0,100%,35%)" stroke-width="0.00051"></path>
<path d="M0.223 0.648 Q0.783 0.666 0.941 0.397" stroke="hsl(0.0,100%,35%)" stroke-width="0.00051"></path>
<path d="M0.223 0.648 Q0.372 0.591 0.295 0.506" stroke="hsl(0.0,100%,35%)" stroke-width="0.00026"></path>
<path d="M1.556 0.836 Q1.600 0.493 0.941 0.397" stroke="hsl(0.0,100%,35%)" stroke-width="0.00026"></path>
<path d="M1.556 0.836 Q1.508 0.745 1.320 0.748" stroke="hsl(0.0,100%,35%)" stroke-width="0.00154"></path>
<path d="M1.556 0.836 Q1.397 0.483 0.675 0.484" stroke="hsl(0.0,100%,35%)" stroke-width="0.00128"></path>
<path d="M1.556 0.836 Q1.802 0.718 1.626 0.572" stroke="hsl(0.0,100%,35%)" stroke-width="0.00026"></path>
<path d="M1.556 0.836 Q1.258 0.785 1.093 0.919" stroke="hsl(0.0,100%,35%)" stroke-width="0.00026"></path>
<path d="M1.040 0.241 Q0.663 0.289 0.675 0.484" stroke="hsl(0.0,100%,35%)" stroke-width="0.00051"></path>
<path d="M1.040 0.241 Q0.774 0.550 1.320 0.748" stroke="hsl(0.0,100%,35%)" stroke-width="0.00026"></path>
<path d="M1.293 0.476 Q1.089 0.617 1.320 0.748" stroke="hsl(180.0,100%,35%)" stroke-width="0.00461"></path>
<path d="M1.293 0.476 Q0.978 0.356 0.675 0.484" stroke="hsl(180.0,100%,35%)" stroke-width="0.00358"></path>
<path d="M1.293 0.476 Q0.811 0.397 0.550 0.614" stroke="hsl(180.0,100%,35%)" stroke-width="0.00384"></path>
<path d="M1.293 0.476 Q0.832 0.334 0.454 0.528" stroke="hsl(180.0,100%,35%)" stroke-width="0.00077"></path>
<path d="M1.293 0.476 Q1.609 0.475 1.676 0.321" stroke="hsl(180.0,100%,35%)" stroke-width="0.00026"></path>
<path d="M0.454 0.528 Q0.711 0.811 1.320 0.748" stroke="hsl(180.0,100%,35%)" stroke-width="0.00282"></path>
<path d="M0.454 0.528 Q0.433 0.590 0.550 0.614" stroke="hsl(180.0,100%,35%)" stroke-width="0.00205"></path>
<path d="M0.454 0.528 Q1.231 0.669 1.676 0.321" stroke="hsl(180.0,100%,35%)" stroke-width="0.00179"></path>
<path d="M0.454 0.528 Q0.600 0.550 0.675 0.484" stroke="hsl(180.0,100%,35%)" stroke-width="0.00512"></path>
<path d="M0.454 0.528 Q0.610 0.621 0.827 0.566" stroke="hsl(180.0,100%,35%)" stroke-width="0.00154"></path>
<path d="M0.454 0.528 Q1.139 0.723 1.670 0.431" stroke="hsl(180.0,100%,35%)" stroke-width="0.00077"></path>
<path d="M0.454 0.528 Q0.460 0.851 1.093 0.919" stroke="hsl(180.0,100%,35%)" stroke-width="0.00026"></path>
<path d="M0.454 0.528 Q0.242 0.542 0.223 0.648" stroke="hsl(180.0,100%,35%)" stroke-width="0.00026"></path>
<path d="M0.613 0.292 Q1.015 0.494 1.498 0.342" stroke="hsl(180.0,100%,35%)" stroke-width="0.00128"></path>
<path d="M0.613 0.292 Q1.121 0.519 1.676 0.321" stroke="hsl(180.0,100%,35%)" stroke-width="0.00410"></path>
<path d="M0.613 0.292 Q0.323 0.441 0.550 0.614" stroke="hsl(180.0,100%,35%)" stroke-width="0.00230"></path>
<path d="M0.613 0.292 Q0.490 0.400 0.675 0.484" stroke="hsl(180.0,100%,35%)" stroke-width="0.00896"></path>
<path d="M0.613 0.292 Q0.601 0.661 1.320 0.748" stroke="hsl(180.0,100%,35%)" stroke-width="0.00128"></path>
<path d="M0.613 0.292 Q1.030 0.573 1.670 0.431" stroke="hsl(180.0,100%,35%)" stroke-width="0.00026"></path>
<path d="M0.613 0.292 Q0.501 0.471 0.827 0.566" stroke="hsl(180.0,100%,35%)" stroke-width="0.00026"></path>
<path d="M0.613 0.292 Q0.642 0.232 0.532 0.204" stroke="hsl(180.0,100%,35%)" stroke-width="0.00077"></path>
<path d="M0.613 0.292 Q0.344 0.378 0.454 0.528" stroke="hsl(180.0,100%,35%)" stroke-width="0.00026"></path>
<path d="M0.264 0.360 Q0.370 0.504 0.675 0.484" stroke="hsl(0.0,100%,35%)" stroke-width="0.03763"></path>
<path d="M0.264 0.360 Q0.013 0.496 0.223 0.648" stroke="hsl(0.0,100%,35%)" stroke-width="0.02713"></path>
<path d="M0.264 0.360 Q0.231 0.805 1.093 0.919" stroke="hsl(0.0,100%,35%)" stroke-width="0.00102"></path>
<path d="M0.264 0.360 Q0.225 0.482 0.454 0.528" stroke="hsl(0.0,100%,35%)" stroke-width="0.00026"></path>
<path d="M0.264 0.360 Q0.482 0.765 1.320 0.748" stroke="hsl(0.0,100%,35%)" stroke-width="0.00026"></path>
<path d="M1.670 0.431 Q1.761 0.377 1.676 0.321" stroke="hsl(180.0,100%,35%)" stroke-width="0.01024"></path>
<path d="M1.670 0.431 Q1.655 0.352 1.498 0.342" stroke="hsl(180.0,100%,35%)" stroke-width="0.00179"></path>
<path d="M1.670 0.431 Q1.131 0.258 0.675 0.484" stroke="hsl(180.0,100%,35%)" stroke-width="0.00333"></path>
<path d="M1.670 0.431 Q1.242 0.520 1.320 0.748" stroke="hsl(180.0,100%,35%)" stroke-width="0.00461"></path>
<path d="M1.670 0.431 Q1.141 0.330 0.827 0.566" stroke="hsl(180.0,100%,35%)" stroke-width="0.00102"></path>
<path d="M1.670 0.431 Q0.985 0.236 0.454 0.528" stroke="hsl(180.0,100%,35%)" stroke-width="0.00077"></path>
<path d="M1.670 0.431 Q0.964 0.299 0.550 0.614" stroke="hsl(180.0,100%,35%)" stroke-width="0.00051"></path>
<path d="M1.670 0.431 Q1.781 0.336 1.620 0.262" stroke="hsl(180.0,100%,35%)" stroke-width="0.00026"></path>
<path d="M1.498 0.342 Q0.806 0.289 0.550 0.614" stroke="hsl(180.0,100%,35%)" stroke-width="0.00230"></path>
<path d="M1.498 0.342 Q1.604 0.367 1.676 0.321" stroke="hsl(180.0,100%,35%)" stroke-width="0.00563"></path>
<path d="M1.498 0.342 Q1.084 0.510 1.320 0.748" stroke="hsl(180.0,100%,35%)" stroke-width="0.00128"></path>
<path d="M1.498 0.342 Q1.513 0.421 1.670 0.431" stroke="hsl(180.0,100%,35%)" stroke-width="0.00307"></path>
<path d="M1.498 0.342 Q1.096 0.140 0.613 0.292" stroke="hsl(180.0,100%,35%)" stroke-width="0.00102"></path>
<path d="M1.498 0.342 Q0.973 0.248 0.675 0.484" stroke="hsl(180.0,100%,35%)" stroke-width="0.00026"></path>
<path d="M1.498 0.342 Q0.834 0.550 1.093 0.919" stroke="hsl(180.0,100%,35%)" stroke-width="0.00026"></path>
<path d="M1.498 0.342 Q1.125 0.080 0.532 0.204" stroke="hsl(180.0,100%,35%)" stroke-width="0.00051"></path>
<path d="M1.498 0.342 Q0.827 0.226 0.454 0.528" stroke="hsl(180.0,100%,35%)" stroke-width="0.00179"></path>
<path d="M1.178 0.274 Q0.870 0.539 1.320 0.748" stroke="hsl(0.0,100%,35%)" stroke-width="0.00051"></path>
<path d="M1.178 0.274 Q0.962 0.288 0.941 0.397" stroke="hsl(0.0,100%,35%)" stroke-width="0.00077"></path>
<path d="M1.178 0.274 Q0.948 0.356 1.057 0.486" stroke="hsl(0.0,100%,35%)" stroke-width="0.00026"></path>
<path d="M1.178 0.274 Q0.402 0.270 0.223 0.648" stroke="hsl(0.0,100%,35%)" stroke-width="0.00026"></path>
<path d="M0.276 0.939 Q0.347 0.841 0.171 0.785" stroke="hsl(0.0,100%,35%)" stroke-width="0.00051"></path>
<path d="M0.276 0.939 Q0.951 1.052 1.320 0.748" stroke="hsl(0.0,100%,35%)" stroke-width="0.00026"></path>
<path d="M0.276 0.939 Q0.840 0.791 0.675 0.484" stroke="hsl(0.0,100%,35%)" stroke-width="0.00026"></path>
<path d="M1.534 0.518 Q1.547 0.443 1.403 0.420" stroke="hsl(0.0,100%,35%)" stroke-width="0.00026"></path>
<path d="M1.534 0.518 Q1.243 0.590 1.320 0.748" stroke="hsl(0.0,100%,35%)" stroke-width="0.00051"></path>
<path d="M1.534 0.518 Q1.335 0.339 0.941 0.397" stroke="hsl(0.0,100%,35%)" stroke-width="0.00026"></path>
<path d="M1.534 0.518 Q1.132 0.329 0.675 0.484" stroke="hsl(0.0,100%,35%)" stroke-width="0.00051"></path>
<path d="M1.534 0.518 Q0.965 0.369 0.550 0.614" stroke="hsl(0.0,100%,35%)" stroke-width="0.00051"></path>
<path d="M1.534 0.518 Q0.993 0.630 1.093 0.919" stroke="hsl(0.0,100%,35%)" stroke-width="0.00051"></path>
<path d="M1.534 0.518 Q1.591 0.425 1.423 0.377" stroke="hsl(0.0,100%,35%)" stroke-width="0.00026"></path>
<path d="M0.922 0.640 Q1.126 0.522 0.941 0.397" stroke="hsl(0.0,100%,35%)" stroke-width="0.00051"></path>
<path d="M0.922 0.640 Q0.923 0.512 0.675 0.484" stroke="hsl(0.0,100%,35%)" stroke-width="0.00179"></path>
<path d="M0.922 0.640 Q1.034 0.773 1.320 0.748" stroke="hsl(0.0,100%,35%)" stroke-width="0.00307"></path>
<path d="M0.922 0.640 Q0.566 0.504 0.223 0.648" stroke="hsl(0.0,100%,35%)" stroke-width="0.00128"></path>
<path d="M0.922 0.640 Q0.784 0.814 1.093 0.919" stroke="hsl(0.0,100%,35%)" stroke-width="0.00179"></path>
<path d="M0.922 0.640 Q1.112 0.590 1.057 0.486" stroke="hsl(0.0,100%,35%)" stroke-width="0.00026"></path>
<path d="M0.922 0.640 Q0.756 0.553 0.550 0.614" stroke="hsl(0.0,100%,35%)" stroke-width="0.00026"></path>
<path d="M0.922 0.640 Q1.089 0.627 1.100 0.542" stroke="hsl(0.0,100%,35%)" stroke-width="0.00026"></path>
<path d="M0.598 0.771 Q1.032 0.757 1.100 0.542" stroke="hsl(0.0,100%,35%)" stroke-width="0.00102"></path>
<path d="M0.598 0.771 Q0.977 0.904 1.320 0.748" stroke="hsl(0.0,100%,35%)" stroke-width="0.00026"></path>
<path d="M0.598 0.771 Q0.509 0.634 0.223 0.648" stroke="hsl(0.0,100%,35%)" stroke-width="0.00051"></path>
<path d="M0.598 0.771 Q0.866 0.643 0.675 0.484" stroke="hsl(0.0,100%,35%)" stroke-width="0.00026"></path>
<path d="M0.980 0.665 Q1.084 0.775 1.320 0.748" stroke="hsl(0.0,100%,35%)" stroke-width="0.00333"></path>
<path d="M0.980 0.665 Q0.973 0.513 0.675 0.484" stroke="hsl(0.0,100%,35%)" stroke-width="0.00230"></path>
<path d="M0.980 0.665 Q0.806 0.554 0.550 0.614" stroke="hsl(0.0,100%,35%)" stroke-width="0.00051"></path>
<path d="M0.920 0.331 Q0.786 0.619 1.320 0.748" stroke="hsl(0.0,100%,35%)" stroke-width="0.00026"></path>
<path d="M0.920 0.331 Q0.675 0.358 0.675 0.484" stroke="hsl(0.0,100%,35%)" stroke-width="0.00102"></path>
<path d="M0.920 0.331 Q0.508 0.399 0.550 0.614" stroke="hsl(0.0,100%,35%)" stroke-width="0.00051"></path>
<path d="M0.861 0.315 Q0.276 0.354 0.223 0.648" stroke="hsl(0.0,100%,35%)" stroke-width="0.02073"></path>
<path d="M0.861 0.315 Q0.633 0.362 0.675 0.484" stroke="hsl(0.0,100%,35%)" stroke-width="0.02125"></path>
<path d="M0.861 0.315 Q0.494 0.664 1.093 0.919" stroke="hsl(0.0,100%,35%)" stroke-width="0.00077"></path>
<path d="M0.861 0.315 Q0.744 0.623 1.320 0.748" stroke="hsl(0.0,100%,35%)" stroke-width="0.00128"></path>
<path d="M0.861 0.315 Q0.843 0.389 0.983 0.414" stroke="hsl(0.0,100%,35%)" stroke-width="0.00026"></path>
<path d="M1.950 0.249 Q1.236 0.372 1.320 0.748" stroke="hsl(180.0,100%,35%)" stroke-width="0.00026"></path>
<path d="M1.950 0.249 Q1.755 0.230 1.676 0.321" stroke="hsl(180.0,100%,35%)" stroke-width="0.00077"></path>
<path d="M1.950 0.249 Q1.649 0.205 1.498 0.342" stroke="hsl(180.0,100%,35%)" stroke-width="0.00026"></path>
<path d="M1.950 0.249 Q0.979 0.089 0.454 0.528" stroke="hsl(180.0,100%,35%)" stroke-width="0.00026"></path>
<path d="M0.567 0.591 Q0.349 0.550 0.223 0.648" stroke="hsl(0.0,100%,35%)" stroke-width="0.01050"></path>
<path d="M0.567 0.591 Q0.707 0.559 0.675 0.484" stroke="hsl(0.0,100%,35%)" stroke-width="0.01203"></path>
<path d="M0.567 0.591 Q0.540 0.599 0.550 0.614" stroke="hsl(0.0,100%,35%)" stroke-width="0.00026"></path>
<path d="M1.873 0.362 Q1.177 0.183 0.675 0.484" stroke="hsl(180.0,100%,35%)" stroke-width="0.00026"></path>
<path d="M1.873 0.362 Q1.808 0.302 1.676 0.321" stroke="hsl(180.0,100%,35%)" stroke-width="0.00128"></path>
<path d="M1.873 0.362 Q2.003 0.321 1.950 0.249" stroke="hsl(180.0,100%,35%)" stroke-width="0.00128"></path>
<path d="M1.328 0.578 Q1.188 0.662 1.320 0.748" stroke="hsl(0.0,100%,35%)" stroke-width="0.00026"></path>
<path d="M1.328 0.578 Q0.910 0.441 0.550 0.614" stroke="hsl(0.0,100%,35%)" stroke-width="0.00026"></path>
<path d="M1.328 0.578 Q1.077 0.400 0.675 0.484" stroke="hsl(0.0,100%,35%)" stroke-width="0.00026"></path>
<path d="M1.328 0.578 Q0.938 0.702 1.093 0.919" stroke="hsl(0.0,100%,35%)" stroke-width="0.00026"></path>
<path d="M0.547 0.232 Q0.410 0.383 0.675 0.484" stroke="hsl(180.0,100%,35%)" stroke-width="0.00077"></path>
<path d="M0.547 0.232 Q0.264 0.361 0.454 0.528" stroke="hsl(180.0,100%,35%)" stroke-width="0.00026"></path>
<path d="M0.547 0.232 Q1.041 0.502 1.676 0.321" stroke="hsl(180.0,100%,35%)" stroke-width="0.00026"></path>
<path d="M1.340 0.493 Q0.658 0.347 0.223 0.648" stroke="hsl(0.0,100%,35%)" stroke-width="0.00026"></path>
<path d="M1.340 0.493 Q1.217 0.365 0.941 0.397" stroke="hsl(0.0,100%,35%)" stroke-width="0.00026"></path>
<path d="M1.340 0.493 Q1.025 0.427 0.827 0.566" stroke="hsl(0.0,100%,35%)" stroke-width="0.00026"></path>
<path d="M1.340 0.493 Q1.015 0.355 0.675 0.484" stroke="hsl(0.0,100%,35%)" stroke-width="0.00026"></path>
<path d="M1.340 0.493 Q1.126 0.616 1.320 0.748" stroke="hsl(0.0,100%,35%)" stroke-width="0.00026"></path>
<path d="M1.429 0.546 Q1.213 0.625 1.320 0.748" stroke="hsl(180.0,100%,35%)" stroke-width="0.00102"></path>
<path d="M1.429 0.546 Q0.956 0.342 0.454 0.528" stroke="hsl(180.0,100%,35%)" stroke-width="0.00051"></path>
<path d="M1.429 0.546 Q1.112 0.435 0.827 0.566" stroke="hsl(180.0,100%,35%)" stroke-width="0.00026"></path>
<path d="M1.429 0.546 Q0.935 0.404 0.550 0.614" stroke="hsl(180.0,100%,35%)" stroke-width="0.00051"></path>
<path d="M0.505 0.828 Q0.865 0.690 0.675 0.484" stroke="hsl(180.0,100%,35%)" stroke-width="0.00026"></path>
<path d="M0.505 0.828 Q0.531 0.910 0.697 0.916" stroke="hsl(180.0,100%,35%)" stroke-width="0.00026"></path>
<path d="M0.505 0.828 Q0.698 0.730 0.550 0.614" stroke="hsl(180.0,100%,35%)" stroke-width="0.00026"></path>
<path d="M1.450 0.842 Q1.350 0.508 0.675 0.484" stroke="hsl(0.0,100%,35%)" stroke-width="0.00102"></path>
<path d="M1.450 0.842 Q1.461 0.769 1.320 0.748" stroke="hsl(0.0,100%,35%)" stroke-width="0.00230"></path>
<path d="M1.450 0.842 Q0.856 0.558 0.171 0.785" stroke="hsl(0.0,100%,35%)" stroke-width="0.00026"></path>
<path d="M1.450 0.842 Q1.183 0.548 0.550 0.614" stroke="hsl(0.0,100%,35%)" stroke-width="0.00026"></path>
<path d="M0.953 0.617 Q0.753 0.535 0.550 0.614" stroke="hsl(180.0,100%,35%)" stroke-width="0.00077"></path>
<path d="M0.953 0.617 Q1.406 0.766 1.796 0.578" stroke="hsl(180.0,100%,35%)" stroke-width="0.00026"></path>
<path d="M0.953 0.617 Q0.920 0.494 0.675 0.484" stroke="hsl(180.0,100%,35%)" stroke-width="0.00051"></path>
<path d="M0.953 0.617 Q1.031 0.756 1.320 0.748" stroke="hsl(180.0,100%,35%)" stroke-width="0.00026"></path>
<path d="M1.292 0.585 Q1.065 0.411 0.675 0.484" stroke="hsl(0.0,100%,35%)" stroke-width="0.00102"></path>
<path d="M1.292 0.585 Q1.176 0.672 1.320 0.748" stroke="hsl(0.0,100%,35%)" stroke-width="0.00205"></path>
<path d="M1.292 0.585 Q0.926 0.712 1.093 0.919" stroke="hsl(0.0,100%,35%)" stroke-width="0.00026"></path>
<path d="M0.872 0.649 Q0.916 0.598 0.827 0.566" stroke="hsl(0.0,100%,35%)" stroke-width="0.00077"></path>
<path d="M0.872 0.649 Q1.537 0.646 1.676 0.321" stroke="hsl(0.0,100%,35%)" stroke-width="0.00051"></path>
<path d="M0.872 0.649 Q0.739 0.567 0.550 0.614" stroke="hsl(0.0,100%,35%)" stroke-width="0.00051"></path>
<path d="M0.872 0.649 Q1.017 0.788 1.320 0.748" stroke="hsl(0.0,100%,35%)" stroke-width="0.00026"></path>
<path d="M1.698 0.830 Q1.317 0.430 0.454 0.528" stroke="hsl(180.0,100%,35%)" stroke-width="0.00026"></path>
<path d="M1.698 0.830 Q1.574 0.713 1.320 0.748" stroke="hsl(180.0,100%,35%)" stroke-width="0.00026"></path>
<path d="M1.698 0.830 Q1.296 0.492 0.550 0.614" stroke="hsl(180.0,100%,35%)" stroke-width="0.00026"></path>
<path d="M1.238 0.594 Q1.044 0.426 0.675 0.484" stroke="hsl(0.0,100%,35%)" stroke-width="0.00256"></path>
<path d="M1.238 0.594 Q1.155 0.687 1.320 0.748" stroke="hsl(0.0,100%,35%)" stroke-width="0.00230"></path>
<path d="M1.238 0.594 Q1.254 0.453 0.983 0.414" stroke="hsl(0.0,100%,35%)" stroke-width="0.00026"></path>
<path d="M1.238 0.594 Q0.877 0.466 0.550 0.614" stroke="hsl(0.0,100%,35%)" stroke-width="0.00051"></path>
<path d="M1.238 0.594 Q1.568 0.520 1.498 0.342" stroke="hsl(0.0,100%,35%)" stroke-width="0.00026"></path>
<path d="M1.238 0.594 Q1.675 0.545 1.676 0.321" stroke="hsl(0.0,100%,35%)" stroke-width="0.00026"></path>
<path d="M1.238 0.594 Q0.905 0.727 1.093 0.919" stroke="hsl(0.0,100%,35%)" stroke-width="0.00026"></path>
<path d="M0.732 0.663 Q0.847 0.562 0.675 0.484" stroke="hsl(180.0,100%,35%)" stroke-width="0.00307"></path>
<path d="M0.732 0.663 Q0.680 0.602 0.550 0.614" stroke="hsl(180.0,100%,35%)" stroke-width="0.00205"></path>
<path d="M0.732 0.663 Q0.958 0.823 1.320 0.748" stroke="hsl(180.0,100%,35%)" stroke-width="0.00102"></path>
<path d="M0.732 0.663 Q0.701 0.540 0.454 0.528" stroke="hsl(180.0,100%,35%)" stroke-width="0.00077"></path>
<path d="M0.732 0.663 Q1.478 0.681 1.676 0.321" stroke="hsl(180.0,100%,35%)" stroke-width="0.00026"></path>
<path d="M0.732 0.663 Q0.490 0.554 0.223 0.648" stroke="hsl(180.0,100%,35%)" stroke-width="0.00026"></path>
<path d="M1.395 0.571 Q1.105 0.383 0.675 0.484" stroke="hsl(0.0,100%,35%)" stroke-width="0.00051"></path>
<path d="M1.395 0.571 Q1.216 0.645 1.320 0.748" stroke="hsl(0.0,100%,35%)" stroke-width="0.00077"></path>
<path d="M1.395 0.571 Q1.315 0.410 0.983 0.414" stroke="hsl(0.0,100%,35%)" stroke-width="0.00026"></path>
<path d="M1.760 0.684 Q1.211 0.407 0.550 0.614" stroke="hsl(180.0,100%,35%)" stroke-width="0.00026"></path>
<path d="M1.760 0.684 Q1.863 0.638 1.796 0.578" stroke="hsl(180.0,100%,35%)" stroke-width="0.00026"></path>
<path d="M1.760 0.684 Q1.378 0.367 0.675 0.484" stroke="hsl(180.0,100%,35%)" stroke-width="0.00026"></path>
<path d="M0.365 0.510 Q0.652 0.820 1.320 0.748" stroke="hsl(180.0,100%,35%)" stroke-width="0.00026"></path>
<path d="M0.365 0.510 Q0.541 0.559 0.675 0.484" stroke="hsl(180.0,100%,35%)" stroke-width="0.00026"></path>
<path d="M0.365 0.510 Q0.374 0.599 0.550 0.614" stroke="hsl(180.0,100%,35%)" stroke-width="0.00026"></path>
</g>
<text x="1.206" y="0.674" font-size="0.012316" fill="hsl(0.0,100%,20%)">abdolrashidi</text>
<text x="1.320" y="0.708" font-size="0.080474" fill="hsl(0.0,100%,20%)">syoussefi</text>
<text x="0.675" y="0.433" font-size="0.100756" fill="hsl(0.0,100%,20%)">jmadill</text>
<text x="0.941" y="0.375" font-size="0.044210" fill="hsl(0.0,100%,20%)">cclao</text>
<text x="1.676" y="0.306" font-size="0.029484" fill="hsl(180.0,100%,20%)">kbr</text>
<text x="0.862" y="0.966" font-size="0.008367" fill="hsl(180.0,100%,20%)">adkushwa</text>
<text x="0.697" y="0.913" font-size="0.005917" fill="hsl(180.0,100%,20%)">rafael.cintron</text>
<text x="0.550" y="0.597" font-size="0.034584" fill="hsl(180.0,100%,20%)">geofflang</text>
<text x="0.600" y="0.252" font-size="0.006832" fill="hsl(0.0,100%,20%)">amy.liu</text>
<text x="1.093" y="0.889" font-size="0.061154" fill="hsl(0.0,100%,20%)">timvp</text>
<text x="1.362" y="0.857" font-size="0.012316" fill="hsl(0.0,100%,20%)">antonio.caggiano</text>
<text x="0.983" y="0.398" font-size="0.031214" fill="hsl(0.0,100%,20%)">m.maiya</text>
<text x="1.601" y="0.674" font-size="0.004184" fill="hsl(0.0,100%,20%)">cstout</text>
<text x="1.416" y="0.919" font-size="0.002415" fill="hsl(0.0,100%,20%)">jvigilsamsung</text>
<text x="0.802" y="0.600" font-size="0.005917" fill="hsl(0.0,100%,20%)">constantine.shablya</text>
<text x="1.100" y="0.528" font-size="0.028580" fill="hsl(0.0,100%,20%)">ianelliott</text>
<text x="0.555" y="0.317" font-size="0.018710" fill="hsl(0.0,100%,20%)">b.schade</text>
<text x="0.837" y="0.659" font-size="0.004184" fill="hsl(180.0,100%,20%)">capn</text>
<text x="0.827" y="0.548" font-size="0.035827" fill="hsl(0.0,100%,20%)">ynovikov</text>
<text x="0.714" y="0.567" font-size="0.008709" fill="hsl(0.0,100%,20%)">romanl</text>
<text x="1.057" y="0.477" font-size="0.019019" fill="hsl(0.0,100%,20%)">lfy</text>
<text x="0.223" y="0.618" font-size="0.059067" fill="hsl(0.0,100%,20%)">cnorthrop</text>
<text x="1.556" y="0.831" font-size="0.009038" fill="hsl(0.0,100%,20%)">cheryl.wei</text>
<text x="1.626" y="0.570" font-size="0.004184" fill="hsl(180.0,100%,20%)">sunny.sun</text>
<text x="1.620" y="0.260" font-size="0.003416" fill="hsl(180.0,100%,20%)">bajones</text>
<text x="0.295" y="0.505" font-size="0.002415" fill="hsl(0.0,100%,20%)">paulthomson</text>
<text x="1.040" y="0.239" font-size="0.004184" fill="hsl(0.0,100%,20%)">cwallez</text>
<text x="0.461" y="0.663" font-size="0.002415" fill="hsl(180.0,100%,20%)">zmo</text>
<text x="1.293" y="0.467" font-size="0.018710" fill="hsl(180.0,100%,20%)">penghuang</text>
<text x="0.462" y="0.702" font-size="0.002415" fill="hsl(180.0,100%,20%)">junov</text>
<text x="0.454" y="0.514" font-size="0.027646" fill="hsl(180.0,100%,20%)">jonahr</text>
<text x="0.613" y="0.281" font-size="0.021873" fill="hsl(180.0,100%,20%)">lexa.knyazev</text>
<text x="0.656" y="0.514" font-size="0.002415" fill="hsl(180.0,100%,20%)">vikassoni</text>
<text x="0.264" y="0.340" font-size="0.039320" fill="hsl(0.0,100%,20%)">gert.wollny</text>
<text x="1.670" y="0.419" font-size="0.024751" fill="hsl(180.0,100%,20%)">gman</text>
<text x="1.498" y="0.332" font-size="0.021333" fill="hsl(180.0,100%,20%)">kpiddington</text>
<text x="1.178" y="0.271" font-size="0.006391" fill="hsl(0.0,100%,20%)">hailinzhang</text>
<text x="0.276" y="0.937" font-size="0.004831" fill="hsl(0.0,100%,20%)">hans</text>
<text x="0.171" y="0.783" font-size="0.005401" fill="hsl(0.0,100%,20%)">thakis</text>
<text x="1.534" y="0.514" font-size="0.009038" fill="hsl(0.0,100%,20%)">natsu</text>
<text x="0.922" y="0.631" font-size="0.017585" fill="hsl(0.0,100%,20%)">yuxinhu</text>
<text x="0.707" y="0.643" font-size="0.002415" fill="hsl(0.0,100%,20%)">vantablack</text>
<text x="0.598" y="0.767" font-size="0.008011" fill="hsl(0.0,100%,20%)">mark</text>
<text x="0.980" y="0.660" font-size="0.011833" fill="hsl(0.0,100%,20%)">j.vigil</text>
<text x="0.920" y="0.327" font-size="0.006832" fill="hsl(0.0,100%,20%)">jgilbert</text>
<text x="0.861" y="0.299" font-size="0.031862" fill="hsl(0.0,100%,20%)">lubosz.sarnecki</text>
<text x="0.810" y="0.252" font-size="0.004184" fill="hsl(0.0,100%,20%)">bsheedy</text>
<text x="0.340" y="0.225" font-size="0.002415" fill="hsl(0.0,100%,20%)">brucedawson</text>
<text x="0.433" y="0.724" font-size="0.002415" fill="hsl(0.0,100%,20%)">tandrii</text>
<text x="0.934" y="0.319" font-size="0.002415" fill="hsl(0.0,100%,20%)">dpranke</text>
<text x="1.423" y="0.375" font-size="0.004184" fill="hsl(0.0,100%,20%)">nicolascapens</text>
<text x="0.753" y="0.819" font-size="0.002415" fill="hsl(0.0,100%,20%)">doughorn</text>
<text x="1.950" y="0.245" font-size="0.008011" fill="hsl(180.0,100%,20%)">johncunningham</text>
<text x="0.567" y="0.580" font-size="0.022787" fill="hsl(0.0,100%,20%)">jplate</text>
<text x="1.592" y="0.477" font-size="0.002415" fill="hsl(180.0,100%,20%)">ccameron</text>
<text x="1.873" y="0.358" font-size="0.008011" fill="hsl(180.0,100%,20%)">kkinnunen</text>
<text x="0.532" y="0.202" font-size="0.005401" fill="hsl(180.0,100%,20%)">le.hoang.q</text>
<text x="1.328" y="0.576" font-size="0.004831" fill="hsl(0.0,100%,20%)">kyle.griffiths</text>
<text x="0.547" y="0.229" font-size="0.005401" fill="hsl(180.0,100%,20%)">lehoangq</text>
<text x="1.340" y="0.490" font-size="0.005401" fill="hsl(0.0,100%,20%)">lunpujun</text>
<text x="1.429" y="0.542" font-size="0.007246" fill="hsl(180.0,100%,20%)">msisov</text>
<text x="1.403" y="0.419" font-size="0.002415" fill="hsl(180.0,100%,20%)">zzyiwei</text>
<text x="0.505" y="0.826" font-size="0.004184" fill="hsl(180.0,100%,20%)">patrto</text>
<text x="1.450" y="0.838" font-size="0.009355" fill="hsl(0.0,100%,20%)">pkasting</text>
<text x="0.953" y="0.614" font-size="0.006391" fill="hsl(180.0,100%,20%)">senorblanco</text>
<text x="1.796" y="0.576" font-size="0.003416" fill="hsl(180.0,100%,20%)">jiajia.qin</text>
<text x="1.292" y="0.581" font-size="0.008709" fill="hsl(0.0,100%,20%)">sergeyu</text>
<text x="0.872" y="0.646" font-size="0.006832" fill="hsl(0.0,100%,20%)">shrekshao</text>
<text x="1.698" y="0.828" font-size="0.004184" fill="hsl(180.0,100%,20%)">srisser</text>
<text x="1.238" y="0.587" font-size="0.012077" fill="hsl(0.0,100%,20%)">steven</text>
<text x="0.732" y="0.656" font-size="0.014084" fill="hsl(180.0,100%,20%)">sugoi</text>
<text x="1.838" y="0.804" font-size="0.002415" fill="hsl(0.0,100%,20%)">borenet</text>
<text x="1.429" y="0.526" font-size="0.003416" fill="hsl(0.0,100%,20%)">reveman</text>
<text x="1.596" y="0.646" font-size="0.002415" fill="hsl(0.0,100%,20%)">jie.a.chen</text>
<text x="1.395" y="0.568" font-size="0.005917" fill="hsl(0.0,100%,20%)">xiaoxuan.liu</text>
<text x="1.760" y="0.682" font-size="0.004184" fill="hsl(180.0,100%,20%)">xinghua.cao</text>
<text x="0.365" y="0.508" font-size="0.004184" fill="hsl(180.0,100%,20%)">yang.gu</text>
</svg>
