<svg width="4000" height="2000" viewBox="-0.025 -0.025 2.05 1.05" xmlns="http://www.w3.org/2000/svg">
  <style>
    path {
      fill: none;
      stroke-linecap: round;
      stroke-opacity: 0.4;
    }

    text {
      text-anchor: middle;
      alignment-baseline: hanging;
    }
  </style>
  <g opacity="0.4">
<path d="M1.269 0.314 Q1.211 0.194 0.965 0.196" stroke="hsl(0.0,100%,35%)" stroke-width="0.00333"></path>
<path d="M1.269 0.314 Q0.562 0.280 0.342 0.617" stroke="hsl(0.0,100%,35%)" stroke-width="0.00042"></path>
<path d="M1.269 0.314 Q1.106 0.327 1.097 0.410" stroke="hsl(0.0,100%,35%)" stroke-width="0.00166"></path>
<path d="M0.965 0.196 Q0.546 0.168 0.399 0.367" stroke="hsl(0.0,100%,35%)" stroke-width="0.01290"></path>
<path d="M0.965 0.196 Q0.316 0.282 0.342 0.617" stroke="hsl(0.0,100%,35%)" stroke-width="0.02497"></path>
<path d="M0.965 0.196 Q1.204 0.404 1.661 0.332" stroke="hsl(0.0,100%,35%)" stroke-width="0.00749"></path>
<path d="M0.965 0.196 Q0.528 0.324 0.683 0.565" stroke="hsl(0.0,100%,35%)" stroke-width="0.02372"></path>
<path d="M0.965 0.196 Q0.423 0.413 0.727 0.725" stroke="hsl(0.0,100%,35%)" stroke-width="0.01914"></path>
<path d="M0.965 0.196 Q0.760 0.197 0.716 0.296" stroke="hsl(0.0,100%,35%)" stroke-width="0.02663"></path>
<path d="M0.965 0.196 Q0.467 0.200 0.366 0.444" stroke="hsl(0.0,100%,35%)" stroke-width="0.00042"></path>
<path d="M0.965 0.196 Q0.642 0.105 0.393 0.242" stroke="hsl(0.0,100%,35%)" stroke-width="0.00832"></path>
<path d="M0.965 0.196 Q0.561 0.542 1.149 0.815" stroke="hsl(0.0,100%,35%)" stroke-width="0.00083"></path>
<path d="M0.965 0.196 Q0.814 0.258 0.901 0.345" stroke="hsl(0.0,100%,35%)" stroke-width="0.00042"></path>
<path d="M0.965 0.196 Q0.589 0.221 0.555 0.410" stroke="hsl(0.0,100%,35%)" stroke-width="0.01581"></path>
<path d="M0.965 0.196 Q0.139 0.458 0.468 0.918" stroke="hsl(0.0,100%,35%)" stroke-width="0.00166"></path>
<path d="M0.965 0.196 Q1.136 0.477 1.721 0.455" stroke="hsl(0.0,100%,35%)" stroke-width="0.00250"></path>
<path d="M0.965 0.196 Q0.464 0.207 0.375 0.453" stroke="hsl(0.0,100%,35%)" stroke-width="0.00042"></path>
<path d="M0.965 0.196 Q0.331 0.130 0.064 0.425" stroke="hsl(0.0,100%,35%)" stroke-width="0.00042"></path>
<path d="M0.965 0.196 Q0.672 0.173 0.562 0.311" stroke="hsl(0.0,100%,35%)" stroke-width="0.00083"></path>
<path d="M0.965 0.196 Q0.766 0.116 0.566 0.196" stroke="hsl(0.0,100%,35%)" stroke-width="0.00042"></path>
<path d="M0.965 0.196 Q0.635 0.161 0.493 0.314" stroke="hsl(0.0,100%,35%)" stroke-width="0.00083"></path>
<path d="M0.965 0.196 Q-0.009 0.380 0.135 0.895" stroke="hsl(0.0,100%,35%)" stroke-width="0.00083"></path>
<path d="M0.965 0.196 Q0.420 0.144 0.197 0.398" stroke="hsl(0.0,100%,35%)" stroke-width="0.00042"></path>
<path d="M0.965 0.196 Q0.497 0.119 0.244 0.330" stroke="hsl(0.0,100%,35%)" stroke-width="0.00125"></path>
<path d="M0.965 0.196 Q0.156 0.322 0.223 0.744" stroke="hsl(0.0,100%,35%)" stroke-width="0.00042"></path>
<path d="M0.342 0.617 Q0.448 0.748 0.727 0.725" stroke="hsl(0.0,100%,35%)" stroke-width="0.01332"></path>
<path d="M0.342 0.617 Q0.990 0.531 0.965 0.196" stroke="hsl(0.0,100%,35%)" stroke-width="0.01789"></path>
<path d="M0.342 0.617 Q0.516 0.568 0.458 0.472" stroke="hsl(0.0,100%,35%)" stroke-width="0.00083"></path>
<path d="M0.342 0.617 Q1.230 0.739 1.661 0.332" stroke="hsl(0.0,100%,35%)" stroke-width="0.00125"></path>
<path d="M0.342 0.617 Q0.786 0.532 0.716 0.296" stroke="hsl(0.0,100%,35%)" stroke-width="0.00125"></path>
<path d="M0.342 0.617 Q0.587 0.878 1.149 0.815" stroke="hsl(0.0,100%,35%)" stroke-width="0.00166"></path>
<path d="M0.342 0.617 Q0.615 0.557 0.555 0.410" stroke="hsl(0.0,100%,35%)" stroke-width="0.00208"></path>
<path d="M0.342 0.617 Q0.697 0.508 0.562 0.311" stroke="hsl(0.0,100%,35%)" stroke-width="0.00042"></path>
<path d="M0.342 0.617 Q1.162 0.812 1.721 0.455" stroke="hsl(0.0,100%,35%)" stroke-width="0.00083"></path>
<path d="M0.342 0.617 Q0.554 0.660 0.683 0.565" stroke="hsl(0.0,100%,35%)" stroke-width="0.01248"></path>
<path d="M0.342 0.617 Q0.165 0.793 0.468 0.918" stroke="hsl(0.0,100%,35%)" stroke-width="0.00083"></path>
<path d="M0.342 0.617 Q0.208 0.716 0.370 0.803" stroke="hsl(0.0,100%,35%)" stroke-width="0.00125"></path>
<path d="M0.342 0.617 Q0.742 0.349 0.306 0.095" stroke="hsl(0.0,100%,35%)" stroke-width="0.00042"></path>
<path d="M0.342 0.617 Q0.667 0.440 0.393 0.242" stroke="hsl(0.0,100%,35%)" stroke-width="0.00042"></path>
<path d="M0.342 0.617 Q0.181 0.657 0.223 0.744" stroke="hsl(0.0,100%,35%)" stroke-width="0.00042"></path>
<path d="M0.342 0.617 Q0.314 0.697 0.463 0.728" stroke="hsl(0.0,100%,35%)" stroke-width="0.00042"></path>
<path d="M0.342 0.617 Q0.571 0.504 0.399 0.367" stroke="hsl(0.0,100%,35%)" stroke-width="0.00042"></path>
<path d="M1.097 0.410 Q0.997 0.277 0.716 0.296" stroke="hsl(0.0,100%,35%)" stroke-width="0.00042"></path>
<path d="M1.097 0.410 Q1.201 0.277 0.965 0.196" stroke="hsl(0.0,100%,35%)" stroke-width="0.00125"></path>
<path d="M1.097 0.410 Q0.553 0.363 0.342 0.617" stroke="hsl(0.0,100%,35%)" stroke-width="0.00042"></path>
<path d="M1.097 0.410 Q0.798 0.623 1.149 0.815" stroke="hsl(0.0,100%,35%)" stroke-width="0.00042"></path>
<path d="M0.856 0.677 Q0.859 0.587 0.683 0.565" stroke="hsl(0.0,100%,35%)" stroke-width="0.00042"></path>
<path d="M0.856 0.677 Q1.084 0.589 0.962 0.458" stroke="hsl(0.0,100%,35%)" stroke-width="0.00042"></path>
<path d="M0.856 0.677 Q0.647 0.544 0.342 0.617" stroke="hsl(0.0,100%,35%)" stroke-width="0.00042"></path>
<path d="M0.683 0.565 Q0.577 0.654 0.727 0.725" stroke="hsl(0.0,100%,35%)" stroke-width="0.00874"></path>
<path d="M0.683 0.565 Q0.915 0.438 0.716 0.296" stroke="hsl(0.0,100%,35%)" stroke-width="0.01498"></path>
<path d="M0.683 0.565 Q0.700 0.409 0.399 0.367" stroke="hsl(0.0,100%,35%)" stroke-width="0.00583"></path>
<path d="M0.683 0.565 Q0.310 0.563 0.223 0.744" stroke="hsl(0.0,100%,35%)" stroke-width="0.00208"></path>
<path d="M0.683 0.565 Q0.743 0.462 0.555 0.410" stroke="hsl(0.0,100%,35%)" stroke-width="0.00999"></path>
<path d="M0.683 0.565 Q0.796 0.346 0.393 0.242" stroke="hsl(0.0,100%,35%)" stroke-width="0.00707"></path>
<path d="M0.683 0.565 Q1.358 0.645 1.661 0.332" stroke="hsl(0.0,100%,35%)" stroke-width="0.00250"></path>
<path d="M0.683 0.565 Q1.119 0.437 0.965 0.196" stroke="hsl(0.0,100%,35%)" stroke-width="0.05160"></path>
<path d="M0.683 0.565 Q0.948 0.300 0.488 0.113" stroke="hsl(0.0,100%,35%)" stroke-width="0.00042"></path>
<path d="M0.683 0.565 Q0.471 0.523 0.342 0.617" stroke="hsl(0.0,100%,35%)" stroke-width="0.01415"></path>
<path d="M0.683 0.565 Q0.870 0.255 0.306 0.095" stroke="hsl(0.0,100%,35%)" stroke-width="0.00083"></path>
<path d="M0.683 0.565 Q0.826 0.414 0.562 0.311" stroke="hsl(0.0,100%,35%)" stroke-width="0.00042"></path>
<path d="M0.683 0.565 Q0.808 0.648 0.997 0.606" stroke="hsl(0.0,100%,35%)" stroke-width="0.00042"></path>
<path d="M0.683 0.565 Q1.173 0.647 1.439 0.425" stroke="hsl(0.0,100%,35%)" stroke-width="0.00042"></path>
<path d="M0.683 0.565 Q0.842 0.585 0.915 0.511" stroke="hsl(0.0,100%,35%)" stroke-width="0.00083"></path>
<path d="M0.683 0.565 Q0.832 0.468 0.674 0.374" stroke="hsl(0.0,100%,35%)" stroke-width="0.00042"></path>
<path d="M0.683 0.565 Q1.291 0.718 1.721 0.455" stroke="hsl(0.0,100%,35%)" stroke-width="0.00333"></path>
<path d="M0.683 0.565 Q0.936 0.547 0.955 0.419" stroke="hsl(0.0,100%,35%)" stroke-width="0.00042"></path>
<path d="M0.683 0.565 Q0.857 0.380 0.533 0.254" stroke="hsl(0.0,100%,35%)" stroke-width="0.00125"></path>
<path d="M0.683 0.565 Q0.219 0.580 0.146 0.810" stroke="hsl(0.0,100%,35%)" stroke-width="0.00042"></path>
<path d="M0.683 0.565 Q0.860 0.654 1.071 0.586" stroke="hsl(0.0,100%,35%)" stroke-width="0.00042"></path>
<path d="M0.488 0.113 Q0.660 0.250 0.965 0.196" stroke="hsl(0.0,100%,35%)" stroke-width="0.00291"></path>
<path d="M0.488 0.113 Q0.223 0.378 0.683 0.565" stroke="hsl(0.0,100%,35%)" stroke-width="0.00208"></path>
<path d="M0.488 0.113 Q0.241 0.222 0.399 0.367" stroke="hsl(0.0,100%,35%)" stroke-width="0.00042"></path>
<path d="M0.488 0.113 Q0.397 0.192 0.533 0.254" stroke="hsl(0.0,100%,35%)" stroke-width="0.00042"></path>
<path d="M0.399 0.367 Q0.614 0.395 0.716 0.296" stroke="hsl(0.0,100%,35%)" stroke-width="0.00125"></path>
<path d="M0.399 0.367 Q0.818 0.394 0.965 0.196" stroke="hsl(0.0,100%,35%)" stroke-width="0.00915"></path>
<path d="M0.399 0.367 Q1.058 0.602 1.661 0.332" stroke="hsl(0.0,100%,35%)" stroke-width="0.00166"></path>
<path d="M0.399 0.367 Q0.382 0.523 0.683 0.565" stroke="hsl(0.0,100%,35%)" stroke-width="0.00208"></path>
<path d="M0.399 0.367 Q0.990 0.675 1.721 0.455" stroke="hsl(0.0,100%,35%)" stroke-width="0.00083"></path>
<path d="M0.399 0.367 Q0.495 0.303 0.393 0.242" stroke="hsl(0.0,100%,35%)" stroke-width="0.00042"></path>
<path d="M0.399 0.367 Q0.443 0.420 0.555 0.410" stroke="hsl(0.0,100%,35%)" stroke-width="0.00250"></path>
<path d="M0.399 0.367 Q0.276 0.611 0.727 0.725" stroke="hsl(0.0,100%,35%)" stroke-width="0.00042"></path>
<path d="M0.399 0.367 Q0.185 0.329 0.064 0.425" stroke="hsl(0.0,100%,35%)" stroke-width="0.00083"></path>
<path d="M0.399 0.367 Q0.170 0.481 0.342 0.617" stroke="hsl(0.0,100%,35%)" stroke-width="0.00083"></path>
<path d="M0.533 0.254 Q1.035 0.519 1.661 0.332" stroke="hsl(0.0,100%,35%)" stroke-width="0.00042"></path>
<path d="M0.533 0.254 Q0.359 0.440 0.683 0.565" stroke="hsl(0.0,100%,35%)" stroke-width="0.00333"></path>
<path d="M0.533 0.254 Q0.376 0.284 0.399 0.367" stroke="hsl(0.0,100%,35%)" stroke-width="0.00042"></path>
<path d="M0.533 0.254 Q0.472 0.220 0.393 0.242" stroke="hsl(0.0,100%,35%)" stroke-width="0.00042"></path>
<path d="M0.533 0.254 Q0.147 0.398 0.342 0.617" stroke="hsl(0.0,100%,35%)" stroke-width="0.00250"></path>
<path d="M0.533 0.254 Q0.796 0.312 0.965 0.196" stroke="hsl(0.0,100%,35%)" stroke-width="0.00666"></path>
<path d="M0.869 0.204 Q0.923 0.219 0.965 0.196" stroke="hsl(0.0,100%,35%)" stroke-width="0.00083"></path>
<path d="M0.869 0.204 Q0.718 0.220 0.716 0.296" stroke="hsl(0.0,100%,35%)" stroke-width="0.00042"></path>
<path d="M0.869 0.204 Q0.381 0.436 0.727 0.725" stroke="hsl(0.0,100%,35%)" stroke-width="0.00042"></path>
<path d="M0.716 0.296 Q0.484 0.424 0.683 0.565" stroke="hsl(0.0,100%,35%)" stroke-width="0.00333"></path>
<path d="M0.716 0.296 Q0.921 0.296 0.965 0.196" stroke="hsl(0.0,100%,35%)" stroke-width="0.00915"></path>
<path d="M0.716 0.296 Q0.272 0.382 0.342 0.617" stroke="hsl(0.0,100%,35%)" stroke-width="0.00250"></path>
<path d="M0.716 0.296 Q0.598 0.205 0.393 0.242" stroke="hsl(0.0,100%,35%)" stroke-width="0.00042"></path>
<path d="M0.727 0.725 Q1.269 0.508 0.965 0.196" stroke="hsl(0.0,100%,35%)" stroke-width="0.01748"></path>
<path d="M0.727 0.725 Q0.832 0.636 0.683 0.565" stroke="hsl(0.0,100%,35%)" stroke-width="0.00541"></path>
<path d="M0.727 0.725 Q0.620 0.594 0.342 0.617" stroke="hsl(0.0,100%,35%)" stroke-width="0.01831"></path>
<path d="M0.727 0.725 Q0.865 0.855 1.149 0.815" stroke="hsl(0.0,100%,35%)" stroke-width="0.00083"></path>
<path d="M0.727 0.725 Q0.443 0.770 0.468 0.918" stroke="hsl(0.0,100%,35%)" stroke-width="0.00042"></path>
<path d="M0.727 0.725 Q1.064 0.509 0.716 0.296" stroke="hsl(0.0,100%,35%)" stroke-width="0.00208"></path>
<path d="M0.727 0.725 Q0.592 0.674 0.463 0.728" stroke="hsl(0.0,100%,35%)" stroke-width="0.00042"></path>
<path d="M0.370 0.803 Q0.717 0.747 0.683 0.565" stroke="hsl(0.0,100%,35%)" stroke-width="0.00166"></path>
<path d="M0.370 0.803 Q0.505 0.705 0.342 0.617" stroke="hsl(0.0,100%,35%)" stroke-width="0.00832"></path>
<path d="M0.370 0.803 Q1.153 0.618 0.965 0.196" stroke="hsl(0.0,100%,35%)" stroke-width="0.00749"></path>
<path d="M0.370 0.803 Q0.611 0.835 0.727 0.725" stroke="hsl(0.0,100%,35%)" stroke-width="0.00125"></path>
<path d="M1.661 0.332 Q1.099 0.034 0.393 0.242" stroke="hsl(0.0,100%,35%)" stroke-width="0.00333"></path>
<path d="M1.661 0.332 Q1.422 0.125 0.965 0.196" stroke="hsl(0.0,100%,35%)" stroke-width="0.00999"></path>
<path d="M1.661 0.332 Q0.986 0.253 0.683 0.565" stroke="hsl(0.0,100%,35%)" stroke-width="0.00374"></path>
<path d="M1.661 0.332 Q1.003 0.097 0.399 0.367" stroke="hsl(0.0,100%,35%)" stroke-width="0.00125"></path>
<path d="M1.661 0.332 Q1.046 0.150 0.555 0.410" stroke="hsl(0.0,100%,35%)" stroke-width="0.00083"></path>
<path d="M1.661 0.332 Q0.773 0.211 0.342 0.617" stroke="hsl(0.0,100%,35%)" stroke-width="0.00499"></path>
<path d="M1.661 0.332 Q1.593 0.406 1.721 0.455" stroke="hsl(0.0,100%,35%)" stroke-width="0.00125"></path>
<path d="M1.661 0.332 Q0.948 0.162 0.458 0.472" stroke="hsl(0.0,100%,35%)" stroke-width="0.00042"></path>
<path d="M1.661 0.332 Q1.217 0.125 0.716 0.296" stroke="hsl(0.0,100%,35%)" stroke-width="0.00042"></path>
<path d="M1.721 0.455 Q1.789 0.382 1.661 0.332" stroke="hsl(0.0,100%,35%)" stroke-width="0.00666"></path>
<path d="M1.721 0.455 Q1.131 0.146 0.399 0.367" stroke="hsl(0.0,100%,35%)" stroke-width="0.00416"></path>
<path d="M1.721 0.455 Q1.550 0.174 0.965 0.196" stroke="hsl(0.0,100%,35%)" stroke-width="0.00707"></path>
<path d="M1.721 0.455 Q1.114 0.302 0.683 0.565" stroke="hsl(0.0,100%,35%)" stroke-width="0.00291"></path>
<path d="M1.721 0.455 Q1.227 0.083 0.393 0.242" stroke="hsl(0.0,100%,35%)" stroke-width="0.00083"></path>
<path d="M1.721 0.455 Q0.902 0.260 0.342 0.617" stroke="hsl(0.0,100%,35%)" stroke-width="0.00291"></path>
<path d="M1.721 0.455 Q1.288 0.117 0.533 0.254" stroke="hsl(0.0,100%,35%)" stroke-width="0.00042"></path>
<path d="M1.721 0.455 Q1.345 0.175 0.716 0.296" stroke="hsl(0.0,100%,35%)" stroke-width="0.00125"></path>
<path d="M0.393 0.242 Q0.955 0.541 1.661 0.332" stroke="hsl(0.0,100%,35%)" stroke-width="0.00458"></path>
<path d="M0.393 0.242 Q0.280 0.462 0.683 0.565" stroke="hsl(0.0,100%,35%)" stroke-width="0.00624"></path>
<path d="M0.393 0.242 Q0.716 0.334 0.965 0.196" stroke="hsl(0.0,100%,35%)" stroke-width="0.01540"></path>
<path d="M0.393 0.242 Q0.340 0.359 0.555 0.410" stroke="hsl(0.0,100%,35%)" stroke-width="0.00166"></path>
<path d="M0.393 0.242 Q0.174 0.550 0.727 0.725" stroke="hsl(0.0,100%,35%)" stroke-width="0.00083"></path>
<path d="M0.393 0.242 Q0.297 0.306 0.399 0.367" stroke="hsl(0.0,100%,35%)" stroke-width="0.00042"></path>
<path d="M0.393 0.242 Q0.067 0.420 0.342 0.617" stroke="hsl(0.0,100%,35%)" stroke-width="0.00083"></path>
<path d="M0.393 0.242 Q0.423 0.311 0.562 0.311" stroke="hsl(0.0,100%,35%)" stroke-width="0.00042"></path>
<path d="M0.393 0.242 Q-0.110 0.595 0.468 0.918" stroke="hsl(0.0,100%,35%)" stroke-width="0.00042"></path>
<path d="M0.393 0.242 Q0.511 0.334 0.716 0.296" stroke="hsl(0.0,100%,35%)" stroke-width="0.00125"></path>
<path d="M0.393 0.242 Q0.171 0.281 0.197 0.398" stroke="hsl(0.0,100%,35%)" stroke-width="0.00042"></path>
<path d="M0.555 0.410 Q0.512 0.357 0.399 0.367" stroke="hsl(0.0,100%,35%)" stroke-width="0.00291"></path>
<path d="M0.555 0.410 Q0.495 0.513 0.683 0.565" stroke="hsl(0.0,100%,35%)" stroke-width="0.00666"></path>
<path d="M0.555 0.410 Q1.170 0.592 1.661 0.332" stroke="hsl(0.0,100%,35%)" stroke-width="0.00749"></path>
<path d="M0.555 0.410 Q0.608 0.294 0.393 0.242" stroke="hsl(0.0,100%,35%)" stroke-width="0.00250"></path>
<path d="M0.555 0.410 Q0.283 0.471 0.342 0.617" stroke="hsl(0.0,100%,35%)" stroke-width="0.00541"></path>
<path d="M0.555 0.410 Q0.931 0.385 0.965 0.196" stroke="hsl(0.0,100%,35%)" stroke-width="0.01498"></path>
<path d="M0.555 0.410 Q0.727 0.385 0.716 0.296" stroke="hsl(0.0,100%,35%)" stroke-width="0.00250"></path>
<path d="M0.555 0.410 Q1.103 0.666 1.721 0.455" stroke="hsl(0.0,100%,35%)" stroke-width="0.00042"></path>
<path d="M0.458 0.472 Q0.284 0.522 0.342 0.617" stroke="hsl(0.0,100%,35%)" stroke-width="0.00374"></path>
<path d="M0.458 0.472 Q0.390 0.652 0.727 0.725" stroke="hsl(0.0,100%,35%)" stroke-width="0.00042"></path>
<path d="M0.458 0.472 Q0.496 0.564 0.683 0.565" stroke="hsl(0.0,100%,35%)" stroke-width="0.00042"></path>
<path d="M0.458 0.472 Q0.932 0.435 0.965 0.196" stroke="hsl(0.0,100%,35%)" stroke-width="0.00541"></path>
<path d="M0.458 0.472 Q0.107 0.697 0.468 0.918" stroke="hsl(0.0,100%,35%)" stroke-width="0.00166"></path>
<path d="M1.149 0.815 Q1.552 0.469 0.965 0.196" stroke="hsl(0.0,100%,35%)" stroke-width="0.00083"></path>
<path d="M1.149 0.815 Q0.904 0.555 0.342 0.617" stroke="hsl(0.0,100%,35%)" stroke-width="0.00042"></path>
<path d="M0.524 0.681 Q1.133 0.527 0.965 0.196" stroke="hsl(0.0,100%,35%)" stroke-width="0.00042"></path>
<path d="M0.524 0.681 Q1.304 0.807 1.721 0.455" stroke="hsl(0.0,100%,35%)" stroke-width="0.00042"></path>
<path d="M0.524 0.681 Q0.484 0.613 0.342 0.617" stroke="hsl(0.0,100%,35%)" stroke-width="0.00042"></path>
<path d="M0.566 0.196 Q0.329 0.404 0.683 0.565" stroke="hsl(0.0,100%,35%)" stroke-width="0.00458"></path>
<path d="M0.566 0.196 Q1.004 0.483 1.661 0.332" stroke="hsl(0.0,100%,35%)" stroke-width="0.00291"></path>
<path d="M0.566 0.196 Q0.765 0.276 0.965 0.196" stroke="hsl(0.0,100%,35%)" stroke-width="0.00707"></path>
<path d="M0.566 0.196 Q0.389 0.301 0.555 0.410" stroke="hsl(0.0,100%,35%)" stroke-width="0.00042"></path>
<path d="M0.566 0.196 Q0.117 0.362 0.342 0.617" stroke="hsl(0.0,100%,35%)" stroke-width="0.00042"></path>
<path d="M0.901 0.345 Q1.052 0.283 0.965 0.196" stroke="hsl(0.0,100%,35%)" stroke-width="0.00250"></path>
<path d="M0.901 0.345 Q0.404 0.369 0.342 0.617" stroke="hsl(0.0,100%,35%)" stroke-width="0.00042"></path>
<path d="M0.901 0.345 Q0.616 0.412 0.683 0.565" stroke="hsl(0.0,100%,35%)" stroke-width="0.00083"></path>
<path d="M0.562 0.311 Q0.855 0.334 0.965 0.196" stroke="hsl(0.0,100%,35%)" stroke-width="0.00125"></path>
<path d="M0.562 0.311 Q0.532 0.243 0.393 0.242" stroke="hsl(0.0,100%,35%)" stroke-width="0.00042"></path>
<path d="M0.468 0.918 Q1.294 0.656 0.965 0.196" stroke="hsl(0.0,100%,35%)" stroke-width="0.00125"></path>
<path d="M0.468 0.918 Q0.646 0.742 0.342 0.617" stroke="hsl(0.0,100%,35%)" stroke-width="0.00083"></path>
<path d="M0.306 0.095 Q0.555 0.278 0.965 0.196" stroke="hsl(0.0,100%,35%)" stroke-width="0.01248"></path>
<path d="M0.306 0.095 Q-0.094 0.364 0.342 0.617" stroke="hsl(0.0,100%,35%)" stroke-width="0.00458"></path>
<path d="M0.306 0.095 Q0.118 0.406 0.683 0.565" stroke="hsl(0.0,100%,35%)" stroke-width="0.00166"></path>
<path d="M0.306 0.095 Q0.136 0.250 0.399 0.367" stroke="hsl(0.0,100%,35%)" stroke-width="0.00042"></path>
<path d="M0.306 0.095 Q0.726 0.558 1.721 0.455" stroke="hsl(0.0,100%,35%)" stroke-width="0.00042"></path>
<path d="M0.306 0.095 Q0.794 0.485 1.661 0.332" stroke="hsl(0.0,100%,35%)" stroke-width="0.00042"></path>
<path d="M0.223 0.744 Q1.032 0.618 0.965 0.196" stroke="hsl(0.0,100%,35%)" stroke-width="0.00458"></path>
<path d="M0.223 0.744 Q0.384 0.704 0.342 0.617" stroke="hsl(0.0,100%,35%)" stroke-width="0.00291"></path>
<path d="M0.223 0.744 Q0.629 0.965 1.149 0.815" stroke="hsl(0.0,100%,35%)" stroke-width="0.00083"></path>
<path d="M0.223 0.744 Q0.131 0.762 0.146 0.810" stroke="hsl(0.0,100%,35%)" stroke-width="0.00083"></path>
<path d="M0.463 0.728 Q0.314 0.824 0.468 0.918" stroke="hsl(0.0,100%,35%)" stroke-width="0.00083"></path>
<path d="M0.463 0.728 Q0.491 0.649 0.342 0.617" stroke="hsl(0.0,100%,35%)" stroke-width="0.00374"></path>
<path d="M0.463 0.728 Q1.139 0.563 0.965 0.196" stroke="hsl(0.0,100%,35%)" stroke-width="0.00374"></path>
<path d="M0.463 0.728 Q0.597 0.779 0.727 0.725" stroke="hsl(0.0,100%,35%)" stroke-width="0.00042"></path>
<path d="M0.674 0.374 Q0.699 0.286 0.533 0.254" stroke="hsl(0.0,100%,35%)" stroke-width="0.00083"></path>
<path d="M0.674 0.374 Q0.525 0.471 0.683 0.565" stroke="hsl(0.0,100%,35%)" stroke-width="0.00083"></path>
<path d="M0.674 0.374 Q0.961 0.343 0.965 0.196" stroke="hsl(0.0,100%,35%)" stroke-width="0.00166"></path>
<path d="M0.674 0.374 Q0.542 0.315 0.399 0.367" stroke="hsl(0.0,100%,35%)" stroke-width="0.00042"></path>
<path d="M0.674 0.374 Q0.313 0.429 0.342 0.617" stroke="hsl(0.0,100%,35%)" stroke-width="0.00083"></path>
<path d="M0.577 0.326 Q0.875 0.339 0.965 0.196" stroke="hsl(0.0,100%,35%)" stroke-width="0.00166"></path>
<path d="M0.577 0.326 Q1.114 0.546 1.661 0.332" stroke="hsl(0.0,100%,35%)" stroke-width="0.00042"></path>
<path d="M0.577 0.326 Q0.226 0.425 0.342 0.617" stroke="hsl(0.0,100%,35%)" stroke-width="0.00083"></path>
<path d="M0.577 0.326 Q0.612 0.281 0.533 0.254" stroke="hsl(0.0,100%,35%)" stroke-width="0.00042"></path>
<path d="M0.633 0.211 Q0.269 0.487 0.727 0.725" stroke="hsl(0.0,100%,35%)" stroke-width="0.00042"></path>
<path d="M0.633 0.211 Q0.162 0.356 0.342 0.617" stroke="hsl(0.0,100%,35%)" stroke-width="0.00125"></path>
<path d="M0.633 0.211 Q0.811 0.270 0.965 0.196" stroke="hsl(0.0,100%,35%)" stroke-width="0.00291"></path>
<path d="M0.633 0.211 Q0.375 0.398 0.683 0.565" stroke="hsl(0.0,100%,35%)" stroke-width="0.00042"></path>
<path d="M0.633 0.211 Q-0.015 0.531 0.468 0.918" stroke="hsl(0.0,100%,35%)" stroke-width="0.00083"></path>
<path d="M0.633 0.211 Q0.606 0.270 0.716 0.296" stroke="hsl(0.0,100%,35%)" stroke-width="0.00042"></path>
<path d="M0.140 0.685 Q0.295 0.692 0.342 0.617" stroke="hsl(0.0,100%,35%)" stroke-width="0.00083"></path>
<path d="M0.140 0.685 Q0.943 0.606 0.965 0.196" stroke="hsl(0.0,100%,35%)" stroke-width="0.00125"></path>
<path d="M0.140 0.685 Q0.134 0.731 0.223 0.744" stroke="hsl(0.0,100%,35%)" stroke-width="0.00042"></path>
<path d="M1.267 0.601 Q1.440 0.338 0.965 0.196" stroke="hsl(0.0,100%,35%)" stroke-width="0.00250"></path>
<path d="M1.267 0.601 Q0.792 0.424 0.342 0.617" stroke="hsl(0.0,100%,35%)" stroke-width="0.00250"></path>
<path d="M1.267 0.601 Q0.614 0.600 0.468 0.918" stroke="hsl(0.0,100%,35%)" stroke-width="0.00042"></path>
<path d="M1.267 0.601 Q1.037 0.684 1.149 0.815" stroke="hsl(0.0,100%,35%)" stroke-width="0.00042"></path>
<path d="M1.487 0.463 Q1.003 0.354 0.683 0.565" stroke="hsl(0.0,100%,35%)" stroke-width="0.00042"></path>
<path d="M1.487 0.463 Q0.614 0.487 0.468 0.918" stroke="hsl(0.0,100%,35%)" stroke-width="0.00042"></path>
<path d="M1.487 0.463 Q1.777 0.265 1.453 0.080" stroke="hsl(0.0,100%,35%)" stroke-width="0.00042"></path>
<path d="M1.453 0.080 Q1.116 0.040 0.965 0.196" stroke="hsl(0.0,100%,35%)" stroke-width="0.00042"></path>
<path d="M1.453 0.080 Q0.290 0.302 0.468 0.918" stroke="hsl(0.0,100%,35%)" stroke-width="0.00042"></path>
<path d="M0.542 0.203 Q0.759 0.284 0.965 0.196" stroke="hsl(0.0,100%,35%)" stroke-width="0.00666"></path>
<path d="M0.542 0.203 Q0.111 0.371 0.342 0.617" stroke="hsl(0.0,100%,35%)" stroke-width="0.00208"></path>
<path d="M0.542 0.203 Q0.217 0.501 0.727 0.725" stroke="hsl(0.0,100%,35%)" stroke-width="0.00333"></path>
<path d="M0.170 0.204 Q0.251 0.268 0.393 0.242" stroke="hsl(0.0,100%,35%)" stroke-width="0.00374"></path>
<path d="M0.170 0.204 Q0.574 0.359 0.965 0.196" stroke="hsl(0.0,100%,35%)" stroke-width="0.00999"></path>
<path d="M0.170 0.204 Q-0.075 0.445 0.342 0.617" stroke="hsl(0.0,100%,35%)" stroke-width="0.00042"></path>
<path d="M0.170 0.204 Q0.137 0.487 0.683 0.565" stroke="hsl(0.0,100%,35%)" stroke-width="0.00042"></path>
<path d="M0.170 0.204 Q0.198 0.384 0.555 0.410" stroke="hsl(0.0,100%,35%)" stroke-width="0.00083"></path>
<path d="M0.170 0.204 Q0.745 0.640 1.721 0.455" stroke="hsl(0.0,100%,35%)" stroke-width="0.00042"></path>
<path d="M0.540 0.658 Q0.474 0.598 0.342 0.617" stroke="hsl(0.0,100%,35%)" stroke-width="0.00250"></path>
<path d="M0.540 0.658 Q0.911 0.643 0.962 0.458" stroke="hsl(0.0,100%,35%)" stroke-width="0.00125"></path>
<path d="M0.540 0.658 Q1.122 0.512 0.965 0.196" stroke="hsl(0.0,100%,35%)" stroke-width="0.00166"></path>
<path d="M1.078 0.564 Q0.879 0.485 0.683 0.565" stroke="hsl(0.0,100%,35%)" stroke-width="0.00042"></path>
<path d="M1.078 0.564 Q0.667 0.443 0.342 0.617" stroke="hsl(0.0,100%,35%)" stroke-width="0.00042"></path>
<path d="M1.078 0.564 Q1.315 0.357 0.965 0.196" stroke="hsl(0.0,100%,35%)" stroke-width="0.00042"></path>
<path d="M1.439 0.425 Q1.385 0.216 0.965 0.196" stroke="hsl(0.0,100%,35%)" stroke-width="0.00125"></path>
<path d="M1.439 0.425 Q1.557 0.497 1.721 0.455" stroke="hsl(0.0,100%,35%)" stroke-width="0.00166"></path>
<path d="M1.439 0.425 Q0.966 0.188 0.399 0.367" stroke="hsl(0.0,100%,35%)" stroke-width="0.00042"></path>
<path d="M0.248 0.925 Q0.648 0.921 0.727 0.725" stroke="hsl(0.0,100%,35%)" stroke-width="0.00042"></path>
<path d="M0.248 0.925 Q1.190 0.704 0.965 0.196" stroke="hsl(0.0,100%,35%)" stroke-width="0.00125"></path>
<path d="M0.248 0.925 Q0.216 0.888 0.135 0.895" stroke="hsl(0.0,100%,35%)" stroke-width="0.00083"></path>
<path d="M0.248 0.925 Q0.985 0.704 0.716 0.296" stroke="hsl(0.0,100%,35%)" stroke-width="0.00042"></path>
<path d="M0.922 0.561 Q1.235 0.387 0.965 0.196" stroke="hsl(0.0,100%,35%)" stroke-width="0.00125"></path>
<path d="M0.922 0.561 Q0.409 0.649 0.468 0.918" stroke="hsl(0.0,100%,35%)" stroke-width="0.00042"></path>
<path d="M0.922 0.561 Q0.799 0.515 0.683 0.565" stroke="hsl(0.0,100%,35%)" stroke-width="0.00083"></path>
<path d="M0.922 0.561 Q0.426 0.512 0.223 0.744" stroke="hsl(0.0,100%,35%)" stroke-width="0.00083"></path>
<path d="M0.922 0.561 Q0.587 0.473 0.342 0.617" stroke="hsl(0.0,100%,35%)" stroke-width="0.00083"></path>
</g>
<text x="1.269" y="0.308" font-size="0.012134" fill="hsl(0.0,100%,20%)">aleino</text>
<text x="0.965" y="0.144" font-size="0.104106" fill="hsl(0.0,100%,20%)">jmadill</text>
<text x="0.342" y="0.583" font-size="0.068638" fill="hsl(0.0,100%,20%)">geofflang</text>
<text x="1.097" y="0.404" font-size="0.010642" fill="hsl(0.0,100%,20%)">kkinnunen</text>
<text x="0.856" y="0.674" font-size="0.005829" fill="hsl(0.0,100%,20%)">artyom</text>
<text x="0.683" y="0.527" font-size="0.075849" fill="hsl(0.0,100%,20%)">syoussefi</text>
<text x="0.962" y="0.455" font-size="0.006731" fill="hsl(0.0,100%,20%)">rafael.cintron</text>
<text x="0.488" y="0.106" font-size="0.013034" fill="hsl(0.0,100%,20%)">b.schade</text>
<text x="0.399" y="0.348" font-size="0.036865" fill="hsl(0.0,100%,20%)">cnorthrop</text>
<text x="0.533" y="0.244" font-size="0.021548" fill="hsl(0.0,100%,20%)">m.maiya</text>
<text x="0.869" y="0.201" font-size="0.006731" fill="hsl(0.0,100%,20%)">bsheedy</text>
<text x="0.716" y="0.275" font-size="0.043228" fill="hsl(0.0,100%,20%)">ynovikov</text>
<text x="0.727" y="0.700" font-size="0.050591" fill="hsl(0.0,100%,20%)">jonahr</text>
<text x="0.370" y="0.791" font-size="0.023315" fill="hsl(0.0,100%,20%)">clemendeng</text>
<text x="1.661" y="0.312" font-size="0.041078" fill="hsl(0.0,100%,20%)">courtneygo</text>
<text x="1.721" y="0.439" font-size="0.032279" fill="hsl(0.0,100%,20%)">ianelliott</text>
<text x="0.393" y="0.222" font-size="0.040523" fill="hsl(0.0,100%,20%)">tobine</text>
<text x="0.555" y="0.387" font-size="0.045773" fill="hsl(0.0,100%,20%)">timvp</text>
<text x="0.064" y="0.422" font-size="0.005829" fill="hsl(0.0,100%,20%)">lfy</text>
<text x="0.458" y="0.463" font-size="0.018737" fill="hsl(0.0,100%,20%)">jdarpinian</text>
<text x="1.149" y="0.809" font-size="0.013034" fill="hsl(0.0,100%,20%)">cwallez</text>
<text x="0.524" y="0.678" font-size="0.005829" fill="hsl(0.0,100%,20%)">davidben</text>
<text x="0.566" y="0.185" font-size="0.020745" fill="hsl(0.0,100%,20%)">dongja</text>
<text x="0.901" y="0.340" font-size="0.010642" fill="hsl(0.0,100%,20%)">flibitijibibo</text>
<text x="0.562" y="0.306" font-size="0.010096" fill="hsl(0.0,100%,20%)">sugoi</text>
<text x="0.468" y="0.910" font-size="0.016826" fill="hsl(0.0,100%,20%)">kbr</text>
<text x="0.306" y="0.083" font-size="0.024033" fill="hsl(0.0,100%,20%)">spang</text>
<text x="0.223" y="0.734" font-size="0.019037" fill="hsl(0.0,100%,20%)">jiajia.qin</text>
<text x="0.463" y="0.720" font-size="0.016139" fill="hsl(0.0,100%,20%)">shrekshao</text>
<text x="0.674" y="0.368" font-size="0.011658" fill="hsl(0.0,100%,20%)">hckim.kim</text>
<text x="0.577" y="0.321" font-size="0.009518" fill="hsl(0.0,100%,20%)">j.vigil</text>
<text x="0.633" y="0.204" font-size="0.013034" fill="hsl(0.0,100%,20%)">jgilbert</text>
<text x="0.146" y="0.807" font-size="0.005829" fill="hsl(0.0,100%,20%)">deleted</text>
<text x="0.140" y="0.681" font-size="0.008243" fill="hsl(0.0,100%,20%)">jiawei.shao</text>
<text x="1.267" y="0.595" font-size="0.012592" fill="hsl(0.0,100%,20%)">jie.a.chen</text>
<text x="0.366" y="0.443" font-size="0.003365" fill="hsl(0.0,100%,20%)">amaiorano</text>
<text x="0.375" y="0.452" font-size="0.003365" fill="hsl(0.0,100%,20%)">le.hoang.q</text>
<text x="0.493" y="0.311" font-size="0.004759" fill="hsl(0.0,100%,20%)">brucedawson</text>
<text x="0.135" y="0.892" font-size="0.006731" fill="hsl(0.0,100%,20%)">thakis</text>
<text x="0.197" y="0.396" font-size="0.004759" fill="hsl(0.0,100%,20%)">kainino</text>
<text x="0.244" y="0.327" font-size="0.005829" fill="hsl(0.0,100%,20%)">matavenrath</text>
<text x="1.487" y="0.460" font-size="0.005829" fill="hsl(0.0,100%,20%)">khushalsagar</text>
<text x="1.453" y="0.077" font-size="0.005829" fill="hsl(0.0,100%,20%)">zmo</text>
<text x="0.542" y="0.194" font-size="0.018123" fill="hsl(0.0,100%,20%)">lehoangq</text>
<text x="0.170" y="0.194" font-size="0.020745" fill="hsl(0.0,100%,20%)">lujc</text>
<text x="0.540" y="0.652" font-size="0.012134" fill="hsl(0.0,100%,20%)">mihu</text>
<text x="1.078" y="0.561" font-size="0.005829" fill="hsl(0.0,100%,20%)">shaobo.yan</text>
<text x="0.997" y="0.604" font-size="0.003365" fill="hsl(0.0,100%,20%)">jaedon1.lee</text>
<text x="1.439" y="0.420" font-size="0.010096" fill="hsl(0.0,100%,20%)">xinyi.he</text>
<text x="0.915" y="0.509" font-size="0.004759" fill="hsl(0.0,100%,20%)">sunny.sun</text>
<text x="0.955" y="0.417" font-size="0.003365" fill="hsl(0.0,100%,20%)">fei.yang</text>
<text x="1.071" y="0.585" font-size="0.003365" fill="hsl(0.0,100%,20%)">fjhenigman</text>
<text x="0.248" y="0.921" font-size="0.008904" fill="hsl(0.0,100%,20%)">thomasanderson</text>
<text x="0.922" y="0.555" font-size="0.010642" fill="hsl(0.0,100%,20%)">xinghua.cao</text>
</svg>
