<svg width="4000" height="2000" viewBox="-0.025 -0.025 2.05 1.05" xmlns="http://www.w3.org/2000/svg">
  <style>
    path {
      fill: none;
      stroke-linecap: round;
      stroke-opacity: 0.4;
    }

    text {
      text-anchor: middle;
      alignment-baseline: hanging;
    }
  </style>
  <g opacity="0.4">
<path d="M0.830 0.490 Q0.612 0.636 0.850 0.775" stroke="hsl(0.0,100%,35%)" stroke-width="0.01166"></path>
<path d="M0.830 0.490 Q0.714 0.634 0.970 0.723" stroke="hsl(0.0,100%,35%)" stroke-width="0.02212"></path>
<path d="M0.830 0.490 Q0.471 0.422 0.261 0.583" stroke="hsl(0.0,100%,35%)" stroke-width="0.00161"></path>
<path d="M0.830 0.490 Q0.601 0.371 0.319 0.456" stroke="hsl(0.0,100%,35%)" stroke-width="0.00764"></path>
<path d="M0.830 0.490 Q1.156 0.411 1.074 0.236" stroke="hsl(0.0,100%,35%)" stroke-width="0.00080"></path>
<path d="M0.830 0.490 Q0.893 0.718 1.352 0.738" stroke="hsl(0.0,100%,35%)" stroke-width="0.00040"></path>
<path d="M0.830 0.490 Q0.876 0.583 1.068 0.581" stroke="hsl(0.0,100%,35%)" stroke-width="0.00040"></path>
<path d="M0.830 0.490 Q0.766 0.756 1.272 0.846" stroke="hsl(0.0,100%,35%)" stroke-width="0.00080"></path>
<path d="M0.850 0.775 Q0.952 0.773 0.970 0.723" stroke="hsl(0.0,100%,35%)" stroke-width="0.04867"></path>
<path d="M0.850 0.775 Q0.924 0.833 1.053 0.809" stroke="hsl(0.0,100%,35%)" stroke-width="0.00121"></path>
<path d="M0.850 0.775 Q1.068 0.629 0.830 0.490" stroke="hsl(0.0,100%,35%)" stroke-width="0.01408"></path>
<path d="M0.850 0.775 Q0.728 0.686 0.528 0.727" stroke="hsl(0.0,100%,35%)" stroke-width="0.00845"></path>
<path d="M0.850 0.775 Q1.114 0.722 1.068 0.581" stroke="hsl(0.0,100%,35%)" stroke-width="0.00804"></path>
<path d="M0.850 0.775 Q0.709 0.561 0.261 0.583" stroke="hsl(0.0,100%,35%)" stroke-width="0.00724"></path>
<path d="M0.850 0.775 Q0.596 0.695 0.383 0.801" stroke="hsl(0.0,100%,35%)" stroke-width="0.00161"></path>
<path d="M0.850 0.775 Q1.004 0.895 1.272 0.846" stroke="hsl(0.0,100%,35%)" stroke-width="0.00121"></path>
<path d="M0.850 0.775 Q1.393 0.550 1.074 0.236" stroke="hsl(0.0,100%,35%)" stroke-width="0.00080"></path>
<path d="M0.850 0.775 Q0.839 0.509 0.319 0.456" stroke="hsl(0.0,100%,35%)" stroke-width="0.00080"></path>
<path d="M0.970 0.723 Q1.086 0.578 0.830 0.490" stroke="hsl(0.0,100%,35%)" stroke-width="0.01207"></path>
<path d="M0.970 0.723 Q0.868 0.725 0.850 0.775" stroke="hsl(0.0,100%,35%)" stroke-width="0.04103"></path>
<path d="M0.970 0.723 Q1.132 0.671 1.068 0.581" stroke="hsl(0.0,100%,35%)" stroke-width="0.02976"></path>
<path d="M0.970 0.723 Q1.022 0.845 1.272 0.846" stroke="hsl(0.0,100%,35%)" stroke-width="0.03218"></path>
<path d="M0.970 0.723 Q0.942 0.783 1.053 0.809" stroke="hsl(0.0,100%,35%)" stroke-width="0.00402"></path>
<path d="M0.970 0.723 Q1.411 0.500 1.074 0.236" stroke="hsl(0.0,100%,35%)" stroke-width="0.00644"></path>
<path d="M0.970 0.723 Q0.936 0.823 1.125 0.861" stroke="hsl(0.0,100%,35%)" stroke-width="0.00080"></path>
<path d="M0.970 0.723 Q1.419 0.917 1.897 0.741" stroke="hsl(0.0,100%,35%)" stroke-width="0.00121"></path>
<path d="M0.970 0.723 Q0.857 0.459 0.319 0.456" stroke="hsl(0.0,100%,35%)" stroke-width="0.00322"></path>
<path d="M0.970 0.723 Q1.149 0.807 1.352 0.738" stroke="hsl(0.0,100%,35%)" stroke-width="0.00040"></path>
<path d="M0.970 0.723 Q1.157 0.719 1.191 0.627" stroke="hsl(0.0,100%,35%)" stroke-width="0.00040"></path>
<path d="M0.970 0.723 Q0.727 0.511 0.261 0.583" stroke="hsl(0.0,100%,35%)" stroke-width="0.01086"></path>
<path d="M0.970 0.723 Q0.723 0.805 0.829 0.943" stroke="hsl(0.0,100%,35%)" stroke-width="0.00080"></path>
<path d="M0.970 0.723 Q0.844 0.730 0.830 0.793" stroke="hsl(0.0,100%,35%)" stroke-width="0.00080"></path>
<path d="M0.970 0.723 Q1.076 0.615 0.889 0.540" stroke="hsl(0.0,100%,35%)" stroke-width="0.00040"></path>
<path d="M0.970 0.723 Q0.805 0.812 0.943 0.912" stroke="hsl(0.0,100%,35%)" stroke-width="0.00040"></path>
<path d="M0.970 0.723 Q1.030 0.605 0.814 0.550" stroke="hsl(0.0,100%,35%)" stroke-width="0.00080"></path>
<path d="M0.261 0.583 Q0.503 0.794 0.970 0.723" stroke="hsl(0.0,100%,35%)" stroke-width="0.02574"></path>
<path d="M0.261 0.583 Q0.945 0.572 1.074 0.236" stroke="hsl(0.0,100%,35%)" stroke-width="0.00563"></path>
<path d="M0.261 0.583 Q0.620 0.650 0.830 0.490" stroke="hsl(0.0,100%,35%)" stroke-width="0.00764"></path>
<path d="M0.261 0.583 Q0.391 0.531 0.319 0.456" stroke="hsl(0.0,100%,35%)" stroke-width="0.01609"></path>
<path d="M0.261 0.583 Q0.666 0.743 1.068 0.581" stroke="hsl(0.0,100%,35%)" stroke-width="0.00442"></path>
<path d="M0.261 0.583 Q0.556 0.917 1.272 0.846" stroke="hsl(0.0,100%,35%)" stroke-width="0.00080"></path>
<path d="M0.261 0.583 Q0.401 0.797 0.850 0.775" stroke="hsl(0.0,100%,35%)" stroke-width="0.00523"></path>
<path d="M0.261 0.583 Q0.600 0.552 0.615 0.380" stroke="hsl(0.0,100%,35%)" stroke-width="0.00040"></path>
<path d="M0.261 0.583 Q0.952 0.989 1.897 0.741" stroke="hsl(0.0,100%,35%)" stroke-width="0.00040"></path>
<path d="M0.261 0.583 Q0.564 0.677 0.814 0.550" stroke="hsl(0.0,100%,35%)" stroke-width="0.00040"></path>
<path d="M0.319 0.456 Q0.355 0.355 0.166 0.315" stroke="hsl(0.0,100%,35%)" stroke-width="0.00322"></path>
<path d="M0.319 0.456 Q0.647 0.486 0.778 0.333" stroke="hsl(0.0,100%,35%)" stroke-width="0.00201"></path>
<path d="M0.319 0.456 Q0.189 0.508 0.261 0.583" stroke="hsl(0.0,100%,35%)" stroke-width="0.00845"></path>
<path d="M0.319 0.456 Q0.431 0.720 0.970 0.723" stroke="hsl(0.0,100%,35%)" stroke-width="0.00282"></path>
<path d="M0.319 0.456 Q0.873 0.497 1.074 0.236" stroke="hsl(0.0,100%,35%)" stroke-width="0.00161"></path>
<path d="M0.319 0.456 Q0.646 0.414 0.635 0.245" stroke="hsl(0.0,100%,35%)" stroke-width="0.00080"></path>
<path d="M0.319 0.456 Q0.610 0.804 1.352 0.738" stroke="hsl(0.0,100%,35%)" stroke-width="0.00040"></path>
<path d="M0.319 0.456 Q0.329 0.722 0.850 0.775" stroke="hsl(0.0,100%,35%)" stroke-width="0.00121"></path>
<path d="M0.319 0.456 Q0.547 0.576 0.830 0.490" stroke="hsl(0.0,100%,35%)" stroke-width="0.00040"></path>
<path d="M1.074 0.236 Q0.632 0.458 0.970 0.723" stroke="hsl(0.0,100%,35%)" stroke-width="0.00442"></path>
<path d="M1.074 0.236 Q0.685 0.581 1.272 0.846" stroke="hsl(0.0,100%,35%)" stroke-width="0.00282"></path>
<path d="M1.074 0.236 Q0.922 0.301 1.016 0.390" stroke="hsl(0.0,100%,35%)" stroke-width="0.00684"></path>
<path d="M1.074 0.236 Q0.692 0.341 0.814 0.550" stroke="hsl(0.0,100%,35%)" stroke-width="0.00121"></path>
<path d="M1.074 0.236 Q0.794 0.407 1.068 0.581" stroke="hsl(0.0,100%,35%)" stroke-width="0.00121"></path>
<path d="M1.074 0.236 Q0.390 0.247 0.261 0.583" stroke="hsl(0.0,100%,35%)" stroke-width="0.00563"></path>
<path d="M1.074 0.236 Q0.520 0.195 0.319 0.456" stroke="hsl(0.0,100%,35%)" stroke-width="0.00121"></path>
<path d="M1.074 0.236 Q0.623 0.351 0.749 0.597" stroke="hsl(0.0,100%,35%)" stroke-width="0.00040"></path>
<path d="M1.074 0.236 Q0.530 0.461 0.850 0.775" stroke="hsl(0.0,100%,35%)" stroke-width="0.00040"></path>
<path d="M1.074 0.236 Q0.749 0.314 0.830 0.490" stroke="hsl(0.0,100%,35%)" stroke-width="0.00040"></path>
<path d="M1.352 0.738 Q1.173 0.654 0.970 0.723" stroke="hsl(0.0,100%,35%)" stroke-width="0.00483"></path>
<path d="M1.352 0.738 Q1.071 0.656 0.850 0.775" stroke="hsl(0.0,100%,35%)" stroke-width="0.00080"></path>
<path d="M1.352 0.738 Q1.060 0.390 0.319 0.456" stroke="hsl(0.0,100%,35%)" stroke-width="0.00121"></path>
<path d="M1.352 0.738 Q1.335 0.603 1.068 0.581" stroke="hsl(0.0,100%,35%)" stroke-width="0.00040"></path>
<path d="M1.352 0.738 Q0.930 0.442 0.261 0.583" stroke="hsl(0.0,100%,35%)" stroke-width="0.00080"></path>
<path d="M1.352 0.738 Q0.872 0.970 1.219 1.255" stroke="hsl(0.0,100%,35%)" stroke-width="0.00040"></path>
<path d="M1.068 0.581 Q1.022 0.488 0.830 0.490" stroke="hsl(0.0,100%,35%)" stroke-width="0.00402"></path>
<path d="M1.068 0.581 Q0.906 0.632 0.970 0.723" stroke="hsl(0.0,100%,35%)" stroke-width="0.00804"></path>
<path d="M1.068 0.581 Q1.120 0.326 0.635 0.245" stroke="hsl(0.0,100%,35%)" stroke-width="0.00040"></path>
<path d="M1.068 0.581 Q1.347 0.410 1.074 0.236" stroke="hsl(0.0,100%,35%)" stroke-width="0.00121"></path>
<path d="M1.068 0.581 Q0.663 0.421 0.261 0.583" stroke="hsl(0.0,100%,35%)" stroke-width="0.00362"></path>
<path d="M1.068 0.581 Q0.804 0.635 0.850 0.775" stroke="hsl(0.0,100%,35%)" stroke-width="0.00362"></path>
<path d="M1.068 0.581 Q1.084 0.716 1.352 0.738" stroke="hsl(0.0,100%,35%)" stroke-width="0.00040"></path>
<path d="M1.068 0.581 Q0.966 0.515 0.814 0.550" stroke="hsl(0.0,100%,35%)" stroke-width="0.00040"></path>
<path d="M1.272 0.846 Q1.220 0.724 0.970 0.723" stroke="hsl(0.0,100%,35%)" stroke-width="0.02735"></path>
<path d="M1.272 0.846 Q1.407 0.720 1.191 0.627" stroke="hsl(0.0,100%,35%)" stroke-width="0.00362"></path>
<path d="M1.272 0.846 Q1.553 0.750 1.428 0.592" stroke="hsl(0.0,100%,35%)" stroke-width="0.00201"></path>
<path d="M1.272 0.846 Q0.977 0.512 0.261 0.583" stroke="hsl(0.0,100%,35%)" stroke-width="0.00121"></path>
<path d="M1.272 0.846 Q1.669 0.919 1.897 0.741" stroke="hsl(0.0,100%,35%)" stroke-width="0.00121"></path>
<path d="M1.272 0.846 Q1.164 0.897 1.240 0.961" stroke="hsl(0.0,100%,35%)" stroke-width="0.00161"></path>
<path d="M1.272 0.846 Q1.094 0.731 0.830 0.793" stroke="hsl(0.0,100%,35%)" stroke-width="0.00201"></path>
<path d="M1.272 0.846 Q1.118 0.726 0.850 0.775" stroke="hsl(0.0,100%,35%)" stroke-width="0.00040"></path>
<path d="M1.272 0.846 Q1.662 0.501 1.074 0.236" stroke="hsl(0.0,100%,35%)" stroke-width="0.00322"></path>
<path d="M1.272 0.846 Q1.097 0.860 1.087 0.949" stroke="hsl(0.0,100%,35%)" stroke-width="0.00040"></path>
<path d="M1.272 0.846 Q1.382 0.673 1.068 0.581" stroke="hsl(0.0,100%,35%)" stroke-width="0.00121"></path>
<path d="M1.272 0.846 Q1.107 0.460 0.319 0.456" stroke="hsl(0.0,100%,35%)" stroke-width="0.00201"></path>
<path d="M1.272 0.846 Q1.220 0.913 1.339 0.953" stroke="hsl(0.0,100%,35%)" stroke-width="0.00080"></path>
<path d="M1.272 0.846 Q1.210 0.617 0.749 0.597" stroke="hsl(0.0,100%,35%)" stroke-width="0.00040"></path>
<path d="M1.272 0.846 Q1.336 0.580 0.830 0.490" stroke="hsl(0.0,100%,35%)" stroke-width="0.00121"></path>
<path d="M1.272 0.846 Q1.111 0.787 0.962 0.853" stroke="hsl(0.0,100%,35%)" stroke-width="0.00040"></path>
<path d="M1.272 0.846 Q1.064 0.839 1.005 0.940" stroke="hsl(0.0,100%,35%)" stroke-width="0.00040"></path>
<path d="M1.579 0.199 Q1.297 0.116 1.074 0.236" stroke="hsl(0.0,100%,35%)" stroke-width="0.00040"></path>
<path d="M1.579 0.199 Q1.680 0.238 1.779 0.198" stroke="hsl(0.0,100%,35%)" stroke-width="0.00040"></path>
<path d="M1.579 0.199 Q0.855 0.339 0.970 0.723" stroke="hsl(0.0,100%,35%)" stroke-width="0.00040"></path>
<path d="M0.524 0.338 Q0.881 0.397 1.074 0.236" stroke="hsl(0.0,100%,35%)" stroke-width="0.00040"></path>
<path d="M0.524 0.338 Q0.327 0.356 0.319 0.456" stroke="hsl(0.0,100%,35%)" stroke-width="0.00080"></path>
<path d="M0.524 0.338 Q0.197 0.408 0.261 0.583" stroke="hsl(0.0,100%,35%)" stroke-width="0.00040"></path>
<path d="M1.016 0.390 Q1.168 0.324 1.074 0.236" stroke="hsl(0.0,100%,35%)" stroke-width="0.00201"></path>
<path d="M1.016 0.390 Q0.779 0.669 1.272 0.846" stroke="hsl(0.0,100%,35%)" stroke-width="0.00040"></path>
<path d="M1.016 0.390 Q1.156 0.406 1.218 0.341" stroke="hsl(0.0,100%,35%)" stroke-width="0.00040"></path>
<path d="M1.053 0.809 Q1.081 0.749 0.970 0.723" stroke="hsl(0.0,100%,35%)" stroke-width="0.03097"></path>
<path d="M1.053 0.809 Q0.979 0.751 0.850 0.775" stroke="hsl(0.0,100%,35%)" stroke-width="0.01006"></path>
<path d="M1.053 0.809 Q1.197 0.605 0.830 0.490" stroke="hsl(0.0,100%,35%)" stroke-width="0.00040"></path>
<path d="M1.053 0.809 Q1.243 0.698 1.068 0.581" stroke="hsl(0.0,100%,35%)" stroke-width="0.00080"></path>
<path d="M1.053 0.809 Q1.133 0.871 1.272 0.846" stroke="hsl(0.0,100%,35%)" stroke-width="0.00121"></path>
<path d="M1.053 0.809 Q0.968 0.486 0.319 0.456" stroke="hsl(0.0,100%,35%)" stroke-width="0.00040"></path>
<path d="M0.528 0.727 Q0.650 0.815 0.850 0.775" stroke="hsl(0.0,100%,35%)" stroke-width="0.00282"></path>
<path d="M0.528 0.727 Q0.640 0.550 0.319 0.456" stroke="hsl(0.0,100%,35%)" stroke-width="0.00080"></path>
<path d="M0.528 0.727 Q0.752 0.813 0.970 0.723" stroke="hsl(0.0,100%,35%)" stroke-width="0.00121"></path>
<path d="M0.383 0.801 Q0.856 0.735 0.830 0.490" stroke="hsl(0.0,100%,35%)" stroke-width="0.00201"></path>
<path d="M0.383 0.801 Q0.638 0.881 0.850 0.775" stroke="hsl(0.0,100%,35%)" stroke-width="0.00402"></path>
<path d="M0.383 0.801 Q0.740 0.879 0.970 0.723" stroke="hsl(0.0,100%,35%)" stroke-width="0.00241"></path>
<path d="M0.383 0.801 Q1.181 0.657 1.074 0.236" stroke="hsl(0.0,100%,35%)" stroke-width="0.00040"></path>
<path d="M0.166 0.315 Q0.129 0.416 0.319 0.456" stroke="hsl(0.0,100%,35%)" stroke-width="0.01046"></path>
<path d="M0.166 0.315 Q0.242 0.680 0.970 0.723" stroke="hsl(0.0,100%,35%)" stroke-width="0.00161"></path>
<path d="M0.166 0.315 Q-0.001 0.468 0.261 0.583" stroke="hsl(0.0,100%,35%)" stroke-width="0.00121"></path>
<path d="M0.166 0.315 Q0.684 0.457 1.074 0.236" stroke="hsl(0.0,100%,35%)" stroke-width="0.00040"></path>
<path d="M0.778 0.333 Q0.449 0.303 0.319 0.456" stroke="hsl(0.0,100%,35%)" stroke-width="0.00282"></path>
<path d="M0.778 0.333 Q0.319 0.354 0.261 0.583" stroke="hsl(0.0,100%,35%)" stroke-width="0.00040"></path>
<path d="M0.778 0.333 Q1.004 0.343 1.074 0.236" stroke="hsl(0.0,100%,35%)" stroke-width="0.00040"></path>
<path d="M0.778 0.333 Q0.562 0.566 0.970 0.723" stroke="hsl(0.0,100%,35%)" stroke-width="0.00040"></path>
<path d="M0.473 0.629 Q0.404 0.564 0.261 0.583" stroke="hsl(0.0,100%,35%)" stroke-width="0.00121"></path>
<path d="M0.473 0.629 Q0.647 0.775 0.970 0.723" stroke="hsl(0.0,100%,35%)" stroke-width="0.00040"></path>
<path d="M0.473 0.629 Q1.089 0.553 1.074 0.236" stroke="hsl(0.0,100%,35%)" stroke-width="0.00040"></path>
<path d="M0.594 0.481 Q0.589 0.677 0.970 0.723" stroke="hsl(0.0,100%,35%)" stroke-width="0.00080"></path>
<path d="M0.594 0.481 Q0.342 0.759 0.829 0.943" stroke="hsl(0.0,100%,35%)" stroke-width="0.00040"></path>
<path d="M0.594 0.481 Q1.030 0.454 1.074 0.236" stroke="hsl(0.0,100%,35%)" stroke-width="0.00040"></path>
<path d="M0.594 0.481 Q1.038 0.871 1.897 0.741" stroke="hsl(0.0,100%,35%)" stroke-width="0.00040"></path>
<path d="M0.594 0.481 Q0.641 0.799 1.272 0.846" stroke="hsl(0.0,100%,35%)" stroke-width="0.00040"></path>
<path d="M0.829 0.943 Q1.128 0.983 1.272 0.846" stroke="hsl(0.0,100%,35%)" stroke-width="0.00684"></path>
<path d="M0.829 0.943 Q1.525 1.055 1.897 0.741" stroke="hsl(0.0,100%,35%)" stroke-width="0.00523"></path>
<path d="M0.829 0.943 Q1.031 1.004 1.195 0.919" stroke="hsl(0.0,100%,35%)" stroke-width="0.00040"></path>
<path d="M0.829 0.943 Q0.950 0.868 0.830 0.793" stroke="hsl(0.0,100%,35%)" stroke-width="0.00040"></path>
<path d="M0.513 0.348 Q0.199 0.415 0.261 0.583" stroke="hsl(0.0,100%,35%)" stroke-width="0.00040"></path>
<path d="M0.513 0.348 Q0.604 0.575 1.068 0.581" stroke="hsl(0.0,100%,35%)" stroke-width="0.00040"></path>
<path d="M0.513 0.348 Q0.442 0.627 0.970 0.723" stroke="hsl(0.0,100%,35%)" stroke-width="0.00040"></path>
<path d="M1.191 0.627 Q1.337 0.657 1.428 0.592" stroke="hsl(0.0,100%,35%)" stroke-width="0.00523"></path>
<path d="M1.191 0.627 Q1.004 0.630 0.970 0.723" stroke="hsl(0.0,100%,35%)" stroke-width="0.00845"></path>
<path d="M1.191 0.627 Q1.056 0.753 1.272 0.846" stroke="hsl(0.0,100%,35%)" stroke-width="0.00362"></path>
<path d="M1.191 0.627 Q0.761 0.419 0.261 0.583" stroke="hsl(0.0,100%,35%)" stroke-width="0.00040"></path>
<path d="M1.191 0.627 Q1.526 0.329 1.018 0.100" stroke="hsl(0.0,100%,35%)" stroke-width="0.00040"></path>
<path d="M1.428 0.592 Q1.282 0.562 1.191 0.627" stroke="hsl(0.0,100%,35%)" stroke-width="0.00322"></path>
<path d="M1.428 0.592 Q1.095 0.566 0.970 0.723" stroke="hsl(0.0,100%,35%)" stroke-width="0.00442"></path>
<path d="M1.428 0.592 Q1.147 0.688 1.272 0.846" stroke="hsl(0.0,100%,35%)" stroke-width="0.00161"></path>
<path d="M0.830 0.793 Q1.405 0.980 1.897 0.741" stroke="hsl(0.0,100%,35%)" stroke-width="0.01327"></path>
<path d="M0.830 0.793 Q0.956 0.786 0.970 0.723" stroke="hsl(0.0,100%,35%)" stroke-width="0.02775"></path>
<path d="M0.830 0.793 Q0.709 0.868 0.829 0.943" stroke="hsl(0.0,100%,35%)" stroke-width="0.00442"></path>
<path d="M0.830 0.793 Q1.256 0.935 1.627 0.759" stroke="hsl(0.0,100%,35%)" stroke-width="0.00241"></path>
<path d="M0.830 0.793 Q1.008 0.908 1.272 0.846" stroke="hsl(0.0,100%,35%)" stroke-width="0.01528"></path>
<path d="M0.830 0.793 Q1.397 0.563 1.074 0.236" stroke="hsl(0.0,100%,35%)" stroke-width="0.00040"></path>
<path d="M0.830 0.793 Q1.257 1.046 1.845 0.893" stroke="hsl(0.0,100%,35%)" stroke-width="0.00040"></path>
<path d="M0.830 0.793 Q1.118 0.735 1.068 0.581" stroke="hsl(0.0,100%,35%)" stroke-width="0.00040"></path>
<path d="M0.830 0.793 Q0.854 0.788 0.850 0.775" stroke="hsl(0.0,100%,35%)" stroke-width="0.00040"></path>
<path d="M0.749 0.597 Q0.759 0.704 0.970 0.723" stroke="hsl(0.0,100%,35%)" stroke-width="0.00483"></path>
<path d="M0.749 0.597 Q1.201 0.481 1.074 0.236" stroke="hsl(0.0,100%,35%)" stroke-width="0.00040"></path>
<path d="M0.749 0.597 Q0.811 0.826 1.272 0.846" stroke="hsl(0.0,100%,35%)" stroke-width="0.00161"></path>
<path d="M0.749 0.597 Q0.657 0.706 0.850 0.775" stroke="hsl(0.0,100%,35%)" stroke-width="0.00040"></path>
<path d="M0.749 0.597 Q0.921 0.653 1.068 0.581" stroke="hsl(0.0,100%,35%)" stroke-width="0.00040"></path>
<path d="M0.749 0.597 Q1.208 0.898 1.897 0.741" stroke="hsl(0.0,100%,35%)" stroke-width="0.00040"></path>
<path d="M0.749 0.597 Q0.875 0.560 0.830 0.490" stroke="hsl(0.0,100%,35%)" stroke-width="0.00040"></path>
<path d="M1.333 0.709 Q1.193 0.766 1.272 0.846" stroke="hsl(0.0,100%,35%)" stroke-width="0.00040"></path>
<path d="M1.333 0.709 Q1.590 0.838 1.897 0.741" stroke="hsl(0.0,100%,35%)" stroke-width="0.00040"></path>
<path d="M1.333 0.709 Q0.894 0.725 0.829 0.943" stroke="hsl(0.0,100%,35%)" stroke-width="0.00040"></path>
<path d="M0.762 0.044 Q0.323 0.425 0.970 0.723" stroke="hsl(0.0,100%,35%)" stroke-width="0.00080"></path>
<path d="M0.762 0.044 Q0.624 0.068 0.641 0.141" stroke="hsl(0.0,100%,35%)" stroke-width="0.00040"></path>
<path d="M0.762 0.044 Q0.221 0.427 0.850 0.775" stroke="hsl(0.0,100%,35%)" stroke-width="0.00040"></path>
<path d="M0.889 0.540 Q0.681 0.650 0.850 0.775" stroke="hsl(0.0,100%,35%)" stroke-width="0.00402"></path>
<path d="M0.889 0.540 Q0.783 0.647 0.970 0.723" stroke="hsl(0.0,100%,35%)" stroke-width="0.01006"></path>
<path d="M0.889 0.540 Q0.835 0.770 1.272 0.846" stroke="hsl(0.0,100%,35%)" stroke-width="0.00121"></path>
<path d="M0.889 0.540 Q0.756 0.707 1.053 0.809" stroke="hsl(0.0,100%,35%)" stroke-width="0.00121"></path>
<path d="M0.889 0.540 Q0.540 0.436 0.261 0.583" stroke="hsl(0.0,100%,35%)" stroke-width="0.00040"></path>
<path d="M0.745 0.945 Q1.088 1.001 1.272 0.846" stroke="hsl(0.0,100%,35%)" stroke-width="0.00080"></path>
<path d="M0.745 0.945 Q0.815 0.995 0.928 0.972" stroke="hsl(0.0,100%,35%)" stroke-width="0.00040"></path>
<path d="M0.745 0.945 Q1.035 0.879 0.970 0.723" stroke="hsl(0.0,100%,35%)" stroke-width="0.00080"></path>
<path d="M1.709 0.963 Q1.584 0.817 1.272 0.846" stroke="hsl(0.0,100%,35%)" stroke-width="0.00080"></path>
<path d="M1.709 0.963 Q1.981 0.890 1.897 0.741" stroke="hsl(0.0,100%,35%)" stroke-width="0.00080"></path>
<path d="M1.709 0.963 Q1.532 0.695 0.970 0.723" stroke="hsl(0.0,100%,35%)" stroke-width="0.00080"></path>
<path d="M1.627 0.759 Q1.379 0.731 1.272 0.846" stroke="hsl(0.0,100%,35%)" stroke-width="0.00201"></path>
<path d="M1.627 0.759 Q1.327 0.609 0.970 0.723" stroke="hsl(0.0,100%,35%)" stroke-width="0.00684"></path>
<path d="M1.627 0.759 Q1.776 0.804 1.897 0.741" stroke="hsl(0.0,100%,35%)" stroke-width="0.00644"></path>
<path d="M1.627 0.759 Q1.201 0.616 0.830 0.793" stroke="hsl(0.0,100%,35%)" stroke-width="0.00080"></path>
<path d="M1.627 0.759 Q1.081 0.691 0.829 0.943" stroke="hsl(0.0,100%,35%)" stroke-width="0.00080"></path>
<path d="M1.627 0.759 Q1.629 0.869 1.845 0.893" stroke="hsl(0.0,100%,35%)" stroke-width="0.00040"></path>
<path d="M1.573 0.894 Q1.858 0.882 1.897 0.741" stroke="hsl(0.0,100%,35%)" stroke-width="0.00080"></path>
<path d="M1.573 0.894 Q1.283 0.695 0.830 0.793" stroke="hsl(0.0,100%,35%)" stroke-width="0.00040"></path>
<path d="M1.573 0.894 Q1.409 0.688 0.970 0.723" stroke="hsl(0.0,100%,35%)" stroke-width="0.00121"></path>
<path d="M1.573 0.894 Q1.709 0.837 1.627 0.759" stroke="hsl(0.0,100%,35%)" stroke-width="0.00080"></path>
<path d="M1.018 0.100 Q0.658 0.351 1.068 0.581" stroke="hsl(0.0,100%,35%)" stroke-width="0.00040"></path>
<path d="M1.018 0.100 Q0.496 0.402 0.970 0.723" stroke="hsl(0.0,100%,35%)" stroke-width="0.00080"></path>
<path d="M1.018 0.100 Q0.938 0.179 1.074 0.236" stroke="hsl(0.0,100%,35%)" stroke-width="0.00121"></path>
<path d="M1.018 0.100 Q1.123 0.097 1.139 0.045" stroke="hsl(0.0,100%,35%)" stroke-width="0.00040"></path>
<path d="M1.709 0.947 Q1.519 0.687 0.970 0.723" stroke="hsl(0.0,100%,35%)" stroke-width="0.00080"></path>
<path d="M1.709 0.947 Q1.819 0.837 1.627 0.759" stroke="hsl(0.0,100%,35%)" stroke-width="0.00161"></path>
<path d="M1.709 0.947 Q1.572 0.809 1.272 0.846" stroke="hsl(0.0,100%,35%)" stroke-width="0.00080"></path>
<path d="M0.814 0.550 Q0.916 0.616 1.068 0.581" stroke="hsl(0.0,100%,35%)" stroke-width="0.00241"></path>
<path d="M0.814 0.550 Q1.195 0.445 1.074 0.236" stroke="hsl(0.0,100%,35%)" stroke-width="0.00080"></path>
<path d="M0.814 0.550 Q0.754 0.667 0.970 0.723" stroke="hsl(0.0,100%,35%)" stroke-width="0.00121"></path>
<path d="M0.814 0.550 Q0.641 0.404 0.319 0.456" stroke="hsl(0.0,100%,35%)" stroke-width="0.00040"></path>
<path d="M0.810 0.252 Q0.271 0.307 0.261 0.583" stroke="hsl(0.0,100%,35%)" stroke-width="0.00040"></path>
<path d="M0.810 0.252 Q0.955 0.296 1.074 0.236" stroke="hsl(0.0,100%,35%)" stroke-width="0.00362"></path>
<path d="M0.810 0.252 Q0.962 0.714 1.897 0.741" stroke="hsl(0.0,100%,35%)" stroke-width="0.00040"></path>
</g>
<text x="0.830" y="0.465" font-size="0.048963" fill="hsl(0.0,100%,20%)">abdolrashidi</text>
<text x="0.850" y="0.740" font-size="0.069717" fill="hsl(0.0,100%,20%)">cclao</text>
<text x="0.970" y="0.671" font-size="0.103945" fill="hsl(0.0,100%,20%)">syoussefi</text>
<text x="0.261" y="0.555" font-size="0.054967" fill="hsl(0.0,100%,20%)">romanl</text>
<text x="0.319" y="0.435" font-size="0.043266" fill="hsl(0.0,100%,20%)">cnorthrop</text>
<text x="1.074" y="0.216" font-size="0.038867" fill="hsl(0.0,100%,20%)">ynovikov</text>
<text x="1.352" y="0.729" font-size="0.016543" fill="hsl(0.0,100%,20%)">zzyiwei</text>
<text x="1.068" y="0.559" font-size="0.044266" fill="hsl(0.0,100%,20%)">yuxinhu</text>
<text x="1.272" y="0.817" font-size="0.058160" fill="hsl(0.0,100%,20%)">geofflang</text>
<text x="1.579" y="0.196" font-size="0.005731" fill="hsl(0.0,100%,20%)">agrieve</text>
<text x="1.779" y="0.196" font-size="0.003309" fill="hsl(0.0,100%,20%)">smaier</text>
<text x="0.524" y="0.335" font-size="0.006617" fill="hsl(0.0,100%,20%)">banisingh</text>
<text x="1.016" y="0.382" font-size="0.016209" fill="hsl(0.0,100%,20%)">bsheedy</text>
<text x="1.218" y="0.339" font-size="0.003309" fill="hsl(0.0,100%,20%)">chanli</text>
<text x="1.053" y="0.791" font-size="0.036991" fill="hsl(0.0,100%,20%)">m.maiya</text>
<text x="0.528" y="0.717" font-size="0.019007" fill="hsl(0.0,100%,20%)">chrisforbes</text>
<text x="0.383" y="0.793" font-size="0.016871" fill="hsl(0.0,100%,20%)">hailinzhang</text>
<text x="0.166" y="0.305" font-size="0.021442" fill="hsl(0.0,100%,20%)">mark</text>
<text x="0.778" y="0.326" font-size="0.012814" fill="hsl(0.0,100%,20%)">mikes</text>
<text x="0.635" y="0.242" font-size="0.005731" fill="hsl(0.0,100%,20%)">lpy</text>
<text x="0.473" y="0.626" font-size="0.007398" fill="hsl(0.0,100%,20%)">dextero</text>
<text x="0.594" y="0.477" font-size="0.008104" fill="hsl(0.0,100%,20%)">djg</text>
<text x="0.829" y="0.931" font-size="0.023160" fill="hsl(0.0,100%,20%)">lehoangquyen</text>
<text x="1.897" y="0.726" font-size="0.029033" fill="hsl(0.0,100%,20%)">kbr</text>
<text x="0.513" y="0.345" font-size="0.005731" fill="hsl(0.0,100%,20%)">dloehr</text>
<text x="1.191" y="0.614" font-size="0.026261" fill="hsl(0.0,100%,20%)">liza</text>
<text x="1.428" y="0.582" font-size="0.021185" fill="hsl(0.0,100%,20%)">mpdenton</text>
<text x="1.240" y="0.958" font-size="0.006617" fill="hsl(0.0,100%,20%)">penghuang</text>
<text x="0.830" y="0.771" font-size="0.043392" fill="hsl(0.0,100%,20%)">lexa.knyazev</text>
<text x="1.087" y="0.947" font-size="0.003309" fill="hsl(0.0,100%,20%)">jamesgk</text>
<text x="1.339" y="0.950" font-size="0.004679" fill="hsl(0.0,100%,20%)">rafael.cintron</text>
<text x="0.749" y="0.589" font-size="0.015868" fill="hsl(0.0,100%,20%)">steven</text>
<text x="0.962" y="0.851" font-size="0.003309" fill="hsl(0.0,100%,20%)">johnstiles</text>
<text x="1.005" y="0.938" font-size="0.003309" fill="hsl(0.0,100%,20%)">vasilyt</text>
<text x="1.333" y="0.706" font-size="0.005731" fill="hsl(0.0,100%,20%)">gman</text>
<text x="0.762" y="0.041" font-size="0.006617" fill="hsl(0.0,100%,20%)">hans</text>
<text x="0.641" y="0.139" font-size="0.003309" fill="hsl(0.0,100%,20%)">thakis</text>
<text x="0.889" y="0.529" font-size="0.021696" fill="hsl(0.0,100%,20%)">i.nazarov</text>
<text x="0.745" y="0.941" font-size="0.007398" fill="hsl(0.0,100%,20%)">jiawei.shao</text>
<text x="0.928" y="0.971" font-size="0.003309" fill="hsl(0.0,100%,20%)">senorblanco</text>
<text x="1.709" y="0.959" font-size="0.008104" fill="hsl(0.0,100%,20%)">jonahr</text>
<text x="1.627" y="0.746" font-size="0.024537" fill="hsl(0.0,100%,20%)">kkinnunen</text>
<text x="1.845" y="0.890" font-size="0.004679" fill="hsl(0.0,100%,20%)">kpiddington</text>
<text x="1.195" y="0.918" font-size="0.003309" fill="hsl(0.0,100%,20%)">sunnyps</text>
<text x="1.573" y="0.890" font-size="0.009358" fill="hsl(0.0,100%,20%)">lerica</text>
<text x="1.018" y="0.096" font-size="0.009358" fill="hsl(0.0,100%,20%)">sokcevic</text>
<text x="1.709" y="0.943" font-size="0.009358" fill="hsl(0.0,100%,20%)">mscott</text>
<text x="0.615" y="0.378" font-size="0.003309" fill="hsl(0.0,100%,20%)">zijiehe</text>
<text x="0.814" y="0.543" font-size="0.014422" fill="hsl(0.0,100%,20%)">solti</text>
<text x="1.139" y="0.043" font-size="0.003309" fill="hsl(0.0,100%,20%)">jwata</text>
<text x="1.125" y="0.859" font-size="0.004679" fill="hsl(0.0,100%,20%)">a.annestrand</text>
<text x="0.943" y="0.911" font-size="0.003309" fill="hsl(0.0,100%,20%)">ianelliott</text>
<text x="0.810" y="0.246" font-size="0.010973" fill="hsl(0.0,100%,20%)">tikuta</text>
<text x="1.219" y="1.253" font-size="0.003309" fill="hsl(0.0,100%,20%)">lepton</text>
</svg>
