<svg width="4000" height="2000" viewBox="-0.025 -0.025 2.05 1.05" xmlns="http://www.w3.org/2000/svg">
  <style>
    path {
      fill: none;
      stroke-linecap: round;
      stroke-opacity: 0.4;
    }

    text {
      text-anchor: middle;
      alignment-baseline: hanging;
    }
  </style>
  <g opacity="0.4">
<path d="M0.912 0.848 Q1.096 0.824 1.090 0.729" stroke="hsl(0.0,100%,35%)" stroke-width="0.00024"></path>
<path d="M0.912 0.848 Q1.049 0.769 0.925 0.686" stroke="hsl(0.0,100%,35%)" stroke-width="0.00097"></path>
<path d="M0.912 0.848 Q1.286 0.552 0.790 0.304" stroke="hsl(0.0,100%,35%)" stroke-width="0.00024"></path>
<path d="M1.090 0.729 Q1.042 0.674 0.925 0.686" stroke="hsl(0.0,100%,35%)" stroke-width="0.05350"></path>
<path d="M1.090 0.729 Q0.950 0.818 1.092 0.905" stroke="hsl(0.0,100%,35%)" stroke-width="0.01138"></path>
<path d="M1.090 0.729 Q1.074 0.563 0.747 0.534" stroke="hsl(0.0,100%,35%)" stroke-width="0.02978"></path>
<path d="M1.090 0.729 Q1.226 0.648 1.097 0.564" stroke="hsl(0.0,100%,35%)" stroke-width="0.00121"></path>
<path d="M1.090 0.729 Q0.880 0.658 0.695 0.744" stroke="hsl(0.0,100%,35%)" stroke-width="0.00073"></path>
<path d="M1.090 0.729 Q1.641 0.734 1.771 0.467" stroke="hsl(0.0,100%,35%)" stroke-width="0.00024"></path>
<path d="M1.090 0.729 Q0.970 0.725 0.936 0.782" stroke="hsl(0.0,100%,35%)" stroke-width="0.00339"></path>
<path d="M1.090 0.729 Q1.319 0.537 0.995 0.384" stroke="hsl(0.0,100%,35%)" stroke-width="0.00460"></path>
<path d="M1.090 0.729 Q0.675 0.581 0.296 0.751" stroke="hsl(0.0,100%,35%)" stroke-width="0.00024"></path>
<path d="M1.090 0.729 Q1.079 0.466 0.564 0.414" stroke="hsl(0.0,100%,35%)" stroke-width="0.00460"></path>
<path d="M1.090 0.729 Q1.242 0.679 1.178 0.594" stroke="hsl(0.0,100%,35%)" stroke-width="0.00315"></path>
<path d="M1.090 0.729 Q1.280 0.813 1.485 0.738" stroke="hsl(0.0,100%,35%)" stroke-width="0.00024"></path>
<path d="M1.090 0.729 Q1.452 0.633 1.344 0.435" stroke="hsl(0.0,100%,35%)" stroke-width="0.00048"></path>
<path d="M1.090 0.729 Q1.280 0.457 0.790 0.304" stroke="hsl(0.0,100%,35%)" stroke-width="0.00097"></path>
<path d="M1.090 0.729 Q0.888 0.734 0.854 0.834" stroke="hsl(0.0,100%,35%)" stroke-width="0.00266"></path>
<path d="M1.090 0.729 Q1.598 0.591 1.440 0.313" stroke="hsl(0.0,100%,35%)" stroke-width="0.00024"></path>
<path d="M1.090 0.729 Q0.576 0.560 0.133 0.774" stroke="hsl(0.0,100%,35%)" stroke-width="0.00048"></path>
<path d="M1.090 0.729 Q1.309 0.565 1.036 0.422" stroke="hsl(0.0,100%,35%)" stroke-width="0.00024"></path>
<path d="M1.090 0.729 Q0.729 0.637 0.470 0.793" stroke="hsl(0.0,100%,35%)" stroke-width="0.00024"></path>
<path d="M1.090 0.729 Q1.264 0.666 1.178 0.567" stroke="hsl(0.0,100%,35%)" stroke-width="0.00048"></path>
<path d="M1.090 0.729 Q1.222 0.617 1.032 0.528" stroke="hsl(0.0,100%,35%)" stroke-width="0.00024"></path>
<path d="M0.925 0.686 Q1.125 0.690 1.178 0.594" stroke="hsl(0.0,100%,35%)" stroke-width="0.00363"></path>
<path d="M0.925 0.686 Q0.771 0.746 0.854 0.834" stroke="hsl(0.0,100%,35%)" stroke-width="0.02493"></path>
<path d="M0.925 0.686 Q0.957 0.574 0.747 0.534" stroke="hsl(0.0,100%,35%)" stroke-width="0.03050"></path>
<path d="M0.925 0.686 Q1.109 0.659 1.097 0.564" stroke="hsl(0.0,100%,35%)" stroke-width="0.03534"></path>
<path d="M0.925 0.686 Q1.201 0.549 0.995 0.384" stroke="hsl(0.0,100%,35%)" stroke-width="0.02179"></path>
<path d="M0.925 0.686 Q0.973 0.740 1.090 0.729" stroke="hsl(0.0,100%,35%)" stroke-width="0.02058"></path>
<path d="M0.925 0.686 Q0.853 0.736 0.936 0.782" stroke="hsl(0.0,100%,35%)" stroke-width="0.00387"></path>
<path d="M0.925 0.686 Q0.856 0.545 0.566 0.548" stroke="hsl(0.0,100%,35%)" stroke-width="0.00024"></path>
<path d="M0.925 0.686 Q0.962 0.477 0.564 0.414" stroke="hsl(0.0,100%,35%)" stroke-width="0.00896"></path>
<path d="M0.925 0.686 Q0.458 0.571 0.133 0.774" stroke="hsl(0.0,100%,35%)" stroke-width="0.00073"></path>
<path d="M0.925 0.686 Q1.110 0.620 1.022 0.516" stroke="hsl(0.0,100%,35%)" stroke-width="0.00024"></path>
<path d="M0.925 0.686 Q1.299 0.497 1.014 0.273" stroke="hsl(0.0,100%,35%)" stroke-width="0.00024"></path>
<path d="M0.925 0.686 Q0.931 0.726 1.012 0.732" stroke="hsl(0.0,100%,35%)" stroke-width="0.00024"></path>
<path d="M0.925 0.686 Q1.053 0.818 1.339 0.784" stroke="hsl(0.0,100%,35%)" stroke-width="0.00024"></path>
<path d="M0.925 0.686 Q1.163 0.468 0.790 0.304" stroke="hsl(0.0,100%,35%)" stroke-width="0.01017"></path>
<path d="M0.925 0.686 Q0.837 0.573 0.598 0.590" stroke="hsl(0.0,100%,35%)" stroke-width="0.00073"></path>
<path d="M0.925 0.686 Q0.721 0.526 0.366 0.591" stroke="hsl(0.0,100%,35%)" stroke-width="0.00121"></path>
<path d="M0.925 0.686 Q1.523 0.745 1.771 0.467" stroke="hsl(0.0,100%,35%)" stroke-width="0.00024"></path>
<path d="M0.925 0.686 Q0.833 0.829 1.092 0.905" stroke="hsl(0.0,100%,35%)" stroke-width="0.00654"></path>
<path d="M0.925 0.686 Q0.612 0.648 0.470 0.793" stroke="hsl(0.0,100%,35%)" stroke-width="0.00315"></path>
<path d="M0.925 0.686 Q1.146 0.677 1.178 0.567" stroke="hsl(0.0,100%,35%)" stroke-width="0.00121"></path>
<path d="M0.925 0.686 Q1.192 0.576 1.036 0.422" stroke="hsl(0.0,100%,35%)" stroke-width="0.00024"></path>
<path d="M0.925 0.686 Q0.026 1.049 0.539 1.568" stroke="hsl(0.0,100%,35%)" stroke-width="0.00024"></path>
<path d="M0.925 0.686 Q0.763 0.669 0.695 0.744" stroke="hsl(0.0,100%,35%)" stroke-width="0.00048"></path>
<path d="M0.790 0.304 Q0.553 0.522 0.925 0.686" stroke="hsl(0.0,100%,35%)" stroke-width="0.00920"></path>
<path d="M0.790 0.304 Q0.829 0.385 0.995 0.384" stroke="hsl(0.0,100%,35%)" stroke-width="0.00048"></path>
<path d="M0.790 0.304 Q0.589 0.314 0.564 0.414" stroke="hsl(0.0,100%,35%)" stroke-width="0.00605"></path>
<path d="M0.790 0.304 Q0.600 0.577 1.090 0.729" stroke="hsl(0.0,100%,35%)" stroke-width="0.00121"></path>
<path d="M0.790 0.304 Q0.398 0.582 0.854 0.834" stroke="hsl(0.0,100%,35%)" stroke-width="0.00121"></path>
<path d="M0.790 0.304 Q0.584 0.411 0.747 0.534" stroke="hsl(0.0,100%,35%)" stroke-width="0.00726"></path>
<path d="M0.790 0.304 Q0.559 0.563 1.012 0.732" stroke="hsl(0.0,100%,35%)" stroke-width="0.00048"></path>
<path d="M0.790 0.304 Q1.004 0.540 1.511 0.487" stroke="hsl(0.0,100%,35%)" stroke-width="0.00024"></path>
<path d="M0.790 0.304 Q0.912 0.237 0.807 0.163" stroke="hsl(0.0,100%,35%)" stroke-width="0.00024"></path>
<path d="M0.790 0.304 Q0.736 0.496 1.097 0.564" stroke="hsl(0.0,100%,35%)" stroke-width="0.00048"></path>
<path d="M0.790 0.304 Q1.005 0.219 0.886 0.096" stroke="hsl(0.0,100%,35%)" stroke-width="0.00048"></path>
<path d="M0.790 0.304 Q0.086 0.408 0.133 0.774" stroke="hsl(0.0,100%,35%)" stroke-width="0.00048"></path>
<path d="M0.790 0.304 Q0.185 0.429 0.296 0.751" stroke="hsl(0.0,100%,35%)" stroke-width="0.00024"></path>
<path d="M0.790 0.304 Q1.017 0.277 1.013 0.160" stroke="hsl(0.0,100%,35%)" stroke-width="0.00024"></path>
<path d="M1.032 0.528 Q0.853 0.586 0.925 0.686" stroke="hsl(0.0,100%,35%)" stroke-width="0.00218"></path>
<path d="M1.032 0.528 Q1.119 0.476 1.036 0.422" stroke="hsl(0.0,100%,35%)" stroke-width="0.00024"></path>
<path d="M1.032 0.528 Q1.129 0.449 0.995 0.384" stroke="hsl(0.0,100%,35%)" stroke-width="0.00024"></path>
<path d="M1.032 0.528 Q0.900 0.640 1.090 0.729" stroke="hsl(0.0,100%,35%)" stroke-width="0.00048"></path>
<path d="M1.032 0.528 Q0.885 0.474 0.747 0.534" stroke="hsl(0.0,100%,35%)" stroke-width="0.00024"></path>
<path d="M1.032 0.528 Q1.090 0.368 0.790 0.304" stroke="hsl(0.0,100%,35%)" stroke-width="0.00145"></path>
<path d="M0.995 0.384 Q0.718 0.521 0.925 0.686" stroke="hsl(0.0,100%,35%)" stroke-width="0.00823"></path>
<path d="M0.995 0.384 Q0.566 0.301 0.310 0.491" stroke="hsl(0.0,100%,35%)" stroke-width="0.00024"></path>
<path d="M0.995 0.384 Q0.766 0.576 1.090 0.729" stroke="hsl(0.0,100%,35%)" stroke-width="0.00048"></path>
<path d="M0.995 0.384 Q0.647 0.571 0.936 0.782" stroke="hsl(0.0,100%,35%)" stroke-width="0.00024"></path>
<path d="M0.995 0.384 Q0.755 0.313 0.564 0.414" stroke="hsl(0.0,100%,35%)" stroke-width="0.00024"></path>
<path d="M0.995 0.384 Q0.956 0.303 0.790 0.304" stroke="hsl(0.0,100%,35%)" stroke-width="0.00048"></path>
<path d="M0.995 0.384 Q0.564 0.581 0.854 0.834" stroke="hsl(0.0,100%,35%)" stroke-width="0.00024"></path>
<path d="M0.747 0.534 Q0.899 0.619 1.097 0.564" stroke="hsl(0.0,100%,35%)" stroke-width="0.00460"></path>
<path d="M0.747 0.534 Q0.715 0.646 0.925 0.686" stroke="hsl(0.0,100%,35%)" stroke-width="0.02106"></path>
<path d="M0.747 0.534 Q0.763 0.700 1.090 0.729" stroke="hsl(0.0,100%,35%)" stroke-width="0.00823"></path>
<path d="M0.747 0.534 Q0.721 0.686 1.012 0.732" stroke="hsl(0.0,100%,35%)" stroke-width="0.00024"></path>
<path d="M0.747 0.534 Q0.623 0.789 1.092 0.905" stroke="hsl(0.0,100%,35%)" stroke-width="0.00581"></path>
<path d="M0.747 0.534 Q0.952 0.428 0.790 0.304" stroke="hsl(0.0,100%,35%)" stroke-width="0.00363"></path>
<path d="M0.747 0.534 Q0.561 0.706 0.854 0.834" stroke="hsl(0.0,100%,35%)" stroke-width="0.00581"></path>
<path d="M0.747 0.534 Q0.991 0.509 0.995 0.384" stroke="hsl(0.0,100%,35%)" stroke-width="0.00048"></path>
<path d="M0.747 0.534 Q0.643 0.696 0.936 0.782" stroke="hsl(0.0,100%,35%)" stroke-width="0.00048"></path>
<path d="M0.747 0.534 Q0.401 0.608 0.470 0.793" stroke="hsl(0.0,100%,35%)" stroke-width="0.00048"></path>
<path d="M0.747 0.534 Q1.147 0.547 1.259 0.355" stroke="hsl(0.0,100%,35%)" stroke-width="0.00024"></path>
<path d="M0.833 0.419 Q0.666 0.571 0.925 0.686" stroke="hsl(0.0,100%,35%)" stroke-width="0.00242"></path>
<path d="M0.833 0.419 Q0.713 0.626 1.090 0.729" stroke="hsl(0.0,100%,35%)" stroke-width="0.00194"></path>
<path d="M0.833 0.419 Q0.903 0.353 0.790 0.304" stroke="hsl(0.0,100%,35%)" stroke-width="0.00097"></path>
<path d="M0.833 0.419 Q0.594 0.621 0.936 0.782" stroke="hsl(0.0,100%,35%)" stroke-width="0.00048"></path>
<path d="M0.833 0.419 Q0.352 0.534 0.470 0.793" stroke="hsl(0.0,100%,35%)" stroke-width="0.00024"></path>
<path d="M0.936 0.782 Q1.191 0.705 1.097 0.564" stroke="hsl(0.0,100%,35%)" stroke-width="0.00387"></path>
<path d="M0.936 0.782 Q1.040 0.621 0.747 0.534" stroke="hsl(0.0,100%,35%)" stroke-width="0.00315"></path>
<path d="M0.936 0.782 Q1.008 0.732 0.925 0.686" stroke="hsl(0.0,100%,35%)" stroke-width="0.00702"></path>
<path d="M0.936 0.782 Q1.055 0.786 1.090 0.729" stroke="hsl(0.0,100%,35%)" stroke-width="0.00581"></path>
<path d="M0.936 0.782 Q1.284 0.595 0.995 0.384" stroke="hsl(0.0,100%,35%)" stroke-width="0.00097"></path>
<path d="M0.936 0.782 Q0.854 0.792 0.854 0.834" stroke="hsl(0.0,100%,35%)" stroke-width="0.00605"></path>
<path d="M0.936 0.782 Q0.916 0.875 1.092 0.905" stroke="hsl(0.0,100%,35%)" stroke-width="0.00218"></path>
<path d="M0.936 0.782 Q1.245 0.514 0.790 0.304" stroke="hsl(0.0,100%,35%)" stroke-width="0.00121"></path>
<path d="M0.936 0.782 Q0.694 0.695 0.470 0.793" stroke="hsl(0.0,100%,35%)" stroke-width="0.00024"></path>
<path d="M0.470 0.793 Q1.021 0.613 0.790 0.304" stroke="hsl(0.0,100%,35%)" stroke-width="0.00024"></path>
<path d="M0.470 0.793 Q0.816 0.719 0.747 0.534" stroke="hsl(0.0,100%,35%)" stroke-width="0.00218"></path>
<path d="M0.470 0.793 Q0.630 0.890 0.854 0.834" stroke="hsl(0.0,100%,35%)" stroke-width="0.00266"></path>
<path d="M0.470 0.793 Q0.831 0.885 1.090 0.729" stroke="hsl(0.0,100%,35%)" stroke-width="0.00097"></path>
<path d="M0.470 0.793 Q0.784 0.830 0.925 0.686" stroke="hsl(0.0,100%,35%)" stroke-width="0.00484"></path>
<path d="M0.470 0.793 Q0.967 0.804 1.097 0.564" stroke="hsl(0.0,100%,35%)" stroke-width="0.00048"></path>
<path d="M0.470 0.793 Q0.984 0.835 1.178 0.594" stroke="hsl(0.0,100%,35%)" stroke-width="0.00048"></path>
<path d="M0.470 0.793 Q0.712 0.881 0.936 0.782" stroke="hsl(0.0,100%,35%)" stroke-width="0.00073"></path>
<path d="M0.470 0.793 Q0.692 0.973 1.092 0.905" stroke="hsl(0.0,100%,35%)" stroke-width="0.00218"></path>
<path d="M0.470 0.793 Q1.060 0.693 0.995 0.384" stroke="hsl(0.0,100%,35%)" stroke-width="0.00024"></path>
<path d="M0.470 0.793 Q0.820 0.622 0.564 0.414" stroke="hsl(0.0,100%,35%)" stroke-width="0.00024"></path>
<path d="M1.485 0.738 Q1.247 0.600 0.925 0.686" stroke="hsl(0.0,100%,35%)" stroke-width="0.00218"></path>
<path d="M1.485 0.738 Q1.295 0.655 1.090 0.729" stroke="hsl(0.0,100%,35%)" stroke-width="0.00169"></path>
<path d="M1.485 0.738 Q1.155 0.743 1.092 0.905" stroke="hsl(0.0,100%,35%)" stroke-width="0.00024"></path>
<path d="M1.485 0.738 Q1.279 0.489 0.747 0.534" stroke="hsl(0.0,100%,35%)" stroke-width="0.00073"></path>
<path d="M1.485 0.738 Q1.431 0.574 1.097 0.564" stroke="hsl(0.0,100%,35%)" stroke-width="0.00024"></path>
<path d="M1.485 0.738 Q0.934 0.563 0.470 0.793" stroke="hsl(0.0,100%,35%)" stroke-width="0.00024"></path>
<path d="M1.092 0.905 Q1.232 0.817 1.090 0.729" stroke="hsl(0.0,100%,35%)" stroke-width="0.00823"></path>
<path d="M1.092 0.905 Q1.216 0.651 0.747 0.534" stroke="hsl(0.0,100%,35%)" stroke-width="0.01138"></path>
<path d="M1.092 0.905 Q1.184 0.762 0.925 0.686" stroke="hsl(0.0,100%,35%)" stroke-width="0.01622"></path>
<path d="M1.092 0.905 Q1.112 0.812 0.936 0.782" stroke="hsl(0.0,100%,35%)" stroke-width="0.00315"></path>
<path d="M1.092 0.905 Q1.030 0.822 0.854 0.834" stroke="hsl(0.0,100%,35%)" stroke-width="0.00484"></path>
<path d="M1.092 0.905 Q1.384 0.767 1.178 0.594" stroke="hsl(0.0,100%,35%)" stroke-width="0.00024"></path>
<path d="M1.092 0.905 Q1.421 0.544 0.790 0.304" stroke="hsl(0.0,100%,35%)" stroke-width="0.00024"></path>
<path d="M1.092 0.905 Q1.594 0.721 1.344 0.435" stroke="hsl(0.0,100%,35%)" stroke-width="0.00024"></path>
<path d="M1.092 0.905 Q0.870 0.725 0.470 0.793" stroke="hsl(0.0,100%,35%)" stroke-width="0.00048"></path>
<path d="M1.097 0.564 Q0.914 0.590 0.925 0.686" stroke="hsl(0.0,100%,35%)" stroke-width="0.02566"></path>
<path d="M1.097 0.564 Q0.946 0.479 0.747 0.534" stroke="hsl(0.0,100%,35%)" stroke-width="0.00484"></path>
<path d="M1.097 0.564 Q0.961 0.645 1.090 0.729" stroke="hsl(0.0,100%,35%)" stroke-width="0.00097"></path>
<path d="M1.097 0.564 Q0.760 0.650 0.854 0.834" stroke="hsl(0.0,100%,35%)" stroke-width="0.01114"></path>
<path d="M1.097 0.564 Q0.822 0.733 1.092 0.905" stroke="hsl(0.0,100%,35%)" stroke-width="0.00024"></path>
<path d="M1.097 0.564 Q1.114 0.595 1.178 0.594" stroke="hsl(0.0,100%,35%)" stroke-width="0.00024"></path>
<path d="M1.097 0.564 Q1.135 0.582 1.178 0.567" stroke="hsl(0.0,100%,35%)" stroke-width="0.00339"></path>
<path d="M1.097 0.564 Q0.842 0.641 0.936 0.782" stroke="hsl(0.0,100%,35%)" stroke-width="0.00024"></path>
<path d="M1.097 0.564 Q1.151 0.373 0.790 0.304" stroke="hsl(0.0,100%,35%)" stroke-width="0.00024"></path>
<path d="M0.420 0.203 Q0.661 0.357 1.014 0.273" stroke="hsl(0.0,100%,35%)" stroke-width="0.00024"></path>
<path d="M0.420 0.203 Q0.524 0.327 0.790 0.304" stroke="hsl(0.0,100%,35%)" stroke-width="0.00024"></path>
<path d="M0.420 0.203 Q0.471 0.480 1.022 0.516" stroke="hsl(0.0,100%,35%)" stroke-width="0.00024"></path>
<path d="M1.014 0.273 Q0.687 0.516 1.090 0.729" stroke="hsl(0.0,100%,35%)" stroke-width="0.00024"></path>
<path d="M1.014 0.273 Q0.877 0.244 0.790 0.304" stroke="hsl(0.0,100%,35%)" stroke-width="0.00048"></path>
<path d="M1.014 0.273 Q0.676 0.254 0.564 0.414" stroke="hsl(0.0,100%,35%)" stroke-width="0.00024"></path>
<path d="M1.014 0.273 Q0.640 0.462 0.925 0.686" stroke="hsl(0.0,100%,35%)" stroke-width="0.00024"></path>
<path d="M1.022 0.516 Q0.838 0.581 0.925 0.686" stroke="hsl(0.0,100%,35%)" stroke-width="0.00048"></path>
<path d="M1.022 0.516 Q0.870 0.470 0.747 0.534" stroke="hsl(0.0,100%,35%)" stroke-width="0.00024"></path>
<path d="M1.022 0.516 Q1.075 0.364 0.790 0.304" stroke="hsl(0.0,100%,35%)" stroke-width="0.00024"></path>
<path d="M0.854 0.834 Q1.008 0.774 0.925 0.686" stroke="hsl(0.0,100%,35%)" stroke-width="0.00775"></path>
<path d="M0.854 0.834 Q1.056 0.829 1.090 0.729" stroke="hsl(0.0,100%,35%)" stroke-width="0.00315"></path>
<path d="M0.854 0.834 Q1.040 0.663 0.747 0.534" stroke="hsl(0.0,100%,35%)" stroke-width="0.00436"></path>
<path d="M0.854 0.834 Q1.285 0.637 0.995 0.384" stroke="hsl(0.0,100%,35%)" stroke-width="0.00024"></path>
<path d="M0.854 0.834 Q1.192 0.748 1.097 0.564" stroke="hsl(0.0,100%,35%)" stroke-width="0.00266"></path>
<path d="M0.854 0.834 Q0.936 0.824 0.936 0.782" stroke="hsl(0.0,100%,35%)" stroke-width="0.00194"></path>
<path d="M0.854 0.834 Q0.916 0.917 1.092 0.905" stroke="hsl(0.0,100%,35%)" stroke-width="0.00073"></path>
<path d="M0.854 0.834 Q1.246 0.556 0.790 0.304" stroke="hsl(0.0,100%,35%)" stroke-width="0.00121"></path>
<path d="M0.854 0.834 Q0.695 0.737 0.470 0.793" stroke="hsl(0.0,100%,35%)" stroke-width="0.00073"></path>
<path d="M1.178 0.594 Q1.026 0.644 1.090 0.729" stroke="hsl(0.0,100%,35%)" stroke-width="0.01670"></path>
<path d="M1.178 0.594 Q0.979 0.589 0.925 0.686" stroke="hsl(0.0,100%,35%)" stroke-width="0.02033"></path>
<path d="M1.178 0.594 Q1.162 0.563 1.097 0.564" stroke="hsl(0.0,100%,35%)" stroke-width="0.00145"></path>
<path d="M1.178 0.594 Q1.010 0.478 0.747 0.534" stroke="hsl(0.0,100%,35%)" stroke-width="0.00218"></path>
<path d="M1.178 0.594 Q0.824 0.649 0.854 0.834" stroke="hsl(0.0,100%,35%)" stroke-width="0.00169"></path>
<path d="M1.178 0.594 Q1.216 0.371 0.790 0.304" stroke="hsl(0.0,100%,35%)" stroke-width="0.00145"></path>
<path d="M1.178 0.594 Q0.907 0.640 0.936 0.782" stroke="hsl(0.0,100%,35%)" stroke-width="0.00024"></path>
<path d="M1.178 0.594 Q0.665 0.552 0.470 0.793" stroke="hsl(0.0,100%,35%)" stroke-width="0.00073"></path>
<path d="M1.178 0.567 Q1.141 0.549 1.097 0.564" stroke="hsl(0.0,100%,35%)" stroke-width="0.00702"></path>
<path d="M1.178 0.567 Q0.957 0.576 0.925 0.686" stroke="hsl(0.0,100%,35%)" stroke-width="0.00920"></path>
<path d="M1.178 0.567 Q1.005 0.631 1.090 0.729" stroke="hsl(0.0,100%,35%)" stroke-width="0.00121"></path>
<path d="M1.178 0.567 Q0.989 0.465 0.747 0.534" stroke="hsl(0.0,100%,35%)" stroke-width="0.00024"></path>
<path d="M0.564 0.414 Q0.527 0.622 0.925 0.686" stroke="hsl(0.0,100%,35%)" stroke-width="0.00726"></path>
<path d="M0.564 0.414 Q0.764 0.404 0.790 0.304" stroke="hsl(0.0,100%,35%)" stroke-width="0.00508"></path>
<path d="M0.564 0.414 Q0.574 0.677 1.090 0.729" stroke="hsl(0.0,100%,35%)" stroke-width="0.00363"></path>
<path d="M0.564 0.414 Q0.060 0.508 0.133 0.774" stroke="hsl(0.0,100%,35%)" stroke-width="0.00073"></path>
<path d="M0.564 0.414 Q0.803 0.485 0.995 0.384" stroke="hsl(0.0,100%,35%)" stroke-width="0.00024"></path>
<path d="M0.564 0.414 Q0.559 0.511 0.747 0.534" stroke="hsl(0.0,100%,35%)" stroke-width="0.00073"></path>
<path d="M0.564 0.414 Q0.901 0.433 1.014 0.273" stroke="hsl(0.0,100%,35%)" stroke-width="0.00048"></path>
<path d="M0.564 0.414 Q0.213 0.585 0.470 0.793" stroke="hsl(0.0,100%,35%)" stroke-width="0.00048"></path>
<path d="M0.982 0.557 Q0.851 0.610 0.925 0.686" stroke="hsl(0.0,100%,35%)" stroke-width="0.00194"></path>
<path d="M0.982 0.557 Q0.898 0.665 1.090 0.729" stroke="hsl(0.0,100%,35%)" stroke-width="0.00024"></path>
<path d="M1.012 0.732 Q1.006 0.692 0.925 0.686" stroke="hsl(0.0,100%,35%)" stroke-width="0.00242"></path>
<path d="M1.012 0.732 Q1.053 0.746 1.090 0.729" stroke="hsl(0.0,100%,35%)" stroke-width="0.00073"></path>
<path d="M1.012 0.732 Q1.243 0.474 0.790 0.304" stroke="hsl(0.0,100%,35%)" stroke-width="0.00242"></path>
<path d="M1.511 0.487 Q1.657 0.529 1.771 0.467" stroke="hsl(0.0,100%,35%)" stroke-width="0.00145"></path>
<path d="M1.511 0.487 Q1.059 0.469 0.925 0.686" stroke="hsl(0.0,100%,35%)" stroke-width="0.00460"></path>
<path d="M1.511 0.487 Q0.592 0.355 0.133 0.774" stroke="hsl(0.0,100%,35%)" stroke-width="0.00048"></path>
<path d="M1.511 0.487 Q1.106 0.524 1.090 0.729" stroke="hsl(0.0,100%,35%)" stroke-width="0.00121"></path>
<path d="M1.511 0.487 Q1.296 0.251 0.790 0.304" stroke="hsl(0.0,100%,35%)" stroke-width="0.00387"></path>
<path d="M1.511 0.487 Q1.096 0.261 0.564 0.414" stroke="hsl(0.0,100%,35%)" stroke-width="0.00097"></path>
<path d="M0.886 0.096 Q0.481 0.453 1.090 0.729" stroke="hsl(0.0,100%,35%)" stroke-width="0.00097"></path>
<path d="M0.886 0.096 Q0.434 0.398 0.925 0.686" stroke="hsl(0.0,100%,35%)" stroke-width="0.00218"></path>
<path d="M0.886 0.096 Q0.671 0.181 0.790 0.304" stroke="hsl(0.0,100%,35%)" stroke-width="0.00121"></path>
<path d="M0.886 0.096 Q0.470 0.190 0.564 0.414" stroke="hsl(0.0,100%,35%)" stroke-width="0.00121"></path>
<path d="M0.133 0.774 Q0.637 0.680 0.564 0.414" stroke="hsl(0.0,100%,35%)" stroke-width="0.00266"></path>
<path d="M0.133 0.774 Q0.837 0.670 0.790 0.304" stroke="hsl(0.0,100%,35%)" stroke-width="0.00290"></path>
<path d="M0.133 0.774 Q0.600 0.888 0.925 0.686" stroke="hsl(0.0,100%,35%)" stroke-width="0.00145"></path>
<path d="M0.133 0.774 Q0.233 0.795 0.296 0.751" stroke="hsl(0.0,100%,35%)" stroke-width="0.00024"></path>
<path d="M0.133 0.774 Q0.647 0.943 1.090 0.729" stroke="hsl(0.0,100%,35%)" stroke-width="0.00024"></path>
<path d="M0.133 0.774 Q0.876 0.751 0.995 0.384" stroke="hsl(0.0,100%,35%)" stroke-width="0.00024"></path>
<path d="M0.296 0.751 Q0.710 0.899 1.090 0.729" stroke="hsl(0.0,100%,35%)" stroke-width="0.00145"></path>
<path d="M0.296 0.751 Q0.196 0.730 0.133 0.774" stroke="hsl(0.0,100%,35%)" stroke-width="0.00533"></path>
<path d="M0.296 0.751 Q0.699 0.636 0.564 0.414" stroke="hsl(0.0,100%,35%)" stroke-width="0.00315"></path>
<path d="M0.296 0.751 Q0.663 0.844 0.925 0.686" stroke="hsl(0.0,100%,35%)" stroke-width="0.00073"></path>
<path d="M0.296 0.751 Q0.900 0.627 0.790 0.304" stroke="hsl(0.0,100%,35%)" stroke-width="0.00097"></path>
<path d="M0.296 0.751 Q1.094 0.745 1.259 0.355" stroke="hsl(0.0,100%,35%)" stroke-width="0.00024"></path>
<path d="M0.776 0.747 Q0.947 0.801 1.090 0.729" stroke="hsl(0.0,100%,35%)" stroke-width="0.00024"></path>
<path d="M0.776 0.747 Q0.899 0.746 0.925 0.686" stroke="hsl(0.0,100%,35%)" stroke-width="0.00121"></path>
<path d="M0.776 0.747 Q0.586 0.709 0.470 0.793" stroke="hsl(0.0,100%,35%)" stroke-width="0.00024"></path>
<path d="M0.526 0.796 Q0.814 0.820 0.925 0.686" stroke="hsl(0.0,100%,35%)" stroke-width="0.00218"></path>
<path d="M0.526 0.796 Q0.861 0.875 1.090 0.729" stroke="hsl(0.0,100%,35%)" stroke-width="0.00145"></path>
<path d="M0.526 0.796 Q1.051 0.603 0.790 0.304" stroke="hsl(0.0,100%,35%)" stroke-width="0.00024"></path>
<path d="M1.259 0.355 Q1.065 0.236 0.790 0.304" stroke="hsl(0.0,100%,35%)" stroke-width="0.00194"></path>
<path d="M1.259 0.355 Q0.875 0.508 1.090 0.729" stroke="hsl(0.0,100%,35%)" stroke-width="0.00024"></path>
<path d="M1.259 0.355 Q0.827 0.453 0.925 0.686" stroke="hsl(0.0,100%,35%)" stroke-width="0.00145"></path>
<path d="M1.259 0.355 Q0.864 0.245 0.564 0.414" stroke="hsl(0.0,100%,35%)" stroke-width="0.00024"></path>
<path d="M0.310 0.550 Q0.509 0.741 0.925 0.686" stroke="hsl(0.0,100%,35%)" stroke-width="0.00097"></path>
<path d="M0.310 0.550 Q0.556 0.796 1.090 0.729" stroke="hsl(0.0,100%,35%)" stroke-width="0.00024"></path>
<path d="M0.310 0.550 Q0.746 0.523 0.790 0.304" stroke="hsl(0.0,100%,35%)" stroke-width="0.00097"></path>
<path d="M0.310 0.550 Q0.546 0.533 0.564 0.414" stroke="hsl(0.0,100%,35%)" stroke-width="0.00048"></path>
<path d="M0.310 0.550 Q0.042 0.627 0.133 0.774" stroke="hsl(0.0,100%,35%)" stroke-width="0.00024"></path>
<path d="M0.110 0.446 Q0.127 0.538 0.310 0.550" stroke="hsl(0.0,100%,35%)" stroke-width="0.00048"></path>
<path d="M0.110 0.446 Q0.374 0.784 1.090 0.729" stroke="hsl(0.0,100%,35%)" stroke-width="0.00024"></path>
<path d="M0.110 0.446 Q0.564 0.511 0.790 0.304" stroke="hsl(0.0,100%,35%)" stroke-width="0.00024"></path>
<path d="M0.110 0.446 Q0.363 0.521 0.564 0.414" stroke="hsl(0.0,100%,35%)" stroke-width="0.00024"></path>
<path d="M1.207 0.518 Q0.932 0.546 0.925 0.686" stroke="hsl(0.0,100%,35%)" stroke-width="0.00121"></path>
<path d="M1.207 0.518 Q0.979 0.600 1.090 0.729" stroke="hsl(0.0,100%,35%)" stroke-width="0.00024"></path>
<path d="M1.207 0.518 Q0.969 0.337 0.564 0.414" stroke="hsl(0.0,100%,35%)" stroke-width="0.00024"></path>
<path d="M0.695 0.744 Q0.857 0.761 0.925 0.686" stroke="hsl(0.0,100%,35%)" stroke-width="0.00436"></path>
<path d="M0.695 0.744 Q0.703 0.821 0.854 0.834" stroke="hsl(0.0,100%,35%)" stroke-width="0.00024"></path>
<path d="M0.695 0.744 Q1.094 0.543 0.790 0.304" stroke="hsl(0.0,100%,35%)" stroke-width="0.00266"></path>
<path d="M0.695 0.744 Q0.785 0.812 0.936 0.782" stroke="hsl(0.0,100%,35%)" stroke-width="0.00024"></path>
<path d="M0.695 0.744 Q0.904 0.816 1.090 0.729" stroke="hsl(0.0,100%,35%)" stroke-width="0.00048"></path>
<path d="M0.695 0.744 Q0.889 0.650 0.747 0.534" stroke="hsl(0.0,100%,35%)" stroke-width="0.00024"></path>
<path d="M0.504 0.050 Q0.444 0.235 0.790 0.304" stroke="hsl(0.0,100%,35%)" stroke-width="0.00048"></path>
<path d="M0.504 0.050 Q0.206 0.452 0.925 0.686" stroke="hsl(0.0,100%,35%)" stroke-width="0.00024"></path>
<path d="M0.265 0.373 Q0.382 0.453 0.564 0.414" stroke="hsl(0.0,100%,35%)" stroke-width="0.00847"></path>
<path d="M0.265 0.373 Q-0.122 0.547 0.133 0.774" stroke="hsl(0.0,100%,35%)" stroke-width="0.00073"></path>
<path d="M0.265 0.373 Q0.345 0.661 0.925 0.686" stroke="hsl(0.0,100%,35%)" stroke-width="0.01356"></path>
<path d="M0.265 0.373 Q0.392 0.716 1.090 0.729" stroke="hsl(0.0,100%,35%)" stroke-width="0.00169"></path>
<path d="M0.265 0.373 Q0.582 0.444 0.790 0.304" stroke="hsl(0.0,100%,35%)" stroke-width="0.00024"></path>
<path d="M0.265 0.373 Q0.273 0.712 0.936 0.782" stroke="hsl(0.0,100%,35%)" stroke-width="0.00024"></path>
<path d="M1.009 0.242 Q0.660 0.502 1.090 0.729" stroke="hsl(0.0,100%,35%)" stroke-width="0.00024"></path>
<path d="M1.009 0.242 Q0.850 0.230 0.790 0.304" stroke="hsl(0.0,100%,35%)" stroke-width="0.00121"></path>
<path d="M1.009 0.242 Q0.450 0.431 0.695 0.744" stroke="hsl(0.0,100%,35%)" stroke-width="0.00048"></path>
<path d="M1.037 0.353 Q0.763 0.552 1.090 0.729" stroke="hsl(0.0,100%,35%)" stroke-width="0.00024"></path>
<path d="M1.037 0.353 Q0.715 0.497 0.925 0.686" stroke="hsl(0.0,100%,35%)" stroke-width="0.00024"></path>
<path d="M1.037 0.353 Q0.899 0.471 1.097 0.564" stroke="hsl(0.0,100%,35%)" stroke-width="0.00024"></path>
<path d="M1.037 0.353 Q0.747 0.386 0.747 0.534" stroke="hsl(0.0,100%,35%)" stroke-width="0.00073"></path>
<path d="M1.037 0.353 Q0.643 0.548 0.936 0.782" stroke="hsl(0.0,100%,35%)" stroke-width="0.00024"></path>
<path d="M1.037 0.353 Q0.952 0.279 0.790 0.304" stroke="hsl(0.0,100%,35%)" stroke-width="0.00048"></path>
<path d="M0.701 0.570 Q0.721 0.673 0.925 0.686" stroke="hsl(0.0,100%,35%)" stroke-width="0.00121"></path>
<path d="M0.701 0.570 Q0.753 0.561 0.747 0.534" stroke="hsl(0.0,100%,35%)" stroke-width="0.00048"></path>
<path d="M0.701 0.570 Q0.958 0.455 0.790 0.304" stroke="hsl(0.0,100%,35%)" stroke-width="0.00073"></path>
<path d="M0.907 0.397 Q0.685 0.545 0.925 0.686" stroke="hsl(0.0,100%,35%)" stroke-width="0.00048"></path>
<path d="M0.907 0.397 Q0.717 0.434 0.747 0.534" stroke="hsl(0.0,100%,35%)" stroke-width="0.00024"></path>
<path d="M0.907 0.397 Q0.733 0.600 1.090 0.729" stroke="hsl(0.0,100%,35%)" stroke-width="0.00024"></path>
<path d="M0.153 0.228 Q0.303 0.186 0.253 0.103" stroke="hsl(0.0,100%,35%)" stroke-width="0.00048"></path>
<path d="M0.153 0.228 Q0.173 0.611 0.925 0.686" stroke="hsl(0.0,100%,35%)" stroke-width="0.00024"></path>
<path d="M0.153 0.228 Q0.449 0.474 0.995 0.384" stroke="hsl(0.0,100%,35%)" stroke-width="0.00024"></path>
<path d="M0.253 0.103 Q0.123 0.529 0.925 0.686" stroke="hsl(0.0,100%,35%)" stroke-width="0.00097"></path>
<path d="M0.253 0.103 Q-0.031 0.589 0.854 0.834" stroke="hsl(0.0,100%,35%)" stroke-width="0.00024"></path>
<path d="M0.608 0.727 Q0.983 0.743 1.097 0.564" stroke="hsl(0.0,100%,35%)" stroke-width="0.00024"></path>
<path d="M0.608 0.727 Q0.800 0.770 0.925 0.686" stroke="hsl(0.0,100%,35%)" stroke-width="0.00048"></path>
<path d="M0.608 0.727 Q0.847 0.824 1.090 0.729" stroke="hsl(0.0,100%,35%)" stroke-width="0.00024"></path>
<path d="M0.489 0.350 Q0.675 0.387 0.790 0.304" stroke="hsl(0.0,100%,35%)" stroke-width="0.00073"></path>
<path d="M0.489 0.350 Q0.438 0.605 0.925 0.686" stroke="hsl(0.0,100%,35%)" stroke-width="0.00097"></path>
<path d="M1.327 0.853 Q1.260 0.689 0.925 0.686" stroke="hsl(0.0,100%,35%)" stroke-width="0.00266"></path>
<path d="M1.327 0.853 Q1.308 0.744 1.090 0.729" stroke="hsl(0.0,100%,35%)" stroke-width="0.00169"></path>
<path d="M1.327 0.853 Q0.973 0.664 0.526 0.796" stroke="hsl(0.0,100%,35%)" stroke-width="0.00024"></path>
<path d="M1.327 0.853 Q1.498 0.471 0.790 0.304" stroke="hsl(0.0,100%,35%)" stroke-width="0.00024"></path>
<path d="M0.156 0.512 Q0.401 0.752 0.925 0.686" stroke="hsl(0.0,100%,35%)" stroke-width="0.00194"></path>
<path d="M0.156 0.512 Q0.202 0.562 0.310 0.550" stroke="hsl(0.0,100%,35%)" stroke-width="0.00194"></path>
<path d="M0.156 0.512 Q0.449 0.807 1.090 0.729" stroke="hsl(0.0,100%,35%)" stroke-width="0.00024"></path>
<path d="M0.156 0.512 Q0.639 0.535 0.790 0.304" stroke="hsl(0.0,100%,35%)" stroke-width="0.00048"></path>
<path d="M0.156 0.512 Q-0.065 0.638 0.133 0.774" stroke="hsl(0.0,100%,35%)" stroke-width="0.00048"></path>
<path d="M0.723 0.754 Q0.879 0.760 0.925 0.686" stroke="hsl(0.0,100%,35%)" stroke-width="0.00242"></path>
<path d="M0.723 0.754 Q0.926 0.815 1.090 0.729" stroke="hsl(0.0,100%,35%)" stroke-width="0.00121"></path>
<path d="M0.723 0.754 Q1.116 0.542 0.790 0.304" stroke="hsl(0.0,100%,35%)" stroke-width="0.00024"></path>
<path d="M0.723 0.754 Q1.062 0.734 1.097 0.564" stroke="hsl(0.0,100%,35%)" stroke-width="0.00024"></path>
</g>
<text x="0.912" y="0.845" font-size="0.006150" fill="hsl(0.0,100%,20%)">aleino</text>
<text x="1.090" y="0.692" font-size="0.073711" fill="hsl(0.0,100%,20%)">syoussefi</text>
<text x="0.925" y="0.633" font-size="0.105176" fill="hsl(0.0,100%,20%)">jmadill</text>
<text x="0.790" y="0.282" font-size="0.045400" fill="hsl(0.0,100%,20%)">geofflang</text>
<text x="1.032" y="0.523" font-size="0.011505" fill="hsl(0.0,100%,20%)">amaiorano</text>
<text x="1.036" y="0.420" font-size="0.004349" fill="hsl(0.0,100%,20%)">nicolascapens</text>
<text x="0.995" y="0.368" font-size="0.032249" fill="hsl(0.0,100%,20%)">ynovikov</text>
<text x="0.747" y="0.503" font-size="0.062665" fill="hsl(0.0,100%,20%)">timvp</text>
<text x="0.833" y="0.413" font-size="0.012553" fill="hsl(0.0,100%,20%)">amy.liu</text>
<text x="0.936" y="0.765" font-size="0.034606" fill="hsl(0.0,100%,20%)">ianelliott</text>
<text x="0.470" y="0.781" font-size="0.024211" fill="hsl(0.0,100%,20%)">tobine</text>
<text x="1.485" y="0.732" font-size="0.012040" fill="hsl(0.0,100%,20%)">b.schade</text>
<text x="1.092" y="0.883" font-size="0.043990" fill="hsl(0.0,100%,20%)">cclao</text>
<text x="1.097" y="0.538" font-size="0.052303" fill="hsl(0.0,100%,20%)">cnorthrop</text>
<text x="0.420" y="0.201" font-size="0.004349" fill="hsl(0.0,100%,20%)">ccameron</text>
<text x="1.014" y="0.269" font-size="0.007532" fill="hsl(0.0,100%,20%)">cwallez</text>
<text x="1.022" y="0.513" font-size="0.006150" fill="hsl(0.0,100%,20%)">lfy</text>
<text x="0.854" y="0.810" font-size="0.046902" fill="hsl(0.0,100%,20%)">courtneygo</text>
<text x="1.178" y="0.575" font-size="0.036984" fill="hsl(0.0,100%,20%)">m.maiya</text>
<text x="1.344" y="0.433" font-size="0.004349" fill="hsl(0.0,100%,20%)">sunny.sun</text>
<text x="1.178" y="0.555" font-size="0.024341" fill="hsl(0.0,100%,20%)">nguyenmh</text>
<text x="0.564" y="0.395" font-size="0.038405" fill="hsl(0.0,100%,20%)">jonahr</text>
<text x="0.982" y="0.553" font-size="0.007532" fill="hsl(0.0,100%,20%)">etienneb</text>
<text x="1.012" y="0.726" font-size="0.013046" fill="hsl(0.0,100%,20%)">sugoi</text>
<text x="1.511" y="0.478" font-size="0.018278" fill="hsl(0.0,100%,20%)">lexa.knyazev</text>
<text x="0.807" y="0.161" font-size="0.002511" fill="hsl(0.0,100%,20%)">zmo</text>
<text x="0.886" y="0.089" font-size="0.012553" fill="hsl(0.0,100%,20%)">penghuang</text>
<text x="0.133" y="0.763" font-size="0.021303" fill="hsl(0.0,100%,20%)">kbr</text>
<text x="0.296" y="0.742" font-size="0.018104" fill="hsl(0.0,100%,20%)">jdarpinian</text>
<text x="1.013" y="0.159" font-size="0.002511" fill="hsl(0.0,100%,20%)">brianosman</text>
<text x="0.776" y="0.743" font-size="0.006642" fill="hsl(0.0,100%,20%)">hckim.kim</text>
<text x="0.526" y="0.791" font-size="0.010352" fill="hsl(0.0,100%,20%)">j.vigil</text>
<text x="1.259" y="0.349" font-size="0.010652" fill="hsl(0.0,100%,20%)">shrekshao</text>
<text x="0.310" y="0.544" font-size="0.011776" fill="hsl(0.0,100%,20%)">jiajia.qin</text>
<text x="0.110" y="0.444" font-size="0.005614" fill="hsl(0.0,100%,20%)">jiawei.shao</text>
<text x="1.207" y="0.515" font-size="0.006642" fill="hsl(0.0,100%,20%)">jie.a.chen</text>
<text x="0.566" y="0.547" font-size="0.002511" fill="hsl(0.0,100%,20%)">tandrii</text>
<text x="1.339" y="0.783" font-size="0.002511" fill="hsl(0.0,100%,20%)">paulthomson</text>
<text x="0.598" y="0.588" font-size="0.004349" fill="hsl(0.0,100%,20%)">dpranke</text>
<text x="0.366" y="0.588" font-size="0.005614" fill="hsl(0.0,100%,20%)">bsheedy</text>
<text x="1.771" y="0.463" font-size="0.007101" fill="hsl(0.0,100%,20%)">le.hoang.q</text>
<text x="0.587" y="3.837" font-size="0.003551" fill="hsl(0.0,100%,20%)">kainino</text>
<text x="0.539" y="1.567" font-size="0.002511" fill="hsl(0.0,100%,20%)">julien.isorce</text>
<text x="0.695" y="0.736" font-size="0.016076" fill="hsl(0.0,100%,20%)">spang</text>
<text x="0.504" y="0.048" font-size="0.004349" fill="hsl(0.0,100%,20%)">khushalsagar</text>
<text x="0.265" y="0.360" font-size="0.025480" fill="hsl(0.0,100%,20%)">lehoangq</text>
<text x="1.009" y="0.239" font-size="0.007101" fill="hsl(0.0,100%,20%)">msisov</text>
<text x="1.037" y="0.349" font-size="0.007532" fill="hsl(0.0,100%,20%)">natsu</text>
<text x="0.701" y="0.566" font-size="0.007939" fill="hsl(0.0,100%,20%)">rafael.cintron</text>
<text x="0.907" y="0.395" font-size="0.005021" fill="hsl(0.0,100%,20%)">reveman</text>
<text x="0.153" y="0.226" font-size="0.005021" fill="hsl(0.0,100%,20%)">sdefresne</text>
<text x="0.253" y="0.100" font-size="0.006642" fill="hsl(0.0,100%,20%)">thakis</text>
<text x="0.608" y="0.724" font-size="0.005021" fill="hsl(0.0,100%,20%)">shabbyx</text>
<text x="1.440" y="0.312" font-size="0.002511" fill="hsl(0.0,100%,20%)">capn</text>
<text x="0.489" y="0.346" font-size="0.006642" fill="hsl(0.0,100%,20%)">vantablack</text>
<text x="1.327" y="0.848" font-size="0.011228" fill="hsl(0.0,100%,20%)">xiaoxuan.liu</text>
<text x="0.156" y="0.506" font-size="0.011505" fill="hsl(0.0,100%,20%)">xinghua.cao</text>
<text x="0.723" y="0.749" font-size="0.010352" fill="hsl(0.0,100%,20%)">xinyi.he</text>
<text x="0.310" y="0.490" font-size="0.002511" fill="hsl(0.0,100%,20%)">senorblanco</text>
</svg>
