<svg width="4000" height="2000" viewBox="-0.025 -0.025 2.05 1.05" xmlns="http://www.w3.org/2000/svg">
  <style>
    path {
      fill: none;
      stroke-linecap: round;
      stroke-opacity: 0.4;
    }

    text {
      text-anchor: middle;
      alignment-baseline: hanging;
    }
  </style>
  <g opacity="0.4">
<path d="M1.519 0.607 Q1.158 0.224 0.331 0.316" stroke="hsl(0.0,100%,35%)" stroke-width="0.01761"></path>
<path d="M1.519 0.607 Q1.217 0.291 0.533 0.369" stroke="hsl(0.0,100%,35%)" stroke-width="0.01515"></path>
<path d="M1.519 0.607 Q1.425 0.556 1.303 0.591" stroke="hsl(0.0,100%,35%)" stroke-width="0.00041"></path>
<path d="M1.519 0.607 Q1.467 0.687 1.610 0.730" stroke="hsl(0.0,100%,35%)" stroke-width="0.00205"></path>
<path d="M1.519 0.607 Q1.307 0.706 1.452 0.831" stroke="hsl(0.0,100%,35%)" stroke-width="0.00123"></path>
<path d="M1.519 0.607 Q1.372 0.173 0.493 0.150" stroke="hsl(0.0,100%,35%)" stroke-width="0.00082"></path>
<path d="M0.331 0.316 Q0.815 0.810 1.885 0.683" stroke="hsl(0.0,100%,35%)" stroke-width="0.00532"></path>
<path d="M0.331 0.316 Q0.390 0.383 0.533 0.369" stroke="hsl(0.0,100%,35%)" stroke-width="0.04422"></path>
<path d="M0.331 0.316 Q0.546 0.266 0.493 0.150" stroke="hsl(0.0,100%,35%)" stroke-width="0.02907"></path>
<path d="M0.331 0.316 Q0.108 0.542 0.498 0.700" stroke="hsl(0.0,100%,35%)" stroke-width="0.02989"></path>
<path d="M0.331 0.316 Q0.518 0.735 1.375 0.736" stroke="hsl(0.0,100%,35%)" stroke-width="0.00082"></path>
<path d="M0.331 0.316 Q0.293 0.498 0.640 0.557" stroke="hsl(0.0,100%,35%)" stroke-width="0.00041"></path>
<path d="M0.331 0.316 Q0.480 0.798 1.452 0.831" stroke="hsl(0.0,100%,35%)" stroke-width="0.01269"></path>
<path d="M0.331 0.316 Q0.155 0.310 0.104 0.395" stroke="hsl(0.0,100%,35%)" stroke-width="0.00696"></path>
<path d="M0.331 0.316 Q0.670 0.321 0.753 0.157" stroke="hsl(0.0,100%,35%)" stroke-width="0.00041"></path>
<path d="M0.331 0.316 Q0.692 0.699 1.519 0.607" stroke="hsl(0.0,100%,35%)" stroke-width="0.00246"></path>
<path d="M0.331 0.316 Q0.647 0.357 0.796 0.212" stroke="hsl(0.0,100%,35%)" stroke-width="0.00368"></path>
<path d="M0.331 0.316 Q0.640 0.779 1.610 0.730" stroke="hsl(0.0,100%,35%)" stroke-width="0.00287"></path>
<path d="M0.331 0.316 Q0.739 0.418 1.027 0.242" stroke="hsl(0.0,100%,35%)" stroke-width="0.00205"></path>
<path d="M0.331 0.316 Q0.447 0.486 0.804 0.467" stroke="hsl(0.0,100%,35%)" stroke-width="0.00041"></path>
<path d="M0.331 0.316 Q0.917 0.533 1.468 0.295" stroke="hsl(0.0,100%,35%)" stroke-width="0.00123"></path>
<path d="M0.331 0.316 Q0.782 0.271 0.791 0.041" stroke="hsl(0.0,100%,35%)" stroke-width="0.00205"></path>
<path d="M0.331 0.316 Q0.223 0.268 0.104 0.310" stroke="hsl(0.0,100%,35%)" stroke-width="0.00041"></path>
<path d="M0.331 0.316 Q0.160 0.430 0.345 0.539" stroke="hsl(0.0,100%,35%)" stroke-width="0.00082"></path>
<path d="M0.331 0.316 Q0.268 0.571 0.751 0.658" stroke="hsl(0.0,100%,35%)" stroke-width="0.00041"></path>
<path d="M0.533 0.369 Q0.475 0.303 0.331 0.316" stroke="hsl(0.0,100%,35%)" stroke-width="0.04995"></path>
<path d="M0.533 0.369 Q0.623 0.784 1.452 0.831" stroke="hsl(0.0,100%,35%)" stroke-width="0.01228"></path>
<path d="M0.533 0.369 Q0.407 0.350 0.342 0.408" stroke="hsl(0.0,100%,35%)" stroke-width="0.00164"></path>
<path d="M0.533 0.369 Q0.689 0.252 0.493 0.150" stroke="hsl(0.0,100%,35%)" stroke-width="0.01105"></path>
<path d="M0.533 0.369 Q0.836 0.686 1.519 0.607" stroke="hsl(0.0,100%,35%)" stroke-width="0.01105"></path>
<path d="M0.533 0.369 Q0.298 0.296 0.104 0.395" stroke="hsl(0.0,100%,35%)" stroke-width="0.00041"></path>
<path d="M0.533 0.369 Q0.525 0.466 0.712 0.491" stroke="hsl(0.0,100%,35%)" stroke-width="0.00041"></path>
<path d="M0.533 0.369 Q0.925 0.257 0.791 0.041" stroke="hsl(0.0,100%,35%)" stroke-width="0.00082"></path>
<path d="M0.533 0.369 Q0.251 0.528 0.498 0.700" stroke="hsl(0.0,100%,35%)" stroke-width="0.00041"></path>
<path d="M0.533 0.369 Q0.367 0.254 0.104 0.310" stroke="hsl(0.0,100%,35%)" stroke-width="0.00860"></path>
<path d="M0.533 0.369 Q0.882 0.405 1.027 0.242" stroke="hsl(0.0,100%,35%)" stroke-width="0.00041"></path>
<path d="M1.610 0.730 Q1.450 0.749 1.452 0.831" stroke="hsl(180.0,100%,35%)" stroke-width="0.01310"></path>
<path d="M1.610 0.730 Q1.516 0.216 0.493 0.150" stroke="hsl(180.0,100%,35%)" stroke-width="0.00450"></path>
<path d="M1.610 0.730 Q1.301 0.267 0.331 0.316" stroke="hsl(180.0,100%,35%)" stroke-width="0.00491"></path>
<path d="M1.610 0.730 Q1.785 0.761 1.885 0.683" stroke="hsl(180.0,100%,35%)" stroke-width="0.00164"></path>
<path d="M1.610 0.730 Q1.488 0.686 1.375 0.736" stroke="hsl(180.0,100%,35%)" stroke-width="0.00041"></path>
<path d="M1.610 0.730 Q1.688 0.786 1.815 0.761" stroke="hsl(180.0,100%,35%)" stroke-width="0.00082"></path>
<path d="M1.610 0.730 Q1.752 0.221 0.791 0.041" stroke="hsl(180.0,100%,35%)" stroke-width="0.00082"></path>
<path d="M1.610 0.730 Q1.675 0.678 1.588 0.634" stroke="hsl(180.0,100%,35%)" stroke-width="0.00164"></path>
<path d="M1.610 0.730 Q1.078 0.492 0.498 0.700" stroke="hsl(180.0,100%,35%)" stroke-width="0.00123"></path>
<path d="M1.610 0.730 Q1.831 0.191 0.828 -0.035" stroke="hsl(180.0,100%,35%)" stroke-width="0.00041"></path>
<path d="M1.610 0.730 Q1.360 0.334 0.533 0.369" stroke="hsl(180.0,100%,35%)" stroke-width="0.00205"></path>
<path d="M1.610 0.730 Q1.887 0.484 1.468 0.295" stroke="hsl(180.0,100%,35%)" stroke-width="0.00041"></path>
<path d="M1.610 0.730 Q1.662 0.650 1.519 0.607" stroke="hsl(180.0,100%,35%)" stroke-width="0.00164"></path>
<path d="M1.610 0.730 Q1.558 0.823 1.729 0.869" stroke="hsl(180.0,100%,35%)" stroke-width="0.00041"></path>
<path d="M1.610 0.730 Q1.617 0.308 0.796 0.212" stroke="hsl(180.0,100%,35%)" stroke-width="0.00041"></path>
<path d="M1.610 0.730 Q1.539 0.657 1.381 0.675" stroke="hsl(180.0,100%,35%)" stroke-width="0.00082"></path>
<path d="M1.452 0.831 Q1.303 0.350 0.331 0.316" stroke="hsl(180.0,100%,35%)" stroke-width="0.02006"></path>
<path d="M1.452 0.831 Q1.787 0.843 1.885 0.683" stroke="hsl(180.0,100%,35%)" stroke-width="0.00778"></path>
<path d="M1.452 0.831 Q1.612 0.812 1.610 0.730" stroke="hsl(180.0,100%,35%)" stroke-width="0.03030"></path>
<path d="M1.452 0.831 Q1.489 0.768 1.375 0.736" stroke="hsl(180.0,100%,35%)" stroke-width="0.00082"></path>
<path d="M1.452 0.831 Q1.362 0.416 0.533 0.369" stroke="hsl(180.0,100%,35%)" stroke-width="0.00368"></path>
<path d="M1.452 0.831 Q1.080 0.575 0.498 0.700" stroke="hsl(180.0,100%,35%)" stroke-width="0.00041"></path>
<path d="M1.452 0.831 Q1.619 0.390 0.796 0.212" stroke="hsl(180.0,100%,35%)" stroke-width="0.00041"></path>
<path d="M1.452 0.831 Q1.664 0.733 1.519 0.607" stroke="hsl(180.0,100%,35%)" stroke-width="0.00901"></path>
<path d="M1.452 0.831 Q1.570 0.681 1.303 0.591" stroke="hsl(180.0,100%,35%)" stroke-width="0.00041"></path>
<path d="M1.452 0.831 Q1.517 0.299 0.493 0.150" stroke="hsl(180.0,100%,35%)" stroke-width="0.00287"></path>
<path d="M1.452 0.831 Q1.583 0.830 1.610 0.766" stroke="hsl(180.0,100%,35%)" stroke-width="0.00041"></path>
<path d="M0.493 0.150 Q0.279 0.201 0.331 0.316" stroke="hsl(0.0,100%,35%)" stroke-width="0.01310"></path>
<path d="M0.493 0.150 Q0.338 0.268 0.533 0.369" stroke="hsl(0.0,100%,35%)" stroke-width="0.00409"></path>
<path d="M0.493 0.150 Q0.465 0.619 1.375 0.736" stroke="hsl(0.0,100%,35%)" stroke-width="0.00041"></path>
<path d="M0.493 0.150 Q0.546 0.532 1.303 0.591" stroke="hsl(0.0,100%,35%)" stroke-width="0.00041"></path>
<path d="M0.493 0.150 Q0.428 0.682 1.452 0.831" stroke="hsl(0.0,100%,35%)" stroke-width="0.00778"></path>
<path d="M0.493 0.150 Q0.763 0.695 1.885 0.683" stroke="hsl(0.0,100%,35%)" stroke-width="0.00205"></path>
<path d="M0.493 0.150 Q0.588 0.663 1.610 0.730" stroke="hsl(0.0,100%,35%)" stroke-width="0.00205"></path>
<path d="M0.493 0.150 Q0.171 0.152 0.104 0.310" stroke="hsl(0.0,100%,35%)" stroke-width="0.00041"></path>
<path d="M0.493 0.150 Q0.730 0.155 0.791 0.041" stroke="hsl(0.0,100%,35%)" stroke-width="0.00041"></path>
<path d="M0.493 0.150 Q0.595 0.241 0.796 0.212" stroke="hsl(0.0,100%,35%)" stroke-width="0.00205"></path>
<path d="M0.493 0.150 Q0.762 0.181 0.882 0.056" stroke="hsl(0.0,100%,35%)" stroke-width="0.00041"></path>
<path d="M0.493 0.150 Q0.640 0.584 1.519 0.607" stroke="hsl(0.0,100%,35%)" stroke-width="0.00082"></path>
<path d="M0.342 0.408 Q0.410 0.360 0.331 0.316" stroke="hsl(0.0,100%,35%)" stroke-width="0.00450"></path>
<path d="M0.342 0.408 Q0.771 0.743 1.519 0.607" stroke="hsl(0.0,100%,35%)" stroke-width="0.00164"></path>
<path d="M0.342 0.408 Q0.468 0.427 0.533 0.369" stroke="hsl(0.0,100%,35%)" stroke-width="0.00450"></path>
<path d="M0.342 0.408 Q0.624 0.309 0.493 0.150" stroke="hsl(0.0,100%,35%)" stroke-width="0.00041"></path>
<path d="M0.104 0.395 Q0.281 0.401 0.331 0.316" stroke="hsl(0.0,100%,35%)" stroke-width="0.02907"></path>
<path d="M0.104 0.395 Q0.057 0.626 0.498 0.700" stroke="hsl(0.0,100%,35%)" stroke-width="0.00205"></path>
<path d="M0.104 0.395 Q0.339 0.468 0.533 0.369" stroke="hsl(0.0,100%,35%)" stroke-width="0.02088"></path>
<path d="M0.712 0.491 Q0.439 0.553 0.498 0.700" stroke="hsl(0.0,100%,35%)" stroke-width="0.00205"></path>
<path d="M0.712 0.491 Q0.662 0.328 0.331 0.316" stroke="hsl(0.0,100%,35%)" stroke-width="0.00123"></path>
<path d="M0.712 0.491 Q1.248 0.544 1.468 0.295" stroke="hsl(0.0,100%,35%)" stroke-width="0.00082"></path>
<path d="M0.498 0.700 Q0.683 0.657 0.640 0.557" stroke="hsl(0.0,100%,35%)" stroke-width="0.00328"></path>
<path d="M0.498 0.700 Q1.206 0.969 1.885 0.683" stroke="hsl(0.0,100%,35%)" stroke-width="0.00368"></path>
<path d="M0.498 0.700 Q0.722 0.475 0.331 0.316" stroke="hsl(0.0,100%,35%)" stroke-width="0.02088"></path>
<path d="M0.498 0.700 Q1.307 0.691 1.468 0.295" stroke="hsl(0.0,100%,35%)" stroke-width="0.00655"></path>
<path d="M0.498 0.700 Q0.772 0.638 0.712 0.491" stroke="hsl(0.0,100%,35%)" stroke-width="0.00368"></path>
<path d="M0.498 0.700 Q0.659 0.729 0.751 0.658" stroke="hsl(0.0,100%,35%)" stroke-width="0.00614"></path>
<path d="M0.498 0.700 Q1.272 0.814 1.664 0.462" stroke="hsl(0.0,100%,35%)" stroke-width="0.00041"></path>
<path d="M0.498 0.700 Q0.676 0.590 0.500 0.479" stroke="hsl(0.0,100%,35%)" stroke-width="0.00123"></path>
<path d="M0.498 0.700 Q0.743 0.743 0.881 0.632" stroke="hsl(0.0,100%,35%)" stroke-width="0.00082"></path>
<path d="M0.498 0.700 Q0.416 0.631 0.264 0.657" stroke="hsl(0.0,100%,35%)" stroke-width="0.00082"></path>
<path d="M0.498 0.700 Q0.908 0.893 1.375 0.736" stroke="hsl(0.0,100%,35%)" stroke-width="0.00041"></path>
<path d="M0.498 0.700 Q0.870 0.956 1.452 0.831" stroke="hsl(0.0,100%,35%)" stroke-width="0.00082"></path>
<path d="M0.498 0.700 Q1.030 0.937 1.610 0.730" stroke="hsl(0.0,100%,35%)" stroke-width="0.00164"></path>
<path d="M0.498 0.700 Q0.936 0.424 0.493 0.150" stroke="hsl(0.0,100%,35%)" stroke-width="0.00123"></path>
<path d="M0.498 0.700 Q0.864 0.723 0.990 0.550" stroke="hsl(0.0,100%,35%)" stroke-width="0.00041"></path>
<path d="M0.498 0.700 Q1.060 0.479 0.753 0.157" stroke="hsl(0.0,100%,35%)" stroke-width="0.00041"></path>
<path d="M0.498 0.700 Q0.361 0.640 0.213 0.693" stroke="hsl(0.0,100%,35%)" stroke-width="0.00082"></path>
<path d="M0.498 0.700 Q0.551 0.588 0.345 0.539" stroke="hsl(0.0,100%,35%)" stroke-width="0.00041"></path>
<path d="M0.498 0.700 Q0.708 0.702 0.758 0.600" stroke="hsl(0.0,100%,35%)" stroke-width="0.00041"></path>
<path d="M0.498 0.700 Q0.780 0.542 0.533 0.369" stroke="hsl(0.0,100%,35%)" stroke-width="0.00041"></path>
<path d="M0.104 0.310 Q0.212 0.358 0.331 0.316" stroke="hsl(0.0,100%,35%)" stroke-width="0.00082"></path>
<path d="M0.104 0.310 Q0.271 0.425 0.533 0.369" stroke="hsl(0.0,100%,35%)" stroke-width="0.00123"></path>
<path d="M0.104 0.310 Q0.521 0.821 1.610 0.730" stroke="hsl(0.0,100%,35%)" stroke-width="0.00041"></path>
<path d="M1.027 0.242 Q0.678 0.207 0.533 0.369" stroke="hsl(0.0,100%,35%)" stroke-width="0.00409"></path>
<path d="M1.027 0.242 Q0.620 0.140 0.331 0.316" stroke="hsl(0.0,100%,35%)" stroke-width="0.01269"></path>
<path d="M1.027 0.242 Q0.769 0.621 1.452 0.831" stroke="hsl(0.0,100%,35%)" stroke-width="0.00041"></path>
<path d="M1.742 0.267 Q1.583 0.226 1.468 0.295" stroke="hsl(0.0,100%,35%)" stroke-width="0.00328"></path>
<path d="M1.742 0.267 Q0.997 0.010 0.331 0.316" stroke="hsl(0.0,100%,35%)" stroke-width="0.00246"></path>
<path d="M1.742 0.267 Q0.774 0.235 0.498 0.700" stroke="hsl(0.0,100%,35%)" stroke-width="0.00082"></path>
<path d="M1.468 0.295 Q0.659 0.303 0.498 0.700" stroke="hsl(0.0,100%,35%)" stroke-width="0.00450"></path>
<path d="M1.468 0.295 Q0.933 0.242 0.712 0.491" stroke="hsl(0.0,100%,35%)" stroke-width="0.00041"></path>
<path d="M1.468 0.295 Q0.882 0.078 0.331 0.316" stroke="hsl(0.0,100%,35%)" stroke-width="0.00164"></path>
<path d="M1.468 0.295 Q0.941 0.145 0.533 0.369" stroke="hsl(0.0,100%,35%)" stroke-width="0.00041"></path>
<path d="M1.468 0.295 Q1.335 0.331 1.378 0.404" stroke="hsl(0.0,100%,35%)" stroke-width="0.00041"></path>
<path d="M1.468 0.295 Q1.432 0.417 1.664 0.462" stroke="hsl(0.0,100%,35%)" stroke-width="0.00041"></path>
<path d="M1.468 0.295 Q1.618 0.385 1.827 0.331" stroke="hsl(0.0,100%,35%)" stroke-width="0.00041"></path>
<path d="M1.885 0.683 Q1.178 0.414 0.498 0.700" stroke="hsl(180.0,100%,35%)" stroke-width="0.00368"></path>
<path d="M1.885 0.683 Q1.887 0.724 1.968 0.733" stroke="hsl(180.0,100%,35%)" stroke-width="0.00246"></path>
<path d="M1.885 0.683 Q1.550 0.670 1.452 0.831" stroke="hsl(180.0,100%,35%)" stroke-width="0.00737"></path>
<path d="M1.885 0.683 Q1.401 0.189 0.331 0.316" stroke="hsl(180.0,100%,35%)" stroke-width="0.00368"></path>
<path d="M1.885 0.683 Q1.852 0.143 0.791 0.041" stroke="hsl(180.0,100%,35%)" stroke-width="0.00082"></path>
<path d="M1.885 0.683 Q1.987 0.405 1.468 0.295" stroke="hsl(180.0,100%,35%)" stroke-width="0.00041"></path>
<path d="M1.885 0.683 Q1.452 0.352 0.712 0.491" stroke="hsl(180.0,100%,35%)" stroke-width="0.00041"></path>
<path d="M1.885 0.683 Q1.307 0.391 0.611 0.610" stroke="hsl(180.0,100%,35%)" stroke-width="0.00041"></path>
<path d="M1.885 0.683 Q1.714 0.748 1.804 0.846" stroke="hsl(180.0,100%,35%)" stroke-width="0.00041"></path>
<path d="M1.885 0.683 Q1.740 0.193 0.753 0.157" stroke="hsl(180.0,100%,35%)" stroke-width="0.00041"></path>
<path d="M1.885 0.683 Q1.616 0.138 0.493 0.150" stroke="hsl(180.0,100%,35%)" stroke-width="0.00041"></path>
<path d="M1.885 0.683 Q1.710 0.651 1.610 0.730" stroke="hsl(180.0,100%,35%)" stroke-width="0.00041"></path>
<path d="M1.375 0.736 Q1.403 0.267 0.493 0.150" stroke="hsl(180.0,100%,35%)" stroke-width="0.00123"></path>
<path d="M1.375 0.736 Q1.189 0.317 0.331 0.316" stroke="hsl(180.0,100%,35%)" stroke-width="0.00082"></path>
<path d="M1.375 0.736 Q1.497 0.780 1.610 0.730" stroke="hsl(180.0,100%,35%)" stroke-width="0.00082"></path>
<path d="M1.375 0.736 Q1.673 0.811 1.885 0.683" stroke="hsl(180.0,100%,35%)" stroke-width="0.00041"></path>
<path d="M1.815 0.761 Q1.879 0.196 0.791 0.041" stroke="hsl(180.0,100%,35%)" stroke-width="0.00123"></path>
<path d="M1.815 0.761 Q1.428 0.242 0.331 0.316" stroke="hsl(180.0,100%,35%)" stroke-width="0.00205"></path>
<path d="M1.815 0.761 Q1.737 0.704 1.610 0.730" stroke="hsl(180.0,100%,35%)" stroke-width="0.01187"></path>
<path d="M1.815 0.761 Q1.577 0.723 1.452 0.831" stroke="hsl(180.0,100%,35%)" stroke-width="0.00205"></path>
<path d="M1.815 0.761 Q1.643 0.191 0.493 0.150" stroke="hsl(180.0,100%,35%)" stroke-width="0.00082"></path>
<path d="M1.815 0.761 Q1.836 0.344 1.027 0.242" stroke="hsl(180.0,100%,35%)" stroke-width="0.00041"></path>
<path d="M1.588 0.634 Q1.664 0.178 0.791 0.041" stroke="hsl(180.0,100%,35%)" stroke-width="0.00041"></path>
<path d="M1.588 0.634 Q1.523 0.686 1.610 0.730" stroke="hsl(180.0,100%,35%)" stroke-width="0.00655"></path>
<path d="M1.588 0.634 Q1.272 0.291 0.533 0.369" stroke="hsl(180.0,100%,35%)" stroke-width="0.00041"></path>
<path d="M1.588 0.634 Q1.214 0.224 0.331 0.316" stroke="hsl(180.0,100%,35%)" stroke-width="0.00082"></path>
<path d="M1.588 0.634 Q1.698 0.718 1.885 0.683" stroke="hsl(180.0,100%,35%)" stroke-width="0.00041"></path>
<path d="M1.588 0.634 Q1.362 0.705 1.452 0.831" stroke="hsl(180.0,100%,35%)" stroke-width="0.00041"></path>
<path d="M0.828 -0.035 Q0.299 0.041 0.331 0.316" stroke="hsl(0.0,100%,35%)" stroke-width="0.00082"></path>
<path d="M0.828 -0.035 Q0.357 0.108 0.533 0.369" stroke="hsl(0.0,100%,35%)" stroke-width="0.00041"></path>
<path d="M0.828 -0.035 Q0.231 0.089 0.342 0.408" stroke="hsl(0.0,100%,35%)" stroke-width="0.00041"></path>
<path d="M0.796 0.212 Q0.480 0.171 0.331 0.316" stroke="hsl(0.0,100%,35%)" stroke-width="0.00491"></path>
<path d="M0.796 0.212 Q0.985 0.185 0.975 0.087" stroke="hsl(0.0,100%,35%)" stroke-width="0.00041"></path>
<path d="M0.796 0.212 Q0.694 0.120 0.493 0.150" stroke="hsl(0.0,100%,35%)" stroke-width="0.00082"></path>
<path d="M0.796 0.212 Q0.538 0.238 0.533 0.369" stroke="hsl(0.0,100%,35%)" stroke-width="0.00082"></path>
<path d="M0.796 0.212 Q0.789 0.633 1.610 0.730" stroke="hsl(0.0,100%,35%)" stroke-width="0.00082"></path>
<path d="M1.381 0.675 Q1.329 0.704 1.375 0.736" stroke="hsl(180.0,100%,35%)" stroke-width="0.00041"></path>
<path d="M1.381 0.675 Q1.452 0.748 1.610 0.730" stroke="hsl(180.0,100%,35%)" stroke-width="0.00123"></path>
<path d="M1.381 0.675 Q1.357 0.235 0.493 0.150" stroke="hsl(180.0,100%,35%)" stroke-width="0.00082"></path>
<path d="M1.237 0.318 Q1.371 0.353 1.468 0.295" stroke="hsl(0.0,100%,35%)" stroke-width="0.00123"></path>
<path d="M1.237 0.318 Q1.032 0.306 0.964 0.403" stroke="hsl(0.0,100%,35%)" stroke-width="0.00041"></path>
<path d="M1.237 0.318 Q0.785 0.136 0.331 0.316" stroke="hsl(0.0,100%,35%)" stroke-width="0.00041"></path>
<path d="M1.237 0.318 Q1.269 0.630 1.885 0.683" stroke="hsl(0.0,100%,35%)" stroke-width="0.00041"></path>
<path d="M1.237 0.318 Q0.722 0.391 0.751 0.658" stroke="hsl(0.0,100%,35%)" stroke-width="0.00041"></path>
<path d="M0.751 0.658 Q1.267 0.656 1.378 0.404" stroke="hsl(0.0,100%,35%)" stroke-width="0.00041"></path>
<path d="M0.751 0.658 Q1.400 0.619 1.468 0.295" stroke="hsl(0.0,100%,35%)" stroke-width="0.00287"></path>
<path d="M0.751 0.658 Q1.364 0.742 1.664 0.462" stroke="hsl(0.0,100%,35%)" stroke-width="0.00041"></path>
<path d="M0.751 0.658 Q1.061 0.573 0.964 0.403" stroke="hsl(0.0,100%,35%)" stroke-width="0.00041"></path>
<path d="M0.751 0.658 Q0.591 0.628 0.498 0.700" stroke="hsl(0.0,100%,35%)" stroke-width="0.00287"></path>
<path d="M0.710 0.746 Q0.641 0.680 0.498 0.700" stroke="hsl(0.0,100%,35%)" stroke-width="0.00082"></path>
<path d="M0.710 0.746 Q0.865 0.455 0.331 0.316" stroke="hsl(0.0,100%,35%)" stroke-width="0.00041"></path>
<path d="M0.710 0.746 Q1.450 0.672 1.468 0.295" stroke="hsl(0.0,100%,35%)" stroke-width="0.00082"></path>
<path d="M0.710 0.746 Q1.349 0.949 1.885 0.683" stroke="hsl(0.0,100%,35%)" stroke-width="0.00041"></path>
<path d="M0.990 0.550 Q0.624 0.527 0.498 0.700" stroke="hsl(0.0,100%,35%)" stroke-width="0.00082"></path>
<path d="M0.990 0.550 Q0.847 0.301 0.331 0.316" stroke="hsl(0.0,100%,35%)" stroke-width="0.00041"></path>
<path d="M0.990 0.550 Q1.433 0.518 1.468 0.295" stroke="hsl(0.0,100%,35%)" stroke-width="0.00041"></path>
<path d="M0.881 0.632 Q0.859 0.365 0.331 0.316" stroke="hsl(0.0,100%,35%)" stroke-width="0.00082"></path>
<path d="M0.881 0.632 Q1.073 0.314 0.493 0.150" stroke="hsl(0.0,100%,35%)" stroke-width="0.00041"></path>
<path d="M0.881 0.632 Q0.636 0.590 0.498 0.700" stroke="hsl(0.0,100%,35%)" stroke-width="0.00205"></path>
<path d="M0.881 0.632 Q1.008 0.846 1.452 0.831" stroke="hsl(0.0,100%,35%)" stroke-width="0.00041"></path>
<path d="M0.753 0.157 Q0.415 0.152 0.331 0.316" stroke="hsl(0.0,100%,35%)" stroke-width="0.01065"></path>
<path d="M0.753 0.157 Q0.191 0.377 0.498 0.700" stroke="hsl(0.0,100%,35%)" stroke-width="0.00328"></path>
<path d="M0.753 0.157 Q0.473 0.219 0.533 0.369" stroke="hsl(0.0,100%,35%)" stroke-width="0.00205"></path>
<path d="M0.753 0.157 Q0.629 0.101 0.493 0.150" stroke="hsl(0.0,100%,35%)" stroke-width="0.00082"></path>
<path d="M0.753 0.157 Q0.563 0.634 1.452 0.831" stroke="hsl(0.0,100%,35%)" stroke-width="0.00041"></path>
<path d="M0.753 0.157 Q0.776 0.535 1.519 0.607" stroke="hsl(0.0,100%,35%)" stroke-width="0.00041"></path>
<path d="M0.753 0.157 Q0.899 0.646 1.885 0.683" stroke="hsl(0.0,100%,35%)" stroke-width="0.00082"></path>
<path d="M0.753 0.157 Q1.000 0.369 1.468 0.295" stroke="hsl(0.0,100%,35%)" stroke-width="0.00041"></path>
<path d="M0.345 0.539 Q1.101 0.641 1.468 0.295" stroke="hsl(0.0,100%,35%)" stroke-width="0.00573"></path>
<path d="M0.345 0.539 Q0.292 0.650 0.498 0.700" stroke="hsl(0.0,100%,35%)" stroke-width="0.01310"></path>
<path d="M0.345 0.539 Q0.516 0.425 0.331 0.316" stroke="hsl(0.0,100%,35%)" stroke-width="0.01228"></path>
<path d="M0.345 0.539 Q1.252 0.731 1.827 0.331" stroke="hsl(0.0,100%,35%)" stroke-width="0.00082"></path>
<path d="M0.345 0.539 Q0.453 0.679 0.751 0.658" stroke="hsl(0.0,100%,35%)" stroke-width="0.00082"></path>
<path d="M0.345 0.539 Q1.000 0.919 1.885 0.683" stroke="hsl(0.0,100%,35%)" stroke-width="0.00041"></path>
<path d="M0.345 0.539 Q0.969 0.678 1.378 0.404" stroke="hsl(0.0,100%,35%)" stroke-width="0.00041"></path>
<path d="M1.248 0.630 Q1.350 0.752 1.610 0.730" stroke="hsl(180.0,100%,35%)" stroke-width="0.00287"></path>
<path d="M1.248 0.630 Q1.198 0.652 1.229 0.682" stroke="hsl(180.0,100%,35%)" stroke-width="0.00041"></path>
<path d="M1.248 0.630 Q1.491 0.244 0.791 0.041" stroke="hsl(180.0,100%,35%)" stroke-width="0.00041"></path>
<path d="M1.248 0.630 Q1.041 0.290 0.331 0.316" stroke="hsl(180.0,100%,35%)" stroke-width="0.00041"></path>
<path d="M0.300 0.081 Q0.436 0.667 1.610 0.730" stroke="hsl(180.0,100%,35%)" stroke-width="0.00041"></path>
<path d="M0.300 0.081 Q0.186 0.272 0.533 0.369" stroke="hsl(180.0,100%,35%)" stroke-width="0.00041"></path>
<path d="M0.300 0.081 Q0.128 0.205 0.331 0.316" stroke="hsl(180.0,100%,35%)" stroke-width="0.00041"></path>
<path d="M1.254 0.113 Q0.630 0.030 0.331 0.316" stroke="hsl(0.0,100%,35%)" stroke-width="0.00123"></path>
<path d="M1.254 0.113 Q1.037 0.132 1.027 0.242" stroke="hsl(0.0,100%,35%)" stroke-width="0.00082"></path>
<path d="M0.379 0.814 Q0.530 0.781 0.498 0.700" stroke="hsl(0.0,100%,35%)" stroke-width="0.00082"></path>
<path d="M0.379 0.814 Q0.262 0.808 0.226 0.864" stroke="hsl(0.0,100%,35%)" stroke-width="0.00041"></path>
<path d="M0.379 0.814 Q0.753 0.556 0.331 0.316" stroke="hsl(0.0,100%,35%)" stroke-width="0.00082"></path>
<path d="M1.660 0.857 Q1.642 0.270 0.493 0.150" stroke="hsl(180.0,100%,35%)" stroke-width="0.00041"></path>
<path d="M1.660 0.857 Q1.577 0.802 1.452 0.831" stroke="hsl(180.0,100%,35%)" stroke-width="0.00123"></path>
<path d="M1.660 0.857 Q1.912 0.815 1.885 0.683" stroke="hsl(180.0,100%,35%)" stroke-width="0.00041"></path>
<path d="M1.660 0.857 Q1.428 0.321 0.331 0.316" stroke="hsl(180.0,100%,35%)" stroke-width="0.00041"></path>
<path d="M1.378 0.404 Q0.701 0.376 0.498 0.700" stroke="hsl(0.0,100%,35%)" stroke-width="0.00123"></path>
<path d="M1.378 0.404 Q1.510 0.367 1.468 0.295" stroke="hsl(0.0,100%,35%)" stroke-width="0.00737"></path>
<path d="M1.378 0.404 Q0.925 0.151 0.331 0.316" stroke="hsl(0.0,100%,35%)" stroke-width="0.00246"></path>
<path d="M1.378 0.404 Q1.661 0.457 1.827 0.331" stroke="hsl(0.0,100%,35%)" stroke-width="0.00041"></path>
<path d="M1.378 0.404 Q1.376 0.333 1.237 0.318" stroke="hsl(0.0,100%,35%)" stroke-width="0.00287"></path>
<path d="M1.378 0.404 Q1.475 0.490 1.664 0.462" stroke="hsl(0.0,100%,35%)" stroke-width="0.00041"></path>
<path d="M1.827 0.331 Q1.091 0.025 0.331 0.316" stroke="hsl(0.0,100%,35%)" stroke-width="0.00041"></path>
<path d="M1.827 0.331 Q1.677 0.241 1.468 0.295" stroke="hsl(0.0,100%,35%)" stroke-width="0.00082"></path>
<path d="M1.827 0.331 Q0.868 0.250 0.498 0.700" stroke="hsl(0.0,100%,35%)" stroke-width="0.00041"></path>
<path d="M1.185 0.167 Q0.415 0.296 0.498 0.700" stroke="hsl(0.0,100%,35%)" stroke-width="0.00082"></path>
<path d="M1.185 0.167 Q1.092 0.324 1.378 0.404" stroke="hsl(0.0,100%,35%)" stroke-width="0.00041"></path>
<path d="M1.185 0.167 Q1.224 0.287 1.468 0.295" stroke="hsl(0.0,100%,35%)" stroke-width="0.00123"></path>
<path d="M1.185 0.167 Q0.639 0.071 0.331 0.316" stroke="hsl(0.0,100%,35%)" stroke-width="0.00041"></path>
<path d="M0.779 0.394 Q0.617 0.265 0.331 0.316" stroke="hsl(0.0,100%,35%)" stroke-width="0.00205"></path>
<path d="M0.779 0.394 Q0.676 0.332 0.533 0.369" stroke="hsl(0.0,100%,35%)" stroke-width="0.00082"></path>
<path d="M0.779 0.394 Q0.394 0.491 0.498 0.700" stroke="hsl(0.0,100%,35%)" stroke-width="0.00041"></path>
<path d="M0.611 0.610 Q0.535 0.521 0.345 0.539" stroke="hsl(0.0,100%,35%)" stroke-width="0.00041"></path>
<path d="M0.611 0.610 Q1.292 0.623 1.468 0.295" stroke="hsl(0.0,100%,35%)" stroke-width="0.00123"></path>
<path d="M0.611 0.610 Q0.483 0.632 0.498 0.700" stroke="hsl(0.0,100%,35%)" stroke-width="0.00164"></path>
<path d="M1.966 0.607 Q1.865 0.628 1.885 0.683" stroke="hsl(180.0,100%,35%)" stroke-width="0.00082"></path>
<path d="M1.966 0.607 Q1.967 0.351 1.468 0.295" stroke="hsl(180.0,100%,35%)" stroke-width="0.00041"></path>
<path d="M1.966 0.607 Q1.381 0.135 0.331 0.316" stroke="hsl(180.0,100%,35%)" stroke-width="0.00041"></path>
<path d="M1.966 0.607 Q1.595 0.084 0.493 0.150" stroke="hsl(180.0,100%,35%)" stroke-width="0.00041"></path>
</g>
<text x="1.519" y="0.587" font-size="0.041265" fill="hsl(0.0,100%,20%)">abdolrashidi</text>
<text x="0.331" y="0.267" font-size="0.099293" fill="hsl(0.0,100%,20%)">syoussefi</text>
<text x="0.533" y="0.333" font-size="0.073272" fill="hsl(0.0,100%,20%)">cclao</text>
<text x="1.303" y="0.588" font-size="0.005704" fill="hsl(180.0,100%,20%)">kaiyili</text>
<text x="1.610" y="0.704" font-size="0.051338" fill="hsl(180.0,100%,20%)">cnorthrop</text>
<text x="1.452" y="0.801" font-size="0.060098" fill="hsl(180.0,100%,20%)">romanl</text>
<text x="0.493" y="0.125" font-size="0.048848" fill="hsl(0.0,100%,20%)">yuxinhu</text>
<text x="0.342" y="0.399" font-size="0.018630" fill="hsl(0.0,100%,20%)">hailinzhang</text>
<text x="0.104" y="0.375" font-size="0.039657" fill="hsl(0.0,100%,20%)">i.nazarov</text>
<text x="0.712" y="0.484" font-size="0.015447" fill="hsl(0.0,100%,20%)">jonahr</text>
<text x="0.791" y="0.034" font-size="0.013579" fill="hsl(180.0,100%,20%)">ianelliott</text>
<text x="0.498" y="0.671" font-size="0.058172" fill="hsl(0.0,100%,20%)">geofflang</text>
<text x="0.104" y="0.301" font-size="0.017735" fill="hsl(0.0,100%,20%)">chrisforbes</text>
<text x="1.027" y="0.230" font-size="0.023519" fill="hsl(0.0,100%,20%)">m.maiya</text>
<text x="1.742" y="0.261" font-size="0.013173" fill="hsl(0.0,100%,20%)">chris</text>
<text x="1.468" y="0.278" font-size="0.033907" fill="hsl(0.0,100%,20%)">kbr</text>
<text x="1.885" y="0.665" font-size="0.034697" fill="hsl(180.0,100%,20%)">ynovikov</text>
<text x="1.375" y="0.729" font-size="0.013173" fill="hsl(180.0,100%,20%)">solti</text>
<text x="1.815" y="0.749" font-size="0.022578" fill="hsl(180.0,100%,20%)">mark</text>
<text x="1.588" y="0.626" font-size="0.016793" fill="hsl(180.0,100%,20%)">mikes</text>
<text x="0.828" y="-0.039" font-size="0.007364" fill="hsl(0.0,100%,20%)">gregschlom</text>
<text x="1.729" y="0.867" font-size="0.003293" fill="hsl(180.0,100%,20%)">jmadill</text>
<text x="0.796" y="0.202" font-size="0.019484" fill="hsl(0.0,100%,20%)">zzyiwei</text>
<text x="1.381" y="0.671" font-size="0.009315" fill="hsl(180.0,100%,20%)">lpy</text>
<text x="1.237" y="0.312" font-size="0.012322" fill="hsl(0.0,100%,20%)">djg</text>
<text x="0.964" y="0.401" font-size="0.004657" fill="hsl(0.0,100%,20%)">sunnyps</text>
<text x="0.751" y="0.648" font-size="0.019760" fill="hsl(0.0,100%,20%)">lehoangquyen</text>
<text x="0.710" y="0.742" font-size="0.008067" fill="hsl(0.0,100%,20%)">dtapuska</text>
<text x="0.990" y="0.546" font-size="0.007364" fill="hsl(0.0,100%,20%)">enga</text>
<text x="0.640" y="0.552" font-size="0.009880" fill="hsl(0.0,100%,20%)">penghuang</text>
<text x="1.664" y="0.458" font-size="0.006587" fill="hsl(0.0,100%,20%)">gman</text>
<text x="0.500" y="0.476" font-size="0.005704" fill="hsl(0.0,100%,20%)">blundell</text>
<text x="0.881" y="0.627" font-size="0.010923" fill="hsl(0.0,100%,20%)">hob</text>
<text x="0.264" y="0.654" font-size="0.004657" fill="hsl(0.0,100%,20%)">vasilyt</text>
<text x="0.753" y="0.145" font-size="0.023053" fill="hsl(0.0,100%,20%)">steven</text>
<text x="0.213" y="0.691" font-size="0.004657" fill="hsl(0.0,100%,20%)">rafael.cintron</text>
<text x="0.345" y="0.523" font-size="0.030541" fill="hsl(0.0,100%,20%)">lexa.knyazev</text>
<text x="0.758" y="0.598" font-size="0.003293" fill="hsl(0.0,100%,20%)">jamesgk</text>
<text x="1.248" y="0.625" font-size="0.010414" fill="hsl(180.0,100%,20%)">gert.wollny</text>
<text x="1.229" y="0.680" font-size="0.003293" fill="hsl(180.0,100%,20%)">vantablack</text>
<text x="0.300" y="0.078" font-size="0.005704" fill="hsl(180.0,100%,20%)">hans</text>
<text x="1.254" y="0.109" font-size="0.007364" fill="hsl(0.0,100%,20%)">j.vigil</text>
<text x="0.379" y="0.810" font-size="0.007364" fill="hsl(0.0,100%,20%)">jiawei.shao</text>
<text x="0.226" y="0.862" font-size="0.003293" fill="hsl(0.0,100%,20%)">senorblanco</text>
<text x="1.660" y="0.853" font-size="0.008067" fill="hsl(180.0,100%,20%)">jojwang</text>
<text x="1.378" y="0.394" font-size="0.020829" fill="hsl(0.0,100%,20%)">kkinnunen</text>
<text x="1.827" y="0.327" font-size="0.009315" fill="hsl(0.0,100%,20%)">kpiddington</text>
<text x="1.185" y="0.162" font-size="0.008713" fill="hsl(0.0,100%,20%)">msisov</text>
<text x="0.779" y="0.389" font-size="0.009315" fill="hsl(0.0,100%,20%)">phanquangminh217</text>
<text x="1.610" y="0.764" font-size="0.003293" fill="hsl(180.0,100%,20%)">zijiehe</text>
<text x="0.611" y="0.605" font-size="0.009880" fill="hsl(0.0,100%,20%)">sky</text>
<text x="1.966" y="0.603" font-size="0.007364" fill="hsl(180.0,100%,20%)">sokcevic</text>
<text x="0.804" y="0.465" font-size="0.003293" fill="hsl(0.0,100%,20%)">natsu</text>
<text x="1.968" y="0.728" font-size="0.008067" fill="hsl(180.0,100%,20%)">bsheedy</text>
<text x="1.804" y="0.844" font-size="0.003293" fill="hsl(180.0,100%,20%)">cwallez</text>
<text x="0.882" y="0.055" font-size="0.003293" fill="hsl(0.0,100%,20%)">sugoi</text>
<text x="0.975" y="0.086" font-size="0.003293" fill="hsl(0.0,100%,20%)">rjodin</text>
</svg>
