<svg width="4000" height="2000" viewBox="-0.025 -0.025 2.05 1.05" xmlns="http://www.w3.org/2000/svg">
  <style>
    path {
      fill: none;
      stroke-linecap: round;
      stroke-opacity: 0.4;
    }

    text {
      text-anchor: middle;
      alignment-baseline: hanging;
    }
  </style>
  <g opacity="0.4">
<path d="M1.617 0.470 Q1.149 0.494 1.094 0.728" stroke="hsl(0.0,100%,35%)" stroke-width="0.01886"></path>
<path d="M1.617 0.470 Q1.421 0.524 1.484 0.632" stroke="hsl(0.0,100%,35%)" stroke-width="0.01886"></path>
<path d="M1.617 0.470 Q1.442 0.434 1.333 0.511" stroke="hsl(0.0,100%,35%)" stroke-width="0.01886"></path>
<path d="M1.094 0.728 Q1.387 0.667 1.333 0.511" stroke="hsl(0.0,100%,35%)" stroke-width="0.09428"></path>
<path d="M1.094 0.728 Q0.854 0.710 0.767 0.823" stroke="hsl(0.0,100%,35%)" stroke-width="0.05657"></path>
<path d="M1.094 0.728 Q1.355 0.500 0.969 0.322" stroke="hsl(0.0,100%,35%)" stroke-width="0.01886"></path>
<path d="M0.570 0.611 Q0.461 0.676 0.563 0.743" stroke="hsl(0.0,100%,35%)" stroke-width="0.01886"></path>
<path d="M0.570 0.611 Q0.738 0.774 1.094 0.728" stroke="hsl(0.0,100%,35%)" stroke-width="0.01886"></path>
<path d="M0.570 0.611 Q0.499 0.756 0.767 0.823" stroke="hsl(0.0,100%,35%)" stroke-width="0.01886"></path>
</g>
<text x="1.617" y="0.438" font-size="0.063246" fill="hsl(0.0,100%,20%)">hailinzhang</text>
<text x="1.094" y="0.667" font-size="0.121106" fill="hsl(0.0,100%,20%)">syoussefi</text>
<text x="1.484" y="0.613" font-size="0.036515" fill="hsl(0.0,100%,20%)">abdolrashidi</text>
<text x="1.333" y="0.466" font-size="0.089443" fill="hsl(0.0,100%,20%)">cclao</text>
<text x="0.570" y="0.579" font-size="0.063246" fill="hsl(0.0,100%,20%)">solti</text>
<text x="0.563" y="0.725" font-size="0.036515" fill="hsl(0.0,100%,20%)">ynovikov</text>
<text x="0.767" y="0.786" font-size="0.073030" fill="hsl(0.0,100%,20%)">cnorthrop</text>
<text x="0.969" y="0.304" font-size="0.036515" fill="hsl(0.0,100%,20%)">lexa.knyazev</text>
</svg>
