<svg width="4000" height="2000" viewBox="-0.025 -0.025 2.05 1.05" xmlns="http://www.w3.org/2000/svg">
  <style>
    path {
      fill: none;
      stroke-linecap: round;
      stroke-opacity: 0.4;
    }

    text {
      text-anchor: middle;
      alignment-baseline: hanging;
    }
  </style>
  <g opacity="0.4">
<path d="M1.163 0.529 Q1.203 0.284 0.733 0.211" stroke="hsl(0.0,100%,35%)" stroke-width="0.00327"></path>
<path d="M1.163 0.529 Q1.170 0.390 0.900 0.357" stroke="hsl(0.0,100%,35%)" stroke-width="0.00227"></path>
<path d="M1.163 0.529 Q1.435 0.432 1.305 0.278" stroke="hsl(0.0,100%,35%)" stroke-width="0.00050"></path>
<path d="M1.163 0.529 Q1.139 0.835 1.729 0.914" stroke="hsl(0.0,100%,35%)" stroke-width="0.00025"></path>
<path d="M0.733 0.211 Q0.692 0.211 0.684 0.231" stroke="hsl(0.0,100%,35%)" stroke-width="0.00050"></path>
<path d="M0.733 0.211 Q0.700 0.317 0.900 0.357" stroke="hsl(0.0,100%,35%)" stroke-width="0.06071"></path>
<path d="M0.733 0.211 Q0.965 0.359 1.305 0.278" stroke="hsl(0.0,100%,35%)" stroke-width="0.00680"></path>
<path d="M0.733 0.211 Q0.563 0.183 0.470 0.259" stroke="hsl(0.0,100%,35%)" stroke-width="0.00126"></path>
<path d="M0.733 0.211 Q0.824 0.121 0.667 0.057" stroke="hsl(0.0,100%,35%)" stroke-width="0.04383"></path>
<path d="M0.733 0.211 Q0.459 0.259 0.493 0.403" stroke="hsl(0.0,100%,35%)" stroke-width="0.00025"></path>
<path d="M0.733 0.211 Q0.628 0.458 1.086 0.563" stroke="hsl(0.0,100%,35%)" stroke-width="0.00050"></path>
<path d="M0.733 0.211 Q0.480 0.330 0.656 0.479" stroke="hsl(0.0,100%,35%)" stroke-width="0.00126"></path>
<path d="M0.733 0.211 Q0.693 0.456 1.163 0.529" stroke="hsl(0.0,100%,35%)" stroke-width="0.00050"></path>
<path d="M0.733 0.211 Q0.908 0.191 0.907 0.101" stroke="hsl(0.0,100%,35%)" stroke-width="0.00025"></path>
<path d="M0.733 0.211 Q1.090 0.385 1.507 0.249" stroke="hsl(0.0,100%,35%)" stroke-width="0.00453"></path>
<path d="M0.733 0.211 Q0.818 0.372 1.150 0.366" stroke="hsl(0.0,100%,35%)" stroke-width="0.00327"></path>
<path d="M0.733 0.211 Q0.675 0.566 1.355 0.672" stroke="hsl(0.0,100%,35%)" stroke-width="0.00227"></path>
<path d="M0.733 0.211 Q0.621 0.098 0.376 0.128" stroke="hsl(0.0,100%,35%)" stroke-width="0.00050"></path>
<path d="M0.733 0.211 Q0.623 0.224 0.625 0.281" stroke="hsl(0.0,100%,35%)" stroke-width="0.00277"></path>
<path d="M0.733 0.211 Q0.623 0.182 0.543 0.229" stroke="hsl(0.0,100%,35%)" stroke-width="0.00025"></path>
<path d="M0.733 0.211 Q0.721 0.435 1.156 0.490" stroke="hsl(0.0,100%,35%)" stroke-width="0.00076"></path>
<path d="M0.733 0.211 Q0.887 0.630 1.739 0.647" stroke="hsl(0.0,100%,35%)" stroke-width="0.00025"></path>
<path d="M0.733 0.211 Q1.234 0.483 1.874 0.298" stroke="hsl(0.0,100%,35%)" stroke-width="0.00025"></path>
<path d="M0.733 0.211 Q0.975 -0.096 0.428 -0.281" stroke="hsl(0.0,100%,35%)" stroke-width="0.00025"></path>
<path d="M0.733 0.211 Q0.628 0.071 0.332 0.092" stroke="hsl(0.0,100%,35%)" stroke-width="0.00025"></path>
<path d="M0.733 0.211 Q0.669 0.762 1.729 0.914" stroke="hsl(0.0,100%,35%)" stroke-width="0.00126"></path>
<path d="M0.733 0.211 Q0.664 0.321 0.863 0.378" stroke="hsl(0.0,100%,35%)" stroke-width="0.00025"></path>
<path d="M0.733 0.211 Q0.847 0.167 0.786 0.102" stroke="hsl(0.0,100%,35%)" stroke-width="0.00050"></path>
<path d="M0.900 0.357 Q0.932 0.251 0.733 0.211" stroke="hsl(0.0,100%,35%)" stroke-width="0.02947"></path>
<path d="M0.900 0.357 Q1.017 0.412 1.150 0.366" stroke="hsl(0.0,100%,35%)" stroke-width="0.02645"></path>
<path d="M0.900 0.357 Q1.165 0.398 1.305 0.278" stroke="hsl(0.0,100%,35%)" stroke-width="0.00554"></path>
<path d="M0.900 0.357 Q1.107 0.230 0.907 0.101" stroke="hsl(0.0,100%,35%)" stroke-width="0.00479"></path>
<path d="M0.900 0.357 Q0.893 0.496 1.163 0.529" stroke="hsl(0.0,100%,35%)" stroke-width="0.00101"></path>
<path d="M0.900 0.357 Q0.892 0.251 0.684 0.231" stroke="hsl(0.0,100%,35%)" stroke-width="0.00025"></path>
<path d="M0.900 0.357 Q0.875 0.606 1.355 0.672" stroke="hsl(0.0,100%,35%)" stroke-width="0.00655"></path>
<path d="M0.900 0.357 Q0.680 0.369 0.656 0.479" stroke="hsl(0.0,100%,35%)" stroke-width="0.02998"></path>
<path d="M0.900 0.357 Q1.023 0.160 0.667 0.057" stroke="hsl(0.0,100%,35%)" stroke-width="0.03224"></path>
<path d="M0.900 0.357 Q1.086 0.670 1.739 0.647" stroke="hsl(0.0,100%,35%)" stroke-width="0.00025"></path>
<path d="M0.900 0.357 Q1.185 0.292 1.123 0.139" stroke="hsl(0.0,100%,35%)" stroke-width="0.00025"></path>
<path d="M0.900 0.357 Q0.823 0.222 0.543 0.229" stroke="hsl(0.0,100%,35%)" stroke-width="0.00050"></path>
<path d="M0.900 0.357 Q0.823 0.264 0.625 0.281" stroke="hsl(0.0,100%,35%)" stroke-width="0.00705"></path>
<path d="M0.900 0.357 Q0.500 0.406 0.508 0.611" stroke="hsl(0.0,100%,35%)" stroke-width="0.00025"></path>
<path d="M0.900 0.357 Q0.869 0.801 1.729 0.914" stroke="hsl(0.0,100%,35%)" stroke-width="0.00025"></path>
<path d="M0.900 0.357 Q1.222 0.181 0.951 -0.014" stroke="hsl(0.0,100%,35%)" stroke-width="0.00076"></path>
<path d="M0.900 0.357 Q1.289 0.424 1.507 0.249" stroke="hsl(0.0,100%,35%)" stroke-width="0.00101"></path>
<path d="M0.900 0.357 Q1.115 0.238 0.932 0.107" stroke="hsl(0.0,100%,35%)" stroke-width="0.00025"></path>
<path d="M0.900 0.357 Q0.525 0.326 0.382 0.502" stroke="hsl(0.0,100%,35%)" stroke-width="0.00151"></path>
<path d="M0.900 0.357 Q0.820 0.513 1.107 0.586" stroke="hsl(0.0,100%,35%)" stroke-width="0.00025"></path>
<path d="M0.900 0.357 Q1.353 0.157 1.065 -0.108" stroke="hsl(0.0,100%,35%)" stroke-width="0.00025"></path>
<path d="M0.900 0.357 Q0.828 0.497 1.086 0.563" stroke="hsl(0.0,100%,35%)" stroke-width="0.00025"></path>
<path d="M0.900 0.357 Q0.763 0.222 0.470 0.259" stroke="hsl(0.0,100%,35%)" stroke-width="0.00025"></path>
<path d="M0.900 0.357 Q0.830 0.370 0.840 0.407" stroke="hsl(0.0,100%,35%)" stroke-width="0.00025"></path>
<path d="M1.305 0.278 Q1.040 0.236 0.900 0.357" stroke="hsl(0.0,100%,35%)" stroke-width="0.02192"></path>
<path d="M1.305 0.278 Q1.429 0.304 1.507 0.249" stroke="hsl(0.0,100%,35%)" stroke-width="0.00731"></path>
<path d="M1.305 0.278 Q1.073 0.130 0.733 0.211" stroke="hsl(0.0,100%,35%)" stroke-width="0.01612"></path>
<path d="M1.305 0.278 Q1.157 0.291 1.150 0.366" stroke="hsl(0.0,100%,35%)" stroke-width="0.00025"></path>
<path d="M1.305 0.278 Q1.032 0.131 0.684 0.231" stroke="hsl(0.0,100%,35%)" stroke-width="0.00025"></path>
<path d="M1.305 0.278 Q1.163 0.040 0.667 0.057" stroke="hsl(0.0,100%,35%)" stroke-width="0.01209"></path>
<path d="M1.305 0.278 Q0.963 0.101 0.543 0.229" stroke="hsl(0.0,100%,35%)" stroke-width="0.00025"></path>
<path d="M1.305 0.278 Q0.903 0.102 0.470 0.259" stroke="hsl(0.0,100%,35%)" stroke-width="0.00025"></path>
<path d="M1.305 0.278 Q0.820 0.249 0.656 0.479" stroke="hsl(0.0,100%,35%)" stroke-width="0.00176"></path>
<path d="M1.305 0.278 Q1.015 0.485 1.355 0.672" stroke="hsl(0.0,100%,35%)" stroke-width="0.00076"></path>
<path d="M1.729 0.914 Q1.793 0.363 0.733 0.211" stroke="hsl(180.0,100%,35%)" stroke-width="0.00302"></path>
<path d="M1.729 0.914 Q1.937 0.894 1.945 0.788" stroke="hsl(180.0,100%,35%)" stroke-width="0.00025"></path>
<path d="M1.729 0.914 Q1.878 0.524 1.150 0.366" stroke="hsl(180.0,100%,35%)" stroke-width="0.00151"></path>
<path d="M1.729 0.914 Q1.760 0.469 0.900 0.357" stroke="hsl(180.0,100%,35%)" stroke-width="0.00227"></path>
<path d="M1.729 0.914 Q1.815 0.819 1.649 0.756" stroke="hsl(180.0,100%,35%)" stroke-width="0.00025"></path>
<path d="M1.729 0.914 Q1.884 0.273 0.667 0.057" stroke="hsl(180.0,100%,35%)" stroke-width="0.00025"></path>
<path d="M1.729 0.914 Q1.683 0.376 0.625 0.281" stroke="hsl(180.0,100%,35%)" stroke-width="0.00050"></path>
<path d="M1.729 0.914 Q1.625 0.879 1.536 0.923" stroke="hsl(180.0,100%,35%)" stroke-width="0.00025"></path>
<path d="M1.729 0.914 Q1.540 0.482 0.656 0.479" stroke="hsl(180.0,100%,35%)" stroke-width="0.00050"></path>
<path d="M1.729 0.914 Q1.735 0.718 1.355 0.672" stroke="hsl(180.0,100%,35%)" stroke-width="0.00025"></path>
<path d="M1.771 0.112 Q1.658 0.149 1.705 0.212" stroke="hsl(180.0,100%,35%)" stroke-width="0.00126"></path>
<path d="M1.771 0.112 Q1.139 0.060 0.900 0.357" stroke="hsl(180.0,100%,35%)" stroke-width="0.00126"></path>
<path d="M1.771 0.112 Q1.114 0.309 1.355 0.672" stroke="hsl(180.0,100%,35%)" stroke-width="0.00050"></path>
<path d="M1.355 0.672 Q1.618 0.791 1.907 0.689" stroke="hsl(180.0,100%,35%)" stroke-width="0.00025"></path>
<path d="M1.355 0.672 Q1.413 0.317 0.733 0.211" stroke="hsl(180.0,100%,35%)" stroke-width="0.00227"></path>
<path d="M1.355 0.672 Q1.380 0.423 0.900 0.357" stroke="hsl(180.0,100%,35%)" stroke-width="0.00630"></path>
<path d="M1.355 0.672 Q1.567 0.737 1.739 0.647" stroke="hsl(180.0,100%,35%)" stroke-width="0.00176"></path>
<path d="M1.355 0.672 Q1.350 0.868 1.729 0.914" stroke="hsl(180.0,100%,35%)" stroke-width="0.00126"></path>
<path d="M1.355 0.672 Q1.614 0.644 1.616 0.512" stroke="hsl(180.0,100%,35%)" stroke-width="0.00025"></path>
<path d="M1.355 0.672 Q1.504 0.227 0.667 0.057" stroke="hsl(180.0,100%,35%)" stroke-width="0.00101"></path>
<path d="M1.355 0.672 Q1.308 0.177 0.332 0.092" stroke="hsl(180.0,100%,35%)" stroke-width="0.00025"></path>
<path d="M1.355 0.672 Q1.303 0.330 0.625 0.281" stroke="hsl(180.0,100%,35%)" stroke-width="0.00176"></path>
<path d="M1.355 0.672 Q1.666 0.359 1.123 0.139" stroke="hsl(180.0,100%,35%)" stroke-width="0.00025"></path>
<path d="M1.355 0.672 Q1.243 0.289 0.470 0.259" stroke="hsl(180.0,100%,35%)" stroke-width="0.00025"></path>
<path d="M1.355 0.672 Q1.522 0.638 1.491 0.548" stroke="hsl(180.0,100%,35%)" stroke-width="0.00025"></path>
<path d="M1.355 0.672 Q1.646 0.465 1.305 0.278" stroke="hsl(180.0,100%,35%)" stroke-width="0.00050"></path>
<path d="M1.355 0.672 Q1.498 0.478 1.150 0.366" stroke="hsl(180.0,100%,35%)" stroke-width="0.00025"></path>
<path d="M0.966 0.144 Q0.762 0.237 0.900 0.357" stroke="hsl(0.0,100%,35%)" stroke-width="0.00076"></path>
<path d="M0.966 0.144 Q0.795 0.131 0.733 0.211" stroke="hsl(0.0,100%,35%)" stroke-width="0.00050"></path>
<path d="M0.966 0.144 Q0.886 0.040 0.667 0.057" stroke="hsl(0.0,100%,35%)" stroke-width="0.00025"></path>
<path d="M0.667 0.057 Q0.543 0.253 0.900 0.357" stroke="hsl(0.0,100%,35%)" stroke-width="0.01385"></path>
<path d="M0.667 0.057 Q0.576 0.147 0.733 0.211" stroke="hsl(0.0,100%,35%)" stroke-width="0.00907"></path>
<path d="M0.667 0.057 Q0.809 0.295 1.305 0.278" stroke="hsl(0.0,100%,35%)" stroke-width="0.00378"></path>
<path d="M0.667 0.057 Q0.324 0.266 0.656 0.479" stroke="hsl(0.0,100%,35%)" stroke-width="0.00705"></path>
<path d="M0.667 0.057 Q0.933 0.321 1.507 0.249" stroke="hsl(0.0,100%,35%)" stroke-width="0.00176"></path>
<path d="M0.667 0.057 Q0.537 0.392 1.163 0.529" stroke="hsl(0.0,100%,35%)" stroke-width="0.00025"></path>
<path d="M0.667 0.057 Q0.796 0.124 0.955 0.075" stroke="hsl(0.0,100%,35%)" stroke-width="0.00050"></path>
<path d="M0.667 0.057 Q0.519 0.502 1.355 0.672" stroke="hsl(0.0,100%,35%)" stroke-width="0.00378"></path>
<path d="M0.667 0.057 Q0.661 0.308 1.150 0.366" stroke="hsl(0.0,100%,35%)" stroke-width="0.00076"></path>
<path d="M0.845 0.085 Q0.656 0.232 0.900 0.357" stroke="hsl(0.0,100%,35%)" stroke-width="0.00327"></path>
<path d="M0.845 0.085 Q0.688 0.126 0.733 0.211" stroke="hsl(0.0,100%,35%)" stroke-width="0.00378"></path>
<path d="M0.845 0.085 Q0.519 0.097 0.470 0.259" stroke="hsl(0.0,100%,35%)" stroke-width="0.00025"></path>
<path d="M0.845 0.085 Q0.576 0.013 0.376 0.128" stroke="hsl(0.0,100%,35%)" stroke-width="0.00025"></path>
<path d="M0.845 0.085 Q0.892 0.125 0.979 0.111" stroke="hsl(0.0,100%,35%)" stroke-width="0.00025"></path>
<path d="M0.845 0.085 Q0.844 0.212 1.090 0.241" stroke="hsl(0.0,100%,35%)" stroke-width="0.00025"></path>
<path d="M0.845 0.085 Q1.045 0.299 1.507 0.249" stroke="hsl(0.0,100%,35%)" stroke-width="0.00025"></path>
<path d="M0.470 0.259 Q0.607 0.394 0.900 0.357" stroke="hsl(0.0,100%,35%)" stroke-width="0.01738"></path>
<path d="M0.470 0.259 Q0.582 0.643 1.355 0.672" stroke="hsl(0.0,100%,35%)" stroke-width="0.00050"></path>
<path d="M0.470 0.259 Q0.640 0.288 0.733 0.211" stroke="hsl(0.0,100%,35%)" stroke-width="0.01713"></path>
<path d="M0.470 0.259 Q0.872 0.436 1.305 0.278" stroke="hsl(0.0,100%,35%)" stroke-width="0.00050"></path>
<path d="M0.470 0.259 Q0.731 0.197 0.667 0.057" stroke="hsl(0.0,100%,35%)" stroke-width="0.00151"></path>
<path d="M1.090 0.241 Q1.092 0.114 0.845 0.085" stroke="hsl(0.0,100%,35%)" stroke-width="0.00025"></path>
<path d="M1.090 0.241 Q1.292 0.328 1.507 0.249" stroke="hsl(0.0,100%,35%)" stroke-width="0.00025"></path>
<path d="M1.090 0.241 Q0.902 0.260 0.900 0.357" stroke="hsl(0.0,100%,35%)" stroke-width="0.00050"></path>
<path d="M1.090 0.241 Q0.935 0.154 0.733 0.211" stroke="hsl(0.0,100%,35%)" stroke-width="0.00025"></path>
<path d="M1.507 0.249 Q1.150 0.075 0.733 0.211" stroke="hsl(0.0,100%,35%)" stroke-width="0.00453"></path>
<path d="M1.507 0.249 Q1.638 0.154 1.482 0.069" stroke="hsl(0.0,100%,35%)" stroke-width="0.00050"></path>
<path d="M1.507 0.249 Q1.040 0.046 0.543 0.229" stroke="hsl(0.0,100%,35%)" stroke-width="0.00050"></path>
<path d="M1.507 0.249 Q1.117 0.181 0.900 0.357" stroke="hsl(0.0,100%,35%)" stroke-width="0.00302"></path>
<path d="M1.507 0.249 Q1.111 0.320 1.163 0.529" stroke="hsl(0.0,100%,35%)" stroke-width="0.00025"></path>
<path d="M1.507 0.249 Q1.370 0.052 0.955 0.075" stroke="hsl(0.0,100%,35%)" stroke-width="0.00025"></path>
<path d="M1.507 0.249 Q1.382 0.223 1.305 0.278" stroke="hsl(0.0,100%,35%)" stroke-width="0.00050"></path>
<path d="M1.507 0.249 Q1.241 -0.015 0.667 0.057" stroke="hsl(0.0,100%,35%)" stroke-width="0.00202"></path>
<path d="M1.507 0.249 Q1.325 0.055 0.907 0.101" stroke="hsl(0.0,100%,35%)" stroke-width="0.00025"></path>
<path d="M1.507 0.249 Q1.235 0.236 1.150 0.366" stroke="hsl(0.0,100%,35%)" stroke-width="0.00176"></path>
<path d="M1.507 0.249 Q0.897 0.194 0.656 0.479" stroke="hsl(0.0,100%,35%)" stroke-width="0.00227"></path>
<path d="M1.507 0.249 Q1.092 0.430 1.355 0.672" stroke="hsl(0.0,100%,35%)" stroke-width="0.00076"></path>
<path d="M1.507 0.249 Q1.496 0.255 1.505 0.261" stroke="hsl(0.0,100%,35%)" stroke-width="0.00076"></path>
<path d="M1.507 0.249 Q1.086 0.626 1.729 0.914" stroke="hsl(0.0,100%,35%)" stroke-width="0.00025"></path>
<path d="M0.493 0.403 Q0.766 0.355 0.733 0.211" stroke="hsl(0.0,100%,35%)" stroke-width="0.00655"></path>
<path d="M0.493 0.403 Q0.733 0.461 0.900 0.357" stroke="hsl(0.0,100%,35%)" stroke-width="0.00630"></path>
<path d="M0.493 0.403 Q0.857 0.265 0.667 0.057" stroke="hsl(0.0,100%,35%)" stroke-width="0.00202"></path>
<path d="M0.493 0.403 Q0.597 0.326 0.470 0.259" stroke="hsl(0.0,100%,35%)" stroke-width="0.00025"></path>
<path d="M0.524 0.103 Q0.484 0.554 1.355 0.672" stroke="hsl(180.0,100%,35%)" stroke-width="0.00025"></path>
<path d="M0.524 0.103 Q0.509 0.305 0.900 0.357" stroke="hsl(180.0,100%,35%)" stroke-width="0.00025"></path>
<path d="M0.524 0.103 Q0.541 0.199 0.733 0.211" stroke="hsl(180.0,100%,35%)" stroke-width="0.00025"></path>
<path d="M1.150 0.366 Q1.026 0.450 1.163 0.529" stroke="hsl(0.0,100%,35%)" stroke-width="0.00025"></path>
<path d="M1.150 0.366 Q1.066 0.205 0.733 0.211" stroke="hsl(0.0,100%,35%)" stroke-width="0.00101"></path>
<path d="M1.150 0.366 Q1.054 0.429 1.156 0.490" stroke="hsl(0.0,100%,35%)" stroke-width="0.00050"></path>
<path d="M1.150 0.366 Q1.033 0.311 0.900 0.357" stroke="hsl(0.0,100%,35%)" stroke-width="0.01134"></path>
<path d="M1.150 0.366 Q1.002 0.756 1.729 0.914" stroke="hsl(0.0,100%,35%)" stroke-width="0.00025"></path>
<path d="M1.150 0.366 Q1.156 0.115 0.667 0.057" stroke="hsl(0.0,100%,35%)" stroke-width="0.00025"></path>
<path d="M1.150 0.366 Q1.422 0.379 1.507 0.249" stroke="hsl(0.0,100%,35%)" stroke-width="0.00076"></path>
<path d="M1.150 0.366 Q0.956 0.218 0.625 0.281" stroke="hsl(0.0,100%,35%)" stroke-width="0.00076"></path>
<path d="M1.150 0.366 Q1.567 0.477 1.874 0.298" stroke="hsl(0.0,100%,35%)" stroke-width="0.00025"></path>
<path d="M0.684 0.231 Q0.691 0.337 0.900 0.357" stroke="hsl(0.0,100%,35%)" stroke-width="0.00176"></path>
<path d="M0.684 0.231 Q0.724 0.231 0.733 0.211" stroke="hsl(0.0,100%,35%)" stroke-width="0.00025"></path>
<path d="M0.684 0.231 Q0.667 0.586 1.355 0.672" stroke="hsl(0.0,100%,35%)" stroke-width="0.00050"></path>
<path d="M0.543 0.229 Q0.885 0.406 1.305 0.278" stroke="hsl(0.0,100%,35%)" stroke-width="0.00403"></path>
<path d="M0.543 0.229 Q0.595 0.613 1.355 0.672" stroke="hsl(0.0,100%,35%)" stroke-width="0.00025"></path>
<path d="M0.543 0.229 Q0.400 0.377 0.656 0.479" stroke="hsl(0.0,100%,35%)" stroke-width="0.00025"></path>
<path d="M0.543 0.229 Q0.619 0.364 0.900 0.357" stroke="hsl(0.0,100%,35%)" stroke-width="0.00428"></path>
<path d="M0.543 0.229 Q0.652 0.258 0.733 0.211" stroke="hsl(0.0,100%,35%)" stroke-width="0.00252"></path>
<path d="M0.543 0.229 Q0.743 0.168 0.667 0.057" stroke="hsl(0.0,100%,35%)" stroke-width="0.00151"></path>
<path d="M0.656 0.479 Q0.909 0.360 0.733 0.211" stroke="hsl(0.0,100%,35%)" stroke-width="0.00428"></path>
<path d="M0.656 0.479 Q0.876 0.466 0.900 0.357" stroke="hsl(0.0,100%,35%)" stroke-width="0.02267"></path>
<path d="M0.656 0.479 Q0.476 0.516 0.508 0.611" stroke="hsl(0.0,100%,35%)" stroke-width="0.00050"></path>
<path d="M0.656 0.479 Q0.501 0.436 0.382 0.502" stroke="hsl(0.0,100%,35%)" stroke-width="0.00025"></path>
<path d="M0.656 0.479 Q0.799 0.331 0.543 0.229" stroke="hsl(0.0,100%,35%)" stroke-width="0.00101"></path>
<path d="M0.656 0.479 Q1.000 0.270 0.667 0.057" stroke="hsl(0.0,100%,35%)" stroke-width="0.01537"></path>
<path d="M0.656 0.479 Q0.868 0.361 0.684 0.231" stroke="hsl(0.0,100%,35%)" stroke-width="0.00025"></path>
<path d="M0.656 0.479 Q1.265 0.534 1.507 0.249" stroke="hsl(0.0,100%,35%)" stroke-width="0.00050"></path>
<path d="M0.656 0.479 Q0.994 0.521 1.150 0.366" stroke="hsl(0.0,100%,35%)" stroke-width="0.00050"></path>
<path d="M0.656 0.479 Q0.825 0.850 1.587 0.849" stroke="hsl(0.0,100%,35%)" stroke-width="0.00025"></path>
<path d="M0.656 0.479 Q0.739 0.332 0.470 0.259" stroke="hsl(0.0,100%,35%)" stroke-width="0.00050"></path>
<path d="M0.656 0.479 Q1.141 0.508 1.305 0.278" stroke="hsl(0.0,100%,35%)" stroke-width="0.00050"></path>
<path d="M0.513 0.261 Q0.895 0.428 1.305 0.278" stroke="hsl(0.0,100%,35%)" stroke-width="0.00025"></path>
<path d="M0.513 0.261 Q0.663 0.280 0.733 0.211" stroke="hsl(0.0,100%,35%)" stroke-width="0.00151"></path>
<path d="M0.513 0.261 Q0.630 0.386 0.900 0.357" stroke="hsl(0.0,100%,35%)" stroke-width="0.00126"></path>
<path d="M0.513 0.261 Q0.558 0.140 0.332 0.092" stroke="hsl(0.0,100%,35%)" stroke-width="0.00025"></path>
<path d="M0.513 0.261 Q0.754 0.190 0.667 0.057" stroke="hsl(0.0,100%,35%)" stroke-width="0.00025"></path>
<path d="M0.508 0.611 Q0.688 0.575 0.656 0.479" stroke="hsl(0.0,100%,35%)" stroke-width="0.02015"></path>
<path d="M0.508 0.611 Q0.908 0.562 0.900 0.357" stroke="hsl(0.0,100%,35%)" stroke-width="0.02015"></path>
<path d="M0.508 0.611 Q1.031 0.366 0.667 0.057" stroke="hsl(0.0,100%,35%)" stroke-width="0.00076"></path>
<path d="M0.508 0.611 Q0.940 0.456 0.733 0.211" stroke="hsl(0.0,100%,35%)" stroke-width="0.00101"></path>
<path d="M0.508 0.611 Q0.771 0.428 0.470 0.259" stroke="hsl(0.0,100%,35%)" stroke-width="0.00025"></path>
<path d="M0.382 0.502 Q0.537 0.545 0.656 0.479" stroke="hsl(0.0,100%,35%)" stroke-width="0.02670"></path>
<path d="M0.382 0.502 Q0.757 0.533 0.900 0.357" stroke="hsl(0.0,100%,35%)" stroke-width="0.03703"></path>
<path d="M0.382 0.502 Q0.881 0.336 0.667 0.057" stroke="hsl(0.0,100%,35%)" stroke-width="0.00101"></path>
<path d="M0.382 0.502 Q0.680 0.440 0.625 0.281" stroke="hsl(0.0,100%,35%)" stroke-width="0.00025"></path>
<path d="M0.382 0.502 Q0.790 0.427 0.733 0.211" stroke="hsl(0.0,100%,35%)" stroke-width="0.00025"></path>
<path d="M1.739 0.647 Q1.585 0.228 0.733 0.211" stroke="hsl(180.0,100%,35%)" stroke-width="0.00453"></path>
<path d="M1.739 0.647 Q1.552 0.334 0.900 0.357" stroke="hsl(180.0,100%,35%)" stroke-width="0.00353"></path>
<path d="M1.739 0.647 Q1.527 0.583 1.355 0.672" stroke="hsl(180.0,100%,35%)" stroke-width="0.00378"></path>
<path d="M1.739 0.647 Q1.475 0.241 0.625 0.281" stroke="hsl(180.0,100%,35%)" stroke-width="0.00076"></path>
<path d="M0.625 0.281 Q0.734 0.268 0.733 0.211" stroke="hsl(180.0,100%,35%)" stroke-width="0.00252"></path>
<path d="M0.625 0.281 Q0.677 0.623 1.355 0.672" stroke="hsl(180.0,100%,35%)" stroke-width="0.00176"></path>
<path d="M0.625 0.281 Q0.671 0.818 1.729 0.914" stroke="hsl(180.0,100%,35%)" stroke-width="0.00176"></path>
<path d="M0.625 0.281 Q0.701 0.374 0.900 0.357" stroke="hsl(180.0,100%,35%)" stroke-width="0.00504"></path>
<path d="M0.625 0.281 Q0.819 0.429 1.150 0.366" stroke="hsl(180.0,100%,35%)" stroke-width="0.00151"></path>
<path d="M0.625 0.281 Q0.879 0.799 1.945 0.788" stroke="hsl(180.0,100%,35%)" stroke-width="0.00076"></path>
<path d="M0.625 0.281 Q0.825 0.177 0.667 0.057" stroke="hsl(180.0,100%,35%)" stroke-width="0.00025"></path>
<path d="M0.625 0.281 Q0.482 0.386 0.656 0.479" stroke="hsl(180.0,100%,35%)" stroke-width="0.00025"></path>
<path d="M1.123 0.139 Q0.892 0.553 1.649 0.756" stroke="hsl(180.0,100%,35%)" stroke-width="0.00126"></path>
<path d="M1.123 0.139 Q0.806 0.647 1.729 0.914" stroke="hsl(180.0,100%,35%)" stroke-width="0.00378"></path>
<path d="M1.123 0.139 Q0.812 0.452 1.355 0.672" stroke="hsl(180.0,100%,35%)" stroke-width="0.00227"></path>
<path d="M1.123 0.139 Q0.837 0.203 0.900 0.357" stroke="hsl(180.0,100%,35%)" stroke-width="0.00856"></path>
<path d="M1.123 0.139 Q0.870 0.097 0.733 0.211" stroke="hsl(180.0,100%,35%)" stroke-width="0.00126"></path>
<path d="M1.123 0.139 Q1.014 0.628 1.945 0.788" stroke="hsl(180.0,100%,35%)" stroke-width="0.00025"></path>
<path d="M1.123 0.139 Q0.955 0.258 1.150 0.366" stroke="hsl(180.0,100%,35%)" stroke-width="0.00025"></path>
<path d="M1.123 0.139 Q1.174 0.068 1.048 0.028" stroke="hsl(180.0,100%,35%)" stroke-width="0.00076"></path>
<path d="M1.123 0.139 Q0.760 0.110 0.625 0.281" stroke="hsl(180.0,100%,35%)" stroke-width="0.00025"></path>
<path d="M1.945 0.788 Q1.737 0.808 1.729 0.914" stroke="hsl(180.0,100%,35%)" stroke-width="0.01033"></path>
<path d="M1.945 0.788 Q1.823 0.713 1.649 0.756" stroke="hsl(180.0,100%,35%)" stroke-width="0.00176"></path>
<path d="M1.945 0.788 Q1.768 0.363 0.900 0.357" stroke="hsl(180.0,100%,35%)" stroke-width="0.00327"></path>
<path d="M1.945 0.788 Q1.801 0.257 0.733 0.211" stroke="hsl(180.0,100%,35%)" stroke-width="0.00453"></path>
<path d="M1.945 0.788 Q1.886 0.418 1.150 0.366" stroke="hsl(180.0,100%,35%)" stroke-width="0.00101"></path>
<path d="M1.945 0.788 Q1.691 0.270 0.625 0.281" stroke="hsl(180.0,100%,35%)" stroke-width="0.00076"></path>
<path d="M1.945 0.788 Q1.743 0.612 1.355 0.672" stroke="hsl(180.0,100%,35%)" stroke-width="0.00050"></path>
<path d="M1.945 0.788 Q1.717 0.747 1.587 0.849" stroke="hsl(180.0,100%,35%)" stroke-width="0.00025"></path>
<path d="M1.649 0.756 Q1.569 0.656 1.355 0.672" stroke="hsl(180.0,100%,35%)" stroke-width="0.00227"></path>
<path d="M1.649 0.756 Q1.563 0.851 1.729 0.914" stroke="hsl(180.0,100%,35%)" stroke-width="0.00579"></path>
<path d="M1.649 0.756 Q1.627 0.300 0.733 0.211" stroke="hsl(180.0,100%,35%)" stroke-width="0.00126"></path>
<path d="M1.649 0.756 Q1.771 0.831 1.945 0.788" stroke="hsl(180.0,100%,35%)" stroke-width="0.00302"></path>
<path d="M1.649 0.756 Q1.880 0.342 1.123 0.139" stroke="hsl(180.0,100%,35%)" stroke-width="0.00101"></path>
<path d="M1.649 0.756 Q1.594 0.407 0.900 0.357" stroke="hsl(180.0,100%,35%)" stroke-width="0.00025"></path>
<path d="M1.649 0.756 Q1.717 0.210 0.667 0.057" stroke="hsl(180.0,100%,35%)" stroke-width="0.00025"></path>
<path d="M1.649 0.756 Q1.931 0.272 1.048 0.028" stroke="hsl(180.0,100%,35%)" stroke-width="0.00050"></path>
<path d="M1.649 0.756 Q1.517 0.314 0.625 0.281" stroke="hsl(180.0,100%,35%)" stroke-width="0.00176"></path>
<path d="M1.611 0.117 Q1.096 -0.012 0.733 0.211" stroke="hsl(0.0,100%,35%)" stroke-width="0.00050"></path>
<path d="M1.611 0.117 Q1.329 0.136 1.305 0.278" stroke="hsl(0.0,100%,35%)" stroke-width="0.00101"></path>
<path d="M1.611 0.117 Q1.064 0.094 0.900 0.357" stroke="hsl(0.0,100%,35%)" stroke-width="0.00025"></path>
<path d="M1.611 0.117 Q0.987 -0.041 0.543 0.229" stroke="hsl(0.0,100%,35%)" stroke-width="0.00025"></path>
<path d="M1.611 0.117 Q0.844 0.107 0.656 0.479" stroke="hsl(0.0,100%,35%)" stroke-width="0.00025"></path>
<path d="M1.910 0.214 Q1.825 0.249 1.874 0.298" stroke="hsl(0.0,100%,35%)" stroke-width="0.00050"></path>
<path d="M1.910 0.214 Q1.324 -0.023 0.733 0.211" stroke="hsl(0.0,100%,35%)" stroke-width="0.00025"></path>
<path d="M1.910 0.214 Q1.291 0.083 0.900 0.357" stroke="hsl(0.0,100%,35%)" stroke-width="0.00025"></path>
<path d="M0.955 0.075 Q0.735 0.099 0.733 0.211" stroke="hsl(0.0,100%,35%)" stroke-width="0.00050"></path>
<path d="M0.955 0.075 Q0.968 0.247 1.305 0.278" stroke="hsl(0.0,100%,35%)" stroke-width="0.00025"></path>
<path d="M0.955 0.075 Q0.702 0.205 0.900 0.357" stroke="hsl(0.0,100%,35%)" stroke-width="0.00050"></path>
<path d="M0.955 0.075 Q0.678 0.454 1.355 0.672" stroke="hsl(0.0,100%,35%)" stroke-width="0.00025"></path>
<path d="M0.955 0.075 Q0.826 0.008 0.667 0.057" stroke="hsl(0.0,100%,35%)" stroke-width="0.00025"></path>
<path d="M0.907 0.101 Q0.965 0.269 1.305 0.278" stroke="hsl(0.0,100%,35%)" stroke-width="0.00076"></path>
<path d="M0.907 0.101 Q0.699 0.227 0.900 0.357" stroke="hsl(0.0,100%,35%)" stroke-width="0.00227"></path>
<path d="M0.907 0.101 Q0.732 0.121 0.733 0.211" stroke="hsl(0.0,100%,35%)" stroke-width="0.00327"></path>
<path d="M0.907 0.101 Q0.479 0.240 0.656 0.479" stroke="hsl(0.0,100%,35%)" stroke-width="0.00126"></path>
<path d="M0.907 0.101 Q0.823 0.031 0.667 0.057" stroke="hsl(0.0,100%,35%)" stroke-width="0.00176"></path>
<path d="M0.907 0.101 Q0.622 0.092 0.543 0.229" stroke="hsl(0.0,100%,35%)" stroke-width="0.00025"></path>
<path d="M0.907 0.101 Q0.674 0.477 1.355 0.672" stroke="hsl(0.0,100%,35%)" stroke-width="0.00025"></path>
<path d="M0.907 0.101 Q1.089 0.295 1.507 0.249" stroke="hsl(0.0,100%,35%)" stroke-width="0.00025"></path>
<path d="M1.505 0.261 Q1.515 0.255 1.507 0.249" stroke="hsl(0.0,100%,35%)" stroke-width="0.00101"></path>
<path d="M1.505 0.261 Q1.159 0.082 0.733 0.211" stroke="hsl(0.0,100%,35%)" stroke-width="0.00025"></path>
<path d="M1.505 0.261 Q0.906 0.200 0.656 0.479" stroke="hsl(0.0,100%,35%)" stroke-width="0.00050"></path>
<path d="M1.505 0.261 Q1.126 0.188 0.900 0.357" stroke="hsl(0.0,100%,35%)" stroke-width="0.00025"></path>
<path d="M0.540 0.212 Q0.637 0.250 0.733 0.211" stroke="hsl(0.0,100%,35%)" stroke-width="0.00353"></path>
<path d="M0.540 0.212 Q0.604 0.356 0.900 0.357" stroke="hsl(0.0,100%,35%)" stroke-width="0.00227"></path>
<path d="M0.540 0.212 Q0.580 0.605 1.355 0.672" stroke="hsl(0.0,100%,35%)" stroke-width="0.00050"></path>
<path d="M0.863 0.378 Q0.931 0.269 0.733 0.211" stroke="hsl(0.0,100%,35%)" stroke-width="0.00025"></path>
<path d="M0.863 0.378 Q0.898 0.375 0.900 0.357" stroke="hsl(0.0,100%,35%)" stroke-width="0.00101"></path>
<path d="M0.863 0.378 Q0.874 0.624 1.355 0.672" stroke="hsl(0.0,100%,35%)" stroke-width="0.00050"></path>
<path d="M1.385 0.048 Q0.928 -0.001 0.733 0.211" stroke="hsl(180.0,100%,35%)" stroke-width="0.00025"></path>
<path d="M1.385 0.048 Q0.865 0.549 1.729 0.914" stroke="hsl(180.0,100%,35%)" stroke-width="0.00076"></path>
<path d="M1.385 0.048 Q0.950 0.455 1.649 0.756" stroke="hsl(180.0,100%,35%)" stroke-width="0.00025"></path>
<path d="M1.385 0.048 Q0.819 0.012 0.625 0.281" stroke="hsl(180.0,100%,35%)" stroke-width="0.00025"></path>
<path d="M0.934 0.429 Q0.755 0.398 0.656 0.479" stroke="hsl(0.0,100%,35%)" stroke-width="0.01033"></path>
<path d="M0.934 0.429 Q0.974 0.386 0.900 0.357" stroke="hsl(0.0,100%,35%)" stroke-width="0.01184"></path>
<path d="M0.934 0.429 Q0.950 0.635 1.355 0.672" stroke="hsl(0.0,100%,35%)" stroke-width="0.00025"></path>
<path d="M1.315 0.035 Q0.850 0.113 0.900 0.357" stroke="hsl(180.0,100%,35%)" stroke-width="0.00025"></path>
<path d="M1.315 0.035 Q0.820 0.557 1.729 0.914" stroke="hsl(180.0,100%,35%)" stroke-width="0.00126"></path>
<path d="M1.315 0.035 Q1.340 0.056 1.385 0.048" stroke="hsl(180.0,100%,35%)" stroke-width="0.00126"></path>
<path d="M0.507 -0.079 Q0.387 0.111 0.733 0.211" stroke="hsl(180.0,100%,35%)" stroke-width="0.00025"></path>
<path d="M0.507 -0.079 Q0.330 0.466 1.355 0.672" stroke="hsl(180.0,100%,35%)" stroke-width="0.00025"></path>
<path d="M0.507 -0.079 Q0.354 0.217 0.900 0.357" stroke="hsl(180.0,100%,35%)" stroke-width="0.00025"></path>
<path d="M0.507 -0.079 Q0.478 0.021 0.667 0.057" stroke="hsl(180.0,100%,35%)" stroke-width="0.00025"></path>
<path d="M1.065 -0.117 Q0.604 0.087 0.900 0.357" stroke="hsl(0.0,100%,35%)" stroke-width="0.00076"></path>
<path d="M1.065 -0.117 Q0.527 -0.006 0.625 0.281" stroke="hsl(0.0,100%,35%)" stroke-width="0.00025"></path>
<path d="M1.065 -0.117 Q0.573 0.531 1.729 0.914" stroke="hsl(0.0,100%,35%)" stroke-width="0.00025"></path>
<path d="M0.832 0.374 Q0.660 0.391 0.656 0.479" stroke="hsl(0.0,100%,35%)" stroke-width="0.00025"></path>
<path d="M0.832 0.374 Q1.145 0.421 1.305 0.278" stroke="hsl(0.0,100%,35%)" stroke-width="0.00025"></path>
<path d="M0.832 0.374 Q0.998 0.434 1.150 0.366" stroke="hsl(0.0,100%,35%)" stroke-width="0.00025"></path>
<path d="M0.832 0.374 Q0.880 0.379 0.900 0.357" stroke="hsl(0.0,100%,35%)" stroke-width="0.00025"></path>
<path d="M0.832 0.374 Q0.913 0.273 0.733 0.211" stroke="hsl(0.0,100%,35%)" stroke-width="0.00025"></path>
<path d="M0.925 0.118 Q0.754 0.126 0.733 0.211" stroke="hsl(180.0,100%,35%)" stroke-width="0.00101"></path>
<path d="M0.925 0.118 Q0.645 0.139 0.625 0.281" stroke="hsl(180.0,100%,35%)" stroke-width="0.00050"></path>
<path d="M0.925 0.118 Q0.839 0.287 1.150 0.366" stroke="hsl(180.0,100%,35%)" stroke-width="0.00025"></path>
<path d="M0.925 0.118 Q0.697 0.481 1.355 0.672" stroke="hsl(180.0,100%,35%)" stroke-width="0.00050"></path>
<path d="M1.275 0.541 Q1.235 0.374 0.900 0.357" stroke="hsl(180.0,100%,35%)" stroke-width="0.00025"></path>
<path d="M1.275 0.541 Q1.753 0.463 1.705 0.212" stroke="hsl(180.0,100%,35%)" stroke-width="0.00025"></path>
<path d="M1.275 0.541 Q1.210 0.623 1.355 0.672" stroke="hsl(180.0,100%,35%)" stroke-width="0.00025"></path>
<path d="M0.467 0.234 Q0.586 0.382 0.900 0.357" stroke="hsl(0.0,100%,35%)" stroke-width="0.00101"></path>
<path d="M0.467 0.234 Q0.619 0.276 0.733 0.211" stroke="hsl(0.0,100%,35%)" stroke-width="0.00227"></path>
<path d="M0.467 0.234 Q1.120 0.548 1.874 0.298" stroke="hsl(0.0,100%,35%)" stroke-width="0.00025"></path>
<path d="M0.467 0.234 Q0.561 0.631 1.355 0.672" stroke="hsl(0.0,100%,35%)" stroke-width="0.00025"></path>
<path d="M1.283 0.596 Q1.258 0.649 1.355 0.672" stroke="hsl(180.0,100%,35%)" stroke-width="0.00050"></path>
<path d="M1.283 0.596 Q1.099 0.651 1.167 0.753" stroke="hsl(180.0,100%,35%)" stroke-width="0.00025"></path>
<path d="M1.283 0.596 Q1.283 0.399 0.900 0.357" stroke="hsl(180.0,100%,35%)" stroke-width="0.00050"></path>
<path d="M1.283 0.596 Q1.316 0.293 0.733 0.211" stroke="hsl(180.0,100%,35%)" stroke-width="0.00025"></path>
<path d="M0.302 0.050 Q0.356 0.323 0.900 0.357" stroke="hsl(0.0,100%,35%)" stroke-width="0.00101"></path>
<path d="M0.302 0.050 Q0.388 0.217 0.733 0.211" stroke="hsl(0.0,100%,35%)" stroke-width="0.00202"></path>
<path d="M0.302 0.050 Q0.479 0.126 0.667 0.057" stroke="hsl(0.0,100%,35%)" stroke-width="0.00025"></path>
<path d="M1.069 0.530 Q1.241 0.464 1.150 0.366" stroke="hsl(180.0,100%,35%)" stroke-width="0.00076"></path>
<path d="M1.069 0.530 Q1.093 0.854 1.729 0.914" stroke="hsl(180.0,100%,35%)" stroke-width="0.00050"></path>
<path d="M1.069 0.530 Q1.099 0.659 1.355 0.672" stroke="hsl(180.0,100%,35%)" stroke-width="0.00050"></path>
<path d="M1.069 0.530 Q1.156 0.303 0.733 0.211" stroke="hsl(180.0,100%,35%)" stroke-width="0.00025"></path>
<path d="M1.397 0.452 Q1.148 0.212 0.625 0.281" stroke="hsl(180.0,100%,35%)" stroke-width="0.00025"></path>
<path d="M1.397 0.452 Q1.258 0.199 0.733 0.211" stroke="hsl(180.0,100%,35%)" stroke-width="0.00025"></path>
<path d="M1.397 0.452 Q1.200 0.554 1.355 0.672" stroke="hsl(180.0,100%,35%)" stroke-width="0.00025"></path>
<path d="M0.390 0.271 Q0.576 0.415 0.900 0.357" stroke="hsl(0.0,100%,35%)" stroke-width="0.00252"></path>
<path d="M0.390 0.271 Q0.609 0.309 0.733 0.211" stroke="hsl(0.0,100%,35%)" stroke-width="0.00227"></path>
<path d="M0.390 0.271 Q0.439 0.281 0.470 0.259" stroke="hsl(0.0,100%,35%)" stroke-width="0.00025"></path>
<path d="M0.390 0.271 Q0.551 0.665 1.355 0.672" stroke="hsl(0.0,100%,35%)" stroke-width="0.00050"></path>
<path d="M0.390 0.271 Q0.631 0.765 1.649 0.756" stroke="hsl(0.0,100%,35%)" stroke-width="0.00025"></path>
<path d="M0.390 0.271 Q0.545 0.860 1.729 0.914" stroke="hsl(0.0,100%,35%)" stroke-width="0.00025"></path>
<path d="M0.390 0.271 Q0.700 0.219 0.667 0.057" stroke="hsl(0.0,100%,35%)" stroke-width="0.00025"></path>
<path d="M1.156 0.490 Q1.134 0.372 0.900 0.357" stroke="hsl(180.0,100%,35%)" stroke-width="0.00302"></path>
<path d="M1.156 0.490 Q1.110 0.621 1.355 0.672" stroke="hsl(180.0,100%,35%)" stroke-width="0.00202"></path>
<path d="M1.156 0.490 Q1.167 0.266 0.733 0.211" stroke="hsl(180.0,100%,35%)" stroke-width="0.00101"></path>
<path d="M1.156 0.490 Q1.057 0.279 0.625 0.281" stroke="hsl(180.0,100%,35%)" stroke-width="0.00076"></path>
<path d="M1.156 0.490 Q1.104 0.816 1.729 0.914" stroke="hsl(180.0,100%,35%)" stroke-width="0.00025"></path>
<path d="M1.156 0.490 Q0.915 0.385 0.656 0.479" stroke="hsl(180.0,100%,35%)" stroke-width="0.00025"></path>
<path d="M0.665 0.371 Q0.794 0.411 0.900 0.357" stroke="hsl(0.0,100%,35%)" stroke-width="0.00050"></path>
<path d="M0.665 0.371 Q0.826 0.305 0.733 0.211" stroke="hsl(0.0,100%,35%)" stroke-width="0.00076"></path>
<path d="M0.665 0.371 Q0.657 0.276 0.470 0.259" stroke="hsl(0.0,100%,35%)" stroke-width="0.00025"></path>
<path d="M1.157 0.708 Q1.285 0.730 1.355 0.672" stroke="hsl(180.0,100%,35%)" stroke-width="0.00025"></path>
<path d="M1.157 0.708 Q1.126 0.732 1.167 0.753" stroke="hsl(180.0,100%,35%)" stroke-width="0.00025"></path>
<path d="M1.157 0.708 Q1.310 0.481 0.900 0.357" stroke="hsl(180.0,100%,35%)" stroke-width="0.00025"></path>
<path d="M0.661 -0.094 Q0.453 0.073 0.733 0.211" stroke="hsl(180.0,100%,35%)" stroke-width="0.00025"></path>
<path d="M0.661 -0.094 Q0.420 0.179 0.900 0.357" stroke="hsl(180.0,100%,35%)" stroke-width="0.00025"></path>
<path d="M0.661 -0.094 Q0.396 0.428 1.355 0.672" stroke="hsl(180.0,100%,35%)" stroke-width="0.00025"></path>
</g>
<text x="1.163" y="0.522" font-size="0.014111" fill="hsl(0.0,100%,20%)">abdolrashidi</text>
<text x="0.733" y="0.171" font-size="0.079824" fill="hsl(0.0,100%,20%)">syoussefi</text>
<text x="0.900" y="0.306" font-size="0.100947" fill="hsl(0.0,100%,20%)">jmadill</text>
<text x="1.305" y="0.256" font-size="0.044754" fill="hsl(0.0,100%,20%)">cclao</text>
<text x="1.729" y="0.899" font-size="0.029540" fill="hsl(180.0,100%,20%)">kbr</text>
<text x="1.771" y="0.107" font-size="0.008383" fill="hsl(180.0,100%,20%)">adkushwa</text>
<text x="1.705" y="0.209" font-size="0.005928" fill="hsl(180.0,100%,20%)">rafael.cintron</text>
<text x="1.355" y="0.655" font-size="0.034395" fill="hsl(180.0,100%,20%)">geofflang</text>
<text x="0.966" y="0.141" font-size="0.005928" fill="hsl(0.0,100%,20%)">amy.liu</text>
<text x="0.667" y="0.026" font-size="0.060694" fill="hsl(0.0,100%,20%)">timvp</text>
<text x="0.845" y="0.078" font-size="0.014111" fill="hsl(0.0,100%,20%)">antonio.caggiano</text>
<text x="0.470" y="0.244" font-size="0.030802" fill="hsl(0.0,100%,20%)">m.maiya</text>
<text x="0.376" y="0.126" font-size="0.004192" fill="hsl(0.0,100%,20%)">cstout</text>
<text x="0.979" y="0.110" font-size="0.002420" fill="hsl(0.0,100%,20%)">jvigilsamsung</text>
<text x="1.090" y="0.238" font-size="0.005928" fill="hsl(0.0,100%,20%)">constantine.shablya</text>
<text x="1.507" y="0.235" font-size="0.028634" fill="hsl(0.0,100%,20%)">ianelliott</text>
<text x="0.493" y="0.394" font-size="0.018901" fill="hsl(0.0,100%,20%)">b.schade</text>
<text x="0.524" y="0.101" font-size="0.004192" fill="hsl(180.0,100%,20%)">capn</text>
<text x="1.150" y="0.348" font-size="0.035485" fill="hsl(0.0,100%,20%)">ynovikov</text>
<text x="0.684" y="0.227" font-size="0.009373" fill="hsl(0.0,100%,20%)">romanl</text>
<text x="0.543" y="0.220" font-size="0.019208" fill="hsl(0.0,100%,20%)">lfy</text>
<text x="0.656" y="0.449" font-size="0.058981" fill="hsl(0.0,100%,20%)">cnorthrop</text>
<text x="0.513" y="0.257" font-size="0.009055" fill="hsl(0.0,100%,20%)">cheryl.wei</text>
<text x="0.332" y="0.090" font-size="0.004192" fill="hsl(0.0,100%,20%)">sunny.sun</text>
<text x="0.508" y="0.596" font-size="0.031646" fill="hsl(0.0,100%,20%)">lubosz.sarnecki</text>
<text x="0.382" y="0.482" font-size="0.039469" fill="hsl(0.0,100%,20%)">gert.wollny</text>
<text x="1.587" y="0.847" font-size="0.003422" fill="hsl(180.0,100%,20%)">bajones</text>
<text x="1.907" y="0.687" font-size="0.002420" fill="hsl(180.0,100%,20%)">zmo</text>
<text x="1.739" y="0.638" font-size="0.018589" fill="hsl(180.0,100%,20%)">penghuang</text>
<text x="1.616" y="0.511" font-size="0.002420" fill="hsl(180.0,100%,20%)">junov</text>
<text x="0.625" y="0.267" font-size="0.027486" fill="hsl(180.0,100%,20%)">jonahr</text>
<text x="1.123" y="0.128" font-size="0.021645" fill="hsl(180.0,100%,20%)">lexa.knyazev</text>
<text x="1.491" y="0.547" font-size="0.002420" fill="hsl(180.0,100%,20%)">vikassoni</text>
<text x="1.945" y="0.776" font-size="0.024916" fill="hsl(180.0,100%,20%)">gman</text>
<text x="1.649" y="0.745" font-size="0.021510" fill="hsl(180.0,100%,20%)">kpiddington</text>
<text x="1.611" y="0.113" font-size="0.007260" fill="hsl(0.0,100%,20%)">hailinzhang</text>
<text x="1.910" y="0.211" font-size="0.004840" fill="hsl(0.0,100%,20%)">hans</text>
<text x="1.874" y="0.296" font-size="0.005411" fill="hsl(0.0,100%,20%)">thakis</text>
<text x="1.482" y="0.067" font-size="0.003422" fill="hsl(0.0,100%,20%)">vantablack</text>
<text x="0.955" y="0.071" font-size="0.008026" fill="hsl(0.0,100%,20%)">natsu</text>
<text x="0.907" y="0.092" font-size="0.018901" fill="hsl(0.0,100%,20%)">yuxinhu</text>
<text x="1.505" y="0.257" font-size="0.008026" fill="hsl(0.0,100%,20%)">mark</text>
<text x="0.540" y="0.206" font-size="0.012340" fill="hsl(0.0,100%,20%)">j.vigil</text>
<text x="0.235" y="-2.219" font-size="0.003422" fill="hsl(0.0,100%,20%)">zzyiwei</text>
<text x="0.863" y="0.375" font-size="0.006845" fill="hsl(0.0,100%,20%)">jgilbert</text>
<text x="0.951" y="-0.016" font-size="0.004192" fill="hsl(0.0,100%,20%)">bsheedy</text>
<text x="0.932" y="0.106" font-size="0.002420" fill="hsl(0.0,100%,20%)">brucedawson</text>
<text x="1.107" y="0.585" font-size="0.002420" fill="hsl(0.0,100%,20%)">tandrii</text>
<text x="1.065" y="-0.109" font-size="0.002420" fill="hsl(0.0,100%,20%)">dpranke</text>
<text x="1.086" y="0.561" font-size="0.004192" fill="hsl(0.0,100%,20%)">nicolascapens</text>
<text x="0.840" y="0.406" font-size="0.002420" fill="hsl(0.0,100%,20%)">doughorn</text>
<text x="1.385" y="0.044" font-size="0.008026" fill="hsl(180.0,100%,20%)">johncunningham</text>
<text x="0.934" y="0.417" font-size="0.022830" fill="hsl(0.0,100%,20%)">jplate</text>
<text x="1.536" y="0.921" font-size="0.002420" fill="hsl(180.0,100%,20%)">ccameron</text>
<text x="1.315" y="0.031" font-size="0.008026" fill="hsl(180.0,100%,20%)">kkinnunen</text>
<text x="1.048" y="0.025" font-size="0.005411" fill="hsl(180.0,100%,20%)">le.hoang.q</text>
<text x="0.507" y="-0.082" font-size="0.004840" fill="hsl(180.0,100%,20%)">kyle.griffiths</text>
<text x="1.065" y="-0.120" font-size="0.005411" fill="hsl(0.0,100%,20%)">lehoangq</text>
<text x="0.832" y="0.371" font-size="0.005411" fill="hsl(0.0,100%,20%)">lunpujun</text>
<text x="0.925" y="0.115" font-size="0.007260" fill="hsl(180.0,100%,20%)">msisov</text>
<text x="1.275" y="0.539" font-size="0.004192" fill="hsl(180.0,100%,20%)">patrto</text>
<text x="0.467" y="0.230" font-size="0.009373" fill="hsl(0.0,100%,20%)">pkasting</text>
<text x="1.283" y="0.593" font-size="0.005928" fill="hsl(180.0,100%,20%)">senorblanco</text>
<text x="1.167" y="0.752" font-size="0.003422" fill="hsl(180.0,100%,20%)">jiajia.qin</text>
<text x="0.302" y="0.046" font-size="0.008726" fill="hsl(0.0,100%,20%)">sergeyu</text>
<text x="1.069" y="0.527" font-size="0.006845" fill="hsl(180.0,100%,20%)">shrekshao</text>
<text x="1.397" y="0.450" font-size="0.004192" fill="hsl(180.0,100%,20%)">srisser</text>
<text x="0.390" y="0.264" font-size="0.012100" fill="hsl(0.0,100%,20%)">steven</text>
<text x="1.156" y="0.483" font-size="0.014111" fill="hsl(180.0,100%,20%)">sugoi</text>
<text x="0.428" y="-0.283" font-size="0.002420" fill="hsl(0.0,100%,20%)">borenet</text>
<text x="0.786" y="0.100" font-size="0.003422" fill="hsl(0.0,100%,20%)">reveman</text>
<text x="0.665" y="0.368" font-size="0.005928" fill="hsl(0.0,100%,20%)">xiaoxuan.liu</text>
<text x="1.157" y="0.706" font-size="0.004192" fill="hsl(180.0,100%,20%)">xinghua.cao</text>
<text x="0.661" y="-0.096" font-size="0.004192" fill="hsl(180.0,100%,20%)">yang.gu</text>
</svg>
