<svg width="4000" height="2000" viewBox="-0.025 -0.025 2.05 1.05" xmlns="http://www.w3.org/2000/svg">
  <style>
    path {
      fill: none;
      stroke-linecap: round;
      stroke-opacity: 0.4;
    }

    text {
      text-anchor: middle;
      alignment-baseline: hanging;
    }
  </style>
  <g opacity="0.4">
<path d="M0.660 0.814 Q0.654 0.755 0.536 0.745" stroke="hsl(0.0,100%,35%)" stroke-width="0.00282"></path>
<path d="M0.660 0.814 Q0.525 0.639 0.153 0.667" stroke="hsl(0.0,100%,35%)" stroke-width="0.00205"></path>
<path d="M0.660 0.814 Q0.861 0.787 0.851 0.683" stroke="hsl(0.0,100%,35%)" stroke-width="0.00051"></path>
<path d="M0.660 0.814 Q1.298 0.669 1.154 0.326" stroke="hsl(0.0,100%,35%)" stroke-width="0.00026"></path>
<path d="M0.536 0.745 Q0.305 0.721 0.209 0.829" stroke="hsl(0.0,100%,35%)" stroke-width="0.00051"></path>
<path d="M0.536 0.745 Q0.593 0.813 0.739 0.801" stroke="hsl(0.0,100%,35%)" stroke-width="0.00128"></path>
<path d="M0.536 0.745 Q0.407 0.629 0.153 0.667" stroke="hsl(0.0,100%,35%)" stroke-width="0.06683"></path>
<path d="M0.536 0.745 Q0.694 0.682 0.606 0.591" stroke="hsl(0.0,100%,35%)" stroke-width="0.04788"></path>
<path d="M0.536 0.745 Q0.744 0.777 0.851 0.683" stroke="hsl(0.0,100%,35%)" stroke-width="0.00947"></path>
<path d="M0.536 0.745 Q0.589 0.856 0.816 0.854" stroke="hsl(0.0,100%,35%)" stroke-width="0.00026"></path>
<path d="M0.536 0.745 Q0.256 0.699 0.104 0.826" stroke="hsl(0.0,100%,35%)" stroke-width="0.00333"></path>
<path d="M0.536 0.745 Q0.601 0.453 0.047 0.358" stroke="hsl(0.0,100%,35%)" stroke-width="0.00461"></path>
<path d="M0.536 0.745 Q0.814 1.022 1.416 0.948" stroke="hsl(0.0,100%,35%)" stroke-width="0.00230"></path>
<path d="M0.536 0.745 Q0.649 0.883 0.943 0.858" stroke="hsl(0.0,100%,35%)" stroke-width="0.00051"></path>
<path d="M0.536 0.745 Q0.645 0.593 0.373 0.507" stroke="hsl(0.0,100%,35%)" stroke-width="0.00282"></path>
<path d="M0.536 0.745 Q1.168 0.954 1.715 0.692" stroke="hsl(0.0,100%,35%)" stroke-width="0.00128"></path>
<path d="M0.536 0.745 Q0.940 0.799 1.133 0.614" stroke="hsl(0.0,100%,35%)" stroke-width="0.00026"></path>
<path d="M0.536 0.745 Q0.811 0.884 1.143 0.781" stroke="hsl(0.0,100%,35%)" stroke-width="0.00077"></path>
<path d="M0.536 0.745 Q0.821 0.914 1.213 0.812" stroke="hsl(0.0,100%,35%)" stroke-width="0.00026"></path>
<path d="M0.536 0.745 Q0.664 0.988 1.167 0.979" stroke="hsl(0.0,100%,35%)" stroke-width="0.00026"></path>
<path d="M0.536 0.745 Q0.664 0.917 1.027 0.892" stroke="hsl(0.0,100%,35%)" stroke-width="0.00026"></path>
<path d="M0.536 0.745 Q0.816 0.624 0.641 0.461" stroke="hsl(0.0,100%,35%)" stroke-width="0.00026"></path>
<path d="M0.536 0.745 Q1.181 0.659 1.154 0.326" stroke="hsl(0.0,100%,35%)" stroke-width="0.00128"></path>
<path d="M0.536 0.745 Q0.271 0.668 0.062 0.780" stroke="hsl(0.0,100%,35%)" stroke-width="0.00026"></path>
<path d="M0.536 0.745 Q0.891 0.625 0.734 0.425" stroke="hsl(0.0,100%,35%)" stroke-width="0.00051"></path>
<path d="M0.536 0.745 Q0.574 0.853 0.793 0.858" stroke="hsl(0.0,100%,35%)" stroke-width="0.00026"></path>
<path d="M0.153 0.667 Q0.282 0.783 0.536 0.745" stroke="hsl(0.0,100%,35%)" stroke-width="0.02945"></path>
<path d="M0.153 0.667 Q0.001 0.737 0.104 0.826" stroke="hsl(0.0,100%,35%)" stroke-width="0.02765"></path>
<path d="M0.153 0.667 Q0.489 0.814 0.851 0.683" stroke="hsl(0.0,100%,35%)" stroke-width="0.00307"></path>
<path d="M0.153 0.667 Q0.383 0.656 0.412 0.541" stroke="hsl(0.0,100%,35%)" stroke-width="0.00307"></path>
<path d="M0.153 0.667 Q0.913 0.992 1.715 0.692" stroke="hsl(0.0,100%,35%)" stroke-width="0.03226"></path>
<path d="M0.153 0.667 Q0.440 0.720 0.606 0.591" stroke="hsl(0.0,100%,35%)" stroke-width="0.03303"></path>
<path d="M0.153 0.667 Q0.566 0.952 1.213 0.812" stroke="hsl(0.0,100%,35%)" stroke-width="0.00026"></path>
<path d="M0.153 0.667 Q0.040 0.727 0.133 0.795" stroke="hsl(0.0,100%,35%)" stroke-width="0.00026"></path>
<path d="M0.153 0.667 Q0.685 0.836 1.133 0.614" stroke="hsl(0.0,100%,35%)" stroke-width="0.00051"></path>
<path d="M0.153 0.667 Q0.391 0.631 0.373 0.507" stroke="hsl(0.0,100%,35%)" stroke-width="0.00717"></path>
<path d="M0.153 0.667 Q0.726 0.972 1.447 0.759" stroke="hsl(0.0,100%,35%)" stroke-width="0.00026"></path>
<path d="M0.153 0.667 Q0.560 1.060 1.416 0.948" stroke="hsl(0.0,100%,35%)" stroke-width="0.00691"></path>
<path d="M0.153 0.667 Q0.926 0.696 1.154 0.326" stroke="hsl(0.0,100%,35%)" stroke-width="0.00026"></path>
<path d="M0.153 0.667 Q0.450 0.604 0.392 0.445" stroke="hsl(0.0,100%,35%)" stroke-width="0.00077"></path>
<path d="M0.153 0.667 Q0.347 0.491 0.047 0.358" stroke="hsl(0.0,100%,35%)" stroke-width="0.00102"></path>
<path d="M0.153 0.667 Q0.449 0.579 0.343 0.416" stroke="hsl(0.0,100%,35%)" stroke-width="0.00026"></path>
<path d="M0.153 0.667 Q0.110 0.745 0.253 0.783" stroke="hsl(0.0,100%,35%)" stroke-width="0.00154"></path>
<path d="M0.153 0.667 Q0.197 0.569 0.016 0.525" stroke="hsl(0.0,100%,35%)" stroke-width="0.00051"></path>
<path d="M0.153 0.667 Q0.451 0.617 0.419 0.461" stroke="hsl(0.0,100%,35%)" stroke-width="0.00026"></path>
<path d="M0.153 0.667 Q0.334 0.893 0.816 0.854" stroke="hsl(0.0,100%,35%)" stroke-width="0.00026"></path>
<path d="M0.153 0.667 Q0.339 0.851 0.739 0.801" stroke="hsl(0.0,100%,35%)" stroke-width="0.00026"></path>
<path d="M0.153 0.667 Q0.543 0.591 0.482 0.384" stroke="hsl(0.0,100%,35%)" stroke-width="0.00026"></path>
<path d="M0.851 0.683 Q0.644 0.651 0.536 0.745" stroke="hsl(0.0,100%,35%)" stroke-width="0.01460"></path>
<path d="M0.851 0.683 Q0.515 0.535 0.153 0.667" stroke="hsl(0.0,100%,35%)" stroke-width="0.02048"></path>
<path d="M0.851 0.683 Q0.802 0.588 0.606 0.591" stroke="hsl(0.0,100%,35%)" stroke-width="0.01229"></path>
<path d="M0.851 0.683 Q0.709 0.359 0.047 0.358" stroke="hsl(0.0,100%,35%)" stroke-width="0.00615"></path>
<path d="M0.851 0.683 Q1.047 0.705 1.133 0.614" stroke="hsl(0.0,100%,35%)" stroke-width="0.00026"></path>
<path d="M0.851 0.683 Q0.701 0.719 0.739 0.801" stroke="hsl(0.0,100%,35%)" stroke-width="0.00026"></path>
<path d="M0.851 0.683 Q1.275 0.860 1.715 0.692" stroke="hsl(0.0,100%,35%)" stroke-width="0.00179"></path>
<path d="M0.851 0.683 Q0.922 0.928 1.416 0.948" stroke="hsl(0.0,100%,35%)" stroke-width="0.00077"></path>
<path d="M1.154 0.326 Q0.510 0.412 0.536 0.745" stroke="hsl(0.0,100%,35%)" stroke-width="0.00282"></path>
<path d="M1.154 0.326 Q1.405 0.340 1.488 0.221" stroke="hsl(0.0,100%,35%)" stroke-width="0.00026"></path>
<path d="M1.154 0.326 Q0.229 0.366 0.104 0.826" stroke="hsl(0.0,100%,35%)" stroke-width="0.00154"></path>
<path d="M1.154 0.326 Q0.380 0.296 0.153 0.667" stroke="hsl(0.0,100%,35%)" stroke-width="0.00230"></path>
<path d="M1.154 0.326 Q1.314 0.401 1.495 0.339" stroke="hsl(0.0,100%,35%)" stroke-width="0.00026"></path>
<path d="M1.154 0.326 Q0.667 0.349 0.606 0.591" stroke="hsl(0.0,100%,35%)" stroke-width="0.00026"></path>
<path d="M1.154 0.326 Q0.618 0.260 0.373 0.507" stroke="hsl(0.0,100%,35%)" stroke-width="0.00051"></path>
<path d="M1.154 0.326 Q1.569 0.368 1.742 0.174" stroke="hsl(0.0,100%,35%)" stroke-width="0.00026"></path>
<path d="M1.154 0.326 Q1.141 0.621 1.715 0.692" stroke="hsl(0.0,100%,35%)" stroke-width="0.00051"></path>
<path d="M1.154 0.326 Q0.787 0.689 1.416 0.948" stroke="hsl(0.0,100%,35%)" stroke-width="0.00026"></path>
<path d="M1.519 0.506 Q1.545 0.554 1.644 0.553" stroke="hsl(0.0,100%,35%)" stroke-width="0.00128"></path>
<path d="M1.519 0.506 Q0.708 0.313 0.153 0.667" stroke="hsl(0.0,100%,35%)" stroke-width="0.00128"></path>
<path d="M1.519 0.506 Q1.115 0.706 1.416 0.948" stroke="hsl(0.0,100%,35%)" stroke-width="0.00051"></path>
<path d="M1.416 0.948 Q1.499 0.844 1.315 0.780" stroke="hsl(0.0,100%,35%)" stroke-width="0.00026"></path>
<path d="M1.416 0.948 Q1.138 0.670 0.536 0.745" stroke="hsl(0.0,100%,35%)" stroke-width="0.00230"></path>
<path d="M1.416 0.948 Q1.009 0.554 0.153 0.667" stroke="hsl(0.0,100%,35%)" stroke-width="0.00640"></path>
<path d="M1.416 0.948 Q1.423 0.839 1.213 0.812" stroke="hsl(0.0,100%,35%)" stroke-width="0.00179"></path>
<path d="M1.416 0.948 Q1.782 0.584 1.154 0.326" stroke="hsl(0.0,100%,35%)" stroke-width="0.00128"></path>
<path d="M1.416 0.948 Q1.644 0.792 1.391 0.647" stroke="hsl(0.0,100%,35%)" stroke-width="0.00026"></path>
<path d="M1.416 0.948 Q1.296 0.607 0.606 0.591" stroke="hsl(0.0,100%,35%)" stroke-width="0.00102"></path>
<path d="M1.416 0.948 Q1.418 0.549 0.641 0.461" stroke="hsl(0.0,100%,35%)" stroke-width="0.00026"></path>
<path d="M1.416 0.948 Q1.247 0.519 0.373 0.507" stroke="hsl(0.0,100%,35%)" stroke-width="0.00179"></path>
<path d="M1.416 0.948 Q0.896 0.615 0.133 0.795" stroke="hsl(0.0,100%,35%)" stroke-width="0.00026"></path>
<path d="M1.416 0.948 Q0.858 0.624 0.104 0.826" stroke="hsl(0.0,100%,35%)" stroke-width="0.00051"></path>
<path d="M1.416 0.948 Q1.195 0.739 0.739 0.801" stroke="hsl(0.0,100%,35%)" stroke-width="0.00026"></path>
<path d="M1.416 0.948 Q1.062 1.070 1.222 1.269" stroke="hsl(0.0,100%,35%)" stroke-width="0.00026"></path>
<path d="M1.416 0.948 Q1.346 0.702 0.851 0.683" stroke="hsl(0.0,100%,35%)" stroke-width="0.00051"></path>
<path d="M0.171 0.479 Q0.012 0.569 0.153 0.667" stroke="hsl(0.0,100%,35%)" stroke-width="0.00102"></path>
<path d="M0.171 0.479 Q0.141 0.685 0.536 0.745" stroke="hsl(0.0,100%,35%)" stroke-width="0.00077"></path>
<path d="M0.171 0.479 Q0.299 0.622 0.606 0.591" stroke="hsl(0.0,100%,35%)" stroke-width="0.00026"></path>
<path d="M0.606 0.591 Q0.319 0.538 0.153 0.667" stroke="hsl(0.0,100%,35%)" stroke-width="0.01511"></path>
<path d="M0.606 0.591 Q0.448 0.654 0.536 0.745" stroke="hsl(0.0,100%,35%)" stroke-width="0.00947"></path>
<path d="M0.606 0.591 Q1.080 0.863 1.715 0.692" stroke="hsl(0.0,100%,35%)" stroke-width="0.00717"></path>
<path d="M0.606 0.591 Q0.513 0.363 0.047 0.358" stroke="hsl(0.0,100%,35%)" stroke-width="0.00179"></path>
<path d="M0.606 0.591 Q0.455 0.714 0.660 0.814" stroke="hsl(0.0,100%,35%)" stroke-width="0.00026"></path>
<path d="M0.606 0.591 Q0.656 0.686 0.851 0.683" stroke="hsl(0.0,100%,35%)" stroke-width="0.00384"></path>
<path d="M0.606 0.591 Q0.584 0.708 0.807 0.744" stroke="hsl(0.0,100%,35%)" stroke-width="0.00051"></path>
<path d="M0.606 0.591 Q0.726 0.931 1.416 0.948" stroke="hsl(0.0,100%,35%)" stroke-width="0.00384"></path>
<path d="M0.606 0.591 Q0.168 0.608 0.104 0.826" stroke="hsl(0.0,100%,35%)" stroke-width="0.00077"></path>
<path d="M0.306 0.413 Q0.027 0.509 0.153 0.667" stroke="hsl(0.0,100%,35%)" stroke-width="0.00154"></path>
<path d="M0.306 0.413 Q0.156 0.625 0.536 0.745" stroke="hsl(0.0,100%,35%)" stroke-width="0.00179"></path>
<path d="M0.306 0.413 Q0.213 0.693 0.739 0.801" stroke="hsl(0.0,100%,35%)" stroke-width="0.00026"></path>
<path d="M0.306 0.413 Q0.396 0.458 0.503 0.424" stroke="hsl(0.0,100%,35%)" stroke-width="0.00026"></path>
<path d="M0.306 0.413 Q0.354 0.464 0.463 0.452" stroke="hsl(0.0,100%,35%)" stroke-width="0.00026"></path>
<path d="M0.306 0.413 Q0.221 0.333 0.047 0.358" stroke="hsl(0.0,100%,35%)" stroke-width="0.00026"></path>
<path d="M0.739 0.801 Q0.682 0.732 0.536 0.745" stroke="hsl(0.0,100%,35%)" stroke-width="0.01920"></path>
<path d="M0.739 0.801 Q0.889 0.764 0.851 0.683" stroke="hsl(0.0,100%,35%)" stroke-width="0.00051"></path>
<path d="M0.739 0.801 Q0.553 0.616 0.153 0.667" stroke="hsl(0.0,100%,35%)" stroke-width="0.01946"></path>
<path d="M0.739 0.801 Q0.840 0.669 0.606 0.591" stroke="hsl(0.0,100%,35%)" stroke-width="0.00154"></path>
<path d="M0.739 0.801 Q0.960 1.009 1.416 0.948" stroke="hsl(0.0,100%,35%)" stroke-width="0.00051"></path>
<path d="M0.047 0.358 Q-0.012 0.709 0.660 0.814" stroke="hsl(0.0,100%,35%)" stroke-width="0.00026"></path>
<path d="M0.047 0.358 Q0.118 0.703 0.807 0.744" stroke="hsl(0.0,100%,35%)" stroke-width="0.00026"></path>
<path d="M0.047 0.358 Q-0.018 0.649 0.536 0.745" stroke="hsl(0.0,100%,35%)" stroke-width="0.00487"></path>
<path d="M0.047 0.358 Q0.189 0.681 0.851 0.683" stroke="hsl(0.0,100%,35%)" stroke-width="0.00051"></path>
<path d="M0.047 0.358 Q0.385 0.703 1.133 0.614" stroke="hsl(0.0,100%,35%)" stroke-width="0.00026"></path>
<path d="M0.047 0.358 Q0.140 0.586 0.606 0.591" stroke="hsl(0.0,100%,35%)" stroke-width="0.00333"></path>
<path d="M0.047 0.358 Q-0.148 0.533 0.153 0.667" stroke="hsl(0.0,100%,35%)" stroke-width="0.00307"></path>
<path d="M0.047 0.358 Q0.082 0.523 0.412 0.541" stroke="hsl(0.0,100%,35%)" stroke-width="0.00026"></path>
<path d="M0.047 0.358 Q-0.299 0.603 0.104 0.826" stroke="hsl(0.0,100%,35%)" stroke-width="0.00179"></path>
<path d="M0.047 0.358 Q0.613 0.859 1.715 0.692" stroke="hsl(0.0,100%,35%)" stroke-width="0.00307"></path>
<path d="M0.047 0.358 Q0.259 0.927 1.416 0.948" stroke="hsl(0.0,100%,35%)" stroke-width="0.00077"></path>
<path d="M0.047 0.358 Q0.317 0.380 0.421 0.253" stroke="hsl(0.0,100%,35%)" stroke-width="0.00026"></path>
<path d="M0.047 0.358 Q0.130 0.317 0.070 0.268" stroke="hsl(0.0,100%,35%)" stroke-width="0.00077"></path>
<path d="M0.047 0.358 Q0.626 0.563 1.154 0.326" stroke="hsl(0.0,100%,35%)" stroke-width="0.00026"></path>
<path d="M0.530 0.481 Q0.322 0.614 0.536 0.745" stroke="hsl(0.0,100%,35%)" stroke-width="0.00666"></path>
<path d="M0.530 0.481 Q0.193 0.498 0.153 0.667" stroke="hsl(0.0,100%,35%)" stroke-width="0.00640"></path>
<path d="M0.530 0.481 Q0.480 0.551 0.606 0.591" stroke="hsl(0.0,100%,35%)" stroke-width="0.00205"></path>
<path d="M0.530 0.481 Q0.379 0.683 0.739 0.801" stroke="hsl(0.0,100%,35%)" stroke-width="0.00026"></path>
<path d="M0.921 1.319 Q1.465 1.232 1.416 0.948" stroke="hsl(0.0,100%,35%)" stroke-width="0.00026"></path>
<path d="M0.921 1.319 Q1.058 0.839 0.153 0.667" stroke="hsl(0.0,100%,35%)" stroke-width="0.00026"></path>
<path d="M0.921 1.319 Q1.188 0.955 0.536 0.745" stroke="hsl(0.0,100%,35%)" stroke-width="0.00026"></path>
<path d="M1.133 0.614 Q0.937 0.592 0.851 0.683" stroke="hsl(0.0,100%,35%)" stroke-width="0.00410"></path>
<path d="M1.133 0.614 Q1.008 0.837 1.416 0.948" stroke="hsl(0.0,100%,35%)" stroke-width="0.00026"></path>
<path d="M1.133 0.614 Q1.362 0.769 1.715 0.692" stroke="hsl(0.0,100%,35%)" stroke-width="0.00026"></path>
<path d="M1.133 0.614 Q0.601 0.444 0.153 0.667" stroke="hsl(0.0,100%,35%)" stroke-width="0.00435"></path>
<path d="M1.133 0.614 Q0.730 0.560 0.536 0.745" stroke="hsl(0.0,100%,35%)" stroke-width="0.00256"></path>
<path d="M1.133 0.614 Q0.888 0.497 0.606 0.591" stroke="hsl(0.0,100%,35%)" stroke-width="0.00154"></path>
<path d="M1.715 0.692 Q1.083 0.483 0.536 0.745" stroke="hsl(0.0,100%,35%)" stroke-width="0.00384"></path>
<path d="M1.715 0.692 Q0.852 0.459 0.209 0.829" stroke="hsl(0.0,100%,35%)" stroke-width="0.00026"></path>
<path d="M1.715 0.692 Q0.954 0.367 0.153 0.667" stroke="hsl(0.0,100%,35%)" stroke-width="0.02023"></path>
<path d="M1.715 0.692 Q1.241 0.420 0.606 0.591" stroke="hsl(0.0,100%,35%)" stroke-width="0.01562"></path>
<path d="M1.715 0.692 Q1.148 0.191 0.047 0.358" stroke="hsl(0.0,100%,35%)" stroke-width="0.00051"></path>
<path d="M1.715 0.692 Q1.487 0.537 1.133 0.614" stroke="hsl(0.0,100%,35%)" stroke-width="0.00077"></path>
<path d="M1.715 0.692 Q0.803 0.437 0.104 0.826" stroke="hsl(0.0,100%,35%)" stroke-width="0.00051"></path>
<path d="M1.715 0.692 Q2.174 0.367 1.640 0.071" stroke="hsl(0.0,100%,35%)" stroke-width="0.00026"></path>
<path d="M1.715 0.692 Q1.140 0.551 0.739 0.801" stroke="hsl(0.0,100%,35%)" stroke-width="0.00051"></path>
<path d="M1.715 0.692 Q1.291 0.515 0.851 0.683" stroke="hsl(0.0,100%,35%)" stroke-width="0.00051"></path>
<path d="M1.715 0.692 Q1.723 0.796 1.928 0.815" stroke="hsl(0.0,100%,35%)" stroke-width="0.00026"></path>
<path d="M0.526 0.515 Q0.554 0.664 0.851 0.683" stroke="hsl(0.0,100%,35%)" stroke-width="0.00026"></path>
<path d="M0.526 0.515 Q0.347 0.632 0.536 0.745" stroke="hsl(0.0,100%,35%)" stroke-width="0.00154"></path>
<path d="M0.526 0.515 Q0.218 0.516 0.153 0.667" stroke="hsl(0.0,100%,35%)" stroke-width="0.00128"></path>
<path d="M0.526 0.515 Q0.627 0.511 0.641 0.461" stroke="hsl(0.0,100%,35%)" stroke-width="0.00026"></path>
<path d="M0.526 0.515 Q0.505 0.569 0.606 0.591" stroke="hsl(0.0,100%,35%)" stroke-width="0.00026"></path>
<path d="M0.209 0.829 Q0.311 0.737 0.153 0.667" stroke="hsl(0.0,100%,35%)" stroke-width="0.00154"></path>
<path d="M0.209 0.829 Q0.440 0.852 0.536 0.745" stroke="hsl(0.0,100%,35%)" stroke-width="0.00026"></path>
<path d="M0.209 0.829 Q0.718 1.130 1.416 0.948" stroke="hsl(0.0,100%,35%)" stroke-width="0.00051"></path>
<path d="M0.104 0.826 Q0.660 1.011 1.143 0.781" stroke="hsl(0.0,100%,35%)" stroke-width="0.00051"></path>
<path d="M0.104 0.826 Q0.256 0.756 0.153 0.667" stroke="hsl(0.0,100%,35%)" stroke-width="0.01357"></path>
<path d="M0.104 0.826 Q0.385 0.872 0.536 0.745" stroke="hsl(0.0,100%,35%)" stroke-width="0.00128"></path>
<path d="M0.104 0.826 Q1.029 0.786 1.154 0.326" stroke="hsl(0.0,100%,35%)" stroke-width="0.00026"></path>
<path d="M0.104 0.826 Q0.543 0.809 0.606 0.591" stroke="hsl(0.0,100%,35%)" stroke-width="0.00026"></path>
<path d="M0.104 0.826 Q0.450 0.580 0.047 0.358" stroke="hsl(0.0,100%,35%)" stroke-width="0.00077"></path>
<path d="M0.104 0.826 Q0.494 0.720 0.373 0.507" stroke="hsl(0.0,100%,35%)" stroke-width="0.00077"></path>
<path d="M0.104 0.826 Q0.513 1.115 1.167 0.979" stroke="hsl(0.0,100%,35%)" stroke-width="0.00026"></path>
<path d="M0.500 0.464 Q0.164 0.496 0.153 0.667" stroke="hsl(0.0,100%,35%)" stroke-width="0.00051"></path>
<path d="M0.500 0.464 Q0.293 0.612 0.536 0.745" stroke="hsl(0.0,100%,35%)" stroke-width="0.00051"></path>
<path d="M0.500 0.464 Q0.013 0.566 0.104 0.826" stroke="hsl(0.0,100%,35%)" stroke-width="0.00026"></path>
<path d="M1.213 0.812 Q0.929 0.643 0.536 0.745" stroke="hsl(0.0,100%,35%)" stroke-width="0.00461"></path>
<path d="M1.213 0.812 Q0.799 0.528 0.153 0.667" stroke="hsl(0.0,100%,35%)" stroke-width="0.00435"></path>
<path d="M1.213 0.812 Q1.206 0.921 1.416 0.948" stroke="hsl(0.0,100%,35%)" stroke-width="0.00461"></path>
<path d="M1.213 0.812 Q1.037 0.492 0.373 0.507" stroke="hsl(0.0,100%,35%)" stroke-width="0.00102"></path>
<path d="M1.213 0.812 Q1.573 0.557 1.154 0.326" stroke="hsl(0.0,100%,35%)" stroke-width="0.00026"></path>
<path d="M0.373 0.507 Q0.264 0.659 0.536 0.745" stroke="hsl(0.0,100%,35%)" stroke-width="0.00282"></path>
<path d="M0.373 0.507 Q0.542 0.936 1.416 0.948" stroke="hsl(0.0,100%,35%)" stroke-width="0.00230"></path>
<path d="M0.373 0.507 Q0.908 0.572 1.154 0.326" stroke="hsl(0.0,100%,35%)" stroke-width="0.00179"></path>
<path d="M0.373 0.507 Q0.135 0.543 0.153 0.667" stroke="hsl(0.0,100%,35%)" stroke-width="0.00512"></path>
<path d="M0.373 0.507 Q-0.017 0.613 0.104 0.826" stroke="hsl(0.0,100%,35%)" stroke-width="0.00154"></path>
<path d="M0.373 0.507 Q1.159 0.587 1.488 0.221" stroke="hsl(0.0,100%,35%)" stroke-width="0.00077"></path>
<path d="M0.373 0.507 Q0.422 0.596 0.606 0.591" stroke="hsl(0.0,100%,35%)" stroke-width="0.00026"></path>
<path d="M0.373 0.507 Q0.896 0.868 1.715 0.692" stroke="hsl(0.0,100%,35%)" stroke-width="0.00026"></path>
<path d="M0.133 0.795 Q1.179 0.840 1.495 0.339" stroke="hsl(0.0,100%,35%)" stroke-width="0.00128"></path>
<path d="M0.133 0.795 Q1.019 0.765 1.154 0.326" stroke="hsl(0.0,100%,35%)" stroke-width="0.00410"></path>
<path d="M0.133 0.795 Q0.375 0.851 0.536 0.745" stroke="hsl(0.0,100%,35%)" stroke-width="0.00128"></path>
<path d="M0.133 0.795 Q0.246 0.735 0.153 0.667" stroke="hsl(0.0,100%,35%)" stroke-width="0.00871"></path>
<path d="M0.133 0.795 Q1.270 0.779 1.488 0.221" stroke="hsl(0.0,100%,35%)" stroke-width="0.00026"></path>
<path d="M0.133 0.795 Q0.094 0.805 0.104 0.826" stroke="hsl(0.0,100%,35%)" stroke-width="0.00026"></path>
<path d="M0.133 0.795 Q0.653 1.128 1.416 0.948" stroke="hsl(0.0,100%,35%)" stroke-width="0.00230"></path>
<path d="M0.133 0.795 Q0.084 0.896 0.269 0.942" stroke="hsl(0.0,100%,35%)" stroke-width="0.00077"></path>
<path d="M0.133 0.795 Q0.484 0.699 0.373 0.507" stroke="hsl(0.0,100%,35%)" stroke-width="0.00051"></path>
<path d="M0.253 0.783 Q0.296 0.705 0.153 0.667" stroke="hsl(0.0,100%,35%)" stroke-width="0.03790"></path>
<path d="M0.253 0.783 Q1.056 1.030 1.715 0.692" stroke="hsl(0.0,100%,35%)" stroke-width="0.02714"></path>
<path d="M0.253 0.783 Q0.583 0.758 0.606 0.591" stroke="hsl(0.0,100%,35%)" stroke-width="0.00102"></path>
<path d="M0.253 0.783 Q0.534 0.669 0.373 0.507" stroke="hsl(0.0,100%,35%)" stroke-width="0.00026"></path>
<path d="M0.253 0.783 Q0.425 0.821 0.536 0.745" stroke="hsl(0.0,100%,35%)" stroke-width="0.00026"></path>
<path d="M0.253 0.783 Q0.703 1.098 1.416 0.948" stroke="hsl(0.0,100%,35%)" stroke-width="0.00051"></path>
<path d="M1.488 0.221 Q0.463 0.177 0.153 0.667" stroke="hsl(0.0,100%,35%)" stroke-width="0.00333"></path>
<path d="M1.488 0.221 Q1.237 0.206 1.154 0.326" stroke="hsl(0.0,100%,35%)" stroke-width="0.00973"></path>
<path d="M1.488 0.221 Q1.397 0.281 1.495 0.339" stroke="hsl(0.0,100%,35%)" stroke-width="0.00154"></path>
<path d="M1.488 0.221 Q0.593 0.293 0.536 0.745" stroke="hsl(0.0,100%,35%)" stroke-width="0.00461"></path>
<path d="M1.488 0.221 Q0.312 0.247 0.104 0.826" stroke="hsl(0.0,100%,35%)" stroke-width="0.00102"></path>
<path d="M1.488 0.221 Q0.701 0.141 0.373 0.507" stroke="hsl(0.0,100%,35%)" stroke-width="0.00077"></path>
<path d="M1.488 0.221 Q0.870 0.570 1.416 0.948" stroke="hsl(0.0,100%,35%)" stroke-width="0.00051"></path>
<path d="M1.488 0.221 Q1.683 0.176 1.640 0.071" stroke="hsl(0.0,100%,35%)" stroke-width="0.00026"></path>
<path d="M1.495 0.339 Q1.335 0.264 1.154 0.326" stroke="hsl(0.0,100%,35%)" stroke-width="0.00538"></path>
<path d="M1.495 0.339 Q0.691 0.350 0.536 0.745" stroke="hsl(0.0,100%,35%)" stroke-width="0.00102"></path>
<path d="M1.495 0.339 Q1.586 0.278 1.488 0.221" stroke="hsl(0.0,100%,35%)" stroke-width="0.00307"></path>
<path d="M1.495 0.339 Q0.969 0.627 1.416 0.948" stroke="hsl(0.0,100%,35%)" stroke-width="0.00205"></path>
<path d="M1.495 0.339 Q0.449 0.295 0.133 0.795" stroke="hsl(0.0,100%,35%)" stroke-width="0.00102"></path>
<path d="M1.495 0.339 Q0.562 0.234 0.153 0.667" stroke="hsl(0.0,100%,35%)" stroke-width="0.00026"></path>
<path d="M1.495 0.339 Q0.849 0.287 0.606 0.591" stroke="hsl(0.0,100%,35%)" stroke-width="0.00026"></path>
<path d="M1.495 0.339 Q0.400 0.395 0.269 0.942" stroke="hsl(0.0,100%,35%)" stroke-width="0.00051"></path>
<path d="M1.495 0.339 Q0.800 0.198 0.373 0.507" stroke="hsl(0.0,100%,35%)" stroke-width="0.00179"></path>
<path d="M1.002 0.821 Q0.830 0.690 0.536 0.745" stroke="hsl(0.0,100%,35%)" stroke-width="0.00051"></path>
<path d="M1.002 0.821 Q1.038 0.722 0.851 0.683" stroke="hsl(0.0,100%,35%)" stroke-width="0.00077"></path>
<path d="M1.002 0.821 Q1.234 0.744 1.133 0.614" stroke="hsl(0.0,100%,35%)" stroke-width="0.00026"></path>
<path d="M1.002 0.821 Q1.462 0.899 1.715 0.692" stroke="hsl(0.0,100%,35%)" stroke-width="0.00026"></path>
<path d="M0.967 0.958 Q1.050 1.009 1.167 0.979" stroke="hsl(0.0,100%,35%)" stroke-width="0.00051"></path>
<path d="M0.967 0.958 Q0.922 0.765 0.536 0.745" stroke="hsl(0.0,100%,35%)" stroke-width="0.00026"></path>
<path d="M0.967 0.958 Q0.792 0.649 0.153 0.667" stroke="hsl(0.0,100%,35%)" stroke-width="0.00026"></path>
<path d="M0.807 0.744 Q1.022 0.771 1.121 0.672" stroke="hsl(0.0,100%,35%)" stroke-width="0.00026"></path>
<path d="M0.807 0.744 Q0.671 0.690 0.536 0.745" stroke="hsl(0.0,100%,35%)" stroke-width="0.00051"></path>
<path d="M0.807 0.744 Q0.878 0.722 0.851 0.683" stroke="hsl(0.0,100%,35%)" stroke-width="0.00026"></path>
<path d="M0.807 0.744 Q0.542 0.575 0.153 0.667" stroke="hsl(0.0,100%,35%)" stroke-width="0.00051"></path>
<path d="M0.807 0.744 Q0.949 0.968 1.416 0.948" stroke="hsl(0.0,100%,35%)" stroke-width="0.00051"></path>
<path d="M0.807 0.744 Q0.829 0.628 0.606 0.591" stroke="hsl(0.0,100%,35%)" stroke-width="0.00077"></path>
<path d="M0.807 0.744 Q0.724 0.801 0.816 0.854" stroke="hsl(0.0,100%,35%)" stroke-width="0.00026"></path>
<path d="M0.807 0.744 Q1.303 0.900 1.715 0.692" stroke="hsl(0.0,100%,35%)" stroke-width="0.00026"></path>
<path d="M0.807 0.744 Q0.736 0.399 0.047 0.358" stroke="hsl(0.0,100%,35%)" stroke-width="0.00026"></path>
<path d="M0.412 0.541 Q0.943 0.877 1.715 0.692" stroke="hsl(0.0,100%,35%)" stroke-width="0.00128"></path>
<path d="M0.412 0.541 Q0.311 0.668 0.536 0.745" stroke="hsl(0.0,100%,35%)" stroke-width="0.00256"></path>
<path d="M0.412 0.541 Q0.469 0.605 0.606 0.591" stroke="hsl(0.0,100%,35%)" stroke-width="0.00179"></path>
<path d="M0.412 0.541 Q0.715 0.722 1.133 0.614" stroke="hsl(0.0,100%,35%)" stroke-width="0.00026"></path>
<path d="M0.412 0.541 Q0.519 0.700 0.851 0.683" stroke="hsl(0.0,100%,35%)" stroke-width="0.00026"></path>
<path d="M0.412 0.541 Q0.182 0.552 0.153 0.667" stroke="hsl(0.0,100%,35%)" stroke-width="0.00128"></path>
<path d="M0.412 0.541 Q0.589 0.945 1.416 0.948" stroke="hsl(0.0,100%,35%)" stroke-width="0.00026"></path>
<path d="M0.412 0.541 Q0.376 0.376 0.047 0.358" stroke="hsl(0.0,100%,35%)" stroke-width="0.00026"></path>
<path d="M0.070 0.268 Q-0.014 0.308 0.047 0.358" stroke="hsl(0.0,100%,35%)" stroke-width="0.00102"></path>
<path d="M0.070 0.268 Q-0.079 0.600 0.536 0.745" stroke="hsl(0.0,100%,35%)" stroke-width="0.00026"></path>
<path d="M0.070 0.268 Q0.553 0.809 1.715 0.692" stroke="hsl(0.0,100%,35%)" stroke-width="0.00051"></path>
<path d="M0.070 0.268 Q-0.208 0.484 0.153 0.667" stroke="hsl(0.0,100%,35%)" stroke-width="0.00026"></path>
<path d="M0.185 0.840 Q0.308 0.747 0.153 0.667" stroke="hsl(0.0,100%,35%)" stroke-width="0.00230"></path>
<path d="M0.185 0.840 Q0.437 0.863 0.536 0.745" stroke="hsl(0.0,100%,35%)" stroke-width="0.00307"></path>
<path d="M0.185 0.840 Q0.714 1.140 1.416 0.948" stroke="hsl(0.0,100%,35%)" stroke-width="0.00051"></path>
<path d="M0.062 0.780 Q0.327 0.857 0.536 0.745" stroke="hsl(0.0,100%,35%)" stroke-width="0.00026"></path>
<path d="M0.062 0.780 Q0.198 0.742 0.153 0.667" stroke="hsl(0.0,100%,35%)" stroke-width="0.00102"></path>
<path d="M0.062 0.780 Q0.605 1.135 1.416 0.948" stroke="hsl(0.0,100%,35%)" stroke-width="0.00051"></path>
<path d="M1.447 0.759 Q1.635 0.779 1.715 0.692" stroke="hsl(0.0,100%,35%)" stroke-width="0.02023"></path>
<path d="M1.447 0.759 Q0.874 0.454 0.153 0.667" stroke="hsl(0.0,100%,35%)" stroke-width="0.02100"></path>
<path d="M1.447 0.759 Q1.161 0.507 0.606 0.591" stroke="hsl(0.0,100%,35%)" stroke-width="0.00077"></path>
<path d="M1.447 0.759 Q1.003 0.570 0.536 0.745" stroke="hsl(0.0,100%,35%)" stroke-width="0.00128"></path>
<path d="M1.447 0.759 Q1.060 0.638 0.739 0.801" stroke="hsl(0.0,100%,35%)" stroke-width="0.00026"></path>
<path d="M1.447 0.759 Q1.281 0.847 1.416 0.948" stroke="hsl(0.0,100%,35%)" stroke-width="0.00026"></path>
<path d="M1.939 0.429 Q0.985 0.306 0.536 0.745" stroke="hsl(0.0,100%,35%)" stroke-width="0.00026"></path>
<path d="M1.939 0.429 Q1.629 0.220 1.154 0.326" stroke="hsl(0.0,100%,35%)" stroke-width="0.00077"></path>
<path d="M1.939 0.429 Q1.789 0.295 1.495 0.339" stroke="hsl(0.0,100%,35%)" stroke-width="0.00026"></path>
<path d="M1.939 0.429 Q1.094 0.155 0.373 0.507" stroke="hsl(0.0,100%,35%)" stroke-width="0.00026"></path>
<path d="M0.426 0.449 Q0.876 0.828 1.715 0.692" stroke="hsl(0.0,100%,35%)" stroke-width="0.01050"></path>
<path d="M0.426 0.449 Q0.115 0.503 0.153 0.667" stroke="hsl(0.0,100%,35%)" stroke-width="0.01203"></path>
<path d="M0.426 0.449 Q0.522 0.896 1.416 0.948" stroke="hsl(0.0,100%,35%)" stroke-width="0.00026"></path>
<path d="M1.737 0.447 Q0.769 0.240 0.153 0.667" stroke="hsl(0.0,100%,35%)" stroke-width="0.00026"></path>
<path d="M1.737 0.447 Q1.543 0.270 1.154 0.326" stroke="hsl(0.0,100%,35%)" stroke-width="0.00128"></path>
<path d="M1.737 0.447 Q1.853 0.478 1.939 0.429" stroke="hsl(0.0,100%,35%)" stroke-width="0.00128"></path>
<path d="M0.912 0.807 Q0.774 0.701 0.536 0.745" stroke="hsl(0.0,100%,35%)" stroke-width="0.00026"></path>
<path d="M0.912 0.807 Q1.052 0.978 1.416 0.948" stroke="hsl(0.0,100%,35%)" stroke-width="0.00026"></path>
<path d="M0.912 0.807 Q0.645 0.585 0.153 0.667" stroke="hsl(0.0,100%,35%)" stroke-width="0.00026"></path>
<path d="M0.912 0.807 Q0.932 0.638 0.606 0.591" stroke="hsl(0.0,100%,35%)" stroke-width="0.00026"></path>
<path d="M0.402 0.400 Q0.064 0.484 0.153 0.667" stroke="hsl(0.0,100%,35%)" stroke-width="0.00102"></path>
<path d="M0.402 0.400 Q0.302 0.448 0.373 0.507" stroke="hsl(0.0,100%,35%)" stroke-width="0.00026"></path>
<path d="M0.402 0.400 Q0.838 0.513 1.154 0.326" stroke="hsl(0.0,100%,35%)" stroke-width="0.00026"></path>
<path d="M0.493 0.460 Q0.919 0.820 1.715 0.692" stroke="hsl(0.0,100%,35%)" stroke-width="0.00026"></path>
<path d="M0.493 0.460 Q0.494 0.643 0.851 0.683" stroke="hsl(0.0,100%,35%)" stroke-width="0.00026"></path>
<path d="M0.493 0.460 Q0.006 0.565 0.104 0.826" stroke="hsl(0.0,100%,35%)" stroke-width="0.00026"></path>
<path d="M0.493 0.460 Q0.158 0.495 0.153 0.667" stroke="hsl(0.0,100%,35%)" stroke-width="0.00026"></path>
<path d="M0.493 0.460 Q0.287 0.611 0.536 0.745" stroke="hsl(0.0,100%,35%)" stroke-width="0.00026"></path>
<path d="M0.772 0.939 Q0.809 0.795 0.536 0.745" stroke="hsl(0.0,100%,35%)" stroke-width="0.00102"></path>
<path d="M0.772 0.939 Q0.918 0.643 0.373 0.507" stroke="hsl(0.0,100%,35%)" stroke-width="0.00051"></path>
<path d="M0.772 0.939 Q0.529 0.749 0.104 0.826" stroke="hsl(0.0,100%,35%)" stroke-width="0.00026"></path>
<path d="M0.772 0.939 Q1.087 1.072 1.416 0.948" stroke="hsl(0.0,100%,35%)" stroke-width="0.00051"></path>
<path d="M1.478 0.605 Q0.766 0.371 0.153 0.667" stroke="hsl(0.0,100%,35%)" stroke-width="0.00026"></path>
<path d="M1.478 0.605 Q1.603 0.612 1.644 0.553" stroke="hsl(0.0,100%,35%)" stroke-width="0.00026"></path>
<path d="M1.478 0.605 Q1.173 0.764 1.416 0.948" stroke="hsl(0.0,100%,35%)" stroke-width="0.00026"></path>
<path d="M0.449 0.432 Q0.113 0.490 0.153 0.667" stroke="hsl(0.0,100%,35%)" stroke-width="0.00102"></path>
<path d="M0.449 0.432 Q0.242 0.606 0.536 0.745" stroke="hsl(0.0,100%,35%)" stroke-width="0.00230"></path>
<path d="M0.449 0.432 Q0.370 0.849 1.167 0.979" stroke="hsl(0.0,100%,35%)" stroke-width="0.00026"></path>
<path d="M0.449 0.432 Q0.520 0.883 1.416 0.948" stroke="hsl(0.0,100%,35%)" stroke-width="0.00026"></path>
<path d="M1.125 0.923 Q1.251 0.993 1.416 0.948" stroke="hsl(0.0,100%,35%)" stroke-width="0.00102"></path>
<path d="M1.125 0.923 Q1.894 0.549 1.333 0.092" stroke="hsl(0.0,100%,35%)" stroke-width="0.00026"></path>
<path d="M1.125 0.923 Q0.844 0.600 0.153 0.667" stroke="hsl(0.0,100%,35%)" stroke-width="0.00051"></path>
<path d="M1.125 0.923 Q0.973 0.716 0.536 0.745" stroke="hsl(0.0,100%,35%)" stroke-width="0.00026"></path>
<path d="M0.683 0.456 Q0.379 0.571 0.536 0.745" stroke="hsl(0.0,100%,35%)" stroke-width="0.00205"></path>
<path d="M0.683 0.456 Q0.249 0.455 0.153 0.667" stroke="hsl(0.0,100%,35%)" stroke-width="0.00077"></path>
<path d="M0.683 0.456 Q0.537 0.508 0.606 0.591" stroke="hsl(0.0,100%,35%)" stroke-width="0.00026"></path>
<path d="M0.397 0.649 Q0.109 0.679 0.104 0.826" stroke="hsl(0.0,100%,35%)" stroke-width="0.00077"></path>
<path d="M0.397 0.649 Q1.034 0.639 1.154 0.326" stroke="hsl(0.0,100%,35%)" stroke-width="0.00051"></path>
<path d="M0.397 0.649 Q0.667 1.002 1.416 0.948" stroke="hsl(0.0,100%,35%)" stroke-width="0.00051"></path>
<path d="M0.397 0.649 Q0.390 0.725 0.536 0.745" stroke="hsl(0.0,100%,35%)" stroke-width="0.00026"></path>
<path d="M0.729 0.866 Q0.600 0.651 0.153 0.667" stroke="hsl(0.0,100%,35%)" stroke-width="0.00256"></path>
<path d="M0.729 0.866 Q0.730 0.767 0.536 0.745" stroke="hsl(0.0,100%,35%)" stroke-width="0.00230"></path>
<path d="M0.729 0.866 Q0.786 0.835 0.739 0.801" stroke="hsl(0.0,100%,35%)" stroke-width="0.00026"></path>
<path d="M0.729 0.866 Q1.007 1.044 1.416 0.948" stroke="hsl(0.0,100%,35%)" stroke-width="0.00051"></path>
<path d="M0.729 0.866 Q1.534 0.756 1.495 0.339" stroke="hsl(0.0,100%,35%)" stroke-width="0.00026"></path>
<path d="M0.729 0.866 Q1.374 0.681 1.154 0.326" stroke="hsl(0.0,100%,35%)" stroke-width="0.00026"></path>
<path d="M0.729 0.866 Q0.888 0.704 0.606 0.591" stroke="hsl(0.0,100%,35%)" stroke-width="0.00026"></path>
<path d="M1.143 0.781 Q0.740 0.526 0.153 0.667" stroke="hsl(0.0,100%,35%)" stroke-width="0.00307"></path>
<path d="M1.143 0.781 Q1.147 0.919 1.416 0.948" stroke="hsl(0.0,100%,35%)" stroke-width="0.00205"></path>
<path d="M1.143 0.781 Q0.869 0.642 0.536 0.745" stroke="hsl(0.0,100%,35%)" stroke-width="0.00102"></path>
<path d="M1.143 0.781 Q0.978 0.490 0.373 0.507" stroke="hsl(0.0,100%,35%)" stroke-width="0.00077"></path>
<path d="M1.143 0.781 Q1.513 0.556 1.154 0.326" stroke="hsl(0.0,100%,35%)" stroke-width="0.00026"></path>
<path d="M1.143 0.781 Q1.500 0.851 1.715 0.692" stroke="hsl(0.0,100%,35%)" stroke-width="0.00026"></path>
<path d="M0.675 0.458 Q0.247 0.458 0.153 0.667" stroke="hsl(0.0,100%,35%)" stroke-width="0.00051"></path>
<path d="M0.675 0.458 Q0.376 0.574 0.536 0.745" stroke="hsl(0.0,100%,35%)" stroke-width="0.00077"></path>
<path d="M0.675 0.458 Q0.433 0.642 0.739 0.801" stroke="hsl(0.0,100%,35%)" stroke-width="0.00026"></path>
<path d="M1.099 0.123 Q0.597 0.599 1.416 0.948" stroke="hsl(0.0,100%,35%)" stroke-width="0.00026"></path>
<path d="M1.099 0.123 Q1.240 0.154 1.333 0.092" stroke="hsl(0.0,100%,35%)" stroke-width="0.00026"></path>
<path d="M1.099 0.123 Q0.191 0.206 0.153 0.667" stroke="hsl(0.0,100%,35%)" stroke-width="0.00026"></path>
<path d="M0.785 0.821 Q0.722 0.733 0.536 0.745" stroke="hsl(0.0,100%,35%)" stroke-width="0.00026"></path>
<path d="M0.785 0.821 Q0.592 0.618 0.153 0.667" stroke="hsl(0.0,100%,35%)" stroke-width="0.00026"></path>
<path d="M0.785 0.821 Q0.999 1.011 1.416 0.948" stroke="hsl(0.0,100%,35%)" stroke-width="0.00026"></path>
</g>
<text x="0.660" y="0.809" font-size="0.011835" fill="hsl(0.0,100%,20%)">abdolrashidi</text>
<text x="0.536" y="0.705" font-size="0.080595" fill="hsl(0.0,100%,20%)">syoussefi</text>
<text x="0.153" y="0.616" font-size="0.100857" fill="hsl(0.0,100%,20%)">jmadill</text>
<text x="0.851" y="0.661" font-size="0.043080" fill="hsl(0.0,100%,20%)">cclao</text>
<text x="1.154" y="0.311" font-size="0.029090" fill="hsl(0.0,100%,20%)">kbr</text>
<text x="1.519" y="0.502" font-size="0.008369" fill="hsl(0.0,100%,20%)">adkushwa</text>
<text x="1.644" y="0.550" font-size="0.005917" fill="hsl(0.0,100%,20%)">rafael.cintron</text>
<text x="1.416" y="0.930" font-size="0.035340" fill="hsl(0.0,100%,20%)">geofflang</text>
<text x="0.171" y="0.476" font-size="0.006833" fill="hsl(0.0,100%,20%)">amy.liu</text>
<text x="0.606" y="0.560" font-size="0.061827" fill="hsl(0.0,100%,20%)">timvp</text>
<text x="0.306" y="0.408" font-size="0.009961" fill="hsl(0.0,100%,20%)">antonio.caggiano</text>
<text x="0.739" y="0.785" font-size="0.032049" fill="hsl(0.0,100%,20%)">m.maiya</text>
<text x="0.503" y="0.423" font-size="0.002416" fill="hsl(0.0,100%,20%)">jvigilsamsung</text>
<text x="0.463" y="0.451" font-size="0.002416" fill="hsl(0.0,100%,20%)">constantine.shablya</text>
<text x="0.047" y="0.343" font-size="0.028787" fill="hsl(0.0,100%,20%)">ianelliott</text>
<text x="0.530" y="0.472" font-size="0.018713" fill="hsl(0.0,100%,20%)">b.schade</text>
<text x="0.921" y="1.317" font-size="0.004184" fill="hsl(0.0,100%,20%)">capn</text>
<text x="1.133" y="0.605" font-size="0.018868" fill="hsl(0.0,100%,20%)">lfy</text>
<text x="1.715" y="0.663" font-size="0.058580" fill="hsl(0.0,100%,20%)">cnorthrop</text>
<text x="0.526" y="0.510" font-size="0.009039" fill="hsl(0.0,100%,20%)">cheryl.wei</text>
<text x="0.641" y="0.459" font-size="0.004184" fill="hsl(0.0,100%,20%)">sunny.sun</text>
<text x="0.209" y="0.825" font-size="0.008369" fill="hsl(0.0,100%,20%)">romanl</text>
<text x="0.104" y="0.808" font-size="0.036397" fill="hsl(0.0,100%,20%)">ynovikov</text>
<text x="1.640" y="0.070" font-size="0.003416" fill="hsl(0.0,100%,20%)">bajones</text>
<text x="1.928" y="0.813" font-size="0.002416" fill="hsl(0.0,100%,20%)">paulthomson</text>
<text x="0.500" y="0.461" font-size="0.005402" fill="hsl(0.0,100%,20%)">cwallez</text>
<text x="1.315" y="0.779" font-size="0.002416" fill="hsl(0.0,100%,20%)">zmo</text>
<text x="1.213" y="0.803" font-size="0.019774" fill="hsl(0.0,100%,20%)">penghuang</text>
<text x="1.391" y="0.645" font-size="0.002416" fill="hsl(0.0,100%,20%)">junov</text>
<text x="0.373" y="0.493" font-size="0.027965" fill="hsl(0.0,100%,20%)">jonahr</text>
<text x="0.133" y="0.784" font-size="0.021876" fill="hsl(0.0,100%,20%)">lexa.knyazev</text>
<text x="1.222" y="1.268" font-size="0.002416" fill="hsl(0.0,100%,20%)">vikassoni</text>
<text x="0.253" y="0.763" font-size="0.039548" fill="hsl(0.0,100%,20%)">gert.wollny</text>
<text x="1.488" y="0.208" font-size="0.024398" fill="hsl(0.0,100%,20%)">gman</text>
<text x="1.495" y="0.329" font-size="0.020781" fill="hsl(0.0,100%,20%)">kpiddington</text>
<text x="1.002" y="0.818" font-size="0.006392" fill="hsl(0.0,100%,20%)">hailinzhang</text>
<text x="0.967" y="0.955" font-size="0.004832" fill="hsl(0.0,100%,20%)">hans</text>
<text x="1.167" y="0.977" font-size="0.005402" fill="hsl(0.0,100%,20%)">thakis</text>
<text x="0.807" y="0.739" font-size="0.009961" fill="hsl(0.0,100%,20%)">natsu</text>
<text x="0.412" y="0.533" font-size="0.016024" fill="hsl(0.0,100%,20%)">yuxinhu</text>
<text x="0.421" y="0.252" font-size="0.002416" fill="hsl(0.0,100%,20%)">vantablack</text>
<text x="0.070" y="0.264" font-size="0.008012" fill="hsl(0.0,100%,20%)">mark</text>
<text x="0.185" y="0.834" font-size="0.011586" fill="hsl(0.0,100%,20%)">j.vigil</text>
<text x="0.062" y="0.777" font-size="0.006833" fill="hsl(0.0,100%,20%)">jgilbert</text>
<text x="1.447" y="0.743" font-size="0.031683" fill="hsl(0.0,100%,20%)">lubosz.sarnecki</text>
<text x="0.392" y="0.443" font-size="0.004184" fill="hsl(0.0,100%,20%)">bsheedy</text>
<text x="0.343" y="0.414" font-size="0.002416" fill="hsl(0.0,100%,20%)">brucedawson</text>
<text x="0.016" y="0.524" font-size="0.003416" fill="hsl(0.0,100%,20%)">tandrii</text>
<text x="0.419" y="0.459" font-size="0.002416" fill="hsl(0.0,100%,20%)">dpranke</text>
<text x="0.816" y="0.852" font-size="0.004184" fill="hsl(0.0,100%,20%)">nicolascapens</text>
<text x="0.482" y="0.383" font-size="0.002416" fill="hsl(0.0,100%,20%)">doughorn</text>
<text x="1.939" y="0.425" font-size="0.008012" fill="hsl(0.0,100%,20%)">johncunningham</text>
<text x="0.426" y="0.437" font-size="0.022790" fill="hsl(0.0,100%,20%)">jplate</text>
<text x="1.742" y="0.173" font-size="0.002416" fill="hsl(0.0,100%,20%)">ccameron</text>
<text x="1.737" y="0.443" font-size="0.008012" fill="hsl(0.0,100%,20%)">kkinnunen</text>
<text x="0.269" y="0.939" font-size="0.005402" fill="hsl(0.0,100%,20%)">le.hoang.q</text>
<text x="0.912" y="0.805" font-size="0.004832" fill="hsl(0.0,100%,20%)">kyle.griffiths</text>
<text x="0.402" y="0.397" font-size="0.005917" fill="hsl(0.0,100%,20%)">lehoangq</text>
<text x="0.493" y="0.457" font-size="0.005402" fill="hsl(0.0,100%,20%)">lunpujun</text>
<text x="0.772" y="0.935" font-size="0.007247" fill="hsl(0.0,100%,20%)">msisov</text>
<text x="1.121" y="0.671" font-size="0.002416" fill="hsl(0.0,100%,20%)">zzyiwei</text>
<text x="1.478" y="0.603" font-size="0.004184" fill="hsl(0.0,100%,20%)">patrto</text>
<text x="0.449" y="0.427" font-size="0.009356" fill="hsl(0.0,100%,20%)">pkasting</text>
<text x="1.125" y="0.919" font-size="0.006833" fill="hsl(0.0,100%,20%)">senorblanco</text>
<text x="1.333" y="0.090" font-size="0.003416" fill="hsl(0.0,100%,20%)">jiajia.qin</text>
<text x="0.683" y="0.452" font-size="0.008369" fill="hsl(0.0,100%,20%)">sergeyu</text>
<text x="0.397" y="0.645" font-size="0.006833" fill="hsl(0.0,100%,20%)">shrekshao</text>
<text x="1.162" y="-1.752" font-size="0.004184" fill="hsl(0.0,100%,20%)">srisser</text>
<text x="0.729" y="0.860" font-size="0.012079" fill="hsl(0.0,100%,20%)">steven</text>
<text x="1.143" y="0.774" font-size="0.014086" fill="hsl(0.0,100%,20%)">sugoi</text>
<text x="0.943" y="0.857" font-size="0.003416" fill="hsl(0.0,100%,20%)">cstout</text>
<text x="1.027" y="0.891" font-size="0.002416" fill="hsl(0.0,100%,20%)">borenet</text>
<text x="0.734" y="0.423" font-size="0.003416" fill="hsl(0.0,100%,20%)">reveman</text>
<text x="0.793" y="0.857" font-size="0.002416" fill="hsl(0.0,100%,20%)">jie.a.chen</text>
<text x="0.675" y="0.455" font-size="0.005917" fill="hsl(0.0,100%,20%)">xiaoxuan.liu</text>
<text x="1.099" y="0.121" font-size="0.004184" fill="hsl(0.0,100%,20%)">xinghua.cao</text>
<text x="0.785" y="0.819" font-size="0.004184" fill="hsl(0.0,100%,20%)">yang.gu</text>
</svg>
