<svg width="4000" height="2000" viewBox="-0.025 -0.025 2.05 1.05" xmlns="http://www.w3.org/2000/svg">
  <style>
    path {
      fill: none;
      stroke-linecap: round;
      stroke-opacity: 0.4;
    }

    text {
      text-anchor: middle;
      alignment-baseline: hanging;
    }
  </style>
  <g opacity="0.4">
<path d="M1.057 0.359 Q1.009 0.322 0.926 0.337" stroke="hsl(0.0,100%,35%)" stroke-width="0.00282"></path>
<path d="M1.057 0.359 Q0.904 0.212 0.583 0.254" stroke="hsl(0.0,100%,35%)" stroke-width="0.00205"></path>
<path d="M1.057 0.359 Q0.781 0.261 0.529 0.374" stroke="hsl(0.0,100%,35%)" stroke-width="0.00051"></path>
<path d="M1.057 0.359 Q1.148 0.505 1.452 0.492" stroke="hsl(0.0,100%,35%)" stroke-width="0.00026"></path>
<path d="M0.926 0.337 Q0.658 0.269 0.466 0.385" stroke="hsl(0.0,100%,35%)" stroke-width="0.00051"></path>
<path d="M0.926 0.337 Q0.992 0.422 1.172 0.408" stroke="hsl(0.0,100%,35%)" stroke-width="0.00128"></path>
<path d="M0.926 0.337 Q0.821 0.227 0.583 0.254" stroke="hsl(0.0,100%,35%)" stroke-width="0.06649"></path>
<path d="M0.926 0.337 Q0.754 0.367 0.776 0.458" stroke="hsl(0.0,100%,35%)" stroke-width="0.04749"></path>
<path d="M0.926 0.337 Q0.698 0.276 0.529 0.374" stroke="hsl(0.0,100%,35%)" stroke-width="0.00950"></path>
<path d="M0.926 0.337 Q0.147 0.483 0.261 0.895" stroke="hsl(0.0,100%,35%)" stroke-width="0.00026"></path>
<path d="M0.926 0.337 Q1.140 0.258 1.033 0.136" stroke="hsl(0.0,100%,35%)" stroke-width="0.00334"></path>
<path d="M0.926 0.337 Q0.997 0.375 1.087 0.348" stroke="hsl(0.0,100%,35%)" stroke-width="0.00462"></path>
<path d="M0.926 0.337 Q0.418 0.433 0.494 0.701" stroke="hsl(0.0,100%,35%)" stroke-width="0.00231"></path>
<path d="M0.926 0.337 Q1.209 0.370 1.335 0.239" stroke="hsl(0.0,100%,35%)" stroke-width="0.00051"></path>
<path d="M0.926 0.337 Q0.581 0.208 0.253 0.348" stroke="hsl(0.0,100%,35%)" stroke-width="0.00282"></path>
<path d="M0.926 0.337 Q0.686 0.534 1.018 0.695" stroke="hsl(0.0,100%,35%)" stroke-width="0.00128"></path>
<path d="M0.926 0.337 Q0.591 0.274 0.395 0.424" stroke="hsl(0.0,100%,35%)" stroke-width="0.00026"></path>
<path d="M0.926 0.337 Q0.588 0.295 0.433 0.451" stroke="hsl(0.0,100%,35%)" stroke-width="0.00077"></path>
<path d="M0.926 0.337 Q0.891 0.357 0.923 0.378" stroke="hsl(0.0,100%,35%)" stroke-width="0.00026"></path>
<path d="M0.926 0.337 Q0.682 0.717 1.369 0.919" stroke="hsl(0.0,100%,35%)" stroke-width="0.00026"></path>
<path d="M0.926 0.337 Q0.565 0.782 1.353 1.055" stroke="hsl(0.0,100%,35%)" stroke-width="0.00026"></path>
<path d="M0.926 0.337 Q0.565 0.357 0.526 0.538" stroke="hsl(0.0,100%,35%)" stroke-width="0.00026"></path>
<path d="M0.926 0.337 Q1.065 0.520 1.452 0.492" stroke="hsl(0.0,100%,35%)" stroke-width="0.00128"></path>
<path d="M0.926 0.337 Q0.311 0.366 0.233 0.672" stroke="hsl(0.0,100%,35%)" stroke-width="0.00026"></path>
<path d="M0.926 0.337 Q0.974 0.375 1.058 0.360" stroke="hsl(0.0,100%,35%)" stroke-width="0.00051"></path>
<path d="M0.926 0.337 Q1.204 0.376 1.342 0.249" stroke="hsl(0.0,100%,35%)" stroke-width="0.00026"></path>
<path d="M0.583 0.254 Q0.688 0.364 0.926 0.337" stroke="hsl(0.0,100%,35%)" stroke-width="0.02952"></path>
<path d="M0.583 0.254 Q0.902 0.285 1.033 0.136" stroke="hsl(0.0,100%,35%)" stroke-width="0.02721"></path>
<path d="M0.583 0.254 Q0.460 0.303 0.529 0.374" stroke="hsl(0.0,100%,35%)" stroke-width="0.00308"></path>
<path d="M0.583 0.254 Q0.585 0.362 0.797 0.384" stroke="hsl(0.0,100%,35%)" stroke-width="0.00308"></path>
<path d="M0.583 0.254 Q0.448 0.561 1.018 0.695" stroke="hsl(0.0,100%,35%)" stroke-width="0.03235"></path>
<path d="M0.583 0.254 Q0.516 0.394 0.776 0.458" stroke="hsl(0.0,100%,35%)" stroke-width="0.03312"></path>
<path d="M0.583 0.254 Q0.653 0.384 0.923 0.378" stroke="hsl(0.0,100%,35%)" stroke-width="0.00026"></path>
<path d="M0.583 0.254 Q0.352 0.365 0.519 0.502" stroke="hsl(0.0,100%,35%)" stroke-width="0.00026"></path>
<path d="M0.583 0.254 Q0.353 0.301 0.395 0.424" stroke="hsl(0.0,100%,35%)" stroke-width="0.00051"></path>
<path d="M0.583 0.254 Q0.343 0.235 0.253 0.348" stroke="hsl(0.0,100%,35%)" stroke-width="0.00719"></path>
<path d="M0.583 0.254 Q0.629 0.523 1.166 0.560" stroke="hsl(0.0,100%,35%)" stroke-width="0.00026"></path>
<path d="M0.583 0.254 Q0.180 0.460 0.494 0.701" stroke="hsl(0.0,100%,35%)" stroke-width="0.00693"></path>
<path d="M0.583 0.254 Q0.827 0.547 1.452 0.492" stroke="hsl(0.0,100%,35%)" stroke-width="0.00026"></path>
<path d="M0.583 0.254 Q0.347 0.306 0.398 0.433" stroke="hsl(0.0,100%,35%)" stroke-width="0.00077"></path>
<path d="M0.583 0.254 Q0.759 0.402 1.087 0.348" stroke="hsl(0.0,100%,35%)" stroke-width="0.00103"></path>
<path d="M0.583 0.254 Q0.809 0.204 0.762 0.083" stroke="hsl(0.0,100%,35%)" stroke-width="0.00026"></path>
<path d="M0.583 0.254 Q0.392 0.450 0.732 0.586" stroke="hsl(0.0,100%,35%)" stroke-width="0.00154"></path>
<path d="M0.583 0.254 Q0.330 0.383 0.525 0.535" stroke="hsl(0.0,100%,35%)" stroke-width="0.00026"></path>
<path d="M0.583 0.254 Q0.876 0.206 0.847 0.053" stroke="hsl(0.0,100%,35%)" stroke-width="0.00026"></path>
<path d="M0.583 0.254 Q-0.091 0.510 0.261 0.895" stroke="hsl(0.0,100%,35%)" stroke-width="0.00026"></path>
<path d="M0.583 0.254 Q0.754 0.449 1.172 0.408" stroke="hsl(0.0,100%,35%)" stroke-width="0.00026"></path>
<path d="M0.583 0.254 Q0.618 0.332 0.778 0.332" stroke="hsl(0.0,100%,35%)" stroke-width="0.00026"></path>
<path d="M0.529 0.374 Q0.757 0.435 0.926 0.337" stroke="hsl(0.0,100%,35%)" stroke-width="0.01463"></path>
<path d="M0.529 0.374 Q0.652 0.325 0.583 0.254" stroke="hsl(0.0,100%,35%)" stroke-width="0.02054"></path>
<path d="M0.529 0.374 Q0.586 0.465 0.776 0.458" stroke="hsl(0.0,100%,35%)" stroke-width="0.01232"></path>
<path d="M0.529 0.374 Q0.829 0.473 1.087 0.348" stroke="hsl(0.0,100%,35%)" stroke-width="0.00616"></path>
<path d="M0.529 0.374 Q0.423 0.372 0.395 0.424" stroke="hsl(0.0,100%,35%)" stroke-width="0.00026"></path>
<path d="M0.529 0.374 Q0.824 0.520 1.172 0.408" stroke="hsl(0.0,100%,35%)" stroke-width="0.00026"></path>
<path d="M0.529 0.374 Q0.517 0.632 1.018 0.695" stroke="hsl(0.0,100%,35%)" stroke-width="0.00180"></path>
<path d="M0.529 0.374 Q0.250 0.531 0.494 0.701" stroke="hsl(0.0,100%,35%)" stroke-width="0.00077"></path>
<path d="M1.452 0.492 Q1.313 0.309 0.926 0.337" stroke="hsl(0.0,100%,35%)" stroke-width="0.00282"></path>
<path d="M1.452 0.492 Q1.596 0.545 1.731 0.487" stroke="hsl(0.0,100%,35%)" stroke-width="0.00026"></path>
<path d="M1.452 0.492 Q1.528 0.230 1.033 0.136" stroke="hsl(0.0,100%,35%)" stroke-width="0.00154"></path>
<path d="M1.452 0.492 Q1.208 0.199 0.583 0.254" stroke="hsl(0.0,100%,35%)" stroke-width="0.00231"></path>
<path d="M1.452 0.492 Q1.478 0.581 1.658 0.588" stroke="hsl(0.0,100%,35%)" stroke-width="0.00026"></path>
<path d="M1.452 0.492 Q1.141 0.340 0.776 0.458" stroke="hsl(0.0,100%,35%)" stroke-width="0.00026"></path>
<path d="M1.452 0.492 Q0.968 0.180 0.253 0.348" stroke="hsl(0.0,100%,35%)" stroke-width="0.00051"></path>
<path d="M1.452 0.492 Q1.714 0.516 1.818 0.394" stroke="hsl(0.0,100%,35%)" stroke-width="0.00026"></path>
<path d="M1.452 0.492 Q1.073 0.507 1.018 0.695" stroke="hsl(0.0,100%,35%)" stroke-width="0.00051"></path>
<path d="M1.452 0.492 Q0.805 0.405 0.494 0.701" stroke="hsl(0.0,100%,35%)" stroke-width="0.00026"></path>
<path d="M1.096 0.030 Q1.180 0.057 1.251 0.022" stroke="hsl(0.0,100%,35%)" stroke-width="0.00128"></path>
<path d="M1.096 0.030 Q0.660 0.039 0.583 0.254" stroke="hsl(0.0,100%,35%)" stroke-width="0.00128"></path>
<path d="M1.096 0.030 Q0.258 0.245 0.494 0.701" stroke="hsl(0.0,100%,35%)" stroke-width="0.00051"></path>
<path d="M0.494 0.701 Q0.595 0.768 0.748 0.734" stroke="hsl(0.0,100%,35%)" stroke-width="0.00026"></path>
<path d="M0.494 0.701 Q1.001 0.606 0.926 0.337" stroke="hsl(0.0,100%,35%)" stroke-width="0.00231"></path>
<path d="M0.494 0.701 Q0.896 0.495 0.583 0.254" stroke="hsl(0.0,100%,35%)" stroke-width="0.00642"></path>
<path d="M0.494 0.701 Q0.967 0.626 0.923 0.378" stroke="hsl(0.0,100%,35%)" stroke-width="0.00180"></path>
<path d="M0.494 0.701 Q1.140 0.788 1.452 0.492" stroke="hsl(0.0,100%,35%)" stroke-width="0.00128"></path>
<path d="M0.494 0.701 Q0.546 0.762 0.676 0.750" stroke="hsl(0.0,100%,35%)" stroke-width="0.00026"></path>
<path d="M0.494 0.701 Q0.830 0.636 0.776 0.458" stroke="hsl(0.0,100%,35%)" stroke-width="0.00103"></path>
<path d="M0.494 0.701 Q0.641 0.626 0.526 0.538" stroke="hsl(0.0,100%,35%)" stroke-width="0.00026"></path>
<path d="M0.494 0.701 Q0.656 0.476 0.253 0.348" stroke="hsl(0.0,100%,35%)" stroke-width="0.00180"></path>
<path d="M0.494 0.701 Q0.666 0.607 0.519 0.502" stroke="hsl(0.0,100%,35%)" stroke-width="0.00026"></path>
<path d="M0.494 0.701 Q1.068 0.690 1.172 0.408" stroke="hsl(0.0,100%,35%)" stroke-width="0.00026"></path>
<path d="M0.494 0.701 Q0.462 0.825 0.696 0.868" stroke="hsl(0.0,100%,35%)" stroke-width="0.00026"></path>
<path d="M0.494 0.701 Q0.773 0.545 0.529 0.374" stroke="hsl(0.0,100%,35%)" stroke-width="0.00051"></path>
<path d="M0.494 0.701 Q1.216 0.527 1.033 0.136" stroke="hsl(0.0,100%,35%)" stroke-width="0.00026"></path>
<path d="M0.790 0.029 Q0.506 0.100 0.583 0.254" stroke="hsl(0.0,100%,35%)" stroke-width="0.00103"></path>
<path d="M0.790 0.029 Q0.611 0.210 0.926 0.337" stroke="hsl(0.0,100%,35%)" stroke-width="0.00077"></path>
<path d="M0.790 0.029 Q0.439 0.240 0.776 0.458" stroke="hsl(0.0,100%,35%)" stroke-width="0.00026"></path>
<path d="M0.776 0.458 Q0.842 0.317 0.583 0.254" stroke="hsl(0.0,100%,35%)" stroke-width="0.01515"></path>
<path d="M0.776 0.458 Q0.947 0.427 0.926 0.337" stroke="hsl(0.0,100%,35%)" stroke-width="0.00950"></path>
<path d="M0.776 0.458 Q0.707 0.625 1.018 0.695" stroke="hsl(0.0,100%,35%)" stroke-width="0.00719"></path>
<path d="M0.776 0.458 Q1.019 0.465 1.087 0.348" stroke="hsl(0.0,100%,35%)" stroke-width="0.00180"></path>
<path d="M0.776 0.458 Q0.995 0.465 1.057 0.359" stroke="hsl(0.0,100%,35%)" stroke-width="0.00026"></path>
<path d="M0.776 0.458 Q0.719 0.367 0.529 0.374" stroke="hsl(0.0,100%,35%)" stroke-width="0.00385"></path>
<path d="M0.776 0.458 Q0.328 0.581 0.470 0.826" stroke="hsl(0.0,100%,35%)" stroke-width="0.00051"></path>
<path d="M0.776 0.458 Q0.440 0.523 0.494 0.701" stroke="hsl(0.0,100%,35%)" stroke-width="0.00385"></path>
<path d="M0.776 0.458 Q1.162 0.348 1.033 0.136" stroke="hsl(0.0,100%,35%)" stroke-width="0.00077"></path>
<path d="M0.815 0.077 Q0.557 0.119 0.583 0.254" stroke="hsl(0.0,100%,35%)" stroke-width="0.00154"></path>
<path d="M0.815 0.077 Q0.662 0.229 0.926 0.337" stroke="hsl(0.0,100%,35%)" stroke-width="0.00180"></path>
<path d="M0.815 0.077 Q0.729 0.314 1.172 0.408" stroke="hsl(0.0,100%,35%)" stroke-width="0.00026"></path>
<path d="M0.815 0.077 Q1.021 0.160 1.228 0.078" stroke="hsl(0.0,100%,35%)" stroke-width="0.00026"></path>
<path d="M0.815 0.077 Q0.926 0.139 1.071 0.099" stroke="hsl(0.0,100%,35%)" stroke-width="0.00026"></path>
<path d="M0.815 0.077 Q0.733 0.267 1.087 0.348" stroke="hsl(0.0,100%,35%)" stroke-width="0.00026"></path>
<path d="M1.172 0.408 Q1.106 0.323 0.926 0.337" stroke="hsl(0.0,100%,35%)" stroke-width="0.01925"></path>
<path d="M1.172 0.408 Q0.878 0.263 0.529 0.374" stroke="hsl(0.0,100%,35%)" stroke-width="0.00051"></path>
<path d="M1.172 0.408 Q1.001 0.213 0.583 0.254" stroke="hsl(0.0,100%,35%)" stroke-width="0.01951"></path>
<path d="M1.172 0.408 Q0.934 0.354 0.776 0.458" stroke="hsl(0.0,100%,35%)" stroke-width="0.00154"></path>
<path d="M1.172 0.408 Q0.598 0.419 0.494 0.701" stroke="hsl(0.0,100%,35%)" stroke-width="0.00051"></path>
<path d="M1.087 0.348 Q1.063 0.348 1.057 0.359" stroke="hsl(0.0,100%,35%)" stroke-width="0.00026"></path>
<path d="M1.087 0.348 Q0.396 0.464 0.470 0.826" stroke="hsl(0.0,100%,35%)" stroke-width="0.00026"></path>
<path d="M1.087 0.348 Q1.015 0.311 0.926 0.337" stroke="hsl(0.0,100%,35%)" stroke-width="0.00488"></path>
<path d="M1.087 0.348 Q0.787 0.250 0.529 0.374" stroke="hsl(0.0,100%,35%)" stroke-width="0.00051"></path>
<path d="M1.087 0.348 Q0.681 0.248 0.395 0.424" stroke="hsl(0.0,100%,35%)" stroke-width="0.00026"></path>
<path d="M1.087 0.348 Q0.844 0.341 0.776 0.458" stroke="hsl(0.0,100%,35%)" stroke-width="0.00334"></path>
<path d="M1.087 0.348 Q0.910 0.200 0.583 0.254" stroke="hsl(0.0,100%,35%)" stroke-width="0.00308"></path>
<path d="M1.087 0.348 Q0.913 0.308 0.797 0.384" stroke="hsl(0.0,100%,35%)" stroke-width="0.00026"></path>
<path d="M1.087 0.348 Q1.230 0.231 1.033 0.136" stroke="hsl(0.0,100%,35%)" stroke-width="0.00180"></path>
<path d="M1.087 0.348 Q0.775 0.508 1.018 0.695" stroke="hsl(0.0,100%,35%)" stroke-width="0.00308"></path>
<path d="M1.087 0.348 Q0.508 0.406 0.494 0.701" stroke="hsl(0.0,100%,35%)" stroke-width="0.00077"></path>
<path d="M1.087 0.348 Q1.457 0.015 0.887 -0.239" stroke="hsl(0.0,100%,35%)" stroke-width="0.00026"></path>
<path d="M1.087 0.348 Q1.216 0.200 0.954 0.104" stroke="hsl(0.0,100%,35%)" stroke-width="0.00077"></path>
<path d="M1.087 0.348 Q1.154 0.493 1.452 0.492" stroke="hsl(0.0,100%,35%)" stroke-width="0.00026"></path>
<path d="M0.378 0.379 Q0.686 0.468 0.926 0.337" stroke="hsl(0.0,100%,35%)" stroke-width="0.00667"></path>
<path d="M0.378 0.379 Q0.581 0.358 0.583 0.254" stroke="hsl(0.0,100%,35%)" stroke-width="0.00642"></path>
<path d="M0.378 0.379 Q0.514 0.498 0.776 0.458" stroke="hsl(0.0,100%,35%)" stroke-width="0.00205"></path>
<path d="M0.378 0.379 Q0.752 0.553 1.172 0.408" stroke="hsl(0.0,100%,35%)" stroke-width="0.00026"></path>
<path d="M1.173 0.071 Q0.329 0.250 0.494 0.701" stroke="hsl(0.0,100%,35%)" stroke-width="0.00026"></path>
<path d="M1.173 0.071 Q0.731 0.044 0.583 0.254" stroke="hsl(0.0,100%,35%)" stroke-width="0.00026"></path>
<path d="M1.173 0.071 Q0.836 0.154 0.926 0.337" stroke="hsl(0.0,100%,35%)" stroke-width="0.00026"></path>
<path d="M0.395 0.424 Q0.502 0.426 0.529 0.374" stroke="hsl(0.0,100%,35%)" stroke-width="0.00411"></path>
<path d="M0.395 0.424 Q0.222 0.582 0.494 0.701" stroke="hsl(0.0,100%,35%)" stroke-width="0.00026"></path>
<path d="M0.395 0.424 Q0.490 0.684 1.018 0.695" stroke="hsl(0.0,100%,35%)" stroke-width="0.00026"></path>
<path d="M0.395 0.424 Q0.625 0.376 0.583 0.254" stroke="hsl(0.0,100%,35%)" stroke-width="0.00436"></path>
<path d="M0.395 0.424 Q0.730 0.487 0.926 0.337" stroke="hsl(0.0,100%,35%)" stroke-width="0.00257"></path>
<path d="M0.395 0.424 Q0.558 0.517 0.776 0.458" stroke="hsl(0.0,100%,35%)" stroke-width="0.00154"></path>
<path d="M1.018 0.695 Q1.258 0.498 0.926 0.337" stroke="hsl(0.0,100%,35%)" stroke-width="0.00385"></path>
<path d="M1.018 0.695 Q0.990 0.429 0.466 0.385" stroke="hsl(0.0,100%,35%)" stroke-width="0.00026"></path>
<path d="M1.018 0.695 Q1.153 0.387 0.583 0.254" stroke="hsl(0.0,100%,35%)" stroke-width="0.02054"></path>
<path d="M1.018 0.695 Q1.087 0.528 0.776 0.458" stroke="hsl(0.0,100%,35%)" stroke-width="0.01592"></path>
<path d="M1.018 0.695 Q1.330 0.535 1.087 0.348" stroke="hsl(0.0,100%,35%)" stroke-width="0.00051"></path>
<path d="M1.018 0.695 Q0.923 0.435 0.395 0.424" stroke="hsl(0.0,100%,35%)" stroke-width="0.00077"></path>
<path d="M1.018 0.695 Q1.473 0.418 1.033 0.136" stroke="hsl(0.0,100%,35%)" stroke-width="0.00051"></path>
<path d="M1.018 0.695 Q1.713 0.751 1.975 0.424" stroke="hsl(0.0,100%,35%)" stroke-width="0.00026"></path>
<path d="M1.018 0.695 Q1.325 0.582 1.172 0.408" stroke="hsl(0.0,100%,35%)" stroke-width="0.00051"></path>
<path d="M1.018 0.695 Q1.030 0.437 0.529 0.374" stroke="hsl(0.0,100%,35%)" stroke-width="0.00051"></path>
<path d="M1.018 0.695 Q1.117 0.747 1.240 0.710" stroke="hsl(0.0,100%,35%)" stroke-width="0.00026"></path>
<path d="M0.570 0.459 Q0.618 0.409 0.529 0.374" stroke="hsl(0.0,100%,35%)" stroke-width="0.00026"></path>
<path d="M0.570 0.459 Q0.846 0.469 0.926 0.337" stroke="hsl(0.0,100%,35%)" stroke-width="0.00154"></path>
<path d="M0.570 0.459 Q0.741 0.359 0.583 0.254" stroke="hsl(0.0,100%,35%)" stroke-width="0.00128"></path>
<path d="M0.570 0.459 Q0.485 0.490 0.526 0.538" stroke="hsl(0.0,100%,35%)" stroke-width="0.00026"></path>
<path d="M0.570 0.459 Q0.674 0.500 0.776 0.458" stroke="hsl(0.0,100%,35%)" stroke-width="0.00026"></path>
<path d="M0.466 0.385 Q0.629 0.343 0.583 0.254" stroke="hsl(0.0,100%,35%)" stroke-width="0.00154"></path>
<path d="M0.466 0.385 Q0.734 0.453 0.926 0.337" stroke="hsl(0.0,100%,35%)" stroke-width="0.00026"></path>
<path d="M0.466 0.385 Q0.226 0.549 0.494 0.701" stroke="hsl(0.0,100%,35%)" stroke-width="0.00051"></path>
<path d="M1.033 0.136 Q0.481 0.173 0.433 0.451" stroke="hsl(0.0,100%,35%)" stroke-width="0.00051"></path>
<path d="M1.033 0.136 Q0.714 0.105 0.583 0.254" stroke="hsl(0.0,100%,35%)" stroke-width="0.01361"></path>
<path d="M1.033 0.136 Q0.819 0.215 0.926 0.337" stroke="hsl(0.0,100%,35%)" stroke-width="0.00128"></path>
<path d="M1.033 0.136 Q0.958 0.398 1.452 0.492" stroke="hsl(0.0,100%,35%)" stroke-width="0.00026"></path>
<path d="M1.033 0.136 Q0.647 0.245 0.776 0.458" stroke="hsl(0.0,100%,35%)" stroke-width="0.00026"></path>
<path d="M1.033 0.136 Q0.890 0.253 1.087 0.348" stroke="hsl(0.0,100%,35%)" stroke-width="0.00077"></path>
<path d="M1.033 0.136 Q0.474 0.086 0.253 0.348" stroke="hsl(0.0,100%,35%)" stroke-width="0.00077"></path>
<path d="M1.033 0.136 Q0.575 0.594 1.369 0.919" stroke="hsl(0.0,100%,35%)" stroke-width="0.00026"></path>
<path d="M0.869 0.051 Q0.564 0.095 0.583 0.254" stroke="hsl(0.0,100%,35%)" stroke-width="0.00051"></path>
<path d="M0.869 0.051 Q0.669 0.206 0.926 0.337" stroke="hsl(0.0,100%,35%)" stroke-width="0.00051"></path>
<path d="M0.869 0.051 Q0.884 0.126 1.033 0.136" stroke="hsl(0.0,100%,35%)" stroke-width="0.00026"></path>
<path d="M0.923 0.378 Q0.957 0.358 0.926 0.337" stroke="hsl(0.0,100%,35%)" stroke-width="0.00462"></path>
<path d="M0.923 0.378 Q0.852 0.248 0.583 0.254" stroke="hsl(0.0,100%,35%)" stroke-width="0.00436"></path>
<path d="M0.923 0.378 Q0.450 0.454 0.494 0.701" stroke="hsl(0.0,100%,35%)" stroke-width="0.00462"></path>
<path d="M0.923 0.378 Q0.613 0.229 0.253 0.348" stroke="hsl(0.0,100%,35%)" stroke-width="0.00103"></path>
<path d="M0.923 0.378 Q1.096 0.541 1.452 0.492" stroke="hsl(0.0,100%,35%)" stroke-width="0.00026"></path>
<path d="M0.253 0.348 Q0.598 0.477 0.926 0.337" stroke="hsl(0.0,100%,35%)" stroke-width="0.00282"></path>
<path d="M0.253 0.348 Q0.090 0.573 0.494 0.701" stroke="hsl(0.0,100%,35%)" stroke-width="0.00231"></path>
<path d="M0.253 0.348 Q0.737 0.660 1.452 0.492" stroke="hsl(0.0,100%,35%)" stroke-width="0.00180"></path>
<path d="M0.253 0.348 Q0.493 0.367 0.583 0.254" stroke="hsl(0.0,100%,35%)" stroke-width="0.00513"></path>
<path d="M0.253 0.348 Q0.813 0.398 1.033 0.136" stroke="hsl(0.0,100%,35%)" stroke-width="0.00154"></path>
<path d="M0.253 0.348 Q0.881 0.713 1.731 0.487" stroke="hsl(0.0,100%,35%)" stroke-width="0.00077"></path>
<path d="M0.253 0.348 Q0.426 0.507 0.776 0.458" stroke="hsl(0.0,100%,35%)" stroke-width="0.00026"></path>
<path d="M0.253 0.348 Q0.358 0.674 1.018 0.695" stroke="hsl(0.0,100%,35%)" stroke-width="0.00026"></path>
<path d="M0.519 0.502 Q1.020 0.773 1.658 0.588" stroke="hsl(0.0,100%,35%)" stroke-width="0.00128"></path>
<path d="M0.519 0.502 Q0.994 0.684 1.452 0.492" stroke="hsl(0.0,100%,35%)" stroke-width="0.00411"></path>
<path d="M0.519 0.502 Q0.855 0.501 0.926 0.337" stroke="hsl(0.0,100%,35%)" stroke-width="0.00128"></path>
<path d="M0.519 0.502 Q0.750 0.391 0.583 0.254" stroke="hsl(0.0,100%,35%)" stroke-width="0.00873"></path>
<path d="M0.519 0.502 Q1.138 0.737 1.731 0.487" stroke="hsl(0.0,100%,35%)" stroke-width="0.00026"></path>
<path d="M0.519 0.502 Q1.070 0.422 1.033 0.136" stroke="hsl(0.0,100%,35%)" stroke-width="0.00026"></path>
<path d="M0.519 0.502 Q0.347 0.597 0.494 0.701" stroke="hsl(0.0,100%,35%)" stroke-width="0.00231"></path>
<path d="M0.519 0.502 Q0.427 0.531 0.462 0.582" stroke="hsl(0.0,100%,35%)" stroke-width="0.00077"></path>
<path d="M0.519 0.502 Q0.510 0.372 0.253 0.348" stroke="hsl(0.0,100%,35%)" stroke-width="0.00051"></path>
<path d="M0.732 0.586 Q0.923 0.390 0.583 0.254" stroke="hsl(0.0,100%,35%)" stroke-width="0.03800"></path>
<path d="M0.732 0.586 Q0.788 0.698 1.018 0.695" stroke="hsl(0.0,100%,35%)" stroke-width="0.02721"></path>
<path d="M0.732 0.586 Q0.856 0.531 0.776 0.458" stroke="hsl(0.0,100%,35%)" stroke-width="0.00103"></path>
<path d="M0.732 0.586 Q0.683 0.371 0.253 0.348" stroke="hsl(0.0,100%,35%)" stroke-width="0.00026"></path>
<path d="M0.732 0.586 Q1.028 0.500 0.926 0.337" stroke="hsl(0.0,100%,35%)" stroke-width="0.00026"></path>
<path d="M0.732 0.586 Q0.521 0.596 0.494 0.701" stroke="hsl(0.0,100%,35%)" stroke-width="0.00051"></path>
<path d="M1.731 0.487 Q1.344 0.141 0.583 0.254" stroke="hsl(0.0,100%,35%)" stroke-width="0.00334"></path>
<path d="M1.731 0.487 Q1.588 0.434 1.452 0.492" stroke="hsl(0.0,100%,35%)" stroke-width="0.00976"></path>
<path d="M1.731 0.487 Q1.614 0.523 1.658 0.588" stroke="hsl(0.0,100%,35%)" stroke-width="0.00154"></path>
<path d="M1.731 0.487 Q1.448 0.251 0.926 0.337" stroke="hsl(0.0,100%,35%)" stroke-width="0.00462"></path>
<path d="M1.731 0.487 Q1.663 0.172 1.033 0.136" stroke="hsl(0.0,100%,35%)" stroke-width="0.00103"></path>
<path d="M1.731 0.487 Q1.104 0.122 0.253 0.348" stroke="hsl(0.0,100%,35%)" stroke-width="0.00077"></path>
<path d="M1.731 0.487 Q0.941 0.347 0.494 0.701" stroke="hsl(0.0,100%,35%)" stroke-width="0.00051"></path>
<path d="M1.731 0.487 Q1.903 0.504 1.975 0.424" stroke="hsl(0.0,100%,35%)" stroke-width="0.00026"></path>
<path d="M1.658 0.588 Q1.632 0.499 1.452 0.492" stroke="hsl(0.0,100%,35%)" stroke-width="0.00539"></path>
<path d="M1.658 0.588 Q1.492 0.316 0.926 0.337" stroke="hsl(0.0,100%,35%)" stroke-width="0.00103"></path>
<path d="M1.658 0.588 Q1.775 0.552 1.731 0.487" stroke="hsl(0.0,100%,35%)" stroke-width="0.00308"></path>
<path d="M1.658 0.588 Q0.985 0.412 0.494 0.701" stroke="hsl(0.0,100%,35%)" stroke-width="0.00205"></path>
<path d="M1.658 0.588 Q1.157 0.317 0.519 0.502" stroke="hsl(0.0,100%,35%)" stroke-width="0.00103"></path>
<path d="M1.658 0.588 Q1.388 0.206 0.583 0.254" stroke="hsl(0.0,100%,35%)" stroke-width="0.00026"></path>
<path d="M1.658 0.588 Q1.321 0.346 0.776 0.458" stroke="hsl(0.0,100%,35%)" stroke-width="0.00026"></path>
<path d="M1.658 0.588 Q1.064 0.346 0.462 0.582" stroke="hsl(0.0,100%,35%)" stroke-width="0.00051"></path>
<path d="M1.658 0.588 Q1.148 0.187 0.253 0.348" stroke="hsl(0.0,100%,35%)" stroke-width="0.00180"></path>
<path d="M0.442 0.452 Q0.776 0.491 0.926 0.337" stroke="hsl(0.0,100%,35%)" stroke-width="0.00051"></path>
<path d="M0.442 0.452 Q0.548 0.431 0.529 0.374" stroke="hsl(0.0,100%,35%)" stroke-width="0.00077"></path>
<path d="M0.442 0.452 Q0.441 0.428 0.395 0.424" stroke="hsl(0.0,100%,35%)" stroke-width="0.00026"></path>
<path d="M0.442 0.452 Q0.536 0.689 1.018 0.695" stroke="hsl(0.0,100%,35%)" stroke-width="0.00026"></path>
<path d="M1.552 0.780 Q1.349 0.813 1.369 0.919" stroke="hsl(0.0,100%,35%)" stroke-width="0.00051"></path>
<path d="M1.552 0.780 Q1.593 0.433 0.926 0.337" stroke="hsl(0.0,100%,35%)" stroke-width="0.00026"></path>
<path d="M1.552 0.780 Q1.488 0.323 0.583 0.254" stroke="hsl(0.0,100%,35%)" stroke-width="0.00026"></path>
<path d="M0.470 0.826 Q0.466 0.765 0.346 0.753" stroke="hsl(0.0,100%,35%)" stroke-width="0.00026"></path>
<path d="M0.470 0.826 Q1.089 0.673 0.926 0.337" stroke="hsl(0.0,100%,35%)" stroke-width="0.00051"></path>
<path d="M0.470 0.826 Q0.861 0.612 0.529 0.374" stroke="hsl(0.0,100%,35%)" stroke-width="0.00026"></path>
<path d="M0.470 0.826 Q0.984 0.562 0.583 0.254" stroke="hsl(0.0,100%,35%)" stroke-width="0.00051"></path>
<path d="M0.470 0.826 Q0.581 0.768 0.494 0.701" stroke="hsl(0.0,100%,35%)" stroke-width="0.00051"></path>
<path d="M0.470 0.826 Q0.917 0.703 0.776 0.458" stroke="hsl(0.0,100%,35%)" stroke-width="0.00051"></path>
<path d="M0.470 0.826 Q0.311 0.819 0.261 0.895" stroke="hsl(0.0,100%,35%)" stroke-width="0.00026"></path>
<path d="M0.797 0.384 Q0.659 0.584 1.018 0.695" stroke="hsl(0.0,100%,35%)" stroke-width="0.00128"></path>
<path d="M0.797 0.384 Q0.899 0.387 0.926 0.337" stroke="hsl(0.0,100%,35%)" stroke-width="0.00257"></path>
<path d="M0.797 0.384 Q0.727 0.417 0.776 0.458" stroke="hsl(0.0,100%,35%)" stroke-width="0.00180"></path>
<path d="M0.797 0.384 Q0.564 0.324 0.395 0.424" stroke="hsl(0.0,100%,35%)" stroke-width="0.00026"></path>
<path d="M0.797 0.384 Q0.671 0.326 0.529 0.374" stroke="hsl(0.0,100%,35%)" stroke-width="0.00026"></path>
<path d="M0.797 0.384 Q0.794 0.276 0.583 0.254" stroke="hsl(0.0,100%,35%)" stroke-width="0.00128"></path>
<path d="M0.797 0.384 Q0.392 0.482 0.494 0.701" stroke="hsl(0.0,100%,35%)" stroke-width="0.00026"></path>
<path d="M0.797 0.384 Q0.971 0.424 1.087 0.348" stroke="hsl(0.0,100%,35%)" stroke-width="0.00026"></path>
<path d="M0.954 0.104 Q0.825 0.253 1.087 0.348" stroke="hsl(0.0,100%,35%)" stroke-width="0.00103"></path>
<path d="M0.954 0.104 Q0.753 0.215 0.926 0.337" stroke="hsl(0.0,100%,35%)" stroke-width="0.00026"></path>
<path d="M0.954 0.104 Q0.513 0.412 1.018 0.695" stroke="hsl(0.0,100%,35%)" stroke-width="0.00051"></path>
<path d="M0.954 0.104 Q0.648 0.105 0.583 0.254" stroke="hsl(0.0,100%,35%)" stroke-width="0.00026"></path>
<path d="M0.214 0.630 Q0.699 0.516 0.583 0.254" stroke="hsl(0.0,100%,35%)" stroke-width="0.00231"></path>
<path d="M0.214 0.630 Q0.804 0.626 0.926 0.337" stroke="hsl(0.0,100%,35%)" stroke-width="0.00308"></path>
<path d="M0.214 0.630 Q0.296 0.722 0.494 0.701" stroke="hsl(0.0,100%,35%)" stroke-width="0.00051"></path>
<path d="M0.233 0.672 Q0.847 0.643 0.926 0.337" stroke="hsl(0.0,100%,35%)" stroke-width="0.00026"></path>
<path d="M0.233 0.672 Q0.742 0.533 0.583 0.254" stroke="hsl(0.0,100%,35%)" stroke-width="0.00103"></path>
<path d="M0.233 0.672 Q0.340 0.739 0.494 0.701" stroke="hsl(0.0,100%,35%)" stroke-width="0.00051"></path>
<path d="M1.166 0.560 Q0.984 0.598 1.018 0.695" stroke="hsl(0.0,100%,35%)" stroke-width="0.02028"></path>
<path d="M1.166 0.560 Q1.119 0.290 0.583 0.254" stroke="hsl(0.0,100%,35%)" stroke-width="0.02105"></path>
<path d="M1.166 0.560 Q1.052 0.431 0.776 0.458" stroke="hsl(0.0,100%,35%)" stroke-width="0.00077"></path>
<path d="M1.166 0.560 Q1.224 0.400 0.926 0.337" stroke="hsl(0.0,100%,35%)" stroke-width="0.00128"></path>
<path d="M1.166 0.560 Q1.290 0.485 1.172 0.408" stroke="hsl(0.0,100%,35%)" stroke-width="0.00026"></path>
<path d="M1.166 0.560 Q0.716 0.496 0.494 0.701" stroke="hsl(0.0,100%,35%)" stroke-width="0.00026"></path>
<path d="M1.913 0.237 Q1.340 0.090 0.926 0.337" stroke="hsl(0.0,100%,35%)" stroke-width="0.00026"></path>
<path d="M1.913 0.237 Q1.479 0.272 1.452 0.492" stroke="hsl(0.0,100%,35%)" stroke-width="0.00077"></path>
<path d="M1.913 0.237 Q1.505 0.361 1.658 0.588" stroke="hsl(0.0,100%,35%)" stroke-width="0.00026"></path>
<path d="M1.913 0.237 Q0.995 -0.040 0.253 0.348" stroke="hsl(0.0,100%,35%)" stroke-width="0.00026"></path>
<path d="M0.831 0.045 Q0.405 0.407 1.018 0.695" stroke="hsl(0.0,100%,35%)" stroke-width="0.01053"></path>
<path d="M0.831 0.045 Q0.540 0.100 0.583 0.254" stroke="hsl(0.0,100%,35%)" stroke-width="0.01207"></path>
<path d="M0.831 0.045 Q0.137 0.306 0.494 0.701" stroke="hsl(0.0,100%,35%)" stroke-width="0.00026"></path>
<path d="M1.702 0.266 Q1.152 0.036 0.583 0.254" stroke="hsl(0.0,100%,35%)" stroke-width="0.00026"></path>
<path d="M1.702 0.266 Q1.396 0.329 1.452 0.492" stroke="hsl(0.0,100%,35%)" stroke-width="0.00128"></path>
<path d="M1.702 0.266 Q1.830 0.294 1.913 0.237" stroke="hsl(0.0,100%,35%)" stroke-width="0.00128"></path>
<path d="M0.881 0.085 Q0.702 0.220 0.926 0.337" stroke="hsl(0.0,100%,35%)" stroke-width="0.00026"></path>
<path d="M0.881 0.085 Q0.195 0.316 0.494 0.701" stroke="hsl(0.0,100%,35%)" stroke-width="0.00026"></path>
<path d="M0.881 0.085 Q0.597 0.110 0.583 0.254" stroke="hsl(0.0,100%,35%)" stroke-width="0.00026"></path>
<path d="M0.881 0.085 Q0.531 0.250 0.776 0.458" stroke="hsl(0.0,100%,35%)" stroke-width="0.00026"></path>
<path d="M0.833 -0.050 Q0.464 0.052 0.583 0.254" stroke="hsl(0.0,100%,35%)" stroke-width="0.00103"></path>
<path d="M0.833 -0.050 Q0.225 0.033 0.253 0.348" stroke="hsl(0.0,100%,35%)" stroke-width="0.00026"></path>
<path d="M0.833 -0.050 Q0.708 0.345 1.452 0.492" stroke="hsl(0.0,100%,35%)" stroke-width="0.00026"></path>
<path d="M1.195 0.094 Q0.626 0.359 1.018 0.695" stroke="hsl(0.0,100%,35%)" stroke-width="0.00026"></path>
<path d="M1.195 0.094 Q0.638 0.101 0.529 0.374" stroke="hsl(0.0,100%,35%)" stroke-width="0.00026"></path>
<path d="M1.195 0.094 Q1.081 0.082 1.033 0.136" stroke="hsl(0.0,100%,35%)" stroke-width="0.00026"></path>
<path d="M1.195 0.094 Q0.761 0.051 0.583 0.254" stroke="hsl(0.0,100%,35%)" stroke-width="0.00026"></path>
<path d="M1.195 0.094 Q0.866 0.162 0.926 0.337" stroke="hsl(0.0,100%,35%)" stroke-width="0.00026"></path>
<path d="M1.080 0.465 Q1.106 0.370 0.926 0.337" stroke="hsl(0.0,100%,35%)" stroke-width="0.00103"></path>
<path d="M1.080 0.465 Q0.761 0.241 0.253 0.348" stroke="hsl(0.0,100%,35%)" stroke-width="0.00051"></path>
<path d="M1.080 0.465 Q1.320 0.291 1.033 0.136" stroke="hsl(0.0,100%,35%)" stroke-width="0.00026"></path>
<path d="M1.080 0.465 Q0.598 0.466 0.494 0.701" stroke="hsl(0.0,100%,35%)" stroke-width="0.00051"></path>
<path d="M1.430 0.147 Q0.921 0.031 0.583 0.254" stroke="hsl(0.0,100%,35%)" stroke-width="0.00026"></path>
<path d="M1.430 0.147 Q1.441 0.049 1.251 0.022" stroke="hsl(0.0,100%,35%)" stroke-width="0.00026"></path>
<path d="M1.430 0.147 Q0.519 0.237 0.494 0.701" stroke="hsl(0.0,100%,35%)" stroke-width="0.00026"></path>
<path d="M0.907 0.091 Q0.614 0.107 0.583 0.254" stroke="hsl(0.0,100%,35%)" stroke-width="0.00103"></path>
<path d="M0.907 0.091 Q0.719 0.218 0.926 0.337" stroke="hsl(0.0,100%,35%)" stroke-width="0.00231"></path>
<path d="M0.907 0.091 Q0.475 0.597 1.369 0.919" stroke="hsl(0.0,100%,35%)" stroke-width="0.00026"></path>
<path d="M0.907 0.091 Q0.212 0.313 0.494 0.701" stroke="hsl(0.0,100%,35%)" stroke-width="0.00026"></path>
<path d="M0.704 0.887 Q0.748 0.752 0.494 0.701" stroke="hsl(0.0,100%,35%)" stroke-width="0.00103"></path>
<path d="M0.704 0.887 Q1.812 0.744 1.774 0.172" stroke="hsl(0.0,100%,35%)" stroke-width="0.00026"></path>
<path d="M0.704 0.887 Q1.150 0.546 0.583 0.254" stroke="hsl(0.0,100%,35%)" stroke-width="0.00051"></path>
<path d="M0.704 0.887 Q1.255 0.657 0.926 0.337" stroke="hsl(0.0,100%,35%)" stroke-width="0.00026"></path>
<path d="M1.028 0.097 Q0.784 0.196 0.926 0.337" stroke="hsl(0.0,100%,35%)" stroke-width="0.00205"></path>
<path d="M1.028 0.097 Q0.680 0.086 0.583 0.254" stroke="hsl(0.0,100%,35%)" stroke-width="0.00077"></path>
<path d="M1.028 0.097 Q0.613 0.227 0.776 0.458" stroke="hsl(0.0,100%,35%)" stroke-width="0.00026"></path>
<path d="M0.935 0.057 Q0.921 0.116 1.033 0.136" stroke="hsl(0.0,100%,35%)" stroke-width="0.00077"></path>
<path d="M0.935 0.057 Q0.845 0.378 1.452 0.492" stroke="hsl(0.0,100%,35%)" stroke-width="0.00051"></path>
<path d="M0.935 0.057 Q0.199 0.291 0.494 0.701" stroke="hsl(0.0,100%,35%)" stroke-width="0.00051"></path>
<path d="M0.935 0.057 Q0.706 0.195 0.926 0.337" stroke="hsl(0.0,100%,35%)" stroke-width="0.00026"></path>
<path d="M0.670 0.800 Q0.824 0.490 0.253 0.348" stroke="hsl(0.0,100%,35%)" stroke-width="0.00026"></path>
<path d="M0.670 0.800 Q1.169 0.620 0.926 0.337" stroke="hsl(0.0,100%,35%)" stroke-width="0.00026"></path>
<path d="M0.670 0.800 Q0.661 0.715 0.494 0.701" stroke="hsl(0.0,100%,35%)" stroke-width="0.00026"></path>
<path d="M1.415 0.427 Q1.138 0.174 0.583 0.254" stroke="hsl(0.0,100%,35%)" stroke-width="0.00257"></path>
<path d="M1.415 0.427 Q1.242 0.284 0.926 0.337" stroke="hsl(0.0,100%,35%)" stroke-width="0.00231"></path>
<path d="M1.415 0.427 Q1.309 0.369 1.172 0.408" stroke="hsl(0.0,100%,35%)" stroke-width="0.00026"></path>
<path d="M1.415 0.427 Q0.735 0.380 0.494 0.701" stroke="hsl(0.0,100%,35%)" stroke-width="0.00051"></path>
<path d="M1.415 0.427 Q1.408 0.556 1.658 0.588" stroke="hsl(0.0,100%,35%)" stroke-width="0.00026"></path>
<path d="M1.415 0.427 Q1.382 0.467 1.452 0.492" stroke="hsl(0.0,100%,35%)" stroke-width="0.00026"></path>
<path d="M1.415 0.427 Q1.071 0.315 0.776 0.458" stroke="hsl(0.0,100%,35%)" stroke-width="0.00026"></path>
<path d="M0.433 0.451 Q0.666 0.382 0.583 0.254" stroke="hsl(0.0,100%,35%)" stroke-width="0.00308"></path>
<path d="M0.433 0.451 Q0.263 0.588 0.494 0.701" stroke="hsl(0.0,100%,35%)" stroke-width="0.00205"></path>
<path d="M0.433 0.451 Q0.770 0.493 0.926 0.337" stroke="hsl(0.0,100%,35%)" stroke-width="0.00103"></path>
<path d="M0.433 0.451 Q0.426 0.363 0.253 0.348" stroke="hsl(0.0,100%,35%)" stroke-width="0.00077"></path>
<path d="M0.433 0.451 Q0.910 0.675 1.452 0.492" stroke="hsl(0.0,100%,35%)" stroke-width="0.00026"></path>
<path d="M0.433 0.451 Q0.530 0.690 1.018 0.695" stroke="hsl(0.0,100%,35%)" stroke-width="0.00026"></path>
<path d="M1.074 0.084 Q0.692 0.070 0.583 0.254" stroke="hsl(0.0,100%,35%)" stroke-width="0.00051"></path>
<path d="M1.074 0.084 Q0.797 0.181 0.926 0.337" stroke="hsl(0.0,100%,35%)" stroke-width="0.00077"></path>
<path d="M1.074 0.084 Q0.864 0.265 1.172 0.408" stroke="hsl(0.0,100%,35%)" stroke-width="0.00026"></path>
<path d="M1.529 0.109 Q0.537 0.198 0.494 0.701" stroke="hsl(0.0,100%,35%)" stroke-width="0.00026"></path>
<path d="M1.529 0.109 Q1.601 0.189 1.774 0.172" stroke="hsl(0.0,100%,35%)" stroke-width="0.00026"></path>
<path d="M1.529 0.109 Q0.940 -0.008 0.583 0.254" stroke="hsl(0.0,100%,35%)" stroke-width="0.00026"></path>
<path d="M0.308 0.556 Q0.792 0.570 0.926 0.337" stroke="hsl(0.0,100%,35%)" stroke-width="0.00026"></path>
<path d="M0.308 0.556 Q0.687 0.460 0.583 0.254" stroke="hsl(0.0,100%,35%)" stroke-width="0.00026"></path>
<path d="M0.308 0.556 Q0.285 0.666 0.494 0.701" stroke="hsl(0.0,100%,35%)" stroke-width="0.00026"></path>
</g>
<text x="1.057" y="0.353" font-size="0.011850" fill="hsl(0.0,100%,20%)">abdolrashidi</text>
<text x="0.926" y="0.297" font-size="0.080555" fill="hsl(0.0,100%,20%)">syoussefi</text>
<text x="0.583" y="0.203" font-size="0.100874" fill="hsl(0.0,100%,20%)">jmadill</text>
<text x="0.529" y="0.353" font-size="0.043136" fill="hsl(0.0,100%,20%)">cclao</text>
<text x="1.452" y="0.477" font-size="0.029128" fill="hsl(0.0,100%,20%)">kbr</text>
<text x="1.096" y="0.026" font-size="0.008380" fill="hsl(0.0,100%,20%)">adkushwa</text>
<text x="1.251" y="0.019" font-size="0.005925" fill="hsl(0.0,100%,20%)">rafael.cintron</text>
<text x="0.494" y="0.684" font-size="0.035304" fill="hsl(0.0,100%,20%)">geofflang</text>
<text x="0.790" y="0.025" font-size="0.006842" fill="hsl(0.0,100%,20%)">amy.liu</text>
<text x="0.776" y="0.427" font-size="0.061814" fill="hsl(0.0,100%,20%)">timvp</text>
<text x="0.815" y="0.072" font-size="0.009974" fill="hsl(0.0,100%,20%)">antonio.caggiano</text>
<text x="1.172" y="0.392" font-size="0.032091" fill="hsl(0.0,100%,20%)">m.maiya</text>
<text x="1.228" y="0.077" font-size="0.002419" fill="hsl(0.0,100%,20%)">jvigilsamsung</text>
<text x="1.071" y="0.097" font-size="0.002419" fill="hsl(0.0,100%,20%)">constantine.shablya</text>
<text x="1.087" y="0.334" font-size="0.028724" fill="hsl(0.0,100%,20%)">ianelliott</text>
<text x="0.378" y="0.370" font-size="0.018737" fill="hsl(0.0,100%,20%)">b.schade</text>
<text x="1.173" y="0.069" font-size="0.004190" fill="hsl(0.0,100%,20%)">capn</text>
<text x="0.395" y="0.414" font-size="0.018893" fill="hsl(0.0,100%,20%)">lfy</text>
<text x="1.018" y="0.666" font-size="0.058707" fill="hsl(0.0,100%,20%)">cnorthrop</text>
<text x="0.570" y="0.455" font-size="0.009051" fill="hsl(0.0,100%,20%)">cheryl.wei</text>
<text x="0.526" y="0.536" font-size="0.004190" fill="hsl(0.0,100%,20%)">sunny.sun</text>
<text x="0.466" y="0.380" font-size="0.008380" fill="hsl(0.0,100%,20%)">romanl</text>
<text x="1.033" y="0.118" font-size="0.036204" fill="hsl(0.0,100%,20%)">ynovikov</text>
<text x="1.975" y="0.423" font-size="0.003421" fill="hsl(0.0,100%,20%)">bajones</text>
<text x="1.240" y="0.709" font-size="0.002419" fill="hsl(0.0,100%,20%)">paulthomson</text>
<text x="0.869" y="0.049" font-size="0.005409" fill="hsl(0.0,100%,20%)">cwallez</text>
<text x="0.748" y="0.733" font-size="0.002419" fill="hsl(0.0,100%,20%)">zmo</text>
<text x="0.923" y="0.368" font-size="0.019800" fill="hsl(0.0,100%,20%)">penghuang</text>
<text x="0.676" y="0.749" font-size="0.002419" fill="hsl(0.0,100%,20%)">junov</text>
<text x="0.253" y="0.334" font-size="0.028002" fill="hsl(0.0,100%,20%)">jonahr</text>
<text x="0.519" y="0.491" font-size="0.021905" fill="hsl(0.0,100%,20%)">lexa.knyazev</text>
<text x="0.696" y="0.866" font-size="0.002419" fill="hsl(0.0,100%,20%)">vikassoni</text>
<text x="0.732" y="0.566" font-size="0.039600" fill="hsl(0.0,100%,20%)">gert.wollny</text>
<text x="1.731" y="0.475" font-size="0.024430" fill="hsl(0.0,100%,20%)">gman</text>
<text x="1.658" y="0.577" font-size="0.020809" fill="hsl(0.0,100%,20%)">kpiddington</text>
<text x="0.442" y="0.449" font-size="0.006400" fill="hsl(0.0,100%,20%)">hailinzhang</text>
<text x="1.552" y="0.778" font-size="0.004838" fill="hsl(0.0,100%,20%)">hans</text>
<text x="1.369" y="0.916" font-size="0.005409" fill="hsl(0.0,100%,20%)">thakis</text>
<text x="0.470" y="0.821" font-size="0.009051" fill="hsl(0.0,100%,20%)">natsu</text>
<text x="0.797" y="0.376" font-size="0.016046" fill="hsl(0.0,100%,20%)">yuxinhu</text>
<text x="0.887" y="-0.240" font-size="0.002419" fill="hsl(0.0,100%,20%)">vantablack</text>
<text x="0.954" y="0.100" font-size="0.008023" fill="hsl(0.0,100%,20%)">mark</text>
<text x="0.214" y="0.624" font-size="0.011601" fill="hsl(0.0,100%,20%)">j.vigil</text>
<text x="0.233" y="0.669" font-size="0.006842" fill="hsl(0.0,100%,20%)">jgilbert</text>
<text x="1.166" y="0.544" font-size="0.031724" fill="hsl(0.0,100%,20%)">lubosz.sarnecki</text>
<text x="0.398" y="0.430" font-size="0.004190" fill="hsl(0.0,100%,20%)">bsheedy</text>
<text x="0.762" y="0.082" font-size="0.002419" fill="hsl(0.0,100%,20%)">brucedawson</text>
<text x="0.525" y="0.533" font-size="0.002419" fill="hsl(0.0,100%,20%)">tandrii</text>
<text x="0.847" y="0.051" font-size="0.002419" fill="hsl(0.0,100%,20%)">dpranke</text>
<text x="0.261" y="0.893" font-size="0.004190" fill="hsl(0.0,100%,20%)">nicolascapens</text>
<text x="0.778" y="0.331" font-size="0.002419" fill="hsl(0.0,100%,20%)">doughorn</text>
<text x="1.913" y="0.233" font-size="0.008023" fill="hsl(0.0,100%,20%)">johncunningham</text>
<text x="0.831" y="0.034" font-size="0.022820" fill="hsl(0.0,100%,20%)">jplate</text>
<text x="1.818" y="0.393" font-size="0.002419" fill="hsl(0.0,100%,20%)">ccameron</text>
<text x="1.702" y="0.262" font-size="0.008023" fill="hsl(0.0,100%,20%)">kkinnunen</text>
<text x="0.462" y="0.580" font-size="0.005409" fill="hsl(0.0,100%,20%)">le.hoang.q</text>
<text x="0.881" y="0.083" font-size="0.004838" fill="hsl(0.0,100%,20%)">kyle.griffiths</text>
<text x="0.833" y="-0.053" font-size="0.005925" fill="hsl(0.0,100%,20%)">lehoangq</text>
<text x="1.195" y="0.091" font-size="0.005409" fill="hsl(0.0,100%,20%)">lunpujun</text>
<text x="1.080" y="0.462" font-size="0.007257" fill="hsl(0.0,100%,20%)">msisov</text>
<text x="0.346" y="0.752" font-size="0.002419" fill="hsl(0.0,100%,20%)">zzyiwei</text>
<text x="1.430" y="0.145" font-size="0.004190" fill="hsl(0.0,100%,20%)">patrto</text>
<text x="0.907" y="0.086" font-size="0.009369" fill="hsl(0.0,100%,20%)">pkasting</text>
<text x="0.704" y="0.884" font-size="0.006842" fill="hsl(0.0,100%,20%)">senorblanco</text>
<text x="1.774" y="0.170" font-size="0.003421" fill="hsl(0.0,100%,20%)">jiajia.qin</text>
<text x="1.028" y="0.092" font-size="0.008380" fill="hsl(0.0,100%,20%)">sergeyu</text>
<text x="0.935" y="0.054" font-size="0.006842" fill="hsl(0.0,100%,20%)">shrekshao</text>
<text x="0.670" y="0.798" font-size="0.004190" fill="hsl(0.0,100%,20%)">srisser</text>
<text x="1.415" y="0.421" font-size="0.012095" fill="hsl(0.0,100%,20%)">steven</text>
<text x="0.433" y="0.444" font-size="0.014105" fill="hsl(0.0,100%,20%)">sugoi</text>
<text x="1.335" y="0.237" font-size="0.003421" fill="hsl(0.0,100%,20%)">cstout</text>
<text x="1.353" y="1.054" font-size="0.002419" fill="hsl(0.0,100%,20%)">borenet</text>
<text x="1.058" y="0.358" font-size="0.003421" fill="hsl(0.0,100%,20%)">reveman</text>
<text x="1.342" y="0.248" font-size="0.002419" fill="hsl(0.0,100%,20%)">jie.a.chen</text>
<text x="1.074" y="0.081" font-size="0.005925" fill="hsl(0.0,100%,20%)">xiaoxuan.liu</text>
<text x="1.529" y="0.106" font-size="0.004190" fill="hsl(0.0,100%,20%)">xinghua.cao</text>
<text x="0.308" y="0.554" font-size="0.004190" fill="hsl(0.0,100%,20%)">yang.gu</text>
</svg>
