<svg width="4000" height="2000" viewBox="-0.025 -0.025 2.05 1.05" xmlns="http://www.w3.org/2000/svg">
  <style>
    path {
      fill: none;
      stroke-linecap: round;
      stroke-opacity: 0.4;
    }

    text {
      text-anchor: middle;
      alignment-baseline: hanging;
    }
  </style>
  <g opacity="0.4">
<path d="M1.049 0.295 Q0.883 0.267 0.792 0.342" stroke="hsl(0.0,100%,35%)" stroke-width="0.00758"></path>
<path d="M1.049 0.295 Q1.087 0.211 0.932 0.174" stroke="hsl(0.0,100%,35%)" stroke-width="0.01516"></path>
<path d="M1.049 0.295 Q1.297 0.571 1.891 0.511" stroke="hsl(0.0,100%,35%)" stroke-width="0.00132"></path>
<path d="M1.049 0.295 Q1.067 0.237 0.959 0.216" stroke="hsl(0.0,100%,35%)" stroke-width="0.00066"></path>
<path d="M1.049 0.295 Q0.888 0.347 0.955 0.437" stroke="hsl(0.0,100%,35%)" stroke-width="0.00066"></path>
<path d="M1.049 0.295 Q0.767 0.340 0.794 0.488" stroke="hsl(0.0,100%,35%)" stroke-width="0.00033"></path>
<path d="M1.049 0.295 Q0.921 0.421 1.140 0.511" stroke="hsl(0.0,100%,35%)" stroke-width="0.00066"></path>
<path d="M1.049 0.295 Q1.450 0.216 1.384 0.003" stroke="hsl(0.0,100%,35%)" stroke-width="0.00033"></path>
<path d="M1.049 0.295 Q0.845 0.471 1.145 0.610" stroke="hsl(0.0,100%,35%)" stroke-width="0.00033"></path>
<path d="M1.049 0.295 Q0.975 0.347 1.061 0.395" stroke="hsl(0.0,100%,35%)" stroke-width="0.00297"></path>
<path d="M1.049 0.295 Q0.634 0.160 0.279 0.333" stroke="hsl(0.0,100%,35%)" stroke-width="0.00066"></path>
<path d="M0.792 0.342 Q0.996 0.286 0.932 0.174" stroke="hsl(0.0,100%,35%)" stroke-width="0.03559"></path>
<path d="M0.792 0.342 Q0.677 0.415 0.794 0.488" stroke="hsl(0.0,100%,35%)" stroke-width="0.01812"></path>
<path d="M0.792 0.342 Q0.959 0.370 1.049 0.295" stroke="hsl(0.0,100%,35%)" stroke-width="0.01384"></path>
<path d="M0.792 0.342 Q1.360 0.291 1.384 0.003" stroke="hsl(0.0,100%,35%)" stroke-width="0.00593"></path>
<path d="M0.792 0.342 Q0.226 0.641 0.685 0.983" stroke="hsl(0.0,100%,35%)" stroke-width="0.00033"></path>
<path d="M0.792 0.342 Q1.326 0.249 1.262 -0.032" stroke="hsl(0.0,100%,35%)" stroke-width="0.00033"></path>
<path d="M0.792 0.342 Q0.754 0.547 1.145 0.610" stroke="hsl(0.0,100%,35%)" stroke-width="0.00033"></path>
<path d="M0.792 0.342 Q1.175 0.381 1.335 0.203" stroke="hsl(0.0,100%,35%)" stroke-width="0.00066"></path>
<path d="M0.792 0.342 Q0.544 0.235 0.279 0.333" stroke="hsl(0.0,100%,35%)" stroke-width="0.00033"></path>
<path d="M0.792 0.342 Q0.894 0.287 0.808 0.225" stroke="hsl(0.0,100%,35%)" stroke-width="0.00066"></path>
<path d="M0.792 0.342 Q0.884 0.422 1.061 0.395" stroke="hsl(0.0,100%,35%)" stroke-width="0.00824"></path>
<path d="M0.792 0.342 Q1.308 0.286 1.311 0.022" stroke="hsl(0.0,100%,35%)" stroke-width="0.00066"></path>
<path d="M0.792 0.342 Q1.206 0.646 1.891 0.511" stroke="hsl(0.0,100%,35%)" stroke-width="0.00099"></path>
<path d="M0.932 0.174 Q0.728 0.230 0.792 0.342" stroke="hsl(0.0,100%,35%)" stroke-width="0.02702"></path>
<path d="M0.932 0.174 Q1.295 0.179 1.384 0.003" stroke="hsl(0.0,100%,35%)" stroke-width="0.00692"></path>
<path d="M0.932 0.174 Q0.892 0.067 0.674 0.063" stroke="hsl(0.0,100%,35%)" stroke-width="0.00033"></path>
<path d="M0.932 0.174 Q0.479 0.123 0.279 0.333" stroke="hsl(0.0,100%,35%)" stroke-width="0.00428"></path>
<path d="M0.932 0.174 Q0.612 0.304 0.794 0.488" stroke="hsl(0.0,100%,35%)" stroke-width="0.02406"></path>
<path d="M0.932 0.174 Q0.690 0.435 1.145 0.610" stroke="hsl(0.0,100%,35%)" stroke-width="0.00494"></path>
<path d="M0.932 0.174 Q1.244 0.174 1.311 0.022" stroke="hsl(0.0,100%,35%)" stroke-width="0.00231"></path>
<path d="M0.932 0.174 Q1.307 0.254 1.545 0.088" stroke="hsl(0.0,100%,35%)" stroke-width="0.00099"></path>
<path d="M0.932 0.174 Q0.894 0.258 1.049 0.295" stroke="hsl(0.0,100%,35%)" stroke-width="0.01911"></path>
<path d="M0.932 0.174 Q0.820 0.310 1.061 0.395" stroke="hsl(0.0,100%,35%)" stroke-width="0.03559"></path>
<path d="M0.932 0.174 Q1.142 0.535 1.891 0.511" stroke="hsl(0.0,100%,35%)" stroke-width="0.01120"></path>
<path d="M0.932 0.174 Q0.766 0.384 1.140 0.511" stroke="hsl(0.0,100%,35%)" stroke-width="0.00198"></path>
<path d="M0.932 0.174 Q1.111 0.270 1.335 0.203" stroke="hsl(0.0,100%,35%)" stroke-width="0.00330"></path>
<path d="M0.932 0.174 Q0.222 0.443 0.590 0.848" stroke="hsl(0.0,100%,35%)" stroke-width="0.00066"></path>
<path d="M0.932 0.174 Q0.381 0.496 0.888 0.836" stroke="hsl(0.0,100%,35%)" stroke-width="0.00033"></path>
<path d="M0.932 0.174 Q0.828 0.157 0.771 0.204" stroke="hsl(0.0,100%,35%)" stroke-width="0.00066"></path>
<path d="M0.932 0.174 Q0.646 0.150 0.536 0.284" stroke="hsl(0.0,100%,35%)" stroke-width="0.00033"></path>
<path d="M0.932 0.174 Q1.069 0.362 1.465 0.336" stroke="hsl(0.0,100%,35%)" stroke-width="0.00033"></path>
<path d="M0.932 0.174 Q0.325 0.139 0.123 0.428" stroke="hsl(0.0,100%,35%)" stroke-width="0.00066"></path>
<path d="M0.932 0.174 Q0.162 0.529 0.685 0.983" stroke="hsl(0.0,100%,35%)" stroke-width="0.00033"></path>
<path d="M0.932 0.174 Q1.063 0.234 1.208 0.183" stroke="hsl(0.0,100%,35%)" stroke-width="0.00033"></path>
<path d="M0.932 0.174 Q0.859 0.224 0.939 0.271" stroke="hsl(0.0,100%,35%)" stroke-width="0.00033"></path>
<path d="M0.932 0.174 Q0.904 0.279 1.102 0.315" stroke="hsl(0.0,100%,35%)" stroke-width="0.00033"></path>
<path d="M0.932 0.174 Q0.887 0.220 0.966 0.252" stroke="hsl(0.0,100%,35%)" stroke-width="0.00033"></path>
<path d="M0.932 0.174 Q1.262 0.137 1.262 -0.032" stroke="hsl(0.0,100%,35%)" stroke-width="0.00033"></path>
<path d="M0.932 0.174 Q0.830 0.175 0.808 0.225" stroke="hsl(0.0,100%,35%)" stroke-width="0.00231"></path>
<path d="M0.932 0.174 Q1.092 0.254 1.282 0.193" stroke="hsl(0.0,100%,35%)" stroke-width="0.00066"></path>
<path d="M0.932 0.174 Q1.002 0.314 1.290 0.311" stroke="hsl(0.0,100%,35%)" stroke-width="0.00066"></path>
<path d="M0.932 0.174 Q1.074 0.269 1.290 0.221" stroke="hsl(0.0,100%,35%)" stroke-width="0.00033"></path>
<path d="M0.932 0.174 Q0.984 0.220 1.085 0.205" stroke="hsl(0.0,100%,35%)" stroke-width="0.00033"></path>
<path d="M0.932 0.174 Q1.048 0.232 1.186 0.188" stroke="hsl(0.0,100%,35%)" stroke-width="0.00033"></path>
<path d="M1.891 0.511 Q1.439 0.411 1.145 0.610" stroke="hsl(0.0,100%,35%)" stroke-width="0.00132"></path>
<path d="M1.891 0.511 Q1.681 0.151 0.932 0.174" stroke="hsl(0.0,100%,35%)" stroke-width="0.00494"></path>
<path d="M1.891 0.511 Q1.228 0.100 0.279 0.333" stroke="hsl(0.0,100%,35%)" stroke-width="0.00066"></path>
<path d="M1.891 0.511 Q1.643 0.235 1.049 0.295" stroke="hsl(0.0,100%,35%)" stroke-width="0.00264"></path>
<path d="M1.891 0.511 Q1.361 0.280 0.794 0.488" stroke="hsl(0.0,100%,35%)" stroke-width="0.00890"></path>
<path d="M1.891 0.511 Q1.515 0.361 1.140 0.511" stroke="hsl(0.0,100%,35%)" stroke-width="0.00989"></path>
<path d="M1.891 0.511 Q1.569 0.287 1.061 0.395" stroke="hsl(0.0,100%,35%)" stroke-width="0.01648"></path>
<path d="M1.891 0.511 Q1.395 0.127 0.536 0.284" stroke="hsl(0.0,100%,35%)" stroke-width="0.00033"></path>
<path d="M1.891 0.511 Q1.747 0.468 1.631 0.529" stroke="hsl(0.0,100%,35%)" stroke-width="0.00132"></path>
<path d="M1.891 0.511 Q1.477 0.207 0.792 0.342" stroke="hsl(0.0,100%,35%)" stroke-width="0.00330"></path>
<path d="M1.891 0.511 Q1.604 0.575 1.667 0.729" stroke="hsl(0.0,100%,35%)" stroke-width="0.00198"></path>
<path d="M1.891 0.511 Q1.796 0.533 1.817 0.584" stroke="hsl(0.0,100%,35%)" stroke-width="0.00033"></path>
<path d="M1.891 0.511 Q0.911 0.506 0.685 0.983" stroke="hsl(0.0,100%,35%)" stroke-width="0.00033"></path>
<path d="M1.891 0.511 Q1.578 0.151 0.808 0.225" stroke="hsl(0.0,100%,35%)" stroke-width="0.00033"></path>
<path d="M1.891 0.511 Q2.044 0.156 1.384 0.003" stroke="hsl(0.0,100%,35%)" stroke-width="0.00033"></path>
<path d="M0.794 0.488 Q1.114 0.359 0.932 0.174" stroke="hsl(0.0,100%,35%)" stroke-width="0.01022"></path>
<path d="M0.794 0.488 Q0.910 0.415 0.792 0.342" stroke="hsl(0.0,100%,35%)" stroke-width="0.00593"></path>
<path d="M0.794 0.488 Q0.948 0.569 1.140 0.511" stroke="hsl(0.0,100%,35%)" stroke-width="0.00132"></path>
<path d="M0.794 0.488 Q1.324 0.719 1.891 0.511" stroke="hsl(0.0,100%,35%)" stroke-width="0.00264"></path>
<path d="M0.794 0.488 Q1.076 0.442 1.049 0.295" stroke="hsl(0.0,100%,35%)" stroke-width="0.00198"></path>
<path d="M0.794 0.488 Q1.002 0.495 1.061 0.395" stroke="hsl(0.0,100%,35%)" stroke-width="0.00362"></path>
<path d="M0.794 0.488 Q1.292 0.454 1.335 0.203" stroke="hsl(0.0,100%,35%)" stroke-width="0.00033"></path>
<path d="M0.794 0.488 Q0.828 0.334 0.536 0.284" stroke="hsl(0.0,100%,35%)" stroke-width="0.00033"></path>
<path d="M0.794 0.488 Q0.661 0.307 0.279 0.333" stroke="hsl(0.0,100%,35%)" stroke-width="0.00099"></path>
<path d="M0.794 0.488 Q0.872 0.619 1.145 0.610" stroke="hsl(0.0,100%,35%)" stroke-width="0.00033"></path>
<path d="M0.794 0.488 Q1.011 0.359 0.808 0.225" stroke="hsl(0.0,100%,35%)" stroke-width="0.00033"></path>
<path d="M0.794 0.488 Q1.477 0.363 1.384 0.003" stroke="hsl(0.0,100%,35%)" stroke-width="0.00132"></path>
<path d="M0.794 0.488 Q0.344 0.713 0.685 0.983" stroke="hsl(0.0,100%,35%)" stroke-width="0.00033"></path>
<path d="M0.794 0.488 Q1.074 0.252 0.674 0.063" stroke="hsl(0.0,100%,35%)" stroke-width="0.00033"></path>
<path d="M0.794 0.488 Q1.425 0.358 1.311 0.022" stroke="hsl(0.0,100%,35%)" stroke-width="0.00033"></path>
<path d="M1.140 0.511 Q1.515 0.661 1.891 0.511" stroke="hsl(0.0,100%,35%)" stroke-width="0.00791"></path>
<path d="M1.140 0.511 Q1.063 0.562 1.145 0.610" stroke="hsl(0.0,100%,35%)" stroke-width="0.00461"></path>
<path d="M1.140 0.511 Q1.305 0.301 0.932 0.174" stroke="hsl(0.0,100%,35%)" stroke-width="0.00395"></path>
<path d="M1.140 0.511 Q1.101 0.357 0.792 0.342" stroke="hsl(0.0,100%,35%)" stroke-width="0.00132"></path>
<path d="M1.140 0.511 Q0.986 0.430 0.794 0.488" stroke="hsl(0.0,100%,35%)" stroke-width="0.00264"></path>
<path d="M1.140 0.511 Q1.193 0.437 1.061 0.395" stroke="hsl(0.0,100%,35%)" stroke-width="0.02076"></path>
<path d="M1.140 0.511 Q0.853 0.250 0.279 0.333" stroke="hsl(0.0,100%,35%)" stroke-width="0.00231"></path>
<path d="M1.140 0.511 Q1.669 0.306 1.384 0.003" stroke="hsl(0.0,100%,35%)" stroke-width="0.00165"></path>
<path d="M1.140 0.511 Q1.617 0.301 1.311 0.022" stroke="hsl(0.0,100%,35%)" stroke-width="0.00033"></path>
<path d="M1.140 0.511 Q1.268 0.385 1.049 0.295" stroke="hsl(0.0,100%,35%)" stroke-width="0.00461"></path>
<path d="M1.140 0.511 Q0.951 0.620 1.122 0.736" stroke="hsl(0.0,100%,35%)" stroke-width="0.00132"></path>
<path d="M1.140 0.511 Q1.498 0.474 1.504 0.291" stroke="hsl(0.0,100%,35%)" stroke-width="0.00033"></path>
<path d="M1.140 0.511 Q1.283 0.560 1.410 0.501" stroke="hsl(0.0,100%,35%)" stroke-width="0.00033"></path>
<path d="M1.140 0.511 Q0.698 0.266 0.123 0.428" stroke="hsl(0.0,100%,35%)" stroke-width="0.00033"></path>
<path d="M1.140 0.511 Q1.203 0.302 0.808 0.225" stroke="hsl(0.0,100%,35%)" stroke-width="0.00033"></path>
<path d="M1.384 0.003 Q1.231 0.358 1.891 0.511" stroke="hsl(0.0,100%,35%)" stroke-width="0.00066"></path>
<path d="M1.384 0.003 Q1.021 -0.002 0.932 0.174" stroke="hsl(0.0,100%,35%)" stroke-width="0.00132"></path>
<path d="M1.384 0.003 Q0.909 0.134 1.061 0.395" stroke="hsl(0.0,100%,35%)" stroke-width="0.00099"></path>
<path d="M1.384 0.003 Q0.855 0.208 1.140 0.511" stroke="hsl(0.0,100%,35%)" stroke-width="0.00099"></path>
<path d="M1.384 0.003 Q1.351 -0.039 1.262 -0.032" stroke="hsl(0.0,100%,35%)" stroke-width="0.00033"></path>
<path d="M1.384 0.003 Q0.817 0.054 0.792 0.342" stroke="hsl(0.0,100%,35%)" stroke-width="0.00066"></path>
<path d="M1.384 0.003 Q0.568 -0.053 0.279 0.333" stroke="hsl(0.0,100%,35%)" stroke-width="0.00099"></path>
<path d="M1.384 0.003 Q0.981 -0.109 0.674 0.063" stroke="hsl(0.0,100%,35%)" stroke-width="0.00033"></path>
<path d="M1.384 0.003 Q1.199 0.093 1.335 0.203" stroke="hsl(0.0,100%,35%)" stroke-width="0.00033"></path>
<path d="M1.384 0.003 Q0.779 0.259 1.145 0.610" stroke="hsl(0.0,100%,35%)" stroke-width="0.00099"></path>
<path d="M1.384 0.003 Q0.701 0.127 0.794 0.488" stroke="hsl(0.0,100%,35%)" stroke-width="0.00033"></path>
<path d="M1.384 0.003 Q1.214 0.171 1.504 0.291" stroke="hsl(0.0,100%,35%)" stroke-width="0.00033"></path>
<path d="M1.384 0.003 Q0.918 -0.001 0.808 0.225" stroke="hsl(0.0,100%,35%)" stroke-width="0.00033"></path>
<path d="M1.145 0.610 Q0.934 0.298 0.279 0.333" stroke="hsl(0.0,100%,35%)" stroke-width="0.00099"></path>
<path d="M1.145 0.610 Q1.221 0.560 1.140 0.511" stroke="hsl(0.0,100%,35%)" stroke-width="0.00264"></path>
<path d="M1.145 0.610 Q1.275 0.486 1.061 0.395" stroke="hsl(0.0,100%,35%)" stroke-width="0.00824"></path>
<path d="M1.145 0.610 Q1.183 0.406 0.792 0.342" stroke="hsl(0.0,100%,35%)" stroke-width="0.00033"></path>
<path d="M1.145 0.610 Q1.387 0.350 0.932 0.174" stroke="hsl(0.0,100%,35%)" stroke-width="0.00330"></path>
<path d="M1.145 0.610 Q1.067 0.479 0.794 0.488" stroke="hsl(0.0,100%,35%)" stroke-width="0.00066"></path>
<path d="M1.145 0.610 Q0.617 0.704 0.685 0.983" stroke="hsl(0.0,100%,35%)" stroke-width="0.00033"></path>
<path d="M1.145 0.610 Q1.597 0.710 1.891 0.511" stroke="hsl(0.0,100%,35%)" stroke-width="0.00099"></path>
<path d="M1.145 0.610 Q1.349 0.433 1.049 0.295" stroke="hsl(0.0,100%,35%)" stroke-width="0.00066"></path>
<path d="M1.145 0.610 Q1.407 0.567 1.380 0.429" stroke="hsl(0.0,100%,35%)" stroke-width="0.00033"></path>
<path d="M1.061 0.395 Q0.969 0.315 0.792 0.342" stroke="hsl(0.0,100%,35%)" stroke-width="0.00527"></path>
<path d="M1.061 0.395 Q1.383 0.619 1.891 0.511" stroke="hsl(0.0,100%,35%)" stroke-width="0.01648"></path>
<path d="M1.061 0.395 Q1.173 0.259 0.932 0.174" stroke="hsl(0.0,100%,35%)" stroke-width="0.01812"></path>
<path d="M1.061 0.395 Q0.931 0.519 1.145 0.610" stroke="hsl(0.0,100%,35%)" stroke-width="0.01054"></path>
<path d="M1.061 0.395 Q1.007 0.469 1.140 0.511" stroke="hsl(0.0,100%,35%)" stroke-width="0.00692"></path>
<path d="M1.061 0.395 Q0.853 0.388 0.794 0.488" stroke="hsl(0.0,100%,35%)" stroke-width="0.01384"></path>
<path d="M1.061 0.395 Q0.566 0.224 0.123 0.428" stroke="hsl(0.0,100%,35%)" stroke-width="0.00099"></path>
<path d="M1.061 0.395 Q0.720 0.207 0.279 0.333" stroke="hsl(0.0,100%,35%)" stroke-width="0.00231"></path>
<path d="M1.061 0.395 Q1.135 0.342 1.049 0.295" stroke="hsl(0.0,100%,35%)" stroke-width="0.00297"></path>
<path d="M1.061 0.395 Q1.310 0.446 1.465 0.336" stroke="hsl(0.0,100%,35%)" stroke-width="0.00033"></path>
<path d="M1.061 0.395 Q1.071 0.259 0.808 0.225" stroke="hsl(0.0,100%,35%)" stroke-width="0.00099"></path>
<path d="M1.061 0.395 Q1.366 0.431 1.504 0.291" stroke="hsl(0.0,100%,35%)" stroke-width="0.00033"></path>
<path d="M1.061 0.395 Q1.238 0.401 1.290 0.316" stroke="hsl(0.0,100%,35%)" stroke-width="0.00033"></path>
<path d="M1.061 0.395 Q1.536 0.263 1.384 0.003" stroke="hsl(0.0,100%,35%)" stroke-width="0.00066"></path>
<path d="M0.279 0.333 Q0.181 0.706 0.888 0.836" stroke="hsl(180.0,100%,35%)" stroke-width="0.00066"></path>
<path d="M0.279 0.333 Q0.125 0.349 0.123 0.428" stroke="hsl(180.0,100%,35%)" stroke-width="0.00297"></path>
<path d="M0.279 0.333 Q0.732 0.384 0.932 0.174" stroke="hsl(180.0,100%,35%)" stroke-width="0.00297"></path>
<path d="M0.279 0.333 Q0.942 0.744 1.891 0.511" stroke="hsl(180.0,100%,35%)" stroke-width="0.00165"></path>
<path d="M0.279 0.333 Q0.127 0.395 0.215 0.483" stroke="hsl(180.0,100%,35%)" stroke-width="0.00066"></path>
<path d="M0.279 0.333 Q-0.038 0.739 0.685 0.983" stroke="hsl(180.0,100%,35%)" stroke-width="0.00297"></path>
<path d="M0.279 0.333 Q0.630 0.384 0.808 0.225" stroke="hsl(180.0,100%,35%)" stroke-width="0.00066"></path>
<path d="M0.279 0.333 Q0.620 0.520 1.061 0.395" stroke="hsl(180.0,100%,35%)" stroke-width="0.00264"></path>
<path d="M0.279 0.333 Q0.490 0.644 1.145 0.610" stroke="hsl(180.0,100%,35%)" stroke-width="0.00066"></path>
<path d="M0.279 0.333 Q0.022 0.652 0.590 0.848" stroke="hsl(180.0,100%,35%)" stroke-width="0.00132"></path>
<path d="M0.279 0.333 Q0.874 0.479 1.290 0.221" stroke="hsl(180.0,100%,35%)" stroke-width="0.00132"></path>
<path d="M0.279 0.333 Q0.413 0.513 0.794 0.488" stroke="hsl(180.0,100%,35%)" stroke-width="0.00066"></path>
<path d="M0.279 0.333 Q0.151 0.489 0.428 0.586" stroke="hsl(180.0,100%,35%)" stroke-width="0.00033"></path>
<path d="M0.279 0.333 Q1.096 0.389 1.384 0.003" stroke="hsl(180.0,100%,35%)" stroke-width="0.00033"></path>
<path d="M0.279 0.333 Q0.705 0.489 1.102 0.315" stroke="hsl(180.0,100%,35%)" stroke-width="0.00033"></path>
<path d="M0.643 0.198 Q0.695 0.380 1.061 0.395" stroke="hsl(0.0,100%,35%)" stroke-width="0.00033"></path>
<path d="M0.643 0.198 Q0.807 0.244 0.932 0.174" stroke="hsl(0.0,100%,35%)" stroke-width="0.00066"></path>
<path d="M0.643 0.198 Q0.603 0.300 0.792 0.342" stroke="hsl(0.0,100%,35%)" stroke-width="0.00033"></path>
<path d="M1.428 0.332 Q1.307 0.154 0.932 0.174" stroke="hsl(0.0,100%,35%)" stroke-width="0.00560"></path>
<path d="M1.428 0.332 Q1.195 0.290 1.061 0.395" stroke="hsl(0.0,100%,35%)" stroke-width="0.00725"></path>
<path d="M1.428 0.332 Q1.682 0.234 1.545 0.088" stroke="hsl(0.0,100%,35%)" stroke-width="0.00033"></path>
<path d="M1.545 0.088 Q1.170 0.009 0.932 0.174" stroke="hsl(0.0,100%,35%)" stroke-width="0.00231"></path>
<path d="M1.545 0.088 Q1.482 0.008 1.311 0.022" stroke="hsl(0.0,100%,35%)" stroke-width="0.00066"></path>
<path d="M1.545 0.088 Q1.058 0.145 1.061 0.395" stroke="hsl(0.0,100%,35%)" stroke-width="0.00066"></path>
<path d="M1.545 0.088 Q1.349 0.104 1.335 0.203" stroke="hsl(0.0,100%,35%)" stroke-width="0.00033"></path>
<path d="M1.759 0.350 Q1.842 0.282 1.726 0.227" stroke="hsl(0.0,100%,35%)" stroke-width="0.00033"></path>
<path d="M1.759 0.350 Q1.449 0.181 1.049 0.295" stroke="hsl(0.0,100%,35%)" stroke-width="0.00033"></path>
<path d="M1.759 0.350 Q1.847 0.349 1.864 0.306" stroke="hsl(0.0,100%,35%)" stroke-width="0.00066"></path>
<path d="M1.290 0.311 Q1.220 0.171 0.932 0.174" stroke="hsl(0.0,100%,35%)" stroke-width="0.00297"></path>
<path d="M1.290 0.311 Q0.767 0.120 0.279 0.333" stroke="hsl(0.0,100%,35%)" stroke-width="0.00033"></path>
<path d="M1.290 0.311 Q0.713 0.188 0.346 0.442" stroke="hsl(0.0,100%,35%)" stroke-width="0.00066"></path>
<path d="M1.290 0.311 Q1.108 0.307 1.061 0.395" stroke="hsl(0.0,100%,35%)" stroke-width="0.00231"></path>
<path d="M1.290 0.311 Q1.413 0.343 1.504 0.291" stroke="hsl(0.0,100%,35%)" stroke-width="0.00033"></path>
<path d="M1.290 0.311 Q1.532 0.170 1.311 0.022" stroke="hsl(0.0,100%,35%)" stroke-width="0.00066"></path>
<path d="M0.346 0.442 Q0.400 0.374 0.279 0.333" stroke="hsl(180.0,100%,35%)" stroke-width="0.00824"></path>
<path d="M0.346 0.442 Q0.853 0.425 0.932 0.174" stroke="hsl(180.0,100%,35%)" stroke-width="0.00527"></path>
<path d="M0.346 0.442 Q0.561 0.382 0.491 0.265" stroke="hsl(180.0,100%,35%)" stroke-width="0.00231"></path>
<path d="M0.346 0.442 Q0.083 0.780 0.685 0.983" stroke="hsl(180.0,100%,35%)" stroke-width="0.00659"></path>
<path d="M0.346 0.442 Q0.741 0.561 1.061 0.395" stroke="hsl(180.0,100%,35%)" stroke-width="0.00560"></path>
<path d="M0.346 0.442 Q0.143 0.694 0.590 0.848" stroke="hsl(180.0,100%,35%)" stroke-width="0.00066"></path>
<path d="M0.346 0.442 Q0.246 0.390 0.123 0.428" stroke="hsl(180.0,100%,35%)" stroke-width="0.00033"></path>
<path d="M0.346 0.442 Q0.923 0.565 1.290 0.311" stroke="hsl(180.0,100%,35%)" stroke-width="0.00033"></path>
<path d="M1.311 0.022 Q0.999 0.022 0.932 0.174" stroke="hsl(0.0,100%,35%)" stroke-width="0.01417"></path>
<path d="M1.311 0.022 Q0.795 0.078 0.792 0.342" stroke="hsl(0.0,100%,35%)" stroke-width="0.00231"></path>
<path d="M1.311 0.022 Q0.680 0.151 0.794 0.488" stroke="hsl(0.0,100%,35%)" stroke-width="0.00033"></path>
<path d="M1.311 0.022 Q1.141 0.117 1.290 0.221" stroke="hsl(0.0,100%,35%)" stroke-width="0.00033"></path>
<path d="M1.311 0.022 Q1.178 0.117 1.335 0.203" stroke="hsl(0.0,100%,35%)" stroke-width="0.00066"></path>
<path d="M1.311 0.022 Q0.887 0.158 1.061 0.395" stroke="hsl(0.0,100%,35%)" stroke-width="0.00593"></path>
<path d="M1.311 0.022 Q1.192 0.195 1.504 0.291" stroke="hsl(0.0,100%,35%)" stroke-width="0.00099"></path>
<path d="M1.311 0.022 Q1.362 0.027 1.384 0.003" stroke="hsl(0.0,100%,35%)" stroke-width="0.00132"></path>
<path d="M1.311 0.022 Q0.833 0.232 1.140 0.511" stroke="hsl(0.0,100%,35%)" stroke-width="0.00066"></path>
<path d="M1.311 0.022 Q0.897 0.023 0.808 0.225" stroke="hsl(0.0,100%,35%)" stroke-width="0.00033"></path>
<path d="M1.311 0.022 Q0.546 -0.029 0.279 0.333" stroke="hsl(0.0,100%,35%)" stroke-width="0.00033"></path>
<path d="M0.538 0.632 Q0.648 0.430 0.279 0.333" stroke="hsl(180.0,100%,35%)" stroke-width="0.00066"></path>
<path d="M0.538 0.632 Q0.999 0.482 0.808 0.225" stroke="hsl(180.0,100%,35%)" stroke-width="0.00033"></path>
<path d="M0.538 0.632 Q0.519 0.587 0.428 0.586" stroke="hsl(180.0,100%,35%)" stroke-width="0.00033"></path>
<path d="M0.808 0.225 Q0.911 0.224 0.932 0.174" stroke="hsl(0.0,100%,35%)" stroke-width="0.00330"></path>
<path d="M0.808 0.225 Q0.707 0.280 0.792 0.342" stroke="hsl(0.0,100%,35%)" stroke-width="0.00264"></path>
<path d="M0.808 0.225 Q1.089 0.320 1.335 0.203" stroke="hsl(0.0,100%,35%)" stroke-width="0.00033"></path>
<path d="M0.808 0.225 Q0.870 0.117 0.674 0.063" stroke="hsl(0.0,100%,35%)" stroke-width="0.00033"></path>
<path d="M0.808 0.225 Q0.591 0.354 0.794 0.488" stroke="hsl(0.0,100%,35%)" stroke-width="0.00033"></path>
<path d="M0.832 0.596 Q1.341 0.584 1.428 0.332" stroke="hsl(180.0,100%,35%)" stroke-width="0.00033"></path>
<path d="M0.832 0.596 Q0.977 0.666 1.145 0.610" stroke="hsl(180.0,100%,35%)" stroke-width="0.00033"></path>
<path d="M0.832 0.596 Q0.449 0.760 0.685 0.983" stroke="hsl(180.0,100%,35%)" stroke-width="0.00066"></path>
<path d="M0.832 0.596 Q1.219 0.405 0.932 0.174" stroke="hsl(180.0,100%,35%)" stroke-width="0.00099"></path>
<path d="M0.832 0.596 Q1.107 0.541 1.061 0.395" stroke="hsl(180.0,100%,35%)" stroke-width="0.00033"></path>
<path d="M0.685 0.983 Q0.952 1.084 1.208 0.976" stroke="hsl(180.0,100%,35%)" stroke-width="0.00066"></path>
<path d="M0.685 0.983 Q0.745 0.896 0.590 0.848" stroke="hsl(180.0,100%,35%)" stroke-width="0.00132"></path>
<path d="M0.685 0.983 Q1.002 0.577 0.279 0.333" stroke="hsl(180.0,100%,35%)" stroke-width="0.00264"></path>
<path d="M0.685 0.983 Q1.162 0.585 0.491 0.265" stroke="hsl(180.0,100%,35%)" stroke-width="0.00066"></path>
<path d="M0.685 0.983 Q0.904 0.950 0.888 0.836" stroke="hsl(180.0,100%,35%)" stroke-width="0.00033"></path>
<path d="M0.685 0.983 Q1.343 0.764 1.061 0.395" stroke="hsl(180.0,100%,35%)" stroke-width="0.00066"></path>
<path d="M1.122 0.736 Q1.476 0.417 0.932 0.174" stroke="hsl(0.0,100%,35%)" stroke-width="0.00066"></path>
<path d="M1.122 0.736 Q1.234 0.678 1.145 0.610" stroke="hsl(0.0,100%,35%)" stroke-width="0.00132"></path>
<path d="M1.122 0.736 Q1.364 0.553 1.061 0.395" stroke="hsl(0.0,100%,35%)" stroke-width="0.00033"></path>
<path d="M1.122 0.736 Q1.310 0.627 1.140 0.511" stroke="hsl(0.0,100%,35%)" stroke-width="0.00066"></path>
<path d="M1.122 0.736 Q1.228 0.772 1.322 0.728" stroke="hsl(0.0,100%,35%)" stroke-width="0.00033"></path>
<path d="M0.307 0.247 Q0.677 0.336 0.932 0.174" stroke="hsl(180.0,100%,35%)" stroke-width="0.00165"></path>
<path d="M0.307 0.247 Q0.566 0.472 1.061 0.395" stroke="hsl(180.0,100%,35%)" stroke-width="0.00165"></path>
<path d="M0.307 0.247 Q0.225 0.284 0.279 0.333" stroke="hsl(180.0,100%,35%)" stroke-width="0.00099"></path>
<path d="M0.307 0.247 Q0.650 0.440 1.102 0.315" stroke="hsl(180.0,100%,35%)" stroke-width="0.00033"></path>
<path d="M0.307 0.247 Q0.070 0.300 0.123 0.428" stroke="hsl(180.0,100%,35%)" stroke-width="0.00033"></path>
<path d="M0.123 0.428 Q0.278 0.411 0.279 0.333" stroke="hsl(180.0,100%,35%)" stroke-width="0.00099"></path>
<path d="M0.123 0.428 Q0.730 0.463 0.932 0.174" stroke="hsl(180.0,100%,35%)" stroke-width="0.00165"></path>
<path d="M0.123 0.428 Q-0.040 0.817 0.685 0.983" stroke="hsl(180.0,100%,35%)" stroke-width="0.00033"></path>
<path d="M0.123 0.428 Q0.618 0.599 1.061 0.395" stroke="hsl(180.0,100%,35%)" stroke-width="0.00099"></path>
<path d="M0.123 0.428 Q0.488 0.723 1.145 0.610" stroke="hsl(180.0,100%,35%)" stroke-width="0.00033"></path>
<path d="M1.335 0.203 Q1.157 0.108 0.932 0.174" stroke="hsl(0.0,100%,35%)" stroke-width="0.00198"></path>
<path d="M1.335 0.203 Q1.367 0.468 1.891 0.511" stroke="hsl(0.0,100%,35%)" stroke-width="0.00033"></path>
<path d="M1.335 0.203 Q0.953 0.164 0.792 0.342" stroke="hsl(0.0,100%,35%)" stroke-width="0.00033"></path>
<path d="M1.335 0.203 Q1.054 0.109 0.808 0.225" stroke="hsl(0.0,100%,35%)" stroke-width="0.00066"></path>
<path d="M0.939 0.271 Q0.828 0.242 0.747 0.290" stroke="hsl(180.0,100%,35%)" stroke-width="0.00066"></path>
<path d="M0.939 0.271 Q0.560 0.170 0.279 0.333" stroke="hsl(180.0,100%,35%)" stroke-width="0.00626"></path>
<path d="M0.939 0.271 Q1.033 0.438 1.380 0.429" stroke="hsl(180.0,100%,35%)" stroke-width="0.00132"></path>
<path d="M0.939 0.271 Q0.901 0.357 1.061 0.395" stroke="hsl(180.0,100%,35%)" stroke-width="0.00066"></path>
<path d="M0.939 0.271 Q1.012 0.221 0.932 0.174" stroke="hsl(180.0,100%,35%)" stroke-width="0.01186"></path>
<path d="M0.939 0.271 Q0.909 0.204 0.771 0.204" stroke="hsl(180.0,100%,35%)" stroke-width="0.00066"></path>
<path d="M0.939 0.271 Q0.242 0.576 0.685 0.983" stroke="hsl(180.0,100%,35%)" stroke-width="0.00923"></path>
<path d="M0.939 0.271 Q0.720 0.178 0.491 0.265" stroke="hsl(180.0,100%,35%)" stroke-width="0.00066"></path>
<path d="M0.939 0.271 Q0.462 0.543 0.888 0.836" stroke="hsl(180.0,100%,35%)" stroke-width="0.00033"></path>
<path d="M0.939 0.271 Q0.770 0.481 1.145 0.610" stroke="hsl(180.0,100%,35%)" stroke-width="0.00066"></path>
<path d="M0.939 0.271 Q0.302 0.490 0.590 0.848" stroke="hsl(180.0,100%,35%)" stroke-width="0.00033"></path>
<path d="M0.747 0.290 Q0.479 0.218 0.279 0.333" stroke="hsl(180.0,100%,35%)" stroke-width="0.00033"></path>
<path d="M0.747 0.290 Q0.689 0.529 1.145 0.610" stroke="hsl(180.0,100%,35%)" stroke-width="0.00033"></path>
<path d="M0.747 0.290 Q0.325 0.234 0.123 0.428" stroke="hsl(180.0,100%,35%)" stroke-width="0.00033"></path>
<path d="M1.380 0.429 Q1.248 0.348 1.061 0.395" stroke="hsl(0.0,100%,35%)" stroke-width="0.00956"></path>
<path d="M1.380 0.429 Q0.907 0.161 0.279 0.333" stroke="hsl(0.0,100%,35%)" stroke-width="0.00132"></path>
<path d="M1.380 0.429 Q1.360 0.212 0.932 0.174" stroke="hsl(0.0,100%,35%)" stroke-width="0.00066"></path>
<path d="M0.771 0.204 Q0.763 0.357 1.061 0.395" stroke="hsl(180.0,100%,35%)" stroke-width="0.00297"></path>
<path d="M0.771 0.204 Q0.268 0.186 0.123 0.428" stroke="hsl(180.0,100%,35%)" stroke-width="0.00033"></path>
<path d="M0.771 0.204 Q0.422 0.170 0.279 0.333" stroke="hsl(180.0,100%,35%)" stroke-width="0.00066"></path>
<path d="M0.771 0.204 Q0.875 0.221 0.932 0.174" stroke="hsl(180.0,100%,35%)" stroke-width="0.00231"></path>
<path d="M0.771 0.204 Q1.187 0.221 1.311 0.022" stroke="hsl(180.0,100%,35%)" stroke-width="0.00033"></path>
<path d="M0.771 0.204 Q0.105 0.576 0.685 0.983" stroke="hsl(180.0,100%,35%)" stroke-width="0.00033"></path>
<path d="M0.771 0.204 Q0.671 0.277 0.792 0.342" stroke="hsl(180.0,100%,35%)" stroke-width="0.00033"></path>
<path d="M0.771 0.204 Q0.838 0.305 1.049 0.295" stroke="hsl(180.0,100%,35%)" stroke-width="0.00033"></path>
<path d="M0.491 0.265 Q0.784 0.308 0.932 0.174" stroke="hsl(180.0,100%,35%)" stroke-width="0.00066"></path>
<path d="M0.491 0.265 Q0.013 0.662 0.685 0.983" stroke="hsl(180.0,100%,35%)" stroke-width="0.00198"></path>
<path d="M0.491 0.265 Q0.177 0.273 0.123 0.428" stroke="hsl(180.0,100%,35%)" stroke-width="0.00033"></path>
<path d="M0.491 0.265 Q0.073 0.576 0.590 0.848" stroke="hsl(180.0,100%,35%)" stroke-width="0.00099"></path>
<path d="M0.491 0.265 Q0.331 0.256 0.279 0.333" stroke="hsl(180.0,100%,35%)" stroke-width="0.00033"></path>
<path d="M0.888 0.836 Q0.936 0.970 1.208 0.976" stroke="hsl(180.0,100%,35%)" stroke-width="0.00033"></path>
<path d="M0.888 0.836 Q0.669 0.868 0.685 0.983" stroke="hsl(180.0,100%,35%)" stroke-width="0.00066"></path>
<path d="M0.888 0.836 Q0.729 0.782 0.590 0.848" stroke="hsl(180.0,100%,35%)" stroke-width="0.00066"></path>
<path d="M0.888 0.836 Q0.832 0.479 0.123 0.428" stroke="hsl(180.0,100%,35%)" stroke-width="0.00066"></path>
<path d="M0.888 0.836 Q1.327 0.650 1.061 0.395" stroke="hsl(180.0,100%,35%)" stroke-width="0.00033"></path>
<path d="M0.888 0.836 Q0.986 0.462 0.279 0.333" stroke="hsl(180.0,100%,35%)" stroke-width="0.00033"></path>
<path d="M0.590 0.848 Q0.530 0.934 0.685 0.983" stroke="hsl(180.0,100%,35%)" stroke-width="0.00824"></path>
<path d="M0.590 0.848 Q1.007 0.537 0.491 0.265" stroke="hsl(180.0,100%,35%)" stroke-width="0.00198"></path>
<path d="M0.590 0.848 Q0.749 0.902 0.888 0.836" stroke="hsl(180.0,100%,35%)" stroke-width="0.00033"></path>
<path d="M0.590 0.848 Q1.188 0.716 1.061 0.395" stroke="hsl(180.0,100%,35%)" stroke-width="0.00099"></path>
<path d="M0.590 0.848 Q0.847 0.528 0.279 0.333" stroke="hsl(180.0,100%,35%)" stroke-width="0.00132"></path>
<path d="M0.590 0.848 Q1.300 0.580 0.932 0.174" stroke="hsl(180.0,100%,35%)" stroke-width="0.00165"></path>
<path d="M0.590 0.848 Q0.693 0.545 0.123 0.428" stroke="hsl(180.0,100%,35%)" stroke-width="0.00033"></path>
<path d="M0.590 0.848 Q1.058 0.840 1.145 0.610" stroke="hsl(180.0,100%,35%)" stroke-width="0.00033"></path>
<path d="M0.536 0.284 Q0.502 0.438 0.794 0.488" stroke="hsl(0.0,100%,35%)" stroke-width="0.00198"></path>
<path d="M0.536 0.284 Q1.032 0.669 1.891 0.511" stroke="hsl(0.0,100%,35%)" stroke-width="0.00033"></path>
<path d="M0.536 0.284 Q0.822 0.309 0.932 0.174" stroke="hsl(0.0,100%,35%)" stroke-width="0.00198"></path>
<path d="M0.536 0.284 Q0.656 0.518 1.140 0.511" stroke="hsl(0.0,100%,35%)" stroke-width="0.00033"></path>
<path d="M0.536 0.284 Q0.618 0.364 0.792 0.342" stroke="hsl(0.0,100%,35%)" stroke-width="0.00066"></path>
<path d="M0.536 0.284 Q0.710 0.445 1.061 0.395" stroke="hsl(0.0,100%,35%)" stroke-width="0.00033"></path>
<path d="M1.631 0.529 Q1.775 0.572 1.891 0.511" stroke="hsl(0.0,100%,35%)" stroke-width="0.01318"></path>
<path d="M1.631 0.529 Q1.758 0.384 1.504 0.291" stroke="hsl(0.0,100%,35%)" stroke-width="0.00033"></path>
<path d="M1.631 0.529 Q1.928 0.216 1.384 0.003" stroke="hsl(0.0,100%,35%)" stroke-width="0.00033"></path>
<path d="M1.631 0.529 Q1.565 0.212 0.932 0.174" stroke="hsl(0.0,100%,35%)" stroke-width="0.00132"></path>
<path d="M1.631 0.529 Q1.453 0.348 1.061 0.395" stroke="hsl(0.0,100%,35%)" stroke-width="0.01318"></path>
<path d="M1.631 0.529 Q1.267 0.191 0.527 0.294" stroke="hsl(0.0,100%,35%)" stroke-width="0.00066"></path>
<path d="M1.667 0.729 Q1.954 0.665 1.891 0.511" stroke="hsl(0.0,100%,35%)" stroke-width="0.01120"></path>
<path d="M1.667 0.729 Q1.632 0.441 1.061 0.395" stroke="hsl(0.0,100%,35%)" stroke-width="0.00824"></path>
<path d="M1.667 0.729 Q1.743 0.305 0.932 0.174" stroke="hsl(0.0,100%,35%)" stroke-width="0.00099"></path>
<path d="M1.667 0.729 Q1.539 0.361 0.792 0.342" stroke="hsl(0.0,100%,35%)" stroke-width="0.00033"></path>
<path d="M1.817 0.584 Q1.590 0.338 1.061 0.395" stroke="hsl(0.0,100%,35%)" stroke-width="0.00099"></path>
<path d="M1.817 0.584 Q1.249 0.151 0.279 0.333" stroke="hsl(0.0,100%,35%)" stroke-width="0.00132"></path>
<path d="M1.817 0.584 Q1.912 0.562 1.891 0.511" stroke="hsl(0.0,100%,35%)" stroke-width="0.00560"></path>
<path d="M1.817 0.584 Q1.702 0.202 0.932 0.174" stroke="hsl(0.0,100%,35%)" stroke-width="0.00330"></path>
<path d="M1.817 0.584 Q1.600 0.203 0.808 0.225" stroke="hsl(0.0,100%,35%)" stroke-width="0.00033"></path>
<path d="M1.817 0.584 Q2.066 0.207 1.384 0.003" stroke="hsl(0.0,100%,35%)" stroke-width="0.00099"></path>
<path d="M0.966 0.252 Q1.011 0.206 0.932 0.174" stroke="hsl(0.0,100%,35%)" stroke-width="0.00264"></path>
<path d="M0.966 0.252 Q1.221 0.566 1.891 0.511" stroke="hsl(0.0,100%,35%)" stroke-width="0.00198"></path>
<path d="M0.966 0.252 Q0.899 0.342 1.061 0.395" stroke="hsl(0.0,100%,35%)" stroke-width="0.00066"></path>
<path d="M1.035 0.920 Q0.973 0.492 0.123 0.428" stroke="hsl(180.0,100%,35%)" stroke-width="0.00033"></path>
<path d="M1.035 0.920 Q1.077 0.983 1.208 0.976" stroke="hsl(180.0,100%,35%)" stroke-width="0.00033"></path>
<path d="M1.035 0.920 Q0.810 0.881 0.685 0.983" stroke="hsl(180.0,100%,35%)" stroke-width="0.00165"></path>
<path d="M1.035 0.920 Q1.128 0.475 0.279 0.333" stroke="hsl(180.0,100%,35%)" stroke-width="0.00066"></path>
<path d="M1.035 0.920 Q1.030 0.848 0.888 0.836" stroke="hsl(180.0,100%,35%)" stroke-width="0.00066"></path>
<path d="M1.035 0.920 Q1.288 0.484 0.491 0.265" stroke="hsl(180.0,100%,35%)" stroke-width="0.00033"></path>
<path d="M1.208 0.976 Q1.711 0.520 0.932 0.174" stroke="hsl(180.0,100%,35%)" stroke-width="0.00198"></path>
<path d="M1.208 0.976 Q0.941 0.875 0.685 0.983" stroke="hsl(180.0,100%,35%)" stroke-width="0.00560"></path>
<path d="M1.208 0.976 Q1.001 0.789 0.590 0.848" stroke="hsl(180.0,100%,35%)" stroke-width="0.00033"></path>
<path d="M1.208 0.976 Q1.599 0.656 1.061 0.395" stroke="hsl(180.0,100%,35%)" stroke-width="0.00165"></path>
<path d="M1.208 0.976 Q1.469 0.780 1.145 0.610" stroke="hsl(180.0,100%,35%)" stroke-width="0.00033"></path>
<path d="M1.208 0.976 Q1.258 0.469 0.279 0.333" stroke="hsl(180.0,100%,35%)" stroke-width="0.00099"></path>
<path d="M1.208 0.976 Q1.104 0.485 0.123 0.428" stroke="hsl(180.0,100%,35%)" stroke-width="0.00132"></path>
<path d="M0.952 0.203 Q0.965 0.185 0.932 0.174" stroke="hsl(180.0,100%,35%)" stroke-width="0.00066"></path>
<path d="M0.952 0.203 Q0.512 0.133 0.279 0.333" stroke="hsl(180.0,100%,35%)" stroke-width="0.00033"></path>
<path d="M0.952 0.203 Q0.853 0.321 1.061 0.395" stroke="hsl(180.0,100%,35%)" stroke-width="0.00033"></path>
<path d="M0.910 0.771 Q0.853 0.871 1.035 0.920" stroke="hsl(180.0,100%,35%)" stroke-width="0.00033"></path>
<path d="M0.910 0.771 Q0.628 0.832 0.685 0.983" stroke="hsl(180.0,100%,35%)" stroke-width="0.00033"></path>
<path d="M0.910 0.771 Q1.287 0.613 1.061 0.395" stroke="hsl(180.0,100%,35%)" stroke-width="0.00033"></path>
<path d="M1.290 0.316 Q1.113 0.310 1.061 0.395" stroke="hsl(0.0,100%,35%)" stroke-width="0.00099"></path>
<path d="M1.290 0.316 Q1.435 0.534 1.891 0.511" stroke="hsl(0.0,100%,35%)" stroke-width="0.00033"></path>
<path d="M1.290 0.316 Q1.224 0.174 0.932 0.174" stroke="hsl(0.0,100%,35%)" stroke-width="0.00033"></path>
<path d="M0.527 0.294 Q1.035 0.675 1.891 0.511" stroke="hsl(0.0,100%,35%)" stroke-width="0.00099"></path>
<path d="M0.527 0.294 Q0.506 0.444 0.794 0.488" stroke="hsl(0.0,100%,35%)" stroke-width="0.00165"></path>
<path d="M0.527 0.294 Q0.713 0.451 1.061 0.395" stroke="hsl(0.0,100%,35%)" stroke-width="0.00033"></path>
<path d="M0.527 0.294 Q0.788 0.399 1.049 0.295" stroke="hsl(0.0,100%,35%)" stroke-width="0.00132"></path>
<path d="M0.527 0.294 Q0.621 0.371 0.792 0.342" stroke="hsl(0.0,100%,35%)" stroke-width="0.00033"></path>
<path d="M1.290 0.221 Q0.695 0.075 0.279 0.333" stroke="hsl(0.0,100%,35%)" stroke-width="0.00330"></path>
<path d="M1.290 0.221 Q1.148 0.126 0.932 0.174" stroke="hsl(0.0,100%,35%)" stroke-width="0.00890"></path>
<path d="M1.290 0.221 Q1.036 0.262 1.061 0.395" stroke="hsl(0.0,100%,35%)" stroke-width="0.00165"></path>
<path d="M1.290 0.221 Q0.906 0.386 1.145 0.610" stroke="hsl(0.0,100%,35%)" stroke-width="0.00033"></path>
<path d="M1.290 0.221 Q0.378 0.481 0.685 0.983" stroke="hsl(0.0,100%,35%)" stroke-width="0.00033"></path>
<path d="M1.208 0.183 Q1.077 0.123 0.932 0.174" stroke="hsl(0.0,100%,35%)" stroke-width="0.00066"></path>
<path d="M1.208 0.183 Q0.873 0.179 0.792 0.342" stroke="hsl(0.0,100%,35%)" stroke-width="0.00033"></path>
<path d="M1.208 0.183 Q0.965 0.259 1.061 0.395" stroke="hsl(0.0,100%,35%)" stroke-width="0.00033"></path>
<path d="M0.597 0.740 Q1.217 0.524 0.932 0.174" stroke="hsl(180.0,100%,35%)" stroke-width="0.00033"></path>
<path d="M0.597 0.740 Q0.764 0.473 0.279 0.333" stroke="hsl(180.0,100%,35%)" stroke-width="0.00033"></path>
<path d="M0.597 0.740 Q0.556 0.717 0.501 0.731" stroke="hsl(180.0,100%,35%)" stroke-width="0.00033"></path>
<path d="M0.752 0.195 Q0.655 0.277 0.792 0.342" stroke="hsl(0.0,100%,35%)" stroke-width="0.00165"></path>
<path d="M0.752 0.195 Q0.859 0.221 0.932 0.174" stroke="hsl(0.0,100%,35%)" stroke-width="0.00132"></path>
<path d="M0.752 0.195 Q0.854 0.108 0.706 0.039" stroke="hsl(0.0,100%,35%)" stroke-width="0.00033"></path>
<path d="M0.752 0.195 Q0.747 0.357 1.061 0.395" stroke="hsl(0.0,100%,35%)" stroke-width="0.00099"></path>
<path d="M0.752 0.195 Q0.406 0.169 0.279 0.333" stroke="hsl(0.0,100%,35%)" stroke-width="0.00033"></path>
<path d="M0.858 0.246 Q0.499 0.173 0.279 0.333" stroke="hsl(0.0,100%,35%)" stroke-width="0.00033"></path>
<path d="M0.858 0.246 Q0.952 0.225 0.932 0.174" stroke="hsl(0.0,100%,35%)" stroke-width="0.01549"></path>
<path d="M0.858 0.246 Q0.748 0.281 0.792 0.342" stroke="hsl(0.0,100%,35%)" stroke-width="0.01285"></path>
<path d="M0.858 0.246 Q0.633 0.354 0.794 0.488" stroke="hsl(0.0,100%,35%)" stroke-width="0.00033"></path>
<path d="M0.212 0.583 Q0.151 0.627 0.224 0.666" stroke="hsl(0.0,100%,35%)" stroke-width="0.00033"></path>
<path d="M0.212 0.583 Q0.657 0.783 1.145 0.610" stroke="hsl(0.0,100%,35%)" stroke-width="0.00033"></path>
<path d="M0.212 0.583 Q0.787 0.659 1.061 0.395" stroke="hsl(0.0,100%,35%)" stroke-width="0.00033"></path>
<path d="M1.646 0.504 Q1.762 0.557 1.891 0.511" stroke="hsl(0.0,100%,35%)" stroke-width="0.00132"></path>
<path d="M1.646 0.504 Q1.552 0.196 0.932 0.174" stroke="hsl(0.0,100%,35%)" stroke-width="0.00066"></path>
<path d="M1.646 0.504 Q1.916 0.201 1.384 0.003" stroke="hsl(0.0,100%,35%)" stroke-width="0.00066"></path>
<path d="M1.646 0.504 Q1.441 0.332 1.061 0.395" stroke="hsl(0.0,100%,35%)" stroke-width="0.00033"></path>
<path d="M0.287 0.835 Q0.685 0.582 0.279 0.333" stroke="hsl(180.0,100%,35%)" stroke-width="0.00033"></path>
<path d="M0.287 0.835 Q0.245 0.780 0.127 0.788" stroke="hsl(180.0,100%,35%)" stroke-width="0.00033"></path>
<path d="M0.287 0.835 Q1.026 0.770 1.061 0.395" stroke="hsl(180.0,100%,35%)" stroke-width="0.00033"></path>
<path d="M0.525 0.504 Q0.880 0.556 1.061 0.395" stroke="hsl(180.0,100%,35%)" stroke-width="0.00033"></path>
<path d="M0.525 0.504 Q0.411 0.526 0.428 0.586" stroke="hsl(180.0,100%,35%)" stroke-width="0.00033"></path>
<path d="M0.525 0.504 Q0.385 0.385 0.123 0.428" stroke="hsl(180.0,100%,35%)" stroke-width="0.00033"></path>
<path d="M1.282 0.193 Q1.122 0.114 0.932 0.174" stroke="hsl(0.0,100%,35%)" stroke-width="0.00099"></path>
<path d="M1.282 0.193 Q0.803 0.243 0.794 0.488" stroke="hsl(0.0,100%,35%)" stroke-width="0.00066"></path>
<path d="M1.282 0.193 Q1.049 0.163 0.939 0.271" stroke="hsl(0.0,100%,35%)" stroke-width="0.00033"></path>
<path d="M1.430 0.648 Q1.317 0.572 1.145 0.610" stroke="hsl(0.0,100%,35%)" stroke-width="0.00033"></path>
<path d="M1.430 0.648 Q0.789 0.666 0.685 0.983" stroke="hsl(0.0,100%,35%)" stroke-width="0.00033"></path>
<path d="M1.430 0.648 Q1.448 0.448 1.061 0.395" stroke="hsl(0.0,100%,35%)" stroke-width="0.00099"></path>
<path d="M1.430 0.648 Q1.355 0.367 0.792 0.342" stroke="hsl(0.0,100%,35%)" stroke-width="0.00033"></path>
<path d="M1.199 0.083 Q0.385 0.040 0.123 0.428" stroke="hsl(180.0,100%,35%)" stroke-width="0.00066"></path>
<path d="M1.199 0.083 Q0.992 0.075 0.932 0.174" stroke="hsl(180.0,100%,35%)" stroke-width="0.00132"></path>
<path d="M1.199 0.083 Q0.540 0.024 0.279 0.333" stroke="hsl(180.0,100%,35%)" stroke-width="0.00099"></path>
<path d="M0.971 0.399 Q1.020 0.415 1.061 0.395" stroke="hsl(0.0,100%,35%)" stroke-width="0.00066"></path>
<path d="M0.971 0.399 Q1.342 0.639 1.891 0.511" stroke="hsl(0.0,100%,35%)" stroke-width="0.00033"></path>
<path d="M0.971 0.399 Q1.132 0.279 0.932 0.174" stroke="hsl(0.0,100%,35%)" stroke-width="0.00033"></path>
<path d="M0.971 0.399 Q0.679 0.228 0.279 0.333" stroke="hsl(0.0,100%,35%)" stroke-width="0.00033"></path>
<path d="M1.956 0.597 Q1.782 0.181 0.932 0.174" stroke="hsl(0.0,100%,35%)" stroke-width="0.00066"></path>
<path d="M1.956 0.597 Q1.992 0.541 1.891 0.511" stroke="hsl(0.0,100%,35%)" stroke-width="0.00198"></path>
<path d="M1.956 0.597 Q1.330 0.130 0.279 0.333" stroke="hsl(0.0,100%,35%)" stroke-width="0.00099"></path>
<path d="M1.424 0.395 Q0.902 0.135 0.279 0.333" stroke="hsl(180.0,100%,35%)" stroke-width="0.00066"></path>
<path d="M1.424 0.395 Q0.585 0.541 0.685 0.983" stroke="hsl(180.0,100%,35%)" stroke-width="0.00033"></path>
<path d="M1.424 0.395 Q1.243 0.322 1.061 0.395" stroke="hsl(180.0,100%,35%)" stroke-width="0.00066"></path>
<path d="M1.424 0.395 Q1.355 0.186 0.932 0.174" stroke="hsl(180.0,100%,35%)" stroke-width="0.00033"></path>
<path d="M1.085 0.205 Q0.921 0.295 1.061 0.395" stroke="hsl(0.0,100%,35%)" stroke-width="0.00033"></path>
<path d="M1.085 0.205 Q1.033 0.159 0.932 0.174" stroke="hsl(0.0,100%,35%)" stroke-width="0.00066"></path>
<path d="M1.085 0.205 Q0.829 0.215 0.792 0.342" stroke="hsl(0.0,100%,35%)" stroke-width="0.00033"></path>
<path d="M1.107 0.038 Q0.910 0.071 0.932 0.174" stroke="hsl(0.0,100%,35%)" stroke-width="0.00330"></path>
<path d="M1.107 0.038 Q1.222 0.070 1.311 0.022" stroke="hsl(0.0,100%,35%)" stroke-width="0.00198"></path>
<path d="M1.107 0.038 Q0.591 0.200 0.794 0.488" stroke="hsl(0.0,100%,35%)" stroke-width="0.00066"></path>
<path d="M1.107 0.038 Q1.120 0.431 1.891 0.511" stroke="hsl(0.0,100%,35%)" stroke-width="0.00033"></path>
<path d="M1.107 0.038 Q1.286 0.151 1.545 0.088" stroke="hsl(0.0,100%,35%)" stroke-width="0.00165"></path>
<path d="M1.107 0.038 Q0.798 0.207 1.061 0.395" stroke="hsl(0.0,100%,35%)" stroke-width="0.00066"></path>
<path d="M1.107 0.038 Q1.032 0.249 1.428 0.332" stroke="hsl(0.0,100%,35%)" stroke-width="0.00066"></path>
<path d="M0.887 0.986 Q0.788 0.944 0.685 0.983" stroke="hsl(180.0,100%,35%)" stroke-width="0.00099"></path>
<path d="M0.887 0.986 Q1.485 0.639 0.939 0.271" stroke="hsl(180.0,100%,35%)" stroke-width="0.00033"></path>
<path d="M0.887 0.986 Q1.317 0.850 1.145 0.610" stroke="hsl(180.0,100%,35%)" stroke-width="0.00033"></path>
<path d="M0.053 0.276 Q0.574 0.401 0.932 0.174" stroke="hsl(0.0,100%,35%)" stroke-width="0.00033"></path>
<path d="M0.053 0.276 Q0.108 0.253 0.074 0.221" stroke="hsl(0.0,100%,35%)" stroke-width="0.00033"></path>
<path d="M0.053 0.276 Q0.462 0.537 1.061 0.395" stroke="hsl(0.0,100%,35%)" stroke-width="0.00033"></path>
<path d="M0.402 0.937 Q0.507 1.016 0.685 0.983" stroke="hsl(180.0,100%,35%)" stroke-width="0.00033"></path>
<path d="M0.402 0.937 Q0.670 0.626 0.123 0.428" stroke="hsl(180.0,100%,35%)" stroke-width="0.00033"></path>
</g>
<text x="1.049" y="0.274" font-size="0.041619" fill="hsl(0.0,100%,20%)">abdolrashidi</text>
<text x="0.792" y="0.312" font-size="0.059474" fill="hsl(0.0,100%,20%)">cclao</text>
<text x="0.932" y="0.130" font-size="0.088412" fill="hsl(0.0,100%,20%)">syoussefi</text>
<text x="1.891" y="0.484" font-size="0.054559" fill="hsl(0.0,100%,20%)">cnorthrop</text>
<text x="0.959" y="0.214" font-size="0.003815" fill="hsl(0.0,100%,20%)">ineula</text>
<text x="0.955" y="0.435" font-size="0.003815" fill="hsl(0.0,100%,20%)">kaiyili</text>
<text x="0.794" y="0.464" font-size="0.048335" fill="hsl(0.0,100%,20%)">yuxinhu</text>
<text x="1.140" y="0.490" font-size="0.041707" fill="hsl(0.0,100%,20%)">romanl</text>
<text x="1.384" y="-0.010" font-size="0.025451" fill="hsl(0.0,100%,20%)">ianelliott</text>
<text x="1.145" y="0.594" font-size="0.032373" fill="hsl(0.0,100%,20%)">ynovikov</text>
<text x="1.061" y="0.357" font-size="0.075055" fill="hsl(0.0,100%,20%)">jmadill</text>
<text x="0.279" y="0.313" font-size="0.039095" fill="hsl(180.0,100%,20%)">geofflang</text>
<text x="0.643" y="0.196" font-size="0.005396" fill="hsl(0.0,100%,20%)">aeubanks</text>
<text x="1.428" y="0.324" font-size="0.017691" fill="hsl(0.0,100%,20%)">antonio.caggiano</text>
<text x="1.545" y="0.082" font-size="0.012363" fill="hsl(0.0,100%,20%)">j.vigil</text>
<text x="1.759" y="0.348" font-size="0.005396" fill="hsl(0.0,100%,20%)">ayzhao</text>
<text x="1.726" y="0.225" font-size="0.002698" fill="hsl(0.0,100%,20%)">hans</text>
<text x="1.864" y="0.305" font-size="0.003815" fill="hsl(0.0,100%,20%)">thakis</text>
<text x="1.290" y="0.304" font-size="0.013489" fill="hsl(0.0,100%,20%)">b.schade</text>
<text x="0.346" y="0.429" font-size="0.025735" fill="hsl(180.0,100%,20%)">lexa.knyazev</text>
<text x="1.504" y="0.287" font-size="0.007630" fill="hsl(0.0,100%,20%)">vantablack</text>
<text x="1.311" y="0.008" font-size="0.027644" fill="hsl(0.0,100%,20%)">m.maiya</text>
<text x="0.538" y="0.629" font-size="0.005396" fill="hsl(180.0,100%,20%)">boliu</text>
<text x="0.808" y="0.216" font-size="0.017895" fill="hsl(0.0,100%,20%)">lfy</text>
<text x="0.428" y="0.584" font-size="0.004673" fill="hsl(180.0,100%,20%)">vasilyt</text>
<text x="0.832" y="0.592" font-size="0.007630" fill="hsl(180.0,100%,20%)">brianosman</text>
<text x="0.685" y="0.966" font-size="0.032820" fill="hsl(180.0,100%,20%)">kbr</text>
<text x="1.122" y="0.731" font-size="0.010094" fill="hsl(0.0,100%,20%)">bsheedy</text>
<text x="1.322" y="0.727" font-size="0.002698" fill="hsl(0.0,100%,20%)">rogerta</text>
<text x="0.307" y="0.241" font-size="0.010448" fill="hsl(180.0,100%,20%)">capn</text>
<text x="1.102" y="0.313" font-size="0.004673" fill="hsl(180.0,100%,20%)">sugoi</text>
<text x="0.123" y="0.419" font-size="0.018097" fill="hsl(180.0,100%,20%)">jonahr</text>
<text x="1.262" y="-0.034" font-size="0.004673" fill="hsl(0.0,100%,20%)">natsu</text>
<text x="1.335" y="0.196" font-size="0.014275" fill="hsl(0.0,100%,20%)">zzyiwei</text>
<text x="0.939" y="0.257" font-size="0.027246" fill="hsl(180.0,100%,20%)">chris</text>
<text x="0.747" y="0.287" font-size="0.006032" fill="hsl(180.0,100%,20%)">rafael.cintron</text>
<text x="1.380" y="0.420" font-size="0.017062" fill="hsl(0.0,100%,20%)">senorblanco</text>
<text x="0.771" y="0.197" font-size="0.014018" fill="hsl(180.0,100%,20%)">steven</text>
<text x="0.491" y="0.257" font-size="0.015021" fill="hsl(180.0,100%,20%)">kpiddington</text>
<text x="0.888" y="0.830" font-size="0.011123" fill="hsl(180.0,100%,20%)">lehoangquyen</text>
<text x="0.590" y="0.837" font-size="0.021750" fill="hsl(180.0,100%,20%)">gman</text>
<text x="0.536" y="0.278" font-size="0.012065" fill="hsl(0.0,100%,20%)">solti</text>
<text x="1.631" y="0.516" font-size="0.025876" fill="hsl(0.0,100%,20%)">gert.wollny</text>
<text x="1.667" y="0.718" font-size="0.022409" fill="hsl(0.0,100%,20%)">lubosz.sarnecki</text>
<text x="1.817" y="0.575" font-size="0.016848" fill="hsl(0.0,100%,20%)">eddiehatfield</text>
<text x="0.966" y="0.246" font-size="0.011123" fill="hsl(0.0,100%,20%)">constantine.shablya</text>
<text x="1.035" y="0.915" font-size="0.009727" fill="hsl(180.0,100%,20%)">djg</text>
<text x="1.208" y="0.967" font-size="0.017274" fill="hsl(180.0,100%,20%)">kkinnunen</text>
<text x="0.952" y="0.200" font-size="0.005396" fill="hsl(180.0,100%,20%)">dnfield</text>
<text x="0.910" y="0.769" font-size="0.004673" fill="hsl(180.0,100%,20%)">doremylover123</text>
<text x="1.290" y="0.313" font-size="0.006608" fill="hsl(0.0,100%,20%)">doughorn</text>
<text x="0.527" y="0.289" font-size="0.010791" fill="hsl(0.0,100%,20%)">ffz</text>
<text x="0.215" y="0.481" font-size="0.003815" fill="hsl(180.0,100%,20%)">hob</text>
<text x="1.290" y="0.211" font-size="0.019076" fill="hsl(0.0,100%,20%)">penghuang</text>
<text x="1.208" y="0.180" font-size="0.006032" fill="hsl(0.0,100%,20%)">gregschlom</text>
<text x="0.597" y="0.738" font-size="0.004673" fill="hsl(180.0,100%,20%)">grt</text>
<text x="0.501" y="0.730" font-size="0.002698" fill="hsl(180.0,100%,20%)">jpmuraira</text>
<text x="0.752" y="0.190" font-size="0.010094" fill="hsl(0.0,100%,20%)">hailinzhang</text>
<text x="0.706" y="0.038" font-size="0.002698" fill="hsl(0.0,100%,20%)">mprzybyl</text>
<text x="0.858" y="0.233" font-size="0.025307" fill="hsl(0.0,100%,20%)">i.nazarov</text>
<text x="0.674" y="0.061" font-size="0.005396" fill="hsl(0.0,100%,20%)">chrisforbes</text>
<text x="1.465" y="0.334" font-size="0.003815" fill="hsl(0.0,100%,20%)">jie.a.chen</text>
<text x="0.212" y="0.580" font-size="0.004673" fill="hsl(0.0,100%,20%)">jwata</text>
<text x="0.224" y="0.665" font-size="0.002698" fill="hsl(0.0,100%,20%)">tikuta</text>
<text x="1.646" y="0.500" font-size="0.008093" fill="hsl(0.0,100%,20%)">mark</text>
<text x="0.287" y="0.833" font-size="0.004673" fill="hsl(180.0,100%,20%)">mfoltz</text>
<text x="0.127" y="0.787" font-size="0.002698" fill="hsl(180.0,100%,20%)">rwkeane</text>
<text x="0.525" y="0.501" font-size="0.004673" fill="hsl(180.0,100%,20%)">nazabris</text>
<text x="1.282" y="0.190" font-size="0.007630" fill="hsl(0.0,100%,20%)">olv</text>
<text x="1.430" y="0.644" font-size="0.006608" fill="hsl(0.0,100%,20%)">pkasting</text>
<text x="1.199" y="0.079" font-size="0.008093" fill="hsl(180.0,100%,20%)">robert.mader</text>
<text x="1.410" y="0.500" font-size="0.002698" fill="hsl(0.0,100%,20%)">kainino</text>
<text x="0.971" y="0.396" font-size="0.006032" fill="hsl(0.0,100%,20%)">sharma.loic</text>
<text x="1.956" y="0.593" font-size="0.008948" fill="hsl(0.0,100%,20%)">srisser</text>
<text x="1.424" y="0.392" font-size="0.006608" fill="hsl(180.0,100%,20%)">sunnyps</text>
<text x="1.085" y="0.202" font-size="0.006032" fill="hsl(0.0,100%,20%)">timvp</text>
<text x="1.186" y="0.187" font-size="0.002698" fill="hsl(0.0,100%,20%)">nicolascapens</text>
<text x="1.107" y="0.030" font-size="0.014275" fill="hsl(0.0,100%,20%)">sywow.choi</text>
<text x="0.887" y="0.983" font-size="0.006032" fill="hsl(180.0,100%,20%)">tvignatti</text>
<text x="0.053" y="0.274" font-size="0.004673" fill="hsl(0.0,100%,20%)">xing.xu</text>
<text x="0.074" y="0.219" font-size="0.002698" fill="hsl(0.0,100%,20%)">jiajia.qin</text>
<text x="0.402" y="0.935" font-size="0.003815" fill="hsl(180.0,100%,20%)">yahan</text>
</svg>
