<svg width="4000" height="2000" viewBox="-0.025 -0.025 2.05 1.05" xmlns="http://www.w3.org/2000/svg">
  <style>
    path {
      fill: none;
      stroke-linecap: round;
      stroke-opacity: 0.4;
    }

    text {
      text-anchor: middle;
      alignment-baseline: hanging;
    }
  </style>
  <g opacity="0.4">
<path d="M1.622 0.043 Q1.601 0.080 1.669 0.099" stroke="hsl(0.0,100%,35%)" stroke-width="0.01940"></path>
<path d="M1.622 0.043 Q1.198 0.030 1.080 0.234" stroke="hsl(0.0,100%,35%)" stroke-width="0.00485"></path>
<path d="M1.622 0.043 Q1.490 0.277 1.919 0.393" stroke="hsl(0.0,100%,35%)" stroke-width="0.00485"></path>
<path d="M1.919 0.393 Q1.724 0.390 1.675 0.484" stroke="hsl(0.0,100%,35%)" stroke-width="0.03395"></path>
<path d="M1.919 0.393 Q2.083 0.284 1.907 0.180" stroke="hsl(0.0,100%,35%)" stroke-width="0.02425"></path>
<path d="M1.919 0.393 Q2.029 0.196 1.669 0.099" stroke="hsl(0.0,100%,35%)" stroke-width="0.03881"></path>
<path d="M1.919 0.393 Q1.698 0.243 1.357 0.318" stroke="hsl(0.0,100%,35%)" stroke-width="0.02425"></path>
<path d="M1.919 0.393 Q1.627 0.146 1.080 0.234" stroke="hsl(0.0,100%,35%)" stroke-width="0.00485"></path>
<path d="M1.919 0.393 Q1.009 0.411 0.845 0.859" stroke="hsl(0.0,100%,35%)" stroke-width="0.00485"></path>
<path d="M1.907 0.180 Q1.743 0.289 1.919 0.393" stroke="hsl(0.0,100%,35%)" stroke-width="0.01940"></path>
<path d="M1.907 0.180 Q1.851 0.183 1.843 0.211" stroke="hsl(0.0,100%,35%)" stroke-width="0.00485"></path>
<path d="M1.907 0.180 Q0.833 0.307 0.845 0.859" stroke="hsl(0.0,100%,35%)" stroke-width="0.00485"></path>
<path d="M1.605 0.257 Q1.654 0.388 1.919 0.393" stroke="hsl(0.0,100%,35%)" stroke-width="0.01940"></path>
<path d="M1.605 0.257 Q0.744 0.406 0.845 0.859" stroke="hsl(0.0,100%,35%)" stroke-width="0.01455"></path>
<path d="M1.605 0.257 Q1.033 0.405 1.195 0.716" stroke="hsl(0.0,100%,35%)" stroke-width="0.00485"></path>
<path d="M1.195 0.716 Q1.767 0.569 1.605 0.257" stroke="hsl(0.0,100%,35%)" stroke-width="0.00485"></path>
<path d="M1.195 0.716 Q0.906 0.718 0.845 0.859" stroke="hsl(0.0,100%,35%)" stroke-width="0.00970"></path>
<path d="M1.195 0.716 Q1.816 0.699 1.919 0.393" stroke="hsl(0.0,100%,35%)" stroke-width="0.00970"></path>
<path d="M1.598 0.237 Q1.223 0.270 1.207 0.460" stroke="hsl(0.0,100%,35%)" stroke-width="0.00970"></path>
<path d="M1.598 0.237 Q1.633 0.379 1.919 0.393" stroke="hsl(0.0,100%,35%)" stroke-width="0.02910"></path>
<path d="M1.598 0.237 Q1.395 0.454 1.775 0.601" stroke="hsl(0.0,100%,35%)" stroke-width="0.00485"></path>
<path d="M1.598 0.237 Q1.797 0.270 1.907 0.180" stroke="hsl(0.0,100%,35%)" stroke-width="0.00485"></path>
<path d="M1.598 0.237 Q1.412 0.229 1.357 0.318" stroke="hsl(0.0,100%,35%)" stroke-width="0.00485"></path>
<path d="M1.357 0.318 Q1.578 0.468 1.919 0.393" stroke="hsl(0.0,100%,35%)" stroke-width="0.03881"></path>
<path d="M1.357 0.318 Q1.286 0.221 1.080 0.234" stroke="hsl(0.0,100%,35%)" stroke-width="0.01940"></path>
<path d="M1.357 0.318 Q1.504 0.169 1.246 0.064" stroke="hsl(0.0,100%,35%)" stroke-width="0.01455"></path>
<path d="M1.357 0.318 Q1.742 0.359 1.907 0.180" stroke="hsl(0.0,100%,35%)" stroke-width="0.00970"></path>
<path d="M1.357 0.318 Q1.193 0.127 0.785 0.166" stroke="hsl(0.0,100%,35%)" stroke-width="0.00485"></path>
<path d="M1.675 0.484 Q1.870 0.487 1.919 0.393" stroke="hsl(0.0,100%,35%)" stroke-width="0.00485"></path>
<path d="M1.675 0.484 Q1.796 0.189 1.246 0.064" stroke="hsl(0.0,100%,35%)" stroke-width="0.00970"></path>
<path d="M1.675 0.484 Q1.492 0.471 1.426 0.557" stroke="hsl(0.0,100%,35%)" stroke-width="0.00485"></path>
</g>
<text x="1.622" y="0.024" font-size="0.037573" fill="hsl(0.0,100%,20%)">chrisforbes</text>
<text x="1.669" y="0.072" font-size="0.053137" fill="hsl(0.0,100%,20%)">cclao</text>
<text x="1.080" y="0.215" font-size="0.037573" fill="hsl(0.0,100%,20%)">cnorthrop</text>
<text x="1.919" y="0.337" font-size="0.111672" fill="hsl(0.0,100%,20%)">syoussefi</text>
<text x="1.907" y="0.151" font-size="0.057394" fill="hsl(0.0,100%,20%)">geofflang</text>
<text x="1.843" y="0.203" font-size="0.015339" fill="hsl(0.0,100%,20%)">penghuang</text>
<text x="0.845" y="0.839" font-size="0.040584" fill="hsl(0.0,100%,20%)">kbr</text>
<text x="1.605" y="0.234" font-size="0.046018" fill="hsl(0.0,100%,20%)">kkinnunen</text>
<text x="1.195" y="0.697" font-size="0.037573" fill="hsl(0.0,100%,20%)">lexa.knyazev</text>
<text x="1.598" y="0.211" font-size="0.050875" fill="hsl(0.0,100%,20%)">liza</text>
<text x="1.207" y="0.449" font-size="0.021693" fill="hsl(0.0,100%,20%)">mpdenton</text>
<text x="1.775" y="0.594" font-size="0.015339" fill="hsl(0.0,100%,20%)">sokcevic</text>
<text x="1.357" y="0.280" font-size="0.075147" fill="hsl(0.0,100%,20%)">romanl</text>
<text x="1.246" y="0.047" font-size="0.034300" fill="hsl(0.0,100%,20%)">abdolrashidi</text>
<text x="0.785" y="0.158" font-size="0.015339" fill="hsl(0.0,100%,20%)">ynovikov</text>
<text x="1.675" y="0.459" font-size="0.050875" fill="hsl(0.0,100%,20%)">yuxinhu</text>
<text x="1.426" y="0.549" font-size="0.015339" fill="hsl(0.0,100%,20%)">lpy</text>
</svg>
