<svg width="4000" height="2000" viewBox="-0.025 -0.025 2.05 1.05" xmlns="http://www.w3.org/2000/svg">
  <style>
    path {
      fill: none;
      stroke-linecap: round;
      stroke-opacity: 0.4;
    }

    text {
      text-anchor: middle;
      alignment-baseline: hanging;
    }
  </style>
  <g opacity="0.4">
<path d="M0.227 0.643 Q0.079 0.800 0.352 0.906" stroke="hsl(0.0,100%,35%)" stroke-width="0.00754"></path>
<path d="M0.227 0.643 Q0.110 0.707 0.208 0.778" stroke="hsl(0.0,100%,35%)" stroke-width="0.01475"></path>
<path d="M0.227 0.643 Q0.523 0.820 0.934 0.715" stroke="hsl(0.0,100%,35%)" stroke-width="0.00098"></path>
<path d="M0.227 0.643 Q0.299 0.540 0.112 0.482" stroke="hsl(0.0,100%,35%)" stroke-width="0.00066"></path>
<path d="M0.227 0.643 Q0.188 0.577 0.049 0.581" stroke="hsl(0.0,100%,35%)" stroke-width="0.00066"></path>
<path d="M0.227 0.643 Q0.313 0.708 0.459 0.680" stroke="hsl(0.0,100%,35%)" stroke-width="0.00033"></path>
<path d="M0.227 0.643 Q0.849 0.785 1.262 0.513" stroke="hsl(0.0,100%,35%)" stroke-width="0.00066"></path>
<path d="M0.227 0.643 Q0.288 0.610 0.236 0.573" stroke="hsl(0.0,100%,35%)" stroke-width="0.00033"></path>
<path d="M0.227 0.643 Q0.672 0.834 1.141 0.659" stroke="hsl(0.0,100%,35%)" stroke-width="0.00033"></path>
<path d="M0.227 0.643 Q0.559 0.930 1.191 0.831" stroke="hsl(0.0,100%,35%)" stroke-width="0.00295"></path>
<path d="M0.227 0.643 Q1.097 0.808 1.609 0.420" stroke="hsl(0.0,100%,35%)" stroke-width="0.00066"></path>
<path d="M0.352 0.906 Q0.382 0.813 0.208 0.778" stroke="hsl(0.0,100%,35%)" stroke-width="0.03441"></path>
<path d="M0.352 0.906 Q0.586 0.815 0.459 0.680" stroke="hsl(0.0,100%,35%)" stroke-width="0.01770"></path>
<path d="M0.352 0.906 Q0.500 0.750 0.227 0.643" stroke="hsl(0.0,100%,35%)" stroke-width="0.01344"></path>
<path d="M0.352 0.906 Q0.862 0.775 0.718 0.496" stroke="hsl(0.0,100%,35%)" stroke-width="0.00033"></path>
<path d="M0.352 0.906 Q0.732 0.760 0.529 0.542" stroke="hsl(0.0,100%,35%)" stroke-width="0.00033"></path>
<path d="M0.352 0.906 Q0.944 0.941 1.141 0.659" stroke="hsl(0.0,100%,35%)" stroke-width="0.00066"></path>
<path d="M0.352 0.906 Q0.561 0.717 0.236 0.573" stroke="hsl(0.0,100%,35%)" stroke-width="0.00623"></path>
<path d="M0.352 0.906 Q0.759 0.691 0.428 0.445" stroke="hsl(0.0,100%,35%)" stroke-width="0.00066"></path>
<path d="M0.352 0.906 Q1.370 0.915 1.609 0.420" stroke="hsl(0.0,100%,35%)" stroke-width="0.00033"></path>
<path d="M0.352 0.906 Q0.308 0.835 0.158 0.840" stroke="hsl(0.0,100%,35%)" stroke-width="0.00066"></path>
<path d="M0.352 0.906 Q0.832 1.036 1.191 0.831" stroke="hsl(0.0,100%,35%)" stroke-width="0.00918"></path>
<path d="M0.352 0.906 Q1.126 1.081 1.636 0.741" stroke="hsl(0.0,100%,35%)" stroke-width="0.00066"></path>
<path d="M0.352 0.906 Q0.796 0.927 0.934 0.715" stroke="hsl(0.0,100%,35%)" stroke-width="0.00098"></path>
<path d="M0.208 0.778 Q0.177 0.871 0.352 0.906" stroke="hsl(0.0,100%,35%)" stroke-width="0.02654"></path>
<path d="M0.208 0.778 Q0.386 0.681 0.236 0.573" stroke="hsl(0.0,100%,35%)" stroke-width="0.00590"></path>
<path d="M0.208 0.778 Q0.951 1.045 1.636 0.741" stroke="hsl(0.0,100%,35%)" stroke-width="0.00229"></path>
<path d="M0.208 0.778 Q0.272 0.693 0.121 0.643" stroke="hsl(0.0,100%,35%)" stroke-width="0.00098"></path>
<path d="M0.208 0.778 Q1.195 0.879 1.609 0.420" stroke="hsl(0.0,100%,35%)" stroke-width="0.00393"></path>
<path d="M0.208 0.778 Q0.411 0.779 0.459 0.680" stroke="hsl(0.0,100%,35%)" stroke-width="0.02327"></path>
<path d="M0.208 0.778 Q0.769 0.905 1.141 0.659" stroke="hsl(0.0,100%,35%)" stroke-width="0.00426"></path>
<path d="M0.208 0.778 Q0.325 0.715 0.227 0.643" stroke="hsl(0.0,100%,35%)" stroke-width="0.01966"></path>
<path d="M0.208 0.778 Q0.657 1.001 1.191 0.831" stroke="hsl(0.0,100%,35%)" stroke-width="0.03670"></path>
<path d="M0.208 0.778 Q0.621 0.892 0.934 0.715" stroke="hsl(0.0,100%,35%)" stroke-width="0.01147"></path>
<path d="M0.208 0.778 Q0.947 0.856 1.262 0.513" stroke="hsl(0.0,100%,35%)" stroke-width="0.00197"></path>
<path d="M0.208 0.778 Q0.584 0.656 0.428 0.445" stroke="hsl(0.0,100%,35%)" stroke-width="0.00328"></path>
<path d="M0.208 0.778 Q0.973 0.672 0.935 0.276" stroke="hsl(0.0,100%,35%)" stroke-width="0.00066"></path>
<path d="M0.208 0.778 Q0.782 0.662 0.682 0.356" stroke="hsl(0.0,100%,35%)" stroke-width="0.00033"></path>
<path d="M0.208 0.778 Q0.949 0.927 1.403 0.598" stroke="hsl(0.0,100%,35%)" stroke-width="0.00066"></path>
<path d="M0.208 0.778 Q0.364 0.890 0.616 0.838" stroke="hsl(0.0,100%,35%)" stroke-width="0.00033"></path>
<path d="M0.208 0.778 Q0.740 0.834 0.965 0.586" stroke="hsl(0.0,100%,35%)" stroke-width="0.00033"></path>
<path d="M0.208 0.778 Q1.324 0.804 1.619 0.265" stroke="hsl(0.0,100%,35%)" stroke-width="0.00066"></path>
<path d="M0.208 0.778 Q0.688 0.739 0.718 0.496" stroke="hsl(0.0,100%,35%)" stroke-width="0.00033"></path>
<path d="M0.208 0.778 Q0.464 0.745 0.456 0.613" stroke="hsl(0.0,100%,35%)" stroke-width="0.00033"></path>
<path d="M0.208 0.778 Q1.206 0.783 1.435 0.297" stroke="hsl(0.0,100%,35%)" stroke-width="0.00033"></path>
<path d="M0.208 0.778 Q0.640 0.784 0.746 0.575" stroke="hsl(0.0,100%,35%)" stroke-width="0.00033"></path>
<path d="M0.208 0.778 Q0.718 0.664 0.609 0.390" stroke="hsl(0.0,100%,35%)" stroke-width="0.00033"></path>
<path d="M0.208 0.778 Q0.557 0.724 0.529 0.542" stroke="hsl(0.0,100%,35%)" stroke-width="0.00033"></path>
<path d="M0.208 0.778 Q0.133 0.799 0.158 0.840" stroke="hsl(0.0,100%,35%)" stroke-width="0.00229"></path>
<path d="M0.208 0.778 Q0.540 0.795 0.645 0.636" stroke="hsl(0.0,100%,35%)" stroke-width="0.00066"></path>
<path d="M0.208 0.778 Q0.672 0.775 0.769 0.549" stroke="hsl(0.0,100%,35%)" stroke-width="0.00066"></path>
<path d="M0.208 0.778 Q0.472 0.663 0.305 0.509" stroke="hsl(0.0,100%,35%)" stroke-width="0.00033"></path>
<path d="M0.208 0.778 Q0.479 0.702 0.391 0.553" stroke="hsl(0.0,100%,35%)" stroke-width="0.00033"></path>
<path d="M0.208 0.778 Q0.340 0.635 0.090 0.539" stroke="hsl(0.0,100%,35%)" stroke-width="0.00033"></path>
<path d="M0.934 0.715 Q0.724 0.602 0.459 0.680" stroke="hsl(0.0,100%,35%)" stroke-width="0.00885"></path>
<path d="M0.934 0.715 Q1.260 0.679 1.262 0.513" stroke="hsl(0.0,100%,35%)" stroke-width="0.00983"></path>
<path d="M0.934 0.715 Q0.520 0.601 0.208 0.778" stroke="hsl(0.0,100%,35%)" stroke-width="0.00492"></path>
<path d="M0.934 0.715 Q0.970 0.824 1.191 0.831" stroke="hsl(0.0,100%,35%)" stroke-width="0.01835"></path>
<path d="M0.934 0.715 Q0.677 0.713 0.616 0.838" stroke="hsl(0.0,100%,35%)" stroke-width="0.00033"></path>
<path d="M0.934 0.715 Q0.638 0.538 0.227 0.643" stroke="hsl(0.0,100%,35%)" stroke-width="0.00229"></path>
<path d="M0.934 0.715 Q1.082 0.728 1.141 0.659" stroke="hsl(0.0,100%,35%)" stroke-width="0.00098"></path>
<path d="M0.934 0.715 Q1.508 0.702 1.609 0.420" stroke="hsl(0.0,100%,35%)" stroke-width="0.00033"></path>
<path d="M0.934 0.715 Q0.980 0.860 1.273 0.869" stroke="hsl(0.0,100%,35%)" stroke-width="0.00131"></path>
<path d="M0.934 0.715 Q0.489 0.694 0.352 0.906" stroke="hsl(0.0,100%,35%)" stroke-width="0.00328"></path>
<path d="M0.934 0.715 Q1.138 0.717 1.188 0.618" stroke="hsl(0.0,100%,35%)" stroke-width="0.00197"></path>
<path d="M0.934 0.715 Q0.848 0.792 0.979 0.850" stroke="hsl(0.0,100%,35%)" stroke-width="0.00033"></path>
<path d="M0.934 0.715 Q1.000 0.562 0.718 0.496" stroke="hsl(0.0,100%,35%)" stroke-width="0.00033"></path>
<path d="M0.934 0.715 Q0.446 0.622 0.158 0.840" stroke="hsl(0.0,100%,35%)" stroke-width="0.00066"></path>
<path d="M0.934 0.715 Q0.698 0.505 0.236 0.573" stroke="hsl(0.0,100%,35%)" stroke-width="0.00033"></path>
<path d="M0.459 0.680 Q0.255 0.679 0.208 0.778" stroke="hsl(0.0,100%,35%)" stroke-width="0.01081"></path>
<path d="M0.459 0.680 Q0.224 0.772 0.352 0.906" stroke="hsl(0.0,100%,35%)" stroke-width="0.00623"></path>
<path d="M0.459 0.680 Q0.994 0.757 1.262 0.513" stroke="hsl(0.0,100%,35%)" stroke-width="0.00131"></path>
<path d="M0.459 0.680 Q0.669 0.793 0.934 0.715" stroke="hsl(0.0,100%,35%)" stroke-width="0.00262"></path>
<path d="M0.459 0.680 Q0.372 0.616 0.227 0.643" stroke="hsl(0.0,100%,35%)" stroke-width="0.00197"></path>
<path d="M0.459 0.680 Q0.704 0.902 1.191 0.831" stroke="hsl(0.0,100%,35%)" stroke-width="0.00426"></path>
<path d="M0.459 0.680 Q0.631 0.556 0.428 0.445" stroke="hsl(0.0,100%,35%)" stroke-width="0.00033"></path>
<path d="M0.459 0.680 Q0.411 0.790 0.616 0.838" stroke="hsl(0.0,100%,35%)" stroke-width="0.00033"></path>
<path d="M0.459 0.680 Q1.242 0.780 1.609 0.420" stroke="hsl(0.0,100%,35%)" stroke-width="0.00098"></path>
<path d="M0.459 0.680 Q0.817 0.806 1.141 0.659" stroke="hsl(0.0,100%,35%)" stroke-width="0.00033"></path>
<path d="M0.459 0.680 Q0.180 0.700 0.158 0.840" stroke="hsl(0.0,100%,35%)" stroke-width="0.00033"></path>
<path d="M0.459 0.680 Q0.433 0.582 0.236 0.573" stroke="hsl(0.0,100%,35%)" stroke-width="0.00131"></path>
<path d="M0.459 0.680 Q0.735 0.640 0.718 0.496" stroke="hsl(0.0,100%,35%)" stroke-width="0.00033"></path>
<path d="M0.459 0.680 Q0.302 0.866 0.629 0.983" stroke="hsl(0.0,100%,35%)" stroke-width="0.00033"></path>
<path d="M0.459 0.680 Q0.999 0.946 1.636 0.741" stroke="hsl(0.0,100%,35%)" stroke-width="0.00033"></path>
<path d="M1.262 0.513 Q0.937 0.548 0.934 0.715" stroke="hsl(0.0,100%,35%)" stroke-width="0.00721"></path>
<path d="M1.262 0.513 Q1.085 0.562 1.141 0.659" stroke="hsl(0.0,100%,35%)" stroke-width="0.00459"></path>
<path d="M1.262 0.513 Q0.523 0.434 0.208 0.778" stroke="hsl(0.0,100%,35%)" stroke-width="0.00393"></path>
<path d="M1.262 0.513 Q0.492 0.527 0.352 0.906" stroke="hsl(0.0,100%,35%)" stroke-width="0.00131"></path>
<path d="M1.262 0.513 Q0.727 0.436 0.459 0.680" stroke="hsl(0.0,100%,35%)" stroke-width="0.00262"></path>
<path d="M1.262 0.513 Q0.972 0.657 1.191 0.831" stroke="hsl(0.0,100%,35%)" stroke-width="0.02065"></path>
<path d="M1.262 0.513 Q1.510 0.536 1.609 0.420" stroke="hsl(0.0,100%,35%)" stroke-width="0.00229"></path>
<path d="M1.262 0.513 Q0.701 0.338 0.236 0.573" stroke="hsl(0.0,100%,35%)" stroke-width="0.00164"></path>
<path d="M1.262 0.513 Q1.267 0.701 1.636 0.741" stroke="hsl(0.0,100%,35%)" stroke-width="0.00033"></path>
<path d="M1.262 0.513 Q0.640 0.371 0.227 0.643" stroke="hsl(0.0,100%,35%)" stroke-width="0.00459"></path>
<path d="M1.262 0.513 Q1.288 0.613 1.490 0.623" stroke="hsl(0.0,100%,35%)" stroke-width="0.00131"></path>
<path d="M1.262 0.513 Q1.094 0.759 1.538 0.895" stroke="hsl(0.0,100%,35%)" stroke-width="0.00033"></path>
<path d="M1.262 0.513 Q1.354 0.585 1.514 0.556" stroke="hsl(0.0,100%,35%)" stroke-width="0.00033"></path>
<path d="M1.262 0.513 Q1.639 0.460 1.619 0.265" stroke="hsl(0.0,100%,35%)" stroke-width="0.00033"></path>
<path d="M1.262 0.513 Q0.448 0.456 0.158 0.840" stroke="hsl(0.0,100%,35%)" stroke-width="0.00033"></path>
<path d="M0.236 0.573 Q0.472 0.784 0.934 0.715" stroke="hsl(0.0,100%,35%)" stroke-width="0.00066"></path>
<path d="M0.236 0.573 Q0.058 0.670 0.208 0.778" stroke="hsl(0.0,100%,35%)" stroke-width="0.00131"></path>
<path d="M0.236 0.573 Q0.508 0.893 1.191 0.831" stroke="hsl(0.0,100%,35%)" stroke-width="0.00098"></path>
<path d="M0.236 0.573 Q0.798 0.748 1.262 0.513" stroke="hsl(0.0,100%,35%)" stroke-width="0.00098"></path>
<path d="M0.236 0.573 Q0.408 0.616 0.529 0.542" stroke="hsl(0.0,100%,35%)" stroke-width="0.00033"></path>
<path d="M0.236 0.573 Q0.027 0.763 0.352 0.906" stroke="hsl(0.0,100%,35%)" stroke-width="0.00066"></path>
<path d="M0.236 0.573 Q1.046 0.771 1.609 0.420" stroke="hsl(0.0,100%,35%)" stroke-width="0.00098"></path>
<path d="M0.236 0.573 Q0.105 0.856 0.629 0.983" stroke="hsl(0.0,100%,35%)" stroke-width="0.00033"></path>
<path d="M0.236 0.573 Q0.435 0.547 0.428 0.445" stroke="hsl(0.0,100%,35%)" stroke-width="0.00033"></path>
<path d="M0.236 0.573 Q0.620 0.797 1.141 0.659" stroke="hsl(0.0,100%,35%)" stroke-width="0.00098"></path>
<path d="M0.236 0.573 Q0.262 0.671 0.459 0.680" stroke="hsl(0.0,100%,35%)" stroke-width="0.00033"></path>
<path d="M0.236 0.573 Q0.630 0.995 1.538 0.895" stroke="hsl(0.0,100%,35%)" stroke-width="0.00033"></path>
<path d="M0.236 0.573 Q-0.016 0.691 0.158 0.840" stroke="hsl(0.0,100%,35%)" stroke-width="0.00033"></path>
<path d="M1.141 0.659 Q1.319 0.610 1.262 0.513" stroke="hsl(0.0,100%,35%)" stroke-width="0.00262"></path>
<path d="M1.141 0.659 Q1.028 0.755 1.191 0.831" stroke="hsl(0.0,100%,35%)" stroke-width="0.00819"></path>
<path d="M1.141 0.659 Q0.548 0.625 0.352 0.906" stroke="hsl(0.0,100%,35%)" stroke-width="0.00033"></path>
<path d="M1.141 0.659 Q0.579 0.532 0.208 0.778" stroke="hsl(0.0,100%,35%)" stroke-width="0.00360"></path>
<path d="M1.141 0.659 Q0.783 0.533 0.459 0.680" stroke="hsl(0.0,100%,35%)" stroke-width="0.00066"></path>
<path d="M1.141 0.659 Q1.059 0.493 0.718 0.496" stroke="hsl(0.0,100%,35%)" stroke-width="0.00033"></path>
<path d="M1.141 0.659 Q1.566 0.633 1.609 0.420" stroke="hsl(0.0,100%,35%)" stroke-width="0.00066"></path>
<path d="M1.141 0.659 Q0.993 0.646 0.934 0.715" stroke="hsl(0.0,100%,35%)" stroke-width="0.00098"></path>
<path d="M1.141 0.659 Q0.697 0.468 0.227 0.643" stroke="hsl(0.0,100%,35%)" stroke-width="0.00066"></path>
<path d="M1.141 0.659 Q1.121 0.660 1.118 0.670" stroke="hsl(0.0,100%,35%)" stroke-width="0.00033"></path>
<path d="M1.191 0.831 Q0.710 0.701 0.352 0.906" stroke="hsl(0.0,100%,35%)" stroke-width="0.00623"></path>
<path d="M1.191 0.831 Q1.155 0.721 0.934 0.715" stroke="hsl(0.0,100%,35%)" stroke-width="0.01639"></path>
<path d="M1.191 0.831 Q0.741 0.608 0.208 0.778" stroke="hsl(0.0,100%,35%)" stroke-width="0.01868"></path>
<path d="M1.191 0.831 Q1.303 0.735 1.141 0.659" stroke="hsl(0.0,100%,35%)" stroke-width="0.01147"></path>
<path d="M1.191 0.831 Q1.481 0.686 1.262 0.513" stroke="hsl(0.0,100%,35%)" stroke-width="0.00688"></path>
<path d="M1.191 0.831 Q0.945 0.609 0.459 0.680" stroke="hsl(0.0,100%,35%)" stroke-width="0.01442"></path>
<path d="M1.191 0.831 Q1.858 0.633 1.619 0.265" stroke="hsl(0.0,100%,35%)" stroke-width="0.00098"></path>
<path d="M1.191 0.831 Q1.729 0.709 1.609 0.420" stroke="hsl(0.0,100%,35%)" stroke-width="0.00262"></path>
<path d="M1.191 0.831 Q0.859 0.544 0.227 0.643" stroke="hsl(0.0,100%,35%)" stroke-width="0.00328"></path>
<path d="M1.191 0.831 Q1.273 0.663 0.965 0.586" stroke="hsl(0.0,100%,35%)" stroke-width="0.00033"></path>
<path d="M1.191 0.831 Q0.667 0.629 0.158 0.840" stroke="hsl(0.0,100%,35%)" stroke-width="0.00098"></path>
<path d="M1.191 0.831 Q1.313 0.932 1.538 0.895" stroke="hsl(0.0,100%,35%)" stroke-width="0.00033"></path>
<path d="M1.191 0.831 Q1.087 0.795 0.994 0.837" stroke="hsl(0.0,100%,35%)" stroke-width="0.00033"></path>
<path d="M1.191 0.831 Q0.919 0.511 0.236 0.573" stroke="hsl(0.0,100%,35%)" stroke-width="0.00066"></path>
<path d="M1.609 0.420 Q1.196 0.202 0.682 0.356" stroke="hsl(180.0,100%,35%)" stroke-width="0.00066"></path>
<path d="M1.609 0.420 Q1.738 0.344 1.619 0.265" stroke="hsl(180.0,100%,35%)" stroke-width="0.00295"></path>
<path d="M1.609 0.420 Q0.622 0.319 0.208 0.778" stroke="hsl(180.0,100%,35%)" stroke-width="0.00295"></path>
<path d="M1.609 0.420 Q1.035 0.432 0.934 0.715" stroke="hsl(180.0,100%,35%)" stroke-width="0.00164"></path>
<path d="M1.609 0.420 Q1.102 0.280 0.718 0.496" stroke="hsl(180.0,100%,35%)" stroke-width="0.00295"></path>
<path d="M1.609 0.420 Q0.547 0.340 0.158 0.840" stroke="hsl(180.0,100%,35%)" stroke-width="0.00066"></path>
<path d="M1.609 0.420 Q1.071 0.541 1.191 0.831" stroke="hsl(180.0,100%,35%)" stroke-width="0.00262"></path>
<path d="M1.609 0.420 Q1.184 0.446 1.141 0.659" stroke="hsl(180.0,100%,35%)" stroke-width="0.00066"></path>
<path d="M1.609 0.420 Q1.772 0.341 1.655 0.244" stroke="hsl(180.0,100%,35%)" stroke-width="0.00033"></path>
<path d="M1.609 0.420 Q1.388 0.213 0.935 0.276" stroke="hsl(180.0,100%,35%)" stroke-width="0.00131"></path>
<path d="M1.609 0.420 Q0.886 0.203 0.305 0.509" stroke="hsl(180.0,100%,35%)" stroke-width="0.00131"></path>
<path d="M1.609 0.420 Q0.825 0.320 0.459 0.680" stroke="hsl(180.0,100%,35%)" stroke-width="0.00066"></path>
<path d="M1.609 0.420 Q1.662 0.282 1.406 0.226" stroke="hsl(180.0,100%,35%)" stroke-width="0.00033"></path>
<path d="M1.609 0.420 Q0.800 0.222 0.236 0.573" stroke="hsl(180.0,100%,35%)" stroke-width="0.00033"></path>
<path d="M1.609 0.420 Q1.054 0.325 0.746 0.575" stroke="hsl(180.0,100%,35%)" stroke-width="0.00033"></path>
<path d="M0.417 0.600 Q0.619 0.870 1.191 0.831" stroke="hsl(0.0,100%,35%)" stroke-width="0.00033"></path>
<path d="M0.417 0.600 Q0.170 0.647 0.208 0.778" stroke="hsl(0.0,100%,35%)" stroke-width="0.00066"></path>
<path d="M0.417 0.600 Q0.139 0.740 0.352 0.906" stroke="hsl(0.0,100%,35%)" stroke-width="0.00033"></path>
<path d="M1.228 0.638 Q0.605 0.504 0.208 0.778" stroke="hsl(0.0,100%,35%)" stroke-width="0.00721"></path>
<path d="M1.228 0.638 Q1.055 0.727 1.191 0.831" stroke="hsl(0.0,100%,35%)" stroke-width="0.00787"></path>
<path d="M1.228 0.638 Q0.670 0.419 0.121 0.643" stroke="hsl(0.0,100%,35%)" stroke-width="0.00033"></path>
<path d="M1.228 0.638 Q1.123 0.549 0.928 0.581" stroke="hsl(0.0,100%,35%)" stroke-width="0.00033"></path>
<path d="M0.121 0.643 Q0.057 0.728 0.208 0.778" stroke="hsl(0.0,100%,35%)" stroke-width="0.00229"></path>
<path d="M0.121 0.643 Q0.801 0.995 1.636 0.741" stroke="hsl(0.0,100%,35%)" stroke-width="0.00066"></path>
<path d="M0.121 0.643 Q0.506 0.951 1.191 0.831" stroke="hsl(0.0,100%,35%)" stroke-width="0.00066"></path>
<path d="M0.121 0.643 Q0.433 0.606 0.428 0.445" stroke="hsl(0.0,100%,35%)" stroke-width="0.00033"></path>
<path d="M1.344 0.321 Q1.304 0.248 1.152 0.252" stroke="hsl(0.0,100%,35%)" stroke-width="0.00033"></path>
<path d="M1.344 0.321 Q0.528 0.259 0.227 0.643" stroke="hsl(0.0,100%,35%)" stroke-width="0.00033"></path>
<path d="M1.344 0.321 Q1.308 0.358 1.372 0.384" stroke="hsl(0.0,100%,35%)" stroke-width="0.00066"></path>
<path d="M0.769 0.549 Q0.305 0.551 0.208 0.778" stroke="hsl(0.0,100%,35%)" stroke-width="0.00295"></path>
<path d="M0.769 0.549 Q1.292 0.652 1.609 0.420" stroke="hsl(0.0,100%,35%)" stroke-width="0.00033"></path>
<path d="M0.769 0.549 Q1.450 0.652 1.801 0.342" stroke="hsl(0.0,100%,35%)" stroke-width="0.00066"></path>
<path d="M0.769 0.549 Q0.754 0.774 1.191 0.831" stroke="hsl(0.0,100%,35%)" stroke-width="0.00229"></path>
<path d="M0.769 0.549 Q0.876 0.876 1.538 0.895" stroke="hsl(0.0,100%,35%)" stroke-width="0.00033"></path>
<path d="M0.769 0.549 Q1.048 0.818 1.636 0.741" stroke="hsl(0.0,100%,35%)" stroke-width="0.00066"></path>
<path d="M1.801 0.342 Q1.643 0.343 1.609 0.420" stroke="hsl(180.0,100%,35%)" stroke-width="0.00819"></path>
<path d="M1.801 0.342 Q1.361 0.228 1.041 0.417" stroke="hsl(180.0,100%,35%)" stroke-width="0.00229"></path>
<path d="M1.801 0.342 Q0.656 0.241 0.208 0.778" stroke="hsl(180.0,100%,35%)" stroke-width="0.00492"></path>
<path d="M1.801 0.342 Q1.136 0.203 0.718 0.496" stroke="hsl(180.0,100%,35%)" stroke-width="0.00655"></path>
<path d="M1.801 0.342 Q1.105 0.464 1.191 0.831" stroke="hsl(180.0,100%,35%)" stroke-width="0.00590"></path>
<path d="M1.801 0.342 Q1.421 0.136 0.935 0.276" stroke="hsl(180.0,100%,35%)" stroke-width="0.00066"></path>
<path d="M1.801 0.342 Q1.772 0.267 1.619 0.265" stroke="hsl(180.0,100%,35%)" stroke-width="0.00033"></path>
<path d="M1.801 0.342 Q1.120 0.239 0.769 0.549" stroke="hsl(180.0,100%,35%)" stroke-width="0.00033"></path>
<path d="M1.636 0.741 Q0.892 0.474 0.208 0.778" stroke="hsl(0.0,100%,35%)" stroke-width="0.01573"></path>
<path d="M1.636 0.741 Q0.861 0.567 0.352 0.906" stroke="hsl(0.0,100%,35%)" stroke-width="0.00229"></path>
<path d="M1.636 0.741 Q1.096 0.475 0.459 0.680" stroke="hsl(0.0,100%,35%)" stroke-width="0.00033"></path>
<path d="M1.636 0.741 Q1.156 0.359 0.305 0.509" stroke="hsl(0.0,100%,35%)" stroke-width="0.00033"></path>
<path d="M1.636 0.741 Q1.269 0.351 0.428 0.445" stroke="hsl(0.0,100%,35%)" stroke-width="0.00066"></path>
<path d="M1.636 0.741 Q1.341 0.697 1.191 0.831" stroke="hsl(0.0,100%,35%)" stroke-width="0.00787"></path>
<path d="M1.636 0.741 Q1.464 0.799 1.538 0.895" stroke="hsl(0.0,100%,35%)" stroke-width="0.00098"></path>
<path d="M1.636 0.741 Q1.070 0.377 0.236 0.573" stroke="hsl(0.0,100%,35%)" stroke-width="0.00131"></path>
<path d="M1.636 0.741 Q1.632 0.552 1.262 0.513" stroke="hsl(0.0,100%,35%)" stroke-width="0.00066"></path>
<path d="M1.636 0.741 Q0.818 0.495 0.158 0.840" stroke="hsl(0.0,100%,35%)" stroke-width="0.00033"></path>
<path d="M1.636 0.741 Q1.879 0.575 1.609 0.420" stroke="hsl(0.0,100%,35%)" stroke-width="0.00066"></path>
<path d="M1.884 0.442 Q1.765 0.376 1.609 0.420" stroke="hsl(180.0,100%,35%)" stroke-width="0.00066"></path>
<path d="M1.884 0.442 Q0.703 0.296 0.158 0.840" stroke="hsl(180.0,100%,35%)" stroke-width="0.00033"></path>
<path d="M1.884 0.442 Q1.818 0.239 1.406 0.226" stroke="hsl(180.0,100%,35%)" stroke-width="0.00033"></path>
<path d="M0.158 0.840 Q0.233 0.819 0.208 0.778" stroke="hsl(0.0,100%,35%)" stroke-width="0.00328"></path>
<path d="M0.158 0.840 Q0.202 0.912 0.352 0.906" stroke="hsl(0.0,100%,35%)" stroke-width="0.00262"></path>
<path d="M0.158 0.840 Q0.609 0.697 0.428 0.445" stroke="hsl(0.0,100%,35%)" stroke-width="0.00033"></path>
<path d="M0.158 0.840 Q0.280 1.006 0.629 0.983" stroke="hsl(0.0,100%,35%)" stroke-width="0.00033"></path>
<path d="M0.158 0.840 Q0.436 0.820 0.459 0.680" stroke="hsl(0.0,100%,35%)" stroke-width="0.00033"></path>
<path d="M1.062 0.353 Q0.917 0.529 1.228 0.638" stroke="hsl(180.0,100%,35%)" stroke-width="0.00033"></path>
<path d="M1.062 0.353 Q0.857 0.522 1.141 0.659" stroke="hsl(180.0,100%,35%)" stroke-width="0.00033"></path>
<path d="M1.062 0.353 Q0.775 0.356 0.718 0.496" stroke="hsl(180.0,100%,35%)" stroke-width="0.00066"></path>
<path d="M1.062 0.353 Q0.295 0.395 0.208 0.778" stroke="hsl(180.0,100%,35%)" stroke-width="0.00098"></path>
<path d="M1.062 0.353 Q0.744 0.618 1.191 0.831" stroke="hsl(180.0,100%,35%)" stroke-width="0.00033"></path>
<path d="M0.718 0.496 Q1.225 0.636 1.609 0.420" stroke="hsl(180.0,100%,35%)" stroke-width="0.00262"></path>
<path d="M0.718 0.496 Q0.943 0.522 1.041 0.417" stroke="hsl(180.0,100%,35%)" stroke-width="0.00066"></path>
<path d="M0.718 0.496 Q0.812 0.419 0.682 0.356" stroke="hsl(180.0,100%,35%)" stroke-width="0.00033"></path>
<path d="M0.718 0.496 Q1.003 0.430 0.935 0.276" stroke="hsl(180.0,100%,35%)" stroke-width="0.00098"></path>
<path d="M0.718 0.496 Q0.687 0.758 1.191 0.831" stroke="hsl(180.0,100%,35%)" stroke-width="0.00066"></path>
<path d="M0.718 0.496 Q1.068 0.542 1.233 0.381" stroke="hsl(180.0,100%,35%)" stroke-width="0.00033"></path>
<path d="M0.718 0.496 Q0.237 0.535 0.208 0.778" stroke="hsl(180.0,100%,35%)" stroke-width="0.00033"></path>
<path d="M1.490 0.623 Q0.725 0.444 0.208 0.778" stroke="hsl(0.0,100%,35%)" stroke-width="0.00033"></path>
<path d="M1.490 0.623 Q1.286 0.571 1.141 0.659" stroke="hsl(0.0,100%,35%)" stroke-width="0.00098"></path>
<path d="M1.490 0.623 Q1.174 0.667 1.191 0.831" stroke="hsl(0.0,100%,35%)" stroke-width="0.00033"></path>
<path d="M1.490 0.623 Q1.464 0.522 1.262 0.513" stroke="hsl(0.0,100%,35%)" stroke-width="0.00066"></path>
<path d="M1.490 0.623 Q1.588 0.602 1.569 0.550" stroke="hsl(0.0,100%,35%)" stroke-width="0.00033"></path>
<path d="M0.688 0.638 Q0.336 0.612 0.208 0.778" stroke="hsl(180.0,100%,35%)" stroke-width="0.00164"></path>
<path d="M0.688 0.638 Q0.786 0.835 1.191 0.831" stroke="hsl(180.0,100%,35%)" stroke-width="0.00164"></path>
<path d="M0.688 0.638 Q1.324 0.713 1.609 0.420" stroke="hsl(180.0,100%,35%)" stroke-width="0.00098"></path>
<path d="M0.688 0.638 Q0.768 0.618 0.746 0.575" stroke="hsl(180.0,100%,35%)" stroke-width="0.00033"></path>
<path d="M0.688 0.638 Q1.453 0.638 1.619 0.265" stroke="hsl(180.0,100%,35%)" stroke-width="0.00033"></path>
<path d="M1.619 0.265 Q0.503 0.239 0.208 0.778" stroke="hsl(180.0,100%,35%)" stroke-width="0.00164"></path>
<path d="M1.619 0.265 Q1.490 0.340 1.609 0.420" stroke="hsl(180.0,100%,35%)" stroke-width="0.00066"></path>
<path d="M1.619 0.265 Q0.983 0.200 0.718 0.496" stroke="hsl(180.0,100%,35%)" stroke-width="0.00033"></path>
<path d="M1.619 0.265 Q0.952 0.462 1.191 0.831" stroke="hsl(180.0,100%,35%)" stroke-width="0.00098"></path>
<path d="M1.619 0.265 Q1.065 0.366 1.141 0.659" stroke="hsl(180.0,100%,35%)" stroke-width="0.00033"></path>
<path d="M0.428 0.445 Q0.051 0.567 0.208 0.778" stroke="hsl(0.0,100%,35%)" stroke-width="0.00197"></path>
<path d="M0.428 0.445 Q0.465 0.681 0.934 0.715" stroke="hsl(0.0,100%,35%)" stroke-width="0.00033"></path>
<path d="M0.428 0.445 Q0.021 0.660 0.352 0.906" stroke="hsl(0.0,100%,35%)" stroke-width="0.00033"></path>
<path d="M0.428 0.445 Q-0.023 0.589 0.158 0.840" stroke="hsl(0.0,100%,35%)" stroke-width="0.00066"></path>
<path d="M1.435 0.297 Q1.637 0.292 1.673 0.193" stroke="hsl(180.0,100%,35%)" stroke-width="0.00066"></path>
<path d="M1.435 0.297 Q1.424 0.393 1.609 0.420" stroke="hsl(180.0,100%,35%)" stroke-width="0.00623"></path>
<path d="M1.435 0.297 Q0.978 0.420 1.118 0.670" stroke="hsl(180.0,100%,35%)" stroke-width="0.00131"></path>
<path d="M1.435 0.297 Q0.886 0.515 1.191 0.831" stroke="hsl(180.0,100%,35%)" stroke-width="0.00066"></path>
<path d="M1.435 0.297 Q0.436 0.292 0.208 0.778" stroke="hsl(180.0,100%,35%)" stroke-width="0.01180"></path>
<path d="M1.435 0.297 Q1.178 0.441 1.403 0.598" stroke="hsl(180.0,100%,35%)" stroke-width="0.00066"></path>
<path d="M1.435 0.297 Q0.917 0.253 0.718 0.496" stroke="hsl(180.0,100%,35%)" stroke-width="0.00918"></path>
<path d="M1.435 0.297 Q1.142 0.278 1.041 0.417" stroke="hsl(180.0,100%,35%)" stroke-width="0.00066"></path>
<path d="M1.435 0.297 Q1.011 0.176 0.682 0.356" stroke="hsl(180.0,100%,35%)" stroke-width="0.00033"></path>
<path d="M1.435 0.297 Q0.998 0.419 1.141 0.659" stroke="hsl(180.0,100%,35%)" stroke-width="0.00066"></path>
<path d="M1.435 0.297 Q1.202 0.186 0.935 0.276" stroke="hsl(180.0,100%,35%)" stroke-width="0.00033"></path>
<path d="M1.673 0.193 Q1.460 0.294 1.609 0.420" stroke="hsl(180.0,100%,35%)" stroke-width="0.00033"></path>
<path d="M1.673 0.193 Q1.034 0.320 1.141 0.659" stroke="hsl(180.0,100%,35%)" stroke-width="0.00033"></path>
<path d="M1.673 0.193 Q1.589 0.218 1.619 0.265" stroke="hsl(180.0,100%,35%)" stroke-width="0.00033"></path>
<path d="M1.118 0.670 Q1.026 0.765 1.191 0.831" stroke="hsl(0.0,100%,35%)" stroke-width="0.00950"></path>
<path d="M1.118 0.670 Q1.564 0.643 1.609 0.420" stroke="hsl(0.0,100%,35%)" stroke-width="0.00131"></path>
<path d="M1.118 0.670 Q0.577 0.542 0.208 0.778" stroke="hsl(0.0,100%,35%)" stroke-width="0.00066"></path>
<path d="M1.403 0.598 Q1.111 0.672 1.191 0.831" stroke="hsl(0.0,100%,35%)" stroke-width="0.00295"></path>
<path d="M1.403 0.598 Q1.778 0.475 1.619 0.265" stroke="hsl(0.0,100%,35%)" stroke-width="0.00033"></path>
<path d="M1.403 0.598 Q1.649 0.550 1.609 0.420" stroke="hsl(0.0,100%,35%)" stroke-width="0.00066"></path>
<path d="M1.403 0.598 Q0.662 0.449 0.208 0.778" stroke="hsl(0.0,100%,35%)" stroke-width="0.00229"></path>
<path d="M1.403 0.598 Q1.405 0.716 1.636 0.741" stroke="hsl(0.0,100%,35%)" stroke-width="0.00033"></path>
<path d="M1.403 0.598 Q1.142 0.410 0.718 0.496" stroke="hsl(0.0,100%,35%)" stroke-width="0.00033"></path>
<path d="M1.403 0.598 Q0.631 0.542 0.352 0.906" stroke="hsl(0.0,100%,35%)" stroke-width="0.00033"></path>
<path d="M1.403 0.598 Q0.779 0.386 0.227 0.643" stroke="hsl(0.0,100%,35%)" stroke-width="0.00033"></path>
<path d="M1.041 0.417 Q0.336 0.431 0.208 0.778" stroke="hsl(180.0,100%,35%)" stroke-width="0.00098"></path>
<path d="M1.041 0.417 Q0.816 0.392 0.718 0.496" stroke="hsl(180.0,100%,35%)" stroke-width="0.00229"></path>
<path d="M1.041 0.417 Q1.452 0.457 1.619 0.265" stroke="hsl(180.0,100%,35%)" stroke-width="0.00033"></path>
<path d="M1.041 0.417 Q1.102 0.325 0.935 0.276" stroke="hsl(180.0,100%,35%)" stroke-width="0.00098"></path>
<path d="M1.041 0.417 Q1.323 0.532 1.609 0.420" stroke="hsl(180.0,100%,35%)" stroke-width="0.00066"></path>
<path d="M0.682 0.356 Q0.938 0.479 1.233 0.381" stroke="hsl(180.0,100%,35%)" stroke-width="0.00033"></path>
<path d="M0.682 0.356 Q0.587 0.433 0.718 0.496" stroke="hsl(180.0,100%,35%)" stroke-width="0.00066"></path>
<path d="M0.682 0.356 Q0.873 0.366 0.935 0.276" stroke="hsl(180.0,100%,35%)" stroke-width="0.00066"></path>
<path d="M0.682 0.356 Q1.224 0.498 1.619 0.265" stroke="hsl(180.0,100%,35%)" stroke-width="0.00066"></path>
<path d="M0.682 0.356 Q0.557 0.695 1.191 0.831" stroke="hsl(180.0,100%,35%)" stroke-width="0.00033"></path>
<path d="M0.682 0.356 Q1.095 0.573 1.609 0.420" stroke="hsl(180.0,100%,35%)" stroke-width="0.00033"></path>
<path d="M0.935 0.276 Q0.650 0.342 0.718 0.496" stroke="hsl(180.0,100%,35%)" stroke-width="0.00885"></path>
<path d="M0.935 0.276 Q0.875 0.368 1.041 0.417" stroke="hsl(180.0,100%,35%)" stroke-width="0.00229"></path>
<path d="M0.935 0.276 Q0.744 0.265 0.682 0.356" stroke="hsl(180.0,100%,35%)" stroke-width="0.00033"></path>
<path d="M0.935 0.276 Q0.619 0.604 1.191 0.831" stroke="hsl(180.0,100%,35%)" stroke-width="0.00098"></path>
<path d="M0.935 0.276 Q1.157 0.482 1.609 0.420" stroke="hsl(180.0,100%,35%)" stroke-width="0.00131"></path>
<path d="M0.935 0.276 Q0.170 0.381 0.208 0.778" stroke="hsl(180.0,100%,35%)" stroke-width="0.00164"></path>
<path d="M0.935 0.276 Q1.286 0.407 1.619 0.265" stroke="hsl(180.0,100%,35%)" stroke-width="0.00033"></path>
<path d="M0.935 0.276 Q0.731 0.508 1.141 0.659" stroke="hsl(180.0,100%,35%)" stroke-width="0.00033"></path>
<path d="M0.616 0.838 Q0.460 0.726 0.208 0.778" stroke="hsl(0.0,100%,35%)" stroke-width="0.00197"></path>
<path d="M0.616 0.838 Q0.663 0.728 0.459 0.680" stroke="hsl(0.0,100%,35%)" stroke-width="0.00164"></path>
<path d="M0.616 0.838 Q1.199 0.805 1.262 0.513" stroke="hsl(0.0,100%,35%)" stroke-width="0.00033"></path>
<path d="M0.616 0.838 Q0.429 0.819 0.352 0.906" stroke="hsl(0.0,100%,35%)" stroke-width="0.00066"></path>
<path d="M0.616 0.838 Q0.909 0.949 1.191 0.831" stroke="hsl(0.0,100%,35%)" stroke-width="0.00033"></path>
<path d="M1.273 0.869 Q1.227 0.724 0.934 0.715" stroke="hsl(0.0,100%,35%)" stroke-width="0.01213"></path>
<path d="M1.273 0.869 Q0.813 0.610 0.208 0.778" stroke="hsl(0.0,100%,35%)" stroke-width="0.00131"></path>
<path d="M1.273 0.869 Q1.263 0.833 1.191 0.831" stroke="hsl(0.0,100%,35%)" stroke-width="0.01344"></path>
<path d="M1.273 0.869 Q1.193 0.606 0.663 0.588" stroke="hsl(0.0,100%,35%)" stroke-width="0.00066"></path>
<path d="M1.188 0.618 Q0.984 0.616 0.934 0.715" stroke="hsl(0.0,100%,35%)" stroke-width="0.01376"></path>
<path d="M1.188 0.618 Q1.019 0.725 1.191 0.831" stroke="hsl(0.0,100%,35%)" stroke-width="0.01016"></path>
<path d="M1.188 0.618 Q0.570 0.502 0.208 0.778" stroke="hsl(0.0,100%,35%)" stroke-width="0.00098"></path>
<path d="M1.188 0.618 Q0.539 0.595 0.352 0.906" stroke="hsl(0.0,100%,35%)" stroke-width="0.00033"></path>
<path d="M0.979 0.850 Q1.101 0.883 1.191 0.831" stroke="hsl(0.0,100%,35%)" stroke-width="0.00098"></path>
<path d="M0.979 0.850 Q1.639 0.761 1.609 0.420" stroke="hsl(0.0,100%,35%)" stroke-width="0.00131"></path>
<path d="M0.979 0.850 Q1.065 0.774 0.934 0.715" stroke="hsl(0.0,100%,35%)" stroke-width="0.00557"></path>
<path d="M0.979 0.850 Q0.651 0.660 0.208 0.778" stroke="hsl(0.0,100%,35%)" stroke-width="0.00328"></path>
<path d="M0.979 0.850 Q0.577 0.681 0.158 0.840" stroke="hsl(0.0,100%,35%)" stroke-width="0.00033"></path>
<path d="M0.979 0.850 Q0.829 0.563 0.236 0.573" stroke="hsl(0.0,100%,35%)" stroke-width="0.00098"></path>
<path d="M0.609 0.390 Q0.098 0.504 0.208 0.778" stroke="hsl(0.0,100%,35%)" stroke-width="0.00295"></path>
<path d="M0.609 0.390 Q0.512 0.618 0.934 0.715" stroke="hsl(0.0,100%,35%)" stroke-width="0.00164"></path>
<path d="M0.609 0.390 Q0.548 0.727 1.191 0.831" stroke="hsl(0.0,100%,35%)" stroke-width="0.00131"></path>
<path d="M0.609 0.390 Q0.721 0.638 1.228 0.638" stroke="hsl(0.0,100%,35%)" stroke-width="0.00033"></path>
<path d="M0.609 0.390 Q0.277 0.407 0.236 0.573" stroke="hsl(0.0,100%,35%)" stroke-width="0.00033"></path>
<path d="M0.844 0.435 Q1.368 0.505 1.619 0.265" stroke="hsl(180.0,100%,35%)" stroke-width="0.00033"></path>
<path d="M0.844 0.435 Q1.082 0.486 1.233 0.381" stroke="hsl(180.0,100%,35%)" stroke-width="0.00033"></path>
<path d="M0.844 0.435 Q0.731 0.440 0.718 0.496" stroke="hsl(180.0,100%,35%)" stroke-width="0.00164"></path>
<path d="M0.844 0.435 Q1.238 0.580 1.609 0.420" stroke="hsl(180.0,100%,35%)" stroke-width="0.00066"></path>
<path d="M0.844 0.435 Q0.826 0.363 0.682 0.356" stroke="hsl(180.0,100%,35%)" stroke-width="0.00066"></path>
<path d="M0.844 0.435 Q0.956 0.465 1.041 0.417" stroke="hsl(180.0,100%,35%)" stroke-width="0.00033"></path>
<path d="M1.233 0.381 Q0.403 0.374 0.208 0.778" stroke="hsl(180.0,100%,35%)" stroke-width="0.00197"></path>
<path d="M1.233 0.381 Q0.883 0.335 0.718 0.496" stroke="hsl(180.0,100%,35%)" stroke-width="0.00492"></path>
<path d="M1.233 0.381 Q1.169 0.269 0.935 0.276" stroke="hsl(180.0,100%,35%)" stroke-width="0.00033"></path>
<path d="M1.233 0.381 Q0.852 0.597 1.191 0.831" stroke="hsl(180.0,100%,35%)" stroke-width="0.00164"></path>
<path d="M1.233 0.381 Q0.965 0.501 1.141 0.659" stroke="hsl(180.0,100%,35%)" stroke-width="0.00033"></path>
<path d="M1.233 0.381 Q1.390 0.475 1.609 0.420" stroke="hsl(180.0,100%,35%)" stroke-width="0.00098"></path>
<path d="M1.233 0.381 Q1.519 0.400 1.619 0.265" stroke="hsl(180.0,100%,35%)" stroke-width="0.00131"></path>
<path d="M0.097 0.543 Q-0.035 0.683 0.208 0.778" stroke="hsl(0.0,100%,35%)" stroke-width="0.00066"></path>
<path d="M0.097 0.543 Q0.952 0.784 1.609 0.420" stroke="hsl(0.0,100%,35%)" stroke-width="0.00033"></path>
<path d="M0.097 0.543 Q0.414 0.906 1.191 0.831" stroke="hsl(0.0,100%,35%)" stroke-width="0.00033"></path>
<path d="M1.070 0.336 Q0.878 0.340 0.844 0.435" stroke="hsl(180.0,100%,35%)" stroke-width="0.00033"></path>
<path d="M1.070 0.336 Q0.765 0.346 0.718 0.496" stroke="hsl(180.0,100%,35%)" stroke-width="0.00033"></path>
<path d="M1.070 0.336 Q0.735 0.607 1.191 0.831" stroke="hsl(180.0,100%,35%)" stroke-width="0.00033"></path>
<path d="M0.994 0.837 Q1.098 0.873 1.191 0.831" stroke="hsl(0.0,100%,35%)" stroke-width="0.00098"></path>
<path d="M0.994 0.837 Q1.062 0.764 0.934 0.715" stroke="hsl(0.0,100%,35%)" stroke-width="0.00033"></path>
<path d="M0.994 0.837 Q0.648 0.650 0.208 0.778" stroke="hsl(0.0,100%,35%)" stroke-width="0.00033"></path>
<path d="M0.663 0.588 Q0.697 0.705 0.934 0.715" stroke="hsl(0.0,100%,35%)" stroke-width="0.00098"></path>
<path d="M0.663 0.588 Q0.487 0.593 0.459 0.680" stroke="hsl(0.0,100%,35%)" stroke-width="0.00164"></path>
<path d="M0.663 0.588 Q0.733 0.815 1.191 0.831" stroke="hsl(0.0,100%,35%)" stroke-width="0.00033"></path>
<path d="M0.663 0.588 Q0.401 0.528 0.227 0.643" stroke="hsl(0.0,100%,35%)" stroke-width="0.00131"></path>
<path d="M0.663 0.588 Q0.252 0.685 0.352 0.906" stroke="hsl(0.0,100%,35%)" stroke-width="0.00033"></path>
<path d="M0.305 0.509 Q1.028 0.725 1.609 0.420" stroke="hsl(0.0,100%,35%)" stroke-width="0.00295"></path>
<path d="M0.305 0.509 Q0.041 0.624 0.208 0.778" stroke="hsl(0.0,100%,35%)" stroke-width="0.00885"></path>
<path d="M0.305 0.509 Q0.490 0.847 1.191 0.831" stroke="hsl(0.0,100%,35%)" stroke-width="0.00164"></path>
<path d="M0.305 0.509 Q0.603 0.751 1.141 0.659" stroke="hsl(0.0,100%,35%)" stroke-width="0.00033"></path>
<path d="M0.305 0.509 Q0.521 0.585 0.718 0.496" stroke="hsl(0.0,100%,35%)" stroke-width="0.00033"></path>
<path d="M0.456 0.613 Q0.200 0.646 0.208 0.778" stroke="hsl(0.0,100%,35%)" stroke-width="0.00066"></path>
<path d="M0.456 0.613 Q0.169 0.739 0.352 0.906" stroke="hsl(0.0,100%,35%)" stroke-width="0.00033"></path>
<path d="M0.456 0.613 Q0.649 0.869 1.191 0.831" stroke="hsl(0.0,100%,35%)" stroke-width="0.00033"></path>
<path d="M0.708 0.193 Q-0.010 0.385 0.208 0.778" stroke="hsl(180.0,100%,35%)" stroke-width="0.00033"></path>
<path d="M0.708 0.193 Q0.977 0.486 1.609 0.420" stroke="hsl(180.0,100%,35%)" stroke-width="0.00033"></path>
<path d="M0.708 0.193 Q0.754 0.142 0.665 0.109" stroke="hsl(180.0,100%,35%)" stroke-width="0.00033"></path>
<path d="M0.568 0.552 Q0.176 0.686 0.352 0.906" stroke="hsl(0.0,100%,35%)" stroke-width="0.00164"></path>
<path d="M0.568 0.552 Q0.207 0.593 0.208 0.778" stroke="hsl(0.0,100%,35%)" stroke-width="0.00131"></path>
<path d="M0.568 0.552 Q0.659 0.432 0.446 0.362" stroke="hsl(0.0,100%,35%)" stroke-width="0.00033"></path>
<path d="M0.568 0.552 Q0.656 0.816 1.191 0.831" stroke="hsl(0.0,100%,35%)" stroke-width="0.00098"></path>
<path d="M0.568 0.552 Q1.194 0.694 1.609 0.420" stroke="hsl(0.0,100%,35%)" stroke-width="0.00033"></path>
<path d="M0.063 0.617 Q0.994 0.828 1.609 0.420" stroke="hsl(0.0,100%,35%)" stroke-width="0.00033"></path>
<path d="M0.063 0.617 Q0.006 0.726 0.208 0.778" stroke="hsl(0.0,100%,35%)" stroke-width="0.01344"></path>
<path d="M0.063 0.617 Q-0.024 0.819 0.352 0.906" stroke="hsl(0.0,100%,35%)" stroke-width="0.01114"></path>
<path d="M0.063 0.617 Q0.210 0.728 0.459 0.680" stroke="hsl(0.0,100%,35%)" stroke-width="0.00033"></path>
<path d="M1.921 0.159 Q1.915 0.119 1.835 0.112" stroke="hsl(0.0,100%,35%)" stroke-width="0.00033"></path>
<path d="M1.921 0.159 Q1.131 0.253 1.141 0.659" stroke="hsl(0.0,100%,35%)" stroke-width="0.00033"></path>
<path d="M1.921 0.159 Q1.019 0.349 1.191 0.831" stroke="hsl(0.0,100%,35%)" stroke-width="0.00033"></path>
<path d="M1.037 0.882 Q1.119 0.778 0.934 0.715" stroke="hsl(0.0,100%,35%)" stroke-width="0.00098"></path>
<path d="M1.037 0.882 Q0.706 0.664 0.208 0.778" stroke="hsl(0.0,100%,35%)" stroke-width="0.00066"></path>
<path d="M1.037 0.882 Q0.884 0.567 0.236 0.573" stroke="hsl(0.0,100%,35%)" stroke-width="0.00066"></path>
<path d="M1.037 0.882 Q1.155 0.887 1.191 0.831" stroke="hsl(0.0,100%,35%)" stroke-width="0.00033"></path>
<path d="M0.338 0.137 Q0.747 0.532 1.609 0.420" stroke="hsl(180.0,100%,35%)" stroke-width="0.00033"></path>
<path d="M0.338 0.137 Q0.298 0.202 0.416 0.235" stroke="hsl(180.0,100%,35%)" stroke-width="0.00033"></path>
<path d="M0.338 0.137 Q0.209 0.654 1.191 0.831" stroke="hsl(180.0,100%,35%)" stroke-width="0.00033"></path>
<path d="M1.574 0.188 Q0.868 0.432 1.191 0.831" stroke="hsl(180.0,100%,35%)" stroke-width="0.00033"></path>
<path d="M1.574 0.188 Q1.459 0.173 1.406 0.226" stroke="hsl(180.0,100%,35%)" stroke-width="0.00033"></path>
<path d="M1.574 0.188 Q1.535 0.235 1.619 0.265" stroke="hsl(180.0,100%,35%)" stroke-width="0.00033"></path>
<path d="M0.645 0.636 Q0.313 0.620 0.208 0.778" stroke="hsl(0.0,100%,35%)" stroke-width="0.00098"></path>
<path d="M0.645 0.636 Q0.517 0.621 0.459 0.680" stroke="hsl(0.0,100%,35%)" stroke-width="0.00066"></path>
<path d="M0.645 0.636 Q1.312 0.624 1.435 0.297" stroke="hsl(0.0,100%,35%)" stroke-width="0.00033"></path>
<path d="M1.109 0.939 Q1.349 0.805 1.141 0.659" stroke="hsl(0.0,100%,35%)" stroke-width="0.00033"></path>
<path d="M1.109 0.939 Q1.267 0.639 0.718 0.496" stroke="hsl(0.0,100%,35%)" stroke-width="0.00033"></path>
<path d="M1.109 0.939 Q1.237 0.901 1.191 0.831" stroke="hsl(0.0,100%,35%)" stroke-width="0.00098"></path>
<path d="M1.109 0.939 Q0.756 0.771 0.352 0.906" stroke="hsl(0.0,100%,35%)" stroke-width="0.00033"></path>
<path d="M0.424 0.525 Q1.230 0.634 1.619 0.265" stroke="hsl(180.0,100%,35%)" stroke-width="0.00066"></path>
<path d="M0.424 0.525 Q0.114 0.608 0.208 0.778" stroke="hsl(180.0,100%,35%)" stroke-width="0.00131"></path>
<path d="M0.424 0.525 Q1.101 0.709 1.609 0.420" stroke="hsl(180.0,100%,35%)" stroke-width="0.00098"></path>
<path d="M1.128 0.870 Q1.191 0.863 1.191 0.831" stroke="hsl(0.0,100%,35%)" stroke-width="0.00066"></path>
<path d="M1.128 0.870 Q1.155 0.753 0.934 0.715" stroke="hsl(0.0,100%,35%)" stroke-width="0.00033"></path>
<path d="M1.128 0.870 Q0.741 0.640 0.208 0.778" stroke="hsl(0.0,100%,35%)" stroke-width="0.00033"></path>
<path d="M1.128 0.870 Q1.729 0.741 1.609 0.420" stroke="hsl(0.0,100%,35%)" stroke-width="0.00033"></path>
<path d="M0.720 0.828 Q0.504 0.701 0.208 0.778" stroke="hsl(0.0,100%,35%)" stroke-width="0.00066"></path>
<path d="M0.720 0.828 Q0.918 0.814 0.934 0.715" stroke="hsl(0.0,100%,35%)" stroke-width="0.00197"></path>
<path d="M0.720 0.828 Q1.491 0.802 1.609 0.420" stroke="hsl(0.0,100%,35%)" stroke-width="0.00098"></path>
<path d="M1.843 0.258 Q1.596 0.292 1.609 0.420" stroke="hsl(180.0,100%,35%)" stroke-width="0.00066"></path>
<path d="M1.843 0.258 Q1.089 0.152 0.718 0.496" stroke="hsl(180.0,100%,35%)" stroke-width="0.00033"></path>
<path d="M1.843 0.258 Q1.058 0.414 1.191 0.831" stroke="hsl(180.0,100%,35%)" stroke-width="0.00066"></path>
<path d="M1.843 0.258 Q0.609 0.191 0.208 0.778" stroke="hsl(180.0,100%,35%)" stroke-width="0.00033"></path>
<path d="M0.391 0.553 Q0.569 0.852 1.191 0.831" stroke="hsl(0.0,100%,35%)" stroke-width="0.00033"></path>
<path d="M0.391 0.553 Q0.119 0.629 0.208 0.778" stroke="hsl(0.0,100%,35%)" stroke-width="0.00066"></path>
<path d="M0.391 0.553 Q0.089 0.722 0.352 0.906" stroke="hsl(0.0,100%,35%)" stroke-width="0.00033"></path>
<path d="M0.380 0.549 Q0.111 0.629 0.208 0.778" stroke="hsl(0.0,100%,35%)" stroke-width="0.00328"></path>
<path d="M0.380 0.549 Q0.855 0.896 1.636 0.741" stroke="hsl(0.0,100%,35%)" stroke-width="0.00197"></path>
<path d="M0.380 0.549 Q0.314 0.631 0.459 0.680" stroke="hsl(0.0,100%,35%)" stroke-width="0.00066"></path>
<path d="M0.380 0.549 Q0.524 0.743 0.934 0.715" stroke="hsl(0.0,100%,35%)" stroke-width="0.00033"></path>
<path d="M0.380 0.549 Q0.175 0.545 0.121 0.643" stroke="hsl(0.0,100%,35%)" stroke-width="0.00164"></path>
<path d="M0.380 0.549 Q0.560 0.852 1.191 0.831" stroke="hsl(0.0,100%,35%)" stroke-width="0.00066"></path>
<path d="M0.380 0.549 Q0.733 0.763 1.228 0.638" stroke="hsl(0.0,100%,35%)" stroke-width="0.00066"></path>
<path d="M0.971 0.477 Q0.828 0.436 0.718 0.496" stroke="hsl(180.0,100%,35%)" stroke-width="0.00098"></path>
<path d="M0.971 0.477 Q1.347 0.479 1.435 0.297" stroke="hsl(180.0,100%,35%)" stroke-width="0.00033"></path>
<path d="M0.971 0.477 Q0.910 0.602 1.141 0.659" stroke="hsl(180.0,100%,35%)" stroke-width="0.00033"></path>
<path d="M1.972 0.576 Q0.928 0.324 0.208 0.778" stroke="hsl(0.0,100%,35%)" stroke-width="0.00033"></path>
<path d="M1.972 0.576 Q1.903 0.535 1.807 0.559" stroke="hsl(0.0,100%,35%)" stroke-width="0.00033"></path>
<path d="M1.972 0.576 Q1.378 0.547 1.191 0.831" stroke="hsl(0.0,100%,35%)" stroke-width="0.00033"></path>
<path d="M1.408 0.127 Q0.767 0.173 0.718 0.496" stroke="hsl(180.0,100%,35%)" stroke-width="0.00033"></path>
<path d="M1.408 0.127 Q1.403 0.238 1.619 0.265" stroke="hsl(180.0,100%,35%)" stroke-width="0.00033"></path>
</g>
<text x="0.227" y="0.623" font-size="0.041292" fill="hsl(0.0,100%,20%)">abdolrashidi</text>
<text x="0.352" y="0.877" font-size="0.059009" fill="hsl(0.0,100%,20%)">cclao</text>
<text x="0.208" y="0.734" font-size="0.088024" fill="hsl(0.0,100%,20%)">syoussefi</text>
<text x="0.934" y="0.688" font-size="0.054509" fill="hsl(0.0,100%,20%)">cnorthrop</text>
<text x="0.112" y="0.480" font-size="0.003793" fill="hsl(0.0,100%,20%)">ineula</text>
<text x="0.049" y="0.579" font-size="0.003793" fill="hsl(0.0,100%,20%)">kaiyili</text>
<text x="0.459" y="0.656" font-size="0.048280" fill="hsl(0.0,100%,20%)">yuxinhu</text>
<text x="1.262" y="0.492" font-size="0.041292" fill="hsl(0.0,100%,20%)">romanl</text>
<text x="0.236" y="0.561" font-size="0.025018" fill="hsl(0.0,100%,20%)">ianelliott</text>
<text x="1.141" y="0.643" font-size="0.032187" fill="hsl(0.0,100%,20%)">ynovikov</text>
<text x="1.191" y="0.792" font-size="0.076760" fill="hsl(0.0,100%,20%)">jmadill</text>
<text x="1.609" y="0.400" font-size="0.038590" fill="hsl(180.0,100%,20%)">geofflang</text>
<text x="0.417" y="0.597" font-size="0.005364" fill="hsl(0.0,100%,20%)">aeubanks</text>
<text x="1.228" y="0.628" font-size="0.019342" fill="hsl(0.0,100%,20%)">antonio.caggiano</text>
<text x="0.121" y="0.637" font-size="0.012291" fill="hsl(0.0,100%,20%)">j.vigil</text>
<text x="0.928" y="0.580" font-size="0.002682" fill="hsl(0.0,100%,20%)">cstout</text>
<text x="1.344" y="0.319" font-size="0.005364" fill="hsl(0.0,100%,20%)">ayzhao</text>
<text x="1.152" y="0.250" font-size="0.002682" fill="hsl(0.0,100%,20%)">hans</text>
<text x="1.372" y="0.382" font-size="0.003793" fill="hsl(0.0,100%,20%)">thakis</text>
<text x="0.769" y="0.542" font-size="0.013411" fill="hsl(0.0,100%,20%)">b.schade</text>
<text x="1.801" y="0.329" font-size="0.025587" fill="hsl(180.0,100%,20%)">lexa.knyazev</text>
<text x="1.538" y="0.892" font-size="0.007096" fill="hsl(0.0,100%,20%)">vantablack</text>
<text x="1.636" y="0.726" font-size="0.029013" fill="hsl(0.0,100%,20%)">m.maiya</text>
<text x="1.884" y="0.439" font-size="0.005364" fill="hsl(180.0,100%,20%)">boliu</text>
<text x="0.158" y="0.831" font-size="0.017993" fill="hsl(0.0,100%,20%)">lfy</text>
<text x="1.406" y="0.224" font-size="0.004646" fill="hsl(180.0,100%,20%)">vasilyt</text>
<text x="1.062" y="0.349" font-size="0.007586" fill="hsl(180.0,100%,20%)">brianosman</text>
<text x="0.718" y="0.480" font-size="0.032630" fill="hsl(180.0,100%,20%)">kbr</text>
<text x="1.490" y="0.618" font-size="0.009291" fill="hsl(0.0,100%,20%)">bsheedy</text>
<text x="1.569" y="0.548" font-size="0.002682" fill="hsl(0.0,100%,20%)">rogerta</text>
<text x="0.688" y="0.633" font-size="0.010388" fill="hsl(180.0,100%,20%)">capn</text>
<text x="0.746" y="0.573" font-size="0.004646" fill="hsl(180.0,100%,20%)">sugoi</text>
<text x="1.619" y="0.256" font-size="0.017792" fill="hsl(180.0,100%,20%)">jonahr</text>
<text x="0.529" y="0.540" font-size="0.004646" fill="hsl(0.0,100%,20%)">natsu</text>
<text x="0.428" y="0.438" font-size="0.014193" fill="hsl(0.0,100%,20%)">zzyiwei</text>
<text x="1.435" y="0.283" font-size="0.027089" fill="hsl(180.0,100%,20%)">chris</text>
<text x="1.673" y="0.190" font-size="0.005998" fill="hsl(180.0,100%,20%)">rafael.cintron</text>
<text x="1.118" y="0.662" font-size="0.016964" fill="hsl(0.0,100%,20%)">senorblanco</text>
<text x="1.403" y="0.591" font-size="0.013937" fill="hsl(0.0,100%,20%)">steven</text>
<text x="1.041" y="0.409" font-size="0.015868" fill="hsl(180.0,100%,20%)">kpiddington</text>
<text x="0.682" y="0.350" font-size="0.011059" fill="hsl(180.0,100%,20%)">lehoangquyen</text>
<text x="0.935" y="0.265" font-size="0.021955" fill="hsl(180.0,100%,20%)">gman</text>
<text x="0.616" y="0.832" font-size="0.011380" fill="hsl(0.0,100%,20%)">solti</text>
<text x="1.273" y="0.856" font-size="0.025161" fill="hsl(0.0,100%,20%)">gert.wollny</text>
<text x="1.188" y="0.606" font-size="0.024436" fill="hsl(0.0,100%,20%)">lubosz.sarnecki</text>
<text x="0.979" y="0.842" font-size="0.016750" fill="hsl(0.0,100%,20%)">eddiehatfield</text>
<text x="0.609" y="0.384" font-size="0.012291" fill="hsl(0.0,100%,20%)">constantine.shablya</text>
<text x="0.844" y="0.430" font-size="0.009671" fill="hsl(180.0,100%,20%)">djg</text>
<text x="1.233" y="0.373" font-size="0.016534" fill="hsl(180.0,100%,20%)">kkinnunen</text>
<text x="0.097" y="0.540" font-size="0.005364" fill="hsl(0.0,100%,20%)">dnfield</text>
<text x="1.070" y="0.334" font-size="0.004646" fill="hsl(180.0,100%,20%)">doremylover123</text>
<text x="0.994" y="0.834" font-size="0.006570" fill="hsl(0.0,100%,20%)">doughorn</text>
<text x="0.663" y="0.582" font-size="0.010729" fill="hsl(0.0,100%,20%)">ffz</text>
<text x="1.655" y="0.243" font-size="0.002682" fill="hsl(180.0,100%,20%)">hob</text>
<text x="0.305" y="0.500" font-size="0.018775" fill="hsl(0.0,100%,20%)">penghuang</text>
<text x="0.456" y="0.610" font-size="0.005998" fill="hsl(0.0,100%,20%)">gregschlom</text>
<text x="0.708" y="0.190" font-size="0.004646" fill="hsl(180.0,100%,20%)">grt</text>
<text x="0.665" y="0.108" font-size="0.002682" fill="hsl(180.0,100%,20%)">jpmuraira</text>
<text x="0.568" y="0.547" font-size="0.010036" fill="hsl(0.0,100%,20%)">hailinzhang</text>
<text x="0.446" y="0.360" font-size="0.002682" fill="hsl(0.0,100%,20%)">mprzybyl</text>
<text x="0.063" y="0.605" font-size="0.023536" fill="hsl(0.0,100%,20%)">i.nazarov</text>
<text x="0.629" y="0.980" font-size="0.004646" fill="hsl(0.0,100%,20%)">chrisforbes</text>
<text x="0.965" y="0.585" font-size="0.003793" fill="hsl(0.0,100%,20%)">jie.a.chen</text>
<text x="1.921" y="0.157" font-size="0.004646" fill="hsl(0.0,100%,20%)">jwata</text>
<text x="1.835" y="0.111" font-size="0.002682" fill="hsl(0.0,100%,20%)">tikuta</text>
<text x="1.037" y="0.878" font-size="0.007586" fill="hsl(0.0,100%,20%)">mark</text>
<text x="0.338" y="0.134" font-size="0.004646" fill="hsl(180.0,100%,20%)">mfoltz</text>
<text x="0.416" y="0.234" font-size="0.002682" fill="hsl(180.0,100%,20%)">rwkeane</text>
<text x="1.574" y="0.185" font-size="0.004646" fill="hsl(180.0,100%,20%)">nazabris</text>
<text x="0.645" y="0.632" font-size="0.007586" fill="hsl(0.0,100%,20%)">olv</text>
<text x="1.109" y="0.936" font-size="0.006570" fill="hsl(0.0,100%,20%)">pkasting</text>
<text x="0.424" y="0.521" font-size="0.008047" fill="hsl(180.0,100%,20%)">robert.mader</text>
<text x="1.514" y="0.555" font-size="0.002682" fill="hsl(0.0,100%,20%)">kainino</text>
<text x="1.128" y="0.867" font-size="0.005998" fill="hsl(0.0,100%,20%)">sharma.loic</text>
<text x="0.720" y="0.824" font-size="0.008896" fill="hsl(0.0,100%,20%)">srisser</text>
<text x="1.843" y="0.254" font-size="0.006570" fill="hsl(180.0,100%,20%)">sunnyps</text>
<text x="0.391" y="0.550" font-size="0.005998" fill="hsl(0.0,100%,20%)">timvp</text>
<text x="0.090" y="0.538" font-size="0.002682" fill="hsl(0.0,100%,20%)">nicolascapens</text>
<text x="0.380" y="0.542" font-size="0.014193" fill="hsl(0.0,100%,20%)">sywow.choi</text>
<text x="0.971" y="0.474" font-size="0.005998" fill="hsl(180.0,100%,20%)">tvignatti</text>
<text x="1.972" y="0.574" font-size="0.004646" fill="hsl(0.0,100%,20%)">xing.xu</text>
<text x="1.807" y="0.558" font-size="0.002682" fill="hsl(0.0,100%,20%)">jiajia.qin</text>
<text x="1.408" y="0.125" font-size="0.003793" fill="hsl(180.0,100%,20%)">yahan</text>
</svg>
