<svg width="4000" height="2000" viewBox="-0.025 -0.025 2.05 1.05" xmlns="http://www.w3.org/2000/svg">
  <style>
    path {
      fill: none;
      stroke-linecap: round;
      stroke-opacity: 0.4;
    }

    text {
      text-anchor: middle;
      alignment-baseline: hanging;
    }
  </style>
  <g opacity="0.4">
<path d="M0.675 0.338 Q0.518 0.505 0.809 0.618" stroke="hsl(0.0,100%,35%)" stroke-width="0.00253"></path>
<path d="M0.675 0.338 Q0.876 0.389 1.019 0.301" stroke="hsl(0.0,100%,35%)" stroke-width="0.00177"></path>
<path d="M0.675 0.338 Q0.675 0.462 0.917 0.490" stroke="hsl(0.0,100%,35%)" stroke-width="0.00025"></path>
<path d="M0.675 0.338 Q0.740 0.759 1.576 0.820" stroke="hsl(0.0,100%,35%)" stroke-width="0.00025"></path>
<path d="M0.809 0.618 Q1.021 0.537 0.908 0.416" stroke="hsl(0.0,100%,35%)" stroke-width="0.00101"></path>
<path d="M0.809 0.618 Q1.168 0.502 1.019 0.301" stroke="hsl(0.0,100%,35%)" stroke-width="0.07282"></path>
<path d="M0.809 0.618 Q0.882 0.523 0.712 0.467" stroke="hsl(0.0,100%,35%)" stroke-width="0.05209"></path>
<path d="M0.809 0.618 Q1.313 0.434 1.063 0.147" stroke="hsl(0.0,100%,35%)" stroke-width="0.00405"></path>
<path d="M0.809 0.618 Q0.736 0.668 0.815 0.714" stroke="hsl(0.0,100%,35%)" stroke-width="0.00480"></path>
<path d="M0.809 0.618 Q0.399 0.499 0.077 0.673" stroke="hsl(0.0,100%,35%)" stroke-width="0.00228"></path>
<path d="M0.809 0.618 Q0.608 0.651 0.626 0.756" stroke="hsl(0.0,100%,35%)" stroke-width="0.00051"></path>
<path d="M0.809 0.618 Q0.795 0.504 0.568 0.486" stroke="hsl(0.0,100%,35%)" stroke-width="0.00025"></path>
<path d="M0.809 0.618 Q0.968 0.422 0.621 0.302" stroke="hsl(0.0,100%,35%)" stroke-width="0.00278"></path>
<path d="M0.809 0.618 Q1.180 0.578 1.183 0.388" stroke="hsl(0.0,100%,35%)" stroke-width="0.00126"></path>
<path d="M0.809 0.618 Q0.966 0.576 0.917 0.490" stroke="hsl(0.0,100%,35%)" stroke-width="0.01062"></path>
<path d="M0.809 0.618 Q1.230 0.410 0.914 0.159" stroke="hsl(0.0,100%,35%)" stroke-width="0.00025"></path>
<path d="M0.809 0.618 Q1.113 0.508 0.964 0.335" stroke="hsl(0.0,100%,35%)" stroke-width="0.00101"></path>
<path d="M0.809 0.618 Q0.370 0.614 0.264 0.827" stroke="hsl(0.0,100%,35%)" stroke-width="0.00025"></path>
<path d="M0.809 0.618 Q0.642 0.791 0.943 0.911" stroke="hsl(0.0,100%,35%)" stroke-width="0.00025"></path>
<path d="M0.809 0.618 Q0.712 0.506 0.470 0.529" stroke="hsl(0.0,100%,35%)" stroke-width="0.00025"></path>
<path d="M0.809 0.618 Q0.956 0.354 0.471 0.224" stroke="hsl(0.0,100%,35%)" stroke-width="0.00025"></path>
<path d="M0.809 0.618 Q1.031 0.872 1.576 0.820" stroke="hsl(0.0,100%,35%)" stroke-width="0.00126"></path>
<path d="M0.809 0.618 Q1.357 0.383 1.018 0.065" stroke="hsl(0.0,100%,35%)" stroke-width="0.00025"></path>
<path d="M0.809 0.618 Q0.674 0.613 0.634 0.678" stroke="hsl(0.0,100%,35%)" stroke-width="0.00051"></path>
<path d="M0.809 0.618 Q0.710 0.446 0.351 0.457" stroke="hsl(0.0,100%,35%)" stroke-width="0.00025"></path>
<path d="M0.809 0.618 Q0.827 0.650 0.891 0.648" stroke="hsl(0.0,100%,35%)" stroke-width="0.00025"></path>
<path d="M0.809 0.618 Q1.434 0.502 1.344 0.172" stroke="hsl(0.0,100%,35%)" stroke-width="0.00025"></path>
<path d="M0.809 0.618 Q0.814 0.534 0.650 0.513" stroke="hsl(0.0,100%,35%)" stroke-width="0.00025"></path>
<path d="M1.019 0.301 Q0.818 0.375 0.917 0.490" stroke="hsl(0.0,100%,35%)" stroke-width="0.00177"></path>
<path d="M1.019 0.301 Q0.661 0.418 0.809 0.618" stroke="hsl(0.0,100%,35%)" stroke-width="0.02781"></path>
<path d="M1.019 0.301 Q0.737 0.456 0.977 0.627" stroke="hsl(0.0,100%,35%)" stroke-width="0.00025"></path>
<path d="M1.019 0.301 Q0.734 0.323 0.712 0.467" stroke="hsl(0.0,100%,35%)" stroke-width="0.03338"></path>
<path d="M1.019 0.301 Q1.165 0.233 1.063 0.147" stroke="hsl(0.0,100%,35%)" stroke-width="0.02832"></path>
<path d="M1.019 0.301 Q1.081 0.209 0.914 0.159" stroke="hsl(0.0,100%,35%)" stroke-width="0.00076"></path>
<path d="M1.019 0.301 Q0.820 0.222 0.621 0.302" stroke="hsl(0.0,100%,35%)" stroke-width="0.00733"></path>
<path d="M1.019 0.301 Q1.032 0.378 1.183 0.388" stroke="hsl(0.0,100%,35%)" stroke-width="0.03312"></path>
<path d="M1.019 0.301 Q1.132 0.367 1.284 0.326" stroke="hsl(0.0,100%,35%)" stroke-width="0.00025"></path>
<path d="M1.019 0.301 Q0.251 0.299 0.077 0.673" stroke="hsl(0.0,100%,35%)" stroke-width="0.00683"></path>
<path d="M1.019 0.301 Q0.883 0.672 1.576 0.820" stroke="hsl(0.0,100%,35%)" stroke-width="0.00051"></path>
<path d="M1.019 0.301 Q0.941 0.298 0.918 0.336" stroke="hsl(0.0,100%,35%)" stroke-width="0.00076"></path>
<path d="M1.019 0.301 Q0.587 0.467 0.815 0.714" stroke="hsl(0.0,100%,35%)" stroke-width="0.00202"></path>
<path d="M1.019 0.301 Q1.295 0.221 1.199 0.069" stroke="hsl(0.0,100%,35%)" stroke-width="0.00025"></path>
<path d="M1.019 0.301 Q0.963 0.205 0.762 0.211" stroke="hsl(0.0,100%,35%)" stroke-width="0.00152"></path>
<path d="M1.019 0.301 Q1.252 0.272 1.245 0.152" stroke="hsl(0.0,100%,35%)" stroke-width="0.00051"></path>
<path d="M1.019 0.301 Q1.201 0.304 1.246 0.216" stroke="hsl(0.0,100%,35%)" stroke-width="0.00025"></path>
<path d="M1.019 0.301 Q0.440 0.347 0.402 0.640" stroke="hsl(0.0,100%,35%)" stroke-width="0.00025"></path>
<path d="M1.019 0.301 Q0.872 0.337 0.908 0.416" stroke="hsl(0.0,100%,35%)" stroke-width="0.00101"></path>
<path d="M1.019 0.301 Q0.749 0.363 0.809 0.508" stroke="hsl(0.0,100%,35%)" stroke-width="0.00025"></path>
<path d="M0.917 0.490 Q1.119 0.416 1.019 0.301" stroke="hsl(0.0,100%,35%)" stroke-width="0.01745"></path>
<path d="M0.917 0.490 Q0.833 0.437 0.712 0.467" stroke="hsl(0.0,100%,35%)" stroke-width="0.01188"></path>
<path d="M0.917 0.490 Q0.760 0.533 0.809 0.618" stroke="hsl(0.0,100%,35%)" stroke-width="0.01290"></path>
<path d="M0.917 0.490 Q1.181 0.324 0.914 0.159" stroke="hsl(0.0,100%,35%)" stroke-width="0.00025"></path>
<path d="M0.917 0.490 Q0.972 0.451 0.908 0.416" stroke="hsl(0.0,100%,35%)" stroke-width="0.00025"></path>
<path d="M0.917 0.490 Q0.687 0.582 0.815 0.714" stroke="hsl(0.0,100%,35%)" stroke-width="0.00582"></path>
<path d="M0.917 0.490 Q1.131 0.492 1.183 0.388" stroke="hsl(0.0,100%,35%)" stroke-width="0.00177"></path>
<path d="M0.917 0.490 Q0.350 0.413 0.077 0.673" stroke="hsl(0.0,100%,35%)" stroke-width="0.00076"></path>
<path d="M1.576 0.820 Q1.712 0.449 1.019 0.301" stroke="hsl(180.0,100%,35%)" stroke-width="0.00202"></path>
<path d="M1.576 0.820 Q1.517 0.881 1.624 0.923" stroke="hsl(180.0,100%,35%)" stroke-width="0.00025"></path>
<path d="M1.576 0.820 Q1.354 0.566 0.809 0.618" stroke="hsl(180.0,100%,35%)" stroke-width="0.00253"></path>
<path d="M1.576 0.820 Q1.427 0.471 0.712 0.467" stroke="hsl(180.0,100%,35%)" stroke-width="0.00025"></path>
<path d="M1.576 0.820 Q1.513 0.370 0.621 0.302" stroke="hsl(180.0,100%,35%)" stroke-width="0.00101"></path>
<path d="M1.576 0.820 Q1.858 0.381 1.063 0.147" stroke="hsl(180.0,100%,35%)" stroke-width="0.00101"></path>
<path d="M1.576 0.820 Q1.303 0.837 1.276 0.973" stroke="hsl(180.0,100%,35%)" stroke-width="0.00025"></path>
<path d="M1.576 0.820 Q1.725 0.526 1.183 0.388" stroke="hsl(180.0,100%,35%)" stroke-width="0.00051"></path>
<path d="M1.576 0.820 Q0.944 0.447 0.077 0.673" stroke="hsl(180.0,100%,35%)" stroke-width="0.00076"></path>
<path d="M1.685 0.292 Q1.595 0.294 1.579 0.338" stroke="hsl(180.0,100%,35%)" stroke-width="0.00126"></path>
<path d="M1.685 0.292 Q1.345 0.164 1.019 0.301" stroke="hsl(180.0,100%,35%)" stroke-width="0.00126"></path>
<path d="M1.685 0.292 Q0.576 0.161 0.077 0.673" stroke="hsl(180.0,100%,35%)" stroke-width="0.00051"></path>
<path d="M0.077 0.673 Q0.845 0.676 1.019 0.301" stroke="hsl(180.0,100%,35%)" stroke-width="0.00607"></path>
<path d="M0.077 0.673 Q0.047 0.787 0.264 0.827" stroke="hsl(180.0,100%,35%)" stroke-width="0.00228"></path>
<path d="M0.077 0.673 Q0.646 0.596 0.621 0.302" stroke="hsl(180.0,100%,35%)" stroke-width="0.00329"></path>
<path d="M0.077 0.673 Q0.560 0.697 0.712 0.467" stroke="hsl(180.0,100%,35%)" stroke-width="0.00101"></path>
<path d="M0.077 0.673 Q0.487 0.792 0.809 0.618" stroke="hsl(180.0,100%,35%)" stroke-width="0.00202"></path>
<path d="M0.077 0.673 Q0.189 0.739 0.343 0.699" stroke="hsl(180.0,100%,35%)" stroke-width="0.00025"></path>
<path d="M0.077 0.673 Q0.709 1.046 1.576 0.820" stroke="hsl(180.0,100%,35%)" stroke-width="0.00101"></path>
<path d="M0.077 0.673 Q0.633 0.527 0.471 0.224" stroke="hsl(180.0,100%,35%)" stroke-width="0.00025"></path>
<path d="M0.077 0.673 Q0.643 0.750 0.917 0.490" stroke="hsl(180.0,100%,35%)" stroke-width="0.00051"></path>
<path d="M0.077 0.673 Q0.991 0.607 1.063 0.147" stroke="hsl(180.0,100%,35%)" stroke-width="0.00076"></path>
<path d="M0.077 0.673 Q1.152 0.601 1.248 0.061" stroke="hsl(180.0,100%,35%)" stroke-width="0.00025"></path>
<path d="M1.183 0.339 Q1.131 0.287 1.019 0.301" stroke="hsl(0.0,100%,35%)" stroke-width="0.00152"></path>
<path d="M1.183 0.339 Q0.772 0.404 0.809 0.618" stroke="hsl(0.0,100%,35%)" stroke-width="0.00101"></path>
<path d="M1.183 0.339 Q0.845 0.308 0.712 0.467" stroke="hsl(0.0,100%,35%)" stroke-width="0.00025"></path>
<path d="M1.183 0.339 Q0.363 0.285 0.077 0.673" stroke="hsl(0.0,100%,35%)" stroke-width="0.00025"></path>
<path d="M0.712 0.467 Q1.010 0.522 1.183 0.388" stroke="hsl(0.0,100%,35%)" stroke-width="0.00961"></path>
<path d="M0.712 0.467 Q0.998 0.445 1.019 0.301" stroke="hsl(0.0,100%,35%)" stroke-width="0.01821"></path>
<path d="M0.712 0.467 Q0.639 0.562 0.809 0.618" stroke="hsl(0.0,100%,35%)" stroke-width="0.00986"></path>
<path d="M0.712 0.467 Q0.566 0.611 0.815 0.714" stroke="hsl(0.0,100%,35%)" stroke-width="0.00177"></path>
<path d="M0.712 0.467 Q0.796 0.395 0.675 0.338" stroke="hsl(0.0,100%,35%)" stroke-width="0.00025"></path>
<path d="M0.712 0.467 Q0.796 0.519 0.917 0.490" stroke="hsl(0.0,100%,35%)" stroke-width="0.00379"></path>
<path d="M0.712 0.467 Q0.458 0.389 0.252 0.496" stroke="hsl(0.0,100%,35%)" stroke-width="0.00051"></path>
<path d="M0.712 0.467 Q0.229 0.443 0.077 0.673" stroke="hsl(0.0,100%,35%)" stroke-width="0.00379"></path>
<path d="M0.712 0.467 Q1.143 0.377 1.063 0.147" stroke="hsl(0.0,100%,35%)" stroke-width="0.00076"></path>
<path d="M0.712 0.467 Q0.943 0.451 0.964 0.335" stroke="hsl(0.0,100%,35%)" stroke-width="0.00025"></path>
<path d="M1.449 0.179 Q1.136 0.154 1.019 0.301" stroke="hsl(0.0,100%,35%)" stroke-width="0.00101"></path>
<path d="M1.449 0.179 Q0.778 0.271 0.809 0.618" stroke="hsl(0.0,100%,35%)" stroke-width="0.00101"></path>
<path d="M1.449 0.179 Q0.989 0.189 0.908 0.416" stroke="hsl(0.0,100%,35%)" stroke-width="0.00025"></path>
<path d="M1.449 0.179 Q1.539 0.127 1.458 0.072" stroke="hsl(0.0,100%,35%)" stroke-width="0.00025"></path>
<path d="M0.908 0.416 Q0.697 0.498 0.809 0.618" stroke="hsl(0.0,100%,35%)" stroke-width="0.01922"></path>
<path d="M0.908 0.416 Q0.770 0.402 0.712 0.467" stroke="hsl(0.0,100%,35%)" stroke-width="0.00152"></path>
<path d="M0.908 0.416 Q1.056 0.381 1.019 0.301" stroke="hsl(0.0,100%,35%)" stroke-width="0.01972"></path>
<path d="M0.908 0.416 Q0.854 0.455 0.917 0.490" stroke="hsl(0.0,100%,35%)" stroke-width="0.00025"></path>
<path d="M0.908 0.416 Q0.287 0.378 0.077 0.673" stroke="hsl(0.0,100%,35%)" stroke-width="0.00051"></path>
<path d="M1.216 0.231 Q0.703 0.343 0.809 0.618" stroke="hsl(0.0,100%,35%)" stroke-width="0.00455"></path>
<path d="M1.216 0.231 Q1.061 0.227 1.019 0.301" stroke="hsl(0.0,100%,35%)" stroke-width="0.00430"></path>
<path d="M1.216 0.231 Q0.776 0.248 0.712 0.467" stroke="hsl(0.0,100%,35%)" stroke-width="0.00202"></path>
<path d="M1.216 0.231 Q0.914 0.262 0.908 0.416" stroke="hsl(0.0,100%,35%)" stroke-width="0.00025"></path>
<path d="M0.971 0.489 Q0.376 0.402 0.077 0.673" stroke="hsl(180.0,100%,35%)" stroke-width="0.00025"></path>
<path d="M0.971 0.489 Q1.145 0.405 1.019 0.301" stroke="hsl(180.0,100%,35%)" stroke-width="0.00025"></path>
<path d="M0.971 0.489 Q0.786 0.521 0.809 0.618" stroke="hsl(180.0,100%,35%)" stroke-width="0.00025"></path>
<path d="M0.914 0.159 Q0.651 0.325 0.917 0.490" stroke="hsl(0.0,100%,35%)" stroke-width="0.00405"></path>
<path d="M0.914 0.159 Q0.084 0.248 0.077 0.673" stroke="hsl(0.0,100%,35%)" stroke-width="0.00025"></path>
<path d="M0.914 0.159 Q0.865 0.327 1.183 0.388" stroke="hsl(0.0,100%,35%)" stroke-width="0.00025"></path>
<path d="M0.914 0.159 Q0.852 0.251 1.019 0.301" stroke="hsl(0.0,100%,35%)" stroke-width="0.00455"></path>
<path d="M0.914 0.159 Q0.494 0.368 0.809 0.618" stroke="hsl(0.0,100%,35%)" stroke-width="0.00253"></path>
<path d="M0.914 0.159 Q0.567 0.272 0.712 0.467" stroke="hsl(0.0,100%,35%)" stroke-width="0.00177"></path>
<path d="M0.815 0.714 Q1.046 0.498 0.675 0.338" stroke="hsl(0.0,100%,35%)" stroke-width="0.00025"></path>
<path d="M0.815 0.714 Q0.708 0.493 0.252 0.496" stroke="hsl(0.0,100%,35%)" stroke-width="0.00025"></path>
<path d="M0.815 0.714 Q0.889 0.665 0.809 0.618" stroke="hsl(0.0,100%,35%)" stroke-width="0.00531"></path>
<path d="M0.815 0.714 Q1.046 0.622 0.917 0.490" stroke="hsl(0.0,100%,35%)" stroke-width="0.00051"></path>
<path d="M0.815 0.714 Q1.309 0.456 0.914 0.159" stroke="hsl(0.0,100%,35%)" stroke-width="0.00025"></path>
<path d="M0.815 0.714 Q0.962 0.570 0.712 0.467" stroke="hsl(0.0,100%,35%)" stroke-width="0.00329"></path>
<path d="M0.815 0.714 Q1.248 0.549 1.019 0.301" stroke="hsl(0.0,100%,35%)" stroke-width="0.00329"></path>
<path d="M0.815 0.714 Q0.965 0.703 0.977 0.627" stroke="hsl(0.0,100%,35%)" stroke-width="0.00025"></path>
<path d="M0.815 0.714 Q1.393 0.480 1.063 0.147" stroke="hsl(0.0,100%,35%)" stroke-width="0.00202"></path>
<path d="M0.815 0.714 Q1.260 0.625 1.183 0.388" stroke="hsl(0.0,100%,35%)" stroke-width="0.00329"></path>
<path d="M0.815 0.714 Q0.479 0.546 0.077 0.673" stroke="hsl(0.0,100%,35%)" stroke-width="0.00076"></path>
<path d="M0.815 0.714 Q0.938 0.766 1.066 0.718" stroke="hsl(0.0,100%,35%)" stroke-width="0.00025"></path>
<path d="M0.815 0.714 Q1.332 0.574 1.171 0.291" stroke="hsl(0.0,100%,35%)" stroke-width="0.00076"></path>
<path d="M0.815 0.714 Q1.111 0.919 1.576 0.820" stroke="hsl(0.0,100%,35%)" stroke-width="0.00025"></path>
<path d="M1.183 0.388 Q0.885 0.333 0.712 0.467" stroke="hsl(0.0,100%,35%)" stroke-width="0.01846"></path>
<path d="M1.183 0.388 Q1.171 0.312 1.019 0.301" stroke="hsl(0.0,100%,35%)" stroke-width="0.02225"></path>
<path d="M1.183 0.388 Q0.738 0.478 0.815 0.714" stroke="hsl(0.0,100%,35%)" stroke-width="0.00025"></path>
<path d="M1.183 0.388 Q0.812 0.429 0.809 0.618" stroke="hsl(0.0,100%,35%)" stroke-width="0.00278"></path>
<path d="M1.183 0.388 Q1.232 0.220 0.914 0.159" stroke="hsl(0.0,100%,35%)" stroke-width="0.00076"></path>
<path d="M1.183 0.388 Q1.316 0.244 1.063 0.147" stroke="hsl(0.0,100%,35%)" stroke-width="0.00051"></path>
<path d="M1.183 0.388 Q1.021 0.625 1.447 0.756" stroke="hsl(0.0,100%,35%)" stroke-width="0.00025"></path>
<path d="M1.183 0.388 Q1.023 0.347 0.908 0.416" stroke="hsl(0.0,100%,35%)" stroke-width="0.00051"></path>
<path d="M1.183 0.388 Q0.969 0.386 0.917 0.490" stroke="hsl(0.0,100%,35%)" stroke-width="0.00051"></path>
<path d="M1.183 0.388 Q0.837 0.718 1.404 0.959" stroke="hsl(0.0,100%,35%)" stroke-width="0.00025"></path>
<path d="M1.011 0.292 Q0.649 0.415 0.809 0.618" stroke="hsl(0.0,100%,35%)" stroke-width="0.00126"></path>
<path d="M1.011 0.292 Q1.008 0.298 1.019 0.301" stroke="hsl(0.0,100%,35%)" stroke-width="0.00101"></path>
<path d="M1.011 0.292 Q0.796 0.150 0.471 0.224" stroke="hsl(0.0,100%,35%)" stroke-width="0.00025"></path>
<path d="M1.011 0.292 Q0.722 0.320 0.712 0.467" stroke="hsl(0.0,100%,35%)" stroke-width="0.00025"></path>
<path d="M1.063 0.147 Q0.918 0.215 1.019 0.301" stroke="hsl(0.0,100%,35%)" stroke-width="0.01365"></path>
<path d="M1.063 0.147 Q0.863 0.221 0.964 0.335" stroke="hsl(0.0,100%,35%)" stroke-width="0.00025"></path>
<path d="M1.063 0.147 Q0.559 0.332 0.809 0.618" stroke="hsl(0.0,100%,35%)" stroke-width="0.00101"></path>
<path d="M1.063 0.147 Q0.632 0.237 0.712 0.467" stroke="hsl(0.0,100%,35%)" stroke-width="0.00025"></path>
<path d="M1.063 0.147 Q0.486 0.381 0.815 0.714" stroke="hsl(0.0,100%,35%)" stroke-width="0.00076"></path>
<path d="M1.063 0.147 Q0.718 0.136 0.621 0.302" stroke="hsl(0.0,100%,35%)" stroke-width="0.00076"></path>
<path d="M1.063 0.147 Q0.392 0.505 0.943 0.911" stroke="hsl(0.0,100%,35%)" stroke-width="0.00025"></path>
<path d="M1.063 0.147 Q0.262 0.146 0.084 0.536" stroke="hsl(0.0,100%,35%)" stroke-width="0.00025"></path>
<path d="M0.791 0.489 Q1.055 0.441 1.019 0.301" stroke="hsl(0.0,100%,35%)" stroke-width="0.00051"></path>
<path d="M0.791 0.489 Q0.697 0.557 0.809 0.618" stroke="hsl(0.0,100%,35%)" stroke-width="0.00051"></path>
<path d="M0.791 0.489 Q1.201 0.372 1.063 0.147" stroke="hsl(0.0,100%,35%)" stroke-width="0.00025"></path>
<path d="M0.264 0.827 Q0.703 0.832 0.809 0.618" stroke="hsl(180.0,100%,35%)" stroke-width="0.00455"></path>
<path d="M0.264 0.827 Q1.062 0.715 1.019 0.301" stroke="hsl(180.0,100%,35%)" stroke-width="0.00430"></path>
<path d="M0.264 0.827 Q0.293 0.713 0.077 0.673" stroke="hsl(180.0,100%,35%)" stroke-width="0.00556"></path>
<path d="M0.264 0.827 Q0.862 0.636 0.621 0.302" stroke="hsl(180.0,100%,35%)" stroke-width="0.00177"></path>
<path d="M0.264 0.827 Q0.925 1.086 1.576 0.820" stroke="hsl(180.0,100%,35%)" stroke-width="0.00025"></path>
<path d="M0.621 0.302 Q0.052 0.379 0.077 0.673" stroke="hsl(180.0,100%,35%)" stroke-width="0.00253"></path>
<path d="M0.621 0.302 Q0.684 0.752 1.576 0.820" stroke="hsl(180.0,100%,35%)" stroke-width="0.00126"></path>
<path d="M0.621 0.302 Q0.462 0.498 0.809 0.618" stroke="hsl(180.0,100%,35%)" stroke-width="0.00253"></path>
<path d="M0.621 0.302 Q0.820 0.381 1.019 0.301" stroke="hsl(180.0,100%,35%)" stroke-width="0.00455"></path>
<path d="M0.621 0.302 Q0.966 0.313 1.063 0.147" stroke="hsl(180.0,100%,35%)" stroke-width="0.00126"></path>
<path d="M0.621 0.302 Q0.468 0.687 1.186 0.846" stroke="hsl(180.0,100%,35%)" stroke-width="0.00076"></path>
<path d="M0.621 0.302 Q0.535 0.402 0.712 0.467" stroke="hsl(180.0,100%,35%)" stroke-width="0.00025"></path>
<path d="M0.621 0.302 Q0.833 0.457 1.183 0.388" stroke="hsl(180.0,100%,35%)" stroke-width="0.00025"></path>
<path d="M1.248 0.061 Q0.589 0.441 1.186 0.846" stroke="hsl(180.0,100%,35%)" stroke-width="0.00025"></path>
<path d="M1.248 0.061 Q0.746 0.567 1.624 0.923" stroke="hsl(180.0,100%,35%)" stroke-width="0.00051"></path>
<path d="M1.248 0.061 Q0.941 0.135 1.019 0.301" stroke="hsl(180.0,100%,35%)" stroke-width="0.00759"></path>
<path d="M1.248 0.061 Q1.086 0.067 1.063 0.147" stroke="hsl(180.0,100%,35%)" stroke-width="0.00025"></path>
<path d="M1.248 0.061 Q0.804 0.506 1.576 0.820" stroke="hsl(180.0,100%,35%)" stroke-width="0.00329"></path>
<path d="M1.248 0.061 Q0.582 0.252 0.809 0.618" stroke="hsl(180.0,100%,35%)" stroke-width="0.00076"></path>
<path d="M1.248 0.061 Q0.172 0.133 0.077 0.673" stroke="hsl(180.0,100%,35%)" stroke-width="0.00228"></path>
<path d="M1.248 0.061 Q1.207 0.136 1.344 0.172" stroke="hsl(180.0,100%,35%)" stroke-width="0.00076"></path>
<path d="M1.248 0.061 Q0.741 0.056 0.621 0.302" stroke="hsl(180.0,100%,35%)" stroke-width="0.00051"></path>
<path d="M0.762 0.211 Q0.818 0.308 1.019 0.301" stroke="hsl(0.0,100%,35%)" stroke-width="0.03641"></path>
<path d="M0.762 0.211 Q0.831 0.384 1.183 0.388" stroke="hsl(0.0,100%,35%)" stroke-width="0.02630"></path>
<path d="M0.762 0.211 Q0.533 0.329 0.712 0.467" stroke="hsl(0.0,100%,35%)" stroke-width="0.00101"></path>
<path d="M0.762 0.211 Q0.619 0.228 0.621 0.302" stroke="hsl(0.0,100%,35%)" stroke-width="0.00025"></path>
<path d="M0.762 0.211 Q0.460 0.424 0.809 0.618" stroke="hsl(0.0,100%,35%)" stroke-width="0.00025"></path>
<path d="M0.762 0.211 Q0.050 0.305 0.077 0.673" stroke="hsl(0.0,100%,35%)" stroke-width="0.00051"></path>
<path d="M1.186 0.846 Q1.538 0.540 1.019 0.301" stroke="hsl(180.0,100%,35%)" stroke-width="0.00303"></path>
<path d="M1.186 0.846 Q1.402 0.911 1.576 0.820" stroke="hsl(180.0,100%,35%)" stroke-width="0.00936"></path>
<path d="M1.186 0.846 Q1.180 0.657 0.809 0.618" stroke="hsl(180.0,100%,35%)" stroke-width="0.00455"></path>
<path d="M1.186 0.846 Q1.343 0.972 1.624 0.923" stroke="hsl(180.0,100%,35%)" stroke-width="0.00126"></path>
<path d="M1.186 0.846 Q1.684 0.472 1.063 0.147" stroke="hsl(180.0,100%,35%)" stroke-width="0.00101"></path>
<path d="M1.186 0.846 Q1.339 0.461 0.621 0.302" stroke="hsl(180.0,100%,35%)" stroke-width="0.00076"></path>
<path d="M1.186 0.846 Q0.770 0.538 0.077 0.673" stroke="hsl(180.0,100%,35%)" stroke-width="0.00051"></path>
<path d="M1.186 0.846 Q1.389 0.853 1.447 0.756" stroke="hsl(180.0,100%,35%)" stroke-width="0.00025"></path>
<path d="M1.624 0.923 Q1.682 0.862 1.576 0.820" stroke="hsl(180.0,100%,35%)" stroke-width="0.00480"></path>
<path d="M1.624 0.923 Q1.460 0.608 0.809 0.618" stroke="hsl(180.0,100%,35%)" stroke-width="0.00076"></path>
<path d="M1.624 0.923 Q1.466 0.797 1.186 0.846" stroke="hsl(180.0,100%,35%)" stroke-width="0.00278"></path>
<path d="M1.624 0.923 Q1.819 0.492 1.019 0.301" stroke="hsl(180.0,100%,35%)" stroke-width="0.00025"></path>
<path d="M1.624 0.923 Q1.050 0.489 0.077 0.673" stroke="hsl(180.0,100%,35%)" stroke-width="0.00177"></path>
<path d="M1.624 0.923 Q2.126 0.417 1.248 0.061" stroke="hsl(180.0,100%,35%)" stroke-width="0.00076"></path>
<path d="M1.624 0.923 Q1.533 0.513 0.712 0.467" stroke="hsl(180.0,100%,35%)" stroke-width="0.00025"></path>
<path d="M1.624 0.923 Q2.085 0.492 1.344 0.172" stroke="hsl(180.0,100%,35%)" stroke-width="0.00051"></path>
<path d="M1.624 0.923 Q1.619 0.412 0.621 0.302" stroke="hsl(180.0,100%,35%)" stroke-width="0.00177"></path>
<path d="M1.257 0.679 Q1.081 0.559 0.809 0.618" stroke="hsl(0.0,100%,35%)" stroke-width="0.00051"></path>
<path d="M1.257 0.679 Q1.238 0.516 0.917 0.490" stroke="hsl(0.0,100%,35%)" stroke-width="0.00076"></path>
<path d="M1.257 0.679 Q1.502 0.350 0.914 0.159" stroke="hsl(0.0,100%,35%)" stroke-width="0.00025"></path>
<path d="M1.257 0.679 Q1.452 0.519 1.183 0.388" stroke="hsl(0.0,100%,35%)" stroke-width="0.00025"></path>
<path d="M0.791 0.847 Q0.816 0.909 0.943 0.911" stroke="hsl(0.0,100%,35%)" stroke-width="0.00051"></path>
<path d="M0.791 0.847 Q0.983 0.736 0.809 0.618" stroke="hsl(0.0,100%,35%)" stroke-width="0.00025"></path>
<path d="M0.791 0.847 Q1.341 0.620 1.019 0.301" stroke="hsl(0.0,100%,35%)" stroke-width="0.00025"></path>
<path d="M0.252 0.496 Q0.264 0.646 0.559 0.674" stroke="hsl(180.0,100%,35%)" stroke-width="0.00025"></path>
<path d="M0.252 0.496 Q0.433 0.669 0.809 0.618" stroke="hsl(180.0,100%,35%)" stroke-width="0.00051"></path>
<path d="M0.252 0.496 Q0.590 0.626 0.917 0.490" stroke="hsl(180.0,100%,35%)" stroke-width="0.00025"></path>
<path d="M0.252 0.496 Q0.792 0.552 1.019 0.301" stroke="hsl(180.0,100%,35%)" stroke-width="0.00051"></path>
<path d="M0.252 0.496 Q0.023 0.550 0.077 0.673" stroke="hsl(180.0,100%,35%)" stroke-width="0.00101"></path>
<path d="M0.252 0.496 Q0.506 0.574 0.712 0.467" stroke="hsl(180.0,100%,35%)" stroke-width="0.00126"></path>
<path d="M0.252 0.496 Q0.212 0.598 0.402 0.640" stroke="hsl(180.0,100%,35%)" stroke-width="0.00025"></path>
<path d="M0.252 0.496 Q0.804 0.629 1.183 0.388" stroke="hsl(180.0,100%,35%)" stroke-width="0.00025"></path>
<path d="M0.252 0.496 Q0.359 0.718 0.815 0.714" stroke="hsl(180.0,100%,35%)" stroke-width="0.00025"></path>
<path d="M0.977 0.627 Q0.900 0.590 0.809 0.618" stroke="hsl(0.0,100%,35%)" stroke-width="0.00202"></path>
<path d="M0.977 0.627 Q0.973 0.494 0.712 0.467" stroke="hsl(0.0,100%,35%)" stroke-width="0.00152"></path>
<path d="M0.977 0.627 Q1.320 0.381 0.914 0.159" stroke="hsl(0.0,100%,35%)" stroke-width="0.00025"></path>
<path d="M0.977 0.627 Q1.057 0.547 0.917 0.490" stroke="hsl(0.0,100%,35%)" stroke-width="0.00025"></path>
<path d="M0.977 0.627 Q1.271 0.549 1.183 0.388" stroke="hsl(0.0,100%,35%)" stroke-width="0.00101"></path>
<path d="M0.977 0.627 Q1.259 0.473 1.019 0.301" stroke="hsl(0.0,100%,35%)" stroke-width="0.00126"></path>
<path d="M0.977 0.627 Q0.490 0.470 0.077 0.673" stroke="hsl(0.0,100%,35%)" stroke-width="0.00025"></path>
<path d="M0.977 0.627 Q0.827 0.639 0.815 0.714" stroke="hsl(0.0,100%,35%)" stroke-width="0.00025"></path>
<path d="M1.171 0.291 Q0.654 0.431 0.815 0.714" stroke="hsl(0.0,100%,35%)" stroke-width="0.00101"></path>
<path d="M1.171 0.291 Q0.728 0.382 0.809 0.618" stroke="hsl(0.0,100%,35%)" stroke-width="0.00025"></path>
<path d="M1.171 0.291 Q1.099 0.342 1.183 0.388" stroke="hsl(0.0,100%,35%)" stroke-width="0.00051"></path>
<path d="M1.171 0.291 Q1.087 0.266 1.019 0.301" stroke="hsl(0.0,100%,35%)" stroke-width="0.00025"></path>
<path d="M0.563 0.504 Q0.953 0.494 1.019 0.301" stroke="hsl(0.0,100%,35%)" stroke-width="0.00228"></path>
<path d="M0.563 0.504 Q0.594 0.610 0.809 0.618" stroke="hsl(0.0,100%,35%)" stroke-width="0.00303"></path>
<path d="M0.563 0.504 Q0.184 0.491 0.077 0.673" stroke="hsl(0.0,100%,35%)" stroke-width="0.00076"></path>
<path d="M1.018 0.065 Q0.471 0.300 0.809 0.618" stroke="hsl(180.0,100%,35%)" stroke-width="0.00025"></path>
<path d="M1.018 0.065 Q0.829 0.183 1.019 0.301" stroke="hsl(180.0,100%,35%)" stroke-width="0.00101"></path>
<path d="M1.018 0.065 Q0.061 0.181 0.077 0.673" stroke="hsl(180.0,100%,35%)" stroke-width="0.00051"></path>
<path d="M1.284 0.326 Q1.184 0.337 1.183 0.388" stroke="hsl(0.0,100%,35%)" stroke-width="0.01821"></path>
<path d="M1.284 0.326 Q1.172 0.261 1.019 0.301" stroke="hsl(0.0,100%,35%)" stroke-width="0.01922"></path>
<path d="M1.284 0.326 Q0.886 0.282 0.712 0.467" stroke="hsl(0.0,100%,35%)" stroke-width="0.00051"></path>
<path d="M1.284 0.326 Q0.813 0.377 0.809 0.618" stroke="hsl(0.0,100%,35%)" stroke-width="0.00126"></path>
<path d="M1.284 0.326 Q1.024 0.296 0.908 0.416" stroke="hsl(0.0,100%,35%)" stroke-width="0.00025"></path>
<path d="M1.284 0.326 Q0.403 0.258 0.077 0.673" stroke="hsl(0.0,100%,35%)" stroke-width="0.00025"></path>
<path d="M1.387 0.301 Q1.215 0.304 1.183 0.388" stroke="hsl(0.0,100%,35%)" stroke-width="0.01037"></path>
<path d="M1.387 0.301 Q1.203 0.228 1.019 0.301" stroke="hsl(0.0,100%,35%)" stroke-width="0.01188"></path>
<path d="M1.387 0.301 Q0.434 0.225 0.077 0.673" stroke="hsl(0.0,100%,35%)" stroke-width="0.00025"></path>
<path d="M1.897 0.463 Q1.587 0.206 1.019 0.301" stroke="hsl(180.0,100%,35%)" stroke-width="0.00025"></path>
<path d="M1.897 0.463 Q1.451 0.577 1.576 0.820" stroke="hsl(180.0,100%,35%)" stroke-width="0.00126"></path>
<path d="M1.897 0.463 Q1.972 0.402 1.870 0.352" stroke="hsl(180.0,100%,35%)" stroke-width="0.00126"></path>
<path d="M0.450 0.399 Q0.454 0.581 0.809 0.618" stroke="hsl(180.0,100%,35%)" stroke-width="0.00025"></path>
<path d="M0.450 0.399 Q0.044 0.461 0.077 0.673" stroke="hsl(180.0,100%,35%)" stroke-width="0.00025"></path>
<path d="M0.450 0.399 Q0.812 0.464 1.019 0.301" stroke="hsl(180.0,100%,35%)" stroke-width="0.00025"></path>
<path d="M0.450 0.399 Q0.527 0.485 0.712 0.467" stroke="hsl(180.0,100%,35%)" stroke-width="0.00025"></path>
<path d="M1.351 0.186 Q1.093 0.177 1.019 0.301" stroke="hsl(180.0,100%,35%)" stroke-width="0.00101"></path>
<path d="M1.351 0.186 Q0.893 0.098 0.621 0.302" stroke="hsl(180.0,100%,35%)" stroke-width="0.00025"></path>
<path d="M1.351 0.186 Q0.956 0.548 1.576 0.820" stroke="hsl(180.0,100%,35%)" stroke-width="0.00025"></path>
<path d="M1.221 0.499 Q1.290 0.436 1.183 0.388" stroke="hsl(0.0,100%,35%)" stroke-width="0.00025"></path>
<path d="M1.221 0.499 Q1.076 0.434 0.917 0.490" stroke="hsl(0.0,100%,35%)" stroke-width="0.00025"></path>
<path d="M1.221 0.499 Q1.423 0.291 1.063 0.147" stroke="hsl(0.0,100%,35%)" stroke-width="0.00025"></path>
<path d="M1.221 0.499 Q1.278 0.360 1.019 0.301" stroke="hsl(0.0,100%,35%)" stroke-width="0.00025"></path>
<path d="M1.221 0.499 Q0.919 0.476 0.809 0.618" stroke="hsl(0.0,100%,35%)" stroke-width="0.00025"></path>
<path d="M1.016 0.343 Q0.692 0.440 0.809 0.618" stroke="hsl(180.0,100%,35%)" stroke-width="0.00101"></path>
<path d="M1.016 0.343 Q0.851 0.243 0.621 0.302" stroke="hsl(180.0,100%,35%)" stroke-width="0.00051"></path>
<path d="M1.016 0.343 Q1.196 0.255 1.063 0.147" stroke="hsl(180.0,100%,35%)" stroke-width="0.00025"></path>
<path d="M1.016 0.343 Q0.282 0.320 0.077 0.673" stroke="hsl(180.0,100%,35%)" stroke-width="0.00051"></path>
<path d="M0.305 0.634 Q0.929 0.611 1.019 0.301" stroke="hsl(180.0,100%,35%)" stroke-width="0.00025"></path>
<path d="M0.305 0.634 Q1.179 0.741 1.579 0.338" stroke="hsl(180.0,100%,35%)" stroke-width="0.00025"></path>
<path d="M0.305 0.634 Q0.160 0.608 0.077 0.673" stroke="hsl(180.0,100%,35%)" stroke-width="0.00025"></path>
<path d="M0.468 0.691 Q1.055 0.606 1.019 0.301" stroke="hsl(0.0,100%,35%)" stroke-width="0.00101"></path>
<path d="M0.468 0.691 Q0.696 0.723 0.809 0.618" stroke="hsl(0.0,100%,35%)" stroke-width="0.00228"></path>
<path d="M0.468 0.691 Q0.530 0.896 0.943 0.911" stroke="hsl(0.0,100%,35%)" stroke-width="0.00025"></path>
<path d="M0.468 0.691 Q0.286 0.604 0.077 0.673" stroke="hsl(0.0,100%,35%)" stroke-width="0.00025"></path>
<path d="M0.084 0.536 Q-0.029 0.603 0.077 0.673" stroke="hsl(180.0,100%,35%)" stroke-width="0.00101"></path>
<path d="M0.084 0.536 Q0.907 0.905 1.808 0.585" stroke="hsl(180.0,100%,35%)" stroke-width="0.00025"></path>
<path d="M0.084 0.536 Q0.739 0.606 1.019 0.301" stroke="hsl(180.0,100%,35%)" stroke-width="0.00051"></path>
<path d="M0.084 0.536 Q0.381 0.722 0.809 0.618" stroke="hsl(180.0,100%,35%)" stroke-width="0.00025"></path>
<path d="M1.090 0.505 Q1.217 0.389 1.019 0.301" stroke="hsl(0.0,100%,35%)" stroke-width="0.00076"></path>
<path d="M1.090 0.505 Q0.859 0.505 0.809 0.618" stroke="hsl(0.0,100%,35%)" stroke-width="0.00126"></path>
<path d="M1.090 0.505 Q0.932 0.410 0.712 0.467" stroke="hsl(0.0,100%,35%)" stroke-width="0.00025"></path>
<path d="M0.805 0.118 Q0.911 0.184 1.063 0.147" stroke="hsl(180.0,100%,35%)" stroke-width="0.00076"></path>
<path d="M0.805 0.118 Q0.629 0.623 1.576 0.820" stroke="hsl(180.0,100%,35%)" stroke-width="0.00051"></path>
<path d="M0.805 0.118 Q-0.003 0.250 0.077 0.673" stroke="hsl(180.0,100%,35%)" stroke-width="0.00076"></path>
<path d="M0.805 0.118 Q0.407 0.369 0.809 0.618" stroke="hsl(180.0,100%,35%)" stroke-width="0.00025"></path>
<path d="M0.919 0.385 Q0.677 0.480 0.809 0.618" stroke="hsl(0.0,100%,35%)" stroke-width="0.00177"></path>
<path d="M0.919 0.385 Q0.267 0.360 0.077 0.673" stroke="hsl(0.0,100%,35%)" stroke-width="0.00051"></path>
<path d="M0.919 0.385 Q1.036 0.363 1.019 0.301" stroke="hsl(0.0,100%,35%)" stroke-width="0.00202"></path>
<path d="M0.919 0.385 Q0.840 0.795 1.624 0.923" stroke="hsl(0.0,100%,35%)" stroke-width="0.00025"></path>
<path d="M0.919 0.385 Q0.899 0.734 1.576 0.820" stroke="hsl(0.0,100%,35%)" stroke-width="0.00025"></path>
<path d="M0.919 0.385 Q0.750 0.384 0.712 0.467" stroke="hsl(0.0,100%,35%)" stroke-width="0.00025"></path>
<path d="M0.964 0.335 Q0.250 0.327 0.077 0.673" stroke="hsl(180.0,100%,35%)" stroke-width="0.00177"></path>
<path d="M0.964 0.335 Q1.018 0.329 1.019 0.301" stroke="hsl(180.0,100%,35%)" stroke-width="0.00303"></path>
<path d="M0.964 0.335 Q0.660 0.446 0.809 0.618" stroke="hsl(180.0,100%,35%)" stroke-width="0.00101"></path>
<path d="M0.964 0.335 Q0.819 0.250 0.621 0.302" stroke="hsl(180.0,100%,35%)" stroke-width="0.00076"></path>
<path d="M0.964 0.335 Q0.882 0.700 1.576 0.820" stroke="hsl(180.0,100%,35%)" stroke-width="0.00025"></path>
<path d="M0.964 0.335 Q1.031 0.405 1.183 0.388" stroke="hsl(180.0,100%,35%)" stroke-width="0.00025"></path>
<path d="M0.378 0.396 Q0.774 0.477 1.019 0.301" stroke="hsl(0.0,100%,35%)" stroke-width="0.00051"></path>
<path d="M0.378 0.396 Q0.415 0.593 0.809 0.618" stroke="hsl(0.0,100%,35%)" stroke-width="0.00076"></path>
<path d="M0.378 0.396 Q0.627 0.512 0.908 0.416" stroke="hsl(0.0,100%,35%)" stroke-width="0.00025"></path>
<path d="M1.768 0.699 Q0.943 0.348 0.077 0.673" stroke="hsl(180.0,100%,35%)" stroke-width="0.00025"></path>
<path d="M1.768 0.699 Q1.879 0.650 1.808 0.585" stroke="hsl(180.0,100%,35%)" stroke-width="0.00025"></path>
<path d="M1.768 0.699 Q1.712 0.350 1.019 0.301" stroke="hsl(180.0,100%,35%)" stroke-width="0.00025"></path>
<path d="M0.339 0.631 Q0.584 0.719 0.809 0.618" stroke="hsl(180.0,100%,35%)" stroke-width="0.00025"></path>
<path d="M0.339 0.631 Q0.943 0.602 1.019 0.301" stroke="hsl(180.0,100%,35%)" stroke-width="0.00025"></path>
<path d="M0.339 0.631 Q0.174 0.600 0.077 0.673" stroke="hsl(180.0,100%,35%)" stroke-width="0.00025"></path>
</g>
<text x="0.675" y="0.332" font-size="0.011074" fill="hsl(0.0,100%,20%)">abdolrashidi</text>
<text x="0.809" y="0.578" font-size="0.081231" fill="hsl(0.0,100%,20%)">syoussefi</text>
<text x="1.019" y="0.251" font-size="0.101031" fill="hsl(0.0,100%,20%)">jmadill</text>
<text x="0.917" y="0.469" font-size="0.041575" fill="hsl(0.0,100%,20%)">cclao</text>
<text x="1.576" y="0.806" font-size="0.027763" fill="hsl(180.0,100%,20%)">kbr</text>
<text x="1.685" y="0.288" font-size="0.008371" fill="hsl(180.0,100%,20%)">adkushwa</text>
<text x="1.579" y="0.335" font-size="0.005919" fill="hsl(180.0,100%,20%)">rafael.cintron</text>
<text x="0.077" y="0.655" font-size="0.036167" fill="hsl(180.0,100%,20%)">geofflang</text>
<text x="1.183" y="0.335" font-size="0.008371" fill="hsl(0.0,100%,20%)">amy.liu</text>
<text x="0.712" y="0.434" font-size="0.064616" fill="hsl(0.0,100%,20%)">timvp</text>
<text x="1.449" y="0.175" font-size="0.007642" fill="hsl(0.0,100%,20%)">antonio.caggiano</text>
<text x="0.908" y="0.400" font-size="0.032240" fill="hsl(0.0,100%,20%)">m.maiya</text>
<text x="1.458" y="0.071" font-size="0.002416" fill="hsl(0.0,100%,20%)">jvigilsamsung</text>
<text x="1.216" y="0.223" font-size="0.016029" fill="hsl(0.0,100%,20%)">b.schade</text>
<text x="0.971" y="0.486" font-size="0.004185" fill="hsl(180.0,100%,20%)">capn</text>
<text x="0.914" y="0.149" font-size="0.019332" fill="hsl(0.0,100%,20%)">lfy</text>
<text x="0.815" y="0.700" font-size="0.029497" fill="hsl(0.0,100%,20%)">ianelliott</text>
<text x="1.183" y="0.358" font-size="0.059634" fill="hsl(0.0,100%,20%)">cnorthrop</text>
<text x="1.011" y="0.288" font-size="0.008015" fill="hsl(0.0,100%,20%)">cheryl.wei</text>
<text x="0.471" y="0.222" font-size="0.004185" fill="hsl(180.0,100%,20%)">sunny.sun</text>
<text x="1.063" y="0.129" font-size="0.036807" fill="hsl(0.0,100%,20%)">ynovikov</text>
<text x="1.447" y="0.754" font-size="0.003417" fill="hsl(180.0,100%,20%)">bajones</text>
<text x="1.404" y="0.957" font-size="0.002416" fill="hsl(0.0,100%,20%)">paulthomson</text>
<text x="0.791" y="0.486" font-size="0.005403" fill="hsl(0.0,100%,20%)">cwallez</text>
<text x="0.264" y="0.817" font-size="0.020927" fill="hsl(180.0,100%,20%)">penghuang</text>
<text x="0.621" y="0.287" font-size="0.028490" fill="hsl(180.0,100%,20%)">jonahr</text>
<text x="0.343" y="0.698" font-size="0.002416" fill="hsl(180.0,100%,20%)">junov</text>
<text x="1.248" y="0.051" font-size="0.019927" fill="hsl(180.0,100%,20%)">lexa.knyazev</text>
<text x="0.762" y="0.192" font-size="0.039114" fill="hsl(0.0,100%,20%)">gert.wollny</text>
<text x="1.186" y="0.834" font-size="0.023800" fill="hsl(180.0,100%,20%)">gman</text>
<text x="1.624" y="0.914" font-size="0.019180" fill="hsl(180.0,100%,20%)">kpiddington</text>
<text x="1.257" y="0.676" font-size="0.006393" fill="hsl(0.0,100%,20%)">hailinzhang</text>
<text x="0.791" y="0.845" font-size="0.004833" fill="hsl(0.0,100%,20%)">hans</text>
<text x="0.943" y="0.908" font-size="0.005403" fill="hsl(0.0,100%,20%)">thakis</text>
<text x="0.252" y="0.491" font-size="0.011074" fill="hsl(180.0,100%,20%)">natsu</text>
<text x="0.977" y="0.621" font-size="0.013013" fill="hsl(0.0,100%,20%)">yuxinhu</text>
<text x="1.066" y="0.716" font-size="0.002416" fill="hsl(0.0,100%,20%)">vantablack</text>
<text x="1.171" y="0.287" font-size="0.008015" fill="hsl(0.0,100%,20%)">mark</text>
<text x="0.563" y="0.498" font-size="0.011838" fill="hsl(0.0,100%,20%)">j.vigil</text>
<text x="1.018" y="0.061" font-size="0.006835" fill="hsl(180.0,100%,20%)">jgilbert</text>
<text x="1.284" y="0.311" font-size="0.030375" fill="hsl(0.0,100%,20%)">lubosz.sarnecki</text>
<text x="0.918" y="0.334" font-size="0.004185" fill="hsl(0.0,100%,20%)">bsheedy</text>
<text x="1.199" y="0.068" font-size="0.002416" fill="hsl(0.0,100%,20%)">brucedawson</text>
<text x="1.245" y="0.150" font-size="0.003417" fill="hsl(0.0,100%,20%)">tandrii</text>
<text x="1.246" y="0.215" font-size="0.002416" fill="hsl(0.0,100%,20%)">dpranke</text>
<text x="0.402" y="0.638" font-size="0.003417" fill="hsl(180.0,100%,20%)">nicolascapens</text>
<text x="0.809" y="0.507" font-size="0.002416" fill="hsl(0.0,100%,20%)">doughorn</text>
<text x="1.387" y="0.290" font-size="0.022797" fill="hsl(0.0,100%,20%)">jplate</text>
<text x="1.276" y="0.972" font-size="0.002416" fill="hsl(180.0,100%,20%)">ccameron</text>
<text x="1.897" y="0.459" font-size="0.008015" fill="hsl(180.0,100%,20%)">kkinnunen</text>
<text x="1.870" y="0.350" font-size="0.005403" fill="hsl(180.0,100%,20%)">johncunningham</text>
<text x="1.344" y="0.169" font-size="0.005919" fill="hsl(180.0,100%,20%)">le.hoang.q</text>
<text x="0.450" y="0.396" font-size="0.004833" fill="hsl(180.0,100%,20%)">kyle.griffiths</text>
<text x="1.351" y="0.183" font-size="0.005919" fill="hsl(180.0,100%,20%)">lehoangq</text>
<text x="1.221" y="0.496" font-size="0.005403" fill="hsl(0.0,100%,20%)">lunpujun</text>
<text x="1.016" y="0.340" font-size="0.007249" fill="hsl(180.0,100%,20%)">msisov</text>
<text x="0.559" y="0.672" font-size="0.002416" fill="hsl(180.0,100%,20%)">zzyiwei</text>
<text x="0.305" y="0.632" font-size="0.004185" fill="hsl(180.0,100%,20%)">patrto</text>
<text x="0.468" y="0.686" font-size="0.009359" fill="hsl(0.0,100%,20%)">pkasting</text>
<text x="0.084" y="0.533" font-size="0.007249" fill="hsl(180.0,100%,20%)">senorblanco</text>
<text x="1.808" y="0.583" font-size="0.003417" fill="hsl(180.0,100%,20%)">jiajia.qin</text>
<text x="1.090" y="0.501" font-size="0.007249" fill="hsl(0.0,100%,20%)">sergeyu</text>
<text x="0.805" y="0.115" font-size="0.007249" fill="hsl(180.0,100%,20%)">shrekshao</text>
<text x="0.919" y="0.379" font-size="0.010807" fill="hsl(0.0,100%,20%)">steven</text>
<text x="0.964" y="0.328" font-size="0.014090" fill="hsl(180.0,100%,20%)">sugoi</text>
<text x="0.626" y="0.754" font-size="0.003417" fill="hsl(0.0,100%,20%)">cstout</text>
<text x="0.568" y="0.484" font-size="0.002416" fill="hsl(0.0,100%,20%)">deleted</text>
<text x="0.470" y="0.528" font-size="0.002416" fill="hsl(0.0,100%,20%)">borenet</text>
<text x="0.634" y="0.677" font-size="0.003417" fill="hsl(0.0,100%,20%)">reveman</text>
<text x="0.351" y="0.456" font-size="0.002416" fill="hsl(0.0,100%,20%)">jie.a.chen</text>
<text x="0.891" y="0.647" font-size="0.002416" fill="hsl(0.0,100%,20%)">spang</text>
<text x="0.650" y="0.511" font-size="0.002416" fill="hsl(0.0,100%,20%)">romanl</text>
<text x="0.378" y="0.393" font-size="0.005919" fill="hsl(0.0,100%,20%)">xiaoxuan.liu</text>
<text x="1.768" y="0.697" font-size="0.004185" fill="hsl(180.0,100%,20%)">xinghua.cao</text>
<text x="0.339" y="0.629" font-size="0.004185" fill="hsl(180.0,100%,20%)">yang.gu</text>
</svg>
