<svg width="4000" height="2000" viewBox="-0.025 -0.025 2.05 1.05" xmlns="http://www.w3.org/2000/svg">
  <style>
    path {
      fill: none;
      stroke-linecap: round;
      stroke-opacity: 0.4;
    }

    text {
      text-anchor: middle;
      alignment-baseline: hanging;
    }
  </style>
  <g opacity="0.4">
<path d="M0.604 0.488 Q1.512 0.591 1.912 0.170" stroke="hsl(0.0,100%,35%)" stroke-width="0.00711"></path>
<path d="M0.604 0.488 Q0.797 0.505 0.873 0.414" stroke="hsl(0.0,100%,35%)" stroke-width="0.00711"></path>
<path d="M0.604 0.488 Q0.391 0.795 0.943 0.966" stroke="hsl(0.0,100%,35%)" stroke-width="0.00711"></path>
<path d="M0.604 0.488 Q0.674 0.573 0.856 0.557" stroke="hsl(0.0,100%,35%)" stroke-width="0.00355"></path>
<path d="M0.604 0.488 Q0.611 0.584 0.800 0.602" stroke="hsl(0.0,100%,35%)" stroke-width="0.00355"></path>
<path d="M1.912 0.170 Q1.845 0.092 1.677 0.108" stroke="hsl(0.0,100%,35%)" stroke-width="0.01066"></path>
<path d="M1.912 0.170 Q0.791 0.375 0.943 0.966" stroke="hsl(0.0,100%,35%)" stroke-width="0.00355"></path>
<path d="M1.912 0.170 Q1.197 0.084 0.873 0.414" stroke="hsl(0.0,100%,35%)" stroke-width="0.00355"></path>
<path d="M1.912 0.170 Q1.324 0.143 1.140 0.424" stroke="hsl(0.0,100%,35%)" stroke-width="0.00355"></path>
<path d="M1.912 0.170 Q0.857 0.203 0.689 0.725" stroke="hsl(0.0,100%,35%)" stroke-width="0.00355"></path>
<path d="M0.873 0.414 Q0.532 0.533 0.689 0.725" stroke="hsl(0.0,100%,35%)" stroke-width="0.00355"></path>
<path d="M0.873 0.414 Q0.679 0.397 0.604 0.488" stroke="hsl(0.0,100%,35%)" stroke-width="0.01421"></path>
<path d="M0.873 0.414 Q0.466 0.704 0.943 0.966" stroke="hsl(0.0,100%,35%)" stroke-width="0.02132"></path>
<path d="M0.873 0.414 Q1.076 0.285 0.868 0.157" stroke="hsl(0.0,100%,35%)" stroke-width="0.01066"></path>
<path d="M0.873 0.414 Q1.587 0.500 1.912 0.170" stroke="hsl(0.0,100%,35%)" stroke-width="0.00355"></path>
<path d="M0.943 0.966 Q1.009 0.795 0.689 0.725" stroke="hsl(0.0,100%,35%)" stroke-width="0.02132"></path>
<path d="M0.943 0.966 Q0.761 0.891 0.574 0.963" stroke="hsl(0.0,100%,35%)" stroke-width="0.00355"></path>
<path d="M0.943 0.966 Q1.156 0.659 0.604 0.488" stroke="hsl(0.0,100%,35%)" stroke-width="0.00355"></path>
<path d="M0.943 0.966 Q0.970 0.866 0.780 0.831" stroke="hsl(0.0,100%,35%)" stroke-width="0.01777"></path>
<path d="M0.943 0.966 Q1.553 0.547 0.868 0.157" stroke="hsl(0.0,100%,35%)" stroke-width="0.02132"></path>
<path d="M0.943 0.966 Q1.353 0.805 1.127 0.569" stroke="hsl(0.0,100%,35%)" stroke-width="0.00355"></path>
<path d="M0.943 0.966 Q1.168 0.990 1.263 0.885" stroke="hsl(0.0,100%,35%)" stroke-width="0.00355"></path>
<path d="M0.943 0.966 Q1.129 0.509 0.277 0.319" stroke="hsl(0.0,100%,35%)" stroke-width="0.00355"></path>
<path d="M0.943 0.966 Q2.064 0.762 1.912 0.170" stroke="hsl(0.0,100%,35%)" stroke-width="0.00355"></path>
<path d="M0.780 0.831 Q0.754 0.932 0.943 0.966" stroke="hsl(0.0,100%,35%)" stroke-width="0.01777"></path>
<path d="M0.780 0.831 Q1.582 0.621 1.347 0.183" stroke="hsl(0.0,100%,35%)" stroke-width="0.00711"></path>
<path d="M0.780 0.831 Q1.442 0.611 1.157 0.240" stroke="hsl(0.0,100%,35%)" stroke-width="0.01066"></path>
<path d="M0.780 0.831 Q1.160 0.641 0.873 0.414" stroke="hsl(0.0,100%,35%)" stroke-width="0.00355"></path>
<path d="M1.157 0.240 Q0.495 0.460 0.780 0.831" stroke="hsl(0.0,100%,35%)" stroke-width="0.00355"></path>
<path d="M1.157 0.240 Q0.469 0.560 0.943 0.966" stroke="hsl(0.0,100%,35%)" stroke-width="0.01777"></path>
<path d="M1.157 0.240 Q1.297 0.250 1.347 0.183" stroke="hsl(0.0,100%,35%)" stroke-width="0.01421"></path>
<path d="M0.321 0.198 Q0.018 0.707 0.943 0.966" stroke="hsl(0.0,100%,35%)" stroke-width="0.03909"></path>
<path d="M0.321 0.198 Q0.203 0.250 0.277 0.319" stroke="hsl(0.0,100%,35%)" stroke-width="0.03553"></path>
<path d="M0.321 0.198 Q0.044 0.607 0.780 0.831" stroke="hsl(0.0,100%,35%)" stroke-width="0.01066"></path>
<path d="M0.321 0.198 Q0.573 0.183 0.598 0.057" stroke="hsl(0.0,100%,35%)" stroke-width="0.00355"></path>
<path d="M0.321 0.198 Q0.330 0.321 0.571 0.343" stroke="hsl(0.0,100%,35%)" stroke-width="0.00355"></path>
<path d="M0.321 0.198 Q0.190 0.168 0.102 0.226" stroke="hsl(0.0,100%,35%)" stroke-width="0.00355"></path>
<path d="M0.571 0.343 Q0.444 0.272 0.277 0.319" stroke="hsl(0.0,100%,35%)" stroke-width="0.00355"></path>
<path d="M0.571 0.343 Q0.285 0.629 0.780 0.831" stroke="hsl(0.0,100%,35%)" stroke-width="0.00355"></path>
<path d="M0.571 0.343 Q0.562 0.221 0.321 0.198" stroke="hsl(0.0,100%,35%)" stroke-width="0.00355"></path>
<path d="M0.571 0.343 Q0.258 0.729 0.943 0.966" stroke="hsl(0.0,100%,35%)" stroke-width="0.00355"></path>
<path d="M1.009 0.773 Q0.822 0.857 0.943 0.966" stroke="hsl(0.0,100%,35%)" stroke-width="0.06751"></path>
<path d="M1.009 0.773 Q1.232 0.695 1.127 0.569" stroke="hsl(0.0,100%,35%)" stroke-width="0.01421"></path>
<path d="M1.009 0.773 Q0.888 0.685 0.689 0.725" stroke="hsl(0.0,100%,35%)" stroke-width="0.00355"></path>
<path d="M1.009 0.773 Q0.849 0.757 0.780 0.831" stroke="hsl(0.0,100%,35%)" stroke-width="0.00711"></path>
<path d="M1.009 0.773 Q1.431 0.437 0.868 0.157" stroke="hsl(0.0,100%,35%)" stroke-width="0.00355"></path>
</g>
<text x="0.604" y="0.466" font-size="0.044381" fill="hsl(0.0,100%,20%)">cnorthrop</text>
<text x="1.912" y="0.150" font-size="0.040825" fill="hsl(0.0,100%,20%)">ynovikov</text>
<text x="0.873" y="0.387" font-size="0.053654" fill="hsl(0.0,100%,20%)">romanl</text>
<text x="0.943" y="0.914" font-size="0.105169" fill="hsl(0.0,100%,20%)">syoussefi</text>
<text x="0.856" y="0.551" font-size="0.012309" fill="hsl(0.0,100%,20%)">mark</text>
<text x="0.800" y="0.596" font-size="0.012309" fill="hsl(0.0,100%,20%)">mikes</text>
<text x="0.780" y="0.802" font-size="0.059033" fill="hsl(0.0,100%,20%)">geofflang</text>
<text x="1.347" y="0.168" font-size="0.030151" fill="hsl(0.0,100%,20%)">mpdenton</text>
<text x="1.157" y="0.217" font-size="0.044381" fill="hsl(0.0,100%,20%)">liza</text>
<text x="0.321" y="0.166" font-size="0.065134" fill="hsl(0.0,100%,20%)">kkinnunen</text>
<text x="0.277" y="0.297" font-size="0.042640" fill="hsl(0.0,100%,20%)">kbr</text>
<text x="0.598" y="0.051" font-size="0.012309" fill="hsl(0.0,100%,20%)">kpiddington</text>
<text x="0.571" y="0.329" font-size="0.027524" fill="hsl(0.0,100%,20%)">lexa.knyazev</text>
<text x="0.102" y="0.219" font-size="0.012309" fill="hsl(0.0,100%,20%)">lehoangquyen</text>
<text x="1.009" y="0.741" font-size="0.063960" fill="hsl(0.0,100%,20%)">m.maiya</text>
<text x="1.127" y="0.555" font-size="0.027524" fill="hsl(0.0,100%,20%)">cclao</text>
<text x="0.689" y="0.707" font-size="0.036927" fill="hsl(0.0,100%,20%)">yuxinhu</text>
<text x="0.868" y="0.138" font-size="0.038925" fill="hsl(0.0,100%,20%)">abdolrashidi</text>
<text x="0.574" y="0.957" font-size="0.012309" fill="hsl(0.0,100%,20%)">zzyiwei</text>
<text x="1.263" y="0.879" font-size="0.012309" fill="hsl(0.0,100%,20%)">a.annestrand</text>
<text x="1.677" y="0.097" font-size="0.021320" fill="hsl(0.0,100%,20%)">bsheedy</text>
<text x="1.140" y="0.417" font-size="0.012309" fill="hsl(0.0,100%,20%)">solti</text>
</svg>
