<svg width="4000" height="2000" viewBox="-0.025 -0.025 2.05 1.05" xmlns="http://www.w3.org/2000/svg">
  <style>
    path {
      fill: none;
      stroke-linecap: round;
      stroke-opacity: 0.4;
    }

    text {
      text-anchor: middle;
      alignment-baseline: hanging;
    }
  </style>
  <g opacity="0.4">
<path d="M1.380 0.976 Q1.541 0.940 1.506 0.854" stroke="hsl(0.0,100%,35%)" stroke-width="0.02817"></path>
<path d="M1.380 0.976 Q1.555 1.021 1.681 0.945" stroke="hsl(0.0,100%,35%)" stroke-width="0.01690"></path>
<path d="M1.380 0.976 Q1.721 1.040 1.920 0.888" stroke="hsl(0.0,100%,35%)" stroke-width="0.00563"></path>
<path d="M1.506 0.854 Q1.880 0.797 1.852 0.602" stroke="hsl(0.0,100%,35%)" stroke-width="0.01127"></path>
<path d="M1.506 0.854 Q1.520 0.935 1.681 0.945" stroke="hsl(0.0,100%,35%)" stroke-width="0.01690"></path>
<path d="M1.506 0.854 Q1.531 0.717 1.269 0.674" stroke="hsl(0.0,100%,35%)" stroke-width="0.02253"></path>
<path d="M1.506 0.854 Q1.686 0.954 1.920 0.888" stroke="hsl(0.0,100%,35%)" stroke-width="0.01127"></path>
<path d="M1.506 0.854 Q1.301 0.603 0.767 0.648" stroke="hsl(0.0,100%,35%)" stroke-width="0.00563"></path>
<path d="M1.506 0.854 Q1.947 0.631 1.609 0.367" stroke="hsl(0.0,100%,35%)" stroke-width="0.01690"></path>
<path d="M1.506 0.854 Q1.345 0.890 1.380 0.976" stroke="hsl(0.0,100%,35%)" stroke-width="0.00563"></path>
<path d="M1.920 0.888 Q1.868 0.710 1.509 0.696" stroke="hsl(0.0,100%,35%)" stroke-width="0.01127"></path>
<path d="M1.920 0.888 Q2.115 0.731 1.852 0.602" stroke="hsl(0.0,100%,35%)" stroke-width="0.00563"></path>
<path d="M1.920 0.888 Q1.740 0.788 1.506 0.854" stroke="hsl(0.0,100%,35%)" stroke-width="0.00563"></path>
<path d="M1.852 0.602 Q1.316 0.695 1.380 0.976" stroke="hsl(0.0,100%,35%)" stroke-width="0.00563"></path>
<path d="M1.852 0.602 Q1.657 0.759 1.920 0.888" stroke="hsl(0.0,100%,35%)" stroke-width="0.01127"></path>
<path d="M1.852 0.602 Q1.604 0.580 1.509 0.696" stroke="hsl(0.0,100%,35%)" stroke-width="0.00563"></path>
<path d="M1.852 0.602 Q1.502 0.522 1.269 0.674" stroke="hsl(0.0,100%,35%)" stroke-width="0.00563"></path>
<path d="M0.407 0.770 Q0.890 1.032 1.506 0.854" stroke="hsl(0.0,100%,35%)" stroke-width="0.05634"></path>
<path d="M0.407 0.770 Q0.250 0.842 0.355 0.934" stroke="hsl(0.0,100%,35%)" stroke-width="0.06760"></path>
<path d="M0.407 0.770 Q1.309 0.686 1.342 0.227" stroke="hsl(0.0,100%,35%)" stroke-width="0.00563"></path>
<path d="M0.407 0.770 Q1.331 0.809 1.609 0.367" stroke="hsl(0.0,100%,35%)" stroke-width="0.00563"></path>
<path d="M0.407 0.770 Q0.527 0.905 0.816 0.876" stroke="hsl(0.0,100%,35%)" stroke-width="0.00563"></path>
<path d="M1.342 0.227 Q0.923 0.573 1.506 0.854" stroke="hsl(0.0,100%,35%)" stroke-width="0.01127"></path>
<path d="M1.342 0.227 Q1.364 0.351 1.609 0.367" stroke="hsl(0.0,100%,35%)" stroke-width="0.01127"></path>
<path d="M1.342 0.227 Q0.283 0.383 0.355 0.934" stroke="hsl(0.0,100%,35%)" stroke-width="0.00563"></path>
</g>
<text x="1.380" y="0.947" font-size="0.058630" fill="hsl(0.0,100%,20%)">abdolrashidi</text>
<text x="1.506" y="0.802" font-size="0.103078" fill="hsl(0.0,100%,20%)">syoussefi</text>
<text x="1.681" y="0.924" font-size="0.043301" fill="hsl(0.0,100%,20%)">cclao</text>
<text x="1.920" y="0.862" font-size="0.053033" fill="hsl(0.0,100%,20%)">cnorthrop</text>
<text x="1.509" y="0.681" font-size="0.030619" fill="hsl(0.0,100%,20%)">ynovikov</text>
<text x="1.852" y="0.577" font-size="0.050000" fill="hsl(0.0,100%,20%)">romanl</text>
<text x="0.407" y="0.726" font-size="0.088388" fill="hsl(0.0,100%,20%)">kkinnunen</text>
<text x="0.355" y="0.902" font-size="0.063738" fill="hsl(0.0,100%,20%)">kbr</text>
<text x="1.342" y="0.206" font-size="0.043301" fill="hsl(0.0,100%,20%)">lexa.knyazev</text>
<text x="1.609" y="0.345" font-size="0.043301" fill="hsl(0.0,100%,20%)">geofflang</text>
<text x="0.816" y="0.867" font-size="0.017678" fill="hsl(0.0,100%,20%)">kpiddington</text>
<text x="1.269" y="0.655" font-size="0.039528" fill="hsl(0.0,100%,20%)">yuxinhu</text>
<text x="0.767" y="0.639" font-size="0.017678" fill="hsl(0.0,100%,20%)">zzyiwei</text>
</svg>
