<svg width="4000" height="2000" viewBox="-0.025 -0.025 2.05 1.05" xmlns="http://www.w3.org/2000/svg">
  <style>
    path {
      fill: none;
      stroke-linecap: round;
      stroke-opacity: 0.4;
    }

    text {
      text-anchor: middle;
      alignment-baseline: hanging;
    }
  </style>
  <g opacity="0.4">
<path d="M0.870 0.681 Q1.379 0.793 1.709 0.570" stroke="hsl(0.0,100%,35%)" stroke-width="0.00834"></path>
<path d="M0.870 0.681 Q1.326 0.708 1.480 0.492" stroke="hsl(0.0,100%,35%)" stroke-width="0.01534"></path>
<path d="M0.870 0.681 Q1.191 0.761 1.417 0.622" stroke="hsl(0.0,100%,35%)" stroke-width="0.00100"></path>
<path d="M0.870 0.681 Q1.223 0.539 1.022 0.336" stroke="hsl(0.0,100%,35%)" stroke-width="0.00100"></path>
<path d="M0.870 0.681 Q0.782 0.360 0.136 0.332" stroke="hsl(0.0,100%,35%)" stroke-width="0.00133"></path>
<path d="M0.870 0.681 Q0.853 0.723 0.931 0.741" stroke="hsl(0.0,100%,35%)" stroke-width="0.00067"></path>
<path d="M0.870 0.681 Q0.886 0.683 0.894 0.676" stroke="hsl(0.0,100%,35%)" stroke-width="0.00067"></path>
<path d="M0.870 0.681 Q1.269 0.840 1.666 0.680" stroke="hsl(0.0,100%,35%)" stroke-width="0.00033"></path>
<path d="M0.870 0.681 Q1.313 0.605 1.261 0.372" stroke="hsl(0.0,100%,35%)" stroke-width="0.00033"></path>
<path d="M0.870 0.681 Q1.082 0.648 1.063 0.537" stroke="hsl(0.0,100%,35%)" stroke-width="0.00234"></path>
<path d="M0.870 0.681 Q1.174 0.437 0.763 0.235" stroke="hsl(0.0,100%,35%)" stroke-width="0.00067"></path>
<path d="M1.709 0.570 Q1.657 0.485 1.480 0.492" stroke="hsl(0.0,100%,35%)" stroke-width="0.03903"></path>
<path d="M1.709 0.570 Q1.201 0.458 0.870 0.681" stroke="hsl(0.0,100%,35%)" stroke-width="0.01601"></path>
<path d="M1.709 0.570 Q1.521 0.538 1.417 0.622" stroke="hsl(0.0,100%,35%)" stroke-width="0.01868"></path>
<path d="M1.709 0.570 Q1.816 0.491 1.685 0.421" stroke="hsl(0.0,100%,35%)" stroke-width="0.00033"></path>
<path d="M1.709 0.570 Q1.724 0.139 0.885 0.037" stroke="hsl(0.0,100%,35%)" stroke-width="0.00033"></path>
<path d="M1.709 0.570 Q1.600 0.616 1.666 0.680" stroke="hsl(0.0,100%,35%)" stroke-width="0.00567"></path>
<path d="M1.709 0.570 Q0.809 0.309 0.102 0.691" stroke="hsl(0.0,100%,35%)" stroke-width="0.00033"></path>
<path d="M1.709 0.570 Q1.570 0.644 1.685 0.728" stroke="hsl(0.0,100%,35%)" stroke-width="0.00033"></path>
<path d="M1.709 0.570 Q1.643 0.381 1.261 0.372" stroke="hsl(0.0,100%,35%)" stroke-width="0.00033"></path>
<path d="M1.709 0.570 Q1.588 0.526 1.475 0.575" stroke="hsl(0.0,100%,35%)" stroke-width="0.00067"></path>
<path d="M1.709 0.570 Q1.504 0.213 0.763 0.235" stroke="hsl(0.0,100%,35%)" stroke-width="0.00033"></path>
<path d="M1.709 0.570 Q1.442 0.437 1.125 0.538" stroke="hsl(0.0,100%,35%)" stroke-width="0.00067"></path>
<path d="M1.709 0.570 Q1.412 0.424 1.063 0.537" stroke="hsl(0.0,100%,35%)" stroke-width="0.00600"></path>
<path d="M1.709 0.570 Q1.530 0.576 1.503 0.665" stroke="hsl(0.0,100%,35%)" stroke-width="0.00067"></path>
<path d="M1.709 0.570 Q1.113 0.136 0.136 0.332" stroke="hsl(0.0,100%,35%)" stroke-width="0.00033"></path>
<path d="M1.480 0.492 Q1.532 0.577 1.709 0.570" stroke="hsl(0.0,100%,35%)" stroke-width="0.02468"></path>
<path d="M1.480 0.492 Q1.423 0.623 1.666 0.680" stroke="hsl(0.0,100%,35%)" stroke-width="0.00634"></path>
<path d="M1.480 0.492 Q1.344 0.544 1.417 0.622" stroke="hsl(0.0,100%,35%)" stroke-width="0.02569"></path>
<path d="M1.480 0.492 Q1.411 0.532 1.475 0.575" stroke="hsl(0.0,100%,35%)" stroke-width="0.00400"></path>
<path d="M1.480 0.492 Q1.327 0.220 0.763 0.235" stroke="hsl(0.0,100%,35%)" stroke-width="0.00534"></path>
<path d="M1.480 0.492 Q0.632 0.316 0.102 0.691" stroke="hsl(0.0,100%,35%)" stroke-width="0.00067"></path>
<path d="M1.480 0.492 Q1.024 0.465 0.870 0.681" stroke="hsl(0.0,100%,35%)" stroke-width="0.01935"></path>
<path d="M1.480 0.492 Q1.271 0.626 1.488 0.757" stroke="hsl(0.0,100%,35%)" stroke-width="0.00033"></path>
<path d="M1.480 0.492 Q1.466 0.388 1.261 0.372" stroke="hsl(0.0,100%,35%)" stroke-width="0.00500"></path>
<path d="M1.480 0.492 Q1.353 0.583 1.503 0.665" stroke="hsl(0.0,100%,35%)" stroke-width="0.00167"></path>
<path d="M1.480 0.492 Q1.409 0.538 1.484 0.582" stroke="hsl(0.0,100%,35%)" stroke-width="0.00100"></path>
<path d="M1.480 0.492 Q1.235 0.431 1.063 0.537" stroke="hsl(0.0,100%,35%)" stroke-width="0.03169"></path>
<path d="M1.480 0.492 Q0.936 0.143 0.136 0.332" stroke="hsl(0.0,100%,35%)" stroke-width="0.01134"></path>
<path d="M1.480 0.492 Q1.376 0.322 1.022 0.336" stroke="hsl(0.0,100%,35%)" stroke-width="0.00200"></path>
<path d="M1.480 0.492 Q0.734 0.234 0.067 0.541" stroke="hsl(0.0,100%,35%)" stroke-width="0.00067"></path>
<path d="M1.480 0.492 Q1.155 0.651 1.394 0.845" stroke="hsl(0.0,100%,35%)" stroke-width="0.00033"></path>
<path d="M1.480 0.492 Q0.310 0.882 0.814 1.538" stroke="hsl(0.0,100%,35%)" stroke-width="0.00067"></path>
<path d="M1.480 0.492 Q1.125 0.571 1.200 0.761" stroke="hsl(0.0,100%,35%)" stroke-width="0.00033"></path>
<path d="M1.480 0.492 Q0.910 0.421 0.647 0.684" stroke="hsl(0.0,100%,35%)" stroke-width="0.00033"></path>
<path d="M1.480 0.492 Q1.547 0.146 0.885 0.037" stroke="hsl(0.0,100%,35%)" stroke-width="0.00067"></path>
<path d="M1.480 0.492 Q1.250 0.563 1.338 0.691" stroke="hsl(0.0,100%,35%)" stroke-width="0.00033"></path>
<path d="M1.480 0.492 Q0.498 0.400 0.103 0.858" stroke="hsl(0.0,100%,35%)" stroke-width="0.00033"></path>
<path d="M1.480 0.492 Q1.378 0.608 1.582 0.682" stroke="hsl(0.0,100%,35%)" stroke-width="0.00033"></path>
<path d="M1.480 0.492 Q1.054 0.250 0.490 0.405" stroke="hsl(0.0,100%,35%)" stroke-width="0.00033"></path>
<path d="M1.480 0.492 Q1.393 0.651 1.685 0.728" stroke="hsl(0.0,100%,35%)" stroke-width="0.00033"></path>
<path d="M1.480 0.492 Q1.265 0.444 1.125 0.538" stroke="hsl(0.0,100%,35%)" stroke-width="0.00167"></path>
<path d="M1.480 0.492 Q1.198 0.627 1.400 0.794" stroke="hsl(0.0,100%,35%)" stroke-width="0.00067"></path>
<path d="M1.480 0.492 Q1.221 0.438 1.058 0.552" stroke="hsl(0.0,100%,35%)" stroke-width="0.00033"></path>
<path d="M1.417 0.622 Q1.552 0.569 1.480 0.492" stroke="hsl(0.0,100%,35%)" stroke-width="0.01067"></path>
<path d="M1.417 0.622 Q1.008 0.221 0.136 0.332" stroke="hsl(0.0,100%,35%)" stroke-width="0.00300"></path>
<path d="M1.417 0.622 Q1.484 0.610 1.475 0.575" stroke="hsl(0.0,100%,35%)" stroke-width="0.00067"></path>
<path d="M1.417 0.622 Q1.451 0.685 1.582 0.682" stroke="hsl(0.0,100%,35%)" stroke-width="0.00033"></path>
<path d="M1.417 0.622 Q1.605 0.654 1.709 0.570" stroke="hsl(0.0,100%,35%)" stroke-width="0.00534"></path>
<path d="M1.417 0.622 Q1.449 0.400 1.022 0.336" stroke="hsl(0.0,100%,35%)" stroke-width="0.00133"></path>
<path d="M1.417 0.622 Q1.096 0.542 0.870 0.681" stroke="hsl(0.0,100%,35%)" stroke-width="0.00200"></path>
<path d="M1.417 0.622 Q1.308 0.509 1.063 0.537" stroke="hsl(0.0,100%,35%)" stroke-width="0.00200"></path>
<path d="M1.417 0.622 Q1.198 0.648 1.200 0.761" stroke="hsl(0.0,100%,35%)" stroke-width="0.00033"></path>
<path d="M1.417 0.622 Q1.400 0.298 0.763 0.235" stroke="hsl(0.0,100%,35%)" stroke-width="0.00067"></path>
<path d="M1.417 0.622 Q1.539 0.466 1.261 0.372" stroke="hsl(0.0,100%,35%)" stroke-width="0.00033"></path>
<path d="M1.417 0.622 Q1.338 0.522 1.125 0.538" stroke="hsl(0.0,100%,35%)" stroke-width="0.00033"></path>
<path d="M1.417 0.622 Q1.495 0.701 1.666 0.680" stroke="hsl(0.0,100%,35%)" stroke-width="0.00133"></path>
<path d="M1.417 0.622 Q0.704 0.394 0.102 0.691" stroke="hsl(0.0,100%,35%)" stroke-width="0.00033"></path>
<path d="M1.417 0.622 Q1.344 0.704 1.488 0.757" stroke="hsl(0.0,100%,35%)" stroke-width="0.00033"></path>
<path d="M1.417 0.622 Q1.426 0.660 1.503 0.665" stroke="hsl(0.0,100%,35%)" stroke-width="0.00033"></path>
<path d="M1.022 0.336 Q1.126 0.505 1.480 0.492" stroke="hsl(0.0,100%,35%)" stroke-width="0.00667"></path>
<path d="M1.022 0.336 Q1.113 0.402 1.261 0.372" stroke="hsl(0.0,100%,35%)" stroke-width="0.00500"></path>
<path d="M1.022 0.336 Q0.582 0.156 0.136 0.332" stroke="hsl(0.0,100%,35%)" stroke-width="0.00834"></path>
<path d="M1.022 0.336 Q1.178 0.590 1.709 0.570" stroke="hsl(0.0,100%,35%)" stroke-width="0.00167"></path>
<path d="M1.022 0.336 Q0.670 0.478 0.870 0.681" stroke="hsl(0.0,100%,35%)" stroke-width="0.00567"></path>
<path d="M1.022 0.336 Q0.991 0.558 1.417 0.622" stroke="hsl(0.0,100%,35%)" stroke-width="0.00300"></path>
<path d="M1.022 0.336 Q0.881 0.444 1.063 0.537" stroke="hsl(0.0,100%,35%)" stroke-width="0.01868"></path>
<path d="M1.022 0.336 Q0.973 0.234 0.763 0.235" stroke="hsl(0.0,100%,35%)" stroke-width="0.00234"></path>
<path d="M1.022 0.336 Q1.069 0.637 1.666 0.680" stroke="hsl(0.0,100%,35%)" stroke-width="0.00167"></path>
<path d="M1.022 0.336 Q1.000 0.596 1.503 0.665" stroke="hsl(0.0,100%,35%)" stroke-width="0.00033"></path>
<path d="M1.022 0.336 Q1.274 0.384 1.423 0.272" stroke="hsl(0.0,100%,35%)" stroke-width="0.00133"></path>
<path d="M1.022 0.336 Q0.800 0.527 1.124 0.677" stroke="hsl(0.0,100%,35%)" stroke-width="0.00033"></path>
<path d="M1.022 0.336 Q1.290 0.280 1.239 0.137" stroke="hsl(0.0,100%,35%)" stroke-width="0.00033"></path>
<path d="M1.022 0.336 Q1.193 0.159 0.885 0.037" stroke="hsl(0.0,100%,35%)" stroke-width="0.00033"></path>
<path d="M1.022 0.336 Q0.911 0.458 1.125 0.538" stroke="hsl(0.0,100%,35%)" stroke-width="0.00033"></path>
<path d="M0.136 0.332 Q0.224 0.653 0.870 0.681" stroke="hsl(0.0,100%,35%)" stroke-width="0.00334"></path>
<path d="M0.136 0.332 Q0.576 0.511 1.022 0.336" stroke="hsl(0.0,100%,35%)" stroke-width="0.01034"></path>
<path d="M0.136 0.332 Q0.544 0.733 1.417 0.622" stroke="hsl(0.0,100%,35%)" stroke-width="0.01001"></path>
<path d="M0.136 0.332 Q0.666 0.577 1.261 0.372" stroke="hsl(0.0,100%,35%)" stroke-width="0.00167"></path>
<path d="M0.136 0.332 Q0.680 0.681 1.480 0.492" stroke="hsl(0.0,100%,35%)" stroke-width="0.00400"></path>
<path d="M0.136 0.332 Q0.527 0.409 0.763 0.235" stroke="hsl(0.0,100%,35%)" stroke-width="0.00067"></path>
<path d="M0.136 0.332 Q0.435 0.620 1.063 0.537" stroke="hsl(0.0,100%,35%)" stroke-width="0.01301"></path>
<path d="M0.136 0.332 Q0.325 0.759 1.200 0.761" stroke="hsl(0.0,100%,35%)" stroke-width="0.00033"></path>
<path d="M0.136 0.332 Q0.231 0.262 0.115 0.200" stroke="hsl(0.0,100%,35%)" stroke-width="0.00067"></path>
<path d="M0.136 0.332 Q0.732 0.766 1.709 0.570" stroke="hsl(0.0,100%,35%)" stroke-width="0.00267"></path>
<path d="M0.136 0.332 Q0.659 0.582 1.263 0.382" stroke="hsl(0.0,100%,35%)" stroke-width="0.00100"></path>
<path d="M0.136 0.332 Q0.409 0.296 0.399 0.155" stroke="hsl(0.0,100%,35%)" stroke-width="0.00033"></path>
<path d="M0.136 0.332 Q-0.168 0.505 0.102 0.691" stroke="hsl(0.0,100%,35%)" stroke-width="0.00033"></path>
<path d="M0.136 0.332 Q0.465 0.633 1.125 0.538" stroke="hsl(0.0,100%,35%)" stroke-width="0.00033"></path>
<path d="M1.666 0.680 Q1.179 0.200 0.136 0.332" stroke="hsl(0.0,100%,35%)" stroke-width="0.00067"></path>
<path d="M1.666 0.680 Q1.723 0.549 1.480 0.492" stroke="hsl(0.0,100%,35%)" stroke-width="0.00067"></path>
<path d="M1.666 0.680 Q1.479 0.488 1.063 0.537" stroke="hsl(0.0,100%,35%)" stroke-width="0.00100"></path>
<path d="M1.666 0.680 Q1.620 0.379 1.022 0.336" stroke="hsl(0.0,100%,35%)" stroke-width="0.00033"></path>
<path d="M1.666 0.680 Q1.637 0.708 1.685 0.728" stroke="hsl(0.0,100%,35%)" stroke-width="0.00033"></path>
<path d="M1.666 0.680 Q1.776 0.633 1.709 0.570" stroke="hsl(0.0,100%,35%)" stroke-width="0.00067"></path>
<path d="M1.666 0.680 Q1.571 0.277 0.763 0.235" stroke="hsl(0.0,100%,35%)" stroke-width="0.00100"></path>
<path d="M1.666 0.680 Q1.515 0.683 1.488 0.757" stroke="hsl(0.0,100%,35%)" stroke-width="0.00033"></path>
<path d="M1.666 0.680 Q1.655 0.589 1.475 0.575" stroke="hsl(0.0,100%,35%)" stroke-width="0.00033"></path>
<path d="M1.666 0.680 Q1.710 0.445 1.261 0.372" stroke="hsl(0.0,100%,35%)" stroke-width="0.00033"></path>
<path d="M1.261 0.372 Q1.122 0.204 0.763 0.235" stroke="hsl(0.0,100%,35%)" stroke-width="0.00200"></path>
<path d="M1.261 0.372 Q1.171 0.306 1.022 0.336" stroke="hsl(0.0,100%,35%)" stroke-width="0.00334"></path>
<path d="M1.261 0.372 Q1.531 0.356 1.558 0.221" stroke="hsl(0.0,100%,35%)" stroke-width="0.00033"></path>
<path d="M1.261 0.372 Q1.274 0.476 1.480 0.492" stroke="hsl(0.0,100%,35%)" stroke-width="0.00334"></path>
<path d="M1.261 0.372 Q1.030 0.415 1.063 0.537" stroke="hsl(0.0,100%,35%)" stroke-width="0.00834"></path>
<path d="M1.261 0.372 Q1.327 0.560 1.709 0.570" stroke="hsl(0.0,100%,35%)" stroke-width="0.00033"></path>
<path d="M1.261 0.372 Q1.139 0.528 1.417 0.622" stroke="hsl(0.0,100%,35%)" stroke-width="0.00067"></path>
<path d="M1.261 0.372 Q0.426 0.300 0.102 0.691" stroke="hsl(0.0,100%,35%)" stroke-width="0.00033"></path>
<path d="M1.261 0.372 Q0.730 0.127 0.136 0.332" stroke="hsl(0.0,100%,35%)" stroke-width="0.00100"></path>
<path d="M1.261 0.372 Q0.818 0.448 0.870 0.681" stroke="hsl(0.0,100%,35%)" stroke-width="0.00033"></path>
<path d="M1.261 0.372 Q1.001 0.492 1.177 0.645" stroke="hsl(0.0,100%,35%)" stroke-width="0.00033"></path>
<path d="M1.063 0.537 Q1.360 0.683 1.709 0.570" stroke="hsl(0.0,100%,35%)" stroke-width="0.00200"></path>
<path d="M1.063 0.537 Q0.763 0.249 0.136 0.332" stroke="hsl(0.0,100%,35%)" stroke-width="0.01635"></path>
<path d="M1.063 0.537 Q1.307 0.598 1.480 0.492" stroke="hsl(0.0,100%,35%)" stroke-width="0.01801"></path>
<path d="M1.063 0.537 Q1.294 0.494 1.261 0.372" stroke="hsl(0.0,100%,35%)" stroke-width="0.01067"></path>
<path d="M1.063 0.537 Q1.204 0.428 1.022 0.336" stroke="hsl(0.0,100%,35%)" stroke-width="0.00667"></path>
<path d="M1.063 0.537 Q1.172 0.650 1.417 0.622" stroke="hsl(0.0,100%,35%)" stroke-width="0.01134"></path>
<path d="M1.063 0.537 Q1.374 0.251 0.885 0.037" stroke="hsl(0.0,100%,35%)" stroke-width="0.00100"></path>
<path d="M1.063 0.537 Q1.155 0.326 0.763 0.235" stroke="hsl(0.0,100%,35%)" stroke-width="0.00167"></path>
<path d="M1.063 0.537 Q0.851 0.571 0.870 0.681" stroke="hsl(0.0,100%,35%)" stroke-width="0.00200"></path>
<path d="M1.063 0.537 Q0.737 0.527 0.647 0.684" stroke="hsl(0.0,100%,35%)" stroke-width="0.00033"></path>
<path d="M1.063 0.537 Q1.093 0.550 1.125 0.538" stroke="hsl(0.0,100%,35%)" stroke-width="0.00067"></path>
<path d="M1.063 0.537 Q0.981 0.620 1.124 0.677" stroke="hsl(0.0,100%,35%)" stroke-width="0.00033"></path>
<path d="M1.063 0.537 Q1.311 0.442 1.180 0.300" stroke="hsl(0.0,100%,35%)" stroke-width="0.00033"></path>
<path d="M1.063 0.537 Q1.250 0.729 1.666 0.680" stroke="hsl(0.0,100%,35%)" stroke-width="0.00033"></path>
<path d="M0.763 0.235 Q0.068 0.331 0.102 0.691" stroke="hsl(120.0,100%,35%)" stroke-width="0.00334"></path>
<path d="M0.763 0.235 Q0.983 0.160 0.885 0.037" stroke="hsl(120.0,100%,35%)" stroke-width="0.00334"></path>
<path d="M0.763 0.235 Q0.916 0.507 1.480 0.492" stroke="hsl(120.0,100%,35%)" stroke-width="0.00367"></path>
<path d="M0.763 0.235 Q0.999 0.460 1.490 0.395" stroke="hsl(120.0,100%,35%)" stroke-width="0.00200"></path>
<path d="M0.763 0.235 Q0.781 0.559 1.417 0.622" stroke="hsl(120.0,100%,35%)" stroke-width="0.00100"></path>
<path d="M0.763 0.235 Q0.591 0.666 1.394 0.845" stroke="hsl(120.0,100%,35%)" stroke-width="0.00067"></path>
<path d="M0.763 0.235 Q0.372 0.158 0.136 0.332" stroke="hsl(120.0,100%,35%)" stroke-width="0.00167"></path>
<path d="M0.763 0.235 Q0.688 0.128 0.463 0.141" stroke="hsl(120.0,100%,35%)" stroke-width="0.00067"></path>
<path d="M0.763 0.235 Q0.701 0.459 1.125 0.538" stroke="hsl(120.0,100%,35%)" stroke-width="0.00067"></path>
<path d="M0.763 0.235 Q0.672 0.446 1.063 0.537" stroke="hsl(120.0,100%,35%)" stroke-width="0.00234"></path>
<path d="M0.763 0.235 Q0.903 0.403 1.261 0.372" stroke="hsl(120.0,100%,35%)" stroke-width="0.00067"></path>
<path d="M0.763 0.235 Q0.170 0.249 0.067 0.541" stroke="hsl(120.0,100%,35%)" stroke-width="0.00133"></path>
<path d="M0.763 0.235 Q1.205 0.297 1.422 0.095" stroke="hsl(120.0,100%,35%)" stroke-width="0.00033"></path>
<path d="M0.763 0.235 Q0.859 0.638 1.666 0.680" stroke="hsl(120.0,100%,35%)" stroke-width="0.00033"></path>
<path d="M0.763 0.235 Q0.815 0.622 1.582 0.682" stroke="hsl(120.0,100%,35%)" stroke-width="0.00033"></path>
<path d="M1.590 0.679 Q1.440 0.503 1.063 0.537" stroke="hsl(0.0,100%,35%)" stroke-width="0.00033"></path>
<path d="M1.590 0.679 Q1.685 0.564 1.480 0.492" stroke="hsl(0.0,100%,35%)" stroke-width="0.00067"></path>
<path d="M1.590 0.679 Q1.737 0.648 1.709 0.570" stroke="hsl(0.0,100%,35%)" stroke-width="0.00033"></path>
<path d="M0.891 0.390 Q1.104 0.559 1.480 0.492" stroke="hsl(0.0,100%,35%)" stroke-width="0.00367"></path>
<path d="M0.891 0.390 Q0.859 0.498 1.063 0.537" stroke="hsl(0.0,100%,35%)" stroke-width="0.00400"></path>
<path d="M0.891 0.390 Q1.034 0.605 1.484 0.582" stroke="hsl(0.0,100%,35%)" stroke-width="0.00033"></path>
<path d="M1.484 0.582 Q1.554 0.536 1.480 0.492" stroke="hsl(0.0,100%,35%)" stroke-width="0.00167"></path>
<path d="M1.484 0.582 Q1.428 0.627 1.503 0.665" stroke="hsl(0.0,100%,35%)" stroke-width="0.00033"></path>
<path d="M1.484 0.582 Q1.309 0.476 1.063 0.537" stroke="hsl(0.0,100%,35%)" stroke-width="0.00033"></path>
<path d="M1.826 0.797 Q1.722 0.786 1.678 0.835" stroke="hsl(240.0,100%,35%)" stroke-width="0.00033"></path>
<path d="M1.826 0.797 Q1.441 0.548 0.870 0.681" stroke="hsl(240.0,100%,35%)" stroke-width="0.00033"></path>
<path d="M1.826 0.797 Q1.831 0.832 1.900 0.837" stroke="hsl(240.0,100%,35%)" stroke-width="0.00067"></path>
<path d="M1.058 0.552 Q1.317 0.606 1.480 0.492" stroke="hsl(0.0,100%,35%)" stroke-width="0.00234"></path>
<path d="M1.058 0.552 Q1.164 0.335 0.763 0.235" stroke="hsl(0.0,100%,35%)" stroke-width="0.00033"></path>
<path d="M1.058 0.552 Q1.046 0.310 0.572 0.263" stroke="hsl(0.0,100%,35%)" stroke-width="0.00033"></path>
<path d="M1.058 0.552 Q1.072 0.545 1.063 0.537" stroke="hsl(0.0,100%,35%)" stroke-width="0.00133"></path>
<path d="M1.058 0.552 Q0.991 0.628 1.124 0.677" stroke="hsl(0.0,100%,35%)" stroke-width="0.00033"></path>
<path d="M1.058 0.552 Q1.190 0.697 1.503 0.665" stroke="hsl(0.0,100%,35%)" stroke-width="0.00033"></path>
<path d="M0.572 0.263 Q0.843 0.559 1.480 0.492" stroke="hsl(120.0,100%,35%)" stroke-width="0.00667"></path>
<path d="M0.572 0.263 Q0.690 0.287 0.763 0.235" stroke="hsl(120.0,100%,35%)" stroke-width="0.01134"></path>
<path d="M0.572 0.263 Q-0.005 0.383 0.102 0.691" stroke="hsl(120.0,100%,35%)" stroke-width="0.00667"></path>
<path d="M0.572 0.263 Q0.233 0.384 0.395 0.576" stroke="hsl(120.0,100%,35%)" stroke-width="0.00234"></path>
<path d="M0.572 0.263 Q0.598 0.498 1.063 0.537" stroke="hsl(120.0,100%,35%)" stroke-width="0.00434"></path>
<path d="M0.572 0.263 Q0.097 0.301 0.067 0.541" stroke="hsl(120.0,100%,35%)" stroke-width="0.00067"></path>
<path d="M0.572 0.263 Q0.910 0.213 0.885 0.037" stroke="hsl(120.0,100%,35%)" stroke-width="0.00033"></path>
<path d="M1.503 0.665 Q1.629 0.574 1.480 0.492" stroke="hsl(0.0,100%,35%)" stroke-width="0.01301"></path>
<path d="M1.503 0.665 Q1.682 0.658 1.709 0.570" stroke="hsl(0.0,100%,35%)" stroke-width="0.00234"></path>
<path d="M1.503 0.665 Q1.494 0.626 1.417 0.622" stroke="hsl(0.0,100%,35%)" stroke-width="0.00033"></path>
<path d="M1.503 0.665 Q1.712 0.527 1.490 0.395" stroke="hsl(0.0,100%,35%)" stroke-width="0.00033"></path>
<path d="M1.503 0.665 Q1.561 0.614 1.475 0.575" stroke="hsl(0.0,100%,35%)" stroke-width="0.00067"></path>
<path d="M1.503 0.665 Q1.385 0.513 1.063 0.537" stroke="hsl(0.0,100%,35%)" stroke-width="0.00467"></path>
<path d="M1.503 0.665 Q1.303 0.595 1.124 0.677" stroke="hsl(0.0,100%,35%)" stroke-width="0.00100"></path>
<path d="M1.503 0.665 Q1.572 0.705 1.666 0.680" stroke="hsl(0.0,100%,35%)" stroke-width="0.00133"></path>
<path d="M1.503 0.665 Q1.526 0.404 1.022 0.336" stroke="hsl(0.0,100%,35%)" stroke-width="0.00067"></path>
<path d="M1.503 0.665 Q1.415 0.526 1.125 0.538" stroke="hsl(0.0,100%,35%)" stroke-width="0.00033"></path>
<path d="M1.324 0.154 Q0.979 0.083 0.763 0.235" stroke="hsl(120.0,100%,35%)" stroke-width="0.00067"></path>
<path d="M1.324 0.154 Q0.917 0.307 1.125 0.538" stroke="hsl(120.0,100%,35%)" stroke-width="0.00033"></path>
<path d="M1.324 0.154 Q1.421 0.145 1.422 0.095" stroke="hsl(120.0,100%,35%)" stroke-width="0.00033"></path>
<path d="M1.125 0.538 Q1.339 0.586 1.480 0.492" stroke="hsl(0.0,100%,35%)" stroke-width="0.00334"></path>
<path d="M1.125 0.538 Q1.392 0.671 1.709 0.570" stroke="hsl(0.0,100%,35%)" stroke-width="0.00267"></path>
<path d="M1.125 0.538 Q1.271 0.627 1.475 0.575" stroke="hsl(0.0,100%,35%)" stroke-width="0.00033"></path>
<path d="M1.125 0.538 Q1.131 0.720 1.488 0.757" stroke="hsl(0.0,100%,35%)" stroke-width="0.00033"></path>
<path d="M1.125 0.538 Q1.204 0.639 1.417 0.622" stroke="hsl(0.0,100%,35%)" stroke-width="0.00033"></path>
<path d="M1.686 0.223 Q1.155 0.147 0.891 0.390" stroke="hsl(120.0,100%,35%)" stroke-width="0.00033"></path>
<path d="M1.686 0.223 Q1.354 0.212 1.261 0.372" stroke="hsl(120.0,100%,35%)" stroke-width="0.00033"></path>
<path d="M1.686 0.223 Q0.520 0.140 0.102 0.691" stroke="hsl(120.0,100%,35%)" stroke-width="0.00067"></path>
<path d="M1.686 0.223 Q1.368 0.316 1.480 0.492" stroke="hsl(120.0,100%,35%)" stroke-width="0.00100"></path>
<path d="M1.686 0.223 Q1.123 0.255 1.063 0.537" stroke="hsl(120.0,100%,35%)" stroke-width="0.00033"></path>
<path d="M0.102 0.691 Q0.798 0.595 0.763 0.235" stroke="hsl(120.0,100%,35%)" stroke-width="0.00267"></path>
<path d="M0.102 0.691 Q0.204 0.743 0.328 0.705" stroke="hsl(120.0,100%,35%)" stroke-width="0.00067"></path>
<path d="M0.102 0.691 Q0.205 0.609 0.067 0.541" stroke="hsl(120.0,100%,35%)" stroke-width="0.00133"></path>
<path d="M0.102 0.691 Q0.341 0.692 0.395 0.576" stroke="hsl(120.0,100%,35%)" stroke-width="0.00067"></path>
<path d="M0.102 0.691 Q0.625 1.026 1.394 0.845" stroke="hsl(120.0,100%,35%)" stroke-width="0.00033"></path>
<path d="M0.102 0.691 Q0.706 0.806 1.063 0.537" stroke="hsl(120.0,100%,35%)" stroke-width="0.00067"></path>
<path d="M1.423 0.272 Q1.262 0.290 1.261 0.372" stroke="hsl(0.0,100%,35%)" stroke-width="0.00167"></path>
<path d="M1.423 0.272 Q1.275 0.393 1.480 0.492" stroke="hsl(0.0,100%,35%)" stroke-width="0.00067"></path>
<path d="M1.423 0.272 Q1.031 0.332 1.063 0.537" stroke="hsl(0.0,100%,35%)" stroke-width="0.00033"></path>
<path d="M1.423 0.272 Q1.171 0.224 1.022 0.336" stroke="hsl(0.0,100%,35%)" stroke-width="0.00067"></path>
<path d="M1.423 0.272 Q1.487 0.319 1.593 0.298" stroke="hsl(0.0,100%,35%)" stroke-width="0.00033"></path>
<path d="M1.249 0.260 Q1.179 0.422 1.480 0.492" stroke="hsl(120.0,100%,35%)" stroke-width="0.00167"></path>
<path d="M1.249 0.260 Q0.934 0.361 1.063 0.537" stroke="hsl(120.0,100%,35%)" stroke-width="0.00167"></path>
<path d="M1.249 0.260 Q1.026 0.151 0.763 0.235" stroke="hsl(120.0,100%,35%)" stroke-width="0.00100"></path>
<path d="M1.249 0.260 Q1.078 0.538 1.582 0.682" stroke="hsl(120.0,100%,35%)" stroke-width="0.00033"></path>
<path d="M1.249 0.260 Q1.246 0.076 0.885 0.037" stroke="hsl(120.0,100%,35%)" stroke-width="0.00033"></path>
<path d="M0.885 0.037 Q0.666 0.112 0.763 0.235" stroke="hsl(120.0,100%,35%)" stroke-width="0.00133"></path>
<path d="M0.885 0.037 Q0.818 0.383 1.480 0.492" stroke="hsl(120.0,100%,35%)" stroke-width="0.00133"></path>
<path d="M0.885 0.037 Q-0.030 0.207 0.102 0.691" stroke="hsl(120.0,100%,35%)" stroke-width="0.00033"></path>
<path d="M0.885 0.037 Q0.574 0.322 1.063 0.537" stroke="hsl(120.0,100%,35%)" stroke-width="0.00067"></path>
<path d="M0.885 0.037 Q0.805 0.280 1.261 0.372" stroke="hsl(120.0,100%,35%)" stroke-width="0.00033"></path>
<path d="M1.685 0.421 Q1.373 0.144 0.763 0.235" stroke="hsl(0.0,100%,35%)" stroke-width="0.00067"></path>
<path d="M1.685 0.421 Q1.526 0.416 1.480 0.492" stroke="hsl(0.0,100%,35%)" stroke-width="0.02202"></path>
<path d="M1.685 0.421 Q1.578 0.500 1.709 0.570" stroke="hsl(0.0,100%,35%)" stroke-width="0.01868"></path>
<path d="M1.685 0.421 Q1.390 0.468 1.417 0.622" stroke="hsl(0.0,100%,35%)" stroke-width="0.00033"></path>
<path d="M1.475 0.575 Q1.544 0.534 1.480 0.492" stroke="hsl(0.0,100%,35%)" stroke-width="0.00234"></path>
<path d="M1.475 0.575 Q1.000 0.185 0.136 0.332" stroke="hsl(0.0,100%,35%)" stroke-width="0.00033"></path>
<path d="M1.475 0.575 Q1.596 0.619 1.709 0.570" stroke="hsl(0.0,100%,35%)" stroke-width="0.00033"></path>
<path d="M1.475 0.575 Q1.329 0.486 1.125 0.538" stroke="hsl(0.0,100%,35%)" stroke-width="0.00067"></path>
<path d="M0.103 0.858 Q0.236 0.774 0.102 0.691" stroke="hsl(120.0,100%,35%)" stroke-width="0.01067"></path>
<path d="M0.103 0.858 Q1.084 0.950 1.480 0.492" stroke="hsl(120.0,100%,35%)" stroke-width="0.01268"></path>
<path d="M0.103 0.858 Q0.932 0.679 0.763 0.235" stroke="hsl(120.0,100%,35%)" stroke-width="0.00701"></path>
<path d="M0.103 0.858 Q1.125 0.720 1.079 0.191" stroke="hsl(120.0,100%,35%)" stroke-width="0.00067"></path>
<path d="M0.103 0.858 Q0.811 0.966 1.177 0.645" stroke="hsl(120.0,100%,35%)" stroke-width="0.00133"></path>
<path d="M0.103 0.858 Q0.840 0.890 1.063 0.537" stroke="hsl(120.0,100%,35%)" stroke-width="0.00067"></path>
<path d="M0.103 0.858 Q-0.085 1.340 0.814 1.538" stroke="hsl(120.0,100%,35%)" stroke-width="0.00067"></path>
<path d="M0.103 0.858 Q0.475 0.776 0.395 0.576" stroke="hsl(120.0,100%,35%)" stroke-width="0.00067"></path>
<path d="M0.103 0.858 Q0.759 1.109 1.394 0.845" stroke="hsl(120.0,100%,35%)" stroke-width="0.00033"></path>
<path d="M0.103 0.858 Q1.071 0.847 1.261 0.372" stroke="hsl(120.0,100%,35%)" stroke-width="0.00067"></path>
<path d="M0.103 0.858 Q0.338 0.692 0.067 0.541" stroke="hsl(120.0,100%,35%)" stroke-width="0.00033"></path>
<path d="M1.079 0.191 Q0.886 0.150 0.763 0.235" stroke="hsl(120.0,100%,35%)" stroke-width="0.00067"></path>
<path d="M1.079 0.191 Q1.025 0.318 1.261 0.372" stroke="hsl(120.0,100%,35%)" stroke-width="0.00033"></path>
<path d="M1.079 0.191 Q1.105 0.075 0.885 0.037" stroke="hsl(120.0,100%,35%)" stroke-width="0.00033"></path>
<path d="M1.177 0.645 Q1.206 0.568 1.063 0.537" stroke="hsl(0.0,100%,35%)" stroke-width="0.00767"></path>
<path d="M1.177 0.645 Q1.298 0.357 0.763 0.235" stroke="hsl(0.0,100%,35%)" stroke-width="0.00133"></path>
<path d="M1.177 0.645 Q1.451 0.629 1.480 0.492" stroke="hsl(0.0,100%,35%)" stroke-width="0.00067"></path>
<path d="M0.814 1.538 Q1.739 1.087 1.063 0.537" stroke="hsl(0.0,100%,35%)" stroke-width="0.00200"></path>
<path d="M0.814 1.538 Q2.051 0.802 0.885 0.037" stroke="hsl(0.0,100%,35%)" stroke-width="0.00033"></path>
<path d="M0.814 1.538 Q1.831 0.876 0.763 0.235" stroke="hsl(0.0,100%,35%)" stroke-width="0.00067"></path>
<path d="M0.814 1.538 Q1.984 1.148 1.480 0.492" stroke="hsl(0.0,100%,35%)" stroke-width="0.00133"></path>
<path d="M0.814 1.538 Q1.857 1.239 1.503 0.665" stroke="hsl(0.0,100%,35%)" stroke-width="0.00033"></path>
<path d="M0.814 1.538 Q1.136 0.972 0.102 0.691" stroke="hsl(0.0,100%,35%)" stroke-width="0.00033"></path>
<path d="M0.395 0.576 Q1.005 0.751 1.480 0.492" stroke="hsl(120.0,100%,35%)" stroke-width="0.00067"></path>
<path d="M0.395 0.576 Q0.157 0.575 0.102 0.691" stroke="hsl(120.0,100%,35%)" stroke-width="0.00167"></path>
<path d="M0.395 0.576 Q1.072 0.405 0.885 0.037" stroke="hsl(120.0,100%,35%)" stroke-width="0.00033"></path>
<path d="M0.395 0.576 Q0.259 0.493 0.067 0.541" stroke="hsl(120.0,100%,35%)" stroke-width="0.00100"></path>
<path d="M0.395 0.576 Q0.852 0.479 0.763 0.235" stroke="hsl(120.0,100%,35%)" stroke-width="0.00033"></path>
<path d="M1.394 0.845 Q0.972 0.562 0.328 0.705" stroke="hsl(120.0,100%,35%)" stroke-width="0.00033"></path>
<path d="M1.394 0.845 Q0.871 0.510 0.102 0.691" stroke="hsl(120.0,100%,35%)" stroke-width="0.00067"></path>
<path d="M1.394 0.845 Q0.973 0.427 0.067 0.541" stroke="hsl(120.0,100%,35%)" stroke-width="0.00067"></path>
<path d="M1.394 0.845 Q1.786 0.339 0.885 0.037" stroke="hsl(120.0,100%,35%)" stroke-width="0.00067"></path>
<path d="M1.394 0.845 Q1.474 0.625 1.063 0.537" stroke="hsl(120.0,100%,35%)" stroke-width="0.00033"></path>
<path d="M1.394 0.845 Q1.566 0.414 0.763 0.235" stroke="hsl(120.0,100%,35%)" stroke-width="0.00033"></path>
<path d="M0.067 0.541 Q-0.036 0.623 0.102 0.691" stroke="hsl(120.0,100%,35%)" stroke-width="0.00734"></path>
<path d="M0.067 0.541 Q0.203 0.624 0.395 0.576" stroke="hsl(120.0,100%,35%)" stroke-width="0.00167"></path>
<path d="M0.067 0.541 Q0.487 0.958 1.394 0.845" stroke="hsl(120.0,100%,35%)" stroke-width="0.00033"></path>
<path d="M0.067 0.541 Q0.568 0.738 1.063 0.537" stroke="hsl(120.0,100%,35%)" stroke-width="0.00067"></path>
<path d="M0.067 0.541 Q0.660 0.527 0.763 0.235" stroke="hsl(120.0,100%,35%)" stroke-width="0.00133"></path>
<path d="M0.067 0.541 Q0.812 0.799 1.480 0.492" stroke="hsl(120.0,100%,35%)" stroke-width="0.00167"></path>
<path d="M0.067 0.541 Q0.879 0.453 0.885 0.037" stroke="hsl(120.0,100%,35%)" stroke-width="0.00033"></path>
<path d="M0.067 0.541 Q0.799 0.695 1.261 0.372" stroke="hsl(120.0,100%,35%)" stroke-width="0.00033"></path>
<path d="M1.200 0.761 Q1.420 0.735 1.417 0.622" stroke="hsl(0.0,100%,35%)" stroke-width="0.00200"></path>
<path d="M1.200 0.761 Q1.011 0.334 0.136 0.332" stroke="hsl(0.0,100%,35%)" stroke-width="0.00033"></path>
<path d="M1.200 0.761 Q1.555 0.682 1.480 0.492" stroke="hsl(0.0,100%,35%)" stroke-width="0.00200"></path>
<path d="M1.200 0.761 Q1.452 0.513 1.022 0.336" stroke="hsl(0.0,100%,35%)" stroke-width="0.00033"></path>
<path d="M1.200 0.761 Q1.608 0.767 1.709 0.570" stroke="hsl(0.0,100%,35%)" stroke-width="0.00067"></path>
<path d="M1.200 0.761 Q1.311 0.622 1.063 0.537" stroke="hsl(0.0,100%,35%)" stroke-width="0.00033"></path>
<path d="M0.115 0.200 Q0.020 0.270 0.136 0.332" stroke="hsl(0.0,100%,35%)" stroke-width="0.01234"></path>
<path d="M0.115 0.200 Q0.237 0.640 1.124 0.677" stroke="hsl(0.0,100%,35%)" stroke-width="0.00033"></path>
<path d="M0.115 0.200 Q0.507 0.750 1.666 0.680" stroke="hsl(0.0,100%,35%)" stroke-width="0.00033"></path>
<path d="M0.115 0.200 Q0.564 0.619 1.480 0.492" stroke="hsl(0.0,100%,35%)" stroke-width="0.00133"></path>
<path d="M0.115 0.200 Q0.319 0.558 1.063 0.537" stroke="hsl(0.0,100%,35%)" stroke-width="0.01134"></path>
<path d="M0.115 0.200 Q0.202 0.664 1.127 0.723" stroke="hsl(0.0,100%,35%)" stroke-width="0.00067"></path>
<path d="M1.263 0.382 Q0.739 0.132 0.136 0.332" stroke="hsl(0.0,100%,35%)" stroke-width="0.01001"></path>
<path d="M1.263 0.382 Q1.039 0.420 1.063 0.537" stroke="hsl(0.0,100%,35%)" stroke-width="0.00701"></path>
<path d="M1.263 0.382 Q1.283 0.480 1.480 0.492" stroke="hsl(0.0,100%,35%)" stroke-width="0.00100"></path>
<path d="M1.263 0.382 Q1.336 0.565 1.709 0.570" stroke="hsl(0.0,100%,35%)" stroke-width="0.00033"></path>
<path d="M0.399 0.155 Q0.425 0.479 1.063 0.537" stroke="hsl(0.0,100%,35%)" stroke-width="0.00100"></path>
<path d="M0.399 0.155 Q0.517 0.268 0.763 0.235" stroke="hsl(0.0,100%,35%)" stroke-width="0.00133"></path>
<path d="M0.399 0.155 Q0.125 0.191 0.136 0.332" stroke="hsl(0.0,100%,35%)" stroke-width="0.00567"></path>
<path d="M0.399 0.155 Q0.670 0.540 1.480 0.492" stroke="hsl(0.0,100%,35%)" stroke-width="0.00334"></path>
<path d="M0.399 0.155 Q0.455 0.492 1.125 0.538" stroke="hsl(0.0,100%,35%)" stroke-width="0.00033"></path>
<path d="M0.399 0.155 Q0.612 0.671 1.666 0.680" stroke="hsl(0.0,100%,35%)" stroke-width="0.00100"></path>
<path d="M0.490 0.405 Q0.915 0.646 1.480 0.492" stroke="hsl(0.0,100%,35%)" stroke-width="0.00267"></path>
<path d="M0.490 0.405 Q0.371 0.298 0.136 0.332" stroke="hsl(0.0,100%,35%)" stroke-width="0.00200"></path>
<path d="M0.490 0.405 Q0.671 0.586 1.063 0.537" stroke="hsl(0.0,100%,35%)" stroke-width="0.00067"></path>
<path d="M1.235 0.960 Q0.884 0.599 0.102 0.691" stroke="hsl(120.0,100%,35%)" stroke-width="0.00200"></path>
<path d="M1.235 0.960 Q1.752 0.413 0.798 0.040" stroke="hsl(120.0,100%,35%)" stroke-width="0.00033"></path>
<path d="M1.235 0.960 Q1.799 0.428 0.885 0.037" stroke="hsl(120.0,100%,35%)" stroke-width="0.00033"></path>
<path d="M1.235 0.960 Q0.985 0.651 0.328 0.705" stroke="hsl(120.0,100%,35%)" stroke-width="0.00033"></path>
<path d="M1.235 0.960 Q1.579 0.503 0.763 0.235" stroke="hsl(120.0,100%,35%)" stroke-width="0.00067"></path>
<path d="M1.235 0.960 Q1.407 0.934 1.394 0.845" stroke="hsl(120.0,100%,35%)" stroke-width="0.00067"></path>
<path d="M1.235 0.960 Q1.122 0.600 0.395 0.576" stroke="hsl(120.0,100%,35%)" stroke-width="0.00033"></path>
<path d="M0.798 0.040 Q0.625 0.131 0.763 0.235" stroke="hsl(120.0,100%,35%)" stroke-width="0.00067"></path>
<path d="M0.798 0.040 Q-0.071 0.227 0.102 0.691" stroke="hsl(120.0,100%,35%)" stroke-width="0.00033"></path>
<path d="M0.798 0.040 Q0.533 0.342 1.063 0.537" stroke="hsl(120.0,100%,35%)" stroke-width="0.00067"></path>
<path d="M0.798 0.040 Q0.777 0.403 1.480 0.492" stroke="hsl(120.0,100%,35%)" stroke-width="0.00033"></path>
<path d="M0.328 0.705 Q1.074 0.829 1.480 0.492" stroke="hsl(120.0,100%,35%)" stroke-width="0.00200"></path>
<path d="M0.328 0.705 Q0.226 0.653 0.102 0.691" stroke="hsl(120.0,100%,35%)" stroke-width="0.00500"></path>
<path d="M0.328 0.705 Q0.328 0.571 0.067 0.541" stroke="hsl(120.0,100%,35%)" stroke-width="0.00033"></path>
<path d="M0.328 0.705 Q0.830 0.768 1.063 0.537" stroke="hsl(120.0,100%,35%)" stroke-width="0.00167"></path>
<path d="M0.328 0.705 Q1.061 0.725 1.261 0.372" stroke="hsl(120.0,100%,35%)" stroke-width="0.00033"></path>
<path d="M0.328 0.705 Q0.921 0.557 0.763 0.235" stroke="hsl(120.0,100%,35%)" stroke-width="0.00067"></path>
<path d="M0.328 0.705 Q1.141 0.482 0.885 0.037" stroke="hsl(120.0,100%,35%)" stroke-width="0.00067"></path>
<path d="M1.113 0.527 Q1.324 0.583 1.480 0.492" stroke="hsl(0.0,100%,35%)" stroke-width="0.00067"></path>
<path d="M1.113 0.527 Q1.172 0.311 0.763 0.235" stroke="hsl(0.0,100%,35%)" stroke-width="0.00033"></path>
<path d="M1.113 0.527 Q1.080 0.522 1.063 0.537" stroke="hsl(0.0,100%,35%)" stroke-width="0.00033"></path>
<path d="M1.182 0.884 Q1.148 0.932 1.235 0.960" stroke="hsl(120.0,100%,35%)" stroke-width="0.00033"></path>
<path d="M1.182 0.884 Q0.796 0.571 0.102 0.691" stroke="hsl(120.0,100%,35%)" stroke-width="0.00033"></path>
<path d="M1.182 0.884 Q1.400 0.686 1.063 0.537" stroke="hsl(120.0,100%,35%)" stroke-width="0.00033"></path>
<path d="M1.180 0.300 Q0.932 0.395 1.063 0.537" stroke="hsl(0.0,100%,35%)" stroke-width="0.00100"></path>
<path d="M1.180 0.300 Q0.633 0.107 0.136 0.332" stroke="hsl(0.0,100%,35%)" stroke-width="0.00033"></path>
<path d="M1.180 0.300 Q1.177 0.456 1.480 0.492" stroke="hsl(0.0,100%,35%)" stroke-width="0.00033"></path>
<path d="M0.920 0.143 Q0.768 0.158 0.763 0.235" stroke="hsl(120.0,100%,35%)" stroke-width="0.00067"></path>
<path d="M0.920 0.143 Q0.921 0.430 1.480 0.492" stroke="hsl(120.0,100%,35%)" stroke-width="0.00033"></path>
<path d="M0.655 0.328 Q0.936 0.575 1.480 0.492" stroke="hsl(120.0,100%,35%)" stroke-width="0.00033"></path>
<path d="M0.655 0.328 Q0.784 0.303 0.763 0.235" stroke="hsl(120.0,100%,35%)" stroke-width="0.00067"></path>
<path d="M0.655 0.328 Q0.692 0.514 1.063 0.537" stroke="hsl(120.0,100%,35%)" stroke-width="0.00033"></path>
<path d="M1.127 0.723 Q0.944 0.329 0.136 0.332" stroke="hsl(0.0,100%,35%)" stroke-width="0.00100"></path>
<path d="M1.127 0.723 Q1.353 0.730 1.417 0.622" stroke="hsl(0.0,100%,35%)" stroke-width="0.00167"></path>
<path d="M1.127 0.723 Q1.244 0.617 1.063 0.537" stroke="hsl(0.0,100%,35%)" stroke-width="0.00033"></path>
<path d="M1.127 0.723 Q1.032 0.651 0.870 0.681" stroke="hsl(0.0,100%,35%)" stroke-width="0.00133"></path>
<path d="M1.127 0.723 Q1.540 0.763 1.709 0.570" stroke="hsl(0.0,100%,35%)" stroke-width="0.00033"></path>
<path d="M1.490 0.395 Q1.254 0.170 0.763 0.235" stroke="hsl(0.0,100%,35%)" stroke-width="0.00367"></path>
<path d="M1.490 0.395 Q1.407 0.441 1.480 0.492" stroke="hsl(0.0,100%,35%)" stroke-width="0.00901"></path>
<path d="M1.490 0.395 Q1.163 0.381 1.063 0.537" stroke="hsl(0.0,100%,35%)" stroke-width="0.00167"></path>
<path d="M1.490 0.395 Q1.394 0.338 1.261 0.372" stroke="hsl(0.0,100%,35%)" stroke-width="0.00033"></path>
<path d="M1.490 0.395 Q0.559 0.266 0.102 0.691" stroke="hsl(0.0,100%,35%)" stroke-width="0.00033"></path>
<path d="M1.338 0.691 Q1.568 0.620 1.480 0.492" stroke="hsl(0.0,100%,35%)" stroke-width="0.00100"></path>
<path d="M1.338 0.691 Q1.620 0.704 1.709 0.570" stroke="hsl(0.0,100%,35%)" stroke-width="0.00067"></path>
<path d="M1.338 0.691 Q1.323 0.559 1.063 0.537" stroke="hsl(0.0,100%,35%)" stroke-width="0.00033"></path>
<path d="M1.948 0.489 Q1.712 0.397 1.480 0.492" stroke="hsl(120.0,100%,35%)" stroke-width="0.00033"></path>
<path d="M1.948 0.489 Q1.559 0.125 0.763 0.235" stroke="hsl(120.0,100%,35%)" stroke-width="0.00033"></path>
<path d="M1.948 0.489 Q1.634 0.681 1.939 0.877" stroke="hsl(120.0,100%,35%)" stroke-width="0.00033"></path>
<path d="M0.847 0.888 Q1.532 0.901 1.709 0.570" stroke="hsl(0.0,100%,35%)" stroke-width="0.00167"></path>
<path d="M0.847 0.888 Q1.480 0.817 1.480 0.492" stroke="hsl(0.0,100%,35%)" stroke-width="0.00234"></path>
<path d="M0.847 0.888 Q1.345 0.869 1.417 0.622" stroke="hsl(0.0,100%,35%)" stroke-width="0.00033"></path>
<path d="M0.847 0.888 Q0.743 0.840 0.627 0.880" stroke="hsl(0.0,100%,35%)" stroke-width="0.00033"></path>
<path d="M0.847 0.888 Q1.236 0.756 1.063 0.537" stroke="hsl(0.0,100%,35%)" stroke-width="0.00067"></path>
<path d="M0.847 0.888 Q1.328 0.545 0.763 0.235" stroke="hsl(0.0,100%,35%)" stroke-width="0.00033"></path>
<path d="M1.757 0.914 Q1.670 0.883 1.589 0.918" stroke="hsl(0.0,100%,35%)" stroke-width="0.00033"></path>
<path d="M1.757 0.914 Q1.943 0.544 1.261 0.372" stroke="hsl(0.0,100%,35%)" stroke-width="0.00033"></path>
<path d="M1.757 0.914 Q1.711 0.587 1.063 0.537" stroke="hsl(0.0,100%,35%)" stroke-width="0.00033"></path>
<path d="M0.350 0.277 Q0.743 0.611 1.480 0.492" stroke="hsl(0.0,100%,35%)" stroke-width="0.00100"></path>
<path d="M0.350 0.277 Q0.199 0.262 0.136 0.332" stroke="hsl(0.0,100%,35%)" stroke-width="0.00234"></path>
<path d="M0.350 0.277 Q0.617 0.702 1.503 0.665" stroke="hsl(0.0,100%,35%)" stroke-width="0.00033"></path>
<path d="M0.350 0.277 Q0.608 0.663 1.417 0.622" stroke="hsl(0.0,100%,35%)" stroke-width="0.00033"></path>
<path d="M0.350 0.277 Q0.686 0.742 1.666 0.680" stroke="hsl(0.0,100%,35%)" stroke-width="0.00067"></path>
<path d="M0.350 0.277 Q0.498 0.550 1.063 0.537" stroke="hsl(0.0,100%,35%)" stroke-width="0.00033"></path>
<path d="M1.783 0.110 Q1.173 -0.031 0.763 0.235" stroke="hsl(120.0,100%,35%)" stroke-width="0.00033"></path>
<path d="M1.783 0.110 Q1.774 0.188 1.924 0.209" stroke="hsl(120.0,100%,35%)" stroke-width="0.00033"></path>
<path d="M1.783 0.110 Q1.081 0.180 1.063 0.537" stroke="hsl(120.0,100%,35%)" stroke-width="0.00033"></path>
<path d="M0.447 0.359 Q0.313 0.283 0.136 0.332" stroke="hsl(0.0,100%,35%)" stroke-width="0.00234"></path>
<path d="M0.447 0.359 Q0.857 0.632 1.480 0.492" stroke="hsl(0.0,100%,35%)" stroke-width="0.00033"></path>
<path d="M0.447 0.359 Q0.800 0.763 1.666 0.680" stroke="hsl(0.0,100%,35%)" stroke-width="0.00033"></path>
<path d="M1.248 0.080 Q0.790 0.271 1.063 0.537" stroke="hsl(120.0,100%,35%)" stroke-width="0.00033"></path>
<path d="M1.248 0.080 Q1.323 0.122 1.422 0.095" stroke="hsl(120.0,100%,35%)" stroke-width="0.00033"></path>
<path d="M1.248 0.080 Q1.101 -0.014 0.885 0.037" stroke="hsl(120.0,100%,35%)" stroke-width="0.00033"></path>
<path d="M1.400 0.794 Q1.682 0.659 1.480 0.492" stroke="hsl(0.0,100%,35%)" stroke-width="0.00100"></path>
<path d="M1.400 0.794 Q1.547 0.712 1.417 0.622" stroke="hsl(0.0,100%,35%)" stroke-width="0.00067"></path>
<path d="M1.400 0.794 Q0.701 0.567 0.103 0.858" stroke="hsl(0.0,100%,35%)" stroke-width="0.00033"></path>
<path d="M0.972 0.402 Q1.140 0.445 1.261 0.372" stroke="hsl(0.0,100%,35%)" stroke-width="0.00033"></path>
<path d="M0.972 0.402 Q0.306 0.372 0.102 0.691" stroke="hsl(0.0,100%,35%)" stroke-width="0.00033"></path>
<path d="M0.972 0.402 Q0.909 0.487 1.063 0.537" stroke="hsl(0.0,100%,35%)" stroke-width="0.00100"></path>
<path d="M0.972 0.402 Q1.206 0.633 1.709 0.570" stroke="hsl(0.0,100%,35%)" stroke-width="0.00033"></path>
<path d="M1.515 0.692 Q1.724 0.238 0.885 0.037" stroke="hsl(120.0,100%,35%)" stroke-width="0.00067"></path>
<path d="M1.515 0.692 Q1.657 0.585 1.480 0.492" stroke="hsl(120.0,100%,35%)" stroke-width="0.00133"></path>
<path d="M1.515 0.692 Q1.504 0.313 0.763 0.235" stroke="hsl(120.0,100%,35%)" stroke-width="0.00100"></path>
<path d="M0.724 0.343 Q0.738 0.508 1.063 0.537" stroke="hsl(0.0,100%,35%)" stroke-width="0.00067"></path>
<path d="M0.724 0.343 Q0.439 0.220 0.136 0.332" stroke="hsl(0.0,100%,35%)" stroke-width="0.00033"></path>
<path d="M0.724 0.343 Q0.983 0.569 1.480 0.492" stroke="hsl(0.0,100%,35%)" stroke-width="0.00033"></path>
<path d="M0.724 0.343 Q0.830 0.297 0.763 0.235" stroke="hsl(0.0,100%,35%)" stroke-width="0.00033"></path>
<path d="M0.246 0.074 Q0.529 0.530 1.480 0.492" stroke="hsl(0.0,100%,35%)" stroke-width="0.00067"></path>
<path d="M0.246 0.074 Q-0.015 0.181 0.136 0.332" stroke="hsl(0.0,100%,35%)" stroke-width="0.00200"></path>
<path d="M0.246 0.074 Q0.376 0.258 0.763 0.235" stroke="hsl(0.0,100%,35%)" stroke-width="0.00100"></path>
<path d="M1.329 0.734 Q1.598 0.643 1.480 0.492" stroke="hsl(0.0,100%,35%)" stroke-width="0.00334"></path>
<path d="M1.329 0.734 Q1.471 0.734 1.503 0.665" stroke="hsl(0.0,100%,35%)" stroke-width="0.00200"></path>
<path d="M1.329 0.734 Q1.462 0.695 1.417 0.622" stroke="hsl(0.0,100%,35%)" stroke-width="0.00067"></path>
<path d="M1.329 0.734 Q1.053 0.294 0.136 0.332" stroke="hsl(0.0,100%,35%)" stroke-width="0.00033"></path>
<path d="M1.329 0.734 Q1.527 0.689 1.484 0.582" stroke="hsl(0.0,100%,35%)" stroke-width="0.00167"></path>
<path d="M1.329 0.734 Q1.353 0.582 1.063 0.537" stroke="hsl(0.0,100%,35%)" stroke-width="0.00067"></path>
<path d="M1.329 0.734 Q1.384 0.474 0.891 0.390" stroke="hsl(0.0,100%,35%)" stroke-width="0.00067"></path>
<path d="M0.416 0.811 Q0.355 0.688 0.102 0.691" stroke="hsl(120.0,100%,35%)" stroke-width="0.00100"></path>
<path d="M0.416 0.811 Q0.222 0.772 0.103 0.858" stroke="hsl(120.0,100%,35%)" stroke-width="0.00033"></path>
<path d="M0.416 0.811 Q1.189 0.760 1.261 0.372" stroke="hsl(120.0,100%,35%)" stroke-width="0.00033"></path>
</g>
<text x="0.870" y="0.660" font-size="0.042790" fill="hsl(0.0,100%,20%)">abdolrashidi</text>
<text x="1.709" y="0.540" font-size="0.060330" fill="hsl(0.0,100%,20%)">cclao</text>
<text x="1.480" y="0.447" font-size="0.089476" fill="hsl(0.0,100%,20%)">syoussefi</text>
<text x="1.417" y="0.598" font-size="0.048856" fill="hsl(0.0,100%,20%)">yuxinhu</text>
<text x="1.022" y="0.314" font-size="0.042877" fill="hsl(0.0,100%,20%)">romanl</text>
<text x="0.136" y="0.305" font-size="0.054180" fill="hsl(0.0,100%,20%)">cnorthrop</text>
<text x="0.931" y="0.739" font-size="0.003850" fill="hsl(0.0,100%,20%)">ineula</text>
<text x="0.894" y="0.674" font-size="0.003850" fill="hsl(0.0,100%,20%)">kaiyili</text>
<text x="1.666" y="0.668" font-size="0.023736" fill="hsl(0.0,100%,20%)">ianelliott</text>
<text x="1.261" y="0.355" font-size="0.033346" fill="hsl(0.0,100%,20%)">ynovikov</text>
<text x="1.063" y="0.502" font-size="0.069681" fill="hsl(0.0,100%,20%)">jmadill</text>
<text x="0.763" y="0.214" font-size="0.041826" fill="hsl(120.0,100%,20%)">geofflang</text>
<text x="1.590" y="0.677" font-size="0.005445" fill="hsl(0.0,100%,20%)">aeubanks</text>
<text x="0.891" y="0.383" font-size="0.014147" fill="hsl(0.0,100%,20%)">antonio.caggiano</text>
<text x="1.484" y="0.577" font-size="0.010891" fill="hsl(0.0,100%,20%)">j.vigil</text>
<text x="1.826" y="0.794" font-size="0.005445" fill="hsl(240.0,100%,20%)">ayzhao</text>
<text x="1.678" y="0.833" font-size="0.002723" fill="hsl(240.0,100%,20%)">hans</text>
<text x="1.900" y="0.835" font-size="0.003850" fill="hsl(240.0,100%,20%)">thakis</text>
<text x="1.058" y="0.547" font-size="0.010891" fill="hsl(0.0,100%,20%)">b.schade</text>
<text x="0.572" y="0.250" font-size="0.026953" fill="hsl(120.0,100%,20%)">lexa.knyazev</text>
<text x="1.124" y="0.674" font-size="0.007203" fill="hsl(0.0,100%,20%)">vantablack</text>
<text x="1.503" y="0.651" font-size="0.026256" fill="hsl(0.0,100%,20%)">m.maiya</text>
<text x="1.324" y="0.152" font-size="0.005445" fill="hsl(120.0,100%,20%)">boliu</text>
<text x="1.125" y="0.530" font-size="0.017220" fill="hsl(0.0,100%,20%)">lfy</text>
<text x="1.422" y="0.093" font-size="0.004716" fill="hsl(120.0,100%,20%)">vasilyt</text>
<text x="1.686" y="0.219" font-size="0.007701" fill="hsl(120.0,100%,20%)">brianosman</text>
<text x="0.102" y="0.675" font-size="0.033123" fill="hsl(120.0,100%,20%)">kbr</text>
<text x="1.423" y="0.267" font-size="0.010545" fill="hsl(0.0,100%,20%)">bsheedy</text>
<text x="1.593" y="0.297" font-size="0.002723" fill="hsl(0.0,100%,20%)">rogerta</text>
<text x="1.249" y="0.255" font-size="0.010545" fill="hsl(120.0,100%,20%)">capn</text>
<text x="1.582" y="0.680" font-size="0.005445" fill="hsl(120.0,100%,20%)">sugoi</text>
<text x="0.885" y="0.028" font-size="0.017854" fill="hsl(120.0,100%,20%)">jonahr</text>
<text x="1.685" y="0.406" font-size="0.030562" fill="hsl(0.0,100%,20%)">i.nazarov</text>
<text x="1.685" y="0.726" font-size="0.004716" fill="hsl(0.0,100%,20%)">natsu</text>
<text x="1.475" y="0.567" font-size="0.015159" fill="hsl(0.0,100%,20%)">zzyiwei</text>
<text x="0.103" y="0.844" font-size="0.028556" fill="hsl(120.0,100%,20%)">chris</text>
<text x="1.079" y="0.187" font-size="0.006669" fill="hsl(120.0,100%,20%)">rafael.cintron</text>
<text x="1.177" y="0.637" font-size="0.015876" fill="hsl(0.0,100%,20%)">senorblanco</text>
<text x="0.814" y="1.532" font-size="0.011868" fill="hsl(0.0,100%,20%)">steven</text>
<text x="0.395" y="0.569" font-size="0.014662" fill="hsl(120.0,100%,20%)">kpiddington</text>
<text x="1.394" y="0.839" font-size="0.011226" fill="hsl(120.0,100%,20%)">lehoangquyen</text>
<text x="0.067" y="0.531" font-size="0.021090" fill="hsl(120.0,100%,20%)">gman</text>
<text x="1.200" y="0.755" font-size="0.012176" fill="hsl(0.0,100%,20%)">solti</text>
<text x="0.115" y="0.187" font-size="0.024504" fill="hsl(0.0,100%,20%)">gert.wollny</text>
<text x="1.263" y="0.372" font-size="0.020735" fill="hsl(0.0,100%,20%)">lubosz.sarnecki</text>
<text x="0.399" y="0.146" font-size="0.017003" fill="hsl(0.0,100%,20%)">eddiehatfield</text>
<text x="0.490" y="0.399" font-size="0.011226" fill="hsl(0.0,100%,20%)">constantine.shablya</text>
<text x="1.235" y="0.955" font-size="0.010545" fill="hsl(120.0,100%,20%)">djg</text>
<text x="0.798" y="0.037" font-size="0.007203" fill="hsl(120.0,100%,20%)">sunnyps</text>
<text x="0.328" y="0.697" font-size="0.016336" fill="hsl(120.0,100%,20%)">kkinnunen</text>
<text x="1.113" y="0.524" font-size="0.005445" fill="hsl(0.0,100%,20%)">dnfield</text>
<text x="1.182" y="0.881" font-size="0.004716" fill="hsl(120.0,100%,20%)">doremylover123</text>
<text x="1.180" y="0.297" font-size="0.006669" fill="hsl(0.0,100%,20%)">doughorn</text>
<text x="0.920" y="0.141" font-size="0.004716" fill="hsl(120.0,100%,20%)">enga</text>
<text x="0.655" y="0.326" font-size="0.005445" fill="hsl(120.0,100%,20%)">fangzhoug</text>
<text x="1.127" y="0.717" font-size="0.010891" fill="hsl(0.0,100%,20%)">ffz</text>
<text x="1.490" y="0.385" font-size="0.019633" fill="hsl(0.0,100%,20%)">penghuang</text>
<text x="0.463" y="0.139" font-size="0.003850" fill="hsl(120.0,100%,20%)">hob</text>
<text x="1.338" y="0.687" font-size="0.007203" fill="hsl(0.0,100%,20%)">gregschlom</text>
<text x="1.948" y="0.487" font-size="0.004716" fill="hsl(120.0,100%,20%)">grt</text>
<text x="1.939" y="0.875" font-size="0.002723" fill="hsl(120.0,100%,20%)">jpmuraira</text>
<text x="0.847" y="0.883" font-size="0.011226" fill="hsl(0.0,100%,20%)">hailinzhang</text>
<text x="0.627" y="0.879" font-size="0.002723" fill="hsl(0.0,100%,20%)">mprzybyl</text>
<text x="1.488" y="0.755" font-size="0.005445" fill="hsl(0.0,100%,20%)">chrisforbes</text>
<text x="0.647" y="0.682" font-size="0.003850" fill="hsl(0.0,100%,20%)">jie.a.chen</text>
<text x="1.757" y="0.912" font-size="0.004716" fill="hsl(0.0,100%,20%)">jwata</text>
<text x="1.589" y="0.917" font-size="0.002723" fill="hsl(0.0,100%,20%)">tikuta</text>
<text x="0.350" y="0.272" font-size="0.010545" fill="hsl(0.0,100%,20%)">mark</text>
<text x="1.783" y="0.108" font-size="0.004716" fill="hsl(120.0,100%,20%)">mfoltz</text>
<text x="1.924" y="0.208" font-size="0.002723" fill="hsl(120.0,100%,20%)">rwkeane</text>
<text x="0.447" y="0.355" font-size="0.008168" fill="hsl(0.0,100%,20%)">mikes</text>
<text x="1.248" y="0.077" font-size="0.004716" fill="hsl(120.0,100%,20%)">nazabris</text>
<text x="1.400" y="0.791" font-size="0.007701" fill="hsl(0.0,100%,20%)">olv</text>
<text x="0.972" y="0.398" font-size="0.006669" fill="hsl(0.0,100%,20%)">pkasting</text>
<text x="1.515" y="0.687" font-size="0.008168" fill="hsl(120.0,100%,20%)">robert.mader</text>
<text x="1.239" y="0.135" font-size="0.002723" fill="hsl(0.0,100%,20%)">kainino</text>
<text x="0.724" y="0.340" font-size="0.006088" fill="hsl(0.0,100%,20%)">sharma.loic</text>
<text x="0.246" y="0.069" font-size="0.009030" fill="hsl(0.0,100%,20%)">srisser</text>
<text x="1.329" y="0.726" font-size="0.014407" fill="hsl(0.0,100%,20%)">sywow.choi</text>
<text x="0.416" y="0.808" font-size="0.006088" fill="hsl(120.0,100%,20%)">tvignatti</text>
<text x="1.558" y="0.220" font-size="0.002723" fill="hsl(0.0,100%,20%)">cwallez</text>
</svg>
