<svg width="4000" height="2000" viewBox="-0.025 -0.025 2.05 1.05" xmlns="http://www.w3.org/2000/svg">
  <style>
    path {
      fill: none;
      stroke-linecap: round;
      stroke-opacity: 0.4;
    }

    text {
      text-anchor: middle;
      alignment-baseline: hanging;
    }
  </style>
  <g opacity="0.4">
<path d="M1.255 0.557 Q1.284 0.367 0.919 0.311" stroke="hsl(0.0,100%,35%)" stroke-width="0.01633"></path>
<path d="M1.255 0.557 Q1.172 0.690 1.413 0.760" stroke="hsl(0.0,100%,35%)" stroke-width="0.00907"></path>
<path d="M1.255 0.557 Q1.774 0.471 1.720 0.199" stroke="hsl(0.0,100%,35%)" stroke-width="0.00181"></path>
<path d="M1.255 0.557 Q1.595 0.316 1.198 0.097" stroke="hsl(0.0,100%,35%)" stroke-width="0.00181"></path>
<path d="M0.919 0.311 Q0.605 0.314 0.543 0.468" stroke="hsl(0.0,100%,35%)" stroke-width="0.02540"></path>
<path d="M0.919 0.311 Q0.562 0.185 0.237 0.331" stroke="hsl(0.0,100%,35%)" stroke-width="0.01996"></path>
<path d="M0.919 0.311 Q0.807 0.635 1.413 0.760" stroke="hsl(0.0,100%,35%)" stroke-width="0.02178"></path>
<path d="M0.919 0.311 Q1.230 0.260 1.198 0.097" stroke="hsl(0.0,100%,35%)" stroke-width="0.00907"></path>
<path d="M0.919 0.311 Q0.754 0.333 0.760 0.418" stroke="hsl(0.0,100%,35%)" stroke-width="0.00363"></path>
<path d="M0.919 0.311 Q0.216 0.438 0.310 0.809" stroke="hsl(0.0,100%,35%)" stroke-width="0.00181"></path>
<path d="M0.919 0.311 Q1.409 0.415 1.720 0.199" stroke="hsl(0.0,100%,35%)" stroke-width="0.00363"></path>
<path d="M0.919 0.311 Q0.750 0.470 1.023 0.586" stroke="hsl(0.0,100%,35%)" stroke-width="0.00363"></path>
<path d="M0.919 0.311 Q0.387 0.356 0.358 0.625" stroke="hsl(0.0,100%,35%)" stroke-width="0.00181"></path>
<path d="M0.919 0.311 Q0.850 0.203 0.624 0.213" stroke="hsl(0.0,100%,35%)" stroke-width="0.00181"></path>
<path d="M0.919 0.311 Q0.890 0.501 1.255 0.557" stroke="hsl(0.0,100%,35%)" stroke-width="0.00726"></path>
<path d="M0.919 0.311 Q1.043 0.140 0.736 0.042" stroke="hsl(0.0,100%,35%)" stroke-width="0.00181"></path>
<path d="M1.720 0.199 Q1.356 0.177 1.234 0.350" stroke="hsl(0.0,100%,35%)" stroke-width="0.00181"></path>
<path d="M1.720 0.199 Q1.551 0.245 1.603 0.337" stroke="hsl(0.0,100%,35%)" stroke-width="0.00181"></path>
<path d="M1.720 0.199 Q1.615 0.130 1.456 0.166" stroke="hsl(0.0,100%,35%)" stroke-width="0.00363"></path>
<path d="M1.720 0.199 Q1.556 0.402 1.915 0.527" stroke="hsl(0.0,100%,35%)" stroke-width="0.00363"></path>
<path d="M1.720 0.199 Q1.541 0.044 1.198 0.097" stroke="hsl(0.0,100%,35%)" stroke-width="0.00363"></path>
<path d="M1.720 0.199 Q1.230 0.095 0.919 0.311" stroke="hsl(0.0,100%,35%)" stroke-width="0.00363"></path>
<path d="M1.198 0.097 Q0.887 0.148 0.919 0.311" stroke="hsl(0.0,100%,35%)" stroke-width="0.02540"></path>
<path d="M1.198 0.097 Q1.377 0.252 1.720 0.199" stroke="hsl(0.0,100%,35%)" stroke-width="0.01270"></path>
<path d="M1.198 0.097 Q0.858 0.338 1.255 0.557" stroke="hsl(0.0,100%,35%)" stroke-width="0.00907"></path>
<path d="M1.198 0.097 Q0.530 0.022 0.237 0.331" stroke="hsl(0.0,100%,35%)" stroke-width="0.00363"></path>
<path d="M1.198 0.097 Q1.213 0.455 1.915 0.527" stroke="hsl(0.0,100%,35%)" stroke-width="0.00181"></path>
<path d="M1.198 0.097 Q0.574 0.151 0.543 0.468" stroke="hsl(0.0,100%,35%)" stroke-width="0.00181"></path>
<path d="M1.582 0.049 Q1.531 0.152 1.720 0.199" stroke="hsl(0.0,100%,35%)" stroke-width="0.00363"></path>
<path d="M1.582 0.049 Q1.352 -0.004 1.198 0.097" stroke="hsl(0.0,100%,35%)" stroke-width="0.00181"></path>
<path d="M1.582 0.049 Q1.367 0.355 1.915 0.527" stroke="hsl(0.0,100%,35%)" stroke-width="0.00181"></path>
<path d="M1.915 0.527 Q1.901 0.168 1.198 0.097" stroke="hsl(0.0,100%,35%)" stroke-width="0.00544"></path>
<path d="M1.915 0.527 Q1.833 0.578 1.914 0.629" stroke="hsl(0.0,100%,35%)" stroke-width="0.00544"></path>
<path d="M1.915 0.527 Q1.589 0.220 0.919 0.311" stroke="hsl(0.0,100%,35%)" stroke-width="0.00181"></path>
<path d="M1.265 0.656 Q1.256 0.738 1.413 0.760" stroke="hsl(0.0,100%,35%)" stroke-width="0.00907"></path>
<path d="M1.265 0.656 Q1.858 0.519 1.720 0.199" stroke="hsl(0.0,100%,35%)" stroke-width="0.00363"></path>
<path d="M1.265 0.656 Q1.368 0.414 0.919 0.311" stroke="hsl(0.0,100%,35%)" stroke-width="0.00181"></path>
<path d="M0.237 0.331 Q0.593 0.457 0.919 0.311" stroke="hsl(0.0,100%,35%)" stroke-width="0.02178"></path>
<path d="M0.237 0.331 Q0.342 0.378 0.457 0.337" stroke="hsl(0.0,100%,35%)" stroke-width="0.00181"></path>
<path d="M0.237 0.331 Q0.430 0.257 0.328 0.147" stroke="hsl(0.0,100%,35%)" stroke-width="0.00181"></path>
<path d="M0.237 0.331 Q0.425 0.616 1.023 0.586" stroke="hsl(0.0,100%,35%)" stroke-width="0.00181"></path>
<path d="M0.237 0.331 Q0.253 0.532 0.650 0.568" stroke="hsl(0.0,100%,35%)" stroke-width="0.00363"></path>
<path d="M0.237 0.331 Q0.062 0.502 0.358 0.625" stroke="hsl(0.0,100%,35%)" stroke-width="0.00544"></path>
<path d="M0.237 0.331 Q0.904 0.406 1.198 0.097" stroke="hsl(0.0,100%,35%)" stroke-width="0.00181"></path>
<path d="M0.328 0.147 Q0.098 0.586 0.905 0.794" stroke="hsl(0.0,100%,35%)" stroke-width="0.00544"></path>
<path d="M0.328 0.147 Q0.324 0.505 1.023 0.586" stroke="hsl(0.0,100%,35%)" stroke-width="0.01089"></path>
<path d="M0.328 0.147 Q0.135 0.220 0.237 0.331" stroke="hsl(0.0,100%,35%)" stroke-width="0.01089"></path>
<path d="M0.328 0.147 Q0.492 0.347 0.919 0.311" stroke="hsl(0.0,100%,35%)" stroke-width="0.00726"></path>
<path d="M0.358 0.625 Q0.549 0.655 0.650 0.568" stroke="hsl(0.0,100%,35%)" stroke-width="0.00726"></path>
<path d="M0.358 0.625 Q0.889 0.580 0.919 0.311" stroke="hsl(0.0,100%,35%)" stroke-width="0.02178"></path>
<path d="M0.358 0.625 Q0.490 0.551 0.376 0.471" stroke="hsl(0.0,100%,35%)" stroke-width="0.00181"></path>
<path d="M0.358 0.625 Q0.532 0.453 0.237 0.331" stroke="hsl(0.0,100%,35%)" stroke-width="0.00907"></path>
<path d="M0.358 0.625 Q1.200 0.529 1.198 0.097" stroke="hsl(0.0,100%,35%)" stroke-width="0.00181"></path>
<path d="M0.905 0.794 Q1.298 0.555 0.919 0.311" stroke="hsl(0.0,100%,35%)" stroke-width="0.02903"></path>
<path d="M0.905 0.794 Q1.130 0.714 1.023 0.586" stroke="hsl(0.0,100%,35%)" stroke-width="0.02540"></path>
<path d="M0.905 0.794 Q1.135 0.355 0.328 0.147" stroke="hsl(0.0,100%,35%)" stroke-width="0.00363"></path>
<path d="M0.905 0.794 Q0.941 0.429 0.237 0.331" stroke="hsl(0.0,100%,35%)" stroke-width="0.00544"></path>
<path d="M0.905 0.794 Q1.051 0.858 1.208 0.801" stroke="hsl(0.0,100%,35%)" stroke-width="0.00181"></path>
<path d="M0.905 0.794 Q0.595 0.683 0.310 0.809" stroke="hsl(0.0,100%,35%)" stroke-width="0.00181"></path>
<path d="M0.760 0.418 Q0.925 0.396 0.919 0.311" stroke="hsl(0.0,100%,35%)" stroke-width="0.05988"></path>
<path d="M0.760 0.418 Q0.813 0.720 1.413 0.760" stroke="hsl(0.0,100%,35%)" stroke-width="0.01452"></path>
<path d="M0.760 0.418 Q0.568 0.270 0.237 0.331" stroke="hsl(0.0,100%,35%)" stroke-width="0.00544"></path>
<path d="M0.760 0.418 Q0.612 0.400 0.543 0.468" stroke="hsl(0.0,100%,35%)" stroke-width="0.00181"></path>
<path d="M0.543 0.468 Q0.856 0.465 0.919 0.311" stroke="hsl(0.0,100%,35%)" stroke-width="0.00363"></path>
<path d="M0.543 0.468 Q0.828 0.655 1.255 0.557" stroke="hsl(0.0,100%,35%)" stroke-width="0.00363"></path>
<path d="M0.543 0.468 Q1.241 0.500 1.456 0.166" stroke="hsl(0.0,100%,35%)" stroke-width="0.00181"></path>
</g>
<text x="1.255" y="0.535" font-size="0.043837" fill="hsl(0.0,100%,20%)">abdolrashidi</text>
<text x="0.919" y="0.257" font-size="0.107379" fill="hsl(0.0,100%,20%)">syoussefi</text>
<text x="1.413" y="0.737" font-size="0.046209" fill="hsl(0.0,100%,20%)">cclao</text>
<text x="1.720" y="0.179" font-size="0.041330" fill="hsl(0.0,100%,20%)">cnorthrop</text>
<text x="1.198" y="0.069" font-size="0.055961" fill="hsl(0.0,100%,20%)">romanl</text>
<text x="1.582" y="0.041" font-size="0.016873" fill="hsl(0.0,100%,20%)">banisingh</text>
<text x="1.915" y="0.513" font-size="0.027981" fill="hsl(0.0,100%,20%)">ynovikov</text>
<text x="1.265" y="0.644" font-size="0.023862" fill="hsl(0.0,100%,20%)">chrisforbes</text>
<text x="1.234" y="0.346" font-size="0.008436" fill="hsl(0.0,100%,20%)">mark</text>
<text x="1.603" y="0.333" font-size="0.008436" fill="hsl(0.0,100%,20%)">mikes</text>
<text x="1.456" y="0.159" font-size="0.014612" fill="hsl(0.0,100%,20%)">lpy</text>
<text x="0.237" y="0.301" font-size="0.060249" fill="hsl(0.0,100%,20%)">geofflang</text>
<text x="0.457" y="0.333" font-size="0.008436" fill="hsl(0.0,100%,20%)">penghuang</text>
<text x="0.328" y="0.127" font-size="0.039571" fill="hsl(0.0,100%,20%)">lexa.knyazev</text>
<text x="1.023" y="0.566" font-size="0.040460" fill="hsl(0.0,100%,20%)">kbr</text>
<text x="0.650" y="0.557" font-size="0.020665" fill="hsl(0.0,100%,20%)">mpdenton</text>
<text x="0.358" y="0.603" font-size="0.043837" fill="hsl(0.0,100%,20%)">liza</text>
<text x="0.905" y="0.768" font-size="0.053357" fill="hsl(0.0,100%,20%)">kkinnunen</text>
<text x="1.208" y="0.796" font-size="0.008436" fill="hsl(0.0,100%,20%)">kpiddington</text>
<text x="0.310" y="0.803" font-size="0.011931" fill="hsl(0.0,100%,20%)">lehoangquyen</text>
<text x="0.376" y="0.466" font-size="0.008436" fill="hsl(0.0,100%,20%)">sokcevic</text>
<text x="0.760" y="0.389" font-size="0.057838" fill="hsl(0.0,100%,20%)">m.maiya</text>
<text x="0.543" y="0.449" font-size="0.038661" fill="hsl(0.0,100%,20%)">yuxinhu</text>
<text x="0.624" y="0.209" font-size="0.008436" fill="hsl(0.0,100%,20%)">zzyiwei</text>
<text x="0.736" y="0.037" font-size="0.008436" fill="hsl(0.0,100%,20%)">a.annestrand</text>
<text x="1.914" y="0.621" font-size="0.014612" fill="hsl(0.0,100%,20%)">bsheedy</text>
</svg>
