<svg width="4000" height="2000" viewBox="-0.025 -0.025 2.05 1.05" xmlns="http://www.w3.org/2000/svg">
  <style>
    path {
      fill: none;
      stroke-linecap: round;
      stroke-opacity: 0.4;
    }

    text {
      text-anchor: middle;
      alignment-baseline: hanging;
    }
  </style>
  <g opacity="0.4">
<path d="M0.420 0.305 Q1.222 0.569 1.914 0.236" stroke="hsl(0.0,100%,35%)" stroke-width="0.00449"></path>
<path d="M0.420 0.305 Q0.798 0.596 1.448 0.475" stroke="hsl(0.0,100%,35%)" stroke-width="0.00037"></path>
<path d="M0.420 0.305 Q0.453 0.212 0.279 0.176" stroke="hsl(0.0,100%,35%)" stroke-width="0.00150"></path>
<path d="M1.914 0.236 Q1.773 0.078 1.433 0.111" stroke="hsl(0.0,100%,35%)" stroke-width="0.02171"></path>
<path d="M1.914 0.236 Q1.748 0.243 1.726 0.325" stroke="hsl(0.0,100%,35%)" stroke-width="0.01797"></path>
<path d="M1.914 0.236 Q1.822 0.298 1.923 0.356" stroke="hsl(0.0,100%,35%)" stroke-width="0.02209"></path>
<path d="M1.914 0.236 Q1.384 0.186 1.170 0.433" stroke="hsl(0.0,100%,35%)" stroke-width="0.02134"></path>
<path d="M1.914 0.236 Q1.483 0.403 1.715 0.650" stroke="hsl(0.0,100%,35%)" stroke-width="0.01947"></path>
<path d="M1.914 0.236 Q1.490 0.263 1.448 0.475" stroke="hsl(0.0,100%,35%)" stroke-width="0.01872"></path>
<path d="M1.914 0.236 Q1.515 0.126 1.212 0.296" stroke="hsl(0.0,100%,35%)" stroke-width="0.00973"></path>
<path d="M1.914 0.236 Q1.826 0.141 1.620 0.163" stroke="hsl(0.0,100%,35%)" stroke-width="0.00936"></path>
<path d="M1.914 0.236 Q1.388 0.128 1.061 0.361" stroke="hsl(0.0,100%,35%)" stroke-width="0.00037"></path>
<path d="M1.914 0.236 Q1.730 0.186 1.592 0.264" stroke="hsl(0.0,100%,35%)" stroke-width="0.00112"></path>
<path d="M1.914 0.236 Q1.528 -0.002 0.978 0.133" stroke="hsl(0.0,100%,35%)" stroke-width="0.00262"></path>
<path d="M1.914 0.236 Q1.594 0.311 1.670 0.484" stroke="hsl(0.0,100%,35%)" stroke-width="0.00037"></path>
<path d="M1.914 0.236 Q1.310 0.096 0.904 0.360" stroke="hsl(0.0,100%,35%)" stroke-width="0.00075"></path>
<path d="M1.914 0.236 Q1.841 0.308 1.966 0.360" stroke="hsl(0.0,100%,35%)" stroke-width="0.00037"></path>
<path d="M1.914 0.236 Q1.334 0.558 1.835 0.911" stroke="hsl(0.0,100%,35%)" stroke-width="0.00150"></path>
<path d="M1.914 0.236 Q1.548 0.320 1.630 0.516" stroke="hsl(0.0,100%,35%)" stroke-width="0.00037"></path>
<path d="M1.914 0.236 Q1.675 0.134 1.423 0.228" stroke="hsl(0.0,100%,35%)" stroke-width="0.00037"></path>
<path d="M1.914 0.236 Q1.445 0.330 1.524 0.579" stroke="hsl(0.0,100%,35%)" stroke-width="0.00075"></path>
<path d="M1.914 0.236 Q1.704 0.291 1.765 0.405" stroke="hsl(0.0,100%,35%)" stroke-width="0.00037"></path>
<path d="M1.448 0.475 Q1.343 0.398 1.170 0.433" stroke="hsl(0.0,100%,35%)" stroke-width="0.01198"></path>
<path d="M1.448 0.475 Q1.872 0.449 1.914 0.236" stroke="hsl(0.0,100%,35%)" stroke-width="0.01422"></path>
<path d="M1.448 0.475 Q1.707 0.456 1.726 0.325" stroke="hsl(0.0,100%,35%)" stroke-width="0.00037"></path>
<path d="M1.448 0.475 Q1.732 0.290 1.433 0.111" stroke="hsl(0.0,100%,35%)" stroke-width="0.00299"></path>
<path d="M1.448 0.475 Q1.403 0.699 1.829 0.770" stroke="hsl(0.0,100%,35%)" stroke-width="0.00037"></path>
<path d="M1.448 0.475 Q1.682 0.592 1.962 0.504" stroke="hsl(0.0,100%,35%)" stroke-width="0.00037"></path>
<path d="M1.448 0.475 Q1.468 0.683 1.877 0.719" stroke="hsl(0.0,100%,35%)" stroke-width="0.00075"></path>
<path d="M1.448 0.475 Q1.474 0.338 1.212 0.296" stroke="hsl(0.0,100%,35%)" stroke-width="0.00112"></path>
<path d="M1.448 0.475 Q1.780 0.511 1.923 0.356" stroke="hsl(0.0,100%,35%)" stroke-width="0.00112"></path>
<path d="M1.448 0.475 Q1.268 0.309 0.904 0.360" stroke="hsl(0.0,100%,35%)" stroke-width="0.00150"></path>
<path d="M1.448 0.475 Q1.403 0.542 1.524 0.579" stroke="hsl(0.0,100%,35%)" stroke-width="0.00037"></path>
<path d="M1.448 0.475 Q1.487 0.210 0.978 0.133" stroke="hsl(0.0,100%,35%)" stroke-width="0.00075"></path>
<path d="M1.448 0.475 Q1.442 0.616 1.715 0.650" stroke="hsl(0.0,100%,35%)" stroke-width="0.00786"></path>
<path d="M1.448 0.475 Q1.293 0.770 1.835 0.911" stroke="hsl(0.0,100%,35%)" stroke-width="0.00075"></path>
<path d="M1.448 0.475 Q1.630 0.348 1.422 0.232" stroke="hsl(0.0,100%,35%)" stroke-width="0.00112"></path>
<path d="M1.448 0.475 Q1.689 0.398 1.592 0.264" stroke="hsl(0.0,100%,35%)" stroke-width="0.00037"></path>
<path d="M1.448 0.475 Q1.784 0.353 1.620 0.163" stroke="hsl(0.0,100%,35%)" stroke-width="0.00037"></path>
<path d="M1.448 0.475 Q1.647 0.479 1.698 0.383" stroke="hsl(0.0,100%,35%)" stroke-width="0.00037"></path>
<path d="M1.448 0.475 Q1.285 0.565 1.425 0.664" stroke="hsl(0.0,100%,35%)" stroke-width="0.00037"></path>
<path d="M1.936 0.583 Q1.772 0.572 1.715 0.650" stroke="hsl(0.0,100%,35%)" stroke-width="0.00075"></path>
<path d="M1.936 0.583 Q2.011 0.549 1.962 0.504" stroke="hsl(0.0,100%,35%)" stroke-width="0.00075"></path>
<path d="M1.936 0.583 Q1.778 0.432 1.448 0.475" stroke="hsl(0.0,100%,35%)" stroke-width="0.00037"></path>
<path d="M1.715 0.650 Q2.145 0.483 1.914 0.236" stroke="hsl(0.0,100%,35%)" stroke-width="0.04529"></path>
<path d="M1.715 0.650 Q2.005 0.324 1.433 0.111" stroke="hsl(0.0,100%,35%)" stroke-width="0.01385"></path>
<path d="M1.715 0.650 Q1.616 0.432 1.170 0.433" stroke="hsl(0.0,100%,35%)" stroke-width="0.00898"></path>
<path d="M1.715 0.650 Q2.057 0.387 1.620 0.163" stroke="hsl(0.0,100%,35%)" stroke-width="0.00711"></path>
<path d="M1.715 0.650 Q1.747 0.372 1.212 0.296" stroke="hsl(0.0,100%,35%)" stroke-width="0.00299"></path>
<path d="M1.715 0.650 Q1.760 0.244 0.978 0.133" stroke="hsl(0.0,100%,35%)" stroke-width="0.00337"></path>
<path d="M1.715 0.650 Q1.980 0.490 1.726 0.325" stroke="hsl(0.0,100%,35%)" stroke-width="0.00674"></path>
<path d="M1.715 0.650 Q1.942 0.552 1.802 0.420" stroke="hsl(0.0,100%,35%)" stroke-width="0.00150"></path>
<path d="M1.715 0.650 Q2.054 0.545 1.923 0.356" stroke="hsl(0.0,100%,35%)" stroke-width="0.00973"></path>
<path d="M1.715 0.650 Q1.920 0.513 1.698 0.383" stroke="hsl(0.0,100%,35%)" stroke-width="0.00187"></path>
<path d="M1.715 0.650 Q2.255 0.401 1.887 0.083" stroke="hsl(0.0,100%,35%)" stroke-width="0.00037"></path>
<path d="M1.715 0.650 Q1.722 0.509 1.448 0.475" stroke="hsl(0.0,100%,35%)" stroke-width="0.00898"></path>
<path d="M1.715 0.650 Q1.962 0.432 1.592 0.264" stroke="hsl(0.0,100%,35%)" stroke-width="0.00075"></path>
<path d="M1.715 0.650 Q1.676 0.576 1.524 0.579" stroke="hsl(0.0,100%,35%)" stroke-width="0.00037"></path>
<path d="M1.715 0.650 Q1.536 0.527 1.256 0.587" stroke="hsl(0.0,100%,35%)" stroke-width="0.00037"></path>
<path d="M1.715 0.650 Q1.762 0.186 0.867 0.062" stroke="hsl(0.0,100%,35%)" stroke-width="0.00037"></path>
<path d="M1.715 0.650 Q1.576 0.476 1.207 0.506" stroke="hsl(0.0,100%,35%)" stroke-width="0.00075"></path>
<path d="M1.715 0.650 Q2.227 0.367 1.786 0.055" stroke="hsl(0.0,100%,35%)" stroke-width="0.00037"></path>
<path d="M1.715 0.650 Q1.471 0.596 1.312 0.703" stroke="hsl(0.0,100%,35%)" stroke-width="0.00037"></path>
<path d="M1.887 0.083 Q1.778 0.165 1.914 0.236" stroke="hsl(0.0,100%,35%)" stroke-width="0.00412"></path>
<path d="M1.887 0.083 Q1.253 0.057 1.061 0.361" stroke="hsl(0.0,100%,35%)" stroke-width="0.00037"></path>
<path d="M1.887 0.083 Q1.690 0.070 1.620 0.163" stroke="hsl(0.0,100%,35%)" stroke-width="0.00075"></path>
<path d="M1.887 0.083 Q1.613 0.172 1.726 0.325" stroke="hsl(0.0,100%,35%)" stroke-width="0.00075"></path>
<path d="M1.887 0.083 Q1.348 0.332 1.715 0.650" stroke="hsl(0.0,100%,35%)" stroke-width="0.00187"></path>
<path d="M1.887 0.083 Q1.575 0.235 1.802 0.420" stroke="hsl(0.0,100%,35%)" stroke-width="0.00037"></path>
<path d="M1.061 0.361 Q1.587 0.469 1.914 0.236" stroke="hsl(0.0,100%,35%)" stroke-width="0.00112"></path>
<path d="M1.061 0.361 Q1.499 0.373 1.620 0.163" stroke="hsl(0.0,100%,35%)" stroke-width="0.00075"></path>
<path d="M1.061 0.361 Q1.447 0.310 1.433 0.111" stroke="hsl(0.0,100%,35%)" stroke-width="0.00037"></path>
<path d="M1.620 0.163 Q1.183 0.150 1.061 0.361" stroke="hsl(0.0,100%,35%)" stroke-width="0.00037"></path>
<path d="M1.620 0.163 Q1.708 0.258 1.914 0.236" stroke="hsl(0.0,100%,35%)" stroke-width="0.01572"></path>
<path d="M1.620 0.163 Q1.568 0.100 1.433 0.111" stroke="hsl(0.0,100%,35%)" stroke-width="0.00262"></path>
<path d="M1.620 0.163 Q1.179 0.208 1.170 0.433" stroke="hsl(0.0,100%,35%)" stroke-width="0.00112"></path>
<path d="M1.620 0.163 Q1.310 0.148 1.212 0.296" stroke="hsl(0.0,100%,35%)" stroke-width="0.00524"></path>
<path d="M1.620 0.163 Q1.278 0.425 1.715 0.650" stroke="hsl(0.0,100%,35%)" stroke-width="0.00524"></path>
<path d="M1.620 0.163 Q1.543 0.265 1.726 0.325" stroke="hsl(0.0,100%,35%)" stroke-width="0.00037"></path>
<path d="M1.620 0.163 Q1.284 0.285 1.448 0.475" stroke="hsl(0.0,100%,35%)" stroke-width="0.00075"></path>
<path d="M1.620 0.163 Q1.239 0.352 1.524 0.579" stroke="hsl(0.0,100%,35%)" stroke-width="0.00037"></path>
<path d="M1.620 0.163 Q1.129 0.580 1.835 0.911" stroke="hsl(0.0,100%,35%)" stroke-width="0.00037"></path>
<path d="M1.620 0.163 Q1.616 0.320 1.923 0.356" stroke="hsl(0.0,100%,35%)" stroke-width="0.00112"></path>
<path d="M1.620 0.163 Q1.133 0.509 1.701 0.822" stroke="hsl(0.0,100%,35%)" stroke-width="0.00037"></path>
<path d="M1.726 0.325 Q1.891 0.318 1.914 0.236" stroke="hsl(0.0,100%,35%)" stroke-width="0.01348"></path>
<path d="M1.726 0.325 Q1.493 0.208 1.212 0.296" stroke="hsl(0.0,100%,35%)" stroke-width="0.00524"></path>
<path d="M1.726 0.325 Q1.751 0.160 1.433 0.111" stroke="hsl(0.0,100%,35%)" stroke-width="0.00225"></path>
<path d="M1.726 0.325 Q1.799 0.380 1.923 0.356" stroke="hsl(0.0,100%,35%)" stroke-width="0.00112"></path>
<path d="M1.726 0.325 Q1.461 0.486 1.715 0.650" stroke="hsl(0.0,100%,35%)" stroke-width="0.00150"></path>
<path d="M1.726 0.325 Q1.506 0.080 0.978 0.133" stroke="hsl(0.0,100%,35%)" stroke-width="0.00075"></path>
<path d="M1.726 0.325 Q1.803 0.223 1.620 0.163" stroke="hsl(0.0,100%,35%)" stroke-width="0.00037"></path>
<path d="M1.726 0.325 Q1.362 0.268 1.170 0.433" stroke="hsl(0.0,100%,35%)" stroke-width="0.00037"></path>
<path d="M1.726 0.325 Q1.652 0.216 1.423 0.228" stroke="hsl(0.0,100%,35%)" stroke-width="0.00075"></path>
<path d="M1.726 0.325 Q1.467 0.345 1.448 0.475" stroke="hsl(0.0,100%,35%)" stroke-width="0.00075"></path>
<path d="M1.802 0.420 Q2.005 0.351 1.914 0.236" stroke="hsl(0.0,100%,35%)" stroke-width="0.00674"></path>
<path d="M1.802 0.420 Q1.575 0.518 1.715 0.650" stroke="hsl(0.0,100%,35%)" stroke-width="0.00337"></path>
<path d="M1.802 0.420 Q1.607 0.240 1.212 0.296" stroke="hsl(0.0,100%,35%)" stroke-width="0.00037"></path>
<path d="M1.802 0.420 Q1.840 0.358 1.726 0.325" stroke="hsl(0.0,100%,35%)" stroke-width="0.00037"></path>
<path d="M1.802 0.420 Q1.917 0.255 1.620 0.163" stroke="hsl(0.0,100%,35%)" stroke-width="0.00037"></path>
<path d="M1.802 0.420 Q1.581 0.377 1.448 0.475" stroke="hsl(0.0,100%,35%)" stroke-width="0.00225"></path>
<path d="M1.590 0.283 Q1.789 0.324 1.914 0.236" stroke="hsl(0.0,100%,35%)" stroke-width="0.00075"></path>
<path d="M1.590 0.283 Q1.697 0.386 1.923 0.356" stroke="hsl(0.0,100%,35%)" stroke-width="0.00037"></path>
<path d="M1.590 0.283 Q1.260 0.274 1.170 0.433" stroke="hsl(0.0,100%,35%)" stroke-width="0.00037"></path>
<path d="M1.923 0.356 Q2.014 0.294 1.914 0.236" stroke="hsl(0.0,100%,35%)" stroke-width="0.00898"></path>
<path d="M1.923 0.356 Q1.616 0.184 1.212 0.296" stroke="hsl(0.0,100%,35%)" stroke-width="0.00037"></path>
<path d="M1.923 0.356 Q1.584 0.462 1.715 0.650" stroke="hsl(0.0,100%,35%)" stroke-width="0.00150"></path>
<path d="M1.923 0.356 Q1.591 0.321 1.448 0.475" stroke="hsl(0.0,100%,35%)" stroke-width="0.00187"></path>
<path d="M1.923 0.356 Q1.926 0.199 1.620 0.163" stroke="hsl(0.0,100%,35%)" stroke-width="0.00037"></path>
<path d="M1.170 0.433 Q1.699 0.483 1.914 0.236" stroke="hsl(0.0,100%,35%)" stroke-width="0.01535"></path>
<path d="M1.170 0.433 Q1.275 0.510 1.448 0.475" stroke="hsl(0.0,100%,35%)" stroke-width="0.01497"></path>
<path d="M1.170 0.433 Q1.269 0.650 1.715 0.650" stroke="hsl(0.0,100%,35%)" stroke-width="0.00524"></path>
<path d="M1.170 0.433 Q1.095 0.343 0.904 0.360" stroke="hsl(0.0,100%,35%)" stroke-width="0.00075"></path>
<path d="M1.170 0.433 Q1.120 0.805 1.835 0.911" stroke="hsl(0.0,100%,35%)" stroke-width="0.00037"></path>
<path d="M1.170 0.433 Q1.607 0.545 1.923 0.356" stroke="hsl(0.0,100%,35%)" stroke-width="0.00187"></path>
<path d="M1.170 0.433 Q1.112 0.600 1.425 0.664" stroke="hsl(0.0,100%,35%)" stroke-width="0.00037"></path>
<path d="M1.433 0.111 Q1.408 0.277 1.726 0.325" stroke="hsl(0.0,100%,35%)" stroke-width="0.00262"></path>
<path d="M1.433 0.111 Q1.175 0.159 1.212 0.296" stroke="hsl(0.0,100%,35%)" stroke-width="0.00749"></path>
<path d="M1.433 0.111 Q1.573 0.270 1.914 0.236" stroke="hsl(0.0,100%,35%)" stroke-width="0.01460"></path>
<path d="M1.433 0.111 Q1.143 0.437 1.715 0.650" stroke="hsl(0.0,100%,35%)" stroke-width="0.00561"></path>
<path d="M1.433 0.111 Q1.485 0.174 1.620 0.163" stroke="hsl(0.0,100%,35%)" stroke-width="0.00187"></path>
<path d="M1.433 0.111 Q1.150 0.296 1.448 0.475" stroke="hsl(0.0,100%,35%)" stroke-width="0.00487"></path>
<path d="M1.433 0.111 Q1.482 0.332 1.923 0.356" stroke="hsl(0.0,100%,35%)" stroke-width="0.00187"></path>
<path d="M1.422 0.232 Q1.234 0.500 1.715 0.650" stroke="hsl(0.0,100%,35%)" stroke-width="0.00150"></path>
<path d="M1.422 0.232 Q1.241 0.359 1.448 0.475" stroke="hsl(0.0,100%,35%)" stroke-width="0.00749"></path>
<path d="M1.422 0.232 Q1.665 0.332 1.914 0.236" stroke="hsl(0.0,100%,35%)" stroke-width="0.00674"></path>
<path d="M1.422 0.232 Q1.136 0.282 1.170 0.433" stroke="hsl(0.0,100%,35%)" stroke-width="0.00112"></path>
<path d="M1.212 0.296 Q1.180 0.573 1.715 0.650" stroke="hsl(0.0,100%,35%)" stroke-width="0.00337"></path>
<path d="M1.212 0.296 Q1.225 0.168 0.978 0.133" stroke="hsl(0.0,100%,35%)" stroke-width="0.00150"></path>
<path d="M1.212 0.296 Q1.187 0.433 1.448 0.475" stroke="hsl(0.0,100%,35%)" stroke-width="0.00487"></path>
<path d="M1.212 0.296 Q1.445 0.413 1.726 0.325" stroke="hsl(0.0,100%,35%)" stroke-width="0.00150"></path>
<path d="M1.212 0.296 Q1.470 0.248 1.433 0.111" stroke="hsl(0.0,100%,35%)" stroke-width="0.00112"></path>
<path d="M1.212 0.296 Q1.523 0.311 1.620 0.163" stroke="hsl(0.0,100%,35%)" stroke-width="0.00374"></path>
<path d="M1.212 0.296 Q1.611 0.406 1.914 0.236" stroke="hsl(0.0,100%,35%)" stroke-width="0.00786"></path>
<path d="M1.212 0.296 Q1.206 0.640 1.877 0.719" stroke="hsl(0.0,100%,35%)" stroke-width="0.00037"></path>
<path d="M0.978 0.133 Q1.364 0.372 1.914 0.236" stroke="hsl(0.0,100%,35%)" stroke-width="0.00711"></path>
<path d="M0.978 0.133 Q0.933 0.539 1.715 0.650" stroke="hsl(0.0,100%,35%)" stroke-width="0.00374"></path>
<path d="M0.978 0.133 Q0.965 0.261 1.212 0.296" stroke="hsl(0.0,100%,35%)" stroke-width="0.00561"></path>
<path d="M0.978 0.133 Q1.198 0.379 1.726 0.325" stroke="hsl(0.0,100%,35%)" stroke-width="0.00337"></path>
<path d="M0.978 0.133 Q1.276 0.276 1.620 0.163" stroke="hsl(0.0,100%,35%)" stroke-width="0.00075"></path>
<path d="M0.978 0.133 Q0.940 0.398 1.448 0.475" stroke="hsl(0.0,100%,35%)" stroke-width="0.00187"></path>
<path d="M0.978 0.133 Q1.161 0.442 1.802 0.420" stroke="hsl(0.0,100%,35%)" stroke-width="0.00037"></path>
<path d="M0.978 0.133 Q1.272 0.434 1.923 0.356" stroke="hsl(0.0,100%,35%)" stroke-width="0.00075"></path>
<path d="M1.877 0.719 Q1.703 0.806 1.835 0.911" stroke="hsl(0.0,100%,35%)" stroke-width="0.00262"></path>
<path d="M1.877 0.719 Q1.858 0.511 1.448 0.475" stroke="hsl(0.0,100%,35%)" stroke-width="0.00374"></path>
<path d="M1.877 0.719 Q1.753 0.434 1.170 0.433" stroke="hsl(0.0,100%,35%)" stroke-width="0.00075"></path>
<path d="M1.877 0.719 Q2.282 0.485 1.914 0.236" stroke="hsl(0.0,100%,35%)" stroke-width="0.00487"></path>
<path d="M1.877 0.719 Q1.852 0.652 1.715 0.650" stroke="hsl(0.0,100%,35%)" stroke-width="0.00075"></path>
<path d="M0.904 0.360 Q0.979 0.450 1.170 0.433" stroke="hsl(0.0,100%,35%)" stroke-width="0.00037"></path>
<path d="M0.904 0.360 Q1.085 0.526 1.448 0.475" stroke="hsl(0.0,100%,35%)" stroke-width="0.00075"></path>
<path d="M0.904 0.360 Q1.508 0.500 1.914 0.236" stroke="hsl(0.0,100%,35%)" stroke-width="0.00075"></path>
<path d="M0.691 0.107 Q1.200 0.416 1.914 0.236" stroke="hsl(0.0,100%,35%)" stroke-width="0.00037"></path>
<path d="M0.691 0.107 Q0.814 0.178 0.978 0.133" stroke="hsl(0.0,100%,35%)" stroke-width="0.00037"></path>
<path d="M0.691 0.107 Q0.776 0.443 1.448 0.475" stroke="hsl(0.0,100%,35%)" stroke-width="0.00037"></path>
<path d="M1.765 0.405 Q1.544 0.518 1.715 0.650" stroke="hsl(0.0,100%,35%)" stroke-width="0.00412"></path>
<path d="M1.765 0.405 Q1.576 0.240 1.212 0.296" stroke="hsl(0.0,100%,35%)" stroke-width="0.00262"></path>
<path d="M1.765 0.405 Q1.975 0.351 1.914 0.236" stroke="hsl(0.0,100%,35%)" stroke-width="0.00636"></path>
<path d="M1.765 0.405 Q1.834 0.192 1.433 0.111" stroke="hsl(0.0,100%,35%)" stroke-width="0.00037"></path>
<path d="M1.765 0.405 Q1.551 0.377 1.448 0.475" stroke="hsl(0.0,100%,35%)" stroke-width="0.00037"></path>
<path d="M1.460 0.584 Q1.965 0.501 1.914 0.236" stroke="hsl(0.0,100%,35%)" stroke-width="0.00075"></path>
<path d="M1.460 0.584 Q1.580 0.263 0.978 0.133" stroke="hsl(0.0,100%,35%)" stroke-width="0.00037"></path>
<path d="M1.460 0.584 Q1.535 0.668 1.715 0.650" stroke="hsl(0.0,100%,35%)" stroke-width="0.00150"></path>
<path d="M1.966 0.360 Q2.039 0.287 1.914 0.236" stroke="hsl(0.0,100%,35%)" stroke-width="0.00374"></path>
<path d="M1.966 0.360 Q1.513 0.179 1.061 0.361" stroke="hsl(0.0,100%,35%)" stroke-width="0.00037"></path>
<path d="M1.966 0.360 Q1.615 0.314 1.448 0.475" stroke="hsl(0.0,100%,35%)" stroke-width="0.00037"></path>
<path d="M1.966 0.360 Q1.608 0.455 1.715 0.650" stroke="hsl(0.0,100%,35%)" stroke-width="0.00075"></path>
<path d="M1.829 0.770 Q2.298 0.520 1.914 0.236" stroke="hsl(0.0,100%,35%)" stroke-width="0.00037"></path>
<path d="M1.829 0.770 Q1.719 0.842 1.835 0.911" stroke="hsl(0.0,100%,35%)" stroke-width="0.00037"></path>
<path d="M1.524 0.579 Q1.993 0.485 1.914 0.236" stroke="hsl(0.0,100%,35%)" stroke-width="0.00225"></path>
<path d="M1.524 0.579 Q1.569 0.512 1.448 0.475" stroke="hsl(0.0,100%,35%)" stroke-width="0.00150"></path>
<path d="M1.524 0.579 Q1.905 0.390 1.620 0.163" stroke="hsl(0.0,100%,35%)" stroke-width="0.00037"></path>
<path d="M1.835 0.911 Q1.990 0.616 1.448 0.475" stroke="hsl(0.0,100%,35%)" stroke-width="0.00150"></path>
<path d="M1.835 0.911 Q1.984 0.757 1.715 0.650" stroke="hsl(0.0,100%,35%)" stroke-width="0.00112"></path>
<path d="M1.835 0.911 Q1.885 0.539 1.170 0.433" stroke="hsl(0.0,100%,35%)" stroke-width="0.00075"></path>
<path d="M1.835 0.911 Q2.414 0.589 1.914 0.236" stroke="hsl(0.0,100%,35%)" stroke-width="0.00150"></path>
<path d="M1.835 0.911 Q2.009 0.824 1.877 0.719" stroke="hsl(0.0,100%,35%)" stroke-width="0.00075"></path>
<path d="M1.835 0.911 Q1.839 0.840 1.701 0.822" stroke="hsl(0.0,100%,35%)" stroke-width="0.00037"></path>
<path d="M1.592 0.264 Q1.345 0.482 1.715 0.650" stroke="hsl(0.0,100%,35%)" stroke-width="0.00299"></path>
<path d="M1.592 0.264 Q1.775 0.314 1.914 0.236" stroke="hsl(0.0,100%,35%)" stroke-width="0.01348"></path>
<path d="M1.592 0.264 Q1.351 0.341 1.448 0.475" stroke="hsl(0.0,100%,35%)" stroke-width="0.00337"></path>
<path d="M1.592 0.264 Q1.610 0.321 1.726 0.325" stroke="hsl(0.0,100%,35%)" stroke-width="0.00037"></path>
<path d="M1.698 0.383 Q1.923 0.353 1.914 0.236" stroke="hsl(0.0,100%,35%)" stroke-width="0.00299"></path>
<path d="M1.698 0.383 Q1.500 0.379 1.448 0.475" stroke="hsl(0.0,100%,35%)" stroke-width="0.00187"></path>
<path d="M1.698 0.383 Q1.319 0.213 0.904 0.360" stroke="hsl(0.0,100%,35%)" stroke-width="0.00037"></path>
<path d="M1.425 0.664 Q1.607 0.782 1.877 0.719" stroke="hsl(0.0,100%,35%)" stroke-width="0.00037"></path>
<path d="M1.425 0.664 Q1.588 0.574 1.448 0.475" stroke="hsl(0.0,100%,35%)" stroke-width="0.00374"></path>
<path d="M1.425 0.664 Q1.433 0.870 1.835 0.911" stroke="hsl(0.0,100%,35%)" stroke-width="0.00112"></path>
<path d="M1.425 0.664 Q2.012 0.548 1.914 0.236" stroke="hsl(0.0,100%,35%)" stroke-width="0.00299"></path>
<path d="M1.425 0.664 Q1.483 0.498 1.170 0.433" stroke="hsl(0.0,100%,35%)" stroke-width="0.00037"></path>
<path d="M1.786 0.055 Q1.502 0.241 1.802 0.420" stroke="hsl(0.0,100%,35%)" stroke-width="0.00075"></path>
<path d="M1.786 0.055 Q1.275 0.338 1.715 0.650" stroke="hsl(0.0,100%,35%)" stroke-width="0.00075"></path>
<path d="M1.786 0.055 Q1.705 0.171 1.914 0.236" stroke="hsl(0.0,100%,35%)" stroke-width="0.00150"></path>
<path d="M1.786 0.055 Q1.540 0.178 1.726 0.325" stroke="hsl(0.0,100%,35%)" stroke-width="0.00037"></path>
<path d="M1.786 0.055 Q1.281 0.197 1.448 0.475" stroke="hsl(0.0,100%,35%)" stroke-width="0.00075"></path>
<path d="M1.657 0.374 Q1.896 0.357 1.914 0.236" stroke="hsl(0.0,100%,35%)" stroke-width="0.00187"></path>
<path d="M1.657 0.374 Q1.498 0.246 1.212 0.296" stroke="hsl(0.0,100%,35%)" stroke-width="0.00037"></path>
<path d="M1.657 0.374 Q1.693 0.426 1.802 0.420" stroke="hsl(0.0,100%,35%)" stroke-width="0.00075"></path>
<path d="M1.657 0.374 Q1.472 0.383 1.448 0.475" stroke="hsl(0.0,100%,35%)" stroke-width="0.00075"></path>
<path d="M1.611 0.360 Q1.332 0.308 1.170 0.433" stroke="hsl(0.0,100%,35%)" stroke-width="0.00037"></path>
<path d="M1.611 0.360 Q1.438 0.385 1.448 0.475" stroke="hsl(0.0,100%,35%)" stroke-width="0.00187"></path>
<path d="M1.611 0.360 Q1.861 0.359 1.914 0.236" stroke="hsl(0.0,100%,35%)" stroke-width="0.00262"></path>
<path d="M1.611 0.360 Q1.431 0.526 1.715 0.650" stroke="hsl(0.0,100%,35%)" stroke-width="0.00037"></path>
<path d="M1.611 0.360 Q1.282 0.680 1.835 0.911" stroke="hsl(0.0,100%,35%)" stroke-width="0.00075"></path>
<path d="M1.611 0.360 Q1.770 0.421 1.923 0.356" stroke="hsl(0.0,100%,35%)" stroke-width="0.00037"></path>
<path d="M1.673 0.366 Q1.897 0.349 1.914 0.236" stroke="hsl(0.0,100%,35%)" stroke-width="0.00150"></path>
<path d="M1.673 0.366 Q1.473 0.376 1.448 0.475" stroke="hsl(0.0,100%,35%)" stroke-width="0.00037"></path>
<path d="M1.203 0.643 Q1.460 0.608 1.448 0.475" stroke="hsl(0.0,100%,35%)" stroke-width="0.00075"></path>
<path d="M1.203 0.643 Q1.884 0.582 1.914 0.236" stroke="hsl(0.0,100%,35%)" stroke-width="0.00037"></path>
<path d="M1.203 0.643 Q1.453 0.749 1.715 0.650" stroke="hsl(0.0,100%,35%)" stroke-width="0.00037"></path>
<path d="M1.203 0.643 Q1.304 0.903 1.835 0.911" stroke="hsl(0.0,100%,35%)" stroke-width="0.00037"></path>
<path d="M1.203 0.643 Q1.414 0.832 1.829 0.770" stroke="hsl(0.0,100%,35%)" stroke-width="0.00037"></path>
<path d="M1.803 0.395 Q1.985 0.337 1.914 0.236" stroke="hsl(0.0,100%,35%)" stroke-width="0.00636"></path>
<path d="M1.803 0.395 Q1.561 0.364 1.448 0.475" stroke="hsl(0.0,100%,35%)" stroke-width="0.00187"></path>
<path d="M1.803 0.395 Q1.456 0.287 1.170 0.433" stroke="hsl(0.0,100%,35%)" stroke-width="0.00299"></path>
<path d="M0.944 0.325 Q1.500 0.474 1.914 0.236" stroke="hsl(0.0,100%,35%)" stroke-width="0.00299"></path>
<path d="M0.944 0.325 Q1.076 0.501 1.448 0.475" stroke="hsl(0.0,100%,35%)" stroke-width="0.00112"></path>
<path d="M0.944 0.325 Q0.971 0.424 1.170 0.433" stroke="hsl(0.0,100%,35%)" stroke-width="0.00187"></path>
<path d="M0.944 0.325 Q0.921 0.796 1.835 0.911" stroke="hsl(0.0,100%,35%)" stroke-width="0.00037"></path>
<path d="M1.892 0.072 Q1.683 0.063 1.620 0.163" stroke="hsl(0.0,100%,35%)" stroke-width="0.00337"></path>
<path d="M1.892 0.072 Q1.771 0.158 1.914 0.236" stroke="hsl(0.0,100%,35%)" stroke-width="0.00898"></path>
<path d="M1.892 0.072 Q1.348 0.185 1.448 0.475" stroke="hsl(0.0,100%,35%)" stroke-width="0.00037"></path>
<path d="M1.892 0.072 Q1.341 0.326 1.715 0.650" stroke="hsl(0.0,100%,35%)" stroke-width="0.00037"></path>
<path d="M1.892 0.072 Q1.631 -0.000 1.433 0.111" stroke="hsl(0.0,100%,35%)" stroke-width="0.00075"></path>
<path d="M1.892 0.072 Q1.386 -0.080 0.978 0.133" stroke="hsl(0.0,100%,35%)" stroke-width="0.00037"></path>
<path d="M1.951 0.520 Q1.735 0.397 1.448 0.475" stroke="hsl(0.0,100%,35%)" stroke-width="0.00225"></path>
<path d="M1.951 0.520 Q1.968 0.514 1.962 0.504" stroke="hsl(0.0,100%,35%)" stroke-width="0.00112"></path>
<path d="M1.951 0.520 Q2.159 0.370 1.914 0.236" stroke="hsl(0.0,100%,35%)" stroke-width="0.00150"></path>
<path d="M1.144 0.559 Q1.357 0.719 1.715 0.650" stroke="hsl(0.0,100%,35%)" stroke-width="0.00075"></path>
<path d="M1.144 0.559 Q1.363 0.578 1.448 0.475" stroke="hsl(0.0,100%,35%)" stroke-width="0.00037"></path>
<path d="M1.144 0.559 Q1.787 0.552 1.914 0.236" stroke="hsl(0.0,100%,35%)" stroke-width="0.00037"></path>
<path d="M0.867 0.062 Q0.821 0.525 1.715 0.650" stroke="hsl(0.0,100%,35%)" stroke-width="0.00037"></path>
<path d="M0.867 0.062 Q1.251 0.358 1.914 0.236" stroke="hsl(0.0,100%,35%)" stroke-width="0.00187"></path>
<path d="M0.867 0.062 Q1.085 0.365 1.726 0.325" stroke="hsl(0.0,100%,35%)" stroke-width="0.00075"></path>
<path d="M0.867 0.062 Q0.865 0.120 0.978 0.133" stroke="hsl(0.0,100%,35%)" stroke-width="0.00150"></path>
<path d="M1.334 0.604 Q1.918 0.536 1.914 0.236" stroke="hsl(0.0,100%,35%)" stroke-width="0.00075"></path>
<path d="M1.334 0.604 Q1.488 0.703 1.715 0.650" stroke="hsl(0.0,100%,35%)" stroke-width="0.00112"></path>
<path d="M1.334 0.604 Q1.339 0.858 1.835 0.911" stroke="hsl(0.0,100%,35%)" stroke-width="0.00037"></path>
<path d="M1.334 0.604 Q1.693 0.567 1.698 0.383" stroke="hsl(0.0,100%,35%)" stroke-width="0.00075"></path>
<path d="M1.334 0.604 Q1.494 0.563 1.448 0.475" stroke="hsl(0.0,100%,35%)" stroke-width="0.00037"></path>
</g>
<text x="0.420" y="0.298" font-size="0.013416" fill="hsl(0.0,100%,20%)">aleino</text>
<text x="1.914" y="0.184" font-size="0.104631" fill="hsl(0.0,100%,20%)">jmadill</text>
<text x="1.448" y="0.443" font-size="0.063762" fill="hsl(0.0,100%,20%)">geofflang</text>
<text x="0.279" y="0.173" font-size="0.006508" fill="hsl(0.0,100%,20%)">kkinnunen</text>
<text x="1.936" y="0.579" font-size="0.007276" fill="hsl(0.0,100%,20%)">artyom</text>
<text x="1.715" y="0.613" font-size="0.073410" fill="hsl(0.0,100%,20%)">syoussefi</text>
<text x="1.962" y="0.500" font-size="0.007970" fill="hsl(0.0,100%,20%)">rafael.cintron</text>
<text x="1.887" y="0.076" font-size="0.015605" fill="hsl(0.0,100%,20%)">b.schade</text>
<text x="1.061" y="0.355" font-size="0.010290" fill="hsl(0.0,100%,20%)">cclao</text>
<text x="1.620" y="0.142" font-size="0.042300" fill="hsl(0.0,100%,20%)">tobine</text>
<text x="1.726" y="0.305" font-size="0.041923" fill="hsl(0.0,100%,20%)">cnorthrop</text>
<text x="1.802" y="0.409" font-size="0.022069" fill="hsl(0.0,100%,20%)">m.maiya</text>
<text x="1.590" y="0.279" font-size="0.006508" fill="hsl(0.0,100%,20%)">bsheedy</text>
<text x="1.923" y="0.337" font-size="0.038911" fill="hsl(0.0,100%,20%)">ynovikov</text>
<text x="1.170" y="0.407" font-size="0.050931" fill="hsl(0.0,100%,20%)">jonahr</text>
<text x="1.433" y="0.087" font-size="0.049024" fill="hsl(0.0,100%,20%)">timvp</text>
<text x="1.422" y="0.221" font-size="0.022543" fill="hsl(0.0,100%,20%)">clemendeng</text>
<text x="1.212" y="0.274" font-size="0.043045" fill="hsl(0.0,100%,20%)">courtneygo</text>
<text x="0.978" y="0.118" font-size="0.031547" fill="hsl(0.0,100%,20%)">ianelliott</text>
<text x="1.423" y="0.226" font-size="0.005636" fill="hsl(0.0,100%,20%)">lfy</text>
<text x="1.877" y="0.709" font-size="0.020579" fill="hsl(0.0,100%,20%)">jdarpinian</text>
<text x="0.904" y="0.354" font-size="0.012175" fill="hsl(0.0,100%,20%)">cwallez</text>
<text x="0.691" y="0.105" font-size="0.005636" fill="hsl(0.0,100%,20%)">davidben</text>
<text x="1.765" y="0.395" font-size="0.020058" fill="hsl(0.0,100%,20%)">dongja</text>
<text x="1.460" y="0.580" font-size="0.008609" fill="hsl(0.0,100%,20%)">ericbinet</text>
<text x="1.966" y="0.353" font-size="0.012602" fill="hsl(0.0,100%,20%)">flibitijibibo</text>
<text x="1.829" y="0.767" font-size="0.006508" fill="hsl(0.0,100%,20%)">zmo</text>
<text x="1.524" y="0.572" font-size="0.013015" fill="hsl(0.0,100%,20%)">sugoi</text>
<text x="1.835" y="0.901" font-size="0.020579" fill="hsl(0.0,100%,20%)">kbr</text>
<text x="1.592" y="0.252" font-size="0.025204" fill="hsl(0.0,100%,20%)">spang</text>
<text x="1.698" y="0.375" font-size="0.015262" fill="hsl(0.0,100%,20%)">jiajia.qin</text>
<text x="1.425" y="0.656" font-size="0.016269" fill="hsl(0.0,100%,20%)">shrekshao</text>
<text x="1.786" y="0.049" font-size="0.011272" fill="hsl(0.0,100%,20%)">hckim.kim</text>
<text x="1.657" y="0.369" font-size="0.010290" fill="hsl(0.0,100%,20%)">j.vigil</text>
<text x="1.611" y="0.353" font-size="0.013416" fill="hsl(0.0,100%,20%)">jgilbert</text>
<text x="1.673" y="0.363" font-size="0.007276" fill="hsl(0.0,100%,20%)">jie.a.chen</text>
<text x="1.670" y="0.482" font-size="0.003254" fill="hsl(0.0,100%,20%)">amaiorano</text>
<text x="1.630" y="0.515" font-size="0.003254" fill="hsl(0.0,100%,20%)">le.hoang.q</text>
<text x="1.701" y="0.820" font-size="0.004602" fill="hsl(0.0,100%,20%)">kainino</text>
<text x="1.203" y="0.639" font-size="0.007970" fill="hsl(0.0,100%,20%)">khushalsagar</text>
<text x="1.803" y="0.386" font-size="0.017822" fill="hsl(0.0,100%,20%)">lehoangq</text>
<text x="0.944" y="0.318" font-size="0.013416" fill="hsl(0.0,100%,20%)">lexa.knyazev</text>
<text x="1.892" y="0.062" font-size="0.020058" fill="hsl(0.0,100%,20%)">lujc</text>
<text x="1.951" y="0.514" font-size="0.011732" fill="hsl(0.0,100%,20%)">mihu</text>
<text x="1.144" y="0.556" font-size="0.006508" fill="hsl(0.0,100%,20%)">shaobo.yan</text>
<text x="1.256" y="0.586" font-size="0.003254" fill="hsl(0.0,100%,20%)">jaedon1.lee</text>
<text x="0.867" y="0.056" font-size="0.011732" fill="hsl(0.0,100%,20%)">xinyi.he</text>
<text x="1.207" y="0.504" font-size="0.004602" fill="hsl(0.0,100%,20%)">sunny.sun</text>
<text x="1.312" y="0.701" font-size="0.003254" fill="hsl(0.0,100%,20%)">fei.yang</text>
<text x="1.334" y="0.599" font-size="0.009762" fill="hsl(0.0,100%,20%)">xinghua.cao</text>
</svg>
