<svg width="4000" height="2000" viewBox="-0.025 -0.025 2.05 1.05" xmlns="http://www.w3.org/2000/svg">
  <style>
    path {
      fill: none;
      stroke-linecap: round;
      stroke-opacity: 0.4;
    }

    text {
      text-anchor: middle;
      alignment-baseline: hanging;
    }
  </style>
  <g opacity="0.4">
<path d="M0.149 0.697 Q0.096 0.828 0.340 0.882" stroke="hsl(0.0,100%,35%)" stroke-width="0.00024"></path>
<path d="M0.149 0.697 Q0.023 0.898 0.388 1.004" stroke="hsl(0.0,100%,35%)" stroke-width="0.00097"></path>
<path d="M0.149 0.697 Q0.959 0.577 0.904 0.156" stroke="hsl(0.0,100%,35%)" stroke-width="0.00024"></path>
<path d="M0.340 0.882 Q0.267 0.953 0.388 1.004" stroke="hsl(0.0,100%,35%)" stroke-width="0.05305"></path>
<path d="M0.340 0.882 Q0.399 1.013 0.667 1.014" stroke="hsl(0.0,100%,35%)" stroke-width="0.01138"></path>
<path d="M0.340 0.882 Q0.586 0.774 0.429 0.631" stroke="hsl(0.0,100%,35%)" stroke-width="0.02979"></path>
<path d="M0.340 0.882 Q0.204 0.853 0.118 0.913" stroke="hsl(0.0,100%,35%)" stroke-width="0.00073"></path>
<path d="M0.340 0.882 Q0.701 0.914 0.842 0.745" stroke="hsl(0.0,100%,35%)" stroke-width="0.00024"></path>
<path d="M0.340 0.882 Q0.705 0.839 0.701 0.652" stroke="hsl(0.0,100%,35%)" stroke-width="0.00339"></path>
<path d="M0.340 0.882 Q0.488 0.883 0.522 0.811" stroke="hsl(0.0,100%,35%)" stroke-width="0.00460"></path>
<path d="M0.340 0.882 Q0.653 0.686 0.337 0.490" stroke="hsl(0.0,100%,35%)" stroke-width="0.00024"></path>
<path d="M0.340 0.882 Q1.108 0.526 0.580 0.073" stroke="hsl(0.0,100%,35%)" stroke-width="0.00460"></path>
<path d="M0.340 0.882 Q0.571 0.881 0.618 0.767" stroke="hsl(0.0,100%,35%)" stroke-width="0.00315"></path>
<path d="M0.340 0.882 Q0.515 0.957 0.699 0.888" stroke="hsl(0.0,100%,35%)" stroke-width="0.00024"></path>
<path d="M0.340 0.882 Q0.689 0.805 0.614 0.617" stroke="hsl(0.0,100%,35%)" stroke-width="0.00048"></path>
<path d="M0.340 0.882 Q1.203 0.632 0.904 0.156" stroke="hsl(0.0,100%,35%)" stroke-width="0.00097"></path>
<path d="M0.340 0.882 Q0.623 0.871 0.662 0.730" stroke="hsl(0.0,100%,35%)" stroke-width="0.00266"></path>
<path d="M0.340 0.882 Q0.798 0.767 0.673 0.519" stroke="hsl(0.0,100%,35%)" stroke-width="0.00024"></path>
<path d="M0.340 0.882 Q0.932 0.631 0.571 0.287" stroke="hsl(0.0,100%,35%)" stroke-width="0.00048"></path>
<path d="M0.340 0.882 Q0.415 0.931 0.525 0.905" stroke="hsl(0.0,100%,35%)" stroke-width="0.00024"></path>
<path d="M0.340 0.882 Q0.445 0.752 0.214 0.672" stroke="hsl(0.0,100%,35%)" stroke-width="0.00024"></path>
<path d="M0.340 0.882 Q0.277 0.788 0.079 0.799" stroke="hsl(0.0,100%,35%)" stroke-width="0.00097"></path>
<path d="M0.340 0.882 Q0.318 0.822 0.195 0.819" stroke="hsl(0.0,100%,35%)" stroke-width="0.00048"></path>
<path d="M0.340 0.882 Q0.258 1.008 0.485 1.076" stroke="hsl(0.0,100%,35%)" stroke-width="0.00024"></path>
<path d="M0.388 1.004 Q0.692 0.932 0.618 0.767" stroke="hsl(0.0,100%,35%)" stroke-width="0.00363"></path>
<path d="M0.388 1.004 Q0.744 0.922 0.662 0.730" stroke="hsl(0.0,100%,35%)" stroke-width="0.02495"></path>
<path d="M0.388 1.004 Q0.461 0.933 0.340 0.882" stroke="hsl(0.0,100%,35%)" stroke-width="0.02059"></path>
<path d="M0.388 1.004 Q0.826 0.890 0.701 0.652" stroke="hsl(0.0,100%,35%)" stroke-width="0.00388"></path>
<path d="M0.388 1.004 Q0.718 0.763 0.320 0.549" stroke="hsl(0.0,100%,35%)" stroke-width="0.00024"></path>
<path d="M0.388 1.004 Q0.609 0.934 0.522 0.811" stroke="hsl(0.0,100%,35%)" stroke-width="0.02180"></path>
<path d="M0.388 1.004 Q0.707 0.825 0.429 0.631" stroke="hsl(0.0,100%,35%)" stroke-width="0.03028"></path>
<path d="M0.388 1.004 Q1.229 0.577 0.580 0.073" stroke="hsl(0.0,100%,35%)" stroke-width="0.00896"></path>
<path d="M0.388 1.004 Q1.054 0.682 0.571 0.287" stroke="hsl(0.0,100%,35%)" stroke-width="0.00073"></path>
<path d="M0.388 1.004 Q0.398 0.839 0.079 0.799" stroke="hsl(0.0,100%,35%)" stroke-width="0.03537"></path>
<path d="M0.388 1.004 Q0.399 0.913 0.224 0.888" stroke="hsl(0.0,100%,35%)" stroke-width="0.00024"></path>
<path d="M0.388 1.004 Q1.612 0.709 1.305 0.048" stroke="hsl(0.0,100%,35%)" stroke-width="0.00024"></path>
<path d="M0.388 1.004 Q1.200 0.729 0.841 0.273" stroke="hsl(0.0,100%,35%)" stroke-width="0.00024"></path>
<path d="M0.388 1.004 Q1.037 0.728 0.641 0.351" stroke="hsl(0.0,100%,35%)" stroke-width="0.00024"></path>
<path d="M0.388 1.004 Q1.324 0.683 0.904 0.156" stroke="hsl(0.0,100%,35%)" stroke-width="0.01017"></path>
<path d="M0.388 1.004 Q0.258 0.996 0.213 1.058" stroke="hsl(0.0,100%,35%)" stroke-width="0.00073"></path>
<path d="M0.388 1.004 Q0.344 0.887 0.105 0.883" stroke="hsl(0.0,100%,35%)" stroke-width="0.00121"></path>
<path d="M0.388 1.004 Q0.822 0.965 0.842 0.745" stroke="hsl(0.0,100%,35%)" stroke-width="0.00024"></path>
<path d="M0.388 1.004 Q0.919 0.758 0.557 0.445" stroke="hsl(0.0,100%,35%)" stroke-width="0.00024"></path>
<path d="M0.388 1.004 Q0.520 1.064 0.667 1.014" stroke="hsl(0.0,100%,35%)" stroke-width="0.00654"></path>
<path d="M0.388 1.004 Q0.567 0.803 0.214 0.672" stroke="hsl(0.0,100%,35%)" stroke-width="0.00315"></path>
<path d="M0.388 1.004 Q0.439 0.873 0.195 0.819" stroke="hsl(0.0,100%,35%)" stroke-width="0.00121"></path>
<path d="M0.388 1.004 Q0.536 0.982 0.525 0.905" stroke="hsl(0.0,100%,35%)" stroke-width="0.00024"></path>
<path d="M0.388 1.004 Q-0.365 1.386 0.216 1.837" stroke="hsl(0.0,100%,35%)" stroke-width="0.00024"></path>
<path d="M0.388 1.004 Q0.326 0.904 0.118 0.913" stroke="hsl(0.0,100%,35%)" stroke-width="0.00048"></path>
<path d="M0.904 0.156 Q-0.032 0.477 0.388 1.004" stroke="hsl(0.0,100%,35%)" stroke-width="0.00920"></path>
<path d="M0.904 0.156 Q0.189 0.407 0.522 0.811" stroke="hsl(0.0,100%,35%)" stroke-width="0.00048"></path>
<path d="M0.904 0.156 Q0.809 0.050 0.580 0.073" stroke="hsl(0.0,100%,35%)" stroke-width="0.00606"></path>
<path d="M0.904 0.156 Q0.041 0.407 0.340 0.882" stroke="hsl(0.0,100%,35%)" stroke-width="0.00121"></path>
<path d="M0.904 0.156 Q0.324 0.395 0.662 0.730" stroke="hsl(0.0,100%,35%)" stroke-width="0.00121"></path>
<path d="M0.904 0.156 Q0.287 0.299 0.429 0.631" stroke="hsl(0.0,100%,35%)" stroke-width="0.00727"></path>
<path d="M0.904 0.156 Q0.779 0.202 0.841 0.273" stroke="hsl(0.0,100%,35%)" stroke-width="0.00048"></path>
<path d="M0.904 0.156 Q0.095 0.315 0.227 0.745" stroke="hsl(0.0,100%,35%)" stroke-width="0.00024"></path>
<path d="M0.904 0.156 Q0.943 0.234 1.104 0.233" stroke="hsl(0.0,100%,35%)" stroke-width="0.00024"></path>
<path d="M0.904 0.156 Q-0.022 0.312 0.079 0.799" stroke="hsl(0.0,100%,35%)" stroke-width="0.00048"></path>
<path d="M0.904 0.156 Q0.023 0.270 0.051 0.725" stroke="hsl(0.0,100%,35%)" stroke-width="0.00048"></path>
<path d="M0.904 0.156 Q0.633 0.155 0.571 0.287" stroke="hsl(0.0,100%,35%)" stroke-width="0.00048"></path>
<path d="M0.904 0.156 Q0.354 0.210 0.337 0.490" stroke="hsl(0.0,100%,35%)" stroke-width="0.00024"></path>
<path d="M0.904 0.156 Q0.847 0.271 1.059 0.324" stroke="hsl(0.0,100%,35%)" stroke-width="0.00024"></path>
<path d="M0.485 1.076 Q0.494 1.021 0.388 1.004" stroke="hsl(0.0,100%,35%)" stroke-width="0.00218"></path>
<path d="M0.485 1.076 Q0.642 0.998 0.525 0.905" stroke="hsl(0.0,100%,35%)" stroke-width="0.00024"></path>
<path d="M0.485 1.076 Q0.715 0.951 0.522 0.811" stroke="hsl(0.0,100%,35%)" stroke-width="0.00024"></path>
<path d="M0.485 1.076 Q0.567 0.950 0.340 0.882" stroke="hsl(0.0,100%,35%)" stroke-width="0.00048"></path>
<path d="M0.485 1.076 Q0.813 0.842 0.429 0.631" stroke="hsl(0.0,100%,35%)" stroke-width="0.00024"></path>
<path d="M0.485 1.076 Q1.430 0.700 0.904 0.156" stroke="hsl(0.0,100%,35%)" stroke-width="0.00145"></path>
<path d="M0.522 0.811 Q0.301 0.881 0.388 1.004" stroke="hsl(0.0,100%,35%)" stroke-width="0.00799"></path>
<path d="M0.522 0.811 Q1.881 0.017 0.629 -0.820" stroke="hsl(0.0,100%,35%)" stroke-width="0.00024"></path>
<path d="M0.522 0.811 Q0.374 0.810 0.340 0.882" stroke="hsl(0.0,100%,35%)" stroke-width="0.00048"></path>
<path d="M0.522 0.811 Q0.739 0.767 0.701 0.652" stroke="hsl(0.0,100%,35%)" stroke-width="0.00024"></path>
<path d="M0.522 0.811 Q1.142 0.454 0.580 0.073" stroke="hsl(0.0,100%,35%)" stroke-width="0.00024"></path>
<path d="M0.522 0.811 Q1.237 0.560 0.904 0.156" stroke="hsl(0.0,100%,35%)" stroke-width="0.00048"></path>
<path d="M0.522 0.811 Q0.657 0.799 0.662 0.730" stroke="hsl(0.0,100%,35%)" stroke-width="0.00024"></path>
<path d="M0.429 0.631 Q0.120 0.645 0.079 0.799" stroke="hsl(0.0,100%,35%)" stroke-width="0.00460"></path>
<path d="M0.429 0.631 Q0.110 0.809 0.388 1.004" stroke="hsl(0.0,100%,35%)" stroke-width="0.02132"></path>
<path d="M0.429 0.631 Q0.183 0.739 0.340 0.882" stroke="hsl(0.0,100%,35%)" stroke-width="0.00824"></path>
<path d="M0.429 0.631 Q0.921 0.534 0.841 0.273" stroke="hsl(0.0,100%,35%)" stroke-width="0.00024"></path>
<path d="M0.429 0.631 Q0.242 0.870 0.667 1.014" stroke="hsl(0.0,100%,35%)" stroke-width="0.00581"></path>
<path d="M0.429 0.631 Q1.046 0.489 0.904 0.156" stroke="hsl(0.0,100%,35%)" stroke-width="0.00363"></path>
<path d="M0.429 0.631 Q0.466 0.727 0.662 0.730" stroke="hsl(0.0,100%,35%)" stroke-width="0.00606"></path>
<path d="M0.429 0.631 Q0.641 0.564 0.557 0.445" stroke="hsl(0.0,100%,35%)" stroke-width="0.00024"></path>
<path d="M0.429 0.631 Q0.331 0.740 0.522 0.811" stroke="hsl(0.0,100%,35%)" stroke-width="0.00048"></path>
<path d="M0.429 0.631 Q0.548 0.696 0.701 0.652" stroke="hsl(0.0,100%,35%)" stroke-width="0.00048"></path>
<path d="M0.429 0.631 Q0.288 0.608 0.214 0.672" stroke="hsl(0.0,100%,35%)" stroke-width="0.00048"></path>
<path d="M0.429 0.631 Q0.952 0.568 0.944 0.299" stroke="hsl(0.0,100%,35%)" stroke-width="0.00024"></path>
<path d="M0.382 0.731 Q0.167 0.869 0.388 1.004" stroke="hsl(0.0,100%,35%)" stroke-width="0.00242"></path>
<path d="M0.382 0.731 Q0.240 0.799 0.340 0.882" stroke="hsl(0.0,100%,35%)" stroke-width="0.00194"></path>
<path d="M0.382 0.731 Q1.103 0.548 0.904 0.156" stroke="hsl(0.0,100%,35%)" stroke-width="0.00097"></path>
<path d="M0.382 0.731 Q0.605 0.755 0.701 0.652" stroke="hsl(0.0,100%,35%)" stroke-width="0.00048"></path>
<path d="M0.382 0.731 Q0.345 0.668 0.214 0.672" stroke="hsl(0.0,100%,35%)" stroke-width="0.00024"></path>
<path d="M0.701 0.652 Q0.272 0.601 0.079 0.799" stroke="hsl(0.0,100%,35%)" stroke-width="0.00388"></path>
<path d="M0.701 0.652 Q0.582 0.587 0.429 0.631" stroke="hsl(0.0,100%,35%)" stroke-width="0.00315"></path>
<path d="M0.701 0.652 Q0.263 0.765 0.388 1.004" stroke="hsl(0.0,100%,35%)" stroke-width="0.00702"></path>
<path d="M0.701 0.652 Q0.336 0.695 0.340 0.882" stroke="hsl(0.0,100%,35%)" stroke-width="0.00581"></path>
<path d="M0.701 0.652 Q0.484 0.696 0.522 0.811" stroke="hsl(0.0,100%,35%)" stroke-width="0.00097"></path>
<path d="M0.701 0.652 Q0.619 0.683 0.662 0.730" stroke="hsl(0.0,100%,35%)" stroke-width="0.00606"></path>
<path d="M0.701 0.652 Q0.395 0.826 0.667 1.014" stroke="hsl(0.0,100%,35%)" stroke-width="0.00218"></path>
<path d="M0.701 0.652 Q1.199 0.445 0.904 0.156" stroke="hsl(0.0,100%,35%)" stroke-width="0.00121"></path>
<path d="M0.701 0.652 Q0.441 0.564 0.214 0.672" stroke="hsl(0.0,100%,35%)" stroke-width="0.00024"></path>
<path d="M0.214 0.672 Q0.972 0.552 0.904 0.156" stroke="hsl(0.0,100%,35%)" stroke-width="0.00024"></path>
<path d="M0.214 0.672 Q0.354 0.694 0.429 0.631" stroke="hsl(0.0,100%,35%)" stroke-width="0.00218"></path>
<path d="M0.214 0.672 Q0.391 0.791 0.662 0.730" stroke="hsl(0.0,100%,35%)" stroke-width="0.00266"></path>
<path d="M0.214 0.672 Q0.109 0.802 0.340 0.882" stroke="hsl(0.0,100%,35%)" stroke-width="0.00097"></path>
<path d="M0.214 0.672 Q0.036 0.873 0.388 1.004" stroke="hsl(0.0,100%,35%)" stroke-width="0.00484"></path>
<path d="M0.214 0.672 Q0.045 0.708 0.079 0.799" stroke="hsl(0.0,100%,35%)" stroke-width="0.00048"></path>
<path d="M0.214 0.672 Q0.340 0.800 0.618 0.767" stroke="hsl(0.0,100%,35%)" stroke-width="0.00048"></path>
<path d="M0.214 0.672 Q0.474 0.759 0.701 0.652" stroke="hsl(0.0,100%,35%)" stroke-width="0.00073"></path>
<path d="M0.214 0.672 Q0.167 0.933 0.667 1.014" stroke="hsl(0.0,100%,35%)" stroke-width="0.00218"></path>
<path d="M0.214 0.672 Q0.257 0.803 0.522 0.811" stroke="hsl(0.0,100%,35%)" stroke-width="0.00024"></path>
<path d="M0.214 0.672 Q0.877 0.446 0.580 0.073" stroke="hsl(0.0,100%,35%)" stroke-width="0.00024"></path>
<path d="M0.699 0.888 Q0.451 0.884 0.388 1.004" stroke="hsl(0.0,100%,35%)" stroke-width="0.00218"></path>
<path d="M0.699 0.888 Q0.523 0.813 0.340 0.882" stroke="hsl(0.0,100%,35%)" stroke-width="0.00170"></path>
<path d="M0.699 0.888 Q0.582 0.944 0.667 1.014" stroke="hsl(0.0,100%,35%)" stroke-width="0.00024"></path>
<path d="M0.699 0.888 Q0.769 0.705 0.429 0.631" stroke="hsl(0.0,100%,35%)" stroke-width="0.00073"></path>
<path d="M0.699 0.888 Q0.460 0.719 0.079 0.799" stroke="hsl(0.0,100%,35%)" stroke-width="0.00024"></path>
<path d="M0.699 0.888 Q0.629 0.683 0.214 0.672" stroke="hsl(0.0,100%,35%)" stroke-width="0.00024"></path>
<path d="M0.667 1.014 Q0.608 0.882 0.340 0.882" stroke="hsl(0.0,100%,35%)" stroke-width="0.00824"></path>
<path d="M0.667 1.014 Q0.854 0.774 0.429 0.631" stroke="hsl(0.0,100%,35%)" stroke-width="0.01138"></path>
<path d="M0.667 1.014 Q0.536 0.953 0.388 1.004" stroke="hsl(0.0,100%,35%)" stroke-width="0.01623"></path>
<path d="M0.667 1.014 Q0.974 0.839 0.701 0.652" stroke="hsl(0.0,100%,35%)" stroke-width="0.00315"></path>
<path d="M0.667 1.014 Q0.891 0.871 0.662 0.730" stroke="hsl(0.0,100%,35%)" stroke-width="0.00484"></path>
<path d="M0.667 1.014 Q0.840 0.881 0.618 0.767" stroke="hsl(0.0,100%,35%)" stroke-width="0.00024"></path>
<path d="M0.667 1.014 Q1.471 0.632 0.904 0.156" stroke="hsl(0.0,100%,35%)" stroke-width="0.00024"></path>
<path d="M0.667 1.014 Q0.958 0.805 0.614 0.617" stroke="hsl(0.0,100%,35%)" stroke-width="0.00024"></path>
<path d="M0.667 1.014 Q0.714 0.752 0.214 0.672" stroke="hsl(0.0,100%,35%)" stroke-width="0.00048"></path>
<path d="M0.079 0.799 Q0.069 0.963 0.388 1.004" stroke="hsl(0.0,100%,35%)" stroke-width="0.02568"></path>
<path d="M0.079 0.799 Q0.388 0.785 0.429 0.631" stroke="hsl(0.0,100%,35%)" stroke-width="0.00484"></path>
<path d="M0.079 0.799 Q0.142 0.893 0.340 0.882" stroke="hsl(0.0,100%,35%)" stroke-width="0.00097"></path>
<path d="M0.079 0.799 Q0.425 0.881 0.662 0.730" stroke="hsl(0.0,100%,35%)" stroke-width="0.01114"></path>
<path d="M0.079 0.799 Q0.201 1.024 0.667 1.014" stroke="hsl(0.0,100%,35%)" stroke-width="0.00024"></path>
<path d="M0.079 0.799 Q0.373 0.891 0.618 0.767" stroke="hsl(0.0,100%,35%)" stroke-width="0.00024"></path>
<path d="M0.079 0.799 Q0.120 0.832 0.195 0.819" stroke="hsl(0.0,100%,35%)" stroke-width="0.00339"></path>
<path d="M0.079 0.799 Q0.507 0.849 0.701 0.652" stroke="hsl(0.0,100%,35%)" stroke-width="0.00024"></path>
<path d="M0.079 0.799 Q1.005 0.642 0.904 0.156" stroke="hsl(0.0,100%,35%)" stroke-width="0.00024"></path>
<path d="M1.536 0.150 Q1.502 0.053 1.305 0.048" stroke="hsl(0.0,100%,35%)" stroke-width="0.00024"></path>
<path d="M1.536 0.150 Q1.215 0.027 0.904 0.156" stroke="hsl(0.0,100%,35%)" stroke-width="0.00024"></path>
<path d="M1.536 0.150 Q0.289 0.257 0.224 0.888" stroke="hsl(0.0,100%,35%)" stroke-width="0.00024"></path>
<path d="M1.305 0.048 Q0.155 0.272 0.340 0.882" stroke="hsl(0.0,100%,35%)" stroke-width="0.00024"></path>
<path d="M1.305 0.048 Q1.018 0.022 0.904 0.156" stroke="hsl(0.0,100%,35%)" stroke-width="0.00048"></path>
<path d="M1.305 0.048 Q0.923 -0.085 0.580 0.073" stroke="hsl(0.0,100%,35%)" stroke-width="0.00024"></path>
<path d="M1.305 0.048 Q0.082 0.342 0.388 1.004" stroke="hsl(0.0,100%,35%)" stroke-width="0.00024"></path>
<path d="M0.224 0.888 Q0.214 0.979 0.388 1.004" stroke="hsl(0.0,100%,35%)" stroke-width="0.00048"></path>
<path d="M0.224 0.888 Q0.533 0.800 0.429 0.631" stroke="hsl(0.0,100%,35%)" stroke-width="0.00024"></path>
<path d="M0.224 0.888 Q1.150 0.658 0.904 0.156" stroke="hsl(0.0,100%,35%)" stroke-width="0.00024"></path>
<path d="M0.662 0.730 Q0.306 0.812 0.388 1.004" stroke="hsl(0.0,100%,35%)" stroke-width="0.00775"></path>
<path d="M0.662 0.730 Q0.379 0.742 0.340 0.882" stroke="hsl(0.0,100%,35%)" stroke-width="0.00315"></path>
<path d="M0.662 0.730 Q0.625 0.634 0.429 0.631" stroke="hsl(0.0,100%,35%)" stroke-width="0.00436"></path>
<path d="M0.662 0.730 Q0.527 0.743 0.522 0.811" stroke="hsl(0.0,100%,35%)" stroke-width="0.00024"></path>
<path d="M0.662 0.730 Q0.316 0.648 0.079 0.799" stroke="hsl(0.0,100%,35%)" stroke-width="0.00266"></path>
<path d="M0.662 0.730 Q0.744 0.699 0.701 0.652" stroke="hsl(0.0,100%,35%)" stroke-width="0.00194"></path>
<path d="M0.662 0.730 Q0.438 0.873 0.667 1.014" stroke="hsl(0.0,100%,35%)" stroke-width="0.00073"></path>
<path d="M0.662 0.730 Q1.242 0.492 0.904 0.156" stroke="hsl(0.0,100%,35%)" stroke-width="0.00121"></path>
<path d="M0.662 0.730 Q0.484 0.611 0.214 0.672" stroke="hsl(0.0,100%,35%)" stroke-width="0.00073"></path>
<path d="M0.618 0.767 Q0.387 0.769 0.340 0.882" stroke="hsl(0.0,100%,35%)" stroke-width="0.01671"></path>
<path d="M0.618 0.767 Q0.314 0.840 0.388 1.004" stroke="hsl(0.0,100%,35%)" stroke-width="0.02035"></path>
<path d="M0.618 0.767 Q0.324 0.675 0.079 0.799" stroke="hsl(0.0,100%,35%)" stroke-width="0.00145"></path>
<path d="M0.618 0.767 Q0.633 0.661 0.429 0.631" stroke="hsl(0.0,100%,35%)" stroke-width="0.00218"></path>
<path d="M0.618 0.767 Q0.670 0.758 0.662 0.730" stroke="hsl(0.0,100%,35%)" stroke-width="0.00170"></path>
<path d="M0.618 0.767 Q1.250 0.519 0.904 0.156" stroke="hsl(0.0,100%,35%)" stroke-width="0.00145"></path>
<path d="M0.618 0.767 Q0.752 0.726 0.701 0.652" stroke="hsl(0.0,100%,35%)" stroke-width="0.00024"></path>
<path d="M0.618 0.767 Q0.492 0.639 0.214 0.672" stroke="hsl(0.0,100%,35%)" stroke-width="0.00073"></path>
<path d="M0.195 0.819 Q0.153 0.786 0.079 0.799" stroke="hsl(0.0,100%,35%)" stroke-width="0.00702"></path>
<path d="M0.195 0.819 Q0.144 0.950 0.388 1.004" stroke="hsl(0.0,100%,35%)" stroke-width="0.00920"></path>
<path d="M0.195 0.819 Q0.217 0.880 0.340 0.882" stroke="hsl(0.0,100%,35%)" stroke-width="0.00121"></path>
<path d="M0.195 0.819 Q0.462 0.772 0.429 0.631" stroke="hsl(0.0,100%,35%)" stroke-width="0.00024"></path>
<path d="M0.580 0.073 Q-0.261 0.500 0.388 1.004" stroke="hsl(0.0,100%,35%)" stroke-width="0.00727"></path>
<path d="M0.580 0.073 Q0.675 0.179 0.904 0.156" stroke="hsl(0.0,100%,35%)" stroke-width="0.00509"></path>
<path d="M0.580 0.073 Q-0.188 0.429 0.340 0.882" stroke="hsl(0.0,100%,35%)" stroke-width="0.00363"></path>
<path d="M0.580 0.073 Q0.405 0.178 0.571 0.287" stroke="hsl(0.0,100%,35%)" stroke-width="0.00073"></path>
<path d="M0.580 0.073 Q-0.040 0.430 0.522 0.811" stroke="hsl(0.0,100%,35%)" stroke-width="0.00024"></path>
<path d="M0.580 0.073 Q0.058 0.321 0.429 0.631" stroke="hsl(0.0,100%,35%)" stroke-width="0.00073"></path>
<path d="M0.580 0.073 Q0.963 0.205 1.305 0.048" stroke="hsl(0.0,100%,35%)" stroke-width="0.00048"></path>
<path d="M0.580 0.073 Q-0.082 0.299 0.214 0.672" stroke="hsl(0.0,100%,35%)" stroke-width="0.00048"></path>
<path d="M0.619 1.429 Q0.844 1.170 0.388 1.004" stroke="hsl(0.0,100%,35%)" stroke-width="0.00194"></path>
<path d="M0.619 1.429 Q0.917 1.100 0.340 0.882" stroke="hsl(0.0,100%,35%)" stroke-width="0.00024"></path>
<path d="M0.841 0.273 Q0.030 0.548 0.388 1.004" stroke="hsl(0.0,100%,35%)" stroke-width="0.00242"></path>
<path d="M0.841 0.273 Q0.103 0.477 0.340 0.882" stroke="hsl(0.0,100%,35%)" stroke-width="0.00073"></path>
<path d="M0.841 0.273 Q0.966 0.227 0.904 0.156" stroke="hsl(0.0,100%,35%)" stroke-width="0.00242"></path>
<path d="M0.227 0.745 Q0.534 0.868 0.842 0.745" stroke="hsl(0.0,100%,35%)" stroke-width="0.00145"></path>
<path d="M0.227 0.745 Q0.101 0.907 0.388 1.004" stroke="hsl(0.0,100%,35%)" stroke-width="0.00484"></path>
<path d="M0.227 0.745 Q0.766 0.585 0.571 0.287" stroke="hsl(0.0,100%,35%)" stroke-width="0.00048"></path>
<path d="M0.227 0.745 Q0.173 0.836 0.340 0.882" stroke="hsl(0.0,100%,35%)" stroke-width="0.00121"></path>
<path d="M0.227 0.745 Q1.036 0.586 0.904 0.156" stroke="hsl(0.0,100%,35%)" stroke-width="0.00388"></path>
<path d="M0.227 0.745 Q0.941 0.479 0.580 0.073" stroke="hsl(0.0,100%,35%)" stroke-width="0.00121"></path>
<path d="M0.051 0.725 Q0.069 0.861 0.340 0.882" stroke="hsl(0.0,100%,35%)" stroke-width="0.00097"></path>
<path d="M0.051 0.725 Q-0.004 0.932 0.388 1.004" stroke="hsl(0.0,100%,35%)" stroke-width="0.00218"></path>
<path d="M0.051 0.725 Q0.932 0.611 0.904 0.156" stroke="hsl(0.0,100%,35%)" stroke-width="0.00121"></path>
<path d="M0.051 0.725 Q0.837 0.504 0.580 0.073" stroke="hsl(0.0,100%,35%)" stroke-width="0.00121"></path>
<path d="M0.571 0.287 Q0.747 0.181 0.580 0.073" stroke="hsl(0.0,100%,35%)" stroke-width="0.00266"></path>
<path d="M0.571 0.287 Q0.842 0.288 0.904 0.156" stroke="hsl(0.0,100%,35%)" stroke-width="0.00291"></path>
<path d="M0.571 0.287 Q-0.094 0.609 0.388 1.004" stroke="hsl(0.0,100%,35%)" stroke-width="0.00145"></path>
<path d="M0.571 0.287 Q0.292 0.341 0.337 0.490" stroke="hsl(0.0,100%,35%)" stroke-width="0.00024"></path>
<path d="M0.571 0.287 Q-0.021 0.538 0.340 0.882" stroke="hsl(0.0,100%,35%)" stroke-width="0.00024"></path>
<path d="M0.571 0.287 Q0.127 0.539 0.522 0.811" stroke="hsl(0.0,100%,35%)" stroke-width="0.00024"></path>
<path d="M0.337 0.490 Q0.024 0.687 0.340 0.882" stroke="hsl(0.0,100%,35%)" stroke-width="0.00145"></path>
<path d="M0.337 0.490 Q0.617 0.435 0.571 0.287" stroke="hsl(0.0,100%,35%)" stroke-width="0.00533"></path>
<path d="M0.337 0.490 Q0.793 0.330 0.580 0.073" stroke="hsl(0.0,100%,35%)" stroke-width="0.00315"></path>
<path d="M0.337 0.490 Q-0.048 0.757 0.388 1.004" stroke="hsl(0.0,100%,35%)" stroke-width="0.00073"></path>
<path d="M0.337 0.490 Q0.887 0.436 0.904 0.156" stroke="hsl(0.0,100%,35%)" stroke-width="0.00097"></path>
<path d="M0.337 0.490 Q0.793 0.516 0.944 0.299" stroke="hsl(0.0,100%,35%)" stroke-width="0.00024"></path>
<path d="M0.196 0.897 Q0.280 0.919 0.340 0.882" stroke="hsl(0.0,100%,35%)" stroke-width="0.00024"></path>
<path d="M0.196 0.897 Q0.207 0.989 0.388 1.004" stroke="hsl(0.0,100%,35%)" stroke-width="0.00121"></path>
<path d="M0.196 0.897 Q0.385 0.788 0.214 0.672" stroke="hsl(0.0,100%,35%)" stroke-width="0.00024"></path>
<path d="M0.475 0.900 Q0.349 0.935 0.388 1.004" stroke="hsl(0.0,100%,35%)" stroke-width="0.00218"></path>
<path d="M0.475 0.900 Q0.422 0.864 0.340 0.882" stroke="hsl(0.0,100%,35%)" stroke-width="0.00145"></path>
<path d="M0.475 0.900 Q1.285 0.614 0.904 0.156" stroke="hsl(0.0,100%,35%)" stroke-width="0.00024"></path>
<path d="M0.944 0.299 Q1.039 0.220 0.904 0.156" stroke="hsl(0.0,100%,35%)" stroke-width="0.00194"></path>
<path d="M0.944 0.299 Q0.176 0.470 0.340 0.882" stroke="hsl(0.0,100%,35%)" stroke-width="0.00024"></path>
<path d="M0.944 0.299 Q0.103 0.540 0.388 1.004" stroke="hsl(0.0,100%,35%)" stroke-width="0.00145"></path>
<path d="M0.944 0.299 Q0.944 0.113 0.580 0.073" stroke="hsl(0.0,100%,35%)" stroke-width="0.00024"></path>
<path d="M1.779 0.787 Q0.910 0.617 0.388 1.004" stroke="hsl(0.0,100%,35%)" stroke-width="0.00097"></path>
<path d="M1.779 0.787 Q0.983 0.547 0.340 0.882" stroke="hsl(0.0,100%,35%)" stroke-width="0.00024"></path>
<path d="M1.779 0.787 Q1.846 0.297 0.904 0.156" stroke="hsl(0.0,100%,35%)" stroke-width="0.00097"></path>
<path d="M1.779 0.787 Q1.751 0.190 0.580 0.073" stroke="hsl(0.0,100%,35%)" stroke-width="0.00048"></path>
<path d="M1.779 0.787 Q1.575 0.295 0.571 0.287" stroke="hsl(0.0,100%,35%)" stroke-width="0.00024"></path>
<path d="M1.702 0.681 Q1.655 0.749 1.779 0.787" stroke="hsl(0.0,100%,35%)" stroke-width="0.00048"></path>
<path d="M1.702 0.681 Q0.859 0.509 0.340 0.882" stroke="hsl(0.0,100%,35%)" stroke-width="0.00024"></path>
<path d="M1.702 0.681 Q1.722 0.259 0.904 0.156" stroke="hsl(0.0,100%,35%)" stroke-width="0.00024"></path>
<path d="M1.702 0.681 Q1.628 0.152 0.580 0.073" stroke="hsl(0.0,100%,35%)" stroke-width="0.00024"></path>
<path d="M0.474 0.535 Q0.056 0.752 0.388 1.004" stroke="hsl(0.0,100%,35%)" stroke-width="0.00121"></path>
<path d="M0.474 0.535 Q0.129 0.682 0.340 0.882" stroke="hsl(0.0,100%,35%)" stroke-width="0.00024"></path>
<path d="M0.474 0.535 Q0.897 0.325 0.580 0.073" stroke="hsl(0.0,100%,35%)" stroke-width="0.00024"></path>
<path d="M0.118 0.913 Q0.181 1.013 0.388 1.004" stroke="hsl(0.0,100%,35%)" stroke-width="0.00436"></path>
<path d="M0.118 0.913 Q0.536 0.930 0.662 0.730" stroke="hsl(0.0,100%,35%)" stroke-width="0.00024"></path>
<path d="M0.118 0.913 Q1.117 0.692 0.904 0.156" stroke="hsl(0.0,100%,35%)" stroke-width="0.00266"></path>
<path d="M0.118 0.913 Q0.619 0.899 0.701 0.652" stroke="hsl(0.0,100%,35%)" stroke-width="0.00024"></path>
<path d="M0.118 0.913 Q0.253 0.942 0.340 0.882" stroke="hsl(0.0,100%,35%)" stroke-width="0.00048"></path>
<path d="M0.118 0.913 Q0.499 0.834 0.429 0.631" stroke="hsl(0.0,100%,35%)" stroke-width="0.00024"></path>
<path d="M1.147 0.122 Q0.998 0.091 0.904 0.156" stroke="hsl(0.0,100%,35%)" stroke-width="0.00048"></path>
<path d="M1.147 0.122 Q0.062 0.411 0.388 1.004" stroke="hsl(0.0,100%,35%)" stroke-width="0.00024"></path>
<path d="M0.276 0.093 Q0.445 0.144 0.580 0.073" stroke="hsl(0.0,100%,35%)" stroke-width="0.00848"></path>
<path d="M0.276 0.093 Q0.269 0.249 0.571 0.287" stroke="hsl(0.0,100%,35%)" stroke-width="0.00073"></path>
<path d="M0.276 0.093 Q-0.396 0.571 0.388 1.004" stroke="hsl(0.0,100%,35%)" stroke-width="0.01332"></path>
<path d="M0.276 0.093 Q-0.323 0.501 0.340 0.882" stroke="hsl(0.0,100%,35%)" stroke-width="0.00170"></path>
<path d="M0.276 0.093 Q0.540 0.250 0.904 0.156" stroke="hsl(0.0,100%,35%)" stroke-width="0.00024"></path>
<path d="M0.276 0.093 Q0.042 0.457 0.701 0.652" stroke="hsl(0.0,100%,35%)" stroke-width="0.00024"></path>
<path d="M1.073 0.036 Q0.029 0.313 0.340 0.882" stroke="hsl(0.0,100%,35%)" stroke-width="0.00024"></path>
<path d="M1.073 0.036 Q0.892 0.062 0.904 0.156" stroke="hsl(0.0,100%,35%)" stroke-width="0.00121"></path>
<path d="M1.073 0.036 Q-0.106 0.284 0.118 0.913" stroke="hsl(0.0,100%,35%)" stroke-width="0.00048"></path>
<path d="M0.766 0.217 Q0.020 0.464 0.340 0.882" stroke="hsl(0.0,100%,35%)" stroke-width="0.00024"></path>
<path d="M0.766 0.217 Q-0.052 0.535 0.388 1.004" stroke="hsl(0.0,100%,35%)" stroke-width="0.00024"></path>
<path d="M0.766 0.217 Q-0.043 0.370 0.079 0.799" stroke="hsl(0.0,100%,35%)" stroke-width="0.00024"></path>
<path d="M0.766 0.217 Q0.266 0.356 0.429 0.631" stroke="hsl(0.0,100%,35%)" stroke-width="0.00073"></path>
<path d="M0.766 0.217 Q0.386 0.421 0.701 0.652" stroke="hsl(0.0,100%,35%)" stroke-width="0.00024"></path>
<path d="M0.766 0.217 Q0.883 0.214 0.904 0.156" stroke="hsl(0.0,100%,35%)" stroke-width="0.00048"></path>
<path d="M0.169 0.621 Q-0.028 0.856 0.388 1.004" stroke="hsl(0.0,100%,35%)" stroke-width="0.00121"></path>
<path d="M0.169 0.621 Q0.291 0.678 0.429 0.631" stroke="hsl(0.0,100%,35%)" stroke-width="0.00048"></path>
<path d="M0.169 0.621 Q0.908 0.536 0.904 0.156" stroke="hsl(0.0,100%,35%)" stroke-width="0.00073"></path>
<path d="M0.790 0.388 Q0.096 0.615 0.388 1.004" stroke="hsl(0.0,100%,35%)" stroke-width="0.00048"></path>
<path d="M0.790 0.388 Q0.415 0.437 0.429 0.631" stroke="hsl(0.0,100%,35%)" stroke-width="0.00024"></path>
<path d="M0.790 0.388 Q0.169 0.545 0.340 0.882" stroke="hsl(0.0,100%,35%)" stroke-width="0.00024"></path>
<path d="M0.877 1.223 Q0.777 0.900 0.123 0.878" stroke="hsl(0.0,100%,35%)" stroke-width="0.00048"></path>
<path d="M0.877 1.223 Q0.809 1.016 0.388 1.004" stroke="hsl(0.0,100%,35%)" stroke-width="0.00024"></path>
<path d="M0.877 1.223 Q1.029 0.946 0.522 0.811" stroke="hsl(0.0,100%,35%)" stroke-width="0.00024"></path>
<path d="M0.123 0.878 Q0.155 0.994 0.388 1.004" stroke="hsl(0.0,100%,35%)" stroke-width="0.00097"></path>
<path d="M0.123 0.878 Q0.511 0.912 0.662 0.730" stroke="hsl(0.0,100%,35%)" stroke-width="0.00024"></path>
<path d="M0.053 0.684 Q-0.026 0.746 0.079 0.799" stroke="hsl(0.0,100%,35%)" stroke-width="0.00024"></path>
<path d="M0.053 0.684 Q-0.035 0.911 0.388 1.004" stroke="hsl(0.0,100%,35%)" stroke-width="0.00048"></path>
<path d="M0.053 0.684 Q0.038 0.840 0.340 0.882" stroke="hsl(0.0,100%,35%)" stroke-width="0.00024"></path>
<path d="M0.183 0.636 Q0.928 0.541 0.904 0.156" stroke="hsl(0.0,100%,35%)" stroke-width="0.00073"></path>
<path d="M0.183 0.636 Q-0.008 0.861 0.388 1.004" stroke="hsl(0.0,100%,35%)" stroke-width="0.00097"></path>
<path d="M0.714 0.898 Q0.466 0.886 0.388 1.004" stroke="hsl(0.0,100%,35%)" stroke-width="0.00266"></path>
<path d="M0.714 0.898 Q0.539 0.816 0.340 0.882" stroke="hsl(0.0,100%,35%)" stroke-width="0.00170"></path>
<path d="M0.714 0.898 Q0.593 0.852 0.475 0.900" stroke="hsl(0.0,100%,35%)" stroke-width="0.00024"></path>
<path d="M0.714 0.898 Q1.402 0.565 0.904 0.156" stroke="hsl(0.0,100%,35%)" stroke-width="0.00024"></path>
<path d="M1.422 0.816 Q0.755 0.703 0.388 1.004" stroke="hsl(0.0,100%,35%)" stroke-width="0.00194"></path>
<path d="M1.422 0.816 Q1.624 0.873 1.779 0.787" stroke="hsl(0.0,100%,35%)" stroke-width="0.00194"></path>
<path d="M1.422 0.816 Q0.828 0.633 0.340 0.882" stroke="hsl(0.0,100%,35%)" stroke-width="0.00024"></path>
<path d="M1.422 0.816 Q1.691 0.383 0.904 0.156" stroke="hsl(0.0,100%,35%)" stroke-width="0.00048"></path>
<path d="M1.422 0.816 Q1.420 0.381 0.571 0.287" stroke="hsl(0.0,100%,35%)" stroke-width="0.00048"></path>
<path d="M0.636 0.625 Q0.209 0.765 0.388 1.004" stroke="hsl(0.0,100%,35%)" stroke-width="0.00242"></path>
<path d="M0.636 0.625 Q0.282 0.694 0.340 0.882" stroke="hsl(0.0,100%,35%)" stroke-width="0.00121"></path>
<path d="M0.636 0.625 Q1.145 0.444 0.904 0.156" stroke="hsl(0.0,100%,35%)" stroke-width="0.00024"></path>
<path d="M0.636 0.625 Q0.218 0.600 0.079 0.799" stroke="hsl(0.0,100%,35%)" stroke-width="0.00024"></path>
</g>
<text x="0.149" y="0.694" font-size="0.006152" fill="hsl(0.0,100%,20%)">aleino</text>
<text x="0.340" y="0.846" font-size="0.073606" fill="hsl(0.0,100%,20%)">syoussefi</text>
<text x="0.388" y="0.951" font-size="0.105120" fill="hsl(0.0,100%,20%)">jmadill</text>
<text x="0.904" y="0.134" font-size="0.045414" fill="hsl(0.0,100%,20%)">geofflang</text>
<text x="0.485" y="1.070" font-size="0.011509" fill="hsl(0.0,100%,20%)">amaiorano</text>
<text x="0.525" y="0.903" font-size="0.004350" fill="hsl(0.0,100%,20%)">nicolascapens</text>
<text x="0.522" y="0.795" font-size="0.032162" fill="hsl(0.0,100%,20%)">ynovikov</text>
<text x="0.429" y="0.599" font-size="0.062735" fill="hsl(0.0,100%,20%)">timvp</text>
<text x="0.382" y="0.725" font-size="0.012557" fill="hsl(0.0,100%,20%)">amy.liu</text>
<text x="0.701" y="0.634" font-size="0.034617" fill="hsl(0.0,100%,20%)">ianelliott</text>
<text x="0.214" y="0.660" font-size="0.024219" fill="hsl(0.0,100%,20%)">tobine</text>
<text x="0.699" y="0.881" font-size="0.012044" fill="hsl(0.0,100%,20%)">b.schade</text>
<text x="0.667" y="0.992" font-size="0.044003" fill="hsl(0.0,100%,20%)">cclao</text>
<text x="0.079" y="0.772" font-size="0.052259" fill="hsl(0.0,100%,20%)">cnorthrop</text>
<text x="1.536" y="0.147" font-size="0.004350" fill="hsl(0.0,100%,20%)">ccameron</text>
<text x="1.305" y="0.044" font-size="0.007534" fill="hsl(0.0,100%,20%)">cwallez</text>
<text x="0.224" y="0.885" font-size="0.006152" fill="hsl(0.0,100%,20%)">lfy</text>
<text x="0.662" y="0.707" font-size="0.046984" fill="hsl(0.0,100%,20%)">courtneygo</text>
<text x="0.618" y="0.749" font-size="0.036995" fill="hsl(0.0,100%,20%)">m.maiya</text>
<text x="0.614" y="0.615" font-size="0.004350" fill="hsl(0.0,100%,20%)">sunny.sun</text>
<text x="0.195" y="0.807" font-size="0.024349" fill="hsl(0.0,100%,20%)">nguyenmh</text>
<text x="0.580" y="0.053" font-size="0.038499" fill="hsl(0.0,100%,20%)">jonahr</text>
<text x="0.619" y="1.425" font-size="0.007534" fill="hsl(0.0,100%,20%)">etienneb</text>
<text x="0.841" y="0.266" font-size="0.013050" fill="hsl(0.0,100%,20%)">sugoi</text>
<text x="0.227" y="0.735" font-size="0.018625" fill="hsl(0.0,100%,20%)">lexa.knyazev</text>
<text x="1.104" y="0.231" font-size="0.002511" fill="hsl(0.0,100%,20%)">zmo</text>
<text x="0.051" y="0.718" font-size="0.012557" fill="hsl(0.0,100%,20%)">penghuang</text>
<text x="0.571" y="0.276" font-size="0.021310" fill="hsl(0.0,100%,20%)">kbr</text>
<text x="0.337" y="0.481" font-size="0.018110" fill="hsl(0.0,100%,20%)">jdarpinian</text>
<text x="1.059" y="0.323" font-size="0.002511" fill="hsl(0.0,100%,20%)">brianosman</text>
<text x="0.196" y="0.894" font-size="0.006645" fill="hsl(0.0,100%,20%)">hckim.kim</text>
<text x="0.475" y="0.895" font-size="0.010355" fill="hsl(0.0,100%,20%)">j.vigil</text>
<text x="0.944" y="0.294" font-size="0.010655" fill="hsl(0.0,100%,20%)">shrekshao</text>
<text x="1.779" y="0.781" font-size="0.011780" fill="hsl(0.0,100%,20%)">jiajia.qin</text>
<text x="1.702" y="0.678" font-size="0.005616" fill="hsl(0.0,100%,20%)">jiawei.shao</text>
<text x="0.474" y="0.531" font-size="0.006645" fill="hsl(0.0,100%,20%)">jie.a.chen</text>
<text x="0.320" y="0.548" font-size="0.002511" fill="hsl(0.0,100%,20%)">tandrii</text>
<text x="0.641" y="0.349" font-size="0.002511" fill="hsl(0.0,100%,20%)">paulthomson</text>
<text x="0.213" y="1.056" font-size="0.004350" fill="hsl(0.0,100%,20%)">dpranke</text>
<text x="0.105" y="0.880" font-size="0.005616" fill="hsl(0.0,100%,20%)">bsheedy</text>
<text x="0.842" y="0.741" font-size="0.007103" fill="hsl(0.0,100%,20%)">le.hoang.q</text>
<text x="0.557" y="0.443" font-size="0.003552" fill="hsl(0.0,100%,20%)">kainino</text>
<text x="0.216" y="1.836" font-size="0.002511" fill="hsl(0.0,100%,20%)">julien.isorce</text>
<text x="0.118" y="0.905" font-size="0.016081" fill="hsl(0.0,100%,20%)">spang</text>
<text x="1.147" y="0.120" font-size="0.004350" fill="hsl(0.0,100%,20%)">khushalsagar</text>
<text x="0.276" y="0.081" font-size="0.025364" fill="hsl(0.0,100%,20%)">lehoangq</text>
<text x="1.073" y="0.033" font-size="0.007103" fill="hsl(0.0,100%,20%)">msisov</text>
<text x="0.766" y="0.213" font-size="0.007534" fill="hsl(0.0,100%,20%)">natsu</text>
<text x="0.169" y="0.617" font-size="0.007942" fill="hsl(0.0,100%,20%)">rafael.cintron</text>
<text x="0.790" y="0.385" font-size="0.005023" fill="hsl(0.0,100%,20%)">reveman</text>
<text x="0.877" y="1.221" font-size="0.005023" fill="hsl(0.0,100%,20%)">sdefresne</text>
<text x="0.123" y="0.874" font-size="0.006645" fill="hsl(0.0,100%,20%)">thakis</text>
<text x="0.053" y="0.681" font-size="0.005023" fill="hsl(0.0,100%,20%)">shabbyx</text>
<text x="0.673" y="0.517" font-size="0.002511" fill="hsl(0.0,100%,20%)">capn</text>
<text x="0.183" y="0.633" font-size="0.006645" fill="hsl(0.0,100%,20%)">vantablack</text>
<text x="0.714" y="0.893" font-size="0.011231" fill="hsl(0.0,100%,20%)">xiaoxuan.liu</text>
<text x="1.422" y="0.810" font-size="0.011509" fill="hsl(0.0,100%,20%)">xinghua.cao</text>
<text x="0.636" y="0.619" font-size="0.010355" fill="hsl(0.0,100%,20%)">xinyi.he</text>
<text x="0.629" y="-0.821" font-size="0.002511" fill="hsl(0.0,100%,20%)">senorblanco</text>
</svg>
