<svg width="4000" height="2000" viewBox="-0.025 -0.025 2.05 1.05" xmlns="http://www.w3.org/2000/svg">
  <style>
    path {
      fill: none;
      stroke-linecap: round;
      stroke-opacity: 0.4;
    }

    text {
      text-anchor: middle;
      alignment-baseline: hanging;
    }
  </style>
  <g opacity="0.4">
<path d="M1.061 0.093 Q0.480 0.565 1.273 0.952" stroke="hsl(0.0,100%,35%)" stroke-width="0.00332"></path>
<path d="M1.061 0.093 Q0.312 0.357 0.661 0.780" stroke="hsl(0.0,100%,35%)" stroke-width="0.00042"></path>
<path d="M1.061 0.093 Q0.935 0.030 0.784 0.077" stroke="hsl(0.0,100%,35%)" stroke-width="0.00166"></path>
<path d="M1.273 0.952 Q1.488 0.897 1.429 0.780" stroke="hsl(0.0,100%,35%)" stroke-width="0.01288"></path>
<path d="M1.273 0.952 Q1.104 0.743 0.661 0.780" stroke="hsl(0.0,100%,35%)" stroke-width="0.02492"></path>
<path d="M1.273 0.952 Q1.928 0.628 1.441 0.238" stroke="hsl(0.0,100%,35%)" stroke-width="0.00748"></path>
<path d="M1.273 0.952 Q1.278 0.857 1.094 0.833" stroke="hsl(0.0,100%,35%)" stroke-width="0.02409"></path>
<path d="M1.273 0.952 Q1.073 0.897 0.922 0.982" stroke="hsl(0.0,100%,35%)" stroke-width="0.01911"></path>
<path d="M1.273 0.952 Q1.524 0.812 1.308 0.659" stroke="hsl(0.0,100%,35%)" stroke-width="0.02659"></path>
<path d="M1.273 0.952 Q1.180 0.904 1.066 0.938" stroke="hsl(0.0,100%,35%)" stroke-width="0.00042"></path>
<path d="M1.273 0.952 Q1.360 0.805 1.094 0.731" stroke="hsl(0.0,100%,35%)" stroke-width="0.00831"></path>
<path d="M1.273 0.952 Q0.741 0.744 0.220 0.958" stroke="hsl(0.0,100%,35%)" stroke-width="0.00083"></path>
<path d="M1.273 0.952 Q1.167 0.824 0.894 0.848" stroke="hsl(0.0,100%,35%)" stroke-width="0.00042"></path>
<path d="M1.273 0.952 Q1.256 0.735 0.829 0.695" stroke="hsl(0.0,100%,35%)" stroke-width="0.01579"></path>
<path d="M1.273 0.952 Q1.292 0.585 0.581 0.495" stroke="hsl(0.0,100%,35%)" stroke-width="0.00166"></path>
<path d="M1.273 0.952 Q1.885 0.708 1.545 0.356" stroke="hsl(0.0,100%,35%)" stroke-width="0.00249"></path>
<path d="M1.273 0.952 Q1.103 0.912 0.988 0.986" stroke="hsl(0.0,100%,35%)" stroke-width="0.00042"></path>
<path d="M1.273 0.952 Q1.805 0.763 1.554 0.462" stroke="hsl(0.0,100%,35%)" stroke-width="0.00042"></path>
<path d="M1.273 0.952 Q1.194 0.946 1.167 0.983" stroke="hsl(0.0,100%,35%)" stroke-width="0.00083"></path>
<path d="M1.273 0.952 Q1.576 0.896 1.534 0.736" stroke="hsl(0.0,100%,35%)" stroke-width="0.00042"></path>
<path d="M1.273 0.952 Q0.923 0.943 0.829 1.112" stroke="hsl(0.0,100%,35%)" stroke-width="0.00083"></path>
<path d="M1.273 0.952 Q0.999 0.836 0.713 0.944" stroke="hsl(0.0,100%,35%)" stroke-width="0.00083"></path>
<path d="M1.273 0.952 Q1.436 0.712 1.003 0.579" stroke="hsl(0.0,100%,35%)" stroke-width="0.00042"></path>
<path d="M1.273 0.952 Q0.942 0.898 0.764 1.047" stroke="hsl(0.0,100%,35%)" stroke-width="0.00125"></path>
<path d="M1.273 0.952 Q1.146 0.426 0.093 0.373" stroke="hsl(0.0,100%,35%)" stroke-width="0.00042"></path>
<path d="M0.661 0.780 Q0.629 0.933 0.922 0.982" stroke="hsl(0.0,100%,35%)" stroke-width="0.01329"></path>
<path d="M0.661 0.780 Q0.830 0.988 1.273 0.952" stroke="hsl(0.0,100%,35%)" stroke-width="0.01786"></path>
<path d="M0.661 0.780 Q0.725 0.877 0.929 0.868" stroke="hsl(0.0,100%,35%)" stroke-width="0.00083"></path>
<path d="M0.661 0.780 Q1.485 0.665 1.441 0.238" stroke="hsl(0.0,100%,35%)" stroke-width="0.00125"></path>
<path d="M0.661 0.780 Q1.081 0.849 1.308 0.659" stroke="hsl(0.0,100%,35%)" stroke-width="0.00125"></path>
<path d="M0.661 0.780 Q0.298 0.781 0.220 0.958" stroke="hsl(0.0,100%,35%)" stroke-width="0.00166"></path>
<path d="M0.661 0.780 Q0.813 0.771 0.829 0.695" stroke="hsl(0.0,100%,35%)" stroke-width="0.00208"></path>
<path d="M0.661 0.780 Q0.751 0.983 1.167 0.983" stroke="hsl(0.0,100%,35%)" stroke-width="0.00042"></path>
<path d="M0.661 0.780 Q1.442 0.745 1.545 0.356" stroke="hsl(0.0,100%,35%)" stroke-width="0.00083"></path>
<path d="M0.661 0.780 Q0.835 0.893 1.094 0.833" stroke="hsl(0.0,100%,35%)" stroke-width="0.01246"></path>
<path d="M0.661 0.780 Q0.849 0.621 0.581 0.495" stroke="hsl(0.0,100%,35%)" stroke-width="0.00083"></path>
<path d="M0.661 0.780 Q0.766 0.821 0.869 0.779" stroke="hsl(0.0,100%,35%)" stroke-width="0.00125"></path>
<path d="M0.661 0.780 Q0.832 0.815 0.938 0.739" stroke="hsl(0.0,100%,35%)" stroke-width="0.00042"></path>
<path d="M0.661 0.780 Q0.917 0.842 1.094 0.731" stroke="hsl(0.0,100%,35%)" stroke-width="0.00042"></path>
<path d="M0.661 0.780 Q0.703 0.463 0.093 0.373" stroke="hsl(0.0,100%,35%)" stroke-width="0.00042"></path>
<path d="M0.661 0.780 Q0.592 0.697 0.416 0.713" stroke="hsl(0.0,100%,35%)" stroke-width="0.00042"></path>
<path d="M0.661 0.780 Q1.045 0.934 1.429 0.780" stroke="hsl(0.0,100%,35%)" stroke-width="0.00042"></path>
<path d="M0.784 0.077 Q0.580 0.473 1.308 0.659" stroke="hsl(0.0,100%,35%)" stroke-width="0.00042"></path>
<path d="M0.784 0.077 Q0.328 0.612 1.273 0.952" stroke="hsl(0.0,100%,35%)" stroke-width="0.00125"></path>
<path d="M0.784 0.077 Q0.160 0.404 0.661 0.780" stroke="hsl(0.0,100%,35%)" stroke-width="0.00042"></path>
<path d="M0.784 0.077 Q-0.204 0.405 0.220 0.958" stroke="hsl(0.0,100%,35%)" stroke-width="0.00042"></path>
<path d="M1.331 0.568 Q1.001 0.653 1.094 0.833" stroke="hsl(0.0,100%,35%)" stroke-width="0.00042"></path>
<path d="M1.331 0.568 Q0.701 0.421 0.274 0.696" stroke="hsl(0.0,100%,35%)" stroke-width="0.00042"></path>
<path d="M1.331 0.568 Q0.827 0.540 0.661 0.780" stroke="hsl(0.0,100%,35%)" stroke-width="0.00042"></path>
<path d="M1.094 0.833 Q0.889 0.873 0.922 0.982" stroke="hsl(0.0,100%,35%)" stroke-width="0.00872"></path>
<path d="M1.094 0.833 Q1.341 0.789 1.308 0.659" stroke="hsl(0.0,100%,35%)" stroke-width="0.01495"></path>
<path d="M1.094 0.833 Q1.304 0.874 1.429 0.780" stroke="hsl(0.0,100%,35%)" stroke-width="0.00582"></path>
<path d="M1.094 0.833 Q0.962 0.403 0.093 0.373" stroke="hsl(0.0,100%,35%)" stroke-width="0.00208"></path>
<path d="M1.094 0.833 Q1.072 0.711 0.829 0.695" stroke="hsl(0.0,100%,35%)" stroke-width="0.00997"></path>
<path d="M1.094 0.833 Q1.176 0.782 1.094 0.731" stroke="hsl(0.0,100%,35%)" stroke-width="0.00706"></path>
<path d="M1.094 0.833 Q1.744 0.605 1.441 0.238" stroke="hsl(0.0,100%,35%)" stroke-width="0.00249"></path>
<path d="M1.094 0.833 Q1.089 0.928 1.273 0.952" stroke="hsl(0.0,100%,35%)" stroke-width="0.05151"></path>
<path d="M1.094 0.833 Q0.994 0.796 0.900 0.837" stroke="hsl(0.0,100%,35%)" stroke-width="0.00042"></path>
<path d="M1.094 0.833 Q0.920 0.720 0.661 0.780" stroke="hsl(0.0,100%,35%)" stroke-width="0.01412"></path>
<path d="M1.094 0.833 Q1.092 0.755 0.938 0.739" stroke="hsl(0.0,100%,35%)" stroke-width="0.00083"></path>
<path d="M1.094 0.833 Q1.011 0.923 1.167 0.983" stroke="hsl(0.0,100%,35%)" stroke-width="0.00042"></path>
<path d="M1.094 0.833 Q1.305 0.684 1.059 0.549" stroke="hsl(0.0,100%,35%)" stroke-width="0.00042"></path>
<path d="M1.094 0.833 Q1.548 0.594 1.181 0.320" stroke="hsl(0.0,100%,35%)" stroke-width="0.00042"></path>
<path d="M1.094 0.833 Q1.266 0.852 1.341 0.773" stroke="hsl(0.0,100%,35%)" stroke-width="0.00083"></path>
<path d="M1.094 0.833 Q0.877 0.572 0.320 0.621" stroke="hsl(0.0,100%,35%)" stroke-width="0.00042"></path>
<path d="M1.094 0.833 Q1.702 0.685 1.545 0.356" stroke="hsl(0.0,100%,35%)" stroke-width="0.00332"></path>
<path d="M1.094 0.833 Q1.192 0.882 1.308 0.845" stroke="hsl(0.0,100%,35%)" stroke-width="0.00042"></path>
<path d="M1.094 0.833 Q0.943 0.626 0.506 0.655" stroke="hsl(0.0,100%,35%)" stroke-width="0.00125"></path>
<path d="M1.094 0.833 Q0.896 0.442 0.089 0.453" stroke="hsl(0.0,100%,35%)" stroke-width="0.00042"></path>
<path d="M1.094 0.833 Q1.369 0.845 1.451 0.713" stroke="hsl(0.0,100%,35%)" stroke-width="0.00042"></path>
<path d="M0.900 0.837 Q0.995 0.969 1.273 0.952" stroke="hsl(0.0,100%,35%)" stroke-width="0.00291"></path>
<path d="M0.900 0.837 Q1.000 0.874 1.094 0.833" stroke="hsl(0.0,100%,35%)" stroke-width="0.00208"></path>
<path d="M0.900 0.837 Q1.210 0.914 1.429 0.780" stroke="hsl(0.0,100%,35%)" stroke-width="0.00042"></path>
<path d="M0.900 0.837 Q0.849 0.667 0.506 0.655" stroke="hsl(0.0,100%,35%)" stroke-width="0.00042"></path>
<path d="M1.429 0.780 Q1.465 0.695 1.308 0.659" stroke="hsl(0.0,100%,35%)" stroke-width="0.00125"></path>
<path d="M1.429 0.780 Q1.214 0.835 1.273 0.952" stroke="hsl(0.0,100%,35%)" stroke-width="0.00914"></path>
<path d="M1.429 0.780 Q1.869 0.511 1.441 0.238" stroke="hsl(0.0,100%,35%)" stroke-width="0.00166"></path>
<path d="M1.429 0.780 Q1.219 0.740 1.094 0.833" stroke="hsl(0.0,100%,35%)" stroke-width="0.00208"></path>
<path d="M1.429 0.780 Q1.826 0.591 1.545 0.356" stroke="hsl(0.0,100%,35%)" stroke-width="0.00083"></path>
<path d="M1.429 0.780 Q1.301 0.689 1.094 0.731" stroke="hsl(0.0,100%,35%)" stroke-width="0.00042"></path>
<path d="M1.429 0.780 Q1.197 0.618 0.829 0.695" stroke="hsl(0.0,100%,35%)" stroke-width="0.00249"></path>
<path d="M1.429 0.780 Q1.014 0.780 0.922 0.982" stroke="hsl(0.0,100%,35%)" stroke-width="0.00042"></path>
<path d="M1.429 0.780 Q1.746 0.646 1.554 0.462" stroke="hsl(0.0,100%,35%)" stroke-width="0.00083"></path>
<path d="M1.429 0.780 Q1.045 0.627 0.661 0.780" stroke="hsl(0.0,100%,35%)" stroke-width="0.00083"></path>
<path d="M0.506 0.655 Q1.307 0.633 1.441 0.238" stroke="hsl(0.0,100%,35%)" stroke-width="0.00042"></path>
<path d="M0.506 0.655 Q0.657 0.862 1.094 0.833" stroke="hsl(0.0,100%,35%)" stroke-width="0.00332"></path>
<path d="M0.506 0.655 Q0.867 0.902 1.429 0.780" stroke="hsl(0.0,100%,35%)" stroke-width="0.00042"></path>
<path d="M0.506 0.655 Q0.739 0.810 1.094 0.731" stroke="hsl(0.0,100%,35%)" stroke-width="0.00042"></path>
<path d="M0.506 0.655 Q0.483 0.748 0.661 0.780" stroke="hsl(0.0,100%,35%)" stroke-width="0.00249"></path>
<path d="M0.506 0.655 Q0.652 0.956 1.273 0.952" stroke="hsl(0.0,100%,35%)" stroke-width="0.00665"></path>
<path d="M0.969 0.823 Q1.018 0.948 1.273 0.952" stroke="hsl(0.0,100%,35%)" stroke-width="0.00083"></path>
<path d="M0.969 0.823 Q1.270 0.809 1.308 0.659" stroke="hsl(0.0,100%,35%)" stroke-width="0.00042"></path>
<path d="M0.969 0.823 Q0.818 0.893 0.922 0.982" stroke="hsl(0.0,100%,35%)" stroke-width="0.00042"></path>
<path d="M1.308 0.659 Q1.061 0.703 1.094 0.833" stroke="hsl(0.0,100%,35%)" stroke-width="0.00332"></path>
<path d="M1.308 0.659 Q1.056 0.798 1.273 0.952" stroke="hsl(0.0,100%,35%)" stroke-width="0.00914"></path>
<path d="M1.308 0.659 Q0.888 0.590 0.661 0.780" stroke="hsl(0.0,100%,35%)" stroke-width="0.00249"></path>
<path d="M1.308 0.659 Q1.143 0.652 1.094 0.731" stroke="hsl(0.0,100%,35%)" stroke-width="0.00042"></path>
<path d="M0.922 0.982 Q1.122 1.037 1.273 0.952" stroke="hsl(0.0,100%,35%)" stroke-width="0.01745"></path>
<path d="M0.922 0.982 Q1.127 0.942 1.094 0.833" stroke="hsl(0.0,100%,35%)" stroke-width="0.00540"></path>
<path d="M0.922 0.982 Q0.954 0.829 0.661 0.780" stroke="hsl(0.0,100%,35%)" stroke-width="0.01828"></path>
<path d="M0.922 0.982 Q0.590 0.830 0.220 0.958" stroke="hsl(0.0,100%,35%)" stroke-width="0.00083"></path>
<path d="M0.922 0.982 Q1.141 0.670 0.581 0.495" stroke="hsl(0.0,100%,35%)" stroke-width="0.00042"></path>
<path d="M0.922 0.982 Q1.374 0.898 1.308 0.659" stroke="hsl(0.0,100%,35%)" stroke-width="0.00208"></path>
<path d="M0.922 0.982 Q0.884 0.746 0.416 0.713" stroke="hsl(0.0,100%,35%)" stroke-width="0.00042"></path>
<path d="M0.869 0.779 Q0.938 0.851 1.094 0.833" stroke="hsl(0.0,100%,35%)" stroke-width="0.00166"></path>
<path d="M0.869 0.779 Q0.764 0.738 0.661 0.780" stroke="hsl(0.0,100%,35%)" stroke-width="0.00831"></path>
<path d="M0.869 0.779 Q0.933 0.946 1.273 0.952" stroke="hsl(0.0,100%,35%)" stroke-width="0.00748"></path>
<path d="M0.869 0.779 Q0.733 0.891 0.922 0.982" stroke="hsl(0.0,100%,35%)" stroke-width="0.00125"></path>
<path d="M1.441 0.238 Q0.873 0.415 1.094 0.731" stroke="hsl(0.0,100%,35%)" stroke-width="0.00332"></path>
<path d="M1.441 0.238 Q0.786 0.561 1.273 0.952" stroke="hsl(0.0,100%,35%)" stroke-width="0.00997"></path>
<path d="M1.441 0.238 Q0.791 0.466 1.094 0.833" stroke="hsl(0.0,100%,35%)" stroke-width="0.00374"></path>
<path d="M1.441 0.238 Q1.001 0.507 1.429 0.780" stroke="hsl(0.0,100%,35%)" stroke-width="0.00125"></path>
<path d="M1.441 0.238 Q0.769 0.344 0.829 0.695" stroke="hsl(0.0,100%,35%)" stroke-width="0.00083"></path>
<path d="M1.441 0.238 Q0.617 0.353 0.661 0.780" stroke="hsl(0.0,100%,35%)" stroke-width="0.00498"></path>
<path d="M1.441 0.238 Q1.398 0.318 1.545 0.356" stroke="hsl(0.0,100%,35%)" stroke-width="0.00125"></path>
<path d="M1.441 0.238 Q0.681 0.450 0.929 0.868" stroke="hsl(0.0,100%,35%)" stroke-width="0.00042"></path>
<path d="M1.441 0.238 Q1.037 0.422 1.308 0.659" stroke="hsl(0.0,100%,35%)" stroke-width="0.00042"></path>
<path d="M1.545 0.356 Q1.587 0.276 1.441 0.238" stroke="hsl(0.0,100%,35%)" stroke-width="0.00665"></path>
<path d="M1.545 0.356 Q1.147 0.545 1.429 0.780" stroke="hsl(0.0,100%,35%)" stroke-width="0.00415"></path>
<path d="M1.545 0.356 Q0.932 0.599 1.273 0.952" stroke="hsl(0.0,100%,35%)" stroke-width="0.00706"></path>
<path d="M1.545 0.356 Q0.937 0.504 1.094 0.833" stroke="hsl(0.0,100%,35%)" stroke-width="0.00291"></path>
<path d="M1.545 0.356 Q1.019 0.453 1.094 0.731" stroke="hsl(0.0,100%,35%)" stroke-width="0.00083"></path>
<path d="M1.545 0.356 Q0.764 0.391 0.661 0.780" stroke="hsl(0.0,100%,35%)" stroke-width="0.00291"></path>
<path d="M1.545 0.356 Q0.786 0.297 0.506 0.655" stroke="hsl(0.0,100%,35%)" stroke-width="0.00042"></path>
<path d="M1.545 0.356 Q1.184 0.460 1.308 0.659" stroke="hsl(0.0,100%,35%)" stroke-width="0.00125"></path>
<path d="M1.094 0.731 Q1.662 0.554 1.441 0.238" stroke="hsl(0.0,100%,35%)" stroke-width="0.00457"></path>
<path d="M1.094 0.731 Q1.012 0.782 1.094 0.833" stroke="hsl(0.0,100%,35%)" stroke-width="0.00623"></path>
<path d="M1.094 0.731 Q1.007 0.877 1.273 0.952" stroke="hsl(0.0,100%,35%)" stroke-width="0.01537"></path>
<path d="M1.094 0.731 Q0.990 0.660 0.829 0.695" stroke="hsl(0.0,100%,35%)" stroke-width="0.00166"></path>
<path d="M1.094 0.731 Q0.807 0.822 0.922 0.982" stroke="hsl(0.0,100%,35%)" stroke-width="0.00083"></path>
<path d="M1.094 0.731 Q1.222 0.823 1.429 0.780" stroke="hsl(0.0,100%,35%)" stroke-width="0.00042"></path>
<path d="M1.094 0.731 Q0.838 0.669 0.661 0.780" stroke="hsl(0.0,100%,35%)" stroke-width="0.00083"></path>
<path d="M1.094 0.731 Q0.928 0.872 1.167 0.983" stroke="hsl(0.0,100%,35%)" stroke-width="0.00042"></path>
<path d="M1.094 0.731 Q1.026 0.510 0.581 0.495" stroke="hsl(0.0,100%,35%)" stroke-width="0.00042"></path>
<path d="M1.094 0.731 Q1.258 0.738 1.308 0.659" stroke="hsl(0.0,100%,35%)" stroke-width="0.00125"></path>
<path d="M1.094 0.731 Q1.170 0.637 1.003 0.579" stroke="hsl(0.0,100%,35%)" stroke-width="0.00042"></path>
<path d="M0.829 0.695 Q1.061 0.858 1.429 0.780" stroke="hsl(0.0,100%,35%)" stroke-width="0.00291"></path>
<path d="M0.829 0.695 Q0.851 0.817 1.094 0.833" stroke="hsl(0.0,100%,35%)" stroke-width="0.00665"></path>
<path d="M0.829 0.695 Q1.501 0.589 1.441 0.238" stroke="hsl(0.0,100%,35%)" stroke-width="0.00748"></path>
<path d="M0.829 0.695 Q0.933 0.766 1.094 0.731" stroke="hsl(0.0,100%,35%)" stroke-width="0.00249"></path>
<path d="M0.829 0.695 Q0.677 0.704 0.661 0.780" stroke="hsl(0.0,100%,35%)" stroke-width="0.00540"></path>
<path d="M0.829 0.695 Q0.846 0.912 1.273 0.952" stroke="hsl(0.0,100%,35%)" stroke-width="0.01495"></path>
<path d="M0.829 0.695 Q1.097 0.773 1.308 0.659" stroke="hsl(0.0,100%,35%)" stroke-width="0.00249"></path>
<path d="M0.829 0.695 Q1.458 0.669 1.545 0.356" stroke="hsl(0.0,100%,35%)" stroke-width="0.00042"></path>
<path d="M0.929 0.868 Q0.865 0.770 0.661 0.780" stroke="hsl(0.0,100%,35%)" stroke-width="0.00374"></path>
<path d="M0.929 0.868 Q0.834 0.924 0.922 0.982" stroke="hsl(0.0,100%,35%)" stroke-width="0.00042"></path>
<path d="M0.929 0.868 Q1.039 0.883 1.094 0.833" stroke="hsl(0.0,100%,35%)" stroke-width="0.00042"></path>
<path d="M0.929 0.868 Q1.034 0.978 1.273 0.952" stroke="hsl(0.0,100%,35%)" stroke-width="0.00540"></path>
<path d="M0.929 0.868 Q1.053 0.612 0.581 0.495" stroke="hsl(0.0,100%,35%)" stroke-width="0.00166"></path>
<path d="M0.220 0.958 Q0.752 1.165 1.273 0.952" stroke="hsl(0.0,100%,35%)" stroke-width="0.00083"></path>
<path d="M0.220 0.958 Q0.583 0.957 0.661 0.780" stroke="hsl(0.0,100%,35%)" stroke-width="0.00042"></path>
<path d="M0.723 0.781 Q0.861 0.976 1.273 0.952" stroke="hsl(0.0,100%,35%)" stroke-width="0.00042"></path>
<path d="M0.723 0.781 Q1.474 0.733 1.545 0.356" stroke="hsl(0.0,100%,35%)" stroke-width="0.00042"></path>
<path d="M0.723 0.781 Q0.693 0.768 0.661 0.780" stroke="hsl(0.0,100%,35%)" stroke-width="0.00042"></path>
<path d="M1.534 0.736 Q1.236 0.697 1.094 0.833" stroke="hsl(0.0,100%,35%)" stroke-width="0.00457"></path>
<path d="M1.534 0.736 Q1.886 0.468 1.441 0.238" stroke="hsl(0.0,100%,35%)" stroke-width="0.00291"></path>
<path d="M1.534 0.736 Q1.231 0.791 1.273 0.952" stroke="hsl(0.0,100%,35%)" stroke-width="0.00706"></path>
<path d="M1.534 0.736 Q1.214 0.574 0.829 0.695" stroke="hsl(0.0,100%,35%)" stroke-width="0.00042"></path>
<path d="M1.534 0.736 Q1.062 0.583 0.661 0.780" stroke="hsl(0.0,100%,35%)" stroke-width="0.00042"></path>
<path d="M0.894 0.848 Q1.000 0.975 1.273 0.952" stroke="hsl(0.0,100%,35%)" stroke-width="0.00249"></path>
<path d="M0.894 0.848 Q0.832 0.767 0.661 0.780" stroke="hsl(0.0,100%,35%)" stroke-width="0.00042"></path>
<path d="M0.894 0.848 Q1.006 0.880 1.094 0.833" stroke="hsl(0.0,100%,35%)" stroke-width="0.00083"></path>
<path d="M1.167 0.983 Q1.245 0.989 1.273 0.952" stroke="hsl(0.0,100%,35%)" stroke-width="0.00125"></path>
<path d="M1.167 0.983 Q1.333 0.842 1.094 0.731" stroke="hsl(0.0,100%,35%)" stroke-width="0.00042"></path>
<path d="M0.581 0.495 Q0.562 0.862 1.273 0.952" stroke="hsl(0.0,100%,35%)" stroke-width="0.00125"></path>
<path d="M0.581 0.495 Q0.393 0.653 0.661 0.780" stroke="hsl(0.0,100%,35%)" stroke-width="0.00083"></path>
<path d="M0.938 0.739 Q0.935 0.912 1.273 0.952" stroke="hsl(0.0,100%,35%)" stroke-width="0.01246"></path>
<path d="M0.938 0.739 Q0.767 0.704 0.661 0.780" stroke="hsl(0.0,100%,35%)" stroke-width="0.00457"></path>
<path d="M0.938 0.739 Q0.941 0.817 1.094 0.833" stroke="hsl(0.0,100%,35%)" stroke-width="0.00166"></path>
<path d="M0.938 0.739 Q1.150 0.858 1.429 0.780" stroke="hsl(0.0,100%,35%)" stroke-width="0.00042"></path>
<path d="M0.938 0.739 Q1.548 0.669 1.545 0.356" stroke="hsl(0.0,100%,35%)" stroke-width="0.00042"></path>
<path d="M0.938 0.739 Q1.590 0.589 1.441 0.238" stroke="hsl(0.0,100%,35%)" stroke-width="0.00042"></path>
<path d="M0.093 0.373 Q0.220 0.898 1.273 0.952" stroke="hsl(0.0,100%,35%)" stroke-width="0.00498"></path>
<path d="M0.093 0.373 Q0.052 0.690 0.661 0.780" stroke="hsl(0.0,100%,35%)" stroke-width="0.00291"></path>
<path d="M0.093 0.373 Q-0.312 0.691 0.220 0.958" stroke="hsl(0.0,100%,35%)" stroke-width="0.00083"></path>
<path d="M0.093 0.373 Q0.027 0.412 0.089 0.453" stroke="hsl(0.0,100%,35%)" stroke-width="0.00083"></path>
<path d="M0.416 0.713 Q0.673 0.637 0.581 0.495" stroke="hsl(0.0,100%,35%)" stroke-width="0.00083"></path>
<path d="M0.416 0.713 Q0.485 0.795 0.661 0.780" stroke="hsl(0.0,100%,35%)" stroke-width="0.00374"></path>
<path d="M0.416 0.713 Q0.653 1.004 1.273 0.952" stroke="hsl(0.0,100%,35%)" stroke-width="0.00374"></path>
<path d="M0.416 0.713 Q0.453 0.949 0.922 0.982" stroke="hsl(0.0,100%,35%)" stroke-width="0.00042"></path>
<path d="M0.320 0.621 Q0.386 0.675 0.506 0.655" stroke="hsl(0.0,100%,35%)" stroke-width="0.00083"></path>
<path d="M0.320 0.621 Q0.537 0.882 1.094 0.833" stroke="hsl(0.0,100%,35%)" stroke-width="0.00083"></path>
<path d="M0.320 0.621 Q0.532 0.977 1.273 0.952" stroke="hsl(0.0,100%,35%)" stroke-width="0.00166"></path>
<path d="M0.320 0.621 Q0.747 0.922 1.429 0.780" stroke="hsl(0.0,100%,35%)" stroke-width="0.00042"></path>
<path d="M0.320 0.621 Q0.363 0.768 0.661 0.780" stroke="hsl(0.0,100%,35%)" stroke-width="0.00083"></path>
<path d="M1.299 0.426 Q0.865 0.683 1.273 0.952" stroke="hsl(0.0,100%,35%)" stroke-width="0.00166"></path>
<path d="M1.299 0.426 Q1.520 0.360 1.441 0.238" stroke="hsl(0.0,100%,35%)" stroke-width="0.00042"></path>
<path d="M1.299 0.426 Q0.697 0.475 0.661 0.780" stroke="hsl(0.0,100%,35%)" stroke-width="0.00083"></path>
<path d="M1.299 0.426 Q0.719 0.381 0.506 0.655" stroke="hsl(0.0,100%,35%)" stroke-width="0.00042"></path>
<path d="M0.849 0.293 Q0.334 0.653 0.922 0.982" stroke="hsl(0.0,100%,35%)" stroke-width="0.00042"></path>
<path d="M0.849 0.293 Q0.366 0.499 0.661 0.780" stroke="hsl(0.0,100%,35%)" stroke-width="0.00125"></path>
<path d="M0.849 0.293 Q0.534 0.707 1.273 0.952" stroke="hsl(0.0,100%,35%)" stroke-width="0.00291"></path>
<path d="M0.849 0.293 Q0.540 0.612 1.094 0.833" stroke="hsl(0.0,100%,35%)" stroke-width="0.00042"></path>
<path d="M0.849 0.293 Q0.553 0.341 0.581 0.495" stroke="hsl(0.0,100%,35%)" stroke-width="0.00083"></path>
<path d="M0.849 0.293 Q0.786 0.568 1.308 0.659" stroke="hsl(0.0,100%,35%)" stroke-width="0.00042"></path>
<path d="M0.595 1.030 Q0.828 0.918 0.661 0.780" stroke="hsl(0.0,100%,35%)" stroke-width="0.00083"></path>
<path d="M0.595 1.030 Q0.997 1.126 1.273 0.952" stroke="hsl(0.0,100%,35%)" stroke-width="0.00125"></path>
<path d="M0.595 1.030 Q0.870 0.601 0.093 0.373" stroke="hsl(0.0,100%,35%)" stroke-width="0.00042"></path>
<path d="M0.793 0.595 Q0.748 0.869 1.273 0.952" stroke="hsl(0.0,100%,35%)" stroke-width="0.00249"></path>
<path d="M0.793 0.595 Q0.579 0.661 0.661 0.780" stroke="hsl(0.0,100%,35%)" stroke-width="0.00291"></path>
<path d="M0.793 0.595 Q0.767 0.503 0.581 0.495" stroke="hsl(0.0,100%,35%)" stroke-width="0.00042"></path>
<path d="M0.793 0.595 Q0.216 0.662 0.220 0.958" stroke="hsl(0.0,100%,35%)" stroke-width="0.00042"></path>
<path d="M0.384 0.343 Q0.347 0.730 1.094 0.833" stroke="hsl(0.0,100%,35%)" stroke-width="0.00042"></path>
<path d="M0.384 0.343 Q0.361 0.458 0.581 0.495" stroke="hsl(0.0,100%,35%)" stroke-width="0.00042"></path>
<path d="M0.384 0.343 Q0.535 0.344 0.572 0.271" stroke="hsl(0.0,100%,35%)" stroke-width="0.00042"></path>
<path d="M0.572 0.271 Q0.378 0.751 1.273 0.952" stroke="hsl(0.0,100%,35%)" stroke-width="0.00042"></path>
<path d="M0.572 0.271 Q0.397 0.385 0.581 0.495" stroke="hsl(0.0,100%,35%)" stroke-width="0.00042"></path>
<path d="M0.871 0.303 Q0.553 0.708 1.273 0.952" stroke="hsl(0.0,100%,35%)" stroke-width="0.00665"></path>
<path d="M0.871 0.303 Q0.385 0.500 0.661 0.780" stroke="hsl(0.0,100%,35%)" stroke-width="0.00208"></path>
<path d="M0.871 0.303 Q0.353 0.653 0.922 0.982" stroke="hsl(0.0,100%,35%)" stroke-width="0.00332"></path>
<path d="M1.026 0.444 Q0.830 0.601 1.094 0.731" stroke="hsl(0.0,100%,35%)" stroke-width="0.00374"></path>
<path d="M1.026 0.444 Q0.743 0.747 1.273 0.952" stroke="hsl(0.0,100%,35%)" stroke-width="0.00997"></path>
<path d="M1.026 0.444 Q0.575 0.539 0.661 0.780" stroke="hsl(0.0,100%,35%)" stroke-width="0.00042"></path>
<path d="M1.026 0.444 Q0.748 0.652 1.094 0.833" stroke="hsl(0.0,100%,35%)" stroke-width="0.00042"></path>
<path d="M1.026 0.444 Q0.726 0.530 0.829 0.695" stroke="hsl(0.0,100%,35%)" stroke-width="0.00083"></path>
<path d="M1.026 0.444 Q1.356 0.504 1.545 0.356" stroke="hsl(0.0,100%,35%)" stroke-width="0.00042"></path>
<path d="M0.359 0.854 Q0.569 0.877 0.661 0.780" stroke="hsl(0.0,100%,35%)" stroke-width="0.00249"></path>
<path d="M0.359 0.854 Q0.443 0.758 0.274 0.696" stroke="hsl(0.0,100%,35%)" stroke-width="0.00125"></path>
<path d="M0.359 0.854 Q0.738 1.086 1.273 0.952" stroke="hsl(0.0,100%,35%)" stroke-width="0.00166"></path>
<path d="M0.901 -0.142 Q0.217 0.384 1.094 0.833" stroke="hsl(0.0,100%,35%)" stroke-width="0.00042"></path>
<path d="M0.901 -0.142 Q0.043 0.271 0.661 0.780" stroke="hsl(0.0,100%,35%)" stroke-width="0.00042"></path>
<path d="M0.901 -0.142 Q0.212 0.479 1.273 0.952" stroke="hsl(0.0,100%,35%)" stroke-width="0.00042"></path>
<path d="M1.181 0.320 Q0.722 0.654 1.273 0.952" stroke="hsl(0.0,100%,35%)" stroke-width="0.00125"></path>
<path d="M1.181 0.320 Q1.335 0.411 1.545 0.356" stroke="hsl(0.0,100%,35%)" stroke-width="0.00166"></path>
<path d="M1.181 0.320 Q0.937 0.600 1.429 0.780" stroke="hsl(0.0,100%,35%)" stroke-width="0.00042"></path>
<path d="M0.610 0.978 Q0.763 1.043 0.922 0.982" stroke="hsl(0.0,100%,35%)" stroke-width="0.00042"></path>
<path d="M0.610 0.978 Q0.963 1.097 1.273 0.952" stroke="hsl(0.0,100%,35%)" stroke-width="0.00125"></path>
<path d="M0.610 0.978 Q0.690 0.982 0.713 0.944" stroke="hsl(0.0,100%,35%)" stroke-width="0.00083"></path>
<path d="M0.610 0.978 Q1.215 0.958 1.308 0.659" stroke="hsl(0.0,100%,35%)" stroke-width="0.00042"></path>
<path d="M1.235 0.742 Q1.087 0.854 1.273 0.952" stroke="hsl(0.0,100%,35%)" stroke-width="0.00125"></path>
<path d="M1.235 0.742 Q1.106 0.488 0.581 0.495" stroke="hsl(0.0,100%,35%)" stroke-width="0.00042"></path>
<path d="M1.235 0.742 Q1.092 0.759 1.094 0.833" stroke="hsl(0.0,100%,35%)" stroke-width="0.00083"></path>
<path d="M1.235 0.742 Q0.960 0.329 0.093 0.373" stroke="hsl(0.0,100%,35%)" stroke-width="0.00083"></path>
<path d="M1.235 0.742 Q0.918 0.646 0.661 0.780" stroke="hsl(0.0,100%,35%)" stroke-width="0.00083"></path>
</g>
<text x="1.061" y="0.087" font-size="0.012123" fill="hsl(0.0,100%,20%)">aleino</text>
<text x="1.273" y="0.899" font-size="0.104126" fill="hsl(0.0,100%,20%)">jmadill</text>
<text x="0.661" y="0.746" font-size="0.068662" fill="hsl(0.0,100%,20%)">geofflang</text>
<text x="0.784" y="0.071" font-size="0.010633" fill="hsl(0.0,100%,20%)">kkinnunen</text>
<text x="1.331" y="0.566" font-size="0.005824" fill="hsl(0.0,100%,20%)">artyom</text>
<text x="1.094" y="0.795" font-size="0.075860" fill="hsl(0.0,100%,20%)">syoussefi</text>
<text x="0.274" y="0.692" font-size="0.006725" fill="hsl(0.0,100%,20%)">rafael.cintron</text>
<text x="0.900" y="0.830" font-size="0.013023" fill="hsl(0.0,100%,20%)">b.schade</text>
<text x="1.429" y="0.762" font-size="0.036833" fill="hsl(0.0,100%,20%)">cnorthrop</text>
<text x="0.506" y="0.644" font-size="0.021530" fill="hsl(0.0,100%,20%)">m.maiya</text>
<text x="0.969" y="0.820" font-size="0.006725" fill="hsl(0.0,100%,20%)">bsheedy</text>
<text x="1.308" y="0.637" font-size="0.043191" fill="hsl(0.0,100%,20%)">ynovikov</text>
<text x="0.922" y="0.957" font-size="0.050548" fill="hsl(0.0,100%,20%)">jonahr</text>
<text x="0.869" y="0.767" font-size="0.023295" fill="hsl(0.0,100%,20%)">clemendeng</text>
<text x="1.441" y="0.217" font-size="0.041043" fill="hsl(0.0,100%,20%)">courtneygo</text>
<text x="1.545" y="0.340" font-size="0.032251" fill="hsl(0.0,100%,20%)">ianelliott</text>
<text x="1.094" y="0.711" font-size="0.040489" fill="hsl(0.0,100%,20%)">tobine</text>
<text x="0.829" y="0.672" font-size="0.045734" fill="hsl(0.0,100%,20%)">timvp</text>
<text x="1.554" y="0.459" font-size="0.005824" fill="hsl(0.0,100%,20%)">lfy</text>
<text x="0.929" y="0.858" font-size="0.018721" fill="hsl(0.0,100%,20%)">jdarpinian</text>
<text x="0.220" y="0.952" font-size="0.013023" fill="hsl(0.0,100%,20%)">cwallez</text>
<text x="0.723" y="0.778" font-size="0.005824" fill="hsl(0.0,100%,20%)">davidben</text>
<text x="1.534" y="0.725" font-size="0.020727" fill="hsl(0.0,100%,20%)">dongja</text>
<text x="0.894" y="0.842" font-size="0.010633" fill="hsl(0.0,100%,20%)">flibitijibibo</text>
<text x="1.167" y="0.978" font-size="0.010087" fill="hsl(0.0,100%,20%)">sugoi</text>
<text x="0.581" y="0.487" font-size="0.016812" fill="hsl(0.0,100%,20%)">kbr</text>
<text x="0.938" y="0.727" font-size="0.024012" fill="hsl(0.0,100%,20%)">spang</text>
<text x="0.093" y="0.363" font-size="0.019316" fill="hsl(0.0,100%,20%)">jiajia.qin</text>
<text x="0.416" y="0.705" font-size="0.016126" fill="hsl(0.0,100%,20%)">shrekshao</text>
<text x="0.320" y="0.615" font-size="0.011648" fill="hsl(0.0,100%,20%)">hckim.kim</text>
<text x="1.299" y="0.421" font-size="0.009510" fill="hsl(0.0,100%,20%)">j.vigil</text>
<text x="0.849" y="0.287" font-size="0.013023" fill="hsl(0.0,100%,20%)">jgilbert</text>
<text x="0.089" y="0.450" font-size="0.005824" fill="hsl(0.0,100%,20%)">deleted</text>
<text x="0.595" y="1.026" font-size="0.008236" fill="hsl(0.0,100%,20%)">jiawei.shao</text>
<text x="0.793" y="0.589" font-size="0.013023" fill="hsl(0.0,100%,20%)">jie.a.chen</text>
<text x="1.066" y="0.937" font-size="0.003362" fill="hsl(0.0,100%,20%)">amaiorano</text>
<text x="0.988" y="0.984" font-size="0.003362" fill="hsl(0.0,100%,20%)">le.hoang.q</text>
<text x="0.829" y="1.109" font-size="0.004755" fill="hsl(0.0,100%,20%)">brucedawson</text>
<text x="0.713" y="0.940" font-size="0.006725" fill="hsl(0.0,100%,20%)">thakis</text>
<text x="1.003" y="0.577" font-size="0.004755" fill="hsl(0.0,100%,20%)">kainino</text>
<text x="0.764" y="1.044" font-size="0.005824" fill="hsl(0.0,100%,20%)">matavenrath</text>
<text x="0.384" y="0.340" font-size="0.005824" fill="hsl(0.0,100%,20%)">khushalsagar</text>
<text x="0.572" y="0.268" font-size="0.005824" fill="hsl(0.0,100%,20%)">zmo</text>
<text x="0.871" y="0.294" font-size="0.018107" fill="hsl(0.0,100%,20%)">lehoangq</text>
<text x="1.026" y="0.433" font-size="0.020727" fill="hsl(0.0,100%,20%)">lujc</text>
<text x="0.359" y="0.848" font-size="0.012123" fill="hsl(0.0,100%,20%)">mihu</text>
<text x="0.901" y="-0.145" font-size="0.005824" fill="hsl(0.0,100%,20%)">shaobo.yan</text>
<text x="1.059" y="0.547" font-size="0.003362" fill="hsl(0.0,100%,20%)">jaedon1.lee</text>
<text x="1.181" y="0.315" font-size="0.010087" fill="hsl(0.0,100%,20%)">xinyi.he</text>
<text x="1.341" y="0.770" font-size="0.004755" fill="hsl(0.0,100%,20%)">sunny.sun</text>
<text x="1.308" y="0.843" font-size="0.003362" fill="hsl(0.0,100%,20%)">fei.yang</text>
<text x="1.451" y="0.712" font-size="0.003362" fill="hsl(0.0,100%,20%)">fjhenigman</text>
<text x="0.610" y="0.974" font-size="0.008896" fill="hsl(0.0,100%,20%)">thomasanderson</text>
<text x="1.235" y="0.737" font-size="0.010633" fill="hsl(0.0,100%,20%)">xinghua.cao</text>
</svg>
