<svg width="4000" height="2000" viewBox="-0.025 -0.025 2.05 1.05" xmlns="http://www.w3.org/2000/svg">
  <style>
    path {
      fill: none;
      stroke-linecap: round;
      stroke-opacity: 0.4;
    }

    text {
      text-anchor: middle;
      alignment-baseline: hanging;
    }
  </style>
  <g opacity="0.4">
<path d="M1.173 0.637 Q1.183 0.410 0.741 0.355" stroke="hsl(0.0,100%,35%)" stroke-width="0.00281"></path>
<path d="M1.173 0.637 Q1.093 0.513 0.834 0.525" stroke="hsl(0.0,100%,35%)" stroke-width="0.00205"></path>
<path d="M1.173 0.637 Q1.082 0.320 0.444 0.295" stroke="hsl(0.0,100%,35%)" stroke-width="0.00051"></path>
<path d="M1.173 0.637 Q1.913 0.544 1.894 0.163" stroke="hsl(0.0,100%,35%)" stroke-width="0.00026"></path>
<path d="M0.741 0.355 Q0.550 0.478 0.748 0.598" stroke="hsl(0.0,100%,35%)" stroke-width="0.00051"></path>
<path d="M0.741 0.355 Q0.840 0.413 0.975 0.377" stroke="hsl(0.0,100%,35%)" stroke-width="0.00128"></path>
<path d="M0.741 0.355 Q0.652 0.458 0.834 0.525" stroke="hsl(0.0,100%,35%)" stroke-width="0.06679"></path>
<path d="M0.741 0.355 Q0.505 0.423 0.586 0.553" stroke="hsl(0.0,100%,35%)" stroke-width="0.04760"></path>
<path d="M0.741 0.355 Q0.583 0.331 0.502 0.403" stroke="hsl(0.0,100%,35%)" stroke-width="0.00486"></path>
<path d="M0.741 0.355 Q0.640 0.266 0.444 0.295" stroke="hsl(0.0,100%,35%)" stroke-width="0.00947"></path>
<path d="M0.741 0.355 Q0.332 0.409 0.348 0.620" stroke="hsl(0.0,100%,35%)" stroke-width="0.00026"></path>
<path d="M0.741 0.355 Q0.554 0.562 0.916 0.699" stroke="hsl(0.0,100%,35%)" stroke-width="0.00333"></path>
<path d="M0.741 0.355 Q0.748 0.532 1.096 0.568" stroke="hsl(0.0,100%,35%)" stroke-width="0.00230"></path>
<path d="M0.741 0.355 Q0.974 0.358 1.031 0.245" stroke="hsl(0.0,100%,35%)" stroke-width="0.00051"></path>
<path d="M0.741 0.355 Q0.431 0.443 0.535 0.613" stroke="hsl(0.0,100%,35%)" stroke-width="0.00281"></path>
<path d="M0.741 0.355 Q1.293 0.604 1.899 0.389" stroke="hsl(0.0,100%,35%)" stroke-width="0.00128"></path>
<path d="M0.741 0.355 Q0.648 0.206 0.336 0.218" stroke="hsl(0.0,100%,35%)" stroke-width="0.00026"></path>
<path d="M0.741 0.355 Q0.484 0.442 0.598 0.587" stroke="hsl(0.0,100%,35%)" stroke-width="0.00077"></path>
<path d="M0.741 0.355 Q0.857 0.273 0.723 0.199" stroke="hsl(0.0,100%,35%)" stroke-width="0.00026"></path>
<path d="M0.741 0.355 Q0.982 0.794 1.891 0.773" stroke="hsl(0.0,100%,35%)" stroke-width="0.00026"></path>
<path d="M0.741 0.355 Q0.246 0.563 0.544 0.850" stroke="hsl(0.0,100%,35%)" stroke-width="0.00026"></path>
<path d="M0.741 0.355 Q0.317 0.429 0.369 0.653" stroke="hsl(0.0,100%,35%)" stroke-width="0.00026"></path>
<path d="M0.741 0.355 Q1.472 0.489 1.894 0.163" stroke="hsl(0.0,100%,35%)" stroke-width="0.00128"></path>
<path d="M0.741 0.355 Q0.330 0.446 0.416 0.666" stroke="hsl(0.0,100%,35%)" stroke-width="0.00026"></path>
<path d="M0.741 0.355 Q0.907 0.211 0.663 0.099" stroke="hsl(0.0,100%,35%)" stroke-width="0.00051"></path>
<path d="M0.741 0.355 Q0.927 0.110 0.489 -0.034" stroke="hsl(0.0,100%,35%)" stroke-width="0.00026"></path>
<path d="M0.834 0.525 Q0.923 0.421 0.741 0.355" stroke="hsl(0.0,100%,35%)" stroke-width="0.02943"></path>
<path d="M0.834 0.525 Q0.736 0.628 0.916 0.699" stroke="hsl(0.0,100%,35%)" stroke-width="0.02713"></path>
<path d="M0.834 0.525 Q0.822 0.332 0.444 0.295" stroke="hsl(0.0,100%,35%)" stroke-width="0.00307"></path>
<path d="M0.834 0.525 Q1.044 0.531 1.102 0.430" stroke="hsl(0.0,100%,35%)" stroke-width="0.00307"></path>
<path d="M0.834 0.525 Q1.475 0.670 1.899 0.389" stroke="hsl(0.0,100%,35%)" stroke-width="0.03224"></path>
<path d="M0.834 0.525 Q0.687 0.489 0.586 0.553" stroke="hsl(0.0,100%,35%)" stroke-width="0.03301"></path>
<path d="M0.834 0.525 Q1.039 0.340 0.723 0.199" stroke="hsl(0.0,100%,35%)" stroke-width="0.00026"></path>
<path d="M0.834 0.525 Q0.538 0.630 0.678 0.798" stroke="hsl(0.0,100%,35%)" stroke-width="0.00026"></path>
<path d="M0.834 0.525 Q0.830 0.272 0.336 0.218" stroke="hsl(0.0,100%,35%)" stroke-width="0.00051"></path>
<path d="M0.834 0.525 Q0.613 0.509 0.535 0.613" stroke="hsl(0.0,100%,35%)" stroke-width="0.00717"></path>
<path d="M0.834 0.525 Q1.246 0.634 1.549 0.457" stroke="hsl(0.0,100%,35%)" stroke-width="0.00026"></path>
<path d="M0.834 0.525 Q0.930 0.599 1.096 0.568" stroke="hsl(0.0,100%,35%)" stroke-width="0.00691"></path>
<path d="M0.834 0.525 Q1.654 0.556 1.894 0.163" stroke="hsl(0.0,100%,35%)" stroke-width="0.00026"></path>
<path d="M0.834 0.525 Q0.839 0.584 0.957 0.595" stroke="hsl(0.0,100%,35%)" stroke-width="0.00077"></path>
<path d="M0.834 0.525 Q0.765 0.398 0.502 0.403" stroke="hsl(0.0,100%,35%)" stroke-width="0.00102"></path>
<path d="M0.834 0.525 Q0.557 0.547 0.539 0.686" stroke="hsl(0.0,100%,35%)" stroke-width="0.00026"></path>
<path d="M0.834 0.525 Q1.048 0.655 1.349 0.579" stroke="hsl(0.0,100%,35%)" stroke-width="0.00154"></path>
<path d="M0.834 0.525 Q0.803 0.579 0.902 0.606" stroke="hsl(0.0,100%,35%)" stroke-width="0.00026"></path>
<path d="M0.834 0.525 Q1.417 0.385 1.273 0.070" stroke="hsl(0.0,100%,35%)" stroke-width="0.00026"></path>
<path d="M0.834 0.525 Q0.514 0.475 0.348 0.620" stroke="hsl(0.0,100%,35%)" stroke-width="0.00026"></path>
<path d="M0.834 0.525 Q1.022 0.479 0.975 0.377" stroke="hsl(0.0,100%,35%)" stroke-width="0.00026"></path>
<path d="M0.834 0.525 Q0.781 0.731 1.172 0.803" stroke="hsl(0.0,100%,35%)" stroke-width="0.00026"></path>
<path d="M0.444 0.295 Q0.545 0.385 0.741 0.355" stroke="hsl(0.0,100%,35%)" stroke-width="0.01459"></path>
<path d="M0.444 0.295 Q0.455 0.488 0.834 0.525" stroke="hsl(0.0,100%,35%)" stroke-width="0.02073"></path>
<path d="M0.444 0.295 Q0.354 0.507 0.748 0.598" stroke="hsl(0.0,100%,35%)" stroke-width="0.00026"></path>
<path d="M0.444 0.295 Q0.309 0.452 0.586 0.553" stroke="hsl(0.0,100%,35%)" stroke-width="0.01228"></path>
<path d="M0.444 0.295 Q0.387 0.361 0.502 0.403" stroke="hsl(0.0,100%,35%)" stroke-width="0.00614"></path>
<path d="M0.444 0.295 Q0.452 0.235 0.336 0.218" stroke="hsl(0.0,100%,35%)" stroke-width="0.00026"></path>
<path d="M0.444 0.295 Q0.644 0.442 0.975 0.377" stroke="hsl(0.0,100%,35%)" stroke-width="0.00026"></path>
<path d="M0.444 0.295 Q1.096 0.633 1.899 0.389" stroke="hsl(0.0,100%,35%)" stroke-width="0.00179"></path>
<path d="M0.444 0.295 Q0.552 0.562 1.096 0.568" stroke="hsl(0.0,100%,35%)" stroke-width="0.00077"></path>
<path d="M1.894 0.163 Q1.164 0.028 0.741 0.355" stroke="hsl(180.0,100%,35%)" stroke-width="0.00281"></path>
<path d="M1.894 0.163 Q1.754 0.119 1.638 0.177" stroke="hsl(180.0,100%,35%)" stroke-width="0.00026"></path>
<path d="M1.894 0.163 Q0.976 0.235 0.916 0.699" stroke="hsl(180.0,100%,35%)" stroke-width="0.00154"></path>
<path d="M1.894 0.163 Q1.074 0.132 0.834 0.525" stroke="hsl(180.0,100%,35%)" stroke-width="0.00230"></path>
<path d="M1.894 0.163 Q1.815 0.180 1.832 0.223" stroke="hsl(180.0,100%,35%)" stroke-width="0.00026"></path>
<path d="M1.894 0.163 Q0.928 0.096 0.586 0.553" stroke="hsl(180.0,100%,35%)" stroke-width="0.00026"></path>
<path d="M1.894 0.163 Q0.854 0.116 0.535 0.613" stroke="hsl(180.0,100%,35%)" stroke-width="0.00051"></path>
<path d="M1.894 0.163 Q1.899 0.029 1.638 -0.003" stroke="hsl(180.0,100%,35%)" stroke-width="0.00026"></path>
<path d="M1.894 0.163 Q1.715 0.277 1.899 0.389" stroke="hsl(180.0,100%,35%)" stroke-width="0.00051"></path>
<path d="M1.894 0.163 Q1.171 0.206 1.096 0.568" stroke="hsl(180.0,100%,35%)" stroke-width="0.00026"></path>
<path d="M0.990 0.113 Q1.087 0.099 1.082 0.049" stroke="hsl(180.0,100%,35%)" stroke-width="0.00128"></path>
<path d="M0.990 0.113 Q0.582 0.287 0.834 0.525" stroke="hsl(180.0,100%,35%)" stroke-width="0.00128"></path>
<path d="M0.990 0.113 Q0.679 0.361 1.096 0.568" stroke="hsl(180.0,100%,35%)" stroke-width="0.00051"></path>
<path d="M1.096 0.568 Q1.375 0.559 1.419 0.421" stroke="hsl(180.0,100%,35%)" stroke-width="0.00026"></path>
<path d="M1.096 0.568 Q1.089 0.390 0.741 0.355" stroke="hsl(180.0,100%,35%)" stroke-width="0.00230"></path>
<path d="M1.096 0.568 Q0.999 0.494 0.834 0.525" stroke="hsl(180.0,100%,35%)" stroke-width="0.00640"></path>
<path d="M1.096 0.568 Q1.205 0.309 0.723 0.199" stroke="hsl(180.0,100%,35%)" stroke-width="0.00179"></path>
<path d="M1.096 0.568 Q1.819 0.525 1.894 0.163" stroke="hsl(180.0,100%,35%)" stroke-width="0.00128"></path>
<path d="M1.096 0.568 Q1.387 0.503 1.326 0.347" stroke="hsl(180.0,100%,35%)" stroke-width="0.00026"></path>
<path d="M1.096 0.568 Q0.853 0.458 0.586 0.553" stroke="hsl(180.0,100%,35%)" stroke-width="0.00102"></path>
<path d="M1.096 0.568 Q0.665 0.465 0.369 0.653" stroke="hsl(180.0,100%,35%)" stroke-width="0.00026"></path>
<path d="M1.096 0.568 Q0.779 0.478 0.535 0.613" stroke="hsl(180.0,100%,35%)" stroke-width="0.00179"></path>
<path d="M1.096 0.568 Q0.703 0.599 0.678 0.798" stroke="hsl(180.0,100%,35%)" stroke-width="0.00026"></path>
<path d="M1.096 0.568 Q1.188 0.448 0.975 0.377" stroke="hsl(180.0,100%,35%)" stroke-width="0.00026"></path>
<path d="M1.096 0.568 Q1.191 0.670 1.411 0.645" stroke="hsl(180.0,100%,35%)" stroke-width="0.00026"></path>
<path d="M1.096 0.568 Q0.988 0.301 0.444 0.295" stroke="hsl(180.0,100%,35%)" stroke-width="0.00051"></path>
<path d="M1.096 0.568 Q0.901 0.597 0.916 0.699" stroke="hsl(180.0,100%,35%)" stroke-width="0.00026"></path>
<path d="M0.967 0.411 Q0.810 0.441 0.834 0.525" stroke="hsl(0.0,100%,35%)" stroke-width="0.00102"></path>
<path d="M0.967 0.411 Q0.899 0.338 0.741 0.355" stroke="hsl(0.0,100%,35%)" stroke-width="0.00077"></path>
<path d="M0.967 0.411 Q0.663 0.406 0.586 0.553" stroke="hsl(0.0,100%,35%)" stroke-width="0.00026"></path>
<path d="M0.586 0.553 Q0.732 0.588 0.834 0.525" stroke="hsl(0.0,100%,35%)" stroke-width="0.01510"></path>
<path d="M0.586 0.553 Q0.822 0.485 0.741 0.355" stroke="hsl(0.0,100%,35%)" stroke-width="0.00947"></path>
<path d="M0.586 0.553 Q1.373 0.734 1.899 0.389" stroke="hsl(0.0,100%,35%)" stroke-width="0.00717"></path>
<path d="M0.586 0.553 Q0.664 0.461 0.502 0.403" stroke="hsl(0.0,100%,35%)" stroke-width="0.00179"></path>
<path d="M0.586 0.553 Q0.812 0.712 1.173 0.637" stroke="hsl(0.0,100%,35%)" stroke-width="0.00026"></path>
<path d="M0.586 0.553 Q0.721 0.396 0.444 0.295" stroke="hsl(0.0,100%,35%)" stroke-width="0.00384"></path>
<path d="M0.586 0.553 Q0.503 0.523 0.425 0.557" stroke="hsl(0.0,100%,35%)" stroke-width="0.00051"></path>
<path d="M0.586 0.553 Q0.829 0.662 1.096 0.568" stroke="hsl(0.0,100%,35%)" stroke-width="0.00384"></path>
<path d="M0.586 0.553 Q0.634 0.692 0.916 0.699" stroke="hsl(0.0,100%,35%)" stroke-width="0.00077"></path>
<path d="M1.082 0.183 Q0.685 0.304 0.834 0.525" stroke="hsl(0.0,100%,35%)" stroke-width="0.00154"></path>
<path d="M1.082 0.183 Q0.774 0.201 0.741 0.355" stroke="hsl(0.0,100%,35%)" stroke-width="0.00179"></path>
<path d="M1.082 0.183 Q0.873 0.259 0.975 0.377" stroke="hsl(0.0,100%,35%)" stroke-width="0.00026"></path>
<path d="M1.082 0.183 Q1.174 0.254 1.332 0.225" stroke="hsl(0.0,100%,35%)" stroke-width="0.00026"></path>
<path d="M1.082 0.183 Q1.063 0.231 1.153 0.251" stroke="hsl(0.0,100%,35%)" stroke-width="0.00026"></path>
<path d="M1.082 0.183 Q0.616 0.177 0.502 0.403" stroke="hsl(0.0,100%,35%)" stroke-width="0.00026"></path>
<path d="M0.975 0.377 Q0.876 0.319 0.741 0.355" stroke="hsl(0.0,100%,35%)" stroke-width="0.01894"></path>
<path d="M0.975 0.377 Q0.775 0.230 0.444 0.295" stroke="hsl(0.0,100%,35%)" stroke-width="0.00051"></path>
<path d="M0.975 0.377 Q0.786 0.423 0.834 0.525" stroke="hsl(0.0,100%,35%)" stroke-width="0.01919"></path>
<path d="M0.975 0.377 Q0.640 0.387 0.586 0.553" stroke="hsl(0.0,100%,35%)" stroke-width="0.00154"></path>
<path d="M0.975 0.377 Q0.883 0.497 1.096 0.568" stroke="hsl(0.0,100%,35%)" stroke-width="0.00051"></path>
<path d="M0.502 0.403 Q0.571 0.530 0.834 0.525" stroke="hsl(0.0,100%,35%)" stroke-width="0.00333"></path>
<path d="M0.502 0.403 Q0.651 0.654 1.173 0.637" stroke="hsl(0.0,100%,35%)" stroke-width="0.00026"></path>
<path d="M0.502 0.403 Q0.341 0.465 0.425 0.557" stroke="hsl(0.0,100%,35%)" stroke-width="0.00026"></path>
<path d="M0.502 0.403 Q0.661 0.427 0.741 0.355" stroke="hsl(0.0,100%,35%)" stroke-width="0.00486"></path>
<path d="M0.502 0.403 Q0.560 0.338 0.444 0.295" stroke="hsl(0.0,100%,35%)" stroke-width="0.00051"></path>
<path d="M0.502 0.403 Q0.567 0.278 0.336 0.218" stroke="hsl(0.0,100%,35%)" stroke-width="0.00026"></path>
<path d="M0.502 0.403 Q0.425 0.495 0.586 0.553" stroke="hsl(0.0,100%,35%)" stroke-width="0.00333"></path>
<path d="M0.502 0.403 Q0.781 0.537 1.102 0.430" stroke="hsl(0.0,100%,35%)" stroke-width="0.00026"></path>
<path d="M0.502 0.403 Q0.473 0.634 0.916 0.699" stroke="hsl(0.0,100%,35%)" stroke-width="0.00179"></path>
<path d="M0.502 0.403 Q1.212 0.676 1.899 0.389" stroke="hsl(0.0,100%,35%)" stroke-width="0.00307"></path>
<path d="M0.502 0.403 Q0.667 0.604 1.096 0.568" stroke="hsl(0.0,100%,35%)" stroke-width="0.00077"></path>
<path d="M0.502 0.403 Q0.710 0.335 0.623 0.219" stroke="hsl(0.0,100%,35%)" stroke-width="0.00026"></path>
<path d="M0.502 0.403 Q0.771 0.374 0.772 0.236" stroke="hsl(0.0,100%,35%)" stroke-width="0.00077"></path>
<path d="M0.502 0.403 Q1.391 0.561 1.894 0.163" stroke="hsl(0.0,100%,35%)" stroke-width="0.00026"></path>
<path d="M0.478 0.417 Q0.660 0.439 0.741 0.355" stroke="hsl(0.0,100%,35%)" stroke-width="0.00665"></path>
<path d="M0.478 0.417 Q0.570 0.542 0.834 0.525" stroke="hsl(0.0,100%,35%)" stroke-width="0.00640"></path>
<path d="M0.478 0.417 Q0.424 0.507 0.586 0.553" stroke="hsl(0.0,100%,35%)" stroke-width="0.00205"></path>
<path d="M0.478 0.417 Q0.759 0.497 0.975 0.377" stroke="hsl(0.0,100%,35%)" stroke-width="0.00026"></path>
<path d="M1.222 0.124 Q0.804 0.321 1.096 0.568" stroke="hsl(180.0,100%,35%)" stroke-width="0.00026"></path>
<path d="M1.222 0.124 Q0.707 0.247 0.834 0.525" stroke="hsl(180.0,100%,35%)" stroke-width="0.00026"></path>
<path d="M1.222 0.124 Q0.797 0.143 0.741 0.355" stroke="hsl(180.0,100%,35%)" stroke-width="0.00026"></path>
<path d="M0.748 0.598 Q0.849 0.578 0.834 0.525" stroke="hsl(0.0,100%,35%)" stroke-width="0.00154"></path>
<path d="M0.748 0.598 Q0.939 0.475 0.741 0.355" stroke="hsl(0.0,100%,35%)" stroke-width="0.00026"></path>
<path d="M0.748 0.598 Q0.946 0.653 1.096 0.568" stroke="hsl(0.0,100%,35%)" stroke-width="0.00051"></path>
<path d="M0.336 0.218 Q0.329 0.278 0.444 0.295" stroke="hsl(0.0,100%,35%)" stroke-width="0.00409"></path>
<path d="M0.336 0.218 Q0.436 0.545 1.096 0.568" stroke="hsl(0.0,100%,35%)" stroke-width="0.00026"></path>
<path d="M0.336 0.218 Q0.981 0.617 1.899 0.389" stroke="hsl(0.0,100%,35%)" stroke-width="0.00026"></path>
<path d="M0.336 0.218 Q0.340 0.471 0.834 0.525" stroke="hsl(0.0,100%,35%)" stroke-width="0.00435"></path>
<path d="M0.336 0.218 Q0.430 0.368 0.741 0.355" stroke="hsl(0.0,100%,35%)" stroke-width="0.00256"></path>
<path d="M0.336 0.218 Q0.194 0.436 0.586 0.553" stroke="hsl(0.0,100%,35%)" stroke-width="0.00154"></path>
<path d="M1.899 0.389 Q1.348 0.141 0.741 0.355" stroke="hsl(0.0,100%,35%)" stroke-width="0.00384"></path>
<path d="M1.899 0.389 Q1.157 0.263 0.748 0.598" stroke="hsl(0.0,100%,35%)" stroke-width="0.00026"></path>
<path d="M1.899 0.389 Q1.258 0.244 0.834 0.525" stroke="hsl(0.0,100%,35%)" stroke-width="0.02124"></path>
<path d="M1.899 0.389 Q1.112 0.209 0.586 0.553" stroke="hsl(0.0,100%,35%)" stroke-width="0.01663"></path>
<path d="M1.899 0.389 Q1.190 0.117 0.502 0.403" stroke="hsl(0.0,100%,35%)" stroke-width="0.00051"></path>
<path d="M1.899 0.389 Q1.255 -0.009 0.336 0.218" stroke="hsl(0.0,100%,35%)" stroke-width="0.00077"></path>
<path d="M1.899 0.389 Q1.160 0.348 0.916 0.699" stroke="hsl(0.0,100%,35%)" stroke-width="0.00051"></path>
<path d="M1.899 0.389 Q2.068 0.187 1.709 0.060" stroke="hsl(0.0,100%,35%)" stroke-width="0.00026"></path>
<path d="M1.899 0.389 Q1.447 0.199 0.975 0.377" stroke="hsl(0.0,100%,35%)" stroke-width="0.00051"></path>
<path d="M1.899 0.389 Q1.247 0.051 0.444 0.295" stroke="hsl(0.0,100%,35%)" stroke-width="0.00051"></path>
<path d="M1.899 0.389 Q1.781 0.331 1.641 0.376" stroke="hsl(0.0,100%,35%)" stroke-width="0.00026"></path>
<path d="M0.554 0.425 Q0.603 0.338 0.444 0.295" stroke="hsl(0.0,100%,35%)" stroke-width="0.00026"></path>
<path d="M0.554 0.425 Q0.704 0.428 0.741 0.355" stroke="hsl(0.0,100%,35%)" stroke-width="0.00154"></path>
<path d="M0.554 0.425 Q0.614 0.531 0.834 0.525" stroke="hsl(0.0,100%,35%)" stroke-width="0.00128"></path>
<path d="M0.554 0.425 Q0.279 0.502 0.369 0.653" stroke="hsl(0.0,100%,35%)" stroke-width="0.00026"></path>
<path d="M0.554 0.425 Q0.468 0.496 0.586 0.553" stroke="hsl(0.0,100%,35%)" stroke-width="0.00026"></path>
<path d="M0.916 0.699 Q0.847 0.579 0.598 0.587" stroke="hsl(0.0,100%,35%)" stroke-width="0.00051"></path>
<path d="M0.916 0.699 Q1.014 0.595 0.834 0.525" stroke="hsl(0.0,100%,35%)" stroke-width="0.01356"></path>
<path d="M0.916 0.699 Q1.104 0.492 0.741 0.355" stroke="hsl(0.0,100%,35%)" stroke-width="0.00128"></path>
<path d="M0.916 0.699 Q1.834 0.626 1.894 0.163" stroke="hsl(0.0,100%,35%)" stroke-width="0.00026"></path>
<path d="M0.916 0.699 Q0.868 0.560 0.586 0.553" stroke="hsl(0.0,100%,35%)" stroke-width="0.00026"></path>
<path d="M0.916 0.699 Q0.946 0.468 0.502 0.403" stroke="hsl(0.0,100%,35%)" stroke-width="0.00077"></path>
<path d="M0.916 0.699 Q0.794 0.580 0.535 0.613" stroke="hsl(0.0,100%,35%)" stroke-width="0.00077"></path>
<path d="M0.916 0.699 Q1.345 0.931 1.891 0.773" stroke="hsl(0.0,100%,35%)" stroke-width="0.00026"></path>
<path d="M1.002 0.208 Q0.665 0.333 0.834 0.525" stroke="hsl(0.0,100%,35%)" stroke-width="0.00051"></path>
<path d="M1.002 0.208 Q0.754 0.229 0.741 0.355" stroke="hsl(0.0,100%,35%)" stroke-width="0.00051"></path>
<path d="M1.002 0.208 Q0.566 0.436 0.916 0.699" stroke="hsl(0.0,100%,35%)" stroke-width="0.00026"></path>
<path d="M0.723 0.199 Q0.607 0.280 0.741 0.355" stroke="hsl(180.0,100%,35%)" stroke-width="0.00461"></path>
<path d="M0.723 0.199 Q0.518 0.384 0.834 0.525" stroke="hsl(180.0,100%,35%)" stroke-width="0.00435"></path>
<path d="M0.723 0.199 Q0.614 0.458 1.096 0.568" stroke="hsl(180.0,100%,35%)" stroke-width="0.00461"></path>
<path d="M0.723 0.199 Q0.297 0.368 0.535 0.613" stroke="hsl(180.0,100%,35%)" stroke-width="0.00102"></path>
<path d="M0.723 0.199 Q1.338 0.415 1.894 0.163" stroke="hsl(180.0,100%,35%)" stroke-width="0.00026"></path>
<path d="M0.535 0.613 Q0.845 0.525 0.741 0.355" stroke="hsl(180.0,100%,35%)" stroke-width="0.00281"></path>
<path d="M0.535 0.613 Q0.852 0.703 1.096 0.568" stroke="hsl(180.0,100%,35%)" stroke-width="0.00230"></path>
<path d="M0.535 0.613 Q1.575 0.660 1.894 0.163" stroke="hsl(180.0,100%,35%)" stroke-width="0.00179"></path>
<path d="M0.535 0.613 Q0.755 0.629 0.834 0.525" stroke="hsl(180.0,100%,35%)" stroke-width="0.00512"></path>
<path d="M0.535 0.613 Q0.657 0.732 0.916 0.699" stroke="hsl(180.0,100%,35%)" stroke-width="0.00154"></path>
<path d="M0.535 0.613 Q1.435 0.616 1.638 0.177" stroke="hsl(180.0,100%,35%)" stroke-width="0.00077"></path>
<path d="M0.535 0.613 Q0.609 0.593 0.586 0.553" stroke="hsl(180.0,100%,35%)" stroke-width="0.00026"></path>
<path d="M0.535 0.613 Q1.396 0.774 1.899 0.389" stroke="hsl(180.0,100%,35%)" stroke-width="0.00026"></path>
<path d="M0.678 0.798 Q1.715 0.741 1.832 0.223" stroke="hsl(180.0,100%,35%)" stroke-width="0.00128"></path>
<path d="M0.678 0.798 Q1.794 0.723 1.894 0.163" stroke="hsl(180.0,100%,35%)" stroke-width="0.00409"></path>
<path d="M0.678 0.798 Q1.064 0.589 0.741 0.355" stroke="hsl(180.0,100%,35%)" stroke-width="0.00128"></path>
<path d="M0.678 0.798 Q0.974 0.692 0.834 0.525" stroke="hsl(180.0,100%,35%)" stroke-width="0.00870"></path>
<path d="M0.678 0.798 Q1.654 0.679 1.638 0.177" stroke="hsl(180.0,100%,35%)" stroke-width="0.00026"></path>
<path d="M0.678 0.798 Q0.876 0.796 0.916 0.699" stroke="hsl(180.0,100%,35%)" stroke-width="0.00026"></path>
<path d="M0.678 0.798 Q1.071 0.766 1.096 0.568" stroke="hsl(180.0,100%,35%)" stroke-width="0.00230"></path>
<path d="M0.678 0.798 Q0.541 0.847 0.607 0.924" stroke="hsl(180.0,100%,35%)" stroke-width="0.00077"></path>
<path d="M0.678 0.798 Q0.754 0.677 0.535 0.613" stroke="hsl(180.0,100%,35%)" stroke-width="0.00051"></path>
<path d="M1.349 0.579 Q1.135 0.449 0.834 0.525" stroke="hsl(0.0,100%,35%)" stroke-width="0.03787"></path>
<path d="M1.349 0.579 Q1.776 0.594 1.899 0.389" stroke="hsl(0.0,100%,35%)" stroke-width="0.02713"></path>
<path d="M1.349 0.579 Q0.988 0.413 0.586 0.553" stroke="hsl(0.0,100%,35%)" stroke-width="0.00102"></path>
<path d="M1.349 0.579 Q0.914 0.433 0.535 0.613" stroke="hsl(0.0,100%,35%)" stroke-width="0.00026"></path>
<path d="M1.349 0.579 Q1.225 0.346 0.741 0.355" stroke="hsl(0.0,100%,35%)" stroke-width="0.00026"></path>
<path d="M1.349 0.579 Q1.231 0.523 1.096 0.568" stroke="hsl(0.0,100%,35%)" stroke-width="0.00051"></path>
<path d="M1.638 0.177 Q0.958 0.190 0.834 0.525" stroke="hsl(180.0,100%,35%)" stroke-width="0.00333"></path>
<path d="M1.638 0.177 Q1.778 0.221 1.894 0.163" stroke="hsl(180.0,100%,35%)" stroke-width="0.00972"></path>
<path d="M1.638 0.177 Q1.698 0.239 1.832 0.223" stroke="hsl(180.0,100%,35%)" stroke-width="0.00154"></path>
<path d="M1.638 0.177 Q1.048 0.087 0.741 0.355" stroke="hsl(180.0,100%,35%)" stroke-width="0.00461"></path>
<path d="M1.638 0.177 Q0.860 0.294 0.916 0.699" stroke="hsl(180.0,100%,35%)" stroke-width="0.00102"></path>
<path d="M1.638 0.177 Q0.737 0.175 0.535 0.613" stroke="hsl(180.0,100%,35%)" stroke-width="0.00077"></path>
<path d="M1.638 0.177 Q1.054 0.264 1.096 0.568" stroke="hsl(180.0,100%,35%)" stroke-width="0.00051"></path>
<path d="M1.638 0.177 Q1.768 0.133 1.709 0.060" stroke="hsl(180.0,100%,35%)" stroke-width="0.00026"></path>
<path d="M1.832 0.223 Q1.911 0.205 1.894 0.163" stroke="hsl(180.0,100%,35%)" stroke-width="0.00537"></path>
<path d="M1.832 0.223 Q1.181 0.071 0.741 0.355" stroke="hsl(180.0,100%,35%)" stroke-width="0.00102"></path>
<path d="M1.832 0.223 Q1.771 0.161 1.638 0.177" stroke="hsl(180.0,100%,35%)" stroke-width="0.00307"></path>
<path d="M1.832 0.223 Q1.188 0.248 1.096 0.568" stroke="hsl(180.0,100%,35%)" stroke-width="0.00205"></path>
<path d="M1.832 0.223 Q0.795 0.280 0.678 0.798" stroke="hsl(180.0,100%,35%)" stroke-width="0.00102"></path>
<path d="M1.832 0.223 Q1.091 0.174 0.834 0.525" stroke="hsl(180.0,100%,35%)" stroke-width="0.00026"></path>
<path d="M1.832 0.223 Q0.945 0.139 0.586 0.553" stroke="hsl(180.0,100%,35%)" stroke-width="0.00026"></path>
<path d="M1.832 0.223 Q0.658 0.329 0.607 0.924" stroke="hsl(180.0,100%,35%)" stroke-width="0.00051"></path>
<path d="M1.832 0.223 Q0.871 0.159 0.535 0.613" stroke="hsl(180.0,100%,35%)" stroke-width="0.00179"></path>
<path d="M0.369 0.431 Q0.616 0.467 0.741 0.355" stroke="hsl(0.0,100%,35%)" stroke-width="0.00051"></path>
<path d="M0.369 0.431 Q0.515 0.378 0.444 0.295" stroke="hsl(0.0,100%,35%)" stroke-width="0.00077"></path>
<path d="M0.369 0.431 Q0.522 0.318 0.336 0.218" stroke="hsl(0.0,100%,35%)" stroke-width="0.00026"></path>
<path d="M0.369 0.431 Q1.167 0.716 1.899 0.389" stroke="hsl(0.0,100%,35%)" stroke-width="0.00026"></path>
<path d="M1.653 0.678 Q1.697 0.773 1.891 0.773" stroke="hsl(180.0,100%,35%)" stroke-width="0.00051"></path>
<path d="M1.653 0.678 Q1.456 0.334 0.741 0.355" stroke="hsl(180.0,100%,35%)" stroke-width="0.00026"></path>
<path d="M1.653 0.678 Q1.366 0.438 0.834 0.525" stroke="hsl(180.0,100%,35%)" stroke-width="0.00026"></path>
<path d="M0.425 0.557 Q1.212 0.003 0.305 -0.502" stroke="hsl(0.0,100%,35%)" stroke-width="0.00026"></path>
<path d="M0.425 0.557 Q0.745 0.519 0.741 0.355" stroke="hsl(0.0,100%,35%)" stroke-width="0.00051"></path>
<path d="M0.425 0.557 Q0.644 0.430 0.444 0.295" stroke="hsl(0.0,100%,35%)" stroke-width="0.00026"></path>
<path d="M0.425 0.557 Q0.655 0.622 0.834 0.525" stroke="hsl(0.0,100%,35%)" stroke-width="0.00051"></path>
<path d="M0.425 0.557 Q0.751 0.696 1.096 0.568" stroke="hsl(0.0,100%,35%)" stroke-width="0.00051"></path>
<path d="M0.425 0.557 Q0.509 0.587 0.586 0.553" stroke="hsl(0.0,100%,35%)" stroke-width="0.00051"></path>
<path d="M0.425 0.557 Q0.335 0.573 0.348 0.620" stroke="hsl(0.0,100%,35%)" stroke-width="0.00026"></path>
<path d="M1.102 0.430 Q1.533 0.569 1.899 0.389" stroke="hsl(0.0,100%,35%)" stroke-width="0.00128"></path>
<path d="M1.102 0.430 Q0.982 0.320 0.741 0.355" stroke="hsl(0.0,100%,35%)" stroke-width="0.00256"></path>
<path d="M1.102 0.430 Q0.746 0.388 0.586 0.553" stroke="hsl(0.0,100%,35%)" stroke-width="0.00179"></path>
<path d="M1.102 0.430 Q0.888 0.171 0.336 0.218" stroke="hsl(0.0,100%,35%)" stroke-width="0.00026"></path>
<path d="M1.102 0.430 Q0.881 0.231 0.444 0.295" stroke="hsl(0.0,100%,35%)" stroke-width="0.00026"></path>
<path d="M1.102 0.430 Q0.892 0.424 0.834 0.525" stroke="hsl(0.0,100%,35%)" stroke-width="0.00128"></path>
<path d="M1.102 0.430 Q0.988 0.498 1.096 0.568" stroke="hsl(0.0,100%,35%)" stroke-width="0.00026"></path>
<path d="M1.102 0.430 Q0.823 0.297 0.502 0.403" stroke="hsl(0.0,100%,35%)" stroke-width="0.00026"></path>
<path d="M0.772 0.236 Q0.503 0.266 0.502 0.403" stroke="hsl(0.0,100%,35%)" stroke-width="0.00102"></path>
<path d="M0.772 0.236 Q0.661 0.289 0.741 0.355" stroke="hsl(0.0,100%,35%)" stroke-width="0.00026"></path>
<path d="M0.772 0.236 Q1.213 0.538 1.899 0.389" stroke="hsl(0.0,100%,35%)" stroke-width="0.00051"></path>
<path d="M0.772 0.236 Q0.572 0.393 0.834 0.525" stroke="hsl(0.0,100%,35%)" stroke-width="0.00026"></path>
<path d="M0.186 0.559 Q0.537 0.671 0.834 0.525" stroke="hsl(0.0,100%,35%)" stroke-width="0.00230"></path>
<path d="M0.186 0.559 Q0.627 0.568 0.741 0.355" stroke="hsl(0.0,100%,35%)" stroke-width="0.00307"></path>
<path d="M0.186 0.559 Q0.634 0.745 1.096 0.568" stroke="hsl(0.0,100%,35%)" stroke-width="0.00051"></path>
<path d="M0.416 0.666 Q0.828 0.576 0.741 0.355" stroke="hsl(0.0,100%,35%)" stroke-width="0.00026"></path>
<path d="M0.416 0.666 Q0.738 0.679 0.834 0.525" stroke="hsl(0.0,100%,35%)" stroke-width="0.00102"></path>
<path d="M0.416 0.666 Q0.835 0.753 1.096 0.568" stroke="hsl(0.0,100%,35%)" stroke-width="0.00051"></path>
<path d="M1.549 0.457 Q1.778 0.493 1.899 0.389" stroke="hsl(0.0,100%,35%)" stroke-width="0.02022"></path>
<path d="M1.549 0.457 Q1.137 0.348 0.834 0.525" stroke="hsl(0.0,100%,35%)" stroke-width="0.02098"></path>
<path d="M1.549 0.457 Q0.990 0.312 0.586 0.553" stroke="hsl(0.0,100%,35%)" stroke-width="0.00077"></path>
<path d="M1.549 0.457 Q1.226 0.244 0.741 0.355" stroke="hsl(0.0,100%,35%)" stroke-width="0.00128"></path>
<path d="M1.549 0.457 Q1.325 0.302 0.975 0.377" stroke="hsl(0.0,100%,35%)" stroke-width="0.00026"></path>
<path d="M1.549 0.457 Q1.233 0.422 1.096 0.568" stroke="hsl(0.0,100%,35%)" stroke-width="0.00026"></path>
<path d="M1.388 0.041 Q0.813 0.068 0.741 0.355" stroke="hsl(180.0,100%,35%)" stroke-width="0.00026"></path>
<path d="M1.388 0.041 Q1.543 0.203 1.894 0.163" stroke="hsl(180.0,100%,35%)" stroke-width="0.00077"></path>
<path d="M1.388 0.041 Q1.464 0.221 1.832 0.223" stroke="hsl(180.0,100%,35%)" stroke-width="0.00026"></path>
<path d="M1.388 0.041 Q0.503 0.156 0.535 0.613" stroke="hsl(180.0,100%,35%)" stroke-width="0.00026"></path>
<path d="M1.562 0.284 Q1.646 0.404 1.899 0.389" stroke="hsl(0.0,100%,35%)" stroke-width="0.01049"></path>
<path d="M1.562 0.284 Q1.005 0.259 0.834 0.525" stroke="hsl(0.0,100%,35%)" stroke-width="0.01203"></path>
<path d="M1.562 0.284 Q1.102 0.333 1.096 0.568" stroke="hsl(0.0,100%,35%)" stroke-width="0.00026"></path>
<path d="M1.267 0.110 Q0.719 0.231 0.834 0.525" stroke="hsl(180.0,100%,35%)" stroke-width="0.00026"></path>
<path d="M1.267 0.110 Q1.539 0.262 1.894 0.163" stroke="hsl(180.0,100%,35%)" stroke-width="0.00128"></path>
<path d="M1.267 0.110 Q1.383 0.100 1.388 0.041" stroke="hsl(180.0,100%,35%)" stroke-width="0.00128"></path>
<path d="M0.573 0.844 Q1.049 0.633 0.741 0.355" stroke="hsl(0.0,100%,35%)" stroke-width="0.00026"></path>
<path d="M0.573 0.844 Q1.055 0.810 1.096 0.568" stroke="hsl(0.0,100%,35%)" stroke-width="0.00026"></path>
<path d="M0.573 0.844 Q0.959 0.736 0.834 0.525" stroke="hsl(0.0,100%,35%)" stroke-width="0.00026"></path>
<path d="M0.573 0.844 Q0.812 0.701 0.586 0.553" stroke="hsl(0.0,100%,35%)" stroke-width="0.00026"></path>
<path d="M1.120 0.575 Q1.017 0.493 0.834 0.525" stroke="hsl(0.0,100%,35%)" stroke-width="0.00102"></path>
<path d="M1.120 0.575 Q0.797 0.477 0.535 0.613" stroke="hsl(0.0,100%,35%)" stroke-width="0.00026"></path>
<path d="M1.120 0.575 Q1.837 0.524 1.894 0.163" stroke="hsl(0.0,100%,35%)" stroke-width="0.00026"></path>
<path d="M0.180 0.172 Q0.865 0.624 1.899 0.389" stroke="hsl(0.0,100%,35%)" stroke-width="0.00026"></path>
<path d="M0.180 0.172 Q0.213 0.286 0.444 0.295" stroke="hsl(0.0,100%,35%)" stroke-width="0.00026"></path>
<path d="M0.180 0.172 Q0.126 0.583 0.916 0.699" stroke="hsl(0.0,100%,35%)" stroke-width="0.00026"></path>
<path d="M0.180 0.172 Q0.224 0.479 0.834 0.525" stroke="hsl(0.0,100%,35%)" stroke-width="0.00026"></path>
<path d="M0.180 0.172 Q0.314 0.376 0.741 0.355" stroke="hsl(0.0,100%,35%)" stroke-width="0.00026"></path>
<path d="M1.295 0.419 Q1.069 0.276 0.741 0.355" stroke="hsl(180.0,100%,35%)" stroke-width="0.00102"></path>
<path d="M1.295 0.419 Q0.759 0.364 0.535 0.613" stroke="hsl(180.0,100%,35%)" stroke-width="0.00051"></path>
<path d="M1.295 0.419 Q0.882 0.483 0.916 0.699" stroke="hsl(180.0,100%,35%)" stroke-width="0.00026"></path>
<path d="M1.295 0.419 Q1.076 0.454 1.096 0.568" stroke="hsl(180.0,100%,35%)" stroke-width="0.00051"></path>
<path d="M0.898 0.021 Q0.463 0.260 0.834 0.525" stroke="hsl(180.0,100%,35%)" stroke-width="0.00026"></path>
<path d="M0.898 0.021 Q0.968 0.072 1.082 0.049" stroke="hsl(180.0,100%,35%)" stroke-width="0.00026"></path>
<path d="M0.898 0.021 Q0.559 0.334 1.096 0.568" stroke="hsl(180.0,100%,35%)" stroke-width="0.00026"></path>
<path d="M0.684 0.404 Q0.662 0.495 0.834 0.525" stroke="hsl(0.0,100%,35%)" stroke-width="0.00102"></path>
<path d="M0.684 0.404 Q0.752 0.391 0.741 0.355" stroke="hsl(0.0,100%,35%)" stroke-width="0.00230"></path>
<path d="M0.684 0.404 Q0.993 0.830 1.891 0.773" stroke="hsl(0.0,100%,35%)" stroke-width="0.00026"></path>
<path d="M0.684 0.404 Q0.759 0.569 1.096 0.568" stroke="hsl(0.0,100%,35%)" stroke-width="0.00026"></path>
<path d="M1.337 0.385 Q1.071 0.428 1.096 0.568" stroke="hsl(180.0,100%,35%)" stroke-width="0.00102"></path>
<path d="M1.337 0.385 Q1.202 0.101 0.618 0.105" stroke="hsl(180.0,100%,35%)" stroke-width="0.00026"></path>
<path d="M1.337 0.385 Q0.974 0.354 0.834 0.525" stroke="hsl(180.0,100%,35%)" stroke-width="0.00051"></path>
<path d="M1.337 0.385 Q1.064 0.251 0.741 0.355" stroke="hsl(180.0,100%,35%)" stroke-width="0.00026"></path>
<path d="M0.572 0.362 Q0.663 0.392 0.741 0.355" stroke="hsl(0.0,100%,35%)" stroke-width="0.00205"></path>
<path d="M0.572 0.362 Q0.573 0.496 0.834 0.525" stroke="hsl(0.0,100%,35%)" stroke-width="0.00077"></path>
<path d="M0.572 0.362 Q0.426 0.460 0.586 0.553" stroke="hsl(0.0,100%,35%)" stroke-width="0.00026"></path>
<path d="M1.070 0.624 Q0.933 0.631 0.916 0.699" stroke="hsl(0.0,100%,35%)" stroke-width="0.00077"></path>
<path d="M1.070 0.624 Q1.851 0.558 1.894 0.163" stroke="hsl(0.0,100%,35%)" stroke-width="0.00051"></path>
<path d="M1.070 0.624 Q1.128 0.601 1.096 0.568" stroke="hsl(0.0,100%,35%)" stroke-width="0.00051"></path>
<path d="M1.070 0.624 Q1.121 0.424 0.741 0.355" stroke="hsl(0.0,100%,35%)" stroke-width="0.00026"></path>
<path d="M0.486 0.223 Q0.198 0.428 0.535 0.613" stroke="hsl(180.0,100%,35%)" stroke-width="0.00026"></path>
<path d="M0.486 0.223 Q0.509 0.340 0.741 0.355" stroke="hsl(180.0,100%,35%)" stroke-width="0.00026"></path>
<path d="M0.486 0.223 Q0.515 0.518 1.096 0.568" stroke="hsl(180.0,100%,35%)" stroke-width="0.00026"></path>
<path d="M1.162 0.651 Q1.099 0.522 0.834 0.525" stroke="hsl(0.0,100%,35%)" stroke-width="0.00256"></path>
<path d="M1.162 0.651 Q1.188 0.419 0.741 0.355" stroke="hsl(0.0,100%,35%)" stroke-width="0.00230"></path>
<path d="M1.162 0.651 Q1.287 0.477 0.975 0.377" stroke="hsl(0.0,100%,35%)" stroke-width="0.00026"></path>
<path d="M1.162 0.651 Q1.195 0.596 1.096 0.568" stroke="hsl(0.0,100%,35%)" stroke-width="0.00051"></path>
<path d="M1.162 0.651 Q1.839 0.571 1.832 0.223" stroke="hsl(0.0,100%,35%)" stroke-width="0.00026"></path>
<path d="M1.162 0.651 Q1.919 0.553 1.894 0.163" stroke="hsl(0.0,100%,35%)" stroke-width="0.00026"></path>
<path d="M1.162 0.651 Q0.952 0.487 0.586 0.553" stroke="hsl(0.0,100%,35%)" stroke-width="0.00026"></path>
<path d="M0.598 0.587 Q0.766 0.603 0.834 0.525" stroke="hsl(180.0,100%,35%)" stroke-width="0.00307"></path>
<path d="M0.598 0.587 Q0.862 0.677 1.096 0.568" stroke="hsl(180.0,100%,35%)" stroke-width="0.00205"></path>
<path d="M0.598 0.587 Q0.855 0.500 0.741 0.355" stroke="hsl(180.0,100%,35%)" stroke-width="0.00102"></path>
<path d="M0.598 0.587 Q0.545 0.587 0.535 0.613" stroke="hsl(180.0,100%,35%)" stroke-width="0.00077"></path>
<path d="M0.598 0.587 Q1.586 0.634 1.894 0.163" stroke="hsl(180.0,100%,35%)" stroke-width="0.00026"></path>
<path d="M0.598 0.587 Q1.407 0.748 1.899 0.389" stroke="hsl(180.0,100%,35%)" stroke-width="0.00026"></path>
<path d="M0.794 0.214 Q0.565 0.377 0.834 0.525" stroke="hsl(0.0,100%,35%)" stroke-width="0.00051"></path>
<path d="M0.794 0.214 Q0.655 0.274 0.741 0.355" stroke="hsl(0.0,100%,35%)" stroke-width="0.00077"></path>
<path d="M0.794 0.214 Q0.754 0.332 0.975 0.377" stroke="hsl(0.0,100%,35%)" stroke-width="0.00026"></path>
<path d="M0.666 0.041 Q0.459 0.390 1.096 0.568" stroke="hsl(180.0,100%,35%)" stroke-width="0.00026"></path>
<path d="M0.666 0.041 Q0.590 0.064 0.618 0.105" stroke="hsl(180.0,100%,35%)" stroke-width="0.00026"></path>
<path d="M0.666 0.041 Q0.362 0.316 0.834 0.525" stroke="hsl(180.0,100%,35%)" stroke-width="0.00026"></path>
<path d="M0.477 0.594 Q0.801 0.527 0.741 0.355" stroke="hsl(180.0,100%,35%)" stroke-width="0.00026"></path>
<path d="M0.477 0.594 Q0.711 0.631 0.834 0.525" stroke="hsl(180.0,100%,35%)" stroke-width="0.00026"></path>
<path d="M0.477 0.594 Q0.808 0.705 1.096 0.568" stroke="hsl(180.0,100%,35%)" stroke-width="0.00026"></path>
</g>
<text x="1.173" y="0.631" font-size="0.011831" fill="hsl(0.0,100%,20%)">abdolrashidi</text>
<text x="0.741" y="0.315" font-size="0.080535" fill="hsl(0.0,100%,20%)">syoussefi</text>
<text x="0.834" y="0.474" font-size="0.100886" fill="hsl(0.0,100%,20%)">jmadill</text>
<text x="0.444" y="0.274" font-size="0.043202" fill="hsl(0.0,100%,20%)">cclao</text>
<text x="1.894" y="0.148" font-size="0.029081" fill="hsl(180.0,100%,20%)">kbr</text>
<text x="0.990" y="0.108" font-size="0.008366" fill="hsl(180.0,100%,20%)">adkushwa</text>
<text x="1.082" y="0.046" font-size="0.005916" fill="hsl(180.0,100%,20%)">rafael.cintron</text>
<text x="1.096" y="0.550" font-size="0.035247" fill="hsl(180.0,100%,20%)">geofflang</text>
<text x="0.967" y="0.408" font-size="0.006831" fill="hsl(0.0,100%,20%)">amy.liu</text>
<text x="0.586" y="0.522" font-size="0.061903" fill="hsl(0.0,100%,20%)">timvp</text>
<text x="1.082" y="0.178" font-size="0.009958" fill="hsl(0.0,100%,20%)">antonio.caggiano</text>
<text x="0.975" y="0.361" font-size="0.031857" fill="hsl(0.0,100%,20%)">m.maiya</text>
<text x="1.332" y="0.224" font-size="0.002415" fill="hsl(0.0,100%,20%)">jvigilsamsung</text>
<text x="1.153" y="0.249" font-size="0.002415" fill="hsl(0.0,100%,20%)">constantine.shablya</text>
<text x="0.502" y="0.389" font-size="0.028880" fill="hsl(0.0,100%,20%)">ianelliott</text>
<text x="0.478" y="0.408" font-size="0.018707" fill="hsl(0.0,100%,20%)">b.schade</text>
<text x="1.222" y="0.122" font-size="0.004183" fill="hsl(180.0,100%,20%)">capn</text>
<text x="0.748" y="0.594" font-size="0.008708" fill="hsl(0.0,100%,20%)">romanl</text>
<text x="0.336" y="0.209" font-size="0.018862" fill="hsl(0.0,100%,20%)">lfy</text>
<text x="1.899" y="0.360" font-size="0.058910" fill="hsl(0.0,100%,20%)">cnorthrop</text>
<text x="0.554" y="0.421" font-size="0.009036" fill="hsl(0.0,100%,20%)">cheryl.wei</text>
<text x="0.369" y="0.650" font-size="0.004183" fill="hsl(180.0,100%,20%)">sunny.sun</text>
<text x="0.916" y="0.681" font-size="0.036146" fill="hsl(0.0,100%,20%)">ynovikov</text>
<text x="1.709" y="0.058" font-size="0.003415" fill="hsl(180.0,100%,20%)">bajones</text>
<text x="1.641" y="0.375" font-size="0.002415" fill="hsl(0.0,100%,20%)">paulthomson</text>
<text x="1.002" y="0.205" font-size="0.005400" fill="hsl(0.0,100%,20%)">cwallez</text>
<text x="1.419" y="0.420" font-size="0.002415" fill="hsl(180.0,100%,20%)">zmo</text>
<text x="0.723" y="0.189" font-size="0.019768" fill="hsl(180.0,100%,20%)">penghuang</text>
<text x="1.326" y="0.346" font-size="0.002415" fill="hsl(180.0,100%,20%)">junov</text>
<text x="0.535" y="0.599" font-size="0.027957" fill="hsl(180.0,100%,20%)">jonahr</text>
<text x="0.678" y="0.787" font-size="0.021869" fill="hsl(180.0,100%,20%)">lexa.knyazev</text>
<text x="1.411" y="0.644" font-size="0.002415" fill="hsl(180.0,100%,20%)">vikassoni</text>
<text x="1.349" y="0.559" font-size="0.039537" fill="hsl(0.0,100%,20%)">gert.wollny</text>
<text x="1.638" y="0.165" font-size="0.024391" fill="hsl(180.0,100%,20%)">gman</text>
<text x="1.832" y="0.212" font-size="0.020775" fill="hsl(180.0,100%,20%)">kpiddington</text>
<text x="0.369" y="0.428" font-size="0.006390" fill="hsl(0.0,100%,20%)">hailinzhang</text>
<text x="1.653" y="0.676" font-size="0.004830" fill="hsl(180.0,100%,20%)">hans</text>
<text x="1.891" y="0.770" font-size="0.005400" fill="hsl(180.0,100%,20%)">thakis</text>
<text x="0.425" y="0.552" font-size="0.009036" fill="hsl(0.0,100%,20%)">natsu</text>
<text x="1.102" y="0.422" font-size="0.016020" fill="hsl(0.0,100%,20%)">yuxinhu</text>
<text x="0.623" y="0.217" font-size="0.002415" fill="hsl(0.0,100%,20%)">vantablack</text>
<text x="0.772" y="0.232" font-size="0.008010" fill="hsl(0.0,100%,20%)">mark</text>
<text x="0.186" y="0.553" font-size="0.011582" fill="hsl(0.0,100%,20%)">j.vigil</text>
<text x="0.416" y="0.663" font-size="0.006831" fill="hsl(0.0,100%,20%)">jgilbert</text>
<text x="1.549" y="0.441" font-size="0.031673" fill="hsl(0.0,100%,20%)">lubosz.sarnecki</text>
<text x="0.957" y="0.593" font-size="0.004183" fill="hsl(0.0,100%,20%)">bsheedy</text>
<text x="0.539" y="0.685" font-size="0.002415" fill="hsl(0.0,100%,20%)">brucedawson</text>
<text x="0.902" y="0.605" font-size="0.002415" fill="hsl(0.0,100%,20%)">tandrii</text>
<text x="1.273" y="0.069" font-size="0.002415" fill="hsl(0.0,100%,20%)">dpranke</text>
<text x="0.348" y="0.618" font-size="0.004183" fill="hsl(0.0,100%,20%)">nicolascapens</text>
<text x="1.172" y="0.801" font-size="0.002415" fill="hsl(0.0,100%,20%)">doughorn</text>
<text x="1.388" y="0.037" font-size="0.008010" fill="hsl(180.0,100%,20%)">johncunningham</text>
<text x="1.562" y="0.272" font-size="0.022784" fill="hsl(0.0,100%,20%)">jplate</text>
<text x="1.638" y="-0.004" font-size="0.002415" fill="hsl(180.0,100%,20%)">ccameron</text>
<text x="1.267" y="0.106" font-size="0.008010" fill="hsl(180.0,100%,20%)">kkinnunen</text>
<text x="0.607" y="0.922" font-size="0.005400" fill="hsl(180.0,100%,20%)">le.hoang.q</text>
<text x="0.573" y="0.841" font-size="0.004830" fill="hsl(0.0,100%,20%)">kyle.griffiths</text>
<text x="1.120" y="0.572" font-size="0.005916" fill="hsl(0.0,100%,20%)">lehoangq</text>
<text x="0.180" y="0.169" font-size="0.005400" fill="hsl(0.0,100%,20%)">lunpujun</text>
<text x="1.295" y="0.415" font-size="0.007245" fill="hsl(180.0,100%,20%)">msisov</text>
<text x="0.305" y="-0.503" font-size="0.002415" fill="hsl(0.0,100%,20%)">zzyiwei</text>
<text x="0.898" y="0.019" font-size="0.004183" fill="hsl(180.0,100%,20%)">patrto</text>
<text x="0.684" y="0.400" font-size="0.009354" fill="hsl(0.0,100%,20%)">pkasting</text>
<text x="1.337" y="0.382" font-size="0.006831" fill="hsl(180.0,100%,20%)">senorblanco</text>
<text x="0.618" y="0.104" font-size="0.003415" fill="hsl(180.0,100%,20%)">jiajia.qin</text>
<text x="0.572" y="0.358" font-size="0.008366" fill="hsl(0.0,100%,20%)">sergeyu</text>
<text x="1.070" y="0.621" font-size="0.006831" fill="hsl(0.0,100%,20%)">shrekshao</text>
<text x="0.486" y="0.221" font-size="0.004183" fill="hsl(180.0,100%,20%)">srisser</text>
<text x="1.162" y="0.645" font-size="0.012075" fill="hsl(0.0,100%,20%)">steven</text>
<text x="0.598" y="0.580" font-size="0.014082" fill="hsl(180.0,100%,20%)">sugoi</text>
<text x="1.031" y="0.243" font-size="0.003415" fill="hsl(0.0,100%,20%)">cstout</text>
<text x="0.544" y="0.849" font-size="0.002415" fill="hsl(0.0,100%,20%)">borenet</text>
<text x="0.663" y="0.097" font-size="0.003415" fill="hsl(0.0,100%,20%)">reveman</text>
<text x="0.489" y="-0.036" font-size="0.002415" fill="hsl(0.0,100%,20%)">jie.a.chen</text>
<text x="0.794" y="0.211" font-size="0.005916" fill="hsl(0.0,100%,20%)">xiaoxuan.liu</text>
<text x="0.666" y="0.039" font-size="0.004183" fill="hsl(180.0,100%,20%)">xinghua.cao</text>
<text x="0.477" y="0.592" font-size="0.004183" fill="hsl(180.0,100%,20%)">yang.gu</text>
</svg>
