<svg width="4000" height="2000" viewBox="-0.025 -0.025 2.05 1.05" xmlns="http://www.w3.org/2000/svg">
  <style>
    path {
      fill: none;
      stroke-linecap: round;
      stroke-opacity: 0.4;
    }

    text {
      text-anchor: middle;
      alignment-baseline: hanging;
    }
  </style>
  <g opacity="0.4">
<path d="M0.731 0.976 Q0.580 0.719 0.046 0.737" stroke="hsl(0.0,100%,35%)" stroke-width="0.00404"></path>
<path d="M0.731 0.976 Q1.092 0.791 0.811 0.575" stroke="hsl(0.0,100%,35%)" stroke-width="0.00040"></path>
<path d="M0.731 0.976 Q0.832 0.988 0.877 0.942" stroke="hsl(0.0,100%,35%)" stroke-width="0.00162"></path>
<path d="M0.046 0.737 Q-0.003 0.839 0.186 0.886" stroke="hsl(0.0,100%,35%)" stroke-width="0.02059"></path>
<path d="M0.046 0.737 Q0.346 0.763 0.463 0.622" stroke="hsl(0.0,100%,35%)" stroke-width="0.00848"></path>
<path d="M0.046 0.737 Q0.537 0.775 0.719 0.543" stroke="hsl(0.0,100%,35%)" stroke-width="0.01979"></path>
<path d="M0.046 0.737 Q0.283 0.860 0.575 0.771" stroke="hsl(0.0,100%,35%)" stroke-width="0.00040"></path>
<path d="M0.046 0.737 Q0.271 0.709 0.266 0.594" stroke="hsl(0.0,100%,35%)" stroke-width="0.01615"></path>
<path d="M0.046 0.737 Q0.185 0.851 0.438 0.809" stroke="hsl(0.0,100%,35%)" stroke-width="0.02180"></path>
<path d="M0.046 0.737 Q0.541 0.594 0.370 0.321" stroke="hsl(0.0,100%,35%)" stroke-width="0.01252"></path>
<path d="M0.046 0.737 Q0.558 0.809 0.811 0.575" stroke="hsl(0.0,100%,35%)" stroke-width="0.02140"></path>
<path d="M0.046 0.737 Q0.416 0.655 0.338 0.457" stroke="hsl(0.0,100%,35%)" stroke-width="0.00727"></path>
<path d="M0.046 0.737 Q-0.076 0.972 0.357 1.083" stroke="hsl(0.0,100%,35%)" stroke-width="0.00040"></path>
<path d="M0.046 0.737 Q0.687 0.800 0.952 0.501" stroke="hsl(0.0,100%,35%)" stroke-width="0.00081"></path>
<path d="M0.046 0.737 Q0.261 0.734 0.303 0.629" stroke="hsl(0.0,100%,35%)" stroke-width="0.00040"></path>
<path d="M0.046 0.737 Q0.656 1.046 1.394 0.817" stroke="hsl(0.0,100%,35%)" stroke-width="0.00162"></path>
<path d="M0.046 0.737 Q0.577 0.672 0.566 0.399" stroke="hsl(0.0,100%,35%)" stroke-width="0.00242"></path>
<path d="M0.046 0.737 Q-0.062 0.985 0.400 1.093" stroke="hsl(0.0,100%,35%)" stroke-width="0.00040"></path>
<path d="M0.046 0.737 Q0.718 0.555 0.510 0.187" stroke="hsl(0.0,100%,35%)" stroke-width="0.00040"></path>
<path d="M0.046 0.737 Q0.210 0.726 0.224 0.644" stroke="hsl(0.0,100%,35%)" stroke-width="0.00081"></path>
<path d="M0.046 0.737 Q0.367 0.689 0.345 0.522" stroke="hsl(0.0,100%,35%)" stroke-width="0.00040"></path>
<path d="M0.046 0.737 Q0.046 0.758 0.088 0.763" stroke="hsl(0.0,100%,35%)" stroke-width="0.00040"></path>
<path d="M0.046 0.737 Q0.154 0.804 0.309 0.767" stroke="hsl(0.0,100%,35%)" stroke-width="0.00081"></path>
<path d="M0.811 0.575 Q0.790 0.541 0.719 0.543" stroke="hsl(0.0,100%,35%)" stroke-width="0.01292"></path>
<path d="M0.811 0.575 Q0.299 0.503 0.046 0.737" stroke="hsl(0.0,100%,35%)" stroke-width="0.01454"></path>
<path d="M0.811 0.575 Q0.834 0.921 1.514 0.986" stroke="hsl(0.0,100%,35%)" stroke-width="0.00081"></path>
<path d="M0.811 0.575 Q0.669 0.421 0.338 0.457" stroke="hsl(0.0,100%,35%)" stroke-width="0.00121"></path>
<path d="M0.811 0.575 Q0.438 0.617 0.438 0.809" stroke="hsl(0.0,100%,35%)" stroke-width="0.00121"></path>
<path d="M0.811 0.575 Q0.940 0.566 0.952 0.501" stroke="hsl(0.0,100%,35%)" stroke-width="0.00162"></path>
<path d="M0.811 0.575 Q0.524 0.475 0.266 0.594" stroke="hsl(0.0,100%,35%)" stroke-width="0.00202"></path>
<path d="M0.811 0.575 Q0.462 0.492 0.224 0.644" stroke="hsl(0.0,100%,35%)" stroke-width="0.00040"></path>
<path d="M0.811 0.575 Q0.830 0.438 0.566 0.399" stroke="hsl(0.0,100%,35%)" stroke-width="0.00081"></path>
<path d="M0.811 0.575 Q0.250 0.605 0.186 0.886" stroke="hsl(0.0,100%,35%)" stroke-width="0.00969"></path>
<path d="M0.811 0.575 Q0.909 0.812 1.394 0.817" stroke="hsl(0.0,100%,35%)" stroke-width="0.00081"></path>
<path d="M0.811 0.575 Q0.663 0.809 1.087 0.933" stroke="hsl(0.0,100%,35%)" stroke-width="0.00121"></path>
<path d="M0.811 0.575 Q0.536 0.626 0.575 0.771" stroke="hsl(0.0,100%,35%)" stroke-width="0.00040"></path>
<path d="M0.811 0.575 Q0.599 0.529 0.463 0.622" stroke="hsl(0.0,100%,35%)" stroke-width="0.00040"></path>
<path d="M0.811 0.575 Q0.905 0.714 1.198 0.699" stroke="hsl(0.0,100%,35%)" stroke-width="0.00040"></path>
<path d="M0.811 0.575 Q0.679 0.675 0.846 0.762" stroke="hsl(0.0,100%,35%)" stroke-width="0.00040"></path>
<path d="M0.852 0.155 Q-0.065 0.387 0.186 0.886" stroke="hsl(0.0,100%,35%)" stroke-width="0.00081"></path>
<path d="M0.852 0.155 Q1.007 0.149 1.029 0.072" stroke="hsl(0.0,100%,35%)" stroke-width="0.00081"></path>
<path d="M0.852 0.155 Q0.496 0.357 0.811 0.575" stroke="hsl(0.0,100%,35%)" stroke-width="0.00040"></path>
<path d="M0.186 0.886 Q0.235 0.783 0.046 0.737" stroke="hsl(0.0,100%,35%)" stroke-width="0.05249"></path>
<path d="M0.186 0.886 Q0.460 0.756 0.266 0.594" stroke="hsl(0.0,100%,35%)" stroke-width="0.01413"></path>
<path d="M0.186 0.886 Q0.605 0.702 0.338 0.457" stroke="hsl(0.0,100%,35%)" stroke-width="0.00323"></path>
<path d="M0.186 0.886 Q0.766 0.718 0.566 0.399" stroke="hsl(0.0,100%,35%)" stroke-width="0.00485"></path>
<path d="M0.186 0.886 Q0.730 0.640 0.370 0.321" stroke="hsl(0.0,100%,35%)" stroke-width="0.00767"></path>
<path d="M0.186 0.886 Q0.535 0.809 0.463 0.622" stroke="hsl(0.0,100%,35%)" stroke-width="0.00727"></path>
<path d="M0.186 0.886 Q0.727 0.821 0.719 0.543" stroke="hsl(0.0,100%,35%)" stroke-width="0.00929"></path>
<path d="M0.186 0.886 Q0.419 0.855 0.411 0.735" stroke="hsl(0.0,100%,35%)" stroke-width="0.00162"></path>
<path d="M0.186 0.886 Q0.374 0.898 0.438 0.809" stroke="hsl(0.0,100%,35%)" stroke-width="0.01252"></path>
<path d="M0.186 0.886 Q0.842 0.995 1.198 0.699" stroke="hsl(0.0,100%,35%)" stroke-width="0.00202"></path>
<path d="M0.186 0.886 Q0.527 0.713 0.264 0.508" stroke="hsl(0.0,100%,35%)" stroke-width="0.00040"></path>
<path d="M0.186 0.886 Q0.747 0.855 0.811 0.575" stroke="hsl(0.0,100%,35%)" stroke-width="0.01131"></path>
<path d="M0.186 0.886 Q0.472 0.906 0.575 0.771" stroke="hsl(0.0,100%,35%)" stroke-width="0.00081"></path>
<path d="M0.186 0.886 Q0.399 0.772 0.224 0.644" stroke="hsl(0.0,100%,35%)" stroke-width="0.00040"></path>
<path d="M0.186 0.886 Q0.292 0.952 0.445 0.915" stroke="hsl(0.0,100%,35%)" stroke-width="0.00040"></path>
<path d="M0.186 0.886 Q0.913 0.766 0.838 0.385" stroke="hsl(0.0,100%,35%)" stroke-width="0.00040"></path>
<path d="M0.186 0.886 Q0.279 0.978 0.478 0.953" stroke="hsl(0.0,100%,35%)" stroke-width="0.00081"></path>
<path d="M0.186 0.886 Q0.276 0.869 0.263 0.822" stroke="hsl(0.0,100%,35%)" stroke-width="0.00040"></path>
<path d="M0.186 0.886 Q0.966 0.617 0.613 0.178" stroke="hsl(0.0,100%,35%)" stroke-width="0.00040"></path>
<path d="M0.186 0.886 Q0.929 0.993 1.301 0.654" stroke="hsl(0.0,100%,35%)" stroke-width="0.00040"></path>
<path d="M0.186 0.886 Q0.239 0.799 0.082 0.754" stroke="hsl(0.0,100%,35%)" stroke-width="0.00040"></path>
<path d="M0.264 0.508 Q0.272 0.605 0.463 0.622" stroke="hsl(0.0,100%,35%)" stroke-width="0.00040"></path>
<path d="M0.264 0.508 Q-0.028 0.579 0.046 0.737" stroke="hsl(0.0,100%,35%)" stroke-width="0.00323"></path>
<path d="M0.264 0.508 Q0.467 0.436 0.370 0.321" stroke="hsl(0.0,100%,35%)" stroke-width="0.00081"></path>
<path d="M0.264 0.508 Q-0.077 0.682 0.186 0.886" stroke="hsl(0.0,100%,35%)" stroke-width="0.00202"></path>
<path d="M0.264 0.508 Q0.156 0.651 0.411 0.735" stroke="hsl(0.0,100%,35%)" stroke-width="0.00040"></path>
<path d="M0.463 0.622 Q0.428 0.714 0.600 0.751" stroke="hsl(0.0,100%,35%)" stroke-width="0.00040"></path>
<path d="M0.463 0.622 Q0.163 0.596 0.046 0.737" stroke="hsl(0.0,100%,35%)" stroke-width="0.01615"></path>
<path d="M0.463 0.622 Q0.532 0.515 0.338 0.457" stroke="hsl(0.0,100%,35%)" stroke-width="0.00525"></path>
<path d="M0.463 0.622 Q0.113 0.699 0.186 0.886" stroke="hsl(0.0,100%,35%)" stroke-width="0.00606"></path>
<path d="M0.463 0.622 Q0.387 0.569 0.266 0.594" stroke="hsl(0.0,100%,35%)" stroke-width="0.00162"></path>
<path d="M0.463 0.622 Q0.654 0.634 0.719 0.543" stroke="hsl(0.0,100%,35%)" stroke-width="0.00081"></path>
<path d="M0.463 0.622 Q0.657 0.453 0.370 0.321" stroke="hsl(0.0,100%,35%)" stroke-width="0.00040"></path>
<path d="M0.463 0.622 Q0.675 0.668 0.811 0.575" stroke="hsl(0.0,100%,35%)" stroke-width="0.00081"></path>
<path d="M0.463 0.622 Q0.326 0.585 0.224 0.644" stroke="hsl(0.0,100%,35%)" stroke-width="0.00040"></path>
<path d="M0.463 0.622 Q0.773 0.906 1.394 0.817" stroke="hsl(0.0,100%,35%)" stroke-width="0.00040"></path>
<path d="M0.463 0.622 Q0.301 0.710 0.438 0.809" stroke="hsl(0.0,100%,35%)" stroke-width="0.00121"></path>
<path d="M0.463 0.622 Q0.938 0.446 0.700 0.176" stroke="hsl(0.0,100%,35%)" stroke-width="0.00040"></path>
<path d="M0.370 0.321 Q-0.124 0.464 0.046 0.737" stroke="hsl(0.0,100%,35%)" stroke-width="0.00969"></path>
<path d="M0.370 0.321 Q0.245 0.383 0.338 0.457" stroke="hsl(0.0,100%,35%)" stroke-width="0.00202"></path>
<path d="M0.370 0.321 Q0.014 0.578 0.438 0.809" stroke="hsl(0.0,100%,35%)" stroke-width="0.00121"></path>
<path d="M0.370 0.321 Q-0.174 0.567 0.186 0.886" stroke="hsl(0.0,100%,35%)" stroke-width="0.00202"></path>
<path d="M0.370 0.321 Q0.406 0.399 0.566 0.399" stroke="hsl(0.0,100%,35%)" stroke-width="0.00081"></path>
<path d="M0.370 0.321 Q0.176 0.490 0.463 0.622" stroke="hsl(0.0,100%,35%)" stroke-width="0.00040"></path>
<path d="M0.370 0.321 Q0.100 0.437 0.266 0.594" stroke="hsl(0.0,100%,35%)" stroke-width="0.00202"></path>
<path d="M0.370 0.321 Q0.367 0.502 0.719 0.543" stroke="hsl(0.0,100%,35%)" stroke-width="0.00040"></path>
<path d="M0.370 0.321 Q0.547 0.282 0.510 0.187" stroke="hsl(0.0,100%,35%)" stroke-width="0.00081"></path>
<path d="M0.370 0.321 Q0.388 0.536 0.811 0.575" stroke="hsl(0.0,100%,35%)" stroke-width="0.00081"></path>
<path d="M0.411 0.735 Q0.227 0.663 0.046 0.737" stroke="hsl(0.0,100%,35%)" stroke-width="0.00727"></path>
<path d="M0.411 0.735 Q0.178 0.766 0.186 0.886" stroke="hsl(0.0,100%,35%)" stroke-width="0.00363"></path>
<path d="M0.411 0.735 Q0.596 0.582 0.338 0.457" stroke="hsl(0.0,100%,35%)" stroke-width="0.00040"></path>
<path d="M0.411 0.735 Q0.722 0.520 0.370 0.321" stroke="hsl(0.0,100%,35%)" stroke-width="0.00040"></path>
<path d="M0.411 0.735 Q0.527 0.689 0.463 0.622" stroke="hsl(0.0,100%,35%)" stroke-width="0.00040"></path>
<path d="M0.411 0.735 Q0.739 0.735 0.811 0.575" stroke="hsl(0.0,100%,35%)" stroke-width="0.00242"></path>
<path d="M0.275 0.498 Q-0.031 0.572 0.046 0.737" stroke="hsl(0.0,100%,35%)" stroke-width="0.00081"></path>
<path d="M0.275 0.498 Q0.108 0.686 0.438 0.809" stroke="hsl(0.0,100%,35%)" stroke-width="0.00040"></path>
<path d="M0.275 0.498 Q0.461 0.610 0.719 0.543" stroke="hsl(0.0,100%,35%)" stroke-width="0.00040"></path>
<path d="M0.438 0.809 Q0.299 0.694 0.046 0.737" stroke="hsl(0.0,100%,35%)" stroke-width="0.00929"></path>
<path d="M0.438 0.809 Q0.250 0.797 0.186 0.886" stroke="hsl(0.0,100%,35%)" stroke-width="0.00323"></path>
<path d="M0.438 0.809 Q0.812 0.766 0.811 0.575" stroke="hsl(0.0,100%,35%)" stroke-width="0.00242"></path>
<path d="M0.438 0.809 Q0.600 0.720 0.463 0.622" stroke="hsl(0.0,100%,35%)" stroke-width="0.00040"></path>
<path d="M0.719 0.543 Q0.228 0.506 0.046 0.737" stroke="hsl(0.0,100%,35%)" stroke-width="0.01736"></path>
<path d="M0.719 0.543 Q0.740 0.578 0.811 0.575" stroke="hsl(0.0,100%,35%)" stroke-width="0.01857"></path>
<path d="M0.719 0.543 Q0.179 0.608 0.186 0.886" stroke="hsl(0.0,100%,35%)" stroke-width="0.00565"></path>
<path d="M0.719 0.543 Q0.869 0.569 0.952 0.501" stroke="hsl(0.0,100%,35%)" stroke-width="0.00081"></path>
<path d="M0.719 0.543 Q0.838 0.815 1.394 0.817" stroke="hsl(0.0,100%,35%)" stroke-width="0.00040"></path>
<path d="M0.719 0.543 Q0.366 0.620 0.438 0.809" stroke="hsl(0.0,100%,35%)" stroke-width="0.00202"></path>
<path d="M0.719 0.543 Q0.608 0.678 0.846 0.762" stroke="hsl(0.0,100%,35%)" stroke-width="0.00040"></path>
<path d="M1.087 0.933 Q0.674 0.729 0.186 0.886" stroke="hsl(0.0,100%,35%)" stroke-width="0.00162"></path>
<path d="M1.087 0.933 Q1.236 0.699 0.811 0.575" stroke="hsl(0.0,100%,35%)" stroke-width="0.00808"></path>
<path d="M1.087 0.933 Q0.723 0.627 0.046 0.737" stroke="hsl(0.0,100%,35%)" stroke-width="0.00727"></path>
<path d="M1.087 0.933 Q1.215 0.664 0.719 0.543" stroke="hsl(0.0,100%,35%)" stroke-width="0.00121"></path>
<path d="M0.338 0.457 Q0.268 0.565 0.463 0.622" stroke="hsl(0.0,100%,35%)" stroke-width="0.00404"></path>
<path d="M0.338 0.457 Q0.480 0.611 0.811 0.575" stroke="hsl(0.0,100%,35%)" stroke-width="0.00525"></path>
<path d="M0.338 0.457 Q-0.032 0.539 0.046 0.737" stroke="hsl(0.0,100%,35%)" stroke-width="0.00969"></path>
<path d="M0.338 0.457 Q-0.081 0.641 0.186 0.886" stroke="hsl(0.0,100%,35%)" stroke-width="0.00363"></path>
<path d="M0.338 0.457 Q0.463 0.396 0.370 0.321" stroke="hsl(0.0,100%,35%)" stroke-width="0.00121"></path>
<path d="M0.338 0.457 Q0.193 0.511 0.266 0.594" stroke="hsl(0.0,100%,35%)" stroke-width="0.00081"></path>
<path d="M0.338 0.457 Q0.499 0.474 0.566 0.399" stroke="hsl(0.0,100%,35%)" stroke-width="0.00121"></path>
<path d="M0.338 0.457 Q0.503 0.957 1.514 0.986" stroke="hsl(0.0,100%,35%)" stroke-width="0.00040"></path>
<path d="M0.566 0.399 Q0.036 0.464 0.046 0.737" stroke="hsl(0.0,100%,35%)" stroke-width="0.00767"></path>
<path d="M0.566 0.399 Q-0.013 0.566 0.186 0.886" stroke="hsl(0.0,100%,35%)" stroke-width="0.00404"></path>
<path d="M0.566 0.399 Q0.405 0.382 0.338 0.457" stroke="hsl(0.0,100%,35%)" stroke-width="0.00646"></path>
<path d="M0.566 0.399 Q0.530 0.321 0.370 0.321" stroke="hsl(0.0,100%,35%)" stroke-width="0.00363"></path>
<path d="M0.566 0.399 Q0.336 0.490 0.463 0.622" stroke="hsl(0.0,100%,35%)" stroke-width="0.00081"></path>
<path d="M0.566 0.399 Q0.548 0.536 0.811 0.575" stroke="hsl(0.0,100%,35%)" stroke-width="0.00283"></path>
<path d="M0.566 0.399 Q0.220 0.536 0.411 0.735" stroke="hsl(0.0,100%,35%)" stroke-width="0.00040"></path>
<path d="M0.566 0.399 Q0.174 0.578 0.438 0.809" stroke="hsl(0.0,100%,35%)" stroke-width="0.00121"></path>
<path d="M0.266 0.594 Q0.536 0.478 0.370 0.321" stroke="hsl(0.0,100%,35%)" stroke-width="0.00283"></path>
<path d="M0.266 0.594 Q-0.007 0.724 0.186 0.886" stroke="hsl(0.0,100%,35%)" stroke-width="0.00646"></path>
<path d="M0.266 0.594 Q0.411 0.540 0.338 0.457" stroke="hsl(0.0,100%,35%)" stroke-width="0.00686"></path>
<path d="M0.266 0.594 Q0.342 0.647 0.463 0.622" stroke="hsl(0.0,100%,35%)" stroke-width="0.00242"></path>
<path d="M0.266 0.594 Q0.554 0.693 0.811 0.575" stroke="hsl(0.0,100%,35%)" stroke-width="0.00525"></path>
<path d="M0.266 0.594 Q0.042 0.621 0.046 0.737" stroke="hsl(0.0,100%,35%)" stroke-width="0.01413"></path>
<path d="M0.266 0.594 Q0.180 0.736 0.438 0.809" stroke="hsl(0.0,100%,35%)" stroke-width="0.00202"></path>
<path d="M0.266 0.594 Q0.572 0.556 0.566 0.399" stroke="hsl(0.0,100%,35%)" stroke-width="0.00040"></path>
<path d="M1.514 0.986 Q1.590 0.877 1.394 0.817" stroke="hsl(0.0,100%,35%)" stroke-width="0.00283"></path>
<path d="M1.514 0.986 Q1.492 0.640 0.811 0.575" stroke="hsl(0.0,100%,35%)" stroke-width="0.00444"></path>
<path d="M1.514 0.986 Q1.471 0.606 0.719 0.543" stroke="hsl(0.0,100%,35%)" stroke-width="0.00081"></path>
<path d="M1.514 0.986 Q0.979 0.568 0.046 0.737" stroke="hsl(0.0,100%,35%)" stroke-width="0.00565"></path>
<path d="M1.514 0.986 Q0.930 0.670 0.186 0.886" stroke="hsl(0.0,100%,35%)" stroke-width="0.00081"></path>
<path d="M0.952 0.501 Q0.802 0.476 0.719 0.543" stroke="hsl(0.0,100%,35%)" stroke-width="0.00040"></path>
<path d="M0.952 0.501 Q0.822 0.510 0.811 0.575" stroke="hsl(0.0,100%,35%)" stroke-width="0.00081"></path>
<path d="M0.952 0.501 Q0.310 0.438 0.046 0.737" stroke="hsl(0.0,100%,35%)" stroke-width="0.00081"></path>
<path d="M1.082 0.387 Q0.285 0.355 0.046 0.737" stroke="hsl(0.0,100%,35%)" stroke-width="0.00040"></path>
<path d="M1.082 0.387 Q0.815 0.290 0.566 0.399" stroke="hsl(0.0,100%,35%)" stroke-width="0.00040"></path>
<path d="M1.082 0.387 Q0.797 0.427 0.811 0.575" stroke="hsl(0.0,100%,35%)" stroke-width="0.00040"></path>
<path d="M0.345 0.522 Q-0.025 0.672 0.186 0.886" stroke="hsl(0.0,100%,35%)" stroke-width="0.00444"></path>
<path d="M0.345 0.522 Q0.393 0.488 0.338 0.457" stroke="hsl(0.0,100%,35%)" stroke-width="0.00283"></path>
<path d="M0.345 0.522 Q0.024 0.570 0.046 0.737" stroke="hsl(0.0,100%,35%)" stroke-width="0.00686"></path>
<path d="M0.345 0.522 Q0.248 0.542 0.266 0.594" stroke="hsl(0.0,100%,35%)" stroke-width="0.00040"></path>
<path d="M0.345 0.522 Q0.536 0.642 0.811 0.575" stroke="hsl(0.0,100%,35%)" stroke-width="0.00040"></path>
<path d="M0.422 0.897 Q0.363 0.742 0.046 0.737" stroke="hsl(0.0,100%,35%)" stroke-width="0.00081"></path>
<path d="M0.422 0.897 Q0.893 0.677 0.566 0.399" stroke="hsl(0.0,100%,35%)" stroke-width="0.00040"></path>
<path d="M0.422 0.897 Q0.314 0.844 0.186 0.886" stroke="hsl(0.0,100%,35%)" stroke-width="0.00162"></path>
<path d="M0.303 0.629 Q0.088 0.632 0.046 0.737" stroke="hsl(0.0,100%,35%)" stroke-width="0.00363"></path>
<path d="M0.303 0.629 Q0.600 0.704 0.811 0.575" stroke="hsl(0.0,100%,35%)" stroke-width="0.00040"></path>
<path d="M0.303 0.629 Q0.039 0.734 0.186 0.886" stroke="hsl(0.0,100%,35%)" stroke-width="0.00081"></path>
<path d="M0.224 0.644 Q0.573 0.727 0.811 0.575" stroke="hsl(0.0,100%,35%)" stroke-width="0.00162"></path>
<path d="M0.224 0.644 Q0.060 0.655 0.046 0.737" stroke="hsl(0.0,100%,35%)" stroke-width="0.00202"></path>
<path d="M0.224 0.644 Q0.361 0.681 0.463 0.622" stroke="hsl(0.0,100%,35%)" stroke-width="0.00040"></path>
<path d="M1.394 0.817 Q1.296 0.579 0.811 0.575" stroke="hsl(0.0,100%,35%)" stroke-width="0.00162"></path>
<path d="M1.394 0.817 Q0.735 0.610 0.186 0.886" stroke="hsl(0.0,100%,35%)" stroke-width="0.00121"></path>
<path d="M1.394 0.817 Q1.275 0.545 0.719 0.543" stroke="hsl(0.0,100%,35%)" stroke-width="0.00081"></path>
<path d="M1.394 0.817 Q0.784 0.507 0.046 0.737" stroke="hsl(0.0,100%,35%)" stroke-width="0.00162"></path>
<path d="M1.394 0.817 Q1.319 0.925 1.514 0.986" stroke="hsl(0.0,100%,35%)" stroke-width="0.00081"></path>
<path d="M1.394 0.817 Q1.560 0.357 0.700 0.176" stroke="hsl(0.0,100%,35%)" stroke-width="0.00040"></path>
<path d="M0.575 0.771 Q0.338 0.648 0.046 0.737" stroke="hsl(0.0,100%,35%)" stroke-width="0.01494"></path>
<path d="M0.575 0.771 Q0.289 0.751 0.186 0.886" stroke="hsl(0.0,100%,35%)" stroke-width="0.00283"></path>
<path d="M0.575 0.771 Q0.850 0.720 0.811 0.575" stroke="hsl(0.0,100%,35%)" stroke-width="0.00444"></path>
<path d="M0.575 0.771 Q0.832 0.505 0.370 0.321" stroke="hsl(0.0,100%,35%)" stroke-width="0.00040"></path>
<path d="M0.575 0.771 Q0.869 0.583 0.566 0.399" stroke="hsl(0.0,100%,35%)" stroke-width="0.00040"></path>
<path d="M0.575 0.771 Q0.707 0.567 0.338 0.457" stroke="hsl(0.0,100%,35%)" stroke-width="0.00040"></path>
<path d="M1.198 0.699 Q0.592 0.488 0.046 0.737" stroke="hsl(0.0,100%,35%)" stroke-width="0.00404"></path>
<path d="M1.198 0.699 Q1.104 0.560 0.811 0.575" stroke="hsl(0.0,100%,35%)" stroke-width="0.00283"></path>
<path d="M1.198 0.699 Q1.233 0.551 0.952 0.501" stroke="hsl(0.0,100%,35%)" stroke-width="0.00040"></path>
<path d="M1.198 0.699 Q1.286 0.697 1.301 0.654" stroke="hsl(0.0,100%,35%)" stroke-width="0.00081"></path>
<path d="M0.846 0.762 Q1.001 1.008 1.514 0.986" stroke="hsl(0.0,100%,35%)" stroke-width="0.00040"></path>
<path d="M0.846 0.762 Q0.978 0.662 0.811 0.575" stroke="hsl(0.0,100%,35%)" stroke-width="0.00404"></path>
<path d="M0.846 0.762 Q1.076 0.899 1.394 0.817" stroke="hsl(0.0,100%,35%)" stroke-width="0.00121"></path>
<path d="M0.846 0.762 Q0.466 0.590 0.046 0.737" stroke="hsl(0.0,100%,35%)" stroke-width="0.00363"></path>
<path d="M0.846 0.762 Q0.957 0.627 0.719 0.543" stroke="hsl(0.0,100%,35%)" stroke-width="0.00040"></path>
<path d="M0.263 0.822 Q0.406 0.808 0.411 0.735" stroke="hsl(0.0,100%,35%)" stroke-width="0.00081"></path>
<path d="M0.263 0.822 Q0.173 0.839 0.186 0.886" stroke="hsl(0.0,100%,35%)" stroke-width="0.00081"></path>
<path d="M0.263 0.822 Q0.223 0.736 0.046 0.737" stroke="hsl(0.0,100%,35%)" stroke-width="0.00162"></path>
<path d="M0.263 0.822 Q0.717 0.593 0.370 0.321" stroke="hsl(0.0,100%,35%)" stroke-width="0.00040"></path>
<path d="M0.263 0.822 Q0.735 0.808 0.811 0.575" stroke="hsl(0.0,100%,35%)" stroke-width="0.00081"></path>
<path d="M0.112 0.554 Q-0.067 0.632 0.046 0.737" stroke="hsl(0.0,100%,35%)" stroke-width="0.00202"></path>
<path d="M0.112 0.554 Q0.302 0.551 0.338 0.457" stroke="hsl(0.0,100%,35%)" stroke-width="0.00040"></path>
<path d="M0.112 0.554 Q0.117 0.704 0.411 0.735" stroke="hsl(0.0,100%,35%)" stroke-width="0.00081"></path>
<path d="M0.112 0.554 Q0.445 0.704 0.811 0.575" stroke="hsl(0.0,100%,35%)" stroke-width="0.00081"></path>
<path d="M1.087 0.813 Q1.119 0.605 0.719 0.543" stroke="hsl(0.0,100%,35%)" stroke-width="0.00040"></path>
<path d="M1.087 0.813 Q1.140 0.639 0.811 0.575" stroke="hsl(0.0,100%,35%)" stroke-width="0.00162"></path>
<path d="M1.087 0.813 Q0.628 0.567 0.046 0.737" stroke="hsl(0.0,100%,35%)" stroke-width="0.00242"></path>
<path d="M1.087 0.813 Q0.579 0.669 0.186 0.886" stroke="hsl(0.0,100%,35%)" stroke-width="0.00040"></path>
<path d="M1.087 0.813 Q1.238 0.876 1.394 0.817" stroke="hsl(0.0,100%,35%)" stroke-width="0.00081"></path>
<path d="M1.087 0.813 Q0.766 0.681 0.438 0.809" stroke="hsl(0.0,100%,35%)" stroke-width="0.00040"></path>
<path d="M0.315 0.776 Q0.212 0.703 0.046 0.737" stroke="hsl(0.0,100%,35%)" stroke-width="0.00202"></path>
<path d="M0.315 0.776 Q0.724 0.775 0.811 0.575" stroke="hsl(0.0,100%,35%)" stroke-width="0.00121"></path>
<path d="M0.315 0.776 Q0.822 1.012 1.394 0.817" stroke="hsl(0.0,100%,35%)" stroke-width="0.00040"></path>
<path d="M1.427 0.187 Q0.248 0.288 0.186 0.886" stroke="hsl(0.0,100%,35%)" stroke-width="0.00040"></path>
<path d="M1.427 0.187 Q0.907 0.495 1.394 0.817" stroke="hsl(0.0,100%,35%)" stroke-width="0.00040"></path>
<path d="M1.427 0.187 Q1.240 0.208 1.239 0.304" stroke="hsl(0.0,100%,35%)" stroke-width="0.00040"></path>
<path d="M1.239 0.304 Q0.296 0.282 0.046 0.737" stroke="hsl(0.0,100%,35%)" stroke-width="0.00040"></path>
<path d="M1.239 0.304 Q0.907 0.591 1.394 0.817" stroke="hsl(0.0,100%,35%)" stroke-width="0.00040"></path>
<path d="M0.401 0.762 Q0.244 0.678 0.046 0.737" stroke="hsl(0.0,100%,35%)" stroke-width="0.00646"></path>
<path d="M0.401 0.762 Q0.756 0.750 0.811 0.575" stroke="hsl(0.0,100%,35%)" stroke-width="0.00202"></path>
<path d="M0.401 0.762 Q0.735 0.716 0.719 0.543" stroke="hsl(0.0,100%,35%)" stroke-width="0.00323"></path>
<path d="M0.254 0.746 Q0.458 0.726 0.463 0.622" stroke="hsl(0.0,100%,35%)" stroke-width="0.00363"></path>
<path d="M0.254 0.746 Q0.158 0.700 0.046 0.737" stroke="hsl(0.0,100%,35%)" stroke-width="0.00969"></path>
<path d="M0.254 0.746 Q0.670 0.772 0.811 0.575" stroke="hsl(0.0,100%,35%)" stroke-width="0.00040"></path>
<path d="M0.254 0.746 Q0.108 0.802 0.186 0.886" stroke="hsl(0.0,100%,35%)" stroke-width="0.00040"></path>
<path d="M0.254 0.746 Q0.382 0.672 0.266 0.594" stroke="hsl(0.0,100%,35%)" stroke-width="0.00081"></path>
<path d="M0.254 0.746 Q0.688 0.635 0.566 0.399" stroke="hsl(0.0,100%,35%)" stroke-width="0.00040"></path>
<path d="M0.993 0.520 Q0.858 0.511 0.811 0.575" stroke="hsl(0.0,100%,35%)" stroke-width="0.00242"></path>
<path d="M0.993 0.520 Q1.370 0.303 1.029 0.072" stroke="hsl(0.0,100%,35%)" stroke-width="0.00121"></path>
<path d="M0.993 0.520 Q0.346 0.439 0.046 0.737" stroke="hsl(0.0,100%,35%)" stroke-width="0.00162"></path>
<path d="M0.276 0.810 Q0.170 0.830 0.186 0.886" stroke="hsl(0.0,100%,35%)" stroke-width="0.00081"></path>
<path d="M0.276 0.810 Q0.731 0.799 0.811 0.575" stroke="hsl(0.0,100%,35%)" stroke-width="0.00040"></path>
<path d="M0.276 0.810 Q0.219 0.727 0.046 0.737" stroke="hsl(0.0,100%,35%)" stroke-width="0.00040"></path>
<path d="M0.838 0.385 Q0.160 0.403 0.046 0.737" stroke="hsl(0.0,100%,35%)" stroke-width="0.00121"></path>
<path d="M0.838 0.385 Q0.691 0.337 0.566 0.399" stroke="hsl(0.0,100%,35%)" stroke-width="0.00162"></path>
<path d="M0.838 0.385 Q0.655 0.259 0.370 0.321" stroke="hsl(0.0,100%,35%)" stroke-width="0.00040"></path>
<path d="M0.331 0.950 Q0.359 0.786 0.046 0.737" stroke="hsl(0.0,100%,35%)" stroke-width="0.00081"></path>
<path d="M0.331 0.950 Q0.310 0.889 0.186 0.886" stroke="hsl(0.0,100%,35%)" stroke-width="0.00121"></path>
<path d="M0.331 0.950 Q0.969 1.096 1.394 0.817" stroke="hsl(0.0,100%,35%)" stroke-width="0.00040"></path>
<path d="M0.331 0.950 Q0.965 0.998 1.198 0.699" stroke="hsl(0.0,100%,35%)" stroke-width="0.00081"></path>
<path d="M0.331 0.950 Q0.871 0.858 0.811 0.575" stroke="hsl(0.0,100%,35%)" stroke-width="0.00040"></path>
</g>
<text x="0.731" y="0.969" font-size="0.012899" fill="hsl(0.0,100%,20%)">aleino</text>
<text x="0.046" y="0.686" font-size="0.102709" fill="hsl(0.0,100%,20%)">jmadill</text>
<text x="0.811" y="0.542" font-size="0.066277" fill="hsl(0.0,100%,20%)">geofflang</text>
<text x="0.877" y="0.938" font-size="0.006661" fill="hsl(0.0,100%,20%)">kkinnunen</text>
<text x="0.852" y="0.152" font-size="0.007447" fill="hsl(0.0,100%,20%)">artyom</text>
<text x="0.186" y="0.847" font-size="0.077108" fill="hsl(0.0,100%,20%)">syoussefi</text>
<text x="1.029" y="0.068" font-size="0.007447" fill="hsl(0.0,100%,20%)">rafael.cintron</text>
<text x="0.264" y="0.501" font-size="0.014130" fill="hsl(0.0,100%,20%)">b.schade</text>
<text x="0.463" y="0.601" font-size="0.041599" fill="hsl(0.0,100%,20%)">tobine</text>
<text x="0.370" y="0.302" font-size="0.037385" fill="hsl(0.0,100%,20%)">cnorthrop</text>
<text x="0.411" y="0.724" font-size="0.022589" fill="hsl(0.0,100%,20%)">m.maiya</text>
<text x="0.275" y="0.495" font-size="0.006661" fill="hsl(0.0,100%,20%)">bsheedy</text>
<text x="0.438" y="0.788" font-size="0.040381" fill="hsl(0.0,100%,20%)">ynovikov</text>
<text x="0.719" y="0.518" font-size="0.051381" fill="hsl(0.0,100%,20%)">jonahr</text>
<text x="1.087" y="0.921" font-size="0.023075" fill="hsl(0.0,100%,20%)">clemendeng</text>
<text x="0.338" y="0.437" font-size="0.041465" fill="hsl(0.0,100%,20%)">courtneygo</text>
<text x="0.566" y="0.382" font-size="0.033472" fill="hsl(0.0,100%,20%)">ianelliott</text>
<text x="0.266" y="0.571" font-size="0.046389" fill="hsl(0.0,100%,20%)">timvp</text>
<text x="0.510" y="0.184" font-size="0.005769" fill="hsl(0.0,100%,20%)">lfy</text>
<text x="1.514" y="0.975" font-size="0.021584" fill="hsl(0.0,100%,20%)">jdarpinian</text>
<text x="0.952" y="0.495" font-size="0.012462" fill="hsl(0.0,100%,20%)">cwallez</text>
<text x="1.082" y="0.385" font-size="0.005769" fill="hsl(0.0,100%,20%)">davidben</text>
<text x="0.345" y="0.512" font-size="0.020531" fill="hsl(0.0,100%,20%)">dongja</text>
<text x="0.422" y="0.893" font-size="0.008812" fill="hsl(0.0,100%,20%)">ericbinet</text>
<text x="0.303" y="0.623" font-size="0.012009" fill="hsl(0.0,100%,20%)">flibitijibibo</text>
<text x="0.224" y="0.637" font-size="0.012899" fill="hsl(0.0,100%,20%)">sugoi</text>
<text x="1.394" y="0.806" font-size="0.021064" fill="hsl(0.0,100%,20%)">kbr</text>
<text x="0.575" y="0.758" font-size="0.026225" fill="hsl(0.0,100%,20%)">spang</text>
<text x="1.198" y="0.690" font-size="0.017624" fill="hsl(0.0,100%,20%)">jiajia.qin</text>
<text x="0.846" y="0.754" font-size="0.016983" fill="hsl(0.0,100%,20%)">shrekshao</text>
<text x="0.263" y="0.816" font-size="0.011537" fill="hsl(0.0,100%,20%)">hckim.kim</text>
<text x="0.112" y="0.549" font-size="0.010532" fill="hsl(0.0,100%,20%)">j.vigil</text>
<text x="1.087" y="0.807" font-size="0.012899" fill="hsl(0.0,100%,20%)">jgilbert</text>
<text x="1.301" y="0.651" font-size="0.005769" fill="hsl(0.0,100%,20%)">deleted</text>
<text x="0.315" y="0.771" font-size="0.009992" fill="hsl(0.0,100%,20%)">jie.a.chen</text>
<text x="0.357" y="1.082" font-size="0.003331" fill="hsl(0.0,100%,20%)">amaiorano</text>
<text x="0.400" y="1.091" font-size="0.003331" fill="hsl(0.0,100%,20%)">le.hoang.q</text>
<text x="0.088" y="0.761" font-size="0.003331" fill="hsl(0.0,100%,20%)">brucedawson</text>
<text x="0.309" y="0.764" font-size="0.004710" fill="hsl(0.0,100%,20%)">thakis</text>
<text x="0.700" y="0.173" font-size="0.004710" fill="hsl(0.0,100%,20%)">kainino</text>
<text x="1.427" y="0.184" font-size="0.005769" fill="hsl(0.0,100%,20%)">khushalsagar</text>
<text x="1.239" y="0.301" font-size="0.005769" fill="hsl(0.0,100%,20%)">zmo</text>
<text x="0.401" y="0.753" font-size="0.017936" fill="hsl(0.0,100%,20%)">lehoangq</text>
<text x="0.254" y="0.736" font-size="0.020531" fill="hsl(0.0,100%,20%)">lujc</text>
<text x="0.993" y="0.514" font-size="0.012009" fill="hsl(0.0,100%,20%)">mihu</text>
<text x="0.276" y="0.806" font-size="0.006661" fill="hsl(0.0,100%,20%)">shaobo.yan</text>
<text x="0.445" y="0.913" font-size="0.003331" fill="hsl(0.0,100%,20%)">jaedon1.lee</text>
<text x="0.838" y="0.380" font-size="0.009992" fill="hsl(0.0,100%,20%)">xinyi.he</text>
<text x="0.478" y="0.950" font-size="0.004710" fill="hsl(0.0,100%,20%)">sunny.sun</text>
<text x="0.613" y="0.177" font-size="0.003331" fill="hsl(0.0,100%,20%)">fei.yang</text>
<text x="0.082" y="0.753" font-size="0.003331" fill="hsl(0.0,100%,20%)">fjhenigman</text>
<text x="0.600" y="0.750" font-size="0.003331" fill="hsl(0.0,100%,20%)">cclao</text>
<text x="0.331" y="0.945" font-size="0.009992" fill="hsl(0.0,100%,20%)">xinghua.cao</text>
</svg>
