<svg width="4000" height="2000" viewBox="-0.025 -0.025 2.05 1.05" xmlns="http://www.w3.org/2000/svg">
  <style>
    path {
      fill: none;
      stroke-linecap: round;
      stroke-opacity: 0.4;
    }

    text {
      text-anchor: middle;
      alignment-baseline: hanging;
    }
  </style>
  <g opacity="0.4">
<path d="M0.968 0.397 Q0.965 0.382 0.937 0.380" stroke="hsl(0.0,100%,35%)" stroke-width="0.00828"></path>
<path d="M0.968 0.397 Q0.795 0.376 0.718 0.456" stroke="hsl(0.0,100%,35%)" stroke-width="0.01523"></path>
<path d="M0.968 0.397 Q0.591 0.317 0.353 0.484" stroke="hsl(0.0,100%,35%)" stroke-width="0.00099"></path>
<path d="M0.968 0.397 Q0.967 0.306 0.790 0.287" stroke="hsl(0.0,100%,35%)" stroke-width="0.00099"></path>
<path d="M0.968 0.397 Q0.811 0.185 0.364 0.215" stroke="hsl(0.0,100%,35%)" stroke-width="0.00132"></path>
<path d="M0.968 0.397 Q1.215 0.370 1.217 0.244" stroke="hsl(0.0,100%,35%)" stroke-width="0.00066"></path>
<path d="M0.968 0.397 Q1.182 0.392 1.221 0.287" stroke="hsl(0.0,100%,35%)" stroke-width="0.00066"></path>
<path d="M0.968 0.397 Q1.048 0.380 1.033 0.338" stroke="hsl(0.0,100%,35%)" stroke-width="0.00033"></path>
<path d="M0.968 0.397 Q0.965 0.288 0.752 0.265" stroke="hsl(0.0,100%,35%)" stroke-width="0.00033"></path>
<path d="M0.968 0.397 Q0.807 0.280 0.545 0.333" stroke="hsl(0.0,100%,35%)" stroke-width="0.00232"></path>
<path d="M0.968 0.397 Q0.468 0.534 0.626 0.808" stroke="hsl(0.0,100%,35%)" stroke-width="0.00066"></path>
<path d="M0.937 0.380 Q0.939 0.395 0.968 0.397" stroke="hsl(0.0,100%,35%)" stroke-width="0.01589"></path>
<path d="M0.937 0.380 Q0.767 0.374 0.718 0.456" stroke="hsl(0.0,100%,35%)" stroke-width="0.03808"></path>
<path d="M0.937 0.380 Q0.562 0.315 0.353 0.484" stroke="hsl(0.0,100%,35%)" stroke-width="0.01821"></path>
<path d="M0.937 0.380 Q0.819 0.469 0.965 0.546" stroke="hsl(0.0,100%,35%)" stroke-width="0.00033"></path>
<path d="M0.937 0.380 Q0.493 0.452 0.536 0.685" stroke="hsl(0.0,100%,35%)" stroke-width="0.00033"></path>
<path d="M0.937 0.380 Q1.019 0.378 1.033 0.338" stroke="hsl(0.0,100%,35%)" stroke-width="0.00563"></path>
<path d="M0.937 0.380 Q0.240 0.428 0.180 0.779" stroke="hsl(0.0,100%,35%)" stroke-width="0.00033"></path>
<path d="M0.937 0.380 Q0.837 0.504 1.057 0.580" stroke="hsl(0.0,100%,35%)" stroke-width="0.00033"></path>
<path d="M0.937 0.380 Q0.936 0.286 0.752 0.265" stroke="hsl(0.0,100%,35%)" stroke-width="0.00033"></path>
<path d="M0.937 0.380 Q1.014 0.298 0.871 0.242" stroke="hsl(0.0,100%,35%)" stroke-width="0.00066"></path>
<path d="M0.937 0.380 Q0.439 0.532 0.626 0.808" stroke="hsl(0.0,100%,35%)" stroke-width="0.00033"></path>
<path d="M0.937 0.380 Q0.592 0.349 0.455 0.510" stroke="hsl(0.0,100%,35%)" stroke-width="0.00066"></path>
<path d="M0.937 0.380 Q0.779 0.278 0.545 0.333" stroke="hsl(0.0,100%,35%)" stroke-width="0.00596"></path>
<path d="M0.937 0.380 Q0.727 0.416 0.752 0.526" stroke="hsl(0.0,100%,35%)" stroke-width="0.00066"></path>
<path d="M0.937 0.380 Q0.783 0.183 0.364 0.215" stroke="hsl(0.0,100%,35%)" stroke-width="0.00033"></path>
<path d="M0.718 0.456 Q0.888 0.462 0.937 0.380" stroke="hsl(0.0,100%,35%)" stroke-width="0.02483"></path>
<path d="M0.718 0.456 Q0.970 0.460 1.033 0.338" stroke="hsl(0.0,100%,35%)" stroke-width="0.00629"></path>
<path d="M0.718 0.456 Q0.513 0.397 0.353 0.484" stroke="hsl(0.0,100%,35%)" stroke-width="0.02483"></path>
<path d="M0.718 0.456 Q0.965 0.380 0.871 0.242" stroke="hsl(0.0,100%,35%)" stroke-width="0.00364"></path>
<path d="M0.718 0.456 Q0.390 0.614 0.626 0.808" stroke="hsl(0.0,100%,35%)" stroke-width="0.00497"></path>
<path d="M0.718 0.456 Q0.890 0.476 0.968 0.397" stroke="hsl(0.0,100%,35%)" stroke-width="0.01921"></path>
<path d="M0.718 0.456 Q0.817 0.637 1.191 0.629" stroke="hsl(0.0,100%,35%)" stroke-width="0.00033"></path>
<path d="M0.718 0.456 Q0.888 0.367 0.752 0.265" stroke="hsl(0.0,100%,35%)" stroke-width="0.00497"></path>
<path d="M0.718 0.456 Q0.679 0.498 0.752 0.526" stroke="hsl(0.0,100%,35%)" stroke-width="0.00166"></path>
<path d="M0.718 0.456 Q0.833 0.532 1.006 0.493" stroke="hsl(0.0,100%,35%)" stroke-width="0.00099"></path>
<path d="M0.718 0.456 Q0.730 0.360 0.545 0.333" stroke="hsl(0.0,100%,35%)" stroke-width="0.03245"></path>
<path d="M0.718 0.456 Q0.734 0.265 0.364 0.215" stroke="hsl(0.0,100%,35%)" stroke-width="0.01126"></path>
<path d="M0.718 0.456 Q0.889 0.386 0.790 0.287" stroke="hsl(0.0,100%,35%)" stroke-width="0.00199"></path>
<path d="M0.718 0.456 Q0.241 0.410 0.046 0.632" stroke="hsl(0.0,100%,35%)" stroke-width="0.00066"></path>
<path d="M0.718 0.456 Q0.623 0.706 1.090 0.807" stroke="hsl(0.0,100%,35%)" stroke-width="0.00033"></path>
<path d="M0.718 0.456 Q0.579 0.437 0.510 0.500" stroke="hsl(0.0,100%,35%)" stroke-width="0.00066"></path>
<path d="M0.718 0.456 Q0.828 0.526 0.988 0.488" stroke="hsl(0.0,100%,35%)" stroke-width="0.00033"></path>
<path d="M0.718 0.456 Q0.469 0.414 0.332 0.526" stroke="hsl(0.0,100%,35%)" stroke-width="0.00033"></path>
<path d="M0.718 0.456 Q0.444 0.534 0.536 0.685" stroke="hsl(0.0,100%,35%)" stroke-width="0.00066"></path>
<path d="M0.718 0.456 Q0.191 0.510 0.180 0.779" stroke="hsl(0.0,100%,35%)" stroke-width="0.00033"></path>
<path d="M0.718 0.456 Q0.884 0.528 1.062 0.463" stroke="hsl(0.0,100%,35%)" stroke-width="0.00033"></path>
<path d="M0.718 0.456 Q0.332 0.481 0.297 0.675" stroke="hsl(0.0,100%,35%)" stroke-width="0.00033"></path>
<path d="M0.718 0.456 Q1.038 0.334 0.871 0.151" stroke="hsl(0.0,100%,35%)" stroke-width="0.00033"></path>
<path d="M0.718 0.456 Q0.576 0.427 0.488 0.490" stroke="hsl(0.0,100%,35%)" stroke-width="0.00033"></path>
<path d="M0.718 0.456 Q0.788 0.586 1.057 0.580" stroke="hsl(0.0,100%,35%)" stroke-width="0.00033"></path>
<path d="M0.718 0.456 Q0.544 0.430 0.455 0.510" stroke="hsl(0.0,100%,35%)" stroke-width="0.00232"></path>
<path d="M0.718 0.456 Q0.732 0.594 1.004 0.618" stroke="hsl(0.0,100%,35%)" stroke-width="0.00066"></path>
<path d="M0.718 0.456 Q0.472 0.474 0.453 0.598" stroke="hsl(0.0,100%,35%)" stroke-width="0.00033"></path>
<path d="M0.718 0.456 Q0.728 0.362 0.546 0.336" stroke="hsl(0.0,100%,35%)" stroke-width="0.00033"></path>
<path d="M0.353 0.484 Q0.558 0.543 0.718 0.456" stroke="hsl(0.0,100%,35%)" stroke-width="0.01093"></path>
<path d="M0.353 0.484 Q0.574 0.352 0.364 0.215" stroke="hsl(0.0,100%,35%)" stroke-width="0.00298"></path>
<path d="M0.353 0.484 Q0.805 0.467 0.871 0.242" stroke="hsl(0.0,100%,35%)" stroke-width="0.00066"></path>
<path d="M0.353 0.484 Q0.878 0.421 0.871 0.151" stroke="hsl(0.0,100%,35%)" stroke-width="0.00033"></path>
<path d="M0.353 0.484 Q0.728 0.549 0.937 0.380" stroke="hsl(0.0,100%,35%)" stroke-width="0.00530"></path>
<path d="M0.353 0.484 Q0.729 0.473 0.790 0.287" stroke="hsl(0.0,100%,35%)" stroke-width="0.00132"></path>
<path d="M0.353 0.484 Q0.730 0.563 0.968 0.397" stroke="hsl(0.0,100%,35%)" stroke-width="0.00199"></path>
<path d="M0.353 0.484 Q0.570 0.447 0.545 0.333" stroke="hsl(0.0,100%,35%)" stroke-width="0.00232"></path>
<path d="M0.353 0.484 Q0.668 0.613 0.988 0.488" stroke="hsl(0.0,100%,35%)" stroke-width="0.00033"></path>
<path d="M0.353 0.484 Q0.230 0.700 0.626 0.808" stroke="hsl(0.0,100%,35%)" stroke-width="0.00066"></path>
<path d="M0.353 0.484 Q0.727 0.454 0.752 0.265" stroke="hsl(0.0,100%,35%)" stroke-width="0.00033"></path>
<path d="M0.353 0.484 Q0.384 0.517 0.455 0.510" stroke="hsl(0.0,100%,35%)" stroke-width="0.00033"></path>
<path d="M0.353 0.484 Q0.810 0.547 1.033 0.338" stroke="hsl(0.0,100%,35%)" stroke-width="0.00132"></path>
<path d="M0.353 0.484 Q0.031 0.597 0.180 0.779" stroke="hsl(0.0,100%,35%)" stroke-width="0.00033"></path>
<path d="M0.353 0.484 Q0.656 0.724 1.191 0.629" stroke="hsl(0.0,100%,35%)" stroke-width="0.00033"></path>
<path d="M0.353 0.484 Q0.519 0.585 0.752 0.526" stroke="hsl(0.0,100%,35%)" stroke-width="0.00033"></path>
<path d="M0.790 0.287 Q0.788 0.268 0.752 0.265" stroke="hsl(0.0,100%,35%)" stroke-width="0.00497"></path>
<path d="M0.790 0.287 Q0.619 0.357 0.718 0.456" stroke="hsl(0.0,100%,35%)" stroke-width="0.00629"></path>
<path d="M0.790 0.287 Q0.635 0.166 0.364 0.215" stroke="hsl(0.0,100%,35%)" stroke-width="0.00828"></path>
<path d="M0.790 0.287 Q0.789 0.363 0.937 0.380" stroke="hsl(0.0,100%,35%)" stroke-width="0.00166"></path>
<path d="M0.790 0.287 Q0.791 0.377 0.968 0.397" stroke="hsl(0.0,100%,35%)" stroke-width="0.00563"></path>
<path d="M0.790 0.287 Q0.414 0.298 0.353 0.484" stroke="hsl(0.0,100%,35%)" stroke-width="0.00298"></path>
<path d="M0.790 0.287 Q0.631 0.261 0.545 0.333" stroke="hsl(0.0,100%,35%)" stroke-width="0.01854"></path>
<path d="M0.790 0.287 Q0.291 0.515 0.626 0.808" stroke="hsl(0.0,100%,35%)" stroke-width="0.00232"></path>
<path d="M0.790 0.287 Q0.871 0.361 1.033 0.338" stroke="hsl(0.0,100%,35%)" stroke-width="0.00166"></path>
<path d="M0.790 0.287 Q0.580 0.399 0.752 0.526" stroke="hsl(0.0,100%,35%)" stroke-width="0.00033"></path>
<path d="M0.790 0.287 Q0.967 0.266 0.965 0.175" stroke="hsl(0.0,100%,35%)" stroke-width="0.00132"></path>
<path d="M0.790 0.287 Q0.423 0.406 0.574 0.611" stroke="hsl(0.0,100%,35%)" stroke-width="0.00033"></path>
<path d="M0.790 0.287 Q1.055 0.244 1.029 0.105" stroke="hsl(0.0,100%,35%)" stroke-width="0.00033"></path>
<path d="M0.790 0.287 Q0.345 0.435 0.536 0.685" stroke="hsl(0.0,100%,35%)" stroke-width="0.00033"></path>
<path d="M0.790 0.287 Q0.445 0.331 0.455 0.510" stroke="hsl(0.0,100%,35%)" stroke-width="0.00033"></path>
<path d="M0.364 0.215 Q0.520 0.336 0.790 0.287" stroke="hsl(0.0,100%,35%)" stroke-width="0.01026"></path>
<path d="M0.364 0.215 Q0.521 0.427 0.968 0.397" stroke="hsl(0.0,100%,35%)" stroke-width="0.00298"></path>
<path d="M0.364 0.215 Q0.144 0.347 0.353 0.484" stroke="hsl(0.0,100%,35%)" stroke-width="0.00993"></path>
<path d="M0.364 0.215 Q0.518 0.318 0.752 0.265" stroke="hsl(0.0,100%,35%)" stroke-width="0.00166"></path>
<path d="M0.364 0.215 Q0.348 0.406 0.718 0.456" stroke="hsl(0.0,100%,35%)" stroke-width="0.00430"></path>
<path d="M0.364 0.215 Q0.021 0.564 0.626 0.808" stroke="hsl(0.0,100%,35%)" stroke-width="0.00066"></path>
<path d="M0.364 0.215 Q0.360 0.310 0.545 0.333" stroke="hsl(0.0,100%,35%)" stroke-width="0.01358"></path>
<path d="M0.364 0.215 Q0.458 0.476 0.988 0.488" stroke="hsl(0.0,100%,35%)" stroke-width="0.00033"></path>
<path d="M0.364 0.215 Q0.481 0.275 0.624 0.231" stroke="hsl(0.0,100%,35%)" stroke-width="0.00066"></path>
<path d="M0.364 0.215 Q0.518 0.412 0.937 0.380" stroke="hsl(0.0,100%,35%)" stroke-width="0.00298"></path>
<path d="M0.364 0.215 Q0.505 0.239 0.583 0.176" stroke="hsl(0.0,100%,35%)" stroke-width="0.00099"></path>
<path d="M0.364 0.215 Q0.635 0.180 0.625 0.040" stroke="hsl(0.0,100%,35%)" stroke-width="0.00033"></path>
<path d="M0.364 0.215 Q-0.179 0.460 0.180 0.779" stroke="hsl(0.0,100%,35%)" stroke-width="0.00033"></path>
<path d="M0.364 0.215 Q0.174 0.380 0.455 0.510" stroke="hsl(0.0,100%,35%)" stroke-width="0.00033"></path>
<path d="M0.364 0.215 Q0.600 0.410 1.033 0.338" stroke="hsl(0.0,100%,35%)" stroke-width="0.00033"></path>
<path d="M1.033 0.338 Q0.797 0.143 0.364 0.215" stroke="hsl(0.0,100%,35%)" stroke-width="0.00066"></path>
<path d="M1.033 0.338 Q0.781 0.334 0.718 0.456" stroke="hsl(0.0,100%,35%)" stroke-width="0.00066"></path>
<path d="M1.033 0.338 Q0.793 0.238 0.545 0.333" stroke="hsl(0.0,100%,35%)" stroke-width="0.00099"></path>
<path d="M1.033 0.338 Q0.952 0.264 0.790 0.287" stroke="hsl(0.0,100%,35%)" stroke-width="0.00066"></path>
<path d="M1.033 0.338 Q0.851 0.464 1.057 0.580" stroke="hsl(0.0,100%,35%)" stroke-width="0.00033"></path>
<path d="M1.033 0.338 Q0.951 0.340 0.937 0.380" stroke="hsl(0.0,100%,35%)" stroke-width="0.00066"></path>
<path d="M1.033 0.338 Q0.453 0.491 0.626 0.808" stroke="hsl(0.0,100%,35%)" stroke-width="0.00099"></path>
<path d="M1.033 0.338 Q0.879 0.515 1.191 0.629" stroke="hsl(0.0,100%,35%)" stroke-width="0.00033"></path>
<path d="M1.033 0.338 Q1.028 0.257 0.871 0.242" stroke="hsl(0.0,100%,35%)" stroke-width="0.00033"></path>
<path d="M1.033 0.338 Q0.950 0.245 0.752 0.265" stroke="hsl(0.0,100%,35%)" stroke-width="0.00033"></path>
<path d="M1.033 0.338 Q0.576 0.275 0.353 0.484" stroke="hsl(0.0,100%,35%)" stroke-width="0.00033"></path>
<path d="M0.752 0.265 Q0.255 0.511 0.626 0.808" stroke="hsl(0.0,100%,35%)" stroke-width="0.00199"></path>
<path d="M0.752 0.265 Q0.754 0.284 0.790 0.287" stroke="hsl(0.0,100%,35%)" stroke-width="0.00331"></path>
<path d="M0.752 0.265 Q0.989 0.405 1.315 0.320" stroke="hsl(0.0,100%,35%)" stroke-width="0.00033"></path>
<path d="M0.752 0.265 Q0.582 0.354 0.718 0.456" stroke="hsl(0.0,100%,35%)" stroke-width="0.00331"></path>
<path d="M0.752 0.265 Q0.594 0.258 0.545 0.333" stroke="hsl(0.0,100%,35%)" stroke-width="0.00828"></path>
<path d="M0.752 0.265 Q0.752 0.360 0.937 0.380" stroke="hsl(0.0,100%,35%)" stroke-width="0.00033"></path>
<path d="M0.752 0.265 Q0.378 0.295 0.353 0.484" stroke="hsl(0.0,100%,35%)" stroke-width="0.00066"></path>
<path d="M0.752 0.265 Q0.055 0.408 0.180 0.779" stroke="hsl(0.0,100%,35%)" stroke-width="0.00033"></path>
<path d="M0.752 0.265 Q0.598 0.163 0.364 0.215" stroke="hsl(0.0,100%,35%)" stroke-width="0.00099"></path>
<path d="M0.752 0.265 Q0.755 0.374 0.968 0.397" stroke="hsl(0.0,100%,35%)" stroke-width="0.00033"></path>
<path d="M0.752 0.265 Q0.912 0.227 0.873 0.141" stroke="hsl(0.0,100%,35%)" stroke-width="0.00033"></path>
<path d="M0.545 0.333 Q0.703 0.435 0.937 0.380" stroke="hsl(0.0,100%,35%)" stroke-width="0.00232"></path>
<path d="M0.545 0.333 Q0.549 0.238 0.364 0.215" stroke="hsl(0.0,100%,35%)" stroke-width="0.01623"></path>
<path d="M0.545 0.333 Q0.533 0.429 0.718 0.456" stroke="hsl(0.0,100%,35%)" stroke-width="0.01788"></path>
<path d="M0.545 0.333 Q0.702 0.340 0.752 0.265" stroke="hsl(0.0,100%,35%)" stroke-width="0.01060"></path>
<path d="M0.545 0.333 Q0.704 0.359 0.790 0.287" stroke="hsl(0.0,100%,35%)" stroke-width="0.00662"></path>
<path d="M0.545 0.333 Q0.328 0.370 0.353 0.484" stroke="hsl(0.0,100%,35%)" stroke-width="0.01159"></path>
<path d="M0.545 0.333 Q0.259 0.507 0.536 0.685" stroke="hsl(0.0,100%,35%)" stroke-width="0.00099"></path>
<path d="M0.545 0.333 Q0.205 0.587 0.626 0.808" stroke="hsl(0.0,100%,35%)" stroke-width="0.00166"></path>
<path d="M0.545 0.333 Q0.705 0.449 0.968 0.397" stroke="hsl(0.0,100%,35%)" stroke-width="0.00199"></path>
<path d="M0.545 0.333 Q0.284 0.387 0.332 0.526" stroke="hsl(0.0,100%,35%)" stroke-width="0.00033"></path>
<path d="M0.545 0.333 Q0.358 0.403 0.455 0.510" stroke="hsl(0.0,100%,35%)" stroke-width="0.00066"></path>
<path d="M0.545 0.333 Q0.336 0.478 0.574 0.611" stroke="hsl(0.0,100%,35%)" stroke-width="0.00033"></path>
<path d="M0.545 0.333 Q0.833 0.264 0.762 0.108" stroke="hsl(0.0,100%,35%)" stroke-width="0.00033"></path>
<path d="M0.545 0.333 Q0.785 0.433 1.033 0.338" stroke="hsl(0.0,100%,35%)" stroke-width="0.00033"></path>
<path d="M0.626 0.808 Q0.427 0.704 0.180 0.779" stroke="hsl(180.0,100%,35%)" stroke-width="0.00331"></path>
<path d="M0.626 0.808 Q0.680 0.728 0.536 0.685" stroke="hsl(180.0,100%,35%)" stroke-width="0.00298"></path>
<path d="M0.626 0.808 Q0.964 0.556 0.546 0.336" stroke="hsl(180.0,100%,35%)" stroke-width="0.00166"></path>
<path d="M0.626 0.808 Q0.859 0.901 1.090 0.807" stroke="hsl(180.0,100%,35%)" stroke-width="0.00066"></path>
<path d="M0.626 0.808 Q0.953 0.651 0.718 0.456" stroke="hsl(180.0,100%,35%)" stroke-width="0.00298"></path>
<path d="M0.626 0.808 Q0.970 0.459 0.364 0.215" stroke="hsl(180.0,100%,35%)" stroke-width="0.00166"></path>
<path d="M0.626 0.808 Q0.612 0.713 0.424 0.699" stroke="hsl(180.0,100%,35%)" stroke-width="0.00066"></path>
<path d="M0.626 0.808 Q0.779 0.625 0.455 0.510" stroke="hsl(180.0,100%,35%)" stroke-width="0.00066"></path>
<path d="M0.626 0.808 Q0.966 0.554 0.545 0.333" stroke="hsl(180.0,100%,35%)" stroke-width="0.00232"></path>
<path d="M0.626 0.808 Q1.123 0.562 0.752 0.265" stroke="hsl(180.0,100%,35%)" stroke-width="0.00066"></path>
<path d="M0.626 0.808 Q0.477 0.604 0.046 0.632" stroke="hsl(180.0,100%,35%)" stroke-width="0.00132"></path>
<path d="M0.626 0.808 Q0.749 0.591 0.353 0.484" stroke="hsl(180.0,100%,35%)" stroke-width="0.00066"></path>
<path d="M0.626 0.808 Q1.617 0.591 1.412 0.060" stroke="hsl(180.0,100%,35%)" stroke-width="0.00033"></path>
<path d="M0.626 0.808 Q1.206 0.654 1.033 0.338" stroke="hsl(180.0,100%,35%)" stroke-width="0.00033"></path>
<path d="M0.626 0.808 Q1.274 0.529 0.871 0.151" stroke="hsl(180.0,100%,35%)" stroke-width="0.00033"></path>
<path d="M1.092 0.483 Q0.939 0.299 0.545 0.333" stroke="hsl(0.0,100%,35%)" stroke-width="0.00033"></path>
<path d="M1.092 0.483 Q0.927 0.395 0.718 0.456" stroke="hsl(0.0,100%,35%)" stroke-width="0.00066"></path>
<path d="M1.092 0.483 Q1.097 0.401 0.937 0.380" stroke="hsl(0.0,100%,35%)" stroke-width="0.00033"></path>
<path d="M0.364 0.272 Q0.394 0.435 0.718 0.456" stroke="hsl(0.0,100%,35%)" stroke-width="0.00364"></path>
<path d="M0.364 0.272 Q0.406 0.339 0.545 0.333" stroke="hsl(0.0,100%,35%)" stroke-width="0.00397"></path>
<path d="M0.364 0.272 Q0.509 0.511 1.006 0.493" stroke="hsl(0.0,100%,35%)" stroke-width="0.00033"></path>
<path d="M1.006 0.493 Q0.891 0.417 0.718 0.456" stroke="hsl(0.0,100%,35%)" stroke-width="0.00166"></path>
<path d="M1.006 0.493 Q0.852 0.458 0.752 0.526" stroke="hsl(0.0,100%,35%)" stroke-width="0.00033"></path>
<path d="M1.006 0.493 Q0.903 0.320 0.545 0.333" stroke="hsl(0.0,100%,35%)" stroke-width="0.00033"></path>
<path d="M1.157 0.050 Q0.761 0.047 0.668 0.240" stroke="hsl(0.0,100%,35%)" stroke-width="0.00033"></path>
<path d="M1.157 0.050 Q0.785 0.186 0.968 0.397" stroke="hsl(0.0,100%,35%)" stroke-width="0.00033"></path>
<path d="M1.157 0.050 Q1.158 0.123 1.301 0.139" stroke="hsl(0.0,100%,35%)" stroke-width="0.00066"></path>
<path d="M0.668 0.240 Q0.536 0.167 0.364 0.215" stroke="hsl(0.0,100%,35%)" stroke-width="0.00033"></path>
<path d="M0.668 0.240 Q0.850 0.231 0.873 0.141" stroke="hsl(0.0,100%,35%)" stroke-width="0.00033"></path>
<path d="M0.668 0.240 Q0.532 0.262 0.545 0.333" stroke="hsl(0.0,100%,35%)" stroke-width="0.00066"></path>
<path d="M0.453 0.598 Q0.699 0.580 0.718 0.456" stroke="hsl(0.0,100%,35%)" stroke-width="0.00232"></path>
<path d="M0.453 0.598 Q0.371 0.738 0.626 0.808" stroke="hsl(0.0,100%,35%)" stroke-width="0.00033"></path>
<path d="M0.453 0.598 Q0.265 0.707 0.436 0.823" stroke="hsl(0.0,100%,35%)" stroke-width="0.00033"></path>
<path d="M0.453 0.598 Q0.711 0.484 0.545 0.333" stroke="hsl(0.0,100%,35%)" stroke-width="0.00132"></path>
<path d="M0.453 0.598 Q0.503 0.629 0.574 0.611" stroke="hsl(0.0,100%,35%)" stroke-width="0.00033"></path>
<path d="M0.453 0.598 Q0.660 0.622 0.752 0.526" stroke="hsl(0.0,100%,35%)" stroke-width="0.00033"></path>
<path d="M0.436 0.823 Q0.870 0.696 0.718 0.456" stroke="hsl(180.0,100%,35%)" stroke-width="0.00629"></path>
<path d="M0.436 0.823 Q0.543 0.853 0.626 0.808" stroke="hsl(180.0,100%,35%)" stroke-width="0.01126"></path>
<path d="M0.436 0.823 Q0.343 0.749 0.180 0.779" stroke="hsl(180.0,100%,35%)" stroke-width="0.00662"></path>
<path d="M0.436 0.823 Q0.284 0.863 0.329 0.946" stroke="hsl(180.0,100%,35%)" stroke-width="0.00232"></path>
<path d="M0.436 0.823 Q0.882 0.599 0.545 0.333" stroke="hsl(180.0,100%,35%)" stroke-width="0.00430"></path>
<path d="M0.436 0.823 Q0.393 0.649 0.046 0.632" stroke="hsl(180.0,100%,35%)" stroke-width="0.00066"></path>
<path d="M0.436 0.823 Q0.597 0.773 0.536 0.685" stroke="hsl(180.0,100%,35%)" stroke-width="0.00033"></path>
<path d="M0.752 0.526 Q0.791 0.484 0.718 0.456" stroke="hsl(0.0,100%,35%)" stroke-width="0.01325"></path>
<path d="M0.752 0.526 Q0.961 0.490 0.937 0.380" stroke="hsl(0.0,100%,35%)" stroke-width="0.00232"></path>
<path d="M0.752 0.526 Q0.586 0.425 0.353 0.484" stroke="hsl(0.0,100%,35%)" stroke-width="0.00033"></path>
<path d="M0.752 0.526 Q0.801 0.390 0.546 0.336" stroke="hsl(0.0,100%,35%)" stroke-width="0.00033"></path>
<path d="M0.752 0.526 Q1.038 0.408 0.871 0.242" stroke="hsl(0.0,100%,35%)" stroke-width="0.00066"></path>
<path d="M0.752 0.526 Q0.803 0.388 0.545 0.333" stroke="hsl(0.0,100%,35%)" stroke-width="0.00497"></path>
<path d="M0.752 0.526 Q0.595 0.533 0.574 0.611" stroke="hsl(0.0,100%,35%)" stroke-width="0.00099"></path>
<path d="M0.752 0.526 Q1.043 0.488 1.033 0.338" stroke="hsl(0.0,100%,35%)" stroke-width="0.00132"></path>
<path d="M0.752 0.526 Q0.962 0.414 0.790 0.287" stroke="hsl(0.0,100%,35%)" stroke-width="0.00066"></path>
<path d="M0.752 0.526 Q0.617 0.459 0.455 0.510" stroke="hsl(0.0,100%,35%)" stroke-width="0.00033"></path>
<path d="M0.802 0.844 Q0.743 0.791 0.626 0.808" stroke="hsl(180.0,100%,35%)" stroke-width="0.00066"></path>
<path d="M0.802 0.844 Q0.897 0.607 0.455 0.510" stroke="hsl(180.0,100%,35%)" stroke-width="0.00033"></path>
<path d="M0.802 0.844 Q1.735 0.574 1.412 0.060" stroke="hsl(180.0,100%,35%)" stroke-width="0.00033"></path>
<path d="M0.455 0.510 Q0.629 0.535 0.718 0.456" stroke="hsl(0.0,100%,35%)" stroke-width="0.00331"></path>
<path d="M0.455 0.510 Q0.799 0.541 0.937 0.380" stroke="hsl(0.0,100%,35%)" stroke-width="0.00265"></path>
<path d="M0.455 0.510 Q0.877 0.459 0.871 0.242" stroke="hsl(0.0,100%,35%)" stroke-width="0.00033"></path>
<path d="M0.455 0.510 Q0.728 0.716 1.191 0.629" stroke="hsl(0.0,100%,35%)" stroke-width="0.00033"></path>
<path d="M0.455 0.510 Q0.425 0.476 0.353 0.484" stroke="hsl(0.0,100%,35%)" stroke-width="0.00033"></path>
<path d="M0.966 0.168 Q0.582 0.100 0.364 0.272" stroke="hsl(180.0,100%,35%)" stroke-width="0.00033"></path>
<path d="M0.966 0.168 Q0.781 0.174 0.752 0.265" stroke="hsl(180.0,100%,35%)" stroke-width="0.00033"></path>
<path d="M0.966 0.168 Q0.085 0.316 0.180 0.779" stroke="hsl(180.0,100%,35%)" stroke-width="0.00066"></path>
<path d="M0.966 0.168 Q0.612 0.263 0.718 0.456" stroke="hsl(180.0,100%,35%)" stroke-width="0.00099"></path>
<path d="M0.966 0.168 Q0.624 0.166 0.545 0.333" stroke="hsl(180.0,100%,35%)" stroke-width="0.00033"></path>
<path d="M0.180 0.779 Q0.380 0.882 0.626 0.808" stroke="hsl(180.0,100%,35%)" stroke-width="0.00265"></path>
<path d="M0.180 0.779 Q0.194 0.715 0.073 0.695" stroke="hsl(180.0,100%,35%)" stroke-width="0.00066"></path>
<path d="M0.180 0.779 Q0.230 0.679 0.046 0.632" stroke="hsl(180.0,100%,35%)" stroke-width="0.00132"></path>
<path d="M0.180 0.779 Q0.121 0.892 0.329 0.946" stroke="hsl(180.0,100%,35%)" stroke-width="0.00066"></path>
<path d="M0.180 0.779 Q0.612 0.975 1.090 0.807" stroke="hsl(180.0,100%,35%)" stroke-width="0.00033"></path>
<path d="M0.180 0.779 Q0.719 0.629 0.545 0.333" stroke="hsl(180.0,100%,35%)" stroke-width="0.00066"></path>
<path d="M0.965 0.175 Q0.786 0.178 0.752 0.265" stroke="hsl(0.0,100%,35%)" stroke-width="0.00166"></path>
<path d="M0.965 0.175 Q0.617 0.266 0.718 0.456" stroke="hsl(0.0,100%,35%)" stroke-width="0.00066"></path>
<path d="M0.965 0.175 Q0.629 0.170 0.545 0.333" stroke="hsl(0.0,100%,35%)" stroke-width="0.00033"></path>
<path d="M0.965 0.175 Q0.788 0.196 0.790 0.287" stroke="hsl(0.0,100%,35%)" stroke-width="0.00066"></path>
<path d="M0.965 0.175 Q1.106 0.305 1.390 0.264" stroke="hsl(0.0,100%,35%)" stroke-width="0.00033"></path>
<path d="M0.790 0.148 Q0.507 0.288 0.718 0.456" stroke="hsl(180.0,100%,35%)" stroke-width="0.00166"></path>
<path d="M0.790 0.148 Q0.519 0.191 0.545 0.333" stroke="hsl(180.0,100%,35%)" stroke-width="0.00166"></path>
<path d="M0.790 0.148 Q0.180 0.445 0.626 0.808" stroke="hsl(180.0,100%,35%)" stroke-width="0.00099"></path>
<path d="M0.790 0.148 Q0.828 0.166 0.871 0.151" stroke="hsl(180.0,100%,35%)" stroke-width="0.00033"></path>
<path d="M0.790 0.148 Q0.234 0.366 0.536 0.685" stroke="hsl(180.0,100%,35%)" stroke-width="0.00033"></path>
<path d="M0.536 0.685 Q0.482 0.764 0.626 0.808" stroke="hsl(180.0,100%,35%)" stroke-width="0.00132"></path>
<path d="M0.536 0.685 Q0.810 0.607 0.718 0.456" stroke="hsl(180.0,100%,35%)" stroke-width="0.00132"></path>
<path d="M0.536 0.685 Q0.283 0.660 0.180 0.779" stroke="hsl(180.0,100%,35%)" stroke-width="0.00033"></path>
<path d="M0.536 0.685 Q0.822 0.510 0.545 0.333" stroke="hsl(180.0,100%,35%)" stroke-width="0.00066"></path>
<path d="M0.536 0.685 Q0.979 0.518 0.752 0.265" stroke="hsl(180.0,100%,35%)" stroke-width="0.00033"></path>
<path d="M0.965 0.546 Q0.585 0.609 0.626 0.808" stroke="hsl(0.0,100%,35%)" stroke-width="0.00066"></path>
<path d="M0.965 0.546 Q0.913 0.451 0.718 0.456" stroke="hsl(0.0,100%,35%)" stroke-width="0.02185"></path>
<path d="M0.965 0.546 Q1.083 0.457 0.937 0.380" stroke="hsl(0.0,100%,35%)" stroke-width="0.01854"></path>
<path d="M0.965 0.546 Q0.708 0.392 0.353 0.484" stroke="hsl(0.0,100%,35%)" stroke-width="0.00033"></path>
<path d="M0.871 0.242 Q0.623 0.319 0.718 0.456" stroke="hsl(0.0,100%,35%)" stroke-width="0.00232"></path>
<path d="M0.871 0.242 Q0.639 0.127 0.364 0.215" stroke="hsl(0.0,100%,35%)" stroke-width="0.00033"></path>
<path d="M0.871 0.242 Q0.793 0.324 0.937 0.380" stroke="hsl(0.0,100%,35%)" stroke-width="0.00033"></path>
<path d="M0.871 0.242 Q0.449 0.293 0.455 0.510" stroke="hsl(0.0,100%,35%)" stroke-width="0.00066"></path>
<path d="M0.297 0.675 Q0.155 0.703 0.180 0.779" stroke="hsl(180.0,100%,35%)" stroke-width="0.01060"></path>
<path d="M0.297 0.675 Q0.682 0.650 0.718 0.456" stroke="hsl(180.0,100%,35%)" stroke-width="0.01258"></path>
<path d="M0.297 0.675 Q0.355 0.807 0.626 0.808" stroke="hsl(180.0,100%,35%)" stroke-width="0.00695"></path>
<path d="M0.297 0.675 Q0.619 0.792 0.919 0.661" stroke="hsl(180.0,100%,35%)" stroke-width="0.00066"></path>
<path d="M0.297 0.675 Q1.012 0.523 0.873 0.141" stroke="hsl(180.0,100%,35%)" stroke-width="0.00132"></path>
<path d="M0.297 0.675 Q0.694 0.553 0.545 0.333" stroke="hsl(180.0,100%,35%)" stroke-width="0.00066"></path>
<path d="M0.297 0.675 Q0.543 0.630 0.510 0.500" stroke="hsl(180.0,100%,35%)" stroke-width="0.00066"></path>
<path d="M0.297 0.675 Q0.096 0.817 0.329 0.946" stroke="hsl(180.0,100%,35%)" stroke-width="0.00066"></path>
<path d="M0.297 0.675 Q0.587 0.900 1.090 0.807" stroke="hsl(180.0,100%,35%)" stroke-width="0.00033"></path>
<path d="M0.297 0.675 Q0.852 0.561 0.752 0.265" stroke="hsl(180.0,100%,35%)" stroke-width="0.00066"></path>
<path d="M0.297 0.675 Q0.205 0.603 0.046 0.632" stroke="hsl(180.0,100%,35%)" stroke-width="0.00033"></path>
<path d="M0.919 0.661 Q0.655 0.676 0.626 0.808" stroke="hsl(180.0,100%,35%)" stroke-width="0.00066"></path>
<path d="M0.919 0.661 Q1.152 0.430 0.752 0.265" stroke="hsl(180.0,100%,35%)" stroke-width="0.00033"></path>
<path d="M0.919 0.661 Q0.709 0.596 0.536 0.685" stroke="hsl(180.0,100%,35%)" stroke-width="0.00033"></path>
<path d="M0.873 0.141 Q0.556 0.171 0.545 0.333" stroke="hsl(0.0,100%,35%)" stroke-width="0.00927"></path>
<path d="M0.873 0.141 Q0.216 0.425 0.626 0.808" stroke="hsl(0.0,100%,35%)" stroke-width="0.00132"></path>
<path d="M0.873 0.141 Q0.544 0.267 0.718 0.456" stroke="hsl(0.0,100%,35%)" stroke-width="0.00066"></path>
<path d="M0.510 0.500 Q0.662 0.424 0.545 0.333" stroke="hsl(0.0,100%,35%)" stroke-width="0.00298"></path>
<path d="M0.510 0.500 Q0.376 0.598 0.536 0.685" stroke="hsl(0.0,100%,35%)" stroke-width="0.00033"></path>
<path d="M0.510 0.500 Q0.322 0.677 0.626 0.808" stroke="hsl(0.0,100%,35%)" stroke-width="0.00066"></path>
<path d="M0.510 0.500 Q0.650 0.520 0.718 0.456" stroke="hsl(0.0,100%,35%)" stroke-width="0.00232"></path>
<path d="M0.510 0.500 Q0.610 0.562 0.752 0.526" stroke="hsl(0.0,100%,35%)" stroke-width="0.00033"></path>
<path d="M0.510 0.500 Q0.123 0.574 0.180 0.779" stroke="hsl(0.0,100%,35%)" stroke-width="0.00033"></path>
<path d="M0.329 0.946 Q0.916 0.779 0.718 0.456" stroke="hsl(180.0,100%,35%)" stroke-width="0.00066"></path>
<path d="M0.329 0.946 Q0.389 0.832 0.180 0.779" stroke="hsl(180.0,100%,35%)" stroke-width="0.00166"></path>
<path d="M0.329 0.946 Q0.642 0.857 0.536 0.685" stroke="hsl(180.0,100%,35%)" stroke-width="0.00033"></path>
<path d="M0.329 0.946 Q0.439 0.732 0.046 0.632" stroke="hsl(180.0,100%,35%)" stroke-width="0.00099"></path>
<path d="M0.329 0.946 Q0.588 0.936 0.626 0.808" stroke="hsl(180.0,100%,35%)" stroke-width="0.00033"></path>
<path d="M1.090 0.807 Q0.672 0.548 0.073 0.695" stroke="hsl(180.0,100%,35%)" stroke-width="0.00033"></path>
<path d="M1.090 0.807 Q0.658 0.611 0.180 0.779" stroke="hsl(180.0,100%,35%)" stroke-width="0.00066"></path>
<path d="M1.090 0.807 Q0.708 0.511 0.046 0.632" stroke="hsl(180.0,100%,35%)" stroke-width="0.00066"></path>
<path d="M1.090 0.807 Q0.912 0.635 0.536 0.685" stroke="hsl(180.0,100%,35%)" stroke-width="0.00066"></path>
<path d="M1.090 0.807 Q1.197 0.461 0.545 0.333" stroke="hsl(180.0,100%,35%)" stroke-width="0.00033"></path>
<path d="M1.090 0.807 Q0.858 0.715 0.626 0.808" stroke="hsl(180.0,100%,35%)" stroke-width="0.00033"></path>
<path d="M0.046 0.632 Q-0.004 0.732 0.180 0.779" stroke="hsl(180.0,100%,35%)" stroke-width="0.00762"></path>
<path d="M0.046 0.632 Q-0.063 0.846 0.329 0.946" stroke="hsl(180.0,100%,35%)" stroke-width="0.00166"></path>
<path d="M0.046 0.632 Q0.428 0.929 1.090 0.807" stroke="hsl(180.0,100%,35%)" stroke-width="0.00033"></path>
<path d="M0.046 0.632 Q0.535 0.582 0.545 0.333" stroke="hsl(180.0,100%,35%)" stroke-width="0.00066"></path>
<path d="M0.046 0.632 Q0.195 0.836 0.626 0.808" stroke="hsl(180.0,100%,35%)" stroke-width="0.00132"></path>
<path d="M0.046 0.632 Q0.523 0.679 0.718 0.456" stroke="hsl(180.0,100%,35%)" stroke-width="0.00166"></path>
<path d="M0.046 0.632 Q0.249 0.756 0.536 0.685" stroke="hsl(180.0,100%,35%)" stroke-width="0.00033"></path>
<path d="M0.046 0.632 Q0.692 0.590 0.752 0.265" stroke="hsl(180.0,100%,35%)" stroke-width="0.00033"></path>
<path d="M0.988 0.488 Q0.674 0.359 0.353 0.484" stroke="hsl(0.0,100%,35%)" stroke-width="0.00199"></path>
<path d="M0.988 0.488 Q0.895 0.226 0.364 0.215" stroke="hsl(0.0,100%,35%)" stroke-width="0.00033"></path>
<path d="M0.988 0.488 Q0.879 0.418 0.718 0.456" stroke="hsl(0.0,100%,35%)" stroke-width="0.00199"></path>
<path d="M0.988 0.488 Q1.050 0.348 0.790 0.287" stroke="hsl(0.0,100%,35%)" stroke-width="0.00033"></path>
<path d="M0.988 0.488 Q1.049 0.424 0.937 0.380" stroke="hsl(0.0,100%,35%)" stroke-width="0.00066"></path>
<path d="M0.988 0.488 Q0.891 0.322 0.545 0.333" stroke="hsl(0.0,100%,35%)" stroke-width="0.00033"></path>
<path d="M0.624 0.231 Q0.507 0.171 0.364 0.215" stroke="hsl(0.0,100%,35%)" stroke-width="0.01225"></path>
<path d="M0.624 0.231 Q0.295 0.411 0.574 0.611" stroke="hsl(0.0,100%,35%)" stroke-width="0.00033"></path>
<path d="M0.624 0.231 Q0.743 0.366 1.033 0.338" stroke="hsl(0.0,100%,35%)" stroke-width="0.00033"></path>
<path d="M0.624 0.231 Q0.491 0.362 0.718 0.456" stroke="hsl(0.0,100%,35%)" stroke-width="0.00132"></path>
<path d="M0.624 0.231 Q0.503 0.266 0.545 0.333" stroke="hsl(0.0,100%,35%)" stroke-width="0.01126"></path>
<path d="M0.624 0.231 Q0.884 0.389 1.250 0.296" stroke="hsl(0.0,100%,35%)" stroke-width="0.00066"></path>
<path d="M0.583 0.176 Q0.443 0.152 0.364 0.215" stroke="hsl(0.0,100%,35%)" stroke-width="0.00993"></path>
<path d="M0.583 0.176 Q0.439 0.247 0.545 0.333" stroke="hsl(0.0,100%,35%)" stroke-width="0.00695"></path>
<path d="M0.583 0.176 Q0.427 0.343 0.718 0.456" stroke="hsl(0.0,100%,35%)" stroke-width="0.00099"></path>
<path d="M0.583 0.176 Q0.597 0.349 0.937 0.380" stroke="hsl(0.0,100%,35%)" stroke-width="0.00033"></path>
<path d="M0.625 0.040 Q0.351 0.170 0.545 0.333" stroke="hsl(0.0,100%,35%)" stroke-width="0.00099"></path>
<path d="M0.625 0.040 Q0.011 0.424 0.626 0.808" stroke="hsl(0.0,100%,35%)" stroke-width="0.00132"></path>
<path d="M0.625 0.040 Q0.355 0.075 0.364 0.215" stroke="hsl(0.0,100%,35%)" stroke-width="0.00563"></path>
<path d="M0.625 0.040 Q0.339 0.267 0.718 0.456" stroke="hsl(0.0,100%,35%)" stroke-width="0.00331"></path>
<path d="M0.625 0.040 Q0.164 0.241 0.455 0.510" stroke="hsl(0.0,100%,35%)" stroke-width="0.00033"></path>
<path d="M0.625 0.040 Q0.591 0.270 1.033 0.338" stroke="hsl(0.0,100%,35%)" stroke-width="0.00099"></path>
<path d="M0.488 0.490 Q0.630 0.519 0.718 0.456" stroke="hsl(0.0,100%,35%)" stroke-width="0.00265"></path>
<path d="M0.488 0.490 Q0.646 0.328 0.364 0.215" stroke="hsl(0.0,100%,35%)" stroke-width="0.00199"></path>
<path d="M0.488 0.490 Q0.642 0.423 0.545 0.333" stroke="hsl(0.0,100%,35%)" stroke-width="0.00066"></path>
<path d="M0.956 0.918 Q0.680 0.693 0.180 0.779" stroke="hsl(180.0,100%,35%)" stroke-width="0.00199"></path>
<path d="M0.956 0.918 Q1.068 0.727 0.719 0.631" stroke="hsl(180.0,100%,35%)" stroke-width="0.00033"></path>
<path d="M0.956 0.918 Q0.933 0.717 0.536 0.685" stroke="hsl(180.0,100%,35%)" stroke-width="0.00033"></path>
<path d="M0.956 0.918 Q0.693 0.630 0.073 0.695" stroke="hsl(180.0,100%,35%)" stroke-width="0.00033"></path>
<path d="M0.956 0.918 Q0.879 0.797 0.626 0.808" stroke="hsl(180.0,100%,35%)" stroke-width="0.00066"></path>
<path d="M0.956 0.918 Q1.112 0.890 1.090 0.807" stroke="hsl(180.0,100%,35%)" stroke-width="0.00066"></path>
<path d="M0.956 0.918 Q0.621 0.807 0.329 0.946" stroke="hsl(180.0,100%,35%)" stroke-width="0.00033"></path>
<path d="M0.719 0.631 Q0.531 0.701 0.626 0.808" stroke="hsl(180.0,100%,35%)" stroke-width="0.00066"></path>
<path d="M0.719 0.631 Q0.331 0.597 0.180 0.779" stroke="hsl(180.0,100%,35%)" stroke-width="0.00033"></path>
<path d="M0.719 0.631 Q0.870 0.447 0.545 0.333" stroke="hsl(180.0,100%,35%)" stroke-width="0.00066"></path>
<path d="M0.719 0.631 Q0.858 0.543 0.718 0.456" stroke="hsl(180.0,100%,35%)" stroke-width="0.00033"></path>
<path d="M0.073 0.695 Q0.586 0.704 0.718 0.456" stroke="hsl(180.0,100%,35%)" stroke-width="0.00199"></path>
<path d="M0.073 0.695 Q0.059 0.758 0.180 0.779" stroke="hsl(180.0,100%,35%)" stroke-width="0.00497"></path>
<path d="M0.073 0.695 Q0.109 0.658 0.046 0.632" stroke="hsl(180.0,100%,35%)" stroke-width="0.00033"></path>
<path d="M0.073 0.695 Q0.598 0.608 0.545 0.333" stroke="hsl(180.0,100%,35%)" stroke-width="0.00166"></path>
<path d="M0.073 0.695 Q0.756 0.616 0.752 0.265" stroke="hsl(180.0,100%,35%)" stroke-width="0.00033"></path>
<path d="M0.073 0.695 Q0.258 0.862 0.626 0.808" stroke="hsl(180.0,100%,35%)" stroke-width="0.00066"></path>
<path d="M0.073 0.695 Q0.312 0.782 0.536 0.685" stroke="hsl(180.0,100%,35%)" stroke-width="0.00066"></path>
<path d="M0.448 0.536 Q0.647 0.550 0.718 0.456" stroke="hsl(0.0,100%,35%)" stroke-width="0.00066"></path>
<path d="M0.448 0.536 Q0.320 0.708 0.626 0.808" stroke="hsl(0.0,100%,35%)" stroke-width="0.00033"></path>
<path d="M0.448 0.536 Q0.659 0.454 0.545 0.333" stroke="hsl(0.0,100%,35%)" stroke-width="0.00033"></path>
<path d="M0.945 0.830 Q0.880 0.876 0.956 0.918" stroke="hsl(180.0,100%,35%)" stroke-width="0.00033"></path>
<path d="M0.945 0.830 Q0.604 0.651 0.180 0.779" stroke="hsl(180.0,100%,35%)" stroke-width="0.00033"></path>
<path d="M0.945 0.830 Q1.143 0.501 0.545 0.333" stroke="hsl(180.0,100%,35%)" stroke-width="0.00033"></path>
<path d="M0.762 0.108 Q0.473 0.177 0.545 0.333" stroke="hsl(0.0,100%,35%)" stroke-width="0.00099"></path>
<path d="M0.762 0.108 Q0.477 0.082 0.364 0.215" stroke="hsl(0.0,100%,35%)" stroke-width="0.00033"></path>
<path d="M0.762 0.108 Q0.461 0.273 0.718 0.456" stroke="hsl(0.0,100%,35%)" stroke-width="0.00033"></path>
<path d="M0.743 0.692 Q0.592 0.727 0.626 0.808" stroke="hsl(180.0,100%,35%)" stroke-width="0.00066"></path>
<path d="M0.743 0.692 Q0.919 0.569 0.718 0.456" stroke="hsl(180.0,100%,35%)" stroke-width="0.00033"></path>
<path d="M0.717 0.689 Q0.904 0.573 0.718 0.456" stroke="hsl(180.0,100%,35%)" stroke-width="0.00033"></path>
<path d="M0.717 0.689 Q0.576 0.730 0.626 0.808" stroke="hsl(180.0,100%,35%)" stroke-width="0.00066"></path>
<path d="M0.717 0.689 Q0.916 0.476 0.545 0.333" stroke="hsl(180.0,100%,35%)" stroke-width="0.00033"></path>
<path d="M1.250 0.296 Q0.872 0.079 0.364 0.215" stroke="hsl(0.0,100%,35%)" stroke-width="0.00099"></path>
<path d="M1.250 0.296 Q0.652 0.211 0.353 0.484" stroke="hsl(0.0,100%,35%)" stroke-width="0.00166"></path>
<path d="M1.250 0.296 Q0.868 0.174 0.545 0.333" stroke="hsl(0.0,100%,35%)" stroke-width="0.00033"></path>
<path d="M1.250 0.296 Q1.028 0.290 0.968 0.397" stroke="hsl(0.0,100%,35%)" stroke-width="0.00132"></path>
<path d="M1.250 0.296 Q1.026 0.276 0.937 0.380" stroke="hsl(0.0,100%,35%)" stroke-width="0.00033"></path>
<path d="M0.546 0.336 Q0.208 0.588 0.626 0.808" stroke="hsl(0.0,100%,35%)" stroke-width="0.00364"></path>
<path d="M0.546 0.336 Q0.536 0.430 0.718 0.456" stroke="hsl(0.0,100%,35%)" stroke-width="0.00894"></path>
<path d="M0.546 0.336 Q0.548 0.334 0.545 0.333" stroke="hsl(0.0,100%,35%)" stroke-width="0.00166"></path>
<path d="M0.546 0.336 Q0.705 0.342 0.752 0.265" stroke="hsl(0.0,100%,35%)" stroke-width="0.00033"></path>
<path d="M0.546 0.336 Q0.009 0.484 0.180 0.779" stroke="hsl(0.0,100%,35%)" stroke-width="0.00033"></path>
<path d="M1.062 0.463 Q0.895 0.391 0.718 0.456" stroke="hsl(0.0,100%,35%)" stroke-width="0.00099"></path>
<path d="M1.062 0.463 Q1.065 0.397 0.937 0.380" stroke="hsl(0.0,100%,35%)" stroke-width="0.00066"></path>
<path d="M1.062 0.463 Q0.907 0.295 0.545 0.333" stroke="hsl(0.0,100%,35%)" stroke-width="0.00033"></path>
<path d="M0.908 0.071 Q0.505 0.226 0.718 0.456" stroke="hsl(180.0,100%,35%)" stroke-width="0.00033"></path>
<path d="M0.908 0.071 Q0.178 0.383 0.626 0.808" stroke="hsl(180.0,100%,35%)" stroke-width="0.00033"></path>
<path d="M0.908 0.071 Q0.912 -0.005 0.764 -0.024" stroke="hsl(180.0,100%,35%)" stroke-width="0.00033"></path>
<path d="M0.852 0.119 Q0.686 0.267 0.937 0.380" stroke="hsl(0.0,100%,35%)" stroke-width="0.00166"></path>
<path d="M0.852 0.119 Q0.516 0.261 0.718 0.456" stroke="hsl(0.0,100%,35%)" stroke-width="0.00232"></path>
<path d="M0.852 0.119 Q0.311 0.202 0.353 0.484" stroke="hsl(0.0,100%,35%)" stroke-width="0.00033"></path>
<path d="M0.852 0.119 Q0.821 0.161 0.895 0.185" stroke="hsl(0.0,100%,35%)" stroke-width="0.00033"></path>
<path d="M0.852 0.119 Q0.528 0.165 0.545 0.333" stroke="hsl(0.0,100%,35%)" stroke-width="0.00066"></path>
<path d="M0.852 0.119 Q0.188 0.418 0.626 0.808" stroke="hsl(0.0,100%,35%)" stroke-width="0.00033"></path>
<path d="M1.829 0.279 Q1.732 0.228 1.611 0.264" stroke="hsl(0.0,100%,35%)" stroke-width="0.00033"></path>
<path d="M1.829 0.279 Q1.301 0.056 0.752 0.265" stroke="hsl(0.0,100%,35%)" stroke-width="0.00033"></path>
<path d="M1.829 0.279 Q1.144 0.049 0.545 0.333" stroke="hsl(0.0,100%,35%)" stroke-width="0.00033"></path>
<path d="M0.503 0.049 Q0.285 0.296 0.718 0.456" stroke="hsl(0.0,100%,35%)" stroke-width="0.00099"></path>
<path d="M0.503 0.049 Q0.301 0.104 0.364 0.215" stroke="hsl(0.0,100%,35%)" stroke-width="0.00232"></path>
<path d="M0.503 0.049 Q0.246 0.337 0.752 0.526" stroke="hsl(0.0,100%,35%)" stroke-width="0.00033"></path>
<path d="M0.503 0.049 Q0.081 0.237 0.353 0.484" stroke="hsl(0.0,100%,35%)" stroke-width="0.00033"></path>
<path d="M0.503 0.049 Q0.537 0.299 1.033 0.338" stroke="hsl(0.0,100%,35%)" stroke-width="0.00066"></path>
<path d="M0.503 0.049 Q0.297 0.199 0.545 0.333" stroke="hsl(0.0,100%,35%)" stroke-width="0.00033"></path>
<path d="M0.229 0.916 Q0.514 0.941 0.626 0.808" stroke="hsl(180.0,100%,35%)" stroke-width="0.00033"></path>
<path d="M0.229 0.916 Q0.190 0.904 0.158 0.920" stroke="hsl(180.0,100%,35%)" stroke-width="0.00033"></path>
<path d="M0.229 0.916 Q0.853 0.688 0.545 0.333" stroke="hsl(180.0,100%,35%)" stroke-width="0.00033"></path>
<path d="M0.720 0.062 Q0.420 0.067 0.364 0.215" stroke="hsl(0.0,100%,35%)" stroke-width="0.00232"></path>
<path d="M0.720 0.062 Q0.404 0.259 0.718 0.456" stroke="hsl(0.0,100%,35%)" stroke-width="0.00033"></path>
<path d="M0.720 0.062 Q0.656 0.263 1.033 0.338" stroke="hsl(0.0,100%,35%)" stroke-width="0.00033"></path>
<path d="M1.518 0.143 Q0.880 0.043 0.545 0.333" stroke="hsl(180.0,100%,35%)" stroke-width="0.00033"></path>
<path d="M1.518 0.143 Q1.532 0.080 1.412 0.060" stroke="hsl(180.0,100%,35%)" stroke-width="0.00033"></path>
<path d="M1.518 0.143 Q0.594 0.217 0.536 0.685" stroke="hsl(180.0,100%,35%)" stroke-width="0.00033"></path>
<path d="M1.004 0.618 Q0.990 0.480 0.718 0.456" stroke="hsl(0.0,100%,35%)" stroke-width="0.00099"></path>
<path d="M1.004 0.618 Q0.786 0.421 0.353 0.484" stroke="hsl(0.0,100%,35%)" stroke-width="0.00066"></path>
<path d="M1.004 0.618 Q0.605 0.505 0.297 0.675" stroke="hsl(0.0,100%,35%)" stroke-width="0.00033"></path>
<path d="M0.692 0.234 Q0.697 0.262 0.752 0.265" stroke="hsl(0.0,100%,35%)" stroke-width="0.00033"></path>
<path d="M0.692 0.234 Q0.000 0.404 0.180 0.779" stroke="hsl(0.0,100%,35%)" stroke-width="0.00033"></path>
<path d="M0.692 0.234 Q0.539 0.254 0.545 0.333" stroke="hsl(0.0,100%,35%)" stroke-width="0.00099"></path>
<path d="M0.692 0.234 Q0.697 0.356 0.937 0.380" stroke="hsl(0.0,100%,35%)" stroke-width="0.00033"></path>
<path d="M0.795 0.666 Q0.651 0.623 0.536 0.685" stroke="hsl(180.0,100%,35%)" stroke-width="0.00066"></path>
<path d="M0.795 0.666 Q0.925 0.545 0.718 0.456" stroke="hsl(180.0,100%,35%)" stroke-width="0.00132"></path>
<path d="M0.795 0.666 Q0.597 0.703 0.626 0.808" stroke="hsl(180.0,100%,35%)" stroke-width="0.00099"></path>
<path d="M0.114 0.362 Q0.353 0.434 0.545 0.333" stroke="hsl(0.0,100%,35%)" stroke-width="0.00066"></path>
<path d="M0.114 0.362 Q0.357 0.339 0.364 0.215" stroke="hsl(0.0,100%,35%)" stroke-width="0.00033"></path>
<path d="M0.114 0.362 Q0.341 0.530 0.718 0.456" stroke="hsl(0.0,100%,35%)" stroke-width="0.00033"></path>
<path d="M0.114 0.362 Q0.013 0.687 0.626 0.808" stroke="hsl(0.0,100%,35%)" stroke-width="0.00033"></path>
<path d="M0.424 0.078 Q0.269 0.326 0.718 0.456" stroke="hsl(0.0,100%,35%)" stroke-width="0.00066"></path>
<path d="M0.424 0.078 Q0.285 0.135 0.364 0.215" stroke="hsl(0.0,100%,35%)" stroke-width="0.00199"></path>
<path d="M0.424 0.078 Q-0.059 0.484 0.626 0.808" stroke="hsl(0.0,100%,35%)" stroke-width="0.00099"></path>
<path d="M0.736 0.644 Q0.877 0.546 0.718 0.456" stroke="hsl(0.0,100%,35%)" stroke-width="0.00331"></path>
<path d="M0.736 0.644 Q0.838 0.588 0.752 0.526" stroke="hsl(0.0,100%,35%)" stroke-width="0.00199"></path>
<path d="M0.736 0.644 Q0.673 0.487 0.353 0.484" stroke="hsl(0.0,100%,35%)" stroke-width="0.00066"></path>
<path d="M0.736 0.644 Q0.893 0.355 0.364 0.215" stroke="hsl(0.0,100%,35%)" stroke-width="0.00033"></path>
<path d="M0.736 0.644 Q0.992 0.622 1.006 0.493" stroke="hsl(0.0,100%,35%)" stroke-width="0.00166"></path>
<path d="M0.736 0.644 Q0.889 0.450 0.545 0.333" stroke="hsl(0.0,100%,35%)" stroke-width="0.00066"></path>
<path d="M0.736 0.644 Q0.847 0.383 0.364 0.272" stroke="hsl(0.0,100%,35%)" stroke-width="0.00066"></path>
<path d="M0.273 0.866 Q0.297 0.804 0.180 0.779" stroke="hsl(180.0,100%,35%)" stroke-width="0.00099"></path>
<path d="M0.273 0.866 Q0.438 0.775 0.297 0.675" stroke="hsl(180.0,100%,35%)" stroke-width="0.00033"></path>
<path d="M0.273 0.866 Q0.993 0.661 0.752 0.265" stroke="hsl(180.0,100%,35%)" stroke-width="0.00033"></path>
</g>
<text x="0.968" y="0.376" font-size="0.042546" fill="hsl(0.0,100%,20%)">abdolrashidi</text>
<text x="0.937" y="0.350" font-size="0.060108" fill="hsl(0.0,100%,20%)">cclao</text>
<text x="0.718" y="0.411" font-size="0.089229" fill="hsl(0.0,100%,20%)">syoussefi</text>
<text x="0.353" y="0.460" font-size="0.048676" fill="hsl(0.0,100%,20%)">yuxinhu</text>
<text x="0.790" y="0.266" font-size="0.042719" fill="hsl(0.0,100%,20%)">romanl</text>
<text x="0.364" y="0.188" font-size="0.054320" fill="hsl(0.0,100%,20%)">cnorthrop</text>
<text x="1.217" y="0.242" font-size="0.003836" fill="hsl(0.0,100%,20%)">ineula</text>
<text x="1.221" y="0.285" font-size="0.003836" fill="hsl(0.0,100%,20%)">kaiyili</text>
<text x="1.033" y="0.326" font-size="0.024110" fill="hsl(0.0,100%,20%)">ianelliott</text>
<text x="0.752" y="0.249" font-size="0.033223" fill="hsl(0.0,100%,20%)">ynovikov</text>
<text x="0.545" y="0.298" font-size="0.070424" fill="hsl(0.0,100%,20%)">jmadill</text>
<text x="0.626" y="0.788" font-size="0.041139" fill="hsl(180.0,100%,20%)">geofflang</text>
<text x="1.092" y="0.481" font-size="0.005425" fill="hsl(0.0,100%,20%)">aeubanks</text>
<text x="0.364" y="0.265" font-size="0.014095" fill="hsl(0.0,100%,20%)">antonio.caggiano</text>
<text x="1.006" y="0.487" font-size="0.010851" fill="hsl(0.0,100%,20%)">j.vigil</text>
<text x="1.157" y="0.048" font-size="0.005425" fill="hsl(0.0,100%,20%)">ayzhao</text>
<text x="0.668" y="0.237" font-size="0.006066" fill="hsl(0.0,100%,20%)">hans</text>
<text x="1.301" y="0.137" font-size="0.003836" fill="hsl(0.0,100%,20%)">thakis</text>
<text x="0.453" y="0.593" font-size="0.010851" fill="hsl(0.0,100%,20%)">b.schade</text>
<text x="0.436" y="0.809" font-size="0.026716" fill="hsl(180.0,100%,20%)">lexa.knyazev</text>
<text x="0.574" y="0.608" font-size="0.007177" fill="hsl(0.0,100%,20%)">vantablack</text>
<text x="0.752" y="0.513" font-size="0.026439" fill="hsl(0.0,100%,20%)">m.maiya</text>
<text x="0.802" y="0.842" font-size="0.005425" fill="hsl(180.0,100%,20%)">boliu</text>
<text x="0.455" y="0.501" font-size="0.017580" fill="hsl(0.0,100%,20%)">lfy</text>
<text x="1.412" y="0.058" font-size="0.004698" fill="hsl(180.0,100%,20%)">vasilyt</text>
<text x="0.966" y="0.165" font-size="0.007672" fill="hsl(180.0,100%,20%)">brianosman</text>
<text x="0.180" y="0.762" font-size="0.033001" fill="hsl(180.0,100%,20%)">kbr</text>
<text x="0.965" y="0.170" font-size="0.010506" fill="hsl(0.0,100%,20%)">bsheedy</text>
<text x="1.390" y="0.263" font-size="0.002713" fill="hsl(0.0,100%,20%)">rogerta</text>
<text x="0.790" y="0.143" font-size="0.010506" fill="hsl(180.0,100%,20%)">capn</text>
<text x="0.871" y="0.149" font-size="0.005425" fill="hsl(180.0,100%,20%)">sugoi</text>
<text x="0.536" y="0.676" font-size="0.017580" fill="hsl(180.0,100%,20%)">jonahr</text>
<text x="0.965" y="0.530" font-size="0.030449" fill="hsl(0.0,100%,20%)">i.nazarov</text>
<text x="1.057" y="0.578" font-size="0.004698" fill="hsl(0.0,100%,20%)">natsu</text>
<text x="0.871" y="0.235" font-size="0.014858" fill="hsl(0.0,100%,20%)">zzyiwei</text>
<text x="0.297" y="0.661" font-size="0.028450" fill="hsl(180.0,100%,20%)">chris</text>
<text x="0.919" y="0.658" font-size="0.006645" fill="hsl(180.0,100%,20%)">rafael.cintron</text>
<text x="0.873" y="0.132" font-size="0.017156" fill="hsl(0.0,100%,20%)">senorblanco</text>
<text x="0.510" y="0.494" font-size="0.013563" fill="hsl(0.0,100%,20%)">steven</text>
<text x="0.329" y="0.939" font-size="0.014608" fill="hsl(180.0,100%,20%)">kpiddington</text>
<text x="1.090" y="0.802" font-size="0.011184" fill="hsl(180.0,100%,20%)">lehoangquyen</text>
<text x="0.046" y="0.622" font-size="0.021186" fill="hsl(180.0,100%,20%)">gman</text>
<text x="0.988" y="0.482" font-size="0.012131" fill="hsl(0.0,100%,20%)">solti</text>
<text x="0.624" y="0.219" font-size="0.024414" fill="hsl(0.0,100%,20%)">gert.wollny</text>
<text x="0.583" y="0.166" font-size="0.020659" fill="hsl(0.0,100%,20%)">lubosz.sarnecki</text>
<text x="0.625" y="0.031" font-size="0.016940" fill="hsl(0.0,100%,20%)">eddiehatfield</text>
<text x="0.488" y="0.485" font-size="0.011184" fill="hsl(0.0,100%,20%)">constantine.shablya</text>
<text x="0.956" y="0.913" font-size="0.010506" fill="hsl(180.0,100%,20%)">djg</text>
<text x="0.719" y="0.627" font-size="0.007177" fill="hsl(180.0,100%,20%)">sunnyps</text>
<text x="0.073" y="0.687" font-size="0.016276" fill="hsl(180.0,100%,20%)">kkinnunen</text>
<text x="0.448" y="0.534" font-size="0.005425" fill="hsl(0.0,100%,20%)">dnfield</text>
<text x="0.945" y="0.827" font-size="0.004698" fill="hsl(180.0,100%,20%)">doremylover123</text>
<text x="0.762" y="0.104" font-size="0.006645" fill="hsl(0.0,100%,20%)">doughorn</text>
<text x="0.743" y="0.690" font-size="0.004698" fill="hsl(180.0,100%,20%)">enga</text>
<text x="0.717" y="0.686" font-size="0.005425" fill="hsl(180.0,100%,20%)">fangzhoug</text>
<text x="1.250" y="0.291" font-size="0.010851" fill="hsl(0.0,100%,20%)">ffz</text>
<text x="0.546" y="0.326" font-size="0.019561" fill="hsl(0.0,100%,20%)">penghuang</text>
<text x="0.424" y="0.697" font-size="0.003836" fill="hsl(180.0,100%,20%)">hob</text>
<text x="1.062" y="0.459" font-size="0.007177" fill="hsl(0.0,100%,20%)">gregschlom</text>
<text x="0.908" y="0.069" font-size="0.004698" fill="hsl(180.0,100%,20%)">grt</text>
<text x="0.764" y="-0.025" font-size="0.002713" fill="hsl(180.0,100%,20%)">jpmuraira</text>
<text x="0.852" y="0.114" font-size="0.011184" fill="hsl(0.0,100%,20%)">hailinzhang</text>
<text x="0.895" y="0.183" font-size="0.002713" fill="hsl(0.0,100%,20%)">mprzybyl</text>
<text x="1.191" y="0.626" font-size="0.005425" fill="hsl(0.0,100%,20%)">chrisforbes</text>
<text x="0.332" y="0.524" font-size="0.003836" fill="hsl(0.0,100%,20%)">jie.a.chen</text>
<text x="1.829" y="0.276" font-size="0.004698" fill="hsl(0.0,100%,20%)">jwata</text>
<text x="1.611" y="0.263" font-size="0.002713" fill="hsl(0.0,100%,20%)">tikuta</text>
<text x="0.503" y="0.044" font-size="0.010506" fill="hsl(0.0,100%,20%)">mark</text>
<text x="0.229" y="0.914" font-size="0.004698" fill="hsl(180.0,100%,20%)">mfoltz</text>
<text x="0.158" y="0.919" font-size="0.002713" fill="hsl(180.0,100%,20%)">rwkeane</text>
<text x="0.720" y="0.058" font-size="0.008138" fill="hsl(0.0,100%,20%)">mikes</text>
<text x="1.518" y="0.141" font-size="0.004698" fill="hsl(180.0,100%,20%)">nazabris</text>
<text x="1.004" y="0.614" font-size="0.007672" fill="hsl(0.0,100%,20%)">olv</text>
<text x="0.692" y="0.231" font-size="0.006645" fill="hsl(0.0,100%,20%)">pkasting</text>
<text x="0.795" y="0.662" font-size="0.008138" fill="hsl(180.0,100%,20%)">robert.mader</text>
<text x="1.029" y="0.103" font-size="0.002713" fill="hsl(0.0,100%,20%)">kainino</text>
<text x="0.114" y="0.359" font-size="0.006066" fill="hsl(0.0,100%,20%)">sharma.loic</text>
<text x="0.424" y="0.074" font-size="0.008997" fill="hsl(0.0,100%,20%)">srisser</text>
<text x="0.736" y="0.636" font-size="0.014354" fill="hsl(0.0,100%,20%)">sywow.choi</text>
<text x="0.273" y="0.863" font-size="0.006066" fill="hsl(180.0,100%,20%)">tvignatti</text>
<text x="1.315" y="0.319" font-size="0.002713" fill="hsl(0.0,100%,20%)">cwallez</text>
</svg>
