<svg width="4000" height="2000" viewBox="-0.025 -0.025 2.05 1.05" xmlns="http://www.w3.org/2000/svg">
  <style>
    path {
      fill: none;
      stroke-linecap: round;
      stroke-opacity: 0.4;
    }

    text {
      text-anchor: middle;
      alignment-baseline: hanging;
    }
  </style>
  <g opacity="0.4">
<path d="M0.704 0.598 Q1.026 0.421 0.752 0.225" stroke="hsl(0.0,100%,35%)" stroke-width="0.00452"></path>
<path d="M0.704 0.598 Q1.023 0.705 1.302 0.573" stroke="hsl(0.0,100%,35%)" stroke-width="0.00038"></path>
<path d="M0.704 0.598 Q0.685 0.572 0.631 0.576" stroke="hsl(0.0,100%,35%)" stroke-width="0.00151"></path>
<path d="M0.752 0.225 Q0.709 0.407 1.054 0.467" stroke="hsl(0.0,100%,35%)" stroke-width="0.02185"></path>
<path d="M0.752 0.225 Q0.706 0.322 0.884 0.365" stroke="hsl(0.0,100%,35%)" stroke-width="0.00979"></path>
<path d="M0.752 0.225 Q0.585 0.213 0.526 0.292" stroke="hsl(0.0,100%,35%)" stroke-width="0.02147"></path>
<path d="M0.752 0.225 Q0.530 0.291 0.611 0.414" stroke="hsl(0.0,100%,35%)" stroke-width="0.01921"></path>
<path d="M0.752 0.225 Q1.048 0.260 1.182 0.123" stroke="hsl(0.0,100%,35%)" stroke-width="0.01620"></path>
<path d="M0.752 0.225 Q0.827 0.437 1.257 0.446" stroke="hsl(0.0,100%,35%)" stroke-width="0.02110"></path>
<path d="M0.752 0.225 Q0.416 0.312 0.513 0.495" stroke="hsl(0.0,100%,35%)" stroke-width="0.00942"></path>
<path d="M0.752 0.225 Q0.254 0.193 0.083 0.429" stroke="hsl(0.0,100%,35%)" stroke-width="0.00038"></path>
<path d="M0.752 0.225 Q0.748 0.509 1.302 0.573" stroke="hsl(0.0,100%,35%)" stroke-width="0.01846"></path>
<path d="M0.752 0.225 Q0.788 0.315 0.972 0.317" stroke="hsl(0.0,100%,35%)" stroke-width="0.00113"></path>
<path d="M0.752 0.225 Q0.889 0.375 1.213 0.342" stroke="hsl(0.0,100%,35%)" stroke-width="0.00264"></path>
<path d="M0.752 0.225 Q0.546 0.400 0.843 0.539" stroke="hsl(0.0,100%,35%)" stroke-width="0.00038"></path>
<path d="M0.752 0.225 Q0.588 0.521 1.130 0.666" stroke="hsl(0.0,100%,35%)" stroke-width="0.00075"></path>
<path d="M0.752 0.225 Q0.890 0.293 1.052 0.240" stroke="hsl(0.0,100%,35%)" stroke-width="0.00038"></path>
<path d="M0.752 0.225 Q0.595 0.658 1.405 0.829" stroke="hsl(0.0,100%,35%)" stroke-width="0.00151"></path>
<path d="M0.752 0.225 Q0.654 0.114 0.416 0.137" stroke="hsl(0.0,100%,35%)" stroke-width="0.00038"></path>
<path d="M0.752 0.225 Q0.996 0.171 0.943 0.040" stroke="hsl(0.0,100%,35%)" stroke-width="0.00038"></path>
<path d="M0.752 0.225 Q0.556 0.424 0.901 0.563" stroke="hsl(0.0,100%,35%)" stroke-width="0.00075"></path>
<path d="M0.752 0.225 Q0.341 0.240 0.280 0.444" stroke="hsl(0.0,100%,35%)" stroke-width="0.00038"></path>
<path d="M1.302 0.573 Q1.381 0.501 1.257 0.446" stroke="hsl(0.0,100%,35%)" stroke-width="0.01206"></path>
<path d="M1.302 0.573 Q1.305 0.289 0.752 0.225" stroke="hsl(0.0,100%,35%)" stroke-width="0.01432"></path>
<path d="M1.302 0.573 Q1.602 0.324 1.182 0.123" stroke="hsl(0.0,100%,35%)" stroke-width="0.00038"></path>
<path d="M1.302 0.573 Q1.139 0.277 0.526 0.292" stroke="hsl(0.0,100%,35%)" stroke-width="0.00226"></path>
<path d="M1.302 0.573 Q1.039 0.743 1.313 0.909" stroke="hsl(0.0,100%,35%)" stroke-width="0.00038"></path>
<path d="M1.302 0.573 Q1.623 0.690 1.922 0.558" stroke="hsl(0.0,100%,35%)" stroke-width="0.00038"></path>
<path d="M1.302 0.573 Q1.106 0.635 1.183 0.744" stroke="hsl(0.0,100%,35%)" stroke-width="0.00075"></path>
<path d="M1.302 0.573 Q1.259 0.385 0.884 0.365" stroke="hsl(0.0,100%,35%)" stroke-width="0.00113"></path>
<path d="M1.302 0.573 Q1.263 0.471 1.054 0.467" stroke="hsl(0.0,100%,35%)" stroke-width="0.00113"></path>
<path d="M1.302 0.573 Q1.142 0.585 1.130 0.666" stroke="hsl(0.0,100%,35%)" stroke-width="0.00151"></path>
<path d="M1.302 0.573 Q1.110 0.488 0.901 0.563" stroke="hsl(0.0,100%,35%)" stroke-width="0.00038"></path>
<path d="M1.302 0.573 Q1.443 0.439 1.213 0.342" stroke="hsl(0.0,100%,35%)" stroke-width="0.00075"></path>
<path d="M1.302 0.573 Q1.084 0.355 0.611 0.414" stroke="hsl(0.0,100%,35%)" stroke-width="0.00829"></path>
<path d="M1.302 0.573 Q1.149 0.722 1.405 0.829" stroke="hsl(0.0,100%,35%)" stroke-width="0.00075"></path>
<path d="M1.302 0.573 Q1.486 0.567 1.516 0.476" stroke="hsl(0.0,100%,35%)" stroke-width="0.00113"></path>
<path d="M1.302 0.573 Q1.341 0.379 0.972 0.317" stroke="hsl(0.0,100%,35%)" stroke-width="0.00038"></path>
<path d="M1.302 0.573 Q0.970 0.376 0.513 0.495" stroke="hsl(0.0,100%,35%)" stroke-width="0.00038"></path>
<path d="M1.302 0.573 Q1.131 0.296 0.554 0.318" stroke="hsl(0.0,100%,35%)" stroke-width="0.00038"></path>
<path d="M1.302 0.573 Q1.080 0.555 0.997 0.660" stroke="hsl(0.0,100%,35%)" stroke-width="0.00038"></path>
<path d="M1.748 0.761 Q1.457 0.360 0.611 0.414" stroke="hsl(0.0,100%,35%)" stroke-width="0.00075"></path>
<path d="M1.748 0.761 Q1.997 0.694 1.922 0.558" stroke="hsl(0.0,100%,35%)" stroke-width="0.00075"></path>
<path d="M1.748 0.761 Q1.675 0.578 1.302 0.573" stroke="hsl(0.0,100%,35%)" stroke-width="0.00038"></path>
<path d="M0.611 0.414 Q0.833 0.347 0.752 0.225" stroke="hsl(0.0,100%,35%)" stroke-width="0.04709"></path>
<path d="M0.611 0.414 Q0.666 0.336 0.526 0.292" stroke="hsl(0.0,100%,35%)" stroke-width="0.01394"></path>
<path d="M0.611 0.414 Q0.908 0.559 1.257 0.446" stroke="hsl(0.0,100%,35%)" stroke-width="0.00904"></path>
<path d="M0.611 0.414 Q0.497 0.435 0.513 0.495" stroke="hsl(0.0,100%,35%)" stroke-width="0.00716"></path>
<path d="M0.611 0.414 Q0.787 0.444 0.884 0.365" stroke="hsl(0.0,100%,35%)" stroke-width="0.00301"></path>
<path d="M0.611 0.414 Q0.970 0.498 1.213 0.342" stroke="hsl(0.0,100%,35%)" stroke-width="0.00339"></path>
<path d="M0.611 0.414 Q1.129 0.383 1.182 0.123" stroke="hsl(0.0,100%,35%)" stroke-width="0.00678"></path>
<path d="M0.611 0.414 Q0.836 0.233 0.533 0.084" stroke="hsl(0.0,100%,35%)" stroke-width="0.00151"></path>
<path d="M0.611 0.414 Q0.790 0.529 1.054 0.467" stroke="hsl(0.0,100%,35%)" stroke-width="0.01055"></path>
<path d="M0.611 0.414 Q0.659 0.355 0.554 0.318" stroke="hsl(0.0,100%,35%)" stroke-width="0.00188"></path>
<path d="M0.611 0.414 Q0.472 0.292 0.203 0.333" stroke="hsl(0.0,100%,35%)" stroke-width="0.00038"></path>
<path d="M0.611 0.414 Q0.829 0.631 1.302 0.573" stroke="hsl(0.0,100%,35%)" stroke-width="0.00904"></path>
<path d="M0.611 0.414 Q0.869 0.438 0.972 0.317" stroke="hsl(0.0,100%,35%)" stroke-width="0.00075"></path>
<path d="M0.611 0.414 Q0.637 0.546 0.901 0.563" stroke="hsl(0.0,100%,35%)" stroke-width="0.00038"></path>
<path d="M0.611 0.414 Q0.550 0.333 0.380 0.345" stroke="hsl(0.0,100%,35%)" stroke-width="0.00038"></path>
<path d="M0.611 0.414 Q0.788 0.581 1.153 0.532" stroke="hsl(0.0,100%,35%)" stroke-width="0.00038"></path>
<path d="M0.611 0.414 Q0.494 0.303 0.253 0.336" stroke="hsl(0.0,100%,35%)" stroke-width="0.00075"></path>
<path d="M0.611 0.414 Q0.646 0.340 0.510 0.308" stroke="hsl(0.0,100%,35%)" stroke-width="0.00038"></path>
<path d="M0.611 0.414 Q0.407 0.502 0.534 0.620" stroke="hsl(0.0,100%,35%)" stroke-width="0.00038"></path>
<path d="M0.203 0.333 Q0.563 0.388 0.752 0.225" stroke="hsl(0.0,100%,35%)" stroke-width="0.00414"></path>
<path d="M0.203 0.333 Q0.066 0.357 0.083 0.429" stroke="hsl(0.0,100%,35%)" stroke-width="0.00038"></path>
<path d="M0.203 0.333 Q0.228 0.476 0.513 0.495" stroke="hsl(0.0,100%,35%)" stroke-width="0.00075"></path>
<path d="M0.203 0.333 Q0.860 0.424 1.182 0.123" stroke="hsl(0.0,100%,35%)" stroke-width="0.00075"></path>
<path d="M0.203 0.333 Q0.342 0.455 0.611 0.414" stroke="hsl(0.0,100%,35%)" stroke-width="0.00188"></path>
<path d="M0.203 0.333 Q0.567 0.274 0.533 0.084" stroke="hsl(0.0,100%,35%)" stroke-width="0.00038"></path>
<path d="M0.083 0.429 Q0.581 0.461 0.752 0.225" stroke="hsl(0.0,100%,35%)" stroke-width="0.00113"></path>
<path d="M0.083 0.429 Q0.246 0.548 0.513 0.495" stroke="hsl(0.0,100%,35%)" stroke-width="0.00075"></path>
<path d="M0.083 0.429 Q0.414 0.449 0.526 0.292" stroke="hsl(0.0,100%,35%)" stroke-width="0.00038"></path>
<path d="M0.513 0.495 Q0.351 0.376 0.083 0.429" stroke="hsl(0.0,100%,35%)" stroke-width="0.00038"></path>
<path d="M0.513 0.495 Q0.849 0.408 0.752 0.225" stroke="hsl(0.0,100%,35%)" stroke-width="0.01620"></path>
<path d="M0.513 0.495 Q0.682 0.396 0.526 0.292" stroke="hsl(0.0,100%,35%)" stroke-width="0.00264"></path>
<path d="M0.513 0.495 Q0.803 0.504 0.884 0.365" stroke="hsl(0.0,100%,35%)" stroke-width="0.00527"></path>
<path d="M0.513 0.495 Q0.627 0.474 0.611 0.414" stroke="hsl(0.0,100%,35%)" stroke-width="0.00527"></path>
<path d="M0.513 0.495 Q0.924 0.619 1.257 0.446" stroke="hsl(0.0,100%,35%)" stroke-width="0.00075"></path>
<path d="M0.513 0.495 Q1.146 0.443 1.182 0.123" stroke="hsl(0.0,100%,35%)" stroke-width="0.00038"></path>
<path d="M0.513 0.495 Q0.845 0.692 1.302 0.573" stroke="hsl(0.0,100%,35%)" stroke-width="0.00075"></path>
<path d="M0.513 0.495 Q0.653 0.606 0.901 0.563" stroke="hsl(0.0,100%,35%)" stroke-width="0.00038"></path>
<path d="M0.513 0.495 Q0.692 0.840 1.405 0.829" stroke="hsl(0.0,100%,35%)" stroke-width="0.00038"></path>
<path d="M0.513 0.495 Q0.806 0.589 1.054 0.467" stroke="hsl(0.0,100%,35%)" stroke-width="0.00113"></path>
<path d="M0.513 0.495 Q0.826 0.803 1.496 0.718" stroke="hsl(0.0,100%,35%)" stroke-width="0.00038"></path>
<path d="M1.182 0.123 Q0.886 0.088 0.752 0.225" stroke="hsl(0.0,100%,35%)" stroke-width="0.01130"></path>
<path d="M1.182 0.123 Q0.719 0.076 0.526 0.292" stroke="hsl(0.0,100%,35%)" stroke-width="0.00226"></path>
<path d="M1.182 0.123 Q0.840 0.184 0.884 0.365" stroke="hsl(0.0,100%,35%)" stroke-width="0.00339"></path>
<path d="M1.182 0.123 Q0.843 0.269 1.054 0.467" stroke="hsl(0.0,100%,35%)" stroke-width="0.00113"></path>
<path d="M1.182 0.123 Q0.664 0.154 0.611 0.414" stroke="hsl(0.0,100%,35%)" stroke-width="0.00151"></path>
<path d="M1.182 0.123 Q1.023 0.238 1.213 0.342" stroke="hsl(0.0,100%,35%)" stroke-width="0.00075"></path>
<path d="M1.182 0.123 Q0.550 0.175 0.513 0.495" stroke="hsl(0.0,100%,35%)" stroke-width="0.00038"></path>
<path d="M1.182 0.123 Q0.961 0.299 1.257 0.446" stroke="hsl(0.0,100%,35%)" stroke-width="0.00038"></path>
<path d="M1.182 0.123 Q1.130 0.034 0.943 0.040" stroke="hsl(0.0,100%,35%)" stroke-width="0.00075"></path>
<path d="M1.182 0.123 Q0.882 0.372 1.302 0.573" stroke="hsl(0.0,100%,35%)" stroke-width="0.00075"></path>
<path d="M0.533 0.084 Q0.530 0.198 0.752 0.225" stroke="hsl(0.0,100%,35%)" stroke-width="0.00678"></path>
<path d="M0.533 0.084 Q0.308 0.264 0.611 0.414" stroke="hsl(0.0,100%,35%)" stroke-width="0.00339"></path>
<path d="M0.533 0.084 Q0.484 0.295 0.884 0.365" stroke="hsl(0.0,100%,35%)" stroke-width="0.00038"></path>
<path d="M0.533 0.084 Q0.826 0.233 1.182 0.123" stroke="hsl(0.0,100%,35%)" stroke-width="0.00038"></path>
<path d="M0.533 0.084 Q0.194 0.285 0.513 0.495" stroke="hsl(0.0,100%,35%)" stroke-width="0.00038"></path>
<path d="M0.533 0.084 Q0.526 0.482 1.302 0.573" stroke="hsl(0.0,100%,35%)" stroke-width="0.00226"></path>
<path d="M1.384 0.224 Q1.067 0.098 0.752 0.225" stroke="hsl(0.0,100%,35%)" stroke-width="0.00075"></path>
<path d="M1.384 0.224 Q1.025 0.280 1.054 0.467" stroke="hsl(0.0,100%,35%)" stroke-width="0.00038"></path>
<path d="M1.384 0.224 Q1.142 0.310 1.257 0.446" stroke="hsl(0.0,100%,35%)" stroke-width="0.00038"></path>
<path d="M1.054 0.467 Q1.097 0.285 0.752 0.225" stroke="hsl(0.0,100%,35%)" stroke-width="0.01017"></path>
<path d="M1.054 0.467 Q1.051 0.382 0.884 0.365" stroke="hsl(0.0,100%,35%)" stroke-width="0.00038"></path>
<path d="M1.054 0.467 Q0.875 0.352 0.611 0.414" stroke="hsl(0.0,100%,35%)" stroke-width="0.00226"></path>
<path d="M1.054 0.467 Q1.094 0.570 1.302 0.573" stroke="hsl(0.0,100%,35%)" stroke-width="0.00188"></path>
<path d="M1.054 0.467 Q0.762 0.373 0.513 0.495" stroke="hsl(0.0,100%,35%)" stroke-width="0.00038"></path>
<path d="M1.257 0.446 Q1.181 0.234 0.752 0.225" stroke="hsl(0.0,100%,35%)" stroke-width="0.01507"></path>
<path d="M1.257 0.446 Q1.178 0.519 1.302 0.573" stroke="hsl(0.0,100%,35%)" stroke-width="0.01507"></path>
<path d="M1.257 0.446 Q0.960 0.301 0.611 0.414" stroke="hsl(0.0,100%,35%)" stroke-width="0.00527"></path>
<path d="M1.257 0.446 Q1.018 0.531 1.130 0.666" stroke="hsl(0.0,100%,35%)" stroke-width="0.00075"></path>
<path d="M1.257 0.446 Q1.025 0.667 1.405 0.829" stroke="hsl(0.0,100%,35%)" stroke-width="0.00038"></path>
<path d="M1.257 0.446 Q1.139 0.416 1.054 0.467" stroke="hsl(0.0,100%,35%)" stroke-width="0.00188"></path>
<path d="M1.257 0.446 Q0.956 0.501 0.997 0.660" stroke="hsl(0.0,100%,35%)" stroke-width="0.00038"></path>
<path d="M0.526 0.292 Q0.990 0.339 1.182 0.123" stroke="hsl(0.0,100%,35%)" stroke-width="0.00264"></path>
<path d="M0.526 0.292 Q0.647 0.400 0.884 0.365" stroke="hsl(0.0,100%,35%)" stroke-width="0.00753"></path>
<path d="M0.526 0.292 Q0.693 0.304 0.752 0.225" stroke="hsl(0.0,100%,35%)" stroke-width="0.01469"></path>
<path d="M0.526 0.292 Q0.472 0.370 0.611 0.414" stroke="hsl(0.0,100%,35%)" stroke-width="0.00565"></path>
<path d="M0.526 0.292 Q0.358 0.391 0.513 0.495" stroke="hsl(0.0,100%,35%)" stroke-width="0.00188"></path>
<path d="M0.526 0.292 Q0.690 0.588 1.302 0.573" stroke="hsl(0.0,100%,35%)" stroke-width="0.00490"></path>
<path d="M0.526 0.292 Q0.650 0.485 1.054 0.467" stroke="hsl(0.0,100%,35%)" stroke-width="0.00188"></path>
<path d="M1.516 0.476 Q1.114 0.264 0.611 0.414" stroke="hsl(0.0,100%,35%)" stroke-width="0.00151"></path>
<path d="M1.516 0.476 Q1.332 0.482 1.302 0.573" stroke="hsl(0.0,100%,35%)" stroke-width="0.00753"></path>
<path d="M1.516 0.476 Q1.335 0.198 0.752 0.225" stroke="hsl(0.0,100%,35%)" stroke-width="0.00678"></path>
<path d="M1.516 0.476 Q1.411 0.409 1.257 0.446" stroke="hsl(0.0,100%,35%)" stroke-width="0.00113"></path>
<path d="M0.884 0.365 Q0.709 0.335 0.611 0.414" stroke="hsl(0.0,100%,35%)" stroke-width="0.00339"></path>
<path d="M0.884 0.365 Q1.068 0.419 1.213 0.342" stroke="hsl(0.0,100%,35%)" stroke-width="0.00151"></path>
<path d="M0.884 0.365 Q0.927 0.552 1.302 0.573" stroke="hsl(0.0,100%,35%)" stroke-width="0.00490"></path>
<path d="M0.884 0.365 Q1.227 0.304 1.182 0.123" stroke="hsl(0.0,100%,35%)" stroke-width="0.00151"></path>
<path d="M0.884 0.365 Q0.764 0.257 0.526 0.292" stroke="hsl(0.0,100%,35%)" stroke-width="0.00113"></path>
<path d="M0.884 0.365 Q0.595 0.356 0.513 0.495" stroke="hsl(0.0,100%,35%)" stroke-width="0.00377"></path>
<path d="M0.884 0.365 Q0.930 0.268 0.752 0.225" stroke="hsl(0.0,100%,35%)" stroke-width="0.00829"></path>
<path d="M0.884 0.365 Q0.731 0.614 1.183 0.744" stroke="hsl(0.0,100%,35%)" stroke-width="0.00038"></path>
<path d="M1.213 0.342 Q1.076 0.191 0.752 0.225" stroke="hsl(0.0,100%,35%)" stroke-width="0.00678"></path>
<path d="M1.213 0.342 Q0.854 0.257 0.611 0.414" stroke="hsl(0.0,100%,35%)" stroke-width="0.00377"></path>
<path d="M1.213 0.342 Q1.030 0.288 0.884 0.365" stroke="hsl(0.0,100%,35%)" stroke-width="0.00565"></path>
<path d="M1.213 0.342 Q1.373 0.226 1.182 0.123" stroke="hsl(0.0,100%,35%)" stroke-width="0.00339"></path>
<path d="M1.213 0.342 Q0.740 0.278 0.513 0.495" stroke="hsl(0.0,100%,35%)" stroke-width="0.00075"></path>
<path d="M1.213 0.342 Q1.072 0.475 1.302 0.573" stroke="hsl(0.0,100%,35%)" stroke-width="0.00188"></path>
<path d="M1.213 0.342 Q1.079 0.077 0.533 0.084" stroke="hsl(0.0,100%,35%)" stroke-width="0.00038"></path>
<path d="M1.213 0.342 Q1.033 0.373 1.054 0.467" stroke="hsl(0.0,100%,35%)" stroke-width="0.00075"></path>
<path d="M1.183 0.744 Q1.226 0.831 1.405 0.829" stroke="hsl(0.0,100%,35%)" stroke-width="0.00264"></path>
<path d="M1.183 0.744 Q1.379 0.682 1.302 0.573" stroke="hsl(0.0,100%,35%)" stroke-width="0.00377"></path>
<path d="M1.183 0.744 Q1.458 0.610 1.257 0.446" stroke="hsl(0.0,100%,35%)" stroke-width="0.00075"></path>
<path d="M1.183 0.744 Q1.383 0.398 0.752 0.225" stroke="hsl(0.0,100%,35%)" stroke-width="0.00490"></path>
<path d="M1.183 0.744 Q1.161 0.464 0.611 0.414" stroke="hsl(0.0,100%,35%)" stroke-width="0.00075"></path>
<path d="M1.130 0.666 Q1.369 0.581 1.257 0.446" stroke="hsl(0.0,100%,35%)" stroke-width="0.00038"></path>
<path d="M1.130 0.666 Q1.290 0.654 1.302 0.573" stroke="hsl(0.0,100%,35%)" stroke-width="0.00075"></path>
<path d="M1.130 0.666 Q1.293 0.370 0.752 0.225" stroke="hsl(0.0,100%,35%)" stroke-width="0.00075"></path>
<path d="M1.283 -0.190 Q0.686 -0.089 0.752 0.225" stroke="hsl(0.0,100%,35%)" stroke-width="0.00038"></path>
<path d="M1.283 -0.190 Q0.823 0.062 1.213 0.342" stroke="hsl(0.0,100%,35%)" stroke-width="0.00038"></path>
<path d="M1.283 -0.190 Q0.682 0.195 1.302 0.573" stroke="hsl(0.0,100%,35%)" stroke-width="0.00038"></path>
<path d="M0.280 0.444 Q0.470 0.495 0.611 0.414" stroke="hsl(0.0,100%,35%)" stroke-width="0.00414"></path>
<path d="M0.280 0.444 Q0.646 0.525 0.884 0.365" stroke="hsl(0.0,100%,35%)" stroke-width="0.00264"></path>
<path d="M0.280 0.444 Q0.691 0.429 0.752 0.225" stroke="hsl(0.0,100%,35%)" stroke-width="0.00640"></path>
<path d="M0.280 0.444 Q0.525 0.417 0.526 0.292" stroke="hsl(0.0,100%,35%)" stroke-width="0.00038"></path>
<path d="M0.280 0.444 Q0.688 0.713 1.302 0.573" stroke="hsl(0.0,100%,35%)" stroke-width="0.00038"></path>
<path d="M0.758 0.544 Q1.010 0.383 0.752 0.225" stroke="hsl(0.0,100%,35%)" stroke-width="0.00075"></path>
<path d="M0.758 0.544 Q1.148 0.534 1.213 0.342" stroke="hsl(0.0,100%,35%)" stroke-width="0.00038"></path>
<path d="M0.758 0.544 Q0.789 0.449 0.611 0.414" stroke="hsl(0.0,100%,35%)" stroke-width="0.00151"></path>
<path d="M1.052 0.240 Q0.914 0.172 0.752 0.225" stroke="hsl(0.0,100%,35%)" stroke-width="0.00377"></path>
<path d="M1.052 0.240 Q0.417 0.141 0.083 0.429" stroke="hsl(0.0,100%,35%)" stroke-width="0.00038"></path>
<path d="M1.052 0.240 Q0.911 0.456 1.302 0.573" stroke="hsl(0.0,100%,35%)" stroke-width="0.00038"></path>
<path d="M1.052 0.240 Q0.693 0.239 0.611 0.414" stroke="hsl(0.0,100%,35%)" stroke-width="0.00075"></path>
<path d="M1.313 0.909 Q1.580 0.454 0.752 0.225" stroke="hsl(0.0,100%,35%)" stroke-width="0.00038"></path>
<path d="M1.313 0.909 Q1.423 0.887 1.405 0.829" stroke="hsl(0.0,100%,35%)" stroke-width="0.00038"></path>
<path d="M0.901 0.563 Q1.097 0.364 0.752 0.225" stroke="hsl(0.0,100%,35%)" stroke-width="0.00226"></path>
<path d="M0.901 0.563 Q1.094 0.648 1.302 0.573" stroke="hsl(0.0,100%,35%)" stroke-width="0.00151"></path>
<path d="M0.901 0.563 Q0.762 0.451 0.513 0.495" stroke="hsl(0.0,100%,35%)" stroke-width="0.00038"></path>
<path d="M1.405 0.829 Q1.559 0.680 1.302 0.573" stroke="hsl(0.0,100%,35%)" stroke-width="0.00151"></path>
<path d="M1.405 0.829 Q1.340 0.463 0.611 0.414" stroke="hsl(0.0,100%,35%)" stroke-width="0.00113"></path>
<path d="M1.405 0.829 Q1.637 0.608 1.257 0.446" stroke="hsl(0.0,100%,35%)" stroke-width="0.00075"></path>
<path d="M1.405 0.829 Q1.562 0.396 0.752 0.225" stroke="hsl(0.0,100%,35%)" stroke-width="0.00151"></path>
<path d="M1.405 0.829 Q1.362 0.742 1.183 0.744" stroke="hsl(0.0,100%,35%)" stroke-width="0.00075"></path>
<path d="M1.405 0.829 Q1.539 0.792 1.496 0.718" stroke="hsl(0.0,100%,35%)" stroke-width="0.00038"></path>
<path d="M0.972 0.317 Q0.714 0.293 0.611 0.414" stroke="hsl(0.0,100%,35%)" stroke-width="0.00301"></path>
<path d="M0.972 0.317 Q0.936 0.227 0.752 0.225" stroke="hsl(0.0,100%,35%)" stroke-width="0.01356"></path>
<path d="M0.972 0.317 Q0.932 0.511 1.302 0.573" stroke="hsl(0.0,100%,35%)" stroke-width="0.00339"></path>
<path d="M0.972 0.317 Q1.233 0.262 1.182 0.123" stroke="hsl(0.0,100%,35%)" stroke-width="0.00038"></path>
<path d="M0.554 0.318 Q0.727 0.311 0.752 0.225" stroke="hsl(0.0,100%,35%)" stroke-width="0.00339"></path>
<path d="M0.554 0.318 Q0.724 0.595 1.302 0.573" stroke="hsl(0.0,100%,35%)" stroke-width="0.00226"></path>
<path d="M0.554 0.318 Q0.564 0.607 1.130 0.666" stroke="hsl(0.0,100%,35%)" stroke-width="0.00038"></path>
<path d="M0.997 0.660 Q1.023 0.739 1.183 0.744" stroke="hsl(0.0,100%,35%)" stroke-width="0.00038"></path>
<path d="M0.997 0.660 Q1.219 0.677 1.302 0.573" stroke="hsl(0.0,100%,35%)" stroke-width="0.00377"></path>
<path d="M0.997 0.660 Q1.066 0.826 1.405 0.829" stroke="hsl(0.0,100%,35%)" stroke-width="0.00113"></path>
<path d="M0.997 0.660 Q1.222 0.393 0.752 0.225" stroke="hsl(0.0,100%,35%)" stroke-width="0.00301"></path>
<path d="M0.997 0.660 Q1.298 0.605 1.257 0.446" stroke="hsl(0.0,100%,35%)" stroke-width="0.00038"></path>
<path d="M0.510 0.308 Q0.701 0.200 0.533 0.084" stroke="hsl(0.0,100%,35%)" stroke-width="0.00075"></path>
<path d="M0.510 0.308 Q0.475 0.381 0.611 0.414" stroke="hsl(0.0,100%,35%)" stroke-width="0.00075"></path>
<path d="M0.510 0.308 Q0.697 0.314 0.752 0.225" stroke="hsl(0.0,100%,35%)" stroke-width="0.00151"></path>
<path d="M0.510 0.308 Q0.994 0.350 1.182 0.123" stroke="hsl(0.0,100%,35%)" stroke-width="0.00038"></path>
<path d="M0.510 0.308 Q0.694 0.599 1.302 0.573" stroke="hsl(0.0,100%,35%)" stroke-width="0.00075"></path>
<path d="M0.220 0.095 Q0.382 0.266 0.752 0.225" stroke="hsl(0.0,100%,35%)" stroke-width="0.00188"></path>
<path d="M0.220 0.095 Q0.336 0.363 0.884 0.365" stroke="hsl(0.0,100%,35%)" stroke-width="0.00038"></path>
<path d="M0.220 0.095 Q0.386 0.152 0.533 0.084" stroke="hsl(0.0,100%,35%)" stroke-width="0.00075"></path>
<path d="M0.220 0.095 Q0.379 0.550 1.302 0.573" stroke="hsl(0.0,100%,35%)" stroke-width="0.00075"></path>
<path d="M0.925 0.284 Q0.962 0.432 1.257 0.446" stroke="hsl(0.0,100%,35%)" stroke-width="0.00038"></path>
<path d="M0.925 0.284 Q0.883 0.504 1.302 0.573" stroke="hsl(0.0,100%,35%)" stroke-width="0.00188"></path>
<path d="M0.925 0.284 Q0.886 0.220 0.752 0.225" stroke="hsl(0.0,100%,35%)" stroke-width="0.00264"></path>
<path d="M0.925 0.284 Q0.665 0.286 0.611 0.414" stroke="hsl(0.0,100%,35%)" stroke-width="0.00038"></path>
<path d="M0.925 0.284 Q0.730 0.653 1.405 0.829" stroke="hsl(0.0,100%,35%)" stroke-width="0.00075"></path>
<path d="M0.925 0.284 Q0.844 0.402 1.054 0.467" stroke="hsl(0.0,100%,35%)" stroke-width="0.00038"></path>
<path d="M0.614 0.293 Q0.737 0.286 0.752 0.225" stroke="hsl(0.0,100%,35%)" stroke-width="0.00151"></path>
<path d="M0.614 0.293 Q0.733 0.570 1.302 0.573" stroke="hsl(0.0,100%,35%)" stroke-width="0.00038"></path>
<path d="M1.550 0.943 Q1.722 0.708 1.302 0.573" stroke="hsl(0.0,100%,35%)" stroke-width="0.00075"></path>
<path d="M1.550 0.943 Q1.726 0.424 0.752 0.225" stroke="hsl(0.0,100%,35%)" stroke-width="0.00038"></path>
<path d="M1.550 0.943 Q1.504 0.491 0.611 0.414" stroke="hsl(0.0,100%,35%)" stroke-width="0.00038"></path>
<path d="M1.550 0.943 Q1.569 0.857 1.405 0.829" stroke="hsl(0.0,100%,35%)" stroke-width="0.00038"></path>
<path d="M1.550 0.943 Q1.459 0.879 1.313 0.909" stroke="hsl(0.0,100%,35%)" stroke-width="0.00038"></path>
<path d="M0.689 0.674 Q1.079 0.462 0.752 0.225" stroke="hsl(0.0,100%,35%)" stroke-width="0.00640"></path>
<path d="M0.689 0.674 Q1.076 0.746 1.302 0.573" stroke="hsl(0.0,100%,35%)" stroke-width="0.00188"></path>
<path d="M0.689 0.674 Q1.155 0.674 1.257 0.446" stroke="hsl(0.0,100%,35%)" stroke-width="0.00301"></path>
<path d="M0.398 0.089 Q0.466 0.228 0.752 0.225" stroke="hsl(0.0,100%,35%)" stroke-width="0.00264"></path>
<path d="M0.398 0.089 Q0.463 0.512 1.302 0.573" stroke="hsl(0.0,100%,35%)" stroke-width="0.00075"></path>
<path d="M0.398 0.089 Q0.542 0.439 1.257 0.446" stroke="hsl(0.0,100%,35%)" stroke-width="0.00188"></path>
<path d="M0.398 0.089 Q0.310 0.661 1.405 0.829" stroke="hsl(0.0,100%,35%)" stroke-width="0.00038"></path>
<path d="M0.919 0.574 Q0.779 0.453 0.513 0.495" stroke="hsl(0.0,100%,35%)" stroke-width="0.00339"></path>
<path d="M0.919 0.574 Q1.115 0.366 0.752 0.225" stroke="hsl(0.0,100%,35%)" stroke-width="0.00904"></path>
<path d="M0.919 0.574 Q1.111 0.650 1.302 0.573" stroke="hsl(0.0,100%,35%)" stroke-width="0.00038"></path>
<path d="M0.919 0.574 Q0.893 0.432 0.611 0.414" stroke="hsl(0.0,100%,35%)" stroke-width="0.00038"></path>
<path d="M0.919 0.574 Q0.948 0.354 0.526 0.292" stroke="hsl(0.0,100%,35%)" stroke-width="0.00075"></path>
<path d="M0.919 0.574 Q1.252 0.516 1.213 0.342" stroke="hsl(0.0,100%,35%)" stroke-width="0.00038"></path>
<path d="M1.711 0.584 Q1.515 0.497 1.302 0.573" stroke="hsl(0.0,100%,35%)" stroke-width="0.00226"></path>
<path d="M1.711 0.584 Q1.837 0.613 1.922 0.558" stroke="hsl(0.0,100%,35%)" stroke-width="0.00113"></path>
<path d="M1.711 0.584 Q1.519 0.213 0.752 0.225" stroke="hsl(0.0,100%,35%)" stroke-width="0.00151"></path>
<path d="M0.355 0.319 Q0.407 0.418 0.611 0.414" stroke="hsl(0.0,100%,35%)" stroke-width="0.00075"></path>
<path d="M0.355 0.319 Q0.625 0.635 1.302 0.573" stroke="hsl(0.0,100%,35%)" stroke-width="0.00038"></path>
<path d="M0.355 0.319 Q0.629 0.351 0.752 0.225" stroke="hsl(0.0,100%,35%)" stroke-width="0.00038"></path>
<path d="M1.153 0.532 Q0.977 0.365 0.611 0.414" stroke="hsl(0.0,100%,35%)" stroke-width="0.00038"></path>
<path d="M1.153 0.532 Q1.198 0.298 0.752 0.225" stroke="hsl(0.0,100%,35%)" stroke-width="0.00188"></path>
<path d="M1.153 0.532 Q1.495 0.333 1.182 0.123" stroke="hsl(0.0,100%,35%)" stroke-width="0.00075"></path>
<path d="M1.153 0.532 Q1.336 0.449 1.213 0.342" stroke="hsl(0.0,100%,35%)" stroke-width="0.00151"></path>
<path d="M1.011 0.475 Q1.082 0.298 0.752 0.225" stroke="hsl(0.0,100%,35%)" stroke-width="0.00075"></path>
<path d="M1.011 0.475 Q0.860 0.364 0.611 0.414" stroke="hsl(0.0,100%,35%)" stroke-width="0.00113"></path>
<path d="M1.011 0.475 Q0.925 0.731 1.405 0.829" stroke="hsl(0.0,100%,35%)" stroke-width="0.00038"></path>
<path d="M1.011 0.475 Q0.908 0.305 0.554 0.318" stroke="hsl(0.0,100%,35%)" stroke-width="0.00075"></path>
<path d="M1.011 0.475 Q1.078 0.582 1.302 0.573" stroke="hsl(0.0,100%,35%)" stroke-width="0.00038"></path>
</g>
<text x="0.704" y="0.591" font-size="0.013459" fill="hsl(0.0,100%,20%)">aleino</text>
<text x="0.752" y="0.173" font-size="0.104507" fill="hsl(0.0,100%,20%)">jmadill</text>
<text x="1.302" y="0.541" font-size="0.063799" fill="hsl(0.0,100%,20%)">geofflang</text>
<text x="0.631" y="0.573" font-size="0.006528" fill="hsl(0.0,100%,20%)">kkinnunen</text>
<text x="1.748" y="0.757" font-size="0.007299" fill="hsl(0.0,100%,20%)">artyom</text>
<text x="0.611" y="0.377" font-size="0.074221" fill="hsl(0.0,100%,20%)">syoussefi</text>
<text x="1.922" y="0.554" font-size="0.007996" fill="hsl(0.0,100%,20%)">rafael.cintron</text>
<text x="0.203" y="0.325" font-size="0.015655" fill="hsl(0.0,100%,20%)">b.schade</text>
<text x="0.083" y="0.424" font-size="0.010322" fill="hsl(0.0,100%,20%)">cclao</text>
<text x="0.513" y="0.474" font-size="0.042435" fill="hsl(0.0,100%,20%)">tobine</text>
<text x="1.182" y="0.103" font-size="0.039979" fill="hsl(0.0,100%,20%)">cnorthrop</text>
<text x="0.533" y="0.073" font-size="0.022139" fill="hsl(0.0,100%,20%)">m.maiya</text>
<text x="1.384" y="0.220" font-size="0.006528" fill="hsl(0.0,100%,20%)">bsheedy</text>
<text x="1.054" y="0.447" font-size="0.039845" fill="hsl(0.0,100%,20%)">ynovikov</text>
<text x="1.257" y="0.421" font-size="0.050780" fill="hsl(0.0,100%,20%)">jonahr</text>
<text x="0.526" y="0.268" font-size="0.048855" fill="hsl(0.0,100%,20%)">timvp</text>
<text x="1.516" y="0.465" font-size="0.022615" fill="hsl(0.0,100%,20%)">clemendeng</text>
<text x="0.884" y="0.344" font-size="0.042686" fill="hsl(0.0,100%,20%)">courtneygo</text>
<text x="1.213" y="0.326" font-size="0.031479" fill="hsl(0.0,100%,20%)">ianelliott</text>
<text x="0.943" y="0.037" font-size="0.005654" fill="hsl(0.0,100%,20%)">lfy</text>
<text x="1.183" y="0.733" font-size="0.020645" fill="hsl(0.0,100%,20%)">jdarpinian</text>
<text x="1.130" y="0.659" font-size="0.012214" fill="hsl(0.0,100%,20%)">cwallez</text>
<text x="1.283" y="-0.192" font-size="0.005654" fill="hsl(0.0,100%,20%)">davidben</text>
<text x="0.280" y="0.434" font-size="0.020122" fill="hsl(0.0,100%,20%)">dongja</text>
<text x="0.758" y="0.540" font-size="0.008636" fill="hsl(0.0,100%,20%)">ericbinet</text>
<text x="1.052" y="0.234" font-size="0.012642" fill="hsl(0.0,100%,20%)">flibitijibibo</text>
<text x="1.313" y="0.906" font-size="0.006528" fill="hsl(0.0,100%,20%)">zmo</text>
<text x="0.901" y="0.556" font-size="0.013057" fill="hsl(0.0,100%,20%)">sugoi</text>
<text x="1.405" y="0.819" font-size="0.020645" fill="hsl(0.0,100%,20%)">kbr</text>
<text x="0.972" y="0.305" font-size="0.025285" fill="hsl(0.0,100%,20%)">spang</text>
<text x="0.554" y="0.310" font-size="0.015991" fill="hsl(0.0,100%,20%)">jiajia.qin</text>
<text x="0.997" y="0.651" font-size="0.016321" fill="hsl(0.0,100%,20%)">shrekshao</text>
<text x="0.510" y="0.302" font-size="0.011308" fill="hsl(0.0,100%,20%)">hckim.kim</text>
<text x="0.220" y="0.089" font-size="0.010322" fill="hsl(0.0,100%,20%)">j.vigil</text>
<text x="0.925" y="0.278" font-size="0.013459" fill="hsl(0.0,100%,20%)">jgilbert</text>
<text x="0.614" y="0.289" font-size="0.007299" fill="hsl(0.0,100%,20%)">jie.a.chen</text>
<text x="0.843" y="0.537" font-size="0.003264" fill="hsl(0.0,100%,20%)">amaiorano</text>
<text x="0.416" y="0.135" font-size="0.003264" fill="hsl(0.0,100%,20%)">le.hoang.q</text>
<text x="1.496" y="0.716" font-size="0.004616" fill="hsl(0.0,100%,20%)">kainino</text>
<text x="1.550" y="0.939" font-size="0.007996" fill="hsl(0.0,100%,20%)">khushalsagar</text>
<text x="0.689" y="0.665" font-size="0.017879" fill="hsl(0.0,100%,20%)">lehoangq</text>
<text x="0.398" y="0.083" font-size="0.012642" fill="hsl(0.0,100%,20%)">lexa.knyazev</text>
<text x="0.919" y="0.564" font-size="0.020122" fill="hsl(0.0,100%,20%)">lujc</text>
<text x="1.711" y="0.578" font-size="0.011769" fill="hsl(0.0,100%,20%)">mihu</text>
<text x="0.355" y="0.316" font-size="0.006528" fill="hsl(0.0,100%,20%)">shaobo.yan</text>
<text x="0.380" y="0.344" font-size="0.003264" fill="hsl(0.0,100%,20%)">jaedon1.lee</text>
<text x="1.153" y="0.526" font-size="0.011769" fill="hsl(0.0,100%,20%)">xinyi.he</text>
<text x="0.253" y="0.334" font-size="0.004616" fill="hsl(0.0,100%,20%)">sunny.sun</text>
<text x="0.534" y="0.619" font-size="0.003264" fill="hsl(0.0,100%,20%)">fei.yang</text>
<text x="1.011" y="0.470" font-size="0.009793" fill="hsl(0.0,100%,20%)">xinghua.cao</text>
</svg>
