<svg width="4000" height="2000" viewBox="-0.025 -0.025 2.05 1.05" xmlns="http://www.w3.org/2000/svg">
  <style>
    path {
      fill: none;
      stroke-linecap: round;
      stroke-opacity: 0.4;
    }

    text {
      text-anchor: middle;
      alignment-baseline: hanging;
    }
  </style>
  <g opacity="0.4">
<path d="M1.934 0.351 Q2.007 0.242 1.810 0.182" stroke="hsl(0.0,100%,35%)" stroke-width="0.01397"></path>
<path d="M1.934 0.351 Q1.670 0.173 1.266 0.263" stroke="hsl(0.0,100%,35%)" stroke-width="0.01310"></path>
<path d="M1.934 0.351 Q1.405 0.023 0.648 0.209" stroke="hsl(0.0,100%,35%)" stroke-width="0.00087"></path>
<path d="M1.810 0.182 Q0.880 0.027 0.374 0.447" stroke="hsl(0.0,100%,35%)" stroke-width="0.00524"></path>
<path d="M1.810 0.182 Q1.474 0.114 1.266 0.263" stroke="hsl(0.0,100%,35%)" stroke-width="0.05939"></path>
<path d="M1.810 0.182 Q1.519 0.321 1.725 0.493" stroke="hsl(0.0,100%,35%)" stroke-width="0.03057"></path>
<path d="M1.810 0.182 Q1.185 0.405 1.483 0.758" stroke="hsl(0.0,100%,35%)" stroke-width="0.03843"></path>
<path d="M1.810 0.182 Q1.505 0.394 1.851 0.589" stroke="hsl(0.0,100%,35%)" stroke-width="0.00175"></path>
<path d="M1.810 0.182 Q1.208 -0.037 0.648 0.209" stroke="hsl(0.0,100%,35%)" stroke-width="0.01310"></path>
<path d="M1.810 0.182 Q1.737 0.291 1.934 0.351" stroke="hsl(0.0,100%,35%)" stroke-width="0.00087"></path>
<path d="M1.810 0.182 Q1.027 0.128 0.750 0.498" stroke="hsl(0.0,100%,35%)" stroke-width="0.00349"></path>
<path d="M1.810 0.182 Q1.778 0.236 1.876 0.263" stroke="hsl(0.0,100%,35%)" stroke-width="0.00349"></path>
<path d="M1.810 0.182 Q1.430 0.169 1.321 0.352" stroke="hsl(0.0,100%,35%)" stroke-width="0.00087"></path>
<path d="M1.810 0.182 Q1.165 0.254 1.163 0.584" stroke="hsl(0.0,100%,35%)" stroke-width="0.00175"></path>
<path d="M1.810 0.182 Q1.208 0.562 1.818 0.939" stroke="hsl(0.0,100%,35%)" stroke-width="0.00087"></path>
<path d="M1.266 0.263 Q1.602 0.332 1.810 0.182" stroke="hsl(0.0,100%,35%)" stroke-width="0.04629"></path>
<path d="M1.266 0.263 Q1.000 0.113 0.648 0.209" stroke="hsl(0.0,100%,35%)" stroke-width="0.01223"></path>
<path d="M1.266 0.263 Q1.444 0.281 1.518 0.198" stroke="hsl(0.0,100%,35%)" stroke-width="0.00349"></path>
<path d="M1.266 0.263 Q1.311 0.470 1.725 0.493" stroke="hsl(0.0,100%,35%)" stroke-width="0.00524"></path>
<path d="M1.266 0.263 Q1.529 0.441 1.934 0.351" stroke="hsl(0.0,100%,35%)" stroke-width="0.00349"></path>
<path d="M1.266 0.263 Q0.978 0.554 1.483 0.758" stroke="hsl(0.0,100%,35%)" stroke-width="0.00087"></path>
<path d="M1.266 0.263 Q1.515 0.219 1.485 0.088" stroke="hsl(0.0,100%,35%)" stroke-width="0.01834"></path>
<path d="M1.266 0.263 Q1.571 0.385 1.876 0.263" stroke="hsl(0.0,100%,35%)" stroke-width="0.00087"></path>
<path d="M0.648 0.209 Q0.321 0.273 0.374 0.447" stroke="hsl(0.0,100%,35%)" stroke-width="0.00524"></path>
<path d="M0.648 0.209 Q0.468 0.374 0.750 0.498" stroke="hsl(0.0,100%,35%)" stroke-width="0.02445"></path>
<path d="M0.648 0.209 Q0.959 0.567 1.725 0.493" stroke="hsl(0.0,100%,35%)" stroke-width="0.00437"></path>
<path d="M0.648 0.209 Q1.251 0.428 1.810 0.182" stroke="hsl(0.0,100%,35%)" stroke-width="0.02271"></path>
<path d="M0.648 0.209 Q1.178 0.537 1.934 0.351" stroke="hsl(0.0,100%,35%)" stroke-width="0.00786"></path>
<path d="M0.648 0.209 Q0.914 0.359 1.266 0.263" stroke="hsl(0.0,100%,35%)" stroke-width="0.00437"></path>
<path d="M0.648 0.209 Q0.582 0.272 0.690 0.318" stroke="hsl(0.0,100%,35%)" stroke-width="0.00087"></path>
<path d="M0.648 0.209 Q0.626 0.651 1.483 0.758" stroke="hsl(0.0,100%,35%)" stroke-width="0.00175"></path>
<path d="M1.518 0.198 Q1.677 0.249 1.810 0.182" stroke="hsl(0.0,100%,35%)" stroke-width="0.00437"></path>
<path d="M1.518 0.198 Q1.340 0.180 1.266 0.263" stroke="hsl(0.0,100%,35%)" stroke-width="0.00699"></path>
<path d="M1.518 0.198 Q1.604 0.358 1.934 0.351" stroke="hsl(0.0,100%,35%)" stroke-width="0.00262"></path>
<path d="M1.725 0.493 Q2.017 0.355 1.810 0.182" stroke="hsl(0.0,100%,35%)" stroke-width="0.01048"></path>
<path d="M1.725 0.493 Q1.414 0.136 0.648 0.209" stroke="hsl(0.0,100%,35%)" stroke-width="0.00524"></path>
<path d="M1.725 0.493 Q1.884 0.417 1.769 0.323" stroke="hsl(0.0,100%,35%)" stroke-width="0.00087"></path>
<path d="M1.725 0.493 Q1.680 0.286 1.266 0.263" stroke="hsl(0.0,100%,35%)" stroke-width="0.00175"></path>
<path d="M1.725 0.493 Q1.087 0.200 0.374 0.447" stroke="hsl(0.0,100%,35%)" stroke-width="0.00175"></path>
<path d="M1.725 0.493 Q1.944 0.464 1.934 0.351" stroke="hsl(0.0,100%,35%)" stroke-width="0.00349"></path>
<path d="M1.725 0.493 Q1.314 -0.062 0.140 0.016" stroke="hsl(0.0,100%,35%)" stroke-width="0.00087"></path>
<path d="M1.483 0.758 Q1.362 0.709 1.239 0.757" stroke="hsl(0.0,100%,35%)" stroke-width="0.00349"></path>
<path d="M1.483 0.758 Q1.177 0.381 0.374 0.447" stroke="hsl(0.0,100%,35%)" stroke-width="0.00524"></path>
<path d="M1.483 0.758 Q1.675 0.741 1.683 0.643" stroke="hsl(0.0,100%,35%)" stroke-width="0.00087"></path>
<path d="M1.483 0.758 Q1.375 0.670 1.178 0.702" stroke="hsl(0.0,100%,35%)" stroke-width="0.00175"></path>
<path d="M1.483 0.758 Q2.107 0.536 1.810 0.182" stroke="hsl(0.0,100%,35%)" stroke-width="0.01747"></path>
<path d="M1.483 0.758 Q1.324 0.482 0.750 0.498" stroke="hsl(0.0,100%,35%)" stroke-width="0.00087"></path>
<path d="M1.483 0.758 Q1.561 0.861 1.779 0.845" stroke="hsl(0.0,100%,35%)" stroke-width="0.00175"></path>
<path d="M1.483 0.758 Q1.505 0.317 0.648 0.209" stroke="hsl(0.0,100%,35%)" stroke-width="0.00087"></path>
<path d="M1.483 0.758 Q1.816 0.675 1.725 0.493" stroke="hsl(0.0,100%,35%)" stroke-width="0.00087"></path>
<path d="M1.483 0.758 Q1.462 0.607 1.163 0.584" stroke="hsl(0.0,100%,35%)" stroke-width="0.00175"></path>
<path d="M1.483 0.758 Q1.235 0.598 0.867 0.684" stroke="hsl(0.0,100%,35%)" stroke-width="0.00087"></path>
<path d="M1.483 0.758 Q1.771 0.467 1.266 0.263" stroke="hsl(0.0,100%,35%)" stroke-width="0.00087"></path>
<path d="M1.485 0.088 Q1.572 0.200 1.810 0.182" stroke="hsl(0.0,100%,35%)" stroke-width="0.00262"></path>
<path d="M1.485 0.088 Q1.235 0.132 1.266 0.263" stroke="hsl(0.0,100%,35%)" stroke-width="0.00437"></path>
<path d="M1.485 0.088 Q0.789 0.146 0.750 0.498" stroke="hsl(0.0,100%,35%)" stroke-width="0.00175"></path>
<path d="M0.750 0.498 Q0.930 0.333 0.648 0.209" stroke="hsl(0.0,100%,35%)" stroke-width="0.01048"></path>
<path d="M0.750 0.498 Q1.533 0.552 1.810 0.182" stroke="hsl(0.0,100%,35%)" stroke-width="0.00349"></path>
<path d="M0.750 0.498 Q1.196 0.484 1.266 0.263" stroke="hsl(0.0,100%,35%)" stroke-width="0.00087"></path>
<path d="M0.750 0.498 Q1.400 0.614 1.769 0.323" stroke="hsl(0.0,100%,35%)" stroke-width="0.00087"></path>
<path d="M0.750 0.498 Q1.072 0.467 1.081 0.302" stroke="hsl(0.0,100%,35%)" stroke-width="0.00349"></path>
<path d="M0.750 0.498 Q0.740 0.318 0.386 0.283" stroke="hsl(0.0,100%,35%)" stroke-width="0.00175"></path>
<path d="M0.750 0.498 Q0.830 0.135 0.140 0.016" stroke="hsl(0.0,100%,35%)" stroke-width="0.00175"></path>
<path d="M1.769 0.323 Q1.902 0.261 1.810 0.182" stroke="hsl(0.0,100%,35%)" stroke-width="0.00437"></path>
<path d="M1.769 0.323 Q1.611 0.399 1.725 0.493" stroke="hsl(0.0,100%,35%)" stroke-width="0.00087"></path>
<path d="M1.769 0.323 Q1.565 0.192 1.266 0.263" stroke="hsl(0.0,100%,35%)" stroke-width="0.00175"></path>
<path d="M1.769 0.323 Q1.119 0.207 0.750 0.498" stroke="hsl(0.0,100%,35%)" stroke-width="0.00175"></path>
<path d="M1.081 0.302 Q0.759 0.334 0.750 0.498" stroke="hsl(0.0,100%,35%)" stroke-width="0.00437"></path>
<path d="M1.081 0.302 Q0.612 0.233 0.374 0.447" stroke="hsl(0.0,100%,35%)" stroke-width="0.00087"></path>
<path d="M1.081 0.302 Q0.939 0.169 0.648 0.209" stroke="hsl(0.0,100%,35%)" stroke-width="0.00087"></path>
<path d="M0.386 0.283 Q0.395 0.463 0.750 0.498" stroke="hsl(0.0,100%,35%)" stroke-width="0.01048"></path>
<path d="M0.386 0.283 Q0.576 0.298 0.648 0.209" stroke="hsl(0.0,100%,35%)" stroke-width="0.00262"></path>
<path d="M0.386 0.283 Q1.178 0.517 1.810 0.182" stroke="hsl(0.0,100%,35%)" stroke-width="0.00175"></path>
<path d="M0.140 0.016 Q0.059 0.379 0.750 0.498" stroke="hsl(0.0,100%,35%)" stroke-width="0.00262"></path>
<path d="M0.140 0.016 Q0.551 0.572 1.725 0.493" stroke="hsl(0.0,100%,35%)" stroke-width="0.00175"></path>
<path d="M1.956 0.704 Q2.300 0.414 1.810 0.182" stroke="hsl(0.0,100%,35%)" stroke-width="0.00087"></path>
<path d="M1.956 0.704 Q1.754 0.739 1.779 0.845" stroke="hsl(0.0,100%,35%)" stroke-width="0.00087"></path>
<path d="M1.956 0.704 Q1.370 0.259 0.374 0.447" stroke="hsl(0.0,100%,35%)" stroke-width="0.00087"></path>
<path d="M1.956 0.704 Q1.698 0.794 1.818 0.939" stroke="hsl(0.0,100%,35%)" stroke-width="0.00087"></path>
<path d="M0.374 0.447 Q0.679 0.824 1.483 0.758" stroke="hsl(0.0,100%,35%)" stroke-width="0.00175"></path>
<path d="M0.374 0.447 Q0.284 0.487 0.343 0.540" stroke="hsl(0.0,100%,35%)" stroke-width="0.00262"></path>
<path d="M0.374 0.447 Q0.701 0.383 0.648 0.209" stroke="hsl(0.0,100%,35%)" stroke-width="0.00524"></path>
<path d="M0.374 0.447 Q1.304 0.602 1.810 0.182" stroke="hsl(0.0,100%,35%)" stroke-width="0.00262"></path>
<path d="M0.374 0.447 Q0.871 0.807 1.683 0.643" stroke="hsl(0.0,100%,35%)" stroke-width="0.00087"></path>
<path d="M0.374 0.447 Q1.013 0.741 1.725 0.493" stroke="hsl(0.0,100%,35%)" stroke-width="0.00087"></path>
<path d="M0.374 0.447 Q0.521 0.548 0.750 0.498" stroke="hsl(0.0,100%,35%)" stroke-width="0.00087"></path>
<path d="M1.818 0.939 Q1.874 0.884 1.779 0.845" stroke="hsl(0.0,100%,35%)" stroke-width="0.00524"></path>
<path d="M1.818 0.939 Q1.757 0.929 1.723 0.956" stroke="hsl(0.0,100%,35%)" stroke-width="0.00087"></path>
<path d="M1.818 0.939 Q1.795 0.782 1.483 0.758" stroke="hsl(0.0,100%,35%)" stroke-width="0.00611"></path>
<path d="M1.683 0.643 Q2.115 0.438 1.810 0.182" stroke="hsl(0.0,100%,35%)" stroke-width="0.00524"></path>
<path d="M1.683 0.643 Q1.490 0.661 1.483 0.758" stroke="hsl(0.0,100%,35%)" stroke-width="0.00262"></path>
<path d="M1.683 0.643 Q1.824 0.577 1.725 0.493" stroke="hsl(0.0,100%,35%)" stroke-width="0.00087"></path>
<path d="M1.163 0.584 Q1.262 0.838 1.779 0.845" stroke="hsl(0.0,100%,35%)" stroke-width="0.00873"></path>
<path d="M1.163 0.584 Q1.183 0.735 1.483 0.758" stroke="hsl(0.0,100%,35%)" stroke-width="0.01223"></path>
<path d="M1.163 0.584 Q1.808 0.513 1.810 0.182" stroke="hsl(0.0,100%,35%)" stroke-width="0.00961"></path>
<path d="M1.163 0.584 Q1.206 0.893 1.818 0.939" stroke="hsl(0.0,100%,35%)" stroke-width="0.00175"></path>
<path d="M1.163 0.584 Q0.878 0.358 0.374 0.447" stroke="hsl(0.0,100%,35%)" stroke-width="0.00087"></path>
<path d="M1.163 0.584 Q1.233 0.477 1.039 0.420" stroke="hsl(0.0,100%,35%)" stroke-width="0.00175"></path>
<path d="M1.321 0.352 Q1.701 0.365 1.810 0.182" stroke="hsl(0.0,100%,35%)" stroke-width="0.00611"></path>
<path d="M1.321 0.352 Q1.077 0.588 1.483 0.758" stroke="hsl(0.0,100%,35%)" stroke-width="0.00087"></path>
<path d="M1.321 0.352 Q1.365 0.296 1.266 0.263" stroke="hsl(0.0,100%,35%)" stroke-width="0.00262"></path>
<path d="M1.510 0.379 Q1.817 0.341 1.810 0.182" stroke="hsl(0.0,100%,35%)" stroke-width="0.00087"></path>
<path d="M1.510 0.379 Q1.785 0.394 1.876 0.263" stroke="hsl(0.0,100%,35%)" stroke-width="0.00087"></path>
<path d="M0.315 0.756 Q0.897 0.991 1.483 0.758" stroke="hsl(0.0,100%,35%)" stroke-width="0.00175"></path>
<path d="M0.315 0.756 Q0.164 0.845 0.303 0.938" stroke="hsl(0.0,100%,35%)" stroke-width="0.00087"></path>
<path d="M0.315 0.756 Q1.522 0.768 1.810 0.182" stroke="hsl(0.0,100%,35%)" stroke-width="0.00175"></path>
<path d="M1.382 0.913 Q2.180 0.633 1.810 0.182" stroke="hsl(0.0,100%,35%)" stroke-width="0.00175"></path>
<path d="M1.382 0.913 Q1.556 0.856 1.483 0.758" stroke="hsl(0.0,100%,35%)" stroke-width="0.00175"></path>
<path d="M1.382 0.913 Q1.635 0.958 1.779 0.845" stroke="hsl(0.0,100%,35%)" stroke-width="0.00175"></path>
<path d="M0.935 0.831 Q1.891 0.682 1.810 0.182" stroke="hsl(0.0,100%,35%)" stroke-width="0.00349"></path>
<path d="M0.935 0.831 Q1.266 0.904 1.483 0.758" stroke="hsl(0.0,100%,35%)" stroke-width="0.00175"></path>
<path d="M0.935 0.831 Q1.430 0.812 1.503 0.567" stroke="hsl(0.0,100%,35%)" stroke-width="0.00087"></path>
<path d="M0.935 0.831 Q0.839 0.876 0.907 0.932" stroke="hsl(0.0,100%,35%)" stroke-width="0.00087"></path>
<path d="M1.503 0.567 Q1.034 0.281 0.374 0.447" stroke="hsl(0.0,100%,35%)" stroke-width="0.00175"></path>
<path d="M1.503 0.567 Q1.964 0.436 1.810 0.182" stroke="hsl(0.0,100%,35%)" stroke-width="0.00087"></path>
<path d="M1.503 0.567 Q1.673 0.575 1.725 0.493" stroke="hsl(0.0,100%,35%)" stroke-width="0.00087"></path>
<path d="M1.851 0.589 Q1.865 0.516 1.725 0.493" stroke="hsl(0.0,100%,35%)" stroke-width="0.00087"></path>
<path d="M1.851 0.589 Q1.226 0.223 0.374 0.447" stroke="hsl(0.0,100%,35%)" stroke-width="0.00087"></path>
<path d="M1.851 0.589 Q2.156 0.378 1.810 0.182" stroke="hsl(0.0,100%,35%)" stroke-width="0.00087"></path>
<path d="M1.851 0.589 Q1.373 0.323 0.750 0.498" stroke="hsl(0.0,100%,35%)" stroke-width="0.00087"></path>
</g>
<text x="1.934" y="0.331" font-size="0.039280" fill="hsl(0.0,100%,20%)">abdolrashidi</text>
<text x="1.810" y="0.131" font-size="0.103505" fill="hsl(0.0,100%,20%)">syoussefi</text>
<text x="1.266" y="0.224" font-size="0.078930" fill="hsl(0.0,100%,20%)">cclao</text>
<text x="0.648" y="0.177" font-size="0.064069" fill="hsl(0.0,100%,20%)">romanl</text>
<text x="1.518" y="0.186" font-size="0.024130" fill="hsl(0.0,100%,20%)">hailinzhang</text>
<text x="1.725" y="0.469" font-size="0.048859" fill="hsl(0.0,100%,20%)">yuxinhu</text>
<text x="1.483" y="0.729" font-size="0.059596" fill="hsl(0.0,100%,20%)">geofflang</text>
<text x="1.485" y="0.073" font-size="0.030041" fill="hsl(0.0,100%,20%)">chrisforbes</text>
<text x="1.876" y="0.257" font-size="0.013216" fill="hsl(0.0,100%,20%)">m.maiya</text>
<text x="0.750" y="0.473" font-size="0.049745" fill="hsl(0.0,100%,20%)">cnorthrop</text>
<text x="1.769" y="0.313" font-size="0.018691" fill="hsl(0.0,100%,20%)">zzyiwei</text>
<text x="1.081" y="0.293" font-size="0.017895" fill="hsl(0.0,100%,20%)">mikes</text>
<text x="0.386" y="0.271" font-size="0.023519" fill="hsl(0.0,100%,20%)">mark</text>
<text x="0.140" y="0.009" font-size="0.015261" fill="hsl(0.0,100%,20%)">lpy</text>
<text x="1.956" y="0.698" font-size="0.010791" fill="hsl(0.0,100%,20%)">djg</text>
<text x="1.779" y="0.833" font-size="0.024726" fill="hsl(0.0,100%,20%)">kbr</text>
<text x="0.374" y="0.429" font-size="0.035381" fill="hsl(0.0,100%,20%)">ynovikov</text>
<text x="1.818" y="0.928" font-size="0.022891" fill="hsl(0.0,100%,20%)">lehoangquyen</text>
<text x="1.239" y="0.751" font-size="0.010791" fill="hsl(0.0,100%,20%)">penghuang</text>
<text x="1.683" y="0.634" font-size="0.018691" fill="hsl(0.0,100%,20%)">steven</text>
<text x="1.178" y="0.699" font-size="0.007630" fill="hsl(0.0,100%,20%)">rafael.cintron</text>
<text x="1.163" y="0.566" font-size="0.035790" fill="hsl(0.0,100%,20%)">lexa.knyazev</text>
<text x="0.867" y="0.681" font-size="0.005396" fill="hsl(0.0,100%,20%)">jamesgk</text>
<text x="1.321" y="0.343" font-size="0.018691" fill="hsl(0.0,100%,20%)">i.nazarov</text>
<text x="1.510" y="0.375" font-size="0.007630" fill="hsl(0.0,100%,20%)">j.vigil</text>
<text x="0.315" y="0.750" font-size="0.012065" fill="hsl(0.0,100%,20%)">jiawei.shao</text>
<text x="0.303" y="0.935" font-size="0.005396" fill="hsl(0.0,100%,20%)">senorblanco</text>
<text x="1.382" y="0.906" font-size="0.013216" fill="hsl(0.0,100%,20%)">jonahr</text>
<text x="1.723" y="0.953" font-size="0.005396" fill="hsl(0.0,100%,20%)">sunnyps</text>
<text x="1.039" y="0.416" font-size="0.007630" fill="hsl(0.0,100%,20%)">kkinnunen</text>
<text x="0.935" y="0.823" font-size="0.015261" fill="hsl(0.0,100%,20%)">liza</text>
<text x="1.503" y="0.561" font-size="0.012065" fill="hsl(0.0,100%,20%)">sokcevic</text>
<text x="0.907" y="0.930" font-size="0.005396" fill="hsl(0.0,100%,20%)">mpdenton</text>
<text x="0.690" y="0.315" font-size="0.005396" fill="hsl(0.0,100%,20%)">zijiehe</text>
<text x="1.851" y="0.583" font-size="0.013216" fill="hsl(0.0,100%,20%)">solti</text>
<text x="0.343" y="0.535" font-size="0.009345" fill="hsl(0.0,100%,20%)">bsheedy</text>
</svg>
