<svg width="4000" height="2000" viewBox="-0.025 -0.025 2.05 1.05" xmlns="http://www.w3.org/2000/svg">
  <style>
    path {
      fill: none;
      stroke-linecap: round;
      stroke-opacity: 0.4;
    }

    text {
      text-anchor: middle;
      alignment-baseline: hanging;
    }
  </style>
  <g opacity="0.4">
<path d="M1.546 0.498 Q1.402 0.411 1.201 0.462" stroke="hsl(0.0,100%,35%)" stroke-width="0.01209"></path>
<path d="M1.546 0.498 Q1.043 0.130 0.215 0.295" stroke="hsl(0.0,100%,35%)" stroke-width="0.00604"></path>
<path d="M1.546 0.498 Q1.815 0.295 1.477 0.119" stroke="hsl(0.0,100%,35%)" stroke-width="0.00604"></path>
<path d="M0.215 0.295 Q0.068 0.331 0.106 0.411" stroke="hsl(0.0,100%,35%)" stroke-width="0.01209"></path>
<path d="M0.215 0.295 Q0.353 0.235 0.265 0.155" stroke="hsl(0.0,100%,35%)" stroke-width="0.00604"></path>
<path d="M0.215 0.295 Q0.530 0.300 0.608 0.147" stroke="hsl(0.0,100%,35%)" stroke-width="0.00604"></path>
<path d="M1.477 0.119 Q1.248 0.116 1.191 0.227" stroke="hsl(0.0,100%,35%)" stroke-width="0.00604"></path>
<path d="M1.477 0.119 Q1.378 0.199 1.513 0.265" stroke="hsl(0.0,100%,35%)" stroke-width="0.03626"></path>
<path d="M1.477 0.119 Q1.065 0.235 1.201 0.462" stroke="hsl(0.0,100%,35%)" stroke-width="0.04835"></path>
<path d="M1.477 0.119 Q1.249 0.091 1.143 0.196" stroke="hsl(0.0,100%,35%)" stroke-width="0.01209"></path>
<path d="M1.477 0.119 Q1.293 -0.007 1.006 0.056" stroke="hsl(0.0,100%,35%)" stroke-width="0.01813"></path>
<path d="M1.477 0.119 Q1.597 0.209 1.799 0.171" stroke="hsl(0.0,100%,35%)" stroke-width="0.01813"></path>
<path d="M1.006 0.056 Q1.191 0.182 1.477 0.119" stroke="hsl(180.0,100%,35%)" stroke-width="0.02417"></path>
<path d="M1.006 0.056 Q0.118 0.413 0.620 0.924" stroke="hsl(180.0,100%,35%)" stroke-width="0.00604"></path>
<path d="M1.006 0.056 Q0.640 0.119 0.684 0.312" stroke="hsl(180.0,100%,35%)" stroke-width="0.00604"></path>
<path d="M0.620 0.924 Q0.790 0.806 0.596 0.697" stroke="hsl(180.0,100%,35%)" stroke-width="0.01209"></path>
<path d="M0.620 0.924 Q1.508 0.567 1.006 0.056" stroke="hsl(180.0,100%,35%)" stroke-width="0.02417"></path>
<path d="M0.620 0.924 Q0.494 0.879 0.378 0.930" stroke="hsl(180.0,100%,35%)" stroke-width="0.02417"></path>
<path d="M0.620 0.924 Q1.692 0.693 1.477 0.119" stroke="hsl(180.0,100%,35%)" stroke-width="0.00604"></path>
<path d="M1.047 0.319 Q1.422 0.305 1.477 0.119" stroke="hsl(180.0,100%,35%)" stroke-width="0.02417"></path>
<path d="M1.047 0.319 Q1.237 0.179 1.006 0.056" stroke="hsl(180.0,100%,35%)" stroke-width="0.01209"></path>
<path d="M1.047 0.319 Q1.202 0.422 1.437 0.370" stroke="hsl(180.0,100%,35%)" stroke-width="0.00604"></path>
<path d="M1.047 0.319 Q1.229 0.305 1.243 0.214" stroke="hsl(180.0,100%,35%)" stroke-width="0.00604"></path>
<path d="M1.799 0.171 Q0.908 -0.084 0.215 0.295" stroke="hsl(0.0,100%,35%)" stroke-width="0.01813"></path>
<path d="M1.799 0.171 Q1.679 0.081 1.477 0.119" stroke="hsl(0.0,100%,35%)" stroke-width="0.04230"></path>
<path d="M1.799 0.171 Q1.758 0.242 1.888 0.278" stroke="hsl(0.0,100%,35%)" stroke-width="0.01209"></path>
<path d="M1.799 0.171 Q1.494 -0.045 1.006 0.056" stroke="hsl(0.0,100%,35%)" stroke-width="0.01209"></path>
<path d="M1.513 0.265 Q1.611 0.185 1.477 0.119" stroke="hsl(0.0,100%,35%)" stroke-width="0.00604"></path>
<path d="M1.513 0.265 Q0.693 0.057 0.106 0.411" stroke="hsl(0.0,100%,35%)" stroke-width="0.00604"></path>
<path d="M1.513 0.265 Q1.690 0.346 1.888 0.278" stroke="hsl(0.0,100%,35%)" stroke-width="0.01209"></path>
</g>
<text x="1.546" y="0.482" font-size="0.032880" fill="hsl(0.0,100%,20%)">chrisforbes</text>
<text x="1.201" y="0.436" font-size="0.051988" fill="hsl(0.0,100%,20%)">cclao</text>
<text x="0.215" y="0.272" font-size="0.046499" fill="hsl(0.0,100%,20%)">cnorthrop</text>
<text x="1.477" y="0.067" font-size="0.105267" fill="hsl(0.0,100%,20%)">syoussefi</text>
<text x="0.106" y="0.397" font-size="0.028475" fill="hsl(0.0,100%,20%)">lpy</text>
<text x="0.265" y="0.146" font-size="0.016440" fill="hsl(0.0,100%,20%)">mark</text>
<text x="0.608" y="0.139" font-size="0.016440" fill="hsl(0.0,100%,20%)">mikes</text>
<text x="1.006" y="0.022" font-size="0.067783" fill="hsl(180.0,100%,20%)">geofflang</text>
<text x="0.620" y="0.896" font-size="0.056949" fill="hsl(180.0,100%,20%)">lexa.knyazev</text>
<text x="0.684" y="0.303" font-size="0.016440" fill="hsl(180.0,100%,20%)">penghuang</text>
<text x="0.596" y="0.685" font-size="0.023250" fill="hsl(180.0,100%,20%)">kkinnunen</text>
<text x="0.378" y="0.914" font-size="0.032880" fill="hsl(180.0,100%,20%)">kbr</text>
<text x="1.047" y="0.295" font-size="0.046499" fill="hsl(180.0,100%,20%)">liza</text>
<text x="1.437" y="0.362" font-size="0.016440" fill="hsl(180.0,100%,20%)">sokcevic</text>
<text x="1.243" y="0.206" font-size="0.016440" fill="hsl(180.0,100%,20%)">mpdenton</text>
<text x="1.799" y="0.137" font-size="0.067783" fill="hsl(0.0,100%,20%)">romanl</text>
<text x="1.888" y="0.261" font-size="0.032880" fill="hsl(0.0,100%,20%)">abdolrashidi</text>
<text x="1.191" y="0.219" font-size="0.016440" fill="hsl(0.0,100%,20%)">lehoangquyen</text>
<text x="1.513" y="0.239" font-size="0.051988" fill="hsl(0.0,100%,20%)">yuxinhu</text>
<text x="1.143" y="0.184" font-size="0.023250" fill="hsl(0.0,100%,20%)">m.maiya</text>
</svg>
