<svg width="4000" height="2000" viewBox="-0.025 -0.025 2.05 1.05" xmlns="http://www.w3.org/2000/svg">
  <style>
    path {
      fill: none;
      stroke-linecap: round;
      stroke-opacity: 0.4;
    }

    text {
      text-anchor: middle;
      alignment-baseline: hanging;
    }
  </style>
  <g opacity="0.4">
<path d="M1.825 0.556 Q2.002 0.298 1.537 0.155" stroke="hsl(0.0,100%,35%)" stroke-width="0.01432"></path>
<path d="M1.825 0.556 Q2.110 0.415 1.898 0.245" stroke="hsl(0.0,100%,35%)" stroke-width="0.01342"></path>
<path d="M1.825 0.556 Q1.594 0.576 1.582 0.693" stroke="hsl(0.0,100%,35%)" stroke-width="0.00089"></path>
<path d="M1.537 0.155 Q1.444 0.225 1.559 0.286" stroke="hsl(0.0,100%,35%)" stroke-width="0.02952"></path>
<path d="M1.537 0.155 Q1.393 0.044 1.143 0.090" stroke="hsl(0.0,100%,35%)" stroke-width="0.03668"></path>
<path d="M1.537 0.155 Q1.646 0.272 1.898 0.245" stroke="hsl(0.0,100%,35%)" stroke-width="0.05458"></path>
<path d="M1.537 0.155 Q1.129 0.433 1.582 0.693" stroke="hsl(0.0,100%,35%)" stroke-width="0.01432"></path>
<path d="M1.537 0.155 Q1.223 0.136 1.116 0.285" stroke="hsl(0.0,100%,35%)" stroke-width="0.00358"></path>
<path d="M1.537 0.155 Q0.631 0.083 0.291 0.510" stroke="hsl(0.0,100%,35%)" stroke-width="0.00089"></path>
<path d="M1.537 0.155 Q1.088 0.514 1.689 0.811" stroke="hsl(0.0,100%,35%)" stroke-width="0.00358"></path>
<path d="M1.537 0.155 Q0.596 0.184 0.446 0.650" stroke="hsl(0.0,100%,35%)" stroke-width="0.00179"></path>
<path d="M1.537 0.155 Q0.957 0.426 1.358 0.768" stroke="hsl(0.0,100%,35%)" stroke-width="0.00537"></path>
<path d="M1.537 0.155 Q1.388 0.316 1.670 0.425" stroke="hsl(0.0,100%,35%)" stroke-width="0.00089"></path>
<path d="M1.537 0.155 Q1.360 0.413 1.825 0.556" stroke="hsl(0.0,100%,35%)" stroke-width="0.00089"></path>
<path d="M1.537 0.155 Q1.263 0.228 1.345 0.378" stroke="hsl(0.0,100%,35%)" stroke-width="0.00089"></path>
<path d="M1.898 0.245 Q1.789 0.128 1.537 0.155" stroke="hsl(0.0,100%,35%)" stroke-width="0.04384"></path>
<path d="M1.898 0.245 Q1.612 0.386 1.825 0.556" stroke="hsl(0.0,100%,35%)" stroke-width="0.00358"></path>
<path d="M1.898 0.245 Q1.475 0.109 1.116 0.285" stroke="hsl(0.0,100%,35%)" stroke-width="0.00089"></path>
<path d="M1.898 0.245 Q1.971 0.205 1.909 0.160" stroke="hsl(0.0,100%,35%)" stroke-width="0.01879"></path>
<path d="M1.898 0.245 Q1.696 0.198 1.559 0.286" stroke="hsl(0.0,100%,35%)" stroke-width="0.00447"></path>
<path d="M1.898 0.245 Q1.381 0.406 1.582 0.693" stroke="hsl(0.0,100%,35%)" stroke-width="0.01163"></path>
<path d="M1.898 0.245 Q1.598 0.126 1.300 0.246" stroke="hsl(0.0,100%,35%)" stroke-width="0.00268"></path>
<path d="M1.898 0.245 Q1.645 0.016 1.143 0.090" stroke="hsl(0.0,100%,35%)" stroke-width="0.00089"></path>
<path d="M1.582 0.693 Q1.990 0.415 1.537 0.155" stroke="hsl(0.0,100%,35%)" stroke-width="0.02595"></path>
<path d="M1.582 0.693 Q1.541 0.774 1.689 0.811" stroke="hsl(0.0,100%,35%)" stroke-width="0.02595"></path>
<path d="M1.582 0.693 Q1.813 0.673 1.825 0.556" stroke="hsl(0.0,100%,35%)" stroke-width="0.00805"></path>
<path d="M1.582 0.693 Q1.845 0.304 1.143 0.090" stroke="hsl(0.0,100%,35%)" stroke-width="0.00179"></path>
<path d="M1.582 0.693 Q1.410 0.686 1.358 0.768" stroke="hsl(0.0,100%,35%)" stroke-width="0.00537"></path>
<path d="M1.582 0.693 Q2.099 0.532 1.898 0.245" stroke="hsl(0.0,100%,35%)" stroke-width="0.00447"></path>
<path d="M1.582 0.693 Q1.666 0.424 1.158 0.324" stroke="hsl(0.0,100%,35%)" stroke-width="0.00089"></path>
<path d="M1.582 0.693 Q1.897 0.485 1.559 0.286" stroke="hsl(0.0,100%,35%)" stroke-width="0.00358"></path>
<path d="M1.497 0.501 Q1.345 0.695 1.689 0.811" stroke="hsl(0.0,100%,35%)" stroke-width="0.00179"></path>
<path d="M1.497 0.501 Q1.386 0.614 1.582 0.693" stroke="hsl(0.0,100%,35%)" stroke-width="0.00089"></path>
<path d="M1.497 0.501 Q1.214 0.607 1.358 0.768" stroke="hsl(0.0,100%,35%)" stroke-width="0.00089"></path>
<path d="M1.689 0.811 Q1.856 0.841 1.950 0.766" stroke="hsl(0.0,100%,35%)" stroke-width="0.00179"></path>
<path d="M1.689 0.811 Q1.955 0.779 1.951 0.643" stroke="hsl(0.0,100%,35%)" stroke-width="0.00358"></path>
<path d="M1.689 0.811 Q1.546 0.848 1.585 0.926" stroke="hsl(0.0,100%,35%)" stroke-width="0.00179"></path>
<path d="M1.689 0.811 Q1.730 0.731 1.582 0.693" stroke="hsl(0.0,100%,35%)" stroke-width="0.00984"></path>
<path d="M1.689 0.811 Q1.995 0.411 1.280 0.173" stroke="hsl(0.0,100%,35%)" stroke-width="0.00089"></path>
<path d="M1.689 0.811 Q2.138 0.453 1.537 0.155" stroke="hsl(0.0,100%,35%)" stroke-width="0.00358"></path>
<path d="M1.689 0.811 Q2.247 0.570 1.898 0.245" stroke="hsl(0.0,100%,35%)" stroke-width="0.00089"></path>
<path d="M1.358 0.768 Q1.938 0.498 1.537 0.155" stroke="hsl(0.0,100%,35%)" stroke-width="0.00268"></path>
<path d="M1.358 0.768 Q1.489 0.856 1.689 0.811" stroke="hsl(0.0,100%,35%)" stroke-width="0.00089"></path>
<path d="M1.358 0.768 Q1.530 0.776 1.582 0.693" stroke="hsl(0.0,100%,35%)" stroke-width="0.00626"></path>
<path d="M1.358 0.768 Q1.845 0.567 1.559 0.286" stroke="hsl(0.0,100%,35%)" stroke-width="0.00089"></path>
<path d="M1.358 0.768 Q1.181 0.744 1.096 0.825" stroke="hsl(0.0,100%,35%)" stroke-width="0.00179"></path>
<path d="M1.358 0.768 Q1.701 0.311 0.883 0.043" stroke="hsl(0.0,100%,35%)" stroke-width="0.00089"></path>
<path d="M1.358 0.768 Q1.793 0.386 1.143 0.090" stroke="hsl(0.0,100%,35%)" stroke-width="0.00089"></path>
<path d="M1.116 0.285 Q1.431 0.304 1.537 0.155" stroke="hsl(0.0,100%,35%)" stroke-width="0.01789"></path>
<path d="M1.116 0.285 Q1.539 0.421 1.898 0.245" stroke="hsl(0.0,100%,35%)" stroke-width="0.00626"></path>
<path d="M1.116 0.285 Q1.286 0.193 1.143 0.090" stroke="hsl(0.0,100%,35%)" stroke-width="0.00089"></path>
<path d="M1.909 0.160 Q1.836 0.200 1.898 0.245" stroke="hsl(0.0,100%,35%)" stroke-width="0.00626"></path>
<path d="M1.909 0.160 Q1.278 0.442 1.689 0.811" stroke="hsl(0.0,100%,35%)" stroke-width="0.00179"></path>
<path d="M1.909 0.160 Q1.727 0.083 1.537 0.155" stroke="hsl(0.0,100%,35%)" stroke-width="0.00268"></path>
<path d="M1.559 0.286 Q1.653 0.216 1.537 0.155" stroke="hsl(0.0,100%,35%)" stroke-width="0.01074"></path>
<path d="M1.559 0.286 Q1.476 0.474 1.825 0.556" stroke="hsl(0.0,100%,35%)" stroke-width="0.00358"></path>
<path d="M1.559 0.286 Q1.060 0.611 1.585 0.926" stroke="hsl(0.0,100%,35%)" stroke-width="0.00089"></path>
<path d="M1.559 0.286 Q1.072 0.487 1.358 0.768" stroke="hsl(0.0,100%,35%)" stroke-width="0.00179"></path>
<path d="M1.559 0.286 Q1.244 0.494 1.582 0.693" stroke="hsl(0.0,100%,35%)" stroke-width="0.00537"></path>
<path d="M1.559 0.286 Q1.761 0.333 1.898 0.245" stroke="hsl(0.0,100%,35%)" stroke-width="0.00179"></path>
<path d="M1.559 0.286 Q1.510 0.174 1.280 0.173" stroke="hsl(0.0,100%,35%)" stroke-width="0.00089"></path>
<path d="M1.300 0.246 Q1.491 0.248 1.537 0.155" stroke="hsl(0.0,100%,35%)" stroke-width="0.00447"></path>
<path d="M1.300 0.246 Q1.600 0.365 1.898 0.245" stroke="hsl(0.0,100%,35%)" stroke-width="0.00716"></path>
<path d="M1.300 0.246 Q1.314 0.506 1.825 0.556" stroke="hsl(0.0,100%,35%)" stroke-width="0.00268"></path>
<path d="M1.143 0.090 Q1.287 0.202 1.537 0.155" stroke="hsl(0.0,100%,35%)" stroke-width="0.01879"></path>
<path d="M1.143 0.090 Q0.990 -0.003 0.775 0.051" stroke="hsl(0.0,100%,35%)" stroke-width="0.00268"></path>
<path d="M1.143 0.090 Q0.346 0.231 0.446 0.650" stroke="hsl(0.0,100%,35%)" stroke-width="0.00179"></path>
<path d="M1.143 0.090 Q0.548 0.109 0.456 0.403" stroke="hsl(0.0,100%,35%)" stroke-width="0.00268"></path>
<path d="M1.143 0.090 Q1.396 0.318 1.898 0.245" stroke="hsl(0.0,100%,35%)" stroke-width="0.00089"></path>
<path d="M1.143 0.090 Q0.707 0.472 1.358 0.768" stroke="hsl(0.0,100%,35%)" stroke-width="0.00447"></path>
<path d="M1.143 0.090 Q0.767 -0.081 0.351 0.064" stroke="hsl(0.0,100%,35%)" stroke-width="0.00089"></path>
<path d="M1.143 0.090 Q0.879 0.479 1.582 0.693" stroke="hsl(0.0,100%,35%)" stroke-width="0.00089"></path>
<path d="M1.143 0.090 Q1.194 0.271 1.559 0.286" stroke="hsl(0.0,100%,35%)" stroke-width="0.00179"></path>
<path d="M1.143 0.090 Q1.051 0.014 0.883 0.043" stroke="hsl(0.0,100%,35%)" stroke-width="0.00089"></path>
<path d="M1.143 0.090 Q1.183 -0.042 0.935 -0.091" stroke="hsl(0.0,100%,35%)" stroke-width="0.00179"></path>
<path d="M1.950 0.766 Q1.783 0.736 1.689 0.811" stroke="hsl(0.0,100%,35%)" stroke-width="0.00984"></path>
<path d="M1.950 0.766 Q2.232 0.378 1.537 0.155" stroke="hsl(0.0,100%,35%)" stroke-width="0.00179"></path>
<path d="M1.950 0.766 Q1.824 0.656 1.582 0.693" stroke="hsl(0.0,100%,35%)" stroke-width="0.00179"></path>
<path d="M1.951 0.643 Q1.685 0.675 1.689 0.811" stroke="hsl(0.0,100%,35%)" stroke-width="0.00447"></path>
<path d="M1.951 0.643 Q1.726 0.594 1.582 0.693" stroke="hsl(0.0,100%,35%)" stroke-width="0.00089"></path>
<path d="M1.951 0.643 Q1.554 0.587 1.358 0.768" stroke="hsl(0.0,100%,35%)" stroke-width="0.00089"></path>
<path d="M1.585 0.926 Q1.729 0.889 1.689 0.811" stroke="hsl(0.0,100%,35%)" stroke-width="0.00268"></path>
<path d="M1.585 0.926 Q2.084 0.601 1.559 0.286" stroke="hsl(0.0,100%,35%)" stroke-width="0.00179"></path>
<path d="M1.280 0.173 Q1.423 0.216 1.537 0.155" stroke="hsl(0.0,100%,35%)" stroke-width="0.00537"></path>
<path d="M1.280 0.173 Q1.532 0.333 1.898 0.245" stroke="hsl(0.0,100%,35%)" stroke-width="0.00179"></path>
<path d="M1.280 0.173 Q0.974 0.574 1.689 0.811" stroke="hsl(0.0,100%,35%)" stroke-width="0.00179"></path>
<path d="M1.280 0.173 Q1.330 0.285 1.559 0.286" stroke="hsl(0.0,100%,35%)" stroke-width="0.00089"></path>
<path d="M0.721 0.709 Q0.992 0.866 1.358 0.768" stroke="hsl(0.0,100%,35%)" stroke-width="0.00089"></path>
<path d="M0.721 0.709 Q0.665 0.523 0.291 0.510" stroke="hsl(0.0,100%,35%)" stroke-width="0.00089"></path>
<path d="M0.721 0.709 Q1.572 0.595 1.537 0.155" stroke="hsl(0.0,100%,35%)" stroke-width="0.00089"></path>
<path d="M0.721 0.709 Q0.833 0.503 0.456 0.403" stroke="hsl(0.0,100%,35%)" stroke-width="0.00089"></path>
<path d="M0.291 0.510 Q0.458 0.489 0.456 0.403" stroke="hsl(0.0,100%,35%)" stroke-width="0.00537"></path>
<path d="M0.291 0.510 Q1.053 0.470 1.143 0.090" stroke="hsl(0.0,100%,35%)" stroke-width="0.00626"></path>
<path d="M0.291 0.510 Q0.295 0.395 0.072 0.368" stroke="hsl(0.0,100%,35%)" stroke-width="0.00089"></path>
<path d="M0.446 0.650 Q0.336 0.727 0.462 0.797" stroke="hsl(0.0,100%,35%)" stroke-width="0.00179"></path>
<path d="M0.446 0.650 Q0.648 0.529 0.456 0.403" stroke="hsl(0.0,100%,35%)" stroke-width="0.00805"></path>
<path d="M0.446 0.650 Q1.242 0.509 1.143 0.090" stroke="hsl(0.0,100%,35%)" stroke-width="0.00895"></path>
<path d="M0.446 0.650 Q1.387 0.621 1.537 0.155" stroke="hsl(0.0,100%,35%)" stroke-width="0.00984"></path>
<path d="M0.446 0.650 Q0.807 0.892 1.358 0.768" stroke="hsl(0.0,100%,35%)" stroke-width="0.00089"></path>
<path d="M0.446 0.650 Q0.481 0.549 0.291 0.510" stroke="hsl(0.0,100%,35%)" stroke-width="0.00089"></path>
<path d="M0.446 0.650 Q0.323 0.585 0.168 0.630" stroke="hsl(0.0,100%,35%)" stroke-width="0.00089"></path>
<path d="M1.670 0.425 Q1.819 0.264 1.537 0.155" stroke="hsl(0.0,100%,35%)" stroke-width="0.00626"></path>
<path d="M1.670 0.425 Q1.928 0.380 1.898 0.245" stroke="hsl(0.0,100%,35%)" stroke-width="0.00268"></path>
<path d="M1.670 0.425 Q1.674 0.152 1.143 0.090" stroke="hsl(0.0,100%,35%)" stroke-width="0.00089"></path>
<path d="M0.902 0.313 Q1.346 0.361 1.537 0.155" stroke="hsl(0.0,100%,35%)" stroke-width="0.00089"></path>
<path d="M0.902 0.313 Q1.032 0.342 1.116 0.285" stroke="hsl(0.0,100%,35%)" stroke-width="0.00089"></path>
<path d="M1.135 0.390 Q1.379 0.241 1.143 0.090" stroke="hsl(0.0,100%,35%)" stroke-width="0.00179"></path>
<path d="M1.135 0.390 Q1.119 0.487 1.305 0.516" stroke="hsl(0.0,100%,35%)" stroke-width="0.00089"></path>
<path d="M1.135 0.390 Q1.524 0.353 1.537 0.155" stroke="hsl(0.0,100%,35%)" stroke-width="0.00179"></path>
<path d="M0.698 0.489 Q0.645 0.398 0.456 0.403" stroke="hsl(0.0,100%,35%)" stroke-width="0.00179"></path>
<path d="M0.698 0.489 Q1.240 0.378 1.143 0.090" stroke="hsl(0.0,100%,35%)" stroke-width="0.00089"></path>
<path d="M0.698 0.489 Q1.385 0.490 1.537 0.155" stroke="hsl(0.0,100%,35%)" stroke-width="0.00089"></path>
<path d="M0.960 0.493 Q0.865 0.544 0.942 0.601" stroke="hsl(0.0,100%,35%)" stroke-width="0.00179"></path>
<path d="M0.960 0.493 Q1.519 0.440 1.537 0.155" stroke="hsl(0.0,100%,35%)" stroke-width="0.00447"></path>
<path d="M0.960 0.493 Q1.006 0.578 1.181 0.574" stroke="hsl(0.0,100%,35%)" stroke-width="0.00089"></path>
<path d="M0.960 0.493 Q1.374 0.328 1.143 0.090" stroke="hsl(0.0,100%,35%)" stroke-width="0.00268"></path>
<path d="M0.960 0.493 Q1.111 0.718 1.582 0.693" stroke="hsl(0.0,100%,35%)" stroke-width="0.00089"></path>
<path d="M1.181 0.574 Q1.601 0.506 1.559 0.286" stroke="hsl(0.0,100%,35%)" stroke-width="0.00089"></path>
<path d="M1.181 0.574 Q1.114 0.707 1.358 0.768" stroke="hsl(0.0,100%,35%)" stroke-width="0.00089"></path>
<path d="M1.181 0.574 Q1.695 0.436 1.537 0.155" stroke="hsl(0.0,100%,35%)" stroke-width="0.00089"></path>
<path d="M1.345 0.378 Q1.039 0.576 1.358 0.768" stroke="hsl(0.0,100%,35%)" stroke-width="0.00089"></path>
<path d="M1.345 0.378 Q1.619 0.305 1.537 0.155" stroke="hsl(0.0,100%,35%)" stroke-width="0.00089"></path>
<path d="M1.345 0.378 Q1.170 0.663 1.689 0.811" stroke="hsl(0.0,100%,35%)" stroke-width="0.00089"></path>
<path d="M1.345 0.378 Q1.525 0.375 1.559 0.286" stroke="hsl(0.0,100%,35%)" stroke-width="0.00179"></path>
</g>
<text x="1.825" y="0.537" font-size="0.039223" fill="hsl(0.0,100%,20%)">abdolrashidi</text>
<text x="1.537" y="0.104" font-size="0.103775" fill="hsl(0.0,100%,20%)">syoussefi</text>
<text x="1.898" y="0.206" font-size="0.077889" fill="hsl(0.0,100%,20%)">cclao</text>
<text x="1.582" y="0.661" font-size="0.064877" fill="hsl(0.0,100%,20%)">romanl</text>
<text x="1.497" y="0.496" font-size="0.010775" fill="hsl(0.0,100%,20%)">banisingh</text>
<text x="1.689" y="0.787" font-size="0.049672" fill="hsl(0.0,100%,20%)">cnorthrop</text>
<text x="1.358" y="0.751" font-size="0.034498" fill="hsl(0.0,100%,20%)">ynovikov</text>
<text x="1.116" y="0.269" font-size="0.031416" fill="hsl(0.0,100%,20%)">m.maiya</text>
<text x="1.909" y="0.145" font-size="0.030950" fill="hsl(0.0,100%,20%)">chrisforbes</text>
<text x="1.559" y="0.262" font-size="0.047887" fill="hsl(0.0,100%,20%)">yuxinhu</text>
<text x="1.300" y="0.234" font-size="0.023485" fill="hsl(0.0,100%,20%)">hailinzhang</text>
<text x="1.143" y="0.061" font-size="0.057018" fill="hsl(0.0,100%,20%)">geofflang</text>
<text x="1.950" y="0.755" font-size="0.022214" fill="hsl(0.0,100%,20%)">mark</text>
<text x="1.951" y="0.634" font-size="0.017869" fill="hsl(0.0,100%,20%)">mikes</text>
<text x="1.585" y="0.918" font-size="0.015239" fill="hsl(0.0,100%,20%)">lpy</text>
<text x="1.280" y="0.164" font-size="0.019426" fill="hsl(0.0,100%,20%)">zzyiwei</text>
<text x="0.721" y="0.703" font-size="0.010775" fill="hsl(0.0,100%,20%)">djg</text>
<text x="0.291" y="0.498" font-size="0.022214" fill="hsl(0.0,100%,20%)">lehoangquyen</text>
<text x="0.456" y="0.391" font-size="0.024690" fill="hsl(0.0,100%,20%)">kbr</text>
<text x="0.775" y="0.046" font-size="0.009332" fill="hsl(0.0,100%,20%)">penghuang</text>
<text x="0.446" y="0.633" font-size="0.033646" fill="hsl(0.0,100%,20%)">lexa.knyazev</text>
<text x="0.351" y="0.061" font-size="0.005388" fill="hsl(0.0,100%,20%)">jamesgk</text>
<text x="0.883" y="0.039" font-size="0.007619" fill="hsl(0.0,100%,20%)">steven</text>
<text x="0.935" y="-0.095" font-size="0.007619" fill="hsl(0.0,100%,20%)">rafael.cintron</text>
<text x="1.670" y="0.415" font-size="0.018664" fill="hsl(0.0,100%,20%)">i.nazarov</text>
<text x="0.902" y="0.309" font-size="0.007619" fill="hsl(0.0,100%,20%)">j.vigil</text>
<text x="1.135" y="0.384" font-size="0.012047" fill="hsl(0.0,100%,20%)">jiawei.shao</text>
<text x="1.305" y="0.513" font-size="0.005388" fill="hsl(0.0,100%,20%)">senorblanco</text>
<text x="0.698" y="0.483" font-size="0.010775" fill="hsl(0.0,100%,20%)">jonahr</text>
<text x="0.072" y="0.365" font-size="0.005388" fill="hsl(0.0,100%,20%)">sunnyps</text>
<text x="0.462" y="0.794" font-size="0.007619" fill="hsl(0.0,100%,20%)">kkinnunen</text>
<text x="0.168" y="0.628" font-size="0.005388" fill="hsl(0.0,100%,20%)">kpiddington</text>
<text x="0.960" y="0.484" font-size="0.018664" fill="hsl(0.0,100%,20%)">liza</text>
<text x="0.942" y="0.598" font-size="0.007619" fill="hsl(0.0,100%,20%)">mpdenton</text>
<text x="1.181" y="0.569" font-size="0.010775" fill="hsl(0.0,100%,20%)">sokcevic</text>
<text x="1.158" y="0.321" font-size="0.005388" fill="hsl(0.0,100%,20%)">zijiehe</text>
<text x="1.345" y="0.371" font-size="0.013197" fill="hsl(0.0,100%,20%)">solti</text>
<text x="1.096" y="0.821" font-size="0.007619" fill="hsl(0.0,100%,20%)">bsheedy</text>
</svg>
