<svg width="4000" height="2000" viewBox="-0.025 -0.025 2.05 1.05" xmlns="http://www.w3.org/2000/svg">
  <style>
    path {
      fill: none;
      stroke-linecap: round;
      stroke-opacity: 0.4;
    }

    text {
      text-anchor: middle;
      alignment-baseline: hanging;
    }
  </style>
  <g opacity="0.4">
<path d="M0.487 0.881 Q1.191 0.663 0.921 0.272" stroke="hsl(0.0,100%,35%)" stroke-width="0.00395"></path>
<path d="M0.487 0.881 Q1.463 0.632 1.191 0.101" stroke="hsl(0.0,100%,35%)" stroke-width="0.00039"></path>
<path d="M0.487 0.881 Q0.589 0.939 0.725 0.902" stroke="hsl(0.0,100%,35%)" stroke-width="0.00158"></path>
<path d="M0.921 0.272 Q1.002 0.387 1.244 0.372" stroke="hsl(0.0,100%,35%)" stroke-width="0.01263"></path>
<path d="M0.921 0.272 Q0.831 0.172 0.616 0.194" stroke="hsl(0.0,100%,35%)" stroke-width="0.01737"></path>
<path d="M0.921 0.272 Q0.735 0.370 0.885 0.482" stroke="hsl(0.0,100%,35%)" stroke-width="0.02013"></path>
<path d="M0.921 0.272 Q0.768 0.456 1.093 0.571" stroke="hsl(0.0,100%,35%)" stroke-width="0.00947"></path>
<path d="M0.921 0.272 Q0.889 0.521 1.366 0.591" stroke="hsl(0.0,100%,35%)" stroke-width="0.00750"></path>
<path d="M0.921 0.272 Q0.642 0.202 0.443 0.322" stroke="hsl(0.0,100%,35%)" stroke-width="0.01974"></path>
<path d="M0.921 0.272 Q0.796 0.226 0.679 0.277" stroke="hsl(0.0,100%,35%)" stroke-width="0.00039"></path>
<path d="M0.921 0.272 Q1.102 0.248 1.095 0.155" stroke="hsl(0.0,100%,35%)" stroke-width="0.02092"></path>
<path d="M0.921 0.272 Q1.193 0.241 1.191 0.101" stroke="hsl(0.0,100%,35%)" stroke-width="0.02053"></path>
<path d="M0.921 0.272 Q0.988 0.101 0.669 0.031" stroke="hsl(0.0,100%,35%)" stroke-width="0.00039"></path>
<path d="M0.921 0.272 Q0.475 0.415 0.656 0.663" stroke="hsl(0.0,100%,35%)" stroke-width="0.00079"></path>
<path d="M0.921 0.272 Q1.043 0.347 1.216 0.304" stroke="hsl(0.0,100%,35%)" stroke-width="0.00039"></path>
<path d="M0.921 0.272 Q1.352 0.455 1.804 0.285" stroke="hsl(0.0,100%,35%)" stroke-width="0.00158"></path>
<path d="M0.921 0.272 Q0.983 0.486 1.413 0.503" stroke="hsl(0.0,100%,35%)" stroke-width="0.00237"></path>
<path d="M0.921 0.272 Q0.851 0.114 0.527 0.114" stroke="hsl(0.0,100%,35%)" stroke-width="0.00039"></path>
<path d="M0.921 0.272 Q0.798 0.341 0.905 0.417" stroke="hsl(0.0,100%,35%)" stroke-width="0.00039"></path>
<path d="M0.921 0.272 Q0.988 0.162 0.787 0.106" stroke="hsl(0.0,100%,35%)" stroke-width="0.00079"></path>
<path d="M0.921 0.272 Q1.170 0.247 1.176 0.120" stroke="hsl(0.0,100%,35%)" stroke-width="0.00039"></path>
<path d="M0.921 0.272 Q0.742 0.302 0.762 0.396" stroke="hsl(0.0,100%,35%)" stroke-width="0.00039"></path>
<path d="M1.191 0.101 Q0.734 0.230 0.885 0.482" stroke="hsl(0.0,100%,35%)" stroke-width="0.01263"></path>
<path d="M1.191 0.101 Q0.919 0.133 0.921 0.272" stroke="hsl(0.0,100%,35%)" stroke-width="0.01461"></path>
<path d="M1.191 0.101 Q0.282 0.259 0.389 0.737" stroke="hsl(0.0,100%,35%)" stroke-width="0.00039"></path>
<path d="M1.191 0.101 Q0.435 0.027 0.123 0.379" stroke="hsl(0.0,100%,35%)" stroke-width="0.00039"></path>
<path d="M1.191 0.101 Q1.163 0.328 1.599 0.392" stroke="hsl(0.0,100%,35%)" stroke-width="0.00079"></path>
<path d="M1.191 0.101 Q0.887 0.381 1.366 0.591" stroke="hsl(0.0,100%,35%)" stroke-width="0.00118"></path>
<path d="M1.191 0.101 Q1.101 0.109 1.095 0.155" stroke="hsl(0.0,100%,35%)" stroke-width="0.00118"></path>
<path d="M1.191 0.101 Q0.474 0.275 0.656 0.663" stroke="hsl(0.0,100%,35%)" stroke-width="0.00158"></path>
<path d="M1.191 0.101 Q0.830 0.033 0.616 0.194" stroke="hsl(0.0,100%,35%)" stroke-width="0.00197"></path>
<path d="M1.191 0.101 Q0.986 0.023 0.787 0.106" stroke="hsl(0.0,100%,35%)" stroke-width="0.00039"></path>
<path d="M1.191 0.101 Q0.981 0.346 1.413 0.503" stroke="hsl(0.0,100%,35%)" stroke-width="0.00079"></path>
<path d="M1.191 0.101 Q0.640 0.062 0.443 0.322" stroke="hsl(0.0,100%,35%)" stroke-width="0.00908"></path>
<path d="M1.191 0.101 Q1.351 0.316 1.804 0.285" stroke="hsl(0.0,100%,35%)" stroke-width="0.00079"></path>
<path d="M1.191 0.101 Q1.080 0.057 0.969 0.102" stroke="hsl(0.0,100%,35%)" stroke-width="0.00118"></path>
<path d="M1.191 0.101 Q0.795 0.087 0.679 0.277" stroke="hsl(0.0,100%,35%)" stroke-width="0.00039"></path>
<path d="M1.191 0.101 Q0.767 0.317 1.093 0.571" stroke="hsl(0.0,100%,35%)" stroke-width="0.00039"></path>
<path d="M1.191 0.101 Q0.423 0.218 0.482 0.618" stroke="hsl(0.0,100%,35%)" stroke-width="0.00039"></path>
<path d="M1.191 0.101 Q1.161 0.034 1.023 0.034" stroke="hsl(0.0,100%,35%)" stroke-width="0.00039"></path>
<path d="M0.090 0.506 Q0.413 0.484 0.443 0.322" stroke="hsl(0.0,100%,35%)" stroke-width="0.00079"></path>
<path d="M0.090 0.506 Q0.208 0.449 0.123 0.379" stroke="hsl(0.0,100%,35%)" stroke-width="0.00079"></path>
<path d="M0.090 0.506 Q0.964 0.524 1.191 0.101" stroke="hsl(0.0,100%,35%)" stroke-width="0.00039"></path>
<path d="M0.443 0.322 Q0.722 0.393 0.921 0.272" stroke="hsl(0.0,100%,35%)" stroke-width="0.05093"></path>
<path d="M0.443 0.322 Q0.993 0.362 1.191 0.101" stroke="hsl(0.0,100%,35%)" stroke-width="0.01066"></path>
<path d="M0.443 0.322 Q0.632 0.293 0.616 0.194" stroke="hsl(0.0,100%,35%)" stroke-width="0.01421"></path>
<path d="M0.443 0.322 Q0.569 0.577 1.093 0.571" stroke="hsl(0.0,100%,35%)" stroke-width="0.00750"></path>
<path d="M0.443 0.322 Q0.689 0.641 1.366 0.591" stroke="hsl(0.0,100%,35%)" stroke-width="0.00316"></path>
<path d="M0.443 0.322 Q0.783 0.606 1.413 0.503" stroke="hsl(0.0,100%,35%)" stroke-width="0.00395"></path>
<path d="M0.443 0.322 Q0.803 0.508 1.244 0.372" stroke="hsl(0.0,100%,35%)" stroke-width="0.00711"></path>
<path d="M0.443 0.322 Q0.536 0.490 0.885 0.482" stroke="hsl(0.0,100%,35%)" stroke-width="0.00908"></path>
<path d="M0.443 0.322 Q1.011 0.428 1.342 0.174" stroke="hsl(0.0,100%,35%)" stroke-width="0.00158"></path>
<path d="M0.443 0.322 Q0.903 0.369 1.095 0.155" stroke="hsl(0.0,100%,35%)" stroke-width="0.01184"></path>
<path d="M0.443 0.322 Q0.226 0.478 0.482 0.618" stroke="hsl(0.0,100%,35%)" stroke-width="0.00197"></path>
<path d="M0.443 0.322 Q0.826 0.438 1.136 0.276" stroke="hsl(0.0,100%,35%)" stroke-width="0.00039"></path>
<path d="M0.443 0.322 Q0.597 0.347 0.679 0.277" stroke="hsl(0.0,100%,35%)" stroke-width="0.00079"></path>
<path d="M0.443 0.322 Q0.788 0.283 0.787 0.106" stroke="hsl(0.0,100%,35%)" stroke-width="0.00039"></path>
<path d="M0.443 0.322 Q0.402 0.395 0.535 0.431" stroke="hsl(0.0,100%,35%)" stroke-width="0.00039"></path>
<path d="M0.443 0.322 Q0.912 0.553 1.465 0.374" stroke="hsl(0.0,100%,35%)" stroke-width="0.00039"></path>
<path d="M0.443 0.322 Q0.431 0.488 0.753 0.531" stroke="hsl(0.0,100%,35%)" stroke-width="0.00079"></path>
<path d="M0.443 0.322 Q0.242 0.347 0.247 0.450" stroke="hsl(0.0,100%,35%)" stroke-width="0.00039"></path>
<path d="M0.443 0.322 Q0.457 0.385 0.583 0.392" stroke="hsl(0.0,100%,35%)" stroke-width="0.00039"></path>
<path d="M1.136 0.276 Q1.032 0.231 0.921 0.272" stroke="hsl(0.0,100%,35%)" stroke-width="0.00395"></path>
<path d="M1.136 0.276 Q0.640 0.436 0.843 0.713" stroke="hsl(0.0,100%,35%)" stroke-width="0.00039"></path>
<path d="M1.136 0.276 Q0.879 0.415 1.093 0.571" stroke="hsl(0.0,100%,35%)" stroke-width="0.00039"></path>
<path d="M1.136 0.276 Q1.113 0.346 1.244 0.372" stroke="hsl(0.0,100%,35%)" stroke-width="0.00079"></path>
<path d="M1.136 0.276 Q0.752 0.160 0.443 0.322" stroke="hsl(0.0,100%,35%)" stroke-width="0.00197"></path>
<path d="M1.136 0.276 Q1.320 0.266 1.342 0.174" stroke="hsl(0.0,100%,35%)" stroke-width="0.00039"></path>
<path d="M0.843 0.713 Q1.234 0.508 0.921 0.272" stroke="hsl(0.0,100%,35%)" stroke-width="0.00039"></path>
<path d="M0.843 0.713 Q1.144 0.408 0.616 0.194" stroke="hsl(0.0,100%,35%)" stroke-width="0.00039"></path>
<path d="M0.843 0.713 Q1.082 0.692 1.093 0.571" stroke="hsl(0.0,100%,35%)" stroke-width="0.00039"></path>
<path d="M1.093 0.571 Q0.855 0.592 0.843 0.713" stroke="hsl(0.0,100%,35%)" stroke-width="0.00039"></path>
<path d="M1.093 0.571 Q1.246 0.387 0.921 0.272" stroke="hsl(0.0,100%,35%)" stroke-width="0.01579"></path>
<path d="M1.093 0.571 Q1.214 0.635 1.366 0.591" stroke="hsl(0.0,100%,35%)" stroke-width="0.00553"></path>
<path d="M1.093 0.571 Q1.156 0.287 0.616 0.194" stroke="hsl(0.0,100%,35%)" stroke-width="0.00197"></path>
<path d="M1.093 0.571 Q0.967 0.316 0.443 0.322" stroke="hsl(0.0,100%,35%)" stroke-width="0.00553"></path>
<path d="M1.093 0.571 Q1.060 0.485 0.885 0.482" stroke="hsl(0.0,100%,35%)" stroke-width="0.00079"></path>
<path d="M1.093 0.571 Q1.327 0.502 1.244 0.372" stroke="hsl(0.0,100%,35%)" stroke-width="0.00039"></path>
<path d="M1.093 0.571 Q1.518 0.356 1.191 0.101" stroke="hsl(0.0,100%,35%)" stroke-width="0.00079"></path>
<path d="M1.093 0.571 Q1.313 0.277 0.787 0.106" stroke="hsl(0.0,100%,35%)" stroke-width="0.00039"></path>
<path d="M1.093 0.571 Q1.677 0.570 1.804 0.285" stroke="hsl(0.0,100%,35%)" stroke-width="0.00039"></path>
<path d="M1.093 0.571 Q1.427 0.363 1.095 0.155" stroke="hsl(0.0,100%,35%)" stroke-width="0.00118"></path>
<path d="M1.093 0.571 Q0.979 0.631 1.071 0.700" stroke="hsl(0.0,100%,35%)" stroke-width="0.00039"></path>
<path d="M1.244 0.372 Q1.130 0.506 1.366 0.591" stroke="hsl(0.0,100%,35%)" stroke-width="0.00276"></path>
<path d="M1.244 0.372 Q1.163 0.258 0.921 0.272" stroke="hsl(0.0,100%,35%)" stroke-width="0.01105"></path>
<path d="M1.244 0.372 Q1.344 0.234 1.095 0.155" stroke="hsl(0.0,100%,35%)" stroke-width="0.00118"></path>
<path d="M1.244 0.372 Q0.884 0.187 0.443 0.322" stroke="hsl(0.0,100%,35%)" stroke-width="0.00158"></path>
<path d="M1.244 0.372 Q1.224 0.471 1.413 0.503" stroke="hsl(0.0,100%,35%)" stroke-width="0.00079"></path>
<path d="M1.244 0.372 Q1.010 0.442 1.093 0.571" stroke="hsl(0.0,100%,35%)" stroke-width="0.00039"></path>
<path d="M1.244 0.372 Q1.073 0.158 0.616 0.194" stroke="hsl(0.0,100%,35%)" stroke-width="0.00197"></path>
<path d="M1.244 0.372 Q0.977 0.355 0.885 0.482" stroke="hsl(0.0,100%,35%)" stroke-width="0.00039"></path>
<path d="M1.244 0.372 Q1.039 0.327 0.905 0.417" stroke="hsl(0.0,100%,35%)" stroke-width="0.00079"></path>
<path d="M1.244 0.372 Q1.434 0.226 1.191 0.101" stroke="hsl(0.0,100%,35%)" stroke-width="0.00079"></path>
<path d="M1.342 0.174 Q1.053 0.139 0.921 0.272" stroke="hsl(0.0,100%,35%)" stroke-width="0.00711"></path>
<path d="M1.342 0.174 Q0.774 0.068 0.443 0.322" stroke="hsl(0.0,100%,35%)" stroke-width="0.00355"></path>
<path d="M1.342 0.174 Q1.021 0.387 1.366 0.591" stroke="hsl(0.0,100%,35%)" stroke-width="0.00039"></path>
<path d="M1.342 0.174 Q1.135 0.254 1.244 0.372" stroke="hsl(0.0,100%,35%)" stroke-width="0.00039"></path>
<path d="M1.342 0.174 Q0.901 0.323 1.093 0.571" stroke="hsl(0.0,100%,35%)" stroke-width="0.00039"></path>
<path d="M1.342 0.174 Q1.325 0.108 1.191 0.101" stroke="hsl(0.0,100%,35%)" stroke-width="0.00237"></path>
<path d="M1.324 0.279 Q1.128 0.195 0.921 0.272" stroke="hsl(0.0,100%,35%)" stroke-width="0.00079"></path>
<path d="M1.324 0.279 Q1.309 0.171 1.095 0.155" stroke="hsl(0.0,100%,35%)" stroke-width="0.00039"></path>
<path d="M1.324 0.279 Q0.942 0.293 0.885 0.482" stroke="hsl(0.0,100%,35%)" stroke-width="0.00039"></path>
<path d="M1.095 0.155 Q0.914 0.179 0.921 0.272" stroke="hsl(0.0,100%,35%)" stroke-width="0.00987"></path>
<path d="M1.095 0.155 Q0.635 0.108 0.443 0.322" stroke="hsl(0.0,100%,35%)" stroke-width="0.00316"></path>
<path d="M1.095 0.155 Q1.186 0.147 1.191 0.101" stroke="hsl(0.0,100%,35%)" stroke-width="0.00237"></path>
<path d="M1.095 0.155 Q0.762 0.362 1.093 0.571" stroke="hsl(0.0,100%,35%)" stroke-width="0.00039"></path>
<path d="M0.885 0.482 Q1.071 0.384 0.921 0.272" stroke="hsl(0.0,100%,35%)" stroke-width="0.01619"></path>
<path d="M0.885 0.482 Q1.342 0.353 1.191 0.101" stroke="hsl(0.0,100%,35%)" stroke-width="0.01698"></path>
<path d="M0.885 0.482 Q0.791 0.314 0.443 0.322" stroke="hsl(0.0,100%,35%)" stroke-width="0.00553"></path>
<path d="M0.885 0.482 Q0.625 0.527 0.656 0.663" stroke="hsl(0.0,100%,35%)" stroke-width="0.00079"></path>
<path d="M0.885 0.482 Q1.502 0.567 1.804 0.285" stroke="hsl(0.0,100%,35%)" stroke-width="0.00039"></path>
<path d="M0.885 0.482 Q1.252 0.360 1.095 0.155" stroke="hsl(0.0,100%,35%)" stroke-width="0.00197"></path>
<path d="M0.885 0.482 Q1.312 0.286 1.023 0.034" stroke="hsl(0.0,100%,35%)" stroke-width="0.00039"></path>
<path d="M0.616 0.194 Q0.787 0.409 1.244 0.372" stroke="hsl(0.0,100%,35%)" stroke-width="0.00276"></path>
<path d="M0.616 0.194 Q0.706 0.294 0.921 0.272" stroke="hsl(0.0,100%,35%)" stroke-width="0.01382"></path>
<path d="M0.616 0.194 Q0.427 0.223 0.443 0.322" stroke="hsl(0.0,100%,35%)" stroke-width="0.00592"></path>
<path d="M0.616 0.194 Q0.674 0.542 1.366 0.591" stroke="hsl(0.0,100%,35%)" stroke-width="0.00671"></path>
<path d="M0.616 0.194 Q0.553 0.478 1.093 0.571" stroke="hsl(0.0,100%,35%)" stroke-width="0.00237"></path>
<path d="M0.616 0.194 Q0.978 0.263 1.191 0.101" stroke="hsl(0.0,100%,35%)" stroke-width="0.00513"></path>
<path d="M0.616 0.194 Q0.887 0.270 1.095 0.155" stroke="hsl(0.0,100%,35%)" stroke-width="0.00197"></path>
<path d="M0.616 0.194 Q0.768 0.508 1.413 0.503" stroke="hsl(0.0,100%,35%)" stroke-width="0.00039"></path>
<path d="M0.969 0.102 Q0.529 0.107 0.443 0.322" stroke="hsl(0.0,100%,35%)" stroke-width="0.00158"></path>
<path d="M0.969 0.102 Q1.080 0.146 1.191 0.101" stroke="hsl(0.0,100%,35%)" stroke-width="0.00790"></path>
<path d="M0.969 0.102 Q0.808 0.177 0.921 0.272" stroke="hsl(0.0,100%,35%)" stroke-width="0.00711"></path>
<path d="M0.969 0.102 Q0.623 0.275 0.885 0.482" stroke="hsl(0.0,100%,35%)" stroke-width="0.00118"></path>
<path d="M1.366 0.591 Q1.246 0.526 1.093 0.571" stroke="hsl(0.0,100%,35%)" stroke-width="0.00395"></path>
<path d="M1.366 0.591 Q1.670 0.311 1.191 0.101" stroke="hsl(0.0,100%,35%)" stroke-width="0.00474"></path>
<path d="M1.366 0.591 Q1.398 0.343 0.921 0.272" stroke="hsl(0.0,100%,35%)" stroke-width="0.00947"></path>
<path d="M1.366 0.591 Q1.119 0.272 0.443 0.322" stroke="hsl(0.0,100%,35%)" stroke-width="0.00355"></path>
<path d="M1.366 0.591 Q1.480 0.457 1.244 0.372" stroke="hsl(0.0,100%,35%)" stroke-width="0.00118"></path>
<path d="M1.366 0.591 Q1.309 0.242 0.616 0.194" stroke="hsl(0.0,100%,35%)" stroke-width="0.00079"></path>
<path d="M1.366 0.591 Q1.460 0.556 1.413 0.503" stroke="hsl(0.0,100%,35%)" stroke-width="0.00118"></path>
<path d="M1.366 0.591 Q1.642 0.538 1.599 0.392" stroke="hsl(0.0,100%,35%)" stroke-width="0.00039"></path>
<path d="M1.413 0.503 Q1.351 0.289 0.921 0.272" stroke="hsl(0.0,100%,35%)" stroke-width="0.00711"></path>
<path d="M1.413 0.503 Q1.072 0.218 0.443 0.322" stroke="hsl(0.0,100%,35%)" stroke-width="0.00395"></path>
<path d="M1.413 0.503 Q1.319 0.537 1.366 0.591" stroke="hsl(0.0,100%,35%)" stroke-width="0.00632"></path>
<path d="M1.413 0.503 Q1.432 0.404 1.244 0.372" stroke="hsl(0.0,100%,35%)" stroke-width="0.00355"></path>
<path d="M1.413 0.503 Q1.198 0.473 1.093 0.571" stroke="hsl(0.0,100%,35%)" stroke-width="0.00079"></path>
<path d="M1.413 0.503 Q1.623 0.258 1.191 0.101" stroke="hsl(0.0,100%,35%)" stroke-width="0.00197"></path>
<path d="M1.413 0.503 Q1.640 0.324 1.342 0.174" stroke="hsl(0.0,100%,35%)" stroke-width="0.00039"></path>
<path d="M1.413 0.503 Q1.532 0.265 1.095 0.155" stroke="hsl(0.0,100%,35%)" stroke-width="0.00118"></path>
<path d="M1.599 0.392 Q1.787 0.379 1.804 0.285" stroke="hsl(0.0,100%,35%)" stroke-width="0.00276"></path>
<path d="M1.599 0.392 Q1.628 0.165 1.191 0.101" stroke="hsl(0.0,100%,35%)" stroke-width="0.00434"></path>
<path d="M1.599 0.392 Q1.170 0.294 0.885 0.482" stroke="hsl(0.0,100%,35%)" stroke-width="0.00079"></path>
<path d="M1.599 0.392 Q1.356 0.196 0.921 0.272" stroke="hsl(0.0,100%,35%)" stroke-width="0.00513"></path>
<path d="M1.599 0.392 Q1.077 0.126 0.443 0.322" stroke="hsl(0.0,100%,35%)" stroke-width="0.00079"></path>
<path d="M0.656 0.663 Q0.915 0.618 0.885 0.482" stroke="hsl(0.0,100%,35%)" stroke-width="0.00039"></path>
<path d="M0.656 0.663 Q1.373 0.490 1.191 0.101" stroke="hsl(0.0,100%,35%)" stroke-width="0.00079"></path>
<path d="M0.656 0.663 Q1.101 0.521 0.921 0.272" stroke="hsl(0.0,100%,35%)" stroke-width="0.00079"></path>
<path d="M1.440 0.590 Q1.434 0.327 0.921 0.272" stroke="hsl(0.0,100%,35%)" stroke-width="0.00039"></path>
<path d="M1.440 0.590 Q1.496 0.541 1.413 0.503" stroke="hsl(0.0,100%,35%)" stroke-width="0.00039"></path>
<path d="M1.440 0.590 Q1.706 0.296 1.191 0.101" stroke="hsl(0.0,100%,35%)" stroke-width="0.00039"></path>
<path d="M1.176 0.120 Q0.648 0.074 0.443 0.322" stroke="hsl(0.0,100%,35%)" stroke-width="0.00434"></path>
<path d="M1.176 0.120 Q0.895 0.393 1.366 0.591" stroke="hsl(0.0,100%,35%)" stroke-width="0.00276"></path>
<path d="M1.176 0.120 Q0.927 0.145 0.921 0.272" stroke="hsl(0.0,100%,35%)" stroke-width="0.00671"></path>
<path d="M1.176 0.120 Q0.837 0.045 0.616 0.194" stroke="hsl(0.0,100%,35%)" stroke-width="0.00039"></path>
<path d="M1.176 0.120 Q1.199 0.114 1.191 0.101" stroke="hsl(0.0,100%,35%)" stroke-width="0.00039"></path>
<path d="M0.507 0.494 Q0.891 0.466 0.921 0.272" stroke="hsl(0.0,100%,35%)" stroke-width="0.00079"></path>
<path d="M0.507 0.494 Q0.953 0.679 1.413 0.503" stroke="hsl(0.0,100%,35%)" stroke-width="0.00039"></path>
<path d="M0.507 0.494 Q0.612 0.395 0.443 0.322" stroke="hsl(0.0,100%,35%)" stroke-width="0.00158"></path>
<path d="M1.216 0.304 Q1.094 0.229 0.921 0.272" stroke="hsl(0.0,100%,35%)" stroke-width="0.00395"></path>
<path d="M1.216 0.304 Q0.703 0.434 0.843 0.713" stroke="hsl(0.0,100%,35%)" stroke-width="0.00039"></path>
<path d="M1.216 0.304 Q1.366 0.198 1.191 0.101" stroke="hsl(0.0,100%,35%)" stroke-width="0.00039"></path>
<path d="M1.216 0.304 Q0.815 0.159 0.443 0.322" stroke="hsl(0.0,100%,35%)" stroke-width="0.00079"></path>
<path d="M0.389 0.737 Q1.027 0.611 0.921 0.272" stroke="hsl(0.0,100%,35%)" stroke-width="0.00039"></path>
<path d="M0.389 0.737 Q1.458 0.794 1.804 0.285" stroke="hsl(0.0,100%,35%)" stroke-width="0.00039"></path>
<path d="M0.787 0.106 Q0.721 0.216 0.921 0.272" stroke="hsl(0.0,100%,35%)" stroke-width="0.00237"></path>
<path d="M0.787 0.106 Q0.993 0.184 1.191 0.101" stroke="hsl(0.0,100%,35%)" stroke-width="0.00158"></path>
<path d="M0.787 0.106 Q0.568 0.399 1.093 0.571" stroke="hsl(0.0,100%,35%)" stroke-width="0.00039"></path>
<path d="M1.804 0.285 Q1.644 0.071 1.191 0.101" stroke="hsl(0.0,100%,35%)" stroke-width="0.00158"></path>
<path d="M1.804 0.285 Q1.093 0.031 0.443 0.322" stroke="hsl(0.0,100%,35%)" stroke-width="0.00118"></path>
<path d="M1.804 0.285 Q1.187 0.200 0.885 0.482" stroke="hsl(0.0,100%,35%)" stroke-width="0.00079"></path>
<path d="M1.804 0.285 Q1.372 0.102 0.921 0.272" stroke="hsl(0.0,100%,35%)" stroke-width="0.00158"></path>
<path d="M1.804 0.285 Q1.616 0.297 1.599 0.392" stroke="hsl(0.0,100%,35%)" stroke-width="0.00079"></path>
<path d="M1.804 0.285 Q1.105 0.346 1.071 0.700" stroke="hsl(0.0,100%,35%)" stroke-width="0.00039"></path>
<path d="M0.679 0.277 Q0.803 0.323 0.921 0.272" stroke="hsl(0.0,100%,35%)" stroke-width="0.01382"></path>
<path d="M0.679 0.277 Q0.524 0.252 0.443 0.322" stroke="hsl(0.0,100%,35%)" stroke-width="0.00276"></path>
<path d="M0.679 0.277 Q1.075 0.292 1.191 0.101" stroke="hsl(0.0,100%,35%)" stroke-width="0.00316"></path>
<path d="M0.679 0.277 Q0.885 0.438 1.244 0.372" stroke="hsl(0.0,100%,35%)" stroke-width="0.00039"></path>
<path d="M0.482 0.618 Q0.978 0.533 0.921 0.272" stroke="hsl(0.0,100%,35%)" stroke-width="0.00434"></path>
<path d="M0.482 0.618 Q1.250 0.502 1.191 0.101" stroke="hsl(0.0,100%,35%)" stroke-width="0.00276"></path>
<path d="M0.482 0.618 Q0.533 0.675 0.656 0.663" stroke="hsl(0.0,100%,35%)" stroke-width="0.00039"></path>
<path d="M1.023 0.034 Q1.025 0.328 1.599 0.392" stroke="hsl(0.0,100%,35%)" stroke-width="0.00039"></path>
<path d="M1.023 0.034 Q1.054 0.102 1.191 0.101" stroke="hsl(0.0,100%,35%)" stroke-width="0.00395"></path>
<path d="M1.023 0.034 Q1.213 0.316 1.804 0.285" stroke="hsl(0.0,100%,35%)" stroke-width="0.00118"></path>
<path d="M1.023 0.034 Q0.782 0.133 0.921 0.272" stroke="hsl(0.0,100%,35%)" stroke-width="0.00355"></path>
<path d="M1.023 0.034 Q0.596 0.230 0.885 0.482" stroke="hsl(0.0,100%,35%)" stroke-width="0.00039"></path>
<path d="M0.247 0.450 Q1.016 0.531 1.342 0.174" stroke="hsl(0.0,100%,35%)" stroke-width="0.00079"></path>
<path d="M0.247 0.450 Q0.448 0.425 0.443 0.322" stroke="hsl(0.0,100%,35%)" stroke-width="0.00079"></path>
<path d="M0.247 0.450 Q0.727 0.496 0.921 0.272" stroke="hsl(0.0,100%,35%)" stroke-width="0.00158"></path>
<path d="M0.247 0.450 Q0.808 0.611 1.244 0.372" stroke="hsl(0.0,100%,35%)" stroke-width="0.00039"></path>
<path d="M0.247 0.450 Q0.998 0.465 1.191 0.101" stroke="hsl(0.0,100%,35%)" stroke-width="0.00079"></path>
<path d="M0.699 0.117 Q0.686 0.239 0.921 0.272" stroke="hsl(0.0,100%,35%)" stroke-width="0.00197"></path>
<path d="M0.699 0.117 Q0.654 0.487 1.366 0.591" stroke="hsl(0.0,100%,35%)" stroke-width="0.00039"></path>
<path d="M0.699 0.117 Q0.975 0.274 1.342 0.174" stroke="hsl(0.0,100%,35%)" stroke-width="0.00079"></path>
<path d="M0.699 0.117 Q0.958 0.208 1.191 0.101" stroke="hsl(0.0,100%,35%)" stroke-width="0.00079"></path>
<path d="M1.473 0.287 Q1.022 0.267 0.885 0.482" stroke="hsl(0.0,100%,35%)" stroke-width="0.00039"></path>
<path d="M1.473 0.287 Q1.480 0.138 1.191 0.101" stroke="hsl(0.0,100%,35%)" stroke-width="0.00197"></path>
<path d="M1.473 0.287 Q1.208 0.169 0.921 0.272" stroke="hsl(0.0,100%,35%)" stroke-width="0.00276"></path>
<path d="M1.473 0.287 Q0.929 0.098 0.443 0.322" stroke="hsl(0.0,100%,35%)" stroke-width="0.00039"></path>
<path d="M1.473 0.287 Q1.639 0.352 1.804 0.285" stroke="hsl(0.0,100%,35%)" stroke-width="0.00079"></path>
<path d="M1.473 0.287 Q1.389 0.145 1.095 0.155" stroke="hsl(0.0,100%,35%)" stroke-width="0.00039"></path>
<path d="M1.178 0.294 Q1.067 0.232 0.921 0.272" stroke="hsl(0.0,100%,35%)" stroke-width="0.00197"></path>
<path d="M1.178 0.294 Q1.339 0.200 1.191 0.101" stroke="hsl(0.0,100%,35%)" stroke-width="0.00079"></path>
<path d="M0.260 0.675 Q0.633 0.535 0.443 0.322" stroke="hsl(0.0,100%,35%)" stroke-width="0.00039"></path>
<path d="M0.260 0.675 Q1.344 0.789 1.804 0.285" stroke="hsl(0.0,100%,35%)" stroke-width="0.00039"></path>
<path d="M0.260 0.675 Q0.275 0.732 0.389 0.737" stroke="hsl(0.0,100%,35%)" stroke-width="0.00039"></path>
<path d="M0.700 0.316 Q0.846 0.338 0.921 0.272" stroke="hsl(0.0,100%,35%)" stroke-width="0.00632"></path>
<path d="M0.700 0.316 Q1.117 0.307 1.191 0.101" stroke="hsl(0.0,100%,35%)" stroke-width="0.00197"></path>
<path d="M0.700 0.316 Q0.660 0.436 0.885 0.482" stroke="hsl(0.0,100%,35%)" stroke-width="0.00316"></path>
<path d="M0.543 0.110 Q0.602 0.267 0.921 0.272" stroke="hsl(0.0,100%,35%)" stroke-width="0.00118"></path>
<path d="M0.543 0.110 Q0.417 0.364 0.885 0.482" stroke="hsl(0.0,100%,35%)" stroke-width="0.00079"></path>
<path d="M0.543 0.110 Q1.034 0.450 1.804 0.285" stroke="hsl(0.0,100%,35%)" stroke-width="0.00039"></path>
<path d="M1.394 0.190 Q0.939 0.320 1.093 0.571" stroke="hsl(0.0,100%,35%)" stroke-width="0.00355"></path>
<path d="M1.394 0.190 Q1.092 0.137 0.921 0.272" stroke="hsl(0.0,100%,35%)" stroke-width="0.00947"></path>
<path d="M1.394 0.190 Q1.363 0.105 1.191 0.101" stroke="hsl(0.0,100%,35%)" stroke-width="0.00039"></path>
<path d="M1.394 0.190 Q0.812 0.066 0.443 0.322" stroke="hsl(0.0,100%,35%)" stroke-width="0.00039"></path>
<path d="M1.394 0.190 Q1.002 0.037 0.616 0.194" stroke="hsl(0.0,100%,35%)" stroke-width="0.00079"></path>
<path d="M1.394 0.190 Q1.153 0.350 1.413 0.503" stroke="hsl(0.0,100%,35%)" stroke-width="0.00039"></path>
<path d="M0.954 0.040 Q1.023 0.118 1.191 0.101" stroke="hsl(0.0,100%,35%)" stroke-width="0.00237"></path>
<path d="M0.954 0.040 Q0.267 0.043 0.123 0.379" stroke="hsl(0.0,100%,35%)" stroke-width="0.00118"></path>
<path d="M0.954 0.040 Q0.752 0.150 0.921 0.272" stroke="hsl(0.0,100%,35%)" stroke-width="0.00158"></path>
<path d="M0.694 0.355 Q0.594 0.288 0.443 0.322" stroke="hsl(0.0,100%,35%)" stroke-width="0.00079"></path>
<path d="M0.694 0.355 Q1.145 0.328 1.191 0.101" stroke="hsl(0.0,100%,35%)" stroke-width="0.00039"></path>
<path d="M0.694 0.355 Q0.873 0.359 0.921 0.272" stroke="hsl(0.0,100%,35%)" stroke-width="0.00039"></path>
<path d="M1.465 0.374 Q1.275 0.215 0.921 0.272" stroke="hsl(0.0,100%,35%)" stroke-width="0.00118"></path>
<path d="M1.465 0.374 Q1.336 0.428 1.413 0.503" stroke="hsl(0.0,100%,35%)" stroke-width="0.00158"></path>
<path d="M1.465 0.374 Q1.356 0.329 1.244 0.372" stroke="hsl(0.0,100%,35%)" stroke-width="0.00039"></path>
<path d="M1.049 0.380 Q1.072 0.301 0.921 0.272" stroke="hsl(0.0,100%,35%)" stroke-width="0.00079"></path>
<path d="M1.049 0.380 Q0.793 0.230 0.443 0.322" stroke="hsl(0.0,100%,35%)" stroke-width="0.00118"></path>
<path d="M1.049 0.380 Q1.503 0.483 1.804 0.285" stroke="hsl(0.0,100%,35%)" stroke-width="0.00039"></path>
<path d="M1.049 0.380 Q0.576 0.386 0.482 0.618" stroke="hsl(0.0,100%,35%)" stroke-width="0.00079"></path>
<path d="M1.049 0.380 Q1.344 0.269 1.191 0.101" stroke="hsl(0.0,100%,35%)" stroke-width="0.00039"></path>
</g>
<text x="0.487" y="0.875" font-size="0.012878" fill="hsl(0.0,100%,20%)">aleino</text>
<text x="0.921" y="0.221" font-size="0.103397" fill="hsl(0.0,100%,20%)">jmadill</text>
<text x="1.191" y="0.069" font-size="0.065411" fill="hsl(0.0,100%,20%)">geofflang</text>
<text x="0.725" y="0.899" font-size="0.006650" fill="hsl(0.0,100%,20%)">kkinnunen</text>
<text x="0.090" y="0.502" font-size="0.007435" fill="hsl(0.0,100%,20%)">artyom</text>
<text x="0.443" y="0.284" font-size="0.076186" fill="hsl(0.0,100%,20%)">syoussefi</text>
<text x="0.123" y="0.375" font-size="0.008145" fill="hsl(0.0,100%,20%)">rafael.cintron</text>
<text x="1.136" y="0.269" font-size="0.015237" fill="hsl(0.0,100%,20%)">b.schade</text>
<text x="0.843" y="0.709" font-size="0.008145" fill="hsl(0.0,100%,20%)">cclao</text>
<text x="1.093" y="0.550" font-size="0.042321" fill="hsl(0.0,100%,20%)">tobine</text>
<text x="1.244" y="0.353" font-size="0.038057" fill="hsl(0.0,100%,20%)">cnorthrop</text>
<text x="1.342" y="0.163" font-size="0.022551" fill="hsl(0.0,100%,20%)">m.maiya</text>
<text x="1.324" y="0.276" font-size="0.006650" fill="hsl(0.0,100%,20%)">bsheedy</text>
<text x="1.095" y="0.135" font-size="0.040314" fill="hsl(0.0,100%,20%)">ynovikov</text>
<text x="0.885" y="0.456" font-size="0.051188" fill="hsl(0.0,100%,20%)">jonahr</text>
<text x="0.616" y="0.170" font-size="0.047023" fill="hsl(0.0,100%,20%)">timvp</text>
<text x="0.969" y="0.090" font-size="0.023036" fill="hsl(0.0,100%,20%)">clemendeng</text>
<text x="1.366" y="0.570" font-size="0.041663" fill="hsl(0.0,100%,20%)">courtneygo</text>
<text x="1.413" y="0.486" font-size="0.032408" fill="hsl(0.0,100%,20%)">ianelliott</text>
<text x="0.905" y="0.414" font-size="0.005759" fill="hsl(0.0,100%,20%)">lfy</text>
<text x="1.599" y="0.381" font-size="0.021291" fill="hsl(0.0,100%,20%)">jdarpinian</text>
<text x="0.656" y="0.657" font-size="0.012441" fill="hsl(0.0,100%,20%)">cwallez</text>
<text x="1.440" y="0.587" font-size="0.005759" fill="hsl(0.0,100%,20%)">davidben</text>
<text x="1.176" y="0.110" font-size="0.020497" fill="hsl(0.0,100%,20%)">dongja</text>
<text x="0.507" y="0.489" font-size="0.008797" fill="hsl(0.0,100%,20%)">ericbinet</text>
<text x="1.216" y="0.298" font-size="0.012878" fill="hsl(0.0,100%,20%)">flibitijibibo</text>
<text x="0.389" y="0.734" font-size="0.006650" fill="hsl(0.0,100%,20%)">zmo</text>
<text x="0.787" y="0.099" font-size="0.013300" fill="hsl(0.0,100%,20%)">sugoi</text>
<text x="1.804" y="0.274" font-size="0.021029" fill="hsl(0.0,100%,20%)">kbr</text>
<text x="0.679" y="0.265" font-size="0.024659" fill="hsl(0.0,100%,20%)">spang</text>
<text x="0.482" y="0.610" font-size="0.017277" fill="hsl(0.0,100%,20%)">jiajia.qin</text>
<text x="1.023" y="0.026" font-size="0.016954" fill="hsl(0.0,100%,20%)">shrekshao</text>
<text x="0.247" y="0.445" font-size="0.011518" fill="hsl(0.0,100%,20%)">hckim.kim</text>
<text x="0.699" y="0.112" font-size="0.010515" fill="hsl(0.0,100%,20%)">j.vigil</text>
<text x="1.473" y="0.280" font-size="0.013709" fill="hsl(0.0,100%,20%)">jgilbert</text>
<text x="1.178" y="0.290" font-size="0.008797" fill="hsl(0.0,100%,20%)">jie.a.chen</text>
<text x="0.669" y="0.030" font-size="0.003325" fill="hsl(0.0,100%,20%)">amaiorano</text>
<text x="0.527" y="0.112" font-size="0.003325" fill="hsl(0.0,100%,20%)">le.hoang.q</text>
<text x="0.762" y="0.395" font-size="0.003325" fill="hsl(0.0,100%,20%)">brucedawson</text>
<text x="1.071" y="0.698" font-size="0.004702" fill="hsl(0.0,100%,20%)">kainino</text>
<text x="0.260" y="0.672" font-size="0.005759" fill="hsl(0.0,100%,20%)">khushalsagar</text>
<text x="0.700" y="0.307" font-size="0.017906" fill="hsl(0.0,100%,20%)">lehoangq</text>
<text x="0.543" y="0.106" font-size="0.008145" fill="hsl(0.0,100%,20%)">lexa.knyazev</text>
<text x="1.394" y="0.180" font-size="0.020497" fill="hsl(0.0,100%,20%)">lujc</text>
<text x="0.954" y="0.034" font-size="0.011989" fill="hsl(0.0,100%,20%)">mihu</text>
<text x="0.694" y="0.352" font-size="0.006650" fill="hsl(0.0,100%,20%)">shaobo.yan</text>
<text x="0.535" y="0.430" font-size="0.003325" fill="hsl(0.0,100%,20%)">jaedon1.lee</text>
<text x="1.465" y="0.369" font-size="0.009975" fill="hsl(0.0,100%,20%)">xinyi.he</text>
<text x="0.753" y="0.528" font-size="0.004702" fill="hsl(0.0,100%,20%)">sunny.sun</text>
<text x="0.583" y="0.390" font-size="0.003325" fill="hsl(0.0,100%,20%)">fei.yang</text>
<text x="1.049" y="0.375" font-size="0.009975" fill="hsl(0.0,100%,20%)">xinghua.cao</text>
</svg>
