<svg width="4000" height="2000" viewBox="-0.025 -0.025 2.05 1.05" xmlns="http://www.w3.org/2000/svg">
  <style>
    path {
      fill: none;
      stroke-linecap: round;
      stroke-opacity: 0.4;
    }

    text {
      text-anchor: middle;
      alignment-baseline: hanging;
    }
  </style>
  <g opacity="0.4">
<path d="M1.207 0.290 Q1.258 0.360 1.404 0.350" stroke="hsl(0.0,100%,35%)" stroke-width="0.00101"></path>
<path d="M1.207 0.290 Q1.497 0.248 1.479 0.098" stroke="hsl(0.0,100%,35%)" stroke-width="0.00404"></path>
<path d="M1.207 0.290 Q1.277 0.259 1.230 0.218" stroke="hsl(0.0,100%,35%)" stroke-width="0.00253"></path>
<path d="M1.207 0.290 Q1.359 0.430 1.665 0.387" stroke="hsl(0.0,100%,35%)" stroke-width="0.00025"></path>
<path d="M1.404 0.350 Q1.353 0.281 1.207 0.290" stroke="hsl(0.0,100%,35%)" stroke-width="0.00101"></path>
<path d="M1.404 0.350 Q1.423 0.249 1.230 0.218" stroke="hsl(0.0,100%,35%)" stroke-width="0.02223"></path>
<path d="M1.404 0.350 Q1.027 0.185 0.623 0.333" stroke="hsl(0.0,100%,35%)" stroke-width="0.00227"></path>
<path d="M1.404 0.350 Q1.477 0.348 1.490 0.312" stroke="hsl(0.0,100%,35%)" stroke-width="0.00733"></path>
<path d="M1.404 0.350 Q1.643 0.239 1.479 0.098" stroke="hsl(0.0,100%,35%)" stroke-width="0.01541"></path>
<path d="M1.404 0.350 Q1.208 0.231 0.934 0.301" stroke="hsl(0.0,100%,35%)" stroke-width="0.00025"></path>
<path d="M1.404 0.350 Q1.339 0.279 1.186 0.295" stroke="hsl(0.0,100%,35%)" stroke-width="0.00025"></path>
<path d="M1.404 0.350 Q1.575 0.161 1.245 0.036" stroke="hsl(0.0,100%,35%)" stroke-width="0.01061"></path>
<path d="M1.404 0.350 Q1.231 0.384 1.260 0.476" stroke="hsl(0.0,100%,35%)" stroke-width="0.00025"></path>
<path d="M1.404 0.350 Q1.505 0.077 0.994 -0.032" stroke="hsl(0.0,100%,35%)" stroke-width="0.00025"></path>
<path d="M1.404 0.350 Q1.504 0.071 0.981 -0.039" stroke="hsl(0.0,100%,35%)" stroke-width="0.00076"></path>
<path d="M1.479 0.098 Q1.175 0.138 1.186 0.295" stroke="hsl(0.0,100%,35%)" stroke-width="0.00051"></path>
<path d="M1.479 0.098 Q1.240 0.209 1.404 0.350" stroke="hsl(0.0,100%,35%)" stroke-width="0.00809"></path>
<path d="M1.479 0.098 Q1.024 0.054 0.838 0.266" stroke="hsl(0.0,100%,35%)" stroke-width="0.00051"></path>
<path d="M1.479 0.098 Q1.258 0.108 1.230 0.218" stroke="hsl(0.0,100%,35%)" stroke-width="0.06089"></path>
<path d="M1.479 0.098 Q1.313 0.207 1.490 0.312" stroke="hsl(0.0,100%,35%)" stroke-width="0.00404"></path>
<path d="M1.479 0.098 Q1.189 0.140 1.207 0.290" stroke="hsl(0.0,100%,35%)" stroke-width="0.00101"></path>
<path d="M1.479 0.098 Q1.340 -0.064 0.994 -0.032" stroke="hsl(0.0,100%,35%)" stroke-width="0.00152"></path>
<path d="M1.479 0.098 Q1.411 0.020 1.245 0.036" stroke="hsl(0.0,100%,35%)" stroke-width="0.04320"></path>
<path d="M1.479 0.098 Q1.090 0.051 0.914 0.231" stroke="hsl(0.0,100%,35%)" stroke-width="0.00025"></path>
<path d="M1.479 0.098 Q1.126 0.297 1.437 0.513" stroke="hsl(0.0,100%,35%)" stroke-width="0.00051"></path>
<path d="M1.479 0.098 Q0.862 0.044 0.623 0.333" stroke="hsl(0.0,100%,35%)" stroke-width="0.00126"></path>
<path d="M1.479 0.098 Q1.044 0.090 0.934 0.301" stroke="hsl(0.0,100%,35%)" stroke-width="0.00328"></path>
<path d="M1.479 0.098 Q1.339 -0.070 0.981 -0.039" stroke="hsl(0.0,100%,35%)" stroke-width="0.00227"></path>
<path d="M1.479 0.098 Q1.511 0.119 1.559 0.108" stroke="hsl(0.0,100%,35%)" stroke-width="0.00051"></path>
<path d="M1.479 0.098 Q1.186 0.120 1.166 0.268" stroke="hsl(0.0,100%,35%)" stroke-width="0.00278"></path>
<path d="M1.479 0.098 Q1.067 0.243 1.260 0.476" stroke="hsl(0.0,100%,35%)" stroke-width="0.00025"></path>
<path d="M1.479 0.098 Q1.105 0.080 0.989 0.259" stroke="hsl(0.0,100%,35%)" stroke-width="0.00076"></path>
<path d="M1.479 0.098 Q1.243 0.008 1.016 0.104" stroke="hsl(0.0,100%,35%)" stroke-width="0.00025"></path>
<path d="M1.479 0.098 Q0.354 0.095 0.101 0.643" stroke="hsl(0.0,100%,35%)" stroke-width="0.00025"></path>
<path d="M1.479 0.098 Q1.088 0.184 1.172 0.394" stroke="hsl(0.0,100%,35%)" stroke-width="0.00025"></path>
<path d="M1.479 0.098 Q1.240 0.118 1.228 0.239" stroke="hsl(0.0,100%,35%)" stroke-width="0.00025"></path>
<path d="M1.479 0.098 Q1.341 0.279 1.665 0.387" stroke="hsl(0.0,100%,35%)" stroke-width="0.00126"></path>
<path d="M1.479 0.098 Q0.981 0.139 0.951 0.391" stroke="hsl(0.0,100%,35%)" stroke-width="0.00025"></path>
<path d="M1.479 0.098 Q1.219 0.305 1.565 0.477" stroke="hsl(0.0,100%,35%)" stroke-width="0.00025"></path>
<path d="M1.230 0.218 Q1.451 0.208 1.479 0.098" stroke="hsl(0.0,100%,35%)" stroke-width="0.02779"></path>
<path d="M1.230 0.218 Q1.015 0.200 0.934 0.301" stroke="hsl(0.0,100%,35%)" stroke-width="0.02628"></path>
<path d="M1.230 0.218 Q1.284 0.317 1.490 0.312" stroke="hsl(0.0,100%,35%)" stroke-width="0.00126"></path>
<path d="M1.230 0.218 Q0.995 0.164 0.838 0.266" stroke="hsl(0.0,100%,35%)" stroke-width="0.00556"></path>
<path d="M1.230 0.218 Q1.212 0.319 1.404 0.350" stroke="hsl(0.0,100%,35%)" stroke-width="0.00581"></path>
<path d="M1.230 0.218 Q1.311 0.040 0.981 -0.039" stroke="hsl(0.0,100%,35%)" stroke-width="0.00657"></path>
<path d="M1.230 0.218 Q1.039 0.353 1.260 0.476" stroke="hsl(0.0,100%,35%)" stroke-width="0.00076"></path>
<path d="M1.230 0.218 Q1.160 0.250 1.207 0.290" stroke="hsl(0.0,100%,35%)" stroke-width="0.00101"></path>
<path d="M1.230 0.218 Q1.147 0.248 1.186 0.295" stroke="hsl(0.0,100%,35%)" stroke-width="0.00025"></path>
<path d="M1.230 0.218 Q0.834 0.154 0.623 0.333" stroke="hsl(0.0,100%,35%)" stroke-width="0.03007"></path>
<path d="M1.230 0.218 Q1.383 0.130 1.245 0.036" stroke="hsl(0.0,100%,35%)" stroke-width="0.03007"></path>
<path d="M1.230 0.218 Q1.214 0.118 1.016 0.104" stroke="hsl(0.0,100%,35%)" stroke-width="0.00025"></path>
<path d="M1.230 0.218 Q0.914 0.321 1.046 0.498" stroke="hsl(0.0,100%,35%)" stroke-width="0.00025"></path>
<path d="M1.230 0.218 Q1.157 0.230 1.166 0.268" stroke="hsl(0.0,100%,35%)" stroke-width="0.00707"></path>
<path d="M1.230 0.218 Q0.842 -0.020 0.292 0.116" stroke="hsl(0.0,100%,35%)" stroke-width="0.00025"></path>
<path d="M1.230 0.218 Q1.312 0.389 1.665 0.387" stroke="hsl(0.0,100%,35%)" stroke-width="0.00025"></path>
<path d="M1.230 0.218 Q1.035 0.154 0.867 0.235" stroke="hsl(0.0,100%,35%)" stroke-width="0.00025"></path>
<path d="M1.230 0.218 Q1.032 0.077 0.714 0.143" stroke="hsl(0.0,100%,35%)" stroke-width="0.00152"></path>
<path d="M1.230 0.218 Q1.035 0.304 1.160 0.418" stroke="hsl(0.0,100%,35%)" stroke-width="0.00025"></path>
<path d="M1.230 0.218 Q0.829 0.342 0.984 0.565" stroke="hsl(0.0,100%,35%)" stroke-width="0.00025"></path>
<path d="M1.230 0.218 Q1.098 0.407 1.437 0.513" stroke="hsl(0.0,100%,35%)" stroke-width="0.00025"></path>
<path d="M1.230 0.218 Q1.312 0.046 0.994 -0.032" stroke="hsl(0.0,100%,35%)" stroke-width="0.00025"></path>
<path d="M1.230 0.218 Q1.138 0.249 1.178 0.301" stroke="hsl(0.0,100%,35%)" stroke-width="0.00025"></path>
<path d="M1.665 0.387 Q1.664 0.037 0.981 -0.039" stroke="hsl(180.0,100%,35%)" stroke-width="0.00051"></path>
<path d="M1.665 0.387 Q1.804 0.205 1.479 0.098" stroke="hsl(180.0,100%,35%)" stroke-width="0.00303"></path>
<path d="M1.665 0.387 Q1.666 0.490 1.867 0.512" stroke="hsl(180.0,100%,35%)" stroke-width="0.00025"></path>
<path d="M1.665 0.387 Q1.368 0.198 0.934 0.301" stroke="hsl(180.0,100%,35%)" stroke-width="0.00152"></path>
<path d="M1.665 0.387 Q1.583 0.215 1.230 0.218" stroke="hsl(180.0,100%,35%)" stroke-width="0.00227"></path>
<path d="M1.665 0.387 Q1.606 0.421 1.659 0.458" stroke="hsl(180.0,100%,35%)" stroke-width="0.00025"></path>
<path d="M1.665 0.387 Q1.736 0.127 1.245 0.036" stroke="hsl(180.0,100%,35%)" stroke-width="0.00025"></path>
<path d="M1.665 0.387 Q1.510 0.228 1.166 0.268" stroke="hsl(180.0,100%,35%)" stroke-width="0.00051"></path>
<path d="M1.665 0.387 Q1.492 0.448 1.574 0.546" stroke="hsl(180.0,100%,35%)" stroke-width="0.00025"></path>
<path d="M1.665 0.387 Q1.187 0.152 0.623 0.333" stroke="hsl(180.0,100%,35%)" stroke-width="0.00051"></path>
<path d="M1.305 0.796 Q1.439 0.830 1.534 0.772" stroke="hsl(180.0,100%,35%)" stroke-width="0.00126"></path>
<path d="M1.305 0.796 Q1.730 0.492 1.230 0.218" stroke="hsl(180.0,100%,35%)" stroke-width="0.00126"></path>
<path d="M1.305 0.796 Q1.811 0.314 0.981 -0.039" stroke="hsl(180.0,100%,35%)" stroke-width="0.00051"></path>
<path d="M0.981 -0.039 Q1.562 -0.417 0.952 -0.783" stroke="hsl(180.0,100%,35%)" stroke-width="0.00025"></path>
<path d="M0.981 -0.039 Q1.121 0.129 1.479 0.098" stroke="hsl(180.0,100%,35%)" stroke-width="0.00227"></path>
<path d="M0.981 -0.039 Q0.900 0.139 1.230 0.218" stroke="hsl(180.0,100%,35%)" stroke-width="0.00632"></path>
<path d="M0.981 -0.039 Q0.884 0.040 1.016 0.104" stroke="hsl(180.0,100%,35%)" stroke-width="0.00152"></path>
<path d="M0.981 -0.039 Q0.983 0.311 1.665 0.387" stroke="hsl(180.0,100%,35%)" stroke-width="0.00126"></path>
<path d="M0.981 -0.039 Q0.754 0.114 1.001 0.258" stroke="hsl(180.0,100%,35%)" stroke-width="0.00025"></path>
<path d="M0.981 -0.039 Q1.053 0.051 1.245 0.036" stroke="hsl(180.0,100%,35%)" stroke-width="0.00101"></path>
<path d="M0.981 -0.039 Q0.882 0.150 1.228 0.239" stroke="hsl(180.0,100%,35%)" stroke-width="0.00025"></path>
<path d="M0.981 -0.039 Q0.828 0.152 1.166 0.268" stroke="hsl(180.0,100%,35%)" stroke-width="0.00177"></path>
<path d="M0.981 -0.039 Q0.982 -0.033 0.994 -0.032" stroke="hsl(180.0,100%,35%)" stroke-width="0.00025"></path>
<path d="M0.981 -0.039 Q0.346 0.306 0.878 0.692" stroke="hsl(180.0,100%,35%)" stroke-width="0.00025"></path>
<path d="M0.981 -0.039 Q0.882 0.240 1.404 0.350" stroke="hsl(180.0,100%,35%)" stroke-width="0.00051"></path>
<path d="M0.981 -0.039 Q0.686 0.122 0.934 0.301" stroke="hsl(180.0,100%,35%)" stroke-width="0.00025"></path>
<path d="M1.237 0.280 Q1.283 0.248 1.230 0.218" stroke="hsl(0.0,100%,35%)" stroke-width="0.00455"></path>
<path d="M1.237 0.280 Q1.504 0.237 1.479 0.098" stroke="hsl(0.0,100%,35%)" stroke-width="0.00455"></path>
<path d="M1.237 0.280 Q1.365 0.075 0.994 -0.032" stroke="hsl(0.0,100%,35%)" stroke-width="0.00025"></path>
<path d="M1.237 0.280 Q1.536 0.259 1.559 0.108" stroke="hsl(0.0,100%,35%)" stroke-width="0.00025"></path>
<path d="M1.237 0.280 Q1.159 0.315 1.210 0.360" stroke="hsl(0.0,100%,35%)" stroke-width="0.00025"></path>
<path d="M1.237 0.280 Q1.337 0.073 0.955 -0.021" stroke="hsl(0.0,100%,35%)" stroke-width="0.00025"></path>
<path d="M1.237 0.280 Q1.337 0.347 1.490 0.312" stroke="hsl(0.0,100%,35%)" stroke-width="0.00025"></path>
<path d="M0.994 -0.032 Q1.132 0.130 1.479 0.098" stroke="hsl(0.0,100%,35%)" stroke-width="0.01364"></path>
<path d="M0.994 -0.032 Q0.993 -0.038 0.981 -0.039" stroke="hsl(0.0,100%,35%)" stroke-width="0.00076"></path>
<path d="M0.994 -0.032 Q0.912 0.140 1.230 0.218" stroke="hsl(0.0,100%,35%)" stroke-width="0.01415"></path>
<path d="M0.994 -0.032 Q0.893 0.241 1.404 0.350" stroke="hsl(0.0,100%,35%)" stroke-width="0.00051"></path>
<path d="M0.994 -0.032 Q1.064 0.052 1.245 0.036" stroke="hsl(0.0,100%,35%)" stroke-width="0.00126"></path>
<path d="M0.955 -0.021 Q0.856 0.186 1.237 0.280" stroke="hsl(0.0,100%,35%)" stroke-width="0.00025"></path>
<path d="M0.955 -0.021 Q0.956 0.253 1.490 0.312" stroke="hsl(0.0,100%,35%)" stroke-width="0.00025"></path>
<path d="M0.955 -0.021 Q0.902 0.154 1.230 0.218" stroke="hsl(0.0,100%,35%)" stroke-width="0.00051"></path>
<path d="M0.955 -0.021 Q1.123 0.143 1.479 0.098" stroke="hsl(0.0,100%,35%)" stroke-width="0.00025"></path>
<path d="M1.490 0.312 Q1.201 0.159 0.838 0.266" stroke="hsl(0.0,100%,35%)" stroke-width="0.00051"></path>
<path d="M1.490 0.312 Q1.352 0.243 1.186 0.295" stroke="hsl(0.0,100%,35%)" stroke-width="0.00051"></path>
<path d="M1.490 0.312 Q1.221 0.196 0.934 0.301" stroke="hsl(0.0,100%,35%)" stroke-width="0.00101"></path>
<path d="M1.490 0.312 Q1.656 0.203 1.479 0.098" stroke="hsl(0.0,100%,35%)" stroke-width="0.00379"></path>
<path d="M1.490 0.312 Q1.668 0.339 1.758 0.257" stroke="hsl(0.0,100%,35%)" stroke-width="0.00051"></path>
<path d="M1.490 0.312 Q1.244 0.348 1.260 0.476" stroke="hsl(0.0,100%,35%)" stroke-width="0.00051"></path>
<path d="M1.490 0.312 Q1.435 0.213 1.230 0.218" stroke="hsl(0.0,100%,35%)" stroke-width="0.00278"></path>
<path d="M1.490 0.312 Q1.366 0.245 1.207 0.290" stroke="hsl(0.0,100%,35%)" stroke-width="0.00025"></path>
<path d="M1.490 0.312 Q0.748 0.285 0.533 0.641" stroke="hsl(0.0,100%,35%)" stroke-width="0.00025"></path>
<path d="M1.490 0.312 Q1.417 0.314 1.404 0.350" stroke="hsl(0.0,100%,35%)" stroke-width="0.00051"></path>
<path d="M1.490 0.312 Q1.588 0.125 1.245 0.036" stroke="hsl(0.0,100%,35%)" stroke-width="0.00202"></path>
<path d="M1.490 0.312 Q1.039 0.149 0.623 0.333" stroke="hsl(0.0,100%,35%)" stroke-width="0.00177"></path>
<path d="M1.490 0.312 Q1.516 0.035 0.981 -0.039" stroke="hsl(0.0,100%,35%)" stroke-width="0.00076"></path>
<path d="M1.490 0.312 Q1.687 0.306 1.719 0.209" stroke="hsl(0.0,100%,35%)" stroke-width="0.00076"></path>
<path d="M1.490 0.312 Q1.518 0.385 1.665 0.387" stroke="hsl(0.0,100%,35%)" stroke-width="0.00025"></path>
<path d="M0.914 0.231 Q1.303 0.277 1.479 0.098" stroke="hsl(0.0,100%,35%)" stroke-width="0.00682"></path>
<path d="M0.914 0.231 Q0.766 0.391 1.046 0.498" stroke="hsl(0.0,100%,35%)" stroke-width="0.00025"></path>
<path d="M0.914 0.231 Q1.082 0.288 1.230 0.218" stroke="hsl(0.0,100%,35%)" stroke-width="0.00682"></path>
<path d="M0.914 0.231 Q1.164 0.115 0.994 -0.032" stroke="hsl(0.0,100%,35%)" stroke-width="0.00051"></path>
<path d="M0.914 0.231 Q1.235 0.200 1.245 0.036" stroke="hsl(0.0,100%,35%)" stroke-width="0.00202"></path>
<path d="M1.046 0.498 Q1.445 0.566 1.665 0.387" stroke="hsl(180.0,100%,35%)" stroke-width="0.00379"></path>
<path d="M1.046 0.498 Q1.385 0.601 1.659 0.458" stroke="hsl(180.0,100%,35%)" stroke-width="0.00152"></path>
<path d="M1.046 0.498 Q1.362 0.395 1.230 0.218" stroke="hsl(180.0,100%,35%)" stroke-width="0.00733"></path>
<path d="M1.046 0.498 Q1.194 0.338 0.914 0.231" stroke="hsl(180.0,100%,35%)" stroke-width="0.00025"></path>
<path d="M1.046 0.498 Q1.443 0.217 0.981 -0.039" stroke="hsl(180.0,100%,35%)" stroke-width="0.00177"></path>
<path d="M1.046 0.498 Q1.583 0.385 1.479 0.098" stroke="hsl(180.0,100%,35%)" stroke-width="0.00101"></path>
<path d="M1.046 0.498 Q1.446 0.669 1.867 0.512" stroke="hsl(180.0,100%,35%)" stroke-width="0.00025"></path>
<path d="M1.046 0.498 Q1.148 0.377 0.934 0.301" stroke="hsl(180.0,100%,35%)" stroke-width="0.00025"></path>
<path d="M1.046 0.498 Q1.138 0.683 1.520 0.679" stroke="hsl(180.0,100%,35%)" stroke-width="0.00051"></path>
<path d="M1.046 0.498 Q1.290 0.407 1.166 0.268" stroke="hsl(180.0,100%,35%)" stroke-width="0.00025"></path>
<path d="M1.245 0.036 Q1.092 0.124 1.230 0.218" stroke="hsl(0.0,100%,35%)" stroke-width="0.01238"></path>
<path d="M1.245 0.036 Q1.312 0.114 1.479 0.098" stroke="hsl(0.0,100%,35%)" stroke-width="0.00809"></path>
<path d="M1.245 0.036 Q1.073 0.225 1.404 0.350" stroke="hsl(0.0,100%,35%)" stroke-width="0.00379"></path>
<path d="M1.245 0.036 Q0.696 0.060 0.623 0.333" stroke="hsl(0.0,100%,35%)" stroke-width="0.00581"></path>
<path d="M1.245 0.036 Q1.146 0.223 1.490 0.312" stroke="hsl(0.0,100%,35%)" stroke-width="0.00177"></path>
<path d="M1.245 0.036 Q1.022 0.156 1.207 0.290" stroke="hsl(0.0,100%,35%)" stroke-width="0.00025"></path>
<path d="M1.245 0.036 Q0.405 0.196 0.533 0.641" stroke="hsl(0.0,100%,35%)" stroke-width="0.00051"></path>
<path d="M1.245 0.036 Q1.173 -0.054 0.981 -0.039" stroke="hsl(0.0,100%,35%)" stroke-width="0.00379"></path>
<path d="M1.245 0.036 Q0.877 0.106 0.934 0.301" stroke="hsl(0.0,100%,35%)" stroke-width="0.00025"></path>
<path d="M0.623 0.333 Q1.000 0.498 1.404 0.350" stroke="hsl(0.0,100%,35%)" stroke-width="0.00076"></path>
<path d="M0.623 0.333 Q0.936 0.427 1.186 0.295" stroke="hsl(0.0,100%,35%)" stroke-width="0.00076"></path>
<path d="M0.623 0.333 Q1.240 0.387 1.479 0.098" stroke="hsl(0.0,100%,35%)" stroke-width="0.00455"></path>
<path d="M0.623 0.333 Q1.073 0.496 1.490 0.312" stroke="hsl(0.0,100%,35%)" stroke-width="0.00076"></path>
<path d="M0.623 0.333 Q1.019 0.397 1.230 0.218" stroke="hsl(0.0,100%,35%)" stroke-width="0.02299"></path>
<path d="M0.623 0.333 Q0.631 0.159 0.292 0.116" stroke="hsl(0.0,100%,35%)" stroke-width="0.00076"></path>
<path d="M0.623 0.333 Q0.821 0.256 0.714 0.143" stroke="hsl(0.0,100%,35%)" stroke-width="0.00051"></path>
<path d="M0.623 0.333 Q0.827 0.532 1.260 0.476" stroke="hsl(0.0,100%,35%)" stroke-width="0.00101"></path>
<path d="M0.623 0.333 Q1.172 0.309 1.245 0.036" stroke="hsl(0.0,100%,35%)" stroke-width="0.01415"></path>
<path d="M0.623 0.333 Q0.804 0.379 0.934 0.301" stroke="hsl(0.0,100%,35%)" stroke-width="0.00051"></path>
<path d="M0.623 0.333 Q1.101 0.225 0.994 -0.032" stroke="hsl(0.0,100%,35%)" stroke-width="0.00051"></path>
<path d="M0.934 0.301 Q1.230 0.141 0.981 -0.039" stroke="hsl(0.0,100%,35%)" stroke-width="0.00025"></path>
<path d="M0.934 0.301 Q1.369 0.308 1.479 0.098" stroke="hsl(0.0,100%,35%)" stroke-width="0.00126"></path>
<path d="M0.934 0.301 Q1.079 0.350 1.207 0.290" stroke="hsl(0.0,100%,35%)" stroke-width="0.00025"></path>
<path d="M0.934 0.301 Q0.996 0.291 0.989 0.259" stroke="hsl(0.0,100%,35%)" stroke-width="0.00051"></path>
<path d="M0.934 0.301 Q1.149 0.319 1.230 0.218" stroke="hsl(0.0,100%,35%)" stroke-width="0.01036"></path>
<path d="M0.934 0.301 Q1.231 0.490 1.665 0.387" stroke="hsl(0.0,100%,35%)" stroke-width="0.00025"></path>
<path d="M0.934 0.301 Q1.301 0.231 1.245 0.036" stroke="hsl(0.0,100%,35%)" stroke-width="0.00025"></path>
<path d="M0.934 0.301 Q1.203 0.418 1.490 0.312" stroke="hsl(0.0,100%,35%)" stroke-width="0.00025"></path>
<path d="M1.186 0.295 Q1.269 0.265 1.230 0.218" stroke="hsl(0.0,100%,35%)" stroke-width="0.00328"></path>
<path d="M1.186 0.295 Q0.873 0.201 0.623 0.333" stroke="hsl(0.0,100%,35%)" stroke-width="0.00051"></path>
<path d="M1.186 0.295 Q1.490 0.255 1.479 0.098" stroke="hsl(0.0,100%,35%)" stroke-width="0.00025"></path>
<path d="M1.186 0.295 Q1.351 0.087 0.981 -0.039" stroke="hsl(0.0,100%,35%)" stroke-width="0.00051"></path>
<path d="M1.260 0.476 Q1.433 0.442 1.404 0.350" stroke="hsl(0.0,100%,35%)" stroke-width="0.00404"></path>
<path d="M1.260 0.476 Q1.532 0.163 0.981 -0.039" stroke="hsl(0.0,100%,35%)" stroke-width="0.00025"></path>
<path d="M1.260 0.476 Q1.055 0.277 0.623 0.333" stroke="hsl(0.0,100%,35%)" stroke-width="0.00025"></path>
<path d="M1.260 0.476 Q1.451 0.341 1.230 0.218" stroke="hsl(0.0,100%,35%)" stroke-width="0.00430"></path>
<path d="M1.260 0.476 Q1.672 0.331 1.479 0.098" stroke="hsl(0.0,100%,35%)" stroke-width="0.00253"></path>
<path d="M1.260 0.476 Q1.604 0.253 1.245 0.036" stroke="hsl(0.0,100%,35%)" stroke-width="0.00152"></path>
<path d="M0.974 -0.086 Q0.841 0.218 1.404 0.350" stroke="hsl(0.0,100%,35%)" stroke-width="0.00025"></path>
<path d="M0.974 -0.086 Q1.080 0.107 1.479 0.098" stroke="hsl(0.0,100%,35%)" stroke-width="0.00126"></path>
<path d="M0.974 -0.086 Q0.859 0.117 1.230 0.218" stroke="hsl(0.0,100%,35%)" stroke-width="0.00126"></path>
<path d="M0.974 -0.086 Q0.841 0.127 1.228 0.239" stroke="hsl(0.0,100%,35%)" stroke-width="0.00025"></path>
<path d="M0.974 -0.086 Q1.012 0.029 1.245 0.036" stroke="hsl(0.0,100%,35%)" stroke-width="0.00025"></path>
<path d="M0.292 0.116 Q0.284 0.291 0.623 0.333" stroke="hsl(0.0,100%,35%)" stroke-width="0.01844"></path>
<path d="M0.292 0.116 Q0.680 0.355 1.230 0.218" stroke="hsl(0.0,100%,35%)" stroke-width="0.01819"></path>
<path d="M0.292 0.116 Q0.833 0.267 1.245 0.036" stroke="hsl(0.0,100%,35%)" stroke-width="0.00076"></path>
<path d="M0.292 0.116 Q0.901 0.344 1.479 0.098" stroke="hsl(0.0,100%,35%)" stroke-width="0.00101"></path>
<path d="M0.292 0.116 Q0.762 0.182 0.994 -0.032" stroke="hsl(0.0,100%,35%)" stroke-width="0.00025"></path>
<path d="M0.714 0.143 Q0.516 0.220 0.623 0.333" stroke="hsl(0.0,100%,35%)" stroke-width="0.02653"></path>
<path d="M0.714 0.143 Q0.912 0.283 1.230 0.218" stroke="hsl(0.0,100%,35%)" stroke-width="0.03714"></path>
<path d="M0.714 0.143 Q1.065 0.195 1.245 0.036" stroke="hsl(0.0,100%,35%)" stroke-width="0.00101"></path>
<path d="M0.714 0.143 Q0.840 0.296 1.166 0.268" stroke="hsl(0.0,100%,35%)" stroke-width="0.00025"></path>
<path d="M0.714 0.143 Q1.133 0.273 1.479 0.098" stroke="hsl(0.0,100%,35%)" stroke-width="0.00025"></path>
<path d="M1.016 0.104 Q1.253 0.193 1.479 0.098" stroke="hsl(180.0,100%,35%)" stroke-width="0.00354"></path>
<path d="M1.016 0.104 Q1.032 0.204 1.230 0.218" stroke="hsl(180.0,100%,35%)" stroke-width="0.00354"></path>
<path d="M1.016 0.104 Q1.113 0.026 0.981 -0.039" stroke="hsl(180.0,100%,35%)" stroke-width="0.00202"></path>
<path d="M1.016 0.104 Q0.960 0.216 1.166 0.268" stroke="hsl(180.0,100%,35%)" stroke-width="0.00025"></path>
<path d="M1.166 0.268 Q1.459 0.246 1.479 0.098" stroke="hsl(180.0,100%,35%)" stroke-width="0.00253"></path>
<path d="M1.166 0.268 Q1.238 0.256 1.230 0.218" stroke="hsl(180.0,100%,35%)" stroke-width="0.00430"></path>
<path d="M1.166 0.268 Q1.319 0.078 0.981 -0.039" stroke="hsl(180.0,100%,35%)" stroke-width="0.00177"></path>
<path d="M1.166 0.268 Q1.321 0.428 1.665 0.387" stroke="hsl(180.0,100%,35%)" stroke-width="0.00177"></path>
<path d="M1.166 0.268 Q1.024 0.238 0.934 0.301" stroke="hsl(180.0,100%,35%)" stroke-width="0.00126"></path>
<path d="M1.166 0.268 Q1.322 0.530 1.867 0.512" stroke="hsl(180.0,100%,35%)" stroke-width="0.00076"></path>
<path d="M1.166 0.268 Q1.391 0.168 1.245 0.036" stroke="hsl(180.0,100%,35%)" stroke-width="0.00025"></path>
<path d="M1.166 0.268 Q0.842 0.192 0.623 0.333" stroke="hsl(180.0,100%,35%)" stroke-width="0.00025"></path>
<path d="M1.867 0.512 Q1.783 0.237 1.230 0.218" stroke="hsl(180.0,100%,35%)" stroke-width="0.00354"></path>
<path d="M1.867 0.512 Q1.806 0.443 1.659 0.458" stroke="hsl(180.0,100%,35%)" stroke-width="0.00202"></path>
<path d="M1.867 0.512 Q1.866 0.409 1.665 0.387" stroke="hsl(180.0,100%,35%)" stroke-width="0.01061"></path>
<path d="M1.867 0.512 Q2.004 0.227 1.479 0.098" stroke="hsl(180.0,100%,35%)" stroke-width="0.00455"></path>
<path d="M1.867 0.512 Q1.569 0.220 0.934 0.301" stroke="hsl(180.0,100%,35%)" stroke-width="0.00101"></path>
<path d="M1.867 0.512 Q1.711 0.250 1.166 0.268" stroke="hsl(180.0,100%,35%)" stroke-width="0.00076"></path>
<path d="M1.867 0.512 Q1.865 0.059 0.981 -0.039" stroke="hsl(180.0,100%,35%)" stroke-width="0.00051"></path>
<path d="M1.659 0.458 Q1.718 0.074 0.981 -0.039" stroke="hsl(180.0,100%,35%)" stroke-width="0.00227"></path>
<path d="M1.659 0.458 Q1.719 0.423 1.665 0.387" stroke="hsl(180.0,100%,35%)" stroke-width="0.00581"></path>
<path d="M1.659 0.458 Q1.857 0.242 1.479 0.098" stroke="hsl(180.0,100%,35%)" stroke-width="0.00126"></path>
<path d="M1.659 0.458 Q1.720 0.526 1.867 0.512" stroke="hsl(180.0,100%,35%)" stroke-width="0.00303"></path>
<path d="M1.659 0.458 Q1.320 0.355 1.046 0.498" stroke="hsl(180.0,100%,35%)" stroke-width="0.00101"></path>
<path d="M1.659 0.458 Q1.636 0.252 1.230 0.218" stroke="hsl(180.0,100%,35%)" stroke-width="0.00025"></path>
<path d="M1.659 0.458 Q1.789 0.164 1.245 0.036" stroke="hsl(180.0,100%,35%)" stroke-width="0.00025"></path>
<path d="M1.659 0.458 Q1.413 0.541 1.520 0.679" stroke="hsl(180.0,100%,35%)" stroke-width="0.00051"></path>
<path d="M1.659 0.458 Q1.564 0.264 1.166 0.268" stroke="hsl(180.0,100%,35%)" stroke-width="0.00177"></path>
<path d="M1.182 0.435 Q1.600 0.326 1.479 0.098" stroke="hsl(0.0,100%,35%)" stroke-width="0.00051"></path>
<path d="M1.182 0.435 Q1.361 0.437 1.404 0.350" stroke="hsl(0.0,100%,35%)" stroke-width="0.00101"></path>
<path d="M1.182 0.435 Q1.380 0.336 1.230 0.218" stroke="hsl(0.0,100%,35%)" stroke-width="0.00025"></path>
<path d="M1.182 0.435 Q1.188 0.471 1.260 0.476" stroke="hsl(0.0,100%,35%)" stroke-width="0.00025"></path>
<path d="M1.182 0.435 Q0.984 0.272 0.623 0.333" stroke="hsl(0.0,100%,35%)" stroke-width="0.00025"></path>
<path d="M0.262 0.564 Q0.118 0.572 0.101 0.643" stroke="hsl(0.0,100%,35%)" stroke-width="0.00051"></path>
<path d="M0.262 0.564 Q1.244 0.574 1.479 0.098" stroke="hsl(0.0,100%,35%)" stroke-width="0.00025"></path>
<path d="M0.262 0.564 Q1.023 0.584 1.230 0.218" stroke="hsl(0.0,100%,35%)" stroke-width="0.00025"></path>
<path d="M0.838 0.266 Q1.073 0.320 1.230 0.218" stroke="hsl(0.0,100%,35%)" stroke-width="0.00303"></path>
<path d="M0.838 0.266 Q1.294 0.310 1.479 0.098" stroke="hsl(0.0,100%,35%)" stroke-width="0.00354"></path>
<path d="M0.838 0.266 Q1.055 0.421 1.404 0.350" stroke="hsl(0.0,100%,35%)" stroke-width="0.00126"></path>
<path d="M0.838 0.266 Q1.154 0.142 0.981 -0.039" stroke="hsl(0.0,100%,35%)" stroke-width="0.00051"></path>
<path d="M0.838 0.266 Q0.677 0.257 0.623 0.333" stroke="hsl(0.0,100%,35%)" stroke-width="0.00126"></path>
<path d="M0.838 0.266 Q1.226 0.232 1.245 0.036" stroke="hsl(0.0,100%,35%)" stroke-width="0.00177"></path>
<path d="M0.838 0.266 Q0.882 0.455 1.260 0.476" stroke="hsl(0.0,100%,35%)" stroke-width="0.00025"></path>
<path d="M0.838 0.266 Q1.127 0.420 1.490 0.312" stroke="hsl(0.0,100%,35%)" stroke-width="0.00025"></path>
<path d="M0.533 0.641 Q0.653 0.693 0.779 0.646" stroke="hsl(0.0,100%,35%)" stroke-width="0.00025"></path>
<path d="M0.533 0.641 Q1.441 0.559 1.479 0.098" stroke="hsl(0.0,100%,35%)" stroke-width="0.00051"></path>
<path d="M0.533 0.641 Q1.202 0.670 1.404 0.350" stroke="hsl(0.0,100%,35%)" stroke-width="0.00025"></path>
<path d="M0.533 0.641 Q1.220 0.569 1.230 0.218" stroke="hsl(0.0,100%,35%)" stroke-width="0.00051"></path>
<path d="M0.533 0.641 Q1.301 0.391 0.981 -0.039" stroke="hsl(0.0,100%,35%)" stroke-width="0.00025"></path>
<path d="M0.533 0.641 Q1.373 0.481 1.245 0.036" stroke="hsl(0.0,100%,35%)" stroke-width="0.00025"></path>
<path d="M1.719 0.209 Q1.521 0.215 1.490 0.312" stroke="hsl(0.0,100%,35%)" stroke-width="0.00101"></path>
<path d="M1.719 0.209 Q1.688 0.105 1.479 0.098" stroke="hsl(0.0,100%,35%)" stroke-width="0.00025"></path>
<path d="M1.719 0.209 Q1.071 0.052 0.623 0.333" stroke="hsl(0.0,100%,35%)" stroke-width="0.00051"></path>
<path d="M1.719 0.209 Q1.467 0.116 1.230 0.218" stroke="hsl(0.0,100%,35%)" stroke-width="0.00025"></path>
<path d="M1.533 0.215 Q0.812 0.280 0.779 0.646" stroke="hsl(0.0,100%,35%)" stroke-width="0.00025"></path>
<path d="M1.533 0.215 Q1.600 0.146 1.479 0.098" stroke="hsl(0.0,100%,35%)" stroke-width="0.00354"></path>
<path d="M1.533 0.215 Q1.461 -0.016 0.994 -0.032" stroke="hsl(0.0,100%,35%)" stroke-width="0.00025"></path>
<path d="M1.533 0.215 Q1.379 0.156 1.230 0.218" stroke="hsl(0.0,100%,35%)" stroke-width="0.00227"></path>
<path d="M1.533 0.215 Q1.461 -0.022 0.981 -0.039" stroke="hsl(0.0,100%,35%)" stroke-width="0.00051"></path>
<path d="M0.951 0.391 Q1.450 0.350 1.479 0.098" stroke="hsl(180.0,100%,35%)" stroke-width="0.00025"></path>
<path d="M0.951 0.391 Q1.229 0.360 1.230 0.218" stroke="hsl(180.0,100%,35%)" stroke-width="0.00101"></path>
<path d="M0.951 0.391 Q1.310 0.182 0.981 -0.039" stroke="hsl(180.0,100%,35%)" stroke-width="0.00051"></path>
<path d="M1.949 0.543 Q1.931 0.059 0.981 -0.039" stroke="hsl(180.0,100%,35%)" stroke-width="0.00025"></path>
<path d="M1.949 0.543 Q1.932 0.408 1.665 0.387" stroke="hsl(180.0,100%,35%)" stroke-width="0.00101"></path>
<path d="M1.949 0.543 Q2.071 0.226 1.479 0.098" stroke="hsl(180.0,100%,35%)" stroke-width="0.00025"></path>
<path d="M1.949 0.543 Q1.873 0.442 1.659 0.458" stroke="hsl(180.0,100%,35%)" stroke-width="0.00025"></path>
<path d="M1.949 0.543 Q1.778 0.249 1.166 0.268" stroke="hsl(180.0,100%,35%)" stroke-width="0.00025"></path>
<path d="M0.582 0.112 Q0.425 0.231 0.623 0.333" stroke="hsl(0.0,100%,35%)" stroke-width="0.00985"></path>
<path d="M0.582 0.112 Q0.821 0.294 1.230 0.218" stroke="hsl(0.0,100%,35%)" stroke-width="0.01112"></path>
<path d="M0.582 0.112 Q0.902 0.116 0.981 -0.039" stroke="hsl(0.0,100%,35%)" stroke-width="0.00025"></path>
<path d="M1.744 0.252 Q1.514 0.132 1.230 0.218" stroke="hsl(180.0,100%,35%)" stroke-width="0.00025"></path>
<path d="M1.744 0.252 Q1.597 0.304 1.665 0.387" stroke="hsl(180.0,100%,35%)" stroke-width="0.00202"></path>
<path d="M1.744 0.252 Q1.614 0.439 1.949 0.543" stroke="hsl(180.0,100%,35%)" stroke-width="0.00126"></path>
<path d="M1.744 0.252 Q1.596 -0.046 0.981 -0.039" stroke="hsl(180.0,100%,35%)" stroke-width="0.00025"></path>
<path d="M1.744 0.252 Q1.442 0.145 1.166 0.268" stroke="hsl(180.0,100%,35%)" stroke-width="0.00051"></path>
<path d="M1.460 0.219 Q1.567 0.162 1.479 0.098" stroke="hsl(180.0,100%,35%)" stroke-width="0.00025"></path>
<path d="M1.460 0.219 Q1.427 -0.006 0.981 -0.039" stroke="hsl(180.0,100%,35%)" stroke-width="0.00025"></path>
<path d="M1.460 0.219 Q1.346 0.172 1.230 0.218" stroke="hsl(180.0,100%,35%)" stroke-width="0.00025"></path>
<path d="M1.460 0.219 Q1.499 0.084 1.245 0.036" stroke="hsl(180.0,100%,35%)" stroke-width="0.00025"></path>
<path d="M0.916 0.374 Q0.802 0.295 0.623 0.333" stroke="hsl(0.0,100%,35%)" stroke-width="0.00025"></path>
<path d="M0.916 0.374 Q1.180 0.460 1.404 0.350" stroke="hsl(0.0,100%,35%)" stroke-width="0.00025"></path>
<path d="M0.916 0.374 Q0.983 0.341 0.934 0.301" stroke="hsl(0.0,100%,35%)" stroke-width="0.00025"></path>
<path d="M1.424 0.224 Q1.553 0.172 1.479 0.098" stroke="hsl(180.0,100%,35%)" stroke-width="0.00101"></path>
<path d="M1.424 0.224 Q1.260 0.195 1.166 0.268" stroke="hsl(180.0,100%,35%)" stroke-width="0.00051"></path>
<path d="M1.424 0.224 Q1.118 0.165 0.934 0.301" stroke="hsl(180.0,100%,35%)" stroke-width="0.00025"></path>
<path d="M1.424 0.224 Q1.413 0.004 0.981 -0.039" stroke="hsl(180.0,100%,35%)" stroke-width="0.00051"></path>
<path d="M1.820 0.823 Q2.009 0.402 1.230 0.218" stroke="hsl(180.0,100%,35%)" stroke-width="0.00025"></path>
<path d="M1.820 0.823 Q1.718 0.740 1.534 0.772" stroke="hsl(180.0,100%,35%)" stroke-width="0.00025"></path>
<path d="M1.820 0.823 Q2.090 0.224 0.981 -0.039" stroke="hsl(180.0,100%,35%)" stroke-width="0.00025"></path>
<path d="M1.245 0.269 Q1.278 0.240 1.230 0.218" stroke="hsl(0.0,100%,35%)" stroke-width="0.00101"></path>
<path d="M1.245 0.269 Q1.499 0.230 1.479 0.098" stroke="hsl(0.0,100%,35%)" stroke-width="0.00227"></path>
<path d="M1.245 0.269 Q0.374 0.227 0.101 0.643" stroke="hsl(0.0,100%,35%)" stroke-width="0.00025"></path>
<path d="M1.245 0.269 Q1.359 0.062 0.981 -0.039" stroke="hsl(0.0,100%,35%)" stroke-width="0.00025"></path>
<path d="M1.391 0.108 Q1.222 0.131 1.230 0.218" stroke="hsl(0.0,100%,35%)" stroke-width="0.00101"></path>
<path d="M1.391 0.108 Q1.443 0.121 1.479 0.098" stroke="hsl(0.0,100%,35%)" stroke-width="0.00202"></path>
<path d="M1.391 0.108 Q1.375 0.043 1.245 0.036" stroke="hsl(0.0,100%,35%)" stroke-width="0.00025"></path>
<path d="M0.752 0.408 Q0.929 0.391 0.934 0.301" stroke="hsl(180.0,100%,35%)" stroke-width="0.00101"></path>
<path d="M0.752 0.408 Q1.226 0.580 1.665 0.387" stroke="hsl(180.0,100%,35%)" stroke-width="0.00051"></path>
<path d="M0.752 0.408 Q1.224 0.230 0.981 -0.039" stroke="hsl(180.0,100%,35%)" stroke-width="0.00051"></path>
<path d="M0.752 0.408 Q1.364 0.398 1.479 0.098" stroke="hsl(180.0,100%,35%)" stroke-width="0.00025"></path>
<path d="M1.038 0.356 Q1.172 0.338 1.166 0.268" stroke="hsl(180.0,100%,35%)" stroke-width="0.00025"></path>
<path d="M1.038 0.356 Q1.465 0.315 1.479 0.098" stroke="hsl(180.0,100%,35%)" stroke-width="0.00025"></path>
<path d="M1.038 0.356 Q1.325 0.147 0.981 -0.039" stroke="hsl(180.0,100%,35%)" stroke-width="0.00025"></path>
<path d="M1.006 -0.026 Q0.922 0.141 1.230 0.218" stroke="hsl(0.0,100%,35%)" stroke-width="0.00328"></path>
<path d="M1.006 -0.026 Q1.143 0.130 1.479 0.098" stroke="hsl(0.0,100%,35%)" stroke-width="0.00303"></path>
<path d="M1.006 -0.026 Q0.904 0.241 1.404 0.350" stroke="hsl(0.0,100%,35%)" stroke-width="0.00025"></path>
<path d="M1.006 -0.026 Q0.853 0.172 1.207 0.290" stroke="hsl(0.0,100%,35%)" stroke-width="0.00025"></path>
<path d="M1.006 -0.026 Q1.004 -0.032 0.994 -0.032" stroke="hsl(0.0,100%,35%)" stroke-width="0.00025"></path>
<path d="M1.006 -0.026 Q1.003 -0.038 0.981 -0.039" stroke="hsl(0.0,100%,35%)" stroke-width="0.00051"></path>
<path d="M1.006 -0.026 Q0.945 0.346 1.659 0.458" stroke="hsl(0.0,100%,35%)" stroke-width="0.00025"></path>
<path d="M1.006 -0.026 Q1.005 0.312 1.665 0.387" stroke="hsl(0.0,100%,35%)" stroke-width="0.00025"></path>
<path d="M1.006 -0.026 Q1.075 0.052 1.245 0.036" stroke="hsl(0.0,100%,35%)" stroke-width="0.00025"></path>
<path d="M0.989 0.259 Q1.142 0.286 1.230 0.218" stroke="hsl(180.0,100%,35%)" stroke-width="0.00303"></path>
<path d="M0.989 0.259 Q1.223 0.108 0.981 -0.039" stroke="hsl(180.0,100%,35%)" stroke-width="0.00202"></path>
<path d="M0.989 0.259 Q1.363 0.276 1.479 0.098" stroke="hsl(180.0,100%,35%)" stroke-width="0.00101"></path>
<path d="M0.989 0.259 Q1.070 0.299 1.166 0.268" stroke="hsl(180.0,100%,35%)" stroke-width="0.00076"></path>
<path d="M0.989 0.259 Q1.225 0.458 1.665 0.387" stroke="hsl(180.0,100%,35%)" stroke-width="0.00025"></path>
<path d="M0.989 0.259 Q0.746 0.223 0.623 0.333" stroke="hsl(180.0,100%,35%)" stroke-width="0.00025"></path>
<path d="M1.822 0.674 Q2.111 0.317 1.479 0.098" stroke="hsl(180.0,100%,35%)" stroke-width="0.00025"></path>
<path d="M1.822 0.674 Q1.924 0.648 1.896 0.592" stroke="hsl(180.0,100%,35%)" stroke-width="0.00025"></path>
<path d="M1.822 0.674 Q1.890 0.328 1.230 0.218" stroke="hsl(180.0,100%,35%)" stroke-width="0.00025"></path>
<path d="M1.887 0.697 Q2.023 0.148 0.981 -0.039" stroke="hsl(180.0,100%,35%)" stroke-width="0.00025"></path>
<path d="M1.887 0.697 Q1.975 0.646 1.896 0.592" stroke="hsl(180.0,100%,35%)" stroke-width="0.00025"></path>
<path d="M1.887 0.697 Q1.942 0.326 1.230 0.218" stroke="hsl(180.0,100%,35%)" stroke-width="0.00025"></path>
<path d="M1.463 0.460 Q1.623 0.464 1.665 0.387" stroke="hsl(180.0,100%,35%)" stroke-width="0.00025"></path>
<path d="M1.463 0.460 Q1.468 0.305 1.166 0.268" stroke="hsl(180.0,100%,35%)" stroke-width="0.00025"></path>
<path d="M1.237 -0.050 Q1.240 0.072 1.479 0.098" stroke="hsl(180.0,100%,35%)" stroke-width="0.00025"></path>
<path d="M1.237 -0.050 Q1.019 0.083 1.230 0.218" stroke="hsl(180.0,100%,35%)" stroke-width="0.00025"></path>
<path d="M1.237 -0.050 Q1.100 -0.095 0.981 -0.039" stroke="hsl(180.0,100%,35%)" stroke-width="0.00025"></path>
</g>
<text x="1.207" y="0.282" font-size="0.016789" fill="hsl(0.0,100%,20%)">abdolrashidi</text>
<text x="1.404" y="0.327" font-size="0.045945" fill="hsl(0.0,100%,20%)">cclao</text>
<text x="1.479" y="0.058" font-size="0.079730" fill="hsl(0.0,100%,20%)">syoussefi</text>
<text x="1.230" y="0.167" font-size="0.100910" fill="hsl(0.0,100%,20%)">jmadill</text>
<text x="1.665" y="0.372" font-size="0.030488" fill="hsl(180.0,100%,20%)">kbr</text>
<text x="1.305" y="0.792" font-size="0.008483" fill="hsl(180.0,100%,20%)">adkushwa</text>
<text x="1.534" y="0.769" font-size="0.005999" fill="hsl(180.0,100%,20%)">rafael.cintron</text>
<text x="0.981" y="-0.056" font-size="0.034109" fill="hsl(180.0,100%,20%)">geofflang</text>
<text x="1.237" y="0.272" font-size="0.015871" fill="hsl(0.0,100%,20%)">antonio.caggiano</text>
<text x="0.994" y="-0.047" font-size="0.028663" fill="hsl(0.0,100%,20%)">m.maiya</text>
<text x="1.559" y="0.106" font-size="0.004242" fill="hsl(0.0,100%,20%)">cstout</text>
<text x="1.210" y="0.359" font-size="0.002449" fill="hsl(0.0,100%,20%)">jvigilsamsung</text>
<text x="0.955" y="-0.024" font-size="0.005999" fill="hsl(0.0,100%,20%)">constantine.shablya</text>
<text x="1.490" y="0.298" font-size="0.028135" fill="hsl(0.0,100%,20%)">ianelliott</text>
<text x="0.914" y="0.221" font-size="0.020045" fill="hsl(0.0,100%,20%)">b.schade</text>
<text x="1.046" y="0.488" font-size="0.020923" fill="hsl(180.0,100%,20%)">lexa.knyazev</text>
<text x="1.245" y="0.006" font-size="0.059332" fill="hsl(0.0,100%,20%)">timvp</text>
<text x="0.623" y="0.304" font-size="0.059180" fill="hsl(0.0,100%,20%)">cnorthrop</text>
<text x="0.934" y="0.284" font-size="0.034719" fill="hsl(0.0,100%,20%)">ynovikov</text>
<text x="1.186" y="0.288" font-size="0.012725" fill="hsl(0.0,100%,20%)">romanl</text>
<text x="1.260" y="0.466" font-size="0.019591" fill="hsl(0.0,100%,20%)">lfy</text>
<text x="0.974" y="-0.090" font-size="0.008830" fill="hsl(0.0,100%,20%)">cheryl.wei</text>
<text x="1.228" y="0.237" font-size="0.004242" fill="hsl(180.0,100%,20%)">sunny.sun</text>
<text x="0.292" y="0.101" font-size="0.030684" fill="hsl(0.0,100%,20%)">lubosz.sarnecki</text>
<text x="0.714" y="0.123" font-size="0.039940" fill="hsl(0.0,100%,20%)">gert.wollny</text>
<text x="0.861" y="-1.652" font-size="0.003463" fill="hsl(180.0,100%,20%)">bajones</text>
<text x="0.952" y="-0.784" font-size="0.002449" fill="hsl(180.0,100%,20%)">zmo</text>
<text x="1.016" y="0.096" font-size="0.016428" fill="hsl(180.0,100%,20%)">penghuang</text>
<text x="1.001" y="0.257" font-size="0.002449" fill="hsl(180.0,100%,20%)">junov</text>
<text x="1.166" y="0.255" font-size="0.027049" fill="hsl(180.0,100%,20%)">jonahr</text>
<text x="0.878" y="0.690" font-size="0.002449" fill="hsl(180.0,100%,20%)">vikassoni</text>
<text x="1.867" y="0.499" font-size="0.025567" fill="hsl(180.0,100%,20%)">gman</text>
<text x="1.659" y="0.447" font-size="0.022040" fill="hsl(180.0,100%,20%)">kpiddington</text>
<text x="1.182" y="0.431" font-size="0.007347" fill="hsl(0.0,100%,20%)">hailinzhang</text>
<text x="0.262" y="0.562" font-size="0.004898" fill="hsl(0.0,100%,20%)">hans</text>
<text x="0.101" y="0.641" font-size="0.004898" fill="hsl(0.0,100%,20%)">thakis</text>
<text x="0.838" y="0.256" font-size="0.020923" fill="hsl(0.0,100%,20%)">yuxinhu</text>
<text x="1.758" y="0.256" font-size="0.003463" fill="hsl(0.0,100%,20%)">vantablack</text>
<text x="0.533" y="0.637" font-size="0.008122" fill="hsl(0.0,100%,20%)">natsu</text>
<text x="1.719" y="0.205" font-size="0.008122" fill="hsl(0.0,100%,20%)">mark</text>
<text x="1.533" y="0.209" font-size="0.012725" fill="hsl(0.0,100%,20%)">j.vigil</text>
<text x="0.779" y="0.644" font-size="0.003463" fill="hsl(0.0,100%,20%)">zzyiwei</text>
<text x="0.951" y="0.388" font-size="0.006926" fill="hsl(180.0,100%,20%)">jgilbert</text>
<text x="0.628" y="3.385" font-size="0.004242" fill="hsl(0.0,100%,20%)">bsheedy</text>
<text x="0.867" y="0.234" font-size="0.002449" fill="hsl(0.0,100%,20%)">brucedawson</text>
<text x="1.160" y="0.416" font-size="0.002449" fill="hsl(0.0,100%,20%)">tandrii</text>
<text x="0.984" y="0.564" font-size="0.002449" fill="hsl(0.0,100%,20%)">dpranke</text>
<text x="1.437" y="0.511" font-size="0.004242" fill="hsl(0.0,100%,20%)">nicolascapens</text>
<text x="1.178" y="0.300" font-size="0.002449" fill="hsl(0.0,100%,20%)">doughorn</text>
<text x="1.949" y="0.539" font-size="0.008830" fill="hsl(180.0,100%,20%)">johncunningham</text>
<text x="0.582" y="0.101" font-size="0.022444" fill="hsl(0.0,100%,20%)">jplate</text>
<text x="1.574" y="0.545" font-size="0.002449" fill="hsl(180.0,100%,20%)">ccameron</text>
<text x="1.744" y="0.247" font-size="0.010097" fill="hsl(180.0,100%,20%)">kkinnunen</text>
<text x="1.520" y="0.677" font-size="0.004898" fill="hsl(180.0,100%,20%)">le.hoang.q</text>
<text x="1.460" y="0.216" font-size="0.004898" fill="hsl(180.0,100%,20%)">kyle.griffiths</text>
<text x="0.916" y="0.372" font-size="0.004242" fill="hsl(0.0,100%,20%)">lunpujun</text>
<text x="1.424" y="0.220" font-size="0.007347" fill="hsl(180.0,100%,20%)">msisov</text>
<text x="1.820" y="0.821" font-size="0.004242" fill="hsl(180.0,100%,20%)">patrto</text>
<text x="1.245" y="0.264" font-size="0.009484" fill="hsl(0.0,100%,20%)">pkasting</text>
<text x="1.391" y="0.104" font-size="0.008830" fill="hsl(0.0,100%,20%)">sergeyu</text>
<text x="0.752" y="0.404" font-size="0.007347" fill="hsl(180.0,100%,20%)">shrekshao</text>
<text x="1.038" y="0.353" font-size="0.004242" fill="hsl(180.0,100%,20%)">srisser</text>
<text x="1.006" y="-0.034" font-size="0.014068" fill="hsl(0.0,100%,20%)">steven</text>
<text x="0.989" y="0.252" font-size="0.014279" fill="hsl(180.0,100%,20%)">sugoi</text>
<text x="1.172" y="0.393" font-size="0.002449" fill="hsl(0.0,100%,20%)">borenet</text>
<text x="1.565" y="0.476" font-size="0.002449" fill="hsl(0.0,100%,20%)">reveman</text>
<text x="1.822" y="0.672" font-size="0.004242" fill="hsl(180.0,100%,20%)">xing.xu</text>
<text x="1.896" y="0.591" font-size="0.003463" fill="hsl(180.0,100%,20%)">jiajia.qin</text>
<text x="1.887" y="0.695" font-size="0.004242" fill="hsl(180.0,100%,20%)">xinghua.cao</text>
<text x="1.463" y="0.459" font-size="0.003463" fill="hsl(180.0,100%,20%)">yahan</text>
<text x="1.237" y="-0.052" font-size="0.004242" fill="hsl(180.0,100%,20%)">yang.gu</text>
</svg>
