<svg width="4000" height="2000" viewBox="-0.025 -0.025 2.05 1.05" xmlns="http://www.w3.org/2000/svg">
  <style>
    path {
      fill: none;
      stroke-linecap: round;
      stroke-opacity: 0.4;
    }

    text {
      text-anchor: middle;
      alignment-baseline: hanging;
    }
  </style>
  <g opacity="0.4">
<path d="M1.099 0.208 Q0.180 0.459 0.469 0.962" stroke="hsl(0.0,100%,35%)" stroke-width="0.04070"></path>
<path d="M1.099 0.208 Q0.175 0.286 0.124 0.754" stroke="hsl(0.0,100%,35%)" stroke-width="0.02035"></path>
<path d="M1.099 0.208 Q0.809 0.609 1.528 0.838" stroke="hsl(0.0,100%,35%)" stroke-width="0.02035"></path>
<path d="M1.099 0.208 Q1.042 0.132 0.882 0.144" stroke="hsl(0.0,100%,35%)" stroke-width="0.02035"></path>
<path d="M0.469 0.962 Q0.569 1.057 0.776 1.029" stroke="hsl(0.0,100%,35%)" stroke-width="0.04070"></path>
<path d="M0.469 0.962 Q0.463 0.789 0.124 0.754" stroke="hsl(0.0,100%,35%)" stroke-width="0.04070"></path>
<path d="M0.469 0.962 Q1.098 1.112 1.528 0.838" stroke="hsl(0.0,100%,35%)" stroke-width="0.02035"></path>
<path d="M1.528 0.838 Q1.818 0.437 1.099 0.208" stroke="hsl(0.0,100%,35%)" stroke-width="0.02035"></path>
<path d="M1.528 0.838 Q1.352 0.797 1.234 0.874" stroke="hsl(0.0,100%,35%)" stroke-width="0.02035"></path>
<path d="M1.528 0.838 Q0.999 0.783 0.776 1.029" stroke="hsl(0.0,100%,35%)" stroke-width="0.02035"></path>
</g>
<text x="1.099" y="0.160" font-size="0.096077" fill="hsl(0.0,100%,20%)">romanl</text>
<text x="0.469" y="0.910" font-size="0.103775" fill="hsl(0.0,100%,20%)">syoussefi</text>
<text x="0.124" y="0.720" font-size="0.067937" fill="hsl(0.0,100%,20%)">abdolrashidi</text>
<text x="1.528" y="0.794" font-size="0.087706" fill="hsl(0.0,100%,20%)">ynovikov</text>
<text x="0.882" y="0.124" font-size="0.039223" fill="hsl(0.0,100%,20%)">cnorthrop</text>
<text x="0.776" y="0.995" font-size="0.067937" fill="hsl(0.0,100%,20%)">yuxinhu</text>
<text x="1.234" y="0.855" font-size="0.039223" fill="hsl(0.0,100%,20%)">solti</text>
</svg>
