<svg width="4000" height="2000" viewBox="-0.025 -0.025 2.05 1.05" xmlns="http://www.w3.org/2000/svg">
  <style>
    path {
      fill: none;
      stroke-linecap: round;
      stroke-opacity: 0.4;
    }

    text {
      text-anchor: middle;
      alignment-baseline: hanging;
    }
  </style>
  <g opacity="0.4">
<path d="M0.357 0.718 Q0.632 0.947 1.138 0.863" stroke="hsl(0.0,100%,35%)" stroke-width="0.00025"></path>
<path d="M0.357 0.718 Q0.245 0.911 0.598 1.008" stroke="hsl(0.0,100%,35%)" stroke-width="0.00099"></path>
<path d="M0.357 0.718 Q0.314 0.677 0.226 0.689" stroke="hsl(0.0,100%,35%)" stroke-width="0.00025"></path>
<path d="M1.138 0.863 Q0.751 0.828 0.598 1.008" stroke="hsl(0.0,100%,35%)" stroke-width="0.05346"></path>
<path d="M1.138 0.863 Q1.142 0.746 0.916 0.718" stroke="hsl(0.0,100%,35%)" stroke-width="0.01158"></path>
<path d="M1.138 0.863 Q0.958 0.844 0.882 0.927" stroke="hsl(0.0,100%,35%)" stroke-width="0.03005"></path>
<path d="M1.138 0.863 Q0.921 0.545 0.254 0.581" stroke="hsl(0.0,100%,35%)" stroke-width="0.00074"></path>
<path d="M1.138 0.863 Q0.862 0.484 0.063 0.535" stroke="hsl(0.0,100%,35%)" stroke-width="0.00025"></path>
<path d="M1.138 0.863 Q0.828 0.698 0.439 0.813" stroke="hsl(0.0,100%,35%)" stroke-width="0.00345"></path>
<path d="M1.138 0.863 Q1.021 0.759 0.793 0.793" stroke="hsl(0.0,100%,35%)" stroke-width="0.00468"></path>
<path d="M1.138 0.863 Q0.615 0.684 0.152 0.900" stroke="hsl(0.0,100%,35%)" stroke-width="0.00025"></path>
<path d="M1.138 0.863 Q0.708 0.629 0.158 0.787" stroke="hsl(0.0,100%,35%)" stroke-width="0.00468"></path>
<path d="M1.138 0.863 Q1.320 0.833 1.301 0.737" stroke="hsl(0.0,100%,35%)" stroke-width="0.00320"></path>
<path d="M1.138 0.863 Q0.916 0.825 0.792 0.924" stroke="hsl(0.0,100%,35%)" stroke-width="0.00025"></path>
<path d="M1.138 0.863 Q1.269 0.670 0.921 0.563" stroke="hsl(0.0,100%,35%)" stroke-width="0.00049"></path>
<path d="M1.138 0.863 Q0.820 0.594 0.226 0.689" stroke="hsl(0.0,100%,35%)" stroke-width="0.00099"></path>
<path d="M1.138 0.863 Q0.863 0.770 0.621 0.883" stroke="hsl(0.0,100%,35%)" stroke-width="0.00271"></path>
<path d="M1.138 0.863 Q1.256 0.910 1.375 0.863" stroke="hsl(0.0,100%,35%)" stroke-width="0.00025"></path>
<path d="M1.138 0.863 Q0.641 0.715 0.243 0.924" stroke="hsl(0.0,100%,35%)" stroke-width="0.00049"></path>
<path d="M1.138 0.863 Q0.872 0.645 0.388 0.727" stroke="hsl(0.0,100%,35%)" stroke-width="0.00025"></path>
<path d="M1.138 0.863 Q1.153 0.703 0.845 0.661" stroke="hsl(0.0,100%,35%)" stroke-width="0.00025"></path>
<path d="M1.138 0.863 Q0.917 0.696 0.542 0.767" stroke="hsl(0.0,100%,35%)" stroke-width="0.00099"></path>
<path d="M1.138 0.863 Q0.696 0.805 0.486 1.007" stroke="hsl(0.0,100%,35%)" stroke-width="0.00049"></path>
<path d="M1.138 0.863 Q0.821 0.918 0.860 1.084" stroke="hsl(0.0,100%,35%)" stroke-width="0.00025"></path>
<path d="M0.598 1.008 Q0.984 1.044 1.138 0.863" stroke="hsl(0.0,100%,35%)" stroke-width="0.01995"></path>
<path d="M0.598 1.008 Q1.166 1.013 1.301 0.737" stroke="hsl(0.0,100%,35%)" stroke-width="0.00345"></path>
<path d="M0.598 1.008 Q0.868 0.940 0.793 0.793" stroke="hsl(0.0,100%,35%)" stroke-width="0.02168"></path>
<path d="M0.598 1.008 Q0.763 0.876 0.542 0.767" stroke="hsl(0.0,100%,35%)" stroke-width="0.03671"></path>
<path d="M0.598 1.008 Q0.805 1.025 0.882 0.927" stroke="hsl(0.0,100%,35%)" stroke-width="0.03178"></path>
<path d="M0.598 1.008 Q0.942 0.850 0.708 0.647" stroke="hsl(0.0,100%,35%)" stroke-width="0.00025"></path>
<path d="M0.598 1.008 Q0.675 0.879 0.439 0.813" stroke="hsl(0.0,100%,35%)" stroke-width="0.00370"></path>
<path d="M0.598 1.008 Q0.555 0.810 0.158 0.787" stroke="hsl(0.0,100%,35%)" stroke-width="0.00936"></path>
<path d="M0.598 1.008 Q0.905 0.755 0.478 0.549" stroke="hsl(0.0,100%,35%)" stroke-width="0.00025"></path>
<path d="M0.598 1.008 Q0.809 0.603 0.065 0.411" stroke="hsl(0.0,100%,35%)" stroke-width="0.00025"></path>
<path d="M0.598 1.008 Q0.710 0.950 0.621 0.883" stroke="hsl(0.0,100%,35%)" stroke-width="0.02562"></path>
<path d="M0.598 1.008 Q0.864 0.881 0.674 0.723" stroke="hsl(0.0,100%,35%)" stroke-width="0.00025"></path>
<path d="M0.598 1.008 Q0.667 0.774 0.226 0.689" stroke="hsl(0.0,100%,35%)" stroke-width="0.01035"></path>
<path d="M0.598 1.008 Q0.894 0.899 0.746 0.731" stroke="hsl(0.0,100%,35%)" stroke-width="0.00074"></path>
<path d="M0.598 1.008 Q0.908 0.937 0.837 0.770" stroke="hsl(0.0,100%,35%)" stroke-width="0.00123"></path>
<path d="M0.598 1.008 Q0.709 0.665 0.063 0.535" stroke="hsl(0.0,100%,35%)" stroke-width="0.00025"></path>
<path d="M0.598 1.008 Q1.186 0.840 0.986 0.516" stroke="hsl(0.0,100%,35%)" stroke-width="0.00025"></path>
<path d="M0.598 1.008 Q0.989 0.927 0.916 0.718" stroke="hsl(0.0,100%,35%)" stroke-width="0.00665"></path>
<path d="M0.598 1.008 Q0.999 0.884 0.845 0.661" stroke="hsl(0.0,100%,35%)" stroke-width="0.00394"></path>
<path d="M0.598 1.008 Q0.543 0.985 0.486 1.007" stroke="hsl(0.0,100%,35%)" stroke-width="0.00123"></path>
<path d="M0.598 1.008 Q0.718 0.826 0.388 0.727" stroke="hsl(0.0,100%,35%)" stroke-width="0.00025"></path>
<path d="M0.598 1.008 Q0.488 0.895 0.243 0.924" stroke="hsl(0.0,100%,35%)" stroke-width="0.00049"></path>
<path d="M0.598 1.008 Q0.587 0.768 0.116 0.721" stroke="hsl(0.0,100%,35%)" stroke-width="0.00025"></path>
<path d="M0.598 1.008 Q0.767 0.726 0.254 0.581" stroke="hsl(0.0,100%,35%)" stroke-width="0.00049"></path>
<path d="M0.226 0.689 Q0.358 0.634 0.280 0.557" stroke="hsl(0.0,100%,35%)" stroke-width="0.00025"></path>
<path d="M0.226 0.689 Q0.114 0.725 0.158 0.787" stroke="hsl(0.0,100%,35%)" stroke-width="0.00591"></path>
<path d="M0.226 0.689 Q0.157 0.923 0.598 1.008" stroke="hsl(0.0,100%,35%)" stroke-width="0.00936"></path>
<path d="M0.226 0.689 Q0.426 0.855 0.793 0.793" stroke="hsl(0.0,100%,35%)" stroke-width="0.00025"></path>
<path d="M0.226 0.689 Q0.269 0.865 0.621 0.883" stroke="hsl(0.0,100%,35%)" stroke-width="0.00123"></path>
<path d="M0.226 0.689 Q0.322 0.791 0.542 0.767" stroke="hsl(0.0,100%,35%)" stroke-width="0.00049"></path>
<path d="M0.226 0.689 Q0.543 0.959 1.138 0.863" stroke="hsl(0.0,100%,35%)" stroke-width="0.00123"></path>
<path d="M0.226 0.689 Q0.364 0.940 0.882 0.927" stroke="hsl(0.0,100%,35%)" stroke-width="0.00739"></path>
<path d="M0.226 0.689 Q0.047 0.810 0.243 0.924" stroke="hsl(0.0,100%,35%)" stroke-width="0.00049"></path>
<path d="M0.226 0.689 Q0.368 0.518 0.065 0.411" stroke="hsl(0.0,100%,35%)" stroke-width="0.00049"></path>
<path d="M0.226 0.689 Q0.020 0.780 0.152 0.900" stroke="hsl(0.0,100%,35%)" stroke-width="0.00025"></path>
<path d="M0.226 0.689 Q0.254 0.623 0.131 0.595" stroke="hsl(0.0,100%,35%)" stroke-width="0.00025"></path>
<path d="M0.226 0.689 Q0.441 0.624 0.361 0.505" stroke="hsl(0.0,100%,35%)" stroke-width="0.00049"></path>
<path d="M0.226 0.689 Q0.352 0.585 0.176 0.500" stroke="hsl(0.0,100%,35%)" stroke-width="0.00025"></path>
<path d="M0.860 1.084 Q0.789 0.994 0.598 1.008" stroke="hsl(0.0,100%,35%)" stroke-width="0.00222"></path>
<path d="M0.860 1.084 Q0.910 0.811 0.388 0.727" stroke="hsl(0.0,100%,35%)" stroke-width="0.00025"></path>
<path d="M0.860 1.084 Q1.059 0.925 0.793 0.793" stroke="hsl(0.0,100%,35%)" stroke-width="0.00025"></path>
<path d="M0.860 1.084 Q1.176 1.029 1.138 0.863" stroke="hsl(0.0,100%,35%)" stroke-width="0.00049"></path>
<path d="M0.860 1.084 Q0.996 1.010 0.882 0.927" stroke="hsl(0.0,100%,35%)" stroke-width="0.00025"></path>
<path d="M0.860 1.084 Q0.858 0.760 0.226 0.689" stroke="hsl(0.0,100%,35%)" stroke-width="0.00148"></path>
<path d="M0.793 0.793 Q0.523 0.862 0.598 1.008" stroke="hsl(0.0,100%,35%)" stroke-width="0.00788"></path>
<path d="M0.793 0.793 Q0.329 0.914 0.464 1.167" stroke="hsl(0.0,100%,35%)" stroke-width="0.00025"></path>
<path d="M0.793 0.793 Q0.910 0.897 1.138 0.863" stroke="hsl(0.0,100%,35%)" stroke-width="0.00049"></path>
<path d="M0.793 0.793 Q0.600 0.732 0.439 0.813" stroke="hsl(0.0,100%,35%)" stroke-width="0.00025"></path>
<path d="M0.793 0.793 Q0.480 0.663 0.158 0.787" stroke="hsl(0.0,100%,35%)" stroke-width="0.00025"></path>
<path d="M0.793 0.793 Q0.592 0.628 0.226 0.689" stroke="hsl(0.0,100%,35%)" stroke-width="0.00049"></path>
<path d="M0.793 0.793 Q0.635 0.804 0.621 0.883" stroke="hsl(0.0,100%,35%)" stroke-width="0.00025"></path>
<path d="M0.882 0.927 Q0.840 0.779 0.542 0.767" stroke="hsl(0.0,100%,35%)" stroke-width="0.00394"></path>
<path d="M0.882 0.927 Q0.675 0.911 0.598 1.008" stroke="hsl(0.0,100%,35%)" stroke-width="0.02020"></path>
<path d="M0.882 0.927 Q1.061 0.946 1.138 0.863" stroke="hsl(0.0,100%,35%)" stroke-width="0.00764"></path>
<path d="M0.882 0.927 Q0.886 0.506 0.065 0.411" stroke="hsl(0.0,100%,35%)" stroke-width="0.00025"></path>
<path d="M0.882 0.927 Q1.066 0.829 0.916 0.718" stroke="hsl(0.0,100%,35%)" stroke-width="0.00591"></path>
<path d="M0.882 0.927 Q0.744 0.677 0.226 0.689" stroke="hsl(0.0,100%,35%)" stroke-width="0.00370"></path>
<path d="M0.882 0.927 Q0.787 0.853 0.621 0.883" stroke="hsl(0.0,100%,35%)" stroke-width="0.00616"></path>
<path d="M0.882 0.927 Q1.263 0.742 0.986 0.516" stroke="hsl(0.0,100%,35%)" stroke-width="0.00025"></path>
<path d="M0.882 0.927 Q0.945 0.842 0.793 0.793" stroke="hsl(0.0,100%,35%)" stroke-width="0.00049"></path>
<path d="M0.882 0.927 Q0.752 0.781 0.439 0.813" stroke="hsl(0.0,100%,35%)" stroke-width="0.00049"></path>
<path d="M0.882 0.927 Q1.076 0.787 0.845 0.661" stroke="hsl(0.0,100%,35%)" stroke-width="0.00049"></path>
<path d="M0.882 0.927 Q0.976 0.695 0.545 0.599" stroke="hsl(0.0,100%,35%)" stroke-width="0.00025"></path>
<path d="M1.011 0.530 Q0.422 0.686 0.598 1.008" stroke="hsl(0.0,100%,35%)" stroke-width="0.00222"></path>
<path d="M1.011 0.530 Q0.808 0.722 1.138 0.863" stroke="hsl(0.0,100%,35%)" stroke-width="0.00197"></path>
<path d="M1.011 0.530 Q0.491 0.453 0.226 0.689" stroke="hsl(0.0,100%,35%)" stroke-width="0.00099"></path>
<path d="M1.011 0.530 Q0.498 0.557 0.439 0.813" stroke="hsl(0.0,100%,35%)" stroke-width="0.00049"></path>
<path d="M1.011 0.530 Q0.823 0.562 0.845 0.661" stroke="hsl(0.0,100%,35%)" stroke-width="0.00025"></path>
<path d="M0.439 0.813 Q0.748 0.978 1.138 0.863" stroke="hsl(0.0,100%,35%)" stroke-width="0.00567"></path>
<path d="M0.439 0.813 Q0.362 0.943 0.598 1.008" stroke="hsl(0.0,100%,35%)" stroke-width="0.00690"></path>
<path d="M0.439 0.813 Q0.632 0.874 0.793 0.793" stroke="hsl(0.0,100%,35%)" stroke-width="0.00099"></path>
<path d="M0.439 0.813 Q0.569 0.959 0.882 0.927" stroke="hsl(0.0,100%,35%)" stroke-width="0.00271"></path>
<path d="M0.439 0.813 Q0.474 0.885 0.621 0.883" stroke="hsl(0.0,100%,35%)" stroke-width="0.00616"></path>
<path d="M0.439 0.813 Q0.753 0.861 0.916 0.718" stroke="hsl(0.0,100%,35%)" stroke-width="0.00222"></path>
<path d="M0.439 0.813 Q0.527 0.810 0.542 0.767" stroke="hsl(0.0,100%,35%)" stroke-width="0.00320"></path>
<path d="M0.439 0.813 Q0.431 0.709 0.226 0.689" stroke="hsl(0.0,100%,35%)" stroke-width="0.00123"></path>
<path d="M0.439 0.813 Q0.763 0.818 0.845 0.661" stroke="hsl(0.0,100%,35%)" stroke-width="0.00025"></path>
<path d="M0.845 0.661 Q0.512 0.551 0.226 0.689" stroke="hsl(0.0,100%,35%)" stroke-width="0.00025"></path>
<path d="M0.845 0.661 Q0.650 0.801 0.882 0.927" stroke="hsl(0.0,100%,35%)" stroke-width="0.00222"></path>
<path d="M0.845 0.661 Q0.555 0.727 0.621 0.883" stroke="hsl(0.0,100%,35%)" stroke-width="0.00271"></path>
<path d="M0.845 0.661 Q0.830 0.820 1.138 0.863" stroke="hsl(0.0,100%,35%)" stroke-width="0.00099"></path>
<path d="M0.845 0.661 Q0.444 0.785 0.598 1.008" stroke="hsl(0.0,100%,35%)" stroke-width="0.00493"></path>
<path d="M0.845 0.661 Q0.609 0.653 0.542 0.767" stroke="hsl(0.0,100%,35%)" stroke-width="0.00049"></path>
<path d="M0.845 0.661 Q1.012 0.790 1.301 0.737" stroke="hsl(0.0,100%,35%)" stroke-width="0.00049"></path>
<path d="M0.845 0.661 Q0.520 0.656 0.439 0.813" stroke="hsl(0.0,100%,35%)" stroke-width="0.00074"></path>
<path d="M0.845 0.661 Q0.835 0.704 0.916 0.718" stroke="hsl(0.0,100%,35%)" stroke-width="0.00222"></path>
<path d="M0.845 0.661 Q0.713 0.717 0.793 0.793" stroke="hsl(0.0,100%,35%)" stroke-width="0.00025"></path>
<path d="M0.845 0.661 Q0.400 0.587 0.158 0.787" stroke="hsl(0.0,100%,35%)" stroke-width="0.00025"></path>
<path d="M0.792 0.924 Q0.628 0.928 0.598 1.008" stroke="hsl(0.0,100%,35%)" stroke-width="0.00271"></path>
<path d="M0.792 0.924 Q1.014 0.963 1.138 0.863" stroke="hsl(0.0,100%,35%)" stroke-width="0.00172"></path>
<path d="M0.792 0.924 Q1.019 0.846 0.916 0.718" stroke="hsl(0.0,100%,35%)" stroke-width="0.00049"></path>
<path d="M0.792 0.924 Q0.835 0.944 0.882 0.927" stroke="hsl(0.0,100%,35%)" stroke-width="0.00074"></path>
<path d="M0.792 0.924 Q0.793 0.795 0.542 0.767" stroke="hsl(0.0,100%,35%)" stroke-width="0.00025"></path>
<path d="M0.792 0.924 Q1.029 0.803 0.845 0.661" stroke="hsl(0.0,100%,35%)" stroke-width="0.00025"></path>
<path d="M0.916 0.718 Q0.911 0.835 1.138 0.863" stroke="hsl(0.0,100%,35%)" stroke-width="0.00838"></path>
<path d="M0.916 0.718 Q0.732 0.816 0.882 0.927" stroke="hsl(0.0,100%,35%)" stroke-width="0.01158"></path>
<path d="M0.916 0.718 Q0.525 0.800 0.598 1.008" stroke="hsl(0.0,100%,35%)" stroke-width="0.01651"></path>
<path d="M0.916 0.718 Q0.601 0.670 0.439 0.813" stroke="hsl(0.0,100%,35%)" stroke-width="0.00320"></path>
<path d="M0.916 0.718 Q0.637 0.742 0.621 0.883" stroke="hsl(0.0,100%,35%)" stroke-width="0.00493"></path>
<path d="M0.916 0.718 Q1.093 0.805 1.301 0.737" stroke="hsl(0.0,100%,35%)" stroke-width="0.00025"></path>
<path d="M0.916 0.718 Q0.594 0.566 0.226 0.689" stroke="hsl(0.0,100%,35%)" stroke-width="0.00025"></path>
<path d="M0.916 0.718 Q1.043 0.642 0.921 0.563" stroke="hsl(0.0,100%,35%)" stroke-width="0.00025"></path>
<path d="M0.916 0.718 Q0.926 0.675 0.845 0.661" stroke="hsl(0.0,100%,35%)" stroke-width="0.00049"></path>
<path d="M0.542 0.767 Q0.376 0.899 0.598 1.008" stroke="hsl(0.0,100%,35%)" stroke-width="0.02562"></path>
<path d="M0.542 0.767 Q0.583 0.915 0.882 0.927" stroke="hsl(0.0,100%,35%)" stroke-width="0.00345"></path>
<path d="M0.542 0.767 Q0.763 0.934 1.138 0.863" stroke="hsl(0.0,100%,35%)" stroke-width="0.00074"></path>
<path d="M0.542 0.767 Q0.488 0.841 0.621 0.883" stroke="hsl(0.0,100%,35%)" stroke-width="0.01158"></path>
<path d="M0.542 0.767 Q0.767 0.817 0.916 0.718" stroke="hsl(0.0,100%,35%)" stroke-width="0.00025"></path>
<path d="M0.542 0.767 Q0.945 0.904 1.301 0.737" stroke="hsl(0.0,100%,35%)" stroke-width="0.00025"></path>
<path d="M0.542 0.767 Q0.322 0.876 0.486 1.007" stroke="hsl(0.0,100%,35%)" stroke-width="0.00345"></path>
<path d="M0.542 0.767 Q0.453 0.769 0.439 0.813" stroke="hsl(0.0,100%,35%)" stroke-width="0.00025"></path>
<path d="M0.542 0.767 Q0.445 0.665 0.226 0.689" stroke="hsl(0.0,100%,35%)" stroke-width="0.00025"></path>
<path d="M0.344 0.448 Q0.330 0.525 0.478 0.549" stroke="hsl(0.0,100%,35%)" stroke-width="0.00025"></path>
<path d="M0.344 0.448 Q0.091 0.545 0.226 0.689" stroke="hsl(0.0,100%,35%)" stroke-width="0.00025"></path>
<path d="M0.344 0.448 Q0.366 0.620 0.708 0.647" stroke="hsl(0.0,100%,35%)" stroke-width="0.00025"></path>
<path d="M0.478 0.549 Q0.557 0.838 1.138 0.863" stroke="hsl(0.0,100%,35%)" stroke-width="0.00025"></path>
<path d="M0.478 0.549 Q0.240 0.569 0.226 0.689" stroke="hsl(0.0,100%,35%)" stroke-width="0.00049"></path>
<path d="M0.478 0.549 Q0.128 0.604 0.158 0.787" stroke="hsl(0.0,100%,35%)" stroke-width="0.00025"></path>
<path d="M0.478 0.549 Q0.171 0.803 0.598 1.008" stroke="hsl(0.0,100%,35%)" stroke-width="0.00025"></path>
<path d="M0.708 0.647 Q0.364 0.806 0.598 1.008" stroke="hsl(0.0,100%,35%)" stroke-width="0.00049"></path>
<path d="M0.708 0.647 Q0.571 0.822 0.882 0.927" stroke="hsl(0.0,100%,35%)" stroke-width="0.00025"></path>
<path d="M0.708 0.647 Q0.433 0.572 0.226 0.689" stroke="hsl(0.0,100%,35%)" stroke-width="0.00025"></path>
<path d="M0.621 0.883 Q0.509 0.941 0.598 1.008" stroke="hsl(0.0,100%,35%)" stroke-width="0.00788"></path>
<path d="M0.621 0.883 Q0.896 0.976 1.138 0.863" stroke="hsl(0.0,100%,35%)" stroke-width="0.00320"></path>
<path d="M0.621 0.883 Q0.716 0.957 0.882 0.927" stroke="hsl(0.0,100%,35%)" stroke-width="0.00468"></path>
<path d="M0.621 0.883 Q0.779 0.872 0.793 0.793" stroke="hsl(0.0,100%,35%)" stroke-width="0.00025"></path>
<path d="M0.621 0.883 Q0.675 0.809 0.542 0.767" stroke="hsl(0.0,100%,35%)" stroke-width="0.00296"></path>
<path d="M0.621 0.883 Q0.586 0.812 0.439 0.813" stroke="hsl(0.0,100%,35%)" stroke-width="0.00197"></path>
<path d="M0.621 0.883 Q0.900 0.859 0.916 0.718" stroke="hsl(0.0,100%,35%)" stroke-width="0.00074"></path>
<path d="M0.621 0.883 Q0.578 0.707 0.226 0.689" stroke="hsl(0.0,100%,35%)" stroke-width="0.00123"></path>
<path d="M0.621 0.883 Q0.911 0.817 0.845 0.661" stroke="hsl(0.0,100%,35%)" stroke-width="0.00074"></path>
<path d="M1.301 0.737 Q0.733 0.732 0.598 1.008" stroke="hsl(0.0,100%,35%)" stroke-width="0.01922"></path>
<path d="M1.301 0.737 Q1.119 0.767 1.138 0.863" stroke="hsl(0.0,100%,35%)" stroke-width="0.01552"></path>
<path d="M1.301 0.737 Q0.898 0.600 0.542 0.767" stroke="hsl(0.0,100%,35%)" stroke-width="0.00148"></path>
<path d="M1.301 0.737 Q0.940 0.748 0.882 0.927" stroke="hsl(0.0,100%,35%)" stroke-width="0.00222"></path>
<path d="M1.301 0.737 Q0.845 0.674 0.621 0.883" stroke="hsl(0.0,100%,35%)" stroke-width="0.00172"></path>
<path d="M1.301 0.737 Q0.802 0.498 0.226 0.689" stroke="hsl(0.0,100%,35%)" stroke-width="0.00148"></path>
<path d="M1.301 0.737 Q0.809 0.603 0.439 0.813" stroke="hsl(0.0,100%,35%)" stroke-width="0.00025"></path>
<path d="M1.301 0.737 Q1.134 0.608 0.845 0.661" stroke="hsl(0.0,100%,35%)" stroke-width="0.00074"></path>
<path d="M0.486 1.007 Q0.541 1.030 0.598 1.008" stroke="hsl(0.0,100%,35%)" stroke-width="0.00936"></path>
<path d="M0.486 1.007 Q0.706 0.898 0.542 0.767" stroke="hsl(0.0,100%,35%)" stroke-width="0.00714"></path>
<path d="M0.486 1.007 Q0.927 1.065 1.138 0.863" stroke="hsl(0.0,100%,35%)" stroke-width="0.00123"></path>
<path d="M0.486 1.007 Q0.748 1.046 0.882 0.927" stroke="hsl(0.0,100%,35%)" stroke-width="0.00025"></path>
<path d="M0.158 0.787 Q0.201 0.986 0.598 1.008" stroke="hsl(0.0,100%,35%)" stroke-width="0.00690"></path>
<path d="M0.158 0.787 Q0.270 0.752 0.226 0.689" stroke="hsl(0.0,100%,35%)" stroke-width="0.00468"></path>
<path d="M0.158 0.787 Q0.587 1.021 1.138 0.863" stroke="hsl(0.0,100%,35%)" stroke-width="0.00345"></path>
<path d="M0.158 0.787 Q0.091 0.873 0.243 0.924" stroke="hsl(0.0,100%,35%)" stroke-width="0.00074"></path>
<path d="M0.158 0.787 Q0.471 0.917 0.793 0.793" stroke="hsl(0.0,100%,35%)" stroke-width="0.00025"></path>
<path d="M0.158 0.787 Q0.408 1.002 0.882 0.927" stroke="hsl(0.0,100%,35%)" stroke-width="0.00074"></path>
<path d="M0.158 0.787 Q0.508 0.732 0.478 0.549" stroke="hsl(0.0,100%,35%)" stroke-width="0.00049"></path>
<path d="M0.158 0.787 Q0.602 0.862 0.845 0.661" stroke="hsl(0.0,100%,35%)" stroke-width="0.00049"></path>
<path d="M0.949 1.133 Q0.873 1.000 0.598 1.008" stroke="hsl(0.0,100%,35%)" stroke-width="0.00197"></path>
<path d="M0.949 1.133 Q1.259 1.036 1.138 0.863" stroke="hsl(0.0,100%,35%)" stroke-width="0.00025"></path>
<path d="M0.825 0.687 Q0.841 0.837 1.138 0.863" stroke="hsl(0.0,100%,35%)" stroke-width="0.00025"></path>
<path d="M0.825 0.687 Q0.454 0.802 0.598 1.008" stroke="hsl(0.0,100%,35%)" stroke-width="0.00074"></path>
<path d="M0.825 0.687 Q0.845 0.721 0.916 0.718" stroke="hsl(0.0,100%,35%)" stroke-width="0.00025"></path>
<path d="M0.280 0.557 Q0.464 0.882 1.138 0.863" stroke="hsl(0.0,100%,35%)" stroke-width="0.00099"></path>
<path d="M0.280 0.557 Q0.078 0.847 0.598 1.008" stroke="hsl(0.0,100%,35%)" stroke-width="0.00222"></path>
<path d="M0.280 0.557 Q0.147 0.613 0.226 0.689" stroke="hsl(0.0,100%,35%)" stroke-width="0.00123"></path>
<path d="M0.280 0.557 Q0.035 0.648 0.158 0.787" stroke="hsl(0.0,100%,35%)" stroke-width="0.00123"></path>
<path d="M0.243 0.924 Q0.310 0.839 0.158 0.787" stroke="hsl(0.0,100%,35%)" stroke-width="0.00271"></path>
<path d="M0.243 0.924 Q0.422 0.803 0.226 0.689" stroke="hsl(0.0,100%,35%)" stroke-width="0.00296"></path>
<path d="M0.243 0.924 Q0.353 1.037 0.598 1.008" stroke="hsl(0.0,100%,35%)" stroke-width="0.00148"></path>
<path d="M0.243 0.924 Q0.217 0.893 0.152 0.900" stroke="hsl(0.0,100%,35%)" stroke-width="0.00025"></path>
<path d="M0.243 0.924 Q0.740 1.072 1.138 0.863" stroke="hsl(0.0,100%,35%)" stroke-width="0.00025"></path>
<path d="M0.243 0.924 Q0.623 0.969 0.793 0.793" stroke="hsl(0.0,100%,35%)" stroke-width="0.00025"></path>
<path d="M0.065 0.411 Q-0.147 0.816 0.598 1.008" stroke="hsl(0.0,100%,35%)" stroke-width="0.00222"></path>
<path d="M0.065 0.411 Q0.240 0.851 1.138 0.863" stroke="hsl(0.0,100%,35%)" stroke-width="0.00074"></path>
<path d="M0.065 0.411 Q-0.078 0.582 0.226 0.689" stroke="hsl(0.0,100%,35%)" stroke-width="0.00246"></path>
<path d="M0.152 0.900 Q0.674 1.078 1.138 0.863" stroke="hsl(0.0,100%,35%)" stroke-width="0.00148"></path>
<path d="M0.152 0.900 Q0.178 0.930 0.243 0.924" stroke="hsl(0.0,100%,35%)" stroke-width="0.00542"></path>
<path d="M0.152 0.900 Q0.245 0.845 0.158 0.787" stroke="hsl(0.0,100%,35%)" stroke-width="0.00320"></path>
<path d="M0.152 0.900 Q0.288 1.043 0.598 1.008" stroke="hsl(0.0,100%,35%)" stroke-width="0.00074"></path>
<path d="M0.152 0.900 Q0.357 0.809 0.226 0.689" stroke="hsl(0.0,100%,35%)" stroke-width="0.00099"></path>
<path d="M0.152 0.900 Q0.589 0.828 0.545 0.599" stroke="hsl(0.0,100%,35%)" stroke-width="0.00025"></path>
<path d="M0.131 0.595 Q0.145 0.552 0.063 0.535" stroke="hsl(0.0,100%,35%)" stroke-width="0.00148"></path>
<path d="M0.131 0.595 Q0.034 0.895 0.598 1.008" stroke="hsl(0.0,100%,35%)" stroke-width="0.00517"></path>
<path d="M0.131 0.595 Q-0.076 0.782 0.243 0.924" stroke="hsl(0.0,100%,35%)" stroke-width="0.00049"></path>
<path d="M0.131 0.595 Q0.420 0.930 1.138 0.863" stroke="hsl(0.0,100%,35%)" stroke-width="0.00123"></path>
<path d="M0.131 0.595 Q0.103 0.661 0.226 0.689" stroke="hsl(0.0,100%,35%)" stroke-width="0.00394"></path>
<path d="M0.131 0.595 Q-0.009 0.697 0.158 0.787" stroke="hsl(0.0,100%,35%)" stroke-width="0.00148"></path>
<path d="M0.652 0.631 Q0.709 0.844 1.138 0.863" stroke="hsl(0.0,100%,35%)" stroke-width="0.00025"></path>
<path d="M0.652 0.631 Q0.323 0.809 0.598 1.008" stroke="hsl(0.0,100%,35%)" stroke-width="0.00123"></path>
<path d="M0.652 0.631 Q0.724 0.685 0.845 0.661" stroke="hsl(0.0,100%,35%)" stroke-width="0.00025"></path>
<path d="M0.545 0.599 Q0.312 0.580 0.226 0.689" stroke="hsl(0.0,100%,35%)" stroke-width="0.00197"></path>
<path d="M0.545 0.599 Q0.630 0.849 1.138 0.863" stroke="hsl(0.0,100%,35%)" stroke-width="0.00025"></path>
<path d="M0.545 0.599 Q0.244 0.814 0.598 1.008" stroke="hsl(0.0,100%,35%)" stroke-width="0.00148"></path>
<path d="M0.545 0.599 Q0.200 0.616 0.158 0.787" stroke="hsl(0.0,100%,35%)" stroke-width="0.00025"></path>
<path d="M1.706 0.692 Q0.899 0.629 0.598 1.008" stroke="hsl(0.0,100%,35%)" stroke-width="0.00099"></path>
<path d="M1.706 0.692 Q1.285 0.664 1.138 0.863" stroke="hsl(0.0,100%,35%)" stroke-width="0.00025"></path>
<path d="M1.706 0.692 Q0.968 0.395 0.226 0.689" stroke="hsl(0.0,100%,35%)" stroke-width="0.00099"></path>
<path d="M1.706 0.692 Q0.856 0.430 0.158 0.787" stroke="hsl(0.0,100%,35%)" stroke-width="0.00049"></path>
<path d="M1.706 0.692 Q0.789 0.516 0.243 0.924" stroke="hsl(0.0,100%,35%)" stroke-width="0.00025"></path>
<path d="M1.941 0.596 Q1.747 0.597 1.706 0.692" stroke="hsl(0.0,100%,35%)" stroke-width="0.00049"></path>
<path d="M1.941 0.596 Q1.326 0.569 1.138 0.863" stroke="hsl(0.0,100%,35%)" stroke-width="0.00025"></path>
<path d="M1.941 0.596 Q1.009 0.300 0.226 0.689" stroke="hsl(0.0,100%,35%)" stroke-width="0.00025"></path>
<path d="M1.941 0.596 Q0.897 0.335 0.158 0.787" stroke="hsl(0.0,100%,35%)" stroke-width="0.00025"></path>
<path d="M0.792 0.682 Q0.434 0.806 0.598 1.008" stroke="hsl(0.0,100%,35%)" stroke-width="0.00123"></path>
<path d="M0.792 0.682 Q0.820 0.841 1.138 0.863" stroke="hsl(0.0,100%,35%)" stroke-width="0.00025"></path>
<path d="M0.792 0.682 Q0.390 0.608 0.158 0.787" stroke="hsl(0.0,100%,35%)" stroke-width="0.00025"></path>
<path d="M0.116 0.721 Q0.196 0.727 0.226 0.689" stroke="hsl(0.0,100%,35%)" stroke-width="0.00025"></path>
<path d="M0.116 0.721 Q0.127 0.961 0.598 1.008" stroke="hsl(0.0,100%,35%)" stroke-width="0.00049"></path>
<path d="M0.116 0.721 Q0.084 0.762 0.158 0.787" stroke="hsl(0.0,100%,35%)" stroke-width="0.00025"></path>
<path d="M0.254 0.581 Q0.084 0.864 0.598 1.008" stroke="hsl(0.0,100%,35%)" stroke-width="0.00443"></path>
<path d="M0.254 0.581 Q0.196 0.806 0.621 0.883" stroke="hsl(0.0,100%,35%)" stroke-width="0.00025"></path>
<path d="M0.254 0.581 Q0.153 0.630 0.226 0.689" stroke="hsl(0.0,100%,35%)" stroke-width="0.00271"></path>
<path d="M0.254 0.581 Q0.161 0.734 0.439 0.813" stroke="hsl(0.0,100%,35%)" stroke-width="0.00025"></path>
<path d="M0.254 0.581 Q0.471 0.899 1.138 0.863" stroke="hsl(0.0,100%,35%)" stroke-width="0.00049"></path>
<path d="M0.254 0.581 Q0.291 0.880 0.882 0.927" stroke="hsl(0.0,100%,35%)" stroke-width="0.00025"></path>
<path d="M0.039 0.700 Q0.140 0.732 0.226 0.689" stroke="hsl(0.0,100%,35%)" stroke-width="0.00049"></path>
<path d="M0.039 0.700 Q0.071 0.966 0.598 1.008" stroke="hsl(0.0,100%,35%)" stroke-width="0.00025"></path>
<path d="M0.227 0.836 Q0.232 0.798 0.158 0.787" stroke="hsl(0.0,100%,35%)" stroke-width="0.00862"></path>
<path d="M0.227 0.836 Q0.165 0.884 0.243 0.924" stroke="hsl(0.0,100%,35%)" stroke-width="0.00074"></path>
<path d="M0.227 0.836 Q0.275 0.997 0.598 1.008" stroke="hsl(0.0,100%,35%)" stroke-width="0.01355"></path>
<path d="M0.227 0.836 Q0.661 1.032 1.138 0.863" stroke="hsl(0.0,100%,35%)" stroke-width="0.00172"></path>
<path d="M0.227 0.836 Q0.344 0.763 0.226 0.689" stroke="hsl(0.0,100%,35%)" stroke-width="0.00025"></path>
<path d="M0.227 0.836 Q0.351 0.867 0.439 0.813" stroke="hsl(0.0,100%,35%)" stroke-width="0.00025"></path>
<path d="M0.029 0.571 Q0.350 0.939 1.138 0.863" stroke="hsl(0.0,100%,35%)" stroke-width="0.00025"></path>
<path d="M0.029 0.571 Q0.032 0.669 0.226 0.689" stroke="hsl(0.0,100%,35%)" stroke-width="0.00123"></path>
<path d="M0.029 0.571 Q0.133 0.621 0.254 0.581" stroke="hsl(0.0,100%,35%)" stroke-width="0.00049"></path>
<path d="M0.462 0.622 Q0.607 0.877 1.138 0.863" stroke="hsl(0.0,100%,35%)" stroke-width="0.00025"></path>
<path d="M0.462 0.622 Q0.221 0.842 0.598 1.008" stroke="hsl(0.0,100%,35%)" stroke-width="0.00025"></path>
<path d="M0.462 0.622 Q0.428 0.858 0.882 0.927" stroke="hsl(0.0,100%,35%)" stroke-width="0.00049"></path>
<path d="M0.462 0.622 Q0.290 0.608 0.226 0.689" stroke="hsl(0.0,100%,35%)" stroke-width="0.00049"></path>
<path d="M0.788 1.075 Q0.746 1.003 0.598 1.008" stroke="hsl(0.0,100%,35%)" stroke-width="0.00123"></path>
<path d="M0.788 1.075 Q0.953 1.020 0.882 0.927" stroke="hsl(0.0,100%,35%)" stroke-width="0.00049"></path>
<path d="M0.788 1.075 Q0.815 0.769 0.226 0.689" stroke="hsl(0.0,100%,35%)" stroke-width="0.00074"></path>
<path d="M0.804 0.637 Q0.404 0.782 0.598 1.008" stroke="hsl(0.0,100%,35%)" stroke-width="0.00049"></path>
<path d="M0.804 0.637 Q0.611 0.798 0.882 0.927" stroke="hsl(0.0,100%,35%)" stroke-width="0.00025"></path>
<path d="M0.804 0.637 Q0.791 0.817 1.138 0.863" stroke="hsl(0.0,100%,35%)" stroke-width="0.00025"></path>
<path d="M0.698 0.614 Q0.616 0.702 0.770 0.762" stroke="hsl(0.0,100%,35%)" stroke-width="0.00049"></path>
<path d="M0.698 0.614 Q0.333 0.791 0.598 1.008" stroke="hsl(0.0,100%,35%)" stroke-width="0.00025"></path>
<path d="M0.698 0.614 Q0.602 0.723 0.793 0.793" stroke="hsl(0.0,100%,35%)" stroke-width="0.00025"></path>
<path d="M0.770 0.762 Q0.487 0.851 0.598 1.008" stroke="hsl(0.0,100%,35%)" stroke-width="0.00099"></path>
<path d="M0.770 0.762 Q0.599 0.793 0.621 0.883" stroke="hsl(0.0,100%,35%)" stroke-width="0.00025"></path>
<path d="M0.899 0.666 Q0.475 0.777 0.598 1.008" stroke="hsl(0.0,100%,35%)" stroke-width="0.00049"></path>
<path d="M0.899 0.666 Q0.861 0.812 1.138 0.863" stroke="hsl(0.0,100%,35%)" stroke-width="0.00025"></path>
<path d="M0.899 0.666 Q0.640 0.645 0.542 0.767" stroke="hsl(0.0,100%,35%)" stroke-width="0.00025"></path>
<path d="M0.608 0.330 Q0.130 0.433 0.226 0.689" stroke="hsl(0.0,100%,35%)" stroke-width="0.00074"></path>
<path d="M0.608 0.330 Q0.061 0.667 0.598 1.008" stroke="hsl(0.0,100%,35%)" stroke-width="0.00099"></path>
<path d="M1.176 0.681 Q0.625 0.729 0.598 1.008" stroke="hsl(0.0,100%,35%)" stroke-width="0.00271"></path>
<path d="M1.176 0.681 Q1.011 0.764 1.138 0.863" stroke="hsl(0.0,100%,35%)" stroke-width="0.00172"></path>
<path d="M1.176 0.681 Q1.327 0.680 1.359 0.607" stroke="hsl(0.0,100%,35%)" stroke-width="0.00025"></path>
<path d="M1.176 0.681 Q0.694 0.495 0.226 0.689" stroke="hsl(0.0,100%,35%)" stroke-width="0.00025"></path>
<path d="M1.782 0.811 Q1.032 0.673 0.598 1.008" stroke="hsl(0.0,100%,35%)" stroke-width="0.00197"></path>
<path d="M1.782 0.811 Q1.838 0.736 1.706 0.692" stroke="hsl(0.0,100%,35%)" stroke-width="0.00197"></path>
<path d="M1.782 0.811 Q1.418 0.708 1.138 0.863" stroke="hsl(0.0,100%,35%)" stroke-width="0.00025"></path>
<path d="M1.782 0.811 Q1.101 0.439 0.226 0.689" stroke="hsl(0.0,100%,35%)" stroke-width="0.00049"></path>
<path d="M1.782 0.811 Q0.922 0.560 0.243 0.924" stroke="hsl(0.0,100%,35%)" stroke-width="0.00049"></path>
<path d="M1.000 0.747 Q0.590 0.797 0.598 1.008" stroke="hsl(0.0,100%,35%)" stroke-width="0.00246"></path>
<path d="M1.000 0.747 Q0.976 0.832 1.138 0.863" stroke="hsl(0.0,100%,35%)" stroke-width="0.00123"></path>
<path d="M1.000 0.747 Q0.659 0.563 0.226 0.689" stroke="hsl(0.0,100%,35%)" stroke-width="0.00025"></path>
<path d="M1.000 0.747 Q0.755 0.665 0.542 0.767" stroke="hsl(0.0,100%,35%)" stroke-width="0.00025"></path>
</g>
<text x="0.357" y="0.715" font-size="0.006204" fill="hsl(0.0,100%,20%)">aleino</text>
<text x="1.138" y="0.826" font-size="0.073185" fill="hsl(0.0,100%,20%)">syoussefi</text>
<text x="0.598" y="0.956" font-size="0.105372" fill="hsl(0.0,100%,20%)">jmadill</text>
<text x="0.226" y="0.667" font-size="0.045517" fill="hsl(0.0,100%,20%)">geofflang</text>
<text x="0.860" y="1.078" font-size="0.011606" fill="hsl(0.0,100%,20%)">amaiorano</text>
<text x="0.388" y="0.725" font-size="0.004387" fill="hsl(0.0,100%,20%)">nicolascapens</text>
<text x="0.793" y="0.777" font-size="0.032036" fill="hsl(0.0,100%,20%)">ynovikov</text>
<text x="0.882" y="0.896" font-size="0.062398" fill="hsl(0.0,100%,20%)">timvp</text>
<text x="1.011" y="0.524" font-size="0.012407" fill="hsl(0.0,100%,20%)">amy.liu</text>
<text x="0.439" y="0.796" font-size="0.034073" fill="hsl(0.0,100%,20%)">ianelliott</text>
<text x="0.845" y="0.649" font-size="0.024815" fill="hsl(0.0,100%,20%)">tobine</text>
<text x="0.792" y="0.918" font-size="0.012914" fill="hsl(0.0,100%,20%)">b.schade</text>
<text x="0.916" y="0.696" font-size="0.044520" fill="hsl(0.0,100%,20%)">cclao</text>
<text x="0.542" y="0.741" font-size="0.052028" fill="hsl(0.0,100%,20%)">cnorthrop</text>
<text x="0.344" y="0.446" font-size="0.004387" fill="hsl(0.0,100%,20%)">ccameron</text>
<text x="0.478" y="0.546" font-size="0.007598" fill="hsl(0.0,100%,20%)">cwallez</text>
<text x="0.708" y="0.644" font-size="0.006204" fill="hsl(0.0,100%,20%)">lfy</text>
<text x="0.621" y="0.859" font-size="0.047652" fill="hsl(0.0,100%,20%)">courtneygo</text>
<text x="1.301" y="0.719" font-size="0.036174" fill="hsl(0.0,100%,20%)">m.maiya</text>
<text x="0.921" y="0.561" font-size="0.004387" fill="hsl(0.0,100%,20%)">sunny.sun</text>
<text x="0.486" y="0.995" font-size="0.024555" fill="hsl(0.0,100%,20%)">nguyenmh</text>
<text x="0.158" y="0.768" font-size="0.038576" fill="hsl(0.0,100%,20%)">jonahr</text>
<text x="0.949" y="1.129" font-size="0.007598" fill="hsl(0.0,100%,20%)">etienneb</text>
<text x="0.825" y="0.684" font-size="0.005663" fill="hsl(0.0,100%,20%)">flibitijibibo</text>
<text x="0.280" y="0.551" font-size="0.012407" fill="hsl(0.0,100%,20%)">penghuang</text>
<text x="0.243" y="0.913" font-size="0.021341" fill="hsl(0.0,100%,20%)">kbr</text>
<text x="0.065" y="0.404" font-size="0.012914" fill="hsl(0.0,100%,20%)">sugoi</text>
<text x="0.152" y="0.890" font-size="0.018263" fill="hsl(0.0,100%,20%)">jdarpinian</text>
<text x="0.131" y="0.586" font-size="0.019121" fill="hsl(0.0,100%,20%)">lexa.knyazev</text>
<text x="0.361" y="0.503" font-size="0.003582" fill="hsl(0.0,100%,20%)">zmo</text>
<text x="0.176" y="0.499" font-size="0.002533" fill="hsl(0.0,100%,20%)">brianosman</text>
<text x="0.652" y="0.627" font-size="0.006701" fill="hsl(0.0,100%,20%)">hckim.kim</text>
<text x="0.545" y="0.593" font-size="0.010745" fill="hsl(0.0,100%,20%)">shrekshao</text>
<text x="1.706" y="0.686" font-size="0.011879" fill="hsl(0.0,100%,20%)">jiajia.qin</text>
<text x="1.941" y="0.593" font-size="0.005663" fill="hsl(0.0,100%,20%)">jiawei.shao</text>
<text x="0.792" y="0.678" font-size="0.006701" fill="hsl(0.0,100%,20%)">jie.a.chen</text>
<text x="0.674" y="0.722" font-size="0.002533" fill="hsl(0.0,100%,20%)">paulthomson</text>
<text x="0.746" y="0.729" font-size="0.004387" fill="hsl(0.0,100%,20%)">dpranke</text>
<text x="0.837" y="0.767" font-size="0.005663" fill="hsl(0.0,100%,20%)">bsheedy</text>
<text x="0.063" y="0.531" font-size="0.007163" fill="hsl(0.0,100%,20%)">le.hoang.q</text>
<text x="0.986" y="0.514" font-size="0.003582" fill="hsl(0.0,100%,20%)">kainino</text>
<text x="0.116" y="0.718" font-size="0.005663" fill="hsl(0.0,100%,20%)">julien.isorce</text>
<text x="0.254" y="0.573" font-size="0.016217" fill="hsl(0.0,100%,20%)">spang</text>
<text x="0.039" y="0.697" font-size="0.004387" fill="hsl(0.0,100%,20%)">khushalsagar</text>
<text x="0.227" y="0.823" font-size="0.025579" fill="hsl(0.0,100%,20%)">lehoangq</text>
<text x="0.029" y="0.567" font-size="0.007163" fill="hsl(0.0,100%,20%)">msisov</text>
<text x="0.462" y="0.619" font-size="0.006204" fill="hsl(0.0,100%,20%)">natsu</text>
<text x="0.788" y="1.071" font-size="0.008009" fill="hsl(0.0,100%,20%)">rafael.cintron</text>
<text x="0.804" y="0.635" font-size="0.005065" fill="hsl(0.0,100%,20%)">reveman</text>
<text x="0.698" y="0.612" font-size="0.005065" fill="hsl(0.0,100%,20%)">sdefresne</text>
<text x="0.770" y="0.759" font-size="0.006701" fill="hsl(0.0,100%,20%)">thakis</text>
<text x="0.899" y="0.664" font-size="0.005065" fill="hsl(0.0,100%,20%)">shabbyx</text>
<text x="1.375" y="0.861" font-size="0.002533" fill="hsl(0.0,100%,20%)">capn</text>
<text x="0.608" y="0.327" font-size="0.006701" fill="hsl(0.0,100%,20%)">vantablack</text>
<text x="1.176" y="0.675" font-size="0.011326" fill="hsl(0.0,100%,20%)">xiaoxuan.liu</text>
<text x="1.359" y="0.605" font-size="0.002533" fill="hsl(0.0,100%,20%)">j.vigil</text>
<text x="1.782" y="0.805" font-size="0.011606" fill="hsl(0.0,100%,20%)">xinghua.cao</text>
<text x="1.000" y="0.741" font-size="0.010442" fill="hsl(0.0,100%,20%)">xinyi.he</text>
<text x="0.464" y="1.166" font-size="0.002533" fill="hsl(0.0,100%,20%)">senorblanco</text>
</svg>
