<svg width="4000" height="2000" viewBox="-0.025 -0.025 2.05 1.05" xmlns="http://www.w3.org/2000/svg">
  <style>
    path {
      fill: none;
      stroke-linecap: round;
      stroke-opacity: 0.4;
    }

    text {
      text-anchor: middle;
      alignment-baseline: hanging;
    }
  </style>
  <g opacity="0.4">
<path d="M1.756 0.679 Q1.038 0.312 0.164 0.582" stroke="hsl(0.0,100%,35%)" stroke-width="0.01802"></path>
<path d="M1.756 0.679 Q1.373 0.273 0.497 0.370" stroke="hsl(0.0,100%,35%)" stroke-width="0.01587"></path>
<path d="M1.756 0.679 Q1.530 0.663 1.449 0.770" stroke="hsl(0.0,100%,35%)" stroke-width="0.00129"></path>
<path d="M1.756 0.679 Q1.694 0.586 1.499 0.596" stroke="hsl(0.0,100%,35%)" stroke-width="0.00043"></path>
<path d="M1.756 0.679 Q1.617 0.726 1.678 0.804" stroke="hsl(0.0,100%,35%)" stroke-width="0.00129"></path>
<path d="M1.756 0.679 Q1.223 0.289 0.344 0.463" stroke="hsl(0.0,100%,35%)" stroke-width="0.00086"></path>
<path d="M0.164 0.582 Q0.349 0.559 0.344 0.463" stroke="hsl(0.0,100%,35%)" stroke-width="0.03260"></path>
<path d="M0.164 0.582 Q0.292 0.491 0.143 0.409" stroke="hsl(0.0,100%,35%)" stroke-width="0.03303"></path>
<path d="M0.164 0.582 Q0.499 0.542 0.497 0.370" stroke="hsl(0.0,100%,35%)" stroke-width="0.04890"></path>
<path d="M0.164 0.582 Q0.656 0.933 1.449 0.770" stroke="hsl(0.0,100%,35%)" stroke-width="0.01544"></path>
<path d="M0.164 0.582 Q0.430 0.616 0.556 0.494" stroke="hsl(0.0,100%,35%)" stroke-width="0.00214"></path>
<path d="M0.164 0.582 Q0.169 0.513 0.036 0.496" stroke="hsl(0.0,100%,35%)" stroke-width="0.00043"></path>
<path d="M0.164 0.582 Q0.743 0.995 1.678 0.804" stroke="hsl(0.0,100%,35%)" stroke-width="0.00343"></path>
<path d="M0.164 0.582 Q0.405 0.444 0.189 0.296" stroke="hsl(0.0,100%,35%)" stroke-width="0.00086"></path>
<path d="M0.164 0.582 Q0.179 0.511 0.043 0.488" stroke="hsl(0.0,100%,35%)" stroke-width="0.00429"></path>
<path d="M0.164 0.582 Q0.502 0.413 0.247 0.211" stroke="hsl(0.0,100%,35%)" stroke-width="0.00729"></path>
<path d="M0.164 0.582 Q0.371 0.408 0.077 0.269" stroke="hsl(0.0,100%,35%)" stroke-width="0.00086"></path>
<path d="M0.164 0.582 Q0.882 0.949 1.756 0.679" stroke="hsl(0.0,100%,35%)" stroke-width="0.00257"></path>
<path d="M0.164 0.582 Q0.594 0.644 0.810 0.447" stroke="hsl(0.0,100%,35%)" stroke-width="0.00086"></path>
<path d="M0.164 0.582 Q0.355 0.437 0.114 0.312" stroke="hsl(0.0,100%,35%)" stroke-width="0.00043"></path>
<path d="M0.164 0.582 Q0.261 0.500 0.122 0.435" stroke="hsl(0.0,100%,35%)" stroke-width="0.00386"></path>
<path d="M0.164 0.582 Q0.315 0.700 0.579 0.653" stroke="hsl(0.0,100%,35%)" stroke-width="0.00043"></path>
<path d="M0.164 0.582 Q0.557 0.807 1.084 0.665" stroke="hsl(0.0,100%,35%)" stroke-width="0.00172"></path>
<path d="M0.497 0.370 Q0.161 0.409 0.164 0.582" stroke="hsl(0.0,100%,35%)" stroke-width="0.04375"></path>
<path d="M0.497 0.370 Q0.879 0.777 1.756 0.679" stroke="hsl(0.0,100%,35%)" stroke-width="0.00643"></path>
<path d="M0.497 0.370 Q0.427 0.444 0.556 0.494" stroke="hsl(0.0,100%,35%)" stroke-width="0.00043"></path>
<path d="M0.497 0.370 Q0.638 0.239 0.413 0.141" stroke="hsl(0.0,100%,35%)" stroke-width="0.00901"></path>
<path d="M0.497 0.370 Q0.346 0.386 0.344 0.463" stroke="hsl(0.0,100%,35%)" stroke-width="0.01115"></path>
<path d="M0.497 0.370 Q0.653 0.760 1.449 0.770" stroke="hsl(0.0,100%,35%)" stroke-width="0.01330"></path>
<path d="M0.497 0.370 Q0.589 0.294 0.460 0.232" stroke="hsl(0.0,100%,35%)" stroke-width="0.00172"></path>
<path d="M0.497 0.370 Q0.289 0.319 0.143 0.409" stroke="hsl(0.0,100%,35%)" stroke-width="0.00043"></path>
<path d="M0.497 0.370 Q0.499 0.241 0.247 0.211" stroke="hsl(0.0,100%,35%)" stroke-width="0.00043"></path>
<path d="M0.497 0.370 Q0.307 0.473 0.466 0.588" stroke="hsl(0.0,100%,35%)" stroke-width="0.00043"></path>
<path d="M1.449 0.770 Q0.957 0.419 0.164 0.582" stroke="hsl(0.0,100%,35%)" stroke-width="0.02402"></path>
<path d="M1.449 0.770 Q1.536 0.832 1.678 0.804" stroke="hsl(0.0,100%,35%)" stroke-width="0.03089"></path>
<path d="M1.449 0.770 Q1.675 0.786 1.756 0.679" stroke="hsl(0.0,100%,35%)" stroke-width="0.01072"></path>
<path d="M1.449 0.770 Q1.084 0.328 0.143 0.409" stroke="hsl(0.0,100%,35%)" stroke-width="0.00129"></path>
<path d="M1.449 0.770 Q0.972 0.348 0.043 0.488" stroke="hsl(0.0,100%,35%)" stroke-width="0.00815"></path>
<path d="M1.449 0.770 Q1.292 0.379 0.497 0.370" stroke="hsl(0.0,100%,35%)" stroke-width="0.00343"></path>
<path d="M1.449 0.770 Q1.633 0.664 1.468 0.551" stroke="hsl(0.0,100%,35%)" stroke-width="0.00043"></path>
<path d="M1.449 0.770 Q1.142 0.396 0.344 0.463" stroke="hsl(0.0,100%,35%)" stroke-width="0.00257"></path>
<path d="M1.449 0.770 Q1.387 0.481 0.810 0.447" stroke="hsl(0.0,100%,35%)" stroke-width="0.00086"></path>
<path d="M1.449 0.770 Q1.053 0.337 0.122 0.435" stroke="hsl(0.0,100%,35%)" stroke-width="0.00043"></path>
<path d="M1.449 0.770 Q1.613 0.693 1.499 0.596" stroke="hsl(0.0,100%,35%)" stroke-width="0.00043"></path>
<path d="M1.678 0.804 Q1.610 0.893 1.770 0.945" stroke="hsl(0.0,100%,35%)" stroke-width="0.00129"></path>
<path d="M1.678 0.804 Q1.780 0.855 1.902 0.816" stroke="hsl(0.0,100%,35%)" stroke-width="0.00214"></path>
<path d="M1.678 0.804 Q1.515 0.824 1.519 0.908" stroke="hsl(0.0,100%,35%)" stroke-width="0.00086"></path>
<path d="M1.678 0.804 Q1.590 0.741 1.449 0.770" stroke="hsl(0.0,100%,35%)" stroke-width="0.01287"></path>
<path d="M1.678 0.804 Q1.195 0.308 0.122 0.435" stroke="hsl(0.0,100%,35%)" stroke-width="0.00043"></path>
<path d="M1.678 0.804 Q1.098 0.390 0.164 0.582" stroke="hsl(0.0,100%,35%)" stroke-width="0.00429"></path>
<path d="M1.678 0.804 Q1.434 0.351 0.497 0.370" stroke="hsl(0.0,100%,35%)" stroke-width="0.00214"></path>
<path d="M1.678 0.804 Q1.283 0.367 0.344 0.463" stroke="hsl(0.0,100%,35%)" stroke-width="0.00343"></path>
<path d="M1.678 0.804 Q1.113 0.319 0.043 0.488" stroke="hsl(0.0,100%,35%)" stroke-width="0.00129"></path>
<path d="M1.678 0.804 Q1.529 0.452 0.810 0.447" stroke="hsl(0.0,100%,35%)" stroke-width="0.00043"></path>
<path d="M1.678 0.804 Q1.900 0.794 1.931 0.684" stroke="hsl(0.0,100%,35%)" stroke-width="0.00086"></path>
<path d="M1.678 0.804 Q1.226 0.300 0.143 0.409" stroke="hsl(0.0,100%,35%)" stroke-width="0.00086"></path>
<path d="M1.678 0.804 Q1.244 0.439 0.438 0.571" stroke="hsl(0.0,100%,35%)" stroke-width="0.00043"></path>
<path d="M1.678 0.804 Q1.492 0.615 1.084 0.665" stroke="hsl(0.0,100%,35%)" stroke-width="0.00043"></path>
<path d="M1.678 0.804 Q1.817 0.757 1.756 0.679" stroke="hsl(0.0,100%,35%)" stroke-width="0.00129"></path>
<path d="M0.344 0.463 Q0.159 0.486 0.164 0.582" stroke="hsl(0.0,100%,35%)" stroke-width="0.01330"></path>
<path d="M0.344 0.463 Q0.878 0.854 1.756 0.679" stroke="hsl(0.0,100%,35%)" stroke-width="0.00172"></path>
<path d="M0.344 0.463 Q0.576 0.920 1.519 0.908" stroke="hsl(0.0,100%,35%)" stroke-width="0.00043"></path>
<path d="M0.344 0.463 Q0.174 0.415 0.043 0.488" stroke="hsl(0.0,100%,35%)" stroke-width="0.00214"></path>
<path d="M0.344 0.463 Q0.651 0.837 1.449 0.770" stroke="hsl(0.0,100%,35%)" stroke-width="0.00729"></path>
<path d="M0.344 0.463 Q0.495 0.447 0.497 0.370" stroke="hsl(0.0,100%,35%)" stroke-width="0.00300"></path>
<path d="M0.344 0.463 Q0.256 0.405 0.122 0.435" stroke="hsl(0.0,100%,35%)" stroke-width="0.00214"></path>
<path d="M0.344 0.463 Q0.590 0.548 0.810 0.447" stroke="hsl(0.0,100%,35%)" stroke-width="0.00043"></path>
<path d="M0.344 0.463 Q0.816 0.761 1.499 0.596" stroke="hsl(0.0,100%,35%)" stroke-width="0.00043"></path>
<path d="M0.344 0.463 Q0.739 0.900 1.678 0.804" stroke="hsl(0.0,100%,35%)" stroke-width="0.00172"></path>
<path d="M0.344 0.463 Q0.636 0.316 0.413 0.141" stroke="hsl(0.0,100%,35%)" stroke-width="0.00043"></path>
<path d="M0.344 0.463 Q0.961 0.891 1.931 0.684" stroke="hsl(0.0,100%,35%)" stroke-width="0.00043"></path>
<path d="M0.344 0.463 Q0.771 0.412 0.764 0.192" stroke="hsl(0.0,100%,35%)" stroke-width="0.00043"></path>
<path d="M1.531 0.821 Q1.618 0.842 1.678 0.804" stroke="hsl(0.0,100%,35%)" stroke-width="0.00086"></path>
<path d="M1.531 0.821 Q1.531 0.779 1.449 0.770" stroke="hsl(0.0,100%,35%)" stroke-width="0.00043"></path>
<path d="M1.531 0.821 Q1.054 0.357 0.043 0.488" stroke="hsl(0.0,100%,35%)" stroke-width="0.00043"></path>
<path d="M0.043 0.488 Q0.029 0.559 0.164 0.582" stroke="hsl(0.0,100%,35%)" stroke-width="0.00386"></path>
<path d="M0.043 0.488 Q0.608 0.973 1.678 0.804" stroke="hsl(0.0,100%,35%)" stroke-width="0.00043"></path>
<path d="M0.043 0.488 Q0.521 0.910 1.449 0.770" stroke="hsl(0.0,100%,35%)" stroke-width="0.00729"></path>
<path d="M0.043 0.488 Q0.213 0.536 0.344 0.463" stroke="hsl(0.0,100%,35%)" stroke-width="0.00043"></path>
<path d="M0.043 0.488 Q-0.012 0.534 0.066 0.572" stroke="hsl(0.0,100%,35%)" stroke-width="0.00257"></path>
<path d="M0.043 0.488 Q0.219 0.414 0.114 0.312" stroke="hsl(0.0,100%,35%)" stroke-width="0.00043"></path>
<path d="M0.043 0.488 Q0.156 0.469 0.143 0.409" stroke="hsl(0.0,100%,35%)" stroke-width="0.00343"></path>
<path d="M0.043 0.488 Q0.830 0.963 1.931 0.684" stroke="hsl(0.0,100%,35%)" stroke-width="0.00086"></path>
<path d="M0.043 0.488 Q0.422 0.784 1.084 0.665" stroke="hsl(0.0,100%,35%)" stroke-width="0.00043"></path>
<path d="M0.043 0.488 Q0.175 0.622 0.466 0.588" stroke="hsl(0.0,100%,35%)" stroke-width="0.00043"></path>
<path d="M0.043 0.488 Q0.312 0.810 1.001 0.750" stroke="hsl(0.0,100%,35%)" stroke-width="0.00043"></path>
<path d="M0.043 0.488 Q0.275 0.345 0.048 0.201" stroke="hsl(0.0,100%,35%)" stroke-width="0.00043"></path>
<path d="M0.556 0.494 Q0.289 0.459 0.164 0.582" stroke="hsl(0.0,100%,35%)" stroke-width="0.01501"></path>
<path d="M0.556 0.494 Q0.625 0.420 0.497 0.370" stroke="hsl(0.0,100%,35%)" stroke-width="0.00343"></path>
<path d="M0.556 0.494 Q0.782 0.810 1.449 0.770" stroke="hsl(0.0,100%,35%)" stroke-width="0.00043"></path>
<path d="M0.556 0.494 Q0.417 0.369 0.143 0.409" stroke="hsl(0.0,100%,35%)" stroke-width="0.00043"></path>
<path d="M0.413 0.141 Q0.272 0.273 0.497 0.370" stroke="hsl(0.0,100%,35%)" stroke-width="0.00300"></path>
<path d="M0.413 0.141 Q0.515 0.725 1.678 0.804" stroke="hsl(0.0,100%,35%)" stroke-width="0.00086"></path>
<path d="M0.413 0.141 Q-0.064 0.312 0.164 0.582" stroke="hsl(0.0,100%,35%)" stroke-width="0.00129"></path>
<path d="M0.460 0.232 Q0.032 0.348 0.164 0.582" stroke="hsl(0.0,100%,35%)" stroke-width="0.00515"></path>
<path d="M0.460 0.232 Q0.368 0.309 0.497 0.370" stroke="hsl(0.0,100%,35%)" stroke-width="0.00515"></path>
<path d="M0.460 0.232 Q0.751 0.715 1.756 0.679" stroke="hsl(0.0,100%,35%)" stroke-width="0.00172"></path>
<path d="M0.460 0.232 Q0.217 0.325 0.344 0.463" stroke="hsl(0.0,100%,35%)" stroke-width="0.00043"></path>
<path d="M0.143 0.409 Q0.016 0.500 0.164 0.582" stroke="hsl(0.0,100%,35%)" stroke-width="0.02274"></path>
<path d="M0.143 0.409 Q0.223 0.326 0.077 0.269" stroke="hsl(0.0,100%,35%)" stroke-width="0.00386"></path>
<path d="M0.143 0.409 Q0.257 0.362 0.189 0.296" stroke="hsl(0.0,100%,35%)" stroke-width="0.00086"></path>
<path d="M0.143 0.409 Q0.409 0.725 1.084 0.665" stroke="hsl(0.0,100%,35%)" stroke-width="0.00601"></path>
<path d="M0.143 0.409 Q0.351 0.460 0.497 0.370" stroke="hsl(0.0,100%,35%)" stroke-width="0.00043"></path>
<path d="M0.143 0.409 Q0.031 0.429 0.043 0.488" stroke="hsl(0.0,100%,35%)" stroke-width="0.00386"></path>
<path d="M0.143 0.409 Q-0.108 0.718 0.440 0.909" stroke="hsl(0.0,100%,35%)" stroke-width="0.00043"></path>
<path d="M0.143 0.409 Q0.508 0.851 1.449 0.770" stroke="hsl(0.0,100%,35%)" stroke-width="0.00086"></path>
<path d="M0.143 0.409 Q0.201 0.476 0.344 0.463" stroke="hsl(0.0,100%,35%)" stroke-width="0.00172"></path>
<path d="M0.143 0.409 Q0.207 0.355 0.114 0.312" stroke="hsl(0.0,100%,35%)" stroke-width="0.00043"></path>
<path d="M0.143 0.409 Q0.092 0.421 0.103 0.448" stroke="hsl(0.0,100%,35%)" stroke-width="0.00086"></path>
<path d="M0.143 0.409 Q0.162 0.563 0.466 0.588" stroke="hsl(0.0,100%,35%)" stroke-width="0.00214"></path>
<path d="M0.143 0.409 Q0.020 0.431 0.036 0.496" stroke="hsl(0.0,100%,35%)" stroke-width="0.00601"></path>
<path d="M0.143 0.409 Q0.118 0.400 0.095 0.410" stroke="hsl(0.0,100%,35%)" stroke-width="0.00043"></path>
<path d="M0.143 0.409 Q0.338 0.362 0.288 0.257" stroke="hsl(0.0,100%,35%)" stroke-width="0.00129"></path>
<path d="M0.143 0.409 Q0.382 0.341 0.300 0.209" stroke="hsl(0.0,100%,35%)" stroke-width="0.00043"></path>
<path d="M0.143 0.409 Q0.099 0.398 0.067 0.418" stroke="hsl(0.0,100%,35%)" stroke-width="0.00086"></path>
<path d="M0.143 0.409 Q0.446 0.562 0.810 0.447" stroke="hsl(0.0,100%,35%)" stroke-width="0.00043"></path>
<path d="M0.143 0.409 Q0.595 0.913 1.678 0.804" stroke="hsl(0.0,100%,35%)" stroke-width="0.00043"></path>
<path d="M0.143 0.409 Q0.328 0.366 0.284 0.266" stroke="hsl(0.0,100%,35%)" stroke-width="0.00043"></path>
<path d="M0.247 0.211 Q-0.091 0.380 0.164 0.582" stroke="hsl(0.0,100%,35%)" stroke-width="0.02402"></path>
<path d="M0.247 0.211 Q0.245 0.341 0.497 0.370" stroke="hsl(0.0,100%,35%)" stroke-width="0.01587"></path>
<path d="M0.247 0.211 Q0.037 0.289 0.143 0.409" stroke="hsl(0.0,100%,35%)" stroke-width="0.00214"></path>
<path d="M0.466 0.588 Q0.713 0.750 1.084 0.665" stroke="hsl(0.0,100%,35%)" stroke-width="0.00086"></path>
<path d="M0.466 0.588 Q0.447 0.434 0.143 0.409" stroke="hsl(0.0,100%,35%)" stroke-width="0.00129"></path>
<path d="M0.466 0.588 Q0.320 0.524 0.164 0.582" stroke="hsl(0.0,100%,35%)" stroke-width="0.00086"></path>
<path d="M1.320 0.569 Q1.125 0.570 1.084 0.665" stroke="hsl(0.0,100%,35%)" stroke-width="0.00343"></path>
<path d="M1.320 0.569 Q0.732 0.344 0.164 0.582" stroke="hsl(0.0,100%,35%)" stroke-width="0.00257"></path>
<path d="M1.320 0.569 Q0.860 0.254 0.143 0.409" stroke="hsl(0.0,100%,35%)" stroke-width="0.00086"></path>
<path d="M1.084 0.665 Q0.690 0.439 0.164 0.582" stroke="hsl(0.0,100%,35%)" stroke-width="0.00172"></path>
<path d="M1.084 0.665 Q0.818 0.349 0.143 0.409" stroke="hsl(0.0,100%,35%)" stroke-width="0.00386"></path>
<path d="M1.084 0.665 Q0.836 0.503 0.466 0.588" stroke="hsl(0.0,100%,35%)" stroke-width="0.00043"></path>
<path d="M1.084 0.665 Q1.026 0.400 0.497 0.370" stroke="hsl(0.0,100%,35%)" stroke-width="0.00043"></path>
<path d="M1.770 0.945 Q1.837 0.856 1.678 0.804" stroke="hsl(0.0,100%,35%)" stroke-width="0.01072"></path>
<path d="M1.770 0.945 Q1.257 0.442 0.164 0.582" stroke="hsl(0.0,100%,35%)" stroke-width="0.00214"></path>
<path d="M1.770 0.945 Q1.749 0.793 1.449 0.770" stroke="hsl(0.0,100%,35%)" stroke-width="0.00214"></path>
<path d="M1.770 0.945 Q2.059 0.847 1.931 0.684" stroke="hsl(0.0,100%,35%)" stroke-width="0.00129"></path>
<path d="M1.770 0.945 Q1.442 0.419 0.344 0.463" stroke="hsl(0.0,100%,35%)" stroke-width="0.00086"></path>
<path d="M1.770 0.945 Q1.524 0.477 0.556 0.494" stroke="hsl(0.0,100%,35%)" stroke-width="0.00043"></path>
<path d="M1.902 0.816 Q1.800 0.765 1.678 0.804" stroke="hsl(0.0,100%,35%)" stroke-width="0.00601"></path>
<path d="M1.902 0.816 Q1.712 0.702 1.449 0.770" stroke="hsl(0.0,100%,35%)" stroke-width="0.00043"></path>
<path d="M1.902 0.816 Q1.235 0.280 0.043 0.488" stroke="hsl(0.0,100%,35%)" stroke-width="0.00043"></path>
<path d="M1.902 0.816 Q1.220 0.351 0.164 0.582" stroke="hsl(0.0,100%,35%)" stroke-width="0.00086"></path>
<path d="M1.902 0.816 Q2.022 0.756 1.931 0.684" stroke="hsl(0.0,100%,35%)" stroke-width="0.00043"></path>
<path d="M1.902 0.816 Q1.556 0.312 0.497 0.370" stroke="hsl(0.0,100%,35%)" stroke-width="0.00043"></path>
<path d="M1.519 0.908 Q1.682 0.887 1.678 0.804" stroke="hsl(0.0,100%,35%)" stroke-width="0.00172"></path>
<path d="M1.519 0.908 Q1.287 0.451 0.344 0.463" stroke="hsl(0.0,100%,35%)" stroke-width="0.00129"></path>
<path d="M1.519 0.908 Q1.533 0.536 0.810 0.447" stroke="hsl(0.0,100%,35%)" stroke-width="0.00043"></path>
<path d="M0.122 0.435 Q0.026 0.517 0.164 0.582" stroke="hsl(0.0,100%,35%)" stroke-width="0.00558"></path>
<path d="M0.122 0.435 Q0.361 0.477 0.497 0.370" stroke="hsl(0.0,100%,35%)" stroke-width="0.00086"></path>
<path d="M0.122 0.435 Q0.605 0.930 1.678 0.804" stroke="hsl(0.0,100%,35%)" stroke-width="0.00086"></path>
<path d="M0.122 0.435 Q0.211 0.494 0.344 0.463" stroke="hsl(0.0,100%,35%)" stroke-width="0.00086"></path>
<path d="M0.122 0.435 Q0.238 0.499 0.389 0.457" stroke="hsl(0.0,100%,35%)" stroke-width="0.00043"></path>
<path d="M0.810 0.447 Q0.394 0.314 0.043 0.488" stroke="hsl(0.0,100%,35%)" stroke-width="0.00043"></path>
<path d="M0.810 0.447 Q0.379 0.385 0.164 0.582" stroke="hsl(0.0,100%,35%)" stroke-width="0.00086"></path>
<path d="M0.810 0.447 Q0.959 0.799 1.678 0.804" stroke="hsl(0.0,100%,35%)" stroke-width="0.00043"></path>
<path d="M0.810 0.447 Q0.564 0.362 0.344 0.463" stroke="hsl(0.0,100%,35%)" stroke-width="0.00129"></path>
<path d="M0.438 0.571 Q0.720 0.406 0.460 0.232" stroke="hsl(0.0,100%,35%)" stroke-width="0.00043"></path>
<path d="M0.438 0.571 Q0.292 0.522 0.164 0.582" stroke="hsl(0.0,100%,35%)" stroke-width="0.00086"></path>
<path d="M0.438 0.571 Q0.628 0.482 0.497 0.370" stroke="hsl(0.0,100%,35%)" stroke-width="0.00043"></path>
<path d="M0.851 0.705 Q0.621 0.435 0.043 0.488" stroke="hsl(0.0,100%,35%)" stroke-width="0.00043"></path>
<path d="M0.851 0.705 Q0.610 0.437 0.036 0.496" stroke="hsl(0.0,100%,35%)" stroke-width="0.00043"></path>
<path d="M0.851 0.705 Q0.606 0.506 0.164 0.582" stroke="hsl(0.0,100%,35%)" stroke-width="0.00043"></path>
<path d="M0.851 0.705 Q0.999 0.731 1.084 0.665" stroke="hsl(0.0,100%,35%)" stroke-width="0.00129"></path>
<path d="M0.851 0.705 Q0.879 0.687 0.851 0.670" stroke="hsl(0.0,100%,35%)" stroke-width="0.00043"></path>
<path d="M0.036 0.496 Q0.425 0.790 1.084 0.665" stroke="hsl(0.0,100%,35%)" stroke-width="0.00257"></path>
<path d="M0.036 0.496 Q0.159 0.474 0.143 0.409" stroke="hsl(0.0,100%,35%)" stroke-width="0.00300"></path>
<path d="M0.036 0.496 Q0.305 0.746 0.851 0.670" stroke="hsl(0.0,100%,35%)" stroke-width="0.00043"></path>
<path d="M0.284 0.266 Q-0.029 0.400 0.164 0.582" stroke="hsl(0.0,100%,35%)" stroke-width="0.00043"></path>
<path d="M0.284 0.266 Q0.365 0.625 1.084 0.665" stroke="hsl(0.0,100%,35%)" stroke-width="0.00043"></path>
<path d="M0.284 0.266 Q0.099 0.309 0.143 0.409" stroke="hsl(0.0,100%,35%)" stroke-width="0.00086"></path>
<path d="M0.189 0.296 Q0.183 0.726 1.021 0.824" stroke="hsl(0.0,100%,35%)" stroke-width="0.00086"></path>
<path d="M0.189 0.296 Q0.341 0.659 1.084 0.665" stroke="hsl(0.0,100%,35%)" stroke-width="0.00558"></path>
<path d="M0.189 0.296 Q0.076 0.343 0.143 0.409" stroke="hsl(0.0,100%,35%)" stroke-width="0.01115"></path>
<path d="M0.189 0.296 Q-0.052 0.434 0.164 0.582" stroke="hsl(0.0,100%,35%)" stroke-width="0.01201"></path>
<path d="M0.189 0.296 Q-0.037 0.363 0.043 0.488" stroke="hsl(0.0,100%,35%)" stroke-width="0.00043"></path>
<path d="M0.189 0.296 Q-0.047 0.365 0.036 0.496" stroke="hsl(0.0,100%,35%)" stroke-width="0.00043"></path>
<path d="M0.189 0.296 Q0.030 0.525 0.441 0.652" stroke="hsl(0.0,100%,35%)" stroke-width="0.00086"></path>
<path d="M0.114 0.312 Q-0.077 0.457 0.164 0.582" stroke="hsl(0.0,100%,35%)" stroke-width="0.01115"></path>
<path d="M0.114 0.312 Q0.051 0.366 0.143 0.409" stroke="hsl(0.0,100%,35%)" stroke-width="0.00343"></path>
<path d="M0.114 0.312 Q0.258 0.418 0.497 0.370" stroke="hsl(0.0,100%,35%)" stroke-width="0.00214"></path>
<path d="M0.114 0.312 Q0.108 0.434 0.344 0.463" stroke="hsl(0.0,100%,35%)" stroke-width="0.00086"></path>
<path d="M0.114 0.312 Q0.415 0.808 1.449 0.770" stroke="hsl(0.0,100%,35%)" stroke-width="0.00043"></path>
<path d="M0.114 0.312 Q0.641 0.824 1.756 0.679" stroke="hsl(0.0,100%,35%)" stroke-width="0.00043"></path>
<path d="M0.114 0.312 Q-0.062 0.386 0.043 0.488" stroke="hsl(0.0,100%,35%)" stroke-width="0.00086"></path>
<path d="M0.114 0.312 Q0.316 0.682 1.084 0.665" stroke="hsl(0.0,100%,35%)" stroke-width="0.00043"></path>
<path d="M0.300 0.209 Q-0.066 0.368 0.164 0.582" stroke="hsl(0.0,100%,35%)" stroke-width="0.00086"></path>
<path d="M0.300 0.209 Q0.119 0.345 0.344 0.463" stroke="hsl(0.0,100%,35%)" stroke-width="0.00043"></path>
<path d="M0.300 0.209 Q0.061 0.278 0.143 0.409" stroke="hsl(0.0,100%,35%)" stroke-width="0.00214"></path>
<path d="M0.300 0.209 Q0.426 0.719 1.449 0.770" stroke="hsl(0.0,100%,35%)" stroke-width="0.00043"></path>
<path d="M1.320 0.090 Q0.684 0.065 0.497 0.370" stroke="hsl(0.0,100%,35%)" stroke-width="0.00043"></path>
<path d="M1.320 0.090 Q0.348 0.105 0.164 0.582" stroke="hsl(0.0,100%,35%)" stroke-width="0.00086"></path>
<path d="M1.320 0.090 Q0.928 0.518 1.678 0.804" stroke="hsl(0.0,100%,35%)" stroke-width="0.00043"></path>
<path d="M1.320 0.090 Q1.204 0.042 1.085 0.088" stroke="hsl(0.0,100%,35%)" stroke-width="0.00043"></path>
<path d="M0.787 0.599 Q0.489 0.466 0.164 0.582" stroke="hsl(0.0,100%,35%)" stroke-width="0.00086"></path>
<path d="M0.787 0.599 Q0.756 0.500 0.556 0.494" stroke="hsl(0.0,100%,35%)" stroke-width="0.00086"></path>
<path d="M1.894 0.162 Q0.821 -0.065 0.143 0.409" stroke="hsl(0.0,100%,35%)" stroke-width="0.00086"></path>
<path d="M1.894 0.162 Q1.772 0.104 1.633 0.151" stroke="hsl(0.0,100%,35%)" stroke-width="0.00043"></path>
<path d="M1.894 0.162 Q0.693 0.026 0.164 0.582" stroke="hsl(0.0,100%,35%)" stroke-width="0.00086"></path>
<path d="M1.500 0.693 Q1.106 0.347 0.344 0.463" stroke="hsl(0.0,100%,35%)" stroke-width="0.00043"></path>
<path d="M1.500 0.693 Q1.413 0.721 1.449 0.770" stroke="hsl(0.0,100%,35%)" stroke-width="0.00129"></path>
<path d="M1.500 0.693 Q0.936 0.299 0.043 0.488" stroke="hsl(0.0,100%,35%)" stroke-width="0.00043"></path>
<path d="M1.500 0.693 Q0.921 0.370 0.164 0.582" stroke="hsl(0.0,100%,35%)" stroke-width="0.00043"></path>
<path d="M1.021 0.824 Q0.914 0.441 0.143 0.409" stroke="hsl(0.0,100%,35%)" stroke-width="0.00129"></path>
<path d="M1.021 0.824 Q1.179 0.757 1.084 0.665" stroke="hsl(0.0,100%,35%)" stroke-width="0.00601"></path>
<path d="M1.021 0.824 Q0.868 0.622 0.441 0.652" stroke="hsl(0.0,100%,35%)" stroke-width="0.00043"></path>
<path d="M1.021 0.824 Q1.031 0.730 0.851 0.705" stroke="hsl(0.0,100%,35%)" stroke-width="0.00300"></path>
<path d="M1.021 0.824 Q0.786 0.531 0.164 0.582" stroke="hsl(0.0,100%,35%)" stroke-width="0.00214"></path>
<path d="M1.021 0.824 Q1.027 0.393 0.189 0.296" stroke="hsl(0.0,100%,35%)" stroke-width="0.00043"></path>
<path d="M0.370 0.958 Q0.543 0.938 0.542 0.850" stroke="hsl(0.0,100%,35%)" stroke-width="0.00086"></path>
<path d="M0.370 0.958 Q0.568 0.729 0.164 0.582" stroke="hsl(0.0,100%,35%)" stroke-width="0.00343"></path>
<path d="M0.370 0.958 Q0.604 0.642 0.039 0.459" stroke="hsl(0.0,100%,35%)" stroke-width="0.00043"></path>
<path d="M0.370 0.958 Q0.696 0.638 0.143 0.409" stroke="hsl(0.0,100%,35%)" stroke-width="0.00129"></path>
<path d="M0.370 0.958 Q1.060 1.080 1.449 0.770" stroke="hsl(0.0,100%,35%)" stroke-width="0.00043"></path>
<path d="M0.039 0.459 Q0.188 0.522 0.344 0.463" stroke="hsl(0.0,100%,35%)" stroke-width="0.00043"></path>
<path d="M0.039 0.459 Q0.018 0.474 0.043 0.488" stroke="hsl(0.0,100%,35%)" stroke-width="0.00086"></path>
<path d="M0.039 0.459 Q0.003 0.545 0.164 0.582" stroke="hsl(0.0,100%,35%)" stroke-width="0.00043"></path>
<path d="M0.039 0.459 Q0.396 0.771 1.084 0.665" stroke="hsl(0.0,100%,35%)" stroke-width="0.00043"></path>
<path d="M1.215 0.648 Q0.870 0.315 0.143 0.409" stroke="hsl(0.0,100%,35%)" stroke-width="0.00043"></path>
<path d="M1.215 0.648 Q0.978 0.697 1.021 0.824" stroke="hsl(0.0,100%,35%)" stroke-width="0.00043"></path>
<path d="M1.215 0.648 Q1.136 0.630 1.084 0.665" stroke="hsl(0.0,100%,35%)" stroke-width="0.00129"></path>
<path d="M1.215 0.648 Q0.743 0.405 0.164 0.582" stroke="hsl(0.0,100%,35%)" stroke-width="0.00043"></path>
<path d="M0.461 0.495 Q0.243 0.479 0.164 0.582" stroke="hsl(0.0,100%,35%)" stroke-width="0.00214"></path>
<path d="M0.461 0.495 Q0.371 0.389 0.143 0.409" stroke="hsl(0.0,100%,35%)" stroke-width="0.00043"></path>
<path d="M0.461 0.495 Q0.578 0.440 0.497 0.370" stroke="hsl(0.0,100%,35%)" stroke-width="0.00086"></path>
<path d="M1.001 0.750 Q0.958 0.361 0.189 0.296" stroke="hsl(0.0,100%,35%)" stroke-width="0.00043"></path>
<path d="M1.001 0.750 Q1.110 0.724 1.084 0.665" stroke="hsl(0.0,100%,35%)" stroke-width="0.00129"></path>
<path d="M1.001 0.750 Q0.845 0.408 0.143 0.409" stroke="hsl(0.0,100%,35%)" stroke-width="0.00172"></path>
</g>
<text x="1.756" y="0.659" font-size="0.040732" fill="hsl(0.0,100%,20%)">abdolrashidi</text>
<text x="0.164" y="0.531" font-size="0.101186" fill="hsl(0.0,100%,20%)">syoussefi</text>
<text x="0.497" y="0.334" font-size="0.071668" fill="hsl(0.0,100%,20%)">cclao</text>
<text x="1.449" y="0.738" font-size="0.062523" fill="hsl(0.0,100%,20%)">romanl</text>
<text x="1.499" y="0.593" font-size="0.005839" fill="hsl(0.0,100%,20%)">kaiyili</text>
<text x="1.678" y="0.779" font-size="0.049658" fill="hsl(0.0,100%,20%)">cnorthrop</text>
<text x="0.344" y="0.438" font-size="0.049772" fill="hsl(0.0,100%,20%)">yuxinhu</text>
<text x="1.531" y="0.817" font-size="0.006742" fill="hsl(0.0,100%,20%)">banisingh</text>
<text x="0.043" y="0.470" font-size="0.034542" fill="hsl(0.0,100%,20%)">ynovikov</text>
<text x="0.556" y="0.481" font-size="0.024772" fill="hsl(0.0,100%,20%)">m.maiya</text>
<text x="0.413" y="0.132" font-size="0.019656" fill="hsl(0.0,100%,20%)">chrisforbes</text>
<text x="0.460" y="0.222" font-size="0.019656" fill="hsl(0.0,100%,20%)">hailinzhang</text>
<text x="0.143" y="0.380" font-size="0.058387" fill="hsl(0.0,100%,20%)">geofflang</text>
<text x="0.247" y="0.193" font-size="0.036307" fill="hsl(0.0,100%,20%)">i.nazarov</text>
<text x="0.466" y="0.581" font-size="0.013056" fill="hsl(0.0,100%,20%)">jonahr</text>
<text x="1.320" y="0.563" font-size="0.013484" fill="hsl(0.0,100%,20%)">chris</text>
<text x="1.084" y="0.649" font-size="0.031980" fill="hsl(0.0,100%,20%)">kbr</text>
<text x="1.770" y="0.934" font-size="0.022361" fill="hsl(0.0,100%,20%)">mark</text>
<text x="1.902" y="0.807" font-size="0.016855" fill="hsl(0.0,100%,20%)">mikes</text>
<text x="1.519" y="0.902" font-size="0.011180" fill="hsl(0.0,100%,20%)">lpy</text>
<text x="0.122" y="0.425" font-size="0.020226" fill="hsl(0.0,100%,20%)">zzyiwei</text>
<text x="0.810" y="0.441" font-size="0.013056" fill="hsl(0.0,100%,20%)">solti</text>
<text x="1.931" y="0.679" font-size="0.010113" fill="hsl(0.0,100%,20%)">ianelliott</text>
<text x="0.438" y="0.567" font-size="0.007538" fill="hsl(0.0,100%,20%)">gregschlom</text>
<text x="0.851" y="0.698" font-size="0.012613" fill="hsl(0.0,100%,20%)">djg</text>
<text x="0.036" y="0.487" font-size="0.018769" fill="hsl(0.0,100%,20%)">lehoangquyen</text>
<text x="0.851" y="0.667" font-size="0.004767" fill="hsl(0.0,100%,20%)">sunnyps</text>
<text x="0.284" y="0.262" font-size="0.007538" fill="hsl(0.0,100%,20%)">enga</text>
<text x="0.077" y="0.263" font-size="0.011180" fill="hsl(0.0,100%,20%)">penghuang</text>
<text x="0.189" y="0.281" font-size="0.029962" fill="hsl(0.0,100%,20%)">lexa.knyazev</text>
<text x="0.440" y="0.908" font-size="0.003371" fill="hsl(0.0,100%,20%)">jamesgk</text>
<text x="0.114" y="0.300" font-size="0.023597" fill="hsl(0.0,100%,20%)">steven</text>
<text x="0.103" y="0.446" font-size="0.004767" fill="hsl(0.0,100%,20%)">rafael.cintron</text>
<text x="0.095" y="0.408" font-size="0.003371" fill="hsl(0.0,100%,20%)">gman</text>
<text x="0.288" y="0.254" font-size="0.005839" fill="hsl(0.0,100%,20%)">blundell</text>
<text x="0.300" y="0.204" font-size="0.010660" fill="hsl(0.0,100%,20%)">hob</text>
<text x="0.067" y="0.415" font-size="0.004767" fill="hsl(0.0,100%,20%)">vasilyt</text>
<text x="1.320" y="0.086" font-size="0.007538" fill="hsl(0.0,100%,20%)">hans</text>
<text x="1.085" y="0.087" font-size="0.003371" fill="hsl(0.0,100%,20%)">thakis</text>
<text x="0.787" y="0.596" font-size="0.006742" fill="hsl(0.0,100%,20%)">j.vigil</text>
<text x="1.894" y="0.158" font-size="0.007538" fill="hsl(0.0,100%,20%)">jiawei.shao</text>
<text x="1.633" y="0.149" font-size="0.003371" fill="hsl(0.0,100%,20%)">senorblanco</text>
<text x="1.500" y="0.689" font-size="0.008257" fill="hsl(0.0,100%,20%)">jojwang</text>
<text x="1.021" y="0.814" font-size="0.019656" fill="hsl(0.0,100%,20%)">kkinnunen</text>
<text x="0.441" y="0.650" font-size="0.005839" fill="hsl(0.0,100%,20%)">kpiddington</text>
<text x="0.370" y="0.951" font-size="0.013056" fill="hsl(0.0,100%,20%)">liza</text>
<text x="0.542" y="0.847" font-size="0.004767" fill="hsl(0.0,100%,20%)">mpdenton</text>
<text x="0.039" y="0.455" font-size="0.008257" fill="hsl(0.0,100%,20%)">sokcevic</text>
<text x="1.215" y="0.644" font-size="0.008257" fill="hsl(0.0,100%,20%)">msisov</text>
<text x="0.461" y="0.490" font-size="0.009535" fill="hsl(0.0,100%,20%)">phanquangminh217</text>
<text x="1.468" y="0.550" font-size="0.003371" fill="hsl(0.0,100%,20%)">zijiehe</text>
<text x="1.001" y="0.745" font-size="0.010113" fill="hsl(0.0,100%,20%)">sky</text>
<text x="0.579" y="0.651" font-size="0.003371" fill="hsl(0.0,100%,20%)">natsu</text>
<text x="0.066" y="0.568" font-size="0.008257" fill="hsl(0.0,100%,20%)">bsheedy</text>
<text x="0.048" y="0.199" font-size="0.003371" fill="hsl(0.0,100%,20%)">cwallez</text>
<text x="0.764" y="0.190" font-size="0.003371" fill="hsl(0.0,100%,20%)">sugoi</text>
<text x="0.389" y="0.455" font-size="0.003371" fill="hsl(0.0,100%,20%)">rjodin</text>
</svg>
