<svg width="4000" height="2000" viewBox="-0.025 -0.025 2.05 1.05" xmlns="http://www.w3.org/2000/svg">
  <style>
    path {
      fill: none;
      stroke-linecap: round;
      stroke-opacity: 0.4;
    }

    text {
      text-anchor: middle;
      alignment-baseline: hanging;
    }
  </style>
  <g opacity="0.4">
<path d="M0.715 0.527 Q0.800 0.590 0.941 0.562" stroke="hsl(0.0,100%,35%)" stroke-width="0.00830"></path>
<path d="M0.715 0.527 Q0.599 0.326 0.181 0.338" stroke="hsl(0.0,100%,35%)" stroke-width="0.01528"></path>
<path d="M0.715 0.527 Q0.687 0.437 0.504 0.431" stroke="hsl(0.0,100%,35%)" stroke-width="0.00100"></path>
<path d="M0.715 0.527 Q0.857 0.444 0.727 0.356" stroke="hsl(0.0,100%,35%)" stroke-width="0.00100"></path>
<path d="M0.715 0.527 Q0.934 0.304 0.548 0.149" stroke="hsl(0.0,100%,35%)" stroke-width="0.00133"></path>
<path d="M0.715 0.527 Q0.951 0.503 0.957 0.383" stroke="hsl(0.0,100%,35%)" stroke-width="0.00066"></path>
<path d="M0.715 0.527 Q0.717 0.547 0.757 0.551" stroke="hsl(0.0,100%,35%)" stroke-width="0.00066"></path>
<path d="M0.715 0.527 Q0.984 0.596 1.178 0.480" stroke="hsl(0.0,100%,35%)" stroke-width="0.00033"></path>
<path d="M0.715 0.527 Q0.686 0.391 0.414 0.375" stroke="hsl(0.0,100%,35%)" stroke-width="0.00033"></path>
<path d="M0.715 0.527 Q0.781 0.344 0.440 0.273" stroke="hsl(0.0,100%,35%)" stroke-width="0.00232"></path>
<path d="M0.715 0.527 Q0.568 0.739 0.949 0.858" stroke="hsl(0.0,100%,35%)" stroke-width="0.00066"></path>
<path d="M0.941 0.562 Q0.857 0.499 0.715 0.527" stroke="hsl(0.0,100%,35%)" stroke-width="0.01594"></path>
<path d="M0.941 0.562 Q0.741 0.298 0.181 0.338" stroke="hsl(0.0,100%,35%)" stroke-width="0.03819"></path>
<path d="M0.941 0.562 Q0.828 0.409 0.504 0.431" stroke="hsl(0.0,100%,35%)" stroke-width="0.01827"></path>
<path d="M0.941 0.562 Q0.777 0.594 0.802 0.681" stroke="hsl(0.0,100%,35%)" stroke-width="0.00033"></path>
<path d="M0.941 0.562 Q0.857 0.741 1.187 0.822" stroke="hsl(0.0,100%,35%)" stroke-width="0.00033"></path>
<path d="M0.941 0.562 Q1.126 0.568 1.178 0.480" stroke="hsl(0.0,100%,35%)" stroke-width="0.00565"></path>
<path d="M0.941 0.562 Q0.385 0.537 0.213 0.803" stroke="hsl(0.0,100%,35%)" stroke-width="0.00033"></path>
<path d="M0.941 0.562 Q0.928 0.635 1.068 0.657" stroke="hsl(0.0,100%,35%)" stroke-width="0.00033"></path>
<path d="M0.941 0.562 Q0.827 0.363 0.414 0.375" stroke="hsl(0.0,100%,35%)" stroke-width="0.00033"></path>
<path d="M0.941 0.562 Q0.758 0.403 0.407 0.457" stroke="hsl(0.0,100%,35%)" stroke-width="0.00066"></path>
<path d="M0.941 0.562 Q0.709 0.712 0.949 0.858" stroke="hsl(0.0,100%,35%)" stroke-width="0.00033"></path>
<path d="M0.941 0.562 Q0.607 0.353 0.125 0.470" stroke="hsl(0.0,100%,35%)" stroke-width="0.00066"></path>
<path d="M0.941 0.562 Q0.922 0.317 0.440 0.273" stroke="hsl(0.0,100%,35%)" stroke-width="0.00598"></path>
<path d="M0.941 0.562 Q0.656 0.355 0.189 0.448" stroke="hsl(0.0,100%,35%)" stroke-width="0.00066"></path>
<path d="M0.941 0.562 Q1.075 0.277 0.548 0.149" stroke="hsl(0.0,100%,35%)" stroke-width="0.00033"></path>
<path d="M0.181 0.338 Q0.382 0.602 0.941 0.562" stroke="hsl(0.0,100%,35%)" stroke-width="0.02491"></path>
<path d="M0.181 0.338 Q0.566 0.608 1.178 0.480" stroke="hsl(0.0,100%,35%)" stroke-width="0.00631"></path>
<path d="M0.181 0.338 Q0.269 0.449 0.504 0.431" stroke="hsl(0.0,100%,35%)" stroke-width="0.02491"></path>
<path d="M0.181 0.338 Q0.198 0.443 0.407 0.457" stroke="hsl(0.0,100%,35%)" stroke-width="0.00365"></path>
<path d="M0.181 0.338 Q0.150 0.751 0.949 0.858" stroke="hsl(0.0,100%,35%)" stroke-width="0.00498"></path>
<path d="M0.181 0.338 Q0.297 0.539 0.715 0.527" stroke="hsl(0.0,100%,35%)" stroke-width="0.01926"></path>
<path d="M0.181 0.338 Q-0.012 0.457 0.177 0.577" stroke="hsl(0.0,100%,35%)" stroke-width="0.00033"></path>
<path d="M0.181 0.338 Q0.268 0.403 0.414 0.375" stroke="hsl(0.0,100%,35%)" stroke-width="0.00498"></path>
<path d="M0.181 0.338 Q0.097 0.395 0.189 0.448" stroke="hsl(0.0,100%,35%)" stroke-width="0.00166"></path>
<path d="M0.181 0.338 Q0.097 0.562 0.516 0.653" stroke="hsl(0.0,100%,35%)" stroke-width="0.00100"></path>
<path d="M0.181 0.338 Q0.363 0.357 0.440 0.273" stroke="hsl(0.0,100%,35%)" stroke-width="0.03255"></path>
<path d="M0.181 0.338 Q0.516 0.317 0.548 0.149" stroke="hsl(0.0,100%,35%)" stroke-width="0.01129"></path>
<path d="M0.181 0.338 Q0.440 0.456 0.727 0.356" stroke="hsl(0.0,100%,35%)" stroke-width="0.00199"></path>
<path d="M0.181 0.338 Q-0.039 0.539 0.305 0.690" stroke="hsl(0.0,100%,35%)" stroke-width="0.00066"></path>
<path d="M0.181 0.338 Q0.067 0.649 0.649 0.774" stroke="hsl(0.0,100%,35%)" stroke-width="0.00033"></path>
<path d="M0.181 0.338 Q0.197 0.419 0.358 0.429" stroke="hsl(0.0,100%,35%)" stroke-width="0.00066"></path>
<path d="M0.181 0.338 Q0.438 0.487 0.785 0.395" stroke="hsl(0.0,100%,35%)" stroke-width="0.00033"></path>
<path d="M0.181 0.338 Q0.271 0.242 0.103 0.177" stroke="hsl(0.0,100%,35%)" stroke-width="0.00033"></path>
<path d="M0.181 0.338 Q0.298 0.781 1.187 0.822" stroke="hsl(0.0,100%,35%)" stroke-width="0.00066"></path>
<path d="M0.181 0.338 Q-0.175 0.577 0.213 0.803" stroke="hsl(0.0,100%,35%)" stroke-width="0.00033"></path>
<path d="M0.181 0.338 Q0.136 0.426 0.299 0.467" stroke="hsl(0.0,100%,35%)" stroke-width="0.00033"></path>
<path d="M0.181 0.338 Q-0.303 0.621 0.142 0.919" stroke="hsl(0.0,100%,35%)" stroke-width="0.00033"></path>
<path d="M0.181 0.338 Q0.314 0.492 0.645 0.461" stroke="hsl(0.0,100%,35%)" stroke-width="0.00033"></path>
<path d="M0.181 0.338 Q0.249 0.399 0.383 0.380" stroke="hsl(0.0,100%,35%)" stroke-width="0.00033"></path>
<path d="M0.181 0.338 Q0.369 0.675 1.068 0.657" stroke="hsl(0.0,100%,35%)" stroke-width="0.00033"></path>
<path d="M0.181 0.338 Q0.048 0.393 0.125 0.470" stroke="hsl(0.0,100%,35%)" stroke-width="0.00232"></path>
<path d="M0.181 0.338 Q0.098 0.487 0.371 0.560" stroke="hsl(0.0,100%,35%)" stroke-width="0.00066"></path>
<path d="M0.181 0.338 Q-0.031 0.421 0.086 0.543" stroke="hsl(0.0,100%,35%)" stroke-width="0.00033"></path>
<path d="M0.181 0.338 Q0.205 0.477 0.483 0.496" stroke="hsl(0.0,100%,35%)" stroke-width="0.00033"></path>
<path d="M0.504 0.431 Q0.417 0.320 0.181 0.338" stroke="hsl(0.0,100%,35%)" stroke-width="0.01063"></path>
<path d="M0.504 0.431 Q0.752 0.298 0.548 0.149" stroke="hsl(0.0,100%,35%)" stroke-width="0.00299"></path>
<path d="M0.504 0.431 Q0.434 0.425 0.407 0.457" stroke="hsl(0.0,100%,35%)" stroke-width="0.00066"></path>
<path d="M0.504 0.431 Q0.550 0.474 0.645 0.461" stroke="hsl(0.0,100%,35%)" stroke-width="0.00033"></path>
<path d="M0.504 0.431 Q0.618 0.584 0.941 0.562" stroke="hsl(0.0,100%,35%)" stroke-width="0.00531"></path>
<path d="M0.504 0.431 Q0.675 0.438 0.727 0.356" stroke="hsl(0.0,100%,35%)" stroke-width="0.00133"></path>
<path d="M0.504 0.431 Q0.533 0.521 0.715 0.527" stroke="hsl(0.0,100%,35%)" stroke-width="0.00199"></path>
<path d="M0.504 0.431 Q0.599 0.339 0.440 0.273" stroke="hsl(0.0,100%,35%)" stroke-width="0.00199"></path>
<path d="M0.504 0.431 Q0.674 0.469 0.785 0.395" stroke="hsl(0.0,100%,35%)" stroke-width="0.00033"></path>
<path d="M0.504 0.431 Q0.385 0.733 0.949 0.858" stroke="hsl(0.0,100%,35%)" stroke-width="0.00066"></path>
<path d="M0.504 0.431 Q0.504 0.385 0.414 0.375" stroke="hsl(0.0,100%,35%)" stroke-width="0.00033"></path>
<path d="M0.504 0.431 Q0.283 0.375 0.125 0.470" stroke="hsl(0.0,100%,35%)" stroke-width="0.00033"></path>
<path d="M0.504 0.431 Q0.802 0.590 1.178 0.480" stroke="hsl(0.0,100%,35%)" stroke-width="0.00133"></path>
<path d="M0.504 0.431 Q0.061 0.558 0.213 0.803" stroke="hsl(0.0,100%,35%)" stroke-width="0.00033"></path>
<path d="M0.504 0.431 Q0.224 0.438 0.177 0.577" stroke="hsl(0.0,100%,35%)" stroke-width="0.00033"></path>
<path d="M0.504 0.431 Q0.333 0.376 0.189 0.448" stroke="hsl(0.0,100%,35%)" stroke-width="0.00033"></path>
<path d="M0.727 0.356 Q0.556 0.303 0.414 0.375" stroke="hsl(0.0,100%,35%)" stroke-width="0.00498"></path>
<path d="M0.727 0.356 Q0.469 0.238 0.181 0.338" stroke="hsl(0.0,100%,35%)" stroke-width="0.00631"></path>
<path d="M0.727 0.356 Q0.804 0.217 0.548 0.149" stroke="hsl(0.0,100%,35%)" stroke-width="0.00830"></path>
<path d="M0.727 0.356 Q0.670 0.502 0.941 0.562" stroke="hsl(0.0,100%,35%)" stroke-width="0.00166"></path>
<path d="M0.727 0.356 Q0.585 0.439 0.715 0.527" stroke="hsl(0.0,100%,35%)" stroke-width="0.00565"></path>
<path d="M0.727 0.356 Q0.556 0.349 0.504 0.431" stroke="hsl(0.0,100%,35%)" stroke-width="0.00299"></path>
<path d="M0.727 0.356 Q0.650 0.257 0.440 0.273" stroke="hsl(0.0,100%,35%)" stroke-width="0.01860"></path>
<path d="M0.727 0.356 Q0.437 0.651 0.949 0.858" stroke="hsl(0.0,100%,35%)" stroke-width="0.00232"></path>
<path d="M0.727 0.356 Q0.854 0.508 1.178 0.480" stroke="hsl(0.0,100%,35%)" stroke-width="0.00166"></path>
<path d="M0.727 0.356 Q0.385 0.295 0.189 0.448" stroke="hsl(0.0,100%,35%)" stroke-width="0.00033"></path>
<path d="M0.727 0.356 Q0.818 0.395 0.915 0.360" stroke="hsl(0.0,100%,35%)" stroke-width="0.00133"></path>
<path d="M0.727 0.356 Q0.375 0.401 0.384 0.583" stroke="hsl(0.0,100%,35%)" stroke-width="0.00033"></path>
<path d="M0.727 0.356 Q1.061 0.252 0.929 0.066" stroke="hsl(0.0,100%,35%)" stroke-width="0.00033"></path>
<path d="M0.727 0.356 Q0.585 0.681 1.187 0.822" stroke="hsl(0.0,100%,35%)" stroke-width="0.00033"></path>
<path d="M0.727 0.356 Q0.335 0.293 0.125 0.470" stroke="hsl(0.0,100%,35%)" stroke-width="0.00033"></path>
<path d="M0.548 0.149 Q0.329 0.371 0.715 0.527" stroke="hsl(0.0,100%,35%)" stroke-width="0.00332"></path>
<path d="M0.548 0.149 Q0.471 0.288 0.727 0.356" stroke="hsl(0.0,100%,35%)" stroke-width="0.01030"></path>
<path d="M0.548 0.149 Q0.300 0.281 0.504 0.431" stroke="hsl(0.0,100%,35%)" stroke-width="0.00996"></path>
<path d="M0.548 0.149 Q0.300 0.235 0.414 0.375" stroke="hsl(0.0,100%,35%)" stroke-width="0.00166"></path>
<path d="M0.548 0.149 Q0.213 0.170 0.181 0.338" stroke="hsl(0.0,100%,35%)" stroke-width="0.00432"></path>
<path d="M0.548 0.149 Q0.181 0.583 0.949 0.858" stroke="hsl(0.0,100%,35%)" stroke-width="0.00066"></path>
<path d="M0.548 0.149 Q0.394 0.189 0.440 0.273" stroke="hsl(0.0,100%,35%)" stroke-width="0.01295"></path>
<path d="M0.548 0.149 Q0.470 0.319 0.785 0.395" stroke="hsl(0.0,100%,35%)" stroke-width="0.00033"></path>
<path d="M0.548 0.149 Q0.513 0.076 0.364 0.078" stroke="hsl(0.0,100%,35%)" stroke-width="0.00066"></path>
<path d="M0.548 0.149 Q0.414 0.434 0.941 0.562" stroke="hsl(0.0,100%,35%)" stroke-width="0.00299"></path>
<path d="M0.548 0.149 Q0.578 0.218 0.720 0.218" stroke="hsl(0.0,100%,35%)" stroke-width="0.00100"></path>
<path d="M0.548 0.149 Q0.637 0.095 0.552 0.039" stroke="hsl(0.0,100%,35%)" stroke-width="0.00033"></path>
<path d="M0.548 0.149 Q-0.143 0.409 0.213 0.803" stroke="hsl(0.0,100%,35%)" stroke-width="0.00033"></path>
<path d="M0.548 0.149 Q0.079 0.225 0.125 0.470" stroke="hsl(0.0,100%,35%)" stroke-width="0.00033"></path>
<path d="M1.178 0.480 Q1.128 0.188 0.548 0.149" stroke="hsl(0.0,100%,35%)" stroke-width="0.00066"></path>
<path d="M1.178 0.480 Q0.793 0.210 0.181 0.338" stroke="hsl(0.0,100%,35%)" stroke-width="0.00066"></path>
<path d="M1.178 0.480 Q0.975 0.228 0.440 0.273" stroke="hsl(0.0,100%,35%)" stroke-width="0.00100"></path>
<path d="M1.178 0.480 Q1.051 0.328 0.727 0.356" stroke="hsl(0.0,100%,35%)" stroke-width="0.00066"></path>
<path d="M1.178 0.480 Q0.981 0.546 1.068 0.657" stroke="hsl(0.0,100%,35%)" stroke-width="0.00033"></path>
<path d="M1.178 0.480 Q0.994 0.474 0.941 0.562" stroke="hsl(0.0,100%,35%)" stroke-width="0.00066"></path>
<path d="M1.178 0.480 Q0.762 0.623 0.949 0.858" stroke="hsl(0.0,100%,35%)" stroke-width="0.00100"></path>
<path d="M1.178 0.480 Q0.600 0.328 0.177 0.577" stroke="hsl(0.0,100%,35%)" stroke-width="0.00033"></path>
<path d="M1.178 0.480 Q0.810 0.314 0.407 0.457" stroke="hsl(0.0,100%,35%)" stroke-width="0.00033"></path>
<path d="M1.178 0.480 Q0.880 0.275 0.414 0.375" stroke="hsl(0.0,100%,35%)" stroke-width="0.00033"></path>
<path d="M0.414 0.375 Q0.296 0.724 0.949 0.858" stroke="hsl(0.0,100%,35%)" stroke-width="0.00199"></path>
<path d="M0.414 0.375 Q0.586 0.428 0.727 0.356" stroke="hsl(0.0,100%,35%)" stroke-width="0.00332"></path>
<path d="M0.414 0.375 Q0.623 0.271 0.464 0.146" stroke="hsl(0.0,100%,35%)" stroke-width="0.00033"></path>
<path d="M0.414 0.375 Q0.328 0.310 0.181 0.338" stroke="hsl(0.0,100%,35%)" stroke-width="0.00332"></path>
<path d="M0.414 0.375 Q0.509 0.329 0.440 0.273" stroke="hsl(0.0,100%,35%)" stroke-width="0.00830"></path>
<path d="M0.414 0.375 Q0.528 0.574 0.941 0.562" stroke="hsl(0.0,100%,35%)" stroke-width="0.00033"></path>
<path d="M0.414 0.375 Q0.415 0.421 0.504 0.431" stroke="hsl(0.0,100%,35%)" stroke-width="0.00066"></path>
<path d="M0.414 0.375 Q-0.028 0.549 0.213 0.803" stroke="hsl(0.0,100%,35%)" stroke-width="0.00033"></path>
<path d="M0.414 0.375 Q0.662 0.289 0.548 0.149" stroke="hsl(0.0,100%,35%)" stroke-width="0.00100"></path>
<path d="M0.414 0.375 Q0.444 0.511 0.715 0.527" stroke="hsl(0.0,100%,35%)" stroke-width="0.00033"></path>
<path d="M0.414 0.375 Q0.512 0.478 0.733 0.452" stroke="hsl(0.0,100%,35%)" stroke-width="0.00033"></path>
<path d="M0.440 0.273 Q0.459 0.518 0.941 0.562" stroke="hsl(0.0,100%,35%)" stroke-width="0.00232"></path>
<path d="M0.440 0.273 Q0.593 0.232 0.548 0.149" stroke="hsl(0.0,100%,35%)" stroke-width="0.01627"></path>
<path d="M0.440 0.273 Q0.258 0.254 0.181 0.338" stroke="hsl(0.0,100%,35%)" stroke-width="0.01793"></path>
<path d="M0.440 0.273 Q0.345 0.319 0.414 0.375" stroke="hsl(0.0,100%,35%)" stroke-width="0.01063"></path>
<path d="M0.440 0.273 Q0.516 0.372 0.727 0.356" stroke="hsl(0.0,100%,35%)" stroke-width="0.00664"></path>
<path d="M0.440 0.273 Q0.345 0.365 0.504 0.431" stroke="hsl(0.0,100%,35%)" stroke-width="0.01162"></path>
<path d="M0.440 0.273 Q0.374 0.697 1.187 0.822" stroke="hsl(0.0,100%,35%)" stroke-width="0.00100"></path>
<path d="M0.440 0.273 Q0.226 0.667 0.949 0.858" stroke="hsl(0.0,100%,35%)" stroke-width="0.00166"></path>
<path d="M0.440 0.273 Q0.374 0.455 0.715 0.527" stroke="hsl(0.0,100%,35%)" stroke-width="0.00199"></path>
<path d="M0.440 0.273 Q0.347 0.157 0.103 0.177" stroke="hsl(0.0,100%,35%)" stroke-width="0.00033"></path>
<path d="M0.440 0.273 Q0.124 0.309 0.125 0.470" stroke="hsl(0.0,100%,35%)" stroke-width="0.00066"></path>
<path d="M0.440 0.273 Q0.164 0.417 0.384 0.583" stroke="hsl(0.0,100%,35%)" stroke-width="0.00033"></path>
<path d="M0.440 0.273 Q0.743 0.245 0.755 0.090" stroke="hsl(0.0,100%,35%)" stroke-width="0.00033"></path>
<path d="M0.440 0.273 Q0.643 0.524 1.178 0.480" stroke="hsl(0.0,100%,35%)" stroke-width="0.00033"></path>
<path d="M0.949 0.858 Q0.625 0.683 0.213 0.803" stroke="hsl(180.0,100%,35%)" stroke-width="0.00332"></path>
<path d="M0.949 0.858 Q1.097 0.887 1.187 0.822" stroke="hsl(180.0,100%,35%)" stroke-width="0.00299"></path>
<path d="M0.949 0.858 Q1.005 0.584 0.483 0.496" stroke="hsl(180.0,100%,35%)" stroke-width="0.00166"></path>
<path d="M0.949 0.858 Q0.866 0.756 0.649 0.774" stroke="hsl(180.0,100%,35%)" stroke-width="0.00066"></path>
<path d="M0.949 0.858 Q0.981 0.444 0.181 0.338" stroke="hsl(180.0,100%,35%)" stroke-width="0.00299"></path>
<path d="M0.949 0.858 Q1.316 0.423 0.548 0.149" stroke="hsl(180.0,100%,35%)" stroke-width="0.00166"></path>
<path d="M0.949 0.858 Q1.179 0.875 1.263 0.766" stroke="hsl(180.0,100%,35%)" stroke-width="0.00066"></path>
<path d="M0.949 0.858 Q0.847 0.499 0.125 0.470" stroke="hsl(180.0,100%,35%)" stroke-width="0.00066"></path>
<path d="M0.949 0.858 Q1.163 0.463 0.440 0.273" stroke="hsl(180.0,100%,35%)" stroke-width="0.00232"></path>
<path d="M0.949 0.858 Q1.068 0.509 0.414 0.375" stroke="hsl(180.0,100%,35%)" stroke-width="0.00066"></path>
<path d="M0.949 0.858 Q0.761 0.645 0.305 0.690" stroke="hsl(180.0,100%,35%)" stroke-width="0.00133"></path>
<path d="M0.949 0.858 Q1.068 0.555 0.504 0.431" stroke="hsl(180.0,100%,35%)" stroke-width="0.00066"></path>
<path d="M0.949 0.858 Q1.222 0.964 1.488 0.854" stroke="hsl(180.0,100%,35%)" stroke-width="0.00033"></path>
<path d="M0.949 0.858 Q1.366 0.715 1.178 0.480" stroke="hsl(180.0,100%,35%)" stroke-width="0.00033"></path>
<path d="M0.949 0.858 Q1.114 0.599 0.645 0.461" stroke="hsl(180.0,100%,35%)" stroke-width="0.00033"></path>
<path d="M0.670 0.592 Q0.811 0.386 0.440 0.273" stroke="hsl(0.0,100%,35%)" stroke-width="0.00033"></path>
<path d="M0.670 0.592 Q0.629 0.367 0.181 0.338" stroke="hsl(0.0,100%,35%)" stroke-width="0.00066"></path>
<path d="M0.670 0.592 Q0.830 0.631 0.941 0.562" stroke="hsl(0.0,100%,35%)" stroke-width="0.00033"></path>
<path d="M0.228 0.204 Q0.098 0.262 0.181 0.338" stroke="hsl(0.0,100%,35%)" stroke-width="0.00365"></path>
<path d="M0.228 0.204 Q0.279 0.281 0.440 0.273" stroke="hsl(0.0,100%,35%)" stroke-width="0.00399"></path>
<path d="M0.228 0.204 Q0.013 0.486 0.516 0.653" stroke="hsl(0.0,100%,35%)" stroke-width="0.00033"></path>
<path d="M0.516 0.653 Q0.601 0.428 0.181 0.338" stroke="hsl(0.0,100%,35%)" stroke-width="0.00166"></path>
<path d="M0.516 0.653 Q0.516 0.485 0.189 0.448" stroke="hsl(0.0,100%,35%)" stroke-width="0.00033"></path>
<path d="M0.516 0.653 Q0.782 0.447 0.440 0.273" stroke="hsl(0.0,100%,35%)" stroke-width="0.00033"></path>
<path d="M0.616 0.643 Q0.799 0.513 0.584 0.395" stroke="hsl(0.0,100%,35%)" stroke-width="0.00033"></path>
<path d="M0.616 0.643 Q0.759 0.605 0.715 0.527" stroke="hsl(0.0,100%,35%)" stroke-width="0.00033"></path>
<path d="M0.616 0.643 Q0.630 0.657 0.660 0.653" stroke="hsl(0.0,100%,35%)" stroke-width="0.00066"></path>
<path d="M0.584 0.395 Q0.763 0.264 0.548 0.149" stroke="hsl(0.0,100%,35%)" stroke-width="0.00033"></path>
<path d="M0.584 0.395 Q0.613 0.453 0.733 0.452" stroke="hsl(0.0,100%,35%)" stroke-width="0.00033"></path>
<path d="M0.584 0.395 Q0.610 0.305 0.440 0.273" stroke="hsl(0.0,100%,35%)" stroke-width="0.00066"></path>
<path d="M0.086 0.543 Q0.298 0.460 0.181 0.338" stroke="hsl(0.0,100%,35%)" stroke-width="0.00232"></path>
<path d="M0.086 0.543 Q0.266 0.873 0.949 0.858" stroke="hsl(0.0,100%,35%)" stroke-width="0.00033"></path>
<path d="M0.086 0.543 Q0.145 0.837 0.731 0.872" stroke="hsl(0.0,100%,35%)" stroke-width="0.00033"></path>
<path d="M0.086 0.543 Q0.479 0.479 0.440 0.273" stroke="hsl(0.0,100%,35%)" stroke-width="0.00133"></path>
<path d="M0.086 0.543 Q0.203 0.623 0.384 0.583" stroke="hsl(0.0,100%,35%)" stroke-width="0.00033"></path>
<path d="M0.086 0.543 Q0.213 0.516 0.189 0.448" stroke="hsl(0.0,100%,35%)" stroke-width="0.00033"></path>
<path d="M0.731 0.872 Q0.884 0.495 0.181 0.338" stroke="hsl(180.0,100%,35%)" stroke-width="0.00631"></path>
<path d="M0.731 0.872 Q0.852 0.909 0.949 0.858" stroke="hsl(180.0,100%,35%)" stroke-width="0.01129"></path>
<path d="M0.731 0.872 Q0.528 0.734 0.213 0.803" stroke="hsl(180.0,100%,35%)" stroke-width="0.00664"></path>
<path d="M0.731 0.872 Q0.779 0.829 0.705 0.796" stroke="hsl(180.0,100%,35%)" stroke-width="0.00232"></path>
<path d="M0.731 0.872 Q1.065 0.514 0.440 0.273" stroke="hsl(180.0,100%,35%)" stroke-width="0.00432"></path>
<path d="M0.731 0.872 Q0.663 0.696 0.305 0.690" stroke="hsl(180.0,100%,35%)" stroke-width="0.00066"></path>
<path d="M0.731 0.872 Q1.000 0.938 1.187 0.822" stroke="hsl(180.0,100%,35%)" stroke-width="0.00033"></path>
<path d="M0.189 0.448 Q0.273 0.392 0.181 0.338" stroke="hsl(0.0,100%,35%)" stroke-width="0.01328"></path>
<path d="M0.189 0.448 Q0.474 0.656 0.941 0.562" stroke="hsl(0.0,100%,35%)" stroke-width="0.00232"></path>
<path d="M0.189 0.448 Q0.361 0.503 0.504 0.431" stroke="hsl(0.0,100%,35%)" stroke-width="0.00033"></path>
<path d="M0.189 0.448 Q0.297 0.531 0.483 0.496" stroke="hsl(0.0,100%,35%)" stroke-width="0.00033"></path>
<path d="M0.189 0.448 Q0.291 0.496 0.407 0.457" stroke="hsl(0.0,100%,35%)" stroke-width="0.00066"></path>
<path d="M0.189 0.448 Q0.455 0.411 0.440 0.273" stroke="hsl(0.0,100%,35%)" stroke-width="0.00498"></path>
<path d="M0.189 0.448 Q0.179 0.555 0.384 0.583" stroke="hsl(0.0,100%,35%)" stroke-width="0.00100"></path>
<path d="M0.189 0.448 Q0.658 0.662 1.178 0.480" stroke="hsl(0.0,100%,35%)" stroke-width="0.00133"></path>
<path d="M0.189 0.448 Q0.532 0.510 0.727 0.356" stroke="hsl(0.0,100%,35%)" stroke-width="0.00066"></path>
<path d="M0.189 0.448 Q0.140 0.447 0.125 0.470" stroke="hsl(0.0,100%,35%)" stroke-width="0.00033"></path>
<path d="M1.436 0.956 Q1.271 0.809 0.949 0.858" stroke="hsl(180.0,100%,35%)" stroke-width="0.00066"></path>
<path d="M1.436 0.956 Q1.169 0.451 0.125 0.470" stroke="hsl(180.0,100%,35%)" stroke-width="0.00033"></path>
<path d="M1.436 0.956 Q1.543 0.915 1.488 0.854" stroke="hsl(180.0,100%,35%)" stroke-width="0.00033"></path>
<path d="M0.125 0.470 Q0.259 0.415 0.181 0.338" stroke="hsl(0.0,100%,35%)" stroke-width="0.00332"></path>
<path d="M0.125 0.470 Q0.460 0.679 0.941 0.562" stroke="hsl(0.0,100%,35%)" stroke-width="0.00266"></path>
<path d="M0.125 0.470 Q0.276 0.520 0.407 0.457" stroke="hsl(0.0,100%,35%)" stroke-width="0.00033"></path>
<path d="M0.125 0.470 Q0.066 0.534 0.177 0.577" stroke="hsl(0.0,100%,35%)" stroke-width="0.00033"></path>
<path d="M0.125 0.470 Q0.346 0.526 0.504 0.431" stroke="hsl(0.0,100%,35%)" stroke-width="0.00033"></path>
<path d="M0.636 0.269 Q0.484 0.155 0.228 0.204" stroke="hsl(180.0,100%,35%)" stroke-width="0.00033"></path>
<path d="M0.636 0.269 Q0.440 0.278 0.414 0.375" stroke="hsl(180.0,100%,35%)" stroke-width="0.00033"></path>
<path d="M0.636 0.269 Q-0.003 0.451 0.213 0.803" stroke="hsl(180.0,100%,35%)" stroke-width="0.00066"></path>
<path d="M0.636 0.269 Q0.353 0.212 0.181 0.338" stroke="hsl(180.0,100%,35%)" stroke-width="0.00100"></path>
<path d="M0.636 0.269 Q0.535 0.231 0.440 0.273" stroke="hsl(180.0,100%,35%)" stroke-width="0.00033"></path>
<path d="M0.213 0.803 Q0.537 0.977 0.949 0.858" stroke="hsl(180.0,100%,35%)" stroke-width="0.00266"></path>
<path d="M0.213 0.803 Q0.300 0.858 0.427 0.828" stroke="hsl(180.0,100%,35%)" stroke-width="0.00066"></path>
<path d="M0.213 0.803 Q0.349 0.765 0.305 0.690" stroke="hsl(180.0,100%,35%)" stroke-width="0.00133"></path>
<path d="M0.213 0.803 Q0.464 0.898 0.705 0.796" stroke="hsl(180.0,100%,35%)" stroke-width="0.00066"></path>
<path d="M0.213 0.803 Q0.454 0.876 0.649 0.774" stroke="hsl(180.0,100%,35%)" stroke-width="0.00033"></path>
<path d="M0.213 0.803 Q0.750 0.583 0.440 0.273" stroke="hsl(180.0,100%,35%)" stroke-width="0.00066"></path>
<path d="M0.915 0.360 Q0.652 0.267 0.414 0.375" stroke="hsl(0.0,100%,35%)" stroke-width="0.00166"></path>
<path d="M0.915 0.360 Q0.565 0.202 0.181 0.338" stroke="hsl(0.0,100%,35%)" stroke-width="0.00066"></path>
<path d="M0.915 0.360 Q0.747 0.221 0.440 0.273" stroke="hsl(0.0,100%,35%)" stroke-width="0.00033"></path>
<path d="M0.915 0.360 Q0.823 0.320 0.727 0.356" stroke="hsl(0.0,100%,35%)" stroke-width="0.00066"></path>
<path d="M0.915 0.360 Q1.104 0.437 1.297 0.361" stroke="hsl(0.0,100%,35%)" stroke-width="0.00033"></path>
<path d="M0.148 0.165 Q0.026 0.258 0.181 0.338" stroke="hsl(180.0,100%,35%)" stroke-width="0.00166"></path>
<path d="M0.148 0.165 Q0.208 0.277 0.440 0.273" stroke="hsl(180.0,100%,35%)" stroke-width="0.00166"></path>
<path d="M0.148 0.165 Q-0.005 0.672 0.949 0.858" stroke="hsl(180.0,100%,35%)" stroke-width="0.00100"></path>
<path d="M0.148 0.165 Q0.159 0.413 0.645 0.461" stroke="hsl(180.0,100%,35%)" stroke-width="0.00033"></path>
<path d="M0.148 0.165 Q0.142 0.701 1.187 0.822" stroke="hsl(180.0,100%,35%)" stroke-width="0.00033"></path>
<path d="M1.187 0.822 Q1.039 0.792 0.949 0.858" stroke="hsl(180.0,100%,35%)" stroke-width="0.00133"></path>
<path d="M1.187 0.822 Q1.071 0.379 0.181 0.338" stroke="hsl(180.0,100%,35%)" stroke-width="0.00133"></path>
<path d="M1.187 0.822 Q0.715 0.617 0.213 0.803" stroke="hsl(180.0,100%,35%)" stroke-width="0.00033"></path>
<path d="M1.187 0.822 Q1.253 0.397 0.440 0.273" stroke="hsl(180.0,100%,35%)" stroke-width="0.00066"></path>
<path d="M1.187 0.822 Q1.158 0.444 0.414 0.375" stroke="hsl(180.0,100%,35%)" stroke-width="0.00033"></path>
<path d="M0.802 0.681 Q0.735 0.799 0.949 0.858" stroke="hsl(0.0,100%,35%)" stroke-width="0.00066"></path>
<path d="M0.802 0.681 Q0.766 0.385 0.181 0.338" stroke="hsl(0.0,100%,35%)" stroke-width="0.02192"></path>
<path d="M0.802 0.681 Q0.967 0.649 0.941 0.562" stroke="hsl(0.0,100%,35%)" stroke-width="0.01860"></path>
<path d="M0.802 0.681 Q0.854 0.496 0.504 0.431" stroke="hsl(0.0,100%,35%)" stroke-width="0.00033"></path>
<path d="M0.407 0.457 Q0.390 0.353 0.181 0.338" stroke="hsl(0.0,100%,35%)" stroke-width="0.00232"></path>
<path d="M0.407 0.457 Q0.724 0.331 0.548 0.149" stroke="hsl(0.0,100%,35%)" stroke-width="0.00033"></path>
<path d="M0.407 0.457 Q0.590 0.617 0.941 0.562" stroke="hsl(0.0,100%,35%)" stroke-width="0.00033"></path>
<path d="M0.407 0.457 Q0.256 0.408 0.125 0.470" stroke="hsl(0.0,100%,35%)" stroke-width="0.00066"></path>
<path d="M0.142 0.919 Q0.271 0.875 0.213 0.803" stroke="hsl(180.0,100%,35%)" stroke-width="0.01063"></path>
<path d="M0.142 0.919 Q0.627 0.636 0.181 0.338" stroke="hsl(180.0,100%,35%)" stroke-width="0.01262"></path>
<path d="M0.142 0.919 Q0.595 1.050 0.949 0.858" stroke="hsl(180.0,100%,35%)" stroke-width="0.00697"></path>
<path d="M0.142 0.919 Q0.964 1.106 1.508 0.746" stroke="hsl(180.0,100%,35%)" stroke-width="0.00066"></path>
<path d="M0.142 0.919 Q0.811 0.804 0.733 0.452" stroke="hsl(180.0,100%,35%)" stroke-width="0.00133"></path>
<path d="M0.142 0.919 Q0.808 0.655 0.440 0.273" stroke="hsl(180.0,100%,35%)" stroke-width="0.00066"></path>
<path d="M0.142 0.919 Q0.642 0.717 0.358 0.429" stroke="hsl(180.0,100%,35%)" stroke-width="0.00066"></path>
<path d="M0.142 0.919 Q0.522 0.970 0.705 0.796" stroke="hsl(180.0,100%,35%)" stroke-width="0.00066"></path>
<path d="M0.142 0.919 Q0.512 0.948 0.649 0.774" stroke="hsl(180.0,100%,35%)" stroke-width="0.00033"></path>
<path d="M0.142 0.919 Q0.713 0.702 0.414 0.375" stroke="hsl(180.0,100%,35%)" stroke-width="0.00066"></path>
<path d="M0.142 0.919 Q0.407 0.837 0.305 0.690" stroke="hsl(180.0,100%,35%)" stroke-width="0.00033"></path>
<path d="M1.508 0.746 Q1.139 0.690 0.949 0.858" stroke="hsl(180.0,100%,35%)" stroke-width="0.00066"></path>
<path d="M1.508 0.746 Q1.258 0.342 0.414 0.375" stroke="hsl(180.0,100%,35%)" stroke-width="0.00033"></path>
<path d="M1.508 0.746 Q1.287 0.720 1.187 0.822" stroke="hsl(180.0,100%,35%)" stroke-width="0.00033"></path>
<path d="M0.733 0.452 Q0.730 0.304 0.440 0.273" stroke="hsl(0.0,100%,35%)" stroke-width="0.00830"></path>
<path d="M0.733 0.452 Q0.517 0.698 0.949 0.858" stroke="hsl(0.0,100%,35%)" stroke-width="0.00133"></path>
<path d="M0.733 0.452 Q0.549 0.285 0.181 0.338" stroke="hsl(0.0,100%,35%)" stroke-width="0.00066"></path>
<path d="M0.358 0.429 Q0.524 0.367 0.440 0.273" stroke="hsl(0.0,100%,35%)" stroke-width="0.00299"></path>
<path d="M0.358 0.429 Q0.459 0.791 1.187 0.822" stroke="hsl(0.0,100%,35%)" stroke-width="0.00033"></path>
<path d="M0.358 0.429 Q0.311 0.762 0.949 0.858" stroke="hsl(0.0,100%,35%)" stroke-width="0.00066"></path>
<path d="M0.358 0.429 Q0.343 0.348 0.181 0.338" stroke="hsl(0.0,100%,35%)" stroke-width="0.00232"></path>
<path d="M0.358 0.429 Q0.258 0.405 0.189 0.448" stroke="hsl(0.0,100%,35%)" stroke-width="0.00033"></path>
<path d="M0.358 0.429 Q-0.013 0.587 0.213 0.803" stroke="hsl(0.0,100%,35%)" stroke-width="0.00033"></path>
<path d="M0.705 0.796 Q0.810 0.462 0.181 0.338" stroke="hsl(180.0,100%,35%)" stroke-width="0.00066"></path>
<path d="M0.705 0.796 Q0.454 0.701 0.213 0.803" stroke="hsl(180.0,100%,35%)" stroke-width="0.00166"></path>
<path d="M0.705 0.796 Q0.926 0.905 1.187 0.822" stroke="hsl(180.0,100%,35%)" stroke-width="0.00033"></path>
<path d="M0.705 0.796 Q0.590 0.663 0.305 0.690" stroke="hsl(180.0,100%,35%)" stroke-width="0.00100"></path>
<path d="M0.705 0.796 Q0.778 0.876 0.949 0.858" stroke="hsl(180.0,100%,35%)" stroke-width="0.00033"></path>
<path d="M0.649 0.774 Q0.495 0.757 0.427 0.828" stroke="hsl(180.0,100%,35%)" stroke-width="0.00033"></path>
<path d="M0.649 0.774 Q0.408 0.701 0.213 0.803" stroke="hsl(180.0,100%,35%)" stroke-width="0.00066"></path>
<path d="M0.649 0.774 Q0.544 0.663 0.305 0.690" stroke="hsl(180.0,100%,35%)" stroke-width="0.00066"></path>
<path d="M0.649 0.774 Q0.880 0.905 1.187 0.822" stroke="hsl(180.0,100%,35%)" stroke-width="0.00066"></path>
<path d="M0.649 0.774 Q0.945 0.481 0.440 0.273" stroke="hsl(180.0,100%,35%)" stroke-width="0.00033"></path>
<path d="M0.649 0.774 Q0.732 0.876 0.949 0.858" stroke="hsl(180.0,100%,35%)" stroke-width="0.00033"></path>
<path d="M0.305 0.690 Q0.169 0.728 0.213 0.803" stroke="hsl(180.0,100%,35%)" stroke-width="0.00764"></path>
<path d="M0.305 0.690 Q0.421 0.823 0.705 0.796" stroke="hsl(180.0,100%,35%)" stroke-width="0.00166"></path>
<path d="M0.305 0.690 Q0.410 0.801 0.649 0.774" stroke="hsl(180.0,100%,35%)" stroke-width="0.00033"></path>
<path d="M0.305 0.690 Q0.707 0.508 0.440 0.273" stroke="hsl(180.0,100%,35%)" stroke-width="0.00066"></path>
<path d="M0.305 0.690 Q0.493 0.903 0.949 0.858" stroke="hsl(180.0,100%,35%)" stroke-width="0.00133"></path>
<path d="M0.305 0.690 Q0.525 0.490 0.181 0.338" stroke="hsl(180.0,100%,35%)" stroke-width="0.00166"></path>
<path d="M0.305 0.690 Q0.641 0.932 1.187 0.822" stroke="hsl(180.0,100%,35%)" stroke-width="0.00033"></path>
<path d="M0.305 0.690 Q0.612 0.555 0.414 0.375" stroke="hsl(180.0,100%,35%)" stroke-width="0.00033"></path>
<path d="M0.785 0.395 Q0.616 0.356 0.504 0.431" stroke="hsl(0.0,100%,35%)" stroke-width="0.00199"></path>
<path d="M0.785 0.395 Q0.863 0.224 0.548 0.149" stroke="hsl(0.0,100%,35%)" stroke-width="0.00033"></path>
<path d="M0.785 0.395 Q0.529 0.245 0.181 0.338" stroke="hsl(0.0,100%,35%)" stroke-width="0.00199"></path>
<path d="M0.785 0.395 Q0.787 0.364 0.727 0.356" stroke="hsl(0.0,100%,35%)" stroke-width="0.00033"></path>
<path d="M0.785 0.395 Q0.729 0.510 0.941 0.562" stroke="hsl(0.0,100%,35%)" stroke-width="0.00066"></path>
<path d="M0.785 0.395 Q0.710 0.264 0.440 0.273" stroke="hsl(0.0,100%,35%)" stroke-width="0.00033"></path>
<path d="M0.364 0.078 Q0.399 0.150 0.548 0.149" stroke="hsl(0.0,100%,35%)" stroke-width="0.01229"></path>
<path d="M0.364 0.078 Q-0.030 0.334 0.384 0.583" stroke="hsl(0.0,100%,35%)" stroke-width="0.00033"></path>
<path d="M0.364 0.078 Q0.450 0.442 1.178 0.480" stroke="hsl(0.0,100%,35%)" stroke-width="0.00033"></path>
<path d="M0.364 0.078 Q0.064 0.171 0.181 0.338" stroke="hsl(0.0,100%,35%)" stroke-width="0.00133"></path>
<path d="M0.364 0.078 Q0.246 0.190 0.440 0.273" stroke="hsl(0.0,100%,35%)" stroke-width="0.01129"></path>
<path d="M0.364 0.078 Q0.414 0.432 1.117 0.486" stroke="hsl(0.0,100%,35%)" stroke-width="0.00066"></path>
<path d="M0.720 0.218 Q0.689 0.149 0.548 0.149" stroke="hsl(0.0,100%,35%)" stroke-width="0.00996"></path>
<path d="M0.720 0.218 Q0.536 0.189 0.440 0.273" stroke="hsl(0.0,100%,35%)" stroke-width="0.00697"></path>
<path d="M0.720 0.218 Q0.355 0.170 0.181 0.338" stroke="hsl(0.0,100%,35%)" stroke-width="0.00100"></path>
<path d="M0.720 0.218 Q0.555 0.435 0.941 0.562" stroke="hsl(0.0,100%,35%)" stroke-width="0.00033"></path>
<path d="M0.552 0.039 Q0.309 0.134 0.440 0.273" stroke="hsl(0.0,100%,35%)" stroke-width="0.00100"></path>
<path d="M0.552 0.039 Q0.096 0.528 0.949 0.858" stroke="hsl(0.0,100%,35%)" stroke-width="0.00133"></path>
<path d="M0.552 0.039 Q0.462 0.093 0.548 0.149" stroke="hsl(0.0,100%,35%)" stroke-width="0.00565"></path>
<path d="M0.552 0.039 Q0.128 0.115 0.181 0.338" stroke="hsl(0.0,100%,35%)" stroke-width="0.00332"></path>
<path d="M0.552 0.039 Q-0.006 0.170 0.125 0.470" stroke="hsl(0.0,100%,35%)" stroke-width="0.00033"></path>
<path d="M0.552 0.039 Q0.513 0.385 1.178 0.480" stroke="hsl(0.0,100%,35%)" stroke-width="0.00100"></path>
<path d="M0.383 0.380 Q0.315 0.318 0.181 0.338" stroke="hsl(0.0,100%,35%)" stroke-width="0.00266"></path>
<path d="M0.383 0.380 Q0.650 0.297 0.548 0.149" stroke="hsl(0.0,100%,35%)" stroke-width="0.00199"></path>
<path d="M0.383 0.380 Q0.497 0.337 0.440 0.273" stroke="hsl(0.0,100%,35%)" stroke-width="0.00066"></path>
<path d="M0.511 0.884 Q0.427 0.783 0.213 0.803" stroke="hsl(180.0,100%,35%)" stroke-width="0.00199"></path>
<path d="M0.511 0.884 Q0.814 1.057 1.218 0.947" stroke="hsl(180.0,100%,35%)" stroke-width="0.00033"></path>
<path d="M0.511 0.884 Q0.899 0.988 1.187 0.822" stroke="hsl(180.0,100%,35%)" stroke-width="0.00033"></path>
<path d="M0.511 0.884 Q0.513 0.839 0.427 0.828" stroke="hsl(180.0,100%,35%)" stroke-width="0.00033"></path>
<path d="M0.511 0.884 Q0.751 0.958 0.949 0.858" stroke="hsl(180.0,100%,35%)" stroke-width="0.00066"></path>
<path d="M0.511 0.884 Q0.668 0.856 0.649 0.774" stroke="hsl(180.0,100%,35%)" stroke-width="0.00066"></path>
<path d="M0.511 0.884 Q0.678 0.879 0.705 0.796" stroke="hsl(180.0,100%,35%)" stroke-width="0.00033"></path>
<path d="M1.218 0.947 Q1.156 0.849 0.949 0.858" stroke="hsl(180.0,100%,35%)" stroke-width="0.00066"></path>
<path d="M1.218 0.947 Q0.831 0.674 0.213 0.803" stroke="hsl(180.0,100%,35%)" stroke-width="0.00033"></path>
<path d="M1.218 0.947 Q1.369 0.454 0.440 0.273" stroke="hsl(180.0,100%,35%)" stroke-width="0.00066"></path>
<path d="M1.218 0.947 Q1.187 0.435 0.181 0.338" stroke="hsl(180.0,100%,35%)" stroke-width="0.00033"></path>
<path d="M0.427 0.828 Q0.697 0.534 0.181 0.338" stroke="hsl(180.0,100%,35%)" stroke-width="0.00199"></path>
<path d="M0.427 0.828 Q0.341 0.772 0.213 0.803" stroke="hsl(180.0,100%,35%)" stroke-width="0.00498"></path>
<path d="M0.427 0.828 Q0.476 0.735 0.305 0.690" stroke="hsl(180.0,100%,35%)" stroke-width="0.00033"></path>
<path d="M0.427 0.828 Q0.878 0.553 0.440 0.273" stroke="hsl(180.0,100%,35%)" stroke-width="0.00166"></path>
<path d="M0.427 0.828 Q0.783 0.599 0.414 0.375" stroke="hsl(180.0,100%,35%)" stroke-width="0.00033"></path>
<path d="M0.427 0.828 Q0.665 0.947 0.949 0.858" stroke="hsl(180.0,100%,35%)" stroke-width="0.00066"></path>
<path d="M0.427 0.828 Q0.813 0.977 1.187 0.822" stroke="hsl(180.0,100%,35%)" stroke-width="0.00066"></path>
<path d="M0.062 0.499 Q0.250 0.442 0.181 0.338" stroke="hsl(0.0,100%,35%)" stroke-width="0.00066"></path>
<path d="M0.062 0.499 Q0.219 0.856 0.949 0.858" stroke="hsl(0.0,100%,35%)" stroke-width="0.00033"></path>
<path d="M0.062 0.499 Q0.432 0.461 0.440 0.273" stroke="hsl(0.0,100%,35%)" stroke-width="0.00033"></path>
<path d="M0.649 0.977 Q0.655 0.902 0.511 0.884" stroke="hsl(180.0,100%,35%)" stroke-width="0.00033"></path>
<path d="M0.649 0.977 Q0.570 0.802 0.213 0.803" stroke="hsl(180.0,100%,35%)" stroke-width="0.00033"></path>
<path d="M0.649 0.977 Q1.108 0.583 0.440 0.273" stroke="hsl(180.0,100%,35%)" stroke-width="0.00033"></path>
<path d="M0.755 0.090 Q0.452 0.118 0.440 0.273" stroke="hsl(0.0,100%,35%)" stroke-width="0.00100"></path>
<path d="M0.755 0.090 Q0.605 0.078 0.548 0.149" stroke="hsl(0.0,100%,35%)" stroke-width="0.00033"></path>
<path d="M0.755 0.090 Q0.270 0.099 0.181 0.338" stroke="hsl(0.0,100%,35%)" stroke-width="0.00033"></path>
<path d="M1.129 0.965 Q1.125 0.875 0.949 0.858" stroke="hsl(180.0,100%,35%)" stroke-width="0.00066"></path>
<path d="M1.129 0.965 Q1.157 0.462 0.181 0.338" stroke="hsl(180.0,100%,35%)" stroke-width="0.00033"></path>
<path d="M1.334 0.686 Q1.036 0.282 0.181 0.338" stroke="hsl(180.0,100%,35%)" stroke-width="0.00033"></path>
<path d="M1.334 0.686 Q1.004 0.695 0.949 0.858" stroke="hsl(180.0,100%,35%)" stroke-width="0.00066"></path>
<path d="M1.334 0.686 Q1.218 0.301 0.440 0.273" stroke="hsl(180.0,100%,35%)" stroke-width="0.00033"></path>
<path d="M1.117 0.486 Q1.102 0.203 0.548 0.149" stroke="hsl(0.0,100%,35%)" stroke-width="0.00100"></path>
<path d="M1.117 0.486 Q0.855 0.336 0.504 0.431" stroke="hsl(0.0,100%,35%)" stroke-width="0.00166"></path>
<path d="M1.117 0.486 Q0.949 0.244 0.440 0.273" stroke="hsl(0.0,100%,35%)" stroke-width="0.00033"></path>
<path d="M1.117 0.486 Q0.884 0.426 0.715 0.527" stroke="hsl(0.0,100%,35%)" stroke-width="0.00133"></path>
<path d="M1.117 0.486 Q0.968 0.489 0.941 0.562" stroke="hsl(0.0,100%,35%)" stroke-width="0.00033"></path>
<path d="M0.483 0.496 Q0.427 0.770 0.949 0.858" stroke="hsl(0.0,100%,35%)" stroke-width="0.00365"></path>
<path d="M0.483 0.496 Q0.459 0.357 0.181 0.338" stroke="hsl(0.0,100%,35%)" stroke-width="0.00897"></path>
<path d="M0.483 0.496 Q0.640 0.376 0.440 0.273" stroke="hsl(0.0,100%,35%)" stroke-width="0.00166"></path>
<path d="M0.483 0.496 Q0.545 0.422 0.414 0.375" stroke="hsl(0.0,100%,35%)" stroke-width="0.00033"></path>
<path d="M0.483 0.496 Q0.103 0.595 0.213 0.803" stroke="hsl(0.0,100%,35%)" stroke-width="0.00033"></path>
<path d="M0.299 0.467 Q0.344 0.379 0.181 0.338" stroke="hsl(0.0,100%,35%)" stroke-width="0.00100"></path>
<path d="M0.299 0.467 Q0.544 0.643 0.941 0.562" stroke="hsl(0.0,100%,35%)" stroke-width="0.00066"></path>
<path d="M0.299 0.467 Q0.525 0.398 0.440 0.273" stroke="hsl(0.0,100%,35%)" stroke-width="0.00033"></path>
<path d="M1.673 0.300 Q0.897 0.021 0.181 0.338" stroke="hsl(180.0,100%,35%)" stroke-width="0.00033"></path>
<path d="M1.673 0.300 Q0.865 0.434 0.949 0.858" stroke="hsl(180.0,100%,35%)" stroke-width="0.00033"></path>
<path d="M1.673 0.300 Q1.664 0.197 1.460 0.178" stroke="hsl(180.0,100%,35%)" stroke-width="0.00033"></path>
<path d="M0.599 0.393 Q0.635 0.546 0.941 0.562" stroke="hsl(0.0,100%,35%)" stroke-width="0.00166"></path>
<path d="M0.599 0.393 Q0.434 0.282 0.181 0.338" stroke="hsl(0.0,100%,35%)" stroke-width="0.00232"></path>
<path d="M0.599 0.393 Q0.521 0.393 0.504 0.431" stroke="hsl(0.0,100%,35%)" stroke-width="0.00033"></path>
<path d="M0.599 0.393 Q0.547 0.451 0.649 0.489" stroke="hsl(0.0,100%,35%)" stroke-width="0.00033"></path>
<path d="M0.599 0.393 Q0.615 0.301 0.440 0.273" stroke="hsl(0.0,100%,35%)" stroke-width="0.00066"></path>
<path d="M0.599 0.393 Q0.402 0.695 0.949 0.858" stroke="hsl(0.0,100%,35%)" stroke-width="0.00033"></path>
<path d="M0.104 0.644 Q0.075 0.652 0.083 0.668" stroke="hsl(0.0,100%,35%)" stroke-width="0.00033"></path>
<path d="M0.104 0.644 Q0.475 0.572 0.414 0.375" stroke="hsl(0.0,100%,35%)" stroke-width="0.00033"></path>
<path d="M0.104 0.644 Q0.569 0.526 0.440 0.273" stroke="hsl(0.0,100%,35%)" stroke-width="0.00033"></path>
<path d="M0.836 0.070 Q0.294 0.073 0.181 0.338" stroke="hsl(0.0,100%,35%)" stroke-width="0.00100"></path>
<path d="M0.836 0.070 Q0.629 0.052 0.548 0.149" stroke="hsl(0.0,100%,35%)" stroke-width="0.00232"></path>
<path d="M0.836 0.070 Q0.210 0.130 0.189 0.448" stroke="hsl(0.0,100%,35%)" stroke-width="0.00033"></path>
<path d="M0.836 0.070 Q0.382 0.184 0.504 0.431" stroke="hsl(0.0,100%,35%)" stroke-width="0.00033"></path>
<path d="M0.836 0.070 Q0.679 0.344 1.178 0.480" stroke="hsl(0.0,100%,35%)" stroke-width="0.00066"></path>
<path d="M0.836 0.070 Q0.476 0.092 0.440 0.273" stroke="hsl(0.0,100%,35%)" stroke-width="0.00033"></path>
<path d="M1.552 0.436 Q0.914 0.526 0.949 0.858" stroke="hsl(180.0,100%,35%)" stroke-width="0.00033"></path>
<path d="M1.552 0.436 Q1.623 0.515 1.793 0.498" stroke="hsl(180.0,100%,35%)" stroke-width="0.00033"></path>
<path d="M1.552 0.436 Q1.127 0.132 0.440 0.273" stroke="hsl(180.0,100%,35%)" stroke-width="0.00033"></path>
<path d="M0.702 0.051 Q0.547 0.069 0.548 0.149" stroke="hsl(0.0,100%,35%)" stroke-width="0.00232"></path>
<path d="M0.702 0.051 Q0.212 0.091 0.181 0.338" stroke="hsl(0.0,100%,35%)" stroke-width="0.00033"></path>
<path d="M0.702 0.051 Q0.597 0.361 1.178 0.480" stroke="hsl(0.0,100%,35%)" stroke-width="0.00033"></path>
<path d="M1.663 0.884 Q1.540 0.334 0.440 0.273" stroke="hsl(180.0,100%,35%)" stroke-width="0.00033"></path>
<path d="M1.663 0.884 Q1.599 0.835 1.488 0.854" stroke="hsl(180.0,100%,35%)" stroke-width="0.00033"></path>
<path d="M1.663 0.884 Q1.475 0.758 1.187 0.822" stroke="hsl(180.0,100%,35%)" stroke-width="0.00033"></path>
<path d="M0.371 0.560 Q0.454 0.411 0.181 0.338" stroke="hsl(0.0,100%,35%)" stroke-width="0.00100"></path>
<path d="M0.371 0.560 Q0.541 0.522 0.504 0.431" stroke="hsl(0.0,100%,35%)" stroke-width="0.00066"></path>
<path d="M0.371 0.560 Q-0.031 0.694 0.142 0.919" stroke="hsl(0.0,100%,35%)" stroke-width="0.00033"></path>
<path d="M0.277 0.182 Q0.191 0.306 0.414 0.375" stroke="hsl(0.0,100%,35%)" stroke-width="0.00033"></path>
<path d="M0.277 0.182 Q-0.252 0.479 0.213 0.803" stroke="hsl(0.0,100%,35%)" stroke-width="0.00033"></path>
<path d="M0.277 0.182 Q0.286 0.260 0.440 0.273" stroke="hsl(0.0,100%,35%)" stroke-width="0.00100"></path>
<path d="M0.277 0.182 Q0.305 0.505 0.941 0.562" stroke="hsl(0.0,100%,35%)" stroke-width="0.00033"></path>
<path d="M1.313 0.628 Q1.096 0.700 1.187 0.822" stroke="hsl(180.0,100%,35%)" stroke-width="0.00066"></path>
<path d="M1.313 0.628 Q0.979 0.257 0.181 0.338" stroke="hsl(180.0,100%,35%)" stroke-width="0.00133"></path>
<path d="M1.313 0.628 Q0.948 0.670 0.949 0.858" stroke="hsl(180.0,100%,35%)" stroke-width="0.00100"></path>
<path d="M0.198 0.150 Q0.221 0.260 0.440 0.273" stroke="hsl(0.0,100%,35%)" stroke-width="0.00066"></path>
<path d="M0.198 0.150 Q0.374 0.219 0.548 0.149" stroke="hsl(0.0,100%,35%)" stroke-width="0.00033"></path>
<path d="M0.198 0.150 Q0.039 0.241 0.181 0.338" stroke="hsl(0.0,100%,35%)" stroke-width="0.00033"></path>
<path d="M0.198 0.150 Q0.007 0.654 0.949 0.858" stroke="hsl(0.0,100%,35%)" stroke-width="0.00033"></path>
<path d="M0.853 0.063 Q0.297 0.066 0.181 0.338" stroke="hsl(0.0,100%,35%)" stroke-width="0.00066"></path>
<path d="M0.853 0.063 Q0.632 0.045 0.548 0.149" stroke="hsl(0.0,100%,35%)" stroke-width="0.00199"></path>
<path d="M0.853 0.063 Q0.266 0.480 0.949 0.858" stroke="hsl(0.0,100%,35%)" stroke-width="0.00100"></path>
<path d="M0.413 0.579 Q0.490 0.412 0.181 0.338" stroke="hsl(0.0,100%,35%)" stroke-width="0.00332"></path>
<path d="M0.413 0.579 Q0.405 0.469 0.189 0.448" stroke="hsl(0.0,100%,35%)" stroke-width="0.00199"></path>
<path d="M0.413 0.579 Q0.577 0.523 0.504 0.431" stroke="hsl(0.0,100%,35%)" stroke-width="0.00066"></path>
<path d="M0.413 0.579 Q0.825 0.391 0.548 0.149" stroke="hsl(0.0,100%,35%)" stroke-width="0.00033"></path>
<path d="M0.413 0.579 Q0.405 0.636 0.516 0.653" stroke="hsl(0.0,100%,35%)" stroke-width="0.00166"></path>
<path d="M0.413 0.579 Q0.671 0.431 0.440 0.273" stroke="hsl(0.0,100%,35%)" stroke-width="0.00066"></path>
<path d="M0.413 0.579 Q0.620 0.354 0.228 0.204" stroke="hsl(0.0,100%,35%)" stroke-width="0.00066"></path>
<path d="M0.495 0.917 Q0.445 0.803 0.213 0.803" stroke="hsl(180.0,100%,35%)" stroke-width="0.00100"></path>
<path d="M0.495 0.917 Q0.317 0.848 0.142 0.919" stroke="hsl(180.0,100%,35%)" stroke-width="0.00033"></path>
<path d="M0.495 0.917 Q0.888 0.630 0.414 0.375" stroke="hsl(180.0,100%,35%)" stroke-width="0.00033"></path>
</g>
<text x="0.715" y="0.505" font-size="0.042695" fill="hsl(0.0,100%,20%)">abdolrashidi</text>
<text x="0.941" y="0.532" font-size="0.060196" fill="hsl(0.0,100%,20%)">cclao</text>
<text x="0.181" y="0.293" font-size="0.089319" fill="hsl(0.0,100%,20%)">syoussefi</text>
<text x="0.504" y="0.406" font-size="0.048521" fill="hsl(0.0,100%,20%)">yuxinhu</text>
<text x="0.727" y="0.335" font-size="0.042782" fill="hsl(0.0,100%,20%)">romanl</text>
<text x="0.548" y="0.121" font-size="0.054265" fill="hsl(0.0,100%,20%)">cnorthrop</text>
<text x="0.957" y="0.381" font-size="0.003842" fill="hsl(0.0,100%,20%)">ineula</text>
<text x="0.757" y="0.549" font-size="0.003842" fill="hsl(0.0,100%,20%)">kaiyili</text>
<text x="1.178" y="0.468" font-size="0.023838" fill="hsl(0.0,100%,20%)">ianelliott</text>
<text x="0.414" y="0.359" font-size="0.033272" fill="hsl(0.0,100%,20%)">ynovikov</text>
<text x="0.440" y="0.237" font-size="0.070213" fill="hsl(0.0,100%,20%)">jmadill</text>
<text x="0.949" y="0.837" font-size="0.041200" fill="hsl(180.0,100%,20%)">geofflang</text>
<text x="0.670" y="0.590" font-size="0.005433" fill="hsl(0.0,100%,20%)">aeubanks</text>
<text x="0.228" y="0.197" font-size="0.014116" fill="hsl(0.0,100%,20%)">antonio.caggiano</text>
<text x="0.516" y="0.647" font-size="0.010867" fill="hsl(0.0,100%,20%)">j.vigil</text>
<text x="0.616" y="0.641" font-size="0.005433" fill="hsl(0.0,100%,20%)">ayzhao</text>
<text x="0.584" y="0.392" font-size="0.006075" fill="hsl(0.0,100%,20%)">hans</text>
<text x="0.660" y="0.651" font-size="0.003842" fill="hsl(0.0,100%,20%)">thakis</text>
<text x="0.086" y="0.538" font-size="0.010867" fill="hsl(0.0,100%,20%)">b.schade</text>
<text x="0.731" y="0.859" font-size="0.026756" fill="hsl(180.0,100%,20%)">lexa.knyazev</text>
<text x="0.384" y="0.579" font-size="0.007188" fill="hsl(0.0,100%,20%)">vantablack</text>
<text x="0.189" y="0.435" font-size="0.026478" fill="hsl(0.0,100%,20%)">m.maiya</text>
<text x="1.436" y="0.953" font-size="0.005433" fill="hsl(180.0,100%,20%)">boliu</text>
<text x="0.125" y="0.461" font-size="0.017606" fill="hsl(0.0,100%,20%)">lfy</text>
<text x="1.488" y="0.852" font-size="0.004705" fill="hsl(180.0,100%,20%)">vasilyt</text>
<text x="0.636" y="0.265" font-size="0.007684" fill="hsl(180.0,100%,20%)">brianosman</text>
<text x="0.213" y="0.786" font-size="0.033049" fill="hsl(180.0,100%,20%)">kbr</text>
<text x="0.915" y="0.354" font-size="0.010521" fill="hsl(0.0,100%,20%)">bsheedy</text>
<text x="1.297" y="0.360" font-size="0.002717" fill="hsl(0.0,100%,20%)">rogerta</text>
<text x="0.148" y="0.160" font-size="0.010521" fill="hsl(180.0,100%,20%)">capn</text>
<text x="0.645" y="0.459" font-size="0.005433" fill="hsl(180.0,100%,20%)">sugoi</text>
<text x="1.187" y="0.813" font-size="0.017606" fill="hsl(180.0,100%,20%)">jonahr</text>
<text x="0.802" y="0.666" font-size="0.030494" fill="hsl(0.0,100%,20%)">i.nazarov</text>
<text x="1.068" y="0.655" font-size="0.004705" fill="hsl(0.0,100%,20%)">natsu</text>
<text x="0.407" y="0.450" font-size="0.014880" fill="hsl(0.0,100%,20%)">zzyiwei</text>
<text x="0.142" y="0.905" font-size="0.028492" fill="hsl(180.0,100%,20%)">chris</text>
<text x="1.508" y="0.743" font-size="0.006654" fill="hsl(180.0,100%,20%)">rafael.cintron</text>
<text x="0.733" y="0.444" font-size="0.016525" fill="hsl(0.0,100%,20%)">senorblanco</text>
<text x="0.358" y="0.422" font-size="0.013583" fill="hsl(0.0,100%,20%)">steven</text>
<text x="0.705" y="0.789" font-size="0.014629" fill="hsl(180.0,100%,20%)">kpiddington</text>
<text x="0.649" y="0.768" font-size="0.011201" fill="hsl(180.0,100%,20%)">lehoangquyen</text>
<text x="0.305" y="0.680" font-size="0.021218" fill="hsl(180.0,100%,20%)">gman</text>
<text x="0.785" y="0.388" font-size="0.012149" fill="hsl(0.0,100%,20%)">solti</text>
<text x="0.364" y="0.065" font-size="0.024450" fill="hsl(0.0,100%,20%)">gert.wollny</text>
<text x="0.720" y="0.208" font-size="0.020689" fill="hsl(0.0,100%,20%)">lubosz.sarnecki</text>
<text x="0.552" y="0.031" font-size="0.016965" fill="hsl(0.0,100%,20%)">eddiehatfield</text>
<text x="0.383" y="0.374" font-size="0.011201" fill="hsl(0.0,100%,20%)">constantine.shablya</text>
<text x="0.511" y="0.878" font-size="0.010521" fill="hsl(180.0,100%,20%)">djg</text>
<text x="1.218" y="0.944" font-size="0.007188" fill="hsl(180.0,100%,20%)">sunnyps</text>
<text x="0.427" y="0.820" font-size="0.016300" fill="hsl(180.0,100%,20%)">kkinnunen</text>
<text x="0.062" y="0.496" font-size="0.005433" fill="hsl(0.0,100%,20%)">dnfield</text>
<text x="0.649" y="0.974" font-size="0.004705" fill="hsl(180.0,100%,20%)">doremylover123</text>
<text x="0.755" y="0.087" font-size="0.006654" fill="hsl(0.0,100%,20%)">doughorn</text>
<text x="1.129" y="0.962" font-size="0.004705" fill="hsl(180.0,100%,20%)">enga</text>
<text x="1.334" y="0.684" font-size="0.005433" fill="hsl(180.0,100%,20%)">fangzhoug</text>
<text x="1.117" y="0.481" font-size="0.010867" fill="hsl(0.0,100%,20%)">ffz</text>
<text x="0.483" y="0.487" font-size="0.019590" fill="hsl(0.0,100%,20%)">penghuang</text>
<text x="1.263" y="0.764" font-size="0.003842" fill="hsl(180.0,100%,20%)">hob</text>
<text x="0.299" y="0.464" font-size="0.007188" fill="hsl(0.0,100%,20%)">gregschlom</text>
<text x="1.673" y="0.298" font-size="0.004705" fill="hsl(180.0,100%,20%)">grt</text>
<text x="1.460" y="0.177" font-size="0.002717" fill="hsl(180.0,100%,20%)">jpmuraira</text>
<text x="0.599" y="0.387" font-size="0.011201" fill="hsl(0.0,100%,20%)">hailinzhang</text>
<text x="0.649" y="0.487" font-size="0.002717" fill="hsl(0.0,100%,20%)">mprzybyl</text>
<text x="0.177" y="0.574" font-size="0.005433" fill="hsl(0.0,100%,20%)">chrisforbes</text>
<text x="0.103" y="0.175" font-size="0.003842" fill="hsl(0.0,100%,20%)">jie.a.chen</text>
<text x="0.104" y="0.642" font-size="0.004705" fill="hsl(0.0,100%,20%)">jwata</text>
<text x="0.083" y="0.667" font-size="0.002717" fill="hsl(0.0,100%,20%)">tikuta</text>
<text x="0.836" y="0.065" font-size="0.010521" fill="hsl(0.0,100%,20%)">mark</text>
<text x="1.552" y="0.434" font-size="0.004705" fill="hsl(180.0,100%,20%)">mfoltz</text>
<text x="1.793" y="0.497" font-size="0.002717" fill="hsl(180.0,100%,20%)">rwkeane</text>
<text x="0.702" y="0.047" font-size="0.008150" fill="hsl(0.0,100%,20%)">mikes</text>
<text x="1.663" y="0.882" font-size="0.004705" fill="hsl(180.0,100%,20%)">nazabris</text>
<text x="0.371" y="0.557" font-size="0.007684" fill="hsl(0.0,100%,20%)">olv</text>
<text x="0.277" y="0.178" font-size="0.006654" fill="hsl(0.0,100%,20%)">pkasting</text>
<text x="1.313" y="0.624" font-size="0.008150" fill="hsl(180.0,100%,20%)">robert.mader</text>
<text x="0.929" y="0.064" font-size="0.002717" fill="hsl(0.0,100%,20%)">kainino</text>
<text x="0.198" y="0.147" font-size="0.006075" fill="hsl(0.0,100%,20%)">sharma.loic</text>
<text x="0.853" y="0.059" font-size="0.009010" fill="hsl(0.0,100%,20%)">srisser</text>
<text x="0.413" y="0.572" font-size="0.014375" fill="hsl(0.0,100%,20%)">sywow.choi</text>
<text x="0.495" y="0.914" font-size="0.006075" fill="hsl(180.0,100%,20%)">tvignatti</text>
<text x="0.464" y="0.145" font-size="0.002717" fill="hsl(0.0,100%,20%)">cwallez</text>
</svg>
