<svg width="4000" height="2000" viewBox="-0.025 -0.025 2.05 1.05" xmlns="http://www.w3.org/2000/svg">
  <style>
    path {
      fill: none;
      stroke-linecap: round;
      stroke-opacity: 0.4;
    }

    text {
      text-anchor: middle;
      alignment-baseline: hanging;
    }
  </style>
  <g opacity="0.4">
<path d="M1.224 0.312 Q1.171 0.123 0.792 0.108" stroke="hsl(0.0,100%,35%)" stroke-width="0.00203"></path>
<path d="M1.224 0.312 Q1.353 0.160 1.084 0.063" stroke="hsl(0.0,100%,35%)" stroke-width="0.02135"></path>
<path d="M1.224 0.312 Q1.402 0.233 1.287 0.130" stroke="hsl(0.0,100%,35%)" stroke-width="0.00203"></path>
<path d="M1.224 0.312 Q1.384 0.316 1.427 0.238" stroke="hsl(0.0,100%,35%)" stroke-width="0.01729"></path>
<path d="M1.224 0.312 Q0.751 0.316 0.655 0.548" stroke="hsl(0.0,100%,35%)" stroke-width="0.00102"></path>
<path d="M1.224 0.312 Q1.058 0.251 0.903 0.319" stroke="hsl(0.0,100%,35%)" stroke-width="0.00102"></path>
<path d="M1.224 0.312 Q1.258 0.202 1.052 0.162" stroke="hsl(0.0,100%,35%)" stroke-width="0.00102"></path>
<path d="M1.224 0.312 Q1.128 0.173 0.837 0.190" stroke="hsl(0.0,100%,35%)" stroke-width="0.00102"></path>
<path d="M0.792 0.108 Q0.974 0.144 1.084 0.063" stroke="hsl(0.0,100%,35%)" stroke-width="0.05288"></path>
<path d="M0.792 0.108 Q0.845 0.296 1.224 0.312" stroke="hsl(0.0,100%,35%)" stroke-width="0.02847"></path>
<path d="M0.792 0.108 Q0.372 0.300 0.655 0.548" stroke="hsl(0.0,100%,35%)" stroke-width="0.00203"></path>
<path d="M0.792 0.108 Q1.005 0.300 1.427 0.238" stroke="hsl(0.0,100%,35%)" stroke-width="0.00203"></path>
<path d="M0.792 0.108 Q0.749 0.158 0.837 0.190" stroke="hsl(0.0,100%,35%)" stroke-width="0.00203"></path>
<path d="M0.792 0.108 Q1.022 0.218 1.287 0.130" stroke="hsl(0.0,100%,35%)" stroke-width="0.00305"></path>
<path d="M0.792 0.108 Q0.879 0.187 1.052 0.162" stroke="hsl(0.0,100%,35%)" stroke-width="0.00915"></path>
<path d="M1.084 0.063 Q0.955 0.216 1.224 0.312" stroke="hsl(0.0,100%,35%)" stroke-width="0.01322"></path>
<path d="M1.084 0.063 Q0.902 0.027 0.792 0.108" stroke="hsl(0.0,100%,35%)" stroke-width="0.01830"></path>
<path d="M1.084 0.063 Q0.989 0.106 1.052 0.162" stroke="hsl(0.0,100%,35%)" stroke-width="0.02542"></path>
<path d="M1.084 0.063 Q0.859 0.077 0.837 0.190" stroke="hsl(0.0,100%,35%)" stroke-width="0.02034"></path>
<path d="M1.084 0.063 Q0.664 0.022 0.492 0.217" stroke="hsl(0.0,100%,35%)" stroke-width="0.00508"></path>
<path d="M1.084 0.063 Q0.482 0.220 0.655 0.548" stroke="hsl(0.0,100%,35%)" stroke-width="0.00610"></path>
<path d="M1.084 0.063 Q1.133 0.137 1.287 0.130" stroke="hsl(0.0,100%,35%)" stroke-width="0.00915"></path>
<path d="M1.084 0.063 Q1.241 0.180 1.502 0.129" stroke="hsl(0.0,100%,35%)" stroke-width="0.00102"></path>
<path d="M1.084 0.063 Q1.115 0.220 1.427 0.238" stroke="hsl(0.0,100%,35%)" stroke-width="0.00203"></path>
<path d="M1.287 0.130 Q1.239 0.056 1.084 0.063" stroke="hsl(0.0,100%,35%)" stroke-width="0.02237"></path>
<path d="M1.287 0.130 Q0.637 0.212 0.655 0.548" stroke="hsl(0.0,100%,35%)" stroke-width="0.00508"></path>
<path d="M1.287 0.130 Q1.057 0.020 0.792 0.108" stroke="hsl(0.0,100%,35%)" stroke-width="0.00813"></path>
<path d="M1.287 0.130 Q1.144 0.098 1.052 0.162" stroke="hsl(0.0,100%,35%)" stroke-width="0.00102"></path>
<path d="M1.287 0.130 Q1.110 0.208 1.224 0.312" stroke="hsl(0.0,100%,35%)" stroke-width="0.00203"></path>
<path d="M1.287 0.130 Q0.327 0.264 0.378 0.761" stroke="hsl(0.0,100%,35%)" stroke-width="0.00102"></path>
<path d="M1.287 0.130 Q1.270 0.212 1.427 0.238" stroke="hsl(0.0,100%,35%)" stroke-width="0.00305"></path>
<path d="M1.427 0.238 Q1.240 0.415 1.543 0.544" stroke="hsl(0.0,100%,35%)" stroke-width="0.00203"></path>
<path d="M1.427 0.238 Q1.192 0.289 1.238 0.414" stroke="hsl(0.0,100%,35%)" stroke-width="0.00102"></path>
<path d="M1.427 0.238 Q1.214 0.046 0.792 0.108" stroke="hsl(0.0,100%,35%)" stroke-width="0.00203"></path>
<path d="M1.427 0.238 Q0.794 0.239 0.655 0.548" stroke="hsl(0.0,100%,35%)" stroke-width="0.00203"></path>
<path d="M1.427 0.238 Q1.444 0.156 1.287 0.130" stroke="hsl(0.0,100%,35%)" stroke-width="0.00305"></path>
<path d="M1.427 0.238 Q1.396 0.082 1.084 0.063" stroke="hsl(0.0,100%,35%)" stroke-width="0.00102"></path>
<path d="M1.427 0.238 Q1.267 0.235 1.224 0.312" stroke="hsl(0.0,100%,35%)" stroke-width="0.00102"></path>
<path d="M0.655 0.548 Q1.257 0.391 1.084 0.063" stroke="hsl(0.0,100%,35%)" stroke-width="0.00508"></path>
<path d="M0.655 0.548 Q1.032 0.405 0.837 0.190" stroke="hsl(0.0,100%,35%)" stroke-width="0.00407"></path>
<path d="M0.655 0.548 Q0.764 0.600 0.890 0.559" stroke="hsl(0.0,100%,35%)" stroke-width="0.00610"></path>
<path d="M0.655 0.548 Q0.984 0.655 1.266 0.518" stroke="hsl(0.0,100%,35%)" stroke-width="0.00203"></path>
<path d="M0.655 0.548 Q1.076 0.355 0.792 0.108" stroke="hsl(0.0,100%,35%)" stroke-width="0.00102"></path>
<path d="M0.655 0.548 Q1.288 0.547 1.427 0.238" stroke="hsl(0.0,100%,35%)" stroke-width="0.00102"></path>
<path d="M0.655 0.548 Q1.306 0.465 1.287 0.130" stroke="hsl(0.0,100%,35%)" stroke-width="0.00407"></path>
<path d="M0.655 0.548 Q1.162 0.434 1.052 0.162" stroke="hsl(0.0,100%,35%)" stroke-width="0.00102"></path>
<path d="M0.903 0.319 Q1.246 0.301 1.287 0.130" stroke="hsl(0.0,100%,35%)" stroke-width="0.00203"></path>
<path d="M0.903 0.319 Q1.198 0.227 1.084 0.063" stroke="hsl(0.0,100%,35%)" stroke-width="0.00407"></path>
<path d="M0.903 0.319 Q1.229 0.384 1.427 0.238" stroke="hsl(0.0,100%,35%)" stroke-width="0.00102"></path>
<path d="M0.903 0.319 Q0.752 0.331 0.742 0.407" stroke="hsl(0.0,100%,35%)" stroke-width="0.00102"></path>
<path d="M1.052 0.162 Q1.018 0.271 1.224 0.312" stroke="hsl(0.0,100%,35%)" stroke-width="0.00407"></path>
<path d="M1.052 0.162 Q0.965 0.083 0.792 0.108" stroke="hsl(0.0,100%,35%)" stroke-width="0.00203"></path>
<path d="M1.052 0.162 Q0.545 0.275 0.655 0.548" stroke="hsl(0.0,100%,35%)" stroke-width="0.00102"></path>
<path d="M1.052 0.162 Q1.146 0.119 1.084 0.063" stroke="hsl(0.0,100%,35%)" stroke-width="0.00203"></path>
<path d="M0.837 0.190 Q1.061 0.176 1.084 0.063" stroke="hsl(0.0,100%,35%)" stroke-width="0.02440"></path>
<path d="M0.837 0.190 Q0.103 0.554 0.652 0.992" stroke="hsl(0.0,100%,35%)" stroke-width="0.00203"></path>
<path d="M0.837 0.190 Q0.501 0.052 0.158 0.185" stroke="hsl(0.0,100%,35%)" stroke-width="0.00203"></path>
<path d="M0.837 0.190 Q0.598 0.036 0.246 0.118" stroke="hsl(0.0,100%,35%)" stroke-width="0.00203"></path>
<path d="M0.837 0.190 Q1.093 0.332 1.427 0.238" stroke="hsl(0.0,100%,35%)" stroke-width="0.00407"></path>
<path d="M0.837 0.190 Q0.460 0.332 0.655 0.548" stroke="hsl(0.0,100%,35%)" stroke-width="0.00102"></path>
<path d="M0.837 0.190 Q0.933 0.328 1.224 0.312" stroke="hsl(0.0,100%,35%)" stroke-width="0.00102"></path>
<path d="M0.837 0.190 Q0.967 0.219 1.052 0.162" stroke="hsl(0.0,100%,35%)" stroke-width="0.00102"></path>
<path d="M0.652 0.992 Q0.699 0.822 0.378 0.761" stroke="hsl(0.0,100%,35%)" stroke-width="0.00813"></path>
<path d="M0.652 0.992 Q1.611 0.614 1.084 0.063" stroke="hsl(0.0,100%,35%)" stroke-width="0.01830"></path>
<path d="M0.652 0.992 Q0.539 0.790 0.120 0.801" stroke="hsl(0.0,100%,35%)" stroke-width="0.00508"></path>
<path d="M0.652 0.992 Q1.386 0.628 0.837 0.190" stroke="hsl(0.0,100%,35%)" stroke-width="0.00407"></path>
<path d="M0.652 0.992 Q0.963 0.665 0.395 0.442" stroke="hsl(0.0,100%,35%)" stroke-width="0.00102"></path>
<path d="M0.652 0.992 Q1.429 0.578 0.792 0.108" stroke="hsl(0.0,100%,35%)" stroke-width="0.00102"></path>
<path d="M0.158 0.185 Q0.255 0.169 0.246 0.118" stroke="hsl(0.0,100%,35%)" stroke-width="0.00508"></path>
<path d="M0.158 0.185 Q0.718 0.309 1.084 0.063" stroke="hsl(0.0,100%,35%)" stroke-width="0.00712"></path>
<path d="M0.158 0.185 Q0.493 0.323 0.837 0.190" stroke="hsl(0.0,100%,35%)" stroke-width="0.00102"></path>
<path d="M0.246 0.118 Q0.484 0.272 0.837 0.190" stroke="hsl(0.0,100%,35%)" stroke-width="0.00305"></path>
<path d="M0.246 0.118 Q0.148 0.134 0.158 0.185" stroke="hsl(0.0,100%,35%)" stroke-width="0.00508"></path>
<path d="M0.246 0.118 Q0.709 0.258 1.084 0.063" stroke="hsl(0.0,100%,35%)" stroke-width="0.00407"></path>
<path d="M0.423 0.235 Q0.666 0.295 0.837 0.190" stroke="hsl(0.0,100%,35%)" stroke-width="0.00102"></path>
<path d="M0.423 0.235 Q0.891 0.281 1.084 0.063" stroke="hsl(0.0,100%,35%)" stroke-width="0.00813"></path>
<path d="M0.423 0.235 Q0.709 0.245 0.792 0.108" stroke="hsl(0.0,100%,35%)" stroke-width="0.00407"></path>
<path d="M0.423 0.235 Q0.471 0.240 0.492 0.217" stroke="hsl(0.0,100%,35%)" stroke-width="0.00203"></path>
<path d="M0.492 0.217 Q0.911 0.259 1.084 0.063" stroke="hsl(0.0,100%,35%)" stroke-width="0.02949"></path>
<path d="M0.492 0.217 Q0.729 0.223 0.792 0.108" stroke="hsl(0.0,100%,35%)" stroke-width="0.01322"></path>
<path d="M0.492 0.217 Q0.942 0.415 1.427 0.238" stroke="hsl(0.0,100%,35%)" stroke-width="0.00102"></path>
<path d="M0.356 0.955 Q0.522 0.862 0.378 0.761" stroke="hsl(0.0,100%,35%)" stroke-width="0.00203"></path>
<path d="M0.356 0.955 Q0.475 1.032 0.652 0.992" stroke="hsl(0.0,100%,35%)" stroke-width="0.00102"></path>
<path d="M0.356 0.955 Q0.786 0.706 0.395 0.442" stroke="hsl(0.0,100%,35%)" stroke-width="0.00102"></path>
<path d="M0.356 0.955 Q1.433 0.654 1.084 0.063" stroke="hsl(0.0,100%,35%)" stroke-width="0.00102"></path>
<path d="M0.364 0.552 Q1.115 0.452 1.084 0.063" stroke="hsl(0.0,100%,35%)" stroke-width="0.00203"></path>
<path d="M0.364 0.552 Q0.468 0.503 0.395 0.442" stroke="hsl(0.0,100%,35%)" stroke-width="0.00407"></path>
<path d="M0.364 0.552 Q0.891 0.465 0.837 0.190" stroke="hsl(0.0,100%,35%)" stroke-width="0.00203"></path>
<path d="M0.816 0.829 Q1.563 0.500 1.084 0.063" stroke="hsl(0.0,100%,35%)" stroke-width="0.00102"></path>
<path d="M0.816 0.829 Q0.808 0.881 0.907 0.896" stroke="hsl(0.0,100%,35%)" stroke-width="0.00102"></path>
<path d="M0.816 0.829 Q0.961 0.656 0.655 0.548" stroke="hsl(0.0,100%,35%)" stroke-width="0.00102"></path>
</g>
<text x="1.224" y="0.281" font-size="0.060977" fill="hsl(0.0,100%,20%)">abdolrashidi</text>
<text x="0.792" y="0.070" font-size="0.076366" fill="hsl(0.0,100%,20%)">cclao</text>
<text x="1.084" y="0.009" font-size="0.108359" fill="hsl(0.0,100%,20%)">syoussefi</text>
<text x="1.287" y="0.104" font-size="0.050438" fill="hsl(0.0,100%,20%)">romanl</text>
<text x="1.427" y="0.218" font-size="0.041024" fill="hsl(0.0,100%,20%)">cnorthrop</text>
<text x="0.655" y="0.527" font-size="0.041024" fill="hsl(0.0,100%,20%)">ynovikov</text>
<text x="0.903" y="0.309" font-size="0.018768" fill="hsl(0.0,100%,20%)">zzyiwei</text>
<text x="1.052" y="0.140" font-size="0.042890" fill="hsl(0.0,100%,20%)">yuxinhu</text>
<text x="0.837" y="0.163" font-size="0.054180" fill="hsl(0.0,100%,20%)">geofflang</text>
<text x="1.543" y="0.540" font-size="0.008847" fill="hsl(0.0,100%,20%)">mark</text>
<text x="1.238" y="0.411" font-size="0.006256" fill="hsl(0.0,100%,20%)">mikes</text>
<text x="0.652" y="0.972" font-size="0.039567" fill="hsl(0.0,100%,20%)">lexa.knyazev</text>
<text x="0.158" y="0.171" font-size="0.027978" fill="hsl(0.0,100%,20%)">mpdenton</text>
<text x="0.246" y="0.105" font-size="0.027270" fill="hsl(0.0,100%,20%)">liza</text>
<text x="0.423" y="0.223" font-size="0.024230" fill="hsl(0.0,100%,20%)">i.nazarov</text>
<text x="0.492" y="0.195" font-size="0.044237" fill="hsl(0.0,100%,20%)">m.maiya</text>
<text x="0.356" y="0.948" font-size="0.013989" fill="hsl(0.0,100%,20%)">lerica</text>
<text x="0.378" y="0.751" font-size="0.020749" fill="hsl(0.0,100%,20%)">kbr</text>
<text x="0.395" y="0.434" font-size="0.015324" fill="hsl(0.0,100%,20%)">kkinnunen</text>
<text x="0.120" y="0.794" font-size="0.013989" fill="hsl(0.0,100%,20%)">lehoangquyen</text>
<text x="0.364" y="0.543" font-size="0.017695" fill="hsl(0.0,100%,20%)">mscott</text>
<text x="0.816" y="0.824" font-size="0.010836" fill="hsl(0.0,100%,20%)">sokcevic</text>
<text x="0.907" y="0.893" font-size="0.006256" fill="hsl(0.0,100%,20%)">jwata</text>
<text x="1.502" y="0.126" font-size="0.006256" fill="hsl(0.0,100%,20%)">a.annestrand</text>
<text x="0.890" y="0.551" font-size="0.015324" fill="hsl(0.0,100%,20%)">bsheedy</text>
<text x="1.266" y="0.514" font-size="0.008847" fill="hsl(0.0,100%,20%)">solti</text>
<text x="0.742" y="0.404" font-size="0.006256" fill="hsl(0.0,100%,20%)">lepton</text>
</svg>
