<svg width="4000" height="2000" viewBox="-0.025 -0.025 2.05 1.05" xmlns="http://www.w3.org/2000/svg">
  <style>
    path {
      fill: none;
      stroke-linecap: round;
      stroke-opacity: 0.4;
    }

    text {
      text-anchor: middle;
      alignment-baseline: hanging;
    }
  </style>
  <g opacity="0.4">
<path d="M0.312 0.210 Q0.569 0.865 1.903 0.883" stroke="hsl(0.0,100%,35%)" stroke-width="0.00778"></path>
<path d="M0.312 0.210 Q0.089 0.313 0.239 0.444" stroke="hsl(0.0,100%,35%)" stroke-width="0.00778"></path>
<path d="M0.312 0.210 Q0.115 0.644 0.918 0.835" stroke="hsl(0.0,100%,35%)" stroke-width="0.00778"></path>
<path d="M1.903 0.883 Q1.623 0.841 1.481 0.969" stroke="hsl(0.0,100%,35%)" stroke-width="0.01168"></path>
<path d="M1.903 0.883 Q1.448 0.662 0.918 0.835" stroke="hsl(0.0,100%,35%)" stroke-width="0.00389"></path>
<path d="M1.903 0.883 Q1.422 0.331 0.239 0.444" stroke="hsl(0.0,100%,35%)" stroke-width="0.00389"></path>
<path d="M0.239 0.444 Q-0.008 0.773 0.578 0.966" stroke="hsl(0.0,100%,35%)" stroke-width="0.00389"></path>
<path d="M0.239 0.444 Q0.463 0.342 0.312 0.210" stroke="hsl(0.0,100%,35%)" stroke-width="0.00778"></path>
<path d="M0.239 0.444 Q0.266 0.775 0.918 0.835" stroke="hsl(0.0,100%,35%)" stroke-width="0.01946"></path>
<path d="M0.239 0.444 Q0.227 0.536 0.403 0.562" stroke="hsl(0.0,100%,35%)" stroke-width="0.00778"></path>
<path d="M0.918 0.835 Q0.644 0.832 0.578 0.966" stroke="hsl(180.0,100%,35%)" stroke-width="0.01557"></path>
<path d="M0.918 0.835 Q1.087 0.672 0.805 0.553" stroke="hsl(180.0,100%,35%)" stroke-width="0.00389"></path>
<path d="M0.918 0.835 Q1.115 0.402 0.312 0.210" stroke="hsl(180.0,100%,35%)" stroke-width="0.00389"></path>
<path d="M0.918 0.835 Q1.327 0.436 0.637 0.149" stroke="hsl(180.0,100%,35%)" stroke-width="0.01946"></path>
<path d="M0.918 0.835 Q0.879 0.596 0.403 0.562" stroke="hsl(180.0,100%,35%)" stroke-width="0.01557"></path>
<path d="M0.918 0.835 Q1.110 0.841 1.164 0.749" stroke="hsl(180.0,100%,35%)" stroke-width="0.00389"></path>
<path d="M0.918 0.835 Q1.240 0.634 0.918 0.433" stroke="hsl(180.0,100%,35%)" stroke-width="0.00389"></path>
<path d="M0.918 0.835 Q1.803 0.757 1.844 0.307" stroke="hsl(180.0,100%,35%)" stroke-width="0.00389"></path>
<path d="M0.637 0.149 Q0.228 0.548 0.918 0.835" stroke="hsl(180.0,100%,35%)" stroke-width="0.01557"></path>
<path d="M0.637 0.149 Q0.551 0.212 0.654 0.267" stroke="hsl(180.0,100%,35%)" stroke-width="0.00778"></path>
<path d="M0.637 0.149 Q0.871 0.245 1.111 0.152" stroke="hsl(180.0,100%,35%)" stroke-width="0.01168"></path>
<path d="M0.637 0.149 Q0.202 0.217 0.239 0.444" stroke="hsl(180.0,100%,35%)" stroke-width="0.00389"></path>
<path d="M1.111 0.152 Q0.877 0.056 0.637 0.149" stroke="hsl(180.0,100%,35%)" stroke-width="0.00389"></path>
<path d="M1.111 0.152 Q0.468 0.455 0.918 0.835" stroke="hsl(180.0,100%,35%)" stroke-width="0.01168"></path>
<path d="M1.111 0.152 Q0.791 0.118 0.654 0.267" stroke="hsl(180.0,100%,35%)" stroke-width="0.00778"></path>
<path d="M1.840 0.531 Q1.135 0.499 0.918 0.835" stroke="hsl(180.0,100%,35%)" stroke-width="0.04281"></path>
<path d="M1.840 0.531 Q2.021 0.420 1.844 0.307" stroke="hsl(180.0,100%,35%)" stroke-width="0.03892"></path>
<path d="M1.840 0.531 Q1.544 0.099 0.637 0.149" stroke="hsl(180.0,100%,35%)" stroke-width="0.01168"></path>
<path d="M1.840 0.531 Q1.834 0.292 1.367 0.242" stroke="hsl(180.0,100%,35%)" stroke-width="0.00389"></path>
<path d="M1.840 0.531 Q1.774 0.452 1.606 0.466" stroke="hsl(180.0,100%,35%)" stroke-width="0.00389"></path>
<path d="M1.840 0.531 Q1.518 0.532 1.451 0.690" stroke="hsl(180.0,100%,35%)" stroke-width="0.00389"></path>
<path d="M1.606 0.466 Q1.852 0.435 1.844 0.307" stroke="hsl(180.0,100%,35%)" stroke-width="0.00389"></path>
<path d="M1.606 0.466 Q1.376 0.114 0.637 0.149" stroke="hsl(180.0,100%,35%)" stroke-width="0.00389"></path>
<path d="M1.606 0.466 Q1.671 0.545 1.840 0.531" stroke="hsl(180.0,100%,35%)" stroke-width="0.00389"></path>
<path d="M1.606 0.466 Q0.967 0.513 0.918 0.835" stroke="hsl(180.0,100%,35%)" stroke-width="0.00389"></path>
<path d="M1.122 0.626 Q0.853 0.690 0.918 0.835" stroke="hsl(180.0,100%,35%)" stroke-width="0.07005"></path>
<path d="M1.122 0.626 Q1.045 0.696 1.164 0.749" stroke="hsl(180.0,100%,35%)" stroke-width="0.01946"></path>
<path d="M1.122 0.626 Q0.579 0.687 0.578 0.966" stroke="hsl(180.0,100%,35%)" stroke-width="0.00389"></path>
<path d="M1.122 0.626 Q1.262 0.290 0.637 0.149" stroke="hsl(180.0,100%,35%)" stroke-width="0.00778"></path>
</g>
<text x="0.312" y="0.190" font-size="0.040089" fill="hsl(0.0,100%,20%)">cnorthrop</text>
<text x="1.903" y="0.865" font-size="0.035355" fill="hsl(0.0,100%,20%)">ynovikov</text>
<text x="0.239" y="0.419" font-size="0.050000" fill="hsl(0.0,100%,20%)">romanl</text>
<text x="0.918" y="0.782" font-size="0.106066" fill="hsl(180.0,100%,20%)">syoussefi</text>
<text x="0.637" y="0.117" font-size="0.062678" fill="hsl(180.0,100%,20%)">geofflang</text>
<text x="0.654" y="0.254" font-size="0.026726" fill="hsl(180.0,100%,20%)">mpdenton</text>
<text x="1.111" y="0.132" font-size="0.040089" fill="hsl(180.0,100%,20%)">liza</text>
<text x="1.840" y="0.495" font-size="0.070711" fill="hsl(180.0,100%,20%)">kkinnunen</text>
<text x="1.844" y="0.284" font-size="0.046291" fill="hsl(180.0,100%,20%)">kbr</text>
<text x="1.367" y="0.235" font-size="0.013363" fill="hsl(180.0,100%,20%)">kpiddington</text>
<text x="1.606" y="0.451" font-size="0.029881" fill="hsl(180.0,100%,20%)">lexa.knyazev</text>
<text x="1.451" y="0.683" font-size="0.013363" fill="hsl(180.0,100%,20%)">lehoangquyen</text>
<text x="1.122" y="0.592" font-size="0.068139" fill="hsl(180.0,100%,20%)">m.maiya</text>
<text x="1.164" y="0.732" font-size="0.032733" fill="hsl(180.0,100%,20%)">cclao</text>
<text x="0.578" y="0.949" font-size="0.032733" fill="hsl(180.0,100%,20%)">yuxinhu</text>
<text x="0.403" y="0.546" font-size="0.032733" fill="hsl(0.0,100%,20%)">abdolrashidi</text>
<text x="0.805" y="0.547" font-size="0.013363" fill="hsl(180.0,100%,20%)">zzyiwei</text>
<text x="0.918" y="0.426" font-size="0.013363" fill="hsl(180.0,100%,20%)">a.annestrand</text>
<text x="1.481" y="0.957" font-size="0.023146" fill="hsl(0.0,100%,20%)">bsheedy</text>
</svg>
