<svg width="4000" height="2000" viewBox="-0.025 -0.025 2.05 1.05" xmlns="http://www.w3.org/2000/svg">
  <style>
    path {
      fill: none;
      stroke-linecap: round;
      stroke-opacity: 0.4;
    }

    text {
      text-anchor: middle;
      alignment-baseline: hanging;
    }
  </style>
  <g opacity="0.4">
<path d="M0.810 0.880 Q1.238 0.673 0.927 0.419" stroke="hsl(0.0,100%,35%)" stroke-width="0.00393"></path>
<path d="M0.810 0.880 Q1.617 0.947 1.923 0.568" stroke="hsl(0.0,100%,35%)" stroke-width="0.00039"></path>
<path d="M0.810 0.880 Q0.958 0.912 1.052 0.846" stroke="hsl(0.0,100%,35%)" stroke-width="0.00157"></path>
<path d="M0.927 0.419 Q1.110 0.518 1.344 0.451" stroke="hsl(0.0,100%,35%)" stroke-width="0.01259"></path>
<path d="M0.927 0.419 Q1.337 0.376 1.345 0.167" stroke="hsl(0.0,100%,35%)" stroke-width="0.01692"></path>
<path d="M0.927 0.419 Q1.076 0.783 1.820 0.790" stroke="hsl(0.0,100%,35%)" stroke-width="0.02007"></path>
<path d="M0.927 0.419 Q0.736 0.504 0.861 0.616" stroke="hsl(0.0,100%,35%)" stroke-width="0.00944"></path>
<path d="M0.927 0.419 Q0.657 0.427 0.613 0.560" stroke="hsl(0.0,100%,35%)" stroke-width="0.00748"></path>
<path d="M0.927 0.419 Q0.998 0.338 0.855 0.285" stroke="hsl(0.0,100%,35%)" stroke-width="0.01967"></path>
<path d="M0.927 0.419 Q1.212 0.439 1.314 0.304" stroke="hsl(0.0,100%,35%)" stroke-width="0.00039"></path>
<path d="M0.927 0.419 Q0.979 0.490 1.129 0.480" stroke="hsl(0.0,100%,35%)" stroke-width="0.02085"></path>
<path d="M0.927 0.419 Q1.306 0.693 1.923 0.568" stroke="hsl(0.0,100%,35%)" stroke-width="0.02046"></path>
<path d="M0.927 0.419 Q1.144 0.403 1.161 0.294" stroke="hsl(0.0,100%,35%)" stroke-width="0.00039"></path>
<path d="M0.927 0.419 Q0.906 0.745 1.536 0.826" stroke="hsl(0.0,100%,35%)" stroke-width="0.00079"></path>
<path d="M0.927 0.419 Q0.873 0.465 0.950 0.501" stroke="hsl(0.0,100%,35%)" stroke-width="0.00039"></path>
<path d="M0.927 0.419 Q0.592 0.324 0.333 0.466" stroke="hsl(0.0,100%,35%)" stroke-width="0.00157"></path>
<path d="M0.927 0.419 Q0.854 0.299 0.603 0.308" stroke="hsl(0.0,100%,35%)" stroke-width="0.00236"></path>
<path d="M0.927 0.419 Q0.772 0.361 0.624 0.424" stroke="hsl(0.0,100%,35%)" stroke-width="0.00039"></path>
<path d="M0.927 0.419 Q1.210 0.416 1.267 0.277" stroke="hsl(0.0,100%,35%)" stroke-width="0.00039"></path>
<path d="M0.927 0.419 Q0.858 0.525 1.051 0.582" stroke="hsl(0.0,100%,35%)" stroke-width="0.00079"></path>
<path d="M0.927 0.419 Q1.148 0.418 1.195 0.310" stroke="hsl(0.0,100%,35%)" stroke-width="0.00039"></path>
<path d="M0.927 0.419 Q0.812 0.389 0.729 0.438" stroke="hsl(0.0,100%,35%)" stroke-width="0.00039"></path>
<path d="M1.923 0.568 Q1.694 0.658 1.820 0.790" stroke="hsl(0.0,100%,35%)" stroke-width="0.01259"></path>
<path d="M1.923 0.568 Q1.544 0.294 0.927 0.419" stroke="hsl(0.0,100%,35%)" stroke-width="0.01456"></path>
<path d="M1.923 0.568 Q1.616 0.424 1.268 0.543" stroke="hsl(0.0,100%,35%)" stroke-width="0.00039"></path>
<path d="M1.923 0.568 Q1.026 0.294 0.294 0.671" stroke="hsl(0.0,100%,35%)" stroke-width="0.00039"></path>
<path d="M1.923 0.568 Q1.086 0.245 0.272 0.583" stroke="hsl(0.0,100%,35%)" stroke-width="0.00079"></path>
<path d="M1.923 0.568 Q1.275 0.302 0.613 0.560" stroke="hsl(0.0,100%,35%)" stroke-width="0.00118"></path>
<path d="M1.923 0.568 Q1.596 0.365 1.129 0.480" stroke="hsl(0.0,100%,35%)" stroke-width="0.00118"></path>
<path d="M1.923 0.568 Q1.523 0.620 1.536 0.826" stroke="hsl(0.0,100%,35%)" stroke-width="0.00157"></path>
<path d="M1.923 0.568 Q1.955 0.252 1.345 0.167" stroke="hsl(0.0,100%,35%)" stroke-width="0.00197"></path>
<path d="M1.923 0.568 Q1.475 0.401 1.051 0.582" stroke="hsl(0.0,100%,35%)" stroke-width="0.00039"></path>
<path d="M1.923 0.568 Q1.471 0.174 0.603 0.308" stroke="hsl(0.0,100%,35%)" stroke-width="0.00079"></path>
<path d="M1.923 0.568 Q1.615 0.213 0.855 0.285" stroke="hsl(0.0,100%,35%)" stroke-width="0.00905"></path>
<path d="M1.923 0.568 Q1.209 0.199 0.333 0.466" stroke="hsl(0.0,100%,35%)" stroke-width="0.00079"></path>
<path d="M1.923 0.568 Q1.765 0.504 1.607 0.568" stroke="hsl(0.0,100%,35%)" stroke-width="0.00118"></path>
<path d="M1.923 0.568 Q1.830 0.314 1.314 0.304" stroke="hsl(0.0,100%,35%)" stroke-width="0.00039"></path>
<path d="M1.923 0.568 Q1.353 0.379 0.861 0.616" stroke="hsl(0.0,100%,35%)" stroke-width="0.00039"></path>
<path d="M1.923 0.568 Q1.505 0.539 1.357 0.737" stroke="hsl(0.0,100%,35%)" stroke-width="0.00039"></path>
<path d="M1.923 0.568 Q1.802 0.538 1.717 0.591" stroke="hsl(0.0,100%,35%)" stroke-width="0.00039"></path>
<path d="M0.338 0.762 Q0.978 0.627 0.855 0.285" stroke="hsl(0.0,100%,35%)" stroke-width="0.00079"></path>
<path d="M0.338 0.762 Q0.389 0.708 0.294 0.671" stroke="hsl(0.0,100%,35%)" stroke-width="0.00079"></path>
<path d="M0.338 0.762 Q1.287 0.982 1.923 0.568" stroke="hsl(0.0,100%,35%)" stroke-width="0.00039"></path>
<path d="M0.855 0.285 Q0.784 0.366 0.927 0.419" stroke="hsl(0.0,100%,35%)" stroke-width="0.05115"></path>
<path d="M0.855 0.285 Q1.164 0.640 1.923 0.568" stroke="hsl(0.0,100%,35%)" stroke-width="0.01062"></path>
<path d="M0.855 0.285 Q1.195 0.324 1.345 0.167" stroke="hsl(0.0,100%,35%)" stroke-width="0.01416"></path>
<path d="M0.855 0.285 Q0.594 0.452 0.861 0.616" stroke="hsl(0.0,100%,35%)" stroke-width="0.00748"></path>
<path d="M0.855 0.285 Q0.515 0.374 0.613 0.560" stroke="hsl(0.0,100%,35%)" stroke-width="0.00315"></path>
<path d="M0.855 0.285 Q0.711 0.246 0.603 0.308" stroke="hsl(0.0,100%,35%)" stroke-width="0.00433"></path>
<path d="M0.855 0.285 Q0.968 0.466 1.344 0.451" stroke="hsl(0.0,100%,35%)" stroke-width="0.00708"></path>
<path d="M0.855 0.285 Q0.934 0.731 1.820 0.790" stroke="hsl(0.0,100%,35%)" stroke-width="0.00905"></path>
<path d="M0.855 0.285 Q1.035 0.395 1.287 0.331" stroke="hsl(0.0,100%,35%)" stroke-width="0.00157"></path>
<path d="M0.855 0.285 Q0.837 0.437 1.129 0.480" stroke="hsl(0.0,100%,35%)" stroke-width="0.01180"></path>
<path d="M0.855 0.285 Q0.745 0.612 1.357 0.737" stroke="hsl(0.0,100%,35%)" stroke-width="0.00197"></path>
<path d="M0.855 0.285 Q0.927 0.426 1.216 0.421" stroke="hsl(0.0,100%,35%)" stroke-width="0.00039"></path>
<path d="M0.855 0.285 Q1.070 0.386 1.314 0.304" stroke="hsl(0.0,100%,35%)" stroke-width="0.00079"></path>
<path d="M0.855 0.285 Q0.715 0.473 1.051 0.582" stroke="hsl(0.0,100%,35%)" stroke-width="0.00039"></path>
<path d="M0.855 0.285 Q0.590 0.291 0.542 0.421" stroke="hsl(0.0,100%,35%)" stroke-width="0.00039"></path>
<path d="M0.855 0.285 Q0.716 0.131 0.383 0.165" stroke="hsl(0.0,100%,35%)" stroke-width="0.00039"></path>
<path d="M0.855 0.285 Q0.783 0.284 0.763 0.318" stroke="hsl(0.0,100%,35%)" stroke-width="0.00079"></path>
<path d="M0.855 0.285 Q0.678 0.397 0.858 0.508" stroke="hsl(0.0,100%,35%)" stroke-width="0.00039"></path>
<path d="M0.855 0.285 Q0.642 0.214 0.455 0.302" stroke="hsl(0.0,100%,35%)" stroke-width="0.00039"></path>
<path d="M1.216 0.421 Q1.073 0.362 0.927 0.419" stroke="hsl(0.0,100%,35%)" stroke-width="0.00393"></path>
<path d="M1.216 0.421 Q0.616 0.433 0.507 0.729" stroke="hsl(0.0,100%,35%)" stroke-width="0.00039"></path>
<path d="M1.216 0.421 Q0.883 0.448 0.861 0.616" stroke="hsl(0.0,100%,35%)" stroke-width="0.00039"></path>
<path d="M1.216 0.421 Q1.257 0.462 1.344 0.451" stroke="hsl(0.0,100%,35%)" stroke-width="0.00079"></path>
<path d="M1.216 0.421 Q1.144 0.281 0.855 0.285" stroke="hsl(0.0,100%,35%)" stroke-width="0.00197"></path>
<path d="M1.216 0.421 Q1.324 0.390 1.287 0.331" stroke="hsl(0.0,100%,35%)" stroke-width="0.00039"></path>
<path d="M0.507 0.729 Q0.965 0.658 0.927 0.419" stroke="hsl(0.0,100%,35%)" stroke-width="0.00039"></path>
<path d="M0.507 0.729 Q1.376 0.615 1.345 0.167" stroke="hsl(0.0,100%,35%)" stroke-width="0.00039"></path>
<path d="M0.507 0.729 Q0.774 0.743 0.861 0.616" stroke="hsl(0.0,100%,35%)" stroke-width="0.00039"></path>
<path d="M0.861 0.616 Q0.594 0.602 0.507 0.729" stroke="hsl(0.0,100%,35%)" stroke-width="0.00039"></path>
<path d="M0.861 0.616 Q1.052 0.531 0.927 0.419" stroke="hsl(0.0,100%,35%)" stroke-width="0.01613"></path>
<path d="M0.861 0.616 Q0.782 0.539 0.613 0.560" stroke="hsl(0.0,100%,35%)" stroke-width="0.00551"></path>
<path d="M0.861 0.616 Q1.462 0.488 1.345 0.167" stroke="hsl(0.0,100%,35%)" stroke-width="0.00197"></path>
<path d="M0.861 0.616 Q1.123 0.450 0.855 0.285" stroke="hsl(0.0,100%,35%)" stroke-width="0.00551"></path>
<path d="M0.861 0.616 Q1.201 0.895 1.820 0.790" stroke="hsl(0.0,100%,35%)" stroke-width="0.00079"></path>
<path d="M0.861 0.616 Q1.235 0.630 1.344 0.451" stroke="hsl(0.0,100%,35%)" stroke-width="0.00039"></path>
<path d="M0.861 0.616 Q1.431 0.804 1.923 0.568" stroke="hsl(0.0,100%,35%)" stroke-width="0.00079"></path>
<path d="M0.861 0.616 Q0.983 0.637 1.051 0.582" stroke="hsl(0.0,100%,35%)" stroke-width="0.00039"></path>
<path d="M0.861 0.616 Q0.717 0.436 0.333 0.466" stroke="hsl(0.0,100%,35%)" stroke-width="0.00039"></path>
<path d="M0.861 0.616 Q1.104 0.601 1.129 0.480" stroke="hsl(0.0,100%,35%)" stroke-width="0.00118"></path>
<path d="M0.861 0.616 Q0.776 0.671 0.864 0.724" stroke="hsl(0.0,100%,35%)" stroke-width="0.00039"></path>
<path d="M1.344 0.451 Q0.891 0.359 0.613 0.560" stroke="hsl(0.0,100%,35%)" stroke-width="0.00275"></path>
<path d="M1.344 0.451 Q1.161 0.351 0.927 0.419" stroke="hsl(0.0,100%,35%)" stroke-width="0.01062"></path>
<path d="M1.344 0.451 Q1.213 0.422 1.129 0.480" stroke="hsl(0.0,100%,35%)" stroke-width="0.00118"></path>
<path d="M1.344 0.451 Q1.232 0.270 0.855 0.285" stroke="hsl(0.0,100%,35%)" stroke-width="0.00157"></path>
<path d="M1.344 0.451 Q1.088 0.231 0.603 0.308" stroke="hsl(0.0,100%,35%)" stroke-width="0.00079"></path>
<path d="M1.344 0.451 Q0.970 0.437 0.861 0.616" stroke="hsl(0.0,100%,35%)" stroke-width="0.00039"></path>
<path d="M1.344 0.451 Q1.571 0.309 1.345 0.167" stroke="hsl(0.0,100%,35%)" stroke-width="0.00197"></path>
<path d="M1.344 0.451 Q1.310 0.715 1.820 0.790" stroke="hsl(0.0,100%,35%)" stroke-width="0.00039"></path>
<path d="M1.344 0.451 Q1.444 0.348 1.267 0.277" stroke="hsl(0.0,100%,35%)" stroke-width="0.00079"></path>
<path d="M1.344 0.451 Q1.540 0.625 1.923 0.568" stroke="hsl(0.0,100%,35%)" stroke-width="0.00079"></path>
<path d="M1.287 0.331 Q1.037 0.303 0.927 0.419" stroke="hsl(0.0,100%,35%)" stroke-width="0.00708"></path>
<path d="M1.287 0.331 Q1.108 0.222 0.855 0.285" stroke="hsl(0.0,100%,35%)" stroke-width="0.00354"></path>
<path d="M1.287 0.331 Q0.767 0.311 0.613 0.560" stroke="hsl(0.0,100%,35%)" stroke-width="0.00039"></path>
<path d="M1.287 0.331 Q1.220 0.402 1.344 0.451" stroke="hsl(0.0,100%,35%)" stroke-width="0.00039"></path>
<path d="M1.287 0.331 Q0.846 0.388 0.861 0.616" stroke="hsl(0.0,100%,35%)" stroke-width="0.00039"></path>
<path d="M1.287 0.331 Q1.416 0.577 1.923 0.568" stroke="hsl(0.0,100%,35%)" stroke-width="0.00236"></path>
<path d="M0.975 0.492 Q1.009 0.446 0.927 0.419" stroke="hsl(0.0,100%,35%)" stroke-width="0.00079"></path>
<path d="M0.975 0.492 Q1.062 0.516 1.129 0.480" stroke="hsl(0.0,100%,35%)" stroke-width="0.00039"></path>
<path d="M0.975 0.492 Q1.159 0.810 1.820 0.790" stroke="hsl(0.0,100%,35%)" stroke-width="0.00039"></path>
<path d="M1.129 0.480 Q1.076 0.409 0.927 0.419" stroke="hsl(0.0,100%,35%)" stroke-width="0.00984"></path>
<path d="M1.129 0.480 Q1.147 0.328 0.855 0.285" stroke="hsl(0.0,100%,35%)" stroke-width="0.00315"></path>
<path d="M1.129 0.480 Q1.456 0.683 1.923 0.568" stroke="hsl(0.0,100%,35%)" stroke-width="0.00236"></path>
<path d="M1.129 0.480 Q0.885 0.494 0.861 0.616" stroke="hsl(0.0,100%,35%)" stroke-width="0.00039"></path>
<path d="M1.820 0.790 Q1.670 0.426 0.927 0.419" stroke="hsl(0.0,100%,35%)" stroke-width="0.01613"></path>
<path d="M1.820 0.790 Q2.049 0.700 1.923 0.568" stroke="hsl(0.0,100%,35%)" stroke-width="0.01692"></path>
<path d="M1.820 0.790 Q1.741 0.345 0.855 0.285" stroke="hsl(0.0,100%,35%)" stroke-width="0.00551"></path>
<path d="M1.820 0.790 Q1.649 0.752 1.536 0.826" stroke="hsl(0.0,100%,35%)" stroke-width="0.00079"></path>
<path d="M1.820 0.790 Q1.335 0.331 0.333 0.466" stroke="hsl(0.0,100%,35%)" stroke-width="0.00039"></path>
<path d="M1.820 0.790 Q1.723 0.497 1.129 0.480" stroke="hsl(0.0,100%,35%)" stroke-width="0.00197"></path>
<path d="M1.820 0.790 Q1.928 0.670 1.717 0.591" stroke="hsl(0.0,100%,35%)" stroke-width="0.00039"></path>
<path d="M1.345 0.167 Q1.118 0.309 1.344 0.451" stroke="hsl(0.0,100%,35%)" stroke-width="0.00275"></path>
<path d="M1.345 0.167 Q0.934 0.209 0.927 0.419" stroke="hsl(0.0,100%,35%)" stroke-width="0.01377"></path>
<path d="M1.345 0.167 Q1.005 0.128 0.855 0.285" stroke="hsl(0.0,100%,35%)" stroke-width="0.00590"></path>
<path d="M1.345 0.167 Q0.665 0.217 0.613 0.560" stroke="hsl(0.0,100%,35%)" stroke-width="0.00669"></path>
<path d="M1.345 0.167 Q0.743 0.295 0.861 0.616" stroke="hsl(0.0,100%,35%)" stroke-width="0.00236"></path>
<path d="M1.345 0.167 Q1.313 0.483 1.923 0.568" stroke="hsl(0.0,100%,35%)" stroke-width="0.00512"></path>
<path d="M1.345 0.167 Q0.987 0.280 1.129 0.480" stroke="hsl(0.0,100%,35%)" stroke-width="0.00197"></path>
<path d="M1.345 0.167 Q0.861 0.089 0.603 0.308" stroke="hsl(0.0,100%,35%)" stroke-width="0.00039"></path>
<path d="M1.607 0.568 Q1.457 0.276 0.855 0.285" stroke="hsl(0.0,100%,35%)" stroke-width="0.00157"></path>
<path d="M1.607 0.568 Q1.765 0.631 1.923 0.568" stroke="hsl(0.0,100%,35%)" stroke-width="0.00787"></path>
<path d="M1.607 0.568 Q1.386 0.357 0.927 0.419" stroke="hsl(0.0,100%,35%)" stroke-width="0.00708"></path>
<path d="M1.607 0.568 Q1.536 0.722 1.820 0.790" stroke="hsl(0.0,100%,35%)" stroke-width="0.00118"></path>
<path d="M0.613 0.560 Q0.692 0.638 0.861 0.616" stroke="hsl(0.0,100%,35%)" stroke-width="0.00393"></path>
<path d="M0.613 0.560 Q1.262 0.826 1.923 0.568" stroke="hsl(0.0,100%,35%)" stroke-width="0.00472"></path>
<path d="M0.613 0.560 Q0.883 0.552 0.927 0.419" stroke="hsl(0.0,100%,35%)" stroke-width="0.00944"></path>
<path d="M0.613 0.560 Q0.954 0.471 0.855 0.285" stroke="hsl(0.0,100%,35%)" stroke-width="0.00354"></path>
<path d="M0.613 0.560 Q1.066 0.652 1.344 0.451" stroke="hsl(0.0,100%,35%)" stroke-width="0.00118"></path>
<path d="M0.613 0.560 Q1.294 0.510 1.345 0.167" stroke="hsl(0.0,100%,35%)" stroke-width="0.00079"></path>
<path d="M0.613 0.560 Q0.810 0.432 0.603 0.308" stroke="hsl(0.0,100%,35%)" stroke-width="0.00118"></path>
<path d="M0.613 0.560 Q0.425 0.503 0.272 0.583" stroke="hsl(0.0,100%,35%)" stroke-width="0.00039"></path>
<path d="M0.603 0.308 Q0.676 0.428 0.927 0.419" stroke="hsl(0.0,100%,35%)" stroke-width="0.00708"></path>
<path d="M0.603 0.308 Q0.747 0.347 0.855 0.285" stroke="hsl(0.0,100%,35%)" stroke-width="0.00393"></path>
<path d="M0.603 0.308 Q0.407 0.436 0.613 0.560" stroke="hsl(0.0,100%,35%)" stroke-width="0.00630"></path>
<path d="M0.603 0.308 Q0.860 0.528 1.344 0.451" stroke="hsl(0.0,100%,35%)" stroke-width="0.00354"></path>
<path d="M0.603 0.308 Q0.486 0.514 0.861 0.616" stroke="hsl(0.0,100%,35%)" stroke-width="0.00079"></path>
<path d="M0.603 0.308 Q1.056 0.702 1.923 0.568" stroke="hsl(0.0,100%,35%)" stroke-width="0.00197"></path>
<path d="M0.603 0.308 Q0.927 0.456 1.287 0.331" stroke="hsl(0.0,100%,35%)" stroke-width="0.00039"></path>
<path d="M0.603 0.308 Q0.729 0.499 1.129 0.480" stroke="hsl(0.0,100%,35%)" stroke-width="0.00118"></path>
<path d="M0.272 0.583 Q0.396 0.537 0.333 0.466" stroke="hsl(0.0,100%,35%)" stroke-width="0.00275"></path>
<path d="M0.272 0.583 Q1.110 0.905 1.923 0.568" stroke="hsl(0.0,100%,35%)" stroke-width="0.00433"></path>
<path d="M0.272 0.583 Q0.880 0.996 1.820 0.790" stroke="hsl(0.0,100%,35%)" stroke-width="0.00079"></path>
<path d="M0.272 0.583 Q0.731 0.632 0.927 0.419" stroke="hsl(0.0,100%,35%)" stroke-width="0.00512"></path>
<path d="M0.272 0.583 Q0.802 0.551 0.855 0.285" stroke="hsl(0.0,100%,35%)" stroke-width="0.00079"></path>
<path d="M1.536 0.826 Q1.707 0.865 1.820 0.790" stroke="hsl(0.0,100%,35%)" stroke-width="0.00039"></path>
<path d="M1.536 0.826 Q1.937 0.774 1.923 0.568" stroke="hsl(0.0,100%,35%)" stroke-width="0.00079"></path>
<path d="M1.536 0.826 Q1.558 0.501 0.927 0.419" stroke="hsl(0.0,100%,35%)" stroke-width="0.00079"></path>
<path d="M1.798 0.423 Q1.366 0.247 0.927 0.419" stroke="hsl(0.0,100%,35%)" stroke-width="0.00039"></path>
<path d="M1.798 0.423 Q1.293 0.127 0.603 0.308" stroke="hsl(0.0,100%,35%)" stroke-width="0.00039"></path>
<path d="M1.798 0.423 Q1.745 0.521 1.923 0.568" stroke="hsl(0.0,100%,35%)" stroke-width="0.00039"></path>
<path d="M1.195 0.310 Q1.045 0.230 0.855 0.285" stroke="hsl(0.0,100%,35%)" stroke-width="0.00433"></path>
<path d="M1.195 0.310 Q0.704 0.319 0.613 0.560" stroke="hsl(0.0,100%,35%)" stroke-width="0.00275"></path>
<path d="M1.195 0.310 Q0.974 0.311 0.927 0.419" stroke="hsl(0.0,100%,35%)" stroke-width="0.00669"></path>
<path d="M1.195 0.310 Q1.384 0.268 1.345 0.167" stroke="hsl(0.0,100%,35%)" stroke-width="0.00039"></path>
<path d="M1.195 0.310 Q1.353 0.584 1.923 0.568" stroke="hsl(0.0,100%,35%)" stroke-width="0.00039"></path>
<path d="M1.099 0.208 Q0.844 0.279 0.927 0.419" stroke="hsl(0.0,100%,35%)" stroke-width="0.00079"></path>
<path d="M1.099 0.208 Q0.771 0.159 0.603 0.308" stroke="hsl(0.0,100%,35%)" stroke-width="0.00039"></path>
<path d="M1.099 0.208 Q0.915 0.198 0.855 0.285" stroke="hsl(0.0,100%,35%)" stroke-width="0.00157"></path>
<path d="M0.950 0.501 Q1.004 0.455 0.927 0.419" stroke="hsl(0.0,100%,35%)" stroke-width="0.00393"></path>
<path d="M0.950 0.501 Q0.547 0.526 0.507 0.729" stroke="hsl(0.0,100%,35%)" stroke-width="0.00039"></path>
<path d="M0.950 0.501 Q1.384 0.729 1.923 0.568" stroke="hsl(0.0,100%,35%)" stroke-width="0.00039"></path>
<path d="M0.950 0.501 Q1.075 0.374 0.855 0.285" stroke="hsl(0.0,100%,35%)" stroke-width="0.00079"></path>
<path d="M1.268 0.543 Q1.197 0.413 0.927 0.419" stroke="hsl(0.0,100%,35%)" stroke-width="0.00039"></path>
<path d="M1.268 0.543 Q0.862 0.318 0.333 0.466" stroke="hsl(0.0,100%,35%)" stroke-width="0.00039"></path>
<path d="M1.051 0.582 Q1.120 0.476 0.927 0.419" stroke="hsl(0.0,100%,35%)" stroke-width="0.00236"></path>
<path d="M1.051 0.582 Q1.499 0.750 1.923 0.568" stroke="hsl(0.0,100%,35%)" stroke-width="0.00157"></path>
<path d="M1.051 0.582 Q0.929 0.561 0.861 0.616" stroke="hsl(0.0,100%,35%)" stroke-width="0.00039"></path>
<path d="M0.333 0.466 Q1.047 0.835 1.923 0.568" stroke="hsl(0.0,100%,35%)" stroke-width="0.00157"></path>
<path d="M0.333 0.466 Q0.739 0.480 0.855 0.285" stroke="hsl(0.0,100%,35%)" stroke-width="0.00118"></path>
<path d="M0.333 0.466 Q0.818 0.926 1.820 0.790" stroke="hsl(0.0,100%,35%)" stroke-width="0.00079"></path>
<path d="M0.333 0.466 Q0.668 0.561 0.927 0.419" stroke="hsl(0.0,100%,35%)" stroke-width="0.00157"></path>
<path d="M0.333 0.466 Q0.210 0.512 0.272 0.583" stroke="hsl(0.0,100%,35%)" stroke-width="0.00079"></path>
<path d="M0.333 0.466 Q0.393 0.702 0.864 0.724" stroke="hsl(0.0,100%,35%)" stroke-width="0.00039"></path>
<path d="M1.314 0.304 Q1.028 0.284 0.927 0.419" stroke="hsl(0.0,100%,35%)" stroke-width="0.01456"></path>
<path d="M1.314 0.304 Q1.099 0.203 0.855 0.285" stroke="hsl(0.0,100%,35%)" stroke-width="0.00275"></path>
<path d="M1.314 0.304 Q1.408 0.558 1.923 0.568" stroke="hsl(0.0,100%,35%)" stroke-width="0.00354"></path>
<path d="M1.314 0.304 Q1.212 0.383 1.344 0.451" stroke="hsl(0.0,100%,35%)" stroke-width="0.00039"></path>
<path d="M1.314 0.304 Q0.955 0.164 0.603 0.308" stroke="hsl(0.0,100%,35%)" stroke-width="0.00039"></path>
<path d="M1.314 0.304 Q0.759 0.292 0.613 0.560" stroke="hsl(0.0,100%,35%)" stroke-width="0.00039"></path>
<path d="M1.357 0.737 Q1.397 0.492 0.927 0.419" stroke="hsl(0.0,100%,35%)" stroke-width="0.00433"></path>
<path d="M1.357 0.737 Q1.776 0.766 1.923 0.568" stroke="hsl(0.0,100%,35%)" stroke-width="0.00275"></path>
<path d="M1.357 0.737 Q1.376 0.818 1.536 0.826" stroke="hsl(0.0,100%,35%)" stroke-width="0.00039"></path>
<path d="M1.717 0.591 Q1.001 0.298 0.272 0.583" stroke="hsl(0.0,100%,35%)" stroke-width="0.00039"></path>
<path d="M1.717 0.591 Q1.839 0.620 1.923 0.568" stroke="hsl(0.0,100%,35%)" stroke-width="0.00393"></path>
<path d="M1.717 0.591 Q1.125 0.252 0.333 0.466" stroke="hsl(0.0,100%,35%)" stroke-width="0.00118"></path>
<path d="M1.717 0.591 Q1.459 0.347 0.927 0.419" stroke="hsl(0.0,100%,35%)" stroke-width="0.00354"></path>
<path d="M1.717 0.591 Q1.609 0.711 1.820 0.790" stroke="hsl(0.0,100%,35%)" stroke-width="0.00039"></path>
<path d="M0.858 0.508 Q1.214 0.505 1.287 0.331" stroke="hsl(0.0,100%,35%)" stroke-width="0.00079"></path>
<path d="M0.858 0.508 Q1.034 0.396 0.855 0.285" stroke="hsl(0.0,100%,35%)" stroke-width="0.00079"></path>
<path d="M0.858 0.508 Q0.963 0.477 0.927 0.419" stroke="hsl(0.0,100%,35%)" stroke-width="0.00157"></path>
<path d="M0.858 0.508 Q1.147 0.577 1.344 0.451" stroke="hsl(0.0,100%,35%)" stroke-width="0.00039"></path>
<path d="M0.858 0.508 Q1.343 0.751 1.923 0.568" stroke="hsl(0.0,100%,35%)" stroke-width="0.00079"></path>
<path d="M1.177 0.226 Q0.898 0.272 0.927 0.419" stroke="hsl(0.0,100%,35%)" stroke-width="0.00197"></path>
<path d="M1.177 0.226 Q0.628 0.280 0.613 0.560" stroke="hsl(0.0,100%,35%)" stroke-width="0.00039"></path>
<path d="M1.177 0.226 Q1.148 0.300 1.287 0.331" stroke="hsl(0.0,100%,35%)" stroke-width="0.00079"></path>
<path d="M1.177 0.226 Q1.277 0.546 1.923 0.568" stroke="hsl(0.0,100%,35%)" stroke-width="0.00079"></path>
<path d="M1.683 0.477 Q1.501 0.661 1.820 0.790" stroke="hsl(0.0,100%,35%)" stroke-width="0.00039"></path>
<path d="M1.683 0.477 Q1.730 0.570 1.923 0.568" stroke="hsl(0.0,100%,35%)" stroke-width="0.00197"></path>
<path d="M1.683 0.477 Q1.351 0.297 0.927 0.419" stroke="hsl(0.0,100%,35%)" stroke-width="0.00275"></path>
<path d="M1.683 0.477 Q1.422 0.215 0.855 0.285" stroke="hsl(0.0,100%,35%)" stroke-width="0.00039"></path>
<path d="M1.683 0.477 Q1.016 0.202 0.333 0.466" stroke="hsl(0.0,100%,35%)" stroke-width="0.00079"></path>
<path d="M1.683 0.477 Q1.403 0.367 1.129 0.480" stroke="hsl(0.0,100%,35%)" stroke-width="0.00039"></path>
<path d="M1.461 0.603 Q1.341 0.404 0.927 0.419" stroke="hsl(0.0,100%,35%)" stroke-width="0.00197"></path>
<path d="M1.461 0.603 Q1.720 0.678 1.923 0.568" stroke="hsl(0.0,100%,35%)" stroke-width="0.00079"></path>
<path d="M0.126 0.504 Q0.666 0.541 0.855 0.285" stroke="hsl(0.0,100%,35%)" stroke-width="0.00039"></path>
<path d="M0.126 0.504 Q0.260 0.527 0.333 0.466" stroke="hsl(0.0,100%,35%)" stroke-width="0.00039"></path>
<path d="M0.126 0.504 Q0.666 0.752 1.268 0.543" stroke="hsl(0.0,100%,35%)" stroke-width="0.00039"></path>
<path d="M1.232 0.517 Q1.158 0.407 0.927 0.419" stroke="hsl(0.0,100%,35%)" stroke-width="0.00630"></path>
<path d="M1.232 0.517 Q1.537 0.681 1.923 0.568" stroke="hsl(0.0,100%,35%)" stroke-width="0.00197"></path>
<path d="M1.232 0.517 Q1.307 0.771 1.820 0.790" stroke="hsl(0.0,100%,35%)" stroke-width="0.00315"></path>
<path d="M0.543 0.452 Q0.761 0.512 0.927 0.419" stroke="hsl(0.0,100%,35%)" stroke-width="0.00118"></path>
<path d="M0.543 0.452 Q0.911 0.876 1.820 0.790" stroke="hsl(0.0,100%,35%)" stroke-width="0.00079"></path>
<path d="M0.543 0.452 Q0.426 0.417 0.333 0.466" stroke="hsl(0.0,100%,35%)" stroke-width="0.00039"></path>
<path d="M1.294 0.571 Q1.041 0.507 0.861 0.616" stroke="hsl(0.0,100%,35%)" stroke-width="0.00354"></path>
<path d="M1.294 0.571 Q1.232 0.422 0.927 0.419" stroke="hsl(0.0,100%,35%)" stroke-width="0.00944"></path>
<path d="M1.294 0.571 Q1.611 0.695 1.923 0.568" stroke="hsl(0.0,100%,35%)" stroke-width="0.00039"></path>
<path d="M1.294 0.571 Q1.303 0.341 0.855 0.285" stroke="hsl(0.0,100%,35%)" stroke-width="0.00039"></path>
<path d="M1.294 0.571 Q1.643 0.379 1.345 0.167" stroke="hsl(0.0,100%,35%)" stroke-width="0.00079"></path>
<path d="M1.294 0.571 Q1.159 0.302 0.603 0.308" stroke="hsl(0.0,100%,35%)" stroke-width="0.00039"></path>
<path d="M1.561 0.324 Q1.547 0.518 1.923 0.568" stroke="hsl(0.0,100%,35%)" stroke-width="0.00236"></path>
<path d="M1.561 0.324 Q0.649 0.244 0.294 0.671" stroke="hsl(0.0,100%,35%)" stroke-width="0.00118"></path>
<path d="M1.561 0.324 Q1.168 0.245 0.927 0.419" stroke="hsl(0.0,100%,35%)" stroke-width="0.00157"></path>
<path d="M1.064 0.143 Q0.845 0.172 0.855 0.285" stroke="hsl(0.0,100%,35%)" stroke-width="0.00079"></path>
<path d="M1.064 0.143 Q1.154 0.527 1.923 0.568" stroke="hsl(0.0,100%,35%)" stroke-width="0.00039"></path>
<path d="M1.064 0.143 Q0.774 0.253 0.927 0.419" stroke="hsl(0.0,100%,35%)" stroke-width="0.00039"></path>
<path d="M0.383 0.165 Q0.451 0.401 0.927 0.419" stroke="hsl(0.0,100%,35%)" stroke-width="0.00118"></path>
<path d="M0.383 0.165 Q0.378 0.281 0.603 0.308" stroke="hsl(0.0,100%,35%)" stroke-width="0.00157"></path>
<path d="M0.383 0.165 Q0.635 0.500 1.344 0.451" stroke="hsl(0.0,100%,35%)" stroke-width="0.00039"></path>
<path d="M0.663 0.742 Q1.053 0.633 0.927 0.419" stroke="hsl(0.0,100%,35%)" stroke-width="0.00079"></path>
<path d="M0.663 0.742 Q1.124 0.552 0.855 0.285" stroke="hsl(0.0,100%,35%)" stroke-width="0.00118"></path>
<path d="M0.663 0.742 Q0.718 0.538 0.333 0.466" stroke="hsl(0.0,100%,35%)" stroke-width="0.00039"></path>
<path d="M0.663 0.742 Q1.014 0.878 1.357 0.737" stroke="hsl(0.0,100%,35%)" stroke-width="0.00079"></path>
<path d="M0.663 0.742 Q1.433 0.907 1.923 0.568" stroke="hsl(0.0,100%,35%)" stroke-width="0.00039"></path>
</g>
<text x="0.810" y="0.874" font-size="0.012856" fill="hsl(0.0,100%,20%)">aleino</text>
<text x="0.927" y="0.367" font-size="0.103333" fill="hsl(0.0,100%,20%)">jmadill</text>
<text x="1.923" y="0.535" font-size="0.065387" fill="hsl(0.0,100%,20%)">geofflang</text>
<text x="1.052" y="0.843" font-size="0.006639" fill="hsl(0.0,100%,20%)">kkinnunen</text>
<text x="0.338" y="0.759" font-size="0.007423" fill="hsl(0.0,100%,20%)">artyom</text>
<text x="0.855" y="0.247" font-size="0.076205" fill="hsl(0.0,100%,20%)">syoussefi</text>
<text x="0.294" y="0.667" font-size="0.008131" fill="hsl(0.0,100%,20%)">rafael.cintron</text>
<text x="1.216" y="0.414" font-size="0.015212" fill="hsl(0.0,100%,20%)">b.schade</text>
<text x="0.507" y="0.725" font-size="0.008131" fill="hsl(0.0,100%,20%)">cclao</text>
<text x="0.861" y="0.595" font-size="0.042381" fill="hsl(0.0,100%,20%)">tobine</text>
<text x="1.344" y="0.432" font-size="0.037848" fill="hsl(0.0,100%,20%)">cnorthrop</text>
<text x="1.287" y="0.320" font-size="0.022514" fill="hsl(0.0,100%,20%)">m.maiya</text>
<text x="0.975" y="0.488" font-size="0.006639" fill="hsl(0.0,100%,20%)">bsheedy</text>
<text x="1.129" y="0.460" font-size="0.040247" fill="hsl(0.0,100%,20%)">ynovikov</text>
<text x="1.820" y="0.764" font-size="0.051104" fill="hsl(0.0,100%,20%)">jonahr</text>
<text x="1.345" y="0.144" font-size="0.046828" fill="hsl(0.0,100%,20%)">timvp</text>
<text x="1.607" y="0.556" font-size="0.022998" fill="hsl(0.0,100%,20%)">clemendeng</text>
<text x="0.613" y="0.539" font-size="0.041726" fill="hsl(0.0,100%,20%)">courtneygo</text>
<text x="0.603" y="0.292" font-size="0.032694" fill="hsl(0.0,100%,20%)">ianelliott</text>
<text x="1.267" y="0.274" font-size="0.005750" fill="hsl(0.0,100%,20%)">lfy</text>
<text x="0.272" y="0.572" font-size="0.021255" fill="hsl(0.0,100%,20%)">jdarpinian</text>
<text x="1.536" y="0.820" font-size="0.012421" fill="hsl(0.0,100%,20%)">cwallez</text>
<text x="1.798" y="0.421" font-size="0.005750" fill="hsl(0.0,100%,20%)">davidben</text>
<text x="1.195" y="0.300" font-size="0.020463" fill="hsl(0.0,100%,20%)">dongja</text>
<text x="1.099" y="0.204" font-size="0.008783" fill="hsl(0.0,100%,20%)">ericbinet</text>
<text x="0.950" y="0.495" font-size="0.012856" fill="hsl(0.0,100%,20%)">flibitijibibo</text>
<text x="1.268" y="0.540" font-size="0.006639" fill="hsl(0.0,100%,20%)">zmo</text>
<text x="1.051" y="0.576" font-size="0.013278" fill="hsl(0.0,100%,20%)">sugoi</text>
<text x="0.333" y="0.456" font-size="0.020995" fill="hsl(0.0,100%,20%)">kbr</text>
<text x="1.314" y="0.291" font-size="0.025713" fill="hsl(0.0,100%,20%)">spang</text>
<text x="1.357" y="0.729" font-size="0.017249" fill="hsl(0.0,100%,20%)">jiajia.qin</text>
<text x="1.717" y="0.582" font-size="0.016926" fill="hsl(0.0,100%,20%)">shrekshao</text>
<text x="0.858" y="0.502" font-size="0.011499" fill="hsl(0.0,100%,20%)">hckim.kim</text>
<text x="1.177" y="0.221" font-size="0.010497" fill="hsl(0.0,100%,20%)">j.vigil</text>
<text x="1.683" y="0.470" font-size="0.013687" fill="hsl(0.0,100%,20%)">jgilbert</text>
<text x="1.461" y="0.598" font-size="0.008783" fill="hsl(0.0,100%,20%)">jie.a.chen</text>
<text x="1.161" y="0.293" font-size="0.003320" fill="hsl(0.0,100%,20%)">amaiorano</text>
<text x="0.624" y="0.422" font-size="0.003320" fill="hsl(0.0,100%,20%)">le.hoang.q</text>
<text x="0.729" y="0.437" font-size="0.003320" fill="hsl(0.0,100%,20%)">brucedawson</text>
<text x="0.864" y="0.722" font-size="0.004695" fill="hsl(0.0,100%,20%)">kainino</text>
<text x="0.126" y="0.501" font-size="0.005750" fill="hsl(0.0,100%,20%)">khushalsagar</text>
<text x="1.232" y="0.508" font-size="0.017876" fill="hsl(0.0,100%,20%)">lehoangq</text>
<text x="0.543" y="0.448" font-size="0.008131" fill="hsl(0.0,100%,20%)">lexa.knyazev</text>
<text x="1.294" y="0.561" font-size="0.020463" fill="hsl(0.0,100%,20%)">lujc</text>
<text x="1.561" y="0.318" font-size="0.011969" fill="hsl(0.0,100%,20%)">mihu</text>
<text x="1.064" y="0.139" font-size="0.006639" fill="hsl(0.0,100%,20%)">shaobo.yan</text>
<text x="0.542" y="0.420" font-size="0.003320" fill="hsl(0.0,100%,20%)">jaedon1.lee</text>
<text x="0.383" y="0.160" font-size="0.009959" fill="hsl(0.0,100%,20%)">xinyi.he</text>
<text x="0.763" y="0.316" font-size="0.004695" fill="hsl(0.0,100%,20%)">sunny.sun</text>
<text x="0.455" y="0.300" font-size="0.003320" fill="hsl(0.0,100%,20%)">fei.yang</text>
<text x="0.663" y="0.737" font-size="0.009959" fill="hsl(0.0,100%,20%)">xinghua.cao</text>
</svg>
