<svg width="4000" height="2000" viewBox="-0.025 -0.025 2.05 1.05" xmlns="http://www.w3.org/2000/svg">
  <style>
    path {
      fill: none;
      stroke-linecap: round;
      stroke-opacity: 0.4;
    }

    text {
      text-anchor: middle;
      alignment-baseline: hanging;
    }
  </style>
  <g opacity="0.4">
<path d="M0.853 0.125 Q0.878 0.195 1.020 0.198" stroke="hsl(0.0,100%,35%)" stroke-width="0.01000"></path>
<path d="M0.853 0.125 Q1.004 0.140 1.067 0.070" stroke="hsl(0.0,100%,35%)" stroke-width="0.02000"></path>
<path d="M0.853 0.125 Q0.854 0.075 0.756 0.063" stroke="hsl(0.0,100%,35%)" stroke-width="0.00250"></path>
<path d="M0.853 0.125 Q0.896 0.308 1.264 0.327" stroke="hsl(0.0,100%,35%)" stroke-width="0.00250"></path>
<path d="M1.020 0.198 Q0.995 0.128 0.853 0.125" stroke="hsl(0.0,100%,35%)" stroke-width="0.00750"></path>
<path d="M1.020 0.198 Q1.146 0.143 1.067 0.070" stroke="hsl(0.0,100%,35%)" stroke-width="0.00500"></path>
<path d="M1.020 0.198 Q1.320 0.406 1.792 0.306" stroke="hsl(0.0,100%,35%)" stroke-width="0.00250"></path>
<path d="M1.067 0.070 Q0.768 0.101 0.763 0.253" stroke="hsl(0.0,100%,35%)" stroke-width="0.03000"></path>
<path d="M1.067 0.070 Q0.915 0.055 0.853 0.125" stroke="hsl(0.0,100%,35%)" stroke-width="0.08000"></path>
<path d="M1.067 0.070 Q0.665 -0.018 0.405 0.159" stroke="hsl(0.0,100%,35%)" stroke-width="0.01500"></path>
<path d="M1.067 0.070 Q0.164 0.256 0.329 0.737" stroke="hsl(0.0,100%,35%)" stroke-width="0.04250"></path>
<path d="M1.067 0.070 Q0.815 0.015 0.653 0.125" stroke="hsl(0.0,100%,35%)" stroke-width="0.00250"></path>
<path d="M1.067 0.070 Q0.342 0.239 0.513 0.630" stroke="hsl(0.0,100%,35%)" stroke-width="0.00500"></path>
<path d="M1.067 0.070 Q1.240 0.333 1.792 0.306" stroke="hsl(0.0,100%,35%)" stroke-width="0.00750"></path>
<path d="M1.067 0.070 Q0.354 0.345 0.735 0.754" stroke="hsl(0.0,100%,35%)" stroke-width="0.00250"></path>
<path d="M1.067 0.070 Q0.917 0.004 0.756 0.063" stroke="hsl(0.0,100%,35%)" stroke-width="0.00750"></path>
<path d="M1.792 0.306 Q1.216 -0.045 0.405 0.159" stroke="hsl(0.0,100%,35%)" stroke-width="0.01250"></path>
<path d="M1.792 0.306 Q1.823 0.153 1.532 0.104" stroke="hsl(0.0,100%,35%)" stroke-width="0.00250"></path>
<path d="M1.792 0.306 Q1.913 0.255 1.840 0.184" stroke="hsl(0.0,100%,35%)" stroke-width="0.00500"></path>
<path d="M1.792 0.306 Q1.744 0.180 1.488 0.176" stroke="hsl(0.0,100%,35%)" stroke-width="0.00500"></path>
<path d="M0.405 0.159 Q0.251 0.128 0.158 0.196" stroke="hsl(0.0,100%,35%)" stroke-width="0.00250"></path>
<path d="M0.405 0.159 Q0.508 0.278 0.763 0.253" stroke="hsl(0.0,100%,35%)" stroke-width="0.00250"></path>
<path d="M0.405 0.159 Q0.807 0.246 1.067 0.070" stroke="hsl(0.0,100%,35%)" stroke-width="0.02750"></path>
<path d="M0.405 0.159 Q0.699 0.415 1.264 0.327" stroke="hsl(0.0,100%,35%)" stroke-width="0.00750"></path>
<path d="M0.405 0.159 Q0.981 0.510 1.792 0.306" stroke="hsl(0.0,100%,35%)" stroke-width="0.01000"></path>
<path d="M0.405 0.159 Q0.370 0.313 0.665 0.364" stroke="hsl(0.0,100%,35%)" stroke-width="0.00250"></path>
<path d="M0.405 0.159 Q-0.096 0.433 0.329 0.737" stroke="hsl(0.0,100%,35%)" stroke-width="0.00500"></path>
<path d="M1.488 0.176 Q1.536 0.302 1.792 0.306" stroke="hsl(0.0,100%,35%)" stroke-width="0.00500"></path>
<path d="M1.488 0.176 Q1.064 0.070 0.763 0.253" stroke="hsl(0.0,100%,35%)" stroke-width="0.00250"></path>
<path d="M0.329 0.737 Q1.232 0.551 1.067 0.070" stroke="hsl(0.0,100%,35%)" stroke-width="0.02750"></path>
<path d="M0.329 0.737 Q0.796 0.618 0.665 0.364" stroke="hsl(0.0,100%,35%)" stroke-width="0.00500"></path>
<path d="M0.329 0.737 Q0.362 0.616 0.133 0.573" stroke="hsl(0.0,100%,35%)" stroke-width="0.00250"></path>
<path d="M0.329 0.737 Q1.081 0.536 0.853 0.125" stroke="hsl(0.0,100%,35%)" stroke-width="0.00250"></path>
<path d="M0.329 0.737 Q0.719 0.774 0.877 0.592" stroke="hsl(0.0,100%,35%)" stroke-width="0.00250"></path>
<path d="M0.329 0.737 Q0.507 0.720 0.513 0.630" stroke="hsl(0.0,100%,35%)" stroke-width="0.00250"></path>
<path d="M0.665 0.364 Q0.700 0.209 0.405 0.159" stroke="hsl(0.0,100%,35%)" stroke-width="0.00500"></path>
<path d="M0.665 0.364 Q0.803 0.329 0.763 0.253" stroke="hsl(0.0,100%,35%)" stroke-width="0.00250"></path>
<path d="M0.665 0.364 Q1.275 0.560 1.792 0.306" stroke="hsl(0.0,100%,35%)" stroke-width="0.00250"></path>
<path d="M0.665 0.364 Q1.102 0.297 1.067 0.070" stroke="hsl(0.0,100%,35%)" stroke-width="0.00250"></path>
<path d="M0.513 0.630 Q0.335 0.647 0.329 0.737" stroke="hsl(0.0,100%,35%)" stroke-width="0.02000"></path>
<path d="M0.513 0.630 Q1.238 0.460 1.067 0.070" stroke="hsl(0.0,100%,35%)" stroke-width="0.01500"></path>
<path d="M0.513 0.630 Q0.525 0.736 0.735 0.754" stroke="hsl(0.0,100%,35%)" stroke-width="0.00250"></path>
<path d="M0.513 0.630 Q0.801 0.528 0.665 0.364" stroke="hsl(0.0,100%,35%)" stroke-width="0.00250"></path>
<path d="M0.513 0.630 Q0.725 0.684 0.877 0.592" stroke="hsl(0.0,100%,35%)" stroke-width="0.01500"></path>
<path d="M0.513 0.630 Q0.449 0.799 0.765 0.867" stroke="hsl(0.0,100%,35%)" stroke-width="0.00500"></path>
<path d="M0.950 0.264 Q1.012 0.175 0.853 0.125" stroke="hsl(0.0,100%,35%)" stroke-width="0.00750"></path>
<path d="M0.950 0.264 Q1.056 0.358 1.264 0.327" stroke="hsl(0.0,100%,35%)" stroke-width="0.00500"></path>
<path d="M0.950 0.264 Q1.164 0.190 1.067 0.070" stroke="hsl(0.0,100%,35%)" stroke-width="0.00500"></path>
<path d="M1.754 0.468 Q1.729 0.131 1.067 0.070" stroke="hsl(0.0,100%,35%)" stroke-width="0.00750"></path>
<path d="M1.754 0.468 Q0.826 0.318 0.329 0.737" stroke="hsl(0.0,100%,35%)" stroke-width="0.00500"></path>
<path d="M1.754 0.468 Q1.645 0.396 1.480 0.433" stroke="hsl(0.0,100%,35%)" stroke-width="0.00250"></path>
<path d="M1.207 0.459 Q1.012 0.303 0.665 0.364" stroke="hsl(0.0,100%,35%)" stroke-width="0.00250"></path>
<path d="M1.207 0.459 Q1.448 0.236 1.067 0.070" stroke="hsl(0.0,100%,35%)" stroke-width="0.00250"></path>
<path d="M1.207 0.459 Q1.622 0.499 1.792 0.306" stroke="hsl(0.0,100%,35%)" stroke-width="0.00250"></path>
<path d="M0.868 0.209 Q1.253 0.443 1.792 0.306" stroke="hsl(0.0,100%,35%)" stroke-width="0.00250"></path>
<path d="M0.868 0.209 Q1.079 0.179 1.067 0.070" stroke="hsl(0.0,100%,35%)" stroke-width="0.00750"></path>
<path d="M0.868 0.209 Q0.928 0.164 0.853 0.125" stroke="hsl(0.0,100%,35%)" stroke-width="0.00250"></path>
</g>
<text x="0.853" y="0.088" font-size="0.073485" fill="hsl(0.0,100%,20%)">cclao</text>
<text x="1.020" y="0.182" font-size="0.031623" fill="hsl(0.0,100%,20%)">chrisforbes</text>
<text x="1.067" y="0.014" font-size="0.111803" fill="hsl(0.0,100%,20%)">syoussefi</text>
<text x="0.756" y="0.053" font-size="0.020000" fill="hsl(0.0,100%,20%)">m.maiya</text>
<text x="1.264" y="0.315" font-size="0.024495" fill="hsl(0.0,100%,20%)">abdolrashidi</text>
<text x="1.792" y="0.282" font-size="0.047958" fill="hsl(0.0,100%,20%)">cnorthrop</text>
<text x="0.405" y="0.129" font-size="0.060000" fill="hsl(0.0,100%,20%)">romanl</text>
<text x="1.532" y="0.099" font-size="0.010000" fill="hsl(0.0,100%,20%)">mark</text>
<text x="1.840" y="0.177" font-size="0.014142" fill="hsl(0.0,100%,20%)">mikes</text>
<text x="1.488" y="0.165" font-size="0.022361" fill="hsl(0.0,100%,20%)">lpy</text>
<text x="0.329" y="0.703" font-size="0.067823" fill="hsl(0.0,100%,20%)">geofflang</text>
<text x="0.665" y="0.349" font-size="0.031623" fill="hsl(0.0,100%,20%)">ynovikov</text>
<text x="0.133" y="0.568" font-size="0.010000" fill="hsl(0.0,100%,20%)">jamesgk</text>
<text x="0.877" y="0.579" font-size="0.026458" fill="hsl(0.0,100%,20%)">kbr</text>
<text x="0.513" y="0.604" font-size="0.051962" fill="hsl(0.0,100%,20%)">lexa.knyazev</text>
<text x="0.950" y="0.251" font-size="0.026458" fill="hsl(0.0,100%,20%)">hailinzhang</text>
<text x="0.735" y="0.747" font-size="0.014142" fill="hsl(0.0,100%,20%)">lehoangquyen</text>
<text x="0.765" y="0.860" font-size="0.014142" fill="hsl(0.0,100%,20%)">kkinnunen</text>
<text x="1.754" y="0.456" font-size="0.024495" fill="hsl(0.0,100%,20%)">liza</text>
<text x="1.480" y="0.428" font-size="0.010000" fill="hsl(0.0,100%,20%)">sokcevic</text>
<text x="0.763" y="0.234" font-size="0.038730" fill="hsl(0.0,100%,20%)">yuxinhu</text>
<text x="0.158" y="0.191" font-size="0.010000" fill="hsl(0.0,100%,20%)">zijiehe</text>
<text x="1.207" y="0.450" font-size="0.017321" fill="hsl(0.0,100%,20%)">solti</text>
<text x="0.653" y="0.120" font-size="0.010000" fill="hsl(0.0,100%,20%)">i.nazarov</text>
<text x="0.868" y="0.198" font-size="0.022361" fill="hsl(0.0,100%,20%)">zzyiwei</text>
</svg>
