<svg width="4000" height="2000" viewBox="-0.025 -0.025 2.05 1.05" xmlns="http://www.w3.org/2000/svg">
  <style>
    path {
      fill: none;
      stroke-linecap: round;
      stroke-opacity: 0.4;
    }

    text {
      text-anchor: middle;
      alignment-baseline: hanging;
    }
  </style>
  <g opacity="0.4">
<path d="M0.545 0.975 Q1.794 0.880 1.881 0.250" stroke="hsl(0.0,100%,35%)" stroke-width="0.00394"></path>
<path d="M0.545 0.975 Q1.275 0.702 0.902 0.286" stroke="hsl(0.0,100%,35%)" stroke-width="0.00039"></path>
<path d="M0.545 0.975 Q0.689 0.906 0.584 0.821" stroke="hsl(0.0,100%,35%)" stroke-width="0.00157"></path>
<path d="M1.881 0.250 Q1.455 0.336 1.530 0.562" stroke="hsl(0.0,100%,35%)" stroke-width="0.02126"></path>
<path d="M1.881 0.250 Q1.737 0.212 1.631 0.274" stroke="hsl(0.0,100%,35%)" stroke-width="0.01378"></path>
<path d="M1.881 0.250 Q1.652 0.255 1.611 0.368" stroke="hsl(0.0,100%,35%)" stroke-width="0.01811"></path>
<path d="M1.881 0.250 Q1.531 0.188 1.335 0.345" stroke="hsl(0.0,100%,35%)" stroke-width="0.02047"></path>
<path d="M1.881 0.250 Q1.395 0.233 1.255 0.466" stroke="hsl(0.0,100%,35%)" stroke-width="0.00945"></path>
<path d="M1.881 0.250 Q1.203 0.305 1.162 0.648" stroke="hsl(0.0,100%,35%)" stroke-width="0.00748"></path>
<path d="M1.881 0.250 Q1.668 0.391 1.896 0.525" stroke="hsl(0.0,100%,35%)" stroke-width="0.01890"></path>
<path d="M1.881 0.250 Q1.862 0.298 1.953 0.318" stroke="hsl(0.0,100%,35%)" stroke-width="0.00039"></path>
<path d="M1.881 0.250 Q1.362 0.072 0.902 0.286" stroke="hsl(0.0,100%,35%)" stroke-width="0.01929"></path>
<path d="M1.881 0.250 Q1.880 0.112 1.610 0.081" stroke="hsl(0.0,100%,35%)" stroke-width="0.00039"></path>
<path d="M1.881 0.250 Q1.136 0.061 0.605 0.383" stroke="hsl(0.0,100%,35%)" stroke-width="0.00079"></path>
<path d="M1.881 0.250 Q1.595 0.295 1.620 0.444" stroke="hsl(0.0,100%,35%)" stroke-width="0.00039"></path>
<path d="M1.881 0.250 Q1.374 0.548 1.845 0.860" stroke="hsl(0.0,100%,35%)" stroke-width="0.00157"></path>
<path d="M1.881 0.250 Q1.101 0.204 0.840 0.574" stroke="hsl(0.0,100%,35%)" stroke-width="0.00236"></path>
<path d="M1.881 0.250 Q2.464 -0.306 1.507 -0.713" stroke="hsl(0.0,100%,35%)" stroke-width="0.00039"></path>
<path d="M1.881 0.250 Q1.661 0.312 1.733 0.433" stroke="hsl(0.0,100%,35%)" stroke-width="0.00039"></path>
<path d="M1.881 0.250 Q1.524 0.258 1.461 0.433" stroke="hsl(0.0,100%,35%)" stroke-width="0.00079"></path>
<path d="M1.881 0.250 Q1.798 0.306 1.890 0.359" stroke="hsl(0.0,100%,35%)" stroke-width="0.00039"></path>
<path d="M1.881 0.250 Q1.566 0.254 1.505 0.408" stroke="hsl(0.0,100%,35%)" stroke-width="0.00039"></path>
<path d="M0.902 0.286 Q1.071 0.402 1.335 0.345" stroke="hsl(0.0,100%,35%)" stroke-width="0.01260"></path>
<path d="M0.902 0.286 Q1.421 0.464 1.881 0.250" stroke="hsl(0.0,100%,35%)" stroke-width="0.01457"></path>
<path d="M0.902 0.286 Q0.631 0.627 1.237 0.834" stroke="hsl(0.0,100%,35%)" stroke-width="0.00039"></path>
<path d="M0.902 0.286 Q0.567 0.205 0.334 0.350" stroke="hsl(0.0,100%,35%)" stroke-width="0.00039"></path>
<path d="M0.902 0.286 Q0.611 0.737 1.427 0.978" stroke="hsl(0.0,100%,35%)" stroke-width="0.00079"></path>
<path d="M0.902 0.286 Q0.743 0.519 1.162 0.648" stroke="hsl(0.0,100%,35%)" stroke-width="0.00118"></path>
<path d="M0.902 0.286 Q0.995 0.550 1.530 0.562" stroke="hsl(0.0,100%,35%)" stroke-width="0.00118"></path>
<path d="M0.902 0.286 Q0.676 0.275 0.605 0.383" stroke="hsl(0.0,100%,35%)" stroke-width="0.00157"></path>
<path d="M0.902 0.286 Q1.191 0.469 1.611 0.368" stroke="hsl(0.0,100%,35%)" stroke-width="0.00197"></path>
<path d="M0.902 0.286 Q1.064 0.472 1.461 0.433" stroke="hsl(0.0,100%,35%)" stroke-width="0.00039"></path>
<path d="M0.902 0.286 Q0.641 0.418 0.840 0.574" stroke="hsl(0.0,100%,35%)" stroke-width="0.00079"></path>
<path d="M0.902 0.286 Q1.208 0.605 1.896 0.525" stroke="hsl(0.0,100%,35%)" stroke-width="0.00905"></path>
<path d="M0.902 0.286 Q0.914 0.762 1.845 0.860" stroke="hsl(0.0,100%,35%)" stroke-width="0.00079"></path>
<path d="M0.902 0.286 Q0.817 0.317 0.858 0.365" stroke="hsl(0.0,100%,35%)" stroke-width="0.00118"></path>
<path d="M0.902 0.286 Q1.402 0.512 1.953 0.318" stroke="hsl(0.0,100%,35%)" stroke-width="0.00039"></path>
<path d="M0.902 0.286 Q0.934 0.447 1.255 0.466" stroke="hsl(0.0,100%,35%)" stroke-width="0.00039"></path>
<path d="M0.902 0.286 Q1.100 0.463 1.489 0.406" stroke="hsl(0.0,100%,35%)" stroke-width="0.00039"></path>
<path d="M0.902 0.286 Q0.815 0.215 0.658 0.242" stroke="hsl(0.0,100%,35%)" stroke-width="0.00039"></path>
<path d="M0.293 0.504 Q1.077 0.835 1.896 0.525" stroke="hsl(0.0,100%,35%)" stroke-width="0.00079"></path>
<path d="M0.293 0.504 Q0.436 0.435 0.334 0.350" stroke="hsl(0.0,100%,35%)" stroke-width="0.00079"></path>
<path d="M0.293 0.504 Q0.772 0.517 0.902 0.286" stroke="hsl(0.0,100%,35%)" stroke-width="0.00039"></path>
<path d="M1.896 0.525 Q2.109 0.384 1.881 0.250" stroke="hsl(0.0,100%,35%)" stroke-width="0.05079"></path>
<path d="M1.896 0.525 Q1.880 0.389 1.611 0.368" stroke="hsl(0.0,100%,35%)" stroke-width="0.01417"></path>
<path d="M1.896 0.525 Q1.623 0.368 1.255 0.466" stroke="hsl(0.0,100%,35%)" stroke-width="0.00748"></path>
<path d="M1.896 0.525 Q1.431 0.440 1.162 0.648" stroke="hsl(0.0,100%,35%)" stroke-width="0.00315"></path>
<path d="M1.896 0.525 Q1.329 0.338 0.840 0.574" stroke="hsl(0.0,100%,35%)" stroke-width="0.00394"></path>
<path d="M1.896 0.525 Q1.965 0.347 1.631 0.274" stroke="hsl(0.0,100%,35%)" stroke-width="0.00709"></path>
<path d="M1.896 0.525 Q1.760 0.323 1.335 0.345" stroke="hsl(0.0,100%,35%)" stroke-width="0.00905"></path>
<path d="M1.896 0.525 Q1.936 0.417 1.733 0.373" stroke="hsl(0.0,100%,35%)" stroke-width="0.00157"></path>
<path d="M1.896 0.525 Q1.684 0.470 1.530 0.562" stroke="hsl(0.0,100%,35%)" stroke-width="0.01181"></path>
<path d="M1.896 0.525 Q1.788 0.384 1.489 0.406" stroke="hsl(0.0,100%,35%)" stroke-width="0.00197"></path>
<path d="M1.896 0.525 Q2.007 0.476 1.935 0.411" stroke="hsl(0.0,100%,35%)" stroke-width="0.00039"></path>
<path d="M1.896 0.525 Q1.590 0.207 0.902 0.286" stroke="hsl(0.0,100%,35%)" stroke-width="0.00984"></path>
<path d="M1.896 0.525 Q2.090 0.433 1.953 0.318" stroke="hsl(0.0,100%,35%)" stroke-width="0.00079"></path>
<path d="M1.896 0.525 Q1.752 0.392 1.461 0.433" stroke="hsl(0.0,100%,35%)" stroke-width="0.00039"></path>
<path d="M1.896 0.525 Q1.587 0.545 1.556 0.700" stroke="hsl(0.0,100%,35%)" stroke-width="0.00039"></path>
<path d="M1.896 0.525 Q1.323 0.374 0.902 0.620" stroke="hsl(0.0,100%,35%)" stroke-width="0.00039"></path>
<path d="M1.896 0.525 Q1.800 0.616 1.955 0.682" stroke="hsl(0.0,100%,35%)" stroke-width="0.00079"></path>
<path d="M1.896 0.525 Q1.302 0.228 0.591 0.452" stroke="hsl(0.0,100%,35%)" stroke-width="0.00039"></path>
<path d="M1.896 0.525 Q1.801 0.525 1.780 0.572" stroke="hsl(0.0,100%,35%)" stroke-width="0.00039"></path>
<path d="M1.935 0.411 Q2.037 0.319 1.881 0.250" stroke="hsl(0.0,100%,35%)" stroke-width="0.00394"></path>
<path d="M1.935 0.411 Q1.751 0.377 1.645 0.459" stroke="hsl(0.0,100%,35%)" stroke-width="0.00039"></path>
<path d="M1.935 0.411 Q1.551 0.302 1.255 0.466" stroke="hsl(0.0,100%,35%)" stroke-width="0.00039"></path>
<path d="M1.935 0.411 Q1.893 0.281 1.631 0.274" stroke="hsl(0.0,100%,35%)" stroke-width="0.00079"></path>
<path d="M1.935 0.411 Q1.824 0.460 1.896 0.525" stroke="hsl(0.0,100%,35%)" stroke-width="0.00197"></path>
<path d="M1.935 0.411 Q1.864 0.352 1.733 0.373" stroke="hsl(0.0,100%,35%)" stroke-width="0.00039"></path>
<path d="M1.645 0.459 Q1.931 0.402 1.881 0.250" stroke="hsl(0.0,100%,35%)" stroke-width="0.00079"></path>
<path d="M1.645 0.459 Q1.701 0.407 1.611 0.368" stroke="hsl(0.0,100%,35%)" stroke-width="0.00039"></path>
<path d="M1.645 0.459 Q1.444 0.385 1.255 0.466" stroke="hsl(0.0,100%,35%)" stroke-width="0.00039"></path>
<path d="M1.255 0.466 Q1.456 0.541 1.645 0.459" stroke="hsl(0.0,100%,35%)" stroke-width="0.00039"></path>
<path d="M1.255 0.466 Q1.741 0.483 1.881 0.250" stroke="hsl(0.0,100%,35%)" stroke-width="0.01575"></path>
<path d="M1.255 0.466 Q1.063 0.539 1.162 0.648" stroke="hsl(0.0,100%,35%)" stroke-width="0.00551"></path>
<path d="M1.255 0.466 Q1.512 0.488 1.611 0.368" stroke="hsl(0.0,100%,35%)" stroke-width="0.00197"></path>
<path d="M1.255 0.466 Q1.528 0.624 1.896 0.525" stroke="hsl(0.0,100%,35%)" stroke-width="0.00551"></path>
<path d="M1.255 0.466 Q1.392 0.422 1.335 0.345" stroke="hsl(0.0,100%,35%)" stroke-width="0.00079"></path>
<path d="M1.255 0.466 Q1.597 0.445 1.631 0.274" stroke="hsl(0.0,100%,35%)" stroke-width="0.00039"></path>
<path d="M1.255 0.466 Q1.222 0.306 0.902 0.286" stroke="hsl(0.0,100%,35%)" stroke-width="0.00079"></path>
<path d="M1.255 0.466 Q1.384 0.491 1.461 0.433" stroke="hsl(0.0,100%,35%)" stroke-width="0.00039"></path>
<path d="M1.255 0.466 Q1.234 0.781 1.845 0.860" stroke="hsl(0.0,100%,35%)" stroke-width="0.00039"></path>
<path d="M1.255 0.466 Q1.316 0.569 1.530 0.562" stroke="hsl(0.0,100%,35%)" stroke-width="0.00118"></path>
<path d="M1.255 0.466 Q1.127 0.708 1.571 0.823" stroke="hsl(0.0,100%,35%)" stroke-width="0.00039"></path>
<path d="M1.631 0.274 Q1.097 0.367 1.162 0.648" stroke="hsl(0.0,100%,35%)" stroke-width="0.00315"></path>
<path d="M1.631 0.274 Q1.775 0.312 1.881 0.250" stroke="hsl(0.0,100%,35%)" stroke-width="0.01102"></path>
<path d="M1.631 0.274 Q1.350 0.397 1.530 0.562" stroke="hsl(0.0,100%,35%)" stroke-width="0.00118"></path>
<path d="M1.631 0.274 Q1.562 0.452 1.896 0.525" stroke="hsl(0.0,100%,35%)" stroke-width="0.00157"></path>
<path d="M1.631 0.274 Q0.996 0.265 0.840 0.574" stroke="hsl(0.0,100%,35%)" stroke-width="0.00079"></path>
<path d="M1.631 0.274 Q1.289 0.295 1.255 0.466" stroke="hsl(0.0,100%,35%)" stroke-width="0.00039"></path>
<path d="M1.631 0.274 Q1.546 0.317 1.611 0.368" stroke="hsl(0.0,100%,35%)" stroke-width="0.00197"></path>
<path d="M1.631 0.274 Q1.426 0.250 1.335 0.345" stroke="hsl(0.0,100%,35%)" stroke-width="0.00039"></path>
<path d="M1.631 0.274 Q1.555 0.373 1.733 0.433" stroke="hsl(0.0,100%,35%)" stroke-width="0.00079"></path>
<path d="M1.631 0.274 Q1.257 0.134 0.902 0.286" stroke="hsl(0.0,100%,35%)" stroke-width="0.00079"></path>
<path d="M1.733 0.373 Q1.905 0.341 1.881 0.250" stroke="hsl(0.0,100%,35%)" stroke-width="0.00709"></path>
<path d="M1.733 0.373 Q1.693 0.482 1.896 0.525" stroke="hsl(0.0,100%,35%)" stroke-width="0.00354"></path>
<path d="M1.733 0.373 Q1.228 0.397 1.162 0.648" stroke="hsl(0.0,100%,35%)" stroke-width="0.00039"></path>
<path d="M1.733 0.373 Q1.762 0.303 1.631 0.274" stroke="hsl(0.0,100%,35%)" stroke-width="0.00039"></path>
<path d="M1.733 0.373 Q1.419 0.324 1.255 0.466" stroke="hsl(0.0,100%,35%)" stroke-width="0.00039"></path>
<path d="M1.733 0.373 Q1.387 0.164 0.902 0.286" stroke="hsl(0.0,100%,35%)" stroke-width="0.00236"></path>
<path d="M1.602 0.326 Q1.803 0.344 1.881 0.250" stroke="hsl(0.0,100%,35%)" stroke-width="0.00079"></path>
<path d="M1.602 0.326 Q1.378 0.430 1.530 0.562" stroke="hsl(0.0,100%,35%)" stroke-width="0.00039"></path>
<path d="M1.602 0.326 Q1.453 0.282 1.335 0.345" stroke="hsl(0.0,100%,35%)" stroke-width="0.00039"></path>
<path d="M1.530 0.562 Q1.955 0.476 1.881 0.250" stroke="hsl(0.0,100%,35%)" stroke-width="0.01024"></path>
<path d="M1.530 0.562 Q1.277 0.531 1.162 0.648" stroke="hsl(0.0,100%,35%)" stroke-width="0.00039"></path>
<path d="M1.530 0.562 Q1.742 0.617 1.896 0.525" stroke="hsl(0.0,100%,35%)" stroke-width="0.00315"></path>
<path d="M1.530 0.562 Q1.437 0.299 0.902 0.286" stroke="hsl(0.0,100%,35%)" stroke-width="0.00236"></path>
<path d="M1.530 0.562 Q1.469 0.459 1.255 0.466" stroke="hsl(0.0,100%,35%)" stroke-width="0.00039"></path>
<path d="M1.335 0.345 Q1.684 0.407 1.881 0.250" stroke="hsl(0.0,100%,35%)" stroke-width="0.01575"></path>
<path d="M1.335 0.345 Q1.166 0.229 0.902 0.286" stroke="hsl(0.0,100%,35%)" stroke-width="0.01614"></path>
<path d="M1.335 0.345 Q1.472 0.548 1.896 0.525" stroke="hsl(0.0,100%,35%)" stroke-width="0.00551"></path>
<path d="M1.335 0.345 Q0.940 0.218 0.605 0.383" stroke="hsl(0.0,100%,35%)" stroke-width="0.00079"></path>
<path d="M1.335 0.345 Q1.178 0.705 1.845 0.860" stroke="hsl(0.0,100%,35%)" stroke-width="0.00039"></path>
<path d="M1.335 0.345 Q1.259 0.493 1.530 0.562" stroke="hsl(0.0,100%,35%)" stroke-width="0.00197"></path>
<path d="M1.335 0.345 Q1.079 0.158 0.658 0.242" stroke="hsl(0.0,100%,35%)" stroke-width="0.00039"></path>
<path d="M1.611 0.368 Q1.697 0.325 1.631 0.274" stroke="hsl(0.0,100%,35%)" stroke-width="0.00276"></path>
<path d="M1.611 0.368 Q1.840 0.363 1.881 0.250" stroke="hsl(0.0,100%,35%)" stroke-width="0.01417"></path>
<path d="M1.611 0.368 Q1.162 0.418 1.162 0.648" stroke="hsl(0.0,100%,35%)" stroke-width="0.00709"></path>
<path d="M1.611 0.368 Q1.628 0.504 1.896 0.525" stroke="hsl(0.0,100%,35%)" stroke-width="0.00591"></path>
<path d="M1.611 0.368 Q1.354 0.346 1.255 0.466" stroke="hsl(0.0,100%,35%)" stroke-width="0.00236"></path>
<path d="M1.611 0.368 Q1.322 0.185 0.902 0.286" stroke="hsl(0.0,100%,35%)" stroke-width="0.00512"></path>
<path d="M1.611 0.368 Q1.415 0.449 1.530 0.562" stroke="hsl(0.0,100%,35%)" stroke-width="0.00197"></path>
<path d="M1.611 0.368 Q1.061 0.317 0.840 0.574" stroke="hsl(0.0,100%,35%)" stroke-width="0.00039"></path>
<path d="M0.858 0.365 Q1.249 0.653 1.896 0.525" stroke="hsl(0.0,100%,35%)" stroke-width="0.00157"></path>
<path d="M0.858 0.365 Q0.943 0.334 0.902 0.286" stroke="hsl(0.0,100%,35%)" stroke-width="0.00787"></path>
<path d="M0.858 0.365 Q1.462 0.512 1.881 0.250" stroke="hsl(0.0,100%,35%)" stroke-width="0.00709"></path>
<path d="M0.858 0.365 Q1.112 0.451 1.335 0.345" stroke="hsl(0.0,100%,35%)" stroke-width="0.00118"></path>
<path d="M1.162 0.648 Q1.696 0.555 1.631 0.274" stroke="hsl(0.0,100%,35%)" stroke-width="0.00157"></path>
<path d="M1.162 0.648 Q1.611 0.598 1.611 0.368" stroke="hsl(0.0,100%,35%)" stroke-width="0.00118"></path>
<path d="M1.162 0.648 Q1.354 0.576 1.255 0.466" stroke="hsl(0.0,100%,35%)" stroke-width="0.00394"></path>
<path d="M1.162 0.648 Q1.322 0.415 0.902 0.286" stroke="hsl(0.0,100%,35%)" stroke-width="0.00472"></path>
<path d="M1.162 0.648 Q1.840 0.593 1.881 0.250" stroke="hsl(0.0,100%,35%)" stroke-width="0.00945"></path>
<path d="M1.162 0.648 Q1.627 0.734 1.896 0.525" stroke="hsl(0.0,100%,35%)" stroke-width="0.00354"></path>
<path d="M1.162 0.648 Q1.061 0.547 0.840 0.574" stroke="hsl(0.0,100%,35%)" stroke-width="0.00118"></path>
<path d="M1.162 0.648 Q1.030 0.866 1.427 0.978" stroke="hsl(0.0,100%,35%)" stroke-width="0.00039"></path>
<path d="M0.840 0.574 Q1.620 0.620 1.881 0.250" stroke="hsl(0.0,100%,35%)" stroke-width="0.00709"></path>
<path d="M0.840 0.574 Q1.407 0.761 1.896 0.525" stroke="hsl(0.0,100%,35%)" stroke-width="0.00394"></path>
<path d="M0.840 0.574 Q0.942 0.675 1.162 0.648" stroke="hsl(0.0,100%,35%)" stroke-width="0.00591"></path>
<path d="M0.840 0.574 Q1.476 0.582 1.631 0.274" stroke="hsl(0.0,100%,35%)" stroke-width="0.00354"></path>
<path d="M0.840 0.574 Q1.134 0.603 1.255 0.466" stroke="hsl(0.0,100%,35%)" stroke-width="0.00079"></path>
<path d="M0.840 0.574 Q1.101 0.442 0.902 0.286" stroke="hsl(0.0,100%,35%)" stroke-width="0.00197"></path>
<path d="M0.840 0.574 Q1.447 0.652 1.733 0.373" stroke="hsl(0.0,100%,35%)" stroke-width="0.00039"></path>
<path d="M0.840 0.574 Q1.194 0.706 1.530 0.562" stroke="hsl(0.0,100%,35%)" stroke-width="0.00118"></path>
<path d="M1.427 0.978 Q1.730 1.003 1.845 0.860" stroke="hsl(0.0,100%,35%)" stroke-width="0.00276"></path>
<path d="M1.427 0.978 Q1.718 0.527 0.902 0.286" stroke="hsl(0.0,100%,35%)" stroke-width="0.00433"></path>
<path d="M1.427 0.978 Q1.887 0.643 1.335 0.345" stroke="hsl(0.0,100%,35%)" stroke-width="0.00079"></path>
<path d="M1.427 0.978 Q2.236 0.705 1.881 0.250" stroke="hsl(0.0,100%,35%)" stroke-width="0.00512"></path>
<path d="M1.427 0.978 Q2.024 0.846 1.896 0.525" stroke="hsl(0.0,100%,35%)" stroke-width="0.00079"></path>
<path d="M0.605 0.383 Q1.000 0.510 1.335 0.345" stroke="hsl(0.0,100%,35%)" stroke-width="0.00039"></path>
<path d="M0.605 0.383 Q0.831 0.394 0.902 0.286" stroke="hsl(0.0,100%,35%)" stroke-width="0.00079"></path>
<path d="M0.605 0.383 Q1.350 0.572 1.881 0.250" stroke="hsl(0.0,100%,35%)" stroke-width="0.00079"></path>
<path d="M1.908 0.300 Q1.934 0.269 1.881 0.250" stroke="hsl(0.0,100%,35%)" stroke-width="0.00039"></path>
<path d="M1.908 0.300 Q1.155 0.223 0.840 0.574" stroke="hsl(0.0,100%,35%)" stroke-width="0.00039"></path>
<path d="M1.908 0.300 Q1.416 0.092 0.902 0.286" stroke="hsl(0.0,100%,35%)" stroke-width="0.00039"></path>
<path d="M1.890 0.359 Q1.760 0.443 1.896 0.525" stroke="hsl(0.0,100%,35%)" stroke-width="0.00433"></path>
<path d="M1.890 0.359 Q1.295 0.358 1.162 0.648" stroke="hsl(0.0,100%,35%)" stroke-width="0.00276"></path>
<path d="M1.890 0.359 Q1.973 0.302 1.881 0.250" stroke="hsl(0.0,100%,35%)" stroke-width="0.00669"></path>
<path d="M1.890 0.359 Q1.744 0.307 1.611 0.368" stroke="hsl(0.0,100%,35%)" stroke-width="0.00039"></path>
<path d="M1.890 0.359 Q1.454 0.125 0.902 0.286" stroke="hsl(0.0,100%,35%)" stroke-width="0.00039"></path>
<path d="M1.796 0.620 Q2.134 0.452 1.881 0.250" stroke="hsl(0.0,100%,35%)" stroke-width="0.00079"></path>
<path d="M1.796 0.620 Q1.355 0.406 0.840 0.574" stroke="hsl(0.0,100%,35%)" stroke-width="0.00039"></path>
<path d="M1.796 0.620 Q1.921 0.593 1.896 0.525" stroke="hsl(0.0,100%,35%)" stroke-width="0.00157"></path>
<path d="M1.620 0.444 Q1.906 0.399 1.881 0.250" stroke="hsl(0.0,100%,35%)" stroke-width="0.00394"></path>
<path d="M1.620 0.444 Q1.621 0.457 1.645 0.459" stroke="hsl(0.0,100%,35%)" stroke-width="0.00039"></path>
<path d="M1.620 0.444 Q1.388 0.222 0.902 0.286" stroke="hsl(0.0,100%,35%)" stroke-width="0.00039"></path>
<path d="M1.620 0.444 Q1.693 0.540 1.896 0.525" stroke="hsl(0.0,100%,35%)" stroke-width="0.00079"></path>
<path d="M1.237 0.834 Q2.026 0.671 1.881 0.250" stroke="hsl(0.0,100%,35%)" stroke-width="0.00039"></path>
<path d="M1.237 0.834 Q1.520 0.969 1.845 0.860" stroke="hsl(0.0,100%,35%)" stroke-width="0.00039"></path>
<path d="M1.461 0.433 Q1.818 0.426 1.881 0.250" stroke="hsl(0.0,100%,35%)" stroke-width="0.00236"></path>
<path d="M1.461 0.433 Q1.299 0.248 0.902 0.286" stroke="hsl(0.0,100%,35%)" stroke-width="0.00157"></path>
<path d="M1.461 0.433 Q1.332 0.409 1.255 0.466" stroke="hsl(0.0,100%,35%)" stroke-width="0.00039"></path>
<path d="M1.845 0.860 Q1.833 0.385 0.902 0.286" stroke="hsl(0.0,100%,35%)" stroke-width="0.00157"></path>
<path d="M1.845 0.860 Q2.139 0.703 1.896 0.525" stroke="hsl(0.0,100%,35%)" stroke-width="0.00118"></path>
<path d="M1.845 0.860 Q2.002 0.501 1.335 0.345" stroke="hsl(0.0,100%,35%)" stroke-width="0.00079"></path>
<path d="M1.845 0.860 Q2.351 0.562 1.881 0.250" stroke="hsl(0.0,100%,35%)" stroke-width="0.00157"></path>
<path d="M1.845 0.860 Q1.542 0.836 1.427 0.978" stroke="hsl(0.0,100%,35%)" stroke-width="0.00079"></path>
<path d="M1.845 0.860 Q1.738 0.787 1.571 0.823" stroke="hsl(0.0,100%,35%)" stroke-width="0.00039"></path>
<path d="M1.953 0.318 Q1.971 0.269 1.881 0.250" stroke="hsl(0.0,100%,35%)" stroke-width="0.01299"></path>
<path d="M1.953 0.318 Q1.759 0.410 1.896 0.525" stroke="hsl(0.0,100%,35%)" stroke-width="0.00276"></path>
<path d="M1.953 0.318 Q1.453 0.092 0.902 0.286" stroke="hsl(0.0,100%,35%)" stroke-width="0.00315"></path>
<path d="M1.953 0.318 Q1.828 0.231 1.631 0.274" stroke="hsl(0.0,100%,35%)" stroke-width="0.00039"></path>
<path d="M1.489 0.406 Q1.809 0.406 1.881 0.250" stroke="hsl(0.0,100%,35%)" stroke-width="0.00433"></path>
<path d="M1.489 0.406 Q1.291 0.229 0.902 0.286" stroke="hsl(0.0,100%,35%)" stroke-width="0.00276"></path>
<path d="M1.489 0.406 Q1.065 0.218 0.605 0.383" stroke="hsl(0.0,100%,35%)" stroke-width="0.00039"></path>
<path d="M0.658 0.242 Q0.454 0.764 1.427 0.978" stroke="hsl(0.0,100%,35%)" stroke-width="0.00039"></path>
<path d="M0.658 0.242 Q0.745 0.313 0.902 0.286" stroke="hsl(0.0,100%,35%)" stroke-width="0.00394"></path>
<path d="M0.658 0.242 Q0.757 0.789 1.845 0.860" stroke="hsl(0.0,100%,35%)" stroke-width="0.00118"></path>
<path d="M0.658 0.242 Q1.263 0.490 1.881 0.250" stroke="hsl(0.0,100%,35%)" stroke-width="0.00354"></path>
<path d="M0.658 0.242 Q0.914 0.429 1.335 0.345" stroke="hsl(0.0,100%,35%)" stroke-width="0.00039"></path>
<path d="M0.591 0.452 Q1.225 0.641 1.733 0.373" stroke="hsl(0.0,100%,35%)" stroke-width="0.00079"></path>
<path d="M0.591 0.452 Q1.185 0.750 1.896 0.525" stroke="hsl(0.0,100%,35%)" stroke-width="0.00079"></path>
<path d="M0.591 0.452 Q1.398 0.609 1.881 0.250" stroke="hsl(0.0,100%,35%)" stroke-width="0.00157"></path>
<path d="M0.591 0.452 Q1.254 0.571 1.631 0.274" stroke="hsl(0.0,100%,35%)" stroke-width="0.00039"></path>
<path d="M0.591 0.452 Q0.879 0.431 0.902 0.286" stroke="hsl(0.0,100%,35%)" stroke-width="0.00079"></path>
<path d="M1.933 0.326 Q1.968 0.277 1.881 0.250" stroke="hsl(0.0,100%,35%)" stroke-width="0.00197"></path>
<path d="M1.933 0.326 Q1.290 0.333 1.162 0.648" stroke="hsl(0.0,100%,35%)" stroke-width="0.00039"></path>
<path d="M1.933 0.326 Q1.795 0.309 1.733 0.373" stroke="hsl(0.0,100%,35%)" stroke-width="0.00079"></path>
<path d="M1.933 0.326 Q1.449 0.100 0.902 0.286" stroke="hsl(0.0,100%,35%)" stroke-width="0.00079"></path>
<path d="M1.848 0.424 Q1.654 0.282 1.335 0.345" stroke="hsl(0.0,100%,35%)" stroke-width="0.00039"></path>
<path d="M1.848 0.424 Q1.485 0.166 0.902 0.286" stroke="hsl(0.0,100%,35%)" stroke-width="0.00197"></path>
<path d="M1.848 0.424 Q2.004 0.344 1.881 0.250" stroke="hsl(0.0,100%,35%)" stroke-width="0.00276"></path>
<path d="M1.848 0.424 Q1.791 0.484 1.896 0.525" stroke="hsl(0.0,100%,35%)" stroke-width="0.00039"></path>
<path d="M1.848 0.424 Q1.497 0.642 1.845 0.860" stroke="hsl(0.0,100%,35%)" stroke-width="0.00079"></path>
<path d="M1.848 0.424 Q1.578 0.429 1.530 0.562" stroke="hsl(0.0,100%,35%)" stroke-width="0.00039"></path>
<path d="M1.763 0.430 Q1.966 0.364 1.881 0.250" stroke="hsl(0.0,100%,35%)" stroke-width="0.00197"></path>
<path d="M1.763 0.430 Q1.448 0.186 0.902 0.286" stroke="hsl(0.0,100%,35%)" stroke-width="0.00079"></path>
<path d="M1.030 0.823 Q1.701 0.847 1.896 0.525" stroke="hsl(0.0,100%,35%)" stroke-width="0.00039"></path>
<path d="M1.030 0.823 Q1.407 1.005 1.845 0.860" stroke="hsl(0.0,100%,35%)" stroke-width="0.00039"></path>
<path d="M1.030 0.823 Q1.124 0.870 1.237 0.834" stroke="hsl(0.0,100%,35%)" stroke-width="0.00039"></path>
<path d="M1.789 0.386 Q1.944 0.336 1.881 0.250" stroke="hsl(0.0,100%,35%)" stroke-width="0.00630"></path>
<path d="M1.789 0.386 Q1.425 0.159 0.902 0.286" stroke="hsl(0.0,100%,35%)" stroke-width="0.00197"></path>
<path d="M1.789 0.386 Q1.594 0.275 1.335 0.345" stroke="hsl(0.0,100%,35%)" stroke-width="0.00315"></path>
<path d="M1.119 0.343 Q1.574 0.449 1.881 0.250" stroke="hsl(0.0,100%,35%)" stroke-width="0.00157"></path>
<path d="M1.119 0.343 Q1.225 0.387 1.335 0.345" stroke="hsl(0.0,100%,35%)" stroke-width="0.00157"></path>
<path d="M1.119 0.343 Q1.068 0.747 1.845 0.860" stroke="hsl(0.0,100%,35%)" stroke-width="0.00039"></path>
<path d="M1.918 0.344 Q1.488 0.272 1.255 0.466" stroke="hsl(0.0,100%,35%)" stroke-width="0.00354"></path>
<path d="M1.918 0.344 Q1.975 0.289 1.881 0.250" stroke="hsl(0.0,100%,35%)" stroke-width="0.00945"></path>
<path d="M1.918 0.344 Q1.456 0.112 0.902 0.286" stroke="hsl(0.0,100%,35%)" stroke-width="0.00039"></path>
<path d="M1.918 0.344 Q1.762 0.430 1.896 0.525" stroke="hsl(0.0,100%,35%)" stroke-width="0.00039"></path>
<path d="M1.918 0.344 Q1.745 0.294 1.611 0.368" stroke="hsl(0.0,100%,35%)" stroke-width="0.00079"></path>
<path d="M1.918 0.344 Q1.195 0.243 0.840 0.574" stroke="hsl(0.0,100%,35%)" stroke-width="0.00039"></path>
<path d="M0.522 0.227 Q0.665 0.333 0.902 0.286" stroke="hsl(0.0,100%,35%)" stroke-width="0.00236"></path>
<path d="M0.522 0.227 Q0.330 0.251 0.334 0.350" stroke="hsl(0.0,100%,35%)" stroke-width="0.00118"></path>
<path d="M0.522 0.227 Q1.184 0.510 1.881 0.250" stroke="hsl(0.0,100%,35%)" stroke-width="0.00157"></path>
<path d="M1.491 0.304 Q1.517 0.496 1.896 0.525" stroke="hsl(0.0,100%,35%)" stroke-width="0.00079"></path>
<path d="M1.491 0.304 Q1.211 0.177 0.902 0.286" stroke="hsl(0.0,100%,35%)" stroke-width="0.00039"></path>
<path d="M1.491 0.304 Q1.729 0.355 1.881 0.250" stroke="hsl(0.0,100%,35%)" stroke-width="0.00039"></path>
<path d="M0.902 0.620 Q1.688 0.631 1.881 0.250" stroke="hsl(0.0,100%,35%)" stroke-width="0.00118"></path>
<path d="M0.902 0.620 Q0.908 0.585 0.840 0.574" stroke="hsl(0.0,100%,35%)" stroke-width="0.00157"></path>
<path d="M0.902 0.620 Q1.544 0.593 1.631 0.274" stroke="hsl(0.0,100%,35%)" stroke-width="0.00039"></path>
<path d="M1.716 0.679 Q2.141 0.497 1.881 0.250" stroke="hsl(0.0,100%,35%)" stroke-width="0.00079"></path>
<path d="M1.716 0.679 Q1.929 0.638 1.896 0.525" stroke="hsl(0.0,100%,35%)" stroke-width="0.00118"></path>
<path d="M1.716 0.679 Q1.635 0.795 1.845 0.860" stroke="hsl(0.0,100%,35%)" stroke-width="0.00039"></path>
<path d="M1.716 0.679 Q1.821 0.497 1.489 0.406" stroke="hsl(0.0,100%,35%)" stroke-width="0.00079"></path>
<path d="M1.716 0.679 Q1.623 0.320 0.902 0.286" stroke="hsl(0.0,100%,35%)" stroke-width="0.00039"></path>
</g>
<text x="0.545" y="0.969" font-size="0.012860" fill="hsl(0.0,100%,20%)">aleino</text>
<text x="1.881" y="0.198" font-size="0.103415" fill="hsl(0.0,100%,20%)">jmadill</text>
<text x="0.902" y="0.254" font-size="0.064727" fill="hsl(0.0,100%,20%)">geofflang</text>
<text x="0.584" y="0.817" font-size="0.006641" fill="hsl(0.0,100%,20%)">kkinnunen</text>
<text x="0.293" y="0.500" font-size="0.007425" fill="hsl(0.0,100%,20%)">artyom</text>
<text x="1.896" y="0.487" font-size="0.075791" fill="hsl(0.0,100%,20%)">syoussefi</text>
<text x="0.334" y="0.346" font-size="0.008133" fill="hsl(0.0,100%,20%)">rafael.cintron</text>
<text x="1.935" y="0.403" font-size="0.015216" fill="hsl(0.0,100%,20%)">b.schade</text>
<text x="1.645" y="0.455" font-size="0.008785" fill="hsl(0.0,100%,20%)">cclao</text>
<text x="1.255" y="0.445" font-size="0.042262" fill="hsl(0.0,100%,20%)">tobine</text>
<text x="1.631" y="0.254" font-size="0.038723" fill="hsl(0.0,100%,20%)">cnorthrop</text>
<text x="1.733" y="0.362" font-size="0.022520" fill="hsl(0.0,100%,20%)">m.maiya</text>
<text x="1.602" y="0.323" font-size="0.006641" fill="hsl(0.0,100%,20%)">bsheedy</text>
<text x="1.530" y="0.542" font-size="0.040667" fill="hsl(0.0,100%,20%)">ynovikov</text>
<text x="1.335" y="0.320" font-size="0.051118" fill="hsl(0.0,100%,20%)">jonahr</text>
<text x="1.611" y="0.344" font-size="0.047542" fill="hsl(0.0,100%,20%)">timvp</text>
<text x="0.858" y="0.354" font-size="0.023005" fill="hsl(0.0,100%,20%)">clemendeng</text>
<text x="1.162" y="0.627" font-size="0.042132" fill="hsl(0.0,100%,20%)">courtneygo</text>
<text x="0.840" y="0.558" font-size="0.032193" fill="hsl(0.0,100%,20%)">ianelliott</text>
<text x="1.733" y="0.430" font-size="0.005751" fill="hsl(0.0,100%,20%)">lfy</text>
<text x="1.427" y="0.967" font-size="0.021261" fill="hsl(0.0,100%,20%)">jdarpinian</text>
<text x="0.605" y="0.377" font-size="0.012424" fill="hsl(0.0,100%,20%)">cwallez</text>
<text x="1.908" y="0.297" font-size="0.005751" fill="hsl(0.0,100%,20%)">davidben</text>
<text x="1.890" y="0.349" font-size="0.020469" fill="hsl(0.0,100%,20%)">dongja</text>
<text x="1.796" y="0.615" font-size="0.008785" fill="hsl(0.0,100%,20%)">ericbinet</text>
<text x="1.620" y="0.438" font-size="0.012860" fill="hsl(0.0,100%,20%)">flibitijibibo</text>
<text x="1.237" y="0.830" font-size="0.006641" fill="hsl(0.0,100%,20%)">zmo</text>
<text x="1.461" y="0.427" font-size="0.013282" fill="hsl(0.0,100%,20%)">sugoi</text>
<text x="1.845" y="0.850" font-size="0.021000" fill="hsl(0.0,100%,20%)">kbr</text>
<text x="1.953" y="0.306" font-size="0.024173" fill="hsl(0.0,100%,20%)">spang</text>
<text x="1.489" y="0.397" font-size="0.017254" fill="hsl(0.0,100%,20%)">jiajia.qin</text>
<text x="0.658" y="0.234" font-size="0.016931" fill="hsl(0.0,100%,20%)">shrekshao</text>
<text x="0.591" y="0.446" font-size="0.011502" fill="hsl(0.0,100%,20%)">hckim.kim</text>
<text x="1.933" y="0.320" font-size="0.010500" fill="hsl(0.0,100%,20%)">j.vigil</text>
<text x="1.848" y="0.417" font-size="0.013691" fill="hsl(0.0,100%,20%)">jgilbert</text>
<text x="1.763" y="0.426" font-size="0.008785" fill="hsl(0.0,100%,20%)">jie.a.chen</text>
<text x="1.610" y="0.080" font-size="0.003320" fill="hsl(0.0,100%,20%)">amaiorano</text>
<text x="1.507" y="-0.715" font-size="0.003320" fill="hsl(0.0,100%,20%)">le.hoang.q</text>
<text x="1.505" y="0.407" font-size="0.003320" fill="hsl(0.0,100%,20%)">brucedawson</text>
<text x="1.571" y="0.821" font-size="0.004696" fill="hsl(0.0,100%,20%)">kainino</text>
<text x="1.030" y="0.820" font-size="0.005751" fill="hsl(0.0,100%,20%)">khushalsagar</text>
<text x="1.789" y="0.377" font-size="0.017881" fill="hsl(0.0,100%,20%)">lehoangq</text>
<text x="1.119" y="0.338" font-size="0.009961" fill="hsl(0.0,100%,20%)">lexa.knyazev</text>
<text x="1.918" y="0.333" font-size="0.020469" fill="hsl(0.0,100%,20%)">lujc</text>
<text x="0.522" y="0.222" font-size="0.011972" fill="hsl(0.0,100%,20%)">mihu</text>
<text x="1.491" y="0.301" font-size="0.006641" fill="hsl(0.0,100%,20%)">shaobo.yan</text>
<text x="1.556" y="0.698" font-size="0.003320" fill="hsl(0.0,100%,20%)">jaedon1.lee</text>
<text x="0.902" y="0.615" font-size="0.009961" fill="hsl(0.0,100%,20%)">xinyi.he</text>
<text x="1.955" y="0.680" font-size="0.004696" fill="hsl(0.0,100%,20%)">sunny.sun</text>
<text x="1.780" y="0.570" font-size="0.003320" fill="hsl(0.0,100%,20%)">fei.yang</text>
<text x="1.716" y="0.674" font-size="0.009961" fill="hsl(0.0,100%,20%)">xinghua.cao</text>
</svg>
