<svg width="4000" height="2000" viewBox="-0.025 -0.025 2.05 1.05" xmlns="http://www.w3.org/2000/svg">
  <style>
    path {
      fill: none;
      stroke-linecap: round;
      stroke-opacity: 0.4;
    }

    text {
      text-anchor: middle;
      alignment-baseline: hanging;
    }
  </style>
  <g opacity="0.4">
<path d="M1.223 0.717 Q1.071 0.625 0.857 0.679" stroke="hsl(0.0,100%,35%)" stroke-width="0.01896"></path>
<path d="M1.223 0.717 Q1.164 0.520 0.766 0.506" stroke="hsl(0.0,100%,35%)" stroke-width="0.01551"></path>
<path d="M1.223 0.717 Q1.317 0.312 0.548 0.177" stroke="hsl(0.0,100%,35%)" stroke-width="0.00129"></path>
<path d="M1.223 0.717 Q1.504 0.624 1.384 0.467" stroke="hsl(0.0,100%,35%)" stroke-width="0.00043"></path>
<path d="M1.223 0.717 Q1.152 0.375 0.470 0.335" stroke="hsl(0.0,100%,35%)" stroke-width="0.00172"></path>
<path d="M0.857 0.679 Q0.719 0.738 0.805 0.819" stroke="hsl(0.0,100%,35%)" stroke-width="0.03317"></path>
<path d="M0.857 0.679 Q1.302 0.788 1.612 0.595" stroke="hsl(0.0,100%,35%)" stroke-width="0.03490"></path>
<path d="M0.857 0.679 Q0.950 0.574 0.766 0.506" stroke="hsl(0.0,100%,35%)" stroke-width="0.04954"></path>
<path d="M0.857 0.679 Q1.103 0.366 0.548 0.177" stroke="hsl(0.0,100%,35%)" stroke-width="0.01551"></path>
<path d="M0.857 0.679 Q1.110 0.591 0.994 0.448" stroke="hsl(0.0,100%,35%)" stroke-width="0.00215"></path>
<path d="M0.857 0.679 Q1.249 0.912 1.790 0.772" stroke="hsl(0.0,100%,35%)" stroke-width="0.00043"></path>
<path d="M0.857 0.679 Q0.938 0.429 0.470 0.335" stroke="hsl(0.0,100%,35%)" stroke-width="0.00388"></path>
<path d="M0.857 0.679 Q0.794 0.847 1.108 0.915" stroke="hsl(0.0,100%,35%)" stroke-width="0.00086"></path>
<path d="M0.857 0.679 Q1.187 0.546 1.001 0.356" stroke="hsl(0.0,100%,35%)" stroke-width="0.00431"></path>
<path d="M0.857 0.679 Q0.867 0.750 1.009 0.760" stroke="hsl(0.0,100%,35%)" stroke-width="0.00732"></path>
<path d="M0.857 0.679 Q1.487 0.830 1.920 0.555" stroke="hsl(0.0,100%,35%)" stroke-width="0.00086"></path>
<path d="M0.857 0.679 Q1.009 0.771 1.223 0.717" stroke="hsl(0.0,100%,35%)" stroke-width="0.00345"></path>
<path d="M0.857 0.679 Q0.859 0.357 0.232 0.285" stroke="hsl(0.0,100%,35%)" stroke-width="0.00086"></path>
<path d="M0.857 0.679 Q1.057 0.694 1.131 0.600" stroke="hsl(0.0,100%,35%)" stroke-width="0.00043"></path>
<path d="M0.857 0.679 Q0.884 0.597 0.731 0.566" stroke="hsl(0.0,100%,35%)" stroke-width="0.00388"></path>
<path d="M0.857 0.679 Q1.096 0.636 1.065 0.510" stroke="hsl(0.0,100%,35%)" stroke-width="0.00043"></path>
<path d="M0.857 0.679 Q1.696 0.698 1.917 0.293" stroke="hsl(0.0,100%,35%)" stroke-width="0.00215"></path>
<path d="M0.857 0.679 Q0.417 0.691 0.344 0.908" stroke="hsl(0.0,100%,35%)" stroke-width="0.00043"></path>
<path d="M0.857 0.679 Q0.960 0.804 1.227 0.781" stroke="hsl(0.0,100%,35%)" stroke-width="0.00043"></path>
<path d="M0.766 0.506 Q0.674 0.611 0.857 0.679" stroke="hsl(0.0,100%,35%)" stroke-width="0.04179"></path>
<path d="M0.766 0.506 Q0.826 0.703 1.223 0.717" stroke="hsl(0.0,100%,35%)" stroke-width="0.00215"></path>
<path d="M0.766 0.506 Q0.927 0.523 0.994 0.448" stroke="hsl(0.0,100%,35%)" stroke-width="0.00129"></path>
<path d="M0.766 0.506 Q0.720 0.417 0.536 0.420" stroke="hsl(0.0,100%,35%)" stroke-width="0.00905"></path>
<path d="M0.766 0.506 Q0.535 0.670 0.805 0.819" stroke="hsl(0.0,100%,35%)" stroke-width="0.01120"></path>
<path d="M0.766 0.506 Q0.920 0.298 0.548 0.177" stroke="hsl(0.0,100%,35%)" stroke-width="0.01336"></path>
<path d="M0.766 0.506 Q0.944 0.488 0.948 0.397" stroke="hsl(0.0,100%,35%)" stroke-width="0.00172"></path>
<path d="M0.766 0.506 Q1.118 0.719 1.612 0.595" stroke="hsl(0.0,100%,35%)" stroke-width="0.00043"></path>
<path d="M0.548 0.177 Q0.301 0.490 0.857 0.679" stroke="hsl(0.0,100%,35%)" stroke-width="0.02326"></path>
<path d="M0.548 0.177 Q0.383 0.240 0.470 0.335" stroke="hsl(0.0,100%,35%)" stroke-width="0.03059"></path>
<path d="M0.548 0.177 Q0.454 0.582 1.223 0.717" stroke="hsl(0.0,100%,35%)" stroke-width="0.01034"></path>
<path d="M0.548 0.177 Q0.746 0.599 1.612 0.595" stroke="hsl(0.0,100%,35%)" stroke-width="0.00129"></path>
<path d="M0.548 0.177 Q0.631 0.358 1.001 0.356" stroke="hsl(0.0,100%,35%)" stroke-width="0.00775"></path>
<path d="M0.548 0.177 Q0.394 0.385 0.766 0.506" stroke="hsl(0.0,100%,35%)" stroke-width="0.00302"></path>
<path d="M0.548 0.177 Q0.488 0.081 0.287 0.089" stroke="hsl(0.0,100%,35%)" stroke-width="0.00043"></path>
<path d="M0.548 0.177 Q0.163 0.550 0.805 0.819" stroke="hsl(0.0,100%,35%)" stroke-width="0.00258"></path>
<path d="M0.548 0.177 Q0.304 0.168 0.232 0.285" stroke="hsl(0.0,100%,35%)" stroke-width="0.00086"></path>
<path d="M0.548 0.177 Q0.329 0.408 0.731 0.566" stroke="hsl(0.0,100%,35%)" stroke-width="0.00043"></path>
<path d="M0.548 0.177 Q0.734 0.490 1.384 0.467" stroke="hsl(0.0,100%,35%)" stroke-width="0.00043"></path>
<path d="M0.470 0.335 Q0.755 0.358 0.864 0.224" stroke="hsl(0.0,100%,35%)" stroke-width="0.00129"></path>
<path d="M0.470 0.335 Q0.796 0.346 0.890 0.190" stroke="hsl(0.0,100%,35%)" stroke-width="0.00215"></path>
<path d="M0.470 0.335 Q0.408 0.249 0.227 0.260" stroke="hsl(0.0,100%,35%)" stroke-width="0.00086"></path>
<path d="M0.470 0.335 Q0.635 0.272 0.548 0.177" stroke="hsl(0.0,100%,35%)" stroke-width="0.01249"></path>
<path d="M0.470 0.335 Q0.415 0.503 0.731 0.566" stroke="hsl(0.0,100%,35%)" stroke-width="0.00043"></path>
<path d="M0.470 0.335 Q0.388 0.584 0.857 0.679" stroke="hsl(0.0,100%,35%)" stroke-width="0.00517"></path>
<path d="M0.470 0.335 Q0.481 0.480 0.766 0.506" stroke="hsl(0.0,100%,35%)" stroke-width="0.00215"></path>
<path d="M0.470 0.335 Q0.250 0.644 0.805 0.819" stroke="hsl(0.0,100%,35%)" stroke-width="0.00215"></path>
<path d="M0.470 0.335 Q0.718 0.452 1.001 0.356" stroke="hsl(0.0,100%,35%)" stroke-width="0.00172"></path>
<path d="M0.470 0.335 Q0.390 0.263 0.232 0.285" stroke="hsl(0.0,100%,35%)" stroke-width="0.00043"></path>
<path d="M0.470 0.335 Q0.880 0.262 0.829 0.046" stroke="hsl(0.0,100%,35%)" stroke-width="0.00086"></path>
<path d="M0.470 0.335 Q0.833 0.693 1.612 0.595" stroke="hsl(0.0,100%,35%)" stroke-width="0.00086"></path>
<path d="M0.470 0.335 Q0.693 0.362 0.795 0.259" stroke="hsl(0.0,100%,35%)" stroke-width="0.00043"></path>
<path d="M0.470 0.335 Q1.227 0.603 1.917 0.293" stroke="hsl(0.0,100%,35%)" stroke-width="0.00043"></path>
<path d="M0.470 0.335 Q0.541 0.677 1.223 0.717" stroke="hsl(0.0,100%,35%)" stroke-width="0.00043"></path>
<path d="M0.945 0.203 Q0.602 0.174 0.470 0.335" stroke="hsl(0.0,100%,35%)" stroke-width="0.00086"></path>
<path d="M0.945 0.203 Q0.767 0.111 0.548 0.177" stroke="hsl(0.0,100%,35%)" stroke-width="0.00043"></path>
<path d="M0.945 0.203 Q0.851 0.291 1.001 0.356" stroke="hsl(0.0,100%,35%)" stroke-width="0.00043"></path>
<path d="M1.001 0.356 Q0.671 0.489 0.857 0.679" stroke="hsl(0.0,100%,35%)" stroke-width="0.00388"></path>
<path d="M1.001 0.356 Q0.753 0.239 0.470 0.335" stroke="hsl(0.0,100%,35%)" stroke-width="0.00043"></path>
<path d="M1.001 0.356 Q0.918 0.176 0.548 0.177" stroke="hsl(0.0,100%,35%)" stroke-width="0.00689"></path>
<path d="M1.001 0.356 Q0.533 0.548 0.805 0.819" stroke="hsl(0.0,100%,35%)" stroke-width="0.00043"></path>
<path d="M1.001 0.356 Q1.281 0.286 1.205 0.134" stroke="hsl(0.0,100%,35%)" stroke-width="0.00388"></path>
<path d="M1.001 0.356 Q0.871 0.504 1.131 0.600" stroke="hsl(0.0,100%,35%)" stroke-width="0.00043"></path>
<path d="M1.001 0.356 Q1.116 0.598 1.612 0.595" stroke="hsl(0.0,100%,35%)" stroke-width="0.00172"></path>
<path d="M1.001 0.356 Q1.164 0.167 0.829 0.046" stroke="hsl(0.0,100%,35%)" stroke-width="0.00086"></path>
<path d="M1.001 0.356 Q1.510 0.508 1.917 0.293" stroke="hsl(0.0,100%,35%)" stroke-width="0.00043"></path>
<path d="M1.001 0.356 Q1.106 0.669 1.739 0.687" stroke="hsl(0.0,100%,35%)" stroke-width="0.00043"></path>
<path d="M1.001 0.356 Q1.610 0.445 1.918 0.168" stroke="hsl(0.0,100%,35%)" stroke-width="0.00043"></path>
<path d="M0.994 0.448 Q0.741 0.536 0.857 0.679" stroke="hsl(0.0,100%,35%)" stroke-width="0.02283"></path>
<path d="M0.994 0.448 Q0.834 0.432 0.766 0.506" stroke="hsl(0.0,100%,35%)" stroke-width="0.00560"></path>
<path d="M0.994 0.448 Q0.988 0.224 0.548 0.177" stroke="hsl(0.0,100%,35%)" stroke-width="0.00043"></path>
<path d="M0.994 0.448 Q1.186 0.645 1.612 0.595" stroke="hsl(0.0,100%,35%)" stroke-width="0.00129"></path>
<path d="M0.994 0.448 Q0.603 0.596 0.805 0.819" stroke="hsl(0.0,100%,35%)" stroke-width="0.00043"></path>
<path d="M0.536 0.420 Q0.582 0.509 0.766 0.506" stroke="hsl(0.0,100%,35%)" stroke-width="0.00302"></path>
<path d="M0.536 0.420 Q0.571 0.364 0.470 0.335" stroke="hsl(0.0,100%,35%)" stroke-width="0.00086"></path>
<path d="M0.536 0.420 Q0.489 0.613 0.857 0.679" stroke="hsl(0.0,100%,35%)" stroke-width="0.00129"></path>
<path d="M0.805 0.819 Q0.943 0.759 0.857 0.679" stroke="hsl(0.0,100%,35%)" stroke-width="0.01206"></path>
<path d="M0.805 0.819 Q1.096 0.852 1.223 0.717" stroke="hsl(0.0,100%,35%)" stroke-width="0.00172"></path>
<path d="M0.805 0.819 Q0.963 0.424 0.227 0.260" stroke="hsl(0.0,100%,35%)" stroke-width="0.00043"></path>
<path d="M0.805 0.819 Q1.273 0.627 1.001 0.356" stroke="hsl(0.0,100%,35%)" stroke-width="0.00215"></path>
<path d="M0.805 0.819 Q1.190 0.447 0.548 0.177" stroke="hsl(0.0,100%,35%)" stroke-width="0.00732"></path>
<path d="M0.805 0.819 Q1.036 0.655 0.766 0.506" stroke="hsl(0.0,100%,35%)" stroke-width="0.00258"></path>
<path d="M0.805 0.819 Q0.970 0.678 0.731 0.566" stroke="hsl(0.0,100%,35%)" stroke-width="0.00172"></path>
<path d="M0.805 0.819 Q0.945 0.438 0.232 0.285" stroke="hsl(0.0,100%,35%)" stroke-width="0.00043"></path>
<path d="M0.805 0.819 Q1.376 0.759 1.384 0.467" stroke="hsl(0.0,100%,35%)" stroke-width="0.00043"></path>
<path d="M0.805 0.819 Q1.025 0.510 0.470 0.335" stroke="hsl(0.0,100%,35%)" stroke-width="0.00129"></path>
<path d="M0.805 0.819 Q0.990 0.566 0.536 0.420" stroke="hsl(0.0,100%,35%)" stroke-width="0.00043"></path>
<path d="M0.805 0.819 Q1.435 0.437 0.829 0.046" stroke="hsl(0.0,100%,35%)" stroke-width="0.00043"></path>
<path d="M0.948 0.397 Q0.677 0.520 0.857 0.679" stroke="hsl(0.0,100%,35%)" stroke-width="0.00388"></path>
<path d="M0.948 0.397 Q0.770 0.415 0.766 0.506" stroke="hsl(0.0,100%,35%)" stroke-width="0.00474"></path>
<path d="M0.948 0.397 Q0.830 0.612 1.223 0.717" stroke="hsl(0.0,100%,35%)" stroke-width="0.00172"></path>
<path d="M1.612 0.595 Q1.167 0.486 0.857 0.679" stroke="hsl(0.0,100%,35%)" stroke-width="0.02542"></path>
<path d="M1.612 0.595 Q1.797 0.637 1.920 0.555" stroke="hsl(0.0,100%,35%)" stroke-width="0.00345"></path>
<path d="M1.612 0.595 Q1.104 0.654 1.108 0.915" stroke="hsl(0.0,100%,35%)" stroke-width="0.00086"></path>
<path d="M1.612 0.595 Q2.006 0.505 1.917 0.293" stroke="hsl(0.0,100%,35%)" stroke-width="0.00560"></path>
<path d="M1.612 0.595 Q1.260 0.381 0.766 0.506" stroke="hsl(0.0,100%,35%)" stroke-width="0.00043"></path>
<path d="M1.612 0.595 Q1.497 0.353 1.001 0.356" stroke="hsl(0.0,100%,35%)" stroke-width="0.00388"></path>
<path d="M1.612 0.595 Q1.496 0.542 1.368 0.586" stroke="hsl(0.0,100%,35%)" stroke-width="0.00043"></path>
<path d="M1.612 0.595 Q1.414 0.173 0.548 0.177" stroke="hsl(0.0,100%,35%)" stroke-width="0.00129"></path>
<path d="M1.612 0.595 Q1.029 0.545 0.805 0.819" stroke="hsl(0.0,100%,35%)" stroke-width="0.00172"></path>
<path d="M1.612 0.595 Q1.367 0.501 1.131 0.600" stroke="hsl(0.0,100%,35%)" stroke-width="0.00043"></path>
<path d="M1.612 0.595 Q1.535 0.513 1.359 0.533" stroke="hsl(0.0,100%,35%)" stroke-width="0.00086"></path>
<path d="M1.612 0.595 Q1.602 0.666 1.739 0.687" stroke="hsl(0.0,100%,35%)" stroke-width="0.00172"></path>
<path d="M1.612 0.595 Q1.559 0.719 1.790 0.772" stroke="hsl(0.0,100%,35%)" stroke-width="0.00603"></path>
<path d="M1.612 0.595 Q1.431 0.587 1.376 0.674" stroke="hsl(0.0,100%,35%)" stroke-width="0.00043"></path>
<path d="M1.612 0.595 Q1.581 0.667 1.716 0.698" stroke="hsl(0.0,100%,35%)" stroke-width="0.00129"></path>
<path d="M1.612 0.595 Q1.442 0.719 1.648 0.830" stroke="hsl(0.0,100%,35%)" stroke-width="0.00043"></path>
<path d="M1.612 0.595 Q1.427 0.670 1.534 0.777" stroke="hsl(0.0,100%,35%)" stroke-width="0.00086"></path>
<path d="M1.612 0.595 Q1.169 0.164 0.232 0.285" stroke="hsl(0.0,100%,35%)" stroke-width="0.00043"></path>
<path d="M1.612 0.595 Q1.249 0.236 0.470 0.335" stroke="hsl(0.0,100%,35%)" stroke-width="0.00043"></path>
<path d="M1.612 0.595 Q1.349 0.714 1.525 0.869" stroke="hsl(0.0,100%,35%)" stroke-width="0.00043"></path>
<path d="M1.612 0.595 Q0.802 0.542 0.520 0.925" stroke="hsl(0.0,100%,35%)" stroke-width="0.00086"></path>
<path d="M1.612 0.595 Q0.727 0.498 0.344 0.908" stroke="hsl(0.0,100%,35%)" stroke-width="0.00129"></path>
<path d="M0.864 0.224 Q0.578 0.201 0.470 0.335" stroke="hsl(0.0,100%,35%)" stroke-width="0.01249"></path>
<path d="M0.864 0.224 Q0.497 0.450 0.857 0.679" stroke="hsl(0.0,100%,35%)" stroke-width="0.00215"></path>
<path d="M0.864 0.224 Q0.743 0.138 0.548 0.177" stroke="hsl(0.0,100%,35%)" stroke-width="0.00215"></path>
<path d="M0.864 0.224 Q0.989 0.128 0.829 0.046" stroke="hsl(0.0,100%,35%)" stroke-width="0.00129"></path>
<path d="M0.864 0.224 Q0.359 0.510 0.805 0.819" stroke="hsl(0.0,100%,35%)" stroke-width="0.00043"></path>
<path d="M0.890 0.190 Q0.564 0.178 0.470 0.335" stroke="hsl(0.0,100%,35%)" stroke-width="0.00474"></path>
<path d="M0.890 0.190 Q0.729 0.115 0.548 0.177" stroke="hsl(0.0,100%,35%)" stroke-width="0.00043"></path>
<path d="M0.890 0.190 Q0.812 0.295 1.001 0.356" stroke="hsl(0.0,100%,35%)" stroke-width="0.00043"></path>
<path d="M0.890 0.190 Q0.482 0.428 0.857 0.679" stroke="hsl(0.0,100%,35%)" stroke-width="0.00043"></path>
<path d="M0.890 0.190 Q0.975 0.106 0.829 0.046" stroke="hsl(0.0,100%,35%)" stroke-width="0.00043"></path>
<path d="M0.890 0.190 Q0.575 0.323 0.766 0.506" stroke="hsl(0.0,100%,35%)" stroke-width="0.00043"></path>
<path d="M0.227 0.260 Q0.288 0.346 0.470 0.335" stroke="hsl(0.0,100%,35%)" stroke-width="0.00215"></path>
<path d="M0.227 0.260 Q0.069 0.655 0.805 0.819" stroke="hsl(0.0,100%,35%)" stroke-width="0.00172"></path>
<path d="M0.227 0.260 Q0.209 0.274 0.232 0.285" stroke="hsl(0.0,100%,35%)" stroke-width="0.00043"></path>
<path d="M0.731 0.566 Q0.704 0.647 0.857 0.679" stroke="hsl(0.0,100%,35%)" stroke-width="0.00603"></path>
<path d="M0.731 0.566 Q0.797 0.543 0.766 0.506" stroke="hsl(0.0,100%,35%)" stroke-width="0.00086"></path>
<path d="M0.731 0.566 Q0.785 0.398 0.470 0.335" stroke="hsl(0.0,100%,35%)" stroke-width="0.00086"></path>
<path d="M0.731 0.566 Q0.566 0.707 0.805 0.819" stroke="hsl(0.0,100%,35%)" stroke-width="0.00086"></path>
<path d="M0.731 0.566 Q0.515 0.622 0.576 0.739" stroke="hsl(0.0,100%,35%)" stroke-width="0.00043"></path>
<path d="M0.232 0.285 Q0.560 0.475 1.001 0.356" stroke="hsl(0.0,100%,35%)" stroke-width="0.00043"></path>
<path d="M0.232 0.285 Q0.230 0.607 0.857 0.679" stroke="hsl(0.0,100%,35%)" stroke-width="0.00086"></path>
<path d="M0.232 0.285 Q0.311 0.358 0.470 0.335" stroke="hsl(0.0,100%,35%)" stroke-width="0.00043"></path>
<path d="M0.232 0.285 Q0.092 0.667 0.805 0.819" stroke="hsl(0.0,100%,35%)" stroke-width="0.00129"></path>
<path d="M1.917 0.293 Q1.078 0.274 0.857 0.679" stroke="hsl(0.0,100%,35%)" stroke-width="0.00172"></path>
<path d="M1.917 0.293 Q1.523 0.383 1.612 0.595" stroke="hsl(0.0,100%,35%)" stroke-width="0.00345"></path>
<path d="M1.917 0.293 Q1.513 0.454 1.739 0.687" stroke="hsl(0.0,100%,35%)" stroke-width="0.00043"></path>
<path d="M1.917 0.293 Q1.171 0.169 0.766 0.506" stroke="hsl(0.0,100%,35%)" stroke-width="0.00043"></path>
<path d="M1.464 0.296 Q1.184 0.234 1.001 0.356" stroke="hsl(0.0,100%,35%)" stroke-width="0.00043"></path>
<path d="M1.464 0.296 Q1.247 0.599 1.790 0.772" stroke="hsl(0.0,100%,35%)" stroke-width="0.00043"></path>
<path d="M1.464 0.296 Q0.854 0.366 0.857 0.679" stroke="hsl(0.0,100%,35%)" stroke-width="0.00086"></path>
<path d="M1.464 0.296 Q1.693 0.385 1.917 0.293" stroke="hsl(0.0,100%,35%)" stroke-width="0.00086"></path>
<path d="M1.790 0.772 Q2.236 0.558 1.917 0.293" stroke="hsl(0.0,100%,35%)" stroke-width="0.00258"></path>
<path d="M1.790 0.772 Q1.842 0.647 1.612 0.595" stroke="hsl(0.0,100%,35%)" stroke-width="0.00302"></path>
<path d="M1.790 0.772 Q1.775 0.791 1.810 0.802" stroke="hsl(0.0,100%,35%)" stroke-width="0.00043"></path>
<path d="M1.166 0.552 Q1.354 0.662 1.612 0.595" stroke="hsl(0.0,100%,35%)" stroke-width="0.00086"></path>
<path d="M1.166 0.552 Q0.910 0.553 0.857 0.679" stroke="hsl(0.0,100%,35%)" stroke-width="0.00043"></path>
<path d="M1.166 0.552 Q1.748 0.572 1.917 0.293" stroke="hsl(0.0,100%,35%)" stroke-width="0.00043"></path>
<path d="M1.108 0.915 Q1.920 0.687 1.654 0.242" stroke="hsl(0.0,100%,35%)" stroke-width="0.00129"></path>
<path d="M1.108 0.915 Q2.010 0.766 1.917 0.293" stroke="hsl(0.0,100%,35%)" stroke-width="0.00560"></path>
<path d="M1.108 0.915 Q1.616 0.855 1.612 0.595" stroke="hsl(0.0,100%,35%)" stroke-width="0.00819"></path>
<path d="M1.108 0.915 Q1.172 0.747 0.857 0.679" stroke="hsl(0.0,100%,35%)" stroke-width="0.01163"></path>
<path d="M1.108 0.915 Q1.501 0.614 1.001 0.356" stroke="hsl(0.0,100%,35%)" stroke-width="0.00043"></path>
<path d="M1.108 0.915 Q1.564 0.980 1.790 0.772" stroke="hsl(0.0,100%,35%)" stroke-width="0.00043"></path>
<path d="M1.108 0.915 Q1.694 0.632 1.270 0.284" stroke="hsl(0.0,100%,35%)" stroke-width="0.00043"></path>
<path d="M1.131 0.600 Q0.931 0.585 0.857 0.679" stroke="hsl(0.0,100%,35%)" stroke-width="0.01163"></path>
<path d="M1.131 0.600 Q1.376 0.694 1.612 0.595" stroke="hsl(0.0,100%,35%)" stroke-width="0.00345"></path>
<path d="M1.131 0.600 Q1.024 0.480 0.766 0.506" stroke="hsl(0.0,100%,35%)" stroke-width="0.00215"></path>
<path d="M1.131 0.600 Q0.793 0.644 0.805 0.819" stroke="hsl(0.0,100%,35%)" stroke-width="0.00086"></path>
<path d="M1.131 0.600 Q1.178 0.272 0.548 0.177" stroke="hsl(0.0,100%,35%)" stroke-width="0.00043"></path>
<path d="M1.131 0.600 Q1.084 0.677 1.223 0.717" stroke="hsl(0.0,100%,35%)" stroke-width="0.00043"></path>
<path d="M1.131 0.600 Q1.261 0.452 1.001 0.356" stroke="hsl(0.0,100%,35%)" stroke-width="0.00129"></path>
<path d="M1.131 0.600 Q1.770 0.604 1.917 0.293" stroke="hsl(0.0,100%,35%)" stroke-width="0.00043"></path>
<path d="M1.739 0.687 Q2.143 0.525 1.917 0.293" stroke="hsl(0.0,100%,35%)" stroke-width="0.00086"></path>
<path d="M1.739 0.687 Q1.749 0.615 1.612 0.595" stroke="hsl(0.0,100%,35%)" stroke-width="0.00086"></path>
<path d="M1.739 0.687 Q1.305 0.506 0.857 0.679" stroke="hsl(0.0,100%,35%)" stroke-width="0.00086"></path>
<path d="M1.648 0.830 Q1.373 0.596 0.857 0.679" stroke="hsl(0.0,100%,35%)" stroke-width="0.00086"></path>
<path d="M1.648 0.830 Q1.235 0.656 0.805 0.819" stroke="hsl(0.0,100%,35%)" stroke-width="0.00043"></path>
<path d="M1.648 0.830 Q1.818 0.705 1.612 0.595" stroke="hsl(0.0,100%,35%)" stroke-width="0.00215"></path>
<path d="M1.648 0.830 Q1.620 0.284 0.548 0.177" stroke="hsl(0.0,100%,35%)" stroke-width="0.00043"></path>
<path d="M0.344 0.908 Q0.418 0.952 0.520 0.925" stroke="hsl(0.0,100%,35%)" stroke-width="0.00172"></path>
<path d="M0.344 0.908 Q0.784 0.896 0.857 0.679" stroke="hsl(0.0,100%,35%)" stroke-width="0.00517"></path>
<path d="M0.344 0.908 Q0.988 0.724 0.771 0.369" stroke="hsl(0.0,100%,35%)" stroke-width="0.00043"></path>
<path d="M0.344 0.908 Q1.228 1.005 1.612 0.595" stroke="hsl(0.0,100%,35%)" stroke-width="0.00215"></path>
<path d="M0.344 0.908 Q1.030 0.583 0.548 0.177" stroke="hsl(0.0,100%,35%)" stroke-width="0.00043"></path>
<path d="M0.614 0.571 Q0.742 0.569 0.766 0.506" stroke="hsl(0.0,100%,35%)" stroke-width="0.00043"></path>
<path d="M0.614 0.571 Q0.649 0.673 0.857 0.679" stroke="hsl(0.0,100%,35%)" stroke-width="0.00086"></path>
<path d="M0.614 0.571 Q0.602 0.527 0.514 0.524" stroke="hsl(0.0,100%,35%)" stroke-width="0.00043"></path>
<path d="M1.009 0.760 Q0.998 0.689 0.857 0.679" stroke="hsl(0.0,100%,35%)" stroke-width="0.01594"></path>
<path d="M1.009 0.760 Q1.091 0.585 0.766 0.506" stroke="hsl(0.0,100%,35%)" stroke-width="0.00862"></path>
<path d="M1.009 0.760 Q1.443 0.798 1.612 0.595" stroke="hsl(0.0,100%,35%)" stroke-width="0.00172"></path>
<path d="M1.107 1.048 Q1.277 0.813 0.857 0.679" stroke="hsl(0.0,100%,35%)" stroke-width="0.00086"></path>
<path d="M1.107 1.048 Q1.530 0.725 0.994 0.448" stroke="hsl(0.0,100%,35%)" stroke-width="0.00086"></path>
<path d="M1.071 0.579 Q1.329 0.695 1.612 0.595" stroke="hsl(0.0,100%,35%)" stroke-width="0.00086"></path>
<path d="M1.071 0.579 Q2.086 0.027 1.233 -0.589" stroke="hsl(0.0,100%,35%)" stroke-width="0.00043"></path>
<path d="M1.071 0.579 Q0.884 0.586 0.857 0.679" stroke="hsl(0.0,100%,35%)" stroke-width="0.00086"></path>
<path d="M0.167 0.170 Q-0.034 0.622 0.805 0.819" stroke="hsl(0.0,100%,35%)" stroke-width="0.00043"></path>
<path d="M0.167 0.170 Q0.351 0.250 0.548 0.177" stroke="hsl(0.0,100%,35%)" stroke-width="0.00129"></path>
<path d="M0.167 0.170 Q0.435 0.430 1.001 0.356" stroke="hsl(0.0,100%,35%)" stroke-width="0.00043"></path>
<path d="M0.167 0.170 Q0.105 0.562 0.857 0.679" stroke="hsl(0.0,100%,35%)" stroke-width="0.00043"></path>
<path d="M1.654 0.242 Q1.350 0.410 1.612 0.595" stroke="hsl(0.0,100%,35%)" stroke-width="0.00258"></path>
<path d="M1.654 0.242 Q1.744 0.320 1.917 0.293" stroke="hsl(0.0,100%,35%)" stroke-width="0.01034"></path>
<path d="M1.654 0.242 Q1.428 0.186 1.270 0.284" stroke="hsl(0.0,100%,35%)" stroke-width="0.00086"></path>
<path d="M1.654 0.242 Q1.515 0.231 1.464 0.296" stroke="hsl(0.0,100%,35%)" stroke-width="0.00302"></path>
<path d="M1.654 0.242 Q0.906 0.301 0.857 0.679" stroke="hsl(0.0,100%,35%)" stroke-width="0.00732"></path>
<path d="M1.654 0.242 Q0.842 0.469 1.108 0.915" stroke="hsl(0.0,100%,35%)" stroke-width="0.00086"></path>
<path d="M1.654 0.242 Q1.298 0.534 1.790 0.772" stroke="hsl(0.0,100%,35%)" stroke-width="0.00043"></path>
<path d="M0.771 0.369 Q0.428 0.601 0.805 0.819" stroke="hsl(0.0,100%,35%)" stroke-width="0.00043"></path>
<path d="M0.771 0.369 Q0.896 0.409 1.001 0.356" stroke="hsl(0.0,100%,35%)" stroke-width="0.00086"></path>
<path d="M0.771 0.369 Q0.566 0.541 0.857 0.679" stroke="hsl(0.0,100%,35%)" stroke-width="0.00043"></path>
<path d="M0.771 0.369 Q1.405 0.560 1.917 0.293" stroke="hsl(0.0,100%,35%)" stroke-width="0.00043"></path>
<path d="M1.817 0.424 Q1.578 0.468 1.612 0.595" stroke="hsl(0.0,100%,35%)" stroke-width="0.00043"></path>
<path d="M1.817 0.424 Q1.881 0.300 1.654 0.242" stroke="hsl(0.0,100%,35%)" stroke-width="0.00043"></path>
<path d="M1.817 0.424 Q1.972 0.378 1.917 0.293" stroke="hsl(0.0,100%,35%)" stroke-width="0.00129"></path>
<path d="M1.817 0.424 Q1.133 0.359 0.857 0.679" stroke="hsl(0.0,100%,35%)" stroke-width="0.00043"></path>
<path d="M1.087 0.560 Q0.877 0.573 0.857 0.679" stroke="hsl(0.0,100%,35%)" stroke-width="0.00215"></path>
<path d="M1.087 0.560 Q1.321 0.682 1.612 0.595" stroke="hsl(0.0,100%,35%)" stroke-width="0.00043"></path>
<path d="M1.087 0.560 Q0.969 0.469 0.766 0.506" stroke="hsl(0.0,100%,35%)" stroke-width="0.00086"></path>
<path d="M1.918 0.168 Q0.915 0.379 1.108 0.915" stroke="hsl(0.0,100%,35%)" stroke-width="0.00043"></path>
<path d="M1.918 0.168 Q1.817 0.230 1.917 0.293" stroke="hsl(0.0,100%,35%)" stroke-width="0.00129"></path>
<path d="M1.918 0.168 Q1.423 0.320 1.612 0.595" stroke="hsl(0.0,100%,35%)" stroke-width="0.00129"></path>
</g>
<text x="1.223" y="0.697" font-size="0.039426" fill="hsl(0.0,100%,20%)">abdolrashidi</text>
<text x="0.857" y="0.627" font-size="0.102810" fill="hsl(0.0,100%,20%)">syoussefi</text>
<text x="0.766" y="0.471" font-size="0.069624" fill="hsl(0.0,100%,20%)">cclao</text>
<text x="0.548" y="0.146" font-size="0.062292" fill="hsl(0.0,100%,20%)">romanl</text>
<text x="1.384" y="0.464" font-size="0.005877" fill="hsl(0.0,100%,20%)">kaiyili</text>
<text x="0.470" y="0.310" font-size="0.049755" fill="hsl(0.0,100%,20%)">cnorthrop</text>
<text x="0.945" y="0.200" font-size="0.006786" fill="hsl(0.0,100%,20%)">banisingh</text>
<text x="1.001" y="0.339" font-size="0.034438" fill="hsl(0.0,100%,20%)">ynovikov</text>
<text x="0.994" y="0.433" font-size="0.030539" fill="hsl(0.0,100%,20%)">m.maiya</text>
<text x="0.536" y="0.410" font-size="0.019786" fill="hsl(0.0,100%,20%)">chrisforbes</text>
<text x="0.805" y="0.795" font-size="0.048820" fill="hsl(0.0,100%,20%)">yuxinhu</text>
<text x="0.948" y="0.388" font-size="0.017955" fill="hsl(0.0,100%,20%)">hailinzhang</text>
<text x="1.612" y="0.565" font-size="0.059066" fill="hsl(0.0,100%,20%)">geofflang</text>
<text x="0.864" y="0.213" font-size="0.023014" fill="hsl(0.0,100%,20%)">mark</text>
<text x="0.890" y="0.182" font-size="0.015550" fill="hsl(0.0,100%,20%)">mikes</text>
<text x="0.227" y="0.254" font-size="0.012235" fill="hsl(0.0,100%,20%)">lpy</text>
<text x="0.731" y="0.556" font-size="0.020359" fill="hsl(0.0,100%,20%)">zzyiwei</text>
<text x="0.232" y="0.279" font-size="0.013142" fill="hsl(0.0,100%,20%)">solti</text>
<text x="0.829" y="0.041" font-size="0.010180" fill="hsl(0.0,100%,20%)">ianelliott</text>
<text x="0.795" y="0.258" font-size="0.003393" fill="hsl(0.0,100%,20%)">gregschlom</text>
<text x="1.917" y="0.277" font-size="0.032191" fill="hsl(0.0,100%,20%)">kbr</text>
<text x="1.464" y="0.290" font-size="0.012235" fill="hsl(0.0,100%,20%)">djg</text>
<text x="1.790" y="0.762" font-size="0.019195" fill="hsl(0.0,100%,20%)">lehoangquyen</text>
<text x="1.166" y="0.548" font-size="0.006786" fill="hsl(0.0,100%,20%)">dtapuska</text>
<text x="1.920" y="0.550" font-size="0.010730" fill="hsl(0.0,100%,20%)">penghuang</text>
<text x="1.108" y="0.901" font-size="0.028793" fill="hsl(0.0,100%,20%)">lexa.knyazev</text>
<text x="1.368" y="0.585" font-size="0.003393" fill="hsl(0.0,100%,20%)">jamesgk</text>
<text x="1.131" y="0.588" font-size="0.024233" fill="hsl(0.0,100%,20%)">steven</text>
<text x="1.359" y="0.530" font-size="0.004799" fill="hsl(0.0,100%,20%)">rafael.cintron</text>
<text x="1.739" y="0.681" font-size="0.011755" fill="hsl(0.0,100%,20%)">jonahr</text>
<text x="1.376" y="0.672" font-size="0.003393" fill="hsl(0.0,100%,20%)">gman</text>
<text x="1.716" y="0.695" font-size="0.005877" fill="hsl(0.0,100%,20%)">blundell</text>
<text x="1.648" y="0.824" font-size="0.010730" fill="hsl(0.0,100%,20%)">hob</text>
<text x="1.534" y="0.775" font-size="0.004799" fill="hsl(0.0,100%,20%)">vasilyt</text>
<text x="1.525" y="0.867" font-size="0.003393" fill="hsl(0.0,100%,20%)">enga</text>
<text x="0.520" y="0.921" font-size="0.008312" fill="hsl(0.0,100%,20%)">mpdenton</text>
<text x="0.344" y="0.899" font-size="0.017632" fill="hsl(0.0,100%,20%)">liza</text>
<text x="0.614" y="0.567" font-size="0.006786" fill="hsl(0.0,100%,20%)">hans</text>
<text x="0.514" y="0.522" font-size="0.003393" fill="hsl(0.0,100%,20%)">thakis</text>
<text x="1.009" y="0.745" font-size="0.029968" fill="hsl(0.0,100%,20%)">i.nazarov</text>
<text x="1.107" y="1.044" font-size="0.006786" fill="hsl(0.0,100%,20%)">j.vigil</text>
<text x="1.071" y="0.575" font-size="0.007588" fill="hsl(0.0,100%,20%)">jiawei.shao</text>
<text x="1.233" y="-0.590" font-size="0.003393" fill="hsl(0.0,100%,20%)">senorblanco</text>
<text x="0.167" y="0.165" font-size="0.008312" fill="hsl(0.0,100%,20%)">jojwang</text>
<text x="1.654" y="0.228" font-size="0.026933" fill="hsl(0.0,100%,20%)">kkinnunen</text>
<text x="1.270" y="0.281" font-size="0.005877" fill="hsl(0.0,100%,20%)">kpiddington</text>
<text x="1.810" y="0.801" font-size="0.003393" fill="hsl(0.0,100%,20%)">sunnyps</text>
<text x="0.771" y="0.365" font-size="0.008312" fill="hsl(0.0,100%,20%)">sokcevic</text>
<text x="1.817" y="0.420" font-size="0.008312" fill="hsl(0.0,100%,20%)">msisov</text>
<text x="1.087" y="0.555" font-size="0.009598" fill="hsl(0.0,100%,20%)">phanquangminh217</text>
<text x="0.287" y="0.087" font-size="0.003393" fill="hsl(0.0,100%,20%)">zijiehe</text>
<text x="1.918" y="0.163" font-size="0.009598" fill="hsl(0.0,100%,20%)">sky</text>
<text x="1.065" y="0.508" font-size="0.003393" fill="hsl(0.0,100%,20%)">natsu</text>
<text x="1.227" y="0.779" font-size="0.003393" fill="hsl(0.0,100%,20%)">a.annestrand</text>
<text x="1.205" y="0.129" font-size="0.010180" fill="hsl(0.0,100%,20%)">bsheedy</text>
<text x="0.576" y="0.738" font-size="0.003393" fill="hsl(0.0,100%,20%)">rjodin</text>
</svg>
