<svg width="4000" height="2000" viewBox="-0.025 -0.025 2.05 1.05" xmlns="http://www.w3.org/2000/svg">
  <style>
    path {
      fill: none;
      stroke-linecap: round;
      stroke-opacity: 0.4;
    }

    text {
      text-anchor: middle;
      alignment-baseline: hanging;
    }
  </style>
  <g opacity="0.4">
<path d="M1.403 0.683 Q1.655 0.540 1.433 0.386" stroke="hsl(0.0,100%,35%)" stroke-width="0.00431"></path>
<path d="M1.403 0.683 Q1.148 0.570 0.872 0.669" stroke="hsl(0.0,100%,35%)" stroke-width="0.00039"></path>
<path d="M1.403 0.683 Q1.617 0.718 1.733 0.621" stroke="hsl(0.0,100%,35%)" stroke-width="0.00157"></path>
<path d="M1.433 0.386 Q1.351 0.538 1.630 0.611" stroke="hsl(0.0,100%,35%)" stroke-width="0.02271"></path>
<path d="M1.433 0.386 Q1.174 0.136 0.629 0.207" stroke="hsl(0.0,100%,35%)" stroke-width="0.01527"></path>
<path d="M1.433 0.386 Q1.157 0.552 1.420 0.723" stroke="hsl(0.0,100%,35%)" stroke-width="0.00979"></path>
<path d="M1.433 0.386 Q0.808 0.470 0.835 0.794" stroke="hsl(0.0,100%,35%)" stroke-width="0.02153"></path>
<path d="M1.433 0.386 Q0.926 0.416 0.872 0.669" stroke="hsl(0.0,100%,35%)" stroke-width="0.01958"></path>
<path d="M1.433 0.386 Q1.173 0.207 0.768 0.294" stroke="hsl(0.0,100%,35%)" stroke-width="0.00274"></path>
<path d="M1.433 0.386 Q1.326 0.480 1.485 0.553" stroke="hsl(0.0,100%,35%)" stroke-width="0.01997"></path>
<path d="M1.433 0.386 Q1.430 0.527 1.705 0.559" stroke="hsl(0.0,100%,35%)" stroke-width="0.00078"></path>
<path d="M1.433 0.386 Q1.190 0.397 1.158 0.517" stroke="hsl(0.0,100%,35%)" stroke-width="0.00744"></path>
<path d="M1.433 0.386 Q1.589 0.524 1.892 0.477" stroke="hsl(0.0,100%,35%)" stroke-width="0.01840"></path>
<path d="M1.433 0.386 Q1.320 0.409 1.341 0.470" stroke="hsl(0.0,100%,35%)" stroke-width="0.00039"></path>
<path d="M1.433 0.386 Q0.760 0.273 0.393 0.577" stroke="hsl(0.0,100%,35%)" stroke-width="0.00078"></path>
<path d="M1.433 0.386 Q1.287 0.521 1.519 0.622" stroke="hsl(0.0,100%,35%)" stroke-width="0.00039"></path>
<path d="M1.433 0.386 Q0.552 0.403 0.392 0.837" stroke="hsl(0.0,100%,35%)" stroke-width="0.00157"></path>
<path d="M1.433 0.386 Q1.253 0.435 1.310 0.534" stroke="hsl(0.0,100%,35%)" stroke-width="0.00039"></path>
<path d="M1.433 0.386 Q0.928 0.204 0.463 0.410" stroke="hsl(0.0,100%,35%)" stroke-width="0.00039"></path>
<path d="M1.433 0.386 Q1.328 0.594 1.711 0.690" stroke="hsl(0.0,100%,35%)" stroke-width="0.00078"></path>
<path d="M1.433 0.386 Q1.432 0.500 1.656 0.526" stroke="hsl(0.0,100%,35%)" stroke-width="0.00039"></path>
<path d="M1.433 0.386 Q1.271 0.460 1.379 0.555" stroke="hsl(0.0,100%,35%)" stroke-width="0.00039"></path>
<path d="M0.872 0.669 Q0.755 0.724 0.835 0.794" stroke="hsl(0.0,100%,35%)" stroke-width="0.01253"></path>
<path d="M0.872 0.669 Q1.379 0.640 1.433 0.386" stroke="hsl(0.0,100%,35%)" stroke-width="0.01449"></path>
<path d="M0.872 0.669 Q0.512 0.765 0.619 0.962" stroke="hsl(0.0,100%,35%)" stroke-width="0.00039"></path>
<path d="M0.872 0.669 Q1.429 0.365 0.957 0.027" stroke="hsl(0.0,100%,35%)" stroke-width="0.00039"></path>
<path d="M0.872 0.669 Q0.435 0.725 0.446 0.951" stroke="hsl(0.0,100%,35%)" stroke-width="0.00078"></path>
<path d="M0.872 0.669 Q1.137 0.651 1.158 0.517" stroke="hsl(0.0,100%,35%)" stroke-width="0.00117"></path>
<path d="M0.872 0.669 Q1.298 0.792 1.630 0.611" stroke="hsl(0.0,100%,35%)" stroke-width="0.00117"></path>
<path d="M0.872 0.669 Q0.707 0.527 0.393 0.577" stroke="hsl(0.0,100%,35%)" stroke-width="0.00157"></path>
<path d="M0.872 0.669 Q1.272 0.734 1.485 0.553" stroke="hsl(0.0,100%,35%)" stroke-width="0.00196"></path>
<path d="M0.872 0.669 Q1.275 0.847 1.711 0.690" stroke="hsl(0.0,100%,35%)" stroke-width="0.00039"></path>
<path d="M0.872 0.669 Q1.120 0.461 0.768 0.294" stroke="hsl(0.0,100%,35%)" stroke-width="0.00078"></path>
<path d="M0.872 0.669 Q1.536 0.777 1.892 0.477" stroke="hsl(0.0,100%,35%)" stroke-width="0.00861"></path>
<path d="M0.872 0.669 Q0.498 0.657 0.392 0.837" stroke="hsl(0.0,100%,35%)" stroke-width="0.00078"></path>
<path d="M0.872 0.669 Q0.803 0.561 0.577 0.571" stroke="hsl(0.0,100%,35%)" stroke-width="0.00117"></path>
<path d="M0.872 0.669 Q1.377 0.781 1.705 0.559" stroke="hsl(0.0,100%,35%)" stroke-width="0.00039"></path>
<path d="M0.872 0.669 Q1.104 0.806 1.420 0.723" stroke="hsl(0.0,100%,35%)" stroke-width="0.00039"></path>
<path d="M0.872 0.669 Q1.022 0.567 0.855 0.471" stroke="hsl(0.0,100%,35%)" stroke-width="0.00039"></path>
<path d="M0.872 0.669 Q0.947 0.582 0.792 0.526" stroke="hsl(0.0,100%,35%)" stroke-width="0.00039"></path>
<path d="M1.184 0.132 Q1.262 0.447 1.892 0.477" stroke="hsl(0.0,100%,35%)" stroke-width="0.00078"></path>
<path d="M1.184 0.132 Q1.155 0.034 0.957 0.027" stroke="hsl(0.0,100%,35%)" stroke-width="0.00078"></path>
<path d="M1.184 0.132 Q0.598 0.339 0.872 0.669" stroke="hsl(0.0,100%,35%)" stroke-width="0.00039"></path>
<path d="M1.892 0.477 Q1.736 0.340 1.433 0.386" stroke="hsl(0.0,100%,35%)" stroke-width="0.04972"></path>
<path d="M1.892 0.477 Q1.629 0.434 1.485 0.553" stroke="hsl(0.0,100%,35%)" stroke-width="0.01409"></path>
<path d="M1.892 0.477 Q1.460 0.506 1.420 0.723" stroke="hsl(0.0,100%,35%)" stroke-width="0.00744"></path>
<path d="M1.892 0.477 Q1.493 0.350 1.158 0.517" stroke="hsl(0.0,100%,35%)" stroke-width="0.00313"></path>
<path d="M1.892 0.477 Q1.476 0.161 0.768 0.294" stroke="hsl(0.0,100%,35%)" stroke-width="0.00352"></path>
<path d="M1.892 0.477 Q1.477 0.090 0.629 0.207" stroke="hsl(0.0,100%,35%)" stroke-width="0.00705"></path>
<path d="M1.892 0.477 Q1.111 0.424 0.835 0.794" stroke="hsl(0.0,100%,35%)" stroke-width="0.00901"></path>
<path d="M1.892 0.477 Q1.761 0.508 1.793 0.579" stroke="hsl(0.0,100%,35%)" stroke-width="0.00157"></path>
<path d="M1.892 0.477 Q1.654 0.492 1.630 0.611" stroke="hsl(0.0,100%,35%)" stroke-width="0.01135"></path>
<path d="M1.892 0.477 Q1.379 0.267 0.855 0.471" stroke="hsl(0.0,100%,35%)" stroke-width="0.00196"></path>
<path d="M1.892 0.477 Q1.803 0.491 1.810 0.537" stroke="hsl(0.0,100%,35%)" stroke-width="0.00039"></path>
<path d="M1.892 0.477 Q1.229 0.369 0.872 0.669" stroke="hsl(0.0,100%,35%)" stroke-width="0.00940"></path>
<path d="M1.892 0.477 Q1.733 0.481 1.705 0.559" stroke="hsl(0.0,100%,35%)" stroke-width="0.00078"></path>
<path d="M1.892 0.477 Q1.631 0.547 1.711 0.690" stroke="hsl(0.0,100%,35%)" stroke-width="0.00039"></path>
<path d="M1.892 0.477 Q2.120 0.352 1.925 0.213" stroke="hsl(0.0,100%,35%)" stroke-width="0.00039"></path>
<path d="M1.892 0.477 Q1.306 0.092 0.426 0.293" stroke="hsl(0.0,100%,35%)" stroke-width="0.00039"></path>
<path d="M1.892 0.477 Q1.916 0.500 1.964 0.493" stroke="hsl(0.0,100%,35%)" stroke-width="0.00078"></path>
<path d="M1.892 0.477 Q1.456 0.601 1.601 0.841" stroke="hsl(0.0,100%,35%)" stroke-width="0.00039"></path>
<path d="M1.892 0.477 Q2.335 0.199 1.888 -0.078" stroke="hsl(0.0,100%,35%)" stroke-width="0.00039"></path>
<path d="M1.810 0.537 Q1.742 0.386 1.433 0.386" stroke="hsl(0.0,100%,35%)" stroke-width="0.00392"></path>
<path d="M1.810 0.537 Q1.272 0.628 1.331 0.911" stroke="hsl(0.0,100%,35%)" stroke-width="0.00039"></path>
<path d="M1.810 0.537 Q1.467 0.552 1.420 0.723" stroke="hsl(0.0,100%,35%)" stroke-width="0.00039"></path>
<path d="M1.810 0.537 Q1.484 0.136 0.629 0.207" stroke="hsl(0.0,100%,35%)" stroke-width="0.00078"></path>
<path d="M1.810 0.537 Q1.899 0.524 1.892 0.477" stroke="hsl(0.0,100%,35%)" stroke-width="0.00196"></path>
<path d="M1.810 0.537 Q1.768 0.555 1.793 0.579" stroke="hsl(0.0,100%,35%)" stroke-width="0.00039"></path>
<path d="M1.331 0.911 Q1.801 0.669 1.433 0.386" stroke="hsl(0.0,100%,35%)" stroke-width="0.00117"></path>
<path d="M1.331 0.911 Q1.526 0.834 1.420 0.723" stroke="hsl(0.0,100%,35%)" stroke-width="0.00078"></path>
<path d="M1.331 0.911 Q1.695 0.762 1.485 0.553" stroke="hsl(0.0,100%,35%)" stroke-width="0.00039"></path>
<path d="M1.420 0.723 Q1.225 0.799 1.331 0.911" stroke="hsl(0.0,100%,35%)" stroke-width="0.00039"></path>
<path d="M1.420 0.723 Q1.696 0.557 1.433 0.386" stroke="hsl(0.0,100%,35%)" stroke-width="0.01566"></path>
<path d="M1.420 0.723 Q1.453 0.567 1.158 0.517" stroke="hsl(0.0,100%,35%)" stroke-width="0.00548"></path>
<path d="M1.420 0.723 Q1.589 0.651 1.485 0.553" stroke="hsl(0.0,100%,35%)" stroke-width="0.00196"></path>
<path d="M1.420 0.723 Q1.852 0.694 1.892 0.477" stroke="hsl(0.0,100%,35%)" stroke-width="0.00548"></path>
<path d="M1.420 0.723 Q1.071 0.641 0.835 0.794" stroke="hsl(0.0,100%,35%)" stroke-width="0.00078"></path>
<path d="M1.420 0.723 Q1.437 0.306 0.629 0.207" stroke="hsl(0.0,100%,35%)" stroke-width="0.00039"></path>
<path d="M1.420 0.723 Q1.189 0.586 0.872 0.669" stroke="hsl(0.0,100%,35%)" stroke-width="0.00078"></path>
<path d="M1.420 0.723 Q1.591 0.764 1.711 0.690" stroke="hsl(0.0,100%,35%)" stroke-width="0.00039"></path>
<path d="M1.420 0.723 Q0.815 0.574 0.392 0.837" stroke="hsl(0.0,100%,35%)" stroke-width="0.00039"></path>
<path d="M1.420 0.723 Q1.615 0.709 1.630 0.611" stroke="hsl(0.0,100%,35%)" stroke-width="0.00117"></path>
<path d="M1.420 0.723 Q1.296 0.740 1.302 0.805" stroke="hsl(0.0,100%,35%)" stroke-width="0.00039"></path>
<path d="M0.629 0.207 Q0.888 0.457 1.433 0.386" stroke="hsl(0.0,100%,35%)" stroke-width="0.01135"></path>
<path d="M0.629 0.207 Q0.781 0.551 1.485 0.553" stroke="hsl(0.0,100%,35%)" stroke-width="0.00235"></path>
<path d="M0.629 0.207 Q0.645 0.468 1.158 0.517" stroke="hsl(0.0,100%,35%)" stroke-width="0.00352"></path>
<path d="M0.629 0.207 Q0.806 0.609 1.630 0.611" stroke="hsl(0.0,100%,35%)" stroke-width="0.00117"></path>
<path d="M0.629 0.207 Q1.044 0.595 1.892 0.477" stroke="hsl(0.0,100%,35%)" stroke-width="0.00157"></path>
<path d="M0.629 0.207 Q0.628 0.278 0.768 0.294" stroke="hsl(0.0,100%,35%)" stroke-width="0.00078"></path>
<path d="M0.629 0.207 Q0.612 0.623 1.420 0.723" stroke="hsl(0.0,100%,35%)" stroke-width="0.00039"></path>
<path d="M0.629 0.207 Q0.263 0.542 0.835 0.794" stroke="hsl(0.0,100%,35%)" stroke-width="0.00039"></path>
<path d="M0.629 0.207 Q0.383 0.275 0.463 0.410" stroke="hsl(0.0,100%,35%)" stroke-width="0.00078"></path>
<path d="M0.629 0.207 Q0.381 0.487 0.872 0.669" stroke="hsl(0.0,100%,35%)" stroke-width="0.00078"></path>
<path d="M1.793 0.579 Q1.767 0.410 1.433 0.386" stroke="hsl(0.0,100%,35%)" stroke-width="0.00705"></path>
<path d="M1.793 0.579 Q1.924 0.548 1.892 0.477" stroke="hsl(0.0,100%,35%)" stroke-width="0.00352"></path>
<path d="M1.793 0.579 Q1.525 0.421 1.158 0.517" stroke="hsl(0.0,100%,35%)" stroke-width="0.00039"></path>
<path d="M1.793 0.579 Q1.509 0.160 0.629 0.207" stroke="hsl(0.0,100%,35%)" stroke-width="0.00039"></path>
<path d="M1.793 0.579 Q1.492 0.576 1.420 0.723" stroke="hsl(0.0,100%,35%)" stroke-width="0.00039"></path>
<path d="M1.793 0.579 Q1.260 0.440 0.872 0.669" stroke="hsl(0.0,100%,35%)" stroke-width="0.00235"></path>
<path d="M1.090 0.749 Q1.552 0.636 1.433 0.386" stroke="hsl(0.0,100%,35%)" stroke-width="0.00078"></path>
<path d="M1.090 0.749 Q1.471 0.788 1.630 0.611" stroke="hsl(0.0,100%,35%)" stroke-width="0.00039"></path>
<path d="M1.090 0.749 Q0.927 0.720 0.835 0.794" stroke="hsl(0.0,100%,35%)" stroke-width="0.00039"></path>
<path d="M1.630 0.611 Q1.711 0.459 1.433 0.386" stroke="hsl(0.0,100%,35%)" stroke-width="0.01018"></path>
<path d="M1.630 0.611 Q1.469 0.470 1.158 0.517" stroke="hsl(0.0,100%,35%)" stroke-width="0.00039"></path>
<path d="M1.630 0.611 Q1.868 0.597 1.892 0.477" stroke="hsl(0.0,100%,35%)" stroke-width="0.00235"></path>
<path d="M1.630 0.611 Q1.204 0.489 0.872 0.669" stroke="hsl(0.0,100%,35%)" stroke-width="0.00235"></path>
<path d="M1.630 0.611 Q1.436 0.625 1.420 0.723" stroke="hsl(0.0,100%,35%)" stroke-width="0.00039"></path>
<path d="M0.835 0.794 Q1.460 0.709 1.433 0.386" stroke="hsl(0.0,100%,35%)" stroke-width="0.01566"></path>
<path d="M0.835 0.794 Q0.953 0.739 0.872 0.669" stroke="hsl(0.0,100%,35%)" stroke-width="0.01566"></path>
<path d="M0.835 0.794 Q1.617 0.847 1.892 0.477" stroke="hsl(0.0,100%,35%)" stroke-width="0.00548"></path>
<path d="M0.835 0.794 Q0.788 0.597 0.393 0.577" stroke="hsl(0.0,100%,35%)" stroke-width="0.00078"></path>
<path d="M0.835 0.794 Q0.579 0.727 0.392 0.837" stroke="hsl(0.0,100%,35%)" stroke-width="0.00039"></path>
<path d="M0.835 0.794 Q1.379 0.861 1.630 0.611" stroke="hsl(0.0,100%,35%)" stroke-width="0.00196"></path>
<path d="M0.835 0.794 Q1.028 0.651 0.792 0.526" stroke="hsl(0.0,100%,35%)" stroke-width="0.00039"></path>
<path d="M1.485 0.553 Q1.334 0.208 0.629 0.207" stroke="hsl(0.0,100%,35%)" stroke-width="0.00274"></path>
<path d="M1.485 0.553 Q1.592 0.459 1.433 0.386" stroke="hsl(0.0,100%,35%)" stroke-width="0.01409"></path>
<path d="M1.485 0.553 Q1.350 0.469 1.158 0.517" stroke="hsl(0.0,100%,35%)" stroke-width="0.00666"></path>
<path d="M1.485 0.553 Q1.749 0.596 1.892 0.477" stroke="hsl(0.0,100%,35%)" stroke-width="0.00548"></path>
<path d="M1.485 0.553 Q1.317 0.625 1.420 0.723" stroke="hsl(0.0,100%,35%)" stroke-width="0.00196"></path>
<path d="M1.485 0.553 Q1.085 0.488 0.872 0.669" stroke="hsl(0.0,100%,35%)" stroke-width="0.00509"></path>
<path d="M1.485 0.553 Q1.511 0.611 1.630 0.611" stroke="hsl(0.0,100%,35%)" stroke-width="0.00196"></path>
<path d="M0.577 0.571 Q1.310 0.787 1.892 0.477" stroke="hsl(0.0,100%,35%)" stroke-width="0.00157"></path>
<path d="M0.577 0.571 Q0.646 0.679 0.872 0.669" stroke="hsl(0.0,100%,35%)" stroke-width="0.00783"></path>
<path d="M0.577 0.571 Q1.153 0.650 1.433 0.386" stroke="hsl(0.0,100%,35%)" stroke-width="0.00705"></path>
<path d="M0.577 0.571 Q0.528 0.734 0.835 0.794" stroke="hsl(0.0,100%,35%)" stroke-width="0.00117"></path>
<path d="M1.158 0.517 Q1.142 0.256 0.629 0.207" stroke="hsl(0.0,100%,35%)" stroke-width="0.00157"></path>
<path d="M1.158 0.517 Q1.293 0.601 1.485 0.553" stroke="hsl(0.0,100%,35%)" stroke-width="0.00117"></path>
<path d="M1.158 0.517 Q1.125 0.672 1.420 0.723" stroke="hsl(0.0,100%,35%)" stroke-width="0.00392"></path>
<path d="M1.158 0.517 Q0.893 0.536 0.872 0.669" stroke="hsl(0.0,100%,35%)" stroke-width="0.00470"></path>
<path d="M1.158 0.517 Q1.400 0.507 1.433 0.386" stroke="hsl(0.0,100%,35%)" stroke-width="0.00861"></path>
<path d="M1.158 0.517 Q1.557 0.644 1.892 0.477" stroke="hsl(0.0,100%,35%)" stroke-width="0.00313"></path>
<path d="M1.158 0.517 Q1.141 0.328 0.768 0.294" stroke="hsl(0.0,100%,35%)" stroke-width="0.00117"></path>
<path d="M1.158 0.517 Q0.456 0.592 0.446 0.951" stroke="hsl(0.0,100%,35%)" stroke-width="0.00039"></path>
<path d="M0.768 0.294 Q1.027 0.473 1.433 0.386" stroke="hsl(0.0,100%,35%)" stroke-width="0.00705"></path>
<path d="M0.768 0.294 Q1.184 0.611 1.892 0.477" stroke="hsl(0.0,100%,35%)" stroke-width="0.00392"></path>
<path d="M0.768 0.294 Q0.784 0.484 1.158 0.517" stroke="hsl(0.0,100%,35%)" stroke-width="0.00587"></path>
<path d="M0.768 0.294 Q0.768 0.223 0.629 0.207" stroke="hsl(0.0,100%,35%)" stroke-width="0.00352"></path>
<path d="M0.768 0.294 Q0.752 0.639 1.420 0.723" stroke="hsl(0.0,100%,35%)" stroke-width="0.00078"></path>
<path d="M0.768 0.294 Q0.520 0.503 0.872 0.669" stroke="hsl(0.0,100%,35%)" stroke-width="0.00196"></path>
<path d="M0.768 0.294 Q1.053 0.642 1.793 0.579" stroke="hsl(0.0,100%,35%)" stroke-width="0.00039"></path>
<path d="M0.768 0.294 Q0.946 0.625 1.630 0.611" stroke="hsl(0.0,100%,35%)" stroke-width="0.00078"></path>
<path d="M0.446 0.951 Q0.510 0.883 0.392 0.837" stroke="hsl(0.0,100%,35%)" stroke-width="0.00274"></path>
<path d="M0.446 0.951 Q0.884 0.895 0.872 0.669" stroke="hsl(0.0,100%,35%)" stroke-width="0.00392"></path>
<path d="M0.446 0.951 Q0.767 0.950 0.835 0.794" stroke="hsl(0.0,100%,35%)" stroke-width="0.00078"></path>
<path d="M0.446 0.951 Q1.391 0.865 1.433 0.386" stroke="hsl(0.0,100%,35%)" stroke-width="0.00509"></path>
<path d="M0.446 0.951 Q1.548 1.003 1.892 0.477" stroke="hsl(0.0,100%,35%)" stroke-width="0.00078"></path>
<path d="M0.393 0.577 Q0.441 0.773 0.835 0.794" stroke="hsl(0.0,100%,35%)" stroke-width="0.00039"></path>
<path d="M0.393 0.577 Q0.558 0.719 0.872 0.669" stroke="hsl(0.0,100%,35%)" stroke-width="0.00078"></path>
<path d="M0.393 0.577 Q1.065 0.689 1.433 0.386" stroke="hsl(0.0,100%,35%)" stroke-width="0.00078"></path>
<path d="M1.163 0.544 Q1.424 0.519 1.433 0.386" stroke="hsl(0.0,100%,35%)" stroke-width="0.00039"></path>
<path d="M1.163 0.544 Q1.165 0.340 0.768 0.294" stroke="hsl(0.0,100%,35%)" stroke-width="0.00039"></path>
<path d="M1.163 0.544 Q0.917 0.549 0.872 0.669" stroke="hsl(0.0,100%,35%)" stroke-width="0.00039"></path>
<path d="M1.656 0.526 Q1.813 0.549 1.892 0.477" stroke="hsl(0.0,100%,35%)" stroke-width="0.00431"></path>
<path d="M1.656 0.526 Q1.413 0.422 1.158 0.517" stroke="hsl(0.0,100%,35%)" stroke-width="0.00274"></path>
<path d="M1.656 0.526 Q1.656 0.411 1.433 0.386" stroke="hsl(0.0,100%,35%)" stroke-width="0.00666"></path>
<path d="M1.656 0.526 Q1.549 0.505 1.485 0.553" stroke="hsl(0.0,100%,35%)" stroke-width="0.00039"></path>
<path d="M1.656 0.526 Q1.149 0.441 0.872 0.669" stroke="hsl(0.0,100%,35%)" stroke-width="0.00039"></path>
<path d="M1.944 0.277 Q1.601 0.229 1.433 0.386" stroke="hsl(0.0,100%,35%)" stroke-width="0.00078"></path>
<path d="M1.944 0.277 Q1.342 0.050 0.768 0.294" stroke="hsl(0.0,100%,35%)" stroke-width="0.00039"></path>
<path d="M1.944 0.277 Q1.757 0.367 1.892 0.477" stroke="hsl(0.0,100%,35%)" stroke-width="0.00157"></path>
<path d="M1.519 0.622 Q1.665 0.487 1.433 0.386" stroke="hsl(0.0,100%,35%)" stroke-width="0.00392"></path>
<path d="M1.519 0.622 Q1.194 0.729 1.331 0.911" stroke="hsl(0.0,100%,35%)" stroke-width="0.00039"></path>
<path d="M1.519 0.622 Q1.158 0.516 0.872 0.669" stroke="hsl(0.0,100%,35%)" stroke-width="0.00039"></path>
<path d="M1.519 0.622 Q1.821 0.624 1.892 0.477" stroke="hsl(0.0,100%,35%)" stroke-width="0.00078"></path>
<path d="M0.619 0.962 Q1.486 0.837 1.433 0.386" stroke="hsl(0.0,100%,35%)" stroke-width="0.00039"></path>
<path d="M0.619 0.962 Q0.605 0.854 0.392 0.837" stroke="hsl(0.0,100%,35%)" stroke-width="0.00039"></path>
<path d="M1.711 0.690 Q1.815 0.482 1.433 0.386" stroke="hsl(0.0,100%,35%)" stroke-width="0.00235"></path>
<path d="M1.711 0.690 Q1.308 0.512 0.872 0.669" stroke="hsl(0.0,100%,35%)" stroke-width="0.00157"></path>
<path d="M1.711 0.690 Q1.539 0.648 1.420 0.723" stroke="hsl(0.0,100%,35%)" stroke-width="0.00039"></path>
<path d="M0.392 0.837 Q0.766 0.849 0.872 0.669" stroke="hsl(0.0,100%,35%)" stroke-width="0.00157"></path>
<path d="M0.392 0.837 Q1.430 0.957 1.892 0.477" stroke="hsl(0.0,100%,35%)" stroke-width="0.00117"></path>
<path d="M0.392 0.837 Q0.648 0.904 0.835 0.794" stroke="hsl(0.0,100%,35%)" stroke-width="0.00078"></path>
<path d="M0.392 0.837 Q1.273 0.820 1.433 0.386" stroke="hsl(0.0,100%,35%)" stroke-width="0.00157"></path>
<path d="M0.392 0.837 Q0.328 0.905 0.446 0.951" stroke="hsl(0.0,100%,35%)" stroke-width="0.00078"></path>
<path d="M0.392 0.837 Q0.873 1.003 1.302 0.805" stroke="hsl(0.0,100%,35%)" stroke-width="0.00039"></path>
<path d="M1.705 0.559 Q1.707 0.418 1.433 0.386" stroke="hsl(0.0,100%,35%)" stroke-width="0.01253"></path>
<path d="M1.705 0.559 Q1.864 0.556 1.892 0.477" stroke="hsl(0.0,100%,35%)" stroke-width="0.00274"></path>
<path d="M1.705 0.559 Q1.200 0.448 0.872 0.669" stroke="hsl(0.0,100%,35%)" stroke-width="0.00313"></path>
<path d="M1.705 0.559 Q1.448 0.168 0.629 0.207" stroke="hsl(0.0,100%,35%)" stroke-width="0.00039"></path>
<path d="M0.855 0.471 Q1.212 0.544 1.433 0.386" stroke="hsl(0.0,100%,35%)" stroke-width="0.00352"></path>
<path d="M0.855 0.471 Q0.705 0.574 0.872 0.669" stroke="hsl(0.0,100%,35%)" stroke-width="0.00235"></path>
<path d="M0.855 0.471 Q0.540 0.431 0.393 0.577" stroke="hsl(0.0,100%,35%)" stroke-width="0.00039"></path>
<path d="M0.792 0.526 Q0.280 0.669 0.446 0.951" stroke="hsl(0.0,100%,35%)" stroke-width="0.00039"></path>
<path d="M0.792 0.526 Q0.717 0.613 0.872 0.669" stroke="hsl(0.0,100%,35%)" stroke-width="0.00392"></path>
<path d="M0.792 0.526 Q0.343 0.601 0.392 0.837" stroke="hsl(0.0,100%,35%)" stroke-width="0.00117"></path>
<path d="M0.792 0.526 Q1.224 0.584 1.433 0.386" stroke="hsl(0.0,100%,35%)" stroke-width="0.00352"></path>
<path d="M0.792 0.526 Q0.600 0.668 0.835 0.794" stroke="hsl(0.0,100%,35%)" stroke-width="0.00039"></path>
<path d="M1.601 0.841 Q1.907 0.749 1.793 0.579" stroke="hsl(0.0,100%,35%)" stroke-width="0.00078"></path>
<path d="M1.601 0.841 Q2.038 0.718 1.892 0.477" stroke="hsl(0.0,100%,35%)" stroke-width="0.00078"></path>
<path d="M1.601 0.841 Q1.881 0.580 1.433 0.386" stroke="hsl(0.0,100%,35%)" stroke-width="0.00157"></path>
<path d="M1.601 0.841 Q1.623 0.330 0.629 0.207" stroke="hsl(0.0,100%,35%)" stroke-width="0.00039"></path>
<path d="M1.601 0.841 Q1.374 0.610 0.872 0.669" stroke="hsl(0.0,100%,35%)" stroke-width="0.00078"></path>
<path d="M1.699 0.758 Q1.863 0.519 1.433 0.386" stroke="hsl(0.0,100%,35%)" stroke-width="0.00196"></path>
<path d="M1.699 0.758 Q1.620 0.529 1.158 0.517" stroke="hsl(0.0,100%,35%)" stroke-width="0.00039"></path>
<path d="M1.699 0.758 Q1.889 0.687 1.793 0.579" stroke="hsl(0.0,100%,35%)" stroke-width="0.00078"></path>
<path d="M1.699 0.758 Q1.356 0.548 0.872 0.669" stroke="hsl(0.0,100%,35%)" stroke-width="0.00078"></path>
<path d="M1.805 0.712 Q1.255 0.559 0.835 0.794" stroke="hsl(0.0,100%,35%)" stroke-width="0.00039"></path>
<path d="M1.805 0.712 Q1.372 0.504 0.872 0.669" stroke="hsl(0.0,100%,35%)" stroke-width="0.00196"></path>
<path d="M1.805 0.712 Q1.879 0.474 1.433 0.386" stroke="hsl(0.0,100%,35%)" stroke-width="0.00274"></path>
<path d="M1.805 0.712 Q2.036 0.612 1.892 0.477" stroke="hsl(0.0,100%,35%)" stroke-width="0.00039"></path>
<path d="M1.805 0.712 Q0.998 0.492 0.392 0.837" stroke="hsl(0.0,100%,35%)" stroke-width="0.00078"></path>
<path d="M1.805 0.712 Q1.798 0.626 1.630 0.611" stroke="hsl(0.0,100%,35%)" stroke-width="0.00039"></path>
<path d="M1.883 0.694 Q1.904 0.450 1.433 0.386" stroke="hsl(0.0,100%,35%)" stroke-width="0.00157"></path>
<path d="M1.883 0.694 Q1.397 0.479 0.872 0.669" stroke="hsl(0.0,100%,35%)" stroke-width="0.00039"></path>
<path d="M0.266 0.897 Q0.751 0.905 0.872 0.669" stroke="hsl(0.0,100%,35%)" stroke-width="0.00039"></path>
<path d="M0.266 0.897 Q1.258 0.875 1.433 0.386" stroke="hsl(0.0,100%,35%)" stroke-width="0.00039"></path>
<path d="M0.266 0.897 Q1.415 1.013 1.892 0.477" stroke="hsl(0.0,100%,35%)" stroke-width="0.00039"></path>
<path d="M0.266 0.897 Q0.377 0.892 0.392 0.837" stroke="hsl(0.0,100%,35%)" stroke-width="0.00039"></path>
<path d="M0.266 0.897 Q0.391 1.000 0.619 0.962" stroke="hsl(0.0,100%,35%)" stroke-width="0.00039"></path>
<path d="M1.968 0.640 Q1.903 0.406 1.433 0.386" stroke="hsl(0.0,100%,35%)" stroke-width="0.00666"></path>
<path d="M1.968 0.640 Q1.396 0.436 0.872 0.669" stroke="hsl(0.0,100%,35%)" stroke-width="0.00196"></path>
<path d="M1.968 0.640 Q1.279 0.490 0.835 0.794" stroke="hsl(0.0,100%,35%)" stroke-width="0.00313"></path>
<path d="M0.545 0.708 Q1.246 0.725 1.433 0.386" stroke="hsl(0.0,100%,35%)" stroke-width="0.00235"></path>
<path d="M0.545 0.708 Q0.739 0.754 0.872 0.669" stroke="hsl(0.0,100%,35%)" stroke-width="0.00039"></path>
<path d="M0.545 0.708 Q0.622 0.809 0.835 0.794" stroke="hsl(0.0,100%,35%)" stroke-width="0.00196"></path>
<path d="M0.545 0.708 Q0.365 0.742 0.392 0.837" stroke="hsl(0.0,100%,35%)" stroke-width="0.00039"></path>
<path d="M1.667 0.479 Q1.349 0.552 1.420 0.723" stroke="hsl(0.0,100%,35%)" stroke-width="0.00352"></path>
<path d="M1.667 0.479 Q1.625 0.386 1.433 0.386" stroke="hsl(0.0,100%,35%)" stroke-width="0.00940"></path>
<path d="M1.667 0.479 Q1.118 0.415 0.872 0.669" stroke="hsl(0.0,100%,35%)" stroke-width="0.00039"></path>
<path d="M1.667 0.479 Q1.781 0.523 1.892 0.477" stroke="hsl(0.0,100%,35%)" stroke-width="0.00039"></path>
<path d="M1.667 0.479 Q1.518 0.480 1.485 0.553" stroke="hsl(0.0,100%,35%)" stroke-width="0.00078"></path>
<path d="M1.667 0.479 Q1.365 0.207 0.768 0.294" stroke="hsl(0.0,100%,35%)" stroke-width="0.00039"></path>
<path d="M0.618 0.444 Q0.565 0.608 0.872 0.669" stroke="hsl(0.0,100%,35%)" stroke-width="0.00235"></path>
<path d="M0.618 0.444 Q1.122 0.303 0.957 0.027" stroke="hsl(0.0,100%,35%)" stroke-width="0.00117"></path>
<path d="M0.618 0.444 Q1.072 0.578 1.433 0.386" stroke="hsl(0.0,100%,35%)" stroke-width="0.00157"></path>
<path d="M1.392 0.739 Q1.851 0.708 1.892 0.477" stroke="hsl(0.0,100%,35%)" stroke-width="0.00078"></path>
<path d="M1.392 0.739 Q1.188 0.600 0.872 0.669" stroke="hsl(0.0,100%,35%)" stroke-width="0.00039"></path>
<path d="M1.392 0.739 Q1.695 0.570 1.433 0.386" stroke="hsl(0.0,100%,35%)" stroke-width="0.00039"></path>
<path d="M0.426 0.293 Q0.855 0.541 1.433 0.386" stroke="hsl(0.0,100%,35%)" stroke-width="0.00157"></path>
<path d="M0.426 0.293 Q0.597 0.291 0.629 0.207" stroke="hsl(0.0,100%,35%)" stroke-width="0.00078"></path>
<path d="M0.426 0.293 Q0.596 0.362 0.768 0.294" stroke="hsl(0.0,100%,35%)" stroke-width="0.00157"></path>
<path d="M1.673 0.300 Q1.484 0.295 1.433 0.386" stroke="hsl(0.0,100%,35%)" stroke-width="0.00078"></path>
<path d="M1.673 0.300 Q1.641 0.433 1.892 0.477" stroke="hsl(0.0,100%,35%)" stroke-width="0.00117"></path>
<path d="M1.673 0.300 Q0.603 0.312 0.392 0.837" stroke="hsl(0.0,100%,35%)" stroke-width="0.00039"></path>
<path d="M1.673 0.300 Q1.127 0.222 0.855 0.471" stroke="hsl(0.0,100%,35%)" stroke-width="0.00078"></path>
<path d="M1.673 0.300 Q0.977 0.325 0.872 0.669" stroke="hsl(0.0,100%,35%)" stroke-width="0.00039"></path>
</g>
<text x="1.403" y="0.676" font-size="0.013245" fill="hsl(0.0,100%,20%)">aleino</text>
<text x="1.433" y="0.334" font-size="0.104136" fill="hsl(0.0,100%,20%)">jmadill</text>
<text x="0.872" y="0.637" font-size="0.064294" fill="hsl(0.0,100%,20%)">geofflang</text>
<text x="1.733" y="0.618" font-size="0.006623" fill="hsl(0.0,100%,20%)">kkinnunen</text>
<text x="1.184" y="0.129" font-size="0.007404" fill="hsl(0.0,100%,20%)">artyom</text>
<text x="1.892" y="0.440" font-size="0.074780" fill="hsl(0.0,100%,20%)">syoussefi</text>
<text x="0.957" y="0.023" font-size="0.008111" fill="hsl(0.0,100%,20%)">rafael.cintron</text>
<text x="1.810" y="0.530" font-size="0.015174" fill="hsl(0.0,100%,20%)">b.schade</text>
<text x="1.331" y="0.906" font-size="0.009934" fill="hsl(0.0,100%,20%)">cclao</text>
<text x="1.420" y="0.701" font-size="0.042276" fill="hsl(0.0,100%,20%)">tobine</text>
<text x="0.629" y="0.187" font-size="0.039736" fill="hsl(0.0,100%,20%)">cnorthrop</text>
<text x="1.793" y="0.568" font-size="0.022459" fill="hsl(0.0,100%,20%)">m.maiya</text>
<text x="1.090" y="0.746" font-size="0.006623" fill="hsl(0.0,100%,20%)">bsheedy</text>
<text x="1.630" y="0.590" font-size="0.040555" fill="hsl(0.0,100%,20%)">ynovikov</text>
<text x="0.835" y="0.768" font-size="0.051299" fill="hsl(0.0,100%,20%)">jonahr</text>
<text x="1.485" y="0.529" font-size="0.047642" fill="hsl(0.0,100%,20%)">timvp</text>
<text x="0.577" y="0.560" font-size="0.022942" fill="hsl(0.0,100%,20%)">clemendeng</text>
<text x="1.158" y="0.497" font-size="0.041623" fill="hsl(0.0,100%,20%)">courtneygo</text>
<text x="0.768" y="0.279" font-size="0.031761" fill="hsl(0.0,100%,20%)">ianelliott</text>
<text x="0.463" y="0.407" font-size="0.005735" fill="hsl(0.0,100%,20%)">lfy</text>
<text x="0.446" y="0.940" font-size="0.020943" fill="hsl(0.0,100%,20%)">jdarpinian</text>
<text x="0.393" y="0.570" font-size="0.012390" fill="hsl(0.0,100%,20%)">cwallez</text>
<text x="1.163" y="0.541" font-size="0.005735" fill="hsl(0.0,100%,20%)">davidben</text>
<text x="1.656" y="0.515" font-size="0.020412" fill="hsl(0.0,100%,20%)">dongja</text>
<text x="1.944" y="0.272" font-size="0.008761" fill="hsl(0.0,100%,20%)">ericbinet</text>
<text x="1.519" y="0.615" font-size="0.012825" fill="hsl(0.0,100%,20%)">flibitijibibo</text>
<text x="0.619" y="0.958" font-size="0.006623" fill="hsl(0.0,100%,20%)">zmo</text>
<text x="1.711" y="0.683" font-size="0.013245" fill="hsl(0.0,100%,20%)">sugoi</text>
<text x="0.392" y="0.826" font-size="0.020943" fill="hsl(0.0,100%,20%)">kbr</text>
<text x="1.705" y="0.547" font-size="0.024107" fill="hsl(0.0,100%,20%)">spang</text>
<text x="0.855" y="0.463" font-size="0.016222" fill="hsl(0.0,100%,20%)">jiajia.qin</text>
<text x="0.792" y="0.517" font-size="0.016885" fill="hsl(0.0,100%,20%)">shrekshao</text>
<text x="1.601" y="0.836" font-size="0.011471" fill="hsl(0.0,100%,20%)">hckim.kim</text>
<text x="1.699" y="0.752" font-size="0.010471" fill="hsl(0.0,100%,20%)">j.vigil</text>
<text x="1.805" y="0.705" font-size="0.013653" fill="hsl(0.0,100%,20%)">jgilbert</text>
<text x="1.883" y="0.690" font-size="0.007404" fill="hsl(0.0,100%,20%)">jie.a.chen</text>
<text x="1.341" y="0.468" font-size="0.003311" fill="hsl(0.0,100%,20%)">amaiorano</text>
<text x="1.310" y="0.532" font-size="0.003311" fill="hsl(0.0,100%,20%)">le.hoang.q</text>
<text x="1.379" y="0.553" font-size="0.003311" fill="hsl(0.0,100%,20%)">brucedawson</text>
<text x="1.302" y="0.802" font-size="0.004683" fill="hsl(0.0,100%,20%)">kainino</text>
<text x="0.266" y="0.893" font-size="0.007404" fill="hsl(0.0,100%,20%)">khushalsagar</text>
<text x="1.968" y="0.631" font-size="0.018137" fill="hsl(0.0,100%,20%)">lehoangq</text>
<text x="0.545" y="0.702" font-size="0.011939" fill="hsl(0.0,100%,20%)">lexa.knyazev</text>
<text x="1.667" y="0.469" font-size="0.020412" fill="hsl(0.0,100%,20%)">lujc</text>
<text x="0.618" y="0.438" font-size="0.011939" fill="hsl(0.0,100%,20%)">mihu</text>
<text x="1.392" y="0.735" font-size="0.006623" fill="hsl(0.0,100%,20%)">shaobo.yan</text>
<text x="1.925" y="0.211" font-size="0.003311" fill="hsl(0.0,100%,20%)">jaedon1.lee</text>
<text x="0.426" y="0.288" font-size="0.010982" fill="hsl(0.0,100%,20%)">xinyi.he</text>
<text x="1.964" y="0.491" font-size="0.004683" fill="hsl(0.0,100%,20%)">sunny.sun</text>
<text x="1.888" y="-0.080" font-size="0.003311" fill="hsl(0.0,100%,20%)">fei.yang</text>
<text x="1.673" y="0.295" font-size="0.009934" fill="hsl(0.0,100%,20%)">xinghua.cao</text>
</svg>
