<svg width="4000" height="2000" viewBox="-0.025 -0.025 2.05 1.05" xmlns="http://www.w3.org/2000/svg">
  <style>
    path {
      fill: none;
      stroke-linecap: round;
      stroke-opacity: 0.4;
    }

    text {
      text-anchor: middle;
      alignment-baseline: hanging;
    }
  </style>
  <g opacity="0.4">
<path d="M1.694 0.944 Q1.240 0.598 0.466 0.744" stroke="hsl(0.0,100%,35%)" stroke-width="0.00043"></path>
<path d="M1.694 0.944 Q1.861 0.905 1.821 0.815" stroke="hsl(0.0,100%,35%)" stroke-width="0.00043"></path>
<path d="M1.694 0.944 Q1.552 0.631 0.909 0.632" stroke="hsl(0.0,100%,35%)" stroke-width="0.00022"></path>
<path d="M0.466 0.744 Q0.436 0.657 0.261 0.653" stroke="hsl(0.0,100%,35%)" stroke-width="0.01821"></path>
<path d="M0.466 0.744 Q0.663 0.705 0.632 0.601" stroke="hsl(0.0,100%,35%)" stroke-width="0.00238"></path>
<path d="M0.466 0.744 Q0.530 0.627 0.318 0.570" stroke="hsl(0.0,100%,35%)" stroke-width="0.02948"></path>
<path d="M0.466 0.744 Q1.019 0.623 0.906 0.327" stroke="hsl(0.0,100%,35%)" stroke-width="0.02710"></path>
<path d="M0.466 0.744 Q1.091 0.565 0.881 0.221" stroke="hsl(0.0,100%,35%)" stroke-width="0.02211"></path>
<path d="M0.466 0.744 Q0.653 0.525 0.268 0.386" stroke="hsl(0.0,100%,35%)" stroke-width="0.02623"></path>
<path d="M0.466 0.744 Q0.380 0.608 0.096 0.620" stroke="hsl(0.0,100%,35%)" stroke-width="0.00065"></path>
<path d="M0.466 0.744 Q0.332 0.765 0.344 0.835" stroke="hsl(0.0,100%,35%)" stroke-width="0.00043"></path>
<path d="M0.466 0.744 Q0.262 0.698 0.128 0.787" stroke="hsl(0.0,100%,35%)" stroke-width="0.00087"></path>
<path d="M0.466 0.744 Q0.777 0.776 0.909 0.632" stroke="hsl(0.0,100%,35%)" stroke-width="0.01019"></path>
<path d="M0.466 0.744 Q1.207 0.720 1.323 0.353" stroke="hsl(0.0,100%,35%)" stroke-width="0.00737"></path>
<path d="M0.466 0.744 Q0.752 1.021 1.355 0.942" stroke="hsl(0.0,100%,35%)" stroke-width="0.00022"></path>
<path d="M0.466 0.744 Q0.592 0.781 0.693 0.727" stroke="hsl(0.0,100%,35%)" stroke-width="0.00108"></path>
<path d="M0.466 0.744 Q0.858 0.581 0.627 0.354" stroke="hsl(0.0,100%,35%)" stroke-width="0.00434"></path>
<path d="M0.466 0.744 Q0.695 0.603 0.471 0.460" stroke="hsl(0.0,100%,35%)" stroke-width="0.00022"></path>
<path d="M0.466 0.744 Q1.285 0.527 1.042 0.079" stroke="hsl(0.0,100%,35%)" stroke-width="0.00303"></path>
<path d="M0.466 0.744 Q0.891 0.954 1.396 0.793" stroke="hsl(0.0,100%,35%)" stroke-width="0.00022"></path>
<path d="M0.466 0.744 Q0.355 0.702 0.250 0.747" stroke="hsl(0.0,100%,35%)" stroke-width="0.00022"></path>
<path d="M0.466 0.744 Q0.348 0.849 0.528 0.929" stroke="hsl(0.0,100%,35%)" stroke-width="0.00022"></path>
<path d="M0.466 0.744 Q0.997 0.754 1.134 0.497" stroke="hsl(0.0,100%,35%)" stroke-width="0.00022"></path>
<path d="M0.466 0.744 Q0.314 0.703 0.201 0.768" stroke="hsl(0.0,100%,35%)" stroke-width="0.00022"></path>
<path d="M0.466 0.744 Q0.435 0.814 0.565 0.844" stroke="hsl(0.0,100%,35%)" stroke-width="0.00022"></path>
<path d="M0.466 0.744 Q0.915 0.673 0.876 0.438" stroke="hsl(0.0,100%,35%)" stroke-width="0.00022"></path>
<path d="M0.466 0.744 Q0.485 0.554 0.119 0.502" stroke="hsl(0.0,100%,35%)" stroke-width="0.00130"></path>
<path d="M0.909 0.632 Q0.598 0.599 0.466 0.744" stroke="hsl(0.0,100%,35%)" stroke-width="0.00672"></path>
<path d="M0.909 0.632 Q1.223 0.421 0.881 0.221" stroke="hsl(0.0,100%,35%)" stroke-width="0.00152"></path>
<path d="M0.909 0.632 Q0.975 0.575 0.879 0.530" stroke="hsl(0.0,100%,35%)" stroke-width="0.00108"></path>
<path d="M0.909 0.632 Q1.322 0.478 1.112 0.243" stroke="hsl(0.0,100%,35%)" stroke-width="0.00022"></path>
<path d="M0.909 0.632 Q1.339 0.575 1.323 0.353" stroke="hsl(0.0,100%,35%)" stroke-width="0.00390"></path>
<path d="M0.909 0.632 Q0.639 0.735 0.781 0.889" stroke="hsl(0.0,100%,35%)" stroke-width="0.00022"></path>
<path d="M0.909 0.632 Q0.662 0.483 0.318 0.570" stroke="hsl(0.0,100%,35%)" stroke-width="0.00065"></path>
<path d="M0.909 0.632 Q0.568 0.513 0.261 0.653" stroke="hsl(0.0,100%,35%)" stroke-width="0.00065"></path>
<path d="M0.909 0.632 Q1.151 0.479 0.906 0.327" stroke="hsl(0.0,100%,35%)" stroke-width="0.00173"></path>
<path d="M0.909 0.632 Q1.023 0.810 1.396 0.793" stroke="hsl(0.0,100%,35%)" stroke-width="0.00130"></path>
<path d="M0.909 0.632 Q0.990 0.437 0.627 0.354" stroke="hsl(0.0,100%,35%)" stroke-width="0.00043"></path>
<path d="M0.909 0.632 Q0.785 0.380 0.268 0.386" stroke="hsl(0.0,100%,35%)" stroke-width="0.00022"></path>
<path d="M1.579 0.841 Q1.100 0.569 0.466 0.744" stroke="hsl(0.0,100%,35%)" stroke-width="0.00022"></path>
<path d="M1.579 0.841 Q1.386 0.846 1.355 0.942" stroke="hsl(0.0,100%,35%)" stroke-width="0.00022"></path>
<path d="M1.579 0.841 Q1.165 0.453 0.318 0.570" stroke="hsl(0.0,100%,35%)" stroke-width="0.00022"></path>
<path d="M0.318 0.570 Q0.253 0.686 0.466 0.744" stroke="hsl(0.0,100%,35%)" stroke-width="0.01084"></path>
<path d="M0.318 0.570 Q1.073 0.470 1.042 0.079" stroke="hsl(0.0,100%,35%)" stroke-width="0.00087"></path>
<path d="M0.318 0.570 Q0.879 0.508 0.881 0.221" stroke="hsl(0.0,100%,35%)" stroke-width="0.00108"></path>
<path d="M0.318 0.570 Q0.994 0.663 1.323 0.353" stroke="hsl(0.0,100%,35%)" stroke-width="0.00065"></path>
<path d="M0.318 0.570 Q1.132 0.518 1.210 0.110" stroke="hsl(0.0,100%,35%)" stroke-width="0.00022"></path>
<path d="M0.318 0.570 Q0.272 0.739 0.591 0.798" stroke="hsl(0.0,100%,35%)" stroke-width="0.00022"></path>
<path d="M0.834 0.562 Q0.505 0.579 0.466 0.744" stroke="hsl(0.0,100%,35%)" stroke-width="0.00260"></path>
<path d="M0.834 0.562 Q1.130 0.401 0.881 0.221" stroke="hsl(0.0,100%,35%)" stroke-width="0.00217"></path>
<path d="M0.834 0.562 Q1.058 0.459 0.906 0.327" stroke="hsl(0.0,100%,35%)" stroke-width="0.00022"></path>
<path d="M0.834 0.562 Q0.816 0.612 0.909 0.632" stroke="hsl(0.0,100%,35%)" stroke-width="0.00043"></path>
<path d="M0.834 0.562 Q1.324 0.362 1.042 0.079" stroke="hsl(0.0,100%,35%)" stroke-width="0.00043"></path>
<path d="M0.834 0.562 Q0.524 0.389 0.119 0.502" stroke="hsl(0.0,100%,35%)" stroke-width="0.00022"></path>
<path d="M0.881 0.221 Q0.256 0.399 0.466 0.744" stroke="hsl(0.0,100%,35%)" stroke-width="0.07132"></path>
<path d="M0.881 0.221 Q0.809 0.279 0.906 0.327" stroke="hsl(0.0,100%,35%)" stroke-width="0.04726"></path>
<path d="M0.881 0.221 Q0.681 0.610 1.396 0.793" stroke="hsl(0.0,100%,35%)" stroke-width="0.00130"></path>
<path d="M0.881 0.221 Q0.320 0.283 0.318 0.570" stroke="hsl(0.0,100%,35%)" stroke-width="0.00585"></path>
<path d="M0.881 0.221 Q0.124 0.466 0.436 0.890" stroke="hsl(0.0,100%,35%)" stroke-width="0.00022"></path>
<path d="M0.881 0.221 Q0.997 0.375 1.323 0.353" stroke="hsl(0.0,100%,35%)" stroke-width="0.00477"></path>
<path d="M0.881 0.221 Q0.648 0.237 0.627 0.354" stroke="hsl(0.0,100%,35%)" stroke-width="0.01517"></path>
<path d="M0.881 0.221 Q1.075 0.182 1.042 0.079" stroke="hsl(0.0,100%,35%)" stroke-width="0.00477"></path>
<path d="M0.881 0.221 Q0.567 0.432 0.909 0.632" stroke="hsl(0.0,100%,35%)" stroke-width="0.00173"></path>
<path d="M0.881 0.221 Q0.443 0.181 0.268 0.386" stroke="hsl(0.0,100%,35%)" stroke-width="0.00065"></path>
<path d="M0.881 0.221 Q0.453 0.361 0.632 0.601" stroke="hsl(0.0,100%,35%)" stroke-width="0.00238"></path>
<path d="M0.881 0.221 Q0.987 0.303 1.171 0.269" stroke="hsl(0.0,100%,35%)" stroke-width="0.00043"></path>
<path d="M0.881 0.221 Q1.171 0.258 1.307 0.125" stroke="hsl(0.0,100%,35%)" stroke-width="0.00022"></path>
<path d="M0.881 0.221 Q0.925 0.518 1.514 0.562" stroke="hsl(0.0,100%,35%)" stroke-width="0.00022"></path>
<path d="M0.881 0.221 Q0.225 0.469 0.565 0.844" stroke="hsl(0.0,100%,35%)" stroke-width="0.00022"></path>
<path d="M0.881 0.221 Q0.819 0.598 1.541 0.711" stroke="hsl(0.0,100%,35%)" stroke-width="0.00022"></path>
<path d="M0.881 0.221 Q0.825 0.145 0.664 0.155" stroke="hsl(0.0,100%,35%)" stroke-width="0.00022"></path>
<path d="M0.881 0.221 Q0.979 0.278 1.112 0.243" stroke="hsl(0.0,100%,35%)" stroke-width="0.00043"></path>
<path d="M0.881 0.221 Q0.226 0.313 0.261 0.653" stroke="hsl(0.0,100%,35%)" stroke-width="0.00195"></path>
<path d="M0.881 0.221 Q0.696 0.481 1.163 0.629" stroke="hsl(0.0,100%,35%)" stroke-width="0.00022"></path>
<path d="M0.906 0.327 Q0.540 0.229 0.268 0.386" stroke="hsl(0.0,100%,35%)" stroke-width="0.00737"></path>
<path d="M0.906 0.327 Q0.353 0.447 0.466 0.744" stroke="hsl(0.0,100%,35%)" stroke-width="0.01908"></path>
<path d="M0.906 0.327 Q0.979 0.269 0.881 0.221" stroke="hsl(0.0,100%,35%)" stroke-width="0.00780"></path>
<path d="M0.906 0.327 Q0.664 0.480 0.909 0.632" stroke="hsl(0.0,100%,35%)" stroke-width="0.00325"></path>
<path d="M0.906 0.327 Q0.418 0.331 0.318 0.570" stroke="hsl(0.0,100%,35%)" stroke-width="0.00108"></path>
<path d="M0.906 0.327 Q0.745 0.285 0.627 0.354" stroke="hsl(0.0,100%,35%)" stroke-width="0.00499"></path>
<path d="M0.906 0.327 Q0.873 0.270 0.754 0.273" stroke="hsl(0.0,100%,35%)" stroke-width="0.00022"></path>
<path d="M0.906 0.327 Q1.173 0.230 1.042 0.079" stroke="hsl(0.0,100%,35%)" stroke-width="0.00065"></path>
<path d="M0.906 0.327 Q0.884 0.458 1.134 0.497" stroke="hsl(0.0,100%,35%)" stroke-width="0.00022"></path>
<path d="M0.906 0.327 Q0.323 0.361 0.261 0.653" stroke="hsl(0.0,100%,35%)" stroke-width="0.00152"></path>
<path d="M0.906 0.327 Q0.802 0.376 0.876 0.438" stroke="hsl(0.0,100%,35%)" stroke-width="0.00022"></path>
<path d="M1.042 0.079 Q0.223 0.296 0.466 0.744" stroke="hsl(0.0,100%,35%)" stroke-width="0.00520"></path>
<path d="M1.042 0.079 Q0.848 0.118 0.881 0.221" stroke="hsl(0.0,100%,35%)" stroke-width="0.00629"></path>
<path d="M1.042 0.079 Q0.410 0.077 0.268 0.386" stroke="hsl(0.0,100%,35%)" stroke-width="0.00369"></path>
<path d="M1.042 0.079 Q1.210 0.164 1.411 0.100" stroke="hsl(0.0,100%,35%)" stroke-width="0.00065"></path>
<path d="M1.042 0.079 Q0.471 0.393 0.957 0.740" stroke="hsl(0.0,100%,35%)" stroke-width="0.00022"></path>
<path d="M1.042 0.079 Q0.648 0.507 1.396 0.793" stroke="hsl(0.0,100%,35%)" stroke-width="0.00022"></path>
<path d="M1.042 0.079 Q0.534 0.329 0.909 0.632" stroke="hsl(0.0,100%,35%)" stroke-width="0.00043"></path>
<path d="M1.042 0.079 Q0.615 0.134 0.627 0.354" stroke="hsl(0.0,100%,35%)" stroke-width="0.00152"></path>
<path d="M1.042 0.079 Q0.776 0.176 0.906 0.327" stroke="hsl(0.0,100%,35%)" stroke-width="0.00369"></path>
<path d="M1.042 0.079 Q0.287 0.180 0.318 0.570" stroke="hsl(0.0,100%,35%)" stroke-width="0.00173"></path>
<path d="M1.042 0.079 Q0.193 0.210 0.261 0.653" stroke="hsl(0.0,100%,35%)" stroke-width="0.00260"></path>
<path d="M0.119 0.502 Q0.070 0.606 0.261 0.653" stroke="hsl(0.0,100%,35%)" stroke-width="0.00087"></path>
<path d="M0.119 0.502 Q0.410 0.725 0.909 0.632" stroke="hsl(0.0,100%,35%)" stroke-width="0.00022"></path>
<path d="M0.119 0.502 Q0.653 0.572 0.906 0.327" stroke="hsl(0.0,100%,35%)" stroke-width="0.00043"></path>
<path d="M0.119 0.502 Q0.099 0.692 0.466 0.744" stroke="hsl(0.0,100%,35%)" stroke-width="0.00022"></path>
<path d="M0.119 0.502 Q0.725 0.514 0.881 0.221" stroke="hsl(0.0,100%,35%)" stroke-width="0.00022"></path>
<path d="M0.119 0.502 Q0.287 0.474 0.268 0.386" stroke="hsl(0.0,100%,35%)" stroke-width="0.00022"></path>
<path d="M0.664 0.155 Q0.094 0.410 0.466 0.744" stroke="hsl(0.0,100%,35%)" stroke-width="0.00325"></path>
<path d="M0.664 0.155 Q0.720 0.232 0.881 0.221" stroke="hsl(0.0,100%,35%)" stroke-width="0.00325"></path>
<path d="M0.664 0.155 Q0.648 0.290 0.906 0.327" stroke="hsl(0.0,100%,35%)" stroke-width="0.00065"></path>
<path d="M0.664 0.155 Q0.486 0.247 0.627 0.354" stroke="hsl(0.0,100%,35%)" stroke-width="0.00022"></path>
<path d="M0.627 0.354 Q0.235 0.517 0.466 0.744" stroke="hsl(0.0,100%,35%)" stroke-width="0.01561"></path>
<path d="M0.627 0.354 Q0.861 0.338 0.881 0.221" stroke="hsl(0.0,100%,35%)" stroke-width="0.00910"></path>
<path d="M0.627 0.354 Q0.789 0.396 0.906 0.327" stroke="hsl(0.0,100%,35%)" stroke-width="0.01062"></path>
<path d="M0.627 0.354 Q1.055 0.300 1.042 0.079" stroke="hsl(0.0,100%,35%)" stroke-width="0.00542"></path>
<path d="M0.627 0.354 Q0.546 0.549 0.909 0.632" stroke="hsl(0.0,100%,35%)" stroke-width="0.00043"></path>
<path d="M0.627 0.354 Q0.423 0.298 0.268 0.386" stroke="hsl(0.0,100%,35%)" stroke-width="0.00130"></path>
<path d="M0.627 0.354 Q0.206 0.430 0.261 0.653" stroke="hsl(0.0,100%,35%)" stroke-width="0.00065"></path>
<path d="M0.627 0.354 Q0.433 0.478 0.632 0.601" stroke="hsl(0.0,100%,35%)" stroke-width="0.00022"></path>
<path d="M1.163 0.629 Q1.034 0.579 0.909 0.632" stroke="hsl(0.0,100%,35%)" stroke-width="0.00043"></path>
<path d="M1.163 0.629 Q0.723 0.546 0.466 0.744" stroke="hsl(0.0,100%,35%)" stroke-width="0.00043"></path>
<path d="M1.163 0.629 Q1.348 0.368 0.881 0.221" stroke="hsl(0.0,100%,35%)" stroke-width="0.00022"></path>
<path d="M0.268 0.386 Q0.634 0.484 0.906 0.327" stroke="hsl(0.0,100%,35%)" stroke-width="0.01171"></path>
<path d="M0.268 0.386 Q0.080 0.604 0.466 0.744" stroke="hsl(0.0,100%,35%)" stroke-width="0.02146"></path>
<path d="M0.268 0.386 Q0.278 0.566 0.632 0.601" stroke="hsl(0.0,100%,35%)" stroke-width="0.00065"></path>
<path d="M0.268 0.386 Q0.706 0.426 0.881 0.221" stroke="hsl(0.0,100%,35%)" stroke-width="0.00152"></path>
<path d="M0.268 0.386 Q0.473 0.442 0.627 0.354" stroke="hsl(0.0,100%,35%)" stroke-width="0.00065"></path>
<path d="M0.268 0.386 Q0.145 0.488 0.318 0.570" stroke="hsl(0.0,100%,35%)" stroke-width="0.00022"></path>
<path d="M0.268 0.386 Q-0.071 0.563 0.201 0.768" stroke="hsl(0.0,100%,35%)" stroke-width="0.00022"></path>
<path d="M0.268 0.386 Q0.051 0.518 0.261 0.653" stroke="hsl(0.0,100%,35%)" stroke-width="0.00455"></path>
<path d="M0.268 0.386 Q0.446 0.357 0.429 0.264" stroke="hsl(0.0,100%,35%)" stroke-width="0.00043"></path>
<path d="M0.261 0.653 Q0.291 0.739 0.466 0.744" stroke="hsl(0.0,100%,35%)" stroke-width="0.00499"></path>
<path d="M0.261 0.653 Q0.916 0.561 0.881 0.221" stroke="hsl(0.0,100%,35%)" stroke-width="0.00238"></path>
<path d="M0.261 0.653 Q0.844 0.619 0.906 0.327" stroke="hsl(0.0,100%,35%)" stroke-width="0.00369"></path>
<path d="M0.261 0.653 Q0.355 0.623 0.318 0.570" stroke="hsl(0.0,100%,35%)" stroke-width="0.00022"></path>
<path d="M0.261 0.653 Q0.478 0.520 0.268 0.386" stroke="hsl(0.0,100%,35%)" stroke-width="0.00087"></path>
<path d="M0.261 0.653 Q1.110 0.522 1.042 0.079" stroke="hsl(0.0,100%,35%)" stroke-width="0.00065"></path>
<path d="M0.261 0.653 Q0.683 0.577 0.627 0.354" stroke="hsl(0.0,100%,35%)" stroke-width="0.00022"></path>
<path d="M0.261 0.653 Q0.602 0.772 0.909 0.632" stroke="hsl(0.0,100%,35%)" stroke-width="0.00043"></path>
<path d="M0.261 0.653 Q0.310 0.549 0.119 0.502" stroke="hsl(0.0,100%,35%)" stroke-width="0.00043"></path>
<path d="M0.632 0.601 Q0.435 0.639 0.466 0.744" stroke="hsl(0.0,100%,35%)" stroke-width="0.02580"></path>
<path d="M0.632 0.601 Q1.060 0.461 0.881 0.221" stroke="hsl(0.0,100%,35%)" stroke-width="0.02515"></path>
<path d="M0.632 0.601 Q0.988 0.519 0.906 0.327" stroke="hsl(0.0,100%,35%)" stroke-width="0.00282"></path>
<path d="M0.632 0.601 Q0.746 0.671 0.909 0.632" stroke="hsl(0.0,100%,35%)" stroke-width="0.00065"></path>
<path d="M0.632 0.601 Q0.622 0.420 0.268 0.386" stroke="hsl(0.0,100%,35%)" stroke-width="0.00065"></path>
<path d="M0.632 0.601 Q0.405 0.552 0.261 0.653" stroke="hsl(0.0,100%,35%)" stroke-width="0.00022"></path>
<path d="M0.632 0.601 Q1.254 0.422 1.042 0.079" stroke="hsl(0.0,100%,35%)" stroke-width="0.00022"></path>
<path d="M0.528 0.929 Q0.645 0.824 0.466 0.744" stroke="hsl(0.0,100%,35%)" stroke-width="0.00043"></path>
<path d="M0.528 0.929 Q1.271 0.646 0.881 0.221" stroke="hsl(0.0,100%,35%)" stroke-width="0.00065"></path>
<path d="M0.528 0.929 Q0.710 0.708 0.318 0.570" stroke="hsl(0.0,100%,35%)" stroke-width="0.00022"></path>
<path d="M0.879 0.530 Q0.813 0.587 0.909 0.632" stroke="hsl(0.0,100%,35%)" stroke-width="0.00477"></path>
<path d="M0.879 0.530 Q1.243 0.530 1.323 0.353" stroke="hsl(0.0,100%,35%)" stroke-width="0.00195"></path>
<path d="M0.879 0.530 Q1.127 0.376 0.881 0.221" stroke="hsl(0.0,100%,35%)" stroke-width="0.00152"></path>
<path d="M0.879 0.530 Q0.927 0.765 1.396 0.793" stroke="hsl(0.0,100%,35%)" stroke-width="0.00022"></path>
<path d="M0.879 0.530 Q0.501 0.554 0.466 0.744" stroke="hsl(0.0,100%,35%)" stroke-width="0.00217"></path>
<path d="M1.323 0.353 Q0.582 0.377 0.466 0.744" stroke="hsl(0.0,100%,35%)" stroke-width="0.00672"></path>
<path d="M1.323 0.353 Q0.770 0.158 0.268 0.386" stroke="hsl(0.0,100%,35%)" stroke-width="0.00043"></path>
<path d="M1.323 0.353 Q0.647 0.261 0.318 0.570" stroke="hsl(0.0,100%,35%)" stroke-width="0.00087"></path>
<path d="M1.323 0.353 Q0.893 0.409 0.909 0.632" stroke="hsl(0.0,100%,35%)" stroke-width="0.00390"></path>
<path d="M1.323 0.353 Q1.208 0.199 0.881 0.221" stroke="hsl(0.0,100%,35%)" stroke-width="0.00369"></path>
<path d="M1.323 0.353 Q1.008 0.587 1.396 0.793" stroke="hsl(0.0,100%,35%)" stroke-width="0.00043"></path>
<path d="M1.323 0.353 Q1.136 0.257 0.906 0.327" stroke="hsl(0.0,100%,35%)" stroke-width="0.00022"></path>
<path d="M0.781 0.889 Q0.740 0.753 0.466 0.744" stroke="hsl(0.0,100%,35%)" stroke-width="0.00564"></path>
<path d="M0.781 0.889 Q1.165 0.964 1.396 0.793" stroke="hsl(0.0,100%,35%)" stroke-width="0.00087"></path>
<path d="M0.781 0.889 Q1.051 0.786 0.909 0.632" stroke="hsl(0.0,100%,35%)" stroke-width="0.00238"></path>
<path d="M0.781 0.889 Q1.366 0.575 0.881 0.221" stroke="hsl(0.0,100%,35%)" stroke-width="0.00130"></path>
<path d="M0.781 0.889 Q0.709 0.823 0.565 0.844" stroke="hsl(0.0,100%,35%)" stroke-width="0.00195"></path>
<path d="M0.781 0.889 Q1.481 0.730 1.323 0.353" stroke="hsl(0.0,100%,35%)" stroke-width="0.00087"></path>
<path d="M1.396 0.793 Q1.596 0.404 0.881 0.221" stroke="hsl(0.0,100%,35%)" stroke-width="0.00152"></path>
<path d="M1.396 0.793 Q1.035 0.466 0.318 0.570" stroke="hsl(0.0,100%,35%)" stroke-width="0.00043"></path>
<path d="M1.396 0.793 Q0.970 0.582 0.466 0.744" stroke="hsl(0.0,100%,35%)" stroke-width="0.00087"></path>
<path d="M1.396 0.793 Q1.417 0.722 1.282 0.696" stroke="hsl(0.0,100%,35%)" stroke-width="0.00022"></path>
<path d="M1.396 0.793 Q1.711 0.559 1.323 0.353" stroke="hsl(0.0,100%,35%)" stroke-width="0.00087"></path>
<path d="M1.396 0.793 Q1.158 0.364 0.268 0.386" stroke="hsl(0.0,100%,35%)" stroke-width="0.00043"></path>
<path d="M1.396 0.793 Q1.281 0.615 0.909 0.632" stroke="hsl(0.0,100%,35%)" stroke-width="0.00087"></path>
<path d="M1.396 0.793 Q1.534 0.781 1.541 0.711" stroke="hsl(0.0,100%,35%)" stroke-width="0.00022"></path>
<path d="M0.096 0.620 Q0.370 0.537 0.268 0.386" stroke="hsl(0.0,100%,35%)" stroke-width="0.01127"></path>
<path d="M0.096 0.620 Q0.182 0.756 0.466 0.744" stroke="hsl(0.0,100%,35%)" stroke-width="0.01712"></path>
<path d="M0.096 0.620 Q0.924 0.732 1.323 0.353" stroke="hsl(0.0,100%,35%)" stroke-width="0.00022"></path>
<path d="M0.096 0.620 Q0.808 0.578 0.881 0.221" stroke="hsl(0.0,100%,35%)" stroke-width="0.00022"></path>
<path d="M0.096 0.620 Q0.493 0.788 0.909 0.632" stroke="hsl(0.0,100%,35%)" stroke-width="0.00043"></path>
<path d="M1.411 0.100 Q1.244 0.016 1.042 0.079" stroke="hsl(0.0,100%,35%)" stroke-width="0.00087"></path>
<path d="M1.411 0.100 Q1.476 0.182 1.650 0.169" stroke="hsl(0.0,100%,35%)" stroke-width="0.00022"></path>
<path d="M1.411 0.100 Q0.424 0.233 0.466 0.744" stroke="hsl(0.0,100%,35%)" stroke-width="0.00022"></path>
<path d="M1.411 0.100 Q0.611 0.014 0.268 0.386" stroke="hsl(0.0,100%,35%)" stroke-width="0.00043"></path>
<path d="M0.957 0.740 Q0.709 0.644 0.466 0.744" stroke="hsl(0.0,100%,35%)" stroke-width="0.00108"></path>
<path d="M0.957 0.740 Q1.335 0.465 0.881 0.221" stroke="hsl(0.0,100%,35%)" stroke-width="0.00022"></path>
<path d="M0.957 0.740 Q1.020 0.676 0.909 0.632" stroke="hsl(0.0,100%,35%)" stroke-width="0.00087"></path>
<path d="M0.728 0.513 Q0.723 0.608 0.909 0.632" stroke="hsl(0.0,100%,35%)" stroke-width="0.00065"></path>
<path d="M0.728 0.513 Q0.412 0.576 0.466 0.744" stroke="hsl(0.0,100%,35%)" stroke-width="0.00217"></path>
<path d="M0.728 0.513 Q1.038 0.398 0.881 0.221" stroke="hsl(0.0,100%,35%)" stroke-width="0.00217"></path>
<path d="M1.541 0.711 Q0.977 0.512 0.466 0.744" stroke="hsl(0.0,100%,35%)" stroke-width="0.00087"></path>
<path d="M1.541 0.711 Q1.403 0.723 1.396 0.793" stroke="hsl(0.0,100%,35%)" stroke-width="0.00434"></path>
<path d="M1.541 0.711 Q1.603 0.334 0.881 0.221" stroke="hsl(0.0,100%,35%)" stroke-width="0.00130"></path>
<path d="M1.541 0.711 Q1.719 0.488 1.323 0.353" stroke="hsl(0.0,100%,35%)" stroke-width="0.00217"></path>
<path d="M1.541 0.711 Q1.288 0.545 0.909 0.632" stroke="hsl(0.0,100%,35%)" stroke-width="0.00087"></path>
<path d="M1.541 0.711 Q1.743 0.751 1.866 0.662" stroke="hsl(0.0,100%,35%)" stroke-width="0.00022"></path>
<path d="M0.436 0.890 Q0.568 0.822 0.466 0.744" stroke="hsl(0.0,100%,35%)" stroke-width="0.00087"></path>
<path d="M0.436 0.890 Q1.194 0.644 0.881 0.221" stroke="hsl(0.0,100%,35%)" stroke-width="0.00022"></path>
<path d="M0.436 0.890 Q0.879 0.855 0.909 0.632" stroke="hsl(0.0,100%,35%)" stroke-width="0.00043"></path>
<path d="M1.885 0.448 Q1.250 0.344 0.909 0.632" stroke="hsl(0.0,100%,35%)" stroke-width="0.00087"></path>
<path d="M1.885 0.448 Q0.939 0.312 0.466 0.744" stroke="hsl(0.0,100%,35%)" stroke-width="0.00108"></path>
<path d="M1.885 0.448 Q1.565 0.134 0.881 0.221" stroke="hsl(0.0,100%,35%)" stroke-width="0.00022"></path>
<path d="M1.811 0.297 Q1.728 0.387 1.885 0.448" stroke="hsl(0.0,100%,35%)" stroke-width="0.00043"></path>
<path d="M1.811 0.297 Q1.407 0.073 0.881 0.221" stroke="hsl(0.0,100%,35%)" stroke-width="0.00022"></path>
<path d="M1.811 0.297 Q1.092 0.284 0.909 0.632" stroke="hsl(0.0,100%,35%)" stroke-width="0.00022"></path>
<path d="M1.811 0.297 Q1.522 0.227 1.323 0.353" stroke="hsl(0.0,100%,35%)" stroke-width="0.00022"></path>
<path d="M1.134 0.497 Q0.914 0.519 0.909 0.632" stroke="hsl(0.0,100%,35%)" stroke-width="0.00217"></path>
<path d="M1.134 0.497 Q0.603 0.487 0.466 0.744" stroke="hsl(0.0,100%,35%)" stroke-width="0.00282"></path>
<path d="M1.134 0.497 Q1.228 0.309 0.881 0.221" stroke="hsl(0.0,100%,35%)" stroke-width="0.00108"></path>
<path d="M1.134 0.497 Q0.790 0.268 0.268 0.386" stroke="hsl(0.0,100%,35%)" stroke-width="0.00022"></path>
<path d="M0.033 0.446 Q0.199 0.463 0.268 0.386" stroke="hsl(0.0,100%,35%)" stroke-width="0.00889"></path>
<path d="M0.033 0.446 Q0.011 0.681 0.466 0.744" stroke="hsl(0.0,100%,35%)" stroke-width="0.01019"></path>
<path d="M0.033 0.446 Q0.322 0.714 0.909 0.632" stroke="hsl(0.0,100%,35%)" stroke-width="0.00022"></path>
<path d="M1.141 0.729 Q1.103 0.634 0.909 0.632" stroke="hsl(0.0,100%,35%)" stroke-width="0.00043"></path>
<path d="M1.141 0.729 Q0.792 0.601 0.466 0.744" stroke="hsl(0.0,100%,35%)" stroke-width="0.00043"></path>
<path d="M1.141 0.729 Q1.418 0.423 0.881 0.221" stroke="hsl(0.0,100%,35%)" stroke-width="0.00022"></path>
<path d="M1.141 0.729 Q1.346 0.481 0.906 0.327" stroke="hsl(0.0,100%,35%)" stroke-width="0.00022"></path>
<path d="M1.254 0.214 Q0.437 0.321 0.466 0.744" stroke="hsl(0.0,100%,35%)" stroke-width="0.01084"></path>
<path d="M1.254 0.214 Q1.178 0.297 1.323 0.353" stroke="hsl(0.0,100%,35%)" stroke-width="0.00607"></path>
<path d="M1.254 0.214 Q0.862 0.532 1.396 0.793" stroke="hsl(0.0,100%,35%)" stroke-width="0.00087"></path>
<path d="M1.254 0.214 Q1.062 0.143 0.881 0.221" stroke="hsl(0.0,100%,35%)" stroke-width="0.00108"></path>
<path d="M1.254 0.214 Q0.748 0.354 0.909 0.632" stroke="hsl(0.0,100%,35%)" stroke-width="0.00043"></path>
<path d="M0.570 0.461 Q0.479 0.363 0.268 0.386" stroke="hsl(0.0,100%,35%)" stroke-width="0.00954"></path>
<path d="M0.570 0.461 Q0.291 0.581 0.466 0.744" stroke="hsl(0.0,100%,35%)" stroke-width="0.00997"></path>
<path d="M0.570 0.461 Q0.489 0.543 0.632 0.601" stroke="hsl(0.0,100%,35%)" stroke-width="0.00022"></path>
<path d="M0.570 0.461 Q0.917 0.403 0.881 0.221" stroke="hsl(0.0,100%,35%)" stroke-width="0.00043"></path>
<path d="M0.570 0.461 Q0.602 0.614 0.909 0.632" stroke="hsl(0.0,100%,35%)" stroke-width="0.00022"></path>
<path d="M0.234 0.522 Q0.565 0.517 0.627 0.354" stroke="hsl(0.0,100%,35%)" stroke-width="0.00022"></path>
<path d="M0.234 0.522 Q0.360 0.461 0.268 0.386" stroke="hsl(0.0,100%,35%)" stroke-width="0.00022"></path>
<path d="M0.234 0.522 Q0.237 0.563 0.318 0.570" stroke="hsl(0.0,100%,35%)" stroke-width="0.00022"></path>
<path d="M0.234 0.522 Q0.173 0.679 0.466 0.744" stroke="hsl(0.0,100%,35%)" stroke-width="0.00022"></path>
<path d="M0.234 0.522 Q0.798 0.501 0.881 0.221" stroke="hsl(0.0,100%,35%)" stroke-width="0.00022"></path>
<path d="M0.754 0.273 Q0.233 0.451 0.466 0.744" stroke="hsl(0.0,100%,35%)" stroke-width="0.00043"></path>
<path d="M0.754 0.273 Q0.859 0.273 0.881 0.221" stroke="hsl(0.0,100%,35%)" stroke-width="0.00043"></path>
<path d="M0.754 0.273 Q0.787 0.331 0.906 0.327" stroke="hsl(0.0,100%,35%)" stroke-width="0.00108"></path>
<path d="M0.754 0.273 Q0.545 0.483 0.909 0.632" stroke="hsl(0.0,100%,35%)" stroke-width="0.00065"></path>
<path d="M0.754 0.273 Q0.520 0.728 1.355 0.942" stroke="hsl(0.0,100%,35%)" stroke-width="0.00022"></path>
<path d="M0.754 0.273 Q0.421 0.232 0.268 0.386" stroke="hsl(0.0,100%,35%)" stroke-width="0.00022"></path>
<path d="M0.754 0.273 Q1.053 0.234 1.042 0.079" stroke="hsl(0.0,100%,35%)" stroke-width="0.00022"></path>
<path d="M1.122 0.094 Q0.900 0.109 0.881 0.221" stroke="hsl(0.0,100%,35%)" stroke-width="0.00173"></path>
<path d="M1.122 0.094 Q0.274 0.287 0.466 0.744" stroke="hsl(0.0,100%,35%)" stroke-width="0.00065"></path>
<path d="M1.122 0.094 Q1.153 0.119 1.210 0.110" stroke="hsl(0.0,100%,35%)" stroke-width="0.00022"></path>
<path d="M1.122 0.094 Q0.585 0.320 0.909 0.632" stroke="hsl(0.0,100%,35%)" stroke-width="0.00022"></path>
<path d="M1.171 0.269 Q1.065 0.187 0.881 0.221" stroke="hsl(0.0,100%,35%)" stroke-width="0.00043"></path>
<path d="M1.171 0.269 Q0.439 0.365 0.466 0.744" stroke="hsl(0.0,100%,35%)" stroke-width="0.00043"></path>
<path d="M1.171 0.269 Q0.992 0.245 0.906 0.327" stroke="hsl(0.0,100%,35%)" stroke-width="0.00022"></path>
<path d="M0.591 0.798 Q0.883 0.779 0.909 0.632" stroke="hsl(0.0,100%,35%)" stroke-width="0.00065"></path>
<path d="M0.591 0.798 Q1.519 0.882 1.885 0.448" stroke="hsl(0.0,100%,35%)" stroke-width="0.00022"></path>
<path d="M0.591 0.798 Q0.572 0.746 0.466 0.744" stroke="hsl(0.0,100%,35%)" stroke-width="0.00152"></path>
<path d="M0.591 0.798 Q1.198 0.568 0.881 0.221" stroke="hsl(0.0,100%,35%)" stroke-width="0.00022"></path>
<path d="M1.525 0.461 Q0.770 0.390 0.466 0.744" stroke="hsl(0.0,100%,35%)" stroke-width="0.00065"></path>
<path d="M1.525 0.461 Q1.395 0.212 0.881 0.221" stroke="hsl(0.0,100%,35%)" stroke-width="0.00065"></path>
<path d="M1.525 0.461 Q1.323 0.270 0.906 0.327" stroke="hsl(0.0,100%,35%)" stroke-width="0.00022"></path>
<path d="M1.525 0.461 Q1.439 0.510 1.514 0.562" stroke="hsl(0.0,100%,35%)" stroke-width="0.00022"></path>
<path d="M1.159 0.242 Q0.411 0.354 0.466 0.744" stroke="hsl(0.0,100%,35%)" stroke-width="0.00238"></path>
<path d="M1.159 0.242 Q1.036 0.176 0.881 0.221" stroke="hsl(0.0,100%,35%)" stroke-width="0.00217"></path>
<path d="M1.159 0.242 Q0.608 0.316 0.632 0.601" stroke="hsl(0.0,100%,35%)" stroke-width="0.00022"></path>
<path d="M1.732 0.475 Q1.195 0.389 0.909 0.632" stroke="hsl(0.0,100%,35%)" stroke-width="0.00043"></path>
<path d="M1.732 0.475 Q1.830 0.492 1.885 0.448" stroke="hsl(0.0,100%,35%)" stroke-width="0.00130"></path>
<path d="M1.732 0.475 Q0.884 0.356 0.466 0.744" stroke="hsl(0.0,100%,35%)" stroke-width="0.00130"></path>
<path d="M1.732 0.475 Q1.510 0.178 0.881 0.221" stroke="hsl(0.0,100%,35%)" stroke-width="0.00022"></path>
<path d="M0.917 0.478 Q0.790 0.553 0.909 0.632" stroke="hsl(0.0,100%,35%)" stroke-width="0.00022"></path>
<path d="M0.917 0.478 Q0.478 0.520 0.466 0.744" stroke="hsl(0.0,100%,35%)" stroke-width="0.00022"></path>
<path d="M0.917 0.478 Q1.104 0.342 0.881 0.221" stroke="hsl(0.0,100%,35%)" stroke-width="0.00022"></path>
</g>
<text x="1.694" y="0.942" font-size="0.005268" fill="hsl(0.0,100%,20%)">adkushwa</text>
<text x="0.466" y="0.691" font-size="0.104466" fill="hsl(0.0,100%,20%)">jmadill</text>
<text x="1.821" y="0.814" font-size="0.003332" fill="hsl(0.0,100%,20%)">rafael.cintron</text>
<text x="0.909" y="0.612" font-size="0.038857" fill="hsl(0.0,100%,20%)">geofflang</text>
<text x="1.579" y="0.839" font-size="0.004081" fill="hsl(0.0,100%,20%)">amaiorano</text>
<text x="1.355" y="0.940" font-size="0.004081" fill="hsl(0.0,100%,20%)">nicolascapens</text>
<text x="0.318" y="0.551" font-size="0.037549" fill="hsl(0.0,100%,20%)">ynovikov</text>
<text x="0.834" y="0.556" font-size="0.012467" fill="hsl(0.0,100%,20%)">amy.liu</text>
<text x="0.881" y="0.180" font-size="0.082327" fill="hsl(0.0,100%,20%)">syoussefi</text>
<text x="0.906" y="0.295" font-size="0.063657" fill="hsl(0.0,100%,20%)">timvp</text>
<text x="1.042" y="0.063" font-size="0.033319" fill="hsl(0.0,100%,20%)">ianelliott</text>
<text x="0.119" y="0.497" font-size="0.010270" fill="hsl(0.0,100%,20%)">tobine</text>
<text x="0.664" y="0.148" font-size="0.013939" fill="hsl(0.0,100%,20%)">b.schade</text>
<text x="0.627" y="0.333" font-size="0.042670" fill="hsl(0.0,100%,20%)">cclao</text>
<text x="1.163" y="0.626" font-size="0.005771" fill="hsl(0.0,100%,20%)">capn</text>
<text x="0.268" y="0.358" font-size="0.054086" fill="hsl(0.0,100%,20%)">cnorthrop</text>
<text x="0.261" y="0.636" font-size="0.033979" fill="hsl(0.0,100%,20%)">courtneygo</text>
<text x="0.632" y="0.581" font-size="0.039705" fill="hsl(0.0,100%,20%)">m.maiya</text>
<text x="0.201" y="0.766" font-size="0.003332" fill="hsl(0.0,100%,20%)">paulthomson</text>
<text x="0.429" y="0.262" font-size="0.003332" fill="hsl(0.0,100%,20%)">nguyenmh</text>
<text x="0.528" y="0.926" font-size="0.006233" fill="hsl(0.0,100%,20%)">cwallez</text>
<text x="0.879" y="0.521" font-size="0.017313" fill="hsl(0.0,100%,20%)">penghuang</text>
<text x="1.112" y="0.241" font-size="0.004081" fill="hsl(0.0,100%,20%)">sunny.sun</text>
<text x="1.323" y="0.336" font-size="0.034061" fill="hsl(0.0,100%,20%)">jonahr</text>
<text x="0.781" y="0.880" font-size="0.018401" fill="hsl(0.0,100%,20%)">lexa.knyazev</text>
<text x="1.396" y="0.783" font-size="0.019712" fill="hsl(0.0,100%,20%)">kbr</text>
<text x="0.096" y="0.606" font-size="0.027677" fill="hsl(0.0,100%,20%)">gert.wollny</text>
<text x="1.411" y="0.096" font-size="0.007814" fill="hsl(0.0,100%,20%)">mark</text>
<text x="0.957" y="0.736" font-size="0.007814" fill="hsl(0.0,100%,20%)">vantablack</text>
<text x="0.728" y="0.507" font-size="0.011299" fill="hsl(0.0,100%,20%)">j.vigil</text>
<text x="1.541" y="0.703" font-size="0.016152" fill="hsl(0.0,100%,20%)">jdarpinian</text>
<text x="1.866" y="0.660" font-size="0.002356" fill="hsl(0.0,100%,20%)">shrekshao</text>
<text x="0.436" y="0.886" font-size="0.006664" fill="hsl(0.0,100%,20%)">jgilbert</text>
<text x="1.885" y="0.443" font-size="0.010270" fill="hsl(0.0,100%,20%)">jiajia.qin</text>
<text x="1.811" y="0.294" font-size="0.005268" fill="hsl(0.0,100%,20%)">jiawei.shao</text>
<text x="0.344" y="0.833" font-size="0.003332" fill="hsl(0.0,100%,20%)">tandrii</text>
<text x="0.128" y="0.784" font-size="0.004712" fill="hsl(0.0,100%,20%)">dpranke</text>
<text x="0.693" y="0.724" font-size="0.005268" fill="hsl(0.0,100%,20%)">bsheedy</text>
<text x="0.471" y="0.459" font-size="0.002356" fill="hsl(0.0,100%,20%)">doughorn</text>
<text x="0.250" y="0.746" font-size="0.002356" fill="hsl(0.0,100%,20%)">lfy</text>
<text x="1.134" y="0.491" font-size="0.013118" fill="hsl(0.0,100%,20%)">sugoi</text>
<text x="0.565" y="0.840" font-size="0.007814" fill="hsl(0.0,100%,20%)">le.hoang.q</text>
<text x="0.876" y="0.436" font-size="0.003332" fill="hsl(0.0,100%,20%)">kainino</text>
<text x="0.033" y="0.435" font-size="0.022227" fill="hsl(0.0,100%,20%)">jplate</text>
<text x="1.282" y="0.695" font-size="0.002356" fill="hsl(0.0,100%,20%)">ccameron</text>
<text x="1.141" y="0.727" font-size="0.005771" fill="hsl(0.0,100%,20%)">kyle.griffiths</text>
<text x="1.254" y="0.203" font-size="0.022227" fill="hsl(0.0,100%,20%)">lehoangq</text>
<text x="0.570" y="0.449" font-size="0.022843" fill="hsl(0.0,100%,20%)">lubosz.sarnecki</text>
<text x="0.234" y="0.520" font-size="0.005268" fill="hsl(0.0,100%,20%)">lunpujun</text>
<text x="1.650" y="0.168" font-size="0.002356" fill="hsl(0.0,100%,20%)">mikes</text>
<text x="0.754" y="0.269" font-size="0.009424" fill="hsl(0.0,100%,20%)">natsu</text>
<text x="1.122" y="0.089" font-size="0.008495" fill="hsl(0.0,100%,20%)">pkasting</text>
<text x="1.210" y="0.108" font-size="0.003332" fill="hsl(0.0,100%,20%)">thakis</text>
<text x="1.171" y="0.266" font-size="0.006233" fill="hsl(0.0,100%,20%)">reveman</text>
<text x="0.591" y="0.794" font-size="0.008495" fill="hsl(0.0,100%,20%)">senorblanco</text>
<text x="1.525" y="0.458" font-size="0.006664" fill="hsl(0.0,100%,20%)">sergeyu</text>
<text x="1.514" y="0.561" font-size="0.003332" fill="hsl(0.0,100%,20%)">spang</text>
<text x="1.307" y="0.124" font-size="0.002356" fill="hsl(0.0,100%,20%)">jie.a.chen</text>
<text x="1.159" y="0.236" font-size="0.011051" fill="hsl(0.0,100%,20%)">xiaoxuan.liu</text>
<text x="1.732" y="0.470" font-size="0.009125" fill="hsl(0.0,100%,20%)">xinghua.cao</text>
<text x="0.917" y="0.476" font-size="0.004081" fill="hsl(0.0,100%,20%)">yang.gu</text>
</svg>
