<svg width="4000" height="2000" viewBox="-0.025 -0.025 2.05 1.05" xmlns="http://www.w3.org/2000/svg">
  <style>
    path {
      fill: none;
      stroke-linecap: round;
      stroke-opacity: 0.4;
    }

    text {
      text-anchor: middle;
      alignment-baseline: hanging;
    }
  </style>
  <g opacity="0.4">
<path d="M0.940 0.774 Q0.682 0.577 0.242 0.660" stroke="hsl(0.0,100%,35%)" stroke-width="0.00937"></path>
<path d="M0.940 0.774 Q0.514 0.779 0.430 0.987" stroke="hsl(0.0,100%,35%)" stroke-width="0.05058"></path>
<path d="M0.940 0.774 Q0.747 0.707 0.574 0.786" stroke="hsl(0.0,100%,35%)" stroke-width="0.00562"></path>
<path d="M0.940 0.774 Q0.911 0.865 1.082 0.899" stroke="hsl(0.0,100%,35%)" stroke-width="0.03934"></path>
<path d="M0.940 0.774 Q0.923 0.645 0.668 0.625" stroke="hsl(0.0,100%,35%)" stroke-width="0.00375"></path>
<path d="M0.940 0.774 Q1.722 0.617 1.588 0.200" stroke="hsl(0.0,100%,35%)" stroke-width="0.00187"></path>
<path d="M0.940 0.774 Q0.929 0.787 0.953 0.796" stroke="hsl(0.0,100%,35%)" stroke-width="0.00187"></path>
<path d="M0.242 0.660 Q1.282 0.699 1.588 0.200" stroke="hsl(0.0,100%,35%)" stroke-width="0.00375"></path>
<path d="M0.242 0.660 Q1.161 0.770 1.577 0.346" stroke="hsl(0.0,100%,35%)" stroke-width="0.00375"></path>
<path d="M0.242 0.660 Q0.074 0.861 0.430 0.987" stroke="hsl(0.0,100%,35%)" stroke-width="0.00937"></path>
<path d="M0.242 0.660 Q0.483 0.728 0.668 0.625" stroke="hsl(0.0,100%,35%)" stroke-width="0.00375"></path>
<path d="M0.430 0.987 Q0.845 0.996 0.953 0.796" stroke="hsl(0.0,100%,35%)" stroke-width="0.00187"></path>
<path d="M0.430 0.987 Q0.856 0.982 0.940 0.774" stroke="hsl(0.0,100%,35%)" stroke-width="0.05058"></path>
<path d="M0.430 0.987 Q1.638 0.825 1.588 0.200" stroke="hsl(0.0,100%,35%)" stroke-width="0.01686"></path>
<path d="M0.430 0.987 Q0.598 0.786 0.242 0.660" stroke="hsl(0.0,100%,35%)" stroke-width="0.01499"></path>
<path d="M0.430 0.987 Q0.428 0.882 0.222 0.860" stroke="hsl(0.0,100%,35%)" stroke-width="0.02810"></path>
<path d="M0.430 0.987 Q0.607 0.852 0.381 0.736" stroke="hsl(0.0,100%,35%)" stroke-width="0.00187"></path>
<path d="M0.430 0.987 Q0.632 1.074 0.846 0.995" stroke="hsl(0.0,100%,35%)" stroke-width="0.00375"></path>
<path d="M0.430 0.987 Q1.698 0.930 1.866 0.299" stroke="hsl(0.0,100%,35%)" stroke-width="0.00562"></path>
<path d="M0.430 0.987 Q1.517 0.896 1.577 0.346" stroke="hsl(0.0,100%,35%)" stroke-width="0.00187"></path>
<path d="M0.574 0.786 Q0.341 0.858 0.430 0.987" stroke="hsl(0.0,100%,35%)" stroke-width="0.00562"></path>
<path d="M0.574 0.786 Q0.767 0.853 0.940 0.774" stroke="hsl(0.0,100%,35%)" stroke-width="0.01124"></path>
<path d="M0.574 0.786 Q0.750 0.724 0.668 0.625" stroke="hsl(0.0,100%,35%)" stroke-width="0.00562"></path>
<path d="M1.588 0.200 Q0.547 0.161 0.242 0.660" stroke="hsl(0.0,100%,35%)" stroke-width="0.00749"></path>
<path d="M1.588 0.200 Q0.380 0.362 0.430 0.987" stroke="hsl(0.0,100%,35%)" stroke-width="0.02248"></path>
<path d="M1.588 0.200 Q1.648 0.305 1.866 0.299" stroke="hsl(0.0,100%,35%)" stroke-width="0.01311"></path>
<path d="M1.588 0.200 Q0.788 0.229 0.668 0.625" stroke="hsl(0.0,100%,35%)" stroke-width="0.00749"></path>
<path d="M1.588 0.200 Q0.805 0.357 0.940 0.774" stroke="hsl(0.0,100%,35%)" stroke-width="0.00375"></path>
<path d="M1.588 0.200 Q1.466 0.271 1.577 0.346" stroke="hsl(0.0,100%,35%)" stroke-width="0.00375"></path>
<path d="M1.588 0.200 Q1.622 0.102 1.437 0.063" stroke="hsl(0.0,100%,35%)" stroke-width="0.00187"></path>
<path d="M1.866 0.299 Q0.532 0.256 0.155 0.897" stroke="hsl(0.0,100%,35%)" stroke-width="0.00187"></path>
<path d="M1.866 0.299 Q0.597 0.356 0.430 0.987" stroke="hsl(0.0,100%,35%)" stroke-width="0.00187"></path>
<path d="M1.866 0.299 Q1.751 0.364 1.853 0.434" stroke="hsl(0.0,100%,35%)" stroke-width="0.00562"></path>
<path d="M1.866 0.299 Q1.806 0.194 1.588 0.200" stroke="hsl(0.0,100%,35%)" stroke-width="0.00937"></path>
<path d="M1.866 0.299 Q1.642 0.391 1.772 0.520" stroke="hsl(0.0,100%,35%)" stroke-width="0.00187"></path>
<path d="M0.155 0.897 Q0.220 0.997 0.430 0.987" stroke="hsl(0.0,100%,35%)" stroke-width="0.00749"></path>
<path d="M0.155 0.897 Q0.646 0.992 0.940 0.774" stroke="hsl(0.0,100%,35%)" stroke-width="0.00375"></path>
<path d="M0.155 0.897 Q1.488 0.940 1.866 0.299" stroke="hsl(0.0,100%,35%)" stroke-width="0.00375"></path>
<path d="M1.420 0.771 Q0.752 0.681 0.430 0.987" stroke="hsl(0.0,100%,35%)" stroke-width="0.00187"></path>
<path d="M1.420 0.771 Q1.523 0.862 1.725 0.832" stroke="hsl(0.0,100%,35%)" stroke-width="0.00187"></path>
<path d="M1.420 0.771 Q1.839 0.590 1.577 0.346" stroke="hsl(0.0,100%,35%)" stroke-width="0.00187"></path>
<path d="M1.420 0.771 Q1.484 0.697 1.356 0.650" stroke="hsl(0.0,100%,35%)" stroke-width="0.00187"></path>
<path d="M1.577 0.346 Q1.699 0.275 1.588 0.200" stroke="hsl(0.0,100%,35%)" stroke-width="0.00562"></path>
<path d="M1.577 0.346 Q0.658 0.236 0.242 0.660" stroke="hsl(0.0,100%,35%)" stroke-width="0.00187"></path>
<path d="M1.577 0.346 Q1.759 0.380 1.866 0.299" stroke="hsl(0.0,100%,35%)" stroke-width="0.00187"></path>
<path d="M1.577 0.346 Q0.491 0.437 0.430 0.987" stroke="hsl(0.0,100%,35%)" stroke-width="0.00187"></path>
<path d="M0.222 0.860 Q0.224 0.965 0.430 0.987" stroke="hsl(0.0,100%,35%)" stroke-width="0.01873"></path>
<path d="M0.222 0.860 Q1.311 0.874 1.577 0.346" stroke="hsl(0.0,100%,35%)" stroke-width="0.00937"></path>
<path d="M0.222 0.860 Q1.432 0.803 1.588 0.200" stroke="hsl(0.0,100%,35%)" stroke-width="0.00187"></path>
<path d="M0.222 0.860 Q0.392 0.764 0.242 0.660" stroke="hsl(0.0,100%,35%)" stroke-width="0.00187"></path>
<path d="M0.222 0.860 Q0.426 1.052 0.846 0.995" stroke="hsl(0.0,100%,35%)" stroke-width="0.00187"></path>
<path d="M0.222 0.860 Q0.233 0.789 0.097 0.768" stroke="hsl(0.0,100%,35%)" stroke-width="0.00187"></path>
<path d="M0.222 0.860 Q0.650 0.960 0.940 0.774" stroke="hsl(0.0,100%,35%)" stroke-width="0.00187"></path>
<path d="M0.222 0.860 Q0.996 1.146 1.725 0.832" stroke="hsl(0.0,100%,35%)" stroke-width="0.00187"></path>
<path d="M0.846 0.995 Q0.642 0.802 0.222 0.860" stroke="hsl(0.0,100%,35%)" stroke-width="0.01124"></path>
<path d="M0.846 0.995 Q0.644 0.908 0.430 0.987" stroke="hsl(0.0,100%,35%)" stroke-width="0.01499"></path>
<path d="M0.846 0.995 Q1.377 0.924 1.356 0.650" stroke="hsl(0.0,100%,35%)" stroke-width="0.00187"></path>
<path d="M0.846 0.995 Q1.731 0.816 1.577 0.346" stroke="hsl(0.0,100%,35%)" stroke-width="0.00187"></path>
<path d="M0.846 0.995 Q1.416 1.089 1.725 0.832" stroke="hsl(0.0,100%,35%)" stroke-width="0.00187"></path>
<path d="M1.898 0.205 Q1.806 0.245 1.866 0.299" stroke="hsl(0.0,100%,35%)" stroke-width="0.00375"></path>
<path d="M1.898 0.205 Q0.706 0.101 0.242 0.660" stroke="hsl(0.0,100%,35%)" stroke-width="0.00187"></path>
<path d="M1.331 0.267 Q0.472 0.245 0.242 0.660" stroke="hsl(0.0,100%,35%)" stroke-width="0.00187"></path>
<path d="M1.331 0.267 Q1.391 0.355 1.577 0.346" stroke="hsl(0.0,100%,35%)" stroke-width="0.00187"></path>
<path d="M1.331 0.267 Q0.304 0.447 0.430 0.987" stroke="hsl(0.0,100%,35%)" stroke-width="0.00187"></path>
<path d="M1.331 0.267 Q1.572 0.390 1.866 0.299" stroke="hsl(0.0,100%,35%)" stroke-width="0.00187"></path>
</g>
<text x="0.940" y="0.730" font-size="0.087500" fill="hsl(0.0,100%,20%)">cclao</text>
<text x="0.242" y="0.635" font-size="0.050000" fill="hsl(0.0,100%,20%)">yuxinhu</text>
<text x="0.430" y="0.935" font-size="0.104583" fill="hsl(0.0,100%,20%)">syoussefi</text>
<text x="0.574" y="0.769" font-size="0.034233" fill="hsl(0.0,100%,20%)">hailinzhang</text>
<text x="1.082" y="0.878" font-size="0.040505" fill="hsl(0.0,100%,20%)">chrisforbes</text>
<text x="0.668" y="0.610" font-size="0.029315" fill="hsl(0.0,100%,20%)">abdolrashidi</text>
<text x="1.588" y="0.168" font-size="0.064348" fill="hsl(0.0,100%,20%)">romanl</text>
<text x="0.953" y="0.790" font-size="0.012500" fill="hsl(0.0,100%,20%)">m.maiya</text>
<text x="1.866" y="0.276" font-size="0.045928" fill="hsl(0.0,100%,20%)">cnorthrop</text>
<text x="0.155" y="0.884" font-size="0.026517" fill="hsl(0.0,100%,20%)">zzyiwei</text>
<text x="1.853" y="0.426" font-size="0.015309" fill="hsl(0.0,100%,20%)">mikes</text>
<text x="1.772" y="0.516" font-size="0.008839" fill="hsl(0.0,100%,20%)">mark</text>
<text x="1.420" y="0.762" font-size="0.017678" fill="hsl(0.0,100%,20%)">djg</text>
<text x="1.725" y="0.824" font-size="0.015309" fill="hsl(0.0,100%,20%)">kbr</text>
<text x="1.577" y="0.326" font-size="0.038528" fill="hsl(0.0,100%,20%)">ynovikov</text>
<text x="1.356" y="0.644" font-size="0.012500" fill="hsl(0.0,100%,20%)">lehoangquyen</text>
<text x="0.222" y="0.831" font-size="0.057282" fill="hsl(0.0,100%,20%)">geofflang</text>
<text x="0.846" y="0.975" font-size="0.039528" fill="hsl(0.0,100%,20%)">lexa.knyazev</text>
<text x="0.097" y="0.763" font-size="0.008839" fill="hsl(0.0,100%,20%)">jamesgk</text>
<text x="1.898" y="0.197" font-size="0.015309" fill="hsl(0.0,100%,20%)">lpy</text>
<text x="1.437" y="0.059" font-size="0.008839" fill="hsl(0.0,100%,20%)">zijiehe</text>
<text x="1.331" y="0.258" font-size="0.017678" fill="hsl(0.0,100%,20%)">solti</text>
<text x="0.381" y="0.731" font-size="0.008839" fill="hsl(0.0,100%,20%)">i.nazarov</text>
</svg>
