<svg width="4000" height="2000" viewBox="-0.025 -0.025 2.05 1.05" xmlns="http://www.w3.org/2000/svg">
  <style>
    path {
      fill: none;
      stroke-linecap: round;
      stroke-opacity: 0.4;
    }

    text {
      text-anchor: middle;
      alignment-baseline: hanging;
    }
  </style>
  <g opacity="0.4">
<path d="M0.408 0.839 Q0.445 0.971 0.710 0.982" stroke="hsl(0.0,100%,35%)" stroke-width="0.00929"></path>
<path d="M0.408 0.839 Q0.310 0.899 0.405 0.960" stroke="hsl(0.0,100%,35%)" stroke-width="0.05019"></path>
<path d="M0.408 0.839 Q0.384 0.705 0.118 0.688" stroke="hsl(0.0,100%,35%)" stroke-width="0.00558"></path>
<path d="M0.408 0.839 Q0.366 0.727 0.137 0.722" stroke="hsl(0.0,100%,35%)" stroke-width="0.03904"></path>
<path d="M0.408 0.839 Q0.456 0.646 0.088 0.580" stroke="hsl(0.0,100%,35%)" stroke-width="0.00372"></path>
<path d="M0.408 0.839 Q1.130 0.892 1.392 0.552" stroke="hsl(0.0,100%,35%)" stroke-width="0.00186"></path>
<path d="M0.408 0.839 Q0.514 0.721 0.306 0.644" stroke="hsl(0.0,100%,35%)" stroke-width="0.00186"></path>
<path d="M0.710 0.982 Q1.395 0.903 1.392 0.552" stroke="hsl(0.0,100%,35%)" stroke-width="0.00372"></path>
<path d="M0.710 0.982 Q1.178 0.733 0.793 0.450" stroke="hsl(0.0,100%,35%)" stroke-width="0.00372"></path>
<path d="M0.710 0.982 Q0.576 0.910 0.405 0.960" stroke="hsl(0.0,100%,35%)" stroke-width="0.00929"></path>
<path d="M0.710 0.982 Q0.721 0.657 0.088 0.580" stroke="hsl(0.0,100%,35%)" stroke-width="0.00372"></path>
<path d="M0.405 0.960 Q0.608 0.782 0.306 0.644" stroke="hsl(0.0,100%,35%)" stroke-width="0.00186"></path>
<path d="M0.405 0.960 Q0.503 0.900 0.408 0.839" stroke="hsl(0.0,100%,35%)" stroke-width="0.05019"></path>
<path d="M0.405 0.960 Q1.225 0.953 1.392 0.552" stroke="hsl(0.0,100%,35%)" stroke-width="0.01673"></path>
<path d="M0.405 0.960 Q0.539 1.032 0.710 0.982" stroke="hsl(0.0,100%,35%)" stroke-width="0.01487"></path>
<path d="M0.405 0.960 Q0.701 0.845 0.543 0.676" stroke="hsl(0.0,100%,35%)" stroke-width="0.02788"></path>
<path d="M0.405 0.960 Q1.604 0.156 0.298 -0.606" stroke="hsl(0.0,100%,35%)" stroke-width="0.00186"></path>
<path d="M0.405 0.960 Q0.802 0.783 0.545 0.551" stroke="hsl(0.0,100%,35%)" stroke-width="0.00372"></path>
<path d="M0.405 0.960 Q1.377 1.058 1.784 0.606" stroke="hsl(0.0,100%,35%)" stroke-width="0.00558"></path>
<path d="M0.405 0.960 Q1.007 0.782 0.793 0.450" stroke="hsl(0.0,100%,35%)" stroke-width="0.00186"></path>
<path d="M0.118 0.688 Q0.044 0.881 0.405 0.960" stroke="hsl(0.0,100%,35%)" stroke-width="0.00558"></path>
<path d="M0.118 0.688 Q0.142 0.821 0.408 0.839" stroke="hsl(0.0,100%,35%)" stroke-width="0.01115"></path>
<path d="M0.118 0.688 Q0.189 0.628 0.088 0.580" stroke="hsl(0.0,100%,35%)" stroke-width="0.00558"></path>
<path d="M1.392 0.552 Q0.707 0.631 0.710 0.982" stroke="hsl(0.0,100%,35%)" stroke-width="0.00744"></path>
<path d="M1.392 0.552 Q0.572 0.558 0.405 0.960" stroke="hsl(0.0,100%,35%)" stroke-width="0.02417"></path>
<path d="M1.392 0.552 Q1.545 0.657 1.784 0.606" stroke="hsl(0.0,100%,35%)" stroke-width="0.01301"></path>
<path d="M1.392 0.552 Q0.718 0.305 0.088 0.580" stroke="hsl(0.0,100%,35%)" stroke-width="0.00744"></path>
<path d="M1.392 0.552 Q0.670 0.499 0.408 0.839" stroke="hsl(0.0,100%,35%)" stroke-width="0.00558"></path>
<path d="M1.392 0.552 Q1.174 0.381 0.793 0.450" stroke="hsl(0.0,100%,35%)" stroke-width="0.00372"></path>
<path d="M1.392 0.552 Q1.183 0.665 1.358 0.792" stroke="hsl(0.0,100%,35%)" stroke-width="0.00186"></path>
<path d="M1.784 0.606 Q1.108 0.552 0.855 0.870" stroke="hsl(0.0,100%,35%)" stroke-width="0.00186"></path>
<path d="M1.784 0.606 Q0.811 0.507 0.405 0.960" stroke="hsl(0.0,100%,35%)" stroke-width="0.00186"></path>
<path d="M1.784 0.606 Q1.745 0.328 1.195 0.286" stroke="hsl(0.0,100%,35%)" stroke-width="0.00558"></path>
<path d="M1.784 0.606 Q1.631 0.500 1.392 0.552" stroke="hsl(0.0,100%,35%)" stroke-width="0.00929"></path>
<path d="M1.784 0.606 Q1.676 0.626 1.691 0.682" stroke="hsl(0.0,100%,35%)" stroke-width="0.00186"></path>
<path d="M0.855 0.870 Q0.558 0.825 0.405 0.960" stroke="hsl(0.0,100%,35%)" stroke-width="0.00744"></path>
<path d="M0.855 0.870 Q0.656 0.765 0.408 0.839" stroke="hsl(0.0,100%,35%)" stroke-width="0.00372"></path>
<path d="M0.855 0.870 Q1.531 0.924 1.784 0.606" stroke="hsl(0.0,100%,35%)" stroke-width="0.00372"></path>
<path d="M1.097 0.611 Q0.472 0.647 0.405 0.960" stroke="hsl(0.0,100%,35%)" stroke-width="0.00186"></path>
<path d="M1.097 0.611 Q0.972 0.664 1.050 0.737" stroke="hsl(0.0,100%,35%)" stroke-width="0.00186"></path>
<path d="M1.097 0.611 Q1.074 0.469 0.793 0.450" stroke="hsl(0.0,100%,35%)" stroke-width="0.00186"></path>
<path d="M1.097 0.611 Q1.236 0.530 1.110 0.445" stroke="hsl(0.0,100%,35%)" stroke-width="0.00186"></path>
<path d="M0.793 0.450 Q1.011 0.620 1.392 0.552" stroke="hsl(0.0,100%,35%)" stroke-width="0.00558"></path>
<path d="M0.793 0.450 Q0.326 0.699 0.710 0.982" stroke="hsl(0.0,100%,35%)" stroke-width="0.00186"></path>
<path d="M0.793 0.450 Q1.164 0.726 1.784 0.606" stroke="hsl(0.0,100%,35%)" stroke-width="0.00186"></path>
<path d="M0.793 0.450 Q0.191 0.627 0.405 0.960" stroke="hsl(0.0,100%,35%)" stroke-width="0.00186"></path>
<path d="M0.543 0.676 Q0.247 0.790 0.405 0.960" stroke="hsl(0.0,100%,35%)" stroke-width="0.01859"></path>
<path d="M0.543 0.676 Q0.849 0.613 0.793 0.450" stroke="hsl(0.0,100%,35%)" stroke-width="0.00929"></path>
<path d="M0.543 0.676 Q1.066 0.784 1.392 0.552" stroke="hsl(0.0,100%,35%)" stroke-width="0.00186"></path>
<path d="M0.543 0.676 Q0.381 0.863 0.710 0.982" stroke="hsl(0.0,100%,35%)" stroke-width="0.00186"></path>
<path d="M0.543 0.676 Q0.644 0.614 0.545 0.551" stroke="hsl(0.0,100%,35%)" stroke-width="0.00186"></path>
<path d="M0.543 0.676 Q0.760 0.671 0.799 0.564" stroke="hsl(0.0,100%,35%)" stroke-width="0.00186"></path>
<path d="M0.543 0.676 Q0.345 0.731 0.408 0.839" stroke="hsl(0.0,100%,35%)" stroke-width="0.00186"></path>
<path d="M0.543 0.676 Q0.747 0.808 1.050 0.737" stroke="hsl(0.0,100%,35%)" stroke-width="0.00186"></path>
<path d="M0.545 0.551 Q0.444 0.613 0.543 0.676" stroke="hsl(0.0,100%,35%)" stroke-width="0.01115"></path>
<path d="M0.545 0.551 Q0.148 0.727 0.405 0.960" stroke="hsl(0.0,100%,35%)" stroke-width="0.01487"></path>
<path d="M0.545 0.551 Q0.912 0.611 1.110 0.445" stroke="hsl(0.0,100%,35%)" stroke-width="0.00186"></path>
<path d="M0.545 0.551 Q0.750 0.550 0.793 0.450" stroke="hsl(0.0,100%,35%)" stroke-width="0.00186"></path>
<path d="M0.545 0.551 Q0.649 0.745 1.050 0.737" stroke="hsl(0.0,100%,35%)" stroke-width="0.00186"></path>
<path d="M1.735 0.379 Q1.578 0.502 1.784 0.606" stroke="hsl(0.0,100%,35%)" stroke-width="0.00372"></path>
<path d="M1.735 0.379 Q0.740 0.476 0.710 0.982" stroke="hsl(0.0,100%,35%)" stroke-width="0.00186"></path>
<path d="M0.491 0.252 Q0.017 0.661 0.710 0.982" stroke="hsl(0.0,100%,35%)" stroke-width="0.00186"></path>
<path d="M0.491 0.252 Q0.484 0.412 0.793 0.450" stroke="hsl(0.0,100%,35%)" stroke-width="0.00186"></path>
<path d="M0.491 0.252 Q-0.118 0.589 0.405 0.960" stroke="hsl(0.0,100%,35%)" stroke-width="0.00186"></path>
<path d="M0.491 0.252 Q0.855 0.688 1.784 0.606" stroke="hsl(0.0,100%,35%)" stroke-width="0.00186"></path>
</g>
<text x="0.408" y="0.795" font-size="0.087604" fill="hsl(0.0,100%,20%)">cclao</text>
<text x="0.710" y="0.957" font-size="0.049806" fill="hsl(0.0,100%,20%)">yuxinhu</text>
<text x="0.405" y="0.907" font-size="0.104548" fill="hsl(0.0,100%,20%)">syoussefi</text>
<text x="0.118" y="0.671" font-size="0.034100" fill="hsl(0.0,100%,20%)">hailinzhang</text>
<text x="0.137" y="0.702" font-size="0.040347" fill="hsl(0.0,100%,20%)">chrisforbes</text>
<text x="0.088" y="0.565" font-size="0.029201" fill="hsl(0.0,100%,20%)">abdolrashidi</text>
<text x="1.392" y="0.519" font-size="0.065296" fill="hsl(0.0,100%,20%)">romanl</text>
<text x="0.306" y="0.637" font-size="0.012451" fill="hsl(0.0,100%,20%)">m.maiya</text>
<text x="1.784" y="0.583" font-size="0.045750" fill="hsl(0.0,100%,20%)">cnorthrop</text>
<text x="0.855" y="0.857" font-size="0.026414" fill="hsl(0.0,100%,20%)">zzyiwei</text>
<text x="1.195" y="0.278" font-size="0.015250" fill="hsl(0.0,100%,20%)">mikes</text>
<text x="1.691" y="0.678" font-size="0.008805" fill="hsl(0.0,100%,20%)">mark</text>
<text x="1.097" y="0.602" font-size="0.017609" fill="hsl(0.0,100%,20%)">djg</text>
<text x="1.050" y="0.729" font-size="0.015250" fill="hsl(0.0,100%,20%)">kbr</text>
<text x="0.793" y="0.431" font-size="0.038378" fill="hsl(0.0,100%,20%)">ynovikov</text>
<text x="1.110" y="0.439" font-size="0.012451" fill="hsl(0.0,100%,20%)">lehoangquyen</text>
<text x="0.543" y="0.647" font-size="0.057060" fill="hsl(0.0,100%,20%)">geofflang</text>
<text x="0.545" y="0.531" font-size="0.039375" fill="hsl(0.0,100%,20%)">lexa.knyazev</text>
<text x="0.799" y="0.560" font-size="0.008805" fill="hsl(0.0,100%,20%)">jamesgk</text>
<text x="1.735" y="0.372" font-size="0.015250" fill="hsl(0.0,100%,20%)">lpy</text>
<text x="1.358" y="0.788" font-size="0.008805" fill="hsl(0.0,100%,20%)">zijiehe</text>
<text x="0.491" y="0.244" font-size="0.017609" fill="hsl(0.0,100%,20%)">solti</text>
<text x="0.298" y="-0.610" font-size="0.008805" fill="hsl(0.0,100%,20%)">i.nazarov</text>
</svg>
