<svg width="4000" height="2000" viewBox="-0.025 -0.025 2.05 1.05" xmlns="http://www.w3.org/2000/svg">
  <style>
    path {
      fill: none;
      stroke-linecap: round;
      stroke-opacity: 0.4;
    }

    text {
      text-anchor: middle;
      alignment-baseline: hanging;
    }
  </style>
  <g opacity="0.4">
<path d="M0.839 1.080 Q1.332 0.974 1.234 0.710" stroke="hsl(0.0,100%,35%)" stroke-width="0.00024"></path>
<path d="M0.839 1.080 Q1.258 0.886 0.971 0.639" stroke="hsl(0.0,100%,35%)" stroke-width="0.00048"></path>
<path d="M0.839 1.080 Q0.719 0.792 0.130 0.787" stroke="hsl(0.0,100%,35%)" stroke-width="0.00024"></path>
<path d="M1.234 0.710 Q1.159 0.622 0.971 0.639" stroke="hsl(0.0,100%,35%)" stroke-width="0.05886"></path>
<path d="M1.234 0.710 Q1.426 0.570 1.194 0.446" stroke="hsl(0.0,100%,35%)" stroke-width="0.01405"></path>
<path d="M1.234 0.710 Q1.465 0.652 1.403 0.526" stroke="hsl(0.0,100%,35%)" stroke-width="0.03173"></path>
<path d="M1.234 0.710 Q1.415 0.521 1.087 0.391" stroke="hsl(0.0,100%,35%)" stroke-width="0.00024"></path>
<path d="M1.234 0.710 Q1.369 0.647 1.275 0.567" stroke="hsl(0.0,100%,35%)" stroke-width="0.00339"></path>
<path d="M1.234 0.710 Q0.998 0.783 1.089 0.914" stroke="hsl(0.0,100%,35%)" stroke-width="0.00363"></path>
<path d="M1.234 0.710 Q1.119 0.533 0.749 0.550" stroke="hsl(0.0,100%,35%)" stroke-width="0.00121"></path>
<path d="M1.234 0.710 Q0.870 0.353 0.093 0.451" stroke="hsl(0.0,100%,35%)" stroke-width="0.00073"></path>
<path d="M1.234 0.710 Q0.898 0.338 0.098 0.420" stroke="hsl(0.0,100%,35%)" stroke-width="0.00024"></path>
<path d="M1.234 0.710 Q1.373 0.578 1.145 0.481" stroke="hsl(0.0,100%,35%)" stroke-width="0.00460"></path>
<path d="M1.234 0.710 Q1.293 0.345 0.593 0.236" stroke="hsl(0.0,100%,35%)" stroke-width="0.00024"></path>
<path d="M1.234 0.710 Q0.902 0.550 0.516 0.676" stroke="hsl(0.0,100%,35%)" stroke-width="0.00436"></path>
<path d="M1.234 0.710 Q1.483 0.540 1.205 0.381" stroke="hsl(0.0,100%,35%)" stroke-width="0.00024"></path>
<path d="M1.234 0.710 Q1.389 0.505 1.023 0.384" stroke="hsl(0.0,100%,35%)" stroke-width="0.00048"></path>
<path d="M1.234 0.710 Q0.620 0.528 0.130 0.787" stroke="hsl(0.0,100%,35%)" stroke-width="0.00097"></path>
<path d="M1.234 0.710 Q1.053 0.676 0.947 0.757" stroke="hsl(0.0,100%,35%)" stroke-width="0.00266"></path>
<path d="M1.234 0.710 Q1.350 0.765 1.483 0.721" stroke="hsl(0.0,100%,35%)" stroke-width="0.00024"></path>
<path d="M1.234 0.710 Q1.375 0.259 0.526 0.091" stroke="hsl(0.0,100%,35%)" stroke-width="0.00048"></path>
<path d="M1.234 0.710 Q1.317 0.485 0.897 0.395" stroke="hsl(0.0,100%,35%)" stroke-width="0.00024"></path>
<path d="M1.234 0.710 Q1.242 0.434 0.705 0.370" stroke="hsl(0.0,100%,35%)" stroke-width="0.00024"></path>
<path d="M1.234 0.710 Q0.999 0.567 0.668 0.651" stroke="hsl(0.0,100%,35%)" stroke-width="0.00048"></path>
<path d="M1.234 0.710 Q1.209 0.647 1.081 0.645" stroke="hsl(0.0,100%,35%)" stroke-width="0.00024"></path>
<path d="M0.971 0.639 Q1.180 0.664 1.275 0.567" stroke="hsl(0.0,100%,35%)" stroke-width="0.00363"></path>
<path d="M0.971 0.639 Q0.864 0.693 0.947 0.757" stroke="hsl(0.0,100%,35%)" stroke-width="0.02325"></path>
<path d="M0.971 0.639 Q0.432 0.545 0.130 0.787" stroke="hsl(0.0,100%,35%)" stroke-width="0.01042"></path>
<path d="M0.971 0.639 Q0.931 0.550 0.749 0.550" stroke="hsl(0.0,100%,35%)" stroke-width="0.03488"></path>
<path d="M0.971 0.639 Q1.045 0.727 1.234 0.710" stroke="hsl(0.0,100%,35%)" stroke-width="0.01986"></path>
<path d="M0.971 0.639 Q1.184 0.595 1.145 0.481" stroke="hsl(0.0,100%,35%)" stroke-width="0.02131"></path>
<path d="M0.971 0.639 Q1.277 0.669 1.403 0.526" stroke="hsl(0.0,100%,35%)" stroke-width="0.02785"></path>
<path d="M0.971 0.639 Q0.809 0.800 1.089 0.914" stroke="hsl(0.0,100%,35%)" stroke-width="0.00363"></path>
<path d="M0.971 0.639 Q0.795 0.723 0.922 0.828" stroke="hsl(0.0,100%,35%)" stroke-width="0.00024"></path>
<path d="M0.971 0.639 Q0.714 0.567 0.516 0.676" stroke="hsl(0.0,100%,35%)" stroke-width="0.00799"></path>
<path d="M0.971 0.639 Q1.186 0.276 0.526 0.091" stroke="hsl(0.0,100%,35%)" stroke-width="0.00073"></path>
<path d="M0.971 0.639 Q0.640 0.409 0.119 0.521" stroke="hsl(0.0,100%,35%)" stroke-width="0.00024"></path>
<path d="M0.971 0.639 Q1.405 0.574 1.373 0.348" stroke="hsl(0.0,100%,35%)" stroke-width="0.00024"></path>
<path d="M0.971 0.639 Q0.515 0.468 0.081 0.653" stroke="hsl(0.0,100%,35%)" stroke-width="0.00024"></path>
<path d="M0.971 0.639 Q1.111 0.483 0.838 0.381" stroke="hsl(0.0,100%,35%)" stroke-width="0.00024"></path>
<path d="M0.971 0.639 Q0.897 0.655 0.912 0.694" stroke="hsl(0.0,100%,35%)" stroke-width="0.00073"></path>
<path d="M0.971 0.639 Q0.872 0.591 0.756 0.628" stroke="hsl(0.0,100%,35%)" stroke-width="0.00121"></path>
<path d="M0.971 0.639 Q0.710 0.355 0.098 0.420" stroke="hsl(0.0,100%,35%)" stroke-width="0.00024"></path>
<path d="M0.971 0.639 Q0.297 0.913 0.684 1.302" stroke="hsl(0.0,100%,35%)" stroke-width="0.00024"></path>
<path d="M0.971 0.639 Q1.237 0.587 1.194 0.446" stroke="hsl(0.0,100%,35%)" stroke-width="0.00630"></path>
<path d="M0.971 0.639 Q1.053 0.451 0.705 0.370" stroke="hsl(0.0,100%,35%)" stroke-width="0.00291"></path>
<path d="M0.971 0.639 Q0.810 0.584 0.668 0.651" stroke="hsl(0.0,100%,35%)" stroke-width="0.00121"></path>
<path d="M0.971 0.639 Q1.129 0.502 0.897 0.395" stroke="hsl(0.0,100%,35%)" stroke-width="0.00024"></path>
<path d="M0.971 0.639 Q1.102 0.513 0.885 0.421" stroke="hsl(0.0,100%,35%)" stroke-width="0.00024"></path>
<path d="M0.130 0.787 Q0.669 0.881 0.971 0.639" stroke="hsl(0.0,100%,35%)" stroke-width="0.00896"></path>
<path d="M0.130 0.787 Q0.882 0.837 1.145 0.481" stroke="hsl(0.0,100%,35%)" stroke-width="0.00048"></path>
<path d="M0.130 0.787 Q0.412 0.809 0.516 0.676" stroke="hsl(0.0,100%,35%)" stroke-width="0.00606"></path>
<path d="M0.130 0.787 Q0.743 0.969 1.234 0.710" stroke="hsl(0.0,100%,35%)" stroke-width="0.00121"></path>
<path d="M0.130 0.787 Q0.562 0.935 0.947 0.757" stroke="hsl(0.0,100%,35%)" stroke-width="0.00121"></path>
<path d="M0.130 0.787 Q0.975 0.911 1.403 0.526" stroke="hsl(0.0,100%,35%)" stroke-width="0.00702"></path>
<path d="M0.130 0.787 Q0.213 0.710 0.081 0.653" stroke="hsl(0.0,100%,35%)" stroke-width="0.00048"></path>
<path d="M0.130 0.787 Q0.265 0.778 0.276 0.710" stroke="hsl(0.0,100%,35%)" stroke-width="0.00024"></path>
<path d="M0.130 0.787 Q0.386 0.763 0.395 0.632" stroke="hsl(0.0,100%,35%)" stroke-width="0.00024"></path>
<path d="M0.130 0.787 Q0.490 0.859 0.711 0.700" stroke="hsl(0.0,100%,35%)" stroke-width="0.00048"></path>
<path d="M0.130 0.787 Q0.629 0.792 0.749 0.550" stroke="hsl(0.0,100%,35%)" stroke-width="0.00024"></path>
<path d="M0.130 0.787 Q0.884 0.518 0.526 0.091" stroke="hsl(0.0,100%,35%)" stroke-width="0.00048"></path>
<path d="M0.130 0.787 Q0.802 0.604 0.593 0.236" stroke="hsl(0.0,100%,35%)" stroke-width="0.00024"></path>
<path d="M0.130 0.787 Q0.260 0.756 0.228 0.685" stroke="hsl(0.0,100%,35%)" stroke-width="0.00024"></path>
<path d="M1.081 0.645 Q1.031 0.620 0.971 0.639" stroke="hsl(0.0,100%,35%)" stroke-width="0.00218"></path>
<path d="M1.081 0.645 Q1.189 0.484 0.897 0.395" stroke="hsl(0.0,100%,35%)" stroke-width="0.00024"></path>
<path d="M1.081 0.645 Q1.244 0.576 1.145 0.481" stroke="hsl(0.0,100%,35%)" stroke-width="0.00024"></path>
<path d="M1.081 0.645 Q1.105 0.708 1.234 0.710" stroke="hsl(0.0,100%,35%)" stroke-width="0.00048"></path>
<path d="M1.081 0.645 Q1.337 0.650 1.403 0.526" stroke="hsl(0.0,100%,35%)" stroke-width="0.00024"></path>
<path d="M1.081 0.645 Q0.492 0.526 0.130 0.787" stroke="hsl(0.0,100%,35%)" stroke-width="0.00145"></path>
<path d="M1.145 0.481 Q0.932 0.525 0.971 0.639" stroke="hsl(0.0,100%,35%)" stroke-width="0.00848"></path>
<path d="M1.145 0.481 Q1.085 0.404 0.921 0.416" stroke="hsl(0.0,100%,35%)" stroke-width="0.00024"></path>
<path d="M1.145 0.481 Q1.006 0.613 1.234 0.710" stroke="hsl(0.0,100%,35%)" stroke-width="0.00048"></path>
<path d="M1.145 0.481 Q0.770 0.687 1.089 0.914" stroke="hsl(0.0,100%,35%)" stroke-width="0.00024"></path>
<path d="M1.145 0.481 Q0.675 0.453 0.516 0.676" stroke="hsl(0.0,100%,35%)" stroke-width="0.00024"></path>
<path d="M1.145 0.481 Q0.393 0.431 0.130 0.787" stroke="hsl(0.0,100%,35%)" stroke-width="0.00048"></path>
<path d="M1.403 0.526 Q1.097 0.496 0.971 0.639" stroke="hsl(0.0,100%,35%)" stroke-width="0.02059"></path>
<path d="M1.403 0.526 Q1.363 0.444 1.194 0.446" stroke="hsl(0.0,100%,35%)" stroke-width="0.00606"></path>
<path d="M1.403 0.526 Q1.171 0.584 1.234 0.710" stroke="hsl(0.0,100%,35%)" stroke-width="0.00824"></path>
<path d="M1.403 0.526 Q1.057 0.407 0.749 0.550" stroke="hsl(0.0,100%,35%)" stroke-width="0.00460"></path>
<path d="M1.403 0.526 Q0.641 0.325 0.081 0.653" stroke="hsl(0.0,100%,35%)" stroke-width="0.00024"></path>
<path d="M1.403 0.526 Q0.558 0.402 0.130 0.787" stroke="hsl(0.0,100%,35%)" stroke-width="0.00363"></path>
<path d="M1.403 0.526 Q0.990 0.551 0.947 0.757" stroke="hsl(0.0,100%,35%)" stroke-width="0.00509"></path>
<path d="M1.403 0.526 Q0.423 0.771 0.684 1.302" stroke="hsl(0.0,100%,35%)" stroke-width="0.00024"></path>
<path d="M1.403 0.526 Q1.310 0.452 1.145 0.481" stroke="hsl(0.0,100%,35%)" stroke-width="0.00048"></path>
<path d="M1.403 0.526 Q0.935 0.658 1.089 0.914" stroke="hsl(0.0,100%,35%)" stroke-width="0.00048"></path>
<path d="M1.403 0.526 Q1.179 0.308 0.705 0.370" stroke="hsl(0.0,100%,35%)" stroke-width="0.00048"></path>
<path d="M1.403 0.526 Q0.677 0.346 0.166 0.661" stroke="hsl(0.0,100%,35%)" stroke-width="0.00024"></path>
<path d="M0.803 0.441 Q0.803 0.662 1.234 0.710" stroke="hsl(0.0,100%,35%)" stroke-width="0.00218"></path>
<path d="M0.803 0.441 Q0.729 0.574 0.971 0.639" stroke="hsl(0.0,100%,35%)" stroke-width="0.00242"></path>
<path d="M0.803 0.441 Q0.190 0.479 0.130 0.787" stroke="hsl(0.0,100%,35%)" stroke-width="0.00073"></path>
<path d="M0.803 0.441 Q0.567 0.735 1.089 0.914" stroke="hsl(0.0,100%,35%)" stroke-width="0.00048"></path>
<path d="M0.803 0.441 Q0.811 0.386 0.705 0.370" stroke="hsl(0.0,100%,35%)" stroke-width="0.00024"></path>
<path d="M1.089 0.914 Q1.556 0.783 1.403 0.526" stroke="hsl(0.0,100%,35%)" stroke-width="0.00363"></path>
<path d="M1.089 0.914 Q1.210 0.664 0.749 0.550" stroke="hsl(0.0,100%,35%)" stroke-width="0.00412"></path>
<path d="M1.089 0.914 Q1.325 0.841 1.234 0.710" stroke="hsl(0.0,100%,35%)" stroke-width="0.00606"></path>
<path d="M1.089 0.914 Q1.250 0.753 0.971 0.639" stroke="hsl(0.0,100%,35%)" stroke-width="0.00702"></path>
<path d="M1.089 0.914 Q1.464 0.709 1.145 0.481" stroke="hsl(0.0,100%,35%)" stroke-width="0.00097"></path>
<path d="M1.089 0.914 Q1.144 0.808 0.947 0.757" stroke="hsl(0.0,100%,35%)" stroke-width="0.00606"></path>
<path d="M1.089 0.914 Q1.516 0.701 1.194 0.446" stroke="hsl(0.0,100%,35%)" stroke-width="0.00218"></path>
<path d="M1.089 0.914 Q0.711 0.659 0.130 0.787" stroke="hsl(0.0,100%,35%)" stroke-width="0.00121"></path>
<path d="M1.089 0.914 Q1.333 0.565 0.705 0.370" stroke="hsl(0.0,100%,35%)" stroke-width="0.00024"></path>
<path d="M0.705 0.370 Q0.083 0.463 0.130 0.787" stroke="hsl(0.0,100%,35%)" stroke-width="0.00024"></path>
<path d="M0.705 0.370 Q0.928 0.588 1.403 0.526" stroke="hsl(0.0,100%,35%)" stroke-width="0.00170"></path>
<path d="M0.705 0.370 Q0.516 0.612 0.947 0.757" stroke="hsl(0.0,100%,35%)" stroke-width="0.00266"></path>
<path d="M0.705 0.370 Q0.697 0.646 1.234 0.710" stroke="hsl(0.0,100%,35%)" stroke-width="0.00097"></path>
<path d="M0.705 0.370 Q0.622 0.558 0.971 0.639" stroke="hsl(0.0,100%,35%)" stroke-width="0.00412"></path>
<path d="M0.705 0.370 Q0.582 0.469 0.749 0.550" stroke="hsl(0.0,100%,35%)" stroke-width="0.00048"></path>
<path d="M0.705 0.370 Q0.831 0.582 1.275 0.567" stroke="hsl(0.0,100%,35%)" stroke-width="0.00048"></path>
<path d="M0.705 0.370 Q0.461 0.719 1.089 0.914" stroke="hsl(0.0,100%,35%)" stroke-width="0.00073"></path>
<path d="M0.705 0.370 Q0.888 0.505 1.194 0.446" stroke="hsl(0.0,100%,35%)" stroke-width="0.00218"></path>
<path d="M0.705 0.370 Q0.836 0.514 1.145 0.481" stroke="hsl(0.0,100%,35%)" stroke-width="0.00024"></path>
<path d="M0.705 0.370 Q0.365 0.485 0.516 0.676" stroke="hsl(0.0,100%,35%)" stroke-width="0.00024"></path>
<path d="M1.205 0.381 Q0.882 0.463 0.971 0.639" stroke="hsl(0.0,100%,35%)" stroke-width="0.00194"></path>
<path d="M1.205 0.381 Q0.957 0.551 1.234 0.710" stroke="hsl(0.0,100%,35%)" stroke-width="0.00170"></path>
<path d="M1.205 0.381 Q1.148 0.411 1.194 0.446" stroke="hsl(0.0,100%,35%)" stroke-width="0.00024"></path>
<path d="M1.205 0.381 Q1.188 0.493 1.403 0.526" stroke="hsl(0.0,100%,35%)" stroke-width="0.00073"></path>
<path d="M1.205 0.381 Q0.842 0.374 0.749 0.550" stroke="hsl(0.0,100%,35%)" stroke-width="0.00024"></path>
<path d="M1.194 0.446 Q1.002 0.586 1.234 0.710" stroke="hsl(0.0,100%,35%)" stroke-width="0.00824"></path>
<path d="M1.194 0.446 Q1.234 0.528 1.403 0.526" stroke="hsl(0.0,100%,35%)" stroke-width="0.01138"></path>
<path d="M1.194 0.446 Q0.928 0.498 0.971 0.639" stroke="hsl(0.0,100%,35%)" stroke-width="0.01574"></path>
<path d="M1.194 0.446 Q0.766 0.659 1.089 0.914" stroke="hsl(0.0,100%,35%)" stroke-width="0.00315"></path>
<path d="M1.194 0.446 Q0.821 0.552 0.947 0.757" stroke="hsl(0.0,100%,35%)" stroke-width="0.00484"></path>
<path d="M1.194 0.446 Q1.137 0.523 1.275 0.567" stroke="hsl(0.0,100%,35%)" stroke-width="0.00024"></path>
<path d="M1.194 0.446 Q0.389 0.403 0.130 0.787" stroke="hsl(0.0,100%,35%)" stroke-width="0.00024"></path>
<path d="M1.194 0.446 Q1.157 0.381 1.023 0.384" stroke="hsl(0.0,100%,35%)" stroke-width="0.00024"></path>
<path d="M1.194 0.446 Q1.010 0.310 0.705 0.370" stroke="hsl(0.0,100%,35%)" stroke-width="0.00024"></path>
<path d="M0.749 0.550 Q0.789 0.639 0.971 0.639" stroke="hsl(0.0,100%,35%)" stroke-width="0.02567"></path>
<path d="M0.749 0.550 Q1.094 0.669 1.403 0.526" stroke="hsl(0.0,100%,35%)" stroke-width="0.00533"></path>
<path d="M0.749 0.550 Q0.929 0.483 0.838 0.381" stroke="hsl(0.0,100%,35%)" stroke-width="0.00024"></path>
<path d="M0.749 0.550 Q0.863 0.727 1.234 0.710" stroke="hsl(0.0,100%,35%)" stroke-width="0.00097"></path>
<path d="M0.749 0.550 Q0.682 0.693 0.947 0.757" stroke="hsl(0.0,100%,35%)" stroke-width="0.01066"></path>
<path d="M0.749 0.550 Q1.055 0.587 1.194 0.446" stroke="hsl(0.0,100%,35%)" stroke-width="0.00024"></path>
<path d="M0.749 0.550 Q0.998 0.664 1.275 0.567" stroke="hsl(0.0,100%,35%)" stroke-width="0.00024"></path>
<path d="M0.749 0.550 Q0.628 0.584 0.668 0.651" stroke="hsl(0.0,100%,35%)" stroke-width="0.00339"></path>
<path d="M0.749 0.550 Q0.627 0.800 1.089 0.914" stroke="hsl(0.0,100%,35%)" stroke-width="0.00024"></path>
<path d="M0.749 0.550 Q0.250 0.545 0.130 0.787" stroke="hsl(0.0,100%,35%)" stroke-width="0.00024"></path>
<path d="M0.310 0.648 Q1.082 0.710 1.373 0.348" stroke="hsl(0.0,100%,35%)" stroke-width="0.00024"></path>
<path d="M0.310 0.648 Q0.108 0.681 0.130 0.787" stroke="hsl(0.0,100%,35%)" stroke-width="0.00024"></path>
<path d="M0.310 0.648 Q0.316 0.546 0.119 0.521" stroke="hsl(0.0,100%,35%)" stroke-width="0.00024"></path>
<path d="M1.373 0.348 Q1.014 0.501 1.234 0.710" stroke="hsl(0.0,100%,35%)" stroke-width="0.00073"></path>
<path d="M1.373 0.348 Q1.153 0.369 1.145 0.481" stroke="hsl(0.0,100%,35%)" stroke-width="0.00024"></path>
<path d="M1.373 0.348 Q0.400 0.319 0.130 0.787" stroke="hsl(0.0,100%,35%)" stroke-width="0.00048"></path>
<path d="M1.373 0.348 Q0.682 0.340 0.516 0.676" stroke="hsl(0.0,100%,35%)" stroke-width="0.00024"></path>
<path d="M1.373 0.348 Q0.939 0.413 0.971 0.639" stroke="hsl(0.0,100%,35%)" stroke-width="0.00024"></path>
<path d="M0.119 0.521 Q0.451 0.750 0.971 0.639" stroke="hsl(0.0,100%,35%)" stroke-width="0.00048"></path>
<path d="M0.119 0.521 Q0.756 0.780 1.403 0.526" stroke="hsl(0.0,100%,35%)" stroke-width="0.00024"></path>
<path d="M0.119 0.521 Q-0.088 0.656 0.130 0.787" stroke="hsl(0.0,100%,35%)" stroke-width="0.00024"></path>
<path d="M0.947 0.757 Q1.054 0.703 0.971 0.639" stroke="hsl(0.0,100%,35%)" stroke-width="0.00775"></path>
<path d="M0.947 0.757 Q1.128 0.791 1.234 0.710" stroke="hsl(0.0,100%,35%)" stroke-width="0.00291"></path>
<path d="M0.947 0.757 Q1.360 0.733 1.403 0.526" stroke="hsl(0.0,100%,35%)" stroke-width="0.00436"></path>
<path d="M0.947 0.757 Q1.267 0.659 1.145 0.481" stroke="hsl(0.0,100%,35%)" stroke-width="0.00024"></path>
<path d="M0.947 0.757 Q1.014 0.614 0.749 0.550" stroke="hsl(0.0,100%,35%)" stroke-width="0.00266"></path>
<path d="M0.947 0.757 Q0.892 0.864 1.089 0.914" stroke="hsl(0.0,100%,35%)" stroke-width="0.00170"></path>
<path d="M0.947 0.757 Q1.320 0.651 1.194 0.446" stroke="hsl(0.0,100%,35%)" stroke-width="0.00073"></path>
<path d="M0.947 0.757 Q0.515 0.609 0.130 0.787" stroke="hsl(0.0,100%,35%)" stroke-width="0.00097"></path>
<path d="M0.947 0.757 Q1.136 0.515 0.705 0.370" stroke="hsl(0.0,100%,35%)" stroke-width="0.00073"></path>
<path d="M1.275 0.567 Q1.140 0.631 1.234 0.710" stroke="hsl(0.0,100%,35%)" stroke-width="0.01889"></path>
<path d="M1.275 0.567 Q1.066 0.542 0.971 0.639" stroke="hsl(0.0,100%,35%)" stroke-width="0.02253"></path>
<path d="M1.275 0.567 Q0.527 0.448 0.130 0.787" stroke="hsl(0.0,100%,35%)" stroke-width="0.00170"></path>
<path d="M1.275 0.567 Q1.026 0.453 0.749 0.550" stroke="hsl(0.0,100%,35%)" stroke-width="0.00145"></path>
<path d="M1.275 0.567 Q1.372 0.572 1.403 0.526" stroke="hsl(0.0,100%,35%)" stroke-width="0.00218"></path>
<path d="M1.275 0.567 Q0.959 0.597 0.947 0.757" stroke="hsl(0.0,100%,35%)" stroke-width="0.00170"></path>
<path d="M1.275 0.567 Q0.904 0.704 1.089 0.914" stroke="hsl(0.0,100%,35%)" stroke-width="0.00024"></path>
<path d="M1.275 0.567 Q1.148 0.354 0.705 0.370" stroke="hsl(0.0,100%,35%)" stroke-width="0.00073"></path>
<path d="M0.668 0.651 Q0.789 0.616 0.749 0.550" stroke="hsl(0.0,100%,35%)" stroke-width="0.00702"></path>
<path d="M0.668 0.651 Q0.829 0.705 0.971 0.639" stroke="hsl(0.0,100%,35%)" stroke-width="0.00920"></path>
<path d="M0.668 0.651 Q0.903 0.794 1.234 0.710" stroke="hsl(0.0,100%,35%)" stroke-width="0.00121"></path>
<path d="M0.668 0.651 Q1.135 0.735 1.403 0.526" stroke="hsl(0.0,100%,35%)" stroke-width="0.00024"></path>
<path d="M0.516 0.676 Q0.234 0.654 0.130 0.787" stroke="hsl(0.0,100%,35%)" stroke-width="0.00533"></path>
<path d="M0.516 0.676 Q0.773 0.748 0.971 0.639" stroke="hsl(0.0,100%,35%)" stroke-width="0.00727"></path>
<path d="M0.516 0.676 Q0.848 0.837 1.234 0.710" stroke="hsl(0.0,100%,35%)" stroke-width="0.00363"></path>
<path d="M0.516 0.676 Q0.989 0.386 0.526 0.091" stroke="hsl(0.0,100%,35%)" stroke-width="0.00073"></path>
<path d="M0.516 0.676 Q0.987 0.705 1.145 0.481" stroke="hsl(0.0,100%,35%)" stroke-width="0.00024"></path>
<path d="M0.516 0.676 Q1.079 0.779 1.403 0.526" stroke="hsl(0.0,100%,35%)" stroke-width="0.00073"></path>
<path d="M0.516 0.676 Q1.208 0.683 1.373 0.348" stroke="hsl(0.0,100%,35%)" stroke-width="0.00048"></path>
<path d="M0.516 0.676 Q0.856 0.560 0.705 0.370" stroke="hsl(0.0,100%,35%)" stroke-width="0.00048"></path>
<path d="M1.026 0.708 Q1.054 0.662 0.971 0.639" stroke="hsl(0.0,100%,35%)" stroke-width="0.00194"></path>
<path d="M1.026 0.708 Q1.128 0.751 1.234 0.710" stroke="hsl(0.0,100%,35%)" stroke-width="0.00024"></path>
<path d="M0.081 0.653 Q0.538 0.824 0.971 0.639" stroke="hsl(0.0,100%,35%)" stroke-width="0.00242"></path>
<path d="M0.081 0.653 Q0.612 0.912 1.234 0.710" stroke="hsl(0.0,100%,35%)" stroke-width="0.00073"></path>
<path d="M0.081 0.653 Q-0.002 0.730 0.130 0.787" stroke="hsl(0.0,100%,35%)" stroke-width="0.00242"></path>
<path d="M0.276 0.710 Q0.419 0.529 0.098 0.420" stroke="hsl(0.0,100%,35%)" stroke-width="0.00145"></path>
<path d="M0.276 0.710 Q0.680 0.813 0.971 0.639" stroke="hsl(0.0,100%,35%)" stroke-width="0.00388"></path>
<path d="M0.276 0.710 Q0.423 0.741 0.516 0.676" stroke="hsl(0.0,100%,35%)" stroke-width="0.00097"></path>
<path d="M0.276 0.710 Q0.141 0.719 0.130 0.787" stroke="hsl(0.0,100%,35%)" stroke-width="0.00363"></path>
<path d="M0.276 0.710 Q0.896 0.451 0.526 0.091" stroke="hsl(0.0,100%,35%)" stroke-width="0.00048"></path>
<path d="M0.276 0.710 Q0.755 0.901 1.234 0.710" stroke="hsl(0.0,100%,35%)" stroke-width="0.00121"></path>
<path d="M0.711 0.700 Q0.351 0.627 0.130 0.787" stroke="hsl(0.0,100%,35%)" stroke-width="0.00194"></path>
<path d="M0.711 0.700 Q0.890 0.721 0.971 0.639" stroke="hsl(0.0,100%,35%)" stroke-width="0.00291"></path>
<path d="M0.711 0.700 Q0.632 0.649 0.516 0.676" stroke="hsl(0.0,100%,35%)" stroke-width="0.00145"></path>
<path d="M0.711 0.700 Q0.964 0.809 1.234 0.710" stroke="hsl(0.0,100%,35%)" stroke-width="0.00097"></path>
<path d="M0.526 0.091 Q0.053 0.382 0.516 0.676" stroke="hsl(0.0,100%,35%)" stroke-width="0.00266"></path>
<path d="M0.526 0.091 Q-0.229 0.360 0.130 0.787" stroke="hsl(0.0,100%,35%)" stroke-width="0.00291"></path>
<path d="M0.526 0.091 Q0.310 0.454 0.971 0.639" stroke="hsl(0.0,100%,35%)" stroke-width="0.00145"></path>
<path d="M0.526 0.091 Q0.444 0.177 0.593 0.236" stroke="hsl(0.0,100%,35%)" stroke-width="0.00024"></path>
<path d="M0.526 0.091 Q0.385 0.542 1.234 0.710" stroke="hsl(0.0,100%,35%)" stroke-width="0.00024"></path>
<path d="M0.526 0.091 Q0.524 0.410 1.145 0.481" stroke="hsl(0.0,100%,35%)" stroke-width="0.00024"></path>
<path d="M0.593 0.236 Q0.534 0.601 1.234 0.710" stroke="hsl(0.0,100%,35%)" stroke-width="0.00145"></path>
<path d="M0.593 0.236 Q0.675 0.150 0.526 0.091" stroke="hsl(0.0,100%,35%)" stroke-width="0.00533"></path>
<path d="M0.593 0.236 Q0.203 0.441 0.516 0.676" stroke="hsl(0.0,100%,35%)" stroke-width="0.00315"></path>
<path d="M0.593 0.236 Q0.460 0.513 0.971 0.639" stroke="hsl(0.0,100%,35%)" stroke-width="0.00073"></path>
<path d="M0.593 0.236 Q-0.079 0.419 0.130 0.787" stroke="hsl(0.0,100%,35%)" stroke-width="0.00097"></path>
<path d="M0.593 0.236 Q0.040 0.363 0.166 0.661" stroke="hsl(0.0,100%,35%)" stroke-width="0.00024"></path>
<path d="M0.847 0.836 Q1.027 0.673 0.749 0.550" stroke="hsl(0.0,100%,35%)" stroke-width="0.00048"></path>
<path d="M0.847 0.836 Q1.067 0.762 0.971 0.639" stroke="hsl(0.0,100%,35%)" stroke-width="0.00097"></path>
<path d="M0.847 0.836 Q0.528 0.668 0.130 0.787" stroke="hsl(0.0,100%,35%)" stroke-width="0.00048"></path>
<path d="M1.037 0.753 Q1.170 0.771 1.234 0.710" stroke="hsl(0.0,100%,35%)" stroke-width="0.00024"></path>
<path d="M1.037 0.753 Q1.095 0.683 0.971 0.639" stroke="hsl(0.0,100%,35%)" stroke-width="0.00121"></path>
<path d="M1.037 0.753 Q1.178 0.495 0.705 0.370" stroke="hsl(0.0,100%,35%)" stroke-width="0.00024"></path>
<path d="M0.678 0.796 Q0.950 0.776 0.971 0.639" stroke="hsl(0.0,100%,35%)" stroke-width="0.00218"></path>
<path d="M0.678 0.796 Q1.024 0.864 1.234 0.710" stroke="hsl(0.0,100%,35%)" stroke-width="0.00145"></path>
<path d="M0.678 0.796 Q0.411 0.682 0.130 0.787" stroke="hsl(0.0,100%,35%)" stroke-width="0.00024"></path>
<path d="M0.166 0.661 Q0.047 0.717 0.130 0.787" stroke="hsl(0.0,100%,35%)" stroke-width="0.00194"></path>
<path d="M0.166 0.661 Q0.660 0.899 1.234 0.710" stroke="hsl(0.0,100%,35%)" stroke-width="0.00024"></path>
<path d="M0.166 0.661 Q0.586 0.811 0.971 0.639" stroke="hsl(0.0,100%,35%)" stroke-width="0.00145"></path>
<path d="M0.166 0.661 Q0.329 0.738 0.516 0.676" stroke="hsl(0.0,100%,35%)" stroke-width="0.00024"></path>
<path d="M1.660 0.362 Q1.094 0.363 0.971 0.639" stroke="hsl(0.0,100%,35%)" stroke-width="0.00097"></path>
<path d="M1.660 0.362 Q1.169 0.451 1.234 0.710" stroke="hsl(0.0,100%,35%)" stroke-width="0.00024"></path>
<path d="M1.660 0.362 Q0.555 0.268 0.130 0.787" stroke="hsl(0.0,100%,35%)" stroke-width="0.00097"></path>
<path d="M1.660 0.362 Q0.837 0.290 0.516 0.676" stroke="hsl(0.0,100%,35%)" stroke-width="0.00048"></path>
<path d="M1.660 0.362 Q1.310 -0.000 0.526 0.091" stroke="hsl(0.0,100%,35%)" stroke-width="0.00024"></path>
<path d="M1.679 0.267 Q1.593 0.311 1.660 0.362" stroke="hsl(0.0,100%,35%)" stroke-width="0.00048"></path>
<path d="M1.679 0.267 Q1.102 0.399 1.234 0.710" stroke="hsl(0.0,100%,35%)" stroke-width="0.00024"></path>
<path d="M1.679 0.267 Q0.488 0.217 0.130 0.787" stroke="hsl(0.0,100%,35%)" stroke-width="0.00024"></path>
<path d="M1.679 0.267 Q0.770 0.239 0.516 0.676" stroke="hsl(0.0,100%,35%)" stroke-width="0.00024"></path>
<path d="M1.087 0.391 Q0.831 0.492 0.971 0.639" stroke="hsl(0.0,100%,35%)" stroke-width="0.00121"></path>
<path d="M1.087 0.391 Q0.905 0.580 1.234 0.710" stroke="hsl(0.0,100%,35%)" stroke-width="0.00024"></path>
<path d="M1.087 0.391 Q0.574 0.420 0.516 0.676" stroke="hsl(0.0,100%,35%)" stroke-width="0.00024"></path>
<path d="M0.747 0.717 Q0.664 0.650 0.516 0.676" stroke="hsl(0.0,100%,35%)" stroke-width="0.00848"></path>
<path d="M0.747 0.717 Q1.137 0.360 0.526 0.091" stroke="hsl(0.0,100%,35%)" stroke-width="0.00073"></path>
<path d="M0.747 0.717 Q0.922 0.723 0.971 0.639" stroke="hsl(0.0,100%,35%)" stroke-width="0.01332"></path>
<path d="M0.747 0.717 Q0.996 0.811 1.234 0.710" stroke="hsl(0.0,100%,35%)" stroke-width="0.00170"></path>
<path d="M0.747 0.717 Q0.383 0.629 0.130 0.787" stroke="hsl(0.0,100%,35%)" stroke-width="0.00024"></path>
<path d="M0.747 0.717 Q0.760 0.884 1.089 0.914" stroke="hsl(0.0,100%,35%)" stroke-width="0.00024"></path>
<path d="M0.812 0.404 Q0.704 0.553 0.971 0.639" stroke="hsl(0.0,100%,35%)" stroke-width="0.00145"></path>
<path d="M0.812 0.404 Q0.664 0.464 0.749 0.550" stroke="hsl(0.0,100%,35%)" stroke-width="0.00121"></path>
<path d="M0.812 0.404 Q0.165 0.459 0.130 0.787" stroke="hsl(0.0,100%,35%)" stroke-width="0.00024"></path>
<path d="M0.056 0.605 Q0.561 0.893 1.234 0.710" stroke="hsl(0.0,100%,35%)" stroke-width="0.00024"></path>
<path d="M0.056 0.605 Q-0.053 0.711 0.130 0.787" stroke="hsl(0.0,100%,35%)" stroke-width="0.00121"></path>
<path d="M0.056 0.605 Q0.197 0.536 0.093 0.451" stroke="hsl(0.0,100%,35%)" stroke-width="0.00048"></path>
<path d="M0.093 0.451 Q0.382 0.721 0.971 0.639" stroke="hsl(0.0,100%,35%)" stroke-width="0.00339"></path>
<path d="M0.093 0.451 Q0.275 0.775 0.947 0.757" stroke="hsl(0.0,100%,35%)" stroke-width="0.00024"></path>
<path d="M0.093 0.451 Q-0.157 0.627 0.130 0.787" stroke="hsl(0.0,100%,35%)" stroke-width="0.00242"></path>
<path d="M0.093 0.451 Q0.220 0.882 1.089 0.914" stroke="hsl(0.0,100%,35%)" stroke-width="0.00024"></path>
<path d="M0.093 0.451 Q0.456 0.809 1.234 0.710" stroke="hsl(0.0,100%,35%)" stroke-width="0.00024"></path>
<path d="M0.093 0.451 Q0.688 0.751 1.403 0.526" stroke="hsl(0.0,100%,35%)" stroke-width="0.00024"></path>
<path d="M1.275 0.295 Q0.922 0.494 1.234 0.710" stroke="hsl(0.0,100%,35%)" stroke-width="0.00024"></path>
<path d="M1.275 0.295 Q0.848 0.406 0.971 0.639" stroke="hsl(0.0,100%,35%)" stroke-width="0.00024"></path>
<path d="M1.275 0.295 Q0.808 0.317 0.749 0.550" stroke="hsl(0.0,100%,35%)" stroke-width="0.00024"></path>
<path d="M1.275 0.295 Q1.154 0.436 1.403 0.526" stroke="hsl(0.0,100%,35%)" stroke-width="0.00073"></path>
<path d="M1.275 0.295 Q0.686 0.567 1.089 0.914" stroke="hsl(0.0,100%,35%)" stroke-width="0.00024"></path>
<path d="M1.275 0.295 Q0.309 0.312 0.130 0.787" stroke="hsl(0.0,100%,35%)" stroke-width="0.00048"></path>
<path d="M0.703 0.765 Q0.938 0.756 0.971 0.639" stroke="hsl(0.0,100%,35%)" stroke-width="0.00121"></path>
<path d="M0.703 0.765 Q1.244 0.786 1.403 0.526" stroke="hsl(0.0,100%,35%)" stroke-width="0.00048"></path>
<path d="M0.703 0.765 Q0.399 0.661 0.130 0.787" stroke="hsl(0.0,100%,35%)" stroke-width="0.00073"></path>
<path d="M1.326 0.363 Q0.928 0.430 0.971 0.639" stroke="hsl(0.0,100%,35%)" stroke-width="0.00048"></path>
<path d="M1.326 0.363 Q1.234 0.460 1.403 0.526" stroke="hsl(0.0,100%,35%)" stroke-width="0.00024"></path>
<path d="M1.326 0.363 Q1.002 0.518 1.234 0.710" stroke="hsl(0.0,100%,35%)" stroke-width="0.00024"></path>
<path d="M0.394 0.440 Q0.286 0.427 0.238 0.477" stroke="hsl(0.0,100%,35%)" stroke-width="0.00048"></path>
<path d="M0.394 0.440 Q0.523 0.655 0.971 0.639" stroke="hsl(0.0,100%,35%)" stroke-width="0.00024"></path>
<path d="M0.394 0.440 Q0.736 0.611 1.145 0.481" stroke="hsl(0.0,100%,35%)" stroke-width="0.00024"></path>
<path d="M0.238 0.477 Q0.475 0.705 0.971 0.639" stroke="hsl(0.0,100%,35%)" stroke-width="0.00097"></path>
<path d="M0.238 0.477 Q0.369 0.759 0.947 0.757" stroke="hsl(0.0,100%,35%)" stroke-width="0.00024"></path>
<path d="M0.974 0.445 Q0.777 0.452 0.749 0.550" stroke="hsl(0.0,100%,35%)" stroke-width="0.00024"></path>
<path d="M0.974 0.445 Q0.817 0.541 0.971 0.639" stroke="hsl(0.0,100%,35%)" stroke-width="0.00048"></path>
<path d="M0.974 0.445 Q0.892 0.629 1.234 0.710" stroke="hsl(0.0,100%,35%)" stroke-width="0.00024"></path>
<path d="M0.898 1.977 Q1.466 1.229 0.130 0.787" stroke="hsl(0.0,100%,35%)" stroke-width="0.00073"></path>
<path d="M0.898 1.977 Q2.005 1.323 0.971 0.639" stroke="hsl(0.0,100%,35%)" stroke-width="0.00097"></path>
<path d="M1.215 0.400 Q0.902 0.470 0.971 0.639" stroke="hsl(0.0,100%,35%)" stroke-width="0.00266"></path>
<path d="M1.215 0.400 Q0.976 0.559 1.234 0.710" stroke="hsl(0.0,100%,35%)" stroke-width="0.00170"></path>
<path d="M1.215 0.400 Q0.630 0.490 0.678 0.796" stroke="hsl(0.0,100%,35%)" stroke-width="0.00024"></path>
<path d="M1.215 0.400 Q0.363 0.376 0.130 0.787" stroke="hsl(0.0,100%,35%)" stroke-width="0.00024"></path>
<path d="M1.512 0.410 Q1.058 0.416 0.971 0.639" stroke="hsl(0.0,100%,35%)" stroke-width="0.00194"></path>
<path d="M1.512 0.410 Q1.624 0.416 1.660 0.362" stroke="hsl(0.0,100%,35%)" stroke-width="0.00194"></path>
<path d="M1.512 0.410 Q1.132 0.504 1.234 0.710" stroke="hsl(0.0,100%,35%)" stroke-width="0.00024"></path>
<path d="M1.512 0.410 Q0.519 0.322 0.130 0.787" stroke="hsl(0.0,100%,35%)" stroke-width="0.00048"></path>
<path d="M1.512 0.410 Q1.273 0.053 0.526 0.091" stroke="hsl(0.0,100%,35%)" stroke-width="0.00048"></path>
<path d="M0.770 0.720 Q0.935 0.720 0.971 0.639" stroke="hsl(0.0,100%,35%)" stroke-width="0.00194"></path>
<path d="M0.770 0.720 Q1.010 0.808 1.234 0.710" stroke="hsl(0.0,100%,35%)" stroke-width="0.00097"></path>
<path d="M0.770 0.720 Q0.396 0.626 0.130 0.787" stroke="hsl(0.0,100%,35%)" stroke-width="0.00024"></path>
</g>
<text x="0.839" y="1.077" font-size="0.005002" fill="hsl(0.0,100%,20%)">aleino</text>
<text x="1.234" y="0.672" font-size="0.075522" fill="hsl(0.0,100%,20%)">syoussefi</text>
<text x="0.971" y="0.587" font-size="0.104466" fill="hsl(0.0,100%,20%)">jmadill</text>
<text x="0.130" y="0.764" font-size="0.045222" fill="hsl(0.0,100%,20%)">geofflang</text>
<text x="1.081" y="0.640" font-size="0.011460" fill="hsl(0.0,100%,20%)">amaiorano</text>
<text x="0.897" y="0.393" font-size="0.004331" fill="hsl(0.0,100%,20%)">nicolascapens</text>
<text x="1.145" y="0.465" font-size="0.032026" fill="hsl(0.0,100%,20%)">ynovikov</text>
<text x="1.403" y="0.495" font-size="0.062118" fill="hsl(0.0,100%,20%)">timvp</text>
<text x="0.803" y="0.435" font-size="0.012504" fill="hsl(0.0,100%,20%)">amy.liu</text>
<text x="1.089" y="0.897" font-size="0.034742" fill="hsl(0.0,100%,20%)">ianelliott</text>
<text x="0.705" y="0.358" font-size="0.023056" fill="hsl(0.0,100%,20%)">tobine</text>
<text x="1.205" y="0.376" font-size="0.011460" fill="hsl(0.0,100%,20%)">b.schade</text>
<text x="1.194" y="0.423" font-size="0.044384" fill="hsl(0.0,100%,20%)">cclao</text>
<text x="0.749" y="0.524" font-size="0.052397" fill="hsl(0.0,100%,20%)">cnorthrop</text>
<text x="0.310" y="0.645" font-size="0.004331" fill="hsl(0.0,100%,20%)">ccameron</text>
<text x="1.373" y="0.343" font-size="0.008663" fill="hsl(0.0,100%,20%)">cwallez</text>
<text x="0.119" y="0.518" font-size="0.006126" fill="hsl(0.0,100%,20%)">lfy</text>
<text x="0.947" y="0.734" font-size="0.045635" fill="hsl(0.0,100%,20%)">courtneygo</text>
<text x="1.275" y="0.548" font-size="0.038499" fill="hsl(0.0,100%,20%)">m.maiya</text>
<text x="1.023" y="0.382" font-size="0.004331" fill="hsl(0.0,100%,20%)">sunny.sun</text>
<text x="0.838" y="0.379" font-size="0.003537" fill="hsl(0.0,100%,20%)">paulthomson</text>
<text x="0.668" y="0.639" font-size="0.024246" fill="hsl(0.0,100%,20%)">nguyenmh</text>
<text x="0.516" y="0.657" font-size="0.038009" fill="hsl(0.0,100%,20%)">jonahr</text>
<text x="1.026" y="0.704" font-size="0.007502" fill="hsl(0.0,100%,20%)">etienneb</text>
<text x="0.081" y="0.647" font-size="0.012994" fill="hsl(0.0,100%,20%)">sugoi</text>
<text x="0.276" y="0.701" font-size="0.017505" fill="hsl(0.0,100%,20%)">lexa.knyazev</text>
<text x="0.395" y="0.631" font-size="0.002501" fill="hsl(0.0,100%,20%)">zmo</text>
<text x="0.711" y="0.692" font-size="0.014147" fill="hsl(0.0,100%,20%)">penghuang</text>
<text x="0.526" y="0.081" font-size="0.021220" fill="hsl(0.0,100%,20%)">kbr</text>
<text x="0.593" y="0.227" font-size="0.018033" fill="hsl(0.0,100%,20%)">jdarpinian</text>
<text x="0.228" y="0.684" font-size="0.002501" fill="hsl(0.0,100%,20%)">brianosman</text>
<text x="0.847" y="0.833" font-size="0.007073" fill="hsl(0.0,100%,20%)">gert.wollny</text>
<text x="1.037" y="0.750" font-size="0.006616" fill="hsl(0.0,100%,20%)">hckim.kim</text>
<text x="0.678" y="0.791" font-size="0.010311" fill="hsl(0.0,100%,20%)">j.vigil</text>
<text x="0.166" y="0.655" font-size="0.010610" fill="hsl(0.0,100%,20%)">shrekshao</text>
<text x="1.660" y="0.356" font-size="0.011730" fill="hsl(0.0,100%,20%)">jiajia.qin</text>
<text x="1.679" y="0.264" font-size="0.005592" fill="hsl(0.0,100%,20%)">jiawei.shao</text>
<text x="1.087" y="0.388" font-size="0.007073" fill="hsl(0.0,100%,20%)">jie.a.chen</text>
<text x="0.922" y="0.826" font-size="0.002501" fill="hsl(0.0,100%,20%)">tandrii</text>
<text x="0.912" y="0.692" font-size="0.004331" fill="hsl(0.0,100%,20%)">dpranke</text>
<text x="0.756" y="0.626" font-size="0.005592" fill="hsl(0.0,100%,20%)">bsheedy</text>
<text x="0.098" y="0.416" font-size="0.007073" fill="hsl(0.0,100%,20%)">le.hoang.q</text>
<text x="0.684" y="1.300" font-size="0.003537" fill="hsl(0.0,100%,20%)">kainino</text>
<text x="0.885" y="0.420" font-size="0.002501" fill="hsl(0.0,100%,20%)">julien.isorce</text>
<text x="0.747" y="0.704" font-size="0.025257" fill="hsl(0.0,100%,20%)">lehoangq</text>
<text x="0.812" y="0.400" font-size="0.008663" fill="hsl(0.0,100%,20%)">lubosz.sarnecki</text>
<text x="0.056" y="0.601" font-size="0.007073" fill="hsl(0.0,100%,20%)">msisov</text>
<text x="0.093" y="0.444" font-size="0.014366" fill="hsl(0.0,100%,20%)">spang</text>
<text x="1.275" y="0.291" font-size="0.007502" fill="hsl(0.0,100%,20%)">natsu</text>
<text x="0.703" y="0.761" font-size="0.007908" fill="hsl(0.0,100%,20%)">rafael.cintron</text>
<text x="1.326" y="0.360" font-size="0.005002" fill="hsl(0.0,100%,20%)">reveman</text>
<text x="0.394" y="0.437" font-size="0.005002" fill="hsl(0.0,100%,20%)">sdefresne</text>
<text x="0.238" y="0.474" font-size="0.006616" fill="hsl(0.0,100%,20%)">thakis</text>
<text x="0.974" y="0.442" font-size="0.005002" fill="hsl(0.0,100%,20%)">shabbyx</text>
<text x="1.483" y="0.719" font-size="0.002501" fill="hsl(0.0,100%,20%)">capn</text>
<text x="0.898" y="1.974" font-size="0.006616" fill="hsl(0.0,100%,20%)">vantablack</text>
<text x="1.215" y="0.394" font-size="0.011184" fill="hsl(0.0,100%,20%)">xiaoxuan.liu</text>
<text x="1.512" y="0.404" font-size="0.011460" fill="hsl(0.0,100%,20%)">xinghua.cao</text>
<text x="0.770" y="0.716" font-size="0.009017" fill="hsl(0.0,100%,20%)">xinyi.he</text>
<text x="0.921" y="0.415" font-size="0.002501" fill="hsl(0.0,100%,20%)">senorblanco</text>
</svg>
