<svg width="4000" height="2000" viewBox="-0.025 -0.025 2.05 1.05" xmlns="http://www.w3.org/2000/svg">
  <style>
    path {
      fill: none;
      stroke-linecap: round;
      stroke-opacity: 0.4;
    }

    text {
      text-anchor: middle;
      alignment-baseline: hanging;
    }
  </style>
  <g opacity="0.4">
<path d="M0.357 0.713 Q0.629 0.944 1.138 0.862" stroke="hsl(0.0,100%,35%)" stroke-width="0.00025"></path>
<path d="M0.357 0.713 Q0.242 0.908 0.598 1.008" stroke="hsl(0.0,100%,35%)" stroke-width="0.00099"></path>
<path d="M0.357 0.713 Q0.310 0.675 0.226 0.689" stroke="hsl(0.0,100%,35%)" stroke-width="0.00025"></path>
<path d="M1.138 0.862 Q0.751 0.827 0.598 1.008" stroke="hsl(0.0,100%,35%)" stroke-width="0.05346"></path>
<path d="M1.138 0.862 Q1.142 0.746 0.916 0.718" stroke="hsl(0.0,100%,35%)" stroke-width="0.01158"></path>
<path d="M1.138 0.862 Q0.949 0.849 0.882 0.938" stroke="hsl(0.0,100%,35%)" stroke-width="0.03005"></path>
<path d="M1.138 0.862 Q0.920 0.545 0.254 0.582" stroke="hsl(0.0,100%,35%)" stroke-width="0.00074"></path>
<path d="M1.138 0.862 Q0.861 0.483 0.063 0.535" stroke="hsl(0.0,100%,35%)" stroke-width="0.00025"></path>
<path d="M1.138 0.862 Q0.827 0.698 0.439 0.814" stroke="hsl(0.0,100%,35%)" stroke-width="0.00345"></path>
<path d="M1.138 0.862 Q1.026 0.755 0.793 0.785" stroke="hsl(0.0,100%,35%)" stroke-width="0.00468"></path>
<path d="M1.138 0.862 Q0.613 0.684 0.152 0.901" stroke="hsl(0.0,100%,35%)" stroke-width="0.00025"></path>
<path d="M1.138 0.862 Q0.709 0.628 0.158 0.785" stroke="hsl(0.0,100%,35%)" stroke-width="0.00468"></path>
<path d="M1.138 0.862 Q1.319 0.832 1.301 0.737" stroke="hsl(0.0,100%,35%)" stroke-width="0.00320"></path>
<path d="M1.138 0.862 Q0.942 0.807 0.792 0.891" stroke="hsl(0.0,100%,35%)" stroke-width="0.00025"></path>
<path d="M1.138 0.862 Q1.269 0.669 0.921 0.563" stroke="hsl(0.0,100%,35%)" stroke-width="0.00049"></path>
<path d="M1.138 0.862 Q0.819 0.593 0.226 0.689" stroke="hsl(0.0,100%,35%)" stroke-width="0.00099"></path>
<path d="M1.138 0.862 Q0.863 0.769 0.621 0.883" stroke="hsl(0.0,100%,35%)" stroke-width="0.00271"></path>
<path d="M1.138 0.862 Q1.256 0.910 1.375 0.863" stroke="hsl(0.0,100%,35%)" stroke-width="0.00025"></path>
<path d="M1.138 0.862 Q0.639 0.715 0.243 0.926" stroke="hsl(0.0,100%,35%)" stroke-width="0.00049"></path>
<path d="M1.138 0.862 Q0.870 0.645 0.388 0.728" stroke="hsl(0.0,100%,35%)" stroke-width="0.00025"></path>
<path d="M1.138 0.862 Q1.152 0.703 0.845 0.661" stroke="hsl(0.0,100%,35%)" stroke-width="0.00025"></path>
<path d="M1.138 0.862 Q0.917 0.694 0.542 0.765" stroke="hsl(0.0,100%,35%)" stroke-width="0.00099"></path>
<path d="M1.138 0.862 Q0.688 0.809 0.486 1.017" stroke="hsl(0.0,100%,35%)" stroke-width="0.00049"></path>
<path d="M1.138 0.862 Q0.799 0.931 0.860 1.111" stroke="hsl(0.0,100%,35%)" stroke-width="0.00025"></path>
<path d="M0.598 1.008 Q0.984 1.043 1.138 0.862" stroke="hsl(0.0,100%,35%)" stroke-width="0.01995"></path>
<path d="M0.598 1.008 Q1.166 1.013 1.301 0.737" stroke="hsl(0.0,100%,35%)" stroke-width="0.00345"></path>
<path d="M0.598 1.008 Q0.873 0.935 0.793 0.785" stroke="hsl(0.0,100%,35%)" stroke-width="0.02168"></path>
<path d="M0.598 1.008 Q0.764 0.875 0.542 0.765" stroke="hsl(0.0,100%,35%)" stroke-width="0.03671"></path>
<path d="M0.598 1.008 Q0.795 1.030 0.882 0.938" stroke="hsl(0.0,100%,35%)" stroke-width="0.03178"></path>
<path d="M0.598 1.008 Q0.854 0.904 0.708 0.756" stroke="hsl(0.0,100%,35%)" stroke-width="0.00025"></path>
<path d="M0.598 1.008 Q0.673 0.879 0.439 0.814" stroke="hsl(0.0,100%,35%)" stroke-width="0.00370"></path>
<path d="M0.598 1.008 Q0.556 0.808 0.158 0.785" stroke="hsl(0.0,100%,35%)" stroke-width="0.00936"></path>
<path d="M0.598 1.008 Q0.904 0.754 0.478 0.549" stroke="hsl(0.0,100%,35%)" stroke-width="0.00025"></path>
<path d="M0.598 1.008 Q0.809 0.603 0.065 0.411" stroke="hsl(0.0,100%,35%)" stroke-width="0.00025"></path>
<path d="M0.598 1.008 Q0.709 0.950 0.621 0.883" stroke="hsl(0.0,100%,35%)" stroke-width="0.02562"></path>
<path d="M0.598 1.008 Q0.882 0.869 0.674 0.700" stroke="hsl(0.0,100%,35%)" stroke-width="0.00025"></path>
<path d="M0.598 1.008 Q0.666 0.774 0.226 0.689" stroke="hsl(0.0,100%,35%)" stroke-width="0.01035"></path>
<path d="M0.598 1.008 Q0.909 0.889 0.746 0.711" stroke="hsl(0.0,100%,35%)" stroke-width="0.00074"></path>
<path d="M0.598 1.008 Q0.898 0.943 0.837 0.782" stroke="hsl(0.0,100%,35%)" stroke-width="0.00123"></path>
<path d="M0.598 1.008 Q0.708 0.664 0.063 0.535" stroke="hsl(0.0,100%,35%)" stroke-width="0.00025"></path>
<path d="M0.598 1.008 Q1.065 0.914 0.986 0.666" stroke="hsl(0.0,100%,35%)" stroke-width="0.00025"></path>
<path d="M0.598 1.008 Q0.988 0.926 0.916 0.718" stroke="hsl(0.0,100%,35%)" stroke-width="0.00665"></path>
<path d="M0.598 1.008 Q0.999 0.884 0.845 0.661" stroke="hsl(0.0,100%,35%)" stroke-width="0.00394"></path>
<path d="M0.598 1.008 Q0.535 0.990 0.486 1.017" stroke="hsl(0.0,100%,35%)" stroke-width="0.00123"></path>
<path d="M0.598 1.008 Q0.716 0.826 0.388 0.728" stroke="hsl(0.0,100%,35%)" stroke-width="0.00025"></path>
<path d="M0.598 1.008 Q0.486 0.896 0.243 0.926" stroke="hsl(0.0,100%,35%)" stroke-width="0.00049"></path>
<path d="M0.598 1.008 Q0.587 0.768 0.116 0.721" stroke="hsl(0.0,100%,35%)" stroke-width="0.00025"></path>
<path d="M0.598 1.008 Q0.766 0.726 0.254 0.582" stroke="hsl(0.0,100%,35%)" stroke-width="0.00049"></path>
<path d="M0.226 0.689 Q0.353 0.638 0.280 0.564" stroke="hsl(0.0,100%,35%)" stroke-width="0.00025"></path>
<path d="M0.226 0.689 Q0.115 0.724 0.158 0.785" stroke="hsl(0.0,100%,35%)" stroke-width="0.00591"></path>
<path d="M0.226 0.689 Q0.157 0.923 0.598 1.008" stroke="hsl(0.0,100%,35%)" stroke-width="0.00936"></path>
<path d="M0.226 0.689 Q0.433 0.851 0.793 0.785" stroke="hsl(0.0,100%,35%)" stroke-width="0.00025"></path>
<path d="M0.226 0.689 Q0.269 0.865 0.621 0.883" stroke="hsl(0.0,100%,35%)" stroke-width="0.00123"></path>
<path d="M0.226 0.689 Q0.323 0.791 0.542 0.765" stroke="hsl(0.0,100%,35%)" stroke-width="0.00049"></path>
<path d="M0.226 0.689 Q0.544 0.958 1.138 0.862" stroke="hsl(0.0,100%,35%)" stroke-width="0.00123"></path>
<path d="M0.226 0.689 Q0.355 0.945 0.882 0.938" stroke="hsl(0.0,100%,35%)" stroke-width="0.00739"></path>
<path d="M0.226 0.689 Q0.045 0.811 0.243 0.926" stroke="hsl(0.0,100%,35%)" stroke-width="0.00049"></path>
<path d="M0.226 0.689 Q0.368 0.518 0.065 0.411" stroke="hsl(0.0,100%,35%)" stroke-width="0.00049"></path>
<path d="M0.226 0.689 Q0.019 0.780 0.152 0.901" stroke="hsl(0.0,100%,35%)" stroke-width="0.00025"></path>
<path d="M0.226 0.689 Q0.253 0.623 0.131 0.595" stroke="hsl(0.0,100%,35%)" stroke-width="0.00025"></path>
<path d="M0.226 0.689 Q0.441 0.624 0.361 0.505" stroke="hsl(0.0,100%,35%)" stroke-width="0.00049"></path>
<path d="M0.226 0.689 Q0.352 0.585 0.176 0.500" stroke="hsl(0.0,100%,35%)" stroke-width="0.00025"></path>
<path d="M0.860 1.111 Q0.812 1.007 0.598 1.008" stroke="hsl(0.0,100%,35%)" stroke-width="0.00222"></path>
<path d="M0.860 1.111 Q0.930 0.825 0.388 0.728" stroke="hsl(0.0,100%,35%)" stroke-width="0.00025"></path>
<path d="M0.860 1.111 Q1.087 0.935 0.793 0.785" stroke="hsl(0.0,100%,35%)" stroke-width="0.00025"></path>
<path d="M0.860 1.111 Q1.198 1.042 1.138 0.862" stroke="hsl(0.0,100%,35%)" stroke-width="0.00049"></path>
<path d="M0.860 1.111 Q1.009 1.029 0.882 0.938" stroke="hsl(0.0,100%,35%)" stroke-width="0.00025"></path>
<path d="M0.860 1.111 Q0.880 0.773 0.226 0.689" stroke="hsl(0.0,100%,35%)" stroke-width="0.00148"></path>
<path d="M0.793 0.785 Q0.518 0.857 0.598 1.008" stroke="hsl(0.0,100%,35%)" stroke-width="0.00788"></path>
<path d="M0.793 0.785 Q0.125 1.034 0.464 1.414" stroke="hsl(0.0,100%,35%)" stroke-width="0.00025"></path>
<path d="M0.793 0.785 Q0.904 0.892 1.138 0.862" stroke="hsl(0.0,100%,35%)" stroke-width="0.00049"></path>
<path d="M0.793 0.785 Q0.593 0.729 0.439 0.814" stroke="hsl(0.0,100%,35%)" stroke-width="0.00025"></path>
<path d="M0.793 0.785 Q0.476 0.658 0.158 0.785" stroke="hsl(0.0,100%,35%)" stroke-width="0.00025"></path>
<path d="M0.793 0.785 Q0.586 0.624 0.226 0.689" stroke="hsl(0.0,100%,35%)" stroke-width="0.00049"></path>
<path d="M0.793 0.785 Q0.629 0.800 0.621 0.883" stroke="hsl(0.0,100%,35%)" stroke-width="0.00025"></path>
<path d="M0.882 0.938 Q0.850 0.784 0.542 0.765" stroke="hsl(0.0,100%,35%)" stroke-width="0.00394"></path>
<path d="M0.882 0.938 Q0.684 0.916 0.598 1.008" stroke="hsl(0.0,100%,35%)" stroke-width="0.02020"></path>
<path d="M0.882 0.938 Q1.071 0.951 1.138 0.862" stroke="hsl(0.0,100%,35%)" stroke-width="0.00764"></path>
<path d="M0.882 0.938 Q0.895 0.511 0.065 0.411" stroke="hsl(0.0,100%,35%)" stroke-width="0.00025"></path>
<path d="M0.882 0.938 Q1.075 0.835 0.916 0.718" stroke="hsl(0.0,100%,35%)" stroke-width="0.00591"></path>
<path d="M0.882 0.938 Q0.753 0.682 0.226 0.689" stroke="hsl(0.0,100%,35%)" stroke-width="0.00370"></path>
<path d="M0.882 0.938 Q0.796 0.858 0.621 0.883" stroke="hsl(0.0,100%,35%)" stroke-width="0.00616"></path>
<path d="M0.882 0.938 Q1.152 0.823 0.986 0.666" stroke="hsl(0.0,100%,35%)" stroke-width="0.00025"></path>
<path d="M0.882 0.938 Q0.960 0.844 0.793 0.785" stroke="hsl(0.0,100%,35%)" stroke-width="0.00049"></path>
<path d="M0.882 0.938 Q0.760 0.787 0.439 0.814" stroke="hsl(0.0,100%,35%)" stroke-width="0.00049"></path>
<path d="M0.882 0.938 Q1.085 0.792 0.845 0.661" stroke="hsl(0.0,100%,35%)" stroke-width="0.00049"></path>
<path d="M0.882 0.938 Q0.985 0.701 0.545 0.599" stroke="hsl(0.0,100%,35%)" stroke-width="0.00025"></path>
<path d="M1.011 0.530 Q0.422 0.686 0.598 1.008" stroke="hsl(0.0,100%,35%)" stroke-width="0.00222"></path>
<path d="M1.011 0.530 Q0.809 0.721 1.138 0.862" stroke="hsl(0.0,100%,35%)" stroke-width="0.00197"></path>
<path d="M1.011 0.530 Q0.491 0.453 0.226 0.689" stroke="hsl(0.0,100%,35%)" stroke-width="0.00099"></path>
<path d="M1.011 0.530 Q0.498 0.557 0.439 0.814" stroke="hsl(0.0,100%,35%)" stroke-width="0.00049"></path>
<path d="M1.011 0.530 Q0.823 0.562 0.845 0.661" stroke="hsl(0.0,100%,35%)" stroke-width="0.00025"></path>
<path d="M0.439 0.814 Q0.750 0.977 1.138 0.862" stroke="hsl(0.0,100%,35%)" stroke-width="0.00567"></path>
<path d="M0.439 0.814 Q0.363 0.942 0.598 1.008" stroke="hsl(0.0,100%,35%)" stroke-width="0.00690"></path>
<path d="M0.439 0.814 Q0.639 0.870 0.793 0.785" stroke="hsl(0.0,100%,35%)" stroke-width="0.00099"></path>
<path d="M0.439 0.814 Q0.561 0.964 0.882 0.938" stroke="hsl(0.0,100%,35%)" stroke-width="0.00271"></path>
<path d="M0.439 0.814 Q0.475 0.885 0.621 0.883" stroke="hsl(0.0,100%,35%)" stroke-width="0.00616"></path>
<path d="M0.439 0.814 Q0.754 0.861 0.916 0.718" stroke="hsl(0.0,100%,35%)" stroke-width="0.00222"></path>
<path d="M0.439 0.814 Q0.529 0.810 0.542 0.765" stroke="hsl(0.0,100%,35%)" stroke-width="0.00320"></path>
<path d="M0.439 0.814 Q0.431 0.709 0.226 0.689" stroke="hsl(0.0,100%,35%)" stroke-width="0.00123"></path>
<path d="M0.439 0.814 Q0.764 0.819 0.845 0.661" stroke="hsl(0.0,100%,35%)" stroke-width="0.00025"></path>
<path d="M0.845 0.661 Q0.513 0.551 0.226 0.689" stroke="hsl(0.0,100%,35%)" stroke-width="0.00025"></path>
<path d="M0.845 0.661 Q0.642 0.807 0.882 0.938" stroke="hsl(0.0,100%,35%)" stroke-width="0.00222"></path>
<path d="M0.845 0.661 Q0.556 0.727 0.621 0.883" stroke="hsl(0.0,100%,35%)" stroke-width="0.00271"></path>
<path d="M0.845 0.661 Q0.831 0.820 1.138 0.862" stroke="hsl(0.0,100%,35%)" stroke-width="0.00099"></path>
<path d="M0.845 0.661 Q0.444 0.785 0.598 1.008" stroke="hsl(0.0,100%,35%)" stroke-width="0.00493"></path>
<path d="M0.845 0.661 Q0.610 0.653 0.542 0.765" stroke="hsl(0.0,100%,35%)" stroke-width="0.00049"></path>
<path d="M0.845 0.661 Q1.012 0.790 1.301 0.737" stroke="hsl(0.0,100%,35%)" stroke-width="0.00049"></path>
<path d="M0.845 0.661 Q0.520 0.656 0.439 0.814" stroke="hsl(0.0,100%,35%)" stroke-width="0.00074"></path>
<path d="M0.845 0.661 Q0.835 0.704 0.916 0.718" stroke="hsl(0.0,100%,35%)" stroke-width="0.00222"></path>
<path d="M0.845 0.661 Q0.720 0.713 0.793 0.785" stroke="hsl(0.0,100%,35%)" stroke-width="0.00025"></path>
<path d="M0.845 0.661 Q0.402 0.586 0.158 0.785" stroke="hsl(0.0,100%,35%)" stroke-width="0.00025"></path>
<path d="M0.792 0.891 Q0.602 0.910 0.598 1.008" stroke="hsl(0.0,100%,35%)" stroke-width="0.00271"></path>
<path d="M0.792 0.891 Q0.988 0.945 1.138 0.862" stroke="hsl(0.0,100%,35%)" stroke-width="0.00172"></path>
<path d="M0.792 0.891 Q0.992 0.829 0.916 0.718" stroke="hsl(0.0,100%,35%)" stroke-width="0.00049"></path>
<path d="M0.792 0.891 Q0.799 0.932 0.882 0.938" stroke="hsl(0.0,100%,35%)" stroke-width="0.00074"></path>
<path d="M0.792 0.891 Q0.767 0.778 0.542 0.765" stroke="hsl(0.0,100%,35%)" stroke-width="0.00025"></path>
<path d="M0.792 0.891 Q1.002 0.786 0.845 0.661" stroke="hsl(0.0,100%,35%)" stroke-width="0.00025"></path>
<path d="M0.916 0.718 Q0.912 0.834 1.138 0.862" stroke="hsl(0.0,100%,35%)" stroke-width="0.00838"></path>
<path d="M0.916 0.718 Q0.723 0.821 0.882 0.938" stroke="hsl(0.0,100%,35%)" stroke-width="0.01158"></path>
<path d="M0.916 0.718 Q0.525 0.799 0.598 1.008" stroke="hsl(0.0,100%,35%)" stroke-width="0.01651"></path>
<path d="M0.916 0.718 Q0.601 0.670 0.439 0.814" stroke="hsl(0.0,100%,35%)" stroke-width="0.00320"></path>
<path d="M0.916 0.718 Q0.637 0.742 0.621 0.883" stroke="hsl(0.0,100%,35%)" stroke-width="0.00493"></path>
<path d="M0.916 0.718 Q1.093 0.805 1.301 0.737" stroke="hsl(0.0,100%,35%)" stroke-width="0.00025"></path>
<path d="M0.916 0.718 Q0.594 0.566 0.226 0.689" stroke="hsl(0.0,100%,35%)" stroke-width="0.00025"></path>
<path d="M0.916 0.718 Q1.043 0.642 0.921 0.563" stroke="hsl(0.0,100%,35%)" stroke-width="0.00025"></path>
<path d="M0.916 0.718 Q0.926 0.675 0.845 0.661" stroke="hsl(0.0,100%,35%)" stroke-width="0.00049"></path>
<path d="M0.542 0.765 Q0.376 0.898 0.598 1.008" stroke="hsl(0.0,100%,35%)" stroke-width="0.02562"></path>
<path d="M0.542 0.765 Q0.574 0.920 0.882 0.938" stroke="hsl(0.0,100%,35%)" stroke-width="0.00345"></path>
<path d="M0.542 0.765 Q0.763 0.933 1.138 0.862" stroke="hsl(0.0,100%,35%)" stroke-width="0.00074"></path>
<path d="M0.542 0.765 Q0.488 0.840 0.621 0.883" stroke="hsl(0.0,100%,35%)" stroke-width="0.01158"></path>
<path d="M0.542 0.765 Q0.766 0.817 0.916 0.718" stroke="hsl(0.0,100%,35%)" stroke-width="0.00025"></path>
<path d="M0.542 0.765 Q0.944 0.903 1.301 0.737" stroke="hsl(0.0,100%,35%)" stroke-width="0.00025"></path>
<path d="M0.542 0.765 Q0.313 0.880 0.486 1.017" stroke="hsl(0.0,100%,35%)" stroke-width="0.00345"></path>
<path d="M0.542 0.765 Q0.452 0.769 0.439 0.814" stroke="hsl(0.0,100%,35%)" stroke-width="0.00025"></path>
<path d="M0.542 0.765 Q0.444 0.664 0.226 0.689" stroke="hsl(0.0,100%,35%)" stroke-width="0.00025"></path>
<path d="M0.344 0.448 Q0.330 0.525 0.478 0.549" stroke="hsl(0.0,100%,35%)" stroke-width="0.00025"></path>
<path d="M0.344 0.448 Q0.091 0.545 0.226 0.689" stroke="hsl(0.0,100%,35%)" stroke-width="0.00025"></path>
<path d="M0.344 0.448 Q0.279 0.675 0.708 0.756" stroke="hsl(0.0,100%,35%)" stroke-width="0.00025"></path>
<path d="M0.478 0.549 Q0.558 0.838 1.138 0.862" stroke="hsl(0.0,100%,35%)" stroke-width="0.00025"></path>
<path d="M0.478 0.549 Q0.240 0.569 0.226 0.689" stroke="hsl(0.0,100%,35%)" stroke-width="0.00049"></path>
<path d="M0.478 0.549 Q0.129 0.603 0.158 0.785" stroke="hsl(0.0,100%,35%)" stroke-width="0.00025"></path>
<path d="M0.478 0.549 Q0.171 0.802 0.598 1.008" stroke="hsl(0.0,100%,35%)" stroke-width="0.00025"></path>
<path d="M0.708 0.756 Q0.452 0.860 0.598 1.008" stroke="hsl(0.0,100%,35%)" stroke-width="0.00049"></path>
<path d="M0.708 0.756 Q0.649 0.882 0.882 0.938" stroke="hsl(0.0,100%,35%)" stroke-width="0.00025"></path>
<path d="M0.708 0.756 Q0.520 0.626 0.226 0.689" stroke="hsl(0.0,100%,35%)" stroke-width="0.00025"></path>
<path d="M0.621 0.883 Q0.510 0.940 0.598 1.008" stroke="hsl(0.0,100%,35%)" stroke-width="0.00788"></path>
<path d="M0.621 0.883 Q0.896 0.975 1.138 0.862" stroke="hsl(0.0,100%,35%)" stroke-width="0.00320"></path>
<path d="M0.621 0.883 Q0.707 0.963 0.882 0.938" stroke="hsl(0.0,100%,35%)" stroke-width="0.00468"></path>
<path d="M0.621 0.883 Q0.785 0.868 0.793 0.785" stroke="hsl(0.0,100%,35%)" stroke-width="0.00025"></path>
<path d="M0.621 0.883 Q0.676 0.808 0.542 0.765" stroke="hsl(0.0,100%,35%)" stroke-width="0.00296"></path>
<path d="M0.621 0.883 Q0.585 0.812 0.439 0.814" stroke="hsl(0.0,100%,35%)" stroke-width="0.00197"></path>
<path d="M0.621 0.883 Q0.900 0.859 0.916 0.718" stroke="hsl(0.0,100%,35%)" stroke-width="0.00074"></path>
<path d="M0.621 0.883 Q0.578 0.707 0.226 0.689" stroke="hsl(0.0,100%,35%)" stroke-width="0.00123"></path>
<path d="M0.621 0.883 Q0.910 0.817 0.845 0.661" stroke="hsl(0.0,100%,35%)" stroke-width="0.00074"></path>
<path d="M1.301 0.737 Q0.733 0.732 0.598 1.008" stroke="hsl(0.0,100%,35%)" stroke-width="0.01922"></path>
<path d="M1.301 0.737 Q1.120 0.767 1.138 0.862" stroke="hsl(0.0,100%,35%)" stroke-width="0.01552"></path>
<path d="M1.301 0.737 Q0.899 0.599 0.542 0.765" stroke="hsl(0.0,100%,35%)" stroke-width="0.00148"></path>
<path d="M1.301 0.737 Q0.931 0.754 0.882 0.938" stroke="hsl(0.0,100%,35%)" stroke-width="0.00222"></path>
<path d="M1.301 0.737 Q0.845 0.674 0.621 0.883" stroke="hsl(0.0,100%,35%)" stroke-width="0.00172"></path>
<path d="M1.301 0.737 Q0.802 0.498 0.226 0.689" stroke="hsl(0.0,100%,35%)" stroke-width="0.00148"></path>
<path d="M1.301 0.737 Q0.809 0.603 0.439 0.814" stroke="hsl(0.0,100%,35%)" stroke-width="0.00025"></path>
<path d="M1.301 0.737 Q1.134 0.608 0.845 0.661" stroke="hsl(0.0,100%,35%)" stroke-width="0.00074"></path>
<path d="M0.486 1.017 Q0.549 1.035 0.598 1.008" stroke="hsl(0.0,100%,35%)" stroke-width="0.00936"></path>
<path d="M0.486 1.017 Q0.715 0.902 0.542 0.765" stroke="hsl(0.0,100%,35%)" stroke-width="0.00714"></path>
<path d="M0.486 1.017 Q0.936 1.070 1.138 0.862" stroke="hsl(0.0,100%,35%)" stroke-width="0.00123"></path>
<path d="M0.486 1.017 Q0.747 1.057 0.882 0.938" stroke="hsl(0.0,100%,35%)" stroke-width="0.00025"></path>
<path d="M0.158 0.785 Q0.200 0.984 0.598 1.008" stroke="hsl(0.0,100%,35%)" stroke-width="0.00690"></path>
<path d="M0.158 0.785 Q0.268 0.751 0.226 0.689" stroke="hsl(0.0,100%,35%)" stroke-width="0.00468"></path>
<path d="M0.158 0.785 Q0.586 1.019 1.138 0.862" stroke="hsl(0.0,100%,35%)" stroke-width="0.00345"></path>
<path d="M0.158 0.785 Q0.088 0.873 0.243 0.926" stroke="hsl(0.0,100%,35%)" stroke-width="0.00074"></path>
<path d="M0.158 0.785 Q0.475 0.912 0.793 0.785" stroke="hsl(0.0,100%,35%)" stroke-width="0.00025"></path>
<path d="M0.158 0.785 Q0.398 1.006 0.882 0.938" stroke="hsl(0.0,100%,35%)" stroke-width="0.00074"></path>
<path d="M0.158 0.785 Q0.506 0.731 0.478 0.549" stroke="hsl(0.0,100%,35%)" stroke-width="0.00049"></path>
<path d="M0.158 0.785 Q0.601 0.860 0.845 0.661" stroke="hsl(0.0,100%,35%)" stroke-width="0.00049"></path>
<path d="M0.949 1.089 Q0.838 0.978 0.598 1.008" stroke="hsl(0.0,100%,35%)" stroke-width="0.00197"></path>
<path d="M0.949 1.089 Q1.225 1.013 1.138 0.862" stroke="hsl(0.0,100%,35%)" stroke-width="0.00025"></path>
<path d="M0.825 0.688 Q0.842 0.838 1.138 0.862" stroke="hsl(0.0,100%,35%)" stroke-width="0.00025"></path>
<path d="M0.825 0.688 Q0.456 0.802 0.598 1.008" stroke="hsl(0.0,100%,35%)" stroke-width="0.00074"></path>
<path d="M0.825 0.688 Q0.846 0.721 0.916 0.718" stroke="hsl(0.0,100%,35%)" stroke-width="0.00025"></path>
<path d="M0.280 0.564 Q0.471 0.885 1.138 0.862" stroke="hsl(0.0,100%,35%)" stroke-width="0.00099"></path>
<path d="M0.280 0.564 Q0.084 0.849 0.598 1.008" stroke="hsl(0.0,100%,35%)" stroke-width="0.00222"></path>
<path d="M0.280 0.564 Q0.152 0.616 0.226 0.689" stroke="hsl(0.0,100%,35%)" stroke-width="0.00123"></path>
<path d="M0.280 0.564 Q0.042 0.650 0.158 0.785" stroke="hsl(0.0,100%,35%)" stroke-width="0.00123"></path>
<path d="M0.243 0.926 Q0.313 0.838 0.158 0.785" stroke="hsl(0.0,100%,35%)" stroke-width="0.00271"></path>
<path d="M0.243 0.926 Q0.424 0.804 0.226 0.689" stroke="hsl(0.0,100%,35%)" stroke-width="0.00296"></path>
<path d="M0.243 0.926 Q0.355 1.038 0.598 1.008" stroke="hsl(0.0,100%,35%)" stroke-width="0.00148"></path>
<path d="M0.243 0.926 Q0.218 0.895 0.152 0.901" stroke="hsl(0.0,100%,35%)" stroke-width="0.00025"></path>
<path d="M0.243 0.926 Q0.742 1.073 1.138 0.862" stroke="hsl(0.0,100%,35%)" stroke-width="0.00025"></path>
<path d="M0.243 0.926 Q0.631 0.965 0.793 0.785" stroke="hsl(0.0,100%,35%)" stroke-width="0.00025"></path>
<path d="M0.065 0.411 Q-0.146 0.816 0.598 1.008" stroke="hsl(0.0,100%,35%)" stroke-width="0.00222"></path>
<path d="M0.065 0.411 Q0.240 0.851 1.138 0.862" stroke="hsl(0.0,100%,35%)" stroke-width="0.00074"></path>
<path d="M0.065 0.411 Q-0.078 0.582 0.226 0.689" stroke="hsl(0.0,100%,35%)" stroke-width="0.00246"></path>
<path d="M0.152 0.901 Q0.676 1.078 1.138 0.862" stroke="hsl(0.0,100%,35%)" stroke-width="0.00148"></path>
<path d="M0.152 0.901 Q0.177 0.932 0.243 0.926" stroke="hsl(0.0,100%,35%)" stroke-width="0.00542"></path>
<path d="M0.152 0.901 Q0.247 0.844 0.158 0.785" stroke="hsl(0.0,100%,35%)" stroke-width="0.00320"></path>
<path d="M0.152 0.901 Q0.289 1.043 0.598 1.008" stroke="hsl(0.0,100%,35%)" stroke-width="0.00074"></path>
<path d="M0.152 0.901 Q0.358 0.810 0.226 0.689" stroke="hsl(0.0,100%,35%)" stroke-width="0.00099"></path>
<path d="M0.152 0.901 Q0.590 0.828 0.545 0.599" stroke="hsl(0.0,100%,35%)" stroke-width="0.00025"></path>
<path d="M0.131 0.595 Q0.145 0.552 0.063 0.535" stroke="hsl(0.0,100%,35%)" stroke-width="0.00148"></path>
<path d="M0.131 0.595 Q0.035 0.895 0.598 1.008" stroke="hsl(0.0,100%,35%)" stroke-width="0.00517"></path>
<path d="M0.131 0.595 Q-0.077 0.783 0.243 0.926" stroke="hsl(0.0,100%,35%)" stroke-width="0.00049"></path>
<path d="M0.131 0.595 Q0.421 0.930 1.138 0.862" stroke="hsl(0.0,100%,35%)" stroke-width="0.00123"></path>
<path d="M0.131 0.595 Q0.103 0.661 0.226 0.689" stroke="hsl(0.0,100%,35%)" stroke-width="0.00394"></path>
<path d="M0.131 0.595 Q-0.007 0.696 0.158 0.785" stroke="hsl(0.0,100%,35%)" stroke-width="0.00148"></path>
<path d="M0.652 0.630 Q0.709 0.843 1.138 0.862" stroke="hsl(0.0,100%,35%)" stroke-width="0.00025"></path>
<path d="M0.652 0.630 Q0.323 0.808 0.598 1.008" stroke="hsl(0.0,100%,35%)" stroke-width="0.00123"></path>
<path d="M0.652 0.630 Q0.724 0.684 0.845 0.661" stroke="hsl(0.0,100%,35%)" stroke-width="0.00025"></path>
<path d="M0.545 0.599 Q0.313 0.580 0.226 0.689" stroke="hsl(0.0,100%,35%)" stroke-width="0.00197"></path>
<path d="M0.545 0.599 Q0.631 0.849 1.138 0.862" stroke="hsl(0.0,100%,35%)" stroke-width="0.00025"></path>
<path d="M0.545 0.599 Q0.244 0.814 0.598 1.008" stroke="hsl(0.0,100%,35%)" stroke-width="0.00148"></path>
<path d="M0.545 0.599 Q0.202 0.615 0.158 0.785" stroke="hsl(0.0,100%,35%)" stroke-width="0.00025"></path>
<path d="M1.706 0.692 Q0.899 0.628 0.598 1.008" stroke="hsl(0.0,100%,35%)" stroke-width="0.00099"></path>
<path d="M1.706 0.692 Q1.286 0.663 1.138 0.862" stroke="hsl(0.0,100%,35%)" stroke-width="0.00025"></path>
<path d="M1.706 0.692 Q0.968 0.395 0.226 0.689" stroke="hsl(0.0,100%,35%)" stroke-width="0.00099"></path>
<path d="M1.706 0.692 Q0.857 0.429 0.158 0.785" stroke="hsl(0.0,100%,35%)" stroke-width="0.00049"></path>
<path d="M1.706 0.692 Q0.787 0.517 0.243 0.926" stroke="hsl(0.0,100%,35%)" stroke-width="0.00025"></path>
<path d="M1.941 0.596 Q1.747 0.597 1.706 0.692" stroke="hsl(0.0,100%,35%)" stroke-width="0.00049"></path>
<path d="M1.941 0.596 Q1.327 0.568 1.138 0.862" stroke="hsl(0.0,100%,35%)" stroke-width="0.00025"></path>
<path d="M1.941 0.596 Q1.009 0.299 0.226 0.689" stroke="hsl(0.0,100%,35%)" stroke-width="0.00025"></path>
<path d="M1.941 0.596 Q0.898 0.334 0.158 0.785" stroke="hsl(0.0,100%,35%)" stroke-width="0.00025"></path>
<path d="M0.792 0.682 Q0.434 0.806 0.598 1.008" stroke="hsl(0.0,100%,35%)" stroke-width="0.00123"></path>
<path d="M0.792 0.682 Q0.821 0.841 1.138 0.862" stroke="hsl(0.0,100%,35%)" stroke-width="0.00025"></path>
<path d="M0.792 0.682 Q0.392 0.607 0.158 0.785" stroke="hsl(0.0,100%,35%)" stroke-width="0.00025"></path>
<path d="M0.116 0.721 Q0.196 0.727 0.226 0.689" stroke="hsl(0.0,100%,35%)" stroke-width="0.00025"></path>
<path d="M0.116 0.721 Q0.127 0.960 0.598 1.008" stroke="hsl(0.0,100%,35%)" stroke-width="0.00049"></path>
<path d="M0.116 0.721 Q0.085 0.761 0.158 0.785" stroke="hsl(0.0,100%,35%)" stroke-width="0.00025"></path>
<path d="M0.254 0.582 Q0.085 0.863 0.598 1.008" stroke="hsl(0.0,100%,35%)" stroke-width="0.00443"></path>
<path d="M0.254 0.582 Q0.197 0.806 0.621 0.883" stroke="hsl(0.0,100%,35%)" stroke-width="0.00025"></path>
<path d="M0.254 0.582 Q0.154 0.630 0.226 0.689" stroke="hsl(0.0,100%,35%)" stroke-width="0.00271"></path>
<path d="M0.254 0.582 Q0.161 0.735 0.439 0.814" stroke="hsl(0.0,100%,35%)" stroke-width="0.00025"></path>
<path d="M0.254 0.582 Q0.472 0.899 1.138 0.862" stroke="hsl(0.0,100%,35%)" stroke-width="0.00049"></path>
<path d="M0.254 0.582 Q0.283 0.886 0.882 0.938" stroke="hsl(0.0,100%,35%)" stroke-width="0.00025"></path>
<path d="M0.039 0.700 Q0.140 0.732 0.226 0.689" stroke="hsl(0.0,100%,35%)" stroke-width="0.00049"></path>
<path d="M0.039 0.700 Q0.072 0.965 0.598 1.008" stroke="hsl(0.0,100%,35%)" stroke-width="0.00025"></path>
<path d="M0.227 0.841 Q0.237 0.799 0.158 0.785" stroke="hsl(0.0,100%,35%)" stroke-width="0.00862"></path>
<path d="M0.227 0.841 Q0.167 0.887 0.243 0.926" stroke="hsl(0.0,100%,35%)" stroke-width="0.00074"></path>
<path d="M0.227 0.841 Q0.279 0.998 0.598 1.008" stroke="hsl(0.0,100%,35%)" stroke-width="0.01355"></path>
<path d="M0.227 0.841 Q0.666 1.034 1.138 0.862" stroke="hsl(0.0,100%,35%)" stroke-width="0.00172"></path>
<path d="M0.227 0.841 Q0.347 0.765 0.226 0.689" stroke="hsl(0.0,100%,35%)" stroke-width="0.00025"></path>
<path d="M0.227 0.841 Q0.355 0.870 0.439 0.814" stroke="hsl(0.0,100%,35%)" stroke-width="0.00025"></path>
<path d="M0.029 0.571 Q0.351 0.938 1.138 0.862" stroke="hsl(0.0,100%,35%)" stroke-width="0.00025"></path>
<path d="M0.029 0.571 Q0.032 0.669 0.226 0.689" stroke="hsl(0.0,100%,35%)" stroke-width="0.00123"></path>
<path d="M0.029 0.571 Q0.133 0.621 0.254 0.582" stroke="hsl(0.0,100%,35%)" stroke-width="0.00049"></path>
<path d="M0.462 0.622 Q0.608 0.877 1.138 0.862" stroke="hsl(0.0,100%,35%)" stroke-width="0.00025"></path>
<path d="M0.462 0.622 Q0.221 0.842 0.598 1.008" stroke="hsl(0.0,100%,35%)" stroke-width="0.00025"></path>
<path d="M0.462 0.622 Q0.419 0.864 0.882 0.938" stroke="hsl(0.0,100%,35%)" stroke-width="0.00049"></path>
<path d="M0.462 0.622 Q0.290 0.608 0.226 0.689" stroke="hsl(0.0,100%,35%)" stroke-width="0.00049"></path>
<path d="M0.788 1.075 Q0.747 1.003 0.598 1.008" stroke="hsl(0.0,100%,35%)" stroke-width="0.00123"></path>
<path d="M0.788 1.075 Q0.944 1.025 0.882 0.938" stroke="hsl(0.0,100%,35%)" stroke-width="0.00049"></path>
<path d="M0.788 1.075 Q0.815 0.769 0.226 0.689" stroke="hsl(0.0,100%,35%)" stroke-width="0.00074"></path>
<path d="M0.804 0.637 Q0.405 0.781 0.598 1.008" stroke="hsl(0.0,100%,35%)" stroke-width="0.00049"></path>
<path d="M0.804 0.637 Q0.602 0.803 0.882 0.938" stroke="hsl(0.0,100%,35%)" stroke-width="0.00025"></path>
<path d="M0.804 0.637 Q0.791 0.816 1.138 0.862" stroke="hsl(0.0,100%,35%)" stroke-width="0.00025"></path>
<path d="M0.698 0.614 Q0.616 0.703 0.770 0.762" stroke="hsl(0.0,100%,35%)" stroke-width="0.00049"></path>
<path d="M0.698 0.614 Q0.333 0.791 0.598 1.008" stroke="hsl(0.0,100%,35%)" stroke-width="0.00025"></path>
<path d="M0.698 0.614 Q0.609 0.719 0.793 0.785" stroke="hsl(0.0,100%,35%)" stroke-width="0.00025"></path>
<path d="M0.770 0.762 Q0.488 0.850 0.598 1.008" stroke="hsl(0.0,100%,35%)" stroke-width="0.00099"></path>
<path d="M0.770 0.762 Q0.599 0.793 0.621 0.883" stroke="hsl(0.0,100%,35%)" stroke-width="0.00025"></path>
<path d="M0.899 0.739 Q0.533 0.813 0.598 1.008" stroke="hsl(0.0,100%,35%)" stroke-width="0.00049"></path>
<path d="M0.899 0.739 Q0.920 0.848 1.138 0.862" stroke="hsl(0.0,100%,35%)" stroke-width="0.00025"></path>
<path d="M0.899 0.739 Q0.699 0.680 0.542 0.765" stroke="hsl(0.0,100%,35%)" stroke-width="0.00025"></path>
<path d="M0.608 0.330 Q0.130 0.433 0.226 0.689" stroke="hsl(0.0,100%,35%)" stroke-width="0.00074"></path>
<path d="M0.608 0.330 Q0.061 0.667 0.598 1.008" stroke="hsl(0.0,100%,35%)" stroke-width="0.00099"></path>
<path d="M1.176 0.681 Q0.625 0.729 0.598 1.008" stroke="hsl(0.0,100%,35%)" stroke-width="0.00271"></path>
<path d="M1.176 0.681 Q1.012 0.764 1.138 0.862" stroke="hsl(0.0,100%,35%)" stroke-width="0.00172"></path>
<path d="M1.176 0.681 Q1.327 0.680 1.359 0.607" stroke="hsl(0.0,100%,35%)" stroke-width="0.00025"></path>
<path d="M1.176 0.681 Q0.694 0.495 0.226 0.689" stroke="hsl(0.0,100%,35%)" stroke-width="0.00025"></path>
<path d="M1.782 0.807 Q1.029 0.670 0.598 1.008" stroke="hsl(0.0,100%,35%)" stroke-width="0.00197"></path>
<path d="M1.782 0.807 Q1.835 0.734 1.706 0.692" stroke="hsl(0.0,100%,35%)" stroke-width="0.00197"></path>
<path d="M1.782 0.807 Q1.416 0.705 1.138 0.862" stroke="hsl(0.0,100%,35%)" stroke-width="0.00025"></path>
<path d="M1.782 0.807 Q1.097 0.437 0.226 0.689" stroke="hsl(0.0,100%,35%)" stroke-width="0.00049"></path>
<path d="M1.782 0.807 Q0.917 0.559 0.243 0.926" stroke="hsl(0.0,100%,35%)" stroke-width="0.00049"></path>
<path d="M1.000 0.752 Q0.594 0.799 0.598 1.008" stroke="hsl(0.0,100%,35%)" stroke-width="0.00246"></path>
<path d="M1.000 0.752 Q0.981 0.834 1.138 0.862" stroke="hsl(0.0,100%,35%)" stroke-width="0.00123"></path>
<path d="M1.000 0.752 Q0.663 0.565 0.226 0.689" stroke="hsl(0.0,100%,35%)" stroke-width="0.00025"></path>
<path d="M1.000 0.752 Q0.760 0.667 0.542 0.765" stroke="hsl(0.0,100%,35%)" stroke-width="0.00025"></path>
</g>
<text x="0.357" y="0.710" font-size="0.006204" fill="hsl(0.0,100%,20%)">aleino</text>
<text x="1.138" y="0.825" font-size="0.073185" fill="hsl(0.0,100%,20%)">syoussefi</text>
<text x="0.598" y="0.955" font-size="0.105372" fill="hsl(0.0,100%,20%)">jmadill</text>
<text x="0.226" y="0.667" font-size="0.045517" fill="hsl(0.0,100%,20%)">geofflang</text>
<text x="0.860" y="1.105" font-size="0.011606" fill="hsl(0.0,100%,20%)">amaiorano</text>
<text x="0.388" y="0.726" font-size="0.004387" fill="hsl(0.0,100%,20%)">nicolascapens</text>
<text x="0.793" y="0.769" font-size="0.032036" fill="hsl(0.0,100%,20%)">ynovikov</text>
<text x="0.882" y="0.907" font-size="0.062398" fill="hsl(0.0,100%,20%)">timvp</text>
<text x="1.011" y="0.524" font-size="0.012407" fill="hsl(0.0,100%,20%)">amy.liu</text>
<text x="0.439" y="0.797" font-size="0.034073" fill="hsl(0.0,100%,20%)">ianelliott</text>
<text x="0.845" y="0.649" font-size="0.024815" fill="hsl(0.0,100%,20%)">tobine</text>
<text x="0.792" y="0.884" font-size="0.012914" fill="hsl(0.0,100%,20%)">b.schade</text>
<text x="0.916" y="0.696" font-size="0.044520" fill="hsl(0.0,100%,20%)">cclao</text>
<text x="0.542" y="0.739" font-size="0.052028" fill="hsl(0.0,100%,20%)">cnorthrop</text>
<text x="0.344" y="0.446" font-size="0.004387" fill="hsl(0.0,100%,20%)">ccameron</text>
<text x="0.478" y="0.546" font-size="0.007598" fill="hsl(0.0,100%,20%)">cwallez</text>
<text x="0.708" y="0.753" font-size="0.006204" fill="hsl(0.0,100%,20%)">lfy</text>
<text x="0.621" y="0.859" font-size="0.047652" fill="hsl(0.0,100%,20%)">courtneygo</text>
<text x="1.301" y="0.719" font-size="0.036174" fill="hsl(0.0,100%,20%)">m.maiya</text>
<text x="0.921" y="0.561" font-size="0.004387" fill="hsl(0.0,100%,20%)">sunny.sun</text>
<text x="0.486" y="1.005" font-size="0.024555" fill="hsl(0.0,100%,20%)">nguyenmh</text>
<text x="0.158" y="0.766" font-size="0.038576" fill="hsl(0.0,100%,20%)">jonahr</text>
<text x="0.949" y="1.085" font-size="0.007598" fill="hsl(0.0,100%,20%)">etienneb</text>
<text x="0.825" y="0.685" font-size="0.005663" fill="hsl(0.0,100%,20%)">flibitijibibo</text>
<text x="0.280" y="0.558" font-size="0.012407" fill="hsl(0.0,100%,20%)">penghuang</text>
<text x="0.243" y="0.915" font-size="0.021341" fill="hsl(0.0,100%,20%)">kbr</text>
<text x="0.065" y="0.404" font-size="0.012914" fill="hsl(0.0,100%,20%)">sugoi</text>
<text x="0.152" y="0.892" font-size="0.018263" fill="hsl(0.0,100%,20%)">jdarpinian</text>
<text x="0.131" y="0.586" font-size="0.019121" fill="hsl(0.0,100%,20%)">lexa.knyazev</text>
<text x="0.361" y="0.503" font-size="0.003582" fill="hsl(0.0,100%,20%)">zmo</text>
<text x="0.176" y="0.499" font-size="0.002533" fill="hsl(0.0,100%,20%)">brianosman</text>
<text x="0.652" y="0.627" font-size="0.006701" fill="hsl(0.0,100%,20%)">hckim.kim</text>
<text x="0.545" y="0.593" font-size="0.010745" fill="hsl(0.0,100%,20%)">shrekshao</text>
<text x="1.706" y="0.686" font-size="0.011879" fill="hsl(0.0,100%,20%)">jiajia.qin</text>
<text x="1.941" y="0.593" font-size="0.005663" fill="hsl(0.0,100%,20%)">jiawei.shao</text>
<text x="0.792" y="0.678" font-size="0.006701" fill="hsl(0.0,100%,20%)">jie.a.chen</text>
<text x="0.674" y="0.699" font-size="0.002533" fill="hsl(0.0,100%,20%)">paulthomson</text>
<text x="0.746" y="0.709" font-size="0.004387" fill="hsl(0.0,100%,20%)">dpranke</text>
<text x="0.837" y="0.779" font-size="0.005663" fill="hsl(0.0,100%,20%)">bsheedy</text>
<text x="0.063" y="0.531" font-size="0.007163" fill="hsl(0.0,100%,20%)">le.hoang.q</text>
<text x="0.986" y="0.664" font-size="0.003582" fill="hsl(0.0,100%,20%)">kainino</text>
<text x="0.116" y="0.718" font-size="0.005663" fill="hsl(0.0,100%,20%)">julien.isorce</text>
<text x="0.254" y="0.574" font-size="0.016217" fill="hsl(0.0,100%,20%)">spang</text>
<text x="0.039" y="0.697" font-size="0.004387" fill="hsl(0.0,100%,20%)">khushalsagar</text>
<text x="0.227" y="0.828" font-size="0.025579" fill="hsl(0.0,100%,20%)">lehoangq</text>
<text x="0.029" y="0.567" font-size="0.007163" fill="hsl(0.0,100%,20%)">msisov</text>
<text x="0.462" y="0.619" font-size="0.006204" fill="hsl(0.0,100%,20%)">natsu</text>
<text x="0.788" y="1.071" font-size="0.008009" fill="hsl(0.0,100%,20%)">rafael.cintron</text>
<text x="0.804" y="0.635" font-size="0.005065" fill="hsl(0.0,100%,20%)">reveman</text>
<text x="0.698" y="0.612" font-size="0.005065" fill="hsl(0.0,100%,20%)">sdefresne</text>
<text x="0.770" y="0.759" font-size="0.006701" fill="hsl(0.0,100%,20%)">thakis</text>
<text x="0.899" y="0.736" font-size="0.005065" fill="hsl(0.0,100%,20%)">shabbyx</text>
<text x="1.375" y="0.861" font-size="0.002533" fill="hsl(0.0,100%,20%)">capn</text>
<text x="0.608" y="0.327" font-size="0.006701" fill="hsl(0.0,100%,20%)">vantablack</text>
<text x="1.176" y="0.675" font-size="0.011326" fill="hsl(0.0,100%,20%)">xiaoxuan.liu</text>
<text x="1.359" y="0.605" font-size="0.002533" fill="hsl(0.0,100%,20%)">j.vigil</text>
<text x="1.782" y="0.801" font-size="0.011606" fill="hsl(0.0,100%,20%)">xinghua.cao</text>
<text x="1.000" y="0.746" font-size="0.010442" fill="hsl(0.0,100%,20%)">xinyi.he</text>
<text x="0.464" y="1.413" font-size="0.002533" fill="hsl(0.0,100%,20%)">senorblanco</text>
</svg>
