<svg width="4000" height="2000" viewBox="-0.025 -0.025 2.05 1.05" xmlns="http://www.w3.org/2000/svg">
  <style>
    path {
      fill: none;
      stroke-linecap: round;
      stroke-opacity: 0.4;
    }

    text {
      text-anchor: middle;
      alignment-baseline: hanging;
    }
  </style>
  <g opacity="0.4">
<path d="M1.163 0.883 Q1.486 0.461 0.733 0.211" stroke="hsl(0.0,100%,35%)" stroke-width="0.00327"></path>
<path d="M1.163 0.883 Q1.453 0.567 0.900 0.356" stroke="hsl(0.0,100%,35%)" stroke-width="0.00227"></path>
<path d="M1.163 0.883 Q1.718 0.609 1.305 0.278" stroke="hsl(0.0,100%,35%)" stroke-width="0.00050"></path>
<path d="M1.163 0.883 Q1.422 1.011 1.729 0.914" stroke="hsl(0.0,100%,35%)" stroke-width="0.00025"></path>
<path d="M0.733 0.211 Q0.691 0.212 0.684 0.232" stroke="hsl(0.0,100%,35%)" stroke-width="0.00050"></path>
<path d="M0.733 0.211 Q0.700 0.317 0.900 0.356" stroke="hsl(0.0,100%,35%)" stroke-width="0.06071"></path>
<path d="M0.733 0.211 Q0.965 0.359 1.305 0.278" stroke="hsl(0.0,100%,35%)" stroke-width="0.00680"></path>
<path d="M0.733 0.211 Q0.551 0.190 0.470 0.273" stroke="hsl(0.0,100%,35%)" stroke-width="0.00126"></path>
<path d="M0.733 0.211 Q0.823 0.121 0.667 0.057" stroke="hsl(0.0,100%,35%)" stroke-width="0.04383"></path>
<path d="M0.733 0.211 Q0.459 0.259 0.493 0.403" stroke="hsl(0.0,100%,35%)" stroke-width="0.00025"></path>
<path d="M0.733 0.211 Q0.628 0.458 1.086 0.563" stroke="hsl(0.0,100%,35%)" stroke-width="0.00050"></path>
<path d="M0.733 0.211 Q0.480 0.329 0.656 0.478" stroke="hsl(0.0,100%,35%)" stroke-width="0.00126"></path>
<path d="M0.733 0.211 Q0.410 0.633 1.163 0.883" stroke="hsl(0.0,100%,35%)" stroke-width="0.00050"></path>
<path d="M0.733 0.211 Q0.907 0.191 0.907 0.101" stroke="hsl(0.0,100%,35%)" stroke-width="0.00025"></path>
<path d="M0.733 0.211 Q1.089 0.385 1.507 0.249" stroke="hsl(0.0,100%,35%)" stroke-width="0.00453"></path>
<path d="M0.733 0.211 Q0.817 0.372 1.150 0.366" stroke="hsl(0.0,100%,35%)" stroke-width="0.00327"></path>
<path d="M0.733 0.211 Q0.675 0.566 1.355 0.672" stroke="hsl(0.0,100%,35%)" stroke-width="0.00227"></path>
<path d="M0.733 0.211 Q0.838 -0.038 0.376 -0.144" stroke="hsl(0.0,100%,35%)" stroke-width="0.00050"></path>
<path d="M0.733 0.211 Q0.647 0.209 0.625 0.250" stroke="hsl(0.0,100%,35%)" stroke-width="0.00277"></path>
<path d="M0.733 0.211 Q0.618 0.185 0.543 0.235" stroke="hsl(0.0,100%,35%)" stroke-width="0.00025"></path>
<path d="M0.733 0.211 Q0.721 0.435 1.156 0.490" stroke="hsl(0.0,100%,35%)" stroke-width="0.00076"></path>
<path d="M0.733 0.211 Q0.887 0.630 1.739 0.647" stroke="hsl(0.0,100%,35%)" stroke-width="0.00025"></path>
<path d="M0.733 0.211 Q1.234 0.483 1.874 0.298" stroke="hsl(0.0,100%,35%)" stroke-width="0.00025"></path>
<path d="M0.733 0.211 Q0.972 -0.095 0.428 -0.279" stroke="hsl(0.0,100%,35%)" stroke-width="0.00025"></path>
<path d="M0.733 0.211 Q0.627 0.072 0.332 0.093" stroke="hsl(0.0,100%,35%)" stroke-width="0.00025"></path>
<path d="M0.733 0.211 Q0.669 0.762 1.729 0.914" stroke="hsl(0.0,100%,35%)" stroke-width="0.00126"></path>
<path d="M0.733 0.211 Q0.664 0.321 0.863 0.378" stroke="hsl(0.0,100%,35%)" stroke-width="0.00025"></path>
<path d="M0.733 0.211 Q0.847 0.167 0.786 0.102" stroke="hsl(0.0,100%,35%)" stroke-width="0.00050"></path>
<path d="M0.900 0.356 Q0.932 0.250 0.733 0.211" stroke="hsl(0.0,100%,35%)" stroke-width="0.02947"></path>
<path d="M0.900 0.356 Q1.017 0.411 1.150 0.366" stroke="hsl(0.0,100%,35%)" stroke-width="0.02645"></path>
<path d="M0.900 0.356 Q1.165 0.398 1.305 0.278" stroke="hsl(0.0,100%,35%)" stroke-width="0.00554"></path>
<path d="M0.900 0.356 Q1.107 0.230 0.907 0.101" stroke="hsl(0.0,100%,35%)" stroke-width="0.00479"></path>
<path d="M0.900 0.356 Q0.610 0.672 1.163 0.883" stroke="hsl(0.0,100%,35%)" stroke-width="0.00101"></path>
<path d="M0.900 0.356 Q0.891 0.251 0.684 0.232" stroke="hsl(0.0,100%,35%)" stroke-width="0.00025"></path>
<path d="M0.900 0.356 Q0.875 0.606 1.355 0.672" stroke="hsl(0.0,100%,35%)" stroke-width="0.00655"></path>
<path d="M0.900 0.356 Q0.680 0.369 0.656 0.478" stroke="hsl(0.0,100%,35%)" stroke-width="0.02998"></path>
<path d="M0.900 0.356 Q1.023 0.160 0.667 0.057" stroke="hsl(0.0,100%,35%)" stroke-width="0.03224"></path>
<path d="M0.900 0.356 Q1.086 0.670 1.739 0.647" stroke="hsl(0.0,100%,35%)" stroke-width="0.00025"></path>
<path d="M0.900 0.356 Q1.185 0.292 1.123 0.139" stroke="hsl(0.0,100%,35%)" stroke-width="0.00025"></path>
<path d="M0.900 0.356 Q0.818 0.224 0.543 0.235" stroke="hsl(0.0,100%,35%)" stroke-width="0.00050"></path>
<path d="M0.900 0.356 Q0.847 0.248 0.625 0.250" stroke="hsl(0.0,100%,35%)" stroke-width="0.00705"></path>
<path d="M0.900 0.356 Q0.500 0.405 0.508 0.611" stroke="hsl(0.0,100%,35%)" stroke-width="0.00025"></path>
<path d="M0.900 0.356 Q0.869 0.801 1.729 0.914" stroke="hsl(0.0,100%,35%)" stroke-width="0.00025"></path>
<path d="M0.900 0.356 Q1.222 0.182 0.951 -0.014" stroke="hsl(0.0,100%,35%)" stroke-width="0.00076"></path>
<path d="M0.900 0.356 Q1.289 0.424 1.507 0.249" stroke="hsl(0.0,100%,35%)" stroke-width="0.00101"></path>
<path d="M0.900 0.356 Q1.115 0.238 0.932 0.107" stroke="hsl(0.0,100%,35%)" stroke-width="0.00025"></path>
<path d="M0.900 0.356 Q0.532 0.321 0.382 0.492" stroke="hsl(0.0,100%,35%)" stroke-width="0.00151"></path>
<path d="M0.900 0.356 Q0.820 0.513 1.107 0.586" stroke="hsl(0.0,100%,35%)" stroke-width="0.00025"></path>
<path d="M0.900 0.356 Q1.353 0.157 1.065 -0.108" stroke="hsl(0.0,100%,35%)" stroke-width="0.00025"></path>
<path d="M0.900 0.356 Q0.828 0.497 1.086 0.563" stroke="hsl(0.0,100%,35%)" stroke-width="0.00025"></path>
<path d="M0.900 0.356 Q0.751 0.229 0.470 0.273" stroke="hsl(0.0,100%,35%)" stroke-width="0.00025"></path>
<path d="M0.900 0.356 Q0.829 0.370 0.840 0.407" stroke="hsl(0.0,100%,35%)" stroke-width="0.00025"></path>
<path d="M1.305 0.278 Q1.040 0.236 0.900 0.356" stroke="hsl(0.0,100%,35%)" stroke-width="0.02192"></path>
<path d="M1.305 0.278 Q1.429 0.304 1.507 0.249" stroke="hsl(0.0,100%,35%)" stroke-width="0.00731"></path>
<path d="M1.305 0.278 Q1.073 0.130 0.733 0.211" stroke="hsl(0.0,100%,35%)" stroke-width="0.01612"></path>
<path d="M1.305 0.278 Q1.157 0.291 1.150 0.366" stroke="hsl(0.0,100%,35%)" stroke-width="0.00025"></path>
<path d="M1.305 0.278 Q1.031 0.131 0.684 0.232" stroke="hsl(0.0,100%,35%)" stroke-width="0.00025"></path>
<path d="M1.305 0.278 Q1.163 0.040 0.667 0.057" stroke="hsl(0.0,100%,35%)" stroke-width="0.01209"></path>
<path d="M1.305 0.278 Q0.958 0.104 0.543 0.235" stroke="hsl(0.0,100%,35%)" stroke-width="0.00025"></path>
<path d="M1.305 0.278 Q0.891 0.109 0.470 0.273" stroke="hsl(0.0,100%,35%)" stroke-width="0.00025"></path>
<path d="M1.305 0.278 Q0.820 0.249 0.656 0.478" stroke="hsl(0.0,100%,35%)" stroke-width="0.00176"></path>
<path d="M1.305 0.278 Q1.015 0.485 1.355 0.672" stroke="hsl(0.0,100%,35%)" stroke-width="0.00076"></path>
<path d="M1.729 0.914 Q1.793 0.363 0.733 0.211" stroke="hsl(180.0,100%,35%)" stroke-width="0.00302"></path>
<path d="M1.729 0.914 Q1.937 0.894 1.945 0.788" stroke="hsl(180.0,100%,35%)" stroke-width="0.00025"></path>
<path d="M1.729 0.914 Q1.878 0.524 1.150 0.366" stroke="hsl(180.0,100%,35%)" stroke-width="0.00151"></path>
<path d="M1.729 0.914 Q1.760 0.469 0.900 0.356" stroke="hsl(180.0,100%,35%)" stroke-width="0.00227"></path>
<path d="M1.729 0.914 Q1.815 0.819 1.649 0.756" stroke="hsl(180.0,100%,35%)" stroke-width="0.00025"></path>
<path d="M1.729 0.914 Q1.884 0.273 0.667 0.057" stroke="hsl(180.0,100%,35%)" stroke-width="0.00025"></path>
<path d="M1.729 0.914 Q1.708 0.361 0.625 0.250" stroke="hsl(180.0,100%,35%)" stroke-width="0.00050"></path>
<path d="M1.729 0.914 Q1.625 0.879 1.536 0.923" stroke="hsl(180.0,100%,35%)" stroke-width="0.00025"></path>
<path d="M1.729 0.914 Q1.541 0.481 0.656 0.478" stroke="hsl(180.0,100%,35%)" stroke-width="0.00050"></path>
<path d="M1.729 0.914 Q1.735 0.718 1.355 0.672" stroke="hsl(180.0,100%,35%)" stroke-width="0.00025"></path>
<path d="M1.771 0.111 Q1.657 0.149 1.705 0.212" stroke="hsl(180.0,100%,35%)" stroke-width="0.00126"></path>
<path d="M1.771 0.111 Q1.139 0.059 0.900 0.356" stroke="hsl(180.0,100%,35%)" stroke-width="0.00126"></path>
<path d="M1.771 0.111 Q1.114 0.309 1.355 0.672" stroke="hsl(180.0,100%,35%)" stroke-width="0.00050"></path>
<path d="M1.355 0.672 Q1.618 0.791 1.907 0.689" stroke="hsl(180.0,100%,35%)" stroke-width="0.00025"></path>
<path d="M1.355 0.672 Q1.413 0.317 0.733 0.211" stroke="hsl(180.0,100%,35%)" stroke-width="0.00227"></path>
<path d="M1.355 0.672 Q1.380 0.423 0.900 0.356" stroke="hsl(180.0,100%,35%)" stroke-width="0.00630"></path>
<path d="M1.355 0.672 Q1.567 0.737 1.739 0.647" stroke="hsl(180.0,100%,35%)" stroke-width="0.00176"></path>
<path d="M1.355 0.672 Q1.350 0.868 1.729 0.914" stroke="hsl(180.0,100%,35%)" stroke-width="0.00126"></path>
<path d="M1.355 0.672 Q1.614 0.644 1.616 0.512" stroke="hsl(180.0,100%,35%)" stroke-width="0.00025"></path>
<path d="M1.355 0.672 Q1.504 0.227 0.667 0.057" stroke="hsl(180.0,100%,35%)" stroke-width="0.00101"></path>
<path d="M1.355 0.672 Q1.308 0.178 0.332 0.093" stroke="hsl(180.0,100%,35%)" stroke-width="0.00025"></path>
<path d="M1.355 0.672 Q1.328 0.315 0.625 0.250" stroke="hsl(180.0,100%,35%)" stroke-width="0.00176"></path>
<path d="M1.355 0.672 Q1.666 0.359 1.123 0.139" stroke="hsl(180.0,100%,35%)" stroke-width="0.00025"></path>
<path d="M1.355 0.672 Q1.232 0.296 0.470 0.273" stroke="hsl(180.0,100%,35%)" stroke-width="0.00025"></path>
<path d="M1.355 0.672 Q1.522 0.638 1.491 0.548" stroke="hsl(180.0,100%,35%)" stroke-width="0.00025"></path>
<path d="M1.355 0.672 Q1.646 0.465 1.305 0.278" stroke="hsl(180.0,100%,35%)" stroke-width="0.00050"></path>
<path d="M1.355 0.672 Q1.498 0.478 1.150 0.366" stroke="hsl(180.0,100%,35%)" stroke-width="0.00025"></path>
<path d="M0.966 0.144 Q0.763 0.237 0.900 0.356" stroke="hsl(0.0,100%,35%)" stroke-width="0.00076"></path>
<path d="M0.966 0.144 Q0.796 0.131 0.733 0.211" stroke="hsl(0.0,100%,35%)" stroke-width="0.00050"></path>
<path d="M0.966 0.144 Q0.886 0.040 0.667 0.057" stroke="hsl(0.0,100%,35%)" stroke-width="0.00025"></path>
<path d="M0.667 0.057 Q0.544 0.253 0.900 0.356" stroke="hsl(0.0,100%,35%)" stroke-width="0.01385"></path>
<path d="M0.667 0.057 Q0.576 0.147 0.733 0.211" stroke="hsl(0.0,100%,35%)" stroke-width="0.00907"></path>
<path d="M0.667 0.057 Q0.809 0.295 1.305 0.278" stroke="hsl(0.0,100%,35%)" stroke-width="0.00378"></path>
<path d="M0.667 0.057 Q0.324 0.265 0.656 0.478" stroke="hsl(0.0,100%,35%)" stroke-width="0.00705"></path>
<path d="M0.667 0.057 Q0.933 0.321 1.507 0.249" stroke="hsl(0.0,100%,35%)" stroke-width="0.00176"></path>
<path d="M0.667 0.057 Q0.254 0.569 1.163 0.883" stroke="hsl(0.0,100%,35%)" stroke-width="0.00025"></path>
<path d="M0.667 0.057 Q0.796 0.124 0.955 0.075" stroke="hsl(0.0,100%,35%)" stroke-width="0.00050"></path>
<path d="M0.667 0.057 Q0.519 0.502 1.355 0.672" stroke="hsl(0.0,100%,35%)" stroke-width="0.00378"></path>
<path d="M0.667 0.057 Q0.661 0.308 1.150 0.366" stroke="hsl(0.0,100%,35%)" stroke-width="0.00076"></path>
<path d="M0.845 0.085 Q0.656 0.232 0.900 0.356" stroke="hsl(0.0,100%,35%)" stroke-width="0.00327"></path>
<path d="M0.845 0.085 Q0.689 0.126 0.733 0.211" stroke="hsl(0.0,100%,35%)" stroke-width="0.00378"></path>
<path d="M0.845 0.085 Q0.507 0.104 0.470 0.273" stroke="hsl(0.0,100%,35%)" stroke-width="0.00025"></path>
<path d="M0.845 0.085 Q0.794 -0.123 0.376 -0.144" stroke="hsl(0.0,100%,35%)" stroke-width="0.00025"></path>
<path d="M0.845 0.085 Q0.892 0.125 0.979 0.111" stroke="hsl(0.0,100%,35%)" stroke-width="0.00025"></path>
<path d="M0.845 0.085 Q0.844 0.212 1.090 0.241" stroke="hsl(0.0,100%,35%)" stroke-width="0.00025"></path>
<path d="M0.845 0.085 Q1.045 0.299 1.507 0.249" stroke="hsl(0.0,100%,35%)" stroke-width="0.00025"></path>
<path d="M0.470 0.273 Q0.619 0.401 0.900 0.356" stroke="hsl(0.0,100%,35%)" stroke-width="0.01738"></path>
<path d="M0.470 0.273 Q0.594 0.650 1.355 0.672" stroke="hsl(0.0,100%,35%)" stroke-width="0.00050"></path>
<path d="M0.470 0.273 Q0.651 0.295 0.733 0.211" stroke="hsl(0.0,100%,35%)" stroke-width="0.01713"></path>
<path d="M0.470 0.273 Q0.884 0.443 1.305 0.278" stroke="hsl(0.0,100%,35%)" stroke-width="0.00050"></path>
<path d="M0.470 0.273 Q0.742 0.204 0.667 0.057" stroke="hsl(0.0,100%,35%)" stroke-width="0.00151"></path>
<path d="M1.090 0.241 Q1.092 0.114 0.845 0.085" stroke="hsl(0.0,100%,35%)" stroke-width="0.00025"></path>
<path d="M1.090 0.241 Q1.292 0.328 1.507 0.249" stroke="hsl(0.0,100%,35%)" stroke-width="0.00025"></path>
<path d="M1.090 0.241 Q0.902 0.260 0.900 0.356" stroke="hsl(0.0,100%,35%)" stroke-width="0.00050"></path>
<path d="M1.090 0.241 Q0.935 0.154 0.733 0.211" stroke="hsl(0.0,100%,35%)" stroke-width="0.00025"></path>
<path d="M1.507 0.249 Q1.150 0.075 0.733 0.211" stroke="hsl(0.0,100%,35%)" stroke-width="0.00453"></path>
<path d="M1.507 0.249 Q1.638 0.154 1.482 0.069" stroke="hsl(0.0,100%,35%)" stroke-width="0.00050"></path>
<path d="M1.507 0.249 Q1.036 0.049 0.543 0.235" stroke="hsl(0.0,100%,35%)" stroke-width="0.00050"></path>
<path d="M1.507 0.249 Q1.117 0.181 0.900 0.356" stroke="hsl(0.0,100%,35%)" stroke-width="0.00302"></path>
<path d="M1.507 0.249 Q0.828 0.497 1.163 0.883" stroke="hsl(0.0,100%,35%)" stroke-width="0.00025"></path>
<path d="M1.507 0.249 Q1.370 0.052 0.955 0.075" stroke="hsl(0.0,100%,35%)" stroke-width="0.00025"></path>
<path d="M1.507 0.249 Q1.382 0.223 1.305 0.278" stroke="hsl(0.0,100%,35%)" stroke-width="0.00050"></path>
<path d="M1.507 0.249 Q1.241 -0.015 0.667 0.057" stroke="hsl(0.0,100%,35%)" stroke-width="0.00202"></path>
<path d="M1.507 0.249 Q1.325 0.055 0.907 0.101" stroke="hsl(0.0,100%,35%)" stroke-width="0.00025"></path>
<path d="M1.507 0.249 Q1.235 0.236 1.150 0.366" stroke="hsl(0.0,100%,35%)" stroke-width="0.00176"></path>
<path d="M1.507 0.249 Q0.898 0.194 0.656 0.478" stroke="hsl(0.0,100%,35%)" stroke-width="0.00227"></path>
<path d="M1.507 0.249 Q1.092 0.430 1.355 0.672" stroke="hsl(0.0,100%,35%)" stroke-width="0.00076"></path>
<path d="M1.507 0.249 Q1.496 0.255 1.505 0.261" stroke="hsl(0.0,100%,35%)" stroke-width="0.00076"></path>
<path d="M1.507 0.249 Q1.086 0.626 1.729 0.914" stroke="hsl(0.0,100%,35%)" stroke-width="0.00025"></path>
<path d="M0.493 0.403 Q0.767 0.355 0.733 0.211" stroke="hsl(0.0,100%,35%)" stroke-width="0.00655"></path>
<path d="M0.493 0.403 Q0.734 0.461 0.900 0.356" stroke="hsl(0.0,100%,35%)" stroke-width="0.00630"></path>
<path d="M0.493 0.403 Q0.857 0.265 0.667 0.057" stroke="hsl(0.0,100%,35%)" stroke-width="0.00202"></path>
<path d="M0.493 0.403 Q0.585 0.334 0.470 0.273" stroke="hsl(0.0,100%,35%)" stroke-width="0.00025"></path>
<path d="M0.524 0.103 Q0.484 0.554 1.355 0.672" stroke="hsl(180.0,100%,35%)" stroke-width="0.00025"></path>
<path d="M0.524 0.103 Q0.509 0.305 0.900 0.356" stroke="hsl(180.0,100%,35%)" stroke-width="0.00025"></path>
<path d="M0.524 0.103 Q0.542 0.199 0.733 0.211" stroke="hsl(180.0,100%,35%)" stroke-width="0.00025"></path>
<path d="M1.150 0.366 Q0.743 0.627 1.163 0.883" stroke="hsl(0.0,100%,35%)" stroke-width="0.00025"></path>
<path d="M1.150 0.366 Q1.066 0.205 0.733 0.211" stroke="hsl(0.0,100%,35%)" stroke-width="0.00101"></path>
<path d="M1.150 0.366 Q1.054 0.429 1.156 0.490" stroke="hsl(0.0,100%,35%)" stroke-width="0.00050"></path>
<path d="M1.150 0.366 Q1.033 0.311 0.900 0.356" stroke="hsl(0.0,100%,35%)" stroke-width="0.01134"></path>
<path d="M1.150 0.366 Q1.002 0.756 1.729 0.914" stroke="hsl(0.0,100%,35%)" stroke-width="0.00025"></path>
<path d="M1.150 0.366 Q1.156 0.115 0.667 0.057" stroke="hsl(0.0,100%,35%)" stroke-width="0.00025"></path>
<path d="M1.150 0.366 Q1.422 0.379 1.507 0.249" stroke="hsl(0.0,100%,35%)" stroke-width="0.00076"></path>
<path d="M1.150 0.366 Q0.980 0.203 0.625 0.250" stroke="hsl(0.0,100%,35%)" stroke-width="0.00076"></path>
<path d="M1.150 0.366 Q1.567 0.477 1.874 0.298" stroke="hsl(0.0,100%,35%)" stroke-width="0.00025"></path>
<path d="M0.684 0.232 Q0.692 0.337 0.900 0.356" stroke="hsl(0.0,100%,35%)" stroke-width="0.00176"></path>
<path d="M0.684 0.232 Q0.725 0.231 0.733 0.211" stroke="hsl(0.0,100%,35%)" stroke-width="0.00025"></path>
<path d="M0.684 0.232 Q0.667 0.587 1.355 0.672" stroke="hsl(0.0,100%,35%)" stroke-width="0.00050"></path>
<path d="M0.543 0.235 Q0.889 0.409 1.305 0.278" stroke="hsl(0.0,100%,35%)" stroke-width="0.00403"></path>
<path d="M0.543 0.235 Q0.599 0.616 1.355 0.672" stroke="hsl(0.0,100%,35%)" stroke-width="0.00025"></path>
<path d="M0.543 0.235 Q0.405 0.379 0.656 0.478" stroke="hsl(0.0,100%,35%)" stroke-width="0.00025"></path>
<path d="M0.543 0.235 Q0.624 0.367 0.900 0.356" stroke="hsl(0.0,100%,35%)" stroke-width="0.00428"></path>
<path d="M0.543 0.235 Q0.657 0.261 0.733 0.211" stroke="hsl(0.0,100%,35%)" stroke-width="0.00252"></path>
<path d="M0.543 0.235 Q0.748 0.171 0.667 0.057" stroke="hsl(0.0,100%,35%)" stroke-width="0.00151"></path>
<path d="M0.656 0.478 Q0.908 0.360 0.733 0.211" stroke="hsl(0.0,100%,35%)" stroke-width="0.00428"></path>
<path d="M0.656 0.478 Q0.876 0.466 0.900 0.356" stroke="hsl(0.0,100%,35%)" stroke-width="0.02267"></path>
<path d="M0.656 0.478 Q0.476 0.515 0.508 0.611" stroke="hsl(0.0,100%,35%)" stroke-width="0.00050"></path>
<path d="M0.656 0.478 Q0.508 0.431 0.382 0.492" stroke="hsl(0.0,100%,35%)" stroke-width="0.00025"></path>
<path d="M0.656 0.478 Q0.794 0.334 0.543 0.235" stroke="hsl(0.0,100%,35%)" stroke-width="0.00101"></path>
<path d="M0.656 0.478 Q0.999 0.270 0.667 0.057" stroke="hsl(0.0,100%,35%)" stroke-width="0.01537"></path>
<path d="M0.656 0.478 Q0.867 0.361 0.684 0.232" stroke="hsl(0.0,100%,35%)" stroke-width="0.00025"></path>
<path d="M0.656 0.478 Q1.265 0.534 1.507 0.249" stroke="hsl(0.0,100%,35%)" stroke-width="0.00050"></path>
<path d="M0.656 0.478 Q0.993 0.521 1.150 0.366" stroke="hsl(0.0,100%,35%)" stroke-width="0.00050"></path>
<path d="M0.656 0.478 Q0.825 0.850 1.587 0.849" stroke="hsl(0.0,100%,35%)" stroke-width="0.00025"></path>
<path d="M0.656 0.478 Q0.727 0.339 0.470 0.273" stroke="hsl(0.0,100%,35%)" stroke-width="0.00050"></path>
<path d="M0.656 0.478 Q1.141 0.508 1.305 0.278" stroke="hsl(0.0,100%,35%)" stroke-width="0.00050"></path>
<path d="M0.513 0.221 Q0.863 0.408 1.305 0.278" stroke="hsl(0.0,100%,35%)" stroke-width="0.00025"></path>
<path d="M0.513 0.221 Q0.630 0.260 0.733 0.211" stroke="hsl(0.0,100%,35%)" stroke-width="0.00151"></path>
<path d="M0.513 0.221 Q0.598 0.366 0.900 0.356" stroke="hsl(0.0,100%,35%)" stroke-width="0.00126"></path>
<path d="M0.513 0.221 Q0.525 0.120 0.332 0.093" stroke="hsl(0.0,100%,35%)" stroke-width="0.00025"></path>
<path d="M0.513 0.221 Q0.721 0.169 0.667 0.057" stroke="hsl(0.0,100%,35%)" stroke-width="0.00025"></path>
<path d="M0.508 0.611 Q0.688 0.575 0.656 0.478" stroke="hsl(0.0,100%,35%)" stroke-width="0.02015"></path>
<path d="M0.508 0.611 Q0.908 0.562 0.900 0.356" stroke="hsl(0.0,100%,35%)" stroke-width="0.02015"></path>
<path d="M0.508 0.611 Q1.031 0.366 0.667 0.057" stroke="hsl(0.0,100%,35%)" stroke-width="0.00076"></path>
<path d="M0.508 0.611 Q0.941 0.456 0.733 0.211" stroke="hsl(0.0,100%,35%)" stroke-width="0.00101"></path>
<path d="M0.508 0.611 Q0.759 0.435 0.470 0.273" stroke="hsl(0.0,100%,35%)" stroke-width="0.00025"></path>
<path d="M0.382 0.492 Q0.530 0.540 0.656 0.478" stroke="hsl(0.0,100%,35%)" stroke-width="0.02670"></path>
<path d="M0.382 0.492 Q0.750 0.528 0.900 0.356" stroke="hsl(0.0,100%,35%)" stroke-width="0.03703"></path>
<path d="M0.382 0.492 Q0.873 0.331 0.667 0.057" stroke="hsl(0.0,100%,35%)" stroke-width="0.00101"></path>
<path d="M0.382 0.492 Q0.697 0.420 0.625 0.250" stroke="hsl(0.0,100%,35%)" stroke-width="0.00025"></path>
<path d="M0.382 0.492 Q0.782 0.422 0.733 0.211" stroke="hsl(0.0,100%,35%)" stroke-width="0.00025"></path>
<path d="M1.739 0.647 Q1.585 0.228 0.733 0.211" stroke="hsl(180.0,100%,35%)" stroke-width="0.00453"></path>
<path d="M1.739 0.647 Q1.552 0.334 0.900 0.356" stroke="hsl(180.0,100%,35%)" stroke-width="0.00353"></path>
<path d="M1.739 0.647 Q1.527 0.583 1.355 0.672" stroke="hsl(180.0,100%,35%)" stroke-width="0.00378"></path>
<path d="M1.739 0.647 Q1.499 0.226 0.625 0.250" stroke="hsl(180.0,100%,35%)" stroke-width="0.00076"></path>
<path d="M0.625 0.250 Q0.710 0.252 0.733 0.211" stroke="hsl(180.0,100%,35%)" stroke-width="0.00252"></path>
<path d="M0.625 0.250 Q0.652 0.608 1.355 0.672" stroke="hsl(180.0,100%,35%)" stroke-width="0.00176"></path>
<path d="M0.625 0.250 Q0.646 0.803 1.729 0.914" stroke="hsl(180.0,100%,35%)" stroke-width="0.00176"></path>
<path d="M0.625 0.250 Q0.677 0.358 0.900 0.356" stroke="hsl(180.0,100%,35%)" stroke-width="0.00504"></path>
<path d="M0.625 0.250 Q0.795 0.413 1.150 0.366" stroke="hsl(180.0,100%,35%)" stroke-width="0.00151"></path>
<path d="M0.625 0.250 Q0.854 0.783 1.945 0.788" stroke="hsl(180.0,100%,35%)" stroke-width="0.00076"></path>
<path d="M0.625 0.250 Q0.801 0.162 0.667 0.057" stroke="hsl(180.0,100%,35%)" stroke-width="0.00025"></path>
<path d="M0.625 0.250 Q0.458 0.371 0.656 0.478" stroke="hsl(180.0,100%,35%)" stroke-width="0.00025"></path>
<path d="M1.123 0.139 Q0.892 0.553 1.649 0.756" stroke="hsl(180.0,100%,35%)" stroke-width="0.00126"></path>
<path d="M1.123 0.139 Q0.806 0.647 1.729 0.914" stroke="hsl(180.0,100%,35%)" stroke-width="0.00378"></path>
<path d="M1.123 0.139 Q0.812 0.452 1.355 0.672" stroke="hsl(180.0,100%,35%)" stroke-width="0.00227"></path>
<path d="M1.123 0.139 Q0.837 0.203 0.900 0.356" stroke="hsl(180.0,100%,35%)" stroke-width="0.00856"></path>
<path d="M1.123 0.139 Q0.870 0.097 0.733 0.211" stroke="hsl(180.0,100%,35%)" stroke-width="0.00126"></path>
<path d="M1.123 0.139 Q1.014 0.628 1.945 0.788" stroke="hsl(180.0,100%,35%)" stroke-width="0.00025"></path>
<path d="M1.123 0.139 Q0.955 0.258 1.150 0.366" stroke="hsl(180.0,100%,35%)" stroke-width="0.00025"></path>
<path d="M1.123 0.139 Q1.171 0.070 1.048 0.032" stroke="hsl(180.0,100%,35%)" stroke-width="0.00076"></path>
<path d="M1.123 0.139 Q0.785 0.095 0.625 0.250" stroke="hsl(180.0,100%,35%)" stroke-width="0.00025"></path>
<path d="M1.945 0.788 Q1.737 0.808 1.729 0.914" stroke="hsl(180.0,100%,35%)" stroke-width="0.01033"></path>
<path d="M1.945 0.788 Q1.823 0.713 1.649 0.756" stroke="hsl(180.0,100%,35%)" stroke-width="0.00176"></path>
<path d="M1.945 0.788 Q1.768 0.363 0.900 0.356" stroke="hsl(180.0,100%,35%)" stroke-width="0.00327"></path>
<path d="M1.945 0.788 Q1.801 0.257 0.733 0.211" stroke="hsl(180.0,100%,35%)" stroke-width="0.00453"></path>
<path d="M1.945 0.788 Q1.886 0.418 1.150 0.366" stroke="hsl(180.0,100%,35%)" stroke-width="0.00101"></path>
<path d="M1.945 0.788 Q1.715 0.255 0.625 0.250" stroke="hsl(180.0,100%,35%)" stroke-width="0.00076"></path>
<path d="M1.945 0.788 Q1.743 0.612 1.355 0.672" stroke="hsl(180.0,100%,35%)" stroke-width="0.00050"></path>
<path d="M1.945 0.788 Q1.717 0.747 1.587 0.849" stroke="hsl(180.0,100%,35%)" stroke-width="0.00025"></path>
<path d="M1.649 0.756 Q1.569 0.656 1.355 0.672" stroke="hsl(180.0,100%,35%)" stroke-width="0.00227"></path>
<path d="M1.649 0.756 Q1.563 0.851 1.729 0.914" stroke="hsl(180.0,100%,35%)" stroke-width="0.00579"></path>
<path d="M1.649 0.756 Q1.627 0.300 0.733 0.211" stroke="hsl(180.0,100%,35%)" stroke-width="0.00126"></path>
<path d="M1.649 0.756 Q1.771 0.831 1.945 0.788" stroke="hsl(180.0,100%,35%)" stroke-width="0.00302"></path>
<path d="M1.649 0.756 Q1.880 0.342 1.123 0.139" stroke="hsl(180.0,100%,35%)" stroke-width="0.00101"></path>
<path d="M1.649 0.756 Q1.594 0.406 0.900 0.356" stroke="hsl(180.0,100%,35%)" stroke-width="0.00025"></path>
<path d="M1.649 0.756 Q1.717 0.210 0.667 0.057" stroke="hsl(180.0,100%,35%)" stroke-width="0.00025"></path>
<path d="M1.649 0.756 Q1.928 0.274 1.048 0.032" stroke="hsl(180.0,100%,35%)" stroke-width="0.00050"></path>
<path d="M1.649 0.756 Q1.541 0.298 0.625 0.250" stroke="hsl(180.0,100%,35%)" stroke-width="0.00176"></path>
<path d="M1.611 0.118 Q1.098 -0.011 0.733 0.211" stroke="hsl(0.0,100%,35%)" stroke-width="0.00050"></path>
<path d="M1.611 0.118 Q1.330 0.137 1.305 0.278" stroke="hsl(0.0,100%,35%)" stroke-width="0.00101"></path>
<path d="M1.611 0.118 Q1.065 0.095 0.900 0.356" stroke="hsl(0.0,100%,35%)" stroke-width="0.00025"></path>
<path d="M1.611 0.118 Q0.984 -0.037 0.543 0.235" stroke="hsl(0.0,100%,35%)" stroke-width="0.00025"></path>
<path d="M1.611 0.118 Q0.846 0.107 0.656 0.478" stroke="hsl(0.0,100%,35%)" stroke-width="0.00025"></path>
<path d="M1.910 0.214 Q1.825 0.249 1.874 0.298" stroke="hsl(0.0,100%,35%)" stroke-width="0.00050"></path>
<path d="M1.910 0.214 Q1.324 -0.023 0.733 0.211" stroke="hsl(0.0,100%,35%)" stroke-width="0.00025"></path>
<path d="M1.910 0.214 Q1.291 0.083 0.900 0.356" stroke="hsl(0.0,100%,35%)" stroke-width="0.00025"></path>
<path d="M0.955 0.075 Q0.736 0.099 0.733 0.211" stroke="hsl(0.0,100%,35%)" stroke-width="0.00050"></path>
<path d="M0.955 0.075 Q0.968 0.247 1.305 0.278" stroke="hsl(0.0,100%,35%)" stroke-width="0.00025"></path>
<path d="M0.955 0.075 Q0.703 0.205 0.900 0.356" stroke="hsl(0.0,100%,35%)" stroke-width="0.00050"></path>
<path d="M0.955 0.075 Q0.678 0.454 1.355 0.672" stroke="hsl(0.0,100%,35%)" stroke-width="0.00025"></path>
<path d="M0.955 0.075 Q0.826 0.008 0.667 0.057" stroke="hsl(0.0,100%,35%)" stroke-width="0.00025"></path>
<path d="M0.907 0.101 Q0.965 0.269 1.305 0.278" stroke="hsl(0.0,100%,35%)" stroke-width="0.00076"></path>
<path d="M0.907 0.101 Q0.699 0.227 0.900 0.356" stroke="hsl(0.0,100%,35%)" stroke-width="0.00227"></path>
<path d="M0.907 0.101 Q0.732 0.121 0.733 0.211" stroke="hsl(0.0,100%,35%)" stroke-width="0.00327"></path>
<path d="M0.907 0.101 Q0.480 0.240 0.656 0.478" stroke="hsl(0.0,100%,35%)" stroke-width="0.00126"></path>
<path d="M0.907 0.101 Q0.823 0.031 0.667 0.057" stroke="hsl(0.0,100%,35%)" stroke-width="0.00176"></path>
<path d="M0.907 0.101 Q0.618 0.095 0.543 0.235" stroke="hsl(0.0,100%,35%)" stroke-width="0.00025"></path>
<path d="M0.907 0.101 Q0.674 0.477 1.355 0.672" stroke="hsl(0.0,100%,35%)" stroke-width="0.00025"></path>
<path d="M0.907 0.101 Q1.089 0.295 1.507 0.249" stroke="hsl(0.0,100%,35%)" stroke-width="0.00025"></path>
<path d="M1.505 0.261 Q1.515 0.255 1.507 0.249" stroke="hsl(0.0,100%,35%)" stroke-width="0.00101"></path>
<path d="M1.505 0.261 Q1.159 0.081 0.733 0.211" stroke="hsl(0.0,100%,35%)" stroke-width="0.00025"></path>
<path d="M1.505 0.261 Q0.906 0.200 0.656 0.478" stroke="hsl(0.0,100%,35%)" stroke-width="0.00050"></path>
<path d="M1.505 0.261 Q1.126 0.187 0.900 0.356" stroke="hsl(0.0,100%,35%)" stroke-width="0.00025"></path>
<path d="M0.540 0.214 Q0.639 0.251 0.733 0.211" stroke="hsl(0.0,100%,35%)" stroke-width="0.00353"></path>
<path d="M0.540 0.214 Q0.606 0.357 0.900 0.356" stroke="hsl(0.0,100%,35%)" stroke-width="0.00227"></path>
<path d="M0.540 0.214 Q0.581 0.606 1.355 0.672" stroke="hsl(0.0,100%,35%)" stroke-width="0.00050"></path>
<path d="M0.863 0.378 Q0.932 0.268 0.733 0.211" stroke="hsl(0.0,100%,35%)" stroke-width="0.00025"></path>
<path d="M0.863 0.378 Q0.899 0.375 0.900 0.356" stroke="hsl(0.0,100%,35%)" stroke-width="0.00101"></path>
<path d="M0.863 0.378 Q0.874 0.624 1.355 0.672" stroke="hsl(0.0,100%,35%)" stroke-width="0.00050"></path>
<path d="M1.385 0.048 Q0.929 -0.001 0.733 0.211" stroke="hsl(180.0,100%,35%)" stroke-width="0.00025"></path>
<path d="M1.385 0.048 Q0.865 0.549 1.729 0.914" stroke="hsl(180.0,100%,35%)" stroke-width="0.00076"></path>
<path d="M1.385 0.048 Q0.950 0.455 1.649 0.756" stroke="hsl(180.0,100%,35%)" stroke-width="0.00025"></path>
<path d="M1.385 0.048 Q0.843 -0.003 0.625 0.250" stroke="hsl(180.0,100%,35%)" stroke-width="0.00025"></path>
<path d="M0.934 0.429 Q0.755 0.398 0.656 0.478" stroke="hsl(0.0,100%,35%)" stroke-width="0.01033"></path>
<path d="M0.934 0.429 Q0.975 0.386 0.900 0.356" stroke="hsl(0.0,100%,35%)" stroke-width="0.01184"></path>
<path d="M0.934 0.429 Q0.950 0.635 1.355 0.672" stroke="hsl(0.0,100%,35%)" stroke-width="0.00025"></path>
<path d="M1.315 0.035 Q0.851 0.113 0.900 0.356" stroke="hsl(180.0,100%,35%)" stroke-width="0.00025"></path>
<path d="M1.315 0.035 Q0.820 0.557 1.729 0.914" stroke="hsl(180.0,100%,35%)" stroke-width="0.00126"></path>
<path d="M1.315 0.035 Q1.340 0.056 1.385 0.048" stroke="hsl(180.0,100%,35%)" stroke-width="0.00126"></path>
<path d="M0.507 -0.405 Q0.127 -0.052 0.733 0.211" stroke="hsl(180.0,100%,35%)" stroke-width="0.00025"></path>
<path d="M0.507 -0.405 Q0.069 0.304 1.355 0.672" stroke="hsl(180.0,100%,35%)" stroke-width="0.00025"></path>
<path d="M0.507 -0.405 Q0.094 0.054 0.900 0.356" stroke="hsl(180.0,100%,35%)" stroke-width="0.00025"></path>
<path d="M0.507 -0.405 Q0.218 -0.142 0.667 0.057" stroke="hsl(180.0,100%,35%)" stroke-width="0.00025"></path>
<path d="M1.065 0.002 Q0.699 0.146 0.900 0.356" stroke="hsl(0.0,100%,35%)" stroke-width="0.00076"></path>
<path d="M1.065 0.002 Q0.646 0.038 0.625 0.250" stroke="hsl(0.0,100%,35%)" stroke-width="0.00025"></path>
<path d="M1.065 0.002 Q0.668 0.591 1.729 0.914" stroke="hsl(0.0,100%,35%)" stroke-width="0.00025"></path>
<path d="M0.832 0.374 Q0.661 0.391 0.656 0.478" stroke="hsl(0.0,100%,35%)" stroke-width="0.00025"></path>
<path d="M0.832 0.374 Q1.145 0.421 1.305 0.278" stroke="hsl(0.0,100%,35%)" stroke-width="0.00025"></path>
<path d="M0.832 0.374 Q0.998 0.434 1.150 0.366" stroke="hsl(0.0,100%,35%)" stroke-width="0.00025"></path>
<path d="M0.832 0.374 Q0.880 0.379 0.900 0.356" stroke="hsl(0.0,100%,35%)" stroke-width="0.00025"></path>
<path d="M0.832 0.374 Q0.913 0.273 0.733 0.211" stroke="hsl(0.0,100%,35%)" stroke-width="0.00025"></path>
<path d="M0.925 0.120 Q0.756 0.127 0.733 0.211" stroke="hsl(180.0,100%,35%)" stroke-width="0.00101"></path>
<path d="M0.925 0.120 Q0.671 0.125 0.625 0.250" stroke="hsl(180.0,100%,35%)" stroke-width="0.00050"></path>
<path d="M0.925 0.120 Q0.841 0.288 1.150 0.366" stroke="hsl(180.0,100%,35%)" stroke-width="0.00025"></path>
<path d="M0.925 0.120 Q0.698 0.482 1.355 0.672" stroke="hsl(180.0,100%,35%)" stroke-width="0.00050"></path>
<path d="M1.275 0.541 Q1.235 0.373 0.900 0.356" stroke="hsl(180.0,100%,35%)" stroke-width="0.00025"></path>
<path d="M1.275 0.541 Q1.753 0.463 1.705 0.212" stroke="hsl(180.0,100%,35%)" stroke-width="0.00025"></path>
<path d="M1.275 0.541 Q1.210 0.623 1.355 0.672" stroke="hsl(180.0,100%,35%)" stroke-width="0.00025"></path>
<path d="M0.467 0.251 Q0.599 0.390 0.900 0.356" stroke="hsl(0.0,100%,35%)" stroke-width="0.00101"></path>
<path d="M0.467 0.251 Q0.632 0.284 0.733 0.211" stroke="hsl(0.0,100%,35%)" stroke-width="0.00227"></path>
<path d="M0.467 0.251 Q1.133 0.556 1.874 0.298" stroke="hsl(0.0,100%,35%)" stroke-width="0.00025"></path>
<path d="M0.467 0.251 Q0.574 0.639 1.355 0.672" stroke="hsl(0.0,100%,35%)" stroke-width="0.00025"></path>
<path d="M1.283 0.907 Q1.507 0.804 1.355 0.672" stroke="hsl(180.0,100%,35%)" stroke-width="0.00050"></path>
<path d="M1.283 0.907 Q1.348 0.807 1.167 0.753" stroke="hsl(180.0,100%,35%)" stroke-width="0.00025"></path>
<path d="M1.283 0.907 Q1.532 0.555 0.900 0.356" stroke="hsl(180.0,100%,35%)" stroke-width="0.00050"></path>
<path d="M1.283 0.907 Q1.565 0.449 0.733 0.211" stroke="hsl(180.0,100%,35%)" stroke-width="0.00025"></path>
<path d="M0.302 0.050 Q0.356 0.323 0.900 0.356" stroke="hsl(0.0,100%,35%)" stroke-width="0.00101"></path>
<path d="M0.302 0.050 Q0.389 0.217 0.733 0.211" stroke="hsl(0.0,100%,35%)" stroke-width="0.00202"></path>
<path d="M0.302 0.050 Q0.479 0.126 0.667 0.057" stroke="hsl(0.0,100%,35%)" stroke-width="0.00025"></path>
<path d="M1.069 0.530 Q1.241 0.464 1.150 0.366" stroke="hsl(180.0,100%,35%)" stroke-width="0.00076"></path>
<path d="M1.069 0.530 Q1.093 0.854 1.729 0.914" stroke="hsl(180.0,100%,35%)" stroke-width="0.00050"></path>
<path d="M1.069 0.530 Q1.099 0.659 1.355 0.672" stroke="hsl(180.0,100%,35%)" stroke-width="0.00050"></path>
<path d="M1.069 0.530 Q1.156 0.303 0.733 0.211" stroke="hsl(180.0,100%,35%)" stroke-width="0.00025"></path>
<path d="M1.397 0.452 Q1.172 0.197 0.625 0.250" stroke="hsl(180.0,100%,35%)" stroke-width="0.00025"></path>
<path d="M1.397 0.452 Q1.258 0.199 0.733 0.211" stroke="hsl(180.0,100%,35%)" stroke-width="0.00025"></path>
<path d="M1.397 0.452 Q1.200 0.554 1.355 0.672" stroke="hsl(180.0,100%,35%)" stroke-width="0.00025"></path>
<path d="M0.390 0.234 Q0.547 0.397 0.900 0.356" stroke="hsl(0.0,100%,35%)" stroke-width="0.00252"></path>
<path d="M0.390 0.234 Q0.580 0.291 0.733 0.211" stroke="hsl(0.0,100%,35%)" stroke-width="0.00227"></path>
<path d="M0.390 0.234 Q0.398 0.270 0.470 0.273" stroke="hsl(0.0,100%,35%)" stroke-width="0.00025"></path>
<path d="M0.390 0.234 Q0.522 0.646 1.355 0.672" stroke="hsl(0.0,100%,35%)" stroke-width="0.00050"></path>
<path d="M0.390 0.234 Q0.601 0.747 1.649 0.756" stroke="hsl(0.0,100%,35%)" stroke-width="0.00025"></path>
<path d="M0.390 0.234 Q0.516 0.841 1.729 0.914" stroke="hsl(0.0,100%,35%)" stroke-width="0.00025"></path>
<path d="M0.390 0.234 Q0.670 0.201 0.667 0.057" stroke="hsl(0.0,100%,35%)" stroke-width="0.00025"></path>
<path d="M1.156 0.490 Q1.134 0.372 0.900 0.356" stroke="hsl(180.0,100%,35%)" stroke-width="0.00302"></path>
<path d="M1.156 0.490 Q1.110 0.621 1.355 0.672" stroke="hsl(180.0,100%,35%)" stroke-width="0.00202"></path>
<path d="M1.156 0.490 Q1.167 0.266 0.733 0.211" stroke="hsl(180.0,100%,35%)" stroke-width="0.00101"></path>
<path d="M1.156 0.490 Q1.082 0.264 0.625 0.250" stroke="hsl(180.0,100%,35%)" stroke-width="0.00076"></path>
<path d="M1.156 0.490 Q1.104 0.816 1.729 0.914" stroke="hsl(180.0,100%,35%)" stroke-width="0.00025"></path>
<path d="M1.156 0.490 Q0.915 0.384 0.656 0.478" stroke="hsl(180.0,100%,35%)" stroke-width="0.00025"></path>
<path d="M0.665 0.371 Q0.794 0.411 0.900 0.356" stroke="hsl(0.0,100%,35%)" stroke-width="0.00050"></path>
<path d="M0.665 0.371 Q0.827 0.305 0.733 0.211" stroke="hsl(0.0,100%,35%)" stroke-width="0.00076"></path>
<path d="M0.665 0.371 Q0.645 0.283 0.470 0.273" stroke="hsl(0.0,100%,35%)" stroke-width="0.00025"></path>
<path d="M1.157 0.707 Q1.284 0.729 1.355 0.672" stroke="hsl(180.0,100%,35%)" stroke-width="0.00025"></path>
<path d="M1.157 0.707 Q1.125 0.732 1.167 0.753" stroke="hsl(180.0,100%,35%)" stroke-width="0.00025"></path>
<path d="M1.157 0.707 Q1.309 0.480 0.900 0.356" stroke="hsl(180.0,100%,35%)" stroke-width="0.00025"></path>
<path d="M0.661 -0.094 Q0.453 0.073 0.733 0.211" stroke="hsl(180.0,100%,35%)" stroke-width="0.00025"></path>
<path d="M0.661 -0.094 Q0.421 0.179 0.900 0.356" stroke="hsl(180.0,100%,35%)" stroke-width="0.00025"></path>
<path d="M0.661 -0.094 Q0.396 0.428 1.355 0.672" stroke="hsl(180.0,100%,35%)" stroke-width="0.00025"></path>
</g>
<text x="1.163" y="0.876" font-size="0.014111" fill="hsl(0.0,100%,20%)">abdolrashidi</text>
<text x="0.733" y="0.171" font-size="0.079824" fill="hsl(0.0,100%,20%)">syoussefi</text>
<text x="0.900" y="0.306" font-size="0.100947" fill="hsl(0.0,100%,20%)">jmadill</text>
<text x="1.305" y="0.256" font-size="0.044754" fill="hsl(0.0,100%,20%)">cclao</text>
<text x="1.729" y="0.899" font-size="0.029540" fill="hsl(180.0,100%,20%)">kbr</text>
<text x="1.771" y="0.107" font-size="0.008383" fill="hsl(180.0,100%,20%)">adkushwa</text>
<text x="1.705" y="0.209" font-size="0.005928" fill="hsl(180.0,100%,20%)">rafael.cintron</text>
<text x="1.355" y="0.655" font-size="0.034395" fill="hsl(180.0,100%,20%)">geofflang</text>
<text x="0.966" y="0.141" font-size="0.005928" fill="hsl(0.0,100%,20%)">amy.liu</text>
<text x="0.667" y="0.026" font-size="0.060694" fill="hsl(0.0,100%,20%)">timvp</text>
<text x="0.845" y="0.078" font-size="0.014111" fill="hsl(0.0,100%,20%)">antonio.caggiano</text>
<text x="0.470" y="0.258" font-size="0.030802" fill="hsl(0.0,100%,20%)">m.maiya</text>
<text x="0.376" y="-0.146" font-size="0.004192" fill="hsl(0.0,100%,20%)">cstout</text>
<text x="0.979" y="0.110" font-size="0.002420" fill="hsl(0.0,100%,20%)">jvigilsamsung</text>
<text x="1.090" y="0.238" font-size="0.005928" fill="hsl(0.0,100%,20%)">constantine.shablya</text>
<text x="1.507" y="0.235" font-size="0.028634" fill="hsl(0.0,100%,20%)">ianelliott</text>
<text x="0.493" y="0.394" font-size="0.018901" fill="hsl(0.0,100%,20%)">b.schade</text>
<text x="0.524" y="0.101" font-size="0.004192" fill="hsl(180.0,100%,20%)">capn</text>
<text x="1.150" y="0.348" font-size="0.035485" fill="hsl(0.0,100%,20%)">ynovikov</text>
<text x="0.684" y="0.227" font-size="0.009373" fill="hsl(0.0,100%,20%)">romanl</text>
<text x="0.543" y="0.225" font-size="0.019208" fill="hsl(0.0,100%,20%)">lfy</text>
<text x="0.656" y="0.449" font-size="0.058981" fill="hsl(0.0,100%,20%)">cnorthrop</text>
<text x="0.513" y="0.216" font-size="0.009055" fill="hsl(0.0,100%,20%)">cheryl.wei</text>
<text x="0.332" y="0.091" font-size="0.004192" fill="hsl(0.0,100%,20%)">sunny.sun</text>
<text x="0.508" y="0.596" font-size="0.031646" fill="hsl(0.0,100%,20%)">lubosz.sarnecki</text>
<text x="0.382" y="0.472" font-size="0.039469" fill="hsl(0.0,100%,20%)">gert.wollny</text>
<text x="1.587" y="0.847" font-size="0.003422" fill="hsl(180.0,100%,20%)">bajones</text>
<text x="1.907" y="0.687" font-size="0.002420" fill="hsl(180.0,100%,20%)">zmo</text>
<text x="1.739" y="0.638" font-size="0.018589" fill="hsl(180.0,100%,20%)">penghuang</text>
<text x="1.616" y="0.511" font-size="0.002420" fill="hsl(180.0,100%,20%)">junov</text>
<text x="0.625" y="0.237" font-size="0.027486" fill="hsl(180.0,100%,20%)">jonahr</text>
<text x="1.123" y="0.128" font-size="0.021645" fill="hsl(180.0,100%,20%)">lexa.knyazev</text>
<text x="1.491" y="0.547" font-size="0.002420" fill="hsl(180.0,100%,20%)">vikassoni</text>
<text x="1.945" y="0.776" font-size="0.024916" fill="hsl(180.0,100%,20%)">gman</text>
<text x="1.649" y="0.745" font-size="0.021510" fill="hsl(180.0,100%,20%)">kpiddington</text>
<text x="1.611" y="0.115" font-size="0.007260" fill="hsl(0.0,100%,20%)">hailinzhang</text>
<text x="1.910" y="0.211" font-size="0.004840" fill="hsl(0.0,100%,20%)">hans</text>
<text x="1.874" y="0.296" font-size="0.005411" fill="hsl(0.0,100%,20%)">thakis</text>
<text x="1.482" y="0.067" font-size="0.003422" fill="hsl(0.0,100%,20%)">vantablack</text>
<text x="0.955" y="0.071" font-size="0.008026" fill="hsl(0.0,100%,20%)">natsu</text>
<text x="0.907" y="0.092" font-size="0.018901" fill="hsl(0.0,100%,20%)">yuxinhu</text>
<text x="1.505" y="0.257" font-size="0.008026" fill="hsl(0.0,100%,20%)">mark</text>
<text x="0.540" y="0.208" font-size="0.012340" fill="hsl(0.0,100%,20%)">j.vigil</text>
<text x="0.235" y="-2.219" font-size="0.003422" fill="hsl(0.0,100%,20%)">zzyiwei</text>
<text x="0.863" y="0.375" font-size="0.006845" fill="hsl(0.0,100%,20%)">jgilbert</text>
<text x="0.951" y="-0.016" font-size="0.004192" fill="hsl(0.0,100%,20%)">bsheedy</text>
<text x="0.932" y="0.106" font-size="0.002420" fill="hsl(0.0,100%,20%)">brucedawson</text>
<text x="1.107" y="0.585" font-size="0.002420" fill="hsl(0.0,100%,20%)">tandrii</text>
<text x="1.065" y="-0.109" font-size="0.002420" fill="hsl(0.0,100%,20%)">dpranke</text>
<text x="1.086" y="0.561" font-size="0.004192" fill="hsl(0.0,100%,20%)">nicolascapens</text>
<text x="0.840" y="0.406" font-size="0.002420" fill="hsl(0.0,100%,20%)">doughorn</text>
<text x="1.385" y="0.044" font-size="0.008026" fill="hsl(180.0,100%,20%)">johncunningham</text>
<text x="0.934" y="0.417" font-size="0.022830" fill="hsl(0.0,100%,20%)">jplate</text>
<text x="1.536" y="0.921" font-size="0.002420" fill="hsl(180.0,100%,20%)">ccameron</text>
<text x="1.315" y="0.031" font-size="0.008026" fill="hsl(180.0,100%,20%)">kkinnunen</text>
<text x="1.048" y="0.029" font-size="0.005411" fill="hsl(180.0,100%,20%)">le.hoang.q</text>
<text x="0.507" y="-0.407" font-size="0.004840" fill="hsl(180.0,100%,20%)">kyle.griffiths</text>
<text x="1.065" y="-0.001" font-size="0.005411" fill="hsl(0.0,100%,20%)">lehoangq</text>
<text x="0.832" y="0.372" font-size="0.005411" fill="hsl(0.0,100%,20%)">lunpujun</text>
<text x="0.925" y="0.117" font-size="0.007260" fill="hsl(180.0,100%,20%)">msisov</text>
<text x="1.275" y="0.539" font-size="0.004192" fill="hsl(180.0,100%,20%)">patrto</text>
<text x="0.467" y="0.246" font-size="0.009373" fill="hsl(0.0,100%,20%)">pkasting</text>
<text x="1.283" y="0.904" font-size="0.005928" fill="hsl(180.0,100%,20%)">senorblanco</text>
<text x="1.167" y="0.752" font-size="0.003422" fill="hsl(180.0,100%,20%)">jiajia.qin</text>
<text x="0.302" y="0.046" font-size="0.008726" fill="hsl(0.0,100%,20%)">sergeyu</text>
<text x="1.069" y="0.527" font-size="0.006845" fill="hsl(180.0,100%,20%)">shrekshao</text>
<text x="1.397" y="0.450" font-size="0.004192" fill="hsl(180.0,100%,20%)">srisser</text>
<text x="0.390" y="0.228" font-size="0.012100" fill="hsl(0.0,100%,20%)">steven</text>
<text x="1.156" y="0.483" font-size="0.014111" fill="hsl(180.0,100%,20%)">sugoi</text>
<text x="0.428" y="-0.280" font-size="0.002420" fill="hsl(0.0,100%,20%)">borenet</text>
<text x="0.786" y="0.100" font-size="0.003422" fill="hsl(0.0,100%,20%)">reveman</text>
<text x="0.665" y="0.368" font-size="0.005928" fill="hsl(0.0,100%,20%)">xiaoxuan.liu</text>
<text x="1.157" y="0.705" font-size="0.004192" fill="hsl(180.0,100%,20%)">xinghua.cao</text>
<text x="0.661" y="-0.096" font-size="0.004192" fill="hsl(180.0,100%,20%)">yang.gu</text>
</svg>
