<svg width="4000" height="2000" viewBox="-0.025 -0.025 2.05 1.05" xmlns="http://www.w3.org/2000/svg">
  <style>
    path {
      fill: none;
      stroke-linecap: round;
      stroke-opacity: 0.4;
    }

    text {
      text-anchor: middle;
      alignment-baseline: hanging;
    }
  </style>
  <g opacity="0.4">
<path d="M0.781 0.357 Q0.846 0.248 0.648 0.193" stroke="hsl(0.0,100%,35%)" stroke-width="0.00948"></path>
<path d="M0.781 0.357 Q0.672 0.343 0.621 0.393" stroke="hsl(0.0,100%,35%)" stroke-width="0.00948"></path>
<path d="M0.781 0.357 Q0.794 0.285 0.656 0.263" stroke="hsl(0.0,100%,35%)" stroke-width="0.00474"></path>
<path d="M0.656 0.263 Q0.530 0.264 0.504 0.326" stroke="hsl(0.0,100%,35%)" stroke-width="0.00474"></path>
<path d="M0.656 0.263 Q0.203 0.278 0.133 0.503" stroke="hsl(0.0,100%,35%)" stroke-width="0.00474"></path>
<path d="M0.656 0.263 Q0.643 0.335 0.781 0.357" stroke="hsl(0.0,100%,35%)" stroke-width="0.00948"></path>
<path d="M0.656 0.263 Q0.534 0.321 0.621 0.393" stroke="hsl(0.0,100%,35%)" stroke-width="0.00474"></path>
<path d="M0.989 0.607 Q0.605 0.565 0.439 0.744" stroke="hsl(72.0,100%,35%)" stroke-width="0.00474"></path>
<path d="M0.989 0.607 Q0.998 0.625 1.034 0.624" stroke="hsl(72.0,100%,35%)" stroke-width="0.00474"></path>
<path d="M0.989 0.607 Q0.677 0.492 0.384 0.619" stroke="hsl(72.0,100%,35%)" stroke-width="0.00474"></path>
<path d="M0.439 0.744 Q0.383 0.859 0.595 0.911" stroke="hsl(0.0,100%,35%)" stroke-width="0.00948"></path>
<path d="M0.439 0.744 Q0.274 0.794 0.336 0.886" stroke="hsl(0.0,100%,35%)" stroke-width="0.00474"></path>
<path d="M0.439 0.744 Q0.479 0.562 0.133 0.503" stroke="hsl(0.0,100%,35%)" stroke-width="0.00474"></path>
<path d="M0.439 0.744 Q0.619 0.580 0.339 0.456" stroke="hsl(0.0,100%,35%)" stroke-width="0.00474"></path>
<path d="M0.228 0.304 Q0.370 0.264 0.323 0.185" stroke="hsl(0.0,100%,35%)" stroke-width="0.05213"></path>
<path d="M0.228 0.304 Q0.296 0.843 1.363 0.928" stroke="hsl(0.0,100%,35%)" stroke-width="0.00474"></path>
<path d="M0.228 0.304 Q0.366 0.332 0.451 0.271" stroke="hsl(0.0,100%,35%)" stroke-width="0.00474"></path>
<path d="M0.451 0.271 Q0.107 0.323 0.133 0.503" stroke="hsl(0.0,100%,35%)" stroke-width="0.00474"></path>
<path d="M0.451 0.271 Q0.434 0.309 0.504 0.326" stroke="hsl(0.0,100%,35%)" stroke-width="0.00474"></path>
<path d="M0.451 0.271 Q0.456 0.202 0.323 0.185" stroke="hsl(0.0,100%,35%)" stroke-width="0.00474"></path>
<path d="M0.475 0.042 Q0.426 0.103 0.535 0.140" stroke="hsl(72.0,100%,35%)" stroke-width="0.01422"></path>
<path d="M0.475 0.042 Q0.219 0.012 0.104 0.130" stroke="hsl(72.0,100%,35%)" stroke-width="0.00474"></path>
<path d="M0.475 0.042 Q0.531 0.103 0.663 0.090" stroke="hsl(72.0,100%,35%)" stroke-width="0.00474"></path>
<path d="M0.475 0.042 Q0.370 0.020 0.303 0.066" stroke="hsl(72.0,100%,35%)" stroke-width="0.00474"></path>
<path d="M0.475 0.042 Q0.038 0.644 1.118 0.990" stroke="hsl(72.0,100%,35%)" stroke-width="0.00474"></path>
<path d="M1.946 0.324 Q1.806 0.306 1.742 0.370" stroke="hsl(72.0,100%,35%)" stroke-width="0.00474"></path>
<path d="M1.946 0.324 Q1.928 0.347 1.969 0.360" stroke="hsl(72.0,100%,35%)" stroke-width="0.00474"></path>
<path d="M1.946 0.324 Q0.896 0.051 0.133 0.503" stroke="hsl(72.0,100%,35%)" stroke-width="0.00474"></path>
<path d="M1.946 0.324 Q2.039 0.254 1.922 0.193" stroke="hsl(72.0,100%,35%)" stroke-width="0.00474"></path>
<path d="M1.946 0.324 Q2.030 0.270 1.943 0.217" stroke="hsl(72.0,100%,35%)" stroke-width="0.00474"></path>
<path d="M1.946 0.324 Q1.866 0.298 1.798 0.330" stroke="hsl(72.0,100%,35%)" stroke-width="0.00474"></path>
<path d="M0.743 0.538 Q0.718 0.593 0.818 0.617" stroke="hsl(72.0,100%,35%)" stroke-width="0.00948"></path>
<path d="M0.743 0.538 Q0.848 0.614 1.018 0.579" stroke="hsl(72.0,100%,35%)" stroke-width="0.00474"></path>
<path d="M0.743 0.538 Q0.641 0.563 0.667 0.619" stroke="hsl(72.0,100%,35%)" stroke-width="0.00474"></path>
<path d="M0.743 0.538 Q0.619 0.567 0.647 0.633" stroke="hsl(72.0,100%,35%)" stroke-width="0.00474"></path>
<path d="M0.336 0.886 Q1.119 0.754 1.034 0.344" stroke="hsl(0.0,100%,35%)" stroke-width="0.00474"></path>
<path d="M0.336 0.886 Q0.445 0.950 0.595 0.911" stroke="hsl(0.0,100%,35%)" stroke-width="0.01422"></path>
<path d="M0.336 0.886 Q0.295 0.826 0.169 0.833" stroke="hsl(0.0,100%,35%)" stroke-width="0.00474"></path>
<path d="M0.336 0.886 Q0.248 0.831 0.122 0.862" stroke="hsl(0.0,100%,35%)" stroke-width="0.00948"></path>
<path d="M0.336 0.886 Q0.400 0.803 0.252 0.753" stroke="hsl(0.0,100%,35%)" stroke-width="0.00474"></path>
<path d="M0.336 0.886 Q0.541 0.654 0.133 0.503" stroke="hsl(0.0,100%,35%)" stroke-width="0.00474"></path>
<path d="M0.336 0.886 Q0.502 0.835 0.439 0.744" stroke="hsl(0.0,100%,35%)" stroke-width="0.00474"></path>
<path d="M1.182 0.033 Q0.877 0.074 0.889 0.231" stroke="hsl(0.0,100%,35%)" stroke-width="0.00474"></path>
<path d="M1.182 0.033 Q1.136 0.027 1.112 0.048" stroke="hsl(0.0,100%,35%)" stroke-width="0.00474"></path>
<path d="M1.182 0.033 Q0.861 0.385 1.476 0.618" stroke="hsl(0.0,100%,35%)" stroke-width="0.00474"></path>
<path d="M1.541 0.893 Q1.149 0.416 0.133 0.503" stroke="hsl(0.0,100%,35%)" stroke-width="0.00474"></path>
<path d="M1.541 0.893 Q1.605 0.972 1.773 0.958" stroke="hsl(0.0,100%,35%)" stroke-width="0.01422"></path>
<path d="M1.541 0.893 Q1.727 0.517 1.034 0.344" stroke="hsl(0.0,100%,35%)" stroke-width="0.00474"></path>
<path d="M1.541 0.893 Q1.424 0.875 1.363 0.928" stroke="hsl(0.0,100%,35%)" stroke-width="0.02369"></path>
<path d="M1.034 0.344 Q1.052 0.258 0.889 0.231" stroke="hsl(0.0,100%,35%)" stroke-width="0.00948"></path>
<path d="M1.034 0.344 Q1.136 0.304 1.081 0.245" stroke="hsl(0.0,100%,35%)" stroke-width="0.01422"></path>
<path d="M1.034 0.344 Q1.122 0.397 1.245 0.366" stroke="hsl(0.0,100%,35%)" stroke-width="0.00474"></path>
<path d="M1.034 0.344 Q0.912 0.799 1.773 0.958" stroke="hsl(0.0,100%,35%)" stroke-width="0.00948"></path>
<path d="M1.034 0.344 Q1.006 0.398 1.107 0.423" stroke="hsl(0.0,100%,35%)" stroke-width="0.00474"></path>
<path d="M1.311 0.480 Q1.354 0.530 1.460 0.520" stroke="hsl(144.0,100%,35%)" stroke-width="0.00474"></path>
<path d="M1.311 0.480 Q1.304 0.452 1.246 0.448" stroke="hsl(144.0,100%,35%)" stroke-width="0.00474"></path>
<path d="M1.311 0.480 Q1.296 0.532 1.393 0.550" stroke="hsl(144.0,100%,35%)" stroke-width="0.00474"></path>
<path d="M0.086 0.735 Q0.328 0.737 0.384 0.619" stroke="hsl(72.0,100%,35%)" stroke-width="0.00474"></path>
<path d="M0.086 0.735 Q0.125 0.778 0.218 0.768" stroke="hsl(72.0,100%,35%)" stroke-width="0.00474"></path>
<path d="M0.086 0.735 Q0.435 0.646 0.339 0.456" stroke="hsl(72.0,100%,35%)" stroke-width="0.00474"></path>
<path d="M0.850 0.867 Q0.852 0.810 0.741 0.796" stroke="hsl(0.0,100%,35%)" stroke-width="0.02369"></path>
<path d="M0.850 0.867 Q0.812 0.925 0.917 0.957" stroke="hsl(0.0,100%,35%)" stroke-width="0.01895"></path>
<path d="M0.850 0.867 Q0.794 0.903 0.853 0.939" stroke="hsl(0.0,100%,35%)" stroke-width="0.00474"></path>
<path d="M0.850 0.867 Q1.239 1.097 1.773 0.958" stroke="hsl(0.0,100%,35%)" stroke-width="0.00474"></path>
<path d="M0.065 0.236 Q0.137 0.577 0.818 0.617" stroke="hsl(72.0,100%,35%)" stroke-width="0.00474"></path>
<path d="M0.065 0.236 Q0.112 0.230 0.112 0.206" stroke="hsl(72.0,100%,35%)" stroke-width="0.00474"></path>
<path d="M0.450 0.509 Q0.569 0.510 0.597 0.452" stroke="hsl(72.0,100%,35%)" stroke-width="0.00474"></path>
<path d="M0.450 0.509 Q0.329 0.551 0.384 0.619" stroke="hsl(72.0,100%,35%)" stroke-width="0.00474"></path>
<path d="M0.450 0.509 Q0.463 0.533 0.513 0.532" stroke="hsl(72.0,100%,35%)" stroke-width="0.00474"></path>
<path d="M1.713 0.578 Q1.663 0.285 1.081 0.245" stroke="hsl(0.0,100%,35%)" stroke-width="0.00474"></path>
<path d="M1.713 0.578 Q1.685 0.645 1.810 0.673" stroke="hsl(0.0,100%,35%)" stroke-width="0.03317"></path>
<path d="M1.713 0.578 Q1.562 0.551 1.476 0.618" stroke="hsl(0.0,100%,35%)" stroke-width="0.00474"></path>
<path d="M1.713 0.578 Q1.332 0.103 0.323 0.185" stroke="hsl(0.0,100%,35%)" stroke-width="0.00474"></path>
<path d="M0.984 0.519 Q0.966 0.481 0.887 0.481" stroke="hsl(0.0,100%,35%)" stroke-width="0.00474"></path>
<path d="M0.984 0.519 Q1.085 0.513 1.094 0.462" stroke="hsl(0.0,100%,35%)" stroke-width="0.00474"></path>
<path d="M0.984 0.519 Q1.149 0.442 1.034 0.344" stroke="hsl(0.0,100%,35%)" stroke-width="0.00474"></path>
<path d="M0.984 0.519 Q1.086 0.567 1.200 0.527" stroke="hsl(0.0,100%,35%)" stroke-width="0.00474"></path>
<path d="M1.094 0.462 Q1.095 0.516 1.200 0.527" stroke="hsl(0.0,100%,35%)" stroke-width="0.00474"></path>
<path d="M1.094 0.462 Q0.650 0.558 0.741 0.796" stroke="hsl(0.0,100%,35%)" stroke-width="0.00474"></path>
<path d="M1.094 0.462 Q1.176 0.305 0.889 0.231" stroke="hsl(0.0,100%,35%)" stroke-width="0.00474"></path>
<path d="M0.403 0.403 Q0.328 0.417 0.339 0.456" stroke="hsl(72.0,100%,35%)" stroke-width="0.00474"></path>
<path d="M0.403 0.403 Q0.333 0.436 0.383 0.478" stroke="hsl(72.0,100%,35%)" stroke-width="0.00474"></path>
<path d="M0.403 0.403 Q0.220 0.507 0.384 0.619" stroke="hsl(72.0,100%,35%)" stroke-width="0.00474"></path>
<path d="M0.403 0.403 Q0.515 0.385 0.504 0.326" stroke="hsl(72.0,100%,35%)" stroke-width="0.00474"></path>
<path d="M0.575 0.553 Q0.700 0.538 0.699 0.474" stroke="hsl(72.0,100%,35%)" stroke-width="0.00474"></path>
<path d="M0.575 0.553 Q0.646 0.633 0.818 0.617" stroke="hsl(72.0,100%,35%)" stroke-width="0.00474"></path>
<path d="M0.575 0.553 Q1.377 0.567 1.581 0.179" stroke="hsl(72.0,100%,35%)" stroke-width="0.00474"></path>
<path d="M1.237 0.646 Q1.293 0.624 1.263 0.592" stroke="hsl(0.0,100%,35%)" stroke-width="0.00474"></path>
<path d="M1.237 0.646 Q1.377 0.645 1.406 0.576" stroke="hsl(0.0,100%,35%)" stroke-width="0.00474"></path>
<path d="M1.237 0.646 Q1.200 0.619 1.139 0.631" stroke="hsl(0.0,100%,35%)" stroke-width="0.00474"></path>
<path d="M0.842 0.155 Q0.787 0.288 1.034 0.344" stroke="hsl(0.0,100%,35%)" stroke-width="0.00948"></path>
<path d="M0.842 0.155 Q0.965 0.164 1.010 0.106" stroke="hsl(0.0,100%,35%)" stroke-width="0.00948"></path>
<path d="M0.842 0.155 Q0.703 0.458 1.263 0.592" stroke="hsl(0.0,100%,35%)" stroke-width="0.00474"></path>
<path d="M0.044 0.408 Q0.106 0.416 0.137 0.388" stroke="hsl(72.0,100%,35%)" stroke-width="0.00474"></path>
<path d="M0.044 0.408 Q0.075 0.388 0.042 0.368" stroke="hsl(72.0,100%,35%)" stroke-width="0.00474"></path>
<path d="M0.044 0.408 Q0.294 0.870 1.250 0.849" stroke="hsl(72.0,100%,35%)" stroke-width="0.00474"></path>
<path d="M0.044 0.408 Q0.657 0.723 1.407 0.494" stroke="hsl(72.0,100%,35%)" stroke-width="0.00474"></path>
<path d="M0.044 0.408 Q0.013 0.473 0.133 0.503" stroke="hsl(72.0,100%,35%)" stroke-width="0.00474"></path>
<path d="M1.762 0.212 Q1.857 0.234 1.922 0.193" stroke="hsl(0.0,100%,35%)" stroke-width="0.00474"></path>
<path d="M1.762 0.212 Q1.841 0.189 1.814 0.145" stroke="hsl(0.0,100%,35%)" stroke-width="0.00474"></path>
<path d="M1.762 0.212 Q1.867 0.225 1.915 0.176" stroke="hsl(0.0,100%,35%)" stroke-width="0.00474"></path>
<path d="M1.762 0.212 Q1.681 0.234 1.707 0.279" stroke="hsl(0.0,100%,35%)" stroke-width="0.00474"></path>
<path d="M1.762 0.212 Q0.715 0.031 0.133 0.503" stroke="hsl(0.0,100%,35%)" stroke-width="0.00474"></path>
<path d="M1.762 0.212 Q1.593 0.138 1.412 0.204" stroke="hsl(0.0,100%,35%)" stroke-width="0.00474"></path>
<path d="M0.934 0.757 Q1.064 0.727 1.034 0.657" stroke="hsl(0.0,100%,35%)" stroke-width="0.00474"></path>
<path d="M0.934 0.757 Q1.315 0.570 1.034 0.344" stroke="hsl(0.0,100%,35%)" stroke-width="0.00948"></path>
<path d="M0.934 0.757 Q0.971 0.824 1.109 0.820" stroke="hsl(0.0,100%,35%)" stroke-width="0.00948"></path>
<path d="M0.934 0.757 Q1.018 0.803 1.125 0.772" stroke="hsl(0.0,100%,35%)" stroke-width="0.01895"></path>
<path d="M0.934 0.757 Q0.914 0.702 0.802 0.699" stroke="hsl(0.0,100%,35%)" stroke-width="0.01895"></path>
<path d="M0.934 0.757 Q1.069 0.783 1.149 0.722" stroke="hsl(0.0,100%,35%)" stroke-width="0.00474"></path>
<path d="M0.934 0.757 Q1.087 0.798 1.200 0.733" stroke="hsl(0.0,100%,35%)" stroke-width="0.00474"></path>
<path d="M1.932 0.578 Q1.485 0.657 1.541 0.893" stroke="hsl(0.0,100%,35%)" stroke-width="0.00948"></path>
<path d="M1.932 0.578 Q1.425 0.224 0.621 0.393" stroke="hsl(0.0,100%,35%)" stroke-width="0.00474"></path>
<path d="M1.932 0.578 Q1.909 0.597 1.939 0.612" stroke="hsl(0.0,100%,35%)" stroke-width="0.00474"></path>
<path d="M1.276 0.972 Q1.182 0.949 1.118 0.990" stroke="hsl(72.0,100%,35%)" stroke-width="0.01422"></path>
<path d="M1.276 0.972 Q0.833 0.681 0.169 0.833" stroke="hsl(72.0,100%,35%)" stroke-width="0.00474"></path>
<path d="M1.276 0.972 Q1.270 0.908 1.143 0.896" stroke="hsl(72.0,100%,35%)" stroke-width="0.00474"></path>
<path d="M0.574 0.782 Q0.372 0.786 0.336 0.886" stroke="hsl(0.0,100%,35%)" stroke-width="0.00474"></path>
<path d="M0.574 0.782 Q0.514 0.802 0.541 0.836" stroke="hsl(0.0,100%,35%)" stroke-width="0.00474"></path>
<path d="M0.574 0.782 Q1.257 0.615 1.081 0.245" stroke="hsl(0.0,100%,35%)" stroke-width="0.00474"></path>
<path d="M0.574 0.782 Q0.481 0.851 0.595 0.911" stroke="hsl(0.0,100%,35%)" stroke-width="0.01422"></path>
<path d="M0.848 0.448 Q0.730 0.141 0.104 0.130" stroke="hsl(72.0,100%,35%)" stroke-width="0.00474"></path>
<path d="M0.848 0.448 Q0.919 0.463 0.964 0.431" stroke="hsl(72.0,100%,35%)" stroke-width="0.00474"></path>
<path d="M0.848 0.448 Q0.753 0.431 0.699 0.474" stroke="hsl(72.0,100%,35%)" stroke-width="0.00474"></path>
<path d="M1.085 0.925 Q1.050 0.964 1.118 0.990" stroke="hsl(72.0,100%,35%)" stroke-width="0.00948"></path>
<path d="M1.085 0.925 Q1.228 0.920 1.250 0.849" stroke="hsl(72.0,100%,35%)" stroke-width="0.00474"></path>
<path d="M1.085 0.925 Q0.979 0.632 0.384 0.619" stroke="hsl(72.0,100%,35%)" stroke-width="0.00474"></path>
<path d="M1.268 0.386 Q1.518 0.473 1.742 0.370" stroke="hsl(72.0,100%,35%)" stroke-width="0.00474"></path>
<path d="M1.268 0.386 Q1.284 0.381 1.278 0.373" stroke="hsl(72.0,100%,35%)" stroke-width="0.00474"></path>
<path d="M1.268 0.386 Q0.957 0.546 1.200 0.733" stroke="hsl(72.0,100%,35%)" stroke-width="0.00474"></path>
<path d="M0.090 0.619 Q0.237 0.678 0.384 0.619" stroke="hsl(72.0,100%,35%)" stroke-width="0.00474"></path>
<path d="M0.090 0.619 Q0.166 0.621 0.187 0.584" stroke="hsl(72.0,100%,35%)" stroke-width="0.00474"></path>
<path d="M0.090 0.619 Q0.744 0.408 0.475 0.042" stroke="hsl(72.0,100%,35%)" stroke-width="0.00474"></path>
<path d="M0.090 0.619 Q0.486 0.966 1.250 0.849" stroke="hsl(72.0,100%,35%)" stroke-width="0.00474"></path>
<path d="M1.224 0.117 Q1.175 0.046 1.026 0.055" stroke="hsl(216.0,100%,35%)" stroke-width="0.00474"></path>
<path d="M1.224 0.117 Q1.162 0.103 1.120 0.130" stroke="hsl(216.0,100%,35%)" stroke-width="0.00474"></path>
<path d="M1.224 0.117 Q1.217 0.143 1.266 0.152" stroke="hsl(216.0,100%,35%)" stroke-width="0.00474"></path>
<path d="M1.451 0.736 Q1.529 0.728 1.531 0.689" stroke="hsl(0.0,100%,35%)" stroke-width="0.00474"></path>
<path d="M1.451 0.736 Q1.386 0.764 1.427 0.802" stroke="hsl(0.0,100%,35%)" stroke-width="0.00474"></path>
<path d="M1.451 0.736 Q1.259 0.689 1.125 0.772" stroke="hsl(0.0,100%,35%)" stroke-width="0.00474"></path>
<path d="M1.451 0.736 Q1.410 0.764 1.456 0.790" stroke="hsl(0.0,100%,35%)" stroke-width="0.00474"></path>
<path d="M0.339 0.976 Q0.394 1.003 0.459 0.981" stroke="hsl(288.0,100%,35%)" stroke-width="0.00474"></path>
<path d="M0.339 0.976 Q0.399 1.009 0.477 0.987" stroke="hsl(288.0,100%,35%)" stroke-width="0.00474"></path>
<path d="M0.339 0.976 Q0.307 0.953 0.256 0.964" stroke="hsl(288.0,100%,35%)" stroke-width="0.00474"></path>
<path d="M1.471 0.136 Q1.606 0.142 1.647 0.077" stroke="hsl(72.0,100%,35%)" stroke-width="0.00948"></path>
<path d="M1.471 0.136 Q0.790 0.449 1.250 0.849" stroke="hsl(72.0,100%,35%)" stroke-width="0.00474"></path>
<path d="M1.471 0.136 Q1.492 0.180 1.581 0.179" stroke="hsl(72.0,100%,35%)" stroke-width="0.00948"></path>
<path d="M1.471 0.136 Q1.418 0.208 1.547 0.249" stroke="hsl(72.0,100%,35%)" stroke-width="0.00948"></path>
<path d="M1.647 0.077 Q1.511 0.071 1.471 0.136" stroke="hsl(72.0,100%,35%)" stroke-width="0.00474"></path>
<path d="M1.647 0.077 Q0.549 -0.013 0.133 0.503" stroke="hsl(72.0,100%,35%)" stroke-width="0.00474"></path>
<path d="M1.647 0.077 Q1.459 0.143 1.547 0.249" stroke="hsl(72.0,100%,35%)" stroke-width="0.00474"></path>
<path d="M1.961 0.463 Q1.876 0.420 1.774 0.452" stroke="hsl(0.0,100%,35%)" stroke-width="0.00474"></path>
<path d="M1.961 0.463 Q1.854 0.515 1.932 0.578" stroke="hsl(0.0,100%,35%)" stroke-width="0.00948"></path>
<path d="M1.961 0.463 Q1.899 0.421 1.804 0.442" stroke="hsl(0.0,100%,35%)" stroke-width="0.00474"></path>
<path d="M1.961 0.463 Q1.471 0.673 1.773 0.958" stroke="hsl(0.0,100%,35%)" stroke-width="0.00474"></path>
<path d="M1.961 0.463 Q1.981 0.320 1.707 0.279" stroke="hsl(0.0,100%,35%)" stroke-width="0.00474"></path>
<path d="M1.310 0.237 Q1.321 0.183 1.218 0.165" stroke="hsl(72.0,100%,35%)" stroke-width="0.00948"></path>
<path d="M1.310 0.237 Q0.790 0.531 1.250 0.849" stroke="hsl(72.0,100%,35%)" stroke-width="0.00474"></path>
<path d="M1.310 0.237 Q0.840 0.177 0.621 0.393" stroke="hsl(72.0,100%,35%)" stroke-width="0.00474"></path>
<path d="M1.876 0.768 Q1.736 0.767 1.702 0.835" stroke="hsl(0.0,100%,35%)" stroke-width="0.03317"></path>
<path d="M1.876 0.768 Q1.795 0.387 1.034 0.344" stroke="hsl(0.0,100%,35%)" stroke-width="0.00948"></path>
<path d="M1.876 0.768 Q1.609 0.764 1.541 0.893" stroke="hsl(0.0,100%,35%)" stroke-width="0.00474"></path>
<path d="M1.478 0.363 Q1.603 0.320 1.547 0.249" stroke="hsl(72.0,100%,35%)" stroke-width="0.00948"></path>
<path d="M1.478 0.363 Q1.532 0.561 1.932 0.578" stroke="hsl(72.0,100%,35%)" stroke-width="0.00474"></path>
<path d="M1.478 0.363 Q1.676 0.292 1.581 0.179" stroke="hsl(72.0,100%,35%)" stroke-width="0.00474"></path>
<path d="M1.478 0.363 Q1.608 0.380 1.670 0.320" stroke="hsl(72.0,100%,35%)" stroke-width="0.00474"></path>
<path d="M1.478 0.363 Q1.289 0.179 0.889 0.231" stroke="hsl(72.0,100%,35%)" stroke-width="0.00474"></path>
<path d="M1.478 0.363 Q1.271 0.264 1.034 0.344" stroke="hsl(72.0,100%,35%)" stroke-width="0.00474"></path>
<path d="M1.478 0.363 Q1.566 0.414 1.686 0.382" stroke="hsl(72.0,100%,35%)" stroke-width="0.00474"></path>
<path d="M1.478 0.363 Q1.467 0.420 1.578 0.438" stroke="hsl(72.0,100%,35%)" stroke-width="0.00474"></path>
<path d="M1.478 0.363 Q1.338 0.414 1.407 0.494" stroke="hsl(72.0,100%,35%)" stroke-width="0.00474"></path>
<path d="M0.177 0.946 Q0.761 0.910 0.818 0.617" stroke="hsl(0.0,100%,35%)" stroke-width="0.00474"></path>
<path d="M0.177 0.946 Q0.217 0.893 0.122 0.862" stroke="hsl(0.0,100%,35%)" stroke-width="0.00948"></path>
<path d="M0.177 0.946 Q0.181 0.904 0.099 0.893" stroke="hsl(0.0,100%,35%)" stroke-width="0.00474"></path>
</g>
<text x="0.781" y="0.345" font-size="0.023808" fill="hsl(0.0,100%,20%)">aleventhal</text>
<text x="0.648" y="0.187" font-size="0.012726" fill="hsl(0.0,100%,20%)">mschillaci</text>
<text x="0.621" y="0.383" font-size="0.020121" fill="hsl(0.0,100%,20%)">chrishtr</text>
<text x="0.656" y="0.252" font-size="0.022042" fill="hsl(0.0,100%,20%)">dtseng</text>
<text x="0.989" y="0.599" font-size="0.015586" fill="hsl(72.0,100%,20%)">alexis.menard</text>
<text x="0.439" y="0.732" font-size="0.023808" fill="hsl(0.0,100%,20%)">bokan</text>
<text x="1.034" y="0.619" font-size="0.008998" fill="hsl(72.0,100%,20%)">boliu</text>
<text x="0.384" y="0.608" font-size="0.022042" fill="hsl(72.0,100%,20%)">dcheng</text>
<text x="0.228" y="0.288" font-size="0.032444" fill="hsl(0.0,100%,20%)">andruud</text>
<text x="0.323" y="0.169" font-size="0.032444" fill="hsl(0.0,100%,20%)">futhark</text>
<text x="1.363" y="0.917" font-size="0.022042" fill="hsl(0.0,100%,20%)">sakhapov</text>
<text x="0.451" y="0.262" font-size="0.017997" fill="hsl(0.0,100%,20%)">mstensho</text>
<text x="0.475" y="0.029" font-size="0.025451" fill="hsl(72.0,100%,20%)">asully</text>
<text x="0.535" y="0.132" font-size="0.015586" fill="hsl(72.0,100%,20%)">ningxin.hu</text>
<text x="0.104" y="0.124" font-size="0.012726" fill="hsl(72.0,100%,20%)">ajgo</text>
<text x="0.663" y="0.085" font-size="0.008998" fill="hsl(72.0,100%,20%)">phillis</text>
<text x="0.303" y="0.061" font-size="0.008998" fill="hsl(72.0,100%,20%)">davidben</text>
<text x="1.118" y="0.979" font-size="0.022042" fill="hsl(72.0,100%,20%)">jbroman</text>
<text x="1.946" y="0.313" font-size="0.022042" fill="hsl(72.0,100%,20%)">bewise</text>
<text x="1.742" y="0.364" font-size="0.012726" fill="hsl(72.0,100%,20%)">morlovich</text>
<text x="1.969" y="0.356" font-size="0.008998" fill="hsl(72.0,100%,20%)">fdoray</text>
<text x="0.133" y="0.489" font-size="0.026995" fill="hsl(0.0,100%,20%)">dtapuska</text>
<text x="1.922" y="0.186" font-size="0.012726" fill="hsl(72.0,100%,20%)">kenrb</text>
<text x="1.943" y="0.212" font-size="0.008998" fill="hsl(72.0,100%,20%)">dschinazi</text>
<text x="1.798" y="0.326" font-size="0.008998" fill="hsl(72.0,100%,20%)">dullweber</text>
<text x="0.743" y="0.528" font-size="0.020121" fill="hsl(72.0,100%,20%)">blundell</text>
<text x="0.818" y="0.606" font-size="0.020121" fill="hsl(72.0,100%,20%)">haraken</text>
<text x="1.018" y="0.574" font-size="0.008998" fill="hsl(72.0,100%,20%)">liberato</text>
<text x="0.667" y="0.614" font-size="0.008998" fill="hsl(72.0,100%,20%)">kylechar</text>
<text x="0.647" y="0.629" font-size="0.008998" fill="hsl(72.0,100%,20%)">vasilyt</text>
<text x="0.595" y="0.899" font-size="0.025451" fill="hsl(0.0,100%,20%)">vmpstr</text>
<text x="0.336" y="0.870" font-size="0.031171" fill="hsl(0.0,100%,20%)">khushalsagar</text>
<text x="0.339" y="0.448" font-size="0.015586" fill="hsl(72.0,100%,20%)">danakj</text>
<text x="1.182" y="0.026" font-size="0.015586" fill="hsl(0.0,100%,20%)">clchambers</text>
<text x="0.889" y="0.221" font-size="0.020121" fill="hsl(0.0,100%,20%)">flackr</text>
<text x="1.112" y="0.043" font-size="0.008998" fill="hsl(0.0,100%,20%)">sahir.vellani</text>
<text x="1.476" y="0.612" font-size="0.012726" fill="hsl(0.0,100%,20%)">kevers</text>
<text x="1.541" y="0.877" font-size="0.032444" fill="hsl(0.0,100%,20%)">dbaron</text>
<text x="1.773" y="0.946" font-size="0.023808" fill="hsl(0.0,100%,20%)">ikilpatrick</text>
<text x="1.034" y="0.324" font-size="0.039223" fill="hsl(0.0,100%,20%)">wangxianzhu</text>
<text x="0.504" y="0.318" font-size="0.015586" fill="hsl(0.0,100%,20%)">thestig</text>
<text x="1.311" y="0.473" font-size="0.015586" fill="hsl(144.0,100%,20%)">ellyjones</text>
<text x="1.460" y="0.515" font-size="0.008998" fill="hsl(144.0,100%,20%)">mpdenton</text>
<text x="1.246" y="0.444" font-size="0.008998" fill="hsl(144.0,100%,20%)">bryantchandler</text>
<text x="1.393" y="0.546" font-size="0.008998" fill="hsl(144.0,100%,20%)">guidou</text>
<text x="0.086" y="0.727" font-size="0.015586" fill="hsl(72.0,100%,20%)">erikchen</text>
<text x="0.218" y="0.764" font-size="0.008998" fill="hsl(72.0,100%,20%)">engedy</text>
<text x="0.850" y="0.852" font-size="0.029844" fill="hsl(0.0,100%,20%)">ethavar</text>
<text x="0.741" y="0.785" font-size="0.022042" fill="hsl(0.0,100%,20%)">almaher</text>
<text x="0.917" y="0.948" font-size="0.017997" fill="hsl(0.0,100%,20%)">benjamin.beaudry</text>
<text x="0.853" y="0.934" font-size="0.008998" fill="hsl(0.0,100%,20%)">sammc</text>
<text x="0.065" y="0.229" font-size="0.012726" fill="hsl(72.0,100%,20%)">etiennep</text>
<text x="0.112" y="0.202" font-size="0.008998" fill="hsl(72.0,100%,20%)">hans</text>
<text x="0.450" y="0.501" font-size="0.015586" fill="hsl(72.0,100%,20%)">ffred</text>
<text x="0.597" y="0.447" font-size="0.008998" fill="hsl(0.0,100%,20%)">rbpotter</text>
<text x="0.513" y="0.528" font-size="0.008998" fill="hsl(72.0,100%,20%)">avi</text>
<text x="1.713" y="0.564" font-size="0.028456" fill="hsl(0.0,100%,20%)">fs</text>
<text x="1.081" y="0.235" font-size="0.020121" fill="hsl(0.0,100%,20%)">szager</text>
<text x="1.810" y="0.661" font-size="0.023808" fill="hsl(0.0,100%,20%)">schenney</text>
<text x="0.984" y="0.510" font-size="0.017997" fill="hsl(0.0,100%,20%)">gastonr</text>
<text x="0.887" y="0.476" font-size="0.008998" fill="hsl(0.0,100%,20%)">pkasting</text>
<text x="1.094" y="0.453" font-size="0.017997" fill="hsl(0.0,100%,20%)">yshalivskyy</text>
<text x="1.200" y="0.521" font-size="0.012726" fill="hsl(0.0,100%,20%)">gerchiko</text>
<text x="0.403" y="0.394" font-size="0.017997" fill="hsl(72.0,100%,20%)">greengrape</text>
<text x="0.383" y="0.473" font-size="0.008998" fill="hsl(72.0,100%,20%)">bmgordon</text>
<text x="0.575" y="0.545" font-size="0.015586" fill="hsl(72.0,100%,20%)">horo</text>
<text x="0.699" y="0.467" font-size="0.012726" fill="hsl(72.0,100%,20%)">cduvall</text>
<text x="1.581" y="0.170" font-size="0.017997" fill="hsl(0.0,100%,20%)">kouhei</text>
<text x="1.237" y="0.638" font-size="0.015586" fill="hsl(0.0,100%,20%)">johnstiles</text>
<text x="1.263" y="0.585" font-size="0.012726" fill="hsl(0.0,100%,20%)">michaelludwig</text>
<text x="1.406" y="0.571" font-size="0.008998" fill="hsl(0.0,100%,20%)">cbiesinger</text>
<text x="1.139" y="0.626" font-size="0.008998" fill="hsl(0.0,100%,20%)">brianosman</text>
<text x="0.842" y="0.145" font-size="0.020121" fill="hsl(0.0,100%,20%)">jpgravel</text>
<text x="1.010" y="0.100" font-size="0.012726" fill="hsl(0.0,100%,20%)">yiyix</text>
<text x="0.044" y="0.398" font-size="0.020121" fill="hsl(72.0,100%,20%)">kenoss</text>
<text x="0.137" y="0.383" font-size="0.008998" fill="hsl(72.0,100%,20%)">alexilin</text>
<text x="0.042" y="0.364" font-size="0.008998" fill="hsl(72.0,100%,20%)">mustaq</text>
<text x="1.250" y="0.839" font-size="0.020121" fill="hsl(72.0,100%,20%)">tkent</text>
<text x="1.407" y="0.487" font-size="0.012726" fill="hsl(0.0,100%,20%)">toyoshim</text>
<text x="1.762" y="0.201" font-size="0.022042" fill="hsl(0.0,100%,20%)">khaslett</text>
<text x="1.814" y="0.141" font-size="0.008998" fill="hsl(72.0,100%,20%)">bialpio</text>
<text x="1.915" y="0.172" font-size="0.008998" fill="hsl(72.0,100%,20%)">afakhry</text>
<text x="1.707" y="0.272" font-size="0.012726" fill="hsl(72.0,100%,20%)">dalecurtis</text>
<text x="1.412" y="0.199" font-size="0.008998" fill="hsl(72.0,100%,20%)">petermcneeley</text>
<text x="0.169" y="0.827" font-size="0.012726" fill="hsl(0.0,100%,20%)">joenotcharles</text>
<text x="0.122" y="0.853" font-size="0.017997" fill="hsl(0.0,100%,20%)">rakina</text>
<text x="0.252" y="0.749" font-size="0.008998" fill="hsl(0.0,100%,20%)">tiszka</text>
<text x="0.934" y="0.740" font-size="0.034851" fill="hsl(0.0,100%,20%)">linnan</text>
<text x="1.034" y="0.653" font-size="0.008998" fill="hsl(0.0,100%,20%)">anthonygarant</text>
<text x="1.109" y="0.814" font-size="0.012726" fill="hsl(0.0,100%,20%)">alexrudenko</text>
<text x="1.125" y="0.762" font-size="0.020121" fill="hsl(0.0,100%,20%)">japhet</text>
<text x="0.802" y="0.690" font-size="0.017997" fill="hsl(0.0,100%,20%)">apaseltiner</text>
<text x="1.149" y="0.718" font-size="0.008998" fill="hsl(0.0,100%,20%)">bashi</text>
<text x="1.200" y="0.726" font-size="0.012726" fill="hsl(72.0,100%,20%)">dom</text>
<text x="1.932" y="0.566" font-size="0.023808" fill="hsl(0.0,100%,20%)">masonf</text>
<text x="1.939" y="0.608" font-size="0.008998" fill="hsl(0.0,100%,20%)">jarhar</text>
<text x="1.276" y="0.962" font-size="0.020121" fill="hsl(72.0,100%,20%)">mcnee</text>
<text x="1.143" y="0.892" font-size="0.008998" fill="hsl(72.0,100%,20%)">isaboori</text>
<text x="0.574" y="0.771" font-size="0.022042" fill="hsl(0.0,100%,20%)">nrosenthal</text>
<text x="0.541" y="0.832" font-size="0.008998" fill="hsl(0.0,100%,20%)">altimin</text>
<text x="0.848" y="0.441" font-size="0.015586" fill="hsl(72.0,100%,20%)">olivierli</text>
<text x="0.964" y="0.427" font-size="0.008998" fill="hsl(72.0,100%,20%)">vollick</text>
<text x="1.085" y="0.916" font-size="0.017997" fill="hsl(72.0,100%,20%)">pbos</text>
<text x="1.268" y="0.378" font-size="0.015586" fill="hsl(72.0,100%,20%)">qingxinwu</text>
<text x="1.278" y="0.368" font-size="0.008998" fill="hsl(72.0,100%,20%)">caraitto</text>
<text x="0.090" y="0.610" font-size="0.017997" fill="hsl(72.0,100%,20%)">rahsin</text>
<text x="0.187" y="0.579" font-size="0.008998" fill="hsl(72.0,100%,20%)">christinesm</text>
<text x="1.224" y="0.110" font-size="0.015586" fill="hsl(216.0,100%,20%)">shaobo.yan</text>
<text x="1.026" y="0.050" font-size="0.008998" fill="hsl(216.0,100%,20%)">junov</text>
<text x="1.120" y="0.125" font-size="0.008998" fill="hsl(216.0,100%,20%)">cwallez</text>
<text x="1.266" y="0.148" font-size="0.008998" fill="hsl(216.0,100%,20%)">sunnyps</text>
<text x="1.451" y="0.727" font-size="0.017997" fill="hsl(0.0,100%,20%)">shaseley</text>
<text x="1.531" y="0.684" font-size="0.008998" fill="hsl(0.0,100%,20%)">mmocny</text>
<text x="1.427" y="0.798" font-size="0.008998" fill="hsl(0.0,100%,20%)">iclelland</text>
<text x="1.456" y="0.785" font-size="0.008998" fill="hsl(0.0,100%,20%)">mlippautz</text>
<text x="0.339" y="0.968" font-size="0.015586" fill="hsl(288.0,100%,20%)">silen</text>
<text x="0.459" y="0.977" font-size="0.008998" fill="hsl(288.0,100%,20%)">peah</text>
<text x="0.477" y="0.983" font-size="0.008998" fill="hsl(288.0,100%,20%)">saza</text>
<text x="0.256" y="0.959" font-size="0.008998" fill="hsl(288.0,100%,20%)">olka</text>
<text x="1.471" y="0.124" font-size="0.025451" fill="hsl(72.0,100%,20%)">sisidovski</text>
<text x="1.647" y="0.067" font-size="0.020121" fill="hsl(72.0,100%,20%)">yyanagisawa</text>
<text x="1.547" y="0.239" font-size="0.020121" fill="hsl(72.0,100%,20%)">chikamune</text>
<text x="1.961" y="0.452" font-size="0.022042" fill="hsl(0.0,100%,20%)">sky</text>
<text x="1.774" y="0.447" font-size="0.008998" fill="hsl(0.0,100%,20%)">eirage</text>
<text x="1.804" y="0.438" font-size="0.008998" fill="hsl(0.0,100%,20%)">csharrison</text>
<text x="1.310" y="0.228" font-size="0.017997" fill="hsl(72.0,100%,20%)">snianu</text>
<text x="1.218" y="0.159" font-size="0.012726" fill="hsl(72.0,100%,20%)">sajos</text>
<text x="1.245" y="0.361" font-size="0.008998" fill="hsl(0.0,100%,20%)">jeffreycohen</text>
<text x="1.107" y="0.419" font-size="0.008998" fill="hsl(0.0,100%,20%)">jophba</text>
<text x="1.876" y="0.754" font-size="0.028456" fill="hsl(0.0,100%,20%)">weizhong</text>
<text x="1.702" y="0.823" font-size="0.023808" fill="hsl(0.0,100%,20%)">jonathanjlee</text>
<text x="1.478" y="0.348" font-size="0.028456" fill="hsl(72.0,100%,20%)">yoichio</text>
<text x="1.670" y="0.315" font-size="0.008998" fill="hsl(0.0,100%,20%)">alexnj</text>
<text x="1.686" y="0.377" font-size="0.008998" fill="hsl(0.0,100%,20%)">taiyo</text>
<text x="1.578" y="0.434" font-size="0.008998" fill="hsl(0.0,100%,20%)">nhiroki</text>
<text x="0.177" y="0.937" font-size="0.017997" fill="hsl(0.0,100%,20%)">yuzus</text>
<text x="0.099" y="0.889" font-size="0.008998" fill="hsl(0.0,100%,20%)">fergal</text>
</svg>
