<svg width="4000" height="2000" viewBox="-0.025 -0.025 2.05 1.05" xmlns="http://www.w3.org/2000/svg">
  <style>
    path {
      fill: none;
      stroke-linecap: round;
      stroke-opacity: 0.4;
    }

    text {
      text-anchor: middle;
      alignment-baseline: hanging;
    }
  </style>
  <g opacity="0.4">
<path d="M1.832 0.705 Q1.706 0.747 1.760 0.818" stroke="hsl(0.0,100%,35%)" stroke-width="0.01267"></path>
<path d="M1.832 0.705 Q1.892 0.627 1.754 0.581" stroke="hsl(0.0,100%,35%)" stroke-width="0.01267"></path>
<path d="M1.832 0.705 Q1.613 0.784 1.718 0.907" stroke="hsl(0.0,100%,35%)" stroke-width="0.00634"></path>
<path d="M1.832 0.705 Q1.364 0.622 1.099 0.831" stroke="hsl(0.0,100%,35%)" stroke-width="0.00634"></path>
<path d="M1.832 0.705 Q1.690 0.708 1.665 0.778" stroke="hsl(0.0,100%,35%)" stroke-width="0.00634"></path>
<path d="M1.832 0.705 Q1.763 0.783 1.901 0.834" stroke="hsl(0.0,100%,35%)" stroke-width="0.00634"></path>
<path d="M1.832 0.705 Q1.774 0.606 1.567 0.613" stroke="hsl(0.0,100%,35%)" stroke-width="0.00634"></path>
<path d="M0.558 0.676 Q1.098 0.671 1.205 0.406" stroke="hsl(90.0,100%,35%)" stroke-width="0.00634"></path>
<path d="M0.558 0.676 Q0.461 0.686 0.459 0.736" stroke="hsl(90.0,100%,35%)" stroke-width="0.00634"></path>
<path d="M0.558 0.676 Q0.559 0.718 0.640 0.727" stroke="hsl(90.0,100%,35%)" stroke-width="0.00634"></path>
<path d="M1.958 0.417 Q2.052 0.254 1.754 0.172" stroke="hsl(90.0,100%,35%)" stroke-width="0.00634"></path>
<path d="M1.958 0.417 Q1.987 0.382 1.924 0.360" stroke="hsl(90.0,100%,35%)" stroke-width="0.00634"></path>
<path d="M1.958 0.417 Q2.049 0.370 1.977 0.315" stroke="hsl(90.0,100%,35%)" stroke-width="0.00634"></path>
<path d="M1.754 0.172 Q1.848 0.186 1.896 0.143" stroke="hsl(90.0,100%,35%)" stroke-width="0.03168"></path>
<path d="M1.754 0.172 Q1.641 0.218 1.706 0.283" stroke="hsl(90.0,100%,35%)" stroke-width="0.01901"></path>
<path d="M1.754 0.172 Q1.292 0.179 1.205 0.406" stroke="hsl(90.0,100%,35%)" stroke-width="0.00634"></path>
<path d="M1.706 0.283 Q1.566 0.374 1.714 0.463" stroke="hsl(90.0,100%,35%)" stroke-width="0.01267"></path>
<path d="M1.706 0.283 Q1.819 0.237 1.754 0.172" stroke="hsl(90.0,100%,35%)" stroke-width="0.00634"></path>
<path d="M1.706 0.283 Q1.703 0.338 1.809 0.351" stroke="hsl(90.0,100%,35%)" stroke-width="0.00634"></path>
<path d="M1.706 0.283 Q1.663 0.266 1.621 0.283" stroke="hsl(90.0,100%,35%)" stroke-width="0.00634"></path>
<path d="M1.087 0.725 Q1.320 0.533 0.997 0.377" stroke="hsl(90.0,100%,35%)" stroke-width="0.00634"></path>
<path d="M1.087 0.725 Q1.146 0.660 1.034 0.617" stroke="hsl(90.0,100%,35%)" stroke-width="0.00634"></path>
<path d="M1.087 0.725 Q1.152 0.756 1.227 0.730" stroke="hsl(90.0,100%,35%)" stroke-width="0.00634"></path>
<path d="M1.048 0.514 Q1.133 0.435 0.997 0.377" stroke="hsl(180.0,100%,35%)" stroke-width="0.01267"></path>
<path d="M1.048 0.514 Q0.953 0.745 1.383 0.842" stroke="hsl(180.0,100%,35%)" stroke-width="0.00634"></path>
<path d="M1.048 0.514 Q1.006 0.454 0.881 0.462" stroke="hsl(180.0,100%,35%)" stroke-width="0.00634"></path>
<path d="M1.048 0.514 Q1.002 0.446 0.859 0.454" stroke="hsl(180.0,100%,35%)" stroke-width="0.00634"></path>
<path d="M1.048 0.514 Q0.564 0.601 0.627 0.856" stroke="hsl(180.0,100%,35%)" stroke-width="0.00634"></path>
<path d="M1.048 0.514 Q1.059 0.612 1.251 0.628" stroke="hsl(180.0,100%,35%)" stroke-width="0.00634"></path>
<path d="M1.383 0.842 Q1.249 0.780 1.099 0.831" stroke="hsl(180.0,100%,35%)" stroke-width="0.00634"></path>
<path d="M1.383 0.842 Q1.232 0.832 1.179 0.904" stroke="hsl(180.0,100%,35%)" stroke-width="0.00634"></path>
<path d="M1.383 0.842 Q0.994 0.698 0.627 0.856" stroke="hsl(180.0,100%,35%)" stroke-width="0.00634"></path>
<path d="M1.383 0.842 Q1.362 0.688 1.056 0.664" stroke="hsl(180.0,100%,35%)" stroke-width="0.00634"></path>
<path d="M0.084 0.836 Q0.856 0.698 0.757 0.291" stroke="hsl(0.0,100%,35%)" stroke-width="0.00634"></path>
<path d="M0.084 0.836 Q0.187 0.840 0.218 0.790" stroke="hsl(0.0,100%,35%)" stroke-width="0.00634"></path>
<path d="M0.084 0.836 Q0.130 0.883 0.232 0.871" stroke="hsl(0.0,100%,35%)" stroke-width="0.00634"></path>
<path d="M0.568 0.185 Q0.676 0.175 0.681 0.120" stroke="hsl(0.0,100%,35%)" stroke-width="0.01267"></path>
<path d="M0.568 0.185 Q0.578 0.276 0.757 0.291" stroke="hsl(0.0,100%,35%)" stroke-width="0.00634"></path>
<path d="M0.568 0.185 Q0.597 0.243 0.715 0.242" stroke="hsl(0.0,100%,35%)" stroke-width="0.00634"></path>
<path d="M0.568 0.185 Q0.657 0.236 0.775 0.203" stroke="hsl(0.0,100%,35%)" stroke-width="0.00634"></path>
<path d="M0.568 0.185 Q0.710 0.423 1.205 0.406" stroke="hsl(0.0,100%,35%)" stroke-width="0.00634"></path>
<path d="M0.568 0.185 Q0.441 0.151 0.345 0.205" stroke="hsl(0.0,100%,35%)" stroke-width="0.00634"></path>
<path d="M0.568 0.185 Q0.742 0.271 0.947 0.205" stroke="hsl(0.0,100%,35%)" stroke-width="0.00634"></path>
<path d="M0.568 0.185 Q0.709 0.210 0.789 0.147" stroke="hsl(0.0,100%,35%)" stroke-width="0.00634"></path>
<path d="M1.280 0.498 Q1.348 0.285 0.947 0.205" stroke="hsl(90.0,100%,35%)" stroke-width="0.00634"></path>
<path d="M1.280 0.498 Q1.315 0.437 1.205 0.406" stroke="hsl(90.0,100%,35%)" stroke-width="0.01267"></path>
<path d="M1.280 0.498 Q1.241 0.528 1.292 0.553" stroke="hsl(90.0,100%,35%)" stroke-width="0.00634"></path>
<path d="M1.280 0.498 Q1.411 0.477 1.400 0.409" stroke="hsl(90.0,100%,35%)" stroke-width="0.00634"></path>
<path d="M0.087 0.215 Q0.260 0.236 0.338 0.156" stroke="hsl(180.0,100%,35%)" stroke-width="0.01267"></path>
<path d="M0.087 0.215 Q-0.411 0.525 0.084 0.836" stroke="hsl(180.0,100%,35%)" stroke-width="0.00634"></path>
<path d="M0.087 0.215 Q0.136 0.260 0.234 0.246" stroke="hsl(180.0,100%,35%)" stroke-width="0.00634"></path>
<path d="M1.170 0.086 Q1.048 0.072 0.993 0.128" stroke="hsl(180.0,100%,35%)" stroke-width="0.00634"></path>
<path d="M1.170 0.086 Q1.072 0.098 1.074 0.149" stroke="hsl(180.0,100%,35%)" stroke-width="0.00634"></path>
<path d="M1.170 0.086 Q0.698 -0.045 0.338 0.156" stroke="hsl(180.0,100%,35%)" stroke-width="0.00634"></path>
<path d="M1.476 0.682 Q1.417 0.843 1.718 0.907" stroke="hsl(0.0,100%,35%)" stroke-width="0.00634"></path>
<path d="M1.476 0.682 Q1.696 0.687 1.754 0.581" stroke="hsl(0.0,100%,35%)" stroke-width="0.01901"></path>
<path d="M1.476 0.682 Q1.577 0.666 1.567 0.613" stroke="hsl(0.0,100%,35%)" stroke-width="0.01901"></path>
<path d="M1.476 0.682 Q1.617 0.641 1.566 0.562" stroke="hsl(0.0,100%,35%)" stroke-width="0.00634"></path>
<path d="M0.328 0.631 Q0.330 0.735 0.533 0.757" stroke="hsl(0.0,100%,35%)" stroke-width="0.00634"></path>
<path d="M0.328 0.631 Q0.222 0.686 0.308 0.750" stroke="hsl(0.0,100%,35%)" stroke-width="0.01267"></path>
<path d="M0.328 0.631 Q0.710 0.596 0.725 0.402" stroke="hsl(0.0,100%,35%)" stroke-width="0.00634"></path>
<path d="M0.328 0.631 Q0.866 0.638 0.997 0.377" stroke="hsl(0.0,100%,35%)" stroke-width="0.00634"></path>
<path d="M0.725 0.402 Q0.569 0.691 1.099 0.831" stroke="hsl(0.0,100%,35%)" stroke-width="0.00634"></path>
<path d="M0.725 0.402 Q0.238 0.493 0.308 0.750" stroke="hsl(0.0,100%,35%)" stroke-width="0.00634"></path>
<path d="M0.725 0.402 Q0.790 0.347 0.696 0.303" stroke="hsl(0.0,100%,35%)" stroke-width="0.00634"></path>
<path d="M0.725 0.402 Q0.542 0.545 0.780 0.666" stroke="hsl(0.0,100%,35%)" stroke-width="0.00634"></path>
<path d="M0.710 0.048 Q0.780 0.089 0.875 0.063" stroke="hsl(180.0,100%,35%)" stroke-width="0.00634"></path>
<path d="M0.710 0.048 Q0.517 0.446 1.251 0.628" stroke="hsl(180.0,100%,35%)" stroke-width="0.00634"></path>
<path d="M0.710 0.048 Q0.820 0.078 0.902 0.031" stroke="hsl(180.0,100%,35%)" stroke-width="0.00634"></path>
<path d="M0.047 0.694 Q0.102 0.697 0.120 0.670" stroke="hsl(0.0,100%,35%)" stroke-width="0.00634"></path>
<path d="M0.047 0.694 Q0.724 0.634 0.757 0.291" stroke="hsl(0.0,100%,35%)" stroke-width="0.00634"></path>
<path d="M0.047 0.694 Q0.047 0.722 0.103 0.729" stroke="hsl(0.0,100%,35%)" stroke-width="0.00634"></path>
<path d="M1.811 0.381 Q1.837 0.311 1.706 0.283" stroke="hsl(90.0,100%,35%)" stroke-width="0.01267"></path>
<path d="M1.811 0.381 Q0.687 0.267 0.218 0.790" stroke="hsl(90.0,100%,35%)" stroke-width="0.00634"></path>
<path d="M1.811 0.381 Q1.488 0.273 1.205 0.406" stroke="hsl(90.0,100%,35%)" stroke-width="0.00634"></path>
<path d="M1.037 0.252 Q0.093 0.353 0.084 0.836" stroke="hsl(0.0,100%,35%)" stroke-width="0.00634"></path>
<path d="M1.037 0.252 Q1.058 0.274 1.106 0.268" stroke="hsl(0.0,100%,35%)" stroke-width="0.00634"></path>
<path d="M1.037 0.252 Q1.146 0.114 0.902 0.031" stroke="hsl(0.0,100%,35%)" stroke-width="0.00634"></path>
<path d="M0.097 0.605 Q0.168 0.535 0.047 0.485" stroke="hsl(90.0,100%,35%)" stroke-width="0.02535"></path>
<path d="M0.097 0.605 Q0.294 0.562 0.252 0.456" stroke="hsl(90.0,100%,35%)" stroke-width="0.00634"></path>
<path d="M0.097 0.605 Q0.810 0.727 1.205 0.406" stroke="hsl(90.0,100%,35%)" stroke-width="0.00634"></path>
<path d="M0.571 0.564 Q0.508 0.559 0.485 0.589" stroke="hsl(180.0,100%,35%)" stroke-width="0.00634"></path>
<path d="M0.571 0.564 Q0.686 0.683 0.944 0.654" stroke="hsl(180.0,100%,35%)" stroke-width="0.00634"></path>
<path d="M0.571 0.564 Q0.501 0.663 0.679 0.719" stroke="hsl(180.0,100%,35%)" stroke-width="0.00634"></path>
<path d="M0.571 0.564 Q0.669 0.612 0.784 0.575" stroke="hsl(180.0,100%,35%)" stroke-width="0.00634"></path>
<path d="M0.571 0.564 Q0.730 0.564 0.765 0.486" stroke="hsl(180.0,100%,35%)" stroke-width="0.00634"></path>
<path d="M1.451 0.216 Q0.943 -0.037 0.338 0.156" stroke="hsl(180.0,100%,35%)" stroke-width="0.01267"></path>
<path d="M1.451 0.216 Q1.315 0.174 1.203 0.232" stroke="hsl(180.0,100%,35%)" stroke-width="0.03802"></path>
<path d="M1.451 0.216 Q0.830 0.262 0.784 0.575" stroke="hsl(180.0,100%,35%)" stroke-width="0.01901"></path>
<path d="M1.500 0.557 Q1.539 0.521 1.478 0.494" stroke="hsl(180.0,100%,35%)" stroke-width="0.00634"></path>
<path d="M1.500 0.557 Q1.501 0.623 1.630 0.637" stroke="hsl(180.0,100%,35%)" stroke-width="0.00634"></path>
<path d="M1.500 0.557 Q1.394 0.531 1.320 0.577" stroke="hsl(180.0,100%,35%)" stroke-width="0.00634"></path>
<path d="M0.438 0.935 Q1.311 0.922 1.478 0.494" stroke="hsl(180.0,100%,35%)" stroke-width="0.00634"></path>
<path d="M0.438 0.935 Q0.501 0.987 0.618 0.967" stroke="hsl(180.0,100%,35%)" stroke-width="0.01267"></path>
<path d="M0.438 0.935 Q0.595 0.933 0.627 0.856" stroke="hsl(180.0,100%,35%)" stroke-width="0.01901"></path>
<path d="M0.184 0.090 Q0.107 0.169 0.244 0.224" stroke="hsl(0.0,100%,35%)" stroke-width="0.00634"></path>
<path d="M0.184 0.090 Q0.250 0.093 0.271 0.062" stroke="hsl(0.0,100%,35%)" stroke-width="0.00634"></path>
<path d="M0.184 0.090 Q0.361 0.396 0.997 0.377" stroke="hsl(0.0,100%,35%)" stroke-width="0.00634"></path>
<path d="M1.569 0.404 Q1.499 0.436 1.544 0.477" stroke="hsl(180.0,100%,35%)" stroke-width="0.01901"></path>
<path d="M1.569 0.404 Q0.737 0.442 0.627 0.856" stroke="hsl(180.0,100%,35%)" stroke-width="0.00634"></path>
<path d="M1.569 0.404 Q1.040 0.333 0.784 0.575" stroke="hsl(180.0,100%,35%)" stroke-width="0.00634"></path>
<path d="M0.844 0.715 Q0.958 0.768 1.087 0.725" stroke="hsl(90.0,100%,35%)" stroke-width="0.00634"></path>
<path d="M0.844 0.715 Q1.271 0.633 1.205 0.406" stroke="hsl(90.0,100%,35%)" stroke-width="0.00634"></path>
<path d="M0.844 0.715 Q0.655 0.673 0.533 0.757" stroke="hsl(90.0,100%,35%)" stroke-width="0.00634"></path>
<path d="M0.844 0.715 Q0.961 0.694 0.946 0.633" stroke="hsl(90.0,100%,35%)" stroke-width="0.00634"></path>
<path d="M0.844 0.715 Q0.851 0.678 0.780 0.666" stroke="hsl(90.0,100%,35%)" stroke-width="0.00634"></path>
<path d="M1.184 0.647 Q1.233 0.651 1.251 0.628" stroke="hsl(180.0,100%,35%)" stroke-width="0.00634"></path>
<path d="M1.184 0.647 Q1.106 0.630 1.056 0.664" stroke="hsl(180.0,100%,35%)" stroke-width="0.00634"></path>
<path d="M1.184 0.647 Q1.139 0.697 1.227 0.730" stroke="hsl(180.0,100%,35%)" stroke-width="0.00634"></path>
<path d="M0.459 0.436 Q0.451 0.478 0.530 0.490" stroke="hsl(90.0,100%,35%)" stroke-width="0.00634"></path>
<path d="M0.459 0.436 Q0.567 0.410 0.541 0.352" stroke="hsl(90.0,100%,35%)" stroke-width="0.00634"></path>
<path d="M0.459 0.436 Q0.483 0.477 0.569 0.474" stroke="hsl(90.0,100%,35%)" stroke-width="0.01267"></path>
<path d="M0.459 0.436 Q0.340 0.405 0.252 0.456" stroke="hsl(90.0,100%,35%)" stroke-width="0.01267"></path>
<path d="M0.415 0.307 Q0.484 0.320 0.524 0.290" stroke="hsl(180.0,100%,35%)" stroke-width="0.00634"></path>
<path d="M0.415 0.307 Q0.770 0.404 1.037 0.252" stroke="hsl(180.0,100%,35%)" stroke-width="0.00634"></path>
<path d="M0.415 0.307 Q0.396 0.231 0.244 0.224" stroke="hsl(180.0,100%,35%)" stroke-width="0.00634"></path>
<path d="M0.858 0.891 Q0.834 0.934 0.913 0.955" stroke="hsl(270.0,100%,35%)" stroke-width="0.00634"></path>
<path d="M0.858 0.891 Q0.940 0.954 1.080 0.927" stroke="hsl(270.0,100%,35%)" stroke-width="0.03168"></path>
<path d="M0.858 0.891 Q1.002 0.902 1.056 0.834" stroke="hsl(270.0,100%,35%)" stroke-width="0.00634"></path>
<path d="M0.167 0.343 Q0.290 0.351 0.333 0.293" stroke="hsl(0.0,100%,35%)" stroke-width="0.00634"></path>
<path d="M0.167 0.343 Q0.119 0.417 0.252 0.456" stroke="hsl(0.0,100%,35%)" stroke-width="0.00634"></path>
<path d="M0.167 0.343 Q0.137 0.317 0.080 0.327" stroke="hsl(0.0,100%,35%)" stroke-width="0.00634"></path>
<path d="M0.167 0.343 Q0.215 0.627 0.780 0.666" stroke="hsl(0.0,100%,35%)" stroke-width="0.00634"></path>
</g>
<text x="1.832" y="0.689" font-size="0.033129" fill="hsl(0.0,100%,20%)">asully</text>
<text x="1.760" y="0.810" font-size="0.015617" fill="hsl(0.0,100%,20%)">phillis</text>
<text x="1.754" y="0.568" font-size="0.024693" fill="hsl(0.0,100%,20%)">ningxin.hu</text>
<text x="1.718" y="0.900" font-size="0.015617" fill="hsl(0.0,100%,20%)">ajgo</text>
<text x="1.099" y="0.822" font-size="0.019127" fill="hsl(0.0,100%,20%)">avi</text>
<text x="1.665" y="0.772" font-size="0.011043" fill="hsl(0.0,100%,20%)">kylechar</text>
<text x="1.901" y="0.828" font-size="0.011043" fill="hsl(0.0,100%,20%)">magchen</text>
<text x="1.567" y="0.602" font-size="0.022086" fill="hsl(0.0,100%,20%)">reillyg</text>
<text x="0.558" y="0.667" font-size="0.019127" fill="hsl(90.0,100%,20%)">bartekn</text>
<text x="1.205" y="0.391" font-size="0.031235" fill="hsl(90.0,100%,20%)">haraken</text>
<text x="0.459" y="0.730" font-size="0.011043" fill="hsl(90.0,100%,20%)">jonross</text>
<text x="0.640" y="0.721" font-size="0.011043" fill="hsl(90.0,100%,20%)">keishi</text>
<text x="1.958" y="0.407" font-size="0.019127" fill="hsl(90.0,100%,20%)">beaufort.francois</text>
<text x="1.754" y="0.154" font-size="0.036626" fill="hsl(90.0,100%,20%)">blundell</text>
<text x="1.924" y="0.355" font-size="0.011043" fill="hsl(90.0,100%,20%)">clamy</text>
<text x="1.977" y="0.310" font-size="0.011043" fill="hsl(90.0,100%,20%)">kainino</text>
<text x="1.896" y="0.131" font-size="0.024693" fill="hsl(90.0,100%,20%)">cwallez</text>
<text x="1.706" y="0.265" font-size="0.034922" fill="hsl(90.0,100%,20%)">jpgravel</text>
<text x="1.087" y="0.714" font-size="0.022086" fill="hsl(90.0,100%,20%)">chikamune</text>
<text x="0.997" y="0.365" font-size="0.024693" fill="hsl(0.0,100%,20%)">kojii</text>
<text x="1.034" y="0.612" font-size="0.011043" fill="hsl(90.0,100%,20%)">hiroshige</text>
<text x="1.227" y="0.722" font-size="0.015617" fill="hsl(90.0,100%,20%)">tkent</text>
<text x="1.048" y="0.500" font-size="0.029217" fill="hsl(180.0,100%,20%)">daniec</text>
<text x="1.383" y="0.830" font-size="0.024693" fill="hsl(180.0,100%,20%)">snianu</text>
<text x="0.881" y="0.456" font-size="0.011043" fill="hsl(180.0,100%,20%)">aleventhal</text>
<text x="0.859" y="0.449" font-size="0.011043" fill="hsl(180.0,100%,20%)">benjamin.beaudry</text>
<text x="0.627" y="0.843" font-size="0.027050" fill="hsl(180.0,100%,20%)">danakj</text>
<text x="1.251" y="0.618" font-size="0.019127" fill="hsl(180.0,100%,20%)">masonf</text>
<text x="0.084" y="0.823" font-size="0.024693" fill="hsl(0.0,100%,20%)">dtapuska</text>
<text x="0.757" y="0.282" font-size="0.019127" fill="hsl(0.0,100%,20%)">japhet</text>
<text x="0.218" y="0.782" font-size="0.015617" fill="hsl(0.0,100%,20%)">mlippautz</text>
<text x="0.232" y="0.866" font-size="0.011043" fill="hsl(0.0,100%,20%)">yukishiino</text>
<text x="0.568" y="0.169" font-size="0.033129" fill="hsl(0.0,100%,20%)">erinstewart</text>
<text x="0.681" y="0.112" font-size="0.015617" fill="hsl(0.0,100%,20%)">bingler</text>
<text x="0.715" y="0.236" font-size="0.011043" fill="hsl(0.0,100%,20%)">nasko</text>
<text x="0.775" y="0.198" font-size="0.011043" fill="hsl(0.0,100%,20%)">ntfschr</text>
<text x="0.345" y="0.199" font-size="0.011043" fill="hsl(0.0,100%,20%)">kenrb</text>
<text x="0.947" y="0.197" font-size="0.015617" fill="hsl(0.0,100%,20%)">rakina</text>
<text x="0.789" y="0.141" font-size="0.011043" fill="hsl(0.0,100%,20%)">torne</text>
<text x="1.280" y="0.485" font-size="0.024693" fill="hsl(90.0,100%,20%)">fergal</text>
<text x="1.292" y="0.548" font-size="0.011043" fill="hsl(90.0,100%,20%)">iclelland</text>
<text x="1.400" y="0.404" font-size="0.011043" fill="hsl(90.0,100%,20%)">domenic</text>
<text x="0.087" y="0.204" font-size="0.022086" fill="hsl(180.0,100%,20%)">gastonr</text>
<text x="0.338" y="0.144" font-size="0.024693" fill="hsl(180.0,100%,20%)">wangxianzhu</text>
<text x="0.234" y="0.241" font-size="0.011043" fill="hsl(180.0,100%,20%)">pkasting</text>
<text x="1.170" y="0.076" font-size="0.019127" fill="hsl(180.0,100%,20%)">hiroh</text>
<text x="0.993" y="0.123" font-size="0.011043" fill="hsl(180.0,100%,20%)">kron</text>
<text x="1.074" y="0.144" font-size="0.011043" fill="hsl(180.0,100%,20%)">sprang</text>
<text x="1.714" y="0.455" font-size="0.015617" fill="hsl(90.0,100%,20%)">khushalsagar</text>
<text x="1.809" y="0.346" font-size="0.011043" fill="hsl(90.0,100%,20%)">ccameron</text>
<text x="1.621" y="0.278" font-size="0.011043" fill="hsl(90.0,100%,20%)">yiyix</text>
<text x="1.476" y="0.667" font-size="0.031235" fill="hsl(0.0,100%,20%)">junwei.fu</text>
<text x="1.566" y="0.557" font-size="0.011043" fill="hsl(0.0,100%,20%)">robertogden</text>
<text x="0.328" y="0.618" font-size="0.024693" fill="hsl(0.0,100%,20%)">kenoss</text>
<text x="0.533" y="0.749" font-size="0.015617" fill="hsl(0.0,100%,20%)">kouhei</text>
<text x="0.308" y="0.741" font-size="0.019127" fill="hsl(0.0,100%,20%)">lingqi</text>
<text x="0.725" y="0.390" font-size="0.024693" fill="hsl(0.0,100%,20%)">taiyo</text>
<text x="0.710" y="0.039" font-size="0.019127" fill="hsl(180.0,100%,20%)">lbrady</text>
<text x="0.875" y="0.058" font-size="0.011043" fill="hsl(90.0,100%,20%)">averge</text>
<text x="0.902" y="0.023" font-size="0.015617" fill="hsl(0.0,100%,20%)">dcheng</text>
<text x="0.047" y="0.684" font-size="0.019127" fill="hsl(0.0,100%,20%)">linnan</text>
<text x="0.120" y="0.665" font-size="0.011043" fill="hsl(0.0,100%,20%)">apaseltiner</text>
<text x="0.103" y="0.723" font-size="0.011043" fill="hsl(0.0,100%,20%)">johnidel</text>
<text x="1.811" y="0.370" font-size="0.022086" fill="hsl(90.0,100%,20%)">lizeb</text>
<text x="1.037" y="0.241" font-size="0.022086" fill="hsl(0.0,100%,20%)">lukasza</text>
<text x="1.106" y="0.263" font-size="0.011043" fill="hsl(90.0,100%,20%)">jbroman</text>
<text x="0.097" y="0.591" font-size="0.027050" fill="hsl(90.0,100%,20%)">mcasas</text>
<text x="0.047" y="0.474" font-size="0.022086" fill="hsl(90.0,100%,20%)">dalecurtis</text>
<text x="0.252" y="0.445" font-size="0.022086" fill="hsl(0.0,100%,20%)">guidou</text>
<text x="0.571" y="0.552" font-size="0.024693" fill="hsl(180.0,100%,20%)">morlovich</text>
<text x="0.485" y="0.583" font-size="0.011043" fill="hsl(180.0,100%,20%)">behamilton</text>
<text x="0.944" y="0.648" font-size="0.011043" fill="hsl(180.0,100%,20%)">chrishtr</text>
<text x="0.679" y="0.713" font-size="0.011043" fill="hsl(180.0,100%,20%)">alexmt</text>
<text x="0.784" y="0.563" font-size="0.024693" fill="hsl(180.0,100%,20%)">futhark</text>
<text x="0.765" y="0.480" font-size="0.011043" fill="hsl(180.0,100%,20%)">orrb</text>
<text x="1.451" y="0.198" font-size="0.036626" fill="hsl(180.0,100%,20%)">mstensho</text>
<text x="1.203" y="0.218" font-size="0.027050" fill="hsl(180.0,100%,20%)">ikilpatrick</text>
<text x="1.500" y="0.547" font-size="0.019127" fill="hsl(180.0,100%,20%)">msw</text>
<text x="1.478" y="0.486" font-size="0.015617" fill="hsl(180.0,100%,20%)">caseq</text>
<text x="1.630" y="0.631" font-size="0.011043" fill="hsl(0.0,100%,20%)">elklm</text>
<text x="1.320" y="0.571" font-size="0.011043" fill="hsl(0.0,100%,20%)">mkwst</text>
<text x="0.438" y="0.921" font-size="0.027050" fill="hsl(180.0,100%,20%)">npm</text>
<text x="0.618" y="0.960" font-size="0.015617" fill="hsl(180.0,100%,20%)">cbiesinger</text>
<text x="0.184" y="0.080" font-size="0.019127" fill="hsl(0.0,100%,20%)">schenney</text>
<text x="0.244" y="0.216" font-size="0.015617" fill="hsl(180.0,100%,20%)">pdr</text>
<text x="0.271" y="0.057" font-size="0.011043" fill="hsl(0.0,100%,20%)">fs</text>
<text x="1.569" y="0.392" font-size="0.024693" fill="hsl(180.0,100%,20%)">sesse</text>
<text x="1.544" y="0.467" font-size="0.019127" fill="hsl(180.0,100%,20%)">andruud</text>
<text x="0.844" y="0.702" font-size="0.024693" fill="hsl(90.0,100%,20%)">sisidovski</text>
<text x="0.946" y="0.627" font-size="0.011043" fill="hsl(0.0,100%,20%)">suzukikeita</text>
<text x="0.780" y="0.657" font-size="0.019127" fill="hsl(0.0,100%,20%)">toyoshim</text>
<text x="1.179" y="0.898" font-size="0.011043" fill="hsl(180.0,100%,20%)">christinesm</text>
<text x="1.056" y="0.657" font-size="0.015617" fill="hsl(180.0,100%,20%)">sajos</text>
<text x="1.184" y="0.637" font-size="0.019127" fill="hsl(180.0,100%,20%)">stephanie.zhang</text>
<text x="0.696" y="0.297" font-size="0.011043" fill="hsl(0.0,100%,20%)">nhiroki</text>
<text x="0.459" y="0.423" font-size="0.027050" fill="hsl(90.0,100%,20%)">toprice</text>
<text x="0.530" y="0.485" font-size="0.011043" fill="hsl(90.0,100%,20%)">mbonadei</text>
<text x="0.541" y="0.346" font-size="0.011043" fill="hsl(90.0,100%,20%)">orphis</text>
<text x="0.569" y="0.467" font-size="0.015617" fill="hsl(90.0,100%,20%)">tovep</text>
<text x="0.415" y="0.298" font-size="0.019127" fill="hsl(180.0,100%,20%)">vogelheim</text>
<text x="0.524" y="0.284" font-size="0.011043" fill="hsl(180.0,100%,20%)">bashi</text>
<text x="0.858" y="0.876" font-size="0.029217" fill="hsl(270.0,100%,20%)">weizhong</text>
<text x="0.913" y="0.949" font-size="0.011043" fill="hsl(270.0,100%,20%)">ansung</text>
<text x="1.080" y="0.915" font-size="0.024693" fill="hsl(270.0,100%,20%)">jonathanjlee</text>
<text x="1.056" y="0.829" font-size="0.011043" fill="hsl(270.0,100%,20%)">kuanhuang</text>
<text x="0.167" y="0.332" font-size="0.022086" fill="hsl(0.0,100%,20%)">wtlee</text>
<text x="0.333" y="0.288" font-size="0.011043" fill="hsl(0.0,100%,20%)">dullweber</text>
<text x="0.080" y="0.321" font-size="0.011043" fill="hsl(0.0,100%,20%)">khorimoto</text>
</svg>
