<svg width="4000" height="2000" viewBox="-0.025 -0.025 2.05 1.05" xmlns="http://www.w3.org/2000/svg">
  <style>
    path {
      fill: none;
      stroke-linecap: round;
      stroke-opacity: 0.4;
    }

    text {
      text-anchor: middle;
      alignment-baseline: hanging;
    }
  </style>
  <g opacity="0.4">
<path d="M1.487 0.570 Q1.433 0.609 1.497 0.644" stroke="hsl(0.0,100%,35%)" stroke-width="0.00508"></path>
<path d="M1.487 0.570 Q1.484 0.592 1.527 0.598" stroke="hsl(0.0,100%,35%)" stroke-width="0.00508"></path>
<path d="M1.487 0.570 Q1.327 0.565 1.282 0.641" stroke="hsl(0.0,100%,35%)" stroke-width="0.00508"></path>
<path d="M0.145 0.905 Q0.211 0.886 0.191 0.850" stroke="hsl(0.0,100%,35%)" stroke-width="0.01016"></path>
<path d="M0.145 0.905 Q0.188 0.857 0.104 0.825" stroke="hsl(0.0,100%,35%)" stroke-width="0.01016"></path>
<path d="M0.145 0.905 Q0.138 0.920 0.166 0.926" stroke="hsl(0.0,100%,35%)" stroke-width="0.00508"></path>
<path d="M1.168 0.451 Q1.271 0.328 1.053 0.251" stroke="hsl(0.0,100%,35%)" stroke-width="0.00508"></path>
<path d="M1.168 0.451 Q1.171 0.466 1.200 0.468" stroke="hsl(0.0,100%,35%)" stroke-width="0.00508"></path>
<path d="M1.168 0.451 Q1.262 0.413 1.207 0.358" stroke="hsl(0.0,100%,35%)" stroke-width="0.00508"></path>
<path d="M1.053 0.251 Q0.883 0.245 0.834 0.327" stroke="hsl(0.0,100%,35%)" stroke-width="0.01016"></path>
<path d="M1.053 0.251 Q0.985 0.190 0.852 0.210" stroke="hsl(0.0,100%,35%)" stroke-width="0.00508"></path>
<path d="M1.053 0.251 Q0.855 0.492 1.282 0.641" stroke="hsl(0.0,100%,35%)" stroke-width="0.00508"></path>
<path d="M1.053 0.251 Q1.148 0.301 1.267 0.266" stroke="hsl(0.0,100%,35%)" stroke-width="0.00508"></path>
<path d="M1.750 0.285 Q1.617 0.333 1.683 0.408" stroke="hsl(60.0,100%,35%)" stroke-width="0.05588"></path>
<path d="M1.750 0.285 Q0.587 0.304 0.370 0.876" stroke="hsl(60.0,100%,35%)" stroke-width="0.00508"></path>
<path d="M1.750 0.285 Q1.304 0.443 1.515 0.695" stroke="hsl(60.0,100%,35%)" stroke-width="0.00508"></path>
<path d="M1.515 0.695 Q1.441 0.622 1.282 0.641" stroke="hsl(60.0,100%,35%)" stroke-width="0.00508"></path>
<path d="M1.515 0.695 Q1.569 0.724 1.637 0.704" stroke="hsl(60.0,100%,35%)" stroke-width="0.00508"></path>
<path d="M1.515 0.695 Q1.828 0.585 1.683 0.408" stroke="hsl(60.0,100%,35%)" stroke-width="0.00508"></path>
<path d="M1.650 0.972 Q1.601 0.903 1.457 0.912" stroke="hsl(0.0,100%,35%)" stroke-width="0.00508"></path>
<path d="M1.650 0.972 Q1.733 0.993 1.793 0.958" stroke="hsl(0.0,100%,35%)" stroke-width="0.00508"></path>
<path d="M1.650 0.972 Q1.745 0.861 1.551 0.791" stroke="hsl(0.0,100%,35%)" stroke-width="0.00508"></path>
<path d="M1.551 0.791 Q0.991 0.542 0.384 0.761" stroke="hsl(0.0,100%,35%)" stroke-width="0.00508"></path>
<path d="M1.551 0.791 Q0.800 0.519 0.104 0.825" stroke="hsl(0.0,100%,35%)" stroke-width="0.00508"></path>
<path d="M1.551 0.791 Q1.460 0.750 1.360 0.785" stroke="hsl(0.0,100%,35%)" stroke-width="0.00508"></path>
<path d="M1.551 0.791 Q1.656 0.814 1.724 0.768" stroke="hsl(0.0,100%,35%)" stroke-width="0.00508"></path>
<path d="M1.805 0.840 Q1.709 0.875 1.756 0.929" stroke="hsl(0.0,100%,35%)" stroke-width="0.01524"></path>
<path d="M1.805 0.840 Q1.642 0.815 1.557 0.889" stroke="hsl(0.0,100%,35%)" stroke-width="0.00508"></path>
<path d="M1.805 0.840 Q1.908 0.830 1.912 0.778" stroke="hsl(0.0,100%,35%)" stroke-width="0.00508"></path>
<path d="M1.805 0.840 Q1.557 0.605 1.044 0.675" stroke="hsl(0.0,100%,35%)" stroke-width="0.00508"></path>
<path d="M1.805 0.840 Q1.366 0.740 1.074 0.932" stroke="hsl(0.0,100%,35%)" stroke-width="0.00508"></path>
<path d="M1.044 0.675 Q1.482 0.515 1.267 0.266" stroke="hsl(0.0,100%,35%)" stroke-width="0.00508"></path>
<path d="M1.044 0.675 Q1.009 0.732 1.113 0.762" stroke="hsl(0.0,100%,35%)" stroke-width="0.00508"></path>
<path d="M1.044 0.675 Q1.025 0.635 0.943 0.635" stroke="hsl(0.0,100%,35%)" stroke-width="0.00508"></path>
<path d="M1.044 0.675 Q1.155 0.662 1.154 0.605" stroke="hsl(0.0,100%,35%)" stroke-width="0.00508"></path>
<path d="M1.044 0.675 Q0.953 0.660 0.905 0.701" stroke="hsl(0.0,100%,35%)" stroke-width="0.00508"></path>
<path d="M1.044 0.675 Q0.987 0.731 1.084 0.771" stroke="hsl(0.0,100%,35%)" stroke-width="0.00508"></path>
<path d="M1.044 0.675 Q0.997 0.638 0.916 0.653" stroke="hsl(0.0,100%,35%)" stroke-width="0.00508"></path>
<path d="M1.033 0.541 Q0.863 0.198 0.157 0.207" stroke="hsl(0.0,100%,35%)" stroke-width="0.00508"></path>
<path d="M1.033 0.541 Q0.968 0.470 0.814 0.486" stroke="hsl(0.0,100%,35%)" stroke-width="0.00508"></path>
<path d="M1.033 0.541 Q1.077 0.641 1.282 0.641" stroke="hsl(0.0,100%,35%)" stroke-width="0.00508"></path>
<path d="M1.033 0.541 Q1.054 0.575 1.126 0.573" stroke="hsl(0.0,100%,35%)" stroke-width="0.00508"></path>
<path d="M1.033 0.541 Q1.151 0.579 1.251 0.530" stroke="hsl(0.0,100%,35%)" stroke-width="0.00508"></path>
<path d="M1.033 0.541 Q1.038 0.494 0.948 0.481" stroke="hsl(0.0,100%,35%)" stroke-width="0.00508"></path>
<path d="M1.217 0.066 Q1.343 0.098 1.433 0.044" stroke="hsl(0.0,100%,35%)" stroke-width="0.01016"></path>
<path d="M1.217 0.066 Q0.946 0.394 1.527 0.598" stroke="hsl(0.0,100%,35%)" stroke-width="0.00508"></path>
<path d="M1.217 0.066 Q1.107 0.026 1.004 0.071" stroke="hsl(0.0,100%,35%)" stroke-width="0.00508"></path>
<path d="M1.217 0.066 Q1.301 0.070 1.328 0.030" stroke="hsl(0.0,100%,35%)" stroke-width="0.00508"></path>
<path d="M0.852 0.210 Q0.322 0.247 0.279 0.514" stroke="hsl(0.0,100%,35%)" stroke-width="0.00508"></path>
<path d="M0.852 0.210 Q0.749 0.265 0.834 0.327" stroke="hsl(0.0,100%,35%)" stroke-width="0.01524"></path>
<path d="M0.852 0.210 Q0.835 0.284 0.977 0.309" stroke="hsl(0.0,100%,35%)" stroke-width="0.00508"></path>
<path d="M0.852 0.210 Q0.961 0.153 0.874 0.087" stroke="hsl(0.0,100%,35%)" stroke-width="0.01016"></path>
<path d="M0.852 0.210 Q0.722 0.219 0.710 0.284" stroke="hsl(0.0,100%,35%)" stroke-width="0.00508"></path>
<path d="M0.852 0.210 Q0.721 0.512 1.282 0.641" stroke="hsl(0.0,100%,35%)" stroke-width="0.00508"></path>
<path d="M0.852 0.210 Q0.920 0.271 1.053 0.251" stroke="hsl(0.0,100%,35%)" stroke-width="0.00508"></path>
<path d="M0.441 0.626 Q0.969 0.767 1.360 0.541" stroke="hsl(120.0,100%,35%)" stroke-width="0.00508"></path>
<path d="M0.441 0.626 Q0.535 0.676 0.653 0.642" stroke="hsl(120.0,100%,35%)" stroke-width="0.00508"></path>
<path d="M0.441 0.626 Q0.445 0.650 0.491 0.653" stroke="hsl(120.0,100%,35%)" stroke-width="0.00508"></path>
<path d="M0.384 0.761 Q0.474 0.807 0.583 0.773" stroke="hsl(120.0,100%,35%)" stroke-width="0.01524"></path>
<path d="M0.384 0.761 Q0.529 0.616 0.279 0.514" stroke="hsl(120.0,100%,35%)" stroke-width="0.00508"></path>
<path d="M0.384 0.761 Q0.285 0.816 0.370 0.876" stroke="hsl(120.0,100%,35%)" stroke-width="0.02540"></path>
<path d="M0.279 0.514 Q0.163 0.476 0.065 0.524" stroke="hsl(120.0,100%,35%)" stroke-width="0.01016"></path>
<path d="M0.279 0.514 Q0.217 0.563 0.300 0.604" stroke="hsl(120.0,100%,35%)" stroke-width="0.00508"></path>
<path d="M0.279 0.514 Q0.223 0.704 0.583 0.773" stroke="hsl(120.0,100%,35%)" stroke-width="0.01016"></path>
<path d="M0.279 0.514 Q0.170 0.468 0.058 0.511" stroke="hsl(120.0,100%,35%)" stroke-width="0.00508"></path>
<path d="M1.887 0.119 Q1.848 0.164 1.928 0.194" stroke="hsl(180.0,100%,35%)" stroke-width="0.00508"></path>
<path d="M1.887 0.119 Q1.889 0.074 1.801 0.063" stroke="hsl(180.0,100%,35%)" stroke-width="0.00508"></path>
<path d="M1.887 0.119 Q1.839 0.119 1.829 0.143" stroke="hsl(180.0,100%,35%)" stroke-width="0.00508"></path>
<path d="M0.549 0.175 Q0.562 0.124 0.466 0.107" stroke="hsl(120.0,100%,35%)" stroke-width="0.01016"></path>
<path d="M0.549 0.175 Q0.638 0.120 0.552 0.065" stroke="hsl(120.0,100%,35%)" stroke-width="0.00508"></path>
<path d="M0.549 0.175 Q0.462 0.195 0.483 0.241" stroke="hsl(120.0,100%,35%)" stroke-width="0.01524"></path>
<path d="M0.549 0.175 Q0.088 0.480 0.583 0.773" stroke="hsl(120.0,100%,35%)" stroke-width="0.00508"></path>
<path d="M0.620 0.272 Q0.646 0.269 0.647 0.256" stroke="hsl(0.0,100%,35%)" stroke-width="0.00508"></path>
<path d="M0.620 0.272 Q0.844 0.432 1.207 0.358" stroke="hsl(0.0,100%,35%)" stroke-width="0.00508"></path>
<path d="M0.620 0.272 Q0.663 0.257 0.643 0.233" stroke="hsl(0.0,100%,35%)" stroke-width="0.00508"></path>
<path d="M1.848 0.519 Q0.952 0.165 0.065 0.524" stroke="hsl(60.0,100%,35%)" stroke-width="0.00508"></path>
<path d="M1.848 0.519 Q1.706 0.553 1.742 0.630" stroke="hsl(60.0,100%,35%)" stroke-width="0.04064"></path>
<path d="M1.848 0.519 Q1.062 0.314 0.491 0.653" stroke="hsl(60.0,100%,35%)" stroke-width="0.00508"></path>
<path d="M1.848 0.519 Q1.854 0.430 1.683 0.408" stroke="hsl(60.0,100%,35%)" stroke-width="0.00508"></path>
<path d="M1.862 0.721 Q1.959 0.698 1.936 0.646" stroke="hsl(120.0,100%,35%)" stroke-width="0.00508"></path>
<path d="M1.862 0.721 Q1.842 0.580 1.562 0.558" stroke="hsl(120.0,100%,35%)" stroke-width="0.00508"></path>
<path d="M1.862 0.721 Q1.236 0.301 0.279 0.514" stroke="hsl(120.0,100%,35%)" stroke-width="0.00508"></path>
<path d="M1.862 0.721 Q1.890 0.739 1.931 0.729" stroke="hsl(120.0,100%,35%)" stroke-width="0.00508"></path>
<path d="M1.562 0.558 Q1.610 0.718 1.931 0.729" stroke="hsl(120.0,100%,35%)" stroke-width="0.00508"></path>
<path d="M1.562 0.558 Q1.276 0.184 0.483 0.241" stroke="hsl(120.0,100%,35%)" stroke-width="0.00508"></path>
<path d="M1.562 0.558 Q1.475 0.509 1.360 0.541" stroke="hsl(120.0,100%,35%)" stroke-width="0.00508"></path>
<path d="M1.237 0.167 Q1.172 0.223 1.267 0.266" stroke="hsl(0.0,100%,35%)" stroke-width="0.00508"></path>
<path d="M1.237 0.167 Q1.204 0.125 1.116 0.132" stroke="hsl(0.0,100%,35%)" stroke-width="0.00508"></path>
<path d="M1.237 0.167 Q1.069 0.256 1.207 0.358" stroke="hsl(0.0,100%,35%)" stroke-width="0.00508"></path>
<path d="M1.237 0.167 Q1.007 0.515 1.637 0.704" stroke="hsl(0.0,100%,35%)" stroke-width="0.00508"></path>
<path d="M1.688 0.077 Q0.951 0.456 1.528 0.899" stroke="hsl(0.0,100%,35%)" stroke-width="0.00508"></path>
<path d="M1.688 0.077 Q1.587 0.009 1.433 0.044" stroke="hsl(0.0,100%,35%)" stroke-width="0.00508"></path>
<path d="M1.688 0.077 Q1.606 0.114 1.661 0.163" stroke="hsl(0.0,100%,35%)" stroke-width="0.00508"></path>
<path d="M0.535 0.567 Q0.449 0.489 0.279 0.514" stroke="hsl(120.0,100%,35%)" stroke-width="0.01016"></path>
<path d="M0.535 0.567 Q0.604 0.575 0.635 0.543" stroke="hsl(120.0,100%,35%)" stroke-width="0.01016"></path>
<path d="M0.535 0.567 Q0.685 0.569 0.722 0.496" stroke="hsl(120.0,100%,35%)" stroke-width="0.00508"></path>
<path d="M0.808 0.598 Q0.929 0.671 1.097 0.628" stroke="hsl(0.0,100%,35%)" stroke-width="0.00508"></path>
<path d="M0.808 0.598 Q0.853 0.548 0.765 0.516" stroke="hsl(0.0,100%,35%)" stroke-width="0.00508"></path>
<path d="M0.808 0.598 Q0.745 0.872 1.266 0.963" stroke="hsl(0.0,100%,35%)" stroke-width="0.00508"></path>
<path d="M0.808 0.598 Q0.733 0.638 0.793 0.683" stroke="hsl(0.0,100%,35%)" stroke-width="0.00508"></path>
<path d="M0.808 0.598 Q1.010 0.715 1.282 0.641" stroke="hsl(0.0,100%,35%)" stroke-width="0.00508"></path>
<path d="M0.497 0.380 Q0.356 0.338 0.245 0.398" stroke="hsl(120.0,100%,35%)" stroke-width="0.00508"></path>
<path d="M0.497 0.380 Q0.281 0.403 0.279 0.514" stroke="hsl(120.0,100%,35%)" stroke-width="0.01016"></path>
<path d="M0.497 0.380 Q0.661 0.375 0.688 0.294" stroke="hsl(120.0,100%,35%)" stroke-width="0.01016"></path>
<path d="M0.497 0.380 Q0.547 0.438 0.671 0.426" stroke="hsl(120.0,100%,35%)" stroke-width="0.02032"></path>
<path d="M0.497 0.380 Q0.420 0.427 0.497 0.475" stroke="hsl(120.0,100%,35%)" stroke-width="0.02032"></path>
<path d="M0.497 0.380 Q0.617 0.389 0.661 0.332" stroke="hsl(120.0,100%,35%)" stroke-width="0.00508"></path>
<path d="M0.497 0.380 Q0.566 0.238 0.306 0.174" stroke="hsl(120.0,100%,35%)" stroke-width="0.00508"></path>
<path d="M0.907 0.985 Q1.033 0.992 1.074 0.932" stroke="hsl(0.0,100%,35%)" stroke-width="0.01016"></path>
<path d="M0.907 0.985 Q1.483 0.661 0.977 0.309" stroke="hsl(0.0,100%,35%)" stroke-width="0.00508"></path>
<path d="M0.907 0.985 Q0.950 1.010 1.009 0.995" stroke="hsl(0.0,100%,35%)" stroke-width="0.00508"></path>
<path d="M0.899 0.405 Q1.031 0.298 0.852 0.210" stroke="hsl(0.0,100%,35%)" stroke-width="0.00508"></path>
<path d="M0.899 0.405 Q0.997 0.427 1.060 0.384" stroke="hsl(0.0,100%,35%)" stroke-width="0.00508"></path>
<path d="M0.899 0.405 Q0.387 0.298 0.065 0.524" stroke="hsl(0.0,100%,35%)" stroke-width="0.00508"></path>
<path d="M0.899 0.405 Q0.929 0.353 0.834 0.327" stroke="hsl(0.0,100%,35%)" stroke-width="0.01524"></path>
<path d="M1.370 0.877 Q1.454 0.920 1.557 0.889" stroke="hsl(0.0,100%,35%)" stroke-width="0.00508"></path>
<path d="M1.370 0.877 Q1.358 0.860 1.321 0.862" stroke="hsl(0.0,100%,35%)" stroke-width="0.00508"></path>
<path d="M1.370 0.877 Q1.432 0.919 1.528 0.899" stroke="hsl(0.0,100%,35%)" stroke-width="0.00508"></path>
<path d="M1.120 0.823 Q1.010 0.868 1.074 0.932" stroke="hsl(0.0,100%,35%)" stroke-width="0.01016"></path>
<path d="M1.120 0.823 Q1.081 0.923 1.266 0.963" stroke="hsl(0.0,100%,35%)" stroke-width="0.00508"></path>
<path d="M1.120 0.823 Q1.536 0.608 1.207 0.358" stroke="hsl(0.0,100%,35%)" stroke-width="0.00508"></path>
<path d="M0.278 0.250 Q0.252 0.204 0.157 0.207" stroke="hsl(0.0,100%,35%)" stroke-width="0.00508"></path>
<path d="M0.278 0.250 Q0.366 0.231 0.348 0.184" stroke="hsl(0.0,100%,35%)" stroke-width="0.00508"></path>
<path d="M0.278 0.250 Q0.353 0.217 0.306 0.174" stroke="hsl(0.0,100%,35%)" stroke-width="0.00508"></path>
<path d="M1.482 0.992 Q1.851 0.620 1.207 0.358" stroke="hsl(0.0,100%,35%)" stroke-width="0.00508"></path>
<path d="M1.482 0.992 Q1.485 0.983 1.469 0.980" stroke="hsl(0.0,100%,35%)" stroke-width="0.00508"></path>
<path d="M1.482 0.992 Q1.765 0.980 1.805 0.840" stroke="hsl(0.0,100%,35%)" stroke-width="0.00508"></path>
<path d="M1.482 0.992 Q1.396 0.934 1.266 0.963" stroke="hsl(0.0,100%,35%)" stroke-width="0.00508"></path>
<path d="M0.208 0.095 Q0.307 0.105 0.347 0.059" stroke="hsl(240.0,100%,35%)" stroke-width="0.00508"></path>
<path d="M0.208 0.095 Q0.140 0.093 0.120 0.126" stroke="hsl(240.0,100%,35%)" stroke-width="0.00508"></path>
<path d="M0.208 0.095 Q0.286 0.103 0.319 0.067" stroke="hsl(240.0,100%,35%)" stroke-width="0.00508"></path>
<path d="M0.077 0.277 Q0.007 0.339 0.113 0.387" stroke="hsl(300.0,100%,35%)" stroke-width="0.00508"></path>
<path d="M0.077 0.277 Q-0.007 0.323 0.065 0.375" stroke="hsl(300.0,100%,35%)" stroke-width="0.00508"></path>
<path d="M0.077 0.277 Q0.115 0.308 0.184 0.296" stroke="hsl(300.0,100%,35%)" stroke-width="0.00508"></path>
<path d="M1.515 0.215 Q1.588 0.157 1.491 0.109" stroke="hsl(0.0,100%,35%)" stroke-width="0.01016"></path>
<path d="M1.515 0.215 Q0.792 0.539 1.266 0.963" stroke="hsl(0.0,100%,35%)" stroke-width="0.00508"></path>
<path d="M1.515 0.215 Q1.630 0.218 1.661 0.163" stroke="hsl(0.0,100%,35%)" stroke-width="0.01016"></path>
<path d="M1.515 0.215 Q1.388 0.277 1.480 0.352" stroke="hsl(0.0,100%,35%)" stroke-width="0.01016"></path>
<path d="M1.491 0.109 Q1.418 0.167 1.515 0.215" stroke="hsl(0.0,100%,35%)" stroke-width="0.00508"></path>
<path d="M1.491 0.109 Q0.960 0.333 1.282 0.641" stroke="hsl(0.0,100%,35%)" stroke-width="0.00508"></path>
<path d="M1.491 0.109 Q1.291 0.228 1.480 0.352" stroke="hsl(0.0,100%,35%)" stroke-width="0.00508"></path>
<path d="M1.313 0.754 Q1.244 0.786 1.291 0.827" stroke="hsl(120.0,100%,35%)" stroke-width="0.00508"></path>
<path d="M1.313 0.754 Q0.933 0.617 0.583 0.773" stroke="hsl(120.0,100%,35%)" stroke-width="0.00508"></path>
<path d="M1.313 0.754 Q1.402 0.820 1.551 0.791" stroke="hsl(120.0,100%,35%)" stroke-width="0.00508"></path>
<path d="M1.313 0.754 Q1.269 0.719 1.190 0.732" stroke="hsl(120.0,100%,35%)" stroke-width="0.00508"></path>
<path d="M0.040 0.662 Q0.150 0.666 0.184 0.614" stroke="hsl(0.0,100%,35%)" stroke-width="0.01016"></path>
<path d="M0.040 0.662 Q0.412 1.058 1.266 0.963" stroke="hsl(0.0,100%,35%)" stroke-width="0.00508"></path>
<path d="M0.040 0.662 Q-0.059 0.756 0.104 0.825" stroke="hsl(0.0,100%,35%)" stroke-width="0.00508"></path>
<path d="M0.892 0.804 Q0.786 0.834 0.823 0.893" stroke="hsl(120.0,100%,35%)" stroke-width="0.03556"></path>
<path d="M0.892 0.804 Q0.817 0.536 0.279 0.514" stroke="hsl(120.0,100%,35%)" stroke-width="0.01016"></path>
<path d="M0.892 0.804 Q0.672 0.681 0.384 0.761" stroke="hsl(120.0,100%,35%)" stroke-width="0.00508"></path>
<path d="M1.422 0.443 Q1.524 0.409 1.480 0.352" stroke="hsl(0.0,100%,35%)" stroke-width="0.01016"></path>
<path d="M1.422 0.443 Q1.208 0.643 1.551 0.791" stroke="hsl(0.0,100%,35%)" stroke-width="0.00508"></path>
<path d="M1.422 0.443 Q1.766 0.350 1.661 0.163" stroke="hsl(0.0,100%,35%)" stroke-width="0.00508"></path>
<path d="M1.422 0.443 Q1.331 0.447 1.320 0.493" stroke="hsl(0.0,100%,35%)" stroke-width="0.00508"></path>
<path d="M1.422 0.443 Q1.312 0.480 1.360 0.541" stroke="hsl(0.0,100%,35%)" stroke-width="0.00508"></path>
<path d="M1.422 0.443 Q0.794 0.249 0.279 0.514" stroke="hsl(0.0,100%,35%)" stroke-width="0.00508"></path>
<path d="M1.422 0.443 Q1.419 0.487 1.505 0.499" stroke="hsl(0.0,100%,35%)" stroke-width="0.00508"></path>
<path d="M1.422 0.443 Q1.297 0.439 1.262 0.499" stroke="hsl(0.0,100%,35%)" stroke-width="0.00508"></path>
<path d="M1.422 0.443 Q0.916 0.437 0.793 0.683" stroke="hsl(0.0,100%,35%)" stroke-width="0.00508"></path>
<path d="M0.677 0.099 Q1.099 0.222 1.433 0.044" stroke="hsl(0.0,100%,35%)" stroke-width="0.00508"></path>
<path d="M0.677 0.099 Q0.784 0.132 0.874 0.087" stroke="hsl(0.0,100%,35%)" stroke-width="0.01016"></path>
<path d="M0.677 0.099 Q0.681 0.066 0.618 0.057" stroke="hsl(0.0,100%,35%)" stroke-width="0.00508"></path>
</g>
<text x="1.487" y="0.562" font-size="0.016258" fill="hsl(0.0,100%,20%)">ajuma</text>
<text x="1.497" y="0.639" font-size="0.009386" fill="hsl(0.0,100%,20%)">rohitrao</text>
<text x="1.527" y="0.592" font-size="0.013274" fill="hsl(0.0,100%,20%)">liberato</text>
<text x="1.282" y="0.629" font-size="0.024834" fill="hsl(0.0,100%,20%)">dtapuska</text>
<text x="0.145" y="0.894" font-size="0.020989" fill="hsl(0.0,100%,20%)">aleventhal</text>
<text x="0.191" y="0.843" font-size="0.013274" fill="hsl(0.0,100%,20%)">mschillaci</text>
<text x="0.104" y="0.816" font-size="0.018773" fill="hsl(0.0,100%,20%)">chrishtr</text>
<text x="0.166" y="0.921" font-size="0.009386" fill="hsl(0.0,100%,20%)">dtseng</text>
<text x="1.168" y="0.443" font-size="0.016258" fill="hsl(0.0,100%,20%)">alexis.menard</text>
<text x="1.053" y="0.238" font-size="0.024834" fill="hsl(0.0,100%,20%)">bokan</text>
<text x="1.200" y="0.463" font-size="0.009386" fill="hsl(0.0,100%,20%)">boliu</text>
<text x="1.207" y="0.348" font-size="0.020989" fill="hsl(0.0,100%,20%)">dcheng</text>
<text x="1.750" y="0.268" font-size="0.033843" fill="hsl(60.0,100%,20%)">andruud</text>
<text x="1.683" y="0.391" font-size="0.033843" fill="hsl(60.0,100%,20%)">futhark</text>
<text x="0.370" y="0.864" font-size="0.022992" fill="hsl(120.0,100%,20%)">sakhapov</text>
<text x="1.515" y="0.686" font-size="0.018773" fill="hsl(60.0,100%,20%)">mstensho</text>
<text x="1.650" y="0.963" font-size="0.016258" fill="hsl(0.0,100%,20%)">andypaicu</text>
<text x="1.457" y="0.907" font-size="0.009386" fill="hsl(0.0,100%,20%)">dgn</text>
<text x="1.793" y="0.953" font-size="0.009386" fill="hsl(0.0,100%,20%)">engedy</text>
<text x="1.551" y="0.778" font-size="0.024834" fill="hsl(0.0,100%,20%)">masonf</text>
<text x="1.805" y="0.826" font-size="0.026549" fill="hsl(0.0,100%,20%)">asully</text>
<text x="1.756" y="0.921" font-size="0.016258" fill="hsl(0.0,100%,20%)">ningxin.hu</text>
<text x="1.557" y="0.882" font-size="0.013274" fill="hsl(0.0,100%,20%)">ajgo</text>
<text x="1.912" y="0.773" font-size="0.009386" fill="hsl(0.0,100%,20%)">phillis</text>
<text x="1.044" y="0.661" font-size="0.026549" fill="hsl(0.0,100%,20%)">davidben</text>
<text x="1.074" y="0.921" font-size="0.020989" fill="hsl(0.0,100%,20%)">jbroman</text>
<text x="1.033" y="0.529" font-size="0.022992" fill="hsl(0.0,100%,20%)">bewise</text>
<text x="0.157" y="0.200" font-size="0.013274" fill="hsl(0.0,100%,20%)">morlovich</text>
<text x="0.814" y="0.481" font-size="0.009386" fill="hsl(0.0,100%,20%)">fdoray</text>
<text x="1.126" y="0.568" font-size="0.009386" fill="hsl(0.0,100%,20%)">kenrb</text>
<text x="1.251" y="0.525" font-size="0.009386" fill="hsl(0.0,100%,20%)">dschinazi</text>
<text x="0.948" y="0.476" font-size="0.009386" fill="hsl(0.0,100%,20%)">dullweber</text>
<text x="1.217" y="0.055" font-size="0.020989" fill="hsl(0.0,100%,20%)">blundell</text>
<text x="1.433" y="0.034" font-size="0.018773" fill="hsl(0.0,100%,20%)">haraken</text>
<text x="1.004" y="0.066" font-size="0.009386" fill="hsl(0.0,100%,20%)">kylechar</text>
<text x="1.328" y="0.025" font-size="0.009386" fill="hsl(0.0,100%,20%)">vasilyt</text>
<text x="0.834" y="0.314" font-size="0.026549" fill="hsl(0.0,100%,20%)">vmpstr</text>
<text x="0.852" y="0.194" font-size="0.032516" fill="hsl(0.0,100%,20%)">khushalsagar</text>
<text x="1.267" y="0.258" font-size="0.016258" fill="hsl(0.0,100%,20%)">danakj</text>
<text x="0.441" y="0.618" font-size="0.016258" fill="hsl(120.0,100%,20%)">clchambers</text>
<text x="1.360" y="0.533" font-size="0.016258" fill="hsl(120.0,100%,20%)">flackr</text>
<text x="0.653" y="0.637" font-size="0.009386" fill="hsl(120.0,100%,20%)">sahir.vellani</text>
<text x="0.491" y="0.646" font-size="0.013274" fill="hsl(60.0,100%,20%)">kevers</text>
<text x="1.113" y="0.757" font-size="0.009386" fill="hsl(0.0,100%,20%)">mmenke</text>
<text x="0.943" y="0.631" font-size="0.009386" fill="hsl(0.0,100%,20%)">dschuff</text>
<text x="1.154" y="0.600" font-size="0.009386" fill="hsl(0.0,100%,20%)">crisrael</text>
<text x="0.905" y="0.697" font-size="0.009386" fill="hsl(0.0,100%,20%)">dsv</text>
<text x="1.084" y="0.767" font-size="0.009386" fill="hsl(0.0,100%,20%)">mfoltz</text>
<text x="0.916" y="0.649" font-size="0.009386" fill="hsl(0.0,100%,20%)">tsepez</text>
<text x="0.384" y="0.745" font-size="0.031131" fill="hsl(120.0,100%,20%)">dbaron</text>
<text x="0.583" y="0.760" font-size="0.024834" fill="hsl(120.0,100%,20%)">ikilpatrick</text>
<text x="0.279" y="0.495" font-size="0.037546" fill="hsl(120.0,100%,20%)">wangxianzhu</text>
<text x="1.887" y="0.111" font-size="0.016258" fill="hsl(180.0,100%,20%)">ellyjones</text>
<text x="1.928" y="0.189" font-size="0.009386" fill="hsl(180.0,100%,20%)">mpdenton</text>
<text x="1.801" y="0.058" font-size="0.009386" fill="hsl(180.0,100%,20%)">bryantchandler</text>
<text x="1.829" y="0.138" font-size="0.009386" fill="hsl(180.0,100%,20%)">guidou</text>
<text x="0.549" y="0.162" font-size="0.024834" fill="hsl(120.0,100%,20%)">ethavar</text>
<text x="0.466" y="0.100" font-size="0.013274" fill="hsl(60.0,100%,20%)">benjamin.beaudry</text>
<text x="0.552" y="0.060" font-size="0.009386" fill="hsl(60.0,100%,20%)">sammc</text>
<text x="0.483" y="0.232" font-size="0.018773" fill="hsl(120.0,100%,20%)">almaher</text>
<text x="0.620" y="0.264" font-size="0.016258" fill="hsl(0.0,100%,20%)">ffred</text>
<text x="0.647" y="0.252" font-size="0.009386" fill="hsl(0.0,100%,20%)">rbpotter</text>
<text x="0.643" y="0.228" font-size="0.009386" fill="hsl(0.0,100%,20%)">avi</text>
<text x="1.848" y="0.503" font-size="0.031131" fill="hsl(60.0,100%,20%)">fs</text>
<text x="0.065" y="0.515" font-size="0.018773" fill="hsl(120.0,100%,20%)">szager</text>
<text x="1.742" y="0.617" font-size="0.026549" fill="hsl(60.0,100%,20%)">schenney</text>
<text x="1.862" y="0.712" font-size="0.018773" fill="hsl(120.0,100%,20%)">gastonr</text>
<text x="1.936" y="0.641" font-size="0.009386" fill="hsl(120.0,100%,20%)">pkasting</text>
<text x="1.562" y="0.549" font-size="0.018773" fill="hsl(120.0,100%,20%)">yshalivskyy</text>
<text x="1.931" y="0.723" font-size="0.013274" fill="hsl(120.0,100%,20%)">gerchiko</text>
<text x="1.237" y="0.157" font-size="0.018773" fill="hsl(0.0,100%,20%)">greengrape</text>
<text x="1.116" y="0.127" font-size="0.009386" fill="hsl(0.0,100%,20%)">bmgordon</text>
<text x="1.637" y="0.698" font-size="0.013274" fill="hsl(0.0,100%,20%)">thestig</text>
<text x="1.688" y="0.069" font-size="0.016258" fill="hsl(0.0,100%,20%)">horo</text>
<text x="1.528" y="0.892" font-size="0.013274" fill="hsl(0.0,100%,20%)">cduvall</text>
<text x="1.661" y="0.153" font-size="0.018773" fill="hsl(0.0,100%,20%)">kouhei</text>
<text x="0.535" y="0.556" font-size="0.020989" fill="hsl(120.0,100%,20%)">jpgravel</text>
<text x="0.635" y="0.536" font-size="0.013274" fill="hsl(120.0,100%,20%)">yiyix</text>
<text x="0.722" y="0.491" font-size="0.009386" fill="hsl(120.0,100%,20%)">michaelludwig</text>
<text x="0.808" y="0.588" font-size="0.020989" fill="hsl(0.0,100%,20%)">kenoss</text>
<text x="1.097" y="0.623" font-size="0.009386" fill="hsl(0.0,100%,20%)">alexilin</text>
<text x="0.765" y="0.511" font-size="0.009386" fill="hsl(0.0,100%,20%)">mustaq</text>
<text x="1.266" y="0.953" font-size="0.020989" fill="hsl(0.0,100%,20%)">tkent</text>
<text x="0.793" y="0.676" font-size="0.013274" fill="hsl(0.0,100%,20%)">toyoshim</text>
<text x="0.977" y="0.302" font-size="0.013274" fill="hsl(0.0,100%,20%)">joenotcharles</text>
<text x="0.874" y="0.078" font-size="0.018773" fill="hsl(0.0,100%,20%)">rakina</text>
<text x="0.710" y="0.279" font-size="0.009386" fill="hsl(0.0,100%,20%)">tiszka</text>
<text x="0.497" y="0.361" font-size="0.036354" fill="hsl(120.0,100%,20%)">linnan</text>
<text x="0.245" y="0.393" font-size="0.009386" fill="hsl(120.0,100%,20%)">anthonygarant</text>
<text x="0.688" y="0.287" font-size="0.013274" fill="hsl(120.0,100%,20%)">alexrudenko</text>
<text x="0.671" y="0.417" font-size="0.018773" fill="hsl(120.0,100%,20%)">japhet</text>
<text x="0.497" y="0.466" font-size="0.018773" fill="hsl(120.0,100%,20%)">apaseltiner</text>
<text x="0.661" y="0.327" font-size="0.009386" fill="hsl(120.0,100%,20%)">bashi</text>
<text x="0.306" y="0.167" font-size="0.013274" fill="hsl(0.0,100%,20%)">dom</text>
<text x="1.360" y="0.780" font-size="0.009386" fill="hsl(0.0,100%,20%)">jarhar</text>
<text x="1.724" y="0.763" font-size="0.009386" fill="hsl(0.0,100%,20%)">dizhangg</text>
<text x="0.907" y="0.976" font-size="0.018773" fill="hsl(0.0,100%,20%)">mcnee</text>
<text x="1.009" y="0.990" font-size="0.009386" fill="hsl(0.0,100%,20%)">isaboori</text>
<text x="0.899" y="0.394" font-size="0.022992" fill="hsl(0.0,100%,20%)">nrosenthal</text>
<text x="1.060" y="0.379" font-size="0.009386" fill="hsl(0.0,100%,20%)">altimin</text>
<text x="1.370" y="0.869" font-size="0.016258" fill="hsl(0.0,100%,20%)">olivierli</text>
<text x="1.321" y="0.857" font-size="0.009386" fill="hsl(0.0,100%,20%)">vollick</text>
<text x="1.120" y="0.814" font-size="0.018773" fill="hsl(0.0,100%,20%)">pbos</text>
<text x="0.278" y="0.242" font-size="0.016258" fill="hsl(0.0,100%,20%)">qingxinwu</text>
<text x="0.348" y="0.179" font-size="0.009386" fill="hsl(60.0,100%,20%)">caraitto</text>
<text x="1.482" y="0.983" font-size="0.018773" fill="hsl(0.0,100%,20%)">rahsin</text>
<text x="1.469" y="0.975" font-size="0.009386" fill="hsl(0.0,100%,20%)">christinesm</text>
<text x="0.208" y="0.087" font-size="0.016258" fill="hsl(240.0,100%,20%)">shaobo.yan</text>
<text x="0.347" y="0.054" font-size="0.009386" fill="hsl(240.0,100%,20%)">junov</text>
<text x="0.120" y="0.121" font-size="0.009386" fill="hsl(240.0,100%,20%)">cwallez</text>
<text x="0.319" y="0.063" font-size="0.009386" fill="hsl(240.0,100%,20%)">sunnyps</text>
<text x="0.077" y="0.269" font-size="0.016258" fill="hsl(300.0,100%,20%)">silen</text>
<text x="0.113" y="0.382" font-size="0.009386" fill="hsl(300.0,100%,20%)">peah</text>
<text x="0.065" y="0.370" font-size="0.009386" fill="hsl(300.0,100%,20%)">saza</text>
<text x="0.184" y="0.292" font-size="0.009386" fill="hsl(300.0,100%,20%)">olka</text>
<text x="1.515" y="0.202" font-size="0.026549" fill="hsl(0.0,100%,20%)">sisidovski</text>
<text x="1.491" y="0.098" font-size="0.020989" fill="hsl(0.0,100%,20%)">yyanagisawa</text>
<text x="1.480" y="0.342" font-size="0.020989" fill="hsl(0.0,100%,20%)">chikamune</text>
<text x="1.313" y="0.745" font-size="0.018773" fill="hsl(120.0,100%,20%)">sky</text>
<text x="1.291" y="0.822" font-size="0.009386" fill="hsl(120.0,100%,20%)">csharrison</text>
<text x="1.190" y="0.728" font-size="0.009386" fill="hsl(120.0,100%,20%)">dalecurtis</text>
<text x="0.040" y="0.652" font-size="0.018773" fill="hsl(0.0,100%,20%)">snianu</text>
<text x="0.184" y="0.607" font-size="0.013274" fill="hsl(0.0,100%,20%)">sajos</text>
<text x="0.300" y="0.599" font-size="0.009386" fill="hsl(120.0,100%,20%)">jeffreycohen</text>
<text x="0.058" y="0.506" font-size="0.009386" fill="hsl(120.0,100%,20%)">jophba</text>
<text x="0.892" y="0.789" font-size="0.029683" fill="hsl(120.0,100%,20%)">weizhong</text>
<text x="0.823" y="0.880" font-size="0.024834" fill="hsl(120.0,100%,20%)">jonathanjlee</text>
<text x="1.422" y="0.428" font-size="0.029683" fill="hsl(0.0,100%,20%)">yoichio</text>
<text x="1.320" y="0.488" font-size="0.009386" fill="hsl(0.0,100%,20%)">alexnj</text>
<text x="1.505" y="0.494" font-size="0.009386" fill="hsl(0.0,100%,20%)">taiyo</text>
<text x="1.262" y="0.494" font-size="0.009386" fill="hsl(0.0,100%,20%)">nhiroki</text>
<text x="0.677" y="0.089" font-size="0.018773" fill="hsl(0.0,100%,20%)">yuzus</text>
<text x="0.618" y="0.053" font-size="0.009386" fill="hsl(0.0,100%,20%)">fergal</text>
</svg>
