<svg width="4000" height="2000" viewBox="-0.025 -0.025 2.05 1.05" xmlns="http://www.w3.org/2000/svg">
  <style>
    path {
      fill: none;
      stroke-linecap: round;
      stroke-opacity: 0.4;
    }

    text {
      text-anchor: middle;
      alignment-baseline: hanging;
    }
  </style>
  <g opacity="0.4">
<path d="M1.310 0.147 Q1.273 0.069 1.115 0.070" stroke="hsl(0.0,100%,35%)" stroke-width="0.00943"></path>
<path d="M1.310 0.147 Q1.239 0.074 1.081 0.092" stroke="hsl(0.0,100%,35%)" stroke-width="0.01415"></path>
<path d="M1.310 0.147 Q1.125 0.085 0.965 0.162" stroke="hsl(0.0,100%,35%)" stroke-width="0.00943"></path>
<path d="M1.310 0.147 Q1.395 0.102 1.327 0.051" stroke="hsl(0.0,100%,35%)" stroke-width="0.01887"></path>
<path d="M1.310 0.147 Q1.167 0.128 1.100 0.194" stroke="hsl(0.0,100%,35%)" stroke-width="0.00472"></path>
<path d="M1.310 0.147 Q0.469 0.492 0.959 0.977" stroke="hsl(0.0,100%,35%)" stroke-width="0.00472"></path>
<path d="M0.030 0.572 Q0.133 0.517 0.049 0.455" stroke="hsl(60.0,100%,35%)" stroke-width="0.00472"></path>
<path d="M0.030 0.572 Q0.053 0.556 0.027 0.541" stroke="hsl(60.0,100%,35%)" stroke-width="0.00472"></path>
<path d="M0.030 0.572 Q0.086 0.539 0.034 0.505" stroke="hsl(60.0,100%,35%)" stroke-width="0.00472"></path>
<path d="M1.340 0.619 Q1.319 0.301 0.695 0.242" stroke="hsl(120.0,100%,35%)" stroke-width="0.00472"></path>
<path d="M1.340 0.619 Q1.427 0.567 1.346 0.514" stroke="hsl(120.0,100%,35%)" stroke-width="0.00943"></path>
<path d="M1.340 0.619 Q0.529 0.499 0.118 0.868" stroke="hsl(120.0,100%,35%)" stroke-width="0.00472"></path>
<path d="M1.340 0.619 Q1.267 0.670 1.351 0.716" stroke="hsl(120.0,100%,35%)" stroke-width="0.00472"></path>
<path d="M1.340 0.619 Q1.351 0.606 1.328 0.598" stroke="hsl(120.0,100%,35%)" stroke-width="0.00472"></path>
<path d="M1.340 0.619 Q1.261 0.645 1.294 0.688" stroke="hsl(120.0,100%,35%)" stroke-width="0.00472"></path>
<path d="M1.346 0.514 Q1.198 0.477 1.094 0.540" stroke="hsl(120.0,100%,35%)" stroke-width="0.02358"></path>
<path d="M1.346 0.514 Q1.633 0.503 1.675 0.360" stroke="hsl(120.0,100%,35%)" stroke-width="0.01415"></path>
<path d="M1.346 0.514 Q1.578 0.448 1.501 0.321" stroke="hsl(120.0,100%,35%)" stroke-width="0.01415"></path>
<path d="M1.346 0.514 Q1.259 0.565 1.340 0.619" stroke="hsl(120.0,100%,35%)" stroke-width="0.00472"></path>
<path d="M0.647 0.787 Q1.015 0.375 0.293 0.105" stroke="hsl(0.0,100%,35%)" stroke-width="0.00472"></path>
<path d="M0.647 0.787 Q0.668 0.759 0.618 0.743" stroke="hsl(0.0,100%,35%)" stroke-width="0.00472"></path>
<path d="M0.647 0.787 Q1.491 0.599 1.310 0.147" stroke="hsl(0.0,100%,35%)" stroke-width="0.00472"></path>
<path d="M0.647 0.787 Q0.564 0.739 0.452 0.769" stroke="hsl(0.0,100%,35%)" stroke-width="0.00472"></path>
<path d="M0.519 0.307 Q0.606 0.356 0.721 0.325" stroke="hsl(60.0,100%,35%)" stroke-width="0.00472"></path>
<path d="M0.519 0.307 Q0.528 0.347 0.608 0.351" stroke="hsl(60.0,100%,35%)" stroke-width="0.00472"></path>
<path d="M0.519 0.307 Q0.427 0.325 0.442 0.373" stroke="hsl(60.0,100%,35%)" stroke-width="0.00472"></path>
<path d="M0.273 0.842 Q0.300 0.867 0.354 0.859" stroke="hsl(60.0,100%,35%)" stroke-width="0.00472"></path>
<path d="M0.273 0.842 Q0.175 0.824 0.118 0.868" stroke="hsl(60.0,100%,35%)" stroke-width="0.00943"></path>
<path d="M0.273 0.842 Q0.238 0.885 0.315 0.912" stroke="hsl(60.0,100%,35%)" stroke-width="0.00943"></path>
<path d="M0.273 0.842 Q0.184 0.901 0.279 0.957" stroke="hsl(60.0,100%,35%)" stroke-width="0.00472"></path>
<path d="M0.263 0.611 Q0.236 0.676 0.356 0.704" stroke="hsl(60.0,100%,35%)" stroke-width="0.00472"></path>
<path d="M0.263 0.611 Q0.287 0.673 0.413 0.675" stroke="hsl(60.0,100%,35%)" stroke-width="0.00472"></path>
<path d="M0.263 0.611 Q1.016 0.570 1.100 0.194" stroke="hsl(60.0,100%,35%)" stroke-width="0.00472"></path>
<path d="M0.263 0.611 Q0.363 0.586 0.336 0.532" stroke="hsl(60.0,100%,35%)" stroke-width="0.00472"></path>
<path d="M0.263 0.611 Q0.238 0.659 0.325 0.681" stroke="hsl(60.0,100%,35%)" stroke-width="0.00472"></path>
<path d="M0.263 0.611 Q0.272 0.535 0.125 0.513" stroke="hsl(60.0,100%,35%)" stroke-width="0.00472"></path>
<path d="M0.263 0.611 Q0.124 0.632 0.134 0.705" stroke="hsl(60.0,100%,35%)" stroke-width="0.00472"></path>
<path d="M0.263 0.611 Q0.435 0.653 0.554 0.578" stroke="hsl(60.0,100%,35%)" stroke-width="0.00472"></path>
<path d="M0.263 0.611 Q-0.015 0.711 0.118 0.868" stroke="hsl(60.0,100%,35%)" stroke-width="0.00472"></path>
<path d="M1.019 0.804 Q0.893 0.832 0.922 0.900" stroke="hsl(60.0,100%,35%)" stroke-width="0.00943"></path>
<path d="M1.019 0.804 Q0.850 0.879 0.959 0.977" stroke="hsl(60.0,100%,35%)" stroke-width="0.00943"></path>
<path d="M1.019 0.804 Q0.961 0.868 1.074 0.911" stroke="hsl(60.0,100%,35%)" stroke-width="0.00943"></path>
<path d="M1.019 0.804 Q1.121 0.815 1.165 0.768" stroke="hsl(60.0,100%,35%)" stroke-width="0.00472"></path>
<path d="M1.019 0.804 Q0.907 0.863 0.998 0.930" stroke="hsl(60.0,100%,35%)" stroke-width="0.00472"></path>
<path d="M0.946 0.268 Q1.041 0.154 0.840 0.083" stroke="hsl(0.0,100%,35%)" stroke-width="0.00472"></path>
<path d="M0.946 0.268 Q1.072 0.286 1.136 0.229" stroke="hsl(0.0,100%,35%)" stroke-width="0.00472"></path>
<path d="M0.946 0.268 Q0.726 0.126 0.401 0.202" stroke="hsl(0.0,100%,35%)" stroke-width="0.00472"></path>
<path d="M0.946 0.268 Q0.429 0.278 0.336 0.532" stroke="hsl(0.0,100%,35%)" stroke-width="0.00472"></path>
<path d="M0.946 0.268 Q0.827 0.260 0.784 0.316" stroke="hsl(0.0,100%,35%)" stroke-width="0.00472"></path>
<path d="M0.946 0.268 Q0.061 0.479 0.279 0.957" stroke="hsl(0.0,100%,35%)" stroke-width="0.00472"></path>
<path d="M0.840 0.083 Q0.812 0.589 1.794 0.714" stroke="hsl(0.0,100%,35%)" stroke-width="0.00472"></path>
<path d="M0.840 0.083 Q0.769 0.109 0.804 0.149" stroke="hsl(0.0,100%,35%)" stroke-width="0.00472"></path>
<path d="M0.840 0.083 Q0.866 0.040 0.788 0.018" stroke="hsl(0.0,100%,35%)" stroke-width="0.00472"></path>
<path d="M0.840 0.083 Q0.956 0.109 1.032 0.059" stroke="hsl(0.0,100%,35%)" stroke-width="0.00472"></path>
<path d="M0.840 0.083 Q0.827 0.031 0.723 0.026" stroke="hsl(0.0,100%,35%)" stroke-width="0.00472"></path>
<path d="M0.086 0.193 Q0.023 0.368 0.350 0.437" stroke="hsl(0.0,100%,35%)" stroke-width="0.00472"></path>
<path d="M0.086 0.193 Q0.118 0.263 0.262 0.263" stroke="hsl(0.0,100%,35%)" stroke-width="0.00472"></path>
<path d="M0.086 0.193 Q0.260 0.191 0.293 0.105" stroke="hsl(0.0,100%,35%)" stroke-width="0.00943"></path>
<path d="M0.086 0.193 Q0.130 0.221 0.193 0.205" stroke="hsl(0.0,100%,35%)" stroke-width="0.00472"></path>
<path d="M0.086 0.193 Q0.036 0.236 0.109 0.270" stroke="hsl(0.0,100%,35%)" stroke-width="0.00472"></path>
<path d="M0.086 0.193 Q0.214 0.225 0.305 0.170" stroke="hsl(0.0,100%,35%)" stroke-width="0.00943"></path>
<path d="M0.086 0.193 Q0.278 0.188 0.311 0.093" stroke="hsl(0.0,100%,35%)" stroke-width="0.00472"></path>
<path d="M0.086 0.193 Q0.461 0.715 1.561 0.646" stroke="hsl(0.0,100%,35%)" stroke-width="0.00472"></path>
<path d="M0.086 0.193 Q0.092 0.171 0.050 0.164" stroke="hsl(0.0,100%,35%)" stroke-width="0.00472"></path>
<path d="M0.086 0.193 Q0.191 0.153 0.135 0.092" stroke="hsl(0.0,100%,35%)" stroke-width="0.00943"></path>
<path d="M0.086 0.193 Q0.237 0.260 0.401 0.202" stroke="hsl(0.0,100%,35%)" stroke-width="0.00472"></path>
<path d="M1.675 0.360 Q1.619 0.306 1.501 0.321" stroke="hsl(120.0,100%,35%)" stroke-width="0.03302"></path>
<path d="M1.675 0.360 Q1.732 0.273 1.575 0.227" stroke="hsl(120.0,100%,35%)" stroke-width="0.00472"></path>
<path d="M1.675 0.360 Q1.240 0.334 1.094 0.540" stroke="hsl(120.0,100%,35%)" stroke-width="0.00943"></path>
<path d="M1.675 0.360 Q1.388 0.371 1.346 0.514" stroke="hsl(120.0,100%,35%)" stroke-width="0.01415"></path>
<path d="M1.501 0.321 Q1.269 0.386 1.346 0.514" stroke="hsl(120.0,100%,35%)" stroke-width="0.00943"></path>
<path d="M1.501 0.321 Q1.451 0.355 1.506 0.387" stroke="hsl(120.0,100%,35%)" stroke-width="0.00943"></path>
<path d="M1.501 0.321 Q1.556 0.375 1.675 0.360" stroke="hsl(120.0,100%,35%)" stroke-width="0.01887"></path>
<path d="M1.501 0.321 Q1.508 0.376 1.617 0.385" stroke="hsl(120.0,100%,35%)" stroke-width="0.00472"></path>
<path d="M1.271 0.831 Q1.379 0.868 1.476 0.823" stroke="hsl(180.0,100%,35%)" stroke-width="0.00943"></path>
<path d="M1.271 0.831 Q1.398 0.791 1.349 0.721" stroke="hsl(180.0,100%,35%)" stroke-width="0.00472"></path>
<path d="M1.271 0.831 Q0.673 0.695 0.279 0.957" stroke="hsl(180.0,100%,35%)" stroke-width="0.00472"></path>
<path d="M1.271 0.831 Q1.466 0.916 1.676 0.840" stroke="hsl(180.0,100%,35%)" stroke-width="0.00472"></path>
<path d="M1.271 0.831 Q1.424 0.976 1.740 0.933" stroke="hsl(180.0,100%,35%)" stroke-width="0.00472"></path>
<path d="M1.476 0.823 Q1.562 0.872 1.676 0.840" stroke="hsl(180.0,100%,35%)" stroke-width="0.01415"></path>
<path d="M1.476 0.823 Q1.520 0.931 1.740 0.933" stroke="hsl(180.0,100%,35%)" stroke-width="0.00943"></path>
<path d="M1.476 0.823 Q1.524 0.739 1.372 0.697" stroke="hsl(180.0,100%,35%)" stroke-width="0.00472"></path>
<path d="M1.676 0.840 Q1.590 0.791 1.476 0.823" stroke="hsl(180.0,100%,35%)" stroke-width="0.00943"></path>
<path d="M1.676 0.840 Q1.634 0.899 1.740 0.933" stroke="hsl(180.0,100%,35%)" stroke-width="0.01887"></path>
<path d="M1.676 0.840 Q1.588 0.864 1.615 0.912" stroke="hsl(180.0,100%,35%)" stroke-width="0.00943"></path>
<path d="M1.721 0.554 Q1.730 0.494 1.615 0.477" stroke="hsl(0.0,100%,35%)" stroke-width="0.00472"></path>
<path d="M1.721 0.554 Q1.629 0.649 1.794 0.714" stroke="hsl(0.0,100%,35%)" stroke-width="0.00472"></path>
<path d="M1.721 0.554 Q1.567 0.568 1.561 0.646" stroke="hsl(0.0,100%,35%)" stroke-width="0.00472"></path>
<path d="M1.721 0.554 Q1.599 0.576 1.615 0.640" stroke="hsl(0.0,100%,35%)" stroke-width="0.01415"></path>
<path d="M1.721 0.554 Q1.548 0.620 1.640 0.719" stroke="hsl(0.0,100%,35%)" stroke-width="0.00472"></path>
<path d="M1.077 0.353 Q1.128 0.350 1.132 0.324" stroke="hsl(0.0,100%,35%)" stroke-width="0.00472"></path>
<path d="M1.077 0.353 Q1.174 0.236 0.965 0.162" stroke="hsl(0.0,100%,35%)" stroke-width="0.00472"></path>
<path d="M1.077 0.353 Q1.067 0.388 1.132 0.400" stroke="hsl(0.0,100%,35%)" stroke-width="0.00472"></path>
<path d="M1.077 0.353 Q0.860 0.142 0.401 0.202" stroke="hsl(0.0,100%,35%)" stroke-width="0.00472"></path>
<path d="M1.904 0.180 Q1.959 0.134 1.882 0.097" stroke="hsl(0.0,100%,35%)" stroke-width="0.00472"></path>
<path d="M1.904 0.180 Q1.938 0.152 1.892 0.129" stroke="hsl(0.0,100%,35%)" stroke-width="0.00472"></path>
<path d="M1.904 0.180 Q1.833 0.159 1.778 0.189" stroke="hsl(0.0,100%,35%)" stroke-width="0.00472"></path>
<path d="M1.904 0.180 Q1.894 0.203 1.938 0.213" stroke="hsl(0.0,100%,35%)" stroke-width="0.00472"></path>
<path d="M1.354 0.953 Q1.280 0.931 1.219 0.962" stroke="hsl(0.0,100%,35%)" stroke-width="0.00943"></path>
<path d="M1.354 0.953 Q1.331 0.882 1.187 0.878" stroke="hsl(0.0,100%,35%)" stroke-width="0.00472"></path>
<path d="M1.354 0.953 Q1.386 0.891 1.272 0.861" stroke="hsl(0.0,100%,35%)" stroke-width="0.00472"></path>
<path d="M1.354 0.953 Q1.430 1.001 1.540 0.975" stroke="hsl(0.0,100%,35%)" stroke-width="0.00472"></path>
<path d="M1.354 0.953 Q2.257 0.573 1.713 0.049" stroke="hsl(0.0,100%,35%)" stroke-width="0.00472"></path>
<path d="M1.354 0.953 Q1.213 0.923 1.124 0.985" stroke="hsl(0.0,100%,35%)" stroke-width="0.00472"></path>
<path d="M1.354 0.953 Q1.405 0.906 1.324 0.871" stroke="hsl(0.0,100%,35%)" stroke-width="0.00472"></path>
<path d="M1.618 0.127 Q1.563 0.124 1.544 0.150" stroke="hsl(0.0,100%,35%)" stroke-width="0.00943"></path>
<path d="M1.618 0.127 Q1.728 0.107 1.713 0.049" stroke="hsl(0.0,100%,35%)" stroke-width="0.01415"></path>
<path d="M1.618 0.127 Q1.381 0.128 1.331 0.244" stroke="hsl(0.0,100%,35%)" stroke-width="0.00943"></path>
<path d="M1.618 0.127 Q1.635 0.163 1.709 0.163" stroke="hsl(0.0,100%,35%)" stroke-width="0.00472"></path>
<path d="M1.618 0.127 Q1.649 0.190 1.778 0.189" stroke="hsl(0.0,100%,35%)" stroke-width="0.00943"></path>
<path d="M1.618 0.127 Q1.514 0.135 1.505 0.187" stroke="hsl(0.0,100%,35%)" stroke-width="0.00472"></path>
<path d="M1.331 0.244 Q1.568 0.243 1.618 0.127" stroke="hsl(0.0,100%,35%)" stroke-width="0.00472"></path>
<path d="M1.331 0.244 Q1.275 0.230 1.235 0.254" stroke="hsl(0.0,100%,35%)" stroke-width="0.00472"></path>
<path d="M1.331 0.244 Q1.107 0.282 1.132 0.400" stroke="hsl(0.0,100%,35%)" stroke-width="0.00472"></path>
<path d="M1.231 0.289 Q1.013 0.654 1.676 0.840" stroke="hsl(180.0,100%,35%)" stroke-width="0.00472"></path>
<path d="M1.231 0.289 Q1.165 0.343 1.256 0.387" stroke="hsl(180.0,100%,35%)" stroke-width="0.00943"></path>
<path d="M1.231 0.289 Q0.870 0.196 0.608 0.351" stroke="hsl(180.0,100%,35%)" stroke-width="0.00472"></path>
<path d="M0.390 0.723 Q0.347 0.716 0.324 0.735" stroke="hsl(240.0,100%,35%)" stroke-width="0.00472"></path>
<path d="M0.390 0.723 Q0.380 0.709 0.350 0.710" stroke="hsl(240.0,100%,35%)" stroke-width="0.00472"></path>
<path d="M0.390 0.723 Q0.341 0.782 0.445 0.819" stroke="hsl(240.0,100%,35%)" stroke-width="0.00472"></path>
<path d="M0.843 0.749 Q0.879 0.710 0.810 0.684" stroke="hsl(180.0,100%,35%)" stroke-width="0.00472"></path>
<path d="M0.843 0.749 Q1.187 0.961 1.676 0.840" stroke="hsl(180.0,100%,35%)" stroke-width="0.00472"></path>
<path d="M0.843 0.749 Q1.100 0.913 1.476 0.823" stroke="hsl(180.0,100%,35%)" stroke-width="0.00472"></path>
<path d="M0.843 0.749 Q0.735 0.701 0.618 0.743" stroke="hsl(180.0,100%,35%)" stroke-width="0.00472"></path>
<path d="M0.078 0.752 Q0.459 0.537 0.124 0.304" stroke="hsl(60.0,100%,35%)" stroke-width="0.00472"></path>
<path d="M0.078 0.752 Q0.099 0.790 0.178 0.788" stroke="hsl(60.0,100%,35%)" stroke-width="0.00943"></path>
<path d="M0.078 0.752 Q0.158 0.790 0.251 0.760" stroke="hsl(60.0,100%,35%)" stroke-width="0.00472"></path>
<path d="M0.078 0.752 Q0.144 0.740 0.134 0.705" stroke="hsl(60.0,100%,35%)" stroke-width="0.00943"></path>
<path d="M0.124 0.304 Q0.806 0.385 1.115 0.070" stroke="hsl(60.0,100%,35%)" stroke-width="0.00472"></path>
<path d="M0.124 0.304 Q0.108 0.365 0.224 0.386" stroke="hsl(60.0,100%,35%)" stroke-width="0.00472"></path>
<path d="M0.124 0.304 Q0.233 0.365 0.375 0.325" stroke="hsl(60.0,100%,35%)" stroke-width="0.00472"></path>
<path d="M0.591 0.670 Q0.870 0.397 0.401 0.202" stroke="hsl(0.0,100%,35%)" stroke-width="0.00472"></path>
<path d="M0.591 0.670 Q0.705 0.661 0.714 0.604" stroke="hsl(0.0,100%,35%)" stroke-width="0.00943"></path>
<path d="M0.591 0.670 Q0.657 0.505 0.350 0.437" stroke="hsl(0.0,100%,35%)" stroke-width="0.00472"></path>
<path d="M0.591 0.670 Q0.637 0.589 0.489 0.548" stroke="hsl(0.0,100%,35%)" stroke-width="0.00943"></path>
<path d="M0.591 0.670 Q0.600 0.608 0.482 0.590" stroke="hsl(0.0,100%,35%)" stroke-width="0.00472"></path>
<path d="M0.487 0.983 Q1.197 1.149 1.676 0.840" stroke="hsl(180.0,100%,35%)" stroke-width="0.00472"></path>
<path d="M0.487 0.983 Q0.514 0.943 0.442 0.921" stroke="hsl(180.0,100%,35%)" stroke-width="0.00472"></path>
<path d="M0.487 0.983 Q0.566 1.020 0.655 0.990" stroke="hsl(180.0,100%,35%)" stroke-width="0.00472"></path>
<path d="M0.553 0.470 Q0.655 0.453 0.646 0.400" stroke="hsl(60.0,100%,35%)" stroke-width="0.00472"></path>
<path d="M0.553 0.470 Q0.458 0.496 0.489 0.548" stroke="hsl(60.0,100%,35%)" stroke-width="0.00943"></path>
<path d="M0.553 0.470 Q0.571 0.522 0.677 0.525" stroke="hsl(60.0,100%,35%)" stroke-width="0.00472"></path>
<path d="M0.553 0.470 Q0.478 0.412 0.350 0.437" stroke="hsl(60.0,100%,35%)" stroke-width="0.00943"></path>
<path d="M0.420 0.295 Q0.374 0.301 0.375 0.325" stroke="hsl(60.0,100%,35%)" stroke-width="0.00472"></path>
<path d="M0.420 0.295 Q0.361 0.255 0.271 0.275" stroke="hsl(60.0,100%,35%)" stroke-width="0.00472"></path>
<path d="M0.420 0.295 Q0.372 0.330 0.430 0.362" stroke="hsl(60.0,100%,35%)" stroke-width="0.00472"></path>
<path d="M0.509 0.039 Q0.531 0.054 0.565 0.047" stroke="hsl(120.0,100%,35%)" stroke-width="0.00943"></path>
<path d="M0.509 0.039 Q0.400 0.407 1.094 0.540" stroke="hsl(120.0,100%,35%)" stroke-width="0.00472"></path>
<path d="M0.509 0.039 Q0.730 0.412 1.506 0.387" stroke="hsl(120.0,100%,35%)" stroke-width="0.00472"></path>
<path d="M0.844 0.375 Q0.876 0.278 0.695 0.242" stroke="hsl(60.0,100%,35%)" stroke-width="0.00472"></path>
<path d="M0.844 0.375 Q0.787 0.365 0.756 0.391" stroke="hsl(60.0,100%,35%)" stroke-width="0.00472"></path>
<path d="M0.844 0.375 Q0.898 0.414 0.987 0.397" stroke="hsl(60.0,100%,35%)" stroke-width="0.00472"></path>
<path d="M0.866 0.487 Q0.966 0.479 0.973 0.429" stroke="hsl(300.0,100%,35%)" stroke-width="0.00472"></path>
<path d="M0.866 0.487 Q1.001 0.513 1.081 0.453" stroke="hsl(300.0,100%,35%)" stroke-width="0.01415"></path>
<path d="M0.866 0.487 Q0.753 0.508 0.770 0.568" stroke="hsl(300.0,100%,35%)" stroke-width="0.00472"></path>
<path d="M0.866 0.487 Q0.807 0.558 0.934 0.603" stroke="hsl(300.0,100%,35%)" stroke-width="0.00472"></path>
<path d="M0.866 0.487 Q0.828 0.428 0.706 0.434" stroke="hsl(300.0,100%,35%)" stroke-width="0.00472"></path>
<path d="M0.866 0.487 Q0.976 0.448 0.925 0.386" stroke="hsl(300.0,100%,35%)" stroke-width="0.00472"></path>
<path d="M0.064 0.391 Q0.500 0.443 0.695 0.242" stroke="hsl(60.0,100%,35%)" stroke-width="0.00472"></path>
<path d="M0.064 0.391 Q0.006 0.420 0.049 0.455" stroke="hsl(60.0,100%,35%)" stroke-width="0.00472"></path>
<path d="M0.064 0.391 Q0.164 0.359 0.124 0.304" stroke="hsl(60.0,100%,35%)" stroke-width="0.00472"></path>
<path d="M0.225 0.492 Q0.199 0.456 0.123 0.460" stroke="hsl(0.0,100%,35%)" stroke-width="0.00472"></path>
<path d="M0.225 0.492 Q1.128 0.492 1.327 0.051" stroke="hsl(0.0,100%,35%)" stroke-width="0.00472"></path>
<path d="M0.225 0.492 Q0.789 0.437 0.804 0.149" stroke="hsl(0.0,100%,35%)" stroke-width="0.00472"></path>
<path d="M1.272 0.373 Q1.641 0.319 1.618 0.127" stroke="hsl(180.0,100%,35%)" stroke-width="0.00472"></path>
<path d="M1.272 0.373 Q1.253 0.377 1.256 0.387" stroke="hsl(180.0,100%,35%)" stroke-width="0.00472"></path>
<path d="M1.272 0.373 Q0.470 0.558 0.655 0.990" stroke="hsl(180.0,100%,35%)" stroke-width="0.00472"></path>
<path d="M1.951 0.374 Q1.980 0.343 1.926 0.322" stroke="hsl(0.0,100%,35%)" stroke-width="0.00472"></path>
<path d="M1.951 0.374 Q2.056 0.309 1.951 0.243" stroke="hsl(0.0,100%,35%)" stroke-width="0.00472"></path>
<path d="M1.951 0.374 Q1.785 0.368 1.737 0.448" stroke="hsl(0.0,100%,35%)" stroke-width="0.00472"></path>
<path d="M1.951 0.374 Q1.938 0.374 1.934 0.380" stroke="hsl(0.0,100%,35%)" stroke-width="0.00472"></path>
<path d="M1.951 0.374 Q1.885 0.418 1.957 0.460" stroke="hsl(0.0,100%,35%)" stroke-width="0.00472"></path>
<path d="M1.951 0.374 Q1.984 0.306 1.858 0.274" stroke="hsl(0.0,100%,35%)" stroke-width="0.00472"></path>
<path d="M1.466 0.428 Q0.884 0.591 1.074 0.911" stroke="hsl(60.0,100%,35%)" stroke-width="0.00472"></path>
<path d="M1.466 0.428 Q1.497 0.431 1.508 0.416" stroke="hsl(60.0,100%,35%)" stroke-width="0.00472"></path>
<path d="M1.466 0.428 Q1.471 0.404 1.425 0.396" stroke="hsl(60.0,100%,35%)" stroke-width="0.00472"></path>
<path d="M0.612 0.165 Q0.461 0.257 0.608 0.351" stroke="hsl(60.0,100%,35%)" stroke-width="0.00472"></path>
<path d="M0.612 0.165 Q0.477 0.141 0.401 0.202" stroke="hsl(60.0,100%,35%)" stroke-width="0.00472"></path>
<path d="M0.612 0.165 Q0.833 0.277 1.100 0.194" stroke="hsl(60.0,100%,35%)" stroke-width="0.00472"></path>
<path d="M0.612 0.165 Q0.193 0.625 0.998 0.930" stroke="hsl(60.0,100%,35%)" stroke-width="0.00472"></path>
<path d="M0.612 0.165 Q0.592 0.220 0.695 0.242" stroke="hsl(60.0,100%,35%)" stroke-width="0.00472"></path>
<path d="M0.612 0.165 Q-0.198 0.418 0.118 0.868" stroke="hsl(60.0,100%,35%)" stroke-width="0.00472"></path>
<path d="M0.794 0.870 Q0.690 0.891 0.710 0.947" stroke="hsl(0.0,100%,35%)" stroke-width="0.01887"></path>
<path d="M0.794 0.870 Q0.786 0.799 0.647 0.787" stroke="hsl(0.0,100%,35%)" stroke-width="0.01415"></path>
<path d="M0.794 0.870 Q1.603 0.847 1.737 0.448" stroke="hsl(0.0,100%,35%)" stroke-width="0.00472"></path>
<path d="M0.794 0.870 Q1.351 0.599 0.946 0.268" stroke="hsl(0.0,100%,35%)" stroke-width="0.00943"></path>
<path d="M1.063 0.665 Q1.771 0.507 1.618 0.127" stroke="hsl(0.0,100%,35%)" stroke-width="0.00943"></path>
<path d="M1.063 0.665 Q1.178 0.609 1.094 0.540" stroke="hsl(0.0,100%,35%)" stroke-width="0.01415"></path>
<path d="M1.063 0.665 Q1.230 0.875 1.676 0.840" stroke="hsl(0.0,100%,35%)" stroke-width="0.00472"></path>
<path d="M1.063 0.665 Q1.143 0.827 1.476 0.823" stroke="hsl(0.0,100%,35%)" stroke-width="0.00472"></path>
<path d="M1.063 0.665 Q1.404 0.278 0.723 0.026" stroke="hsl(0.0,100%,35%)" stroke-width="0.00472"></path>
<path d="M1.941 0.585 Q1.856 0.526 1.721 0.554" stroke="hsl(0.0,100%,35%)" stroke-width="0.00943"></path>
<path d="M1.941 0.585 Q1.766 0.603 1.762 0.692" stroke="hsl(0.0,100%,35%)" stroke-width="0.00472"></path>
<path d="M1.941 0.585 Q1.353 0.652 1.354 0.953" stroke="hsl(0.0,100%,35%)" stroke-width="0.00472"></path>
</g>
<text x="1.310" y="0.130" font-size="0.032263" fill="hsl(0.0,100%,20%)">aleventhal</text>
<text x="1.115" y="0.063" font-size="0.014935" fill="hsl(0.0,100%,20%)">dtseng</text>
<text x="1.081" y="0.085" font-size="0.014935" fill="hsl(0.0,100%,20%)">mschillaci</text>
<text x="0.965" y="0.155" font-size="0.014935" fill="hsl(0.0,100%,20%)">benjamin.beaudry</text>
<text x="1.327" y="0.041" font-size="0.019281" fill="hsl(0.0,100%,20%)">chrishtr</text>
<text x="1.100" y="0.186" font-size="0.014935" fill="hsl(60.0,100%,20%)">joenotcharles</text>
<text x="0.959" y="0.970" font-size="0.014935" fill="hsl(60.0,100%,20%)">haraken</text>
<text x="0.030" y="0.565" font-size="0.014935" fill="hsl(60.0,100%,20%)">alexmitra</text>
<text x="0.049" y="0.449" font-size="0.012194" fill="hsl(60.0,100%,20%)">flackr</text>
<text x="0.027" y="0.537" font-size="0.008623" fill="hsl(60.0,100%,20%)">mahesh.ma</text>
<text x="0.034" y="0.501" font-size="0.008623" fill="hsl(60.0,100%,20%)">hiroshige</text>
<text x="1.340" y="0.607" font-size="0.024388" fill="hsl(120.0,100%,20%)">alexnj</text>
<text x="0.695" y="0.233" font-size="0.017245" fill="hsl(60.0,100%,20%)">iclelland</text>
<text x="1.346" y="0.495" font-size="0.037585" fill="hsl(120.0,100%,20%)">chikamune</text>
<text x="0.118" y="0.859" font-size="0.019281" fill="hsl(60.0,100%,20%)">japhet</text>
<text x="1.351" y="0.712" font-size="0.008623" fill="hsl(120.0,100%,20%)">sullivan</text>
<text x="1.328" y="0.594" font-size="0.008623" fill="hsl(120.0,100%,20%)">wfh</text>
<text x="1.294" y="0.684" font-size="0.008623" fill="hsl(120.0,100%,20%)">kenoss</text>
<text x="0.647" y="0.776" font-size="0.022813" fill="hsl(0.0,100%,20%)">alexrudenko</text>
<text x="0.293" y="0.098" font-size="0.014935" fill="hsl(0.0,100%,20%)">alexmos</text>
<text x="0.618" y="0.737" font-size="0.012194" fill="hsl(180.0,100%,20%)">schwering</text>
<text x="0.452" y="0.765" font-size="0.008623" fill="hsl(0.0,100%,20%)">kinuko</text>
<text x="0.519" y="0.299" font-size="0.014935" fill="hsl(60.0,100%,20%)">alice</text>
<text x="0.721" y="0.320" font-size="0.008623" fill="hsl(60.0,100%,20%)">rego</text>
<text x="0.608" y="0.344" font-size="0.014935" fill="hsl(180.0,100%,20%)">yukishiino</text>
<text x="0.442" y="0.369" font-size="0.008623" fill="hsl(60.0,100%,20%)">schenney</text>
<text x="0.273" y="0.832" font-size="0.021121" fill="hsl(60.0,100%,20%)">anthonygarant</text>
<text x="0.354" y="0.855" font-size="0.008623" fill="hsl(60.0,100%,20%)">apaseltiner</text>
<text x="0.315" y="0.906" font-size="0.012194" fill="hsl(60.0,100%,20%)">linnan</text>
<text x="0.279" y="0.950" font-size="0.014935" fill="hsl(60.0,100%,20%)">dom</text>
<text x="0.263" y="0.598" font-size="0.025868" fill="hsl(60.0,100%,20%)">arichiv</text>
<text x="0.356" y="0.699" font-size="0.008623" fill="hsl(60.0,100%,20%)">asamidoi</text>
<text x="0.413" y="0.671" font-size="0.008623" fill="hsl(60.0,100%,20%)">dullweber</text>
<text x="0.336" y="0.526" font-size="0.012194" fill="hsl(60.0,100%,20%)">bashi</text>
<text x="0.325" y="0.677" font-size="0.008623" fill="hsl(60.0,100%,20%)">avi</text>
<text x="0.125" y="0.509" font-size="0.008623" fill="hsl(60.0,100%,20%)">miketaylr</text>
<text x="0.134" y="0.697" font-size="0.014935" fill="hsl(60.0,100%,20%)">weizhong</text>
<text x="0.554" y="0.574" font-size="0.008623" fill="hsl(60.0,100%,20%)">yrsun</text>
<text x="1.019" y="0.792" font-size="0.024388" fill="hsl(60.0,100%,20%)">beaufort.francois</text>
<text x="0.922" y="0.894" font-size="0.012194" fill="hsl(60.0,100%,20%)">arthursonzogni</text>
<text x="1.074" y="0.903" font-size="0.014935" fill="hsl(60.0,100%,20%)">kainino</text>
<text x="1.165" y="0.763" font-size="0.008623" fill="hsl(60.0,100%,20%)">eladalon</text>
<text x="0.998" y="0.924" font-size="0.012194" fill="hsl(60.0,100%,20%)">deleted</text>
<text x="0.946" y="0.256" font-size="0.024388" fill="hsl(0.0,100%,20%)">bingler</text>
<text x="0.840" y="0.072" font-size="0.021121" fill="hsl(0.0,100%,20%)">boliu</text>
<text x="1.136" y="0.225" font-size="0.008623" fill="hsl(0.0,100%,20%)">sdefresne</text>
<text x="0.401" y="0.192" font-size="0.019281" fill="hsl(60.0,100%,20%)">dcheng</text>
<text x="0.784" y="0.312" font-size="0.008623" fill="hsl(0.0,100%,20%)">blundell</text>
<text x="1.794" y="0.708" font-size="0.012194" fill="hsl(0.0,100%,20%)">ccameron</text>
<text x="0.804" y="0.143" font-size="0.012194" fill="hsl(0.0,100%,20%)">fserb</text>
<text x="0.788" y="0.014" font-size="0.008623" fill="hsl(0.0,100%,20%)">petermcneeley</text>
<text x="1.032" y="0.054" font-size="0.008623" fill="hsl(0.0,100%,20%)">vasilyt</text>
<text x="0.723" y="0.020" font-size="0.012194" fill="hsl(0.0,100%,20%)">jpgravel</text>
<text x="0.086" y="0.177" font-size="0.032263" fill="hsl(0.0,100%,20%)">bryantchandler</text>
<text x="0.350" y="0.428" font-size="0.017245" fill="hsl(0.0,100%,20%)">reillyg</text>
<text x="0.262" y="0.259" font-size="0.008623" fill="hsl(0.0,100%,20%)">twellington</text>
<text x="0.193" y="0.201" font-size="0.008623" fill="hsl(0.0,100%,20%)">petewil</text>
<text x="0.109" y="0.266" font-size="0.008623" fill="hsl(0.0,100%,20%)">ntfschr</text>
<text x="0.305" y="0.164" font-size="0.012194" fill="hsl(0.0,100%,20%)">bookholt</text>
<text x="0.311" y="0.089" font-size="0.008623" fill="hsl(0.0,100%,20%)">zijiehe</text>
<text x="1.561" y="0.640" font-size="0.012194" fill="hsl(0.0,100%,20%)">tguilbert</text>
<text x="0.050" y="0.160" font-size="0.008623" fill="hsl(0.0,100%,20%)">seantopping</text>
<text x="0.135" y="0.086" font-size="0.012194" fill="hsl(0.0,100%,20%)">guidou</text>
<text x="1.094" y="0.526" font-size="0.028598" fill="hsl(120.0,100%,20%)">kouhei</text>
<text x="1.675" y="0.341" font-size="0.038561" fill="hsl(120.0,100%,20%)">sisidovski</text>
<text x="1.501" y="0.302" font-size="0.037585" fill="hsl(120.0,100%,20%)">yyanagisawa</text>
<text x="1.271" y="0.820" font-size="0.021121" fill="hsl(180.0,100%,20%)">chromium</text>
<text x="1.476" y="0.808" font-size="0.029870" fill="hsl(180.0,100%,20%)">jarhar</text>
<text x="1.349" y="0.716" font-size="0.008623" fill="hsl(180.0,100%,20%)">lwarlow</text>
<text x="1.676" y="0.823" font-size="0.034490" fill="hsl(180.0,100%,20%)">masonf</text>
<text x="1.740" y="0.921" font-size="0.022813" fill="hsl(180.0,100%,20%)">dbaron</text>
<text x="1.721" y="0.541" font-size="0.025868" fill="hsl(0.0,100%,20%)">dalecurtis</text>
<text x="1.615" y="0.472" font-size="0.008623" fill="hsl(0.0,100%,20%)">sandersd</text>
<text x="1.615" y="0.633" font-size="0.014935" fill="hsl(0.0,100%,20%)">eugene</text>
<text x="1.640" y="0.715" font-size="0.008623" fill="hsl(0.0,100%,20%)">ilnik</text>
<text x="1.077" y="0.345" font-size="0.017245" fill="hsl(0.0,100%,20%)">evelynn.kaplan</text>
<text x="1.132" y="0.319" font-size="0.008623" fill="hsl(0.0,100%,20%)">battre</text>
<text x="1.132" y="0.394" font-size="0.012194" fill="hsl(0.0,100%,20%)">almaher</text>
<text x="1.904" y="0.171" font-size="0.017245" fill="hsl(0.0,100%,20%)">gastonr</text>
<text x="1.882" y="0.093" font-size="0.008623" fill="hsl(0.0,100%,20%)">yshalivskyy</text>
<text x="1.892" y="0.125" font-size="0.008623" fill="hsl(0.0,100%,20%)">pkasting</text>
<text x="1.778" y="0.182" font-size="0.014935" fill="hsl(0.0,100%,20%)">wangxianzhu</text>
<text x="1.938" y="0.209" font-size="0.008623" fill="hsl(0.0,100%,20%)">gerchiko</text>
<text x="1.354" y="0.940" font-size="0.025868" fill="hsl(0.0,100%,20%)">hiroh</text>
<text x="1.219" y="0.955" font-size="0.012194" fill="hsl(0.0,100%,20%)">hbos</text>
<text x="1.187" y="0.874" font-size="0.008623" fill="hsl(0.0,100%,20%)">fangzhoug</text>
<text x="1.272" y="0.857" font-size="0.008623" fill="hsl(0.0,100%,20%)">jophba</text>
<text x="1.540" y="0.970" font-size="0.008623" fill="hsl(0.0,100%,20%)">chenjih</text>
<text x="1.713" y="0.040" font-size="0.017245" fill="hsl(0.0,100%,20%)">drott</text>
<text x="1.124" y="0.981" font-size="0.008623" fill="hsl(0.0,100%,20%)">joedow</text>
<text x="1.324" y="0.867" font-size="0.008623" fill="hsl(0.0,100%,20%)">jcliang</text>
<text x="1.618" y="0.111" font-size="0.033395" fill="hsl(0.0,100%,20%)">ikilpatrick</text>
<text x="1.544" y="0.144" font-size="0.012194" fill="hsl(0.0,100%,20%)">kojii</text>
<text x="1.331" y="0.235" font-size="0.019281" fill="hsl(0.0,100%,20%)">kschmi</text>
<text x="1.709" y="0.159" font-size="0.008623" fill="hsl(0.0,100%,20%)">mstensho</text>
<text x="1.505" y="0.183" font-size="0.008623" fill="hsl(0.0,100%,20%)">fs</text>
<text x="1.231" y="0.281" font-size="0.017245" fill="hsl(180.0,100%,20%)">ishell</text>
<text x="1.256" y="0.380" font-size="0.014935" fill="hsl(180.0,100%,20%)">mlippautz</text>
<text x="1.372" y="0.693" font-size="0.008623" fill="hsl(180.0,100%,20%)">smcgruer</text>
<text x="0.390" y="0.715" font-size="0.014935" fill="hsl(240.0,100%,20%)">jec</text>
<text x="0.324" y="0.730" font-size="0.008623" fill="hsl(240.0,100%,20%)">pfaffe</text>
<text x="0.350" y="0.706" font-size="0.008623" fill="hsl(240.0,100%,20%)">changhaohan</text>
<text x="0.445" y="0.814" font-size="0.008623" fill="hsl(240.0,100%,20%)">bmeurer</text>
<text x="0.843" y="0.740" font-size="0.017245" fill="hsl(180.0,100%,20%)">jkeitel</text>
<text x="0.810" y="0.679" font-size="0.008623" fill="hsl(180.0,100%,20%)">mkwst</text>
<text x="0.078" y="0.742" font-size="0.021121" fill="hsl(60.0,100%,20%)">jonathanjlee</text>
<text x="0.124" y="0.294" font-size="0.019281" fill="hsl(60.0,100%,20%)">kevers</text>
<text x="0.178" y="0.782" font-size="0.012194" fill="hsl(60.0,100%,20%)">jiesheng</text>
<text x="0.251" y="0.755" font-size="0.008623" fill="hsl(60.0,100%,20%)">awogbemila</text>
<text x="0.591" y="0.658" font-size="0.022813" fill="hsl(0.0,100%,20%)">junwei.fu</text>
<text x="0.714" y="0.598" font-size="0.012194" fill="hsl(0.0,100%,20%)">qjw</text>
<text x="0.489" y="0.540" font-size="0.017245" fill="hsl(0.0,100%,20%)">ningxin.hu</text>
<text x="0.482" y="0.586" font-size="0.008623" fill="hsl(60.0,100%,20%)">amoylan</text>
<text x="0.487" y="0.976" font-size="0.014935" fill="hsl(180.0,100%,20%)">kbabbitt</text>
<text x="0.442" y="0.917" font-size="0.008623" fill="hsl(180.0,100%,20%)">sesse</text>
<text x="0.655" y="0.983" font-size="0.012194" fill="hsl(180.0,100%,20%)">andruud</text>
<text x="0.224" y="0.381" font-size="0.008623" fill="hsl(60.0,100%,20%)">szager</text>
<text x="0.375" y="0.318" font-size="0.012194" fill="hsl(60.0,100%,20%)">aaronhk</text>
<text x="1.235" y="0.250" font-size="0.008623" fill="hsl(0.0,100%,20%)">ethavar</text>
<text x="0.553" y="0.459" font-size="0.021121" fill="hsl(60.0,100%,20%)">lisha.guo</text>
<text x="0.646" y="0.396" font-size="0.008623" fill="hsl(0.0,100%,20%)">ajgo</text>
<text x="0.677" y="0.521" font-size="0.008623" fill="hsl(60.0,100%,20%)">rafael.cintron</text>
<text x="0.420" y="0.288" font-size="0.014935" fill="hsl(60.0,100%,20%)">lizeb</text>
<text x="0.271" y="0.271" font-size="0.008623" fill="hsl(60.0,100%,20%)">vollick</text>
<text x="0.430" y="0.358" font-size="0.008623" fill="hsl(60.0,100%,20%)">jonross</text>
<text x="1.615" y="0.906" font-size="0.012194" fill="hsl(180.0,100%,20%)">dizhangg</text>
<text x="0.509" y="0.031" font-size="0.017245" fill="hsl(120.0,100%,20%)">mkurumi</text>
<text x="0.565" y="0.041" font-size="0.012194" fill="hsl(120.0,100%,20%)">rakina</text>
<text x="1.506" y="0.379" font-size="0.014935" fill="hsl(120.0,100%,20%)">toyoshim</text>
<text x="0.844" y="0.367" font-size="0.014935" fill="hsl(60.0,100%,20%)">mmocny</text>
<text x="0.756" y="0.387" font-size="0.008623" fill="hsl(60.0,100%,20%)">zuoaoyuan</text>
<text x="0.987" y="0.392" font-size="0.008623" fill="hsl(60.0,100%,20%)">cbiesinger</text>
<text x="0.866" y="0.475" font-size="0.024388" fill="hsl(300.0,100%,20%)">morlovich</text>
<text x="0.973" y="0.425" font-size="0.008623" fill="hsl(300.0,100%,20%)">rsesek</text>
<text x="1.081" y="0.445" font-size="0.014935" fill="hsl(300.0,100%,20%)">behamilton</text>
<text x="0.770" y="0.564" font-size="0.008623" fill="hsl(300.0,100%,20%)">mmenke</text>
<text x="0.934" y="0.599" font-size="0.008623" fill="hsl(300.0,100%,20%)">danakj</text>
<text x="0.706" y="0.430" font-size="0.008623" fill="hsl(300.0,100%,20%)">caraitto</text>
<text x="0.925" y="0.382" font-size="0.008623" fill="hsl(300.0,100%,20%)">tiszka</text>
<text x="0.064" y="0.384" font-size="0.014935" fill="hsl(60.0,100%,20%)">mustaq</text>
<text x="0.225" y="0.485" font-size="0.014935" fill="hsl(0.0,100%,20%)">nrosenthal</text>
<text x="0.123" y="0.456" font-size="0.008623" fill="hsl(0.0,100%,20%)">vmpstr</text>
<text x="1.272" y="0.365" font-size="0.014935" fill="hsl(180.0,100%,20%)">omerkatz</text>
<text x="1.951" y="0.364" font-size="0.021121" fill="hsl(0.0,100%,20%)">ryankalla</text>
<text x="1.926" y="0.317" font-size="0.008623" fill="hsl(0.0,100%,20%)">dfried</text>
<text x="1.951" y="0.239" font-size="0.008623" fill="hsl(0.0,100%,20%)">rkaplow</text>
<text x="1.737" y="0.441" font-size="0.012194" fill="hsl(0.0,100%,20%)">dylancutler</text>
<text x="1.934" y="0.375" font-size="0.008623" fill="hsl(0.0,100%,20%)">jbroman</text>
<text x="1.957" y="0.456" font-size="0.008623" fill="hsl(0.0,100%,20%)">johnidel</text>
<text x="1.858" y="0.270" font-size="0.008623" fill="hsl(0.0,100%,20%)">johannhof</text>
<text x="1.466" y="0.421" font-size="0.014935" fill="hsl(60.0,100%,20%)">shaobo.yan</text>
<text x="1.508" y="0.412" font-size="0.008623" fill="hsl(60.0,100%,20%)">enga</text>
<text x="1.425" y="0.391" font-size="0.008623" fill="hsl(0.0,100%,20%)">junov</text>
<text x="0.612" y="0.155" font-size="0.021121" fill="hsl(60.0,100%,20%)">shaseley</text>
<text x="0.794" y="0.856" font-size="0.027267" fill="hsl(0.0,100%,20%)">shuuran</text>
<text x="0.710" y="0.938" font-size="0.017245" fill="hsl(0.0,100%,20%)">dsv</text>
<text x="1.575" y="0.222" font-size="0.008623" fill="hsl(120.0,100%,20%)">tkent</text>
<text x="1.063" y="0.653" font-size="0.024388" fill="hsl(0.0,100%,20%)">sky</text>
<text x="1.941" y="0.577" font-size="0.017245" fill="hsl(0.0,100%,20%)">sunggch</text>
<text x="1.762" y="0.688" font-size="0.008623" fill="hsl(0.0,100%,20%)">liberato</text>
<text x="1.617" y="0.380" font-size="0.008623" fill="hsl(120.0,100%,20%)">nhiroki</text>
</svg>
