<svg width="4000" height="2000" viewBox="-0.025 -0.025 2.05 1.05" xmlns="http://www.w3.org/2000/svg">
  <style>
    path {
      fill: none;
      stroke-linecap: round;
      stroke-opacity: 0.4;
    }

    text {
      text-anchor: middle;
      alignment-baseline: hanging;
    }
  </style>
  <g opacity="0.4">
<path d="M0.043 0.517 Q-0.027 0.582 0.084 0.630" stroke="hsl(0.0,100%,35%)" stroke-width="0.00824"></path>
<path d="M0.043 0.517 Q-0.053 0.586 0.059 0.647" stroke="hsl(0.0,100%,35%)" stroke-width="0.00824"></path>
<path d="M0.043 0.517 Q0.145 0.463 0.061 0.402" stroke="hsl(0.0,100%,35%)" stroke-width="0.00824"></path>
<path d="M1.282 0.324 Q1.112 0.612 1.637 0.759" stroke="hsl(45.0,100%,35%)" stroke-width="0.01648"></path>
<path d="M1.282 0.324 Q1.363 0.217 1.173 0.154" stroke="hsl(45.0,100%,35%)" stroke-width="0.01648"></path>
<path d="M1.282 0.324 Q1.150 0.377 1.225 0.453" stroke="hsl(45.0,100%,35%)" stroke-width="0.00824"></path>
<path d="M1.637 0.759 Q1.796 0.716 1.748 0.629" stroke="hsl(45.0,100%,35%)" stroke-width="0.00824"></path>
<path d="M1.637 0.759 Q1.678 0.653 1.479 0.609" stroke="hsl(45.0,100%,35%)" stroke-width="0.00824"></path>
<path d="M1.637 0.759 Q1.675 0.523 1.225 0.453" stroke="hsl(45.0,100%,35%)" stroke-width="0.00824"></path>
<path d="M1.637 0.759 Q1.807 0.470 1.282 0.324" stroke="hsl(45.0,100%,35%)" stroke-width="0.00824"></path>
<path d="M1.231 0.963 Q1.768 0.654 1.282 0.324" stroke="hsl(90.0,100%,35%)" stroke-width="0.00824"></path>
<path d="M1.231 0.963 Q1.531 0.580 0.850 0.350" stroke="hsl(90.0,100%,35%)" stroke-width="0.00824"></path>
<path d="M1.231 0.963 Q1.348 0.918 1.286 0.851" stroke="hsl(90.0,100%,35%)" stroke-width="0.00824"></path>
<path d="M1.231 0.963 Q1.114 0.923 1.010 0.972" stroke="hsl(90.0,100%,35%)" stroke-width="0.00824"></path>
<path d="M1.231 0.963 Q1.359 1.015 1.490 0.965" stroke="hsl(90.0,100%,35%)" stroke-width="0.00824"></path>
<path d="M0.823 0.421 Q0.852 0.476 0.966 0.474" stroke="hsl(90.0,100%,35%)" stroke-width="0.01648"></path>
<path d="M0.823 0.421 Q0.962 0.572 1.287 0.538" stroke="hsl(90.0,100%,35%)" stroke-width="0.00824"></path>
<path d="M0.823 0.421 Q0.893 0.391 0.850 0.350" stroke="hsl(90.0,100%,35%)" stroke-width="0.00824"></path>
<path d="M0.823 0.421 Q0.736 0.457 0.788 0.508" stroke="hsl(90.0,100%,35%)" stroke-width="0.00824"></path>
<path d="M0.952 0.039 Q0.789 0.091 0.854 0.182" stroke="hsl(135.0,100%,35%)" stroke-width="0.00824"></path>
<path d="M0.952 0.039 Q1.128 0.131 1.344 0.065" stroke="hsl(135.0,100%,35%)" stroke-width="0.00824"></path>
<path d="M0.952 0.039 Q0.781 0.021 0.707 0.101" stroke="hsl(135.0,100%,35%)" stroke-width="0.00824"></path>
<path d="M0.952 0.688 Q1.088 0.671 1.086 0.601" stroke="hsl(90.0,100%,35%)" stroke-width="0.01648"></path>
<path d="M0.952 0.688 Q0.782 0.679 0.727 0.760" stroke="hsl(90.0,100%,35%)" stroke-width="0.00824"></path>
<path d="M0.952 0.688 Q0.849 0.758 0.964 0.824" stroke="hsl(90.0,100%,35%)" stroke-width="0.00824"></path>
<path d="M1.321 0.715 Q1.618 0.667 1.589 0.512" stroke="hsl(90.0,100%,35%)" stroke-width="0.01648"></path>
<path d="M1.321 0.715 Q1.446 0.620 1.287 0.538" stroke="hsl(90.0,100%,35%)" stroke-width="0.00824"></path>
<path d="M1.321 0.715 Q1.110 0.729 1.090 0.835" stroke="hsl(90.0,100%,35%)" stroke-width="0.00824"></path>
<path d="M1.321 0.715 Q1.179 0.695 1.109 0.760" stroke="hsl(90.0,100%,35%)" stroke-width="0.00824"></path>
<path d="M1.321 0.715 Q1.296 0.757 1.373 0.779" stroke="hsl(90.0,100%,35%)" stroke-width="0.00824"></path>
<path d="M1.589 0.512 Q1.049 0.666 1.231 0.963" stroke="hsl(90.0,100%,35%)" stroke-width="0.00824"></path>
<path d="M1.589 0.512 Q1.307 0.368 0.966 0.474" stroke="hsl(90.0,100%,35%)" stroke-width="0.01648"></path>
<path d="M1.589 0.512 Q1.721 0.538 1.803 0.480" stroke="hsl(90.0,100%,35%)" stroke-width="0.01648"></path>
<path d="M1.589 0.512 Q1.150 0.540 1.109 0.760" stroke="hsl(90.0,100%,35%)" stroke-width="0.00824"></path>
<path d="M1.589 0.512 Q1.266 0.456 1.086 0.601" stroke="hsl(90.0,100%,35%)" stroke-width="0.01648"></path>
<path d="M1.748 0.629 Q1.627 0.436 1.225 0.453" stroke="hsl(45.0,100%,35%)" stroke-width="0.00824"></path>
<path d="M1.748 0.629 Q1.589 0.672 1.637 0.759" stroke="hsl(45.0,100%,35%)" stroke-width="0.01648"></path>
<path d="M1.748 0.629 Q1.629 0.565 1.479 0.609" stroke="hsl(45.0,100%,35%)" stroke-width="0.00824"></path>
<path d="M1.741 0.114 Q1.640 0.211 1.808 0.282" stroke="hsl(180.0,100%,35%)" stroke-width="0.05768"></path>
<path d="M1.741 0.114 Q1.468 0.199 1.574 0.351" stroke="hsl(180.0,100%,35%)" stroke-width="0.05768"></path>
<path d="M1.741 0.114 Q1.524 0.130 1.508 0.239" stroke="hsl(180.0,100%,35%)" stroke-width="0.00824"></path>
<path d="M0.201 0.965 Q0.379 0.985 0.457 0.903" stroke="hsl(225.0,100%,35%)" stroke-width="0.01648"></path>
<path d="M0.201 0.965 Q0.535 0.922 0.523 0.750" stroke="hsl(225.0,100%,35%)" stroke-width="0.00824"></path>
<path d="M0.201 0.965 Q0.392 0.905 0.316 0.798" stroke="hsl(225.0,100%,35%)" stroke-width="0.00824"></path>
<path d="M0.316 0.798 Q0.124 0.859 0.201 0.965" stroke="hsl(225.0,100%,35%)" stroke-width="0.01648"></path>
<path d="M0.316 0.798 Q0.303 0.878 0.457 0.903" stroke="hsl(225.0,100%,35%)" stroke-width="0.01648"></path>
<path d="M0.316 0.798 Q0.458 0.815 0.523 0.750" stroke="hsl(225.0,100%,35%)" stroke-width="0.00824"></path>
<path d="M0.949 0.930 Q1.015 0.830 0.835 0.776" stroke="hsl(270.0,100%,35%)" stroke-width="0.00824"></path>
<path d="M0.949 0.930 Q0.935 0.862 0.800 0.854" stroke="hsl(270.0,100%,35%)" stroke-width="0.00824"></path>
<path d="M0.949 0.930 Q0.765 0.894 0.655 0.976" stroke="hsl(270.0,100%,35%)" stroke-width="0.00824"></path>
<path d="M0.949 0.930 Q0.932 0.849 0.772 0.840" stroke="hsl(270.0,100%,35%)" stroke-width="0.00824"></path>
<path d="M0.668 0.645 Q0.740 0.594 0.657 0.547" stroke="hsl(225.0,100%,35%)" stroke-width="0.00824"></path>
<path d="M0.668 0.645 Q0.794 0.604 0.743 0.534" stroke="hsl(225.0,100%,35%)" stroke-width="0.00824"></path>
<path d="M0.668 0.645 Q0.356 0.731 0.457 0.903" stroke="hsl(225.0,100%,35%)" stroke-width="0.00824"></path>
<path d="M0.507 0.461 Q0.417 0.387 0.252 0.414" stroke="hsl(315.0,100%,35%)" stroke-width="0.00824"></path>
<path d="M0.507 0.461 Q0.410 0.305 0.084 0.318" stroke="hsl(315.0,100%,35%)" stroke-width="0.00824"></path>
<path d="M0.507 0.461 Q0.596 0.341 0.381 0.272" stroke="hsl(315.0,100%,35%)" stroke-width="0.04944"></path>
<path d="M0.507 0.461 Q0.395 0.514 0.473 0.581" stroke="hsl(315.0,100%,35%)" stroke-width="0.02472"></path>
<path d="M0.507 0.461 Q0.315 0.467 0.284 0.562" stroke="hsl(315.0,100%,35%)" stroke-width="0.00824"></path>
</g>
<text x="0.043" y="0.504" font-size="0.025820" fill="hsl(0.0,100%,20%)">amoylan</text>
<text x="0.084" y="0.622" font-size="0.014907" fill="hsl(0.0,100%,20%)">mlcui</text>
<text x="0.059" y="0.640" font-size="0.014907" fill="hsl(0.0,100%,20%)">jmpollock</text>
<text x="0.061" y="0.394" font-size="0.014907" fill="hsl(0.0,100%,20%)">dgrebenyuk</text>
<text x="1.282" y="0.304" font-size="0.039441" fill="hsl(45.0,100%,20%)">betuls</text>
<text x="1.637" y="0.738" font-size="0.042164" fill="hsl(45.0,100%,20%)">jadmanski</text>
<text x="1.173" y="0.144" font-size="0.021082" fill="hsl(45.0,100%,20%)">hcyang</text>
<text x="1.225" y="0.440" font-size="0.025820" fill="hsl(45.0,100%,20%)">lziest</text>
<text x="1.231" y="0.945" font-size="0.036515" fill="hsl(90.0,100%,20%)">briannorris</text>
<text x="0.850" y="0.340" font-size="0.021082" fill="hsl(90.0,100%,20%)">allenwebb</text>
<text x="1.286" y="0.844" font-size="0.014907" fill="hsl(90.0,100%,20%)">xiyuan</text>
<text x="1.010" y="0.964" font-size="0.014907" fill="hsl(90.0,100%,20%)">mutexlox</text>
<text x="1.490" y="0.957" font-size="0.014907" fill="hsl(90.0,100%,20%)">mka</text>
<text x="0.823" y="0.405" font-size="0.033333" fill="hsl(90.0,100%,20%)">dverkamp</text>
<text x="0.966" y="0.460" font-size="0.029814" fill="hsl(90.0,100%,20%)">uekawa</text>
<text x="1.287" y="0.527" font-size="0.021082" fill="hsl(90.0,100%,20%)">vapier</text>
<text x="0.788" y="0.500" font-size="0.014907" fill="hsl(90.0,100%,20%)">dtor</text>
<text x="0.952" y="0.027" font-size="0.025820" fill="hsl(135.0,100%,20%)">ejcaruso</text>
<text x="0.854" y="0.174" font-size="0.014907" fill="hsl(135.0,100%,20%)">pholla</text>
<text x="1.344" y="0.058" font-size="0.014907" fill="hsl(135.0,100%,20%)">danielwinkler</text>
<text x="0.707" y="0.093" font-size="0.014907" fill="hsl(135.0,100%,20%)">andrewlassalle</text>
<text x="0.952" y="0.673" font-size="0.029814" fill="hsl(90.0,100%,20%)">fdegros</text>
<text x="1.086" y="0.586" font-size="0.029814" fill="hsl(90.0,100%,20%)">dlunev</text>
<text x="0.727" y="0.753" font-size="0.014907" fill="hsl(90.0,100%,20%)">benreich</text>
<text x="0.964" y="0.817" font-size="0.014907" fill="hsl(90.0,100%,20%)">wenbojie</text>
<text x="1.321" y="0.697" font-size="0.036515" fill="hsl(90.0,100%,20%)">gwendal</text>
<text x="1.589" y="0.488" font-size="0.047140" fill="hsl(90.0,100%,20%)">sarthakkukreti</text>
<text x="1.090" y="0.828" font-size="0.014907" fill="hsl(90.0,100%,20%)">asavery</text>
<text x="1.109" y="0.749" font-size="0.021082" fill="hsl(90.0,100%,20%)">hidehiko</text>
<text x="1.373" y="0.771" font-size="0.014907" fill="hsl(90.0,100%,20%)">yich</text>
<text x="1.748" y="0.612" font-size="0.033333" fill="hsl(45.0,100%,20%)">hardikgoyal</text>
<text x="1.479" y="0.599" font-size="0.021082" fill="hsl(45.0,100%,20%)">behnoodm</text>
<text x="1.741" y="0.085" font-size="0.057735" fill="hsl(180.0,100%,20%)">jiejiang</text>
<text x="1.808" y="0.262" font-size="0.039441" fill="hsl(180.0,100%,20%)">taoyl</text>
<text x="1.574" y="0.331" font-size="0.039441" fill="hsl(180.0,100%,20%)">hugobenichi</text>
<text x="1.508" y="0.232" font-size="0.014907" fill="hsl(180.0,100%,20%)">akahuang</text>
<text x="0.201" y="0.947" font-size="0.036515" fill="hsl(225.0,100%,20%)">julianachang</text>
<text x="0.457" y="0.886" font-size="0.033333" fill="hsl(225.0,100%,20%)">kamesan</text>
<text x="0.523" y="0.739" font-size="0.021082" fill="hsl(225.0,100%,20%)">imranziad</text>
<text x="0.316" y="0.780" font-size="0.036515" fill="hsl(225.0,100%,20%)">okuji</text>
<text x="0.949" y="0.915" font-size="0.029814" fill="hsl(270.0,100%,20%)">nicholasbishop</text>
<text x="0.835" y="0.769" font-size="0.014907" fill="hsl(270.0,100%,20%)">skend</text>
<text x="0.800" y="0.847" font-size="0.014907" fill="hsl(270.0,100%,20%)">saklein</text>
<text x="0.655" y="0.969" font-size="0.014907" fill="hsl(270.0,100%,20%)">tbrandston</text>
<text x="0.772" y="0.833" font-size="0.014907" fill="hsl(270.0,100%,20%)">tinghaolin</text>
<text x="1.803" y="0.469" font-size="0.021082" fill="hsl(90.0,100%,20%)">justonli</text>
<text x="0.668" y="0.632" font-size="0.025820" fill="hsl(225.0,100%,20%)">tian.shu.qiu</text>
<text x="0.657" y="0.540" font-size="0.014907" fill="hsl(225.0,100%,20%)">jie.j.zhang</text>
<text x="0.743" y="0.526" font-size="0.014907" fill="hsl(225.0,100%,20%)">arec.kao</text>
<text x="0.507" y="0.435" font-size="0.051640" fill="hsl(315.0,100%,20%)">weiluanwang</text>
<text x="0.252" y="0.407" font-size="0.014907" fill="hsl(315.0,100%,20%)">toyoshim</text>
<text x="0.084" y="0.311" font-size="0.014907" fill="hsl(315.0,100%,20%)">chungsheng</text>
<text x="0.381" y="0.253" font-size="0.036515" fill="hsl(315.0,100%,20%)">byronlee</text>
<text x="0.473" y="0.568" font-size="0.025820" fill="hsl(315.0,100%,20%)">kerker</text>
<text x="0.284" y="0.554" font-size="0.014907" fill="hsl(315.0,100%,20%)">dennyh</text>
</svg>
