<svg width="4000" height="2000" viewBox="-0.025 -0.025 2.05 1.05" xmlns="http://www.w3.org/2000/svg">
  <style>
    path {
      fill: none;
      stroke-linecap: round;
      stroke-opacity: 0.4;
    }

    text {
      text-anchor: middle;
      alignment-baseline: hanging;
    }
  </style>
  <g opacity="0.4">
<path d="M1.965 0.597 Q1.987 0.572 1.943 0.556" stroke="hsl(0.0,100%,35%)" stroke-width="0.00519"></path>
<path d="M1.965 0.597 Q1.902 0.606 1.907 0.639" stroke="hsl(0.0,100%,35%)" stroke-width="0.00260"></path>
<path d="M1.965 0.597 Q2.032 0.554 1.963 0.511" stroke="hsl(0.0,100%,35%)" stroke-width="0.00260"></path>
<path d="M1.922 0.145 Q1.767 0.155 1.752 0.233" stroke="hsl(40.0,100%,35%)" stroke-width="0.00260"></path>
<path d="M1.922 0.145 Q1.237 0.460 1.701 0.863" stroke="hsl(40.0,100%,35%)" stroke-width="0.00260"></path>
<path d="M1.922 0.145 Q1.936 0.113 1.875 0.099" stroke="hsl(40.0,100%,35%)" stroke-width="0.00260"></path>
<path d="M1.922 0.145 Q0.788 0.346 0.931 0.943" stroke="hsl(40.0,100%,35%)" stroke-width="0.00260"></path>
<path d="M1.922 0.145 Q0.855 -0.119 0.106 0.344" stroke="hsl(40.0,100%,35%)" stroke-width="0.00260"></path>
<path d="M1.752 0.233 Q1.523 0.201 1.411 0.305" stroke="hsl(40.0,100%,35%)" stroke-width="0.00260"></path>
<path d="M1.752 0.233 Q0.870 0.172 0.559 0.590" stroke="hsl(40.0,100%,35%)" stroke-width="0.00260"></path>
<path d="M1.752 0.233 Q1.577 0.364 1.795 0.478" stroke="hsl(40.0,100%,35%)" stroke-width="0.00260"></path>
<path d="M0.106 0.344 Q0.015 0.474 0.248 0.547" stroke="hsl(80.0,100%,35%)" stroke-width="0.00260"></path>
<path d="M0.106 0.344 Q0.236 0.334 0.245 0.268" stroke="hsl(80.0,100%,35%)" stroke-width="0.00260"></path>
<path d="M0.106 0.344 Q0.208 0.308 0.160 0.250" stroke="hsl(80.0,100%,35%)" stroke-width="0.00260"></path>
<path d="M0.106 0.344 Q0.115 0.392 0.210 0.398" stroke="hsl(80.0,100%,35%)" stroke-width="0.00260"></path>
<path d="M0.106 0.344 Q-0.013 0.380 0.031 0.445" stroke="hsl(80.0,100%,35%)" stroke-width="0.00260"></path>
<path d="M0.509 0.486 Q0.451 0.548 0.559 0.590" stroke="hsl(120.0,100%,35%)" stroke-width="0.06753"></path>
<path d="M0.509 0.486 Q0.634 0.447 0.584 0.377" stroke="hsl(120.0,100%,35%)" stroke-width="0.06234"></path>
<path d="M0.509 0.486 Q0.385 0.435 0.258 0.484" stroke="hsl(120.0,100%,35%)" stroke-width="0.00260"></path>
<path d="M0.509 0.486 Q1.118 0.524 1.326 0.235" stroke="hsl(120.0,100%,35%)" stroke-width="0.00779"></path>
<path d="M0.509 0.486 Q0.452 0.423 0.315 0.437" stroke="hsl(120.0,100%,35%)" stroke-width="0.00260"></path>
<path d="M0.559 0.590 Q0.616 0.528 0.509 0.486" stroke="hsl(120.0,100%,35%)" stroke-width="0.02338"></path>
<path d="M0.559 0.590 Q0.741 0.488 0.584 0.377" stroke="hsl(120.0,100%,35%)" stroke-width="0.02597"></path>
<path d="M0.559 0.590 Q1.226 0.566 1.326 0.235" stroke="hsl(120.0,100%,35%)" stroke-width="0.00260"></path>
<path d="M0.559 0.590 Q0.727 0.572 0.730 0.486" stroke="hsl(120.0,100%,35%)" stroke-width="0.00519"></path>
<path d="M0.559 0.590 Q0.955 1.002 1.847 0.899" stroke="hsl(120.0,100%,35%)" stroke-width="0.00260"></path>
<path d="M0.559 0.590 Q1.212 0.618 1.411 0.305" stroke="hsl(120.0,100%,35%)" stroke-width="0.00260"></path>
<path d="M0.584 0.377 Q0.402 0.478 0.559 0.590" stroke="hsl(120.0,100%,35%)" stroke-width="0.01299"></path>
<path d="M0.584 0.377 Q0.490 0.305 0.328 0.335" stroke="hsl(120.0,100%,35%)" stroke-width="0.00260"></path>
<path d="M0.584 0.377 Q0.372 0.265 0.106 0.344" stroke="hsl(120.0,100%,35%)" stroke-width="0.00519"></path>
<path d="M0.584 0.377 Q0.600 0.259 0.374 0.226" stroke="hsl(120.0,100%,35%)" stroke-width="0.00260"></path>
<path d="M0.584 0.377 Q1.069 0.454 1.326 0.235" stroke="hsl(120.0,100%,35%)" stroke-width="0.01039"></path>
<path d="M0.584 0.377 Q0.446 0.356 0.375 0.419" stroke="hsl(120.0,100%,35%)" stroke-width="0.00260"></path>
<path d="M0.584 0.377 Q1.284 0.538 1.752 0.233" stroke="hsl(120.0,100%,35%)" stroke-width="0.00260"></path>
<path d="M0.730 0.486 Q0.794 0.894 1.604 0.953" stroke="hsl(120.0,100%,35%)" stroke-width="0.00260"></path>
<path d="M0.730 0.486 Q1.444 0.564 1.752 0.233" stroke="hsl(120.0,100%,35%)" stroke-width="0.00260"></path>
<path d="M0.730 0.486 Q0.562 0.504 0.559 0.590" stroke="hsl(120.0,100%,35%)" stroke-width="0.00519"></path>
<path d="M0.730 0.486 Q0.958 0.916 1.847 0.899" stroke="hsl(120.0,100%,35%)" stroke-width="0.00260"></path>
<path d="M1.847 0.899 Q1.683 0.878 1.604 0.953" stroke="hsl(40.0,100%,35%)" stroke-width="0.00519"></path>
<path d="M1.847 0.899 Q1.750 0.867 1.666 0.907" stroke="hsl(40.0,100%,35%)" stroke-width="0.00779"></path>
<path d="M1.847 0.899 Q2.333 0.547 1.752 0.233" stroke="hsl(40.0,100%,35%)" stroke-width="0.00260"></path>
<path d="M1.847 0.899 Q1.803 0.852 1.701 0.863" stroke="hsl(40.0,100%,35%)" stroke-width="0.00519"></path>
<path d="M1.721 0.583 Q1.610 0.527 1.476 0.569" stroke="hsl(80.0,100%,35%)" stroke-width="0.00260"></path>
<path d="M1.721 0.583 Q1.790 0.500 1.644 0.449" stroke="hsl(80.0,100%,35%)" stroke-width="0.00260"></path>
<path d="M1.721 0.583 Q1.454 0.338 0.916 0.414" stroke="hsl(80.0,100%,35%)" stroke-width="0.00260"></path>
<path d="M1.721 0.583 Q1.567 0.457 1.287 0.505" stroke="hsl(80.0,100%,35%)" stroke-width="0.00260"></path>
<path d="M1.721 0.583 Q1.693 0.500 1.524 0.495" stroke="hsl(80.0,100%,35%)" stroke-width="0.00260"></path>
<path d="M1.721 0.583 Q1.599 0.551 1.509 0.603" stroke="hsl(80.0,100%,35%)" stroke-width="0.00260"></path>
<path d="M1.721 0.583 Q1.670 0.504 1.504 0.512" stroke="hsl(80.0,100%,35%)" stroke-width="0.00260"></path>
<path d="M1.721 0.583 Q1.788 0.382 1.411 0.305" stroke="hsl(80.0,100%,35%)" stroke-width="0.00260"></path>
<path d="M1.721 0.583 Q1.169 0.583 1.048 0.852" stroke="hsl(80.0,100%,35%)" stroke-width="0.00779"></path>
<path d="M1.721 0.583 Q1.704 0.395 1.334 0.362" stroke="hsl(80.0,100%,35%)" stroke-width="0.00260"></path>
<path d="M1.721 0.583 Q1.660 0.504 1.493 0.516" stroke="hsl(80.0,100%,35%)" stroke-width="0.00260"></path>
<path d="M1.048 0.852 Q0.630 0.704 0.250 0.876" stroke="hsl(80.0,100%,35%)" stroke-width="0.00260"></path>
<path d="M1.048 0.852 Q1.258 0.827 1.255 0.718" stroke="hsl(80.0,100%,35%)" stroke-width="0.01558"></path>
<path d="M1.048 0.852 Q0.788 0.847 0.720 0.972" stroke="hsl(80.0,100%,35%)" stroke-width="0.00260"></path>
<path d="M1.048 0.852 Q1.089 0.766 0.930 0.727" stroke="hsl(80.0,100%,35%)" stroke-width="0.00260"></path>
<path d="M1.048 0.852 Q1.896 0.683 1.752 0.233" stroke="hsl(80.0,100%,35%)" stroke-width="0.00260"></path>
<path d="M1.048 0.852 Q1.102 0.450 0.328 0.335" stroke="hsl(80.0,100%,35%)" stroke-width="0.00260"></path>
<path d="M1.048 0.852 Q1.290 0.881 1.401 0.770" stroke="hsl(80.0,100%,35%)" stroke-width="0.00260"></path>
<path d="M1.048 0.852 Q1.181 0.906 1.315 0.853" stroke="hsl(80.0,100%,35%)" stroke-width="0.00260"></path>
<path d="M1.048 0.852 Q1.308 0.855 1.370 0.728" stroke="hsl(80.0,100%,35%)" stroke-width="0.00260"></path>
<path d="M1.048 0.852 Q1.165 0.929 1.340 0.889" stroke="hsl(80.0,100%,35%)" stroke-width="0.01039"></path>
<path d="M1.048 0.852 Q1.166 0.866 1.220 0.812" stroke="hsl(80.0,100%,35%)" stroke-width="0.02857"></path>
<path d="M1.219 0.977 Q1.155 0.936 1.061 0.958" stroke="hsl(40.0,100%,35%)" stroke-width="0.00779"></path>
<path d="M1.219 0.977 Q1.303 0.966 1.300 0.922" stroke="hsl(40.0,100%,35%)" stroke-width="0.00519"></path>
<path d="M1.219 0.977 Q1.308 0.949 1.273 0.899" stroke="hsl(40.0,100%,35%)" stroke-width="0.00260"></path>
<path d="M1.061 0.958 Q1.430 0.817 1.238 0.606" stroke="hsl(40.0,100%,35%)" stroke-width="0.00260"></path>
<path d="M1.061 0.958 Q1.986 0.733 1.752 0.233" stroke="hsl(40.0,100%,35%)" stroke-width="0.00260"></path>
<path d="M1.061 0.958 Q1.029 0.925 0.957 0.933" stroke="hsl(40.0,100%,35%)" stroke-width="0.00260"></path>
<path d="M1.061 0.958 Q0.994 0.954 0.972 0.985" stroke="hsl(40.0,100%,35%)" stroke-width="0.00260"></path>
<path d="M1.061 0.958 Q1.007 0.925 0.931 0.943" stroke="hsl(40.0,100%,35%)" stroke-width="0.00260"></path>
<path d="M1.061 0.958 Q0.976 0.951 0.944 0.990" stroke="hsl(40.0,100%,35%)" stroke-width="0.00260"></path>
<path d="M1.714 0.068 Q1.699 0.096 1.751 0.110" stroke="hsl(200.0,100%,35%)" stroke-width="0.00519"></path>
<path d="M1.714 0.068 Q1.600 0.008 1.458 0.050" stroke="hsl(200.0,100%,35%)" stroke-width="0.00519"></path>
<path d="M1.714 0.068 Q1.667 0.064 1.648 0.086" stroke="hsl(200.0,100%,35%)" stroke-width="0.00260"></path>
<path d="M0.307 0.956 Q0.578 0.646 0.031 0.445" stroke="hsl(80.0,100%,35%)" stroke-width="0.00519"></path>
<path d="M0.307 0.956 Q0.343 0.905 0.250 0.876" stroke="hsl(80.0,100%,35%)" stroke-width="0.00519"></path>
<path d="M0.307 0.956 Q0.501 1.047 0.720 0.972" stroke="hsl(80.0,100%,35%)" stroke-width="0.00260"></path>
<path d="M0.307 0.956 Q0.353 0.990 0.428 0.975" stroke="hsl(80.0,100%,35%)" stroke-width="0.00260"></path>
<path d="M0.031 0.445 Q0.268 0.450 0.328 0.335" stroke="hsl(80.0,100%,35%)" stroke-width="0.00260"></path>
<path d="M0.031 0.445 Q0.150 0.410 0.106 0.344" stroke="hsl(80.0,100%,35%)" stroke-width="0.01039"></path>
<path d="M0.031 0.445 Q0.499 0.607 0.916 0.414" stroke="hsl(80.0,100%,35%)" stroke-width="0.00260"></path>
<path d="M0.031 0.445 Q0.158 0.457 0.210 0.398" stroke="hsl(80.0,100%,35%)" stroke-width="0.01039"></path>
<path d="M0.031 0.445 Q0.036 0.507 0.157 0.518" stroke="hsl(80.0,100%,35%)" stroke-width="0.00260"></path>
<path d="M0.031 0.445 Q0.020 0.513 0.150 0.534" stroke="hsl(80.0,100%,35%)" stroke-width="0.00260"></path>
<path d="M0.720 0.972 Q0.682 0.900 0.533 0.902" stroke="hsl(80.0,100%,35%)" stroke-width="0.02078"></path>
<path d="M0.720 0.972 Q0.808 0.966 0.814 0.921" stroke="hsl(80.0,100%,35%)" stroke-width="0.00260"></path>
<path d="M0.720 0.972 Q0.676 0.933 0.589 0.946" stroke="hsl(80.0,100%,35%)" stroke-width="0.00260"></path>
<path d="M0.720 0.972 Q1.378 0.852 1.287 0.505" stroke="hsl(80.0,100%,35%)" stroke-width="0.00260"></path>
<path d="M0.720 0.972 Q0.526 0.882 0.307 0.956" stroke="hsl(80.0,100%,35%)" stroke-width="0.00779"></path>
<path d="M1.401 0.770 Q0.740 0.592 0.250 0.876" stroke="hsl(80.0,100%,35%)" stroke-width="0.00260"></path>
<path d="M1.401 0.770 Q1.158 0.740 1.048 0.852" stroke="hsl(80.0,100%,35%)" stroke-width="0.01299"></path>
<path d="M1.401 0.770 Q1.522 0.737 1.486 0.671" stroke="hsl(80.0,100%,35%)" stroke-width="0.00260"></path>
<path d="M1.401 0.770 Q1.369 0.715 1.255 0.718" stroke="hsl(80.0,100%,35%)" stroke-width="0.00260"></path>
<path d="M1.255 0.718 Q1.044 0.744 1.048 0.852" stroke="hsl(80.0,100%,35%)" stroke-width="0.02597"></path>
<path d="M1.255 0.718 Q1.455 0.815 1.687 0.738" stroke="hsl(80.0,100%,35%)" stroke-width="0.00519"></path>
<path d="M1.255 0.718 Q1.677 0.491 1.326 0.235" stroke="hsl(80.0,100%,35%)" stroke-width="0.00260"></path>
<path d="M1.255 0.718 Q1.164 0.657 1.024 0.688" stroke="hsl(80.0,100%,35%)" stroke-width="0.00519"></path>
<path d="M1.255 0.718 Q1.892 0.575 1.752 0.233" stroke="hsl(80.0,100%,35%)" stroke-width="0.00260"></path>
<path d="M1.102 0.210 Q1.194 0.267 1.326 0.235" stroke="hsl(120.0,100%,35%)" stroke-width="0.02078"></path>
<path d="M1.102 0.210 Q0.710 0.190 0.584 0.377" stroke="hsl(120.0,100%,35%)" stroke-width="0.02078"></path>
<path d="M1.102 0.210 Q0.585 0.230 0.509 0.486" stroke="hsl(120.0,100%,35%)" stroke-width="0.00779"></path>
<path d="M1.102 0.210 Q0.527 0.291 0.559 0.590" stroke="hsl(120.0,100%,35%)" stroke-width="0.00260"></path>
<path d="M1.102 0.210 Q1.181 0.319 1.411 0.305" stroke="hsl(120.0,100%,35%)" stroke-width="0.00260"></path>
<path d="M1.696 0.823 Q1.638 0.814 1.606 0.840" stroke="hsl(240.0,100%,35%)" stroke-width="0.00260"></path>
<path d="M1.696 0.823 Q1.668 0.802 1.621 0.811" stroke="hsl(240.0,100%,35%)" stroke-width="0.00260"></path>
<path d="M1.696 0.823 Q1.655 0.815 1.629 0.833" stroke="hsl(240.0,100%,35%)" stroke-width="0.00260"></path>
<path d="M0.533 0.902 Q1.241 1.051 1.687 0.738" stroke="hsl(80.0,100%,35%)" stroke-width="0.00779"></path>
<path d="M0.533 0.902 Q0.901 1.066 1.300 0.922" stroke="hsl(80.0,100%,35%)" stroke-width="0.00260"></path>
<path d="M0.533 0.902 Q0.775 0.585 0.210 0.398" stroke="hsl(80.0,100%,35%)" stroke-width="0.01299"></path>
<path d="M0.533 0.902 Q0.607 0.810 0.443 0.753" stroke="hsl(80.0,100%,35%)" stroke-width="0.00519"></path>
<path d="M1.687 0.738 Q1.347 0.753 1.300 0.922" stroke="hsl(80.0,100%,35%)" stroke-width="0.00519"></path>
<path d="M1.687 0.738 Q1.841 0.721 1.842 0.643" stroke="hsl(80.0,100%,35%)" stroke-width="0.00260"></path>
<path d="M1.687 0.738 Q1.756 0.787 1.865 0.764" stroke="hsl(80.0,100%,35%)" stroke-width="0.01818"></path>
<path d="M1.687 0.738 Q1.487 0.642 1.255 0.718" stroke="hsl(80.0,100%,35%)" stroke-width="0.00260"></path>
<path d="M1.687 0.738 Q1.673 0.780 1.751 0.796" stroke="hsl(80.0,100%,35%)" stroke-width="0.00519"></path>
<path d="M1.687 0.738 Q1.851 0.750 1.910 0.673" stroke="hsl(80.0,100%,35%)" stroke-width="0.00260"></path>
<path d="M0.948 0.553 Q1.043 0.543 1.046 0.495" stroke="hsl(160.0,100%,35%)" stroke-width="0.00519"></path>
<path d="M0.948 0.553 Q0.910 0.604 1.000 0.633" stroke="hsl(160.0,100%,35%)" stroke-width="0.00519"></path>
<path d="M0.948 0.553 Q0.950 0.589 1.022 0.596" stroke="hsl(160.0,100%,35%)" stroke-width="0.00260"></path>
<path d="M0.948 0.553 Q1.020 0.484 0.902 0.434" stroke="hsl(160.0,100%,35%)" stroke-width="0.00260"></path>
<path d="M1.046 0.495 Q1.046 0.428 0.916 0.414" stroke="hsl(160.0,100%,35%)" stroke-width="0.00260"></path>
<path d="M1.046 0.495 Q1.382 0.591 1.644 0.449" stroke="hsl(160.0,100%,35%)" stroke-width="0.00260"></path>
<path d="M1.046 0.495 Q0.696 0.231 0.106 0.344" stroke="hsl(160.0,100%,35%)" stroke-width="0.00260"></path>
<path d="M1.046 0.495 Q1.022 0.435 0.902 0.434" stroke="hsl(160.0,100%,35%)" stroke-width="0.00260"></path>
<path d="M1.795 0.478 Q1.829 0.382 1.650 0.344" stroke="hsl(160.0,100%,35%)" stroke-width="0.00519"></path>
<path d="M1.795 0.478 Q1.520 0.390 1.287 0.505" stroke="hsl(160.0,100%,35%)" stroke-width="0.00260"></path>
<path d="M1.795 0.478 Q1.916 0.436 1.859 0.367" stroke="hsl(160.0,100%,35%)" stroke-width="0.00260"></path>
<path d="M1.795 0.478 Q0.704 0.368 0.250 0.876" stroke="hsl(160.0,100%,35%)" stroke-width="0.00260"></path>
<path d="M1.238 0.606 Q1.344 0.565 1.287 0.505" stroke="hsl(40.0,100%,35%)" stroke-width="0.00779"></path>
<path d="M1.238 0.606 Q1.411 0.633 1.503 0.555" stroke="hsl(40.0,100%,35%)" stroke-width="0.00779"></path>
<path d="M1.238 0.606 Q1.314 0.638 1.394 0.608" stroke="hsl(40.0,100%,35%)" stroke-width="0.00260"></path>
<path d="M1.161 0.389 Q0.787 0.435 0.795 0.628" stroke="hsl(40.0,100%,35%)" stroke-width="0.00519"></path>
<path d="M1.161 0.389 Q1.269 0.410 1.334 0.362" stroke="hsl(40.0,100%,35%)" stroke-width="0.00519"></path>
<path d="M1.161 0.389 Q1.218 0.439 1.328 0.422" stroke="hsl(40.0,100%,35%)" stroke-width="0.00519"></path>
<path d="M1.501 0.634 Q1.448 0.316 0.816 0.272" stroke="hsl(80.0,100%,35%)" stroke-width="0.00260"></path>
<path d="M1.501 0.634 Q1.480 0.636 1.480 0.647" stroke="hsl(80.0,100%,35%)" stroke-width="0.00260"></path>
<path d="M1.501 0.634 Q1.485 0.618 1.452 0.623" stroke="hsl(80.0,100%,35%)" stroke-width="0.00260"></path>
<path d="M0.816 0.272 Q0.743 0.331 0.843 0.380" stroke="hsl(80.0,100%,35%)" stroke-width="0.00779"></path>
<path d="M0.816 0.272 Q1.019 0.608 1.721 0.583" stroke="hsl(80.0,100%,35%)" stroke-width="0.00519"></path>
<path d="M0.816 0.272 Q0.830 0.325 0.936 0.330" stroke="hsl(80.0,100%,35%)" stroke-width="0.00519"></path>
<path d="M1.381 0.395 Q1.466 0.417 1.529 0.380" stroke="hsl(160.0,100%,35%)" stroke-width="0.00260"></path>
<path d="M1.381 0.395 Q1.375 0.430 1.443 0.440" stroke="hsl(160.0,100%,35%)" stroke-width="0.00260"></path>
<path d="M1.381 0.395 Q1.467 0.356 1.411 0.305" stroke="hsl(160.0,100%,35%)" stroke-width="0.00260"></path>
<path d="M1.529 0.380 Q1.438 0.393 1.443 0.440" stroke="hsl(160.0,100%,35%)" stroke-width="0.00260"></path>
<path d="M1.529 0.380 Q1.618 0.387 1.650 0.344" stroke="hsl(160.0,100%,35%)" stroke-width="0.00260"></path>
<path d="M1.114 0.034 Q0.985 -0.006 0.879 0.048" stroke="hsl(280.0,100%,35%)" stroke-width="0.03636"></path>
<path d="M1.114 0.034 Q0.939 0.038 0.909 0.124" stroke="hsl(280.0,100%,35%)" stroke-width="0.02338"></path>
<path d="M1.114 0.034 Q0.823 0.542 1.751 0.796" stroke="hsl(280.0,100%,35%)" stroke-width="0.00260"></path>
<path d="M1.114 0.034 Q1.088 0.098 1.209 0.125" stroke="hsl(280.0,100%,35%)" stroke-width="0.00260"></path>
<path d="M1.549 0.216 Q1.611 0.197 1.588 0.162" stroke="hsl(320.0,100%,35%)" stroke-width="0.00519"></path>
<path d="M1.549 0.216 Q1.611 0.095 1.388 0.038" stroke="hsl(320.0,100%,35%)" stroke-width="0.00779"></path>
<path d="M1.549 0.216 Q1.609 0.144 1.481 0.099" stroke="hsl(320.0,100%,35%)" stroke-width="0.00260"></path>
<path d="M1.650 0.344 Q1.616 0.440 1.795 0.478" stroke="hsl(160.0,100%,35%)" stroke-width="0.00519"></path>
<path d="M1.650 0.344 Q1.340 0.352 1.287 0.505" stroke="hsl(160.0,100%,35%)" stroke-width="0.00260"></path>
<path d="M1.650 0.344 Q1.737 0.398 1.859 0.367" stroke="hsl(160.0,100%,35%)" stroke-width="0.00260"></path>
<path d="M1.859 0.367 Q1.738 0.410 1.795 0.478" stroke="hsl(160.0,100%,35%)" stroke-width="0.00779"></path>
<path d="M1.859 0.367 Q0.648 0.300 0.250 0.876" stroke="hsl(160.0,100%,35%)" stroke-width="0.00260"></path>
<path d="M1.859 0.367 Q1.120 0.045 0.328 0.335" stroke="hsl(160.0,100%,35%)" stroke-width="0.00260"></path>
<path d="M1.432 0.880 Q1.503 0.857 1.473 0.817" stroke="hsl(160.0,100%,35%)" stroke-width="0.00260"></path>
<path d="M1.432 0.880 Q1.407 0.922 1.482 0.943" stroke="hsl(160.0,100%,35%)" stroke-width="0.01558"></path>
<path d="M1.432 0.880 Q1.302 0.893 1.298 0.959" stroke="hsl(160.0,100%,35%)" stroke-width="0.00519"></path>
<path d="M0.768 0.675 Q1.613 0.651 1.752 0.233" stroke="hsl(40.0,100%,35%)" stroke-width="0.00260"></path>
<path d="M0.768 0.675 Q0.819 0.657 0.795 0.628" stroke="hsl(40.0,100%,35%)" stroke-width="0.00260"></path>
<path d="M0.768 0.675 Q1.193 0.610 1.161 0.389" stroke="hsl(40.0,100%,35%)" stroke-width="0.00260"></path>
<path d="M0.256 0.512 Q0.196 0.434 0.031 0.445" stroke="hsl(80.0,100%,35%)" stroke-width="0.00779"></path>
<path d="M0.256 0.512 Q0.201 0.495 0.157 0.518" stroke="hsl(80.0,100%,35%)" stroke-width="0.00260"></path>
<path d="M0.256 0.512 Q0.345 0.486 0.315 0.437" stroke="hsl(80.0,100%,35%)" stroke-width="0.00260"></path>
<path d="M0.760 0.804 Q1.487 0.803 1.644 0.449" stroke="hsl(160.0,100%,35%)" stroke-width="0.00519"></path>
<path d="M0.760 0.804 Q1.010 1.018 1.482 0.943" stroke="hsl(160.0,100%,35%)" stroke-width="0.00519"></path>
<path d="M0.760 0.804 Q0.837 0.786 0.817 0.745" stroke="hsl(160.0,100%,35%)" stroke-width="0.00519"></path>
<path d="M0.760 0.804 Q0.920 0.483 0.328 0.335" stroke="hsl(160.0,100%,35%)" stroke-width="0.00260"></path>
<path d="M0.760 0.804 Q1.158 0.801 1.238 0.606" stroke="hsl(160.0,100%,35%)" stroke-width="0.00260"></path>
<path d="M0.760 0.804 Q0.894 0.771 0.859 0.699" stroke="hsl(160.0,100%,35%)" stroke-width="0.00260"></path>
<path d="M0.216 0.643 Q0.101 0.713 0.212 0.785" stroke="hsl(280.0,100%,35%)" stroke-width="0.04675"></path>
<path d="M0.216 0.643 Q1.024 0.478 0.879 0.048" stroke="hsl(280.0,100%,35%)" stroke-width="0.00260"></path>
<path d="M0.216 0.643 Q1.153 0.518 1.114 0.034" stroke="hsl(280.0,100%,35%)" stroke-width="0.00260"></path>
<path d="M0.345 0.678 Q0.308 0.635 0.216 0.643" stroke="hsl(280.0,100%,35%)" stroke-width="0.01299"></path>
<path d="M0.345 0.678 Q0.193 0.705 0.212 0.785" stroke="hsl(280.0,100%,35%)" stroke-width="0.00519"></path>
<path d="M0.345 0.678 Q1.245 0.510 1.114 0.034" stroke="hsl(280.0,100%,35%)" stroke-width="0.00519"></path>
<path d="M0.345 0.678 Q0.401 0.593 0.248 0.547" stroke="hsl(280.0,100%,35%)" stroke-width="0.00260"></path>
</g>
<text x="1.965" y="0.590" font-size="0.013688" fill="hsl(0.0,100%,20%)">abergman</text>
<text x="1.943" y="0.551" font-size="0.009679" fill="hsl(0.0,100%,20%)">seewaifu</text>
<text x="1.907" y="0.635" font-size="0.006844" fill="hsl(0.0,100%,20%)">mblsha</text>
<text x="1.963" y="0.508" font-size="0.006844" fill="hsl(0.0,100%,20%)">svenzheng</text>
<text x="1.922" y="0.137" font-size="0.015303" fill="hsl(40.0,100%,20%)">adrian.ratiu</text>
<text x="1.752" y="0.221" font-size="0.022699" fill="hsl(40.0,100%,20%)">ejcaruso</text>
<text x="1.701" y="0.857" font-size="0.011854" fill="hsl(40.0,100%,20%)">madhavadas</text>
<text x="1.875" y="0.096" font-size="0.006844" fill="hsl(40.0,100%,20%)">vshenvi</text>
<text x="0.931" y="0.939" font-size="0.009679" fill="hsl(40.0,100%,20%)">lbaraz</text>
<text x="0.106" y="0.332" font-size="0.024676" fill="hsl(80.0,100%,20%)">vapier</text>
<text x="0.509" y="0.458" font-size="0.056019" fill="hsl(120.0,100%,20%)">akahuang</text>
<text x="0.559" y="0.563" font-size="0.052569" fill="hsl(120.0,100%,20%)">hugobenichi</text>
<text x="0.584" y="0.351" font-size="0.051670" fill="hsl(120.0,100%,20%)">jiejiang</text>
<text x="0.258" y="0.480" font-size="0.006844" fill="hsl(120.0,100%,20%)">acostinas</text>
<text x="1.326" y="0.221" font-size="0.028218" fill="hsl(120.0,100%,20%)">taoyl</text>
<text x="0.315" y="0.432" font-size="0.009679" fill="hsl(80.0,100%,20%)">jasongustaman</text>
<text x="0.730" y="0.477" font-size="0.018107" fill="hsl(120.0,100%,20%)">aleksandermj</text>
<text x="1.604" y="0.947" font-size="0.011854" fill="hsl(40.0,100%,20%)">pholla</text>
<text x="1.847" y="0.889" font-size="0.021642" fill="hsl(40.0,100%,20%)">andrewlassalle</text>
<text x="1.721" y="0.570" font-size="0.026506" fill="hsl(80.0,100%,20%)">amoylan</text>
<text x="1.476" y="0.565" font-size="0.006844" fill="hsl(80.0,100%,20%)">vsavu</text>
<text x="1.644" y="0.442" font-size="0.013688" fill="hsl(160.0,100%,20%)">keiichiw</text>
<text x="0.916" y="0.408" font-size="0.011854" fill="hsl(160.0,100%,20%)">hidehiko</text>
<text x="1.287" y="0.496" font-size="0.018107" fill="hsl(40.0,100%,20%)">iby</text>
<text x="1.524" y="0.492" font-size="0.006844" fill="hsl(80.0,100%,20%)">aidazolic</text>
<text x="1.509" y="0.600" font-size="0.006844" fill="hsl(80.0,100%,20%)">mpolzer</text>
<text x="1.504" y="0.508" font-size="0.006844" fill="hsl(80.0,100%,20%)">yoshiki</text>
<text x="1.411" y="0.298" font-size="0.015303" fill="hsl(120.0,100%,20%)">matthewmwang</text>
<text x="1.048" y="0.829" font-size="0.046919" fill="hsl(80.0,100%,20%)">yich</text>
<text x="1.334" y="0.356" font-size="0.011854" fill="hsl(40.0,100%,20%)">jcliang</text>
<text x="1.493" y="0.513" font-size="0.006844" fill="hsl(80.0,100%,20%)">nmuggli</text>
<text x="1.219" y="0.968" font-size="0.016764" fill="hsl(40.0,100%,20%)">anastasiian</text>
<text x="1.061" y="0.947" font-size="0.020532" fill="hsl(40.0,100%,20%)">emaxx</text>
<text x="1.300" y="0.914" font-size="0.015303" fill="hsl(40.0,100%,20%)">betuls</text>
<text x="1.273" y="0.896" font-size="0.006844" fill="hsl(40.0,100%,20%)">zuan</text>
<text x="1.666" y="0.902" font-size="0.011854" fill="hsl(40.0,100%,20%)">danielwinkler</text>
<text x="1.714" y="0.060" font-size="0.015303" fill="hsl(200.0,100%,20%)">bkersting</text>
<text x="1.751" y="0.105" font-size="0.009679" fill="hsl(200.0,100%,20%)">nicholasbishop</text>
<text x="1.458" y="0.045" font-size="0.009679" fill="hsl(200.0,100%,20%)">isandrk</text>
<text x="1.648" y="0.083" font-size="0.006844" fill="hsl(200.0,100%,20%)">tbastos</text>
<text x="0.307" y="0.946" font-size="0.020532" fill="hsl(80.0,100%,20%)">briannorris</text>
<text x="0.031" y="0.431" font-size="0.029036" fill="hsl(80.0,100%,20%)">kimjae</text>
<text x="0.250" y="0.867" font-size="0.016764" fill="hsl(80.0,100%,20%)">jorgelo</text>
<text x="0.720" y="0.958" font-size="0.027375" fill="hsl(80.0,100%,20%)">gwendal</text>
<text x="0.428" y="0.971" font-size="0.006844" fill="hsl(80.0,100%,20%)">puthik</text>
<text x="1.401" y="0.759" font-size="0.020532" fill="hsl(80.0,100%,20%)">chensa</text>
<text x="1.486" y="0.667" font-size="0.006844" fill="hsl(80.0,100%,20%)">sfrolov</text>
<text x="1.255" y="0.702" font-size="0.033528" fill="hsl(80.0,100%,20%)">hcyang</text>
<text x="1.102" y="0.195" font-size="0.031363" fill="hsl(120.0,100%,20%)">chenzikai</text>
<text x="1.696" y="0.818" font-size="0.011854" fill="hsl(240.0,100%,20%)">danielng</text>
<text x="1.606" y="0.837" font-size="0.006844" fill="hsl(240.0,100%,20%)">zzyiwei</text>
<text x="1.621" y="0.808" font-size="0.006844" fill="hsl(240.0,100%,20%)">philpearson</text>
<text x="1.629" y="0.830" font-size="0.006844" fill="hsl(240.0,100%,20%)">joelhockey</text>
<text x="0.533" y="0.887" font-size="0.029832" fill="hsl(80.0,100%,20%)">dlunev</text>
<text x="1.687" y="0.723" font-size="0.029832" fill="hsl(80.0,100%,20%)">jadmanski</text>
<text x="0.210" y="0.387" font-size="0.021642" fill="hsl(80.0,100%,20%)">sarthakkukreti</text>
<text x="0.443" y="0.748" font-size="0.009679" fill="hsl(80.0,100%,20%)">jpachara</text>
<text x="0.948" y="0.545" font-size="0.016764" fill="hsl(160.0,100%,20%)">dverkamp</text>
<text x="1.046" y="0.486" font-size="0.016764" fill="hsl(160.0,100%,20%)">uekawa</text>
<text x="1.000" y="0.628" font-size="0.009679" fill="hsl(160.0,100%,20%)">dtor</text>
<text x="1.022" y="0.593" font-size="0.006844" fill="hsl(160.0,100%,20%)">chibar</text>
<text x="0.902" y="0.429" font-size="0.009679" fill="hsl(160.0,100%,20%)">jamesye</text>
<text x="1.795" y="0.467" font-size="0.022699" fill="hsl(160.0,100%,20%)">norvez</text>
<text x="1.238" y="0.596" font-size="0.020532" fill="hsl(40.0,100%,20%)">mutexlox</text>
<text x="0.957" y="0.929" font-size="0.006844" fill="hsl(40.0,100%,20%)">ayaelattar</text>
<text x="0.972" y="0.982" font-size="0.006844" fill="hsl(40.0,100%,20%)">jasonling</text>
<text x="0.944" y="0.987" font-size="0.006844" fill="hsl(40.0,100%,20%)">rrangel</text>
<text x="0.814" y="0.918" font-size="0.006844" fill="hsl(80.0,100%,20%)">aaronyu</text>
<text x="0.589" y="0.942" font-size="0.006844" fill="hsl(80.0,100%,20%)">denniskempin</text>
<text x="1.024" y="0.683" font-size="0.009679" fill="hsl(80.0,100%,20%)">patrykd</text>
<text x="1.161" y="0.380" font-size="0.018107" fill="hsl(40.0,100%,20%)">imranziad</text>
<text x="0.795" y="0.622" font-size="0.011854" fill="hsl(40.0,100%,20%)">okuji</text>
<text x="1.328" y="0.418" font-size="0.009679" fill="hsl(40.0,100%,20%)">kamesan</text>
<text x="1.842" y="0.639" font-size="0.006844" fill="hsl(80.0,100%,20%)">behnoodm</text>
<text x="1.865" y="0.755" font-size="0.018107" fill="hsl(80.0,100%,20%)">lziest</text>
<text x="1.751" y="0.790" font-size="0.011854" fill="hsl(80.0,100%,20%)">thomascedeno</text>
<text x="1.910" y="0.669" font-size="0.006844" fill="hsl(80.0,100%,20%)">hardikgoyal</text>
<text x="0.328" y="0.327" font-size="0.015303" fill="hsl(160.0,100%,20%)">allenwebb</text>
<text x="0.374" y="0.222" font-size="0.006844" fill="hsl(120.0,100%,20%)">benreich</text>
<text x="0.375" y="0.415" font-size="0.006844" fill="hsl(120.0,100%,20%)">ujjwalpande</text>
<text x="1.501" y="0.628" font-size="0.011854" fill="hsl(80.0,100%,20%)">jingyliang</text>
<text x="0.816" y="0.262" font-size="0.019357" fill="hsl(80.0,100%,20%)">jiwan</text>
<text x="1.480" y="0.644" font-size="0.006844" fill="hsl(80.0,100%,20%)">aaboagye</text>
<text x="1.452" y="0.620" font-size="0.006844" fill="hsl(80.0,100%,20%)">hbarnor</text>
<text x="0.843" y="0.374" font-size="0.011854" fill="hsl(80.0,100%,20%)">robsc</text>
<text x="0.936" y="0.325" font-size="0.009679" fill="hsl(80.0,100%,20%)">alanlxl</text>
<text x="1.381" y="0.389" font-size="0.011854" fill="hsl(160.0,100%,20%)">jsiuda</text>
<text x="1.529" y="0.375" font-size="0.011854" fill="hsl(160.0,100%,20%)">kglund</text>
<text x="1.443" y="0.435" font-size="0.009679" fill="hsl(160.0,100%,20%)">jintaolin</text>
<text x="1.114" y="0.016" font-size="0.036214" fill="hsl(280.0,100%,20%)">kerker</text>
<text x="0.879" y="0.034" font-size="0.026506" fill="hsl(280.0,100%,20%)">dennyh</text>
<text x="0.909" y="0.114" font-size="0.020532" fill="hsl(280.0,100%,20%)">zubeil</text>
<text x="1.209" y="0.122" font-size="0.006844" fill="hsl(280.0,100%,20%)">skyostil</text>
<text x="1.549" y="0.207" font-size="0.016764" fill="hsl(320.0,100%,20%)">kevinptt</text>
<text x="1.588" y="0.157" font-size="0.009679" fill="hsl(320.0,100%,20%)">chungsheng</text>
<text x="1.388" y="0.032" font-size="0.011854" fill="hsl(320.0,100%,20%)">ckclark</text>
<text x="1.481" y="0.095" font-size="0.006844" fill="hsl(320.0,100%,20%)">chenghan</text>
<text x="1.650" y="0.335" font-size="0.018107" fill="hsl(160.0,100%,20%)">kuabhs</text>
<text x="0.157" y="0.513" font-size="0.009679" fill="hsl(80.0,100%,20%)">yuanpengni</text>
<text x="0.150" y="0.530" font-size="0.006844" fill="hsl(80.0,100%,20%)">hardtmad</text>
<text x="1.859" y="0.358" font-size="0.018107" fill="hsl(160.0,100%,20%)">yichenyu</text>
<text x="1.432" y="0.870" font-size="0.020532" fill="hsl(160.0,100%,20%)">mka</text>
<text x="1.473" y="0.814" font-size="0.006844" fill="hsl(160.0,100%,20%)">asavery</text>
<text x="1.482" y="0.934" font-size="0.019357" fill="hsl(160.0,100%,20%)">bgeffon</text>
<text x="1.298" y="0.954" font-size="0.009679" fill="hsl(160.0,100%,20%)">quasisec</text>
<text x="1.503" y="0.549" font-size="0.011854" fill="hsl(40.0,100%,20%)">kendraketsui</text>
<text x="1.394" y="0.605" font-size="0.006844" fill="hsl(40.0,100%,20%)">yaohuali</text>
<text x="0.768" y="0.669" font-size="0.011854" fill="hsl(40.0,100%,20%)">seannli</text>
<text x="0.256" y="0.504" font-size="0.015303" fill="hsl(80.0,100%,20%)">spothire</text>
<text x="0.760" y="0.794" font-size="0.020532" fill="hsl(160.0,100%,20%)">stevensd</text>
<text x="0.817" y="0.740" font-size="0.009679" fill="hsl(160.0,100%,20%)">kawasin</text>
<text x="0.859" y="0.696" font-size="0.006844" fill="hsl(160.0,100%,20%)">shahadath</text>
<text x="0.248" y="0.542" font-size="0.009679" fill="hsl(280.0,100%,20%)">jrosenth</text>
<text x="0.245" y="0.265" font-size="0.006844" fill="hsl(80.0,100%,20%)">zwisler</text>
<text x="0.160" y="0.247" font-size="0.006844" fill="hsl(80.0,100%,20%)">xcl</text>
<text x="0.216" y="0.626" font-size="0.034219" fill="hsl(280.0,100%,20%)">weiluanwang</text>
<text x="0.212" y="0.770" font-size="0.030607" fill="hsl(280.0,100%,20%)">byronlee</text>
<text x="0.930" y="0.724" font-size="0.006844" fill="hsl(80.0,100%,20%)">tbain</text>
<text x="1.315" y="0.849" font-size="0.006844" fill="hsl(80.0,100%,20%)">apronin</text>
<text x="1.370" y="0.725" font-size="0.006844" fill="hsl(80.0,100%,20%)">sidereal</text>
<text x="1.340" y="0.882" font-size="0.013688" fill="hsl(80.0,100%,20%)">jkardatzke</text>
<text x="1.220" y="0.800" font-size="0.022699" fill="hsl(80.0,100%,20%)">chingkang</text>
<text x="0.345" y="0.667" font-size="0.021642" fill="hsl(280.0,100%,20%)">yycheng</text>
</svg>
