<svg width="4000" height="2000" viewBox="-0.025 -0.025 2.05 1.05" xmlns="http://www.w3.org/2000/svg">
  <style>
    path {
      fill: none;
      stroke-linecap: round;
      stroke-opacity: 0.4;
    }

    text {
      text-anchor: middle;
      alignment-baseline: hanging;
    }
  </style>
  <g opacity="0.4">
<path d="M1.775 0.909 Q1.834 0.840 1.714 0.796" stroke="hsl(0.0,100%,35%)" stroke-width="0.00898"></path>
<path d="M1.775 0.909 Q1.906 0.844 1.808 0.765" stroke="hsl(0.0,100%,35%)" stroke-width="0.00898"></path>
<path d="M1.775 0.909 Q1.945 0.722 1.619 0.598" stroke="hsl(0.0,100%,35%)" stroke-width="0.00898"></path>
<path d="M1.775 0.909 Q1.643 0.867 1.533 0.922" stroke="hsl(0.0,100%,35%)" stroke-width="0.00898"></path>
<path d="M1.065 0.581 Q1.097 0.695 1.327 0.704" stroke="hsl(60.0,100%,35%)" stroke-width="0.08979"></path>
<path d="M1.065 0.581 Q0.819 0.550 0.705 0.663" stroke="hsl(60.0,100%,35%)" stroke-width="0.08979"></path>
<path d="M1.065 0.581 Q1.153 0.445 0.908 0.372" stroke="hsl(60.0,100%,35%)" stroke-width="0.02694"></path>
<path d="M1.065 0.581 Q0.735 0.670 0.837 0.851" stroke="hsl(60.0,100%,35%)" stroke-width="0.00898"></path>
<path d="M1.327 0.704 Q1.075 0.780 1.166 0.919" stroke="hsl(60.0,100%,35%)" stroke-width="0.00898"></path>
<path d="M1.327 0.704 Q1.447 0.828 1.714 0.796" stroke="hsl(60.0,100%,35%)" stroke-width="0.00898"></path>
<path d="M1.327 0.704 Q1.049 0.559 0.705 0.663" stroke="hsl(60.0,100%,35%)" stroke-width="0.01796"></path>
<path d="M1.327 0.704 Q1.383 0.454 0.908 0.372" stroke="hsl(60.0,100%,35%)" stroke-width="0.01796"></path>
<path d="M1.091 0.429 Q0.956 0.499 1.065 0.581" stroke="hsl(60.0,100%,35%)" stroke-width="0.00898"></path>
<path d="M1.091 0.429 Q1.045 0.364 0.908 0.372" stroke="hsl(60.0,100%,35%)" stroke-width="0.00898"></path>
<path d="M1.091 0.429 Q0.989 0.614 1.327 0.704" stroke="hsl(60.0,100%,35%)" stroke-width="0.00898"></path>
<path d="M0.216 0.760 Q0.303 0.670 0.148 0.609" stroke="hsl(60.0,100%,35%)" stroke-width="0.04490"></path>
<path d="M0.216 0.760 Q0.100 0.799 0.150 0.864" stroke="hsl(60.0,100%,35%)" stroke-width="0.00898"></path>
<path d="M0.216 0.760 Q0.872 0.704 0.908 0.372" stroke="hsl(60.0,100%,35%)" stroke-width="0.00898"></path>
<path d="M0.246 0.953 Q0.372 0.964 0.420 0.904" stroke="hsl(120.0,100%,35%)" stroke-width="0.00898"></path>
<path d="M0.246 0.953 Q0.550 1.100 0.902 0.984" stroke="hsl(120.0,100%,35%)" stroke-width="0.00898"></path>
<path d="M0.300 0.499 Q0.486 0.545 0.616 0.465" stroke="hsl(180.0,100%,35%)" stroke-width="0.01796"></path>
<path d="M0.300 0.499 Q0.274 0.555 0.379 0.581" stroke="hsl(180.0,100%,35%)" stroke-width="0.01796"></path>
<path d="M0.300 0.499 Q0.432 0.505 0.473 0.442" stroke="hsl(180.0,100%,35%)" stroke-width="0.00898"></path>
<path d="M1.623 0.280 Q1.567 0.395 1.780 0.447" stroke="hsl(240.0,100%,35%)" stroke-width="0.01796"></path>
<path d="M1.623 0.280 Q1.527 0.202 1.354 0.232" stroke="hsl(240.0,100%,35%)" stroke-width="0.00898"></path>
<path d="M1.623 0.280 Q1.451 0.308 1.468 0.398" stroke="hsl(240.0,100%,35%)" stroke-width="0.00898"></path>
<path d="M0.642 0.203 Q0.773 0.273 0.938 0.225" stroke="hsl(300.0,100%,35%)" stroke-width="0.03592"></path>
<path d="M0.642 0.203 Q0.487 0.113 0.277 0.168" stroke="hsl(300.0,100%,35%)" stroke-width="0.00898"></path>
<path d="M0.642 0.203 Q0.433 0.217 0.414 0.322" stroke="hsl(300.0,100%,35%)" stroke-width="0.00898"></path>
</g>
<text x="1.775" y="0.890" font-size="0.036214" fill="hsl(0.0,100%,20%)">adrian.ratiu</text>
<text x="1.714" y="0.783" font-size="0.025607" fill="hsl(60.0,100%,20%)">ejcaruso</text>
<text x="1.808" y="0.756" font-size="0.018107" fill="hsl(0.0,100%,20%)">madhavadas</text>
<text x="1.619" y="0.589" font-size="0.018107" fill="hsl(0.0,100%,20%)">vshenvi</text>
<text x="1.533" y="0.913" font-size="0.018107" fill="hsl(0.0,100%,20%)">lbaraz</text>
<text x="1.065" y="0.535" font-size="0.090536" fill="hsl(60.0,100%,20%)">akahuang</text>
<text x="1.327" y="0.667" font-size="0.074658" fill="hsl(60.0,100%,20%)">jiejiang</text>
<text x="0.705" y="0.631" font-size="0.062725" fill="hsl(60.0,100%,20%)">hugobenichi</text>
<text x="0.908" y="0.348" font-size="0.047907" fill="hsl(60.0,100%,20%)">taoyl</text>
<text x="0.837" y="0.842" font-size="0.018107" fill="hsl(60.0,100%,20%)">jasongustaman</text>
<text x="1.091" y="0.413" font-size="0.031363" fill="hsl(60.0,100%,20%)">chenzikai</text>
<text x="0.216" y="0.736" font-size="0.047907" fill="hsl(60.0,100%,20%)">hcyang</text>
<text x="0.148" y="0.588" font-size="0.040489" fill="hsl(60.0,100%,20%)">yich</text>
<text x="0.150" y="0.855" font-size="0.018107" fill="hsl(60.0,100%,20%)">jadmanski</text>
<text x="1.166" y="0.910" font-size="0.018107" fill="hsl(60.0,100%,20%)">ujjwalpande</text>
<text x="0.246" y="0.940" font-size="0.025607" fill="hsl(120.0,100%,20%)">kglund</text>
<text x="0.420" y="0.895" font-size="0.018107" fill="hsl(120.0,100%,20%)">jintaolin</text>
<text x="0.902" y="0.975" font-size="0.018107" fill="hsl(120.0,100%,20%)">kuabhs</text>
<text x="0.300" y="0.479" font-size="0.040489" fill="hsl(180.0,100%,20%)">mutexlox</text>
<text x="0.616" y="0.452" font-size="0.025607" fill="hsl(180.0,100%,20%)">iby</text>
<text x="0.379" y="0.568" font-size="0.025607" fill="hsl(180.0,100%,20%)">kendraketsui</text>
<text x="0.473" y="0.433" font-size="0.018107" fill="hsl(180.0,100%,20%)">yaohuali</text>
<text x="1.623" y="0.262" font-size="0.036214" fill="hsl(240.0,100%,20%)">stevensd</text>
<text x="1.780" y="0.434" font-size="0.025607" fill="hsl(240.0,100%,20%)">bgeffon</text>
<text x="1.354" y="0.223" font-size="0.018107" fill="hsl(240.0,100%,20%)">kawasin</text>
<text x="1.468" y="0.389" font-size="0.018107" fill="hsl(240.0,100%,20%)">allenwebb</text>
<text x="0.642" y="0.181" font-size="0.044353" fill="hsl(300.0,100%,20%)">weiluanwang</text>
<text x="0.938" y="0.207" font-size="0.036214" fill="hsl(300.0,100%,20%)">byronlee</text>
<text x="0.277" y="0.159" font-size="0.018107" fill="hsl(300.0,100%,20%)">dennyh</text>
<text x="0.414" y="0.313" font-size="0.018107" fill="hsl(300.0,100%,20%)">kerker</text>
</svg>
