<svg width="4000" height="2000" viewBox="-0.025 -0.025 2.05 1.05" xmlns="http://www.w3.org/2000/svg">
  <style>
    path {
      fill: none;
      stroke-linecap: round;
      stroke-opacity: 0.4;
    }

    text {
      text-anchor: middle;
      alignment-baseline: hanging;
    }
  </style>
  <g opacity="0.4">
<path d="M0.395 0.628 Q0.355 0.691 0.469 0.724" stroke="hsl(0.0,100%,35%)" stroke-width="0.04340"></path>
<path d="M0.395 0.628 Q0.662 0.692 0.846 0.575" stroke="hsl(0.0,100%,35%)" stroke-width="0.02170"></path>
<path d="M0.395 0.628 Q0.265 0.707 0.392 0.788" stroke="hsl(0.0,100%,35%)" stroke-width="0.02170"></path>
<path d="M1.864 0.879 Q2.035 0.805 1.927 0.705" stroke="hsl(90.0,100%,35%)" stroke-width="0.02170"></path>
<path d="M1.864 0.879 Q1.626 0.861 1.537 0.973" stroke="hsl(90.0,100%,35%)" stroke-width="0.02170"></path>
<path d="M1.864 0.879 Q1.754 0.852 1.677 0.900" stroke="hsl(90.0,100%,35%)" stroke-width="0.02170"></path>
<path d="M1.540 0.285 Q1.391 0.321 1.429 0.401" stroke="hsl(180.0,100%,35%)" stroke-width="0.04340"></path>
<path d="M1.540 0.285 Q1.432 0.457 1.745 0.547" stroke="hsl(180.0,100%,35%)" stroke-width="0.02170"></path>
<path d="M1.540 0.285 Q1.199 0.446 1.439 0.648" stroke="hsl(180.0,100%,35%)" stroke-width="0.02170"></path>
<path d="M1.540 0.285 Q1.227 0.308 1.204 0.466" stroke="hsl(180.0,100%,35%)" stroke-width="0.02170"></path>
<path d="M1.374 0.849 Q1.134 0.834 1.053 0.948" stroke="hsl(270.0,100%,35%)" stroke-width="0.06510"></path>
<path d="M1.374 0.849 Q1.069 0.763 0.835 0.893" stroke="hsl(270.0,100%,35%)" stroke-width="0.06510"></path>
<path d="M1.374 0.849 Q1.256 0.808 1.150 0.856" stroke="hsl(270.0,100%,35%)" stroke-width="0.02170"></path>
</g>
<text x="0.395" y="0.595" font-size="0.064889" fill="hsl(0.0,100%,20%)">dverkamp</text>
<text x="0.469" y="0.701" font-size="0.045883" fill="hsl(0.0,100%,20%)">allenwebb</text>
<text x="0.846" y="0.559" font-size="0.032444" fill="hsl(0.0,100%,20%)">keiichiw</text>
<text x="0.392" y="0.772" font-size="0.032444" fill="hsl(0.0,100%,20%)">dtor</text>
<text x="1.864" y="0.851" font-size="0.056195" fill="hsl(90.0,100%,20%)">fdegros</text>
<text x="1.927" y="0.689" font-size="0.032444" fill="hsl(90.0,100%,20%)">davidmunro</text>
<text x="1.537" y="0.956" font-size="0.032444" fill="hsl(90.0,100%,20%)">wenbojie</text>
<text x="1.677" y="0.883" font-size="0.032444" fill="hsl(90.0,100%,20%)">dlunev</text>
<text x="1.540" y="0.248" font-size="0.072548" fill="hsl(180.0,100%,20%)">jintaolin</text>
<text x="1.429" y="0.378" font-size="0.045883" fill="hsl(180.0,100%,20%)">matthewmwang</text>
<text x="1.745" y="0.531" font-size="0.032444" fill="hsl(180.0,100%,20%)">jsiuda</text>
<text x="1.439" y="0.632" font-size="0.032444" fill="hsl(180.0,100%,20%)">andrzejo</text>
<text x="1.204" y="0.450" font-size="0.032444" fill="hsl(180.0,100%,20%)">kglund</text>
<text x="1.374" y="0.806" font-size="0.085840" fill="hsl(270.0,100%,20%)">weiluanwang</text>
<text x="1.053" y="0.920" font-size="0.056195" fill="hsl(270.0,100%,20%)">dennyh</text>
<text x="0.835" y="0.865" font-size="0.056195" fill="hsl(270.0,100%,20%)">byronlee</text>
<text x="1.150" y="0.840" font-size="0.032444" fill="hsl(270.0,100%,20%)">chungsheng</text>
</svg>
