<svg width="4000" height="2000" viewBox="-0.025 -0.025 2.05 1.05" xmlns="http://www.w3.org/2000/svg">
  <style>
    path {
      fill: none;
      stroke-linecap: round;
      stroke-opacity: 0.4;
    }

    text {
      text-anchor: middle;
      alignment-baseline: hanging;
    }
  </style>
  <g opacity="0.4">
<path d="M1.927 0.597 Q1.887 0.529 1.744 0.533" stroke="hsl(0.0,100%,35%)" stroke-width="0.00495"></path>
<path d="M1.927 0.597 Q1.903 0.553 1.812 0.555" stroke="hsl(0.0,100%,35%)" stroke-width="0.00247"></path>
<path d="M1.927 0.597 Q1.990 0.556 1.923 0.516" stroke="hsl(0.0,100%,35%)" stroke-width="0.00742"></path>
<path d="M1.927 0.597 Q1.897 0.538 1.777 0.540" stroke="hsl(0.0,100%,35%)" stroke-width="0.00247"></path>
<path d="M1.094 0.762 Q1.071 0.715 0.976 0.717" stroke="hsl(60.0,100%,35%)" stroke-width="0.00247"></path>
<path d="M1.094 0.762 Q1.059 0.837 1.200 0.871" stroke="hsl(60.0,100%,35%)" stroke-width="0.00247"></path>
<path d="M1.094 0.762 Q1.494 0.372 0.822 0.092" stroke="hsl(60.0,100%,35%)" stroke-width="0.00247"></path>
<path d="M1.094 0.762 Q0.732 0.792 0.712 0.975" stroke="hsl(60.0,100%,35%)" stroke-width="0.00247"></path>
<path d="M1.094 0.762 Q1.044 0.846 1.198 0.889" stroke="hsl(60.0,100%,35%)" stroke-width="0.00247"></path>
<path d="M1.094 0.762 Q1.062 0.801 1.132 0.826" stroke="hsl(60.0,100%,35%)" stroke-width="0.00247"></path>
<path d="M1.094 0.762 Q1.162 0.805 1.261 0.781" stroke="hsl(60.0,100%,35%)" stroke-width="0.00247"></path>
<path d="M1.094 0.762 Q1.063 0.919 1.363 0.969" stroke="hsl(60.0,100%,35%)" stroke-width="0.00247"></path>
<path d="M1.094 0.762 Q1.134 0.847 1.310 0.847" stroke="hsl(60.0,100%,35%)" stroke-width="0.00247"></path>
<path d="M1.094 0.762 Q1.072 0.849 1.239 0.879" stroke="hsl(60.0,100%,35%)" stroke-width="0.00247"></path>
<path d="M1.094 0.762 Q1.322 0.977 1.792 0.912" stroke="hsl(60.0,100%,35%)" stroke-width="0.00247"></path>
<path d="M0.822 0.092 Q0.860 0.175 1.030 0.174" stroke="hsl(120.0,100%,35%)" stroke-width="0.01980"></path>
<path d="M0.822 0.092 Q0.926 0.143 1.048 0.103" stroke="hsl(120.0,100%,35%)" stroke-width="0.00495"></path>
<path d="M0.822 0.092 Q0.439 0.316 0.792 0.552" stroke="hsl(120.0,100%,35%)" stroke-width="0.00247"></path>
<path d="M0.822 0.092 Q0.963 0.150 1.107 0.094" stroke="hsl(120.0,100%,35%)" stroke-width="0.00247"></path>
<path d="M0.822 0.092 Q0.690 0.191 0.855 0.277" stroke="hsl(120.0,100%,35%)" stroke-width="0.00247"></path>
<path d="M0.822 0.092 Q0.999 0.108 1.070 0.026" stroke="hsl(120.0,100%,35%)" stroke-width="0.00247"></path>
<path d="M0.822 0.092 Q0.878 0.087 0.882 0.059" stroke="hsl(120.0,100%,35%)" stroke-width="0.00247"></path>
<path d="M0.822 0.092 Q1.020 0.113 1.105 0.021" stroke="hsl(120.0,100%,35%)" stroke-width="0.00247"></path>
<path d="M0.712 0.975 Q1.090 0.780 0.792 0.552" stroke="hsl(180.0,100%,35%)" stroke-width="0.00495"></path>
<path d="M0.712 0.975 Q1.682 0.831 1.613 0.326" stroke="hsl(180.0,100%,35%)" stroke-width="0.00247"></path>
<path d="M0.712 0.975 Q1.572 0.912 1.636 0.479" stroke="hsl(180.0,100%,35%)" stroke-width="0.00247"></path>
<path d="M1.363 0.969 Q1.668 0.811 1.427 0.629" stroke="hsl(60.0,100%,35%)" stroke-width="0.00247"></path>
<path d="M1.363 0.969 Q1.741 0.625 1.154 0.366" stroke="hsl(60.0,100%,35%)" stroke-width="0.00247"></path>
<path d="M1.363 0.969 Q1.795 0.422 0.822 0.092" stroke="hsl(60.0,100%,35%)" stroke-width="0.00247"></path>
<path d="M1.363 0.969 Q1.323 0.961 1.298 0.979" stroke="hsl(60.0,100%,35%)" stroke-width="0.00247"></path>
<path d="M1.792 0.912 Q1.826 0.820 1.654 0.783" stroke="hsl(240.0,100%,35%)" stroke-width="0.00990"></path>
<path d="M1.792 0.912 Q1.626 0.870 1.506 0.941" stroke="hsl(240.0,100%,35%)" stroke-width="0.02475"></path>
<path d="M1.792 0.912 Q1.836 0.698 1.427 0.629" stroke="hsl(240.0,100%,35%)" stroke-width="0.00495"></path>
<path d="M1.792 0.912 Q1.540 0.651 0.976 0.717" stroke="hsl(240.0,100%,35%)" stroke-width="0.00247"></path>
<path d="M1.110 0.519 Q0.924 0.472 0.792 0.552" stroke="hsl(180.0,100%,35%)" stroke-width="0.06929"></path>
<path d="M1.110 0.519 Q1.035 0.576 1.131 0.625" stroke="hsl(180.0,100%,35%)" stroke-width="0.04702"></path>
<path d="M1.110 0.519 Q1.515 0.523 1.613 0.326" stroke="hsl(180.0,100%,35%)" stroke-width="0.00247"></path>
<path d="M1.110 0.519 Q1.038 0.620 1.220 0.677" stroke="hsl(180.0,100%,35%)" stroke-width="0.00742"></path>
<path d="M1.110 0.519 Q1.303 0.783 1.861 0.747" stroke="hsl(180.0,100%,35%)" stroke-width="0.00742"></path>
<path d="M0.792 0.552 Q0.978 0.599 1.110 0.519" stroke="hsl(180.0,100%,35%)" stroke-width="0.02227"></path>
<path d="M0.792 0.552 Q0.903 0.657 1.131 0.625" stroke="hsl(180.0,100%,35%)" stroke-width="0.01980"></path>
<path d="M0.792 0.552 Q0.539 0.783 0.933 0.957" stroke="hsl(180.0,100%,35%)" stroke-width="0.00247"></path>
<path d="M0.792 0.552 Q1.383 0.604 1.613 0.326" stroke="hsl(180.0,100%,35%)" stroke-width="0.00247"></path>
<path d="M0.792 0.552 Q0.609 0.674 0.807 0.790" stroke="hsl(180.0,100%,35%)" stroke-width="0.00247"></path>
<path d="M0.792 0.552 Q1.171 0.863 1.861 0.747" stroke="hsl(180.0,100%,35%)" stroke-width="0.00247"></path>
<path d="M1.131 0.625 Q1.020 0.521 0.792 0.552" stroke="hsl(180.0,100%,35%)" stroke-width="0.01980"></path>
<path d="M1.131 0.625 Q1.756 0.585 1.815 0.271" stroke="hsl(180.0,100%,35%)" stroke-width="0.00247"></path>
<path d="M1.131 0.625 Q0.945 0.608 0.869 0.695" stroke="hsl(180.0,100%,35%)" stroke-width="0.00247"></path>
<path d="M1.131 0.625 Q0.642 0.717 0.712 0.975" stroke="hsl(180.0,100%,35%)" stroke-width="0.00495"></path>
<path d="M1.131 0.625 Q1.399 0.832 1.861 0.747" stroke="hsl(180.0,100%,35%)" stroke-width="0.00742"></path>
<path d="M0.933 0.957 Q1.186 0.726 0.792 0.552" stroke="hsl(60.0,100%,35%)" stroke-width="0.00495"></path>
<path d="M0.933 0.957 Q1.004 0.848 0.807 0.790" stroke="hsl(60.0,100%,35%)" stroke-width="0.00990"></path>
<path d="M0.933 0.957 Q0.808 0.922 0.712 0.975" stroke="hsl(60.0,100%,35%)" stroke-width="0.01485"></path>
<path d="M0.933 0.957 Q0.991 0.997 1.083 0.978" stroke="hsl(60.0,100%,35%)" stroke-width="0.00495"></path>
<path d="M0.807 0.790 Q0.923 0.918 1.198 0.889" stroke="hsl(60.0,100%,35%)" stroke-width="0.00247"></path>
<path d="M0.807 0.790 Q0.737 0.899 0.933 0.957" stroke="hsl(60.0,100%,35%)" stroke-width="0.00495"></path>
<path d="M0.807 0.790 Q0.612 0.864 0.712 0.975" stroke="hsl(60.0,100%,35%)" stroke-width="0.00247"></path>
<path d="M0.263 0.658 Q0.183 0.608 0.066 0.635" stroke="hsl(60.0,100%,35%)" stroke-width="0.00247"></path>
<path d="M0.263 0.658 Q0.942 0.690 1.154 0.366" stroke="hsl(60.0,100%,35%)" stroke-width="0.00247"></path>
<path d="M0.263 0.658 Q0.869 0.876 1.427 0.629" stroke="hsl(60.0,100%,35%)" stroke-width="0.00247"></path>
<path d="M0.263 0.658 Q0.376 0.676 0.435 0.624" stroke="hsl(60.0,100%,35%)" stroke-width="0.00495"></path>
<path d="M0.263 0.658 Q0.311 0.710 0.423 0.698" stroke="hsl(60.0,100%,35%)" stroke-width="0.00247"></path>
<path d="M0.263 0.658 Q0.212 0.593 0.074 0.604" stroke="hsl(60.0,100%,35%)" stroke-width="0.00247"></path>
<path d="M0.263 0.658 Q0.465 0.750 0.689 0.672" stroke="hsl(60.0,100%,35%)" stroke-width="0.00247"></path>
<path d="M0.263 0.658 Q1.203 0.763 1.613 0.326" stroke="hsl(60.0,100%,35%)" stroke-width="0.00247"></path>
<path d="M0.263 0.658 Q0.494 0.536 0.307 0.397" stroke="hsl(60.0,100%,35%)" stroke-width="0.00742"></path>
<path d="M0.263 0.658 Q0.312 0.599 0.207 0.562" stroke="hsl(60.0,100%,35%)" stroke-width="0.00247"></path>
<path d="M0.263 0.658 Q0.939 0.679 1.127 0.354" stroke="hsl(60.0,100%,35%)" stroke-width="0.00247"></path>
<path d="M0.263 0.658 Q0.256 0.568 0.079 0.552" stroke="hsl(60.0,100%,35%)" stroke-width="0.00247"></path>
<path d="M1.427 0.629 Q1.416 0.667 1.489 0.681" stroke="hsl(60.0,100%,35%)" stroke-width="0.00247"></path>
<path d="M1.427 0.629 Q1.360 0.681 1.448 0.725" stroke="hsl(60.0,100%,35%)" stroke-width="0.00247"></path>
<path d="M1.427 0.629 Q1.123 0.786 1.363 0.969" stroke="hsl(60.0,100%,35%)" stroke-width="0.00247"></path>
<path d="M0.307 0.397 Q0.429 0.463 0.585 0.418" stroke="hsl(60.0,100%,35%)" stroke-width="0.00990"></path>
<path d="M0.307 0.397 Q0.380 0.336 0.277 0.287" stroke="hsl(60.0,100%,35%)" stroke-width="0.00990"></path>
<path d="M0.307 0.397 Q0.429 0.340 0.346 0.268" stroke="hsl(60.0,100%,35%)" stroke-width="0.02722"></path>
<path d="M1.269 0.444 Q1.300 0.473 1.362 0.464" stroke="hsl(120.0,100%,35%)" stroke-width="0.00247"></path>
<path d="M1.269 0.444 Q1.281 0.472 1.338 0.473" stroke="hsl(120.0,100%,35%)" stroke-width="0.00247"></path>
<path d="M1.269 0.444 Q1.270 0.371 1.127 0.354" stroke="hsl(120.0,100%,35%)" stroke-width="0.00495"></path>
<path d="M0.590 0.848 Q0.660 0.785 0.551 0.737" stroke="hsl(120.0,100%,35%)" stroke-width="0.00247"></path>
<path d="M0.590 0.848 Q1.756 0.773 1.864 0.188" stroke="hsl(120.0,100%,35%)" stroke-width="0.00247"></path>
<path d="M0.590 0.848 Q1.602 0.904 1.933 0.423" stroke="hsl(120.0,100%,35%)" stroke-width="0.00247"></path>
<path d="M0.590 0.848 Q0.712 0.790 0.624 0.717" stroke="hsl(120.0,100%,35%)" stroke-width="0.00247"></path>
<path d="M1.933 0.423 Q1.023 0.224 0.435 0.624" stroke="hsl(60.0,100%,35%)" stroke-width="0.00495"></path>
<path d="M1.933 0.423 Q1.844 0.393 1.765 0.430" stroke="hsl(60.0,100%,35%)" stroke-width="0.00495"></path>
<path d="M1.933 0.423 Q2.050 0.371 1.973 0.302" stroke="hsl(60.0,100%,35%)" stroke-width="0.00247"></path>
<path d="M1.506 0.941 Q1.672 0.984 1.792 0.912" stroke="hsl(240.0,100%,35%)" stroke-width="0.05444"></path>
<path d="M1.506 0.941 Q0.905 0.725 0.351 0.971" stroke="hsl(240.0,100%,35%)" stroke-width="0.00742"></path>
<path d="M1.506 0.941 Q1.706 0.891 1.654 0.783" stroke="hsl(240.0,100%,35%)" stroke-width="0.00247"></path>
<path d="M1.506 0.941 Q0.913 0.650 0.214 0.875" stroke="hsl(240.0,100%,35%)" stroke-width="0.01237"></path>
<path d="M1.762 0.690 Q1.498 0.532 1.131 0.625" stroke="hsl(180.0,100%,35%)" stroke-width="0.01980"></path>
<path d="M1.762 0.690 Q1.134 0.658 0.933 0.957" stroke="hsl(180.0,100%,35%)" stroke-width="0.00247"></path>
<path d="M1.762 0.690 Q1.766 0.738 1.861 0.747" stroke="hsl(180.0,100%,35%)" stroke-width="0.02227"></path>
<path d="M1.762 0.690 Q1.978 0.479 1.613 0.326" stroke="hsl(180.0,100%,35%)" stroke-width="0.00247"></path>
<path d="M1.762 0.690 Q1.573 0.474 1.110 0.519" stroke="hsl(180.0,100%,35%)" stroke-width="0.00495"></path>
<path d="M1.762 0.690 Q1.387 0.427 0.792 0.552" stroke="hsl(180.0,100%,35%)" stroke-width="0.00247"></path>
<path d="M1.815 0.271 Q1.190 0.312 1.131 0.625" stroke="hsl(180.0,100%,35%)" stroke-width="0.00247"></path>
<path d="M1.815 0.271 Q1.078 0.207 0.792 0.552" stroke="hsl(180.0,100%,35%)" stroke-width="0.00990"></path>
<path d="M1.815 0.271 Q1.670 0.259 1.613 0.326" stroke="hsl(180.0,100%,35%)" stroke-width="0.01237"></path>
<path d="M0.344 0.099 Q0.627 0.274 1.030 0.174" stroke="hsl(120.0,100%,35%)" stroke-width="0.00495"></path>
<path d="M0.344 0.099 Q0.457 0.290 0.855 0.277" stroke="hsl(120.0,100%,35%)" stroke-width="0.00495"></path>
<path d="M0.344 0.099 Q-0.174 0.434 0.367 0.761" stroke="hsl(120.0,100%,35%)" stroke-width="0.00247"></path>
<path d="M1.030 0.174 Q0.860 0.191 0.855 0.277" stroke="hsl(120.0,100%,35%)" stroke-width="0.00990"></path>
<path d="M1.030 0.174 Q0.992 0.092 0.822 0.092" stroke="hsl(120.0,100%,35%)" stroke-width="0.00495"></path>
<path d="M1.030 0.174 Q0.865 0.481 1.427 0.629" stroke="hsl(120.0,100%,35%)" stroke-width="0.00247"></path>
<path d="M1.030 0.174 Q0.948 0.149 0.881 0.184" stroke="hsl(120.0,100%,35%)" stroke-width="0.00495"></path>
<path d="M1.030 0.174 Q0.960 0.236 1.064 0.283" stroke="hsl(120.0,100%,35%)" stroke-width="0.00247"></path>
<path d="M1.030 0.174 Q0.230 0.335 0.367 0.761" stroke="hsl(120.0,100%,35%)" stroke-width="0.00247"></path>
<path d="M0.256 0.771 Q1.029 0.748 1.154 0.366" stroke="hsl(120.0,100%,35%)" stroke-width="0.00247"></path>
<path d="M0.256 0.771 Q1.120 0.627 1.030 0.174" stroke="hsl(120.0,100%,35%)" stroke-width="0.00247"></path>
<path d="M0.256 0.771 Q0.320 0.788 0.367 0.761" stroke="hsl(120.0,100%,35%)" stroke-width="0.00495"></path>
<path d="M0.256 0.771 Q0.182 0.728 0.081 0.755" stroke="hsl(120.0,100%,35%)" stroke-width="0.00247"></path>
<path d="M1.660 0.548 Q1.703 0.509 1.636 0.479" stroke="hsl(60.0,100%,35%)" stroke-width="0.00247"></path>
<path d="M1.660 0.548 Q1.707 0.577 1.775 0.560" stroke="hsl(60.0,100%,35%)" stroke-width="0.00247"></path>
<path d="M1.660 0.548 Q1.810 0.538 1.823 0.462" stroke="hsl(60.0,100%,35%)" stroke-width="0.00247"></path>
<path d="M1.353 0.801 Q1.946 0.728 1.933 0.423" stroke="hsl(60.0,100%,35%)" stroke-width="0.00247"></path>
<path d="M1.353 0.801 Q0.893 0.760 0.712 0.975" stroke="hsl(60.0,100%,35%)" stroke-width="0.00247"></path>
<path d="M1.353 0.801 Q1.402 0.763 1.337 0.731" stroke="hsl(60.0,100%,35%)" stroke-width="0.00247"></path>
<path d="M1.353 0.801 Q1.234 0.817 1.239 0.879" stroke="hsl(60.0,100%,35%)" stroke-width="0.00247"></path>
<path d="M1.353 0.801 Q1.323 0.773 1.261 0.781" stroke="hsl(60.0,100%,35%)" stroke-width="0.00247"></path>
<path d="M1.353 0.801 Q1.427 0.825 1.490 0.794" stroke="hsl(60.0,100%,35%)" stroke-width="0.00247"></path>
<path d="M0.197 0.077 Q-0.223 0.541 0.590 0.848" stroke="hsl(120.0,100%,35%)" stroke-width="0.00495"></path>
<path d="M0.197 0.077 Q0.177 0.099 0.216 0.113" stroke="hsl(120.0,100%,35%)" stroke-width="0.00247"></path>
<path d="M0.197 0.077 Q0.253 0.117 0.344 0.099" stroke="hsl(120.0,100%,35%)" stroke-width="0.01980"></path>
<path d="M0.197 0.077 Q-0.122 0.398 0.435 0.624" stroke="hsl(120.0,100%,35%)" stroke-width="0.00247"></path>
<path d="M0.197 0.077 Q0.087 0.114 0.135 0.176" stroke="hsl(120.0,100%,35%)" stroke-width="0.00247"></path>
<path d="M0.197 0.077 Q0.090 0.102 0.115 0.160" stroke="hsl(120.0,100%,35%)" stroke-width="0.00247"></path>
<path d="M0.197 0.077 Q0.366 0.309 0.855 0.277" stroke="hsl(120.0,100%,35%)" stroke-width="0.00247"></path>
<path d="M0.197 0.077 Q0.080 0.118 0.134 0.184" stroke="hsl(120.0,100%,35%)" stroke-width="0.00247"></path>
<path d="M0.585 0.418 Q0.788 0.368 0.735 0.258" stroke="hsl(60.0,100%,35%)" stroke-width="0.00742"></path>
<path d="M0.585 0.418 Q0.463 0.352 0.307 0.397" stroke="hsl(60.0,100%,35%)" stroke-width="0.02969"></path>
<path d="M0.585 0.418 Q1.062 0.459 1.246 0.235" stroke="hsl(60.0,100%,35%)" stroke-width="0.00990"></path>
<path d="M0.585 0.418 Q0.203 0.722 0.712 0.975" stroke="hsl(60.0,100%,35%)" stroke-width="0.00247"></path>
<path d="M0.585 0.418 Q0.960 0.838 1.861 0.747" stroke="hsl(60.0,100%,35%)" stroke-width="0.00247"></path>
<path d="M1.246 0.235 Q1.382 0.265 1.471 0.205" stroke="hsl(60.0,100%,35%)" stroke-width="0.00990"></path>
<path d="M1.246 0.235 Q1.254 0.291 1.366 0.299" stroke="hsl(60.0,100%,35%)" stroke-width="0.01485"></path>
<path d="M1.246 0.235 Q1.360 0.212 1.340 0.151" stroke="hsl(60.0,100%,35%)" stroke-width="0.00742"></path>
<path d="M1.246 0.235 Q1.318 0.169 1.205 0.120" stroke="hsl(60.0,100%,35%)" stroke-width="0.00247"></path>
<path d="M1.246 0.235 Q1.377 0.175 1.290 0.098" stroke="hsl(60.0,100%,35%)" stroke-width="0.00247"></path>
<path d="M1.246 0.235 Q0.769 0.194 0.585 0.418" stroke="hsl(60.0,100%,35%)" stroke-width="0.00495"></path>
<path d="M0.060 0.475 Q0.100 0.499 0.154 0.484" stroke="hsl(60.0,100%,35%)" stroke-width="0.00742"></path>
<path d="M0.060 0.475 Q0.064 0.548 0.207 0.562" stroke="hsl(60.0,100%,35%)" stroke-width="0.00742"></path>
<path d="M0.060 0.475 Q-0.001 0.534 0.101 0.577" stroke="hsl(60.0,100%,35%)" stroke-width="0.00742"></path>
<path d="M0.793 0.437 Q0.839 0.408 0.791 0.379" stroke="hsl(300.0,100%,35%)" stroke-width="0.00247"></path>
<path d="M0.793 0.437 Q0.905 0.413 0.882 0.353" stroke="hsl(300.0,100%,35%)" stroke-width="0.00247"></path>
<path d="M0.793 0.437 Q0.774 0.441 0.778 0.451" stroke="hsl(300.0,100%,35%)" stroke-width="0.00247"></path>
<path d="M1.473 0.569 Q1.627 0.557 1.636 0.479" stroke="hsl(60.0,100%,35%)" stroke-width="0.00247"></path>
<path d="M1.473 0.569 Q1.737 0.476 1.613 0.326" stroke="hsl(60.0,100%,35%)" stroke-width="0.00495"></path>
<path d="M1.473 0.569 Q1.412 0.621 1.499 0.662" stroke="hsl(60.0,100%,35%)" stroke-width="0.00247"></path>
<path d="M1.473 0.569 Q1.146 0.424 0.792 0.552" stroke="hsl(60.0,100%,35%)" stroke-width="0.00247"></path>
<path d="M1.473 0.569 Q1.555 0.493 1.424 0.436" stroke="hsl(60.0,100%,35%)" stroke-width="0.00247"></path>
<path d="M1.424 0.436 Q1.527 0.483 1.642 0.444" stroke="hsl(60.0,100%,35%)" stroke-width="0.00742"></path>
<path d="M1.424 0.436 Q1.342 0.512 1.473 0.569" stroke="hsl(60.0,100%,35%)" stroke-width="0.01237"></path>
<path d="M1.424 0.436 Q1.606 0.419 1.613 0.326" stroke="hsl(60.0,100%,35%)" stroke-width="0.00990"></path>
<path d="M1.424 0.436 Q1.799 0.276 1.569 0.058" stroke="hsl(60.0,100%,35%)" stroke-width="0.00247"></path>
<path d="M1.877 0.107 Q1.234 0.278 1.427 0.629" stroke="hsl(240.0,100%,35%)" stroke-width="0.00247"></path>
<path d="M1.877 0.107 Q1.806 0.145 1.864 0.188" stroke="hsl(240.0,100%,35%)" stroke-width="0.00247"></path>
<path d="M1.877 0.107 Q1.841 0.056 1.734 0.062" stroke="hsl(240.0,100%,35%)" stroke-width="0.00247"></path>
<path d="M1.877 0.107 Q1.855 0.127 1.891 0.142" stroke="hsl(240.0,100%,35%)" stroke-width="0.00247"></path>
<path d="M0.976 0.341 Q0.851 0.190 0.527 0.218" stroke="hsl(60.0,100%,35%)" stroke-width="0.00742"></path>
<path d="M0.976 0.341 Q1.045 0.389 1.154 0.366" stroke="hsl(60.0,100%,35%)" stroke-width="0.00742"></path>
<path d="M0.976 0.341 Q0.897 0.376 0.947 0.422" stroke="hsl(60.0,100%,35%)" stroke-width="0.00247"></path>
<path d="M0.527 0.218 Q0.628 0.203 0.622 0.151" stroke="hsl(120.0,100%,35%)" stroke-width="0.00495"></path>
<path d="M0.527 0.218 Q0.475 0.276 0.576 0.314" stroke="hsl(120.0,100%,35%)" stroke-width="0.00247"></path>
<path d="M0.527 0.218 Q0.718 0.138 0.604 0.028" stroke="hsl(120.0,100%,35%)" stroke-width="0.00247"></path>
<path d="M0.576 0.314 Q0.629 0.256 0.527 0.218" stroke="hsl(120.0,100%,35%)" stroke-width="0.00742"></path>
<path d="M0.576 0.314 Q0.642 0.398 0.820 0.385" stroke="hsl(120.0,100%,35%)" stroke-width="0.00247"></path>
<path d="M0.576 0.314 Q0.877 0.252 0.822 0.092" stroke="hsl(120.0,100%,35%)" stroke-width="0.00247"></path>
<path d="M0.351 0.971 Q0.359 0.896 0.214 0.875" stroke="hsl(240.0,100%,35%)" stroke-width="0.02969"></path>
<path d="M0.351 0.971 Q0.300 0.932 0.213 0.948" stroke="hsl(240.0,100%,35%)" stroke-width="0.00742"></path>
<path d="M0.351 0.971 Q1.290 0.626 0.822 0.092" stroke="hsl(240.0,100%,35%)" stroke-width="0.00247"></path>
<path d="M0.351 0.971 Q0.267 0.948 0.204 0.984" stroke="hsl(240.0,100%,35%)" stroke-width="0.00247"></path>
<path d="M1.569 0.058 Q1.266 0.282 1.636 0.479" stroke="hsl(60.0,100%,35%)" stroke-width="0.00247"></path>
<path d="M1.569 0.058 Q0.548 0.114 0.435 0.624" stroke="hsl(60.0,100%,35%)" stroke-width="0.00247"></path>
<path d="M1.569 0.058 Q1.644 0.084 1.712 0.053" stroke="hsl(60.0,100%,35%)" stroke-width="0.00247"></path>
<path d="M1.673 0.169 Q1.625 0.106 1.491 0.115" stroke="hsl(60.0,100%,35%)" stroke-width="0.00742"></path>
<path d="M1.673 0.169 Q1.615 0.156 1.575 0.181" stroke="hsl(60.0,100%,35%)" stroke-width="0.00247"></path>
<path d="M1.673 0.169 Q1.594 0.155 1.549 0.191" stroke="hsl(60.0,100%,35%)" stroke-width="0.00247"></path>
<path d="M1.673 0.169 Q1.543 0.147 1.471 0.205" stroke="hsl(60.0,100%,35%)" stroke-width="0.00247"></path>
<path d="M0.921 0.480 Q0.870 0.432 0.765 0.446" stroke="hsl(180.0,100%,35%)" stroke-width="0.00247"></path>
<path d="M0.921 0.480 Q1.129 0.469 1.154 0.366" stroke="hsl(180.0,100%,35%)" stroke-width="0.00495"></path>
<path d="M0.921 0.480 Q0.799 0.490 0.792 0.552" stroke="hsl(180.0,100%,35%)" stroke-width="0.00990"></path>
<path d="M0.921 0.480 Q0.913 0.638 1.220 0.677" stroke="hsl(180.0,100%,35%)" stroke-width="0.00247"></path>
<path d="M0.921 0.480 Q0.751 0.813 1.363 0.969" stroke="hsl(180.0,100%,35%)" stroke-width="0.00247"></path>
</g>
<text x="1.927" y="0.588" font-size="0.017638" fill="hsl(0.0,100%,20%)">abergman</text>
<text x="1.744" y="0.529" font-size="0.009428" fill="hsl(0.0,100%,20%)">svenzheng</text>
<text x="1.812" y="0.552" font-size="0.006667" fill="hsl(0.0,100%,20%)">jamescook</text>
<text x="1.923" y="0.511" font-size="0.011547" fill="hsl(0.0,100%,20%)">seewaifu</text>
<text x="1.777" y="0.537" font-size="0.006667" fill="hsl(0.0,100%,20%)">mblsha</text>
<text x="1.094" y="0.750" font-size="0.022111" fill="hsl(60.0,100%,20%)">adrian.ratiu</text>
<text x="0.976" y="0.712" font-size="0.009428" fill="hsl(60.0,100%,20%)">chungsheng</text>
<text x="1.200" y="0.868" font-size="0.006667" fill="hsl(60.0,100%,20%)">wyuang</text>
<text x="0.822" y="0.076" font-size="0.031269" fill="hsl(120.0,100%,20%)">vapier</text>
<text x="0.712" y="0.962" font-size="0.026667" fill="hsl(180.0,100%,20%)">ejcaruso</text>
<text x="1.198" y="0.885" font-size="0.009428" fill="hsl(60.0,100%,20%)">madhavadas</text>
<text x="1.132" y="0.822" font-size="0.006667" fill="hsl(60.0,100%,20%)">vshenvi</text>
<text x="1.261" y="0.777" font-size="0.009428" fill="hsl(60.0,100%,20%)">lbaraz</text>
<text x="1.363" y="0.960" font-size="0.017638" fill="hsl(60.0,100%,20%)">uekawa</text>
<text x="1.310" y="0.843" font-size="0.006667" fill="hsl(60.0,100%,20%)">joelhockey</text>
<text x="1.239" y="0.874" font-size="0.009428" fill="hsl(60.0,100%,20%)">jasonling</text>
<text x="1.792" y="0.891" font-size="0.042164" fill="hsl(240.0,100%,20%)">byronlee</text>
<text x="1.110" y="0.492" font-size="0.053748" fill="hsl(180.0,100%,20%)">akahuang</text>
<text x="0.792" y="0.524" font-size="0.056569" fill="hsl(180.0,100%,20%)">hugobenichi</text>
<text x="1.131" y="0.602" font-size="0.047610" fill="hsl(180.0,100%,20%)">jiejiang</text>
<text x="1.613" y="0.313" font-size="0.026667" fill="hsl(60.0,100%,20%)">matthewmwang</text>
<text x="1.220" y="0.670" font-size="0.013333" fill="hsl(180.0,100%,20%)">jasongustaman</text>
<text x="1.861" y="0.733" font-size="0.027487" fill="hsl(180.0,100%,20%)">taoyl</text>
<text x="0.933" y="0.943" font-size="0.028284" fill="hsl(60.0,100%,20%)">aleksandermj</text>
<text x="0.807" y="0.780" font-size="0.020000" fill="hsl(60.0,100%,20%)">andrewlassalle</text>
<text x="1.083" y="0.973" font-size="0.009428" fill="hsl(60.0,100%,20%)">rmao</text>
<text x="0.263" y="0.646" font-size="0.025820" fill="hsl(60.0,100%,20%)">amoylan</text>
<text x="0.066" y="0.632" font-size="0.006667" fill="hsl(60.0,100%,20%)">amandadeacon</text>
<text x="1.154" y="0.356" font-size="0.018856" fill="hsl(60.0,100%,20%)">keiichiw</text>
<text x="1.427" y="0.619" font-size="0.020000" fill="hsl(60.0,100%,20%)">hidehiko</text>
<text x="0.435" y="0.616" font-size="0.016330" fill="hsl(60.0,100%,20%)">iby</text>
<text x="0.423" y="0.695" font-size="0.006667" fill="hsl(60.0,100%,20%)">aidazolic</text>
<text x="0.074" y="0.601" font-size="0.006667" fill="hsl(60.0,100%,20%)">mpolzer</text>
<text x="0.689" y="0.668" font-size="0.006667" fill="hsl(60.0,100%,20%)">yoshiki</text>
<text x="0.307" y="0.377" font-size="0.038873" fill="hsl(60.0,100%,20%)">yich</text>
<text x="0.207" y="0.555" font-size="0.013333" fill="hsl(60.0,100%,20%)">jcliang</text>
<text x="1.127" y="0.348" font-size="0.011547" fill="hsl(60.0,100%,20%)">nmuggli</text>
<text x="0.079" y="0.549" font-size="0.006667" fill="hsl(60.0,100%,20%)">alanlxl</text>
<text x="1.269" y="0.437" font-size="0.013333" fill="hsl(120.0,100%,20%)">bmgordon</text>
<text x="1.362" y="0.460" font-size="0.006667" fill="hsl(120.0,100%,20%)">pawliczek</text>
<text x="1.338" y="0.469" font-size="0.006667" fill="hsl(60.0,100%,20%)">aaronmassey</text>
<text x="0.590" y="0.840" font-size="0.016330" fill="hsl(120.0,100%,20%)">briannorris</text>
<text x="0.551" y="0.734" font-size="0.006667" fill="hsl(120.0,100%,20%)">puthik</text>
<text x="1.864" y="0.183" font-size="0.009428" fill="hsl(240.0,100%,20%)">xiyuan</text>
<text x="1.933" y="0.414" font-size="0.017638" fill="hsl(60.0,100%,20%)">mutexlox</text>
<text x="0.624" y="0.714" font-size="0.006667" fill="hsl(120.0,100%,20%)">fshao</text>
<text x="1.654" y="0.776" font-size="0.014907" fill="hsl(240.0,100%,20%)">toyoshim</text>
<text x="1.506" y="0.919" font-size="0.042687" fill="hsl(240.0,100%,20%)">weiluanwang</text>
<text x="1.762" y="0.675" font-size="0.031269" fill="hsl(180.0,100%,20%)">chenzikai</text>
<text x="1.815" y="0.260" font-size="0.022111" fill="hsl(180.0,100%,20%)">damiendejean</text>
<text x="0.344" y="0.087" font-size="0.024037" fill="hsl(120.0,100%,20%)">dlunev</text>
<text x="1.030" y="0.159" font-size="0.031269" fill="hsl(120.0,100%,20%)">kimjae</text>
<text x="0.855" y="0.268" font-size="0.018856" fill="hsl(120.0,100%,20%)">sarthakkukreti</text>
<text x="0.367" y="0.754" font-size="0.013333" fill="hsl(120.0,100%,20%)">jorgelo</text>
<text x="0.256" y="0.763" font-size="0.014907" fill="hsl(120.0,100%,20%)">drmasquatch</text>
<text x="0.081" y="0.751" font-size="0.006667" fill="hsl(120.0,100%,20%)">dverkamp</text>
<text x="1.660" y="0.542" font-size="0.011547" fill="hsl(60.0,100%,20%)">druth</text>
<text x="1.636" y="0.472" font-size="0.013333" fill="hsl(60.0,100%,20%)">norvez</text>
<text x="1.775" y="0.557" font-size="0.006667" fill="hsl(60.0,100%,20%)">sammc</text>
<text x="1.823" y="0.459" font-size="0.006667" fill="hsl(60.0,100%,20%)">jessemcguire</text>
<text x="1.353" y="0.793" font-size="0.016330" fill="hsl(60.0,100%,20%)">emaxx</text>
<text x="1.337" y="0.727" font-size="0.006667" fill="hsl(60.0,100%,20%)">ayaelattar</text>
<text x="1.490" y="0.791" font-size="0.006667" fill="hsl(60.0,100%,20%)">rrangel</text>
<text x="0.197" y="0.063" font-size="0.026667" fill="hsl(120.0,100%,20%)">gwendal</text>
<text x="0.216" y="0.110" font-size="0.006667" fill="hsl(120.0,100%,20%)">asavery</text>
<text x="0.135" y="0.173" font-size="0.006667" fill="hsl(120.0,100%,20%)">aaronyu</text>
<text x="0.115" y="0.156" font-size="0.006667" fill="hsl(120.0,100%,20%)">denniskempin</text>
<text x="0.134" y="0.181" font-size="0.006667" fill="hsl(120.0,100%,20%)">momohatt</text>
<text x="0.585" y="0.401" font-size="0.034641" fill="hsl(60.0,100%,20%)">hcyang</text>
<text x="0.735" y="0.253" font-size="0.011547" fill="hsl(60.0,100%,20%)">patrykd</text>
<text x="1.246" y="0.219" font-size="0.030551" fill="hsl(60.0,100%,20%)">jadmanski</text>
<text x="1.489" y="0.677" font-size="0.006667" fill="hsl(240.0,100%,20%)">hashimoto</text>
<text x="1.448" y="0.722" font-size="0.006667" fill="hsl(240.0,100%,20%)">chibar</text>
<text x="0.060" y="0.465" font-size="0.020000" fill="hsl(60.0,100%,20%)">imranziad</text>
<text x="0.154" y="0.478" font-size="0.011547" fill="hsl(60.0,100%,20%)">kamesan</text>
<text x="0.101" y="0.571" font-size="0.011547" fill="hsl(60.0,100%,20%)">okuji</text>
<text x="1.471" y="0.198" font-size="0.014907" fill="hsl(60.0,100%,20%)">betuls</text>
<text x="1.366" y="0.291" font-size="0.016330" fill="hsl(60.0,100%,20%)">lziest</text>
<text x="1.340" y="0.145" font-size="0.011547" fill="hsl(60.0,100%,20%)">hardikgoyal</text>
<text x="1.205" y="0.116" font-size="0.006667" fill="hsl(60.0,100%,20%)">rborzello</text>
<text x="1.290" y="0.095" font-size="0.006667" fill="hsl(60.0,100%,20%)">antrim</text>
<text x="0.869" y="0.691" font-size="0.006667" fill="hsl(180.0,100%,20%)">ujjwalpande</text>
<text x="0.793" y="0.431" font-size="0.011547" fill="hsl(300.0,100%,20%)">jingyliang</text>
<text x="0.791" y="0.375" font-size="0.006667" fill="hsl(300.0,100%,20%)">jiwan</text>
<text x="0.882" y="0.350" font-size="0.006667" fill="hsl(300.0,100%,20%)">aaboagye</text>
<text x="0.778" y="0.448" font-size="0.006667" fill="hsl(300.0,100%,20%)">hbarnor</text>
<text x="1.473" y="0.558" font-size="0.022111" fill="hsl(60.0,100%,20%)">jintaolin</text>
<text x="1.499" y="0.659" font-size="0.006667" fill="hsl(60.0,100%,20%)">nikhilcn</text>
<text x="1.424" y="0.423" font-size="0.024944" fill="hsl(60.0,100%,20%)">kglund</text>
<text x="1.877" y="0.100" font-size="0.013333" fill="hsl(240.0,100%,20%)">joshuapius</text>
<text x="1.734" y="0.059" font-size="0.006667" fill="hsl(240.0,100%,20%)">mcasas</text>
<text x="1.891" y="0.139" font-size="0.006667" fill="hsl(120.0,100%,20%)">kdgwill</text>
<text x="0.976" y="0.333" font-size="0.017638" fill="hsl(60.0,100%,20%)">kalutes</text>
<text x="0.527" y="0.207" font-size="0.021082" fill="hsl(120.0,100%,20%)">stevensd</text>
<text x="0.947" y="0.419" font-size="0.006667" fill="hsl(120.0,100%,20%)">cwd</text>
<text x="0.576" y="0.306" font-size="0.016330" fill="hsl(120.0,100%,20%)">kawasin</text>
<text x="0.820" y="0.381" font-size="0.006667" fill="hsl(120.0,100%,20%)">youssefesmat</text>
<text x="0.351" y="0.956" font-size="0.029814" fill="hsl(240.0,100%,20%)">kerker</text>
<text x="0.214" y="0.862" font-size="0.027487" fill="hsl(240.0,100%,20%)">dennyh</text>
<text x="0.213" y="0.942" font-size="0.011547" fill="hsl(240.0,100%,20%)">zubeil</text>
<text x="0.204" y="0.981" font-size="0.006667" fill="hsl(240.0,100%,20%)">skyostil</text>
<text x="1.642" y="0.438" font-size="0.011547" fill="hsl(60.0,100%,20%)">jsiuda</text>
<text x="1.569" y="0.051" font-size="0.013333" fill="hsl(60.0,100%,20%)">kuabhs</text>
<text x="0.881" y="0.179" font-size="0.009428" fill="hsl(120.0,100%,20%)">yuanpengni</text>
<text x="1.064" y="0.280" font-size="0.006667" fill="hsl(120.0,100%,20%)">hardtmad</text>
<text x="1.712" y="0.049" font-size="0.006667" fill="hsl(60.0,100%,20%)">jrosenth</text>
<text x="1.765" y="0.425" font-size="0.009428" fill="hsl(120.0,100%,20%)">kendraketsui</text>
<text x="1.973" y="0.299" font-size="0.006667" fill="hsl(120.0,100%,20%)">yaohuali</text>
<text x="1.673" y="0.161" font-size="0.016330" fill="hsl(60.0,100%,20%)">nicholasbishop</text>
<text x="1.491" y="0.109" font-size="0.011547" fill="hsl(60.0,100%,20%)">tinghaolin</text>
<text x="1.575" y="0.178" font-size="0.006667" fill="hsl(60.0,100%,20%)">justinoue</text>
<text x="1.549" y="0.188" font-size="0.006667" fill="hsl(60.0,100%,20%)">tbrandston</text>
<text x="0.921" y="0.470" font-size="0.020000" fill="hsl(180.0,100%,20%)">ningyuan</text>
<text x="0.765" y="0.443" font-size="0.006667" fill="hsl(60.0,100%,20%)">hollingum</text>
<text x="0.622" y="0.146" font-size="0.009428" fill="hsl(120.0,100%,20%)">bgeffon</text>
<text x="0.604" y="0.024" font-size="0.006667" fill="hsl(120.0,100%,20%)">allenwebb</text>
<text x="1.298" y="0.976" font-size="0.006667" fill="hsl(240.0,100%,20%)">jamesye</text>
<text x="1.048" y="0.099" font-size="0.009428" fill="hsl(120.0,100%,20%)">fdegros</text>
<text x="1.107" y="0.091" font-size="0.006667" fill="hsl(120.0,100%,20%)">xcl</text>
<text x="1.070" y="0.023" font-size="0.006667" fill="hsl(120.0,100%,20%)">lokeric</text>
<text x="0.882" y="0.056" font-size="0.006667" fill="hsl(120.0,100%,20%)">sfrolov</text>
<text x="1.105" y="0.018" font-size="0.006667" fill="hsl(120.0,100%,20%)">gbiv</text>
<text x="0.277" y="0.280" font-size="0.013333" fill="hsl(60.0,100%,20%)">jkardatzke</text>
<text x="0.346" y="0.257" font-size="0.022111" fill="hsl(60.0,100%,20%)">chingkang</text>
</svg>
