<svg width="4000" height="2000" viewBox="-0.025 -0.025 2.05 1.05" xmlns="http://www.w3.org/2000/svg">
  <style>
    path {
      fill: none;
      stroke-linecap: round;
      stroke-opacity: 0.4;
    }

    text {
      text-anchor: middle;
      alignment-baseline: hanging;
    }
  </style>
  <g opacity="0.4">
<path d="M1.640 0.696 Q0.991 0.344 0.163 0.583" stroke="hsl(0.0,100%,35%)" stroke-width="0.00883"></path>
<path d="M1.640 0.696 Q1.738 0.747 1.859 0.710" stroke="hsl(0.0,100%,35%)" stroke-width="0.00883"></path>
<path d="M1.640 0.696 Q1.603 0.697 1.597 0.715" stroke="hsl(0.0,100%,35%)" stroke-width="0.00883"></path>
<path d="M0.163 0.583 Q0.031 0.678 0.187 0.763" stroke="hsl(0.0,100%,35%)" stroke-width="0.00883"></path>
<path d="M0.163 0.583 Q0.230 0.681 0.435 0.670" stroke="hsl(0.0,100%,35%)" stroke-width="0.00883"></path>
<path d="M0.163 0.583 Q0.381 0.645 0.549 0.552" stroke="hsl(0.0,100%,35%)" stroke-width="0.00883"></path>
<path d="M0.163 0.583 Q0.414 0.923 1.133 0.875" stroke="hsl(0.0,100%,35%)" stroke-width="0.01766"></path>
<path d="M1.307 0.660 Q1.460 0.672 1.516 0.600" stroke="hsl(120.0,100%,35%)" stroke-width="0.00883"></path>
<path d="M1.307 0.660 Q1.145 0.562 0.919 0.619" stroke="hsl(120.0,100%,35%)" stroke-width="0.00883"></path>
<path d="M1.307 0.660 Q1.627 0.704 1.784 0.558" stroke="hsl(120.0,100%,35%)" stroke-width="0.00883"></path>
<path d="M1.383 0.517 Q1.276 0.443 1.107 0.479" stroke="hsl(0.0,100%,35%)" stroke-width="0.04414"></path>
<path d="M1.383 0.517 Q1.576 0.367 1.325 0.239" stroke="hsl(0.0,100%,35%)" stroke-width="0.00883"></path>
<path d="M1.383 0.517 Q1.467 0.709 1.859 0.710" stroke="hsl(0.0,100%,35%)" stroke-width="0.00883"></path>
<path d="M0.451 0.448 Q0.669 0.466 0.753 0.364" stroke="hsl(120.0,100%,35%)" stroke-width="0.00883"></path>
<path d="M0.451 0.448 Q0.339 0.384 0.189 0.424" stroke="hsl(120.0,100%,35%)" stroke-width="0.02648"></path>
<path d="M0.451 0.448 Q0.937 0.393 0.938 0.144" stroke="hsl(120.0,100%,35%)" stroke-width="0.00883"></path>
<path d="M0.451 0.448 Q0.709 0.725 1.307 0.660" stroke="hsl(120.0,100%,35%)" stroke-width="0.00883"></path>
<path d="M0.383 0.283 Q0.288 0.201 0.108 0.230" stroke="hsl(0.0,100%,35%)" stroke-width="0.02648"></path>
<path d="M0.383 0.283 Q0.589 0.526 1.107 0.479" stroke="hsl(0.0,100%,35%)" stroke-width="0.02648"></path>
<path d="M0.383 0.283 Q0.538 0.235 0.477 0.148" stroke="hsl(0.0,100%,35%)" stroke-width="0.01766"></path>
<path d="M1.133 0.875 Q1.160 1.003 1.416 1.018" stroke="hsl(240.0,100%,35%)" stroke-width="0.15891"></path>
<path d="M1.133 0.875 Q1.122 0.673 0.725 0.633" stroke="hsl(240.0,100%,35%)" stroke-width="0.01766"></path>
<path d="M1.133 0.875 Q0.960 0.873 0.917 0.956" stroke="hsl(240.0,100%,35%)" stroke-width="0.03531"></path>
<path d="M1.133 0.875 Q1.194 0.740 0.944 0.681" stroke="hsl(240.0,100%,35%)" stroke-width="0.00883"></path>
<path d="M1.133 0.875 Q0.959 0.806 0.786 0.875" stroke="hsl(240.0,100%,35%)" stroke-width="0.00883"></path>
<path d="M1.133 0.875 Q1.493 0.888 1.597 0.715" stroke="hsl(240.0,100%,35%)" stroke-width="0.00883"></path>
<path d="M1.133 0.875 Q0.902 0.820 0.745 0.921" stroke="hsl(240.0,100%,35%)" stroke-width="0.00883"></path>
<path d="M1.133 0.875 Q1.343 0.881 1.402 0.780" stroke="hsl(240.0,100%,35%)" stroke-width="0.00883"></path>
</g>
<text x="1.640" y="0.680" font-size="0.031363" fill="hsl(0.0,100%,20%)">akhna</text>
<text x="0.163" y="0.561" font-size="0.044353" fill="hsl(0.0,100%,20%)">vapier</text>
<text x="1.859" y="0.697" font-size="0.025607" fill="hsl(0.0,100%,20%)">allenwebb</text>
<text x="1.597" y="0.702" font-size="0.025607" fill="hsl(0.0,100%,20%)">jorgelo</text>
<text x="1.307" y="0.642" font-size="0.036214" fill="hsl(120.0,100%,20%)">andrzejo</text>
<text x="1.516" y="0.591" font-size="0.018107" fill="hsl(120.0,100%,20%)">kglund</text>
<text x="0.919" y="0.610" font-size="0.018107" fill="hsl(120.0,100%,20%)">jintaolin</text>
<text x="1.784" y="0.549" font-size="0.018107" fill="hsl(120.0,100%,20%)">matthewmwang</text>
<text x="1.383" y="0.493" font-size="0.047907" fill="hsl(0.0,100%,20%)">dverkamp</text>
<text x="1.107" y="0.453" font-size="0.051215" fill="hsl(0.0,100%,20%)">uekawa</text>
<text x="1.325" y="0.230" font-size="0.018107" fill="hsl(0.0,100%,20%)">zihanchen</text>
<text x="0.451" y="0.426" font-size="0.044353" fill="hsl(120.0,100%,20%)">jiejiang</text>
<text x="0.753" y="0.355" font-size="0.018107" fill="hsl(120.0,100%,20%)">garrick</text>
<text x="0.189" y="0.408" font-size="0.031363" fill="hsl(120.0,100%,20%)">hugobenichi</text>
<text x="0.938" y="0.135" font-size="0.018107" fill="hsl(120.0,100%,20%)">jasongustaman</text>
<text x="0.383" y="0.258" font-size="0.051215" fill="hsl(0.0,100%,20%)">kalutes</text>
<text x="0.108" y="0.214" font-size="0.031363" fill="hsl(0.0,100%,20%)">stevensd</text>
<text x="0.477" y="0.136" font-size="0.025607" fill="hsl(0.0,100%,20%)">kawasin</text>
<text x="1.133" y="0.825" font-size="0.100816" fill="hsl(240.0,100%,20%)">kimjae</text>
<text x="1.416" y="0.980" font-size="0.076822" fill="hsl(240.0,100%,20%)">spothire</text>
<text x="0.725" y="0.621" font-size="0.025607" fill="hsl(240.0,100%,20%)">abutzier</text>
<text x="0.917" y="0.938" font-size="0.036214" fill="hsl(240.0,100%,20%)">yuanpengni</text>
<text x="0.944" y="0.672" font-size="0.018107" fill="hsl(240.0,100%,20%)">lbaraz</text>
<text x="0.786" y="0.866" font-size="0.018107" fill="hsl(240.0,100%,20%)">pawliczek</text>
<text x="0.745" y="0.912" font-size="0.018107" fill="hsl(240.0,100%,20%)">jasonling</text>
<text x="1.402" y="0.771" font-size="0.018107" fill="hsl(240.0,100%,20%)">dtor</text>
<text x="0.187" y="0.754" font-size="0.018107" fill="hsl(0.0,100%,20%)">tomhughes</text>
<text x="0.435" y="0.661" font-size="0.018107" fill="hsl(0.0,100%,20%)">dpad</text>
<text x="0.549" y="0.542" font-size="0.018107" fill="hsl(0.0,100%,20%)">sarthakkukreti</text>
</svg>
