<svg width="4000" height="2000" viewBox="-0.025 -0.025 2.05 1.05" xmlns="http://www.w3.org/2000/svg">
  <style>
    path {
      fill: none;
      stroke-linecap: round;
      stroke-opacity: 0.4;
    }

    text {
      text-anchor: middle;
      alignment-baseline: hanging;
    }
  </style>
  <g opacity="0.4">
<path d="M1.311 0.313 Q1.478 0.337 1.561 0.261" stroke="hsl(0.0,100%,35%)" stroke-width="0.06875"></path>
<path d="M1.311 0.313 Q1.297 0.607 1.868 0.679" stroke="hsl(0.0,100%,35%)" stroke-width="0.00859"></path>
<path d="M1.311 0.313 Q1.367 0.269 1.292 0.232" stroke="hsl(0.0,100%,35%)" stroke-width="0.04010"></path>
<path d="M1.311 0.313 Q1.267 0.507 1.635 0.571" stroke="hsl(0.0,100%,35%)" stroke-width="0.00286"></path>
<path d="M1.561 0.261 Q1.350 0.431 1.635 0.571" stroke="hsl(0.0,100%,35%)" stroke-width="0.01146"></path>
<path d="M1.561 0.261 Q1.381 0.531 1.868 0.679" stroke="hsl(0.0,100%,35%)" stroke-width="0.00859"></path>
<path d="M1.561 0.261 Q1.395 0.237 1.311 0.313" stroke="hsl(0.0,100%,35%)" stroke-width="0.01432"></path>
<path d="M1.868 0.679 Q1.895 0.703 1.948 0.695" stroke="hsl(0.0,100%,35%)" stroke-width="0.00573"></path>
<path d="M1.868 0.679 Q1.587 0.510 1.195 0.610" stroke="hsl(0.0,100%,35%)" stroke-width="0.00573"></path>
<path d="M1.868 0.679 Q1.837 0.578 1.635 0.571" stroke="hsl(0.0,100%,35%)" stroke-width="0.01146"></path>
<path d="M1.868 0.679 Q1.555 0.571 1.276 0.700" stroke="hsl(0.0,100%,35%)" stroke-width="0.00286"></path>
<path d="M1.868 0.679 Q2.049 0.409 1.561 0.261" stroke="hsl(0.0,100%,35%)" stroke-width="0.00573"></path>
<path d="M1.635 0.571 Q1.665 0.672 1.868 0.679" stroke="hsl(0.0,100%,35%)" stroke-width="0.01146"></path>
<path d="M1.635 0.571 Q1.521 0.250 0.869 0.236" stroke="hsl(0.0,100%,35%)" stroke-width="0.00286"></path>
<path d="M1.635 0.571 Q1.846 0.402 1.561 0.261" stroke="hsl(0.0,100%,35%)" stroke-width="0.02578"></path>
<path d="M1.635 0.571 Q1.679 0.378 1.311 0.313" stroke="hsl(0.0,100%,35%)" stroke-width="0.01432"></path>
<path d="M1.635 0.571 Q1.805 0.541 1.783 0.451" stroke="hsl(0.0,100%,35%)" stroke-width="0.00573"></path>
<path d="M1.195 0.610 Q0.647 0.647 0.599 0.923" stroke="hsl(45.0,100%,35%)" stroke-width="0.00286"></path>
<path d="M1.195 0.610 Q1.074 0.550 0.930 0.596" stroke="hsl(45.0,100%,35%)" stroke-width="0.00286"></path>
<path d="M1.195 0.610 Q1.098 0.588 1.033 0.631" stroke="hsl(45.0,100%,35%)" stroke-width="0.00286"></path>
<path d="M1.195 0.610 Q1.163 0.671 1.276 0.700" stroke="hsl(45.0,100%,35%)" stroke-width="0.00859"></path>
<path d="M1.195 0.610 Q1.086 0.672 1.183 0.739" stroke="hsl(45.0,100%,35%)" stroke-width="0.00286"></path>
<path d="M1.195 0.610 Q1.092 0.582 1.015 0.626" stroke="hsl(45.0,100%,35%)" stroke-width="0.00286"></path>
<path d="M1.195 0.610 Q1.237 0.544 1.118 0.510" stroke="hsl(45.0,100%,35%)" stroke-width="0.00286"></path>
<path d="M0.958 0.999 Q1.050 1.014 1.100 0.972" stroke="hsl(45.0,100%,35%)" stroke-width="0.00859"></path>
<path d="M0.958 0.999 Q1.332 1.067 1.548 0.900" stroke="hsl(45.0,100%,35%)" stroke-width="0.00573"></path>
<path d="M0.958 0.999 Q1.292 0.997 1.364 0.834" stroke="hsl(45.0,100%,35%)" stroke-width="0.00286"></path>
<path d="M0.958 0.999 Q0.977 0.987 0.959 0.975" stroke="hsl(45.0,100%,35%)" stroke-width="0.00286"></path>
<path d="M1.548 0.900 Q1.740 0.432 0.869 0.236" stroke="hsl(45.0,100%,35%)" stroke-width="0.00573"></path>
<path d="M1.548 0.900 Q1.266 0.846 1.100 0.972" stroke="hsl(45.0,100%,35%)" stroke-width="0.00859"></path>
<path d="M1.548 0.900 Q1.641 0.854 1.572 0.798" stroke="hsl(45.0,100%,35%)" stroke-width="0.02578"></path>
<path d="M1.548 0.900 Q1.508 0.830 1.364 0.834" stroke="hsl(45.0,100%,35%)" stroke-width="0.00859"></path>
<path d="M1.548 0.900 Q1.508 0.948 1.595 0.978" stroke="hsl(45.0,100%,35%)" stroke-width="0.00859"></path>
<path d="M1.548 0.900 Q1.626 0.392 0.652 0.242" stroke="hsl(45.0,100%,35%)" stroke-width="0.00286"></path>
<path d="M1.548 0.900 Q1.513 0.812 1.334 0.810" stroke="hsl(45.0,100%,35%)" stroke-width="0.00286"></path>
<path d="M1.548 0.900 Q1.504 0.852 1.401 0.863" stroke="hsl(45.0,100%,35%)" stroke-width="0.00286"></path>
<path d="M0.998 0.275 Q0.965 0.230 0.869 0.236" stroke="hsl(90.0,100%,35%)" stroke-width="0.00573"></path>
<path d="M0.998 0.275 Q0.893 0.265 0.850 0.314" stroke="hsl(90.0,100%,35%)" stroke-width="0.00573"></path>
<path d="M0.998 0.275 Q1.049 0.149 0.814 0.096" stroke="hsl(90.0,100%,35%)" stroke-width="0.00573"></path>
<path d="M0.064 0.639 Q0.050 0.689 0.144 0.707" stroke="hsl(45.0,100%,35%)" stroke-width="0.00286"></path>
<path d="M0.064 0.639 Q0.340 0.797 0.707 0.697" stroke="hsl(45.0,100%,35%)" stroke-width="0.00286"></path>
<path d="M0.064 0.639 Q0.316 1.013 1.100 0.972" stroke="hsl(45.0,100%,35%)" stroke-width="0.00286"></path>
<path d="M0.707 0.697 Q0.612 0.656 0.513 0.694" stroke="hsl(45.0,100%,35%)" stroke-width="0.00286"></path>
<path d="M0.707 0.697 Q0.775 0.702 0.800 0.670" stroke="hsl(45.0,100%,35%)" stroke-width="0.00286"></path>
<path d="M0.707 0.697 Q0.600 0.626 0.439 0.663" stroke="hsl(45.0,100%,35%)" stroke-width="0.00286"></path>
<path d="M0.486 0.862 Q0.332 0.857 0.288 0.931" stroke="hsl(90.0,100%,35%)" stroke-width="0.00286"></path>
<path d="M0.486 0.862 Q0.385 0.804 0.250 0.840" stroke="hsl(90.0,100%,35%)" stroke-width="0.02865"></path>
<path d="M0.486 0.862 Q1.042 0.878 1.195 0.610" stroke="hsl(90.0,100%,35%)" stroke-width="0.00286"></path>
<path d="M0.486 0.862 Q0.625 0.552 0.052 0.416" stroke="hsl(90.0,100%,35%)" stroke-width="0.00286"></path>
<path d="M0.250 0.840 Q0.149 0.870 0.186 0.926" stroke="hsl(90.0,100%,35%)" stroke-width="0.00286"></path>
<path d="M0.250 0.840 Q1.132 0.843 1.332 0.413" stroke="hsl(90.0,100%,35%)" stroke-width="0.00286"></path>
<path d="M0.250 0.840 Q1.107 0.905 1.423 0.501" stroke="hsl(90.0,100%,35%)" stroke-width="0.00286"></path>
<path d="M0.052 0.416 Q0.138 0.425 0.173 0.384" stroke="hsl(90.0,100%,35%)" stroke-width="0.00573"></path>
<path d="M0.052 0.416 Q-0.009 0.457 0.058 0.496" stroke="hsl(90.0,100%,35%)" stroke-width="0.00859"></path>
<path d="M0.052 0.416 Q0.062 0.477 0.183 0.485" stroke="hsl(90.0,100%,35%)" stroke-width="0.00286"></path>
<path d="M0.052 0.416 Q0.930 0.641 1.561 0.261" stroke="hsl(90.0,100%,35%)" stroke-width="0.00286"></path>
<path d="M0.052 0.416 Q0.750 0.911 1.868 0.679" stroke="hsl(90.0,100%,35%)" stroke-width="0.00286"></path>
<path d="M0.052 0.416 Q0.491 0.449 0.652 0.242" stroke="hsl(90.0,100%,35%)" stroke-width="0.00573"></path>
<path d="M0.052 0.416 Q0.469 0.742 1.195 0.610" stroke="hsl(90.0,100%,35%)" stroke-width="0.00286"></path>
<path d="M0.052 0.416 Q0.328 0.614 0.774 0.523" stroke="hsl(90.0,100%,35%)" stroke-width="0.00286"></path>
<path d="M1.107 0.430 Q1.208 0.529 1.423 0.501" stroke="hsl(90.0,100%,35%)" stroke-width="0.01146"></path>
<path d="M1.107 0.430 Q1.171 0.415 1.156 0.381" stroke="hsl(90.0,100%,35%)" stroke-width="0.01432"></path>
<path d="M1.107 0.430 Q1.233 0.466 1.332 0.413" stroke="hsl(90.0,100%,35%)" stroke-width="0.00859"></path>
<path d="M1.423 0.501 Q1.448 0.439 1.332 0.413" stroke="hsl(90.0,100%,35%)" stroke-width="0.00573"></path>
<path d="M1.423 0.501 Q1.362 0.518 1.382 0.552" stroke="hsl(90.0,100%,35%)" stroke-width="0.00286"></path>
<path d="M1.423 0.501 Q1.370 0.169 0.710 0.122" stroke="hsl(90.0,100%,35%)" stroke-width="0.00286"></path>
<path d="M1.423 0.501 Q1.190 0.571 1.276 0.700" stroke="hsl(90.0,100%,35%)" stroke-width="0.00286"></path>
<path d="M0.563 0.738 Q0.563 0.802 0.688 0.816" stroke="hsl(135.0,100%,35%)" stroke-width="0.00286"></path>
<path d="M0.563 0.738 Q0.622 0.786 0.729 0.767" stroke="hsl(135.0,100%,35%)" stroke-width="0.00286"></path>
<path d="M0.563 0.738 Q0.566 0.770 0.629 0.775" stroke="hsl(135.0,100%,35%)" stroke-width="0.00286"></path>
<path d="M1.661 0.658 Q1.747 0.710 1.868 0.679" stroke="hsl(0.0,100%,35%)" stroke-width="0.01432"></path>
<path d="M1.661 0.658 Q1.717 0.609 1.635 0.571" stroke="hsl(0.0,100%,35%)" stroke-width="0.01719"></path>
<path d="M1.661 0.658 Q1.761 0.416 1.311 0.313" stroke="hsl(0.0,100%,35%)" stroke-width="0.01432"></path>
<path d="M1.661 0.658 Q1.928 0.439 1.561 0.261" stroke="hsl(0.0,100%,35%)" stroke-width="0.00573"></path>
<path d="M0.973 0.507 Q0.982 0.496 0.964 0.490" stroke="hsl(90.0,100%,35%)" stroke-width="0.00286"></path>
<path d="M0.973 0.507 Q0.969 0.664 1.276 0.700" stroke="hsl(90.0,100%,35%)" stroke-width="0.00286"></path>
<path d="M0.973 0.507 Q0.912 0.532 0.949 0.568" stroke="hsl(90.0,100%,35%)" stroke-width="0.00286"></path>
<path d="M1.826 0.325 Q1.040 0.027 0.284 0.345" stroke="hsl(90.0,100%,35%)" stroke-width="0.00286"></path>
<path d="M1.826 0.325 Q1.958 0.299 1.936 0.229" stroke="hsl(90.0,100%,35%)" stroke-width="0.00573"></path>
<path d="M1.826 0.325 Q1.591 0.535 1.948 0.695" stroke="hsl(90.0,100%,35%)" stroke-width="0.00286"></path>
<path d="M1.826 0.325 Q1.753 0.328 1.742 0.364" stroke="hsl(90.0,100%,35%)" stroke-width="0.00286"></path>
<path d="M1.936 0.229 Q1.121 0.030 0.554 0.383" stroke="hsl(90.0,100%,35%)" stroke-width="0.00286"></path>
<path d="M1.936 0.229 Q1.928 0.158 1.789 0.146" stroke="hsl(90.0,100%,35%)" stroke-width="0.00286"></path>
<path d="M1.936 0.229 Q1.888 0.187 1.796 0.201" stroke="hsl(90.0,100%,35%)" stroke-width="0.00286"></path>
<path d="M1.248 0.903 Q1.181 0.842 1.047 0.861" stroke="hsl(90.0,100%,35%)" stroke-width="0.00286"></path>
<path d="M1.248 0.903 Q1.267 0.845 1.158 0.823" stroke="hsl(90.0,100%,35%)" stroke-width="0.00286"></path>
<path d="M1.248 0.903 Q1.424 0.807 1.276 0.700" stroke="hsl(90.0,100%,35%)" stroke-width="0.00286"></path>
<path d="M1.248 0.903 Q1.213 0.431 0.284 0.345" stroke="hsl(90.0,100%,35%)" stroke-width="0.00286"></path>
<path d="M1.047 0.861 Q1.132 0.864 1.158 0.823" stroke="hsl(90.0,100%,35%)" stroke-width="0.00573"></path>
<path d="M1.047 0.861 Q1.523 0.756 1.423 0.501" stroke="hsl(90.0,100%,35%)" stroke-width="0.00286"></path>
<path d="M1.047 0.861 Q1.732 0.464 1.109 0.043" stroke="hsl(90.0,100%,35%)" stroke-width="0.00286"></path>
<path d="M1.047 0.861 Q1.451 0.840 1.498 0.638" stroke="hsl(90.0,100%,35%)" stroke-width="0.00286"></path>
<path d="M0.540 0.315 Q0.193 0.636 0.743 0.875" stroke="hsl(90.0,100%,35%)" stroke-width="0.00286"></path>
<path d="M0.540 0.315 Q0.463 0.325 0.465 0.365" stroke="hsl(90.0,100%,35%)" stroke-width="0.00286"></path>
<path d="M0.540 0.315 Q0.492 0.352 0.554 0.383" stroke="hsl(90.0,100%,35%)" stroke-width="0.00859"></path>
<path d="M0.715 0.946 Q0.785 0.916 0.743 0.875" stroke="hsl(90.0,100%,35%)" stroke-width="0.00573"></path>
<path d="M0.715 0.946 Q1.353 0.949 1.498 0.638" stroke="hsl(90.0,100%,35%)" stroke-width="0.00286"></path>
<path d="M0.715 0.946 Q0.676 0.911 0.599 0.923" stroke="hsl(90.0,100%,35%)" stroke-width="0.00573"></path>
<path d="M0.715 0.946 Q1.634 0.573 1.109 0.043" stroke="hsl(90.0,100%,35%)" stroke-width="0.00286"></path>
<path d="M1.109 0.043 Q1.125 0.067 1.175 0.065" stroke="hsl(90.0,100%,35%)" stroke-width="0.00286"></path>
<path d="M1.109 0.043 Q1.090 0.023 1.047 0.028" stroke="hsl(90.0,100%,35%)" stroke-width="0.00573"></path>
<path d="M1.109 0.043 Q1.122 0.342 1.708 0.401" stroke="hsl(90.0,100%,35%)" stroke-width="0.00286"></path>
<path d="M0.067 0.181 Q0.121 0.172 0.117 0.144" stroke="hsl(90.0,100%,35%)" stroke-width="0.00286"></path>
<path d="M0.067 0.181 Q0.148 0.379 0.554 0.383" stroke="hsl(90.0,100%,35%)" stroke-width="0.00286"></path>
<path d="M0.067 0.181 Q0.051 0.186 0.056 0.194" stroke="hsl(90.0,100%,35%)" stroke-width="0.00286"></path>
<path d="M0.774 0.523 Q0.814 0.589 0.952 0.584" stroke="hsl(90.0,100%,35%)" stroke-width="0.00573"></path>
<path d="M0.774 0.523 Q1.590 0.608 1.936 0.229" stroke="hsl(90.0,100%,35%)" stroke-width="0.00286"></path>
<path d="M0.774 0.523 Q0.770 0.577 0.875 0.591" stroke="hsl(90.0,100%,35%)" stroke-width="0.00286"></path>
<path d="M0.774 0.523 Q1.196 0.820 1.868 0.679" stroke="hsl(90.0,100%,35%)" stroke-width="0.00286"></path>
<path d="M1.572 0.798 Q1.479 0.844 1.548 0.900" stroke="hsl(45.0,100%,35%)" stroke-width="0.04297"></path>
<path d="M1.572 0.798 Q1.535 0.629 1.195 0.610" stroke="hsl(45.0,100%,35%)" stroke-width="0.00859"></path>
<path d="M1.572 0.798 Q1.843 0.822 1.948 0.695" stroke="hsl(45.0,100%,35%)" stroke-width="0.00286"></path>
<path d="M1.572 0.798 Q1.370 0.655 1.046 0.722" stroke="hsl(45.0,100%,35%)" stroke-width="0.02578"></path>
<path d="M1.572 0.798 Q1.520 0.741 1.396 0.754" stroke="hsl(45.0,100%,35%)" stroke-width="0.00286"></path>
<path d="M1.046 0.722 Q0.908 0.741 0.916 0.812" stroke="hsl(45.0,100%,35%)" stroke-width="0.02578"></path>
<path d="M1.046 0.722 Q1.248 0.866 1.572 0.798" stroke="hsl(45.0,100%,35%)" stroke-width="0.00286"></path>
<path d="M1.046 0.722 Q0.879 0.675 0.751 0.747" stroke="hsl(45.0,100%,35%)" stroke-width="0.00286"></path>
<path d="M1.046 0.722 Q1.309 0.304 0.551 0.083" stroke="hsl(45.0,100%,35%)" stroke-width="0.00286"></path>
<path d="M1.046 0.722 Q1.358 0.355 0.710 0.122" stroke="hsl(45.0,100%,35%)" stroke-width="0.00286"></path>
<path d="M0.916 0.812 Q1.162 0.983 1.548 0.900" stroke="hsl(45.0,100%,35%)" stroke-width="0.00286"></path>
<path d="M0.916 0.812 Q1.255 0.937 1.572 0.798" stroke="hsl(45.0,100%,35%)" stroke-width="0.00286"></path>
<path d="M0.916 0.812 Q0.880 0.929 1.100 0.972" stroke="hsl(45.0,100%,35%)" stroke-width="0.00286"></path>
<path d="M0.551 0.083 Q0.600 0.135 0.710 0.122" stroke="hsl(45.0,100%,35%)" stroke-width="0.00573"></path>
<path d="M0.551 0.083 Q0.150 0.521 0.916 0.812" stroke="hsl(45.0,100%,35%)" stroke-width="0.00286"></path>
<path d="M0.551 0.083 Q0.588 0.223 0.869 0.236" stroke="hsl(45.0,100%,35%)" stroke-width="0.00286"></path>
<path d="M1.947 0.555 Q1.951 0.430 1.708 0.401" stroke="hsl(90.0,100%,35%)" stroke-width="0.01146"></path>
<path d="M1.947 0.555 Q1.656 0.507 1.498 0.638" stroke="hsl(90.0,100%,35%)" stroke-width="0.00859"></path>
<path d="M1.947 0.555 Q1.925 0.522 1.855 0.525" stroke="hsl(90.0,100%,35%)" stroke-width="0.00286"></path>
<path d="M0.297 0.069 Q0.293 0.109 0.371 0.119" stroke="hsl(180.0,100%,35%)" stroke-width="0.00286"></path>
<path d="M0.297 0.069 Q0.210 0.057 0.169 0.097" stroke="hsl(180.0,100%,35%)" stroke-width="0.00859"></path>
<path d="M0.297 0.069 Q0.193 0.067 0.167 0.118" stroke="hsl(180.0,100%,35%)" stroke-width="0.00286"></path>
<path d="M0.652 0.242 Q0.618 0.303 0.729 0.333" stroke="hsl(90.0,100%,35%)" stroke-width="0.00286"></path>
<path d="M0.652 0.242 Q0.609 0.190 0.497 0.199" stroke="hsl(90.0,100%,35%)" stroke-width="0.00286"></path>
<path d="M0.652 0.242 Q0.608 0.266 0.644 0.293" stroke="hsl(90.0,100%,35%)" stroke-width="0.00286"></path>
<path d="M0.652 0.242 Q1.305 0.492 1.936 0.229" stroke="hsl(90.0,100%,35%)" stroke-width="0.00286"></path>
<path d="M1.890 0.125 Q1.829 0.186 1.936 0.229" stroke="hsl(90.0,100%,35%)" stroke-width="0.00859"></path>
<path d="M1.890 0.125 Q1.895 0.089 1.827 0.078" stroke="hsl(90.0,100%,35%)" stroke-width="0.00859"></path>
<path d="M1.890 0.125 Q1.122 0.290 1.276 0.700" stroke="hsl(90.0,100%,35%)" stroke-width="0.00573"></path>
<path d="M0.234 0.234 Q0.171 0.299 0.284 0.345" stroke="hsl(90.0,100%,35%)" stroke-width="0.02865"></path>
<path d="M0.234 0.234 Q0.550 0.362 0.869 0.236" stroke="hsl(90.0,100%,35%)" stroke-width="0.00573"></path>
<path d="M0.234 0.234 Q1.089 0.572 1.936 0.229" stroke="hsl(90.0,100%,35%)" stroke-width="0.00573"></path>
<path d="M1.577 0.099 Q1.633 0.095 1.637 0.067" stroke="hsl(225.0,100%,35%)" stroke-width="0.01146"></path>
<path d="M1.577 0.099 Q1.627 0.127 1.692 0.108" stroke="hsl(225.0,100%,35%)" stroke-width="0.00859"></path>
<path d="M1.577 0.099 Q1.576 0.046 1.471 0.035" stroke="hsl(225.0,100%,35%)" stroke-width="0.00286"></path>
<path d="M1.843 0.768 Q1.927 0.728 1.868 0.679" stroke="hsl(0.0,100%,35%)" stroke-width="0.00859"></path>
<path d="M1.843 0.768 Q2.108 0.458 1.561 0.261" stroke="hsl(0.0,100%,35%)" stroke-width="0.00859"></path>
<path d="M1.843 0.768 Q2.067 0.598 1.783 0.451" stroke="hsl(0.0,100%,35%)" stroke-width="0.00286"></path>
<path d="M1.356 0.050 Q1.363 0.038 1.341 0.032" stroke="hsl(270.0,100%,35%)" stroke-width="0.00286"></path>
<path d="M1.356 0.050 Q1.424 0.054 1.446 0.022" stroke="hsl(270.0,100%,35%)" stroke-width="0.00573"></path>
<path d="M1.356 0.050 Q1.322 0.043 1.301 0.058" stroke="hsl(270.0,100%,35%)" stroke-width="0.00286"></path>
<path d="M1.356 0.050 Q1.340 0.095 1.424 0.112" stroke="hsl(270.0,100%,35%)" stroke-width="0.00286"></path>
<path d="M1.356 0.050 Q1.333 0.017 1.263 0.021" stroke="hsl(270.0,100%,35%)" stroke-width="0.00286"></path>
<path d="M1.326 0.529 Q1.284 0.476 1.172 0.485" stroke="hsl(45.0,100%,35%)" stroke-width="0.00573"></path>
<path d="M1.326 0.529 Q1.196 0.543 1.195 0.610" stroke="hsl(45.0,100%,35%)" stroke-width="0.00286"></path>
<path d="M1.326 0.529 Q1.164 0.604 1.276 0.700" stroke="hsl(45.0,100%,35%)" stroke-width="0.00286"></path>
<path d="M0.488 0.511 Q0.480 0.586 0.624 0.607" stroke="hsl(0.0,100%,35%)" stroke-width="0.01146"></path>
<path d="M0.488 0.511 Q1.114 0.532 1.292 0.232" stroke="hsl(0.0,100%,35%)" stroke-width="0.01146"></path>
<path d="M0.488 0.511 Q0.386 0.565 0.469 0.627" stroke="hsl(0.0,100%,35%)" stroke-width="0.00859"></path>
<path d="M0.994 0.129 Q1.120 0.109 1.109 0.043" stroke="hsl(90.0,100%,35%)" stroke-width="0.00573"></path>
<path d="M0.994 0.129 Q1.094 0.175 1.206 0.136" stroke="hsl(90.0,100%,35%)" stroke-width="0.00573"></path>
<path d="M0.994 0.129 Q1.385 0.368 1.936 0.229" stroke="hsl(90.0,100%,35%)" stroke-width="0.00573"></path>
<path d="M0.862 0.408 Q0.777 0.391 0.725 0.429" stroke="hsl(315.0,100%,35%)" stroke-width="0.00573"></path>
<path d="M0.862 0.408 Q0.983 0.418 1.029 0.361" stroke="hsl(315.0,100%,35%)" stroke-width="0.01146"></path>
<path d="M0.862 0.408 Q0.825 0.357 0.717 0.364" stroke="hsl(315.0,100%,35%)" stroke-width="0.00573"></path>
</g>
<text x="1.311" y="0.286" font-size="0.054486" fill="hsl(0.0,100%,20%)">akahuang</text>
<text x="1.561" y="0.235" font-size="0.052540" fill="hsl(0.0,100%,20%)">hugobenichi</text>
<text x="1.868" y="0.659" font-size="0.040182" fill="hsl(0.0,100%,20%)">jiejiang</text>
<text x="1.292" y="0.216" font-size="0.030619" fill="hsl(0.0,100%,20%)">matthewmwang</text>
<text x="1.635" y="0.550" font-size="0.043301" fill="hsl(0.0,100%,20%)">taoyl</text>
<text x="1.195" y="0.595" font-size="0.029756" fill="hsl(45.0,100%,20%)">allenwebb</text>
<text x="0.599" y="0.917" font-size="0.012500" fill="hsl(90.0,100%,20%)">renatopereyra</text>
<text x="0.930" y="0.592" font-size="0.007217" fill="hsl(90.0,100%,20%)">davidriley</text>
<text x="1.033" y="0.627" font-size="0.007217" fill="hsl(90.0,100%,20%)">ryanneph</text>
<text x="1.276" y="0.689" font-size="0.022822" fill="hsl(90.0,100%,20%)">vapier</text>
<text x="1.183" y="0.735" font-size="0.007217" fill="hsl(90.0,100%,20%)">asavery</text>
<text x="1.015" y="0.623" font-size="0.007217" fill="hsl(90.0,100%,20%)">fdegros</text>
<text x="1.118" y="0.506" font-size="0.007217" fill="hsl(90.0,100%,20%)">vsavu</text>
<text x="0.958" y="0.989" font-size="0.019094" fill="hsl(45.0,100%,20%)">anastasiian</text>
<text x="1.100" y="0.962" font-size="0.020412" fill="hsl(45.0,100%,20%)">emaxx</text>
<text x="1.548" y="0.877" font-size="0.046211" fill="hsl(45.0,100%,20%)">yich</text>
<text x="1.364" y="0.827" font-size="0.014434" fill="hsl(45.0,100%,20%)">apronin</text>
<text x="0.959" y="0.972" font-size="0.007217" fill="hsl(90.0,100%,20%)">antrim</text>
<text x="0.998" y="0.266" font-size="0.017678" fill="hsl(90.0,100%,20%)">andrewlassalle</text>
<text x="0.869" y="0.225" font-size="0.020412" fill="hsl(90.0,100%,20%)">ejcaruso</text>
<text x="0.850" y="0.309" font-size="0.010206" fill="hsl(90.0,100%,20%)">pholla</text>
<text x="0.814" y="0.091" font-size="0.010206" fill="hsl(90.0,100%,20%)">danielwinkler</text>
<text x="0.064" y="0.633" font-size="0.012500" fill="hsl(45.0,100%,20%)">artyomchen</text>
<text x="0.144" y="0.703" font-size="0.007217" fill="hsl(45.0,100%,20%)">saklein</text>
<text x="0.707" y="0.689" font-size="0.014434" fill="hsl(45.0,100%,20%)">mpolzer</text>
<text x="0.486" y="0.849" font-size="0.026021" fill="hsl(90.0,100%,20%)">bkersting</text>
<text x="0.288" y="0.927" font-size="0.007217" fill="hsl(90.0,100%,20%)">isandrk</text>
<text x="0.250" y="0.827" font-size="0.026021" fill="hsl(90.0,100%,20%)">nicholasbishop</text>
<text x="0.052" y="0.403" font-size="0.026021" fill="hsl(90.0,100%,20%)">kimjae</text>
<text x="1.107" y="0.417" font-size="0.025000" fill="hsl(90.0,100%,20%)">byronlee</text>
<text x="1.423" y="0.489" font-size="0.023936" fill="hsl(90.0,100%,20%)">kerker</text>
<text x="1.156" y="0.373" font-size="0.016137" fill="hsl(90.0,100%,20%)">weiluanwang</text>
<text x="1.332" y="0.404" font-size="0.017678" fill="hsl(90.0,100%,20%)">dennyh</text>
<text x="0.563" y="0.732" font-size="0.012500" fill="hsl(135.0,100%,20%)">chenjih</text>
<text x="0.688" y="0.812" font-size="0.007217" fill="hsl(135.0,100%,20%)">nbowe</text>
<text x="0.729" y="0.764" font-size="0.007217" fill="hsl(135.0,100%,20%)">dgrebenyuk</text>
<text x="0.629" y="0.771" font-size="0.007217" fill="hsl(135.0,100%,20%)">xiyuan</text>
<text x="1.661" y="0.642" font-size="0.030619" fill="hsl(0.0,100%,20%)">chenzikai</text>
<text x="0.973" y="0.500" font-size="0.012500" fill="hsl(90.0,100%,20%)">curtis.chen</text>
<text x="0.964" y="0.486" font-size="0.007217" fill="hsl(90.0,100%,20%)">timvp</text>
<text x="0.949" y="0.564" font-size="0.007217" fill="hsl(90.0,100%,20%)">khwon</text>
<text x="1.826" y="0.317" font-size="0.016137" fill="hsl(90.0,100%,20%)">dianders</text>
<text x="0.284" y="0.332" font-size="0.025000" fill="hsl(90.0,100%,20%)">bgeffon</text>
<text x="1.936" y="0.215" font-size="0.027003" fill="hsl(90.0,100%,20%)">iby</text>
<text x="1.948" y="0.688" font-size="0.014434" fill="hsl(0.0,100%,20%)">jorgelo</text>
<text x="1.742" y="0.361" font-size="0.007217" fill="hsl(90.0,100%,20%)">hsinyi</text>
<text x="1.248" y="0.896" font-size="0.014434" fill="hsl(90.0,100%,20%)">dmaluka</text>
<text x="1.047" y="0.852" font-size="0.017678" fill="hsl(90.0,100%,20%)">lepton</text>
<text x="1.158" y="0.817" font-size="0.012500" fill="hsl(90.0,100%,20%)">khmel</text>
<text x="0.540" y="0.307" font-size="0.016137" fill="hsl(90.0,100%,20%)">drmasquatch</text>
<text x="0.743" y="0.869" font-size="0.012500" fill="hsl(90.0,100%,20%)">hollingum</text>
<text x="0.465" y="0.361" font-size="0.007217" fill="hsl(90.0,100%,20%)">joelhockey</text>
<text x="0.554" y="0.375" font-size="0.016137" fill="hsl(90.0,100%,20%)">jongahn</text>
<text x="0.715" y="0.937" font-size="0.017678" fill="hsl(90.0,100%,20%)">endlesspring</text>
<text x="1.498" y="0.630" font-size="0.016137" fill="hsl(90.0,100%,20%)">sidereal</text>
<text x="1.109" y="0.033" font-size="0.020412" fill="hsl(90.0,100%,20%)">uekawa</text>
<text x="0.067" y="0.175" font-size="0.012500" fill="hsl(90.0,100%,20%)">enshuo</text>
<text x="0.117" y="0.141" font-size="0.007217" fill="hsl(90.0,100%,20%)">hychao</text>
<text x="0.056" y="0.191" font-size="0.007217" fill="hsl(90.0,100%,20%)">apusaka</text>
<text x="0.774" y="0.514" font-size="0.017678" fill="hsl(90.0,100%,20%)">gwendal</text>
<text x="0.952" y="0.579" font-size="0.010206" fill="hsl(90.0,100%,20%)">xiangdongkong</text>
<text x="0.875" y="0.587" font-size="0.007217" fill="hsl(90.0,100%,20%)">briannorris</text>
<text x="1.572" y="0.776" font-size="0.045644" fill="hsl(45.0,100%,20%)">hcyang</text>
<text x="1.046" y="0.705" font-size="0.033850" fill="hsl(45.0,100%,20%)">jadmanski</text>
<text x="1.396" y="0.750" font-size="0.007217" fill="hsl(45.0,100%,20%)">fqj</text>
<text x="1.789" y="0.143" font-size="0.007217" fill="hsl(90.0,100%,20%)">jhawkins</text>
<text x="1.796" y="0.197" font-size="0.007217" fill="hsl(90.0,100%,20%)">mutexlox</text>
<text x="0.916" y="0.799" font-size="0.026021" fill="hsl(45.0,100%,20%)">lziest</text>
<text x="0.751" y="0.743" font-size="0.007217" fill="hsl(45.0,100%,20%)">hardikgoyal</text>
<text x="0.551" y="0.075" font-size="0.016137" fill="hsl(45.0,100%,20%)">thomascedeno</text>
<text x="0.710" y="0.115" font-size="0.014434" fill="hsl(90.0,100%,20%)">betuls</text>
<text x="1.947" y="0.545" font-size="0.020412" fill="hsl(90.0,100%,20%)">jamesye</text>
<text x="1.708" y="0.393" font-size="0.016137" fill="hsl(90.0,100%,20%)">justinhuang</text>
<text x="1.855" y="0.522" font-size="0.007217" fill="hsl(90.0,100%,20%)">easy</text>
<text x="0.297" y="0.061" font-size="0.016137" fill="hsl(180.0,100%,20%)">kamchonlathorn</text>
<text x="0.371" y="0.116" font-size="0.007217" fill="hsl(180.0,100%,20%)">jcliang</text>
<text x="0.169" y="0.091" font-size="0.012500" fill="hsl(180.0,100%,20%)">kamesan</text>
<text x="0.167" y="0.114" font-size="0.007217" fill="hsl(180.0,100%,20%)">pihsun</text>
<text x="1.382" y="0.549" font-size="0.007217" fill="hsl(90.0,100%,20%)">zubeil</text>
<text x="0.173" y="0.379" font-size="0.010206" fill="hsl(90.0,100%,20%)">spothire</text>
<text x="0.058" y="0.489" font-size="0.012500" fill="hsl(90.0,100%,20%)">yuanpengni</text>
<text x="0.183" y="0.482" font-size="0.007217" fill="hsl(90.0,100%,20%)">waffles</text>
<text x="0.652" y="0.233" font-size="0.019094" fill="hsl(90.0,100%,20%)">sarthakkukreti</text>
<text x="1.890" y="0.114" font-size="0.020412" fill="hsl(90.0,100%,20%)">kuabhs</text>
<text x="1.827" y="0.072" font-size="0.012500" fill="hsl(90.0,100%,20%)">norvez</text>
<text x="0.234" y="0.221" font-size="0.027003" fill="hsl(90.0,100%,20%)">mka</text>
<text x="0.513" y="0.690" font-size="0.007217" fill="hsl(45.0,100%,20%)">bfranz</text>
<text x="0.800" y="0.666" font-size="0.007217" fill="hsl(45.0,100%,20%)">sergiyb</text>
<text x="0.439" y="0.659" font-size="0.007217" fill="hsl(45.0,100%,20%)">igorcov</text>
<text x="1.577" y="0.089" font-size="0.020412" fill="hsl(225.0,100%,20%)">mstaudt</text>
<text x="1.637" y="0.060" font-size="0.014434" fill="hsl(225.0,100%,20%)">hidenorik</text>
<text x="1.692" y="0.102" font-size="0.012500" fill="hsl(225.0,100%,20%)">okuji</text>
<text x="1.471" y="0.031" font-size="0.007217" fill="hsl(225.0,100%,20%)">shik</text>
<text x="0.186" y="0.922" font-size="0.007217" fill="hsl(90.0,100%,20%)">jefferymiller</text>
<text x="1.843" y="0.759" font-size="0.019094" fill="hsl(0.0,100%,20%)">ningyuan</text>
<text x="1.783" y="0.445" font-size="0.012500" fill="hsl(0.0,100%,20%)">jasongustaman</text>
<text x="1.356" y="0.042" font-size="0.017678" fill="hsl(270.0,100%,20%)">pmoy</text>
<text x="1.341" y="0.028" font-size="0.007217" fill="hsl(270.0,100%,20%)">ust</text>
<text x="1.446" y="0.017" font-size="0.010206" fill="hsl(270.0,100%,20%)">nmuggli</text>
<text x="1.301" y="0.054" font-size="0.007217" fill="hsl(270.0,100%,20%)">bryancain</text>
<text x="1.424" y="0.109" font-size="0.007217" fill="hsl(270.0,100%,20%)">aaronmassey</text>
<text x="1.263" y="0.017" font-size="0.007217" fill="hsl(270.0,100%,20%)">akhna</text>
<text x="1.326" y="0.521" font-size="0.014434" fill="hsl(45.0,100%,20%)">rbock</text>
<text x="1.172" y="0.479" font-size="0.010206" fill="hsl(90.0,100%,20%)">fsandrade</text>
<text x="0.729" y="0.330" font-size="0.007217" fill="hsl(45.0,100%,20%)">dlunev</text>
<text x="0.497" y="0.196" font-size="0.007217" fill="hsl(90.0,100%,20%)">swboyd</text>
<text x="0.644" y="0.289" font-size="0.007217" fill="hsl(90.0,100%,20%)">torsha</text>
<text x="0.488" y="0.500" font-size="0.023936" fill="hsl(0.0,100%,20%)">srosek</text>
<text x="0.624" y="0.600" font-size="0.014434" fill="hsl(0.0,100%,20%)">jintaolin</text>
<text x="0.469" y="0.621" font-size="0.012500" fill="hsl(0.0,100%,20%)">kglund</text>
<text x="0.994" y="0.120" font-size="0.017678" fill="hsl(90.0,100%,20%)">stevensd</text>
<text x="1.206" y="0.131" font-size="0.010206" fill="hsl(90.0,100%,20%)">kawasin</text>
<text x="1.175" y="0.061" font-size="0.007217" fill="hsl(90.0,100%,20%)">hungmn</text>
<text x="1.047" y="0.022" font-size="0.010206" fill="hsl(90.0,100%,20%)">keiichiw</text>
<text x="0.862" y="0.398" font-size="0.020412" fill="hsl(315.0,100%,20%)">xuhong</text>
<text x="0.725" y="0.424" font-size="0.010206" fill="hsl(315.0,100%,20%)">vshenvi</text>
<text x="1.029" y="0.354" font-size="0.014434" fill="hsl(315.0,100%,20%)">lbaraz</text>
<text x="0.717" y="0.359" font-size="0.010206" fill="hsl(315.0,100%,20%)">jasonling</text>
<text x="1.595" y="0.972" font-size="0.012500" fill="hsl(45.0,100%,20%)">chingkang</text>
<text x="1.334" y="0.806" font-size="0.007217" fill="hsl(45.0,100%,20%)">jwerner</text>
<text x="1.401" y="0.860" font-size="0.007217" fill="hsl(45.0,100%,20%)">sadmansakib</text>
</svg>
