<svg width="4000" height="2000" viewBox="-0.025 -0.025 2.05 1.05" xmlns="http://www.w3.org/2000/svg">
  <style>
    path {
      fill: none;
      stroke-linecap: round;
      stroke-opacity: 0.4;
    }

    text {
      text-anchor: middle;
      alignment-baseline: hanging;
    }
  </style>
  <g opacity="0.4">
<path d="M1.314 0.631 Q1.264 0.593 1.178 0.609" stroke="hsl(0.0,100%,35%)" stroke-width="0.00518"></path>
<path d="M1.314 0.631 Q1.316 0.660 1.371 0.665" stroke="hsl(0.0,100%,35%)" stroke-width="0.00259"></path>
<path d="M1.314 0.631 Q1.269 0.576 1.152 0.587" stroke="hsl(0.0,100%,35%)" stroke-width="0.00259"></path>
<path d="M1.117 0.352 Q0.933 0.685 1.543 0.848" stroke="hsl(60.0,100%,35%)" stroke-width="0.00259"></path>
<path d="M1.117 0.352 Q0.935 0.778 1.727 0.961" stroke="hsl(60.0,100%,35%)" stroke-width="0.00259"></path>
<path d="M1.117 0.352 Q1.093 0.292 0.972 0.291" stroke="hsl(60.0,100%,35%)" stroke-width="0.00259"></path>
<path d="M1.117 0.352 Q1.005 0.316 0.910 0.363" stroke="hsl(60.0,100%,35%)" stroke-width="0.00259"></path>
<path d="M1.117 0.352 Q1.367 0.331 1.381 0.204" stroke="hsl(60.0,100%,35%)" stroke-width="0.00259"></path>
<path d="M1.543 0.848 Q1.669 0.374 0.772 0.209" stroke="hsl(60.0,100%,35%)" stroke-width="0.00259"></path>
<path d="M1.543 0.848 Q1.171 0.790 0.977 0.960" stroke="hsl(60.0,100%,35%)" stroke-width="0.00259"></path>
<path d="M1.543 0.848 Q1.459 0.788 1.324 0.817" stroke="hsl(60.0,100%,35%)" stroke-width="0.00259"></path>
<path d="M1.381 0.204 Q0.944 0.062 0.572 0.245" stroke="hsl(120.0,100%,35%)" stroke-width="0.00259"></path>
<path d="M1.381 0.204 Q1.405 0.137 1.279 0.111" stroke="hsl(120.0,100%,35%)" stroke-width="0.00259"></path>
<path d="M1.381 0.204 Q1.399 0.158 1.313 0.139" stroke="hsl(120.0,100%,35%)" stroke-width="0.00259"></path>
<path d="M1.381 0.204 Q1.403 0.299 1.593 0.309" stroke="hsl(120.0,100%,35%)" stroke-width="0.00259"></path>
<path d="M1.381 0.204 Q1.233 0.137 1.069 0.195" stroke="hsl(120.0,100%,35%)" stroke-width="0.00259"></path>
<path d="M1.381 0.204 Q0.575 0.501 0.977 0.960" stroke="hsl(120.0,100%,35%)" stroke-width="0.00259"></path>
<path d="M0.900 0.859 Q0.858 0.925 0.977 0.960" stroke="hsl(60.0,100%,35%)" stroke-width="0.06737"></path>
<path d="M0.900 0.859 Q0.720 0.893 0.747 0.988" stroke="hsl(60.0,100%,35%)" stroke-width="0.06478"></path>
<path d="M0.900 0.859 Q0.987 0.833 0.956 0.784" stroke="hsl(60.0,100%,35%)" stroke-width="0.00259"></path>
<path d="M0.900 0.859 Q1.153 0.661 0.824 0.494" stroke="hsl(60.0,100%,35%)" stroke-width="0.00777"></path>
<path d="M0.900 0.859 Q0.803 0.868 0.801 0.918" stroke="hsl(60.0,100%,35%)" stroke-width="0.00777"></path>
<path d="M0.900 0.859 Q1.356 0.509 0.772 0.209" stroke="hsl(60.0,100%,35%)" stroke-width="0.00259"></path>
<path d="M0.977 0.960 Q1.019 0.894 0.900 0.859" stroke="hsl(60.0,100%,35%)" stroke-width="0.02332"></path>
<path d="M0.977 0.960 Q0.840 0.927 0.747 0.988" stroke="hsl(60.0,100%,35%)" stroke-width="0.02591"></path>
<path d="M0.977 0.960 Q1.273 0.696 0.824 0.494" stroke="hsl(60.0,100%,35%)" stroke-width="0.00259"></path>
<path d="M0.977 0.960 Q1.251 0.880 1.156 0.729" stroke="hsl(60.0,100%,35%)" stroke-width="0.00518"></path>
<path d="M0.977 0.960 Q1.247 1.087 1.556 0.984" stroke="hsl(60.0,100%,35%)" stroke-width="0.00259"></path>
<path d="M0.977 0.960 Q1.475 0.543 0.772 0.209" stroke="hsl(60.0,100%,35%)" stroke-width="0.00259"></path>
<path d="M0.747 0.988 Q0.885 1.020 0.977 0.960" stroke="hsl(60.0,100%,35%)" stroke-width="0.01555"></path>
<path d="M0.747 0.988 Q1.562 0.569 0.925 0.080" stroke="hsl(60.0,100%,35%)" stroke-width="0.00259"></path>
<path d="M0.747 0.988 Q1.691 0.723 1.381 0.204" stroke="hsl(60.0,100%,35%)" stroke-width="0.00518"></path>
<path d="M0.747 0.988 Q0.705 0.969 0.661 0.986" stroke="hsl(60.0,100%,35%)" stroke-width="0.00259"></path>
<path d="M0.747 0.988 Q1.180 0.756 0.824 0.494" stroke="hsl(60.0,100%,35%)" stroke-width="0.01036"></path>
<path d="M0.747 0.988 Q0.767 0.899 0.599 0.870" stroke="hsl(60.0,100%,35%)" stroke-width="0.00259"></path>
<path d="M0.747 0.988 Q1.257 1.077 1.543 0.848" stroke="hsl(60.0,100%,35%)" stroke-width="0.00259"></path>
<path d="M1.156 0.729 Q1.187 0.699 1.134 0.677" stroke="hsl(60.0,100%,35%)" stroke-width="0.00259"></path>
<path d="M1.156 0.729 Q1.255 0.866 1.543 0.848" stroke="hsl(60.0,100%,35%)" stroke-width="0.00259"></path>
<path d="M1.156 0.729 Q0.882 0.808 0.977 0.960" stroke="hsl(60.0,100%,35%)" stroke-width="0.00518"></path>
<path d="M1.156 0.729 Q1.152 0.936 1.556 0.984" stroke="hsl(60.0,100%,35%)" stroke-width="0.00259"></path>
<path d="M1.556 0.984 Q1.659 0.913 1.543 0.848" stroke="hsl(60.0,100%,35%)" stroke-width="0.00259"></path>
<path d="M1.556 0.984 Q1.660 1.006 1.727 0.961" stroke="hsl(60.0,100%,35%)" stroke-width="0.00518"></path>
<path d="M1.556 0.984 Q1.704 0.996 1.761 0.927" stroke="hsl(60.0,100%,35%)" stroke-width="0.00259"></path>
<path d="M1.345 0.382 Q1.495 0.344 1.453 0.262" stroke="hsl(120.0,100%,35%)" stroke-width="0.00259"></path>
<path d="M1.345 0.382 Q1.204 0.368 1.146 0.434" stroke="hsl(120.0,100%,35%)" stroke-width="0.00259"></path>
<path d="M1.345 0.382 Q1.294 0.142 0.813 0.114" stroke="hsl(120.0,100%,35%)" stroke-width="0.00259"></path>
<path d="M1.345 0.382 Q0.494 0.286 0.119 0.680" stroke="hsl(120.0,100%,35%)" stroke-width="0.00259"></path>
<path d="M1.345 0.382 Q1.333 0.424 1.411 0.439" stroke="hsl(120.0,100%,35%)" stroke-width="0.00259"></path>
<path d="M1.345 0.382 Q1.406 0.322 1.301 0.279" stroke="hsl(120.0,100%,35%)" stroke-width="0.00259"></path>
<path d="M1.345 0.382 Q1.359 0.326 1.252 0.307" stroke="hsl(120.0,100%,35%)" stroke-width="0.00259"></path>
<path d="M1.345 0.382 Q1.197 0.181 0.772 0.209" stroke="hsl(120.0,100%,35%)" stroke-width="0.00259"></path>
<path d="M1.345 0.382 Q0.741 0.404 0.651 0.704" stroke="hsl(120.0,100%,35%)" stroke-width="0.00777"></path>
<path d="M1.345 0.382 Q1.140 0.406 1.141 0.512" stroke="hsl(120.0,100%,35%)" stroke-width="0.00259"></path>
<path d="M1.345 0.382 Q1.458 0.348 1.415 0.286" stroke="hsl(120.0,100%,35%)" stroke-width="0.00259"></path>
<path d="M0.651 0.704 Q1.258 0.887 1.748 0.631" stroke="hsl(180.0,100%,35%)" stroke-width="0.00259"></path>
<path d="M0.651 0.704 Q0.690 0.732 0.754 0.719" stroke="hsl(180.0,100%,35%)" stroke-width="0.00259"></path>
<path d="M0.651 0.704 Q0.982 0.954 1.543 0.848" stroke="hsl(180.0,100%,35%)" stroke-width="0.00259"></path>
<path d="M0.651 0.704 Q1.287 0.447 0.925 0.080" stroke="hsl(180.0,100%,35%)" stroke-width="0.00259"></path>
<path d="M0.651 0.704 Q0.668 0.742 0.747 0.742" stroke="hsl(180.0,100%,35%)" stroke-width="0.00259"></path>
<path d="M0.651 0.704 Q0.618 0.761 0.722 0.790" stroke="hsl(180.0,100%,35%)" stroke-width="0.00259"></path>
<path d="M0.651 0.704 Q0.796 0.663 0.749 0.583" stroke="hsl(180.0,100%,35%)" stroke-width="0.00259"></path>
<path d="M0.651 0.704 Q0.562 0.640 0.419 0.669" stroke="hsl(180.0,100%,35%)" stroke-width="0.01036"></path>
<path d="M0.651 0.704 Q0.537 0.673 0.454 0.722" stroke="hsl(180.0,100%,35%)" stroke-width="0.02850"></path>
<path d="M0.651 0.704 Q0.766 0.764 0.909 0.721" stroke="hsl(180.0,100%,35%)" stroke-width="0.01036"></path>
<path d="M0.212 0.432 Q0.332 0.457 0.406 0.404" stroke="hsl(120.0,100%,35%)" stroke-width="0.00777"></path>
<path d="M0.212 0.432 Q0.211 0.455 0.256 0.461" stroke="hsl(120.0,100%,35%)" stroke-width="0.00518"></path>
<path d="M0.212 0.432 Q0.331 0.404 0.302 0.340" stroke="hsl(120.0,100%,35%)" stroke-width="0.00259"></path>
<path d="M0.406 0.404 Q0.032 0.549 0.233 0.763" stroke="hsl(120.0,100%,35%)" stroke-width="0.00259"></path>
<path d="M0.406 0.404 Q0.620 0.853 1.543 0.848" stroke="hsl(120.0,100%,35%)" stroke-width="0.00259"></path>
<path d="M0.406 0.404 Q0.541 0.368 0.500 0.294" stroke="hsl(120.0,100%,35%)" stroke-width="0.00259"></path>
<path d="M0.406 0.404 Q0.436 0.369 0.374 0.346" stroke="hsl(120.0,100%,35%)" stroke-width="0.00259"></path>
<path d="M0.406 0.404 Q0.691 0.484 0.910 0.363" stroke="hsl(120.0,100%,35%)" stroke-width="0.00259"></path>
<path d="M0.406 0.404 Q0.463 0.348 0.367 0.308" stroke="hsl(120.0,100%,35%)" stroke-width="0.00259"></path>
<path d="M1.961 0.634 Q1.752 0.636 1.710 0.738" stroke="hsl(240.0,100%,35%)" stroke-width="0.00518"></path>
<path d="M1.961 0.634 Q2.058 0.568 1.951 0.506" stroke="hsl(240.0,100%,35%)" stroke-width="0.00518"></path>
<path d="M1.961 0.634 Q2.031 0.588 1.957 0.543" stroke="hsl(240.0,100%,35%)" stroke-width="0.00259"></path>
<path d="M1.710 0.738 Q1.785 0.755 1.835 0.722" stroke="hsl(240.0,100%,35%)" stroke-width="0.00518"></path>
<path d="M1.710 0.738 Q1.887 0.684 1.822 0.586" stroke="hsl(240.0,100%,35%)" stroke-width="0.00259"></path>
<path d="M1.710 0.738 Q1.858 0.764 1.942 0.698" stroke="hsl(240.0,100%,35%)" stroke-width="0.00259"></path>
<path d="M1.397 0.974 Q1.857 0.519 1.069 0.195" stroke="hsl(120.0,100%,35%)" stroke-width="0.00518"></path>
<path d="M1.397 0.974 Q1.316 0.958 1.267 0.994" stroke="hsl(120.0,100%,35%)" stroke-width="0.00518"></path>
<path d="M1.397 0.974 Q1.848 0.873 1.748 0.631" stroke="hsl(120.0,100%,35%)" stroke-width="0.00259"></path>
<path d="M1.397 0.974 Q1.537 0.984 1.587 0.918" stroke="hsl(120.0,100%,35%)" stroke-width="0.00259"></path>
<path d="M1.069 0.195 Q1.088 0.108 0.925 0.080" stroke="hsl(120.0,100%,35%)" stroke-width="0.00259"></path>
<path d="M1.069 0.195 Q1.218 0.262 1.381 0.204" stroke="hsl(120.0,100%,35%)" stroke-width="0.01036"></path>
<path d="M1.069 0.195 Q1.005 0.103 0.813 0.114" stroke="hsl(120.0,100%,35%)" stroke-width="0.00259"></path>
<path d="M1.069 0.195 Q1.240 0.356 1.593 0.309" stroke="hsl(120.0,100%,35%)" stroke-width="0.01036"></path>
<path d="M1.069 0.195 Q0.964 0.227 1.004 0.286" stroke="hsl(120.0,100%,35%)" stroke-width="0.00518"></path>
<path d="M1.069 0.195 Q1.100 0.074 0.871 0.032" stroke="hsl(120.0,100%,35%)" stroke-width="0.00259"></path>
<path d="M1.748 0.631 Q1.901 0.529 1.736 0.432" stroke="hsl(120.0,100%,35%)" stroke-width="0.02073"></path>
<path d="M1.748 0.631 Q1.785 0.694 1.917 0.691" stroke="hsl(120.0,100%,35%)" stroke-width="0.00259"></path>
<path d="M1.748 0.631 Q1.772 0.534 1.587 0.501" stroke="hsl(120.0,100%,35%)" stroke-width="0.00259"></path>
<path d="M1.748 0.631 Q0.894 0.330 0.119 0.680" stroke="hsl(120.0,100%,35%)" stroke-width="0.00259"></path>
<path d="M1.748 0.631 Q1.298 0.732 1.397 0.974" stroke="hsl(120.0,100%,35%)" stroke-width="0.00777"></path>
<path d="M0.747 0.742 Q0.805 0.972 1.267 0.994" stroke="hsl(180.0,100%,35%)" stroke-width="0.00259"></path>
<path d="M0.747 0.742 Q0.729 0.704 0.651 0.704" stroke="hsl(180.0,100%,35%)" stroke-width="0.01296"></path>
<path d="M0.747 0.742 Q0.911 0.683 0.832 0.590" stroke="hsl(180.0,100%,35%)" stroke-width="0.00259"></path>
<path d="M0.747 0.742 Q0.844 0.764 0.909 0.721" stroke="hsl(180.0,100%,35%)" stroke-width="0.00259"></path>
<path d="M0.909 0.721 Q0.794 0.661 0.651 0.704" stroke="hsl(180.0,100%,35%)" stroke-width="0.02332"></path>
<path d="M0.909 0.721 Q0.707 0.530 0.289 0.586" stroke="hsl(180.0,100%,35%)" stroke-width="0.00777"></path>
<path d="M0.909 0.721 Q1.048 0.591 0.824 0.494" stroke="hsl(180.0,100%,35%)" stroke-width="0.00259"></path>
<path d="M0.909 0.721 Q0.949 0.675 0.866 0.645" stroke="hsl(180.0,100%,35%)" stroke-width="0.00518"></path>
<path d="M0.909 0.721 Q1.125 0.911 1.543 0.848" stroke="hsl(180.0,100%,35%)" stroke-width="0.00259"></path>
<path d="M0.577 0.514 Q0.716 0.554 0.824 0.494" stroke="hsl(60.0,100%,35%)" stroke-width="0.02073"></path>
<path d="M0.577 0.514 Q0.283 0.785 0.747 0.988" stroke="hsl(60.0,100%,35%)" stroke-width="0.02073"></path>
<path d="M0.577 0.514 Q0.463 0.751 0.900 0.859" stroke="hsl(60.0,100%,35%)" stroke-width="0.00777"></path>
<path d="M0.577 0.514 Q0.421 0.817 0.977 0.960" stroke="hsl(60.0,100%,35%)" stroke-width="0.00259"></path>
<path d="M0.577 0.514 Q0.919 0.401 0.772 0.209" stroke="hsl(60.0,100%,35%)" stroke-width="0.00259"></path>
<path d="M0.732 0.280 Q0.809 0.253 0.772 0.209" stroke="hsl(60.0,100%,35%)" stroke-width="0.00777"></path>
<path d="M0.732 0.280 Q0.311 0.669 0.977 0.960" stroke="hsl(60.0,100%,35%)" stroke-width="0.00777"></path>
<path d="M0.732 0.280 Q0.174 0.637 0.747 0.988" stroke="hsl(60.0,100%,35%)" stroke-width="0.00259"></path>
<path d="M1.736 0.432 Q0.889 0.220 0.289 0.586" stroke="hsl(120.0,100%,35%)" stroke-width="0.00777"></path>
<path d="M1.736 0.432 Q0.973 0.151 0.256 0.461" stroke="hsl(120.0,100%,35%)" stroke-width="0.00259"></path>
<path d="M1.736 0.432 Q1.763 0.342 1.593 0.309" stroke="hsl(120.0,100%,35%)" stroke-width="0.01296"></path>
<path d="M1.736 0.432 Q1.838 0.387 1.773 0.327" stroke="hsl(120.0,100%,35%)" stroke-width="0.00518"></path>
<path d="M0.289 0.586 Q0.372 0.517 0.256 0.461" stroke="hsl(180.0,100%,35%)" stroke-width="0.00518"></path>
<path d="M0.289 0.586 Q0.267 0.529 0.152 0.528" stroke="hsl(180.0,100%,35%)" stroke-width="0.00259"></path>
<path d="M0.289 0.586 Q0.365 0.627 0.462 0.599" stroke="hsl(180.0,100%,35%)" stroke-width="0.01814"></path>
<path d="M0.289 0.586 Q0.491 0.778 0.909 0.721" stroke="hsl(180.0,100%,35%)" stroke-width="0.00259"></path>
<path d="M0.289 0.586 Q0.375 0.568 0.359 0.522" stroke="hsl(180.0,100%,35%)" stroke-width="0.00518"></path>
<path d="M0.289 0.586 Q0.406 0.538 0.338 0.470" stroke="hsl(180.0,100%,35%)" stroke-width="0.00259"></path>
<path d="M1.649 0.537 Q1.884 0.529 1.921 0.413" stroke="hsl(120.0,100%,35%)" stroke-width="0.00518"></path>
<path d="M1.649 0.537 Q1.754 0.559 1.820 0.512" stroke="hsl(120.0,100%,35%)" stroke-width="0.00518"></path>
<path d="M1.649 0.537 Q1.665 0.468 1.535 0.445" stroke="hsl(120.0,100%,35%)" stroke-width="0.00259"></path>
<path d="M1.649 0.537 Q1.929 0.523 1.963 0.383" stroke="hsl(120.0,100%,35%)" stroke-width="0.00259"></path>
<path d="M1.921 0.413 Q1.606 0.042 0.813 0.114" stroke="hsl(120.0,100%,35%)" stroke-width="0.00259"></path>
<path d="M1.921 0.413 Q1.517 0.269 1.146 0.434" stroke="hsl(120.0,100%,35%)" stroke-width="0.00259"></path>
<path d="M1.921 0.413 Q1.819 0.201 1.381 0.204" stroke="hsl(120.0,100%,35%)" stroke-width="0.00259"></path>
<path d="M1.921 0.413 Q1.966 0.407 1.963 0.383" stroke="hsl(120.0,100%,35%)" stroke-width="0.00259"></path>
<path d="M1.324 0.817 Q1.464 0.822 1.505 0.754" stroke="hsl(120.0,100%,35%)" stroke-width="0.00518"></path>
<path d="M1.324 0.817 Q0.831 0.507 0.119 0.680" stroke="hsl(120.0,100%,35%)" stroke-width="0.00259"></path>
<path d="M1.324 0.817 Q1.219 0.826 1.215 0.879" stroke="hsl(120.0,100%,35%)" stroke-width="0.00259"></path>
<path d="M1.324 0.817 Q1.154 0.894 1.267 0.994" stroke="hsl(120.0,100%,35%)" stroke-width="0.00259"></path>
<path d="M0.233 0.763 Q0.242 0.699 0.119 0.680" stroke="hsl(120.0,100%,35%)" stroke-width="0.00777"></path>
<path d="M0.233 0.763 Q0.284 0.767 0.303 0.743" stroke="hsl(120.0,100%,35%)" stroke-width="0.00777"></path>
<path d="M0.233 0.763 Q0.320 0.771 0.355 0.730" stroke="hsl(120.0,100%,35%)" stroke-width="0.00259"></path>
<path d="M1.299 0.538 Q1.140 0.502 1.035 0.572" stroke="hsl(120.0,100%,35%)" stroke-width="0.00518"></path>
<path d="M1.299 0.538 Q1.241 0.493 1.141 0.512" stroke="hsl(120.0,100%,35%)" stroke-width="0.00518"></path>
<path d="M1.299 0.538 Q1.232 0.622 1.382 0.674" stroke="hsl(120.0,100%,35%)" stroke-width="0.00518"></path>
<path d="M0.102 0.874 Q0.998 1.226 1.883 0.867" stroke="hsl(120.0,100%,35%)" stroke-width="0.00259"></path>
<path d="M0.102 0.874 Q0.134 0.892 0.176 0.880" stroke="hsl(120.0,100%,35%)" stroke-width="0.00259"></path>
<path d="M0.102 0.874 Q0.096 0.882 0.111 0.887" stroke="hsl(120.0,100%,35%)" stroke-width="0.00259"></path>
<path d="M1.883 0.867 Q1.885 0.811 1.776 0.797" stroke="hsl(120.0,100%,35%)" stroke-width="0.00777"></path>
<path d="M1.883 0.867 Q2.002 0.517 1.345 0.382" stroke="hsl(120.0,100%,35%)" stroke-width="0.00518"></path>
<path d="M1.883 0.867 Q1.853 0.820 1.754 0.824" stroke="hsl(120.0,100%,35%)" stroke-width="0.00518"></path>
<path d="M0.075 0.789 Q0.123 0.748 0.053 0.715" stroke="hsl(60.0,100%,35%)" stroke-width="0.00259"></path>
<path d="M0.075 0.789 Q0.078 0.799 0.098 0.799" stroke="hsl(60.0,100%,35%)" stroke-width="0.00259"></path>
<path d="M0.075 0.789 Q0.888 0.639 0.772 0.209" stroke="hsl(60.0,100%,35%)" stroke-width="0.00259"></path>
<path d="M0.053 0.715 Q0.008 0.766 0.098 0.799" stroke="hsl(60.0,100%,35%)" stroke-width="0.00259"></path>
<path d="M0.053 0.715 Q0.747 1.025 1.505 0.754" stroke="hsl(60.0,100%,35%)" stroke-width="0.00259"></path>
<path d="M1.740 0.122 Q1.757 0.182 1.877 0.187" stroke="hsl(180.0,100%,35%)" stroke-width="0.03628"></path>
<path d="M1.740 0.122 Q1.636 0.164 1.693 0.224" stroke="hsl(180.0,100%,35%)" stroke-width="0.02332"></path>
<path d="M1.740 0.122 Q0.730 0.046 0.359 0.522" stroke="hsl(180.0,100%,35%)" stroke-width="0.00259"></path>
<path d="M1.740 0.122 Q1.720 0.064 1.600 0.060" stroke="hsl(180.0,100%,35%)" stroke-width="0.00259"></path>
<path d="M0.413 0.056 Q0.500 0.079 0.563 0.041" stroke="hsl(300.0,100%,35%)" stroke-width="0.00518"></path>
<path d="M0.413 0.056 Q0.480 0.130 0.638 0.113" stroke="hsl(300.0,100%,35%)" stroke-width="0.00777"></path>
<path d="M0.413 0.056 Q0.355 0.084 0.397 0.119" stroke="hsl(300.0,100%,35%)" stroke-width="0.00259"></path>
<path d="M0.384 0.907 Q0.409 0.851 0.306 0.826" stroke="hsl(120.0,100%,35%)" stroke-width="0.00259"></path>
<path d="M0.384 0.907 Q0.278 0.895 0.233 0.944" stroke="hsl(120.0,100%,35%)" stroke-width="0.01296"></path>
<path d="M0.384 0.907 Q0.372 0.850 0.258 0.843" stroke="hsl(120.0,100%,35%)" stroke-width="0.00518"></path>
<path d="M1.215 0.879 Q1.320 0.870 1.324 0.817" stroke="hsl(120.0,100%,35%)" stroke-width="0.00777"></path>
<path d="M1.215 0.879 Q1.149 0.947 1.267 0.994" stroke="hsl(120.0,100%,35%)" stroke-width="0.00259"></path>
<path d="M1.215 0.879 Q1.709 0.422 0.925 0.080" stroke="hsl(120.0,100%,35%)" stroke-width="0.00259"></path>
<path d="M1.467 0.491 Q1.220 0.684 1.543 0.848" stroke="hsl(120.0,100%,35%)" stroke-width="0.00259"></path>
<path d="M1.467 0.491 Q1.186 0.445 1.035 0.572" stroke="hsl(120.0,100%,35%)" stroke-width="0.00259"></path>
<path d="M1.467 0.491 Q1.345 0.481 1.299 0.538" stroke="hsl(120.0,100%,35%)" stroke-width="0.00259"></path>
<path d="M1.183 0.276 Q1.191 0.213 1.069 0.195" stroke="hsl(120.0,100%,35%)" stroke-width="0.00777"></path>
<path d="M1.183 0.276 Q1.086 0.245 1.004 0.286" stroke="hsl(120.0,100%,35%)" stroke-width="0.00259"></path>
<path d="M1.183 0.276 Q0.478 0.520 0.801 0.918" stroke="hsl(120.0,100%,35%)" stroke-width="0.00259"></path>
<path d="M0.993 0.449 Q1.081 0.472 1.146 0.434" stroke="hsl(120.0,100%,35%)" stroke-width="0.00518"></path>
<path d="M0.993 0.449 Q0.217 0.544 0.233 0.944" stroke="hsl(120.0,100%,35%)" stroke-width="0.00518"></path>
<path d="M0.993 0.449 Q0.964 0.493 1.044 0.517" stroke="hsl(120.0,100%,35%)" stroke-width="0.00518"></path>
<path d="M0.993 0.449 Q1.254 0.251 0.925 0.080" stroke="hsl(120.0,100%,35%)" stroke-width="0.00259"></path>
<path d="M0.993 0.449 Q0.361 0.454 0.233 0.763" stroke="hsl(120.0,100%,35%)" stroke-width="0.00259"></path>
<path d="M0.993 0.449 Q1.114 0.499 1.239 0.451" stroke="hsl(120.0,100%,35%)" stroke-width="0.00259"></path>
<path d="M0.233 0.195 Q0.113 0.264 0.220 0.338" stroke="hsl(120.0,100%,35%)" stroke-width="0.04664"></path>
<path d="M0.233 0.195 Q1.062 0.520 1.877 0.187" stroke="hsl(120.0,100%,35%)" stroke-width="0.00259"></path>
<path d="M0.233 0.195 Q1.045 0.460 1.740 0.122" stroke="hsl(120.0,100%,35%)" stroke-width="0.00259"></path>
<path d="M0.431 0.213 Q0.347 0.165 0.233 0.195" stroke="hsl(120.0,100%,35%)" stroke-width="0.01036"></path>
<path d="M0.431 0.213 Q0.226 0.233 0.220 0.338" stroke="hsl(120.0,100%,35%)" stroke-width="0.00259"></path>
<path d="M0.431 0.213 Q1.158 0.430 1.740 0.122" stroke="hsl(120.0,100%,35%)" stroke-width="0.00518"></path>
<path d="M0.431 0.213 Q0.476 0.257 0.572 0.245" stroke="hsl(120.0,100%,35%)" stroke-width="0.00259"></path>
</g>
<text x="1.314" y="0.624" font-size="0.013672" fill="hsl(0.0,100%,20%)">abergman</text>
<text x="1.178" y="0.604" font-size="0.009667" fill="hsl(0.0,100%,20%)">seewaifu</text>
<text x="1.371" y="0.662" font-size="0.006836" fill="hsl(0.0,100%,20%)">mblsha</text>
<text x="1.152" y="0.583" font-size="0.006836" fill="hsl(0.0,100%,20%)">svenzheng</text>
<text x="1.117" y="0.344" font-size="0.015285" fill="hsl(60.0,100%,20%)">adrian.ratiu</text>
<text x="1.543" y="0.836" font-size="0.022672" fill="hsl(60.0,100%,20%)">ejcaruso</text>
<text x="1.727" y="0.955" font-size="0.011840" fill="hsl(60.0,100%,20%)">madhavadas</text>
<text x="0.972" y="0.288" font-size="0.006836" fill="hsl(60.0,100%,20%)">vshenvi</text>
<text x="0.910" y="0.358" font-size="0.009667" fill="hsl(120.0,100%,20%)">lbaraz</text>
<text x="1.381" y="0.191" font-size="0.025577" fill="hsl(120.0,100%,20%)">vapier</text>
<text x="0.900" y="0.830" font-size="0.057600" fill="hsl(60.0,100%,20%)">akahuang</text>
<text x="0.977" y="0.932" font-size="0.054687" fill="hsl(60.0,100%,20%)">hugobenichi</text>
<text x="0.747" y="0.961" font-size="0.052950" fill="hsl(60.0,100%,20%)">jiejiang</text>
<text x="0.956" y="0.781" font-size="0.006836" fill="hsl(60.0,100%,20%)">acostinas</text>
<text x="0.824" y="0.480" font-size="0.028185" fill="hsl(60.0,100%,20%)">taoyl</text>
<text x="0.801" y="0.911" font-size="0.013672" fill="hsl(60.0,100%,20%)">jasongustaman</text>
<text x="0.772" y="0.199" font-size="0.020508" fill="hsl(60.0,100%,20%)">matthewmwang</text>
<text x="1.156" y="0.720" font-size="0.018086" fill="hsl(60.0,100%,20%)">aleksandermj</text>
<text x="1.134" y="0.674" font-size="0.006836" fill="hsl(60.0,100%,20%)">pholla</text>
<text x="1.556" y="0.975" font-size="0.016744" fill="hsl(60.0,100%,20%)">andrewlassalle</text>
<text x="1.345" y="0.369" font-size="0.026475" fill="hsl(120.0,100%,20%)">amoylan</text>
<text x="1.453" y="0.259" font-size="0.006836" fill="hsl(120.0,100%,20%)">vsavu</text>
<text x="1.146" y="0.428" font-size="0.013672" fill="hsl(120.0,100%,20%)">keiichiw</text>
<text x="0.813" y="0.108" font-size="0.011840" fill="hsl(120.0,100%,20%)">hidehiko</text>
<text x="0.119" y="0.672" font-size="0.016744" fill="hsl(120.0,100%,20%)">iby</text>
<text x="1.411" y="0.435" font-size="0.006836" fill="hsl(120.0,100%,20%)">aidazolic</text>
<text x="1.301" y="0.276" font-size="0.006836" fill="hsl(120.0,100%,20%)">mpolzer</text>
<text x="1.252" y="0.304" font-size="0.006836" fill="hsl(120.0,100%,20%)">yoshiki</text>
<text x="0.651" y="0.681" font-size="0.044826" fill="hsl(180.0,100%,20%)">yich</text>
<text x="1.141" y="0.506" font-size="0.011840" fill="hsl(120.0,100%,20%)">jcliang</text>
<text x="1.415" y="0.283" font-size="0.006836" fill="hsl(120.0,100%,20%)">nmuggli</text>
<text x="0.212" y="0.424" font-size="0.016744" fill="hsl(120.0,100%,20%)">anastasiian</text>
<text x="0.406" y="0.394" font-size="0.020508" fill="hsl(120.0,100%,20%)">emaxx</text>
<text x="0.256" y="0.453" font-size="0.015285" fill="hsl(120.0,100%,20%)">betuls</text>
<text x="0.302" y="0.337" font-size="0.006836" fill="hsl(120.0,100%,20%)">zuan</text>
<text x="1.761" y="0.924" font-size="0.006836" fill="hsl(60.0,100%,20%)">danielwinkler</text>
<text x="1.961" y="0.626" font-size="0.015285" fill="hsl(240.0,100%,20%)">bkersting</text>
<text x="1.710" y="0.729" font-size="0.016744" fill="hsl(240.0,100%,20%)">nicholasbishop</text>
<text x="1.951" y="0.501" font-size="0.009667" fill="hsl(240.0,100%,20%)">isandrk</text>
<text x="1.957" y="0.540" font-size="0.006836" fill="hsl(240.0,100%,20%)">tbastos</text>
<text x="1.397" y="0.964" font-size="0.020508" fill="hsl(120.0,100%,20%)">briannorris</text>
<text x="1.069" y="0.180" font-size="0.029797" fill="hsl(120.0,100%,20%)">kimjae</text>
<text x="1.267" y="0.986" font-size="0.015285" fill="hsl(120.0,100%,20%)">jorgelo</text>
<text x="1.748" y="0.617" font-size="0.027343" fill="hsl(120.0,100%,20%)">gwendal</text>
<text x="1.587" y="0.915" font-size="0.006836" fill="hsl(120.0,100%,20%)">puthik</text>
<text x="0.747" y="0.732" font-size="0.020508" fill="hsl(180.0,100%,20%)">chensa</text>
<text x="0.832" y="0.586" font-size="0.006836" fill="hsl(180.0,100%,20%)">sfrolov</text>
<text x="0.909" y="0.705" font-size="0.032063" fill="hsl(180.0,100%,20%)">hcyang</text>
<text x="0.577" y="0.499" font-size="0.031326" fill="hsl(60.0,100%,20%)">chenzikai</text>
<text x="0.732" y="0.271" font-size="0.018086" fill="hsl(60.0,100%,20%)">damiendejean</text>
<text x="1.736" y="0.417" font-size="0.029797" fill="hsl(120.0,100%,20%)">dlunev</text>
<text x="0.289" y="0.571" font-size="0.030571" fill="hsl(180.0,100%,20%)">jadmanski</text>
<text x="1.593" y="0.298" font-size="0.021617" fill="hsl(120.0,100%,20%)">sarthakkukreti</text>
<text x="1.773" y="0.322" font-size="0.009667" fill="hsl(120.0,100%,20%)">jpachara</text>
<text x="1.649" y="0.528" font-size="0.016744" fill="hsl(120.0,100%,20%)">dverkamp</text>
<text x="1.921" y="0.405" font-size="0.016744" fill="hsl(120.0,100%,20%)">uekawa</text>
<text x="1.820" y="0.508" font-size="0.009667" fill="hsl(120.0,100%,20%)">dtor</text>
<text x="1.535" y="0.442" font-size="0.006836" fill="hsl(120.0,100%,20%)">chibar</text>
<text x="1.963" y="0.379" font-size="0.009667" fill="hsl(120.0,100%,20%)">jamesye</text>
<text x="1.324" y="0.806" font-size="0.020508" fill="hsl(120.0,100%,20%)">norvez</text>
<text x="0.233" y="0.753" font-size="0.020508" fill="hsl(120.0,100%,20%)">mutexlox</text>
<text x="0.500" y="0.290" font-size="0.006836" fill="hsl(120.0,100%,20%)">ayaelattar</text>
<text x="0.374" y="0.343" font-size="0.006836" fill="hsl(120.0,100%,20%)">jasonling</text>
<text x="0.367" y="0.305" font-size="0.006836" fill="hsl(120.0,100%,20%)">rrangel</text>
<text x="1.917" y="0.687" font-size="0.006836" fill="hsl(120.0,100%,20%)">aaronyu</text>
<text x="1.587" y="0.498" font-size="0.006836" fill="hsl(120.0,100%,20%)">denniskempin</text>
<text x="0.866" y="0.640" font-size="0.009667" fill="hsl(180.0,100%,20%)">patrykd</text>
<text x="1.299" y="0.529" font-size="0.018086" fill="hsl(120.0,100%,20%)">imranziad</text>
<text x="1.035" y="0.566" font-size="0.011840" fill="hsl(120.0,100%,20%)">okuji</text>
<text x="1.382" y="0.669" font-size="0.009667" fill="hsl(120.0,100%,20%)">kamesan</text>
<text x="0.152" y="0.524" font-size="0.006836" fill="hsl(180.0,100%,20%)">behnoodm</text>
<text x="0.462" y="0.590" font-size="0.018086" fill="hsl(180.0,100%,20%)">lziest</text>
<text x="0.359" y="0.516" font-size="0.011840" fill="hsl(180.0,100%,20%)">thomascedeno</text>
<text x="0.338" y="0.467" font-size="0.006836" fill="hsl(180.0,100%,20%)">hardikgoyal</text>
<text x="0.925" y="0.072" font-size="0.015285" fill="hsl(120.0,100%,20%)">allenwebb</text>
<text x="0.661" y="0.982" font-size="0.006836" fill="hsl(60.0,100%,20%)">benreich</text>
<text x="0.599" y="0.866" font-size="0.006836" fill="hsl(60.0,100%,20%)">ujjwalpande</text>
<text x="0.102" y="0.868" font-size="0.011840" fill="hsl(120.0,100%,20%)">jingyliang</text>
<text x="1.883" y="0.857" font-size="0.019335" fill="hsl(120.0,100%,20%)">jiwan</text>
<text x="0.176" y="0.877" font-size="0.006836" fill="hsl(120.0,100%,20%)">aaboagye</text>
<text x="0.111" y="0.884" font-size="0.006836" fill="hsl(120.0,100%,20%)">hbarnor</text>
<text x="1.776" y="0.791" font-size="0.011840" fill="hsl(120.0,100%,20%)">robsc</text>
<text x="1.754" y="0.819" font-size="0.009667" fill="hsl(120.0,100%,20%)">alanlxl</text>
<text x="0.075" y="0.784" font-size="0.011840" fill="hsl(60.0,100%,20%)">jsiuda</text>
<text x="0.053" y="0.709" font-size="0.011840" fill="hsl(60.0,100%,20%)">kglund</text>
<text x="0.098" y="0.794" font-size="0.009667" fill="hsl(60.0,100%,20%)">jintaolin</text>
<text x="1.740" y="0.104" font-size="0.036172" fill="hsl(180.0,100%,20%)">kerker</text>
<text x="1.877" y="0.174" font-size="0.026475" fill="hsl(180.0,100%,20%)">dennyh</text>
<text x="1.693" y="0.213" font-size="0.020508" fill="hsl(180.0,100%,20%)">zubeil</text>
<text x="1.600" y="0.057" font-size="0.006836" fill="hsl(180.0,100%,20%)">skyostil</text>
<text x="0.413" y="0.048" font-size="0.016744" fill="hsl(300.0,100%,20%)">kevinptt</text>
<text x="0.563" y="0.036" font-size="0.009667" fill="hsl(300.0,100%,20%)">chungsheng</text>
<text x="0.638" y="0.108" font-size="0.011840" fill="hsl(300.0,100%,20%)">ckclark</text>
<text x="0.397" y="0.116" font-size="0.006836" fill="hsl(300.0,100%,20%)">chenghan</text>
<text x="1.505" y="0.748" font-size="0.011840" fill="hsl(120.0,100%,20%)">kuabhs</text>
<text x="1.004" y="0.280" font-size="0.011840" fill="hsl(120.0,100%,20%)">yuanpengni</text>
<text x="0.871" y="0.029" font-size="0.006836" fill="hsl(120.0,100%,20%)">hardtmad</text>
<text x="0.384" y="0.897" font-size="0.019335" fill="hsl(120.0,100%,20%)">mka</text>
<text x="0.306" y="0.823" font-size="0.006836" fill="hsl(120.0,100%,20%)">asavery</text>
<text x="0.233" y="0.935" font-size="0.018086" fill="hsl(120.0,100%,20%)">bgeffon</text>
<text x="0.258" y="0.838" font-size="0.009667" fill="hsl(120.0,100%,20%)">quasisec</text>
<text x="0.303" y="0.737" font-size="0.011840" fill="hsl(120.0,100%,20%)">kendraketsui</text>
<text x="0.355" y="0.727" font-size="0.006836" fill="hsl(120.0,100%,20%)">yaohuali</text>
<text x="1.835" y="0.718" font-size="0.009667" fill="hsl(240.0,100%,20%)">tinghaolin</text>
<text x="1.822" y="0.583" font-size="0.006836" fill="hsl(240.0,100%,20%)">tbrandston</text>
<text x="1.942" y="0.695" font-size="0.006836" fill="hsl(240.0,100%,20%)">justinoue</text>
<text x="1.215" y="0.871" font-size="0.016744" fill="hsl(120.0,100%,20%)">yichenyu</text>
<text x="1.467" y="0.485" font-size="0.011840" fill="hsl(120.0,100%,20%)">seannli</text>
<text x="1.183" y="0.268" font-size="0.015285" fill="hsl(120.0,100%,20%)">spothire</text>
<text x="0.993" y="0.438" font-size="0.020508" fill="hsl(120.0,100%,20%)">stevensd</text>
<text x="1.044" y="0.512" font-size="0.009667" fill="hsl(120.0,100%,20%)">kawasin</text>
<text x="1.239" y="0.448" font-size="0.006836" fill="hsl(120.0,100%,20%)">shahadath</text>
<text x="0.572" y="0.240" font-size="0.009667" fill="hsl(120.0,100%,20%)">jrosenth</text>
<text x="1.279" y="0.107" font-size="0.006836" fill="hsl(120.0,100%,20%)">zwisler</text>
<text x="1.313" y="0.136" font-size="0.006836" fill="hsl(120.0,100%,20%)">xcl</text>
<text x="0.233" y="0.178" font-size="0.033489" fill="hsl(120.0,100%,20%)">weiluanwang</text>
<text x="0.220" y="0.323" font-size="0.029797" fill="hsl(180.0,100%,20%)">byronlee</text>
<text x="0.754" y="0.715" font-size="0.006836" fill="hsl(180.0,100%,20%)">tbain</text>
<text x="0.722" y="0.786" font-size="0.006836" fill="hsl(180.0,100%,20%)">apronin</text>
<text x="0.749" y="0.580" font-size="0.006836" fill="hsl(180.0,100%,20%)">sidereal</text>
<text x="0.419" y="0.662" font-size="0.013672" fill="hsl(180.0,100%,20%)">jkardatzke</text>
<text x="0.454" y="0.711" font-size="0.022672" fill="hsl(180.0,100%,20%)">chingkang</text>
<text x="0.431" y="0.203" font-size="0.019335" fill="hsl(120.0,100%,20%)">yycheng</text>
</svg>
