<svg width="4000" height="2000" viewBox="-0.025 -0.025 2.05 1.05" xmlns="http://www.w3.org/2000/svg">
  <style>
    path {
      fill: none;
      stroke-linecap: round;
      stroke-opacity: 0.4;
    }

    text {
      text-anchor: middle;
      alignment-baseline: hanging;
    }
  </style>
  <g opacity="0.4">
<path d="M1.939 0.586 Q1.856 0.649 1.963 0.704" stroke="hsl(0.0,100%,35%)" stroke-width="0.00287"></path>
<path d="M1.939 0.586 Q1.376 0.269 0.636 0.474" stroke="hsl(0.0,100%,35%)" stroke-width="0.00287"></path>
<path d="M1.939 0.586 Q1.932 0.606 1.970 0.614" stroke="hsl(0.0,100%,35%)" stroke-width="0.00287"></path>
<path d="M1.939 0.586 Q1.338 0.645 1.322 0.951" stroke="hsl(0.0,100%,35%)" stroke-width="0.00287"></path>
<path d="M1.963 0.704 Q1.854 0.725 1.872 0.783" stroke="hsl(0.0,100%,35%)" stroke-width="0.00287"></path>
<path d="M1.963 0.704 Q2.166 0.485 1.785 0.338" stroke="hsl(0.0,100%,35%)" stroke-width="0.00287"></path>
<path d="M1.963 0.704 Q1.753 0.778 1.851 0.896" stroke="hsl(0.0,100%,35%)" stroke-width="0.00287"></path>
<path d="M1.481 0.309 Q1.610 0.384 1.785 0.338" stroke="hsl(60.0,100%,35%)" stroke-width="0.09742"></path>
<path d="M1.481 0.309 Q1.303 0.279 1.206 0.359" stroke="hsl(60.0,100%,35%)" stroke-width="0.06304"></path>
<path d="M1.481 0.309 Q1.737 0.221 1.623 0.077" stroke="hsl(60.0,100%,35%)" stroke-width="0.00287"></path>
<path d="M1.481 0.309 Q1.530 0.441 1.798 0.445" stroke="hsl(60.0,100%,35%)" stroke-width="0.00860"></path>
<path d="M1.481 0.309 Q1.662 0.259 1.605 0.160" stroke="hsl(60.0,100%,35%)" stroke-width="0.00287"></path>
<path d="M1.785 0.338 Q1.705 0.394 1.798 0.445" stroke="hsl(60.0,100%,35%)" stroke-width="0.00573"></path>
<path d="M1.785 0.338 Q1.656 0.262 1.481 0.309" stroke="hsl(60.0,100%,35%)" stroke-width="0.01433"></path>
<path d="M1.785 0.338 Q1.478 0.233 1.206 0.359" stroke="hsl(60.0,100%,35%)" stroke-width="0.01146"></path>
<path d="M1.785 0.338 Q0.940 0.234 0.551 0.623" stroke="hsl(60.0,100%,35%)" stroke-width="0.00287"></path>
<path d="M1.785 0.338 Q1.206 0.233 0.875 0.492" stroke="hsl(60.0,100%,35%)" stroke-width="0.00287"></path>
<path d="M1.206 0.359 Q1.512 0.464 1.785 0.338" stroke="hsl(60.0,100%,35%)" stroke-width="0.01433"></path>
<path d="M1.206 0.359 Q0.907 0.510 1.135 0.688" stroke="hsl(60.0,100%,35%)" stroke-width="0.00287"></path>
<path d="M1.206 0.359 Q1.205 0.654 1.780 0.719" stroke="hsl(60.0,100%,35%)" stroke-width="0.00573"></path>
<path d="M1.206 0.359 Q1.200 0.409 1.296 0.423" stroke="hsl(60.0,100%,35%)" stroke-width="0.00287"></path>
<path d="M1.206 0.359 Q1.433 0.521 1.798 0.445" stroke="hsl(60.0,100%,35%)" stroke-width="0.01146"></path>
<path d="M1.206 0.359 Q1.124 0.265 0.923 0.285" stroke="hsl(60.0,100%,35%)" stroke-width="0.00287"></path>
<path d="M1.206 0.359 Q1.309 0.683 1.963 0.704" stroke="hsl(60.0,100%,35%)" stroke-width="0.00287"></path>
<path d="M0.551 0.623 Q0.663 0.627 0.696 0.573" stroke="hsl(0.0,100%,35%)" stroke-width="0.00287"></path>
<path d="M0.551 0.623 Q1.192 0.945 1.963 0.704" stroke="hsl(0.0,100%,35%)" stroke-width="0.00287"></path>
<path d="M0.551 0.623 Q1.396 0.727 1.785 0.338" stroke="hsl(0.0,100%,35%)" stroke-width="0.00287"></path>
<path d="M0.551 0.623 Q0.818 0.622 0.875 0.492" stroke="hsl(0.0,100%,35%)" stroke-width="0.00287"></path>
<path d="M0.875 0.492 Q0.721 0.497 0.696 0.573" stroke="hsl(0.0,100%,35%)" stroke-width="0.00573"></path>
<path d="M0.875 0.492 Q0.817 0.555 0.926 0.597" stroke="hsl(0.0,100%,35%)" stroke-width="0.00860"></path>
<path d="M0.875 0.492 Q1.250 0.815 1.963 0.704" stroke="hsl(0.0,100%,35%)" stroke-width="0.00287"></path>
<path d="M0.875 0.492 Q0.770 0.435 0.636 0.474" stroke="hsl(0.0,100%,35%)" stroke-width="0.00860"></path>
<path d="M0.155 0.523 Q0.238 0.584 0.376 0.557" stroke="hsl(0.0,100%,35%)" stroke-width="0.00287"></path>
<path d="M0.155 0.523 Q0.470 0.765 1.011 0.664" stroke="hsl(0.0,100%,35%)" stroke-width="0.00287"></path>
<path d="M0.155 0.523 Q0.139 0.590 0.267 0.613" stroke="hsl(0.0,100%,35%)" stroke-width="0.00287"></path>
<path d="M0.155 0.523 Q-0.109 0.661 0.103 0.821" stroke="hsl(0.0,100%,35%)" stroke-width="0.00287"></path>
<path d="M0.155 0.523 Q0.042 0.541 0.053 0.601" stroke="hsl(0.0,100%,35%)" stroke-width="0.00287"></path>
<path d="M0.155 0.523 Q0.247 0.601 0.419 0.574" stroke="hsl(0.0,100%,35%)" stroke-width="0.00287"></path>
<path d="M0.155 0.523 Q0.044 0.530 0.032 0.586" stroke="hsl(0.0,100%,35%)" stroke-width="0.00287"></path>
<path d="M0.155 0.523 Q0.805 0.996 1.872 0.783" stroke="hsl(0.0,100%,35%)" stroke-width="0.00287"></path>
<path d="M0.155 0.523 Q0.292 0.404 0.090 0.311" stroke="hsl(0.0,100%,35%)" stroke-width="0.00860"></path>
<path d="M0.155 0.523 Q0.179 0.589 0.313 0.592" stroke="hsl(0.0,100%,35%)" stroke-width="0.00287"></path>
<path d="M0.155 0.523 Q0.239 0.461 0.137 0.407" stroke="hsl(0.0,100%,35%)" stroke-width="0.00287"></path>
<path d="M0.090 0.311 Q0.333 0.378 0.518 0.274" stroke="hsl(0.0,100%,35%)" stroke-width="0.02292"></path>
<path d="M0.090 0.311 Q0.301 0.311 0.347 0.209" stroke="hsl(0.0,100%,35%)" stroke-width="0.02865"></path>
<path d="M0.090 0.311 Q0.714 0.799 1.803 0.602" stroke="hsl(0.0,100%,35%)" stroke-width="0.00287"></path>
<path d="M0.090 0.311 Q0.630 0.350 0.824 0.095" stroke="hsl(0.0,100%,35%)" stroke-width="0.00287"></path>
<path d="M0.090 0.311 Q0.208 0.251 0.117 0.181" stroke="hsl(0.0,100%,35%)" stroke-width="0.00287"></path>
<path d="M0.090 0.311 Q0.712 0.882 1.963 0.704" stroke="hsl(0.0,100%,35%)" stroke-width="0.00287"></path>
<path d="M0.090 0.311 Q0.311 0.709 1.135 0.688" stroke="hsl(0.0,100%,35%)" stroke-width="0.00287"></path>
<path d="M0.090 0.311 Q0.143 0.402 0.332 0.397" stroke="hsl(0.0,100%,35%)" stroke-width="0.00287"></path>
<path d="M0.090 0.311 Q0.192 0.430 0.446 0.407" stroke="hsl(0.0,100%,35%)" stroke-width="0.00287"></path>
<path d="M0.090 0.311 Q0.264 0.249 0.181 0.151" stroke="hsl(0.0,100%,35%)" stroke-width="0.00287"></path>
<path d="M0.090 0.311 Q0.285 0.221 0.151 0.106" stroke="hsl(0.0,100%,35%)" stroke-width="0.00573"></path>
<path d="M1.385 0.800 Q1.330 0.905 1.522 0.955" stroke="hsl(0.0,100%,35%)" stroke-width="0.00573"></path>
<path d="M1.385 0.800 Q1.196 0.785 1.126 0.875" stroke="hsl(0.0,100%,35%)" stroke-width="0.00287"></path>
<path d="M1.385 0.800 Q1.442 0.810 1.474 0.784" stroke="hsl(0.0,100%,35%)" stroke-width="0.00287"></path>
<path d="M1.522 0.955 Q1.001 0.539 0.076 0.702" stroke="hsl(0.0,100%,35%)" stroke-width="0.00287"></path>
<path d="M1.522 0.955 Q1.943 0.917 1.963 0.704" stroke="hsl(0.0,100%,35%)" stroke-width="0.00287"></path>
<path d="M1.522 0.955 Q1.571 0.905 1.486 0.871" stroke="hsl(0.0,100%,35%)" stroke-width="0.00287"></path>
<path d="M1.522 0.955 Q1.523 0.922 1.460 0.915" stroke="hsl(0.0,100%,35%)" stroke-width="0.00287"></path>
<path d="M1.522 0.955 Q1.425 0.912 1.322 0.951" stroke="hsl(0.0,100%,35%)" stroke-width="0.00287"></path>
<path d="M1.522 0.955 Q1.456 0.930 1.393 0.957" stroke="hsl(0.0,100%,35%)" stroke-width="0.00287"></path>
<path d="M1.962 0.563 Q1.666 0.549 1.574 0.691" stroke="hsl(120.0,100%,35%)" stroke-width="0.00573"></path>
<path d="M1.962 0.563 Q1.852 0.551 1.803 0.602" stroke="hsl(120.0,100%,35%)" stroke-width="0.00573"></path>
<path d="M1.962 0.563 Q1.767 0.102 0.824 0.095" stroke="hsl(120.0,100%,35%)" stroke-width="0.00287"></path>
<path d="M1.574 0.691 Q1.356 0.602 1.135 0.688" stroke="hsl(120.0,100%,35%)" stroke-width="0.00287"></path>
<path d="M1.574 0.691 Q1.654 0.746 1.780 0.719" stroke="hsl(120.0,100%,35%)" stroke-width="0.01146"></path>
<path d="M1.574 0.691 Q0.983 0.390 0.267 0.613" stroke="hsl(120.0,100%,35%)" stroke-width="0.00287"></path>
<path d="M1.574 0.691 Q1.718 0.339 1.064 0.191" stroke="hsl(120.0,100%,35%)" stroke-width="0.00860"></path>
<path d="M1.574 0.691 Q1.532 0.651 1.446 0.663" stroke="hsl(120.0,100%,35%)" stroke-width="0.00287"></path>
<path d="M1.574 0.691 Q1.532 0.770 1.679 0.808" stroke="hsl(120.0,100%,35%)" stroke-width="0.00287"></path>
<path d="M0.824 0.095 Q0.863 0.081 0.844 0.058" stroke="hsl(120.0,100%,35%)" stroke-width="0.02292"></path>
<path d="M0.824 0.095 Q0.724 0.152 0.813 0.213" stroke="hsl(120.0,100%,35%)" stroke-width="0.00287"></path>
<path d="M0.824 0.095 Q0.839 0.137 0.924 0.138" stroke="hsl(120.0,100%,35%)" stroke-width="0.00287"></path>
<path d="M0.332 0.397 Q0.280 0.306 0.090 0.311" stroke="hsl(0.0,100%,35%)" stroke-width="0.01433"></path>
<path d="M0.332 0.397 Q0.904 0.793 1.803 0.602" stroke="hsl(0.0,100%,35%)" stroke-width="0.00287"></path>
<path d="M0.332 0.397 Q0.325 0.445 0.416 0.459" stroke="hsl(0.0,100%,35%)" stroke-width="0.00287"></path>
<path d="M0.332 0.397 Q0.523 0.373 0.518 0.274" stroke="hsl(0.0,100%,35%)" stroke-width="0.00287"></path>
<path d="M0.518 0.274 Q0.275 0.207 0.090 0.311" stroke="hsl(0.0,100%,35%)" stroke-width="0.04585"></path>
<path d="M0.518 0.274 Q0.507 0.319 0.592 0.334" stroke="hsl(0.0,100%,35%)" stroke-width="0.00287"></path>
<path d="M0.518 0.274 Q0.197 0.749 1.053 1.009" stroke="hsl(0.0,100%,35%)" stroke-width="0.00287"></path>
<path d="M0.518 0.274 Q1.021 0.616 1.798 0.445" stroke="hsl(0.0,100%,35%)" stroke-width="0.00287"></path>
<path d="M1.554 0.420 Q1.656 0.482 1.798 0.445" stroke="hsl(60.0,100%,35%)" stroke-width="0.01146"></path>
<path d="M1.554 0.420 Q1.429 0.320 1.206 0.359" stroke="hsl(60.0,100%,35%)" stroke-width="0.01146"></path>
<path d="M1.554 0.420 Q1.607 0.350 1.481 0.309" stroke="hsl(60.0,100%,35%)" stroke-width="0.00860"></path>
<path d="M1.554 0.420 Q1.735 0.425 1.785 0.338" stroke="hsl(60.0,100%,35%)" stroke-width="0.00287"></path>
<path d="M1.199 0.978 Q1.273 0.996 1.326 0.965" stroke="hsl(180.0,100%,35%)" stroke-width="0.00287"></path>
<path d="M1.199 0.978 Q1.193 0.982 1.199 0.985" stroke="hsl(180.0,100%,35%)" stroke-width="0.00287"></path>
<path d="M1.199 0.978 Q1.230 0.953 1.188 0.932" stroke="hsl(180.0,100%,35%)" stroke-width="0.00287"></path>
<path d="M0.844 0.058 Q0.188 0.576 1.053 1.009" stroke="hsl(120.0,100%,35%)" stroke-width="0.00860"></path>
<path d="M0.844 0.058 Q0.332 0.523 1.126 0.875" stroke="hsl(120.0,100%,35%)" stroke-width="0.00287"></path>
<path d="M0.844 0.058 Q0.848 0.169 1.064 0.191" stroke="hsl(120.0,100%,35%)" stroke-width="0.01146"></path>
<path d="M0.844 0.058 Q0.953 0.144 1.144 0.109" stroke="hsl(120.0,100%,35%)" stroke-width="0.00573"></path>
<path d="M1.053 1.009 Q1.197 0.957 1.126 0.875" stroke="hsl(120.0,100%,35%)" stroke-width="0.00573"></path>
<path d="M1.053 1.009 Q0.993 0.952 0.868 0.968" stroke="hsl(120.0,100%,35%)" stroke-width="0.00287"></path>
<path d="M1.053 1.009 Q1.210 0.930 1.089 0.836" stroke="hsl(120.0,100%,35%)" stroke-width="0.01719"></path>
<path d="M1.053 1.009 Q1.373 0.535 0.518 0.274" stroke="hsl(120.0,100%,35%)" stroke-width="0.00287"></path>
<path d="M1.053 1.009 Q1.105 0.934 0.970 0.892" stroke="hsl(120.0,100%,35%)" stroke-width="0.00573"></path>
<path d="M1.352 0.893 Q1.430 0.839 1.341 0.789" stroke="hsl(240.0,100%,35%)" stroke-width="0.00573"></path>
<path d="M1.352 0.893 Q1.505 0.937 1.625 0.872" stroke="hsl(240.0,100%,35%)" stroke-width="0.00573"></path>
<path d="M1.352 0.893 Q1.394 0.812 1.245 0.774" stroke="hsl(240.0,100%,35%)" stroke-width="0.00287"></path>
<path d="M1.352 0.893 Q1.323 0.894 1.319 0.908" stroke="hsl(240.0,100%,35%)" stroke-width="0.00287"></path>
<path d="M1.851 0.896 Q1.778 0.811 1.595 0.829" stroke="hsl(0.0,100%,35%)" stroke-width="0.00573"></path>
<path d="M1.851 0.896 Q1.038 0.509 0.103 0.821" stroke="hsl(0.0,100%,35%)" stroke-width="0.00287"></path>
<path d="M1.851 0.896 Q1.764 0.898 1.749 0.941" stroke="hsl(0.0,100%,35%)" stroke-width="0.00287"></path>
<path d="M1.851 0.896 Q2.063 0.739 1.803 0.602" stroke="hsl(0.0,100%,35%)" stroke-width="0.00287"></path>
<path d="M0.076 0.702 Q-0.006 0.767 0.103 0.821" stroke="hsl(0.0,100%,35%)" stroke-width="0.00860"></path>
<path d="M0.076 0.702 Q0.115 0.776 0.267 0.773" stroke="hsl(0.0,100%,35%)" stroke-width="0.00860"></path>
<path d="M0.076 0.702 Q0.147 0.803 0.360 0.791" stroke="hsl(0.0,100%,35%)" stroke-width="0.00287"></path>
<path d="M0.514 0.857 Q0.436 0.913 0.529 0.963" stroke="hsl(0.0,100%,35%)" stroke-width="0.00860"></path>
<path d="M0.514 0.857 Q0.602 0.618 0.155 0.523" stroke="hsl(0.0,100%,35%)" stroke-width="0.00573"></path>
<path d="M0.514 0.857 Q0.605 0.807 0.528 0.752" stroke="hsl(0.0,100%,35%)" stroke-width="0.00287"></path>
<path d="M0.529 0.963 Q0.621 0.917 0.551 0.862" stroke="hsl(0.0,100%,35%)" stroke-width="0.00287"></path>
<path d="M0.529 0.963 Q0.695 0.668 0.155 0.523" stroke="hsl(0.0,100%,35%)" stroke-width="0.00860"></path>
<path d="M0.529 0.963 Q0.678 0.911 0.609 0.827" stroke="hsl(0.0,100%,35%)" stroke-width="0.00287"></path>
<path d="M0.426 0.526 Q0.540 0.497 0.508 0.435" stroke="hsl(0.0,100%,35%)" stroke-width="0.00287"></path>
<path d="M0.426 0.526 Q0.592 0.502 0.582 0.416" stroke="hsl(0.0,100%,35%)" stroke-width="0.00287"></path>
<path d="M0.426 0.526 Q0.943 0.943 1.872 0.783" stroke="hsl(0.0,100%,35%)" stroke-width="0.00287"></path>
<path d="M0.508 0.435 Q0.560 0.440 0.582 0.416" stroke="hsl(0.0,100%,35%)" stroke-width="0.00287"></path>
<path d="M0.508 0.435 Q0.737 0.849 1.595 0.829" stroke="hsl(0.0,100%,35%)" stroke-width="0.00287"></path>
<path d="M1.562 0.579 Q1.562 0.486 1.380 0.465" stroke="hsl(120.0,100%,35%)" stroke-width="0.03438"></path>
<path d="M1.562 0.579 Q1.413 0.556 1.335 0.624" stroke="hsl(120.0,100%,35%)" stroke-width="0.02579"></path>
<path d="M1.562 0.579 Q1.016 0.617 0.970 0.892" stroke="hsl(120.0,100%,35%)" stroke-width="0.00287"></path>
<path d="M0.349 0.674 Q0.397 0.739 0.534 0.729" stroke="hsl(300.0,100%,35%)" stroke-width="0.00573"></path>
<path d="M0.349 0.674 Q0.336 0.636 0.258 0.633" stroke="hsl(300.0,100%,35%)" stroke-width="0.00860"></path>
<path d="M0.349 0.674 Q0.368 0.702 0.426 0.698" stroke="hsl(300.0,100%,35%)" stroke-width="0.00287"></path>
<path d="M1.595 0.829 Q1.669 0.914 1.851 0.896" stroke="hsl(0.0,100%,35%)" stroke-width="0.00573"></path>
<path d="M1.595 0.829 Q0.855 0.526 0.103 0.821" stroke="hsl(0.0,100%,35%)" stroke-width="0.00287"></path>
<path d="M1.595 0.829 Q1.582 0.916 1.749 0.941" stroke="hsl(0.0,100%,35%)" stroke-width="0.00287"></path>
<path d="M1.749 0.941 Q1.937 0.887 1.872 0.783" stroke="hsl(0.0,100%,35%)" stroke-width="0.00287"></path>
<path d="M1.749 0.941 Q1.836 0.939 1.851 0.896" stroke="hsl(0.0,100%,35%)" stroke-width="0.00860"></path>
<path d="M1.749 0.941 Q2.048 0.782 1.803 0.602" stroke="hsl(0.0,100%,35%)" stroke-width="0.00287"></path>
<path d="M1.749 0.941 Q1.645 0.692 1.135 0.688" stroke="hsl(0.0,100%,35%)" stroke-width="0.00287"></path>
<path d="M0.839 0.247 Q0.882 0.232 0.862 0.208" stroke="hsl(0.0,100%,35%)" stroke-width="0.00287"></path>
<path d="M0.839 0.247 Q0.718 0.297 0.789 0.366" stroke="hsl(0.0,100%,35%)" stroke-width="0.01433"></path>
<path d="M0.839 0.247 Q1.035 0.269 1.121 0.178" stroke="hsl(0.0,100%,35%)" stroke-width="0.00573"></path>
<path d="M1.917 0.171 Q1.514 0.446 1.963 0.704" stroke="hsl(0.0,100%,35%)" stroke-width="0.00287"></path>
<path d="M1.917 0.171 Q1.827 0.138 1.743 0.175" stroke="hsl(0.0,100%,35%)" stroke-width="0.00287"></path>
<path d="M1.917 0.171 Q1.798 0.261 1.949 0.339" stroke="hsl(0.0,100%,35%)" stroke-width="0.00287"></path>
<path d="M1.079 0.772 Q1.131 0.704 1.011 0.664" stroke="hsl(0.0,100%,35%)" stroke-width="0.00573"></path>
<path d="M1.079 0.772 Q1.258 0.511 0.789 0.366" stroke="hsl(0.0,100%,35%)" stroke-width="0.00573"></path>
<path d="M1.079 0.772 Q1.249 0.775 1.293 0.694" stroke="hsl(0.0,100%,35%)" stroke-width="0.00573"></path>
<path d="M1.079 0.772 Q1.174 0.741 1.135 0.688" stroke="hsl(0.0,100%,35%)" stroke-width="0.00287"></path>
<path d="M1.079 0.772 Q0.633 0.536 0.076 0.702" stroke="hsl(0.0,100%,35%)" stroke-width="0.00287"></path>
<path d="M1.079 0.772 Q1.235 0.776 1.277 0.701" stroke="hsl(0.0,100%,35%)" stroke-width="0.00287"></path>
<path d="M0.826 0.800 Q1.371 0.837 1.562 0.579" stroke="hsl(120.0,100%,35%)" stroke-width="0.00573"></path>
<path d="M0.826 0.800 Q0.745 0.836 0.797 0.884" stroke="hsl(120.0,100%,35%)" stroke-width="0.02006"></path>
<path d="M0.826 0.800 Q1.371 0.744 1.380 0.465" stroke="hsl(120.0,100%,35%)" stroke-width="0.00287"></path>
<path d="M0.762 0.685 Q0.702 0.755 0.826 0.800" stroke="hsl(120.0,100%,35%)" stroke-width="0.01146"></path>
<path d="M0.762 0.685 Q0.620 0.792 0.797 0.884" stroke="hsl(120.0,100%,35%)" stroke-width="0.00573"></path>
<path d="M0.762 0.685 Q1.247 0.792 1.562 0.579" stroke="hsl(120.0,100%,35%)" stroke-width="0.00573"></path>
<path d="M0.762 0.685 Q0.691 0.660 0.626 0.689" stroke="hsl(120.0,100%,35%)" stroke-width="0.00287"></path>
</g>
<text x="1.939" y="0.578" font-size="0.014886" fill="hsl(0.0,100%,20%)">adrian.ratiu</text>
<text x="1.963" y="0.692" font-size="0.023538" fill="hsl(0.0,100%,20%)">ejcaruso</text>
<text x="0.636" y="0.467" font-size="0.014886" fill="hsl(0.0,100%,20%)">madhavadas</text>
<text x="1.970" y="0.610" font-size="0.007443" fill="hsl(0.0,100%,20%)">vshenvi</text>
<text x="1.322" y="0.945" font-size="0.010526" fill="hsl(0.0,100%,20%)">lbaraz</text>
<text x="1.481" y="0.278" font-size="0.061828" fill="hsl(60.0,100%,20%)">akahuang</text>
<text x="1.785" y="0.310" font-size="0.055200" fill="hsl(60.0,100%,20%)">hugobenichi</text>
<text x="1.206" y="0.334" font-size="0.049931" fill="hsl(60.0,100%,20%)">jiejiang</text>
<text x="1.623" y="0.073" font-size="0.007443" fill="hsl(60.0,100%,20%)">acostinas</text>
<text x="1.798" y="0.432" font-size="0.027850" fill="hsl(60.0,100%,20%)">taoyl</text>
<text x="1.605" y="0.156" font-size="0.007443" fill="hsl(60.0,100%,20%)">jasongustaman</text>
<text x="0.551" y="0.614" font-size="0.016644" fill="hsl(0.0,100%,20%)">aleksandermj</text>
<text x="0.696" y="0.567" font-size="0.012892" fill="hsl(0.0,100%,20%)">pholla</text>
<text x="0.875" y="0.480" font-size="0.024686" fill="hsl(0.0,100%,20%)">andrewlassalle</text>
<text x="0.155" y="0.507" font-size="0.031579" fill="hsl(0.0,100%,20%)">amoylan</text>
<text x="0.376" y="0.554" font-size="0.007443" fill="hsl(0.0,100%,20%)">vsavu</text>
<text x="1.011" y="0.658" font-size="0.012892" fill="hsl(0.0,100%,20%)">keiichiw</text>
<text x="0.267" y="0.607" font-size="0.010526" fill="hsl(0.0,100%,20%)">hidehiko</text>
<text x="0.103" y="0.811" font-size="0.018232" fill="hsl(0.0,100%,20%)">iby</text>
<text x="0.053" y="0.597" font-size="0.007443" fill="hsl(0.0,100%,20%)">aidazolic</text>
<text x="0.419" y="0.570" font-size="0.007443" fill="hsl(0.0,100%,20%)">mpolzer</text>
<text x="0.032" y="0.582" font-size="0.007443" fill="hsl(0.0,100%,20%)">yoshiki</text>
<text x="1.872" y="0.775" font-size="0.014886" fill="hsl(0.0,100%,20%)">matthewmwang</text>
<text x="0.090" y="0.284" font-size="0.053674" fill="hsl(0.0,100%,20%)">yich</text>
<text x="0.313" y="0.588" font-size="0.007443" fill="hsl(0.0,100%,20%)">jcliang</text>
<text x="0.137" y="0.403" font-size="0.007443" fill="hsl(0.0,100%,20%)">nmuggli</text>
<text x="1.385" y="0.792" font-size="0.014886" fill="hsl(0.0,100%,20%)">anastasiian</text>
<text x="1.522" y="0.944" font-size="0.021053" fill="hsl(0.0,100%,20%)">emaxx</text>
<text x="1.126" y="0.867" font-size="0.014886" fill="hsl(0.0,100%,20%)">betuls</text>
<text x="1.474" y="0.780" font-size="0.007443" fill="hsl(0.0,100%,20%)">zuan</text>
<text x="0.926" y="0.591" font-size="0.012892" fill="hsl(0.0,100%,20%)">danielwinkler</text>
<text x="1.962" y="0.555" font-size="0.016644" fill="hsl(120.0,100%,20%)">briannorris</text>
<text x="1.574" y="0.677" font-size="0.026837" fill="hsl(120.0,100%,20%)">kimjae</text>
<text x="1.803" y="0.593" font-size="0.018232" fill="hsl(0.0,100%,20%)">jorgelo</text>
<text x="0.824" y="0.082" font-size="0.025784" fill="hsl(120.0,100%,20%)">gwendal</text>
<text x="0.332" y="0.386" font-size="0.022330" fill="hsl(0.0,100%,20%)">chensa</text>
<text x="0.416" y="0.455" font-size="0.007443" fill="hsl(0.0,100%,20%)">sfrolov</text>
<text x="0.518" y="0.254" font-size="0.040083" fill="hsl(0.0,100%,20%)">hcyang</text>
<text x="1.554" y="0.408" font-size="0.025784" fill="hsl(60.0,100%,20%)">chenzikai</text>
<text x="1.199" y="0.971" font-size="0.012892" fill="hsl(180.0,100%,20%)">danielng</text>
<text x="1.326" y="0.961" font-size="0.007443" fill="hsl(180.0,100%,20%)">zzyiwei</text>
<text x="1.199" y="0.982" font-size="0.007443" fill="hsl(180.0,100%,20%)">philpearson</text>
<text x="1.188" y="0.928" font-size="0.007443" fill="hsl(180.0,100%,20%)">joelhockey</text>
<text x="0.844" y="0.043" font-size="0.031579" fill="hsl(120.0,100%,20%)">dlunev</text>
<text x="1.053" y="0.994" font-size="0.029773" fill="hsl(120.0,100%,20%)">jadmanski</text>
<text x="1.064" y="0.181" font-size="0.019693" fill="hsl(120.0,100%,20%)">sarthakkukreti</text>
<text x="1.144" y="0.104" font-size="0.010526" fill="hsl(120.0,100%,20%)">jpachara</text>
<text x="1.352" y="0.884" font-size="0.018232" fill="hsl(240.0,100%,20%)">dverkamp</text>
<text x="1.341" y="0.783" font-size="0.010526" fill="hsl(240.0,100%,20%)">uekawa</text>
<text x="1.625" y="0.867" font-size="0.010526" fill="hsl(240.0,100%,20%)">dtor</text>
<text x="1.245" y="0.770" font-size="0.007443" fill="hsl(240.0,100%,20%)">chibar</text>
<text x="1.319" y="0.905" font-size="0.007443" fill="hsl(240.0,100%,20%)">jamesye</text>
<text x="1.851" y="0.884" font-size="0.024686" fill="hsl(0.0,100%,20%)">norvez</text>
<text x="0.076" y="0.691" font-size="0.022330" fill="hsl(0.0,100%,20%)">mutexlox</text>
<text x="1.486" y="0.867" font-size="0.007443" fill="hsl(0.0,100%,20%)">ayaelattar</text>
<text x="1.460" y="0.911" font-size="0.007443" fill="hsl(0.0,100%,20%)">jasonling</text>
<text x="1.393" y="0.953" font-size="0.007443" fill="hsl(0.0,100%,20%)">rrangel</text>
<text x="0.813" y="0.209" font-size="0.007443" fill="hsl(120.0,100%,20%)">aaronyu</text>
<text x="0.924" y="0.135" font-size="0.007443" fill="hsl(120.0,100%,20%)">denniskempin</text>
<text x="0.592" y="0.330" font-size="0.007443" fill="hsl(0.0,100%,20%)">fqj</text>
<text x="0.868" y="0.965" font-size="0.007443" fill="hsl(120.0,100%,20%)">behnoodm</text>
<text x="1.089" y="0.827" font-size="0.018232" fill="hsl(120.0,100%,20%)">lziest</text>
<text x="0.970" y="0.885" font-size="0.012892" fill="hsl(120.0,100%,20%)">thomascedeno</text>
<text x="1.135" y="0.680" font-size="0.016644" fill="hsl(0.0,100%,20%)">allenwebb</text>
<text x="1.780" y="0.710" font-size="0.018232" fill="hsl(120.0,100%,20%)">vapier</text>
<text x="1.296" y="0.419" font-size="0.007443" fill="hsl(60.0,100%,20%)">benreich</text>
<text x="0.923" y="0.281" font-size="0.007443" fill="hsl(60.0,100%,20%)">ujjwalpande</text>
<text x="0.514" y="0.848" font-size="0.018232" fill="hsl(0.0,100%,20%)">jiwan</text>
<text x="0.529" y="0.953" font-size="0.021053" fill="hsl(0.0,100%,20%)">robsc</text>
<text x="0.528" y="0.748" font-size="0.007443" fill="hsl(0.0,100%,20%)">alanlxl</text>
<text x="0.426" y="0.519" font-size="0.012892" fill="hsl(0.0,100%,20%)">jsiuda</text>
<text x="0.508" y="0.428" font-size="0.012892" fill="hsl(0.0,100%,20%)">kglund</text>
<text x="0.582" y="0.411" font-size="0.010526" fill="hsl(0.0,100%,20%)">jintaolin</text>
<text x="1.562" y="0.560" font-size="0.037953" fill="hsl(120.0,100%,20%)">kerker</text>
<text x="1.380" y="0.452" font-size="0.026837" fill="hsl(120.0,100%,20%)">dennyh</text>
<text x="1.335" y="0.612" font-size="0.022330" fill="hsl(120.0,100%,20%)">zubeil</text>
<text x="0.349" y="0.665" font-size="0.018232" fill="hsl(300.0,100%,20%)">kevinptt</text>
<text x="0.534" y="0.724" font-size="0.010526" fill="hsl(300.0,100%,20%)">chungsheng</text>
<text x="0.258" y="0.627" font-size="0.012892" fill="hsl(300.0,100%,20%)">ckclark</text>
<text x="0.426" y="0.695" font-size="0.007443" fill="hsl(300.0,100%,20%)">chenghan</text>
<text x="1.595" y="0.819" font-size="0.019693" fill="hsl(0.0,100%,20%)">kuabhs</text>
<text x="1.446" y="0.659" font-size="0.007443" fill="hsl(120.0,100%,20%)">yuanpengni</text>
<text x="1.679" y="0.804" font-size="0.007443" fill="hsl(120.0,100%,20%)">hardtmad</text>
<text x="1.749" y="0.931" font-size="0.021053" fill="hsl(0.0,100%,20%)">yichenyu</text>
<text x="0.839" y="0.236" font-size="0.021053" fill="hsl(0.0,100%,20%)">mka</text>
<text x="0.862" y="0.204" font-size="0.007443" fill="hsl(0.0,100%,20%)">asavery</text>
<text x="0.789" y="0.357" font-size="0.019693" fill="hsl(0.0,100%,20%)">bgeffon</text>
<text x="1.121" y="0.173" font-size="0.010526" fill="hsl(0.0,100%,20%)">quasisec</text>
<text x="0.267" y="0.766" font-size="0.012892" fill="hsl(0.0,100%,20%)">kendraketsui</text>
<text x="0.360" y="0.787" font-size="0.007443" fill="hsl(0.0,100%,20%)">yaohuali</text>
<text x="0.551" y="0.859" font-size="0.007443" fill="hsl(0.0,100%,20%)">amandadeacon</text>
<text x="0.609" y="0.823" font-size="0.007443" fill="hsl(0.0,100%,20%)">evliu</text>
<text x="1.917" y="0.165" font-size="0.012892" fill="hsl(0.0,100%,20%)">seannli</text>
<text x="1.743" y="0.172" font-size="0.007443" fill="hsl(0.0,100%,20%)">okuji</text>
<text x="1.949" y="0.335" font-size="0.007443" fill="hsl(0.0,100%,20%)">imranziad</text>
<text x="1.079" y="0.761" font-size="0.022330" fill="hsl(0.0,100%,20%)">stevensd</text>
<text x="1.293" y="0.688" font-size="0.010526" fill="hsl(0.0,100%,20%)">kawasin</text>
<text x="1.277" y="0.697" font-size="0.007443" fill="hsl(0.0,100%,20%)">shahadath</text>
<text x="0.826" y="0.786" font-size="0.027850" fill="hsl(120.0,100%,20%)">weiluanwang</text>
<text x="0.797" y="0.873" font-size="0.022330" fill="hsl(120.0,100%,20%)">byronlee</text>
<text x="0.347" y="0.197" font-size="0.023538" fill="hsl(0.0,100%,20%)">chingkang</text>
<text x="0.117" y="0.177" font-size="0.007443" fill="hsl(0.0,100%,20%)">tbain</text>
<text x="0.446" y="0.403" font-size="0.007443" fill="hsl(0.0,100%,20%)">apronin</text>
<text x="0.181" y="0.147" font-size="0.007443" fill="hsl(0.0,100%,20%)">sidereal</text>
<text x="0.151" y="0.101" font-size="0.010526" fill="hsl(0.0,100%,20%)">jkardatzke</text>
<text x="0.762" y="0.674" font-size="0.022330" fill="hsl(120.0,100%,20%)">yycheng</text>
<text x="0.626" y="0.686" font-size="0.007443" fill="hsl(120.0,100%,20%)">jrosenth</text>
</svg>
