<svg width="4000" height="2000" viewBox="-0.025 -0.025 2.05 1.05" xmlns="http://www.w3.org/2000/svg">
  <style>
    path {
      fill: none;
      stroke-linecap: round;
      stroke-opacity: 0.4;
    }

    text {
      text-anchor: middle;
      alignment-baseline: hanging;
    }
  </style>
  <g opacity="0.4">
<path d="M1.027 0.702 Q0.857 0.554 0.530 0.604" stroke="hsl(0.0,100%,35%)" stroke-width="0.04665"></path>
<path d="M1.027 0.702 Q0.875 0.652 0.744 0.716" stroke="hsl(0.0,100%,35%)" stroke-width="0.03499"></path>
<path d="M1.027 0.702 Q0.932 0.680 0.867 0.721" stroke="hsl(0.0,100%,35%)" stroke-width="0.01166"></path>
<path d="M1.027 0.702 Q0.881 0.712 0.868 0.786" stroke="hsl(0.0,100%,35%)" stroke-width="0.02332"></path>
<path d="M1.697 0.251 Q1.829 0.160 1.681 0.075" stroke="hsl(72.0,100%,35%)" stroke-width="0.01166"></path>
<path d="M1.697 0.251 Q1.596 0.155 1.387 0.183" stroke="hsl(72.0,100%,35%)" stroke-width="0.01166"></path>
<path d="M1.697 0.251 Q1.846 0.279 1.934 0.213" stroke="hsl(72.0,100%,35%)" stroke-width="0.01166"></path>
<path d="M1.242 0.473 Q0.409 0.477 0.233 0.884" stroke="hsl(144.0,100%,35%)" stroke-width="0.01166"></path>
<path d="M1.242 0.473 Q0.421 0.570 0.430 0.992" stroke="hsl(144.0,100%,35%)" stroke-width="0.02332"></path>
<path d="M1.242 0.473 Q1.391 0.551 1.576 0.496" stroke="hsl(144.0,100%,35%)" stroke-width="0.02332"></path>
<path d="M1.242 0.473 Q1.476 0.417 1.419 0.291" stroke="hsl(144.0,100%,35%)" stroke-width="0.01166"></path>
<path d="M0.430 0.992 Q0.607 0.894 0.454 0.786" stroke="hsl(144.0,100%,35%)" stroke-width="0.01166"></path>
<path d="M0.430 0.992 Q0.611 0.946 0.561 0.848" stroke="hsl(144.0,100%,35%)" stroke-width="0.03499"></path>
<path d="M0.430 0.992 Q0.418 0.898 0.233 0.884" stroke="hsl(144.0,100%,35%)" stroke-width="0.02332"></path>
<path d="M1.011 0.565 Q0.788 0.687 0.978 0.823" stroke="hsl(216.0,100%,35%)" stroke-width="0.01166"></path>
<path d="M1.011 0.565 Q1.091 0.618 1.211 0.591" stroke="hsl(216.0,100%,35%)" stroke-width="0.01166"></path>
<path d="M1.011 0.565 Q0.989 0.457 0.774 0.445" stroke="hsl(216.0,100%,35%)" stroke-width="0.01166"></path>
<path d="M1.011 0.565 Q0.701 0.744 0.982 0.935" stroke="hsl(216.0,100%,35%)" stroke-width="0.01166"></path>
<path d="M0.978 0.823 Q0.785 0.814 0.725 0.906" stroke="hsl(216.0,100%,35%)" stroke-width="0.02332"></path>
<path d="M0.978 0.823 Q0.890 0.880 0.982 0.935" stroke="hsl(216.0,100%,35%)" stroke-width="0.04665"></path>
<path d="M0.978 0.823 Q1.155 0.975 1.491 0.922" stroke="hsl(216.0,100%,35%)" stroke-width="0.01166"></path>
<path d="M0.233 0.121 Q0.397 0.162 0.512 0.091" stroke="hsl(288.0,100%,35%)" stroke-width="0.02332"></path>
<path d="M0.233 0.121 Q0.123 0.159 0.172 0.220" stroke="hsl(288.0,100%,35%)" stroke-width="0.01166"></path>
<path d="M0.233 0.121 Q0.141 0.202 0.278 0.264" stroke="hsl(288.0,100%,35%)" stroke-width="0.01166"></path>
<path d="M1.138 0.064 Q0.402 0.212 0.530 0.604" stroke="hsl(0.0,100%,35%)" stroke-width="0.01166"></path>
<path d="M1.138 0.064 Q0.420 0.311 0.744 0.716" stroke="hsl(0.0,100%,35%)" stroke-width="0.01166"></path>
<path d="M1.138 0.064 Q1.013 0.131 1.116 0.207" stroke="hsl(0.0,100%,35%)" stroke-width="0.01166"></path>
<path d="M1.138 0.064 Q0.897 0.018 0.753 0.125" stroke="hsl(0.0,100%,35%)" stroke-width="0.01166"></path>
<path d="M0.860 0.349 Q1.358 0.467 1.697 0.251" stroke="hsl(72.0,100%,35%)" stroke-width="0.02332"></path>
<path d="M0.860 0.349 Q0.732 0.254 0.518 0.296" stroke="hsl(72.0,100%,35%)" stroke-width="0.02332"></path>
<path d="M0.860 0.349 Q0.695 0.320 0.600 0.394" stroke="hsl(72.0,100%,35%)" stroke-width="0.01166"></path>
<path d="M0.860 0.349 Q0.591 0.343 0.519 0.473" stroke="hsl(72.0,100%,35%)" stroke-width="0.01166"></path>
</g>
<text x="1.027" y="0.671" font-size="0.063246" fill="hsl(0.0,100%,20%)">akahuang</text>
<text x="0.530" y="0.582" font-size="0.044721" fill="hsl(0.0,100%,20%)">jiejiang</text>
<text x="0.744" y="0.696" font-size="0.040000" fill="hsl(0.0,100%,20%)">hugobenichi</text>
<text x="0.867" y="0.711" font-size="0.020000" fill="hsl(0.0,100%,20%)">jasongustaman</text>
<text x="0.868" y="0.772" font-size="0.028284" fill="hsl(0.0,100%,20%)">taoyl</text>
<text x="1.697" y="0.228" font-size="0.044721" fill="hsl(72.0,100%,20%)">chungsheng</text>
<text x="1.681" y="0.065" font-size="0.020000" fill="hsl(72.0,100%,20%)">jrosenth</text>
<text x="1.387" y="0.173" font-size="0.020000" fill="hsl(72.0,100%,20%)">yupingso</text>
<text x="1.934" y="0.203" font-size="0.020000" fill="hsl(72.0,100%,20%)">sammc</text>
<text x="1.242" y="0.448" font-size="0.048990" fill="hsl(144.0,100%,20%)">hcyang</text>
<text x="0.233" y="0.867" font-size="0.034641" fill="hsl(144.0,100%,20%)">lziest</text>
<text x="0.430" y="0.963" font-size="0.056569" fill="hsl(144.0,100%,20%)">jadmanski</text>
<text x="1.576" y="0.481" font-size="0.028284" fill="hsl(144.0,100%,20%)">yich</text>
<text x="1.419" y="0.281" font-size="0.020000" fill="hsl(144.0,100%,20%)">chensa</text>
<text x="1.011" y="0.545" font-size="0.040000" fill="hsl(216.0,100%,20%)">imranziad</text>
<text x="0.978" y="0.795" font-size="0.056569" fill="hsl(216.0,100%,20%)">julianachang</text>
<text x="1.211" y="0.581" font-size="0.020000" fill="hsl(216.0,100%,20%)">hidehiko</text>
<text x="0.774" y="0.435" font-size="0.020000" fill="hsl(216.0,100%,20%)">jmpollock</text>
<text x="0.982" y="0.912" font-size="0.044721" fill="hsl(216.0,100%,20%)">okuji</text>
<text x="0.454" y="0.776" font-size="0.020000" fill="hsl(144.0,100%,20%)">betuls</text>
<text x="0.561" y="0.831" font-size="0.034641" fill="hsl(144.0,100%,20%)">hardikgoyal</text>
<text x="0.725" y="0.891" font-size="0.028284" fill="hsl(216.0,100%,20%)">kamesan</text>
<text x="1.491" y="0.912" font-size="0.020000" fill="hsl(216.0,100%,20%)">treapking</text>
<text x="0.233" y="0.101" font-size="0.040000" fill="hsl(288.0,100%,20%)">mka</text>
<text x="0.512" y="0.076" font-size="0.028284" fill="hsl(288.0,100%,20%)">bgeffon</text>
<text x="0.172" y="0.210" font-size="0.020000" fill="hsl(288.0,100%,20%)">iby</text>
<text x="0.278" y="0.254" font-size="0.020000" fill="hsl(288.0,100%,20%)">jingmuli</text>
<text x="1.138" y="0.044" font-size="0.040000" fill="hsl(0.0,100%,20%)">nmuggli</text>
<text x="1.116" y="0.197" font-size="0.020000" fill="hsl(0.0,100%,20%)">amoylan</text>
<text x="0.753" y="0.115" font-size="0.020000" fill="hsl(0.0,100%,20%)">mutexlox</text>
<text x="0.860" y="0.325" font-size="0.048990" fill="hsl(72.0,100%,20%)">weiluanwang</text>
<text x="0.518" y="0.282" font-size="0.028284" fill="hsl(72.0,100%,20%)">toyoshim</text>
<text x="0.600" y="0.384" font-size="0.020000" fill="hsl(72.0,100%,20%)">yycheng</text>
<text x="0.519" y="0.463" font-size="0.020000" fill="hsl(72.0,100%,20%)">kerker</text>
</svg>
