<svg width="4000" height="2000" viewBox="-0.025 -0.025 2.05 1.05" xmlns="http://www.w3.org/2000/svg">
  <style>
    path {
      fill: none;
      stroke-linecap: round;
      stroke-opacity: 0.4;
    }

    text {
      text-anchor: middle;
      alignment-baseline: hanging;
    }
  </style>
  <g opacity="0.4">
<path d="M1.759 0.926 Q1.822 0.930 1.844 0.901" stroke="hsl(0.0,100%,35%)" stroke-width="0.00487"></path>
<path d="M1.759 0.926 Q1.824 0.914 1.815 0.880" stroke="hsl(0.0,100%,35%)" stroke-width="0.00243"></path>
<path d="M1.759 0.926 Q1.755 0.938 1.778 0.942" stroke="hsl(0.0,100%,35%)" stroke-width="0.00487"></path>
<path d="M1.560 0.415 Q1.533 0.441 1.577 0.459" stroke="hsl(0.0,100%,35%)" stroke-width="0.00243"></path>
<path d="M1.560 0.415 Q1.532 0.378 1.453 0.384" stroke="hsl(0.0,100%,35%)" stroke-width="0.00243"></path>
<path d="M1.560 0.415 Q1.154 0.096 0.442 0.224" stroke="hsl(0.0,100%,35%)" stroke-width="0.00243"></path>
<path d="M1.560 0.415 Q0.931 0.407 0.776 0.712" stroke="hsl(0.0,100%,35%)" stroke-width="0.00243"></path>
<path d="M1.560 0.415 Q0.820 0.399 0.625 0.756" stroke="hsl(0.0,100%,35%)" stroke-width="0.00243"></path>
<path d="M1.560 0.415 Q1.470 0.351 1.324 0.380" stroke="hsl(0.0,100%,35%)" stroke-width="0.00243"></path>
<path d="M1.560 0.415 Q1.186 0.641 1.544 0.873" stroke="hsl(0.0,100%,35%)" stroke-width="0.00243"></path>
<path d="M0.442 0.224 Q0.405 0.328 0.601 0.369" stroke="hsl(0.0,100%,35%)" stroke-width="0.02678"></path>
<path d="M0.442 0.224 Q0.512 0.159 0.402 0.111" stroke="hsl(0.0,100%,35%)" stroke-width="0.00487"></path>
<path d="M0.442 0.224 Q0.355 0.658 1.183 0.795" stroke="hsl(0.0,100%,35%)" stroke-width="0.00243"></path>
<path d="M0.442 0.224 Q0.394 0.133 0.208 0.136" stroke="hsl(0.0,100%,35%)" stroke-width="0.00243"></path>
<path d="M0.442 0.224 Q0.556 0.283 0.697 0.240" stroke="hsl(0.0,100%,35%)" stroke-width="0.00487"></path>
<path d="M0.442 0.224 Q0.328 0.238 0.332 0.296" stroke="hsl(0.0,100%,35%)" stroke-width="0.00243"></path>
<path d="M0.442 0.224 Q0.466 0.309 0.638 0.316" stroke="hsl(0.0,100%,35%)" stroke-width="0.00243"></path>
<path d="M0.442 0.224 Q0.381 0.170 0.262 0.187" stroke="hsl(0.0,100%,35%)" stroke-width="0.00243"></path>
<path d="M0.442 0.224 Q0.568 0.289 0.724 0.242" stroke="hsl(0.0,100%,35%)" stroke-width="0.00243"></path>
<path d="M0.442 0.224 Q0.577 0.249 0.657 0.189" stroke="hsl(0.0,100%,35%)" stroke-width="0.00243"></path>
<path d="M1.544 0.873 Q1.656 0.894 1.722 0.844" stroke="hsl(60.0,100%,35%)" stroke-width="0.00974"></path>
<path d="M1.544 0.873 Q1.500 0.824 1.395 0.835" stroke="hsl(60.0,100%,35%)" stroke-width="0.02434"></path>
<path d="M1.544 0.873 Q1.192 0.588 0.559 0.697" stroke="hsl(60.0,100%,35%)" stroke-width="0.00487"></path>
<path d="M1.544 0.873 Q1.891 0.673 1.577 0.459" stroke="hsl(60.0,100%,35%)" stroke-width="0.00243"></path>
<path d="M1.247 0.665 Q1.111 0.717 1.183 0.795" stroke="hsl(120.0,100%,35%)" stroke-width="0.04382"></path>
<path d="M1.247 0.665 Q1.327 0.721 1.454 0.694" stroke="hsl(120.0,100%,35%)" stroke-width="0.01947"></path>
<path d="M1.247 0.665 Q1.402 0.617 1.343 0.530" stroke="hsl(120.0,100%,35%)" stroke-width="0.00487"></path>
<path d="M1.183 0.795 Q1.319 0.743 1.247 0.665" stroke="hsl(120.0,100%,35%)" stroke-width="0.01461"></path>
<path d="M1.183 0.795 Q1.399 0.799 1.454 0.694" stroke="hsl(120.0,100%,35%)" stroke-width="0.01217"></path>
<path d="M1.183 0.795 Q1.369 0.646 1.119 0.523" stroke="hsl(120.0,100%,35%)" stroke-width="0.00487"></path>
<path d="M1.183 0.795 Q0.990 0.407 0.190 0.416" stroke="hsl(120.0,100%,35%)" stroke-width="0.00243"></path>
<path d="M1.454 0.694 Q1.238 0.690 1.183 0.795" stroke="hsl(120.0,100%,35%)" stroke-width="0.02678"></path>
<path d="M1.454 0.694 Q0.658 0.486 0.076 0.828" stroke="hsl(120.0,100%,35%)" stroke-width="0.00243"></path>
<path d="M1.454 0.694 Q1.154 0.331 0.380 0.398" stroke="hsl(120.0,100%,35%)" stroke-width="0.00243"></path>
<path d="M1.454 0.694 Q1.631 0.683 1.648 0.594" stroke="hsl(120.0,100%,35%)" stroke-width="0.00243"></path>
<path d="M1.454 0.694 Q1.616 0.637 1.540 0.546" stroke="hsl(120.0,100%,35%)" stroke-width="0.00487"></path>
<path d="M1.454 0.694 Q1.530 0.590 1.343 0.530" stroke="hsl(120.0,100%,35%)" stroke-width="0.00243"></path>
<path d="M1.454 0.694 Q0.889 0.481 0.349 0.710" stroke="hsl(120.0,100%,35%)" stroke-width="0.00243"></path>
<path d="M1.612 0.055 Q1.592 0.102 1.680 0.122" stroke="hsl(0.0,100%,35%)" stroke-width="0.00730"></path>
<path d="M1.612 0.055 Q1.698 0.113 1.831 0.084" stroke="hsl(0.0,100%,35%)" stroke-width="0.01217"></path>
<path d="M1.612 0.055 Q0.892 -0.095 0.442 0.224" stroke="hsl(0.0,100%,35%)" stroke-width="0.00243"></path>
<path d="M0.190 0.416 Q0.384 0.804 1.183 0.795" stroke="hsl(120.0,100%,35%)" stroke-width="0.00243"></path>
<path d="M0.190 0.416 Q0.300 0.445 0.380 0.398" stroke="hsl(120.0,100%,35%)" stroke-width="0.01704"></path>
<path d="M0.190 0.416 Q0.127 0.497 0.272 0.546" stroke="hsl(120.0,100%,35%)" stroke-width="0.00974"></path>
<path d="M0.190 0.416 Q0.109 0.560 0.372 0.631" stroke="hsl(120.0,100%,35%)" stroke-width="0.00487"></path>
<path d="M0.380 0.398 Q0.464 0.757 1.183 0.795" stroke="hsl(120.0,100%,35%)" stroke-width="0.00974"></path>
<path d="M0.380 0.398 Q-0.139 0.634 0.207 0.939" stroke="hsl(120.0,100%,35%)" stroke-width="0.00243"></path>
<path d="M0.380 0.398 Q0.208 0.450 0.272 0.546" stroke="hsl(120.0,100%,35%)" stroke-width="0.00243"></path>
<path d="M0.272 0.546 Q0.335 0.465 0.190 0.416" stroke="hsl(120.0,100%,35%)" stroke-width="0.00487"></path>
<path d="M0.272 0.546 Q0.444 0.493 0.380 0.398" stroke="hsl(120.0,100%,35%)" stroke-width="0.00487"></path>
<path d="M0.272 0.546 Q0.112 0.728 0.433 0.846" stroke="hsl(120.0,100%,35%)" stroke-width="0.00243"></path>
<path d="M0.272 0.546 Q0.528 0.852 1.183 0.795" stroke="hsl(120.0,100%,35%)" stroke-width="0.00243"></path>
<path d="M0.272 0.546 Q0.254 0.608 0.372 0.631" stroke="hsl(120.0,100%,35%)" stroke-width="0.00974"></path>
<path d="M1.116 0.068 Q1.106 0.033 1.036 0.031" stroke="hsl(0.0,100%,35%)" stroke-width="0.00243"></path>
<path d="M1.116 0.068 Q1.100 0.119 1.196 0.138" stroke="hsl(0.0,100%,35%)" stroke-width="0.00487"></path>
<path d="M1.116 0.068 Q0.592 0.326 0.980 0.639" stroke="hsl(0.0,100%,35%)" stroke-width="0.00243"></path>
<path d="M1.116 0.068 Q1.065 0.127 1.170 0.165" stroke="hsl(0.0,100%,35%)" stroke-width="0.00243"></path>
<path d="M0.980 0.639 Q0.972 0.581 0.857 0.572" stroke="hsl(120.0,100%,35%)" stroke-width="0.00730"></path>
<path d="M0.980 0.639 Q1.043 0.323 0.442 0.224" stroke="hsl(120.0,100%,35%)" stroke-width="0.00243"></path>
<path d="M0.980 0.639 Q1.137 0.950 1.778 0.942" stroke="hsl(120.0,100%,35%)" stroke-width="0.00243"></path>
<path d="M0.433 0.846 Q0.554 0.984 0.850 0.956" stroke="hsl(120.0,100%,35%)" stroke-width="0.00243"></path>
<path d="M0.433 0.846 Q0.246 0.847 0.207 0.939" stroke="hsl(120.0,100%,35%)" stroke-width="0.00487"></path>
<path d="M0.433 0.846 Q0.426 0.788 0.311 0.779" stroke="hsl(120.0,100%,35%)" stroke-width="0.00243"></path>
<path d="M0.433 0.846 Q0.849 0.970 1.183 0.795" stroke="hsl(120.0,100%,35%)" stroke-width="0.00730"></path>
<path d="M0.433 0.846 Q0.323 0.907 0.418 0.974" stroke="hsl(120.0,100%,35%)" stroke-width="0.00243"></path>
<path d="M0.433 0.846 Q0.655 0.582 0.190 0.416" stroke="hsl(120.0,100%,35%)" stroke-width="0.00487"></path>
<path d="M0.349 0.710 Q0.172 0.856 0.418 0.974" stroke="hsl(120.0,100%,35%)" stroke-width="0.00243"></path>
<path d="M0.349 0.710 Q0.282 0.795 0.433 0.846" stroke="hsl(120.0,100%,35%)" stroke-width="0.00243"></path>
<path d="M0.349 0.710 Q0.095 0.796 0.207 0.939" stroke="hsl(120.0,100%,35%)" stroke-width="0.00243"></path>
<path d="M0.418 0.974 Q0.492 1.023 0.605 0.997" stroke="hsl(120.0,100%,35%)" stroke-width="0.00974"></path>
<path d="M0.418 0.974 Q0.528 0.913 0.433 0.846" stroke="hsl(120.0,100%,35%)" stroke-width="0.00974"></path>
<path d="M0.418 0.974 Q0.341 0.914 0.207 0.939" stroke="hsl(120.0,100%,35%)" stroke-width="0.01217"></path>
<path d="M0.212 0.241 Q0.287 0.168 0.162 0.116" stroke="hsl(180.0,100%,35%)" stroke-width="0.00243"></path>
<path d="M0.212 0.241 Q0.149 0.221 0.096 0.247" stroke="hsl(180.0,100%,35%)" stroke-width="0.00243"></path>
<path d="M0.212 0.241 Q0.121 0.245 0.109 0.290" stroke="hsl(180.0,100%,35%)" stroke-width="0.00487"></path>
<path d="M0.109 0.290 Q0.137 0.266 0.096 0.247" stroke="hsl(180.0,100%,35%)" stroke-width="0.00243"></path>
<path d="M0.109 0.290 Q0.200 0.286 0.212 0.241" stroke="hsl(180.0,100%,35%)" stroke-width="0.01217"></path>
<path d="M0.109 0.290 Q0.157 0.321 0.228 0.305" stroke="hsl(180.0,100%,35%)" stroke-width="0.00243"></path>
<path d="M0.109 0.290 Q0.328 0.323 0.442 0.224" stroke="hsl(180.0,100%,35%)" stroke-width="0.00243"></path>
<path d="M0.930 0.840 Q0.934 0.850 0.955 0.850" stroke="hsl(0.0,100%,35%)" stroke-width="0.00243"></path>
<path d="M0.930 0.840 Q1.066 0.774 0.968 0.693" stroke="hsl(0.0,100%,35%)" stroke-width="0.00243"></path>
<path d="M0.930 0.840 Q1.108 0.691 0.857 0.572" stroke="hsl(0.0,100%,35%)" stroke-width="0.00243"></path>
<path d="M0.930 0.840 Q1.050 0.785 0.969 0.714" stroke="hsl(0.0,100%,35%)" stroke-width="0.00243"></path>
<path d="M0.930 0.840 Q0.903 0.794 0.808 0.797" stroke="hsl(0.0,100%,35%)" stroke-width="0.00243"></path>
<path d="M0.930 0.840 Q1.293 0.493 0.697 0.240" stroke="hsl(0.0,100%,35%)" stroke-width="0.00487"></path>
<path d="M0.697 0.240 Q0.520 0.496 0.980 0.639" stroke="hsl(0.0,100%,35%)" stroke-width="0.00243"></path>
<path d="M0.697 0.240 Q0.583 0.181 0.442 0.224" stroke="hsl(0.0,100%,35%)" stroke-width="0.00243"></path>
<path d="M0.697 0.240 Q0.865 0.135 0.697 0.030" stroke="hsl(0.0,100%,35%)" stroke-width="0.00243"></path>
<path d="M1.395 0.835 Q1.439 0.883 1.544 0.873" stroke="hsl(60.0,100%,35%)" stroke-width="0.04138"></path>
<path d="M1.395 0.835 Q1.662 0.431 0.934 0.213" stroke="hsl(60.0,100%,35%)" stroke-width="0.00243"></path>
<path d="M1.395 0.835 Q1.680 0.476 1.044 0.258" stroke="hsl(60.0,100%,35%)" stroke-width="0.00974"></path>
<path d="M0.559 0.697 Q0.931 0.517 0.662 0.296" stroke="hsl(0.0,100%,35%)" stroke-width="0.00243"></path>
<path d="M0.559 0.697 Q0.502 0.793 0.676 0.842" stroke="hsl(0.0,100%,35%)" stroke-width="0.00243"></path>
<path d="M0.559 0.697 Q0.655 0.747 0.776 0.712" stroke="hsl(0.0,100%,35%)" stroke-width="0.00730"></path>
<path d="M0.559 0.697 Q0.545 0.739 0.625 0.756" stroke="hsl(0.0,100%,35%)" stroke-width="0.00243"></path>
<path d="M0.924 0.470 Q1.009 0.688 1.454 0.694" stroke="hsl(120.0,100%,35%)" stroke-width="0.01217"></path>
<path d="M0.924 0.470 Q0.600 0.296 0.190 0.416" stroke="hsl(120.0,100%,35%)" stroke-width="0.00243"></path>
<path d="M0.924 0.470 Q0.979 0.535 1.119 0.523" stroke="hsl(120.0,100%,35%)" stroke-width="0.01461"></path>
<path d="M0.924 0.470 Q0.191 0.561 0.207 0.939" stroke="hsl(120.0,100%,35%)" stroke-width="0.00243"></path>
<path d="M0.924 0.470 Q0.930 0.632 1.247 0.665" stroke="hsl(120.0,100%,35%)" stroke-width="0.00243"></path>
<path d="M1.119 0.523 Q1.150 0.676 1.454 0.694" stroke="hsl(120.0,100%,35%)" stroke-width="0.00487"></path>
<path d="M1.119 0.523 Q0.934 0.672 1.183 0.795" stroke="hsl(120.0,100%,35%)" stroke-width="0.01461"></path>
<path d="M1.119 0.523 Q0.331 0.548 0.207 0.939" stroke="hsl(120.0,100%,35%)" stroke-width="0.00487"></path>
<path d="M1.119 0.523 Q0.951 0.516 0.900 0.596" stroke="hsl(120.0,100%,35%)" stroke-width="0.00487"></path>
<path d="M0.076 0.828 Q0.872 1.037 1.454 0.694" stroke="hsl(120.0,100%,35%)" stroke-width="0.00243"></path>
<path d="M0.076 0.828 Q0.656 1.033 1.183 0.795" stroke="hsl(120.0,100%,35%)" stroke-width="0.00974"></path>
<path d="M0.076 0.828 Q0.053 0.910 0.207 0.939" stroke="hsl(120.0,100%,35%)" stroke-width="0.00974"></path>
<path d="M0.076 0.828 Q0.792 0.981 1.247 0.665" stroke="hsl(120.0,100%,35%)" stroke-width="0.00243"></path>
<path d="M0.607 0.125 Q0.408 0.246 0.601 0.369" stroke="hsl(0.0,100%,35%)" stroke-width="0.00974"></path>
<path d="M0.607 0.125 Q1.252 0.349 1.831 0.084" stroke="hsl(0.0,100%,35%)" stroke-width="0.00243"></path>
<path d="M0.607 0.125 Q0.728 0.095 0.697 0.030" stroke="hsl(0.0,100%,35%)" stroke-width="0.00243"></path>
<path d="M0.601 0.369 Q0.752 0.324 0.697 0.240" stroke="hsl(0.0,100%,35%)" stroke-width="0.00487"></path>
<path d="M0.601 0.369 Q0.604 0.426 0.716 0.437" stroke="hsl(0.0,100%,35%)" stroke-width="0.04382"></path>
<path d="M0.601 0.369 Q0.793 0.391 0.878 0.302" stroke="hsl(0.0,100%,35%)" stroke-width="0.00487"></path>
<path d="M0.601 0.369 Q0.572 0.313 0.456 0.314" stroke="hsl(0.0,100%,35%)" stroke-width="0.01461"></path>
<path d="M0.601 0.369 Q1.444 0.472 1.831 0.084" stroke="hsl(0.0,100%,35%)" stroke-width="0.00487"></path>
<path d="M0.601 0.369 Q0.727 0.363 0.743 0.301" stroke="hsl(0.0,100%,35%)" stroke-width="0.00243"></path>
<path d="M0.601 0.369 Q0.584 0.155 0.162 0.116" stroke="hsl(0.0,100%,35%)" stroke-width="0.00243"></path>
<path d="M0.601 0.369 Q0.953 0.519 1.324 0.380" stroke="hsl(0.0,100%,35%)" stroke-width="0.00243"></path>
<path d="M0.601 0.369 Q0.578 0.481 0.791 0.516" stroke="hsl(0.0,100%,35%)" stroke-width="0.00243"></path>
<path d="M0.697 0.030 Q0.166 0.482 0.930 0.840" stroke="hsl(0.0,100%,35%)" stroke-width="0.00243"></path>
<path d="M0.697 0.030 Q0.750 0.061 0.821 0.041" stroke="hsl(0.0,100%,35%)" stroke-width="0.00243"></path>
<path d="M0.697 0.030 Q0.576 0.059 0.607 0.125" stroke="hsl(0.0,100%,35%)" stroke-width="0.00974"></path>
<path d="M0.697 0.030 Q0.352 0.391 0.980 0.639" stroke="hsl(0.0,100%,35%)" stroke-width="0.00243"></path>
<path d="M0.697 0.030 Q0.529 0.135 0.697 0.240" stroke="hsl(0.0,100%,35%)" stroke-width="0.00243"></path>
<path d="M0.697 0.030 Q0.769 0.083 0.888 0.060" stroke="hsl(0.0,100%,35%)" stroke-width="0.00243"></path>
<path d="M0.697 0.030 Q0.792 0.087 0.923 0.053" stroke="hsl(0.0,100%,35%)" stroke-width="0.00243"></path>
<path d="M1.928 0.152 Q1.091 -0.005 0.601 0.369" stroke="hsl(0.0,100%,35%)" stroke-width="0.00243"></path>
<path d="M1.928 0.152 Q1.934 0.098 1.831 0.084" stroke="hsl(0.0,100%,35%)" stroke-width="0.00730"></path>
<path d="M1.928 0.152 Q0.916 0.115 0.622 0.601" stroke="hsl(0.0,100%,35%)" stroke-width="0.00487"></path>
<path d="M0.622 0.601 Q0.610 0.687 0.776 0.712" stroke="hsl(0.0,100%,35%)" stroke-width="0.01704"></path>
<path d="M0.622 0.601 Q0.707 0.594 0.713 0.551" stroke="hsl(0.0,100%,35%)" stroke-width="0.00243"></path>
<path d="M0.622 0.601 Q1.534 0.573 1.680 0.122" stroke="hsl(0.0,100%,35%)" stroke-width="0.00243"></path>
<path d="M0.692 0.970 Q0.783 0.994 0.850 0.956" stroke="hsl(120.0,100%,35%)" stroke-width="0.00243"></path>
<path d="M0.692 0.970 Q0.756 0.906 0.644 0.860" stroke="hsl(120.0,100%,35%)" stroke-width="0.00243"></path>
<path d="M0.692 0.970 Q0.653 0.965 0.635 0.983" stroke="hsl(120.0,100%,35%)" stroke-width="0.00243"></path>
<path d="M0.791 0.516 Q0.639 0.525 0.622 0.601" stroke="hsl(0.0,100%,35%)" stroke-width="0.00243"></path>
<path d="M0.791 0.516 Q1.111 0.614 1.372 0.479" stroke="hsl(0.0,100%,35%)" stroke-width="0.00243"></path>
<path d="M0.791 0.516 Q0.627 0.611 0.776 0.712" stroke="hsl(0.0,100%,35%)" stroke-width="0.00243"></path>
<path d="M0.662 0.296 Q0.573 0.320 0.601 0.369" stroke="hsl(0.0,100%,35%)" stroke-width="0.00487"></path>
<path d="M0.662 0.296 Q0.290 0.476 0.559 0.697" stroke="hsl(0.0,100%,35%)" stroke-width="0.00243"></path>
<path d="M0.662 0.296 Q0.736 0.281 0.724 0.242" stroke="hsl(0.0,100%,35%)" stroke-width="0.00243"></path>
<path d="M0.662 0.296 Q0.610 0.216 0.442 0.224" stroke="hsl(0.0,100%,35%)" stroke-width="0.00243"></path>
<path d="M0.662 0.296 Q0.659 0.597 1.247 0.665" stroke="hsl(0.0,100%,35%)" stroke-width="0.00243"></path>
<path d="M1.442 0.163 Q1.341 0.158 1.309 0.206" stroke="hsl(240.0,100%,35%)" stroke-width="0.00730"></path>
<path d="M1.442 0.163 Q1.473 0.251 1.653 0.256" stroke="hsl(240.0,100%,35%)" stroke-width="0.01461"></path>
<path d="M1.442 0.163 Q1.317 0.236 1.432 0.313" stroke="hsl(240.0,100%,35%)" stroke-width="0.00487"></path>
<path d="M1.442 0.163 Q0.723 0.068 0.380 0.398" stroke="hsl(240.0,100%,35%)" stroke-width="0.00243"></path>
<path d="M1.653 0.256 Q1.621 0.167 1.442 0.163" stroke="hsl(240.0,100%,35%)" stroke-width="0.00487"></path>
<path d="M1.653 0.256 Q1.817 0.303 1.945 0.233" stroke="hsl(240.0,100%,35%)" stroke-width="0.00487"></path>
<path d="M1.653 0.256 Q1.710 0.238 1.687 0.206" stroke="hsl(240.0,100%,35%)" stroke-width="0.00730"></path>
<path d="M1.432 0.313 Q1.483 0.367 1.598 0.353" stroke="hsl(240.0,100%,35%)" stroke-width="0.00974"></path>
<path d="M1.432 0.313 Q1.267 0.297 1.199 0.374" stroke="hsl(240.0,100%,35%)" stroke-width="0.01461"></path>
<path d="M1.432 0.313 Q1.366 0.320 1.364 0.354" stroke="hsl(240.0,100%,35%)" stroke-width="0.00487"></path>
<path d="M1.432 0.313 Q1.530 0.375 1.671 0.341" stroke="hsl(240.0,100%,35%)" stroke-width="0.00243"></path>
<path d="M1.432 0.313 Q1.390 0.258 1.272 0.266" stroke="hsl(240.0,100%,35%)" stroke-width="0.00243"></path>
<path d="M1.432 0.313 Q1.557 0.240 1.442 0.163" stroke="hsl(240.0,100%,35%)" stroke-width="0.00487"></path>
<path d="M1.432 0.313 Q1.170 0.054 0.607 0.125" stroke="hsl(240.0,100%,35%)" stroke-width="0.00243"></path>
<path d="M1.909 0.715 Q1.917 0.667 1.824 0.653" stroke="hsl(300.0,100%,35%)" stroke-width="0.00730"></path>
<path d="M1.909 0.715 Q1.971 0.656 1.869 0.612" stroke="hsl(300.0,100%,35%)" stroke-width="0.00487"></path>
<path d="M1.909 0.715 Q1.787 0.684 1.700 0.737" stroke="hsl(300.0,100%,35%)" stroke-width="0.00487"></path>
<path d="M1.225 0.980 Q1.119 0.705 0.559 0.697" stroke="hsl(0.0,100%,35%)" stroke-width="0.00243"></path>
<path d="M1.225 0.980 Q1.326 0.785 0.968 0.693" stroke="hsl(0.0,100%,35%)" stroke-width="0.00243"></path>
<path d="M1.225 0.980 Q1.133 0.943 1.041 0.980" stroke="hsl(0.0,100%,35%)" stroke-width="0.00243"></path>
<path d="M1.225 0.980 Q1.206 0.938 1.120 0.939" stroke="hsl(0.0,100%,35%)" stroke-width="0.00243"></path>
<path d="M1.840 0.463 Q1.593 0.378 1.372 0.479" stroke="hsl(0.0,100%,35%)" stroke-width="0.01461"></path>
<path d="M1.840 0.463 Q1.709 0.471 1.695 0.536" stroke="hsl(0.0,100%,35%)" stroke-width="0.00730"></path>
<path d="M1.840 0.463 Q1.795 0.388 1.638 0.393" stroke="hsl(0.0,100%,35%)" stroke-width="0.00243"></path>
<path d="M1.840 0.463 Q1.109 0.375 0.776 0.712" stroke="hsl(0.0,100%,35%)" stroke-width="0.00730"></path>
<path d="M1.840 0.463 Q1.629 0.233 1.134 0.285" stroke="hsl(0.0,100%,35%)" stroke-width="0.00487"></path>
<path d="M1.134 0.285 Q1.097 0.430 1.372 0.479" stroke="hsl(0.0,100%,35%)" stroke-width="0.00974"></path>
<path d="M1.134 0.285 Q1.072 0.263 1.016 0.289" stroke="hsl(0.0,100%,35%)" stroke-width="0.00243"></path>
<path d="M1.134 0.285 Q0.837 0.116 0.442 0.224" stroke="hsl(0.0,100%,35%)" stroke-width="0.00243"></path>
<path d="M1.134 0.285 Q1.233 0.248 1.182 0.192" stroke="hsl(0.0,100%,35%)" stroke-width="0.00487"></path>
<path d="M0.934 0.213 Q0.952 0.257 1.044 0.258" stroke="hsl(60.0,100%,35%)" stroke-width="0.02191"></path>
<path d="M0.934 0.213 Q1.038 0.177 0.991 0.118" stroke="hsl(60.0,100%,35%)" stroke-width="0.00487"></path>
<path d="M0.934 0.213 Q0.679 0.120 0.442 0.224" stroke="hsl(60.0,100%,35%)" stroke-width="0.00243"></path>
<path d="M0.783 0.856 Q0.736 0.919 0.850 0.956" stroke="hsl(120.0,100%,35%)" stroke-width="0.00243"></path>
<path d="M0.783 0.856 Q1.055 0.787 0.980 0.639" stroke="hsl(120.0,100%,35%)" stroke-width="0.00243"></path>
<path d="M0.783 0.856 Q0.867 0.940 1.050 0.917" stroke="hsl(120.0,100%,35%)" stroke-width="0.00243"></path>
<path d="M0.061 0.715 Q0.158 0.766 0.280 0.730" stroke="hsl(240.0,100%,35%)" stroke-width="0.00487"></path>
<path d="M0.061 0.715 Q0.145 0.684 0.105 0.636" stroke="hsl(240.0,100%,35%)" stroke-width="0.00243"></path>
<path d="M0.061 0.715 Q0.134 0.671 0.065 0.625" stroke="hsl(240.0,100%,35%)" stroke-width="0.00243"></path>
<path d="M0.061 0.715 Q1.118 0.841 1.598 0.353" stroke="hsl(240.0,100%,35%)" stroke-width="0.00243"></path>
<path d="M0.065 0.625 Q0.079 0.606 0.044 0.595" stroke="hsl(240.0,100%,35%)" stroke-width="0.00243"></path>
<path d="M0.065 0.625 Q0.076 0.639 0.105 0.636" stroke="hsl(240.0,100%,35%)" stroke-width="0.00487"></path>
<path d="M0.065 0.625 Q-0.008 0.669 0.061 0.715" stroke="hsl(240.0,100%,35%)" stroke-width="0.00243"></path>
<path d="M1.475 0.745 Q1.289 0.712 1.183 0.795" stroke="hsl(120.0,100%,35%)" stroke-width="0.00487"></path>
<path d="M1.475 0.745 Q1.580 0.611 1.343 0.530" stroke="hsl(120.0,100%,35%)" stroke-width="0.00243"></path>
<path d="M1.475 0.745 Q1.152 0.588 0.776 0.712" stroke="hsl(120.0,100%,35%)" stroke-width="0.00243"></path>
<path d="M1.475 0.745 Q1.751 0.685 1.695 0.536" stroke="hsl(120.0,100%,35%)" stroke-width="0.00243"></path>
<path d="M1.073 0.843 Q1.027 0.836 1.005 0.857" stroke="hsl(0.0,100%,35%)" stroke-width="0.00243"></path>
<path d="M1.073 0.843 Q1.008 0.823 0.955 0.850" stroke="hsl(0.0,100%,35%)" stroke-width="0.00243"></path>
</g>
<text x="1.759" y="0.919" font-size="0.014907" fill="hsl(0.0,100%,20%)">abergman</text>
<text x="1.844" y="0.896" font-size="0.009428" fill="hsl(0.0,100%,20%)">svenzheng</text>
<text x="1.815" y="0.876" font-size="0.006667" fill="hsl(0.0,100%,20%)">jamescook</text>
<text x="1.778" y="0.936" font-size="0.011547" fill="hsl(0.0,100%,20%)">seewaifu</text>
<text x="1.560" y="0.406" font-size="0.017638" fill="hsl(0.0,100%,20%)">adrian.ratiu</text>
<text x="1.577" y="0.455" font-size="0.009428" fill="hsl(0.0,100%,20%)">chungsheng</text>
<text x="1.453" y="0.380" font-size="0.006667" fill="hsl(0.0,100%,20%)">wyuang</text>
<text x="0.442" y="0.205" font-size="0.036515" fill="hsl(0.0,100%,20%)">vapier</text>
<text x="0.776" y="0.698" font-size="0.026667" fill="hsl(0.0,100%,20%)">uekawa</text>
<text x="0.625" y="0.751" font-size="0.009428" fill="hsl(0.0,100%,20%)">joelhockey</text>
<text x="1.324" y="0.376" font-size="0.009428" fill="hsl(0.0,100%,20%)">jasonling</text>
<text x="1.544" y="0.853" font-size="0.039441" fill="hsl(60.0,100%,20%)">byronlee</text>
<text x="1.247" y="0.644" font-size="0.040552" fill="hsl(120.0,100%,20%)">akahuang</text>
<text x="1.183" y="0.768" font-size="0.053748" fill="hsl(120.0,100%,20%)">hugobenichi</text>
<text x="1.454" y="0.674" font-size="0.041633" fill="hsl(120.0,100%,20%)">jiejiang</text>
<text x="1.343" y="0.524" font-size="0.013333" fill="hsl(120.0,100%,20%)">jasongustaman</text>
<text x="1.612" y="0.045" font-size="0.020000" fill="hsl(0.0,100%,20%)">akhna</text>
<text x="1.680" y="0.115" font-size="0.013333" fill="hsl(0.0,100%,20%)">allenwebb</text>
<text x="1.831" y="0.073" font-size="0.022111" fill="hsl(0.0,100%,20%)">jorgelo</text>
<text x="0.190" y="0.401" font-size="0.029814" fill="hsl(120.0,100%,20%)">aleksandermj</text>
<text x="0.380" y="0.384" font-size="0.027487" fill="hsl(120.0,100%,20%)">ejcaruso</text>
<text x="0.272" y="0.533" font-size="0.025820" fill="hsl(120.0,100%,20%)">andrewlassalle</text>
<text x="0.372" y="0.623" font-size="0.016330" fill="hsl(120.0,100%,20%)">rmao</text>
<text x="1.116" y="0.060" font-size="0.014907" fill="hsl(0.0,100%,20%)">amoylan</text>
<text x="1.036" y="0.027" font-size="0.006667" fill="hsl(0.0,100%,20%)">amandadeacon</text>
<text x="1.196" y="0.133" font-size="0.009428" fill="hsl(0.0,100%,20%)">alanlxl</text>
<text x="0.980" y="0.629" font-size="0.020000" fill="hsl(120.0,100%,20%)">iby</text>
<text x="1.170" y="0.162" font-size="0.006667" fill="hsl(0.0,100%,20%)">jmpollock</text>
<text x="0.433" y="0.833" font-size="0.026667" fill="hsl(120.0,100%,20%)">jintaolin</text>
<text x="0.349" y="0.703" font-size="0.013333" fill="hsl(120.0,100%,20%)">andrzejo</text>
<text x="0.418" y="0.961" font-size="0.025820" fill="hsl(120.0,100%,20%)">kglund</text>
<text x="0.207" y="0.925" font-size="0.026667" fill="hsl(120.0,100%,20%)">matthewmwang</text>
<text x="0.212" y="0.231" font-size="0.020000" fill="hsl(180.0,100%,20%)">bmgordon</text>
<text x="0.162" y="0.111" font-size="0.009428" fill="hsl(180.0,100%,20%)">pawliczek</text>
<text x="0.096" y="0.243" font-size="0.009428" fill="hsl(180.0,100%,20%)">aaronmassey</text>
<text x="0.109" y="0.279" font-size="0.021082" fill="hsl(180.0,100%,20%)">nmuggli</text>
<text x="0.930" y="0.830" font-size="0.018856" fill="hsl(0.0,100%,20%)">briannorris</text>
<text x="0.955" y="0.845" font-size="0.009428" fill="hsl(0.0,100%,20%)">puthik</text>
<text x="0.968" y="0.689" font-size="0.009428" fill="hsl(0.0,100%,20%)">xiyuan</text>
<text x="0.857" y="0.565" font-size="0.013333" fill="hsl(120.0,100%,20%)">mutexlox</text>
<text x="0.969" y="0.711" font-size="0.006667" fill="hsl(0.0,100%,20%)">fshao</text>
<text x="0.808" y="0.794" font-size="0.006667" fill="hsl(0.0,100%,20%)">mka</text>
<text x="0.697" y="0.230" font-size="0.021082" fill="hsl(0.0,100%,20%)">sarthakkukreti</text>
<text x="1.722" y="0.837" font-size="0.013333" fill="hsl(0.0,100%,20%)">toyoshim</text>
<text x="1.395" y="0.816" font-size="0.037712" fill="hsl(60.0,100%,20%)">weiluanwang</text>
<text x="0.559" y="0.686" font-size="0.021082" fill="hsl(0.0,100%,20%)">hidehiko</text>
<text x="0.924" y="0.457" font-size="0.024944" fill="hsl(120.0,100%,20%)">chenzikai</text>
<text x="1.119" y="0.508" font-size="0.029814" fill="hsl(120.0,100%,20%)">taoyl</text>
<text x="0.076" y="0.817" font-size="0.022111" fill="hsl(120.0,100%,20%)">damiendejean</text>
<text x="0.607" y="0.114" font-size="0.022111" fill="hsl(0.0,100%,20%)">dlunev</text>
<text x="0.601" y="0.345" font-size="0.048074" fill="hsl(0.0,100%,20%)">kimjae</text>
<text x="0.697" y="0.019" font-size="0.023094" fill="hsl(0.0,100%,20%)">gwendal</text>
<text x="1.928" y="0.144" font-size="0.016330" fill="hsl(0.0,100%,20%)">drmasquatch</text>
<text x="0.622" y="0.589" font-size="0.023094" fill="hsl(0.0,100%,20%)">dverkamp</text>
<text x="0.692" y="0.964" font-size="0.011547" fill="hsl(120.0,100%,20%)">druth</text>
<text x="0.850" y="0.950" font-size="0.011547" fill="hsl(120.0,100%,20%)">norvez</text>
<text x="0.644" y="0.857" font-size="0.006667" fill="hsl(120.0,100%,20%)">sammc</text>
<text x="0.635" y="0.980" font-size="0.006667" fill="hsl(120.0,100%,20%)">jessemcguire</text>
<text x="0.791" y="0.509" font-size="0.013333" fill="hsl(0.0,100%,20%)">dtor</text>
<text x="1.372" y="0.468" font-size="0.022111" fill="hsl(0.0,100%,20%)">stevensd</text>
<text x="0.713" y="0.548" font-size="0.006667" fill="hsl(0.0,100%,20%)">zihanchen</text>
<text x="0.821" y="0.038" font-size="0.006667" fill="hsl(0.0,100%,20%)">asavery</text>
<text x="0.888" y="0.056" font-size="0.006667" fill="hsl(0.0,100%,20%)">momohatt</text>
<text x="0.923" y="0.050" font-size="0.006667" fill="hsl(0.0,100%,20%)">apronin</text>
<text x="0.662" y="0.287" font-size="0.017638" fill="hsl(0.0,100%,20%)">hashimoto</text>
<text x="0.724" y="0.237" font-size="0.009428" fill="hsl(0.0,100%,20%)">tomhughes</text>
<text x="1.442" y="0.150" font-size="0.026667" fill="hsl(240.0,100%,20%)">hcyang</text>
<text x="1.309" y="0.201" font-size="0.011547" fill="hsl(240.0,100%,20%)">patrykd</text>
<text x="1.653" y="0.244" font-size="0.024037" fill="hsl(240.0,100%,20%)">yich</text>
<text x="1.432" y="0.299" font-size="0.029059" fill="hsl(240.0,100%,20%)">jadmanski</text>
<text x="0.676" y="0.838" font-size="0.006667" fill="hsl(0.0,100%,20%)">chibar</text>
<text x="1.909" y="0.707" font-size="0.017638" fill="hsl(300.0,100%,20%)">imranziad</text>
<text x="1.824" y="0.647" font-size="0.011547" fill="hsl(300.0,100%,20%)">kamesan</text>
<text x="1.869" y="0.607" font-size="0.009428" fill="hsl(300.0,100%,20%)">jcliang</text>
<text x="1.700" y="0.732" font-size="0.009428" fill="hsl(300.0,100%,20%)">okuji</text>
<text x="1.598" y="0.346" font-size="0.014907" fill="hsl(240.0,100%,20%)">betuls</text>
<text x="1.199" y="0.366" font-size="0.016330" fill="hsl(240.0,100%,20%)">lziest</text>
<text x="1.364" y="0.349" font-size="0.009428" fill="hsl(240.0,100%,20%)">hardikgoyal</text>
<text x="1.671" y="0.337" font-size="0.006667" fill="hsl(240.0,100%,20%)">rborzello</text>
<text x="1.272" y="0.263" font-size="0.006667" fill="hsl(240.0,100%,20%)">antrim</text>
<text x="1.648" y="0.591" font-size="0.006667" fill="hsl(120.0,100%,20%)">garrick</text>
<text x="1.540" y="0.541" font-size="0.009428" fill="hsl(120.0,100%,20%)">cassiewang</text>
<text x="0.311" y="0.775" font-size="0.006667" fill="hsl(120.0,100%,20%)">nikhilcn</text>
<text x="1.225" y="0.974" font-size="0.013333" fill="hsl(0.0,100%,20%)">joshuapius</text>
<text x="1.041" y="0.977" font-size="0.006667" fill="hsl(0.0,100%,20%)">mcasas</text>
<text x="1.120" y="0.935" font-size="0.006667" fill="hsl(0.0,100%,20%)">kdgwill</text>
<text x="1.840" y="0.450" font-size="0.025820" fill="hsl(0.0,100%,20%)">kalutes</text>
<text x="1.695" y="0.530" font-size="0.013333" fill="hsl(0.0,100%,20%)">keiichiw</text>
<text x="1.638" y="0.390" font-size="0.006667" fill="hsl(0.0,100%,20%)">cwd</text>
<text x="1.134" y="0.274" font-size="0.021082" fill="hsl(0.0,100%,20%)">kawasin</text>
<text x="1.016" y="0.286" font-size="0.006667" fill="hsl(0.0,100%,20%)">youssefesmat</text>
<text x="1.182" y="0.187" font-size="0.009428" fill="hsl(0.0,100%,20%)">hsinyi</text>
<text x="0.934" y="0.201" font-size="0.024037" fill="hsl(60.0,100%,20%)">kerker</text>
<text x="1.044" y="0.246" font-size="0.024037" fill="hsl(60.0,100%,20%)">dennyh</text>
<text x="0.991" y="0.114" font-size="0.009428" fill="hsl(0.0,100%,20%)">zubeil</text>
<text x="0.605" y="0.991" font-size="0.013333" fill="hsl(120.0,100%,20%)">jsiuda</text>
<text x="0.716" y="0.423" font-size="0.028284" fill="hsl(0.0,100%,20%)">spothire</text>
<text x="0.878" y="0.298" font-size="0.009428" fill="hsl(0.0,100%,20%)">abutzier</text>
<text x="0.456" y="0.306" font-size="0.016330" fill="hsl(0.0,100%,20%)">yuanpengni</text>
<text x="0.743" y="0.297" font-size="0.006667" fill="hsl(0.0,100%,20%)">lbaraz</text>
<text x="0.783" y="0.850" font-size="0.011547" fill="hsl(120.0,100%,20%)">kuabhs</text>
<text x="1.050" y="0.914" font-size="0.006667" fill="hsl(120.0,100%,20%)">jrosenth</text>
<text x="0.061" y="0.706" font-size="0.016330" fill="hsl(240.0,100%,20%)">nicholasbishop</text>
<text x="0.280" y="0.725" font-size="0.009428" fill="hsl(240.0,100%,20%)">tinghaolin</text>
<text x="0.105" y="0.631" font-size="0.011547" fill="hsl(240.0,100%,20%)">justinoue</text>
<text x="0.065" y="0.618" font-size="0.014907" fill="hsl(240.0,100%,20%)">tbrandston</text>
<text x="1.475" y="0.737" font-size="0.014907" fill="hsl(120.0,100%,20%)">ningyuan</text>
<text x="0.228" y="0.301" font-size="0.006667" fill="hsl(180.0,100%,20%)">pmoy</text>
<text x="1.073" y="0.838" font-size="0.009428" fill="hsl(0.0,100%,20%)">sarveshkalwit</text>
<text x="1.005" y="0.854" font-size="0.006667" fill="hsl(0.0,100%,20%)">melhuishj</text>
<text x="0.900" y="0.591" font-size="0.009428" fill="hsl(120.0,100%,20%)">pmarko</text>
<text x="0.044" y="0.591" font-size="0.006667" fill="hsl(240.0,100%,20%)">mpolzer</text>
<text x="0.402" y="0.106" font-size="0.009428" fill="hsl(0.0,100%,20%)">fdegros</text>
<text x="0.208" y="0.133" font-size="0.006667" fill="hsl(0.0,100%,20%)">xcl</text>
<text x="0.332" y="0.293" font-size="0.006667" fill="hsl(0.0,100%,20%)">lokeric</text>
<text x="0.638" y="0.313" font-size="0.006667" fill="hsl(0.0,100%,20%)">sfrolov</text>
<text x="0.262" y="0.184" font-size="0.006667" fill="hsl(0.0,100%,20%)">gbiv</text>
<text x="0.657" y="0.185" font-size="0.006667" fill="hsl(0.0,100%,20%)">dpad</text>
<text x="1.945" y="0.228" font-size="0.009428" fill="hsl(240.0,100%,20%)">jkardatzke</text>
<text x="1.687" y="0.200" font-size="0.011547" fill="hsl(240.0,100%,20%)">chingkang</text>
</svg>
