<svg width="4000" height="2000" viewBox="-0.025 -0.025 2.05 1.05" xmlns="http://www.w3.org/2000/svg">
  <style>
    path {
      fill: none;
      stroke-linecap: round;
      stroke-opacity: 0.4;
    }

    text {
      text-anchor: middle;
      alignment-baseline: hanging;
    }
  </style>
  <g opacity="0.4">
<path d="M1.333 0.836 Q1.405 0.773 1.298 0.724" stroke="hsl(0.0,100%,35%)" stroke-width="0.00519"></path>
<path d="M1.333 0.836 Q1.388 0.805 1.339 0.772" stroke="hsl(0.0,100%,35%)" stroke-width="0.00259"></path>
<path d="M1.333 0.836 Q1.326 0.790 1.234 0.784" stroke="hsl(0.0,100%,35%)" stroke-width="0.00519"></path>
<path d="M1.333 0.836 Q1.207 0.858 1.222 0.925" stroke="hsl(0.0,100%,35%)" stroke-width="0.00259"></path>
<path d="M0.729 0.721 Q0.704 0.665 0.589 0.665" stroke="hsl(72.0,100%,35%)" stroke-width="0.00259"></path>
<path d="M0.729 0.721 Q0.677 0.726 0.677 0.753" stroke="hsl(72.0,100%,35%)" stroke-width="0.00259"></path>
<path d="M0.729 0.721 Q0.696 0.562 0.378 0.543" stroke="hsl(72.0,100%,35%)" stroke-width="0.00259"></path>
<path d="M0.729 0.721 Q1.242 0.864 1.633 0.645" stroke="hsl(72.0,100%,35%)" stroke-width="0.00259"></path>
<path d="M0.729 0.721 Q0.629 0.758 0.680 0.816" stroke="hsl(72.0,100%,35%)" stroke-width="0.00259"></path>
<path d="M0.729 0.721 Q0.805 0.710 0.801 0.670" stroke="hsl(72.0,100%,35%)" stroke-width="0.00259"></path>
<path d="M0.729 0.721 Q0.622 0.768 0.691 0.831" stroke="hsl(72.0,100%,35%)" stroke-width="0.00259"></path>
<path d="M0.378 0.543 Q0.486 0.608 0.635 0.570" stroke="hsl(144.0,100%,35%)" stroke-width="0.00519"></path>
<path d="M0.378 0.543 Q0.494 0.536 0.506 0.478" stroke="hsl(144.0,100%,35%)" stroke-width="0.00519"></path>
<path d="M0.378 0.543 Q1.144 0.800 1.812 0.483" stroke="hsl(144.0,100%,35%)" stroke-width="0.00259"></path>
<path d="M0.378 0.543 Q0.517 0.538 0.536 0.469" stroke="hsl(144.0,100%,35%)" stroke-width="0.00259"></path>
<path d="M0.378 0.543 Q0.471 0.472 0.352 0.411" stroke="hsl(144.0,100%,35%)" stroke-width="0.00259"></path>
<path d="M0.378 0.543 Q1.336 0.647 1.748 0.202" stroke="hsl(144.0,100%,35%)" stroke-width="0.00259"></path>
<path d="M0.378 0.543 Q0.521 0.525 0.516 0.451" stroke="hsl(144.0,100%,35%)" stroke-width="0.00259"></path>
<path d="M1.633 0.645 Q1.852 0.600 1.812 0.483" stroke="hsl(72.0,100%,35%)" stroke-width="0.00519"></path>
<path d="M1.633 0.645 Q1.475 0.454 1.068 0.489" stroke="hsl(72.0,100%,35%)" stroke-width="0.00259"></path>
<path d="M1.633 0.645 Q2.056 0.541 1.947 0.312" stroke="hsl(72.0,100%,35%)" stroke-width="0.00259"></path>
<path d="M1.651 0.422 Q1.683 0.485 1.812 0.483" stroke="hsl(216.0,100%,35%)" stroke-width="0.07266"></path>
<path d="M1.651 0.422 Q1.635 0.573 1.925 0.614" stroke="hsl(216.0,100%,35%)" stroke-width="0.07006"></path>
<path d="M1.651 0.422 Q1.306 0.339 1.068 0.489" stroke="hsl(216.0,100%,35%)" stroke-width="0.00259"></path>
<path d="M1.651 0.422 Q1.518 0.463 1.568 0.536" stroke="hsl(216.0,100%,35%)" stroke-width="0.00778"></path>
<path d="M1.651 0.422 Q0.701 0.298 0.251 0.734" stroke="hsl(216.0,100%,35%)" stroke-width="0.00778"></path>
<path d="M1.812 0.483 Q1.780 0.420 1.651 0.422" stroke="hsl(216.0,100%,35%)" stroke-width="0.02595"></path>
<path d="M1.812 0.483 Q1.764 0.571 1.925 0.614" stroke="hsl(216.0,100%,35%)" stroke-width="0.02854"></path>
<path d="M1.812 0.483 Q1.903 0.360 1.684 0.289" stroke="hsl(216.0,100%,35%)" stroke-width="0.00519"></path>
<path d="M1.812 0.483 Q1.435 0.337 1.068 0.489" stroke="hsl(216.0,100%,35%)" stroke-width="0.00259"></path>
<path d="M1.812 0.483 Q0.830 0.296 0.251 0.734" stroke="hsl(216.0,100%,35%)" stroke-width="0.00259"></path>
<path d="M1.812 0.483 Q2.008 0.403 1.895 0.290" stroke="hsl(216.0,100%,35%)" stroke-width="0.00259"></path>
<path d="M1.925 0.614 Q1.974 0.526 1.812 0.483" stroke="hsl(216.0,100%,35%)" stroke-width="0.02076"></path>
<path d="M1.925 0.614 Q1.729 0.394 1.257 0.442" stroke="hsl(216.0,100%,35%)" stroke-width="0.00259"></path>
<path d="M1.925 0.614 Q1.860 0.645 1.906 0.684" stroke="hsl(216.0,100%,35%)" stroke-width="0.00259"></path>
<path d="M1.925 0.614 Q1.755 0.571 1.633 0.645" stroke="hsl(216.0,100%,35%)" stroke-width="0.00259"></path>
<path d="M1.925 0.614 Q0.992 0.339 0.251 0.734" stroke="hsl(216.0,100%,35%)" stroke-width="0.01038"></path>
<path d="M1.925 0.614 Q1.290 0.511 0.949 0.798" stroke="hsl(216.0,100%,35%)" stroke-width="0.00259"></path>
<path d="M1.925 0.614 Q1.208 0.269 0.378 0.543" stroke="hsl(216.0,100%,35%)" stroke-width="0.00519"></path>
<path d="M1.925 0.614 Q1.785 0.536 1.601 0.587" stroke="hsl(216.0,100%,35%)" stroke-width="0.00259"></path>
<path d="M1.142 0.614 Q1.116 0.672 1.221 0.697" stroke="hsl(72.0,100%,35%)" stroke-width="0.00259"></path>
<path d="M1.142 0.614 Q0.923 0.630 0.905 0.741" stroke="hsl(72.0,100%,35%)" stroke-width="0.00259"></path>
<path d="M1.142 0.614 Q1.376 0.622 1.443 0.510" stroke="hsl(72.0,100%,35%)" stroke-width="0.00259"></path>
<path d="M1.142 0.614 Q1.430 0.446 1.165 0.269" stroke="hsl(72.0,100%,35%)" stroke-width="0.00259"></path>
<path d="M1.142 0.614 Q1.186 0.573 1.115 0.542" stroke="hsl(72.0,100%,35%)" stroke-width="0.00259"></path>
<path d="M1.142 0.614 Q1.123 0.680 1.247 0.704" stroke="hsl(72.0,100%,35%)" stroke-width="0.00259"></path>
<path d="M1.142 0.614 Q1.188 0.694 1.353 0.690" stroke="hsl(72.0,100%,35%)" stroke-width="0.00259"></path>
<path d="M1.142 0.614 Q1.206 0.537 1.068 0.489" stroke="hsl(72.0,100%,35%)" stroke-width="0.00259"></path>
<path d="M1.142 0.614 Q1.285 0.222 0.552 0.067" stroke="hsl(72.0,100%,35%)" stroke-width="0.00778"></path>
<path d="M1.142 0.614 Q1.079 0.202 0.262 0.143" stroke="hsl(72.0,100%,35%)" stroke-width="0.00259"></path>
<path d="M1.142 0.614 Q1.074 0.554 0.941 0.574" stroke="hsl(72.0,100%,35%)" stroke-width="0.00259"></path>
<path d="M1.142 0.614 Q0.998 0.568 0.875 0.628" stroke="hsl(72.0,100%,35%)" stroke-width="0.00259"></path>
<path d="M0.552 0.067 Q0.355 0.132 0.438 0.242" stroke="hsl(144.0,100%,35%)" stroke-width="0.00519"></path>
<path d="M0.552 0.067 Q0.617 0.141 0.776 0.126" stroke="hsl(144.0,100%,35%)" stroke-width="0.01038"></path>
<path d="M0.552 0.067 Q0.526 0.179 0.739 0.216" stroke="hsl(144.0,100%,35%)" stroke-width="0.02854"></path>
<path d="M0.552 0.067 Q0.597 0.139 0.748 0.132" stroke="hsl(144.0,100%,35%)" stroke-width="0.00259"></path>
<path d="M1.954 0.253 Q1.406 0.103 0.994 0.337" stroke="hsl(216.0,100%,35%)" stroke-width="0.00259"></path>
<path d="M1.954 0.253 Q1.903 0.281 1.947 0.312" stroke="hsl(216.0,100%,35%)" stroke-width="0.00259"></path>
<path d="M1.954 0.253 Q1.699 0.339 1.812 0.483" stroke="hsl(216.0,100%,35%)" stroke-width="0.00259"></path>
<path d="M0.994 0.337 Q1.116 0.272 1.015 0.198" stroke="hsl(216.0,100%,35%)" stroke-width="0.00778"></path>
<path d="M0.994 0.337 Q1.101 0.363 1.175 0.316" stroke="hsl(216.0,100%,35%)" stroke-width="0.01297"></path>
<path d="M0.994 0.337 Q0.910 0.428 1.068 0.489" stroke="hsl(216.0,100%,35%)" stroke-width="0.01038"></path>
<path d="M0.994 0.337 Q1.575 0.441 1.906 0.181" stroke="hsl(216.0,100%,35%)" stroke-width="0.00259"></path>
<path d="M1.947 0.312 Q1.489 0.517 1.789 0.785" stroke="hsl(72.0,100%,35%)" stroke-width="0.00259"></path>
<path d="M1.947 0.312 Q2.031 0.238 1.906 0.181" stroke="hsl(72.0,100%,35%)" stroke-width="0.00259"></path>
<path d="M1.947 0.312 Q1.590 0.134 1.165 0.269" stroke="hsl(72.0,100%,35%)" stroke-width="0.00259"></path>
<path d="M1.656 0.915 Q1.690 0.840 1.550 0.806" stroke="hsl(144.0,100%,35%)" stroke-width="0.00259"></path>
<path d="M1.656 0.915 Q1.422 0.538 0.635 0.570" stroke="hsl(144.0,100%,35%)" stroke-width="0.00519"></path>
<path d="M1.656 0.915 Q1.826 0.877 1.789 0.785" stroke="hsl(144.0,100%,35%)" stroke-width="0.00519"></path>
<path d="M1.656 0.915 Q1.237 0.377 0.094 0.463" stroke="hsl(144.0,100%,35%)" stroke-width="0.00259"></path>
<path d="M0.635 0.570 Q0.621 0.434 0.352 0.411" stroke="hsl(144.0,100%,35%)" stroke-width="0.01297"></path>
<path d="M0.635 0.570 Q0.527 0.505 0.378 0.543" stroke="hsl(144.0,100%,35%)" stroke-width="0.01038"></path>
<path d="M0.635 0.570 Q1.087 0.701 1.443 0.510" stroke="hsl(144.0,100%,35%)" stroke-width="0.00259"></path>
<path d="M0.635 0.570 Q0.575 0.620 0.659 0.660" stroke="hsl(144.0,100%,35%)" stroke-width="0.00519"></path>
<path d="M0.635 0.570 Q0.744 0.485 0.603 0.413" stroke="hsl(144.0,100%,35%)" stroke-width="0.00259"></path>
<path d="M0.094 0.463 Q0.514 1.001 1.656 0.915" stroke="hsl(144.0,100%,35%)" stroke-width="0.01038"></path>
<path d="M0.094 0.463 Q0.027 0.507 0.099 0.550" stroke="hsl(144.0,100%,35%)" stroke-width="0.00259"></path>
<path d="M0.094 0.463 Q0.215 0.406 0.130 0.334" stroke="hsl(144.0,100%,35%)" stroke-width="0.01297"></path>
<path d="M0.094 0.463 Q0.785 0.580 1.165 0.269" stroke="hsl(144.0,100%,35%)" stroke-width="0.00259"></path>
<path d="M0.094 0.463 Q0.016 0.507 0.084 0.554" stroke="hsl(144.0,100%,35%)" stroke-width="0.00259"></path>
<path d="M0.094 0.463 Q0.033 0.505 0.102 0.544" stroke="hsl(144.0,100%,35%)" stroke-width="0.00259"></path>
<path d="M0.513 0.779 Q1.351 0.979 1.925 0.614" stroke="hsl(216.0,100%,35%)" stroke-width="0.02595"></path>
<path d="M0.513 0.779 Q1.490 0.768 1.684 0.289" stroke="hsl(216.0,100%,35%)" stroke-width="0.00259"></path>
<path d="M0.513 0.779 Q0.418 0.704 0.251 0.734" stroke="hsl(216.0,100%,35%)" stroke-width="0.02595"></path>
<path d="M0.513 0.779 Q1.023 0.745 1.068 0.489" stroke="hsl(216.0,100%,35%)" stroke-width="0.00259"></path>
<path d="M0.513 0.779 Q1.368 0.828 1.651 0.422" stroke="hsl(216.0,100%,35%)" stroke-width="0.00778"></path>
<path d="M0.513 0.779 Q1.399 0.891 1.812 0.483" stroke="hsl(216.0,100%,35%)" stroke-width="0.00259"></path>
<path d="M1.257 0.442 Q1.453 0.662 1.925 0.614" stroke="hsl(216.0,100%,35%)" stroke-width="0.00259"></path>
<path d="M1.257 0.442 Q1.501 0.573 1.812 0.483" stroke="hsl(216.0,100%,35%)" stroke-width="0.00778"></path>
<path d="M1.257 0.442 Q1.125 0.428 1.068 0.489" stroke="hsl(216.0,100%,35%)" stroke-width="0.00778"></path>
<path d="M0.130 0.334 Q0.194 0.553 0.635 0.570" stroke="hsl(144.0,100%,35%)" stroke-width="0.00259"></path>
<path d="M0.130 0.334 Q0.180 0.417 0.352 0.411" stroke="hsl(144.0,100%,35%)" stroke-width="0.01297"></path>
<path d="M0.130 0.334 Q0.245 0.315 0.233 0.255" stroke="hsl(144.0,100%,35%)" stroke-width="0.00519"></path>
<path d="M0.130 0.334 Q0.866 0.546 1.441 0.233" stroke="hsl(144.0,100%,35%)" stroke-width="0.00778"></path>
<path d="M0.130 0.334 Q0.762 0.593 1.405 0.342" stroke="hsl(144.0,100%,35%)" stroke-width="0.00259"></path>
<path d="M1.441 0.233 Q1.336 0.280 1.405 0.342" stroke="hsl(144.0,100%,35%)" stroke-width="0.01038"></path>
<path d="M1.441 0.233 Q1.468 0.176 1.363 0.150" stroke="hsl(144.0,100%,35%)" stroke-width="0.01297"></path>
<path d="M1.441 0.233 Q1.549 0.282 1.668 0.240" stroke="hsl(144.0,100%,35%)" stroke-width="0.00778"></path>
<path d="M1.441 0.233 Q1.413 0.138 1.222 0.131" stroke="hsl(144.0,100%,35%)" stroke-width="0.00259"></path>
<path d="M1.441 0.233 Q1.300 0.218 1.240 0.283" stroke="hsl(144.0,100%,35%)" stroke-width="0.00259"></path>
<path d="M1.502 0.660 Q1.573 0.606 1.483 0.560" stroke="hsl(72.0,100%,35%)" stroke-width="0.00778"></path>
<path d="M1.502 0.660 Q1.495 0.570 1.317 0.554" stroke="hsl(72.0,100%,35%)" stroke-width="0.00259"></path>
<path d="M1.502 0.660 Q1.439 0.620 1.348 0.642" stroke="hsl(72.0,100%,35%)" stroke-width="0.00519"></path>
<path d="M1.502 0.660 Q1.472 0.611 1.370 0.615" stroke="hsl(72.0,100%,35%)" stroke-width="0.00259"></path>
<path d="M1.483 0.560 Q1.503 0.527 1.443 0.510" stroke="hsl(72.0,100%,35%)" stroke-width="0.00259"></path>
<path d="M1.483 0.560 Q1.049 0.535 0.905 0.741" stroke="hsl(72.0,100%,35%)" stroke-width="0.00259"></path>
<path d="M1.483 0.560 Q0.944 0.331 0.378 0.543" stroke="hsl(72.0,100%,35%)" stroke-width="0.00259"></path>
<path d="M1.483 0.560 Q1.405 0.524 1.317 0.554" stroke="hsl(72.0,100%,35%)" stroke-width="0.00259"></path>
<path d="M1.274 0.043 Q1.026 0.207 1.290 0.363" stroke="hsl(72.0,100%,35%)" stroke-width="0.00259"></path>
<path d="M1.274 0.043 Q0.972 0.416 1.633 0.645" stroke="hsl(72.0,100%,35%)" stroke-width="0.00259"></path>
<path d="M1.274 0.043 Q1.161 0.038 1.125 0.092" stroke="hsl(72.0,100%,35%)" stroke-width="0.00259"></path>
<path d="M1.274 0.043 Q1.208 0.003 1.114 0.026" stroke="hsl(72.0,100%,35%)" stroke-width="0.00259"></path>
<path d="M1.274 0.043 Q0.352 0.321 0.691 0.831" stroke="hsl(72.0,100%,35%)" stroke-width="0.00259"></path>
<path d="M1.274 0.043 Q1.138 0.021 1.066 0.082" stroke="hsl(72.0,100%,35%)" stroke-width="0.00259"></path>
<path d="M1.290 0.363 Q1.303 0.291 1.165 0.269" stroke="hsl(72.0,100%,35%)" stroke-width="0.00519"></path>
<path d="M1.290 0.363 Q1.306 0.421 1.421 0.425" stroke="hsl(72.0,100%,35%)" stroke-width="0.00519"></path>
<path d="M1.290 0.363 Q1.187 0.452 1.337 0.521" stroke="hsl(72.0,100%,35%)" stroke-width="0.00259"></path>
<path d="M0.438 0.242 Q0.457 0.301 0.576 0.305" stroke="hsl(144.0,100%,35%)" stroke-width="0.00778"></path>
<path d="M0.438 0.242 Q0.635 0.177 0.552 0.067" stroke="hsl(144.0,100%,35%)" stroke-width="0.02335"></path>
<path d="M0.438 0.242 Q0.947 0.438 1.441 0.233" stroke="hsl(144.0,100%,35%)" stroke-width="0.01038"></path>
<path d="M0.438 0.242 Q0.714 0.682 1.633 0.645" stroke="hsl(144.0,100%,35%)" stroke-width="0.00259"></path>
<path d="M0.438 0.242 Q-0.049 0.451 0.251 0.734" stroke="hsl(144.0,100%,35%)" stroke-width="0.00259"></path>
<path d="M0.132 0.208 Q0.196 0.211 0.215 0.180" stroke="hsl(72.0,100%,35%)" stroke-width="0.00778"></path>
<path d="M0.132 0.208 Q0.249 0.201 0.262 0.143" stroke="hsl(72.0,100%,35%)" stroke-width="0.00778"></path>
<path d="M0.132 0.208 Q0.201 0.173 0.148 0.132" stroke="hsl(72.0,100%,35%)" stroke-width="0.00778"></path>
<path d="M0.933 0.076 Q0.471 0.607 1.405 0.949" stroke="hsl(72.0,100%,35%)" stroke-width="0.00259"></path>
<path d="M0.933 0.076 Q0.930 0.036 0.851 0.028" stroke="hsl(72.0,100%,35%)" stroke-width="0.00259"></path>
<path d="M0.933 0.076 Q0.903 0.112 0.966 0.134" stroke="hsl(72.0,100%,35%)" stroke-width="0.00259"></path>
<path d="M1.405 0.949 Q1.304 0.935 1.256 0.981" stroke="hsl(72.0,100%,35%)" stroke-width="0.00519"></path>
<path d="M1.405 0.949 Q1.361 0.964 1.380 0.989" stroke="hsl(72.0,100%,35%)" stroke-width="0.00259"></path>
<path d="M1.405 0.949 Q1.541 0.729 1.142 0.614" stroke="hsl(72.0,100%,35%)" stroke-width="0.00259"></path>
<path d="M1.643 0.080 Q1.744 0.096 1.797 0.051" stroke="hsl(72.0,100%,35%)" stroke-width="0.03892"></path>
<path d="M1.643 0.080 Q1.662 0.140 1.782 0.143" stroke="hsl(72.0,100%,35%)" stroke-width="0.01297"></path>
<path d="M1.643 0.080 Q0.640 0.059 0.378 0.543" stroke="hsl(72.0,100%,35%)" stroke-width="0.00259"></path>
<path d="M1.643 0.080 Q1.612 0.132 1.705 0.158" stroke="hsl(72.0,100%,35%)" stroke-width="0.00259"></path>
<path d="M1.906 0.181 Q1.822 0.255 1.947 0.312" stroke="hsl(72.0,100%,35%)" stroke-width="0.00259"></path>
<path d="M1.906 0.181 Q1.465 0.077 1.165 0.269" stroke="hsl(72.0,100%,35%)" stroke-width="0.00259"></path>
<path d="M1.906 0.181 Q1.811 0.160 1.748 0.202" stroke="hsl(72.0,100%,35%)" stroke-width="0.00259"></path>
<path d="M0.850 0.428 Q0.796 0.376 0.684 0.392" stroke="hsl(288.0,100%,35%)" stroke-width="0.00778"></path>
<path d="M0.850 0.428 Q0.761 0.497 0.876 0.556" stroke="hsl(288.0,100%,35%)" stroke-width="0.00259"></path>
<path d="M0.850 0.428 Q0.770 0.472 0.839 0.521" stroke="hsl(288.0,100%,35%)" stroke-width="0.00259"></path>
<path d="M1.943 0.362 Q1.955 0.374 1.980 0.370" stroke="hsl(216.0,100%,35%)" stroke-width="0.00259"></path>
<path d="M1.943 0.362 Q1.121 0.344 0.905 0.741" stroke="hsl(216.0,100%,35%)" stroke-width="0.00259"></path>
<path d="M1.943 0.362 Q1.781 0.396 1.812 0.483" stroke="hsl(216.0,100%,35%)" stroke-width="0.00778"></path>
<path d="M1.943 0.362 Q1.616 0.374 1.568 0.536" stroke="hsl(216.0,100%,35%)" stroke-width="0.00259"></path>
<path d="M1.058 0.777 Q1.080 0.822 1.172 0.821" stroke="hsl(72.0,100%,35%)" stroke-width="0.00519"></path>
<path d="M1.058 0.777 Q1.054 0.708 0.919 0.695" stroke="hsl(72.0,100%,35%)" stroke-width="0.00519"></path>
<path d="M1.058 0.777 Q0.987 0.766 0.949 0.798" stroke="hsl(72.0,100%,35%)" stroke-width="0.00259"></path>
<path d="M1.058 0.777 Q1.505 0.617 1.290 0.363" stroke="hsl(72.0,100%,35%)" stroke-width="0.00259"></path>
<path d="M1.058 0.777 Q1.011 0.728 0.905 0.741" stroke="hsl(72.0,100%,35%)" stroke-width="0.00519"></path>
<path d="M1.058 0.777 Q1.142 0.760 1.127 0.715" stroke="hsl(72.0,100%,35%)" stroke-width="0.00259"></path>
<path d="M0.962 0.922 Q0.836 0.926 0.816 0.989" stroke="hsl(72.0,100%,35%)" stroke-width="0.04671"></path>
<path d="M0.962 0.922 Q1.976 0.637 1.643 0.080" stroke="hsl(72.0,100%,35%)" stroke-width="0.00778"></path>
<path d="M0.962 0.922 Q0.969 0.821 0.774 0.796" stroke="hsl(72.0,100%,35%)" stroke-width="0.00259"></path>
<path d="M0.962 0.922 Q2.076 0.653 1.797 0.051" stroke="hsl(72.0,100%,35%)" stroke-width="0.00259"></path>
<path d="M0.747 0.866 Q0.810 0.937 0.962 0.922" stroke="hsl(72.0,100%,35%)" stroke-width="0.01038"></path>
<path d="M0.747 0.866 Q1.824 0.652 1.643 0.080" stroke="hsl(72.0,100%,35%)" stroke-width="0.00519"></path>
<path d="M0.747 0.866 Q1.779 0.734 1.748 0.202" stroke="hsl(72.0,100%,35%)" stroke-width="0.00259"></path>
</g>
<text x="1.333" y="0.828" font-size="0.017192" fill="hsl(0.0,100%,20%)">abergman</text>
<text x="1.298" y="0.719" font-size="0.009926" fill="hsl(0.0,100%,20%)">svenzheng</text>
<text x="1.339" y="0.768" font-size="0.007019" fill="hsl(0.0,100%,20%)">jamescook</text>
<text x="1.234" y="0.779" font-size="0.009926" fill="hsl(0.0,100%,20%)">seewaifu</text>
<text x="1.222" y="0.921" font-size="0.007019" fill="hsl(0.0,100%,20%)">mblsha</text>
<text x="0.729" y="0.711" font-size="0.018570" fill="hsl(72.0,100%,20%)">adrian.ratiu</text>
<text x="0.589" y="0.661" font-size="0.007019" fill="hsl(72.0,100%,20%)">chungsheng</text>
<text x="0.677" y="0.750" font-size="0.007019" fill="hsl(72.0,100%,20%)">wyuang</text>
<text x="0.378" y="0.528" font-size="0.029778" fill="hsl(144.0,100%,20%)">vapier</text>
<text x="1.633" y="0.635" font-size="0.019852" fill="hsl(72.0,100%,20%)">ejcaruso</text>
<text x="0.680" y="0.812" font-size="0.007019" fill="hsl(72.0,100%,20%)">madhavadas</text>
<text x="0.801" y="0.667" font-size="0.007019" fill="hsl(72.0,100%,20%)">vshenvi</text>
<text x="0.691" y="0.826" font-size="0.009926" fill="hsl(72.0,100%,20%)">lbaraz</text>
<text x="1.651" y="0.392" font-size="0.060783" fill="hsl(216.0,100%,20%)">akahuang</text>
<text x="1.812" y="0.453" font-size="0.059967" fill="hsl(216.0,100%,20%)">hugobenichi</text>
<text x="1.925" y="0.585" font-size="0.057877" fill="hsl(216.0,100%,20%)">jiejiang</text>
<text x="1.068" y="0.477" font-size="0.024313" fill="hsl(216.0,100%,20%)">matthewmwang</text>
<text x="1.568" y="0.529" font-size="0.014037" fill="hsl(216.0,100%,20%)">jasongustaman</text>
<text x="0.251" y="0.719" font-size="0.030593" fill="hsl(216.0,100%,20%)">taoyl</text>
<text x="1.142" y="0.601" font-size="0.027183" fill="hsl(72.0,100%,20%)">amoylan</text>
<text x="1.221" y="0.694" font-size="0.007019" fill="hsl(72.0,100%,20%)">amandadeacon</text>
<text x="0.905" y="0.733" font-size="0.015694" fill="hsl(72.0,100%,20%)">keiichiw</text>
<text x="1.443" y="0.504" font-size="0.012157" fill="hsl(72.0,100%,20%)">hidehiko</text>
<text x="1.165" y="0.260" font-size="0.017192" fill="hsl(72.0,100%,20%)">iby</text>
<text x="1.115" y="0.539" font-size="0.007019" fill="hsl(72.0,100%,20%)">aidazolic</text>
<text x="1.247" y="0.700" font-size="0.007019" fill="hsl(72.0,100%,20%)">mpolzer</text>
<text x="1.353" y="0.686" font-size="0.007019" fill="hsl(72.0,100%,20%)">yoshiki</text>
<text x="0.552" y="0.047" font-size="0.038443" fill="hsl(144.0,100%,20%)">yich</text>
<text x="0.262" y="0.136" font-size="0.014037" fill="hsl(72.0,100%,20%)">jcliang</text>
<text x="0.941" y="0.571" font-size="0.007019" fill="hsl(72.0,100%,20%)">nmuggli</text>
<text x="0.875" y="0.625" font-size="0.007019" fill="hsl(72.0,100%,20%)">vsavu</text>
<text x="1.954" y="0.246" font-size="0.012157" fill="hsl(216.0,100%,20%)">andrzejo</text>
<text x="0.994" y="0.324" font-size="0.026261" fill="hsl(216.0,100%,20%)">kglund</text>
<text x="1.947" y="0.303" font-size="0.017192" fill="hsl(72.0,100%,20%)">norvez</text>
<text x="1.656" y="0.904" font-size="0.022195" fill="hsl(144.0,100%,20%)">briannorris</text>
<text x="1.550" y="0.803" font-size="0.007019" fill="hsl(144.0,100%,20%)">puthik</text>
<text x="0.635" y="0.555" font-size="0.029778" fill="hsl(144.0,100%,20%)">kimjae</text>
<text x="1.789" y="0.779" font-size="0.012157" fill="hsl(144.0,100%,20%)">jorgelo</text>
<text x="0.094" y="0.450" font-size="0.026261" fill="hsl(144.0,100%,20%)">gwendal</text>
<text x="0.513" y="0.761" font-size="0.035788" fill="hsl(216.0,100%,20%)">chenzikai</text>
<text x="1.684" y="0.283" font-size="0.012157" fill="hsl(216.0,100%,20%)">aleksandermj</text>
<text x="1.257" y="0.432" font-size="0.019852" fill="hsl(216.0,100%,20%)">damiendejean</text>
<text x="0.130" y="0.320" font-size="0.028939" fill="hsl(144.0,100%,20%)">dlunev</text>
<text x="0.352" y="0.399" font-size="0.023278" fill="hsl(144.0,100%,20%)">sarthakkukreti</text>
<text x="0.233" y="0.250" font-size="0.009926" fill="hsl(144.0,100%,20%)">jpachara</text>
<text x="1.441" y="0.217" font-size="0.032163" fill="hsl(144.0,100%,20%)">jadmanski</text>
<text x="1.405" y="0.334" font-size="0.015694" fill="hsl(144.0,100%,20%)">betuls</text>
<text x="1.502" y="0.651" font-size="0.018570" fill="hsl(72.0,100%,20%)">dverkamp</text>
<text x="1.483" y="0.550" font-size="0.018570" fill="hsl(72.0,100%,20%)">uekawa</text>
<text x="1.317" y="0.549" font-size="0.009926" fill="hsl(72.0,100%,20%)">jamesye</text>
<text x="1.348" y="0.637" font-size="0.009926" fill="hsl(72.0,100%,20%)">dtor</text>
<text x="1.370" y="0.611" font-size="0.007019" fill="hsl(72.0,100%,20%)">chibar</text>
<text x="1.274" y="0.034" font-size="0.017192" fill="hsl(72.0,100%,20%)">emaxx</text>
<text x="1.290" y="0.354" font-size="0.018570" fill="hsl(72.0,100%,20%)">mutexlox</text>
<text x="1.125" y="0.088" font-size="0.007019" fill="hsl(72.0,100%,20%)">ayaelattar</text>
<text x="1.114" y="0.022" font-size="0.007019" fill="hsl(72.0,100%,20%)">jasonling</text>
<text x="1.066" y="0.079" font-size="0.007019" fill="hsl(72.0,100%,20%)">rrangel</text>
<text x="0.099" y="0.546" font-size="0.007019" fill="hsl(144.0,100%,20%)">asavery</text>
<text x="0.084" y="0.551" font-size="0.007019" fill="hsl(144.0,100%,20%)">aaronyu</text>
<text x="0.102" y="0.541" font-size="0.007019" fill="hsl(144.0,100%,20%)">denniskempin</text>
<text x="0.438" y="0.226" font-size="0.031388" fill="hsl(144.0,100%,20%)">hcyang</text>
<text x="0.576" y="0.299" font-size="0.012157" fill="hsl(144.0,100%,20%)">patrykd</text>
<text x="1.895" y="0.287" font-size="0.007019" fill="hsl(216.0,100%,20%)">andrewlassalle</text>
<text x="0.132" y="0.198" font-size="0.021056" fill="hsl(72.0,100%,20%)">imranziad</text>
<text x="0.215" y="0.174" font-size="0.012157" fill="hsl(72.0,100%,20%)">kamesan</text>
<text x="0.148" y="0.126" font-size="0.012157" fill="hsl(72.0,100%,20%)">okuji</text>
<text x="1.363" y="0.142" font-size="0.015694" fill="hsl(144.0,100%,20%)">lziest</text>
<text x="1.668" y="0.234" font-size="0.012157" fill="hsl(144.0,100%,20%)">hardikgoyal</text>
<text x="1.222" y="0.128" font-size="0.007019" fill="hsl(144.0,100%,20%)">rborzello</text>
<text x="1.240" y="0.280" font-size="0.007019" fill="hsl(144.0,100%,20%)">antrim</text>
<text x="1.906" y="0.680" font-size="0.007019" fill="hsl(216.0,100%,20%)">ujjwalpande</text>
<text x="0.949" y="0.793" font-size="0.009926" fill="hsl(72.0,100%,20%)">allenwebb</text>
<text x="1.601" y="0.584" font-size="0.007019" fill="hsl(216.0,100%,20%)">benreich</text>
<text x="0.933" y="0.070" font-size="0.012157" fill="hsl(72.0,100%,20%)">jingyliang</text>
<text x="1.405" y="0.941" font-size="0.015694" fill="hsl(72.0,100%,20%)">jiwan</text>
<text x="0.851" y="0.025" font-size="0.007019" fill="hsl(72.0,100%,20%)">aaboagye</text>
<text x="0.966" y="0.130" font-size="0.007019" fill="hsl(72.0,100%,20%)">hbarnor</text>
<text x="1.256" y="0.976" font-size="0.009926" fill="hsl(72.0,100%,20%)">alanlxl</text>
<text x="1.380" y="0.985" font-size="0.007019" fill="hsl(72.0,100%,20%)">robsc</text>
<text x="1.643" y="0.062" font-size="0.036470" fill="hsl(72.0,100%,20%)">kerker</text>
<text x="1.797" y="0.037" font-size="0.028074" fill="hsl(72.0,100%,20%)">dennyh</text>
<text x="1.782" y="0.135" font-size="0.015694" fill="hsl(72.0,100%,20%)">zubeil</text>
<text x="1.705" y="0.155" font-size="0.007019" fill="hsl(72.0,100%,20%)">skyostil</text>
<text x="1.015" y="0.192" font-size="0.012157" fill="hsl(216.0,100%,20%)">jsiuda</text>
<text x="1.175" y="0.308" font-size="0.015694" fill="hsl(216.0,100%,20%)">jintaolin</text>
<text x="1.906" y="0.173" font-size="0.015694" fill="hsl(72.0,100%,20%)">kuabhs</text>
<text x="0.659" y="0.655" font-size="0.009926" fill="hsl(144.0,100%,20%)">yuanpengni</text>
<text x="0.603" y="0.410" font-size="0.007019" fill="hsl(144.0,100%,20%)">hardtmad</text>
<text x="1.748" y="0.196" font-size="0.012157" fill="hsl(72.0,100%,20%)">jrosenth</text>
<text x="1.421" y="0.420" font-size="0.009926" fill="hsl(72.0,100%,20%)">kendraketsui</text>
<text x="1.337" y="0.518" font-size="0.007019" fill="hsl(72.0,100%,20%)">yaohuali</text>
<text x="0.850" y="0.420" font-size="0.015694" fill="hsl(288.0,100%,20%)">nicholasbishop</text>
<text x="0.684" y="0.386" font-size="0.012157" fill="hsl(288.0,100%,20%)">tinghaolin</text>
<text x="0.876" y="0.552" font-size="0.007019" fill="hsl(288.0,100%,20%)">justinoue</text>
<text x="0.839" y="0.518" font-size="0.007019" fill="hsl(288.0,100%,20%)">tbrandston</text>
<text x="1.943" y="0.354" font-size="0.017192" fill="hsl(216.0,100%,20%)">ningyuan</text>
<text x="1.980" y="0.367" font-size="0.007019" fill="hsl(216.0,100%,20%)">hollingum</text>
<text x="1.058" y="0.767" font-size="0.021056" fill="hsl(72.0,100%,20%)">stevensd</text>
<text x="1.172" y="0.816" font-size="0.009926" fill="hsl(72.0,100%,20%)">bgeffon</text>
<text x="0.919" y="0.690" font-size="0.009926" fill="hsl(72.0,100%,20%)">kawasin</text>
<text x="1.127" y="0.712" font-size="0.007019" fill="hsl(72.0,100%,20%)">shahadath</text>
<text x="0.506" y="0.473" font-size="0.009926" fill="hsl(144.0,100%,20%)">fdegros</text>
<text x="0.536" y="0.465" font-size="0.007019" fill="hsl(144.0,100%,20%)">xcl</text>
<text x="0.516" y="0.448" font-size="0.007019" fill="hsl(144.0,100%,20%)">zwisler</text>
<text x="0.962" y="0.904" font-size="0.036470" fill="hsl(72.0,100%,20%)">weiluanwang</text>
<text x="0.816" y="0.974" font-size="0.029778" fill="hsl(72.0,100%,20%)">byronlee</text>
<text x="0.774" y="0.792" font-size="0.007019" fill="hsl(72.0,100%,20%)">toyoshim</text>
<text x="0.776" y="0.119" font-size="0.014037" fill="hsl(144.0,100%,20%)">jkardatzke</text>
<text x="0.739" y="0.205" font-size="0.023278" fill="hsl(144.0,100%,20%)">chingkang</text>
<text x="0.748" y="0.129" font-size="0.007019" fill="hsl(144.0,100%,20%)">sidereal</text>
<text x="0.747" y="0.857" font-size="0.018570" fill="hsl(72.0,100%,20%)">yycheng</text>
</svg>
