<svg width="4000" height="2000" viewBox="-0.025 -0.025 2.05 1.05" xmlns="http://www.w3.org/2000/svg">
  <style>
    path {
      fill: none;
      stroke-linecap: round;
      stroke-opacity: 0.4;
    }

    text {
      text-anchor: middle;
      alignment-baseline: hanging;
    }
  </style>
  <g opacity="0.4">
<path d="M0.283 0.522 Q0.684 0.384 0.502 0.158" stroke="hsl(0.0,100%,35%)" stroke-width="0.02759"></path>
<path d="M0.283 0.522 Q0.261 0.427 0.071 0.417" stroke="hsl(0.0,100%,35%)" stroke-width="0.02759"></path>
<path d="M0.283 0.522 Q0.108 0.552 0.127 0.644" stroke="hsl(0.0,100%,35%)" stroke-width="0.01380"></path>
<path d="M0.502 0.158 Q0.282 0.193 0.302 0.308" stroke="hsl(0.0,100%,35%)" stroke-width="0.05518"></path>
<path d="M0.502 0.158 Q0.426 0.216 0.523 0.265" stroke="hsl(0.0,100%,35%)" stroke-width="0.01380"></path>
<path d="M0.502 0.158 Q0.464 0.574 1.269 0.684" stroke="hsl(0.0,100%,35%)" stroke-width="0.01380"></path>
<path d="M0.502 0.158 Q0.355 0.287 0.575 0.387" stroke="hsl(0.0,100%,35%)" stroke-width="0.01380"></path>
<path d="M0.933 0.834 Q1.086 0.664 0.787 0.552" stroke="hsl(90.0,100%,35%)" stroke-width="0.02759"></path>
<path d="M0.933 0.834 Q1.700 0.684 1.575 0.277" stroke="hsl(90.0,100%,35%)" stroke-width="0.02759"></path>
<path d="M0.933 0.834 Q0.547 0.679 0.159 0.833" stroke="hsl(90.0,100%,35%)" stroke-width="0.02759"></path>
<path d="M1.575 0.277 Q1.371 0.231 1.237 0.321" stroke="hsl(90.0,100%,35%)" stroke-width="0.02759"></path>
<path d="M1.575 0.277 Q1.835 0.271 1.881 0.144" stroke="hsl(90.0,100%,35%)" stroke-width="0.01380"></path>
<path d="M1.575 0.277 Q0.913 0.038 0.302 0.308" stroke="hsl(90.0,100%,35%)" stroke-width="0.02759"></path>
<path d="M1.575 0.277 Q1.246 0.304 1.227 0.471" stroke="hsl(90.0,100%,35%)" stroke-width="0.01380"></path>
<path d="M1.575 0.277 Q0.961 0.256 0.787 0.552" stroke="hsl(90.0,100%,35%)" stroke-width="0.01380"></path>
<path d="M1.539 0.921 Q1.692 0.826 1.539 0.730" stroke="hsl(180.0,100%,35%)" stroke-width="0.04139"></path>
<path d="M1.539 0.921 Q1.377 0.897 1.294 0.971" stroke="hsl(180.0,100%,35%)" stroke-width="0.01380"></path>
<path d="M1.539 0.921 Q1.594 0.749 1.269 0.684" stroke="hsl(180.0,100%,35%)" stroke-width="0.01380"></path>
<path d="M1.293 0.106 Q0.987 0.029 0.771 0.162" stroke="hsl(270.0,100%,35%)" stroke-width="0.01380"></path>
<path d="M1.293 0.106 Q1.424 0.120 1.480 0.059" stroke="hsl(270.0,100%,35%)" stroke-width="0.02759"></path>
<path d="M1.293 0.106 Q1.047 0.089 0.960 0.205" stroke="hsl(270.0,100%,35%)" stroke-width="0.01380"></path>
</g>
<text x="0.283" y="0.495" font-size="0.054233" fill="hsl(0.0,100%,20%)">briannorris</text>
<text x="0.502" y="0.121" font-size="0.072761" fill="hsl(0.0,100%,20%)">kimjae</text>
<text x="0.071" y="0.400" font-size="0.034300" fill="hsl(0.0,100%,20%)">jorgelo</text>
<text x="0.127" y="0.632" font-size="0.024254" fill="hsl(0.0,100%,20%)">gwendal</text>
<text x="0.933" y="0.804" font-size="0.059409" fill="hsl(90.0,100%,20%)">chenzikai</text>
<text x="0.787" y="0.531" font-size="0.042008" fill="hsl(90.0,100%,20%)">taoyl</text>
<text x="1.575" y="0.240" font-size="0.072761" fill="hsl(90.0,100%,20%)">jiejiang</text>
<text x="0.159" y="0.816" font-size="0.034300" fill="hsl(90.0,100%,20%)">akahuang</text>
<text x="1.539" y="0.894" font-size="0.054233" fill="hsl(180.0,100%,20%)">dlunev</text>
<text x="1.539" y="0.709" font-size="0.042008" fill="hsl(180.0,100%,20%)">jadmanski</text>
<text x="1.294" y="0.959" font-size="0.024254" fill="hsl(180.0,100%,20%)">betuls</text>
<text x="1.269" y="0.667" font-size="0.034300" fill="hsl(180.0,100%,20%)">sarthakkukreti</text>
<text x="1.293" y="0.082" font-size="0.048507" fill="hsl(270.0,100%,20%)">dverkamp</text>
<text x="0.771" y="0.150" font-size="0.024254" fill="hsl(270.0,100%,20%)">uekawa</text>
<text x="1.480" y="0.042" font-size="0.034300" fill="hsl(270.0,100%,20%)">dtor</text>
<text x="0.960" y="0.193" font-size="0.024254" fill="hsl(270.0,100%,20%)">chibar</text>
<text x="1.237" y="0.304" font-size="0.034300" fill="hsl(90.0,100%,20%)">hugobenichi</text>
<text x="1.881" y="0.132" font-size="0.024254" fill="hsl(90.0,100%,20%)">allenwebb</text>
<text x="0.302" y="0.279" font-size="0.059409" fill="hsl(0.0,100%,20%)">vapier</text>
<text x="1.227" y="0.459" font-size="0.024254" fill="hsl(90.0,100%,20%)">benreich</text>
<text x="0.523" y="0.253" font-size="0.024254" fill="hsl(0.0,100%,20%)">hidehiko</text>
<text x="0.575" y="0.375" font-size="0.024254" fill="hsl(0.0,100%,20%)">yuanpengni</text>
</svg>
