<svg width="4000" height="2000" viewBox="-0.025 -0.025 2.05 1.05" xmlns="http://www.w3.org/2000/svg">
  <style>
    path {
      fill: none;
      stroke-linecap: round;
      stroke-opacity: 0.4;
    }

    text {
      text-anchor: middle;
      alignment-baseline: hanging;
    }
  </style>
  <g opacity="0.4">
<path d="M1.604 0.377 Q1.050 0.484 1.137 0.778" stroke="hsl(0.0,100%,35%)" stroke-width="0.00761"></path>
<path d="M1.604 0.377 Q0.454 0.370 0.187 0.929" stroke="hsl(0.0,100%,35%)" stroke-width="0.00281"></path>
<path d="M1.604 0.377 Q1.401 0.425 1.449 0.534" stroke="hsl(0.0,100%,35%)" stroke-width="0.00321"></path>
<path d="M1.604 0.377 Q1.717 0.481 1.945 0.448" stroke="hsl(0.0,100%,35%)" stroke-width="0.00922"></path>
<path d="M1.604 0.377 Q1.600 0.471 1.783 0.493" stroke="hsl(0.0,100%,35%)" stroke-width="0.00120"></path>
<path d="M1.604 0.377 Q1.114 0.384 1.020 0.624" stroke="hsl(0.0,100%,35%)" stroke-width="0.00080"></path>
<path d="M1.137 0.778 Q1.693 0.840 1.935 0.582" stroke="hsl(180.0,100%,35%)" stroke-width="0.00120"></path>
<path d="M1.137 0.778 Q0.888 0.707 0.694 0.813" stroke="hsl(180.0,100%,35%)" stroke-width="0.01403"></path>
<path d="M1.137 0.778 Q0.983 0.857 1.102 0.950" stroke="hsl(180.0,100%,35%)" stroke-width="0.00120"></path>
<path d="M1.137 0.778 Q1.202 0.677 1.020 0.624" stroke="hsl(180.0,100%,35%)" stroke-width="0.00481"></path>
<path d="M1.137 0.778 Q1.688 0.765 1.783 0.493" stroke="hsl(180.0,100%,35%)" stroke-width="0.00080"></path>
<path d="M1.137 0.778 Q1.805 0.775 1.945 0.448" stroke="hsl(180.0,100%,35%)" stroke-width="0.00240"></path>
<path d="M1.137 0.778 Q1.488 0.719 1.449 0.534" stroke="hsl(180.0,100%,35%)" stroke-width="0.00120"></path>
<path d="M1.137 0.778 Q0.542 0.664 0.187 0.929" stroke="hsl(180.0,100%,35%)" stroke-width="0.00761"></path>
<path d="M1.137 0.778 Q1.400 0.836 1.570 0.720" stroke="hsl(180.0,100%,35%)" stroke-width="0.00080"></path>
<path d="M1.137 0.778 Q0.667 0.594 0.204 0.783" stroke="hsl(180.0,100%,35%)" stroke-width="0.00040"></path>
<path d="M1.137 0.778 Q0.804 0.809 0.791 0.979" stroke="hsl(180.0,100%,35%)" stroke-width="0.00040"></path>
<path d="M1.137 0.778 Q1.135 0.537 0.663 0.485" stroke="hsl(180.0,100%,35%)" stroke-width="0.00080"></path>
<path d="M1.137 0.778 Q1.691 0.671 1.604 0.377" stroke="hsl(180.0,100%,35%)" stroke-width="0.00120"></path>
<path d="M1.137 0.778 Q1.257 0.826 1.378 0.778" stroke="hsl(180.0,100%,35%)" stroke-width="0.00160"></path>
<path d="M1.137 0.778 Q1.025 0.730 0.907 0.775" stroke="hsl(180.0,100%,35%)" stroke-width="0.00040"></path>
<path d="M0.187 0.929 Q1.451 1.040 1.945 0.448" stroke="hsl(180.0,100%,35%)" stroke-width="0.01403"></path>
<path d="M0.187 0.929 Q0.783 1.044 1.137 0.778" stroke="hsl(180.0,100%,35%)" stroke-width="0.02525"></path>
<path d="M0.187 0.929 Q0.628 1.122 1.102 0.950" stroke="hsl(180.0,100%,35%)" stroke-width="0.00080"></path>
<path d="M0.187 0.929 Q0.903 1.092 1.378 0.778" stroke="hsl(180.0,100%,35%)" stroke-width="0.00160"></path>
<path d="M0.187 0.929 Q0.533 0.973 0.694 0.813" stroke="hsl(180.0,100%,35%)" stroke-width="0.01443"></path>
<path d="M0.187 0.929 Q0.780 0.802 0.663 0.485" stroke="hsl(180.0,100%,35%)" stroke-width="0.00120"></path>
<path d="M0.187 0.929 Q0.334 1.019 0.542 0.967" stroke="hsl(180.0,100%,35%)" stroke-width="0.00040"></path>
<path d="M0.187 0.929 Q0.450 1.075 0.791 0.979" stroke="hsl(180.0,100%,35%)" stroke-width="0.00040"></path>
<path d="M0.187 0.929 Q1.337 0.936 1.604 0.377" stroke="hsl(180.0,100%,35%)" stroke-width="0.00040"></path>
<path d="M0.187 0.929 Q1.134 0.984 1.449 0.534" stroke="hsl(180.0,100%,35%)" stroke-width="0.00080"></path>
<path d="M0.187 0.929 Q0.262 1.009 0.433 0.990" stroke="hsl(180.0,100%,35%)" stroke-width="0.00080"></path>
<path d="M0.187 0.929 Q0.848 0.943 1.020 0.624" stroke="hsl(180.0,100%,35%)" stroke-width="0.00120"></path>
<path d="M0.187 0.929 Q-0.184 1.286 0.431 1.545" stroke="hsl(180.0,100%,35%)" stroke-width="0.00040"></path>
<path d="M0.187 0.929 Q0.437 0.813 0.266 0.666" stroke="hsl(180.0,100%,35%)" stroke-width="0.00040"></path>
<path d="M1.449 0.534 Q1.766 0.590 1.945 0.448" stroke="hsl(0.0,100%,35%)" stroke-width="0.03887"></path>
<path d="M1.449 0.534 Q1.648 0.581 1.783 0.493" stroke="hsl(0.0,100%,35%)" stroke-width="0.01563"></path>
<path d="M1.449 0.534 Q1.652 0.487 1.604 0.377" stroke="hsl(0.0,100%,35%)" stroke-width="0.00240"></path>
<path d="M1.449 0.534 Q1.163 0.493 1.020 0.624" stroke="hsl(0.0,100%,35%)" stroke-width="0.00080"></path>
<path d="M1.449 0.534 Q1.098 0.594 1.137 0.778" stroke="hsl(0.0,100%,35%)" stroke-width="0.00160"></path>
<path d="M1.449 0.534 Q0.502 0.479 0.187 0.929" stroke="hsl(0.0,100%,35%)" stroke-width="0.00281"></path>
<path d="M1.449 0.534 Q0.943 0.673 1.102 0.950" stroke="hsl(0.0,100%,35%)" stroke-width="0.00160"></path>
<path d="M1.449 0.534 Q1.654 0.656 1.935 0.582" stroke="hsl(0.0,100%,35%)" stroke-width="0.00040"></path>
<path d="M1.449 0.534 Q1.361 0.651 1.570 0.720" stroke="hsl(0.0,100%,35%)" stroke-width="0.00040"></path>
<path d="M1.449 0.534 Q0.985 0.546 0.907 0.775" stroke="hsl(0.0,100%,35%)" stroke-width="0.00040"></path>
<path d="M1.945 0.448 Q1.628 0.392 1.449 0.534" stroke="hsl(0.0,100%,35%)" stroke-width="0.04689"></path>
<path d="M1.945 0.448 Q1.827 0.438 1.783 0.493" stroke="hsl(0.0,100%,35%)" stroke-width="0.05049"></path>
<path d="M1.945 0.448 Q1.277 0.452 1.137 0.778" stroke="hsl(0.0,100%,35%)" stroke-width="0.00922"></path>
<path d="M1.945 0.448 Q1.831 0.345 1.604 0.377" stroke="hsl(0.0,100%,35%)" stroke-width="0.01763"></path>
<path d="M1.945 0.448 Q1.833 0.513 1.935 0.582" stroke="hsl(0.0,100%,35%)" stroke-width="0.00120"></path>
<path d="M1.945 0.448 Q0.681 0.337 0.187 0.929" stroke="hsl(0.0,100%,35%)" stroke-width="0.01523"></path>
<path d="M1.945 0.448 Q1.632 0.473 1.612 0.632" stroke="hsl(0.0,100%,35%)" stroke-width="0.00040"></path>
<path d="M1.945 0.448 Q1.122 0.530 1.102 0.950" stroke="hsl(0.0,100%,35%)" stroke-width="0.00040"></path>
<path d="M1.945 0.448 Q1.667 0.466 1.640 0.605" stroke="hsl(0.0,100%,35%)" stroke-width="0.00281"></path>
<path d="M1.945 0.448 Q1.397 0.500 1.378 0.778" stroke="hsl(0.0,100%,35%)" stroke-width="0.00040"></path>
<path d="M1.945 0.448 Q1.342 0.351 1.020 0.624" stroke="hsl(0.0,100%,35%)" stroke-width="0.00080"></path>
<path d="M1.945 0.448 Q1.921 0.328 1.682 0.314" stroke="hsl(0.0,100%,35%)" stroke-width="0.00040"></path>
<path d="M1.945 0.448 Q0.756 0.417 0.433 0.990" stroke="hsl(0.0,100%,35%)" stroke-width="0.00040"></path>
<path d="M1.783 0.493 Q1.900 0.503 1.945 0.448" stroke="hsl(0.0,100%,35%)" stroke-width="0.03767"></path>
<path d="M1.783 0.493 Q1.717 0.624 1.957 0.684" stroke="hsl(0.0,100%,35%)" stroke-width="0.00040"></path>
<path d="M1.783 0.493 Q1.583 0.447 1.449 0.534" stroke="hsl(0.0,100%,35%)" stroke-width="0.00842"></path>
<path d="M1.783 0.493 Q1.622 0.521 1.640 0.605" stroke="hsl(0.0,100%,35%)" stroke-width="0.00721"></path>
<path d="M1.783 0.493 Q1.232 0.507 1.137 0.778" stroke="hsl(0.0,100%,35%)" stroke-width="0.00200"></path>
<path d="M1.783 0.493 Q0.636 0.392 0.187 0.929" stroke="hsl(0.0,100%,35%)" stroke-width="0.00160"></path>
<path d="M1.783 0.493 Q1.495 0.564 1.570 0.720" stroke="hsl(0.0,100%,35%)" stroke-width="0.00040"></path>
<path d="M1.783 0.493 Q1.352 0.555 1.378 0.778" stroke="hsl(0.0,100%,35%)" stroke-width="0.00120"></path>
<path d="M1.783 0.493 Q1.786 0.399 1.604 0.377" stroke="hsl(0.0,100%,35%)" stroke-width="0.00120"></path>
<path d="M1.020 0.624 Q0.955 0.724 1.137 0.778" stroke="hsl(180.0,100%,35%)" stroke-width="0.00361"></path>
<path d="M1.020 0.624 Q0.705 0.653 0.694 0.813" stroke="hsl(180.0,100%,35%)" stroke-width="0.00481"></path>
<path d="M1.020 0.624 Q0.842 0.677 0.907 0.775" stroke="hsl(180.0,100%,35%)" stroke-width="0.00040"></path>
<path d="M1.020 0.624 Q0.359 0.610 0.187 0.929" stroke="hsl(180.0,100%,35%)" stroke-width="0.00401"></path>
<path d="M1.020 0.624 Q0.484 0.540 0.204 0.783" stroke="hsl(180.0,100%,35%)" stroke-width="0.00040"></path>
<path d="M1.020 0.624 Q1.622 0.721 1.945 0.448" stroke="hsl(180.0,100%,35%)" stroke-width="0.00040"></path>
<path d="M0.459 0.611 Q0.069 0.716 0.187 0.929" stroke="hsl(180.0,100%,35%)" stroke-width="0.00080"></path>
<path d="M0.459 0.611 Q1.332 0.827 1.945 0.448" stroke="hsl(180.0,100%,35%)" stroke-width="0.00080"></path>
<path d="M0.433 0.990 Q1.622 1.021 1.945 0.448" stroke="hsl(180.0,100%,35%)" stroke-width="0.00281"></path>
<path d="M0.433 0.990 Q0.359 0.910 0.187 0.929" stroke="hsl(180.0,100%,35%)" stroke-width="0.00842"></path>
<path d="M0.433 0.990 Q0.954 1.025 1.137 0.778" stroke="hsl(180.0,100%,35%)" stroke-width="0.00080"></path>
<path d="M0.433 0.990 Q0.528 0.972 0.515 0.922" stroke="hsl(180.0,100%,35%)" stroke-width="0.00040"></path>
<path d="M1.095 0.562 Q0.348 0.564 0.187 0.929" stroke="hsl(180.0,100%,35%)" stroke-width="0.00080"></path>
<path d="M1.095 0.562 Q1.008 0.578 1.020 0.624" stroke="hsl(180.0,100%,35%)" stroke-width="0.00080"></path>
<path d="M1.095 0.562 Q0.831 0.631 0.907 0.775" stroke="hsl(180.0,100%,35%)" stroke-width="0.00040"></path>
<path d="M1.095 0.562 Q0.694 0.608 0.694 0.813" stroke="hsl(180.0,100%,35%)" stroke-width="0.00040"></path>
<path d="M1.095 0.562 Q1.611 0.675 1.945 0.448" stroke="hsl(180.0,100%,35%)" stroke-width="0.00040"></path>
<path d="M1.095 0.562 Q0.943 0.679 1.137 0.778" stroke="hsl(180.0,100%,35%)" stroke-width="0.00040"></path>
<path d="M0.907 0.775 Q1.687 0.819 1.945 0.448" stroke="hsl(180.0,100%,35%)" stroke-width="0.00160"></path>
<path d="M0.907 0.775 Q1.019 0.823 1.137 0.778" stroke="hsl(180.0,100%,35%)" stroke-width="0.00721"></path>
<path d="M0.907 0.775 Q0.865 0.901 1.102 0.950" stroke="hsl(180.0,100%,35%)" stroke-width="0.00481"></path>
<path d="M0.907 0.775 Q0.424 0.708 0.187 0.929" stroke="hsl(180.0,100%,35%)" stroke-width="0.00040"></path>
<path d="M0.907 0.775 Q0.770 0.752 0.694 0.813" stroke="hsl(180.0,100%,35%)" stroke-width="0.00080"></path>
<path d="M0.907 0.775 Q1.370 0.763 1.449 0.534" stroke="hsl(180.0,100%,35%)" stroke-width="0.00080"></path>
<path d="M0.907 0.775 Q1.084 0.722 1.020 0.624" stroke="hsl(180.0,100%,35%)" stroke-width="0.00040"></path>
<path d="M0.907 0.775 Q1.139 0.871 1.378 0.778" stroke="hsl(180.0,100%,35%)" stroke-width="0.00040"></path>
<path d="M0.907 0.775 Q1.570 0.809 1.783 0.493" stroke="hsl(180.0,100%,35%)" stroke-width="0.00040"></path>
<path d="M0.694 0.813 Q0.944 0.884 1.137 0.778" stroke="hsl(180.0,100%,35%)" stroke-width="0.01683"></path>
<path d="M0.694 0.813 Q1.009 0.784 1.020 0.624" stroke="hsl(180.0,100%,35%)" stroke-width="0.00401"></path>
<path d="M0.694 0.813 Q0.348 0.770 0.187 0.929" stroke="hsl(180.0,100%,35%)" stroke-width="0.00842"></path>
<path d="M0.694 0.813 Q1.064 0.932 1.378 0.778" stroke="hsl(180.0,100%,35%)" stroke-width="0.00200"></path>
<path d="M0.694 0.813 Q1.498 0.777 1.604 0.377" stroke="hsl(180.0,100%,35%)" stroke-width="0.00040"></path>
<path d="M0.694 0.813 Q0.815 0.903 1.017 0.864" stroke="hsl(180.0,100%,35%)" stroke-width="0.00040"></path>
<path d="M0.694 0.813 Q1.611 0.881 1.945 0.448" stroke="hsl(180.0,100%,35%)" stroke-width="0.00040"></path>
<path d="M0.694 0.813 Q1.207 0.942 1.570 0.720" stroke="hsl(180.0,100%,35%)" stroke-width="0.00040"></path>
<path d="M1.513 0.858 Q1.389 0.743 1.137 0.778" stroke="hsl(180.0,100%,35%)" stroke-width="0.00040"></path>
<path d="M1.513 0.858 Q0.793 0.628 0.187 0.929" stroke="hsl(180.0,100%,35%)" stroke-width="0.00040"></path>
<path d="M1.513 0.858 Q1.509 0.791 1.378 0.778" stroke="hsl(180.0,100%,35%)" stroke-width="0.00040"></path>
<path d="M1.378 0.778 Q1.257 0.730 1.137 0.778" stroke="hsl(180.0,100%,35%)" stroke-width="0.00561"></path>
<path d="M1.378 0.778 Q1.322 0.629 1.020 0.624" stroke="hsl(180.0,100%,35%)" stroke-width="0.00321"></path>
<path d="M1.378 0.778 Q1.811 0.623 1.604 0.377" stroke="hsl(180.0,100%,35%)" stroke-width="0.00040"></path>
<path d="M1.378 0.778 Q1.648 0.744 1.640 0.605" stroke="hsl(180.0,100%,35%)" stroke-width="0.00040"></path>
<path d="M1.378 0.778 Q1.008 0.659 0.694 0.813" stroke="hsl(180.0,100%,35%)" stroke-width="0.00080"></path>
<path d="M1.378 0.778 Q0.662 0.616 0.187 0.929" stroke="hsl(180.0,100%,35%)" stroke-width="0.00040"></path>
<path d="M1.640 0.605 Q1.918 0.587 1.945 0.448" stroke="hsl(0.0,100%,35%)" stroke-width="0.00441"></path>
<path d="M1.640 0.605 Q1.370 0.639 1.378 0.778" stroke="hsl(0.0,100%,35%)" stroke-width="0.00040"></path>
<path d="M1.640 0.605 Q1.601 0.531 1.449 0.534" stroke="hsl(0.0,100%,35%)" stroke-width="0.00160"></path>
<path d="M1.640 0.605 Q1.801 0.578 1.783 0.493" stroke="hsl(0.0,100%,35%)" stroke-width="0.00401"></path>
<path d="M1.640 0.605 Q1.250 0.591 1.137 0.778" stroke="hsl(0.0,100%,35%)" stroke-width="0.00040"></path>
<path d="M1.640 0.605 Q1.735 0.708 1.957 0.684" stroke="hsl(0.0,100%,35%)" stroke-width="0.00080"></path>
<path d="M1.640 0.605 Q1.804 0.484 1.604 0.377" stroke="hsl(0.0,100%,35%)" stroke-width="0.00040"></path>
<path d="M1.935 0.582 Q2.047 0.517 1.945 0.448" stroke="hsl(0.0,100%,35%)" stroke-width="0.00080"></path>
<path d="M1.935 0.582 Q1.380 0.521 1.137 0.778" stroke="hsl(0.0,100%,35%)" stroke-width="0.00120"></path>
<path d="M1.935 0.582 Q1.731 0.461 1.449 0.534" stroke="hsl(0.0,100%,35%)" stroke-width="0.00160"></path>
<path d="M1.935 0.582 Q1.930 0.507 1.783 0.493" stroke="hsl(0.0,100%,35%)" stroke-width="0.00040"></path>
<path d="M1.102 0.950 Q1.257 0.871 1.137 0.778" stroke="hsl(180.0,100%,35%)" stroke-width="0.00641"></path>
<path d="M1.102 0.950 Q1.007 0.800 0.694 0.813" stroke="hsl(180.0,100%,35%)" stroke-width="0.00080"></path>
<path d="M1.102 0.950 Q1.608 0.811 1.449 0.534" stroke="hsl(180.0,100%,35%)" stroke-width="0.00240"></path>
<path d="M1.102 0.950 Q1.322 0.770 1.020 0.624" stroke="hsl(180.0,100%,35%)" stroke-width="0.00040"></path>
<path d="M1.102 0.950 Q0.661 0.756 0.187 0.929" stroke="hsl(180.0,100%,35%)" stroke-width="0.00040"></path>
<path d="M1.102 0.950 Q1.925 0.867 1.945 0.448" stroke="hsl(180.0,100%,35%)" stroke-width="0.00281"></path>
<path d="M1.102 0.950 Q1.520 0.928 1.570 0.720" stroke="hsl(180.0,100%,35%)" stroke-width="0.00080"></path>
<path d="M1.102 0.950 Q1.144 0.823 0.907 0.775" stroke="hsl(180.0,100%,35%)" stroke-width="0.00040"></path>
<path d="M1.102 0.950 Q1.377 0.919 1.378 0.778" stroke="hsl(180.0,100%,35%)" stroke-width="0.00040"></path>
<path d="M0.508 0.692 Q0.158 0.746 0.187 0.929" stroke="hsl(180.0,100%,35%)" stroke-width="0.00801"></path>
<path d="M0.508 0.692 Q0.504 0.790 0.694 0.813" stroke="hsl(180.0,100%,35%)" stroke-width="0.00120"></path>
<path d="M0.508 0.692 Q0.754 0.861 1.137 0.778" stroke="hsl(180.0,100%,35%)" stroke-width="0.00240"></path>
<path d="M0.508 0.692 Q0.819 0.760 1.020 0.624" stroke="hsl(180.0,100%,35%)" stroke-width="0.00080"></path>
<path d="M1.857 0.321 Q0.535 0.291 0.187 0.929" stroke="hsl(0.0,100%,35%)" stroke-width="0.00040"></path>
<path d="M1.857 0.321 Q1.131 0.406 1.137 0.778" stroke="hsl(0.0,100%,35%)" stroke-width="0.00040"></path>
<path d="M1.857 0.321 Q1.799 0.402 1.945 0.448" stroke="hsl(0.0,100%,35%)" stroke-width="0.00120"></path>
<path d="M0.663 0.485 Q0.665 0.726 1.137 0.778" stroke="hsl(180.0,100%,35%)" stroke-width="0.00361"></path>
<path d="M0.663 0.485 Q0.332 0.757 0.791 0.979" stroke="hsl(180.0,100%,35%)" stroke-width="0.00040"></path>
<path d="M0.663 0.485 Q0.070 0.612 0.187 0.929" stroke="hsl(180.0,100%,35%)" stroke-width="0.00200"></path>
<path d="M0.791 0.979 Q1.124 0.948 1.137 0.778" stroke="hsl(180.0,100%,35%)" stroke-width="0.00721"></path>
<path d="M0.791 0.979 Q0.529 0.833 0.187 0.929" stroke="hsl(180.0,100%,35%)" stroke-width="0.00361"></path>
<path d="M0.791 0.979 Q0.875 0.877 0.694 0.813" stroke="hsl(180.0,100%,35%)" stroke-width="0.00040"></path>
<path d="M0.791 0.979 Q1.792 0.944 1.945 0.448" stroke="hsl(180.0,100%,35%)" stroke-width="0.00040"></path>
<path d="M0.862 0.857 Q0.467 0.758 0.187 0.929" stroke="hsl(180.0,100%,35%)" stroke-width="0.00040"></path>
<path d="M0.862 0.857 Q1.062 0.873 1.137 0.778" stroke="hsl(180.0,100%,35%)" stroke-width="0.00040"></path>
<path d="M0.862 0.857 Q1.730 0.869 1.945 0.448" stroke="hsl(180.0,100%,35%)" stroke-width="0.00040"></path>
<path d="M1.570 0.720 Q1.152 0.741 1.102 0.950" stroke="hsl(180.0,100%,35%)" stroke-width="0.00080"></path>
<path d="M1.570 0.720 Q1.307 0.663 1.137 0.778" stroke="hsl(180.0,100%,35%)" stroke-width="0.00481"></path>
<path d="M1.570 0.720 Q1.372 0.562 1.020 0.624" stroke="hsl(180.0,100%,35%)" stroke-width="0.00040"></path>
<path d="M1.570 0.720 Q1.427 0.711 1.378 0.778" stroke="hsl(180.0,100%,35%)" stroke-width="0.00120"></path>
<path d="M1.570 0.720 Q1.861 0.555 1.604 0.377" stroke="hsl(180.0,100%,35%)" stroke-width="0.00080"></path>
<path d="M1.570 0.720 Q1.057 0.591 0.694 0.813" stroke="hsl(180.0,100%,35%)" stroke-width="0.00200"></path>
<path d="M1.570 0.720 Q0.711 0.548 0.187 0.929" stroke="hsl(180.0,100%,35%)" stroke-width="0.00080"></path>
<path d="M1.570 0.720 Q1.975 0.659 1.945 0.448" stroke="hsl(180.0,100%,35%)" stroke-width="0.00160"></path>
<path d="M0.204 0.783 Q0.079 0.853 0.187 0.929" stroke="hsl(180.0,100%,35%)" stroke-width="0.02685"></path>
<path d="M0.204 0.783 Q0.675 0.967 1.137 0.778" stroke="hsl(180.0,100%,35%)" stroke-width="0.02244"></path>
<path d="M0.204 0.783 Q0.253 0.700 0.103 0.658" stroke="hsl(180.0,100%,35%)" stroke-width="0.00040"></path>
<path d="M0.204 0.783 Q0.740 0.866 1.020 0.624" stroke="hsl(180.0,100%,35%)" stroke-width="0.00040"></path>
<path d="M0.204 0.783 Q1.225 0.954 1.783 0.493" stroke="hsl(180.0,100%,35%)" stroke-width="0.00080"></path>
<path d="M0.204 0.783 Q0.341 0.998 0.791 0.979" stroke="hsl(180.0,100%,35%)" stroke-width="0.00200"></path>
<path d="M0.204 0.783 Q1.026 0.908 1.449 0.534" stroke="hsl(180.0,100%,35%)" stroke-width="0.00040"></path>
<path d="M0.204 0.783 Q1.342 0.964 1.945 0.448" stroke="hsl(180.0,100%,35%)" stroke-width="0.00721"></path>
<path d="M0.204 0.783 Q0.395 0.705 0.284 0.594" stroke="hsl(180.0,100%,35%)" stroke-width="0.00040"></path>
<path d="M0.204 0.783 Q1.065 0.981 1.640 0.605" stroke="hsl(180.0,100%,35%)" stroke-width="0.00200"></path>
<path d="M0.204 0.783 Q0.795 1.015 1.378 0.778" stroke="hsl(180.0,100%,35%)" stroke-width="0.00080"></path>
<path d="M0.204 0.783 Q1.231 1.029 1.935 0.582" stroke="hsl(180.0,100%,35%)" stroke-width="0.00040"></path>
<path d="M0.204 0.783 Q0.425 0.896 0.694 0.813" stroke="hsl(180.0,100%,35%)" stroke-width="0.00040"></path>
<path d="M0.583 0.880 Q0.346 0.826 0.187 0.929" stroke="hsl(180.0,100%,35%)" stroke-width="0.00361"></path>
<path d="M0.583 0.880 Q0.941 0.940 1.137 0.778" stroke="hsl(180.0,100%,35%)" stroke-width="0.00361"></path>
<path d="M0.583 0.880 Q0.692 0.869 0.694 0.813" stroke="hsl(180.0,100%,35%)" stroke-width="0.00040"></path>
<path d="M0.364 0.393 Q0.417 0.314 0.274 0.271" stroke="hsl(180.0,100%,35%)" stroke-width="0.00080"></path>
<path d="M0.364 0.393 Q-0.153 0.626 0.187 0.929" stroke="hsl(180.0,100%,35%)" stroke-width="0.00160"></path>
<path d="M0.364 0.393 Q0.442 0.740 1.137 0.778" stroke="hsl(180.0,100%,35%)" stroke-width="0.00120"></path>
<path d="M1.504 0.532 Q1.675 0.569 1.783 0.493" stroke="hsl(0.0,100%,35%)" stroke-width="0.00040"></path>
<path d="M1.504 0.532 Q1.680 0.644 1.935 0.582" stroke="hsl(0.0,100%,35%)" stroke-width="0.00040"></path>
<path d="M1.504 0.532 Q1.792 0.578 1.945 0.448" stroke="hsl(0.0,100%,35%)" stroke-width="0.00281"></path>
<path d="M1.504 0.532 Q1.124 0.582 1.137 0.778" stroke="hsl(0.0,100%,35%)" stroke-width="0.00040"></path>
<path d="M1.504 0.532 Q1.678 0.475 1.604 0.377" stroke="hsl(0.0,100%,35%)" stroke-width="0.00040"></path>
<path d="M0.226 0.555 Q0.504 0.849 1.137 0.778" stroke="hsl(180.0,100%,35%)" stroke-width="0.00040"></path>
<path d="M0.226 0.555 Q0.033 0.665 0.204 0.783" stroke="hsl(180.0,100%,35%)" stroke-width="0.00040"></path>
<path d="M0.226 0.555 Q-0.092 0.734 0.187 0.929" stroke="hsl(180.0,100%,35%)" stroke-width="0.00040"></path>
<path d="M0.284 0.594 Q-0.032 0.742 0.187 0.929" stroke="hsl(180.0,100%,35%)" stroke-width="0.00240"></path>
<path d="M0.284 0.594 Q1.114 0.844 1.783 0.493" stroke="hsl(180.0,100%,35%)" stroke-width="0.00040"></path>
<path d="M0.284 0.594 Q0.563 0.857 1.137 0.778" stroke="hsl(180.0,100%,35%)" stroke-width="0.00200"></path>
<path d="M0.284 0.594 Q0.314 0.786 0.694 0.813" stroke="hsl(180.0,100%,35%)" stroke-width="0.00040"></path>
<path d="M0.284 0.594 Q1.119 0.919 1.935 0.582" stroke="hsl(180.0,100%,35%)" stroke-width="0.00040"></path>
<path d="M0.707 0.960 Q1.067 0.955 1.137 0.778" stroke="hsl(180.0,100%,35%)" stroke-width="0.00200"></path>
<path d="M0.707 0.960 Q0.734 0.986 0.791 0.979" stroke="hsl(180.0,100%,35%)" stroke-width="0.00200"></path>
<path d="M0.707 0.960 Q0.472 0.841 0.187 0.929" stroke="hsl(180.0,100%,35%)" stroke-width="0.00120"></path>
<path d="M1.565 0.124 Q1.496 0.362 1.945 0.448" stroke="hsl(180.0,100%,35%)" stroke-width="0.00040"></path>
<path d="M1.565 0.124 Q0.828 0.366 1.137 0.778" stroke="hsl(180.0,100%,35%)" stroke-width="0.00120"></path>
<path d="M1.565 0.124 Q1.379 0.352 1.783 0.493" stroke="hsl(180.0,100%,35%)" stroke-width="0.00080"></path>
<path d="M0.462 0.876 Q0.282 0.848 0.187 0.929" stroke="hsl(180.0,100%,35%)" stroke-width="0.00200"></path>
<path d="M0.462 0.876 Q1.545 0.959 1.945 0.448" stroke="hsl(180.0,100%,35%)" stroke-width="0.00120"></path>
<path d="M0.462 0.876 Q0.628 0.891 0.694 0.813" stroke="hsl(180.0,100%,35%)" stroke-width="0.00120"></path>
<path d="M0.462 0.876 Q0.878 0.962 1.137 0.778" stroke="hsl(180.0,100%,35%)" stroke-width="0.00040"></path>
<path d="M0.462 0.876 Q1.432 0.855 1.604 0.377" stroke="hsl(180.0,100%,35%)" stroke-width="0.00040"></path>
<path d="M0.583 0.577 Q0.696 0.547 0.663 0.485" stroke="hsl(180.0,100%,35%)" stroke-width="0.00040"></path>
<path d="M0.583 0.577 Q0.103 0.674 0.187 0.929" stroke="hsl(180.0,100%,35%)" stroke-width="0.00080"></path>
<path d="M0.583 0.577 Q0.699 0.789 1.137 0.778" stroke="hsl(180.0,100%,35%)" stroke-width="0.00040"></path>
<path d="M0.993 0.093 Q1.185 0.461 1.945 0.448" stroke="hsl(0.0,100%,35%)" stroke-width="0.00040"></path>
<path d="M0.993 0.093 Q0.582 0.364 1.020 0.624" stroke="hsl(0.0,100%,35%)" stroke-width="0.00040"></path>
<path d="M0.993 0.093 Q1.071 0.357 1.604 0.377" stroke="hsl(0.0,100%,35%)" stroke-width="0.00080"></path>
<path d="M0.993 0.093 Q-0.078 0.350 0.187 0.929" stroke="hsl(0.0,100%,35%)" stroke-width="0.00040"></path>
<path d="M0.993 0.093 Q0.517 0.465 1.137 0.778" stroke="hsl(0.0,100%,35%)" stroke-width="0.00080"></path>
<path d="M0.993 0.093 Q0.791 0.090 0.740 0.188" stroke="hsl(0.0,100%,35%)" stroke-width="0.00040"></path>
</g>
<text x="1.604" y="0.358" font-size="0.039106" fill="hsl(0.0,100%,20%)">amaiorano</text>
<text x="1.137" y="0.742" font-size="0.073486" fill="hsl(180.0,100%,20%)">enga</text>
<text x="0.187" y="0.893" font-size="0.071341" fill="hsl(180.0,100%,20%)">cwallez</text>
<text x="1.449" y="0.503" font-size="0.062791" fill="hsl(0.0,100%,20%)">dsinclair</text>
<text x="1.945" y="0.403" font-size="0.091123" fill="hsl(0.0,100%,20%)">bclayton</text>
<text x="1.783" y="0.462" font-size="0.063547" fill="hsl(0.0,100%,20%)">jrprice</text>
<text x="1.020" y="0.608" font-size="0.031300" fill="hsl(180.0,100%,20%)">kainino</text>
<text x="0.459" y="0.607" font-size="0.006913" fill="hsl(180.0,100%,20%)">andre</text>
<text x="0.433" y="0.980" font-size="0.020155" fill="hsl(180.0,100%,20%)">arthursonzogni</text>
<text x="0.515" y="0.920" font-size="0.003457" fill="hsl(180.0,100%,20%)">khaslett</text>
<text x="1.095" y="0.557" font-size="0.009776" fill="hsl(180.0,100%,20%)">austineng</text>
<text x="0.907" y="0.763" font-size="0.023697" fill="hsl(180.0,100%,20%)">shrekshao</text>
<text x="0.694" y="0.790" font-size="0.047267" fill="hsl(180.0,100%,20%)">lokokung</text>
<text x="1.513" y="0.855" font-size="0.005987" fill="hsl(180.0,100%,20%)">avi</text>
<text x="1.378" y="0.766" font-size="0.025164" fill="hsl(180.0,100%,20%)">bajones</text>
<text x="1.640" y="0.591" font-size="0.026996" fill="hsl(0.0,100%,20%)">dneto</text>
<text x="1.935" y="0.575" font-size="0.015458" fill="hsl(0.0,100%,20%)">rharrison</text>
<text x="1.612" y="0.630" font-size="0.003457" fill="hsl(0.0,100%,20%)">kjlubick</text>
<text x="1.102" y="0.936" font-size="0.026996" fill="hsl(180.0,100%,20%)">senorblanco</text>
<text x="1.682" y="0.312" font-size="0.003457" fill="hsl(0.0,100%,20%)">brucedawson</text>
<text x="0.508" y="0.682" font-size="0.019245" fill="hsl(180.0,100%,20%)">beaufort.francois</text>
<text x="1.857" y="0.317" font-size="0.007729" fill="hsl(0.0,100%,20%)">brandon1.jones</text>
<text x="0.663" y="0.477" font-size="0.015840" fill="hsl(180.0,100%,20%)">lehoangquyen</text>
<text x="0.542" y="0.965" font-size="0.003457" fill="hsl(180.0,100%,20%)">fbeaufort</text>
<text x="0.791" y="0.967" font-size="0.022401" fill="hsl(180.0,100%,20%)">penghuang</text>
<text x="0.431" y="1.544" font-size="0.003457" fill="hsl(180.0,100%,20%)">jamesgk</text>
<text x="0.266" y="0.664" font-size="0.003457" fill="hsl(180.0,100%,20%)">fhorschig</text>
<text x="0.862" y="0.854" font-size="0.005987" fill="hsl(180.0,100%,20%)">danakj</text>
<text x="1.957" y="0.681" font-size="0.005987" fill="hsl(0.0,100%,20%)">alanbaker</text>
<text x="1.570" y="0.709" font-size="0.021307" fill="hsl(180.0,100%,20%)">gman</text>
<text x="0.204" y="0.761" font-size="0.044265" fill="hsl(180.0,100%,20%)">jiawei.shao</text>
<text x="0.583" y="0.873" font-size="0.015067" fill="hsl(180.0,100%,20%)">hao.x.li</text>
<text x="0.364" y="0.388" font-size="0.010370" fill="hsl(180.0,100%,20%)">hitawala</text>
<text x="0.274" y="0.268" font-size="0.004888" fill="hsl(180.0,100%,20%)">sunnyps</text>
<text x="1.504" y="0.527" font-size="0.011464" fill="hsl(0.0,100%,20%)">jason.erb</text>
<text x="0.226" y="0.552" font-size="0.005987" fill="hsl(180.0,100%,20%)">jianlin.qiu</text>
<text x="0.103" y="0.657" font-size="0.003457" fill="hsl(180.0,100%,20%)">rafael.cintron</text>
<text x="0.284" y="0.588" font-size="0.013387" fill="hsl(180.0,100%,20%)">zhaoming.jiang</text>
<text x="0.707" y="0.954" font-size="0.012463" fill="hsl(180.0,100%,20%)">jie.a.chen</text>
<text x="1.565" y="0.120" font-size="0.008467" fill="hsl(180.0,100%,20%)">jojwang</text>
<text x="1.017" y="0.863" font-size="0.003457" fill="hsl(180.0,100%,20%)">kbr</text>
<text x="0.462" y="0.870" font-size="0.012463" fill="hsl(180.0,100%,20%)">tiszka</text>
<text x="0.583" y="0.574" font-size="0.006913" fill="hsl(180.0,100%,20%)">vollick</text>
<text x="0.993" y="0.089" font-size="0.009776" fill="hsl(0.0,100%,20%)">ynovikov</text>
<text x="0.740" y="0.186" font-size="0.003457" fill="hsl(0.0,100%,20%)">bsheedy</text>
</svg>
