<svg width="4000" height="2000" viewBox="-0.025 -0.025 2.05 1.05" xmlns="http://www.w3.org/2000/svg">
  <style>
    path {
      fill: none;
      stroke-linecap: round;
      stroke-opacity: 0.4;
    }

    text {
      text-anchor: middle;
      alignment-baseline: hanging;
    }
  </style>
  <g opacity="0.4">
<path d="M1.343 0.158 Q0.952 0.138 0.827 0.324" stroke="hsl(0.0,100%,35%)" stroke-width="0.00535"></path>
<path d="M1.343 0.158 Q1.064 0.270 1.222 0.431" stroke="hsl(0.0,100%,35%)" stroke-width="0.00356"></path>
<path d="M1.343 0.158 Q1.497 0.349 1.903 0.316" stroke="hsl(0.0,100%,35%)" stroke-width="0.00178"></path>
<path d="M1.343 0.158 Q0.458 0.130 0.210 0.556" stroke="hsl(0.0,100%,35%)" stroke-width="0.00535"></path>
<path d="M0.827 0.324 Q1.075 0.264 1.013 0.130" stroke="hsl(0.0,100%,35%)" stroke-width="0.04098"></path>
<path d="M0.827 0.324 Q1.372 0.535 1.903 0.316" stroke="hsl(0.0,100%,35%)" stroke-width="0.02316"></path>
<path d="M0.827 0.324 Q0.445 0.440 0.586 0.651" stroke="hsl(0.0,100%,35%)" stroke-width="0.00178"></path>
<path d="M0.827 0.324 Q0.992 0.324 1.027 0.243" stroke="hsl(0.0,100%,35%)" stroke-width="0.01069"></path>
<path d="M0.827 0.324 Q1.218 0.344 1.343 0.158" stroke="hsl(0.0,100%,35%)" stroke-width="0.00891"></path>
<path d="M0.827 0.324 Q0.939 0.457 1.222 0.431" stroke="hsl(0.0,100%,35%)" stroke-width="0.01069"></path>
<path d="M0.827 0.324 Q0.616 0.685 1.273 0.868" stroke="hsl(0.0,100%,35%)" stroke-width="0.00178"></path>
<path d="M1.222 0.431 Q1.110 0.299 0.827 0.324" stroke="hsl(180.0,100%,35%)" stroke-width="0.01425"></path>
<path d="M1.222 0.431 Q0.925 0.373 0.746 0.505" stroke="hsl(180.0,100%,35%)" stroke-width="0.01069"></path>
<path d="M1.222 0.431 Q0.616 0.291 0.210 0.556" stroke="hsl(180.0,100%,35%)" stroke-width="0.00891"></path>
<path d="M1.222 0.431 Q1.384 0.629 1.806 0.594" stroke="hsl(180.0,100%,35%)" stroke-width="0.00178"></path>
<path d="M1.222 0.431 Q0.898 0.660 1.273 0.868" stroke="hsl(180.0,100%,35%)" stroke-width="0.00178"></path>
<path d="M1.222 0.431 Q0.728 0.414 0.586 0.651" stroke="hsl(180.0,100%,35%)" stroke-width="0.00178"></path>
<path d="M1.222 0.431 Q1.358 0.494 1.510 0.441" stroke="hsl(180.0,100%,35%)" stroke-width="0.00178"></path>
<path d="M1.222 0.431 Q1.204 0.479 1.295 0.498" stroke="hsl(180.0,100%,35%)" stroke-width="0.00178"></path>
<path d="M1.903 0.316 Q1.524 0.104 1.027 0.243" stroke="hsl(0.0,100%,35%)" stroke-width="0.00891"></path>
<path d="M1.903 0.316 Q1.749 0.125 1.343 0.158" stroke="hsl(0.0,100%,35%)" stroke-width="0.00178"></path>
<path d="M1.903 0.316 Q1.358 0.105 0.827 0.324" stroke="hsl(0.0,100%,35%)" stroke-width="0.01069"></path>
<path d="M1.903 0.316 Q1.607 0.045 1.013 0.130" stroke="hsl(0.0,100%,35%)" stroke-width="0.00178"></path>
<path d="M0.210 0.556 Q0.518 0.638 0.746 0.505" stroke="hsl(180.0,100%,35%)" stroke-width="0.01069"></path>
<path d="M0.210 0.556 Q1.114 0.753 1.697 0.355" stroke="hsl(180.0,100%,35%)" stroke-width="0.00178"></path>
<path d="M0.210 0.556 Q0.816 0.696 1.222 0.431" stroke="hsl(180.0,100%,35%)" stroke-width="0.00356"></path>
<path d="M1.273 0.868 Q1.597 0.639 1.222 0.431" stroke="hsl(180.0,100%,35%)" stroke-width="0.03029"></path>
<path d="M1.273 0.868 Q1.485 0.507 0.827 0.324" stroke="hsl(180.0,100%,35%)" stroke-width="0.00356"></path>
<path d="M1.273 0.868 Q0.991 0.499 0.210 0.556" stroke="hsl(180.0,100%,35%)" stroke-width="0.00356"></path>
<path d="M1.273 0.868 Q1.217 0.709 0.895 0.702" stroke="hsl(180.0,100%,35%)" stroke-width="0.00178"></path>
<path d="M1.013 0.130 Q0.764 0.190 0.827 0.324" stroke="hsl(0.0,100%,35%)" stroke-width="0.02851"></path>
<path d="M1.013 0.130 Q0.876 0.322 1.222 0.431" stroke="hsl(0.0,100%,35%)" stroke-width="0.00356"></path>
<path d="M1.013 0.130 Q1.309 0.401 1.903 0.316" stroke="hsl(0.0,100%,35%)" stroke-width="0.00356"></path>
<path d="M1.013 0.130 Q0.733 0.463 1.321 0.672" stroke="hsl(0.0,100%,35%)" stroke-width="0.00178"></path>
<path d="M1.013 0.130 Q1.012 0.385 1.510 0.441" stroke="hsl(0.0,100%,35%)" stroke-width="0.00535"></path>
<path d="M1.013 0.130 Q1.175 0.380 1.697 0.355" stroke="hsl(0.0,100%,35%)" stroke-width="0.00178"></path>
<path d="M0.586 0.651 Q0.783 0.610 0.746 0.505" stroke="hsl(180.0,100%,35%)" stroke-width="0.01247"></path>
<path d="M0.586 0.651 Q1.080 0.668 1.222 0.431" stroke="hsl(180.0,100%,35%)" stroke-width="0.01069"></path>
<path d="M0.586 0.651 Q0.968 0.536 0.827 0.324" stroke="hsl(180.0,100%,35%)" stroke-width="0.00178"></path>
<path d="M0.586 0.651 Q0.474 0.528 0.210 0.556" stroke="hsl(180.0,100%,35%)" stroke-width="0.00178"></path>
<path d="M0.746 0.505 Q0.549 0.546 0.586 0.651" stroke="hsl(180.0,100%,35%)" stroke-width="0.00713"></path>
<path d="M0.746 0.505 Q0.437 0.423 0.210 0.556" stroke="hsl(180.0,100%,35%)" stroke-width="0.00535"></path>
<path d="M0.746 0.505 Q1.043 0.563 1.222 0.431" stroke="hsl(180.0,100%,35%)" stroke-width="0.00356"></path>
<path d="M1.510 0.441 Q1.510 0.186 1.013 0.130" stroke="hsl(0.0,100%,35%)" stroke-width="0.00535"></path>
<path d="M1.510 0.441 Q0.768 0.238 0.210 0.556" stroke="hsl(0.0,100%,35%)" stroke-width="0.00178"></path>
<path d="M1.510 0.441 Q1.262 0.246 0.827 0.324" stroke="hsl(0.0,100%,35%)" stroke-width="0.00178"></path>
<path d="M1.321 0.672 Q1.626 0.730 1.806 0.594" stroke="hsl(180.0,100%,35%)" stroke-width="0.00178"></path>
<path d="M1.321 0.672 Q1.167 0.474 0.746 0.505" stroke="hsl(180.0,100%,35%)" stroke-width="0.00178"></path>
<path d="M1.321 0.672 Q1.464 0.532 1.222 0.431" stroke="hsl(180.0,100%,35%)" stroke-width="0.00178"></path>
<path d="M1.697 0.355 Q1.535 0.361 1.510 0.441" stroke="hsl(0.0,100%,35%)" stroke-width="0.00535"></path>
<path d="M1.697 0.355 Q1.535 0.106 1.013 0.130" stroke="hsl(0.0,100%,35%)" stroke-width="0.00178"></path>
<path d="M1.697 0.355 Q0.793 0.158 0.210 0.556" stroke="hsl(0.0,100%,35%)" stroke-width="0.00356"></path>
<path d="M1.532 0.584 Q1.499 0.446 1.222 0.431" stroke="hsl(180.0,100%,35%)" stroke-width="0.03207"></path>
<path d="M1.532 0.584 Q1.387 0.313 0.827 0.324" stroke="hsl(180.0,100%,35%)" stroke-width="0.01425"></path>
<path d="M1.532 0.584 Q1.661 0.644 1.806 0.594" stroke="hsl(180.0,100%,35%)" stroke-width="0.00356"></path>
<path d="M1.532 0.584 Q0.893 0.305 0.210 0.556" stroke="hsl(180.0,100%,35%)" stroke-width="0.02138"></path>
<path d="M1.532 0.584 Q1.441 0.654 1.558 0.714" stroke="hsl(180.0,100%,35%)" stroke-width="0.00178"></path>
<path d="M1.532 0.584 Q1.202 0.387 0.746 0.505" stroke="hsl(180.0,100%,35%)" stroke-width="0.00178"></path>
<path d="M1.532 0.584 Q1.932 0.524 1.903 0.316" stroke="hsl(180.0,100%,35%)" stroke-width="0.00178"></path>
<path d="M0.608 0.439 Q0.536 0.327 0.301 0.337" stroke="hsl(180.0,100%,35%)" stroke-width="0.00356"></path>
<path d="M0.608 0.439 Q0.921 0.558 1.222 0.431" stroke="hsl(180.0,100%,35%)" stroke-width="0.00178"></path>
<path d="M0.608 0.439 Q0.315 0.418 0.210 0.556" stroke="hsl(180.0,100%,35%)" stroke-width="0.00178"></path>
<path d="M0.301 0.337 Q0.080 0.428 0.210 0.556" stroke="hsl(180.0,100%,35%)" stroke-width="0.00713"></path>
<path d="M0.301 0.337 Q0.686 0.568 1.222 0.431" stroke="hsl(180.0,100%,35%)" stroke-width="0.00713"></path>
<path d="M0.301 0.337 Q0.574 0.436 0.827 0.324" stroke="hsl(180.0,100%,35%)" stroke-width="0.00178"></path>
</g>
<text x="1.343" y="0.141" font-size="0.034572" fill="hsl(0.0,100%,20%)">amaiorano</text>
<text x="0.827" y="0.280" font-size="0.089710" fill="hsl(0.0,100%,20%)">bclayton</text>
<text x="1.222" y="0.390" font-size="0.082298" fill="hsl(180.0,100%,20%)">cwallez</text>
<text x="1.903" y="0.291" font-size="0.048892" fill="hsl(0.0,100%,20%)">jrprice</text>
<text x="0.210" y="0.527" font-size="0.058535" fill="hsl(180.0,100%,20%)">enga</text>
<text x="1.273" y="0.846" font-size="0.043730" fill="hsl(180.0,100%,20%)">arthursonzogni</text>
<text x="0.895" y="0.697" font-size="0.008926" fill="hsl(180.0,100%,20%)">khaslett</text>
<text x="1.013" y="0.098" font-size="0.064985" fill="hsl(0.0,100%,20%)">dsinclair</text>
<text x="0.586" y="0.631" font-size="0.040906" fill="hsl(180.0,100%,20%)">kainino</text>
<text x="1.027" y="0.228" font-size="0.029606" fill="hsl(0.0,100%,20%)">dneto</text>
<text x="0.746" y="0.481" font-size="0.048892" fill="hsl(180.0,100%,20%)">lokokung</text>
<text x="1.806" y="0.585" font-size="0.017853" fill="hsl(180.0,100%,20%)">bajones</text>
<text x="1.510" y="0.426" font-size="0.030922" fill="hsl(0.0,100%,20%)">senorblanco</text>
<text x="1.295" y="0.494" font-size="0.008926" fill="hsl(180.0,100%,20%)">fhorschig</text>
<text x="1.321" y="0.663" font-size="0.017853" fill="hsl(180.0,100%,20%)">gman</text>
<text x="1.697" y="0.343" font-size="0.025248" fill="hsl(0.0,100%,20%)">shrekshao</text>
<text x="1.532" y="0.555" font-size="0.058535" fill="hsl(180.0,100%,20%)">jiawei.shao</text>
<text x="1.558" y="0.710" font-size="0.008926" fill="hsl(180.0,100%,20%)">rharrison</text>
<text x="0.608" y="0.430" font-size="0.017853" fill="hsl(180.0,100%,20%)">jie.a.chen</text>
<text x="0.301" y="0.322" font-size="0.029606" fill="hsl(180.0,100%,20%)">penghuang</text>
</svg>
