<svg width="4000" height="2000" viewBox="-0.025 -0.025 2.05 1.05" xmlns="http://www.w3.org/2000/svg">
  <style>
    path {
      fill: none;
      stroke-linecap: round;
      stroke-opacity: 0.4;
    }

    text {
      text-anchor: middle;
      alignment-baseline: hanging;
    }
  </style>
  <g opacity="0.4">
<path d="M0.401 0.191 Q0.174 0.299 0.334 0.433" stroke="hsl(0.0,100%,35%)" stroke-width="0.00957"></path>
<path d="M0.401 0.191 Q0.033 0.389 0.339 0.613" stroke="hsl(0.0,100%,35%)" stroke-width="0.00758"></path>
<path d="M0.401 0.191 Q-0.111 0.367 0.119 0.655" stroke="hsl(0.0,100%,35%)" stroke-width="0.00279"></path>
<path d="M0.401 0.191 Q0.196 0.189 0.146 0.288" stroke="hsl(0.0,100%,35%)" stroke-width="0.00120"></path>
<path d="M0.401 0.191 Q0.550 0.521 1.225 0.521" stroke="hsl(0.0,100%,35%)" stroke-width="0.00080"></path>
<path d="M0.401 0.191 Q0.469 0.262 0.622 0.245" stroke="hsl(0.0,100%,35%)" stroke-width="0.00359"></path>
<path d="M0.334 0.433 Q0.561 0.326 0.401 0.191" stroke="hsl(0.0,100%,35%)" stroke-width="0.02114"></path>
<path d="M0.334 0.433 Q0.356 0.323 0.146 0.288" stroke="hsl(0.0,100%,35%)" stroke-width="0.04667"></path>
<path d="M0.334 0.433 Q0.049 0.501 0.119 0.655" stroke="hsl(0.0,100%,35%)" stroke-width="0.01835"></path>
<path d="M0.334 0.433 Q0.466 0.554 0.731 0.517" stroke="hsl(0.0,100%,35%)" stroke-width="0.00439"></path>
<path d="M0.334 0.433 Q0.628 0.397 0.622 0.245" stroke="hsl(0.0,100%,35%)" stroke-width="0.04707"></path>
<path d="M0.334 0.433 Q0.710 0.655 1.225 0.521" stroke="hsl(0.0,100%,35%)" stroke-width="0.00080"></path>
<path d="M0.334 0.433 Q0.119 0.538 0.277 0.666" stroke="hsl(0.0,100%,35%)" stroke-width="0.00040"></path>
<path d="M0.334 0.433 Q0.193 0.524 0.339 0.613" stroke="hsl(0.0,100%,35%)" stroke-width="0.00997"></path>
<path d="M0.334 0.433 Q0.389 0.494 0.520 0.481" stroke="hsl(0.0,100%,35%)" stroke-width="0.00040"></path>
<path d="M0.334 0.433 Q0.603 0.654 1.093 0.572" stroke="hsl(0.0,100%,35%)" stroke-width="0.00080"></path>
<path d="M0.334 0.433 Q0.678 0.494 0.872 0.340" stroke="hsl(0.0,100%,35%)" stroke-width="0.00080"></path>
<path d="M0.334 0.433 Q1.082 0.509 1.393 0.160" stroke="hsl(0.0,100%,35%)" stroke-width="0.00040"></path>
<path d="M0.334 0.433 Q0.198 0.650 0.592 0.764" stroke="hsl(0.0,100%,35%)" stroke-width="0.00040"></path>
<path d="M0.339 0.613 Q0.518 0.717 0.761 0.653" stroke="hsl(180.0,100%,35%)" stroke-width="0.01556"></path>
<path d="M0.339 0.613 Q0.856 0.744 1.225 0.521" stroke="hsl(180.0,100%,35%)" stroke-width="0.00558"></path>
<path d="M0.339 0.613 Q0.195 0.590 0.119 0.655" stroke="hsl(180.0,100%,35%)" stroke-width="0.00758"></path>
<path d="M0.339 0.613 Q0.997 0.648 1.209 0.335" stroke="hsl(180.0,100%,35%)" stroke-width="0.00040"></path>
<path d="M0.339 0.613 Q0.708 0.414 0.401 0.191" stroke="hsl(180.0,100%,35%)" stroke-width="0.00120"></path>
<path d="M0.339 0.613 Q0.749 0.743 1.093 0.572" stroke="hsl(180.0,100%,35%)" stroke-width="0.00160"></path>
<path d="M0.339 0.613 Q0.775 0.485 0.622 0.245" stroke="hsl(180.0,100%,35%)" stroke-width="0.00120"></path>
<path d="M0.339 0.613 Q0.480 0.522 0.334 0.433" stroke="hsl(180.0,100%,35%)" stroke-width="0.00239"></path>
<path d="M0.339 0.613 Q0.330 0.503 0.113 0.484" stroke="hsl(180.0,100%,35%)" stroke-width="0.00080"></path>
<path d="M0.339 0.613 Q0.502 0.412 0.146 0.288" stroke="hsl(180.0,100%,35%)" stroke-width="0.00040"></path>
<path d="M0.339 0.613 Q0.663 0.920 1.333 0.829" stroke="hsl(180.0,100%,35%)" stroke-width="0.00040"></path>
<path d="M0.339 0.613 Q0.159 0.674 0.238 0.775" stroke="hsl(180.0,100%,35%)" stroke-width="0.00080"></path>
<path d="M0.339 0.613 Q1.228 0.597 1.393 0.160" stroke="hsl(180.0,100%,35%)" stroke-width="0.00120"></path>
<path d="M0.339 0.613 Q0.266 0.664 0.350 0.711" stroke="hsl(180.0,100%,35%)" stroke-width="0.00040"></path>
<path d="M0.339 0.613 Q0.824 0.583 0.872 0.340" stroke="hsl(180.0,100%,35%)" stroke-width="0.00040"></path>
<path d="M0.119 0.655 Q0.404 0.587 0.334 0.433" stroke="hsl(180.0,100%,35%)" stroke-width="0.01516"></path>
<path d="M0.119 0.655 Q0.699 0.550 0.622 0.245" stroke="hsl(180.0,100%,35%)" stroke-width="0.00120"></path>
<path d="M0.119 0.655 Q0.442 0.782 0.761 0.653" stroke="hsl(180.0,100%,35%)" stroke-width="0.01595"></path>
<path d="M0.119 0.655 Q0.263 0.678 0.339 0.613" stroke="hsl(180.0,100%,35%)" stroke-width="0.02752"></path>
<path d="M0.119 0.655 Q1.152 0.663 1.393 0.160" stroke="hsl(180.0,100%,35%)" stroke-width="0.00080"></path>
<path d="M0.119 0.655 Q0.241 0.578 0.117 0.501" stroke="hsl(180.0,100%,35%)" stroke-width="0.00040"></path>
<path d="M0.119 0.655 Q0.189 0.692 0.277 0.666" stroke="hsl(180.0,100%,35%)" stroke-width="0.00080"></path>
<path d="M0.119 0.655 Q0.780 0.809 1.225 0.521" stroke="hsl(180.0,100%,35%)" stroke-width="0.00120"></path>
<path d="M0.119 0.655 Q0.673 0.808 1.093 0.572" stroke="hsl(180.0,100%,35%)" stroke-width="0.00160"></path>
<path d="M0.119 0.655 Q0.313 0.599 0.245 0.492" stroke="hsl(180.0,100%,35%)" stroke-width="0.00040"></path>
<path d="M0.119 0.655 Q0.631 0.479 0.401 0.191" stroke="hsl(180.0,100%,35%)" stroke-width="0.00040"></path>
<path d="M0.119 0.655 Q0.587 0.985 1.333 0.829" stroke="hsl(180.0,100%,35%)" stroke-width="0.00040"></path>
<path d="M0.119 0.655 Q0.253 0.568 0.113 0.484" stroke="hsl(180.0,100%,35%)" stroke-width="0.00120"></path>
<path d="M0.119 0.655 Q0.196 0.594 0.093 0.543" stroke="hsl(180.0,100%,35%)" stroke-width="0.00040"></path>
<path d="M0.119 0.655 Q0.748 0.648 0.872 0.340" stroke="hsl(180.0,100%,35%)" stroke-width="0.00040"></path>
<path d="M0.146 0.288 Q0.124 0.398 0.334 0.433" stroke="hsl(0.0,100%,35%)" stroke-width="0.02872"></path>
<path d="M0.146 0.288 Q0.256 0.520 0.731 0.517" stroke="hsl(0.0,100%,35%)" stroke-width="0.00678"></path>
<path d="M0.146 0.288 Q0.351 0.291 0.401 0.191" stroke="hsl(0.0,100%,35%)" stroke-width="0.00120"></path>
<path d="M0.146 0.288 Q0.419 0.362 0.622 0.245" stroke="hsl(0.0,100%,35%)" stroke-width="0.00439"></path>
<path d="M0.146 0.288 Q0.393 0.620 1.093 0.572" stroke="hsl(0.0,100%,35%)" stroke-width="0.00120"></path>
<path d="M0.146 0.288 Q-0.161 0.466 0.119 0.655" stroke="hsl(0.0,100%,35%)" stroke-width="0.00160"></path>
<path d="M0.146 0.288 Q-0.017 0.489 0.339 0.613" stroke="hsl(0.0,100%,35%)" stroke-width="0.00199"></path>
<path d="M0.146 0.288 Q-0.198 0.550 0.238 0.775" stroke="hsl(0.0,100%,35%)" stroke-width="0.00040"></path>
<path d="M0.146 0.288 Q0.274 0.471 0.659 0.449" stroke="hsl(0.0,100%,35%)" stroke-width="0.00040"></path>
<path d="M1.225 0.521 Q0.565 0.367 0.119 0.655" stroke="hsl(180.0,100%,35%)" stroke-width="0.00439"></path>
<path d="M1.225 0.521 Q0.887 0.494 0.761 0.653" stroke="hsl(180.0,100%,35%)" stroke-width="0.00479"></path>
<path d="M1.225 0.521 Q0.709 0.390 0.339 0.613" stroke="hsl(180.0,100%,35%)" stroke-width="0.00399"></path>
<path d="M1.225 0.521 Q0.850 0.299 0.334 0.433" stroke="hsl(180.0,100%,35%)" stroke-width="0.00040"></path>
<path d="M1.225 0.521 Q0.636 0.441 0.350 0.711" stroke="hsl(180.0,100%,35%)" stroke-width="0.00040"></path>
<path d="M1.225 0.521 Q1.366 0.424 1.209 0.335" stroke="hsl(180.0,100%,35%)" stroke-width="0.00040"></path>
<path d="M0.622 0.245 Q0.327 0.281 0.334 0.433" stroke="hsl(0.0,100%,35%)" stroke-width="0.03789"></path>
<path d="M0.622 0.245 Q0.555 0.174 0.401 0.191" stroke="hsl(0.0,100%,35%)" stroke-width="0.00319"></path>
<path d="M0.622 0.245 Q1.075 0.357 1.393 0.160" stroke="hsl(0.0,100%,35%)" stroke-width="0.00160"></path>
<path d="M0.622 0.245 Q0.843 0.407 1.209 0.335" stroke="hsl(0.0,100%,35%)" stroke-width="0.00040"></path>
<path d="M0.622 0.245 Q0.005 0.433 0.238 0.775" stroke="hsl(0.0,100%,35%)" stroke-width="0.00040"></path>
<path d="M0.622 0.245 Q0.349 0.171 0.146 0.288" stroke="hsl(0.0,100%,35%)" stroke-width="0.01077"></path>
<path d="M0.622 0.245 Q0.042 0.349 0.119 0.655" stroke="hsl(0.0,100%,35%)" stroke-width="0.00319"></path>
<path d="M0.622 0.245 Q0.671 0.342 0.872 0.340" stroke="hsl(0.0,100%,35%)" stroke-width="0.00080"></path>
<path d="M0.622 0.245 Q0.186 0.372 0.339 0.613" stroke="hsl(0.0,100%,35%)" stroke-width="0.00199"></path>
<path d="M0.622 0.245 Q0.703 0.503 1.225 0.521" stroke="hsl(0.0,100%,35%)" stroke-width="0.00080"></path>
<path d="M0.046 0.439 Q0.194 0.494 0.334 0.433" stroke="hsl(180.0,100%,35%)" stroke-width="0.00080"></path>
<path d="M0.046 0.439 Q-0.090 0.562 0.119 0.655" stroke="hsl(180.0,100%,35%)" stroke-width="0.00080"></path>
<path d="M0.277 0.666 Q0.206 0.629 0.119 0.655" stroke="hsl(180.0,100%,35%)" stroke-width="0.00917"></path>
<path d="M0.277 0.666 Q0.350 0.652 0.339 0.613" stroke="hsl(180.0,100%,35%)" stroke-width="0.00080"></path>
<path d="M0.277 0.666 Q0.188 0.670 0.177 0.714" stroke="hsl(180.0,100%,35%)" stroke-width="0.00040"></path>
<path d="M0.277 0.666 Q0.491 0.561 0.334 0.433" stroke="hsl(180.0,100%,35%)" stroke-width="0.00279"></path>
<path d="M1.489 0.388 Q0.591 0.247 0.119 0.655" stroke="hsl(180.0,100%,35%)" stroke-width="0.00080"></path>
<path d="M1.489 0.388 Q1.251 0.402 1.225 0.521" stroke="hsl(180.0,100%,35%)" stroke-width="0.00080"></path>
<path d="M1.489 0.388 Q1.392 0.305 1.209 0.335" stroke="hsl(180.0,100%,35%)" stroke-width="0.00040"></path>
<path d="M1.489 0.388 Q0.913 0.375 0.761 0.653" stroke="hsl(180.0,100%,35%)" stroke-width="0.00040"></path>
<path d="M1.489 0.388 Q0.875 0.180 0.334 0.433" stroke="hsl(180.0,100%,35%)" stroke-width="0.00040"></path>
<path d="M1.489 0.388 Q0.734 0.270 0.339 0.613" stroke="hsl(180.0,100%,35%)" stroke-width="0.00040"></path>
<path d="M1.209 0.335 Q0.552 0.300 0.339 0.613" stroke="hsl(180.0,100%,35%)" stroke-width="0.00758"></path>
<path d="M1.209 0.335 Q1.440 0.284 1.393 0.160" stroke="hsl(180.0,100%,35%)" stroke-width="0.00519"></path>
<path d="M1.209 0.335 Q0.987 0.172 0.622 0.245" stroke="hsl(180.0,100%,35%)" stroke-width="0.00080"></path>
<path d="M1.209 0.335 Q0.714 0.099 0.146 0.288" stroke="hsl(180.0,100%,35%)" stroke-width="0.00040"></path>
<path d="M1.209 0.335 Q1.068 0.431 1.225 0.521" stroke="hsl(180.0,100%,35%)" stroke-width="0.00040"></path>
<path d="M1.209 0.335 Q0.962 0.430 1.093 0.572" stroke="hsl(180.0,100%,35%)" stroke-width="0.00040"></path>
<path d="M1.209 0.335 Q0.730 0.404 0.761 0.653" stroke="hsl(180.0,100%,35%)" stroke-width="0.00080"></path>
<path d="M1.209 0.335 Q0.693 0.209 0.334 0.433" stroke="hsl(180.0,100%,35%)" stroke-width="0.00120"></path>
<path d="M1.209 0.335 Q0.408 0.277 0.119 0.655" stroke="hsl(180.0,100%,35%)" stroke-width="0.00040"></path>
<path d="M0.761 0.653 Q0.582 0.549 0.339 0.613" stroke="hsl(180.0,100%,35%)" stroke-width="0.01516"></path>
<path d="M0.761 0.653 Q1.099 0.680 1.225 0.521" stroke="hsl(180.0,100%,35%)" stroke-width="0.00439"></path>
<path d="M0.761 0.653 Q0.438 0.526 0.119 0.655" stroke="hsl(180.0,100%,35%)" stroke-width="0.00917"></path>
<path d="M0.761 0.653 Q0.402 0.609 0.238 0.775" stroke="hsl(180.0,100%,35%)" stroke-width="0.00040"></path>
<path d="M0.761 0.653 Q0.951 0.350 0.401 0.191" stroke="hsl(180.0,100%,35%)" stroke-width="0.00040"></path>
<path d="M0.761 0.653 Q0.862 0.673 0.923 0.628" stroke="hsl(180.0,100%,35%)" stroke-width="0.00040"></path>
<path d="M0.761 0.653 Q0.723 0.458 0.334 0.433" stroke="hsl(180.0,100%,35%)" stroke-width="0.00040"></path>
<path d="M0.761 0.653 Q0.992 0.679 1.093 0.572" stroke="hsl(180.0,100%,35%)" stroke-width="0.00080"></path>
<path d="M1.093 0.572 Q0.540 0.418 0.119 0.655" stroke="hsl(180.0,100%,35%)" stroke-width="0.00040"></path>
<path d="M1.093 0.572 Q0.683 0.441 0.339 0.613" stroke="hsl(180.0,100%,35%)" stroke-width="0.00439"></path>
<path d="M1.093 0.572 Q1.200 0.573 1.225 0.521" stroke="hsl(180.0,100%,35%)" stroke-width="0.00279"></path>
<path d="M1.093 0.572 Q0.862 0.546 0.761 0.653" stroke="hsl(180.0,100%,35%)" stroke-width="0.00080"></path>
<path d="M1.093 0.572 Q1.052 0.243 0.401 0.191" stroke="hsl(180.0,100%,35%)" stroke-width="0.00040"></path>
<path d="M1.093 0.572 Q0.956 0.472 0.731 0.517" stroke="hsl(180.0,100%,35%)" stroke-width="0.00040"></path>
<path d="M0.731 0.517 Q0.599 0.395 0.334 0.433" stroke="hsl(0.0,100%,35%)" stroke-width="0.00558"></path>
<path d="M0.731 0.517 Q0.621 0.285 0.146 0.288" stroke="hsl(0.0,100%,35%)" stroke-width="0.00399"></path>
<path d="M0.731 0.517 Q0.827 0.288 0.401 0.191" stroke="hsl(0.0,100%,35%)" stroke-width="0.00040"></path>
<path d="M0.731 0.517 Q0.749 0.469 0.659 0.449" stroke="hsl(0.0,100%,35%)" stroke-width="0.00080"></path>
<path d="M0.731 0.517 Q0.458 0.486 0.339 0.613" stroke="hsl(0.0,100%,35%)" stroke-width="0.00040"></path>
<path d="M0.731 0.517 Q0.894 0.359 0.622 0.245" stroke="hsl(0.0,100%,35%)" stroke-width="0.00160"></path>
<path d="M0.731 0.517 Q0.868 0.617 1.093 0.572" stroke="hsl(0.0,100%,35%)" stroke-width="0.00040"></path>
<path d="M0.872 0.340 Q0.387 0.370 0.339 0.613" stroke="hsl(0.0,100%,35%)" stroke-width="0.00040"></path>
<path d="M0.872 0.340 Q0.823 0.242 0.622 0.245" stroke="hsl(0.0,100%,35%)" stroke-width="0.00160"></path>
<path d="M0.872 0.340 Q0.528 0.279 0.334 0.433" stroke="hsl(0.0,100%,35%)" stroke-width="0.00040"></path>
<path d="M0.872 0.340 Q0.550 0.169 0.146 0.288" stroke="hsl(0.0,100%,35%)" stroke-width="0.00040"></path>
<path d="M1.393 0.160 Q0.645 0.085 0.334 0.433" stroke="hsl(180.0,100%,35%)" stroke-width="0.00479"></path>
<path d="M1.393 0.160 Q0.504 0.176 0.339 0.613" stroke="hsl(180.0,100%,35%)" stroke-width="0.00519"></path>
<path d="M1.393 0.160 Q0.940 0.048 0.622 0.245" stroke="hsl(180.0,100%,35%)" stroke-width="0.00239"></path>
<path d="M1.393 0.160 Q0.683 0.280 0.761 0.653" stroke="hsl(180.0,100%,35%)" stroke-width="0.00040"></path>
<path d="M1.393 0.160 Q0.914 0.306 1.093 0.572" stroke="hsl(180.0,100%,35%)" stroke-width="0.00040"></path>
<path d="M1.393 0.160 Q1.162 0.211 1.209 0.335" stroke="hsl(180.0,100%,35%)" stroke-width="0.00040"></path>
<path d="M1.393 0.160 Q0.324 0.237 0.238 0.775" stroke="hsl(180.0,100%,35%)" stroke-width="0.00080"></path>
<path d="M1.393 0.160 Q0.361 0.153 0.119 0.655" stroke="hsl(180.0,100%,35%)" stroke-width="0.00040"></path>
<path d="M1.393 0.160 Q1.021 0.307 1.225 0.521" stroke="hsl(180.0,100%,35%)" stroke-width="0.00040"></path>
<path d="M0.066 0.537 Q-0.002 0.607 0.119 0.655" stroke="hsl(180.0,100%,35%)" stroke-width="0.00798"></path>
<path d="M0.066 0.537 Q0.659 0.761 1.225 0.521" stroke="hsl(180.0,100%,35%)" stroke-width="0.00080"></path>
<path d="M0.066 0.537 Q0.142 0.630 0.339 0.613" stroke="hsl(180.0,100%,35%)" stroke-width="0.00239"></path>
<path d="M0.066 0.537 Q0.321 0.734 0.761 0.653" stroke="hsl(180.0,100%,35%)" stroke-width="0.00120"></path>
<path d="M0.135 1.153 Q0.525 0.901 0.119 0.655" stroke="hsl(180.0,100%,35%)" stroke-width="0.00040"></path>
<path d="M0.135 1.153 Q0.669 0.924 0.339 0.613" stroke="hsl(180.0,100%,35%)" stroke-width="0.00040"></path>
<path d="M0.135 1.153 Q0.810 0.833 0.334 0.433" stroke="hsl(180.0,100%,35%)" stroke-width="0.00080"></path>
<path d="M1.333 0.829 Q1.009 0.522 0.339 0.613" stroke="hsl(180.0,100%,35%)" stroke-width="0.00718"></path>
<path d="M1.333 0.829 Q0.865 0.499 0.119 0.655" stroke="hsl(180.0,100%,35%)" stroke-width="0.00359"></path>
<path d="M1.333 0.829 Q1.150 0.431 0.334 0.433" stroke="hsl(180.0,100%,35%)" stroke-width="0.00040"></path>
<path d="M1.333 0.829 Q1.188 0.627 0.761 0.653" stroke="hsl(180.0,100%,35%)" stroke-width="0.00040"></path>
<path d="M0.077 0.492 Q0.111 0.605 0.339 0.613" stroke="hsl(180.0,100%,35%)" stroke-width="0.00040"></path>
<path d="M0.077 0.492 Q0.252 0.514 0.334 0.433" stroke="hsl(180.0,100%,35%)" stroke-width="0.00040"></path>
<path d="M0.077 0.492 Q-0.033 0.582 0.119 0.655" stroke="hsl(180.0,100%,35%)" stroke-width="0.00040"></path>
<path d="M0.238 0.775 Q0.559 0.623 0.334 0.433" stroke="hsl(180.0,100%,35%)" stroke-width="0.00199"></path>
<path d="M0.238 0.775 Q0.597 0.819 0.761 0.653" stroke="hsl(180.0,100%,35%)" stroke-width="0.00199"></path>
<path d="M0.238 0.775 Q0.275 0.691 0.119 0.655" stroke="hsl(180.0,100%,35%)" stroke-width="0.00080"></path>
<path d="M0.238 0.775 Q0.828 0.845 1.093 0.572" stroke="hsl(180.0,100%,35%)" stroke-width="0.00160"></path>
<path d="M0.238 0.775 Q0.418 0.714 0.339 0.613" stroke="hsl(180.0,100%,35%)" stroke-width="0.00479"></path>
<path d="M0.238 0.775 Q1.307 0.699 1.393 0.160" stroke="hsl(180.0,100%,35%)" stroke-width="0.00160"></path>
<path d="M0.238 0.775 Q0.787 0.516 0.401 0.191" stroke="hsl(180.0,100%,35%)" stroke-width="0.00080"></path>
<path d="M0.238 0.775 Q0.935 0.845 1.225 0.521" stroke="hsl(180.0,100%,35%)" stroke-width="0.00040"></path>
<path d="M0.350 0.711 Q0.280 0.637 0.119 0.655" stroke="hsl(180.0,100%,35%)" stroke-width="0.02712"></path>
<path d="M0.350 0.711 Q0.423 0.660 0.339 0.613" stroke="hsl(180.0,100%,35%)" stroke-width="0.02074"></path>
<path d="M0.350 0.711 Q0.564 0.569 0.334 0.433" stroke="hsl(180.0,100%,35%)" stroke-width="0.00758"></path>
<path d="M0.350 0.711 Q0.602 0.764 0.761 0.653" stroke="hsl(180.0,100%,35%)" stroke-width="0.00040"></path>
<path d="M0.350 0.711 Q0.586 0.459 0.146 0.288" stroke="hsl(180.0,100%,35%)" stroke-width="0.00080"></path>
<path d="M0.350 0.711 Q0.833 0.790 1.093 0.572" stroke="hsl(180.0,100%,35%)" stroke-width="0.00080"></path>
<path d="M0.350 0.711 Q0.908 0.630 0.872 0.340" stroke="hsl(180.0,100%,35%)" stroke-width="0.00040"></path>
<path d="M0.350 0.711 Q0.696 0.690 0.731 0.517" stroke="hsl(180.0,100%,35%)" stroke-width="0.00199"></path>
<path d="M0.350 0.711 Q0.747 0.967 1.333 0.829" stroke="hsl(180.0,100%,35%)" stroke-width="0.00160"></path>
<path d="M0.350 0.711 Q0.517 0.654 0.441 0.560" stroke="hsl(180.0,100%,35%)" stroke-width="0.00040"></path>
<path d="M0.350 0.711 Q0.859 0.532 0.622 0.245" stroke="hsl(180.0,100%,35%)" stroke-width="0.00040"></path>
<path d="M0.187 0.650 Q0.471 0.766 0.761 0.653" stroke="hsl(180.0,100%,35%)" stroke-width="0.00040"></path>
<path d="M0.187 0.650 Q0.149 0.639 0.119 0.655" stroke="hsl(180.0,100%,35%)" stroke-width="0.00359"></path>
<path d="M0.187 0.650 Q0.293 0.662 0.339 0.613" stroke="hsl(180.0,100%,35%)" stroke-width="0.00359"></path>
<path d="M0.605 0.676 Q0.522 0.591 0.339 0.613" stroke="hsl(180.0,100%,35%)" stroke-width="0.00160"></path>
<path d="M0.605 0.676 Q0.379 0.568 0.119 0.655" stroke="hsl(180.0,100%,35%)" stroke-width="0.00160"></path>
<path d="M0.605 0.676 Q0.720 0.633 0.662 0.567" stroke="hsl(180.0,100%,35%)" stroke-width="0.00080"></path>
<path d="M0.405 0.158 Q0.149 0.281 0.334 0.433" stroke="hsl(0.0,100%,35%)" stroke-width="0.00279"></path>
<path d="M0.405 0.158 Q0.377 0.174 0.401 0.191" stroke="hsl(0.0,100%,35%)" stroke-width="0.00040"></path>
<path d="M0.405 0.158 Q0.171 0.171 0.146 0.288" stroke="hsl(0.0,100%,35%)" stroke-width="0.00040"></path>
<path d="M0.405 0.158 Q0.493 0.342 0.872 0.340" stroke="hsl(0.0,100%,35%)" stroke-width="0.00040"></path>
<path d="M0.405 0.158 Q0.008 0.372 0.339 0.613" stroke="hsl(0.0,100%,35%)" stroke-width="0.00040"></path>
<path d="M0.544 0.520 Q0.367 0.525 0.339 0.613" stroke="hsl(180.0,100%,35%)" stroke-width="0.00040"></path>
<path d="M0.544 0.520 Q0.294 0.577 0.350 0.711" stroke="hsl(180.0,100%,35%)" stroke-width="0.00040"></path>
<path d="M0.544 0.520 Q0.223 0.502 0.119 0.655" stroke="hsl(180.0,100%,35%)" stroke-width="0.00040"></path>
<path d="M0.441 0.560 Q0.204 0.543 0.119 0.655" stroke="hsl(180.0,100%,35%)" stroke-width="0.00199"></path>
<path d="M0.441 0.560 Q0.347 0.566 0.339 0.613" stroke="hsl(180.0,100%,35%)" stroke-width="0.00199"></path>
<path d="M0.441 0.560 Q0.832 0.536 0.872 0.340" stroke="hsl(180.0,100%,35%)" stroke-width="0.00040"></path>
<path d="M0.441 0.560 Q0.526 0.670 0.761 0.653" stroke="hsl(180.0,100%,35%)" stroke-width="0.00040"></path>
<path d="M0.441 0.560 Q0.510 0.365 0.146 0.288" stroke="hsl(180.0,100%,35%)" stroke-width="0.00040"></path>
<path d="M0.954 0.954 Q1.244 0.967 1.333 0.829" stroke="hsl(180.0,100%,35%)" stroke-width="0.00160"></path>
<path d="M0.954 0.954 Q0.776 0.637 0.119 0.655" stroke="hsl(180.0,100%,35%)" stroke-width="0.00160"></path>
<path d="M0.954 0.954 Q0.920 0.660 0.339 0.613" stroke="hsl(180.0,100%,35%)" stroke-width="0.00239"></path>
<path d="M0.490 0.717 Q0.354 0.612 0.119 0.655" stroke="hsl(180.0,100%,35%)" stroke-width="0.00040"></path>
<path d="M0.490 0.717 Q0.498 0.634 0.339 0.613" stroke="hsl(180.0,100%,35%)" stroke-width="0.00080"></path>
<path d="M0.490 0.717 Q0.696 0.676 0.662 0.567" stroke="hsl(180.0,100%,35%)" stroke-width="0.00040"></path>
<path d="M0.552 0.519 Q0.370 0.523 0.339 0.613" stroke="hsl(180.0,100%,35%)" stroke-width="0.00040"></path>
<path d="M0.552 0.519 Q0.549 0.628 0.761 0.653" stroke="hsl(180.0,100%,35%)" stroke-width="0.00120"></path>
<path d="M0.552 0.519 Q0.511 0.432 0.334 0.433" stroke="hsl(180.0,100%,35%)" stroke-width="0.00120"></path>
<path d="M0.552 0.519 Q0.739 0.325 0.401 0.191" stroke="hsl(180.0,100%,35%)" stroke-width="0.00040"></path>
<path d="M0.552 0.519 Q0.227 0.500 0.119 0.655" stroke="hsl(180.0,100%,35%)" stroke-width="0.00199"></path>
<path d="M0.062 0.733 Q0.153 0.706 0.119 0.655" stroke="hsl(180.0,100%,35%)" stroke-width="0.00080"></path>
<path d="M0.062 0.733 Q0.297 0.729 0.339 0.613" stroke="hsl(180.0,100%,35%)" stroke-width="0.00040"></path>
<path d="M0.062 0.733 Q0.287 0.619 0.113 0.484" stroke="hsl(180.0,100%,35%)" stroke-width="0.00040"></path>
<path d="M1.005 0.186 Q1.070 0.160 1.032 0.122" stroke="hsl(180.0,100%,35%)" stroke-width="0.00040"></path>
<path d="M1.005 0.186 Q0.331 0.266 0.339 0.613" stroke="hsl(180.0,100%,35%)" stroke-width="0.00080"></path>
<path d="M1.005 0.186 Q0.187 0.243 0.119 0.655" stroke="hsl(180.0,100%,35%)" stroke-width="0.00040"></path>
<path d="M1.005 0.186 Q0.699 0.068 0.401 0.191" stroke="hsl(180.0,100%,35%)" stroke-width="0.00080"></path>
<path d="M1.005 0.186 Q0.848 0.398 1.225 0.521" stroke="hsl(180.0,100%,35%)" stroke-width="0.00040"></path>
<path d="M1.005 0.186 Q0.472 0.175 0.334 0.433" stroke="hsl(180.0,100%,35%)" stroke-width="0.00040"></path>
</g>
<text x="0.401" y="0.170" font-size="0.041417" fill="hsl(0.0,100%,20%)">amaiorano</text>
<text x="0.334" y="0.387" font-size="0.092017" fill="hsl(0.0,100%,20%)">bclayton</text>
<text x="0.339" y="0.576" font-size="0.073246" fill="hsl(180.0,100%,20%)">enga</text>
<text x="0.119" y="0.618" font-size="0.074072" fill="hsl(180.0,100%,20%)">cwallez</text>
<text x="0.146" y="0.259" font-size="0.058468" fill="hsl(0.0,100%,20%)">jrprice</text>
<text x="1.225" y="0.505" font-size="0.032157" fill="hsl(180.0,100%,20%)">kainino</text>
<text x="0.622" y="0.214" font-size="0.061806" fill="hsl(0.0,100%,20%)">dsinclair</text>
<text x="0.046" y="0.435" font-size="0.006976" fill="hsl(180.0,100%,20%)">andre</text>
<text x="0.277" y="0.655" font-size="0.020927" fill="hsl(180.0,100%,20%)">arthursonzogni</text>
<text x="0.177" y="0.713" font-size="0.003488" fill="hsl(180.0,100%,20%)">khaslett</text>
<text x="1.489" y="0.383" font-size="0.009865" fill="hsl(180.0,100%,20%)">austineng</text>
<text x="1.209" y="0.323" font-size="0.024165" fill="hsl(180.0,100%,20%)">shrekshao</text>
<text x="0.761" y="0.629" font-size="0.048077" fill="hsl(180.0,100%,20%)">lokokung</text>
<text x="1.093" y="0.560" font-size="0.023912" fill="hsl(180.0,100%,20%)">bajones</text>
<text x="0.731" y="0.502" font-size="0.028550" fill="hsl(0.0,100%,20%)">dneto</text>
<text x="0.520" y="0.479" font-size="0.003488" fill="hsl(0.0,100%,20%)">brucedawson</text>
<text x="0.872" y="0.333" font-size="0.013952" fill="hsl(0.0,100%,20%)">rharrison</text>
<text x="1.393" y="0.146" font-size="0.028120" fill="hsl(180.0,100%,20%)">senorblanco</text>
<text x="0.592" y="0.762" font-size="0.003488" fill="hsl(0.0,100%,20%)">kjlubick</text>
<text x="0.066" y="0.527" font-size="0.019420" fill="hsl(180.0,100%,20%)">beaufort.francois</text>
<text x="0.135" y="1.150" font-size="0.006976" fill="hsl(180.0,100%,20%)">brandon1.jones</text>
<text x="0.117" y="0.500" font-size="0.003488" fill="hsl(180.0,100%,20%)">fhorschig</text>
<text x="0.245" y="0.490" font-size="0.003488" fill="hsl(180.0,100%,20%)">jamesgk</text>
<text x="1.333" y="0.818" font-size="0.021782" fill="hsl(180.0,100%,20%)">penghuang</text>
<text x="0.113" y="0.480" font-size="0.008544" fill="hsl(180.0,100%,20%)">lehoangquyen</text>
<text x="0.093" y="0.541" font-size="0.003488" fill="hsl(180.0,100%,20%)">fbeaufort</text>
<text x="0.077" y="0.489" font-size="0.006041" fill="hsl(180.0,100%,20%)">danakj</text>
<text x="0.659" y="0.446" font-size="0.006041" fill="hsl(0.0,100%,20%)">alanbaker</text>
<text x="0.238" y="0.764" font-size="0.022604" fill="hsl(180.0,100%,20%)">gman</text>
<text x="0.350" y="0.689" font-size="0.043981" fill="hsl(180.0,100%,20%)">jiawei.shao</text>
<text x="0.187" y="0.642" font-size="0.015203" fill="hsl(180.0,100%,20%)">hao.x.li</text>
<text x="0.605" y="0.670" font-size="0.011030" fill="hsl(180.0,100%,20%)">hitawala</text>
<text x="0.662" y="0.564" font-size="0.006041" fill="hsl(180.0,100%,20%)">sunnyps</text>
<text x="0.405" y="0.152" font-size="0.011568" fill="hsl(0.0,100%,20%)">jason.erb</text>
<text x="0.544" y="0.517" font-size="0.006041" fill="hsl(180.0,100%,20%)">jianlin.qiu</text>
<text x="0.441" y="0.553" font-size="0.013051" fill="hsl(180.0,100%,20%)">zhaoming.jiang</text>
<text x="0.954" y="0.947" font-size="0.013051" fill="hsl(180.0,100%,20%)">jie.a.chen</text>
<text x="0.923" y="0.626" font-size="0.003488" fill="hsl(180.0,100%,20%)">kbr</text>
<text x="0.490" y="0.713" font-size="0.006976" fill="hsl(180.0,100%,20%)">shaobo.yan</text>
<text x="0.552" y="0.513" font-size="0.012576" fill="hsl(180.0,100%,20%)">tiszka</text>
<text x="0.062" y="0.730" font-size="0.006976" fill="hsl(180.0,100%,20%)">vollick</text>
<text x="1.005" y="0.181" font-size="0.009865" fill="hsl(180.0,100%,20%)">ynovikov</text>
<text x="1.032" y="0.120" font-size="0.003488" fill="hsl(180.0,100%,20%)">bsheedy</text>
</svg>
