<svg width="4000" height="2000" viewBox="-0.025 -0.025 2.05 1.05" xmlns="http://www.w3.org/2000/svg">
  <style>
    path {
      fill: none;
      stroke-linecap: round;
      stroke-opacity: 0.4;
    }

    text {
      text-anchor: middle;
      alignment-baseline: hanging;
    }
  </style>
  <g opacity="0.4">
<path d="M1.353 0.276 Q1.232 0.355 1.359 0.431" stroke="hsl(0.0,100%,35%)" stroke-width="0.00196"></path>
<path d="M1.353 0.276 Q1.180 0.440 1.463 0.561" stroke="hsl(0.0,100%,35%)" stroke-width="0.00589"></path>
<path d="M1.353 0.276 Q1.126 0.117 0.765 0.192" stroke="hsl(0.0,100%,35%)" stroke-width="0.00196"></path>
<path d="M1.353 0.276 Q1.003 0.336 1.043 0.520" stroke="hsl(0.0,100%,35%)" stroke-width="0.00785"></path>
<path d="M1.359 0.431 Q1.307 0.517 1.463 0.561" stroke="hsl(0.0,100%,35%)" stroke-width="0.00982"></path>
<path d="M1.359 0.431 Q1.480 0.352 1.353 0.276" stroke="hsl(0.0,100%,35%)" stroke-width="0.01178"></path>
<path d="M1.359 0.431 Q1.130 0.412 1.043 0.520" stroke="hsl(0.0,100%,35%)" stroke-width="0.00196"></path>
<path d="M1.359 0.431 Q1.253 0.193 0.765 0.192" stroke="hsl(0.0,100%,35%)" stroke-width="0.00196"></path>
<path d="M1.359 0.431 Q1.522 0.189 1.087 0.057" stroke="hsl(0.0,100%,35%)" stroke-width="0.00196"></path>
<path d="M1.359 0.431 Q1.191 0.646 1.574 0.775" stroke="hsl(0.0,100%,35%)" stroke-width="0.00196"></path>
<path d="M1.359 0.431 Q1.102 0.510 1.200 0.653" stroke="hsl(0.0,100%,35%)" stroke-width="0.00393"></path>
<path d="M1.463 0.561 Q1.636 0.396 1.353 0.276" stroke="hsl(0.0,100%,35%)" stroke-width="0.03534"></path>
<path d="M1.463 0.561 Q1.409 0.237 0.765 0.192" stroke="hsl(0.0,100%,35%)" stroke-width="0.02356"></path>
<path d="M1.463 0.561 Q1.258 0.554 1.200 0.653" stroke="hsl(0.0,100%,35%)" stroke-width="0.01374"></path>
<path d="M1.463 0.561 Q1.720 0.468 1.596 0.323" stroke="hsl(0.0,100%,35%)" stroke-width="0.00982"></path>
<path d="M1.463 0.561 Q1.515 0.475 1.359 0.431" stroke="hsl(0.0,100%,35%)" stroke-width="0.02749"></path>
<path d="M1.463 0.561 Q1.612 0.637 1.793 0.581" stroke="hsl(0.0,100%,35%)" stroke-width="0.00196"></path>
<path d="M1.463 0.561 Q1.286 0.456 1.043 0.520" stroke="hsl(0.0,100%,35%)" stroke-width="0.01374"></path>
<path d="M0.765 0.192 Q0.117 0.443 0.465 0.815" stroke="hsl(180.0,100%,35%)" stroke-width="0.00785"></path>
<path d="M0.765 0.192 Q0.642 0.411 1.043 0.520" stroke="hsl(180.0,100%,35%)" stroke-width="0.01374"></path>
<path d="M0.765 0.192 Q1.035 0.189 1.087 0.057" stroke="hsl(180.0,100%,35%)" stroke-width="0.00196"></path>
<path d="M0.765 0.192 Q0.819 0.516 1.463 0.561" stroke="hsl(180.0,100%,35%)" stroke-width="0.00589"></path>
<path d="M0.765 0.192 Q0.632 0.162 0.544 0.220" stroke="hsl(180.0,100%,35%)" stroke-width="0.00196"></path>
<path d="M0.765 0.192 Q0.383 0.378 0.660 0.605" stroke="hsl(180.0,100%,35%)" stroke-width="0.00196"></path>
<path d="M1.043 0.520 Q0.518 0.551 0.465 0.815" stroke="hsl(180.0,100%,35%)" stroke-width="0.03142"></path>
<path d="M1.043 0.520 Q0.783 0.486 0.660 0.605" stroke="hsl(180.0,100%,35%)" stroke-width="0.00982"></path>
<path d="M1.043 0.520 Q1.272 0.538 1.359 0.431" stroke="hsl(180.0,100%,35%)" stroke-width="0.00196"></path>
<path d="M1.043 0.520 Q1.166 0.300 0.765 0.192" stroke="hsl(180.0,100%,35%)" stroke-width="0.00982"></path>
<path d="M1.200 0.653 Q1.405 0.659 1.463 0.561" stroke="hsl(0.0,100%,35%)" stroke-width="0.00785"></path>
<path d="M1.200 0.653 Q1.662 0.567 1.596 0.323" stroke="hsl(0.0,100%,35%)" stroke-width="0.00196"></path>
<path d="M1.200 0.653 Q1.351 0.336 0.765 0.192" stroke="hsl(0.0,100%,35%)" stroke-width="0.00196"></path>
<path d="M1.596 0.323 Q1.339 0.415 1.463 0.561" stroke="hsl(0.0,100%,35%)" stroke-width="0.00196"></path>
<path d="M1.596 0.323 Q1.162 0.311 1.043 0.520" stroke="hsl(0.0,100%,35%)" stroke-width="0.00196"></path>
<path d="M1.596 0.323 Q1.391 0.329 1.359 0.431" stroke="hsl(0.0,100%,35%)" stroke-width="0.00196"></path>
<path d="M0.861 0.382 Q0.583 0.453 0.660 0.605" stroke="hsl(180.0,100%,35%)" stroke-width="0.00393"></path>
<path d="M0.861 0.382 Q0.842 0.487 1.043 0.520" stroke="hsl(180.0,100%,35%)" stroke-width="0.03731"></path>
<path d="M0.861 0.382 Q1.071 0.506 1.359 0.431" stroke="hsl(180.0,100%,35%)" stroke-width="0.00196"></path>
<path d="M0.465 0.815 Q0.990 0.783 1.043 0.520" stroke="hsl(180.0,100%,35%)" stroke-width="0.03534"></path>
<path d="M0.465 0.815 Q0.730 0.749 0.660 0.605" stroke="hsl(180.0,100%,35%)" stroke-width="0.00589"></path>
<path d="M0.465 0.815 Q1.113 0.564 0.765 0.192" stroke="hsl(180.0,100%,35%)" stroke-width="0.00589"></path>
<path d="M0.465 0.815 Q0.715 0.869 0.876 0.759" stroke="hsl(180.0,100%,35%)" stroke-width="0.00393"></path>
<path d="M0.465 0.815 Q1.167 0.887 1.463 0.561" stroke="hsl(180.0,100%,35%)" stroke-width="0.00196"></path>
<path d="M0.368 0.562 Q0.500 0.524 0.455 0.451" stroke="hsl(180.0,100%,35%)" stroke-width="0.01178"></path>
<path d="M0.368 0.562 Q1.065 0.856 1.793 0.581" stroke="hsl(180.0,100%,35%)" stroke-width="0.00196"></path>
<path d="M0.368 0.562 Q0.739 0.676 1.043 0.520" stroke="hsl(180.0,100%,35%)" stroke-width="0.00393"></path>
<path d="M1.267 0.759 Q1.347 0.595 1.043 0.520" stroke="hsl(180.0,100%,35%)" stroke-width="0.00393"></path>
<path d="M1.267 0.759 Q1.470 0.375 0.765 0.192" stroke="hsl(180.0,100%,35%)" stroke-width="0.00196"></path>
<path d="M1.267 0.759 Q1.536 0.485 1.060 0.294" stroke="hsl(180.0,100%,35%)" stroke-width="0.00196"></path>
<path d="M1.060 0.294 Q0.994 0.184 0.765 0.192" stroke="hsl(180.0,100%,35%)" stroke-width="0.00785"></path>
<path d="M1.060 0.294 Q0.871 0.403 1.043 0.520" stroke="hsl(180.0,100%,35%)" stroke-width="0.00785"></path>
<path d="M0.876 0.759 Q0.912 0.521 0.455 0.451" stroke="hsl(180.0,100%,35%)" stroke-width="0.00785"></path>
<path d="M0.876 0.759 Q1.151 0.673 1.043 0.520" stroke="hsl(180.0,100%,35%)" stroke-width="0.00785"></path>
<path d="M0.876 0.759 Q1.328 0.777 1.463 0.561" stroke="hsl(180.0,100%,35%)" stroke-width="0.00196"></path>
</g>
<text x="1.353" y="0.249" font-size="0.054525" fill="hsl(0.0,100%,20%)">amaiorano</text>
<text x="1.359" y="0.403" font-size="0.056153" fill="hsl(0.0,100%,20%)">dsinclair</text>
<text x="1.463" y="0.518" font-size="0.085950" fill="hsl(0.0,100%,20%)">bclayton</text>
<text x="0.765" y="0.160" font-size="0.063671" fill="hsl(180.0,100%,20%)">cwallez</text>
<text x="1.043" y="0.473" font-size="0.092998" fill="hsl(180.0,100%,20%)">enga</text>
<text x="1.200" y="0.635" font-size="0.036761" fill="hsl(0.0,100%,20%)">jrprice</text>
<text x="1.596" y="0.309" font-size="0.028475" fill="hsl(0.0,100%,20%)">dneto</text>
<text x="1.793" y="0.575" font-size="0.013423" fill="hsl(180.0,100%,20%)">bajones</text>
<text x="0.861" y="0.360" font-size="0.044519" fill="hsl(180.0,100%,20%)">bsheedy</text>
<text x="0.660" y="0.589" font-size="0.031480" fill="hsl(180.0,100%,20%)">kainino</text>
<text x="0.465" y="0.782" font-size="0.065071" fill="hsl(180.0,100%,20%)">lokokung</text>
<text x="1.087" y="0.050" font-size="0.013423" fill="hsl(180.0,100%,20%)">rharrison</text>
<text x="0.544" y="0.215" font-size="0.009492" fill="hsl(180.0,100%,20%)">blundell</text>
<text x="1.574" y="0.770" font-size="0.009492" fill="hsl(0.0,100%,20%)">yiwzhang</text>
<text x="0.368" y="0.548" font-size="0.028475" fill="hsl(180.0,100%,20%)">gman</text>
<text x="0.455" y="0.436" font-size="0.030015" fill="hsl(180.0,100%,20%)">senorblanco</text>
<text x="1.267" y="0.750" font-size="0.018983" fill="hsl(180.0,100%,20%)">jie.a.chen</text>
<text x="1.060" y="0.280" font-size="0.028475" fill="hsl(180.0,100%,20%)">penghuang</text>
<text x="0.876" y="0.743" font-size="0.031480" fill="hsl(180.0,100%,20%)">shrekshao</text>
</svg>
