<svg width="4000" height="2000" viewBox="-0.025 -0.025 2.05 1.05" xmlns="http://www.w3.org/2000/svg">
  <style>
    path {
      fill: none;
      stroke-linecap: round;
      stroke-opacity: 0.4;
    }

    text {
      text-anchor: middle;
      alignment-baseline: hanging;
    }
  </style>
  <g opacity="0.4">
<path d="M0.642 0.148 Q0.300 0.234 0.394 0.420" stroke="hsl(0.0,100%,35%)" stroke-width="0.00145"></path>
<path d="M0.642 0.148 Q0.608 0.123 0.552 0.134" stroke="hsl(0.0,100%,35%)" stroke-width="0.00199"></path>
<path d="M0.642 0.148 Q0.246 0.162 0.187 0.357" stroke="hsl(0.0,100%,35%)" stroke-width="0.00023"></path>
<path d="M0.642 0.148 Q0.772 0.128 0.762 0.060" stroke="hsl(0.0,100%,35%)" stroke-width="0.00015"></path>
<path d="M0.394 0.420 Q0.341 0.347 0.187 0.357" stroke="hsl(0.0,100%,35%)" stroke-width="0.04024"></path>
<path d="M0.394 0.420 Q0.574 0.398 0.570 0.305" stroke="hsl(0.0,100%,35%)" stroke-width="0.04222"></path>
<path d="M0.394 0.420 Q0.476 0.330 0.319 0.270" stroke="hsl(0.0,100%,35%)" stroke-width="0.06482"></path>
<path d="M0.394 0.420 Q0.155 0.806 0.855 1.007" stroke="hsl(0.0,100%,35%)" stroke-width="0.02359"></path>
<path d="M0.394 0.420 Q0.584 0.426 0.636 0.334" stroke="hsl(0.0,100%,35%)" stroke-width="0.02871"></path>
<path d="M0.394 0.420 Q0.019 0.762 0.604 1.020" stroke="hsl(0.0,100%,35%)" stroke-width="0.00038"></path>
<path d="M0.394 0.420 Q0.257 0.755 0.881 0.896" stroke="hsl(0.0,100%,35%)" stroke-width="0.01153"></path>
<path d="M0.394 0.420 Q0.280 0.859 1.112 1.011" stroke="hsl(0.0,100%,35%)" stroke-width="0.00046"></path>
<path d="M0.394 0.420 Q0.702 0.309 0.552 0.134" stroke="hsl(0.0,100%,35%)" stroke-width="0.00382"></path>
<path d="M0.394 0.420 Q0.289 0.819 1.043 0.957" stroke="hsl(0.0,100%,35%)" stroke-width="0.00099"></path>
<path d="M0.394 0.420 Q0.465 0.752 1.128 0.791" stroke="hsl(0.0,100%,35%)" stroke-width="0.00015"></path>
<path d="M0.394 0.420 Q0.578 0.318 0.418 0.205" stroke="hsl(0.0,100%,35%)" stroke-width="0.00023"></path>
<path d="M0.394 0.420 Q0.545 0.356 0.452 0.268" stroke="hsl(0.0,100%,35%)" stroke-width="0.00053"></path>
<path d="M0.394 0.420 Q0.866 0.314 0.762 0.060" stroke="hsl(0.0,100%,35%)" stroke-width="0.00015"></path>
<path d="M0.394 0.420 Q0.661 0.358 0.598 0.214" stroke="hsl(0.0,100%,35%)" stroke-width="0.00015"></path>
<path d="M0.552 0.134 Q0.107 0.580 0.881 0.896" stroke="hsl(0.0,100%,35%)" stroke-width="0.00779"></path>
<path d="M0.552 0.134 Q0.326 0.155 0.319 0.270" stroke="hsl(0.0,100%,35%)" stroke-width="0.00672"></path>
<path d="M0.552 0.134 Q0.243 0.245 0.394 0.420" stroke="hsl(0.0,100%,35%)" stroke-width="0.00657"></path>
<path d="M0.552 0.134 Q0.424 0.223 0.570 0.305" stroke="hsl(0.0,100%,35%)" stroke-width="0.00145"></path>
<path d="M0.552 0.134 Q0.190 0.173 0.187 0.357" stroke="hsl(0.0,100%,35%)" stroke-width="0.00069"></path>
<path d="M0.552 0.134 Q0.433 0.251 0.636 0.334" stroke="hsl(0.0,100%,35%)" stroke-width="0.00183"></path>
<path d="M0.552 0.134 Q0.005 0.631 0.855 1.007" stroke="hsl(0.0,100%,35%)" stroke-width="0.00710"></path>
<path d="M0.552 0.134 Q0.585 0.159 0.642 0.148" stroke="hsl(0.0,100%,35%)" stroke-width="0.00023"></path>
<path d="M0.552 0.134 Q0.686 0.178 0.802 0.123" stroke="hsl(0.0,100%,35%)" stroke-width="0.00023"></path>
<path d="M0.552 0.134 Q0.394 0.181 0.452 0.268" stroke="hsl(0.0,100%,35%)" stroke-width="0.00015"></path>
<path d="M0.552 0.134 Q-0.131 0.587 0.604 1.020" stroke="hsl(0.0,100%,35%)" stroke-width="0.00183"></path>
<path d="M0.552 0.134 Q0.809 0.143 0.883 0.019" stroke="hsl(0.0,100%,35%)" stroke-width="0.00015"></path>
<path d="M0.187 0.357 Q0.240 0.430 0.394 0.420" stroke="hsl(0.0,100%,35%)" stroke-width="0.02542"></path>
<path d="M0.187 0.357 Q0.103 0.765 0.881 0.896" stroke="hsl(0.0,100%,35%)" stroke-width="0.00428"></path>
<path d="M0.187 0.357 Q0.001 0.816 0.855 1.007" stroke="hsl(0.0,100%,35%)" stroke-width="0.00183"></path>
<path d="M0.187 0.357 Q0.421 0.408 0.570 0.305" stroke="hsl(0.0,100%,35%)" stroke-width="0.00321"></path>
<path d="M0.187 0.357 Q-0.135 0.772 0.604 1.020" stroke="hsl(0.0,100%,35%)" stroke-width="0.00015"></path>
<path d="M0.187 0.357 Q0.323 0.340 0.319 0.270" stroke="hsl(0.0,100%,35%)" stroke-width="0.00313"></path>
<path d="M0.187 0.357 Q0.430 0.436 0.636 0.334" stroke="hsl(0.0,100%,35%)" stroke-width="0.00191"></path>
<path d="M0.187 0.357 Q0.548 0.318 0.552 0.134" stroke="hsl(0.0,100%,35%)" stroke-width="0.00023"></path>
<path d="M0.187 0.357 Q0.127 0.869 1.112 1.011" stroke="hsl(0.0,100%,35%)" stroke-width="0.00023"></path>
<path d="M0.762 0.060 Q0.598 0.055 0.552 0.134" stroke="hsl(0.0,100%,35%)" stroke-width="0.00031"></path>
<path d="M0.762 0.060 Q0.290 0.166 0.394 0.420" stroke="hsl(0.0,100%,35%)" stroke-width="0.00046"></path>
<path d="M0.762 0.060 Q0.632 0.080 0.642 0.148" stroke="hsl(0.0,100%,35%)" stroke-width="0.00015"></path>
<path d="M0.762 0.060 Q0.791 0.091 0.859 0.084" stroke="hsl(0.0,100%,35%)" stroke-width="0.00015"></path>
<path d="M0.762 0.060 Q0.480 0.172 0.636 0.334" stroke="hsl(0.0,100%,35%)" stroke-width="0.00015"></path>
<path d="M0.762 0.060 Q0.372 0.076 0.319 0.270" stroke="hsl(0.0,100%,35%)" stroke-width="0.00023"></path>
<path d="M0.666 1.019 Q0.769 1.051 0.855 1.007" stroke="hsl(180.0,100%,35%)" stroke-width="0.00046"></path>
<path d="M0.666 1.019 Q0.871 1.000 0.881 0.896" stroke="hsl(180.0,100%,35%)" stroke-width="0.00031"></path>
<path d="M0.666 1.019 Q1.091 0.575 0.319 0.270" stroke="hsl(180.0,100%,35%)" stroke-width="0.00015"></path>
<path d="M0.666 1.019 Q0.634 1.007 0.604 1.020" stroke="hsl(180.0,100%,35%)" stroke-width="0.00015"></path>
<path d="M0.855 1.007 Q1.094 0.621 0.394 0.420" stroke="hsl(180.0,100%,35%)" stroke-width="0.01596"></path>
<path d="M0.855 1.007 Q1.177 0.531 0.319 0.270" stroke="hsl(180.0,100%,35%)" stroke-width="0.00252"></path>
<path d="M0.855 1.007 Q1.027 0.840 0.739 0.720" stroke="hsl(180.0,100%,35%)" stroke-width="0.00855"></path>
<path d="M0.855 1.007 Q0.957 0.957 0.881 0.896" stroke="hsl(180.0,100%,35%)" stroke-width="0.05650"></path>
<path d="M0.855 1.007 Q0.989 1.020 1.043 0.957" stroke="hsl(180.0,100%,35%)" stroke-width="0.01267"></path>
<path d="M0.855 1.007 Q0.657 1.025 0.647 1.126" stroke="hsl(180.0,100%,35%)" stroke-width="0.00015"></path>
<path d="M0.855 1.007 Q0.720 0.963 0.604 1.020" stroke="hsl(180.0,100%,35%)" stroke-width="0.01932"></path>
<path d="M0.855 1.007 Q0.981 1.060 1.112 1.011" stroke="hsl(180.0,100%,35%)" stroke-width="0.00443"></path>
<path d="M0.855 1.007 Q1.041 0.549 0.187 0.357" stroke="hsl(180.0,100%,35%)" stroke-width="0.00031"></path>
<path d="M0.855 1.007 Q1.131 0.895 0.972 0.736" stroke="hsl(180.0,100%,35%)" stroke-width="0.00038"></path>
<path d="M0.855 1.007 Q1.062 0.995 1.083 0.891" stroke="hsl(180.0,100%,35%)" stroke-width="0.00023"></path>
<path d="M0.855 1.007 Q1.133 1.054 1.285 0.928" stroke="hsl(180.0,100%,35%)" stroke-width="0.00092"></path>
<path d="M0.855 1.007 Q0.961 0.869 0.714 0.787" stroke="hsl(180.0,100%,35%)" stroke-width="0.00038"></path>
<path d="M0.855 1.007 Q1.122 0.919 1.009 0.769" stroke="hsl(180.0,100%,35%)" stroke-width="0.00015"></path>
<path d="M0.855 1.007 Q1.275 0.599 0.570 0.305" stroke="hsl(180.0,100%,35%)" stroke-width="0.00031"></path>
<path d="M0.855 1.007 Q1.403 0.510 0.552 0.134" stroke="hsl(180.0,100%,35%)" stroke-width="0.00137"></path>
<path d="M0.855 1.007 Q1.207 0.945 1.162 0.760" stroke="hsl(180.0,100%,35%)" stroke-width="0.00023"></path>
<path d="M0.855 1.007 Q0.929 0.939 0.812 0.888" stroke="hsl(180.0,100%,35%)" stroke-width="0.00023"></path>
<path d="M0.855 1.007 Q0.846 0.931 0.694 0.918" stroke="hsl(180.0,100%,35%)" stroke-width="0.00382"></path>
<path d="M0.855 1.007 Q0.744 1.165 1.028 1.254" stroke="hsl(180.0,100%,35%)" stroke-width="0.00046"></path>
<path d="M0.855 1.007 Q1.284 0.627 0.636 0.334" stroke="hsl(180.0,100%,35%)" stroke-width="0.00061"></path>
<path d="M0.855 1.007 Q0.999 1.007 1.030 0.937" stroke="hsl(180.0,100%,35%)" stroke-width="0.00023"></path>
<path d="M0.855 1.007 Q0.934 0.820 0.586 0.741" stroke="hsl(180.0,100%,35%)" stroke-width="0.00069"></path>
<path d="M0.855 1.007 Q1.101 0.892 0.929 0.746" stroke="hsl(180.0,100%,35%)" stroke-width="0.00015"></path>
<path d="M0.855 1.007 Q0.933 0.840 0.625 0.766" stroke="hsl(180.0,100%,35%)" stroke-width="0.00015"></path>
<path d="M0.881 0.896 Q0.950 0.779 0.739 0.720" stroke="hsl(180.0,100%,35%)" stroke-width="0.01435"></path>
<path d="M0.881 0.896 Q0.643 0.902 0.604 1.020" stroke="hsl(180.0,100%,35%)" stroke-width="0.01558"></path>
<path d="M0.881 0.896 Q0.779 0.946 0.855 1.007" stroke="hsl(180.0,100%,35%)" stroke-width="0.03001"></path>
<path d="M0.881 0.896 Q0.884 0.808 0.714 0.787" stroke="hsl(180.0,100%,35%)" stroke-width="0.00206"></path>
<path d="M0.881 0.896 Q0.964 0.488 0.187 0.357" stroke="hsl(180.0,100%,35%)" stroke-width="0.00069"></path>
<path d="M0.881 0.896 Q0.904 0.999 1.112 1.011" stroke="hsl(180.0,100%,35%)" stroke-width="0.00221"></path>
<path d="M0.881 0.896 Q1.100 0.470 0.319 0.270" stroke="hsl(180.0,100%,35%)" stroke-width="0.00153"></path>
<path d="M0.881 0.896 Q1.018 0.561 0.394 0.420" stroke="hsl(180.0,100%,35%)" stroke-width="0.00534"></path>
<path d="M0.881 0.896 Q0.985 0.934 1.083 0.891" stroke="hsl(180.0,100%,35%)" stroke-width="0.00023"></path>
<path d="M0.881 0.896 Q1.198 0.538 0.570 0.305" stroke="hsl(180.0,100%,35%)" stroke-width="0.00061"></path>
<path d="M0.881 0.896 Q1.054 0.834 0.972 0.736" stroke="hsl(180.0,100%,35%)" stroke-width="0.00031"></path>
<path d="M0.881 0.896 Q1.127 0.932 1.252 0.820" stroke="hsl(180.0,100%,35%)" stroke-width="0.00031"></path>
<path d="M0.881 0.896 Q0.913 0.959 1.043 0.957" stroke="hsl(180.0,100%,35%)" stroke-width="0.00573"></path>
<path d="M0.881 0.896 Q0.769 0.870 0.694 0.918" stroke="hsl(180.0,100%,35%)" stroke-width="0.00344"></path>
<path d="M0.881 0.896 Q1.326 0.449 0.552 0.134" stroke="hsl(180.0,100%,35%)" stroke-width="0.00053"></path>
<path d="M0.881 0.896 Q1.042 0.743 0.778 0.630" stroke="hsl(180.0,100%,35%)" stroke-width="0.00023"></path>
<path d="M0.881 0.896 Q0.819 0.825 0.669 0.840" stroke="hsl(180.0,100%,35%)" stroke-width="0.00015"></path>
<path d="M0.881 0.896 Q1.217 0.925 1.348 0.768" stroke="hsl(180.0,100%,35%)" stroke-width="0.00023"></path>
<path d="M0.881 0.896 Q1.130 0.884 1.162 0.760" stroke="hsl(180.0,100%,35%)" stroke-width="0.00015"></path>
<path d="M0.881 0.896 Q1.265 0.890 1.338 0.701" stroke="hsl(180.0,100%,35%)" stroke-width="0.00031"></path>
<path d="M0.881 0.896 Q1.207 0.566 0.636 0.334" stroke="hsl(180.0,100%,35%)" stroke-width="0.00031"></path>
<path d="M0.881 0.896 Q1.024 0.831 0.929 0.746" stroke="hsl(180.0,100%,35%)" stroke-width="0.00053"></path>
<path d="M0.881 0.896 Q1.057 0.993 1.285 0.928" stroke="hsl(180.0,100%,35%)" stroke-width="0.00038"></path>
<path d="M0.881 0.896 Q1.142 0.749 0.913 0.589" stroke="hsl(180.0,100%,35%)" stroke-width="0.00015"></path>
<path d="M0.319 0.270 Q0.236 0.360 0.394 0.420" stroke="hsl(0.0,100%,35%)" stroke-width="0.05031"></path>
<path d="M0.319 0.270 Q0.183 0.287 0.187 0.357" stroke="hsl(0.0,100%,35%)" stroke-width="0.00527"></path>
<path d="M0.319 0.270 Q0.131 0.758 1.043 0.957" stroke="hsl(0.0,100%,35%)" stroke-width="0.00038"></path>
<path d="M0.319 0.270 Q0.417 0.338 0.570 0.305" stroke="hsl(0.0,100%,35%)" stroke-width="0.00901"></path>
<path d="M0.319 0.270 Q-0.003 0.746 0.855 1.007" stroke="hsl(0.0,100%,35%)" stroke-width="0.00680"></path>
<path d="M0.319 0.270 Q0.544 0.248 0.552 0.134" stroke="hsl(0.0,100%,35%)" stroke-width="0.00893"></path>
<path d="M0.319 0.270 Q0.099 0.695 0.881 0.896" stroke="hsl(0.0,100%,35%)" stroke-width="0.00145"></path>
<path d="M0.319 0.270 Q-0.139 0.702 0.604 1.020" stroke="hsl(0.0,100%,35%)" stroke-width="0.00038"></path>
<path d="M0.319 0.270 Q0.426 0.366 0.636 0.334" stroke="hsl(0.0,100%,35%)" stroke-width="0.02481"></path>
<path d="M0.319 0.270 Q0.387 0.296 0.452 0.268" stroke="hsl(0.0,100%,35%)" stroke-width="0.00435"></path>
<path d="M0.604 1.020 Q0.740 1.064 0.855 1.007" stroke="hsl(180.0,100%,35%)" stroke-width="0.00344"></path>
<path d="M0.604 1.020 Q0.911 0.897 0.739 0.720" stroke="hsl(180.0,100%,35%)" stroke-width="0.00137"></path>
<path d="M0.604 1.020 Q0.842 1.013 0.881 0.896" stroke="hsl(180.0,100%,35%)" stroke-width="0.00389"></path>
<path d="M0.604 1.020 Q0.979 0.678 0.394 0.420" stroke="hsl(180.0,100%,35%)" stroke-width="0.00015"></path>
<path d="M0.604 1.020 Q0.730 0.987 0.694 0.918" stroke="hsl(180.0,100%,35%)" stroke-width="0.00015"></path>
<path d="M0.604 1.020 Q0.865 1.117 1.112 1.011" stroke="hsl(180.0,100%,35%)" stroke-width="0.00015"></path>
<path d="M0.604 1.020 Q1.287 0.566 0.552 0.134" stroke="hsl(180.0,100%,35%)" stroke-width="0.00023"></path>
<path d="M0.604 1.020 Q1.061 0.588 0.319 0.270" stroke="hsl(180.0,100%,35%)" stroke-width="0.00023"></path>
<path d="M0.778 0.726 Q0.694 0.832 0.881 0.896" stroke="hsl(180.0,100%,35%)" stroke-width="0.00031"></path>
<path d="M0.778 0.726 Q0.592 0.882 0.855 1.007" stroke="hsl(180.0,100%,35%)" stroke-width="0.00031"></path>
<path d="M0.512 0.729 Q0.563 0.886 0.881 0.896" stroke="hsl(180.0,100%,35%)" stroke-width="0.00031"></path>
<path d="M0.512 0.729 Q0.633 0.770 0.739 0.720" stroke="hsl(180.0,100%,35%)" stroke-width="0.00015"></path>
<path d="M0.739 0.720 Q0.669 0.836 0.881 0.896" stroke="hsl(180.0,100%,35%)" stroke-width="0.01496"></path>
<path d="M0.739 0.720 Q0.431 0.843 0.604 1.020" stroke="hsl(180.0,100%,35%)" stroke-width="0.00176"></path>
<path d="M0.739 0.720 Q0.567 0.887 0.855 1.007" stroke="hsl(180.0,100%,35%)" stroke-width="0.00405"></path>
<path d="M0.739 0.720 Q0.806 0.501 0.394 0.420" stroke="hsl(180.0,100%,35%)" stroke-width="0.00053"></path>
<path d="M0.739 0.720 Q0.692 0.940 1.112 1.011" stroke="hsl(180.0,100%,35%)" stroke-width="0.00046"></path>
<path d="M0.739 0.720 Q0.672 0.748 0.714 0.787" stroke="hsl(180.0,100%,35%)" stroke-width="0.00122"></path>
<path d="M0.570 0.305 Q0.389 0.327 0.394 0.420" stroke="hsl(0.0,100%,35%)" stroke-width="0.03871"></path>
<path d="M0.570 0.305 Q0.579 0.333 0.636 0.334" stroke="hsl(0.0,100%,35%)" stroke-width="0.00366"></path>
<path d="M0.570 0.305 Q0.336 0.254 0.187 0.357" stroke="hsl(0.0,100%,35%)" stroke-width="0.00183"></path>
<path d="M0.570 0.305 Q0.472 0.237 0.319 0.270" stroke="hsl(0.0,100%,35%)" stroke-width="0.01015"></path>
<path d="M0.570 0.305 Q0.276 0.766 1.112 1.011" stroke="hsl(0.0,100%,35%)" stroke-width="0.00031"></path>
<path d="M0.570 0.305 Q0.150 0.713 0.855 1.007" stroke="hsl(0.0,100%,35%)" stroke-width="0.00160"></path>
<path d="M0.570 0.305 Q0.252 0.662 0.881 0.896" stroke="hsl(0.0,100%,35%)" stroke-width="0.00153"></path>
<path d="M0.570 0.305 Q0.656 0.265 0.598 0.214" stroke="hsl(0.0,100%,35%)" stroke-width="0.00015"></path>
<path d="M0.570 0.305 Q0.015 0.669 0.604 1.020" stroke="hsl(0.0,100%,35%)" stroke-width="0.00031"></path>
<path d="M0.570 0.305 Q0.540 0.263 0.452 0.268" stroke="hsl(0.0,100%,35%)" stroke-width="0.00015"></path>
<path d="M0.570 0.305 Q0.698 0.216 0.552 0.134" stroke="hsl(0.0,100%,35%)" stroke-width="0.00038"></path>
<path d="M0.636 0.334 Q0.447 0.329 0.394 0.420" stroke="hsl(0.0,100%,35%)" stroke-width="0.01107"></path>
<path d="M0.636 0.334 Q0.627 0.306 0.570 0.305" stroke="hsl(0.0,100%,35%)" stroke-width="0.00504"></path>
<path d="M0.636 0.334 Q0.393 0.256 0.187 0.357" stroke="hsl(0.0,100%,35%)" stroke-width="0.00122"></path>
<path d="M0.636 0.334 Q0.713 0.267 0.598 0.214" stroke="hsl(0.0,100%,35%)" stroke-width="0.00328"></path>
<path d="M0.636 0.334 Q0.310 0.664 0.881 0.896" stroke="hsl(0.0,100%,35%)" stroke-width="0.00046"></path>
<path d="M0.636 0.334 Q0.529 0.239 0.319 0.270" stroke="hsl(0.0,100%,35%)" stroke-width="0.01955"></path>
<path d="M0.636 0.334 Q0.208 0.715 0.855 1.007" stroke="hsl(0.0,100%,35%)" stroke-width="0.00038"></path>
<path d="M0.636 0.334 Q0.755 0.217 0.552 0.134" stroke="hsl(0.0,100%,35%)" stroke-width="0.00153"></path>
<path d="M0.636 0.334 Q0.597 0.264 0.452 0.268" stroke="hsl(0.0,100%,35%)" stroke-width="0.00046"></path>
<path d="M1.112 1.011 Q0.986 0.958 0.855 1.007" stroke="hsl(180.0,100%,35%)" stroke-width="0.00397"></path>
<path d="M1.112 1.011 Q1.088 0.907 0.881 0.896" stroke="hsl(180.0,100%,35%)" stroke-width="0.00618"></path>
<path d="M1.112 1.011 Q0.850 0.914 0.604 1.020" stroke="hsl(180.0,100%,35%)" stroke-width="0.00359"></path>
<path d="M1.112 1.011 Q1.158 0.791 0.739 0.720" stroke="hsl(180.0,100%,35%)" stroke-width="0.00031"></path>
<path d="M1.112 1.011 Q1.225 0.572 0.394 0.420" stroke="hsl(180.0,100%,35%)" stroke-width="0.00046"></path>
<path d="M1.112 1.011 Q1.092 0.819 0.714 0.787" stroke="hsl(180.0,100%,35%)" stroke-width="0.00038"></path>
<path d="M1.112 1.011 Q1.405 0.549 0.570 0.305" stroke="hsl(180.0,100%,35%)" stroke-width="0.00015"></path>
<path d="M1.009 0.769 Q0.843 0.807 0.881 0.896" stroke="hsl(180.0,100%,35%)" stroke-width="0.00176"></path>
<path d="M1.009 0.769 Q0.741 0.858 0.855 1.007" stroke="hsl(180.0,100%,35%)" stroke-width="0.00015"></path>
<path d="M1.009 0.769 Q0.927 0.399 0.187 0.357" stroke="hsl(180.0,100%,35%)" stroke-width="0.00015"></path>
<path d="M1.009 0.769 Q0.606 0.814 0.604 1.020" stroke="hsl(180.0,100%,35%)" stroke-width="0.00031"></path>
<path d="M1.009 0.769 Q0.980 0.472 0.394 0.420" stroke="hsl(180.0,100%,35%)" stroke-width="0.00015"></path>
<path d="M0.647 1.126 Q0.846 1.108 0.855 1.007" stroke="hsl(180.0,100%,35%)" stroke-width="0.00191"></path>
<path d="M0.647 1.126 Q0.948 1.057 0.881 0.896" stroke="hsl(180.0,100%,35%)" stroke-width="0.00015"></path>
<path d="M0.647 1.126 Q1.085 0.722 0.394 0.420" stroke="hsl(180.0,100%,35%)" stroke-width="0.00053"></path>
<path d="M1.065 1.158 Q1.081 1.041 0.855 1.007" stroke="hsl(180.0,100%,35%)" stroke-width="0.00015"></path>
<path d="M1.065 1.158 Q0.945 0.997 0.604 1.020" stroke="hsl(180.0,100%,35%)" stroke-width="0.00015"></path>
<path d="M0.714 0.787 Q0.710 0.875 0.881 0.896" stroke="hsl(180.0,100%,35%)" stroke-width="0.00664"></path>
<path d="M0.714 0.787 Q0.742 0.938 1.043 0.957" stroke="hsl(180.0,100%,35%)" stroke-width="0.00160"></path>
<path d="M0.714 0.787 Q0.930 0.449 0.319 0.270" stroke="hsl(180.0,100%,35%)" stroke-width="0.00023"></path>
<path d="M0.714 0.787 Q1.028 0.517 0.570 0.305" stroke="hsl(180.0,100%,35%)" stroke-width="0.00015"></path>
<path d="M0.714 0.787 Q0.473 0.881 0.604 1.020" stroke="hsl(180.0,100%,35%)" stroke-width="0.00076"></path>
<path d="M0.714 0.787 Q0.734 0.978 1.112 1.011" stroke="hsl(180.0,100%,35%)" stroke-width="0.00015"></path>
<path d="M0.714 0.787 Q0.780 0.758 0.739 0.720" stroke="hsl(180.0,100%,35%)" stroke-width="0.00099"></path>
<path d="M0.714 0.787 Q0.847 0.540 0.394 0.420" stroke="hsl(180.0,100%,35%)" stroke-width="0.00069"></path>
<path d="M0.714 0.787 Q0.608 0.925 0.855 1.007" stroke="hsl(180.0,100%,35%)" stroke-width="0.00153"></path>
<path d="M0.714 0.787 Q1.156 0.428 0.552 0.134" stroke="hsl(180.0,100%,35%)" stroke-width="0.00015"></path>
<path d="M0.632 0.821 Q0.697 0.908 0.881 0.896" stroke="hsl(180.0,100%,35%)" stroke-width="0.00015"></path>
<path d="M1.285 0.928 Q1.109 0.831 0.881 0.896" stroke="hsl(180.0,100%,35%)" stroke-width="0.00794"></path>
<path d="M1.285 0.928 Q1.007 0.882 0.855 1.007" stroke="hsl(180.0,100%,35%)" stroke-width="0.00855"></path>
<path d="M1.285 0.928 Q0.871 0.838 0.604 1.020" stroke="hsl(180.0,100%,35%)" stroke-width="0.00282"></path>
<path d="M1.285 0.928 Q0.998 0.805 0.694 0.918" stroke="hsl(180.0,100%,35%)" stroke-width="0.00061"></path>
<path d="M1.043 0.957 Q1.148 0.559 0.394 0.420" stroke="hsl(180.0,100%,35%)" stroke-width="0.00741"></path>
<path d="M1.043 0.957 Q1.011 0.894 0.881 0.896" stroke="hsl(180.0,100%,35%)" stroke-width="0.00893"></path>
<path d="M1.043 0.957 Q1.231 0.469 0.319 0.270" stroke="hsl(180.0,100%,35%)" stroke-width="0.00053"></path>
<path d="M1.043 0.957 Q1.081 0.777 0.739 0.720" stroke="hsl(180.0,100%,35%)" stroke-width="0.00031"></path>
<path d="M1.043 0.957 Q1.258 0.930 1.252 0.820" stroke="hsl(180.0,100%,35%)" stroke-width="0.00015"></path>
<path d="M1.043 0.957 Q0.909 0.945 0.855 1.007" stroke="hsl(180.0,100%,35%)" stroke-width="0.00573"></path>
<path d="M1.043 0.957 Q0.773 0.901 0.604 1.020" stroke="hsl(180.0,100%,35%)" stroke-width="0.00099"></path>
<path d="M1.043 0.957 Q1.338 0.564 0.636 0.334" stroke="hsl(180.0,100%,35%)" stroke-width="0.00023"></path>
<path d="M1.043 0.957 Q1.328 0.536 0.570 0.305" stroke="hsl(180.0,100%,35%)" stroke-width="0.00023"></path>
<path d="M0.694 0.918 Q0.704 0.995 0.855 1.007" stroke="hsl(180.0,100%,35%)" stroke-width="0.02390"></path>
<path d="M0.694 0.918 Q0.806 0.944 0.881 0.896" stroke="hsl(180.0,100%,35%)" stroke-width="0.02168"></path>
<path d="M0.694 0.918 Q0.943 0.609 0.394 0.420" stroke="hsl(180.0,100%,35%)" stroke-width="0.00244"></path>
<path d="M0.694 0.918 Q0.875 0.828 0.739 0.720" stroke="hsl(180.0,100%,35%)" stroke-width="0.00023"></path>
<path d="M0.694 0.918 Q1.123 0.587 0.570 0.305" stroke="hsl(180.0,100%,35%)" stroke-width="0.00015"></path>
<path d="M0.694 0.918 Q0.829 1.048 1.112 1.011" stroke="hsl(180.0,100%,35%)" stroke-width="0.00031"></path>
<path d="M0.694 0.918 Q1.251 0.497 0.552 0.134" stroke="hsl(180.0,100%,35%)" stroke-width="0.00031"></path>
<path d="M0.694 0.918 Q1.133 0.615 0.636 0.334" stroke="hsl(180.0,100%,35%)" stroke-width="0.00053"></path>
<path d="M0.694 0.918 Q0.979 0.883 0.972 0.736" stroke="hsl(180.0,100%,35%)" stroke-width="0.00031"></path>
<path d="M0.694 0.918 Q1.127 0.507 0.418 0.205" stroke="hsl(180.0,100%,35%)" stroke-width="0.00015"></path>
<path d="M0.694 0.918 Q1.190 0.939 1.338 0.701" stroke="hsl(180.0,100%,35%)" stroke-width="0.00015"></path>
<path d="M0.694 0.918 Q0.568 0.951 0.604 1.020" stroke="hsl(180.0,100%,35%)" stroke-width="0.00443"></path>
<path d="M0.694 0.918 Q0.838 1.008 1.043 0.957" stroke="hsl(180.0,100%,35%)" stroke-width="0.00023"></path>
<path d="M0.694 0.918 Q0.949 0.879 0.929 0.746" stroke="hsl(180.0,100%,35%)" stroke-width="0.00023"></path>
<path d="M1.128 0.791 Q0.818 0.844 0.855 1.007" stroke="hsl(180.0,100%,35%)" stroke-width="0.00412"></path>
<path d="M1.128 0.791 Q0.920 0.794 0.881 0.896" stroke="hsl(180.0,100%,35%)" stroke-width="0.00428"></path>
<path d="M1.128 0.791 Q1.057 0.459 0.394 0.420" stroke="hsl(180.0,100%,35%)" stroke-width="0.00191"></path>
<path d="M1.128 0.791 Q0.683 0.800 0.604 1.020" stroke="hsl(180.0,100%,35%)" stroke-width="0.00122"></path>
<path d="M1.128 0.791 Q1.305 0.788 1.338 0.701" stroke="hsl(180.0,100%,35%)" stroke-width="0.00076"></path>
<path d="M0.418 0.205 Q-0.005 0.694 0.855 1.007" stroke="hsl(180.0,100%,35%)" stroke-width="0.00275"></path>
<path d="M0.418 0.205 Q0.097 0.643 0.881 0.896" stroke="hsl(180.0,100%,35%)" stroke-width="0.00244"></path>
<path d="M0.418 0.205 Q0.542 0.196 0.552 0.134" stroke="hsl(180.0,100%,35%)" stroke-width="0.00023"></path>
<path d="M0.418 0.205 Q0.181 0.235 0.187 0.357" stroke="hsl(180.0,100%,35%)" stroke-width="0.00031"></path>
<path d="M0.418 0.205 Q0.234 0.308 0.394 0.420" stroke="hsl(180.0,100%,35%)" stroke-width="0.00344"></path>
<path d="M0.418 0.205 Q0.316 0.218 0.319 0.270" stroke="hsl(180.0,100%,35%)" stroke-width="0.00031"></path>
<path d="M0.418 0.205 Q0.424 0.313 0.636 0.334" stroke="hsl(180.0,100%,35%)" stroke-width="0.00015"></path>
<path d="M0.418 0.205 Q-0.141 0.650 0.604 1.020" stroke="hsl(180.0,100%,35%)" stroke-width="0.00046"></path>
<path d="M0.418 0.205 Q-0.014 0.617 0.694 0.918" stroke="hsl(180.0,100%,35%)" stroke-width="0.00023"></path>
<path d="M0.452 0.268 Q0.301 0.333 0.394 0.420" stroke="hsl(0.0,100%,35%)" stroke-width="0.00275"></path>
<path d="M0.452 0.268 Q0.248 0.260 0.187 0.357" stroke="hsl(0.0,100%,35%)" stroke-width="0.00115"></path>
<path d="M0.452 0.268 Q0.481 0.310 0.570 0.305" stroke="hsl(0.0,100%,35%)" stroke-width="0.00053"></path>
<path d="M0.452 0.268 Q-0.074 0.674 0.604 1.020" stroke="hsl(0.0,100%,35%)" stroke-width="0.00015"></path>
<path d="M0.452 0.268 Q0.384 0.242 0.319 0.270" stroke="hsl(0.0,100%,35%)" stroke-width="0.00267"></path>
<path d="M0.452 0.268 Q0.491 0.338 0.636 0.334" stroke="hsl(0.0,100%,35%)" stroke-width="0.00130"></path>
<path d="M0.452 0.268 Q0.609 0.221 0.552 0.134" stroke="hsl(0.0,100%,35%)" stroke-width="0.00015"></path>
<path d="M0.812 0.888 Q0.738 0.956 0.855 1.007" stroke="hsl(180.0,100%,35%)" stroke-width="0.00290"></path>
<path d="M0.812 0.888 Q0.602 0.912 0.604 1.020" stroke="hsl(180.0,100%,35%)" stroke-width="0.00031"></path>
<path d="M0.812 0.888 Q0.840 0.905 0.881 0.896" stroke="hsl(180.0,100%,35%)" stroke-width="0.00130"></path>
<path d="M0.812 0.888 Q0.910 0.789 0.739 0.720" stroke="hsl(180.0,100%,35%)" stroke-width="0.00023"></path>
<path d="M1.034 1.025 Q0.958 0.980 0.855 1.007" stroke="hsl(180.0,100%,35%)" stroke-width="0.00168"></path>
<path d="M1.034 1.025 Q1.060 0.930 0.881 0.896" stroke="hsl(180.0,100%,35%)" stroke-width="0.00031"></path>
<path d="M1.338 0.701 Q0.954 0.707 0.881 0.896" stroke="hsl(180.0,100%,35%)" stroke-width="0.00069"></path>
<path d="M1.338 0.701 Q0.852 0.758 0.855 1.007" stroke="hsl(180.0,100%,35%)" stroke-width="0.00130"></path>
<path d="M1.338 0.701 Q0.716 0.714 0.604 1.020" stroke="hsl(180.0,100%,35%)" stroke-width="0.00046"></path>
<path d="M0.538 0.933 Q0.739 0.983 0.881 0.896" stroke="hsl(180.0,100%,35%)" stroke-width="0.00214"></path>
<path d="M0.538 0.933 Q0.637 1.033 0.855 1.007" stroke="hsl(180.0,100%,35%)" stroke-width="0.00229"></path>
<path d="M0.538 0.933 Q1.124 0.977 1.338 0.701" stroke="hsl(180.0,100%,35%)" stroke-width="0.00053"></path>
<path d="M0.538 0.933 Q0.501 0.989 0.604 1.020" stroke="hsl(180.0,100%,35%)" stroke-width="0.00130"></path>
<path d="M0.929 0.746 Q0.785 0.811 0.881 0.896" stroke="hsl(180.0,100%,35%)" stroke-width="0.00512"></path>
<path d="M0.929 0.746 Q0.683 0.862 0.855 1.007" stroke="hsl(180.0,100%,35%)" stroke-width="0.00496"></path>
<path d="M0.929 0.746 Q1.170 0.806 1.338 0.701" stroke="hsl(180.0,100%,35%)" stroke-width="0.00046"></path>
<path d="M0.929 0.746 Q0.548 0.818 0.604 1.020" stroke="hsl(180.0,100%,35%)" stroke-width="0.00092"></path>
<path d="M0.778 0.630 Q0.617 0.783 0.881 0.896" stroke="hsl(180.0,100%,35%)" stroke-width="0.00351"></path>
<path d="M0.778 0.630 Q0.834 0.605 0.798 0.573" stroke="hsl(180.0,100%,35%)" stroke-width="0.00015"></path>
<path d="M0.778 0.630 Q0.380 0.790 0.604 1.020" stroke="hsl(180.0,100%,35%)" stroke-width="0.00023"></path>
<path d="M0.439 0.827 Q0.367 0.956 0.604 1.020" stroke="hsl(180.0,100%,35%)" stroke-width="0.00023"></path>
<path d="M1.075 0.685 Q0.707 0.802 0.855 1.007" stroke="hsl(180.0,100%,35%)" stroke-width="0.00053"></path>
<path d="M1.075 0.685 Q0.809 0.752 0.881 0.896" stroke="hsl(180.0,100%,35%)" stroke-width="0.00023"></path>
<path d="M0.972 0.736 Q0.798 0.797 0.881 0.896" stroke="hsl(180.0,100%,35%)" stroke-width="0.00763"></path>
<path d="M0.972 0.736 Q0.696 0.848 0.855 1.007" stroke="hsl(180.0,100%,35%)" stroke-width="0.00344"></path>
<path d="M0.972 0.736 Q0.935 0.462 0.394 0.420" stroke="hsl(180.0,100%,35%)" stroke-width="0.00015"></path>
<path d="M1.083 0.891 Q0.876 0.904 0.855 1.007" stroke="hsl(180.0,100%,35%)" stroke-width="0.00107"></path>
<path d="M1.083 0.891 Q0.978 0.853 0.881 0.896" stroke="hsl(180.0,100%,35%)" stroke-width="0.00229"></path>
<path d="M1.067 0.533 Q0.582 0.728 0.855 1.007" stroke="hsl(180.0,100%,35%)" stroke-width="0.00115"></path>
<path d="M1.067 0.533 Q0.684 0.677 0.881 0.896" stroke="hsl(180.0,100%,35%)" stroke-width="0.00084"></path>
<path d="M1.067 0.533 Q0.446 0.684 0.604 1.020" stroke="hsl(180.0,100%,35%)" stroke-width="0.00023"></path>
<path d="M1.162 0.760 Q0.810 0.822 0.855 1.007" stroke="hsl(180.0,100%,35%)" stroke-width="0.00687"></path>
<path d="M1.162 0.760 Q0.912 0.771 0.881 0.896" stroke="hsl(180.0,100%,35%)" stroke-width="0.00481"></path>
<path d="M1.162 0.760 Q0.675 0.778 0.604 1.020" stroke="hsl(180.0,100%,35%)" stroke-width="0.00099"></path>
<path d="M1.162 0.760 Q0.801 0.745 0.694 0.918" stroke="hsl(180.0,100%,35%)" stroke-width="0.00069"></path>
<path d="M1.140 1.378 Q1.396 1.085 0.881 0.896" stroke="hsl(180.0,100%,35%)" stroke-width="0.00038"></path>
<path d="M1.140 1.378 Q1.294 1.136 0.855 1.007" stroke="hsl(180.0,100%,35%)" stroke-width="0.00023"></path>
<path d="M0.650 1.058 Q0.784 0.997 0.694 0.918" stroke="hsl(180.0,100%,35%)" stroke-width="0.00023"></path>
<path d="M0.650 1.058 Q0.895 1.023 0.881 0.896" stroke="hsl(180.0,100%,35%)" stroke-width="0.00031"></path>
<path d="M0.650 1.058 Q0.793 1.073 0.855 1.007" stroke="hsl(180.0,100%,35%)" stroke-width="0.00015"></path>
<path d="M0.650 1.058 Q1.279 1.017 1.338 0.701" stroke="hsl(180.0,100%,35%)" stroke-width="0.00015"></path>
<path d="M1.028 1.254 Q1.139 1.096 0.855 1.007" stroke="hsl(180.0,100%,35%)" stroke-width="0.00031"></path>
<path d="M1.030 0.937 Q0.887 0.937 0.855 1.007" stroke="hsl(180.0,100%,35%)" stroke-width="0.00428"></path>
<path d="M1.030 0.937 Q0.989 0.886 0.881 0.896" stroke="hsl(180.0,100%,35%)" stroke-width="0.00328"></path>
<path d="M1.030 0.937 Q0.877 0.860 0.694 0.918" stroke="hsl(180.0,100%,35%)" stroke-width="0.00015"></path>
<path d="M1.030 0.937 Q0.751 0.893 0.604 1.020" stroke="hsl(180.0,100%,35%)" stroke-width="0.00092"></path>
<path d="M1.162 0.774 Q1.144 0.354 0.319 0.270" stroke="hsl(180.0,100%,35%)" stroke-width="0.00092"></path>
<path d="M1.162 0.774 Q0.822 0.829 0.855 1.007" stroke="hsl(180.0,100%,35%)" stroke-width="0.00145"></path>
<path d="M1.162 0.774 Q1.251 0.449 0.636 0.334" stroke="hsl(180.0,100%,35%)" stroke-width="0.00038"></path>
<path d="M1.162 0.774 Q0.924 0.779 0.881 0.896" stroke="hsl(180.0,100%,35%)" stroke-width="0.00137"></path>
<path d="M1.162 0.774 Q0.813 0.753 0.694 0.918" stroke="hsl(180.0,100%,35%)" stroke-width="0.00023"></path>
<path d="M1.037 0.697 Q0.698 0.816 0.855 1.007" stroke="hsl(180.0,100%,35%)" stroke-width="0.00015"></path>
<path d="M1.037 0.697 Q0.800 0.765 0.881 0.896" stroke="hsl(180.0,100%,35%)" stroke-width="0.00023"></path>
<path d="M1.045 0.655 Q0.668 0.793 0.855 1.007" stroke="hsl(180.0,100%,35%)" stroke-width="0.00053"></path>
<path d="M1.045 0.655 Q0.770 0.742 0.881 0.896" stroke="hsl(180.0,100%,35%)" stroke-width="0.00092"></path>
<path d="M1.045 0.655 Q0.532 0.749 0.604 1.020" stroke="hsl(180.0,100%,35%)" stroke-width="0.00031"></path>
<path d="M0.625 0.766 Q0.649 0.882 0.881 0.896" stroke="hsl(180.0,100%,35%)" stroke-width="0.00053"></path>
<path d="M0.625 0.766 Q0.547 0.933 0.855 1.007" stroke="hsl(180.0,100%,35%)" stroke-width="0.00084"></path>
<path d="M0.625 0.766 Q0.868 0.457 0.319 0.270" stroke="hsl(180.0,100%,35%)" stroke-width="0.00038"></path>
<path d="M0.625 0.766 Q0.411 0.889 0.604 1.020" stroke="hsl(180.0,100%,35%)" stroke-width="0.00092"></path>
<path d="M0.970 0.763 Q0.819 0.811 0.881 0.896" stroke="hsl(180.0,100%,35%)" stroke-width="0.00015"></path>
<path d="M0.970 0.763 Q0.717 0.862 0.855 1.007" stroke="hsl(180.0,100%,35%)" stroke-width="0.00031"></path>
<path d="M0.690 0.163 Q0.644 0.120 0.552 0.134" stroke="hsl(0.0,100%,35%)" stroke-width="0.00122"></path>
<path d="M0.690 0.163 Q0.487 0.168 0.452 0.268" stroke="hsl(0.0,100%,35%)" stroke-width="0.00092"></path>
<path d="M0.690 0.163 Q0.526 0.238 0.636 0.334" stroke="hsl(0.0,100%,35%)" stroke-width="0.00450"></path>
<path d="M1.252 0.820 Q1.142 0.448 0.394 0.420" stroke="hsl(180.0,100%,35%)" stroke-width="0.00038"></path>
<path d="M1.252 0.820 Q1.075 0.667 0.739 0.720" stroke="hsl(180.0,100%,35%)" stroke-width="0.00046"></path>
<path d="M1.252 0.820 Q0.903 0.834 0.855 1.007" stroke="hsl(180.0,100%,35%)" stroke-width="0.00015"></path>
<path d="M1.252 0.820 Q1.029 0.887 1.112 1.011" stroke="hsl(180.0,100%,35%)" stroke-width="0.00038"></path>
<path d="M1.252 0.820 Q1.005 0.783 0.881 0.896" stroke="hsl(180.0,100%,35%)" stroke-width="0.00191"></path>
<path d="M1.252 0.820 Q1.037 0.847 1.043 0.957" stroke="hsl(180.0,100%,35%)" stroke-width="0.00092"></path>
<path d="M1.252 0.820 Q1.089 0.376 0.187 0.357" stroke="hsl(180.0,100%,35%)" stroke-width="0.00015"></path>
<path d="M1.053 0.792 Q0.782 0.860 0.855 1.007" stroke="hsl(180.0,100%,35%)" stroke-width="0.00038"></path>
<path d="M1.053 0.792 Q0.884 0.809 0.881 0.896" stroke="hsl(180.0,100%,35%)" stroke-width="0.00023"></path>
<path d="M0.669 0.840 Q0.904 0.848 0.972 0.736" stroke="hsl(180.0,100%,35%)" stroke-width="0.00221"></path>
<path d="M0.669 0.840 Q0.628 0.961 0.855 1.007" stroke="hsl(180.0,100%,35%)" stroke-width="0.00344"></path>
<path d="M0.669 0.840 Q0.730 0.910 0.881 0.896" stroke="hsl(180.0,100%,35%)" stroke-width="0.00435"></path>
<path d="M0.669 0.840 Q0.800 0.794 0.739 0.720" stroke="hsl(180.0,100%,35%)" stroke-width="0.00015"></path>
<path d="M1.048 0.718 Q0.822 0.773 0.881 0.896" stroke="hsl(180.0,100%,35%)" stroke-width="0.00092"></path>
<path d="M1.048 0.718 Q0.892 0.657 0.739 0.720" stroke="hsl(180.0,100%,35%)" stroke-width="0.00031"></path>
<path d="M1.048 0.718 Q0.959 0.438 0.394 0.420" stroke="hsl(180.0,100%,35%)" stroke-width="0.00023"></path>
<path d="M1.048 0.718 Q0.720 0.824 0.855 1.007" stroke="hsl(180.0,100%,35%)" stroke-width="0.00084"></path>
<path d="M0.986 0.656 Q0.742 0.755 0.881 0.896" stroke="hsl(180.0,100%,35%)" stroke-width="0.00176"></path>
<path d="M0.986 0.656 Q0.640 0.806 0.855 1.007" stroke="hsl(180.0,100%,35%)" stroke-width="0.00031"></path>
<path d="M0.986 0.656 Q0.811 0.638 0.739 0.720" stroke="hsl(180.0,100%,35%)" stroke-width="0.00015"></path>
<path d="M0.911 0.719 Q0.755 0.801 0.881 0.896" stroke="hsl(180.0,100%,35%)" stroke-width="0.00069"></path>
<path d="M0.911 0.719 Q0.653 0.852 0.855 1.007" stroke="hsl(180.0,100%,35%)" stroke-width="0.00046"></path>
<path d="M0.911 0.719 Q0.898 0.736 0.929 0.746" stroke="hsl(180.0,100%,35%)" stroke-width="0.00046"></path>
<path d="M0.911 0.719 Q1.139 0.796 1.338 0.701" stroke="hsl(180.0,100%,35%)" stroke-width="0.00015"></path>
<path d="M0.769 0.131 Q0.111 0.587 0.855 1.007" stroke="hsl(180.0,100%,35%)" stroke-width="0.00023"></path>
<path d="M0.293 0.956 Q0.533 1.094 0.855 1.007" stroke="hsl(180.0,100%,35%)" stroke-width="0.00015"></path>
<path d="M0.750 0.678 Q0.641 0.813 0.881 0.896" stroke="hsl(180.0,100%,35%)" stroke-width="0.00031"></path>
<path d="M0.750 0.678 Q0.539 0.864 0.855 1.007" stroke="hsl(180.0,100%,35%)" stroke-width="0.00031"></path>
<path d="M0.750 0.678 Q0.885 0.714 0.986 0.656" stroke="hsl(180.0,100%,35%)" stroke-width="0.00015"></path>
<path d="M0.547 0.649 Q0.279 0.846 0.604 1.020" stroke="hsl(180.0,100%,35%)" stroke-width="0.00015"></path>
<path d="M1.594 0.339 Q1.237 0.028 0.552 0.134" stroke="hsl(0.0,100%,35%)" stroke-width="0.00023"></path>
<path d="M1.594 0.339 Q1.562 0.262 1.405 0.260" stroke="hsl(0.0,100%,35%)" stroke-width="0.00015"></path>
<path d="M0.200 0.417 Q0.294 0.458 0.394 0.420" stroke="hsl(0.0,100%,35%)" stroke-width="0.00084"></path>
<path d="M0.200 0.417 Q0.158 0.793 0.881 0.896" stroke="hsl(0.0,100%,35%)" stroke-width="0.00015"></path>
<path d="M0.651 0.791 Q0.580 0.940 0.855 1.007" stroke="hsl(180.0,100%,35%)" stroke-width="0.00053"></path>
<path d="M0.651 0.791 Q0.682 0.889 0.881 0.896" stroke="hsl(180.0,100%,35%)" stroke-width="0.00031"></path>
<path d="M0.651 0.791 Q0.444 0.896 0.604 1.020" stroke="hsl(180.0,100%,35%)" stroke-width="0.00031"></path>
<path d="M0.862 0.348 Q0.433 0.626 0.881 0.896" stroke="hsl(0.0,100%,35%)" stroke-width="0.00023"></path>
<path d="M0.862 0.348 Q0.750 0.268 0.570 0.305" stroke="hsl(0.0,100%,35%)" stroke-width="0.00031"></path>
<path d="M1.162 0.732 Q0.788 0.808 0.855 1.007" stroke="hsl(180.0,100%,35%)" stroke-width="0.00092"></path>
<path d="M1.162 0.732 Q0.890 0.758 0.881 0.896" stroke="hsl(180.0,100%,35%)" stroke-width="0.00076"></path>
<path d="M1.162 0.732 Q0.779 0.732 0.694 0.918" stroke="hsl(180.0,100%,35%)" stroke-width="0.00023"></path>
<path d="M1.254 0.862 Q1.040 0.804 0.881 0.896" stroke="hsl(180.0,100%,35%)" stroke-width="0.00015"></path>
<path d="M1.254 0.862 Q0.938 0.855 0.855 1.007" stroke="hsl(180.0,100%,35%)" stroke-width="0.00015"></path>
<path d="M0.702 0.613 Q0.463 0.841 0.855 1.007" stroke="hsl(180.0,100%,35%)" stroke-width="0.00023"></path>
<path d="M0.606 0.937 Q0.674 1.022 0.855 1.007" stroke="hsl(180.0,100%,35%)" stroke-width="0.00069"></path>
<path d="M0.575 1.106 Q0.896 1.062 0.881 0.896" stroke="hsl(180.0,100%,35%)" stroke-width="0.00031"></path>
<path d="M0.575 1.106 Q0.794 1.113 0.855 1.007" stroke="hsl(180.0,100%,35%)" stroke-width="0.00046"></path>
<path d="M0.434 1.196 Q0.796 1.186 0.855 1.007" stroke="hsl(0.0,100%,35%)" stroke-width="0.00023"></path>
<path d="M0.910 0.695 Q0.633 0.840 0.855 1.007" stroke="hsl(180.0,100%,35%)" stroke-width="0.00023"></path>
<path d="M0.910 0.695 Q0.735 0.789 0.881 0.896" stroke="hsl(180.0,100%,35%)" stroke-width="0.00023"></path>
<path d="M1.113 0.718 Q0.752 0.811 0.855 1.007" stroke="hsl(180.0,100%,35%)" stroke-width="0.00015"></path>
<path d="M0.579 0.788 Q0.541 0.953 0.855 1.007" stroke="hsl(180.0,100%,35%)" stroke-width="0.00053"></path>
<path d="M0.579 0.788 Q0.532 0.876 0.694 0.918" stroke="hsl(180.0,100%,35%)" stroke-width="0.00031"></path>
<path d="M0.579 0.788 Q0.643 0.902 0.881 0.896" stroke="hsl(180.0,100%,35%)" stroke-width="0.00015"></path>
<path d="M0.605 0.546 Q0.352 0.750 0.694 0.918" stroke="hsl(180.0,100%,35%)" stroke-width="0.00023"></path>
<path d="M0.605 0.546 Q0.463 0.776 0.881 0.896" stroke="hsl(180.0,100%,35%)" stroke-width="0.00015"></path>
<path d="M0.605 0.546 Q0.361 0.827 0.855 1.007" stroke="hsl(180.0,100%,35%)" stroke-width="0.00023"></path>
<path d="M1.111 0.707 Q0.743 0.806 0.855 1.007" stroke="hsl(180.0,100%,35%)" stroke-width="0.00023"></path>
<path d="M1.111 0.707 Q0.844 0.755 0.881 0.896" stroke="hsl(180.0,100%,35%)" stroke-width="0.00023"></path>
</g>
<text x="0.642" y="0.143" font-size="0.008889" fill="hsl(0.0,100%,20%)">afdx</text>
<text x="0.394" y="0.377" font-size="0.086452" fill="hsl(0.0,100%,20%)">bclayton</text>
<text x="0.552" y="0.117" font-size="0.032889" fill="hsl(0.0,100%,20%)">rharrison</text>
<text x="0.187" y="0.336" font-size="0.041949" fill="hsl(0.0,100%,20%)">amaiorano</text>
<text x="0.762" y="0.057" font-size="0.005872" fill="hsl(0.0,100%,20%)">vasniktel</text>
<text x="0.666" y="1.016" font-size="0.004642" fill="hsl(180.0,100%,20%)">albin.bernhardsson</text>
<text x="0.855" y="0.969" font-size="0.076490" fill="hsl(180.0,100%,20%)">cwallez</text>
<text x="0.881" y="0.858" font-size="0.075049" fill="hsl(180.0,100%,20%)">enga</text>
<text x="0.319" y="0.237" font-size="0.065361" fill="hsl(0.0,100%,20%)">dsinclair</text>
<text x="0.604" y="1.001" font-size="0.036980" fill="hsl(180.0,100%,20%)">kainino</text>
<text x="0.778" y="0.725" font-size="0.003596" fill="hsl(180.0,100%,20%)">aleksi</text>
<text x="0.512" y="0.728" font-size="0.003390" fill="hsl(180.0,100%,20%)">aleksi.sapon</text>
<text x="0.739" y="0.704" font-size="0.031116" fill="hsl(180.0,100%,20%)">lokokung</text>
<text x="0.570" y="0.281" font-size="0.048031" fill="hsl(0.0,100%,20%)">jrprice</text>
<text x="0.636" y="0.311" font-size="0.046015" fill="hsl(0.0,100%,20%)">dneto</text>
<text x="0.598" y="0.210" font-size="0.008304" fill="hsl(0.0,100%,20%)">alanbaker</text>
<text x="1.112" y="1.000" font-size="0.021805" fill="hsl(180.0,100%,20%)">bajones</text>
<text x="0.079" y="0.858" font-size="0.001199" fill="hsl(0.0,100%,20%)">sugoi</text>
<text x="0.086" y="2.187" font-size="0.001199" fill="hsl(0.0,100%,20%)">armansito</text>
<text x="1.009" y="0.765" font-size="0.007388" fill="hsl(180.0,100%,20%)">ynovikov</text>
<text x="0.476" y="-2.683" font-size="0.002397" fill="hsl(0.0,100%,20%)">andre</text>
<text x="0.647" y="1.122" font-size="0.007388" fill="hsl(180.0,100%,20%)">arthursonzogni</text>
<text x="0.581" y="0.756" font-size="0.001199" fill="hsl(180.0,100%,20%)">khaslett</text>
<text x="1.065" y="1.156" font-size="0.003390" fill="hsl(180.0,100%,20%)">austineng</text>
<text x="0.714" y="0.778" font-size="0.018137" fill="hsl(180.0,100%,20%)">shrekshao</text>
<text x="0.632" y="0.820" font-size="0.002397" fill="hsl(180.0,100%,20%)">avi</text>
<text x="1.285" y="0.918" font-size="0.020055" fill="hsl(180.0,100%,20%)">yunchao.he</text>
<text x="1.279" y="0.548" font-size="0.001199" fill="hsl(180.0,100%,20%)">headlessclayton</text>
<text x="0.384" y="0.482" font-size="0.001695" fill="hsl(0.0,100%,20%)">brucedawson</text>
<text x="1.043" y="0.942" font-size="0.029819" fill="hsl(180.0,100%,20%)">senorblanco</text>
<text x="0.134" y="0.464" font-size="0.001199" fill="hsl(0.0,100%,20%)">kjlubick</text>
<text x="0.694" y="0.901" font-size="0.035209" fill="hsl(180.0,100%,20%)">jiawei.shao</text>
<text x="1.128" y="0.783" font-size="0.015673" fill="hsl(180.0,100%,20%)">brandon1.jones</text>
<text x="0.418" y="0.198" font-size="0.014382" fill="hsl(180.0,100%,20%)">zhaoming.jiang</text>
<text x="0.452" y="0.259" font-size="0.016950" fill="hsl(0.0,100%,20%)">sarahmashay</text>
<text x="0.859" y="0.083" font-size="0.002076" fill="hsl(0.0,100%,20%)">allydonaldson</text>
<text x="0.812" y="0.883" font-size="0.009737" fill="hsl(180.0,100%,20%)">beaufort.francois</text>
<text x="1.034" y="1.021" font-size="0.006454" fill="hsl(180.0,100%,20%)">blundell</text>
<text x="1.029" y="1.407" font-size="0.001199" fill="hsl(180.0,100%,20%)">nicolettep</text>
<text x="1.338" y="0.696" font-size="0.009810" fill="hsl(180.0,100%,20%)">rafael.cintron</text>
<text x="0.538" y="0.927" font-size="0.010985" fill="hsl(180.0,100%,20%)">natlee</text>
<text x="0.929" y="0.739" font-size="0.015535" fill="hsl(180.0,100%,20%)">bryan.bernhart</text>
<text x="0.778" y="0.626" font-size="0.009128" fill="hsl(180.0,100%,20%)">bsheedy</text>
<text x="0.798" y="0.572" font-size="0.001695" fill="hsl(180.0,100%,20%)">gbeaty</text>
<text x="0.321" y="0.733" font-size="0.002076" fill="hsl(180.0,100%,20%)">capn</text>
<text x="0.439" y="0.825" font-size="0.002680" fill="hsl(180.0,100%,20%)">ccameron</text>
<text x="1.075" y="0.683" font-size="0.003975" fill="hsl(180.0,100%,20%)">cjj19970505</text>
<text x="1.150" y="0.631" font-size="0.001199" fill="hsl(180.0,100%,20%)">fhorschig</text>
<text x="0.727" y="1.382" font-size="0.001199" fill="hsl(180.0,100%,20%)">jamesgk</text>
<text x="0.972" y="0.728" font-size="0.016607" fill="hsl(180.0,100%,20%)">penghuang</text>
<text x="1.083" y="0.887" font-size="0.008725" fill="hsl(180.0,100%,20%)">lehoangquyen</text>
<text x="1.065" y="-5.305" font-size="0.001695" fill="hsl(180.0,100%,20%)">fbeaufort</text>
<text x="1.067" y="0.530" font-size="0.006673" fill="hsl(180.0,100%,20%)">hogehoge</text>
<text x="1.162" y="0.751" font-size="0.016433" fill="hsl(180.0,100%,20%)">hao.x.li</text>
<text x="1.140" y="1.376" font-size="0.004321" fill="hsl(180.0,100%,20%)">rockot</text>
<text x="0.650" y="1.056" font-size="0.004152" fill="hsl(180.0,100%,20%)">jiajia.qin</text>
<text x="1.028" y="1.252" font-size="0.004152" fill="hsl(180.0,100%,20%)">thakis</text>
<text x="0.802" y="0.121" font-size="0.002397" fill="hsl(0.0,100%,20%)">jmadill</text>
<text x="1.030" y="0.930" font-size="0.013074" fill="hsl(180.0,100%,20%)">shaobo.yan</text>
<text x="0.431" y="0.127" font-size="0.002076" fill="hsl(0.0,100%,20%)">johnstiles</text>
<text x="1.162" y="0.770" font-size="0.009128" fill="hsl(180.0,100%,20%)">tommek</text>
<text x="0.478" y="1.082" font-size="0.001199" fill="hsl(180.0,100%,20%)">sque</text>
<text x="1.037" y="0.696" font-size="0.003390" fill="hsl(180.0,100%,20%)">zmo</text>
<text x="0.586" y="0.739" font-size="0.003790" fill="hsl(180.0,100%,20%)">digit</text>
<text x="1.045" y="0.652" font-size="0.005993" fill="hsl(180.0,100%,20%)">hob</text>
<text x="0.650" y="-0.733" font-size="0.001199" fill="hsl(180.0,100%,20%)">oshima</text>
<text x="0.762" y="1.542" font-size="0.001199" fill="hsl(180.0,100%,20%)">afakhry</text>
<text x="0.625" y="0.762" font-size="0.007388" fill="hsl(180.0,100%,20%)">idanr</text>
<text x="1.002" y="1.195" font-size="0.001695" fill="hsl(180.0,100%,20%)">tandrii</text>
<text x="1.031" y="0.670" font-size="0.002076" fill="hsl(180.0,100%,20%)">kbr</text>
<text x="0.970" y="0.761" font-size="0.003390" fill="hsl(180.0,100%,20%)">cwoffenden</text>
<text x="0.751" y="1.420" font-size="0.002076" fill="hsl(0.0,100%,20%)">danakj</text>
<text x="0.690" y="0.157" font-size="0.011370" fill="hsl(0.0,100%,20%)">dj2</text>
<text x="1.252" y="0.815" font-size="0.009810" fill="hsl(180.0,100%,20%)">gman</text>
<text x="0.389" y="0.089" font-size="0.001199" fill="hsl(0.0,100%,20%)">yiwzhang</text>
<text x="1.053" y="0.790" font-size="0.003596" fill="hsl(180.0,100%,20%)">elie.michel.fr</text>
<text x="0.669" y="0.833" font-size="0.014028" fill="hsl(180.0,100%,20%)">jie.a.chen</text>
<text x="1.348" y="0.767" font-size="0.002076" fill="hsl(180.0,100%,20%)">toji</text>
<text x="1.048" y="0.714" font-size="0.006780" fill="hsl(180.0,100%,20%)">tiszka</text>
<text x="0.986" y="0.653" font-size="0.006989" fill="hsl(180.0,100%,20%)">sunnyps</text>
<text x="1.239" y="0.614" font-size="0.001199" fill="hsl(180.0,100%,20%)">mtklein</text>
<text x="0.913" y="0.588" font-size="0.001695" fill="hsl(180.0,100%,20%)">mehe</text>
<text x="0.911" y="0.716" font-size="0.005993" fill="hsl(180.0,100%,20%)">enrico.galli</text>
<text x="0.769" y="0.130" font-size="0.002397" fill="hsl(180.0,100%,20%)">fjhenigman</text>
<text x="0.293" y="0.954" font-size="0.002397" fill="hsl(180.0,100%,20%)">geofflang</text>
<text x="0.204" y="0.846" font-size="0.001199" fill="hsl(180.0,100%,20%)">fmalita</text>
<text x="1.908" y="0.393" font-size="0.003171" fill="hsl(0.0,100%,20%)">hans</text>
<text x="1.868" y="0.265" font-size="0.001199" fill="hsl(0.0,100%,20%)">hwennborg</text>
<text x="0.750" y="0.676" font-size="0.003790" fill="hsl(180.0,100%,20%)">hitawala</text>
<text x="0.547" y="0.648" font-size="0.002397" fill="hsl(180.0,100%,20%)">iannucci</text>
<text x="1.594" y="0.337" font-size="0.002936" fill="hsl(0.0,100%,20%)">jamessliu2020</text>
<text x="1.405" y="0.259" font-size="0.001695" fill="hsl(0.0,100%,20%)">paulthomson</text>
<text x="0.200" y="0.415" font-size="0.004794" fill="hsl(0.0,100%,20%)">jason.erb</text>
<text x="0.651" y="0.788" font-size="0.004642" fill="hsl(180.0,100%,20%)">jiajie.hu</text>
<text x="0.596" y="0.928" font-size="0.002076" fill="hsl(180.0,100%,20%)">jianlin.qiu</text>
<text x="0.862" y="0.346" font-size="0.003390" fill="hsl(0.0,100%,20%)">jojwang</text>
<text x="1.162" y="0.729" font-size="0.006111" fill="hsl(180.0,100%,20%)">junwei.fu</text>
<text x="1.313" y="0.728" font-size="0.001199" fill="hsl(180.0,100%,20%)">ningxin.hu</text>
<text x="0.334" y="0.167" font-size="0.002680" fill="hsl(0.0,100%,20%)">jwata</text>
<text x="0.622" y="1.976" font-size="0.002680" fill="hsl(0.0,100%,20%)">ukai</text>
<text x="1.254" y="0.860" font-size="0.003171" fill="hsl(180.0,100%,20%)">pkasting</text>
<text x="0.883" y="0.018" font-size="0.001695" fill="hsl(0.0,100%,20%)">mmoroz</text>
<text x="0.702" y="0.611" font-size="0.002680" fill="hsl(180.0,100%,20%)">stephen</text>
<text x="0.606" y="0.934" font-size="0.004484" fill="hsl(180.0,100%,20%)">stha09</text>
<text x="1.734" y="0.921" font-size="0.001695" fill="hsl(180.0,100%,20%)">svenzheng</text>
<text x="1.529" y="0.942" font-size="0.001199" fill="hsl(180.0,100%,20%)">lgrey</text>
<text x="0.575" y="1.104" font-size="0.003975" fill="hsl(180.0,100%,20%)">tangm</text>
<text x="0.434" y="1.195" font-size="0.002936" fill="hsl(0.0,100%,20%)">vadimsh</text>
<text x="0.910" y="0.693" font-size="0.003171" fill="hsl(180.0,100%,20%)">vollick</text>
<text x="1.113" y="0.716" font-size="0.002397" fill="hsl(180.0,100%,20%)">wangqing-hf</text>
<text x="0.579" y="0.785" font-size="0.004642" fill="hsl(180.0,100%,20%)">xinghua.cao</text>
<text x="0.605" y="0.544" font-size="0.003790" fill="hsl(180.0,100%,20%)">yang.gu</text>
<text x="1.111" y="0.705" font-size="0.003171" fill="hsl(180.0,100%,20%)">yizhou.jiang</text>
</svg>
