<svg width="4000" height="2000" viewBox="-0.025 -0.025 2.05 1.05" xmlns="http://www.w3.org/2000/svg">
  <style>
    path {
      fill: none;
      stroke-linecap: round;
      stroke-opacity: 0.4;
    }

    text {
      text-anchor: middle;
      alignment-baseline: hanging;
    }
  </style>
  <g opacity="0.4">
<path d="M0.799 0.349 Q0.844 0.465 1.080 0.469" stroke="hsl(0.0,100%,35%)" stroke-width="0.00160"></path>
<path d="M0.799 0.349 Q0.716 0.267 0.538 0.290" stroke="hsl(0.0,100%,35%)" stroke-width="0.01123"></path>
<path d="M0.799 0.349 Q0.969 0.671 1.635 0.659" stroke="hsl(0.0,100%,35%)" stroke-width="0.00642"></path>
<path d="M0.799 0.349 Q0.909 0.189 0.622 0.100" stroke="hsl(0.0,100%,35%)" stroke-width="0.00241"></path>
<path d="M0.799 0.349 Q1.275 0.540 1.753 0.349" stroke="hsl(0.0,100%,35%)" stroke-width="0.00160"></path>
<path d="M0.799 0.349 Q0.505 0.214 0.177 0.327" stroke="hsl(0.0,100%,35%)" stroke-width="0.00080"></path>
<path d="M1.080 0.469 Q0.464 0.349 0.095 0.624" stroke="hsl(180.0,100%,35%)" stroke-width="0.00080"></path>
<path d="M1.080 0.469 Q1.512 0.543 1.753 0.349" stroke="hsl(180.0,100%,35%)" stroke-width="0.00321"></path>
<path d="M1.080 0.469 Q1.381 0.511 1.529 0.373" stroke="hsl(180.0,100%,35%)" stroke-width="0.00080"></path>
<path d="M1.080 0.469 Q1.205 0.675 1.635 0.659" stroke="hsl(180.0,100%,35%)" stroke-width="0.00080"></path>
<path d="M1.080 0.469 Q1.329 0.737 1.907 0.674" stroke="hsl(180.0,100%,35%)" stroke-width="0.00241"></path>
<path d="M0.538 0.290 Q0.327 0.236 0.177 0.327" stroke="hsl(0.0,100%,35%)" stroke-width="0.05055"></path>
<path d="M0.538 0.290 Q0.621 0.371 0.799 0.349" stroke="hsl(0.0,100%,35%)" stroke-width="0.02246"></path>
<path d="M0.538 0.290 Q0.731 0.212 0.622 0.100" stroke="hsl(0.0,100%,35%)" stroke-width="0.03450"></path>
<path d="M0.538 0.290 Q0.160 0.422 0.335 0.635" stroke="hsl(0.0,100%,35%)" stroke-width="0.00080"></path>
<path d="M0.538 0.290 Q0.791 0.694 1.635 0.659" stroke="hsl(0.0,100%,35%)" stroke-width="0.01605"></path>
<path d="M0.538 0.290 Q1.098 0.562 1.753 0.349" stroke="hsl(0.0,100%,35%)" stroke-width="0.01203"></path>
<path d="M0.538 0.290 Q0.278 0.580 0.787 0.770" stroke="hsl(0.0,100%,35%)" stroke-width="0.00080"></path>
<path d="M0.538 0.290 Q0.876 0.341 1.051 0.188" stroke="hsl(0.0,100%,35%)" stroke-width="0.00080"></path>
<path d="M0.538 0.290 Q0.616 0.561 1.163 0.582" stroke="hsl(0.0,100%,35%)" stroke-width="0.00080"></path>
<path d="M0.538 0.290 Q0.666 0.488 1.080 0.469" stroke="hsl(0.0,100%,35%)" stroke-width="0.00080"></path>
<path d="M0.538 0.290 Q0.535 0.370 0.691 0.389" stroke="hsl(0.0,100%,35%)" stroke-width="0.00080"></path>
<path d="M1.635 0.659 Q1.941 0.527 1.753 0.349" stroke="hsl(180.0,100%,35%)" stroke-width="0.01043"></path>
<path d="M1.635 0.659 Q1.465 0.337 0.799 0.349" stroke="hsl(180.0,100%,35%)" stroke-width="0.00241"></path>
<path d="M1.635 0.659 Q1.171 0.201 0.177 0.327" stroke="hsl(180.0,100%,35%)" stroke-width="0.00080"></path>
<path d="M1.635 0.659 Q1.758 0.721 1.907 0.674" stroke="hsl(180.0,100%,35%)" stroke-width="0.01444"></path>
<path d="M1.635 0.659 Q1.509 0.453 1.080 0.469" stroke="hsl(180.0,100%,35%)" stroke-width="0.00802"></path>
<path d="M1.635 0.659 Q1.460 0.526 1.163 0.582" stroke="hsl(180.0,100%,35%)" stroke-width="0.00321"></path>
<path d="M1.635 0.659 Q1.381 0.255 0.538 0.290" stroke="hsl(180.0,100%,35%)" stroke-width="0.00241"></path>
<path d="M1.635 0.659 Q1.575 0.177 0.622 0.100" stroke="hsl(180.0,100%,35%)" stroke-width="0.00080"></path>
<path d="M1.635 0.659 Q1.339 0.760 1.472 0.926" stroke="hsl(180.0,100%,35%)" stroke-width="0.00080"></path>
<path d="M0.622 0.100 Q0.682 0.582 1.635 0.659" stroke="hsl(0.0,100%,35%)" stroke-width="0.00080"></path>
<path d="M0.622 0.100 Q0.428 0.178 0.538 0.290" stroke="hsl(0.0,100%,35%)" stroke-width="0.04012"></path>
<path d="M0.622 0.100 Q0.766 0.230 1.051 0.188" stroke="hsl(0.0,100%,35%)" stroke-width="0.00080"></path>
<path d="M0.622 0.100 Q0.988 0.451 1.753 0.349" stroke="hsl(0.0,100%,35%)" stroke-width="0.00321"></path>
<path d="M0.622 0.100 Q0.218 0.125 0.177 0.327" stroke="hsl(0.0,100%,35%)" stroke-width="0.00481"></path>
<path d="M1.753 0.349 Q1.570 0.542 1.907 0.674" stroke="hsl(180.0,100%,35%)" stroke-width="0.01845"></path>
<path d="M1.753 0.349 Q1.271 0.348 1.163 0.582" stroke="hsl(180.0,100%,35%)" stroke-width="0.00160"></path>
<path d="M1.753 0.349 Q1.193 0.077 0.538 0.290" stroke="hsl(180.0,100%,35%)" stroke-width="0.01444"></path>
<path d="M1.753 0.349 Q1.386 -0.001 0.622 0.100" stroke="hsl(180.0,100%,35%)" stroke-width="0.00160"></path>
<path d="M1.753 0.349 Q1.446 0.480 1.635 0.659" stroke="hsl(180.0,100%,35%)" stroke-width="0.03129"></path>
<path d="M1.753 0.349 Q1.869 0.209 1.620 0.121" stroke="hsl(180.0,100%,35%)" stroke-width="0.00080"></path>
<path d="M1.753 0.349 Q1.321 0.274 1.080 0.469" stroke="hsl(180.0,100%,35%)" stroke-width="0.00160"></path>
<path d="M1.753 0.349 Q1.924 0.243 1.755 0.136" stroke="hsl(180.0,100%,35%)" stroke-width="0.00080"></path>
<path d="M0.177 0.327 Q0.387 0.381 0.538 0.290" stroke="hsl(0.0,100%,35%)" stroke-width="0.01926"></path>
<path d="M0.177 0.327 Q0.581 0.303 0.622 0.100" stroke="hsl(0.0,100%,35%)" stroke-width="0.00401"></path>
<path d="M0.177 0.327 Q0.641 0.785 1.635 0.659" stroke="hsl(0.0,100%,35%)" stroke-width="0.00241"></path>
<path d="M0.177 0.327 Q0.466 0.652 1.163 0.582" stroke="hsl(0.0,100%,35%)" stroke-width="0.00241"></path>
<path d="M0.177 0.327 Q0.128 0.671 0.787 0.770" stroke="hsl(0.0,100%,35%)" stroke-width="0.00722"></path>
<path d="M0.177 0.327 Q0.471 0.463 0.799 0.349" stroke="hsl(0.0,100%,35%)" stroke-width="0.00160"></path>
<path d="M0.177 0.327 Q0.947 0.653 1.753 0.349" stroke="hsl(0.0,100%,35%)" stroke-width="0.00080"></path>
<path d="M0.723 0.533 Q0.825 0.375 0.538 0.290" stroke="hsl(180.0,100%,35%)" stroke-width="0.00160"></path>
<path d="M0.723 0.533 Q1.385 0.647 1.753 0.349" stroke="hsl(180.0,100%,35%)" stroke-width="0.00080"></path>
<path d="M1.086 0.682 Q1.686 0.649 1.753 0.349" stroke="hsl(180.0,100%,35%)" stroke-width="0.00160"></path>
<path d="M1.086 0.682 Q1.254 0.574 1.080 0.469" stroke="hsl(180.0,100%,35%)" stroke-width="0.00160"></path>
<path d="M1.086 0.682 Q0.638 0.455 0.095 0.624" stroke="hsl(180.0,100%,35%)" stroke-width="0.00080"></path>
<path d="M1.086 0.682 Q1.503 0.842 1.907 0.674" stroke="hsl(180.0,100%,35%)" stroke-width="0.00080"></path>
<path d="M1.086 0.682 Q1.126 0.376 0.538 0.290" stroke="hsl(180.0,100%,35%)" stroke-width="0.00080"></path>
<path d="M1.086 0.682 Q1.380 0.780 1.635 0.659" stroke="hsl(180.0,100%,35%)" stroke-width="0.00080"></path>
<path d="M0.095 0.624 Q0.837 0.949 1.635 0.659" stroke="hsl(180.0,100%,35%)" stroke-width="0.00963"></path>
<path d="M0.095 0.624 Q0.206 0.677 0.335 0.635" stroke="hsl(180.0,100%,35%)" stroke-width="0.00642"></path>
<path d="M0.095 0.624 Q0.584 0.545 0.538 0.290" stroke="hsl(180.0,100%,35%)" stroke-width="0.00160"></path>
<path d="M0.095 0.624 Q0.961 1.011 1.907 0.674" stroke="hsl(180.0,100%,35%)" stroke-width="0.00160"></path>
<path d="M0.095 0.624 Q0.777 0.467 0.622 0.100" stroke="hsl(180.0,100%,35%)" stroke-width="0.00080"></path>
<path d="M0.095 0.624 Q0.712 0.743 1.080 0.469" stroke="hsl(180.0,100%,35%)" stroke-width="0.00080"></path>
<path d="M0.095 0.624 Q0.662 0.816 1.163 0.582" stroke="hsl(180.0,100%,35%)" stroke-width="0.00080"></path>
<path d="M0.095 0.624 Q0.373 0.492 0.177 0.327" stroke="hsl(180.0,100%,35%)" stroke-width="0.00080"></path>
<path d="M1.907 0.674 Q1.613 0.290 0.799 0.349" stroke="hsl(180.0,100%,35%)" stroke-width="0.00080"></path>
<path d="M1.907 0.674 Q1.991 0.553 1.774 0.486" stroke="hsl(180.0,100%,35%)" stroke-width="0.00080"></path>
<path d="M1.907 0.674 Q1.530 0.208 0.538 0.290" stroke="hsl(180.0,100%,35%)" stroke-width="0.00080"></path>
<path d="M1.907 0.674 Q1.783 0.612 1.635 0.659" stroke="hsl(180.0,100%,35%)" stroke-width="0.01685"></path>
<path d="M1.907 0.674 Q2.089 0.481 1.753 0.349" stroke="hsl(180.0,100%,35%)" stroke-width="0.00963"></path>
<path d="M1.907 0.674 Q1.658 0.406 1.080 0.469" stroke="hsl(180.0,100%,35%)" stroke-width="0.00241"></path>
<path d="M1.907 0.674 Q1.897 0.520 1.595 0.491" stroke="hsl(180.0,100%,35%)" stroke-width="0.00080"></path>
<path d="M1.163 0.582 Q1.338 0.715 1.635 0.659" stroke="hsl(180.0,100%,35%)" stroke-width="0.00562"></path>
<path d="M1.163 0.582 Q1.461 0.777 1.907 0.674" stroke="hsl(180.0,100%,35%)" stroke-width="0.00080"></path>
<path d="M1.163 0.582 Q1.212 0.509 1.080 0.469" stroke="hsl(180.0,100%,35%)" stroke-width="0.00401"></path>
<path d="M0.335 0.635 Q0.966 0.907 1.635 0.659" stroke="hsl(180.0,100%,35%)" stroke-width="0.00722"></path>
<path d="M0.335 0.635 Q1.080 0.815 1.595 0.491" stroke="hsl(180.0,100%,35%)" stroke-width="0.00160"></path>
<path d="M0.335 0.635 Q0.906 0.425 0.622 0.100" stroke="hsl(180.0,100%,35%)" stroke-width="0.00080"></path>
<path d="M0.335 0.635 Q0.712 0.503 0.538 0.290" stroke="hsl(180.0,100%,35%)" stroke-width="0.00321"></path>
<path d="M0.335 0.635 Q0.224 0.581 0.095 0.624" stroke="hsl(180.0,100%,35%)" stroke-width="0.00080"></path>
<path d="M0.335 0.635 Q1.089 0.969 1.907 0.674" stroke="hsl(180.0,100%,35%)" stroke-width="0.00080"></path>
<path d="M0.335 0.635 Q0.791 0.774 1.163 0.582" stroke="hsl(180.0,100%,35%)" stroke-width="0.00080"></path>
<path d="M0.787 0.770 Q1.241 0.402 0.622 0.100" stroke="hsl(180.0,100%,35%)" stroke-width="0.00160"></path>
<path d="M0.787 0.770 Q1.047 0.480 0.538 0.290" stroke="hsl(180.0,100%,35%)" stroke-width="0.00321"></path>
<path d="M0.787 0.770 Q1.300 0.884 1.635 0.659" stroke="hsl(180.0,100%,35%)" stroke-width="0.00080"></path>
<path d="M0.787 0.770 Q0.618 0.809 0.655 0.900" stroke="hsl(180.0,100%,35%)" stroke-width="0.00160"></path>
<path d="M0.787 0.770 Q0.836 0.427 0.177 0.327" stroke="hsl(180.0,100%,35%)" stroke-width="0.00241"></path>
<path d="M0.787 0.770 Q1.130 0.562 0.799 0.349" stroke="hsl(180.0,100%,35%)" stroke-width="0.00080"></path>
<path d="M1.465 0.183 Q1.476 0.324 1.753 0.349" stroke="hsl(180.0,100%,35%)" stroke-width="0.00883"></path>
<path d="M1.465 0.183 Q1.293 0.517 1.907 0.674" stroke="hsl(180.0,100%,35%)" stroke-width="0.00160"></path>
<path d="M1.465 0.183 Q1.170 0.455 1.635 0.659" stroke="hsl(180.0,100%,35%)" stroke-width="0.00481"></path>
<path d="M1.465 0.183 Q1.044 0.249 1.080 0.469" stroke="hsl(180.0,100%,35%)" stroke-width="0.00160"></path>
<path d="M1.680 0.770 Q2.053 0.574 1.753 0.349" stroke="hsl(180.0,100%,35%)" stroke-width="0.00080"></path>
<path d="M1.680 0.770 Q1.746 0.705 1.635 0.659" stroke="hsl(180.0,100%,35%)" stroke-width="0.00080"></path>
<path d="M1.680 0.770 Q1.493 0.302 0.538 0.290" stroke="hsl(180.0,100%,35%)" stroke-width="0.00080"></path>
<path d="M1.595 0.491 Q1.481 0.583 1.635 0.659" stroke="hsl(180.0,100%,35%)" stroke-width="0.00642"></path>
<path d="M1.595 0.491 Q1.227 0.179 0.538 0.290" stroke="hsl(180.0,100%,35%)" stroke-width="0.00321"></path>
<path d="M1.595 0.491 Q1.310 0.261 0.799 0.349" stroke="hsl(180.0,100%,35%)" stroke-width="0.00080"></path>
<path d="M1.595 0.491 Q0.849 0.311 0.335 0.635" stroke="hsl(180.0,100%,35%)" stroke-width="0.00080"></path>
<path d="M1.595 0.491 Q1.604 0.645 1.907 0.674" stroke="hsl(180.0,100%,35%)" stroke-width="0.00241"></path>
<path d="M1.595 0.491 Q1.305 0.450 1.163 0.582" stroke="hsl(180.0,100%,35%)" stroke-width="0.00080"></path>
<path d="M1.245 0.988 Q2.010 0.770 1.753 0.349" stroke="hsl(180.0,100%,35%)" stroke-width="0.00241"></path>
<path d="M1.245 0.988 Q1.703 0.901 1.635 0.659" stroke="hsl(180.0,100%,35%)" stroke-width="0.00241"></path>
<path d="M1.245 0.988 Q1.156 0.923 1.009 0.952" stroke="hsl(180.0,100%,35%)" stroke-width="0.00080"></path>
<path d="M1.438 0.753 Q1.612 0.745 1.635 0.659" stroke="hsl(180.0,100%,35%)" stroke-width="0.00080"></path>
<path d="M1.438 0.753 Q1.787 0.581 1.529 0.373" stroke="hsl(180.0,100%,35%)" stroke-width="0.00080"></path>
<path d="M1.438 0.753 Q1.918 0.614 1.753 0.349" stroke="hsl(180.0,100%,35%)" stroke-width="0.00080"></path>
<path d="M1.529 0.373 Q1.660 0.406 1.753 0.349" stroke="hsl(180.0,100%,35%)" stroke-width="0.01926"></path>
<path d="M1.529 0.373 Q1.354 0.537 1.635 0.659" stroke="hsl(180.0,100%,35%)" stroke-width="0.01043"></path>
<path d="M1.529 0.373 Q1.100 0.133 0.538 0.290" stroke="hsl(180.0,100%,35%)" stroke-width="0.00802"></path>
<path d="M1.529 0.373 Q1.275 0.638 1.737 0.820" stroke="hsl(180.0,100%,35%)" stroke-width="0.00080"></path>
<path d="M1.529 0.373 Q0.841 0.423 0.787 0.770" stroke="hsl(180.0,100%,35%)" stroke-width="0.00401"></path>
<path d="M1.529 0.373 Q1.396 0.381 1.381 0.448" stroke="hsl(180.0,100%,35%)" stroke-width="0.00241"></path>
<path d="M1.737 0.820 Q1.900 0.367 1.051 0.188" stroke="hsl(180.0,100%,35%)" stroke-width="0.00080"></path>
<path d="M1.737 0.820 Q2.122 0.588 1.753 0.349" stroke="hsl(180.0,100%,35%)" stroke-width="0.00241"></path>
<path d="M1.737 0.820 Q1.815 0.719 1.635 0.659" stroke="hsl(180.0,100%,35%)" stroke-width="0.00241"></path>
<path d="M1.818 0.108 Q0.991 0.448 1.472 0.926" stroke="hsl(180.0,100%,35%)" stroke-width="0.00080"></path>
<path d="M1.818 0.108 Q1.593 0.216 1.753 0.349" stroke="hsl(180.0,100%,35%)" stroke-width="0.00160"></path>
<path d="M1.818 0.108 Q1.286 0.347 1.635 0.659" stroke="hsl(180.0,100%,35%)" stroke-width="0.00080"></path>
<path d="M0.241 0.159 Q0.413 0.482 1.080 0.469" stroke="hsl(180.0,100%,35%)" stroke-width="0.00080"></path>
<path d="M0.241 0.159 Q0.368 0.366 0.799 0.349" stroke="hsl(180.0,100%,35%)" stroke-width="0.00160"></path>
<path d="M0.241 0.159 Q0.845 0.557 1.753 0.349" stroke="hsl(180.0,100%,35%)" stroke-width="0.00080"></path>
<path d="M0.241 0.159 Q0.538 0.688 1.635 0.659" stroke="hsl(180.0,100%,35%)" stroke-width="0.00160"></path>
<path d="M0.241 0.159 Q0.400 0.123 0.364 0.038" stroke="hsl(180.0,100%,35%)" stroke-width="0.00080"></path>
</g>
<text x="0.799" y="0.327" font-size="0.043583" fill="hsl(0.0,100%,20%)">amaiorano</text>
<text x="1.080" y="0.452" font-size="0.033006" fill="hsl(180.0,100%,20%)">kainino</text>
<text x="0.538" y="0.243" font-size="0.093504" fill="hsl(0.0,100%,20%)">bclayton</text>
<text x="1.635" y="0.620" font-size="0.077496" fill="hsl(180.0,100%,20%)">enga</text>
<text x="0.622" y="0.071" font-size="0.057896" fill="hsl(0.0,100%,20%)">dsinclair</text>
<text x="1.753" y="0.313" font-size="0.072467" fill="hsl(180.0,100%,20%)">cwallez</text>
<text x="0.177" y="0.298" font-size="0.058377" fill="hsl(0.0,100%,20%)">jrprice</text>
<text x="0.723" y="0.529" font-size="0.009154" fill="hsl(180.0,100%,20%)">andre</text>
<text x="1.086" y="0.675" font-size="0.014949" fill="hsl(180.0,100%,20%)">austineng</text>
<text x="0.095" y="0.609" font-size="0.029427" fill="hsl(180.0,100%,20%)">shrekshao</text>
<text x="1.907" y="0.648" font-size="0.051242" fill="hsl(180.0,100%,20%)">lokokung</text>
<text x="1.163" y="0.569" font-size="0.026949" fill="hsl(180.0,100%,20%)">bajones</text>
<text x="0.335" y="0.621" font-size="0.028461" fill="hsl(180.0,100%,20%)">senorblanco</text>
<text x="0.787" y="0.756" font-size="0.027966" fill="hsl(180.0,100%,20%)">dneto</text>
<text x="1.051" y="0.183" font-size="0.009154" fill="hsl(180.0,100%,20%)">rharrison</text>
<text x="0.691" y="0.386" font-size="0.005285" fill="hsl(0.0,100%,20%)">brucedawson</text>
<text x="1.465" y="0.171" font-size="0.024220" fill="hsl(180.0,100%,20%)">beaufort.francois</text>
<text x="1.620" y="0.119" font-size="0.005285" fill="hsl(180.0,100%,20%)">arthursonzogni</text>
<text x="1.755" y="0.133" font-size="0.005285" fill="hsl(180.0,100%,20%)">jamesgk</text>
<text x="1.680" y="0.766" font-size="0.009154" fill="hsl(180.0,100%,20%)">danakj</text>
<text x="0.655" y="0.896" font-size="0.007474" fill="hsl(0.0,100%,20%)">alanbaker</text>
<text x="1.472" y="0.923" font-size="0.007474" fill="hsl(180.0,100%,20%)">lehoangquyen</text>
<text x="1.595" y="0.479" font-size="0.024220" fill="hsl(180.0,100%,20%)">gman</text>
<text x="1.245" y="0.981" font-size="0.013983" fill="hsl(180.0,100%,20%)">hitawala</text>
<text x="1.009" y="0.949" font-size="0.005285" fill="hsl(180.0,100%,20%)">sunnyps</text>
<text x="1.438" y="0.748" font-size="0.009154" fill="hsl(180.0,100%,20%)">jianlin.qiu</text>
<text x="1.529" y="0.353" font-size="0.040251" fill="hsl(180.0,100%,20%)">jiawei.shao</text>
<text x="1.737" y="0.813" font-size="0.014949" fill="hsl(180.0,100%,20%)">zhaoming.jiang</text>
<text x="1.381" y="0.444" font-size="0.009154" fill="hsl(180.0,100%,20%)">penghuang</text>
<text x="1.774" y="0.483" font-size="0.005285" fill="hsl(180.0,100%,20%)">kbr</text>
<text x="1.818" y="0.103" font-size="0.010570" fill="hsl(180.0,100%,20%)">vollick</text>
<text x="0.241" y="0.152" font-size="0.013983" fill="hsl(180.0,100%,20%)">ynovikov</text>
<text x="0.364" y="0.035" font-size="0.005285" fill="hsl(180.0,100%,20%)">bsheedy</text>
</svg>
