<svg width="4000" height="2000" viewBox="-0.025 -0.025 2.05 1.05" xmlns="http://www.w3.org/2000/svg">
  <style>
    path {
      fill: none;
      stroke-linecap: round;
      stroke-opacity: 0.4;
    }

    text {
      text-anchor: middle;
      alignment-baseline: hanging;
    }
  </style>
  <g opacity="0.4">
<path d="M0.882 0.090 Q0.426 0.219 0.578 0.470" stroke="hsl(0.0,100%,35%)" stroke-width="0.02319"></path>
<path d="M0.882 0.090 Q0.598 0.225 0.800 0.394" stroke="hsl(0.0,100%,35%)" stroke-width="0.03865"></path>
<path d="M0.882 0.090 Q0.495 0.420 1.054 0.682" stroke="hsl(0.0,100%,35%)" stroke-width="0.00258"></path>
<path d="M0.882 0.090 Q1.029 0.139 1.157 0.078" stroke="hsl(0.0,100%,35%)" stroke-width="0.00258"></path>
<path d="M0.578 0.470 Q0.481 0.566 0.647 0.634" stroke="hsl(0.0,100%,35%)" stroke-width="0.03865"></path>
<path d="M0.578 0.470 Q1.034 0.341 0.882 0.090" stroke="hsl(0.0,100%,35%)" stroke-width="0.02835"></path>
<path d="M0.578 0.470 Q0.263 0.410 0.077 0.551" stroke="hsl(0.0,100%,35%)" stroke-width="0.01288"></path>
<path d="M0.578 0.470 Q0.647 0.671 1.054 0.682" stroke="hsl(0.0,100%,35%)" stroke-width="0.02062"></path>
<path d="M0.578 0.470 Q0.750 0.476 0.800 0.394" stroke="hsl(0.0,100%,35%)" stroke-width="0.01546"></path>
<path d="M0.578 0.470 Q0.672 0.543 0.834 0.513" stroke="hsl(0.0,100%,35%)" stroke-width="0.02835"></path>
<path d="M0.578 0.470 Q1.140 0.575 1.468 0.324" stroke="hsl(0.0,100%,35%)" stroke-width="0.00258"></path>
<path d="M0.800 0.394 Q0.918 0.215 0.596 0.118" stroke="hsl(180.0,100%,35%)" stroke-width="0.01804"></path>
<path d="M0.800 0.394 Q0.697 0.589 1.054 0.682" stroke="hsl(180.0,100%,35%)" stroke-width="0.00773"></path>
<path d="M0.800 0.394 Q0.459 0.709 0.999 0.945" stroke="hsl(180.0,100%,35%)" stroke-width="0.00258"></path>
<path d="M0.800 0.394 Q0.722 0.460 0.834 0.513" stroke="hsl(180.0,100%,35%)" stroke-width="0.00773"></path>
<path d="M0.800 0.394 Q1.190 0.493 1.468 0.324" stroke="hsl(180.0,100%,35%)" stroke-width="0.00258"></path>
<path d="M0.800 0.394 Q1.085 0.258 0.882 0.090" stroke="hsl(180.0,100%,35%)" stroke-width="0.00515"></path>
<path d="M0.800 0.394 Q1.193 0.600 1.679 0.453" stroke="hsl(180.0,100%,35%)" stroke-width="0.00258"></path>
<path d="M1.054 0.682 Q1.157 0.487 0.800 0.394" stroke="hsl(180.0,100%,35%)" stroke-width="0.01031"></path>
<path d="M1.054 0.682 Q1.276 0.308 0.596 0.118" stroke="hsl(180.0,100%,35%)" stroke-width="0.00258"></path>
<path d="M1.054 0.682 Q0.816 0.802 0.999 0.945" stroke="hsl(180.0,100%,35%)" stroke-width="0.00773"></path>
<path d="M1.054 0.682 Q0.986 0.481 0.578 0.470" stroke="hsl(180.0,100%,35%)" stroke-width="0.02062"></path>
<path d="M1.054 0.682 Q1.550 0.693 1.679 0.453" stroke="hsl(180.0,100%,35%)" stroke-width="0.00258"></path>
<path d="M0.647 0.634 Q1.200 0.409 0.882 0.090" stroke="hsl(0.0,100%,35%)" stroke-width="0.01031"></path>
<path d="M0.647 0.634 Q0.744 0.538 0.578 0.470" stroke="hsl(0.0,100%,35%)" stroke-width="0.01288"></path>
<path d="M0.647 0.634 Q0.429 0.479 0.077 0.551" stroke="hsl(0.0,100%,35%)" stroke-width="0.00515"></path>
<path d="M1.128 0.534 Q1.076 0.399 0.800 0.394" stroke="hsl(180.0,100%,35%)" stroke-width="0.02835"></path>
<path d="M1.128 0.534 Q1.466 0.497 1.468 0.324" stroke="hsl(180.0,100%,35%)" stroke-width="0.00258"></path>
<path d="M1.128 0.534 Q0.807 0.488 0.647 0.634" stroke="hsl(180.0,100%,35%)" stroke-width="0.00258"></path>
<path d="M1.679 0.453 Q1.184 0.442 1.054 0.682" stroke="hsl(180.0,100%,35%)" stroke-width="0.00258"></path>
<path d="M1.679 0.453 Q1.287 0.248 0.800 0.394" stroke="hsl(180.0,100%,35%)" stroke-width="0.00515"></path>
<path d="M1.201 0.776 Q1.203 0.699 1.054 0.682" stroke="hsl(180.0,100%,35%)" stroke-width="0.00515"></path>
<path d="M1.201 0.776 Q0.942 0.680 0.697 0.785" stroke="hsl(180.0,100%,35%)" stroke-width="0.00258"></path>
<path d="M1.201 0.776 Q1.306 0.505 0.800 0.394" stroke="hsl(180.0,100%,35%)" stroke-width="0.00258"></path>
<path d="M1.238 0.346 Q1.373 0.488 1.679 0.453" stroke="hsl(180.0,100%,35%)" stroke-width="0.00515"></path>
<path d="M1.238 0.346 Q0.981 0.282 0.800 0.394" stroke="hsl(180.0,100%,35%)" stroke-width="0.00773"></path>
<path d="M1.238 0.346 Q0.878 0.477 1.054 0.682" stroke="hsl(180.0,100%,35%)" stroke-width="0.00258"></path>
<path d="M1.006 0.201 Q0.408 0.572 0.999 0.945" stroke="hsl(180.0,100%,35%)" stroke-width="0.00258"></path>
<path d="M1.006 0.201 Q0.749 0.257 0.800 0.394" stroke="hsl(180.0,100%,35%)" stroke-width="0.00258"></path>
<path d="M1.006 0.201 Q1.139 0.355 1.468 0.324" stroke="hsl(180.0,100%,35%)" stroke-width="0.00258"></path>
<path d="M1.006 0.201 Q0.867 0.078 0.596 0.118" stroke="hsl(180.0,100%,35%)" stroke-width="0.00515"></path>
</g>
<text x="0.882" y="0.053" font-size="0.073314" fill="hsl(0.0,100%,20%)">amaiorano</text>
<text x="0.578" y="0.420" font-size="0.099373" fill="hsl(0.0,100%,20%)">bclayton</text>
<text x="0.800" y="0.350" font-size="0.087321" fill="hsl(180.0,100%,20%)">enga</text>
<text x="1.054" y="0.650" font-size="0.064226" fill="hsl(180.0,100%,20%)">cwallez</text>
<text x="1.157" y="0.072" font-size="0.011180" fill="hsl(0.0,100%,20%)">ynovikov</text>
<text x="0.647" y="0.605" font-size="0.058095" fill="hsl(0.0,100%,20%)">dsinclair</text>
<text x="0.077" y="0.536" font-size="0.029580" fill="hsl(0.0,100%,20%)">jrprice</text>
<text x="0.834" y="0.492" font-size="0.041833" fill="hsl(0.0,100%,20%)">dneto</text>
<text x="1.468" y="0.313" font-size="0.022361" fill="hsl(180.0,100%,20%)">kainino</text>
<text x="1.128" y="0.514" font-size="0.040311" fill="hsl(180.0,100%,20%)">bsheedy</text>
<text x="0.596" y="0.101" font-size="0.035355" fill="hsl(180.0,100%,20%)">lokokung</text>
<text x="0.999" y="0.932" font-size="0.025000" fill="hsl(180.0,100%,20%)">senorblanco</text>
<text x="1.679" y="0.438" font-size="0.029580" fill="hsl(180.0,100%,20%)">penghuang</text>
<text x="1.201" y="0.764" font-size="0.022361" fill="hsl(180.0,100%,20%)">geofflang</text>
<text x="0.697" y="0.780" font-size="0.011180" fill="hsl(180.0,100%,20%)">fmalita</text>
<text x="1.238" y="0.332" font-size="0.027386" fill="hsl(180.0,100%,20%)">jie.a.chen</text>
<text x="1.006" y="0.189" font-size="0.025000" fill="hsl(180.0,100%,20%)">shrekshao</text>
</svg>
