<svg width="4000" height="2000" viewBox="-0.025 -0.025 2.05 1.05" xmlns="http://www.w3.org/2000/svg">
  <style>
    path {
      fill: none;
      stroke-linecap: round;
      stroke-opacity: 0.4;
    }

    text {
      text-anchor: middle;
      alignment-baseline: hanging;
    }
  </style>
  <g opacity="0.4">
<path d="M0.508 0.864 Q0.434 0.747 0.190 0.758" stroke="hsl(0.0,100%,35%)" stroke-width="0.00783"></path>
<path d="M0.508 0.864 Q0.928 0.979 1.245 0.800" stroke="hsl(0.0,100%,35%)" stroke-width="0.00196"></path>
<path d="M0.508 0.864 Q0.621 0.762 0.446 0.684" stroke="hsl(0.0,100%,35%)" stroke-width="0.00196"></path>
<path d="M0.508 0.864 Q1.036 0.508 0.457 0.173" stroke="hsl(0.0,100%,35%)" stroke-width="0.00196"></path>
<path d="M0.190 0.758 Q0.265 0.875 0.508 0.864" stroke="hsl(0.0,100%,35%)" stroke-width="0.04113"></path>
<path d="M0.190 0.758 Q0.792 0.519 0.457 0.173" stroke="hsl(0.0,100%,35%)" stroke-width="0.03133"></path>
<path d="M0.190 0.758 Q0.329 0.642 0.132 0.549" stroke="hsl(0.0,100%,35%)" stroke-width="0.01175"></path>
<path d="M0.190 0.758 Q0.513 0.671 0.412 0.494" stroke="hsl(0.0,100%,35%)" stroke-width="0.01958"></path>
<path d="M0.190 0.758 Q0.377 0.773 0.446 0.684" stroke="hsl(0.0,100%,35%)" stroke-width="0.01763"></path>
<path d="M0.190 0.758 Q0.830 1.049 1.537 0.800" stroke="hsl(0.0,100%,35%)" stroke-width="0.00196"></path>
<path d="M0.190 0.758 Q0.815 0.918 1.264 0.648" stroke="hsl(0.0,100%,35%)" stroke-width="0.00196"></path>
<path d="M0.190 0.758 Q0.684 0.990 1.245 0.800" stroke="hsl(0.0,100%,35%)" stroke-width="0.01371"></path>
<path d="M1.245 0.800 Q1.223 0.888 1.391 0.918" stroke="hsl(180.0,100%,35%)" stroke-width="0.02938"></path>
<path d="M1.245 0.800 Q1.390 0.859 1.537 0.800" stroke="hsl(180.0,100%,35%)" stroke-width="0.00979"></path>
<path d="M1.245 0.800 Q1.352 0.329 0.457 0.173" stroke="hsl(180.0,100%,35%)" stroke-width="0.00392"></path>
<path d="M1.245 0.800 Q0.912 0.843 0.922 1.014" stroke="hsl(180.0,100%,35%)" stroke-width="0.00196"></path>
<path d="M1.245 0.800 Q0.938 0.583 0.446 0.684" stroke="hsl(180.0,100%,35%)" stroke-width="0.00196"></path>
<path d="M0.446 0.684 Q0.259 0.670 0.190 0.758" stroke="hsl(0.0,100%,35%)" stroke-width="0.01175"></path>
<path d="M0.446 0.684 Q0.334 0.787 0.508 0.864" stroke="hsl(0.0,100%,35%)" stroke-width="0.00588"></path>
<path d="M0.446 0.684 Q0.754 0.479 0.421 0.284" stroke="hsl(0.0,100%,35%)" stroke-width="0.00196"></path>
<path d="M0.446 0.684 Q0.420 0.945 0.922 1.014" stroke="hsl(0.0,100%,35%)" stroke-width="0.00196"></path>
<path d="M0.446 0.684 Q0.753 0.902 1.245 0.800" stroke="hsl(0.0,100%,35%)" stroke-width="0.00196"></path>
<path d="M0.446 0.684 Q0.861 0.431 0.457 0.173" stroke="hsl(0.0,100%,35%)" stroke-width="0.00196"></path>
<path d="M0.446 0.684 Q0.857 0.539 0.664 0.307" stroke="hsl(0.0,100%,35%)" stroke-width="0.00196"></path>
<path d="M0.457 0.173 Q-0.145 0.412 0.190 0.758" stroke="hsl(180.0,100%,35%)" stroke-width="0.01371"></path>
<path d="M0.457 0.173 Q0.043 0.427 0.446 0.684" stroke="hsl(180.0,100%,35%)" stroke-width="0.00196"></path>
<path d="M0.457 0.173 Q0.328 0.732 1.391 0.918" stroke="hsl(180.0,100%,35%)" stroke-width="0.00783"></path>
<path d="M0.457 0.173 Q0.349 0.644 1.245 0.800" stroke="hsl(180.0,100%,35%)" stroke-width="0.01763"></path>
<path d="M0.457 0.173 Q0.453 0.282 0.664 0.307" stroke="hsl(180.0,100%,35%)" stroke-width="0.00196"></path>
<path d="M0.457 0.173 Q0.611 0.177 0.652 0.102" stroke="hsl(180.0,100%,35%)" stroke-width="0.00196"></path>
<path d="M0.457 0.173 Q0.495 0.703 1.537 0.800" stroke="hsl(180.0,100%,35%)" stroke-width="0.00196"></path>
<path d="M0.818 0.209 Q0.666 0.119 0.457 0.173" stroke="hsl(180.0,100%,35%)" stroke-width="0.01175"></path>
<path d="M0.818 0.209 Q0.559 0.590 1.245 0.800" stroke="hsl(180.0,100%,35%)" stroke-width="0.00392"></path>
<path d="M0.818 0.209 Q0.744 0.283 0.871 0.335" stroke="hsl(180.0,100%,35%)" stroke-width="0.00196"></path>
<path d="M1.264 0.648 Q1.241 0.249 0.457 0.173" stroke="hsl(180.0,100%,35%)" stroke-width="0.00196"></path>
<path d="M1.264 0.648 Q1.133 0.720 1.245 0.800" stroke="hsl(180.0,100%,35%)" stroke-width="0.00196"></path>
<path d="M1.264 0.648 Q0.800 0.763 0.922 1.014" stroke="hsl(180.0,100%,35%)" stroke-width="0.00196"></path>
<path d="M0.132 0.549 Q-0.007 0.665 0.190 0.758" stroke="hsl(0.0,100%,35%)" stroke-width="0.00588"></path>
<path d="M0.132 0.549 Q0.316 0.577 0.412 0.494" stroke="hsl(0.0,100%,35%)" stroke-width="0.00392"></path>
<path d="M0.132 0.549 Q0.595 0.426 0.457 0.173" stroke="hsl(0.0,100%,35%)" stroke-width="0.00196"></path>
<path d="M1.391 0.918 Q1.412 0.830 1.245 0.800" stroke="hsl(180.0,100%,35%)" stroke-width="0.02350"></path>
<path d="M1.391 0.918 Q1.558 0.888 1.537 0.800" stroke="hsl(180.0,100%,35%)" stroke-width="0.01175"></path>
<path d="M1.391 0.918 Q1.520 0.359 0.457 0.173" stroke="hsl(180.0,100%,35%)" stroke-width="0.00783"></path>
<path d="M1.391 0.918 Q1.079 0.873 0.922 1.014" stroke="hsl(180.0,100%,35%)" stroke-width="0.00392"></path>
<path d="M1.391 0.918 Q0.918 0.598 0.190 0.758" stroke="hsl(180.0,100%,35%)" stroke-width="0.00196"></path>
<path d="M0.421 0.284 Q-0.074 0.475 0.190 0.758" stroke="hsl(0.0,100%,35%)" stroke-width="0.01763"></path>
<path d="M0.421 0.284 Q0.420 0.707 1.245 0.800" stroke="hsl(0.0,100%,35%)" stroke-width="0.00588"></path>
<path d="M0.421 0.284 Q0.113 0.490 0.446 0.684" stroke="hsl(0.0,100%,35%)" stroke-width="0.00196"></path>
<path d="M0.114 0.241 Q-0.262 0.515 0.190 0.758" stroke="hsl(180.0,100%,35%)" stroke-width="0.00196"></path>
<path d="M0.114 0.241 Q0.232 0.324 0.421 0.284" stroke="hsl(180.0,100%,35%)" stroke-width="0.00588"></path>
<path d="M0.114 0.241 Q0.363 0.674 1.264 0.648" stroke="hsl(180.0,100%,35%)" stroke-width="0.00196"></path>
<path d="M0.114 0.241 Q0.232 0.746 1.245 0.800" stroke="hsl(180.0,100%,35%)" stroke-width="0.00196"></path>
<path d="M0.839 0.469 Q0.885 0.245 0.457 0.173" stroke="hsl(180.0,100%,35%)" stroke-width="0.01371"></path>
<path d="M0.839 0.469 Q0.777 0.716 1.245 0.800" stroke="hsl(180.0,100%,35%)" stroke-width="0.01371"></path>
<path d="M0.839 0.469 Q0.283 0.484 0.190 0.758" stroke="hsl(180.0,100%,35%)" stroke-width="0.00392"></path>
<path d="M0.829 0.117 Q0.491 0.542 1.245 0.800" stroke="hsl(180.0,100%,35%)" stroke-width="0.01175"></path>
<path d="M0.829 0.117 Q0.599 0.071 0.457 0.173" stroke="hsl(180.0,100%,35%)" stroke-width="0.01175"></path>
<path d="M0.829 0.117 Q-0.003 0.310 0.190 0.758" stroke="hsl(180.0,100%,35%)" stroke-width="0.00196"></path>
<path d="M1.260 0.121 Q0.817 -0.013 0.457 0.173" stroke="hsl(180.0,100%,35%)" stroke-width="0.00196"></path>
<path d="M1.260 0.121 Q0.709 0.457 1.245 0.800" stroke="hsl(180.0,100%,35%)" stroke-width="0.00196"></path>
<path d="M1.260 0.121 Q1.159 0.160 1.212 0.217" stroke="hsl(180.0,100%,35%)" stroke-width="0.00196"></path>
</g>
<text x="0.508" y="0.838" font-size="0.051474" fill="hsl(0.0,100%,20%)">amaiorano</text>
<text x="0.190" y="0.711" font-size="0.094733" fill="hsl(0.0,100%,20%)">bclayton</text>
<text x="1.245" y="0.760" font-size="0.080064" fill="hsl(180.0,100%,20%)">enga</text>
<text x="0.446" y="0.660" font-size="0.048038" fill="hsl(0.0,100%,20%)">dsinclair</text>
<text x="0.457" y="0.134" font-size="0.077349" fill="hsl(180.0,100%,20%)">cwallez</text>
<text x="0.818" y="0.195" font-size="0.027735" fill="hsl(180.0,100%,20%)">arthursonzogni</text>
<text x="0.871" y="0.330" font-size="0.009245" fill="hsl(180.0,100%,20%)">khaslett</text>
<text x="1.264" y="0.638" font-size="0.020672" fill="hsl(180.0,100%,20%)">bajones</text>
<text x="0.922" y="1.004" font-size="0.020672" fill="hsl(180.0,100%,20%)">shrekshao</text>
<text x="0.132" y="0.533" font-size="0.032026" fill="hsl(0.0,100%,20%)">jrprice</text>
<text x="0.412" y="0.478" font-size="0.032026" fill="hsl(0.0,100%,20%)">dneto</text>
<text x="1.537" y="0.784" font-size="0.033333" fill="hsl(180.0,100%,20%)">kainino</text>
<text x="1.391" y="0.887" font-size="0.061324" fill="hsl(180.0,100%,20%)">lokokung</text>
<text x="0.664" y="0.301" font-size="0.013074" fill="hsl(180.0,100%,20%)">rharrison</text>
<text x="0.652" y="0.098" font-size="0.009245" fill="hsl(180.0,100%,20%)">blundell</text>
<text x="0.421" y="0.265" font-size="0.038118" fill="hsl(0.0,100%,20%)">senorblanco</text>
<text x="0.114" y="0.229" font-size="0.022646" fill="hsl(180.0,100%,20%)">gman</text>
<text x="0.839" y="0.451" font-size="0.036980" fill="hsl(180.0,100%,20%)">jiawei.shao</text>
<text x="0.829" y="0.101" font-size="0.033333" fill="hsl(180.0,100%,20%)">penghuang</text>
<text x="1.260" y="0.113" font-size="0.016013" fill="hsl(180.0,100%,20%)">shaobo.yan</text>
<text x="1.212" y="0.213" font-size="0.009245" fill="hsl(180.0,100%,20%)">sunnyps</text>
</svg>
