<svg width="4000" height="2000" viewBox="-0.025 -0.025 2.05 1.05" xmlns="http://www.w3.org/2000/svg">
  <style>
    path {
      fill: none;
      stroke-linecap: round;
      stroke-opacity: 0.4;
    }

    text {
      text-anchor: middle;
      alignment-baseline: hanging;
    }
  </style>
  <g opacity="0.4">
<path d="M0.444 0.070 Q0.478 0.112 0.567 0.105" stroke="hsl(0.0,100%,35%)" stroke-width="0.00527"></path>
<path d="M0.444 0.070 Q0.579 0.218 0.897 0.185" stroke="hsl(0.0,100%,35%)" stroke-width="0.00389"></path>
<path d="M0.444 0.070 Q0.542 0.335 1.081 0.346" stroke="hsl(0.0,100%,35%)" stroke-width="0.00023"></path>
<path d="M0.444 0.070 Q0.581 0.115 0.698 0.058" stroke="hsl(0.0,100%,35%)" stroke-width="0.00046"></path>
<path d="M0.567 0.105 Q0.835 0.201 1.080 0.091" stroke="hsl(0.0,100%,35%)" stroke-width="0.00206"></path>
<path d="M0.567 0.105 Q0.668 0.211 0.897 0.185" stroke="hsl(0.0,100%,35%)" stroke-width="0.01648"></path>
<path d="M0.567 0.105 Q0.631 0.328 1.081 0.346" stroke="hsl(0.0,100%,35%)" stroke-width="0.00160"></path>
<path d="M0.567 0.105 Q0.472 0.294 0.821 0.382" stroke="hsl(0.0,100%,35%)" stroke-width="0.00389"></path>
<path d="M0.567 0.105 Q-0.122 0.432 0.366 0.840" stroke="hsl(0.0,100%,35%)" stroke-width="0.00458"></path>
<path d="M0.567 0.105 Q-0.233 0.513 0.387 0.993" stroke="hsl(0.0,100%,35%)" stroke-width="0.00618"></path>
<path d="M0.567 0.105 Q0.533 0.063 0.444 0.070" stroke="hsl(0.0,100%,35%)" stroke-width="0.00069"></path>
<path d="M0.567 0.105 Q0.395 0.100 0.348 0.183" stroke="hsl(0.0,100%,35%)" stroke-width="0.00069"></path>
<path d="M0.567 0.105 Q0.724 0.278 1.097 0.240" stroke="hsl(0.0,100%,35%)" stroke-width="0.00046"></path>
<path d="M0.897 0.185 Q1.064 0.175 1.080 0.091" stroke="hsl(0.0,100%,35%)" stroke-width="0.04762"></path>
<path d="M0.897 0.185 Q0.861 0.302 1.081 0.346" stroke="hsl(0.0,100%,35%)" stroke-width="0.06044"></path>
<path d="M0.897 0.185 Q0.775 0.200 0.775 0.263" stroke="hsl(0.0,100%,35%)" stroke-width="0.00183"></path>
<path d="M0.897 0.185 Q0.701 0.269 0.821 0.382" stroke="hsl(0.0,100%,35%)" stroke-width="0.05563"></path>
<path d="M0.897 0.185 Q-0.004 0.487 0.387 0.993" stroke="hsl(0.0,100%,35%)" stroke-width="0.02907"></path>
<path d="M0.897 0.185 Q0.797 0.079 0.567 0.105" stroke="hsl(0.0,100%,35%)" stroke-width="0.00710"></path>
<path d="M0.897 0.185 Q0.267 0.505 0.752 0.882" stroke="hsl(0.0,100%,35%)" stroke-width="0.00046"></path>
<path d="M0.897 0.185 Q0.108 0.407 0.366 0.840" stroke="hsl(0.0,100%,35%)" stroke-width="0.01374"></path>
<path d="M0.897 0.185 Q0.716 0.134 0.576 0.211" stroke="hsl(0.0,100%,35%)" stroke-width="0.00114"></path>
<path d="M0.897 0.185 Q0.899 0.082 0.698 0.058" stroke="hsl(0.0,100%,35%)" stroke-width="0.00046"></path>
<path d="M0.897 0.185 Q0.117 0.280 0.131 0.681" stroke="hsl(0.0,100%,35%)" stroke-width="0.00023"></path>
<path d="M0.897 0.185 Q0.652 0.111 0.452 0.214" stroke="hsl(0.0,100%,35%)" stroke-width="0.00023"></path>
<path d="M0.897 0.185 Q0.353 0.420 0.692 0.737" stroke="hsl(0.0,100%,35%)" stroke-width="0.00023"></path>
<path d="M0.897 0.185 Q1.029 0.311 1.303 0.274" stroke="hsl(0.0,100%,35%)" stroke-width="0.00046"></path>
<path d="M0.897 0.185 Q0.953 0.253 1.097 0.240" stroke="hsl(0.0,100%,35%)" stroke-width="0.00366"></path>
<path d="M1.081 0.346 Q1.117 0.229 0.897 0.185" stroke="hsl(0.0,100%,35%)" stroke-width="0.03365"></path>
<path d="M1.081 0.346 Q0.921 0.312 0.821 0.382" stroke="hsl(0.0,100%,35%)" stroke-width="0.00320"></path>
<path d="M1.081 0.346 Q1.284 0.218 1.080 0.091" stroke="hsl(0.0,100%,35%)" stroke-width="0.00343"></path>
<path d="M1.081 0.346 Q0.216 0.530 0.387 0.993" stroke="hsl(0.0,100%,35%)" stroke-width="0.00206"></path>
<path d="M1.081 0.346 Q0.328 0.450 0.366 0.840" stroke="hsl(0.0,100%,35%)" stroke-width="0.00069"></path>
<path d="M0.698 0.058 Q0.595 0.055 0.567 0.105" stroke="hsl(0.0,100%,35%)" stroke-width="0.00092"></path>
<path d="M0.698 0.058 Q0.695 0.162 0.897 0.185" stroke="hsl(0.0,100%,35%)" stroke-width="0.00137"></path>
<path d="M0.698 0.058 Q0.561 0.014 0.444 0.070" stroke="hsl(0.0,100%,35%)" stroke-width="0.00046"></path>
<path d="M0.698 0.058 Q0.450 0.087 0.452 0.214" stroke="hsl(0.0,100%,35%)" stroke-width="0.00046"></path>
<path d="M0.698 0.058 Q0.863 0.151 1.080 0.091" stroke="hsl(0.0,100%,35%)" stroke-width="0.00023"></path>
<path d="M0.214 0.879 Q0.321 0.890 0.366 0.840" stroke="hsl(180.0,100%,35%)" stroke-width="0.00023"></path>
<path d="M0.214 0.879 Q0.210 0.971 0.387 0.993" stroke="hsl(180.0,100%,35%)" stroke-width="0.00046"></path>
<path d="M0.214 0.879 Q1.110 0.669 0.897 0.185" stroke="hsl(180.0,100%,35%)" stroke-width="0.00023"></path>
<path d="M0.366 0.840 Q0.437 0.914 0.596 0.895" stroke="hsl(180.0,100%,35%)" stroke-width="0.00092"></path>
<path d="M0.366 0.840 Q0.255 0.921 0.387 0.993" stroke="hsl(180.0,100%,35%)" stroke-width="0.01625"></path>
<path d="M0.366 0.840 Q1.155 0.619 0.897 0.185" stroke="hsl(180.0,100%,35%)" stroke-width="0.00320"></path>
<path d="M0.366 0.840 Q0.376 0.714 0.131 0.681" stroke="hsl(180.0,100%,35%)" stroke-width="0.00412"></path>
<path d="M0.366 0.840 Q0.527 0.909 0.698 0.846" stroke="hsl(180.0,100%,35%)" stroke-width="0.00527"></path>
<path d="M0.366 0.840 Q0.526 0.938 0.752 0.882" stroke="hsl(180.0,100%,35%)" stroke-width="0.00252"></path>
<path d="M0.366 0.840 Q0.176 0.845 0.145 0.939" stroke="hsl(180.0,100%,35%)" stroke-width="0.00389"></path>
<path d="M0.366 0.840 Q0.319 0.953 0.528 1.000" stroke="hsl(180.0,100%,35%)" stroke-width="0.00046"></path>
<path d="M0.366 0.840 Q1.119 0.736 1.081 0.346" stroke="hsl(180.0,100%,35%)" stroke-width="0.00023"></path>
<path d="M0.366 0.840 Q1.055 0.513 0.567 0.105" stroke="hsl(180.0,100%,35%)" stroke-width="0.00046"></path>
<path d="M0.366 0.840 Q0.960 0.702 0.821 0.382" stroke="hsl(180.0,100%,35%)" stroke-width="0.00092"></path>
<path d="M0.366 0.840 Q0.846 0.741 0.758 0.486" stroke="hsl(180.0,100%,35%)" stroke-width="0.00046"></path>
<path d="M0.366 0.840 Q1.322 0.609 1.080 0.091" stroke="hsl(180.0,100%,35%)" stroke-width="0.00023"></path>
<path d="M0.366 0.840 Q1.033 0.633 0.775 0.263" stroke="hsl(180.0,100%,35%)" stroke-width="0.00458"></path>
<path d="M0.366 0.840 Q0.394 0.766 0.255 0.736" stroke="hsl(180.0,100%,35%)" stroke-width="0.00069"></path>
<path d="M0.366 0.840 Q0.547 0.842 0.590 0.754" stroke="hsl(180.0,100%,35%)" stroke-width="0.00023"></path>
<path d="M0.366 0.840 Q0.334 0.968 0.577 1.012" stroke="hsl(180.0,100%,35%)" stroke-width="0.00114"></path>
<path d="M0.387 0.993 Q0.660 0.981 0.698 0.846" stroke="hsl(180.0,100%,35%)" stroke-width="0.00435"></path>
<path d="M0.387 0.993 Q0.498 0.912 0.366 0.840" stroke="hsl(180.0,100%,35%)" stroke-width="0.02770"></path>
<path d="M0.387 0.993 Q0.658 1.010 0.752 0.882" stroke="hsl(180.0,100%,35%)" stroke-width="0.00824"></path>
<path d="M0.387 0.993 Q1.288 0.691 0.897 0.185" stroke="hsl(180.0,100%,35%)" stroke-width="0.01351"></path>
<path d="M0.387 0.993 Q1.092 0.774 0.821 0.382" stroke="hsl(180.0,100%,35%)" stroke-width="0.00046"></path>
<path d="M0.387 0.993 Q1.187 0.585 0.567 0.105" stroke="hsl(180.0,100%,35%)" stroke-width="0.00206"></path>
<path d="M0.387 0.993 Q0.508 0.786 0.131 0.681" stroke="hsl(180.0,100%,35%)" stroke-width="0.00229"></path>
<path d="M0.387 0.993 Q0.451 1.025 0.528 1.000" stroke="hsl(180.0,100%,35%)" stroke-width="0.00023"></path>
<path d="M0.387 0.993 Q0.741 1.012 0.856 0.844" stroke="hsl(180.0,100%,35%)" stroke-width="0.00046"></path>
<path d="M0.387 0.993 Q0.228 1.179 0.557 1.298" stroke="hsl(180.0,100%,35%)" stroke-width="0.00023"></path>
<path d="M0.387 0.993 Q0.354 0.888 0.143 0.882" stroke="hsl(180.0,100%,35%)" stroke-width="0.00023"></path>
<path d="M0.387 0.993 Q1.165 0.705 0.775 0.263" stroke="hsl(180.0,100%,35%)" stroke-width="0.00572"></path>
<path d="M0.387 0.993 Q0.569 0.986 0.596 0.895" stroke="hsl(180.0,100%,35%)" stroke-width="0.00023"></path>
<path d="M0.387 0.993 Q0.309 0.917 0.145 0.939" stroke="hsl(180.0,100%,35%)" stroke-width="0.00275"></path>
<path d="M0.387 0.993 Q0.838 0.786 0.534 0.521" stroke="hsl(180.0,100%,35%)" stroke-width="0.00023"></path>
<path d="M0.387 0.993 Q0.450 1.119 0.711 1.116" stroke="hsl(180.0,100%,35%)" stroke-width="0.00023"></path>
<path d="M0.387 0.993 Q1.455 0.680 1.080 0.091" stroke="hsl(180.0,100%,35%)" stroke-width="0.00023"></path>
<path d="M0.387 0.993 Q1.015 0.580 0.348 0.183" stroke="hsl(180.0,100%,35%)" stroke-width="0.00023"></path>
<path d="M0.387 0.993 Q0.616 0.973 0.629 0.857" stroke="hsl(180.0,100%,35%)" stroke-width="0.00046"></path>
<path d="M0.387 0.993 Q1.251 0.808 1.081 0.346" stroke="hsl(180.0,100%,35%)" stroke-width="0.00023"></path>
<path d="M0.200 0.848 Q0.178 0.957 0.387 0.993" stroke="hsl(180.0,100%,35%)" stroke-width="0.00023"></path>
<path d="M0.200 0.848 Q0.289 0.877 0.366 0.840" stroke="hsl(180.0,100%,35%)" stroke-width="0.00046"></path>
<path d="M0.200 0.848 Q1.078 0.656 0.897 0.185" stroke="hsl(180.0,100%,35%)" stroke-width="0.00023"></path>
<path d="M0.821 0.382 Q1.016 0.299 0.897 0.185" stroke="hsl(0.0,100%,35%)" stroke-width="0.04464"></path>
<path d="M0.821 0.382 Q0.237 0.394 0.131 0.681" stroke="hsl(0.0,100%,35%)" stroke-width="0.00046"></path>
<path d="M0.821 0.382 Q1.183 0.289 1.080 0.091" stroke="hsl(0.0,100%,35%)" stroke-width="0.00229"></path>
<path d="M0.821 0.382 Q0.116 0.601 0.387 0.993" stroke="hsl(0.0,100%,35%)" stroke-width="0.00343"></path>
<path d="M0.821 0.382 Q0.980 0.416 1.081 0.346" stroke="hsl(0.0,100%,35%)" stroke-width="0.00229"></path>
<path d="M0.821 0.382 Q0.227 0.520 0.366 0.840" stroke="hsl(0.0,100%,35%)" stroke-width="0.00160"></path>
<path d="M0.821 0.382 Q0.836 0.248 0.576 0.211" stroke="hsl(0.0,100%,35%)" stroke-width="0.00046"></path>
<path d="M0.821 0.382 Q0.916 0.193 0.567 0.105" stroke="hsl(0.0,100%,35%)" stroke-width="0.00114"></path>
<path d="M0.821 0.382 Q0.387 0.619 0.752 0.882" stroke="hsl(0.0,100%,35%)" stroke-width="0.00023"></path>
<path d="M1.080 0.091 Q0.913 0.102 0.897 0.185" stroke="hsl(0.0,100%,35%)" stroke-width="0.01671"></path>
<path d="M1.080 0.091 Q0.124 0.323 0.366 0.840" stroke="hsl(0.0,100%,35%)" stroke-width="0.00023"></path>
<path d="M1.080 0.091 Q0.877 0.218 1.081 0.346" stroke="hsl(0.0,100%,35%)" stroke-width="0.00320"></path>
<path d="M1.080 0.091 Q0.718 0.185 0.821 0.382" stroke="hsl(0.0,100%,35%)" stroke-width="0.01236"></path>
<path d="M1.080 0.091 Q1.045 0.227 1.303 0.274" stroke="hsl(0.0,100%,35%)" stroke-width="0.00893"></path>
<path d="M1.080 0.091 Q0.013 0.403 0.387 0.993" stroke="hsl(0.0,100%,35%)" stroke-width="0.00023"></path>
<path d="M1.080 0.091 Q0.813 -0.005 0.567 0.105" stroke="hsl(0.0,100%,35%)" stroke-width="0.00046"></path>
<path d="M0.752 0.882 Q0.481 0.864 0.387 0.993" stroke="hsl(180.0,100%,35%)" stroke-width="0.00733"></path>
<path d="M0.752 0.882 Q0.593 0.784 0.366 0.840" stroke="hsl(180.0,100%,35%)" stroke-width="0.00778"></path>
<path d="M0.752 0.882 Q1.382 0.563 0.897 0.185" stroke="hsl(180.0,100%,35%)" stroke-width="0.00046"></path>
<path d="M0.752 0.882 Q0.602 0.657 0.131 0.681" stroke="hsl(180.0,100%,35%)" stroke-width="0.00481"></path>
<path d="M0.752 0.882 Q1.187 0.646 0.821 0.382" stroke="hsl(180.0,100%,35%)" stroke-width="0.00023"></path>
<path d="M0.752 0.882 Q0.959 0.887 1.014 0.788" stroke="hsl(180.0,100%,35%)" stroke-width="0.00023"></path>
<path d="M0.131 0.681 Q0.122 0.808 0.366 0.840" stroke="hsl(180.0,100%,35%)" stroke-width="0.00206"></path>
<path d="M0.131 0.681 Q0.283 0.877 0.698 0.846" stroke="hsl(180.0,100%,35%)" stroke-width="0.00046"></path>
<path d="M0.131 0.681 Q0.010 0.888 0.387 0.993" stroke="hsl(180.0,100%,35%)" stroke-width="0.00092"></path>
<path d="M0.131 0.681 Q0.281 0.906 0.752 0.882" stroke="hsl(180.0,100%,35%)" stroke-width="0.00023"></path>
<path d="M0.775 0.263 Q0.109 0.470 0.366 0.840" stroke="hsl(0.0,100%,35%)" stroke-width="0.00481"></path>
<path d="M0.775 0.263 Q0.898 0.248 0.897 0.185" stroke="hsl(0.0,100%,35%)" stroke-width="0.01213"></path>
<path d="M0.775 0.263 Q-0.003 0.550 0.387 0.993" stroke="hsl(0.0,100%,35%)" stroke-width="0.00275"></path>
<path d="M0.775 0.263 Q1.065 0.238 1.080 0.091" stroke="hsl(0.0,100%,35%)" stroke-width="0.00069"></path>
<path d="M0.775 0.263 Q0.702 0.332 0.821 0.382" stroke="hsl(0.0,100%,35%)" stroke-width="0.00069"></path>
<path d="M0.775 0.263 Q0.118 0.343 0.131 0.681" stroke="hsl(0.0,100%,35%)" stroke-width="0.00069"></path>
<path d="M0.576 0.211 Q0.757 0.262 0.897 0.185" stroke="hsl(0.0,100%,35%)" stroke-width="0.00801"></path>
<path d="M0.576 0.211 Q0.721 0.379 1.081 0.346" stroke="hsl(0.0,100%,35%)" stroke-width="0.00343"></path>
<path d="M0.576 0.211 Q0.562 0.345 0.821 0.382" stroke="hsl(0.0,100%,35%)" stroke-width="0.00160"></path>
<path d="M0.576 0.211 Q-0.023 0.357 0.131 0.681" stroke="hsl(0.0,100%,35%)" stroke-width="0.00046"></path>
<path d="M0.692 0.737 Q0.608 0.793 0.698 0.846" stroke="hsl(180.0,100%,35%)" stroke-width="0.00023"></path>
<path d="M0.692 0.737 Q0.447 0.724 0.366 0.840" stroke="hsl(180.0,100%,35%)" stroke-width="0.00298"></path>
<path d="M0.692 0.737 Q0.336 0.804 0.387 0.993" stroke="hsl(180.0,100%,35%)" stroke-width="0.00206"></path>
<path d="M0.692 0.737 Q0.456 0.597 0.131 0.681" stroke="hsl(180.0,100%,35%)" stroke-width="0.00046"></path>
<path d="M0.692 0.737 Q1.236 0.502 0.897 0.185" stroke="hsl(180.0,100%,35%)" stroke-width="0.00229"></path>
<path d="M0.692 0.737 Q1.136 0.396 0.567 0.105" stroke="hsl(180.0,100%,35%)" stroke-width="0.00023"></path>
<path d="M0.692 0.737 Q1.403 0.492 1.080 0.091" stroke="hsl(180.0,100%,35%)" stroke-width="0.00023"></path>
<path d="M0.692 0.737 Q0.927 0.625 0.758 0.486" stroke="hsl(180.0,100%,35%)" stroke-width="0.00046"></path>
<path d="M1.097 0.240 Q1.041 0.173 0.897 0.185" stroke="hsl(0.0,100%,35%)" stroke-width="0.00069"></path>
<path d="M1.097 0.240 Q0.940 0.067 0.567 0.105" stroke="hsl(0.0,100%,35%)" stroke-width="0.00092"></path>
<path d="M1.097 0.240 Q0.251 0.394 0.366 0.840" stroke="hsl(0.0,100%,35%)" stroke-width="0.00023"></path>
<path d="M0.856 0.844 Q0.502 0.824 0.387 0.993" stroke="hsl(180.0,100%,35%)" stroke-width="0.00092"></path>
<path d="M0.856 0.844 Q0.614 0.744 0.366 0.840" stroke="hsl(180.0,100%,35%)" stroke-width="0.00023"></path>
<path d="M0.856 0.844 Q0.773 0.842 0.752 0.882" stroke="hsl(180.0,100%,35%)" stroke-width="0.00023"></path>
<path d="M0.698 0.846 Q0.546 0.650 0.131 0.681" stroke="hsl(180.0,100%,35%)" stroke-width="0.00069"></path>
<path d="M0.698 0.846 Q0.536 0.777 0.366 0.840" stroke="hsl(180.0,100%,35%)" stroke-width="0.00527"></path>
<path d="M0.698 0.846 Q0.425 0.857 0.387 0.993" stroke="hsl(180.0,100%,35%)" stroke-width="0.00275"></path>
<path d="M0.255 0.736 Q0.227 0.810 0.366 0.840" stroke="hsl(180.0,100%,35%)" stroke-width="0.00275"></path>
<path d="M0.255 0.736 Q0.115 0.891 0.387 0.993" stroke="hsl(180.0,100%,35%)" stroke-width="0.00229"></path>
<path d="M0.255 0.736 Q0.706 0.711 0.758 0.486" stroke="hsl(180.0,100%,35%)" stroke-width="0.00046"></path>
<path d="M0.472 0.850 Q0.316 0.904 0.387 0.993" stroke="hsl(180.0,100%,35%)" stroke-width="0.00160"></path>
<path d="M0.472 0.850 Q0.427 0.824 0.366 0.840" stroke="hsl(180.0,100%,35%)" stroke-width="0.00069"></path>
<path d="M0.472 0.850 Q0.907 0.725 0.758 0.486" stroke="hsl(180.0,100%,35%)" stroke-width="0.00023"></path>
<path d="M0.528 1.000 Q0.575 0.888 0.366 0.840" stroke="hsl(180.0,100%,35%)" stroke-width="0.00366"></path>
<path d="M0.528 1.000 Q0.464 0.968 0.387 0.993" stroke="hsl(180.0,100%,35%)" stroke-width="0.00504"></path>
<path d="M0.528 1.000 Q0.735 0.986 0.752 0.882" stroke="hsl(180.0,100%,35%)" stroke-width="0.00023"></path>
<path d="M0.528 1.000 Q0.385 0.893 0.145 0.939" stroke="hsl(180.0,100%,35%)" stroke-width="0.00137"></path>
<path d="M0.143 0.882 Q0.288 0.906 0.366 0.840" stroke="hsl(180.0,100%,35%)" stroke-width="0.00114"></path>
<path d="M0.143 0.882 Q0.176 0.986 0.387 0.993" stroke="hsl(180.0,100%,35%)" stroke-width="0.00069"></path>
<path d="M0.143 0.882 Q0.977 0.578 0.567 0.105" stroke="hsl(180.0,100%,35%)" stroke-width="0.00023"></path>
<path d="M0.143 0.882 Q1.077 0.684 0.897 0.185" stroke="hsl(180.0,100%,35%)" stroke-width="0.00046"></path>
<path d="M0.143 0.882 Q1.244 0.674 1.080 0.091" stroke="hsl(180.0,100%,35%)" stroke-width="0.00023"></path>
<path d="M0.596 0.895 Q0.525 0.822 0.366 0.840" stroke="hsl(180.0,100%,35%)" stroke-width="0.00458"></path>
<path d="M0.596 0.895 Q0.535 0.695 0.131 0.681" stroke="hsl(180.0,100%,35%)" stroke-width="0.00069"></path>
<path d="M0.596 0.895 Q1.315 0.601 0.897 0.185" stroke="hsl(180.0,100%,35%)" stroke-width="0.00046"></path>
<path d="M0.596 0.895 Q0.414 0.902 0.387 0.993" stroke="hsl(180.0,100%,35%)" stroke-width="0.00229"></path>
<path d="M0.596 0.895 Q1.119 0.684 0.821 0.382" stroke="hsl(180.0,100%,35%)" stroke-width="0.00023"></path>
<path d="M0.596 0.895 Q1.214 0.494 0.567 0.105" stroke="hsl(180.0,100%,35%)" stroke-width="0.00046"></path>
<path d="M0.145 0.939 Q0.494 1.032 0.752 0.882" stroke="hsl(180.0,100%,35%)" stroke-width="0.00023"></path>
<path d="M0.145 0.939 Q0.335 0.934 0.366 0.840" stroke="hsl(180.0,100%,35%)" stroke-width="0.01213"></path>
<path d="M0.145 0.939 Q0.223 1.014 0.387 0.993" stroke="hsl(180.0,100%,35%)" stroke-width="0.01168"></path>
<path d="M0.145 0.939 Q0.496 1.003 0.698 0.846" stroke="hsl(180.0,100%,35%)" stroke-width="0.00023"></path>
<path d="M0.145 0.939 Q0.524 0.938 0.605 0.753" stroke="hsl(180.0,100%,35%)" stroke-width="0.00023"></path>
<path d="M0.145 0.939 Q0.490 0.902 0.494 0.726" stroke="hsl(180.0,100%,35%)" stroke-width="0.00023"></path>
<path d="M0.145 0.939 Q1.001 0.727 0.775 0.263" stroke="hsl(180.0,100%,35%)" stroke-width="0.00046"></path>
<path d="M0.145 0.939 Q0.344 0.808 0.131 0.681" stroke="hsl(180.0,100%,35%)" stroke-width="0.00046"></path>
<path d="M0.145 0.939 Q1.023 0.607 0.567 0.105" stroke="hsl(180.0,100%,35%)" stroke-width="0.00046"></path>
<path d="M0.145 0.939 Q1.124 0.713 0.897 0.185" stroke="hsl(180.0,100%,35%)" stroke-width="0.00023"></path>
<path d="M0.145 0.939 Q0.362 0.859 0.255 0.736" stroke="hsl(180.0,100%,35%)" stroke-width="0.00023"></path>
<path d="M0.145 0.939 Q0.580 0.948 0.692 0.737" stroke="hsl(180.0,100%,35%)" stroke-width="0.00023"></path>
<path d="M0.534 0.521 Q0.005 0.652 0.145 0.939" stroke="hsl(180.0,100%,35%)" stroke-width="0.00069"></path>
<path d="M0.534 0.521 Q0.195 0.647 0.366 0.840" stroke="hsl(180.0,100%,35%)" stroke-width="0.00092"></path>
<path d="M0.534 0.521 Q0.083 0.727 0.387 0.993" stroke="hsl(180.0,100%,35%)" stroke-width="0.00046"></path>
<path d="M0.534 0.521 Q0.674 0.548 0.758 0.486" stroke="hsl(180.0,100%,35%)" stroke-width="0.00046"></path>
<path d="M0.711 1.116 Q0.647 0.989 0.387 0.993" stroke="hsl(180.0,100%,35%)" stroke-width="0.00046"></path>
<path d="M0.711 1.116 Q0.759 0.909 0.366 0.840" stroke="hsl(180.0,100%,35%)" stroke-width="0.00023"></path>
<path d="M0.577 1.012 Q0.498 0.964 0.387 0.993" stroke="hsl(180.0,100%,35%)" stroke-width="0.00710"></path>
<path d="M0.577 1.012 Q0.609 0.884 0.366 0.840" stroke="hsl(180.0,100%,35%)" stroke-width="0.00824"></path>
<path d="M0.577 1.012 Q0.618 0.758 0.131 0.681" stroke="hsl(180.0,100%,35%)" stroke-width="0.00114"></path>
<path d="M0.577 1.012 Q0.419 0.889 0.145 0.939" stroke="hsl(180.0,100%,35%)" stroke-width="0.00137"></path>
<path d="M1.150 0.663 Q1.365 0.636 1.358 0.525" stroke="hsl(180.0,100%,35%)" stroke-width="0.00023"></path>
<path d="M1.150 0.663 Q0.569 0.802 0.711 1.116" stroke="hsl(180.0,100%,35%)" stroke-width="0.00023"></path>
<path d="M1.150 0.663 Q0.505 0.675 0.387 0.993" stroke="hsl(180.0,100%,35%)" stroke-width="0.00023"></path>
<path d="M0.605 0.753 Q0.829 0.734 0.842 0.620" stroke="hsl(180.0,100%,35%)" stroke-width="0.00023"></path>
<path d="M0.605 0.753 Q0.425 0.622 0.131 0.681" stroke="hsl(180.0,100%,35%)" stroke-width="0.00114"></path>
<path d="M0.605 0.753 Q0.304 0.829 0.387 0.993" stroke="hsl(180.0,100%,35%)" stroke-width="0.00389"></path>
<path d="M0.605 0.753 Q0.416 0.749 0.366 0.840" stroke="hsl(180.0,100%,35%)" stroke-width="0.00275"></path>
<path d="M0.605 0.753 Q0.226 0.754 0.145 0.939" stroke="hsl(180.0,100%,35%)" stroke-width="0.00046"></path>
<path d="M0.605 0.753 Q1.205 0.528 0.897 0.185" stroke="hsl(180.0,100%,35%)" stroke-width="0.00023"></path>
<path d="M0.494 0.726 Q0.227 0.838 0.387 0.993" stroke="hsl(180.0,100%,35%)" stroke-width="0.00252"></path>
<path d="M0.494 0.726 Q0.338 0.758 0.366 0.840" stroke="hsl(180.0,100%,35%)" stroke-width="0.00206"></path>
<path d="M0.494 0.726 Q0.348 0.631 0.131 0.681" stroke="hsl(180.0,100%,35%)" stroke-width="0.00046"></path>
<path d="M0.233 0.706 Q0.081 0.880 0.387 0.993" stroke="hsl(180.0,100%,35%)" stroke-width="0.00114"></path>
<path d="M0.233 0.706 Q0.192 0.800 0.366 0.840" stroke="hsl(180.0,100%,35%)" stroke-width="0.00114"></path>
<path d="M0.233 0.706 Q0.002 0.805 0.145 0.939" stroke="hsl(180.0,100%,35%)" stroke-width="0.00023"></path>
<path d="M1.025 0.955 Q0.676 0.846 0.387 0.993" stroke="hsl(180.0,100%,35%)" stroke-width="0.00275"></path>
<path d="M1.025 0.955 Q0.787 0.766 0.366 0.840" stroke="hsl(180.0,100%,35%)" stroke-width="0.00229"></path>
<path d="M1.025 0.955 Q1.023 0.822 0.763 0.794" stroke="hsl(180.0,100%,35%)" stroke-width="0.00023"></path>
<path d="M1.025 0.955 Q0.597 0.771 0.145 0.939" stroke="hsl(180.0,100%,35%)" stroke-width="0.00069"></path>
<path d="M0.606 0.896 Q1.220 0.493 0.567 0.105" stroke="hsl(180.0,100%,35%)" stroke-width="0.00023"></path>
<path d="M0.606 0.896 Q0.420 0.901 0.387 0.993" stroke="hsl(180.0,100%,35%)" stroke-width="0.00046"></path>
<path d="M0.606 0.896 Q0.540 0.694 0.131 0.681" stroke="hsl(180.0,100%,35%)" stroke-width="0.00023"></path>
<path d="M0.606 0.896 Q0.531 0.820 0.366 0.840" stroke="hsl(180.0,100%,35%)" stroke-width="0.00023"></path>
<path d="M0.926 0.687 Q0.685 0.721 0.698 0.846" stroke="hsl(180.0,100%,35%)" stroke-width="0.00046"></path>
<path d="M0.926 0.687 Q0.524 0.652 0.366 0.840" stroke="hsl(180.0,100%,35%)" stroke-width="0.00069"></path>
<path d="M0.926 0.687 Q0.412 0.732 0.387 0.993" stroke="hsl(180.0,100%,35%)" stroke-width="0.00023"></path>
<path d="M1.637 0.926 Q1.875 0.873 1.823 0.745" stroke="hsl(180.0,100%,35%)" stroke-width="0.00023"></path>
<path d="M1.637 0.926 Q1.070 0.629 0.366 0.840" stroke="hsl(180.0,100%,35%)" stroke-width="0.00023"></path>
<path d="M0.793 0.548 Q0.346 0.608 0.366 0.840" stroke="hsl(180.0,100%,35%)" stroke-width="0.00092"></path>
<path d="M0.793 0.548 Q0.234 0.689 0.387 0.993" stroke="hsl(180.0,100%,35%)" stroke-width="0.00137"></path>
<path d="M0.793 0.548 Q0.355 0.482 0.131 0.681" stroke="hsl(180.0,100%,35%)" stroke-width="0.00023"></path>
<path d="M0.740 -1.588 Q-0.700 -0.776 0.567 0.105" stroke="hsl(180.0,100%,35%)" stroke-width="0.00046"></path>
<path d="M0.740 -1.588 Q-1.501 -0.368 0.387 0.993" stroke="hsl(180.0,100%,35%)" stroke-width="0.00046"></path>
<path d="M0.740 -1.588 Q-0.600 -0.670 0.897 0.185" stroke="hsl(180.0,100%,35%)" stroke-width="0.00023"></path>
<path d="M0.723 1.096 Q0.638 0.977 0.387 0.993" stroke="hsl(180.0,100%,35%)" stroke-width="0.00069"></path>
<path d="M0.723 1.096 Q0.560 0.902 0.145 0.939" stroke="hsl(180.0,100%,35%)" stroke-width="0.00046"></path>
<path d="M0.723 1.096 Q0.749 0.897 0.366 0.840" stroke="hsl(180.0,100%,35%)" stroke-width="0.00023"></path>
</g>
<text x="0.444" y="0.062" font-size="0.017457" fill="hsl(0.0,100%,20%)">afdx</text>
<text x="0.567" y="0.085" font-size="0.039761" fill="hsl(0.0,100%,20%)">rharrison</text>
<text x="0.897" y="0.134" font-size="0.102848" fill="hsl(0.0,100%,20%)">bclayton</text>
<text x="1.081" y="0.317" font-size="0.056400" fill="hsl(0.0,100%,20%)">amaiorano</text>
<text x="0.698" y="0.053" font-size="0.010983" fill="hsl(0.0,100%,20%)">vasniktel</text>
<text x="0.214" y="0.877" font-size="0.005040" fill="hsl(180.0,100%,20%)">aleksi</text>
<text x="0.366" y="0.807" font-size="0.067236" fill="hsl(180.0,100%,20%)">enga</text>
<text x="0.387" y="0.956" font-size="0.072637" fill="hsl(180.0,100%,20%)">cwallez</text>
<text x="0.200" y="0.845" font-size="0.005040" fill="hsl(180.0,100%,20%)">aleksi.sapon</text>
<text x="0.821" y="0.352" font-size="0.061360" fill="hsl(0.0,100%,20%)">jrprice</text>
<text x="1.080" y="0.065" font-size="0.052493" fill="hsl(0.0,100%,20%)">dneto</text>
<text x="0.752" y="0.867" font-size="0.030342" fill="hsl(180.0,100%,20%)">bajones</text>
<text x="0.131" y="0.669" font-size="0.024817" fill="hsl(180.0,100%,20%)">kainino</text>
<text x="1.014" y="0.786" font-size="0.002520" fill="hsl(180.0,100%,20%)">headlessclayton</text>
<text x="0.775" y="0.247" font-size="0.030861" fill="hsl(0.0,100%,20%)">senorblanco</text>
<text x="0.576" y="0.201" font-size="0.020471" fill="hsl(0.0,100%,20%)">sarahmashay</text>
<text x="0.452" y="0.212" font-size="0.004364" fill="hsl(0.0,100%,20%)">allydonaldson</text>
<text x="0.692" y="0.729" font-size="0.016134" fill="hsl(180.0,100%,20%)">brandon1.jones</text>
<text x="1.303" y="0.266" font-size="0.016134" fill="hsl(0.0,100%,20%)">alanbaker</text>
<text x="1.097" y="0.234" font-size="0.012848" fill="hsl(0.0,100%,20%)">dsinclair</text>
<text x="0.856" y="0.840" font-size="0.007127" fill="hsl(180.0,100%,20%)">beaufort.francois</text>
<text x="0.698" y="0.834" font-size="0.023367" fill="hsl(180.0,100%,20%)">lokokung</text>
<text x="0.758" y="0.482" font-size="0.007559" fill="hsl(180.0,100%,20%)">rafael.cintron</text>
<text x="0.255" y="0.729" font-size="0.013333" fill="hsl(180.0,100%,20%)">bryan.bernhart</text>
<text x="0.472" y="0.846" font-size="0.008357" fill="hsl(180.0,100%,20%)">cjj19970505</text>
<text x="0.528" y="0.992" font-size="0.017638" fill="hsl(180.0,100%,20%)">hao.x.li</text>
<text x="0.557" y="1.296" font-size="0.002520" fill="hsl(180.0,100%,20%)">fbeaufort</text>
<text x="0.143" y="0.877" font-size="0.009085" fill="hsl(180.0,100%,20%)">rockot</text>
<text x="0.596" y="0.887" font-size="0.016523" fill="hsl(180.0,100%,20%)">shrekshao</text>
<text x="0.145" y="0.923" font-size="0.032854" fill="hsl(180.0,100%,20%)">jiawei.shao</text>
<text x="0.534" y="0.517" font-size="0.008729" fill="hsl(180.0,100%,20%)">jiajia.qin</text>
<text x="0.711" y="1.113" font-size="0.005634" fill="hsl(180.0,100%,20%)">thakis</text>
<text x="0.348" y="0.180" font-size="0.005040" fill="hsl(0.0,100%,20%)">jmadill</text>
<text x="0.629" y="0.856" font-size="0.003563" fill="hsl(180.0,100%,20%)">penghuang</text>
<text x="0.590" y="0.753" font-size="0.002520" fill="hsl(180.0,100%,20%)">hob</text>
<text x="0.577" y="1.001" font-size="0.022956" fill="hsl(180.0,100%,20%)">yunchao.he</text>
<text x="1.150" y="0.661" font-size="0.004364" fill="hsl(180.0,100%,20%)">hans</text>
<text x="1.358" y="0.524" font-size="0.002520" fill="hsl(180.0,100%,20%)">hwennborg</text>
<text x="0.605" y="0.745" font-size="0.015736" fill="hsl(180.0,100%,20%)">zhaoming.jiang</text>
<text x="0.494" y="0.720" font-size="0.012084" fill="hsl(180.0,100%,20%)">shaobo.yan</text>
<text x="0.233" y="0.702" font-size="0.008357" fill="hsl(180.0,100%,20%)">jie.a.chen</text>
<text x="1.025" y="0.949" font-size="0.012848" fill="hsl(180.0,100%,20%)">junwei.fu</text>
<text x="0.763" y="0.793" font-size="0.002520" fill="hsl(180.0,100%,20%)">ningxin.hu</text>
<text x="0.606" y="0.894" font-size="0.005634" fill="hsl(180.0,100%,20%)">pkasting</text>
<text x="0.926" y="0.684" font-size="0.006172" fill="hsl(180.0,100%,20%)">sunnyps</text>
<text x="1.637" y="0.924" font-size="0.003563" fill="hsl(180.0,100%,20%)">svenzheng</text>
<text x="1.823" y="0.744" font-size="0.002520" fill="hsl(180.0,100%,20%)">lgrey</text>
<text x="0.793" y="0.544" font-size="0.008357" fill="hsl(180.0,100%,20%)">tangm</text>
<text x="0.740" y="-1.590" font-size="0.005634" fill="hsl(180.0,100%,20%)">vadimsh</text>
<text x="0.801" y="4.609" font-size="0.004364" fill="hsl(180.0,100%,20%)">xinghua.cao</text>
<text x="0.723" y="1.093" font-size="0.006172" fill="hsl(180.0,100%,20%)">yang.gu</text>
<text x="0.842" y="0.619" font-size="0.002520" fill="hsl(180.0,100%,20%)">ynovikov</text>
</svg>
