<svg width="4000" height="2000" viewBox="-0.025 -0.025 2.05 1.05" xmlns="http://www.w3.org/2000/svg">
  <style>
    path {
      fill: none;
      stroke-linecap: round;
      stroke-opacity: 0.4;
    }

    text {
      text-anchor: middle;
      alignment-baseline: hanging;
    }
  </style>
  <g opacity="0.4">
<path d="M0.389 0.780 Q0.525 0.885 0.759 0.841" stroke="hsl(0.0,100%,35%)" stroke-width="0.00125"></path>
<path d="M0.389 0.780 Q0.822 1.040 1.425 0.885" stroke="hsl(0.0,100%,35%)" stroke-width="0.00083"></path>
<path d="M0.389 0.780 Q0.750 0.759 0.789 0.579" stroke="hsl(0.0,100%,35%)" stroke-width="0.00042"></path>
<path d="M0.389 0.780 Q0.850 0.901 1.188 0.703" stroke="hsl(0.0,100%,35%)" stroke-width="0.00042"></path>
<path d="M0.759 0.841 Q1.124 0.704 0.937 0.495" stroke="hsl(0.0,100%,35%)" stroke-width="0.00976"></path>
<path d="M0.759 0.841 Q0.984 0.716 0.789 0.579" stroke="hsl(0.0,100%,35%)" stroke-width="0.00062"></path>
<path d="M0.759 0.841 Q0.972 0.892 1.118 0.799" stroke="hsl(0.0,100%,35%)" stroke-width="0.01143"></path>
<path d="M0.759 0.841 Q1.057 0.996 1.425 0.885" stroke="hsl(0.0,100%,35%)" stroke-width="0.02306"></path>
<path d="M0.759 0.841 Q0.913 0.967 1.192 0.920" stroke="hsl(0.0,100%,35%)" stroke-width="0.00042"></path>
<path d="M0.759 0.841 Q0.865 0.538 0.298 0.420" stroke="hsl(0.0,100%,35%)" stroke-width="0.00021"></path>
<path d="M0.759 0.841 Q0.805 0.741 0.620 0.696" stroke="hsl(0.0,100%,35%)" stroke-width="0.00042"></path>
<path d="M0.759 0.841 Q1.084 0.858 1.188 0.703" stroke="hsl(0.0,100%,35%)" stroke-width="0.00166"></path>
<path d="M0.759 0.841 Q1.248 0.876 1.424 0.645" stroke="hsl(0.0,100%,35%)" stroke-width="0.00166"></path>
<path d="M0.759 0.841 Q0.732 0.616 0.287 0.579" stroke="hsl(0.0,100%,35%)" stroke-width="0.00021"></path>
<path d="M0.759 0.841 Q1.351 0.537 0.887 0.182" stroke="hsl(0.0,100%,35%)" stroke-width="0.00021"></path>
<path d="M0.759 0.841 Q1.033 1.041 1.482 0.951" stroke="hsl(0.0,100%,35%)" stroke-width="0.00042"></path>
<path d="M0.759 0.841 Q1.248 0.827 1.329 0.586" stroke="hsl(0.0,100%,35%)" stroke-width="0.00062"></path>
<path d="M0.759 0.841 Q0.651 0.723 0.397 0.749" stroke="hsl(0.0,100%,35%)" stroke-width="0.00021"></path>
<path d="M0.759 0.841 Q0.906 1.006 1.260 0.970" stroke="hsl(0.0,100%,35%)" stroke-width="0.00021"></path>
<path d="M0.759 0.841 Q0.987 0.825 1.005 0.710" stroke="hsl(0.0,100%,35%)" stroke-width="0.00021"></path>
<path d="M0.759 0.841 Q1.027 0.607 0.629 0.425" stroke="hsl(0.0,100%,35%)" stroke-width="0.00021"></path>
<path d="M0.759 0.841 Q0.896 0.763 0.773 0.679" stroke="hsl(0.0,100%,35%)" stroke-width="0.00021"></path>
<path d="M1.425 0.885 Q1.340 0.780 1.118 0.799" stroke="hsl(0.0,100%,35%)" stroke-width="0.01766"></path>
<path d="M1.425 0.885 Q1.452 0.747 1.188 0.703" stroke="hsl(0.0,100%,35%)" stroke-width="0.00499"></path>
<path d="M1.425 0.885 Q1.127 0.730 0.759 0.841" stroke="hsl(0.0,100%,35%)" stroke-width="0.00956"></path>
<path d="M1.425 0.885 Q1.355 0.714 1.005 0.710" stroke="hsl(0.0,100%,35%)" stroke-width="0.00187"></path>
<path d="M1.425 0.885 Q1.718 0.426 0.887 0.182" stroke="hsl(0.0,100%,35%)" stroke-width="0.00125"></path>
<path d="M1.425 0.885 Q1.616 0.765 1.424 0.645" stroke="hsl(0.0,100%,35%)" stroke-width="0.00145"></path>
<path d="M1.425 0.885 Q1.352 0.605 0.789 0.579" stroke="hsl(0.0,100%,35%)" stroke-width="0.00083"></path>
<path d="M1.425 0.885 Q1.492 0.593 0.937 0.495" stroke="hsl(0.0,100%,35%)" stroke-width="0.00312"></path>
<path d="M1.425 0.885 Q1.616 0.716 1.329 0.586" stroke="hsl(0.0,100%,35%)" stroke-width="0.00062"></path>
<path d="M1.425 0.885 Q1.270 0.531 0.545 0.529" stroke="hsl(0.0,100%,35%)" stroke-width="0.00083"></path>
<path d="M1.425 0.885 Q1.401 0.930 1.482 0.951" stroke="hsl(0.0,100%,35%)" stroke-width="0.00062"></path>
<path d="M1.425 0.885 Q1.284 0.892 1.267 0.962" stroke="hsl(0.0,100%,35%)" stroke-width="0.00062"></path>
<path d="M1.425 0.885 Q1.281 0.856 1.192 0.920" stroke="hsl(0.0,100%,35%)" stroke-width="0.00125"></path>
<path d="M1.425 0.885 Q1.108 0.642 0.564 0.743" stroke="hsl(0.0,100%,35%)" stroke-width="0.00021"></path>
<path d="M1.425 0.885 Q1.395 0.496 0.629 0.425" stroke="hsl(0.0,100%,35%)" stroke-width="0.00104"></path>
<path d="M1.425 0.885 Q1.158 0.860 1.050 0.984" stroke="hsl(0.0,100%,35%)" stroke-width="0.00042"></path>
<path d="M1.425 0.885 Q1.007 0.557 0.275 0.689" stroke="hsl(0.0,100%,35%)" stroke-width="0.00021"></path>
<path d="M1.425 0.885 Q1.759 0.775 1.618 0.588" stroke="hsl(0.0,100%,35%)" stroke-width="0.00021"></path>
<path d="M1.425 0.885 Q1.208 0.832 1.057 0.926" stroke="hsl(0.0,100%,35%)" stroke-width="0.00062"></path>
<path d="M1.425 0.885 Q1.029 0.722 0.624 0.879" stroke="hsl(0.0,100%,35%)" stroke-width="0.00021"></path>
<path d="M0.789 0.579 Q0.929 0.567 0.937 0.495" stroke="hsl(180.0,100%,35%)" stroke-width="0.05983"></path>
<path d="M0.789 0.579 Q1.155 0.400 0.887 0.182" stroke="hsl(180.0,100%,35%)" stroke-width="0.00208"></path>
<path d="M0.789 0.579 Q0.718 0.830 1.192 0.920" stroke="hsl(180.0,100%,35%)" stroke-width="0.00083"></path>
<path d="M0.789 0.579 Q0.792 0.688 1.005 0.710" stroke="hsl(180.0,100%,35%)" stroke-width="0.00021"></path>
<path d="M0.789 0.579 Q0.721 0.866 1.267 0.962" stroke="hsl(180.0,100%,35%)" stroke-width="0.00021"></path>
<path d="M0.789 0.579 Q0.707 0.505 0.545 0.529" stroke="hsl(180.0,100%,35%)" stroke-width="0.02348"></path>
<path d="M0.789 0.579 Q0.564 0.704 0.759 0.841" stroke="hsl(180.0,100%,35%)" stroke-width="0.00291"></path>
<path d="M0.789 0.579 Q0.832 0.470 0.629 0.425" stroke="hsl(180.0,100%,35%)" stroke-width="0.00062"></path>
<path d="M0.789 0.579 Q0.861 0.859 1.425 0.885" stroke="hsl(180.0,100%,35%)" stroke-width="0.00104"></path>
<path d="M0.789 0.579 Q0.889 0.720 1.188 0.703" stroke="hsl(180.0,100%,35%)" stroke-width="0.00042"></path>
<path d="M0.789 0.579 Q1.035 0.618 1.165 0.506" stroke="hsl(180.0,100%,35%)" stroke-width="0.00083"></path>
<path d="M1.188 0.703 Q0.863 0.686 0.759 0.841" stroke="hsl(0.0,100%,35%)" stroke-width="0.00249"></path>
<path d="M1.188 0.703 Q1.076 0.737 1.118 0.799" stroke="hsl(0.0,100%,35%)" stroke-width="0.00291"></path>
<path d="M1.188 0.703 Q1.160 0.841 1.425 0.885" stroke="hsl(0.0,100%,35%)" stroke-width="0.00291"></path>
<path d="M1.188 0.703 Q1.228 0.549 0.937 0.495" stroke="hsl(0.0,100%,35%)" stroke-width="0.00021"></path>
<path d="M1.188 0.703 Q0.844 0.598 0.564 0.743" stroke="hsl(0.0,100%,35%)" stroke-width="0.00021"></path>
<path d="M1.188 0.703 Q1.091 0.670 1.005 0.710" stroke="hsl(0.0,100%,35%)" stroke-width="0.00021"></path>
<path d="M1.188 0.703 Q1.352 0.721 1.424 0.645" stroke="hsl(0.0,100%,35%)" stroke-width="0.00021"></path>
<path d="M1.188 0.703 Q1.131 0.452 0.629 0.425" stroke="hsl(0.0,100%,35%)" stroke-width="0.00021"></path>
<path d="M1.188 0.703 Q0.894 0.816 1.050 0.984" stroke="hsl(0.0,100%,35%)" stroke-width="0.00021"></path>
<path d="M0.887 0.182 Q0.661 0.348 0.937 0.495" stroke="hsl(180.0,100%,35%)" stroke-width="0.00852"></path>
<path d="M0.887 0.182 Q0.593 0.641 1.425 0.885" stroke="hsl(180.0,100%,35%)" stroke-width="0.00644"></path>
<path d="M0.887 0.182 Q0.295 0.486 0.759 0.841" stroke="hsl(180.0,100%,35%)" stroke-width="0.00187"></path>
<path d="M0.887 0.182 Q0.438 0.287 0.545 0.529" stroke="hsl(180.0,100%,35%)" stroke-width="0.00125"></path>
<path d="M0.887 0.182 Q0.620 0.502 1.188 0.703" stroke="hsl(180.0,100%,35%)" stroke-width="0.00042"></path>
<path d="M0.887 0.182 Q0.520 0.360 0.789 0.579" stroke="hsl(180.0,100%,35%)" stroke-width="0.00249"></path>
<path d="M0.887 0.182 Q0.766 0.400 1.165 0.506" stroke="hsl(180.0,100%,35%)" stroke-width="0.00042"></path>
<path d="M0.887 0.182 Q0.563 0.252 0.629 0.425" stroke="hsl(180.0,100%,35%)" stroke-width="0.00021"></path>
<path d="M0.937 0.495 Q1.163 0.329 0.887 0.182" stroke="hsl(180.0,100%,35%)" stroke-width="0.01621"></path>
<path d="M0.937 0.495 Q0.714 0.434 0.545 0.529" stroke="hsl(180.0,100%,35%)" stroke-width="0.05069"></path>
<path d="M0.937 0.495 Q0.796 0.507 0.789 0.579" stroke="hsl(180.0,100%,35%)" stroke-width="0.05983"></path>
<path d="M0.937 0.495 Q0.571 0.633 0.759 0.841" stroke="hsl(180.0,100%,35%)" stroke-width="0.01371"></path>
<path d="M0.937 0.495 Q1.042 0.547 1.165 0.506" stroke="hsl(180.0,100%,35%)" stroke-width="0.00291"></path>
<path d="M0.937 0.495 Q0.896 0.649 1.188 0.703" stroke="hsl(180.0,100%,35%)" stroke-width="0.00042"></path>
<path d="M0.937 0.495 Q0.618 0.533 0.620 0.696" stroke="hsl(180.0,100%,35%)" stroke-width="0.00021"></path>
<path d="M0.937 0.495 Q0.869 0.788 1.425 0.885" stroke="hsl(180.0,100%,35%)" stroke-width="0.00748"></path>
<path d="M0.937 0.495 Q1.204 0.678 1.618 0.588" stroke="hsl(180.0,100%,35%)" stroke-width="0.00021"></path>
<path d="M0.937 0.495 Q1.061 0.668 1.424 0.645" stroke="hsl(180.0,100%,35%)" stroke-width="0.00042"></path>
<path d="M0.937 0.495 Q0.839 0.399 0.629 0.425" stroke="hsl(180.0,100%,35%)" stroke-width="0.00083"></path>
<path d="M0.937 0.495 Q0.725 0.758 1.192 0.920" stroke="hsl(180.0,100%,35%)" stroke-width="0.00104"></path>
<path d="M0.937 0.495 Q0.955 0.364 0.702 0.326" stroke="hsl(180.0,100%,35%)" stroke-width="0.00021"></path>
<path d="M0.937 0.495 Q0.553 0.545 0.564 0.743" stroke="hsl(180.0,100%,35%)" stroke-width="0.00021"></path>
<path d="M0.545 0.529 Q0.768 0.591 0.937 0.495" stroke="hsl(180.0,100%,35%)" stroke-width="0.04799"></path>
<path d="M0.545 0.529 Q0.874 0.642 1.165 0.506" stroke="hsl(180.0,100%,35%)" stroke-width="0.00644"></path>
<path d="M0.545 0.529 Q0.994 0.424 0.887 0.182" stroke="hsl(180.0,100%,35%)" stroke-width="0.00104"></path>
<path d="M0.545 0.529 Q0.628 0.603 0.789 0.579" stroke="hsl(180.0,100%,35%)" stroke-width="0.02265"></path>
<path d="M0.545 0.529 Q0.892 0.763 1.424 0.645" stroke="hsl(180.0,100%,35%)" stroke-width="0.00062"></path>
<path d="M0.545 0.529 Q0.403 0.728 0.759 0.841" stroke="hsl(180.0,100%,35%)" stroke-width="0.00104"></path>
<path d="M0.545 0.529 Q0.700 0.883 1.425 0.885" stroke="hsl(180.0,100%,35%)" stroke-width="0.00125"></path>
<path d="M0.545 0.529 Q0.560 0.890 1.267 0.962" stroke="hsl(180.0,100%,35%)" stroke-width="0.00021"></path>
<path d="M0.545 0.529 Q1.068 0.602 1.324 0.363" stroke="hsl(180.0,100%,35%)" stroke-width="0.00021"></path>
<path d="M0.545 0.529 Q0.441 0.547 0.453 0.602" stroke="hsl(180.0,100%,35%)" stroke-width="0.00021"></path>
<path d="M1.165 0.506 Q1.060 0.455 0.937 0.495" stroke="hsl(180.0,100%,35%)" stroke-width="0.00436"></path>
<path d="M1.165 0.506 Q0.837 0.394 0.545 0.529" stroke="hsl(180.0,100%,35%)" stroke-width="0.00229"></path>
<path d="M1.165 0.506 Q1.286 0.288 0.887 0.182" stroke="hsl(180.0,100%,35%)" stroke-width="0.00021"></path>
<path d="M1.165 0.506 Q1.360 0.466 1.324 0.363" stroke="hsl(180.0,100%,35%)" stroke-width="0.00042"></path>
<path d="M1.165 0.506 Q0.992 0.748 1.425 0.885" stroke="hsl(180.0,100%,35%)" stroke-width="0.00042"></path>
<path d="M1.165 0.506 Q0.919 0.467 0.789 0.579" stroke="hsl(180.0,100%,35%)" stroke-width="0.00083"></path>
<path d="M1.165 0.506 Q1.184 0.628 1.424 0.645" stroke="hsl(180.0,100%,35%)" stroke-width="0.00021"></path>
<path d="M1.165 0.506 Q0.694 0.593 0.759 0.841" stroke="hsl(180.0,100%,35%)" stroke-width="0.00042"></path>
<path d="M1.165 0.506 Q1.020 0.609 1.188 0.703" stroke="hsl(180.0,100%,35%)" stroke-width="0.00021"></path>
<path d="M0.629 0.425 Q0.659 0.814 1.425 0.885" stroke="hsl(180.0,100%,35%)" stroke-width="0.00104"></path>
<path d="M0.629 0.425 Q0.586 0.534 0.789 0.579" stroke="hsl(180.0,100%,35%)" stroke-width="0.00104"></path>
<path d="M0.629 0.425 Q0.726 0.522 0.937 0.495" stroke="hsl(180.0,100%,35%)" stroke-width="0.00062"></path>
<path d="M0.629 0.425 Q0.504 0.460 0.545 0.529" stroke="hsl(180.0,100%,35%)" stroke-width="0.00021"></path>
<path d="M0.629 0.425 Q0.953 0.355 0.887 0.182" stroke="hsl(180.0,100%,35%)" stroke-width="0.00021"></path>
<path d="M1.159 0.389 Q0.963 0.398 0.937 0.495" stroke="hsl(0.0,100%,35%)" stroke-width="0.00042"></path>
<path d="M1.159 0.389 Q0.597 0.535 0.759 0.841" stroke="hsl(0.0,100%,35%)" stroke-width="0.00042"></path>
<path d="M0.620 0.696 Q0.574 0.797 0.759 0.841" stroke="hsl(0.0,100%,35%)" stroke-width="0.00478"></path>
<path d="M0.620 0.696 Q0.871 0.952 1.425 0.885" stroke="hsl(0.0,100%,35%)" stroke-width="0.00042"></path>
<path d="M0.620 0.696 Q0.704 0.706 0.741 0.668" stroke="hsl(0.0,100%,35%)" stroke-width="0.00021"></path>
<path d="M0.620 0.696 Q0.939 0.659 0.937 0.495" stroke="hsl(0.0,100%,35%)" stroke-width="0.00145"></path>
<path d="M1.134 0.586 Q0.742 0.639 0.759 0.841" stroke="hsl(0.0,100%,35%)" stroke-width="0.00042"></path>
<path d="M1.134 0.586 Q1.068 0.655 1.188 0.703" stroke="hsl(0.0,100%,35%)" stroke-width="0.00042"></path>
<path d="M1.134 0.586 Q0.970 0.623 1.005 0.710" stroke="hsl(0.0,100%,35%)" stroke-width="0.00021"></path>
<path d="M1.134 0.586 Q0.956 0.689 1.118 0.799" stroke="hsl(0.0,100%,35%)" stroke-width="0.00021"></path>
<path d="M1.134 0.586 Q1.108 0.501 0.937 0.495" stroke="hsl(0.0,100%,35%)" stroke-width="0.00021"></path>
<path d="M1.134 0.586 Q1.040 0.794 1.425 0.885" stroke="hsl(0.0,100%,35%)" stroke-width="0.00021"></path>
<path d="M1.005 0.710 Q1.075 0.882 1.425 0.885" stroke="hsl(0.0,100%,35%)" stroke-width="0.00769"></path>
<path d="M1.005 0.710 Q0.931 0.852 1.192 0.920" stroke="hsl(0.0,100%,35%)" stroke-width="0.00395"></path>
<path d="M1.005 0.710 Q1.003 0.601 0.789 0.579" stroke="hsl(0.0,100%,35%)" stroke-width="0.00062"></path>
<path d="M1.005 0.710 Q0.920 0.528 0.545 0.529" stroke="hsl(0.0,100%,35%)" stroke-width="0.00021"></path>
<path d="M1.005 0.710 Q1.103 0.743 1.188 0.703" stroke="hsl(0.0,100%,35%)" stroke-width="0.00042"></path>
<path d="M1.005 0.710 Q1.267 0.761 1.424 0.645" stroke="hsl(0.0,100%,35%)" stroke-width="0.00021"></path>
<path d="M1.005 0.710 Q0.991 0.777 1.118 0.799" stroke="hsl(0.0,100%,35%)" stroke-width="0.00125"></path>
<path d="M1.005 0.710 Q1.143 0.589 0.937 0.495" stroke="hsl(0.0,100%,35%)" stroke-width="0.00104"></path>
<path d="M1.005 0.710 Q0.777 0.726 0.759 0.841" stroke="hsl(0.0,100%,35%)" stroke-width="0.00021"></path>
<path d="M1.118 0.799 Q1.202 0.903 1.425 0.885" stroke="hsl(0.0,100%,35%)" stroke-width="0.02202"></path>
<path d="M1.118 0.799 Q1.229 0.765 1.188 0.703" stroke="hsl(0.0,100%,35%)" stroke-width="0.00374"></path>
<path d="M1.118 0.799 Q0.904 0.748 0.759 0.841" stroke="hsl(0.0,100%,35%)" stroke-width="0.00686"></path>
<path d="M1.118 0.799 Q1.061 0.910 1.267 0.962" stroke="hsl(0.0,100%,35%)" stroke-width="0.00021"></path>
<path d="M1.118 0.799 Q1.496 0.444 0.887 0.182" stroke="hsl(0.0,100%,35%)" stroke-width="0.00021"></path>
<path d="M1.118 0.799 Q1.268 0.765 1.236 0.684" stroke="hsl(0.0,100%,35%)" stroke-width="0.00021"></path>
<path d="M1.118 0.799 Q1.270 0.611 0.937 0.495" stroke="hsl(0.0,100%,35%)" stroke-width="0.00083"></path>
<path d="M1.118 0.799 Q1.394 0.783 1.424 0.645" stroke="hsl(0.0,100%,35%)" stroke-width="0.00125"></path>
<path d="M1.118 0.799 Q1.132 0.732 1.005 0.710" stroke="hsl(0.0,100%,35%)" stroke-width="0.00187"></path>
<path d="M1.118 0.799 Q1.047 0.549 0.545 0.529" stroke="hsl(0.0,100%,35%)" stroke-width="0.00021"></path>
<path d="M1.158 0.961 Q1.352 0.976 1.425 0.885" stroke="hsl(0.0,100%,35%)" stroke-width="0.00042"></path>
<path d="M1.158 0.961 Q1.054 0.821 0.759 0.841" stroke="hsl(0.0,100%,35%)" stroke-width="0.00021"></path>
<path d="M1.158 0.961 Q1.544 0.856 1.424 0.645" stroke="hsl(0.0,100%,35%)" stroke-width="0.00021"></path>
<path d="M1.424 0.645 Q0.935 0.610 0.759 0.841" stroke="hsl(0.0,100%,35%)" stroke-width="0.00062"></path>
<path d="M1.424 0.645 Q1.232 0.765 1.425 0.885" stroke="hsl(0.0,100%,35%)" stroke-width="0.00416"></path>
<path d="M1.424 0.645 Q1.260 0.627 1.188 0.703" stroke="hsl(0.0,100%,35%)" stroke-width="0.00208"></path>
<path d="M1.424 0.645 Q1.148 0.661 1.118 0.799" stroke="hsl(0.0,100%,35%)" stroke-width="0.00042"></path>
<path d="M1.424 0.645 Q1.526 0.306 0.887 0.182" stroke="hsl(0.0,100%,35%)" stroke-width="0.00021"></path>
<path d="M1.424 0.645 Q1.406 0.524 1.165 0.506" stroke="hsl(0.0,100%,35%)" stroke-width="0.00021"></path>
<path d="M1.192 0.920 Q1.404 0.656 0.937 0.495" stroke="hsl(0.0,100%,35%)" stroke-width="0.00312"></path>
<path d="M1.192 0.920 Q1.336 0.949 1.425 0.885" stroke="hsl(0.0,100%,35%)" stroke-width="0.00582"></path>
<path d="M1.192 0.920 Q1.263 0.668 0.789 0.579" stroke="hsl(0.0,100%,35%)" stroke-width="0.00145"></path>
<path d="M1.192 0.920 Q1.252 0.844 1.118 0.799" stroke="hsl(0.0,100%,35%)" stroke-width="0.00042"></path>
<path d="M1.192 0.920 Q1.528 0.829 1.424 0.645" stroke="hsl(0.0,100%,35%)" stroke-width="0.00021"></path>
<path d="M1.192 0.920 Q1.266 0.778 1.005 0.710" stroke="hsl(0.0,100%,35%)" stroke-width="0.00021"></path>
<path d="M1.192 0.920 Q1.195 0.956 1.267 0.962" stroke="hsl(0.0,100%,35%)" stroke-width="0.00042"></path>
<path d="M1.192 0.920 Q1.038 0.794 0.759 0.841" stroke="hsl(0.0,100%,35%)" stroke-width="0.00104"></path>
<path d="M1.192 0.920 Q1.363 0.810 1.188 0.703" stroke="hsl(0.0,100%,35%)" stroke-width="0.00021"></path>
<path d="M0.564 0.743 Q0.583 0.831 0.759 0.841" stroke="hsl(0.0,100%,35%)" stroke-width="0.02119"></path>
<path d="M0.564 0.743 Q0.880 0.986 1.425 0.885" stroke="hsl(0.0,100%,35%)" stroke-width="0.01745"></path>
<path d="M0.564 0.743 Q0.948 0.693 0.937 0.495" stroke="hsl(0.0,100%,35%)" stroke-width="0.00499"></path>
<path d="M0.564 0.743 Q0.796 0.881 1.118 0.799" stroke="hsl(0.0,100%,35%)" stroke-width="0.00021"></path>
<path d="M0.564 0.743 Q0.726 0.632 0.545 0.529" stroke="hsl(0.0,100%,35%)" stroke-width="0.00042"></path>
<path d="M0.564 0.743 Q1.072 0.866 1.424 0.645" stroke="hsl(0.0,100%,35%)" stroke-width="0.00042"></path>
<path d="M0.564 0.743 Q0.851 0.597 0.629 0.425" stroke="hsl(0.0,100%,35%)" stroke-width="0.00021"></path>
<path d="M0.564 0.743 Q1.054 0.745 1.165 0.506" stroke="hsl(0.0,100%,35%)" stroke-width="0.00104"></path>
<path d="M0.564 0.743 Q0.857 1.030 1.482 0.951" stroke="hsl(0.0,100%,35%)" stroke-width="0.00083"></path>
<path d="M0.564 0.743 Q0.530 0.656 0.354 0.654" stroke="hsl(0.0,100%,35%)" stroke-width="0.00021"></path>
<path d="M0.564 0.743 Q0.808 0.705 0.789 0.579" stroke="hsl(0.0,100%,35%)" stroke-width="0.00021"></path>
<path d="M0.564 0.743 Q0.386 0.798 0.456 0.897" stroke="hsl(0.0,100%,35%)" stroke-width="0.00042"></path>
<path d="M0.564 0.743 Q0.908 0.847 1.188 0.703" stroke="hsl(0.0,100%,35%)" stroke-width="0.00021"></path>
<path d="M0.117 0.771 Q0.382 0.934 0.759 0.841" stroke="hsl(0.0,100%,35%)" stroke-width="0.00519"></path>
<path d="M0.117 0.771 Q0.707 0.951 1.188 0.703" stroke="hsl(0.0,100%,35%)" stroke-width="0.00042"></path>
<path d="M0.117 0.771 Q0.679 1.089 1.425 0.885" stroke="hsl(0.0,100%,35%)" stroke-width="0.00166"></path>
<path d="M0.117 0.771 Q0.595 0.985 1.118 0.799" stroke="hsl(0.0,100%,35%)" stroke-width="0.00062"></path>
<path d="M0.773 0.679 Q0.636 0.757 0.759 0.841" stroke="hsl(0.0,100%,35%)" stroke-width="0.00416"></path>
<path d="M0.773 0.679 Q0.934 0.912 1.425 0.885" stroke="hsl(0.0,100%,35%)" stroke-width="0.00062"></path>
<path d="M0.773 0.679 Q0.850 0.808 1.118 0.799" stroke="hsl(0.0,100%,35%)" stroke-width="0.00021"></path>
<path d="M0.858 0.326 Q0.396 0.564 0.759 0.841" stroke="hsl(180.0,100%,35%)" stroke-width="0.00083"></path>
<path d="M0.858 0.326 Q0.694 0.719 1.425 0.885" stroke="hsl(180.0,100%,35%)" stroke-width="0.00083"></path>
<path d="M0.858 0.326 Q0.762 0.426 0.937 0.495" stroke="hsl(180.0,100%,35%)" stroke-width="0.00208"></path>
<path d="M0.858 0.326 Q0.539 0.365 0.545 0.529" stroke="hsl(180.0,100%,35%)" stroke-width="0.00021"></path>
<path d="M1.050 0.984 Q1.317 1.010 1.425 0.885" stroke="hsl(0.0,100%,35%)" stroke-width="0.00208"></path>
<path d="M1.050 0.984 Q2.657 0.057 1.200 -0.930" stroke="hsl(0.0,100%,35%)" stroke-width="0.00042"></path>
<path d="M1.050 0.984 Q1.344 0.871 1.188 0.703" stroke="hsl(0.0,100%,35%)" stroke-width="0.00021"></path>
<path d="M1.482 0.951 Q1.506 0.907 1.425 0.885" stroke="hsl(0.0,100%,35%)" stroke-width="0.01849"></path>
<path d="M1.482 0.951 Q1.209 0.751 0.759 0.841" stroke="hsl(0.0,100%,35%)" stroke-width="0.00831"></path>
<path d="M1.482 0.951 Q1.574 0.614 0.937 0.495" stroke="hsl(0.0,100%,35%)" stroke-width="0.00042"></path>
<path d="M1.482 0.951 Q1.422 0.802 1.118 0.799" stroke="hsl(0.0,100%,35%)" stroke-width="0.00021"></path>
<path d="M1.329 0.586 Q0.840 0.599 0.759 0.841" stroke="hsl(0.0,100%,35%)" stroke-width="0.00291"></path>
<path d="M1.329 0.586 Q1.137 0.755 1.425 0.885" stroke="hsl(0.0,100%,35%)" stroke-width="0.00603"></path>
<path d="M1.329 0.586 Q1.113 0.799 1.482 0.951" stroke="hsl(0.0,100%,35%)" stroke-width="0.00021"></path>
<path d="M1.329 0.586 Q1.053 0.650 1.118 0.799" stroke="hsl(0.0,100%,35%)" stroke-width="0.00021"></path>
<path d="M1.260 0.970 Q1.411 0.961 1.425 0.885" stroke="hsl(0.0,100%,35%)" stroke-width="0.00083"></path>
<path d="M1.260 0.970 Q1.113 0.805 0.759 0.841" stroke="hsl(0.0,100%,35%)" stroke-width="0.00042"></path>
<path d="M1.260 0.970 Q1.438 0.822 1.188 0.703" stroke="hsl(0.0,100%,35%)" stroke-width="0.00021"></path>
<path d="M1.126 0.972 Q1.345 0.988 1.425 0.885" stroke="hsl(0.0,100%,35%)" stroke-width="0.00021"></path>
<path d="M1.126 0.972 Q1.413 0.696 0.937 0.495" stroke="hsl(0.0,100%,35%)" stroke-width="0.00021"></path>
<path d="M1.126 0.972 Q1.047 0.833 0.759 0.841" stroke="hsl(0.0,100%,35%)" stroke-width="0.00021"></path>
<path d="M1.267 0.962 Q1.476 0.663 0.937 0.495" stroke="hsl(0.0,100%,35%)" stroke-width="0.00104"></path>
<path d="M1.267 0.962 Q1.324 0.851 1.118 0.799" stroke="hsl(0.0,100%,35%)" stroke-width="0.00125"></path>
<path d="M1.267 0.962 Q1.110 0.800 0.759 0.841" stroke="hsl(0.0,100%,35%)" stroke-width="0.00042"></path>
<path d="M1.267 0.962 Q1.600 0.835 1.424 0.645" stroke="hsl(0.0,100%,35%)" stroke-width="0.00083"></path>
<path d="M1.267 0.962 Q1.408 0.955 1.425 0.885" stroke="hsl(0.0,100%,35%)" stroke-width="0.00457"></path>
<path d="M1.267 0.962 Q1.264 0.926 1.192 0.920" stroke="hsl(0.0,100%,35%)" stroke-width="0.00166"></path>
<path d="M1.267 0.962 Q1.702 0.496 0.887 0.182" stroke="hsl(0.0,100%,35%)" stroke-width="0.00042"></path>
<path d="M1.267 0.962 Q1.435 0.817 1.188 0.703" stroke="hsl(0.0,100%,35%)" stroke-width="0.00021"></path>
<path d="M0.250 0.708 Q0.398 0.877 0.759 0.841" stroke="hsl(0.0,100%,35%)" stroke-width="0.00083"></path>
<path d="M0.250 0.708 Q0.696 1.032 1.425 0.885" stroke="hsl(0.0,100%,35%)" stroke-width="0.00042"></path>
<path d="M0.250 0.708 Q0.764 0.739 0.937 0.495" stroke="hsl(0.0,100%,35%)" stroke-width="0.00021"></path>
<path d="M0.275 0.689 Q0.669 1.062 1.482 0.951" stroke="hsl(0.0,100%,35%)" stroke-width="0.00561"></path>
<path d="M0.275 0.689 Q0.396 0.862 0.759 0.841" stroke="hsl(0.0,100%,35%)" stroke-width="0.00686"></path>
<path d="M0.275 0.689 Q0.693 1.017 1.425 0.885" stroke="hsl(0.0,100%,35%)" stroke-width="0.00873"></path>
<path d="M0.275 0.689 Q0.761 0.725 0.937 0.495" stroke="hsl(0.0,100%,35%)" stroke-width="0.00021"></path>
<path d="M0.624 0.879 Q1.020 1.042 1.425 0.885" stroke="hsl(0.0,100%,35%)" stroke-width="0.00187"></path>
<path d="M0.624 0.879 Q0.935 0.938 1.118 0.799" stroke="hsl(0.0,100%,35%)" stroke-width="0.00083"></path>
<path d="M0.624 0.879 Q1.088 0.750 0.937 0.495" stroke="hsl(0.0,100%,35%)" stroke-width="0.00062"></path>
<path d="M0.624 0.879 Q1.314 0.583 0.887 0.182" stroke="hsl(0.0,100%,35%)" stroke-width="0.00021"></path>
<path d="M0.624 0.879 Q0.722 0.887 0.759 0.841" stroke="hsl(0.0,100%,35%)" stroke-width="0.00187"></path>
<path d="M0.947 0.956 Q1.158 0.911 1.118 0.799" stroke="hsl(0.0,100%,35%)" stroke-width="0.00021"></path>
<path d="M0.947 0.956 Q0.945 0.861 0.759 0.841" stroke="hsl(0.0,100%,35%)" stroke-width="0.00312"></path>
<path d="M0.947 0.956 Q1.243 1.016 1.425 0.885" stroke="hsl(0.0,100%,35%)" stroke-width="0.00312"></path>
<path d="M0.947 0.956 Q1.310 0.724 0.937 0.495" stroke="hsl(0.0,100%,35%)" stroke-width="0.00021"></path>
<path d="M0.828 0.703 Q0.981 0.913 1.425 0.885" stroke="hsl(0.0,100%,35%)" stroke-width="0.00083"></path>
<path d="M0.828 0.703 Q0.683 0.758 0.759 0.841" stroke="hsl(0.0,100%,35%)" stroke-width="0.00083"></path>
<path d="M0.828 0.703 Q1.226 0.897 1.692 0.745" stroke="hsl(0.0,100%,35%)" stroke-width="0.00042"></path>
<path d="M1.692 0.745 Q1.447 0.762 1.425 0.885" stroke="hsl(0.0,100%,35%)" stroke-width="0.00208"></path>
<path d="M1.692 0.745 Q1.423 0.806 1.482 0.951" stroke="hsl(0.0,100%,35%)" stroke-width="0.00021"></path>
<path d="M1.692 0.745 Q1.149 0.606 0.759 0.841" stroke="hsl(0.0,100%,35%)" stroke-width="0.00021"></path>
<path d="M0.995 0.293 Q0.804 0.382 0.937 0.495" stroke="hsl(180.0,100%,35%)" stroke-width="0.00145"></path>
<path d="M0.995 0.293 Q1.030 0.215 0.887 0.182" stroke="hsl(180.0,100%,35%)" stroke-width="0.00021"></path>
<path d="M0.995 0.293 Q0.581 0.321 0.545 0.529" stroke="hsl(180.0,100%,35%)" stroke-width="0.00021"></path>
<path d="M0.995 0.293 Q0.706 0.285 0.629 0.425" stroke="hsl(180.0,100%,35%)" stroke-width="0.00021"></path>
<path d="M0.995 0.293 Q0.736 0.675 1.425 0.885" stroke="hsl(180.0,100%,35%)" stroke-width="0.00021"></path>
<path d="M0.205 0.582 Q0.572 0.977 1.425 0.885" stroke="hsl(0.0,100%,35%)" stroke-width="0.00021"></path>
<path d="M0.205 0.582 Q0.256 0.734 0.564 0.743" stroke="hsl(0.0,100%,35%)" stroke-width="0.00021"></path>
<path d="M0.205 0.582 Q0.274 0.822 0.759 0.841" stroke="hsl(0.0,100%,35%)" stroke-width="0.00021"></path>
<path d="M0.354 0.654 Q0.407 0.829 0.759 0.841" stroke="hsl(0.0,100%,35%)" stroke-width="0.00249"></path>
<path d="M0.354 0.654 Q0.705 0.984 1.425 0.885" stroke="hsl(0.0,100%,35%)" stroke-width="0.00229"></path>
<path d="M0.354 0.654 Q0.675 0.595 0.629 0.425" stroke="hsl(0.0,100%,35%)" stroke-width="0.00021"></path>
<path d="M0.354 0.654 Q0.620 0.879 1.118 0.799" stroke="hsl(0.0,100%,35%)" stroke-width="0.00021"></path>
<path d="M0.354 0.654 Q0.550 0.630 0.545 0.529" stroke="hsl(0.0,100%,35%)" stroke-width="0.00021"></path>
<path d="M0.354 0.654 Q0.999 0.525 0.887 0.182" stroke="hsl(0.0,100%,35%)" stroke-width="0.00021"></path>
<path d="M0.435 0.237 Q0.479 0.466 0.937 0.495" stroke="hsl(180.0,100%,35%)" stroke-width="0.00021"></path>
<path d="M0.435 0.237 Q0.411 0.759 1.425 0.885" stroke="hsl(180.0,100%,35%)" stroke-width="0.00062"></path>
<path d="M0.435 0.237 Q0.256 0.405 0.545 0.529" stroke="hsl(180.0,100%,35%)" stroke-width="0.00083"></path>
<path d="M0.387 0.860 Q0.588 0.925 0.759 0.841" stroke="hsl(0.0,100%,35%)" stroke-width="0.00208"></path>
<path d="M0.387 0.860 Q0.886 1.080 1.425 0.885" stroke="hsl(0.0,100%,35%)" stroke-width="0.00229"></path>
<path d="M0.387 0.860 Q1.132 1.064 1.692 0.745" stroke="hsl(0.0,100%,35%)" stroke-width="0.00021"></path>
<path d="M0.387 0.860 Q0.452 0.820 0.389 0.780" stroke="hsl(0.0,100%,35%)" stroke-width="0.00021"></path>
<path d="M0.456 0.371 Q0.499 0.433 0.629 0.425" stroke="hsl(180.0,100%,35%)" stroke-width="0.00021"></path>
<path d="M0.456 0.371 Q0.456 0.542 0.789 0.579" stroke="hsl(180.0,100%,35%)" stroke-width="0.00021"></path>
<path d="M0.456 0.371 Q0.597 0.530 0.937 0.495" stroke="hsl(180.0,100%,35%)" stroke-width="0.00021"></path>
<path d="M0.456 0.371 Q0.231 0.667 0.759 0.841" stroke="hsl(180.0,100%,35%)" stroke-width="0.00021"></path>
<path d="M0.227 0.641 Q0.333 0.847 0.759 0.841" stroke="hsl(0.0,100%,35%)" stroke-width="0.00062"></path>
<path d="M0.227 0.641 Q0.630 1.002 1.425 0.885" stroke="hsl(0.0,100%,35%)" stroke-width="0.00062"></path>
<path d="M0.227 0.641 Q0.822 0.834 1.329 0.586" stroke="hsl(0.0,100%,35%)" stroke-width="0.00021"></path>
<path d="M0.999 0.920 Q0.973 0.962 1.050 0.984" stroke="hsl(0.0,100%,35%)" stroke-width="0.00021"></path>
<path d="M0.999 0.920 Q1.240 0.988 1.425 0.885" stroke="hsl(0.0,100%,35%)" stroke-width="0.00229"></path>
<path d="M0.999 0.920 Q0.942 0.833 0.759 0.841" stroke="hsl(0.0,100%,35%)" stroke-width="0.00021"></path>
<path d="M0.999 0.920 Q1.533 0.529 0.887 0.182" stroke="hsl(0.0,100%,35%)" stroke-width="0.00042"></path>
<path d="M0.999 0.920 Q1.267 0.849 1.188 0.703" stroke="hsl(0.0,100%,35%)" stroke-width="0.00021"></path>
<path d="M0.999 0.920 Q1.307 0.695 0.937 0.495" stroke="hsl(0.0,100%,35%)" stroke-width="0.00021"></path>
</g>
<text x="0.389" y="0.775" font-size="0.009210" fill="hsl(0.0,100%,20%)">albin.bernhardsson</text>
<text x="0.759" y="0.808" font-size="0.066539" fill="hsl(0.0,100%,20%)">cwallez</text>
<text x="1.425" y="0.847" font-size="0.075796" fill="hsl(0.0,100%,20%)">enga</text>
<text x="0.789" y="0.543" font-size="0.070701" fill="hsl(180.0,100%,20%)">dsinclair</text>
<text x="1.188" y="0.689" font-size="0.026798" fill="hsl(0.0,100%,20%)">kainino</text>
<text x="0.887" y="0.164" font-size="0.034867" fill="hsl(180.0,100%,20%)">amaiorano</text>
<text x="0.937" y="0.450" font-size="0.091542" fill="hsl(180.0,100%,20%)">bclayton</text>
<text x="0.545" y="0.496" font-size="0.066539" fill="hsl(180.0,100%,20%)">jrprice</text>
<text x="1.165" y="0.494" font-size="0.024016" fill="hsl(180.0,100%,20%)">dneto</text>
<text x="0.629" y="0.418" font-size="0.013866" fill="hsl(180.0,100%,20%)">rharrison</text>
<text x="1.159" y="0.387" font-size="0.004756" fill="hsl(0.0,100%,20%)">andre</text>
<text x="0.620" y="0.689" font-size="0.014268" fill="hsl(0.0,100%,20%)">arthursonzogni</text>
<text x="0.741" y="0.666" font-size="0.002378" fill="hsl(0.0,100%,20%)">khaslett</text>
<text x="1.134" y="0.583" font-size="0.006726" fill="hsl(0.0,100%,20%)">austineng</text>
<text x="1.005" y="0.699" font-size="0.023540" fill="hsl(0.0,100%,20%)">shrekshao</text>
<text x="1.118" y="0.776" font-size="0.045368" fill="hsl(0.0,100%,20%)">lokokung</text>
<text x="1.158" y="0.958" font-size="0.004756" fill="hsl(0.0,100%,20%)">avi</text>
<text x="1.424" y="0.635" font-size="0.020456" fill="hsl(0.0,100%,20%)">bajones</text>
<text x="1.618" y="0.586" font-size="0.003363" fill="hsl(0.0,100%,20%)">brucedawson</text>
<text x="1.192" y="0.907" font-size="0.024482" fill="hsl(0.0,100%,20%)">senorblanco</text>
<text x="0.702" y="0.325" font-size="0.002378" fill="hsl(180.0,100%,20%)">kjlubick</text>
<text x="0.564" y="0.724" font-size="0.036375" fill="hsl(0.0,100%,20%)">jiawei.shao</text>
<text x="0.117" y="0.763" font-size="0.014658" fill="hsl(0.0,100%,20%)">beaufort.francois</text>
<text x="0.773" y="0.673" font-size="0.011890" fill="hsl(0.0,100%,20%)">blundell</text>
<text x="0.858" y="0.321" font-size="0.010365" fill="hsl(180.0,100%,20%)">brandon1.jones</text>
<text x="1.050" y="0.979" font-size="0.009804" fill="hsl(0.0,100%,20%)">bsheedy</text>
<text x="1.200" y="-0.932" font-size="0.003363" fill="hsl(0.0,100%,20%)">gbeaty</text>
<text x="0.298" y="0.419" font-size="0.002378" fill="hsl(0.0,100%,20%)">fhorschig</text>
<text x="0.287" y="0.578" font-size="0.002378" fill="hsl(0.0,100%,20%)">jamesgk</text>
<text x="1.482" y="0.936" font-size="0.031004" fill="hsl(0.0,100%,20%)">penghuang</text>
<text x="1.329" y="0.577" font-size="0.017147" fill="hsl(0.0,100%,20%)">lehoangquyen</text>
<text x="0.397" y="0.748" font-size="0.002378" fill="hsl(0.0,100%,20%)">fbeaufort</text>
<text x="1.260" y="0.967" font-size="0.006726" fill="hsl(0.0,100%,20%)">yunchao.he</text>
<text x="1.126" y="0.970" font-size="0.004119" fill="hsl(0.0,100%,20%)">danakj</text>
<text x="1.324" y="0.361" font-size="0.004119" fill="hsl(180.0,100%,20%)">alanbaker</text>
<text x="1.267" y="0.953" font-size="0.018110" fill="hsl(0.0,100%,20%)">gman</text>
<text x="0.250" y="0.705" font-size="0.006291" fill="hsl(0.0,100%,20%)">elie.michel.fr</text>
<text x="0.275" y="0.677" font-size="0.024250" fill="hsl(0.0,100%,20%)">jie.a.chen</text>
<text x="1.057" y="0.924" font-size="0.004119" fill="hsl(0.0,100%,20%)">toji</text>
<text x="0.624" y="0.873" font-size="0.012356" fill="hsl(0.0,100%,20%)">tiszka</text>
<text x="0.947" y="0.949" font-size="0.013452" fill="hsl(0.0,100%,20%)">hao.x.li</text>
<text x="0.828" y="0.699" font-size="0.007520" fill="hsl(0.0,100%,20%)">hitawala</text>
<text x="1.692" y="0.741" font-size="0.009210" fill="hsl(0.0,100%,20%)">sunnyps</text>
<text x="0.995" y="0.289" font-size="0.007887" fill="hsl(180.0,100%,20%)">jason.erb</text>
<text x="0.205" y="0.580" font-size="0.004119" fill="hsl(0.0,100%,20%)">jianlin.qiu</text>
<text x="0.354" y="0.648" font-size="0.012583" fill="hsl(0.0,100%,20%)">zhaoming.jiang</text>
<text x="0.456" y="0.896" font-size="0.003363" fill="hsl(0.0,100%,20%)">rafael.cintron</text>
<text x="0.435" y="0.233" font-size="0.006726" fill="hsl(180.0,100%,20%)">jojwang</text>
<text x="0.453" y="0.601" font-size="0.002378" fill="hsl(180.0,100%,20%)">johnstiles</text>
<text x="1.236" y="0.683" font-size="0.002378" fill="hsl(0.0,100%,20%)">kbr</text>
<text x="0.387" y="0.854" font-size="0.011404" fill="hsl(0.0,100%,20%)">shaobo.yan</text>
<text x="0.456" y="0.369" font-size="0.004756" fill="hsl(180.0,100%,20%)">stha09</text>
<text x="0.227" y="0.638" font-size="0.006291" fill="hsl(0.0,100%,20%)">vollick</text>
<text x="0.999" y="0.915" font-size="0.009804" fill="hsl(0.0,100%,20%)">ynovikov</text>
</svg>
