<svg width="4000" height="2000" viewBox="-0.025 -0.025 2.05 1.05" xmlns="http://www.w3.org/2000/svg">
  <style>
    path {
      fill: none;
      stroke-linecap: round;
      stroke-opacity: 0.4;
    }

    text {
      text-anchor: middle;
      alignment-baseline: hanging;
    }
  </style>
  <g opacity="0.4">
<path d="M1.129 0.174 Q0.880 0.219 0.914 0.351" stroke="hsl(0.0,100%,35%)" stroke-width="0.00545"></path>
<path d="M1.129 0.174 Q0.784 0.115 0.594 0.271" stroke="hsl(0.0,100%,35%)" stroke-width="0.00403"></path>
<path d="M1.129 0.174 Q0.941 0.220 0.990 0.322" stroke="hsl(0.0,100%,35%)" stroke-width="0.00024"></path>
<path d="M1.129 0.174 Q0.929 0.280 1.093 0.401" stroke="hsl(0.0,100%,35%)" stroke-width="0.00047"></path>
<path d="M0.914 0.351 Q0.818 0.247 0.594 0.271" stroke="hsl(0.0,100%,35%)" stroke-width="0.01515"></path>
<path d="M0.914 0.351 Q1.154 0.565 1.626 0.495" stroke="hsl(0.0,100%,35%)" stroke-width="0.00260"></path>
<path d="M0.914 0.351 Q1.163 0.486 1.483 0.394" stroke="hsl(0.0,100%,35%)" stroke-width="0.00024"></path>
<path d="M0.914 0.351 Q0.879 0.115 0.411 0.080" stroke="hsl(0.0,100%,35%)" stroke-width="0.00166"></path>
<path d="M0.914 0.351 Q0.975 0.352 0.990 0.322" stroke="hsl(0.0,100%,35%)" stroke-width="0.00166"></path>
<path d="M0.914 0.351 Q0.549 0.214 0.201 0.362" stroke="hsl(0.0,100%,35%)" stroke-width="0.00403"></path>
<path d="M0.914 0.351 Q1.149 0.635 1.756 0.583" stroke="hsl(0.0,100%,35%)" stroke-width="0.00521"></path>
<path d="M0.914 0.351 Q1.163 0.305 1.129 0.174" stroke="hsl(0.0,100%,35%)" stroke-width="0.00071"></path>
<path d="M0.914 0.351 Q0.748 0.410 0.829 0.504" stroke="hsl(0.0,100%,35%)" stroke-width="0.00071"></path>
<path d="M0.594 0.271 Q0.325 0.238 0.201 0.362" stroke="hsl(0.0,100%,35%)" stroke-width="0.05446"></path>
<path d="M0.594 0.271 Q0.751 0.376 0.990 0.322" stroke="hsl(0.0,100%,35%)" stroke-width="0.05848"></path>
<path d="M0.594 0.271 Q0.655 0.139 0.411 0.080" stroke="hsl(0.0,100%,35%)" stroke-width="0.04546"></path>
<path d="M0.594 0.271 Q0.931 0.590 1.626 0.495" stroke="hsl(0.0,100%,35%)" stroke-width="0.01350"></path>
<path d="M0.594 0.271 Q0.690 0.375 0.914 0.351" stroke="hsl(0.0,100%,35%)" stroke-width="0.00568"></path>
<path d="M0.594 0.271 Q0.571 0.167 0.363 0.155" stroke="hsl(0.0,100%,35%)" stroke-width="0.00189"></path>
<path d="M0.594 0.271 Q0.926 0.659 1.756 0.583" stroke="hsl(0.0,100%,35%)" stroke-width="0.02557"></path>
<path d="M0.594 0.271 Q1.291 0.455 1.802 0.155" stroke="hsl(0.0,100%,35%)" stroke-width="0.00047"></path>
<path d="M0.594 0.271 Q0.372 0.288 0.357 0.400" stroke="hsl(0.0,100%,35%)" stroke-width="0.00118"></path>
<path d="M0.594 0.271 Q0.739 0.436 1.093 0.401" stroke="hsl(0.0,100%,35%)" stroke-width="0.00047"></path>
<path d="M0.594 0.271 Q1.190 0.386 1.545 0.121" stroke="hsl(0.0,100%,35%)" stroke-width="0.00024"></path>
<path d="M0.594 0.271 Q0.706 0.521 1.218 0.522" stroke="hsl(0.0,100%,35%)" stroke-width="0.00024"></path>
<path d="M0.594 0.271 Q1.064 0.522 1.657 0.348" stroke="hsl(0.0,100%,35%)" stroke-width="0.00024"></path>
<path d="M0.594 0.271 Q0.724 0.171 0.558 0.086" stroke="hsl(0.0,100%,35%)" stroke-width="0.00024"></path>
<path d="M0.990 0.322 Q0.564 0.184 0.201 0.362" stroke="hsl(0.0,100%,35%)" stroke-width="0.00474"></path>
<path d="M0.990 0.322 Q0.833 0.217 0.594 0.271" stroke="hsl(0.0,100%,35%)" stroke-width="0.03102"></path>
<path d="M0.990 0.322 Q0.894 0.085 0.411 0.080" stroke="hsl(0.0,100%,35%)" stroke-width="0.00308"></path>
<path d="M0.990 0.322 Q1.165 0.605 1.756 0.583" stroke="hsl(0.0,100%,35%)" stroke-width="0.00213"></path>
<path d="M0.990 0.322 Q1.170 0.536 1.626 0.495" stroke="hsl(0.0,100%,35%)" stroke-width="0.00071"></path>
<path d="M1.093 0.401 Q1.044 0.340 0.914 0.351" stroke="hsl(0.0,100%,35%)" stroke-width="0.00095"></path>
<path d="M1.093 0.401 Q0.948 0.236 0.594 0.271" stroke="hsl(0.0,100%,35%)" stroke-width="0.00142"></path>
<path d="M1.093 0.401 Q1.294 0.295 1.129 0.174" stroke="hsl(0.0,100%,35%)" stroke-width="0.00047"></path>
<path d="M1.093 0.401 Q1.060 0.487 1.218 0.522" stroke="hsl(0.0,100%,35%)" stroke-width="0.00047"></path>
<path d="M1.093 0.401 Q1.009 0.105 0.411 0.080" stroke="hsl(0.0,100%,35%)" stroke-width="0.00024"></path>
<path d="M1.395 0.582 Q1.581 0.585 1.626 0.495" stroke="hsl(180.0,100%,35%)" stroke-width="0.00024"></path>
<path d="M1.395 0.582 Q1.576 0.655 1.756 0.583" stroke="hsl(180.0,100%,35%)" stroke-width="0.00047"></path>
<path d="M1.395 0.582 Q1.244 0.266 0.594 0.271" stroke="hsl(180.0,100%,35%)" stroke-width="0.00024"></path>
<path d="M1.626 0.495 Q1.621 0.565 1.756 0.583" stroke="hsl(180.0,100%,35%)" stroke-width="0.01468"></path>
<path d="M1.626 0.495 Q1.486 0.528 1.519 0.603" stroke="hsl(180.0,100%,35%)" stroke-width="0.00639"></path>
<path d="M1.626 0.495 Q1.885 0.292 1.545 0.121" stroke="hsl(180.0,100%,35%)" stroke-width="0.00474"></path>
<path d="M1.626 0.495 Q1.986 0.360 1.802 0.155" stroke="hsl(180.0,100%,35%)" stroke-width="0.00308"></path>
<path d="M1.626 0.495 Q1.714 0.563 1.865 0.535" stroke="hsl(180.0,100%,35%)" stroke-width="0.00403"></path>
<path d="M1.626 0.495 Q1.635 0.416 1.483 0.394" stroke="hsl(180.0,100%,35%)" stroke-width="0.00095"></path>
<path d="M1.626 0.495 Q1.290 0.177 0.594 0.271" stroke="hsl(180.0,100%,35%)" stroke-width="0.00260"></path>
<path d="M1.626 0.495 Q1.377 0.453 1.240 0.565" stroke="hsl(180.0,100%,35%)" stroke-width="0.00047"></path>
<path d="M1.626 0.495 Q1.447 0.281 0.990 0.322" stroke="hsl(180.0,100%,35%)" stroke-width="0.00024"></path>
<path d="M1.626 0.495 Q1.386 0.280 0.914 0.351" stroke="hsl(180.0,100%,35%)" stroke-width="0.00047"></path>
<path d="M1.626 0.495 Q1.021 0.144 0.201 0.362" stroke="hsl(180.0,100%,35%)" stroke-width="0.00095"></path>
<path d="M1.626 0.495 Q1.519 0.653 1.803 0.740" stroke="hsl(180.0,100%,35%)" stroke-width="0.00047"></path>
<path d="M1.626 0.495 Q1.351 0.045 0.411 0.080" stroke="hsl(180.0,100%,35%)" stroke-width="0.00024"></path>
<path d="M1.626 0.495 Q1.267 0.073 0.363 0.155" stroke="hsl(180.0,100%,35%)" stroke-width="0.00308"></path>
<path d="M1.626 0.495 Q1.816 0.568 1.999 0.491" stroke="hsl(180.0,100%,35%)" stroke-width="0.00071"></path>
<path d="M1.626 0.495 Q1.571 0.643 1.847 0.703" stroke="hsl(180.0,100%,35%)" stroke-width="0.00024"></path>
<path d="M1.626 0.495 Q1.431 0.424 1.249 0.503" stroke="hsl(180.0,100%,35%)" stroke-width="0.00118"></path>
<path d="M1.756 0.583 Q1.761 0.513 1.626 0.495" stroke="hsl(180.0,100%,35%)" stroke-width="0.02297"></path>
<path d="M1.756 0.583 Q1.155 0.161 0.201 0.362" stroke="hsl(180.0,100%,35%)" stroke-width="0.00095"></path>
<path d="M1.756 0.583 Q2.121 0.378 1.802 0.155" stroke="hsl(180.0,100%,35%)" stroke-width="0.00734"></path>
<path d="M1.756 0.583 Q1.621 0.546 1.519 0.603" stroke="hsl(180.0,100%,35%)" stroke-width="0.00474"></path>
<path d="M1.756 0.583 Q1.424 0.194 0.594 0.271" stroke="hsl(180.0,100%,35%)" stroke-width="0.01018"></path>
<path d="M1.756 0.583 Q1.520 0.298 0.914 0.351" stroke="hsl(180.0,100%,35%)" stroke-width="0.00118"></path>
<path d="M1.756 0.583 Q2.020 0.310 1.545 0.121" stroke="hsl(180.0,100%,35%)" stroke-width="0.00237"></path>
<path d="M1.756 0.583 Q1.512 0.471 1.240 0.565" stroke="hsl(180.0,100%,35%)" stroke-width="0.00024"></path>
<path d="M1.756 0.583 Q1.474 0.581 1.409 0.719" stroke="hsl(180.0,100%,35%)" stroke-width="0.00047"></path>
<path d="M1.756 0.583 Q1.409 0.567 1.301 0.732" stroke="hsl(180.0,100%,35%)" stroke-width="0.00024"></path>
<path d="M1.756 0.583 Q1.629 0.613 1.661 0.682" stroke="hsl(180.0,100%,35%)" stroke-width="0.00024"></path>
<path d="M1.756 0.583 Q1.401 0.090 0.363 0.155" stroke="hsl(180.0,100%,35%)" stroke-width="0.00521"></path>
<path d="M1.756 0.583 Q1.770 0.434 1.483 0.394" stroke="hsl(180.0,100%,35%)" stroke-width="0.00024"></path>
<path d="M1.756 0.583 Q1.849 0.581 1.865 0.535" stroke="hsl(180.0,100%,35%)" stroke-width="0.00260"></path>
<path d="M1.756 0.583 Q1.383 0.464 1.069 0.619" stroke="hsl(180.0,100%,35%)" stroke-width="0.00024"></path>
<path d="M1.756 0.583 Q1.490 0.610 1.485 0.746" stroke="hsl(180.0,100%,35%)" stroke-width="0.00024"></path>
<path d="M1.756 0.583 Q1.582 0.299 0.990 0.322" stroke="hsl(180.0,100%,35%)" stroke-width="0.00024"></path>
<path d="M0.201 0.362 Q0.470 0.395 0.594 0.271" stroke="hsl(0.0,100%,35%)" stroke-width="0.04238"></path>
<path d="M0.201 0.362 Q1.066 0.510 1.545 0.121" stroke="hsl(0.0,100%,35%)" stroke-width="0.00047"></path>
<path d="M0.201 0.362 Q0.531 0.263 0.411 0.080" stroke="hsl(0.0,100%,35%)" stroke-width="0.00237"></path>
<path d="M0.201 0.362 Q0.802 0.783 1.756 0.583" stroke="hsl(0.0,100%,35%)" stroke-width="0.00355"></path>
<path d="M0.201 0.362 Q0.628 0.500 0.990 0.322" stroke="hsl(0.0,100%,35%)" stroke-width="0.00189"></path>
<path d="M0.201 0.362 Q0.807 0.714 1.626 0.495" stroke="hsl(0.0,100%,35%)" stroke-width="0.00166"></path>
<path d="M0.201 0.362 Q0.249 0.412 0.357 0.400" stroke="hsl(0.0,100%,35%)" stroke-width="0.00047"></path>
<path d="M0.201 0.362 Q0.567 0.499 0.914 0.351" stroke="hsl(0.0,100%,35%)" stroke-width="0.00118"></path>
<path d="M0.201 0.362 Q1.167 0.579 1.802 0.155" stroke="hsl(0.0,100%,35%)" stroke-width="0.00024"></path>
<path d="M0.411 0.080 Q0.350 0.212 0.594 0.271" stroke="hsl(0.0,100%,35%)" stroke-width="0.01681"></path>
<path d="M0.411 0.080 Q0.687 0.531 1.626 0.495" stroke="hsl(0.0,100%,35%)" stroke-width="0.00024"></path>
<path d="M0.411 0.080 Q0.508 0.317 0.990 0.322" stroke="hsl(0.0,100%,35%)" stroke-width="0.00308"></path>
<path d="M0.411 0.080 Q0.081 0.179 0.201 0.362" stroke="hsl(0.0,100%,35%)" stroke-width="0.01279"></path>
<path d="M0.411 0.080 Q0.480 0.113 0.558 0.086" stroke="hsl(0.0,100%,35%)" stroke-width="0.00900"></path>
<path d="M0.411 0.080 Q0.682 0.601 1.756 0.583" stroke="hsl(0.0,100%,35%)" stroke-width="0.00024"></path>
<path d="M0.411 0.080 Q0.446 0.316 0.914 0.351" stroke="hsl(0.0,100%,35%)" stroke-width="0.00024"></path>
<path d="M1.802 0.155 Q1.451 0.211 1.483 0.394" stroke="hsl(180.0,100%,35%)" stroke-width="0.00047"></path>
<path d="M1.802 0.155 Q1.302 0.323 1.519 0.603" stroke="hsl(180.0,100%,35%)" stroke-width="0.00024"></path>
<path d="M1.802 0.155 Q1.442 0.290 1.626 0.495" stroke="hsl(180.0,100%,35%)" stroke-width="0.00829"></path>
<path d="M1.802 0.155 Q1.437 0.360 1.756 0.583" stroke="hsl(180.0,100%,35%)" stroke-width="0.00710"></path>
<path d="M1.802 0.155 Q1.106 -0.029 0.594 0.271" stroke="hsl(180.0,100%,35%)" stroke-width="0.00047"></path>
<path d="M1.802 0.155 Q1.701 0.087 1.545 0.121" stroke="hsl(180.0,100%,35%)" stroke-width="0.00450"></path>
<path d="M1.802 0.155 Q0.837 -0.062 0.201 0.362" stroke="hsl(180.0,100%,35%)" stroke-width="0.00024"></path>
<path d="M1.802 0.155 Q1.258 0.345 1.509 0.652" stroke="hsl(180.0,100%,35%)" stroke-width="0.00024"></path>
<path d="M1.483 0.394 Q1.474 0.474 1.626 0.495" stroke="hsl(180.0,100%,35%)" stroke-width="0.00521"></path>
<path d="M1.483 0.394 Q1.834 0.339 1.802 0.155" stroke="hsl(180.0,100%,35%)" stroke-width="0.00024"></path>
<path d="M1.483 0.394 Q1.733 0.270 1.545 0.121" stroke="hsl(180.0,100%,35%)" stroke-width="0.00071"></path>
<path d="M1.483 0.394 Q1.137 0.155 0.594 0.271" stroke="hsl(180.0,100%,35%)" stroke-width="0.00047"></path>
<path d="M1.483 0.394 Q1.469 0.543 1.756 0.583" stroke="hsl(180.0,100%,35%)" stroke-width="0.00166"></path>
<path d="M1.483 0.394 Q0.868 0.122 0.201 0.362" stroke="hsl(180.0,100%,35%)" stroke-width="0.00024"></path>
<path d="M1.483 0.394 Q1.233 0.259 0.914 0.351" stroke="hsl(180.0,100%,35%)" stroke-width="0.00047"></path>
<path d="M1.519 0.603 Q1.918 0.367 1.545 0.121" stroke="hsl(180.0,100%,35%)" stroke-width="0.00095"></path>
<path d="M1.519 0.603 Q1.659 0.571 1.626 0.495" stroke="hsl(180.0,100%,35%)" stroke-width="0.00639"></path>
<path d="M1.519 0.603 Q1.668 0.492 1.483 0.394" stroke="hsl(180.0,100%,35%)" stroke-width="0.00047"></path>
<path d="M1.519 0.603 Q1.654 0.640 1.756 0.583" stroke="hsl(180.0,100%,35%)" stroke-width="0.00284"></path>
<path d="M1.545 0.121 Q1.286 0.324 1.626 0.495" stroke="hsl(180.0,100%,35%)" stroke-width="0.00237"></path>
<path d="M1.545 0.121 Q1.146 0.357 1.519 0.603" stroke="hsl(180.0,100%,35%)" stroke-width="0.00047"></path>
<path d="M1.545 0.121 Q1.281 0.394 1.756 0.583" stroke="hsl(180.0,100%,35%)" stroke-width="0.00095"></path>
<path d="M1.545 0.121 Q1.646 0.189 1.802 0.155" stroke="hsl(180.0,100%,35%)" stroke-width="0.00024"></path>
<path d="M0.363 0.155 Q0.386 0.259 0.594 0.271" stroke="hsl(0.0,100%,35%)" stroke-width="0.01681"></path>
<path d="M0.363 0.155 Q0.723 0.578 1.626 0.495" stroke="hsl(0.0,100%,35%)" stroke-width="0.00331"></path>
<path d="M0.363 0.155 Q0.718 0.647 1.756 0.583" stroke="hsl(0.0,100%,35%)" stroke-width="0.00213"></path>
<path d="M0.363 0.155 Q0.447 0.127 0.411 0.080" stroke="hsl(0.0,100%,35%)" stroke-width="0.00071"></path>
<path d="M0.363 0.155 Q0.117 0.226 0.201 0.362" stroke="hsl(0.0,100%,35%)" stroke-width="0.00071"></path>
<path d="M0.363 0.155 Q0.982 0.374 1.545 0.121" stroke="hsl(0.0,100%,35%)" stroke-width="0.00071"></path>
<path d="M0.357 0.400 Q0.578 0.383 0.594 0.271" stroke="hsl(0.0,100%,35%)" stroke-width="0.00829"></path>
<path d="M0.357 0.400 Q0.736 0.488 0.990 0.322" stroke="hsl(0.0,100%,35%)" stroke-width="0.00355"></path>
<path d="M0.357 0.400 Q0.309 0.350 0.201 0.362" stroke="hsl(0.0,100%,35%)" stroke-width="0.00166"></path>
<path d="M0.357 0.400 Q1.174 0.498 1.545 0.121" stroke="hsl(0.0,100%,35%)" stroke-width="0.00047"></path>
<path d="M1.657 0.348 Q1.524 0.416 1.626 0.495" stroke="hsl(180.0,100%,35%)" stroke-width="0.00308"></path>
<path d="M1.657 0.348 Q1.519 0.485 1.756 0.583" stroke="hsl(180.0,100%,35%)" stroke-width="0.00213"></path>
<path d="M1.657 0.348 Q1.345 0.202 0.990 0.322" stroke="hsl(180.0,100%,35%)" stroke-width="0.00024"></path>
<path d="M1.657 0.348 Q1.187 0.097 0.594 0.271" stroke="hsl(180.0,100%,35%)" stroke-width="0.00260"></path>
<path d="M1.657 0.348 Q1.384 0.448 1.519 0.603" stroke="hsl(180.0,100%,35%)" stroke-width="0.00024"></path>
<path d="M1.657 0.348 Q1.783 0.212 1.545 0.121" stroke="hsl(180.0,100%,35%)" stroke-width="0.00047"></path>
<path d="M1.657 0.348 Q1.283 0.201 0.914 0.351" stroke="hsl(180.0,100%,35%)" stroke-width="0.00024"></path>
<path d="M1.657 0.348 Q1.248 -0.035 0.411 0.080" stroke="hsl(180.0,100%,35%)" stroke-width="0.00024"></path>
<path d="M1.409 0.719 Q1.692 0.720 1.756 0.583" stroke="hsl(180.0,100%,35%)" stroke-width="0.00095"></path>
<path d="M1.409 0.719 Q1.697 0.650 1.626 0.495" stroke="hsl(180.0,100%,35%)" stroke-width="0.00024"></path>
<path d="M1.409 0.719 Q2.057 0.516 1.802 0.155" stroke="hsl(180.0,100%,35%)" stroke-width="0.00024"></path>
<path d="M1.999 0.491 Q1.809 0.419 1.626 0.495" stroke="hsl(180.0,100%,35%)" stroke-width="0.00189"></path>
<path d="M1.999 0.491 Q1.804 0.488 1.756 0.583" stroke="hsl(180.0,100%,35%)" stroke-width="0.00142"></path>
<path d="M1.999 0.491 Q1.702 0.576 1.803 0.740" stroke="hsl(180.0,100%,35%)" stroke-width="0.00024"></path>
<path d="M1.556 0.502 Q1.592 0.582 1.756 0.583" stroke="hsl(180.0,100%,35%)" stroke-width="0.00166"></path>
<path d="M1.556 0.502 Q1.597 0.513 1.626 0.495" stroke="hsl(180.0,100%,35%)" stroke-width="0.00071"></path>
<path d="M1.556 0.502 Q1.489 0.670 1.803 0.740" stroke="hsl(180.0,100%,35%)" stroke-width="0.00024"></path>
<path d="M1.240 0.565 Q1.489 0.607 1.626 0.495" stroke="hsl(180.0,100%,35%)" stroke-width="0.00426"></path>
<path d="M1.240 0.565 Q1.748 0.404 1.545 0.121" stroke="hsl(180.0,100%,35%)" stroke-width="0.00024"></path>
<path d="M1.240 0.565 Q1.498 0.528 1.483 0.394" stroke="hsl(180.0,100%,35%)" stroke-width="0.00024"></path>
<path d="M1.240 0.565 Q1.484 0.677 1.756 0.583" stroke="hsl(180.0,100%,35%)" stroke-width="0.00521"></path>
<path d="M1.240 0.565 Q1.849 0.473 1.802 0.155" stroke="hsl(180.0,100%,35%)" stroke-width="0.00024"></path>
<path d="M1.240 0.565 Q1.577 0.675 1.865 0.535" stroke="hsl(180.0,100%,35%)" stroke-width="0.00142"></path>
<path d="M1.661 0.682 Q1.792 0.582 1.626 0.495" stroke="hsl(180.0,100%,35%)" stroke-width="0.00118"></path>
<path d="M1.661 0.682 Q1.788 0.651 1.756 0.583" stroke="hsl(180.0,100%,35%)" stroke-width="0.00071"></path>
<path d="M1.661 0.682 Q1.552 0.367 0.914 0.351" stroke="hsl(180.0,100%,35%)" stroke-width="0.00024"></path>
<path d="M1.661 0.682 Q1.456 0.263 0.594 0.271" stroke="hsl(180.0,100%,35%)" stroke-width="0.00047"></path>
<path d="M1.661 0.682 Q1.517 0.131 0.411 0.080" stroke="hsl(180.0,100%,35%)" stroke-width="0.00024"></path>
<path d="M1.865 0.535 Q1.772 0.537 1.756 0.583" stroke="hsl(180.0,100%,35%)" stroke-width="0.01089"></path>
<path d="M1.865 0.535 Q1.777 0.467 1.626 0.495" stroke="hsl(180.0,100%,35%)" stroke-width="0.01255"></path>
<path d="M1.865 0.535 Q1.441 0.149 0.594 0.271" stroke="hsl(180.0,100%,35%)" stroke-width="0.00047"></path>
<path d="M1.865 0.535 Q1.637 0.500 1.519 0.603" stroke="hsl(180.0,100%,35%)" stroke-width="0.00047"></path>
<path d="M1.865 0.535 Q2.137 0.332 1.802 0.155" stroke="hsl(180.0,100%,35%)" stroke-width="0.00047"></path>
<path d="M1.865 0.535 Q1.938 0.542 1.967 0.508" stroke="hsl(180.0,100%,35%)" stroke-width="0.00024"></path>
<path d="M1.865 0.535 Q1.639 0.519 1.558 0.626" stroke="hsl(180.0,100%,35%)" stroke-width="0.00024"></path>
<path d="M1.865 0.535 Q1.418 0.045 0.363 0.155" stroke="hsl(180.0,100%,35%)" stroke-width="0.00047"></path>
<path d="M1.865 0.535 Q2.036 0.264 1.545 0.121" stroke="hsl(180.0,100%,35%)" stroke-width="0.00047"></path>
<path d="M1.865 0.535 Q1.537 0.253 0.914 0.351" stroke="hsl(180.0,100%,35%)" stroke-width="0.00047"></path>
<path d="M1.069 0.619 Q1.535 0.736 1.865 0.535" stroke="hsl(180.0,100%,35%)" stroke-width="0.00071"></path>
<path d="M1.069 0.619 Q1.447 0.669 1.626 0.495" stroke="hsl(180.0,100%,35%)" stroke-width="0.00095"></path>
<path d="M1.069 0.619 Q1.442 0.738 1.756 0.583" stroke="hsl(180.0,100%,35%)" stroke-width="0.00047"></path>
<path d="M1.069 0.619 Q1.340 0.826 1.803 0.740" stroke="hsl(180.0,100%,35%)" stroke-width="0.00047"></path>
<path d="M1.485 0.746 Q1.751 0.719 1.756 0.583" stroke="hsl(180.0,100%,35%)" stroke-width="0.00047"></path>
<path d="M1.485 0.746 Q1.756 0.649 1.626 0.495" stroke="hsl(180.0,100%,35%)" stroke-width="0.00024"></path>
<path d="M1.249 0.503 Q1.439 0.644 1.756 0.583" stroke="hsl(180.0,100%,35%)" stroke-width="0.00734"></path>
<path d="M1.249 0.503 Q1.444 0.575 1.626 0.495" stroke="hsl(180.0,100%,35%)" stroke-width="0.00829"></path>
<path d="M1.249 0.503 Q1.703 0.371 1.545 0.121" stroke="hsl(180.0,100%,35%)" stroke-width="0.00095"></path>
<path d="M1.249 0.503 Q1.532 0.642 1.865 0.535" stroke="hsl(180.0,100%,35%)" stroke-width="0.00142"></path>
<path d="M1.123 0.905 Q1.105 0.823 0.941 0.814" stroke="hsl(180.0,100%,35%)" stroke-width="0.00024"></path>
<path d="M1.123 0.905 Q1.431 0.898 1.485 0.746" stroke="hsl(180.0,100%,35%)" stroke-width="0.00024"></path>
<path d="M1.123 0.905 Q1.697 0.870 1.756 0.583" stroke="hsl(180.0,100%,35%)" stroke-width="0.00024"></path>
<path d="M1.967 0.508 Q1.860 0.576 1.968 0.643" stroke="hsl(180.0,100%,35%)" stroke-width="0.00024"></path>
<path d="M1.967 0.508 Q2.065 0.230 1.545 0.121" stroke="hsl(180.0,100%,35%)" stroke-width="0.00118"></path>
<path d="M1.967 0.508 Q1.801 0.503 1.756 0.583" stroke="hsl(180.0,100%,35%)" stroke-width="0.00403"></path>
<path d="M1.967 0.508 Q1.806 0.433 1.626 0.495" stroke="hsl(180.0,100%,35%)" stroke-width="0.00284"></path>
<path d="M1.967 0.508 Q1.894 0.501 1.865 0.535" stroke="hsl(180.0,100%,35%)" stroke-width="0.00047"></path>
<path d="M1.967 0.508 Q1.470 0.115 0.594 0.271" stroke="hsl(180.0,100%,35%)" stroke-width="0.00024"></path>
<path d="M1.558 0.626 Q1.697 0.574 1.626 0.495" stroke="hsl(180.0,100%,35%)" stroke-width="0.00213"></path>
<path d="M1.558 0.626 Q1.784 0.642 1.865 0.535" stroke="hsl(180.0,100%,35%)" stroke-width="0.00047"></path>
<path d="M1.558 0.626 Q1.692 0.644 1.756 0.583" stroke="hsl(180.0,100%,35%)" stroke-width="0.00213"></path>
<path d="M1.558 0.626 Q1.956 0.371 1.545 0.121" stroke="hsl(180.0,100%,35%)" stroke-width="0.00047"></path>
<path d="M1.361 0.393 Q1.407 0.567 1.756 0.583" stroke="hsl(180.0,100%,35%)" stroke-width="0.00118"></path>
<path d="M1.361 0.393 Q1.412 0.497 1.626 0.495" stroke="hsl(180.0,100%,35%)" stroke-width="0.00118"></path>
<path d="M1.361 0.393 Q1.500 0.565 1.865 0.535" stroke="hsl(180.0,100%,35%)" stroke-width="0.00024"></path>
<path d="M0.889 0.538 Q1.287 0.734 1.756 0.583" stroke="hsl(180.0,100%,35%)" stroke-width="0.00284"></path>
<path d="M0.889 0.538 Q1.292 0.664 1.626 0.495" stroke="hsl(180.0,100%,35%)" stroke-width="0.00237"></path>
<path d="M0.889 0.538 Q0.979 0.518 0.960 0.470" stroke="hsl(180.0,100%,35%)" stroke-width="0.00024"></path>
<path d="M0.889 0.538 Q1.379 0.732 1.865 0.535" stroke="hsl(180.0,100%,35%)" stroke-width="0.00071"></path>
<path d="M1.424 0.396 Q1.205 0.271 0.914 0.351" stroke="hsl(180.0,100%,35%)" stroke-width="0.00024"></path>
<path d="M1.424 0.396 Q1.440 0.556 1.756 0.583" stroke="hsl(180.0,100%,35%)" stroke-width="0.00047"></path>
<path d="M1.424 0.396 Q1.704 0.283 1.545 0.121" stroke="hsl(180.0,100%,35%)" stroke-width="0.00024"></path>
<path d="M1.424 0.396 Q1.445 0.486 1.626 0.495" stroke="hsl(180.0,100%,35%)" stroke-width="0.00024"></path>
<path d="M1.407 0.354 Q1.264 0.501 1.519 0.603" stroke="hsl(180.0,100%,35%)" stroke-width="0.00047"></path>
<path d="M1.407 0.354 Q1.404 0.468 1.626 0.495" stroke="hsl(180.0,100%,35%)" stroke-width="0.00071"></path>
<path d="M1.407 0.354 Q1.399 0.538 1.756 0.583" stroke="hsl(180.0,100%,35%)" stroke-width="0.00024"></path>
<path d="M0.685 0.495 Q0.682 0.619 0.925 0.648" stroke="hsl(180.0,100%,35%)" stroke-width="0.00024"></path>
<path d="M0.685 0.495 Q1.155 0.683 1.626 0.495" stroke="hsl(180.0,100%,35%)" stroke-width="0.00024"></path>
<path d="M1.906 0.416 Q1.703 0.400 1.626 0.495" stroke="hsl(180.0,100%,35%)" stroke-width="0.00095"></path>
<path d="M1.906 0.416 Q1.698 0.469 1.756 0.583" stroke="hsl(180.0,100%,35%)" stroke-width="0.00142"></path>
<path d="M1.906 0.416 Q1.962 0.196 1.545 0.121" stroke="hsl(180.0,100%,35%)" stroke-width="0.00024"></path>
<path d="M1.200 0.371 Q1.073 0.304 0.914 0.351" stroke="hsl(0.0,100%,35%)" stroke-width="0.00047"></path>
<path d="M1.200 0.371 Q1.309 0.588 1.756 0.583" stroke="hsl(0.0,100%,35%)" stroke-width="0.00047"></path>
<path d="M1.200 0.371 Q0.977 0.200 0.594 0.271" stroke="hsl(0.0,100%,35%)" stroke-width="0.00024"></path>
<path d="M1.863 0.391 Q1.748 0.463 1.865 0.535" stroke="hsl(180.0,100%,35%)" stroke-width="0.00071"></path>
<path d="M1.863 0.391 Q1.412 0.353 1.240 0.565" stroke="hsl(180.0,100%,35%)" stroke-width="0.00024"></path>
<path d="M1.863 0.391 Q1.661 0.396 1.626 0.495" stroke="hsl(180.0,100%,35%)" stroke-width="0.00047"></path>
<path d="M1.863 0.391 Q1.656 0.465 1.756 0.583" stroke="hsl(180.0,100%,35%)" stroke-width="0.00071"></path>
</g>
<text x="1.129" y="0.165" font-size="0.018113" fill="hsl(0.0,100%,20%)">afdx</text>
<text x="0.914" y="0.332" font-size="0.037706" fill="hsl(0.0,100%,20%)">rharrison</text>
<text x="0.594" y="0.220" font-size="0.102231" fill="hsl(0.0,100%,20%)">bclayton</text>
<text x="0.990" y="0.294" font-size="0.056680" fill="hsl(0.0,100%,20%)">amaiorano</text>
<text x="1.093" y="0.396" font-size="0.011396" fill="hsl(0.0,100%,20%)">vasniktel</text>
<text x="1.395" y="0.580" font-size="0.005229" fill="hsl(180.0,100%,20%)">aleksi</text>
<text x="1.626" y="0.462" font-size="0.067217" fill="hsl(180.0,100%,20%)">enga</text>
<text x="1.756" y="0.547" font-size="0.070299" fill="hsl(180.0,100%,20%)">cwallez</text>
<text x="0.201" y="0.331" font-size="0.062419" fill="hsl(0.0,100%,20%)">jrprice</text>
<text x="0.411" y="0.054" font-size="0.052809" fill="hsl(0.0,100%,20%)">dneto</text>
<text x="1.802" y="0.139" font-size="0.031373" fill="hsl(180.0,100%,20%)">bajones</text>
<text x="1.483" y="0.385" font-size="0.018301" fill="hsl(180.0,100%,20%)">shrekshao</text>
<text x="1.519" y="0.590" font-size="0.026144" fill="hsl(180.0,100%,20%)">lokokung</text>
<text x="1.545" y="0.108" font-size="0.026013" fill="hsl(180.0,100%,20%)">kainino</text>
<text x="1.509" y="0.650" font-size="0.002614" fill="hsl(180.0,100%,20%)">headlessclayton</text>
<text x="0.363" y="0.139" font-size="0.031806" fill="hsl(0.0,100%,20%)">senorblanco</text>
<text x="0.357" y="0.389" font-size="0.021240" fill="hsl(0.0,100%,20%)">sarahmashay</text>
<text x="1.218" y="0.519" font-size="0.004528" fill="hsl(0.0,100%,20%)">allydonaldson</text>
<text x="1.657" y="0.340" font-size="0.016535" fill="hsl(180.0,100%,20%)">brandon1.jones</text>
<text x="0.558" y="0.078" font-size="0.016327" fill="hsl(0.0,100%,20%)">alanbaker</text>
<text x="1.409" y="0.715" font-size="0.007395" fill="hsl(180.0,100%,20%)">beaufort.francois</text>
<text x="1.999" y="0.486" font-size="0.011092" fill="hsl(180.0,100%,20%)">bryan.bernhart</text>
<text x="1.803" y="0.737" font-size="0.006404" fill="hsl(180.0,100%,20%)">rafael.cintron</text>
<text x="1.556" y="0.498" font-size="0.008671" fill="hsl(180.0,100%,20%)">cjj19970505</text>
<text x="1.240" y="0.556" font-size="0.019033" fill="hsl(180.0,100%,20%)">hao.x.li</text>
<text x="1.301" y="0.731" font-size="0.002614" fill="hsl(180.0,100%,20%)">fbeaufort</text>
<text x="1.661" y="0.677" font-size="0.009426" fill="hsl(180.0,100%,20%)">rockot</text>
<text x="1.865" y="0.518" font-size="0.033786" fill="hsl(180.0,100%,20%)">jiawei.shao</text>
<text x="1.069" y="0.615" font-size="0.009057" fill="hsl(180.0,100%,20%)">jiajia.qin</text>
<text x="1.485" y="0.743" font-size="0.005846" fill="hsl(180.0,100%,20%)">thakis</text>
<text x="1.847" y="0.701" font-size="0.002614" fill="hsl(180.0,100%,20%)">hob</text>
<text x="1.249" y="0.492" font-size="0.023530" fill="hsl(180.0,100%,20%)">yunchao.he</text>
<text x="1.123" y="0.902" font-size="0.004528" fill="hsl(180.0,100%,20%)">hans</text>
<text x="0.941" y="0.813" font-size="0.002614" fill="hsl(180.0,100%,20%)">hwennborg</text>
<text x="1.967" y="0.499" font-size="0.016327" fill="hsl(180.0,100%,20%)">zhaoming.jiang</text>
<text x="1.558" y="0.619" font-size="0.012538" fill="hsl(180.0,100%,20%)">shaobo.yan</text>
<text x="1.361" y="0.389" font-size="0.008671" fill="hsl(180.0,100%,20%)">jie.a.chen</text>
<text x="0.889" y="0.531" font-size="0.013331" fill="hsl(180.0,100%,20%)">junwei.fu</text>
<text x="0.960" y="0.468" font-size="0.002614" fill="hsl(180.0,100%,20%)">ningxin.hu</text>
<text x="1.424" y="0.393" font-size="0.005846" fill="hsl(180.0,100%,20%)">pkasting</text>
<text x="0.829" y="0.502" font-size="0.004528" fill="hsl(0.0,100%,20%)">jmadill</text>
<text x="1.407" y="0.351" font-size="0.006404" fill="hsl(180.0,100%,20%)">sunnyps</text>
<text x="0.685" y="0.493" font-size="0.003697" fill="hsl(180.0,100%,20%)">svenzheng</text>
<text x="0.925" y="0.647" font-size="0.002614" fill="hsl(180.0,100%,20%)">lgrey</text>
<text x="1.906" y="0.412" font-size="0.008671" fill="hsl(180.0,100%,20%)">tangm</text>
<text x="1.200" y="0.368" font-size="0.005846" fill="hsl(0.0,100%,20%)">vadimsh</text>
<text x="1.863" y="0.387" font-size="0.007843" fill="hsl(180.0,100%,20%)">yang.gu</text>
<text x="1.968" y="0.641" font-size="0.002614" fill="hsl(180.0,100%,20%)">ynovikov</text>
</svg>
