<svg width="4000" height="2000" viewBox="-0.025 -0.025 2.05 1.05" xmlns="http://www.w3.org/2000/svg">
  <style>
    path {
      fill: none;
      stroke-linecap: round;
      stroke-opacity: 0.4;
    }

    text {
      text-anchor: middle;
      alignment-baseline: hanging;
    }
  </style>
  <g opacity="0.4">
<path d="M1.037 0.372 Q0.783 0.323 0.633 0.436" stroke="hsl(0.0,100%,35%)" stroke-width="0.00585"></path>
<path d="M1.037 0.372 Q1.233 0.535 1.595 0.475" stroke="hsl(0.0,100%,35%)" stroke-width="0.00365"></path>
<path d="M1.037 0.372 Q1.478 0.406 1.641 0.198" stroke="hsl(0.0,100%,35%)" stroke-width="0.00219"></path>
<path d="M1.037 0.372 Q0.846 0.194 0.458 0.248" stroke="hsl(0.0,100%,35%)" stroke-width="0.00073"></path>
<path d="M1.037 0.372 Q0.793 0.399 0.793 0.523" stroke="hsl(0.0,100%,35%)" stroke-width="0.00073"></path>
<path d="M0.633 0.436 Q0.886 0.484 1.037 0.372" stroke="hsl(0.0,100%,35%)" stroke-width="0.02266"></path>
<path d="M0.633 0.436 Q1.327 0.519 1.641 0.198" stroke="hsl(0.0,100%,35%)" stroke-width="0.01535"></path>
<path d="M0.633 0.436 Q0.696 0.307 0.458 0.248" stroke="hsl(0.0,100%,35%)" stroke-width="0.02850"></path>
<path d="M0.633 0.436 Q0.492 0.589 0.759 0.691" stroke="hsl(0.0,100%,35%)" stroke-width="0.00804"></path>
<path d="M0.633 0.436 Q0.643 0.511 0.793 0.523" stroke="hsl(0.0,100%,35%)" stroke-width="0.03508"></path>
<path d="M0.633 0.436 Q0.817 0.603 1.185 0.550" stroke="hsl(0.0,100%,35%)" stroke-width="0.00073"></path>
<path d="M0.633 0.436 Q1.405 0.573 1.843 0.226" stroke="hsl(0.0,100%,35%)" stroke-width="0.00073"></path>
<path d="M0.633 0.436 Q0.458 0.475 0.496 0.569" stroke="hsl(0.0,100%,35%)" stroke-width="0.00073"></path>
<path d="M0.633 0.436 Q1.082 0.648 1.595 0.475" stroke="hsl(0.0,100%,35%)" stroke-width="0.00512"></path>
<path d="M1.595 0.475 Q1.571 0.542 1.695 0.568" stroke="hsl(180.0,100%,35%)" stroke-width="0.01827"></path>
<path d="M1.595 0.475 Q1.330 0.431 1.185 0.550" stroke="hsl(180.0,100%,35%)" stroke-width="0.00365"></path>
<path d="M1.595 0.475 Q1.840 0.346 1.641 0.198" stroke="hsl(180.0,100%,35%)" stroke-width="0.00804"></path>
<path d="M1.595 0.475 Q0.924 0.198 0.235 0.465" stroke="hsl(180.0,100%,35%)" stroke-width="0.00073"></path>
<path d="M1.595 0.475 Q1.399 0.312 1.037 0.372" stroke="hsl(180.0,100%,35%)" stroke-width="0.00146"></path>
<path d="M1.595 0.475 Q0.971 0.302 0.496 0.569" stroke="hsl(180.0,100%,35%)" stroke-width="0.00219"></path>
<path d="M1.595 0.475 Q1.156 0.339 0.793 0.523" stroke="hsl(180.0,100%,35%)" stroke-width="0.00146"></path>
<path d="M1.595 0.475 Q1.146 0.263 0.633 0.436" stroke="hsl(180.0,100%,35%)" stroke-width="0.00073"></path>
<path d="M1.641 0.198 Q0.947 0.115 0.633 0.436" stroke="hsl(180.0,100%,35%)" stroke-width="0.01316"></path>
<path d="M1.641 0.198 Q0.957 0.191 0.793 0.523" stroke="hsl(180.0,100%,35%)" stroke-width="0.00073"></path>
<path d="M1.641 0.198 Q1.372 0.394 1.695 0.568" stroke="hsl(180.0,100%,35%)" stroke-width="0.01608"></path>
<path d="M1.641 0.198 Q1.397 0.328 1.595 0.475" stroke="hsl(180.0,100%,35%)" stroke-width="0.02266"></path>
<path d="M1.641 0.198 Q0.543 0.097 0.104 0.611" stroke="hsl(180.0,100%,35%)" stroke-width="0.00073"></path>
<path d="M1.641 0.198 Q1.630 0.270 1.767 0.291" stroke="hsl(180.0,100%,35%)" stroke-width="0.00073"></path>
<path d="M1.641 0.198 Q1.720 0.253 1.843 0.226" stroke="hsl(180.0,100%,35%)" stroke-width="0.00073"></path>
<path d="M1.641 0.198 Q1.132 0.283 1.185 0.550" stroke="hsl(180.0,100%,35%)" stroke-width="0.00146"></path>
<path d="M1.641 0.198 Q0.773 0.154 0.496 0.569" stroke="hsl(180.0,100%,35%)" stroke-width="0.00073"></path>
<path d="M1.641 0.198 Q1.520 0.037 1.178 0.061" stroke="hsl(180.0,100%,35%)" stroke-width="0.00073"></path>
<path d="M1.641 0.198 Q1.574 0.101 1.369 0.113" stroke="hsl(180.0,100%,35%)" stroke-width="0.00073"></path>
<path d="M0.458 0.248 Q0.395 0.377 0.633 0.436" stroke="hsl(0.0,100%,35%)" stroke-width="0.01169"></path>
<path d="M0.458 0.248 Q0.254 0.529 0.759 0.691" stroke="hsl(0.0,100%,35%)" stroke-width="0.01023"></path>
<path d="M0.458 0.248 Q0.648 0.425 1.037 0.372" stroke="hsl(0.0,100%,35%)" stroke-width="0.00146"></path>
<path d="M0.458 0.248 Q0.405 0.452 0.793 0.523" stroke="hsl(0.0,100%,35%)" stroke-width="0.00073"></path>
<path d="M0.458 0.248 Q0.220 0.416 0.496 0.569" stroke="hsl(0.0,100%,35%)" stroke-width="0.00146"></path>
<path d="M0.458 0.248 Q1.089 0.460 1.641 0.198" stroke="hsl(0.0,100%,35%)" stroke-width="0.00073"></path>
<path d="M0.793 0.523 Q0.782 0.447 0.633 0.436" stroke="hsl(0.0,100%,35%)" stroke-width="0.01973"></path>
<path d="M0.793 0.523 Q1.036 0.496 1.037 0.372" stroke="hsl(0.0,100%,35%)" stroke-width="0.00439"></path>
<path d="M0.793 0.523 Q0.378 0.429 0.104 0.611" stroke="hsl(0.0,100%,35%)" stroke-width="0.00219"></path>
<path d="M0.793 0.523 Q0.561 0.382 0.235 0.465" stroke="hsl(0.0,100%,35%)" stroke-width="0.00073"></path>
<path d="M0.793 0.523 Q0.372 0.500 0.234 0.700" stroke="hsl(0.0,100%,35%)" stroke-width="0.00073"></path>
<path d="M0.793 0.523 Q0.845 0.318 0.458 0.248" stroke="hsl(0.0,100%,35%)" stroke-width="0.00512"></path>
<path d="M0.793 0.523 Q1.477 0.530 1.641 0.198" stroke="hsl(0.0,100%,35%)" stroke-width="0.00219"></path>
<path d="M0.793 0.523 Q1.232 0.660 1.595 0.475" stroke="hsl(0.0,100%,35%)" stroke-width="0.00073"></path>
<path d="M0.793 0.523 Q1.355 0.369 1.178 0.061" stroke="hsl(0.0,100%,35%)" stroke-width="0.00073"></path>
<path d="M0.793 0.523 Q1.116 0.335 0.820 0.136" stroke="hsl(0.0,100%,35%)" stroke-width="0.00073"></path>
<path d="M1.843 0.226 Q1.764 0.172 1.641 0.198" stroke="hsl(180.0,100%,35%)" stroke-width="0.01535"></path>
<path d="M1.843 0.226 Q1.520 0.301 1.595 0.475" stroke="hsl(180.0,100%,35%)" stroke-width="0.00146"></path>
<path d="M1.843 0.226 Q1.944 0.133 1.784 0.063" stroke="hsl(180.0,100%,35%)" stroke-width="0.00073"></path>
<path d="M1.843 0.226 Q1.070 0.089 0.633 0.436" stroke="hsl(180.0,100%,35%)" stroke-width="0.00219"></path>
<path d="M0.496 0.569 Q1.365 0.612 1.641 0.198" stroke="hsl(180.0,100%,35%)" stroke-width="0.00073"></path>
<path d="M0.496 0.569 Q1.120 0.742 1.595 0.475" stroke="hsl(180.0,100%,35%)" stroke-width="0.00073"></path>
<path d="M0.496 0.569 Q0.449 0.464 0.235 0.465" stroke="hsl(180.0,100%,35%)" stroke-width="0.00073"></path>
<path d="M0.235 0.465 Q0.907 0.742 1.595 0.475" stroke="hsl(180.0,100%,35%)" stroke-width="0.00512"></path>
<path d="M0.235 0.465 Q0.053 0.511 0.104 0.611" stroke="hsl(180.0,100%,35%)" stroke-width="0.00658"></path>
<path d="M0.235 0.465 Q0.467 0.605 0.793 0.523" stroke="hsl(180.0,100%,35%)" stroke-width="0.00073"></path>
<path d="M0.235 0.465 Q0.520 0.401 0.458 0.248" stroke="hsl(180.0,100%,35%)" stroke-width="0.00073"></path>
<path d="M0.235 0.465 Q0.457 0.530 0.633 0.436" stroke="hsl(180.0,100%,35%)" stroke-width="0.00073"></path>
<path d="M0.759 0.691 Q0.900 0.538 0.633 0.436" stroke="hsl(0.0,100%,35%)" stroke-width="0.00585"></path>
<path d="M0.759 0.691 Q0.963 0.409 0.458 0.248" stroke="hsl(0.0,100%,35%)" stroke-width="0.00365"></path>
<path d="M0.759 0.691 Q1.153 0.587 1.037 0.372" stroke="hsl(0.0,100%,35%)" stroke-width="0.00073"></path>
<path d="M0.759 0.691 Q0.805 0.838 1.102 0.848" stroke="hsl(0.0,100%,35%)" stroke-width="0.00146"></path>
<path d="M0.759 0.691 Q1.349 0.750 1.595 0.475" stroke="hsl(0.0,100%,35%)" stroke-width="0.00146"></path>
<path d="M0.759 0.691 Q0.910 0.614 0.793 0.523" stroke="hsl(0.0,100%,35%)" stroke-width="0.00073"></path>
<path d="M1.185 0.550 Q1.695 0.466 1.641 0.198" stroke="hsl(180.0,100%,35%)" stroke-width="0.00658"></path>
<path d="M1.185 0.550 Q1.426 0.661 1.695 0.568" stroke="hsl(180.0,100%,35%)" stroke-width="0.00731"></path>
<path d="M1.185 0.550 Q1.450 0.595 1.595 0.475" stroke="hsl(180.0,100%,35%)" stroke-width="0.00292"></path>
<path d="M1.185 0.550 Q1.000 0.383 0.633 0.436" stroke="hsl(180.0,100%,35%)" stroke-width="0.00073"></path>
<path d="M1.350 0.476 Q1.474 0.525 1.595 0.475" stroke="hsl(180.0,100%,35%)" stroke-width="0.01389"></path>
<path d="M1.350 0.476 Q1.208 0.480 1.185 0.550" stroke="hsl(180.0,100%,35%)" stroke-width="0.00146"></path>
<path d="M1.350 0.476 Q1.034 0.388 0.793 0.523" stroke="hsl(180.0,100%,35%)" stroke-width="0.00073"></path>
<path d="M1.695 0.568 Q1.720 0.502 1.595 0.475" stroke="hsl(180.0,100%,35%)" stroke-width="0.02120"></path>
<path d="M1.695 0.568 Q1.455 0.457 1.185 0.550" stroke="hsl(180.0,100%,35%)" stroke-width="0.00585"></path>
<path d="M1.695 0.568 Q1.964 0.373 1.641 0.198" stroke="hsl(180.0,100%,35%)" stroke-width="0.00877"></path>
<path d="M1.695 0.568 Q0.860 0.342 0.234 0.700" stroke="hsl(180.0,100%,35%)" stroke-width="0.00073"></path>
<path d="M1.695 0.568 Q1.048 0.225 0.235 0.465" stroke="hsl(180.0,100%,35%)" stroke-width="0.00146"></path>
<path d="M1.695 0.568 Q1.270 0.290 0.633 0.436" stroke="hsl(180.0,100%,35%)" stroke-width="0.00073"></path>
<path d="M0.104 0.611 Q0.508 0.629 0.633 0.436" stroke="hsl(180.0,100%,35%)" stroke-width="0.00804"></path>
<path d="M0.104 0.611 Q0.958 0.841 1.595 0.475" stroke="hsl(180.0,100%,35%)" stroke-width="0.00439"></path>
<path d="M0.104 0.611 Q0.518 0.704 0.793 0.523" stroke="hsl(180.0,100%,35%)" stroke-width="0.00219"></path>
<path d="M0.104 0.611 Q0.933 0.908 1.695 0.568" stroke="hsl(180.0,100%,35%)" stroke-width="0.00073"></path>
<path d="M0.104 0.611 Q0.334 0.668 0.496 0.569" stroke="hsl(180.0,100%,35%)" stroke-width="0.00073"></path>
<path d="M0.234 0.700 Q0.645 0.647 0.633 0.436" stroke="hsl(180.0,100%,35%)" stroke-width="0.00146"></path>
<path d="M0.234 0.700 Q1.070 0.926 1.695 0.568" stroke="hsl(180.0,100%,35%)" stroke-width="0.00292"></path>
<path d="M0.234 0.700 Q1.339 0.730 1.641 0.198" stroke="hsl(180.0,100%,35%)" stroke-width="0.00073"></path>
<path d="M0.234 0.700 Q0.470 0.687 0.496 0.569" stroke="hsl(180.0,100%,35%)" stroke-width="0.00219"></path>
<path d="M0.234 0.700 Q1.094 0.860 1.595 0.475" stroke="hsl(180.0,100%,35%)" stroke-width="0.00292"></path>
<path d="M0.234 0.700 Q0.241 0.629 0.104 0.611" stroke="hsl(180.0,100%,35%)" stroke-width="0.00365"></path>
<path d="M1.401 0.273 Q1.312 0.480 1.695 0.568" stroke="hsl(180.0,100%,35%)" stroke-width="0.00073"></path>
<path d="M1.401 0.273 Q1.581 0.284 1.641 0.198" stroke="hsl(180.0,100%,35%)" stroke-width="0.00292"></path>
<path d="M1.401 0.273 Q1.336 0.413 1.595 0.475" stroke="hsl(180.0,100%,35%)" stroke-width="0.00365"></path>
<path d="M1.907 0.373 Q1.914 0.232 1.641 0.198" stroke="hsl(180.0,100%,35%)" stroke-width="0.02558"></path>
<path d="M1.907 0.373 Q1.669 0.362 1.595 0.475" stroke="hsl(180.0,100%,35%)" stroke-width="0.01681"></path>
<path d="M1.907 0.373 Q1.219 0.149 0.633 0.436" stroke="hsl(180.0,100%,35%)" stroke-width="0.00950"></path>
<path d="M1.907 0.373 Q1.644 0.428 1.695 0.568" stroke="hsl(180.0,100%,35%)" stroke-width="0.00073"></path>
<path d="M1.907 0.373 Q1.282 0.020 0.458 0.248" stroke="hsl(180.0,100%,35%)" stroke-width="0.00073"></path>
<path d="M1.907 0.373 Q1.045 0.189 0.496 0.569" stroke="hsl(180.0,100%,35%)" stroke-width="0.00146"></path>
<path d="M1.907 0.373 Q1.792 0.071 1.178 0.061" stroke="hsl(180.0,100%,35%)" stroke-width="0.00073"></path>
<path d="M1.907 0.373 Q1.078 0.302 0.759 0.691" stroke="hsl(180.0,100%,35%)" stroke-width="0.00292"></path>
<path d="M1.907 0.373 Q1.653 0.132 1.128 0.203" stroke="hsl(180.0,100%,35%)" stroke-width="0.00073"></path>
<path d="M1.907 0.373 Q1.841 0.384 1.848 0.418" stroke="hsl(180.0,100%,35%)" stroke-width="0.00073"></path>
<path d="M1.128 0.203 Q1.144 0.433 1.595 0.475" stroke="hsl(180.0,100%,35%)" stroke-width="0.00658"></path>
<path d="M1.128 0.203 Q1.389 0.304 1.641 0.198" stroke="hsl(180.0,100%,35%)" stroke-width="0.00585"></path>
<path d="M1.128 0.203 Q0.694 0.221 0.633 0.436" stroke="hsl(180.0,100%,35%)" stroke-width="0.00073"></path>
<path d="M1.306 0.281 Q1.279 0.207 1.128 0.203" stroke="hsl(180.0,100%,35%)" stroke-width="0.00146"></path>
<path d="M1.306 0.281 Q1.540 0.307 1.641 0.198" stroke="hsl(180.0,100%,35%)" stroke-width="0.00146"></path>
<path d="M1.306 0.281 Q1.296 0.436 1.595 0.475" stroke="hsl(180.0,100%,35%)" stroke-width="0.00219"></path>
<path d="M1.549 0.706 Q2.001 0.470 1.641 0.198" stroke="hsl(180.0,100%,35%)" stroke-width="0.00073"></path>
<path d="M1.549 0.706 Q1.757 0.600 1.595 0.475" stroke="hsl(180.0,100%,35%)" stroke-width="0.00146"></path>
<path d="M1.549 0.706 Q1.361 0.584 1.083 0.649" stroke="hsl(180.0,100%,35%)" stroke-width="0.00073"></path>
</g>
<text x="1.037" y="0.351" font-size="0.040712" fill="hsl(0.0,100%,20%)">amaiorano</text>
<text x="0.633" y="0.392" font-size="0.086523" fill="hsl(0.0,100%,20%)">bclayton</text>
<text x="1.595" y="0.437" font-size="0.076165" fill="hsl(180.0,100%,20%)">enga</text>
<text x="1.641" y="0.160" font-size="0.076707" fill="hsl(180.0,100%,20%)">cwallez</text>
<text x="0.458" y="0.223" font-size="0.049862" fill="hsl(0.0,100%,20%)">jrprice</text>
<text x="0.793" y="0.496" font-size="0.055124" fill="hsl(0.0,100%,20%)">dsinclair</text>
<text x="1.843" y="0.212" font-size="0.028304" fill="hsl(180.0,100%,20%)">arthursonzogni</text>
<text x="1.784" y="0.061" font-size="0.005256" fill="hsl(180.0,100%,20%)">khaslett</text>
<text x="0.496" y="0.558" font-size="0.021024" fill="hsl(180.0,100%,20%)">bajones</text>
<text x="0.235" y="0.452" font-size="0.025748" fill="hsl(180.0,100%,20%)">shrekshao</text>
<text x="0.759" y="0.673" font-size="0.036414" fill="hsl(0.0,100%,20%)">dneto</text>
<text x="1.185" y="0.533" font-size="0.034062" fill="hsl(180.0,100%,20%)">kainino</text>
<text x="1.350" y="0.464" font-size="0.024652" fill="hsl(180.0,100%,20%)">bsheedy</text>
<text x="1.695" y="0.540" font-size="0.056851" fill="hsl(180.0,100%,20%)">lokokung</text>
<text x="0.104" y="0.594" font-size="0.033241" fill="hsl(180.0,100%,20%)">senorblanco</text>
<text x="1.767" y="0.288" font-size="0.005256" fill="hsl(180.0,100%,20%)">fhorschig</text>
<text x="1.178" y="0.056" font-size="0.009103" fill="hsl(180.0,100%,20%)">rharrison</text>
<text x="1.369" y="0.110" font-size="0.005256" fill="hsl(180.0,100%,20%)">blundell</text>
<text x="1.102" y="0.844" font-size="0.007433" fill="hsl(0.0,100%,20%)">alanbaker</text>
<text x="0.234" y="0.688" font-size="0.024085" fill="hsl(180.0,100%,20%)">gman</text>
<text x="0.820" y="0.134" font-size="0.005256" fill="hsl(0.0,100%,20%)">yiwzhang</text>
<text x="1.401" y="0.265" font-size="0.016621" fill="hsl(180.0,100%,20%)">hao.x.li</text>
<text x="1.907" y="0.349" font-size="0.047594" fill="hsl(180.0,100%,20%)">jiawei.shao</text>
<text x="1.128" y="0.191" font-size="0.024085" fill="hsl(180.0,100%,20%)">penghuang</text>
<text x="1.848" y="0.415" font-size="0.005256" fill="hsl(180.0,100%,20%)">zhaoming.jiang</text>
<text x="1.306" y="0.274" font-size="0.013906" fill="hsl(180.0,100%,20%)">jie.a.chen</text>
<text x="1.549" y="0.700" font-size="0.010512" fill="hsl(180.0,100%,20%)">shaobo.yan</text>
<text x="1.083" y="0.647" font-size="0.005256" fill="hsl(180.0,100%,20%)">sunnyps</text>
</svg>
