<svg width="4000" height="2000" viewBox="-0.025 -0.025 2.05 1.05" xmlns="http://www.w3.org/2000/svg">
  <style>
    path {
      fill: none;
      stroke-linecap: round;
      stroke-opacity: 0.4;
    }

    text {
      text-anchor: middle;
      alignment-baseline: hanging;
    }
  </style>
  <g opacity="0.4">
<path d="M0.690 0.592 Q0.807 0.706 1.056 0.674" stroke="hsl(0.0,100%,35%)" stroke-width="0.04303"></path>
<path d="M0.690 0.592 Q0.647 0.687 0.823 0.729" stroke="hsl(0.0,100%,35%)" stroke-width="0.05738"></path>
<path d="M0.690 0.592 Q0.824 0.499 0.673 0.414" stroke="hsl(0.0,100%,35%)" stroke-width="0.00717"></path>
<path d="M0.690 0.592 Q1.001 0.537 0.962 0.373" stroke="hsl(0.0,100%,35%)" stroke-width="0.02869"></path>
<path d="M0.690 0.592 Q0.908 0.823 1.408 0.768" stroke="hsl(0.0,100%,35%)" stroke-width="0.00717"></path>
<path d="M0.690 0.592 Q0.952 0.630 1.083 0.510" stroke="hsl(0.0,100%,35%)" stroke-width="0.00717"></path>
<path d="M0.690 0.592 Q0.251 0.686 0.339 0.922" stroke="hsl(0.0,100%,35%)" stroke-width="0.01434"></path>
<path d="M0.823 0.729 Q0.609 0.867 0.831 1.002" stroke="hsl(180.0,100%,35%)" stroke-width="0.02152"></path>
<path d="M0.823 0.729 Q0.427 0.728 0.339 0.922" stroke="hsl(180.0,100%,35%)" stroke-width="0.02869"></path>
<path d="M0.823 0.729 Q0.889 0.858 1.155 0.854" stroke="hsl(180.0,100%,35%)" stroke-width="0.00717"></path>
<path d="M1.408 0.768 Q1.190 0.536 0.690 0.592" stroke="hsl(0.0,100%,35%)" stroke-width="0.01434"></path>
<path d="M1.408 0.768 Q1.307 0.651 1.056 0.674" stroke="hsl(0.0,100%,35%)" stroke-width="0.01434"></path>
<path d="M1.408 0.768 Q0.750 0.631 0.339 0.922" stroke="hsl(0.0,100%,35%)" stroke-width="0.00717"></path>
<path d="M1.408 0.768 Q1.147 0.631 0.823 0.729" stroke="hsl(0.0,100%,35%)" stroke-width="0.00717"></path>
<path d="M1.408 0.768 Q1.212 0.760 1.155 0.854" stroke="hsl(0.0,100%,35%)" stroke-width="0.00717"></path>
<path d="M0.831 1.002 Q0.649 0.863 0.339 0.922" stroke="hsl(180.0,100%,35%)" stroke-width="0.03586"></path>
<path d="M0.831 1.002 Q0.779 0.828 0.429 0.816" stroke="hsl(180.0,100%,35%)" stroke-width="0.01434"></path>
<path d="M0.831 1.002 Q1.046 0.864 0.823 0.729" stroke="hsl(180.0,100%,35%)" stroke-width="0.01434"></path>
<path d="M1.455 0.917 Q1.333 0.601 0.690 0.592" stroke="hsl(0.0,100%,35%)" stroke-width="0.00717"></path>
<path d="M1.455 0.917 Q1.248 0.854 1.081 0.942" stroke="hsl(0.0,100%,35%)" stroke-width="0.01434"></path>
<path d="M1.455 0.917 Q1.594 0.639 1.083 0.510" stroke="hsl(0.0,100%,35%)" stroke-width="0.00717"></path>
<path d="M0.739 0.231 Q0.382 0.497 0.823 0.729" stroke="hsl(180.0,100%,35%)" stroke-width="0.00717"></path>
<path d="M0.739 0.231 Q-0.014 0.496 0.339 0.922" stroke="hsl(180.0,100%,35%)" stroke-width="0.00717"></path>
<path d="M0.739 0.231 Q0.600 0.119 0.351 0.162" stroke="hsl(180.0,100%,35%)" stroke-width="0.00717"></path>
</g>
<text x="0.690" y="0.543" font-size="0.098131" fill="hsl(0.0,100%,20%)">bclayton</text>
<text x="1.056" y="0.647" font-size="0.054433" fill="hsl(0.0,100%,20%)">amaiorano</text>
<text x="0.823" y="0.686" font-size="0.086066" fill="hsl(180.0,100%,20%)">cwallez</text>
<text x="0.673" y="0.404" font-size="0.019245" fill="hsl(0.0,100%,20%)">jrprice</text>
<text x="0.962" y="0.354" font-size="0.038490" fill="hsl(0.0,100%,20%)">dneto</text>
<text x="1.408" y="0.741" font-size="0.054433" fill="hsl(0.0,100%,20%)">dsinclair</text>
<text x="1.083" y="0.497" font-size="0.027217" fill="hsl(0.0,100%,20%)">bajones</text>
<text x="0.339" y="0.887" font-size="0.069389" fill="hsl(180.0,100%,20%)">enga</text>
<text x="0.831" y="0.969" font-size="0.066667" fill="hsl(180.0,100%,20%)">lokokung</text>
<text x="1.155" y="0.841" font-size="0.027217" fill="hsl(180.0,100%,20%)">rharrison</text>
<text x="1.455" y="0.897" font-size="0.038490" fill="hsl(0.0,100%,20%)">gman</text>
<text x="1.081" y="0.928" font-size="0.027217" fill="hsl(0.0,100%,20%)">senorblanco</text>
<text x="0.429" y="0.802" font-size="0.027217" fill="hsl(180.0,100%,20%)">kainino</text>
<text x="0.739" y="0.214" font-size="0.033333" fill="hsl(180.0,100%,20%)">shaobo.yan</text>
<text x="0.351" y="0.152" font-size="0.019245" fill="hsl(180.0,100%,20%)">sunnyps</text>
</svg>
