<svg width="4000" height="2000" viewBox="-0.025 -0.025 2.05 1.05" xmlns="http://www.w3.org/2000/svg">
  <style>
    path {
      fill: none;
      stroke-linecap: round;
      stroke-opacity: 0.4;
    }

    text {
      text-anchor: middle;
      alignment-baseline: hanging;
    }
  </style>
  <g opacity="0.4">
<path d="M0.197 0.552 Q0.343 0.501 0.276 0.418" stroke="hsl(0.0,100%,35%)" stroke-width="0.00518"></path>
<path d="M0.197 0.552 Q0.527 0.480 0.459 0.303" stroke="hsl(0.0,100%,35%)" stroke-width="0.00383"></path>
<path d="M0.197 0.552 Q0.517 0.553 0.590 0.397" stroke="hsl(0.0,100%,35%)" stroke-width="0.00023"></path>
<path d="M0.197 0.552 Q0.530 0.646 0.787 0.503" stroke="hsl(0.0,100%,35%)" stroke-width="0.00045"></path>
<path d="M0.276 0.418 Q0.450 0.470 0.590 0.397" stroke="hsl(0.0,100%,35%)" stroke-width="0.00158"></path>
<path d="M0.276 0.418 Q0.460 0.397 0.459 0.303" stroke="hsl(0.0,100%,35%)" stroke-width="0.01532"></path>
<path d="M0.276 0.418 Q0.374 0.261 0.090 0.179" stroke="hsl(0.0,100%,35%)" stroke-width="0.00383"></path>
<path d="M0.276 0.418 Q0.293 0.749 0.943 0.814" stroke="hsl(0.0,100%,35%)" stroke-width="0.00473"></path>
<path d="M0.276 0.418 Q0.147 0.820 0.901 0.971" stroke="hsl(0.0,100%,35%)" stroke-width="0.00608"></path>
<path d="M0.276 0.418 Q0.637 0.409 0.698 0.231" stroke="hsl(0.0,100%,35%)" stroke-width="0.00158"></path>
<path d="M0.276 0.418 Q0.130 0.469 0.197 0.552" stroke="hsl(0.0,100%,35%)" stroke-width="0.00068"></path>
<path d="M0.276 0.418 Q0.198 0.511 0.362 0.570" stroke="hsl(0.0,100%,35%)" stroke-width="0.00068"></path>
<path d="M0.276 0.418 Q0.298 0.330 0.132 0.301" stroke="hsl(0.0,100%,35%)" stroke-width="0.00090"></path>
<path d="M0.459 0.303 Q0.450 0.376 0.590 0.397" stroke="hsl(0.0,100%,35%)" stroke-width="0.05857"></path>
<path d="M0.459 0.303 Q0.146 0.725 0.901 0.971" stroke="hsl(0.0,100%,35%)" stroke-width="0.02861"></path>
<path d="M0.459 0.303 Q0.636 0.315 0.698 0.231" stroke="hsl(0.0,100%,35%)" stroke-width="0.04753"></path>
<path d="M0.459 0.303 Q0.374 0.167 0.090 0.179" stroke="hsl(0.0,100%,35%)" stroke-width="0.05497"></path>
<path d="M0.459 0.303 Q0.276 0.324 0.276 0.418" stroke="hsl(0.0,100%,35%)" stroke-width="0.00743"></path>
<path d="M0.459 0.303 Q0.180 0.566 0.632 0.760" stroke="hsl(0.0,100%,35%)" stroke-width="0.00045"></path>
<path d="M0.459 0.303 Q0.293 0.655 0.943 0.814" stroke="hsl(0.0,100%,35%)" stroke-width="0.01352"></path>
<path d="M0.459 0.303 Q0.368 0.288 0.318 0.329" stroke="hsl(0.0,100%,35%)" stroke-width="0.00158"></path>
<path d="M0.459 0.303 Q0.238 0.249 0.084 0.345" stroke="hsl(0.0,100%,35%)" stroke-width="0.00135"></path>
<path d="M0.459 0.303 Q0.463 0.469 0.787 0.503" stroke="hsl(0.0,100%,35%)" stroke-width="0.00045"></path>
<path d="M0.459 0.303 Q0.405 0.554 0.882 0.635" stroke="hsl(0.0,100%,35%)" stroke-width="0.00023"></path>
<path d="M0.459 0.303 Q0.351 0.413 0.542 0.491" stroke="hsl(0.0,100%,35%)" stroke-width="0.00023"></path>
<path d="M0.459 0.303 Q-0.074 0.648 0.480 0.984" stroke="hsl(0.0,100%,35%)" stroke-width="0.00023"></path>
<path d="M0.459 0.303 Q0.553 0.432 0.824 0.415" stroke="hsl(0.0,100%,35%)" stroke-width="0.00045"></path>
<path d="M0.459 0.303 Q0.297 0.236 0.132 0.301" stroke="hsl(0.0,100%,35%)" stroke-width="0.01239"></path>
<path d="M0.590 0.397 Q0.599 0.324 0.459 0.303" stroke="hsl(0.0,100%,35%)" stroke-width="0.03199"></path>
<path d="M0.590 0.397 Q0.514 0.188 0.090 0.179" stroke="hsl(0.0,100%,35%)" stroke-width="0.00315"></path>
<path d="M0.590 0.397 Q0.776 0.336 0.698 0.231" stroke="hsl(0.0,100%,35%)" stroke-width="0.00338"></path>
<path d="M0.590 0.397 Q0.286 0.746 0.901 0.971" stroke="hsl(0.0,100%,35%)" stroke-width="0.00203"></path>
<path d="M0.590 0.397 Q0.433 0.676 0.943 0.814" stroke="hsl(0.0,100%,35%)" stroke-width="0.00068"></path>
<path d="M0.787 0.503 Q0.600 0.359 0.276 0.418" stroke="hsl(0.0,100%,35%)" stroke-width="0.00090"></path>
<path d="M0.787 0.503 Q0.783 0.338 0.459 0.303" stroke="hsl(0.0,100%,35%)" stroke-width="0.00135"></path>
<path d="M0.787 0.503 Q0.453 0.410 0.197 0.552" stroke="hsl(0.0,100%,35%)" stroke-width="0.00045"></path>
<path d="M0.787 0.503 Q0.675 0.448 0.542 0.491" stroke="hsl(0.0,100%,35%)" stroke-width="0.00045"></path>
<path d="M0.787 0.503 Q0.960 0.350 0.698 0.231" stroke="hsl(0.0,100%,35%)" stroke-width="0.00023"></path>
<path d="M0.787 0.503 Q0.621 0.271 0.132 0.301" stroke="hsl(0.0,100%,35%)" stroke-width="0.00023"></path>
<path d="M0.678 0.959 Q0.927 0.940 0.943 0.814" stroke="hsl(180.0,100%,35%)" stroke-width="0.00023"></path>
<path d="M0.678 0.959 Q0.780 1.010 0.901 0.971" stroke="hsl(180.0,100%,35%)" stroke-width="0.00045"></path>
<path d="M0.678 0.959 Q1.094 0.588 0.459 0.303" stroke="hsl(180.0,100%,35%)" stroke-width="0.00023"></path>
<path d="M0.943 0.814 Q1.253 0.853 1.397 0.710" stroke="hsl(180.0,100%,35%)" stroke-width="0.00496"></path>
<path d="M0.943 0.814 Q1.055 0.712 0.882 0.635" stroke="hsl(180.0,100%,35%)" stroke-width="0.00383"></path>
<path d="M0.943 0.814 Q0.797 0.884 0.901 0.971" stroke="hsl(180.0,100%,35%)" stroke-width="0.01622"></path>
<path d="M0.943 0.814 Q1.035 0.866 1.156 0.833" stroke="hsl(180.0,100%,35%)" stroke-width="0.00068"></path>
<path d="M0.943 0.814 Q0.831 0.725 0.632 0.760" stroke="hsl(180.0,100%,35%)" stroke-width="0.00248"></path>
<path d="M0.943 0.814 Q0.964 0.902 1.140 0.911" stroke="hsl(180.0,100%,35%)" stroke-width="0.00383"></path>
<path d="M0.943 0.814 Q0.800 0.812 0.766 0.882" stroke="hsl(180.0,100%,35%)" stroke-width="0.00045"></path>
<path d="M0.943 0.814 Q1.100 0.535 0.590 0.397" stroke="hsl(180.0,100%,35%)" stroke-width="0.00023"></path>
<path d="M0.943 0.814 Q0.926 0.483 0.276 0.418" stroke="hsl(180.0,100%,35%)" stroke-width="0.00045"></path>
<path d="M0.943 0.814 Q1.025 0.326 0.090 0.179" stroke="hsl(180.0,100%,35%)" stroke-width="0.00090"></path>
<path d="M0.943 0.814 Q1.263 0.942 1.582 0.814" stroke="hsl(180.0,100%,35%)" stroke-width="0.00045"></path>
<path d="M0.943 0.814 Q1.110 0.462 0.459 0.303" stroke="hsl(180.0,100%,35%)" stroke-width="0.00293"></path>
<path d="M0.943 0.814 Q1.287 0.474 0.698 0.231" stroke="hsl(180.0,100%,35%)" stroke-width="0.00023"></path>
<path d="M0.943 0.814 Q1.018 0.446 0.318 0.329" stroke="hsl(180.0,100%,35%)" stroke-width="0.00518"></path>
<path d="M0.943 0.814 Q1.249 0.689 1.072 0.512" stroke="hsl(180.0,100%,35%)" stroke-width="0.00068"></path>
<path d="M0.943 0.814 Q1.142 0.807 1.173 0.709" stroke="hsl(180.0,100%,35%)" stroke-width="0.00023"></path>
<path d="M0.943 0.814 Q1.052 0.863 1.171 0.821" stroke="hsl(180.0,100%,35%)" stroke-width="0.00113"></path>
<path d="M0.901 0.971 Q1.215 0.549 0.459 0.303" stroke="hsl(180.0,100%,35%)" stroke-width="0.01329"></path>
<path d="M0.901 0.971 Q1.048 0.901 0.943 0.814" stroke="hsl(180.0,100%,35%)" stroke-width="0.02861"></path>
<path d="M0.901 0.971 Q1.358 0.940 1.397 0.710" stroke="hsl(180.0,100%,35%)" stroke-width="0.00405"></path>
<path d="M0.901 0.971 Q1.129 0.413 0.090 0.179" stroke="hsl(180.0,100%,35%)" stroke-width="0.00045"></path>
<path d="M0.901 0.971 Q0.935 0.811 0.632 0.760" stroke="hsl(180.0,100%,35%)" stroke-width="0.00788"></path>
<path d="M0.901 0.971 Q1.031 0.570 0.276 0.418" stroke="hsl(180.0,100%,35%)" stroke-width="0.00203"></path>
<path d="M0.901 0.971 Q1.160 0.799 0.882 0.635" stroke="hsl(180.0,100%,35%)" stroke-width="0.00225"></path>
<path d="M0.901 0.971 Q0.905 0.899 0.766 0.882" stroke="hsl(180.0,100%,35%)" stroke-width="0.00045"></path>
<path d="M0.901 0.971 Q0.850 0.847 0.596 0.844" stroke="hsl(180.0,100%,35%)" stroke-width="0.00045"></path>
<path d="M0.901 0.971 Q0.823 1.097 1.051 1.163" stroke="hsl(180.0,100%,35%)" stroke-width="0.00023"></path>
<path d="M0.901 0.971 Q1.205 0.980 1.289 0.834" stroke="hsl(180.0,100%,35%)" stroke-width="0.00023"></path>
<path d="M0.901 0.971 Q1.123 0.533 0.318 0.329" stroke="hsl(180.0,100%,35%)" stroke-width="0.00631"></path>
<path d="M0.901 0.971 Q1.140 0.953 1.156 0.833" stroke="hsl(180.0,100%,35%)" stroke-width="0.00023"></path>
<path d="M0.901 0.971 Q1.069 0.988 1.140 0.911" stroke="hsl(180.0,100%,35%)" stroke-width="0.00315"></path>
<path d="M0.901 0.971 Q1.290 0.893 1.223 0.686" stroke="hsl(180.0,100%,35%)" stroke-width="0.00023"></path>
<path d="M0.901 0.971 Q0.954 0.878 0.785 0.833" stroke="hsl(180.0,100%,35%)" stroke-width="0.00023"></path>
<path d="M0.901 0.971 Q1.391 0.561 0.698 0.231" stroke="hsl(180.0,100%,35%)" stroke-width="0.00023"></path>
<path d="M0.901 0.971 Q0.953 0.663 0.362 0.570" stroke="hsl(180.0,100%,35%)" stroke-width="0.00023"></path>
<path d="M0.901 0.971 Q0.823 0.950 0.766 0.984" stroke="hsl(180.0,100%,35%)" stroke-width="0.00045"></path>
<path d="M0.901 0.971 Q1.205 0.621 0.590 0.397" stroke="hsl(180.0,100%,35%)" stroke-width="0.00023"></path>
<path d="M0.687 1.171 Q0.954 1.114 0.901 0.971" stroke="hsl(180.0,100%,35%)" stroke-width="0.00023"></path>
<path d="M0.687 1.171 Q1.100 1.044 0.943 0.814" stroke="hsl(180.0,100%,35%)" stroke-width="0.00045"></path>
<path d="M0.687 1.171 Q1.267 0.691 0.459 0.303" stroke="hsl(180.0,100%,35%)" stroke-width="0.00023"></path>
<path d="M0.090 0.179 Q0.352 0.327 0.698 0.231" stroke="hsl(0.0,100%,35%)" stroke-width="0.00248"></path>
<path d="M0.090 0.179 Q0.175 0.315 0.459 0.303" stroke="hsl(0.0,100%,35%)" stroke-width="0.04438"></path>
<path d="M0.090 0.179 Q-0.138 0.737 0.901 0.971" stroke="hsl(0.0,100%,35%)" stroke-width="0.00338"></path>
<path d="M0.090 0.179 Q0.166 0.388 0.590 0.397" stroke="hsl(0.0,100%,35%)" stroke-width="0.00225"></path>
<path d="M0.090 0.179 Q0.008 0.667 0.943 0.814" stroke="hsl(0.0,100%,35%)" stroke-width="0.00180"></path>
<path d="M0.090 0.179 Q-0.046 0.260 0.084 0.345" stroke="hsl(0.0,100%,35%)" stroke-width="0.00045"></path>
<path d="M0.090 0.179 Q-0.008 0.336 0.276 0.418" stroke="hsl(0.0,100%,35%)" stroke-width="0.00113"></path>
<path d="M0.090 0.179 Q-0.104 0.578 0.632 0.760" stroke="hsl(0.0,100%,35%)" stroke-width="0.00023"></path>
<path d="M0.090 0.179 Q0.013 0.248 0.132 0.301" stroke="hsl(0.0,100%,35%)" stroke-width="0.00248"></path>
<path d="M0.698 0.231 Q0.521 0.220 0.459 0.303" stroke="hsl(0.0,100%,35%)" stroke-width="0.01667"></path>
<path d="M0.698 0.231 Q0.355 0.572 0.943 0.814" stroke="hsl(0.0,100%,35%)" stroke-width="0.00023"></path>
<path d="M0.698 0.231 Q0.512 0.292 0.590 0.397" stroke="hsl(0.0,100%,35%)" stroke-width="0.00315"></path>
<path d="M0.698 0.231 Q0.436 0.083 0.090 0.179" stroke="hsl(0.0,100%,35%)" stroke-width="0.01216"></path>
<path d="M0.698 0.231 Q0.615 0.348 0.824 0.415" stroke="hsl(0.0,100%,35%)" stroke-width="0.00879"></path>
<path d="M0.698 0.231 Q0.208 0.642 0.901 0.971" stroke="hsl(0.0,100%,35%)" stroke-width="0.00023"></path>
<path d="M0.698 0.231 Q0.338 0.240 0.276 0.418" stroke="hsl(0.0,100%,35%)" stroke-width="0.00045"></path>
<path d="M0.698 0.231 Q0.359 0.153 0.132 0.301" stroke="hsl(0.0,100%,35%)" stroke-width="0.00090"></path>
<path d="M0.632 0.760 Q0.597 0.919 0.901 0.971" stroke="hsl(180.0,100%,35%)" stroke-width="0.00698"></path>
<path d="M0.632 0.760 Q0.911 0.497 0.459 0.303" stroke="hsl(180.0,100%,35%)" stroke-width="0.00045"></path>
<path d="M0.632 0.760 Q0.744 0.849 0.943 0.814" stroke="hsl(180.0,100%,35%)" stroke-width="0.00743"></path>
<path d="M0.632 0.760 Q0.856 0.748 0.882 0.635" stroke="hsl(180.0,100%,35%)" stroke-width="0.00473"></path>
<path d="M0.632 0.760 Q0.825 0.361 0.090 0.179" stroke="hsl(180.0,100%,35%)" stroke-width="0.00023"></path>
<path d="M0.632 0.760 Q0.382 0.665 0.144 0.766" stroke="hsl(180.0,100%,35%)" stroke-width="0.00023"></path>
<path d="M0.882 0.635 Q0.770 0.737 0.943 0.814" stroke="hsl(180.0,100%,35%)" stroke-width="0.00203"></path>
<path d="M0.882 0.635 Q1.079 0.776 1.397 0.710" stroke="hsl(180.0,100%,35%)" stroke-width="0.00045"></path>
<path d="M0.882 0.635 Q0.623 0.807 0.901 0.971" stroke="hsl(180.0,100%,35%)" stroke-width="0.00090"></path>
<path d="M0.882 0.635 Q0.657 0.648 0.632 0.760" stroke="hsl(180.0,100%,35%)" stroke-width="0.00023"></path>
<path d="M0.318 0.329 Q0.409 0.344 0.459 0.303" stroke="hsl(180.0,100%,35%)" stroke-width="0.00991"></path>
<path d="M0.318 0.329 Q0.586 0.356 0.698 0.231" stroke="hsl(180.0,100%,35%)" stroke-width="0.00068"></path>
<path d="M0.318 0.329 Q0.324 0.208 0.090 0.179" stroke="hsl(180.0,100%,35%)" stroke-width="0.00068"></path>
<path d="M0.318 0.329 Q0.096 0.767 0.901 0.971" stroke="hsl(180.0,100%,35%)" stroke-width="0.00360"></path>
<path d="M0.318 0.329 Q0.242 0.696 0.943 0.814" stroke="hsl(180.0,100%,35%)" stroke-width="0.00496"></path>
<path d="M0.318 0.329 Q0.355 0.595 0.882 0.635" stroke="hsl(180.0,100%,35%)" stroke-width="0.00068"></path>
<path d="M0.084 0.345 Q0.305 0.399 0.459 0.303" stroke="hsl(0.0,100%,35%)" stroke-width="0.00788"></path>
<path d="M0.084 0.345 Q0.295 0.472 0.590 0.397" stroke="hsl(0.0,100%,35%)" stroke-width="0.00338"></path>
<path d="M0.084 0.345 Q0.219 0.263 0.090 0.179" stroke="hsl(0.0,100%,35%)" stroke-width="0.00158"></path>
<path d="M0.084 0.345 Q0.250 0.650 0.882 0.635" stroke="hsl(0.0,100%,35%)" stroke-width="0.00045"></path>
<path d="M0.480 0.984 Q0.701 1.061 0.901 0.971" stroke="hsl(180.0,100%,35%)" stroke-width="0.00180"></path>
<path d="M0.480 0.984 Q0.848 0.991 0.943 0.814" stroke="hsl(180.0,100%,35%)" stroke-width="0.00225"></path>
<path d="M0.480 0.984 Q0.960 0.890 0.882 0.635" stroke="hsl(180.0,100%,35%)" stroke-width="0.00045"></path>
<path d="M0.480 0.984 Q1.014 0.639 0.459 0.303" stroke="hsl(180.0,100%,35%)" stroke-width="0.00225"></path>
<path d="M0.480 0.984 Q0.831 0.660 0.276 0.418" stroke="hsl(180.0,100%,35%)" stroke-width="0.00023"></path>
<path d="M0.480 0.984 Q1.191 0.651 0.698 0.231" stroke="hsl(180.0,100%,35%)" stroke-width="0.00023"></path>
<path d="M0.480 0.984 Q1.167 1.119 1.582 0.814" stroke="hsl(180.0,100%,35%)" stroke-width="0.00045"></path>
<path d="M0.132 0.301 Q0.294 0.367 0.459 0.303" stroke="hsl(0.0,100%,35%)" stroke-width="0.00113"></path>
<path d="M0.132 0.301 Q0.110 0.388 0.276 0.418" stroke="hsl(0.0,100%,35%)" stroke-width="0.00158"></path>
<path d="M0.132 0.301 Q0.127 0.720 0.943 0.814" stroke="hsl(0.0,100%,35%)" stroke-width="0.00045"></path>
<path d="M0.132 0.301 Q-0.020 0.790 0.901 0.971" stroke="hsl(0.0,100%,35%)" stroke-width="0.00023"></path>
<path d="M0.596 0.844 Q0.648 0.969 0.901 0.971" stroke="hsl(180.0,100%,35%)" stroke-width="0.00090"></path>
<path d="M0.596 0.844 Q0.794 0.899 0.943 0.814" stroke="hsl(180.0,100%,35%)" stroke-width="0.00023"></path>
<path d="M0.596 0.844 Q0.682 0.809 0.632 0.760" stroke="hsl(180.0,100%,35%)" stroke-width="0.00023"></path>
<path d="M1.072 0.512 Q0.766 0.637 0.943 0.814" stroke="hsl(180.0,100%,35%)" stroke-width="0.00338"></path>
<path d="M1.072 0.512 Q0.620 0.707 0.901 0.971" stroke="hsl(180.0,100%,35%)" stroke-width="0.00248"></path>
<path d="M1.072 0.512 Q1.086 0.765 1.582 0.814" stroke="hsl(180.0,100%,35%)" stroke-width="0.00045"></path>
<path d="M0.630 1.009 Q0.796 1.044 0.901 0.971" stroke="hsl(180.0,100%,35%)" stroke-width="0.00158"></path>
<path d="M0.630 1.009 Q0.943 0.974 0.943 0.814" stroke="hsl(180.0,100%,35%)" stroke-width="0.00068"></path>
<path d="M0.630 1.009 Q1.262 1.102 1.582 0.814" stroke="hsl(180.0,100%,35%)" stroke-width="0.00023"></path>
<path d="M1.397 0.710 Q1.199 0.570 0.882 0.635" stroke="hsl(180.0,100%,35%)" stroke-width="0.00068"></path>
<path d="M1.397 0.710 Q1.087 0.671 0.943 0.814" stroke="hsl(180.0,100%,35%)" stroke-width="0.00518"></path>
<path d="M1.397 0.710 Q0.940 0.742 0.901 0.971" stroke="hsl(180.0,100%,35%)" stroke-width="0.00270"></path>
<path d="M0.766 0.882 Q0.762 0.954 0.901 0.971" stroke="hsl(180.0,100%,35%)" stroke-width="0.00496"></path>
<path d="M0.766 0.882 Q0.909 0.883 0.943 0.814" stroke="hsl(180.0,100%,35%)" stroke-width="0.00315"></path>
<path d="M0.766 0.882 Q0.796 0.794 0.632 0.760" stroke="hsl(180.0,100%,35%)" stroke-width="0.00023"></path>
<path d="M0.766 0.882 Q0.930 0.971 1.140 0.911" stroke="hsl(180.0,100%,35%)" stroke-width="0.00135"></path>
<path d="M1.289 0.834 Q1.132 0.755 0.943 0.814" stroke="hsl(180.0,100%,35%)" stroke-width="0.00113"></path>
<path d="M1.289 0.834 Q0.985 0.825 0.901 0.971" stroke="hsl(180.0,100%,35%)" stroke-width="0.00068"></path>
<path d="M1.289 0.834 Q1.115 0.423 0.276 0.418" stroke="hsl(180.0,100%,35%)" stroke-width="0.00023"></path>
<path d="M1.289 0.834 Q1.298 0.403 0.459 0.303" stroke="hsl(180.0,100%,35%)" stroke-width="0.00045"></path>
<path d="M1.289 0.834 Q1.475 0.414 0.698 0.231" stroke="hsl(180.0,100%,35%)" stroke-width="0.00023"></path>
<path d="M1.156 0.833 Q1.065 0.781 0.943 0.814" stroke="hsl(180.0,100%,35%)" stroke-width="0.00405"></path>
<path d="M1.156 0.833 Q1.231 0.428 0.459 0.303" stroke="hsl(180.0,100%,35%)" stroke-width="0.00045"></path>
<path d="M1.156 0.833 Q0.918 0.851 0.901 0.971" stroke="hsl(180.0,100%,35%)" stroke-width="0.00225"></path>
<path d="M1.156 0.833 Q1.146 0.292 0.090 0.179" stroke="hsl(180.0,100%,35%)" stroke-width="0.00023"></path>
<path d="M1.156 0.833 Q1.048 0.449 0.276 0.418" stroke="hsl(180.0,100%,35%)" stroke-width="0.00045"></path>
<path d="M1.156 0.833 Q1.177 0.679 0.882 0.635" stroke="hsl(180.0,100%,35%)" stroke-width="0.00045"></path>
<path d="M1.140 0.911 Q1.119 0.823 0.943 0.814" stroke="hsl(180.0,100%,35%)" stroke-width="0.01149"></path>
<path d="M1.140 0.911 Q1.428 0.862 1.397 0.710" stroke="hsl(180.0,100%,35%)" stroke-width="0.00023"></path>
<path d="M1.140 0.911 Q0.972 0.893 0.901 0.971" stroke="hsl(180.0,100%,35%)" stroke-width="0.01126"></path>
<path d="M1.140 0.911 Q0.869 0.768 0.531 0.869" stroke="hsl(180.0,100%,35%)" stroke-width="0.00023"></path>
<path d="M1.140 0.911 Q1.283 0.759 1.020 0.656" stroke="hsl(180.0,100%,35%)" stroke-width="0.00023"></path>
<path d="M1.140 0.911 Q1.194 0.455 0.318 0.329" stroke="hsl(180.0,100%,35%)" stroke-width="0.00045"></path>
<path d="M1.140 0.911 Q1.231 0.722 0.882 0.635" stroke="hsl(180.0,100%,35%)" stroke-width="0.00045"></path>
<path d="M1.140 0.911 Q1.102 0.492 0.276 0.418" stroke="hsl(180.0,100%,35%)" stroke-width="0.00045"></path>
<path d="M1.140 0.911 Q1.286 0.471 0.459 0.303" stroke="hsl(180.0,100%,35%)" stroke-width="0.00023"></path>
<path d="M1.140 0.911 Q1.424 0.698 1.072 0.512" stroke="hsl(180.0,100%,35%)" stroke-width="0.00023"></path>
<path d="M1.140 0.911 Q0.752 0.815 0.480 0.984" stroke="hsl(180.0,100%,35%)" stroke-width="0.00023"></path>
<path d="M1.223 0.686 Q1.002 0.782 1.140 0.911" stroke="hsl(180.0,100%,35%)" stroke-width="0.00068"></path>
<path d="M1.223 0.686 Q0.981 0.694 0.943 0.814" stroke="hsl(180.0,100%,35%)" stroke-width="0.00090"></path>
<path d="M1.223 0.686 Q0.834 0.764 0.901 0.971" stroke="hsl(180.0,100%,35%)" stroke-width="0.00045"></path>
<path d="M1.223 0.686 Q1.300 0.822 1.582 0.814" stroke="hsl(180.0,100%,35%)" stroke-width="0.00045"></path>
<path d="M0.785 0.833 Q0.732 0.925 0.901 0.971" stroke="hsl(180.0,100%,35%)" stroke-width="0.00045"></path>
<path d="M0.785 0.833 Q0.879 0.855 0.943 0.814" stroke="hsl(180.0,100%,35%)" stroke-width="0.00023"></path>
<path d="M1.171 0.821 Q0.916 0.842 0.901 0.971" stroke="hsl(180.0,100%,35%)" stroke-width="0.00698"></path>
<path d="M1.171 0.821 Q1.063 0.772 0.943 0.814" stroke="hsl(180.0,100%,35%)" stroke-width="0.00811"></path>
<path d="M1.171 0.821 Q1.175 0.670 0.882 0.635" stroke="hsl(180.0,100%,35%)" stroke-width="0.00113"></path>
<path d="M1.171 0.821 Q1.084 0.859 1.140 0.911" stroke="hsl(180.0,100%,35%)" stroke-width="0.00135"></path>
<path d="M1.675 0.344 Q1.479 0.362 1.470 0.461" stroke="hsl(180.0,100%,35%)" stroke-width="0.00023"></path>
<path d="M1.675 0.344 Q0.839 0.410 0.785 0.833" stroke="hsl(180.0,100%,35%)" stroke-width="0.00023"></path>
<path d="M1.675 0.344 Q0.787 0.503 0.901 0.971" stroke="hsl(180.0,100%,35%)" stroke-width="0.00023"></path>
<path d="M0.531 0.869 Q0.483 0.834 0.405 0.850" stroke="hsl(180.0,100%,35%)" stroke-width="0.00023"></path>
<path d="M0.531 0.869 Q0.893 0.822 0.882 0.635" stroke="hsl(180.0,100%,35%)" stroke-width="0.00113"></path>
<path d="M0.531 0.869 Q0.635 0.994 0.901 0.971" stroke="hsl(180.0,100%,35%)" stroke-width="0.00383"></path>
<path d="M0.531 0.869 Q0.781 0.924 0.943 0.814" stroke="hsl(180.0,100%,35%)" stroke-width="0.00270"></path>
<path d="M0.531 0.869 Q0.802 1.011 1.140 0.911" stroke="hsl(180.0,100%,35%)" stroke-width="0.00045"></path>
<path d="M0.531 0.869 Q0.948 0.572 0.459 0.303" stroke="hsl(180.0,100%,35%)" stroke-width="0.00023"></path>
<path d="M1.020 0.656 Q0.709 0.790 0.901 0.971" stroke="hsl(180.0,100%,35%)" stroke-width="0.00248"></path>
<path d="M1.020 0.656 Q0.855 0.720 0.943 0.814" stroke="hsl(180.0,100%,35%)" stroke-width="0.00203"></path>
<path d="M1.020 0.656 Q0.967 0.618 0.882 0.635" stroke="hsl(180.0,100%,35%)" stroke-width="0.00045"></path>
<path d="M0.627 0.968 Q0.762 1.024 0.901 0.971" stroke="hsl(180.0,100%,35%)" stroke-width="0.00113"></path>
<path d="M0.627 0.968 Q0.908 0.954 0.943 0.814" stroke="hsl(180.0,100%,35%)" stroke-width="0.00113"></path>
<path d="M0.627 0.968 Q0.929 1.042 1.140 0.911" stroke="hsl(180.0,100%,35%)" stroke-width="0.00023"></path>
<path d="M0.750 0.855 Q0.733 0.943 0.901 0.971" stroke="hsl(180.0,100%,35%)" stroke-width="0.00270"></path>
<path d="M0.750 0.855 Q0.879 0.873 0.943 0.814" stroke="hsl(180.0,100%,35%)" stroke-width="0.00225"></path>
<path d="M0.750 0.855 Q0.664 0.751 0.444 0.771" stroke="hsl(180.0,100%,35%)" stroke-width="0.00023"></path>
<path d="M0.750 0.855 Q0.900 0.960 1.140 0.911" stroke="hsl(180.0,100%,35%)" stroke-width="0.00068"></path>
<path d="M0.615 0.827 Q0.772 0.555 0.276 0.418" stroke="hsl(180.0,100%,35%)" stroke-width="0.00023"></path>
<path d="M0.615 0.827 Q0.643 0.956 0.901 0.971" stroke="hsl(180.0,100%,35%)" stroke-width="0.00045"></path>
<path d="M0.615 0.827 Q0.901 0.784 0.882 0.635" stroke="hsl(180.0,100%,35%)" stroke-width="0.00023"></path>
<path d="M0.615 0.827 Q0.789 0.886 0.943 0.814" stroke="hsl(180.0,100%,35%)" stroke-width="0.00023"></path>
<path d="M1.300 0.667 Q1.314 0.708 1.397 0.710" stroke="hsl(180.0,100%,35%)" stroke-width="0.00045"></path>
<path d="M1.300 0.667 Q1.004 0.669 0.943 0.814" stroke="hsl(180.0,100%,35%)" stroke-width="0.00068"></path>
<path d="M1.300 0.667 Q0.857 0.739 0.901 0.971" stroke="hsl(180.0,100%,35%)" stroke-width="0.00023"></path>
<path d="M1.592 0.938 Q1.859 0.908 1.858 0.771" stroke="hsl(180.0,100%,35%)" stroke-width="0.00023"></path>
<path d="M1.592 0.938 Q1.367 0.746 0.943 0.814" stroke="hsl(180.0,100%,35%)" stroke-width="0.00023"></path>
<path d="M1.120 0.633 Q0.888 0.688 0.943 0.814" stroke="hsl(180.0,100%,35%)" stroke-width="0.00090"></path>
<path d="M1.120 0.633 Q0.741 0.758 0.901 0.971" stroke="hsl(180.0,100%,35%)" stroke-width="0.00135"></path>
<path d="M1.120 0.633 Q1.000 0.587 0.882 0.635" stroke="hsl(180.0,100%,35%)" stroke-width="0.00023"></path>
<path d="M0.111 0.605 Q0.527 0.524 0.459 0.303" stroke="hsl(180.0,100%,35%)" stroke-width="0.00023"></path>
<path d="M0.111 0.605 Q0.343 0.544 0.276 0.418" stroke="hsl(180.0,100%,35%)" stroke-width="0.00023"></path>
<path d="M0.111 0.605 Q0.213 0.946 0.901 0.971" stroke="hsl(180.0,100%,35%)" stroke-width="0.00023"></path>
<path d="M1.352 0.878 Q1.052 0.834 0.901 0.971" stroke="hsl(180.0,100%,35%)" stroke-width="0.00023"></path>
<path d="M1.352 0.878 Q1.055 0.763 0.766 0.882" stroke="hsl(180.0,100%,35%)" stroke-width="0.00023"></path>
<path d="M1.352 0.878 Q1.220 0.852 1.140 0.911" stroke="hsl(180.0,100%,35%)" stroke-width="0.00023"></path>
<path d="M0.713 0.841 Q0.704 0.944 0.901 0.971" stroke="hsl(180.0,100%,35%)" stroke-width="0.00068"></path>
<path d="M0.713 0.841 Q0.871 0.961 1.140 0.911" stroke="hsl(180.0,100%,35%)" stroke-width="0.00045"></path>
<path d="M0.713 0.841 Q0.850 0.874 0.943 0.814" stroke="hsl(180.0,100%,35%)" stroke-width="0.00023"></path>
</g>
<text x="0.197" y="0.543" font-size="0.017318" fill="hsl(0.0,100%,20%)">afdx</text>
<text x="0.276" y="0.398" font-size="0.039522" fill="hsl(0.0,100%,20%)">rharrison</text>
<text x="0.459" y="0.252" font-size="0.102849" fill="hsl(0.0,100%,20%)">bclayton</text>
<text x="0.590" y="0.369" font-size="0.055444" fill="hsl(0.0,100%,20%)">amaiorano</text>
<text x="0.787" y="0.498" font-size="0.011179" fill="hsl(0.0,100%,20%)">vasniktel</text>
<text x="0.678" y="0.957" font-size="0.004999" fill="hsl(180.0,100%,20%)">aleksi</text>
<text x="0.943" y="0.780" font-size="0.066838" fill="hsl(180.0,100%,20%)">enga</text>
<text x="0.901" y="0.935" font-size="0.072618" fill="hsl(180.0,100%,20%)">cwallez</text>
<text x="0.687" y="1.168" font-size="0.004999" fill="hsl(180.0,100%,20%)">aleksi.sapon</text>
<text x="0.090" y="0.148" font-size="0.061584" fill="hsl(0.0,100%,20%)">jrprice</text>
<text x="0.698" y="0.205" font-size="0.052492" fill="hsl(0.0,100%,20%)">dneto</text>
<text x="0.632" y="0.745" font-size="0.029681" fill="hsl(180.0,100%,20%)">bajones</text>
<text x="0.882" y="0.623" font-size="0.024105" fill="hsl(180.0,100%,20%)">kainino</text>
<text x="0.144" y="0.765" font-size="0.002500" fill="hsl(180.0,100%,20%)">headlessclayton</text>
<text x="0.318" y="0.314" font-size="0.030716" fill="hsl(180.0,100%,20%)">senorblanco</text>
<text x="0.084" y="0.334" font-size="0.020460" fill="hsl(0.0,100%,20%)">sarahmashay</text>
<text x="0.542" y="0.488" font-size="0.004329" fill="hsl(0.0,100%,20%)">allydonaldson</text>
<text x="0.480" y="0.976" font-size="0.014998" fill="hsl(180.0,100%,20%)">brandon1.jones</text>
<text x="0.824" y="0.407" font-size="0.016005" fill="hsl(0.0,100%,20%)">alanbaker</text>
<text x="0.132" y="0.289" font-size="0.023713" fill="hsl(0.0,100%,20%)">dsinclair</text>
<text x="0.596" y="0.841" font-size="0.007070" fill="hsl(180.0,100%,20%)">beaufort.francois</text>
<text x="1.582" y="0.810" font-size="0.007499" fill="hsl(180.0,100%,20%)">rafael.cintron</text>
<text x="1.072" y="0.505" font-size="0.014140" fill="hsl(180.0,100%,20%)">bryan.bernhart</text>
<text x="0.630" y="1.005" font-size="0.008290" fill="hsl(180.0,100%,20%)">cjj19970505</text>
<text x="1.397" y="0.699" font-size="0.022773" fill="hsl(180.0,100%,20%)">lokokung</text>
<text x="0.766" y="0.873" font-size="0.017318" fill="hsl(180.0,100%,20%)">hao.x.li</text>
<text x="1.051" y="1.162" font-size="0.002500" fill="hsl(180.0,100%,20%)">fbeaufort</text>
<text x="1.289" y="0.829" font-size="0.009012" fill="hsl(180.0,100%,20%)">rockot</text>
<text x="1.156" y="0.825" font-size="0.015610" fill="hsl(180.0,100%,20%)">shrekshao</text>
<text x="1.140" y="0.894" font-size="0.032399" fill="hsl(180.0,100%,20%)">jiawei.shao</text>
<text x="1.223" y="0.682" font-size="0.008659" fill="hsl(180.0,100%,20%)">jiajia.qin</text>
<text x="0.785" y="0.830" font-size="0.005589" fill="hsl(180.0,100%,20%)">thakis</text>
<text x="0.362" y="0.567" font-size="0.004999" fill="hsl(0.0,100%,20%)">jmadill</text>
<text x="0.766" y="0.982" font-size="0.003535" fill="hsl(180.0,100%,20%)">penghuang</text>
<text x="1.173" y="0.708" font-size="0.002500" fill="hsl(180.0,100%,20%)">hob</text>
<text x="1.171" y="0.810" font-size="0.022773" fill="hsl(180.0,100%,20%)">yunchao.he</text>
<text x="1.675" y="0.342" font-size="0.004329" fill="hsl(180.0,100%,20%)">hans</text>
<text x="1.470" y="0.460" font-size="0.002500" fill="hsl(180.0,100%,20%)">hwennborg</text>
<text x="0.531" y="0.861" font-size="0.015610" fill="hsl(180.0,100%,20%)">zhaoming.jiang</text>
<text x="1.020" y="0.650" font-size="0.011988" fill="hsl(180.0,100%,20%)">shaobo.yan</text>
<text x="0.627" y="0.963" font-size="0.008290" fill="hsl(180.0,100%,20%)">jie.a.chen</text>
<text x="0.750" y="0.848" font-size="0.012746" fill="hsl(180.0,100%,20%)">junwei.fu</text>
<text x="0.444" y="0.769" font-size="0.002500" fill="hsl(180.0,100%,20%)">ningxin.hu</text>
<text x="0.615" y="0.824" font-size="0.005589" fill="hsl(180.0,100%,20%)">pkasting</text>
<text x="1.300" y="0.664" font-size="0.006123" fill="hsl(180.0,100%,20%)">sunnyps</text>
<text x="1.592" y="0.936" font-size="0.003535" fill="hsl(180.0,100%,20%)">svenzheng</text>
<text x="1.858" y="0.770" font-size="0.002500" fill="hsl(180.0,100%,20%)">lgrey</text>
<text x="1.120" y="0.629" font-size="0.008290" fill="hsl(180.0,100%,20%)">tangm</text>
<text x="0.111" y="0.603" font-size="0.004329" fill="hsl(180.0,100%,20%)">vadimsh</text>
<text x="1.352" y="0.876" font-size="0.004329" fill="hsl(180.0,100%,20%)">xinghua.cao</text>
<text x="0.713" y="0.838" font-size="0.006123" fill="hsl(180.0,100%,20%)">yang.gu</text>
<text x="0.405" y="0.849" font-size="0.002500" fill="hsl(180.0,100%,20%)">ynovikov</text>
</svg>
