<svg width="4000" height="2000" viewBox="-0.025 -0.025 2.05 1.05" xmlns="http://www.w3.org/2000/svg">
  <style>
    path {
      fill: none;
      stroke-linecap: round;
      stroke-opacity: 0.4;
    }

    text {
      text-anchor: middle;
      alignment-baseline: hanging;
    }
  </style>
  <g opacity="0.4">
<path d="M0.976 0.330 Q0.656 0.219 0.370 0.351" stroke="hsl(0.0,100%,35%)" stroke-width="0.00129"></path>
<path d="M0.976 0.330 Q0.921 0.166 0.589 0.156" stroke="hsl(0.0,100%,35%)" stroke-width="0.00086"></path>
<path d="M0.976 0.330 Q0.409 0.488 0.593 0.800" stroke="hsl(0.0,100%,35%)" stroke-width="0.00043"></path>
<path d="M0.976 0.330 Q0.768 0.265 0.595 0.352" stroke="hsl(0.0,100%,35%)" stroke-width="0.00043"></path>
<path d="M0.370 0.351 Q0.111 0.534 0.410 0.700" stroke="hsl(0.0,100%,35%)" stroke-width="0.01182"></path>
<path d="M0.370 0.351 Q0.122 0.620 0.593 0.800" stroke="hsl(0.0,100%,35%)" stroke-width="0.00064"></path>
<path d="M0.370 0.351 Q0.766 0.282 0.718 0.074" stroke="hsl(0.0,100%,35%)" stroke-width="0.01204"></path>
<path d="M0.370 0.351 Q0.635 0.298 0.589 0.156" stroke="hsl(0.0,100%,35%)" stroke-width="0.02257"></path>
<path d="M0.370 0.351 Q0.237 0.294 0.098 0.347" stroke="hsl(0.0,100%,35%)" stroke-width="0.00107"></path>
<path d="M0.370 0.351 Q0.483 0.238 0.288 0.158" stroke="hsl(0.0,100%,35%)" stroke-width="0.00021"></path>
<path d="M0.370 0.351 Q0.535 0.364 0.597 0.287" stroke="hsl(0.0,100%,35%)" stroke-width="0.00043"></path>
<path d="M0.370 0.351 Q0.482 0.397 0.595 0.352" stroke="hsl(0.0,100%,35%)" stroke-width="0.00172"></path>
<path d="M0.370 0.351 Q0.903 0.292 0.906 0.019" stroke="hsl(0.0,100%,35%)" stroke-width="0.00129"></path>
<path d="M0.370 0.351 Q0.598 0.362 0.668 0.253" stroke="hsl(0.0,100%,35%)" stroke-width="0.00021"></path>
<path d="M0.370 0.351 Q0.325 0.488 0.581 0.540" stroke="hsl(0.0,100%,35%)" stroke-width="0.00021"></path>
<path d="M0.370 0.351 Q0.763 0.359 0.864 0.169" stroke="hsl(0.0,100%,35%)" stroke-width="0.00064"></path>
<path d="M0.370 0.351 Q0.581 0.377 0.678 0.279" stroke="hsl(0.0,100%,35%)" stroke-width="0.00064"></path>
<path d="M0.370 0.351 Q0.499 0.290 0.409 0.214" stroke="hsl(0.0,100%,35%)" stroke-width="0.00021"></path>
<path d="M0.370 0.351 Q0.554 0.341 0.575 0.249" stroke="hsl(0.0,100%,35%)" stroke-width="0.00021"></path>
<path d="M0.370 0.351 Q0.311 0.648 0.879 0.742" stroke="hsl(0.0,100%,35%)" stroke-width="0.00021"></path>
<path d="M0.370 0.351 Q0.389 0.238 0.173 0.205" stroke="hsl(0.0,100%,35%)" stroke-width="0.00021"></path>
<path d="M0.589 0.156 Q0.719 0.141 0.718 0.074" stroke="hsl(0.0,100%,35%)" stroke-width="0.02042"></path>
<path d="M0.589 0.156 Q0.436 0.255 0.595 0.352" stroke="hsl(0.0,100%,35%)" stroke-width="0.00559"></path>
<path d="M0.589 0.156 Q0.324 0.210 0.370 0.351" stroke="hsl(0.0,100%,35%)" stroke-width="0.00795"></path>
<path d="M0.589 0.156 Q0.194 0.232 0.255 0.442" stroke="hsl(0.0,100%,35%)" stroke-width="0.00107"></path>
<path d="M0.589 0.156 Q0.278 0.347 0.581 0.540" stroke="hsl(0.0,100%,35%)" stroke-width="0.00129"></path>
<path d="M0.589 0.156 Q0.857 0.151 0.906 0.019" stroke="hsl(0.0,100%,35%)" stroke-width="0.00150"></path>
<path d="M0.589 0.156 Q0.076 0.479 0.593 0.800" stroke="hsl(0.0,100%,35%)" stroke-width="0.00107"></path>
<path d="M0.589 0.156 Q0.065 0.393 0.410 0.700" stroke="hsl(0.0,100%,35%)" stroke-width="0.00258"></path>
<path d="M0.589 0.156 Q0.535 0.235 0.678 0.279" stroke="hsl(0.0,100%,35%)" stroke-width="0.00064"></path>
<path d="M0.589 0.156 Q-0.016 0.308 0.147 0.636" stroke="hsl(0.0,100%,35%)" stroke-width="0.00064"></path>
<path d="M0.589 0.156 Q0.717 0.218 0.864 0.169" stroke="hsl(0.0,100%,35%)" stroke-width="0.00043"></path>
<path d="M0.589 0.156 Q0.853 0.163 0.924 0.036" stroke="hsl(0.0,100%,35%)" stroke-width="0.00064"></path>
<path d="M0.589 0.156 Q0.191 0.153 0.098 0.347" stroke="hsl(0.0,100%,35%)" stroke-width="0.00150"></path>
<path d="M0.589 0.156 Q0.588 0.285 0.839 0.314" stroke="hsl(0.0,100%,35%)" stroke-width="0.00021"></path>
<path d="M0.589 0.156 Q0.265 0.507 0.879 0.742" stroke="hsl(0.0,100%,35%)" stroke-width="0.00107"></path>
<path d="M0.589 0.156 Q0.498 0.179 0.521 0.228" stroke="hsl(0.0,100%,35%)" stroke-width="0.00043"></path>
<path d="M0.589 0.156 Q0.700 0.256 0.919 0.223" stroke="hsl(0.0,100%,35%)" stroke-width="0.00021"></path>
<path d="M0.589 0.156 Q0.407 0.444 0.928 0.596" stroke="hsl(0.0,100%,35%)" stroke-width="0.00021"></path>
<path d="M0.589 0.156 Q0.880 0.202 1.033 0.071" stroke="hsl(0.0,100%,35%)" stroke-width="0.00064"></path>
<path d="M0.589 0.156 Q0.530 0.243 0.687 0.291" stroke="hsl(0.0,100%,35%)" stroke-width="0.00021"></path>
<path d="M0.589 0.156 Q-0.097 0.355 0.139 0.733" stroke="hsl(0.0,100%,35%)" stroke-width="0.00064"></path>
<path d="M0.593 0.800 Q0.581 0.713 0.410 0.700" stroke="hsl(180.0,100%,35%)" stroke-width="0.05138"></path>
<path d="M0.593 0.800 Q0.795 0.668 0.581 0.540" stroke="hsl(180.0,100%,35%)" stroke-width="0.00301"></path>
<path d="M0.593 0.800 Q0.707 0.474 0.098 0.347" stroke="hsl(180.0,100%,35%)" stroke-width="0.00086"></path>
<path d="M0.593 0.800 Q0.711 0.553 0.255 0.442" stroke="hsl(180.0,100%,35%)" stroke-width="0.00021"></path>
<path d="M0.593 0.800 Q1.369 0.484 0.924 0.036" stroke="hsl(180.0,100%,35%)" stroke-width="0.00021"></path>
<path d="M0.593 0.800 Q0.501 0.629 0.147 0.636" stroke="hsl(180.0,100%,35%)" stroke-width="0.02472"></path>
<path d="M0.593 0.800 Q0.840 0.531 0.370 0.351" stroke="hsl(180.0,100%,35%)" stroke-width="0.00236"></path>
<path d="M0.593 0.800 Q0.782 0.828 0.879 0.742" stroke="hsl(180.0,100%,35%)" stroke-width="0.00043"></path>
<path d="M0.593 0.800 Q1.105 0.477 0.589 0.156" stroke="hsl(180.0,100%,35%)" stroke-width="0.00107"></path>
<path d="M0.593 0.800 Q0.952 0.576 0.595 0.352" stroke="hsl(180.0,100%,35%)" stroke-width="0.00043"></path>
<path d="M0.593 0.800 Q0.419 0.676 0.139 0.733" stroke="hsl(180.0,100%,35%)" stroke-width="0.00021"></path>
<path d="M0.593 0.800 Q0.075 1.025 0.401 1.327" stroke="hsl(180.0,100%,35%)" stroke-width="0.00021"></path>
<path d="M0.595 0.352 Q0.483 0.306 0.370 0.351" stroke="hsl(0.0,100%,35%)" stroke-width="0.00236"></path>
<path d="M0.595 0.352 Q0.879 0.238 0.718 0.074" stroke="hsl(0.0,100%,35%)" stroke-width="0.00301"></path>
<path d="M0.595 0.352 Q0.749 0.253 0.589 0.156" stroke="hsl(0.0,100%,35%)" stroke-width="0.00279"></path>
<path d="M0.595 0.352 Q0.224 0.489 0.410 0.700" stroke="hsl(0.0,100%,35%)" stroke-width="0.00021"></path>
<path d="M0.595 0.352 Q0.747 0.382 0.839 0.314" stroke="hsl(0.0,100%,35%)" stroke-width="0.00021"></path>
<path d="M0.595 0.352 Q0.354 0.329 0.255 0.442" stroke="hsl(0.0,100%,35%)" stroke-width="0.00021"></path>
<path d="M0.595 0.352 Q1.017 0.248 0.906 0.019" stroke="hsl(0.0,100%,35%)" stroke-width="0.00021"></path>
<path d="M0.595 0.352 Q0.425 0.604 0.879 0.742" stroke="hsl(0.0,100%,35%)" stroke-width="0.00021"></path>
<path d="M0.581 0.540 Q0.368 0.586 0.410 0.700" stroke="hsl(180.0,100%,35%)" stroke-width="0.00881"></path>
<path d="M0.581 0.540 Q0.892 0.350 0.589 0.156" stroke="hsl(180.0,100%,35%)" stroke-width="0.00967"></path>
<path d="M0.581 0.540 Q0.627 0.403 0.370 0.351" stroke="hsl(180.0,100%,35%)" stroke-width="0.00236"></path>
<path d="M0.581 0.540 Q0.287 0.501 0.147 0.636" stroke="hsl(180.0,100%,35%)" stroke-width="0.00107"></path>
<path d="M0.581 0.540 Q0.739 0.449 0.595 0.352" stroke="hsl(180.0,100%,35%)" stroke-width="0.00043"></path>
<path d="M0.581 0.540 Q0.379 0.672 0.593 0.800" stroke="hsl(180.0,100%,35%)" stroke-width="0.00215"></path>
<path d="M0.410 0.700 Q0.624 0.654 0.581 0.540" stroke="hsl(180.0,100%,35%)" stroke-width="0.01849"></path>
<path d="M0.410 0.700 Q0.330 0.616 0.147 0.636" stroke="hsl(180.0,100%,35%)" stroke-width="0.05009"></path>
<path d="M0.410 0.700 Q0.422 0.786 0.593 0.800" stroke="hsl(180.0,100%,35%)" stroke-width="0.05804"></path>
<path d="M0.410 0.700 Q0.669 0.518 0.370 0.351" stroke="hsl(180.0,100%,35%)" stroke-width="0.01462"></path>
<path d="M0.410 0.700 Q0.248 0.662 0.139 0.733" stroke="hsl(180.0,100%,35%)" stroke-width="0.00344"></path>
<path d="M0.410 0.700 Q0.781 0.563 0.595 0.352" stroke="hsl(180.0,100%,35%)" stroke-width="0.00043"></path>
<path d="M0.410 0.700 Q0.834 0.531 0.597 0.287" stroke="hsl(180.0,100%,35%)" stroke-width="0.00021"></path>
<path d="M0.410 0.700 Q0.935 0.464 0.589 0.156" stroke="hsl(180.0,100%,35%)" stroke-width="0.00817"></path>
<path d="M0.410 0.700 Q0.753 0.751 0.928 0.596" stroke="hsl(180.0,100%,35%)" stroke-width="0.00021"></path>
<path d="M0.410 0.700 Q1.203 0.459 0.906 0.019" stroke="hsl(180.0,100%,35%)" stroke-width="0.00043"></path>
<path d="M0.410 0.700 Q0.611 0.815 0.879 0.742" stroke="hsl(180.0,100%,35%)" stroke-width="0.00086"></path>
<path d="M0.410 0.700 Q0.537 0.461 0.098 0.347" stroke="hsl(180.0,100%,35%)" stroke-width="0.00021"></path>
<path d="M0.410 0.700 Q0.531 0.616 0.393 0.539" stroke="hsl(180.0,100%,35%)" stroke-width="0.00021"></path>
<path d="M0.410 0.700 Q0.933 0.593 0.839 0.314" stroke="hsl(180.0,100%,35%)" stroke-width="0.00021"></path>
<path d="M0.147 0.636 Q0.227 0.721 0.410 0.700" stroke="hsl(180.0,100%,35%)" stroke-width="0.04557"></path>
<path d="M0.147 0.636 Q0.065 0.683 0.139 0.733" stroke="hsl(180.0,100%,35%)" stroke-width="0.00666"></path>
<path d="M0.147 0.636 Q0.441 0.675 0.581 0.540" stroke="hsl(180.0,100%,35%)" stroke-width="0.00064"></path>
<path d="M0.147 0.636 Q0.239 0.807 0.593 0.800" stroke="hsl(180.0,100%,35%)" stroke-width="0.02343"></path>
<path d="M0.147 0.636 Q1.020 0.479 0.906 0.019" stroke="hsl(180.0,100%,35%)" stroke-width="0.00064"></path>
<path d="M0.147 0.636 Q0.487 0.538 0.370 0.351" stroke="hsl(180.0,100%,35%)" stroke-width="0.00107"></path>
<path d="M0.147 0.636 Q0.752 0.485 0.589 0.156" stroke="hsl(180.0,100%,35%)" stroke-width="0.00129"></path>
<path d="M0.147 0.636 Q1.016 0.491 0.924 0.036" stroke="hsl(180.0,100%,35%)" stroke-width="0.00021"></path>
<path d="M0.147 0.636 Q-0.038 0.781 0.203 0.903" stroke="hsl(180.0,100%,35%)" stroke-width="0.00021"></path>
<path d="M0.147 0.636 Q-0.002 0.707 0.103 0.795" stroke="hsl(180.0,100%,35%)" stroke-width="0.00021"></path>
<path d="M0.642 -0.049 Q-0.073 0.279 0.410 0.700" stroke="hsl(0.0,100%,35%)" stroke-width="0.00043"></path>
<path d="M0.642 -0.049 Q0.186 0.096 0.370 0.351" stroke="hsl(0.0,100%,35%)" stroke-width="0.00043"></path>
<path d="M0.597 0.287 Q0.432 0.274 0.370 0.351" stroke="hsl(0.0,100%,35%)" stroke-width="0.00537"></path>
<path d="M0.597 0.287 Q0.697 0.220 0.589 0.156" stroke="hsl(0.0,100%,35%)" stroke-width="0.00043"></path>
<path d="M0.597 0.287 Q0.614 0.356 0.752 0.363" stroke="hsl(0.0,100%,35%)" stroke-width="0.00021"></path>
<path d="M0.597 0.287 Q0.173 0.456 0.410 0.700" stroke="hsl(0.0,100%,35%)" stroke-width="0.00150"></path>
<path d="M0.434 0.206 Q0.286 0.265 0.370 0.351" stroke="hsl(0.0,100%,35%)" stroke-width="0.00043"></path>
<path d="M0.434 0.206 Q0.398 0.311 0.595 0.352" stroke="hsl(0.0,100%,35%)" stroke-width="0.00043"></path>
<path d="M0.434 0.206 Q0.156 0.288 0.255 0.442" stroke="hsl(0.0,100%,35%)" stroke-width="0.00021"></path>
<path d="M0.434 0.206 Q0.681 0.197 0.718 0.074" stroke="hsl(0.0,100%,35%)" stroke-width="0.00021"></path>
<path d="M0.434 0.206 Q0.026 0.448 0.410 0.700" stroke="hsl(0.0,100%,35%)" stroke-width="0.00021"></path>
<path d="M0.434 0.206 Q0.551 0.212 0.589 0.156" stroke="hsl(0.0,100%,35%)" stroke-width="0.00021"></path>
<path d="M0.255 0.442 Q0.650 0.366 0.589 0.156" stroke="hsl(0.0,100%,35%)" stroke-width="0.00774"></path>
<path d="M0.255 0.442 Q0.252 0.363 0.098 0.347" stroke="hsl(0.0,100%,35%)" stroke-width="0.00451"></path>
<path d="M0.255 0.442 Q0.138 0.688 0.593 0.800" stroke="hsl(0.0,100%,35%)" stroke-width="0.00043"></path>
<path d="M0.255 0.442 Q0.045 0.517 0.147 0.636" stroke="hsl(0.0,100%,35%)" stroke-width="0.00021"></path>
<path d="M0.255 0.442 Q0.497 0.465 0.595 0.352" stroke="hsl(0.0,100%,35%)" stroke-width="0.00064"></path>
<path d="M0.255 0.442 Q0.918 0.360 0.906 0.019" stroke="hsl(0.0,100%,35%)" stroke-width="0.00021"></path>
<path d="M0.255 0.442 Q0.781 0.351 0.718 0.074" stroke="hsl(0.0,100%,35%)" stroke-width="0.00107"></path>
<path d="M0.255 0.442 Q0.126 0.602 0.410 0.700" stroke="hsl(0.0,100%,35%)" stroke-width="0.00129"></path>
<path d="M0.255 0.442 Q0.385 0.419 0.370 0.351" stroke="hsl(0.0,100%,35%)" stroke-width="0.00021"></path>
<path d="M0.718 0.074 Q0.588 0.089 0.589 0.156" stroke="hsl(0.0,100%,35%)" stroke-width="0.02322"></path>
<path d="M0.718 0.074 Q0.435 0.189 0.595 0.352" stroke="hsl(0.0,100%,35%)" stroke-width="0.00387"></path>
<path d="M0.718 0.074 Q0.323 0.143 0.370 0.351" stroke="hsl(0.0,100%,35%)" stroke-width="0.00666"></path>
<path d="M0.718 0.074 Q0.852 0.096 0.924 0.036" stroke="hsl(0.0,100%,35%)" stroke-width="0.00021"></path>
<path d="M0.718 0.074 Q0.277 0.280 0.581 0.540" stroke="hsl(0.0,100%,35%)" stroke-width="0.00021"></path>
<path d="M0.718 0.074 Q0.854 0.146 1.024 0.095" stroke="hsl(0.0,100%,35%)" stroke-width="0.00021"></path>
<path d="M0.718 0.074 Q0.064 0.326 0.410 0.700" stroke="hsl(0.0,100%,35%)" stroke-width="0.00086"></path>
<path d="M0.718 0.074 Q0.856 0.084 0.906 0.019" stroke="hsl(0.0,100%,35%)" stroke-width="0.00129"></path>
<path d="M0.718 0.074 Q0.193 0.165 0.255 0.442" stroke="hsl(0.0,100%,35%)" stroke-width="0.00215"></path>
<path d="M0.718 0.074 Q-0.017 0.241 0.147 0.636" stroke="hsl(0.0,100%,35%)" stroke-width="0.00021"></path>
<path d="M0.903 0.082 Q0.686 0.056 0.589 0.156" stroke="hsl(0.0,100%,35%)" stroke-width="0.00043"></path>
<path d="M0.903 0.082 Q0.421 0.110 0.370 0.351" stroke="hsl(0.0,100%,35%)" stroke-width="0.00021"></path>
<path d="M0.903 0.082 Q0.954 0.051 0.906 0.019" stroke="hsl(0.0,100%,35%)" stroke-width="0.00021"></path>
<path d="M0.906 0.019 Q0.372 0.078 0.370 0.351" stroke="hsl(0.0,100%,35%)" stroke-width="0.00064"></path>
<path d="M0.906 0.019 Q0.637 0.024 0.589 0.156" stroke="hsl(0.0,100%,35%)" stroke-width="0.00430"></path>
<path d="M0.906 0.019 Q0.484 0.124 0.595 0.352" stroke="hsl(0.0,100%,35%)" stroke-width="0.00236"></path>
<path d="M0.906 0.019 Q0.768 0.009 0.718 0.074" stroke="hsl(0.0,100%,35%)" stroke-width="0.00043"></path>
<path d="M0.906 0.019 Q0.327 0.215 0.581 0.540" stroke="hsl(0.0,100%,35%)" stroke-width="0.00021"></path>
<path d="M0.906 0.019 Q-0.049 0.223 0.139 0.733" stroke="hsl(0.0,100%,35%)" stroke-width="0.00021"></path>
<path d="M0.906 0.019 Q0.243 0.100 0.255 0.442" stroke="hsl(0.0,100%,35%)" stroke-width="0.00021"></path>
<path d="M0.139 0.733 Q0.301 0.771 0.410 0.700" stroke="hsl(180.0,100%,35%)" stroke-width="0.00451"></path>
<path d="M0.139 0.733 Q0.220 0.686 0.147 0.636" stroke="hsl(180.0,100%,35%)" stroke-width="0.00236"></path>
<path d="M0.139 0.733 Q0.515 0.725 0.581 0.540" stroke="hsl(180.0,100%,35%)" stroke-width="0.00021"></path>
<path d="M0.139 0.733 Q0.035 0.831 0.203 0.903" stroke="hsl(180.0,100%,35%)" stroke-width="0.00043"></path>
<path d="M0.139 0.733 Q0.825 0.535 0.589 0.156" stroke="hsl(180.0,100%,35%)" stroke-width="0.00086"></path>
<path d="M0.139 0.733 Q0.313 0.857 0.593 0.800" stroke="hsl(180.0,100%,35%)" stroke-width="0.00107"></path>
<path d="M0.139 0.733 Q1.093 0.529 0.906 0.019" stroke="hsl(180.0,100%,35%)" stroke-width="0.00021"></path>
<path d="M0.139 0.733 Q0.560 0.588 0.370 0.351" stroke="hsl(180.0,100%,35%)" stroke-width="0.00043"></path>
<path d="M0.139 0.733 Q0.672 0.634 0.595 0.352" stroke="hsl(180.0,100%,35%)" stroke-width="0.00021"></path>
<path d="M0.879 0.742 Q1.202 0.391 0.589 0.156" stroke="hsl(0.0,100%,35%)" stroke-width="0.00107"></path>
<path d="M0.879 0.742 Q0.690 0.714 0.593 0.800" stroke="hsl(0.0,100%,35%)" stroke-width="0.00107"></path>
<path d="M0.879 0.742 Q0.678 0.628 0.410 0.700" stroke="hsl(0.0,100%,35%)" stroke-width="0.00064"></path>
<path d="M0.879 0.742 Q0.598 0.543 0.147 0.636" stroke="hsl(0.0,100%,35%)" stroke-width="0.00021"></path>
<path d="M0.879 0.742 Q0.892 0.582 0.581 0.540" stroke="hsl(0.0,100%,35%)" stroke-width="0.00021"></path>
<path d="M0.098 0.347 Q-0.029 0.586 0.410 0.700" stroke="hsl(0.0,100%,35%)" stroke-width="0.00387"></path>
<path d="M0.098 0.347 Q0.496 0.350 0.589 0.156" stroke="hsl(0.0,100%,35%)" stroke-width="0.00623"></path>
<path d="M0.098 0.347 Q-0.017 0.672 0.593 0.800" stroke="hsl(0.0,100%,35%)" stroke-width="0.00129"></path>
<path d="M0.098 0.347 Q0.626 0.335 0.718 0.074" stroke="hsl(0.0,100%,35%)" stroke-width="0.00043"></path>
<path d="M0.098 0.347 Q0.764 0.345 0.906 0.019" stroke="hsl(0.0,100%,35%)" stroke-width="0.00021"></path>
<path d="M0.098 0.347 Q0.101 0.426 0.255 0.442" stroke="hsl(0.0,100%,35%)" stroke-width="0.00021"></path>
<path d="M0.098 0.347 Q0.759 0.356 0.924 0.036" stroke="hsl(0.0,100%,35%)" stroke-width="0.00043"></path>
<path d="M0.098 0.347 Q0.230 0.403 0.370 0.351" stroke="hsl(0.0,100%,35%)" stroke-width="0.00043"></path>
<path d="M0.098 0.347 Q0.342 0.449 0.595 0.352" stroke="hsl(0.0,100%,35%)" stroke-width="0.00021"></path>
<path d="M0.839 0.314 Q0.575 0.239 0.370 0.351" stroke="hsl(0.0,100%,35%)" stroke-width="0.02322"></path>
<path d="M0.839 0.314 Q0.840 0.185 0.589 0.156" stroke="hsl(0.0,100%,35%)" stroke-width="0.01849"></path>
<path d="M0.839 0.314 Q0.316 0.421 0.410 0.700" stroke="hsl(0.0,100%,35%)" stroke-width="0.00516"></path>
<path d="M0.839 0.314 Q0.971 0.170 0.718 0.074" stroke="hsl(0.0,100%,35%)" stroke-width="0.00021"></path>
<path d="M0.839 0.314 Q0.235 0.337 0.147 0.636" stroke="hsl(0.0,100%,35%)" stroke-width="0.00043"></path>
<path d="M0.839 0.314 Q1.108 0.180 0.906 0.019" stroke="hsl(0.0,100%,35%)" stroke-width="0.00043"></path>
<path d="M0.839 0.314 Q0.516 0.536 0.879 0.742" stroke="hsl(0.0,100%,35%)" stroke-width="0.00021"></path>
<path d="M0.839 0.314 Q0.154 0.384 0.139 0.733" stroke="hsl(0.0,100%,35%)" stroke-width="0.00107"></path>
<path d="M0.839 0.314 Q0.968 0.246 0.864 0.169" stroke="hsl(0.0,100%,35%)" stroke-width="0.00086"></path>
<path d="M0.839 0.314 Q0.410 0.174 0.042 0.352" stroke="hsl(0.0,100%,35%)" stroke-width="0.00021"></path>
<path d="M0.839 0.314 Q0.327 0.508 0.593 0.800" stroke="hsl(0.0,100%,35%)" stroke-width="0.00021"></path>
<path d="M0.839 0.314 Q0.684 0.300 0.623 0.372" stroke="hsl(0.0,100%,35%)" stroke-width="0.00043"></path>
<path d="M0.839 0.314 Q0.687 0.284 0.595 0.352" stroke="hsl(0.0,100%,35%)" stroke-width="0.00021"></path>
<path d="M0.574 0.247 Q0.389 0.258 0.370 0.351" stroke="hsl(0.0,100%,35%)" stroke-width="0.00537"></path>
<path d="M0.574 0.247 Q0.501 0.303 0.595 0.352" stroke="hsl(0.0,100%,35%)" stroke-width="0.00043"></path>
<path d="M0.574 0.247 Q0.654 0.204 0.589 0.156" stroke="hsl(0.0,100%,35%)" stroke-width="0.00172"></path>
<path d="M0.574 0.247 Q0.784 0.189 0.718 0.074" stroke="hsl(0.0,100%,35%)" stroke-width="0.00064"></path>
<path d="M0.173 0.205 Q0.155 0.317 0.370 0.351" stroke="hsl(0.0,100%,35%)" stroke-width="0.00473"></path>
<path d="M0.173 0.205 Q0.420 0.264 0.589 0.156" stroke="hsl(0.0,100%,35%)" stroke-width="0.00064"></path>
<path d="M0.173 0.205 Q0.550 0.248 0.718 0.074" stroke="hsl(0.0,100%,35%)" stroke-width="0.00021"></path>
<path d="M0.685 0.239 Q0.438 0.232 0.370 0.351" stroke="hsl(0.0,100%,35%)" stroke-width="0.00150"></path>
<path d="M0.685 0.239 Q0.703 0.179 0.589 0.156" stroke="hsl(0.0,100%,35%)" stroke-width="0.00150"></path>
<path d="M0.685 0.239 Q0.179 0.415 0.410 0.700" stroke="hsl(0.0,100%,35%)" stroke-width="0.00215"></path>
<path d="M0.685 0.239 Q0.098 0.330 0.147 0.636" stroke="hsl(0.0,100%,35%)" stroke-width="0.00021"></path>
<path d="M0.521 0.228 Q0.612 0.206 0.589 0.156" stroke="hsl(0.0,100%,35%)" stroke-width="0.00709"></path>
<path d="M0.521 0.228 Q0.752 0.299 0.942 0.203" stroke="hsl(0.0,100%,35%)" stroke-width="0.00043"></path>
<path d="M0.521 0.228 Q0.459 0.305 0.595 0.352" stroke="hsl(0.0,100%,35%)" stroke-width="0.00043"></path>
<path d="M0.521 0.228 Q0.099 0.528 0.593 0.800" stroke="hsl(0.0,100%,35%)" stroke-width="0.00021"></path>
<path d="M0.864 0.169 Q0.736 0.108 0.589 0.156" stroke="hsl(0.0,100%,35%)" stroke-width="0.01913"></path>
<path d="M0.864 0.169 Q0.471 0.161 0.370 0.351" stroke="hsl(0.0,100%,35%)" stroke-width="0.00924"></path>
<path d="M0.864 0.169 Q0.212 0.344 0.410 0.700" stroke="hsl(0.0,100%,35%)" stroke-width="0.00043"></path>
<path d="M0.864 0.169 Q0.867 0.092 0.718 0.074" stroke="hsl(0.0,100%,35%)" stroke-width="0.00021"></path>
<path d="M0.678 0.279 Q0.466 0.253 0.370 0.351" stroke="hsl(0.0,100%,35%)" stroke-width="0.00301"></path>
<path d="M0.678 0.279 Q0.731 0.200 0.589 0.156" stroke="hsl(0.0,100%,35%)" stroke-width="0.00580"></path>
<path d="M0.678 0.279 Q0.859 0.261 0.864 0.169" stroke="hsl(0.0,100%,35%)" stroke-width="0.00021"></path>
<path d="M0.678 0.279 Q0.862 0.185 0.718 0.074" stroke="hsl(0.0,100%,35%)" stroke-width="0.00021"></path>
<path d="M0.575 0.249 Q0.656 0.205 0.589 0.156" stroke="hsl(0.0,100%,35%)" stroke-width="0.00064"></path>
<path d="M0.575 0.249 Q0.391 0.259 0.370 0.351" stroke="hsl(0.0,100%,35%)" stroke-width="0.00043"></path>
<path d="M0.575 0.249 Q0.503 0.304 0.595 0.352" stroke="hsl(0.0,100%,35%)" stroke-width="0.00021"></path>
<path d="M0.292 0.069 Q0.371 0.172 0.589 0.156" stroke="hsl(0.0,100%,35%)" stroke-width="0.00021"></path>
<path d="M0.292 0.069 Q-0.154 0.408 0.410 0.700" stroke="hsl(0.0,100%,35%)" stroke-width="0.00021"></path>
<path d="M0.292 0.069 Q0.106 0.226 0.370 0.351" stroke="hsl(0.0,100%,35%)" stroke-width="0.00021"></path>
<path d="M0.924 0.036 Q0.135 0.265 0.410 0.700" stroke="hsl(0.0,100%,35%)" stroke-width="0.00107"></path>
<path d="M0.924 0.036 Q0.790 0.014 0.718 0.074" stroke="hsl(0.0,100%,35%)" stroke-width="0.00129"></path>
<path d="M0.924 0.036 Q0.394 0.083 0.370 0.351" stroke="hsl(0.0,100%,35%)" stroke-width="0.00043"></path>
<path d="M0.924 0.036 Q0.928 0.024 0.906 0.019" stroke="hsl(0.0,100%,35%)" stroke-width="0.00086"></path>
<path d="M0.924 0.036 Q0.660 0.029 0.589 0.156" stroke="hsl(0.0,100%,35%)" stroke-width="0.00516"></path>
<path d="M0.924 0.036 Q0.262 0.026 0.098 0.347" stroke="hsl(0.0,100%,35%)" stroke-width="0.00258"></path>
<path d="M0.924 0.036 Q0.349 0.219 0.581 0.540" stroke="hsl(0.0,100%,35%)" stroke-width="0.00043"></path>
<path d="M0.924 0.036 Q0.506 0.128 0.595 0.352" stroke="hsl(0.0,100%,35%)" stroke-width="0.00021"></path>
<path d="M0.628 0.252 Q0.420 0.250 0.370 0.351" stroke="hsl(0.0,100%,35%)" stroke-width="0.00107"></path>
<path d="M0.628 0.252 Q0.685 0.196 0.589 0.156" stroke="hsl(0.0,100%,35%)" stroke-width="0.00064"></path>
<path d="M0.628 0.252 Q0.160 0.432 0.410 0.700" stroke="hsl(0.0,100%,35%)" stroke-width="0.00021"></path>
<path d="M0.919 0.223 Q0.935 0.185 0.864 0.169" stroke="hsl(0.0,100%,35%)" stroke-width="0.00623"></path>
<path d="M0.919 0.223 Q0.542 0.177 0.370 0.351" stroke="hsl(0.0,100%,35%)" stroke-width="0.00731"></path>
<path d="M0.919 0.223 Q0.808 0.124 0.589 0.156" stroke="hsl(0.0,100%,35%)" stroke-width="0.00946"></path>
<path d="M0.687 0.291 Q0.745 0.204 0.589 0.156" stroke="hsl(0.0,100%,35%)" stroke-width="0.00193"></path>
<path d="M0.687 0.291 Q0.876 0.189 0.718 0.074" stroke="hsl(0.0,100%,35%)" stroke-width="0.00086"></path>
<path d="M0.687 0.291 Q0.221 0.440 0.410 0.700" stroke="hsl(0.0,100%,35%)" stroke-width="0.00064"></path>
<path d="M0.687 0.291 Q0.435 0.394 0.581 0.540" stroke="hsl(0.0,100%,35%)" stroke-width="0.00021"></path>
<path d="M0.687 0.291 Q0.480 0.258 0.370 0.351" stroke="hsl(0.0,100%,35%)" stroke-width="0.00193"></path>
<path d="M0.617 0.417 Q0.546 0.335 0.370 0.351" stroke="hsl(0.0,100%,35%)" stroke-width="0.00043"></path>
<path d="M0.617 0.417 Q0.812 0.482 0.981 0.400" stroke="hsl(0.0,100%,35%)" stroke-width="0.00021"></path>
<path d="M0.617 0.417 Q0.811 0.281 0.589 0.156" stroke="hsl(0.0,100%,35%)" stroke-width="0.00021"></path>
<path d="M0.230 0.188 Q0.565 0.229 0.718 0.074" stroke="hsl(0.0,100%,35%)" stroke-width="0.00021"></path>
<path d="M0.230 0.188 Q0.169 0.297 0.370 0.351" stroke="hsl(0.0,100%,35%)" stroke-width="0.00279"></path>
<path d="M0.230 0.188 Q0.435 0.244 0.589 0.156" stroke="hsl(0.0,100%,35%)" stroke-width="0.00279"></path>
<path d="M0.230 0.188 Q-0.090 0.480 0.410 0.700" stroke="hsl(0.0,100%,35%)" stroke-width="0.00021"></path>
<path d="M0.310 0.155 Q0.448 0.211 0.589 0.156" stroke="hsl(0.0,100%,35%)" stroke-width="0.00086"></path>
<path d="M0.310 0.155 Q0.183 0.265 0.370 0.351" stroke="hsl(0.0,100%,35%)" stroke-width="0.00086"></path>
<path d="M0.310 0.155 Q0.539 0.240 0.755 0.147" stroke="hsl(0.0,100%,35%)" stroke-width="0.00043"></path>
<path d="M0.755 0.147 Q0.664 0.118 0.589 0.156" stroke="hsl(0.0,100%,35%)" stroke-width="0.00279"></path>
<path d="M0.755 0.147 Q0.792 0.179 0.864 0.169" stroke="hsl(0.0,100%,35%)" stroke-width="0.00021"></path>
<path d="M0.755 0.147 Q0.399 0.172 0.370 0.351" stroke="hsl(0.0,100%,35%)" stroke-width="0.00021"></path>
<path d="M0.882 0.561 Q0.534 0.536 0.410 0.700" stroke="hsl(180.0,100%,35%)" stroke-width="0.00150"></path>
<path d="M0.882 0.561 Q0.748 0.490 0.581 0.540" stroke="hsl(180.0,100%,35%)" stroke-width="0.00021"></path>
<path d="M0.882 0.561 Q0.454 0.452 0.147 0.636" stroke="hsl(180.0,100%,35%)" stroke-width="0.00021"></path>
<path d="M0.882 0.561 Q0.735 0.651 0.879 0.742" stroke="hsl(180.0,100%,35%)" stroke-width="0.00021"></path>
<path d="M0.882 0.561 Q1.059 0.300 0.589 0.156" stroke="hsl(180.0,100%,35%)" stroke-width="0.00021"></path>
<path d="M0.136 0.238 Q0.427 0.288 0.589 0.156" stroke="hsl(0.0,100%,35%)" stroke-width="0.00021"></path>
<path d="M0.136 0.238 Q0.426 0.417 0.839 0.314" stroke="hsl(0.0,100%,35%)" stroke-width="0.00021"></path>
<path d="M0.136 0.238 Q0.162 0.341 0.370 0.351" stroke="hsl(0.0,100%,35%)" stroke-width="0.00021"></path>
<path d="M0.042 0.352 Q0.207 0.417 0.370 0.351" stroke="hsl(0.0,100%,35%)" stroke-width="0.00215"></path>
<path d="M0.042 0.352 Q0.472 0.364 0.589 0.156" stroke="hsl(0.0,100%,35%)" stroke-width="0.00193"></path>
<path d="M0.042 0.352 Q0.149 0.715 0.879 0.742" stroke="hsl(0.0,100%,35%)" stroke-width="0.00021"></path>
<path d="M0.042 0.352 Q0.603 0.349 0.718 0.074" stroke="hsl(0.0,100%,35%)" stroke-width="0.00021"></path>
<path d="M0.042 0.352 Q-0.133 0.515 0.147 0.636" stroke="hsl(0.0,100%,35%)" stroke-width="0.00021"></path>
<path d="M0.042 0.352 Q0.162 0.554 0.581 0.540" stroke="hsl(0.0,100%,35%)" stroke-width="0.00021"></path>
<path d="M0.563 -0.190 Q-0.225 0.224 0.410 0.700" stroke="hsl(180.0,100%,35%)" stroke-width="0.00021"></path>
<path d="M0.563 -0.190 Q0.299 -0.012 0.589 0.156" stroke="hsl(180.0,100%,35%)" stroke-width="0.00064"></path>
<path d="M0.563 -0.190 Q-0.306 0.140 0.147 0.636" stroke="hsl(180.0,100%,35%)" stroke-width="0.00086"></path>
<path d="M0.623 0.219 Q0.391 0.234 0.370 0.351" stroke="hsl(0.0,100%,35%)" stroke-width="0.00172"></path>
<path d="M0.623 0.219 Q0.656 0.181 0.589 0.156" stroke="hsl(0.0,100%,35%)" stroke-width="0.00193"></path>
<path d="M0.623 0.219 Q0.747 0.209 0.755 0.147" stroke="hsl(0.0,100%,35%)" stroke-width="0.00021"></path>
<path d="M0.623 0.219 Q0.711 0.345 0.976 0.330" stroke="hsl(0.0,100%,35%)" stroke-width="0.00021"></path>
<path d="M0.420 0.926 Q0.796 0.926 0.879 0.742" stroke="hsl(0.0,100%,35%)" stroke-width="0.00021"></path>
<path d="M0.420 0.926 Q0.607 0.897 0.593 0.800" stroke="hsl(0.0,100%,35%)" stroke-width="0.00021"></path>
<path d="M0.420 0.926 Q0.596 0.811 0.410 0.700" stroke="hsl(0.0,100%,35%)" stroke-width="0.00021"></path>
<path d="M0.420 0.926 Q0.855 0.628 0.370 0.351" stroke="hsl(0.0,100%,35%)" stroke-width="0.00021"></path>
<path d="M0.607 0.289 Q0.439 0.273 0.370 0.351" stroke="hsl(0.0,100%,35%)" stroke-width="0.00064"></path>
<path d="M0.607 0.289 Q0.704 0.219 0.589 0.156" stroke="hsl(0.0,100%,35%)" stroke-width="0.00064"></path>
<path d="M0.607 0.289 Q0.650 0.298 0.678 0.279" stroke="hsl(0.0,100%,35%)" stroke-width="0.00021"></path>
<path d="M0.342 0.147 Q0.367 0.223 0.521 0.228" stroke="hsl(0.0,100%,35%)" stroke-width="0.00021"></path>
<path d="M0.342 0.147 Q0.458 0.201 0.589 0.156" stroke="hsl(0.0,100%,35%)" stroke-width="0.00172"></path>
<path d="M0.342 0.147 Q0.193 0.254 0.370 0.351" stroke="hsl(0.0,100%,35%)" stroke-width="0.00021"></path>
<path d="M0.342 0.147 Q0.147 0.391 0.581 0.540" stroke="hsl(0.0,100%,35%)" stroke-width="0.00043"></path>
<path d="M0.342 0.147 Q0.305 0.300 0.595 0.352" stroke="hsl(0.0,100%,35%)" stroke-width="0.00021"></path>
<path d="M0.342 0.147 Q-0.067 0.437 0.410 0.700" stroke="hsl(0.0,100%,35%)" stroke-width="0.00021"></path>
</g>
<text x="0.976" y="0.325" font-size="0.009242" fill="hsl(0.0,100%,20%)">albin.bernhardsson</text>
<text x="0.370" y="0.318" font-size="0.066946" fill="hsl(0.0,100%,20%)">cwallez</text>
<text x="0.589" y="0.118" font-size="0.077438" fill="hsl(0.0,100%,20%)">enga</text>
<text x="0.593" y="0.766" font-size="0.068168" fill="hsl(180.0,100%,20%)">dsinclair</text>
<text x="0.595" y="0.338" font-size="0.027104" fill="hsl(0.0,100%,20%)">kainino</text>
<text x="0.581" y="0.522" font-size="0.036582" fill="hsl(180.0,100%,20%)">amaiorano</text>
<text x="0.410" y="0.656" font-size="0.089385" fill="hsl(180.0,100%,20%)">bclayton</text>
<text x="0.147" y="0.604" font-size="0.065397" fill="hsl(180.0,100%,20%)">jrprice</text>
<text x="0.642" y="-0.052" font-size="0.004773" fill="hsl(0.0,100%,20%)">andre</text>
<text x="0.597" y="0.280" font-size="0.014711" fill="hsl(0.0,100%,20%)">arthursonzogni</text>
<text x="0.752" y="0.362" font-size="0.002386" fill="hsl(0.0,100%,20%)">khaslett</text>
<text x="0.434" y="0.202" font-size="0.006750" fill="hsl(0.0,100%,20%)">austineng</text>
<text x="0.255" y="0.430" font-size="0.023382" fill="hsl(0.0,100%,20%)">shrekshao</text>
<text x="0.718" y="0.051" font-size="0.046212" fill="hsl(0.0,100%,20%)">lokokung</text>
<text x="0.903" y="0.079" font-size="0.004773" fill="hsl(0.0,100%,20%)">avi</text>
<text x="0.906" y="0.009" font-size="0.020528" fill="hsl(0.0,100%,20%)">bajones</text>
<text x="0.139" y="0.721" font-size="0.024453" fill="hsl(180.0,100%,20%)">dneto</text>
<text x="0.928" y="0.594" font-size="0.003375" fill="hsl(0.0,100%,20%)">brucedawson</text>
<text x="0.879" y="0.736" font-size="0.013499" fill="hsl(0.0,100%,20%)">rharrison</text>
<text x="0.098" y="0.334" font-size="0.025255" fill="hsl(0.0,100%,20%)">senorblanco</text>
<text x="0.393" y="0.538" font-size="0.002386" fill="hsl(180.0,100%,20%)">kjlubick</text>
<text x="0.839" y="0.296" font-size="0.037123" fill="hsl(0.0,100%,20%)">jiawei.shao</text>
<text x="0.574" y="0.239" font-size="0.014711" fill="hsl(0.0,100%,20%)">beaufort.francois</text>
<text x="0.173" y="0.198" font-size="0.012400" fill="hsl(0.0,100%,20%)">blundell</text>
<text x="0.685" y="0.233" font-size="0.011932" fill="hsl(0.0,100%,20%)">brandon1.jones</text>
<text x="0.521" y="0.220" font-size="0.015280" fill="hsl(0.0,100%,20%)">bsheedy</text>
<text x="0.942" y="0.201" font-size="0.003375" fill="hsl(0.0,100%,20%)">gbeaty</text>
<text x="0.288" y="0.157" font-size="0.002386" fill="hsl(0.0,100%,20%)">fhorschig</text>
<text x="0.668" y="0.252" font-size="0.002386" fill="hsl(0.0,100%,20%)">jamesgk</text>
<text x="0.864" y="0.153" font-size="0.031569" fill="hsl(0.0,100%,20%)">penghuang</text>
<text x="0.678" y="0.271" font-size="0.016874" fill="hsl(0.0,100%,20%)">lehoangquyen</text>
<text x="0.409" y="0.213" font-size="0.002386" fill="hsl(0.0,100%,20%)">fbeaufort</text>
<text x="0.575" y="0.245" font-size="0.006314" fill="hsl(0.0,100%,20%)">yunchao.he</text>
<text x="0.292" y="0.067" font-size="0.004133" fill="hsl(0.0,100%,20%)">danakj</text>
<text x="0.203" y="0.901" font-size="0.004133" fill="hsl(180.0,100%,20%)">alanbaker</text>
<text x="0.924" y="0.026" font-size="0.019091" fill="hsl(0.0,100%,20%)">gman</text>
<text x="0.401" y="1.326" font-size="0.002386" fill="hsl(180.0,100%,20%)">yiwzhang</text>
<text x="0.628" y="0.248" font-size="0.007159" fill="hsl(0.0,100%,20%)">elie.michel.fr</text>
<text x="0.919" y="0.211" font-size="0.024800" fill="hsl(0.0,100%,20%)">jie.a.chen</text>
<text x="1.033" y="0.069" font-size="0.004133" fill="hsl(0.0,100%,20%)">toji</text>
<text x="0.687" y="0.285" font-size="0.012400" fill="hsl(0.0,100%,20%)">tiszka</text>
<text x="0.617" y="0.415" font-size="0.004773" fill="hsl(0.0,100%,20%)">geofflang</text>
<text x="0.981" y="0.399" font-size="0.002386" fill="hsl(0.0,100%,20%)">fmalita</text>
<text x="0.230" y="0.182" font-size="0.012627" fill="hsl(0.0,100%,20%)">hao.x.li</text>
<text x="0.310" y="0.151" font-size="0.007546" fill="hsl(0.0,100%,20%)">hitawala</text>
<text x="0.755" y="0.142" font-size="0.010125" fill="hsl(0.0,100%,20%)">sunnyps</text>
<text x="0.882" y="0.557" font-size="0.007915" fill="hsl(180.0,100%,20%)">jason.erb</text>
<text x="0.136" y="0.236" font-size="0.004133" fill="hsl(0.0,100%,20%)">jianlin.qiu</text>
<text x="0.042" y="0.347" font-size="0.011691" fill="hsl(0.0,100%,20%)">zhaoming.jiang</text>
<text x="0.623" y="0.371" font-size="0.003375" fill="hsl(0.0,100%,20%)">rafael.cintron</text>
<text x="0.563" y="-0.193" font-size="0.006750" fill="hsl(180.0,100%,20%)">jojwang</text>
<text x="0.103" y="0.794" font-size="0.002386" fill="hsl(180.0,100%,20%)">johnstiles</text>
<text x="1.024" y="0.094" font-size="0.002386" fill="hsl(0.0,100%,20%)">kbr</text>
<text x="0.623" y="0.213" font-size="0.010402" fill="hsl(0.0,100%,20%)">shaobo.yan</text>
<text x="0.420" y="0.923" font-size="0.004773" fill="hsl(0.0,100%,20%)">stha09</text>
<text x="0.607" y="0.286" font-size="0.006314" fill="hsl(0.0,100%,20%)">vollick</text>
<text x="0.342" y="0.142" font-size="0.008929" fill="hsl(0.0,100%,20%)">ynovikov</text>
</svg>
