<svg width="4000" height="2000" viewBox="-0.025 -0.025 2.05 1.05" xmlns="http://www.w3.org/2000/svg">
  <style>
    path {
      fill: none;
      stroke-linecap: round;
      stroke-opacity: 0.4;
    }

    text {
      text-anchor: middle;
      alignment-baseline: hanging;
    }
  </style>
  <g opacity="0.4">
<path d="M0.907 0.395 Q1.058 0.241 0.792 0.134" stroke="hsl(0.0,100%,35%)" stroke-width="0.00060"></path>
<path d="M0.907 0.395 Q0.554 0.238 0.171 0.375" stroke="hsl(0.0,100%,35%)" stroke-width="0.00141"></path>
<path d="M0.907 0.395 Q0.737 0.269 0.455 0.324" stroke="hsl(0.0,100%,35%)" stroke-width="0.00060"></path>
<path d="M0.792 0.134 Q0.289 0.130 0.171 0.375" stroke="hsl(0.0,100%,35%)" stroke-width="0.00443"></path>
<path d="M0.792 0.134 Q0.445 0.664 1.403 0.950" stroke="hsl(0.0,100%,35%)" stroke-width="0.00020"></path>
<path d="M0.792 0.134 Q0.471 0.161 0.455 0.324" stroke="hsl(0.0,100%,35%)" stroke-width="0.00282"></path>
<path d="M0.792 0.134 Q0.772 0.646 1.767 0.769" stroke="hsl(0.0,100%,35%)" stroke-width="0.00020"></path>
<path d="M0.171 0.375 Q0.354 0.406 0.455 0.324" stroke="hsl(0.0,100%,35%)" stroke-width="0.04774"></path>
<path d="M0.171 0.375 Q0.523 0.532 0.907 0.395" stroke="hsl(0.0,100%,35%)" stroke-width="0.00081"></path>
<path d="M0.171 0.375 Q0.274 0.409 0.361 0.366" stroke="hsl(0.0,100%,35%)" stroke-width="0.00040"></path>
<path d="M0.171 0.375 Q0.329 0.311 0.239 0.220" stroke="hsl(0.0,100%,35%)" stroke-width="0.02014"></path>
<path d="M0.171 0.375 Q0.098 0.484 0.294 0.543" stroke="hsl(0.0,100%,35%)" stroke-width="0.00383"></path>
<path d="M0.171 0.375 Q-0.018 0.494 0.173 0.612" stroke="hsl(0.0,100%,35%)" stroke-width="0.00020"></path>
<path d="M0.171 0.375 Q0.519 0.944 1.706 0.899" stroke="hsl(0.0,100%,35%)" stroke-width="0.00383"></path>
<path d="M0.171 0.375 Q0.626 0.476 0.922 0.277" stroke="hsl(0.0,100%,35%)" stroke-width="0.00020"></path>
<path d="M0.171 0.375 Q0.466 0.870 1.496 0.835" stroke="hsl(0.0,100%,35%)" stroke-width="0.00201"></path>
<path d="M0.171 0.375 Q0.328 0.909 1.403 0.950" stroke="hsl(0.0,100%,35%)" stroke-width="0.00121"></path>
<path d="M0.171 0.375 Q0.654 0.891 1.767 0.769" stroke="hsl(0.0,100%,35%)" stroke-width="0.00101"></path>
<path d="M0.171 0.375 Q0.684 0.331 0.710 0.071" stroke="hsl(0.0,100%,35%)" stroke-width="0.00040"></path>
<path d="M0.171 0.375 Q0.050 0.384 0.042 0.445" stroke="hsl(0.0,100%,35%)" stroke-width="0.00020"></path>
<path d="M0.171 0.375 Q0.675 0.379 0.792 0.134" stroke="hsl(0.0,100%,35%)" stroke-width="0.01007"></path>
<path d="M0.171 0.375 Q0.551 0.332 0.551 0.138" stroke="hsl(0.0,100%,35%)" stroke-width="0.00020"></path>
<path d="M0.171 0.375 Q0.425 0.482 0.690 0.381" stroke="hsl(0.0,100%,35%)" stroke-width="0.00020"></path>
<path d="M0.171 0.375 Q0.237 0.434 0.367 0.415" stroke="hsl(0.0,100%,35%)" stroke-width="0.00020"></path>
<path d="M0.171 0.375 Q0.120 0.455 0.264 0.497" stroke="hsl(0.0,100%,35%)" stroke-width="0.00020"></path>
<path d="M0.171 0.375 Q0.483 0.239 0.285 0.056" stroke="hsl(0.0,100%,35%)" stroke-width="0.00020"></path>
<path d="M0.171 0.375 Q0.051 0.389 0.052 0.451" stroke="hsl(0.0,100%,35%)" stroke-width="0.00020"></path>
<path d="M0.171 0.375 Q0.175 0.434 0.291 0.445" stroke="hsl(0.0,100%,35%)" stroke-width="0.00020"></path>
<path d="M0.455 0.324 Q0.272 0.293 0.171 0.375" stroke="hsl(0.0,100%,35%)" stroke-width="0.02478"></path>
<path d="M0.455 0.324 Q0.430 0.229 0.239 0.220" stroke="hsl(0.0,100%,35%)" stroke-width="0.01108"></path>
<path d="M0.455 0.324 Q0.624 0.450 0.907 0.395" stroke="hsl(0.0,100%,35%)" stroke-width="0.00020"></path>
<path d="M0.455 0.324 Q0.620 0.862 1.706 0.899" stroke="hsl(0.0,100%,35%)" stroke-width="0.00363"></path>
<path d="M0.455 0.324 Q0.567 0.788 1.496 0.835" stroke="hsl(0.0,100%,35%)" stroke-width="0.00262"></path>
<path d="M0.455 0.324 Q0.199 0.402 0.294 0.543" stroke="hsl(0.0,100%,35%)" stroke-width="0.00423"></path>
<path d="M0.455 0.324 Q0.775 0.297 0.792 0.134" stroke="hsl(0.0,100%,35%)" stroke-width="0.00624"></path>
<path d="M0.455 0.324 Q0.727 0.394 0.922 0.277" stroke="hsl(0.0,100%,35%)" stroke-width="0.00040"></path>
<path d="M0.455 0.324 Q0.636 0.349 0.724 0.266" stroke="hsl(0.0,100%,35%)" stroke-width="0.00081"></path>
<path d="M0.455 0.324 Q0.591 0.235 0.448 0.149" stroke="hsl(0.0,100%,35%)" stroke-width="0.00020"></path>
<path d="M1.706 0.899 Q1.540 0.361 0.455 0.324" stroke="hsl(180.0,100%,35%)" stroke-width="0.00302"></path>
<path d="M1.706 0.899 Q1.781 0.711 1.431 0.633" stroke="hsl(180.0,100%,35%)" stroke-width="0.00141"></path>
<path d="M1.706 0.899 Q1.652 0.825 1.496 0.835" stroke="hsl(180.0,100%,35%)" stroke-width="0.05137"></path>
<path d="M1.706 0.899 Q1.357 0.330 0.171 0.375" stroke="hsl(180.0,100%,35%)" stroke-width="0.00302"></path>
<path d="M1.706 0.899 Q1.723 0.980 1.886 0.990" stroke="hsl(180.0,100%,35%)" stroke-width="0.00020"></path>
<path d="M1.706 0.899 Q1.841 0.846 1.767 0.769" stroke="hsl(180.0,100%,35%)" stroke-width="0.00222"></path>
<path d="M1.706 0.899 Q1.514 0.864 1.403 0.950" stroke="hsl(180.0,100%,35%)" stroke-width="0.01188"></path>
<path d="M1.706 0.899 Q1.419 0.756 1.077 0.864" stroke="hsl(180.0,100%,35%)" stroke-width="0.00040"></path>
<path d="M1.431 0.633 Q1.302 0.747 1.496 0.835" stroke="hsl(180.0,100%,35%)" stroke-width="0.00363"></path>
<path d="M1.431 0.633 Q1.164 0.786 1.403 0.950" stroke="hsl(180.0,100%,35%)" stroke-width="0.00020"></path>
<path d="M1.431 0.633 Q1.356 0.821 1.706 0.899" stroke="hsl(180.0,100%,35%)" stroke-width="0.00081"></path>
<path d="M1.431 0.633 Q1.190 0.283 0.455 0.324" stroke="hsl(180.0,100%,35%)" stroke-width="0.00020"></path>
<path d="M1.496 0.835 Q1.685 0.856 1.767 0.769" stroke="hsl(180.0,100%,35%)" stroke-width="0.02115"></path>
<path d="M1.496 0.835 Q1.549 0.909 1.706 0.899" stroke="hsl(180.0,100%,35%)" stroke-width="0.00967"></path>
<path d="M1.496 0.835 Q1.384 0.371 0.455 0.324" stroke="hsl(180.0,100%,35%)" stroke-width="0.00101"></path>
<path d="M1.496 0.835 Q1.201 0.340 0.171 0.375" stroke="hsl(180.0,100%,35%)" stroke-width="0.00342"></path>
<path d="M1.496 0.835 Q1.263 0.766 1.077 0.864" stroke="hsl(180.0,100%,35%)" stroke-width="0.01148"></path>
<path d="M1.496 0.835 Q1.358 0.874 1.403 0.950" stroke="hsl(180.0,100%,35%)" stroke-width="0.06305"></path>
<path d="M1.496 0.835 Q1.705 0.344 0.792 0.134" stroke="hsl(180.0,100%,35%)" stroke-width="0.00060"></path>
<path d="M1.496 0.835 Q1.306 0.270 0.162 0.239" stroke="hsl(180.0,100%,35%)" stroke-width="0.00020"></path>
<path d="M1.767 0.769 Q1.578 0.748 1.496 0.835" stroke="hsl(180.0,100%,35%)" stroke-width="0.01551"></path>
<path d="M1.767 0.769 Q1.632 0.822 1.706 0.899" stroke="hsl(180.0,100%,35%)" stroke-width="0.00121"></path>
<path d="M1.767 0.769 Q1.466 0.284 0.455 0.324" stroke="hsl(180.0,100%,35%)" stroke-width="0.00967"></path>
<path d="M1.767 0.769 Q1.440 0.786 1.403 0.950" stroke="hsl(180.0,100%,35%)" stroke-width="0.00282"></path>
<path d="M1.767 0.769 Q1.284 0.253 0.171 0.375" stroke="hsl(180.0,100%,35%)" stroke-width="0.00645"></path>
<path d="M1.767 0.769 Q1.346 0.678 1.077 0.864" stroke="hsl(180.0,100%,35%)" stroke-width="0.00040"></path>
<path d="M1.767 0.769 Q1.787 0.256 0.792 0.134" stroke="hsl(180.0,100%,35%)" stroke-width="0.00121"></path>
<path d="M1.767 0.769 Q1.211 0.361 0.294 0.543" stroke="hsl(180.0,100%,35%)" stroke-width="0.00020"></path>
<path d="M1.403 0.950 Q1.541 0.911 1.496 0.835" stroke="hsl(180.0,100%,35%)" stroke-width="0.04754"></path>
<path d="M1.403 0.950 Q1.595 0.985 1.706 0.899" stroke="hsl(180.0,100%,35%)" stroke-width="0.00765"></path>
<path d="M1.403 0.950 Q1.730 0.932 1.767 0.769" stroke="hsl(180.0,100%,35%)" stroke-width="0.00342"></path>
<path d="M1.403 0.950 Q1.247 0.416 0.171 0.375" stroke="hsl(180.0,100%,35%)" stroke-width="0.00020"></path>
<path d="M1.403 0.950 Q1.309 0.841 1.077 0.864" stroke="hsl(180.0,100%,35%)" stroke-width="0.00121"></path>
<path d="M1.077 0.864 Q1.310 0.933 1.496 0.835" stroke="hsl(180.0,100%,35%)" stroke-width="0.00705"></path>
<path d="M1.077 0.864 Q1.363 1.007 1.706 0.899" stroke="hsl(180.0,100%,35%)" stroke-width="0.00020"></path>
<path d="M1.077 0.864 Q1.172 0.972 1.403 0.950" stroke="hsl(180.0,100%,35%)" stroke-width="0.00342"></path>
<path d="M1.077 0.864 Q1.498 0.954 1.767 0.769" stroke="hsl(180.0,100%,35%)" stroke-width="0.00020"></path>
<path d="M0.690 0.381 Q0.618 0.306 0.455 0.324" stroke="hsl(0.0,100%,35%)" stroke-width="0.00524"></path>
<path d="M0.690 0.381 Q0.890 0.375 0.922 0.277" stroke="hsl(0.0,100%,35%)" stroke-width="0.00161"></path>
<path d="M0.690 0.381 Q0.435 0.275 0.171 0.375" stroke="hsl(0.0,100%,35%)" stroke-width="0.00383"></path>
<path d="M0.690 0.381 Q0.939 0.278 0.792 0.134" stroke="hsl(0.0,100%,35%)" stroke-width="0.00020"></path>
<path d="M0.690 0.381 Q0.688 0.206 0.345 0.168" stroke="hsl(0.0,100%,35%)" stroke-width="0.00020"></path>
<path d="M0.345 0.168 Q0.275 0.268 0.455 0.324" stroke="hsl(0.0,100%,35%)" stroke-width="0.00282"></path>
<path d="M0.345 0.168 Q0.093 0.237 0.171 0.375" stroke="hsl(0.0,100%,35%)" stroke-width="0.00222"></path>
<path d="M0.345 0.168 Q0.547 0.338 0.922 0.277" stroke="hsl(0.0,100%,35%)" stroke-width="0.00081"></path>
<path d="M0.345 0.168 Q0.596 0.241 0.792 0.134" stroke="hsl(0.0,100%,35%)" stroke-width="0.00040"></path>
<path d="M0.724 0.266 Q0.543 0.241 0.455 0.324" stroke="hsl(0.0,100%,35%)" stroke-width="0.00604"></path>
<path d="M0.724 0.266 Q0.360 0.210 0.171 0.375" stroke="hsl(0.0,100%,35%)" stroke-width="0.00564"></path>
<path d="M0.724 0.266 Q0.815 0.311 0.922 0.277" stroke="hsl(0.0,100%,35%)" stroke-width="0.00081"></path>
<path d="M0.724 0.266 Q0.864 0.214 0.792 0.134" stroke="hsl(0.0,100%,35%)" stroke-width="0.00020"></path>
<path d="M0.239 0.220 Q0.264 0.315 0.455 0.324" stroke="hsl(0.0,100%,35%)" stroke-width="0.00866"></path>
<path d="M0.239 0.220 Q0.081 0.284 0.171 0.375" stroke="hsl(0.0,100%,35%)" stroke-width="0.00806"></path>
<path d="M0.294 0.543 Q0.367 0.435 0.171 0.375" stroke="hsl(0.0,100%,35%)" stroke-width="0.01007"></path>
<path d="M0.294 0.543 Q0.621 0.541 0.690 0.381" stroke="hsl(0.0,100%,35%)" stroke-width="0.00020"></path>
<path d="M0.294 0.543 Q0.550 0.466 0.455 0.324" stroke="hsl(0.0,100%,35%)" stroke-width="0.01108"></path>
<path d="M0.294 0.543 Q0.525 0.371 0.239 0.220" stroke="hsl(0.0,100%,35%)" stroke-width="0.00020"></path>
<path d="M0.294 0.543 Q0.731 0.491 0.724 0.266" stroke="hsl(0.0,100%,35%)" stroke-width="0.00040"></path>
<path d="M0.294 0.543 Q0.871 0.438 0.792 0.134" stroke="hsl(0.0,100%,35%)" stroke-width="0.00201"></path>
<path d="M0.294 0.543 Q0.850 0.951 1.767 0.769" stroke="hsl(0.0,100%,35%)" stroke-width="0.00020"></path>
<path d="M0.173 0.612 Q0.362 0.493 0.171 0.375" stroke="hsl(0.0,100%,35%)" stroke-width="0.00463"></path>
<path d="M0.173 0.612 Q0.545 0.525 0.455 0.324" stroke="hsl(0.0,100%,35%)" stroke-width="0.00322"></path>
<path d="M0.173 0.612 Q0.289 0.602 0.294 0.543" stroke="hsl(0.0,100%,35%)" stroke-width="0.00020"></path>
<path d="M0.173 0.612 Q0.845 1.009 1.767 0.769" stroke="hsl(0.0,100%,35%)" stroke-width="0.00020"></path>
<path d="M0.710 0.071 Q0.197 0.115 0.171 0.375" stroke="hsl(0.0,100%,35%)" stroke-width="0.00060"></path>
<path d="M0.710 0.071 Q0.380 0.146 0.455 0.324" stroke="hsl(0.0,100%,35%)" stroke-width="0.00040"></path>
<path d="M0.551 0.138 Q0.466 0.675 1.496 0.835" stroke="hsl(0.0,100%,35%)" stroke-width="0.00242"></path>
<path d="M0.551 0.138 Q0.171 0.180 0.171 0.375" stroke="hsl(0.0,100%,35%)" stroke-width="0.00383"></path>
<path d="M0.551 0.138 Q0.328 0.714 1.403 0.950" stroke="hsl(0.0,100%,35%)" stroke-width="0.00101"></path>
<path d="M0.551 0.138 Q0.354 0.212 0.455 0.324" stroke="hsl(0.0,100%,35%)" stroke-width="0.00363"></path>
<path d="M0.551 0.138 Q0.098 0.289 0.294 0.543" stroke="hsl(0.0,100%,35%)" stroke-width="0.00060"></path>
<path d="M0.367 0.415 Q0.483 0.387 0.455 0.324" stroke="hsl(0.0,100%,35%)" stroke-width="0.00483"></path>
<path d="M0.367 0.415 Q0.804 0.360 0.792 0.134" stroke="hsl(0.0,100%,35%)" stroke-width="0.00161"></path>
<path d="M0.367 0.415 Q0.301 0.356 0.171 0.375" stroke="hsl(0.0,100%,35%)" stroke-width="0.00383"></path>
<path d="M0.285 0.056 Q-0.027 0.193 0.171 0.375" stroke="hsl(0.0,100%,35%)" stroke-width="0.00040"></path>
<path d="M0.285 0.056 Q0.477 0.197 0.792 0.134" stroke="hsl(0.0,100%,35%)" stroke-width="0.00020"></path>
<path d="M0.285 0.056 Q0.156 0.224 0.455 0.324" stroke="hsl(0.0,100%,35%)" stroke-width="0.00060"></path>
<path d="M0.567 0.402 Q0.573 0.340 0.455 0.324" stroke="hsl(0.0,100%,35%)" stroke-width="0.00040"></path>
<path d="M0.567 0.402 Q0.685 0.804 1.496 0.835" stroke="hsl(0.0,100%,35%)" stroke-width="0.00020"></path>
<path d="M0.567 0.402 Q0.391 0.309 0.171 0.375" stroke="hsl(0.0,100%,35%)" stroke-width="0.00081"></path>
<path d="M0.567 0.402 Q0.894 0.313 0.792 0.134" stroke="hsl(0.0,100%,35%)" stroke-width="0.00020"></path>
<path d="M1.093 0.988 Q1.606 1.013 1.767 0.769" stroke="hsl(180.0,100%,35%)" stroke-width="0.00322"></path>
<path d="M1.093 0.988 Q1.471 1.066 1.706 0.899" stroke="hsl(180.0,100%,35%)" stroke-width="0.00020"></path>
<path d="M1.093 0.988 Q1.122 0.497 0.171 0.375" stroke="hsl(180.0,100%,35%)" stroke-width="0.00040"></path>
<path d="M1.093 0.988 Q1.185 0.923 1.077 0.864" stroke="hsl(180.0,100%,35%)" stroke-width="0.00242"></path>
<path d="M1.093 0.988 Q1.279 1.031 1.403 0.950" stroke="hsl(180.0,100%,35%)" stroke-width="0.01188"></path>
<path d="M0.162 0.239 Q0.240 0.340 0.455 0.324" stroke="hsl(0.0,100%,35%)" stroke-width="0.00101"></path>
<path d="M0.162 0.239 Q0.058 0.309 0.171 0.375" stroke="hsl(0.0,100%,35%)" stroke-width="0.00121"></path>
<path d="M0.162 0.239 Q0.352 0.804 1.496 0.835" stroke="hsl(0.0,100%,35%)" stroke-width="0.00101"></path>
<path d="M0.356 0.406 Q0.470 0.385 0.455 0.324" stroke="hsl(0.0,100%,35%)" stroke-width="0.00141"></path>
<path d="M0.356 0.406 Q0.582 0.848 1.496 0.835" stroke="hsl(0.0,100%,35%)" stroke-width="0.00020"></path>
<path d="M0.356 0.406 Q0.651 0.409 0.724 0.266" stroke="hsl(0.0,100%,35%)" stroke-width="0.00121"></path>
<path d="M0.356 0.406 Q0.288 0.354 0.171 0.375" stroke="hsl(0.0,100%,35%)" stroke-width="0.00101"></path>
<path d="M0.356 0.406 Q0.771 0.869 1.767 0.769" stroke="hsl(0.0,100%,35%)" stroke-width="0.00020"></path>
<path d="M0.356 0.406 Q0.742 0.454 0.922 0.277" stroke="hsl(0.0,100%,35%)" stroke-width="0.00040"></path>
<path d="M1.138 0.234 Q0.541 0.111 0.171 0.375" stroke="hsl(0.0,100%,35%)" stroke-width="0.00060"></path>
<path d="M1.138 0.234 Q0.724 0.142 0.455 0.324" stroke="hsl(0.0,100%,35%)" stroke-width="0.00060"></path>
<path d="M1.138 0.234 Q1.045 0.115 0.792 0.134" stroke="hsl(0.0,100%,35%)" stroke-width="0.00040"></path>
<path d="M1.158 0.140 Q0.477 0.060 0.171 0.375" stroke="hsl(0.0,100%,35%)" stroke-width="0.00020"></path>
<path d="M1.158 0.140 Q0.659 0.091 0.455 0.324" stroke="hsl(0.0,100%,35%)" stroke-width="0.00060"></path>
<path d="M1.158 0.140 Q0.980 0.064 0.792 0.134" stroke="hsl(0.0,100%,35%)" stroke-width="0.00040"></path>
<path d="M0.528 0.573 Q0.508 0.403 0.171 0.375" stroke="hsl(0.0,100%,35%)" stroke-width="0.00141"></path>
<path d="M0.528 0.573 Q0.320 0.522 0.173 0.612" stroke="hsl(0.0,100%,35%)" stroke-width="0.00020"></path>
<path d="M0.528 0.573 Q0.435 0.511 0.294 0.543" stroke="hsl(0.0,100%,35%)" stroke-width="0.00081"></path>
<path d="M0.528 0.573 Q0.691 0.434 0.455 0.324" stroke="hsl(0.0,100%,35%)" stroke-width="0.00040"></path>
<path d="M0.528 0.573 Q1.012 0.406 0.792 0.134" stroke="hsl(0.0,100%,35%)" stroke-width="0.00020"></path>
</g>
<text x="0.907" y="0.389" font-size="0.011071" fill="hsl(0.0,100%,20%)">bajones</text>
<text x="0.792" y="0.118" font-size="0.033008" fill="hsl(0.0,100%,20%)">kainino</text>
<text x="0.171" y="0.336" font-size="0.079280" fill="hsl(0.0,100%,20%)">cwallez</text>
<text x="0.455" y="0.286" font-size="0.075856" fill="hsl(0.0,100%,20%)">enga</text>
<text x="1.706" y="0.870" font-size="0.058351" fill="hsl(180.0,100%,20%)">bclayton</text>
<text x="1.431" y="0.626" font-size="0.014529" fill="hsl(180.0,100%,20%)">jrprice</text>
<text x="1.496" y="0.789" font-size="0.090848" fill="hsl(180.0,100%,20%)">dsinclair</text>
<text x="1.886" y="0.988" font-size="0.002610" fill="hsl(180.0,100%,20%)">amaiorano</text>
<text x="1.767" y="0.744" font-size="0.048470" fill="hsl(180.0,100%,20%)">rharrison</text>
<text x="1.403" y="0.913" font-size="0.072553" fill="hsl(180.0,100%,20%)">dneto</text>
<text x="1.077" y="0.849" font-size="0.030095" fill="hsl(180.0,100%,20%)">sarahmashay</text>
<text x="0.690" y="0.371" font-size="0.019702" fill="hsl(0.0,100%,20%)">brandon1.jones</text>
<text x="0.922" y="0.271" font-size="0.011958" fill="hsl(0.0,100%,20%)">rafael.cintron</text>
<text x="0.345" y="0.161" font-size="0.014762" fill="hsl(0.0,100%,20%)">natlee</text>
<text x="0.724" y="0.255" font-size="0.022599" fill="hsl(0.0,100%,20%)">bryan.bernhart</text>
<text x="0.361" y="0.364" font-size="0.003690" fill="hsl(0.0,100%,20%)">penghuang</text>
<text x="0.239" y="0.200" font-size="0.040342" fill="hsl(0.0,100%,20%)">senorblanco</text>
<text x="0.294" y="0.526" font-size="0.033924" fill="hsl(0.0,100%,20%)">jiawei.shao</text>
<text x="0.173" y="0.604" font-size="0.017112" fill="hsl(0.0,100%,20%)">hao.x.li</text>
<text x="0.710" y="0.067" font-size="0.006904" fill="hsl(0.0,100%,20%)">shaobo.yan</text>
<text x="0.042" y="0.444" font-size="0.002610" fill="hsl(0.0,100%,20%)">johnstiles</text>
<text x="0.551" y="0.128" font-size="0.019874" fill="hsl(0.0,100%,20%)">tommek</text>
<text x="0.367" y="0.406" font-size="0.018818" fill="hsl(0.0,100%,20%)">yunchao.he</text>
<text x="0.264" y="0.496" font-size="0.002610" fill="hsl(0.0,100%,20%)">sque</text>
<text x="0.285" y="0.053" font-size="0.006904" fill="hsl(0.0,100%,20%)">zmo</text>
<text x="0.052" y="0.450" font-size="0.002610" fill="hsl(0.0,100%,20%)">thakis</text>
<text x="0.291" y="0.444" font-size="0.002610" fill="hsl(0.0,100%,20%)">digit</text>
<text x="0.567" y="0.398" font-size="0.007381" fill="hsl(0.0,100%,20%)">cwoffenden</text>
<text x="1.093" y="0.976" font-size="0.024756" fill="hsl(180.0,100%,20%)">dj2</text>
<text x="0.162" y="0.234" font-size="0.010759" fill="hsl(0.0,100%,20%)">idanr</text>
<text x="0.448" y="0.148" font-size="0.002610" fill="hsl(0.0,100%,20%)">mtklein</text>
<text x="0.356" y="0.400" font-size="0.012240" fill="hsl(0.0,100%,20%)">enrico.galli</text>
<text x="1.138" y="0.230" font-size="0.007381" fill="hsl(0.0,100%,20%)">jiajie.hu</text>
<text x="1.158" y="0.137" font-size="0.006392" fill="hsl(0.0,100%,20%)">shrekshao</text>
<text x="0.528" y="0.568" font-size="0.010107" fill="hsl(0.0,100%,20%)">xinghua.cao</text>
</svg>
