<svg width="4000" height="2000" viewBox="-0.025 -0.025 2.05 1.05" xmlns="http://www.w3.org/2000/svg">
  <style>
    path {
      fill: none;
      stroke-linecap: round;
      stroke-opacity: 0.4;
    }

    text {
      text-anchor: middle;
      alignment-baseline: hanging;
    }
  </style>
  <g opacity="0.4">
<path d="M0.298 0.880 Q0.688 0.922 0.857 0.742" stroke="hsl(0.0,100%,35%)" stroke-width="0.00622"></path>
<path d="M0.298 0.880 Q0.381 0.794 0.232 0.734" stroke="hsl(0.0,100%,35%)" stroke-width="0.03730"></path>
<path d="M0.298 0.880 Q0.524 1.053 0.912 0.981" stroke="hsl(0.0,100%,35%)" stroke-width="0.04352"></path>
<path d="M0.298 0.880 Q0.640 0.834 0.626 0.657" stroke="hsl(0.0,100%,35%)" stroke-width="0.01865"></path>
<path d="M0.298 0.880 Q0.649 0.659 0.295 0.439" stroke="hsl(0.0,100%,35%)" stroke-width="0.00622"></path>
<path d="M0.298 0.880 Q1.187 0.728 1.086 0.261" stroke="hsl(0.0,100%,35%)" stroke-width="0.03730"></path>
<path d="M0.298 0.880 Q0.605 0.936 0.783 0.799" stroke="hsl(0.0,100%,35%)" stroke-width="0.01243"></path>
<path d="M0.857 0.742 Q0.467 0.699 0.298 0.880" stroke="hsl(0.0,100%,35%)" stroke-width="0.00622"></path>
<path d="M0.857 0.742 Q0.693 0.872 0.912 0.981" stroke="hsl(0.0,100%,35%)" stroke-width="0.01243"></path>
<path d="M0.857 0.742 Q1.357 0.547 1.086 0.261" stroke="hsl(0.0,100%,35%)" stroke-width="0.00622"></path>
<path d="M0.857 0.742 Q0.551 0.613 0.232 0.734" stroke="hsl(0.0,100%,35%)" stroke-width="0.00622"></path>
<path d="M0.857 0.742 Q0.608 0.765 0.599 0.892" stroke="hsl(0.0,100%,35%)" stroke-width="0.00622"></path>
<path d="M0.232 0.734 Q1.354 0.683 1.500 0.124" stroke="hsl(0.0,100%,35%)" stroke-width="0.01865"></path>
<path d="M0.232 0.734 Q1.038 0.668 1.086 0.261" stroke="hsl(0.0,100%,35%)" stroke-width="0.03730"></path>
<path d="M0.232 0.734 Q0.289 0.886 0.599 0.892" stroke="hsl(0.0,100%,35%)" stroke-width="0.00622"></path>
<path d="M0.232 0.734 Q0.149 0.820 0.298 0.880" stroke="hsl(0.0,100%,35%)" stroke-width="0.01243"></path>
<path d="M0.232 0.734 Q0.568 0.685 0.546 0.511" stroke="hsl(0.0,100%,35%)" stroke-width="0.00622"></path>
<path d="M0.232 0.734 Q1.059 0.800 1.369 0.411" stroke="hsl(0.0,100%,35%)" stroke-width="0.00622"></path>
<path d="M1.500 0.124 Q1.184 0.109 1.086 0.261" stroke="hsl(0.0,100%,35%)" stroke-width="0.03730"></path>
<path d="M1.500 0.124 Q0.378 0.175 0.232 0.734" stroke="hsl(0.0,100%,35%)" stroke-width="0.01243"></path>
<path d="M1.500 0.124 Q1.205 0.241 1.369 0.411" stroke="hsl(0.0,100%,35%)" stroke-width="0.01243"></path>
<path d="M1.500 0.124 Q1.469 0.202 1.616 0.235" stroke="hsl(0.0,100%,35%)" stroke-width="0.00622"></path>
<path d="M1.500 0.124 Q0.294 0.261 0.298 0.880" stroke="hsl(0.0,100%,35%)" stroke-width="0.00622"></path>
</g>
<text x="0.298" y="0.829" font-size="0.101710" fill="hsl(0.0,100%,20%)">bclayton</text>
<text x="0.857" y="0.717" font-size="0.049130" fill="hsl(0.0,100%,20%)">dsinclair</text>
<text x="0.232" y="0.690" font-size="0.089056" fill="hsl(0.0,100%,20%)">cwallez</text>
<text x="0.912" y="0.953" font-size="0.055709" fill="hsl(0.0,100%,20%)">amaiorano</text>
<text x="0.626" y="0.641" font-size="0.032163" fill="hsl(0.0,100%,20%)">dneto</text>
<text x="0.295" y="0.430" font-size="0.018570" fill="hsl(0.0,100%,20%)">bajones</text>
<text x="1.086" y="0.220" font-size="0.080943" fill="hsl(0.0,100%,20%)">enga</text>
<text x="0.783" y="0.786" font-size="0.026261" fill="hsl(0.0,100%,20%)">jrprice</text>
<text x="1.500" y="0.088" font-size="0.071919" fill="hsl(0.0,100%,20%)">lokokung</text>
<text x="0.599" y="0.879" font-size="0.026261" fill="hsl(0.0,100%,20%)">rharrison</text>
<text x="0.546" y="0.501" font-size="0.018570" fill="hsl(0.0,100%,20%)">blundell</text>
<text x="1.369" y="0.395" font-size="0.032163" fill="hsl(0.0,100%,20%)">kainino</text>
<text x="1.616" y="0.225" font-size="0.018570" fill="hsl(0.0,100%,20%)">shrekshao</text>
</svg>
