<svg width="4000" height="2000" viewBox="-0.025 -0.025 2.05 1.05" xmlns="http://www.w3.org/2000/svg">
  <style>
    path {
      fill: none;
      stroke-linecap: round;
      stroke-opacity: 0.4;
    }

    text {
      text-anchor: middle;
      alignment-baseline: hanging;
    }
  </style>
  <g opacity="0.4">
<path d="M0.993 0.743 Q1.010 0.514 0.568 0.456" stroke="hsl(0.0,100%,35%)" stroke-width="0.00078"></path>
<path d="M0.993 0.743 Q1.884 0.645 1.889 0.188" stroke="hsl(0.0,100%,35%)" stroke-width="0.00039"></path>
<path d="M0.993 0.743 Q1.251 0.664 1.154 0.521" stroke="hsl(0.0,100%,35%)" stroke-width="0.00039"></path>
<path d="M0.568 0.456 Q1.224 0.560 1.572 0.263" stroke="hsl(0.0,100%,35%)" stroke-width="0.01058"></path>
<path d="M0.568 0.456 Q0.809 0.606 1.154 0.521" stroke="hsl(0.0,100%,35%)" stroke-width="0.02429"></path>
<path d="M0.568 0.456 Q0.722 0.663 1.160 0.634" stroke="hsl(0.0,100%,35%)" stroke-width="0.01293"></path>
<path d="M0.568 0.456 Q0.169 0.562 0.289 0.780" stroke="hsl(0.0,100%,35%)" stroke-width="0.00118"></path>
<path d="M0.568 0.456 Q0.493 0.586 0.729 0.651" stroke="hsl(0.0,100%,35%)" stroke-width="0.00039"></path>
<path d="M0.568 0.456 Q0.665 0.578 0.924 0.557" stroke="hsl(0.0,100%,35%)" stroke-width="0.00118"></path>
<path d="M0.568 0.456 Q0.587 0.551 0.778 0.563" stroke="hsl(0.0,100%,35%)" stroke-width="0.00118"></path>
<path d="M0.568 0.456 Q0.816 0.317 0.599 0.165" stroke="hsl(0.0,100%,35%)" stroke-width="0.00039"></path>
<path d="M0.568 0.456 Q0.736 0.720 1.289 0.696" stroke="hsl(0.0,100%,35%)" stroke-width="0.00039"></path>
<path d="M0.568 0.456 Q1.477 0.504 1.770 0.071" stroke="hsl(0.0,100%,35%)" stroke-width="0.00039"></path>
<path d="M0.568 0.456 Q1.442 0.586 1.889 0.188" stroke="hsl(0.0,100%,35%)" stroke-width="0.00078"></path>
<path d="M0.568 0.456 Q0.752 0.443 0.766 0.350" stroke="hsl(0.0,100%,35%)" stroke-width="0.00039"></path>
<path d="M0.568 0.456 Q0.382 0.499 0.425 0.599" stroke="hsl(0.0,100%,35%)" stroke-width="0.00039"></path>
<path d="M1.889 0.188 Q1.670 0.162 1.572 0.263" stroke="hsl(180.0,100%,35%)" stroke-width="0.04153"></path>
<path d="M1.889 0.188 Q1.732 0.070 1.468 0.121" stroke="hsl(180.0,100%,35%)" stroke-width="0.01998"></path>
<path d="M1.889 0.188 Q1.596 0.028 1.218 0.135" stroke="hsl(180.0,100%,35%)" stroke-width="0.00039"></path>
<path d="M1.889 0.188 Q1.923 0.106 1.770 0.071" stroke="hsl(180.0,100%,35%)" stroke-width="0.00235"></path>
<path d="M1.889 0.188 Q0.615 0.164 0.289 0.780" stroke="hsl(180.0,100%,35%)" stroke-width="0.00078"></path>
<path d="M1.889 0.188 Q1.255 0.208 1.154 0.521" stroke="hsl(180.0,100%,35%)" stroke-width="0.00157"></path>
<path d="M1.889 0.188 Q1.014 0.058 0.568 0.456" stroke="hsl(180.0,100%,35%)" stroke-width="0.00196"></path>
<path d="M1.889 0.188 Q0.939 0.188 0.729 0.651" stroke="hsl(180.0,100%,35%)" stroke-width="0.00039"></path>
<path d="M1.889 0.188 Q1.724 0.250 1.809 0.344" stroke="hsl(180.0,100%,35%)" stroke-width="0.00039"></path>
<path d="M1.154 0.521 Q1.623 0.564 1.809 0.344" stroke="hsl(0.0,100%,35%)" stroke-width="0.00118"></path>
<path d="M1.154 0.521 Q1.067 0.579 1.160 0.634" stroke="hsl(0.0,100%,35%)" stroke-width="0.01293"></path>
<path d="M1.154 0.521 Q0.838 0.501 0.729 0.651" stroke="hsl(0.0,100%,35%)" stroke-width="0.00118"></path>
<path d="M1.154 0.521 Q0.515 0.477 0.289 0.780" stroke="hsl(0.0,100%,35%)" stroke-width="0.00470"></path>
<path d="M1.154 0.521 Q1.631 0.384 1.468 0.121" stroke="hsl(0.0,100%,35%)" stroke-width="0.00118"></path>
<path d="M1.154 0.521 Q0.913 0.371 0.568 0.456" stroke="hsl(0.0,100%,35%)" stroke-width="0.00744"></path>
<path d="M1.154 0.521 Q0.654 0.376 0.260 0.588" stroke="hsl(0.0,100%,35%)" stroke-width="0.00039"></path>
<path d="M1.154 0.521 Q1.010 0.493 0.924 0.557" stroke="hsl(0.0,100%,35%)" stroke-width="0.00196"></path>
<path d="M1.154 0.521 Q1.569 0.476 1.572 0.263" stroke="hsl(0.0,100%,35%)" stroke-width="0.00274"></path>
<path d="M1.154 0.521 Q0.786 0.647 0.950 0.854" stroke="hsl(0.0,100%,35%)" stroke-width="0.00039"></path>
<path d="M1.154 0.521 Q0.933 0.467 0.778 0.563" stroke="hsl(0.0,100%,35%)" stroke-width="0.00118"></path>
<path d="M1.154 0.521 Q1.082 0.636 1.289 0.696" stroke="hsl(0.0,100%,35%)" stroke-width="0.00078"></path>
<path d="M1.154 0.521 Q1.822 0.419 1.770 0.071" stroke="hsl(0.0,100%,35%)" stroke-width="0.00196"></path>
<path d="M1.154 0.521 Q1.788 0.502 1.889 0.188" stroke="hsl(0.0,100%,35%)" stroke-width="0.00118"></path>
<path d="M1.154 0.521 Q1.094 0.410 0.863 0.414" stroke="hsl(0.0,100%,35%)" stroke-width="0.00078"></path>
<path d="M1.154 0.521 Q1.098 0.324 0.702 0.308" stroke="hsl(0.0,100%,35%)" stroke-width="0.00039"></path>
<path d="M1.770 0.071 Q1.102 0.173 1.154 0.521" stroke="hsl(180.0,100%,35%)" stroke-width="0.00744"></path>
<path d="M1.770 0.071 Q0.861 0.023 0.568 0.456" stroke="hsl(180.0,100%,35%)" stroke-width="0.00196"></path>
<path d="M1.770 0.071 Q1.736 0.153 1.889 0.188" stroke="hsl(180.0,100%,35%)" stroke-width="0.00313"></path>
<path d="M1.770 0.071 Q1.517 0.128 1.572 0.263" stroke="hsl(180.0,100%,35%)" stroke-width="0.00784"></path>
<path d="M1.770 0.071 Q1.579 0.036 1.468 0.121" stroke="hsl(180.0,100%,35%)" stroke-width="0.00078"></path>
<path d="M1.770 0.071 Q0.462 0.129 0.289 0.780" stroke="hsl(180.0,100%,35%)" stroke-width="0.00078"></path>
<path d="M1.572 0.263 Q1.790 0.289 1.889 0.188" stroke="hsl(180.0,100%,35%)" stroke-width="0.04662"></path>
<path d="M1.572 0.263 Q1.634 0.171 1.468 0.121" stroke="hsl(180.0,100%,35%)" stroke-width="0.06073"></path>
<path d="M1.572 0.263 Q1.157 0.309 1.154 0.521" stroke="hsl(180.0,100%,35%)" stroke-width="0.00901"></path>
<path d="M1.572 0.263 Q1.825 0.207 1.770 0.071" stroke="hsl(180.0,100%,35%)" stroke-width="0.01528"></path>
<path d="M1.572 0.263 Q1.626 0.351 1.809 0.344" stroke="hsl(180.0,100%,35%)" stroke-width="0.00118"></path>
<path d="M1.572 0.263 Q0.916 0.159 0.568 0.456" stroke="hsl(180.0,100%,35%)" stroke-width="0.01371"></path>
<path d="M1.572 0.263 Q1.757 0.215 1.703 0.114" stroke="hsl(180.0,100%,35%)" stroke-width="0.00039"></path>
<path d="M1.572 0.263 Q0.841 0.289 0.729 0.651" stroke="hsl(180.0,100%,35%)" stroke-width="0.00039"></path>
<path d="M1.572 0.263 Q1.498 0.129 1.218 0.135" stroke="hsl(180.0,100%,35%)" stroke-width="0.00039"></path>
<path d="M1.572 0.263 Q1.013 0.281 0.924 0.557" stroke="hsl(180.0,100%,35%)" stroke-width="0.00039"></path>
<path d="M1.572 0.263 Q0.517 0.265 0.289 0.780" stroke="hsl(180.0,100%,35%)" stroke-width="0.00039"></path>
<path d="M1.572 0.263 Q1.400 0.224 1.285 0.299" stroke="hsl(180.0,100%,35%)" stroke-width="0.00039"></path>
<path d="M1.468 0.121 Q1.406 0.213 1.572 0.263" stroke="hsl(180.0,100%,35%)" stroke-width="0.04623"></path>
<path d="M1.468 0.121 Q1.310 -0.002 1.036 0.048" stroke="hsl(180.0,100%,35%)" stroke-width="0.00039"></path>
<path d="M1.468 0.121 Q1.624 0.239 1.889 0.188" stroke="hsl(180.0,100%,35%)" stroke-width="0.02194"></path>
<path d="M1.468 0.121 Q1.332 0.078 1.218 0.135" stroke="hsl(180.0,100%,35%)" stroke-width="0.00549"></path>
<path d="M1.468 0.121 Q0.991 0.258 1.154 0.521" stroke="hsl(180.0,100%,35%)" stroke-width="0.00196"></path>
<path d="M1.468 0.121 Q0.750 0.108 0.568 0.456" stroke="hsl(180.0,100%,35%)" stroke-width="0.00157"></path>
<path d="M1.468 0.121 Q0.931 0.147 0.863 0.414" stroke="hsl(180.0,100%,35%)" stroke-width="0.00039"></path>
<path d="M1.468 0.121 Q0.847 0.230 0.924 0.557" stroke="hsl(180.0,100%,35%)" stroke-width="0.00118"></path>
<path d="M1.468 0.121 Q1.659 0.157 1.770 0.071" stroke="hsl(180.0,100%,35%)" stroke-width="0.00078"></path>
<path d="M0.289 0.780 Q0.928 0.824 1.154 0.521" stroke="hsl(0.0,100%,35%)" stroke-width="0.00353"></path>
<path d="M0.289 0.780 Q0.841 0.881 1.160 0.634" stroke="hsl(0.0,100%,35%)" stroke-width="0.00196"></path>
<path d="M0.289 0.780 Q0.560 0.949 0.950 0.854" stroke="hsl(0.0,100%,35%)" stroke-width="0.00039"></path>
<path d="M0.289 0.780 Q0.687 0.674 0.568 0.456" stroke="hsl(0.0,100%,35%)" stroke-width="0.00157"></path>
<path d="M0.289 0.780 Q0.872 0.627 0.702 0.308" stroke="hsl(0.0,100%,35%)" stroke-width="0.00039"></path>
<path d="M0.276 0.376 Q0.358 0.474 0.568 0.456" stroke="hsl(0.0,100%,35%)" stroke-width="0.00078"></path>
<path d="M0.276 0.376 Q1.014 0.579 1.572 0.263" stroke="hsl(0.0,100%,35%)" stroke-width="0.00078"></path>
<path d="M0.091 0.778 Q0.587 0.712 0.568 0.456" stroke="hsl(0.0,100%,35%)" stroke-width="0.00078"></path>
<path d="M0.091 0.778 Q0.189 0.818 0.289 0.780" stroke="hsl(0.0,100%,35%)" stroke-width="0.00078"></path>
<path d="M0.091 0.778 Q0.460 0.988 0.950 0.854" stroke="hsl(0.0,100%,35%)" stroke-width="0.00039"></path>
<path d="M0.091 0.778 Q0.741 0.920 1.160 0.634" stroke="hsl(0.0,100%,35%)" stroke-width="0.00039"></path>
<path d="M0.091 0.778 Q1.243 0.817 1.572 0.263" stroke="hsl(0.0,100%,35%)" stroke-width="0.00039"></path>
<path d="M0.091 0.778 Q0.829 0.862 1.154 0.521" stroke="hsl(0.0,100%,35%)" stroke-width="0.00039"></path>
<path d="M0.950 0.854 Q1.733 0.683 1.572 0.263" stroke="hsl(0.0,100%,35%)" stroke-width="0.00157"></path>
<path d="M0.950 0.854 Q1.002 0.708 0.729 0.651" stroke="hsl(0.0,100%,35%)" stroke-width="0.00431"></path>
<path d="M0.950 0.854 Q1.318 0.728 1.154 0.521" stroke="hsl(0.0,100%,35%)" stroke-width="0.00823"></path>
<path d="M0.950 0.854 Q1.077 0.578 0.568 0.456" stroke="hsl(0.0,100%,35%)" stroke-width="0.00039"></path>
<path d="M0.950 0.854 Q1.231 0.786 1.160 0.634" stroke="hsl(0.0,100%,35%)" stroke-width="0.00078"></path>
<path d="M0.950 0.854 Q1.952 0.709 1.889 0.188" stroke="hsl(0.0,100%,35%)" stroke-width="0.00039"></path>
<path d="M0.950 0.854 Q0.679 0.684 0.289 0.780" stroke="hsl(0.0,100%,35%)" stroke-width="0.00039"></path>
<path d="M0.950 0.854 Q1.174 0.700 0.924 0.557" stroke="hsl(0.0,100%,35%)" stroke-width="0.00039"></path>
<path d="M0.950 0.854 Q1.795 0.591 1.468 0.121" stroke="hsl(0.0,100%,35%)" stroke-width="0.00039"></path>
<path d="M1.160 0.634 Q1.247 0.576 1.154 0.521" stroke="hsl(0.0,100%,35%)" stroke-width="0.01881"></path>
<path d="M1.160 0.634 Q0.608 0.532 0.289 0.780" stroke="hsl(0.0,100%,35%)" stroke-width="0.00235"></path>
<path d="M1.160 0.634 Q1.006 0.426 0.568 0.456" stroke="hsl(0.0,100%,35%)" stroke-width="0.00862"></path>
<path d="M1.160 0.634 Q1.103 0.548 0.924 0.557" stroke="hsl(0.0,100%,35%)" stroke-width="0.00196"></path>
<path d="M1.160 0.634 Q0.879 0.702 0.950 0.854" stroke="hsl(0.0,100%,35%)" stroke-width="0.00078"></path>
<path d="M1.160 0.634 Q1.915 0.474 1.770 0.071" stroke="hsl(0.0,100%,35%)" stroke-width="0.00039"></path>
<path d="M1.160 0.634 Q1.214 0.748 1.449 0.747" stroke="hsl(0.0,100%,35%)" stroke-width="0.00039"></path>
<path d="M1.160 0.634 Q1.662 0.531 1.572 0.263" stroke="hsl(0.0,100%,35%)" stroke-width="0.00039"></path>
<path d="M1.160 0.634 Q1.187 0.465 0.863 0.414" stroke="hsl(0.0,100%,35%)" stroke-width="0.00039"></path>
<path d="M0.710 0.668 Q1.050 0.684 1.154 0.521" stroke="hsl(0.0,100%,35%)" stroke-width="0.00078"></path>
<path d="M0.710 0.668 Q0.809 0.534 0.568 0.456" stroke="hsl(0.0,100%,35%)" stroke-width="0.00039"></path>
<path d="M0.710 0.668 Q0.906 0.656 0.924 0.557" stroke="hsl(0.0,100%,35%)" stroke-width="0.00039"></path>
<path d="M0.924 0.557 Q1.068 0.585 1.154 0.521" stroke="hsl(0.0,100%,35%)" stroke-width="0.00509"></path>
<path d="M0.924 0.557 Q0.428 0.541 0.289 0.780" stroke="hsl(0.0,100%,35%)" stroke-width="0.00313"></path>
<path d="M0.924 0.557 Q0.827 0.435 0.568 0.456" stroke="hsl(0.0,100%,35%)" stroke-width="0.00039"></path>
<path d="M0.924 0.557 Q1.736 0.484 1.770 0.071" stroke="hsl(0.0,100%,35%)" stroke-width="0.00039"></path>
<path d="M0.924 0.557 Q1.409 0.405 1.218 0.135" stroke="hsl(0.0,100%,35%)" stroke-width="0.00039"></path>
<path d="M0.924 0.557 Q0.981 0.643 1.160 0.634" stroke="hsl(0.0,100%,35%)" stroke-width="0.00078"></path>
<path d="M1.218 0.135 Q1.292 0.270 1.572 0.263" stroke="hsl(180.0,100%,35%)" stroke-width="0.00470"></path>
<path d="M1.218 0.135 Q0.636 0.165 0.568 0.456" stroke="hsl(180.0,100%,35%)" stroke-width="0.00078"></path>
<path d="M1.218 0.135 Q1.354 0.178 1.468 0.121" stroke="hsl(180.0,100%,35%)" stroke-width="0.00353"></path>
<path d="M1.218 0.135 Q0.733 0.287 0.924 0.557" stroke="hsl(180.0,100%,35%)" stroke-width="0.00039"></path>
<path d="M1.218 0.135 Q1.511 0.296 1.889 0.188" stroke="hsl(180.0,100%,35%)" stroke-width="0.00157"></path>
<path d="M1.218 0.135 Q0.877 0.315 1.154 0.521" stroke="hsl(180.0,100%,35%)" stroke-width="0.00039"></path>
<path d="M1.218 0.135 Q1.197 0.055 1.036 0.048" stroke="hsl(180.0,100%,35%)" stroke-width="0.00078"></path>
<path d="M1.218 0.135 Q1.545 0.214 1.770 0.071" stroke="hsl(180.0,100%,35%)" stroke-width="0.00039"></path>
<path d="M1.809 0.344 Q1.755 0.256 1.572 0.263" stroke="hsl(180.0,100%,35%)" stroke-width="0.00118"></path>
<path d="M1.809 0.344 Q1.340 0.302 1.154 0.521" stroke="hsl(180.0,100%,35%)" stroke-width="0.00196"></path>
<path d="M1.809 0.344 Q2.008 0.200 1.770 0.071" stroke="hsl(180.0,100%,35%)" stroke-width="0.00039"></path>
<path d="M1.809 0.344 Q1.974 0.282 1.889 0.188" stroke="hsl(180.0,100%,35%)" stroke-width="0.00196"></path>
<path d="M1.809 0.344 Q1.817 0.164 1.468 0.121" stroke="hsl(180.0,100%,35%)" stroke-width="0.00039"></path>
<path d="M0.729 0.651 Q1.046 0.671 1.154 0.521" stroke="hsl(0.0,100%,35%)" stroke-width="0.00666"></path>
<path d="M0.729 0.651 Q0.958 0.729 1.160 0.634" stroke="hsl(0.0,100%,35%)" stroke-width="0.00078"></path>
<path d="M0.729 0.651 Q1.679 0.651 1.889 0.188" stroke="hsl(0.0,100%,35%)" stroke-width="0.00118"></path>
<path d="M0.729 0.651 Q0.406 0.627 0.289 0.780" stroke="hsl(0.0,100%,35%)" stroke-width="0.00039"></path>
<path d="M0.729 0.651 Q0.805 0.521 0.568 0.456" stroke="hsl(0.0,100%,35%)" stroke-width="0.00039"></path>
<path d="M0.729 0.651 Q1.461 0.626 1.572 0.263" stroke="hsl(0.0,100%,35%)" stroke-width="0.00235"></path>
<path d="M0.729 0.651 Q0.985 0.559 0.863 0.414" stroke="hsl(0.0,100%,35%)" stroke-width="0.00078"></path>
<path d="M0.729 0.651 Q0.677 0.797 0.950 0.854" stroke="hsl(0.0,100%,35%)" stroke-width="0.00039"></path>
<path d="M0.729 0.651 Q0.901 0.643 0.924 0.557" stroke="hsl(0.0,100%,35%)" stroke-width="0.00039"></path>
<path d="M0.450 0.663 Q0.674 0.583 0.568 0.456" stroke="hsl(0.0,100%,35%)" stroke-width="0.00666"></path>
<path d="M0.450 0.663 Q0.828 0.790 1.160 0.634" stroke="hsl(0.0,100%,35%)" stroke-width="0.00118"></path>
<path d="M0.450 0.663 Q0.915 0.733 1.154 0.521" stroke="hsl(0.0,100%,35%)" stroke-width="0.00235"></path>
<path d="M0.450 0.663 Q0.275 0.689 0.289 0.780" stroke="hsl(0.0,100%,35%)" stroke-width="0.00078"></path>
<path d="M1.231 0.348 Q0.813 0.269 0.568 0.456" stroke="hsl(180.0,100%,35%)" stroke-width="0.00078"></path>
<path d="M1.231 0.348 Q1.054 0.419 1.154 0.521" stroke="hsl(180.0,100%,35%)" stroke-width="0.00078"></path>
<path d="M1.231 0.348 Q1.469 0.374 1.572 0.263" stroke="hsl(180.0,100%,35%)" stroke-width="0.00196"></path>
<path d="M1.231 0.348 Q1.531 0.282 1.468 0.121" stroke="hsl(180.0,100%,35%)" stroke-width="0.00039"></path>
<path d="M0.778 0.563 Q1.000 0.617 1.154 0.521" stroke="hsl(0.0,100%,35%)" stroke-width="0.00353"></path>
<path d="M0.778 0.563 Q0.927 0.732 1.289 0.696" stroke="hsl(0.0,100%,35%)" stroke-width="0.00039"></path>
<path d="M0.778 0.563 Q0.759 0.467 0.568 0.456" stroke="hsl(0.0,100%,35%)" stroke-width="0.00196"></path>
<path d="M1.289 0.696 Q1.362 0.582 1.154 0.521" stroke="hsl(0.0,100%,35%)" stroke-width="0.00666"></path>
<path d="M1.289 0.696 Q1.121 0.432 0.568 0.456" stroke="hsl(0.0,100%,35%)" stroke-width="0.00313"></path>
<path d="M1.289 0.696 Q1.274 0.639 1.160 0.634" stroke="hsl(0.0,100%,35%)" stroke-width="0.00039"></path>
<path d="M0.525 0.538 Q0.612 0.505 0.568 0.456" stroke="hsl(0.0,100%,35%)" stroke-width="0.00039"></path>
<path d="M0.525 0.538 Q0.853 0.655 1.154 0.521" stroke="hsl(0.0,100%,35%)" stroke-width="0.00039"></path>
<path d="M0.525 0.538 Q1.268 0.610 1.572 0.263" stroke="hsl(0.0,100%,35%)" stroke-width="0.00039"></path>
<path d="M0.863 0.414 Q0.923 0.526 1.154 0.521" stroke="hsl(0.0,100%,35%)" stroke-width="0.00509"></path>
<path d="M0.863 0.414 Q0.836 0.584 1.160 0.634" stroke="hsl(0.0,100%,35%)" stroke-width="0.00196"></path>
<path d="M0.863 0.414 Q0.607 0.506 0.729 0.651" stroke="hsl(0.0,100%,35%)" stroke-width="0.00078"></path>
<path d="M0.863 0.414 Q0.284 0.482 0.289 0.780" stroke="hsl(0.0,100%,35%)" stroke-width="0.00039"></path>
<path d="M0.863 0.414 Q0.779 0.498 0.924 0.557" stroke="hsl(0.0,100%,35%)" stroke-width="0.00078"></path>
<path d="M0.863 0.414 Q1.591 0.424 1.770 0.071" stroke="hsl(0.0,100%,35%)" stroke-width="0.00078"></path>
<path d="M0.863 0.414 Q0.682 0.376 0.568 0.456" stroke="hsl(0.0,100%,35%)" stroke-width="0.00039"></path>
<path d="M0.863 0.414 Q1.338 0.481 1.572 0.263" stroke="hsl(0.0,100%,35%)" stroke-width="0.00157"></path>
<path d="M0.702 0.308 Q0.517 0.355 0.568 0.456" stroke="hsl(0.0,100%,35%)" stroke-width="0.02272"></path>
<path d="M0.702 0.308 Q0.758 0.505 1.154 0.521" stroke="hsl(0.0,100%,35%)" stroke-width="0.01881"></path>
<path d="M0.702 0.308 Q0.486 0.547 0.904 0.705" stroke="hsl(0.0,100%,35%)" stroke-width="0.00039"></path>
<path d="M0.702 0.308 Q0.118 0.461 0.289 0.780" stroke="hsl(0.0,100%,35%)" stroke-width="0.00039"></path>
<path d="M0.702 0.308 Q1.173 0.460 1.572 0.263" stroke="hsl(0.0,100%,35%)" stroke-width="0.00431"></path>
<path d="M0.702 0.308 Q1.235 0.368 1.468 0.121" stroke="hsl(0.0,100%,35%)" stroke-width="0.00039"></path>
<path d="M0.702 0.308 Q0.685 0.620 1.289 0.696" stroke="hsl(0.0,100%,35%)" stroke-width="0.00196"></path>
<path d="M0.702 0.308 Q1.391 0.486 1.889 0.188" stroke="hsl(0.0,100%,35%)" stroke-width="0.00039"></path>
<path d="M0.702 0.308 Q0.367 0.312 0.300 0.476" stroke="hsl(0.0,100%,35%)" stroke-width="0.00039"></path>
<path d="M0.702 0.308 Q1.099 0.325 1.218 0.135" stroke="hsl(0.0,100%,35%)" stroke-width="0.00196"></path>
<path d="M0.904 0.268 Q1.241 0.399 1.572 0.263" stroke="hsl(0.0,100%,35%)" stroke-width="0.00039"></path>
<path d="M0.904 0.268 Q0.585 0.295 0.568 0.456" stroke="hsl(0.0,100%,35%)" stroke-width="0.00353"></path>
<path d="M0.904 0.268 Q0.826 0.445 1.154 0.521" stroke="hsl(0.0,100%,35%)" stroke-width="0.00392"></path>
<path d="M0.747 0.953 Q0.606 0.898 0.469 0.955" stroke="hsl(0.0,100%,35%)" stroke-width="0.00078"></path>
<path d="M0.747 0.953 Q1.055 0.668 0.568 0.456" stroke="hsl(0.0,100%,35%)" stroke-width="0.00157"></path>
<path d="M0.747 0.953 Q1.296 0.818 1.154 0.521" stroke="hsl(0.0,100%,35%)" stroke-width="0.00118"></path>
<path d="M1.633 0.384 Q1.760 0.219 1.468 0.121" stroke="hsl(180.0,100%,35%)" stroke-width="0.00039"></path>
<path d="M1.633 0.384 Q1.752 0.399 1.809 0.344" stroke="hsl(180.0,100%,35%)" stroke-width="0.00039"></path>
<path d="M1.633 0.384 Q1.698 0.311 1.572 0.263" stroke="hsl(180.0,100%,35%)" stroke-width="0.00274"></path>
<path d="M1.633 0.384 Q1.284 0.357 1.154 0.521" stroke="hsl(180.0,100%,35%)" stroke-width="0.00039"></path>
<path d="M1.633 0.384 Q1.951 0.255 1.770 0.071" stroke="hsl(180.0,100%,35%)" stroke-width="0.00039"></path>
<path d="M0.840 0.457 Q0.946 0.552 1.154 0.521" stroke="hsl(0.0,100%,35%)" stroke-width="0.00039"></path>
<path d="M0.840 0.457 Q0.890 0.355 0.702 0.308" stroke="hsl(0.0,100%,35%)" stroke-width="0.00039"></path>
<path d="M0.840 0.457 Q0.705 0.402 0.568 0.456" stroke="hsl(0.0,100%,35%)" stroke-width="0.00039"></path>
<path d="M0.300 0.476 Q0.450 0.519 0.568 0.456" stroke="hsl(0.0,100%,35%)" stroke-width="0.00196"></path>
<path d="M0.300 0.476 Q1.359 0.568 1.770 0.071" stroke="hsl(0.0,100%,35%)" stroke-width="0.00039"></path>
<path d="M0.300 0.476 Q1.168 0.532 1.468 0.121" stroke="hsl(0.0,100%,35%)" stroke-width="0.00039"></path>
<path d="M0.300 0.476 Q0.691 0.669 1.154 0.521" stroke="hsl(0.0,100%,35%)" stroke-width="0.00157"></path>
<path d="M0.300 0.476 Q0.604 0.727 1.160 0.634" stroke="hsl(0.0,100%,35%)" stroke-width="0.00039"></path>
<path d="M0.300 0.476 Q1.160 0.712 1.809 0.344" stroke="hsl(0.0,100%,35%)" stroke-width="0.00039"></path>
<path d="M0.859 0.370 Q0.814 0.619 1.289 0.696" stroke="hsl(0.0,100%,35%)" stroke-width="0.00235"></path>
<path d="M0.859 0.370 Q0.645 0.355 0.568 0.456" stroke="hsl(0.0,100%,35%)" stroke-width="0.00235"></path>
<path d="M0.859 0.370 Q0.886 0.505 1.154 0.521" stroke="hsl(0.0,100%,35%)" stroke-width="0.00313"></path>
<path d="M1.139 0.117 Q1.238 0.277 1.572 0.263" stroke="hsl(0.0,100%,35%)" stroke-width="0.00039"></path>
<path d="M1.139 0.117 Q0.823 0.322 1.154 0.521" stroke="hsl(0.0,100%,35%)" stroke-width="0.00118"></path>
<path d="M1.139 0.117 Q1.300 0.185 1.468 0.121" stroke="hsl(0.0,100%,35%)" stroke-width="0.00118"></path>
<path d="M0.307 0.550 Q0.512 0.555 0.568 0.456" stroke="hsl(0.0,100%,35%)" stroke-width="0.00196"></path>
<path d="M0.307 0.550 Q1.168 0.659 1.572 0.263" stroke="hsl(0.0,100%,35%)" stroke-width="0.00118"></path>
<path d="M0.307 0.550 Q0.666 0.762 1.160 0.634" stroke="hsl(0.0,100%,35%)" stroke-width="0.00118"></path>
<path d="M0.307 0.550 Q0.754 0.705 1.154 0.521" stroke="hsl(0.0,100%,35%)" stroke-width="0.00039"></path>
<path d="M0.307 0.550 Q1.421 0.603 1.770 0.071" stroke="hsl(0.0,100%,35%)" stroke-width="0.00039"></path>
<path d="M0.285 0.321 Q0.560 0.595 1.154 0.521" stroke="hsl(0.0,100%,35%)" stroke-width="0.00078"></path>
<path d="M0.285 0.321 Q0.318 0.445 0.568 0.456" stroke="hsl(0.0,100%,35%)" stroke-width="0.00118"></path>
<path d="M0.285 0.321 Q0.338 0.541 0.778 0.563" stroke="hsl(0.0,100%,35%)" stroke-width="0.00039"></path>
<path d="M0.897 0.466 Q0.982 0.545 1.154 0.521" stroke="hsl(0.0,100%,35%)" stroke-width="0.00196"></path>
<path d="M0.897 0.466 Q1.397 0.500 1.572 0.263" stroke="hsl(0.0,100%,35%)" stroke-width="0.00039"></path>
<path d="M0.897 0.466 Q0.342 0.501 0.289 0.780" stroke="hsl(0.0,100%,35%)" stroke-width="0.00039"></path>
<path d="M0.897 0.466 Q1.649 0.443 1.770 0.071" stroke="hsl(0.0,100%,35%)" stroke-width="0.00078"></path>
<path d="M0.897 0.466 Q0.741 0.395 0.568 0.456" stroke="hsl(0.0,100%,35%)" stroke-width="0.00039"></path>
<path d="M0.897 0.466 Q0.481 0.399 0.260 0.588" stroke="hsl(0.0,100%,35%)" stroke-width="0.00039"></path>
</g>
<text x="0.993" y="0.740" font-size="0.006874" fill="hsl(0.0,100%,20%)">albin.bernhardsson</text>
<text x="0.568" y="0.423" font-size="0.066202" fill="hsl(0.0,100%,20%)">cwallez</text>
<text x="1.889" y="0.155" font-size="0.067001" fill="hsl(180.0,100%,20%)">dsinclair</text>
<text x="1.154" y="0.484" font-size="0.074355" fill="hsl(0.0,100%,20%)">enga</text>
<text x="1.770" y="0.052" font-size="0.037651" fill="hsl(180.0,100%,20%)">amaiorano</text>
<text x="1.572" y="0.217" font-size="0.092290" fill="hsl(180.0,100%,20%)">bclayton</text>
<text x="1.468" y="0.085" font-size="0.071520" fill="hsl(180.0,100%,20%)">jrprice</text>
<text x="0.289" y="0.766" font-size="0.027281" fill="hsl(0.0,100%,20%)">kainino</text>
<text x="0.276" y="0.373" font-size="0.006874" fill="hsl(0.0,100%,20%)">andre</text>
<text x="0.091" y="0.773" font-size="0.009721" fill="hsl(0.0,100%,20%)">austineng</text>
<text x="0.950" y="0.842" font-size="0.024059" fill="hsl(0.0,100%,20%)">shrekshao</text>
<text x="1.160" y="0.611" font-size="0.045856" fill="hsl(0.0,100%,20%)">lokokung</text>
<text x="0.710" y="0.665" font-size="0.006874" fill="hsl(0.0,100%,20%)">avi</text>
<text x="0.924" y="0.545" font-size="0.024059" fill="hsl(0.0,100%,20%)">bajones</text>
<text x="1.218" y="0.122" font-size="0.025257" fill="hsl(180.0,100%,20%)">dneto</text>
<text x="1.809" y="0.336" font-size="0.016838" fill="hsl(180.0,100%,20%)">rharrison</text>
<text x="1.703" y="0.112" font-size="0.003437" fill="hsl(180.0,100%,20%)">kjlubick</text>
<text x="0.729" y="0.638" font-size="0.025022" fill="hsl(0.0,100%,20%)">senorblanco</text>
<text x="1.285" y="0.298" font-size="0.003437" fill="hsl(180.0,100%,20%)">brucedawson</text>
<text x="0.450" y="0.653" font-size="0.018187" fill="hsl(0.0,100%,20%)">beaufort.francois</text>
<text x="1.231" y="0.342" font-size="0.010869" fill="hsl(180.0,100%,20%)">brandon1.jones</text>
<text x="0.778" y="0.555" font-size="0.016121" fill="hsl(0.0,100%,20%)">lehoangquyen</text>
<text x="0.599" y="0.163" font-size="0.003437" fill="hsl(0.0,100%,20%)">fbeaufort</text>
<text x="1.289" y="0.685" font-size="0.022008" fill="hsl(0.0,100%,20%)">penghuang</text>
<text x="0.766" y="0.348" font-size="0.003437" fill="hsl(0.0,100%,20%)">arthursonzogni</text>
<text x="0.425" y="0.597" font-size="0.003437" fill="hsl(0.0,100%,20%)">jamesgk</text>
<text x="0.525" y="0.535" font-size="0.005953" fill="hsl(0.0,100%,20%)">danakj</text>
<text x="1.036" y="0.045" font-size="0.005953" fill="hsl(180.0,100%,20%)">alanbaker</text>
<text x="0.260" y="0.585" font-size="0.004861" fill="hsl(0.0,100%,20%)">bsheedy</text>
<text x="0.863" y="0.404" font-size="0.020622" fill="hsl(0.0,100%,20%)">gman</text>
<text x="0.702" y="0.288" font-size="0.039935" fill="hsl(0.0,100%,20%)">jiawei.shao</text>
<text x="0.904" y="0.260" font-size="0.015371" fill="hsl(0.0,100%,20%)">hao.x.li</text>
<text x="0.747" y="0.947" font-size="0.010311" fill="hsl(0.0,100%,20%)">hitawala</text>
<text x="0.469" y="0.952" font-size="0.004861" fill="hsl(0.0,100%,20%)">sunnyps</text>
<text x="1.633" y="0.378" font-size="0.011399" fill="hsl(180.0,100%,20%)">jason.erb</text>
<text x="0.840" y="0.454" font-size="0.005953" fill="hsl(0.0,100%,20%)">jianlin.qiu</text>
<text x="0.904" y="0.703" font-size="0.003437" fill="hsl(0.0,100%,20%)">rafael.cintron</text>
<text x="0.300" y="0.469" font-size="0.012860" fill="hsl(0.0,100%,20%)">zhaoming.jiang</text>
<text x="0.859" y="0.362" font-size="0.015371" fill="hsl(0.0,100%,20%)">jie.a.chen</text>
<text x="1.139" y="0.112" font-size="0.009094" fill="hsl(0.0,100%,20%)">jojwang</text>
<text x="1.449" y="0.745" font-size="0.003437" fill="hsl(0.0,100%,20%)">kbr</text>
<text x="0.307" y="0.543" font-size="0.012392" fill="hsl(0.0,100%,20%)">tiszka</text>
<text x="0.285" y="0.317" font-size="0.008419" fill="hsl(0.0,100%,20%)">vollick</text>
<text x="0.897" y="0.460" font-size="0.011399" fill="hsl(0.0,100%,20%)">ynovikov</text>
</svg>
