<svg width="4000" height="2000" viewBox="-0.025 -0.025 2.05 1.05" xmlns="http://www.w3.org/2000/svg">
  <style>
    path {
      fill: none;
      stroke-linecap: round;
      stroke-opacity: 0.4;
    }

    text {
      text-anchor: middle;
      alignment-baseline: hanging;
    }
  </style>
  <g opacity="0.4">
<path d="M0.751 0.696 Q0.485 0.791 0.610 0.941" stroke="hsl(0.0,100%,35%)" stroke-width="0.00125"></path>
<path d="M0.751 0.696 Q0.864 0.571 0.644 0.488" stroke="hsl(0.0,100%,35%)" stroke-width="0.00083"></path>
<path d="M0.751 0.696 Q1.223 0.551 1.044 0.289" stroke="hsl(0.0,100%,35%)" stroke-width="0.00042"></path>
<path d="M0.751 0.696 Q0.774 0.487 0.371 0.430" stroke="hsl(0.0,100%,35%)" stroke-width="0.00042"></path>
<path d="M0.610 0.941 Q1.272 0.773 1.089 0.414" stroke="hsl(0.0,100%,35%)" stroke-width="0.00938"></path>
<path d="M0.610 0.941 Q1.349 0.702 1.044 0.289" stroke="hsl(0.0,100%,35%)" stroke-width="0.00063"></path>
<path d="M0.610 0.941 Q1.081 0.638 0.593 0.342" stroke="hsl(0.0,100%,35%)" stroke-width="0.01084"></path>
<path d="M0.610 0.941 Q0.990 0.721 0.644 0.488" stroke="hsl(0.0,100%,35%)" stroke-width="0.02231"></path>
<path d="M0.610 0.941 Q1.045 0.819 0.904 0.581" stroke="hsl(0.0,100%,35%)" stroke-width="0.00042"></path>
<path d="M0.610 0.941 Q0.756 0.919 0.745 0.843" stroke="hsl(0.0,100%,35%)" stroke-width="0.00021"></path>
<path d="M0.610 0.941 Q0.810 0.977 0.925 0.888" stroke="hsl(0.0,100%,35%)" stroke-width="0.00042"></path>
<path d="M0.610 0.941 Q0.899 0.638 0.371 0.430" stroke="hsl(0.0,100%,35%)" stroke-width="0.00146"></path>
<path d="M0.610 0.941 Q0.925 0.763 0.647 0.571" stroke="hsl(0.0,100%,35%)" stroke-width="0.00167"></path>
<path d="M0.610 0.941 Q0.692 1.013 0.850 0.989" stroke="hsl(0.0,100%,35%)" stroke-width="0.00021"></path>
<path d="M0.610 0.941 Q1.160 0.796 0.997 0.496" stroke="hsl(0.0,100%,35%)" stroke-width="0.00021"></path>
<path d="M0.610 0.941 Q0.927 0.799 0.719 0.613" stroke="hsl(0.0,100%,35%)" stroke-width="0.00042"></path>
<path d="M0.610 0.941 Q0.683 0.638 0.108 0.536" stroke="hsl(0.0,100%,35%)" stroke-width="0.00063"></path>
<path d="M0.610 0.941 Q0.778 0.948 0.829 0.868" stroke="hsl(0.0,100%,35%)" stroke-width="0.00021"></path>
<path d="M0.610 0.941 Q0.766 0.601 0.137 0.450" stroke="hsl(0.0,100%,35%)" stroke-width="0.00021"></path>
<path d="M0.610 0.941 Q0.660 0.829 0.453 0.780" stroke="hsl(0.0,100%,35%)" stroke-width="0.00021"></path>
<path d="M0.644 0.488 Q0.735 0.405 0.593 0.342" stroke="hsl(0.0,100%,35%)" stroke-width="0.01689"></path>
<path d="M0.644 0.488 Q0.554 0.404 0.371 0.430" stroke="hsl(0.0,100%,35%)" stroke-width="0.00438"></path>
<path d="M0.644 0.488 Q0.265 0.708 0.610 0.941" stroke="hsl(0.0,100%,35%)" stroke-width="0.00959"></path>
<path d="M0.644 0.488 Q0.315 0.596 0.453 0.780" stroke="hsl(0.0,100%,35%)" stroke-width="0.00188"></path>
<path d="M0.644 0.488 Q0.814 0.563 0.997 0.496" stroke="hsl(0.0,100%,35%)" stroke-width="0.00125"></path>
<path d="M0.644 0.488 Q0.580 0.530 0.647 0.571" stroke="hsl(0.0,100%,35%)" stroke-width="0.00146"></path>
<path d="M0.644 0.488 Q1.003 0.468 1.044 0.289" stroke="hsl(0.0,100%,35%)" stroke-width="0.00083"></path>
<path d="M0.644 0.488 Q0.926 0.540 1.089 0.414" stroke="hsl(0.0,100%,35%)" stroke-width="0.00313"></path>
<path d="M0.644 0.488 Q0.337 0.405 0.108 0.536" stroke="hsl(0.0,100%,35%)" stroke-width="0.00063"></path>
<path d="M0.644 0.488 Q0.867 0.619 1.171 0.539" stroke="hsl(0.0,100%,35%)" stroke-width="0.00083"></path>
<path d="M0.644 0.488 Q0.581 0.565 0.719 0.613" stroke="hsl(0.0,100%,35%)" stroke-width="0.00063"></path>
<path d="M0.644 0.488 Q0.452 0.586 0.601 0.701" stroke="hsl(0.0,100%,35%)" stroke-width="0.00063"></path>
<path d="M0.644 0.488 Q0.700 0.586 0.904 0.581" stroke="hsl(0.0,100%,35%)" stroke-width="0.00125"></path>
<path d="M0.644 0.488 Q0.370 0.643 0.613 0.811" stroke="hsl(0.0,100%,35%)" stroke-width="0.00021"></path>
<path d="M0.644 0.488 Q1.216 0.456 1.279 0.170" stroke="hsl(0.0,100%,35%)" stroke-width="0.00104"></path>
<path d="M0.644 0.488 Q0.507 0.397 0.299 0.444" stroke="hsl(0.0,100%,35%)" stroke-width="0.00042"></path>
<path d="M0.644 0.488 Q0.591 0.667 0.930 0.733" stroke="hsl(0.0,100%,35%)" stroke-width="0.00021"></path>
<path d="M0.644 0.488 Q0.468 0.480 0.415 0.565" stroke="hsl(0.0,100%,35%)" stroke-width="0.00021"></path>
<path d="M0.644 0.488 Q0.391 0.429 0.221 0.540" stroke="hsl(0.0,100%,35%)" stroke-width="0.00063"></path>
<path d="M0.644 0.488 Q0.669 0.335 0.376 0.289" stroke="hsl(0.0,100%,35%)" stroke-width="0.00021"></path>
<path d="M1.044 0.289 Q0.967 0.361 1.089 0.414" stroke="hsl(180.0,100%,35%)" stroke-width="0.06006"></path>
<path d="M1.044 0.289 Q0.855 0.383 0.997 0.496" stroke="hsl(180.0,100%,35%)" stroke-width="0.00167"></path>
<path d="M1.044 0.289 Q0.741 0.407 0.904 0.581" stroke="hsl(180.0,100%,35%)" stroke-width="0.00083"></path>
<path d="M1.044 0.289 Q0.356 0.417 0.453 0.780" stroke="hsl(180.0,100%,35%)" stroke-width="0.00021"></path>
<path d="M1.044 0.289 Q0.493 0.407 0.601 0.701" stroke="hsl(180.0,100%,35%)" stroke-width="0.00021"></path>
<path d="M1.044 0.289 Q0.907 0.439 1.171 0.539" stroke="hsl(180.0,100%,35%)" stroke-width="0.02356"></path>
<path d="M1.044 0.289 Q0.306 0.528 0.610 0.941" stroke="hsl(180.0,100%,35%)" stroke-width="0.00271"></path>
<path d="M1.044 0.289 Q1.257 0.277 1.279 0.170" stroke="hsl(180.0,100%,35%)" stroke-width="0.00042"></path>
<path d="M1.044 0.289 Q0.685 0.309 0.644 0.488" stroke="hsl(180.0,100%,35%)" stroke-width="0.00083"></path>
<path d="M1.044 0.289 Q0.595 0.225 0.371 0.430" stroke="hsl(180.0,100%,35%)" stroke-width="0.00042"></path>
<path d="M1.044 0.289 Q0.833 0.493 1.186 0.641" stroke="hsl(180.0,100%,35%)" stroke-width="0.00083"></path>
<path d="M0.371 0.430 Q0.082 0.733 0.610 0.941" stroke="hsl(0.0,100%,35%)" stroke-width="0.00250"></path>
<path d="M0.371 0.430 Q0.552 0.431 0.593 0.342" stroke="hsl(0.0,100%,35%)" stroke-width="0.00292"></path>
<path d="M0.371 0.430 Q0.461 0.514 0.644 0.488" stroke="hsl(0.0,100%,35%)" stroke-width="0.00292"></path>
<path d="M0.371 0.430 Q0.743 0.566 1.089 0.414" stroke="hsl(0.0,100%,35%)" stroke-width="0.00021"></path>
<path d="M0.371 0.430 Q0.187 0.669 0.613 0.811" stroke="hsl(0.0,100%,35%)" stroke-width="0.00021"></path>
<path d="M0.371 0.430 Q0.132 0.622 0.453 0.780" stroke="hsl(0.0,100%,35%)" stroke-width="0.00021"></path>
<path d="M0.371 0.430 Q0.397 0.556 0.647 0.571" stroke="hsl(0.0,100%,35%)" stroke-width="0.00021"></path>
<path d="M0.371 0.430 Q1.033 0.482 1.279 0.170" stroke="hsl(0.0,100%,35%)" stroke-width="0.00021"></path>
<path d="M0.371 0.430 Q0.324 0.422 0.299 0.444" stroke="hsl(0.0,100%,35%)" stroke-width="0.00021"></path>
<path d="M0.997 0.496 Q1.109 0.473 1.089 0.414" stroke="hsl(180.0,100%,35%)" stroke-width="0.00876"></path>
<path d="M0.997 0.496 Q0.828 0.421 0.644 0.488" stroke="hsl(180.0,100%,35%)" stroke-width="0.00667"></path>
<path d="M0.997 0.496 Q0.448 0.641 0.610 0.941" stroke="hsl(180.0,100%,35%)" stroke-width="0.00209"></path>
<path d="M0.997 0.496 Q1.050 0.552 1.171 0.539" stroke="hsl(180.0,100%,35%)" stroke-width="0.00125"></path>
<path d="M0.997 0.496 Q0.737 0.338 0.371 0.430" stroke="hsl(180.0,100%,35%)" stroke-width="0.00042"></path>
<path d="M0.997 0.496 Q1.186 0.402 1.044 0.289" stroke="hsl(180.0,100%,35%)" stroke-width="0.00250"></path>
<path d="M0.997 0.496 Q0.976 0.606 1.186 0.641" stroke="hsl(180.0,100%,35%)" stroke-width="0.00042"></path>
<path d="M0.997 0.496 Q1.399 0.389 1.279 0.170" stroke="hsl(180.0,100%,35%)" stroke-width="0.00021"></path>
<path d="M1.089 0.414 Q0.977 0.437 0.997 0.496" stroke="hsl(180.0,100%,35%)" stroke-width="0.01606"></path>
<path d="M1.089 0.414 Q1.030 0.493 1.171 0.539" stroke="hsl(180.0,100%,35%)" stroke-width="0.05172"></path>
<path d="M1.089 0.414 Q1.166 0.342 1.044 0.289" stroke="hsl(180.0,100%,35%)" stroke-width="0.06235"></path>
<path d="M1.089 0.414 Q0.428 0.582 0.610 0.941" stroke="hsl(180.0,100%,35%)" stroke-width="0.01293"></path>
<path d="M1.089 0.414 Q0.956 0.547 1.186 0.641" stroke="hsl(180.0,100%,35%)" stroke-width="0.00292"></path>
<path d="M1.089 0.414 Q0.717 0.278 0.371 0.430" stroke="hsl(180.0,100%,35%)" stroke-width="0.00042"></path>
<path d="M1.089 0.414 Q0.628 0.618 0.925 0.888" stroke="hsl(180.0,100%,35%)" stroke-width="0.00021"></path>
<path d="M1.089 0.414 Q0.808 0.362 0.644 0.488" stroke="hsl(180.0,100%,35%)" stroke-width="0.00626"></path>
<path d="M1.089 0.414 Q0.631 0.354 0.415 0.565" stroke="hsl(180.0,100%,35%)" stroke-width="0.00021"></path>
<path d="M1.089 0.414 Q0.743 0.404 0.647 0.571" stroke="hsl(180.0,100%,35%)" stroke-width="0.00021"></path>
<path d="M1.089 0.414 Q1.379 0.330 1.279 0.170" stroke="hsl(180.0,100%,35%)" stroke-width="0.00083"></path>
<path d="M1.089 0.414 Q0.863 0.460 0.904 0.581" stroke="hsl(180.0,100%,35%)" stroke-width="0.00104"></path>
<path d="M1.089 0.414 Q0.921 0.342 0.744 0.408" stroke="hsl(180.0,100%,35%)" stroke-width="0.00021"></path>
<path d="M1.089 0.414 Q0.533 0.517 0.613 0.811" stroke="hsl(180.0,100%,35%)" stroke-width="0.00021"></path>
<path d="M1.171 0.539 Q1.230 0.460 1.089 0.414" stroke="hsl(180.0,100%,35%)" stroke-width="0.04859"></path>
<path d="M1.171 0.539 Q1.097 0.593 1.186 0.641" stroke="hsl(180.0,100%,35%)" stroke-width="0.00626"></path>
<path d="M1.171 0.539 Q1.118 0.483 0.997 0.496" stroke="hsl(180.0,100%,35%)" stroke-width="0.00104"></path>
<path d="M1.171 0.539 Q1.307 0.389 1.044 0.289" stroke="hsl(180.0,100%,35%)" stroke-width="0.02294"></path>
<path d="M1.171 0.539 Q0.884 0.450 0.647 0.571" stroke="hsl(180.0,100%,35%)" stroke-width="0.00063"></path>
<path d="M1.171 0.539 Q0.569 0.628 0.610 0.941" stroke="hsl(180.0,100%,35%)" stroke-width="0.00104"></path>
<path d="M1.171 0.539 Q0.949 0.408 0.644 0.488" stroke="hsl(180.0,100%,35%)" stroke-width="0.00125"></path>
<path d="M1.171 0.539 Q0.756 0.506 0.601 0.701" stroke="hsl(180.0,100%,35%)" stroke-width="0.00021"></path>
<path d="M1.171 0.539 Q1.213 0.632 1.404 0.632" stroke="hsl(180.0,100%,35%)" stroke-width="0.00021"></path>
<path d="M1.171 0.539 Q1.347 0.674 1.650 0.618" stroke="hsl(180.0,100%,35%)" stroke-width="0.00021"></path>
<path d="M1.186 0.641 Q1.319 0.508 1.089 0.414" stroke="hsl(180.0,100%,35%)" stroke-width="0.00417"></path>
<path d="M1.186 0.641 Q1.260 0.587 1.171 0.539" stroke="hsl(180.0,100%,35%)" stroke-width="0.00229"></path>
<path d="M1.186 0.641 Q1.207 0.531 0.997 0.496" stroke="hsl(180.0,100%,35%)" stroke-width="0.00021"></path>
<path d="M1.186 0.641 Q1.302 0.680 1.404 0.632" stroke="hsl(180.0,100%,35%)" stroke-width="0.00042"></path>
<path d="M1.186 0.641 Q1.038 0.456 0.644 0.488" stroke="hsl(180.0,100%,35%)" stroke-width="0.00021"></path>
<path d="M1.186 0.641 Q1.396 0.437 1.044 0.289" stroke="hsl(180.0,100%,35%)" stroke-width="0.00083"></path>
<path d="M1.186 0.641 Q0.973 0.498 0.647 0.571" stroke="hsl(180.0,100%,35%)" stroke-width="0.00021"></path>
<path d="M1.186 0.641 Q0.658 0.676 0.610 0.941" stroke="hsl(180.0,100%,35%)" stroke-width="0.00042"></path>
<path d="M1.186 0.641 Q0.947 0.372 0.371 0.430" stroke="hsl(180.0,100%,35%)" stroke-width="0.00021"></path>
<path d="M1.279 0.170 Q0.707 0.202 0.644 0.488" stroke="hsl(180.0,100%,35%)" stroke-width="0.00104"></path>
<path d="M1.279 0.170 Q1.066 0.182 1.044 0.289" stroke="hsl(180.0,100%,35%)" stroke-width="0.00125"></path>
<path d="M1.279 0.170 Q0.989 0.254 1.089 0.414" stroke="hsl(180.0,100%,35%)" stroke-width="0.00063"></path>
<path d="M1.279 0.170 Q0.929 0.333 1.171 0.539" stroke="hsl(180.0,100%,35%)" stroke-width="0.00021"></path>
<path d="M1.279 0.170 Q0.877 0.277 0.997 0.496" stroke="hsl(180.0,100%,35%)" stroke-width="0.00021"></path>
<path d="M1.581 0.209 Q1.171 0.213 1.089 0.414" stroke="hsl(0.0,100%,35%)" stroke-width="0.00042"></path>
<path d="M1.581 0.209 Q0.510 0.381 0.610 0.941" stroke="hsl(0.0,100%,35%)" stroke-width="0.00042"></path>
<path d="M0.925 0.888 Q0.725 0.852 0.610 0.941" stroke="hsl(0.0,100%,35%)" stroke-width="0.00480"></path>
<path d="M0.925 0.888 Q1.105 0.632 0.644 0.488" stroke="hsl(0.0,100%,35%)" stroke-width="0.00042"></path>
<path d="M0.925 0.888 Q0.926 0.848 0.847 0.838" stroke="hsl(0.0,100%,35%)" stroke-width="0.00021"></path>
<path d="M0.925 0.888 Q1.386 0.684 1.089 0.414" stroke="hsl(0.0,100%,35%)" stroke-width="0.00146"></path>
<path d="M0.356 0.220 Q-0.093 0.631 0.610 0.941" stroke="hsl(0.0,100%,35%)" stroke-width="0.00042"></path>
<path d="M0.356 0.220 Q0.196 0.328 0.371 0.430" stroke="hsl(0.0,100%,35%)" stroke-width="0.00042"></path>
<path d="M0.356 0.220 Q-0.043 0.520 0.453 0.780" stroke="hsl(0.0,100%,35%)" stroke-width="0.00021"></path>
<path d="M0.356 0.220 Q0.377 0.329 0.593 0.342" stroke="hsl(0.0,100%,35%)" stroke-width="0.00021"></path>
<path d="M0.356 0.220 Q0.568 0.464 1.089 0.414" stroke="hsl(0.0,100%,35%)" stroke-width="0.00021"></path>
<path d="M0.356 0.220 Q0.287 0.412 0.644 0.488" stroke="hsl(0.0,100%,35%)" stroke-width="0.00021"></path>
<path d="M0.453 0.780 Q0.783 0.672 0.644 0.488" stroke="hsl(0.0,100%,35%)" stroke-width="0.00772"></path>
<path d="M0.453 0.780 Q0.838 0.771 0.904 0.581" stroke="hsl(0.0,100%,35%)" stroke-width="0.00375"></path>
<path d="M0.453 0.780 Q1.141 0.653 1.044 0.289" stroke="hsl(0.0,100%,35%)" stroke-width="0.00063"></path>
<path d="M0.453 0.780 Q1.005 0.803 1.171 0.539" stroke="hsl(0.0,100%,35%)" stroke-width="0.00021"></path>
<path d="M0.453 0.780 Q0.692 0.589 0.371 0.430" stroke="hsl(0.0,100%,35%)" stroke-width="0.00042"></path>
<path d="M0.453 0.780 Q0.718 0.714 0.647 0.571" stroke="hsl(0.0,100%,35%)" stroke-width="0.00021"></path>
<path d="M0.453 0.780 Q0.873 0.589 0.593 0.342" stroke="hsl(0.0,100%,35%)" stroke-width="0.00125"></path>
<path d="M0.453 0.780 Q1.064 0.724 1.089 0.414" stroke="hsl(0.0,100%,35%)" stroke-width="0.00104"></path>
<path d="M0.453 0.780 Q0.403 0.892 0.610 0.941" stroke="hsl(0.0,100%,35%)" stroke-width="0.00021"></path>
<path d="M0.593 0.342 Q0.503 0.425 0.644 0.488" stroke="hsl(0.0,100%,35%)" stroke-width="0.02106"></path>
<path d="M0.593 0.342 Q0.412 0.342 0.371 0.430" stroke="hsl(0.0,100%,35%)" stroke-width="0.00334"></path>
<path d="M0.593 0.342 Q0.123 0.645 0.610 0.941" stroke="hsl(0.0,100%,35%)" stroke-width="0.00646"></path>
<path d="M0.593 0.342 Q0.310 0.524 0.601 0.701" stroke="hsl(0.0,100%,35%)" stroke-width="0.00021"></path>
<path d="M0.593 0.342 Q0.672 0.500 0.997 0.496" stroke="hsl(0.0,100%,35%)" stroke-width="0.00021"></path>
<path d="M0.593 0.342 Q0.777 0.309 0.753 0.213" stroke="hsl(0.0,100%,35%)" stroke-width="0.00021"></path>
<path d="M0.593 0.342 Q0.784 0.477 1.089 0.414" stroke="hsl(0.0,100%,35%)" stroke-width="0.00063"></path>
<path d="M0.593 0.342 Q0.438 0.467 0.647 0.571" stroke="hsl(0.0,100%,35%)" stroke-width="0.00125"></path>
<path d="M0.593 0.342 Q0.173 0.533 0.453 0.780" stroke="hsl(0.0,100%,35%)" stroke-width="0.00167"></path>
<path d="M0.593 0.342 Q0.725 0.556 1.171 0.539" stroke="hsl(0.0,100%,35%)" stroke-width="0.00021"></path>
<path d="M0.674 0.094 Q0.345 0.285 0.644 0.488" stroke="hsl(0.0,100%,35%)" stroke-width="0.00042"></path>
<path d="M0.674 0.094 Q-0.035 0.505 0.610 0.941" stroke="hsl(0.0,100%,35%)" stroke-width="0.00021"></path>
<path d="M0.674 0.094 Q0.280 0.327 0.647 0.571" stroke="hsl(0.0,100%,35%)" stroke-width="0.00021"></path>
<path d="M0.647 0.571 Q0.333 0.748 0.610 0.941" stroke="hsl(0.0,100%,35%)" stroke-width="0.00063"></path>
<path d="M0.647 0.571 Q0.712 0.529 0.644 0.488" stroke="hsl(0.0,100%,35%)" stroke-width="0.00417"></path>
<path d="M0.647 0.571 Q0.622 0.445 0.371 0.430" stroke="hsl(0.0,100%,35%)" stroke-width="0.00209"></path>
<path d="M0.647 0.571 Q0.803 0.446 0.593 0.342" stroke="hsl(0.0,100%,35%)" stroke-width="0.00042"></path>
<path d="M0.647 0.571 Q0.882 0.603 0.997 0.496" stroke="hsl(0.0,100%,35%)" stroke-width="0.00021"></path>
<path d="M0.647 0.571 Q0.860 0.713 1.186 0.641" stroke="hsl(0.0,100%,35%)" stroke-width="0.00021"></path>
<path d="M0.904 0.581 Q1.130 0.534 1.089 0.414" stroke="hsl(0.0,100%,35%)" stroke-width="0.00229"></path>
<path d="M0.904 0.581 Q0.848 0.482 0.644 0.488" stroke="hsl(0.0,100%,35%)" stroke-width="0.00563"></path>
<path d="M0.904 0.581 Q1.207 0.463 1.044 0.289" stroke="hsl(0.0,100%,35%)" stroke-width="0.00146"></path>
<path d="M0.904 0.581 Q0.939 0.399 0.593 0.342" stroke="hsl(0.0,100%,35%)" stroke-width="0.00042"></path>
<path d="M0.904 0.581 Q0.784 0.524 0.647 0.571" stroke="hsl(0.0,100%,35%)" stroke-width="0.00021"></path>
<path d="M0.904 0.581 Q0.519 0.590 0.453 0.780" stroke="hsl(0.0,100%,35%)" stroke-width="0.00021"></path>
<path d="M0.904 0.581 Q0.656 0.581 0.601 0.701" stroke="hsl(0.0,100%,35%)" stroke-width="0.00042"></path>
<path d="M0.904 0.581 Q0.469 0.702 0.610 0.941" stroke="hsl(0.0,100%,35%)" stroke-width="0.00104"></path>
<path d="M0.904 0.581 Q0.758 0.399 0.371 0.430" stroke="hsl(0.0,100%,35%)" stroke-width="0.00021"></path>
<path d="M0.613 0.811 Q0.507 0.875 0.610 0.941" stroke="hsl(0.0,100%,35%)" stroke-width="0.02148"></path>
<path d="M0.613 0.811 Q0.887 0.656 0.644 0.488" stroke="hsl(0.0,100%,35%)" stroke-width="0.01773"></path>
<path d="M0.613 0.811 Q1.168 0.708 1.089 0.414" stroke="hsl(0.0,100%,35%)" stroke-width="0.00500"></path>
<path d="M0.613 0.811 Q0.978 0.573 0.593 0.342" stroke="hsl(0.0,100%,35%)" stroke-width="0.00021"></path>
<path d="M0.613 0.811 Q1.109 0.786 1.171 0.539" stroke="hsl(0.0,100%,35%)" stroke-width="0.00042"></path>
<path d="M0.613 0.811 Q0.822 0.698 0.647 0.571" stroke="hsl(0.0,100%,35%)" stroke-width="0.00042"></path>
<path d="M0.613 0.811 Q1.458 0.624 1.279 0.170" stroke="hsl(0.0,100%,35%)" stroke-width="0.00021"></path>
<path d="M0.613 0.811 Q1.035 0.840 1.186 0.641" stroke="hsl(0.0,100%,35%)" stroke-width="0.00104"></path>
<path d="M0.613 0.811 Q0.824 0.733 0.719 0.613" stroke="hsl(0.0,100%,35%)" stroke-width="0.00083"></path>
<path d="M0.613 0.811 Q1.055 0.659 0.857 0.411" stroke="hsl(0.0,100%,35%)" stroke-width="0.00021"></path>
<path d="M0.613 0.811 Q1.245 0.636 1.044 0.289" stroke="hsl(0.0,100%,35%)" stroke-width="0.00021"></path>
<path d="M0.613 0.811 Q0.447 0.775 0.342 0.849" stroke="hsl(0.0,100%,35%)" stroke-width="0.00042"></path>
<path d="M0.613 0.811 Q0.796 0.572 0.371 0.430" stroke="hsl(0.0,100%,35%)" stroke-width="0.00021"></path>
<path d="M0.937 0.880 Q0.725 0.845 0.610 0.941" stroke="hsl(0.0,100%,35%)" stroke-width="0.00521"></path>
<path d="M0.937 0.880 Q1.014 0.542 0.371 0.430" stroke="hsl(0.0,100%,35%)" stroke-width="0.00042"></path>
<path d="M0.937 0.880 Q1.105 0.625 0.644 0.488" stroke="hsl(0.0,100%,35%)" stroke-width="0.00167"></path>
<path d="M0.937 0.880 Q1.195 0.542 0.593 0.342" stroke="hsl(0.0,100%,35%)" stroke-width="0.00063"></path>
<path d="M0.864 0.782 Q0.610 0.811 0.610 0.941" stroke="hsl(0.0,100%,35%)" stroke-width="0.00396"></path>
<path d="M0.864 0.782 Q0.989 0.591 0.644 0.488" stroke="hsl(0.0,100%,35%)" stroke-width="0.00063"></path>
<path d="M0.864 0.782 Q1.080 0.508 0.593 0.342" stroke="hsl(0.0,100%,35%)" stroke-width="0.00021"></path>
<path d="M1.065 0.619 Q0.581 0.689 0.610 0.941" stroke="hsl(180.0,100%,35%)" stroke-width="0.00083"></path>
<path d="M1.065 0.619 Q0.960 0.469 0.644 0.488" stroke="hsl(180.0,100%,35%)" stroke-width="0.00083"></path>
<path d="M1.065 0.619 Q1.242 0.521 1.089 0.414" stroke="hsl(180.0,100%,35%)" stroke-width="0.00209"></path>
<path d="M1.065 0.619 Q1.182 0.600 1.171 0.539" stroke="hsl(180.0,100%,35%)" stroke-width="0.00021"></path>
<path d="M0.719 0.613 Q0.782 0.536 0.644 0.488" stroke="hsl(0.0,100%,35%)" stroke-width="0.01877"></path>
<path d="M0.719 0.613 Q0.402 0.755 0.610 0.941" stroke="hsl(0.0,100%,35%)" stroke-width="0.00855"></path>
<path d="M0.719 0.613 Q1.063 0.587 1.089 0.414" stroke="hsl(0.0,100%,35%)" stroke-width="0.00042"></path>
<path d="M0.719 0.613 Q0.873 0.453 0.593 0.342" stroke="hsl(0.0,100%,35%)" stroke-width="0.00021"></path>
<path d="M0.108 0.536 Q0.035 0.839 0.610 0.941" stroke="hsl(0.0,100%,35%)" stroke-width="0.00292"></path>
<path d="M0.108 0.536 Q0.415 0.619 0.644 0.488" stroke="hsl(0.0,100%,35%)" stroke-width="0.00605"></path>
<path d="M0.108 0.536 Q0.352 0.697 0.719 0.613" stroke="hsl(0.0,100%,35%)" stroke-width="0.00021"></path>
<path d="M0.108 0.536 Q0.506 0.537 0.593 0.342" stroke="hsl(0.0,100%,35%)" stroke-width="0.00021"></path>
<path d="M0.137 0.450 Q0.361 0.570 0.644 0.488" stroke="hsl(0.0,100%,35%)" stroke-width="0.00104"></path>
<path d="M0.137 0.450 Q-0.019 0.790 0.610 0.941" stroke="hsl(0.0,100%,35%)" stroke-width="0.00042"></path>
<path d="M0.137 0.450 Q0.270 0.487 0.371 0.430" stroke="hsl(0.0,100%,35%)" stroke-width="0.00021"></path>
<path d="M0.327 0.473 Q0.474 0.544 0.644 0.488" stroke="hsl(0.0,100%,35%)" stroke-width="0.00021"></path>
<path d="M0.327 0.473 Q0.756 0.596 1.089 0.414" stroke="hsl(0.0,100%,35%)" stroke-width="0.00021"></path>
<path d="M0.327 0.473 Q0.094 0.764 0.610 0.941" stroke="hsl(0.0,100%,35%)" stroke-width="0.00021"></path>
<path d="M0.601 0.701 Q1.075 0.655 1.089 0.414" stroke="hsl(0.0,100%,35%)" stroke-width="0.00104"></path>
<path d="M0.601 0.701 Q0.885 0.520 0.593 0.342" stroke="hsl(0.0,100%,35%)" stroke-width="0.00125"></path>
<path d="M0.601 0.701 Q0.414 0.823 0.610 0.941" stroke="hsl(0.0,100%,35%)" stroke-width="0.00042"></path>
<path d="M0.601 0.701 Q0.729 0.645 0.647 0.571" stroke="hsl(0.0,100%,35%)" stroke-width="0.00063"></path>
<path d="M0.601 0.701 Q0.794 0.603 0.644 0.488" stroke="hsl(0.0,100%,35%)" stroke-width="0.00459"></path>
<path d="M0.601 0.701 Q0.849 0.701 0.904 0.581" stroke="hsl(0.0,100%,35%)" stroke-width="0.00125"></path>
<path d="M0.601 0.701 Q0.964 0.678 0.997 0.496" stroke="hsl(0.0,100%,35%)" stroke-width="0.00042"></path>
<path d="M0.601 0.701 Q0.703 0.520 0.371 0.430" stroke="hsl(0.0,100%,35%)" stroke-width="0.00021"></path>
<path d="M0.808 0.930 Q0.700 0.896 0.610 0.941" stroke="hsl(0.0,100%,35%)" stroke-width="0.00083"></path>
<path d="M0.808 0.930 Q1.080 0.676 0.644 0.488" stroke="hsl(0.0,100%,35%)" stroke-width="0.00042"></path>
<path d="M0.808 0.930 Q1.361 0.728 1.089 0.414" stroke="hsl(0.0,100%,35%)" stroke-width="0.00021"></path>
<path d="M0.930 0.733 Q0.920 0.631 0.719 0.613" stroke="hsl(0.0,100%,35%)" stroke-width="0.00563"></path>
<path d="M0.930 0.733 Q0.604 0.773 0.610 0.941" stroke="hsl(0.0,100%,35%)" stroke-width="0.00667"></path>
<path d="M0.930 0.733 Q0.983 0.553 0.644 0.488" stroke="hsl(0.0,100%,35%)" stroke-width="0.00855"></path>
<path d="M0.930 0.733 Q1.265 0.605 1.089 0.414" stroke="hsl(0.0,100%,35%)" stroke-width="0.00021"></path>
<path d="M0.376 0.289 Q0.352 0.442 0.644 0.488" stroke="hsl(0.0,100%,35%)" stroke-width="0.00209"></path>
<path d="M0.376 0.289 Q0.442 0.359 0.593 0.342" stroke="hsl(0.0,100%,35%)" stroke-width="0.00083"></path>
<path d="M0.376 0.289 Q0.633 0.494 1.089 0.414" stroke="hsl(0.0,100%,35%)" stroke-width="0.00063"></path>
<path d="M0.376 0.289 Q0.521 0.517 0.997 0.496" stroke="hsl(0.0,100%,35%)" stroke-width="0.00021"></path>
<path d="M0.376 0.289 Q-0.028 0.662 0.610 0.941" stroke="hsl(0.0,100%,35%)" stroke-width="0.00209"></path>
<path d="M0.866 0.668 Q0.990 0.450 0.593 0.342" stroke="hsl(0.0,100%,35%)" stroke-width="0.00021"></path>
<path d="M0.866 0.668 Q0.520 0.753 0.610 0.941" stroke="hsl(0.0,100%,35%)" stroke-width="0.00313"></path>
<path d="M0.866 0.668 Q0.900 0.533 0.644 0.488" stroke="hsl(0.0,100%,35%)" stroke-width="0.00313"></path>
<path d="M0.866 0.668 Q1.181 0.585 1.089 0.414" stroke="hsl(0.0,100%,35%)" stroke-width="0.00021"></path>
<path d="M0.673 0.290 Q0.501 0.383 0.644 0.488" stroke="hsl(0.0,100%,35%)" stroke-width="0.00083"></path>
<path d="M0.673 0.290 Q0.121 0.603 0.610 0.941" stroke="hsl(0.0,100%,35%)" stroke-width="0.00083"></path>
<path d="M0.673 0.290 Q0.329 0.440 0.547 0.641" stroke="hsl(0.0,100%,35%)" stroke-width="0.00042"></path>
<path d="M0.547 0.641 Q0.718 0.584 0.644 0.488" stroke="hsl(0.0,100%,35%)" stroke-width="0.00188"></path>
<path d="M0.547 0.641 Q0.655 0.661 0.719 0.613" stroke="hsl(0.0,100%,35%)" stroke-width="0.00021"></path>
<path d="M0.547 0.641 Q0.339 0.804 0.610 0.941" stroke="hsl(0.0,100%,35%)" stroke-width="0.00021"></path>
<path d="M1.271 0.535 Q1.278 0.438 1.089 0.414" stroke="hsl(180.0,100%,35%)" stroke-width="0.00146"></path>
<path d="M1.271 0.535 Q1.166 0.461 0.997 0.496" stroke="hsl(180.0,100%,35%)" stroke-width="0.00021"></path>
<path d="M1.271 0.535 Q1.218 0.517 1.171 0.539" stroke="hsl(180.0,100%,35%)" stroke-width="0.00021"></path>
<path d="M1.271 0.535 Q1.568 0.354 1.279 0.170" stroke="hsl(180.0,100%,35%)" stroke-width="0.00021"></path>
<path d="M1.271 0.535 Q0.996 0.386 0.644 0.488" stroke="hsl(180.0,100%,35%)" stroke-width="0.00021"></path>
<path d="M0.515 0.613 Q0.680 0.576 0.644 0.488" stroke="hsl(0.0,100%,35%)" stroke-width="0.00021"></path>
<path d="M0.515 0.613 Q0.406 0.731 0.613 0.811" stroke="hsl(0.0,100%,35%)" stroke-width="0.00021"></path>
<path d="M0.515 0.613 Q0.300 0.796 0.610 0.941" stroke="hsl(0.0,100%,35%)" stroke-width="0.00021"></path>
<path d="M0.857 0.411 Q0.309 0.626 0.610 0.941" stroke="hsl(0.0,100%,35%)" stroke-width="0.00250"></path>
<path d="M0.857 0.411 Q0.689 0.407 0.644 0.488" stroke="hsl(0.0,100%,35%)" stroke-width="0.00250"></path>
<path d="M0.857 0.411 Q1.260 0.375 1.279 0.170" stroke="hsl(0.0,100%,35%)" stroke-width="0.00021"></path>
<path d="M0.857 0.411 Q0.780 0.324 0.593 0.342" stroke="hsl(0.0,100%,35%)" stroke-width="0.00021"></path>
<path d="M0.857 0.411 Q0.911 0.538 1.171 0.539" stroke="hsl(0.0,100%,35%)" stroke-width="0.00021"></path>
<path d="M0.857 0.411 Q0.859 0.482 0.997 0.496" stroke="hsl(0.0,100%,35%)" stroke-width="0.00021"></path>
<path d="M1.412 0.674 Q1.459 0.479 1.089 0.414" stroke="hsl(180.0,100%,35%)" stroke-width="0.00021"></path>
<path d="M1.412 0.674 Q1.177 0.427 0.644 0.488" stroke="hsl(180.0,100%,35%)" stroke-width="0.00063"></path>
<path d="M1.412 0.674 Q1.399 0.558 1.171 0.539" stroke="hsl(180.0,100%,35%)" stroke-width="0.00083"></path>
<path d="M0.879 0.551 Q0.433 0.692 0.610 0.941" stroke="hsl(0.0,100%,35%)" stroke-width="0.00209"></path>
<path d="M0.879 0.551 Q0.812 0.472 0.644 0.488" stroke="hsl(0.0,100%,35%)" stroke-width="0.00229"></path>
<path d="M0.879 0.551 Q0.641 0.529 0.547 0.641" stroke="hsl(0.0,100%,35%)" stroke-width="0.00021"></path>
<path d="M0.879 0.551 Q0.698 0.598 0.751 0.696" stroke="hsl(0.0,100%,35%)" stroke-width="0.00021"></path>
<path d="M1.416 0.061 Q1.260 0.088 1.279 0.170" stroke="hsl(180.0,100%,35%)" stroke-width="0.00021"></path>
<path d="M1.416 0.061 Q1.047 0.101 1.044 0.289" stroke="hsl(180.0,100%,35%)" stroke-width="0.00021"></path>
<path d="M1.416 0.061 Q0.970 0.172 1.089 0.414" stroke="hsl(180.0,100%,35%)" stroke-width="0.00021"></path>
<path d="M1.416 0.061 Q0.309 0.340 0.610 0.941" stroke="hsl(180.0,100%,35%)" stroke-width="0.00021"></path>
<path d="M0.352 0.599 Q0.207 0.822 0.610 0.941" stroke="hsl(0.0,100%,35%)" stroke-width="0.00063"></path>
<path d="M0.352 0.599 Q0.587 0.602 0.644 0.488" stroke="hsl(0.0,100%,35%)" stroke-width="0.00063"></path>
<path d="M0.352 0.599 Q0.280 0.519 0.108 0.536" stroke="hsl(0.0,100%,35%)" stroke-width="0.00021"></path>
<path d="M0.435 0.491 Q0.404 0.440 0.299 0.444" stroke="hsl(0.0,100%,35%)" stroke-width="0.00021"></path>
<path d="M0.435 0.491 Q0.542 0.531 0.644 0.488" stroke="hsl(0.0,100%,35%)" stroke-width="0.00229"></path>
<path d="M0.435 0.491 Q0.163 0.751 0.610 0.941" stroke="hsl(0.0,100%,35%)" stroke-width="0.00021"></path>
<path d="M0.435 0.491 Q0.712 0.606 0.997 0.496" stroke="hsl(0.0,100%,35%)" stroke-width="0.00042"></path>
<path d="M0.435 0.491 Q0.452 0.447 0.371 0.430" stroke="hsl(0.0,100%,35%)" stroke-width="0.00021"></path>
<path d="M0.435 0.491 Q0.824 0.583 1.089 0.414" stroke="hsl(0.0,100%,35%)" stroke-width="0.00021"></path>
</g>
<text x="0.751" y="0.692" font-size="0.009270" fill="hsl(0.0,100%,20%)">albin.bernhardsson</text>
<text x="0.610" y="0.908" font-size="0.066245" fill="hsl(0.0,100%,20%)">cwallez</text>
<text x="0.644" y="0.450" font-size="0.075120" fill="hsl(0.0,100%,20%)">enga</text>
<text x="1.044" y="0.253" font-size="0.071486" fill="hsl(180.0,100%,20%)">dsinclair</text>
<text x="0.371" y="0.417" font-size="0.026220" fill="hsl(0.0,100%,20%)">kainino</text>
<text x="0.997" y="0.479" font-size="0.035096" fill="hsl(180.0,100%,20%)">amaiorano</text>
<text x="1.089" y="0.368" font-size="0.092081" fill="hsl(180.0,100%,20%)">bclayton</text>
<text x="1.171" y="0.505" font-size="0.067232" fill="hsl(180.0,100%,20%)">jrprice</text>
<text x="1.186" y="0.629" font-size="0.023815" fill="hsl(180.0,100%,20%)">dneto</text>
<text x="1.279" y="0.163" font-size="0.013750" fill="hsl(180.0,100%,20%)">rharrison</text>
<text x="1.581" y="0.206" font-size="0.004787" fill="hsl(0.0,100%,20%)">andre</text>
<text x="0.925" y="0.881" font-size="0.014361" fill="hsl(0.0,100%,20%)">arthursonzogni</text>
<text x="0.847" y="0.837" font-size="0.002394" fill="hsl(0.0,100%,20%)">khaslett</text>
<text x="0.356" y="0.217" font-size="0.006770" fill="hsl(0.0,100%,20%)">austineng</text>
<text x="0.453" y="0.769" font-size="0.023452" fill="hsl(0.0,100%,20%)">shrekshao</text>
<text x="0.593" y="0.320" font-size="0.044522" fill="hsl(0.0,100%,20%)">lokokung</text>
<text x="0.674" y="0.092" font-size="0.004787" fill="hsl(0.0,100%,20%)">avi</text>
<text x="0.647" y="0.560" font-size="0.020310" fill="hsl(0.0,100%,20%)">bajones</text>
<text x="0.415" y="0.563" font-size="0.003385" fill="hsl(180.0,100%,20%)">brucedawson</text>
<text x="0.904" y="0.569" font-size="0.023695" fill="hsl(0.0,100%,20%)">senorblanco</text>
<text x="0.744" y="0.407" font-size="0.002394" fill="hsl(180.0,100%,20%)">kjlubick</text>
<text x="0.613" y="0.792" font-size="0.036770" fill="hsl(0.0,100%,20%)">jiawei.shao</text>
<text x="0.937" y="0.872" font-size="0.014755" fill="hsl(0.0,100%,20%)">beaufort.francois</text>
<text x="0.864" y="0.776" font-size="0.011479" fill="hsl(0.0,100%,20%)">blundell</text>
<text x="1.065" y="0.614" font-size="0.010433" fill="hsl(180.0,100%,20%)">brandon1.jones</text>
<text x="0.745" y="0.842" font-size="0.002394" fill="hsl(0.0,100%,20%)">fhorschig</text>
<text x="0.850" y="0.988" font-size="0.002394" fill="hsl(0.0,100%,20%)">jamesgk</text>
<text x="0.719" y="0.597" font-size="0.031391" fill="hsl(0.0,100%,20%)">penghuang</text>
<text x="0.108" y="0.528" font-size="0.017260" fill="hsl(0.0,100%,20%)">lehoangquyen</text>
<text x="0.829" y="0.867" font-size="0.002394" fill="hsl(0.0,100%,20%)">fbeaufort</text>
<text x="0.137" y="0.447" font-size="0.007181" fill="hsl(0.0,100%,20%)">yunchao.he</text>
<text x="0.327" y="0.471" font-size="0.004146" fill="hsl(0.0,100%,20%)">danakj</text>
<text x="1.404" y="0.630" font-size="0.004146" fill="hsl(180.0,100%,20%)">alanbaker</text>
<text x="0.601" y="0.693" font-size="0.017751" fill="hsl(0.0,100%,20%)">gman</text>
<text x="0.808" y="0.926" font-size="0.006333" fill="hsl(0.0,100%,20%)">elie.michel.fr</text>
<text x="0.299" y="0.441" font-size="0.004787" fill="hsl(0.0,100%,20%)">bsheedy</text>
<text x="0.930" y="0.721" font-size="0.024174" fill="hsl(0.0,100%,20%)">jie.a.chen</text>
<text x="0.221" y="0.538" font-size="0.004146" fill="hsl(0.0,100%,20%)">toji</text>
<text x="0.376" y="0.283" font-size="0.012890" fill="hsl(0.0,100%,20%)">tiszka</text>
<text x="0.866" y="0.661" font-size="0.013540" fill="hsl(0.0,100%,20%)">hao.x.li</text>
<text x="0.673" y="0.286" font-size="0.007569" fill="hsl(0.0,100%,20%)">hitawala</text>
<text x="0.547" y="0.636" font-size="0.008956" fill="hsl(0.0,100%,20%)">sunnyps</text>
<text x="1.271" y="0.531" font-size="0.007938" fill="hsl(180.0,100%,20%)">jason.erb</text>
<text x="0.515" y="0.611" font-size="0.004146" fill="hsl(0.0,100%,20%)">jianlin.qiu</text>
<text x="0.857" y="0.404" font-size="0.012890" fill="hsl(0.0,100%,20%)">zhaoming.jiang</text>
<text x="0.342" y="0.847" font-size="0.003385" fill="hsl(0.0,100%,20%)">rafael.cintron</text>
<text x="1.412" y="0.670" font-size="0.006770" fill="hsl(180.0,100%,20%)">jojwang</text>
<text x="1.650" y="0.617" font-size="0.002394" fill="hsl(180.0,100%,20%)">johnstiles</text>
<text x="0.753" y="0.212" font-size="0.002394" fill="hsl(0.0,100%,20%)">kbr</text>
<text x="0.879" y="0.545" font-size="0.011479" fill="hsl(0.0,100%,20%)">shaobo.yan</text>
<text x="1.416" y="0.058" font-size="0.004787" fill="hsl(180.0,100%,20%)">stha09</text>
<text x="0.352" y="0.596" font-size="0.006333" fill="hsl(0.0,100%,20%)">vollick</text>
<text x="0.435" y="0.486" font-size="0.009869" fill="hsl(0.0,100%,20%)">ynovikov</text>
</svg>
