<svg width="4000" height="2000" viewBox="-0.025 -0.025 2.05 1.05" xmlns="http://www.w3.org/2000/svg">
  <style>
    path {
      fill: none;
      stroke-linecap: round;
      stroke-opacity: 0.4;
    }

    text {
      text-anchor: middle;
      alignment-baseline: hanging;
    }
  </style>
  <g opacity="0.4">
<path d="M1.038 0.303 Q0.940 0.215 0.748 0.244" stroke="hsl(0.0,100%,35%)" stroke-width="0.00416"></path>
<path d="M1.038 0.303 Q1.151 0.206 0.987 0.130" stroke="hsl(0.0,100%,35%)" stroke-width="0.00370"></path>
<path d="M1.038 0.303 Q1.372 0.242 1.326 0.067" stroke="hsl(0.0,100%,35%)" stroke-width="0.00046"></path>
<path d="M0.748 0.244 Q1.038 0.296 1.202 0.165" stroke="hsl(0.0,100%,35%)" stroke-width="0.00139"></path>
<path d="M0.748 0.244 Q1.179 0.271 1.326 0.067" stroke="hsl(0.0,100%,35%)" stroke-width="0.04905"></path>
<path d="M0.748 0.244 Q0.959 0.235 0.987 0.130" stroke="hsl(0.0,100%,35%)" stroke-width="0.06663"></path>
<path d="M0.748 0.244 Q0.524 0.317 0.617 0.442" stroke="hsl(0.0,100%,35%)" stroke-width="0.00416"></path>
<path d="M0.748 0.244 Q0.318 0.635 0.985 0.930" stroke="hsl(0.0,100%,35%)" stroke-width="0.00046"></path>
<path d="M0.748 0.244 Q0.674 0.276 0.720 0.319" stroke="hsl(0.0,100%,35%)" stroke-width="0.00093"></path>
<path d="M0.748 0.244 Q0.797 0.354 1.021 0.354" stroke="hsl(0.0,100%,35%)" stroke-width="0.00694"></path>
<path d="M0.748 0.244 Q1.063 0.288 1.217 0.143" stroke="hsl(0.0,100%,35%)" stroke-width="0.00324"></path>
<path d="M0.748 0.244 Q0.950 0.391 1.281 0.324" stroke="hsl(0.0,100%,35%)" stroke-width="0.00046"></path>
<path d="M0.748 0.244 Q1.169 0.353 1.475 0.171" stroke="hsl(0.0,100%,35%)" stroke-width="0.00093"></path>
<path d="M0.748 0.244 Q0.967 0.118 0.768 -0.017" stroke="hsl(0.0,100%,35%)" stroke-width="0.00046"></path>
<path d="M0.748 0.244 Q0.846 0.332 1.038 0.303" stroke="hsl(0.0,100%,35%)" stroke-width="0.00046"></path>
<path d="M0.748 0.244 Q0.529 0.208 0.410 0.306" stroke="hsl(0.0,100%,35%)" stroke-width="0.00046"></path>
<path d="M0.748 0.244 Q0.629 0.377 0.862 0.465" stroke="hsl(0.0,100%,35%)" stroke-width="0.00046"></path>
<path d="M0.748 0.244 Q1.301 0.345 1.619 0.097" stroke="hsl(0.0,100%,35%)" stroke-width="0.00093"></path>
<path d="M0.748 0.244 Q1.413 0.413 1.888 0.125" stroke="hsl(0.0,100%,35%)" stroke-width="0.00046"></path>
<path d="M0.987 0.130 Q1.208 0.166 1.326 0.067" stroke="hsl(0.0,100%,35%)" stroke-width="0.04997"></path>
<path d="M0.987 0.130 Q0.776 0.139 0.748 0.244" stroke="hsl(0.0,100%,35%)" stroke-width="0.04257"></path>
<path d="M0.987 0.130 Q0.825 0.249 1.021 0.354" stroke="hsl(0.0,100%,35%)" stroke-width="0.00231"></path>
<path d="M0.987 0.130 Q0.927 0.011 0.682 0.014" stroke="hsl(0.0,100%,35%)" stroke-width="0.00093"></path>
<path d="M0.987 0.130 Q0.553 0.212 0.617 0.442" stroke="hsl(0.0,100%,35%)" stroke-width="0.00046"></path>
<path d="M0.987 0.130 Q0.783 0.191 0.858 0.304" stroke="hsl(0.0,100%,35%)" stroke-width="0.00046"></path>
<path d="M1.326 0.067 Q1.185 0.091 1.202 0.165" stroke="hsl(0.0,100%,35%)" stroke-width="0.00046"></path>
<path d="M1.326 0.067 Q1.106 0.031 0.987 0.130" stroke="hsl(0.0,100%,35%)" stroke-width="0.00231"></path>
<path d="M1.326 0.067 Q0.895 0.040 0.748 0.244" stroke="hsl(0.0,100%,35%)" stroke-width="0.00231"></path>
<path d="M1.326 0.067 Q0.944 0.149 1.021 0.354" stroke="hsl(0.0,100%,35%)" stroke-width="0.00046"></path>
<path d="M1.140 0.242 Q1.153 0.156 0.987 0.130" stroke="hsl(0.0,100%,35%)" stroke-width="0.00278"></path>
<path d="M1.140 0.242 Q0.942 0.165 0.748 0.244" stroke="hsl(0.0,100%,35%)" stroke-width="0.00416"></path>
<path d="M1.140 0.242 Q1.373 0.192 1.326 0.067" stroke="hsl(0.0,100%,35%)" stroke-width="0.00231"></path>
<path d="M1.140 0.242 Q0.968 0.388 1.215 0.504" stroke="hsl(0.0,100%,35%)" stroke-width="0.00046"></path>
<path d="M1.215 0.504 Q1.400 0.271 0.987 0.130" stroke="hsl(0.0,100%,35%)" stroke-width="0.00185"></path>
<path d="M1.215 0.504 Q1.189 0.280 0.748 0.244" stroke="hsl(0.0,100%,35%)" stroke-width="0.00370"></path>
<path d="M1.215 0.504 Q1.620 0.307 1.326 0.067" stroke="hsl(0.0,100%,35%)" stroke-width="0.00278"></path>
<path d="M1.475 0.171 Q1.264 0.053 0.987 0.130" stroke="hsl(0.0,100%,35%)" stroke-width="0.01249"></path>
<path d="M1.475 0.171 Q1.053 0.062 0.748 0.244" stroke="hsl(0.0,100%,35%)" stroke-width="0.01249"></path>
<path d="M1.475 0.171 Q1.484 0.089 1.326 0.067" stroke="hsl(0.0,100%,35%)" stroke-width="0.00370"></path>
<path d="M1.202 0.165 Q0.912 0.114 0.748 0.244" stroke="hsl(0.0,100%,35%)" stroke-width="0.01619"></path>
<path d="M1.202 0.165 Q1.123 0.105 0.987 0.130" stroke="hsl(0.0,100%,35%)" stroke-width="0.01157"></path>
<path d="M1.202 0.165 Q1.343 0.141 1.326 0.067" stroke="hsl(0.0,100%,35%)" stroke-width="0.00925"></path>
<path d="M1.202 0.165 Q0.961 0.224 1.021 0.354" stroke="hsl(0.0,100%,35%)" stroke-width="0.00046"></path>
<path d="M1.202 0.165 Q0.482 0.505 0.985 0.930" stroke="hsl(0.0,100%,35%)" stroke-width="0.00046"></path>
<path d="M0.985 0.930 Q1.091 0.823 0.904 0.747" stroke="hsl(180.0,100%,35%)" stroke-width="0.01851"></path>
<path d="M0.985 0.930 Q0.879 0.828 0.656 0.858" stroke="hsl(180.0,100%,35%)" stroke-width="0.01666"></path>
<path d="M0.985 0.930 Q1.706 0.591 1.202 0.165" stroke="hsl(180.0,100%,35%)" stroke-width="0.00046"></path>
<path d="M0.985 0.930 Q1.416 0.540 0.748 0.244" stroke="hsl(180.0,100%,35%)" stroke-width="0.00093"></path>
<path d="M1.021 0.354 Q1.183 0.235 0.987 0.130" stroke="hsl(0.0,100%,35%)" stroke-width="0.01388"></path>
<path d="M1.021 0.354 Q1.404 0.271 1.326 0.067" stroke="hsl(0.0,100%,35%)" stroke-width="0.00833"></path>
<path d="M1.021 0.354 Q0.972 0.244 0.748 0.244" stroke="hsl(0.0,100%,35%)" stroke-width="0.01851"></path>
<path d="M1.217 0.143 Q0.902 0.100 0.748 0.244" stroke="hsl(0.0,100%,35%)" stroke-width="0.01434"></path>
<path d="M1.217 0.143 Q1.113 0.091 0.987 0.130" stroke="hsl(0.0,100%,35%)" stroke-width="0.01249"></path>
<path d="M1.217 0.143 Q1.333 0.127 1.326 0.067" stroke="hsl(0.0,100%,35%)" stroke-width="0.00602"></path>
<path d="M1.281 0.324 Q1.078 0.178 0.748 0.244" stroke="hsl(0.0,100%,35%)" stroke-width="0.00139"></path>
<path d="M1.281 0.324 Q1.289 0.168 0.987 0.130" stroke="hsl(0.0,100%,35%)" stroke-width="0.00463"></path>
<path d="M1.281 0.324 Q1.509 0.204 1.326 0.067" stroke="hsl(0.0,100%,35%)" stroke-width="0.00185"></path>
<path d="M0.768 -0.017 Q0.760 0.100 0.987 0.130" stroke="hsl(0.0,100%,35%)" stroke-width="0.00093"></path>
<path d="M0.768 -0.017 Q0.549 0.109 0.748 0.244" stroke="hsl(0.0,100%,35%)" stroke-width="0.00093"></path>
<path d="M0.768 -0.017 Q0.980 0.136 1.326 0.067" stroke="hsl(0.0,100%,35%)" stroke-width="0.00093"></path>
<path d="M1.619 0.097 Q1.497 0.023 1.326 0.067" stroke="hsl(0.0,100%,35%)" stroke-width="0.00555"></path>
<path d="M1.619 0.097 Q1.277 -0.013 0.987 0.130" stroke="hsl(0.0,100%,35%)" stroke-width="0.00093"></path>
<path d="M1.619 0.097 Q1.066 -0.004 0.748 0.244" stroke="hsl(0.0,100%,35%)" stroke-width="0.00231"></path>
<path d="M1.888 0.125 Q1.654 -0.017 1.326 0.067" stroke="hsl(0.0,100%,35%)" stroke-width="0.00694"></path>
<path d="M1.888 0.125 Q1.223 -0.044 0.748 0.244" stroke="hsl(0.0,100%,35%)" stroke-width="0.01018"></path>
<path d="M1.888 0.125 Q1.434 -0.053 0.987 0.130" stroke="hsl(0.0,100%,35%)" stroke-width="0.00694"></path>
<path d="M1.888 0.125 Q1.249 0.180 1.215 0.504" stroke="hsl(0.0,100%,35%)" stroke-width="0.00139"></path>
<path d="M0.930 0.422 Q1.030 0.406 1.021 0.354" stroke="hsl(0.0,100%,35%)" stroke-width="0.00046"></path>
<path d="M0.930 0.422 Q0.982 0.297 0.748 0.244" stroke="hsl(0.0,100%,35%)" stroke-width="0.00787"></path>
<path d="M0.930 0.422 Q1.193 0.288 0.987 0.130" stroke="hsl(0.0,100%,35%)" stroke-width="0.00278"></path>
<path d="M0.930 0.422 Q1.413 0.324 1.326 0.067" stroke="hsl(0.0,100%,35%)" stroke-width="0.00278"></path>
<path d="M1.066 0.255 Q1.126 0.177 0.987 0.130" stroke="hsl(0.0,100%,35%)" stroke-width="0.00046"></path>
<path d="M1.066 0.255 Q0.915 0.186 0.748 0.244" stroke="hsl(0.0,100%,35%)" stroke-width="0.00185"></path>
<path d="M1.066 0.255 Q1.346 0.213 1.326 0.067" stroke="hsl(0.0,100%,35%)" stroke-width="0.00093"></path>
<path d="M0.706 0.476 Q0.912 0.368 0.748 0.244" stroke="hsl(0.0,100%,35%)" stroke-width="0.00602"></path>
<path d="M0.706 0.476 Q1.123 0.359 0.987 0.130" stroke="hsl(0.0,100%,35%)" stroke-width="0.00324"></path>
<path d="M0.706 0.476 Q1.344 0.395 1.326 0.067" stroke="hsl(0.0,100%,35%)" stroke-width="0.00231"></path>
<path d="M1.245 0.314 Q1.052 0.180 0.748 0.244" stroke="hsl(0.0,100%,35%)" stroke-width="0.00139"></path>
<path d="M1.245 0.314 Q1.263 0.171 0.987 0.130" stroke="hsl(0.0,100%,35%)" stroke-width="0.00139"></path>
<path d="M1.245 0.314 Q1.484 0.207 1.326 0.067" stroke="hsl(0.0,100%,35%)" stroke-width="0.00046"></path>
</g>
<text x="1.038" y="0.294" font-size="0.018395" fill="hsl(0.0,100%,20%)">beaufort.francois</text>
<text x="0.748" y="0.191" font-size="0.105419" fill="hsl(0.0,100%,20%)">cwallez</text>
<text x="0.987" y="0.082" font-size="0.097246" fill="hsl(0.0,100%,20%)">enga</text>
<text x="1.326" y="0.027" font-size="0.078272" fill="hsl(0.0,100%,20%)">kainino</text>
<text x="1.140" y="0.232" font-size="0.019339" fill="hsl(0.0,100%,20%)">brandon1.jones</text>
<text x="1.215" y="0.494" font-size="0.019794" fill="hsl(0.0,100%,20%)">rafael.cintron</text>
<text x="1.475" y="0.154" font-size="0.033761" fill="hsl(0.0,100%,20%)">bryan.bernhart</text>
<text x="1.202" y="0.146" font-size="0.039363" fill="hsl(0.0,100%,20%)">rharrison</text>
<text x="0.617" y="0.435" font-size="0.013345" fill="hsl(0.0,100%,20%)">digit</text>
<text x="0.985" y="0.911" font-size="0.037981" fill="hsl(180.0,100%,20%)">dsinclair</text>
<text x="0.720" y="0.316" font-size="0.005968" fill="hsl(0.0,100%,20%)">thakis</text>
<text x="1.021" y="0.332" font-size="0.044462" fill="hsl(0.0,100%,20%)">jiawei.shao</text>
<text x="1.217" y="0.125" font-size="0.037271" fill="hsl(0.0,100%,20%)">yunchao.he</text>
<text x="1.281" y="0.315" font-size="0.017904" fill="hsl(0.0,100%,20%)">hob</text>
<text x="0.768" y="-0.023" font-size="0.011165" fill="hsl(0.0,100%,20%)">senorblanco</text>
<text x="0.410" y="0.304" font-size="0.004220" fill="hsl(0.0,100%,20%)">oshima</text>
<text x="0.862" y="0.463" font-size="0.004220" fill="hsl(0.0,100%,20%)">afakhry</text>
<text x="1.619" y="0.087" font-size="0.019339" fill="hsl(0.0,100%,20%)">idanr</text>
<text x="1.888" y="0.109" font-size="0.031581" fill="hsl(0.0,100%,20%)">natlee</text>
<text x="0.904" y="0.734" font-size="0.026690" fill="hsl(180.0,100%,20%)">dneto</text>
<text x="0.656" y="0.845" font-size="0.025321" fill="hsl(180.0,100%,20%)">sarahmashay</text>
<text x="0.682" y="0.011" font-size="0.005968" fill="hsl(0.0,100%,20%)">mehe</text>
<text x="0.858" y="0.302" font-size="0.004220" fill="hsl(0.0,100%,20%)">kbr</text>
<text x="0.930" y="0.411" font-size="0.023115" fill="hsl(0.0,100%,20%)">hao.x.li</text>
<text x="1.066" y="0.249" font-size="0.011165" fill="hsl(0.0,100%,20%)">jiajie.hu</text>
<text x="0.706" y="0.465" font-size="0.021101" fill="hsl(0.0,100%,20%)">shaobo.yan</text>
<text x="1.245" y="0.309" font-size="0.011165" fill="hsl(0.0,100%,20%)">yizhou.jiang</text>
</svg>
