<svg width="4000" height="2000" viewBox="-0.025 -0.025 2.05 1.05" xmlns="http://www.w3.org/2000/svg">
  <style>
    path {
      fill: none;
      stroke-linecap: round;
      stroke-opacity: 0.4;
    }

    text {
      text-anchor: middle;
      alignment-baseline: hanging;
    }
  </style>
  <g opacity="0.4">
<path d="M0.877 0.209 Q1.013 0.181 0.987 0.108" stroke="hsl(0.0,100%,35%)" stroke-width="0.01229"></path>
<path d="M0.877 0.209 Q0.094 0.420 0.334 0.848" stroke="hsl(0.0,100%,35%)" stroke-width="0.01187"></path>
<path d="M0.877 0.209 Q0.403 0.586 1.033 0.900" stroke="hsl(0.0,100%,35%)" stroke-width="0.00254"></path>
<path d="M0.877 0.209 Q0.955 0.096 0.751 0.033" stroke="hsl(0.0,100%,35%)" stroke-width="0.00085"></path>
<path d="M0.877 0.209 Q0.471 0.367 0.690 0.600" stroke="hsl(0.0,100%,35%)" stroke-width="0.00085"></path>
<path d="M0.877 0.209 Q0.726 0.100 0.480 0.150" stroke="hsl(0.0,100%,35%)" stroke-width="0.00170"></path>
<path d="M0.877 0.209 Q1.022 0.371 1.370 0.336" stroke="hsl(0.0,100%,35%)" stroke-width="0.00042"></path>
<path d="M0.987 0.108 Q0.851 0.137 0.877 0.209" stroke="hsl(0.0,100%,35%)" stroke-width="0.02755"></path>
<path d="M0.987 0.108 Q0.929 0.023 0.751 0.033" stroke="hsl(0.0,100%,35%)" stroke-width="0.04027"></path>
<path d="M0.987 0.108 Q0.700 0.028 0.480 0.150" stroke="hsl(0.0,100%,35%)" stroke-width="0.04408"></path>
<path d="M0.987 0.108 Q0.377 0.513 1.033 0.900" stroke="hsl(0.0,100%,35%)" stroke-width="0.01907"></path>
<path d="M0.987 0.108 Q0.694 0.120 0.653 0.266" stroke="hsl(0.0,100%,35%)" stroke-width="0.00975"></path>
<path d="M0.987 0.108 Q0.445 0.295 0.690 0.600" stroke="hsl(0.0,100%,35%)" stroke-width="0.00127"></path>
<path d="M0.987 0.108 Q0.418 0.424 0.909 0.770" stroke="hsl(0.0,100%,35%)" stroke-width="0.00042"></path>
<path d="M0.987 0.108 Q0.068 0.348 0.334 0.848" stroke="hsl(0.0,100%,35%)" stroke-width="0.01399"></path>
<path d="M0.987 0.108 Q0.983 0.164 1.091 0.178" stroke="hsl(0.0,100%,35%)" stroke-width="0.00042"></path>
<path d="M0.987 0.108 Q0.300 0.351 0.623 0.740" stroke="hsl(0.0,100%,35%)" stroke-width="0.00085"></path>
<path d="M0.987 0.108 Q0.547 0.182 0.596 0.413" stroke="hsl(0.0,100%,35%)" stroke-width="0.00042"></path>
<path d="M0.987 0.108 Q0.516 0.375 0.934 0.664" stroke="hsl(0.0,100%,35%)" stroke-width="0.00042"></path>
<path d="M0.334 0.848 Q0.195 0.833 0.136 0.898" stroke="hsl(180.0,100%,35%)" stroke-width="0.01823"></path>
<path d="M0.334 0.848 Q0.711 0.795 0.690 0.600" stroke="hsl(180.0,100%,35%)" stroke-width="0.00678"></path>
<path d="M0.334 0.848 Q0.643 1.014 1.033 0.900" stroke="hsl(180.0,100%,35%)" stroke-width="0.00848"></path>
<path d="M0.334 0.848 Q0.888 0.933 1.175 0.682" stroke="hsl(180.0,100%,35%)" stroke-width="0.00042"></path>
<path d="M0.334 0.848 Q1.117 0.637 0.877 0.209" stroke="hsl(180.0,100%,35%)" stroke-width="0.00212"></path>
<path d="M0.334 0.848 Q0.565 0.852 0.623 0.740" stroke="hsl(180.0,100%,35%)" stroke-width="0.00170"></path>
<path d="M0.334 0.848 Q0.965 0.528 0.480 0.150" stroke="hsl(180.0,100%,35%)" stroke-width="0.00085"></path>
<path d="M0.334 0.848 Q1.252 0.609 0.987 0.108" stroke="hsl(180.0,100%,35%)" stroke-width="0.00127"></path>
<path d="M0.334 0.848 Q0.621 0.816 0.621 0.669" stroke="hsl(180.0,100%,35%)" stroke-width="0.00042"></path>
<path d="M0.334 0.848 Q1.195 0.524 0.751 0.033" stroke="hsl(180.0,100%,35%)" stroke-width="0.00042"></path>
<path d="M0.334 0.848 Q0.782 0.876 0.934 0.664" stroke="hsl(180.0,100%,35%)" stroke-width="0.00042"></path>
<path d="M0.334 0.848 Q0.959 0.621 0.653 0.266" stroke="hsl(180.0,100%,35%)" stroke-width="0.00127"></path>
<path d="M0.334 0.848 Q0.559 0.810 0.533 0.692" stroke="hsl(180.0,100%,35%)" stroke-width="0.00042"></path>
<path d="M1.033 0.900 Q1.643 0.495 0.987 0.108" stroke="hsl(180.0,100%,35%)" stroke-width="0.01780"></path>
<path d="M1.033 0.900 Q1.356 0.414 0.480 0.150" stroke="hsl(180.0,100%,35%)" stroke-width="0.00127"></path>
<path d="M1.033 0.900 Q0.586 0.719 0.136 0.898" stroke="hsl(180.0,100%,35%)" stroke-width="0.01441"></path>
<path d="M1.033 0.900 Q0.725 0.734 0.334 0.848" stroke="hsl(180.0,100%,35%)" stroke-width="0.02458"></path>
<path d="M1.033 0.900 Q1.173 0.762 0.934 0.664" stroke="hsl(180.0,100%,35%)" stroke-width="0.00170"></path>
<path d="M1.033 0.900 Q0.789 0.839 0.617 0.945" stroke="hsl(180.0,100%,35%)" stroke-width="0.00042"></path>
<path d="M1.033 0.900 Q1.075 0.810 0.909 0.770" stroke="hsl(180.0,100%,35%)" stroke-width="0.00085"></path>
<path d="M1.033 0.900 Q1.101 0.681 0.690 0.600" stroke="hsl(180.0,100%,35%)" stroke-width="0.00170"></path>
<path d="M1.033 0.900 Q0.956 0.738 0.623 0.740" stroke="hsl(180.0,100%,35%)" stroke-width="0.00127"></path>
<path d="M1.033 0.900 Q1.287 0.868 1.281 0.737" stroke="hsl(180.0,100%,35%)" stroke-width="0.00042"></path>
<path d="M1.033 0.900 Q1.507 0.523 0.877 0.209" stroke="hsl(180.0,100%,35%)" stroke-width="0.00042"></path>
<path d="M1.033 0.900 Q1.204 0.569 0.596 0.413" stroke="hsl(180.0,100%,35%)" stroke-width="0.00042"></path>
<path d="M1.033 0.900 Q1.179 0.952 1.314 0.893" stroke="hsl(180.0,100%,35%)" stroke-width="0.00042"></path>
<path d="M1.033 0.900 Q0.950 0.696 0.533 0.692" stroke="hsl(180.0,100%,35%)" stroke-width="0.00042"></path>
<path d="M0.751 0.033 Q0.808 0.118 0.987 0.108" stroke="hsl(0.0,100%,35%)" stroke-width="0.01992"></path>
<path d="M0.751 0.033 Q0.515 0.130 0.653 0.266" stroke="hsl(0.0,100%,35%)" stroke-width="0.00636"></path>
<path d="M0.751 0.033 Q0.672 0.146 0.877 0.209" stroke="hsl(0.0,100%,35%)" stroke-width="0.00127"></path>
<path d="M0.751 0.033 Q0.521 0.037 0.480 0.150" stroke="hsl(0.0,100%,35%)" stroke-width="0.00381"></path>
<path d="M0.751 0.033 Q0.121 0.361 0.623 0.740" stroke="hsl(0.0,100%,35%)" stroke-width="0.00127"></path>
<path d="M0.751 0.033 Q0.198 0.523 1.033 0.900" stroke="hsl(0.0,100%,35%)" stroke-width="0.00127"></path>
<path d="M0.751 0.033 Q-0.110 0.357 0.334 0.848" stroke="hsl(0.0,100%,35%)" stroke-width="0.00170"></path>
<path d="M0.751 0.033 Q-0.171 0.278 0.105 0.782" stroke="hsl(0.0,100%,35%)" stroke-width="0.00042"></path>
<path d="M0.690 0.600 Q0.622 0.818 1.033 0.900" stroke="hsl(180.0,100%,35%)" stroke-width="0.00466"></path>
<path d="M0.690 0.600 Q0.175 0.638 0.136 0.898" stroke="hsl(180.0,100%,35%)" stroke-width="0.00424"></path>
<path d="M0.690 0.600 Q0.314 0.653 0.334 0.848" stroke="hsl(180.0,100%,35%)" stroke-width="0.00170"></path>
<path d="M0.690 0.600 Q1.232 0.413 0.987 0.108" stroke="hsl(180.0,100%,35%)" stroke-width="0.00042"></path>
<path d="M0.690 0.600 Q0.514 0.794 0.854 0.923" stroke="hsl(180.0,100%,35%)" stroke-width="0.00042"></path>
<path d="M0.690 0.600 Q0.867 0.738 1.175 0.682" stroke="hsl(180.0,100%,35%)" stroke-width="0.00042"></path>
<path d="M0.480 0.150 Q0.767 0.230 0.987 0.108" stroke="hsl(0.0,100%,35%)" stroke-width="0.03264"></path>
<path d="M0.480 0.150 Q0.631 0.259 0.877 0.209" stroke="hsl(0.0,100%,35%)" stroke-width="0.00339"></path>
<path d="M0.480 0.150 Q0.297 0.498 0.934 0.664" stroke="hsl(0.0,100%,35%)" stroke-width="0.00127"></path>
<path d="M0.480 0.150 Q0.402 0.555 1.175 0.682" stroke="hsl(0.0,100%,35%)" stroke-width="0.00042"></path>
<path d="M0.480 0.150 Q-0.213 0.391 0.105 0.782" stroke="hsl(0.0,100%,35%)" stroke-width="0.00042"></path>
<path d="M0.480 0.150 Q0.710 0.146 0.751 0.033" stroke="hsl(0.0,100%,35%)" stroke-width="0.00721"></path>
<path d="M0.480 0.150 Q0.157 0.636 1.033 0.900" stroke="hsl(0.0,100%,35%)" stroke-width="0.00297"></path>
<path d="M0.480 0.150 Q0.328 0.305 0.596 0.413" stroke="hsl(0.0,100%,35%)" stroke-width="0.00085"></path>
<path d="M0.480 0.150 Q-0.151 0.470 0.334 0.848" stroke="hsl(0.0,100%,35%)" stroke-width="0.00085"></path>
<path d="M0.480 0.150 Q0.340 0.174 0.356 0.248" stroke="hsl(0.0,100%,35%)" stroke-width="0.00042"></path>
<path d="M1.370 0.336 Q0.665 0.191 0.226 0.503" stroke="hsl(180.0,100%,35%)" stroke-width="0.00042"></path>
<path d="M1.370 0.336 Q0.442 0.385 0.334 0.848" stroke="hsl(180.0,100%,35%)" stroke-width="0.00085"></path>
<path d="M1.370 0.336 Q0.751 0.551 1.033 0.900" stroke="hsl(180.0,100%,35%)" stroke-width="0.00042"></path>
<path d="M1.370 0.336 Q1.225 0.174 0.877 0.209" stroke="hsl(180.0,100%,35%)" stroke-width="0.00085"></path>
<path d="M1.370 0.336 Q0.819 0.332 0.690 0.600" stroke="hsl(180.0,100%,35%)" stroke-width="0.00042"></path>
<path d="M1.121 0.176 Q1.108 0.115 0.987 0.108" stroke="hsl(0.0,100%,35%)" stroke-width="0.00085"></path>
<path d="M1.121 0.176 Q0.498 0.520 1.033 0.900" stroke="hsl(0.0,100%,35%)" stroke-width="0.00042"></path>
<path d="M0.909 0.770 Q0.868 0.860 1.033 0.900" stroke="hsl(180.0,100%,35%)" stroke-width="0.01060"></path>
<path d="M0.909 0.770 Q0.559 0.694 0.334 0.848" stroke="hsl(180.0,100%,35%)" stroke-width="0.00085"></path>
<path d="M0.909 0.770 Q1.066 0.810 1.179 0.742" stroke="hsl(180.0,100%,35%)" stroke-width="0.00042"></path>
<path d="M0.909 0.770 Q1.477 0.455 0.987 0.108" stroke="hsl(180.0,100%,35%)" stroke-width="0.00297"></path>
<path d="M0.867 0.510 Q0.639 0.738 1.033 0.900" stroke="hsl(180.0,100%,35%)" stroke-width="0.00085"></path>
<path d="M0.867 0.510 Q0.707 0.520 0.690 0.600" stroke="hsl(180.0,100%,35%)" stroke-width="0.00085"></path>
<path d="M0.867 0.510 Q0.884 0.658 1.175 0.682" stroke="hsl(180.0,100%,35%)" stroke-width="0.00042"></path>
<path d="M0.867 0.510 Q0.192 0.558 0.136 0.898" stroke="hsl(180.0,100%,35%)" stroke-width="0.00042"></path>
<path d="M0.867 0.510 Q1.249 0.333 0.987 0.108" stroke="hsl(180.0,100%,35%)" stroke-width="0.00042"></path>
<path d="M0.867 0.510 Q0.330 0.573 0.334 0.848" stroke="hsl(180.0,100%,35%)" stroke-width="0.00042"></path>
<path d="M1.175 0.682 Q0.622 0.597 0.334 0.848" stroke="hsl(180.0,100%,35%)" stroke-width="0.00805"></path>
<path d="M1.175 0.682 Q1.070 0.625 0.934 0.664" stroke="hsl(180.0,100%,35%)" stroke-width="0.00636"></path>
<path d="M1.175 0.682 Q1.253 0.277 0.480 0.150" stroke="hsl(180.0,100%,35%)" stroke-width="0.00085"></path>
<path d="M1.175 0.682 Q1.483 0.272 0.751 0.033" stroke="hsl(180.0,100%,35%)" stroke-width="0.00042"></path>
<path d="M1.175 0.682 Q0.998 0.544 0.690 0.600" stroke="hsl(180.0,100%,35%)" stroke-width="0.00085"></path>
<path d="M1.175 0.682 Q0.853 0.600 0.623 0.740" stroke="hsl(180.0,100%,35%)" stroke-width="0.00042"></path>
<path d="M1.175 0.682 Q0.483 0.582 0.136 0.898" stroke="hsl(180.0,100%,35%)" stroke-width="0.00170"></path>
<path d="M1.175 0.682 Q1.540 0.357 0.987 0.108" stroke="hsl(180.0,100%,35%)" stroke-width="0.00127"></path>
<path d="M1.175 0.682 Q0.930 0.762 1.033 0.900" stroke="hsl(180.0,100%,35%)" stroke-width="0.00042"></path>
<path d="M0.136 0.898 Q0.275 0.913 0.334 0.848" stroke="hsl(180.0,100%,35%)" stroke-width="0.01950"></path>
<path d="M0.136 0.898 Q0.651 0.860 0.690 0.600" stroke="hsl(180.0,100%,35%)" stroke-width="0.00466"></path>
<path d="M0.136 0.898 Q0.583 1.078 1.033 0.900" stroke="hsl(180.0,100%,35%)" stroke-width="0.00763"></path>
<path d="M0.136 0.898 Q0.213 0.834 0.105 0.782" stroke="hsl(180.0,100%,35%)" stroke-width="0.00042"></path>
<path d="M0.136 0.898 Q1.057 0.702 0.877 0.209" stroke="hsl(180.0,100%,35%)" stroke-width="0.00042"></path>
<path d="M0.136 0.898 Q0.245 1.003 0.474 0.972" stroke="hsl(180.0,100%,35%)" stroke-width="0.00042"></path>
<path d="M0.136 0.898 Q1.193 0.673 0.987 0.108" stroke="hsl(180.0,100%,35%)" stroke-width="0.00085"></path>
<path d="M0.136 0.898 Q0.828 0.998 1.175 0.682" stroke="hsl(180.0,100%,35%)" stroke-width="0.00085"></path>
<path d="M0.623 0.740 Q0.700 0.902 1.033 0.900" stroke="hsl(180.0,100%,35%)" stroke-width="0.00042"></path>
<path d="M0.623 0.740 Q0.392 0.736 0.334 0.848" stroke="hsl(180.0,100%,35%)" stroke-width="0.00339"></path>
<path d="M0.623 0.740 Q0.768 0.683 0.690 0.600" stroke="hsl(180.0,100%,35%)" stroke-width="0.00254"></path>
<path d="M0.623 0.740 Q0.253 0.721 0.136 0.898" stroke="hsl(180.0,100%,35%)" stroke-width="0.00085"></path>
<path d="M0.623 0.740 Q0.945 0.821 1.175 0.682" stroke="hsl(180.0,100%,35%)" stroke-width="0.00042"></path>
<path d="M0.653 0.266 Q0.946 0.254 0.987 0.108" stroke="hsl(0.0,100%,35%)" stroke-width="0.00509"></path>
<path d="M0.653 0.266 Q0.888 0.169 0.751 0.033" stroke="hsl(0.0,100%,35%)" stroke-width="0.00212"></path>
<path d="M0.653 0.266 Q0.810 0.282 0.877 0.209" stroke="hsl(0.0,100%,35%)" stroke-width="0.00042"></path>
<path d="M0.653 0.266 Q0.400 0.190 0.196 0.297" stroke="hsl(0.0,100%,35%)" stroke-width="0.00085"></path>
<path d="M0.653 0.266 Q0.027 0.493 0.334 0.848" stroke="hsl(0.0,100%,35%)" stroke-width="0.00170"></path>
<path d="M0.653 0.266 Q0.659 0.173 0.480 0.150" stroke="hsl(0.0,100%,35%)" stroke-width="0.00127"></path>
<path d="M0.596 0.413 Q0.117 0.578 0.334 0.848" stroke="hsl(180.0,100%,35%)" stroke-width="0.00042"></path>
<path d="M0.596 0.413 Q0.748 0.259 0.480 0.150" stroke="hsl(180.0,100%,35%)" stroke-width="0.00085"></path>
<path d="M0.596 0.413 Q1.035 0.339 0.987 0.108" stroke="hsl(180.0,100%,35%)" stroke-width="0.00042"></path>
<path d="M0.934 0.664 Q1.405 0.396 0.987 0.108" stroke="hsl(180.0,100%,35%)" stroke-width="0.00721"></path>
<path d="M0.934 0.664 Q0.487 0.636 0.334 0.848" stroke="hsl(180.0,100%,35%)" stroke-width="0.00593"></path>
<path d="M0.934 0.664 Q1.118 0.316 0.480 0.150" stroke="hsl(180.0,100%,35%)" stroke-width="0.00170"></path>
<path d="M0.934 0.664 Q0.348 0.621 0.136 0.898" stroke="hsl(180.0,100%,35%)" stroke-width="0.00042"></path>
<path d="M0.934 0.664 Q0.718 0.639 0.623 0.740" stroke="hsl(180.0,100%,35%)" stroke-width="0.00042"></path>
<path d="M0.934 0.664 Q1.040 0.721 1.175 0.682" stroke="hsl(180.0,100%,35%)" stroke-width="0.00042"></path>
<path d="M0.934 0.664 Q0.425 0.557 0.105 0.782" stroke="hsl(180.0,100%,35%)" stroke-width="0.00085"></path>
<path d="M0.934 0.664 Q0.795 0.801 1.033 0.900" stroke="hsl(180.0,100%,35%)" stroke-width="0.00042"></path>
<path d="M1.080 0.994 Q1.133 0.938 1.033 0.900" stroke="hsl(180.0,100%,35%)" stroke-width="0.00805"></path>
<path d="M1.080 0.994 Q1.201 0.719 0.690 0.600" stroke="hsl(180.0,100%,35%)" stroke-width="0.00127"></path>
<path d="M1.080 0.994 Q0.824 0.772 0.334 0.848" stroke="hsl(180.0,100%,35%)" stroke-width="0.00254"></path>
<path d="M1.080 0.994 Q0.685 0.757 0.136 0.898" stroke="hsl(180.0,100%,35%)" stroke-width="0.00127"></path>
<path d="M1.314 0.893 Q1.168 0.840 1.033 0.900" stroke="hsl(180.0,100%,35%)" stroke-width="0.00890"></path>
<path d="M1.314 0.893 Q0.860 0.674 0.334 0.848" stroke="hsl(180.0,100%,35%)" stroke-width="0.00170"></path>
<path d="M1.314 0.893 Q1.451 0.923 1.541 0.863" stroke="hsl(180.0,100%,35%)" stroke-width="0.00042"></path>
<path d="M0.226 0.503 Q0.003 0.697 0.334 0.848" stroke="hsl(180.0,100%,35%)" stroke-width="0.01144"></path>
<path d="M0.226 0.503 Q0.380 0.644 0.690 0.600" stroke="hsl(180.0,100%,35%)" stroke-width="0.00085"></path>
<path d="M0.226 0.503 Q0.635 0.377 0.480 0.150" stroke="hsl(180.0,100%,35%)" stroke-width="0.00042"></path>
<path d="M0.533 0.692 Q0.309 0.730 0.334 0.848" stroke="hsl(180.0,100%,35%)" stroke-width="0.00890"></path>
<path d="M0.533 0.692 Q0.617 0.896 1.033 0.900" stroke="hsl(180.0,100%,35%)" stroke-width="0.00466"></path>
<path d="M0.533 0.692 Q1.227 0.491 0.987 0.108" stroke="hsl(180.0,100%,35%)" stroke-width="0.00042"></path>
<path d="M1.251 0.177 Q0.256 0.329 0.334 0.848" stroke="hsl(180.0,100%,35%)" stroke-width="0.00042"></path>
<path d="M1.251 0.177 Q1.174 0.090 0.987 0.108" stroke="hsl(180.0,100%,35%)" stroke-width="0.00042"></path>
<path d="M1.251 0.177 Q0.564 0.495 1.033 0.900" stroke="hsl(180.0,100%,35%)" stroke-width="0.00042"></path>
<path d="M0.105 0.782 Q1.085 0.621 0.987 0.108" stroke="hsl(180.0,100%,35%)" stroke-width="0.00212"></path>
<path d="M0.105 0.782 Q0.028 0.846 0.136 0.898" stroke="hsl(180.0,100%,35%)" stroke-width="0.00170"></path>
<path d="M0.105 0.782 Q0.475 1.026 1.033 0.900" stroke="hsl(180.0,100%,35%)" stroke-width="0.00042"></path>
<path d="M0.105 0.782 Q0.398 0.864 0.623 0.740" stroke="hsl(180.0,100%,35%)" stroke-width="0.00127"></path>
<path d="M0.105 0.782 Q0.166 0.861 0.334 0.848" stroke="hsl(180.0,100%,35%)" stroke-width="0.00424"></path>
<path d="M0.105 0.782 Q0.614 0.889 0.934 0.664" stroke="hsl(180.0,100%,35%)" stroke-width="0.00297"></path>
<path d="M0.105 0.782 Q0.949 0.650 0.877 0.209" stroke="hsl(180.0,100%,35%)" stroke-width="0.00042"></path>
<path d="M1.809 0.301 Q0.942 0.445 1.033 0.900" stroke="hsl(180.0,100%,35%)" stroke-width="0.00085"></path>
<path d="M1.809 0.301 Q1.656 0.395 1.807 0.490" stroke="hsl(180.0,100%,35%)" stroke-width="0.00042"></path>
<path d="M1.809 0.301 Q0.634 0.279 0.334 0.848" stroke="hsl(180.0,100%,35%)" stroke-width="0.00042"></path>
<path d="M0.818 0.728 Q0.341 0.676 0.136 0.898" stroke="hsl(180.0,100%,35%)" stroke-width="0.00042"></path>
<path d="M0.818 0.728 Q0.788 0.857 1.033 0.900" stroke="hsl(180.0,100%,35%)" stroke-width="0.00254"></path>
<path d="M0.818 0.728 Q0.480 0.691 0.334 0.848" stroke="hsl(180.0,100%,35%)" stroke-width="0.00339"></path>
<path d="M0.818 0.728 Q0.856 0.638 0.690 0.600" stroke="hsl(180.0,100%,35%)" stroke-width="0.00042"></path>
<path d="M1.404 0.974 Q0.969 0.697 0.334 0.848" stroke="hsl(180.0,100%,35%)" stroke-width="0.00170"></path>
<path d="M1.404 0.974 Q1.278 0.863 1.033 0.900" stroke="hsl(180.0,100%,35%)" stroke-width="0.00127"></path>
<path d="M1.404 0.974 Q1.668 0.976 1.729 0.847" stroke="hsl(180.0,100%,35%)" stroke-width="0.00042"></path>
<path d="M1.330 0.647 Q0.671 0.548 0.334 0.848" stroke="hsl(180.0,100%,35%)" stroke-width="0.00042"></path>
<path d="M1.330 0.647 Q0.871 0.689 0.854 0.923" stroke="hsl(180.0,100%,35%)" stroke-width="0.00042"></path>
<path d="M1.330 0.647 Q0.980 0.714 1.033 0.900" stroke="hsl(180.0,100%,35%)" stroke-width="0.00042"></path>
<path d="M0.854 0.923 Q0.962 0.947 1.033 0.900" stroke="hsl(180.0,100%,35%)" stroke-width="0.02543"></path>
<path d="M0.854 0.923 Q0.653 0.781 0.334 0.848" stroke="hsl(180.0,100%,35%)" stroke-width="0.01780"></path>
<path d="M0.854 0.923 Q1.572 0.542 0.987 0.108" stroke="hsl(180.0,100%,35%)" stroke-width="0.00805"></path>
<path d="M0.854 0.923 Q0.515 0.767 0.136 0.898" stroke="hsl(180.0,100%,35%)" stroke-width="0.00042"></path>
<path d="M0.854 0.923 Q1.514 0.457 0.751 0.033" stroke="hsl(180.0,100%,35%)" stroke-width="0.00042"></path>
<path d="M0.854 0.923 Q0.885 0.785 0.623 0.740" stroke="hsl(180.0,100%,35%)" stroke-width="0.00085"></path>
<path d="M0.854 0.923 Q1.132 0.616 0.596 0.413" stroke="hsl(180.0,100%,35%)" stroke-width="0.00042"></path>
<path d="M0.854 0.923 Q1.279 0.554 0.653 0.266" stroke="hsl(180.0,100%,35%)" stroke-width="0.00212"></path>
<path d="M0.854 0.923 Q0.878 0.743 0.533 0.692" stroke="hsl(180.0,100%,35%)" stroke-width="0.00085"></path>
<path d="M0.854 0.923 Q0.771 0.655 0.231 0.637" stroke="hsl(180.0,100%,35%)" stroke-width="0.00042"></path>
<path d="M0.231 0.637 Q0.422 0.928 1.033 0.900" stroke="hsl(180.0,100%,35%)" stroke-width="0.00170"></path>
<path d="M0.231 0.637 Q0.113 0.763 0.334 0.848" stroke="hsl(180.0,100%,35%)" stroke-width="0.00212"></path>
<path d="M0.231 0.637 Q0.592 0.598 0.596 0.413" stroke="hsl(180.0,100%,35%)" stroke-width="0.00042"></path>
<path d="M0.231 0.637 Q0.314 0.904 0.854 0.923" stroke="hsl(180.0,100%,35%)" stroke-width="0.00042"></path>
<path d="M0.573 0.523 Q0.418 0.600 0.533 0.692" stroke="hsl(180.0,100%,35%)" stroke-width="0.00127"></path>
<path d="M0.573 0.523 Q0.502 0.803 1.033 0.900" stroke="hsl(180.0,100%,35%)" stroke-width="0.00170"></path>
<path d="M0.573 0.523 Q0.193 0.638 0.334 0.848" stroke="hsl(180.0,100%,35%)" stroke-width="0.00254"></path>
<path d="M0.657 0.718 Q0.700 0.884 1.033 0.900" stroke="hsl(180.0,100%,35%)" stroke-width="0.00042"></path>
<path d="M0.657 0.718 Q0.391 0.718 0.334 0.848" stroke="hsl(180.0,100%,35%)" stroke-width="0.00085"></path>
<path d="M0.657 0.718 Q1.090 0.997 1.729 0.847" stroke="hsl(180.0,100%,35%)" stroke-width="0.00042"></path>
<path d="M0.658 -0.043 Q-0.217 0.338 0.334 0.848" stroke="hsl(180.0,100%,35%)" stroke-width="0.00042"></path>
<path d="M0.658 -0.043 Q-0.356 0.323 0.136 0.898" stroke="hsl(180.0,100%,35%)" stroke-width="0.00042"></path>
<path d="M0.658 -0.043 Q0.701 0.098 0.987 0.108" stroke="hsl(180.0,100%,35%)" stroke-width="0.00085"></path>
<path d="M0.658 -0.043 Q0.565 0.127 0.877 0.209" stroke="hsl(180.0,100%,35%)" stroke-width="0.00042"></path>
<path d="M0.658 -0.043 Q0.091 0.503 1.033 0.900" stroke="hsl(180.0,100%,35%)" stroke-width="0.00042"></path>
<path d="M0.701 0.704 Q0.711 0.868 1.033 0.900" stroke="hsl(180.0,100%,35%)" stroke-width="0.00085"></path>
<path d="M0.701 0.704 Q0.402 0.703 0.334 0.848" stroke="hsl(180.0,100%,35%)" stroke-width="0.00042"></path>
<path d="M0.701 0.704 Q0.689 0.671 0.621 0.669" stroke="hsl(180.0,100%,35%)" stroke-width="0.00042"></path>
</g>
<text x="0.877" y="0.187" font-size="0.045219" fill="hsl(0.0,100%,20%)">amaiorano</text>
<text x="0.987" y="0.063" font-size="0.090860" fill="hsl(0.0,100%,20%)">bclayton</text>
<text x="0.334" y="0.810" font-size="0.077253" fill="hsl(180.0,100%,20%)">enga</text>
<text x="1.033" y="0.862" font-size="0.074559" fill="hsl(180.0,100%,20%)">cwallez</text>
<text x="0.751" y="0.007" font-size="0.051433" fill="hsl(0.0,100%,20%)">jrprice</text>
<text x="0.690" y="0.584" font-size="0.032174" fill="hsl(180.0,100%,20%)">kainino</text>
<text x="0.480" y="0.122" font-size="0.056861" fill="hsl(0.0,100%,20%)">dsinclair</text>
<text x="1.370" y="0.331" font-size="0.010111" fill="hsl(180.0,100%,20%)">ynovikov</text>
<text x="1.121" y="0.173" font-size="0.006192" fill="hsl(0.0,100%,20%)">andre</text>
<text x="0.909" y="0.759" font-size="0.022037" fill="hsl(180.0,100%,20%)">arthursonzogni</text>
<text x="1.179" y="0.741" font-size="0.003575" fill="hsl(180.0,100%,20%)">khaslett</text>
<text x="0.867" y="0.505" font-size="0.010111" fill="hsl(180.0,100%,20%)">austineng</text>
<text x="1.175" y="0.669" font-size="0.026752" fill="hsl(180.0,100%,20%)">shrekshao</text>
<text x="0.136" y="0.873" font-size="0.048885" fill="hsl(180.0,100%,20%)">lokokung</text>
<text x="0.623" y="0.729" font-size="0.021745" fill="hsl(180.0,100%,20%)">bajones</text>
<text x="0.653" y="0.250" font-size="0.030544" fill="hsl(0.0,100%,20%)">dneto</text>
<text x="1.091" y="0.176" font-size="0.003575" fill="hsl(0.0,100%,20%)">brucedawson</text>
<text x="0.596" y="0.407" font-size="0.011305" fill="hsl(180.0,100%,20%)">rharrison</text>
<text x="0.934" y="0.648" font-size="0.030334" fill="hsl(180.0,100%,20%)">senorblanco</text>
<text x="1.080" y="0.984" font-size="0.019904" fill="hsl(180.0,100%,20%)">beaufort.francois</text>
<text x="1.314" y="0.883" font-size="0.018575" fill="hsl(180.0,100%,20%)">blundell</text>
<text x="1.541" y="0.861" font-size="0.003575" fill="hsl(180.0,100%,20%)">nicolettep</text>
<text x="0.226" y="0.493" font-size="0.019904" fill="hsl(180.0,100%,20%)">bsheedy</text>
<text x="0.617" y="0.943" font-size="0.003575" fill="hsl(180.0,100%,20%)">fhorschig</text>
<text x="1.281" y="0.735" font-size="0.003575" fill="hsl(180.0,100%,20%)">jamesgk</text>
<text x="0.533" y="0.681" font-size="0.022609" fill="hsl(180.0,100%,20%)">penghuang</text>
<text x="1.251" y="0.174" font-size="0.006192" fill="hsl(180.0,100%,20%)">danakj</text>
<text x="0.196" y="0.294" font-size="0.005056" fill="hsl(0.0,100%,20%)">alanbaker</text>
<text x="0.105" y="0.771" font-size="0.021449" fill="hsl(180.0,100%,20%)">gman</text>
<text x="0.356" y="0.246" font-size="0.003575" fill="hsl(0.0,100%,20%)">yiwzhang</text>
<text x="0.621" y="0.667" font-size="0.005056" fill="hsl(180.0,100%,20%)">lehoangquyen</text>
<text x="1.809" y="0.297" font-size="0.007150" fill="hsl(180.0,100%,20%)">geofflang</text>
<text x="1.807" y="0.488" font-size="0.003575" fill="hsl(180.0,100%,20%)">fmalita</text>
<text x="0.818" y="0.720" font-size="0.014299" fill="hsl(180.0,100%,20%)">hao.x.li</text>
<text x="1.404" y="0.969" font-size="0.010111" fill="hsl(180.0,100%,20%)">hitawala</text>
<text x="1.729" y="0.845" font-size="0.005056" fill="hsl(180.0,100%,20%)">sunnyps</text>
<text x="1.330" y="0.644" font-size="0.006192" fill="hsl(180.0,100%,20%)">jianlin.qiu</text>
<text x="0.854" y="0.902" font-size="0.041843" fill="hsl(180.0,100%,20%)">jiawei.shao</text>
<text x="0.231" y="0.630" font-size="0.012384" fill="hsl(180.0,100%,20%)">zhaoming.jiang</text>
<text x="0.573" y="0.517" font-size="0.012889" fill="hsl(180.0,100%,20%)">jie.a.chen</text>
<text x="0.474" y="0.971" font-size="0.003575" fill="hsl(180.0,100%,20%)">kbr</text>
<text x="0.657" y="0.714" font-size="0.007150" fill="hsl(180.0,100%,20%)">shaobo.yan</text>
<text x="0.658" y="-0.048" font-size="0.008757" fill="hsl(180.0,100%,20%)">tiszka</text>
<text x="0.701" y="0.700" font-size="0.007150" fill="hsl(180.0,100%,20%)">vollick</text>
</svg>
