<svg width="4000" height="2000" viewBox="-0.025 -0.025 2.05 1.05" xmlns="http://www.w3.org/2000/svg">
  <style>
    path {
      fill: none;
      stroke-linecap: round;
      stroke-opacity: 0.4;
    }

    text {
      text-anchor: middle;
      alignment-baseline: hanging;
    }
  </style>
  <g opacity="0.4">
<path d="M0.665 0.601 Q0.889 0.672 1.078 0.579" stroke="hsl(0.0,100%,35%)" stroke-width="0.01214"></path>
<path d="M0.665 0.601 Q0.806 0.750 1.128 0.714" stroke="hsl(0.0,100%,35%)" stroke-width="0.01089"></path>
<path d="M0.665 0.601 Q1.287 0.543 1.311 0.228" stroke="hsl(0.0,100%,35%)" stroke-width="0.00335"></path>
<path d="M0.665 0.601 Q0.889 0.543 0.824 0.421" stroke="hsl(0.0,100%,35%)" stroke-width="0.00084"></path>
<path d="M0.665 0.601 Q0.963 0.764 1.346 0.654" stroke="hsl(0.0,100%,35%)" stroke-width="0.00084"></path>
<path d="M0.665 0.601 Q1.153 0.685 1.424 0.466" stroke="hsl(0.0,100%,35%)" stroke-width="0.00167"></path>
<path d="M1.078 0.579 Q0.854 0.507 0.665 0.601" stroke="hsl(0.0,100%,35%)" stroke-width="0.02596"></path>
<path d="M1.078 0.579 Q1.077 0.449 0.824 0.421" stroke="hsl(0.0,100%,35%)" stroke-width="0.04104"></path>
<path d="M1.078 0.579 Q1.475 0.450 1.311 0.228" stroke="hsl(0.0,100%,35%)" stroke-width="0.01926"></path>
<path d="M1.078 0.579 Q1.018 0.498 0.848 0.510" stroke="hsl(0.0,100%,35%)" stroke-width="0.00670"></path>
<path d="M1.078 0.579 Q1.341 0.591 1.424 0.466" stroke="hsl(0.0,100%,35%)" stroke-width="0.04690"></path>
<path d="M1.078 0.579 Q1.152 0.670 1.346 0.654" stroke="hsl(0.0,100%,35%)" stroke-width="0.00084"></path>
<path d="M1.078 0.579 Q1.645 0.471 1.560 0.171" stroke="hsl(0.0,100%,35%)" stroke-width="0.00042"></path>
<path d="M1.078 0.579 Q0.995 0.656 1.128 0.714" stroke="hsl(0.0,100%,35%)" stroke-width="0.01340"></path>
<path d="M1.078 0.579 Q0.784 0.582 0.727 0.727" stroke="hsl(0.0,100%,35%)" stroke-width="0.00042"></path>
<path d="M1.078 0.579 Q1.114 0.788 1.530 0.816" stroke="hsl(0.0,100%,35%)" stroke-width="0.00084"></path>
<path d="M1.078 0.579 Q1.372 0.487 1.258 0.323" stroke="hsl(0.0,100%,35%)" stroke-width="0.00042"></path>
<path d="M1.078 0.579 Q1.105 0.303 0.572 0.229" stroke="hsl(0.0,100%,35%)" stroke-width="0.00042"></path>
<path d="M1.128 0.714 Q1.194 0.798 1.373 0.784" stroke="hsl(180.0,100%,35%)" stroke-width="0.01801"></path>
<path d="M1.128 0.714 Q1.285 0.728 1.346 0.654" stroke="hsl(180.0,100%,35%)" stroke-width="0.00670"></path>
<path d="M1.128 0.714 Q1.609 0.507 1.311 0.228" stroke="hsl(180.0,100%,35%)" stroke-width="0.00837"></path>
<path d="M1.128 0.714 Q1.050 0.461 0.540 0.443" stroke="hsl(180.0,100%,35%)" stroke-width="0.00042"></path>
<path d="M1.128 0.714 Q0.987 0.565 0.665 0.601" stroke="hsl(180.0,100%,35%)" stroke-width="0.00126"></path>
<path d="M1.128 0.714 Q1.247 0.845 1.530 0.816" stroke="hsl(180.0,100%,35%)" stroke-width="0.00167"></path>
<path d="M1.128 0.714 Q1.475 0.649 1.424 0.466" stroke="hsl(180.0,100%,35%)" stroke-width="0.00084"></path>
<path d="M1.128 0.714 Q1.211 0.636 1.078 0.579" stroke="hsl(180.0,100%,35%)" stroke-width="0.00126"></path>
<path d="M1.128 0.714 Q1.080 0.303 0.267 0.236" stroke="hsl(180.0,100%,35%)" stroke-width="0.00042"></path>
<path d="M1.128 0.714 Q1.210 0.507 0.824 0.421" stroke="hsl(180.0,100%,35%)" stroke-width="0.00042"></path>
<path d="M1.128 0.714 Q1.238 0.360 0.572 0.229" stroke="hsl(180.0,100%,35%)" stroke-width="0.00042"></path>
<path d="M1.128 0.714 Q1.151 0.556 0.848 0.510" stroke="hsl(180.0,100%,35%)" stroke-width="0.00126"></path>
<path d="M1.311 0.228 Q0.914 0.356 1.078 0.579" stroke="hsl(180.0,100%,35%)" stroke-width="0.01759"></path>
<path d="M1.311 0.228 Q1.177 0.369 1.424 0.466" stroke="hsl(180.0,100%,35%)" stroke-width="0.00126"></path>
<path d="M1.311 0.228 Q0.897 0.518 1.373 0.784" stroke="hsl(180.0,100%,35%)" stroke-width="0.01549"></path>
<path d="M1.311 0.228 Q0.830 0.434 1.128 0.714" stroke="hsl(180.0,100%,35%)" stroke-width="0.02429"></path>
<path d="M1.311 0.228 Q0.941 0.080 0.572 0.229" stroke="hsl(180.0,100%,35%)" stroke-width="0.00167"></path>
<path d="M1.311 0.228 Q1.153 0.034 0.741 0.070" stroke="hsl(180.0,100%,35%)" stroke-width="0.00042"></path>
<path d="M1.311 0.228 Q1.481 0.249 1.560 0.171" stroke="hsl(180.0,100%,35%)" stroke-width="0.00084"></path>
<path d="M1.311 0.228 Q0.988 0.448 1.346 0.654" stroke="hsl(180.0,100%,35%)" stroke-width="0.00167"></path>
<path d="M1.311 0.228 Q0.950 0.565 1.530 0.816" stroke="hsl(180.0,100%,35%)" stroke-width="0.00126"></path>
<path d="M1.311 0.228 Q1.277 0.116 1.051 0.108" stroke="hsl(180.0,100%,35%)" stroke-width="0.00042"></path>
<path d="M1.311 0.228 Q0.690 0.285 0.665 0.601" stroke="hsl(180.0,100%,35%)" stroke-width="0.00042"></path>
<path d="M1.311 0.228 Q0.782 0.584 1.361 0.921" stroke="hsl(180.0,100%,35%)" stroke-width="0.00084"></path>
<path d="M1.311 0.228 Q1.208 0.265 1.258 0.323" stroke="hsl(180.0,100%,35%)" stroke-width="0.00042"></path>
<path d="M1.311 0.228 Q1.519 0.179 1.469 0.067" stroke="hsl(180.0,100%,35%)" stroke-width="0.00042"></path>
<path d="M0.824 0.421 Q0.825 0.551 1.078 0.579" stroke="hsl(0.0,100%,35%)" stroke-width="0.02094"></path>
<path d="M0.824 0.421 Q0.765 0.470 0.848 0.510" stroke="hsl(0.0,100%,35%)" stroke-width="0.00628"></path>
<path d="M0.824 0.421 Q0.601 0.479 0.665 0.601" stroke="hsl(0.0,100%,35%)" stroke-width="0.00126"></path>
<path d="M0.824 0.421 Q1.089 0.563 1.424 0.466" stroke="hsl(0.0,100%,35%)" stroke-width="0.00461"></path>
<path d="M0.824 0.421 Q0.861 0.759 1.530 0.816" stroke="hsl(0.0,100%,35%)" stroke-width="0.00126"></path>
<path d="M0.824 0.421 Q1.223 0.422 1.311 0.228" stroke="hsl(0.0,100%,35%)" stroke-width="0.00209"></path>
<path d="M0.824 0.421 Q0.742 0.628 1.128 0.714" stroke="hsl(0.0,100%,35%)" stroke-width="0.00167"></path>
<path d="M0.824 0.421 Q0.648 0.686 1.128 0.830" stroke="hsl(0.0,100%,35%)" stroke-width="0.00042"></path>
<path d="M1.346 0.654 Q1.670 0.434 1.311 0.228" stroke="hsl(180.0,100%,35%)" stroke-width="0.00461"></path>
<path d="M1.346 0.654 Q1.256 0.724 1.373 0.784" stroke="hsl(180.0,100%,35%)" stroke-width="0.00419"></path>
<path d="M1.346 0.654 Q1.189 0.640 1.128 0.714" stroke="hsl(180.0,100%,35%)" stroke-width="0.00167"></path>
<path d="M1.346 0.654 Q1.272 0.563 1.078 0.579" stroke="hsl(180.0,100%,35%)" stroke-width="0.00042"></path>
<path d="M1.346 0.654 Q1.789 0.529 1.642 0.285" stroke="hsl(180.0,100%,35%)" stroke-width="0.00042"></path>
<path d="M1.346 0.654 Q1.111 0.387 0.540 0.443" stroke="hsl(180.0,100%,35%)" stroke-width="0.00042"></path>
<path d="M1.424 0.466 Q1.161 0.453 1.078 0.579" stroke="hsl(0.0,100%,35%)" stroke-width="0.03224"></path>
<path d="M1.424 0.466 Q0.936 0.382 0.665 0.601" stroke="hsl(0.0,100%,35%)" stroke-width="0.00335"></path>
<path d="M1.424 0.466 Q1.188 0.177 0.572 0.229" stroke="hsl(0.0,100%,35%)" stroke-width="0.00167"></path>
<path d="M1.424 0.466 Q1.000 0.278 0.540 0.443" stroke="hsl(0.0,100%,35%)" stroke-width="0.00042"></path>
<path d="M1.424 0.466 Q0.984 0.589 1.128 0.830" stroke="hsl(0.0,100%,35%)" stroke-width="0.00042"></path>
<path d="M1.424 0.466 Q1.160 0.323 0.824 0.421" stroke="hsl(0.0,100%,35%)" stroke-width="0.00837"></path>
<path d="M1.424 0.466 Q1.558 0.324 1.311 0.228" stroke="hsl(0.0,100%,35%)" stroke-width="0.00293"></path>
<path d="M1.424 0.466 Q1.455 0.361 1.258 0.323" stroke="hsl(0.0,100%,35%)" stroke-width="0.00084"></path>
<path d="M1.424 0.466 Q1.077 0.530 1.128 0.714" stroke="hsl(0.0,100%,35%)" stroke-width="0.00084"></path>
<path d="M1.424 0.466 Q1.548 0.403 1.453 0.329" stroke="hsl(0.0,100%,35%)" stroke-width="0.00042"></path>
<path d="M0.798 0.612 Q0.964 0.651 1.078 0.579" stroke="hsl(0.0,100%,35%)" stroke-width="0.00084"></path>
<path d="M0.798 0.612 Q1.362 0.522 1.311 0.228" stroke="hsl(0.0,100%,35%)" stroke-width="0.00042"></path>
<path d="M1.560 0.171 Q1.390 0.150 1.311 0.228" stroke="hsl(180.0,100%,35%)" stroke-width="0.01047"></path>
<path d="M1.560 0.171 Q0.909 0.356 1.128 0.714" stroke="hsl(180.0,100%,35%)" stroke-width="0.00084"></path>
<path d="M1.560 0.171 Q1.611 0.114 1.513 0.077" stroke="hsl(180.0,100%,35%)" stroke-width="0.00042"></path>
<path d="M1.560 0.171 Q0.993 0.278 1.078 0.579" stroke="hsl(180.0,100%,35%)" stroke-width="0.00293"></path>
<path d="M1.567 0.952 Q2.019 0.539 1.311 0.228" stroke="hsl(180.0,100%,35%)" stroke-width="0.00084"></path>
<path d="M1.567 0.952 Q1.695 0.759 1.346 0.654" stroke="hsl(180.0,100%,35%)" stroke-width="0.00084"></path>
<path d="M1.567 0.952 Q1.460 0.492 0.540 0.443" stroke="hsl(180.0,100%,35%)" stroke-width="0.00042"></path>
<path d="M1.567 0.952 Q1.605 0.829 1.373 0.784" stroke="hsl(180.0,100%,35%)" stroke-width="0.00042"></path>
<path d="M1.567 0.952 Q1.621 0.667 1.078 0.579" stroke="hsl(180.0,100%,35%)" stroke-width="0.00042"></path>
<path d="M1.567 0.952 Q1.538 0.745 1.128 0.714" stroke="hsl(180.0,100%,35%)" stroke-width="0.00042"></path>
<path d="M0.540 0.443 Q0.618 0.696 1.128 0.714" stroke="hsl(180.0,100%,35%)" stroke-width="0.00796"></path>
<path d="M0.540 0.443 Q0.728 0.343 0.572 0.229" stroke="hsl(180.0,100%,35%)" stroke-width="0.00628"></path>
<path d="M0.540 0.443 Q0.964 0.631 1.424 0.466" stroke="hsl(180.0,100%,35%)" stroke-width="0.00084"></path>
<path d="M0.540 0.443 Q0.700 0.489 0.824 0.421" stroke="hsl(180.0,100%,35%)" stroke-width="0.00042"></path>
<path d="M0.540 0.443 Q0.775 0.710 1.346 0.654" stroke="hsl(180.0,100%,35%)" stroke-width="0.00084"></path>
<path d="M0.540 0.443 Q0.737 0.828 1.530 0.816" stroke="hsl(180.0,100%,35%)" stroke-width="0.00042"></path>
<path d="M0.540 0.443 Q0.684 0.780 1.373 0.784" stroke="hsl(180.0,100%,35%)" stroke-width="0.00126"></path>
<path d="M0.540 0.443 Q0.701 0.619 1.078 0.579" stroke="hsl(180.0,100%,35%)" stroke-width="0.00126"></path>
<path d="M0.540 0.443 Q1.098 0.490 1.311 0.228" stroke="hsl(180.0,100%,35%)" stroke-width="0.00042"></path>
<path d="M1.373 0.784 Q1.306 0.700 1.128 0.714" stroke="hsl(180.0,100%,35%)" stroke-width="0.01926"></path>
<path d="M1.373 0.784 Q1.463 0.713 1.346 0.654" stroke="hsl(180.0,100%,35%)" stroke-width="0.00461"></path>
<path d="M1.373 0.784 Q1.787 0.493 1.311 0.228" stroke="hsl(180.0,100%,35%)" stroke-width="0.00963"></path>
<path d="M1.373 0.784 Q1.213 0.758 1.128 0.830" stroke="hsl(180.0,100%,35%)" stroke-width="0.00042"></path>
<path d="M1.373 0.784 Q1.165 0.551 0.665 0.601" stroke="hsl(180.0,100%,35%)" stroke-width="0.00042"></path>
<path d="M1.373 0.784 Q1.112 0.818 1.123 0.953" stroke="hsl(180.0,100%,35%)" stroke-width="0.00042"></path>
<path d="M1.373 0.784 Q1.389 0.622 1.078 0.579" stroke="hsl(180.0,100%,35%)" stroke-width="0.00084"></path>
<path d="M1.373 0.784 Q1.229 0.447 0.540 0.443" stroke="hsl(180.0,100%,35%)" stroke-width="0.00084"></path>
<path d="M1.530 0.816 Q1.891 0.478 1.311 0.228" stroke="hsl(180.0,100%,35%)" stroke-width="0.00042"></path>
<path d="M1.530 0.816 Q1.410 0.684 1.128 0.714" stroke="hsl(180.0,100%,35%)" stroke-width="0.00335"></path>
<path d="M1.530 0.816 Q1.567 0.698 1.346 0.654" stroke="hsl(180.0,100%,35%)" stroke-width="0.00251"></path>
<path d="M1.530 0.816 Q1.477 0.768 1.373 0.784" stroke="hsl(180.0,100%,35%)" stroke-width="0.00084"></path>
<path d="M1.530 0.816 Q1.333 0.432 0.540 0.443" stroke="hsl(180.0,100%,35%)" stroke-width="0.00042"></path>
<path d="M0.848 0.510 Q0.908 0.590 1.078 0.579" stroke="hsl(0.0,100%,35%)" stroke-width="0.00502"></path>
<path d="M0.848 0.510 Q0.907 0.461 0.824 0.421" stroke="hsl(0.0,100%,35%)" stroke-width="0.00377"></path>
<path d="M0.848 0.510 Q0.684 0.519 0.665 0.601" stroke="hsl(0.0,100%,35%)" stroke-width="0.00042"></path>
<path d="M0.848 0.510 Q0.748 0.582 0.867 0.646" stroke="hsl(0.0,100%,35%)" stroke-width="0.00084"></path>
<path d="M0.848 0.510 Q0.825 0.668 1.128 0.714" stroke="hsl(0.0,100%,35%)" stroke-width="0.00167"></path>
<path d="M0.848 0.510 Q1.171 0.603 1.424 0.466" stroke="hsl(0.0,100%,35%)" stroke-width="0.00167"></path>
<path d="M1.258 0.323 Q0.880 0.493 1.128 0.714" stroke="hsl(0.0,100%,35%)" stroke-width="0.00042"></path>
<path d="M1.258 0.323 Q1.227 0.428 1.424 0.466" stroke="hsl(0.0,100%,35%)" stroke-width="0.00126"></path>
<path d="M1.258 0.323 Q0.963 0.415 1.078 0.579" stroke="hsl(0.0,100%,35%)" stroke-width="0.00042"></path>
<path d="M0.572 0.229 Q0.545 0.505 1.078 0.579" stroke="hsl(180.0,100%,35%)" stroke-width="0.00712"></path>
<path d="M0.572 0.229 Q0.462 0.583 1.128 0.714" stroke="hsl(180.0,100%,35%)" stroke-width="0.00586"></path>
<path d="M0.572 0.229 Q0.809 0.518 1.424 0.466" stroke="hsl(180.0,100%,35%)" stroke-width="0.00167"></path>
<path d="M0.572 0.229 Q0.529 0.666 1.373 0.784" stroke="hsl(180.0,100%,35%)" stroke-width="0.00042"></path>
<path d="M0.572 0.229 Q0.582 0.714 1.530 0.816" stroke="hsl(180.0,100%,35%)" stroke-width="0.00042"></path>
<path d="M0.572 0.229 Q0.384 0.330 0.540 0.443" stroke="hsl(180.0,100%,35%)" stroke-width="0.00042"></path>
<path d="M0.572 0.229 Q0.369 0.641 1.128 0.830" stroke="hsl(180.0,100%,35%)" stroke-width="0.00084"></path>
<path d="M0.572 0.229 Q0.943 0.376 1.311 0.228" stroke="hsl(180.0,100%,35%)" stroke-width="0.00042"></path>
<path d="M1.008 0.246 Q1.174 0.297 1.311 0.228" stroke="hsl(180.0,100%,35%)" stroke-width="0.00796"></path>
<path d="M1.008 0.246 Q0.851 0.517 1.346 0.654" stroke="hsl(180.0,100%,35%)" stroke-width="0.00084"></path>
<path d="M1.008 0.246 Q0.694 0.504 1.128 0.714" stroke="hsl(180.0,100%,35%)" stroke-width="0.00251"></path>
<path d="M1.008 0.246 Q0.760 0.588 1.373 0.784" stroke="hsl(180.0,100%,35%)" stroke-width="0.00126"></path>
<path d="M0.583 0.800 Q0.924 0.866 1.128 0.714" stroke="hsl(180.0,100%,35%)" stroke-width="0.01089"></path>
<path d="M0.583 0.800 Q1.081 0.879 1.346 0.654" stroke="hsl(180.0,100%,35%)" stroke-width="0.00084"></path>
<path d="M0.583 0.800 Q1.271 0.801 1.424 0.466" stroke="hsl(180.0,100%,35%)" stroke-width="0.00042"></path>
<path d="M1.361 0.921 Q1.410 0.771 1.128 0.714" stroke="hsl(180.0,100%,35%)" stroke-width="0.00879"></path>
<path d="M1.361 0.921 Q1.891 0.564 1.311 0.228" stroke="hsl(180.0,100%,35%)" stroke-width="0.00502"></path>
<path d="M1.361 0.921 Q1.493 0.693 1.078 0.579" stroke="hsl(180.0,100%,35%)" stroke-width="0.00042"></path>
<path d="M1.361 0.921 Q1.476 0.855 1.373 0.784" stroke="hsl(180.0,100%,35%)" stroke-width="0.00042"></path>
<path d="M1.187 0.114 Q0.678 0.402 1.128 0.714" stroke="hsl(180.0,100%,35%)" stroke-width="0.00042"></path>
<path d="M1.187 0.114 Q0.761 0.325 1.078 0.579" stroke="hsl(180.0,100%,35%)" stroke-width="0.00042"></path>
<path d="M1.187 0.114 Q1.159 0.196 1.311 0.228" stroke="hsl(180.0,100%,35%)" stroke-width="0.00042"></path>
<path d="M1.128 0.830 Q1.304 0.695 1.078 0.579" stroke="hsl(180.0,100%,35%)" stroke-width="0.00209"></path>
<path d="M1.128 0.830 Q1.288 0.856 1.373 0.784" stroke="hsl(180.0,100%,35%)" stroke-width="0.00209"></path>
<path d="M1.128 0.830 Q1.702 0.566 1.311 0.228" stroke="hsl(180.0,100%,35%)" stroke-width="0.00084"></path>
<path d="M1.128 0.830 Q1.341 0.904 1.530 0.816" stroke="hsl(180.0,100%,35%)" stroke-width="0.00126"></path>
<path d="M1.128 0.830 Q1.221 0.772 1.128 0.714" stroke="hsl(180.0,100%,35%)" stroke-width="0.00461"></path>
<path d="M1.128 0.830 Q1.331 0.419 0.572 0.229" stroke="hsl(180.0,100%,35%)" stroke-width="0.00293"></path>
<path d="M1.128 0.830 Q1.080 0.623 0.665 0.601" stroke="hsl(180.0,100%,35%)" stroke-width="0.00042"></path>
<path d="M0.418 0.701 Q1.243 0.643 1.311 0.228" stroke="hsl(180.0,100%,35%)" stroke-width="0.00084"></path>
<path d="M0.418 0.701 Q0.474 0.644 0.375 0.604" stroke="hsl(180.0,100%,35%)" stroke-width="0.00042"></path>
<path d="M0.418 0.701 Q0.762 0.849 1.128 0.714" stroke="hsl(180.0,100%,35%)" stroke-width="0.00042"></path>
<path d="M0.853 0.836 Q1.154 0.914 1.373 0.784" stroke="hsl(180.0,100%,35%)" stroke-width="0.00042"></path>
<path d="M0.853 0.836 Q1.568 0.623 1.311 0.228" stroke="hsl(180.0,100%,35%)" stroke-width="0.00251"></path>
<path d="M0.853 0.836 Q1.088 0.830 1.128 0.714" stroke="hsl(180.0,100%,35%)" stroke-width="0.00293"></path>
<path d="M1.970 0.672 Q1.515 0.525 1.128 0.714" stroke="hsl(180.0,100%,35%)" stroke-width="0.00167"></path>
<path d="M1.970 0.672 Q1.996 0.318 1.311 0.228" stroke="hsl(180.0,100%,35%)" stroke-width="0.00167"></path>
<path d="M1.970 0.672 Q2.219 0.503 1.943 0.344" stroke="hsl(180.0,100%,35%)" stroke-width="0.00084"></path>
<path d="M1.104 0.835 Q1.212 0.779 1.128 0.714" stroke="hsl(180.0,100%,35%)" stroke-width="0.00042"></path>
<path d="M1.104 0.835 Q1.812 0.667 1.642 0.285" stroke="hsl(180.0,100%,35%)" stroke-width="0.00042"></path>
<path d="M1.104 0.835 Q1.693 0.573 1.311 0.228" stroke="hsl(180.0,100%,35%)" stroke-width="0.00042"></path>
<path d="M1.642 0.285 Q1.522 0.190 1.311 0.228" stroke="hsl(180.0,100%,35%)" stroke-width="0.02471"></path>
<path d="M1.642 0.285 Q1.042 0.397 1.128 0.714" stroke="hsl(180.0,100%,35%)" stroke-width="0.01633"></path>
<path d="M1.642 0.285 Q1.125 0.319 1.078 0.579" stroke="hsl(180.0,100%,35%)" stroke-width="0.00796"></path>
<path d="M1.642 0.285 Q1.108 0.481 1.373 0.784" stroke="hsl(180.0,100%,35%)" stroke-width="0.00042"></path>
<path d="M1.642 0.285 Q1.124 0.190 0.824 0.421" stroke="hsl(180.0,100%,35%)" stroke-width="0.00042"></path>
<path d="M1.642 0.285 Q1.161 0.528 1.530 0.816" stroke="hsl(180.0,100%,35%)" stroke-width="0.00084"></path>
<path d="M1.642 0.285 Q1.419 0.227 1.258 0.323" stroke="hsl(180.0,100%,35%)" stroke-width="0.00042"></path>
<path d="M1.642 0.285 Q1.065 0.239 0.848 0.510" stroke="hsl(180.0,100%,35%)" stroke-width="0.00209"></path>
<path d="M1.642 0.285 Q0.993 0.547 1.361 0.921" stroke="hsl(180.0,100%,35%)" stroke-width="0.00084"></path>
<path d="M1.642 0.285 Q1.443 0.089 1.018 0.143" stroke="hsl(180.0,100%,35%)" stroke-width="0.00042"></path>
<path d="M1.018 0.143 Q1.097 0.244 1.311 0.228" stroke="hsl(180.0,100%,35%)" stroke-width="0.00209"></path>
<path d="M1.018 0.143 Q0.616 0.450 1.128 0.714" stroke="hsl(180.0,100%,35%)" stroke-width="0.00167"></path>
<path d="M1.018 0.143 Q0.993 0.281 1.258 0.323" stroke="hsl(180.0,100%,35%)" stroke-width="0.00042"></path>
<path d="M1.018 0.143 Q0.682 0.534 1.373 0.784" stroke="hsl(180.0,100%,35%)" stroke-width="0.00042"></path>
<path d="M0.868 0.259 Q0.585 0.688 1.361 0.921" stroke="hsl(180.0,100%,35%)" stroke-width="0.00126"></path>
<path d="M0.868 0.259 Q1.115 0.332 1.311 0.228" stroke="hsl(180.0,100%,35%)" stroke-width="0.00167"></path>
<path d="M0.868 0.259 Q0.634 0.538 1.128 0.714" stroke="hsl(180.0,100%,35%)" stroke-width="0.00209"></path>
<path d="M1.048 0.291 Q1.230 0.312 1.311 0.228" stroke="hsl(180.0,100%,35%)" stroke-width="0.00042"></path>
<path d="M1.048 0.291 Q0.749 0.518 1.128 0.714" stroke="hsl(180.0,100%,35%)" stroke-width="0.00084"></path>
<path d="M1.048 0.291 Q1.453 0.496 1.943 0.344" stroke="hsl(180.0,100%,35%)" stroke-width="0.00042"></path>
<path d="M0.940 0.819 Q1.118 0.804 1.128 0.714" stroke="hsl(180.0,100%,35%)" stroke-width="0.00042"></path>
<path d="M0.940 0.819 Q1.185 0.888 1.373 0.784" stroke="hsl(180.0,100%,35%)" stroke-width="0.00126"></path>
<path d="M0.940 0.819 Q1.201 0.726 1.078 0.579" stroke="hsl(180.0,100%,35%)" stroke-width="0.00126"></path>
<path d="M0.940 0.819 Q0.977 0.655 0.665 0.601" stroke="hsl(180.0,100%,35%)" stroke-width="0.00042"></path>
<path d="M0.940 0.819 Q1.599 0.597 1.311 0.228" stroke="hsl(180.0,100%,35%)" stroke-width="0.00209"></path>
<path d="M0.212 0.169 Q0.715 0.418 1.311 0.228" stroke="hsl(180.0,100%,35%)" stroke-width="0.00084"></path>
<path d="M0.212 0.169 Q0.234 0.625 1.128 0.714" stroke="hsl(180.0,100%,35%)" stroke-width="0.00042"></path>
<path d="M0.212 0.169 Q0.186 0.214 0.267 0.236" stroke="hsl(180.0,100%,35%)" stroke-width="0.00042"></path>
<path d="M1.621 0.651 Q0.983 0.518 0.583 0.800" stroke="hsl(180.0,100%,35%)" stroke-width="0.00042"></path>
<path d="M1.621 0.651 Q1.324 0.584 1.128 0.714" stroke="hsl(180.0,100%,35%)" stroke-width="0.00084"></path>
<path d="M1.621 0.651 Q1.805 0.378 1.311 0.228" stroke="hsl(180.0,100%,35%)" stroke-width="0.00042"></path>
<path d="M1.621 0.651 Q1.183 0.435 0.665 0.601" stroke="hsl(180.0,100%,35%)" stroke-width="0.00084"></path>
<path d="M1.621 0.651 Q1.481 0.598 1.346 0.654" stroke="hsl(180.0,100%,35%)" stroke-width="0.00042"></path>
<path d="M1.621 0.651 Q1.407 0.506 1.078 0.579" stroke="hsl(180.0,100%,35%)" stroke-width="0.00042"></path>
</g>
<text x="0.665" y="0.579" font-size="0.044349" fill="hsl(0.0,100%,20%)">amaiorano</text>
<text x="1.078" y="0.533" font-size="0.091182" fill="hsl(0.0,100%,20%)">bclayton</text>
<text x="1.128" y="0.676" font-size="0.075894" fill="hsl(180.0,100%,20%)">enga</text>
<text x="1.311" y="0.190" font-size="0.074536" fill="hsl(180.0,100%,20%)">cwallez</text>
<text x="0.824" y="0.394" font-size="0.053486" fill="hsl(0.0,100%,20%)">jrprice</text>
<text x="1.346" y="0.638" font-size="0.031562" fill="hsl(180.0,100%,20%)">kainino</text>
<text x="1.424" y="0.436" font-size="0.058613" fill="hsl(0.0,100%,20%)">dsinclair</text>
<text x="0.798" y="0.608" font-size="0.006190" fill="hsl(0.0,100%,20%)">andre</text>
<text x="1.560" y="0.160" font-size="0.022030" fill="hsl(180.0,100%,20%)">arthursonzogni</text>
<text x="1.513" y="0.075" font-size="0.003574" fill="hsl(180.0,100%,20%)">khaslett</text>
<text x="1.567" y="0.947" font-size="0.010108" fill="hsl(180.0,100%,20%)">austineng</text>
<text x="0.540" y="0.430" font-size="0.026503" fill="hsl(180.0,100%,20%)">shrekshao</text>
<text x="1.373" y="0.758" font-size="0.050413" fill="hsl(180.0,100%,20%)">lokokung</text>
<text x="1.530" y="0.805" font-size="0.021738" fill="hsl(180.0,100%,20%)">bajones</text>
<text x="0.848" y="0.495" font-size="0.030113" fill="hsl(0.0,100%,20%)">dneto</text>
<text x="0.727" y="0.725" font-size="0.003574" fill="hsl(0.0,100%,20%)">brucedawson</text>
<text x="1.258" y="0.317" font-size="0.011853" fill="hsl(0.0,100%,20%)">rharrison</text>
<text x="0.572" y="0.214" font-size="0.030534" fill="hsl(180.0,100%,20%)">senorblanco</text>
<text x="1.008" y="0.236" font-size="0.019574" fill="hsl(180.0,100%,20%)">beaufort.francois</text>
<text x="0.583" y="0.790" font-size="0.019574" fill="hsl(180.0,100%,20%)">bsheedy</text>
<text x="0.741" y="0.068" font-size="0.003574" fill="hsl(180.0,100%,20%)">fhorschig</text>
<text x="1.051" y="0.106" font-size="0.003574" fill="hsl(180.0,100%,20%)">jamesgk</text>
<text x="1.361" y="0.909" font-size="0.023160" fill="hsl(180.0,100%,20%)">penghuang</text>
<text x="1.469" y="0.065" font-size="0.003574" fill="hsl(180.0,100%,20%)">blundell</text>
<text x="1.187" y="0.111" font-size="0.006190" fill="hsl(180.0,100%,20%)">danakj</text>
<text x="0.867" y="0.644" font-size="0.005054" fill="hsl(0.0,100%,20%)">alanbaker</text>
<text x="1.128" y="0.819" font-size="0.022318" fill="hsl(180.0,100%,20%)">gman</text>
<text x="1.453" y="0.327" font-size="0.003574" fill="hsl(0.0,100%,20%)">yiwzhang</text>
<text x="0.267" y="0.234" font-size="0.005054" fill="hsl(180.0,100%,20%)">lehoangquyen</text>
<text x="0.418" y="0.697" font-size="0.007147" fill="hsl(180.0,100%,20%)">geofflang</text>
<text x="0.375" y="0.602" font-size="0.003574" fill="hsl(180.0,100%,20%)">fmalita</text>
<text x="0.853" y="0.829" font-size="0.013372" fill="hsl(180.0,100%,20%)">hao.x.li</text>
<text x="1.970" y="0.666" font-size="0.011301" fill="hsl(180.0,100%,20%)">hitawala</text>
<text x="1.943" y="0.341" font-size="0.006190" fill="hsl(180.0,100%,20%)">sunnyps</text>
<text x="1.104" y="0.831" font-size="0.006190" fill="hsl(180.0,100%,20%)">jianlin.qiu</text>
<text x="1.642" y="0.264" font-size="0.041059" fill="hsl(180.0,100%,20%)">jiawei.shao</text>
<text x="1.018" y="0.136" font-size="0.012380" fill="hsl(180.0,100%,20%)">zhaoming.jiang</text>
<text x="0.868" y="0.253" font-size="0.012380" fill="hsl(180.0,100%,20%)">jie.a.chen</text>
<text x="1.123" y="0.951" font-size="0.003574" fill="hsl(180.0,100%,20%)">kbr</text>
<text x="1.048" y="0.287" font-size="0.007147" fill="hsl(180.0,100%,20%)">shaobo.yan</text>
<text x="0.940" y="0.812" font-size="0.012885" fill="hsl(180.0,100%,20%)">tiszka</text>
<text x="0.212" y="0.165" font-size="0.007147" fill="hsl(180.0,100%,20%)">vollick</text>
<text x="1.621" y="0.646" font-size="0.010108" fill="hsl(180.0,100%,20%)">ynovikov</text>
</svg>
