<svg width="4000" height="2000" viewBox="-0.025 -0.025 2.05 1.05" xmlns="http://www.w3.org/2000/svg">
  <style>
    path {
      fill: none;
      stroke-linecap: round;
      stroke-opacity: 0.4;
    }

    text {
      text-anchor: middle;
      alignment-baseline: hanging;
    }
  </style>
  <g opacity="0.4">
<path d="M0.675 0.499 Q0.516 0.712 0.896 0.836" stroke="hsl(0.0,100%,35%)" stroke-width="0.00046"></path>
<path d="M0.675 0.499 Q0.459 0.567 0.545 0.687" stroke="hsl(0.0,100%,35%)" stroke-width="0.00069"></path>
<path d="M0.675 0.499 Q0.669 0.800 1.254 0.868" stroke="hsl(0.0,100%,35%)" stroke-width="0.00046"></path>
<path d="M0.896 0.836 Q1.049 0.923 1.254 0.868" stroke="hsl(0.0,100%,35%)" stroke-width="0.03988"></path>
<path d="M0.896 0.836 Q0.809 0.865 0.847 0.913" stroke="hsl(0.0,100%,35%)" stroke-width="0.05982"></path>
<path d="M0.896 0.836 Q1.037 0.683 0.771 0.581" stroke="hsl(0.0,100%,35%)" stroke-width="0.02154"></path>
<path d="M0.896 0.836 Q1.088 0.787 1.036 0.683" stroke="hsl(0.0,100%,35%)" stroke-width="0.02384"></path>
<path d="M0.896 0.836 Q1.172 0.626 0.823 0.445" stroke="hsl(0.0,100%,35%)" stroke-width="0.00940"></path>
<path d="M0.896 0.836 Q1.325 0.730 1.213 0.498" stroke="hsl(0.0,100%,35%)" stroke-width="0.00023"></path>
<path d="M0.896 0.836 Q0.500 0.805 0.353 0.991" stroke="hsl(0.0,100%,35%)" stroke-width="0.00848"></path>
<path d="M0.896 0.836 Q0.507 0.827 0.404 1.015" stroke="hsl(0.0,100%,35%)" stroke-width="0.00023"></path>
<path d="M0.896 0.836 Q0.739 0.702 0.443 0.749" stroke="hsl(0.0,100%,35%)" stroke-width="0.00069"></path>
<path d="M0.896 0.836 Q0.839 0.691 0.545 0.687" stroke="hsl(0.0,100%,35%)" stroke-width="0.00252"></path>
<path d="M0.896 0.836 Q1.763 0.614 1.521 0.142" stroke="hsl(0.0,100%,35%)" stroke-width="0.00046"></path>
<path d="M0.896 0.836 Q1.588 0.604 1.288 0.215" stroke="hsl(0.0,100%,35%)" stroke-width="0.00023"></path>
<path d="M0.896 0.836 Q1.191 0.851 1.286 0.711" stroke="hsl(0.0,100%,35%)" stroke-width="0.00023"></path>
<path d="M0.545 0.687 Q0.878 0.622 0.823 0.445" stroke="hsl(0.0,100%,35%)" stroke-width="0.00023"></path>
<path d="M0.545 0.687 Q0.515 0.861 0.847 0.913" stroke="hsl(0.0,100%,35%)" stroke-width="0.00115"></path>
<path d="M0.545 0.687 Q0.754 0.919 1.254 0.868" stroke="hsl(0.0,100%,35%)" stroke-width="0.00069"></path>
<path d="M0.545 0.687 Q0.206 0.801 0.353 0.991" stroke="hsl(0.0,100%,35%)" stroke-width="0.00160"></path>
<path d="M0.545 0.687 Q0.601 0.832 0.896 0.836" stroke="hsl(0.0,100%,35%)" stroke-width="0.00298"></path>
<path d="M0.545 0.687 Q1.469 0.610 1.521 0.142" stroke="hsl(0.0,100%,35%)" stroke-width="0.00046"></path>
<path d="M0.545 0.687 Q0.212 0.823 0.404 1.015" stroke="hsl(0.0,100%,35%)" stroke-width="0.00023"></path>
<path d="M0.545 0.687 Q0.743 0.679 0.771 0.581" stroke="hsl(0.0,100%,35%)" stroke-width="0.00069"></path>
<path d="M1.254 0.868 Q1.242 0.628 0.771 0.581" stroke="hsl(0.0,100%,35%)" stroke-width="0.00183"></path>
<path d="M1.254 0.868 Q1.101 0.780 0.896 0.836" stroke="hsl(0.0,100%,35%)" stroke-width="0.03163"></path>
<path d="M1.254 0.868 Q1.377 0.570 0.823 0.445" stroke="hsl(0.0,100%,35%)" stroke-width="0.00481"></path>
<path d="M1.254 0.868 Q1.014 0.809 0.847 0.913" stroke="hsl(0.0,100%,35%)" stroke-width="0.00710"></path>
<path d="M1.254 0.868 Q0.705 0.750 0.353 0.991" stroke="hsl(0.0,100%,35%)" stroke-width="0.00115"></path>
<path d="M1.254 0.868 Q1.117 0.497 0.362 0.482" stroke="hsl(0.0,100%,35%)" stroke-width="0.00023"></path>
<path d="M1.254 0.868 Q1.968 0.558 1.521 0.142" stroke="hsl(0.0,100%,35%)" stroke-width="0.00069"></path>
<path d="M1.254 0.868 Q1.420 0.949 1.615 0.886" stroke="hsl(0.0,100%,35%)" stroke-width="0.00023"></path>
<path d="M1.254 0.868 Q1.476 0.842 1.473 0.727" stroke="hsl(0.0,100%,35%)" stroke-width="0.00023"></path>
<path d="M1.254 0.868 Q1.044 0.636 0.545 0.687" stroke="hsl(0.0,100%,35%)" stroke-width="0.00046"></path>
<path d="M1.254 0.868 Q1.293 0.732 1.036 0.683" stroke="hsl(0.0,100%,35%)" stroke-width="0.00069"></path>
<path d="M0.771 0.581 Q0.645 0.450 0.362 0.482" stroke="hsl(0.0,100%,35%)" stroke-width="0.00046"></path>
<path d="M0.771 0.581 Q0.543 0.762 0.847 0.913" stroke="hsl(0.0,100%,35%)" stroke-width="0.00344"></path>
<path d="M0.771 0.581 Q0.629 0.733 0.896 0.836" stroke="hsl(0.0,100%,35%)" stroke-width="0.00229"></path>
<path d="M0.771 0.581 Q0.573 0.589 0.545 0.687" stroke="hsl(0.0,100%,35%)" stroke-width="0.00023"></path>
<path d="M0.771 0.581 Q0.782 0.821 1.254 0.868" stroke="hsl(0.0,100%,35%)" stroke-width="0.00023"></path>
<path d="M0.771 0.581 Q0.234 0.703 0.353 0.991" stroke="hsl(0.0,100%,35%)" stroke-width="0.00023"></path>
<path d="M0.823 0.445 Q0.547 0.655 0.896 0.836" stroke="hsl(0.0,100%,35%)" stroke-width="0.01513"></path>
<path d="M0.823 0.445 Q0.151 0.624 0.353 0.991" stroke="hsl(0.0,100%,35%)" stroke-width="0.00115"></path>
<path d="M0.823 0.445 Q0.460 0.684 0.847 0.913" stroke="hsl(0.0,100%,35%)" stroke-width="0.00092"></path>
<path d="M0.823 0.445 Q0.700 0.743 1.254 0.868" stroke="hsl(0.0,100%,35%)" stroke-width="0.00206"></path>
<path d="M0.823 0.445 Q0.688 0.502 0.771 0.581" stroke="hsl(0.0,100%,35%)" stroke-width="0.00092"></path>
<path d="M0.823 0.445 Q1.239 0.423 1.288 0.215" stroke="hsl(0.0,100%,35%)" stroke-width="0.00092"></path>
<path d="M0.823 0.445 Q0.563 0.371 0.362 0.482" stroke="hsl(0.0,100%,35%)" stroke-width="0.00023"></path>
<path d="M0.847 0.913 Q0.933 0.884 0.896 0.836" stroke="hsl(0.0,100%,35%)" stroke-width="0.07174"></path>
<path d="M0.847 0.913 Q0.877 0.740 0.545 0.687" stroke="hsl(0.0,100%,35%)" stroke-width="0.00206"></path>
<path d="M0.847 0.913 Q1.086 0.972 1.254 0.868" stroke="hsl(0.0,100%,35%)" stroke-width="0.01238"></path>
<path d="M0.847 0.913 Q1.210 0.674 0.823 0.445" stroke="hsl(0.0,100%,35%)" stroke-width="0.00023"></path>
<path d="M0.847 0.913 Q1.075 0.732 0.771 0.581" stroke="hsl(0.0,100%,35%)" stroke-width="0.00183"></path>
<path d="M0.847 0.913 Q0.538 0.854 0.353 0.991" stroke="hsl(0.0,100%,35%)" stroke-width="0.00206"></path>
<path d="M0.847 0.913 Q1.126 0.836 1.036 0.683" stroke="hsl(0.0,100%,35%)" stroke-width="0.01329"></path>
<path d="M0.847 0.913 Q0.806 0.944 0.858 0.971" stroke="hsl(0.0,100%,35%)" stroke-width="0.00023"></path>
<path d="M0.847 0.913 Q1.801 0.662 1.521 0.142" stroke="hsl(0.0,100%,35%)" stroke-width="0.00046"></path>
<path d="M0.847 0.913 Q1.228 0.900 1.286 0.711" stroke="hsl(0.0,100%,35%)" stroke-width="0.00023"></path>
<path d="M0.353 0.991 Q0.510 1.009 0.580 0.937" stroke="hsl(180.0,100%,35%)" stroke-width="0.01559"></path>
<path d="M0.353 0.991 Q1.441 0.790 1.288 0.215" stroke="hsl(180.0,100%,35%)" stroke-width="0.00344"></path>
<path d="M0.353 0.991 Q0.749 1.022 0.896 0.836" stroke="hsl(180.0,100%,35%)" stroke-width="0.00619"></path>
<path d="M0.353 0.991 Q0.592 0.888 0.443 0.749" stroke="hsl(180.0,100%,35%)" stroke-width="0.00023"></path>
<path d="M0.353 0.991 Q0.941 0.974 1.036 0.683" stroke="hsl(180.0,100%,35%)" stroke-width="0.01192"></path>
<path d="M0.353 0.991 Q0.588 0.950 0.560 0.827" stroke="hsl(180.0,100%,35%)" stroke-width="0.00023"></path>
<path d="M0.353 0.991 Q0.663 1.051 0.847 0.913" stroke="hsl(180.0,100%,35%)" stroke-width="0.00046"></path>
<path d="M0.353 0.991 Q0.360 1.013 0.404 1.015" stroke="hsl(180.0,100%,35%)" stroke-width="0.00344"></path>
<path d="M0.353 0.991 Q1.291 0.894 1.306 0.415" stroke="hsl(180.0,100%,35%)" stroke-width="0.00023"></path>
<path d="M0.353 0.991 Q0.598 0.755 0.191 0.584" stroke="hsl(180.0,100%,35%)" stroke-width="0.00023"></path>
<path d="M0.353 0.991 Q1.617 0.800 1.521 0.142" stroke="hsl(180.0,100%,35%)" stroke-width="0.00252"></path>
<path d="M0.353 0.991 Q0.825 0.667 0.296 0.366" stroke="hsl(180.0,100%,35%)" stroke-width="0.00023"></path>
<path d="M0.353 0.991 Q1.223 1.001 1.433 0.579" stroke="hsl(180.0,100%,35%)" stroke-width="0.00023"></path>
<path d="M0.353 0.991 Q1.093 0.973 1.220 0.608" stroke="hsl(180.0,100%,35%)" stroke-width="0.00046"></path>
<path d="M1.521 0.142 Q0.257 0.333 0.353 0.991" stroke="hsl(180.0,100%,35%)" stroke-width="0.00573"></path>
<path d="M1.521 0.142 Q0.414 0.351 0.580 0.937" stroke="hsl(180.0,100%,35%)" stroke-width="0.00046"></path>
<path d="M1.521 0.142 Q0.567 0.393 0.847 0.913" stroke="hsl(180.0,100%,35%)" stroke-width="0.00046"></path>
<path d="M1.521 0.142 Q0.653 0.364 0.896 0.836" stroke="hsl(180.0,100%,35%)" stroke-width="0.00092"></path>
<path d="M1.521 0.142 Q0.845 0.315 1.036 0.683" stroke="hsl(180.0,100%,35%)" stroke-width="0.00298"></path>
<path d="M1.521 0.142 Q1.345 0.132 1.288 0.215" stroke="hsl(180.0,100%,35%)" stroke-width="0.00298"></path>
<path d="M1.521 0.142 Q0.264 0.355 0.404 1.015" stroke="hsl(180.0,100%,35%)" stroke-width="0.00092"></path>
<path d="M1.521 0.142 Q1.043 0.130 0.915 0.360" stroke="hsl(180.0,100%,35%)" stroke-width="0.00023"></path>
<path d="M1.521 0.142 Q0.929 0.154 0.823 0.445" stroke="hsl(180.0,100%,35%)" stroke-width="0.00023"></path>
<path d="M1.036 0.683 Q0.843 0.731 0.896 0.836" stroke="hsl(180.0,100%,35%)" stroke-width="0.01765"></path>
<path d="M1.036 0.683 Q0.448 0.701 0.353 0.991" stroke="hsl(180.0,100%,35%)" stroke-width="0.02315"></path>
<path d="M1.036 0.683 Q0.604 0.719 0.580 0.937" stroke="hsl(180.0,100%,35%)" stroke-width="0.00940"></path>
<path d="M1.036 0.683 Q1.711 0.509 1.521 0.142" stroke="hsl(180.0,100%,35%)" stroke-width="0.00275"></path>
<path d="M1.036 0.683 Q0.649 0.473 0.155 0.615" stroke="hsl(180.0,100%,35%)" stroke-width="0.00046"></path>
<path d="M1.036 0.683 Q1.536 0.500 1.288 0.215" stroke="hsl(180.0,100%,35%)" stroke-width="0.00138"></path>
<path d="M1.036 0.683 Q0.757 0.760 0.847 0.913" stroke="hsl(180.0,100%,35%)" stroke-width="0.00298"></path>
<path d="M1.036 0.683 Q0.454 0.722 0.404 1.015" stroke="hsl(180.0,100%,35%)" stroke-width="0.00069"></path>
<path d="M1.036 0.683 Q1.400 0.629 1.375 0.439" stroke="hsl(180.0,100%,35%)" stroke-width="0.00023"></path>
<path d="M1.036 0.683 Q0.996 0.819 1.254 0.868" stroke="hsl(180.0,100%,35%)" stroke-width="0.00023"></path>
<path d="M1.036 0.683 Q1.120 0.521 0.823 0.445" stroke="hsl(180.0,100%,35%)" stroke-width="0.00046"></path>
<path d="M0.580 0.937 Q0.423 0.919 0.353 0.991" stroke="hsl(180.0,100%,35%)" stroke-width="0.01215"></path>
<path d="M0.580 0.937 Q1.011 0.901 1.036 0.683" stroke="hsl(180.0,100%,35%)" stroke-width="0.00160"></path>
<path d="M0.580 0.937 Q1.511 0.718 1.288 0.215" stroke="hsl(180.0,100%,35%)" stroke-width="0.00046"></path>
<path d="M0.580 0.937 Q0.819 0.950 0.896 0.836" stroke="hsl(180.0,100%,35%)" stroke-width="0.00069"></path>
<path d="M0.580 0.937 Q0.430 0.941 0.404 1.015" stroke="hsl(180.0,100%,35%)" stroke-width="0.00138"></path>
<path d="M1.288 0.215 Q0.200 0.416 0.353 0.991" stroke="hsl(180.0,100%,35%)" stroke-width="0.00160"></path>
<path d="M1.288 0.215 Q0.596 0.447 0.896 0.836" stroke="hsl(180.0,100%,35%)" stroke-width="0.00023"></path>
<path d="M1.288 0.215 Q0.788 0.399 1.036 0.683" stroke="hsl(180.0,100%,35%)" stroke-width="0.00023"></path>
<path d="M1.288 0.215 Q0.357 0.435 0.580 0.937" stroke="hsl(180.0,100%,35%)" stroke-width="0.00046"></path>
<path d="M1.288 0.215 Q0.509 0.476 0.847 0.913" stroke="hsl(180.0,100%,35%)" stroke-width="0.00069"></path>
<path d="M0.404 1.015 Q0.397 0.993 0.353 0.991" stroke="hsl(180.0,100%,35%)" stroke-width="0.00596"></path>
<path d="M0.404 1.015 Q1.486 0.792 1.288 0.215" stroke="hsl(180.0,100%,35%)" stroke-width="0.00069"></path>
<path d="M0.404 1.015 Q0.985 0.975 1.036 0.683" stroke="hsl(180.0,100%,35%)" stroke-width="0.00206"></path>
<path d="M0.404 1.015 Q0.793 1.024 0.896 0.836" stroke="hsl(180.0,100%,35%)" stroke-width="0.00023"></path>
<path d="M0.404 1.015 Q0.554 1.011 0.580 0.937" stroke="hsl(180.0,100%,35%)" stroke-width="0.00115"></path>
<path d="M0.404 1.015 Q1.661 0.802 1.521 0.142" stroke="hsl(180.0,100%,35%)" stroke-width="0.00023"></path>
<path d="M0.915 0.360 Q0.717 0.546 1.036 0.683" stroke="hsl(180.0,100%,35%)" stroke-width="0.00252"></path>
<path d="M0.915 0.360 Q0.129 0.564 0.353 0.991" stroke="hsl(180.0,100%,35%)" stroke-width="0.00298"></path>
<path d="M0.915 0.360 Q1.217 0.363 1.288 0.215" stroke="hsl(180.0,100%,35%)" stroke-width="0.00023"></path>
<path d="M0.915 0.360 Q0.869 0.545 1.220 0.608" stroke="hsl(180.0,100%,35%)" stroke-width="0.00023"></path>
<path d="M0.915 0.360 Q1.192 0.616 1.752 0.537" stroke="hsl(180.0,100%,35%)" stroke-width="0.00023"></path>
<path d="M1.213 0.498 Q0.976 0.555 1.036 0.683" stroke="hsl(180.0,100%,35%)" stroke-width="0.00183"></path>
<path d="M1.213 0.498 Q0.388 0.572 0.353 0.991" stroke="hsl(180.0,100%,35%)" stroke-width="0.00275"></path>
<path d="M1.213 0.498 Q0.784 0.603 0.896 0.836" stroke="hsl(180.0,100%,35%)" stroke-width="0.00115"></path>
<path d="M1.213 0.498 Q1.476 0.371 1.288 0.215" stroke="hsl(180.0,100%,35%)" stroke-width="0.00046"></path>
<path d="M1.213 0.498 Q0.545 0.591 0.580 0.937" stroke="hsl(180.0,100%,35%)" stroke-width="0.00023"></path>
<path d="M1.213 0.498 Q0.937 0.691 1.254 0.868" stroke="hsl(180.0,100%,35%)" stroke-width="0.00023"></path>
<path d="M0.443 0.749 Q0.792 0.834 1.036 0.683" stroke="hsl(0.0,100%,35%)" stroke-width="0.00138"></path>
<path d="M0.443 0.749 Q0.204 0.852 0.353 0.991" stroke="hsl(0.0,100%,35%)" stroke-width="0.00138"></path>
<path d="M0.443 0.749 Q0.600 0.883 0.896 0.836" stroke="hsl(0.0,100%,35%)" stroke-width="0.01031"></path>
<path d="M0.443 0.749 Q0.513 0.912 0.847 0.913" stroke="hsl(0.0,100%,35%)" stroke-width="0.00092"></path>
<path d="M0.443 0.749 Q0.741 0.730 0.771 0.581" stroke="hsl(0.0,100%,35%)" stroke-width="0.00046"></path>
<path d="M0.443 0.749 Q0.753 0.970 1.254 0.868" stroke="hsl(0.0,100%,35%)" stroke-width="0.00069"></path>
<path d="M0.443 0.749 Q0.543 0.738 0.545 0.687" stroke="hsl(0.0,100%,35%)" stroke-width="0.00046"></path>
<path d="M0.443 0.749 Q1.292 0.651 1.288 0.215" stroke="hsl(0.0,100%,35%)" stroke-width="0.00023"></path>
<path d="M1.286 0.711 Q0.595 0.665 0.353 0.991" stroke="hsl(180.0,100%,35%)" stroke-width="0.00619"></path>
<path d="M1.286 0.711 Q0.991 0.695 0.896 0.836" stroke="hsl(180.0,100%,35%)" stroke-width="0.00871"></path>
<path d="M1.286 0.711 Q1.183 0.647 1.036 0.683" stroke="hsl(180.0,100%,35%)" stroke-width="0.00275"></path>
<path d="M1.286 0.711 Q0.752 0.683 0.580 0.937" stroke="hsl(180.0,100%,35%)" stroke-width="0.00046"></path>
<path d="M1.286 0.711 Q1.144 0.783 1.254 0.868" stroke="hsl(180.0,100%,35%)" stroke-width="0.00023"></path>
<path d="M1.286 0.711 Q1.132 0.543 0.771 0.581" stroke="hsl(180.0,100%,35%)" stroke-width="0.00069"></path>
<path d="M0.155 0.615 Q1.041 0.642 1.288 0.215" stroke="hsl(180.0,100%,35%)" stroke-width="0.00046"></path>
<path d="M0.155 0.615 Q-0.047 0.843 0.353 0.991" stroke="hsl(180.0,100%,35%)" stroke-width="0.00206"></path>
<path d="M0.155 0.615 Q0.349 0.874 0.896 0.836" stroke="hsl(180.0,100%,35%)" stroke-width="0.00023"></path>
<path d="M1.375 0.439 Q1.010 0.493 1.036 0.683" stroke="hsl(180.0,100%,35%)" stroke-width="0.00275"></path>
<path d="M1.375 0.439 Q0.422 0.511 0.353 0.991" stroke="hsl(180.0,100%,35%)" stroke-width="0.00183"></path>
<path d="M1.375 0.439 Q1.510 0.310 1.288 0.215" stroke="hsl(180.0,100%,35%)" stroke-width="0.00069"></path>
<path d="M1.375 0.439 Q0.818 0.542 0.896 0.836" stroke="hsl(180.0,100%,35%)" stroke-width="0.00023"></path>
<path d="M1.306 0.415 Q0.957 0.495 1.036 0.683" stroke="hsl(180.0,100%,35%)" stroke-width="0.00138"></path>
<path d="M1.306 0.415 Q0.369 0.513 0.353 0.991" stroke="hsl(180.0,100%,35%)" stroke-width="0.00160"></path>
<path d="M1.306 0.415 Q0.526 0.531 0.580 0.937" stroke="hsl(180.0,100%,35%)" stroke-width="0.00046"></path>
<path d="M1.220 0.608 Q0.480 0.626 0.353 0.991" stroke="hsl(180.0,100%,35%)" stroke-width="0.01283"></path>
<path d="M1.220 0.608 Q1.068 0.609 1.036 0.683" stroke="hsl(180.0,100%,35%)" stroke-width="0.00894"></path>
<path d="M1.220 0.608 Q1.568 0.425 1.288 0.215" stroke="hsl(180.0,100%,35%)" stroke-width="0.00046"></path>
<path d="M1.220 0.608 Q0.876 0.657 0.896 0.836" stroke="hsl(180.0,100%,35%)" stroke-width="0.00160"></path>
<path d="M1.220 0.608 Q1.017 0.505 0.771 0.581" stroke="hsl(180.0,100%,35%)" stroke-width="0.00046"></path>
<path d="M1.220 0.608 Q0.636 0.645 0.580 0.937" stroke="hsl(180.0,100%,35%)" stroke-width="0.00023"></path>
<path d="M1.220 0.608 Q1.743 0.435 1.521 0.142" stroke="hsl(180.0,100%,35%)" stroke-width="0.00046"></path>
<path d="M1.475 0.644 Q1.224 0.576 1.036 0.683" stroke="hsl(180.0,100%,35%)" stroke-width="0.00229"></path>
<path d="M1.475 0.644 Q0.636 0.593 0.353 0.991" stroke="hsl(180.0,100%,35%)" stroke-width="0.00252"></path>
<path d="M1.475 0.644 Q1.506 0.603 1.433 0.579" stroke="hsl(180.0,100%,35%)" stroke-width="0.00023"></path>
<path d="M1.475 0.644 Q1.724 0.392 1.288 0.215" stroke="hsl(180.0,100%,35%)" stroke-width="0.00023"></path>
<path d="M1.475 0.644 Q0.643 0.615 0.404 1.015" stroke="hsl(180.0,100%,35%)" stroke-width="0.00023"></path>
<path d="M0.857 0.987 Q0.911 0.948 0.847 0.913" stroke="hsl(0.0,100%,35%)" stroke-width="0.00023"></path>
<path d="M0.857 0.987 Q0.998 0.919 0.896 0.836" stroke="hsl(0.0,100%,35%)" stroke-width="0.00023"></path>
<path d="M0.857 0.987 Q0.602 0.888 0.353 0.991" stroke="hsl(0.0,100%,35%)" stroke-width="0.00023"></path>
<path d="M1.087 0.384 Q0.822 0.523 1.036 0.683" stroke="hsl(180.0,100%,35%)" stroke-width="0.00252"></path>
<path d="M1.087 0.384 Q0.234 0.541 0.353 0.991" stroke="hsl(180.0,100%,35%)" stroke-width="0.00321"></path>
<path d="M1.087 0.384 Q0.974 0.522 1.220 0.608" stroke="hsl(180.0,100%,35%)" stroke-width="0.00046"></path>
<path d="M1.079 0.510 Q0.920 0.588 1.036 0.683" stroke="hsl(180.0,100%,35%)" stroke-width="0.00046"></path>
<path d="M1.079 0.510 Q0.671 0.492 0.545 0.687" stroke="hsl(180.0,100%,35%)" stroke-width="0.00023"></path>
<path d="M1.079 0.510 Q0.727 0.636 0.896 0.836" stroke="hsl(180.0,100%,35%)" stroke-width="0.00023"></path>
<path d="M0.114 0.591 Q0.501 0.821 1.036 0.683" stroke="hsl(180.0,100%,35%)" stroke-width="0.00023"></path>
<path d="M0.114 0.591 Q0.252 0.725 0.545 0.687" stroke="hsl(180.0,100%,35%)" stroke-width="0.00023"></path>
<path d="M0.114 0.591 Q0.176 0.654 0.312 0.637" stroke="hsl(180.0,100%,35%)" stroke-width="0.00023"></path>
<path d="M0.732 1.097 Q1.215 0.950 1.036 0.683" stroke="hsl(180.0,100%,35%)" stroke-width="0.00046"></path>
<path d="M0.732 1.097 Q0.627 0.968 0.353 0.991" stroke="hsl(180.0,100%,35%)" stroke-width="0.00023"></path>
<path d="M0.732 1.097 Q0.783 0.986 0.580 0.937" stroke="hsl(180.0,100%,35%)" stroke-width="0.00023"></path>
<path d="M1.752 0.537 Q1.429 0.466 1.220 0.608" stroke="hsl(180.0,100%,35%)" stroke-width="0.00023"></path>
<path d="M1.752 0.537 Q1.528 0.535 1.475 0.644" stroke="hsl(180.0,100%,35%)" stroke-width="0.00023"></path>
<path d="M1.752 0.537 Q0.689 0.484 0.353 0.991" stroke="hsl(180.0,100%,35%)" stroke-width="0.00023"></path>
</g>
<text x="0.675" y="0.496" font-size="0.007263" fill="hsl(0.0,100%,20%)">afdx</text>
<text x="0.896" y="0.783" font-size="0.105786" fill="hsl(0.0,100%,20%)">bclayton</text>
<text x="0.545" y="0.676" font-size="0.022132" fill="hsl(0.0,100%,20%)">rharrison</text>
<text x="1.254" y="0.839" font-size="0.059068" fill="hsl(0.0,100%,20%)">amaiorano</text>
<text x="0.771" y="0.564" font-size="0.034066" fill="hsl(0.0,100%,20%)">dneto</text>
<text x="0.823" y="0.428" font-size="0.034724" fill="hsl(0.0,100%,20%)">jrprice</text>
<text x="0.847" y="0.874" font-size="0.077499" fill="hsl(0.0,100%,20%)">dsinclair</text>
<text x="0.353" y="0.957" font-size="0.069447" fill="hsl(180.0,100%,20%)">enga</text>
<text x="0.362" y="0.480" font-size="0.005490" fill="hsl(0.0,100%,20%)">alanbaker</text>
<text x="1.521" y="0.128" font-size="0.027451" fill="hsl(180.0,100%,20%)">bajones</text>
<text x="1.615" y="0.884" font-size="0.002745" fill="hsl(0.0,100%,20%)">sugoi</text>
<text x="1.473" y="0.726" font-size="0.002745" fill="hsl(0.0,100%,20%)">armansito</text>
<text x="1.036" y="0.648" font-size="0.068683" fill="hsl(180.0,100%,20%)">cwallez</text>
<text x="0.580" y="0.918" font-size="0.038432" fill="hsl(180.0,100%,20%)">lokokung</text>
<text x="1.288" y="0.204" font-size="0.022967" fill="hsl(180.0,100%,20%)">kainino</text>
<text x="0.404" y="1.003" font-size="0.023932" fill="hsl(180.0,100%,20%)">shrekshao</text>
<text x="0.915" y="0.353" font-size="0.014526" fill="hsl(180.0,100%,20%)">yunchao.he</text>
<text x="1.213" y="0.490" font-size="0.015036" fill="hsl(180.0,100%,20%)">brandon1.jones</text>
<text x="0.443" y="0.737" font-size="0.023454" fill="hsl(0.0,100%,20%)">zhaoming.jiang</text>
<text x="1.286" y="0.698" font-size="0.025309" fill="hsl(180.0,100%,20%)">senorblanco</text>
<text x="0.155" y="0.610" font-size="0.010271" fill="hsl(180.0,100%,20%)">ynovikov</text>
<text x="1.375" y="0.432" font-size="0.013726" fill="hsl(180.0,100%,20%)">hogehoge</text>
<text x="0.858" y="0.970" font-size="0.002745" fill="hsl(0.0,100%,20%)">johnstiles</text>
<text x="0.560" y="0.825" font-size="0.002745" fill="hsl(180.0,100%,20%)">gman</text>
<text x="1.306" y="0.410" font-size="0.010981" fill="hsl(180.0,100%,20%)">jie.a.chen</text>
<text x="0.191" y="0.583" font-size="0.002745" fill="hsl(180.0,100%,20%)">sunnyps</text>
<text x="0.296" y="0.365" font-size="0.002745" fill="hsl(180.0,100%,20%)">zmo</text>
<text x="1.433" y="0.577" font-size="0.003882" fill="hsl(180.0,100%,20%)">bsheedy</text>
<text x="1.220" y="0.593" font-size="0.029438" fill="hsl(180.0,100%,20%)">jiawei.shao</text>
<text x="1.475" y="0.637" font-size="0.013726" fill="hsl(180.0,100%,20%)">hao.x.li</text>
<text x="0.857" y="0.985" font-size="0.004755" fill="hsl(0.0,100%,20%)">jwata</text>
<text x="1.087" y="0.377" font-size="0.014264" fill="hsl(180.0,100%,20%)">shaobo.yan</text>
<text x="1.079" y="0.508" font-size="0.005490" fill="hsl(180.0,100%,20%)">ukai</text>
<text x="0.114" y="0.589" font-size="0.004755" fill="hsl(180.0,100%,20%)">vadimsh</text>
<text x="0.312" y="0.636" font-size="0.002745" fill="hsl(180.0,100%,20%)">deleted</text>
<text x="0.732" y="1.094" font-size="0.005490" fill="hsl(180.0,100%,20%)">wangqing-hf</text>
<text x="1.752" y="0.534" font-size="0.005490" fill="hsl(180.0,100%,20%)">yang.gu</text>
</svg>
