<svg width="4000" height="2000" viewBox="-0.025 -0.025 2.05 1.05" xmlns="http://www.w3.org/2000/svg">
  <style>
    path {
      fill: none;
      stroke-linecap: round;
      stroke-opacity: 0.4;
    }

    text {
      text-anchor: middle;
      alignment-baseline: hanging;
    }
  </style>
  <g opacity="0.4">
<path d="M1.272 0.390 Q0.633 0.374 0.461 0.682" stroke="hsl(0.0,100%,35%)" stroke-width="0.00430"></path>
<path d="M1.272 0.390 Q1.039 0.380 0.968 0.492" stroke="hsl(0.0,100%,35%)" stroke-width="0.00382"></path>
<path d="M1.272 0.390 Q0.913 0.189 0.441 0.320" stroke="hsl(0.0,100%,35%)" stroke-width="0.00048"></path>
<path d="M0.461 0.682 Q0.741 0.497 0.441 0.320" stroke="hsl(0.0,100%,35%)" stroke-width="0.05496"></path>
<path d="M0.461 0.682 Q0.383 0.554 0.116 0.564" stroke="hsl(0.0,100%,35%)" stroke-width="0.00048"></path>
<path d="M0.461 0.682 Q0.867 0.688 0.968 0.492" stroke="hsl(0.0,100%,35%)" stroke-width="0.07264"></path>
<path d="M0.461 0.682 Q0.408 0.540 0.119 0.535" stroke="hsl(0.0,100%,35%)" stroke-width="0.00335"></path>
<path d="M0.461 0.682 Q0.671 0.548 0.454 0.416" stroke="hsl(0.0,100%,35%)" stroke-width="0.00143"></path>
<path d="M0.461 0.682 Q0.420 0.517 0.089 0.501" stroke="hsl(0.0,100%,35%)" stroke-width="0.00717"></path>
<path d="M0.461 0.682 Q0.588 0.458 0.178 0.347" stroke="hsl(0.0,100%,35%)" stroke-width="0.00430"></path>
<path d="M0.461 0.682 Q0.996 0.790 1.323 0.552" stroke="hsl(0.0,100%,35%)" stroke-width="0.00048"></path>
<path d="M0.461 0.682 Q1.163 0.763 1.475 0.438" stroke="hsl(0.0,100%,35%)" stroke-width="0.00096"></path>
<path d="M0.461 0.682 Q1.171 0.473 0.918 0.081" stroke="hsl(0.0,100%,35%)" stroke-width="0.00143"></path>
<path d="M0.461 0.682 Q1.100 0.698 1.272 0.390" stroke="hsl(0.0,100%,35%)" stroke-width="0.00048"></path>
<path d="M0.461 0.682 Q0.860 0.595 0.778 0.382" stroke="hsl(0.0,100%,35%)" stroke-width="0.00096"></path>
<path d="M0.461 0.682 Q0.693 0.670 0.721 0.555" stroke="hsl(0.0,100%,35%)" stroke-width="0.00048"></path>
<path d="M0.461 0.682 Q0.675 0.528 0.422 0.390" stroke="hsl(0.0,100%,35%)" stroke-width="0.00048"></path>
<path d="M0.461 0.682 Q1.118 0.564 1.032 0.218" stroke="hsl(0.0,100%,35%)" stroke-width="0.00096"></path>
<path d="M0.461 0.682 Q0.710 0.598 0.599 0.458" stroke="hsl(0.0,100%,35%)" stroke-width="0.00048"></path>
<path d="M0.461 0.682 Q0.529 0.485 0.159 0.408" stroke="hsl(0.0,100%,35%)" stroke-width="0.00048"></path>
<path d="M0.968 0.492 Q0.842 0.300 0.441 0.320" stroke="hsl(0.0,100%,35%)" stroke-width="0.05209"></path>
<path d="M0.968 0.492 Q0.562 0.486 0.461 0.682" stroke="hsl(0.0,100%,35%)" stroke-width="0.04110"></path>
<path d="M0.968 0.492 Q0.521 0.321 0.089 0.501" stroke="hsl(0.0,100%,35%)" stroke-width="0.00096"></path>
<path d="M0.968 0.492 Q0.509 0.344 0.119 0.535" stroke="hsl(0.0,100%,35%)" stroke-width="0.00048"></path>
<path d="M0.968 0.492 Q1.069 0.391 0.895 0.320" stroke="hsl(0.0,100%,35%)" stroke-width="0.00048"></path>
<path d="M0.441 0.320 Q0.559 0.418 0.778 0.382" stroke="hsl(0.0,100%,35%)" stroke-width="0.00048"></path>
<path d="M0.441 0.320 Q0.566 0.511 0.968 0.492" stroke="hsl(0.0,100%,35%)" stroke-width="0.00239"></path>
<path d="M0.441 0.320 Q0.161 0.505 0.461 0.682" stroke="hsl(0.0,100%,35%)" stroke-width="0.00239"></path>
<path d="M0.441 0.320 Q0.119 0.340 0.089 0.501" stroke="hsl(0.0,100%,35%)" stroke-width="0.00048"></path>
<path d="M0.650 0.130 Q0.114 0.368 0.461 0.682" stroke="hsl(0.0,100%,35%)" stroke-width="0.00382"></path>
<path d="M0.650 0.130 Q0.520 0.375 0.968 0.492" stroke="hsl(0.0,100%,35%)" stroke-width="0.00096"></path>
<path d="M0.650 0.130 Q0.394 0.183 0.441 0.320" stroke="hsl(0.0,100%,35%)" stroke-width="0.00335"></path>
<path d="M0.650 0.130 Q0.208 0.169 0.187 0.393" stroke="hsl(0.0,100%,35%)" stroke-width="0.00048"></path>
<path d="M0.187 0.393 Q0.499 0.599 0.968 0.492" stroke="hsl(0.0,100%,35%)" stroke-width="0.00191"></path>
<path d="M0.187 0.393 Q0.093 0.593 0.461 0.682" stroke="hsl(0.0,100%,35%)" stroke-width="0.00382"></path>
<path d="M0.187 0.393 Q0.373 0.407 0.441 0.320" stroke="hsl(0.0,100%,35%)" stroke-width="0.00287"></path>
<path d="M1.475 0.438 Q1.179 0.364 0.968 0.492" stroke="hsl(0.0,100%,35%)" stroke-width="0.01242"></path>
<path d="M1.475 0.438 Q0.773 0.357 0.461 0.682" stroke="hsl(0.0,100%,35%)" stroke-width="0.01242"></path>
<path d="M1.475 0.438 Q1.053 0.172 0.441 0.320" stroke="hsl(0.0,100%,35%)" stroke-width="0.00430"></path>
<path d="M0.089 0.501 Q0.410 0.481 0.441 0.320" stroke="hsl(0.0,100%,35%)" stroke-width="0.01242"></path>
<path d="M0.089 0.501 Q0.130 0.666 0.461 0.682" stroke="hsl(0.0,100%,35%)" stroke-width="0.02103"></path>
<path d="M0.089 0.501 Q0.536 0.672 0.968 0.492" stroke="hsl(0.0,100%,35%)" stroke-width="0.01338"></path>
<path d="M0.178 0.347 Q0.051 0.571 0.461 0.682" stroke="hsl(0.0,100%,35%)" stroke-width="0.01864"></path>
<path d="M0.178 0.347 Q0.457 0.577 0.968 0.492" stroke="hsl(0.0,100%,35%)" stroke-width="0.01290"></path>
<path d="M0.178 0.347 Q0.331 0.386 0.441 0.320" stroke="hsl(0.0,100%,35%)" stroke-width="0.00765"></path>
<path d="M1.323 0.552 Q0.788 0.445 0.461 0.682" stroke="hsl(0.0,100%,35%)" stroke-width="0.00096"></path>
<path d="M1.323 0.552 Q1.194 0.451 0.968 0.492" stroke="hsl(0.0,100%,35%)" stroke-width="0.00430"></path>
<path d="M1.323 0.552 Q1.068 0.259 0.441 0.320" stroke="hsl(0.0,100%,35%)" stroke-width="0.00191"></path>
<path d="M0.918 0.081 Q0.614 0.296 0.968 0.492" stroke="hsl(0.0,100%,35%)" stroke-width="0.00096"></path>
<path d="M0.918 0.081 Q0.209 0.290 0.461 0.682" stroke="hsl(0.0,100%,35%)" stroke-width="0.00143"></path>
<path d="M0.918 0.081 Q0.489 0.105 0.441 0.320" stroke="hsl(0.0,100%,35%)" stroke-width="0.00143"></path>
<path d="M0.778 0.382 Q0.659 0.283 0.441 0.320" stroke="hsl(0.0,100%,35%)" stroke-width="0.00860"></path>
<path d="M0.778 0.382 Q0.379 0.469 0.461 0.682" stroke="hsl(0.0,100%,35%)" stroke-width="0.01481"></path>
<path d="M0.778 0.382 Q0.785 0.475 0.968 0.492" stroke="hsl(0.0,100%,35%)" stroke-width="0.01004"></path>
<path d="M1.032 0.218 Q0.655 0.151 0.441 0.320" stroke="hsl(0.0,100%,35%)" stroke-width="0.00573"></path>
<path d="M1.032 0.218 Q0.781 0.342 0.968 0.492" stroke="hsl(0.0,100%,35%)" stroke-width="0.00096"></path>
<path d="M1.032 0.218 Q0.376 0.336 0.461 0.682" stroke="hsl(0.0,100%,35%)" stroke-width="0.00239"></path>
<path d="M0.599 0.458 Q0.630 0.357 0.441 0.320" stroke="hsl(0.0,100%,35%)" stroke-width="0.00717"></path>
<path d="M0.599 0.458 Q0.351 0.542 0.461 0.682" stroke="hsl(0.0,100%,35%)" stroke-width="0.00812"></path>
<path d="M0.599 0.458 Q0.756 0.548 0.968 0.492" stroke="hsl(0.0,100%,35%)" stroke-width="0.00669"></path>
<path d="M0.599 0.458 Q0.445 0.343 0.187 0.393" stroke="hsl(0.0,100%,35%)" stroke-width="0.00143"></path>
<path d="M0.159 0.408 Q0.049 0.441 0.089 0.501" stroke="hsl(0.0,100%,35%)" stroke-width="0.00048"></path>
<path d="M0.159 0.408 Q0.090 0.606 0.461 0.682" stroke="hsl(0.0,100%,35%)" stroke-width="0.00908"></path>
<path d="M0.159 0.408 Q0.496 0.612 0.968 0.492" stroke="hsl(0.0,100%,35%)" stroke-width="0.00287"></path>
<path d="M0.159 0.408 Q0.370 0.420 0.441 0.320" stroke="hsl(0.0,100%,35%)" stroke-width="0.00382"></path>
<path d="M1.190 0.892 Q1.273 0.456 0.441 0.320" stroke="hsl(0.0,100%,35%)" stroke-width="0.00096"></path>
<path d="M1.190 0.892 Q1.019 0.823 0.847 0.891" stroke="hsl(0.0,100%,35%)" stroke-width="0.00048"></path>
<path d="M1.190 0.892 Q0.993 0.641 0.461 0.682" stroke="hsl(0.0,100%,35%)" stroke-width="0.00048"></path>
<path d="M0.214 0.210 Q0.366 0.502 0.968 0.492" stroke="hsl(0.0,100%,35%)" stroke-width="0.00048"></path>
<path d="M0.214 0.210 Q-0.040 0.496 0.461 0.682" stroke="hsl(0.0,100%,35%)" stroke-width="0.00191"></path>
<path d="M0.214 0.210 Q0.240 0.310 0.441 0.320" stroke="hsl(0.0,100%,35%)" stroke-width="0.00096"></path>
<path d="M0.567 0.432 Q0.314 0.536 0.461 0.682" stroke="hsl(0.0,100%,35%)" stroke-width="0.00812"></path>
<path d="M0.567 0.432 Q0.720 0.542 0.968 0.492" stroke="hsl(0.0,100%,35%)" stroke-width="0.00335"></path>
<path d="M0.567 0.432 Q0.594 0.350 0.441 0.320" stroke="hsl(0.0,100%,35%)" stroke-width="0.00335"></path>
<path d="M1.069 0.589 Q0.690 0.514 0.461 0.682" stroke="hsl(0.0,100%,35%)" stroke-width="0.00143"></path>
<path d="M1.069 0.589 Q1.096 0.520 0.968 0.492" stroke="hsl(0.0,100%,35%)" stroke-width="0.00143"></path>
<path d="M1.069 0.589 Q0.970 0.328 0.441 0.320" stroke="hsl(0.0,100%,35%)" stroke-width="0.00048"></path>
</g>
<text x="1.272" y="0.381" font-size="0.018872" fill="hsl(0.0,100%,20%)">beaufort.francois</text>
<text x="0.461" y="0.627" font-size="0.109869" fill="hsl(0.0,100%,20%)">cwallez</text>
<text x="0.968" y="0.443" font-size="0.098346" fill="hsl(0.0,100%,20%)">enga</text>
<text x="0.441" y="0.278" font-size="0.083616" fill="hsl(0.0,100%,20%)">kainino</text>
<text x="0.650" y="0.121" font-size="0.018368" fill="hsl(0.0,100%,20%)">brandon1.jones</text>
<text x="0.187" y="0.383" font-size="0.020307" fill="hsl(0.0,100%,20%)">rafael.cintron</text>
<text x="1.475" y="0.421" font-size="0.034364" fill="hsl(0.0,100%,20%)">bryan.bernhart</text>
<text x="0.116" y="0.562" font-size="0.004329" fill="hsl(0.0,100%,20%)">dsinclair</text>
<text x="0.119" y="0.529" font-size="0.012246" fill="hsl(0.0,100%,20%)">digit</text>
<text x="0.454" y="0.412" font-size="0.007499" fill="hsl(0.0,100%,20%)">thakis</text>
<text x="0.089" y="0.478" font-size="0.046830" fill="hsl(0.0,100%,20%)">jiawei.shao</text>
<text x="0.178" y="0.326" font-size="0.041300" fill="hsl(0.0,100%,20%)">yunchao.he</text>
<text x="1.323" y="0.544" font-size="0.017318" fill="hsl(0.0,100%,20%)">hob</text>
<text x="0.918" y="0.074" font-size="0.014359" fill="hsl(0.0,100%,20%)">senorblanco</text>
<text x="0.778" y="0.363" font-size="0.036991" fill="hsl(0.0,100%,20%)">rharrison</text>
<text x="0.721" y="0.553" font-size="0.004329" fill="hsl(0.0,100%,20%)">oshima</text>
<text x="0.422" y="0.388" font-size="0.004329" fill="hsl(0.0,100%,20%)">afakhry</text>
<text x="1.032" y="0.208" font-size="0.019840" fill="hsl(0.0,100%,20%)">idanr</text>
<text x="0.599" y="0.442" font-size="0.030614" fill="hsl(0.0,100%,20%)">natlee</text>
<text x="0.159" y="0.395" font-size="0.025613" fill="hsl(0.0,100%,20%)">hao.x.li</text>
<text x="0.895" y="0.317" font-size="0.004329" fill="hsl(0.0,100%,20%)">kbr</text>
<text x="1.190" y="0.887" font-size="0.008659" fill="hsl(0.0,100%,20%)">iannucci</text>
<text x="0.847" y="0.888" font-size="0.004329" fill="hsl(0.0,100%,20%)">tandrii</text>
<text x="0.214" y="0.205" font-size="0.011455" fill="hsl(0.0,100%,20%)">jiajie.hu</text>
<text x="0.567" y="0.420" font-size="0.024105" fill="hsl(0.0,100%,20%)">shaobo.yan</text>
<text x="1.069" y="0.583" font-size="0.011455" fill="hsl(0.0,100%,20%)">yizhou.jiang</text>
</svg>
