<svg width="4000" height="2000" viewBox="-0.025 -0.025 2.05 1.05" xmlns="http://www.w3.org/2000/svg">
  <style>
    path {
      fill: none;
      stroke-linecap: round;
      stroke-opacity: 0.4;
    }

    text {
      text-anchor: middle;
      alignment-baseline: hanging;
    }
  </style>
  <g opacity="0.4">
<path d="M1.838 0.376 Q1.908 0.284 1.745 0.230" stroke="hsl(0.0,100%,35%)" stroke-width="0.00431"></path>
<path d="M1.838 0.376 Q1.961 0.209 1.662 0.112" stroke="hsl(0.0,100%,35%)" stroke-width="0.00383"></path>
<path d="M1.838 0.376 Q1.725 0.252 1.459 0.280" stroke="hsl(0.0,100%,35%)" stroke-width="0.00048"></path>
<path d="M1.745 0.230 Q1.193 0.317 1.242 0.606" stroke="hsl(0.0,100%,35%)" stroke-width="0.00048"></path>
<path d="M1.745 0.230 Q1.561 0.198 1.459 0.280" stroke="hsl(0.0,100%,35%)" stroke-width="0.05458"></path>
<path d="M1.745 0.230 Q1.797 0.154 1.662 0.112" stroke="hsl(0.0,100%,35%)" stroke-width="0.07277"></path>
<path d="M1.745 0.230 Q1.676 0.122 1.450 0.132" stroke="hsl(0.0,100%,35%)" stroke-width="0.00335"></path>
<path d="M1.745 0.230 Q1.979 -0.064 1.457 -0.243" stroke="hsl(0.0,100%,35%)" stroke-width="0.00144"></path>
<path d="M1.745 0.230 Q1.302 0.111 0.972 0.301" stroke="hsl(0.0,100%,35%)" stroke-width="0.00718"></path>
<path d="M1.745 0.230 Q1.494 0.035 1.059 0.115" stroke="hsl(0.0,100%,35%)" stroke-width="0.00431"></path>
<path d="M1.745 0.230 Q1.914 0.221 1.935 0.137" stroke="hsl(0.0,100%,35%)" stroke-width="0.00048"></path>
<path d="M1.745 0.230 Q1.734 0.143 1.562 0.129" stroke="hsl(0.0,100%,35%)" stroke-width="0.00096"></path>
<path d="M1.745 0.230 Q1.506 0.268 1.529 0.393" stroke="hsl(0.0,100%,35%)" stroke-width="0.00144"></path>
<path d="M1.745 0.230 Q1.674 0.322 1.838 0.376" stroke="hsl(0.0,100%,35%)" stroke-width="0.00048"></path>
<path d="M1.745 0.230 Q1.424 0.203 1.302 0.353" stroke="hsl(0.0,100%,35%)" stroke-width="0.00096"></path>
<path d="M1.745 0.230 Q1.811 -0.007 1.364 -0.091" stroke="hsl(0.0,100%,35%)" stroke-width="0.00048"></path>
<path d="M1.745 0.230 Q1.640 0.016 1.200 0.020" stroke="hsl(0.0,100%,35%)" stroke-width="0.00048"></path>
<path d="M1.745 0.230 Q1.486 0.439 1.837 0.611" stroke="hsl(0.0,100%,35%)" stroke-width="0.00096"></path>
<path d="M1.745 0.230 Q1.719 0.042 1.346 0.013" stroke="hsl(0.0,100%,35%)" stroke-width="0.00048"></path>
<path d="M1.745 0.230 Q1.703 -0.015 1.217 -0.048" stroke="hsl(0.0,100%,35%)" stroke-width="0.00048"></path>
<path d="M1.662 0.112 Q1.426 0.156 1.459 0.280" stroke="hsl(0.0,100%,35%)" stroke-width="0.05219"></path>
<path d="M1.662 0.112 Q1.609 0.187 1.745 0.230" stroke="hsl(0.0,100%,35%)" stroke-width="0.04118"></path>
<path d="M1.662 0.112 Q1.166 0.069 0.972 0.301" stroke="hsl(0.0,100%,35%)" stroke-width="0.00096"></path>
<path d="M1.662 0.112 Q1.540 0.080 1.450 0.132" stroke="hsl(0.0,100%,35%)" stroke-width="0.00048"></path>
<path d="M1.662 0.112 Q1.334 0.219 1.472 0.402" stroke="hsl(0.0,100%,35%)" stroke-width="0.00048"></path>
<path d="M1.459 0.280 Q1.322 0.285 1.302 0.353" stroke="hsl(0.0,100%,35%)" stroke-width="0.00048"></path>
<path d="M1.459 0.280 Q1.695 0.237 1.662 0.112" stroke="hsl(0.0,100%,35%)" stroke-width="0.00239"></path>
<path d="M1.459 0.280 Q1.642 0.312 1.745 0.230" stroke="hsl(0.0,100%,35%)" stroke-width="0.00239"></path>
<path d="M1.459 0.280 Q1.199 0.193 0.972 0.301" stroke="hsl(0.0,100%,35%)" stroke-width="0.00048"></path>
<path d="M1.346 0.440 Q1.713 0.415 1.745 0.230" stroke="hsl(0.0,100%,35%)" stroke-width="0.00383"></path>
<path d="M1.346 0.440 Q1.766 0.339 1.662 0.112" stroke="hsl(0.0,100%,35%)" stroke-width="0.00096"></path>
<path d="M1.346 0.440 Q1.530 0.383 1.459 0.280" stroke="hsl(0.0,100%,35%)" stroke-width="0.00335"></path>
<path d="M1.346 0.440 Q1.398 0.416 1.362 0.385" stroke="hsl(0.0,100%,35%)" stroke-width="0.00048"></path>
<path d="M1.362 0.385 Q1.730 0.308 1.662 0.112" stroke="hsl(0.0,100%,35%)" stroke-width="0.00192"></path>
<path d="M1.362 0.385 Q1.677 0.384 1.745 0.230" stroke="hsl(0.0,100%,35%)" stroke-width="0.00383"></path>
<path d="M1.362 0.385 Q1.494 0.352 1.459 0.280" stroke="hsl(0.0,100%,35%)" stroke-width="0.00287"></path>
<path d="M1.562 0.129 Q1.626 0.140 1.662 0.112" stroke="hsl(0.0,100%,35%)" stroke-width="0.01245"></path>
<path d="M1.562 0.129 Q1.573 0.216 1.745 0.230" stroke="hsl(0.0,100%,35%)" stroke-width="0.01293"></path>
<path d="M1.562 0.129 Q1.389 0.184 1.459 0.280" stroke="hsl(0.0,100%,35%)" stroke-width="0.00479"></path>
<path d="M0.972 0.301 Q1.232 0.388 1.459 0.280" stroke="hsl(0.0,100%,35%)" stroke-width="0.01245"></path>
<path d="M0.972 0.301 Q1.415 0.420 1.745 0.230" stroke="hsl(0.0,100%,35%)" stroke-width="0.02107"></path>
<path d="M0.972 0.301 Q1.468 0.344 1.662 0.112" stroke="hsl(0.0,100%,35%)" stroke-width="0.01341"></path>
<path d="M1.059 0.115 Q1.310 0.309 1.745 0.230" stroke="hsl(0.0,100%,35%)" stroke-width="0.01867"></path>
<path d="M1.059 0.115 Q1.363 0.234 1.662 0.112" stroke="hsl(0.0,100%,35%)" stroke-width="0.01293"></path>
<path d="M1.059 0.115 Q1.127 0.278 1.459 0.280" stroke="hsl(0.0,100%,35%)" stroke-width="0.00766"></path>
<path d="M1.935 0.137 Q1.765 0.145 1.745 0.230" stroke="hsl(0.0,100%,35%)" stroke-width="0.00096"></path>
<path d="M1.935 0.137 Q1.818 0.070 1.662 0.112" stroke="hsl(0.0,100%,35%)" stroke-width="0.00431"></path>
<path d="M1.935 0.137 Q1.582 0.113 1.459 0.280" stroke="hsl(0.0,100%,35%)" stroke-width="0.00192"></path>
<path d="M1.529 0.393 Q1.821 0.279 1.662 0.112" stroke="hsl(0.0,100%,35%)" stroke-width="0.00096"></path>
<path d="M1.529 0.393 Q1.768 0.355 1.745 0.230" stroke="hsl(0.0,100%,35%)" stroke-width="0.00144"></path>
<path d="M1.529 0.393 Q1.584 0.323 1.459 0.280" stroke="hsl(0.0,100%,35%)" stroke-width="0.00144"></path>
<path d="M1.302 0.353 Q1.675 0.305 1.662 0.112" stroke="hsl(0.0,100%,35%)" stroke-width="0.01005"></path>
<path d="M1.302 0.353 Q1.622 0.380 1.745 0.230" stroke="hsl(0.0,100%,35%)" stroke-width="0.01388"></path>
<path d="M1.302 0.353 Q1.439 0.348 1.459 0.280" stroke="hsl(0.0,100%,35%)" stroke-width="0.00814"></path>
<path d="M1.837 0.611 Q1.913 0.370 1.459 0.280" stroke="hsl(0.0,100%,35%)" stroke-width="0.00575"></path>
<path d="M1.837 0.611 Q2.149 0.327 1.662 0.112" stroke="hsl(0.0,100%,35%)" stroke-width="0.00096"></path>
<path d="M1.837 0.611 Q2.096 0.402 1.745 0.230" stroke="hsl(0.0,100%,35%)" stroke-width="0.00239"></path>
<path d="M1.346 0.013 Q1.189 0.169 1.459 0.280" stroke="hsl(0.0,100%,35%)" stroke-width="0.00718"></path>
<path d="M1.346 0.013 Q1.372 0.201 1.745 0.230" stroke="hsl(0.0,100%,35%)" stroke-width="0.00814"></path>
<path d="M1.346 0.013 Q1.425 0.126 1.662 0.112" stroke="hsl(0.0,100%,35%)" stroke-width="0.00670"></path>
<path d="M1.346 0.013 Q1.057 0.202 1.362 0.385" stroke="hsl(0.0,100%,35%)" stroke-width="0.00144"></path>
<path d="M1.217 -0.048 Q0.815 0.077 0.972 0.301" stroke="hsl(0.0,100%,35%)" stroke-width="0.00048"></path>
<path d="M1.217 -0.048 Q1.258 0.196 1.745 0.230" stroke="hsl(0.0,100%,35%)" stroke-width="0.00910"></path>
<path d="M1.217 -0.048 Q1.311 0.121 1.662 0.112" stroke="hsl(0.0,100%,35%)" stroke-width="0.00287"></path>
<path d="M1.217 -0.048 Q1.075 0.164 1.459 0.280" stroke="hsl(0.0,100%,35%)" stroke-width="0.00383"></path>
<path d="M1.419 0.762 Q1.825 0.529 1.459 0.280" stroke="hsl(0.0,100%,35%)" stroke-width="0.00096"></path>
<path d="M1.419 0.762 Q1.154 0.758 1.089 0.887" stroke="hsl(0.0,100%,35%)" stroke-width="0.00048"></path>
<path d="M1.419 0.762 Q2.008 0.561 1.745 0.230" stroke="hsl(0.0,100%,35%)" stroke-width="0.00048"></path>
<path d="M1.384 0.105 Q1.518 0.164 1.662 0.112" stroke="hsl(0.0,100%,35%)" stroke-width="0.00048"></path>
<path d="M1.384 0.105 Q1.465 0.240 1.745 0.230" stroke="hsl(0.0,100%,35%)" stroke-width="0.00192"></path>
<path d="M1.384 0.105 Q1.281 0.208 1.459 0.280" stroke="hsl(0.0,100%,35%)" stroke-width="0.00096"></path>
<path d="M1.811 0.316 Q1.847 0.260 1.745 0.230" stroke="hsl(0.0,100%,35%)" stroke-width="0.00814"></path>
<path d="M1.811 0.316 Q1.900 0.184 1.662 0.112" stroke="hsl(0.0,100%,35%)" stroke-width="0.00335"></path>
<path d="M1.811 0.316 Q1.664 0.228 1.459 0.280" stroke="hsl(0.0,100%,35%)" stroke-width="0.00335"></path>
<path d="M1.646 0.397 Q1.829 0.333 1.745 0.230" stroke="hsl(0.0,100%,35%)" stroke-width="0.00144"></path>
<path d="M1.646 0.397 Q1.881 0.257 1.662 0.112" stroke="hsl(0.0,100%,35%)" stroke-width="0.00144"></path>
<path d="M1.646 0.397 Q1.645 0.301 1.459 0.280" stroke="hsl(0.0,100%,35%)" stroke-width="0.00048"></path>
</g>
<text x="1.838" y="0.367" font-size="0.018889" fill="hsl(0.0,100%,20%)">beaufort.francois</text>
<text x="1.745" y="0.175" font-size="0.109801" fill="hsl(0.0,100%,20%)">cwallez</text>
<text x="1.662" y="0.063" font-size="0.098439" fill="hsl(0.0,100%,20%)">enga</text>
<text x="1.459" y="0.239" font-size="0.083582" fill="hsl(0.0,100%,20%)">kainino</text>
<text x="1.346" y="0.431" font-size="0.018386" fill="hsl(0.0,100%,20%)">brandon1.jones</text>
<text x="1.362" y="0.375" font-size="0.020326" fill="hsl(0.0,100%,20%)">rafael.cintron</text>
<text x="1.562" y="0.111" font-size="0.034938" fill="hsl(0.0,100%,20%)">bryan.bernhart</text>
<text x="1.242" y="0.603" font-size="0.004334" fill="hsl(0.0,100%,20%)">dsinclair</text>
<text x="1.450" y="0.126" font-size="0.012257" fill="hsl(0.0,100%,20%)">digit</text>
<text x="1.457" y="-0.247" font-size="0.007506" fill="hsl(0.0,100%,20%)">thakis</text>
<text x="0.972" y="0.277" font-size="0.046874" fill="hsl(0.0,100%,20%)">jiawei.shao</text>
<text x="1.059" y="0.094" font-size="0.041339" fill="hsl(0.0,100%,20%)">yunchao.he</text>
<text x="1.935" y="0.128" font-size="0.017334" fill="hsl(0.0,100%,20%)">hob</text>
<text x="1.529" y="0.386" font-size="0.014373" fill="hsl(0.0,100%,20%)">senorblanco</text>
<text x="1.302" y="0.335" font-size="0.036257" fill="hsl(0.0,100%,20%)">rharrison</text>
<text x="1.364" y="-0.093" font-size="0.004334" fill="hsl(0.0,100%,20%)">oshima</text>
<text x="1.200" y="0.018" font-size="0.004334" fill="hsl(0.0,100%,20%)">afakhry</text>
<text x="1.837" y="0.602" font-size="0.019859" fill="hsl(0.0,100%,20%)">idanr</text>
<text x="1.346" y="-0.002" font-size="0.030643" fill="hsl(0.0,100%,20%)">natlee</text>
<text x="1.217" y="-0.061" font-size="0.025637" fill="hsl(0.0,100%,20%)">hao.x.li</text>
<text x="1.472" y="0.400" font-size="0.004334" fill="hsl(0.0,100%,20%)">kbr</text>
<text x="1.419" y="0.758" font-size="0.008667" fill="hsl(0.0,100%,20%)">iannucci</text>
<text x="1.089" y="0.884" font-size="0.004334" fill="hsl(0.0,100%,20%)">tandrii</text>
<text x="1.384" y="0.099" font-size="0.011465" fill="hsl(0.0,100%,20%)">jiajie.hu</text>
<text x="1.811" y="0.304" font-size="0.024128" fill="hsl(0.0,100%,20%)">shaobo.yan</text>
<text x="1.646" y="0.391" font-size="0.011465" fill="hsl(0.0,100%,20%)">yizhou.jiang</text>
</svg>
