<svg width="4000" height="2000" viewBox="-0.025 -0.025 2.05 1.05" xmlns="http://www.w3.org/2000/svg">
  <style>
    path {
      fill: none;
      stroke-linecap: round;
      stroke-opacity: 0.4;
    }

    text {
      text-anchor: middle;
      alignment-baseline: hanging;
    }
  </style>
  <g opacity="0.4">
<path d="M1.111 1.041 Q0.961 0.855 0.565 0.887" stroke="hsl(0.0,100%,35%)" stroke-width="0.00114"></path>
<path d="M1.111 1.041 Q0.771 0.850 0.323 0.974" stroke="hsl(0.0,100%,35%)" stroke-width="0.00068"></path>
<path d="M1.111 1.041 Q1.430 0.844 1.115 0.645" stroke="hsl(0.0,100%,35%)" stroke-width="0.00023"></path>
<path d="M0.565 0.887 Q0.374 0.882 0.323 0.974" stroke="hsl(0.0,100%,35%)" stroke-width="0.04754"></path>
<path d="M0.565 0.887 Q1.607 0.865 1.793 0.352" stroke="hsl(0.0,100%,35%)" stroke-width="0.00387"></path>
<path d="M0.565 0.887 Q1.461 1.023 1.922 0.616" stroke="hsl(0.0,100%,35%)" stroke-width="0.00250"></path>
<path d="M0.565 0.887 Q0.451 0.767 0.192 0.796" stroke="hsl(0.0,100%,35%)" stroke-width="0.01706"></path>
<path d="M0.565 0.887 Q1.172 1.049 1.622 0.789" stroke="hsl(0.0,100%,35%)" stroke-width="0.00136"></path>
<path d="M0.565 0.887 Q1.401 0.935 1.678 0.538" stroke="hsl(0.0,100%,35%)" stroke-width="0.00114"></path>
<path d="M0.565 0.887 Q0.408 0.776 0.157 0.827" stroke="hsl(0.0,100%,35%)" stroke-width="0.00364"></path>
<path d="M0.565 0.887 Q0.835 1.060 1.232 0.967" stroke="hsl(0.0,100%,35%)" stroke-width="0.00045"></path>
<path d="M0.565 0.887 Q0.639 0.760 0.407 0.696" stroke="hsl(0.0,100%,35%)" stroke-width="0.00023"></path>
<path d="M0.565 0.887 Q0.715 1.073 1.111 1.041" stroke="hsl(0.0,100%,35%)" stroke-width="0.00023"></path>
<path d="M0.565 0.887 Q1.033 0.876 1.115 0.645" stroke="hsl(0.0,100%,35%)" stroke-width="0.01501"></path>
<path d="M0.565 0.887 Q0.749 0.784 0.588 0.671" stroke="hsl(0.0,100%,35%)" stroke-width="0.00023"></path>
<path d="M0.565 0.887 Q1.477 0.753 1.416 0.278" stroke="hsl(0.0,100%,35%)" stroke-width="0.00023"></path>
<path d="M0.565 0.887 Q0.661 0.792 0.497 0.724" stroke="hsl(0.0,100%,35%)" stroke-width="0.00023"></path>
<path d="M0.565 0.887 Q0.621 0.786 0.436 0.736" stroke="hsl(0.0,100%,35%)" stroke-width="0.00023"></path>
<path d="M0.565 0.887 Q0.526 0.795 0.339 0.794" stroke="hsl(0.0,100%,35%)" stroke-width="0.00023"></path>
<path d="M0.565 0.887 Q0.726 0.934 0.854 0.866" stroke="hsl(0.0,100%,35%)" stroke-width="0.00023"></path>
<path d="M0.565 0.887 Q0.752 0.671 0.372 0.533" stroke="hsl(0.0,100%,35%)" stroke-width="0.00045"></path>
<path d="M0.323 0.974 Q0.514 0.979 0.565 0.887" stroke="hsl(0.0,100%,35%)" stroke-width="0.02479"></path>
<path d="M0.323 0.974 Q0.357 0.867 0.157 0.827" stroke="hsl(0.0,100%,35%)" stroke-width="0.00387"></path>
<path d="M0.323 0.974 Q1.410 1.115 1.922 0.616" stroke="hsl(0.0,100%,35%)" stroke-width="0.00273"></path>
<path d="M0.323 0.974 Q1.556 0.957 1.793 0.352" stroke="hsl(0.0,100%,35%)" stroke-width="0.00341"></path>
<path d="M0.323 0.974 Q0.400 0.859 0.192 0.796" stroke="hsl(0.0,100%,35%)" stroke-width="0.00796"></path>
<path d="M0.323 0.974 Q0.982 0.968 1.115 0.645" stroke="hsl(0.0,100%,35%)" stroke-width="0.00978"></path>
<path d="M0.323 0.974 Q1.321 0.783 1.169 0.255" stroke="hsl(0.0,100%,35%)" stroke-width="0.00045"></path>
<path d="M0.323 0.974 Q0.676 0.885 0.580 0.694" stroke="hsl(0.0,100%,35%)" stroke-width="0.00091"></path>
<path d="M0.323 0.974 Q0.558 1.047 0.751 0.949" stroke="hsl(0.0,100%,35%)" stroke-width="0.00023"></path>
<path d="M0.323 0.974 Q0.492 0.830 0.247 0.716" stroke="hsl(0.0,100%,35%)" stroke-width="0.00045"></path>
<path d="M1.115 0.645 Q0.646 0.656 0.565 0.887" stroke="hsl(0.0,100%,35%)" stroke-width="0.00478"></path>
<path d="M1.115 0.645 Q0.456 0.651 0.323 0.974" stroke="hsl(0.0,100%,35%)" stroke-width="0.00364"></path>
<path d="M1.115 0.645 Q1.482 0.704 1.678 0.538" stroke="hsl(0.0,100%,35%)" stroke-width="0.00045"></path>
<path d="M1.115 0.645 Q1.253 0.818 1.622 0.789" stroke="hsl(0.0,100%,35%)" stroke-width="0.00023"></path>
<path d="M1.793 0.352 Q0.751 0.374 0.565 0.887" stroke="hsl(180.0,100%,35%)" stroke-width="0.00068"></path>
<path d="M1.793 0.352 Q0.561 0.369 0.323 0.974" stroke="hsl(180.0,100%,35%)" stroke-width="0.00068"></path>
<path d="M1.793 0.352 Q1.647 0.509 1.922 0.616" stroke="hsl(180.0,100%,35%)" stroke-width="0.03434"></path>
<path d="M1.793 0.352 Q1.358 0.536 1.622 0.789" stroke="hsl(180.0,100%,35%)" stroke-width="0.00682"></path>
<path d="M1.793 0.352 Q1.712 0.410 1.808 0.463" stroke="hsl(180.0,100%,35%)" stroke-width="0.00023"></path>
<path d="M1.793 0.352 Q1.587 0.422 1.678 0.538" stroke="hsl(180.0,100%,35%)" stroke-width="0.00045"></path>
<path d="M1.922 0.616 Q1.026 0.480 0.565 0.887" stroke="hsl(180.0,100%,35%)" stroke-width="0.00273"></path>
<path d="M1.922 0.616 Q1.495 0.469 1.115 0.645" stroke="hsl(180.0,100%,35%)" stroke-width="0.00068"></path>
<path d="M1.922 0.616 Q0.836 0.475 0.323 0.974" stroke="hsl(180.0,100%,35%)" stroke-width="0.00023"></path>
<path d="M1.922 0.616 Q1.633 0.642 1.622 0.789" stroke="hsl(180.0,100%,35%)" stroke-width="0.07073"></path>
<path d="M1.922 0.616 Q2.069 0.458 1.793 0.352" stroke="hsl(180.0,100%,35%)" stroke-width="0.00614"></path>
<path d="M1.922 0.616 Q1.862 0.528 1.678 0.538" stroke="hsl(180.0,100%,35%)" stroke-width="0.02138"></path>
<path d="M1.922 0.616 Q1.987 0.517 1.808 0.463" stroke="hsl(180.0,100%,35%)" stroke-width="0.01251"></path>
<path d="M1.922 0.616 Q1.028 0.303 0.221 0.670" stroke="hsl(180.0,100%,35%)" stroke-width="0.00023"></path>
<path d="M1.622 0.789 Q1.911 0.762 1.922 0.616" stroke="hsl(180.0,100%,35%)" stroke-width="0.04822"></path>
<path d="M1.622 0.789 Q1.851 0.675 1.678 0.538" stroke="hsl(180.0,100%,35%)" stroke-width="0.00341"></path>
<path d="M1.622 0.789 Q2.057 0.605 1.793 0.352" stroke="hsl(180.0,100%,35%)" stroke-width="0.00569"></path>
<path d="M1.622 0.789 Q1.015 0.627 0.565 0.887" stroke="hsl(180.0,100%,35%)" stroke-width="0.00023"></path>
<path d="M1.622 0.789 Q1.976 0.663 1.808 0.463" stroke="hsl(180.0,100%,35%)" stroke-width="0.00136"></path>
<path d="M1.808 0.463 Q1.743 0.562 1.922 0.616" stroke="hsl(180.0,100%,35%)" stroke-width="0.00796"></path>
<path d="M1.808 0.463 Q1.890 0.405 1.793 0.352" stroke="hsl(180.0,100%,35%)" stroke-width="0.00023"></path>
<path d="M1.808 0.463 Q1.454 0.589 1.622 0.789" stroke="hsl(180.0,100%,35%)" stroke-width="0.00387"></path>
<path d="M1.808 0.463 Q1.683 0.475 1.678 0.538" stroke="hsl(180.0,100%,35%)" stroke-width="0.00023"></path>
<path d="M1.678 0.538 Q0.652 0.485 0.323 0.974" stroke="hsl(180.0,100%,35%)" stroke-width="0.00910"></path>
<path d="M1.678 0.538 Q0.842 0.490 0.565 0.887" stroke="hsl(180.0,100%,35%)" stroke-width="0.00842"></path>
<path d="M1.678 0.538 Q1.738 0.626 1.922 0.616" stroke="hsl(180.0,100%,35%)" stroke-width="0.01342"></path>
<path d="M1.678 0.538 Q1.311 0.479 1.115 0.645" stroke="hsl(180.0,100%,35%)" stroke-width="0.00182"></path>
<path d="M1.678 0.538 Q0.686 0.379 0.157 0.827" stroke="hsl(180.0,100%,35%)" stroke-width="0.00023"></path>
<path d="M1.678 0.538 Q1.885 0.468 1.793 0.352" stroke="hsl(180.0,100%,35%)" stroke-width="0.00045"></path>
<path d="M1.678 0.538 Q1.449 0.652 1.622 0.789" stroke="hsl(180.0,100%,35%)" stroke-width="0.00250"></path>
<path d="M1.678 0.538 Q1.803 0.527 1.808 0.463" stroke="hsl(180.0,100%,35%)" stroke-width="0.00045"></path>
<path d="M1.416 0.278 Q0.503 0.412 0.565 0.887" stroke="hsl(0.0,100%,35%)" stroke-width="0.00432"></path>
<path d="M1.416 0.278 Q0.313 0.408 0.323 0.974" stroke="hsl(0.0,100%,35%)" stroke-width="0.00523"></path>
<path d="M1.416 0.278 Q1.311 0.217 1.169 0.255" stroke="hsl(0.0,100%,35%)" stroke-width="0.00159"></path>
<path d="M1.416 0.278 Q0.972 0.401 1.115 0.645" stroke="hsl(0.0,100%,35%)" stroke-width="0.00023"></path>
<path d="M1.416 0.278 Q0.440 0.470 0.601 0.989" stroke="hsl(0.0,100%,35%)" stroke-width="0.00023"></path>
<path d="M0.601 0.989 Q0.474 0.926 0.323 0.974" stroke="hsl(0.0,100%,35%)" stroke-width="0.00432"></path>
<path d="M0.601 0.989 Q0.664 0.931 0.565 0.887" stroke="hsl(0.0,100%,35%)" stroke-width="0.00341"></path>
<path d="M0.601 0.989 Q1.472 0.735 1.169 0.255" stroke="hsl(0.0,100%,35%)" stroke-width="0.00114"></path>
<path d="M0.601 0.989 Q1.133 0.920 1.115 0.645" stroke="hsl(0.0,100%,35%)" stroke-width="0.00091"></path>
<path d="M0.580 0.694 Q0.228 0.783 0.323 0.974" stroke="hsl(0.0,100%,35%)" stroke-width="0.00591"></path>
<path d="M0.580 0.694 Q0.418 0.788 0.565 0.887" stroke="hsl(0.0,100%,35%)" stroke-width="0.00591"></path>
<path d="M0.580 0.694 Q1.226 0.592 1.169 0.255" stroke="hsl(0.0,100%,35%)" stroke-width="0.00091"></path>
<path d="M0.580 0.694 Q0.887 0.777 1.115 0.645" stroke="hsl(0.0,100%,35%)" stroke-width="0.00023"></path>
<path d="M0.192 0.796 Q0.306 0.916 0.565 0.887" stroke="hsl(0.0,100%,35%)" stroke-width="0.00250"></path>
<path d="M0.192 0.796 Q0.115 0.911 0.323 0.974" stroke="hsl(0.0,100%,35%)" stroke-width="0.00250"></path>
<path d="M0.157 0.827 Q0.123 0.934 0.323 0.974" stroke="hsl(0.0,100%,35%)" stroke-width="0.01183"></path>
<path d="M0.157 0.827 Q0.313 0.939 0.565 0.887" stroke="hsl(0.0,100%,35%)" stroke-width="0.01137"></path>
<path d="M0.157 0.827 Q0.200 0.819 0.192 0.796" stroke="hsl(0.0,100%,35%)" stroke-width="0.00023"></path>
<path d="M0.157 0.827 Q0.475 0.845 0.580 0.694" stroke="hsl(0.0,100%,35%)" stroke-width="0.00045"></path>
<path d="M0.157 0.827 Q0.782 0.928 1.115 0.645" stroke="hsl(0.0,100%,35%)" stroke-width="0.00250"></path>
<path d="M0.157 0.827 Q1.149 0.987 1.678 0.538" stroke="hsl(0.0,100%,35%)" stroke-width="0.00023"></path>
<path d="M1.232 0.967 Q0.962 0.793 0.565 0.887" stroke="hsl(0.0,100%,35%)" stroke-width="0.00068"></path>
<path d="M1.232 0.967 Q0.772 0.789 0.323 0.974" stroke="hsl(0.0,100%,35%)" stroke-width="0.00045"></path>
<path d="M0.588 0.671 Q0.213 0.770 0.323 0.974" stroke="hsl(0.0,100%,35%)" stroke-width="0.00409"></path>
<path d="M0.588 0.671 Q0.404 0.775 0.565 0.887" stroke="hsl(0.0,100%,35%)" stroke-width="0.00432"></path>
<path d="M0.588 0.671 Q0.247 0.663 0.157 0.827" stroke="hsl(0.0,100%,35%)" stroke-width="0.00068"></path>
<path d="M0.588 0.671 Q1.300 0.910 1.922 0.616" stroke="hsl(0.0,100%,35%)" stroke-width="0.00273"></path>
<path d="M0.588 0.671 Q1.010 0.937 1.622 0.789" stroke="hsl(0.0,100%,35%)" stroke-width="0.00114"></path>
<path d="M0.497 0.724 Q0.400 0.819 0.565 0.887" stroke="hsl(0.0,100%,35%)" stroke-width="0.00364"></path>
<path d="M0.497 0.724 Q0.210 0.814 0.323 0.974" stroke="hsl(0.0,100%,35%)" stroke-width="0.00478"></path>
<path d="M0.497 0.724 Q0.869 0.808 1.115 0.645" stroke="hsl(0.0,100%,35%)" stroke-width="0.00114"></path>
<path d="M0.339 0.794 Q0.377 0.886 0.565 0.887" stroke="hsl(0.0,100%,35%)" stroke-width="0.00045"></path>
<path d="M0.339 0.794 Q0.845 0.875 1.115 0.645" stroke="hsl(0.0,100%,35%)" stroke-width="0.00023"></path>
<path d="M0.339 0.794 Q0.187 0.881 0.323 0.974" stroke="hsl(0.0,100%,35%)" stroke-width="0.00068"></path>
<path d="M1.887 0.707 Q1.918 0.581 1.678 0.538" stroke="hsl(180.0,100%,35%)" stroke-width="0.00341"></path>
<path d="M1.887 0.707 Q1.082 0.533 0.565 0.887" stroke="hsl(180.0,100%,35%)" stroke-width="0.00045"></path>
<path d="M1.887 0.707 Q2.043 0.570 1.808 0.463" stroke="hsl(180.0,100%,35%)" stroke-width="0.00273"></path>
<path d="M1.887 0.707 Q1.689 0.695 1.622 0.789" stroke="hsl(180.0,100%,35%)" stroke-width="0.01342"></path>
<path d="M0.221 0.670 Q0.029 0.842 0.323 0.974" stroke="hsl(0.0,100%,35%)" stroke-width="0.00114"></path>
<path d="M0.221 0.670 Q0.219 0.847 0.565 0.887" stroke="hsl(0.0,100%,35%)" stroke-width="0.00136"></path>
<path d="M0.221 0.670 Q1.115 0.983 1.922 0.616" stroke="hsl(0.0,100%,35%)" stroke-width="0.00114"></path>
<path d="M0.897 0.338 Q0.453 0.453 0.580 0.694" stroke="hsl(0.0,100%,35%)" stroke-width="0.00136"></path>
<path d="M0.897 0.338 Q0.291 0.546 0.565 0.887" stroke="hsl(0.0,100%,35%)" stroke-width="0.00114"></path>
<path d="M0.897 0.338 Q1.127 0.594 1.678 0.538" stroke="hsl(0.0,100%,35%)" stroke-width="0.00023"></path>
<path d="M0.897 0.338 Q0.101 0.541 0.323 0.974" stroke="hsl(0.0,100%,35%)" stroke-width="0.00136"></path>
<path d="M0.897 0.338 Q1.099 0.351 1.169 0.255" stroke="hsl(0.0,100%,35%)" stroke-width="0.00045"></path>
<path d="M0.897 0.338 Q1.187 0.682 1.922 0.616" stroke="hsl(0.0,100%,35%)" stroke-width="0.00023"></path>
<path d="M0.859 0.764 Q0.423 0.762 0.323 0.974" stroke="hsl(0.0,100%,35%)" stroke-width="0.00227"></path>
<path d="M0.859 0.764 Q0.614 0.767 0.565 0.887" stroke="hsl(0.0,100%,35%)" stroke-width="0.00387"></path>
<path d="M0.859 0.764 Q0.457 0.656 0.157 0.827" stroke="hsl(0.0,100%,35%)" stroke-width="0.00045"></path>
<path d="M0.859 0.764 Q1.449 0.815 1.678 0.538" stroke="hsl(0.0,100%,35%)" stroke-width="0.00023"></path>
<path d="M1.058 0.878 Q0.804 0.784 0.565 0.887" stroke="hsl(0.0,100%,35%)" stroke-width="0.00068"></path>
<path d="M1.058 0.878 Q0.614 0.779 0.323 0.974" stroke="hsl(0.0,100%,35%)" stroke-width="0.00068"></path>
<path d="M1.058 0.878 Q1.272 0.773 1.115 0.645" stroke="hsl(0.0,100%,35%)" stroke-width="0.00045"></path>
<path d="M0.954 0.692 Q0.604 0.712 0.565 0.887" stroke="hsl(0.0,100%,35%)" stroke-width="0.00136"></path>
<path d="M0.954 0.692 Q0.447 0.600 0.157 0.827" stroke="hsl(0.0,100%,35%)" stroke-width="0.00068"></path>
<path d="M0.954 0.692 Q0.413 0.707 0.323 0.974" stroke="hsl(0.0,100%,35%)" stroke-width="0.00045"></path>
<path d="M0.954 0.692 Q1.072 0.701 1.115 0.645" stroke="hsl(0.0,100%,35%)" stroke-width="0.00023"></path>
</g>
<text x="1.111" y="1.037" font-size="0.009039" fill="hsl(0.0,100%,20%)">bajones</text>
<text x="0.565" y="0.846" font-size="0.081097" fill="hsl(0.0,100%,20%)">cwallez</text>
<text x="0.323" y="0.936" font-size="0.076323" fill="hsl(0.0,100%,20%)">enga</text>
<text x="1.115" y="0.626" font-size="0.039087" fill="hsl(0.0,100%,20%)">kainino</text>
<text x="1.793" y="0.328" font-size="0.047572" fill="hsl(180.0,100%,20%)">bclayton</text>
<text x="1.922" y="0.570" font-size="0.090478" fill="hsl(180.0,100%,20%)">dsinclair</text>
<text x="1.622" y="0.751" font-size="0.075570" fill="hsl(180.0,100%,20%)">dneto</text>
<text x="1.808" y="0.447" font-size="0.032590" fill="hsl(180.0,100%,20%)">sarahmashay</text>
<text x="1.678" y="0.513" font-size="0.049259" fill="hsl(180.0,100%,20%)">rharrison</text>
<text x="1.416" y="0.268" font-size="0.020612" fill="hsl(0.0,100%,20%)">brandon1.jones</text>
<text x="1.169" y="0.248" font-size="0.012783" fill="hsl(0.0,100%,20%)">rafael.cintron</text>
<text x="0.601" y="0.979" font-size="0.018960" fill="hsl(0.0,100%,20%)">natlee</text>
<text x="0.580" y="0.682" font-size="0.023743" fill="hsl(0.0,100%,20%)">bryan.bernhart</text>
<text x="0.192" y="0.780" font-size="0.032964" fill="hsl(0.0,100%,20%)">senorblanco</text>
<text x="0.157" y="0.809" font-size="0.036042" fill="hsl(0.0,100%,20%)">jiawei.shao</text>
<text x="1.232" y="0.963" font-size="0.007562" fill="hsl(0.0,100%,20%)">shaobo.yan</text>
<text x="0.407" y="0.694" font-size="0.002858" fill="hsl(0.0,100%,20%)">johnstiles</text>
<text x="0.588" y="0.660" font-size="0.021768" fill="hsl(0.0,100%,20%)">tommek</text>
<text x="0.497" y="0.714" font-size="0.018743" fill="hsl(0.0,100%,20%)">yunchao.he</text>
<text x="0.436" y="0.735" font-size="0.002858" fill="hsl(0.0,100%,20%)">sque</text>
<text x="0.339" y="0.790" font-size="0.007562" fill="hsl(0.0,100%,20%)">zmo</text>
<text x="0.854" y="0.864" font-size="0.002858" fill="hsl(0.0,100%,20%)">thakis</text>
<text x="0.372" y="0.531" font-size="0.004042" fill="hsl(0.0,100%,20%)">digit</text>
<text x="1.887" y="0.694" font-size="0.026813" fill="hsl(180.0,100%,20%)">dj2</text>
<text x="0.221" y="0.664" font-size="0.011785" fill="hsl(0.0,100%,20%)">idanr</text>
<text x="0.751" y="0.947" font-size="0.002858" fill="hsl(0.0,100%,20%)">mtklein</text>
<text x="0.247" y="0.714" font-size="0.004042" fill="hsl(0.0,100%,20%)">mehe</text>
<text x="0.897" y="0.331" font-size="0.013098" fill="hsl(0.0,100%,20%)">enrico.galli</text>
<text x="0.859" y="0.757" font-size="0.015656" fill="hsl(0.0,100%,20%)">hao.x.li</text>
<text x="1.058" y="0.874" font-size="0.008085" fill="hsl(0.0,100%,20%)">jiajie.hu</text>
<text x="0.954" y="0.687" font-size="0.009901" fill="hsl(0.0,100%,20%)">xinghua.cao</text>
</svg>
