<svg width="4000" height="2000" viewBox="-0.025 -0.025 2.05 1.05" xmlns="http://www.w3.org/2000/svg">
  <style>
    path {
      fill: none;
      stroke-linecap: round;
      stroke-opacity: 0.4;
    }

    text {
      text-anchor: middle;
      alignment-baseline: hanging;
    }
  </style>
  <g opacity="0.4">
<path d="M1.769 0.263 Q1.869 0.151 1.673 0.077" stroke="hsl(0.0,100%,35%)" stroke-width="0.00101"></path>
<path d="M1.769 0.263 Q1.660 0.106 1.329 0.124" stroke="hsl(0.0,100%,35%)" stroke-width="0.00040"></path>
<path d="M1.673 0.077 Q1.573 0.189 1.769 0.263" stroke="hsl(0.0,100%,35%)" stroke-width="0.00262"></path>
<path d="M1.673 0.077 Q1.464 0.032 1.329 0.124" stroke="hsl(0.0,100%,35%)" stroke-width="0.01290"></path>
<path d="M1.673 0.077 Q1.386 0.082 1.330 0.223" stroke="hsl(0.0,100%,35%)" stroke-width="0.00282"></path>
<path d="M1.673 0.077 Q1.034 0.275 1.280 0.630" stroke="hsl(0.0,100%,35%)" stroke-width="0.00423"></path>
<path d="M1.673 0.077 Q1.698 0.173 1.889 0.181" stroke="hsl(0.0,100%,35%)" stroke-width="0.00343"></path>
<path d="M1.673 0.077 Q1.415 -0.048 1.113 0.050" stroke="hsl(0.0,100%,35%)" stroke-width="0.05160"></path>
<path d="M1.673 0.077 Q0.905 0.366 1.298 0.804" stroke="hsl(0.0,100%,35%)" stroke-width="0.00302"></path>
<path d="M1.673 0.077 Q1.207 0.120 1.187 0.357" stroke="hsl(0.0,100%,35%)" stroke-width="0.00040"></path>
<path d="M1.329 0.124 Q1.438 0.281 1.769 0.263" stroke="hsl(0.0,100%,35%)" stroke-width="0.00020"></path>
<path d="M1.329 0.124 Q1.280 0.044 1.113 0.050" stroke="hsl(0.0,100%,35%)" stroke-width="0.04676"></path>
<path d="M1.329 0.124 Q1.539 0.170 1.673 0.077" stroke="hsl(0.0,100%,35%)" stroke-width="0.00766"></path>
<path d="M1.329 0.124 Q1.251 0.174 1.330 0.223" stroke="hsl(0.0,100%,35%)" stroke-width="0.00343"></path>
<path d="M1.329 0.124 Q0.899 0.367 1.280 0.630" stroke="hsl(0.0,100%,35%)" stroke-width="0.00020"></path>
<path d="M1.329 0.124 Q1.072 0.212 1.187 0.357" stroke="hsl(0.0,100%,35%)" stroke-width="0.00101"></path>
<path d="M0.332 0.313 Q0.409 0.473 0.737 0.470" stroke="hsl(180.0,100%,35%)" stroke-width="0.00060"></path>
<path d="M0.332 0.313 Q0.552 0.661 1.280 0.630" stroke="hsl(180.0,100%,35%)" stroke-width="0.00141"></path>
<path d="M0.332 0.313 Q0.423 0.752 1.298 0.804" stroke="hsl(180.0,100%,35%)" stroke-width="0.00060"></path>
<path d="M0.737 0.470 Q0.880 0.659 1.280 0.630" stroke="hsl(180.0,100%,35%)" stroke-width="0.00443"></path>
<path d="M0.737 0.470 Q1.310 0.415 1.329 0.124" stroke="hsl(180.0,100%,35%)" stroke-width="0.00020"></path>
<path d="M0.737 0.470 Q0.751 0.749 1.298 0.804" stroke="hsl(180.0,100%,35%)" stroke-width="0.00282"></path>
<path d="M0.737 0.470 Q1.231 0.465 1.330 0.223" stroke="hsl(180.0,100%,35%)" stroke-width="0.00020"></path>
<path d="M1.280 0.630 Q0.955 0.468 0.566 0.591" stroke="hsl(180.0,100%,35%)" stroke-width="0.00020"></path>
<path d="M1.280 0.630 Q1.150 0.721 1.298 0.804" stroke="hsl(180.0,100%,35%)" stroke-width="0.04837"></path>
<path d="M1.280 0.630 Q1.060 0.282 0.332 0.313" stroke="hsl(180.0,100%,35%)" stroke-width="0.00121"></path>
<path d="M1.280 0.630 Q1.435 0.445 1.107 0.329" stroke="hsl(180.0,100%,35%)" stroke-width="0.00040"></path>
<path d="M1.280 0.630 Q1.361 0.553 1.228 0.497" stroke="hsl(180.0,100%,35%)" stroke-width="0.02015"></path>
<path d="M1.280 0.630 Q1.185 0.545 0.996 0.572" stroke="hsl(180.0,100%,35%)" stroke-width="0.00383"></path>
<path d="M1.280 0.630 Q0.965 0.673 0.980 0.837" stroke="hsl(180.0,100%,35%)" stroke-width="0.00020"></path>
<path d="M1.280 0.630 Q1.919 0.433 1.673 0.077" stroke="hsl(180.0,100%,35%)" stroke-width="0.00383"></path>
<path d="M1.280 0.630 Q0.844 0.755 0.991 0.994" stroke="hsl(180.0,100%,35%)" stroke-width="0.00020"></path>
<path d="M1.280 0.630 Q1.661 0.307 1.113 0.050" stroke="hsl(180.0,100%,35%)" stroke-width="0.00202"></path>
<path d="M1.280 0.630 Q1.710 0.387 1.329 0.124" stroke="hsl(180.0,100%,35%)" stroke-width="0.00121"></path>
<path d="M1.280 0.630 Q1.631 0.437 1.330 0.223" stroke="hsl(180.0,100%,35%)" stroke-width="0.00101"></path>
<path d="M1.280 0.630 Q1.317 0.476 1.024 0.424" stroke="hsl(180.0,100%,35%)" stroke-width="0.00040"></path>
<path d="M1.280 0.630 Q1.249 0.486 0.960 0.469" stroke="hsl(180.0,100%,35%)" stroke-width="0.00020"></path>
<path d="M1.280 0.630 Q1.137 0.442 0.737 0.470" stroke="hsl(180.0,100%,35%)" stroke-width="0.01008"></path>
<path d="M1.280 0.630 Q0.968 0.508 0.660 0.633" stroke="hsl(180.0,100%,35%)" stroke-width="0.00020"></path>
<path d="M1.280 0.630 Q1.135 0.629 1.101 0.699" stroke="hsl(180.0,100%,35%)" stroke-width="0.00020"></path>
<path d="M1.280 0.630 Q1.070 0.639 1.041 0.743" stroke="hsl(180.0,100%,35%)" stroke-width="0.00020"></path>
<path d="M1.280 0.630 Q1.297 0.500 1.045 0.463" stroke="hsl(180.0,100%,35%)" stroke-width="0.00020"></path>
<path d="M1.280 0.630 Q1.241 0.476 0.931 0.461" stroke="hsl(180.0,100%,35%)" stroke-width="0.00020"></path>
<path d="M1.280 0.630 Q0.844 0.613 0.714 0.821" stroke="hsl(180.0,100%,35%)" stroke-width="0.00020"></path>
<path d="M1.298 0.804 Q1.428 0.713 1.280 0.630" stroke="hsl(180.0,100%,35%)" stroke-width="0.02499"></path>
<path d="M1.298 0.804 Q2.067 0.516 1.673 0.077" stroke="hsl(180.0,100%,35%)" stroke-width="0.00383"></path>
<path d="M1.298 0.804 Q1.509 0.636 1.228 0.497" stroke="hsl(180.0,100%,35%)" stroke-width="0.01108"></path>
<path d="M1.298 0.804 Q1.208 0.365 0.332 0.313" stroke="hsl(180.0,100%,35%)" stroke-width="0.00020"></path>
<path d="M1.298 0.804 Q1.808 0.390 1.113 0.050" stroke="hsl(180.0,100%,35%)" stroke-width="0.00262"></path>
<path d="M1.298 0.804 Q1.332 0.628 0.996 0.572" stroke="hsl(180.0,100%,35%)" stroke-width="0.00403"></path>
<path d="M1.298 0.804 Q1.285 0.525 0.737 0.470" stroke="hsl(180.0,100%,35%)" stroke-width="0.00625"></path>
<path d="M1.298 0.804 Q0.992 0.838 0.991 0.994" stroke="hsl(180.0,100%,35%)" stroke-width="0.00040"></path>
<path d="M1.298 0.804 Q1.134 0.664 0.825 0.713" stroke="hsl(180.0,100%,35%)" stroke-width="0.00081"></path>
<path d="M1.298 0.804 Q1.272 0.693 1.050 0.681" stroke="hsl(180.0,100%,35%)" stroke-width="0.00020"></path>
<path d="M1.330 0.223 Q0.979 0.417 1.280 0.630" stroke="hsl(0.0,100%,35%)" stroke-width="0.00645"></path>
<path d="M1.330 0.223 Q0.849 0.507 1.298 0.804" stroke="hsl(0.0,100%,35%)" stroke-width="0.01028"></path>
<path d="M1.330 0.223 Q1.618 0.219 1.673 0.077" stroke="hsl(0.0,100%,35%)" stroke-width="0.00242"></path>
<path d="M1.330 0.223 Q1.360 0.093 1.113 0.050" stroke="hsl(0.0,100%,35%)" stroke-width="0.01532"></path>
<path d="M1.330 0.223 Q1.409 0.173 1.329 0.124" stroke="hsl(0.0,100%,35%)" stroke-width="0.00282"></path>
<path d="M1.330 0.223 Q1.152 0.261 1.187 0.357" stroke="hsl(0.0,100%,35%)" stroke-width="0.00040"></path>
<path d="M1.330 0.223 Q0.836 0.228 0.737 0.470" stroke="hsl(0.0,100%,35%)" stroke-width="0.00121"></path>
<path d="M1.330 0.223 Q0.884 0.331 0.996 0.572" stroke="hsl(0.0,100%,35%)" stroke-width="0.00020"></path>
<path d="M1.889 0.181 Q1.864 0.086 1.673 0.077" stroke="hsl(0.0,100%,35%)" stroke-width="0.00181"></path>
<path d="M1.889 0.181 Q1.606 -0.039 1.113 0.050" stroke="hsl(0.0,100%,35%)" stroke-width="0.00363"></path>
<path d="M1.889 0.181 Q1.655 0.041 1.329 0.124" stroke="hsl(0.0,100%,35%)" stroke-width="0.00020"></path>
<path d="M1.889 0.181 Q1.096 0.374 1.298 0.804" stroke="hsl(0.0,100%,35%)" stroke-width="0.00020"></path>
<path d="M1.113 0.050 Q1.083 0.180 1.330 0.223" stroke="hsl(0.0,100%,35%)" stroke-width="0.02096"></path>
<path d="M1.113 0.050 Q1.371 0.176 1.673 0.077" stroke="hsl(0.0,100%,35%)" stroke-width="0.00967"></path>
<path d="M1.113 0.050 Q0.602 0.464 1.298 0.804" stroke="hsl(0.0,100%,35%)" stroke-width="0.00101"></path>
<path d="M1.113 0.050 Q0.732 0.374 1.280 0.630" stroke="hsl(0.0,100%,35%)" stroke-width="0.00302"></path>
<path d="M1.113 0.050 Q0.905 0.218 1.187 0.357" stroke="hsl(0.0,100%,35%)" stroke-width="0.00867"></path>
<path d="M1.113 0.050 Q1.162 0.130 1.329 0.124" stroke="hsl(0.0,100%,35%)" stroke-width="0.06228"></path>
<path d="M1.113 0.050 Q0.589 0.185 0.737 0.470" stroke="hsl(0.0,100%,35%)" stroke-width="0.00060"></path>
<path d="M1.113 0.050 Q0.364 0.330 0.747 0.757" stroke="hsl(0.0,100%,35%)" stroke-width="0.00020"></path>
<path d="M1.187 0.357 Q1.395 0.189 1.113 0.050" stroke="hsl(0.0,100%,35%)" stroke-width="0.00685"></path>
<path d="M1.187 0.357 Q1.654 0.314 1.673 0.077" stroke="hsl(0.0,100%,35%)" stroke-width="0.00020"></path>
<path d="M1.187 0.357 Q1.444 0.269 1.329 0.124" stroke="hsl(0.0,100%,35%)" stroke-width="0.00343"></path>
<path d="M1.187 0.357 Q1.366 0.318 1.330 0.223" stroke="hsl(0.0,100%,35%)" stroke-width="0.00020"></path>
<path d="M1.101 0.699 Q1.116 0.791 1.298 0.804" stroke="hsl(180.0,100%,35%)" stroke-width="0.00484"></path>
<path d="M1.101 0.699 Q0.810 0.825 0.991 0.994" stroke="hsl(180.0,100%,35%)" stroke-width="0.00161"></path>
<path d="M1.101 0.699 Q1.245 0.701 1.280 0.630" stroke="hsl(180.0,100%,35%)" stroke-width="0.00363"></path>
<path d="M1.101 0.699 Q1.102 0.512 0.737 0.470" stroke="hsl(180.0,100%,35%)" stroke-width="0.00020"></path>
<path d="M1.101 0.699 Q0.612 0.714 0.534 0.955" stroke="hsl(180.0,100%,35%)" stroke-width="0.00020"></path>
<path d="M0.534 0.955 Q1.037 1.033 1.298 0.804" stroke="hsl(180.0,100%,35%)" stroke-width="0.00242"></path>
<path d="M0.534 0.955 Q1.167 0.942 1.280 0.630" stroke="hsl(180.0,100%,35%)" stroke-width="0.00161"></path>
<path d="M0.534 0.955 Q0.731 1.066 0.991 0.994" stroke="hsl(180.0,100%,35%)" stroke-width="0.00081"></path>
<path d="M0.534 0.955 Q1.024 0.753 0.737 0.470" stroke="hsl(180.0,100%,35%)" stroke-width="0.00040"></path>
<path d="M0.825 0.713 Q0.988 0.853 1.298 0.804" stroke="hsl(180.0,100%,35%)" stroke-width="0.00605"></path>
<path d="M0.825 0.713 Q0.682 0.887 0.991 0.994" stroke="hsl(180.0,100%,35%)" stroke-width="0.00101"></path>
<path d="M0.825 0.713 Q1.118 0.763 1.280 0.630" stroke="hsl(180.0,100%,35%)" stroke-width="0.00544"></path>
<path d="M0.825 0.713 Q0.975 0.574 0.737 0.470" stroke="hsl(180.0,100%,35%)" stroke-width="0.00020"></path>
<path d="M1.228 0.497 Q1.017 0.664 1.298 0.804" stroke="hsl(180.0,100%,35%)" stroke-width="0.00927"></path>
<path d="M1.228 0.497 Q1.147 0.574 1.280 0.630" stroke="hsl(180.0,100%,35%)" stroke-width="0.00806"></path>
<path d="M0.996 0.572 Q0.798 0.608 0.825 0.713" stroke="hsl(180.0,100%,35%)" stroke-width="0.00060"></path>
<path d="M0.996 0.572 Q0.962 0.748 1.298 0.804" stroke="hsl(180.0,100%,35%)" stroke-width="0.01108"></path>
<path d="M0.996 0.572 Q1.091 0.658 1.280 0.630" stroke="hsl(180.0,100%,35%)" stroke-width="0.00967"></path>
<path d="M0.996 0.572 Q0.947 0.657 1.101 0.699" stroke="hsl(180.0,100%,35%)" stroke-width="0.00020"></path>
<path d="M0.996 0.572 Q1.173 0.581 1.228 0.497" stroke="hsl(180.0,100%,35%)" stroke-width="0.00020"></path>
<path d="M0.996 0.572 Q0.948 0.469 0.737 0.470" stroke="hsl(180.0,100%,35%)" stroke-width="0.00202"></path>
<path d="M0.996 0.572 Q1.443 0.464 1.330 0.223" stroke="hsl(180.0,100%,35%)" stroke-width="0.00020"></path>
<path d="M0.980 0.837 Q1.295 0.794 1.280 0.630" stroke="hsl(180.0,100%,35%)" stroke-width="0.00464"></path>
<path d="M0.980 0.837 Q1.165 0.884 1.298 0.804" stroke="hsl(180.0,100%,35%)" stroke-width="0.00322"></path>
<path d="M0.980 0.837 Q1.199 0.708 0.996 0.572" stroke="hsl(180.0,100%,35%)" stroke-width="0.00020"></path>
<path d="M0.980 0.837 Q1.646 0.600 1.330 0.223" stroke="hsl(180.0,100%,35%)" stroke-width="0.00020"></path>
<path d="M1.024 0.424 Q0.857 0.669 1.298 0.804" stroke="hsl(180.0,100%,35%)" stroke-width="0.00060"></path>
<path d="M1.024 0.424 Q0.987 0.578 1.280 0.630" stroke="hsl(180.0,100%,35%)" stroke-width="0.00060"></path>
<path d="M0.660 0.633 Q1.352 0.432 1.113 0.050" stroke="hsl(180.0,100%,35%)" stroke-width="0.00242"></path>
<path d="M0.660 0.633 Q0.972 0.755 1.280 0.630" stroke="hsl(180.0,100%,35%)" stroke-width="0.00383"></path>
<path d="M0.660 0.633 Q1.402 0.512 1.329 0.124" stroke="hsl(180.0,100%,35%)" stroke-width="0.00101"></path>
<path d="M0.660 0.633 Q0.842 0.846 1.298 0.804" stroke="hsl(180.0,100%,35%)" stroke-width="0.00363"></path>
<path d="M0.660 0.633 Q0.876 0.670 0.996 0.572" stroke="hsl(180.0,100%,35%)" stroke-width="0.00060"></path>
<path d="M1.041 0.743 Q1.121 0.825 1.298 0.804" stroke="hsl(180.0,100%,35%)" stroke-width="0.00484"></path>
<path d="M1.041 0.743 Q1.107 0.546 0.737 0.470" stroke="hsl(180.0,100%,35%)" stroke-width="0.00161"></path>
<path d="M1.041 0.743 Q1.250 0.735 1.280 0.630" stroke="hsl(180.0,100%,35%)" stroke-width="0.00383"></path>
<path d="M0.931 0.461 Q0.970 0.616 1.280 0.630" stroke="hsl(180.0,100%,35%)" stroke-width="0.00040"></path>
<path d="M0.931 0.461 Q0.827 0.427 0.737 0.470" stroke="hsl(180.0,100%,35%)" stroke-width="0.00020"></path>
<path d="M0.931 0.461 Q0.841 0.706 1.298 0.804" stroke="hsl(180.0,100%,35%)" stroke-width="0.00060"></path>
<path d="M0.280 0.573 Q0.604 0.892 1.298 0.804" stroke="hsl(180.0,100%,35%)" stroke-width="0.00040"></path>
<path d="M0.280 0.573 Q1.114 0.478 1.113 0.050" stroke="hsl(180.0,100%,35%)" stroke-width="0.00020"></path>
<path d="M0.280 0.573 Q0.734 0.802 1.280 0.630" stroke="hsl(180.0,100%,35%)" stroke-width="0.00081"></path>
<path d="M0.280 0.573 Q0.591 0.613 0.737 0.470" stroke="hsl(180.0,100%,35%)" stroke-width="0.00020"></path>
<path d="M1.610 0.194 Q1.446 0.152 1.330 0.223" stroke="hsl(0.0,100%,35%)" stroke-width="0.00322"></path>
<path d="M1.610 0.194 Q1.734 0.148 1.673 0.077" stroke="hsl(0.0,100%,35%)" stroke-width="0.00020"></path>
<path d="M1.610 0.194 Q1.095 0.346 1.280 0.630" stroke="hsl(0.0,100%,35%)" stroke-width="0.00040"></path>
<path d="M1.610 0.194 Q1.268 0.191 1.187 0.357" stroke="hsl(0.0,100%,35%)" stroke-width="0.00222"></path>
<path d="M1.610 0.194 Q1.525 0.103 1.329 0.124" stroke="hsl(0.0,100%,35%)" stroke-width="0.01189"></path>
<path d="M0.747 0.757 Q0.985 0.891 1.298 0.804" stroke="hsl(180.0,100%,35%)" stroke-width="0.00101"></path>
<path d="M0.747 0.757 Q1.115 0.800 1.280 0.630" stroke="hsl(180.0,100%,35%)" stroke-width="0.00121"></path>
<path d="M0.747 0.757 Q1.495 0.477 1.113 0.050" stroke="hsl(180.0,100%,35%)" stroke-width="0.00101"></path>
<path d="M0.811 0.849 Q1.090 0.924 1.298 0.804" stroke="hsl(180.0,100%,35%)" stroke-width="0.00141"></path>
<path d="M0.811 0.849 Q1.601 0.510 1.113 0.050" stroke="hsl(180.0,100%,35%)" stroke-width="0.00020"></path>
<path d="M0.811 0.849 Q0.927 0.784 0.825 0.713" stroke="hsl(180.0,100%,35%)" stroke-width="0.00121"></path>
<path d="M0.811 0.849 Q1.220 0.834 1.280 0.630" stroke="hsl(180.0,100%,35%)" stroke-width="0.00101"></path>
<path d="M0.811 0.849 Q1.571 0.640 1.330 0.223" stroke="hsl(180.0,100%,35%)" stroke-width="0.00020"></path>
<path d="M0.811 0.849 Q0.784 0.958 0.991 0.994" stroke="hsl(180.0,100%,35%)" stroke-width="0.00040"></path>
<path d="M0.915 0.938 Q1.344 0.857 1.280 0.630" stroke="hsl(180.0,100%,35%)" stroke-width="0.00060"></path>
<path d="M0.915 0.938 Q1.214 0.948 1.298 0.804" stroke="hsl(180.0,100%,35%)" stroke-width="0.00060"></path>
<path d="M0.915 0.938 Q1.201 0.669 0.737 0.470" stroke="hsl(180.0,100%,35%)" stroke-width="0.00040"></path>
<path d="M0.792 0.762 Q1.012 0.884 1.298 0.804" stroke="hsl(180.0,100%,35%)" stroke-width="0.00081"></path>
<path d="M0.792 0.762 Q1.141 0.794 1.280 0.630" stroke="hsl(180.0,100%,35%)" stroke-width="0.00040"></path>
<path d="M0.792 0.762 Q0.998 0.605 0.737 0.470" stroke="hsl(180.0,100%,35%)" stroke-width="0.00040"></path>
<path d="M1.643 0.800 Q1.468 0.733 1.298 0.804" stroke="hsl(180.0,100%,35%)" stroke-width="0.00020"></path>
<path d="M1.643 0.800 Q1.597 0.643 1.280 0.630" stroke="hsl(180.0,100%,35%)" stroke-width="0.00101"></path>
<path d="M1.643 0.800 Q1.454 0.454 0.737 0.470" stroke="hsl(180.0,100%,35%)" stroke-width="0.00020"></path>
<path d="M1.351 0.457 Q1.177 0.530 1.280 0.630" stroke="hsl(180.0,100%,35%)" stroke-width="0.00141"></path>
<path d="M1.351 0.457 Q0.862 0.573 0.980 0.837" stroke="hsl(180.0,100%,35%)" stroke-width="0.00020"></path>
<path d="M1.351 0.457 Q1.082 0.444 0.996 0.572" stroke="hsl(180.0,100%,35%)" stroke-width="0.00081"></path>
<path d="M1.351 0.457 Q1.047 0.620 1.298 0.804" stroke="hsl(180.0,100%,35%)" stroke-width="0.00040"></path>
<path d="M1.351 0.457 Q1.034 0.341 0.737 0.470" stroke="hsl(180.0,100%,35%)" stroke-width="0.00020"></path>
</g>
<text x="1.769" y="0.257" font-size="0.011878" fill="hsl(0.0,100%,20%)">amaiorano</text>
<text x="1.673" y="0.047" font-size="0.061007" fill="hsl(0.0,100%,20%)">bclayton</text>
<text x="1.329" y="0.088" font-size="0.072017" fill="hsl(0.0,100%,20%)">dneto</text>
<text x="0.332" y="0.308" font-size="0.011592" fill="hsl(180.0,100%,20%)">bajones</text>
<text x="0.737" y="0.454" font-size="0.032888" fill="hsl(180.0,100%,20%)">kainino</text>
<text x="1.280" y="0.591" font-size="0.079129" fill="hsl(180.0,100%,20%)">cwallez</text>
<text x="1.298" y="0.766" font-size="0.075745" fill="hsl(180.0,100%,20%)">enga</text>
<text x="1.330" y="0.198" font-size="0.048836" fill="hsl(0.0,100%,20%)">rharrison</text>
<text x="1.889" y="0.173" font-size="0.017579" fill="hsl(0.0,100%,20%)">jrprice</text>
<text x="1.113" y="0.006" font-size="0.089262" fill="hsl(0.0,100%,20%)">dsinclair</text>
<text x="1.187" y="0.343" font-size="0.027916" fill="hsl(0.0,100%,20%)">sarahmashay</text>
<text x="1.101" y="0.690" font-size="0.019047" fill="hsl(180.0,100%,20%)">brandon1.jones</text>
<text x="0.991" y="0.988" font-size="0.012157" fill="hsl(180.0,100%,20%)">rafael.cintron</text>
<text x="0.534" y="0.949" font-size="0.013468" fill="hsl(180.0,100%,20%)">natlee</text>
<text x="0.825" y="0.701" font-size="0.022596" fill="hsl(180.0,100%,20%)">bryan.bernhart</text>
<text x="0.566" y="0.590" font-size="0.002592" fill="hsl(180.0,100%,20%)">jmadill</text>
<text x="1.107" y="0.327" font-size="0.003666" fill="hsl(180.0,100%,20%)">penghuang</text>
<text x="1.228" y="0.476" font-size="0.040321" fill="hsl(180.0,100%,20%)">senorblanco</text>
<text x="0.996" y="0.555" font-size="0.033495" fill="hsl(180.0,100%,20%)">jiawei.shao</text>
<text x="0.980" y="0.828" font-size="0.016997" fill="hsl(180.0,100%,20%)">hao.x.li</text>
<text x="1.024" y="0.420" font-size="0.007331" fill="hsl(180.0,100%,20%)">shaobo.yan</text>
<text x="0.960" y="0.468" font-size="0.002592" fill="hsl(180.0,100%,20%)">johnstiles</text>
<text x="0.660" y="0.623" font-size="0.019740" fill="hsl(180.0,100%,20%)">tommek</text>
<text x="1.041" y="0.733" font-size="0.018691" fill="hsl(180.0,100%,20%)">yunchao.he</text>
<text x="1.045" y="0.461" font-size="0.002592" fill="hsl(180.0,100%,20%)">sque</text>
<text x="0.931" y="0.458" font-size="0.006858" fill="hsl(180.0,100%,20%)">zmo</text>
<text x="0.714" y="0.820" font-size="0.002592" fill="hsl(180.0,100%,20%)">thakis</text>
<text x="0.280" y="0.569" font-size="0.007331" fill="hsl(180.0,100%,20%)">cwoffenden</text>
<text x="1.610" y="0.181" font-size="0.024452" fill="hsl(0.0,100%,20%)">dj2</text>
<text x="0.747" y="0.752" font-size="0.010687" fill="hsl(180.0,100%,20%)">idanr</text>
<text x="1.050" y="0.680" font-size="0.002592" fill="hsl(180.0,100%,20%)">mtklein</text>
<text x="0.811" y="0.843" font-size="0.012157" fill="hsl(180.0,100%,20%)">enrico.galli</text>
<text x="0.915" y="0.935" font-size="0.007331" fill="hsl(180.0,100%,20%)">jiajie.hu</text>
<text x="0.792" y="0.758" font-size="0.007331" fill="hsl(180.0,100%,20%)">shrekshao</text>
<text x="1.643" y="0.797" font-size="0.006858" fill="hsl(180.0,100%,20%)">stha09</text>
<text x="1.351" y="0.452" font-size="0.010039" fill="hsl(180.0,100%,20%)">xinghua.cao</text>
</svg>
