<svg width="4000" height="2000" viewBox="-0.025 -0.025 2.05 1.05" xmlns="http://www.w3.org/2000/svg">
  <style>
    path {
      fill: none;
      stroke-linecap: round;
      stroke-opacity: 0.4;
    }

    text {
      text-anchor: middle;
      alignment-baseline: hanging;
    }
  </style>
  <g opacity="0.4">
<path d="M1.370 0.556 Q1.368 0.471 1.200 0.454" stroke="hsl(0.0,100%,35%)" stroke-width="0.00043"></path>
<path d="M1.370 0.556 Q1.441 0.368 1.088 0.292" stroke="hsl(0.0,100%,35%)" stroke-width="0.00128"></path>
<path d="M1.370 0.556 Q1.474 0.240 0.880 0.120" stroke="hsl(0.0,100%,35%)" stroke-width="0.00064"></path>
<path d="M1.200 0.454 Q1.274 0.350 1.088 0.292" stroke="hsl(0.0,100%,35%)" stroke-width="0.00449"></path>
<path d="M1.200 0.454 Q1.307 0.222 0.880 0.120" stroke="hsl(0.0,100%,35%)" stroke-width="0.00321"></path>
<path d="M1.200 0.454 Q0.845 0.465 0.788 0.641" stroke="hsl(0.0,100%,35%)" stroke-width="0.00043"></path>
<path d="M1.200 0.454 Q0.698 0.568 0.811 0.838" stroke="hsl(0.0,100%,35%)" stroke-width="0.00021"></path>
<path d="M1.088 0.292 Q1.122 0.164 0.880 0.120" stroke="hsl(0.0,100%,35%)" stroke-width="0.04766"></path>
<path d="M1.088 0.292 Q1.068 0.497 1.463 0.551" stroke="hsl(0.0,100%,35%)" stroke-width="0.01987"></path>
<path d="M1.088 0.292 Q1.594 0.398 1.911 0.174" stroke="hsl(0.0,100%,35%)" stroke-width="0.00363"></path>
<path d="M1.088 0.292 Q0.758 0.667 1.416 0.910" stroke="hsl(0.0,100%,35%)" stroke-width="0.00021"></path>
<path d="M1.088 0.292 Q1.018 0.481 1.370 0.556" stroke="hsl(0.0,100%,35%)" stroke-width="0.00043"></path>
<path d="M1.088 0.292 Q0.794 0.489 1.115 0.676" stroke="hsl(0.0,100%,35%)" stroke-width="0.00385"></path>
<path d="M1.088 0.292 Q0.835 0.375 0.941 0.517" stroke="hsl(0.0,100%,35%)" stroke-width="0.00235"></path>
<path d="M1.088 0.292 Q0.513 0.510 0.811 0.838" stroke="hsl(0.0,100%,35%)" stroke-width="0.00128"></path>
<path d="M1.088 0.292 Q0.659 0.406 0.788 0.641" stroke="hsl(0.0,100%,35%)" stroke-width="0.00107"></path>
<path d="M1.088 0.292 Q1.345 0.402 1.615 0.300" stroke="hsl(0.0,100%,35%)" stroke-width="0.00043"></path>
<path d="M1.088 0.292 Q1.463 0.482 1.916 0.342" stroke="hsl(0.0,100%,35%)" stroke-width="0.00021"></path>
<path d="M1.088 0.292 Q1.015 0.395 1.200 0.454" stroke="hsl(0.0,100%,35%)" stroke-width="0.01197"></path>
<path d="M1.088 0.292 Q1.189 0.351 1.326 0.314" stroke="hsl(0.0,100%,35%)" stroke-width="0.00021"></path>
<path d="M1.088 0.292 Q1.130 0.599 1.740 0.646" stroke="hsl(0.0,100%,35%)" stroke-width="0.00021"></path>
<path d="M1.088 0.292 Q1.149 0.389 1.353 0.381" stroke="hsl(0.0,100%,35%)" stroke-width="0.00021"></path>
<path d="M1.088 0.292 Q0.961 0.431 1.204 0.523" stroke="hsl(0.0,100%,35%)" stroke-width="0.00021"></path>
<path d="M1.088 0.292 Q0.970 0.299 0.958 0.358" stroke="hsl(0.0,100%,35%)" stroke-width="0.00021"></path>
<path d="M1.088 0.292 Q0.963 0.290 0.932 0.351" stroke="hsl(0.0,100%,35%)" stroke-width="0.00021"></path>
<path d="M1.088 0.292 Q1.042 0.341 1.128 0.375" stroke="hsl(0.0,100%,35%)" stroke-width="0.00043"></path>
<path d="M0.880 0.120 Q0.826 0.452 1.463 0.551" stroke="hsl(0.0,100%,35%)" stroke-width="0.00833"></path>
<path d="M0.880 0.120 Q1.351 0.353 1.911 0.174" stroke="hsl(0.0,100%,35%)" stroke-width="0.00492"></path>
<path d="M0.880 0.120 Q0.846 0.248 1.088 0.292" stroke="hsl(0.0,100%,35%)" stroke-width="0.02500"></path>
<path d="M0.880 0.120 Q0.593 0.331 0.941 0.517" stroke="hsl(0.0,100%,35%)" stroke-width="0.00256"></path>
<path d="M0.880 0.120 Q0.552 0.445 1.115 0.676" stroke="hsl(0.0,100%,35%)" stroke-width="0.00321"></path>
<path d="M0.880 0.120 Q0.773 0.351 1.200 0.454" stroke="hsl(0.0,100%,35%)" stroke-width="0.00662"></path>
<path d="M0.880 0.120 Q0.515 0.622 1.416 0.910" stroke="hsl(0.0,100%,35%)" stroke-width="0.00043"></path>
<path d="M0.880 0.120 Q0.638 0.105 0.556 0.220" stroke="hsl(0.0,100%,35%)" stroke-width="0.00085"></path>
<path d="M0.880 0.120 Q0.713 0.193 0.818 0.290" stroke="hsl(0.0,100%,35%)" stroke-width="0.00021"></path>
<path d="M0.880 0.120 Q0.787 0.153 0.832 0.206" stroke="hsl(0.0,100%,35%)" stroke-width="0.00043"></path>
<path d="M1.115 0.676 Q1.409 0.479 1.088 0.292" stroke="hsl(180.0,100%,35%)" stroke-width="0.00235"></path>
<path d="M1.115 0.676 Q1.155 0.562 0.941 0.517" stroke="hsl(180.0,100%,35%)" stroke-width="0.04060"></path>
<path d="M1.115 0.676 Q1.442 0.351 0.880 0.120" stroke="hsl(180.0,100%,35%)" stroke-width="0.00214"></path>
<path d="M1.115 0.676 Q0.833 0.697 0.811 0.838" stroke="hsl(180.0,100%,35%)" stroke-width="0.00919"></path>
<path d="M1.115 0.676 Q0.980 0.593 0.788 0.641" stroke="hsl(180.0,100%,35%)" stroke-width="0.00064"></path>
<path d="M1.115 0.676 Q0.853 0.498 0.448 0.587" stroke="hsl(180.0,100%,35%)" stroke-width="0.00021"></path>
<path d="M0.941 0.517 Q0.639 0.453 0.448 0.587" stroke="hsl(180.0,100%,35%)" stroke-width="0.01218"></path>
<path d="M0.941 0.517 Q0.766 0.548 0.788 0.641" stroke="hsl(180.0,100%,35%)" stroke-width="0.02052"></path>
<path d="M0.941 0.517 Q0.901 0.631 1.115 0.676" stroke="hsl(180.0,100%,35%)" stroke-width="0.00940"></path>
<path d="M0.941 0.517 Q1.195 0.434 1.088 0.292" stroke="hsl(180.0,100%,35%)" stroke-width="0.00321"></path>
<path d="M0.941 0.517 Q1.122 0.537 1.200 0.454" stroke="hsl(180.0,100%,35%)" stroke-width="0.00064"></path>
<path d="M0.941 0.517 Q1.228 0.306 0.880 0.120" stroke="hsl(180.0,100%,35%)" stroke-width="0.00021"></path>
<path d="M0.941 0.517 Q0.619 0.652 0.811 0.838" stroke="hsl(180.0,100%,35%)" stroke-width="0.06689"></path>
<path d="M0.941 0.517 Q1.144 0.641 1.430 0.570" stroke="hsl(180.0,100%,35%)" stroke-width="0.00021"></path>
<path d="M0.811 0.838 Q1.133 0.704 0.941 0.517" stroke="hsl(180.0,100%,35%)" stroke-width="0.04766"></path>
<path d="M0.811 0.838 Q1.092 0.818 1.115 0.676" stroke="hsl(180.0,100%,35%)" stroke-width="0.00662"></path>
<path d="M0.811 0.838 Q0.958 0.735 0.788 0.641" stroke="hsl(180.0,100%,35%)" stroke-width="0.00363"></path>
<path d="M0.811 0.838 Q1.387 0.620 1.088 0.292" stroke="hsl(180.0,100%,35%)" stroke-width="0.00021"></path>
<path d="M0.811 0.838 Q0.830 0.640 0.448 0.587" stroke="hsl(180.0,100%,35%)" stroke-width="0.00128"></path>
<path d="M0.788 0.641 Q1.251 0.398 0.880 0.120" stroke="hsl(180.0,100%,35%)" stroke-width="0.00983"></path>
<path d="M0.788 0.641 Q0.642 0.744 0.811 0.838" stroke="hsl(180.0,100%,35%)" stroke-width="0.00278"></path>
<path d="M0.788 0.641 Q1.217 0.526 1.088 0.292" stroke="hsl(180.0,100%,35%)" stroke-width="0.00705"></path>
<path d="M0.788 0.641 Q0.964 0.610 0.941 0.517" stroke="hsl(180.0,100%,35%)" stroke-width="0.01539"></path>
<path d="M0.788 0.641 Q1.144 0.630 1.200 0.454" stroke="hsl(180.0,100%,35%)" stroke-width="0.00150"></path>
<path d="M0.788 0.641 Q1.723 0.632 1.911 0.174" stroke="hsl(180.0,100%,35%)" stroke-width="0.00021"></path>
<path d="M0.788 0.641 Q0.923 0.724 1.115 0.676" stroke="hsl(180.0,100%,35%)" stroke-width="0.00043"></path>
<path d="M0.788 0.641 Q0.661 0.546 0.448 0.587" stroke="hsl(180.0,100%,35%)" stroke-width="0.00043"></path>
<path d="M0.448 0.587 Q0.750 0.651 0.941 0.517" stroke="hsl(180.0,100%,35%)" stroke-width="0.00748"></path>
<path d="M0.448 0.587 Q0.710 0.765 1.115 0.676" stroke="hsl(180.0,100%,35%)" stroke-width="0.00021"></path>
<path d="M0.448 0.587 Q0.428 0.785 0.811 0.838" stroke="hsl(180.0,100%,35%)" stroke-width="0.00363"></path>
<path d="M0.448 0.587 Q0.575 0.682 0.788 0.641" stroke="hsl(180.0,100%,35%)" stroke-width="0.00021"></path>
<path d="M1.740 0.646 Q1.697 0.339 1.088 0.292" stroke="hsl(0.0,100%,35%)" stroke-width="0.00385"></path>
<path d="M1.740 0.646 Q1.731 0.211 0.880 0.120" stroke="hsl(0.0,100%,35%)" stroke-width="0.00492"></path>
<path d="M1.740 0.646 Q1.367 0.714 1.416 0.910" stroke="hsl(0.0,100%,35%)" stroke-width="0.00150"></path>
<path d="M1.740 0.646 Q1.624 0.442 1.200 0.454" stroke="hsl(0.0,100%,35%)" stroke-width="0.00021"></path>
<path d="M1.740 0.646 Q1.893 0.363 1.374 0.227" stroke="hsl(0.0,100%,35%)" stroke-width="0.00021"></path>
<path d="M1.374 0.227 Q1.212 0.074 0.880 0.120" stroke="hsl(0.0,100%,35%)" stroke-width="0.00321"></path>
<path d="M1.374 0.227 Q1.179 0.202 1.088 0.292" stroke="hsl(0.0,100%,35%)" stroke-width="0.00299"></path>
<path d="M1.374 0.227 Q0.848 0.577 1.416 0.910" stroke="hsl(0.0,100%,35%)" stroke-width="0.00107"></path>
<path d="M1.374 0.227 Q1.106 0.305 1.200 0.454" stroke="hsl(0.0,100%,35%)" stroke-width="0.00085"></path>
<path d="M0.556 0.220 Q0.798 0.234 0.880 0.120" stroke="hsl(0.0,100%,35%)" stroke-width="0.00577"></path>
<path d="M0.556 0.220 Q0.764 0.362 1.088 0.292" stroke="hsl(0.0,100%,35%)" stroke-width="0.00577"></path>
<path d="M0.556 0.220 Q0.434 0.737 1.416 0.910" stroke="hsl(0.0,100%,35%)" stroke-width="0.00085"></path>
<path d="M0.556 0.220 Q0.691 0.465 1.200 0.454" stroke="hsl(0.0,100%,35%)" stroke-width="0.00021"></path>
<path d="M1.463 0.551 Q1.517 0.219 0.880 0.120" stroke="hsl(0.0,100%,35%)" stroke-width="0.00534"></path>
<path d="M1.463 0.551 Q1.483 0.347 1.088 0.292" stroke="hsl(0.0,100%,35%)" stroke-width="0.00470"></path>
<path d="M1.911 0.174 Q1.439 -0.059 0.880 0.120" stroke="hsl(0.0,100%,35%)" stroke-width="0.01133"></path>
<path d="M1.911 0.174 Q1.405 0.069 1.088 0.292" stroke="hsl(0.0,100%,35%)" stroke-width="0.01047"></path>
<path d="M1.911 0.174 Q1.385 0.273 1.463 0.551" stroke="hsl(0.0,100%,35%)" stroke-width="0.00021"></path>
<path d="M1.911 0.174 Q1.197 -0.074 0.556 0.220" stroke="hsl(0.0,100%,35%)" stroke-width="0.00043"></path>
<path d="M1.911 0.174 Q1.332 0.172 1.200 0.454" stroke="hsl(0.0,100%,35%)" stroke-width="0.00214"></path>
<path d="M1.911 0.174 Q0.976 0.183 0.788 0.641" stroke="hsl(0.0,100%,35%)" stroke-width="0.00021"></path>
<path d="M1.615 0.300 Q1.358 0.191 1.088 0.292" stroke="hsl(0.0,100%,35%)" stroke-width="0.00064"></path>
<path d="M1.615 0.300 Q1.392 0.063 0.880 0.120" stroke="hsl(0.0,100%,35%)" stroke-width="0.00043"></path>
<path d="M1.326 0.314 Q1.258 0.128 0.880 0.120" stroke="hsl(0.0,100%,35%)" stroke-width="0.00385"></path>
<path d="M1.326 0.314 Q1.225 0.256 1.088 0.292" stroke="hsl(0.0,100%,35%)" stroke-width="0.00406"></path>
<path d="M1.326 0.314 Q1.730 0.361 1.911 0.174" stroke="hsl(0.0,100%,35%)" stroke-width="0.00064"></path>
<path d="M1.326 0.314 Q0.971 0.339 0.941 0.517" stroke="hsl(0.0,100%,35%)" stroke-width="0.00256"></path>
<path d="M1.326 0.314 Q0.649 0.473 0.811 0.838" stroke="hsl(0.0,100%,35%)" stroke-width="0.00107"></path>
<path d="M1.353 0.381 Q1.219 0.387 1.200 0.454" stroke="hsl(0.0,100%,35%)" stroke-width="0.00128"></path>
<path d="M1.353 0.381 Q1.325 0.156 0.880 0.120" stroke="hsl(0.0,100%,35%)" stroke-width="0.00449"></path>
<path d="M1.353 0.381 Q1.292 0.284 1.088 0.292" stroke="hsl(0.0,100%,35%)" stroke-width="0.00342"></path>
<path d="M0.958 0.358 Q1.076 0.351 1.088 0.292" stroke="hsl(0.0,100%,35%)" stroke-width="0.00043"></path>
<path d="M0.958 0.358 Q1.003 0.454 1.200 0.454" stroke="hsl(0.0,100%,35%)" stroke-width="0.00021"></path>
<path d="M0.958 0.358 Q1.109 0.223 0.880 0.120" stroke="hsl(0.0,100%,35%)" stroke-width="0.00064"></path>
<path d="M1.706 0.359 Q1.484 0.074 0.880 0.120" stroke="hsl(0.0,100%,35%)" stroke-width="0.00043"></path>
<path d="M1.706 0.359 Q1.451 0.202 1.088 0.292" stroke="hsl(0.0,100%,35%)" stroke-width="0.00085"></path>
<path d="M1.706 0.359 Q1.378 0.305 1.200 0.454" stroke="hsl(0.0,100%,35%)" stroke-width="0.00021"></path>
<path d="M1.706 0.359 Q1.197 0.285 0.941 0.517" stroke="hsl(0.0,100%,35%)" stroke-width="0.00021"></path>
<path d="M0.418 0.749 Q0.690 0.769 0.788 0.641" stroke="hsl(180.0,100%,35%)" stroke-width="0.00342"></path>
<path d="M0.418 0.749 Q1.119 0.654 1.088 0.292" stroke="hsl(180.0,100%,35%)" stroke-width="0.00043"></path>
<path d="M0.418 0.749 Q0.824 0.852 1.115 0.676" stroke="hsl(180.0,100%,35%)" stroke-width="0.00021"></path>
<path d="M0.418 0.749 Q0.562 0.674 0.448 0.587" stroke="hsl(180.0,100%,35%)" stroke-width="0.00256"></path>
<path d="M0.418 0.749 Q0.543 0.872 0.811 0.838" stroke="hsl(180.0,100%,35%)" stroke-width="0.01261"></path>
<path d="M1.430 0.570 Q1.515 0.235 0.880 0.120" stroke="hsl(180.0,100%,35%)" stroke-width="0.00107"></path>
<path d="M1.430 0.570 Q1.481 0.362 1.088 0.292" stroke="hsl(180.0,100%,35%)" stroke-width="0.00128"></path>
<path d="M1.430 0.570 Q1.228 0.446 0.941 0.517" stroke="hsl(180.0,100%,35%)" stroke-width="0.00107"></path>
<path d="M1.145 0.046 Q0.953 0.030 0.880 0.120" stroke="hsl(0.0,100%,35%)" stroke-width="0.00150"></path>
<path d="M1.145 0.046 Q0.712 0.015 0.556 0.220" stroke="hsl(0.0,100%,35%)" stroke-width="0.00128"></path>
<path d="M1.145 0.046 Q0.920 0.158 1.088 0.292" stroke="hsl(0.0,100%,35%)" stroke-width="0.00107"></path>
<path d="M1.145 0.046 Q0.491 0.272 0.788 0.641" stroke="hsl(0.0,100%,35%)" stroke-width="0.00021"></path>
<path d="M1.145 0.046 Q0.589 0.532 1.416 0.910" stroke="hsl(0.0,100%,35%)" stroke-width="0.00043"></path>
<path d="M1.145 0.046 Q0.666 0.241 0.941 0.517" stroke="hsl(0.0,100%,35%)" stroke-width="0.00021"></path>
<path d="M1.427 0.197 Q1.181 0.177 1.088 0.292" stroke="hsl(0.0,100%,35%)" stroke-width="0.00427"></path>
<path d="M1.427 0.197 Q1.214 0.049 0.880 0.120" stroke="hsl(0.0,100%,35%)" stroke-width="0.00278"></path>
<path d="M1.427 0.197 Q1.686 0.282 1.911 0.174" stroke="hsl(0.0,100%,35%)" stroke-width="0.00021"></path>
<path d="M1.427 0.197 Q0.752 0.291 0.788 0.641" stroke="hsl(0.0,100%,35%)" stroke-width="0.00021"></path>
<path d="M0.737 0.307 Q0.925 0.370 1.088 0.292" stroke="hsl(0.0,100%,35%)" stroke-width="0.00064"></path>
<path d="M0.737 0.307 Q0.958 0.242 0.880 0.120" stroke="hsl(0.0,100%,35%)" stroke-width="0.00064"></path>
<path d="M0.737 0.307 Q0.852 0.473 1.200 0.454" stroke="hsl(0.0,100%,35%)" stroke-width="0.00043"></path>
<path d="M1.968 0.413 Q1.624 0.176 1.088 0.292" stroke="hsl(0.0,100%,35%)" stroke-width="0.00128"></path>
<path d="M1.968 0.413 Q2.130 0.282 1.911 0.174" stroke="hsl(0.0,100%,35%)" stroke-width="0.00064"></path>
<path d="M1.968 0.413 Q1.658 0.049 0.880 0.120" stroke="hsl(0.0,100%,35%)" stroke-width="0.00043"></path>
<path d="M1.968 0.413 Q1.551 0.280 1.200 0.454" stroke="hsl(0.0,100%,35%)" stroke-width="0.00021"></path>
</g>
<text x="1.370" y="0.551" font-size="0.009911" fill="hsl(0.0,100%,20%)">bajones</text>
<text x="1.200" y="0.436" font-size="0.035309" fill="hsl(0.0,100%,20%)">kainino</text>
<text x="1.088" y="0.252" font-size="0.080750" fill="hsl(0.0,100%,20%)">cwallez</text>
<text x="0.880" y="0.082" font-size="0.075928" fill="hsl(0.0,100%,20%)">enga</text>
<text x="1.115" y="0.650" font-size="0.052874" fill="hsl(180.0,100%,20%)">bclayton</text>
<text x="0.941" y="0.472" font-size="0.090834" fill="hsl(180.0,100%,20%)">dsinclair</text>
<text x="0.811" y="0.801" font-size="0.074522" fill="hsl(180.0,100%,20%)">dneto</text>
<text x="0.788" y="0.616" font-size="0.049095" fill="hsl(180.0,100%,20%)">rharrison</text>
<text x="0.448" y="0.571" font-size="0.031581" fill="hsl(180.0,100%,20%)">sarahmashay</text>
<text x="1.740" y="0.636" font-size="0.019630" fill="hsl(0.0,100%,20%)">brandon1.jones</text>
<text x="1.416" y="0.904" font-size="0.012596" fill="hsl(0.0,100%,20%)">rafael.cintron</text>
<text x="1.374" y="0.218" font-size="0.017166" fill="hsl(0.0,100%,20%)">natlee</text>
<text x="0.556" y="0.208" font-size="0.023162" fill="hsl(0.0,100%,20%)">bryan.bernhart</text>
<text x="1.463" y="0.533" font-size="0.036879" fill="hsl(0.0,100%,20%)">senorblanco</text>
<text x="1.911" y="0.157" font-size="0.035201" fill="hsl(0.0,100%,20%)">jiawei.shao</text>
<text x="1.615" y="0.297" font-size="0.007273" fill="hsl(0.0,100%,20%)">shaobo.yan</text>
<text x="1.916" y="0.340" font-size="0.002749" fill="hsl(0.0,100%,20%)">johnstiles</text>
<text x="1.326" y="0.304" font-size="0.020934" fill="hsl(0.0,100%,20%)">tommek</text>
<text x="1.353" y="0.372" font-size="0.018233" fill="hsl(0.0,100%,20%)">yunchao.he</text>
<text x="1.204" y="0.521" font-size="0.002749" fill="hsl(0.0,100%,20%)">sque</text>
<text x="0.958" y="0.354" font-size="0.007273" fill="hsl(0.0,100%,20%)">zmo</text>
<text x="0.932" y="0.350" font-size="0.002749" fill="hsl(0.0,100%,20%)">thakis</text>
<text x="1.128" y="0.373" font-size="0.003887" fill="hsl(0.0,100%,20%)">digit</text>
<text x="1.706" y="0.355" font-size="0.007775" fill="hsl(0.0,100%,20%)">cwoffenden</text>
<text x="0.418" y="0.736" font-size="0.026077" fill="hsl(180.0,100%,20%)">dj2</text>
<text x="1.430" y="0.564" font-size="0.011333" fill="hsl(180.0,100%,20%)">idanr</text>
<text x="0.818" y="0.289" font-size="0.002749" fill="hsl(0.0,100%,20%)">mtklein</text>
<text x="0.832" y="0.204" font-size="0.003887" fill="hsl(0.0,100%,20%)">mehe</text>
<text x="1.145" y="0.039" font-size="0.012893" fill="hsl(0.0,100%,20%)">enrico.galli</text>
<text x="1.427" y="0.188" font-size="0.016262" fill="hsl(0.0,100%,20%)">hao.x.li</text>
<text x="0.737" y="0.303" font-size="0.007775" fill="hsl(0.0,100%,20%)">jiajie.hu</text>
<text x="1.968" y="0.408" font-size="0.009522" fill="hsl(0.0,100%,20%)">xinghua.cao</text>
</svg>
