<svg width="4000" height="2000" viewBox="-0.025 -0.025 2.05 1.05" xmlns="http://www.w3.org/2000/svg">
  <style>
    path {
      fill: none;
      stroke-linecap: round;
      stroke-opacity: 0.4;
    }

    text {
      text-anchor: middle;
      alignment-baseline: hanging;
    }
  </style>
  <g opacity="0.4">
<path d="M1.172 0.344 Q0.987 0.345 0.950 0.436" stroke="hsl(0.0,100%,35%)" stroke-width="0.00428"></path>
<path d="M1.172 0.344 Q1.237 0.546 1.645 0.559" stroke="hsl(0.0,100%,35%)" stroke-width="0.00381"></path>
<path d="M1.172 0.344 Q1.089 0.426 1.230 0.484" stroke="hsl(0.0,100%,35%)" stroke-width="0.00048"></path>
<path d="M0.950 0.436 Q1.052 0.516 1.230 0.484" stroke="hsl(0.0,100%,35%)" stroke-width="0.05613"></path>
<path d="M0.950 0.436 Q1.199 0.636 1.645 0.559" stroke="hsl(0.0,100%,35%)" stroke-width="0.07278"></path>
<path d="M0.950 0.436 Q0.663 0.506 0.738 0.661" stroke="hsl(0.0,100%,35%)" stroke-width="0.00333"></path>
<path d="M0.950 0.436 Q1.129 0.358 1.016 0.253" stroke="hsl(0.0,100%,35%)" stroke-width="0.00143"></path>
<path d="M0.950 0.436 Q1.085 0.693 1.617 0.683" stroke="hsl(0.0,100%,35%)" stroke-width="0.00713"></path>
<path d="M0.950 0.436 Q1.244 0.393 1.225 0.240" stroke="hsl(0.0,100%,35%)" stroke-width="0.00428"></path>
<path d="M0.950 0.436 Q1.022 0.644 1.443 0.654" stroke="hsl(0.0,100%,35%)" stroke-width="0.00048"></path>
<path d="M0.950 0.436 Q0.997 0.614 1.354 0.630" stroke="hsl(0.0,100%,35%)" stroke-width="0.00095"></path>
<path d="M0.950 0.436 Q1.213 0.470 1.338 0.349" stroke="hsl(0.0,100%,35%)" stroke-width="0.00238"></path>
<path d="M0.950 0.436 Q1.135 0.434 1.172 0.344" stroke="hsl(0.0,100%,35%)" stroke-width="0.00048"></path>
<path d="M0.950 0.436 Q1.244 0.334 1.109 0.168" stroke="hsl(0.0,100%,35%)" stroke-width="0.00095"></path>
<path d="M0.950 0.436 Q0.787 0.420 0.719 0.496" stroke="hsl(0.0,100%,35%)" stroke-width="0.00048"></path>
<path d="M0.950 0.436 Q1.123 0.400 1.091 0.307" stroke="hsl(0.0,100%,35%)" stroke-width="0.00048"></path>
<path d="M0.950 0.436 Q1.494 0.398 1.539 0.124" stroke="hsl(0.0,100%,35%)" stroke-width="0.00095"></path>
<path d="M0.950 0.436 Q1.453 0.614 1.912 0.408" stroke="hsl(0.0,100%,35%)" stroke-width="0.00048"></path>
<path d="M0.950 0.436 Q0.798 0.283 0.467 0.323" stroke="hsl(0.0,100%,35%)" stroke-width="0.00048"></path>
<path d="M1.645 0.559 Q1.498 0.438 1.230 0.484" stroke="hsl(0.0,100%,35%)" stroke-width="0.05327"></path>
<path d="M1.645 0.559 Q1.396 0.358 0.950 0.436" stroke="hsl(0.0,100%,35%)" stroke-width="0.04233"></path>
<path d="M1.645 0.559 Q1.531 0.615 1.617 0.683" stroke="hsl(0.0,100%,35%)" stroke-width="0.00095"></path>
<path d="M1.645 0.559 Q1.109 0.429 0.738 0.661" stroke="hsl(0.0,100%,35%)" stroke-width="0.00048"></path>
<path d="M1.645 0.559 Q1.240 0.457 0.954 0.633" stroke="hsl(0.0,100%,35%)" stroke-width="0.00048"></path>
<path d="M1.230 0.484 Q1.378 0.604 1.645 0.559" stroke="hsl(0.0,100%,35%)" stroke-width="0.00190"></path>
<path d="M1.230 0.484 Q1.128 0.404 0.950 0.436" stroke="hsl(0.0,100%,35%)" stroke-width="0.00238"></path>
<path d="M1.230 0.484 Q1.264 0.661 1.617 0.683" stroke="hsl(0.0,100%,35%)" stroke-width="0.00048"></path>
<path d="M0.875 0.188 Q0.714 0.327 0.950 0.436" stroke="hsl(0.0,100%,35%)" stroke-width="0.00381"></path>
<path d="M0.875 0.188 Q0.964 0.527 1.645 0.559" stroke="hsl(0.0,100%,35%)" stroke-width="0.00095"></path>
<path d="M0.875 0.188 Q0.816 0.407 1.230 0.484" stroke="hsl(0.0,100%,35%)" stroke-width="0.00333"></path>
<path d="M0.875 0.188 Q0.389 0.268 0.439 0.523" stroke="hsl(0.0,100%,35%)" stroke-width="0.00048"></path>
<path d="M0.439 0.523 Q1.013 0.782 1.645 0.559" stroke="hsl(0.0,100%,35%)" stroke-width="0.00190"></path>
<path d="M0.439 0.523 Q0.764 0.582 0.950 0.436" stroke="hsl(0.0,100%,35%)" stroke-width="0.00381"></path>
<path d="M0.439 0.523 Q0.866 0.662 1.230 0.484" stroke="hsl(0.0,100%,35%)" stroke-width="0.00285"></path>
<path d="M1.354 0.630 Q1.556 0.652 1.645 0.559" stroke="hsl(0.0,100%,35%)" stroke-width="0.01189"></path>
<path d="M1.354 0.630 Q1.307 0.452 0.950 0.436" stroke="hsl(0.0,100%,35%)" stroke-width="0.01284"></path>
<path d="M1.354 0.630 Q1.409 0.532 1.230 0.484" stroke="hsl(0.0,100%,35%)" stroke-width="0.00476"></path>
<path d="M1.617 0.683 Q1.583 0.506 1.230 0.484" stroke="hsl(0.0,100%,35%)" stroke-width="0.01237"></path>
<path d="M1.617 0.683 Q1.481 0.426 0.950 0.436" stroke="hsl(0.0,100%,35%)" stroke-width="0.02093"></path>
<path d="M1.617 0.683 Q1.731 0.627 1.645 0.559" stroke="hsl(0.0,100%,35%)" stroke-width="0.01332"></path>
<path d="M1.225 0.240 Q0.930 0.283 0.950 0.436" stroke="hsl(0.0,100%,35%)" stroke-width="0.01903"></path>
<path d="M1.225 0.240 Q1.180 0.483 1.645 0.559" stroke="hsl(0.0,100%,35%)" stroke-width="0.01284"></path>
<path d="M1.225 0.240 Q1.032 0.363 1.230 0.484" stroke="hsl(0.0,100%,35%)" stroke-width="0.00809"></path>
<path d="M1.443 0.654 Q1.371 0.446 0.950 0.436" stroke="hsl(0.0,100%,35%)" stroke-width="0.00095"></path>
<path d="M1.443 0.654 Q1.620 0.647 1.645 0.559" stroke="hsl(0.0,100%,35%)" stroke-width="0.00428"></path>
<path d="M1.443 0.654 Q1.473 0.526 1.230 0.484" stroke="hsl(0.0,100%,35%)" stroke-width="0.00190"></path>
<path d="M1.338 0.349 Q1.324 0.515 1.645 0.559" stroke="hsl(0.0,100%,35%)" stroke-width="0.00095"></path>
<path d="M1.338 0.349 Q1.075 0.315 0.950 0.436" stroke="hsl(0.0,100%,35%)" stroke-width="0.00143"></path>
<path d="M1.338 0.349 Q1.176 0.395 1.230 0.484" stroke="hsl(0.0,100%,35%)" stroke-width="0.00143"></path>
<path d="M1.109 0.168 Q1.065 0.471 1.645 0.559" stroke="hsl(0.0,100%,35%)" stroke-width="0.00904"></path>
<path d="M1.109 0.168 Q0.815 0.270 0.950 0.436" stroke="hsl(0.0,100%,35%)" stroke-width="0.01379"></path>
<path d="M1.109 0.168 Q0.917 0.350 1.230 0.484" stroke="hsl(0.0,100%,35%)" stroke-width="0.00809"></path>
<path d="M1.539 0.124 Q1.097 0.242 1.230 0.484" stroke="hsl(0.0,100%,35%)" stroke-width="0.00571"></path>
<path d="M1.539 0.124 Q1.245 0.363 1.645 0.559" stroke="hsl(0.0,100%,35%)" stroke-width="0.00095"></path>
<path d="M1.539 0.124 Q0.995 0.162 0.950 0.436" stroke="hsl(0.0,100%,35%)" stroke-width="0.00238"></path>
<path d="M1.912 0.408 Q1.658 0.430 1.645 0.559" stroke="hsl(0.0,100%,35%)" stroke-width="0.00618"></path>
<path d="M1.912 0.408 Q1.408 0.230 0.950 0.436" stroke="hsl(0.0,100%,35%)" stroke-width="0.00761"></path>
<path d="M1.912 0.408 Q1.510 0.310 1.230 0.484" stroke="hsl(0.0,100%,35%)" stroke-width="0.00618"></path>
<path d="M1.912 0.408 Q1.083 0.171 0.439 0.523" stroke="hsl(0.0,100%,35%)" stroke-width="0.00095"></path>
<path d="M0.467 0.323 Q0.754 0.733 1.617 0.683" stroke="hsl(0.0,100%,35%)" stroke-width="0.00048"></path>
<path d="M0.467 0.323 Q0.618 0.476 0.950 0.436" stroke="hsl(0.0,100%,35%)" stroke-width="0.00904"></path>
<path d="M0.467 0.323 Q0.868 0.677 1.645 0.559" stroke="hsl(0.0,100%,35%)" stroke-width="0.00285"></path>
<path d="M0.467 0.323 Q0.720 0.556 1.230 0.484" stroke="hsl(0.0,100%,35%)" stroke-width="0.00428"></path>
<path d="M0.755 0.216 Q0.677 0.365 0.950 0.436" stroke="hsl(0.0,100%,35%)" stroke-width="0.00048"></path>
<path d="M0.755 0.216 Q0.971 0.263 1.109 0.168" stroke="hsl(0.0,100%,35%)" stroke-width="0.00048"></path>
<path d="M0.239 0.637 Q0.857 0.759 1.230 0.484" stroke="hsl(0.0,100%,35%)" stroke-width="0.00095"></path>
<path d="M0.239 0.637 Q0.120 0.709 0.234 0.783" stroke="hsl(0.0,100%,35%)" stroke-width="0.00048"></path>
<path d="M0.239 0.637 Q0.755 0.679 0.950 0.436" stroke="hsl(0.0,100%,35%)" stroke-width="0.00048"></path>
<path d="M0.973 0.746 Q1.459 0.787 1.645 0.559" stroke="hsl(0.0,100%,35%)" stroke-width="0.00048"></path>
<path d="M0.973 0.746 Q1.209 0.586 0.950 0.436" stroke="hsl(0.0,100%,35%)" stroke-width="0.00190"></path>
<path d="M0.973 0.746 Q1.311 0.666 1.230 0.484" stroke="hsl(0.0,100%,35%)" stroke-width="0.00095"></path>
<path d="M1.046 0.288 Q0.880 0.343 0.950 0.436" stroke="hsl(0.0,100%,35%)" stroke-width="0.00809"></path>
<path d="M1.046 0.288 Q1.130 0.543 1.645 0.559" stroke="hsl(0.0,100%,35%)" stroke-width="0.00333"></path>
<path d="M1.046 0.288 Q0.982 0.423 1.230 0.484" stroke="hsl(0.0,100%,35%)" stroke-width="0.00333"></path>
<path d="M1.226 0.589 Q1.210 0.457 0.950 0.436" stroke="hsl(0.0,100%,35%)" stroke-width="0.00143"></path>
<path d="M1.226 0.589 Q1.460 0.658 1.645 0.559" stroke="hsl(0.0,100%,35%)" stroke-width="0.00143"></path>
<path d="M1.226 0.589 Q1.312 0.537 1.230 0.484" stroke="hsl(0.0,100%,35%)" stroke-width="0.00048"></path>
</g>
<text x="1.172" y="0.334" font-size="0.018828" fill="hsl(0.0,100%,20%)">beaufort.francois</text>
<text x="0.950" y="0.381" font-size="0.110291" fill="hsl(0.0,100%,20%)">cwallez</text>
<text x="1.645" y="0.509" font-size="0.098307" fill="hsl(0.0,100%,20%)">enga</text>
<text x="1.230" y="0.442" font-size="0.083866" fill="hsl(0.0,100%,20%)">kainino</text>
<text x="0.875" y="0.179" font-size="0.018325" fill="hsl(0.0,100%,20%)">brandon1.jones</text>
<text x="0.439" y="0.513" font-size="0.019794" fill="hsl(0.0,100%,20%)">rafael.cintron</text>
<text x="1.354" y="0.612" font-size="0.034555" fill="hsl(0.0,100%,20%)">bryan.bernhart</text>
<text x="0.738" y="0.655" font-size="0.012217" fill="hsl(0.0,100%,20%)">digit</text>
<text x="1.016" y="0.249" font-size="0.007481" fill="hsl(0.0,100%,20%)">thakis</text>
<text x="1.617" y="0.660" font-size="0.046721" fill="hsl(0.0,100%,20%)">jiawei.shao</text>
<text x="1.225" y="0.219" font-size="0.041654" fill="hsl(0.0,100%,20%)">yunchao.he</text>
<text x="1.443" y="0.645" font-size="0.017277" fill="hsl(0.0,100%,20%)">hob</text>
<text x="1.338" y="0.342" font-size="0.015574" fill="hsl(0.0,100%,20%)">senorblanco</text>
<text x="1.109" y="0.150" font-size="0.035618" fill="hsl(0.0,100%,20%)">rharrison</text>
<text x="0.719" y="0.493" font-size="0.004319" fill="hsl(0.0,100%,20%)">oshima</text>
<text x="1.091" y="0.305" font-size="0.004319" fill="hsl(0.0,100%,20%)">afakhry</text>
<text x="1.539" y="0.114" font-size="0.019794" fill="hsl(0.0,100%,20%)">idanr</text>
<text x="1.912" y="0.393" font-size="0.028975" fill="hsl(0.0,100%,20%)">natlee</text>
<text x="0.467" y="0.310" font-size="0.025916" fill="hsl(0.0,100%,20%)">hao.x.li</text>
<text x="0.954" y="0.631" font-size="0.004319" fill="hsl(0.0,100%,20%)">kbr</text>
<text x="0.755" y="0.213" font-size="0.006108" fill="hsl(0.0,100%,20%)">fjhenigman</text>
<text x="0.239" y="0.633" font-size="0.008639" fill="hsl(0.0,100%,20%)">iannucci</text>
<text x="0.234" y="0.780" font-size="0.004319" fill="hsl(0.0,100%,20%)">tandrii</text>
<text x="0.973" y="0.740" font-size="0.011428" fill="hsl(0.0,100%,20%)">jiajie.hu</text>
<text x="1.046" y="0.276" font-size="0.024049" fill="hsl(0.0,100%,20%)">shaobo.yan</text>
<text x="1.226" y="0.583" font-size="0.011428" fill="hsl(0.0,100%,20%)">yizhou.jiang</text>
</svg>
