<svg width="4000" height="2000" viewBox="-0.025 -0.025 2.05 1.05" xmlns="http://www.w3.org/2000/svg">
  <style>
    path {
      fill: none;
      stroke-linecap: round;
      stroke-opacity: 0.4;
    }

    text {
      text-anchor: middle;
      alignment-baseline: hanging;
    }
  </style>
  <g opacity="0.4">
<path d="M0.642 0.148 Q0.299 0.235 0.394 0.421" stroke="hsl(0.0,100%,35%)" stroke-width="0.00145"></path>
<path d="M0.642 0.148 Q0.608 0.123 0.552 0.134" stroke="hsl(0.0,100%,35%)" stroke-width="0.00199"></path>
<path d="M0.642 0.148 Q0.248 0.161 0.187 0.356" stroke="hsl(0.0,100%,35%)" stroke-width="0.00023"></path>
<path d="M0.642 0.148 Q0.772 0.128 0.762 0.060" stroke="hsl(0.0,100%,35%)" stroke-width="0.00015"></path>
<path d="M0.394 0.421 Q0.343 0.347 0.187 0.356" stroke="hsl(0.0,100%,35%)" stroke-width="0.04024"></path>
<path d="M0.394 0.421 Q0.575 0.398 0.570 0.304" stroke="hsl(0.0,100%,35%)" stroke-width="0.04222"></path>
<path d="M0.394 0.421 Q0.479 0.329 0.319 0.268" stroke="hsl(0.0,100%,35%)" stroke-width="0.06482"></path>
<path d="M0.394 0.421 Q0.156 0.806 0.855 1.007" stroke="hsl(0.0,100%,35%)" stroke-width="0.02359"></path>
<path d="M0.394 0.421 Q0.586 0.425 0.636 0.333" stroke="hsl(0.0,100%,35%)" stroke-width="0.02871"></path>
<path d="M0.394 0.421 Q0.018 0.764 0.604 1.022" stroke="hsl(0.0,100%,35%)" stroke-width="0.00038"></path>
<path d="M0.394 0.421 Q0.259 0.755 0.881 0.894" stroke="hsl(0.0,100%,35%)" stroke-width="0.01153"></path>
<path d="M0.394 0.421 Q0.281 0.859 1.112 1.011" stroke="hsl(0.0,100%,35%)" stroke-width="0.00046"></path>
<path d="M0.394 0.421 Q0.703 0.309 0.552 0.134" stroke="hsl(0.0,100%,35%)" stroke-width="0.00382"></path>
<path d="M0.394 0.421 Q0.290 0.819 1.043 0.957" stroke="hsl(0.0,100%,35%)" stroke-width="0.00099"></path>
<path d="M0.394 0.421 Q0.465 0.753 1.128 0.791" stroke="hsl(0.0,100%,35%)" stroke-width="0.00015"></path>
<path d="M0.394 0.421 Q0.579 0.318 0.418 0.205" stroke="hsl(0.0,100%,35%)" stroke-width="0.00023"></path>
<path d="M0.394 0.421 Q0.546 0.356 0.452 0.267" stroke="hsl(0.0,100%,35%)" stroke-width="0.00053"></path>
<path d="M0.394 0.421 Q0.867 0.314 0.762 0.060" stroke="hsl(0.0,100%,35%)" stroke-width="0.00015"></path>
<path d="M0.394 0.421 Q0.661 0.359 0.598 0.214" stroke="hsl(0.0,100%,35%)" stroke-width="0.00015"></path>
<path d="M0.552 0.134 Q0.108 0.580 0.881 0.894" stroke="hsl(0.0,100%,35%)" stroke-width="0.00779"></path>
<path d="M0.552 0.134 Q0.328 0.154 0.319 0.268" stroke="hsl(0.0,100%,35%)" stroke-width="0.00672"></path>
<path d="M0.552 0.134 Q0.243 0.246 0.394 0.421" stroke="hsl(0.0,100%,35%)" stroke-width="0.00657"></path>
<path d="M0.552 0.134 Q0.424 0.222 0.570 0.304" stroke="hsl(0.0,100%,35%)" stroke-width="0.00145"></path>
<path d="M0.552 0.134 Q0.192 0.172 0.187 0.356" stroke="hsl(0.0,100%,35%)" stroke-width="0.00069"></path>
<path d="M0.552 0.134 Q0.435 0.250 0.636 0.333" stroke="hsl(0.0,100%,35%)" stroke-width="0.00183"></path>
<path d="M0.552 0.134 Q0.005 0.631 0.855 1.007" stroke="hsl(0.0,100%,35%)" stroke-width="0.00710"></path>
<path d="M0.552 0.134 Q0.585 0.159 0.642 0.148" stroke="hsl(0.0,100%,35%)" stroke-width="0.00023"></path>
<path d="M0.552 0.134 Q0.686 0.178 0.802 0.123" stroke="hsl(0.0,100%,35%)" stroke-width="0.00023"></path>
<path d="M0.552 0.134 Q0.395 0.180 0.452 0.267" stroke="hsl(0.0,100%,35%)" stroke-width="0.00015"></path>
<path d="M0.552 0.134 Q-0.133 0.588 0.604 1.022" stroke="hsl(0.0,100%,35%)" stroke-width="0.00183"></path>
<path d="M0.552 0.134 Q0.809 0.143 0.883 0.019" stroke="hsl(0.0,100%,35%)" stroke-width="0.00015"></path>
<path d="M0.187 0.356 Q0.238 0.430 0.394 0.421" stroke="hsl(0.0,100%,35%)" stroke-width="0.02542"></path>
<path d="M0.187 0.356 Q0.103 0.764 0.881 0.894" stroke="hsl(0.0,100%,35%)" stroke-width="0.00428"></path>
<path d="M0.187 0.356 Q0.000 0.815 0.855 1.007" stroke="hsl(0.0,100%,35%)" stroke-width="0.00183"></path>
<path d="M0.187 0.356 Q0.420 0.406 0.570 0.304" stroke="hsl(0.0,100%,35%)" stroke-width="0.00321"></path>
<path d="M0.187 0.356 Q-0.138 0.772 0.604 1.022" stroke="hsl(0.0,100%,35%)" stroke-width="0.00015"></path>
<path d="M0.187 0.356 Q0.323 0.338 0.319 0.268" stroke="hsl(0.0,100%,35%)" stroke-width="0.00313"></path>
<path d="M0.187 0.356 Q0.430 0.434 0.636 0.333" stroke="hsl(0.0,100%,35%)" stroke-width="0.00191"></path>
<path d="M0.187 0.356 Q0.547 0.318 0.552 0.134" stroke="hsl(0.0,100%,35%)" stroke-width="0.00023"></path>
<path d="M0.187 0.356 Q0.125 0.868 1.112 1.011" stroke="hsl(0.0,100%,35%)" stroke-width="0.00023"></path>
<path d="M0.762 0.060 Q0.598 0.055 0.552 0.134" stroke="hsl(0.0,100%,35%)" stroke-width="0.00031"></path>
<path d="M0.762 0.060 Q0.289 0.167 0.394 0.421" stroke="hsl(0.0,100%,35%)" stroke-width="0.00046"></path>
<path d="M0.762 0.060 Q0.632 0.080 0.642 0.148" stroke="hsl(0.0,100%,35%)" stroke-width="0.00015"></path>
<path d="M0.762 0.060 Q0.791 0.091 0.859 0.084" stroke="hsl(0.0,100%,35%)" stroke-width="0.00015"></path>
<path d="M0.762 0.060 Q0.481 0.171 0.636 0.333" stroke="hsl(0.0,100%,35%)" stroke-width="0.00015"></path>
<path d="M0.762 0.060 Q0.374 0.075 0.319 0.268" stroke="hsl(0.0,100%,35%)" stroke-width="0.00023"></path>
<path d="M0.666 1.108 Q0.841 1.096 0.855 1.007" stroke="hsl(180.0,100%,35%)" stroke-width="0.00046"></path>
<path d="M0.666 1.108 Q0.944 1.044 0.881 0.894" stroke="hsl(180.0,100%,35%)" stroke-width="0.00031"></path>
<path d="M0.666 1.108 Q0.704 1.053 0.604 1.022" stroke="hsl(180.0,100%,35%)" stroke-width="0.00015"></path>
<path d="M0.855 1.007 Q1.093 0.622 0.394 0.421" stroke="hsl(180.0,100%,35%)" stroke-width="0.01596"></path>
<path d="M0.855 1.007 Q1.179 0.530 0.319 0.268" stroke="hsl(180.0,100%,35%)" stroke-width="0.00252"></path>
<path d="M0.855 1.007 Q1.027 0.840 0.739 0.720" stroke="hsl(180.0,100%,35%)" stroke-width="0.00855"></path>
<path d="M0.855 1.007 Q0.958 0.956 0.881 0.894" stroke="hsl(180.0,100%,35%)" stroke-width="0.05650"></path>
<path d="M0.855 1.007 Q0.989 1.020 1.043 0.957" stroke="hsl(180.0,100%,35%)" stroke-width="0.01267"></path>
<path d="M0.855 1.007 Q0.656 1.025 0.647 1.126" stroke="hsl(180.0,100%,35%)" stroke-width="0.00015"></path>
<path d="M0.855 1.007 Q0.718 0.964 0.604 1.022" stroke="hsl(180.0,100%,35%)" stroke-width="0.01932"></path>
<path d="M0.855 1.007 Q0.981 1.060 1.112 1.011" stroke="hsl(180.0,100%,35%)" stroke-width="0.00443"></path>
<path d="M0.855 1.007 Q1.042 0.548 0.187 0.356" stroke="hsl(180.0,100%,35%)" stroke-width="0.00031"></path>
<path d="M0.855 1.007 Q1.127 0.897 0.972 0.741" stroke="hsl(180.0,100%,35%)" stroke-width="0.00038"></path>
<path d="M0.855 1.007 Q1.066 0.992 1.083 0.886" stroke="hsl(180.0,100%,35%)" stroke-width="0.00023"></path>
<path d="M0.855 1.007 Q1.131 1.055 1.285 0.931" stroke="hsl(180.0,100%,35%)" stroke-width="0.00092"></path>
<path d="M0.855 1.007 Q0.961 0.869 0.714 0.787" stroke="hsl(180.0,100%,35%)" stroke-width="0.00038"></path>
<path d="M0.855 1.007 Q1.129 0.915 1.009 0.761" stroke="hsl(180.0,100%,35%)" stroke-width="0.00015"></path>
<path d="M0.855 1.007 Q1.275 0.598 0.570 0.304" stroke="hsl(180.0,100%,35%)" stroke-width="0.00031"></path>
<path d="M0.855 1.007 Q1.402 0.510 0.552 0.134" stroke="hsl(180.0,100%,35%)" stroke-width="0.00137"></path>
<path d="M0.855 1.007 Q1.197 0.950 1.162 0.771" stroke="hsl(180.0,100%,35%)" stroke-width="0.00023"></path>
<path d="M0.855 1.007 Q0.926 0.941 0.812 0.891" stroke="hsl(180.0,100%,35%)" stroke-width="0.00023"></path>
<path d="M0.855 1.007 Q0.844 0.932 0.694 0.921" stroke="hsl(180.0,100%,35%)" stroke-width="0.00382"></path>
<path d="M0.855 1.007 Q0.913 1.060 1.028 1.043" stroke="hsl(180.0,100%,35%)" stroke-width="0.00046"></path>
<path d="M0.855 1.007 Q1.285 0.626 0.636 0.333" stroke="hsl(180.0,100%,35%)" stroke-width="0.00061"></path>
<path d="M0.855 1.007 Q0.998 1.007 1.030 0.938" stroke="hsl(180.0,100%,35%)" stroke-width="0.00023"></path>
<path d="M0.855 1.007 Q0.933 0.820 0.586 0.741" stroke="hsl(180.0,100%,35%)" stroke-width="0.00069"></path>
<path d="M0.855 1.007 Q1.094 0.896 0.929 0.755" stroke="hsl(180.0,100%,35%)" stroke-width="0.00015"></path>
<path d="M0.855 1.007 Q0.933 0.840 0.625 0.766" stroke="hsl(180.0,100%,35%)" stroke-width="0.00015"></path>
<path d="M0.881 0.894 Q0.949 0.778 0.739 0.720" stroke="hsl(180.0,100%,35%)" stroke-width="0.01435"></path>
<path d="M0.881 0.894 Q0.640 0.903 0.604 1.022" stroke="hsl(180.0,100%,35%)" stroke-width="0.01558"></path>
<path d="M0.881 0.894 Q0.777 0.945 0.855 1.007" stroke="hsl(180.0,100%,35%)" stroke-width="0.03001"></path>
<path d="M0.881 0.894 Q0.883 0.807 0.714 0.787" stroke="hsl(180.0,100%,35%)" stroke-width="0.00206"></path>
<path d="M0.881 0.894 Q0.964 0.486 0.187 0.356" stroke="hsl(180.0,100%,35%)" stroke-width="0.00069"></path>
<path d="M0.881 0.894 Q0.903 0.998 1.112 1.011" stroke="hsl(180.0,100%,35%)" stroke-width="0.00221"></path>
<path d="M0.881 0.894 Q1.101 0.468 0.319 0.268" stroke="hsl(180.0,100%,35%)" stroke-width="0.00153"></path>
<path d="M0.881 0.894 Q1.016 0.560 0.394 0.421" stroke="hsl(180.0,100%,35%)" stroke-width="0.00534"></path>
<path d="M0.881 0.894 Q0.988 0.930 1.083 0.886" stroke="hsl(180.0,100%,35%)" stroke-width="0.00023"></path>
<path d="M0.881 0.894 Q1.197 0.537 0.570 0.304" stroke="hsl(180.0,100%,35%)" stroke-width="0.00061"></path>
<path d="M0.881 0.894 Q1.049 0.836 0.972 0.741" stroke="hsl(180.0,100%,35%)" stroke-width="0.00031"></path>
<path d="M0.881 0.894 Q1.125 0.931 1.252 0.820" stroke="hsl(180.0,100%,35%)" stroke-width="0.00031"></path>
<path d="M0.881 0.894 Q0.912 0.958 1.043 0.957" stroke="hsl(180.0,100%,35%)" stroke-width="0.00573"></path>
<path d="M0.881 0.894 Q0.766 0.870 0.694 0.921" stroke="hsl(180.0,100%,35%)" stroke-width="0.00344"></path>
<path d="M0.881 0.894 Q1.324 0.448 0.552 0.134" stroke="hsl(180.0,100%,35%)" stroke-width="0.00053"></path>
<path d="M0.881 0.894 Q1.040 0.742 0.778 0.630" stroke="hsl(180.0,100%,35%)" stroke-width="0.00023"></path>
<path d="M0.881 0.894 Q0.833 0.815 0.669 0.821" stroke="hsl(180.0,100%,35%)" stroke-width="0.00015"></path>
<path d="M0.881 0.894 Q1.215 0.924 1.348 0.768" stroke="hsl(180.0,100%,35%)" stroke-width="0.00023"></path>
<path d="M0.881 0.894 Q1.119 0.889 1.162 0.771" stroke="hsl(180.0,100%,35%)" stroke-width="0.00015"></path>
<path d="M0.881 0.894 Q1.264 0.889 1.338 0.701" stroke="hsl(180.0,100%,35%)" stroke-width="0.00031"></path>
<path d="M0.881 0.894 Q1.208 0.565 0.636 0.333" stroke="hsl(180.0,100%,35%)" stroke-width="0.00031"></path>
<path d="M0.881 0.894 Q1.016 0.834 0.929 0.755" stroke="hsl(180.0,100%,35%)" stroke-width="0.00053"></path>
<path d="M0.881 0.894 Q1.053 0.993 1.285 0.931" stroke="hsl(180.0,100%,35%)" stroke-width="0.00038"></path>
<path d="M0.881 0.894 Q1.018 0.825 0.913 0.743" stroke="hsl(180.0,100%,35%)" stroke-width="0.00015"></path>
<path d="M0.319 0.268 Q0.233 0.359 0.394 0.421" stroke="hsl(0.0,100%,35%)" stroke-width="0.05031"></path>
<path d="M0.319 0.268 Q0.182 0.285 0.187 0.356" stroke="hsl(0.0,100%,35%)" stroke-width="0.00527"></path>
<path d="M0.319 0.268 Q0.129 0.757 1.043 0.957" stroke="hsl(0.0,100%,35%)" stroke-width="0.00038"></path>
<path d="M0.319 0.268 Q0.415 0.336 0.570 0.304" stroke="hsl(0.0,100%,35%)" stroke-width="0.00901"></path>
<path d="M0.319 0.268 Q-0.005 0.745 0.855 1.007" stroke="hsl(0.0,100%,35%)" stroke-width="0.00680"></path>
<path d="M0.319 0.268 Q0.542 0.247 0.552 0.134" stroke="hsl(0.0,100%,35%)" stroke-width="0.00893"></path>
<path d="M0.319 0.268 Q0.099 0.693 0.881 0.894" stroke="hsl(0.0,100%,35%)" stroke-width="0.00145"></path>
<path d="M0.319 0.268 Q-0.142 0.702 0.604 1.022" stroke="hsl(0.0,100%,35%)" stroke-width="0.00038"></path>
<path d="M0.319 0.268 Q0.425 0.364 0.636 0.333" stroke="hsl(0.0,100%,35%)" stroke-width="0.02481"></path>
<path d="M0.319 0.268 Q0.385 0.294 0.452 0.267" stroke="hsl(0.0,100%,35%)" stroke-width="0.00435"></path>
<path d="M0.604 1.022 Q0.742 1.065 0.855 1.007" stroke="hsl(180.0,100%,35%)" stroke-width="0.00344"></path>
<path d="M0.604 1.022 Q0.913 0.898 0.739 0.720" stroke="hsl(180.0,100%,35%)" stroke-width="0.00137"></path>
<path d="M0.604 1.022 Q0.845 1.013 0.881 0.894" stroke="hsl(180.0,100%,35%)" stroke-width="0.00389"></path>
<path d="M0.604 1.022 Q0.980 0.680 0.394 0.421" stroke="hsl(180.0,100%,35%)" stroke-width="0.00015"></path>
<path d="M0.604 1.022 Q0.730 0.990 0.694 0.921" stroke="hsl(180.0,100%,35%)" stroke-width="0.00015"></path>
<path d="M0.604 1.022 Q0.867 1.118 1.112 1.011" stroke="hsl(180.0,100%,35%)" stroke-width="0.00015"></path>
<path d="M0.604 1.022 Q1.289 0.567 0.552 0.134" stroke="hsl(180.0,100%,35%)" stroke-width="0.00023"></path>
<path d="M0.604 1.022 Q1.065 0.588 0.319 0.268" stroke="hsl(180.0,100%,35%)" stroke-width="0.00023"></path>
<path d="M0.778 0.736 Q0.703 0.835 0.881 0.894" stroke="hsl(180.0,100%,35%)" stroke-width="0.00031"></path>
<path d="M0.778 0.736 Q0.600 0.887 0.855 1.007" stroke="hsl(180.0,100%,35%)" stroke-width="0.00031"></path>
<path d="M0.512 0.729 Q0.564 0.885 0.881 0.894" stroke="hsl(180.0,100%,35%)" stroke-width="0.00031"></path>
<path d="M0.512 0.729 Q0.633 0.770 0.739 0.720" stroke="hsl(180.0,100%,35%)" stroke-width="0.00015"></path>
<path d="M0.739 0.720 Q0.670 0.835 0.881 0.894" stroke="hsl(180.0,100%,35%)" stroke-width="0.01496"></path>
<path d="M0.739 0.720 Q0.429 0.844 0.604 1.022" stroke="hsl(180.0,100%,35%)" stroke-width="0.00176"></path>
<path d="M0.739 0.720 Q0.567 0.887 0.855 1.007" stroke="hsl(180.0,100%,35%)" stroke-width="0.00405"></path>
<path d="M0.739 0.720 Q0.805 0.502 0.394 0.421" stroke="hsl(180.0,100%,35%)" stroke-width="0.00053"></path>
<path d="M0.739 0.720 Q0.692 0.940 1.112 1.011" stroke="hsl(180.0,100%,35%)" stroke-width="0.00046"></path>
<path d="M0.739 0.720 Q0.672 0.748 0.714 0.787" stroke="hsl(180.0,100%,35%)" stroke-width="0.00122"></path>
<path d="M0.570 0.304 Q0.388 0.327 0.394 0.421" stroke="hsl(0.0,100%,35%)" stroke-width="0.03871"></path>
<path d="M0.570 0.304 Q0.580 0.332 0.636 0.333" stroke="hsl(0.0,100%,35%)" stroke-width="0.00366"></path>
<path d="M0.570 0.304 Q0.337 0.253 0.187 0.356" stroke="hsl(0.0,100%,35%)" stroke-width="0.00183"></path>
<path d="M0.570 0.304 Q0.473 0.236 0.319 0.268" stroke="hsl(0.0,100%,35%)" stroke-width="0.01015"></path>
<path d="M0.570 0.304 Q0.275 0.766 1.112 1.011" stroke="hsl(0.0,100%,35%)" stroke-width="0.00031"></path>
<path d="M0.570 0.304 Q0.150 0.713 0.855 1.007" stroke="hsl(0.0,100%,35%)" stroke-width="0.00160"></path>
<path d="M0.570 0.304 Q0.253 0.661 0.881 0.894" stroke="hsl(0.0,100%,35%)" stroke-width="0.00153"></path>
<path d="M0.570 0.304 Q0.656 0.265 0.598 0.214" stroke="hsl(0.0,100%,35%)" stroke-width="0.00015"></path>
<path d="M0.570 0.304 Q0.012 0.670 0.604 1.022" stroke="hsl(0.0,100%,35%)" stroke-width="0.00031"></path>
<path d="M0.570 0.304 Q0.540 0.262 0.452 0.267" stroke="hsl(0.0,100%,35%)" stroke-width="0.00015"></path>
<path d="M0.570 0.304 Q0.697 0.215 0.552 0.134" stroke="hsl(0.0,100%,35%)" stroke-width="0.00038"></path>
<path d="M0.636 0.333 Q0.444 0.328 0.394 0.421" stroke="hsl(0.0,100%,35%)" stroke-width="0.01107"></path>
<path d="M0.636 0.333 Q0.626 0.305 0.570 0.304" stroke="hsl(0.0,100%,35%)" stroke-width="0.00504"></path>
<path d="M0.636 0.333 Q0.393 0.254 0.187 0.356" stroke="hsl(0.0,100%,35%)" stroke-width="0.00122"></path>
<path d="M0.636 0.333 Q0.712 0.266 0.598 0.214" stroke="hsl(0.0,100%,35%)" stroke-width="0.00328"></path>
<path d="M0.636 0.333 Q0.310 0.662 0.881 0.894" stroke="hsl(0.0,100%,35%)" stroke-width="0.00046"></path>
<path d="M0.636 0.333 Q0.530 0.237 0.319 0.268" stroke="hsl(0.0,100%,35%)" stroke-width="0.01955"></path>
<path d="M0.636 0.333 Q0.206 0.714 0.855 1.007" stroke="hsl(0.0,100%,35%)" stroke-width="0.00038"></path>
<path d="M0.636 0.333 Q0.753 0.216 0.552 0.134" stroke="hsl(0.0,100%,35%)" stroke-width="0.00153"></path>
<path d="M0.636 0.333 Q0.596 0.263 0.452 0.267" stroke="hsl(0.0,100%,35%)" stroke-width="0.00046"></path>
<path d="M1.112 1.011 Q0.986 0.958 0.855 1.007" stroke="hsl(180.0,100%,35%)" stroke-width="0.00397"></path>
<path d="M1.112 1.011 Q1.089 0.906 0.881 0.894" stroke="hsl(180.0,100%,35%)" stroke-width="0.00618"></path>
<path d="M1.112 1.011 Q0.848 0.915 0.604 1.022" stroke="hsl(180.0,100%,35%)" stroke-width="0.00359"></path>
<path d="M1.112 1.011 Q1.158 0.791 0.739 0.720" stroke="hsl(180.0,100%,35%)" stroke-width="0.00031"></path>
<path d="M1.112 1.011 Q1.224 0.572 0.394 0.421" stroke="hsl(180.0,100%,35%)" stroke-width="0.00046"></path>
<path d="M1.112 1.011 Q1.092 0.819 0.714 0.787" stroke="hsl(180.0,100%,35%)" stroke-width="0.00038"></path>
<path d="M1.112 1.011 Q1.406 0.549 0.570 0.304" stroke="hsl(180.0,100%,35%)" stroke-width="0.00015"></path>
<path d="M1.009 0.761 Q0.838 0.802 0.881 0.894" stroke="hsl(180.0,100%,35%)" stroke-width="0.00176"></path>
<path d="M1.009 0.761 Q0.735 0.853 0.855 1.007" stroke="hsl(180.0,100%,35%)" stroke-width="0.00015"></path>
<path d="M1.009 0.761 Q0.922 0.394 0.187 0.356" stroke="hsl(180.0,100%,35%)" stroke-width="0.00015"></path>
<path d="M1.009 0.761 Q0.597 0.811 0.604 1.022" stroke="hsl(180.0,100%,35%)" stroke-width="0.00031"></path>
<path d="M1.009 0.761 Q0.973 0.468 0.394 0.421" stroke="hsl(180.0,100%,35%)" stroke-width="0.00015"></path>
<path d="M0.647 1.126 Q0.846 1.108 0.855 1.007" stroke="hsl(180.0,100%,35%)" stroke-width="0.00191"></path>
<path d="M0.647 1.126 Q0.949 1.057 0.881 0.894" stroke="hsl(180.0,100%,35%)" stroke-width="0.00015"></path>
<path d="M0.647 1.126 Q1.084 0.723 0.394 0.421" stroke="hsl(180.0,100%,35%)" stroke-width="0.00053"></path>
<path d="M1.065 1.159 Q1.081 1.041 0.855 1.007" stroke="hsl(180.0,100%,35%)" stroke-width="0.00015"></path>
<path d="M1.065 1.159 Q0.944 0.998 0.604 1.022" stroke="hsl(180.0,100%,35%)" stroke-width="0.00015"></path>
<path d="M0.714 0.787 Q0.712 0.874 0.881 0.894" stroke="hsl(180.0,100%,35%)" stroke-width="0.00664"></path>
<path d="M0.714 0.787 Q0.743 0.938 1.043 0.957" stroke="hsl(180.0,100%,35%)" stroke-width="0.00160"></path>
<path d="M0.714 0.787 Q0.932 0.448 0.319 0.268" stroke="hsl(180.0,100%,35%)" stroke-width="0.00023"></path>
<path d="M0.714 0.787 Q1.028 0.517 0.570 0.304" stroke="hsl(180.0,100%,35%)" stroke-width="0.00015"></path>
<path d="M0.714 0.787 Q0.471 0.883 0.604 1.022" stroke="hsl(180.0,100%,35%)" stroke-width="0.00076"></path>
<path d="M0.714 0.787 Q0.734 0.978 1.112 1.011" stroke="hsl(180.0,100%,35%)" stroke-width="0.00015"></path>
<path d="M0.714 0.787 Q0.780 0.758 0.739 0.720" stroke="hsl(180.0,100%,35%)" stroke-width="0.00099"></path>
<path d="M0.714 0.787 Q0.847 0.540 0.394 0.421" stroke="hsl(180.0,100%,35%)" stroke-width="0.00069"></path>
<path d="M0.714 0.787 Q0.608 0.925 0.855 1.007" stroke="hsl(180.0,100%,35%)" stroke-width="0.00153"></path>
<path d="M0.714 0.787 Q1.156 0.428 0.552 0.134" stroke="hsl(180.0,100%,35%)" stroke-width="0.00015"></path>
<path d="M0.632 0.809 Q0.688 0.901 0.881 0.894" stroke="hsl(180.0,100%,35%)" stroke-width="0.00015"></path>
<path d="M1.285 0.931 Q1.113 0.832 0.881 0.894" stroke="hsl(180.0,100%,35%)" stroke-width="0.00794"></path>
<path d="M1.285 0.931 Q1.009 0.883 0.855 1.007" stroke="hsl(180.0,100%,35%)" stroke-width="0.00855"></path>
<path d="M1.285 0.931 Q0.872 0.840 0.604 1.022" stroke="hsl(180.0,100%,35%)" stroke-width="0.00282"></path>
<path d="M1.285 0.931 Q0.998 0.808 0.694 0.921" stroke="hsl(180.0,100%,35%)" stroke-width="0.00061"></path>
<path d="M1.043 0.957 Q1.147 0.559 0.394 0.421" stroke="hsl(180.0,100%,35%)" stroke-width="0.00741"></path>
<path d="M1.043 0.957 Q1.012 0.893 0.881 0.894" stroke="hsl(180.0,100%,35%)" stroke-width="0.00893"></path>
<path d="M1.043 0.957 Q1.232 0.467 0.319 0.268" stroke="hsl(180.0,100%,35%)" stroke-width="0.00053"></path>
<path d="M1.043 0.957 Q1.081 0.777 0.739 0.720" stroke="hsl(180.0,100%,35%)" stroke-width="0.00031"></path>
<path d="M1.043 0.957 Q1.257 0.930 1.252 0.820" stroke="hsl(180.0,100%,35%)" stroke-width="0.00015"></path>
<path d="M1.043 0.957 Q0.909 0.944 0.855 1.007" stroke="hsl(180.0,100%,35%)" stroke-width="0.00573"></path>
<path d="M1.043 0.957 Q0.771 0.902 0.604 1.022" stroke="hsl(180.0,100%,35%)" stroke-width="0.00099"></path>
<path d="M1.043 0.957 Q1.339 0.563 0.636 0.333" stroke="hsl(180.0,100%,35%)" stroke-width="0.00023"></path>
<path d="M1.043 0.957 Q1.329 0.536 0.570 0.304" stroke="hsl(180.0,100%,35%)" stroke-width="0.00023"></path>
<path d="M0.694 0.921 Q0.706 0.996 0.855 1.007" stroke="hsl(180.0,100%,35%)" stroke-width="0.02390"></path>
<path d="M0.694 0.921 Q0.809 0.945 0.881 0.894" stroke="hsl(180.0,100%,35%)" stroke-width="0.02168"></path>
<path d="M0.694 0.921 Q0.944 0.611 0.394 0.421" stroke="hsl(180.0,100%,35%)" stroke-width="0.00244"></path>
<path d="M0.694 0.921 Q0.877 0.829 0.739 0.720" stroke="hsl(180.0,100%,35%)" stroke-width="0.00023"></path>
<path d="M0.694 0.921 Q1.125 0.587 0.570 0.304" stroke="hsl(180.0,100%,35%)" stroke-width="0.00015"></path>
<path d="M0.694 0.921 Q0.831 1.049 1.112 1.011" stroke="hsl(180.0,100%,35%)" stroke-width="0.00031"></path>
<path d="M0.694 0.921 Q1.253 0.499 0.552 0.134" stroke="hsl(180.0,100%,35%)" stroke-width="0.00031"></path>
<path d="M0.694 0.921 Q1.136 0.615 0.636 0.333" stroke="hsl(180.0,100%,35%)" stroke-width="0.00053"></path>
<path d="M0.694 0.921 Q0.977 0.886 0.972 0.741" stroke="hsl(180.0,100%,35%)" stroke-width="0.00031"></path>
<path d="M0.694 0.921 Q1.129 0.508 0.418 0.205" stroke="hsl(180.0,100%,35%)" stroke-width="0.00015"></path>
<path d="M0.694 0.921 Q1.192 0.940 1.338 0.701" stroke="hsl(180.0,100%,35%)" stroke-width="0.00015"></path>
<path d="M0.694 0.921 Q0.568 0.953 0.604 1.022" stroke="hsl(180.0,100%,35%)" stroke-width="0.00443"></path>
<path d="M0.694 0.921 Q0.840 1.009 1.043 0.957" stroke="hsl(180.0,100%,35%)" stroke-width="0.00023"></path>
<path d="M0.694 0.921 Q0.944 0.885 0.929 0.755" stroke="hsl(180.0,100%,35%)" stroke-width="0.00023"></path>
<path d="M1.128 0.791 Q0.819 0.845 0.855 1.007" stroke="hsl(180.0,100%,35%)" stroke-width="0.00412"></path>
<path d="M1.128 0.791 Q0.922 0.793 0.881 0.894" stroke="hsl(180.0,100%,35%)" stroke-width="0.00428"></path>
<path d="M1.128 0.791 Q1.057 0.459 0.394 0.421" stroke="hsl(180.0,100%,35%)" stroke-width="0.00191"></path>
<path d="M1.128 0.791 Q0.681 0.802 0.604 1.022" stroke="hsl(180.0,100%,35%)" stroke-width="0.00122"></path>
<path d="M1.128 0.791 Q1.305 0.788 1.338 0.701" stroke="hsl(180.0,100%,35%)" stroke-width="0.00076"></path>
<path d="M0.418 0.205 Q-0.005 0.694 0.855 1.007" stroke="hsl(180.0,100%,35%)" stroke-width="0.00275"></path>
<path d="M0.418 0.205 Q0.098 0.642 0.881 0.894" stroke="hsl(180.0,100%,35%)" stroke-width="0.00244"></path>
<path d="M0.418 0.205 Q0.542 0.196 0.552 0.134" stroke="hsl(180.0,100%,35%)" stroke-width="0.00023"></path>
<path d="M0.418 0.205 Q0.182 0.234 0.187 0.356" stroke="hsl(180.0,100%,35%)" stroke-width="0.00031"></path>
<path d="M0.418 0.205 Q0.233 0.308 0.394 0.421" stroke="hsl(180.0,100%,35%)" stroke-width="0.00344"></path>
<path d="M0.418 0.205 Q0.318 0.216 0.319 0.268" stroke="hsl(180.0,100%,35%)" stroke-width="0.00031"></path>
<path d="M0.418 0.205 Q0.425 0.313 0.636 0.333" stroke="hsl(180.0,100%,35%)" stroke-width="0.00015"></path>
<path d="M0.418 0.205 Q-0.143 0.651 0.604 1.022" stroke="hsl(180.0,100%,35%)" stroke-width="0.00046"></path>
<path d="M0.418 0.205 Q-0.016 0.618 0.694 0.921" stroke="hsl(180.0,100%,35%)" stroke-width="0.00023"></path>
<path d="M0.452 0.267 Q0.300 0.333 0.394 0.421" stroke="hsl(0.0,100%,35%)" stroke-width="0.00275"></path>
<path d="M0.452 0.267 Q0.249 0.259 0.187 0.356" stroke="hsl(0.0,100%,35%)" stroke-width="0.00115"></path>
<path d="M0.452 0.267 Q0.481 0.309 0.570 0.304" stroke="hsl(0.0,100%,35%)" stroke-width="0.00053"></path>
<path d="M0.452 0.267 Q-0.076 0.675 0.604 1.022" stroke="hsl(0.0,100%,35%)" stroke-width="0.00015"></path>
<path d="M0.452 0.267 Q0.385 0.241 0.319 0.268" stroke="hsl(0.0,100%,35%)" stroke-width="0.00267"></path>
<path d="M0.452 0.267 Q0.492 0.337 0.636 0.333" stroke="hsl(0.0,100%,35%)" stroke-width="0.00130"></path>
<path d="M0.452 0.267 Q0.609 0.220 0.552 0.134" stroke="hsl(0.0,100%,35%)" stroke-width="0.00015"></path>
<path d="M0.812 0.891 Q0.741 0.958 0.855 1.007" stroke="hsl(180.0,100%,35%)" stroke-width="0.00290"></path>
<path d="M0.812 0.891 Q0.603 0.915 0.604 1.022" stroke="hsl(180.0,100%,35%)" stroke-width="0.00031"></path>
<path d="M0.812 0.891 Q0.844 0.906 0.881 0.894" stroke="hsl(180.0,100%,35%)" stroke-width="0.00130"></path>
<path d="M0.812 0.891 Q0.912 0.791 0.739 0.720" stroke="hsl(180.0,100%,35%)" stroke-width="0.00023"></path>
<path d="M1.034 0.890 Q0.851 0.913 0.855 1.007" stroke="hsl(180.0,100%,35%)" stroke-width="0.00168"></path>
<path d="M1.034 0.890 Q0.954 0.861 0.881 0.894" stroke="hsl(180.0,100%,35%)" stroke-width="0.00031"></path>
<path d="M1.338 0.701 Q0.955 0.706 0.881 0.894" stroke="hsl(180.0,100%,35%)" stroke-width="0.00069"></path>
<path d="M1.338 0.701 Q0.852 0.758 0.855 1.007" stroke="hsl(180.0,100%,35%)" stroke-width="0.00130"></path>
<path d="M1.338 0.701 Q0.714 0.715 0.604 1.022" stroke="hsl(180.0,100%,35%)" stroke-width="0.00046"></path>
<path d="M0.538 0.940 Q0.746 0.985 0.881 0.894" stroke="hsl(180.0,100%,35%)" stroke-width="0.00214"></path>
<path d="M0.538 0.940 Q0.643 1.037 0.855 1.007" stroke="hsl(180.0,100%,35%)" stroke-width="0.00229"></path>
<path d="M0.538 0.940 Q1.129 0.980 1.338 0.701" stroke="hsl(180.0,100%,35%)" stroke-width="0.00053"></path>
<path d="M0.538 0.940 Q0.505 0.994 0.604 1.022" stroke="hsl(180.0,100%,35%)" stroke-width="0.00130"></path>
<path d="M0.929 0.755 Q0.794 0.815 0.881 0.894" stroke="hsl(180.0,100%,35%)" stroke-width="0.00512"></path>
<path d="M0.929 0.755 Q0.691 0.866 0.855 1.007" stroke="hsl(180.0,100%,35%)" stroke-width="0.00496"></path>
<path d="M0.929 0.755 Q1.177 0.810 1.338 0.701" stroke="hsl(180.0,100%,35%)" stroke-width="0.00046"></path>
<path d="M0.929 0.755 Q0.553 0.824 0.604 1.022" stroke="hsl(180.0,100%,35%)" stroke-width="0.00092"></path>
<path d="M0.778 0.630 Q0.619 0.783 0.881 0.894" stroke="hsl(180.0,100%,35%)" stroke-width="0.00351"></path>
<path d="M0.778 0.630 Q0.834 0.605 0.798 0.573" stroke="hsl(180.0,100%,35%)" stroke-width="0.00015"></path>
<path d="M0.778 0.630 Q0.378 0.791 0.604 1.022" stroke="hsl(180.0,100%,35%)" stroke-width="0.00023"></path>
<path d="M0.439 0.827 Q0.365 0.957 0.604 1.022" stroke="hsl(180.0,100%,35%)" stroke-width="0.00023"></path>
<path d="M1.075 0.685 Q0.707 0.802 0.855 1.007" stroke="hsl(180.0,100%,35%)" stroke-width="0.00053"></path>
<path d="M1.075 0.685 Q0.811 0.751 0.881 0.894" stroke="hsl(180.0,100%,35%)" stroke-width="0.00023"></path>
<path d="M0.972 0.741 Q0.804 0.799 0.881 0.894" stroke="hsl(180.0,100%,35%)" stroke-width="0.00763"></path>
<path d="M0.972 0.741 Q0.701 0.851 0.855 1.007" stroke="hsl(180.0,100%,35%)" stroke-width="0.00344"></path>
<path d="M0.972 0.741 Q0.939 0.465 0.394 0.421" stroke="hsl(180.0,100%,35%)" stroke-width="0.00015"></path>
<path d="M1.083 0.886 Q0.872 0.901 0.855 1.007" stroke="hsl(180.0,100%,35%)" stroke-width="0.00107"></path>
<path d="M1.083 0.886 Q0.975 0.849 0.881 0.894" stroke="hsl(180.0,100%,35%)" stroke-width="0.00229"></path>
<path d="M1.067 1.077 Q1.017 1.000 0.855 1.007" stroke="hsl(180.0,100%,35%)" stroke-width="0.00115"></path>
<path d="M1.067 1.077 Q1.121 0.948 0.881 0.894" stroke="hsl(180.0,100%,35%)" stroke-width="0.00084"></path>
<path d="M1.067 1.077 Q0.880 0.957 0.604 1.022" stroke="hsl(180.0,100%,35%)" stroke-width="0.00023"></path>
<path d="M1.162 0.771 Q0.820 0.828 0.855 1.007" stroke="hsl(180.0,100%,35%)" stroke-width="0.00687"></path>
<path d="M1.162 0.771 Q0.923 0.776 0.881 0.894" stroke="hsl(180.0,100%,35%)" stroke-width="0.00481"></path>
<path d="M1.162 0.771 Q0.682 0.785 0.604 1.022" stroke="hsl(180.0,100%,35%)" stroke-width="0.00099"></path>
<path d="M1.162 0.771 Q0.808 0.753 0.694 0.921" stroke="hsl(180.0,100%,35%)" stroke-width="0.00069"></path>
<path d="M1.140 1.378 Q1.398 1.084 0.881 0.894" stroke="hsl(180.0,100%,35%)" stroke-width="0.00038"></path>
<path d="M1.140 1.378 Q1.295 1.136 0.855 1.007" stroke="hsl(180.0,100%,35%)" stroke-width="0.00023"></path>
<path d="M0.650 1.058 Q0.782 0.998 0.694 0.921" stroke="hsl(180.0,100%,35%)" stroke-width="0.00023"></path>
<path d="M0.650 1.058 Q0.896 1.022 0.881 0.894" stroke="hsl(180.0,100%,35%)" stroke-width="0.00031"></path>
<path d="M0.650 1.058 Q0.793 1.073 0.855 1.007" stroke="hsl(180.0,100%,35%)" stroke-width="0.00015"></path>
<path d="M0.650 1.058 Q1.279 1.017 1.338 0.701" stroke="hsl(180.0,100%,35%)" stroke-width="0.00015"></path>
<path d="M1.028 1.043 Q0.970 0.991 0.855 1.007" stroke="hsl(180.0,100%,35%)" stroke-width="0.00031"></path>
<path d="M1.030 0.938 Q0.887 0.937 0.855 1.007" stroke="hsl(180.0,100%,35%)" stroke-width="0.00428"></path>
<path d="M1.030 0.938 Q0.990 0.886 0.881 0.894" stroke="hsl(180.0,100%,35%)" stroke-width="0.00328"></path>
<path d="M1.030 0.938 Q0.876 0.862 0.694 0.921" stroke="hsl(180.0,100%,35%)" stroke-width="0.00015"></path>
<path d="M1.030 0.938 Q0.750 0.895 0.604 1.022" stroke="hsl(180.0,100%,35%)" stroke-width="0.00092"></path>
<path d="M1.162 0.820 Q1.182 0.375 0.319 0.268" stroke="hsl(180.0,100%,35%)" stroke-width="0.00092"></path>
<path d="M1.162 0.820 Q0.859 0.852 0.855 1.007" stroke="hsl(180.0,100%,35%)" stroke-width="0.00145"></path>
<path d="M1.162 0.820 Q1.289 0.471 0.636 0.333" stroke="hsl(180.0,100%,35%)" stroke-width="0.00038"></path>
<path d="M1.162 0.820 Q0.962 0.801 0.881 0.894" stroke="hsl(180.0,100%,35%)" stroke-width="0.00137"></path>
<path d="M1.162 0.820 Q0.847 0.777 0.694 0.921" stroke="hsl(180.0,100%,35%)" stroke-width="0.00023"></path>
<path d="M1.037 0.707 Q0.707 0.821 0.855 1.007" stroke="hsl(180.0,100%,35%)" stroke-width="0.00015"></path>
<path d="M1.037 0.707 Q0.810 0.769 0.881 0.894" stroke="hsl(180.0,100%,35%)" stroke-width="0.00023"></path>
<path d="M1.045 0.655 Q0.668 0.793 0.855 1.007" stroke="hsl(180.0,100%,35%)" stroke-width="0.00053"></path>
<path d="M1.045 0.655 Q0.771 0.742 0.881 0.894" stroke="hsl(180.0,100%,35%)" stroke-width="0.00092"></path>
<path d="M1.045 0.655 Q0.530 0.750 0.604 1.022" stroke="hsl(180.0,100%,35%)" stroke-width="0.00031"></path>
<path d="M0.625 0.766 Q0.650 0.881 0.881 0.894" stroke="hsl(180.0,100%,35%)" stroke-width="0.00053"></path>
<path d="M0.625 0.766 Q0.547 0.932 0.855 1.007" stroke="hsl(180.0,100%,35%)" stroke-width="0.00084"></path>
<path d="M0.625 0.766 Q0.870 0.455 0.319 0.268" stroke="hsl(180.0,100%,35%)" stroke-width="0.00038"></path>
<path d="M0.625 0.766 Q0.409 0.890 0.604 1.022" stroke="hsl(180.0,100%,35%)" stroke-width="0.00092"></path>
<path d="M0.970 0.763 Q0.821 0.811 0.881 0.894" stroke="hsl(180.0,100%,35%)" stroke-width="0.00015"></path>
<path d="M0.970 0.763 Q0.718 0.862 0.855 1.007" stroke="hsl(180.0,100%,35%)" stroke-width="0.00031"></path>
<path d="M0.690 0.163 Q0.644 0.120 0.552 0.134" stroke="hsl(0.0,100%,35%)" stroke-width="0.00122"></path>
<path d="M0.690 0.163 Q0.487 0.167 0.452 0.267" stroke="hsl(0.0,100%,35%)" stroke-width="0.00092"></path>
<path d="M0.690 0.163 Q0.527 0.237 0.636 0.333" stroke="hsl(0.0,100%,35%)" stroke-width="0.00450"></path>
<path d="M1.252 0.820 Q1.142 0.449 0.394 0.421" stroke="hsl(180.0,100%,35%)" stroke-width="0.00038"></path>
<path d="M1.252 0.820 Q1.075 0.667 0.739 0.720" stroke="hsl(180.0,100%,35%)" stroke-width="0.00046"></path>
<path d="M1.252 0.820 Q0.904 0.834 0.855 1.007" stroke="hsl(180.0,100%,35%)" stroke-width="0.00015"></path>
<path d="M1.252 0.820 Q1.029 0.887 1.112 1.011" stroke="hsl(180.0,100%,35%)" stroke-width="0.00038"></path>
<path d="M1.252 0.820 Q1.007 0.783 0.881 0.894" stroke="hsl(180.0,100%,35%)" stroke-width="0.00191"></path>
<path d="M1.252 0.820 Q1.038 0.847 1.043 0.957" stroke="hsl(180.0,100%,35%)" stroke-width="0.00092"></path>
<path d="M1.252 0.820 Q1.091 0.375 0.187 0.356" stroke="hsl(180.0,100%,35%)" stroke-width="0.00015"></path>
<path d="M1.053 0.754 Q0.752 0.841 0.855 1.007" stroke="hsl(180.0,100%,35%)" stroke-width="0.00038"></path>
<path d="M1.053 0.754 Q0.855 0.790 0.881 0.894" stroke="hsl(180.0,100%,35%)" stroke-width="0.00023"></path>
<path d="M0.669 0.821 Q0.885 0.842 0.972 0.741" stroke="hsl(180.0,100%,35%)" stroke-width="0.00221"></path>
<path d="M0.669 0.821 Q0.613 0.951 0.855 1.007" stroke="hsl(180.0,100%,35%)" stroke-width="0.00344"></path>
<path d="M0.669 0.821 Q0.717 0.900 0.881 0.894" stroke="hsl(180.0,100%,35%)" stroke-width="0.00435"></path>
<path d="M0.669 0.821 Q0.785 0.784 0.739 0.720" stroke="hsl(180.0,100%,35%)" stroke-width="0.00015"></path>
<path d="M1.048 0.718 Q0.824 0.772 0.881 0.894" stroke="hsl(180.0,100%,35%)" stroke-width="0.00092"></path>
<path d="M1.048 0.718 Q0.892 0.657 0.739 0.720" stroke="hsl(180.0,100%,35%)" stroke-width="0.00031"></path>
<path d="M1.048 0.718 Q0.958 0.439 0.394 0.421" stroke="hsl(180.0,100%,35%)" stroke-width="0.00023"></path>
<path d="M1.048 0.718 Q0.720 0.824 0.855 1.007" stroke="hsl(180.0,100%,35%)" stroke-width="0.00084"></path>
<path d="M0.986 0.656 Q0.743 0.754 0.881 0.894" stroke="hsl(180.0,100%,35%)" stroke-width="0.00176"></path>
<path d="M0.986 0.656 Q0.640 0.805 0.855 1.007" stroke="hsl(180.0,100%,35%)" stroke-width="0.00031"></path>
<path d="M0.986 0.656 Q0.811 0.638 0.739 0.720" stroke="hsl(180.0,100%,35%)" stroke-width="0.00015"></path>
<path d="M0.911 0.719 Q0.756 0.801 0.881 0.894" stroke="hsl(180.0,100%,35%)" stroke-width="0.00069"></path>
<path d="M0.911 0.719 Q0.653 0.852 0.855 1.007" stroke="hsl(180.0,100%,35%)" stroke-width="0.00046"></path>
<path d="M0.911 0.719 Q0.892 0.741 0.929 0.755" stroke="hsl(180.0,100%,35%)" stroke-width="0.00046"></path>
<path d="M0.911 0.719 Q1.139 0.796 1.338 0.701" stroke="hsl(180.0,100%,35%)" stroke-width="0.00015"></path>
<path d="M0.769 0.131 Q0.111 0.586 0.855 1.007" stroke="hsl(180.0,100%,35%)" stroke-width="0.00023"></path>
<path d="M0.293 0.956 Q0.533 1.094 0.855 1.007" stroke="hsl(180.0,100%,35%)" stroke-width="0.00015"></path>
<path d="M0.750 0.678 Q0.642 0.812 0.881 0.894" stroke="hsl(180.0,100%,35%)" stroke-width="0.00031"></path>
<path d="M0.750 0.678 Q0.539 0.863 0.855 1.007" stroke="hsl(180.0,100%,35%)" stroke-width="0.00031"></path>
<path d="M0.750 0.678 Q0.885 0.714 0.986 0.656" stroke="hsl(180.0,100%,35%)" stroke-width="0.00015"></path>
<path d="M0.547 0.649 Q0.277 0.847 0.604 1.022" stroke="hsl(180.0,100%,35%)" stroke-width="0.00015"></path>
<path d="M1.594 0.339 Q1.237 0.028 0.552 0.134" stroke="hsl(0.0,100%,35%)" stroke-width="0.00023"></path>
<path d="M1.594 0.339 Q1.562 0.262 1.405 0.260" stroke="hsl(0.0,100%,35%)" stroke-width="0.00015"></path>
<path d="M0.200 0.417 Q0.294 0.458 0.394 0.421" stroke="hsl(0.0,100%,35%)" stroke-width="0.00084"></path>
<path d="M0.200 0.417 Q0.159 0.792 0.881 0.894" stroke="hsl(0.0,100%,35%)" stroke-width="0.00015"></path>
<path d="M0.651 0.791 Q0.580 0.940 0.855 1.007" stroke="hsl(180.0,100%,35%)" stroke-width="0.00053"></path>
<path d="M0.651 0.791 Q0.683 0.888 0.881 0.894" stroke="hsl(180.0,100%,35%)" stroke-width="0.00031"></path>
<path d="M0.651 0.791 Q0.442 0.897 0.604 1.022" stroke="hsl(180.0,100%,35%)" stroke-width="0.00031"></path>
<path d="M0.862 0.151 Q0.277 0.526 0.881 0.894" stroke="hsl(0.0,100%,35%)" stroke-width="0.00023"></path>
<path d="M0.862 0.151 Q0.593 0.169 0.570 0.304" stroke="hsl(0.0,100%,35%)" stroke-width="0.00031"></path>
<path d="M1.162 0.758 Q0.809 0.821 0.855 1.007" stroke="hsl(180.0,100%,35%)" stroke-width="0.00092"></path>
<path d="M1.162 0.758 Q0.913 0.770 0.881 0.894" stroke="hsl(180.0,100%,35%)" stroke-width="0.00076"></path>
<path d="M1.162 0.758 Q0.798 0.746 0.694 0.921" stroke="hsl(180.0,100%,35%)" stroke-width="0.00023"></path>
<path d="M1.254 0.862 Q1.041 0.803 0.881 0.894" stroke="hsl(180.0,100%,35%)" stroke-width="0.00015"></path>
<path d="M1.254 0.862 Q0.938 0.855 0.855 1.007" stroke="hsl(180.0,100%,35%)" stroke-width="0.00015"></path>
<path d="M0.702 0.742 Q0.567 0.905 0.855 1.007" stroke="hsl(180.0,100%,35%)" stroke-width="0.00023"></path>
<path d="M0.606 0.725 Q0.505 0.916 0.855 1.007" stroke="hsl(180.0,100%,35%)" stroke-width="0.00069"></path>
<path d="M0.575 1.106 Q0.897 1.061 0.881 0.894" stroke="hsl(180.0,100%,35%)" stroke-width="0.00031"></path>
<path d="M0.575 1.106 Q0.794 1.113 0.855 1.007" stroke="hsl(180.0,100%,35%)" stroke-width="0.00046"></path>
<path d="M0.434 1.196 Q0.796 1.186 0.855 1.007" stroke="hsl(0.0,100%,35%)" stroke-width="0.00023"></path>
<path d="M0.910 0.695 Q0.633 0.840 0.855 1.007" stroke="hsl(180.0,100%,35%)" stroke-width="0.00023"></path>
<path d="M0.910 0.695 Q0.736 0.788 0.881 0.894" stroke="hsl(180.0,100%,35%)" stroke-width="0.00023"></path>
<path d="M1.113 0.739 Q0.770 0.822 0.855 1.007" stroke="hsl(180.0,100%,35%)" stroke-width="0.00015"></path>
<path d="M0.579 0.788 Q0.542 0.953 0.855 1.007" stroke="hsl(180.0,100%,35%)" stroke-width="0.00053"></path>
<path d="M0.579 0.788 Q0.530 0.877 0.694 0.921" stroke="hsl(180.0,100%,35%)" stroke-width="0.00031"></path>
<path d="M0.579 0.788 Q0.645 0.901 0.881 0.894" stroke="hsl(180.0,100%,35%)" stroke-width="0.00015"></path>
<path d="M0.605 0.696 Q0.470 0.826 0.694 0.921" stroke="hsl(180.0,100%,35%)" stroke-width="0.00023"></path>
<path d="M0.605 0.696 Q0.584 0.850 0.881 0.894" stroke="hsl(180.0,100%,35%)" stroke-width="0.00015"></path>
<path d="M0.605 0.696 Q0.481 0.901 0.855 1.007" stroke="hsl(180.0,100%,35%)" stroke-width="0.00023"></path>
<path d="M1.111 0.758 Q0.784 0.832 0.855 1.007" stroke="hsl(180.0,100%,35%)" stroke-width="0.00023"></path>
<path d="M1.111 0.758 Q0.887 0.780 0.881 0.894" stroke="hsl(180.0,100%,35%)" stroke-width="0.00023"></path>
</g>
<text x="0.642" y="0.143" font-size="0.008889" fill="hsl(0.0,100%,20%)">afdx</text>
<text x="0.394" y="0.378" font-size="0.086452" fill="hsl(0.0,100%,20%)">bclayton</text>
<text x="0.552" y="0.117" font-size="0.032889" fill="hsl(0.0,100%,20%)">rharrison</text>
<text x="0.187" y="0.335" font-size="0.041949" fill="hsl(0.0,100%,20%)">amaiorano</text>
<text x="0.762" y="0.057" font-size="0.005872" fill="hsl(0.0,100%,20%)">vasniktel</text>
<text x="0.666" y="1.106" font-size="0.004642" fill="hsl(180.0,100%,20%)">albin.bernhardsson</text>
<text x="0.855" y="0.969" font-size="0.076490" fill="hsl(180.0,100%,20%)">cwallez</text>
<text x="0.881" y="0.856" font-size="0.075049" fill="hsl(180.0,100%,20%)">enga</text>
<text x="0.319" y="0.235" font-size="0.065361" fill="hsl(0.0,100%,20%)">dsinclair</text>
<text x="0.604" y="1.004" font-size="0.036980" fill="hsl(180.0,100%,20%)">kainino</text>
<text x="0.778" y="0.734" font-size="0.003596" fill="hsl(180.0,100%,20%)">aleksi</text>
<text x="0.512" y="0.728" font-size="0.003390" fill="hsl(180.0,100%,20%)">aleksi.sapon</text>
<text x="0.739" y="0.704" font-size="0.031116" fill="hsl(180.0,100%,20%)">lokokung</text>
<text x="0.570" y="0.280" font-size="0.048031" fill="hsl(0.0,100%,20%)">jrprice</text>
<text x="0.636" y="0.310" font-size="0.046015" fill="hsl(0.0,100%,20%)">dneto</text>
<text x="0.598" y="0.210" font-size="0.008304" fill="hsl(0.0,100%,20%)">alanbaker</text>
<text x="1.112" y="1.000" font-size="0.021805" fill="hsl(180.0,100%,20%)">bajones</text>
<text x="0.079" y="0.858" font-size="0.001199" fill="hsl(0.0,100%,20%)">sugoi</text>
<text x="0.086" y="2.187" font-size="0.001199" fill="hsl(0.0,100%,20%)">armansito</text>
<text x="1.009" y="0.757" font-size="0.007388" fill="hsl(180.0,100%,20%)">ynovikov</text>
<text x="0.476" y="-2.683" font-size="0.002397" fill="hsl(0.0,100%,20%)">andre</text>
<text x="0.647" y="1.122" font-size="0.007388" fill="hsl(180.0,100%,20%)">arthursonzogni</text>
<text x="0.581" y="0.756" font-size="0.001199" fill="hsl(180.0,100%,20%)">khaslett</text>
<text x="1.065" y="1.157" font-size="0.003390" fill="hsl(180.0,100%,20%)">austineng</text>
<text x="0.714" y="0.778" font-size="0.018137" fill="hsl(180.0,100%,20%)">shrekshao</text>
<text x="0.632" y="0.807" font-size="0.002397" fill="hsl(180.0,100%,20%)">avi</text>
<text x="1.285" y="0.921" font-size="0.020055" fill="hsl(180.0,100%,20%)">yunchao.he</text>
<text x="1.279" y="0.178" font-size="0.001199" fill="hsl(180.0,100%,20%)">headlessclayton</text>
<text x="0.384" y="0.482" font-size="0.001695" fill="hsl(0.0,100%,20%)">brucedawson</text>
<text x="1.043" y="0.942" font-size="0.029819" fill="hsl(180.0,100%,20%)">senorblanco</text>
<text x="0.134" y="0.464" font-size="0.001199" fill="hsl(0.0,100%,20%)">kjlubick</text>
<text x="0.694" y="0.903" font-size="0.035209" fill="hsl(180.0,100%,20%)">jiawei.shao</text>
<text x="1.128" y="0.784" font-size="0.015673" fill="hsl(180.0,100%,20%)">brandon1.jones</text>
<text x="0.418" y="0.198" font-size="0.014382" fill="hsl(180.0,100%,20%)">zhaoming.jiang</text>
<text x="0.452" y="0.259" font-size="0.016950" fill="hsl(0.0,100%,20%)">sarahmashay</text>
<text x="0.859" y="0.083" font-size="0.002076" fill="hsl(0.0,100%,20%)">allydonaldson</text>
<text x="0.812" y="0.886" font-size="0.009737" fill="hsl(180.0,100%,20%)">beaufort.francois</text>
<text x="1.034" y="0.887" font-size="0.006454" fill="hsl(180.0,100%,20%)">blundell</text>
<text x="1.029" y="1.117" font-size="0.001199" fill="hsl(180.0,100%,20%)">nicolettep</text>
<text x="1.338" y="0.696" font-size="0.009810" fill="hsl(180.0,100%,20%)">rafael.cintron</text>
<text x="0.538" y="0.934" font-size="0.010985" fill="hsl(180.0,100%,20%)">natlee</text>
<text x="0.929" y="0.747" font-size="0.015535" fill="hsl(180.0,100%,20%)">bryan.bernhart</text>
<text x="0.778" y="0.626" font-size="0.009128" fill="hsl(180.0,100%,20%)">bsheedy</text>
<text x="0.798" y="0.572" font-size="0.001695" fill="hsl(180.0,100%,20%)">gbeaty</text>
<text x="0.321" y="0.733" font-size="0.002076" fill="hsl(180.0,100%,20%)">capn</text>
<text x="0.439" y="0.825" font-size="0.002680" fill="hsl(180.0,100%,20%)">ccameron</text>
<text x="1.075" y="0.683" font-size="0.003975" fill="hsl(180.0,100%,20%)">cjj19970505</text>
<text x="1.150" y="0.631" font-size="0.001199" fill="hsl(180.0,100%,20%)">fhorschig</text>
<text x="0.727" y="1.509" font-size="0.001199" fill="hsl(180.0,100%,20%)">jamesgk</text>
<text x="0.972" y="0.733" font-size="0.016607" fill="hsl(180.0,100%,20%)">penghuang</text>
<text x="1.083" y="0.881" font-size="0.008725" fill="hsl(180.0,100%,20%)">lehoangquyen</text>
<text x="1.065" y="-5.305" font-size="0.001695" fill="hsl(180.0,100%,20%)">fbeaufort</text>
<text x="1.067" y="1.074" font-size="0.006673" fill="hsl(180.0,100%,20%)">hogehoge</text>
<text x="1.162" y="0.763" font-size="0.016433" fill="hsl(180.0,100%,20%)">hao.x.li</text>
<text x="1.140" y="1.376" font-size="0.004321" fill="hsl(180.0,100%,20%)">rockot</text>
<text x="0.650" y="1.056" font-size="0.004152" fill="hsl(180.0,100%,20%)">jiajia.qin</text>
<text x="1.028" y="1.041" font-size="0.004152" fill="hsl(180.0,100%,20%)">thakis</text>
<text x="0.802" y="0.121" font-size="0.002397" fill="hsl(0.0,100%,20%)">jmadill</text>
<text x="1.030" y="0.931" font-size="0.013074" fill="hsl(180.0,100%,20%)">shaobo.yan</text>
<text x="0.431" y="0.127" font-size="0.002076" fill="hsl(0.0,100%,20%)">johnstiles</text>
<text x="1.162" y="0.815" font-size="0.009128" fill="hsl(180.0,100%,20%)">tommek</text>
<text x="0.478" y="1.082" font-size="0.001199" fill="hsl(180.0,100%,20%)">sque</text>
<text x="1.037" y="0.706" font-size="0.003390" fill="hsl(180.0,100%,20%)">zmo</text>
<text x="0.586" y="0.739" font-size="0.003790" fill="hsl(180.0,100%,20%)">digit</text>
<text x="1.045" y="0.652" font-size="0.005993" fill="hsl(180.0,100%,20%)">hob</text>
<text x="0.650" y="-1.494" font-size="0.001199" fill="hsl(180.0,100%,20%)">oshima</text>
<text x="0.762" y="1.542" font-size="0.001199" fill="hsl(180.0,100%,20%)">afakhry</text>
<text x="0.625" y="0.762" font-size="0.007388" fill="hsl(180.0,100%,20%)">idanr</text>
<text x="1.002" y="1.195" font-size="0.001695" fill="hsl(180.0,100%,20%)">tandrii</text>
<text x="1.031" y="0.798" font-size="0.002076" fill="hsl(180.0,100%,20%)">kbr</text>
<text x="0.970" y="0.761" font-size="0.003390" fill="hsl(180.0,100%,20%)">cwoffenden</text>
<text x="0.751" y="1.420" font-size="0.002076" fill="hsl(0.0,100%,20%)">danakj</text>
<text x="0.690" y="0.157" font-size="0.011370" fill="hsl(0.0,100%,20%)">dj2</text>
<text x="1.252" y="0.815" font-size="0.009810" fill="hsl(180.0,100%,20%)">gman</text>
<text x="0.389" y="0.089" font-size="0.001199" fill="hsl(0.0,100%,20%)">yiwzhang</text>
<text x="1.053" y="0.753" font-size="0.003596" fill="hsl(180.0,100%,20%)">elie.michel.fr</text>
<text x="0.669" y="0.814" font-size="0.014028" fill="hsl(180.0,100%,20%)">jie.a.chen</text>
<text x="1.348" y="0.767" font-size="0.002076" fill="hsl(180.0,100%,20%)">toji</text>
<text x="1.048" y="0.714" font-size="0.006780" fill="hsl(180.0,100%,20%)">tiszka</text>
<text x="0.986" y="0.653" font-size="0.006989" fill="hsl(180.0,100%,20%)">sunnyps</text>
<text x="1.239" y="0.614" font-size="0.001199" fill="hsl(180.0,100%,20%)">mtklein</text>
<text x="0.913" y="0.742" font-size="0.001695" fill="hsl(180.0,100%,20%)">mehe</text>
<text x="0.911" y="0.716" font-size="0.005993" fill="hsl(180.0,100%,20%)">enrico.galli</text>
<text x="0.769" y="0.130" font-size="0.002397" fill="hsl(180.0,100%,20%)">fjhenigman</text>
<text x="0.293" y="0.954" font-size="0.002397" fill="hsl(180.0,100%,20%)">geofflang</text>
<text x="0.204" y="0.846" font-size="0.001199" fill="hsl(180.0,100%,20%)">fmalita</text>
<text x="1.908" y="0.393" font-size="0.003171" fill="hsl(0.0,100%,20%)">hans</text>
<text x="1.868" y="0.265" font-size="0.001199" fill="hsl(0.0,100%,20%)">hwennborg</text>
<text x="0.750" y="0.676" font-size="0.003790" fill="hsl(180.0,100%,20%)">hitawala</text>
<text x="0.547" y="0.648" font-size="0.002397" fill="hsl(180.0,100%,20%)">iannucci</text>
<text x="1.594" y="0.337" font-size="0.002936" fill="hsl(0.0,100%,20%)">jamessliu2020</text>
<text x="1.405" y="0.259" font-size="0.001695" fill="hsl(0.0,100%,20%)">paulthomson</text>
<text x="0.200" y="0.415" font-size="0.004794" fill="hsl(0.0,100%,20%)">jason.erb</text>
<text x="0.651" y="0.788" font-size="0.004642" fill="hsl(180.0,100%,20%)">jiajie.hu</text>
<text x="0.596" y="0.929" font-size="0.002076" fill="hsl(180.0,100%,20%)">jianlin.qiu</text>
<text x="0.862" y="0.149" font-size="0.003390" fill="hsl(0.0,100%,20%)">jojwang</text>
<text x="1.162" y="0.755" font-size="0.006111" fill="hsl(180.0,100%,20%)">junwei.fu</text>
<text x="1.313" y="0.728" font-size="0.001199" fill="hsl(180.0,100%,20%)">ningxin.hu</text>
<text x="0.334" y="0.167" font-size="0.002680" fill="hsl(0.0,100%,20%)">jwata</text>
<text x="0.622" y="2.873" font-size="0.002680" fill="hsl(0.0,100%,20%)">ukai</text>
<text x="1.254" y="0.860" font-size="0.003171" fill="hsl(180.0,100%,20%)">pkasting</text>
<text x="0.883" y="0.018" font-size="0.001695" fill="hsl(0.0,100%,20%)">mmoroz</text>
<text x="0.702" y="0.741" font-size="0.002680" fill="hsl(180.0,100%,20%)">stephen</text>
<text x="0.606" y="0.722" font-size="0.004484" fill="hsl(180.0,100%,20%)">stha09</text>
<text x="1.734" y="0.921" font-size="0.001695" fill="hsl(180.0,100%,20%)">svenzheng</text>
<text x="1.529" y="0.942" font-size="0.001199" fill="hsl(180.0,100%,20%)">lgrey</text>
<text x="0.575" y="1.104" font-size="0.003975" fill="hsl(180.0,100%,20%)">tangm</text>
<text x="0.434" y="1.195" font-size="0.002936" fill="hsl(0.0,100%,20%)">vadimsh</text>
<text x="0.910" y="0.693" font-size="0.003171" fill="hsl(180.0,100%,20%)">vollick</text>
<text x="1.113" y="0.738" font-size="0.002397" fill="hsl(180.0,100%,20%)">wangqing-hf</text>
<text x="0.579" y="0.785" font-size="0.004642" fill="hsl(180.0,100%,20%)">xinghua.cao</text>
<text x="0.605" y="0.694" font-size="0.003790" fill="hsl(180.0,100%,20%)">yang.gu</text>
<text x="1.111" y="0.757" font-size="0.003171" fill="hsl(180.0,100%,20%)">yizhou.jiang</text>
</svg>
