<svg width="4000" height="2000" viewBox="-0.025 -0.025 2.05 1.05" xmlns="http://www.w3.org/2000/svg">
  <style>
    path {
      fill: none;
      stroke-linecap: round;
      stroke-opacity: 0.4;
    }

    text {
      text-anchor: middle;
      alignment-baseline: hanging;
    }
  </style>
  <g opacity="0.4">
<path d="M0.725 0.333 Q0.821 0.429 1.030 0.403" stroke="hsl(0.0,100%,35%)" stroke-width="0.00417"></path>
<path d="M0.725 0.333 Q0.699 0.287 0.605 0.290" stroke="hsl(0.0,100%,35%)" stroke-width="0.00370"></path>
<path d="M0.725 0.333 Q0.526 0.257 0.336 0.338" stroke="hsl(0.0,100%,35%)" stroke-width="0.00046"></path>
<path d="M1.030 0.403 Q1.204 0.535 1.500 0.479" stroke="hsl(0.0,100%,35%)" stroke-width="0.00139"></path>
<path d="M1.030 0.403 Q0.735 0.232 0.336 0.338" stroke="hsl(0.0,100%,35%)" stroke-width="0.04909"></path>
<path d="M1.030 0.403 Q0.908 0.262 0.605 0.290" stroke="hsl(0.0,100%,35%)" stroke-width="0.06669"></path>
<path d="M1.030 0.403 Q1.190 0.314 1.052 0.217" stroke="hsl(0.0,100%,35%)" stroke-width="0.00417"></path>
<path d="M1.030 0.403 Q0.628 0.710 1.139 0.974" stroke="hsl(0.0,100%,35%)" stroke-width="0.00046"></path>
<path d="M1.030 0.403 Q1.135 0.446 1.241 0.404" stroke="hsl(0.0,100%,35%)" stroke-width="0.00093"></path>
<path d="M1.030 0.403 Q0.577 0.417 0.505 0.641" stroke="hsl(0.0,100%,35%)" stroke-width="0.00695"></path>
<path d="M1.030 0.403 Q0.879 0.430 0.898 0.510" stroke="hsl(0.0,100%,35%)" stroke-width="0.00324"></path>
<path d="M1.030 0.403 Q1.154 0.278 0.937 0.191" stroke="hsl(0.0,100%,35%)" stroke-width="0.00046"></path>
<path d="M1.030 0.403 Q1.422 0.505 1.707 0.336" stroke="hsl(0.0,100%,35%)" stroke-width="0.00093"></path>
<path d="M1.030 0.403 Q0.700 0.320 0.466 0.463" stroke="hsl(0.0,100%,35%)" stroke-width="0.00046"></path>
<path d="M1.030 0.403 Q0.934 0.307 0.725 0.333" stroke="hsl(0.0,100%,35%)" stroke-width="0.00046"></path>
<path d="M1.030 0.403 Q1.193 0.306 1.039 0.205" stroke="hsl(0.0,100%,35%)" stroke-width="0.00046"></path>
<path d="M1.030 0.403 Q1.289 0.321 1.186 0.177" stroke="hsl(0.0,100%,35%)" stroke-width="0.00046"></path>
<path d="M1.030 0.403 Q0.783 0.310 0.548 0.410" stroke="hsl(0.0,100%,35%)" stroke-width="0.00093"></path>
<path d="M1.030 0.403 Q0.949 0.476 1.074 0.532" stroke="hsl(0.0,100%,35%)" stroke-width="0.00046"></path>
<path d="M0.605 0.290 Q0.433 0.260 0.336 0.338" stroke="hsl(0.0,100%,35%)" stroke-width="0.05002"></path>
<path d="M0.605 0.290 Q0.727 0.432 1.030 0.403" stroke="hsl(0.0,100%,35%)" stroke-width="0.04261"></path>
<path d="M0.605 0.290 Q0.275 0.446 0.505 0.641" stroke="hsl(0.0,100%,35%)" stroke-width="0.00232"></path>
<path d="M0.605 0.290 Q0.709 0.196 0.548 0.124" stroke="hsl(0.0,100%,35%)" stroke-width="0.00093"></path>
<path d="M0.605 0.290 Q0.887 0.343 1.052 0.217" stroke="hsl(0.0,100%,35%)" stroke-width="0.00046"></path>
<path d="M0.605 0.290 Q0.560 0.352 0.671 0.387" stroke="hsl(0.0,100%,35%)" stroke-width="0.00046"></path>
<path d="M0.336 0.338 Q0.805 0.641 1.500 0.479" stroke="hsl(0.0,100%,35%)" stroke-width="0.00046"></path>
<path d="M0.336 0.338 Q0.509 0.368 0.605 0.290" stroke="hsl(0.0,100%,35%)" stroke-width="0.00232"></path>
<path d="M0.336 0.338 Q0.631 0.509 1.030 0.403" stroke="hsl(0.0,100%,35%)" stroke-width="0.00232"></path>
<path d="M0.336 0.338 Q0.178 0.523 0.505 0.641" stroke="hsl(0.0,100%,35%)" stroke-width="0.00046"></path>
<path d="M1.003 0.098 Q0.651 0.115 0.605 0.290" stroke="hsl(0.0,100%,35%)" stroke-width="0.00278"></path>
<path d="M1.003 0.098 Q0.773 0.256 1.030 0.403" stroke="hsl(0.0,100%,35%)" stroke-width="0.00417"></path>
<path d="M1.003 0.098 Q0.478 0.085 0.336 0.338" stroke="hsl(0.0,100%,35%)" stroke-width="0.00232"></path>
<path d="M1.003 0.098 Q0.425 0.319 0.728 0.649" stroke="hsl(0.0,100%,35%)" stroke-width="0.00046"></path>
<path d="M0.728 0.649 Q0.954 0.445 0.605 0.290" stroke="hsl(0.0,100%,35%)" stroke-width="0.00185"></path>
<path d="M0.728 0.649 Q1.076 0.586 1.030 0.403" stroke="hsl(0.0,100%,35%)" stroke-width="0.00370"></path>
<path d="M0.728 0.649 Q0.781 0.415 0.336 0.338" stroke="hsl(0.0,100%,35%)" stroke-width="0.00278"></path>
<path d="M1.707 0.336 Q1.193 0.093 0.605 0.290" stroke="hsl(0.0,100%,35%)" stroke-width="0.01250"></path>
<path d="M1.707 0.336 Q1.315 0.234 1.030 0.403" stroke="hsl(0.0,100%,35%)" stroke-width="0.01250"></path>
<path d="M1.707 0.336 Q1.020 0.063 0.336 0.338" stroke="hsl(0.0,100%,35%)" stroke-width="0.00370"></path>
<path d="M1.500 0.479 Q1.326 0.347 1.030 0.403" stroke="hsl(0.0,100%,35%)" stroke-width="0.01621"></path>
<path d="M1.500 0.479 Q1.204 0.206 0.605 0.290" stroke="hsl(0.0,100%,35%)" stroke-width="0.01158"></path>
<path d="M1.500 0.479 Q1.031 0.176 0.336 0.338" stroke="hsl(0.0,100%,35%)" stroke-width="0.00926"></path>
<path d="M1.500 0.479 Q0.873 0.361 0.505 0.641" stroke="hsl(0.0,100%,35%)" stroke-width="0.00046"></path>
<path d="M1.500 0.479 Q0.924 0.654 1.139 0.974" stroke="hsl(0.0,100%,35%)" stroke-width="0.00046"></path>
<path d="M1.139 0.974 Q1.299 0.912 1.213 0.821" stroke="hsl(180.0,100%,35%)" stroke-width="0.01806"></path>
<path d="M1.139 0.974 Q1.119 0.871 0.913 0.858" stroke="hsl(180.0,100%,35%)" stroke-width="0.01667"></path>
<path d="M1.139 0.974 Q1.715 0.799 1.500 0.479" stroke="hsl(180.0,100%,35%)" stroke-width="0.00046"></path>
<path d="M1.139 0.974 Q1.541 0.667 1.030 0.403" stroke="hsl(180.0,100%,35%)" stroke-width="0.00093"></path>
<path d="M0.505 0.641 Q0.836 0.486 0.605 0.290" stroke="hsl(0.0,100%,35%)" stroke-width="0.01389"></path>
<path d="M0.505 0.641 Q0.663 0.456 0.336 0.338" stroke="hsl(0.0,100%,35%)" stroke-width="0.00834"></path>
<path d="M0.505 0.641 Q0.958 0.627 1.030 0.403" stroke="hsl(0.0,100%,35%)" stroke-width="0.01852"></path>
<path d="M0.898 0.510 Q1.049 0.483 1.030 0.403" stroke="hsl(0.0,100%,35%)" stroke-width="0.01436"></path>
<path d="M0.898 0.510 Q0.927 0.341 0.605 0.290" stroke="hsl(0.0,100%,35%)" stroke-width="0.01250"></path>
<path d="M0.898 0.510 Q0.754 0.312 0.336 0.338" stroke="hsl(0.0,100%,35%)" stroke-width="0.00602"></path>
<path d="M0.937 0.191 Q0.813 0.316 1.030 0.403" stroke="hsl(0.0,100%,35%)" stroke-width="0.00139"></path>
<path d="M0.937 0.191 Q0.691 0.174 0.605 0.290" stroke="hsl(0.0,100%,35%)" stroke-width="0.00463"></path>
<path d="M0.937 0.191 Q0.519 0.144 0.336 0.338" stroke="hsl(0.0,100%,35%)" stroke-width="0.00185"></path>
<path d="M0.466 0.463 Q0.674 0.405 0.605 0.290" stroke="hsl(0.0,100%,35%)" stroke-width="0.00093"></path>
<path d="M0.466 0.463 Q0.796 0.546 1.030 0.403" stroke="hsl(0.0,100%,35%)" stroke-width="0.00093"></path>
<path d="M0.466 0.463 Q0.501 0.375 0.336 0.338" stroke="hsl(0.0,100%,35%)" stroke-width="0.00093"></path>
<path d="M0.548 0.410 Q0.500 0.332 0.336 0.338" stroke="hsl(0.0,100%,35%)" stroke-width="0.00556"></path>
<path d="M0.548 0.410 Q0.673 0.362 0.605 0.290" stroke="hsl(0.0,100%,35%)" stroke-width="0.00093"></path>
<path d="M0.548 0.410 Q0.794 0.503 1.030 0.403" stroke="hsl(0.0,100%,35%)" stroke-width="0.00232"></path>
<path d="M1.074 0.532 Q0.861 0.287 0.336 0.338" stroke="hsl(0.0,100%,35%)" stroke-width="0.00695"></path>
<path d="M1.074 0.532 Q1.155 0.459 1.030 0.403" stroke="hsl(0.0,100%,35%)" stroke-width="0.01019"></path>
<path d="M1.074 0.532 Q1.033 0.317 0.605 0.290" stroke="hsl(0.0,100%,35%)" stroke-width="0.00695"></path>
<path d="M1.074 0.532 Q0.808 0.521 0.728 0.649" stroke="hsl(0.0,100%,35%)" stroke-width="0.00139"></path>
<path d="M1.379 0.316 Q0.683 0.304 0.505 0.641" stroke="hsl(0.0,100%,35%)" stroke-width="0.00046"></path>
<path d="M1.379 0.316 Q1.135 0.290 1.030 0.403" stroke="hsl(0.0,100%,35%)" stroke-width="0.00787"></path>
<path d="M1.379 0.316 Q1.013 0.148 0.605 0.290" stroke="hsl(0.0,100%,35%)" stroke-width="0.00278"></path>
<path d="M1.379 0.316 Q0.841 0.119 0.336 0.338" stroke="hsl(0.0,100%,35%)" stroke-width="0.00278"></path>
<path d="M0.643 0.453 Q0.755 0.364 0.605 0.290" stroke="hsl(0.0,100%,35%)" stroke-width="0.00046"></path>
<path d="M0.643 0.453 Q0.876 0.505 1.030 0.403" stroke="hsl(0.0,100%,35%)" stroke-width="0.00185"></path>
<path d="M0.643 0.453 Q0.582 0.334 0.336 0.338" stroke="hsl(0.0,100%,35%)" stroke-width="0.00093"></path>
<path d="M1.018 0.144 Q0.816 0.276 1.030 0.403" stroke="hsl(0.0,100%,35%)" stroke-width="0.00602"></path>
<path d="M1.018 0.144 Q0.694 0.135 0.605 0.290" stroke="hsl(0.0,100%,35%)" stroke-width="0.00324"></path>
<path d="M1.018 0.144 Q0.522 0.105 0.336 0.338" stroke="hsl(0.0,100%,35%)" stroke-width="0.00232"></path>
<path d="M0.764 0.444 Q0.930 0.477 1.030 0.403" stroke="hsl(0.0,100%,35%)" stroke-width="0.00139"></path>
<path d="M0.764 0.444 Q0.808 0.335 0.605 0.290" stroke="hsl(0.0,100%,35%)" stroke-width="0.00139"></path>
<path d="M0.764 0.444 Q0.636 0.306 0.336 0.338" stroke="hsl(0.0,100%,35%)" stroke-width="0.00046"></path>
</g>
<text x="0.725" y="0.323" font-size="0.018403" fill="hsl(0.0,100%,20%)">beaufort.francois</text>
<text x="1.030" y="0.351" font-size="0.105466" fill="hsl(0.0,100%,20%)">cwallez</text>
<text x="0.605" y="0.241" font-size="0.097289" fill="hsl(0.0,100%,20%)">enga</text>
<text x="0.336" y="0.299" font-size="0.078306" fill="hsl(0.0,100%,20%)">kainino</text>
<text x="1.003" y="0.089" font-size="0.019348" fill="hsl(0.0,100%,20%)">brandon1.jones</text>
<text x="0.728" y="0.639" font-size="0.019803" fill="hsl(0.0,100%,20%)">rafael.cintron</text>
<text x="1.707" y="0.320" font-size="0.033776" fill="hsl(0.0,100%,20%)">bryan.bernhart</text>
<text x="1.500" y="0.460" font-size="0.039380" fill="hsl(0.0,100%,20%)">rharrison</text>
<text x="1.052" y="0.210" font-size="0.013351" fill="hsl(0.0,100%,20%)">digit</text>
<text x="1.139" y="0.955" font-size="0.037763" fill="hsl(180.0,100%,20%)">dsinclair</text>
<text x="1.241" y="0.401" font-size="0.005971" fill="hsl(0.0,100%,20%)">thakis</text>
<text x="0.505" y="0.619" font-size="0.044482" fill="hsl(0.0,100%,20%)">jiawei.shao</text>
<text x="0.898" y="0.491" font-size="0.037288" fill="hsl(0.0,100%,20%)">yunchao.he</text>
<text x="0.937" y="0.182" font-size="0.017912" fill="hsl(0.0,100%,20%)">hob</text>
<text x="0.466" y="0.458" font-size="0.011170" fill="hsl(0.0,100%,20%)">senorblanco</text>
<text x="1.039" y="0.203" font-size="0.004222" fill="hsl(0.0,100%,20%)">oshima</text>
<text x="1.186" y="0.175" font-size="0.004222" fill="hsl(0.0,100%,20%)">afakhry</text>
<text x="0.548" y="0.401" font-size="0.019348" fill="hsl(0.0,100%,20%)">idanr</text>
<text x="1.074" y="0.516" font-size="0.031595" fill="hsl(0.0,100%,20%)">natlee</text>
<text x="1.213" y="0.807" font-size="0.026366" fill="hsl(180.0,100%,20%)">dneto</text>
<text x="0.913" y="0.846" font-size="0.025332" fill="hsl(180.0,100%,20%)">sarahmashay</text>
<text x="0.548" y="0.121" font-size="0.005971" fill="hsl(0.0,100%,20%)">mehe</text>
<text x="0.671" y="0.385" font-size="0.004222" fill="hsl(0.0,100%,20%)">kbr</text>
<text x="1.379" y="0.305" font-size="0.023125" fill="hsl(0.0,100%,20%)">hao.x.li</text>
<text x="0.643" y="0.447" font-size="0.011170" fill="hsl(0.0,100%,20%)">jiajie.hu</text>
<text x="1.018" y="0.133" font-size="0.021110" fill="hsl(0.0,100%,20%)">shaobo.yan</text>
<text x="0.764" y="0.439" font-size="0.011170" fill="hsl(0.0,100%,20%)">yizhou.jiang</text>
</svg>
