<svg width="4000" height="2000" viewBox="-0.025 -0.025 2.05 1.05" xmlns="http://www.w3.org/2000/svg">
  <style>
    path {
      fill: none;
      stroke-linecap: round;
      stroke-opacity: 0.4;
    }

    text {
      text-anchor: middle;
      alignment-baseline: hanging;
    }
  </style>
  <g opacity="0.4">
<path d="M1.211 0.727 Q1.356 0.663 1.263 0.579" stroke="hsl(0.0,100%,35%)" stroke-width="0.00046"></path>
<path d="M1.211 0.727 Q1.420 0.551 1.122 0.410" stroke="hsl(0.0,100%,35%)" stroke-width="0.00069"></path>
<path d="M1.211 0.727 Q1.387 0.737 1.445 0.654" stroke="hsl(0.0,100%,35%)" stroke-width="0.00046"></path>
<path d="M1.263 0.579 Q1.294 0.653 1.445 0.654" stroke="hsl(0.0,100%,35%)" stroke-width="0.04061"></path>
<path d="M1.263 0.579 Q0.981 0.654 1.065 0.808" stroke="hsl(0.0,100%,35%)" stroke-width="0.05989"></path>
<path d="M1.263 0.579 Q1.048 0.518 0.883 0.609" stroke="hsl(0.0,100%,35%)" stroke-width="0.02157"></path>
<path d="M1.263 0.579 Q1.149 0.635 1.233 0.703" stroke="hsl(0.0,100%,35%)" stroke-width="0.02386"></path>
<path d="M1.263 0.579 Q1.198 0.460 0.952 0.466" stroke="hsl(0.0,100%,35%)" stroke-width="0.00941"></path>
<path d="M1.263 0.579 Q1.705 0.531 1.708 0.304" stroke="hsl(0.0,100%,35%)" stroke-width="0.00023"></path>
<path d="M1.263 0.579 Q1.619 0.610 1.759 0.443" stroke="hsl(0.0,100%,35%)" stroke-width="0.00849"></path>
<path d="M1.263 0.579 Q1.742 0.461 1.617 0.202" stroke="hsl(0.0,100%,35%)" stroke-width="0.00023"></path>
<path d="M1.263 0.579 Q0.786 0.566 0.656 0.796" stroke="hsl(0.0,100%,35%)" stroke-width="0.00069"></path>
<path d="M1.263 0.579 Q1.327 0.466 1.122 0.410" stroke="hsl(0.0,100%,35%)" stroke-width="0.00252"></path>
<path d="M1.263 0.579 Q1.634 0.397 1.361 0.176" stroke="hsl(0.0,100%,35%)" stroke-width="0.00046"></path>
<path d="M1.263 0.579 Q1.577 0.316 1.133 0.105" stroke="hsl(0.0,100%,35%)" stroke-width="0.00023"></path>
<path d="M1.263 0.579 Q1.225 0.450 0.965 0.440" stroke="hsl(0.0,100%,35%)" stroke-width="0.00023"></path>
<path d="M1.122 0.410 Q0.993 0.404 0.952 0.466" stroke="hsl(0.0,100%,35%)" stroke-width="0.00023"></path>
<path d="M1.122 0.410 Q0.776 0.598 1.065 0.808" stroke="hsl(0.0,100%,35%)" stroke-width="0.00115"></path>
<path d="M1.122 0.410 Q1.089 0.597 1.445 0.654" stroke="hsl(0.0,100%,35%)" stroke-width="0.00069"></path>
<path d="M1.122 0.410 Q1.414 0.554 1.759 0.443" stroke="hsl(0.0,100%,35%)" stroke-width="0.00161"></path>
<path d="M1.122 0.410 Q1.058 0.523 1.263 0.579" stroke="hsl(0.0,100%,35%)" stroke-width="0.00298"></path>
<path d="M1.122 0.410 Q1.429 0.341 1.361 0.176" stroke="hsl(0.0,100%,35%)" stroke-width="0.00046"></path>
<path d="M1.122 0.410 Q1.536 0.405 1.617 0.202" stroke="hsl(0.0,100%,35%)" stroke-width="0.00023"></path>
<path d="M1.122 0.410 Q0.843 0.462 0.883 0.609" stroke="hsl(0.0,100%,35%)" stroke-width="0.00069"></path>
<path d="M1.445 0.654 Q1.414 0.580 1.263 0.579" stroke="hsl(0.0,100%,35%)" stroke-width="0.03143"></path>
<path d="M1.445 0.654 Q1.199 0.519 0.883 0.609" stroke="hsl(0.0,100%,35%)" stroke-width="0.00161"></path>
<path d="M1.445 0.654 Q1.349 0.461 0.952 0.466" stroke="hsl(0.0,100%,35%)" stroke-width="0.00482"></path>
<path d="M1.445 0.654 Q1.132 0.655 1.065 0.808" stroke="hsl(0.0,100%,35%)" stroke-width="0.00711"></path>
<path d="M1.445 0.654 Q1.770 0.611 1.759 0.443" stroke="hsl(0.0,100%,35%)" stroke-width="0.00115"></path>
<path d="M1.445 0.654 Q1.081 0.352 0.412 0.464" stroke="hsl(0.0,100%,35%)" stroke-width="0.00023"></path>
<path d="M1.445 0.654 Q1.785 0.398 1.361 0.176" stroke="hsl(0.0,100%,35%)" stroke-width="0.00069"></path>
<path d="M1.445 0.654 Q1.592 0.729 1.772 0.674" stroke="hsl(0.0,100%,35%)" stroke-width="0.00023"></path>
<path d="M1.445 0.654 Q2.090 0.298 1.538 -0.094" stroke="hsl(0.0,100%,35%)" stroke-width="0.00023"></path>
<path d="M1.445 0.654 Q1.478 0.467 1.122 0.410" stroke="hsl(0.0,100%,35%)" stroke-width="0.00046"></path>
<path d="M1.445 0.654 Q1.300 0.636 1.233 0.703" stroke="hsl(0.0,100%,35%)" stroke-width="0.00069"></path>
<path d="M0.883 0.609 Q0.764 0.442 0.412 0.464" stroke="hsl(0.0,100%,35%)" stroke-width="0.00046"></path>
<path d="M0.883 0.609 Q0.815 0.745 1.065 0.808" stroke="hsl(0.0,100%,35%)" stroke-width="0.00344"></path>
<path d="M0.883 0.609 Q1.097 0.670 1.263 0.579" stroke="hsl(0.0,100%,35%)" stroke-width="0.00229"></path>
<path d="M0.883 0.609 Q1.162 0.558 1.122 0.410" stroke="hsl(0.0,100%,35%)" stroke-width="0.00023"></path>
<path d="M0.883 0.609 Q1.129 0.744 1.445 0.654" stroke="hsl(0.0,100%,35%)" stroke-width="0.00023"></path>
<path d="M0.883 0.609 Q1.454 0.702 1.759 0.443" stroke="hsl(0.0,100%,35%)" stroke-width="0.00023"></path>
<path d="M0.952 0.466 Q1.017 0.584 1.263 0.579" stroke="hsl(0.0,100%,35%)" stroke-width="0.01514"></path>
<path d="M0.952 0.466 Q1.373 0.616 1.759 0.443" stroke="hsl(0.0,100%,35%)" stroke-width="0.00115"></path>
<path d="M0.952 0.466 Q0.735 0.659 1.065 0.808" stroke="hsl(0.0,100%,35%)" stroke-width="0.00092"></path>
<path d="M0.952 0.466 Q1.048 0.658 1.445 0.654" stroke="hsl(0.0,100%,35%)" stroke-width="0.00207"></path>
<path d="M0.952 0.466 Q0.802 0.524 0.883 0.609" stroke="hsl(0.0,100%,35%)" stroke-width="0.00092"></path>
<path d="M0.952 0.466 Q1.330 0.322 1.133 0.105" stroke="hsl(0.0,100%,35%)" stroke-width="0.00092"></path>
<path d="M0.952 0.466 Q0.683 0.357 0.412 0.464" stroke="hsl(0.0,100%,35%)" stroke-width="0.00023"></path>
<path d="M1.065 0.808 Q1.347 0.733 1.263 0.579" stroke="hsl(0.0,100%,35%)" stroke-width="0.07159"></path>
<path d="M1.065 0.808 Q1.412 0.620 1.122 0.410" stroke="hsl(0.0,100%,35%)" stroke-width="0.00207"></path>
<path d="M1.065 0.808 Q1.379 0.807 1.445 0.654" stroke="hsl(0.0,100%,35%)" stroke-width="0.01239"></path>
<path d="M1.065 0.808 Q1.282 0.614 0.952 0.466" stroke="hsl(0.0,100%,35%)" stroke-width="0.00023"></path>
<path d="M1.065 0.808 Q1.133 0.672 0.883 0.609" stroke="hsl(0.0,100%,35%)" stroke-width="0.00184"></path>
<path d="M1.065 0.808 Q1.703 0.764 1.759 0.443" stroke="hsl(0.0,100%,35%)" stroke-width="0.00207"></path>
<path d="M1.065 0.808 Q1.233 0.789 1.233 0.703" stroke="hsl(0.0,100%,35%)" stroke-width="0.01331"></path>
<path d="M1.065 0.808 Q0.947 0.878 1.058 0.951" stroke="hsl(0.0,100%,35%)" stroke-width="0.00023"></path>
<path d="M1.065 0.808 Q1.718 0.551 1.361 0.176" stroke="hsl(0.0,100%,35%)" stroke-width="0.00046"></path>
<path d="M1.065 0.808 Q1.309 0.604 0.965 0.440" stroke="hsl(0.0,100%,35%)" stroke-width="0.00023"></path>
<path d="M1.759 0.443 Q1.716 0.449 1.717 0.471" stroke="hsl(180.0,100%,35%)" stroke-width="0.01514"></path>
<path d="M1.759 0.443 Q1.716 0.149 1.133 0.105" stroke="hsl(180.0,100%,35%)" stroke-width="0.00344"></path>
<path d="M1.759 0.443 Q1.402 0.412 1.263 0.579" stroke="hsl(180.0,100%,35%)" stroke-width="0.00620"></path>
<path d="M1.759 0.443 Q0.925 0.399 0.656 0.796" stroke="hsl(180.0,100%,35%)" stroke-width="0.00023"></path>
<path d="M1.759 0.443 Q1.288 0.468 1.233 0.703" stroke="hsl(180.0,100%,35%)" stroke-width="0.01193"></path>
<path d="M1.759 0.443 Q1.923 0.213 1.511 0.083" stroke="hsl(180.0,100%,35%)" stroke-width="0.00023"></path>
<path d="M1.759 0.443 Q1.121 0.487 1.065 0.808" stroke="hsl(180.0,100%,35%)" stroke-width="0.00046"></path>
<path d="M1.759 0.443 Q1.881 0.294 1.617 0.202" stroke="hsl(180.0,100%,35%)" stroke-width="0.00344"></path>
<path d="M1.759 0.443 Q1.829 0.508 1.970 0.487" stroke="hsl(180.0,100%,35%)" stroke-width="0.00023"></path>
<path d="M1.759 0.443 Q1.808 0.305 1.549 0.250" stroke="hsl(180.0,100%,35%)" stroke-width="0.00023"></path>
<path d="M1.759 0.443 Q1.774 0.230 1.361 0.176" stroke="hsl(180.0,100%,35%)" stroke-width="0.00252"></path>
<path d="M1.759 0.443 Q1.643 0.355 1.445 0.392" stroke="hsl(180.0,100%,35%)" stroke-width="0.00023"></path>
<path d="M1.759 0.443 Q1.608 0.271 1.238 0.307" stroke="hsl(180.0,100%,35%)" stroke-width="0.00023"></path>
<path d="M1.759 0.443 Q1.887 0.406 1.842 0.335" stroke="hsl(180.0,100%,35%)" stroke-width="0.00046"></path>
<path d="M1.361 0.176 Q1.303 0.395 1.717 0.471" stroke="hsl(180.0,100%,35%)" stroke-width="0.00046"></path>
<path d="M1.361 0.176 Q1.346 0.389 1.759 0.443" stroke="hsl(180.0,100%,35%)" stroke-width="0.00551"></path>
<path d="M1.361 0.176 Q0.708 0.433 1.065 0.808" stroke="hsl(180.0,100%,35%)" stroke-width="0.00046"></path>
<path d="M1.361 0.176 Q0.990 0.358 1.263 0.579" stroke="hsl(180.0,100%,35%)" stroke-width="0.00092"></path>
<path d="M1.361 0.176 Q0.876 0.414 1.233 0.703" stroke="hsl(180.0,100%,35%)" stroke-width="0.00298"></path>
<path d="M1.361 0.176 Q1.304 0.095 1.133 0.105" stroke="hsl(180.0,100%,35%)" stroke-width="0.00298"></path>
<path d="M1.361 0.176 Q1.469 0.240 1.617 0.202" stroke="hsl(180.0,100%,35%)" stroke-width="0.00092"></path>
<path d="M1.361 0.176 Q0.844 0.475 1.314 0.794" stroke="hsl(180.0,100%,35%)" stroke-width="0.00023"></path>
<path d="M1.361 0.176 Q0.925 0.239 0.952 0.466" stroke="hsl(180.0,100%,35%)" stroke-width="0.00023"></path>
<path d="M1.233 0.703 Q1.347 0.647 1.263 0.579" stroke="hsl(180.0,100%,35%)" stroke-width="0.01744"></path>
<path d="M1.233 0.703 Q1.703 0.678 1.759 0.443" stroke="hsl(180.0,100%,35%)" stroke-width="0.02340"></path>
<path d="M1.233 0.703 Q1.661 0.684 1.717 0.471" stroke="hsl(180.0,100%,35%)" stroke-width="0.00941"></path>
<path d="M1.233 0.703 Q1.718 0.465 1.361 0.176" stroke="hsl(180.0,100%,35%)" stroke-width="0.00275"></path>
<path d="M1.233 0.703 Q1.627 0.521 1.359 0.288" stroke="hsl(180.0,100%,35%)" stroke-width="0.00046"></path>
<path d="M1.233 0.703 Q1.661 0.384 1.133 0.105" stroke="hsl(180.0,100%,35%)" stroke-width="0.00138"></path>
<path d="M1.233 0.703 Q1.065 0.722 1.065 0.808" stroke="hsl(180.0,100%,35%)" stroke-width="0.00298"></path>
<path d="M1.233 0.703 Q1.826 0.529 1.617 0.202" stroke="hsl(180.0,100%,35%)" stroke-width="0.00069"></path>
<path d="M1.233 0.703 Q1.139 0.792 1.293 0.857" stroke="hsl(180.0,100%,35%)" stroke-width="0.00023"></path>
<path d="M1.233 0.703 Q1.379 0.721 1.445 0.654" stroke="hsl(180.0,100%,35%)" stroke-width="0.00023"></path>
<path d="M1.233 0.703 Q1.282 0.528 0.952 0.466" stroke="hsl(180.0,100%,35%)" stroke-width="0.00046"></path>
<path d="M1.717 0.471 Q1.760 0.465 1.759 0.443" stroke="hsl(180.0,100%,35%)" stroke-width="0.01216"></path>
<path d="M1.717 0.471 Q1.290 0.490 1.233 0.703" stroke="hsl(180.0,100%,35%)" stroke-width="0.00161"></path>
<path d="M1.717 0.471 Q1.718 0.171 1.133 0.105" stroke="hsl(180.0,100%,35%)" stroke-width="0.00046"></path>
<path d="M1.717 0.471 Q1.404 0.434 1.263 0.579" stroke="hsl(180.0,100%,35%)" stroke-width="0.00069"></path>
<path d="M1.717 0.471 Q1.883 0.317 1.617 0.202" stroke="hsl(180.0,100%,35%)" stroke-width="0.00138"></path>
<path d="M1.133 0.105 Q1.175 0.400 1.759 0.443" stroke="hsl(180.0,100%,35%)" stroke-width="0.00161"></path>
<path d="M1.133 0.105 Q0.819 0.368 1.263 0.579" stroke="hsl(180.0,100%,35%)" stroke-width="0.00023"></path>
<path d="M1.133 0.105 Q0.705 0.424 1.233 0.703" stroke="hsl(180.0,100%,35%)" stroke-width="0.00023"></path>
<path d="M1.133 0.105 Q1.132 0.405 1.717 0.471" stroke="hsl(180.0,100%,35%)" stroke-width="0.00046"></path>
<path d="M1.133 0.105 Q0.537 0.443 1.065 0.808" stroke="hsl(180.0,100%,35%)" stroke-width="0.00069"></path>
<path d="M1.617 0.202 Q1.495 0.351 1.759 0.443" stroke="hsl(180.0,100%,35%)" stroke-width="0.00597"></path>
<path d="M1.617 0.202 Q1.452 0.057 1.133 0.105" stroke="hsl(180.0,100%,35%)" stroke-width="0.00069"></path>
<path d="M1.617 0.202 Q1.024 0.376 1.233 0.703" stroke="hsl(180.0,100%,35%)" stroke-width="0.00207"></path>
<path d="M1.617 0.202 Q1.139 0.319 1.263 0.579" stroke="hsl(180.0,100%,35%)" stroke-width="0.00023"></path>
<path d="M1.617 0.202 Q1.452 0.356 1.717 0.471" stroke="hsl(180.0,100%,35%)" stroke-width="0.00115"></path>
<path d="M1.617 0.202 Q1.510 0.138 1.361 0.176" stroke="hsl(180.0,100%,35%)" stroke-width="0.00023"></path>
<path d="M1.314 0.794 Q1.346 0.732 1.233 0.703" stroke="hsl(180.0,100%,35%)" stroke-width="0.00275"></path>
<path d="M1.314 0.794 Q1.816 0.707 1.759 0.443" stroke="hsl(180.0,100%,35%)" stroke-width="0.00298"></path>
<path d="M1.314 0.794 Q1.774 0.413 1.133 0.105" stroke="hsl(180.0,100%,35%)" stroke-width="0.00023"></path>
<path d="M1.314 0.794 Q1.945 0.670 1.842 0.335" stroke="hsl(180.0,100%,35%)" stroke-width="0.00023"></path>
<path d="M1.314 0.794 Q1.643 0.868 1.860 0.724" stroke="hsl(180.0,100%,35%)" stroke-width="0.00023"></path>
<path d="M1.708 0.304 Q1.622 0.384 1.759 0.443" stroke="hsl(180.0,100%,35%)" stroke-width="0.00275"></path>
<path d="M1.708 0.304 Q1.152 0.408 1.233 0.703" stroke="hsl(180.0,100%,35%)" stroke-width="0.00161"></path>
<path d="M1.708 0.304 Q1.266 0.352 1.263 0.579" stroke="hsl(180.0,100%,35%)" stroke-width="0.00115"></path>
<path d="M1.708 0.304 Q1.580 0.090 1.133 0.105" stroke="hsl(180.0,100%,35%)" stroke-width="0.00046"></path>
<path d="M1.708 0.304 Q1.579 0.389 1.717 0.471" stroke="hsl(180.0,100%,35%)" stroke-width="0.00023"></path>
<path d="M1.708 0.304 Q1.297 0.426 1.445 0.654" stroke="hsl(180.0,100%,35%)" stroke-width="0.00023"></path>
<path d="M0.656 0.796 Q1.489 0.840 1.759 0.443" stroke="hsl(0.0,100%,35%)" stroke-width="0.00138"></path>
<path d="M0.656 0.796 Q1.133 0.809 1.263 0.579" stroke="hsl(0.0,100%,35%)" stroke-width="0.01033"></path>
<path d="M0.656 0.796 Q1.019 0.865 1.233 0.703" stroke="hsl(0.0,100%,35%)" stroke-width="0.00115"></path>
<path d="M0.656 0.796 Q0.851 0.884 1.065 0.808" stroke="hsl(0.0,100%,35%)" stroke-width="0.00092"></path>
<path d="M0.656 0.796 Q0.919 0.748 0.883 0.609" stroke="hsl(0.0,100%,35%)" stroke-width="0.00046"></path>
<path d="M0.656 0.796 Q1.164 0.883 1.445 0.654" stroke="hsl(0.0,100%,35%)" stroke-width="0.00069"></path>
<path d="M0.656 0.796 Q1.198 0.696 1.122 0.410" stroke="hsl(0.0,100%,35%)" stroke-width="0.00046"></path>
<path d="M0.656 0.796 Q1.447 0.546 1.133 0.105" stroke="hsl(0.0,100%,35%)" stroke-width="0.00023"></path>
<path d="M0.965 0.440 Q1.360 0.601 1.759 0.443" stroke="hsl(180.0,100%,35%)" stroke-width="0.00620"></path>
<path d="M0.965 0.440 Q1.003 0.569 1.263 0.579" stroke="hsl(180.0,100%,35%)" stroke-width="0.00872"></path>
<path d="M0.965 0.440 Q0.889 0.625 1.233 0.703" stroke="hsl(180.0,100%,35%)" stroke-width="0.00275"></path>
<path d="M0.965 0.440 Q1.317 0.606 1.717 0.471" stroke="hsl(180.0,100%,35%)" stroke-width="0.00046"></path>
<path d="M0.965 0.440 Q1.035 0.643 1.445 0.654" stroke="hsl(180.0,100%,35%)" stroke-width="0.00023"></path>
<path d="M0.965 0.440 Q0.789 0.508 0.883 0.609" stroke="hsl(180.0,100%,35%)" stroke-width="0.00069"></path>
<path d="M0.965 0.440 Q0.938 0.450 0.952 0.466" stroke="hsl(180.0,100%,35%)" stroke-width="0.00023"></path>
<path d="M1.359 0.288 Q1.392 0.152 1.133 0.105" stroke="hsl(180.0,100%,35%)" stroke-width="0.00069"></path>
<path d="M1.359 0.288 Q1.435 0.446 1.759 0.443" stroke="hsl(180.0,100%,35%)" stroke-width="0.00229"></path>
<path d="M1.359 0.288 Q1.078 0.414 1.263 0.579" stroke="hsl(180.0,100%,35%)" stroke-width="0.00023"></path>
<path d="M1.293 0.857 Q1.386 0.768 1.233 0.703" stroke="hsl(180.0,100%,35%)" stroke-width="0.00275"></path>
<path d="M1.293 0.857 Q1.857 0.743 1.759 0.443" stroke="hsl(180.0,100%,35%)" stroke-width="0.00184"></path>
<path d="M1.293 0.857 Q1.814 0.449 1.133 0.105" stroke="hsl(180.0,100%,35%)" stroke-width="0.00069"></path>
<path d="M1.293 0.857 Q1.500 0.712 1.263 0.579" stroke="hsl(180.0,100%,35%)" stroke-width="0.00023"></path>
<path d="M1.970 0.487 Q1.429 0.448 1.233 0.703" stroke="hsl(180.0,100%,35%)" stroke-width="0.00138"></path>
<path d="M1.970 0.487 Q1.899 0.423 1.759 0.443" stroke="hsl(180.0,100%,35%)" stroke-width="0.00161"></path>
<path d="M1.970 0.487 Q1.857 0.429 1.717 0.471" stroke="hsl(180.0,100%,35%)" stroke-width="0.00046"></path>
<path d="M1.842 0.335 Q1.713 0.372 1.759 0.443" stroke="hsl(180.0,100%,35%)" stroke-width="0.01285"></path>
<path d="M1.842 0.335 Q1.243 0.397 1.233 0.703" stroke="hsl(180.0,100%,35%)" stroke-width="0.00895"></path>
<path d="M1.842 0.335 Q1.671 0.078 1.133 0.105" stroke="hsl(180.0,100%,35%)" stroke-width="0.00046"></path>
<path d="M1.842 0.335 Q1.357 0.341 1.263 0.579" stroke="hsl(180.0,100%,35%)" stroke-width="0.00161"></path>
<path d="M1.842 0.335 Q1.142 0.280 0.883 0.609" stroke="hsl(180.0,100%,35%)" stroke-width="0.00046"></path>
<path d="M1.842 0.335 Q1.670 0.378 1.717 0.471" stroke="hsl(180.0,100%,35%)" stroke-width="0.00023"></path>
<path d="M1.842 0.335 Q1.728 0.159 1.361 0.176" stroke="hsl(180.0,100%,35%)" stroke-width="0.00046"></path>
<path d="M1.542 0.483 Q1.211 0.531 1.233 0.703" stroke="hsl(180.0,100%,35%)" stroke-width="0.00207"></path>
<path d="M1.542 0.483 Q1.682 0.507 1.759 0.443" stroke="hsl(180.0,100%,35%)" stroke-width="0.00229"></path>
<path d="M1.542 0.483 Q1.531 0.334 1.238 0.307" stroke="hsl(180.0,100%,35%)" stroke-width="0.00023"></path>
<path d="M1.542 0.483 Q1.639 0.212 1.133 0.105" stroke="hsl(180.0,100%,35%)" stroke-width="0.00023"></path>
<path d="M1.542 0.483 Q1.804 0.358 1.617 0.202" stroke="hsl(180.0,100%,35%)" stroke-width="0.00023"></path>
<path d="M1.033 0.900 Q1.123 0.860 1.065 0.808" stroke="hsl(0.0,100%,35%)" stroke-width="0.00023"></path>
<path d="M1.033 0.900 Q1.405 0.785 1.263 0.579" stroke="hsl(0.0,100%,35%)" stroke-width="0.00023"></path>
<path d="M1.033 0.900 Q1.761 0.817 1.759 0.443" stroke="hsl(0.0,100%,35%)" stroke-width="0.00023"></path>
<path d="M1.605 0.292 Q1.090 0.423 1.233 0.703" stroke="hsl(180.0,100%,35%)" stroke-width="0.00252"></path>
<path d="M1.605 0.292 Q1.560 0.398 1.759 0.443" stroke="hsl(180.0,100%,35%)" stroke-width="0.00321"></path>
<path d="M1.605 0.292 Q1.689 0.360 1.842 0.335" stroke="hsl(180.0,100%,35%)" stroke-width="0.00046"></path>
<path d="M0.656 0.615 Q0.874 0.775 1.233 0.703" stroke="hsl(180.0,100%,35%)" stroke-width="0.00046"></path>
<path d="M0.656 0.615 Q1.053 0.606 1.122 0.410" stroke="hsl(180.0,100%,35%)" stroke-width="0.00023"></path>
<path d="M0.656 0.615 Q0.989 0.719 1.263 0.579" stroke="hsl(180.0,100%,35%)" stroke-width="0.00023"></path>
<path d="M0.467 0.674 Q0.827 0.841 1.233 0.703" stroke="hsl(180.0,100%,35%)" stroke-width="0.00023"></path>
<path d="M0.467 0.674 Q1.005 0.673 1.122 0.410" stroke="hsl(180.0,100%,35%)" stroke-width="0.00023"></path>
<path d="M0.467 0.674 Q0.293 0.707 0.320 0.799" stroke="hsl(180.0,100%,35%)" stroke-width="0.00023"></path>
<path d="M1.836 0.850 Q1.652 0.656 1.233 0.703" stroke="hsl(180.0,100%,35%)" stroke-width="0.00046"></path>
<path d="M1.836 0.850 Q2.122 0.631 1.759 0.443" stroke="hsl(180.0,100%,35%)" stroke-width="0.00023"></path>
<path d="M1.836 0.850 Q2.080 0.637 1.717 0.471" stroke="hsl(180.0,100%,35%)" stroke-width="0.00023"></path>
<path d="M1.860 0.724 Q2.162 0.525 1.842 0.335" stroke="hsl(180.0,100%,35%)" stroke-width="0.00023"></path>
<path d="M1.860 0.724 Q1.894 0.540 1.542 0.483" stroke="hsl(180.0,100%,35%)" stroke-width="0.00023"></path>
<path d="M1.860 0.724 Q2.034 0.563 1.759 0.443" stroke="hsl(180.0,100%,35%)" stroke-width="0.00023"></path>
</g>
<text x="1.211" y="0.724" font-size="0.007267" fill="hsl(0.0,100%,20%)">afdx</text>
<text x="1.263" y="0.526" font-size="0.105846" fill="hsl(0.0,100%,20%)">bclayton</text>
<text x="1.122" y="0.399" font-size="0.022145" fill="hsl(0.0,100%,20%)">rharrison</text>
<text x="1.445" y="0.624" font-size="0.059166" fill="hsl(0.0,100%,20%)">amaiorano</text>
<text x="0.883" y="0.592" font-size="0.033975" fill="hsl(0.0,100%,20%)">dneto</text>
<text x="0.952" y="0.448" font-size="0.034852" fill="hsl(0.0,100%,20%)">jrprice</text>
<text x="1.065" y="0.769" font-size="0.077494" fill="hsl(0.0,100%,20%)">dsinclair</text>
<text x="1.759" y="0.409" font-size="0.069378" fill="hsl(180.0,100%,20%)">enga</text>
<text x="0.412" y="0.461" font-size="0.005493" fill="hsl(0.0,100%,20%)">alanbaker</text>
<text x="1.361" y="0.163" font-size="0.027329" fill="hsl(180.0,100%,20%)">bajones</text>
<text x="1.772" y="0.673" font-size="0.002747" fill="hsl(0.0,100%,20%)">sugoi</text>
<text x="1.538" y="-0.095" font-size="0.002747" fill="hsl(0.0,100%,20%)">armansito</text>
<text x="1.233" y="0.669" font-size="0.068612" fill="hsl(180.0,100%,20%)">cwallez</text>
<text x="1.717" y="0.452" font-size="0.038257" fill="hsl(180.0,100%,20%)">lokokung</text>
<text x="1.133" y="0.094" font-size="0.023144" fill="hsl(180.0,100%,20%)">kainino</text>
<text x="1.617" y="0.190" font-size="0.023945" fill="hsl(180.0,100%,20%)">shrekshao</text>
<text x="1.314" y="0.786" font-size="0.014791" fill="hsl(180.0,100%,20%)">yunchao.he</text>
<text x="1.708" y="0.297" font-size="0.014791" fill="hsl(180.0,100%,20%)">brandon1.jones</text>
<text x="0.656" y="0.784" font-size="0.023306" fill="hsl(0.0,100%,20%)">zhaoming.jiang</text>
<text x="0.965" y="0.428" font-size="0.025472" fill="hsl(180.0,100%,20%)">senorblanco</text>
<text x="1.359" y="0.283" font-size="0.010987" fill="hsl(180.0,100%,20%)">ynovikov</text>
<text x="1.293" y="0.850" font-size="0.013733" fill="hsl(180.0,100%,20%)">hogehoge</text>
<text x="1.058" y="0.949" font-size="0.002747" fill="hsl(0.0,100%,20%)">johnstiles</text>
<text x="1.511" y="0.081" font-size="0.002747" fill="hsl(180.0,100%,20%)">gman</text>
<text x="1.970" y="0.482" font-size="0.010987" fill="hsl(180.0,100%,20%)">jie.a.chen</text>
<text x="1.549" y="0.249" font-size="0.002747" fill="hsl(180.0,100%,20%)">sunnyps</text>
<text x="1.445" y="0.390" font-size="0.002747" fill="hsl(180.0,100%,20%)">zmo</text>
<text x="1.238" y="0.305" font-size="0.003884" fill="hsl(180.0,100%,20%)">bsheedy</text>
<text x="1.842" y="0.320" font-size="0.029455" fill="hsl(180.0,100%,20%)">jiawei.shao</text>
<text x="1.542" y="0.476" font-size="0.013173" fill="hsl(180.0,100%,20%)">hao.x.li</text>
<text x="1.033" y="0.897" font-size="0.004757" fill="hsl(0.0,100%,20%)">jwata</text>
<text x="1.605" y="0.284" font-size="0.014272" fill="hsl(180.0,100%,20%)">shaobo.yan</text>
<text x="0.656" y="0.613" font-size="0.005493" fill="hsl(180.0,100%,20%)">ukai</text>
<text x="0.467" y="0.671" font-size="0.004757" fill="hsl(180.0,100%,20%)">vadimsh</text>
<text x="0.320" y="0.798" font-size="0.002747" fill="hsl(180.0,100%,20%)">deleted</text>
<text x="1.836" y="0.847" font-size="0.005493" fill="hsl(180.0,100%,20%)">wangqing-hf</text>
<text x="1.860" y="0.721" font-size="0.005493" fill="hsl(180.0,100%,20%)">yang.gu</text>
</svg>
