<svg width="4000" height="2000" viewBox="-0.025 -0.025 2.05 1.05" xmlns="http://www.w3.org/2000/svg">
  <style>
    path {
      fill: none;
      stroke-linecap: round;
      stroke-opacity: 0.4;
    }

    text {
      text-anchor: middle;
      alignment-baseline: hanging;
    }
  </style>
  <g opacity="0.4">
<path d="M1.494 0.637 Q1.620 0.499 1.378 0.407" stroke="hsl(0.0,100%,35%)" stroke-width="0.00527"></path>
<path d="M1.494 0.637 Q1.318 0.567 1.142 0.637" stroke="hsl(0.0,100%,35%)" stroke-width="0.00389"></path>
<path d="M1.494 0.637 Q1.279 0.476 0.917 0.545" stroke="hsl(0.0,100%,35%)" stroke-width="0.00023"></path>
<path d="M1.494 0.637 Q1.560 0.535 1.374 0.480" stroke="hsl(0.0,100%,35%)" stroke-width="0.00046"></path>
<path d="M1.378 0.407 Q0.695 0.198 0.138 0.486" stroke="hsl(180.0,100%,35%)" stroke-width="0.00481"></path>
<path d="M1.378 0.407 Q0.769 0.357 0.536 0.643" stroke="hsl(180.0,100%,35%)" stroke-width="0.00023"></path>
<path d="M1.378 0.407 Q1.076 0.475 1.142 0.637" stroke="hsl(180.0,100%,35%)" stroke-width="0.01671"></path>
<path d="M1.378 0.407 Q1.084 0.610 1.416 0.798" stroke="hsl(180.0,100%,35%)" stroke-width="0.00206"></path>
<path d="M1.378 0.407 Q1.037 0.384 0.917 0.545" stroke="hsl(180.0,100%,35%)" stroke-width="0.00160"></path>
<path d="M1.378 0.407 Q1.159 0.352 1.003 0.447" stroke="hsl(180.0,100%,35%)" stroke-width="0.00389"></path>
<path d="M1.378 0.407 Q1.605 0.273 1.394 0.133" stroke="hsl(180.0,100%,35%)" stroke-width="0.00618"></path>
<path d="M1.378 0.407 Q1.252 0.545 1.494 0.637" stroke="hsl(180.0,100%,35%)" stroke-width="0.00069"></path>
<path d="M1.378 0.407 Q1.475 0.370 1.424 0.314" stroke="hsl(180.0,100%,35%)" stroke-width="0.00069"></path>
<path d="M1.378 0.407 Q0.917 0.525 1.047 0.776" stroke="hsl(180.0,100%,35%)" stroke-width="0.00023"></path>
<path d="M1.142 0.637 Q1.150 0.772 1.416 0.798" stroke="hsl(180.0,100%,35%)" stroke-width="0.04900"></path>
<path d="M1.142 0.637 Q1.444 0.569 1.378 0.407" stroke="hsl(180.0,100%,35%)" stroke-width="0.00618"></path>
<path d="M1.142 0.637 Q1.103 0.546 0.917 0.545" stroke="hsl(180.0,100%,35%)" stroke-width="0.06159"></path>
<path d="M1.142 0.637 Q1.225 0.514 1.003 0.447" stroke="hsl(180.0,100%,35%)" stroke-width="0.05564"></path>
<path d="M1.142 0.637 Q1.537 0.527 1.410 0.311" stroke="hsl(180.0,100%,35%)" stroke-width="0.00183"></path>
<path d="M1.142 0.637 Q1.671 0.436 1.394 0.133" stroke="hsl(180.0,100%,35%)" stroke-width="0.02885"></path>
<path d="M1.142 0.637 Q1.464 0.308 0.891 0.078" stroke="hsl(180.0,100%,35%)" stroke-width="0.00046"></path>
<path d="M1.142 0.637 Q0.761 0.361 0.138 0.486" stroke="hsl(180.0,100%,35%)" stroke-width="0.01328"></path>
<path d="M1.142 0.637 Q0.983 0.632 0.939 0.708" stroke="hsl(180.0,100%,35%)" stroke-width="0.00114"></path>
<path d="M1.142 0.637 Q1.384 0.605 1.374 0.480" stroke="hsl(180.0,100%,35%)" stroke-width="0.00046"></path>
<path d="M1.142 0.637 Q0.882 0.410 0.382 0.486" stroke="hsl(180.0,100%,35%)" stroke-width="0.00023"></path>
<path d="M1.142 0.637 Q1.081 0.681 1.153 0.720" stroke="hsl(180.0,100%,35%)" stroke-width="0.00023"></path>
<path d="M1.142 0.637 Q0.743 0.497 0.383 0.661" stroke="hsl(180.0,100%,35%)" stroke-width="0.00023"></path>
<path d="M1.142 0.637 Q1.341 0.742 1.589 0.668" stroke="hsl(180.0,100%,35%)" stroke-width="0.00046"></path>
<path d="M1.142 0.637 Q0.983 0.687 1.047 0.776" stroke="hsl(180.0,100%,35%)" stroke-width="0.00046"></path>
<path d="M0.917 0.545 Q0.956 0.636 1.142 0.637" stroke="hsl(180.0,100%,35%)" stroke-width="0.03389"></path>
<path d="M0.917 0.545 Q1.039 0.513 1.003 0.447" stroke="hsl(180.0,100%,35%)" stroke-width="0.00321"></path>
<path d="M0.917 0.545 Q0.965 0.771 1.416 0.798" stroke="hsl(180.0,100%,35%)" stroke-width="0.00343"></path>
<path d="M0.917 0.545 Q1.486 0.435 1.394 0.133" stroke="hsl(180.0,100%,35%)" stroke-width="0.00206"></path>
<path d="M0.917 0.545 Q0.575 0.360 0.138 0.486" stroke="hsl(180.0,100%,35%)" stroke-width="0.00069"></path>
<path d="M1.374 0.480 Q1.434 0.444 1.378 0.407" stroke="hsl(0.0,100%,35%)" stroke-width="0.00092"></path>
<path d="M1.374 0.480 Q1.132 0.512 1.142 0.637" stroke="hsl(0.0,100%,35%)" stroke-width="0.00137"></path>
<path d="M1.374 0.480 Q1.308 0.582 1.494 0.637" stroke="hsl(0.0,100%,35%)" stroke-width="0.00046"></path>
<path d="M1.374 0.480 Q1.072 0.556 1.153 0.720" stroke="hsl(0.0,100%,35%)" stroke-width="0.00046"></path>
<path d="M1.374 0.480 Q1.141 0.647 1.416 0.798" stroke="hsl(0.0,100%,35%)" stroke-width="0.00023"></path>
<path d="M1.225 0.217 Q0.467 0.134 0.138 0.486" stroke="hsl(0.0,100%,35%)" stroke-width="0.00023"></path>
<path d="M1.225 0.217 Q1.377 0.209 1.394 0.133" stroke="hsl(0.0,100%,35%)" stroke-width="0.00046"></path>
<path d="M1.225 0.217 Q0.848 0.411 1.142 0.637" stroke="hsl(0.0,100%,35%)" stroke-width="0.00023"></path>
<path d="M0.138 0.486 Q0.212 0.644 0.536 0.643" stroke="hsl(0.0,100%,35%)" stroke-width="0.00092"></path>
<path d="M0.138 0.486 Q1.048 0.561 1.394 0.133" stroke="hsl(0.0,100%,35%)" stroke-width="0.01557"></path>
<path d="M0.138 0.486 Q0.519 0.762 1.142 0.637" stroke="hsl(0.0,100%,35%)" stroke-width="0.00321"></path>
<path d="M0.138 0.486 Q0.259 0.535 0.382 0.486" stroke="hsl(0.0,100%,35%)" stroke-width="0.00412"></path>
<path d="M0.138 0.486 Q0.392 0.583 0.638 0.481" stroke="hsl(0.0,100%,35%)" stroke-width="0.00527"></path>
<path d="M0.138 0.486 Q0.841 0.433 0.891 0.078" stroke="hsl(0.0,100%,35%)" stroke-width="0.00252"></path>
<path d="M0.138 0.486 Q0.028 0.614 0.254 0.696" stroke="hsl(0.0,100%,35%)" stroke-width="0.00389"></path>
<path d="M0.138 0.486 Q0.920 0.588 1.290 0.229" stroke="hsl(0.0,100%,35%)" stroke-width="0.00046"></path>
<path d="M0.138 0.486 Q0.480 0.671 0.917 0.545" stroke="hsl(0.0,100%,35%)" stroke-width="0.00023"></path>
<path d="M0.138 0.486 Q0.821 0.694 1.378 0.407" stroke="hsl(0.0,100%,35%)" stroke-width="0.00046"></path>
<path d="M0.138 0.486 Q0.602 0.639 1.003 0.447" stroke="hsl(0.0,100%,35%)" stroke-width="0.00092"></path>
<path d="M0.138 0.486 Q0.328 0.481 0.359 0.387" stroke="hsl(0.0,100%,35%)" stroke-width="0.00046"></path>
<path d="M0.138 0.486 Q0.527 0.897 1.416 0.798" stroke="hsl(0.0,100%,35%)" stroke-width="0.00023"></path>
<path d="M0.138 0.486 Q0.914 0.652 1.410 0.311" stroke="hsl(0.0,100%,35%)" stroke-width="0.00343"></path>
<path d="M0.138 0.486 Q0.959 0.487 1.142 0.087" stroke="hsl(0.0,100%,35%)" stroke-width="0.00069"></path>
<path d="M0.138 0.486 Q0.341 0.535 0.481 0.446" stroke="hsl(0.0,100%,35%)" stroke-width="0.00023"></path>
<path d="M0.138 0.486 Q0.261 0.545 0.403 0.497" stroke="hsl(0.0,100%,35%)" stroke-width="0.00114"></path>
<path d="M1.394 0.133 Q0.738 0.156 0.638 0.481" stroke="hsl(0.0,100%,35%)" stroke-width="0.00435"></path>
<path d="M1.394 0.133 Q0.484 0.058 0.138 0.486" stroke="hsl(0.0,100%,35%)" stroke-width="0.02679"></path>
<path d="M1.394 0.133 Q1.187 0.005 0.891 0.078" stroke="hsl(0.0,100%,35%)" stroke-width="0.00824"></path>
<path d="M1.394 0.133 Q0.865 0.335 1.142 0.637" stroke="hsl(0.0,100%,35%)" stroke-width="0.01351"></path>
<path d="M1.394 0.133 Q0.948 0.212 1.003 0.447" stroke="hsl(0.0,100%,35%)" stroke-width="0.00046"></path>
<path d="M1.394 0.133 Q1.167 0.267 1.378 0.407" stroke="hsl(0.0,100%,35%)" stroke-width="0.00206"></path>
<path d="M1.394 0.133 Q0.605 0.107 0.382 0.486" stroke="hsl(0.0,100%,35%)" stroke-width="0.00229"></path>
<path d="M1.394 0.133 Q1.266 0.160 1.290 0.229" stroke="hsl(0.0,100%,35%)" stroke-width="0.00023"></path>
<path d="M1.394 0.133 Q1.134 0.072 0.957 0.186" stroke="hsl(0.0,100%,35%)" stroke-width="0.00046"></path>
<path d="M1.394 0.133 Q1.000 0.111 0.870 0.298" stroke="hsl(0.0,100%,35%)" stroke-width="0.00023"></path>
<path d="M1.394 0.133 Q0.596 -0.041 0.080 0.310" stroke="hsl(0.0,100%,35%)" stroke-width="0.00023"></path>
<path d="M1.394 0.133 Q1.260 0.225 1.410 0.311" stroke="hsl(0.0,100%,35%)" stroke-width="0.00527"></path>
<path d="M1.394 0.133 Q0.558 0.216 0.536 0.643" stroke="hsl(0.0,100%,35%)" stroke-width="0.00023"></path>
<path d="M1.394 0.133 Q0.374 0.186 0.254 0.696" stroke="hsl(0.0,100%,35%)" stroke-width="0.00275"></path>
<path d="M1.394 0.133 Q0.211 0.238 0.157 0.839" stroke="hsl(0.0,100%,35%)" stroke-width="0.00023"></path>
<path d="M1.394 0.133 Q1.305 0.174 1.364 0.226" stroke="hsl(0.0,100%,35%)" stroke-width="0.00023"></path>
<path d="M1.394 0.133 Q0.873 0.470 1.416 0.798" stroke="hsl(0.0,100%,35%)" stroke-width="0.00023"></path>
<path d="M1.394 0.133 Q1.264 0.230 1.424 0.314" stroke="hsl(0.0,100%,35%)" stroke-width="0.00023"></path>
<path d="M1.394 0.133 Q0.826 0.244 0.917 0.545" stroke="hsl(0.0,100%,35%)" stroke-width="0.00023"></path>
<path d="M0.095 0.647 Q1.155 0.650 1.394 0.133" stroke="hsl(0.0,100%,35%)" stroke-width="0.00023"></path>
<path d="M0.095 0.647 Q0.245 0.575 0.138 0.486" stroke="hsl(0.0,100%,35%)" stroke-width="0.00046"></path>
<path d="M0.095 0.647 Q0.626 0.851 1.142 0.637" stroke="hsl(0.0,100%,35%)" stroke-width="0.00023"></path>
<path d="M1.003 0.447 Q0.920 0.570 1.142 0.637" stroke="hsl(180.0,100%,35%)" stroke-width="0.04488"></path>
<path d="M1.003 0.447 Q0.661 0.342 0.382 0.486" stroke="hsl(180.0,100%,35%)" stroke-width="0.00046"></path>
<path d="M1.003 0.447 Q0.929 0.705 1.416 0.798" stroke="hsl(180.0,100%,35%)" stroke-width="0.00229"></path>
<path d="M1.003 0.447 Q1.449 0.368 1.394 0.133" stroke="hsl(180.0,100%,35%)" stroke-width="0.00343"></path>
<path d="M1.003 0.447 Q0.881 0.479 0.917 0.545" stroke="hsl(180.0,100%,35%)" stroke-width="0.00229"></path>
<path d="M1.003 0.447 Q0.539 0.293 0.138 0.486" stroke="hsl(180.0,100%,35%)" stroke-width="0.00160"></path>
<path d="M1.003 0.447 Q0.762 0.565 0.939 0.708" stroke="hsl(180.0,100%,35%)" stroke-width="0.00046"></path>
<path d="M1.003 0.447 Q1.222 0.502 1.378 0.407" stroke="hsl(180.0,100%,35%)" stroke-width="0.00114"></path>
<path d="M1.003 0.447 Q1.242 0.240 0.891 0.078" stroke="hsl(180.0,100%,35%)" stroke-width="0.00023"></path>
<path d="M1.416 0.798 Q1.408 0.663 1.142 0.637" stroke="hsl(180.0,100%,35%)" stroke-width="0.01694"></path>
<path d="M1.416 0.798 Q1.027 0.386 0.138 0.486" stroke="hsl(180.0,100%,35%)" stroke-width="0.00023"></path>
<path d="M1.416 0.798 Q1.369 0.572 0.917 0.545" stroke="hsl(180.0,100%,35%)" stroke-width="0.00321"></path>
<path d="M1.416 0.798 Q1.491 0.540 1.003 0.447" stroke="hsl(180.0,100%,35%)" stroke-width="0.01236"></path>
<path d="M1.416 0.798 Q1.607 0.767 1.589 0.668" stroke="hsl(180.0,100%,35%)" stroke-width="0.00893"></path>
<path d="M1.416 0.798 Q1.937 0.461 1.394 0.133" stroke="hsl(180.0,100%,35%)" stroke-width="0.00023"></path>
<path d="M1.416 0.798 Q1.710 0.595 1.378 0.407" stroke="hsl(180.0,100%,35%)" stroke-width="0.00046"></path>
<path d="M0.891 0.078 Q0.262 0.289 0.536 0.643" stroke="hsl(0.0,100%,35%)" stroke-width="0.00023"></path>
<path d="M0.891 0.078 Q0.189 0.131 0.138 0.486" stroke="hsl(0.0,100%,35%)" stroke-width="0.00801"></path>
<path d="M0.891 0.078 Q1.099 0.206 1.394 0.133" stroke="hsl(0.0,100%,35%)" stroke-width="0.00733"></path>
<path d="M0.891 0.078 Q0.570 0.408 1.142 0.637" stroke="hsl(0.0,100%,35%)" stroke-width="0.00046"></path>
<path d="M0.891 0.078 Q0.310 0.180 0.382 0.486" stroke="hsl(0.0,100%,35%)" stroke-width="0.00481"></path>
<path d="M0.891 0.078 Q0.653 0.285 1.003 0.447" stroke="hsl(0.0,100%,35%)" stroke-width="0.00023"></path>
<path d="M0.891 0.078 Q1.057 0.103 1.141 0.027" stroke="hsl(0.0,100%,35%)" stroke-width="0.00023"></path>
<path d="M0.536 0.643 Q0.463 0.484 0.138 0.486" stroke="hsl(0.0,100%,35%)" stroke-width="0.00458"></path>
<path d="M0.536 0.643 Q0.584 0.534 0.382 0.486" stroke="hsl(0.0,100%,35%)" stroke-width="0.00069"></path>
<path d="M0.536 0.643 Q0.844 0.761 1.142 0.637" stroke="hsl(0.0,100%,35%)" stroke-width="0.00046"></path>
<path d="M0.536 0.643 Q1.373 0.559 1.394 0.133" stroke="hsl(0.0,100%,35%)" stroke-width="0.00206"></path>
<path d="M0.536 0.643 Q0.927 0.638 1.003 0.447" stroke="hsl(0.0,100%,35%)" stroke-width="0.00023"></path>
<path d="M0.536 0.643 Q1.145 0.693 1.378 0.407" stroke="hsl(0.0,100%,35%)" stroke-width="0.00046"></path>
<path d="M0.382 0.486 Q0.261 0.437 0.138 0.486" stroke="hsl(0.0,100%,35%)" stroke-width="0.00206"></path>
<path d="M0.382 0.486 Q0.515 0.535 0.638 0.481" stroke="hsl(0.0,100%,35%)" stroke-width="0.00046"></path>
<path d="M0.382 0.486 Q1.171 0.512 1.394 0.133" stroke="hsl(0.0,100%,35%)" stroke-width="0.00092"></path>
<path d="M0.382 0.486 Q0.963 0.384 0.891 0.078" stroke="hsl(0.0,100%,35%)" stroke-width="0.00023"></path>
<path d="M1.410 0.311 Q0.634 0.144 0.138 0.486" stroke="hsl(0.0,100%,35%)" stroke-width="0.00412"></path>
<path d="M1.410 0.311 Q1.015 0.420 1.142 0.637" stroke="hsl(0.0,100%,35%)" stroke-width="0.01214"></path>
<path d="M1.410 0.311 Q1.544 0.219 1.394 0.133" stroke="hsl(0.0,100%,35%)" stroke-width="0.00206"></path>
<path d="M1.410 0.311 Q1.023 0.556 1.416 0.798" stroke="hsl(0.0,100%,35%)" stroke-width="0.00069"></path>
<path d="M1.410 0.311 Q1.098 0.297 1.003 0.447" stroke="hsl(0.0,100%,35%)" stroke-width="0.00069"></path>
<path d="M1.410 0.311 Q0.755 0.193 0.382 0.486" stroke="hsl(0.0,100%,35%)" stroke-width="0.00069"></path>
<path d="M0.939 0.708 Q1.098 0.713 1.142 0.637" stroke="hsl(180.0,100%,35%)" stroke-width="0.00801"></path>
<path d="M0.939 0.708 Q1.059 0.623 0.917 0.545" stroke="hsl(180.0,100%,35%)" stroke-width="0.00343"></path>
<path d="M0.939 0.708 Q1.181 0.590 1.003 0.447" stroke="hsl(180.0,100%,35%)" stroke-width="0.00160"></path>
<path d="M0.939 0.708 Q0.838 0.486 0.382 0.486" stroke="hsl(180.0,100%,35%)" stroke-width="0.00046"></path>
<path d="M0.383 0.661 Q0.655 0.622 0.638 0.481" stroke="hsl(0.0,100%,35%)" stroke-width="0.00023"></path>
<path d="M0.383 0.661 Q0.401 0.524 0.138 0.486" stroke="hsl(0.0,100%,35%)" stroke-width="0.00275"></path>
<path d="M0.383 0.661 Q1.311 0.599 1.394 0.133" stroke="hsl(0.0,100%,35%)" stroke-width="0.00206"></path>
<path d="M0.383 0.661 Q0.522 0.574 0.382 0.486" stroke="hsl(0.0,100%,35%)" stroke-width="0.00046"></path>
<path d="M0.383 0.661 Q0.782 0.801 1.142 0.637" stroke="hsl(0.0,100%,35%)" stroke-width="0.00229"></path>
<path d="M0.383 0.661 Q1.084 0.733 1.378 0.407" stroke="hsl(0.0,100%,35%)" stroke-width="0.00023"></path>
<path d="M0.383 0.661 Q0.790 0.936 1.416 0.798" stroke="hsl(0.0,100%,35%)" stroke-width="0.00023"></path>
<path d="M0.383 0.661 Q0.591 0.519 0.359 0.387" stroke="hsl(0.0,100%,35%)" stroke-width="0.00023"></path>
<path d="M0.957 0.186 Q1.218 0.247 1.394 0.133" stroke="hsl(0.0,100%,35%)" stroke-width="0.00092"></path>
<path d="M0.957 0.186 Q0.308 0.172 0.138 0.486" stroke="hsl(0.0,100%,35%)" stroke-width="0.00023"></path>
<path d="M0.957 0.186 Q1.010 0.119 0.891 0.078" stroke="hsl(0.0,100%,35%)" stroke-width="0.00023"></path>
<path d="M0.638 0.481 Q0.505 0.432 0.382 0.486" stroke="hsl(0.0,100%,35%)" stroke-width="0.00069"></path>
<path d="M0.638 0.481 Q0.384 0.383 0.138 0.486" stroke="hsl(0.0,100%,35%)" stroke-width="0.00527"></path>
<path d="M0.638 0.481 Q1.294 0.458 1.394 0.133" stroke="hsl(0.0,100%,35%)" stroke-width="0.00275"></path>
<path d="M1.142 0.087 Q0.321 0.086 0.138 0.486" stroke="hsl(0.0,100%,35%)" stroke-width="0.00275"></path>
<path d="M1.142 0.087 Q1.231 0.161 1.394 0.133" stroke="hsl(0.0,100%,35%)" stroke-width="0.00229"></path>
<path d="M1.142 0.087 Q0.511 0.081 0.359 0.387" stroke="hsl(0.0,100%,35%)" stroke-width="0.00046"></path>
<path d="M1.220 0.176 Q1.341 0.189 1.394 0.133" stroke="hsl(0.0,100%,35%)" stroke-width="0.00160"></path>
<path d="M1.220 0.176 Q0.431 0.114 0.138 0.486" stroke="hsl(0.0,100%,35%)" stroke-width="0.00069"></path>
<path d="M1.220 0.176 Q0.621 0.109 0.359 0.387" stroke="hsl(0.0,100%,35%)" stroke-width="0.00023"></path>
<path d="M1.290 0.229 Q0.582 0.285 0.536 0.643" stroke="hsl(0.0,100%,35%)" stroke-width="0.00023"></path>
<path d="M1.290 0.229 Q0.509 0.127 0.138 0.486" stroke="hsl(0.0,100%,35%)" stroke-width="0.00389"></path>
<path d="M1.290 0.229 Q1.419 0.202 1.394 0.133" stroke="hsl(0.0,100%,35%)" stroke-width="0.00504"></path>
<path d="M1.290 0.229 Q1.211 0.074 0.891 0.078" stroke="hsl(0.0,100%,35%)" stroke-width="0.00023"></path>
<path d="M1.290 0.229 Q0.399 0.255 0.254 0.696" stroke="hsl(0.0,100%,35%)" stroke-width="0.00137"></path>
<path d="M0.080 0.310 Q-0.032 0.409 0.138 0.486" stroke="hsl(0.0,100%,35%)" stroke-width="0.00114"></path>
<path d="M0.080 0.310 Q0.879 0.484 1.394 0.133" stroke="hsl(0.0,100%,35%)" stroke-width="0.00069"></path>
<path d="M0.080 0.310 Q0.651 0.618 1.378 0.407" stroke="hsl(0.0,100%,35%)" stroke-width="0.00023"></path>
<path d="M0.080 0.310 Q0.349 0.686 1.142 0.637" stroke="hsl(0.0,100%,35%)" stroke-width="0.00046"></path>
<path d="M0.080 0.310 Q0.358 0.821 1.416 0.798" stroke="hsl(0.0,100%,35%)" stroke-width="0.00023"></path>
<path d="M0.254 0.696 Q0.364 0.567 0.138 0.486" stroke="hsl(0.0,100%,35%)" stroke-width="0.01236"></path>
<path d="M0.254 0.696 Q1.067 0.514 0.891 0.078" stroke="hsl(0.0,100%,35%)" stroke-width="0.00046"></path>
<path d="M0.254 0.696 Q1.274 0.642 1.394 0.133" stroke="hsl(0.0,100%,35%)" stroke-width="0.01168"></path>
<path d="M0.254 0.696 Q0.618 0.665 0.638 0.481" stroke="hsl(0.0,100%,35%)" stroke-width="0.00023"></path>
<path d="M0.254 0.696 Q0.990 0.617 0.997 0.241" stroke="hsl(0.0,100%,35%)" stroke-width="0.00023"></path>
<path d="M0.254 0.696 Q0.577 0.627 0.513 0.454" stroke="hsl(0.0,100%,35%)" stroke-width="0.00023"></path>
<path d="M0.254 0.696 Q1.140 0.734 1.410 0.311" stroke="hsl(0.0,100%,35%)" stroke-width="0.00046"></path>
<path d="M0.254 0.696 Q0.485 0.617 0.382 0.486" stroke="hsl(0.0,100%,35%)" stroke-width="0.00046"></path>
<path d="M0.254 0.696 Q1.047 0.776 1.378 0.407" stroke="hsl(0.0,100%,35%)" stroke-width="0.00046"></path>
<path d="M0.254 0.696 Q0.745 0.844 1.142 0.637" stroke="hsl(0.0,100%,35%)" stroke-width="0.00023"></path>
<path d="M0.254 0.696 Q1.185 0.569 1.142 0.087" stroke="hsl(0.0,100%,35%)" stroke-width="0.00023"></path>
<path d="M0.254 0.696 Q0.346 0.704 0.383 0.661" stroke="hsl(0.0,100%,35%)" stroke-width="0.00023"></path>
<path d="M0.157 0.839 Q0.320 0.787 0.254 0.696" stroke="hsl(0.0,100%,35%)" stroke-width="0.00069"></path>
<path d="M0.157 0.839 Q0.430 0.658 0.138 0.486" stroke="hsl(0.0,100%,35%)" stroke-width="0.00092"></path>
<path d="M0.157 0.839 Q1.340 0.733 1.394 0.133" stroke="hsl(0.0,100%,35%)" stroke-width="0.00046"></path>
<path d="M0.157 0.839 Q0.619 0.653 0.359 0.387" stroke="hsl(0.0,100%,35%)" stroke-width="0.00046"></path>
<path d="M1.364 0.226 Q1.454 0.186 1.394 0.133" stroke="hsl(0.0,100%,35%)" stroke-width="0.00046"></path>
<path d="M1.364 0.226 Q0.544 0.111 0.138 0.486" stroke="hsl(0.0,100%,35%)" stroke-width="0.00023"></path>
<path d="M0.403 0.497 Q1.190 0.513 1.394 0.133" stroke="hsl(0.0,100%,35%)" stroke-width="0.00710"></path>
<path d="M0.403 0.497 Q0.280 0.438 0.138 0.486" stroke="hsl(0.0,100%,35%)" stroke-width="0.00801"></path>
<path d="M0.403 0.497 Q0.401 0.488 0.382 0.486" stroke="hsl(0.0,100%,35%)" stroke-width="0.00092"></path>
<path d="M0.403 0.497 Q0.170 0.567 0.254 0.696" stroke="hsl(0.0,100%,35%)" stroke-width="0.00137"></path>
<path d="M1.904 0.448 Q1.859 0.409 1.773 0.422" stroke="hsl(0.0,100%,35%)" stroke-width="0.00023"></path>
<path d="M1.904 0.448 Q1.811 0.229 1.364 0.226" stroke="hsl(0.0,100%,35%)" stroke-width="0.00023"></path>
<path d="M1.904 0.448 Q1.901 0.188 1.394 0.133" stroke="hsl(0.0,100%,35%)" stroke-width="0.00023"></path>
<path d="M0.997 0.241 Q0.854 0.155 0.655 0.206" stroke="hsl(0.0,100%,35%)" stroke-width="0.00023"></path>
<path d="M0.997 0.241 Q0.493 0.240 0.382 0.486" stroke="hsl(0.0,100%,35%)" stroke-width="0.00114"></path>
<path d="M0.997 0.241 Q1.282 0.266 1.394 0.133" stroke="hsl(0.0,100%,35%)" stroke-width="0.00389"></path>
<path d="M0.997 0.241 Q0.372 0.191 0.138 0.486" stroke="hsl(0.0,100%,35%)" stroke-width="0.00275"></path>
<path d="M0.997 0.241 Q0.262 0.319 0.254 0.696" stroke="hsl(0.0,100%,35%)" stroke-width="0.00046"></path>
<path d="M0.997 0.241 Q0.752 0.468 1.142 0.637" stroke="hsl(0.0,100%,35%)" stroke-width="0.00023"></path>
<path d="M0.513 0.454 Q0.301 0.395 0.138 0.486" stroke="hsl(0.0,100%,35%)" stroke-width="0.00252"></path>
<path d="M0.513 0.454 Q0.191 0.523 0.254 0.696" stroke="hsl(0.0,100%,35%)" stroke-width="0.00023"></path>
<path d="M0.513 0.454 Q1.211 0.470 1.394 0.133" stroke="hsl(0.0,100%,35%)" stroke-width="0.00252"></path>
<path d="M0.513 0.454 Q0.422 0.444 0.382 0.486" stroke="hsl(0.0,100%,35%)" stroke-width="0.00046"></path>
<path d="M1.192 0.144 Q1.302 0.179 1.394 0.133" stroke="hsl(0.0,100%,35%)" stroke-width="0.00114"></path>
<path d="M1.192 0.144 Q0.392 0.104 0.138 0.486" stroke="hsl(0.0,100%,35%)" stroke-width="0.00114"></path>
<path d="M1.192 0.144 Q0.282 0.232 0.254 0.696" stroke="hsl(0.0,100%,35%)" stroke-width="0.00023"></path>
<path d="M0.315 0.706 Q1.313 0.635 1.394 0.133" stroke="hsl(0.0,100%,35%)" stroke-width="0.00275"></path>
<path d="M0.315 0.706 Q0.403 0.560 0.138 0.486" stroke="hsl(0.0,100%,35%)" stroke-width="0.00229"></path>
<path d="M0.315 0.706 Q0.373 0.787 0.543 0.777" stroke="hsl(0.0,100%,35%)" stroke-width="0.00023"></path>
<path d="M0.315 0.706 Q0.293 0.689 0.254 0.696" stroke="hsl(0.0,100%,35%)" stroke-width="0.00069"></path>
<path d="M1.614 0.312 Q1.420 0.312 1.378 0.407" stroke="hsl(0.0,100%,35%)" stroke-width="0.00023"></path>
<path d="M1.614 0.312 Q1.647 0.179 1.394 0.133" stroke="hsl(0.0,100%,35%)" stroke-width="0.00046"></path>
<path d="M1.614 0.312 Q0.858 0.153 0.382 0.486" stroke="hsl(0.0,100%,35%)" stroke-width="0.00023"></path>
<path d="M1.614 0.312 Q0.737 0.104 0.138 0.486" stroke="hsl(0.0,100%,35%)" stroke-width="0.00023"></path>
<path d="M0.140 0.382 Q0.310 0.531 0.638 0.481" stroke="hsl(0.0,100%,35%)" stroke-width="0.00046"></path>
<path d="M0.140 0.382 Q0.056 0.433 0.138 0.486" stroke="hsl(0.0,100%,35%)" stroke-width="0.00069"></path>
<path d="M0.140 0.382 Q0.966 0.508 1.394 0.133" stroke="hsl(0.0,100%,35%)" stroke-width="0.00023"></path>
<path d="M1.232 0.918 Q1.056 0.874 0.933 0.950" stroke="hsl(0.0,100%,35%)" stroke-width="0.00023"></path>
<path d="M1.232 0.918 Q1.031 0.483 0.138 0.486" stroke="hsl(0.0,100%,35%)" stroke-width="0.00023"></path>
<path d="M1.323 0.276 Q0.563 0.144 0.138 0.486" stroke="hsl(0.0,100%,35%)" stroke-width="0.00092"></path>
<path d="M1.323 0.276 Q1.473 0.219 1.394 0.133" stroke="hsl(0.0,100%,35%)" stroke-width="0.00137"></path>
<path d="M1.323 0.276 Q0.684 0.193 0.382 0.486" stroke="hsl(0.0,100%,35%)" stroke-width="0.00023"></path>
<path d="M0.904 0.200 Q0.975 0.398 1.378 0.407" stroke="hsl(0.0,100%,35%)" stroke-width="0.00046"></path>
<path d="M0.904 0.200 Q1.203 0.265 1.394 0.133" stroke="hsl(0.0,100%,35%)" stroke-width="0.00046"></path>
<path d="M0.904 0.200 Q0.673 0.466 1.142 0.637" stroke="hsl(0.0,100%,35%)" stroke-width="0.00023"></path>
<path d="M1.689 0.188 Q1.586 0.102 1.394 0.133" stroke="hsl(0.0,100%,35%)" stroke-width="0.00023"></path>
<path d="M1.689 0.188 Q1.457 0.129 1.290 0.229" stroke="hsl(0.0,100%,35%)" stroke-width="0.00023"></path>
<path d="M1.689 0.188 Q0.566 0.155 0.254 0.696" stroke="hsl(0.0,100%,35%)" stroke-width="0.00023"></path>
<path d="M1.107 0.021 Q1.161 0.134 1.394 0.133" stroke="hsl(0.0,100%,35%)" stroke-width="0.00069"></path>
<path d="M1.107 0.021 Q0.141 0.188 0.254 0.696" stroke="hsl(0.0,100%,35%)" stroke-width="0.00046"></path>
<path d="M1.107 0.021 Q0.251 0.059 0.138 0.486" stroke="hsl(0.0,100%,35%)" stroke-width="0.00023"></path>
</g>
<text x="1.494" y="0.628" font-size="0.017544" fill="hsl(0.0,100%,20%)">afdx</text>
<text x="1.378" y="0.387" font-size="0.039474" fill="hsl(180.0,100%,20%)">rharrison</text>
<text x="1.142" y="0.585" font-size="0.103079" fill="hsl(180.0,100%,20%)">bclayton</text>
<text x="0.917" y="0.517" font-size="0.057018" fill="hsl(180.0,100%,20%)">amaiorano</text>
<text x="1.374" y="0.474" font-size="0.011038" fill="hsl(0.0,100%,20%)">vasniktel</text>
<text x="1.225" y="0.215" font-size="0.005065" fill="hsl(0.0,100%,20%)">aleksi</text>
<text x="0.138" y="0.452" font-size="0.066901" fill="hsl(0.0,100%,20%)">enga</text>
<text x="1.394" y="0.097" font-size="0.072291" fill="hsl(0.0,100%,20%)">cwallez</text>
<text x="0.095" y="0.644" font-size="0.005065" fill="hsl(0.0,100%,20%)">aleksi.sapon</text>
<text x="1.003" y="0.416" font-size="0.061716" fill="hsl(180.0,100%,20%)">jrprice</text>
<text x="1.416" y="0.771" font-size="0.053177" fill="hsl(180.0,100%,20%)">dneto</text>
<text x="0.891" y="0.063" font-size="0.030806" fill="hsl(0.0,100%,20%)">bajones</text>
<text x="0.536" y="0.634" font-size="0.016987" fill="hsl(0.0,100%,20%)">shrekshao</text>
<text x="0.382" y="0.474" font-size="0.024811" fill="hsl(0.0,100%,20%)">kainino</text>
<text x="1.141" y="0.026" font-size="0.002532" fill="hsl(0.0,100%,20%)">headlessclayton</text>
<text x="1.410" y="0.296" font-size="0.029639" fill="hsl(0.0,100%,20%)">senorblanco</text>
<text x="0.939" y="0.698" font-size="0.020572" fill="hsl(180.0,100%,20%)">sarahmashay</text>
<text x="1.153" y="0.718" font-size="0.004386" fill="hsl(0.0,100%,20%)">allydonaldson</text>
<text x="0.383" y="0.653" font-size="0.015814" fill="hsl(0.0,100%,20%)">brandon1.jones</text>
<text x="1.589" y="0.659" font-size="0.016214" fill="hsl(180.0,100%,20%)">alanbaker</text>
<text x="1.047" y="0.774" font-size="0.004386" fill="hsl(180.0,100%,20%)">dsinclair</text>
<text x="0.957" y="0.182" font-size="0.007162" fill="hsl(0.0,100%,20%)">beaufort.francois</text>
<text x="0.638" y="0.469" font-size="0.023483" fill="hsl(0.0,100%,20%)">lokokung</text>
<text x="0.359" y="0.383" font-size="0.007162" fill="hsl(0.0,100%,20%)">rafael.cintron</text>
<text x="1.142" y="0.080" font-size="0.013399" fill="hsl(0.0,100%,20%)">bryan.bernhart</text>
<text x="1.220" y="0.172" font-size="0.008399" fill="hsl(0.0,100%,20%)">cjj19970505</text>
<text x="1.290" y="0.220" font-size="0.018084" fill="hsl(0.0,100%,20%)">hao.x.li</text>
<text x="0.870" y="0.297" font-size="0.002532" fill="hsl(0.0,100%,20%)">fbeaufort</text>
<text x="0.080" y="0.305" font-size="0.009130" fill="hsl(0.0,100%,20%)">rockot</text>
<text x="0.254" y="0.679" font-size="0.033307" fill="hsl(0.0,100%,20%)">jiawei.shao</text>
<text x="0.157" y="0.834" font-size="0.008772" fill="hsl(0.0,100%,20%)">jiajia.qin</text>
<text x="1.364" y="0.224" font-size="0.005662" fill="hsl(0.0,100%,20%)">thakis</text>
<text x="1.424" y="0.312" font-size="0.005065" fill="hsl(0.0,100%,20%)">jmadill</text>
<text x="0.481" y="0.445" font-size="0.002532" fill="hsl(0.0,100%,20%)">hob</text>
<text x="0.403" y="0.486" font-size="0.022790" fill="hsl(0.0,100%,20%)">yunchao.he</text>
<text x="1.904" y="0.446" font-size="0.004386" fill="hsl(0.0,100%,20%)">hans</text>
<text x="1.773" y="0.421" font-size="0.002532" fill="hsl(0.0,100%,20%)">hwennborg</text>
<text x="0.997" y="0.233" font-size="0.015814" fill="hsl(0.0,100%,20%)">zhaoming.jiang</text>
<text x="0.513" y="0.448" font-size="0.012912" fill="hsl(0.0,100%,20%)">shaobo.yan</text>
<text x="1.192" y="0.140" font-size="0.008399" fill="hsl(0.0,100%,20%)">jie.a.chen</text>
<text x="0.315" y="0.700" font-size="0.012912" fill="hsl(0.0,100%,20%)">junwei.fu</text>
<text x="0.543" y="0.775" font-size="0.002532" fill="hsl(0.0,100%,20%)">ningxin.hu</text>
<text x="1.614" y="0.309" font-size="0.005662" fill="hsl(0.0,100%,20%)">pkasting</text>
<text x="0.140" y="0.379" font-size="0.006203" fill="hsl(0.0,100%,20%)">sunnyps</text>
<text x="1.232" y="0.916" font-size="0.003581" fill="hsl(0.0,100%,20%)">svenzheng</text>
<text x="0.933" y="0.949" font-size="0.002532" fill="hsl(0.0,100%,20%)">lgrey</text>
<text x="1.323" y="0.272" font-size="0.008399" fill="hsl(0.0,100%,20%)">tangm</text>
<text x="0.904" y="0.197" font-size="0.005662" fill="hsl(0.0,100%,20%)">vadimsh</text>
<text x="1.689" y="0.186" font-size="0.004386" fill="hsl(0.0,100%,20%)">xinghua.cao</text>
<text x="1.107" y="0.018" font-size="0.006203" fill="hsl(0.0,100%,20%)">yang.gu</text>
<text x="0.655" y="0.204" font-size="0.002532" fill="hsl(0.0,100%,20%)">ynovikov</text>
</svg>
