<svg width="4000" height="2000" viewBox="-0.025 -0.025 2.05 1.05" xmlns="http://www.w3.org/2000/svg">
  <style>
    path {
      fill: none;
      stroke-linecap: round;
      stroke-opacity: 0.4;
    }

    text {
      text-anchor: middle;
      alignment-baseline: hanging;
    }
  </style>
  <g opacity="0.4">
<path d="M0.917 0.548 Q1.033 0.505 0.973 0.438" stroke="hsl(0.0,100%,35%)" stroke-width="0.01111"></path>
<path d="M0.917 0.548 Q0.971 0.338 0.573 0.266" stroke="hsl(0.0,100%,35%)" stroke-width="0.00823"></path>
<path d="M0.917 0.548 Q1.028 0.406 0.776 0.320" stroke="hsl(0.0,100%,35%)" stroke-width="0.00288"></path>
<path d="M0.917 0.548 Q0.884 0.482 0.748 0.484" stroke="hsl(0.0,100%,35%)" stroke-width="0.00123"></path>
<path d="M0.917 0.548 Q1.458 0.355 1.201 0.049" stroke="hsl(0.0,100%,35%)" stroke-width="0.00082"></path>
<path d="M0.917 0.548 Q1.259 0.416 1.076 0.220" stroke="hsl(0.0,100%,35%)" stroke-width="0.00247"></path>
<path d="M0.973 0.438 Q0.857 0.482 0.917 0.548" stroke="hsl(0.0,100%,35%)" stroke-width="0.02633"></path>
<path d="M0.973 0.438 Q0.825 0.416 0.748 0.484" stroke="hsl(0.0,100%,35%)" stroke-width="0.04361"></path>
<path d="M0.973 0.438 Q0.969 0.340 0.776 0.320" stroke="hsl(0.0,100%,35%)" stroke-width="0.02098"></path>
<path d="M0.973 0.438 Q0.937 0.613 1.270 0.670" stroke="hsl(0.0,100%,35%)" stroke-width="0.00494"></path>
<path d="M0.973 0.438 Q1.200 0.350 1.076 0.220" stroke="hsl(0.0,100%,35%)" stroke-width="0.04649"></path>
<path d="M0.973 0.438 Q1.399 0.289 1.201 0.049" stroke="hsl(0.0,100%,35%)" stroke-width="0.00082"></path>
<path d="M0.973 0.438 Q0.895 0.327 0.660 0.341" stroke="hsl(0.0,100%,35%)" stroke-width="0.00041"></path>
<path d="M0.973 0.438 Q0.911 0.272 0.573 0.266" stroke="hsl(0.0,100%,35%)" stroke-width="0.01193"></path>
<path d="M0.973 0.438 Q1.123 0.413 1.107 0.335" stroke="hsl(0.0,100%,35%)" stroke-width="0.00041"></path>
<path d="M0.973 0.438 Q0.622 0.342 0.355 0.492" stroke="hsl(0.0,100%,35%)" stroke-width="0.00082"></path>
<path d="M0.973 0.438 Q1.396 0.362 1.340 0.139" stroke="hsl(0.0,100%,35%)" stroke-width="0.00082"></path>
<path d="M0.973 0.438 Q1.384 0.545 1.682 0.369" stroke="hsl(0.0,100%,35%)" stroke-width="0.00041"></path>
<path d="M0.973 0.438 Q1.002 0.511 1.150 0.513" stroke="hsl(0.0,100%,35%)" stroke-width="0.00041"></path>
<path d="M0.573 0.266 Q0.955 0.269 1.045 0.083" stroke="hsl(180.0,100%,35%)" stroke-width="0.01769"></path>
<path d="M0.573 0.266 Q1.061 0.283 1.201 0.049" stroke="hsl(180.0,100%,35%)" stroke-width="0.00658"></path>
<path d="M0.573 0.266 Q0.631 0.334 0.776 0.320" stroke="hsl(180.0,100%,35%)" stroke-width="0.00864"></path>
<path d="M0.573 0.266 Q0.869 0.597 1.580 0.526" stroke="hsl(180.0,100%,35%)" stroke-width="0.00041"></path>
<path d="M0.573 0.266 Q0.519 0.476 0.917 0.548" stroke="hsl(180.0,100%,35%)" stroke-width="0.00123"></path>
<path d="M0.573 0.266 Q0.284 0.335 0.355 0.492" stroke="hsl(180.0,100%,35%)" stroke-width="0.00165"></path>
<path d="M0.573 0.266 Q0.862 0.343 1.076 0.220" stroke="hsl(180.0,100%,35%)" stroke-width="0.00082"></path>
<path d="M0.573 0.266 Q0.635 0.432 0.973 0.438" stroke="hsl(180.0,100%,35%)" stroke-width="0.00123"></path>
<path d="M0.573 0.266 Q0.427 0.254 0.372 0.323" stroke="hsl(180.0,100%,35%)" stroke-width="0.00082"></path>
<path d="M0.573 0.266 Q0.486 0.410 0.748 0.484" stroke="hsl(180.0,100%,35%)" stroke-width="0.00041"></path>
<path d="M0.573 0.266 Q0.450 0.295 0.479 0.361" stroke="hsl(180.0,100%,35%)" stroke-width="0.00041"></path>
<path d="M0.776 0.320 Q0.780 0.419 0.973 0.438" stroke="hsl(180.0,100%,35%)" stroke-width="0.01563"></path>
<path d="M0.776 0.320 Q1.007 0.330 1.076 0.220" stroke="hsl(180.0,100%,35%)" stroke-width="0.00123"></path>
<path d="M0.776 0.320 Q1.101 0.256 1.045 0.083" stroke="hsl(180.0,100%,35%)" stroke-width="0.01522"></path>
<path d="M0.776 0.320 Q0.718 0.253 0.573 0.266" stroke="hsl(180.0,100%,35%)" stroke-width="0.02551"></path>
<path d="M0.776 0.320 Q1.190 0.526 1.682 0.369" stroke="hsl(180.0,100%,35%)" stroke-width="0.00041"></path>
<path d="M0.776 0.320 Q1.508 -0.248 0.560 -0.729" stroke="hsl(180.0,100%,35%)" stroke-width="0.00041"></path>
<path d="M0.776 0.320 Q0.702 0.307 0.660 0.341" stroke="hsl(180.0,100%,35%)" stroke-width="0.00082"></path>
<path d="M0.776 0.320 Q1.206 0.269 1.201 0.049" stroke="hsl(180.0,100%,35%)" stroke-width="0.00165"></path>
<path d="M0.776 0.320 Q0.429 0.322 0.355 0.492" stroke="hsl(180.0,100%,35%)" stroke-width="0.00123"></path>
<path d="M0.776 0.320 Q0.351 0.507 0.623 0.756" stroke="hsl(180.0,100%,35%)" stroke-width="0.00041"></path>
<path d="M0.776 0.320 Q0.664 0.462 0.917 0.548" stroke="hsl(180.0,100%,35%)" stroke-width="0.00041"></path>
<path d="M0.776 0.320 Q0.595 0.281 0.479 0.361" stroke="hsl(180.0,100%,35%)" stroke-width="0.00041"></path>
<path d="M0.776 0.320 Q0.572 0.241 0.372 0.323" stroke="hsl(180.0,100%,35%)" stroke-width="0.00123"></path>
<path d="M0.776 0.320 Q1.591 -0.221 0.713 -0.737" stroke="hsl(180.0,100%,35%)" stroke-width="0.00041"></path>
<path d="M0.776 0.320 Q1.203 0.343 1.340 0.139" stroke="hsl(180.0,100%,35%)" stroke-width="0.00041"></path>
<path d="M0.776 0.320 Q0.314 0.445 0.456 0.698" stroke="hsl(180.0,100%,35%)" stroke-width="0.00041"></path>
<path d="M0.748 0.484 Q0.897 0.506 0.973 0.438" stroke="hsl(0.0,100%,35%)" stroke-width="0.02468"></path>
<path d="M0.748 0.484 Q0.860 0.681 1.270 0.670" stroke="hsl(0.0,100%,35%)" stroke-width="0.00658"></path>
<path d="M0.748 0.484 Q0.781 0.550 0.917 0.548" stroke="hsl(0.0,100%,35%)" stroke-width="0.00123"></path>
<path d="M0.748 0.484 Q1.123 0.417 1.076 0.220" stroke="hsl(0.0,100%,35%)" stroke-width="0.00453"></path>
<path d="M0.748 0.484 Q0.545 0.409 0.355 0.492" stroke="hsl(0.0,100%,35%)" stroke-width="0.00123"></path>
<path d="M0.748 0.484 Q0.893 0.408 0.776 0.320" stroke="hsl(0.0,100%,35%)" stroke-width="0.00206"></path>
<path d="M0.748 0.484 Q0.835 0.340 0.573 0.266" stroke="hsl(0.0,100%,35%)" stroke-width="0.00165"></path>
<path d="M0.748 0.484 Q0.824 0.566 1.002 0.547" stroke="hsl(0.0,100%,35%)" stroke-width="0.00041"></path>
<path d="M1.201 0.049 Q0.771 0.100 0.776 0.320" stroke="hsl(180.0,100%,35%)" stroke-width="0.00453"></path>
<path d="M1.201 0.049 Q1.095 0.035 1.045 0.083" stroke="hsl(180.0,100%,35%)" stroke-width="0.00494"></path>
<path d="M1.201 0.049 Q0.713 0.032 0.573 0.266" stroke="hsl(180.0,100%,35%)" stroke-width="0.00288"></path>
<path d="M1.201 0.049 Q0.775 0.198 0.973 0.438" stroke="hsl(180.0,100%,35%)" stroke-width="0.00041"></path>
<path d="M1.201 0.049 Q0.438 0.070 0.312 0.447" stroke="hsl(180.0,100%,35%)" stroke-width="0.00041"></path>
<path d="M1.201 0.049 Q1.009 0.363 1.580 0.526" stroke="hsl(180.0,100%,35%)" stroke-width="0.00041"></path>
<path d="M1.076 0.220 Q0.850 0.308 0.973 0.438" stroke="hsl(0.0,100%,35%)" stroke-width="0.03456"></path>
<path d="M1.076 0.220 Q0.734 0.352 0.917 0.548" stroke="hsl(0.0,100%,35%)" stroke-width="0.00288"></path>
<path d="M1.076 0.220 Q1.260 0.415 1.682 0.369" stroke="hsl(0.0,100%,35%)" stroke-width="0.00165"></path>
<path d="M1.076 0.220 Q1.083 0.473 1.580 0.526" stroke="hsl(0.0,100%,35%)" stroke-width="0.00041"></path>
<path d="M1.076 0.220 Q0.777 0.369 1.002 0.547" stroke="hsl(0.0,100%,35%)" stroke-width="0.00041"></path>
<path d="M1.076 0.220 Q0.701 0.286 0.748 0.484" stroke="hsl(0.0,100%,35%)" stroke-width="0.01070"></path>
<path d="M1.076 0.220 Q0.845 0.210 0.776 0.320" stroke="hsl(0.0,100%,35%)" stroke-width="0.00288"></path>
<path d="M1.076 0.220 Q1.272 0.232 1.340 0.139" stroke="hsl(0.0,100%,35%)" stroke-width="0.00082"></path>
<path d="M1.076 0.220 Q0.787 0.142 0.573 0.266" stroke="hsl(0.0,100%,35%)" stroke-width="0.00123"></path>
<path d="M1.076 0.220 Q1.326 0.224 1.390 0.103" stroke="hsl(0.0,100%,35%)" stroke-width="0.00041"></path>
<path d="M0.631 -0.685 Q-0.097 -0.055 0.973 0.438" stroke="hsl(180.0,100%,35%)" stroke-width="0.00082"></path>
<path d="M0.631 -0.685 Q-0.101 -0.153 0.776 0.320" stroke="hsl(180.0,100%,35%)" stroke-width="0.00082"></path>
<path d="M0.660 0.341 Q0.735 0.354 0.776 0.320" stroke="hsl(180.0,100%,35%)" stroke-width="0.00987"></path>
<path d="M0.660 0.341 Q0.677 0.286 0.573 0.266" stroke="hsl(180.0,100%,35%)" stroke-width="0.00082"></path>
<path d="M0.660 0.341 Q0.755 0.150 0.403 0.061" stroke="hsl(180.0,100%,35%)" stroke-width="0.00041"></path>
<path d="M0.660 0.341 Q0.739 0.452 0.973 0.438" stroke="hsl(180.0,100%,35%)" stroke-width="0.00288"></path>
<path d="M1.437 0.148 Q0.969 0.102 0.776 0.320" stroke="hsl(180.0,100%,35%)" stroke-width="0.00082"></path>
<path d="M1.437 0.148 Q1.398 0.051 1.201 0.049" stroke="hsl(180.0,100%,35%)" stroke-width="0.00082"></path>
<path d="M1.437 0.148 Q1.207 0.366 1.580 0.526" stroke="hsl(180.0,100%,35%)" stroke-width="0.00041"></path>
<path d="M1.437 0.148 Q1.293 0.037 1.045 0.083" stroke="hsl(180.0,100%,35%)" stroke-width="0.00041"></path>
<path d="M1.437 0.148 Q0.973 0.201 0.973 0.438" stroke="hsl(180.0,100%,35%)" stroke-width="0.00041"></path>
<path d="M1.437 0.148 Q0.911 0.034 0.573 0.266" stroke="hsl(180.0,100%,35%)" stroke-width="0.00041"></path>
<path d="M1.580 0.526 Q1.285 0.194 0.573 0.266" stroke="hsl(180.0,100%,35%)" stroke-width="0.00782"></path>
<path d="M1.580 0.526 Q1.757 0.467 1.682 0.369" stroke="hsl(180.0,100%,35%)" stroke-width="0.00617"></path>
<path d="M1.580 0.526 Q1.573 0.272 1.076 0.220" stroke="hsl(180.0,100%,35%)" stroke-width="0.00082"></path>
<path d="M1.580 0.526 Q1.198 0.338 0.748 0.484" stroke="hsl(180.0,100%,35%)" stroke-width="0.00041"></path>
<path d="M1.580 0.526 Q1.772 0.211 1.201 0.049" stroke="hsl(180.0,100%,35%)" stroke-width="0.00041"></path>
<path d="M1.580 0.526 Q0.995 0.264 0.355 0.492" stroke="hsl(180.0,100%,35%)" stroke-width="0.00041"></path>
<path d="M1.580 0.526 Q1.667 0.197 1.045 0.083" stroke="hsl(180.0,100%,35%)" stroke-width="0.00082"></path>
<path d="M1.580 0.526 Q1.347 0.361 0.973 0.438" stroke="hsl(180.0,100%,35%)" stroke-width="0.00123"></path>
<path d="M1.580 0.526 Q1.343 0.262 0.776 0.320" stroke="hsl(180.0,100%,35%)" stroke-width="0.00041"></path>
<path d="M1.045 0.083 Q0.663 0.080 0.573 0.266" stroke="hsl(180.0,100%,35%)" stroke-width="0.01851"></path>
<path d="M1.045 0.083 Q1.151 0.097 1.201 0.049" stroke="hsl(180.0,100%,35%)" stroke-width="0.00453"></path>
<path d="M1.045 0.083 Q0.721 0.148 0.776 0.320" stroke="hsl(180.0,100%,35%)" stroke-width="0.00946"></path>
<path d="M1.045 0.083 Q0.652 0.307 1.002 0.547" stroke="hsl(180.0,100%,35%)" stroke-width="0.00041"></path>
<path d="M1.045 0.083 Q0.609 0.290 0.917 0.548" stroke="hsl(180.0,100%,35%)" stroke-width="0.00041"></path>
<path d="M1.045 0.083 Q0.854 0.037 0.722 0.120" stroke="hsl(180.0,100%,35%)" stroke-width="0.00041"></path>
<path d="M1.045 0.083 Q0.725 0.246 0.973 0.438" stroke="hsl(180.0,100%,35%)" stroke-width="0.00082"></path>
<path d="M1.045 0.083 Q0.959 0.411 1.580 0.526" stroke="hsl(180.0,100%,35%)" stroke-width="0.00082"></path>
<path d="M0.355 0.492 Q0.703 0.490 0.776 0.320" stroke="hsl(180.0,100%,35%)" stroke-width="0.00041"></path>
<path d="M0.355 0.492 Q0.645 0.422 0.573 0.266" stroke="hsl(180.0,100%,35%)" stroke-width="0.00370"></path>
<path d="M0.355 0.492 Q1.133 0.439 1.201 0.049" stroke="hsl(180.0,100%,35%)" stroke-width="0.00206"></path>
<path d="M0.355 0.492 Q1.027 0.426 1.045 0.083" stroke="hsl(180.0,100%,35%)" stroke-width="0.00082"></path>
<path d="M0.355 0.492 Q0.591 0.632 0.917 0.548" stroke="hsl(180.0,100%,35%)" stroke-width="0.00041"></path>
<path d="M0.355 0.492 Q0.670 0.764 1.270 0.670" stroke="hsl(180.0,100%,35%)" stroke-width="0.00041"></path>
<path d="M0.355 0.492 Q0.941 0.754 1.580 0.526" stroke="hsl(180.0,100%,35%)" stroke-width="0.00041"></path>
<path d="M1.270 0.670 Q1.307 0.495 0.973 0.438" stroke="hsl(0.0,100%,35%)" stroke-width="0.00494"></path>
<path d="M1.270 0.670 Q1.158 0.472 0.748 0.484" stroke="hsl(0.0,100%,35%)" stroke-width="0.00411"></path>
<path d="M1.270 0.670 Q1.190 0.538 0.917 0.548" stroke="hsl(0.0,100%,35%)" stroke-width="0.00041"></path>
<path d="M1.270 0.670 Q1.086 0.648 1.003 0.732" stroke="hsl(0.0,100%,35%)" stroke-width="0.00082"></path>
<path d="M1.270 0.670 Q1.244 0.328 0.573 0.266" stroke="hsl(0.0,100%,35%)" stroke-width="0.00082"></path>
<path d="M1.270 0.670 Q1.533 0.406 1.076 0.220" stroke="hsl(0.0,100%,35%)" stroke-width="0.00165"></path>
<path d="M1.340 0.139 Q0.855 0.049 0.573 0.266" stroke="hsl(0.0,100%,35%)" stroke-width="0.00041"></path>
<path d="M1.340 0.139 Q1.144 0.127 1.076 0.220" stroke="hsl(0.0,100%,35%)" stroke-width="0.00123"></path>
<path d="M1.340 0.139 Q0.917 0.216 0.973 0.438" stroke="hsl(0.0,100%,35%)" stroke-width="0.00041"></path>
<path d="M1.682 0.369 Q1.272 0.262 0.973 0.438" stroke="hsl(180.0,100%,35%)" stroke-width="0.00658"></path>
<path d="M1.682 0.369 Q1.210 0.095 0.573 0.266" stroke="hsl(180.0,100%,35%)" stroke-width="0.00617"></path>
<path d="M1.682 0.369 Q1.498 0.173 1.076 0.220" stroke="hsl(180.0,100%,35%)" stroke-width="0.00165"></path>
<path d="M1.682 0.369 Q1.592 0.099 1.045 0.083" stroke="hsl(180.0,100%,35%)" stroke-width="0.00041"></path>
<path d="M1.682 0.369 Q0.920 0.165 0.355 0.492" stroke="hsl(180.0,100%,35%)" stroke-width="0.00041"></path>
<path d="M1.682 0.369 Q1.505 0.427 1.580 0.526" stroke="hsl(180.0,100%,35%)" stroke-width="0.00041"></path>
<path d="M1.682 0.369 Q1.199 0.322 1.002 0.547" stroke="hsl(180.0,100%,35%)" stroke-width="0.00082"></path>
<path d="M1.682 0.369 Q1.268 0.163 0.776 0.320" stroke="hsl(180.0,100%,35%)" stroke-width="0.00041"></path>
<path d="M1.682 0.369 Q1.697 0.112 1.201 0.049" stroke="hsl(180.0,100%,35%)" stroke-width="0.00041"></path>
<path d="M0.338 0.513 Q0.711 0.504 0.776 0.320" stroke="hsl(180.0,100%,35%)" stroke-width="0.00823"></path>
<path d="M0.338 0.513 Q1.141 0.453 1.201 0.049" stroke="hsl(180.0,100%,35%)" stroke-width="0.00082"></path>
<path d="M0.338 0.513 Q0.653 0.436 0.573 0.266" stroke="hsl(180.0,100%,35%)" stroke-width="0.00247"></path>
<path d="M0.338 0.513 Q1.036 0.440 1.045 0.083" stroke="hsl(180.0,100%,35%)" stroke-width="0.00123"></path>
<path d="M0.056 0.366 Q0.395 0.419 0.573 0.266" stroke="hsl(180.0,100%,35%)" stroke-width="0.00905"></path>
<path d="M0.056 0.366 Q0.882 0.436 1.201 0.049" stroke="hsl(180.0,100%,35%)" stroke-width="0.00082"></path>
<path d="M0.056 0.366 Q0.683 0.497 1.076 0.220" stroke="hsl(180.0,100%,35%)" stroke-width="0.00041"></path>
<path d="M0.479 0.361 Q0.602 0.332 0.573 0.266" stroke="hsl(180.0,100%,35%)" stroke-width="0.00823"></path>
<path d="M0.479 0.361 Q0.660 0.400 0.776 0.320" stroke="hsl(180.0,100%,35%)" stroke-width="0.00494"></path>
<path d="M0.479 0.361 Q0.664 0.499 0.973 0.438" stroke="hsl(180.0,100%,35%)" stroke-width="0.00041"></path>
<path d="M0.479 0.361 Q0.984 0.335 1.045 0.083" stroke="hsl(180.0,100%,35%)" stroke-width="0.00041"></path>
<path d="M0.348 0.128 Q0.350 0.242 0.573 0.266" stroke="hsl(180.0,100%,35%)" stroke-width="0.00041"></path>
<path d="M0.348 0.128 Q0.412 0.408 0.973 0.438" stroke="hsl(180.0,100%,35%)" stroke-width="0.00041"></path>
<path d="M0.348 0.128 Q0.408 0.310 0.776 0.320" stroke="hsl(180.0,100%,35%)" stroke-width="0.00041"></path>
<path d="M1.002 0.547 Q1.075 0.487 0.973 0.438" stroke="hsl(180.0,100%,35%)" stroke-width="0.00206"></path>
<path d="M1.002 0.547 Q1.395 0.324 1.045 0.083" stroke="hsl(180.0,100%,35%)" stroke-width="0.00206"></path>
<path d="M1.002 0.547 Q1.070 0.389 0.776 0.320" stroke="hsl(180.0,100%,35%)" stroke-width="0.00082"></path>
<path d="M1.002 0.547 Q0.723 0.390 0.355 0.492" stroke="hsl(180.0,100%,35%)" stroke-width="0.00123"></path>
<path d="M1.002 0.547 Q1.013 0.321 0.573 0.266" stroke="hsl(180.0,100%,35%)" stroke-width="0.00494"></path>
<path d="M1.002 0.547 Q1.485 0.594 1.682 0.369" stroke="hsl(180.0,100%,35%)" stroke-width="0.00288"></path>
<path d="M1.002 0.547 Q0.959 0.531 0.917 0.548" stroke="hsl(180.0,100%,35%)" stroke-width="0.00082"></path>
<path d="M0.301 0.620 Q1.103 0.501 1.045 0.083" stroke="hsl(180.0,100%,35%)" stroke-width="0.00041"></path>
<path d="M0.301 0.620 Q0.778 0.565 0.776 0.320" stroke="hsl(180.0,100%,35%)" stroke-width="0.00247"></path>
<path d="M0.301 0.620 Q0.720 0.498 0.573 0.266" stroke="hsl(180.0,100%,35%)" stroke-width="0.00288"></path>
<path d="M0.139 0.491 Q0.536 0.465 0.573 0.266" stroke="hsl(180.0,100%,35%)" stroke-width="0.00165"></path>
<path d="M0.139 0.491 Q0.594 0.533 0.776 0.320" stroke="hsl(180.0,100%,35%)" stroke-width="0.00165"></path>
<path d="M0.139 0.491 Q0.097 0.516 0.137 0.542" stroke="hsl(180.0,100%,35%)" stroke-width="0.00082"></path>
<path d="M0.643 0.159 Q0.523 0.198 0.573 0.266" stroke="hsl(180.0,100%,35%)" stroke-width="0.00041"></path>
<path d="M0.643 0.159 Q0.247 0.237 0.312 0.447" stroke="hsl(180.0,100%,35%)" stroke-width="0.00041"></path>
<path d="M0.643 0.159 Q0.580 0.266 0.776 0.320" stroke="hsl(180.0,100%,35%)" stroke-width="0.00041"></path>
<path d="M0.312 0.447 Q0.646 0.477 0.776 0.320" stroke="hsl(180.0,100%,35%)" stroke-width="0.02468"></path>
<path d="M0.312 0.447 Q0.588 0.409 0.573 0.266" stroke="hsl(180.0,100%,35%)" stroke-width="0.01604"></path>
<path d="M0.312 0.447 Q0.650 0.575 0.973 0.438" stroke="hsl(180.0,100%,35%)" stroke-width="0.00782"></path>
<path d="M0.312 0.447 Q0.970 0.412 1.045 0.083" stroke="hsl(180.0,100%,35%)" stroke-width="0.00041"></path>
<path d="M0.312 0.447 Q0.501 0.553 0.748 0.484" stroke="hsl(180.0,100%,35%)" stroke-width="0.00041"></path>
<path d="M0.312 0.447 Q0.298 0.478 0.355 0.492" stroke="hsl(180.0,100%,35%)" stroke-width="0.00082"></path>
<path d="M0.312 0.447 Q1.072 0.499 1.340 0.139" stroke="hsl(180.0,100%,35%)" stroke-width="0.00041"></path>
<path d="M0.312 0.447 Q0.613 0.750 1.270 0.670" stroke="hsl(180.0,100%,35%)" stroke-width="0.00206"></path>
<path d="M0.312 0.447 Q0.465 0.437 0.479 0.361" stroke="hsl(180.0,100%,35%)" stroke-width="0.00082"></path>
<path d="M0.312 0.447 Q0.336 0.351 0.154 0.318" stroke="hsl(180.0,100%,35%)" stroke-width="0.00041"></path>
<path d="M0.154 0.318 Q0.464 0.444 0.776 0.320" stroke="hsl(180.0,100%,35%)" stroke-width="0.00206"></path>
<path d="M0.154 0.318 Q0.406 0.376 0.573 0.266" stroke="hsl(180.0,100%,35%)" stroke-width="0.00206"></path>
<path d="M0.154 0.318 Q0.890 0.466 1.340 0.139" stroke="hsl(180.0,100%,35%)" stroke-width="0.00041"></path>
<path d="M0.154 0.318 Q0.788 0.379 1.045 0.083" stroke="hsl(180.0,100%,35%)" stroke-width="0.00041"></path>
<path d="M0.154 0.318 Q0.319 0.520 0.748 0.484" stroke="hsl(180.0,100%,35%)" stroke-width="0.00041"></path>
<path d="M0.259 0.101 Q0.160 0.275 0.479 0.361" stroke="hsl(180.0,100%,35%)" stroke-width="0.00123"></path>
<path d="M0.259 0.101 Q0.341 0.314 0.776 0.320" stroke="hsl(180.0,100%,35%)" stroke-width="0.00123"></path>
<path d="M0.259 0.101 Q0.284 0.246 0.573 0.266" stroke="hsl(180.0,100%,35%)" stroke-width="0.00206"></path>
<path d="M0.088 0.227 Q0.357 0.411 0.776 0.320" stroke="hsl(180.0,100%,35%)" stroke-width="0.00041"></path>
<path d="M0.088 0.227 Q0.299 0.344 0.573 0.266" stroke="hsl(180.0,100%,35%)" stroke-width="0.00082"></path>
<path d="M0.088 0.227 Q-0.140 0.395 0.137 0.542" stroke="hsl(180.0,100%,35%)" stroke-width="0.00041"></path>
<path d="M0.395 0.654 Q0.795 0.496 0.573 0.266" stroke="hsl(180.0,100%,35%)" stroke-width="0.00041"></path>
<path d="M0.395 0.654 Q1.177 0.499 1.045 0.083" stroke="hsl(180.0,100%,35%)" stroke-width="0.00123"></path>
<path d="M0.395 0.654 Q0.857 0.662 0.973 0.438" stroke="hsl(180.0,100%,35%)" stroke-width="0.00123"></path>
<path d="M0.395 0.654 Q0.741 0.705 0.917 0.548" stroke="hsl(180.0,100%,35%)" stroke-width="0.00041"></path>
<path d="M0.395 0.654 Q0.853 0.563 0.776 0.320" stroke="hsl(180.0,100%,35%)" stroke-width="0.00206"></path>
<path d="M0.749 0.168 Q0.641 0.250 0.776 0.320" stroke="hsl(180.0,100%,35%)" stroke-width="0.00082"></path>
<path d="M0.749 0.168 Q0.583 0.182 0.573 0.266" stroke="hsl(180.0,100%,35%)" stroke-width="0.00041"></path>
<path d="M0.749 0.168 Q0.437 0.170 0.372 0.323" stroke="hsl(180.0,100%,35%)" stroke-width="0.00041"></path>
<path d="M0.321 0.191 Q0.048 0.226 0.056 0.366" stroke="hsl(180.0,100%,35%)" stroke-width="0.00041"></path>
<path d="M0.321 0.191 Q0.387 0.279 0.573 0.266" stroke="hsl(180.0,100%,35%)" stroke-width="0.00082"></path>
<path d="M0.321 0.191 Q0.445 0.347 0.776 0.320" stroke="hsl(180.0,100%,35%)" stroke-width="0.00041"></path>
<path d="M0.321 0.191 Q0.333 0.489 0.917 0.548" stroke="hsl(180.0,100%,35%)" stroke-width="0.00082"></path>
<path d="M0.321 0.191 Q0.875 0.296 1.201 0.049" stroke="hsl(180.0,100%,35%)" stroke-width="0.00041"></path>
<path d="M0.321 0.191 Q0.449 0.445 0.973 0.438" stroke="hsl(180.0,100%,35%)" stroke-width="0.00041"></path>
</g>
<text x="0.917" y="0.526" font-size="0.043527" fill="hsl(0.0,100%,20%)">amaiorano</text>
<text x="0.973" y="0.393" font-size="0.091824" fill="hsl(0.0,100%,20%)">bclayton</text>
<text x="0.573" y="0.229" font-size="0.074638" fill="hsl(180.0,100%,20%)">enga</text>
<text x="0.776" y="0.283" font-size="0.074217" fill="hsl(180.0,100%,20%)">cwallez</text>
<text x="0.748" y="0.456" font-size="0.056230" fill="hsl(0.0,100%,20%)">jrprice</text>
<text x="1.201" y="0.033" font-size="0.032076" fill="hsl(180.0,100%,20%)">kainino</text>
<text x="1.076" y="0.190" font-size="0.059799" fill="hsl(0.0,100%,20%)">dsinclair</text>
<text x="0.631" y="-0.688" font-size="0.007084" fill="hsl(180.0,100%,20%)">andre</text>
<text x="0.660" y="0.330" font-size="0.021546" fill="hsl(180.0,100%,20%)">arthursonzogni</text>
<text x="0.403" y="0.060" font-size="0.003542" fill="hsl(180.0,100%,20%)">khaslett</text>
<text x="1.437" y="0.143" font-size="0.010019" fill="hsl(180.0,100%,20%)">austineng</text>
<text x="1.580" y="0.513" font-size="0.025787" fill="hsl(180.0,100%,20%)">shrekshao</text>
<text x="1.045" y="0.058" font-size="0.049969" fill="hsl(180.0,100%,20%)">lokokung</text>
<text x="0.355" y="0.481" font-size="0.022121" fill="hsl(180.0,100%,20%)">bajones</text>
<text x="1.270" y="0.655" font-size="0.028558" fill="hsl(0.0,100%,20%)">dneto</text>
<text x="1.107" y="0.333" font-size="0.003542" fill="hsl(0.0,100%,20%)">brucedawson</text>
<text x="1.340" y="0.133" font-size="0.012270" fill="hsl(0.0,100%,20%)">rharrison</text>
<text x="1.682" y="0.354" font-size="0.029636" fill="hsl(180.0,100%,20%)">senorblanco</text>
<text x="1.150" y="0.512" font-size="0.003542" fill="hsl(0.0,100%,20%)">kjlubick</text>
<text x="0.338" y="0.503" font-size="0.019722" fill="hsl(180.0,100%,20%)">beaufort.francois</text>
<text x="0.056" y="0.357" font-size="0.018062" fill="hsl(180.0,100%,20%)">bsheedy</text>
<text x="0.560" y="-0.731" font-size="0.003542" fill="hsl(180.0,100%,20%)">fhorschig</text>
<text x="0.623" y="0.754" font-size="0.003542" fill="hsl(180.0,100%,20%)">jamesgk</text>
<text x="0.479" y="0.350" font-size="0.022681" fill="hsl(180.0,100%,20%)">penghuang</text>
<text x="0.372" y="0.319" font-size="0.008677" fill="hsl(180.0,100%,20%)">lehoangquyen</text>
<text x="0.713" y="-0.739" font-size="0.003542" fill="hsl(180.0,100%,20%)">fbeaufort</text>
<text x="0.456" y="0.696" font-size="0.003542" fill="hsl(180.0,100%,20%)">blundell</text>
<text x="0.348" y="0.125" font-size="0.006135" fill="hsl(180.0,100%,20%)">danakj</text>
<text x="1.003" y="0.730" font-size="0.005009" fill="hsl(0.0,100%,20%)">alanbaker</text>
<text x="1.002" y="0.536" font-size="0.022681" fill="hsl(180.0,100%,20%)">gman</text>
<text x="1.390" y="0.102" font-size="0.003542" fill="hsl(0.0,100%,20%)">yiwzhang</text>
<text x="0.301" y="0.614" font-size="0.013254" fill="hsl(180.0,100%,20%)">hao.x.li</text>
<text x="0.139" y="0.485" font-size="0.011201" fill="hsl(180.0,100%,20%)">hitawala</text>
<text x="0.137" y="0.539" font-size="0.006135" fill="hsl(180.0,100%,20%)">sunnyps</text>
<text x="0.643" y="0.156" font-size="0.006135" fill="hsl(180.0,100%,20%)">jianlin.qiu</text>
<text x="0.312" y="0.427" font-size="0.040850" fill="hsl(180.0,100%,20%)">jiawei.shao</text>
<text x="0.154" y="0.312" font-size="0.013254" fill="hsl(180.0,100%,20%)">zhaoming.jiang</text>
<text x="0.259" y="0.095" font-size="0.011748" fill="hsl(180.0,100%,20%)">jie.a.chen</text>
<text x="0.722" y="0.119" font-size="0.003542" fill="hsl(180.0,100%,20%)">kbr</text>
<text x="0.088" y="0.224" font-size="0.007084" fill="hsl(180.0,100%,20%)">shaobo.yan</text>
<text x="0.395" y="0.648" font-size="0.012772" fill="hsl(180.0,100%,20%)">tiszka</text>
<text x="0.749" y="0.165" font-size="0.007084" fill="hsl(180.0,100%,20%)">vollick</text>
<text x="0.321" y="0.186" font-size="0.010019" fill="hsl(180.0,100%,20%)">ynovikov</text>
</svg>
