<svg width="4000" height="2000" viewBox="-0.025 -0.025 2.05 1.05" xmlns="http://www.w3.org/2000/svg">
  <style>
    path {
      fill: none;
      stroke-linecap: round;
      stroke-opacity: 0.4;
    }

    text {
      text-anchor: middle;
      alignment-baseline: hanging;
    }
  </style>
  <g opacity="0.4">
<path d="M1.484 0.770 Q1.080 0.597 0.654 0.757" stroke="hsl(0.0,100%,35%)" stroke-width="0.00145"></path>
<path d="M1.484 0.770 Q1.562 0.646 1.337 0.581" stroke="hsl(0.0,100%,35%)" stroke-width="0.00198"></path>
<path d="M1.484 0.770 Q1.227 0.563 0.766 0.643" stroke="hsl(0.0,100%,35%)" stroke-width="0.00023"></path>
<path d="M1.484 0.770 Q1.735 0.636 1.529 0.485" stroke="hsl(0.0,100%,35%)" stroke-width="0.00015"></path>
<path d="M0.654 0.757 Q0.801 0.722 0.766 0.643" stroke="hsl(0.0,100%,35%)" stroke-width="0.04017"></path>
<path d="M0.654 0.757 Q0.955 0.824 1.153 0.692" stroke="hsl(0.0,100%,35%)" stroke-width="0.04215"></path>
<path d="M0.654 0.757 Q0.935 0.759 1.000 0.622" stroke="hsl(0.0,100%,35%)" stroke-width="0.06479"></path>
<path d="M0.654 0.757 Q0.580 0.547 0.155 0.538" stroke="hsl(0.0,100%,35%)" stroke-width="0.02355"></path>
<path d="M0.654 0.757 Q0.774 0.829 0.942 0.787" stroke="hsl(0.0,100%,35%)" stroke-width="0.02881"></path>
<path d="M0.654 0.757 Q0.412 0.602 0.058 0.686" stroke="hsl(0.0,100%,35%)" stroke-width="0.00038"></path>
<path d="M0.654 0.757 Q0.652 0.476 0.103 0.415" stroke="hsl(0.0,100%,35%)" stroke-width="0.01151"></path>
<path d="M0.654 0.757 Q0.577 0.641 0.334 0.653" stroke="hsl(0.0,100%,35%)" stroke-width="0.00046"></path>
<path d="M0.654 0.757 Q1.136 0.805 1.337 0.581" stroke="hsl(0.0,100%,35%)" stroke-width="0.00381"></path>
<path d="M0.654 0.757 Q0.818 0.490 0.333 0.352" stroke="hsl(0.0,100%,35%)" stroke-width="0.00099"></path>
<path d="M0.654 0.757 Q1.060 0.572 0.790 0.334" stroke="hsl(0.0,100%,35%)" stroke-width="0.00015"></path>
<path d="M0.654 0.757 Q0.770 0.857 0.992 0.823" stroke="hsl(0.0,100%,35%)" stroke-width="0.00023"></path>
<path d="M0.654 0.757 Q0.882 0.846 1.107 0.755" stroke="hsl(0.0,100%,35%)" stroke-width="0.00053"></path>
<path d="M0.654 0.757 Q1.309 0.796 1.529 0.485" stroke="hsl(0.0,100%,35%)" stroke-width="0.00015"></path>
<path d="M0.654 0.757 Q0.680 0.862 0.890 0.872" stroke="hsl(0.0,100%,35%)" stroke-width="0.00015"></path>
<path d="M1.337 0.581 Q0.853 0.251 0.103 0.415" stroke="hsl(0.0,100%,35%)" stroke-width="0.00777"></path>
<path d="M1.337 0.581 Q1.136 0.534 1.000 0.622" stroke="hsl(0.0,100%,35%)" stroke-width="0.00671"></path>
<path d="M1.337 0.581 Q0.855 0.532 0.654 0.757" stroke="hsl(0.0,100%,35%)" stroke-width="0.00656"></path>
<path d="M1.337 0.581 Q1.156 0.600 1.153 0.692" stroke="hsl(0.0,100%,35%)" stroke-width="0.00145"></path>
<path d="M1.337 0.581 Q1.002 0.498 0.766 0.643" stroke="hsl(0.0,100%,35%)" stroke-width="0.00069"></path>
<path d="M1.337 0.581 Q0.777 0.416 0.334 0.653" stroke="hsl(0.0,100%,35%)" stroke-width="0.00015"></path>
<path d="M1.337 0.581 Q0.975 0.605 0.942 0.787" stroke="hsl(0.0,100%,35%)" stroke-width="0.00183"></path>
<path d="M1.337 0.581 Q0.780 0.323 0.155 0.538" stroke="hsl(0.0,100%,35%)" stroke-width="0.00709"></path>
<path d="M1.337 0.581 Q1.259 0.705 1.484 0.770" stroke="hsl(0.0,100%,35%)" stroke-width="0.00023"></path>
<path d="M1.337 0.581 Q1.410 0.679 1.618 0.665" stroke="hsl(0.0,100%,35%)" stroke-width="0.00023"></path>
<path d="M1.337 0.581 Q1.082 0.622 1.107 0.755" stroke="hsl(0.0,100%,35%)" stroke-width="0.00015"></path>
<path d="M1.337 0.581 Q0.613 0.378 0.058 0.686" stroke="hsl(0.0,100%,35%)" stroke-width="0.00183"></path>
<path d="M1.337 0.581 Q1.261 0.746 1.566 0.819" stroke="hsl(0.0,100%,35%)" stroke-width="0.00015"></path>
<path d="M0.766 0.643 Q0.619 0.677 0.654 0.757" stroke="hsl(0.0,100%,35%)" stroke-width="0.02546"></path>
<path d="M0.766 0.643 Q0.617 0.396 0.103 0.415" stroke="hsl(0.0,100%,35%)" stroke-width="0.00427"></path>
<path d="M0.766 0.643 Q0.545 0.468 0.155 0.538" stroke="hsl(0.0,100%,35%)" stroke-width="0.00183"></path>
<path d="M0.766 0.643 Q0.920 0.745 1.153 0.692" stroke="hsl(0.0,100%,35%)" stroke-width="0.00320"></path>
<path d="M0.766 0.643 Q0.377 0.523 0.058 0.686" stroke="hsl(0.0,100%,35%)" stroke-width="0.00015"></path>
<path d="M0.766 0.643 Q0.900 0.679 1.000 0.622" stroke="hsl(0.0,100%,35%)" stroke-width="0.00313"></path>
<path d="M0.766 0.643 Q0.739 0.750 0.942 0.787" stroke="hsl(0.0,100%,35%)" stroke-width="0.00191"></path>
<path d="M0.766 0.643 Q1.101 0.726 1.337 0.581" stroke="hsl(0.0,100%,35%)" stroke-width="0.00023"></path>
<path d="M0.766 0.643 Q0.542 0.562 0.334 0.653" stroke="hsl(0.0,100%,35%)" stroke-width="0.00023"></path>
<path d="M1.529 0.485 Q1.356 0.494 1.337 0.581" stroke="hsl(0.0,100%,35%)" stroke-width="0.00030"></path>
<path d="M1.529 0.485 Q0.874 0.446 0.654 0.757" stroke="hsl(0.0,100%,35%)" stroke-width="0.00046"></path>
<path d="M1.529 0.485 Q1.278 0.618 1.484 0.770" stroke="hsl(0.0,100%,35%)" stroke-width="0.00015"></path>
<path d="M1.529 0.485 Q1.521 0.369 1.293 0.347" stroke="hsl(0.0,100%,35%)" stroke-width="0.00015"></path>
<path d="M1.529 0.485 Q0.994 0.518 0.942 0.787" stroke="hsl(0.0,100%,35%)" stroke-width="0.00015"></path>
<path d="M1.529 0.485 Q1.155 0.447 1.000 0.622" stroke="hsl(0.0,100%,35%)" stroke-width="0.00023"></path>
<path d="M0.576 0.467 Q0.309 0.418 0.155 0.538" stroke="hsl(180.0,100%,35%)" stroke-width="0.00046"></path>
<path d="M0.576 0.467 Q0.381 0.346 0.103 0.415" stroke="hsl(180.0,100%,35%)" stroke-width="0.00030"></path>
<path d="M0.576 0.467 Q0.664 0.629 1.000 0.622" stroke="hsl(180.0,100%,35%)" stroke-width="0.00015"></path>
<path d="M0.576 0.467 Q0.141 0.473 0.058 0.686" stroke="hsl(180.0,100%,35%)" stroke-width="0.00015"></path>
<path d="M0.155 0.538 Q0.230 0.747 0.654 0.757" stroke="hsl(180.0,100%,35%)" stroke-width="0.01601"></path>
<path d="M0.155 0.538 Q0.510 0.749 1.000 0.622" stroke="hsl(180.0,100%,35%)" stroke-width="0.00252"></path>
<path d="M0.155 0.538 Q0.359 0.375 0.085 0.239" stroke="hsl(180.0,100%,35%)" stroke-width="0.00854"></path>
<path d="M0.155 0.538 Q0.227 0.466 0.103 0.415" stroke="hsl(180.0,100%,35%)" stroke-width="0.05648"></path>
<path d="M0.155 0.538 Q0.393 0.481 0.333 0.352" stroke="hsl(180.0,100%,35%)" stroke-width="0.01265"></path>
<path d="M0.155 0.538 Q0.321 0.532 0.347 0.450" stroke="hsl(180.0,100%,35%)" stroke-width="0.00015"></path>
<path d="M0.155 0.538 Q-0.013 0.593 0.058 0.686" stroke="hsl(180.0,100%,35%)" stroke-width="0.01928"></path>
<path d="M0.155 0.538 Q0.152 0.631 0.334 0.653" stroke="hsl(180.0,100%,35%)" stroke-width="0.00442"></path>
<path d="M0.155 0.538 Q0.376 0.713 0.766 0.643" stroke="hsl(180.0,100%,35%)" stroke-width="0.00030"></path>
<path d="M0.155 0.538 Q0.405 0.447 0.284 0.306" stroke="hsl(180.0,100%,35%)" stroke-width="0.00038"></path>
<path d="M0.155 0.538 Q0.322 0.544 0.372 0.464" stroke="hsl(180.0,100%,35%)" stroke-width="0.00023"></path>
<path d="M0.155 0.538 Q0.152 0.575 0.223 0.585" stroke="hsl(180.0,100%,35%)" stroke-width="0.00015"></path>
<path d="M0.155 0.538 Q0.298 0.620 0.489 0.568" stroke="hsl(180.0,100%,35%)" stroke-width="0.00091"></path>
<path d="M0.155 0.538 Q0.298 0.417 0.093 0.320" stroke="hsl(180.0,100%,35%)" stroke-width="0.00038"></path>
<path d="M0.155 0.538 Q0.421 0.434 0.277 0.281" stroke="hsl(180.0,100%,35%)" stroke-width="0.00015"></path>
<path d="M0.155 0.538 Q0.531 0.815 1.153 0.692" stroke="hsl(180.0,100%,35%)" stroke-width="0.00030"></path>
<path d="M0.155 0.538 Q0.712 0.796 1.337 0.581" stroke="hsl(180.0,100%,35%)" stroke-width="0.00137"></path>
<path d="M0.155 0.538 Q0.185 0.475 0.070 0.447" stroke="hsl(180.0,100%,35%)" stroke-width="0.00023"></path>
<path d="M0.155 0.538 Q0.251 0.586 0.366 0.550" stroke="hsl(180.0,100%,35%)" stroke-width="0.00023"></path>
<path d="M0.155 0.538 Q0.548 0.484 0.528 0.280" stroke="hsl(180.0,100%,35%)" stroke-width="0.00381"></path>
<path d="M0.155 0.538 Q0.156 0.607 0.292 0.622" stroke="hsl(180.0,100%,35%)" stroke-width="0.00046"></path>
<path d="M0.155 0.538 Q0.349 0.820 0.942 0.787" stroke="hsl(180.0,100%,35%)" stroke-width="0.00061"></path>
<path d="M0.155 0.538 Q0.160 0.576 0.236 0.582" stroke="hsl(180.0,100%,35%)" stroke-width="0.00023"></path>
<path d="M0.155 0.538 Q0.111 0.596 0.215 0.631" stroke="hsl(180.0,100%,35%)" stroke-width="0.00069"></path>
<path d="M0.155 0.538 Q0.382 0.542 0.440 0.432" stroke="hsl(180.0,100%,35%)" stroke-width="0.00015"></path>
<path d="M0.155 0.538 Q0.294 0.589 0.424 0.532" stroke="hsl(180.0,100%,35%)" stroke-width="0.00015"></path>
<path d="M0.103 0.415 Q0.235 0.324 0.085 0.239" stroke="hsl(180.0,100%,35%)" stroke-width="0.01441"></path>
<path d="M0.103 0.415 Q-0.137 0.542 0.058 0.686" stroke="hsl(180.0,100%,35%)" stroke-width="0.01555"></path>
<path d="M0.103 0.415 Q0.031 0.487 0.155 0.538" stroke="hsl(180.0,100%,35%)" stroke-width="0.02996"></path>
<path d="M0.103 0.415 Q0.174 0.366 0.093 0.320" stroke="hsl(180.0,100%,35%)" stroke-width="0.00206"></path>
<path d="M0.103 0.415 Q0.252 0.661 0.766 0.643" stroke="hsl(180.0,100%,35%)" stroke-width="0.00069"></path>
<path d="M0.103 0.415 Q0.028 0.580 0.334 0.653" stroke="hsl(180.0,100%,35%)" stroke-width="0.00221"></path>
<path d="M0.103 0.415 Q0.386 0.698 1.000 0.622" stroke="hsl(180.0,100%,35%)" stroke-width="0.00152"></path>
<path d="M0.103 0.415 Q0.105 0.696 0.654 0.757" stroke="hsl(180.0,100%,35%)" stroke-width="0.00534"></path>
<path d="M0.103 0.415 Q0.198 0.493 0.372 0.464" stroke="hsl(180.0,100%,35%)" stroke-width="0.00023"></path>
<path d="M0.103 0.415 Q0.406 0.763 1.153 0.692" stroke="hsl(180.0,100%,35%)" stroke-width="0.00061"></path>
<path d="M0.103 0.415 Q0.281 0.396 0.284 0.306" stroke="hsl(180.0,100%,35%)" stroke-width="0.00030"></path>
<path d="M0.103 0.415 Q0.081 0.411 0.068 0.420" stroke="hsl(180.0,100%,35%)" stroke-width="0.00030"></path>
<path d="M0.103 0.415 Q0.269 0.429 0.333 0.352" stroke="hsl(180.0,100%,35%)" stroke-width="0.00572"></path>
<path d="M0.103 0.415 Q0.423 0.433 0.528 0.280" stroke="hsl(180.0,100%,35%)" stroke-width="0.00343"></path>
<path d="M0.103 0.415 Q0.588 0.745 1.337 0.581" stroke="hsl(180.0,100%,35%)" stroke-width="0.00053"></path>
<path d="M0.103 0.415 Q0.304 0.413 0.344 0.314" stroke="hsl(180.0,100%,35%)" stroke-width="0.00023"></path>
<path d="M0.103 0.415 Q0.326 0.482 0.506 0.388" stroke="hsl(180.0,100%,35%)" stroke-width="0.00015"></path>
<path d="M0.103 0.415 Q0.304 0.422 0.362 0.326" stroke="hsl(180.0,100%,35%)" stroke-width="0.00023"></path>
<path d="M0.103 0.415 Q0.061 0.424 0.070 0.447" stroke="hsl(180.0,100%,35%)" stroke-width="0.00015"></path>
<path d="M0.103 0.415 Q0.424 0.543 0.743 0.414" stroke="hsl(180.0,100%,35%)" stroke-width="0.00030"></path>
<path d="M0.103 0.415 Q0.225 0.768 0.942 0.787" stroke="hsl(180.0,100%,35%)" stroke-width="0.00030"></path>
<path d="M0.103 0.415 Q0.258 0.491 0.440 0.432" stroke="hsl(180.0,100%,35%)" stroke-width="0.00053"></path>
<path d="M0.103 0.415 Q0.174 0.569 0.489 0.568" stroke="hsl(180.0,100%,35%)" stroke-width="0.00038"></path>
<path d="M0.103 0.415 Q0.437 0.264 0.216 0.069" stroke="hsl(180.0,100%,35%)" stroke-width="0.00015"></path>
<path d="M1.000 0.622 Q0.719 0.620 0.654 0.757" stroke="hsl(0.0,100%,35%)" stroke-width="0.05038"></path>
<path d="M1.000 0.622 Q0.866 0.586 0.766 0.643" stroke="hsl(0.0,100%,35%)" stroke-width="0.00526"></path>
<path d="M1.000 0.622 Q0.883 0.354 0.333 0.352" stroke="hsl(0.0,100%,35%)" stroke-width="0.00038"></path>
<path d="M1.000 0.622 Q1.021 0.688 1.153 0.692" stroke="hsl(0.0,100%,35%)" stroke-width="0.00899"></path>
<path d="M1.000 0.622 Q0.645 0.411 0.155 0.538" stroke="hsl(0.0,100%,35%)" stroke-width="0.00678"></path>
<path d="M1.000 0.622 Q1.202 0.669 1.337 0.581" stroke="hsl(0.0,100%,35%)" stroke-width="0.00892"></path>
<path d="M1.000 0.622 Q0.717 0.339 0.103 0.415" stroke="hsl(0.0,100%,35%)" stroke-width="0.00145"></path>
<path d="M1.000 0.622 Q0.477 0.466 0.058 0.686" stroke="hsl(0.0,100%,35%)" stroke-width="0.00038"></path>
<path d="M1.000 0.622 Q0.839 0.693 0.942 0.787" stroke="hsl(0.0,100%,35%)" stroke-width="0.02477"></path>
<path d="M1.000 0.622 Q0.642 0.504 0.334 0.653" stroke="hsl(0.0,100%,35%)" stroke-width="0.00015"></path>
<path d="M1.000 0.622 Q0.947 0.710 1.107 0.755" stroke="hsl(0.0,100%,35%)" stroke-width="0.00434"></path>
<path d="M0.058 0.686 Q0.225 0.632 0.155 0.538" stroke="hsl(180.0,100%,35%)" stroke-width="0.00343"></path>
<path d="M0.058 0.686 Q0.429 0.468 0.085 0.239" stroke="hsl(180.0,100%,35%)" stroke-width="0.00137"></path>
<path d="M0.058 0.686 Q0.298 0.560 0.103 0.415" stroke="hsl(180.0,100%,35%)" stroke-width="0.00389"></path>
<path d="M0.058 0.686 Q0.300 0.841 0.654 0.757" stroke="hsl(180.0,100%,35%)" stroke-width="0.00015"></path>
<path d="M0.058 0.686 Q0.618 0.577 0.528 0.280" stroke="hsl(180.0,100%,35%)" stroke-width="0.00015"></path>
<path d="M0.058 0.686 Q0.222 0.725 0.334 0.653" stroke="hsl(180.0,100%,35%)" stroke-width="0.00015"></path>
<path d="M0.058 0.686 Q0.782 0.889 1.337 0.581" stroke="hsl(180.0,100%,35%)" stroke-width="0.00023"></path>
<path d="M0.058 0.686 Q0.581 0.843 1.000 0.622" stroke="hsl(180.0,100%,35%)" stroke-width="0.00023"></path>
<path d="M0.024 0.424 Q0.071 0.436 0.103 0.415" stroke="hsl(180.0,100%,35%)" stroke-width="0.00030"></path>
<path d="M0.024 0.424 Q-0.002 0.507 0.155 0.538" stroke="hsl(180.0,100%,35%)" stroke-width="0.00030"></path>
<path d="M0.050 0.284 Q-0.028 0.360 0.103 0.415" stroke="hsl(180.0,100%,35%)" stroke-width="0.00030"></path>
<path d="M0.050 0.284 Q0.104 0.269 0.085 0.239" stroke="hsl(180.0,100%,35%)" stroke-width="0.00015"></path>
<path d="M0.085 0.239 Q-0.046 0.331 0.103 0.415" stroke="hsl(180.0,100%,35%)" stroke-width="0.01494"></path>
<path d="M0.085 0.239 Q-0.286 0.457 0.058 0.686" stroke="hsl(180.0,100%,35%)" stroke-width="0.00175"></path>
<path d="M0.085 0.239 Q-0.119 0.402 0.155 0.538" stroke="hsl(180.0,100%,35%)" stroke-width="0.00404"></path>
<path d="M0.085 0.239 Q-0.044 0.612 0.654 0.757" stroke="hsl(180.0,100%,35%)" stroke-width="0.00053"></path>
<path d="M0.085 0.239 Q-0.122 0.496 0.334 0.653" stroke="hsl(180.0,100%,35%)" stroke-width="0.00046"></path>
<path d="M0.085 0.239 Q0.024 0.281 0.093 0.320" stroke="hsl(180.0,100%,35%)" stroke-width="0.00122"></path>
<path d="M1.153 0.692 Q0.852 0.625 0.654 0.757" stroke="hsl(0.0,100%,35%)" stroke-width="0.03865"></path>
<path d="M1.153 0.692 Q0.972 0.697 0.942 0.787" stroke="hsl(0.0,100%,35%)" stroke-width="0.00366"></path>
<path d="M1.153 0.692 Q0.999 0.590 0.766 0.643" stroke="hsl(0.0,100%,35%)" stroke-width="0.00183"></path>
<path d="M1.153 0.692 Q1.133 0.626 1.000 0.622" stroke="hsl(0.0,100%,35%)" stroke-width="0.01014"></path>
<path d="M1.153 0.692 Q0.774 0.509 0.334 0.653" stroke="hsl(0.0,100%,35%)" stroke-width="0.00030"></path>
<path d="M1.153 0.692 Q0.778 0.415 0.155 0.538" stroke="hsl(0.0,100%,35%)" stroke-width="0.00160"></path>
<path d="M1.153 0.692 Q0.850 0.344 0.103 0.415" stroke="hsl(0.0,100%,35%)" stroke-width="0.00152"></path>
<path d="M1.153 0.692 Q0.877 0.730 0.890 0.872" stroke="hsl(0.0,100%,35%)" stroke-width="0.00015"></path>
<path d="M1.153 0.692 Q0.610 0.470 0.058 0.686" stroke="hsl(0.0,100%,35%)" stroke-width="0.00030"></path>
<path d="M1.153 0.692 Q1.079 0.714 1.107 0.755" stroke="hsl(0.0,100%,35%)" stroke-width="0.00015"></path>
<path d="M1.153 0.692 Q1.334 0.673 1.337 0.581" stroke="hsl(0.0,100%,35%)" stroke-width="0.00038"></path>
<path d="M0.942 0.787 Q0.822 0.714 0.654 0.757" stroke="hsl(0.0,100%,35%)" stroke-width="0.01113"></path>
<path d="M0.942 0.787 Q1.123 0.782 1.153 0.692" stroke="hsl(0.0,100%,35%)" stroke-width="0.00503"></path>
<path d="M0.942 0.787 Q0.969 0.680 0.766 0.643" stroke="hsl(0.0,100%,35%)" stroke-width="0.00122"></path>
<path d="M0.942 0.787 Q0.847 0.819 0.890 0.872" stroke="hsl(0.0,100%,35%)" stroke-width="0.00328"></path>
<path d="M0.942 0.787 Q0.820 0.433 0.103 0.415" stroke="hsl(0.0,100%,35%)" stroke-width="0.00046"></path>
<path d="M0.942 0.787 Q1.103 0.716 1.000 0.622" stroke="hsl(0.0,100%,35%)" stroke-width="0.01951"></path>
<path d="M0.942 0.787 Q0.748 0.505 0.155 0.538" stroke="hsl(0.0,100%,35%)" stroke-width="0.00038"></path>
<path d="M0.942 0.787 Q1.304 0.763 1.337 0.581" stroke="hsl(0.0,100%,35%)" stroke-width="0.00152"></path>
<path d="M0.942 0.787 Q1.049 0.804 1.107 0.755" stroke="hsl(0.0,100%,35%)" stroke-width="0.00046"></path>
<path d="M0.334 0.653 Q0.337 0.560 0.155 0.538" stroke="hsl(180.0,100%,35%)" stroke-width="0.00396"></path>
<path d="M0.334 0.653 Q0.409 0.488 0.103 0.415" stroke="hsl(180.0,100%,35%)" stroke-width="0.00617"></path>
<path d="M0.334 0.653 Q0.169 0.615 0.058 0.686" stroke="hsl(180.0,100%,35%)" stroke-width="0.00358"></path>
<path d="M0.334 0.653 Q0.541 0.397 0.085 0.239" stroke="hsl(180.0,100%,35%)" stroke-width="0.00030"></path>
<path d="M0.334 0.653 Q0.692 0.771 1.000 0.622" stroke="hsl(180.0,100%,35%)" stroke-width="0.00015"></path>
<path d="M0.334 0.653 Q0.411 0.769 0.654 0.757" stroke="hsl(180.0,100%,35%)" stroke-width="0.00046"></path>
<path d="M0.334 0.653 Q0.479 0.439 0.093 0.320" stroke="hsl(180.0,100%,35%)" stroke-width="0.00038"></path>
<path d="M0.334 0.653 Q0.712 0.837 1.153 0.692" stroke="hsl(180.0,100%,35%)" stroke-width="0.00015"></path>
<path d="M0.277 0.281 Q0.083 0.314 0.103 0.415" stroke="hsl(180.0,100%,35%)" stroke-width="0.00175"></path>
<path d="M0.277 0.281 Q0.011 0.385 0.155 0.538" stroke="hsl(180.0,100%,35%)" stroke-width="0.00015"></path>
<path d="M0.277 0.281 Q0.232 0.560 0.766 0.643" stroke="hsl(180.0,100%,35%)" stroke-width="0.00015"></path>
<path d="M0.277 0.281 Q-0.157 0.440 0.058 0.686" stroke="hsl(180.0,100%,35%)" stroke-width="0.00030"></path>
<path d="M0.277 0.281 Q0.085 0.595 0.654 0.757" stroke="hsl(180.0,100%,35%)" stroke-width="0.00023"></path>
<path d="M0.395 0.543 Q0.354 0.702 0.654 0.757" stroke="hsl(0.0,100%,35%)" stroke-width="0.00015"></path>
<path d="M0.395 0.543 Q0.279 0.493 0.155 0.538" stroke="hsl(0.0,100%,35%)" stroke-width="0.00015"></path>
<path d="M0.347 0.450 Q0.181 0.456 0.155 0.538" stroke="hsl(180.0,100%,35%)" stroke-width="0.00191"></path>
<path d="M0.347 0.450 Q0.253 0.384 0.103 0.415" stroke="hsl(180.0,100%,35%)" stroke-width="0.00015"></path>
<path d="M0.347 0.450 Q0.255 0.665 0.654 0.757" stroke="hsl(180.0,100%,35%)" stroke-width="0.00053"></path>
<path d="M0.093 0.320 Q0.022 0.370 0.103 0.415" stroke="hsl(180.0,100%,35%)" stroke-width="0.00663"></path>
<path d="M0.093 0.320 Q0.188 0.384 0.333 0.352" stroke="hsl(180.0,100%,35%)" stroke-width="0.00160"></path>
<path d="M0.093 0.320 Q0.305 0.653 1.000 0.622" stroke="hsl(180.0,100%,35%)" stroke-width="0.00023"></path>
<path d="M0.093 0.320 Q0.326 0.718 1.153 0.692" stroke="hsl(180.0,100%,35%)" stroke-width="0.00015"></path>
<path d="M0.093 0.320 Q-0.218 0.496 0.058 0.686" stroke="hsl(180.0,100%,35%)" stroke-width="0.00076"></path>
<path d="M0.093 0.320 Q-0.053 0.535 0.334 0.653" stroke="hsl(180.0,100%,35%)" stroke-width="0.00015"></path>
<path d="M0.093 0.320 Q0.154 0.278 0.085 0.239" stroke="hsl(180.0,100%,35%)" stroke-width="0.00099"></path>
<path d="M0.093 0.320 Q0.024 0.651 0.654 0.757" stroke="hsl(180.0,100%,35%)" stroke-width="0.00069"></path>
<path d="M0.093 0.320 Q-0.050 0.442 0.155 0.538" stroke="hsl(180.0,100%,35%)" stroke-width="0.00152"></path>
<path d="M0.093 0.320 Q0.507 0.699 1.337 0.581" stroke="hsl(180.0,100%,35%)" stroke-width="0.00015"></path>
<path d="M0.408 0.463 Q0.294 0.378 0.103 0.415" stroke="hsl(180.0,100%,35%)" stroke-width="0.00015"></path>
<path d="M0.489 0.568 Q0.419 0.414 0.103 0.415" stroke="hsl(180.0,100%,35%)" stroke-width="0.00793"></path>
<path d="M0.489 0.568 Q0.346 0.486 0.155 0.538" stroke="hsl(180.0,100%,35%)" stroke-width="0.00854"></path>
<path d="M0.489 0.568 Q0.179 0.541 0.058 0.686" stroke="hsl(180.0,100%,35%)" stroke-width="0.00282"></path>
<path d="M0.489 0.568 Q0.739 0.432 0.528 0.280" stroke="hsl(180.0,100%,35%)" stroke-width="0.00061"></path>
<path d="M0.333 0.352 Q0.170 0.618 0.654 0.757" stroke="hsl(180.0,100%,35%)" stroke-width="0.00739"></path>
<path d="M0.333 0.352 Q0.168 0.337 0.103 0.415" stroke="hsl(180.0,100%,35%)" stroke-width="0.00892"></path>
<path d="M0.333 0.352 Q0.451 0.620 1.000 0.622" stroke="hsl(180.0,100%,35%)" stroke-width="0.00053"></path>
<path d="M0.333 0.352 Q0.300 0.246 0.085 0.239" stroke="hsl(180.0,100%,35%)" stroke-width="0.00030"></path>
<path d="M0.333 0.352 Q0.146 0.333 0.068 0.420" stroke="hsl(180.0,100%,35%)" stroke-width="0.00015"></path>
<path d="M0.333 0.352 Q0.096 0.409 0.155 0.538" stroke="hsl(180.0,100%,35%)" stroke-width="0.00572"></path>
<path d="M0.333 0.352 Q-0.072 0.464 0.058 0.686" stroke="hsl(180.0,100%,35%)" stroke-width="0.00099"></path>
<path d="M0.333 0.352 Q0.290 0.691 0.942 0.787" stroke="hsl(180.0,100%,35%)" stroke-width="0.00023"></path>
<path d="M0.333 0.352 Q0.471 0.686 1.153 0.692" stroke="hsl(180.0,100%,35%)" stroke-width="0.00023"></path>
<path d="M0.528 0.280 Q0.136 0.334 0.155 0.538" stroke="hsl(180.0,100%,35%)" stroke-width="0.02393"></path>
<path d="M0.528 0.280 Q0.208 0.263 0.103 0.415" stroke="hsl(180.0,100%,35%)" stroke-width="0.02172"></path>
<path d="M0.528 0.280 Q0.210 0.544 0.654 0.757" stroke="hsl(180.0,100%,35%)" stroke-width="0.00244"></path>
<path d="M0.528 0.280 Q0.340 0.171 0.085 0.239" stroke="hsl(180.0,100%,35%)" stroke-width="0.00023"></path>
<path d="M0.528 0.280 Q0.511 0.611 1.153 0.692" stroke="hsl(180.0,100%,35%)" stroke-width="0.00015"></path>
<path d="M0.528 0.280 Q0.133 0.428 0.334 0.653" stroke="hsl(180.0,100%,35%)" stroke-width="0.00030"></path>
<path d="M0.528 0.280 Q0.692 0.592 1.337 0.581" stroke="hsl(180.0,100%,35%)" stroke-width="0.00030"></path>
<path d="M0.528 0.280 Q0.330 0.616 0.942 0.787" stroke="hsl(180.0,100%,35%)" stroke-width="0.00053"></path>
<path d="M0.528 0.280 Q0.386 0.244 0.284 0.306" stroke="hsl(180.0,100%,35%)" stroke-width="0.00030"></path>
<path d="M0.528 0.280 Q0.326 0.644 0.992 0.823" stroke="hsl(180.0,100%,35%)" stroke-width="0.00015"></path>
<path d="M0.528 0.280 Q0.528 0.390 0.743 0.414" stroke="hsl(180.0,100%,35%)" stroke-width="0.00015"></path>
<path d="M0.528 0.280 Q-0.032 0.389 0.058 0.686" stroke="hsl(180.0,100%,35%)" stroke-width="0.00442"></path>
<path d="M0.528 0.280 Q0.373 0.277 0.333 0.352" stroke="hsl(180.0,100%,35%)" stroke-width="0.00023"></path>
<path d="M0.528 0.280 Q0.363 0.339 0.440 0.432" stroke="hsl(180.0,100%,35%)" stroke-width="0.00023"></path>
<path d="M0.790 0.334 Q0.309 0.309 0.155 0.538" stroke="hsl(180.0,100%,35%)" stroke-width="0.00412"></path>
<path d="M0.790 0.334 Q0.382 0.237 0.103 0.415" stroke="hsl(180.0,100%,35%)" stroke-width="0.00427"></path>
<path d="M0.790 0.334 Q0.384 0.518 0.654 0.757" stroke="hsl(180.0,100%,35%)" stroke-width="0.00191"></path>
<path d="M0.790 0.334 Q0.142 0.364 0.058 0.686" stroke="hsl(180.0,100%,35%)" stroke-width="0.00122"></path>
<path d="M0.790 0.334 Q0.702 0.365 0.743 0.414" stroke="hsl(180.0,100%,35%)" stroke-width="0.00076"></path>
<path d="M0.992 0.823 Q0.801 0.513 0.155 0.538" stroke="hsl(180.0,100%,35%)" stroke-width="0.00274"></path>
<path d="M0.992 0.823 Q0.874 0.441 0.103 0.415" stroke="hsl(180.0,100%,35%)" stroke-width="0.00244"></path>
<path d="M0.992 0.823 Q1.358 0.771 1.337 0.581" stroke="hsl(180.0,100%,35%)" stroke-width="0.00023"></path>
<path d="M0.992 0.823 Q1.023 0.688 0.766 0.643" stroke="hsl(180.0,100%,35%)" stroke-width="0.00030"></path>
<path d="M0.992 0.823 Q0.876 0.722 0.654 0.757" stroke="hsl(180.0,100%,35%)" stroke-width="0.00343"></path>
<path d="M0.992 0.823 Q1.157 0.724 1.000 0.622" stroke="hsl(180.0,100%,35%)" stroke-width="0.00030"></path>
<path d="M0.992 0.823 Q0.996 0.795 0.942 0.787" stroke="hsl(180.0,100%,35%)" stroke-width="0.00015"></path>
<path d="M0.992 0.823 Q0.634 0.568 0.058 0.686" stroke="hsl(180.0,100%,35%)" stroke-width="0.00046"></path>
<path d="M0.992 0.823 Q1.194 0.459 0.528 0.280" stroke="hsl(180.0,100%,35%)" stroke-width="0.00023"></path>
<path d="M1.107 0.755 Q0.879 0.665 0.654 0.757" stroke="hsl(0.0,100%,35%)" stroke-width="0.00274"></path>
<path d="M1.107 0.755 Q1.026 0.631 0.766 0.643" stroke="hsl(0.0,100%,35%)" stroke-width="0.00114"></path>
<path d="M1.107 0.755 Q1.180 0.733 1.153 0.692" stroke="hsl(0.0,100%,35%)" stroke-width="0.00053"></path>
<path d="M1.107 0.755 Q0.637 0.511 0.058 0.686" stroke="hsl(0.0,100%,35%)" stroke-width="0.00015"></path>
<path d="M1.107 0.755 Q1.160 0.667 1.000 0.622" stroke="hsl(0.0,100%,35%)" stroke-width="0.00267"></path>
<path d="M1.107 0.755 Q0.999 0.738 0.942 0.787" stroke="hsl(0.0,100%,35%)" stroke-width="0.00130"></path>
<path d="M1.107 0.755 Q1.361 0.714 1.337 0.581" stroke="hsl(0.0,100%,35%)" stroke-width="0.00015"></path>
<path d="M0.366 0.550 Q0.270 0.502 0.155 0.538" stroke="hsl(180.0,100%,35%)" stroke-width="0.00297"></path>
<path d="M0.366 0.550 Q0.103 0.556 0.058 0.686" stroke="hsl(180.0,100%,35%)" stroke-width="0.00030"></path>
<path d="M0.366 0.550 Q0.343 0.430 0.103 0.415" stroke="hsl(180.0,100%,35%)" stroke-width="0.00130"></path>
<path d="M0.366 0.550 Q0.474 0.338 0.085 0.239" stroke="hsl(180.0,100%,35%)" stroke-width="0.00023"></path>
<path d="M0.329 0.653 Q0.334 0.560 0.155 0.538" stroke="hsl(180.0,100%,35%)" stroke-width="0.00168"></path>
<path d="M0.329 0.653 Q0.407 0.489 0.103 0.415" stroke="hsl(180.0,100%,35%)" stroke-width="0.00038"></path>
<path d="M0.329 0.653 Q0.010 0.883 0.388 1.089" stroke="hsl(180.0,100%,35%)" stroke-width="0.00015"></path>
<path d="M0.743 0.414 Q0.423 0.287 0.103 0.415" stroke="hsl(180.0,100%,35%)" stroke-width="0.00069"></path>
<path d="M0.743 0.414 Q0.350 0.358 0.155 0.538" stroke="hsl(180.0,100%,35%)" stroke-width="0.00130"></path>
<path d="M0.743 0.414 Q0.183 0.413 0.058 0.686" stroke="hsl(180.0,100%,35%)" stroke-width="0.00046"></path>
<path d="M0.048 0.579 Q0.207 0.508 0.103 0.415" stroke="hsl(180.0,100%,35%)" stroke-width="0.00213"></path>
<path d="M0.048 0.579 Q0.135 0.580 0.155 0.538" stroke="hsl(180.0,100%,35%)" stroke-width="0.00229"></path>
<path d="M0.048 0.579 Q0.528 0.636 0.743 0.414" stroke="hsl(180.0,100%,35%)" stroke-width="0.00053"></path>
<path d="M0.048 0.579 Q-0.033 0.635 0.058 0.686" stroke="hsl(180.0,100%,35%)" stroke-width="0.00130"></path>
<path d="M0.440 0.432 Q0.285 0.356 0.103 0.415" stroke="hsl(180.0,100%,35%)" stroke-width="0.00511"></path>
<path d="M0.440 0.432 Q0.213 0.428 0.155 0.538" stroke="hsl(180.0,100%,35%)" stroke-width="0.00495"></path>
<path d="M0.440 0.432 Q0.606 0.484 0.743 0.414" stroke="hsl(180.0,100%,35%)" stroke-width="0.00046"></path>
<path d="M0.440 0.432 Q0.045 0.483 0.058 0.686" stroke="hsl(180.0,100%,35%)" stroke-width="0.00091"></path>
<path d="M0.344 0.314 Q0.143 0.316 0.103 0.415" stroke="hsl(180.0,100%,35%)" stroke-width="0.00351"></path>
<path d="M0.344 0.314 Q-0.207 0.692 0.409 1.044" stroke="hsl(180.0,100%,35%)" stroke-width="0.00015"></path>
<path d="M0.344 0.314 Q-0.097 0.443 0.058 0.686" stroke="hsl(180.0,100%,35%)" stroke-width="0.00030"></path>
<path d="M0.443 1.038 Q0.532 0.785 0.058 0.686" stroke="hsl(180.0,100%,35%)" stroke-width="0.00023"></path>
<path d="M0.421 0.540 Q0.290 0.486 0.155 0.538" stroke="hsl(180.0,100%,35%)" stroke-width="0.00053"></path>
<path d="M0.421 0.540 Q0.362 0.414 0.103 0.415" stroke="hsl(180.0,100%,35%)" stroke-width="0.00023"></path>
<path d="M0.284 0.306 Q0.106 0.324 0.103 0.415" stroke="hsl(180.0,100%,35%)" stroke-width="0.00770"></path>
<path d="M0.284 0.306 Q0.034 0.396 0.155 0.538" stroke="hsl(180.0,100%,35%)" stroke-width="0.00343"></path>
<path d="M0.284 0.306 Q0.108 0.605 0.654 0.757" stroke="hsl(180.0,100%,35%)" stroke-width="0.00015"></path>
<path d="M0.372 0.464 Q0.204 0.458 0.155 0.538" stroke="hsl(180.0,100%,35%)" stroke-width="0.00107"></path>
<path d="M0.372 0.464 Q0.277 0.386 0.103 0.415" stroke="hsl(180.0,100%,35%)" stroke-width="0.00229"></path>
<path d="M0.299 0.595 Q0.273 0.538 0.155 0.538" stroke="hsl(180.0,100%,35%)" stroke-width="0.00114"></path>
<path d="M0.299 0.595 Q0.345 0.466 0.103 0.415" stroke="hsl(180.0,100%,35%)" stroke-width="0.00084"></path>
<path d="M0.299 0.595 Q0.105 0.592 0.058 0.686" stroke="hsl(180.0,100%,35%)" stroke-width="0.00023"></path>
<path d="M0.070 0.447 Q0.040 0.509 0.155 0.538" stroke="hsl(180.0,100%,35%)" stroke-width="0.00694"></path>
<path d="M0.070 0.447 Q0.112 0.438 0.103 0.415" stroke="hsl(180.0,100%,35%)" stroke-width="0.00480"></path>
<path d="M0.070 0.447 Q-0.128 0.564 0.058 0.686" stroke="hsl(180.0,100%,35%)" stroke-width="0.00099"></path>
<path d="M0.070 0.447 Q0.432 0.455 0.528 0.280" stroke="hsl(180.0,100%,35%)" stroke-width="0.00076"></path>
<path d="M0.376 -0.477 Q-0.474 -0.086 0.103 0.415" stroke="hsl(180.0,100%,35%)" stroke-width="0.00038"></path>
<path d="M0.376 -0.477 Q-0.547 -0.014 0.155 0.538" stroke="hsl(180.0,100%,35%)" stroke-width="0.00023"></path>
<path d="M0.632 0.378 Q0.659 0.308 0.528 0.280" stroke="hsl(180.0,100%,35%)" stroke-width="0.00023"></path>
<path d="M0.632 0.378 Q0.338 0.291 0.103 0.415" stroke="hsl(180.0,100%,35%)" stroke-width="0.00030"></path>
<path d="M0.632 0.378 Q0.266 0.363 0.155 0.538" stroke="hsl(180.0,100%,35%)" stroke-width="0.00015"></path>
<path d="M0.632 0.378 Q0.659 0.418 0.743 0.414" stroke="hsl(180.0,100%,35%)" stroke-width="0.00015"></path>
<path d="M0.292 0.622 Q0.291 0.553 0.155 0.538" stroke="hsl(180.0,100%,35%)" stroke-width="0.00030"></path>
<path d="M0.236 0.582 Q0.231 0.544 0.155 0.538" stroke="hsl(180.0,100%,35%)" stroke-width="0.00427"></path>
<path d="M0.236 0.582 Q0.303 0.472 0.103 0.415" stroke="hsl(180.0,100%,35%)" stroke-width="0.00328"></path>
<path d="M0.236 0.582 Q0.623 0.490 0.528 0.280" stroke="hsl(180.0,100%,35%)" stroke-width="0.00015"></path>
<path d="M0.236 0.582 Q0.063 0.599 0.058 0.686" stroke="hsl(180.0,100%,35%)" stroke-width="0.00091"></path>
<path d="M0.407 0.477 Q0.588 0.668 1.000 0.622" stroke="hsl(180.0,100%,35%)" stroke-width="0.00091"></path>
<path d="M0.407 0.477 Q0.233 0.457 0.155 0.538" stroke="hsl(180.0,100%,35%)" stroke-width="0.00145"></path>
<path d="M0.407 0.477 Q0.427 0.739 0.942 0.787" stroke="hsl(180.0,100%,35%)" stroke-width="0.00038"></path>
<path d="M0.407 0.477 Q0.305 0.385 0.103 0.415" stroke="hsl(180.0,100%,35%)" stroke-width="0.00137"></path>
<path d="M0.407 0.477 Q0.625 0.403 0.528 0.280" stroke="hsl(180.0,100%,35%)" stroke-width="0.00023"></path>
<path d="M0.393 0.665 Q0.376 0.554 0.155 0.538" stroke="hsl(180.0,100%,35%)" stroke-width="0.00015"></path>
<path d="M0.393 0.665 Q0.448 0.482 0.103 0.415" stroke="hsl(180.0,100%,35%)" stroke-width="0.00023"></path>
<path d="M0.130 0.134 Q-0.180 0.341 0.155 0.538" stroke="hsl(180.0,100%,35%)" stroke-width="0.00053"></path>
<path d="M0.130 0.134 Q-0.108 0.269 0.103 0.415" stroke="hsl(180.0,100%,35%)" stroke-width="0.00091"></path>
<path d="M0.130 0.134 Q-0.348 0.396 0.058 0.686" stroke="hsl(180.0,100%,35%)" stroke-width="0.00030"></path>
<path d="M0.424 0.532 Q0.357 0.409 0.103 0.415" stroke="hsl(180.0,100%,35%)" stroke-width="0.00053"></path>
<path d="M0.424 0.532 Q0.285 0.481 0.155 0.538" stroke="hsl(180.0,100%,35%)" stroke-width="0.00084"></path>
<path d="M0.424 0.532 Q0.640 0.692 1.000 0.622" stroke="hsl(180.0,100%,35%)" stroke-width="0.00038"></path>
<path d="M0.424 0.532 Q0.117 0.536 0.058 0.686" stroke="hsl(180.0,100%,35%)" stroke-width="0.00091"></path>
<path d="M0.151 0.588 Q0.266 0.492 0.103 0.415" stroke="hsl(180.0,100%,35%)" stroke-width="0.00015"></path>
<path d="M0.151 0.588 Q0.194 0.564 0.155 0.538" stroke="hsl(180.0,100%,35%)" stroke-width="0.00030"></path>
<path d="M1.184 0.828 Q1.459 0.735 1.337 0.581" stroke="hsl(0.0,100%,35%)" stroke-width="0.00122"></path>
<path d="M1.184 0.828 Q0.902 0.477 0.155 0.538" stroke="hsl(0.0,100%,35%)" stroke-width="0.00015"></path>
<path d="M1.184 0.828 Q1.204 0.776 1.107 0.755" stroke="hsl(0.0,100%,35%)" stroke-width="0.00091"></path>
<path d="M1.184 0.828 Q1.096 0.759 0.942 0.787" stroke="hsl(0.0,100%,35%)" stroke-width="0.00450"></path>
<path d="M0.068 0.420 Q0.092 0.706 0.654 0.757" stroke="hsl(180.0,100%,35%)" stroke-width="0.00038"></path>
<path d="M0.068 0.420 Q0.222 0.333 0.085 0.239" stroke="hsl(180.0,100%,35%)" stroke-width="0.00046"></path>
<path d="M0.068 0.420 Q0.018 0.496 0.155 0.538" stroke="hsl(180.0,100%,35%)" stroke-width="0.00015"></path>
<path d="M0.068 0.420 Q0.015 0.590 0.334 0.653" stroke="hsl(180.0,100%,35%)" stroke-width="0.00038"></path>
<path d="M0.068 0.420 Q0.090 0.425 0.103 0.415" stroke="hsl(180.0,100%,35%)" stroke-width="0.00191"></path>
<path d="M0.068 0.420 Q0.256 0.439 0.333 0.352" stroke="hsl(180.0,100%,35%)" stroke-width="0.00091"></path>
<path d="M0.068 0.420 Q0.239 0.671 0.766 0.643" stroke="hsl(180.0,100%,35%)" stroke-width="0.00015"></path>
<path d="M0.377 -0.083 Q-0.231 0.183 0.155 0.538" stroke="hsl(180.0,100%,35%)" stroke-width="0.00038"></path>
<path d="M0.377 -0.083 Q-0.158 0.111 0.103 0.415" stroke="hsl(180.0,100%,35%)" stroke-width="0.00023"></path>
<path d="M0.506 0.388 Q0.461 0.302 0.284 0.306" stroke="hsl(180.0,100%,35%)" stroke-width="0.00229"></path>
<path d="M0.506 0.388 Q0.211 0.393 0.155 0.538" stroke="hsl(180.0,100%,35%)" stroke-width="0.00343"></path>
<path d="M0.506 0.388 Q0.283 0.321 0.103 0.415" stroke="hsl(180.0,100%,35%)" stroke-width="0.00442"></path>
<path d="M0.506 0.388 Q0.415 0.230 0.085 0.239" stroke="hsl(180.0,100%,35%)" stroke-width="0.00015"></path>
<path d="M0.314 0.320 Q0.132 0.325 0.103 0.415" stroke="hsl(180.0,100%,35%)" stroke-width="0.00091"></path>
<path d="M0.314 0.320 Q0.264 0.234 0.085 0.239" stroke="hsl(180.0,100%,35%)" stroke-width="0.00030"></path>
<path d="M0.314 0.320 Q0.134 0.606 0.654 0.757" stroke="hsl(180.0,100%,35%)" stroke-width="0.00023"></path>
<path d="M0.314 0.320 Q0.060 0.397 0.155 0.538" stroke="hsl(180.0,100%,35%)" stroke-width="0.00084"></path>
<path d="M0.405 0.206 Q0.087 0.250 0.103 0.415" stroke="hsl(180.0,100%,35%)" stroke-width="0.00175"></path>
<path d="M0.405 0.206 Q0.015 0.322 0.155 0.538" stroke="hsl(180.0,100%,35%)" stroke-width="0.00030"></path>
<path d="M0.405 0.206 Q0.219 0.159 0.085 0.239" stroke="hsl(180.0,100%,35%)" stroke-width="0.00015"></path>
<path d="M0.332 0.413 Q0.217 0.368 0.103 0.415" stroke="hsl(180.0,100%,35%)" stroke-width="0.00069"></path>
<path d="M0.332 0.413 Q0.144 0.440 0.155 0.538" stroke="hsl(180.0,100%,35%)" stroke-width="0.00046"></path>
<path d="M0.332 0.413 Q0.371 0.444 0.440 0.432" stroke="hsl(180.0,100%,35%)" stroke-width="0.00046"></path>
<path d="M0.332 0.413 Q0.537 0.496 0.743 0.414" stroke="hsl(180.0,100%,35%)" stroke-width="0.00015"></path>
<path d="M0.269 0.475 Q0.162 0.484 0.155 0.538" stroke="hsl(180.0,100%,35%)" stroke-width="0.00023"></path>
<path d="M0.543 0.184 Q0.066 0.283 0.155 0.538" stroke="hsl(180.0,100%,35%)" stroke-width="0.00015"></path>
<path d="M0.309 0.103 Q-0.044 0.218 0.103 0.415" stroke="hsl(180.0,100%,35%)" stroke-width="0.00030"></path>
<path d="M0.309 0.103 Q-0.116 0.289 0.155 0.538" stroke="hsl(180.0,100%,35%)" stroke-width="0.00030"></path>
<path d="M0.309 0.103 Q0.275 0.173 0.405 0.206" stroke="hsl(180.0,100%,35%)" stroke-width="0.00015"></path>
<path d="M1.680 0.419 Q1.379 0.431 1.337 0.581" stroke="hsl(0.0,100%,35%)" stroke-width="0.00023"></path>
<path d="M1.680 0.419 Q1.665 0.347 1.523 0.339" stroke="hsl(0.0,100%,35%)" stroke-width="0.00015"></path>
<path d="M0.735 0.785 Q0.717 0.755 0.654 0.757" stroke="hsl(0.0,100%,35%)" stroke-width="0.00084"></path>
<path d="M0.735 0.785 Q0.715 0.474 0.103 0.415" stroke="hsl(0.0,100%,35%)" stroke-width="0.00015"></path>
<path d="M0.568 0.441 Q0.284 0.407 0.155 0.538" stroke="hsl(180.0,100%,35%)" stroke-width="0.00053"></path>
<path d="M0.568 0.441 Q0.357 0.335 0.103 0.415" stroke="hsl(180.0,100%,35%)" stroke-width="0.00030"></path>
<path d="M0.568 0.441 Q0.117 0.462 0.058 0.686" stroke="hsl(180.0,100%,35%)" stroke-width="0.00030"></path>
<path d="M1.449 0.796 Q1.081 0.336 0.103 0.415" stroke="hsl(0.0,100%,35%)" stroke-width="0.00023"></path>
<path d="M1.449 0.796 Q1.384 0.685 1.153 0.692" stroke="hsl(0.0,100%,35%)" stroke-width="0.00030"></path>
<path d="M0.328 0.144 Q-0.073 0.306 0.155 0.538" stroke="hsl(180.0,100%,35%)" stroke-width="0.00091"></path>
<path d="M0.328 0.144 Q-0.001 0.235 0.103 0.415" stroke="hsl(180.0,100%,35%)" stroke-width="0.00076"></path>
<path d="M0.328 0.144 Q0.319 0.252 0.528 0.280" stroke="hsl(180.0,100%,35%)" stroke-width="0.00023"></path>
<path d="M0.371 0.537 Q0.262 0.494 0.155 0.538" stroke="hsl(0.0,100%,35%)" stroke-width="0.00015"></path>
<path d="M0.527 0.295 Q0.219 0.270 0.103 0.415" stroke="hsl(180.0,100%,35%)" stroke-width="0.00015"></path>
<path d="M0.527 0.295 Q0.147 0.342 0.155 0.538" stroke="hsl(180.0,100%,35%)" stroke-width="0.00015"></path>
<path d="M0.376 0.457 Q0.201 0.453 0.155 0.538" stroke="hsl(180.0,100%,35%)" stroke-width="0.00023"></path>
<path d="M0.053 0.619 Q0.169 0.599 0.155 0.538" stroke="hsl(180.0,100%,35%)" stroke-width="0.00069"></path>
<path d="M0.056 0.472 Q0.126 0.453 0.103 0.415" stroke="hsl(180.0,100%,35%)" stroke-width="0.00030"></path>
<path d="M0.056 0.472 Q0.053 0.525 0.155 0.538" stroke="hsl(180.0,100%,35%)" stroke-width="0.00046"></path>
<path d="M1.222 0.551 Q0.699 0.331 0.155 0.538" stroke="hsl(0.0,100%,35%)" stroke-width="0.00023"></path>
<path d="M1.222 0.551 Q1.256 0.589 1.337 0.581" stroke="hsl(0.0,100%,35%)" stroke-width="0.00015"></path>
<path d="M0.205 0.309 Q-0.003 0.413 0.155 0.538" stroke="hsl(180.0,100%,35%)" stroke-width="0.00023"></path>
<path d="M0.205 0.309 Q0.069 0.342 0.103 0.415" stroke="hsl(180.0,100%,35%)" stroke-width="0.00023"></path>
<path d="M0.221 0.305 Q0.002 0.408 0.155 0.538" stroke="hsl(180.0,100%,35%)" stroke-width="0.00015"></path>
<path d="M0.471 0.219 Q0.058 0.315 0.155 0.538" stroke="hsl(180.0,100%,35%)" stroke-width="0.00053"></path>
<path d="M0.471 0.219 Q0.451 0.261 0.528 0.280" stroke="hsl(180.0,100%,35%)" stroke-width="0.00030"></path>
<path d="M0.471 0.219 Q0.131 0.243 0.103 0.415" stroke="hsl(180.0,100%,35%)" stroke-width="0.00015"></path>
<path d="M0.741 0.291 Q0.643 0.243 0.528 0.280" stroke="hsl(180.0,100%,35%)" stroke-width="0.00023"></path>
<path d="M0.741 0.291 Q0.323 0.226 0.103 0.415" stroke="hsl(180.0,100%,35%)" stroke-width="0.00015"></path>
<path d="M0.741 0.291 Q0.251 0.297 0.155 0.538" stroke="hsl(180.0,100%,35%)" stroke-width="0.00023"></path>
<path d="M0.038 0.452 Q0.027 0.518 0.155 0.538" stroke="hsl(180.0,100%,35%)" stroke-width="0.00023"></path>
<path d="M0.038 0.452 Q0.100 0.446 0.103 0.415" stroke="hsl(180.0,100%,35%)" stroke-width="0.00023"></path>
</g>
<text x="1.484" y="0.766" font-size="0.008881" fill="hsl(0.0,100%,20%)">afdx</text>
<text x="0.654" y="0.713" font-size="0.086464" fill="hsl(0.0,100%,20%)">bclayton</text>
<text x="1.337" y="0.564" font-size="0.032862" fill="hsl(0.0,100%,20%)">rharrison</text>
<text x="0.766" y="0.622" font-size="0.041931" fill="hsl(0.0,100%,20%)">amaiorano</text>
<text x="1.529" y="0.482" font-size="0.005867" fill="hsl(0.0,100%,20%)">vasniktel</text>
<text x="0.576" y="0.464" font-size="0.004638" fill="hsl(180.0,100%,20%)">albin.bernhardsson</text>
<text x="0.155" y="0.500" font-size="0.076474" fill="hsl(180.0,100%,20%)">cwallez</text>
<text x="0.103" y="0.377" font-size="0.075045" fill="hsl(180.0,100%,20%)">enga</text>
<text x="1.000" y="0.589" font-size="0.065340" fill="hsl(0.0,100%,20%)">dsinclair</text>
<text x="0.058" y="0.668" font-size="0.036969" fill="hsl(180.0,100%,20%)">kainino</text>
<text x="0.024" y="0.422" font-size="0.003593" fill="hsl(180.0,100%,20%)">aleksi</text>
<text x="0.050" y="0.283" font-size="0.003387" fill="hsl(180.0,100%,20%)">aleksi.sapon</text>
<text x="0.085" y="0.224" font-size="0.031113" fill="hsl(180.0,100%,20%)">lokokung</text>
<text x="1.153" y="0.668" font-size="0.047991" fill="hsl(0.0,100%,20%)">jrprice</text>
<text x="0.942" y="0.764" font-size="0.046024" fill="hsl(0.0,100%,20%)">dneto</text>
<text x="0.890" y="0.868" font-size="0.008297" fill="hsl(0.0,100%,20%)">alanbaker</text>
<text x="0.334" y="0.642" font-size="0.021787" fill="hsl(180.0,100%,20%)">bajones</text>
<text x="0.530" y="-0.681" font-size="0.001198" fill="hsl(0.0,100%,20%)">sugoi</text>
<text x="0.509" y="-0.234" font-size="0.001198" fill="hsl(0.0,100%,20%)">armansito</text>
<text x="0.277" y="0.278" font-size="0.007479" fill="hsl(180.0,100%,20%)">ynovikov</text>
<text x="0.395" y="0.542" font-size="0.002395" fill="hsl(0.0,100%,20%)">andre</text>
<text x="0.347" y="0.446" font-size="0.007382" fill="hsl(180.0,100%,20%)">arthursonzogni</text>
<text x="0.475" y="1.880" font-size="0.001198" fill="hsl(180.0,100%,20%)">khaslett</text>
<text x="0.360" y="-0.427" font-size="0.003387" fill="hsl(180.0,100%,20%)">austineng</text>
<text x="0.093" y="0.311" font-size="0.018122" fill="hsl(180.0,100%,20%)">shrekshao</text>
<text x="0.408" y="0.462" font-size="0.002395" fill="hsl(180.0,100%,20%)">avi</text>
<text x="0.489" y="0.558" font-size="0.020039" fill="hsl(180.0,100%,20%)">yunchao.he</text>
<text x="0.263" y="-0.200" font-size="0.001198" fill="hsl(180.0,100%,20%)">headlessclayton</text>
<text x="0.989" y="0.783" font-size="0.001694" fill="hsl(0.0,100%,20%)">brucedawson</text>
<text x="0.333" y="0.337" font-size="0.029794" fill="hsl(180.0,100%,20%)">senorblanco</text>
<text x="0.631" y="0.538" font-size="0.001198" fill="hsl(0.0,100%,20%)">kjlubick</text>
<text x="0.528" y="0.263" font-size="0.035241" fill="hsl(180.0,100%,20%)">jiawei.shao</text>
<text x="0.790" y="0.326" font-size="0.015660" fill="hsl(180.0,100%,20%)">brandon1.jones</text>
<text x="0.992" y="0.816" font-size="0.014370" fill="hsl(180.0,100%,20%)">zhaoming.jiang</text>
<text x="1.107" y="0.747" font-size="0.016936" fill="hsl(0.0,100%,20%)">sarahmashay</text>
<text x="1.293" y="0.346" font-size="0.002074" fill="hsl(0.0,100%,20%)">allydonaldson</text>
<text x="0.366" y="0.545" font-size="0.009875" fill="hsl(180.0,100%,20%)">beaufort.francois</text>
<text x="0.329" y="0.650" font-size="0.006668" fill="hsl(180.0,100%,20%)">blundell</text>
<text x="0.388" y="1.088" font-size="0.001694" fill="hsl(180.0,100%,20%)">nicolettep</text>
<text x="0.743" y="0.409" font-size="0.009802" fill="hsl(180.0,100%,20%)">rafael.cintron</text>
<text x="0.048" y="0.574" font-size="0.010976" fill="hsl(180.0,100%,20%)">natlee</text>
<text x="0.440" y="0.424" font-size="0.015522" fill="hsl(180.0,100%,20%)">bryan.bernhart</text>
<text x="0.344" y="0.310" font-size="0.009198" fill="hsl(180.0,100%,20%)">bsheedy</text>
<text x="0.409" y="1.043" font-size="0.001694" fill="hsl(180.0,100%,20%)">gbeaty</text>
<text x="0.296" y="1.750" font-size="0.002074" fill="hsl(180.0,100%,20%)">capn</text>
<text x="0.443" y="1.037" font-size="0.002678" fill="hsl(180.0,100%,20%)">ccameron</text>
<text x="0.421" y="0.538" font-size="0.003972" fill="hsl(180.0,100%,20%)">cjj19970505</text>
<text x="0.567" y="0.469" font-size="0.001198" fill="hsl(180.0,100%,20%)">fhorschig</text>
<text x="0.539" y="0.447" font-size="0.001198" fill="hsl(180.0,100%,20%)">jamesgk</text>
<text x="0.284" y="0.297" font-size="0.016680" fill="hsl(180.0,100%,20%)">penghuang</text>
<text x="0.372" y="0.460" font-size="0.008718" fill="hsl(180.0,100%,20%)">lehoangquyen</text>
<text x="0.223" y="0.584" font-size="0.001694" fill="hsl(180.0,100%,20%)">fbeaufort</text>
<text x="0.299" y="0.592" font-size="0.006668" fill="hsl(180.0,100%,20%)">hogehoge</text>
<text x="0.070" y="0.439" font-size="0.016507" fill="hsl(180.0,100%,20%)">hao.x.li</text>
<text x="0.376" y="-0.480" font-size="0.004318" fill="hsl(180.0,100%,20%)">rockot</text>
<text x="0.632" y="0.376" font-size="0.004148" fill="hsl(180.0,100%,20%)">jiajia.qin</text>
<text x="0.292" y="0.620" font-size="0.004148" fill="hsl(180.0,100%,20%)">thakis</text>
<text x="1.618" y="0.664" font-size="0.002395" fill="hsl(0.0,100%,20%)">jmadill</text>
<text x="0.236" y="0.576" font-size="0.013064" fill="hsl(180.0,100%,20%)">shaobo.yan</text>
<text x="1.264" y="-0.071" font-size="0.002074" fill="hsl(0.0,100%,20%)">johnstiles</text>
<text x="0.407" y="0.473" font-size="0.009120" fill="hsl(180.0,100%,20%)">tommek</text>
<text x="0.035" y="2.264" font-size="0.001198" fill="hsl(180.0,100%,20%)">sque</text>
<text x="0.393" y="0.663" font-size="0.003387" fill="hsl(180.0,100%,20%)">zmo</text>
<text x="0.215" y="0.629" font-size="0.003787" fill="hsl(180.0,100%,20%)">digit</text>
<text x="0.130" y="0.131" font-size="0.005988" fill="hsl(180.0,100%,20%)">hob</text>
<text x="0.154" y="0.629" font-size="0.001198" fill="hsl(180.0,100%,20%)">oshima</text>
<text x="0.467" y="1.376" font-size="0.001198" fill="hsl(180.0,100%,20%)">afakhry</text>
<text x="0.424" y="0.528" font-size="0.007382" fill="hsl(180.0,100%,20%)">idanr</text>
<text x="1.395" y="0.936" font-size="0.001694" fill="hsl(180.0,100%,20%)">tandrii</text>
<text x="0.168" y="0.246" font-size="0.002074" fill="hsl(180.0,100%,20%)">kbr</text>
<text x="0.151" y="0.587" font-size="0.003387" fill="hsl(180.0,100%,20%)">cwoffenden</text>
<text x="0.659" y="0.830" font-size="0.002074" fill="hsl(0.0,100%,20%)">danakj</text>
<text x="1.184" y="0.823" font-size="0.011361" fill="hsl(0.0,100%,20%)">dj2</text>
<text x="0.068" y="0.416" font-size="0.009802" fill="hsl(180.0,100%,20%)">gman</text>
<text x="1.372" y="0.495" font-size="0.001198" fill="hsl(0.0,100%,20%)">yiwzhang</text>
<text x="0.377" y="-0.085" font-size="0.003593" fill="hsl(180.0,100%,20%)">elie.michel.fr</text>
<text x="0.506" y="0.381" font-size="0.014119" fill="hsl(180.0,100%,20%)">jie.a.chen</text>
<text x="0.362" y="0.325" font-size="0.002074" fill="hsl(180.0,100%,20%)">toji</text>
<text x="0.314" y="0.317" font-size="0.006774" fill="hsl(180.0,100%,20%)">tiszka</text>
<text x="0.405" y="0.202" font-size="0.006983" fill="hsl(180.0,100%,20%)">sunnyps</text>
<text x="0.324" y="0.167" font-size="0.001198" fill="hsl(180.0,100%,20%)">mtklein</text>
<text x="0.216" y="0.068" font-size="0.001694" fill="hsl(180.0,100%,20%)">mehe</text>
<text x="0.332" y="0.410" font-size="0.005988" fill="hsl(180.0,100%,20%)">enrico.galli</text>
<text x="0.269" y="0.474" font-size="0.002395" fill="hsl(180.0,100%,20%)">fjhenigman</text>
<text x="0.543" y="0.183" font-size="0.002395" fill="hsl(180.0,100%,20%)">geofflang</text>
<text x="0.597" y="0.060" font-size="0.001198" fill="hsl(180.0,100%,20%)">fmalita</text>
<text x="1.611" y="0.835" font-size="0.003168" fill="hsl(0.0,100%,20%)">hans</text>
<text x="1.681" y="0.770" font-size="0.001198" fill="hsl(0.0,100%,20%)">hwennborg</text>
<text x="0.309" y="0.101" font-size="0.003787" fill="hsl(180.0,100%,20%)">hitawala</text>
<text x="1.682" y="0.935" font-size="0.002395" fill="hsl(180.0,100%,20%)">iannucci</text>
<text x="1.680" y="0.417" font-size="0.002933" fill="hsl(0.0,100%,20%)">jamessliu2020</text>
<text x="1.523" y="0.338" font-size="0.001694" fill="hsl(0.0,100%,20%)">paulthomson</text>
<text x="0.735" y="0.782" font-size="0.004790" fill="hsl(0.0,100%,20%)">jason.erb</text>
<text x="0.568" y="0.439" font-size="0.004638" fill="hsl(180.0,100%,20%)">jiajie.hu</text>
<text x="0.444" y="0.806" font-size="0.002074" fill="hsl(180.0,100%,20%)">jianlin.qiu</text>
<text x="1.449" y="0.794" font-size="0.003387" fill="hsl(0.0,100%,20%)">jojwang</text>
<text x="0.328" y="0.141" font-size="0.006106" fill="hsl(180.0,100%,20%)">junwei.fu</text>
<text x="0.467" y="1.627" font-size="0.001198" fill="hsl(180.0,100%,20%)">ningxin.hu</text>
<text x="1.063" y="-0.253" font-size="0.002678" fill="hsl(0.0,100%,20%)">jwata</text>
<text x="0.371" y="0.536" font-size="0.002678" fill="hsl(0.0,100%,20%)">ukai</text>
<text x="0.527" y="0.294" font-size="0.003168" fill="hsl(180.0,100%,20%)">pkasting</text>
<text x="1.566" y="0.818" font-size="0.001694" fill="hsl(0.0,100%,20%)">mmoroz</text>
<text x="0.376" y="0.456" font-size="0.002678" fill="hsl(180.0,100%,20%)">stephen</text>
<text x="0.053" y="0.616" font-size="0.004481" fill="hsl(180.0,100%,20%)">stha09</text>
<text x="1.882" y="0.830" font-size="0.001694" fill="hsl(180.0,100%,20%)">svenzheng</text>
<text x="1.891" y="0.730" font-size="0.001198" fill="hsl(180.0,100%,20%)">lgrey</text>
<text x="0.056" y="0.470" font-size="0.003972" fill="hsl(180.0,100%,20%)">tangm</text>
<text x="1.222" y="0.550" font-size="0.002933" fill="hsl(0.0,100%,20%)">vadimsh</text>
<text x="0.205" y="0.307" font-size="0.003168" fill="hsl(180.0,100%,20%)">vollick</text>
<text x="0.221" y="0.304" font-size="0.002395" fill="hsl(180.0,100%,20%)">wangqing-hf</text>
<text x="0.471" y="0.217" font-size="0.004638" fill="hsl(180.0,100%,20%)">xinghua.cao</text>
<text x="0.741" y="0.289" font-size="0.003787" fill="hsl(180.0,100%,20%)">yang.gu</text>
<text x="0.038" y="0.450" font-size="0.003168" fill="hsl(180.0,100%,20%)">yizhou.jiang</text>
</svg>
