<svg width="4000" height="2000" viewBox="-0.025 -0.025 2.05 1.05" xmlns="http://www.w3.org/2000/svg">
  <style>
    path {
      fill: none;
      stroke-linecap: round;
      stroke-opacity: 0.4;
    }

    text {
      text-anchor: middle;
      alignment-baseline: hanging;
    }
  </style>
  <g opacity="0.4">
<path d="M0.661 0.982 Q0.850 0.828 0.590 0.703" stroke="hsl(0.0,100%,35%)" stroke-width="0.02038"></path>
<path d="M0.661 0.982 Q0.933 1.094 1.210 0.986" stroke="hsl(0.0,100%,35%)" stroke-width="0.01019"></path>
<path d="M0.661 0.982 Q0.882 0.916 0.802 0.794" stroke="hsl(0.0,100%,35%)" stroke-width="0.03058"></path>
<path d="M1.581 0.315 Q0.808 0.398 0.802 0.794" stroke="hsl(180.0,100%,35%)" stroke-width="0.03058"></path>
<path d="M1.581 0.315 Q1.334 0.349 1.346 0.477" stroke="hsl(180.0,100%,35%)" stroke-width="0.04077"></path>
<path d="M1.581 0.315 Q1.504 0.435 1.721 0.499" stroke="hsl(180.0,100%,35%)" stroke-width="0.02038"></path>
<path d="M1.581 0.315 Q1.360 0.483 1.640 0.628" stroke="hsl(180.0,100%,35%)" stroke-width="0.03058"></path>
<path d="M0.333 0.604 Q1.189 0.709 1.581 0.315" stroke="hsl(180.0,100%,35%)" stroke-width="0.03058"></path>
<path d="M0.333 0.604 Q0.200 0.654 0.268 0.730" stroke="hsl(180.0,100%,35%)" stroke-width="0.01019"></path>
<path d="M0.333 0.604 Q0.477 0.567 0.435 0.488" stroke="hsl(180.0,100%,35%)" stroke-width="0.01019"></path>
<path d="M0.268 0.730 Q0.451 0.781 0.590 0.703" stroke="hsl(180.0,100%,35%)" stroke-width="0.01019"></path>
<path d="M0.268 0.730 Q1.257 0.785 1.581 0.315" stroke="hsl(180.0,100%,35%)" stroke-width="0.01019"></path>
<path d="M0.268 0.730 Q0.401 0.680 0.333 0.604" stroke="hsl(180.0,100%,35%)" stroke-width="0.01019"></path>
<path d="M0.823 0.543 Q1.385 0.580 1.581 0.315" stroke="hsl(0.0,100%,35%)" stroke-width="0.01019"></path>
<path d="M0.823 0.543 Q0.579 0.576 0.590 0.703" stroke="hsl(0.0,100%,35%)" stroke-width="0.02038"></path>
<path d="M0.823 0.543 Q0.612 0.664 0.802 0.794" stroke="hsl(0.0,100%,35%)" stroke-width="0.02038"></path>
<path d="M0.570 0.183 Q0.197 0.534 0.802 0.794" stroke="hsl(0.0,100%,35%)" stroke-width="0.01019"></path>
<path d="M0.570 0.183 Q0.442 0.110 0.272 0.156" stroke="hsl(0.0,100%,35%)" stroke-width="0.01019"></path>
<path d="M0.453 0.830 Q0.657 0.882 0.802 0.794" stroke="hsl(0.0,100%,35%)" stroke-width="0.03058"></path>
<path d="M0.453 0.830 Q1.430 0.798 1.581 0.315" stroke="hsl(0.0,100%,35%)" stroke-width="0.01019"></path>
<path d="M0.453 0.830 Q0.624 0.794 0.590 0.703" stroke="hsl(0.0,100%,35%)" stroke-width="0.01019"></path>
</g>
<text x="0.661" y="0.954" font-size="0.056195" fill="hsl(0.0,100%,20%)">arthursonzogni</text>
<text x="0.590" y="0.674" font-size="0.056195" fill="hsl(0.0,100%,20%)">enga</text>
<text x="1.210" y="0.975" font-size="0.022942" fill="hsl(0.0,100%,20%)">khaslett</text>
<text x="0.802" y="0.754" font-size="0.079472" fill="hsl(0.0,100%,20%)">cwallez</text>
<text x="1.581" y="0.266" font-size="0.097333" fill="hsl(180.0,100%,20%)">bclayton</text>
<text x="1.346" y="0.454" font-size="0.045883" fill="hsl(180.0,100%,20%)">dneto</text>
<text x="1.721" y="0.482" font-size="0.032444" fill="hsl(180.0,100%,20%)">jrprice</text>
<text x="1.640" y="0.608" font-size="0.039736" fill="hsl(180.0,100%,20%)">amaiorano</text>
<text x="0.333" y="0.576" font-size="0.056195" fill="hsl(180.0,100%,20%)">dsinclair</text>
<text x="0.268" y="0.707" font-size="0.045883" fill="hsl(180.0,100%,20%)">senorblanco</text>
<text x="0.435" y="0.477" font-size="0.022942" fill="hsl(180.0,100%,20%)">shrekshao</text>
<text x="0.823" y="0.517" font-size="0.051299" fill="hsl(0.0,100%,20%)">jiawei.shao</text>
<text x="0.570" y="0.166" font-size="0.032444" fill="hsl(0.0,100%,20%)">lokokung</text>
<text x="0.272" y="0.144" font-size="0.022942" fill="hsl(0.0,100%,20%)">kainino</text>
<text x="0.453" y="0.805" font-size="0.051299" fill="hsl(0.0,100%,20%)">penghuang</text>
</svg>
