<svg width="4000" height="2000" viewBox="-0.025 -0.025 2.05 1.05" xmlns="http://www.w3.org/2000/svg">
  <style>
    path {
      fill: none;
      stroke-linecap: round;
      stroke-opacity: 0.4;
    }

    text {
      text-anchor: middle;
      alignment-baseline: hanging;
    }
  </style>
  <g opacity="0.4">
<path d="M0.604 0.673 Q0.761 0.539 0.532 0.432" stroke="hsl(0.0,100%,35%)" stroke-width="0.00543"></path>
<path d="M0.604 0.673 Q0.214 0.741 0.260 0.946" stroke="hsl(0.0,100%,35%)" stroke-width="0.00401"></path>
<path d="M0.604 0.673 Q0.360 0.681 0.321 0.801" stroke="hsl(0.0,100%,35%)" stroke-width="0.00024"></path>
<path d="M0.604 0.673 Q1.384 0.483 1.185 0.061" stroke="hsl(0.0,100%,35%)" stroke-width="0.00047"></path>
<path d="M0.532 0.432 Q-0.015 0.635 0.260 0.946" stroke="hsl(0.0,100%,35%)" stroke-width="0.01511"></path>
<path d="M0.532 0.432 Q0.658 0.556 0.928 0.522" stroke="hsl(0.0,100%,35%)" stroke-width="0.00260"></path>
<path d="M0.532 0.432 Q0.740 0.452 0.823 0.354" stroke="hsl(0.0,100%,35%)" stroke-width="0.00024"></path>
<path d="M0.532 0.432 Q0.286 0.482 0.329 0.613" stroke="hsl(0.0,100%,35%)" stroke-width="0.00165"></path>
<path d="M0.532 0.432 Q0.131 0.575 0.321 0.801" stroke="hsl(0.0,100%,35%)" stroke-width="0.00165"></path>
<path d="M0.532 0.432 Q0.218 0.652 0.576 0.853" stroke="hsl(0.0,100%,35%)" stroke-width="0.00401"></path>
<path d="M0.532 0.432 Q0.710 0.642 1.158 0.600" stroke="hsl(0.0,100%,35%)" stroke-width="0.00543"></path>
<path d="M0.532 0.432 Q0.375 0.567 0.604 0.673" stroke="hsl(0.0,100%,35%)" stroke-width="0.00071"></path>
<path d="M0.532 0.432 Q0.420 0.523 0.573 0.597" stroke="hsl(0.0,100%,35%)" stroke-width="0.00071"></path>
<path d="M0.260 0.946 Q0.493 0.963 0.576 0.853" stroke="hsl(0.0,100%,35%)" stroke-width="0.05431"></path>
<path d="M0.260 0.946 Q0.406 0.886 0.321 0.801" stroke="hsl(0.0,100%,35%)" stroke-width="0.05833"></path>
<path d="M0.260 0.946 Q0.561 0.793 0.329 0.613" stroke="hsl(0.0,100%,35%)" stroke-width="0.04534"></path>
<path d="M0.260 0.946 Q0.933 0.868 0.928 0.522" stroke="hsl(0.0,100%,35%)" stroke-width="0.01346"></path>
<path d="M0.260 0.946 Q0.807 0.744 0.532 0.432" stroke="hsl(0.0,100%,35%)" stroke-width="0.00567"></path>
<path d="M0.260 0.946 Q0.257 0.875 0.118 0.861" stroke="hsl(0.0,100%,35%)" stroke-width="0.00189"></path>
<path d="M0.260 0.946 Q0.985 0.953 1.158 0.600" stroke="hsl(0.0,100%,35%)" stroke-width="0.02621"></path>
<path d="M0.260 0.946 Q0.984 1.028 1.303 0.693" stroke="hsl(0.0,100%,35%)" stroke-width="0.00047"></path>
<path d="M0.260 0.946 Q0.334 0.815 0.095 0.750" stroke="hsl(0.0,100%,35%)" stroke-width="0.00118"></path>
<path d="M0.260 0.946 Q1.430 0.689 1.185 0.061" stroke="hsl(0.0,100%,35%)" stroke-width="0.00047"></path>
<path d="M0.260 0.946 Q0.963 1.039 1.298 0.717" stroke="hsl(0.0,100%,35%)" stroke-width="0.00024"></path>
<path d="M0.260 0.946 Q1.505 0.776 1.446 0.132" stroke="hsl(0.0,100%,35%)" stroke-width="0.00024"></path>
<path d="M0.260 0.946 Q0.787 0.902 0.818 0.635" stroke="hsl(0.0,100%,35%)" stroke-width="0.00024"></path>
<path d="M0.260 0.946 Q0.669 0.656 0.192 0.392" stroke="hsl(0.0,100%,35%)" stroke-width="0.00024"></path>
<path d="M0.321 0.801 Q0.407 0.878 0.576 0.853" stroke="hsl(0.0,100%,35%)" stroke-width="0.00472"></path>
<path d="M0.321 0.801 Q0.174 0.861 0.260 0.946" stroke="hsl(0.0,100%,35%)" stroke-width="0.03093"></path>
<path d="M0.321 0.801 Q0.475 0.708 0.329 0.613" stroke="hsl(0.0,100%,35%)" stroke-width="0.00307"></path>
<path d="M0.321 0.801 Q0.900 0.868 1.158 0.600" stroke="hsl(0.0,100%,35%)" stroke-width="0.00213"></path>
<path d="M0.321 0.801 Q0.848 0.783 0.928 0.522" stroke="hsl(0.0,100%,35%)" stroke-width="0.00071"></path>
<path d="M1.185 0.061 Q0.561 0.116 0.532 0.432" stroke="hsl(0.0,100%,35%)" stroke-width="0.00094"></path>
<path d="M1.185 0.061 Q0.014 0.318 0.260 0.946" stroke="hsl(0.0,100%,35%)" stroke-width="0.00142"></path>
<path d="M1.185 0.061 Q0.404 0.251 0.604 0.673" stroke="hsl(0.0,100%,35%)" stroke-width="0.00047"></path>
<path d="M1.185 0.061 Q1.259 0.148 1.446 0.132" stroke="hsl(0.0,100%,35%)" stroke-width="0.00047"></path>
<path d="M1.185 0.061 Q0.315 0.166 0.329 0.613" stroke="hsl(0.0,100%,35%)" stroke-width="0.00024"></path>
<path d="M0.877 0.706 Q1.050 0.624 0.928 0.522" stroke="hsl(180.0,100%,35%)" stroke-width="0.00024"></path>
<path d="M0.877 0.706 Q1.102 0.710 1.158 0.600" stroke="hsl(180.0,100%,35%)" stroke-width="0.00047"></path>
<path d="M0.877 0.706 Q0.377 0.703 0.260 0.946" stroke="hsl(180.0,100%,35%)" stroke-width="0.00024"></path>
<path d="M0.928 0.522 Q1.146 0.675 1.492 0.602" stroke="hsl(180.0,100%,35%)" stroke-width="0.00638"></path>
<path d="M0.928 0.522 Q0.957 0.693 1.298 0.717" stroke="hsl(180.0,100%,35%)" stroke-width="0.00472"></path>
<path d="M0.928 0.522 Q0.978 0.682 1.303 0.693" stroke="hsl(180.0,100%,35%)" stroke-width="0.00307"></path>
<path d="M0.928 0.522 Q1.112 0.626 1.356 0.558" stroke="hsl(180.0,100%,35%)" stroke-width="0.00401"></path>
<path d="M0.928 0.522 Q1.009 0.417 0.823 0.354" stroke="hsl(180.0,100%,35%)" stroke-width="0.00094"></path>
<path d="M0.928 0.522 Q0.980 0.607 1.158 0.600" stroke="hsl(180.0,100%,35%)" stroke-width="0.01440"></path>
<path d="M0.928 0.522 Q0.254 0.600 0.260 0.946" stroke="hsl(180.0,100%,35%)" stroke-width="0.00260"></path>
<path d="M0.928 0.522 Q0.680 0.692 0.958 0.850" stroke="hsl(180.0,100%,35%)" stroke-width="0.00047"></path>
<path d="M0.928 0.522 Q0.401 0.540 0.321 0.801" stroke="hsl(180.0,100%,35%)" stroke-width="0.00024"></path>
<path d="M0.928 0.522 Q0.801 0.398 0.532 0.432" stroke="hsl(180.0,100%,35%)" stroke-width="0.00047"></path>
<path d="M0.928 0.522 Q0.487 0.617 0.576 0.853" stroke="hsl(180.0,100%,35%)" stroke-width="0.00094"></path>
<path d="M0.928 0.522 Q1.131 0.611 1.349 0.531" stroke="hsl(180.0,100%,35%)" stroke-width="0.00047"></path>
<path d="M0.928 0.522 Q0.555 0.447 0.329 0.613" stroke="hsl(180.0,100%,35%)" stroke-width="0.00024"></path>
<path d="M0.928 0.522 Q0.251 0.529 0.118 0.861" stroke="hsl(180.0,100%,35%)" stroke-width="0.00307"></path>
<path d="M0.928 0.522 Q0.862 0.572 0.945 0.615" stroke="hsl(180.0,100%,35%)" stroke-width="0.00071"></path>
<path d="M0.928 0.522 Q1.111 0.442 0.996 0.335" stroke="hsl(180.0,100%,35%)" stroke-width="0.00024"></path>
<path d="M0.928 0.522 Q0.935 0.412 0.722 0.384" stroke="hsl(180.0,100%,35%)" stroke-width="0.00118"></path>
<path d="M1.158 0.600 Q0.665 0.610 0.576 0.853" stroke="hsl(180.0,100%,35%)" stroke-width="0.00071"></path>
<path d="M1.158 0.600 Q1.106 0.515 0.928 0.522" stroke="hsl(180.0,100%,35%)" stroke-width="0.02338"></path>
<path d="M1.158 0.600 Q1.156 0.676 1.303 0.693" stroke="hsl(180.0,100%,35%)" stroke-width="0.00732"></path>
<path d="M1.158 0.600 Q1.324 0.668 1.492 0.602" stroke="hsl(180.0,100%,35%)" stroke-width="0.00472"></path>
<path d="M1.158 0.600 Q0.432 0.594 0.260 0.946" stroke="hsl(180.0,100%,35%)" stroke-width="0.01015"></path>
<path d="M1.158 0.600 Q0.979 0.391 0.532 0.432" stroke="hsl(180.0,100%,35%)" stroke-width="0.00165"></path>
<path d="M1.158 0.600 Q1.135 0.687 1.298 0.717" stroke="hsl(180.0,100%,35%)" stroke-width="0.00236"></path>
<path d="M1.158 0.600 Q0.858 0.685 0.958 0.850" stroke="hsl(180.0,100%,35%)" stroke-width="0.00024"></path>
<path d="M1.158 0.600 Q0.996 0.634 1.027 0.721" stroke="hsl(180.0,100%,35%)" stroke-width="0.00047"></path>
<path d="M1.158 0.600 Q0.999 0.607 0.976 0.686" stroke="hsl(180.0,100%,35%)" stroke-width="0.00024"></path>
<path d="M1.158 0.600 Q0.993 0.468 0.698 0.519" stroke="hsl(180.0,100%,35%)" stroke-width="0.00024"></path>
<path d="M1.158 0.600 Q0.429 0.523 0.118 0.861" stroke="hsl(180.0,100%,35%)" stroke-width="0.00543"></path>
<path d="M1.158 0.600 Q1.187 0.410 0.823 0.354" stroke="hsl(180.0,100%,35%)" stroke-width="0.00024"></path>
<path d="M1.158 0.600 Q1.290 0.619 1.356 0.558" stroke="hsl(180.0,100%,35%)" stroke-width="0.00260"></path>
<path d="M1.158 0.600 Q1.228 0.670 1.380 0.651" stroke="hsl(180.0,100%,35%)" stroke-width="0.00024"></path>
<path d="M1.158 0.600 Q1.252 0.406 0.892 0.317" stroke="hsl(180.0,100%,35%)" stroke-width="0.00024"></path>
<path d="M1.158 0.600 Q0.579 0.533 0.321 0.801" stroke="hsl(180.0,100%,35%)" stroke-width="0.00024"></path>
<path d="M0.576 0.853 Q0.343 0.836 0.260 0.946" stroke="hsl(0.0,100%,35%)" stroke-width="0.04250"></path>
<path d="M0.576 0.853 Q1.046 0.929 1.298 0.717" stroke="hsl(0.0,100%,35%)" stroke-width="0.00047"></path>
<path d="M0.576 0.853 Q0.645 0.683 0.329 0.613" stroke="hsl(0.0,100%,35%)" stroke-width="0.00236"></path>
<path d="M0.576 0.853 Q1.069 0.843 1.158 0.600" stroke="hsl(0.0,100%,35%)" stroke-width="0.00354"></path>
<path d="M0.576 0.853 Q0.490 0.776 0.321 0.801" stroke="hsl(0.0,100%,35%)" stroke-width="0.00189"></path>
<path d="M0.576 0.853 Q1.017 0.758 0.928 0.522" stroke="hsl(0.0,100%,35%)" stroke-width="0.00165"></path>
<path d="M0.576 0.853 Q0.418 0.705 0.095 0.750" stroke="hsl(0.0,100%,35%)" stroke-width="0.00047"></path>
<path d="M0.576 0.853 Q0.890 0.634 0.532 0.432" stroke="hsl(0.0,100%,35%)" stroke-width="0.00118"></path>
<path d="M0.576 0.853 Q1.068 0.918 1.303 0.693" stroke="hsl(0.0,100%,35%)" stroke-width="0.00024"></path>
<path d="M0.329 0.613 Q0.027 0.766 0.260 0.946" stroke="hsl(0.0,100%,35%)" stroke-width="0.01677"></path>
<path d="M0.329 0.613 Q0.701 0.687 0.928 0.522" stroke="hsl(0.0,100%,35%)" stroke-width="0.00024"></path>
<path d="M0.329 0.613 Q0.174 0.705 0.321 0.801" stroke="hsl(0.0,100%,35%)" stroke-width="0.00307"></path>
<path d="M0.329 0.613 Q0.260 0.782 0.576 0.853" stroke="hsl(0.0,100%,35%)" stroke-width="0.01275"></path>
<path d="M0.329 0.613 Q0.436 0.475 0.192 0.392" stroke="hsl(0.0,100%,35%)" stroke-width="0.00897"></path>
<path d="M0.329 0.613 Q0.753 0.772 1.158 0.600" stroke="hsl(0.0,100%,35%)" stroke-width="0.00024"></path>
<path d="M0.329 0.613 Q0.574 0.563 0.532 0.432" stroke="hsl(0.0,100%,35%)" stroke-width="0.00024"></path>
<path d="M1.303 0.693 Q1.333 0.428 0.823 0.354" stroke="hsl(180.0,100%,35%)" stroke-width="0.00047"></path>
<path d="M1.303 0.693 Q1.470 0.685 1.492 0.602" stroke="hsl(180.0,100%,35%)" stroke-width="0.00024"></path>
<path d="M1.303 0.693 Q1.252 0.532 0.928 0.522" stroke="hsl(180.0,100%,35%)" stroke-width="0.00826"></path>
<path d="M1.303 0.693 Q1.304 0.618 1.158 0.600" stroke="hsl(180.0,100%,35%)" stroke-width="0.00708"></path>
<path d="M1.303 0.693 Q0.579 0.611 0.260 0.946" stroke="hsl(180.0,100%,35%)" stroke-width="0.00047"></path>
<path d="M1.303 0.693 Q1.281 0.704 1.298 0.717" stroke="hsl(180.0,100%,35%)" stroke-width="0.00449"></path>
<path d="M1.303 0.693 Q0.811 0.628 0.576 0.853" stroke="hsl(180.0,100%,35%)" stroke-width="0.00024"></path>
<path d="M1.303 0.693 Q1.475 0.733 1.591 0.657" stroke="hsl(180.0,100%,35%)" stroke-width="0.00024"></path>
<path d="M0.823 0.354 Q0.741 0.459 0.928 0.522" stroke="hsl(180.0,100%,35%)" stroke-width="0.00519"></path>
<path d="M0.823 0.354 Q0.792 0.620 1.303 0.693" stroke="hsl(180.0,100%,35%)" stroke-width="0.00024"></path>
<path d="M0.823 0.354 Q0.771 0.631 1.298 0.717" stroke="hsl(180.0,100%,35%)" stroke-width="0.00071"></path>
<path d="M0.823 0.354 Q0.068 0.538 0.260 0.946" stroke="hsl(180.0,100%,35%)" stroke-width="0.00047"></path>
<path d="M0.823 0.354 Q0.793 0.545 1.158 0.600" stroke="hsl(180.0,100%,35%)" stroke-width="0.00165"></path>
<path d="M0.823 0.354 Q0.301 0.554 0.576 0.853" stroke="hsl(180.0,100%,35%)" stroke-width="0.00024"></path>
<path d="M0.823 0.354 Q0.615 0.335 0.532 0.432" stroke="hsl(180.0,100%,35%)" stroke-width="0.00047"></path>
<path d="M1.492 0.602 Q1.303 0.620 1.298 0.717" stroke="hsl(180.0,100%,35%)" stroke-width="0.00094"></path>
<path d="M1.492 0.602 Q1.274 0.449 0.928 0.522" stroke="hsl(180.0,100%,35%)" stroke-width="0.00638"></path>
<path d="M1.492 0.602 Q1.355 0.344 0.823 0.354" stroke="hsl(180.0,100%,35%)" stroke-width="0.00047"></path>
<path d="M1.492 0.602 Q1.326 0.534 1.158 0.600" stroke="hsl(180.0,100%,35%)" stroke-width="0.00283"></path>
<path d="M1.298 0.717 Q1.269 0.545 0.928 0.522" stroke="hsl(180.0,100%,35%)" stroke-width="0.00236"></path>
<path d="M1.298 0.717 Q1.487 0.698 1.492 0.602" stroke="hsl(180.0,100%,35%)" stroke-width="0.00047"></path>
<path d="M1.298 0.717 Q1.321 0.630 1.158 0.600" stroke="hsl(180.0,100%,35%)" stroke-width="0.00094"></path>
<path d="M1.298 0.717 Q1.320 0.706 1.303 0.693" stroke="hsl(180.0,100%,35%)" stroke-width="0.00024"></path>
<path d="M0.118 0.861 Q0.121 0.932 0.260 0.946" stroke="hsl(0.0,100%,35%)" stroke-width="0.01677"></path>
<path d="M0.118 0.861 Q0.794 0.853 0.928 0.522" stroke="hsl(0.0,100%,35%)" stroke-width="0.00354"></path>
<path d="M0.118 0.861 Q0.846 0.939 1.158 0.600" stroke="hsl(0.0,100%,35%)" stroke-width="0.00213"></path>
<path d="M0.118 0.861 Q0.422 0.779 0.329 0.613" stroke="hsl(0.0,100%,35%)" stroke-width="0.00071"></path>
<path d="M0.118 0.861 Q0.354 0.949 0.576 0.853" stroke="hsl(0.0,100%,35%)" stroke-width="0.00071"></path>
<path d="M0.118 0.861 Q0.824 1.025 1.298 0.717" stroke="hsl(0.0,100%,35%)" stroke-width="0.00071"></path>
<path d="M0.095 0.750 Q0.021 0.881 0.260 0.946" stroke="hsl(0.0,100%,35%)" stroke-width="0.00826"></path>
<path d="M0.095 0.750 Q0.167 0.821 0.321 0.801" stroke="hsl(0.0,100%,35%)" stroke-width="0.00354"></path>
<path d="M0.095 0.750 Q0.254 0.898 0.576 0.853" stroke="hsl(0.0,100%,35%)" stroke-width="0.00165"></path>
<path d="M0.095 0.750 Q0.724 0.974 1.298 0.717" stroke="hsl(0.0,100%,35%)" stroke-width="0.00047"></path>
<path d="M0.818 0.635 Q0.964 0.601 0.928 0.522" stroke="hsl(180.0,100%,35%)" stroke-width="0.00307"></path>
<path d="M0.818 0.635 Q1.016 0.686 1.158 0.600" stroke="hsl(180.0,100%,35%)" stroke-width="0.00213"></path>
<path d="M0.818 0.635 Q0.437 0.619 0.321 0.801" stroke="hsl(180.0,100%,35%)" stroke-width="0.00024"></path>
<path d="M0.818 0.635 Q0.290 0.679 0.260 0.946" stroke="hsl(180.0,100%,35%)" stroke-width="0.00260"></path>
<path d="M0.818 0.635 Q1.182 0.753 1.492 0.602" stroke="hsl(180.0,100%,35%)" stroke-width="0.00024"></path>
<path d="M0.818 0.635 Q0.993 0.772 1.298 0.717" stroke="hsl(180.0,100%,35%)" stroke-width="0.00047"></path>
<path d="M0.818 0.635 Q0.837 0.477 0.532 0.432" stroke="hsl(180.0,100%,35%)" stroke-width="0.00024"></path>
<path d="M0.818 0.635 Q0.591 0.526 0.329 0.613" stroke="hsl(180.0,100%,35%)" stroke-width="0.00024"></path>
<path d="M1.027 0.721 Q1.189 0.687 1.158 0.600" stroke="hsl(180.0,100%,35%)" stroke-width="0.00094"></path>
<path d="M1.027 0.721 Q1.136 0.601 0.928 0.522" stroke="hsl(180.0,100%,35%)" stroke-width="0.00024"></path>
<path d="M1.027 0.721 Q1.187 0.762 1.303 0.693" stroke="hsl(180.0,100%,35%)" stroke-width="0.00024"></path>
<path d="M0.945 0.615 Q1.011 0.565 0.928 0.522" stroke="hsl(180.0,100%,35%)" stroke-width="0.00189"></path>
<path d="M0.945 0.615 Q1.064 0.650 1.158 0.600" stroke="hsl(180.0,100%,35%)" stroke-width="0.00142"></path>
<path d="M0.945 0.615 Q1.215 0.654 1.349 0.531" stroke="hsl(180.0,100%,35%)" stroke-width="0.00024"></path>
<path d="M1.232 0.373 Q1.013 0.472 1.158 0.600" stroke="hsl(180.0,100%,35%)" stroke-width="0.00165"></path>
<path d="M1.232 0.373 Q0.961 0.386 0.928 0.522" stroke="hsl(180.0,100%,35%)" stroke-width="0.00071"></path>
<path d="M1.232 0.373 Q1.164 0.475 1.349 0.531" stroke="hsl(180.0,100%,35%)" stroke-width="0.00024"></path>
<path d="M0.958 0.850 Q1.205 0.680 0.928 0.522" stroke="hsl(180.0,100%,35%)" stroke-width="0.00425"></path>
<path d="M0.958 0.850 Q1.235 0.851 1.298 0.717" stroke="hsl(180.0,100%,35%)" stroke-width="0.00024"></path>
<path d="M0.958 0.850 Q1.287 0.575 0.823 0.354" stroke="hsl(180.0,100%,35%)" stroke-width="0.00024"></path>
<path d="M0.958 0.850 Q1.257 0.765 1.158 0.600" stroke="hsl(180.0,100%,35%)" stroke-width="0.00519"></path>
<path d="M0.958 0.850 Q1.256 0.840 1.303 0.693" stroke="hsl(180.0,100%,35%)" stroke-width="0.00024"></path>
<path d="M0.958 0.850 Q1.390 0.784 1.356 0.558" stroke="hsl(180.0,100%,35%)" stroke-width="0.00142"></path>
<path d="M0.698 0.519 Q0.811 0.566 0.928 0.522" stroke="hsl(180.0,100%,35%)" stroke-width="0.00118"></path>
<path d="M0.698 0.519 Q0.863 0.652 1.158 0.600" stroke="hsl(180.0,100%,35%)" stroke-width="0.00071"></path>
<path d="M0.698 0.519 Q0.684 0.443 0.532 0.432" stroke="hsl(180.0,100%,35%)" stroke-width="0.00024"></path>
<path d="M0.698 0.519 Q0.137 0.645 0.260 0.946" stroke="hsl(180.0,100%,35%)" stroke-width="0.00047"></path>
<path d="M0.698 0.519 Q0.439 0.492 0.329 0.613" stroke="hsl(180.0,100%,35%)" stroke-width="0.00024"></path>
<path d="M1.356 0.558 Q1.171 0.455 0.928 0.522" stroke="hsl(180.0,100%,35%)" stroke-width="0.01252"></path>
<path d="M1.356 0.558 Q0.498 0.533 0.260 0.946" stroke="hsl(180.0,100%,35%)" stroke-width="0.00047"></path>
<path d="M1.356 0.558 Q1.389 0.607 1.492 0.602" stroke="hsl(180.0,100%,35%)" stroke-width="0.00047"></path>
<path d="M1.356 0.558 Q1.222 0.615 1.303 0.693" stroke="hsl(180.0,100%,35%)" stroke-width="0.00047"></path>
<path d="M1.356 0.558 Q1.223 0.540 1.158 0.600" stroke="hsl(180.0,100%,35%)" stroke-width="0.01063"></path>
<path d="M1.356 0.558 Q1.390 0.417 1.121 0.369" stroke="hsl(180.0,100%,35%)" stroke-width="0.00024"></path>
<path d="M1.356 0.558 Q1.471 0.513 1.408 0.447" stroke="hsl(180.0,100%,35%)" stroke-width="0.00024"></path>
<path d="M1.356 0.558 Q0.495 0.462 0.118 0.861" stroke="hsl(180.0,100%,35%)" stroke-width="0.00047"></path>
<path d="M1.356 0.558 Q1.200 0.626 1.298 0.717" stroke="hsl(180.0,100%,35%)" stroke-width="0.00047"></path>
<path d="M1.356 0.558 Q1.044 0.331 0.532 0.432" stroke="hsl(180.0,100%,35%)" stroke-width="0.00047"></path>
<path d="M1.380 0.651 Q1.442 0.600 1.356 0.558" stroke="hsl(180.0,100%,35%)" stroke-width="0.00071"></path>
<path d="M1.380 0.651 Q1.257 0.496 0.928 0.522" stroke="hsl(180.0,100%,35%)" stroke-width="0.00094"></path>
<path d="M1.380 0.651 Q1.309 0.581 1.158 0.600" stroke="hsl(180.0,100%,35%)" stroke-width="0.00047"></path>
<path d="M1.380 0.651 Q1.461 0.585 1.349 0.531" stroke="hsl(180.0,100%,35%)" stroke-width="0.00047"></path>
<path d="M0.892 0.317 Q0.798 0.512 1.158 0.600" stroke="hsl(180.0,100%,35%)" stroke-width="0.00047"></path>
<path d="M0.892 0.317 Q0.746 0.427 0.928 0.522" stroke="hsl(180.0,100%,35%)" stroke-width="0.00024"></path>
<path d="M0.722 0.384 Q0.767 0.579 1.158 0.600" stroke="hsl(180.0,100%,35%)" stroke-width="0.00732"></path>
<path d="M0.722 0.384 Q0.714 0.494 0.928 0.522" stroke="hsl(180.0,100%,35%)" stroke-width="0.00826"></path>
<path d="M0.722 0.384 Q0.744 0.666 1.298 0.717" stroke="hsl(180.0,100%,35%)" stroke-width="0.00094"></path>
<path d="M0.722 0.384 Q0.899 0.598 1.356 0.558" stroke="hsl(180.0,100%,35%)" stroke-width="0.00142"></path>
<path d="M1.519 0.923 Q1.700 0.905 1.705 0.814" stroke="hsl(180.0,100%,35%)" stroke-width="0.00024"></path>
<path d="M1.519 0.923 Q1.690 0.495 0.892 0.317" stroke="hsl(180.0,100%,35%)" stroke-width="0.00024"></path>
<path d="M1.519 0.923 Q1.596 0.689 1.158 0.600" stroke="hsl(180.0,100%,35%)" stroke-width="0.00024"></path>
<path d="M1.121 0.369 Q1.207 0.322 1.135 0.270" stroke="hsl(180.0,100%,35%)" stroke-width="0.00024"></path>
<path d="M1.121 0.369 Q0.931 0.578 1.298 0.717" stroke="hsl(180.0,100%,35%)" stroke-width="0.00118"></path>
<path d="M1.121 0.369 Q0.954 0.492 1.158 0.600" stroke="hsl(180.0,100%,35%)" stroke-width="0.00401"></path>
<path d="M1.121 0.369 Q0.902 0.406 0.928 0.522" stroke="hsl(180.0,100%,35%)" stroke-width="0.00283"></path>
<path d="M1.121 0.369 Q1.087 0.510 1.356 0.558" stroke="hsl(180.0,100%,35%)" stroke-width="0.00047"></path>
<path d="M1.121 0.369 Q0.229 0.485 0.260 0.946" stroke="hsl(180.0,100%,35%)" stroke-width="0.00024"></path>
<path d="M1.408 0.447 Q1.108 0.389 0.928 0.522" stroke="hsl(180.0,100%,35%)" stroke-width="0.00213"></path>
<path d="M1.408 0.447 Q1.293 0.492 1.356 0.558" stroke="hsl(180.0,100%,35%)" stroke-width="0.00047"></path>
<path d="M1.408 0.447 Q1.160 0.474 1.158 0.600" stroke="hsl(180.0,100%,35%)" stroke-width="0.00213"></path>
<path d="M1.408 0.447 Q1.138 0.560 1.298 0.717" stroke="hsl(180.0,100%,35%)" stroke-width="0.00047"></path>
<path d="M0.641 0.254 Q0.622 0.531 1.158 0.600" stroke="hsl(180.0,100%,35%)" stroke-width="0.00118"></path>
<path d="M0.641 0.254 Q0.570 0.445 0.928 0.522" stroke="hsl(180.0,100%,35%)" stroke-width="0.00118"></path>
<path d="M0.641 0.254 Q0.755 0.549 1.356 0.558" stroke="hsl(180.0,100%,35%)" stroke-width="0.00024"></path>
<path d="M1.249 0.478 Q1.106 0.521 1.158 0.600" stroke="hsl(180.0,100%,35%)" stroke-width="0.00283"></path>
<path d="M1.249 0.478 Q1.054 0.436 0.928 0.522" stroke="hsl(180.0,100%,35%)" stroke-width="0.00236"></path>
<path d="M1.249 0.478 Q1.424 0.398 1.305 0.295" stroke="hsl(180.0,100%,35%)" stroke-width="0.00024"></path>
<path d="M1.249 0.478 Q1.238 0.540 1.356 0.558" stroke="hsl(180.0,100%,35%)" stroke-width="0.00071"></path>
<path d="M0.922 0.327 Q0.643 0.302 0.532 0.432" stroke="hsl(180.0,100%,35%)" stroke-width="0.00024"></path>
<path d="M0.922 0.327 Q0.821 0.511 1.158 0.600" stroke="hsl(180.0,100%,35%)" stroke-width="0.00047"></path>
<path d="M0.922 0.327 Q0.799 0.597 1.298 0.717" stroke="hsl(180.0,100%,35%)" stroke-width="0.00024"></path>
<path d="M0.922 0.327 Q0.769 0.426 0.928 0.522" stroke="hsl(180.0,100%,35%)" stroke-width="0.00024"></path>
<path d="M0.969 0.292 Q0.983 0.552 1.492 0.602" stroke="hsl(180.0,100%,35%)" stroke-width="0.00047"></path>
<path d="M0.969 0.292 Q0.765 0.399 0.928 0.522" stroke="hsl(180.0,100%,35%)" stroke-width="0.00071"></path>
<path d="M0.969 0.292 Q0.817 0.484 1.158 0.600" stroke="hsl(180.0,100%,35%)" stroke-width="0.00024"></path>
<path d="M0.544 0.943 Q0.845 0.688 0.414 0.486" stroke="hsl(180.0,100%,35%)" stroke-width="0.00024"></path>
<path d="M0.544 0.943 Q1.073 0.809 0.928 0.522" stroke="hsl(180.0,100%,35%)" stroke-width="0.00024"></path>
<path d="M1.273 0.386 Q0.991 0.385 0.928 0.522" stroke="hsl(180.0,100%,35%)" stroke-width="0.00094"></path>
<path d="M1.273 0.386 Q1.043 0.470 1.158 0.600" stroke="hsl(180.0,100%,35%)" stroke-width="0.00142"></path>
<path d="M1.273 0.386 Q1.021 0.556 1.298 0.717" stroke="hsl(180.0,100%,35%)" stroke-width="0.00024"></path>
<path d="M0.728 0.535 Q0.712 0.445 0.532 0.432" stroke="hsl(0.0,100%,35%)" stroke-width="0.00047"></path>
<path d="M0.728 0.535 Q0.891 0.654 1.158 0.600" stroke="hsl(0.0,100%,35%)" stroke-width="0.00047"></path>
<path d="M0.728 0.535 Q0.165 0.647 0.260 0.946" stroke="hsl(0.0,100%,35%)" stroke-width="0.00024"></path>
<path d="M1.210 0.423 Q1.175 0.520 1.356 0.558" stroke="hsl(180.0,100%,35%)" stroke-width="0.00071"></path>
<path d="M1.210 0.423 Q0.743 0.586 0.958 0.850" stroke="hsl(180.0,100%,35%)" stroke-width="0.00024"></path>
<path d="M1.210 0.423 Q0.990 0.416 0.928 0.522" stroke="hsl(180.0,100%,35%)" stroke-width="0.00047"></path>
<path d="M1.210 0.423 Q1.042 0.502 1.158 0.600" stroke="hsl(180.0,100%,35%)" stroke-width="0.00071"></path>
</g>
<text x="0.604" y="0.664" font-size="0.018089" fill="hsl(0.0,100%,20%)">afdx</text>
<text x="0.532" y="0.414" font-size="0.037925" fill="hsl(0.0,100%,20%)">rharrison</text>
<text x="0.260" y="0.895" font-size="0.102225" fill="hsl(0.0,100%,20%)">bclayton</text>
<text x="0.321" y="0.773" font-size="0.056602" fill="hsl(0.0,100%,20%)">amaiorano</text>
<text x="1.185" y="0.055" font-size="0.011381" fill="hsl(0.0,100%,20%)">vasniktel</text>
<text x="0.877" y="0.704" font-size="0.005222" fill="hsl(180.0,100%,20%)">aleksi</text>
<text x="0.928" y="0.488" font-size="0.067227" fill="hsl(180.0,100%,20%)">enga</text>
<text x="1.158" y="0.565" font-size="0.070493" fill="hsl(180.0,100%,20%)">cwallez</text>
<text x="0.576" y="0.822" font-size="0.062334" fill="hsl(0.0,100%,20%)">jrprice</text>
<text x="0.329" y="0.586" font-size="0.052737" fill="hsl(0.0,100%,20%)">dneto</text>
<text x="1.303" y="0.677" font-size="0.031330" fill="hsl(180.0,100%,20%)">bajones</text>
<text x="0.823" y="0.345" font-size="0.018276" fill="hsl(180.0,100%,20%)">shrekshao</text>
<text x="1.492" y="0.589" font-size="0.026109" fill="hsl(180.0,100%,20%)">lokokung</text>
<text x="1.298" y="0.704" font-size="0.025978" fill="hsl(180.0,100%,20%)">kainino</text>
<text x="1.591" y="0.656" font-size="0.002611" fill="hsl(180.0,100%,20%)">headlessclayton</text>
<text x="0.118" y="0.845" font-size="0.031976" fill="hsl(0.0,100%,20%)">senorblanco</text>
<text x="0.095" y="0.740" font-size="0.021211" fill="hsl(0.0,100%,20%)">sarahmashay</text>
<text x="1.446" y="0.129" font-size="0.004522" fill="hsl(0.0,100%,20%)">allydonaldson</text>
<text x="0.818" y="0.627" font-size="0.016513" fill="hsl(180.0,100%,20%)">brandon1.jones</text>
<text x="0.192" y="0.384" font-size="0.016305" fill="hsl(0.0,100%,20%)">alanbaker</text>
<text x="1.027" y="0.717" font-size="0.007385" fill="hsl(180.0,100%,20%)">beaufort.francois</text>
<text x="0.945" y="0.610" font-size="0.011077" fill="hsl(180.0,100%,20%)">bryan.bernhart</text>
<text x="1.349" y="0.528" font-size="0.006395" fill="hsl(180.0,100%,20%)">rafael.cintron</text>
<text x="1.232" y="0.368" font-size="0.008659" fill="hsl(180.0,100%,20%)">cjj19970505</text>
<text x="0.958" y="0.840" font-size="0.019007" fill="hsl(180.0,100%,20%)">hao.x.li</text>
<text x="0.976" y="0.684" font-size="0.002611" fill="hsl(180.0,100%,20%)">fbeaufort</text>
<text x="0.698" y="0.514" font-size="0.009414" fill="hsl(180.0,100%,20%)">rockot</text>
<text x="1.356" y="0.542" font-size="0.033639" fill="hsl(180.0,100%,20%)">jiawei.shao</text>
<text x="1.380" y="0.647" font-size="0.009044" fill="hsl(180.0,100%,20%)">jiajia.qin</text>
<text x="0.892" y="0.314" font-size="0.005838" fill="hsl(180.0,100%,20%)">thakis</text>
<text x="0.996" y="0.334" font-size="0.002611" fill="hsl(180.0,100%,20%)">hob</text>
<text x="0.722" y="0.372" font-size="0.023498" fill="hsl(180.0,100%,20%)">yunchao.he</text>
<text x="1.519" y="0.921" font-size="0.004522" fill="hsl(180.0,100%,20%)">hans</text>
<text x="1.705" y="0.812" font-size="0.002611" fill="hsl(180.0,100%,20%)">hwennborg</text>
<text x="1.121" y="0.360" font-size="0.016305" fill="hsl(180.0,100%,20%)">zhaoming.jiang</text>
<text x="1.408" y="0.441" font-size="0.012521" fill="hsl(180.0,100%,20%)">shaobo.yan</text>
<text x="0.641" y="0.250" font-size="0.008659" fill="hsl(180.0,100%,20%)">jie.a.chen</text>
<text x="1.249" y="0.471" font-size="0.013313" fill="hsl(180.0,100%,20%)">junwei.fu</text>
<text x="1.305" y="0.294" font-size="0.002611" fill="hsl(180.0,100%,20%)">ningxin.hu</text>
<text x="0.922" y="0.324" font-size="0.005838" fill="hsl(180.0,100%,20%)">pkasting</text>
<text x="0.573" y="0.595" font-size="0.004522" fill="hsl(0.0,100%,20%)">jmadill</text>
<text x="0.969" y="0.289" font-size="0.006395" fill="hsl(180.0,100%,20%)">sunnyps</text>
<text x="0.544" y="0.941" font-size="0.003692" fill="hsl(180.0,100%,20%)">svenzheng</text>
<text x="0.414" y="0.485" font-size="0.002611" fill="hsl(180.0,100%,20%)">lgrey</text>
<text x="1.273" y="0.381" font-size="0.008659" fill="hsl(180.0,100%,20%)">tangm</text>
<text x="0.728" y="0.532" font-size="0.005838" fill="hsl(0.0,100%,20%)">vadimsh</text>
<text x="1.210" y="0.420" font-size="0.007833" fill="hsl(180.0,100%,20%)">yang.gu</text>
<text x="1.135" y="0.269" font-size="0.002611" fill="hsl(180.0,100%,20%)">ynovikov</text>
</svg>
