<svg width="4000" height="2000" viewBox="-0.025 -0.025 2.05 1.05" xmlns="http://www.w3.org/2000/svg">
  <style>
    path {
      fill: none;
      stroke-linecap: round;
      stroke-opacity: 0.4;
    }

    text {
      text-anchor: middle;
      alignment-baseline: hanging;
    }
  </style>
  <g opacity="0.4">
<path d="M0.788 0.996 Q1.156 1.015 1.272 0.839" stroke="hsl(0.0,100%,35%)" stroke-width="0.00721"></path>
<path d="M0.788 0.996 Q1.415 0.744 1.060 0.382" stroke="hsl(0.0,100%,35%)" stroke-width="0.00288"></path>
<path d="M0.788 0.996 Q1.566 0.580 0.924 0.109" stroke="hsl(0.0,100%,35%)" stroke-width="0.00216"></path>
<path d="M0.788 0.996 Q1.106 1.058 1.296 0.917" stroke="hsl(0.0,100%,35%)" stroke-width="0.00144"></path>
<path d="M0.788 0.996 Q1.116 0.933 1.063 0.759" stroke="hsl(0.0,100%,35%)" stroke-width="0.00072"></path>
<path d="M1.272 0.839 Q0.904 0.821 0.788 0.996" stroke="hsl(0.0,100%,35%)" stroke-width="0.01946"></path>
<path d="M1.272 0.839 Q1.682 0.405 0.924 0.109" stroke="hsl(0.0,100%,35%)" stroke-width="0.01585"></path>
<path d="M1.272 0.839 Q1.222 0.883 1.296 0.917" stroke="hsl(0.0,100%,35%)" stroke-width="0.02810"></path>
<path d="M1.272 0.839 Q1.258 0.726 1.035 0.708" stroke="hsl(0.0,100%,35%)" stroke-width="0.00721"></path>
<path d="M1.272 0.839 Q1.232 0.757 1.063 0.759" stroke="hsl(0.0,100%,35%)" stroke-width="0.04756"></path>
<path d="M1.272 0.839 Q1.424 0.351 0.504 0.169" stroke="hsl(0.0,100%,35%)" stroke-width="0.00072"></path>
<path d="M1.272 0.839 Q1.623 0.477 0.992 0.226" stroke="hsl(0.0,100%,35%)" stroke-width="0.00072"></path>
<path d="M1.272 0.839 Q1.531 0.569 1.060 0.382" stroke="hsl(0.0,100%,35%)" stroke-width="0.00576"></path>
<path d="M1.272 0.839 Q4.499 -1.444 0.753 -3.519" stroke="hsl(0.0,100%,35%)" stroke-width="0.00072"></path>
<path d="M1.272 0.839 Q1.427 0.612 1.017 0.486" stroke="hsl(0.0,100%,35%)" stroke-width="0.00072"></path>
<path d="M1.060 0.382 Q1.117 0.477 1.313 0.470" stroke="hsl(180.0,100%,35%)" stroke-width="0.01441"></path>
<path d="M1.060 0.382 Q0.953 0.164 0.504 0.169" stroke="hsl(180.0,100%,35%)" stroke-width="0.00649"></path>
<path d="M1.060 0.382 Q1.211 0.219 0.924 0.109" stroke="hsl(180.0,100%,35%)" stroke-width="0.00504"></path>
<path d="M1.060 0.382 Q1.569 0.497 1.903 0.273" stroke="hsl(180.0,100%,35%)" stroke-width="0.00072"></path>
<path d="M1.060 0.382 Q0.433 0.635 0.788 0.996" stroke="hsl(180.0,100%,35%)" stroke-width="0.00144"></path>
<path d="M1.060 0.382 Q0.956 0.426 1.017 0.486" stroke="hsl(180.0,100%,35%)" stroke-width="0.00288"></path>
<path d="M1.060 0.382 Q0.760 0.571 1.063 0.759" stroke="hsl(180.0,100%,35%)" stroke-width="0.00072"></path>
<path d="M1.060 0.382 Q0.800 0.653 1.272 0.839" stroke="hsl(180.0,100%,35%)" stroke-width="0.00216"></path>
<path d="M1.060 0.382 Q0.868 0.364 0.790 0.454" stroke="hsl(180.0,100%,35%)" stroke-width="0.00072"></path>
<path d="M0.924 0.109 Q0.514 0.544 1.272 0.839" stroke="hsl(180.0,100%,35%)" stroke-width="0.01802"></path>
<path d="M0.924 0.109 Q0.474 0.462 1.063 0.759" stroke="hsl(180.0,100%,35%)" stroke-width="0.00144"></path>
<path d="M0.924 0.109 Q0.830 0.367 1.313 0.470" stroke="hsl(180.0,100%,35%)" stroke-width="0.01874"></path>
<path d="M0.924 0.109 Q0.774 0.273 1.060 0.382" stroke="hsl(180.0,100%,35%)" stroke-width="0.03315"></path>
<path d="M0.924 0.109 Q0.987 0.500 1.763 0.555" stroke="hsl(180.0,100%,35%)" stroke-width="0.00072"></path>
<path d="M0.924 0.109 Q1.141 0.083 1.136 -0.029" stroke="hsl(180.0,100%,35%)" stroke-width="0.00072"></path>
<path d="M0.924 0.109 Q0.865 0.181 0.992 0.226" stroke="hsl(180.0,100%,35%)" stroke-width="0.00072"></path>
<path d="M0.924 0.109 Q0.666 0.055 0.504 0.169" stroke="hsl(180.0,100%,35%)" stroke-width="0.00072"></path>
<path d="M0.924 0.109 Q0.669 0.316 1.017 0.486" stroke="hsl(180.0,100%,35%)" stroke-width="0.00144"></path>
<path d="M0.924 0.109 Q1.228 0.265 1.599 0.151" stroke="hsl(180.0,100%,35%)" stroke-width="0.00072"></path>
<path d="M0.924 0.109 Q1.300 0.259 1.674 0.108" stroke="hsl(180.0,100%,35%)" stroke-width="0.00072"></path>
<path d="M0.924 0.109 Q1.081 0.203 1.298 0.147" stroke="hsl(180.0,100%,35%)" stroke-width="0.00072"></path>
<path d="M1.296 0.917 Q1.346 0.873 1.272 0.839" stroke="hsl(0.0,100%,35%)" stroke-width="0.01225"></path>
<path d="M1.296 0.917 Q1.332 0.760 1.035 0.708" stroke="hsl(0.0,100%,35%)" stroke-width="0.01009"></path>
<path d="M1.296 0.917 Q0.978 0.855 0.788 0.996" stroke="hsl(0.0,100%,35%)" stroke-width="0.00144"></path>
<path d="M1.296 0.917 Q1.306 0.791 1.063 0.759" stroke="hsl(0.0,100%,35%)" stroke-width="0.00072"></path>
<path d="M1.296 0.917 Q1.501 0.646 1.017 0.486" stroke="hsl(0.0,100%,35%)" stroke-width="0.00144"></path>
<path d="M1.063 0.759 Q1.103 0.841 1.272 0.839" stroke="hsl(0.0,100%,35%)" stroke-width="0.04324"></path>
<path d="M1.063 0.759 Q0.736 0.823 0.788 0.996" stroke="hsl(0.0,100%,35%)" stroke-width="0.00216"></path>
<path d="M1.063 0.759 Q1.576 0.797 1.763 0.555" stroke="hsl(0.0,100%,35%)" stroke-width="0.00216"></path>
<path d="M1.063 0.759 Q1.872 0.684 1.903 0.273" stroke="hsl(0.0,100%,35%)" stroke-width="0.00072"></path>
<path d="M1.063 0.759 Q1.046 0.614 0.758 0.590" stroke="hsl(0.0,100%,35%)" stroke-width="0.00072"></path>
<path d="M1.063 0.759 Q1.053 0.884 1.296 0.917" stroke="hsl(0.0,100%,35%)" stroke-width="0.00504"></path>
<path d="M1.063 0.759 Q1.513 0.406 0.924 0.109" stroke="hsl(0.0,100%,35%)" stroke-width="0.00288"></path>
<path d="M1.063 0.759 Q1.363 0.570 1.060 0.382" stroke="hsl(0.0,100%,35%)" stroke-width="0.00072"></path>
<path d="M1.063 0.759 Q1.889 0.556 1.674 0.108" stroke="hsl(0.0,100%,35%)" stroke-width="0.00072"></path>
<path d="M0.904 0.871 Q1.113 0.928 1.272 0.839" stroke="hsl(0.0,100%,35%)" stroke-width="0.00144"></path>
<path d="M0.904 0.871 Q1.523 0.494 0.924 0.109" stroke="hsl(0.0,100%,35%)" stroke-width="0.00072"></path>
<path d="M0.992 0.226 Q1.051 0.154 0.924 0.109" stroke="hsl(180.0,100%,35%)" stroke-width="0.01585"></path>
<path d="M0.992 0.226 Q0.901 0.318 1.060 0.382" stroke="hsl(180.0,100%,35%)" stroke-width="0.00144"></path>
<path d="M0.992 0.226 Q0.855 0.205 0.785 0.267" stroke="hsl(180.0,100%,35%)" stroke-width="0.00072"></path>
<path d="M0.992 0.226 Q0.641 0.588 1.272 0.839" stroke="hsl(180.0,100%,35%)" stroke-width="0.00360"></path>
<path d="M1.017 0.486 Q1.272 0.279 0.924 0.109" stroke="hsl(180.0,100%,35%)" stroke-width="0.00072"></path>
<path d="M1.017 0.486 Q1.122 0.443 1.060 0.382" stroke="hsl(180.0,100%,35%)" stroke-width="0.00288"></path>
<path d="M1.017 0.486 Q1.014 0.225 0.504 0.169" stroke="hsl(180.0,100%,35%)" stroke-width="0.00144"></path>
<path d="M0.504 0.169 Q0.762 0.223 0.924 0.109" stroke="hsl(180.0,100%,35%)" stroke-width="0.00793"></path>
<path d="M0.504 0.169 Q0.668 0.481 1.313 0.470" stroke="hsl(180.0,100%,35%)" stroke-width="0.00721"></path>
<path d="M0.504 0.169 Q0.611 0.387 1.060 0.382" stroke="hsl(180.0,100%,35%)" stroke-width="0.00288"></path>
<path d="M0.504 0.169 Q0.351 0.658 1.272 0.839" stroke="hsl(180.0,100%,35%)" stroke-width="0.00072"></path>
<path d="M0.504 0.169 Q0.942 0.258 1.212 0.064" stroke="hsl(180.0,100%,35%)" stroke-width="0.00072"></path>
<path d="M1.035 0.708 Q1.049 0.821 1.272 0.839" stroke="hsl(0.0,100%,35%)" stroke-width="0.00649"></path>
<path d="M1.035 0.708 Q0.999 0.865 1.296 0.917" stroke="hsl(0.0,100%,35%)" stroke-width="0.00360"></path>
<path d="M1.035 0.708 Q0.681 0.803 0.788 0.996" stroke="hsl(0.0,100%,35%)" stroke-width="0.00072"></path>
<path d="M1.035 0.708 Q1.107 0.640 0.989 0.590" stroke="hsl(0.0,100%,35%)" stroke-width="0.00144"></path>
<path d="M1.035 0.708 Q1.308 0.550 1.060 0.382" stroke="hsl(0.0,100%,35%)" stroke-width="0.00072"></path>
<path d="M1.313 0.470 Q1.257 0.375 1.060 0.382" stroke="hsl(180.0,100%,35%)" stroke-width="0.01441"></path>
<path d="M1.313 0.470 Q1.149 0.157 0.504 0.169" stroke="hsl(180.0,100%,35%)" stroke-width="0.00576"></path>
<path d="M1.313 0.470 Q1.407 0.212 0.924 0.109" stroke="hsl(180.0,100%,35%)" stroke-width="0.00793"></path>
<path d="M1.313 0.470 Q0.940 0.419 0.758 0.590" stroke="hsl(180.0,100%,35%)" stroke-width="0.00072"></path>
<path d="M1.313 0.470 Q1.765 0.490 1.903 0.273" stroke="hsl(180.0,100%,35%)" stroke-width="0.00072"></path>
<path d="M1.763 0.555 Q1.290 0.599 1.272 0.839" stroke="hsl(180.0,100%,35%)" stroke-width="0.00649"></path>
<path d="M1.763 0.555 Q1.550 0.328 1.060 0.382" stroke="hsl(180.0,100%,35%)" stroke-width="0.00649"></path>
<path d="M1.763 0.555 Q1.250 0.517 1.063 0.759" stroke="hsl(180.0,100%,35%)" stroke-width="0.00216"></path>
<path d="M1.763 0.555 Q1.607 0.423 1.313 0.470" stroke="hsl(180.0,100%,35%)" stroke-width="0.00072"></path>
<path d="M1.763 0.555 Q1.445 0.372 1.017 0.486" stroke="hsl(180.0,100%,35%)" stroke-width="0.00072"></path>
<path d="M1.903 0.273 Q1.394 0.159 1.060 0.382" stroke="hsl(180.0,100%,35%)" stroke-width="0.00576"></path>
<path d="M1.903 0.273 Q1.607 0.386 1.763 0.555" stroke="hsl(180.0,100%,35%)" stroke-width="0.00576"></path>
<path d="M1.903 0.273 Q1.095 0.348 1.063 0.759" stroke="hsl(180.0,100%,35%)" stroke-width="0.00072"></path>
<path d="M1.903 0.273 Q1.085 0.474 1.296 0.917" stroke="hsl(180.0,100%,35%)" stroke-width="0.00072"></path>
<path d="M0.758 0.590 Q0.816 0.817 1.272 0.839" stroke="hsl(180.0,100%,35%)" stroke-width="0.00216"></path>
<path d="M0.758 0.590 Q1.132 0.641 1.313 0.470" stroke="hsl(180.0,100%,35%)" stroke-width="0.00288"></path>
<path d="M0.758 0.590 Q1.226 0.383 0.924 0.109" stroke="hsl(180.0,100%,35%)" stroke-width="0.00072"></path>
<path d="M0.758 0.590 Q0.971 0.590 1.017 0.486" stroke="hsl(180.0,100%,35%)" stroke-width="0.00216"></path>
<path d="M0.758 0.590 Q1.075 0.547 1.060 0.382" stroke="hsl(180.0,100%,35%)" stroke-width="0.00144"></path>
<path d="M0.758 0.590 Q1.288 0.774 1.763 0.555" stroke="hsl(180.0,100%,35%)" stroke-width="0.00144"></path>
<path d="M0.693 0.390 Q0.940 0.554 1.313 0.470" stroke="hsl(180.0,100%,35%)" stroke-width="0.00072"></path>
<path d="M0.693 0.390 Q1.033 0.296 0.924 0.109" stroke="hsl(180.0,100%,35%)" stroke-width="0.00360"></path>
<path d="M0.693 0.390 Q0.883 0.460 1.060 0.382" stroke="hsl(180.0,100%,35%)" stroke-width="0.00432"></path>
<path d="M1.212 0.064 Q1.032 0.029 0.924 0.109" stroke="hsl(180.0,100%,35%)" stroke-width="0.02810"></path>
<path d="M1.212 0.064 Q0.881 0.193 1.060 0.382" stroke="hsl(180.0,100%,35%)" stroke-width="0.01657"></path>
<path d="M1.212 0.064 Q0.622 0.464 1.272 0.839" stroke="hsl(180.0,100%,35%)" stroke-width="0.01225"></path>
<path d="M1.212 0.064 Q0.938 0.287 1.313 0.470" stroke="hsl(180.0,100%,35%)" stroke-width="0.00072"></path>
<path d="M1.212 0.064 Q0.572 0.507 1.296 0.917" stroke="hsl(180.0,100%,35%)" stroke-width="0.00072"></path>
<path d="M1.212 0.064 Q0.777 0.236 1.017 0.486" stroke="hsl(180.0,100%,35%)" stroke-width="0.00144"></path>
<path d="M1.212 0.064 Q1.408 0.179 1.674 0.108" stroke="hsl(180.0,100%,35%)" stroke-width="0.00072"></path>
<path d="M1.212 0.064 Q0.608 0.351 1.035 0.708" stroke="hsl(180.0,100%,35%)" stroke-width="0.00360"></path>
<path d="M1.212 0.064 Q0.846 0.078 0.792 0.259" stroke="hsl(180.0,100%,35%)" stroke-width="0.00144"></path>
<path d="M1.212 0.064 Q1.109 0.166 1.285 0.239" stroke="hsl(180.0,100%,35%)" stroke-width="0.00072"></path>
<path d="M0.792 0.259 Q0.828 0.374 1.060 0.382" stroke="hsl(180.0,100%,35%)" stroke-width="0.00576"></path>
<path d="M0.792 0.259 Q0.978 0.211 0.924 0.109" stroke="hsl(180.0,100%,35%)" stroke-width="0.00360"></path>
<path d="M0.792 0.259 Q0.568 0.645 1.272 0.839" stroke="hsl(180.0,100%,35%)" stroke-width="0.00072"></path>
<path d="M0.455 0.448 Q0.774 0.421 0.792 0.259" stroke="hsl(180.0,100%,35%)" stroke-width="0.00072"></path>
<path d="M0.455 0.448 Q0.960 0.373 0.924 0.109" stroke="hsl(180.0,100%,35%)" stroke-width="0.00216"></path>
<path d="M0.455 0.448 Q0.810 0.536 1.060 0.382" stroke="hsl(180.0,100%,35%)" stroke-width="0.00216"></path>
<path d="M0.850 0.512 Q1.209 0.325 0.924 0.109" stroke="hsl(180.0,100%,35%)" stroke-width="0.00072"></path>
<path d="M0.850 0.512 Q1.059 0.489 1.060 0.382" stroke="hsl(180.0,100%,35%)" stroke-width="0.00144"></path>
<path d="M0.850 0.512 Q0.630 0.376 0.316 0.454" stroke="hsl(180.0,100%,35%)" stroke-width="0.00072"></path>
<path d="M0.175 0.834 Q0.279 0.923 0.475 0.891" stroke="hsl(180.0,100%,35%)" stroke-width="0.00072"></path>
<path d="M0.175 0.834 Q0.978 0.785 1.060 0.382" stroke="hsl(180.0,100%,35%)" stroke-width="0.00144"></path>
<path d="M0.175 0.834 Q1.129 0.621 0.924 0.109" stroke="hsl(180.0,100%,35%)" stroke-width="0.00072"></path>
<path d="M0.175 0.834 Q0.351 1.038 0.788 0.996" stroke="hsl(180.0,100%,35%)" stroke-width="0.00072"></path>
</g>
<text x="0.788" y="0.978" font-size="0.037772" fill="hsl(0.0,100%,20%)">amaiorano</text>
<text x="1.272" y="0.793" font-size="0.092798" fill="hsl(0.0,100%,20%)">bclayton</text>
<text x="1.060" y="0.347" font-size="0.071561" fill="hsl(180.0,100%,20%)">enga</text>
<text x="0.924" y="0.070" font-size="0.079007" fill="hsl(180.0,100%,20%)">cwallez</text>
<text x="1.296" y="0.893" font-size="0.048151" fill="hsl(0.0,100%,20%)">jrprice</text>
<text x="1.063" y="0.728" font-size="0.063044" fill="hsl(0.0,100%,20%)">dsinclair</text>
<text x="0.904" y="0.866" font-size="0.008743" fill="hsl(0.0,100%,20%)">andre</text>
<text x="0.992" y="0.211" font-size="0.028553" fill="hsl(180.0,100%,20%)">arthursonzogni</text>
<text x="0.785" y="0.264" font-size="0.005048" fill="hsl(180.0,100%,20%)">khaslett</text>
<text x="1.017" y="0.474" font-size="0.023675" fill="hsl(180.0,100%,20%)">bajones</text>
<text x="0.504" y="0.152" font-size="0.034970" fill="hsl(180.0,100%,20%)">kainino</text>
<text x="1.035" y="0.691" font-size="0.034604" fill="hsl(0.0,100%,20%)">dneto</text>
<text x="0.753" y="-3.522" font-size="0.005048" fill="hsl(0.0,100%,20%)">brucedawson</text>
<text x="1.313" y="0.444" font-size="0.051475" fill="hsl(180.0,100%,20%)">lokokung</text>
<text x="1.763" y="0.540" font-size="0.030703" fill="hsl(180.0,100%,20%)">senorblanco</text>
<text x="1.136" y="-0.032" font-size="0.005048" fill="hsl(180.0,100%,20%)">fhorschig</text>
<text x="1.599" y="0.148" font-size="0.005048" fill="hsl(180.0,100%,20%)">jamesgk</text>
<text x="1.674" y="0.104" font-size="0.008743" fill="hsl(180.0,100%,20%)">rharrison</text>
<text x="1.298" y="0.144" font-size="0.005048" fill="hsl(180.0,100%,20%)">blundell</text>
<text x="0.989" y="0.586" font-size="0.007138" fill="hsl(0.0,100%,20%)">alanbaker</text>
<text x="1.903" y="0.262" font-size="0.023131" fill="hsl(180.0,100%,20%)">shrekshao</text>
<text x="0.758" y="0.580" font-size="0.020812" fill="hsl(180.0,100%,20%)">gman</text>
<text x="0.790" y="0.451" font-size="0.005048" fill="hsl(180.0,100%,20%)">lehoangquyen</text>
<text x="0.693" y="0.381" font-size="0.017485" fill="hsl(180.0,100%,20%)">hao.x.li</text>
<text x="1.212" y="0.040" font-size="0.048677" fill="hsl(180.0,100%,20%)">jiawei.shao</text>
<text x="0.792" y="0.249" font-size="0.020812" fill="hsl(180.0,100%,20%)">penghuang</text>
<text x="1.285" y="0.236" font-size="0.005048" fill="hsl(180.0,100%,20%)">zhaoming.jiang</text>
<text x="0.455" y="0.441" font-size="0.013355" fill="hsl(180.0,100%,20%)">jie.a.chen</text>
<text x="0.850" y="0.507" font-size="0.010095" fill="hsl(180.0,100%,20%)">shaobo.yan</text>
<text x="0.316" y="0.451" font-size="0.005048" fill="hsl(180.0,100%,20%)">sunnyps</text>
<text x="0.175" y="0.828" font-size="0.011287" fill="hsl(180.0,100%,20%)">ynovikov</text>
<text x="0.475" y="0.889" font-size="0.005048" fill="hsl(180.0,100%,20%)">bsheedy</text>
</svg>
