<svg width="4000" height="2000" viewBox="-0.025 -0.025 2.05 1.05" xmlns="http://www.w3.org/2000/svg">
  <style>
    path {
      fill: none;
      stroke-linecap: round;
      stroke-opacity: 0.4;
    }

    text {
      text-anchor: middle;
      alignment-baseline: hanging;
    }
  </style>
  <g opacity="0.4">
<path d="M0.059 0.417 Q-0.011 0.489 0.114 0.539" stroke="hsl(0.0,100%,35%)" stroke-width="0.00968"></path>
<path d="M0.059 0.417 Q0.124 0.577 0.449 0.580" stroke="hsl(0.0,100%,35%)" stroke-width="0.00766"></path>
<path d="M0.059 0.417 Q0.193 0.649 0.675 0.635" stroke="hsl(0.0,100%,35%)" stroke-width="0.00282"></path>
<path d="M0.059 0.417 Q-0.116 0.560 0.124 0.677" stroke="hsl(0.0,100%,35%)" stroke-width="0.00121"></path>
<path d="M0.059 0.417 Q-0.120 0.641 0.278 0.778" stroke="hsl(0.0,100%,35%)" stroke-width="0.00081"></path>
<path d="M0.059 0.417 Q0.292 0.395 0.300 0.276" stroke="hsl(0.0,100%,35%)" stroke-width="0.00323"></path>
<path d="M0.114 0.539 Q0.184 0.467 0.059 0.417" stroke="hsl(0.0,100%,35%)" stroke-width="0.02016"></path>
<path d="M0.114 0.539 Q0.009 0.610 0.124 0.677" stroke="hsl(0.0,100%,35%)" stroke-width="0.05001"></path>
<path d="M0.114 0.539 Q0.318 0.699 0.675 0.635" stroke="hsl(0.0,100%,35%)" stroke-width="0.01774"></path>
<path d="M0.114 0.539 Q0.019 0.872 0.648 0.992" stroke="hsl(0.0,100%,35%)" stroke-width="0.00323"></path>
<path d="M0.114 0.539 Q0.417 0.445 0.300 0.276" stroke="hsl(0.0,100%,35%)" stroke-width="0.04799"></path>
<path d="M0.114 0.539 Q0.005 0.691 0.278 0.778" stroke="hsl(0.0,100%,35%)" stroke-width="0.00081"></path>
<path d="M0.114 0.539 Q0.613 0.678 0.995 0.465" stroke="hsl(0.0,100%,35%)" stroke-width="0.00040"></path>
<path d="M0.114 0.539 Q0.249 0.627 0.449 0.580" stroke="hsl(0.0,100%,35%)" stroke-width="0.00928"></path>
<path d="M0.114 0.539 Q-0.059 0.664 0.147 0.775" stroke="hsl(0.0,100%,35%)" stroke-width="0.00040"></path>
<path d="M0.114 0.539 Q-0.138 0.708 0.137 0.868" stroke="hsl(0.0,100%,35%)" stroke-width="0.00040"></path>
<path d="M0.114 0.539 Q0.289 0.459 0.171 0.356" stroke="hsl(0.0,100%,35%)" stroke-width="0.00081"></path>
<path d="M0.114 0.539 Q1.201 0.738 1.828 0.251" stroke="hsl(0.0,100%,35%)" stroke-width="0.00040"></path>
<path d="M0.114 0.539 Q0.229 0.500 0.177 0.435" stroke="hsl(0.0,100%,35%)" stroke-width="0.00040"></path>
<path d="M0.449 0.580 Q0.602 0.714 0.896 0.669" stroke="hsl(180.0,100%,35%)" stroke-width="0.01452"></path>
<path d="M0.449 0.580 Q0.206 0.645 0.278 0.778" stroke="hsl(180.0,100%,35%)" stroke-width="0.00484"></path>
<path d="M0.449 0.580 Q0.519 0.653 0.675 0.635" stroke="hsl(180.0,100%,35%)" stroke-width="0.00766"></path>
<path d="M0.449 0.580 Q1.416 0.575 1.618 0.103" stroke="hsl(180.0,100%,35%)" stroke-width="0.00040"></path>
<path d="M0.449 0.580 Q0.385 0.421 0.059 0.417" stroke="hsl(180.0,100%,35%)" stroke-width="0.00121"></path>
<path d="M0.449 0.580 Q0.063 0.662 0.137 0.868" stroke="hsl(180.0,100%,35%)" stroke-width="0.00161"></path>
<path d="M0.449 0.580 Q0.618 0.398 0.300 0.276" stroke="hsl(180.0,100%,35%)" stroke-width="0.00121"></path>
<path d="M0.449 0.580 Q0.315 0.493 0.114 0.539" stroke="hsl(180.0,100%,35%)" stroke-width="0.00242"></path>
<path d="M0.449 0.580 Q0.628 0.511 0.532 0.408" stroke="hsl(180.0,100%,35%)" stroke-width="0.00081"></path>
<path d="M0.449 0.580 Q0.210 0.563 0.124 0.677" stroke="hsl(180.0,100%,35%)" stroke-width="0.00040"></path>
<path d="M0.449 0.580 Q0.868 0.384 0.576 0.136" stroke="hsl(180.0,100%,35%)" stroke-width="0.00040"></path>
<path d="M0.449 0.580 Q0.335 0.619 0.386 0.683" stroke="hsl(180.0,100%,35%)" stroke-width="0.00081"></path>
<path d="M0.449 0.580 Q1.402 0.691 1.828 0.251" stroke="hsl(180.0,100%,35%)" stroke-width="0.00121"></path>
<path d="M0.449 0.580 Q0.401 0.693 0.610 0.741" stroke="hsl(180.0,100%,35%)" stroke-width="0.00040"></path>
<path d="M0.449 0.580 Q0.490 0.412 0.171 0.356" stroke="hsl(180.0,100%,35%)" stroke-width="0.00040"></path>
<path d="M0.675 0.635 Q0.472 0.475 0.114 0.539" stroke="hsl(180.0,100%,35%)" stroke-width="0.01532"></path>
<path d="M0.675 0.635 Q0.775 0.381 0.300 0.276" stroke="hsl(180.0,100%,35%)" stroke-width="0.00121"></path>
<path d="M0.675 0.635 Q0.759 0.696 0.896 0.669" stroke="hsl(180.0,100%,35%)" stroke-width="0.01492"></path>
<path d="M0.675 0.635 Q0.606 0.562 0.449 0.580" stroke="hsl(180.0,100%,35%)" stroke-width="0.02662"></path>
<path d="M0.675 0.635 Q1.558 0.674 1.828 0.251" stroke="hsl(180.0,100%,35%)" stroke-width="0.00081"></path>
<path d="M0.675 0.635 Q0.838 0.537 0.683 0.437" stroke="hsl(180.0,100%,35%)" stroke-width="0.00040"></path>
<path d="M0.675 0.635 Q0.971 0.614 0.995 0.465" stroke="hsl(180.0,100%,35%)" stroke-width="0.00081"></path>
<path d="M0.675 0.635 Q0.362 0.627 0.278 0.778" stroke="hsl(180.0,100%,35%)" stroke-width="0.00121"></path>
<path d="M0.675 0.635 Q0.220 0.644 0.137 0.868" stroke="hsl(180.0,100%,35%)" stroke-width="0.00161"></path>
<path d="M0.675 0.635 Q0.378 0.992 1.010 1.216" stroke="hsl(180.0,100%,35%)" stroke-width="0.00040"></path>
<path d="M0.675 0.635 Q0.542 0.403 0.059 0.417" stroke="hsl(180.0,100%,35%)" stroke-width="0.00040"></path>
<path d="M0.675 0.635 Q1.024 0.366 0.576 0.136" stroke="hsl(180.0,100%,35%)" stroke-width="0.00040"></path>
<path d="M0.675 0.635 Q0.785 0.493 0.532 0.408" stroke="hsl(180.0,100%,35%)" stroke-width="0.00121"></path>
<path d="M0.675 0.635 Q0.913 0.735 1.160 0.641" stroke="hsl(180.0,100%,35%)" stroke-width="0.00040"></path>
<path d="M0.124 0.677 Q0.229 0.606 0.114 0.539" stroke="hsl(0.0,100%,35%)" stroke-width="0.03146"></path>
<path d="M0.124 0.677 Q0.134 0.939 0.648 0.992" stroke="hsl(0.0,100%,35%)" stroke-width="0.00645"></path>
<path d="M0.124 0.677 Q0.300 0.534 0.059 0.417" stroke="hsl(0.0,100%,35%)" stroke-width="0.00121"></path>
<path d="M0.124 0.677 Q0.533 0.512 0.300 0.276" stroke="hsl(0.0,100%,35%)" stroke-width="0.00524"></path>
<path d="M0.124 0.677 Q-0.022 0.775 0.137 0.868" stroke="hsl(0.0,100%,35%)" stroke-width="0.00121"></path>
<path d="M0.124 0.677 Q0.433 0.766 0.675 0.635" stroke="hsl(0.0,100%,35%)" stroke-width="0.00161"></path>
<path d="M0.124 0.677 Q0.364 0.694 0.449 0.580" stroke="hsl(0.0,100%,35%)" stroke-width="0.00202"></path>
<path d="M0.124 0.677 Q0.250 0.732 0.386 0.683" stroke="hsl(0.0,100%,35%)" stroke-width="0.00040"></path>
<path d="M0.124 0.677 Q0.204 0.873 0.605 0.878" stroke="hsl(0.0,100%,35%)" stroke-width="0.00040"></path>
<path d="M0.278 0.778 Q0.591 0.786 0.675 0.635" stroke="hsl(180.0,100%,35%)" stroke-width="0.00444"></path>
<path d="M0.278 0.778 Q0.675 0.847 0.896 0.669" stroke="hsl(180.0,100%,35%)" stroke-width="0.00484"></path>
<path d="M0.278 0.778 Q0.522 0.713 0.449 0.580" stroke="hsl(180.0,100%,35%)" stroke-width="0.00363"></path>
<path d="M0.278 0.778 Q0.387 0.626 0.114 0.539" stroke="hsl(180.0,100%,35%)" stroke-width="0.00040"></path>
<path d="M0.278 0.778 Q0.473 0.826 0.610 0.741" stroke="hsl(180.0,100%,35%)" stroke-width="0.00040"></path>
<path d="M0.278 0.778 Q1.488 0.708 1.618 0.103" stroke="hsl(180.0,100%,35%)" stroke-width="0.00040"></path>
<path d="M0.300 0.276 Q-0.003 0.370 0.114 0.539" stroke="hsl(0.0,100%,35%)" stroke-width="0.03831"></path>
<path d="M0.300 0.276 Q0.067 0.298 0.059 0.417" stroke="hsl(0.0,100%,35%)" stroke-width="0.00282"></path>
<path d="M0.300 0.276 Q1.084 0.569 1.828 0.251" stroke="hsl(0.0,100%,35%)" stroke-width="0.00161"></path>
<path d="M0.300 0.276 Q1.098 0.453 1.618 0.103" stroke="hsl(0.0,100%,35%)" stroke-width="0.00040"></path>
<path d="M0.300 0.276 Q0.018 0.497 0.386 0.683" stroke="hsl(0.0,100%,35%)" stroke-width="0.00040"></path>
<path d="M0.300 0.276 Q-0.108 0.441 0.124 0.677" stroke="hsl(0.0,100%,35%)" stroke-width="0.01089"></path>
<path d="M0.300 0.276 Q0.201 0.531 0.675 0.635" stroke="hsl(0.0,100%,35%)" stroke-width="0.00282"></path>
<path d="M0.300 0.276 Q0.172 0.290 0.171 0.356" stroke="hsl(0.0,100%,35%)" stroke-width="0.00040"></path>
<path d="M0.300 0.276 Q0.132 0.458 0.449 0.580" stroke="hsl(0.0,100%,35%)" stroke-width="0.00161"></path>
<path d="M0.300 0.276 Q-0.112 0.523 0.278 0.778" stroke="hsl(0.0,100%,35%)" stroke-width="0.00081"></path>
<path d="M0.548 0.414 Q0.231 0.390 0.114 0.539" stroke="hsl(180.0,100%,35%)" stroke-width="0.00081"></path>
<path d="M0.548 0.414 Q0.435 0.550 0.675 0.635" stroke="hsl(180.0,100%,35%)" stroke-width="0.00081"></path>
<path d="M0.995 0.465 Q0.699 0.486 0.675 0.635" stroke="hsl(180.0,100%,35%)" stroke-width="0.00928"></path>
<path d="M0.995 0.465 Q0.630 0.414 0.449 0.580" stroke="hsl(180.0,100%,35%)" stroke-width="0.00081"></path>
<path d="M0.995 0.465 Q1.089 0.435 1.050 0.382" stroke="hsl(180.0,100%,35%)" stroke-width="0.00040"></path>
<path d="M0.995 0.465 Q0.495 0.326 0.114 0.539" stroke="hsl(180.0,100%,35%)" stroke-width="0.00282"></path>
<path d="M0.883 0.758 Q0.878 0.655 0.675 0.635" stroke="hsl(180.0,100%,35%)" stroke-width="0.00081"></path>
<path d="M0.883 0.758 Q0.565 0.647 0.278 0.778" stroke="hsl(180.0,100%,35%)" stroke-width="0.00081"></path>
<path d="M0.883 0.758 Q1.775 0.577 1.618 0.103" stroke="hsl(180.0,100%,35%)" stroke-width="0.00040"></path>
<path d="M0.883 0.758 Q0.961 0.716 0.896 0.669" stroke="hsl(180.0,100%,35%)" stroke-width="0.00040"></path>
<path d="M0.883 0.758 Q0.674 0.495 0.114 0.539" stroke="hsl(180.0,100%,35%)" stroke-width="0.00040"></path>
<path d="M0.883 0.758 Q0.808 0.582 0.449 0.580" stroke="hsl(180.0,100%,35%)" stroke-width="0.00040"></path>
<path d="M1.618 0.103 Q0.652 0.108 0.449 0.580" stroke="hsl(180.0,100%,35%)" stroke-width="0.00726"></path>
<path d="M1.618 0.103 Q1.604 0.219 1.828 0.251" stroke="hsl(180.0,100%,35%)" stroke-width="0.00484"></path>
<path d="M1.618 0.103 Q0.821 -0.074 0.300 0.276" stroke="hsl(180.0,100%,35%)" stroke-width="0.00081"></path>
<path d="M1.618 0.103 Q0.412 0.091 0.124 0.677" stroke="hsl(180.0,100%,35%)" stroke-width="0.00040"></path>
<path d="M1.618 0.103 Q0.408 0.172 0.278 0.778" stroke="hsl(180.0,100%,35%)" stroke-width="0.00040"></path>
<path d="M1.618 0.103 Q0.266 0.189 0.137 0.868" stroke="hsl(180.0,100%,35%)" stroke-width="0.00040"></path>
<path d="M1.618 0.103 Q0.805 0.241 0.896 0.669" stroke="hsl(180.0,100%,35%)" stroke-width="0.00081"></path>
<path d="M1.618 0.103 Q0.517 0.020 0.114 0.539" stroke="hsl(180.0,100%,35%)" stroke-width="0.00161"></path>
<path d="M1.618 0.103 Q0.721 0.180 0.675 0.635" stroke="hsl(180.0,100%,35%)" stroke-width="0.00040"></path>
<path d="M0.896 0.669 Q0.744 0.535 0.449 0.580" stroke="hsl(180.0,100%,35%)" stroke-width="0.01492"></path>
<path d="M0.896 0.669 Q0.500 0.600 0.278 0.778" stroke="hsl(180.0,100%,35%)" stroke-width="0.00403"></path>
<path d="M0.896 0.669 Q0.813 0.608 0.675 0.635" stroke="hsl(180.0,100%,35%)" stroke-width="0.00847"></path>
<path d="M0.896 0.669 Q0.630 0.574 0.386 0.683" stroke="hsl(180.0,100%,35%)" stroke-width="0.00040"></path>
<path d="M0.896 0.669 Q0.679 0.375 0.059 0.417" stroke="hsl(180.0,100%,35%)" stroke-width="0.00040"></path>
<path d="M0.896 0.669 Q0.699 0.725 0.765 0.833" stroke="hsl(180.0,100%,35%)" stroke-width="0.00040"></path>
<path d="M0.896 0.669 Q0.609 0.447 0.114 0.539" stroke="hsl(180.0,100%,35%)" stroke-width="0.00040"></path>
<path d="M0.896 0.669 Q0.357 0.617 0.137 0.868" stroke="hsl(180.0,100%,35%)" stroke-width="0.00121"></path>
<path d="M0.137 0.868 Q0.593 0.859 0.675 0.635" stroke="hsl(180.0,100%,35%)" stroke-width="0.00040"></path>
<path d="M0.137 0.868 Q0.524 0.787 0.449 0.580" stroke="hsl(180.0,100%,35%)" stroke-width="0.00524"></path>
<path d="M0.137 0.868 Q0.280 0.851 0.278 0.778" stroke="hsl(180.0,100%,35%)" stroke-width="0.00282"></path>
<path d="M0.137 0.868 Q0.676 0.920 0.896 0.669" stroke="hsl(180.0,100%,35%)" stroke-width="0.00081"></path>
<path d="M0.137 0.868 Q0.459 0.627 0.059 0.417" stroke="hsl(180.0,100%,35%)" stroke-width="0.00040"></path>
<path d="M0.137 0.868 Q0.294 1.032 0.648 0.992" stroke="hsl(180.0,100%,35%)" stroke-width="0.00040"></path>
<path d="M0.648 0.992 Q0.744 0.659 0.114 0.539" stroke="hsl(0.0,100%,35%)" stroke-width="0.00524"></path>
<path d="M0.648 0.992 Q0.638 0.729 0.124 0.677" stroke="hsl(0.0,100%,35%)" stroke-width="0.00403"></path>
<path d="M0.648 0.992 Q0.814 0.587 0.059 0.417" stroke="hsl(0.0,100%,35%)" stroke-width="0.00040"></path>
<path d="M0.648 0.992 Q0.718 0.926 0.605 0.878" stroke="hsl(0.0,100%,35%)" stroke-width="0.00081"></path>
<path d="M0.648 0.992 Q0.878 0.746 0.449 0.580" stroke="hsl(0.0,100%,35%)" stroke-width="0.00040"></path>
<path d="M0.648 0.992 Q1.047 0.565 0.300 0.276" stroke="hsl(0.0,100%,35%)" stroke-width="0.00161"></path>
<path d="M0.648 0.992 Q0.492 0.828 0.137 0.868" stroke="hsl(0.0,100%,35%)" stroke-width="0.00040"></path>
<path d="M0.171 0.356 Q0.131 0.524 0.449 0.580" stroke="hsl(0.0,100%,35%)" stroke-width="0.00081"></path>
<path d="M0.171 0.356 Q0.299 0.342 0.300 0.276" stroke="hsl(0.0,100%,35%)" stroke-width="0.00161"></path>
<path d="M0.171 0.356 Q-0.004 0.436 0.114 0.539" stroke="hsl(0.0,100%,35%)" stroke-width="0.00081"></path>
<path d="M0.171 0.356 Q-0.109 0.507 0.124 0.677" stroke="hsl(0.0,100%,35%)" stroke-width="0.00040"></path>
<path d="M1.828 0.251 Q0.741 0.052 0.114 0.539" stroke="hsl(180.0,100%,35%)" stroke-width="0.00363"></path>
<path d="M1.828 0.251 Q0.876 0.140 0.449 0.580" stroke="hsl(180.0,100%,35%)" stroke-width="0.00524"></path>
<path d="M1.828 0.251 Q1.044 -0.042 0.300 0.276" stroke="hsl(180.0,100%,35%)" stroke-width="0.00242"></path>
<path d="M1.828 0.251 Q1.028 0.274 0.896 0.669" stroke="hsl(180.0,100%,35%)" stroke-width="0.00040"></path>
<path d="M1.828 0.251 Q0.489 0.222 0.137 0.868" stroke="hsl(180.0,100%,35%)" stroke-width="0.00040"></path>
<path d="M1.828 0.251 Q1.842 0.135 1.618 0.103" stroke="hsl(180.0,100%,35%)" stroke-width="0.00040"></path>
<path d="M1.828 0.251 Q0.761 0.179 0.386 0.683" stroke="hsl(180.0,100%,35%)" stroke-width="0.00081"></path>
<path d="M1.828 0.251 Q0.945 0.213 0.675 0.635" stroke="hsl(180.0,100%,35%)" stroke-width="0.00040"></path>
<path d="M1.828 0.251 Q0.632 0.205 0.278 0.778" stroke="hsl(180.0,100%,35%)" stroke-width="0.00040"></path>
<path d="M0.525 0.701 Q0.653 0.698 0.675 0.635" stroke="hsl(180.0,100%,35%)" stroke-width="0.00807"></path>
<path d="M0.525 0.701 Q0.340 0.690 0.278 0.778" stroke="hsl(180.0,100%,35%)" stroke-width="0.00081"></path>
<path d="M0.525 0.701 Q0.584 0.626 0.449 0.580" stroke="hsl(180.0,100%,35%)" stroke-width="0.00242"></path>
<path d="M0.525 0.701 Q0.737 0.759 0.896 0.669" stroke="hsl(180.0,100%,35%)" stroke-width="0.00121"></path>
<path d="M0.287 0.445 Q0.329 0.618 0.675 0.635" stroke="hsl(0.0,100%,35%)" stroke-width="0.00040"></path>
<path d="M0.287 0.445 Q0.260 0.545 0.449 0.580" stroke="hsl(0.0,100%,35%)" stroke-width="0.00040"></path>
<path d="M0.287 0.445 Q0.126 0.457 0.114 0.539" stroke="hsl(0.0,100%,35%)" stroke-width="0.00121"></path>
<path d="M0.576 0.136 Q0.158 0.333 0.449 0.580" stroke="hsl(180.0,100%,35%)" stroke-width="0.00726"></path>
<path d="M0.576 0.136 Q0.227 0.406 0.675 0.635" stroke="hsl(180.0,100%,35%)" stroke-width="0.00363"></path>
<path d="M0.576 0.136 Q0.023 0.245 0.114 0.539" stroke="hsl(180.0,100%,35%)" stroke-width="0.00040"></path>
<path d="M0.576 0.136 Q0.310 0.467 0.896 0.669" stroke="hsl(180.0,100%,35%)" stroke-width="0.00040"></path>
<path d="M1.045 0.508 Q0.690 0.425 0.449 0.580" stroke="hsl(180.0,100%,35%)" stroke-width="0.00040"></path>
<path d="M1.045 0.508 Q0.555 0.337 0.114 0.539" stroke="hsl(180.0,100%,35%)" stroke-width="0.00040"></path>
<path d="M1.045 0.508 Q0.759 0.497 0.675 0.635" stroke="hsl(180.0,100%,35%)" stroke-width="0.00040"></path>
<path d="M0.386 0.683 Q0.366 0.557 0.114 0.539" stroke="hsl(180.0,100%,35%)" stroke-width="0.00202"></path>
<path d="M0.386 0.683 Q0.653 0.778 0.896 0.669" stroke="hsl(180.0,100%,35%)" stroke-width="0.00202"></path>
<path d="M0.386 0.683 Q0.569 0.717 0.675 0.635" stroke="hsl(180.0,100%,35%)" stroke-width="0.00081"></path>
<path d="M0.386 0.683 Q0.114 0.726 0.137 0.868" stroke="hsl(180.0,100%,35%)" stroke-width="0.00121"></path>
<path d="M0.386 0.683 Q0.500 0.644 0.449 0.580" stroke="hsl(180.0,100%,35%)" stroke-width="0.00484"></path>
<path d="M0.386 0.683 Q1.452 0.756 1.828 0.251" stroke="hsl(180.0,100%,35%)" stroke-width="0.00081"></path>
<path d="M0.386 0.683 Q0.436 0.485 0.059 0.417" stroke="hsl(180.0,100%,35%)" stroke-width="0.00081"></path>
<path d="M0.386 0.683 Q0.257 0.709 0.278 0.778" stroke="hsl(180.0,100%,35%)" stroke-width="0.00040"></path>
<path d="M0.610 0.741 Q0.728 0.701 0.675 0.635" stroke="hsl(180.0,100%,35%)" stroke-width="0.02823"></path>
<path d="M0.610 0.741 Q0.659 0.629 0.449 0.580" stroke="hsl(180.0,100%,35%)" stroke-width="0.02137"></path>
<path d="M0.610 0.741 Q0.524 0.541 0.114 0.539" stroke="hsl(180.0,100%,35%)" stroke-width="0.00766"></path>
<path d="M0.610 0.741 Q0.811 0.762 0.896 0.669" stroke="hsl(180.0,100%,35%)" stroke-width="0.00040"></path>
<path d="M0.610 0.741 Q0.419 0.612 0.124 0.677" stroke="hsl(180.0,100%,35%)" stroke-width="0.00081"></path>
<path d="M0.610 0.741 Q0.272 0.710 0.137 0.868" stroke="hsl(180.0,100%,35%)" stroke-width="0.00081"></path>
<path d="M0.610 0.741 Q0.699 0.461 0.171 0.356" stroke="hsl(180.0,100%,35%)" stroke-width="0.00040"></path>
<path d="M0.610 0.741 Q0.429 0.874 0.648 0.992" stroke="hsl(180.0,100%,35%)" stroke-width="0.00202"></path>
<path d="M0.610 0.741 Q1.077 0.432 0.576 0.136" stroke="hsl(180.0,100%,35%)" stroke-width="0.00161"></path>
<path d="M0.610 0.741 Q0.490 0.651 0.286 0.690" stroke="hsl(180.0,100%,35%)" stroke-width="0.00040"></path>
<path d="M0.610 0.741 Q0.827 0.447 0.300 0.276" stroke="hsl(180.0,100%,35%)" stroke-width="0.00040"></path>
<path d="M0.915 0.365 Q0.662 0.513 0.896 0.669" stroke="hsl(180.0,100%,35%)" stroke-width="0.00040"></path>
<path d="M0.915 0.365 Q0.579 0.452 0.675 0.635" stroke="hsl(180.0,100%,35%)" stroke-width="0.00363"></path>
<path d="M0.915 0.365 Q0.510 0.379 0.449 0.580" stroke="hsl(180.0,100%,35%)" stroke-width="0.00363"></path>
<path d="M0.672 0.796 Q0.733 0.644 0.449 0.580" stroke="hsl(180.0,100%,35%)" stroke-width="0.00161"></path>
<path d="M0.672 0.796 Q0.802 0.716 0.675 0.635" stroke="hsl(180.0,100%,35%)" stroke-width="0.00161"></path>
<path d="M0.672 0.796 Q0.757 0.887 0.953 0.866" stroke="hsl(180.0,100%,35%)" stroke-width="0.00081"></path>
<path d="M0.293 0.421 Q0.110 0.444 0.114 0.539" stroke="hsl(0.0,100%,35%)" stroke-width="0.00282"></path>
<path d="M0.293 0.421 Q0.180 0.372 0.059 0.417" stroke="hsl(0.0,100%,35%)" stroke-width="0.00040"></path>
<path d="M0.293 0.421 Q0.005 0.515 0.124 0.677" stroke="hsl(0.0,100%,35%)" stroke-width="0.00040"></path>
<path d="M0.293 0.421 Q0.285 0.364 0.171 0.356" stroke="hsl(0.0,100%,35%)" stroke-width="0.00040"></path>
<path d="M0.293 0.421 Q0.244 0.532 0.449 0.580" stroke="hsl(0.0,100%,35%)" stroke-width="0.00040"></path>
<path d="M0.540 0.858 Q0.717 0.701 0.449 0.580" stroke="hsl(180.0,100%,35%)" stroke-width="0.00040"></path>
<path d="M0.540 0.858 Q0.668 0.814 0.610 0.741" stroke="hsl(180.0,100%,35%)" stroke-width="0.00040"></path>
<path d="M0.540 0.858 Q0.786 0.774 0.675 0.635" stroke="hsl(180.0,100%,35%)" stroke-width="0.00040"></path>
<path d="M0.286 0.690 Q0.525 0.740 0.675 0.635" stroke="hsl(180.0,100%,35%)" stroke-width="0.00242"></path>
<path d="M0.286 0.690 Q0.456 0.668 0.449 0.580" stroke="hsl(180.0,100%,35%)" stroke-width="0.00202"></path>
<path d="M0.286 0.690 Q0.496 0.500 0.171 0.356" stroke="hsl(180.0,100%,35%)" stroke-width="0.00040"></path>
<path d="M0.286 0.690 Q0.608 0.801 0.896 0.669" stroke="hsl(180.0,100%,35%)" stroke-width="0.00040"></path>
<path d="M0.286 0.690 Q0.216 0.651 0.124 0.677" stroke="hsl(180.0,100%,35%)" stroke-width="0.00040"></path>
<path d="M0.527 0.281 Q0.667 0.218 0.576 0.136" stroke="hsl(180.0,100%,35%)" stroke-width="0.00161"></path>
<path d="M0.527 0.281 Q0.318 0.488 0.675 0.635" stroke="hsl(180.0,100%,35%)" stroke-width="0.00121"></path>
<path d="M0.527 0.281 Q0.249 0.415 0.449 0.580" stroke="hsl(180.0,100%,35%)" stroke-width="0.00202"></path>
<path d="M0.398 0.836 Q0.698 0.791 0.675 0.635" stroke="hsl(180.0,100%,35%)" stroke-width="0.00040"></path>
<path d="M0.398 0.836 Q0.628 0.718 0.449 0.580" stroke="hsl(180.0,100%,35%)" stroke-width="0.00081"></path>
<path d="M0.398 0.836 Q0.652 0.962 0.953 0.866" stroke="hsl(180.0,100%,35%)" stroke-width="0.00040"></path>
<path d="M0.510 0.340 Q0.288 0.448 0.449 0.580" stroke="hsl(180.0,100%,35%)" stroke-width="0.00040"></path>
<path d="M0.510 0.340 Q0.440 0.582 0.896 0.669" stroke="hsl(180.0,100%,35%)" stroke-width="0.00121"></path>
<path d="M0.510 0.340 Q0.153 0.360 0.114 0.539" stroke="hsl(180.0,100%,35%)" stroke-width="0.00121"></path>
<path d="M0.510 0.340 Q0.223 0.288 0.059 0.417" stroke="hsl(180.0,100%,35%)" stroke-width="0.00040"></path>
<path d="M0.510 0.340 Q0.357 0.521 0.675 0.635" stroke="hsl(180.0,100%,35%)" stroke-width="0.00202"></path>
<path d="M0.813 0.429 Q0.580 0.505 0.675 0.635" stroke="hsl(180.0,100%,35%)" stroke-width="0.00081"></path>
<path d="M0.813 0.429 Q0.510 0.432 0.449 0.580" stroke="hsl(180.0,100%,35%)" stroke-width="0.00040"></path>
<path d="M0.813 0.429 Q0.689 0.363 0.532 0.408" stroke="hsl(180.0,100%,35%)" stroke-width="0.00040"></path>
<path d="M1.801 0.490 Q1.828 0.545 1.941 0.544" stroke="hsl(180.0,100%,35%)" stroke-width="0.00040"></path>
<path d="M1.801 0.490 Q1.053 0.265 0.449 0.580" stroke="hsl(180.0,100%,35%)" stroke-width="0.00081"></path>
<path d="M1.801 0.490 Q1.122 0.337 0.675 0.635" stroke="hsl(180.0,100%,35%)" stroke-width="0.00040"></path>
<path d="M1.801 0.490 Q0.988 0.105 0.059 0.417" stroke="hsl(180.0,100%,35%)" stroke-width="0.00081"></path>
<path d="M1.801 0.490 Q0.809 0.329 0.278 0.778" stroke="hsl(180.0,100%,35%)" stroke-width="0.00040"></path>
<path d="M1.801 0.490 Q0.918 0.177 0.114 0.539" stroke="hsl(180.0,100%,35%)" stroke-width="0.00040"></path>
</g>
<text x="0.059" y="0.396" font-size="0.040900" fill="hsl(0.0,100%,20%)">amaiorano</text>
<text x="0.114" y="0.493" font-size="0.092658" fill="hsl(0.0,100%,20%)">bclayton</text>
<text x="0.449" y="0.544" font-size="0.072726" fill="hsl(180.0,100%,20%)">enga</text>
<text x="0.675" y="0.598" font-size="0.073650" fill="hsl(180.0,100%,20%)">cwallez</text>
<text x="0.124" y="0.647" font-size="0.060237" fill="hsl(0.0,100%,20%)">jrprice</text>
<text x="0.278" y="0.762" font-size="0.031564" fill="hsl(180.0,100%,20%)">kainino</text>
<text x="0.300" y="0.245" font-size="0.061949" fill="hsl(0.0,100%,20%)">dsinclair</text>
<text x="0.548" y="0.411" font-size="0.007014" fill="hsl(180.0,100%,20%)">andre</text>
<text x="0.995" y="0.455" font-size="0.021043" fill="hsl(180.0,100%,20%)">arthursonzogni</text>
<text x="1.050" y="0.380" font-size="0.003507" fill="hsl(180.0,100%,20%)">khaslett</text>
<text x="0.883" y="0.753" font-size="0.009920" fill="hsl(180.0,100%,20%)">austineng</text>
<text x="1.618" y="0.091" font-size="0.024044" fill="hsl(180.0,100%,20%)">shrekshao</text>
<text x="0.896" y="0.645" font-size="0.047184" fill="hsl(180.0,100%,20%)">lokokung</text>
<text x="0.137" y="0.856" font-size="0.024298" fill="hsl(180.0,100%,20%)">bajones</text>
<text x="0.648" y="0.978" font-size="0.027615" fill="hsl(0.0,100%,20%)">dneto</text>
<text x="0.147" y="0.774" font-size="0.003507" fill="hsl(0.0,100%,20%)">brucedawson</text>
<text x="0.171" y="0.349" font-size="0.014029" fill="hsl(0.0,100%,20%)">rharrison</text>
<text x="1.828" y="0.238" font-size="0.026939" fill="hsl(180.0,100%,20%)">senorblanco</text>
<text x="0.177" y="0.433" font-size="0.003507" fill="hsl(0.0,100%,20%)">kjlubick</text>
<text x="0.525" y="0.691" font-size="0.019527" fill="hsl(180.0,100%,20%)">beaufort.francois</text>
<text x="0.287" y="0.441" font-size="0.007842" fill="hsl(0.0,100%,20%)">brandon1.jones</text>
<text x="0.683" y="0.435" font-size="0.003507" fill="hsl(180.0,100%,20%)">fhorschig</text>
<text x="1.010" y="1.214" font-size="0.003507" fill="hsl(180.0,100%,20%)">jamesgk</text>
<text x="0.576" y="0.125" font-size="0.021902" fill="hsl(180.0,100%,20%)">penghuang</text>
<text x="0.532" y="0.404" font-size="0.008591" fill="hsl(180.0,100%,20%)">lehoangquyen</text>
<text x="1.160" y="0.639" font-size="0.003507" fill="hsl(180.0,100%,20%)">fbeaufort</text>
<text x="1.045" y="0.505" font-size="0.006075" fill="hsl(180.0,100%,20%)">danakj</text>
<text x="0.605" y="0.875" font-size="0.006075" fill="hsl(0.0,100%,20%)">alanbaker</text>
<text x="0.386" y="0.672" font-size="0.021902" fill="hsl(180.0,100%,20%)">gman</text>
<text x="0.610" y="0.719" font-size="0.044639" fill="hsl(180.0,100%,20%)">jiawei.shao</text>
<text x="0.915" y="0.357" font-size="0.015287" fill="hsl(180.0,100%,20%)">hao.x.li</text>
<text x="0.672" y="0.790" font-size="0.011091" fill="hsl(180.0,100%,20%)">hitawala</text>
<text x="0.953" y="0.863" font-size="0.006075" fill="hsl(180.0,100%,20%)">sunnyps</text>
<text x="0.293" y="0.416" font-size="0.011632" fill="hsl(0.0,100%,20%)">jason.erb</text>
<text x="0.540" y="0.855" font-size="0.006075" fill="hsl(180.0,100%,20%)">jianlin.qiu</text>
<text x="0.286" y="0.683" font-size="0.013583" fill="hsl(180.0,100%,20%)">zhaoming.jiang</text>
<text x="0.527" y="0.275" font-size="0.012149" fill="hsl(180.0,100%,20%)">jie.a.chen</text>
<text x="0.765" y="0.832" font-size="0.003507" fill="hsl(180.0,100%,20%)">kbr</text>
<text x="0.398" y="0.832" font-size="0.007014" fill="hsl(180.0,100%,20%)">shaobo.yan</text>
<text x="0.510" y="0.334" font-size="0.012645" fill="hsl(180.0,100%,20%)">tiszka</text>
<text x="0.813" y="0.426" font-size="0.007014" fill="hsl(180.0,100%,20%)">vollick</text>
<text x="1.801" y="0.485" font-size="0.009920" fill="hsl(180.0,100%,20%)">ynovikov</text>
<text x="1.941" y="0.542" font-size="0.003507" fill="hsl(180.0,100%,20%)">bsheedy</text>
</svg>
