<svg width="4000" height="2000" viewBox="-0.025 -0.025 2.05 1.05" xmlns="http://www.w3.org/2000/svg">
  <style>
    path {
      fill: none;
      stroke-linecap: round;
      stroke-opacity: 0.4;
    }

    text {
      text-anchor: middle;
      alignment-baseline: hanging;
    }
  </style>
  <g opacity="0.4">
<path d="M0.476 0.576 Q0.573 0.484 0.414 0.416" stroke="hsl(0.0,100%,35%)" stroke-width="0.00125"></path>
<path d="M0.476 0.576 Q0.434 0.407 0.095 0.390" stroke="hsl(0.0,100%,35%)" stroke-width="0.00083"></path>
<path d="M0.476 0.576 Q0.679 0.918 1.392 0.895" stroke="hsl(0.0,100%,35%)" stroke-width="0.00042"></path>
<path d="M0.476 0.576 Q0.667 0.585 0.728 0.494" stroke="hsl(0.0,100%,35%)" stroke-width="0.00042"></path>
<path d="M0.414 0.416 Q0.599 0.793 1.374 0.786" stroke="hsl(0.0,100%,35%)" stroke-width="0.00998"></path>
<path d="M0.414 0.416 Q0.521 0.851 1.392 0.895" stroke="hsl(0.0,100%,35%)" stroke-width="0.00062"></path>
<path d="M0.414 0.416 Q0.406 0.313 0.202 0.294" stroke="hsl(0.0,100%,35%)" stroke-width="0.01144"></path>
<path d="M0.414 0.416 Q0.276 0.340 0.095 0.390" stroke="hsl(0.0,100%,35%)" stroke-width="0.02205"></path>
<path d="M0.414 0.416 Q0.232 0.448 0.254 0.543" stroke="hsl(0.0,100%,35%)" stroke-width="0.00042"></path>
<path d="M0.414 0.416 Q0.543 0.407 0.553 0.342" stroke="hsl(0.0,100%,35%)" stroke-width="0.00021"></path>
<path d="M0.414 0.416 Q0.495 0.480 0.636 0.454" stroke="hsl(0.0,100%,35%)" stroke-width="0.00042"></path>
<path d="M0.414 0.416 Q0.509 0.518 0.728 0.494" stroke="hsl(0.0,100%,35%)" stroke-width="0.00166"></path>
<path d="M0.414 0.416 Q0.680 0.491 0.884 0.377" stroke="hsl(0.0,100%,35%)" stroke-width="0.00166"></path>
<path d="M0.414 0.416 Q0.653 0.296 0.470 0.153" stroke="hsl(0.0,100%,35%)" stroke-width="0.00021"></path>
<path d="M0.414 0.416 Q0.902 0.680 1.524 0.500" stroke="hsl(0.0,100%,35%)" stroke-width="0.00021"></path>
<path d="M0.414 0.416 Q0.215 0.574 0.479 0.706" stroke="hsl(0.0,100%,35%)" stroke-width="0.00042"></path>
<path d="M0.414 0.416 Q0.183 0.460 0.217 0.582" stroke="hsl(0.0,100%,35%)" stroke-width="0.00062"></path>
<path d="M0.414 0.416 Q0.789 0.414 0.866 0.231" stroke="hsl(0.0,100%,35%)" stroke-width="0.00021"></path>
<path d="M0.414 0.416 Q0.316 0.424 0.309 0.474" stroke="hsl(0.0,100%,35%)" stroke-width="0.00021"></path>
<path d="M0.414 0.416 Q0.206 0.412 0.150 0.512" stroke="hsl(0.0,100%,35%)" stroke-width="0.00021"></path>
<path d="M0.414 0.416 Q0.522 0.475 0.660 0.436" stroke="hsl(0.0,100%,35%)" stroke-width="0.00021"></path>
<path d="M0.095 0.390 Q0.226 0.363 0.202 0.294" stroke="hsl(0.0,100%,35%)" stroke-width="0.01872"></path>
<path d="M0.095 0.390 Q0.328 0.569 0.728 0.494" stroke="hsl(0.0,100%,35%)" stroke-width="0.00520"></path>
<path d="M0.095 0.390 Q0.234 0.467 0.414 0.416" stroke="hsl(0.0,100%,35%)" stroke-width="0.00853"></path>
<path d="M0.095 0.390 Q0.115 0.549 0.429 0.575" stroke="hsl(0.0,100%,35%)" stroke-width="0.00146"></path>
<path d="M0.095 0.390 Q0.722 0.731 1.524 0.500" stroke="hsl(0.0,100%,35%)" stroke-width="0.00125"></path>
<path d="M0.095 0.390 Q0.500 0.542 0.884 0.377" stroke="hsl(0.0,100%,35%)" stroke-width="0.00146"></path>
<path d="M0.095 0.390 Q0.340 0.902 1.392 0.895" stroke="hsl(0.0,100%,35%)" stroke-width="0.00104"></path>
<path d="M0.095 0.390 Q0.418 0.844 1.374 0.786" stroke="hsl(0.0,100%,35%)" stroke-width="0.00291"></path>
<path d="M0.095 0.390 Q0.003 0.511 0.217 0.582" stroke="hsl(0.0,100%,35%)" stroke-width="0.00062"></path>
<path d="M0.095 0.390 Q0.463 0.748 1.241 0.647" stroke="hsl(0.0,100%,35%)" stroke-width="0.00083"></path>
<path d="M0.095 0.390 Q0.035 0.625 0.479 0.706" stroke="hsl(0.0,100%,35%)" stroke-width="0.00062"></path>
<path d="M0.095 0.390 Q-0.029 0.540 0.235 0.633" stroke="hsl(0.0,100%,35%)" stroke-width="0.00062"></path>
<path d="M0.095 0.390 Q0.052 0.498 0.254 0.543" stroke="hsl(0.0,100%,35%)" stroke-width="0.00125"></path>
<path d="M0.095 0.390 Q0.087 0.454 0.209 0.472" stroke="hsl(0.0,100%,35%)" stroke-width="0.00021"></path>
<path d="M0.095 0.390 Q0.025 0.462 0.150 0.512" stroke="hsl(0.0,100%,35%)" stroke-width="0.00104"></path>
<path d="M0.095 0.390 Q-0.101 0.513 0.096 0.636" stroke="hsl(0.0,100%,35%)" stroke-width="0.00042"></path>
<path d="M0.095 0.390 Q0.167 0.586 0.566 0.594" stroke="hsl(0.0,100%,35%)" stroke-width="0.00021"></path>
<path d="M0.095 0.390 Q1.430 0.272 1.492 -0.406" stroke="hsl(0.0,100%,35%)" stroke-width="0.00021"></path>
<path d="M0.095 0.390 Q0.008 0.430 0.066 0.481" stroke="hsl(0.0,100%,35%)" stroke-width="0.00062"></path>
<path d="M0.095 0.390 Q-0.026 0.479 0.121 0.558" stroke="hsl(0.0,100%,35%)" stroke-width="0.00021"></path>
<path d="M1.392 0.895 Q1.470 0.837 1.374 0.786" stroke="hsl(180.0,100%,35%)" stroke-width="0.05803"></path>
<path d="M1.392 0.895 Q1.774 0.724 1.524 0.500" stroke="hsl(180.0,100%,35%)" stroke-width="0.00208"></path>
<path d="M1.392 0.895 Q1.104 0.491 0.254 0.543" stroke="hsl(180.0,100%,35%)" stroke-width="0.00083"></path>
<path d="M1.392 0.895 Q1.166 0.542 0.429 0.575" stroke="hsl(180.0,100%,35%)" stroke-width="0.00021"></path>
<path d="M1.392 0.895 Q1.023 0.533 0.235 0.633" stroke="hsl(180.0,100%,35%)" stroke-width="0.00021"></path>
<path d="M1.392 0.895 Q1.514 0.741 1.241 0.647" stroke="hsl(180.0,100%,35%)" stroke-width="0.02350"></path>
<path d="M1.392 0.895 Q1.286 0.460 0.414 0.416" stroke="hsl(180.0,100%,35%)" stroke-width="0.00291"></path>
<path d="M1.392 0.895 Q1.077 0.455 0.150 0.512" stroke="hsl(180.0,100%,35%)" stroke-width="0.00062"></path>
<path d="M1.392 0.895 Q1.147 0.383 0.095 0.390" stroke="hsl(180.0,100%,35%)" stroke-width="0.00104"></path>
<path d="M1.392 0.895 Q1.380 0.561 0.728 0.494" stroke="hsl(180.0,100%,35%)" stroke-width="0.00042"></path>
<path d="M1.392 0.895 Q1.664 0.844 1.624 0.700" stroke="hsl(180.0,100%,35%)" stroke-width="0.00083"></path>
<path d="M0.728 0.494 Q0.633 0.393 0.414 0.416" stroke="hsl(0.0,100%,35%)" stroke-width="0.00229"></path>
<path d="M0.728 0.494 Q0.625 0.289 0.202 0.294" stroke="hsl(0.0,100%,35%)" stroke-width="0.00291"></path>
<path d="M0.728 0.494 Q0.494 0.316 0.095 0.390" stroke="hsl(0.0,100%,35%)" stroke-width="0.00270"></path>
<path d="M0.728 0.494 Q0.817 0.769 1.374 0.786" stroke="hsl(0.0,100%,35%)" stroke-width="0.00021"></path>
<path d="M0.728 0.494 Q0.486 0.379 0.209 0.472" stroke="hsl(0.0,100%,35%)" stroke-width="0.00021"></path>
<path d="M0.728 0.494 Q0.514 0.475 0.429 0.575" stroke="hsl(0.0,100%,35%)" stroke-width="0.00021"></path>
<path d="M0.728 0.494 Q0.899 0.467 0.884 0.377" stroke="hsl(0.0,100%,35%)" stroke-width="0.00021"></path>
<path d="M0.728 0.494 Q0.424 0.388 0.150 0.512" stroke="hsl(0.0,100%,35%)" stroke-width="0.00021"></path>
<path d="M1.524 0.500 Q1.220 0.613 1.374 0.786" stroke="hsl(180.0,100%,35%)" stroke-width="0.00874"></path>
<path d="M1.524 0.500 Q0.897 0.159 0.095 0.390" stroke="hsl(180.0,100%,35%)" stroke-width="0.00645"></path>
<path d="M1.524 0.500 Q1.036 0.236 0.414 0.416" stroke="hsl(180.0,100%,35%)" stroke-width="0.00208"></path>
<path d="M1.524 0.500 Q1.264 0.517 1.241 0.647" stroke="hsl(180.0,100%,35%)" stroke-width="0.00125"></path>
<path d="M1.524 0.500 Q1.130 0.338 0.728 0.494" stroke="hsl(180.0,100%,35%)" stroke-width="0.00042"></path>
<path d="M1.524 0.500 Q1.142 0.671 1.392 0.895" stroke="hsl(180.0,100%,35%)" stroke-width="0.00250"></path>
<path d="M1.524 0.500 Q1.414 0.620 1.624 0.700" stroke="hsl(180.0,100%,35%)" stroke-width="0.00042"></path>
<path d="M1.524 0.500 Q0.827 0.231 0.150 0.512" stroke="hsl(180.0,100%,35%)" stroke-width="0.00021"></path>
<path d="M1.374 0.786 Q1.678 0.673 1.524 0.500" stroke="hsl(180.0,100%,35%)" stroke-width="0.01726"></path>
<path d="M1.374 0.786 Q1.419 0.690 1.241 0.647" stroke="hsl(180.0,100%,35%)" stroke-width="0.05013"></path>
<path d="M1.374 0.786 Q1.296 0.844 1.392 0.895" stroke="hsl(180.0,100%,35%)" stroke-width="0.05845"></path>
<path d="M1.374 0.786 Q1.190 0.409 0.414 0.416" stroke="hsl(180.0,100%,35%)" stroke-width="0.01435"></path>
<path d="M1.374 0.786 Q1.568 0.793 1.624 0.700" stroke="hsl(180.0,100%,35%)" stroke-width="0.00291"></path>
<path d="M1.374 0.786 Q1.284 0.511 0.728 0.494" stroke="hsl(180.0,100%,35%)" stroke-width="0.00042"></path>
<path d="M1.374 0.786 Q1.270 0.472 0.636 0.454" stroke="hsl(180.0,100%,35%)" stroke-width="0.00021"></path>
<path d="M1.374 0.786 Q1.051 0.332 0.095 0.390" stroke="hsl(180.0,100%,35%)" stroke-width="0.00770"></path>
<path d="M1.374 0.786 Q2.386 0.214 1.492 -0.406" stroke="hsl(180.0,100%,35%)" stroke-width="0.00021"></path>
<path d="M1.374 0.786 Q1.456 0.484 0.884 0.377" stroke="hsl(180.0,100%,35%)" stroke-width="0.00042"></path>
<path d="M1.374 0.786 Q0.981 0.404 0.150 0.512" stroke="hsl(180.0,100%,35%)" stroke-width="0.00083"></path>
<path d="M1.374 0.786 Q1.008 0.440 0.254 0.543" stroke="hsl(180.0,100%,35%)" stroke-width="0.00104"></path>
<path d="M1.374 0.786 Q1.638 0.670 1.469 0.516" stroke="hsl(180.0,100%,35%)" stroke-width="0.00021"></path>
<path d="M1.374 0.786 Q1.042 0.396 0.209 0.472" stroke="hsl(180.0,100%,35%)" stroke-width="0.00021"></path>
<path d="M1.241 0.647 Q1.197 0.743 1.374 0.786" stroke="hsl(180.0,100%,35%)" stroke-width="0.04825"></path>
<path d="M1.241 0.647 Q1.391 0.750 1.624 0.700" stroke="hsl(180.0,100%,35%)" stroke-width="0.00645"></path>
<path d="M1.241 0.647 Q1.500 0.630 1.524 0.500" stroke="hsl(180.0,100%,35%)" stroke-width="0.00104"></path>
<path d="M1.241 0.647 Q1.119 0.801 1.392 0.895" stroke="hsl(180.0,100%,35%)" stroke-width="0.02267"></path>
<path d="M1.241 0.647 Q1.278 0.441 0.884 0.377" stroke="hsl(180.0,100%,35%)" stroke-width="0.00062"></path>
<path d="M1.241 0.647 Q1.012 0.366 0.414 0.416" stroke="hsl(180.0,100%,35%)" stroke-width="0.00125"></path>
<path d="M1.241 0.647 Q0.874 0.290 0.095 0.390" stroke="hsl(180.0,100%,35%)" stroke-width="0.00125"></path>
<path d="M1.241 0.647 Q0.749 0.439 0.235 0.633" stroke="hsl(180.0,100%,35%)" stroke-width="0.00021"></path>
<path d="M1.241 0.647 Q1.344 0.807 1.677 0.791" stroke="hsl(180.0,100%,35%)" stroke-width="0.00021"></path>
<path d="M1.241 0.647 Q1.170 0.566 0.997 0.583" stroke="hsl(180.0,100%,35%)" stroke-width="0.00021"></path>
<path d="M1.624 0.700 Q1.430 0.693 1.374 0.786" stroke="hsl(180.0,100%,35%)" stroke-width="0.00416"></path>
<path d="M1.624 0.700 Q1.475 0.597 1.241 0.647" stroke="hsl(180.0,100%,35%)" stroke-width="0.00229"></path>
<path d="M1.624 0.700 Q1.734 0.580 1.524 0.500" stroke="hsl(180.0,100%,35%)" stroke-width="0.00021"></path>
<path d="M1.624 0.700 Q1.577 0.756 1.677 0.791" stroke="hsl(180.0,100%,35%)" stroke-width="0.00042"></path>
<path d="M1.624 0.700 Q1.107 0.239 0.095 0.390" stroke="hsl(180.0,100%,35%)" stroke-width="0.00042"></path>
<path d="M1.624 0.700 Q1.352 0.751 1.392 0.895" stroke="hsl(180.0,100%,35%)" stroke-width="0.00083"></path>
<path d="M1.624 0.700 Q1.512 0.390 0.884 0.377" stroke="hsl(180.0,100%,35%)" stroke-width="0.00021"></path>
<path d="M1.624 0.700 Q1.246 0.316 0.414 0.416" stroke="hsl(180.0,100%,35%)" stroke-width="0.00042"></path>
<path d="M1.624 0.700 Q1.340 0.417 0.728 0.494" stroke="hsl(180.0,100%,35%)" stroke-width="0.00021"></path>
<path d="M0.150 0.512 Q0.220 0.440 0.095 0.390" stroke="hsl(180.0,100%,35%)" stroke-width="0.00104"></path>
<path d="M0.150 0.512 Q0.465 0.952 1.392 0.895" stroke="hsl(180.0,100%,35%)" stroke-width="0.00104"></path>
<path d="M0.150 0.512 Q0.543 0.894 1.374 0.786" stroke="hsl(180.0,100%,35%)" stroke-width="0.00062"></path>
<path d="M0.150 0.512 Q0.588 0.798 1.241 0.647" stroke="hsl(180.0,100%,35%)" stroke-width="0.00021"></path>
<path d="M0.150 0.512 Q0.847 0.781 1.524 0.500" stroke="hsl(180.0,100%,35%)" stroke-width="0.00021"></path>
<path d="M1.604 0.680 Q1.404 0.687 1.374 0.786" stroke="hsl(0.0,100%,35%)" stroke-width="0.00042"></path>
<path d="M1.604 0.680 Q1.220 0.310 0.414 0.416" stroke="hsl(0.0,100%,35%)" stroke-width="0.00042"></path>
<path d="M0.636 0.454 Q0.555 0.391 0.414 0.416" stroke="hsl(0.0,100%,35%)" stroke-width="0.00478"></path>
<path d="M0.636 0.454 Q0.417 0.314 0.095 0.390" stroke="hsl(0.0,100%,35%)" stroke-width="0.00042"></path>
<path d="M0.636 0.454 Q0.975 0.277 0.704 0.072" stroke="hsl(0.0,100%,35%)" stroke-width="0.00021"></path>
<path d="M0.636 0.454 Q0.740 0.768 1.374 0.786" stroke="hsl(0.0,100%,35%)" stroke-width="0.00146"></path>
<path d="M0.848 0.284 Q0.525 0.263 0.414 0.416" stroke="hsl(0.0,100%,35%)" stroke-width="0.00042"></path>
<path d="M0.848 0.284 Q0.620 0.365 0.728 0.494" stroke="hsl(0.0,100%,35%)" stroke-width="0.00042"></path>
<path d="M0.848 0.284 Q0.406 0.345 0.429 0.575" stroke="hsl(0.0,100%,35%)" stroke-width="0.00021"></path>
<path d="M0.848 0.284 Q0.517 0.160 0.202 0.294" stroke="hsl(0.0,100%,35%)" stroke-width="0.00021"></path>
<path d="M0.848 0.284 Q0.710 0.640 1.374 0.786" stroke="hsl(0.0,100%,35%)" stroke-width="0.00021"></path>
<path d="M0.848 0.284 Q0.387 0.186 0.095 0.390" stroke="hsl(0.0,100%,35%)" stroke-width="0.00021"></path>
<path d="M0.429 0.575 Q0.409 0.416 0.095 0.390" stroke="hsl(0.0,100%,35%)" stroke-width="0.00790"></path>
<path d="M0.429 0.575 Q0.366 0.524 0.254 0.543" stroke="hsl(0.0,100%,35%)" stroke-width="0.00416"></path>
<path d="M0.429 0.575 Q0.654 0.927 1.392 0.895" stroke="hsl(0.0,100%,35%)" stroke-width="0.00062"></path>
<path d="M0.429 0.575 Q0.777 0.773 1.241 0.647" stroke="hsl(0.0,100%,35%)" stroke-width="0.00021"></path>
<path d="M0.429 0.575 Q0.642 0.594 0.728 0.494" stroke="hsl(0.0,100%,35%)" stroke-width="0.00042"></path>
<path d="M0.429 0.575 Q0.814 0.567 0.884 0.377" stroke="hsl(0.0,100%,35%)" stroke-width="0.00021"></path>
<path d="M0.429 0.575 Q0.540 0.389 0.202 0.294" stroke="hsl(0.0,100%,35%)" stroke-width="0.00125"></path>
<path d="M0.429 0.575 Q0.732 0.869 1.374 0.786" stroke="hsl(0.0,100%,35%)" stroke-width="0.00104"></path>
<path d="M0.429 0.575 Q0.548 0.493 0.414 0.416" stroke="hsl(0.0,100%,35%)" stroke-width="0.00021"></path>
<path d="M0.202 0.294 Q0.072 0.321 0.095 0.390" stroke="hsl(0.0,100%,35%)" stroke-width="0.02205"></path>
<path d="M0.202 0.294 Q0.305 0.499 0.728 0.494" stroke="hsl(0.0,100%,35%)" stroke-width="0.00374"></path>
<path d="M0.202 0.294 Q0.210 0.398 0.414 0.416" stroke="hsl(0.0,100%,35%)" stroke-width="0.00686"></path>
<path d="M0.202 0.294 Q-0.053 0.470 0.235 0.633" stroke="hsl(0.0,100%,35%)" stroke-width="0.00021"></path>
<path d="M0.202 0.294 Q0.698 0.661 1.524 0.500" stroke="hsl(0.0,100%,35%)" stroke-width="0.00021"></path>
<path d="M0.202 0.294 Q0.264 0.224 0.141 0.178" stroke="hsl(0.0,100%,35%)" stroke-width="0.00021"></path>
<path d="M0.202 0.294 Q0.395 0.774 1.374 0.786" stroke="hsl(0.0,100%,35%)" stroke-width="0.00083"></path>
<path d="M0.202 0.294 Q0.476 0.472 0.884 0.377" stroke="hsl(0.0,100%,35%)" stroke-width="0.00125"></path>
<path d="M0.202 0.294 Q0.091 0.480 0.429 0.575" stroke="hsl(0.0,100%,35%)" stroke-width="0.00208"></path>
<path d="M0.202 0.294 Q0.439 0.678 1.241 0.647" stroke="hsl(0.0,100%,35%)" stroke-width="0.00021"></path>
<path d="M0.715 -0.194 Q-0.062 -0.026 0.095 0.390" stroke="hsl(0.0,100%,35%)" stroke-width="0.00042"></path>
<path d="M0.715 -0.194 Q0.076 0.051 0.414 0.416" stroke="hsl(0.0,100%,35%)" stroke-width="0.00021"></path>
<path d="M0.715 -0.194 Q0.342 0.125 0.884 0.377" stroke="hsl(0.0,100%,35%)" stroke-width="0.00021"></path>
<path d="M0.884 0.377 Q0.618 0.303 0.414 0.416" stroke="hsl(0.0,100%,35%)" stroke-width="0.00062"></path>
<path d="M0.884 0.377 Q0.479 0.226 0.095 0.390" stroke="hsl(0.0,100%,35%)" stroke-width="0.00416"></path>
<path d="M0.884 0.377 Q0.712 0.404 0.728 0.494" stroke="hsl(0.0,100%,35%)" stroke-width="0.00208"></path>
<path d="M0.884 0.377 Q0.610 0.199 0.202 0.294" stroke="hsl(0.0,100%,35%)" stroke-width="0.00042"></path>
<path d="M0.884 0.377 Q1.106 0.566 1.524 0.500" stroke="hsl(0.0,100%,35%)" stroke-width="0.00021"></path>
<path d="M0.884 0.377 Q0.997 0.687 1.624 0.700" stroke="hsl(0.0,100%,35%)" stroke-width="0.00021"></path>
<path d="M0.884 0.377 Q0.499 0.385 0.429 0.575" stroke="hsl(0.0,100%,35%)" stroke-width="0.00021"></path>
<path d="M0.254 0.543 Q0.620 0.889 1.374 0.786" stroke="hsl(0.0,100%,35%)" stroke-width="0.00354"></path>
<path d="M0.254 0.543 Q0.297 0.435 0.095 0.390" stroke="hsl(0.0,100%,35%)" stroke-width="0.00603"></path>
<path d="M0.254 0.543 Q0.542 0.947 1.392 0.895" stroke="hsl(0.0,100%,35%)" stroke-width="0.00146"></path>
<path d="M0.254 0.543 Q0.427 0.408 0.202 0.294" stroke="hsl(0.0,100%,35%)" stroke-width="0.00042"></path>
<path d="M0.254 0.543 Q0.702 0.586 0.884 0.377" stroke="hsl(0.0,100%,35%)" stroke-width="0.00021"></path>
<path d="M0.254 0.543 Q0.316 0.594 0.429 0.575" stroke="hsl(0.0,100%,35%)" stroke-width="0.00021"></path>
<path d="M0.254 0.543 Q0.173 0.585 0.235 0.633" stroke="hsl(0.0,100%,35%)" stroke-width="0.00042"></path>
<path d="M0.254 0.543 Q0.435 0.512 0.414 0.416" stroke="hsl(0.0,100%,35%)" stroke-width="0.00104"></path>
<path d="M0.254 0.543 Q0.530 0.613 0.728 0.494" stroke="hsl(0.0,100%,35%)" stroke-width="0.00021"></path>
<path d="M0.209 0.472 Q0.356 0.485 0.414 0.416" stroke="hsl(0.0,100%,35%)" stroke-width="0.02059"></path>
<path d="M0.209 0.472 Q0.218 0.409 0.095 0.390" stroke="hsl(0.0,100%,35%)" stroke-width="0.01685"></path>
<path d="M0.209 0.472 Q0.541 0.862 1.374 0.786" stroke="hsl(0.0,100%,35%)" stroke-width="0.00499"></path>
<path d="M0.209 0.472 Q0.348 0.382 0.202 0.294" stroke="hsl(0.0,100%,35%)" stroke-width="0.00021"></path>
<path d="M0.209 0.472 Q0.585 0.766 1.241 0.647" stroke="hsl(0.0,100%,35%)" stroke-width="0.00042"></path>
<path d="M0.209 0.472 Q0.622 0.560 0.884 0.377" stroke="hsl(0.0,100%,35%)" stroke-width="0.00042"></path>
<path d="M0.209 0.472 Q0.148 0.481 0.150 0.512" stroke="hsl(0.0,100%,35%)" stroke-width="0.00021"></path>
<path d="M0.209 0.472 Q0.735 0.869 1.624 0.700" stroke="hsl(0.0,100%,35%)" stroke-width="0.00104"></path>
<path d="M0.209 0.472 Q0.157 0.643 0.479 0.706" stroke="hsl(0.0,100%,35%)" stroke-width="0.00083"></path>
<path d="M0.209 0.472 Q0.284 0.515 0.384 0.488" stroke="hsl(0.0,100%,35%)" stroke-width="0.00021"></path>
<path d="M0.209 0.472 Q0.463 0.920 1.392 0.895" stroke="hsl(0.0,100%,35%)" stroke-width="0.00021"></path>
<path d="M0.209 0.472 Q0.015 0.521 0.068 0.627" stroke="hsl(0.0,100%,35%)" stroke-width="0.00042"></path>
<path d="M0.209 0.472 Q0.451 0.587 0.728 0.494" stroke="hsl(0.0,100%,35%)" stroke-width="0.00021"></path>
<path d="M0.551 0.526 Q0.570 0.444 0.414 0.416" stroke="hsl(0.0,100%,35%)" stroke-width="0.00520"></path>
<path d="M0.551 0.526 Q0.665 0.545 0.728 0.494" stroke="hsl(0.0,100%,35%)" stroke-width="0.00042"></path>
<path d="M0.551 0.526 Q0.432 0.367 0.095 0.390" stroke="hsl(0.0,100%,35%)" stroke-width="0.00166"></path>
<path d="M0.551 0.526 Q0.562 0.340 0.202 0.294" stroke="hsl(0.0,100%,35%)" stroke-width="0.00062"></path>
<path d="M0.660 0.436 Q0.553 0.377 0.414 0.416" stroke="hsl(0.0,100%,35%)" stroke-width="0.00458"></path>
<path d="M0.660 0.436 Q0.414 0.300 0.095 0.390" stroke="hsl(0.0,100%,35%)" stroke-width="0.00062"></path>
<path d="M0.660 0.436 Q0.544 0.273 0.202 0.294" stroke="hsl(0.0,100%,35%)" stroke-width="0.00021"></path>
<path d="M1.321 0.562 Q0.983 0.308 0.414 0.416" stroke="hsl(180.0,100%,35%)" stroke-width="0.00104"></path>
<path d="M1.321 0.562 Q0.845 0.231 0.095 0.390" stroke="hsl(180.0,100%,35%)" stroke-width="0.00104"></path>
<path d="M1.321 0.562 Q1.168 0.684 1.374 0.786" stroke="hsl(180.0,100%,35%)" stroke-width="0.00208"></path>
<path d="M1.321 0.562 Q1.212 0.588 1.241 0.647" stroke="hsl(180.0,100%,35%)" stroke-width="0.00021"></path>
<path d="M0.096 0.636 Q0.292 0.513 0.095 0.390" stroke="hsl(0.0,100%,35%)" stroke-width="0.00333"></path>
<path d="M0.096 0.636 Q0.111 0.661 0.163 0.659" stroke="hsl(0.0,100%,35%)" stroke-width="0.00042"></path>
<path d="M0.096 0.636 Q0.526 0.692 0.728 0.494" stroke="hsl(0.0,100%,35%)" stroke-width="0.00021"></path>
<path d="M0.479 0.706 Q0.540 0.471 0.095 0.390" stroke="hsl(0.0,100%,35%)" stroke-width="0.01893"></path>
<path d="M0.479 0.706 Q0.678 0.548 0.414 0.416" stroke="hsl(0.0,100%,35%)" stroke-width="0.00853"></path>
<path d="M0.479 0.706 Q0.863 0.925 1.374 0.786" stroke="hsl(0.0,100%,35%)" stroke-width="0.00042"></path>
<path d="M0.479 0.706 Q0.670 0.445 0.202 0.294" stroke="hsl(0.0,100%,35%)" stroke-width="0.00021"></path>
<path d="M0.217 0.582 Q0.448 0.539 0.414 0.416" stroke="hsl(0.0,100%,35%)" stroke-width="0.00291"></path>
<path d="M0.217 0.582 Q0.310 0.462 0.095 0.390" stroke="hsl(0.0,100%,35%)" stroke-width="0.00603"></path>
<path d="M0.217 0.582 Q0.249 0.696 0.479 0.706" stroke="hsl(0.0,100%,35%)" stroke-width="0.00021"></path>
<path d="M0.217 0.582 Q0.440 0.435 0.202 0.294" stroke="hsl(0.0,100%,35%)" stroke-width="0.00021"></path>
<path d="M0.309 0.474 Q0.269 0.389 0.095 0.390" stroke="hsl(0.0,100%,35%)" stroke-width="0.00062"></path>
<path d="M0.309 0.474 Q0.408 0.466 0.414 0.416" stroke="hsl(0.0,100%,35%)" stroke-width="0.00042"></path>
<path d="M0.309 0.474 Q0.502 0.568 0.728 0.494" stroke="hsl(0.0,100%,35%)" stroke-width="0.00021"></path>
<path d="M1.181 -0.923 Q-0.412 -0.484 0.095 0.390" stroke="hsl(0.0,100%,35%)" stroke-width="0.00021"></path>
<path d="M1.181 -0.923 Q-0.089 -0.030 1.374 0.786" stroke="hsl(0.0,100%,35%)" stroke-width="0.00021"></path>
<path d="M1.181 -0.923 Q-0.274 -0.407 0.414 0.416" stroke="hsl(0.0,100%,35%)" stroke-width="0.00021"></path>
<path d="M0.235 0.633 Q0.683 0.937 1.374 0.786" stroke="hsl(0.0,100%,35%)" stroke-width="0.00104"></path>
<path d="M0.235 0.633 Q0.490 0.457 0.202 0.294" stroke="hsl(0.0,100%,35%)" stroke-width="0.00125"></path>
<path d="M0.235 0.633 Q0.498 0.561 0.414 0.416" stroke="hsl(0.0,100%,35%)" stroke-width="0.00042"></path>
<path d="M0.235 0.633 Q0.764 0.635 0.884 0.377" stroke="hsl(0.0,100%,35%)" stroke-width="0.00083"></path>
<path d="M0.235 0.633 Q0.360 0.484 0.095 0.390" stroke="hsl(0.0,100%,35%)" stroke-width="0.00478"></path>
<path d="M0.235 0.633 Q0.316 0.592 0.254 0.543" stroke="hsl(0.0,100%,35%)" stroke-width="0.00187"></path>
<path d="M0.235 0.633 Q0.986 0.824 1.524 0.500" stroke="hsl(0.0,100%,35%)" stroke-width="0.00042"></path>
<path d="M0.235 0.633 Q0.593 0.662 0.728 0.494" stroke="hsl(0.0,100%,35%)" stroke-width="0.00021"></path>
<path d="M0.498 0.238 Q0.313 0.310 0.414 0.416" stroke="hsl(0.0,100%,35%)" stroke-width="0.00083"></path>
<path d="M0.498 0.238 Q0.174 0.233 0.095 0.390" stroke="hsl(0.0,100%,35%)" stroke-width="0.00042"></path>
<path d="M0.498 0.238 Q0.497 0.687 1.374 0.786" stroke="hsl(0.0,100%,35%)" stroke-width="0.00021"></path>
<path d="M0.566 0.594 Q0.433 0.633 0.479 0.706" stroke="hsl(0.0,100%,35%)" stroke-width="0.00562"></path>
<path d="M0.566 0.594 Q0.632 0.475 0.414 0.416" stroke="hsl(0.0,100%,35%)" stroke-width="0.00686"></path>
<path d="M0.566 0.594 Q0.494 0.398 0.095 0.390" stroke="hsl(0.0,100%,35%)" stroke-width="0.00874"></path>
<path d="M0.566 0.594 Q0.817 0.852 1.374 0.786" stroke="hsl(0.0,100%,35%)" stroke-width="0.00021"></path>
<path d="M0.121 0.558 Q0.242 0.469 0.095 0.390" stroke="hsl(0.0,100%,35%)" stroke-width="0.00187"></path>
<path d="M0.121 0.558 Q0.372 0.442 0.202 0.294" stroke="hsl(0.0,100%,35%)" stroke-width="0.00083"></path>
<path d="M0.121 0.558 Q0.565 0.922 1.374 0.786" stroke="hsl(0.0,100%,35%)" stroke-width="0.00062"></path>
<path d="M0.121 0.558 Q0.869 0.809 1.524 0.500" stroke="hsl(0.0,100%,35%)" stroke-width="0.00021"></path>
<path d="M0.121 0.558 Q0.381 0.546 0.414 0.416" stroke="hsl(0.0,100%,35%)" stroke-width="0.00187"></path>
<path d="M0.149 0.562 Q0.390 0.439 0.202 0.294" stroke="hsl(0.0,100%,35%)" stroke-width="0.00021"></path>
<path d="M0.149 0.562 Q0.398 0.542 0.414 0.416" stroke="hsl(0.0,100%,35%)" stroke-width="0.00291"></path>
<path d="M0.149 0.562 Q0.259 0.466 0.095 0.390" stroke="hsl(0.0,100%,35%)" stroke-width="0.00291"></path>
<path d="M0.149 0.562 Q0.582 0.919 1.374 0.786" stroke="hsl(0.0,100%,35%)" stroke-width="0.00021"></path>
<path d="M0.565 0.478 Q0.401 0.340 0.095 0.390" stroke="hsl(0.0,100%,35%)" stroke-width="0.00083"></path>
<path d="M0.565 0.478 Q0.539 0.417 0.414 0.416" stroke="hsl(0.0,100%,35%)" stroke-width="0.00083"></path>
<path d="M0.565 0.478 Q0.350 0.371 0.094 0.453" stroke="hsl(0.0,100%,35%)" stroke-width="0.00042"></path>
<path d="M0.094 0.453 Q0.145 0.422 0.095 0.390" stroke="hsl(0.0,100%,35%)" stroke-width="0.00250"></path>
<path d="M0.094 0.453 Q0.084 0.656 0.479 0.706" stroke="hsl(0.0,100%,35%)" stroke-width="0.00021"></path>
<path d="M0.094 0.453 Q0.283 0.499 0.414 0.416" stroke="hsl(0.0,100%,35%)" stroke-width="0.00021"></path>
<path d="M1.453 0.554 Q1.228 0.654 1.374 0.786" stroke="hsl(180.0,100%,35%)" stroke-width="0.00146"></path>
<path d="M1.453 0.554 Q1.532 0.541 1.524 0.500" stroke="hsl(180.0,100%,35%)" stroke-width="0.00021"></path>
<path d="M1.453 0.554 Q1.273 0.558 1.241 0.647" stroke="hsl(180.0,100%,35%)" stroke-width="0.00021"></path>
<path d="M1.453 0.554 Q0.835 0.273 0.150 0.512" stroke="hsl(180.0,100%,35%)" stroke-width="0.00021"></path>
<path d="M1.453 0.554 Q0.905 0.201 0.095 0.390" stroke="hsl(180.0,100%,35%)" stroke-width="0.00021"></path>
<path d="M0.416 0.223 Q0.122 0.242 0.095 0.390" stroke="hsl(0.0,100%,35%)" stroke-width="0.00021"></path>
<path d="M0.416 0.223 Q0.113 0.306 0.209 0.472" stroke="hsl(0.0,100%,35%)" stroke-width="0.00021"></path>
<path d="M0.416 0.223 Q0.260 0.319 0.414 0.416" stroke="hsl(0.0,100%,35%)" stroke-width="0.00021"></path>
<path d="M0.384 0.488 Q0.456 0.458 0.414 0.416" stroke="hsl(0.0,100%,35%)" stroke-width="0.00250"></path>
<path d="M0.384 0.488 Q0.318 0.381 0.095 0.390" stroke="hsl(0.0,100%,35%)" stroke-width="0.00229"></path>
<path d="M0.384 0.488 Q0.248 0.453 0.150 0.512" stroke="hsl(0.0,100%,35%)" stroke-width="0.00021"></path>
<path d="M0.384 0.488 Q0.448 0.354 0.202 0.294" stroke="hsl(0.0,100%,35%)" stroke-width="0.00021"></path>
<path d="M0.384 0.488 Q0.685 0.739 1.241 0.647" stroke="hsl(0.0,100%,35%)" stroke-width="0.00021"></path>
<path d="M0.384 0.488 Q0.944 0.722 1.524 0.500" stroke="hsl(0.0,100%,35%)" stroke-width="0.00021"></path>
<path d="M0.964 0.458 Q0.907 0.704 1.374 0.786" stroke="hsl(180.0,100%,35%)" stroke-width="0.00021"></path>
<path d="M0.964 0.458 Q0.584 0.250 0.095 0.390" stroke="hsl(180.0,100%,35%)" stroke-width="0.00062"></path>
<path d="M0.964 0.458 Q0.951 0.608 1.241 0.647" stroke="hsl(180.0,100%,35%)" stroke-width="0.00083"></path>
<path d="M0.635 0.405 Q0.515 0.366 0.414 0.416" stroke="hsl(0.0,100%,35%)" stroke-width="0.00187"></path>
<path d="M0.635 0.405 Q0.377 0.290 0.095 0.390" stroke="hsl(0.0,100%,35%)" stroke-width="0.00187"></path>
<path d="M0.635 0.405 Q0.326 0.321 0.094 0.453" stroke="hsl(0.0,100%,35%)" stroke-width="0.00021"></path>
<path d="M0.635 0.405 Q0.418 0.458 0.476 0.576" stroke="hsl(0.0,100%,35%)" stroke-width="0.00021"></path>
<path d="M0.311 0.593 Q0.295 0.520 0.150 0.512" stroke="hsl(180.0,100%,35%)" stroke-width="0.00021"></path>
<path d="M0.311 0.593 Q0.610 0.960 1.392 0.895" stroke="hsl(180.0,100%,35%)" stroke-width="0.00021"></path>
<path d="M0.311 0.593 Q0.688 0.902 1.374 0.786" stroke="hsl(180.0,100%,35%)" stroke-width="0.00021"></path>
<path d="M0.311 0.593 Q0.504 0.525 0.414 0.416" stroke="hsl(180.0,100%,35%)" stroke-width="0.00021"></path>
<path d="M0.085 0.464 Q0.288 0.506 0.414 0.416" stroke="hsl(0.0,100%,35%)" stroke-width="0.00062"></path>
<path d="M0.085 0.464 Q0.149 0.429 0.095 0.390" stroke="hsl(0.0,100%,35%)" stroke-width="0.00062"></path>
<path d="M0.085 0.464 Q0.057 0.549 0.217 0.582" stroke="hsl(0.0,100%,35%)" stroke-width="0.00021"></path>
<path d="M0.039 0.487 Q-0.052 0.573 0.096 0.636" stroke="hsl(0.0,100%,35%)" stroke-width="0.00021"></path>
<path d="M0.039 0.487 Q0.145 0.450 0.095 0.390" stroke="hsl(0.0,100%,35%)" stroke-width="0.00229"></path>
<path d="M0.039 0.487 Q0.283 0.527 0.414 0.416" stroke="hsl(0.0,100%,35%)" stroke-width="0.00021"></path>
<path d="M0.039 0.487 Q0.771 0.790 1.524 0.500" stroke="hsl(0.0,100%,35%)" stroke-width="0.00042"></path>
<path d="M0.039 0.487 Q0.378 0.628 0.728 0.494" stroke="hsl(0.0,100%,35%)" stroke-width="0.00021"></path>
<path d="M0.039 0.487 Q0.468 0.904 1.374 0.786" stroke="hsl(0.0,100%,35%)" stroke-width="0.00021"></path>
</g>
<text x="0.476" y="0.571" font-size="0.009215" fill="hsl(0.0,100%,20%)">albin.bernhardsson</text>
<text x="0.414" y="0.383" font-size="0.066279" fill="hsl(0.0,100%,20%)">cwallez</text>
<text x="0.095" y="0.352" font-size="0.075876" fill="hsl(0.0,100%,20%)">enga</text>
<text x="1.392" y="0.859" font-size="0.070138" fill="hsl(180.0,100%,20%)">dsinclair</text>
<text x="0.728" y="0.481" font-size="0.026601" fill="hsl(0.0,100%,20%)">kainino</text>
<text x="1.524" y="0.482" font-size="0.035450" fill="hsl(180.0,100%,20%)">amaiorano</text>
<text x="1.374" y="0.740" font-size="0.091377" fill="hsl(180.0,100%,20%)">bclayton</text>
<text x="1.241" y="0.614" font-size="0.066534" fill="hsl(180.0,100%,20%)">jrprice</text>
<text x="1.624" y="0.688" font-size="0.023911" fill="hsl(180.0,100%,20%)">dneto</text>
<text x="0.150" y="0.505" font-size="0.013873" fill="hsl(180.0,100%,20%)">rharrison</text>
<text x="1.604" y="0.677" font-size="0.004759" fill="hsl(0.0,100%,20%)">andre</text>
<text x="0.636" y="0.447" font-size="0.014276" fill="hsl(0.0,100%,20%)">arthursonzogni</text>
<text x="0.704" y="0.071" font-size="0.002379" fill="hsl(0.0,100%,20%)">khaslett</text>
<text x="0.848" y="0.280" font-size="0.006730" fill="hsl(0.0,100%,20%)">austineng</text>
<text x="0.429" y="0.563" font-size="0.023673" fill="hsl(0.0,100%,20%)">shrekshao</text>
<text x="0.202" y="0.271" font-size="0.045766" fill="hsl(0.0,100%,20%)">lokokung</text>
<text x="0.715" y="-0.197" font-size="0.004759" fill="hsl(0.0,100%,20%)">avi</text>
<text x="0.884" y="0.367" font-size="0.020605" fill="hsl(0.0,100%,20%)">bajones</text>
<text x="1.492" y="-0.407" font-size="0.003365" fill="hsl(0.0,100%,20%)">brucedawson</text>
<text x="0.254" y="0.531" font-size="0.025067" fill="hsl(0.0,100%,20%)">senorblanco</text>
<text x="1.469" y="0.514" font-size="0.002379" fill="hsl(180.0,100%,20%)">kjlubick</text>
<text x="0.209" y="0.454" font-size="0.035926" fill="hsl(0.0,100%,20%)">jiawei.shao</text>
<text x="0.551" y="0.519" font-size="0.014667" fill="hsl(0.0,100%,20%)">beaufort.francois</text>
<text x="0.660" y="0.430" font-size="0.012363" fill="hsl(0.0,100%,20%)">blundell</text>
<text x="1.321" y="0.556" font-size="0.010903" fill="hsl(180.0,100%,20%)">brandon1.jones</text>
<text x="0.096" y="0.631" font-size="0.011160" fill="hsl(0.0,100%,20%)">bsheedy</text>
<text x="0.163" y="0.657" font-size="0.003365" fill="hsl(0.0,100%,20%)">gbeaty</text>
<text x="0.553" y="0.341" font-size="0.002379" fill="hsl(0.0,100%,20%)">fhorschig</text>
<text x="0.470" y="0.152" font-size="0.002379" fill="hsl(0.0,100%,20%)">jamesgk</text>
<text x="0.479" y="0.690" font-size="0.031294" fill="hsl(0.0,100%,20%)">penghuang</text>
<text x="0.217" y="0.574" font-size="0.017157" fill="hsl(0.0,100%,20%)">lehoangquyen</text>
<text x="0.866" y="0.229" font-size="0.002379" fill="hsl(0.0,100%,20%)">fbeaufort</text>
<text x="0.309" y="0.471" font-size="0.006295" fill="hsl(0.0,100%,20%)">yunchao.he</text>
<text x="1.181" y="-0.925" font-size="0.004121" fill="hsl(0.0,100%,20%)">danakj</text>
<text x="1.677" y="0.789" font-size="0.004121" fill="hsl(180.0,100%,20%)">alanbaker</text>
<text x="0.235" y="0.624" font-size="0.018430" fill="hsl(0.0,100%,20%)">gman</text>
<text x="0.498" y="0.235" font-size="0.006295" fill="hsl(0.0,100%,20%)">elie.michel.fr</text>
<text x="0.566" y="0.582" font-size="0.024264" fill="hsl(0.0,100%,20%)">jie.a.chen</text>
<text x="0.066" y="0.479" font-size="0.004121" fill="hsl(0.0,100%,20%)">toji</text>
<text x="0.121" y="0.551" font-size="0.012363" fill="hsl(0.0,100%,20%)">tiszka</text>
<text x="0.149" y="0.556" font-size="0.013032" fill="hsl(0.0,100%,20%)">hao.x.li</text>
<text x="0.565" y="0.474" font-size="0.007524" fill="hsl(0.0,100%,20%)">hitawala</text>
<text x="0.094" y="0.448" font-size="0.009810" fill="hsl(0.0,100%,20%)">sunnyps</text>
<text x="1.453" y="0.550" font-size="0.007891" fill="hsl(180.0,100%,20%)">jason.erb</text>
<text x="0.416" y="0.221" font-size="0.004121" fill="hsl(0.0,100%,20%)">jianlin.qiu</text>
<text x="0.384" y="0.482" font-size="0.012590" fill="hsl(0.0,100%,20%)">zhaoming.jiang</text>
<text x="0.068" y="0.625" font-size="0.003365" fill="hsl(0.0,100%,20%)">rafael.cintron</text>
<text x="0.964" y="0.455" font-size="0.006730" fill="hsl(180.0,100%,20%)">jojwang</text>
<text x="0.997" y="0.582" font-size="0.002379" fill="hsl(180.0,100%,20%)">johnstiles</text>
<text x="0.141" y="0.177" font-size="0.002379" fill="hsl(0.0,100%,20%)">kbr</text>
<text x="0.635" y="0.399" font-size="0.010640" fill="hsl(0.0,100%,20%)">shaobo.yan</text>
<text x="0.311" y="0.591" font-size="0.004759" fill="hsl(180.0,100%,20%)">stha09</text>
<text x="0.085" y="0.461" font-size="0.006295" fill="hsl(0.0,100%,20%)">vollick</text>
<text x="0.039" y="0.482" font-size="0.009810" fill="hsl(0.0,100%,20%)">ynovikov</text>
</svg>
