<svg width="4000" height="2000" viewBox="-0.025 -0.025 2.05 1.05" xmlns="http://www.w3.org/2000/svg">
  <style>
    path {
      fill: none;
      stroke-linecap: round;
      stroke-opacity: 0.4;
    }

    text {
      text-anchor: middle;
      alignment-baseline: hanging;
    }
  </style>
  <g opacity="0.4">
<path d="M0.768 0.817 Q0.756 0.702 0.530 0.682" stroke="hsl(0.0,100%,35%)" stroke-width="0.00697"></path>
<path d="M0.768 0.817 Q1.079 0.891 1.293 0.755" stroke="hsl(0.0,100%,35%)" stroke-width="0.00523"></path>
<path d="M0.768 0.817 Q1.062 0.450 0.411 0.225" stroke="hsl(0.0,100%,35%)" stroke-width="0.00348"></path>
<path d="M0.768 0.817 Q1.285 0.544 0.867 0.232" stroke="hsl(0.0,100%,35%)" stroke-width="0.00174"></path>
<path d="M0.530 0.682 Q0.542 0.797 0.768 0.817" stroke="hsl(0.0,100%,35%)" stroke-width="0.01742"></path>
<path d="M0.530 0.682 Q0.836 0.430 0.411 0.225" stroke="hsl(0.0,100%,35%)" stroke-width="0.01742"></path>
<path d="M0.530 0.682 Q1.059 0.525 0.867 0.232" stroke="hsl(0.0,100%,35%)" stroke-width="0.01917"></path>
<path d="M0.530 0.682 Q1.084 0.593 1.032 0.304" stroke="hsl(0.0,100%,35%)" stroke-width="0.01220"></path>
<path d="M0.530 0.682 Q0.478 0.566 0.240 0.566" stroke="hsl(0.0,100%,35%)" stroke-width="0.02962"></path>
<path d="M0.530 0.682 Q1.142 0.748 1.405 0.465" stroke="hsl(0.0,100%,35%)" stroke-width="0.00174"></path>
<path d="M0.530 0.682 Q1.015 0.458 0.683 0.172" stroke="hsl(0.0,100%,35%)" stroke-width="0.00174"></path>
<path d="M1.293 0.755 Q1.461 0.711 1.411 0.619" stroke="hsl(180.0,100%,35%)" stroke-width="0.01568"></path>
<path d="M1.293 0.755 Q1.582 0.632 1.405 0.465" stroke="hsl(180.0,100%,35%)" stroke-width="0.00174"></path>
<path d="M1.293 0.755 Q1.276 0.314 0.411 0.225" stroke="hsl(180.0,100%,35%)" stroke-width="0.00348"></path>
<path d="M1.293 0.755 Q0.849 0.706 0.656 0.912" stroke="hsl(180.0,100%,35%)" stroke-width="0.00174"></path>
<path d="M0.411 0.225 Q0.105 0.478 0.530 0.682" stroke="hsl(180.0,100%,35%)" stroke-width="0.01568"></path>
<path d="M0.411 0.225 Q0.053 0.361 0.240 0.566" stroke="hsl(180.0,100%,35%)" stroke-width="0.00174"></path>
<path d="M0.411 0.225 Q0.596 0.622 1.411 0.619" stroke="hsl(180.0,100%,35%)" stroke-width="0.00871"></path>
<path d="M0.411 0.225 Q0.428 0.667 1.293 0.755" stroke="hsl(180.0,100%,35%)" stroke-width="0.01045"></path>
<path d="M0.411 0.225 Q-0.075 0.454 0.264 0.741" stroke="hsl(180.0,100%,35%)" stroke-width="0.00174"></path>
<path d="M0.411 0.225 Q0.422 0.377 0.720 0.405" stroke="hsl(180.0,100%,35%)" stroke-width="0.00174"></path>
<path d="M0.411 0.225 Q0.590 0.253 0.683 0.172" stroke="hsl(180.0,100%,35%)" stroke-width="0.00174"></path>
<path d="M0.411 0.225 Q0.717 0.544 1.405 0.465" stroke="hsl(180.0,100%,35%)" stroke-width="0.00174"></path>
<path d="M0.867 0.232 Q0.338 0.390 0.530 0.682" stroke="hsl(0.0,100%,35%)" stroke-width="0.01220"></path>
<path d="M0.867 0.232 Q0.892 0.301 1.032 0.304" stroke="hsl(0.0,100%,35%)" stroke-width="0.00697"></path>
<path d="M0.867 0.232 Q0.350 0.504 0.768 0.817" stroke="hsl(0.0,100%,35%)" stroke-width="0.00174"></path>
<path d="M0.867 0.232 Q0.286 0.273 0.240 0.566" stroke="hsl(0.0,100%,35%)" stroke-width="0.00174"></path>
<path d="M0.683 0.172 Q0.504 0.144 0.411 0.225" stroke="hsl(180.0,100%,35%)" stroke-width="0.03311"></path>
<path d="M0.683 0.172 Q0.521 0.586 1.293 0.755" stroke="hsl(180.0,100%,35%)" stroke-width="0.00348"></path>
<path d="M0.683 0.172 Q0.753 0.108 0.644 0.060" stroke="hsl(180.0,100%,35%)" stroke-width="0.00174"></path>
<path d="M0.683 0.172 Q0.198 0.397 0.530 0.682" stroke="hsl(180.0,100%,35%)" stroke-width="0.00348"></path>
<path d="M0.240 0.566 Q0.292 0.682 0.530 0.682" stroke="hsl(0.0,100%,35%)" stroke-width="0.02265"></path>
<path d="M0.240 0.566 Q0.303 0.797 0.768 0.817" stroke="hsl(0.0,100%,35%)" stroke-width="0.00174"></path>
<path d="M0.240 0.566 Q0.112 0.658 0.264 0.741" stroke="hsl(0.0,100%,35%)" stroke-width="0.00523"></path>
<path d="M0.240 0.566 Q0.171 0.822 0.656 0.912" stroke="hsl(0.0,100%,35%)" stroke-width="0.00174"></path>
<path d="M0.240 0.566 Q0.767 0.642 1.031 0.401" stroke="hsl(0.0,100%,35%)" stroke-width="0.00174"></path>
<path d="M0.240 0.566 Q0.821 0.524 0.867 0.232" stroke="hsl(0.0,100%,35%)" stroke-width="0.00174"></path>
<path d="M1.405 0.465 Q1.099 0.146 0.411 0.225" stroke="hsl(180.0,100%,35%)" stroke-width="0.00523"></path>
<path d="M1.405 0.465 Q1.285 0.543 1.411 0.619" stroke="hsl(180.0,100%,35%)" stroke-width="0.01220"></path>
<path d="M1.405 0.465 Q1.116 0.588 1.293 0.755" stroke="hsl(180.0,100%,35%)" stroke-width="0.00174"></path>
<path d="M1.411 0.619 Q1.243 0.664 1.293 0.755" stroke="hsl(180.0,100%,35%)" stroke-width="0.01045"></path>
<path d="M1.411 0.619 Q1.532 0.541 1.405 0.465" stroke="hsl(180.0,100%,35%)" stroke-width="0.01045"></path>
<path d="M1.411 0.619 Q1.226 0.222 0.411 0.225" stroke="hsl(180.0,100%,35%)" stroke-width="0.00348"></path>
<path d="M0.264 0.741 Q0.444 0.765 0.530 0.682" stroke="hsl(0.0,100%,35%)" stroke-width="0.00348"></path>
<path d="M0.264 0.741 Q0.767 0.954 1.293 0.755" stroke="hsl(0.0,100%,35%)" stroke-width="0.00174"></path>
<path d="M0.264 0.741 Q0.392 0.648 0.240 0.566" stroke="hsl(0.0,100%,35%)" stroke-width="0.00523"></path>
<path d="M0.656 0.912 Q1.099 0.961 1.293 0.755" stroke="hsl(0.0,100%,35%)" stroke-width="0.00348"></path>
<path d="M0.656 0.912 Q0.597 0.748 0.264 0.741" stroke="hsl(0.0,100%,35%)" stroke-width="0.00523"></path>
<path d="M0.656 0.912 Q0.724 0.656 0.240 0.566" stroke="hsl(0.0,100%,35%)" stroke-width="0.00174"></path>
<path d="M1.031 0.401 Q0.556 0.442 0.530 0.682" stroke="hsl(180.0,100%,35%)" stroke-width="0.00174"></path>
<path d="M1.031 0.401 Q1.047 0.586 1.411 0.619" stroke="hsl(180.0,100%,35%)" stroke-width="0.00174"></path>
<path d="M1.031 0.401 Q0.862 0.189 0.411 0.225" stroke="hsl(180.0,100%,35%)" stroke-width="0.00174"></path>
<path d="M1.031 0.401 Q0.998 0.326 0.844 0.326" stroke="hsl(180.0,100%,35%)" stroke-width="0.00174"></path>
<path d="M0.579 0.365 Q0.607 0.262 0.411 0.225" stroke="hsl(180.0,100%,35%)" stroke-width="0.02962"></path>
<path d="M0.579 0.365 Q0.624 0.703 1.293 0.755" stroke="hsl(180.0,100%,35%)" stroke-width="0.02439"></path>
<path d="M0.579 0.365 Q0.301 0.514 0.530 0.682" stroke="hsl(180.0,100%,35%)" stroke-width="0.01394"></path>
<path d="M0.579 0.365 Q0.792 0.659 1.411 0.619" stroke="hsl(180.0,100%,35%)" stroke-width="0.00174"></path>
<path d="M0.579 0.365 Q0.830 0.356 0.867 0.232" stroke="hsl(180.0,100%,35%)" stroke-width="0.00174"></path>
<path d="M0.340 0.329 Q0.515 0.626 1.133 0.606" stroke="hsl(180.0,100%,35%)" stroke-width="0.00174"></path>
<path d="M0.340 0.329 Q0.458 0.291 0.411 0.225" stroke="hsl(180.0,100%,35%)" stroke-width="0.00174"></path>
<path d="M0.340 0.329 Q0.475 0.733 1.293 0.755" stroke="hsl(180.0,100%,35%)" stroke-width="0.00174"></path>
<path d="M1.133 0.606 Q1.093 0.713 1.293 0.755" stroke="hsl(180.0,100%,35%)" stroke-width="0.01045"></path>
<path d="M1.133 0.606 Q1.076 0.271 0.411 0.225" stroke="hsl(180.0,100%,35%)" stroke-width="0.00871"></path>
<path d="M1.133 0.606 Q0.770 0.524 0.530 0.682" stroke="hsl(180.0,100%,35%)" stroke-width="0.00174"></path>
<path d="M1.909 0.630 Q1.484 0.128 0.411 0.225" stroke="hsl(180.0,100%,35%)" stroke-width="0.00174"></path>
<path d="M1.909 0.630 Q1.501 0.569 1.293 0.755" stroke="hsl(180.0,100%,35%)" stroke-width="0.00348"></path>
<path d="M1.909 0.630 Q1.667 0.596 1.547 0.706" stroke="hsl(180.0,100%,35%)" stroke-width="0.00174"></path>
</g>
<text x="0.768" y="0.796" font-size="0.040902" fill="hsl(0.0,100%,20%)">amaiorano</text>
<text x="0.530" y="0.638" font-size="0.088931" fill="hsl(0.0,100%,20%)">bclayton</text>
<text x="1.293" y="0.723" font-size="0.065838" fill="hsl(180.0,100%,20%)">enga</text>
<text x="0.411" y="0.184" font-size="0.081805" fill="hsl(180.0,100%,20%)">cwallez</text>
<text x="0.867" y="0.209" font-size="0.045313" fill="hsl(0.0,100%,20%)">jrprice</text>
<text x="0.683" y="0.150" font-size="0.044466" fill="hsl(180.0,100%,20%)">arthursonzogni</text>
<text x="0.644" y="0.056" font-size="0.008720" fill="hsl(180.0,100%,20%)">khaslett</text>
<text x="1.032" y="0.289" font-size="0.028922" fill="hsl(0.0,100%,20%)">dneto</text>
<text x="0.240" y="0.537" font-size="0.057184" fill="hsl(0.0,100%,20%)">dsinclair</text>
<text x="1.405" y="0.445" font-size="0.038999" fill="hsl(180.0,100%,20%)">kainino</text>
<text x="1.411" y="0.592" font-size="0.053044" fill="hsl(180.0,100%,20%)">lokokung</text>
<text x="0.264" y="0.725" font-size="0.031442" fill="hsl(0.0,100%,20%)">senorblanco</text>
<text x="0.720" y="0.401" font-size="0.008720" fill="hsl(180.0,100%,20%)">fhorschig</text>
<text x="0.656" y="0.899" font-size="0.024665" fill="hsl(0.0,100%,20%)">shrekshao</text>
<text x="1.031" y="0.392" font-size="0.019499" fill="hsl(180.0,100%,20%)">gman</text>
<text x="0.844" y="0.322" font-size="0.008720" fill="hsl(180.0,100%,20%)">bajones</text>
<text x="0.579" y="0.338" font-size="0.055838" fill="hsl(180.0,100%,20%)">jiawei.shao</text>
<text x="0.340" y="0.321" font-size="0.015104" fill="hsl(180.0,100%,20%)">jie.a.chen</text>
<text x="1.133" y="0.590" font-size="0.031442" fill="hsl(180.0,100%,20%)">penghuang</text>
<text x="1.909" y="0.621" font-size="0.017441" fill="hsl(180.0,100%,20%)">shaobo.yan</text>
<text x="1.547" y="0.702" font-size="0.008720" fill="hsl(180.0,100%,20%)">sunnyps</text>
</svg>
