<svg width="4000" height="2000" viewBox="-0.025 -0.025 2.05 1.05" xmlns="http://www.w3.org/2000/svg">
  <style>
    path {
      fill: none;
      stroke-linecap: round;
      stroke-opacity: 0.4;
    }

    text {
      text-anchor: middle;
      alignment-baseline: hanging;
    }
  </style>
  <g opacity="0.4">
<path d="M0.397 0.790 Q0.535 0.729 0.446 0.649" stroke="hsl(0.0,100%,35%)" stroke-width="0.00105"></path>
<path d="M0.397 0.790 Q1.399 0.799 1.635 0.312" stroke="hsl(0.0,100%,35%)" stroke-width="0.00042"></path>
<path d="M0.397 0.790 Q0.931 0.745 0.959 0.475" stroke="hsl(0.0,100%,35%)" stroke-width="0.00042"></path>
<path d="M0.397 0.790 Q0.788 1.029 1.340 0.891" stroke="hsl(0.0,100%,35%)" stroke-width="0.00063"></path>
<path d="M0.446 0.649 Q1.327 0.854 1.922 0.470" stroke="hsl(0.0,100%,35%)" stroke-width="0.00881"></path>
<path d="M0.446 0.649 Q0.699 0.949 1.340 0.891" stroke="hsl(0.0,100%,35%)" stroke-width="0.02202"></path>
<path d="M0.446 0.649 Q0.497 0.761 0.727 0.761" stroke="hsl(0.0,100%,35%)" stroke-width="0.01007"></path>
<path d="M0.446 0.649 Q0.842 0.665 0.959 0.475" stroke="hsl(0.0,100%,35%)" stroke-width="0.00126"></path>
<path d="M0.446 0.649 Q0.472 0.916 1.000 0.962" stroke="hsl(0.0,100%,35%)" stroke-width="0.00021"></path>
<path d="M0.446 0.649 Q0.654 0.871 1.133 0.818" stroke="hsl(0.0,100%,35%)" stroke-width="0.00042"></path>
<path d="M0.446 0.649 Q0.985 0.754 1.308 0.515" stroke="hsl(0.0,100%,35%)" stroke-width="0.00189"></path>
<path d="M0.446 0.649 Q0.887 0.913 1.499 0.756" stroke="hsl(0.0,100%,35%)" stroke-width="0.00021"></path>
<path d="M0.446 0.649 Q1.255 0.915 1.951 0.578" stroke="hsl(0.0,100%,35%)" stroke-width="0.00042"></path>
<path d="M0.446 0.649 Q0.773 0.826 1.189 0.705" stroke="hsl(0.0,100%,35%)" stroke-width="0.00021"></path>
<path d="M0.446 0.649 Q0.848 1.004 1.629 0.886" stroke="hsl(0.0,100%,35%)" stroke-width="0.00063"></path>
<path d="M0.446 0.649 Q0.238 0.656 0.206 0.759" stroke="hsl(0.0,100%,35%)" stroke-width="0.00021"></path>
<path d="M0.446 0.649 Q1.310 0.718 1.635 0.312" stroke="hsl(0.0,100%,35%)" stroke-width="0.00042"></path>
<path d="M0.446 0.649 Q0.148 0.798 0.373 0.976" stroke="hsl(0.0,100%,35%)" stroke-width="0.00021"></path>
<path d="M0.446 0.649 Q0.303 0.751 0.471 0.843" stroke="hsl(0.0,100%,35%)" stroke-width="0.00021"></path>
<path d="M1.635 0.312 Q1.652 0.448 1.922 0.470" stroke="hsl(180.0,100%,35%)" stroke-width="0.06501"></path>
<path d="M1.635 0.312 Q1.462 0.315 1.430 0.400" stroke="hsl(180.0,100%,35%)" stroke-width="0.02349"></path>
<path d="M1.635 0.312 Q1.092 0.080 0.521 0.294" stroke="hsl(180.0,100%,35%)" stroke-width="0.00084"></path>
<path d="M1.635 0.312 Q0.771 0.242 0.446 0.649" stroke="hsl(180.0,100%,35%)" stroke-width="0.00273"></path>
<path d="M1.635 0.312 Q1.580 0.508 1.951 0.578" stroke="hsl(180.0,100%,35%)" stroke-width="0.00231"></path>
<path d="M1.635 0.312 Q1.402 0.519 1.756 0.678" stroke="hsl(180.0,100%,35%)" stroke-width="0.00063"></path>
<path d="M1.635 0.312 Q1.167 0.258 0.959 0.475" stroke="hsl(180.0,100%,35%)" stroke-width="0.00042"></path>
<path d="M1.635 0.312 Q1.024 0.542 1.340 0.891" stroke="hsl(180.0,100%,35%)" stroke-width="0.00084"></path>
<path d="M1.635 0.312 Q1.098 0.419 1.189 0.705" stroke="hsl(180.0,100%,35%)" stroke-width="0.00021"></path>
<path d="M0.959 0.475 Q0.817 0.759 1.340 0.891" stroke="hsl(0.0,100%,35%)" stroke-width="0.00273"></path>
<path d="M0.959 0.475 Q1.102 0.565 1.308 0.515" stroke="hsl(0.0,100%,35%)" stroke-width="0.00021"></path>
<path d="M0.959 0.475 Q0.614 0.572 0.727 0.761" stroke="hsl(0.0,100%,35%)" stroke-width="0.00231"></path>
<path d="M0.959 0.475 Q1.195 0.736 1.756 0.678" stroke="hsl(0.0,100%,35%)" stroke-width="0.00021"></path>
<path d="M0.959 0.475 Q1.104 0.704 1.583 0.684" stroke="hsl(0.0,100%,35%)" stroke-width="0.00021"></path>
<path d="M0.959 0.475 Q0.563 0.459 0.446 0.649" stroke="hsl(0.0,100%,35%)" stroke-width="0.00210"></path>
<path d="M0.959 0.475 Q1.004 0.724 1.499 0.756" stroke="hsl(0.0,100%,35%)" stroke-width="0.00021"></path>
<path d="M0.959 0.475 Q0.740 0.453 0.650 0.555" stroke="hsl(0.0,100%,35%)" stroke-width="0.00021"></path>
<path d="M0.959 0.475 Q1.445 0.665 1.922 0.470" stroke="hsl(0.0,100%,35%)" stroke-width="0.00021"></path>
<path d="M1.340 0.891 Q1.717 0.868 1.756 0.678" stroke="hsl(0.0,100%,35%)" stroke-width="0.00105"></path>
<path d="M1.340 0.891 Q1.137 0.704 0.727 0.761" stroke="hsl(0.0,100%,35%)" stroke-width="0.01761"></path>
<path d="M1.340 0.891 Q1.413 0.768 1.189 0.705" stroke="hsl(0.0,100%,35%)" stroke-width="0.00126"></path>
<path d="M1.340 0.891 Q1.482 0.607 0.959 0.475" stroke="hsl(0.0,100%,35%)" stroke-width="0.00482"></path>
<path d="M1.340 0.891 Q1.777 0.664 1.430 0.400" stroke="hsl(0.0,100%,35%)" stroke-width="0.00084"></path>
<path d="M1.340 0.891 Q1.086 0.591 0.446 0.649" stroke="hsl(0.0,100%,35%)" stroke-width="0.00986"></path>
<path d="M1.340 0.891 Q1.627 0.836 1.583 0.684" stroke="hsl(0.0,100%,35%)" stroke-width="0.00042"></path>
<path d="M1.340 0.891 Q1.625 0.696 1.308 0.515" stroke="hsl(0.0,100%,35%)" stroke-width="0.00147"></path>
<path d="M1.340 0.891 Q1.968 0.797 1.922 0.470" stroke="hsl(0.0,100%,35%)" stroke-width="0.00356"></path>
<path d="M1.340 0.891 Q1.527 0.855 1.499 0.756" stroke="hsl(0.0,100%,35%)" stroke-width="0.00168"></path>
<path d="M1.340 0.891 Q1.488 0.946 1.629 0.886" stroke="hsl(0.0,100%,35%)" stroke-width="0.00063"></path>
<path d="M1.340 0.891 Q1.295 0.813 1.133 0.818" stroke="hsl(0.0,100%,35%)" stroke-width="0.00063"></path>
<path d="M1.340 0.891 Q1.895 0.857 1.951 0.578" stroke="hsl(0.0,100%,35%)" stroke-width="0.00126"></path>
<path d="M1.340 0.891 Q1.289 0.929 1.353 0.962" stroke="hsl(0.0,100%,35%)" stroke-width="0.00063"></path>
<path d="M1.340 0.891 Q1.293 0.773 1.053 0.770" stroke="hsl(0.0,100%,35%)" stroke-width="0.00021"></path>
<path d="M1.340 0.891 Q1.951 0.660 1.635 0.312" stroke="hsl(0.0,100%,35%)" stroke-width="0.00084"></path>
<path d="M1.340 0.891 Q1.573 0.782 1.413 0.644" stroke="hsl(0.0,100%,35%)" stroke-width="0.00021"></path>
<path d="M1.340 0.891 Q1.329 0.959 1.460 0.979" stroke="hsl(0.0,100%,35%)" stroke-width="0.00063"></path>
<path d="M1.340 0.891 Q1.571 0.876 1.593 0.760" stroke="hsl(0.0,100%,35%)" stroke-width="0.00021"></path>
<path d="M1.340 0.891 Q1.120 0.883 1.055 0.988" stroke="hsl(0.0,100%,35%)" stroke-width="0.00021"></path>
<path d="M1.340 0.891 Q1.263 0.585 0.650 0.555" stroke="hsl(0.0,100%,35%)" stroke-width="0.00021"></path>
<path d="M1.951 0.578 Q1.395 0.612 1.340 0.891" stroke="hsl(180.0,100%,35%)" stroke-width="0.00608"></path>
<path d="M1.951 0.578 Q2.023 0.518 1.922 0.470" stroke="hsl(180.0,100%,35%)" stroke-width="0.00923"></path>
<path d="M1.951 0.578 Q1.142 0.313 0.446 0.649" stroke="hsl(180.0,100%,35%)" stroke-width="0.00168"></path>
<path d="M1.951 0.578 Q2.006 0.382 1.635 0.312" stroke="hsl(180.0,100%,35%)" stroke-width="0.00231"></path>
<path d="M1.951 0.578 Q1.833 0.385 1.430 0.400" stroke="hsl(180.0,100%,35%)" stroke-width="0.00126"></path>
<path d="M1.951 0.578 Q1.463 0.150 0.521 0.294" stroke="hsl(180.0,100%,35%)" stroke-width="0.00063"></path>
<path d="M1.951 0.578 Q1.773 0.589 1.756 0.678" stroke="hsl(180.0,100%,35%)" stroke-width="0.00021"></path>
<path d="M1.951 0.578 Q1.538 0.328 0.959 0.475" stroke="hsl(180.0,100%,35%)" stroke-width="0.00042"></path>
<path d="M1.922 0.470 Q1.905 0.333 1.635 0.312" stroke="hsl(180.0,100%,35%)" stroke-width="0.06627"></path>
<path d="M1.922 0.470 Q1.731 0.337 1.430 0.400" stroke="hsl(180.0,100%,35%)" stroke-width="0.05242"></path>
<path d="M1.922 0.470 Q1.294 0.564 1.340 0.891" stroke="hsl(180.0,100%,35%)" stroke-width="0.00629"></path>
<path d="M1.922 0.470 Q1.849 0.530 1.951 0.578" stroke="hsl(180.0,100%,35%)" stroke-width="0.01489"></path>
<path d="M1.922 0.470 Q1.672 0.541 1.756 0.678" stroke="hsl(180.0,100%,35%)" stroke-width="0.00084"></path>
<path d="M1.922 0.470 Q1.040 0.264 0.446 0.649" stroke="hsl(180.0,100%,35%)" stroke-width="0.01195"></path>
<path d="M1.922 0.470 Q1.217 0.258 0.650 0.555" stroke="hsl(180.0,100%,35%)" stroke-width="0.00021"></path>
<path d="M1.922 0.470 Q1.367 0.441 1.189 0.705" stroke="hsl(180.0,100%,35%)" stroke-width="0.00105"></path>
<path d="M1.922 0.470 Q1.362 0.102 0.521 0.294" stroke="hsl(180.0,100%,35%)" stroke-width="0.00105"></path>
<path d="M1.922 0.470 Q1.952 0.473 1.964 0.459" stroke="hsl(180.0,100%,35%)" stroke-width="0.00021"></path>
<path d="M1.922 0.470 Q1.579 0.369 1.308 0.515" stroke="hsl(180.0,100%,35%)" stroke-width="0.00021"></path>
<path d="M1.922 0.470 Q1.436 0.280 0.959 0.475" stroke="hsl(180.0,100%,35%)" stroke-width="0.00021"></path>
<path d="M1.922 0.470 Q1.528 0.455 1.413 0.644" stroke="hsl(180.0,100%,35%)" stroke-width="0.00021"></path>
<path d="M1.430 0.400 Q1.621 0.533 1.922 0.470" stroke="hsl(180.0,100%,35%)" stroke-width="0.05159"></path>
<path d="M1.430 0.400 Q0.991 0.224 0.550 0.400" stroke="hsl(180.0,100%,35%)" stroke-width="0.00021"></path>
<path d="M1.430 0.400 Q1.604 0.397 1.635 0.312" stroke="hsl(180.0,100%,35%)" stroke-width="0.02286"></path>
<path d="M1.430 0.400 Q1.060 0.165 0.521 0.294" stroke="hsl(180.0,100%,35%)" stroke-width="0.00587"></path>
<path d="M1.430 0.400 Q0.993 0.627 1.340 0.891" stroke="hsl(180.0,100%,35%)" stroke-width="0.00147"></path>
<path d="M1.430 0.400 Q1.426 0.474 1.567 0.492" stroke="hsl(180.0,100%,35%)" stroke-width="0.00021"></path>
<path d="M1.430 0.400 Q0.739 0.328 0.446 0.649" stroke="hsl(180.0,100%,35%)" stroke-width="0.00105"></path>
<path d="M1.430 0.400 Q1.548 0.593 1.951 0.578" stroke="hsl(180.0,100%,35%)" stroke-width="0.00084"></path>
<path d="M1.430 0.400 Q0.942 0.665 1.353 0.962" stroke="hsl(180.0,100%,35%)" stroke-width="0.00021"></path>
<path d="M1.430 0.400 Q1.278 0.433 1.308 0.515" stroke="hsl(180.0,100%,35%)" stroke-width="0.00063"></path>
<path d="M0.521 0.294 Q1.081 0.662 1.922 0.470" stroke="hsl(180.0,100%,35%)" stroke-width="0.00356"></path>
<path d="M0.521 0.294 Q0.199 0.457 0.446 0.649" stroke="hsl(180.0,100%,35%)" stroke-width="0.00042"></path>
<path d="M0.521 0.294 Q0.891 0.529 1.430 0.400" stroke="hsl(180.0,100%,35%)" stroke-width="0.00210"></path>
<path d="M0.521 0.294 Q0.595 0.472 0.959 0.475" stroke="hsl(180.0,100%,35%)" stroke-width="0.00021"></path>
<path d="M0.521 0.294 Q0.738 0.562 1.308 0.515" stroke="hsl(180.0,100%,35%)" stroke-width="0.00021"></path>
<path d="M0.521 0.294 Q1.064 0.526 1.635 0.312" stroke="hsl(180.0,100%,35%)" stroke-width="0.00084"></path>
<path d="M0.521 0.294 Q0.453 0.756 1.340 0.891" stroke="hsl(180.0,100%,35%)" stroke-width="0.00021"></path>
<path d="M0.521 0.294 Q0.451 0.353 0.550 0.400" stroke="hsl(180.0,100%,35%)" stroke-width="0.00042"></path>
<path d="M0.521 0.294 Q1.009 0.722 1.951 0.578" stroke="hsl(180.0,100%,35%)" stroke-width="0.00021"></path>
<path d="M1.756 0.678 Q2.006 0.607 1.922 0.470" stroke="hsl(180.0,100%,35%)" stroke-width="0.00063"></path>
<path d="M1.756 0.678 Q1.378 0.701 1.340 0.891" stroke="hsl(180.0,100%,35%)" stroke-width="0.00105"></path>
<path d="M1.756 0.678 Q1.933 0.667 1.951 0.578" stroke="hsl(180.0,100%,35%)" stroke-width="0.00021"></path>
<path d="M1.756 0.678 Q1.989 0.471 1.635 0.312" stroke="hsl(180.0,100%,35%)" stroke-width="0.00126"></path>
<path d="M1.756 0.678 Q1.816 0.474 1.430 0.400" stroke="hsl(180.0,100%,35%)" stroke-width="0.00021"></path>
<path d="M0.319 0.862 Q0.553 0.781 0.446 0.649" stroke="hsl(0.0,100%,35%)" stroke-width="0.00042"></path>
<path d="M0.319 0.862 Q1.434 0.986 1.922 0.470" stroke="hsl(0.0,100%,35%)" stroke-width="0.00042"></path>
<path d="M0.761 0.321 Q0.341 0.422 0.446 0.649" stroke="hsl(0.0,100%,35%)" stroke-width="0.00042"></path>
<path d="M0.761 0.321 Q0.737 0.437 0.959 0.475" stroke="hsl(0.0,100%,35%)" stroke-width="0.00042"></path>
<path d="M0.761 0.321 Q0.782 0.686 1.499 0.756" stroke="hsl(0.0,100%,35%)" stroke-width="0.00021"></path>
<path d="M0.761 0.321 Q0.392 0.534 0.727 0.761" stroke="hsl(0.0,100%,35%)" stroke-width="0.00021"></path>
<path d="M0.761 0.321 Q1.222 0.627 1.922 0.470" stroke="hsl(0.0,100%,35%)" stroke-width="0.00021"></path>
<path d="M0.761 0.321 Q0.594 0.721 1.340 0.891" stroke="hsl(0.0,100%,35%)" stroke-width="0.00021"></path>
<path d="M1.499 0.756 Q1.940 0.697 1.922 0.470" stroke="hsl(0.0,100%,35%)" stroke-width="0.00105"></path>
<path d="M1.499 0.756 Q1.385 0.669 1.189 0.705" stroke="hsl(0.0,100%,35%)" stroke-width="0.00294"></path>
<path d="M1.499 0.756 Q1.312 0.791 1.340 0.891" stroke="hsl(0.0,100%,35%)" stroke-width="0.00734"></path>
<path d="M1.499 0.756 Q1.109 0.604 0.727 0.761" stroke="hsl(0.0,100%,35%)" stroke-width="0.00126"></path>
<path d="M1.499 0.756 Q1.454 0.508 0.959 0.475" stroke="hsl(0.0,100%,35%)" stroke-width="0.00042"></path>
<path d="M1.499 0.756 Q1.923 0.561 1.635 0.312" stroke="hsl(0.0,100%,35%)" stroke-width="0.00042"></path>
<path d="M1.499 0.756 Q1.058 0.492 0.446 0.649" stroke="hsl(0.0,100%,35%)" stroke-width="0.00021"></path>
<path d="M1.499 0.756 Q1.597 0.597 1.308 0.515" stroke="hsl(0.0,100%,35%)" stroke-width="0.00021"></path>
<path d="M1.499 0.756 Q1.749 0.564 1.430 0.400" stroke="hsl(0.0,100%,35%)" stroke-width="0.00021"></path>
<path d="M0.727 0.761 Q0.930 0.948 1.340 0.891" stroke="hsl(0.0,100%,35%)" stroke-width="0.01992"></path>
<path d="M0.727 0.761 Q1.072 0.665 0.959 0.475" stroke="hsl(0.0,100%,35%)" stroke-width="0.00210"></path>
<path d="M0.727 0.761 Q0.676 0.649 0.446 0.649" stroke="hsl(0.0,100%,35%)" stroke-width="0.00608"></path>
<path d="M0.727 0.761 Q1.215 0.754 1.308 0.515" stroke="hsl(0.0,100%,35%)" stroke-width="0.00126"></path>
<path d="M0.727 0.761 Q1.117 0.913 1.499 0.756" stroke="hsl(0.0,100%,35%)" stroke-width="0.00168"></path>
<path d="M0.727 0.761 Q1.368 0.721 1.430 0.400" stroke="hsl(0.0,100%,35%)" stroke-width="0.00021"></path>
<path d="M0.727 0.761 Q1.558 0.854 1.922 0.470" stroke="hsl(0.0,100%,35%)" stroke-width="0.00063"></path>
<path d="M0.727 0.761 Q1.486 0.915 1.951 0.578" stroke="hsl(0.0,100%,35%)" stroke-width="0.00021"></path>
<path d="M0.727 0.761 Q0.894 0.721 0.851 0.630" stroke="hsl(0.0,100%,35%)" stroke-width="0.00021"></path>
<path d="M0.727 0.761 Q0.880 0.987 1.353 0.962" stroke="hsl(0.0,100%,35%)" stroke-width="0.00021"></path>
<path d="M0.760 0.926 Q1.078 1.024 1.340 0.891" stroke="hsl(0.0,100%,35%)" stroke-width="0.00042"></path>
<path d="M0.760 0.926 Q0.824 0.724 0.446 0.649" stroke="hsl(0.0,100%,35%)" stroke-width="0.00021"></path>
<path d="M0.760 0.926 Q1.363 0.830 1.308 0.515" stroke="hsl(0.0,100%,35%)" stroke-width="0.00021"></path>
<path d="M1.308 0.515 Q1.023 0.709 1.340 0.891" stroke="hsl(0.0,100%,35%)" stroke-width="0.00440"></path>
<path d="M1.308 0.515 Q1.166 0.425 0.959 0.475" stroke="hsl(0.0,100%,35%)" stroke-width="0.00210"></path>
<path d="M1.308 0.515 Q0.770 0.409 0.446 0.649" stroke="hsl(0.0,100%,35%)" stroke-width="0.00063"></path>
<path d="M1.308 0.515 Q0.820 0.522 0.727 0.761" stroke="hsl(0.0,100%,35%)" stroke-width="0.00063"></path>
<path d="M1.308 0.515 Q1.634 0.478 1.635 0.312" stroke="hsl(0.0,100%,35%)" stroke-width="0.00042"></path>
<path d="M1.308 0.515 Q1.651 0.615 1.922 0.470" stroke="hsl(0.0,100%,35%)" stroke-width="0.00063"></path>
<path d="M1.308 0.515 Q1.579 0.675 1.951 0.578" stroke="hsl(0.0,100%,35%)" stroke-width="0.00021"></path>
<path d="M1.308 0.515 Q1.091 0.247 0.521 0.294" stroke="hsl(0.0,100%,35%)" stroke-width="0.00021"></path>
<path d="M0.650 0.555 Q0.473 0.561 0.446 0.649" stroke="hsl(0.0,100%,35%)" stroke-width="0.01845"></path>
<path d="M0.650 0.555 Q0.726 0.861 1.340 0.891" stroke="hsl(0.0,100%,35%)" stroke-width="0.01552"></path>
<path d="M0.650 0.555 Q0.761 0.477 0.633 0.406" stroke="hsl(0.0,100%,35%)" stroke-width="0.00042"></path>
<path d="M0.650 0.555 Q0.869 0.577 0.959 0.475" stroke="hsl(0.0,100%,35%)" stroke-width="0.00021"></path>
<path d="M0.650 0.555 Q1.354 0.767 1.922 0.470" stroke="hsl(0.0,100%,35%)" stroke-width="0.00336"></path>
<path d="M0.650 0.555 Q1.164 0.634 1.430 0.400" stroke="hsl(0.0,100%,35%)" stroke-width="0.00021"></path>
<path d="M0.650 0.555 Q0.682 0.783 1.133 0.818" stroke="hsl(0.0,100%,35%)" stroke-width="0.00105"></path>
<path d="M0.650 0.555 Q1.337 0.631 1.635 0.312" stroke="hsl(0.0,100%,35%)" stroke-width="0.00021"></path>
<path d="M0.650 0.555 Q0.506 0.853 1.055 0.988" stroke="hsl(0.0,100%,35%)" stroke-width="0.00021"></path>
<path d="M0.650 0.555 Q0.794 0.399 0.521 0.294" stroke="hsl(0.0,100%,35%)" stroke-width="0.00105"></path>
<path d="M0.650 0.555 Q1.012 0.667 1.308 0.515" stroke="hsl(0.0,100%,35%)" stroke-width="0.00042"></path>
<path d="M0.650 0.555 Q1.104 0.838 1.756 0.678" stroke="hsl(0.0,100%,35%)" stroke-width="0.00021"></path>
<path d="M1.189 0.705 Q1.116 0.828 1.340 0.891" stroke="hsl(0.0,100%,35%)" stroke-width="0.00566"></path>
<path d="M1.189 0.705 Q0.913 0.641 0.727 0.761" stroke="hsl(0.0,100%,35%)" stroke-width="0.00042"></path>
<path d="M1.189 0.705 Q1.744 0.734 1.922 0.470" stroke="hsl(0.0,100%,35%)" stroke-width="0.00210"></path>
<path d="M1.189 0.705 Q0.862 0.528 0.446 0.649" stroke="hsl(0.0,100%,35%)" stroke-width="0.00105"></path>
<path d="M1.189 0.705 Q1.727 0.598 1.635 0.312" stroke="hsl(0.0,100%,35%)" stroke-width="0.00084"></path>
<path d="M1.189 0.705 Q1.258 0.544 0.959 0.475" stroke="hsl(0.0,100%,35%)" stroke-width="0.00021"></path>
<path d="M1.189 0.705 Q1.066 0.866 1.353 0.962" stroke="hsl(0.0,100%,35%)" stroke-width="0.00042"></path>
<path d="M1.189 0.705 Q1.303 0.793 1.499 0.756" stroke="hsl(0.0,100%,35%)" stroke-width="0.00021"></path>
<path d="M1.189 0.705 Q1.401 0.634 1.308 0.515" stroke="hsl(0.0,100%,35%)" stroke-width="0.00021"></path>
<path d="M0.110 0.523 Q0.177 0.653 0.446 0.649" stroke="hsl(0.0,100%,35%)" stroke-width="0.00440"></path>
<path d="M0.110 0.523 Q0.431 0.953 1.340 0.891" stroke="hsl(0.0,100%,35%)" stroke-width="0.00168"></path>
<path d="M0.110 0.523 Q0.228 0.766 0.727 0.761" stroke="hsl(0.0,100%,35%)" stroke-width="0.00063"></path>
<path d="M0.110 0.523 Q0.573 0.669 0.959 0.475" stroke="hsl(0.0,100%,35%)" stroke-width="0.00042"></path>
<path d="M0.159 0.673 Q0.373 0.831 0.727 0.761" stroke="hsl(0.0,100%,35%)" stroke-width="0.00021"></path>
<path d="M0.159 0.673 Q0.322 0.718 0.446 0.649" stroke="hsl(0.0,100%,35%)" stroke-width="0.00189"></path>
<path d="M0.159 0.673 Q0.576 1.018 1.340 0.891" stroke="hsl(0.0,100%,35%)" stroke-width="0.00063"></path>
<path d="M1.690 0.492 Q0.942 0.322 0.446 0.649" stroke="hsl(180.0,100%,35%)" stroke-width="0.00105"></path>
<path d="M1.690 0.492 Q1.196 0.621 1.340 0.891" stroke="hsl(180.0,100%,35%)" stroke-width="0.00105"></path>
<path d="M1.690 0.492 Q1.824 0.527 1.922 0.470" stroke="hsl(180.0,100%,35%)" stroke-width="0.00210"></path>
<path d="M1.690 0.492 Q1.633 0.394 1.430 0.400" stroke="hsl(180.0,100%,35%)" stroke-width="0.00021"></path>
<path d="M1.000 0.962 Q1.227 0.994 1.340 0.891" stroke="hsl(0.0,100%,35%)" stroke-width="0.00105"></path>
<path d="M1.000 0.962 Q0.973 0.695 0.446 0.649" stroke="hsl(0.0,100%,35%)" stroke-width="0.00042"></path>
<path d="M1.000 0.962 Q1.369 0.710 0.959 0.475" stroke="hsl(0.0,100%,35%)" stroke-width="0.00021"></path>
<path d="M1.133 0.818 Q1.178 0.896 1.340 0.891" stroke="hsl(0.0,100%,35%)" stroke-width="0.01866"></path>
<path d="M1.133 0.818 Q0.925 0.596 0.446 0.649" stroke="hsl(0.0,100%,35%)" stroke-width="0.00755"></path>
<path d="M1.133 0.818 Q1.806 0.801 1.922 0.470" stroke="hsl(0.0,100%,35%)" stroke-width="0.00021"></path>
<path d="M1.133 0.818 Q0.976 0.708 0.727 0.761" stroke="hsl(0.0,100%,35%)" stroke-width="0.00021"></path>
<path d="M1.629 0.886 Q1.481 0.830 1.340 0.891" stroke="hsl(0.0,100%,35%)" stroke-width="0.00608"></path>
<path d="M1.629 0.886 Q1.436 0.753 1.133 0.818" stroke="hsl(0.0,100%,35%)" stroke-width="0.00021"></path>
<path d="M1.629 0.886 Q1.227 0.531 0.446 0.649" stroke="hsl(0.0,100%,35%)" stroke-width="0.00294"></path>
<path d="M1.629 0.886 Q1.278 0.643 0.727 0.761" stroke="hsl(0.0,100%,35%)" stroke-width="0.00021"></path>
<path d="M0.465 0.727 Q0.518 0.684 0.446 0.649" stroke="hsl(0.0,100%,35%)" stroke-width="0.00021"></path>
<path d="M0.465 0.727 Q0.772 0.984 1.340 0.891" stroke="hsl(0.0,100%,35%)" stroke-width="0.00021"></path>
<path d="M0.465 0.727 Q1.400 0.890 1.922 0.470" stroke="hsl(0.0,100%,35%)" stroke-width="0.00021"></path>
<path d="M1.353 0.962 Q1.403 0.924 1.340 0.891" stroke="hsl(0.0,100%,35%)" stroke-width="0.00461"></path>
<path d="M1.353 0.962 Q1.200 0.736 0.727 0.761" stroke="hsl(0.0,100%,35%)" stroke-width="0.00105"></path>
<path d="M1.353 0.962 Q1.476 0.801 1.189 0.705" stroke="hsl(0.0,100%,35%)" stroke-width="0.00126"></path>
<path d="M1.353 0.962 Q1.545 0.640 0.959 0.475" stroke="hsl(0.0,100%,35%)" stroke-width="0.00021"></path>
<path d="M1.353 0.962 Q1.688 0.729 1.308 0.515" stroke="hsl(0.0,100%,35%)" stroke-width="0.00042"></path>
<path d="M1.353 0.962 Q1.958 0.890 1.951 0.578" stroke="hsl(0.0,100%,35%)" stroke-width="0.00042"></path>
<path d="M1.353 0.962 Q1.149 0.624 0.446 0.649" stroke="hsl(0.0,100%,35%)" stroke-width="0.00021"></path>
<path d="M1.353 0.962 Q2.031 0.829 1.922 0.470" stroke="hsl(0.0,100%,35%)" stroke-width="0.00084"></path>
<path d="M1.053 0.770 Q1.055 0.810 1.133 0.818" stroke="hsl(0.0,100%,35%)" stroke-width="0.00587"></path>
<path d="M1.053 0.770 Q0.847 0.588 0.446 0.649" stroke="hsl(0.0,100%,35%)" stroke-width="0.00671"></path>
<path d="M1.053 0.770 Q1.100 0.888 1.340 0.891" stroke="hsl(0.0,100%,35%)" stroke-width="0.00860"></path>
<path d="M1.053 0.770 Q1.728 0.794 1.922 0.470" stroke="hsl(0.0,100%,35%)" stroke-width="0.00021"></path>
<path d="M1.593 0.760 Q1.362 0.775 1.340 0.891" stroke="hsl(0.0,100%,35%)" stroke-width="0.00210"></path>
<path d="M1.593 0.760 Q1.109 0.475 0.446 0.649" stroke="hsl(0.0,100%,35%)" stroke-width="0.00210"></path>
<path d="M1.593 0.760 Q1.159 0.588 0.727 0.761" stroke="hsl(0.0,100%,35%)" stroke-width="0.00084"></path>
<path d="M1.593 0.760 Q1.990 0.681 1.922 0.470" stroke="hsl(0.0,100%,35%)" stroke-width="0.00063"></path>
<path d="M1.593 0.760 Q1.918 0.741 1.951 0.578" stroke="hsl(0.0,100%,35%)" stroke-width="0.00021"></path>
<path d="M1.055 0.988 Q1.022 0.697 0.446 0.649" stroke="hsl(0.0,100%,35%)" stroke-width="0.00273"></path>
<path d="M1.055 0.988 Q1.831 0.962 1.951 0.578" stroke="hsl(0.0,100%,35%)" stroke-width="0.00021"></path>
<path d="M1.055 0.988 Q1.275 0.996 1.340 0.891" stroke="hsl(0.0,100%,35%)" stroke-width="0.00273"></path>
<path d="M1.055 0.988 Q1.713 0.769 1.430 0.400" stroke="hsl(0.0,100%,35%)" stroke-width="0.00021"></path>
<path d="M1.055 0.988 Q1.073 0.809 0.727 0.761" stroke="hsl(0.0,100%,35%)" stroke-width="0.00021"></path>
<path d="M1.055 0.988 Q1.653 0.973 1.756 0.678" stroke="hsl(0.0,100%,35%)" stroke-width="0.00021"></path>
<path d="M0.503 0.740 Q1.428 0.888 1.922 0.470" stroke="hsl(0.0,100%,35%)" stroke-width="0.00021"></path>
<path d="M0.503 0.740 Q0.547 0.683 0.446 0.649" stroke="hsl(0.0,100%,35%)" stroke-width="0.00315"></path>
<path d="M0.503 0.740 Q0.800 0.983 1.340 0.891" stroke="hsl(0.0,100%,35%)" stroke-width="0.00336"></path>
<path d="M1.013 0.175 Q0.884 0.110 0.729 0.159" stroke="hsl(0.0,100%,35%)" stroke-width="0.00042"></path>
<path d="M1.013 0.175 Q0.351 0.298 0.446 0.649" stroke="hsl(0.0,100%,35%)" stroke-width="0.00084"></path>
<path d="M1.013 0.175 Q0.604 0.598 1.340 0.891" stroke="hsl(0.0,100%,35%)" stroke-width="0.00063"></path>
<path d="M1.523 0.571 Q1.613 0.467 1.430 0.400" stroke="hsl(180.0,100%,35%)" stroke-width="0.00021"></path>
<path d="M1.523 0.571 Q1.553 0.671 1.756 0.678" stroke="hsl(180.0,100%,35%)" stroke-width="0.00021"></path>
<path d="M1.523 0.571 Q1.803 0.600 1.922 0.470" stroke="hsl(180.0,100%,35%)" stroke-width="0.00147"></path>
<path d="M1.523 0.571 Q1.175 0.694 1.340 0.891" stroke="hsl(180.0,100%,35%)" stroke-width="0.00021"></path>
<path d="M1.523 0.571 Q1.731 0.660 1.951 0.578" stroke="hsl(180.0,100%,35%)" stroke-width="0.00021"></path>
<path d="M0.248 0.442 Q0.435 0.885 1.340 0.891" stroke="hsl(0.0,100%,35%)" stroke-width="0.00021"></path>
<path d="M0.248 0.442 Q0.358 0.579 0.650 0.555" stroke="hsl(0.0,100%,35%)" stroke-width="0.00021"></path>
<path d="M0.248 0.442 Q0.182 0.585 0.446 0.649" stroke="hsl(0.0,100%,35%)" stroke-width="0.00021"></path>
<path d="M1.173 0.839 Q1.843 0.804 1.922 0.470" stroke="hsl(180.0,100%,35%)" stroke-width="0.00021"></path>
<path d="M1.173 0.839 Q1.215 0.898 1.340 0.891" stroke="hsl(180.0,100%,35%)" stroke-width="0.00063"></path>
<path d="M1.173 0.839 Q1.653 0.671 1.430 0.400" stroke="hsl(180.0,100%,35%)" stroke-width="0.00084"></path>
<path d="M0.297 0.651 Q0.373 0.680 0.446 0.649" stroke="hsl(0.0,100%,35%)" stroke-width="0.00210"></path>
<path d="M0.297 0.651 Q0.627 0.979 1.340 0.891" stroke="hsl(0.0,100%,35%)" stroke-width="0.00189"></path>
<path d="M0.297 0.651 Q0.236 0.741 0.397 0.790" stroke="hsl(0.0,100%,35%)" stroke-width="0.00021"></path>
<path d="M1.768 0.164 Q1.350 0.419 1.756 0.678" stroke="hsl(180.0,100%,35%)" stroke-width="0.00021"></path>
<path d="M1.768 0.164 Q1.583 0.211 1.635 0.312" stroke="hsl(180.0,100%,35%)" stroke-width="0.00021"></path>
<path d="M1.768 0.164 Q1.600 0.348 1.922 0.470" stroke="hsl(180.0,100%,35%)" stroke-width="0.00021"></path>
<path d="M1.768 0.164 Q0.719 0.142 0.446 0.649" stroke="hsl(180.0,100%,35%)" stroke-width="0.00021"></path>
<path d="M1.160 0.615 Q1.030 0.789 1.340 0.891" stroke="hsl(0.0,100%,35%)" stroke-width="0.00063"></path>
<path d="M1.160 0.615 Q0.776 0.489 0.446 0.649" stroke="hsl(0.0,100%,35%)" stroke-width="0.00063"></path>
<path d="M1.160 0.615 Q1.178 0.844 1.629 0.886" stroke="hsl(0.0,100%,35%)" stroke-width="0.00021"></path>
<path d="M1.784 0.766 Q1.462 0.740 1.340 0.891" stroke="hsl(0.0,100%,35%)" stroke-width="0.00252"></path>
<path d="M1.784 0.766 Q2.090 0.645 1.922 0.470" stroke="hsl(0.0,100%,35%)" stroke-width="0.00021"></path>
<path d="M1.784 0.766 Q1.605 0.456 0.959 0.475" stroke="hsl(0.0,100%,35%)" stroke-width="0.00021"></path>
<path d="M1.784 0.766 Q2.018 0.706 1.951 0.578" stroke="hsl(0.0,100%,35%)" stroke-width="0.00042"></path>
<path d="M1.784 0.766 Q1.209 0.440 0.446 0.649" stroke="hsl(0.0,100%,35%)" stroke-width="0.00021"></path>
<path d="M1.784 0.766 Q1.750 0.685 1.583 0.684" stroke="hsl(0.0,100%,35%)" stroke-width="0.00021"></path>
</g>
<text x="0.397" y="0.786" font-size="0.008781" fill="hsl(0.0,100%,20%)">albin.bernhardsson</text>
<text x="0.446" y="0.617" font-size="0.063601" fill="hsl(0.0,100%,20%)">cwallez</text>
<text x="1.635" y="0.275" font-size="0.074030" fill="hsl(180.0,100%,20%)">dsinclair</text>
<text x="0.959" y="0.462" font-size="0.025309" fill="hsl(0.0,100%,20%)">kainino</text>
<text x="1.340" y="0.853" font-size="0.075301" fill="hsl(0.0,100%,20%)">enga</text>
<text x="1.951" y="0.561" font-size="0.035208" fill="hsl(180.0,100%,20%)">amaiorano</text>
<text x="1.922" y="0.423" font-size="0.094134" fill="hsl(180.0,100%,20%)">bclayton</text>
<text x="1.430" y="0.366" font-size="0.068797" fill="hsl(180.0,100%,20%)">jrprice</text>
<text x="0.521" y="0.283" font-size="0.022453" fill="hsl(180.0,100%,20%)">dneto</text>
<text x="1.756" y="0.671" font-size="0.014201" fill="hsl(180.0,100%,20%)">rharrison</text>
<text x="0.319" y="0.859" font-size="0.004871" fill="hsl(0.0,100%,20%)">andre</text>
<text x="0.761" y="0.317" font-size="0.006888" fill="hsl(0.0,100%,20%)">austineng</text>
<text x="1.499" y="0.745" font-size="0.022716" fill="hsl(0.0,100%,20%)">shrekshao</text>
<text x="0.727" y="0.739" font-size="0.043972" fill="hsl(0.0,100%,20%)">lokokung</text>
<text x="0.760" y="0.923" font-size="0.004871" fill="hsl(0.0,100%,20%)">avi</text>
<text x="1.308" y="0.504" font-size="0.021646" fill="hsl(0.0,100%,20%)">bajones</text>
<text x="0.650" y="0.538" font-size="0.034528" fill="hsl(0.0,100%,20%)">jiawei.shao</text>
<text x="1.189" y="0.694" font-size="0.022585" fill="hsl(0.0,100%,20%)">senorblanco</text>
<text x="1.964" y="0.457" font-size="0.002435" fill="hsl(180.0,100%,20%)">kjlubick</text>
<text x="1.413" y="0.643" font-size="0.003444" fill="hsl(0.0,100%,20%)">brucedawson</text>
<text x="0.110" y="0.516" font-size="0.014201" fill="hsl(0.0,100%,20%)">beaufort.francois</text>
<text x="0.159" y="0.669" font-size="0.008781" fill="hsl(0.0,100%,20%)">blundell</text>
<text x="1.690" y="0.487" font-size="0.011160" fill="hsl(180.0,100%,20%)">brandon1.jones</text>
<text x="1.000" y="0.958" font-size="0.007306" fill="hsl(0.0,100%,20%)">yunchao.he</text>
<text x="1.133" y="0.802" font-size="0.031378" fill="hsl(0.0,100%,20%)">penghuang</text>
<text x="1.629" y="0.877" font-size="0.017562" fill="hsl(0.0,100%,20%)">lehoangquyen</text>
<text x="0.206" y="0.758" font-size="0.002435" fill="hsl(0.0,100%,20%)">fbeaufort</text>
<text x="0.373" y="0.975" font-size="0.002435" fill="hsl(0.0,100%,20%)">arthursonzogni</text>
<text x="0.471" y="0.842" font-size="0.002435" fill="hsl(0.0,100%,20%)">jamesgk</text>
<text x="0.465" y="0.725" font-size="0.004218" fill="hsl(0.0,100%,20%)">danakj</text>
<text x="0.550" y="0.398" font-size="0.004218" fill="hsl(180.0,100%,20%)">alanbaker</text>
<text x="1.583" y="0.681" font-size="0.004871" fill="hsl(0.0,100%,20%)">bsheedy</text>
<text x="1.353" y="0.953" font-size="0.017221" fill="hsl(0.0,100%,20%)">gman</text>
<text x="1.053" y="0.758" font-size="0.024717" fill="hsl(0.0,100%,20%)">jie.a.chen</text>
<text x="1.460" y="0.977" font-size="0.004218" fill="hsl(0.0,100%,20%)">toji</text>
<text x="1.593" y="0.754" font-size="0.013115" fill="hsl(0.0,100%,20%)">tiszka</text>
<text x="1.055" y="0.981" font-size="0.013777" fill="hsl(0.0,100%,20%)">zhaoming.jiang</text>
<text x="0.503" y="0.733" font-size="0.013777" fill="hsl(0.0,100%,20%)">hao.x.li</text>
<text x="1.013" y="0.171" font-size="0.007306" fill="hsl(0.0,100%,20%)">hitawala</text>
<text x="0.729" y="0.157" font-size="0.003444" fill="hsl(0.0,100%,20%)">sunnyps</text>
<text x="1.523" y="0.567" font-size="0.008077" fill="hsl(180.0,100%,20%)">jason.erb</text>
<text x="0.248" y="0.440" font-size="0.004218" fill="hsl(0.0,100%,20%)">jianlin.qiu</text>
<text x="0.633" y="0.404" font-size="0.003444" fill="hsl(0.0,100%,20%)">rafael.cintron</text>
<text x="1.173" y="0.835" font-size="0.006888" fill="hsl(180.0,100%,20%)">jojwang</text>
<text x="1.567" y="0.491" font-size="0.002435" fill="hsl(180.0,100%,20%)">johnstiles</text>
<text x="0.851" y="0.629" font-size="0.002435" fill="hsl(0.0,100%,20%)">kbr</text>
<text x="0.297" y="0.646" font-size="0.010891" fill="hsl(0.0,100%,20%)">shaobo.yan</text>
<text x="1.768" y="0.161" font-size="0.004871" fill="hsl(180.0,100%,20%)">stha09</text>
<text x="1.160" y="0.612" font-size="0.006443" fill="hsl(0.0,100%,20%)">vollick</text>
<text x="1.784" y="0.761" font-size="0.010333" fill="hsl(0.0,100%,20%)">ynovikov</text>
</svg>
