<svg width="4000" height="2000" viewBox="-0.025 -0.025 2.05 1.05" xmlns="http://www.w3.org/2000/svg">
  <style>
    path {
      fill: none;
      stroke-linecap: round;
      stroke-opacity: 0.4;
    }

    text {
      text-anchor: middle;
      alignment-baseline: hanging;
    }
  </style>
  <g opacity="0.4">
<path d="M1.868 0.504 Q1.653 0.655 1.900 0.793" stroke="hsl(0.0,100%,35%)" stroke-width="0.00148"></path>
<path d="M1.868 0.504 Q1.770 0.541 1.821 0.597" stroke="hsl(0.0,100%,35%)" stroke-width="0.00202"></path>
<path d="M1.868 0.504 Q1.588 0.708 1.925 0.889" stroke="hsl(0.0,100%,35%)" stroke-width="0.00023"></path>
<path d="M1.868 0.504 Q1.141 0.774 1.508 1.188" stroke="hsl(0.0,100%,35%)" stroke-width="0.00016"></path>
<path d="M1.900 0.793 Q1.837 0.711 1.662 0.724" stroke="hsl(0.0,100%,35%)" stroke-width="0.06347"></path>
<path d="M1.900 0.793 Q1.771 0.769 1.696 0.827" stroke="hsl(0.0,100%,35%)" stroke-width="0.04172"></path>
<path d="M1.900 0.793 Q1.598 0.198 0.370 0.215" stroke="hsl(0.0,100%,35%)" stroke-width="0.01072"></path>
<path d="M1.900 0.793 Q1.836 0.846 1.925 0.889" stroke="hsl(0.0,100%,35%)" stroke-width="0.03830"></path>
<path d="M1.900 0.793 Q2.018 0.679 1.821 0.597" stroke="hsl(0.0,100%,35%)" stroke-width="0.00388"></path>
<path d="M1.900 0.793 Q1.445 0.223 0.232 0.320" stroke="hsl(0.0,100%,35%)" stroke-width="0.02191"></path>
<path d="M1.900 0.793 Q1.465 0.317 0.440 0.424" stroke="hsl(0.0,100%,35%)" stroke-width="0.00101"></path>
<path d="M1.900 0.793 Q2.084 0.608 1.763 0.477" stroke="hsl(0.0,100%,35%)" stroke-width="0.02750"></path>
<path d="M1.900 0.793 Q1.554 0.296 0.507 0.355" stroke="hsl(0.0,100%,35%)" stroke-width="0.00016"></path>
<path d="M1.900 0.793 Q2.031 0.733 1.941 0.656" stroke="hsl(0.0,100%,35%)" stroke-width="0.00023"></path>
<path d="M1.900 0.793 Q1.751 0.175 0.512 0.112" stroke="hsl(0.0,100%,35%)" stroke-width="0.00039"></path>
<path d="M1.900 0.793 Q1.854 0.193 0.673 0.084" stroke="hsl(0.0,100%,35%)" stroke-width="0.00023"></path>
<path d="M1.900 0.793 Q2.026 0.710 1.891 0.631" stroke="hsl(0.0,100%,35%)" stroke-width="0.00054"></path>
<path d="M1.900 0.793 Q1.388 0.912 1.508 1.188" stroke="hsl(0.0,100%,35%)" stroke-width="0.00016"></path>
<path d="M1.900 0.793 Q1.894 0.609 1.532 0.571" stroke="hsl(0.0,100%,35%)" stroke-width="0.00016"></path>
<path d="M1.821 0.597 Q1.703 0.711 1.900 0.793" stroke="hsl(0.0,100%,35%)" stroke-width="0.00668"></path>
<path d="M1.821 0.597 Q1.401 0.116 0.370 0.215" stroke="hsl(0.0,100%,35%)" stroke-width="0.00792"></path>
<path d="M1.821 0.597 Q1.639 0.764 1.925 0.889" stroke="hsl(0.0,100%,35%)" stroke-width="0.00070"></path>
<path d="M1.821 0.597 Q1.640 0.629 1.662 0.724" stroke="hsl(0.0,100%,35%)" stroke-width="0.00684"></path>
<path d="M1.821 0.597 Q1.574 0.687 1.696 0.827" stroke="hsl(0.0,100%,35%)" stroke-width="0.00148"></path>
<path d="M1.821 0.597 Q1.554 0.093 0.512 0.112" stroke="hsl(0.0,100%,35%)" stroke-width="0.00016"></path>
<path d="M1.821 0.597 Q1.248 0.140 0.232 0.320" stroke="hsl(0.0,100%,35%)" stroke-width="0.00722"></path>
<path d="M1.821 0.597 Q1.887 0.525 1.763 0.477" stroke="hsl(0.0,100%,35%)" stroke-width="0.00186"></path>
<path d="M1.821 0.597 Q1.657 0.111 0.673 0.084" stroke="hsl(0.0,100%,35%)" stroke-width="0.00186"></path>
<path d="M1.821 0.597 Q1.766 0.473 1.513 0.473" stroke="hsl(0.0,100%,35%)" stroke-width="0.00016"></path>
<path d="M1.821 0.597 Q1.919 0.560 1.868 0.504" stroke="hsl(0.0,100%,35%)" stroke-width="0.00023"></path>
<path d="M1.821 0.597 Q1.884 0.466 1.643 0.407" stroke="hsl(0.0,100%,35%)" stroke-width="0.00023"></path>
<path d="M1.821 0.597 Q1.829 0.628 1.891 0.631" stroke="hsl(0.0,100%,35%)" stroke-width="0.00016"></path>
<path d="M1.925 0.889 Q1.687 0.241 0.370 0.215" stroke="hsl(0.0,100%,35%)" stroke-width="0.00287"></path>
<path d="M1.925 0.889 Q1.989 0.836 1.900 0.793" stroke="hsl(0.0,100%,35%)" stroke-width="0.02486"></path>
<path d="M1.925 0.889 Q1.534 0.266 0.232 0.320" stroke="hsl(0.0,100%,35%)" stroke-width="0.00163"></path>
<path d="M1.925 0.889 Q1.926 0.754 1.662 0.724" stroke="hsl(0.0,100%,35%)" stroke-width="0.00326"></path>
<path d="M1.925 0.889 Q1.860 0.812 1.696 0.827" stroke="hsl(0.0,100%,35%)" stroke-width="0.00326"></path>
<path d="M1.925 0.889 Q2.173 0.651 1.763 0.477" stroke="hsl(0.0,100%,35%)" stroke-width="0.00194"></path>
<path d="M1.925 0.889 Q2.107 0.722 1.821 0.597" stroke="hsl(0.0,100%,35%)" stroke-width="0.00023"></path>
<path d="M1.925 0.889 Q1.840 0.218 0.512 0.112" stroke="hsl(0.0,100%,35%)" stroke-width="0.00023"></path>
<path d="M1.508 1.188 Q2.137 0.955 1.821 0.597" stroke="hsl(0.0,100%,35%)" stroke-width="0.00031"></path>
<path d="M1.508 1.188 Q2.020 1.069 1.900 0.793" stroke="hsl(0.0,100%,35%)" stroke-width="0.00047"></path>
<path d="M1.508 1.188 Q2.235 0.918 1.868 0.504" stroke="hsl(0.0,100%,35%)" stroke-width="0.00016"></path>
<path d="M1.508 1.188 Q1.695 0.996 1.362 0.862" stroke="hsl(0.0,100%,35%)" stroke-width="0.00016"></path>
<path d="M1.508 1.188 Q2.204 0.884 1.763 0.477" stroke="hsl(0.0,100%,35%)" stroke-width="0.00016"></path>
<path d="M1.508 1.188 Q1.956 0.987 1.662 0.724" stroke="hsl(0.0,100%,35%)" stroke-width="0.00023"></path>
<path d="M0.339 0.400 Q0.349 0.338 0.232 0.320" stroke="hsl(180.0,100%,35%)" stroke-width="0.00039"></path>
<path d="M0.339 0.400 Q0.741 0.827 1.662 0.724" stroke="hsl(180.0,100%,35%)" stroke-width="0.00016"></path>
<path d="M0.339 0.400 Q0.759 0.309 0.673 0.084" stroke="hsl(180.0,100%,35%)" stroke-width="0.00016"></path>
<path d="M0.339 0.400 Q0.502 0.314 0.370 0.215" stroke="hsl(180.0,100%,35%)" stroke-width="0.00023"></path>
<path d="M0.232 0.320 Q0.687 0.890 1.900 0.793" stroke="hsl(180.0,100%,35%)" stroke-width="0.01499"></path>
<path d="M0.232 0.320 Q0.384 0.295 0.370 0.215" stroke="hsl(180.0,100%,35%)" stroke-width="0.05640"></path>
<path d="M0.232 0.320 Q0.478 0.204 0.306 0.059" stroke="hsl(180.0,100%,35%)" stroke-width="0.00823"></path>
<path d="M0.232 0.320 Q0.641 0.290 0.673 0.084" stroke="hsl(180.0,100%,35%)" stroke-width="0.01958"></path>
<path d="M0.232 0.320 Q0.228 0.249 0.088 0.235" stroke="hsl(180.0,100%,35%)" stroke-width="0.00093"></path>
<path d="M0.232 0.320 Q0.364 0.207 0.174 0.118" stroke="hsl(180.0,100%,35%)" stroke-width="0.00031"></path>
<path d="M0.232 0.320 Q0.538 0.272 0.512 0.112" stroke="hsl(180.0,100%,35%)" stroke-width="0.00451"></path>
<path d="M0.232 0.320 Q0.510 0.239 0.413 0.085" stroke="hsl(180.0,100%,35%)" stroke-width="0.00039"></path>
<path d="M0.232 0.320 Q0.623 0.943 1.925 0.889" stroke="hsl(180.0,100%,35%)" stroke-width="0.00031"></path>
<path d="M0.232 0.320 Q0.311 0.397 0.478 0.375" stroke="hsl(180.0,100%,35%)" stroke-width="0.00016"></path>
<path d="M0.232 0.320 Q0.624 0.808 1.662 0.724" stroke="hsl(180.0,100%,35%)" stroke-width="0.00249"></path>
<path d="M0.232 0.320 Q0.558 0.866 1.696 0.827" stroke="hsl(180.0,100%,35%)" stroke-width="0.00031"></path>
<path d="M0.232 0.320 Q0.805 0.776 1.821 0.597" stroke="hsl(180.0,100%,35%)" stroke-width="0.00132"></path>
<path d="M0.232 0.320 Q0.078 0.384 0.170 0.474" stroke="hsl(180.0,100%,35%)" stroke-width="0.00023"></path>
<path d="M0.232 0.320 Q0.238 0.367 0.332 0.375" stroke="hsl(180.0,100%,35%)" stroke-width="0.00023"></path>
<path d="M0.232 0.320 Q0.156 0.285 0.072 0.315" stroke="hsl(180.0,100%,35%)" stroke-width="0.00016"></path>
<path d="M0.232 0.320 Q0.252 0.414 0.440 0.424" stroke="hsl(180.0,100%,35%)" stroke-width="0.01258"></path>
<path d="M0.232 0.320 Q0.095 0.312 0.051 0.377" stroke="hsl(180.0,100%,35%)" stroke-width="0.00388"></path>
<path d="M0.232 0.320 Q0.159 0.383 0.267 0.433" stroke="hsl(180.0,100%,35%)" stroke-width="0.00047"></path>
<path d="M0.232 0.320 Q0.871 0.705 1.763 0.477" stroke="hsl(180.0,100%,35%)" stroke-width="0.00062"></path>
<path d="M0.232 0.320 Q0.223 0.371 0.321 0.386" stroke="hsl(180.0,100%,35%)" stroke-width="0.00023"></path>
<path d="M0.232 0.320 Q0.215 0.381 0.331 0.402" stroke="hsl(180.0,100%,35%)" stroke-width="0.00070"></path>
<path d="M0.232 0.320 Q0.300 0.262 0.201 0.216" stroke="hsl(180.0,100%,35%)" stroke-width="0.00016"></path>
<path d="M0.232 0.320 Q0.609 0.356 0.763 0.180" stroke="hsl(180.0,100%,35%)" stroke-width="0.00016"></path>
<path d="M0.232 0.320 Q0.306 0.367 0.415 0.341" stroke="hsl(180.0,100%,35%)" stroke-width="0.00023"></path>
<path d="M0.232 0.320 Q0.189 0.407 0.349 0.447" stroke="hsl(180.0,100%,35%)" stroke-width="0.00016"></path>
<path d="M1.662 0.724 Q1.726 0.806 1.900 0.793" stroke="hsl(0.0,100%,35%)" stroke-width="0.05003"></path>
<path d="M1.662 0.724 Q1.597 0.782 1.696 0.827" stroke="hsl(0.0,100%,35%)" stroke-width="0.00886"></path>
<path d="M1.662 0.724 Q1.910 0.621 1.763 0.477" stroke="hsl(0.0,100%,35%)" stroke-width="0.02525"></path>
<path d="M1.662 0.724 Q1.271 0.236 0.232 0.320" stroke="hsl(0.0,100%,35%)" stroke-width="0.00684"></path>
<path d="M1.662 0.724 Q1.661 0.859 1.925 0.889" stroke="hsl(0.0,100%,35%)" stroke-width="0.00474"></path>
<path d="M1.662 0.724 Q1.844 0.692 1.821 0.597" stroke="hsl(0.0,100%,35%)" stroke-width="0.00901"></path>
<path d="M1.662 0.724 Q1.423 0.211 0.370 0.215" stroke="hsl(0.0,100%,35%)" stroke-width="0.00140"></path>
<path d="M1.662 0.724 Q1.577 0.188 0.512 0.112" stroke="hsl(0.0,100%,35%)" stroke-width="0.00016"></path>
<path d="M1.662 0.724 Q1.291 0.330 0.440 0.424" stroke="hsl(0.0,100%,35%)" stroke-width="0.00016"></path>
<path d="M1.662 0.724 Q1.852 0.723 1.891 0.631" stroke="hsl(0.0,100%,35%)" stroke-width="0.00443"></path>
<path d="M1.662 0.724 Q1.680 0.206 0.673 0.084" stroke="hsl(0.0,100%,35%)" stroke-width="0.00039"></path>
<path d="M0.673 0.084 Q0.417 0.089 0.370 0.215" stroke="hsl(180.0,100%,35%)" stroke-width="0.00381"></path>
<path d="M0.673 0.084 Q0.570 0.066 0.512 0.112" stroke="hsl(180.0,100%,35%)" stroke-width="0.00016"></path>
<path d="M0.673 0.084 Q0.510 -0.002 0.306 0.059" stroke="hsl(180.0,100%,35%)" stroke-width="0.00140"></path>
<path d="M0.673 0.084 Q0.837 0.570 1.821 0.597" stroke="hsl(180.0,100%,35%)" stroke-width="0.00023"></path>
<path d="M0.673 0.084 Q0.264 0.114 0.232 0.320" stroke="hsl(180.0,100%,35%)" stroke-width="0.00342"></path>
<path d="M0.673 0.084 Q0.656 0.602 1.662 0.724" stroke="hsl(180.0,100%,35%)" stroke-width="0.00023"></path>
<path d="M0.673 0.084 Q0.127 0.106 0.051 0.377" stroke="hsl(180.0,100%,35%)" stroke-width="0.00016"></path>
<path d="M0.370 0.215 Q0.790 0.696 1.821 0.597" stroke="hsl(180.0,100%,35%)" stroke-width="0.00054"></path>
<path d="M0.370 0.215 Q0.463 0.124 0.306 0.059" stroke="hsl(180.0,100%,35%)" stroke-width="0.01290"></path>
<path d="M0.370 0.215 Q0.238 0.334 0.440 0.424" stroke="hsl(180.0,100%,35%)" stroke-width="0.00575"></path>
<path d="M0.370 0.215 Q0.627 0.210 0.673 0.084" stroke="hsl(180.0,100%,35%)" stroke-width="0.01538"></path>
<path d="M0.370 0.215 Q0.544 0.786 1.696 0.827" stroke="hsl(180.0,100%,35%)" stroke-width="0.00062"></path>
<path d="M0.370 0.215 Q0.217 0.240 0.232 0.320" stroke="hsl(180.0,100%,35%)" stroke-width="0.02999"></path>
<path d="M0.370 0.215 Q0.325 0.121 0.131 0.122" stroke="hsl(180.0,100%,35%)" stroke-width="0.00023"></path>
<path d="M0.370 0.215 Q0.524 0.192 0.512 0.112" stroke="hsl(180.0,100%,35%)" stroke-width="0.00225"></path>
<path d="M0.370 0.215 Q0.673 0.810 1.900 0.793" stroke="hsl(180.0,100%,35%)" stroke-width="0.00544"></path>
<path d="M0.370 0.215 Q0.496 0.159 0.413 0.085" stroke="hsl(180.0,100%,35%)" stroke-width="0.00202"></path>
<path d="M0.370 0.215 Q0.292 0.287 0.415 0.341" stroke="hsl(180.0,100%,35%)" stroke-width="0.00023"></path>
<path d="M0.370 0.215 Q0.350 0.127 0.174 0.118" stroke="hsl(180.0,100%,35%)" stroke-width="0.00023"></path>
<path d="M0.370 0.215 Q0.608 0.863 1.925 0.889" stroke="hsl(180.0,100%,35%)" stroke-width="0.00054"></path>
<path d="M0.370 0.215 Q0.244 0.355 0.490 0.448" stroke="hsl(180.0,100%,35%)" stroke-width="0.00031"></path>
<path d="M0.370 0.215 Q0.368 0.122 0.186 0.103" stroke="hsl(180.0,100%,35%)" stroke-width="0.00016"></path>
<path d="M0.370 0.215 Q0.609 0.728 1.662 0.724" stroke="hsl(180.0,100%,35%)" stroke-width="0.00148"></path>
<path d="M0.370 0.215 Q0.304 0.188 0.237 0.214" stroke="hsl(180.0,100%,35%)" stroke-width="0.00023"></path>
<path d="M0.370 0.215 Q0.081 0.233 0.051 0.377" stroke="hsl(180.0,100%,35%)" stroke-width="0.00350"></path>
<path d="M0.370 0.215 Q0.063 0.304 0.170 0.474" stroke="hsl(180.0,100%,35%)" stroke-width="0.00016"></path>
<path d="M0.370 0.215 Q0.327 0.290 0.462 0.327" stroke="hsl(180.0,100%,35%)" stroke-width="0.00031"></path>
<path d="M0.370 0.215 Q0.285 0.182 0.201 0.216" stroke="hsl(180.0,100%,35%)" stroke-width="0.00054"></path>
<path d="M0.370 0.215 Q0.214 0.169 0.088 0.235" stroke="hsl(180.0,100%,35%)" stroke-width="0.00039"></path>
<path d="M0.370 0.215 Q0.331 0.129 0.155 0.130" stroke="hsl(180.0,100%,35%)" stroke-width="0.00016"></path>
<path d="M0.171 0.218 Q0.272 0.256 0.370 0.215" stroke="hsl(180.0,100%,35%)" stroke-width="0.00031"></path>
<path d="M0.171 0.218 Q0.120 0.281 0.232 0.320" stroke="hsl(180.0,100%,35%)" stroke-width="0.00031"></path>
<path d="M0.151 0.127 Q0.190 0.215 0.370 0.215" stroke="hsl(180.0,100%,35%)" stroke-width="0.00031"></path>
<path d="M0.151 0.127 Q0.283 0.124 0.306 0.059" stroke="hsl(180.0,100%,35%)" stroke-width="0.00016"></path>
<path d="M0.306 0.059 Q0.213 0.150 0.370 0.215" stroke="hsl(180.0,100%,35%)" stroke-width="0.01344"></path>
<path d="M0.306 0.059 Q0.470 0.145 0.673 0.084" stroke="hsl(180.0,100%,35%)" stroke-width="0.00132"></path>
<path d="M0.306 0.059 Q0.061 0.174 0.232 0.320" stroke="hsl(180.0,100%,35%)" stroke-width="0.00373"></path>
<path d="M0.306 0.059 Q0.367 0.127 0.512 0.112" stroke="hsl(180.0,100%,35%)" stroke-width="0.00047"></path>
<path d="M0.306 0.059 Q0.339 0.093 0.413 0.085" stroke="hsl(180.0,100%,35%)" stroke-width="0.00109"></path>
<path d="M0.306 0.059 Q0.516 0.745 1.900 0.793" stroke="hsl(180.0,100%,35%)" stroke-width="0.00047"></path>
<path d="M1.696 0.827 Q1.825 0.851 1.900 0.793" stroke="hsl(0.0,100%,35%)" stroke-width="0.03861"></path>
<path d="M1.696 0.827 Q1.818 0.666 1.532 0.571" stroke="hsl(0.0,100%,35%)" stroke-width="0.00016"></path>
<path d="M1.696 0.827 Q1.761 0.769 1.662 0.724" stroke="hsl(0.0,100%,35%)" stroke-width="0.01025"></path>
<path d="M1.696 0.827 Q2.009 0.665 1.763 0.477" stroke="hsl(0.0,100%,35%)" stroke-width="0.00342"></path>
<path d="M1.696 0.827 Q1.522 0.256 0.370 0.215" stroke="hsl(0.0,100%,35%)" stroke-width="0.00155"></path>
<path d="M1.696 0.827 Q1.370 0.280 0.232 0.320" stroke="hsl(0.0,100%,35%)" stroke-width="0.00163"></path>
<path d="M1.696 0.827 Q1.760 0.904 1.925 0.889" stroke="hsl(0.0,100%,35%)" stroke-width="0.00186"></path>
<path d="M1.696 0.827 Q1.779 0.251 0.673 0.084" stroke="hsl(0.0,100%,35%)" stroke-width="0.00031"></path>
<path d="M1.696 0.827 Q1.676 0.233 0.512 0.112" stroke="hsl(0.0,100%,35%)" stroke-width="0.00031"></path>
<path d="M1.696 0.827 Q1.950 0.768 1.891 0.631" stroke="hsl(0.0,100%,35%)" stroke-width="0.00016"></path>
<path d="M1.696 0.827 Q1.942 0.737 1.821 0.597" stroke="hsl(0.0,100%,35%)" stroke-width="0.00039"></path>
<path d="M1.763 0.477 Q1.579 0.663 1.900 0.793" stroke="hsl(0.0,100%,35%)" stroke-width="0.01072"></path>
<path d="M1.763 0.477 Q1.123 0.092 0.232 0.320" stroke="hsl(0.0,100%,35%)" stroke-width="0.00039"></path>
<path d="M1.763 0.477 Q1.450 0.639 1.696 0.827" stroke="hsl(0.0,100%,35%)" stroke-width="0.00513"></path>
<path d="M1.763 0.477 Q1.572 0.478 1.532 0.571" stroke="hsl(0.0,100%,35%)" stroke-width="0.00334"></path>
<path d="M1.763 0.477 Q1.515 0.581 1.662 0.724" stroke="hsl(0.0,100%,35%)" stroke-width="0.01981"></path>
<path d="M1.763 0.477 Q1.696 0.549 1.821 0.597" stroke="hsl(0.0,100%,35%)" stroke-width="0.00155"></path>
<path d="M1.763 0.477 Q1.514 0.716 1.925 0.889" stroke="hsl(0.0,100%,35%)" stroke-width="0.00124"></path>
<path d="M1.763 0.477 Q1.276 0.068 0.370 0.215" stroke="hsl(0.0,100%,35%)" stroke-width="0.00023"></path>
<path d="M1.763 0.477 Q1.704 0.580 1.891 0.631" stroke="hsl(0.0,100%,35%)" stroke-width="0.00047"></path>
<path d="M0.512 0.112 Q0.358 0.135 0.370 0.215" stroke="hsl(180.0,100%,35%)" stroke-width="0.00621"></path>
<path d="M0.512 0.112 Q0.615 0.130 0.673 0.084" stroke="hsl(180.0,100%,35%)" stroke-width="0.00357"></path>
<path d="M0.512 0.112 Q0.206 0.160 0.232 0.320" stroke="hsl(180.0,100%,35%)" stroke-width="0.00396"></path>
<path d="M0.512 0.112 Q0.452 0.044 0.306 0.059" stroke="hsl(180.0,100%,35%)" stroke-width="0.00031"></path>
<path d="M0.512 0.112 Q0.597 0.648 1.662 0.724" stroke="hsl(180.0,100%,35%)" stroke-width="0.00016"></path>
<path d="M0.512 0.112 Q0.661 0.730 1.900 0.793" stroke="hsl(180.0,100%,35%)" stroke-width="0.00047"></path>
<path d="M0.512 0.112 Q0.484 0.079 0.413 0.085" stroke="hsl(180.0,100%,35%)" stroke-width="0.00031"></path>
<path d="M1.952 0.612 Q1.781 0.692 1.900 0.793" stroke="hsl(180.0,100%,35%)" stroke-width="0.00016"></path>
<path d="M0.223 0.403 Q0.294 0.363 0.232 0.320" stroke="hsl(180.0,100%,35%)" stroke-width="0.00016"></path>
<path d="M0.223 0.403 Q0.703 0.333 0.673 0.084" stroke="hsl(180.0,100%,35%)" stroke-width="0.00016"></path>
<path d="M0.413 0.085 Q0.590 0.737 1.900 0.793" stroke="hsl(180.0,100%,35%)" stroke-width="0.00062"></path>
<path d="M0.413 0.085 Q0.155 0.260 0.440 0.424" stroke="hsl(180.0,100%,35%)" stroke-width="0.00109"></path>
<path d="M0.413 0.085 Q0.288 0.142 0.370 0.215" stroke="hsl(180.0,100%,35%)" stroke-width="0.00629"></path>
<path d="M0.413 0.085 Q0.381 0.051 0.306 0.059" stroke="hsl(180.0,100%,35%)" stroke-width="0.00085"></path>
<path d="M0.413 0.085 Q0.544 0.137 0.673 0.084" stroke="hsl(180.0,100%,35%)" stroke-width="0.00070"></path>
<path d="M0.413 0.085 Q0.135 0.166 0.232 0.320" stroke="hsl(180.0,100%,35%)" stroke-width="0.00155"></path>
<path d="M0.413 0.085 Q0.441 0.118 0.512 0.112" stroke="hsl(180.0,100%,35%)" stroke-width="0.00016"></path>
<path d="M0.232 -0.061 Q0.080 0.105 0.370 0.215" stroke="hsl(180.0,100%,35%)" stroke-width="0.00016"></path>
<path d="M0.088 0.235 Q0.245 0.281 0.370 0.215" stroke="hsl(180.0,100%,35%)" stroke-width="0.00808"></path>
<path d="M0.088 0.235 Q0.092 0.306 0.232 0.320" stroke="hsl(180.0,100%,35%)" stroke-width="0.00870"></path>
<path d="M0.088 0.235 Q0.501 0.276 0.673 0.084" stroke="hsl(180.0,100%,35%)" stroke-width="0.00287"></path>
<path d="M0.088 0.235 Q-0.044 0.299 0.051 0.377" stroke="hsl(180.0,100%,35%)" stroke-width="0.00062"></path>
<path d="M0.051 0.377 Q0.188 0.385 0.232 0.320" stroke="hsl(180.0,100%,35%)" stroke-width="0.02253"></path>
<path d="M0.051 0.377 Q0.340 0.360 0.370 0.215" stroke="hsl(180.0,100%,35%)" stroke-width="0.02035"></path>
<path d="M0.051 0.377 Q0.297 0.434 0.462 0.327" stroke="hsl(180.0,100%,35%)" stroke-width="0.00016"></path>
<path d="M0.051 0.377 Q0.597 0.355 0.673 0.084" stroke="hsl(180.0,100%,35%)" stroke-width="0.00451"></path>
<path d="M0.051 0.377 Q0.643 0.955 1.900 0.793" stroke="hsl(180.0,100%,35%)" stroke-width="0.00233"></path>
<path d="M0.051 0.377 Q0.827 0.770 1.763 0.477" stroke="hsl(180.0,100%,35%)" stroke-width="0.00054"></path>
<path d="M0.051 0.377 Q0.433 0.269 0.306 0.059" stroke="hsl(180.0,100%,35%)" stroke-width="0.00023"></path>
<path d="M0.051 0.377 Q0.494 0.337 0.512 0.112" stroke="hsl(180.0,100%,35%)" stroke-width="0.00031"></path>
<path d="M0.051 0.377 Q0.208 0.479 0.440 0.424" stroke="hsl(180.0,100%,35%)" stroke-width="0.00023"></path>
<path d="M0.051 0.377 Q0.255 0.327 0.201 0.216" stroke="hsl(180.0,100%,35%)" stroke-width="0.00023"></path>
<path d="M0.051 0.377 Q0.760 0.841 1.821 0.597" stroke="hsl(180.0,100%,35%)" stroke-width="0.00031"></path>
<path d="M0.051 0.377 Q0.320 0.272 0.174 0.118" stroke="hsl(180.0,100%,35%)" stroke-width="0.00039"></path>
<path d="M0.440 0.424 Q0.572 0.306 0.370 0.215" stroke="hsl(180.0,100%,35%)" stroke-width="0.00878"></path>
<path d="M0.440 0.424 Q0.665 0.215 0.306 0.059" stroke="hsl(180.0,100%,35%)" stroke-width="0.00031"></path>
<path d="M0.440 0.424 Q0.875 0.901 1.900 0.793" stroke="hsl(180.0,100%,35%)" stroke-width="0.00668"></path>
<path d="M0.440 0.424 Q0.420 0.330 0.232 0.320" stroke="hsl(180.0,100%,35%)" stroke-width="0.00590"></path>
<path d="M0.440 0.424 Q0.811 0.819 1.662 0.724" stroke="hsl(180.0,100%,35%)" stroke-width="0.00047"></path>
<path d="M0.440 0.424 Q0.829 0.301 0.673 0.084" stroke="hsl(180.0,100%,35%)" stroke-width="0.00101"></path>
<path d="M0.440 0.424 Q1.059 0.715 1.763 0.477" stroke="hsl(180.0,100%,35%)" stroke-width="0.00023"></path>
<path d="M0.440 0.424 Q0.746 0.877 1.696 0.827" stroke="hsl(180.0,100%,35%)" stroke-width="0.00023"></path>
<path d="M0.440 0.424 Q0.446 0.446 0.490 0.448" stroke="hsl(180.0,100%,35%)" stroke-width="0.00016"></path>
<path d="M0.507 0.355 Q0.398 0.283 0.232 0.320" stroke="hsl(180.0,100%,35%)" stroke-width="0.00396"></path>
<path d="M0.507 0.355 Q0.550 0.258 0.370 0.215" stroke="hsl(180.0,100%,35%)" stroke-width="0.00412"></path>
<path d="M0.507 0.355 Q0.853 0.853 1.900 0.793" stroke="hsl(180.0,100%,35%)" stroke-width="0.00194"></path>
<path d="M0.507 0.355 Q0.807 0.253 0.673 0.084" stroke="hsl(180.0,100%,35%)" stroke-width="0.00124"></path>
<path d="M0.507 0.355 Q0.507 0.332 0.462 0.327" stroke="hsl(180.0,100%,35%)" stroke-width="0.00078"></path>
<path d="M1.941 0.656 Q1.355 0.146 0.232 0.320" stroke="hsl(180.0,100%,35%)" stroke-width="0.00272"></path>
<path d="M1.941 0.656 Q1.746 0.769 1.925 0.889" stroke="hsl(180.0,100%,35%)" stroke-width="0.00031"></path>
<path d="M1.941 0.656 Q1.508 0.121 0.370 0.215" stroke="hsl(180.0,100%,35%)" stroke-width="0.00233"></path>
<path d="M1.941 0.656 Q1.810 0.716 1.900 0.793" stroke="hsl(180.0,100%,35%)" stroke-width="0.00357"></path>
<path d="M1.941 0.656 Q1.747 0.634 1.662 0.724" stroke="hsl(180.0,100%,35%)" stroke-width="0.00031"></path>
<path d="M1.941 0.656 Q1.994 0.531 1.763 0.477" stroke="hsl(180.0,100%,35%)" stroke-width="0.00016"></path>
<path d="M1.941 0.656 Q1.928 0.602 1.821 0.597" stroke="hsl(180.0,100%,35%)" stroke-width="0.00023"></path>
<path d="M1.941 0.656 Q1.764 0.116 0.673 0.084" stroke="hsl(180.0,100%,35%)" stroke-width="0.00047"></path>
<path d="M1.891 0.631 Q1.720 0.114 0.673 0.084" stroke="hsl(0.0,100%,35%)" stroke-width="0.00016"></path>
<path d="M1.891 0.631 Q1.884 0.600 1.821 0.597" stroke="hsl(0.0,100%,35%)" stroke-width="0.00016"></path>
<path d="M1.891 0.631 Q1.766 0.714 1.900 0.793" stroke="hsl(0.0,100%,35%)" stroke-width="0.00280"></path>
<path d="M1.891 0.631 Q1.701 0.767 1.925 0.889" stroke="hsl(0.0,100%,35%)" stroke-width="0.00117"></path>
<path d="M1.891 0.631 Q1.637 0.690 1.696 0.827" stroke="hsl(0.0,100%,35%)" stroke-width="0.00054"></path>
<path d="M1.891 0.631 Q1.702 0.632 1.662 0.724" stroke="hsl(0.0,100%,35%)" stroke-width="0.00272"></path>
<path d="M1.891 0.631 Q1.950 0.528 1.763 0.477" stroke="hsl(0.0,100%,35%)" stroke-width="0.00132"></path>
<path d="M0.332 0.375 Q0.326 0.327 0.232 0.320" stroke="hsl(180.0,100%,35%)" stroke-width="0.00287"></path>
<path d="M0.332 0.375 Q0.479 0.302 0.370 0.215" stroke="hsl(180.0,100%,35%)" stroke-width="0.00132"></path>
<path d="M0.332 0.375 Q0.735 0.298 0.673 0.084" stroke="hsl(180.0,100%,35%)" stroke-width="0.00023"></path>
<path d="M0.332 0.375 Q0.572 0.212 0.306 0.059" stroke="hsl(180.0,100%,35%)" stroke-width="0.00023"></path>
<path d="M0.229 0.427 Q0.316 0.374 0.232 0.320" stroke="hsl(180.0,100%,35%)" stroke-width="0.00117"></path>
<path d="M0.229 0.427 Q0.469 0.349 0.370 0.215" stroke="hsl(180.0,100%,35%)" stroke-width="0.00023"></path>
<path d="M0.462 0.327 Q0.506 0.253 0.370 0.215" stroke="hsl(180.0,100%,35%)" stroke-width="0.00070"></path>
<path d="M0.462 0.327 Q0.353 0.277 0.232 0.320" stroke="hsl(180.0,100%,35%)" stroke-width="0.00132"></path>
<path d="M0.462 0.327 Q0.762 0.248 0.673 0.084" stroke="hsl(180.0,100%,35%)" stroke-width="0.00047"></path>
<path d="M0.307 0.459 Q0.533 0.350 0.370 0.215" stroke="hsl(180.0,100%,35%)" stroke-width="0.00218"></path>
<path d="M0.307 0.459 Q0.381 0.374 0.232 0.320" stroke="hsl(180.0,100%,35%)" stroke-width="0.00233"></path>
<path d="M0.307 0.459 Q0.490 0.424 0.462 0.327" stroke="hsl(180.0,100%,35%)" stroke-width="0.00054"></path>
<path d="M0.307 0.459 Q0.790 0.345 0.673 0.084" stroke="hsl(180.0,100%,35%)" stroke-width="0.00132"></path>
<path d="M0.201 0.216 Q0.286 0.249 0.370 0.215" stroke="hsl(180.0,100%,35%)" stroke-width="0.00520"></path>
<path d="M0.201 0.216 Q0.134 0.274 0.232 0.320" stroke="hsl(180.0,100%,35%)" stroke-width="0.00505"></path>
<path d="M0.201 0.216 Q0.243 0.324 0.462 0.327" stroke="hsl(180.0,100%,35%)" stroke-width="0.00047"></path>
<path d="M0.201 0.216 Q0.543 0.244 0.673 0.084" stroke="hsl(180.0,100%,35%)" stroke-width="0.00093"></path>
<path d="M0.131 0.122 Q0.176 0.216 0.370 0.215" stroke="hsl(180.0,100%,35%)" stroke-width="0.00171"></path>
<path d="M0.131 0.122 Q0.034 0.159 0.084 0.214" stroke="hsl(180.0,100%,35%)" stroke-width="0.00016"></path>
<path d="M0.462 -0.039 Q0.469 0.065 0.673 0.084" stroke="hsl(180.0,100%,35%)" stroke-width="0.00023"></path>
<path d="M0.173 0.437 Q0.296 0.390 0.232 0.320" stroke="hsl(180.0,100%,35%)" stroke-width="0.00054"></path>
<path d="M0.173 0.437 Q0.449 0.366 0.370 0.215" stroke="hsl(180.0,100%,35%)" stroke-width="0.00023"></path>
<path d="M0.174 0.118 Q0.194 0.206 0.370 0.215" stroke="hsl(180.0,100%,35%)" stroke-width="0.00691"></path>
<path d="M0.174 0.118 Q0.041 0.230 0.232 0.320" stroke="hsl(180.0,100%,35%)" stroke-width="0.00280"></path>
<path d="M0.478 0.375 Q0.552 0.274 0.370 0.215" stroke="hsl(180.0,100%,35%)" stroke-width="0.00179"></path>
<path d="M0.478 0.375 Q0.809 0.269 0.673 0.084" stroke="hsl(180.0,100%,35%)" stroke-width="0.00031"></path>
<path d="M0.478 0.375 Q0.855 0.869 1.900 0.793" stroke="hsl(180.0,100%,35%)" stroke-width="0.00016"></path>
<path d="M0.478 0.375 Q0.400 0.298 0.232 0.320" stroke="hsl(180.0,100%,35%)" stroke-width="0.00016"></path>
<path d="M0.464 0.382 Q0.398 0.304 0.232 0.320" stroke="hsl(180.0,100%,35%)" stroke-width="0.00117"></path>
<path d="M0.464 0.382 Q0.551 0.280 0.370 0.215" stroke="hsl(180.0,100%,35%)" stroke-width="0.00085"></path>
<path d="M0.464 0.382 Q0.807 0.275 0.673 0.084" stroke="hsl(180.0,100%,35%)" stroke-width="0.00023"></path>
<path d="M0.170 0.474 Q0.324 0.409 0.232 0.320" stroke="hsl(180.0,100%,35%)" stroke-width="0.00699"></path>
<path d="M0.170 0.474 Q0.476 0.385 0.370 0.215" stroke="hsl(180.0,100%,35%)" stroke-width="0.00482"></path>
<path d="M0.170 0.474 Q0.733 0.380 0.673 0.084" stroke="hsl(180.0,100%,35%)" stroke-width="0.00093"></path>
<path d="M0.170 0.474 Q0.187 0.402 0.051 0.377" stroke="hsl(180.0,100%,35%)" stroke-width="0.00070"></path>
<path d="M0.262 0.028 Q0.167 0.143 0.370 0.215" stroke="hsl(180.0,100%,35%)" stroke-width="0.00039"></path>
<path d="M0.262 0.028 Q0.014 0.168 0.232 0.320" stroke="hsl(180.0,100%,35%)" stroke-width="0.00023"></path>
<path d="M0.749 0.168 Q0.232 0.133 0.051 0.377" stroke="hsl(180.0,100%,35%)" stroke-width="0.00023"></path>
<path d="M0.749 0.168 Q0.521 0.116 0.370 0.215" stroke="hsl(180.0,100%,35%)" stroke-width="0.00031"></path>
<path d="M0.749 0.168 Q0.369 0.140 0.232 0.320" stroke="hsl(180.0,100%,35%)" stroke-width="0.00016"></path>
<path d="M0.749 0.168 Q0.478 0.190 0.462 0.327" stroke="hsl(180.0,100%,35%)" stroke-width="0.00016"></path>
<path d="M0.267 0.433 Q0.340 0.369 0.232 0.320" stroke="hsl(180.0,100%,35%)" stroke-width="0.00031"></path>
<path d="M0.321 0.386 Q0.329 0.335 0.232 0.320" stroke="hsl(180.0,100%,35%)" stroke-width="0.00427"></path>
<path d="M0.321 0.386 Q0.482 0.310 0.370 0.215" stroke="hsl(180.0,100%,35%)" stroke-width="0.00318"></path>
<path d="M0.321 0.386 Q0.193 0.328 0.051 0.377" stroke="hsl(180.0,100%,35%)" stroke-width="0.00016"></path>
<path d="M0.321 0.386 Q0.738 0.305 0.673 0.084" stroke="hsl(180.0,100%,35%)" stroke-width="0.00093"></path>
<path d="M0.273 0.398 Q0.468 0.326 0.370 0.215" stroke="hsl(180.0,100%,35%)" stroke-width="0.00140"></path>
<path d="M0.273 0.398 Q0.315 0.351 0.232 0.320" stroke="hsl(180.0,100%,35%)" stroke-width="0.00148"></path>
<path d="M0.273 0.398 Q0.179 0.343 0.051 0.377" stroke="hsl(180.0,100%,35%)" stroke-width="0.00023"></path>
<path d="M0.273 0.398 Q0.707 0.839 1.662 0.724" stroke="hsl(180.0,100%,35%)" stroke-width="0.00093"></path>
<path d="M0.273 0.398 Q0.955 0.736 1.763 0.477" stroke="hsl(180.0,100%,35%)" stroke-width="0.00039"></path>
<path d="M0.208 -0.086 Q-0.105 0.121 0.232 0.320" stroke="hsl(180.0,100%,35%)" stroke-width="0.00016"></path>
<path d="M0.208 -0.086 Q0.048 0.097 0.370 0.215" stroke="hsl(180.0,100%,35%)" stroke-width="0.00023"></path>
<path d="M0.170 0.136 Q0.054 0.240 0.232 0.320" stroke="hsl(180.0,100%,35%)" stroke-width="0.00054"></path>
<path d="M0.170 0.136 Q0.206 0.216 0.370 0.215" stroke="hsl(180.0,100%,35%)" stroke-width="0.00093"></path>
<path d="M0.170 0.136 Q0.463 0.211 0.673 0.084" stroke="hsl(180.0,100%,35%)" stroke-width="0.00031"></path>
<path d="M0.763 0.180 Q0.539 0.119 0.370 0.215" stroke="hsl(180.0,100%,35%)" stroke-width="0.00054"></path>
<path d="M0.763 0.180 Q0.386 0.144 0.232 0.320" stroke="hsl(180.0,100%,35%)" stroke-width="0.00085"></path>
<path d="M0.763 0.180 Q0.795 0.114 0.673 0.084" stroke="hsl(180.0,100%,35%)" stroke-width="0.00093"></path>
<path d="M0.763 0.180 Q0.778 0.632 1.662 0.724" stroke="hsl(180.0,100%,35%)" stroke-width="0.00039"></path>
<path d="M0.415 0.341 Q0.494 0.269 0.370 0.215" stroke="hsl(180.0,100%,35%)" stroke-width="0.00225"></path>
<path d="M0.415 0.341 Q0.341 0.294 0.232 0.320" stroke="hsl(180.0,100%,35%)" stroke-width="0.00109"></path>
<path d="M0.600 0.797 Q0.950 0.460 0.370 0.215" stroke="hsl(180.0,100%,35%)" stroke-width="0.00016"></path>
<path d="M0.600 0.797 Q0.797 0.485 0.232 0.320" stroke="hsl(180.0,100%,35%)" stroke-width="0.00031"></path>
<path d="M1.888 0.481 Q1.761 0.525 1.821 0.597" stroke="hsl(0.0,100%,35%)" stroke-width="0.00124"></path>
<path d="M1.888 0.481 Q1.769 0.557 1.891 0.631" stroke="hsl(0.0,100%,35%)" stroke-width="0.00093"></path>
<path d="M1.888 0.481 Q1.828 0.454 1.763 0.477" stroke="hsl(0.0,100%,35%)" stroke-width="0.00458"></path>
<path d="M0.490 0.448 Q0.616 0.308 0.370 0.215" stroke="hsl(180.0,100%,35%)" stroke-width="0.00179"></path>
<path d="M0.490 0.448 Q0.709 0.217 0.306 0.059" stroke="hsl(180.0,100%,35%)" stroke-width="0.00039"></path>
<path d="M0.490 0.448 Q0.484 0.426 0.440 0.424" stroke="hsl(180.0,100%,35%)" stroke-width="0.00047"></path>
<path d="M0.490 0.448 Q0.770 0.284 0.512 0.112" stroke="hsl(180.0,100%,35%)" stroke-width="0.00031"></path>
<path d="M0.490 0.448 Q0.919 0.903 1.900 0.793" stroke="hsl(180.0,100%,35%)" stroke-width="0.00031"></path>
<path d="M0.186 0.103 Q0.168 0.108 0.174 0.118" stroke="hsl(180.0,100%,35%)" stroke-width="0.00218"></path>
<path d="M0.186 0.103 Q0.036 0.221 0.232 0.320" stroke="hsl(180.0,100%,35%)" stroke-width="0.00334"></path>
<path d="M0.186 0.103 Q0.188 0.196 0.370 0.215" stroke="hsl(180.0,100%,35%)" stroke-width="0.00412"></path>
<path d="M0.186 0.103 Q0.281 0.105 0.306 0.059" stroke="hsl(180.0,100%,35%)" stroke-width="0.00016"></path>
<path d="M0.588 0.244 Q0.502 0.186 0.370 0.215" stroke="hsl(180.0,100%,35%)" stroke-width="0.00093"></path>
<path d="M0.588 0.244 Q0.350 0.211 0.232 0.320" stroke="hsl(180.0,100%,35%)" stroke-width="0.00085"></path>
<path d="M0.588 0.244 Q0.595 0.095 0.306 0.059" stroke="hsl(180.0,100%,35%)" stroke-width="0.00031"></path>
<path d="M0.588 0.244 Q0.805 0.781 1.900 0.793" stroke="hsl(180.0,100%,35%)" stroke-width="0.00023"></path>
<path d="M0.449 0.391 Q0.550 0.287 0.370 0.215" stroke="hsl(180.0,100%,35%)" stroke-width="0.00140"></path>
<path d="M0.449 0.391 Q0.398 0.312 0.232 0.320" stroke="hsl(180.0,100%,35%)" stroke-width="0.00031"></path>
<path d="M0.449 0.391 Q0.644 0.197 0.306 0.059" stroke="hsl(180.0,100%,35%)" stroke-width="0.00016"></path>
<path d="M0.545 0.314 Q0.537 0.229 0.370 0.215" stroke="hsl(180.0,100%,35%)" stroke-width="0.00070"></path>
<path d="M0.545 0.314 Q0.384 0.254 0.232 0.320" stroke="hsl(180.0,100%,35%)" stroke-width="0.00047"></path>
<path d="M0.545 0.314 Q0.452 0.196 0.201 0.216" stroke="hsl(180.0,100%,35%)" stroke-width="0.00047"></path>
<path d="M0.545 0.314 Q0.493 0.304 0.462 0.327" stroke="hsl(180.0,100%,35%)" stroke-width="0.00016"></path>
<path d="M0.258 -0.147 Q-0.128 0.081 0.232 0.320" stroke="hsl(180.0,100%,35%)" stroke-width="0.00023"></path>
<path d="M0.445 0.365 Q0.426 0.379 0.449 0.391" stroke="hsl(180.0,100%,35%)" stroke-width="0.00016"></path>
<path d="M0.445 0.365 Q0.375 0.299 0.232 0.320" stroke="hsl(180.0,100%,35%)" stroke-width="0.00031"></path>
<path d="M0.445 0.365 Q0.527 0.275 0.370 0.215" stroke="hsl(180.0,100%,35%)" stroke-width="0.00023"></path>
<path d="M0.820 0.200 Q0.839 0.113 0.673 0.084" stroke="hsl(180.0,100%,35%)" stroke-width="0.00016"></path>
<path d="M1.849 0.287 Q1.587 0.436 1.821 0.597" stroke="hsl(0.0,100%,35%)" stroke-width="0.00023"></path>
<path d="M1.849 0.287 Q1.715 0.201 1.519 0.248" stroke="hsl(0.0,100%,35%)" stroke-width="0.00016"></path>
<path d="M1.726 0.662 Q1.708 0.762 1.900 0.793" stroke="hsl(0.0,100%,35%)" stroke-width="0.00085"></path>
<path d="M1.726 0.662 Q1.405 0.167 0.370 0.215" stroke="hsl(0.0,100%,35%)" stroke-width="0.00016"></path>
<path d="M0.408 0.318 Q0.319 0.284 0.232 0.320" stroke="hsl(180.0,100%,35%)" stroke-width="0.00054"></path>
<path d="M0.408 0.318 Q0.472 0.259 0.370 0.215" stroke="hsl(180.0,100%,35%)" stroke-width="0.00031"></path>
<path d="M0.408 0.318 Q0.728 0.254 0.673 0.084" stroke="hsl(180.0,100%,35%)" stroke-width="0.00031"></path>
<path d="M1.461 1.117 Q1.636 0.448 0.370 0.215" stroke="hsl(0.0,100%,35%)" stroke-width="0.00023"></path>
<path d="M1.461 1.117 Q1.810 1.019 1.696 0.827" stroke="hsl(0.0,100%,35%)" stroke-width="0.00031"></path>
<path d="M1.337 0.163 Q0.659 0.020 0.232 0.320" stroke="hsl(180.0,100%,35%)" stroke-width="0.00093"></path>
<path d="M1.337 0.163 Q0.811 -0.005 0.370 0.215" stroke="hsl(180.0,100%,35%)" stroke-width="0.00078"></path>
<path d="M1.337 0.163 Q0.522 0.013 0.051 0.377" stroke="hsl(180.0,100%,35%)" stroke-width="0.00023"></path>
<path d="M0.236 0.388 Q0.288 0.353 0.232 0.320" stroke="hsl(180.0,100%,35%)" stroke-width="0.00016"></path>
<path d="M0.203 0.439 Q0.466 0.361 0.370 0.215" stroke="hsl(180.0,100%,35%)" stroke-width="0.00016"></path>
<path d="M0.203 0.439 Q0.313 0.385 0.232 0.320" stroke="hsl(180.0,100%,35%)" stroke-width="0.00016"></path>
<path d="M0.109 0.451 Q0.276 0.410 0.232 0.320" stroke="hsl(180.0,100%,35%)" stroke-width="0.00023"></path>
<path d="M0.502 0.334 Q0.378 0.273 0.232 0.320" stroke="hsl(180.0,100%,35%)" stroke-width="0.00070"></path>
<path d="M0.238 0.327 Q0.393 0.297 0.370 0.215" stroke="hsl(180.0,100%,35%)" stroke-width="0.00031"></path>
<path d="M0.238 0.327 Q0.241 0.322 0.232 0.320" stroke="hsl(180.0,100%,35%)" stroke-width="0.00047"></path>
<path d="M0.854 0.562 Q0.737 0.316 0.232 0.320" stroke="hsl(180.0,100%,35%)" stroke-width="0.00023"></path>
<path d="M0.854 0.562 Q1.310 0.773 1.821 0.597" stroke="hsl(180.0,100%,35%)" stroke-width="0.00016"></path>
<path d="M0.548 0.444 Q0.642 0.294 0.370 0.215" stroke="hsl(180.0,100%,35%)" stroke-width="0.00023"></path>
<path d="M0.548 0.444 Q0.490 0.319 0.232 0.320" stroke="hsl(180.0,100%,35%)" stroke-width="0.00023"></path>
<path d="M0.170 -0.108 Q-0.141 0.118 0.232 0.320" stroke="hsl(180.0,100%,35%)" stroke-width="0.00016"></path>
<path d="M0.341 0.376 Q0.332 0.326 0.232 0.320" stroke="hsl(180.0,100%,35%)" stroke-width="0.00054"></path>
<path d="M0.341 0.376 Q0.195 0.319 0.051 0.377" stroke="hsl(180.0,100%,35%)" stroke-width="0.00031"></path>
<path d="M0.341 0.376 Q0.484 0.302 0.370 0.215" stroke="hsl(180.0,100%,35%)" stroke-width="0.00016"></path>
<path d="M0.120 0.480 Q0.168 0.415 0.051 0.377" stroke="hsl(180.0,100%,35%)" stroke-width="0.00023"></path>
<path d="M0.120 0.480 Q0.457 0.398 0.370 0.215" stroke="hsl(180.0,100%,35%)" stroke-width="0.00016"></path>
<path d="M0.120 0.480 Q0.304 0.422 0.232 0.320" stroke="hsl(180.0,100%,35%)" stroke-width="0.00023"></path>
<path d="M0.557 0.319 Q0.394 0.254 0.232 0.320" stroke="hsl(180.0,100%,35%)" stroke-width="0.00023"></path>
<path d="M0.557 0.319 Q0.546 0.230 0.370 0.215" stroke="hsl(180.0,100%,35%)" stroke-width="0.00023"></path>
</g>
<text x="1.868" y="0.500" font-size="0.009089" fill="hsl(0.0,100%,20%)">afdx</text>
<text x="1.900" y="0.750" font-size="0.086399" fill="hsl(0.0,100%,20%)">bclayton</text>
<text x="1.821" y="0.580" font-size="0.033585" fill="hsl(0.0,100%,20%)">rharrison</text>
<text x="1.925" y="0.869" font-size="0.041488" fill="hsl(0.0,100%,20%)">amaiorano</text>
<text x="1.508" y="1.185" font-size="0.006004" fill="hsl(0.0,100%,20%)">vasniktel</text>
<text x="0.339" y="0.398" font-size="0.004419" fill="hsl(180.0,100%,20%)">albin.bernhardsson</text>
<text x="0.232" y="0.281" font-size="0.076555" fill="hsl(180.0,100%,20%)">cwallez</text>
<text x="1.662" y="0.691" font-size="0.065997" fill="hsl(0.0,100%,20%)">dsinclair</text>
<text x="0.673" y="0.065" font-size="0.037334" fill="hsl(180.0,100%,20%)">kainino</text>
<text x="0.370" y="0.178" font-size="0.074597" fill="hsl(180.0,100%,20%)">enga</text>
<text x="0.171" y="0.216" font-size="0.003677" fill="hsl(180.0,100%,20%)">aleksi</text>
<text x="0.151" y="0.125" font-size="0.003466" fill="hsl(180.0,100%,20%)">aleksi.sapon</text>
<text x="0.306" y="0.044" font-size="0.030169" fill="hsl(180.0,100%,20%)">lokokung</text>
<text x="1.696" y="0.802" font-size="0.048575" fill="hsl(0.0,100%,20%)">jrprice</text>
<text x="1.763" y="0.454" font-size="0.046409" fill="hsl(0.0,100%,20%)">dneto</text>
<text x="1.532" y="0.567" font-size="0.008491" fill="hsl(0.0,100%,20%)">alanbaker</text>
<text x="0.512" y="0.101" font-size="0.022094" fill="hsl(180.0,100%,20%)">bajones</text>
<text x="1.669" y="0.927" font-size="0.001226" fill="hsl(0.0,100%,20%)">sugoi</text>
<text x="1.729" y="0.940" font-size="0.001226" fill="hsl(0.0,100%,20%)">armansito</text>
<text x="1.952" y="0.611" font-size="0.002451" fill="hsl(180.0,100%,20%)">andre</text>
<text x="0.223" y="0.401" font-size="0.003466" fill="hsl(180.0,100%,20%)">austineng</text>
<text x="0.413" y="0.076" font-size="0.017590" fill="hsl(180.0,100%,20%)">shrekshao</text>
<text x="0.232" y="-0.062" font-size="0.002451" fill="hsl(180.0,100%,20%)">avi</text>
<text x="0.088" y="0.225" font-size="0.020507" fill="hsl(180.0,100%,20%)">yunchao.he</text>
<text x="0.658" y="0.683" font-size="0.001226" fill="hsl(180.0,100%,20%)">headlessclayton</text>
<text x="0.051" y="0.360" font-size="0.035008" fill="hsl(180.0,100%,20%)">jiawei.shao</text>
<text x="0.440" y="0.410" font-size="0.029591" fill="hsl(180.0,100%,20%)">senorblanco</text>
<text x="0.507" y="0.348" font-size="0.015742" fill="hsl(180.0,100%,20%)">brandon1.jones</text>
<text x="1.941" y="0.648" font-size="0.014553" fill="hsl(180.0,100%,20%)">zhaoming.jiang</text>
<text x="1.891" y="0.622" font-size="0.017332" fill="hsl(0.0,100%,20%)">sarahmashay</text>
<text x="1.362" y="0.861" font-size="0.002123" fill="hsl(0.0,100%,20%)">allydonaldson</text>
<text x="1.958" y="-0.788" font-size="0.001226" fill="hsl(0.0,100%,20%)">kjlubick</text>
<text x="0.556" y="-4.484" font-size="0.001733" fill="hsl(180.0,100%,20%)">brucedawson</text>
<text x="0.332" y="0.370" font-size="0.009804" fill="hsl(180.0,100%,20%)">beaufort.francois</text>
<text x="0.229" y="0.425" font-size="0.005342" fill="hsl(180.0,100%,20%)">blundell</text>
<text x="0.462" y="0.322" font-size="0.010031" fill="hsl(180.0,100%,20%)">rafael.cintron</text>
<text x="0.307" y="0.453" font-size="0.011232" fill="hsl(180.0,100%,20%)">natlee</text>
<text x="0.201" y="0.208" font-size="0.015885" fill="hsl(180.0,100%,20%)">bryan.bernhart</text>
<text x="0.131" y="0.119" font-size="0.006824" fill="hsl(180.0,100%,20%)">bsheedy</text>
<text x="0.084" y="0.213" font-size="0.001733" fill="hsl(180.0,100%,20%)">gbeaty</text>
<text x="0.556" y="0.088" font-size="0.002123" fill="hsl(180.0,100%,20%)">capn</text>
<text x="0.462" y="-0.040" font-size="0.002740" fill="hsl(180.0,100%,20%)">ccameron</text>
<text x="0.173" y="0.435" font-size="0.004065" fill="hsl(180.0,100%,20%)">cjj19970505</text>
<text x="0.174" y="0.110" font-size="0.015932" fill="hsl(180.0,100%,20%)">penghuang</text>
<text x="0.478" y="0.371" font-size="0.007455" fill="hsl(180.0,100%,20%)">ynovikov</text>
<text x="0.464" y="0.379" font-size="0.006824" fill="hsl(180.0,100%,20%)">hogehoge</text>
<text x="0.170" y="0.465" font-size="0.016714" fill="hsl(180.0,100%,20%)">hao.x.li</text>
<text x="0.072" y="0.314" font-size="0.001733" fill="hsl(180.0,100%,20%)">fbeaufort</text>
<text x="0.262" y="0.026" font-size="0.004419" fill="hsl(180.0,100%,20%)">rockot</text>
<text x="0.749" y="0.166" font-size="0.004245" fill="hsl(180.0,100%,20%)">jiajia.qin</text>
<text x="0.267" y="0.431" font-size="0.004245" fill="hsl(180.0,100%,20%)">thakis</text>
<text x="1.643" y="0.405" font-size="0.002451" fill="hsl(0.0,100%,20%)">jmadill</text>
<text x="0.321" y="0.379" font-size="0.013142" fill="hsl(180.0,100%,20%)">shaobo.yan</text>
<text x="1.445" y="1.302" font-size="0.002123" fill="hsl(0.0,100%,20%)">johnstiles</text>
<text x="0.273" y="0.393" font-size="0.009333" fill="hsl(180.0,100%,20%)">tommek</text>
<text x="0.122" y="3.785" font-size="0.001226" fill="hsl(180.0,100%,20%)">sque</text>
<text x="0.208" y="-0.088" font-size="0.003466" fill="hsl(180.0,100%,20%)">zmo</text>
<text x="0.331" y="0.400" font-size="0.003876" fill="hsl(180.0,100%,20%)">digit</text>
<text x="0.170" y="0.133" font-size="0.006128" fill="hsl(180.0,100%,20%)">hob</text>
<text x="0.484" y="-0.706" font-size="0.001226" fill="hsl(180.0,100%,20%)">oshima</text>
<text x="0.325" y="-0.336" font-size="0.001226" fill="hsl(180.0,100%,20%)">afakhry</text>
<text x="0.763" y="0.177" font-size="0.007555" fill="hsl(180.0,100%,20%)">idanr</text>
<text x="0.901" y="0.075" font-size="0.001733" fill="hsl(180.0,100%,20%)">tandrii</text>
<text x="0.178" y="0.064" font-size="0.002123" fill="hsl(180.0,100%,20%)">kbr</text>
<text x="0.415" y="0.337" font-size="0.008838" fill="hsl(180.0,100%,20%)">lehoangquyen</text>
<text x="0.349" y="0.446" font-size="0.001733" fill="hsl(180.0,100%,20%)">arthursonzogni</text>
<text x="0.081" y="0.311" font-size="0.001226" fill="hsl(180.0,100%,20%)">jamesgk</text>
<text x="0.600" y="0.795" font-size="0.003466" fill="hsl(180.0,100%,20%)">cwoffenden</text>
<text x="0.317" y="0.423" font-size="0.002123" fill="hsl(180.0,100%,20%)">danakj</text>
<text x="1.888" y="0.475" font-size="0.011627" fill="hsl(0.0,100%,20%)">dj2</text>
<text x="0.490" y="0.443" font-size="0.009006" fill="hsl(180.0,100%,20%)">gman</text>
<text x="0.186" y="0.096" font-size="0.013973" fill="hsl(180.0,100%,20%)">jie.a.chen</text>
<text x="0.237" y="0.213" font-size="0.002123" fill="hsl(180.0,100%,20%)">toji</text>
<text x="0.588" y="0.241" font-size="0.006933" fill="hsl(180.0,100%,20%)">tiszka</text>
<text x="0.449" y="0.388" font-size="0.006485" fill="hsl(180.0,100%,20%)">sunnyps</text>
<text x="0.159" y="-0.547" font-size="0.001226" fill="hsl(180.0,100%,20%)">mtklein</text>
<text x="0.155" y="0.129" font-size="0.001733" fill="hsl(180.0,100%,20%)">mehe</text>
<text x="0.545" y="0.311" font-size="0.006128" fill="hsl(180.0,100%,20%)">enrico.galli</text>
<text x="0.258" y="-0.148" font-size="0.002451" fill="hsl(180.0,100%,20%)">fjhenigman</text>
<text x="0.751" y="0.370" font-size="0.003242" fill="hsl(0.0,100%,20%)">hans</text>
<text x="0.872" y="0.453" font-size="0.001226" fill="hsl(0.0,100%,20%)">hwennborg</text>
<text x="0.445" y="0.363" font-size="0.003677" fill="hsl(180.0,100%,20%)">hitawala</text>
<text x="0.820" y="0.199" font-size="0.002451" fill="hsl(180.0,100%,20%)">iannucci</text>
<text x="1.849" y="0.285" font-size="0.003002" fill="hsl(0.0,100%,20%)">jamessliu2020</text>
<text x="1.519" y="0.247" font-size="0.001733" fill="hsl(0.0,100%,20%)">paulthomson</text>
<text x="1.726" y="0.659" font-size="0.004902" fill="hsl(0.0,100%,20%)">jason.erb</text>
<text x="0.408" y="0.316" font-size="0.004747" fill="hsl(180.0,100%,20%)">jiajie.hu</text>
<text x="0.307" y="0.488" font-size="0.002123" fill="hsl(180.0,100%,20%)">jianlin.qiu</text>
<text x="1.461" y="1.115" font-size="0.003466" fill="hsl(0.0,100%,20%)">jojwang</text>
<text x="1.337" y="0.159" font-size="0.006249" fill="hsl(180.0,100%,20%)">junwei.fu</text>
<text x="1.409" y="0.072" font-size="0.001226" fill="hsl(180.0,100%,20%)">ningxin.hu</text>
<text x="1.951" y="0.591" font-size="0.002740" fill="hsl(180.0,100%,20%)">jwata</text>
<text x="0.236" y="0.386" font-size="0.002740" fill="hsl(180.0,100%,20%)">ukai</text>
<text x="0.203" y="0.438" font-size="0.003242" fill="hsl(180.0,100%,20%)">pkasting</text>
<text x="1.513" y="0.472" font-size="0.001733" fill="hsl(0.0,100%,20%)">mmoroz</text>
<text x="0.109" y="0.450" font-size="0.002740" fill="hsl(180.0,100%,20%)">stephen</text>
<text x="0.502" y="0.331" font-size="0.004586" fill="hsl(180.0,100%,20%)">stha09</text>
<text x="1.246" y="0.861" font-size="0.001733" fill="hsl(180.0,100%,20%)">svenzheng</text>
<text x="1.214" y="0.966" font-size="0.001226" fill="hsl(180.0,100%,20%)">lgrey</text>
<text x="0.238" y="0.325" font-size="0.004065" fill="hsl(180.0,100%,20%)">tangm</text>
<text x="0.854" y="0.560" font-size="0.003242" fill="hsl(180.0,100%,20%)">vadimsh</text>
<text x="0.684" y="0.685" font-size="0.001226" fill="hsl(180.0,100%,20%)">deleted</text>
<text x="0.548" y="0.443" font-size="0.003242" fill="hsl(180.0,100%,20%)">vollick</text>
<text x="0.170" y="-0.109" font-size="0.002451" fill="hsl(180.0,100%,20%)">wangqing-hf</text>
<text x="0.341" y="0.374" font-size="0.004747" fill="hsl(180.0,100%,20%)">xinghua.cao</text>
<text x="0.120" y="0.478" font-size="0.003876" fill="hsl(180.0,100%,20%)">yang.gu</text>
<text x="0.557" y="0.317" font-size="0.003242" fill="hsl(180.0,100%,20%)">yizhou.jiang</text>
</svg>
