<svg width="4000" height="2000" viewBox="-0.025 -0.025 2.05 1.05" xmlns="http://www.w3.org/2000/svg">
  <style>
    path {
      fill: none;
      stroke-linecap: round;
      stroke-opacity: 0.4;
    }

    text {
      text-anchor: middle;
      alignment-baseline: hanging;
    }
  </style>
  <g opacity="0.4">
<path d="M0.879 0.163 Q0.516 0.176 0.460 0.356" stroke="hsl(0.0,100%,35%)" stroke-width="0.00520"></path>
<path d="M0.879 0.163 Q0.736 0.225 0.824 0.308" stroke="hsl(0.0,100%,35%)" stroke-width="0.00384"></path>
<path d="M0.879 0.163 Q0.746 0.320 1.022 0.419" stroke="hsl(0.0,100%,35%)" stroke-width="0.00023"></path>
<path d="M0.879 0.163 Q0.884 0.069 0.700 0.045" stroke="hsl(0.0,100%,35%)" stroke-width="0.00045"></path>
<path d="M0.460 0.356 Q0.691 0.500 1.022 0.419" stroke="hsl(0.0,100%,35%)" stroke-width="0.00158"></path>
<path d="M0.460 0.356 Q0.680 0.405 0.824 0.308" stroke="hsl(0.0,100%,35%)" stroke-width="0.01536"></path>
<path d="M0.460 0.356 Q0.666 0.239 0.484 0.114" stroke="hsl(0.0,100%,35%)" stroke-width="0.00384"></path>
<path d="M0.460 0.356 Q0.264 0.722 0.937 0.899" stroke="hsl(0.0,100%,35%)" stroke-width="0.00474"></path>
<path d="M0.460 0.356 Q0.100 0.730 0.753 0.988" stroke="hsl(0.0,100%,35%)" stroke-width="0.00610"></path>
<path d="M0.460 0.356 Q0.781 0.312 0.766 0.146" stroke="hsl(0.0,100%,35%)" stroke-width="0.00158"></path>
<path d="M0.460 0.356 Q0.823 0.343 0.879 0.163" stroke="hsl(0.0,100%,35%)" stroke-width="0.00068"></path>
<path d="M0.460 0.356 Q0.429 0.471 0.647 0.511" stroke="hsl(0.0,100%,35%)" stroke-width="0.00068"></path>
<path d="M0.460 0.356 Q0.759 0.483 1.074 0.366" stroke="hsl(0.0,100%,35%)" stroke-width="0.00090"></path>
<path d="M0.824 0.308 Q0.835 0.403 1.022 0.419" stroke="hsl(0.0,100%,35%)" stroke-width="0.05874"></path>
<path d="M0.824 0.308 Q0.245 0.634 0.753 0.988" stroke="hsl(0.0,100%,35%)" stroke-width="0.02869"></path>
<path d="M0.824 0.308 Q0.925 0.216 0.766 0.146" stroke="hsl(0.0,100%,35%)" stroke-width="0.04767"></path>
<path d="M0.824 0.308 Q0.810 0.143 0.484 0.114" stroke="hsl(0.0,100%,35%)" stroke-width="0.05512"></path>
<path d="M0.824 0.308 Q0.604 0.259 0.460 0.356" stroke="hsl(0.0,100%,35%)" stroke-width="0.00746"></path>
<path d="M0.824 0.308 Q0.505 0.543 0.892 0.750" stroke="hsl(0.0,100%,35%)" stroke-width="0.00045"></path>
<path d="M0.824 0.308 Q0.408 0.626 0.937 0.899" stroke="hsl(0.0,100%,35%)" stroke-width="0.01355"></path>
<path d="M0.824 0.308 Q0.763 0.221 0.579 0.232" stroke="hsl(0.0,100%,35%)" stroke-width="0.00158"></path>
<path d="M0.824 0.308 Q0.684 0.347 0.728 0.423" stroke="hsl(0.0,100%,35%)" stroke-width="0.00136"></path>
<path d="M0.824 0.308 Q0.972 0.152 0.700 0.045" stroke="hsl(0.0,100%,35%)" stroke-width="0.00045"></path>
<path d="M0.824 0.308 Q0.665 0.450 0.906 0.559" stroke="hsl(0.0,100%,35%)" stroke-width="0.00023"></path>
<path d="M0.824 0.308 Q0.884 -0.001 0.293 -0.098" stroke="hsl(0.0,100%,35%)" stroke-width="0.00023"></path>
<path d="M0.824 0.308 Q0.580 0.639 1.172 0.831" stroke="hsl(0.0,100%,35%)" stroke-width="0.00023"></path>
<path d="M0.824 0.308 Q0.999 0.275 0.972 0.182" stroke="hsl(0.0,100%,35%)" stroke-width="0.00045"></path>
<path d="M0.824 0.308 Q0.903 0.387 1.074 0.366" stroke="hsl(0.0,100%,35%)" stroke-width="0.01243"></path>
<path d="M1.022 0.419 Q1.012 0.324 0.824 0.308" stroke="hsl(0.0,100%,35%)" stroke-width="0.03208"></path>
<path d="M1.022 0.419 Q0.998 0.159 0.484 0.114" stroke="hsl(0.0,100%,35%)" stroke-width="0.00316"></path>
<path d="M1.022 0.419 Q1.113 0.231 0.766 0.146" stroke="hsl(0.0,100%,35%)" stroke-width="0.00339"></path>
<path d="M1.022 0.419 Q0.432 0.650 0.753 0.988" stroke="hsl(0.0,100%,35%)" stroke-width="0.00203"></path>
<path d="M1.022 0.419 Q0.596 0.642 0.937 0.899" stroke="hsl(0.0,100%,35%)" stroke-width="0.00068"></path>
<path d="M0.700 0.045 Q0.332 0.153 0.460 0.356" stroke="hsl(0.0,100%,35%)" stroke-width="0.00090"></path>
<path d="M0.700 0.045 Q0.552 0.202 0.824 0.308" stroke="hsl(0.0,100%,35%)" stroke-width="0.00136"></path>
<path d="M0.700 0.045 Q0.695 0.140 0.879 0.163" stroke="hsl(0.0,100%,35%)" stroke-width="0.00045"></path>
<path d="M0.700 0.045 Q0.611 -0.108 0.293 -0.098" stroke="hsl(0.0,100%,35%)" stroke-width="0.00045"></path>
<path d="M0.700 0.045 Q0.652 0.109 0.766 0.146" stroke="hsl(0.0,100%,35%)" stroke-width="0.00023"></path>
<path d="M0.700 0.045 Q0.631 0.280 1.074 0.366" stroke="hsl(0.0,100%,35%)" stroke-width="0.00023"></path>
<path d="M0.456 0.916 Q0.711 1.004 0.937 0.899" stroke="hsl(180.0,100%,35%)" stroke-width="0.00023"></path>
<path d="M0.456 0.916 Q0.547 1.012 0.753 0.988" stroke="hsl(180.0,100%,35%)" stroke-width="0.00045"></path>
<path d="M0.456 0.916 Q1.127 0.686 0.824 0.308" stroke="hsl(180.0,100%,35%)" stroke-width="0.00023"></path>
<path d="M0.937 0.899 Q1.274 0.977 1.500 0.829" stroke="hsl(180.0,100%,35%)" stroke-width="0.00520"></path>
<path d="M0.937 0.899 Q1.193 0.723 0.906 0.559" stroke="hsl(180.0,100%,35%)" stroke-width="0.00384"></path>
<path d="M0.937 0.899 Q0.773 0.907 0.753 0.988" stroke="hsl(180.0,100%,35%)" stroke-width="0.01604"></path>
<path d="M0.937 0.899 Q0.715 0.833 0.538 0.927" stroke="hsl(180.0,100%,35%)" stroke-width="0.00068"></path>
<path d="M0.937 0.899 Q1.034 0.815 0.892 0.750" stroke="hsl(180.0,100%,35%)" stroke-width="0.00249"></path>
<path d="M0.937 0.899 Q0.664 0.883 0.574 1.013" stroke="hsl(180.0,100%,35%)" stroke-width="0.00384"></path>
<path d="M0.937 0.899 Q0.805 0.864 0.710 0.921" stroke="hsl(180.0,100%,35%)" stroke-width="0.00045"></path>
<path d="M0.937 0.899 Q1.363 0.676 1.022 0.419" stroke="hsl(180.0,100%,35%)" stroke-width="0.00023"></path>
<path d="M0.937 0.899 Q1.133 0.532 0.460 0.356" stroke="hsl(180.0,100%,35%)" stroke-width="0.00045"></path>
<path d="M0.937 0.899 Q1.338 0.415 0.484 0.114" stroke="hsl(180.0,100%,35%)" stroke-width="0.00090"></path>
<path d="M0.937 0.899 Q1.338 0.893 1.414 0.696" stroke="hsl(180.0,100%,35%)" stroke-width="0.00045"></path>
<path d="M0.937 0.899 Q1.353 0.581 0.824 0.308" stroke="hsl(180.0,100%,35%)" stroke-width="0.00294"></path>
<path d="M0.937 0.899 Q1.454 0.488 0.766 0.146" stroke="hsl(180.0,100%,35%)" stroke-width="0.00023"></path>
<path d="M0.937 0.899 Q1.291 0.494 0.579 0.232" stroke="hsl(180.0,100%,35%)" stroke-width="0.00474"></path>
<path d="M0.937 0.899 Q1.331 0.752 1.133 0.528" stroke="hsl(180.0,100%,35%)" stroke-width="0.00068"></path>
<path d="M0.937 0.899 Q1.149 0.878 1.156 0.770" stroke="hsl(180.0,100%,35%)" stroke-width="0.00023"></path>
<path d="M0.937 0.899 Q0.928 0.753 0.641 0.725" stroke="hsl(180.0,100%,35%)" stroke-width="0.00113"></path>
<path d="M0.753 0.988 Q1.332 0.663 0.824 0.308" stroke="hsl(180.0,100%,35%)" stroke-width="0.01333"></path>
<path d="M0.753 0.988 Q0.917 0.980 0.937 0.899" stroke="hsl(180.0,100%,35%)" stroke-width="0.02824"></path>
<path d="M0.753 0.988 Q1.253 1.058 1.500 0.829" stroke="hsl(180.0,100%,35%)" stroke-width="0.00407"></path>
<path d="M0.753 0.988 Q1.318 0.497 0.484 0.114" stroke="hsl(180.0,100%,35%)" stroke-width="0.00045"></path>
<path d="M0.753 0.988 Q1.013 0.897 0.892 0.750" stroke="hsl(180.0,100%,35%)" stroke-width="0.00791"></path>
<path d="M0.753 0.988 Q1.113 0.613 0.460 0.356" stroke="hsl(180.0,100%,35%)" stroke-width="0.00203"></path>
<path d="M0.753 0.988 Q1.173 0.804 0.906 0.559" stroke="hsl(180.0,100%,35%)" stroke-width="0.00226"></path>
<path d="M0.753 0.988 Q0.785 0.946 0.710 0.921" stroke="hsl(180.0,100%,35%)" stroke-width="0.00045"></path>
<path d="M0.753 0.988 Q0.892 0.808 0.571 0.700" stroke="hsl(180.0,100%,35%)" stroke-width="0.00045"></path>
<path d="M0.753 0.988 Q0.566 0.938 0.427 1.018" stroke="hsl(180.0,100%,35%)" stroke-width="0.00023"></path>
<path d="M0.753 0.988 Q1.104 1.093 1.386 0.945" stroke="hsl(180.0,100%,35%)" stroke-width="0.00023"></path>
<path d="M0.753 0.988 Q1.271 0.575 0.579 0.232" stroke="hsl(180.0,100%,35%)" stroke-width="0.00587"></path>
<path d="M0.753 0.988 Q0.694 0.915 0.538 0.927" stroke="hsl(180.0,100%,35%)" stroke-width="0.00023"></path>
<path d="M0.753 0.988 Q0.643 0.965 0.574 1.013" stroke="hsl(180.0,100%,35%)" stroke-width="0.00316"></path>
<path d="M0.753 0.988 Q1.197 0.968 1.254 0.746" stroke="hsl(180.0,100%,35%)" stroke-width="0.00023"></path>
<path d="M0.753 0.988 Q0.879 0.912 0.757 0.833" stroke="hsl(180.0,100%,35%)" stroke-width="0.00023"></path>
<path d="M0.753 0.988 Q1.433 0.570 0.766 0.146" stroke="hsl(180.0,100%,35%)" stroke-width="0.00023"></path>
<path d="M0.753 0.988 Q1.082 0.729 0.647 0.511" stroke="hsl(180.0,100%,35%)" stroke-width="0.00023"></path>
<path d="M0.753 0.988 Q0.864 0.880 0.677 0.802" stroke="hsl(180.0,100%,35%)" stroke-width="0.00045"></path>
<path d="M0.753 0.988 Q1.343 0.758 1.022 0.419" stroke="hsl(180.0,100%,35%)" stroke-width="0.00023"></path>
<path d="M0.816 1.032 Q0.819 0.998 0.753 0.988" stroke="hsl(180.0,100%,35%)" stroke-width="0.00023"></path>
<path d="M0.816 1.032 Q0.983 0.990 0.937 0.899" stroke="hsl(180.0,100%,35%)" stroke-width="0.00045"></path>
<path d="M0.816 1.032 Q1.399 0.672 0.824 0.308" stroke="hsl(180.0,100%,35%)" stroke-width="0.00023"></path>
<path d="M0.484 0.114 Q0.599 0.186 0.766 0.146" stroke="hsl(0.0,100%,35%)" stroke-width="0.00249"></path>
<path d="M0.484 0.114 Q0.498 0.279 0.824 0.308" stroke="hsl(0.0,100%,35%)" stroke-width="0.04450"></path>
<path d="M0.484 0.114 Q-0.081 0.605 0.753 0.988" stroke="hsl(0.0,100%,35%)" stroke-width="0.00339"></path>
<path d="M0.484 0.114 Q0.509 0.374 1.022 0.419" stroke="hsl(0.0,100%,35%)" stroke-width="0.00226"></path>
<path d="M0.484 0.114 Q0.082 0.597 0.937 0.899" stroke="hsl(0.0,100%,35%)" stroke-width="0.00181"></path>
<path d="M0.484 0.114 Q0.358 0.317 0.728 0.423" stroke="hsl(0.0,100%,35%)" stroke-width="0.00045"></path>
<path d="M0.484 0.114 Q0.278 0.230 0.460 0.356" stroke="hsl(0.0,100%,35%)" stroke-width="0.00113"></path>
<path d="M0.484 0.114 Q0.179 0.513 0.892 0.750" stroke="hsl(0.0,100%,35%)" stroke-width="0.00023"></path>
<path d="M0.484 0.114 Q0.577 0.358 1.074 0.366" stroke="hsl(0.0,100%,35%)" stroke-width="0.00249"></path>
<path d="M0.766 0.146 Q0.666 0.239 0.824 0.308" stroke="hsl(0.0,100%,35%)" stroke-width="0.01649"></path>
<path d="M0.766 0.146 Q0.250 0.556 0.937 0.899" stroke="hsl(0.0,100%,35%)" stroke-width="0.00023"></path>
<path d="M0.766 0.146 Q0.676 0.334 1.022 0.419" stroke="hsl(0.0,100%,35%)" stroke-width="0.00316"></path>
<path d="M0.766 0.146 Q0.651 0.073 0.484 0.114" stroke="hsl(0.0,100%,35%)" stroke-width="0.01220"></path>
<path d="M0.766 0.146 Q0.841 0.205 0.972 0.182" stroke="hsl(0.0,100%,35%)" stroke-width="0.00881"></path>
<path d="M0.766 0.146 Q0.086 0.564 0.753 0.988" stroke="hsl(0.0,100%,35%)" stroke-width="0.00023"></path>
<path d="M0.766 0.146 Q0.446 0.190 0.460 0.356" stroke="hsl(0.0,100%,35%)" stroke-width="0.00045"></path>
<path d="M0.766 0.146 Q0.745 0.317 1.074 0.366" stroke="hsl(0.0,100%,35%)" stroke-width="0.00090"></path>
<path d="M0.892 0.750 Q0.632 0.841 0.753 0.988" stroke="hsl(180.0,100%,35%)" stroke-width="0.00700"></path>
<path d="M0.892 0.750 Q1.211 0.515 0.824 0.308" stroke="hsl(180.0,100%,35%)" stroke-width="0.00045"></path>
<path d="M0.892 0.750 Q0.795 0.833 0.937 0.899" stroke="hsl(180.0,100%,35%)" stroke-width="0.00746"></path>
<path d="M0.892 0.750 Q1.052 0.657 0.906 0.559" stroke="hsl(180.0,100%,35%)" stroke-width="0.00474"></path>
<path d="M0.892 0.750 Q1.197 0.350 0.484 0.114" stroke="hsl(180.0,100%,35%)" stroke-width="0.00023"></path>
<path d="M0.892 0.750 Q0.851 0.626 0.600 0.618" stroke="hsl(180.0,100%,35%)" stroke-width="0.00023"></path>
<path d="M0.906 0.559 Q0.650 0.735 0.937 0.899" stroke="hsl(180.0,100%,35%)" stroke-width="0.00203"></path>
<path d="M0.906 0.559 Q0.987 0.813 1.500 0.829" stroke="hsl(180.0,100%,35%)" stroke-width="0.00045"></path>
<path d="M0.906 0.559 Q0.486 0.743 0.753 0.988" stroke="hsl(180.0,100%,35%)" stroke-width="0.00090"></path>
<path d="M0.906 0.559 Q0.747 0.652 0.892 0.750" stroke="hsl(180.0,100%,35%)" stroke-width="0.00023"></path>
<path d="M0.579 0.232 Q0.641 0.319 0.824 0.308" stroke="hsl(180.0,100%,35%)" stroke-width="0.00994"></path>
<path d="M0.579 0.232 Q0.742 0.227 0.766 0.146" stroke="hsl(180.0,100%,35%)" stroke-width="0.00068"></path>
<path d="M0.579 0.232 Q0.626 0.154 0.484 0.114" stroke="hsl(180.0,100%,35%)" stroke-width="0.00068"></path>
<path d="M0.579 0.232 Q0.061 0.645 0.753 0.988" stroke="hsl(180.0,100%,35%)" stroke-width="0.00361"></path>
<path d="M0.579 0.232 Q0.225 0.637 0.937 0.899" stroke="hsl(180.0,100%,35%)" stroke-width="0.00497"></path>
<path d="M0.579 0.232 Q0.481 0.461 0.906 0.559" stroke="hsl(180.0,100%,35%)" stroke-width="0.00068"></path>
<path d="M0.728 0.423 Q0.868 0.385 0.824 0.308" stroke="hsl(0.0,100%,35%)" stroke-width="0.00791"></path>
<path d="M0.728 0.423 Q0.879 0.480 1.022 0.419" stroke="hsl(0.0,100%,35%)" stroke-width="0.00339"></path>
<path d="M0.728 0.423 Q0.854 0.220 0.484 0.114" stroke="hsl(0.0,100%,35%)" stroke-width="0.00158"></path>
<path d="M0.728 0.423 Q0.709 0.527 0.906 0.559" stroke="hsl(0.0,100%,35%)" stroke-width="0.00045"></path>
<path d="M1.172 0.831 Q0.836 0.826 0.753 0.988" stroke="hsl(180.0,100%,35%)" stroke-width="0.00181"></path>
<path d="M1.172 0.831 Q1.000 0.818 0.937 0.899" stroke="hsl(180.0,100%,35%)" stroke-width="0.00226"></path>
<path d="M1.172 0.831 Q1.256 0.642 0.906 0.559" stroke="hsl(180.0,100%,35%)" stroke-width="0.00045"></path>
<path d="M1.172 0.831 Q1.416 0.500 0.824 0.308" stroke="hsl(180.0,100%,35%)" stroke-width="0.00226"></path>
<path d="M1.172 0.831 Q1.196 0.451 0.460 0.356" stroke="hsl(180.0,100%,35%)" stroke-width="0.00023"></path>
<path d="M1.172 0.831 Q1.517 0.407 0.766 0.146" stroke="hsl(180.0,100%,35%)" stroke-width="0.00023"></path>
<path d="M1.172 0.831 Q1.401 0.812 1.414 0.696" stroke="hsl(180.0,100%,35%)" stroke-width="0.00045"></path>
<path d="M1.074 0.366 Q0.995 0.287 0.824 0.308" stroke="hsl(0.0,100%,35%)" stroke-width="0.00113"></path>
<path d="M1.074 0.366 Q0.775 0.238 0.460 0.356" stroke="hsl(0.0,100%,35%)" stroke-width="0.00158"></path>
<path d="M1.074 0.366 Q0.579 0.605 0.937 0.899" stroke="hsl(0.0,100%,35%)" stroke-width="0.00045"></path>
<path d="M1.074 0.366 Q0.415 0.613 0.753 0.988" stroke="hsl(0.0,100%,35%)" stroke-width="0.00023"></path>
<path d="M0.571 0.700 Q0.432 0.881 0.753 0.988" stroke="hsl(180.0,100%,35%)" stroke-width="0.00090"></path>
<path d="M0.571 0.700 Q0.595 0.873 0.937 0.899" stroke="hsl(180.0,100%,35%)" stroke-width="0.00023"></path>
<path d="M0.571 0.700 Q0.692 0.789 0.892 0.750" stroke="hsl(180.0,100%,35%)" stroke-width="0.00023"></path>
<path d="M1.133 0.528 Q0.738 0.674 0.937 0.899" stroke="hsl(180.0,100%,35%)" stroke-width="0.00294"></path>
<path d="M1.133 0.528 Q0.574 0.682 0.753 0.988" stroke="hsl(180.0,100%,35%)" stroke-width="0.00249"></path>
<path d="M1.133 0.528 Q1.139 0.668 1.414 0.696" stroke="hsl(180.0,100%,35%)" stroke-width="0.00045"></path>
<path d="M0.489 0.852 Q0.512 0.973 0.753 0.988" stroke="hsl(180.0,100%,35%)" stroke-width="0.00158"></path>
<path d="M0.489 0.852 Q0.676 0.965 0.937 0.899" stroke="hsl(180.0,100%,35%)" stroke-width="0.00068"></path>
<path d="M0.489 0.852 Q1.077 0.959 1.414 0.696" stroke="hsl(180.0,100%,35%)" stroke-width="0.00023"></path>
<path d="M1.500 0.829 Q1.419 0.575 0.906 0.559" stroke="hsl(180.0,100%,35%)" stroke-width="0.00068"></path>
<path d="M1.500 0.829 Q1.163 0.751 0.937 0.899" stroke="hsl(180.0,100%,35%)" stroke-width="0.00520"></path>
<path d="M1.500 0.829 Q0.999 0.759 0.753 0.988" stroke="hsl(180.0,100%,35%)" stroke-width="0.00271"></path>
<path d="M0.710 0.921 Q0.677 0.963 0.753 0.988" stroke="hsl(180.0,100%,35%)" stroke-width="0.00497"></path>
<path d="M0.710 0.921 Q0.841 0.955 0.937 0.899" stroke="hsl(180.0,100%,35%)" stroke-width="0.00316"></path>
<path d="M0.710 0.921 Q0.938 0.872 0.892 0.750" stroke="hsl(180.0,100%,35%)" stroke-width="0.00023"></path>
<path d="M0.710 0.921 Q0.568 0.940 0.574 1.013" stroke="hsl(180.0,100%,35%)" stroke-width="0.00136"></path>
<path d="M1.386 0.945 Q1.199 0.832 0.937 0.899" stroke="hsl(180.0,100%,35%)" stroke-width="0.00113"></path>
<path d="M1.386 0.945 Q1.035 0.840 0.753 0.988" stroke="hsl(180.0,100%,35%)" stroke-width="0.00068"></path>
<path d="M1.386 0.945 Q1.395 0.465 0.460 0.356" stroke="hsl(180.0,100%,35%)" stroke-width="0.00023"></path>
<path d="M1.386 0.945 Q1.615 0.514 0.824 0.308" stroke="hsl(180.0,100%,35%)" stroke-width="0.00045"></path>
<path d="M1.386 0.945 Q1.716 0.422 0.766 0.146" stroke="hsl(180.0,100%,35%)" stroke-width="0.00023"></path>
<path d="M0.538 0.927 Q0.761 0.993 0.937 0.899" stroke="hsl(180.0,100%,35%)" stroke-width="0.00407"></path>
<path d="M0.538 0.927 Q1.176 0.675 0.824 0.308" stroke="hsl(180.0,100%,35%)" stroke-width="0.00045"></path>
<path d="M0.538 0.927 Q0.597 1.001 0.753 0.988" stroke="hsl(180.0,100%,35%)" stroke-width="0.00226"></path>
<path d="M0.538 0.927 Q1.162 0.510 0.484 0.114" stroke="hsl(180.0,100%,35%)" stroke-width="0.00023"></path>
<path d="M0.538 0.927 Q0.957 0.626 0.460 0.356" stroke="hsl(180.0,100%,35%)" stroke-width="0.00045"></path>
<path d="M0.538 0.927 Q1.017 0.817 0.906 0.559" stroke="hsl(180.0,100%,35%)" stroke-width="0.00045"></path>
<path d="M0.574 1.013 Q0.847 1.028 0.937 0.899" stroke="hsl(180.0,100%,35%)" stroke-width="0.01152"></path>
<path d="M0.574 1.013 Q1.183 1.106 1.500 0.829" stroke="hsl(180.0,100%,35%)" stroke-width="0.00023"></path>
<path d="M0.574 1.013 Q0.683 1.036 0.753 0.988" stroke="hsl(180.0,100%,35%)" stroke-width="0.01130"></path>
<path d="M0.574 1.013 Q0.825 1.092 1.035 0.986" stroke="hsl(180.0,100%,35%)" stroke-width="0.00023"></path>
<path d="M0.574 1.013 Q1.075 0.969 1.100 0.716" stroke="hsl(180.0,100%,35%)" stroke-width="0.00023"></path>
<path d="M0.574 1.013 Q1.201 0.624 0.579 0.232" stroke="hsl(180.0,100%,35%)" stroke-width="0.00045"></path>
<path d="M0.574 1.013 Q1.103 0.852 0.906 0.559" stroke="hsl(180.0,100%,35%)" stroke-width="0.00045"></path>
<path d="M0.574 1.013 Q1.043 0.662 0.460 0.356" stroke="hsl(180.0,100%,35%)" stroke-width="0.00045"></path>
<path d="M0.574 1.013 Q1.263 0.711 0.824 0.308" stroke="hsl(180.0,100%,35%)" stroke-width="0.00023"></path>
<path d="M0.574 1.013 Q1.241 0.882 1.133 0.528" stroke="hsl(180.0,100%,35%)" stroke-width="0.00023"></path>
<path d="M0.574 1.013 Q1.018 1.041 1.172 0.831" stroke="hsl(180.0,100%,35%)" stroke-width="0.00023"></path>
<path d="M1.254 0.746 Q0.701 0.744 0.574 1.013" stroke="hsl(180.0,100%,35%)" stroke-width="0.00068"></path>
<path d="M1.254 0.746 Q0.974 0.759 0.937 0.899" stroke="hsl(180.0,100%,35%)" stroke-width="0.00090"></path>
<path d="M1.254 0.746 Q0.810 0.767 0.753 0.988" stroke="hsl(180.0,100%,35%)" stroke-width="0.00045"></path>
<path d="M1.254 0.746 Q1.375 0.753 1.414 0.696" stroke="hsl(180.0,100%,35%)" stroke-width="0.00045"></path>
<path d="M0.757 0.833 Q0.631 0.910 0.753 0.988" stroke="hsl(180.0,100%,35%)" stroke-width="0.00045"></path>
<path d="M0.757 0.833 Q0.795 0.902 0.937 0.899" stroke="hsl(180.0,100%,35%)" stroke-width="0.00023"></path>
<path d="M0.641 0.725 Q0.486 0.879 0.753 0.988" stroke="hsl(180.0,100%,35%)" stroke-width="0.00700"></path>
<path d="M0.641 0.725 Q0.650 0.871 0.937 0.899" stroke="hsl(180.0,100%,35%)" stroke-width="0.00813"></path>
<path d="M0.641 0.725 Q0.906 0.695 0.906 0.559" stroke="hsl(180.0,100%,35%)" stroke-width="0.00113"></path>
<path d="M0.641 0.725 Q0.377 0.855 0.574 1.013" stroke="hsl(180.0,100%,35%)" stroke-width="0.00136"></path>
<path d="M1.385 0.201 Q1.524 0.150 1.455 0.072" stroke="hsl(180.0,100%,35%)" stroke-width="0.00023"></path>
<path d="M1.385 0.201 Q0.566 0.391 0.757 0.833" stroke="hsl(180.0,100%,35%)" stroke-width="0.00023"></path>
<path d="M1.385 0.201 Q0.439 0.468 0.753 0.988" stroke="hsl(180.0,100%,35%)" stroke-width="0.00023"></path>
<path d="M1.035 0.986 Q1.260 0.970 1.278 0.856" stroke="hsl(180.0,100%,35%)" stroke-width="0.00023"></path>
<path d="M1.035 0.986 Q1.312 0.747 0.906 0.559" stroke="hsl(180.0,100%,35%)" stroke-width="0.00113"></path>
<path d="M1.035 0.986 Q0.892 0.931 0.753 0.988" stroke="hsl(180.0,100%,35%)" stroke-width="0.00384"></path>
<path d="M1.035 0.986 Q1.056 0.923 0.937 0.899" stroke="hsl(180.0,100%,35%)" stroke-width="0.00271"></path>
<path d="M1.035 0.986 Q0.783 0.907 0.574 1.013" stroke="hsl(180.0,100%,35%)" stroke-width="0.00045"></path>
<path d="M1.035 0.986 Q1.472 0.605 0.824 0.308" stroke="hsl(180.0,100%,35%)" stroke-width="0.00023"></path>
<path d="M1.100 0.716 Q0.708 0.782 0.753 0.988" stroke="hsl(180.0,100%,35%)" stroke-width="0.00249"></path>
<path d="M1.100 0.716 Q0.872 0.774 0.937 0.899" stroke="hsl(180.0,100%,35%)" stroke-width="0.00203"></path>
<path d="M1.100 0.716 Q1.128 0.598 0.906 0.559" stroke="hsl(180.0,100%,35%)" stroke-width="0.00045"></path>
<path d="M0.716 0.809 Q0.591 0.906 0.753 0.988" stroke="hsl(180.0,100%,35%)" stroke-width="0.00113"></path>
<path d="M0.716 0.809 Q0.755 0.898 0.937 0.899" stroke="hsl(180.0,100%,35%)" stroke-width="0.00113"></path>
<path d="M0.716 0.809 Q0.482 0.882 0.574 1.013" stroke="hsl(180.0,100%,35%)" stroke-width="0.00023"></path>
<path d="M1.444 0.990 Q1.100 0.851 0.753 0.988" stroke="hsl(180.0,100%,35%)" stroke-width="0.00271"></path>
<path d="M1.444 0.990 Q1.264 0.843 0.937 0.899" stroke="hsl(180.0,100%,35%)" stroke-width="0.00226"></path>
<path d="M1.444 0.990 Q1.373 0.944 1.267 0.969" stroke="hsl(180.0,100%,35%)" stroke-width="0.00023"></path>
<path d="M1.444 0.990 Q0.991 0.827 0.574 1.013" stroke="hsl(180.0,100%,35%)" stroke-width="0.00068"></path>
<path d="M0.816 0.748 Q0.952 0.481 0.460 0.356" stroke="hsl(180.0,100%,35%)" stroke-width="0.00023"></path>
<path d="M0.816 0.748 Q0.592 0.855 0.753 0.988" stroke="hsl(180.0,100%,35%)" stroke-width="0.00045"></path>
<path d="M0.816 0.748 Q1.012 0.671 0.906 0.559" stroke="hsl(180.0,100%,35%)" stroke-width="0.00023"></path>
<path d="M0.816 0.748 Q0.756 0.847 0.937 0.899" stroke="hsl(180.0,100%,35%)" stroke-width="0.00023"></path>
<path d="M1.785 0.743 Q1.573 0.729 1.500 0.829" stroke="hsl(180.0,100%,35%)" stroke-width="0.00045"></path>
<path d="M1.785 0.743 Q1.236 0.651 0.937 0.899" stroke="hsl(180.0,100%,35%)" stroke-width="0.00068"></path>
<path d="M1.785 0.743 Q1.073 0.659 0.753 0.988" stroke="hsl(180.0,100%,35%)" stroke-width="0.00023"></path>
<path d="M0.251 0.722 Q0.392 0.668 0.317 0.588" stroke="hsl(180.0,100%,35%)" stroke-width="0.00023"></path>
<path d="M0.251 0.722 Q0.453 0.948 0.937 0.899" stroke="hsl(180.0,100%,35%)" stroke-width="0.00023"></path>
<path d="M1.155 0.894 Q1.042 0.853 0.937 0.899" stroke="hsl(180.0,100%,35%)" stroke-width="0.00090"></path>
<path d="M1.155 0.894 Q0.878 0.861 0.753 0.988" stroke="hsl(180.0,100%,35%)" stroke-width="0.00136"></path>
<path d="M1.155 0.894 Q1.298 0.677 0.906 0.559" stroke="hsl(180.0,100%,35%)" stroke-width="0.00023"></path>
<path d="M0.561 0.782 Q1.071 0.598 0.824 0.308" stroke="hsl(180.0,100%,35%)" stroke-width="0.00023"></path>
<path d="M0.561 0.782 Q0.852 0.549 0.460 0.356" stroke="hsl(180.0,100%,35%)" stroke-width="0.00023"></path>
<path d="M0.561 0.782 Q0.492 0.924 0.753 0.988" stroke="hsl(180.0,100%,35%)" stroke-width="0.00023"></path>
<path d="M1.155 1.092 Q1.037 0.960 0.753 0.988" stroke="hsl(180.0,100%,35%)" stroke-width="0.00023"></path>
<path d="M1.155 1.092 Q1.069 0.917 0.710 0.921" stroke="hsl(180.0,100%,35%)" stroke-width="0.00023"></path>
<path d="M1.155 1.092 Q0.927 0.936 0.574 1.013" stroke="hsl(180.0,100%,35%)" stroke-width="0.00023"></path>
<path d="M0.942 1.039 Q0.888 0.976 0.753 0.988" stroke="hsl(180.0,100%,35%)" stroke-width="0.00068"></path>
<path d="M0.942 1.039 Q0.779 0.952 0.574 1.013" stroke="hsl(180.0,100%,35%)" stroke-width="0.00045"></path>
<path d="M0.942 1.039 Q1.052 0.968 0.937 0.899" stroke="hsl(180.0,100%,35%)" stroke-width="0.00023"></path>
</g>
<text x="0.879" y="0.155" font-size="0.017342" fill="hsl(0.0,100%,20%)">afdx</text>
<text x="0.460" y="0.336" font-size="0.039578" fill="hsl(0.0,100%,20%)">rharrison</text>
<text x="0.824" y="0.257" font-size="0.102964" fill="hsl(0.0,100%,20%)">bclayton</text>
<text x="1.022" y="0.391" font-size="0.055522" fill="hsl(0.0,100%,20%)">amaiorano</text>
<text x="0.700" y="0.040" font-size="0.011194" fill="hsl(0.0,100%,20%)">vasniktel</text>
<text x="0.456" y="0.914" font-size="0.005006" fill="hsl(180.0,100%,20%)">aleksi</text>
<text x="0.937" y="0.865" font-size="0.066651" fill="hsl(180.0,100%,20%)">enga</text>
<text x="0.753" y="0.952" font-size="0.072504" fill="hsl(180.0,100%,20%)">cwallez</text>
<text x="0.816" y="1.030" font-size="0.005006" fill="hsl(180.0,100%,20%)">aleksi.sapon</text>
<text x="0.484" y="0.083" font-size="0.061671" fill="hsl(0.0,100%,20%)">jrprice</text>
<text x="0.766" y="0.120" font-size="0.052506" fill="hsl(0.0,100%,20%)">dneto</text>
<text x="0.892" y="0.735" font-size="0.029723" fill="hsl(180.0,100%,20%)">bajones</text>
<text x="0.906" y="0.547" font-size="0.024139" fill="hsl(180.0,100%,20%)">kainino</text>
<text x="0.600" y="0.617" font-size="0.002503" fill="hsl(180.0,100%,20%)">headlessclayton</text>
<text x="0.579" y="0.217" font-size="0.030349" fill="hsl(180.0,100%,20%)">senorblanco</text>
<text x="0.728" y="0.413" font-size="0.020489" fill="hsl(0.0,100%,20%)">sarahmashay</text>
<text x="0.293" y="-0.100" font-size="0.004336" fill="hsl(0.0,100%,20%)">allydonaldson</text>
<text x="1.172" y="0.823" font-size="0.015019" fill="hsl(180.0,100%,20%)">brandon1.jones</text>
<text x="0.972" y="0.174" font-size="0.016028" fill="hsl(0.0,100%,20%)">alanbaker</text>
<text x="1.074" y="0.354" font-size="0.023747" fill="hsl(0.0,100%,20%)">dsinclair</text>
<text x="0.571" y="0.697" font-size="0.007080" fill="hsl(180.0,100%,20%)">beaufort.francois</text>
<text x="1.414" y="0.692" font-size="0.007509" fill="hsl(180.0,100%,20%)">rafael.cintron</text>
<text x="1.133" y="0.521" font-size="0.013710" fill="hsl(180.0,100%,20%)">bryan.bernhart</text>
<text x="0.489" y="0.848" font-size="0.008302" fill="hsl(180.0,100%,20%)">cjj19970505</text>
<text x="1.500" y="0.818" font-size="0.022942" fill="hsl(180.0,100%,20%)">lokokung</text>
<text x="0.710" y="0.912" font-size="0.017342" fill="hsl(180.0,100%,20%)">hao.x.li</text>
<text x="0.427" y="1.016" font-size="0.002503" fill="hsl(180.0,100%,20%)">fbeaufort</text>
<text x="1.386" y="0.941" font-size="0.009025" fill="hsl(180.0,100%,20%)">rockot</text>
<text x="0.538" y="0.920" font-size="0.015632" fill="hsl(180.0,100%,20%)">shrekshao</text>
<text x="0.574" y="0.997" font-size="0.032444" fill="hsl(180.0,100%,20%)">jiawei.shao</text>
<text x="1.254" y="0.742" font-size="0.008671" fill="hsl(180.0,100%,20%)">jiajia.qin</text>
<text x="0.757" y="0.830" font-size="0.005597" fill="hsl(180.0,100%,20%)">thakis</text>
<text x="0.647" y="0.509" font-size="0.005006" fill="hsl(0.0,100%,20%)">jmadill</text>
<text x="0.677" y="0.800" font-size="0.003540" fill="hsl(180.0,100%,20%)">penghuang</text>
<text x="1.156" y="0.769" font-size="0.002503" fill="hsl(180.0,100%,20%)">hob</text>
<text x="0.641" y="0.713" font-size="0.022805" fill="hsl(180.0,100%,20%)">yunchao.he</text>
<text x="1.385" y="0.199" font-size="0.004336" fill="hsl(180.0,100%,20%)">hans</text>
<text x="1.455" y="0.071" font-size="0.002503" fill="hsl(180.0,100%,20%)">hwennborg</text>
<text x="1.035" y="0.978" font-size="0.015632" fill="hsl(180.0,100%,20%)">zhaoming.jiang</text>
<text x="1.100" y="0.710" font-size="0.012005" fill="hsl(180.0,100%,20%)">shaobo.yan</text>
<text x="0.716" y="0.805" font-size="0.008302" fill="hsl(180.0,100%,20%)">jie.a.chen</text>
<text x="1.444" y="0.984" font-size="0.012764" fill="hsl(180.0,100%,20%)">junwei.fu</text>
<text x="1.267" y="0.968" font-size="0.002503" fill="hsl(180.0,100%,20%)">ningxin.hu</text>
<text x="0.816" y="0.745" font-size="0.005597" fill="hsl(180.0,100%,20%)">pkasting</text>
<text x="1.785" y="0.740" font-size="0.006131" fill="hsl(180.0,100%,20%)">sunnyps</text>
<text x="0.251" y="0.721" font-size="0.003540" fill="hsl(180.0,100%,20%)">svenzheng</text>
<text x="0.317" y="0.586" font-size="0.002503" fill="hsl(180.0,100%,20%)">lgrey</text>
<text x="1.155" y="0.889" font-size="0.008302" fill="hsl(180.0,100%,20%)">tangm</text>
<text x="0.561" y="0.780" font-size="0.004336" fill="hsl(180.0,100%,20%)">vadimsh</text>
<text x="1.155" y="1.090" font-size="0.004336" fill="hsl(180.0,100%,20%)">xinghua.cao</text>
<text x="0.942" y="1.036" font-size="0.006131" fill="hsl(180.0,100%,20%)">yang.gu</text>
<text x="1.278" y="0.855" font-size="0.002503" fill="hsl(180.0,100%,20%)">ynovikov</text>
</svg>
