<svg width="4000" height="2000" viewBox="-0.025 -0.025 2.05 1.05" xmlns="http://www.w3.org/2000/svg">
  <style>
    path {
      fill: none;
      stroke-linecap: round;
      stroke-opacity: 0.4;
    }

    text {
      text-anchor: middle;
      alignment-baseline: hanging;
    }
  </style>
  <g opacity="0.4">
<path d="M1.489 0.935 Q1.579 0.866 1.465 0.807" stroke="hsl(0.0,100%,35%)" stroke-width="0.00144"></path>
<path d="M1.489 0.935 Q1.335 0.828 1.092 0.880" stroke="hsl(0.0,100%,35%)" stroke-width="0.00041"></path>
<path d="M1.489 0.935 Q1.612 0.692 1.164 0.579" stroke="hsl(0.0,100%,35%)" stroke-width="0.00062"></path>
<path d="M1.465 0.807 Q1.497 0.633 1.164 0.579" stroke="hsl(0.0,100%,35%)" stroke-width="0.04717"></path>
<path d="M1.465 0.807 Q1.244 0.646 0.881 0.719" stroke="hsl(0.0,100%,35%)" stroke-width="0.01990"></path>
<path d="M1.465 0.807 Q1.375 0.876 1.489 0.935" stroke="hsl(0.0,100%,35%)" stroke-width="0.00062"></path>
<path d="M1.465 0.807 Q1.593 0.390 0.806 0.235" stroke="hsl(0.0,100%,35%)" stroke-width="0.00390"></path>
<path d="M1.465 0.807 Q1.339 0.696 1.094 0.733" stroke="hsl(0.0,100%,35%)" stroke-width="0.00349"></path>
<path d="M1.465 0.807 Q0.962 0.451 0.156 0.618" stroke="hsl(0.0,100%,35%)" stroke-width="0.00021"></path>
<path d="M1.465 0.807 Q1.911 0.499 1.407 0.213" stroke="hsl(0.0,100%,35%)" stroke-width="0.00205"></path>
<path d="M1.465 0.807 Q1.828 0.414 1.141 0.151" stroke="hsl(0.0,100%,35%)" stroke-width="0.00123"></path>
<path d="M1.465 0.807 Q1.878 0.595 1.554 0.346" stroke="hsl(0.0,100%,35%)" stroke-width="0.00103"></path>
<path d="M1.465 0.807 Q1.286 0.879 1.386 0.982" stroke="hsl(0.0,100%,35%)" stroke-width="0.00041"></path>
<path d="M1.465 0.807 Q1.658 0.902 1.885 0.828" stroke="hsl(0.0,100%,35%)" stroke-width="0.00021"></path>
<path d="M1.465 0.807 Q1.221 0.769 1.092 0.880" stroke="hsl(0.0,100%,35%)" stroke-width="0.01108"></path>
<path d="M1.465 0.807 Q1.789 0.785 1.816 0.622" stroke="hsl(0.0,100%,35%)" stroke-width="0.00021"></path>
<path d="M1.465 0.807 Q1.383 0.420 0.609 0.375" stroke="hsl(0.0,100%,35%)" stroke-width="0.00021"></path>
<path d="M1.465 0.807 Q1.718 0.667 1.499 0.512" stroke="hsl(0.0,100%,35%)" stroke-width="0.00021"></path>
<path d="M1.465 0.807 Q1.425 0.860 1.518 0.891" stroke="hsl(0.0,100%,35%)" stroke-width="0.00021"></path>
<path d="M1.465 0.807 Q1.730 0.565 1.316 0.382" stroke="hsl(0.0,100%,35%)" stroke-width="0.00021"></path>
<path d="M1.465 0.807 Q1.368 0.839 1.409 0.893" stroke="hsl(0.0,100%,35%)" stroke-width="0.00021"></path>
<path d="M1.465 0.807 Q1.337 0.753 1.203 0.803" stroke="hsl(0.0,100%,35%)" stroke-width="0.00041"></path>
<path d="M1.092 0.880 Q1.337 0.918 1.465 0.807" stroke="hsl(0.0,100%,35%)" stroke-width="0.00451"></path>
<path d="M1.092 0.880 Q1.700 0.525 1.141 0.151" stroke="hsl(0.0,100%,35%)" stroke-width="0.00021"></path>
<path d="M1.092 0.880 Q1.369 0.744 1.164 0.579" stroke="hsl(0.0,100%,35%)" stroke-width="0.00287"></path>
<path d="M1.092 0.880 Q1.750 0.705 1.554 0.346" stroke="hsl(0.0,100%,35%)" stroke-width="0.00021"></path>
<path d="M1.164 0.579 Q1.132 0.753 1.465 0.807" stroke="hsl(0.0,100%,35%)" stroke-width="0.02482"></path>
<path d="M1.164 0.579 Q0.911 0.592 0.881 0.719" stroke="hsl(0.0,100%,35%)" stroke-width="0.00964"></path>
<path d="M1.164 0.579 Q1.578 0.444 1.407 0.213" stroke="hsl(0.0,100%,35%)" stroke-width="0.00267"></path>
<path d="M1.164 0.579 Q1.006 0.642 1.094 0.733" stroke="hsl(0.0,100%,35%)" stroke-width="0.00472"></path>
<path d="M1.164 0.579 Q1.260 0.336 0.806 0.235" stroke="hsl(0.0,100%,35%)" stroke-width="0.00308"></path>
<path d="M1.164 0.579 Q0.888 0.715 1.092 0.880" stroke="hsl(0.0,100%,35%)" stroke-width="0.00636"></path>
<path d="M1.164 0.579 Q0.629 0.397 0.156 0.618" stroke="hsl(0.0,100%,35%)" stroke-width="0.00041"></path>
<path d="M1.164 0.579 Q1.158 0.647 1.291 0.665" stroke="hsl(0.0,100%,35%)" stroke-width="0.00082"></path>
<path d="M1.164 0.579 Q1.089 0.634 1.180 0.682" stroke="hsl(0.0,100%,35%)" stroke-width="0.00021"></path>
<path d="M1.164 0.579 Q1.040 0.606 1.065 0.673" stroke="hsl(0.0,100%,35%)" stroke-width="0.00041"></path>
<path d="M0.806 0.235 Q1.124 0.344 1.407 0.213" stroke="hsl(180.0,100%,35%)" stroke-width="0.04307"></path>
<path d="M0.806 0.235 Q0.919 0.348 1.163 0.317" stroke="hsl(180.0,100%,35%)" stroke-width="0.00041"></path>
<path d="M0.806 0.235 Q1.091 0.440 1.554 0.346" stroke="hsl(180.0,100%,35%)" stroke-width="0.00082"></path>
<path d="M0.806 0.235 Q1.041 0.260 1.141 0.151" stroke="hsl(180.0,100%,35%)" stroke-width="0.01046"></path>
<path d="M0.806 0.235 Q0.710 0.479 1.164 0.579" stroke="hsl(180.0,100%,35%)" stroke-width="0.00226"></path>
<path d="M0.806 0.235 Q0.678 0.653 1.465 0.807" stroke="hsl(180.0,100%,35%)" stroke-width="0.00226"></path>
<path d="M1.407 0.213 Q1.374 0.309 1.554 0.346" stroke="hsl(180.0,100%,35%)" stroke-width="0.02010"></path>
<path d="M1.407 0.213 Q0.993 0.347 1.164 0.579" stroke="hsl(180.0,100%,35%)" stroke-width="0.00062"></path>
<path d="M1.407 0.213 Q0.960 0.522 1.465 0.807" stroke="hsl(180.0,100%,35%)" stroke-width="0.00328"></path>
<path d="M1.407 0.213 Q1.088 0.104 0.806 0.235" stroke="hsl(180.0,100%,35%)" stroke-width="0.00902"></path>
<path d="M1.407 0.213 Q1.201 0.216 1.163 0.317" stroke="hsl(180.0,100%,35%)" stroke-width="0.01169"></path>
<path d="M1.407 0.213 Q1.323 0.129 1.141 0.151" stroke="hsl(180.0,100%,35%)" stroke-width="0.06420"></path>
<path d="M1.407 0.213 Q0.716 0.484 1.092 0.880" stroke="hsl(180.0,100%,35%)" stroke-width="0.00062"></path>
<path d="M1.407 0.213 Q1.177 0.453 1.594 0.617" stroke="hsl(180.0,100%,35%)" stroke-width="0.00021"></path>
<path d="M1.163 0.317 Q1.368 0.314 1.407 0.213" stroke="hsl(180.0,100%,35%)" stroke-width="0.00718"></path>
<path d="M1.163 0.317 Q1.050 0.205 0.806 0.235" stroke="hsl(180.0,100%,35%)" stroke-width="0.00021"></path>
<path d="M1.163 0.317 Q1.285 0.230 1.141 0.151" stroke="hsl(180.0,100%,35%)" stroke-width="0.00349"></path>
<path d="M1.163 0.317 Q1.335 0.410 1.554 0.346" stroke="hsl(180.0,100%,35%)" stroke-width="0.00021"></path>
<path d="M1.554 0.346 Q1.173 0.385 1.164 0.579" stroke="hsl(180.0,100%,35%)" stroke-width="0.00985"></path>
<path d="M1.554 0.346 Q1.504 0.166 1.141 0.151" stroke="hsl(180.0,100%,35%)" stroke-width="0.00287"></path>
<path d="M1.554 0.346 Q1.587 0.250 1.407 0.213" stroke="hsl(180.0,100%,35%)" stroke-width="0.01497"></path>
<path d="M1.554 0.346 Q1.141 0.559 1.465 0.807" stroke="hsl(180.0,100%,35%)" stroke-width="0.00656"></path>
<path d="M1.554 0.346 Q1.269 0.141 0.806 0.235" stroke="hsl(180.0,100%,35%)" stroke-width="0.00041"></path>
<path d="M1.554 0.346 Q1.382 0.254 1.163 0.317" stroke="hsl(180.0,100%,35%)" stroke-width="0.00041"></path>
<path d="M1.554 0.346 Q0.896 0.521 1.092 0.880" stroke="hsl(180.0,100%,35%)" stroke-width="0.00123"></path>
<path d="M1.554 0.346 Q1.014 0.448 1.094 0.733" stroke="hsl(180.0,100%,35%)" stroke-width="0.00021"></path>
<path d="M1.141 0.151 Q1.224 0.235 1.407 0.213" stroke="hsl(180.0,100%,35%)" stroke-width="0.04800"></path>
<path d="M1.141 0.151 Q0.906 0.126 0.806 0.235" stroke="hsl(180.0,100%,35%)" stroke-width="0.00779"></path>
<path d="M1.141 0.151 Q1.191 0.331 1.554 0.346" stroke="hsl(180.0,100%,35%)" stroke-width="0.00349"></path>
<path d="M1.141 0.151 Q0.777 0.544 1.465 0.807" stroke="hsl(180.0,100%,35%)" stroke-width="0.00021"></path>
<path d="M1.141 0.151 Q1.018 0.239 1.163 0.317" stroke="hsl(180.0,100%,35%)" stroke-width="0.00123"></path>
<path d="M0.609 0.375 Q0.724 0.588 1.164 0.579" stroke="hsl(0.0,100%,35%)" stroke-width="0.00513"></path>
<path d="M0.609 0.375 Q0.691 0.762 1.465 0.807" stroke="hsl(0.0,100%,35%)" stroke-width="0.00390"></path>
<path d="M0.609 0.375 Q0.189 0.406 0.156 0.618" stroke="hsl(0.0,100%,35%)" stroke-width="0.00144"></path>
<path d="M0.609 0.375 Q0.447 0.724 1.092 0.880" stroke="hsl(0.0,100%,35%)" stroke-width="0.00021"></path>
<path d="M0.609 0.375 Q0.364 0.697 0.938 0.887" stroke="hsl(0.0,100%,35%)" stroke-width="0.00021"></path>
<path d="M0.938 0.887 Q1.298 0.778 1.164 0.579" stroke="hsl(0.0,100%,35%)" stroke-width="0.00287"></path>
<path d="M0.938 0.887 Q1.266 0.953 1.465 0.807" stroke="hsl(0.0,100%,35%)" stroke-width="0.00267"></path>
<path d="M0.938 0.887 Q0.763 0.596 0.156 0.618" stroke="hsl(0.0,100%,35%)" stroke-width="0.00082"></path>
<path d="M0.938 0.887 Q1.021 0.914 1.092 0.880" stroke="hsl(0.0,100%,35%)" stroke-width="0.00041"></path>
<path d="M1.291 0.665 Q1.297 0.597 1.164 0.579" stroke="hsl(0.0,100%,35%)" stroke-width="0.00574"></path>
<path d="M1.291 0.665 Q1.264 0.771 1.465 0.807" stroke="hsl(0.0,100%,35%)" stroke-width="0.00554"></path>
<path d="M1.291 0.665 Q0.761 0.415 0.156 0.618" stroke="hsl(0.0,100%,35%)" stroke-width="0.00082"></path>
<path d="M1.291 0.665 Q1.020 0.733 1.092 0.880" stroke="hsl(0.0,100%,35%)" stroke-width="0.00021"></path>
<path d="M0.881 0.719 Q1.102 0.880 1.465 0.807" stroke="hsl(0.0,100%,35%)" stroke-width="0.00656"></path>
<path d="M0.881 0.719 Q1.134 0.705 1.164 0.579" stroke="hsl(0.0,100%,35%)" stroke-width="0.00759"></path>
<path d="M1.094 0.733 Q1.252 0.670 1.164 0.579" stroke="hsl(0.0,100%,35%)" stroke-width="0.01087"></path>
<path d="M1.094 0.733 Q1.220 0.844 1.465 0.807" stroke="hsl(0.0,100%,35%)" stroke-width="0.01005"></path>
<path d="M1.094 0.733 Q0.999 0.683 0.881 0.719" stroke="hsl(0.0,100%,35%)" stroke-width="0.00021"></path>
<path d="M1.094 0.733 Q1.246 0.739 1.291 0.665" stroke="hsl(0.0,100%,35%)" stroke-width="0.00041"></path>
<path d="M1.094 0.733 Q0.976 0.806 1.092 0.880" stroke="hsl(0.0,100%,35%)" stroke-width="0.00205"></path>
<path d="M1.094 0.733 Q1.633 0.632 1.554 0.346" stroke="hsl(0.0,100%,35%)" stroke-width="0.00021"></path>
<path d="M1.386 0.982 Q1.565 0.910 1.465 0.807" stroke="hsl(0.0,100%,35%)" stroke-width="0.00062"></path>
<path d="M1.386 0.982 Q1.597 0.736 1.164 0.579" stroke="hsl(0.0,100%,35%)" stroke-width="0.00041"></path>
<path d="M1.816 0.622 Q1.938 0.336 1.407 0.213" stroke="hsl(0.0,100%,35%)" stroke-width="0.00246"></path>
<path d="M1.816 0.622 Q1.492 0.644 1.465 0.807" stroke="hsl(0.0,100%,35%)" stroke-width="0.00390"></path>
<path d="M1.816 0.622 Q1.855 0.251 1.141 0.151" stroke="hsl(0.0,100%,35%)" stroke-width="0.00103"></path>
<path d="M1.816 0.622 Q1.524 0.470 1.164 0.579" stroke="hsl(0.0,100%,35%)" stroke-width="0.00369"></path>
<path d="M1.816 0.622 Q1.366 0.533 1.094 0.733" stroke="hsl(0.0,100%,35%)" stroke-width="0.00062"></path>
<path d="M1.499 0.512 Q1.278 0.479 1.164 0.579" stroke="hsl(0.0,100%,35%)" stroke-width="0.00472"></path>
<path d="M1.499 0.512 Q1.246 0.653 1.465 0.807" stroke="hsl(0.0,100%,35%)" stroke-width="0.00390"></path>
<path d="M1.499 0.512 Q1.001 0.615 1.092 0.880" stroke="hsl(0.0,100%,35%)" stroke-width="0.00144"></path>
<path d="M1.316 0.382 Q1.050 0.625 1.465 0.807" stroke="hsl(0.0,100%,35%)" stroke-width="0.00041"></path>
<path d="M1.316 0.382 Q0.806 0.586 1.092 0.880" stroke="hsl(0.0,100%,35%)" stroke-width="0.00021"></path>
<path d="M1.316 0.382 Q1.083 0.450 1.164 0.579" stroke="hsl(0.0,100%,35%)" stroke-width="0.00062"></path>
<path d="M1.045 0.972 Q1.419 0.799 1.164 0.579" stroke="hsl(0.0,100%,35%)" stroke-width="0.00041"></path>
<path d="M1.045 0.972 Q1.833 0.665 1.407 0.213" stroke="hsl(0.0,100%,35%)" stroke-width="0.00021"></path>
<path d="M1.045 0.972 Q1.386 0.973 1.465 0.807" stroke="hsl(0.0,100%,35%)" stroke-width="0.00082"></path>
<path d="M1.045 0.972 Q1.142 0.935 1.092 0.880" stroke="hsl(0.0,100%,35%)" stroke-width="0.00021"></path>
<path d="M0.873 0.083 Q1.003 0.351 1.554 0.346" stroke="hsl(180.0,100%,35%)" stroke-width="0.00328"></path>
<path d="M0.873 0.083 Q0.718 0.146 0.806 0.235" stroke="hsl(180.0,100%,35%)" stroke-width="0.00021"></path>
<path d="M0.873 0.083 Q0.590 0.564 1.465 0.807" stroke="hsl(180.0,100%,35%)" stroke-width="0.00041"></path>
<path d="M0.873 0.083 Q0.831 0.258 1.163 0.317" stroke="hsl(180.0,100%,35%)" stroke-width="0.00246"></path>
<path d="M0.873 0.083 Q0.953 0.171 1.141 0.151" stroke="hsl(180.0,100%,35%)" stroke-width="0.01210"></path>
<path d="M1.594 0.617 Q1.410 0.512 1.164 0.579" stroke="hsl(0.0,100%,35%)" stroke-width="0.00103"></path>
<path d="M1.594 0.617 Q1.377 0.686 1.465 0.807" stroke="hsl(0.0,100%,35%)" stroke-width="0.00123"></path>
<path d="M1.594 0.617 Q1.824 0.377 1.407 0.213" stroke="hsl(0.0,100%,35%)" stroke-width="0.00103"></path>
<path d="M1.015 0.622 Q1.124 0.630 1.164 0.579" stroke="hsl(0.0,100%,35%)" stroke-width="0.00144"></path>
<path d="M1.015 0.622 Q1.538 0.496 1.407 0.213" stroke="hsl(0.0,100%,35%)" stroke-width="0.00021"></path>
<path d="M1.015 0.622 Q1.118 0.699 1.291 0.665" stroke="hsl(0.0,100%,35%)" stroke-width="0.00123"></path>
<path d="M1.015 0.622 Q1.092 0.805 1.465 0.807" stroke="hsl(0.0,100%,35%)" stroke-width="0.00103"></path>
<path d="M1.015 0.622 Q1.505 0.592 1.554 0.346" stroke="hsl(0.0,100%,35%)" stroke-width="0.00021"></path>
<path d="M1.015 0.622 Q0.589 0.448 0.156 0.618" stroke="hsl(0.0,100%,35%)" stroke-width="0.00041"></path>
<path d="M0.795 0.459 Q0.884 0.593 1.164 0.579" stroke="hsl(0.0,100%,35%)" stroke-width="0.00328"></path>
<path d="M0.795 0.459 Q0.852 0.767 1.465 0.807" stroke="hsl(0.0,100%,35%)" stroke-width="0.00451"></path>
<path d="M0.795 0.459 Q0.725 0.656 1.094 0.733" stroke="hsl(0.0,100%,35%)" stroke-width="0.00021"></path>
<path d="M0.795 0.459 Q1.265 0.555 1.554 0.346" stroke="hsl(0.0,100%,35%)" stroke-width="0.00021"></path>
<path d="M0.640 0.896 Q1.123 1.017 1.465 0.807" stroke="hsl(0.0,100%,35%)" stroke-width="0.00062"></path>
<path d="M0.640 0.896 Q1.156 0.842 1.164 0.579" stroke="hsl(0.0,100%,35%)" stroke-width="0.00062"></path>
<path d="M0.640 0.896 Q0.879 0.978 1.092 0.880" stroke="hsl(0.0,100%,35%)" stroke-width="0.00041"></path>
<path d="M1.587 0.972 Q1.658 0.865 1.465 0.807" stroke="hsl(0.0,100%,35%)" stroke-width="0.00123"></path>
<path d="M1.587 0.972 Q1.531 0.754 1.094 0.733" stroke="hsl(0.0,100%,35%)" stroke-width="0.00062"></path>
<path d="M1.587 0.972 Q1.690 0.691 1.164 0.579" stroke="hsl(0.0,100%,35%)" stroke-width="0.00041"></path>
<path d="M1.587 0.972 Q1.413 0.827 1.092 0.880" stroke="hsl(0.0,100%,35%)" stroke-width="0.00021"></path>
</g>
<text x="1.489" y="0.930" font-size="0.010430" fill="hsl(0.0,100%,20%)">bajones</text>
<text x="1.465" y="0.767" font-size="0.080517" fill="hsl(0.0,100%,20%)">cwallez</text>
<text x="1.092" y="0.863" font-size="0.034063" fill="hsl(0.0,100%,20%)">kainino</text>
<text x="1.164" y="0.541" font-size="0.076451" fill="hsl(0.0,100%,20%)">enga</text>
<text x="0.806" y="0.208" font-size="0.054460" fill="hsl(180.0,100%,20%)">bclayton</text>
<text x="1.407" y="0.168" font-size="0.090483" fill="hsl(180.0,100%,20%)">dsinclair</text>
<text x="1.163" y="0.302" font-size="0.031056" fill="hsl(180.0,100%,20%)">sarahmashay</text>
<text x="1.554" y="0.322" font-size="0.048397" fill="hsl(180.0,100%,20%)">rharrison</text>
<text x="1.141" y="0.114" font-size="0.074335" fill="hsl(180.0,100%,20%)">dneto</text>
<text x="0.609" y="0.365" font-size="0.019789" fill="hsl(0.0,100%,20%)">brandon1.jones</text>
<text x="0.156" y="0.612" font-size="0.012043" fill="hsl(0.0,100%,20%)">rafael.cintron</text>
<text x="0.938" y="0.880" font-size="0.015702" fill="hsl(0.0,100%,20%)">natlee</text>
<text x="1.291" y="0.654" font-size="0.022850" fill="hsl(0.0,100%,20%)">bryan.bernhart</text>
<text x="0.881" y="0.699" font-size="0.039394" fill="hsl(0.0,100%,20%)">senorblanco</text>
<text x="1.094" y="0.716" font-size="0.034486" fill="hsl(0.0,100%,20%)">jiawei.shao</text>
<text x="1.386" y="0.978" font-size="0.007125" fill="hsl(0.0,100%,20%)">shaobo.yan</text>
<text x="1.885" y="0.827" font-size="0.002693" fill="hsl(0.0,100%,20%)">johnstiles</text>
<text x="1.816" y="0.612" font-size="0.020508" fill="hsl(0.0,100%,20%)">tommek</text>
<text x="1.499" y="0.503" font-size="0.019042" fill="hsl(0.0,100%,20%)">yunchao.he</text>
<text x="1.518" y="0.889" font-size="0.002693" fill="hsl(0.0,100%,20%)">sque</text>
<text x="1.316" y="0.379" font-size="0.007125" fill="hsl(0.0,100%,20%)">zmo</text>
<text x="1.409" y="0.892" font-size="0.002693" fill="hsl(0.0,100%,20%)">thakis</text>
<text x="1.203" y="0.801" font-size="0.003808" fill="hsl(0.0,100%,20%)">digit</text>
<text x="1.045" y="0.968" font-size="0.007617" fill="hsl(0.0,100%,20%)">cwoffenden</text>
<text x="0.873" y="0.071" font-size="0.025547" fill="hsl(180.0,100%,20%)">dj2</text>
<text x="1.594" y="0.612" font-size="0.011103" fill="hsl(0.0,100%,20%)">idanr</text>
<text x="1.180" y="0.681" font-size="0.002693" fill="hsl(0.0,100%,20%)">mtklein</text>
<text x="1.065" y="0.671" font-size="0.003808" fill="hsl(0.0,100%,20%)">mehe</text>
<text x="1.015" y="0.616" font-size="0.012631" fill="hsl(0.0,100%,20%)">enrico.galli</text>
<text x="0.795" y="0.451" font-size="0.017031" fill="hsl(0.0,100%,20%)">hao.x.li</text>
<text x="0.640" y="0.892" font-size="0.007617" fill="hsl(0.0,100%,20%)">jiajie.hu</text>
<text x="1.587" y="0.968" font-size="0.009328" fill="hsl(0.0,100%,20%)">xinghua.cao</text>
</svg>
