<svg width="4000" height="2000" viewBox="-0.025 -0.025 2.05 1.05" xmlns="http://www.w3.org/2000/svg">
  <style>
    path {
      fill: none;
      stroke-linecap: round;
      stroke-opacity: 0.4;
    }

    text {
      text-anchor: middle;
      alignment-baseline: hanging;
    }
  </style>
  <g opacity="0.4">
<path d="M1.763 0.182 Q1.346 0.301 1.488 0.530" stroke="hsl(0.0,100%,35%)" stroke-width="0.09000"></path>
<path d="M1.763 0.182 Q1.798 0.122 1.688 0.091" stroke="hsl(0.0,100%,35%)" stroke-width="0.06000"></path>
<path d="M1.763 0.182 Q1.760 0.259 1.910 0.277" stroke="hsl(0.0,100%,35%)" stroke-width="0.01500"></path>
<path d="M0.977 0.738 Q1.319 0.814 1.542 0.663" stroke="hsl(180.0,100%,35%)" stroke-width="0.07500"></path>
<path d="M0.977 0.738 Q1.003 0.890 1.305 0.910" stroke="hsl(180.0,100%,35%)" stroke-width="0.01500"></path>
<path d="M0.977 0.738 Q1.398 0.736 1.488 0.530" stroke="hsl(180.0,100%,35%)" stroke-width="0.01500"></path>
<path d="M1.855 0.682 Q1.976 0.637 1.914 0.568" stroke="hsl(180.0,100%,35%)" stroke-width="0.01500"></path>
<path d="M1.855 0.682 Q1.714 0.610 1.542 0.663" stroke="hsl(180.0,100%,35%)" stroke-width="0.01500"></path>
</g>
<text x="1.763" y="0.129" font-size="0.104881" fill="hsl(0.0,100%,20%)">bclayton</text>
<text x="1.488" y="0.488" font-size="0.083666" fill="hsl(0.0,100%,20%)">dsinclair</text>
<text x="1.688" y="0.060" font-size="0.063246" fill="hsl(0.0,100%,20%)">amaiorano</text>
<text x="1.910" y="0.262" font-size="0.031623" fill="hsl(0.0,100%,20%)">jrprice</text>
<text x="0.977" y="0.696" font-size="0.083666" fill="hsl(180.0,100%,20%)">bsheedy</text>
<text x="1.542" y="0.624" font-size="0.077460" fill="hsl(180.0,100%,20%)">enga</text>
<text x="1.305" y="0.894" font-size="0.031623" fill="hsl(180.0,100%,20%)">kainino</text>
<text x="1.855" y="0.660" font-size="0.044721" fill="hsl(180.0,100%,20%)">penghuang</text>
<text x="1.914" y="0.552" font-size="0.031623" fill="hsl(180.0,100%,20%)">cwallez</text>
</svg>
