<svg width="4000" height="2000" viewBox="-0.025 -0.025 2.05 1.05" xmlns="http://www.w3.org/2000/svg">
  <style>
    path {
      fill: none;
      stroke-linecap: round;
      stroke-opacity: 0.4;
    }

    text {
      text-anchor: middle;
      alignment-baseline: hanging;
    }
  </style>
  <g opacity="0.4">
<path d="M0.410 0.273 Q0.367 0.531 0.860 0.609" stroke="hsl(0.0,100%,35%)" stroke-width="0.00438"></path>
<path d="M0.410 0.273 Q0.230 0.237 0.120 0.317" stroke="hsl(0.0,100%,35%)" stroke-width="0.00146"></path>
<path d="M0.410 0.273 Q0.589 0.258 0.597 0.167" stroke="hsl(0.0,100%,35%)" stroke-width="0.00731"></path>
<path d="M0.410 0.273 Q0.523 0.489 0.968 0.481" stroke="hsl(0.0,100%,35%)" stroke-width="0.00219"></path>
<path d="M0.860 0.609 Q0.626 0.795 0.939 0.951" stroke="hsl(180.0,100%,35%)" stroke-width="0.00658"></path>
<path d="M0.860 0.609 Q0.483 0.663 0.506 0.859" stroke="hsl(180.0,100%,35%)" stroke-width="0.01096"></path>
<path d="M0.860 0.609 Q1.016 0.566 0.968 0.481" stroke="hsl(180.0,100%,35%)" stroke-width="0.00585"></path>
<path d="M0.860 0.609 Q0.784 0.660 0.868 0.708" stroke="hsl(180.0,100%,35%)" stroke-width="0.00292"></path>
<path d="M0.860 0.609 Q1.082 0.335 0.597 0.167" stroke="hsl(180.0,100%,35%)" stroke-width="0.00219"></path>
<path d="M0.860 0.609 Q0.882 0.292 0.268 0.212" stroke="hsl(180.0,100%,35%)" stroke-width="0.00073"></path>
<path d="M0.860 0.609 Q0.930 0.696 1.115 0.681" stroke="hsl(180.0,100%,35%)" stroke-width="0.00073"></path>
<path d="M0.860 0.609 Q0.904 0.351 0.410 0.273" stroke="hsl(180.0,100%,35%)" stroke-width="0.00146"></path>
<path d="M0.860 0.609 Q1.225 0.580 1.248 0.396" stroke="hsl(180.0,100%,35%)" stroke-width="0.00073"></path>
<path d="M0.120 0.317 Q0.479 0.338 0.597 0.167" stroke="hsl(0.0,100%,35%)" stroke-width="0.01242"></path>
<path d="M0.120 0.317 Q0.413 0.569 0.968 0.481" stroke="hsl(0.0,100%,35%)" stroke-width="0.00073"></path>
<path d="M0.120 0.317 Q0.181 0.663 0.868 0.708" stroke="hsl(0.0,100%,35%)" stroke-width="0.00146"></path>
<path d="M0.120 0.317 Q0.734 0.837 1.881 0.651" stroke="hsl(0.0,100%,35%)" stroke-width="0.00950"></path>
<path d="M0.120 0.317 Q0.300 0.354 0.410 0.273" stroke="hsl(0.0,100%,35%)" stroke-width="0.00146"></path>
<path d="M0.120 0.317 Q0.278 0.295 0.268 0.212" stroke="hsl(0.0,100%,35%)" stroke-width="0.00073"></path>
<path d="M0.597 0.167 Q0.419 0.183 0.410 0.273" stroke="hsl(0.0,100%,35%)" stroke-width="0.01461"></path>
<path d="M0.597 0.167 Q0.238 0.147 0.120 0.317" stroke="hsl(0.0,100%,35%)" stroke-width="0.03800"></path>
<path d="M0.597 0.167 Q0.531 0.398 0.968 0.481" stroke="hsl(0.0,100%,35%)" stroke-width="0.01169"></path>
<path d="M0.597 0.167 Q0.375 0.441 0.860 0.609" stroke="hsl(0.0,100%,35%)" stroke-width="0.00511"></path>
<path d="M0.597 0.167 Q0.397 0.124 0.268 0.212" stroke="hsl(0.0,100%,35%)" stroke-width="0.04749"></path>
<path d="M0.597 0.167 Q0.427 0.196 0.447 0.285" stroke="hsl(0.0,100%,35%)" stroke-width="0.00073"></path>
<path d="M0.597 0.167 Q0.141 0.627 0.939 0.951" stroke="hsl(0.0,100%,35%)" stroke-width="0.00073"></path>
<path d="M0.597 0.167 Q0.852 0.666 1.881 0.651" stroke="hsl(0.0,100%,35%)" stroke-width="0.00438"></path>
<path d="M0.597 0.167 Q0.470 0.263 0.630 0.346" stroke="hsl(0.0,100%,35%)" stroke-width="0.00073"></path>
<path d="M0.968 0.481 Q0.577 0.710 0.939 0.951" stroke="hsl(180.0,100%,35%)" stroke-width="0.00219"></path>
<path d="M0.968 0.481 Q1.033 0.250 0.597 0.167" stroke="hsl(180.0,100%,35%)" stroke-width="0.02119"></path>
<path d="M0.968 0.481 Q0.833 0.207 0.268 0.212" stroke="hsl(180.0,100%,35%)" stroke-width="0.00146"></path>
<path d="M0.968 0.481 Q0.812 0.523 0.860 0.609" stroke="hsl(180.0,100%,35%)" stroke-width="0.02996"></path>
<path d="M0.968 0.481 Q0.736 0.575 0.868 0.708" stroke="hsl(180.0,100%,35%)" stroke-width="0.00146"></path>
<path d="M0.968 0.481 Q0.435 0.577 0.506 0.859" stroke="hsl(180.0,100%,35%)" stroke-width="0.01681"></path>
<path d="M0.968 0.481 Q0.768 0.393 0.552 0.471" stroke="hsl(180.0,100%,35%)" stroke-width="0.00073"></path>
<path d="M0.968 0.481 Q0.906 0.346 0.630 0.346" stroke="hsl(180.0,100%,35%)" stroke-width="0.00073"></path>
<path d="M0.968 0.481 Q1.108 0.370 0.922 0.277" stroke="hsl(180.0,100%,35%)" stroke-width="0.00073"></path>
<path d="M0.968 0.481 Q0.911 0.406 0.752 0.417" stroke="hsl(180.0,100%,35%)" stroke-width="0.00073"></path>
<path d="M0.522 0.037 Q0.455 0.117 0.597 0.167" stroke="hsl(0.0,100%,35%)" stroke-width="0.00146"></path>
<path d="M0.522 0.037 Q0.390 0.348 0.968 0.481" stroke="hsl(0.0,100%,35%)" stroke-width="0.00073"></path>
<path d="M0.630 0.346 Q0.691 0.481 0.968 0.481" stroke="hsl(180.0,100%,35%)" stroke-width="0.01681"></path>
<path d="M0.630 0.346 Q0.757 0.250 0.597 0.167" stroke="hsl(180.0,100%,35%)" stroke-width="0.00438"></path>
<path d="M0.630 0.346 Q0.535 0.524 0.860 0.609" stroke="hsl(180.0,100%,35%)" stroke-width="0.00146"></path>
<path d="M0.630 0.346 Q0.358 0.346 0.297 0.478" stroke="hsl(180.0,100%,35%)" stroke-width="0.00073"></path>
<path d="M1.364 0.665 Q1.313 0.494 0.968 0.481" stroke="hsl(180.0,100%,35%)" stroke-width="0.00073"></path>
<path d="M1.364 0.665 Q0.923 0.723 0.939 0.951" stroke="hsl(180.0,100%,35%)" stroke-width="0.00146"></path>
<path d="M1.364 0.665 Q1.522 0.507 1.248 0.396" stroke="hsl(180.0,100%,35%)" stroke-width="0.00073"></path>
<path d="M1.364 0.665 Q0.780 0.590 0.506 0.859" stroke="hsl(180.0,100%,35%)" stroke-width="0.00073"></path>
<path d="M1.364 0.665 Q1.379 0.263 0.597 0.167" stroke="hsl(180.0,100%,35%)" stroke-width="0.00073"></path>
<path d="M1.364 0.665 Q1.157 0.536 0.860 0.609" stroke="hsl(180.0,100%,35%)" stroke-width="0.00073"></path>
<path d="M0.939 0.951 Q1.537 0.735 1.248 0.396" stroke="hsl(180.0,100%,35%)" stroke-width="0.00073"></path>
<path d="M0.939 0.951 Q1.329 0.722 0.968 0.481" stroke="hsl(180.0,100%,35%)" stroke-width="0.00804"></path>
<path d="M0.939 0.951 Q1.486 0.661 1.041 0.330" stroke="hsl(180.0,100%,35%)" stroke-width="0.00073"></path>
<path d="M0.939 0.951 Q1.173 0.764 0.860 0.609" stroke="hsl(180.0,100%,35%)" stroke-width="0.00146"></path>
<path d="M0.939 0.951 Q0.796 0.818 0.506 0.859" stroke="hsl(180.0,100%,35%)" stroke-width="0.00731"></path>
<path d="M0.939 0.951 Q1.395 0.491 0.597 0.167" stroke="hsl(180.0,100%,35%)" stroke-width="0.00073"></path>
<path d="M1.248 0.396 Q1.179 0.271 0.922 0.277" stroke="hsl(180.0,100%,35%)" stroke-width="0.00511"></path>
<path d="M1.248 0.396 Q0.884 0.425 0.860 0.609" stroke="hsl(180.0,100%,35%)" stroke-width="0.00658"></path>
<path d="M1.248 0.396 Q0.649 0.611 0.939 0.951" stroke="hsl(180.0,100%,35%)" stroke-width="0.00073"></path>
<path d="M1.248 0.396 Q0.807 0.476 0.868 0.708" stroke="hsl(180.0,100%,35%)" stroke-width="0.00073"></path>
<path d="M1.248 0.396 Q0.507 0.479 0.506 0.859" stroke="hsl(180.0,100%,35%)" stroke-width="0.00073"></path>
<path d="M1.248 0.396 Q0.746 0.131 0.120 0.317" stroke="hsl(180.0,100%,35%)" stroke-width="0.00073"></path>
<path d="M1.248 0.396 Q0.905 0.108 0.268 0.212" stroke="hsl(180.0,100%,35%)" stroke-width="0.00073"></path>
<path d="M0.506 0.859 Q1.039 0.762 0.968 0.481" stroke="hsl(180.0,100%,35%)" stroke-width="0.00804"></path>
<path d="M0.506 0.859 Q0.883 0.804 0.860 0.609" stroke="hsl(180.0,100%,35%)" stroke-width="0.01242"></path>
<path d="M0.506 0.859 Q0.649 0.991 0.939 0.951" stroke="hsl(180.0,100%,35%)" stroke-width="0.00511"></path>
<path d="M0.506 0.859 Q0.744 0.762 0.609 0.625" stroke="hsl(180.0,100%,35%)" stroke-width="0.00073"></path>
<path d="M0.868 0.708 Q0.709 0.844 0.939 0.951" stroke="hsl(180.0,100%,35%)" stroke-width="0.00146"></path>
<path d="M0.868 0.708 Q0.944 0.657 0.860 0.609" stroke="hsl(180.0,100%,35%)" stroke-width="0.00292"></path>
<path d="M0.868 0.708 Q1.100 0.615 0.968 0.481" stroke="hsl(180.0,100%,35%)" stroke-width="0.00073"></path>
<path d="M0.268 0.212 Q0.403 0.486 0.968 0.481" stroke="hsl(0.0,100%,35%)" stroke-width="0.00219"></path>
<path d="M0.268 0.212 Q0.469 0.255 0.597 0.167" stroke="hsl(0.0,100%,35%)" stroke-width="0.04238"></path>
<path d="M0.268 0.212 Q0.110 0.235 0.120 0.317" stroke="hsl(0.0,100%,35%)" stroke-width="0.00511"></path>
<path d="M0.268 0.212 Q0.109 0.487 0.609 0.625" stroke="hsl(0.0,100%,35%)" stroke-width="0.00073"></path>
<path d="M0.268 0.212 Q0.543 0.375 0.922 0.277" stroke="hsl(0.0,100%,35%)" stroke-width="0.00219"></path>
<path d="M0.268 0.212 Q0.612 0.500 1.248 0.396" stroke="hsl(0.0,100%,35%)" stroke-width="0.00073"></path>
<path d="M1.881 0.651 Q1.626 0.152 0.597 0.167" stroke="hsl(0.0,100%,35%)" stroke-width="0.00511"></path>
<path d="M1.881 0.651 Q1.405 0.426 0.860 0.609" stroke="hsl(0.0,100%,35%)" stroke-width="0.00073"></path>
<path d="M1.881 0.651 Q1.794 0.588 1.651 0.616" stroke="hsl(0.0,100%,35%)" stroke-width="0.00146"></path>
<path d="M1.881 0.651 Q1.267 0.132 0.120 0.317" stroke="hsl(0.0,100%,35%)" stroke-width="0.00365"></path>
<path d="M1.881 0.651 Q1.448 0.168 0.410 0.273" stroke="hsl(0.0,100%,35%)" stroke-width="0.00073"></path>
<path d="M0.922 0.277 Q0.626 0.431 0.860 0.609" stroke="hsl(180.0,100%,35%)" stroke-width="0.00658"></path>
<path d="M0.922 0.277 Q0.848 0.157 0.597 0.167" stroke="hsl(180.0,100%,35%)" stroke-width="0.00292"></path>
<path d="M0.922 0.277 Q0.249 0.485 0.506 0.859" stroke="hsl(180.0,100%,35%)" stroke-width="0.00073"></path>
<path d="M0.922 0.277 Q0.550 0.482 0.868 0.708" stroke="hsl(180.0,100%,35%)" stroke-width="0.00073"></path>
<path d="M0.922 0.277 Q0.647 0.114 0.268 0.212" stroke="hsl(180.0,100%,35%)" stroke-width="0.00219"></path>
<path d="M0.609 0.625 Q0.748 0.667 0.860 0.609" stroke="hsl(180.0,100%,35%)" stroke-width="0.00219"></path>
<path d="M0.609 0.625 Q1.044 0.514 0.922 0.277" stroke="hsl(180.0,100%,35%)" stroke-width="0.00073"></path>
<path d="M0.609 0.625 Q0.969 0.394 0.597 0.167" stroke="hsl(180.0,100%,35%)" stroke-width="0.00146"></path>
<path d="M0.609 0.625 Q0.371 0.721 0.506 0.859" stroke="hsl(180.0,100%,35%)" stroke-width="0.00292"></path>
<path d="M0.609 0.625 Q0.672 0.718 0.868 0.708" stroke="hsl(180.0,100%,35%)" stroke-width="0.00146"></path>
<path d="M0.609 0.625 Q0.904 0.625 0.968 0.481" stroke="hsl(180.0,100%,35%)" stroke-width="0.00073"></path>
<path d="M0.467 0.701 Q0.738 0.734 0.860 0.609" stroke="hsl(180.0,100%,35%)" stroke-width="0.00438"></path>
<path d="M0.467 0.701 Q0.894 0.691 0.968 0.481" stroke="hsl(180.0,100%,35%)" stroke-width="0.00365"></path>
<path d="M0.467 0.701 Q0.361 0.788 0.506 0.859" stroke="hsl(180.0,100%,35%)" stroke-width="0.00073"></path>
<path d="M1.315 0.256 Q0.805 0.341 0.860 0.609" stroke="hsl(180.0,100%,35%)" stroke-width="0.00073"></path>
<path d="M1.315 0.256 Q1.118 0.238 1.041 0.330" stroke="hsl(180.0,100%,35%)" stroke-width="0.00073"></path>
<path d="M1.315 0.256 Q0.961 0.299 0.968 0.481" stroke="hsl(180.0,100%,35%)" stroke-width="0.00073"></path>
<path d="M1.041 0.330 Q0.884 0.391 0.968 0.481" stroke="hsl(180.0,100%,35%)" stroke-width="0.02704"></path>
<path d="M1.041 0.330 Q0.949 0.160 0.597 0.167" stroke="hsl(180.0,100%,35%)" stroke-width="0.01242"></path>
<path d="M1.041 0.330 Q0.728 0.433 0.860 0.609" stroke="hsl(180.0,100%,35%)" stroke-width="0.01534"></path>
<path d="M1.041 0.330 Q1.245 0.356 1.339 0.262" stroke="hsl(180.0,100%,35%)" stroke-width="0.00073"></path>
<path d="M1.041 0.330 Q1.205 0.659 1.881 0.651" stroke="hsl(180.0,100%,35%)" stroke-width="0.00365"></path>
<path d="M1.041 0.330 Q0.890 0.451 1.092 0.551" stroke="hsl(180.0,100%,35%)" stroke-width="0.00219"></path>
<path d="M1.041 0.330 Q0.652 0.485 0.868 0.708" stroke="hsl(180.0,100%,35%)" stroke-width="0.00146"></path>
<path d="M1.041 0.330 Q0.763 0.453 0.942 0.615" stroke="hsl(180.0,100%,35%)" stroke-width="0.00073"></path>
<path d="M1.041 0.330 Q0.351 0.488 0.506 0.859" stroke="hsl(180.0,100%,35%)" stroke-width="0.00073"></path>
<path d="M1.041 0.330 Q0.591 0.140 0.120 0.317" stroke="hsl(180.0,100%,35%)" stroke-width="0.00073"></path>
<path d="M1.092 0.551 Q0.930 0.534 0.860 0.609" stroke="hsl(180.0,100%,35%)" stroke-width="0.00877"></path>
<path d="M1.092 0.551 Q1.086 0.491 0.968 0.481" stroke="hsl(180.0,100%,35%)" stroke-width="0.00438"></path>
<path d="M1.092 0.551 Q1.152 0.260 0.597 0.167" stroke="hsl(180.0,100%,35%)" stroke-width="0.00073"></path>
<path d="M1.386 0.535 Q1.220 0.424 0.968 0.481" stroke="hsl(180.0,100%,35%)" stroke-width="0.00146"></path>
<path d="M1.386 0.535 Q1.064 0.467 0.860 0.609" stroke="hsl(180.0,100%,35%)" stroke-width="0.00146"></path>
<path d="M1.386 0.535 Q1.226 0.484 1.092 0.551" stroke="hsl(180.0,100%,35%)" stroke-width="0.00146"></path>
<path d="M1.057 0.815 Q0.890 0.859 0.939 0.951" stroke="hsl(0.0,100%,35%)" stroke-width="0.00073"></path>
<path d="M1.057 0.815 Q1.167 0.415 0.410 0.273" stroke="hsl(0.0,100%,35%)" stroke-width="0.00146"></path>
<path d="M1.057 0.815 Q1.280 0.630 0.968 0.481" stroke="hsl(0.0,100%,35%)" stroke-width="0.00073"></path>
<path d="M1.057 0.815 Q1.124 0.673 0.860 0.609" stroke="hsl(0.0,100%,35%)" stroke-width="0.00146"></path>
<path d="M1.057 0.815 Q1.198 0.860 1.315 0.801" stroke="hsl(0.0,100%,35%)" stroke-width="0.00073"></path>
</g>
<text x="0.410" y="0.256" font-size="0.035494" fill="hsl(0.0,100%,20%)">amaiorano</text>
<text x="0.860" y="0.573" font-size="0.070618" fill="hsl(180.0,100%,20%)">enga</text>
<text x="0.120" y="0.291" font-size="0.052246" fill="hsl(0.0,100%,20%)">jrprice</text>
<text x="0.597" y="0.121" font-size="0.092643" fill="hsl(0.0,100%,20%)">bclayton</text>
<text x="0.968" y="0.442" font-size="0.078703" fill="hsl(180.0,100%,20%)">cwallez</text>
<text x="0.522" y="0.033" font-size="0.008874" fill="hsl(0.0,100%,20%)">andre</text>
<text x="0.630" y="0.332" font-size="0.029873" fill="hsl(180.0,100%,20%)">arthursonzogni</text>
<text x="0.297" y="0.476" font-size="0.005123" fill="hsl(180.0,100%,20%)">khaslett</text>
<text x="1.364" y="0.658" font-size="0.013555" fill="hsl(180.0,100%,20%)">austineng</text>
<text x="0.939" y="0.932" font-size="0.036944" fill="hsl(180.0,100%,20%)">kainino</text>
<text x="1.248" y="0.383" font-size="0.025616" fill="hsl(180.0,100%,20%)">shrekshao</text>
<text x="0.506" y="0.834" font-size="0.049406" fill="hsl(180.0,100%,20%)">lokokung</text>
<text x="0.868" y="0.697" font-size="0.023477" fill="hsl(180.0,100%,20%)">bajones</text>
<text x="0.268" y="0.181" font-size="0.061903" fill="hsl(0.0,100%,20%)">dsinclair</text>
<text x="0.447" y="0.283" font-size="0.005123" fill="hsl(0.0,100%,20%)">brucedawson</text>
<text x="1.881" y="0.635" font-size="0.032402" fill="hsl(0.0,100%,20%)">dneto</text>
<text x="0.552" y="0.468" font-size="0.005123" fill="hsl(180.0,100%,20%)">jamesgk</text>
<text x="0.922" y="0.263" font-size="0.028061" fill="hsl(180.0,100%,20%)">senorblanco</text>
<text x="0.752" y="0.415" font-size="0.005123" fill="hsl(180.0,100%,20%)">fhorschig</text>
<text x="1.651" y="0.613" font-size="0.007245" fill="hsl(0.0,100%,20%)">alanbaker</text>
<text x="0.609" y="0.615" font-size="0.019842" fill="hsl(180.0,100%,20%)">gman</text>
<text x="1.115" y="0.678" font-size="0.005123" fill="hsl(180.0,100%,20%)">lehoangquyen</text>
<text x="0.467" y="0.692" font-size="0.017747" fill="hsl(180.0,100%,20%)">hao.x.li</text>
<text x="1.315" y="0.251" font-size="0.008874" fill="hsl(180.0,100%,20%)">jianlin.qiu</text>
<text x="1.041" y="0.306" font-size="0.048872" fill="hsl(180.0,100%,20%)">jiawei.shao</text>
<text x="1.339" y="0.259" font-size="0.005123" fill="hsl(180.0,100%,20%)">zhaoming.jiang</text>
<text x="1.092" y="0.539" font-size="0.025098" fill="hsl(180.0,100%,20%)">penghuang</text>
<text x="0.942" y="0.613" font-size="0.005123" fill="hsl(180.0,100%,20%)">rharrison</text>
<text x="1.386" y="0.529" font-size="0.012549" fill="hsl(180.0,100%,20%)">jie.a.chen</text>
<text x="1.057" y="0.809" font-size="0.013555" fill="hsl(0.0,100%,20%)">ynovikov</text>
<text x="1.315" y="0.798" font-size="0.005123" fill="hsl(0.0,100%,20%)">bsheedy</text>
</svg>
