<svg width="4000" height="2000" viewBox="-0.025 -0.025 2.05 1.05" xmlns="http://www.w3.org/2000/svg">
  <style>
    path {
      fill: none;
      stroke-linecap: round;
      stroke-opacity: 0.4;
    }

    text {
      text-anchor: middle;
      alignment-baseline: hanging;
    }
  </style>
  <g opacity="0.4">
<path d="M1.085 0.592 Q0.950 0.668 1.070 0.751" stroke="hsl(0.0,100%,35%)" stroke-width="0.00126"></path>
<path d="M1.085 0.592 Q0.580 0.417 0.129 0.625" stroke="hsl(0.0,100%,35%)" stroke-width="0.00084"></path>
<path d="M1.085 0.592 Q1.639 0.376 1.340 0.059" stroke="hsl(0.0,100%,35%)" stroke-width="0.00042"></path>
<path d="M1.085 0.592 Q0.651 0.611 0.595 0.827" stroke="hsl(0.0,100%,35%)" stroke-width="0.00042"></path>
<path d="M1.070 0.751 Q1.821 0.547 1.588 0.136" stroke="hsl(0.0,100%,35%)" stroke-width="0.01008"></path>
<path d="M1.070 0.751 Q1.759 0.459 1.340 0.059" stroke="hsl(0.0,100%,35%)" stroke-width="0.00063"></path>
<path d="M1.070 0.751 Q0.965 0.677 0.799 0.712" stroke="hsl(0.0,100%,35%)" stroke-width="0.01176"></path>
<path d="M1.070 0.751 Q0.700 0.500 0.129 0.625" stroke="hsl(0.0,100%,35%)" stroke-width="0.02205"></path>
<path d="M1.070 0.751 Q1.117 0.439 0.518 0.347" stroke="hsl(0.0,100%,35%)" stroke-width="0.00042"></path>
<path d="M1.070 0.751 Q0.792 0.754 0.738 0.891" stroke="hsl(0.0,100%,35%)" stroke-width="0.00021"></path>
<path d="M1.070 0.751 Q0.941 0.866 1.137 0.954" stroke="hsl(0.0,100%,35%)" stroke-width="0.00042"></path>
<path d="M1.070 0.751 Q0.771 0.694 0.595 0.827" stroke="hsl(0.0,100%,35%)" stroke-width="0.00168"></path>
<path d="M1.070 0.751 Q1.040 0.478 0.501 0.433" stroke="hsl(0.0,100%,35%)" stroke-width="0.00168"></path>
<path d="M1.070 0.751 Q0.853 0.754 0.813 0.861" stroke="hsl(0.0,100%,35%)" stroke-width="0.00021"></path>
<path d="M1.070 0.751 Q1.592 0.481 1.180 0.167" stroke="hsl(0.0,100%,35%)" stroke-width="0.00021"></path>
<path d="M1.070 0.751 Q0.864 0.589 0.503 0.653" stroke="hsl(0.0,100%,35%)" stroke-width="0.00042"></path>
<path d="M1.070 0.751 Q0.959 0.524 0.492 0.528" stroke="hsl(0.0,100%,35%)" stroke-width="0.00063"></path>
<path d="M1.070 0.751 Q1.205 0.655 1.048 0.568" stroke="hsl(0.0,100%,35%)" stroke-width="0.00021"></path>
<path d="M1.070 0.751 Q1.085 0.377 0.360 0.288" stroke="hsl(0.0,100%,35%)" stroke-width="0.00021"></path>
<path d="M1.070 0.751 Q1.739 0.620 1.629 0.265" stroke="hsl(0.0,100%,35%)" stroke-width="0.00021"></path>
<path d="M1.070 0.751 Q1.275 0.783 1.382 0.690" stroke="hsl(0.0,100%,35%)" stroke-width="0.00021"></path>
<path d="M0.129 0.625 Q0.395 0.802 0.799 0.712" stroke="hsl(0.0,100%,35%)" stroke-width="0.01953"></path>
<path d="M0.129 0.625 Q0.201 0.819 0.595 0.827" stroke="hsl(0.0,100%,35%)" stroke-width="0.00525"></path>
<path d="M0.129 0.625 Q0.499 0.876 1.070 0.751" stroke="hsl(0.0,100%,35%)" stroke-width="0.00861"></path>
<path d="M0.129 0.625 Q0.268 0.490 0.034 0.393" stroke="hsl(0.0,100%,35%)" stroke-width="0.00147"></path>
<path d="M0.129 0.625 Q1.021 0.606 1.180 0.167" stroke="hsl(0.0,100%,35%)" stroke-width="0.00126"></path>
<path d="M0.129 0.625 Q0.469 0.604 0.501 0.433" stroke="hsl(0.0,100%,35%)" stroke-width="0.00147"></path>
<path d="M0.129 0.625 Q1.188 0.584 1.340 0.059" stroke="hsl(0.0,100%,35%)" stroke-width="0.00105"></path>
<path d="M0.129 0.625 Q1.250 0.672 1.588 0.136" stroke="hsl(0.0,100%,35%)" stroke-width="0.00294"></path>
<path d="M0.129 0.625 Q0.389 0.649 0.492 0.528" stroke="hsl(0.0,100%,35%)" stroke-width="0.00063"></path>
<path d="M0.129 0.625 Q1.088 0.706 1.455 0.256" stroke="hsl(0.0,100%,35%)" stroke-width="0.00084"></path>
<path d="M0.129 0.625 Q0.294 0.714 0.503 0.653" stroke="hsl(0.0,100%,35%)" stroke-width="0.00063"></path>
<path d="M0.129 0.625 Q0.421 0.647 0.527 0.509" stroke="hsl(0.0,100%,35%)" stroke-width="0.00063"></path>
<path d="M0.129 0.625 Q0.546 0.564 0.518 0.347" stroke="hsl(0.0,100%,35%)" stroke-width="0.00126"></path>
<path d="M0.129 0.625 Q0.399 0.916 1.024 0.848" stroke="hsl(0.0,100%,35%)" stroke-width="0.00021"></path>
<path d="M0.129 0.625 Q1.168 0.745 1.629 0.265" stroke="hsl(0.0,100%,35%)" stroke-width="0.00105"></path>
<path d="M0.129 0.625 Q0.362 0.654 0.469 0.547" stroke="hsl(0.0,100%,35%)" stroke-width="0.00042"></path>
<path d="M0.129 0.625 Q0.496 0.726 0.772 0.570" stroke="hsl(0.0,100%,35%)" stroke-width="0.00021"></path>
<path d="M0.129 0.625 Q0.307 0.568 0.235 0.469" stroke="hsl(0.0,100%,35%)" stroke-width="0.00021"></path>
<path d="M0.129 0.625 Q0.384 0.569 0.330 0.433" stroke="hsl(0.0,100%,35%)" stroke-width="0.00063"></path>
<path d="M0.129 0.625 Q0.556 0.988 1.357 0.860" stroke="hsl(0.0,100%,35%)" stroke-width="0.00021"></path>
<path d="M1.340 0.059 Q1.402 0.147 1.588 0.136" stroke="hsl(180.0,100%,35%)" stroke-width="0.05627"></path>
<path d="M1.340 0.059 Q1.173 0.081 1.180 0.167" stroke="hsl(180.0,100%,35%)" stroke-width="0.00231"></path>
<path d="M1.340 0.059 Q0.698 0.039 0.518 0.347" stroke="hsl(180.0,100%,35%)" stroke-width="0.00084"></path>
<path d="M1.340 0.059 Q0.420 -0.035 0.034 0.393" stroke="hsl(180.0,100%,35%)" stroke-width="0.00021"></path>
<path d="M1.340 0.059 Q0.573 0.121 0.527 0.509" stroke="hsl(180.0,100%,35%)" stroke-width="0.00021"></path>
<path d="M1.340 0.059 Q1.240 0.180 1.455 0.256" stroke="hsl(180.0,100%,35%)" stroke-width="0.02415"></path>
<path d="M1.340 0.059 Q0.651 0.351 1.070 0.751" stroke="hsl(180.0,100%,35%)" stroke-width="0.00294"></path>
<path d="M1.340 0.059 Q1.319 0.220 1.629 0.265" stroke="hsl(180.0,100%,35%)" stroke-width="0.00042"></path>
<path d="M1.340 0.059 Q0.281 0.100 0.129 0.625" stroke="hsl(180.0,100%,35%)" stroke-width="0.00105"></path>
<path d="M1.340 0.059 Q0.352 0.294 0.595 0.827" stroke="hsl(180.0,100%,35%)" stroke-width="0.00042"></path>
<path d="M1.340 0.059 Q1.358 0.230 1.698 0.259" stroke="hsl(180.0,100%,35%)" stroke-width="0.00063"></path>
<path d="M1.340 0.059 Q0.902 0.102 0.891 0.325" stroke="hsl(180.0,100%,35%)" stroke-width="0.00021"></path>
<path d="M0.595 0.827 Q0.894 0.884 1.070 0.751" stroke="hsl(0.0,100%,35%)" stroke-width="0.00231"></path>
<path d="M0.595 0.827 Q0.789 0.810 0.799 0.712" stroke="hsl(0.0,100%,35%)" stroke-width="0.00294"></path>
<path d="M0.595 0.827 Q0.524 0.633 0.129 0.625" stroke="hsl(0.0,100%,35%)" stroke-width="0.00273"></path>
<path d="M0.595 0.827 Q1.644 0.680 1.588 0.136" stroke="hsl(0.0,100%,35%)" stroke-width="0.00021"></path>
<path d="M0.595 0.827 Q0.793 0.924 1.024 0.848" stroke="hsl(0.0,100%,35%)" stroke-width="0.00021"></path>
<path d="M0.595 0.827 Q0.662 0.498 0.034 0.393" stroke="hsl(0.0,100%,35%)" stroke-width="0.00021"></path>
<path d="M0.595 0.827 Q0.863 0.612 0.501 0.433" stroke="hsl(0.0,100%,35%)" stroke-width="0.00021"></path>
<path d="M0.595 0.827 Q1.562 0.753 1.629 0.265" stroke="hsl(0.0,100%,35%)" stroke-width="0.00021"></path>
<path d="M1.180 0.167 Q1.409 0.233 1.588 0.136" stroke="hsl(180.0,100%,35%)" stroke-width="0.00798"></path>
<path d="M1.180 0.167 Q0.288 0.186 0.129 0.625" stroke="hsl(180.0,100%,35%)" stroke-width="0.00693"></path>
<path d="M1.180 0.167 Q0.658 0.437 1.070 0.751" stroke="hsl(180.0,100%,35%)" stroke-width="0.00210"></path>
<path d="M1.180 0.167 Q1.247 0.267 1.455 0.256" stroke="hsl(180.0,100%,35%)" stroke-width="0.00105"></path>
<path d="M1.180 0.167 Q0.360 0.380 0.595 0.827" stroke="hsl(180.0,100%,35%)" stroke-width="0.00042"></path>
<path d="M1.180 0.167 Q1.347 0.145 1.340 0.059" stroke="hsl(180.0,100%,35%)" stroke-width="0.00231"></path>
<path d="M1.180 0.167 Q1.366 0.317 1.698 0.259" stroke="hsl(180.0,100%,35%)" stroke-width="0.00042"></path>
<path d="M1.180 0.167 Q1.327 0.306 1.629 0.265" stroke="hsl(180.0,100%,35%)" stroke-width="0.00021"></path>
<path d="M1.588 0.136 Q1.358 0.070 1.180 0.167" stroke="hsl(180.0,100%,35%)" stroke-width="0.01743"></path>
<path d="M1.588 0.136 Q1.425 0.169 1.455 0.256" stroke="hsl(180.0,100%,35%)" stroke-width="0.05060"></path>
<path d="M1.588 0.136 Q1.525 0.047 1.340 0.059" stroke="hsl(180.0,100%,35%)" stroke-width="0.05774"></path>
<path d="M1.588 0.136 Q0.837 0.340 1.070 0.751" stroke="hsl(180.0,100%,35%)" stroke-width="0.01449"></path>
<path d="M1.588 0.136 Q1.544 0.219 1.698 0.259" stroke="hsl(180.0,100%,35%)" stroke-width="0.00273"></path>
<path d="M1.588 0.136 Q0.538 0.283 0.595 0.827" stroke="hsl(180.0,100%,35%)" stroke-width="0.00042"></path>
<path d="M1.588 0.136 Q0.708 0.455 1.137 0.954" stroke="hsl(180.0,100%,35%)" stroke-width="0.00021"></path>
<path d="M1.588 0.136 Q0.467 0.089 0.129 0.625" stroke="hsl(180.0,100%,35%)" stroke-width="0.00777"></path>
<path d="M1.588 0.136 Q0.645 0.032 0.235 0.469" stroke="hsl(180.0,100%,35%)" stroke-width="0.00021"></path>
<path d="M1.588 0.136 Q0.806 0.067 0.501 0.433" stroke="hsl(180.0,100%,35%)" stroke-width="0.00042"></path>
<path d="M1.588 0.136 Q1.505 0.208 1.629 0.265" stroke="hsl(180.0,100%,35%)" stroke-width="0.00084"></path>
<path d="M1.588 0.136 Q0.884 0.028 0.518 0.347" stroke="hsl(180.0,100%,35%)" stroke-width="0.00105"></path>
<path d="M1.588 0.136 Q1.294 0.188 1.332 0.343" stroke="hsl(180.0,100%,35%)" stroke-width="0.00021"></path>
<path d="M1.588 0.136 Q0.736 0.379 1.024 0.848" stroke="hsl(180.0,100%,35%)" stroke-width="0.00021"></path>
<path d="M1.455 0.256 Q1.618 0.222 1.588 0.136" stroke="hsl(180.0,100%,35%)" stroke-width="0.04850"></path>
<path d="M1.455 0.256 Q1.574 0.306 1.698 0.259" stroke="hsl(180.0,100%,35%)" stroke-width="0.00651"></path>
<path d="M1.455 0.256 Q1.389 0.157 1.180 0.167" stroke="hsl(180.0,100%,35%)" stroke-width="0.00105"></path>
<path d="M1.455 0.256 Q1.555 0.134 1.340 0.059" stroke="hsl(180.0,100%,35%)" stroke-width="0.02289"></path>
<path d="M1.455 0.256 Q0.836 0.154 0.501 0.433" stroke="hsl(180.0,100%,35%)" stroke-width="0.00063"></path>
<path d="M1.455 0.256 Q0.867 0.426 1.070 0.751" stroke="hsl(180.0,100%,35%)" stroke-width="0.00126"></path>
<path d="M1.455 0.256 Q0.497 0.175 0.129 0.625" stroke="hsl(180.0,100%,35%)" stroke-width="0.00126"></path>
<path d="M1.455 0.256 Q0.789 0.197 0.527 0.509" stroke="hsl(180.0,100%,35%)" stroke-width="0.00021"></path>
<path d="M1.455 0.256 Q1.506 0.443 1.881 0.459" stroke="hsl(180.0,100%,35%)" stroke-width="0.00021"></path>
<path d="M1.455 0.256 Q1.353 0.204 1.229 0.243" stroke="hsl(180.0,100%,35%)" stroke-width="0.00021"></path>
<path d="M1.698 0.259 Q1.741 0.175 1.588 0.136" stroke="hsl(180.0,100%,35%)" stroke-width="0.00420"></path>
<path d="M1.698 0.259 Q1.579 0.209 1.455 0.256" stroke="hsl(180.0,100%,35%)" stroke-width="0.00231"></path>
<path d="M1.698 0.259 Q1.512 0.109 1.180 0.167" stroke="hsl(180.0,100%,35%)" stroke-width="0.00021"></path>
<path d="M1.698 0.259 Q1.629 0.395 1.881 0.459" stroke="hsl(180.0,100%,35%)" stroke-width="0.00042"></path>
<path d="M1.698 0.259 Q0.620 0.128 0.129 0.625" stroke="hsl(180.0,100%,35%)" stroke-width="0.00042"></path>
<path d="M1.698 0.259 Q1.679 0.087 1.340 0.059" stroke="hsl(180.0,100%,35%)" stroke-width="0.00105"></path>
<path d="M1.698 0.259 Q0.960 0.107 0.501 0.433" stroke="hsl(180.0,100%,35%)" stroke-width="0.00021"></path>
<path d="M1.698 0.259 Q0.990 0.379 1.070 0.751" stroke="hsl(180.0,100%,35%)" stroke-width="0.00042"></path>
<path d="M1.698 0.259 Q0.692 0.322 0.595 0.827" stroke="hsl(180.0,100%,35%)" stroke-width="0.00021"></path>
<path d="M1.629 0.265 Q0.591 0.145 0.129 0.625" stroke="hsl(0.0,100%,35%)" stroke-width="0.00105"></path>
<path d="M1.629 0.265 Q1.649 0.104 1.340 0.059" stroke="hsl(0.0,100%,35%)" stroke-width="0.00105"></path>
<path d="M1.629 0.265 Q1.712 0.192 1.588 0.136" stroke="hsl(0.0,100%,35%)" stroke-width="0.00063"></path>
<path d="M1.629 0.265 Q1.549 0.226 1.455 0.256" stroke="hsl(0.0,100%,35%)" stroke-width="0.00021"></path>
<path d="M1.629 0.265 Q1.482 0.126 1.180 0.167" stroke="hsl(0.0,100%,35%)" stroke-width="0.00021"></path>
<path d="M1.218 0.591 Q1.767 0.437 1.588 0.136" stroke="hsl(0.0,100%,35%)" stroke-width="0.00042"></path>
<path d="M1.218 0.591 Q1.016 0.641 1.070 0.751" stroke="hsl(0.0,100%,35%)" stroke-width="0.00042"></path>
<path d="M1.137 0.954 Q1.266 0.839 1.070 0.751" stroke="hsl(0.0,100%,35%)" stroke-width="0.00504"></path>
<path d="M1.137 0.954 Q0.896 0.588 0.129 0.625" stroke="hsl(0.0,100%,35%)" stroke-width="0.00042"></path>
<path d="M1.137 0.954 Q1.330 1.032 1.524 0.954" stroke="hsl(0.0,100%,35%)" stroke-width="0.00021"></path>
<path d="M1.137 0.954 Q2.017 0.635 1.588 0.136" stroke="hsl(0.0,100%,35%)" stroke-width="0.00147"></path>
<path d="M1.012 0.573 Q0.899 0.673 1.070 0.751" stroke="hsl(0.0,100%,35%)" stroke-width="0.00042"></path>
<path d="M1.012 0.573 Q0.600 0.616 0.595 0.827" stroke="hsl(0.0,100%,35%)" stroke-width="0.00042"></path>
<path d="M1.012 0.573 Q0.667 0.287 0.034 0.393" stroke="hsl(0.0,100%,35%)" stroke-width="0.00021"></path>
<path d="M1.012 0.573 Q0.794 0.600 0.799 0.712" stroke="hsl(0.0,100%,35%)" stroke-width="0.00021"></path>
<path d="M1.012 0.573 Q1.650 0.469 1.588 0.136" stroke="hsl(0.0,100%,35%)" stroke-width="0.00021"></path>
<path d="M1.012 0.573 Q0.529 0.423 0.129 0.625" stroke="hsl(0.0,100%,35%)" stroke-width="0.00021"></path>
<path d="M0.034 0.393 Q-0.104 0.528 0.129 0.625" stroke="hsl(0.0,100%,35%)" stroke-width="0.00777"></path>
<path d="M0.034 0.393 Q0.313 0.467 0.518 0.347" stroke="hsl(0.0,100%,35%)" stroke-width="0.00420"></path>
<path d="M0.034 0.393 Q0.954 0.487 1.340 0.059" stroke="hsl(0.0,100%,35%)" stroke-width="0.00042"></path>
<path d="M0.034 0.393 Q0.854 0.609 1.455 0.256" stroke="hsl(0.0,100%,35%)" stroke-width="0.00021"></path>
<path d="M0.034 0.393 Q-0.033 0.722 0.595 0.827" stroke="hsl(0.0,100%,35%)" stroke-width="0.00042"></path>
<path d="M0.034 0.393 Q0.235 0.506 0.501 0.433" stroke="hsl(0.0,100%,35%)" stroke-width="0.00021"></path>
<path d="M0.034 0.393 Q0.161 0.705 0.799 0.712" stroke="hsl(0.0,100%,35%)" stroke-width="0.00105"></path>
<path d="M0.034 0.393 Q1.017 0.575 1.588 0.136" stroke="hsl(0.0,100%,35%)" stroke-width="0.00126"></path>
<path d="M0.034 0.393 Q0.266 0.779 1.070 0.751" stroke="hsl(0.0,100%,35%)" stroke-width="0.00021"></path>
<path d="M0.799 0.712 Q0.533 0.535 0.129 0.625" stroke="hsl(0.0,100%,35%)" stroke-width="0.02310"></path>
<path d="M0.799 0.712 Q0.604 0.729 0.595 0.827" stroke="hsl(0.0,100%,35%)" stroke-width="0.00378"></path>
<path d="M0.799 0.712 Q0.903 0.786 1.070 0.751" stroke="hsl(0.0,100%,35%)" stroke-width="0.00714"></path>
<path d="M0.799 0.712 Q0.825 0.556 0.527 0.509" stroke="hsl(0.0,100%,35%)" stroke-width="0.00021"></path>
<path d="M0.799 0.712 Q1.425 0.516 1.180 0.167" stroke="hsl(0.0,100%,35%)" stroke-width="0.00021"></path>
<path d="M0.799 0.712 Q0.432 0.701 0.331 0.877" stroke="hsl(0.0,100%,35%)" stroke-width="0.00021"></path>
<path d="M0.799 0.712 Q1.654 0.582 1.588 0.136" stroke="hsl(0.0,100%,35%)" stroke-width="0.00084"></path>
<path d="M0.799 0.712 Q0.873 0.513 0.501 0.433" stroke="hsl(0.0,100%,35%)" stroke-width="0.00126"></path>
<path d="M0.799 0.712 Q0.672 0.399 0.034 0.393" stroke="hsl(0.0,100%,35%)" stroke-width="0.00210"></path>
<path d="M0.799 0.712 Q1.492 0.615 1.455 0.256" stroke="hsl(0.0,100%,35%)" stroke-width="0.00021"></path>
<path d="M0.330 0.444 Q0.085 0.495 0.129 0.625" stroke="hsl(0.0,100%,35%)" stroke-width="0.00042"></path>
<path d="M0.330 0.444 Q0.455 0.746 1.070 0.751" stroke="hsl(0.0,100%,35%)" stroke-width="0.00021"></path>
<path d="M0.330 0.444 Q0.424 0.473 0.501 0.433" stroke="hsl(0.0,100%,35%)" stroke-width="0.00021"></path>
<path d="M0.501 0.433 Q0.532 0.706 1.070 0.751" stroke="hsl(0.0,100%,35%)" stroke-width="0.00063"></path>
<path d="M0.501 0.433 Q0.162 0.455 0.129 0.625" stroke="hsl(0.0,100%,35%)" stroke-width="0.00420"></path>
<path d="M0.501 0.433 Q0.233 0.649 0.595 0.827" stroke="hsl(0.0,100%,35%)" stroke-width="0.00210"></path>
<path d="M0.501 0.433 Q0.427 0.632 0.799 0.712" stroke="hsl(0.0,100%,35%)" stroke-width="0.00042"></path>
<path d="M0.501 0.433 Q1.053 0.436 1.180 0.167" stroke="hsl(0.0,100%,35%)" stroke-width="0.00021"></path>
<path d="M0.501 0.433 Q1.239 0.585 1.698 0.259" stroke="hsl(0.0,100%,35%)" stroke-width="0.00021"></path>
<path d="M0.501 0.433 Q0.300 0.320 0.034 0.393" stroke="hsl(0.0,100%,35%)" stroke-width="0.00021"></path>
<path d="M0.518 0.347 Q1.222 0.455 1.588 0.136" stroke="hsl(0.0,100%,35%)" stroke-width="0.00357"></path>
<path d="M0.518 0.347 Q0.101 0.408 0.129 0.625" stroke="hsl(0.0,100%,35%)" stroke-width="0.00609"></path>
<path d="M0.518 0.347 Q1.160 0.367 1.340 0.059" stroke="hsl(0.0,100%,35%)" stroke-width="0.00147"></path>
<path d="M0.518 0.347 Q0.367 0.586 0.799 0.712" stroke="hsl(0.0,100%,35%)" stroke-width="0.00042"></path>
<path d="M0.518 0.347 Q0.441 0.387 0.501 0.433" stroke="hsl(0.0,100%,35%)" stroke-width="0.00021"></path>
<path d="M0.518 0.347 Q0.240 0.273 0.034 0.393" stroke="hsl(0.0,100%,35%)" stroke-width="0.00021"></path>
<path d="M0.518 0.347 Q0.393 0.430 0.527 0.509" stroke="hsl(0.0,100%,35%)" stroke-width="0.00042"></path>
<path d="M0.518 0.347 Q0.471 0.659 1.070 0.751" stroke="hsl(0.0,100%,35%)" stroke-width="0.00105"></path>
<path d="M0.518 0.347 Q0.173 0.602 0.595 0.827" stroke="hsl(0.0,100%,35%)" stroke-width="0.00021"></path>
<path d="M1.024 0.848 Q1.125 0.809 1.070 0.751" stroke="hsl(0.0,100%,35%)" stroke-width="0.02100"></path>
<path d="M1.024 0.848 Q0.755 0.558 0.129 0.625" stroke="hsl(0.0,100%,35%)" stroke-width="0.01680"></path>
<path d="M1.024 0.848 Q1.876 0.605 1.588 0.136" stroke="hsl(0.0,100%,35%)" stroke-width="0.00504"></path>
<path d="M1.024 0.848 Q1.021 0.735 0.799 0.712" stroke="hsl(0.0,100%,35%)" stroke-width="0.00021"></path>
<path d="M1.024 0.848 Q1.714 0.638 1.455 0.256" stroke="hsl(0.0,100%,35%)" stroke-width="0.00042"></path>
<path d="M1.024 0.848 Q1.095 0.536 0.501 0.433" stroke="hsl(0.0,100%,35%)" stroke-width="0.00042"></path>
<path d="M1.024 0.848 Q1.794 0.677 1.629 0.265" stroke="hsl(0.0,100%,35%)" stroke-width="0.00021"></path>
<path d="M1.024 0.848 Q1.833 0.688 1.698 0.259" stroke="hsl(0.0,100%,35%)" stroke-width="0.00105"></path>
<path d="M1.024 0.848 Q0.920 0.646 0.503 0.653" stroke="hsl(0.0,100%,35%)" stroke-width="0.00084"></path>
<path d="M1.024 0.848 Q1.053 0.650 0.672 0.593" stroke="hsl(0.0,100%,35%)" stroke-width="0.00021"></path>
<path d="M1.024 0.848 Q1.814 0.516 1.340 0.059" stroke="hsl(0.0,100%,35%)" stroke-width="0.00021"></path>
<path d="M1.024 0.848 Q1.220 0.863 1.292 0.771" stroke="hsl(0.0,100%,35%)" stroke-width="0.00042"></path>
<path d="M1.024 0.848 Q0.827 0.752 0.595 0.827" stroke="hsl(0.0,100%,35%)" stroke-width="0.00021"></path>
<path d="M1.476 0.755 Q1.276 0.672 1.070 0.751" stroke="hsl(0.0,100%,35%)" stroke-width="0.00525"></path>
<path d="M1.476 0.755 Q0.978 0.615 0.595 0.827" stroke="hsl(0.0,100%,35%)" stroke-width="0.00042"></path>
<path d="M1.476 0.755 Q0.906 0.421 0.129 0.625" stroke="hsl(0.0,100%,35%)" stroke-width="0.00168"></path>
<path d="M1.476 0.755 Q1.172 0.598 0.799 0.712" stroke="hsl(0.0,100%,35%)" stroke-width="0.00063"></path>
<path d="M1.382 0.690 Q1.177 0.658 1.070 0.751" stroke="hsl(0.0,100%,35%)" stroke-width="0.00462"></path>
<path d="M1.382 0.690 Q0.807 0.407 0.129 0.625" stroke="hsl(0.0,100%,35%)" stroke-width="0.00063"></path>
<path d="M1.382 0.690 Q1.073 0.584 0.799 0.712" stroke="hsl(0.0,100%,35%)" stroke-width="0.00021"></path>
<path d="M1.703 0.193 Q0.940 0.345 1.070 0.751" stroke="hsl(180.0,100%,35%)" stroke-width="0.00105"></path>
<path d="M1.703 0.193 Q0.570 0.094 0.129 0.625" stroke="hsl(180.0,100%,35%)" stroke-width="0.00105"></path>
<path d="M1.703 0.193 Q1.691 0.141 1.588 0.136" stroke="hsl(180.0,100%,35%)" stroke-width="0.00210"></path>
<path d="M1.703 0.193 Q1.528 0.175 1.455 0.256" stroke="hsl(180.0,100%,35%)" stroke-width="0.00021"></path>
<path d="M0.469 0.547 Q0.236 0.518 0.129 0.625" stroke="hsl(0.0,100%,35%)" stroke-width="0.00525"></path>
<path d="M0.469 0.547 Q0.703 0.615 0.888 0.516" stroke="hsl(0.0,100%,35%)" stroke-width="0.00042"></path>
<path d="M0.469 0.547 Q0.308 0.712 0.595 0.827" stroke="hsl(0.0,100%,35%)" stroke-width="0.00021"></path>
<path d="M0.503 0.653 Q0.338 0.565 0.129 0.625" stroke="hsl(0.0,100%,35%)" stroke-width="0.01932"></path>
<path d="M0.503 0.653 Q0.708 0.816 1.070 0.751" stroke="hsl(0.0,100%,35%)" stroke-width="0.00882"></path>
<path d="M0.503 0.653 Q1.459 0.612 1.588 0.136" stroke="hsl(0.0,100%,35%)" stroke-width="0.00042"></path>
<path d="M0.503 0.653 Q0.604 0.742 0.799 0.712" stroke="hsl(0.0,100%,35%)" stroke-width="0.00021"></path>
<path d="M0.492 0.528 Q0.603 0.755 1.070 0.751" stroke="hsl(0.0,100%,35%)" stroke-width="0.00294"></path>
<path d="M0.492 0.528 Q0.233 0.504 0.129 0.625" stroke="hsl(0.0,100%,35%)" stroke-width="0.00609"></path>
<path d="M0.492 0.528 Q0.397 0.593 0.503 0.653" stroke="hsl(0.0,100%,35%)" stroke-width="0.00021"></path>
<path d="M0.492 0.528 Q0.498 0.681 0.799 0.712" stroke="hsl(0.0,100%,35%)" stroke-width="0.00021"></path>
<path d="M0.360 0.288 Q-0.026 0.410 0.129 0.625" stroke="hsl(0.0,100%,35%)" stroke-width="0.00063"></path>
<path d="M0.360 0.288 Q0.344 0.661 1.070 0.751" stroke="hsl(0.0,100%,35%)" stroke-width="0.00042"></path>
<path d="M0.360 0.288 Q0.046 0.604 0.595 0.827" stroke="hsl(0.0,100%,35%)" stroke-width="0.00021"></path>
<path d="M0.405 0.680 Q0.311 0.597 0.129 0.625" stroke="hsl(0.0,100%,35%)" stroke-width="0.00021"></path>
<path d="M0.405 0.680 Q1.431 0.644 1.588 0.136" stroke="hsl(0.0,100%,35%)" stroke-width="0.00021"></path>
<path d="M0.405 0.680 Q0.681 0.848 1.070 0.751" stroke="hsl(0.0,100%,35%)" stroke-width="0.00021"></path>
<path d="M0.527 0.509 Q1.356 0.535 1.588 0.136" stroke="hsl(0.0,100%,35%)" stroke-width="0.00105"></path>
<path d="M0.527 0.509 Q0.501 0.665 0.799 0.712" stroke="hsl(0.0,100%,35%)" stroke-width="0.00126"></path>
<path d="M0.527 0.509 Q0.605 0.739 1.070 0.751" stroke="hsl(0.0,100%,35%)" stroke-width="0.00042"></path>
<path d="M0.527 0.509 Q0.575 0.466 0.501 0.433" stroke="hsl(0.0,100%,35%)" stroke-width="0.00084"></path>
<path d="M0.527 0.509 Q0.235 0.488 0.129 0.625" stroke="hsl(0.0,100%,35%)" stroke-width="0.00504"></path>
<path d="M0.527 0.509 Q0.652 0.426 0.518 0.347" stroke="hsl(0.0,100%,35%)" stroke-width="0.00231"></path>
<path d="M0.527 0.509 Q1.127 0.469 1.180 0.167" stroke="hsl(0.0,100%,35%)" stroke-width="0.00042"></path>
<path d="M0.527 0.509 Q0.306 0.682 0.595 0.827" stroke="hsl(0.0,100%,35%)" stroke-width="0.00021"></path>
<path d="M1.372 0.789 Q1.251 0.709 1.070 0.751" stroke="hsl(0.0,100%,35%)" stroke-width="0.00084"></path>
<path d="M1.372 0.789 Q0.881 0.459 0.129 0.625" stroke="hsl(0.0,100%,35%)" stroke-width="0.00042"></path>
<path d="M1.372 0.789 Q2.002 0.505 1.588 0.136" stroke="hsl(0.0,100%,35%)" stroke-width="0.00021"></path>
<path d="M0.772 0.570 Q0.570 0.557 0.503 0.653" stroke="hsl(0.0,100%,35%)" stroke-width="0.00588"></path>
<path d="M0.772 0.570 Q0.776 0.720 1.070 0.751" stroke="hsl(0.0,100%,35%)" stroke-width="0.00693"></path>
<path d="M0.772 0.570 Q0.406 0.469 0.129 0.625" stroke="hsl(0.0,100%,35%)" stroke-width="0.00903"></path>
<path d="M1.357 0.860 Q0.931 0.497 0.129 0.625" stroke="hsl(0.0,100%,35%)" stroke-width="0.00189"></path>
<path d="M1.357 0.860 Q1.197 0.674 0.799 0.712" stroke="hsl(0.0,100%,35%)" stroke-width="0.00084"></path>
<path d="M1.357 0.860 Q2.052 0.544 1.588 0.136" stroke="hsl(0.0,100%,35%)" stroke-width="0.00063"></path>
<path d="M1.357 0.860 Q1.823 0.478 1.180 0.167" stroke="hsl(0.0,100%,35%)" stroke-width="0.00021"></path>
<path d="M1.357 0.860 Q1.301 0.748 1.070 0.751" stroke="hsl(0.0,100%,35%)" stroke-width="0.00189"></path>
<path d="M1.186 0.428 Q0.765 0.492 0.799 0.712" stroke="hsl(0.0,100%,35%)" stroke-width="0.00021"></path>
<path d="M1.186 0.428 Q0.870 0.566 1.070 0.751" stroke="hsl(0.0,100%,35%)" stroke-width="0.00273"></path>
<path d="M1.186 0.428 Q0.500 0.315 0.129 0.625" stroke="hsl(0.0,100%,35%)" stroke-width="0.00273"></path>
<path d="M1.186 0.428 Q1.621 0.362 1.588 0.136" stroke="hsl(0.0,100%,35%)" stroke-width="0.00021"></path>
<path d="M0.181 0.462 Q0.024 0.533 0.129 0.625" stroke="hsl(0.0,100%,35%)" stroke-width="0.00084"></path>
<path d="M0.181 0.462 Q0.394 0.784 1.070 0.751" stroke="hsl(0.0,100%,35%)" stroke-width="0.00084"></path>
<path d="M0.181 0.462 Q0.277 0.421 0.219 0.365" stroke="hsl(0.0,100%,35%)" stroke-width="0.00042"></path>
<path d="M0.219 0.365 Q-0.034 0.477 0.129 0.625" stroke="hsl(0.0,100%,35%)" stroke-width="0.00252"></path>
<path d="M0.219 0.365 Q0.130 0.566 0.503 0.653" stroke="hsl(0.0,100%,35%)" stroke-width="0.00021"></path>
<path d="M0.219 0.365 Q0.336 0.728 1.070 0.751" stroke="hsl(0.0,100%,35%)" stroke-width="0.00021"></path>
<path d="M1.713 0.350 Q1.822 0.218 1.588 0.136" stroke="hsl(180.0,100%,35%)" stroke-width="0.00147"></path>
<path d="M1.713 0.350 Q1.593 0.152 1.180 0.167" stroke="hsl(180.0,100%,35%)" stroke-width="0.00021"></path>
<path d="M1.713 0.350 Q1.660 0.251 1.455 0.256" stroke="hsl(180.0,100%,35%)" stroke-width="0.00021"></path>
<path d="M1.713 0.350 Q1.740 0.291 1.629 0.265" stroke="hsl(180.0,100%,35%)" stroke-width="0.00021"></path>
<path d="M1.713 0.350 Q0.701 0.171 0.129 0.625" stroke="hsl(180.0,100%,35%)" stroke-width="0.00021"></path>
<path d="M1.288 1.196 Q1.165 0.679 0.129 0.625" stroke="hsl(0.0,100%,35%)" stroke-width="0.00021"></path>
<path d="M1.288 1.196 Q1.434 0.969 1.024 0.848" stroke="hsl(0.0,100%,35%)" stroke-width="0.00021"></path>
<path d="M1.288 1.196 Q1.535 0.930 1.070 0.751" stroke="hsl(0.0,100%,35%)" stroke-width="0.00021"></path>
<path d="M0.672 0.593 Q0.745 0.751 1.070 0.751" stroke="hsl(0.0,100%,35%)" stroke-width="0.00252"></path>
<path d="M0.672 0.593 Q0.375 0.500 0.129 0.625" stroke="hsl(0.0,100%,35%)" stroke-width="0.00231"></path>
<path d="M0.672 0.593 Q1.413 0.620 1.629 0.265" stroke="hsl(0.0,100%,35%)" stroke-width="0.00021"></path>
<path d="M0.672 0.593 Q0.640 0.678 0.799 0.712" stroke="hsl(0.0,100%,35%)" stroke-width="0.00021"></path>
<path d="M0.672 0.593 Q1.333 0.581 1.455 0.256" stroke="hsl(0.0,100%,35%)" stroke-width="0.00021"></path>
<path d="M0.672 0.593 Q1.267 0.482 1.180 0.167" stroke="hsl(0.0,100%,35%)" stroke-width="0.00021"></path>
<path d="M1.414 0.193 Q1.546 0.199 1.588 0.136" stroke="hsl(180.0,100%,35%)" stroke-width="0.00021"></path>
<path d="M1.414 0.193 Q0.426 0.152 0.129 0.625" stroke="hsl(180.0,100%,35%)" stroke-width="0.00063"></path>
<path d="M1.414 0.193 Q1.384 0.233 1.455 0.256" stroke="hsl(180.0,100%,35%)" stroke-width="0.00084"></path>
<path d="M0.273 0.426 Q0.412 0.748 1.070 0.751" stroke="hsl(0.0,100%,35%)" stroke-width="0.00168"></path>
<path d="M0.273 0.426 Q0.042 0.497 0.129 0.625" stroke="hsl(0.0,100%,35%)" stroke-width="0.00189"></path>
<path d="M0.273 0.426 Q0.295 0.385 0.219 0.365" stroke="hsl(0.0,100%,35%)" stroke-width="0.00021"></path>
<path d="M0.273 0.426 Q0.546 0.671 1.085 0.592" stroke="hsl(0.0,100%,35%)" stroke-width="0.00021"></path>
<path d="M1.184 0.297 Q1.432 0.370 1.629 0.265" stroke="hsl(0.0,100%,35%)" stroke-width="0.00021"></path>
<path d="M1.184 0.297 Q1.453 0.209 1.340 0.059" stroke="hsl(0.0,100%,35%)" stroke-width="0.00021"></path>
<path d="M1.184 0.297 Q1.515 0.297 1.588 0.136" stroke="hsl(0.0,100%,35%)" stroke-width="0.00021"></path>
<path d="M1.184 0.297 Q0.764 0.501 1.070 0.751" stroke="hsl(0.0,100%,35%)" stroke-width="0.00021"></path>
<path d="M0.877 0.639 Q0.884 0.733 1.070 0.751" stroke="hsl(0.0,100%,35%)" stroke-width="0.00063"></path>
<path d="M0.877 0.639 Q0.514 0.483 0.129 0.625" stroke="hsl(0.0,100%,35%)" stroke-width="0.00063"></path>
<path d="M0.877 0.639 Q0.773 0.506 0.492 0.528" stroke="hsl(0.0,100%,35%)" stroke-width="0.00021"></path>
<path d="M0.479 0.443 Q0.391 0.493 0.469 0.547" stroke="hsl(0.0,100%,35%)" stroke-width="0.00021"></path>
<path d="M0.479 0.443 Q0.158 0.464 0.129 0.625" stroke="hsl(0.0,100%,35%)" stroke-width="0.00231"></path>
<path d="M0.479 0.443 Q0.528 0.715 1.070 0.751" stroke="hsl(0.0,100%,35%)" stroke-width="0.00021"></path>
<path d="M0.479 0.443 Q1.050 0.445 1.180 0.167" stroke="hsl(0.0,100%,35%)" stroke-width="0.00042"></path>
<path d="M0.479 0.443 Q0.230 0.658 0.595 0.827" stroke="hsl(0.0,100%,35%)" stroke-width="0.00021"></path>
<path d="M0.479 0.443 Q1.279 0.511 1.588 0.136" stroke="hsl(0.0,100%,35%)" stroke-width="0.00021"></path>
</g>
<text x="1.085" y="0.587" font-size="0.009216" fill="hsl(0.0,100%,20%)">albin.bernhardsson</text>
<text x="1.070" y="0.718" font-size="0.066373" fill="hsl(0.0,100%,20%)">cwallez</text>
<text x="0.129" y="0.587" font-size="0.076518" fill="hsl(0.0,100%,20%)">enga</text>
<text x="1.340" y="0.024" font-size="0.069499" fill="hsl(180.0,100%,20%)">dsinclair</text>
<text x="0.595" y="0.814" font-size="0.026605" fill="hsl(0.0,100%,20%)">kainino</text>
<text x="1.180" y="0.150" font-size="0.035215" fill="hsl(180.0,100%,20%)">amaiorano</text>
<text x="1.588" y="0.090" font-size="0.090675" fill="hsl(180.0,100%,20%)">bclayton</text>
<text x="1.455" y="0.223" font-size="0.066544" fill="hsl(180.0,100%,20%)">jrprice</text>
<text x="1.698" y="0.247" font-size="0.023796" fill="hsl(180.0,100%,20%)">dneto</text>
<text x="1.629" y="0.258" font-size="0.013670" fill="hsl(0.0,100%,20%)">rharrison</text>
<text x="1.218" y="0.589" font-size="0.004759" fill="hsl(0.0,100%,20%)">andre</text>
<text x="1.137" y="0.947" font-size="0.014475" fill="hsl(0.0,100%,20%)">arthursonzogni</text>
<text x="1.524" y="0.953" font-size="0.002380" fill="hsl(0.0,100%,20%)">khaslett</text>
<text x="1.012" y="0.569" font-size="0.006731" fill="hsl(0.0,100%,20%)">austineng</text>
<text x="0.034" y="0.381" font-size="0.023436" fill="hsl(0.0,100%,20%)">shrekshao</text>
<text x="0.799" y="0.689" font-size="0.046265" fill="hsl(0.0,100%,20%)">lokokung</text>
<text x="0.330" y="0.442" font-size="0.004759" fill="hsl(0.0,100%,20%)">avi</text>
<text x="0.501" y="0.423" font-size="0.020608" fill="hsl(0.0,100%,20%)">bajones</text>
<text x="0.235" y="0.467" font-size="0.003365" fill="hsl(180.0,100%,20%)">brucedawson</text>
<text x="0.518" y="0.335" font-size="0.025296" fill="hsl(0.0,100%,20%)">senorblanco</text>
<text x="1.332" y="0.341" font-size="0.002380" fill="hsl(180.0,100%,20%)">kjlubick</text>
<text x="1.024" y="0.830" font-size="0.035931" fill="hsl(0.0,100%,20%)">jiawei.shao</text>
<text x="1.476" y="0.748" font-size="0.014669" fill="hsl(0.0,100%,20%)">beaufort.francois</text>
<text x="1.382" y="0.683" font-size="0.012365" fill="hsl(0.0,100%,20%)">blundell</text>
<text x="1.703" y="0.187" font-size="0.010905" fill="hsl(180.0,100%,20%)">brandon1.jones</text>
<text x="0.469" y="0.540" font-size="0.013249" fill="hsl(0.0,100%,20%)">bsheedy</text>
<text x="0.888" y="0.514" font-size="0.003365" fill="hsl(0.0,100%,20%)">gbeaty</text>
<text x="0.738" y="0.889" font-size="0.002380" fill="hsl(0.0,100%,20%)">fhorschig</text>
<text x="0.813" y="0.860" font-size="0.002380" fill="hsl(0.0,100%,20%)">jamesgk</text>
<text x="0.503" y="0.638" font-size="0.031569" fill="hsl(0.0,100%,20%)">penghuang</text>
<text x="0.492" y="0.519" font-size="0.017160" fill="hsl(0.0,100%,20%)">lehoangquyen</text>
<text x="1.048" y="0.567" font-size="0.002380" fill="hsl(0.0,100%,20%)">fbeaufort</text>
<text x="0.360" y="0.285" font-size="0.006296" fill="hsl(0.0,100%,20%)">yunchao.he</text>
<text x="0.405" y="0.678" font-size="0.004122" fill="hsl(0.0,100%,20%)">danakj</text>
<text x="1.881" y="0.457" font-size="0.004122" fill="hsl(180.0,100%,20%)">alanbaker</text>
<text x="0.527" y="0.500" font-size="0.018888" fill="hsl(0.0,100%,20%)">gman</text>
<text x="0.891" y="0.324" font-size="0.002380" fill="hsl(180.0,100%,20%)">yiwzhang</text>
<text x="1.372" y="0.786" font-size="0.006296" fill="hsl(0.0,100%,20%)">elie.michel.fr</text>
<text x="0.772" y="0.557" font-size="0.024384" fill="hsl(0.0,100%,20%)">jie.a.chen</text>
<text x="0.330" y="0.431" font-size="0.004122" fill="hsl(0.0,100%,20%)">toji</text>
<text x="1.357" y="0.854" font-size="0.012365" fill="hsl(0.0,100%,20%)">tiszka</text>
<text x="1.186" y="0.422" font-size="0.012592" fill="hsl(0.0,100%,20%)">hao.x.li</text>
<text x="0.181" y="0.458" font-size="0.007525" fill="hsl(0.0,100%,20%)">hitawala</text>
<text x="0.219" y="0.360" font-size="0.009811" fill="hsl(0.0,100%,20%)">sunnyps</text>
<text x="1.713" y="0.346" font-size="0.007892" fill="hsl(180.0,100%,20%)">jason.erb</text>
<text x="1.288" y="1.194" font-size="0.004122" fill="hsl(0.0,100%,20%)">jianlin.qiu</text>
<text x="0.672" y="0.587" font-size="0.012592" fill="hsl(0.0,100%,20%)">zhaoming.jiang</text>
<text x="1.292" y="0.769" font-size="0.003365" fill="hsl(0.0,100%,20%)">rafael.cintron</text>
<text x="1.414" y="0.189" font-size="0.006731" fill="hsl(180.0,100%,20%)">jojwang</text>
<text x="1.229" y="0.242" font-size="0.002380" fill="hsl(180.0,100%,20%)">johnstiles</text>
<text x="0.331" y="0.876" font-size="0.002380" fill="hsl(0.0,100%,20%)">kbr</text>
<text x="0.273" y="0.421" font-size="0.010372" fill="hsl(0.0,100%,20%)">shaobo.yan</text>
<text x="1.184" y="0.294" font-size="0.004759" fill="hsl(0.0,100%,20%)">stha09</text>
<text x="0.877" y="0.636" font-size="0.006296" fill="hsl(0.0,100%,20%)">vollick</text>
<text x="0.479" y="0.438" font-size="0.009811" fill="hsl(0.0,100%,20%)">ynovikov</text>
</svg>
