<svg width="4000" height="2000" viewBox="-0.025 -0.025 2.05 1.05" xmlns="http://www.w3.org/2000/svg">
  <style>
    path {
      fill: none;
      stroke-linecap: round;
      stroke-opacity: 0.4;
    }

    text {
      text-anchor: middle;
      alignment-baseline: hanging;
    }
  </style>
  <g opacity="0.4">
<path d="M0.760 0.408 Q0.631 0.340 0.469 0.387" stroke="hsl(0.0,100%,35%)" stroke-width="0.00436"></path>
<path d="M0.760 0.408 Q0.917 0.388 0.912 0.307" stroke="hsl(0.0,100%,35%)" stroke-width="0.00387"></path>
<path d="M0.760 0.408 Q0.858 0.243 0.558 0.159" stroke="hsl(0.0,100%,35%)" stroke-width="0.00048"></path>
<path d="M0.469 0.387 Q0.755 0.436 0.912 0.307" stroke="hsl(0.0,100%,35%)" stroke-width="0.07312"></path>
<path d="M0.469 0.387 Q0.696 0.291 0.558 0.159" stroke="hsl(0.0,100%,35%)" stroke-width="0.05908"></path>
<path d="M0.469 0.387 Q0.288 0.352 0.179 0.433" stroke="hsl(0.0,100%,35%)" stroke-width="0.00339"></path>
<path d="M0.469 0.387 Q0.461 0.280 0.249 0.260" stroke="hsl(0.0,100%,35%)" stroke-width="0.00145"></path>
<path d="M0.469 0.387 Q0.646 0.598 1.096 0.558" stroke="hsl(0.0,100%,35%)" stroke-width="0.00726"></path>
<path d="M0.469 0.387 Q0.882 0.313 0.827 0.095" stroke="hsl(0.0,100%,35%)" stroke-width="0.00484"></path>
<path d="M0.469 0.387 Q0.937 0.504 1.267 0.301" stroke="hsl(0.0,100%,35%)" stroke-width="0.00048"></path>
<path d="M0.469 0.387 Q1.082 0.479 1.396 0.200" stroke="hsl(0.0,100%,35%)" stroke-width="0.00097"></path>
<path d="M0.469 0.387 Q0.789 0.338 0.763 0.171" stroke="hsl(0.0,100%,35%)" stroke-width="0.00533"></path>
<path d="M0.469 0.387 Q0.597 0.456 0.760 0.408" stroke="hsl(0.0,100%,35%)" stroke-width="0.00048"></path>
<path d="M0.469 0.387 Q0.468 0.213 0.127 0.175" stroke="hsl(0.0,100%,35%)" stroke-width="0.00097"></path>
<path d="M0.469 0.387 Q0.751 0.503 1.039 0.391" stroke="hsl(0.0,100%,35%)" stroke-width="0.00048"></path>
<path d="M0.469 0.387 Q0.606 0.170 0.211 0.055" stroke="hsl(0.0,100%,35%)" stroke-width="0.00048"></path>
<path d="M0.469 0.387 Q1.103 0.332 1.134 0.011" stroke="hsl(0.0,100%,35%)" stroke-width="0.00097"></path>
<path d="M0.469 0.387 Q0.964 0.415 1.126 0.180" stroke="hsl(0.0,100%,35%)" stroke-width="0.00048"></path>
<path d="M0.469 0.387 Q0.728 0.362 0.735 0.230" stroke="hsl(0.0,100%,35%)" stroke-width="0.00048"></path>
<path d="M0.469 0.387 Q0.729 0.316 0.648 0.174" stroke="hsl(0.0,100%,35%)" stroke-width="0.00048"></path>
<path d="M0.912 0.307 Q0.626 0.258 0.469 0.387" stroke="hsl(0.0,100%,35%)" stroke-width="0.04164"></path>
<path d="M0.912 0.307 Q0.853 0.162 0.558 0.159" stroke="hsl(0.0,100%,35%)" stroke-width="0.04842"></path>
<path d="M0.912 0.307 Q0.803 0.469 1.096 0.558" stroke="hsl(0.0,100%,35%)" stroke-width="0.00097"></path>
<path d="M0.912 0.307 Q0.445 0.223 0.179 0.433" stroke="hsl(0.0,100%,35%)" stroke-width="0.00048"></path>
<path d="M0.912 0.307 Q0.568 0.363 0.601 0.543" stroke="hsl(0.0,100%,35%)" stroke-width="0.00048"></path>
<path d="M0.558 0.159 Q0.331 0.255 0.469 0.387" stroke="hsl(0.0,100%,35%)" stroke-width="0.00291"></path>
<path d="M0.558 0.159 Q0.508 0.466 1.096 0.558" stroke="hsl(0.0,100%,35%)" stroke-width="0.00048"></path>
<path d="M0.558 0.159 Q0.617 0.304 0.912 0.307" stroke="hsl(0.0,100%,35%)" stroke-width="0.00145"></path>
<path d="M0.990 0.040 Q0.738 0.158 0.912 0.307" stroke="hsl(0.0,100%,35%)" stroke-width="0.00097"></path>
<path d="M0.990 0.040 Q0.452 0.110 0.469 0.387" stroke="hsl(0.0,100%,35%)" stroke-width="0.00387"></path>
<path d="M0.990 0.040 Q0.679 0.013 0.558 0.159" stroke="hsl(0.0,100%,35%)" stroke-width="0.00387"></path>
<path d="M0.990 0.040 Q0.858 -0.001 0.748 0.054" stroke="hsl(0.0,100%,35%)" stroke-width="0.00048"></path>
<path d="M0.748 0.054 Q0.628 0.213 0.912 0.307" stroke="hsl(0.0,100%,35%)" stroke-width="0.00145"></path>
<path d="M0.748 0.054 Q0.569 0.069 0.558 0.159" stroke="hsl(0.0,100%,35%)" stroke-width="0.00291"></path>
<path d="M0.748 0.054 Q0.342 0.165 0.469 0.387" stroke="hsl(0.0,100%,35%)" stroke-width="0.00339"></path>
<path d="M1.396 0.200 Q1.069 0.157 0.912 0.307" stroke="hsl(0.0,100%,35%)" stroke-width="0.01211"></path>
<path d="M1.396 0.200 Q0.783 0.108 0.469 0.387" stroke="hsl(0.0,100%,35%)" stroke-width="0.01307"></path>
<path d="M1.396 0.200 Q1.010 0.012 0.558 0.159" stroke="hsl(0.0,100%,35%)" stroke-width="0.00533"></path>
<path d="M1.096 0.558 Q1.205 0.396 0.912 0.307" stroke="hsl(0.0,100%,35%)" stroke-width="0.01259"></path>
<path d="M1.096 0.558 Q0.919 0.347 0.469 0.387" stroke="hsl(0.0,100%,35%)" stroke-width="0.02034"></path>
<path d="M1.096 0.558 Q1.146 0.251 0.558 0.159" stroke="hsl(0.0,100%,35%)" stroke-width="0.01307"></path>
<path d="M0.827 0.095 Q0.414 0.169 0.469 0.387" stroke="hsl(0.0,100%,35%)" stroke-width="0.02131"></path>
<path d="M0.827 0.095 Q0.700 0.218 0.912 0.307" stroke="hsl(0.0,100%,35%)" stroke-width="0.01259"></path>
<path d="M0.827 0.095 Q0.641 0.073 0.558 0.159" stroke="hsl(0.0,100%,35%)" stroke-width="0.00968"></path>
<path d="M1.267 0.301 Q0.799 0.185 0.469 0.387" stroke="hsl(0.0,100%,35%)" stroke-width="0.00097"></path>
<path d="M1.267 0.301 Q1.085 0.233 0.912 0.307" stroke="hsl(0.0,100%,35%)" stroke-width="0.00436"></path>
<path d="M1.267 0.301 Q1.026 0.088 0.558 0.159" stroke="hsl(0.0,100%,35%)" stroke-width="0.00194"></path>
<path d="M0.763 0.171 Q0.730 0.269 0.912 0.307" stroke="hsl(0.0,100%,35%)" stroke-width="0.00097"></path>
<path d="M0.763 0.171 Q0.443 0.221 0.469 0.387" stroke="hsl(0.0,100%,35%)" stroke-width="0.00145"></path>
<path d="M0.763 0.171 Q0.671 0.124 0.558 0.159" stroke="hsl(0.0,100%,35%)" stroke-width="0.00145"></path>
<path d="M0.127 0.175 Q0.414 0.398 0.912 0.307" stroke="hsl(0.0,100%,35%)" stroke-width="0.00678"></path>
<path d="M0.127 0.175 Q0.355 0.253 0.558 0.159" stroke="hsl(0.0,100%,35%)" stroke-width="0.00775"></path>
<path d="M0.127 0.175 Q0.128 0.350 0.469 0.387" stroke="hsl(0.0,100%,35%)" stroke-width="0.01114"></path>
<path d="M1.134 0.011 Q0.728 -0.030 0.558 0.159" stroke="hsl(0.0,100%,35%)" stroke-width="0.00581"></path>
<path d="M1.134 0.011 Q0.787 0.114 0.912 0.307" stroke="hsl(0.0,100%,35%)" stroke-width="0.00097"></path>
<path d="M1.134 0.011 Q0.501 0.066 0.469 0.387" stroke="hsl(0.0,100%,35%)" stroke-width="0.00242"></path>
<path d="M1.126 0.180 Q0.859 0.056 0.558 0.159" stroke="hsl(0.0,100%,35%)" stroke-width="0.00630"></path>
<path d="M1.126 0.180 Q0.632 0.152 0.469 0.387" stroke="hsl(0.0,100%,35%)" stroke-width="0.00726"></path>
<path d="M1.126 0.180 Q0.918 0.201 0.912 0.307" stroke="hsl(0.0,100%,35%)" stroke-width="0.00436"></path>
<path d="M1.126 0.180 Q1.038 0.041 0.748 0.054" stroke="hsl(0.0,100%,35%)" stroke-width="0.00097"></path>
<path d="M0.735 0.230 Q0.476 0.255 0.469 0.387" stroke="hsl(0.0,100%,35%)" stroke-width="0.00872"></path>
<path d="M0.735 0.230 Q0.762 0.304 0.912 0.307" stroke="hsl(0.0,100%,35%)" stroke-width="0.00291"></path>
<path d="M0.735 0.230 Q0.703 0.159 0.558 0.159" stroke="hsl(0.0,100%,35%)" stroke-width="0.00436"></path>
<path d="M0.114 0.215 Q0.154 0.372 0.469 0.387" stroke="hsl(0.0,100%,35%)" stroke-width="0.00097"></path>
<path d="M0.114 0.215 Q0.152 0.198 0.127 0.175" stroke="hsl(0.0,100%,35%)" stroke-width="0.00048"></path>
<path d="M0.652 -0.117 Q0.384 0.002 0.558 0.159" stroke="hsl(0.0,100%,35%)" stroke-width="0.00097"></path>
<path d="M0.652 -0.117 Q0.417 0.028 0.648 0.174" stroke="hsl(0.0,100%,35%)" stroke-width="0.00048"></path>
<path d="M0.652 -0.117 Q0.157 0.099 0.469 0.387" stroke="hsl(0.0,100%,35%)" stroke-width="0.00048"></path>
<path d="M0.389 0.230 Q0.589 0.373 0.912 0.307" stroke="hsl(0.0,100%,35%)" stroke-width="0.00048"></path>
<path d="M0.389 0.230 Q0.303 0.324 0.469 0.387" stroke="hsl(0.0,100%,35%)" stroke-width="0.00194"></path>
<path d="M0.389 0.230 Q0.530 0.228 0.558 0.159" stroke="hsl(0.0,100%,35%)" stroke-width="0.00097"></path>
<path d="M0.712 0.215 Q0.453 0.253 0.469 0.387" stroke="hsl(0.0,100%,35%)" stroke-width="0.00872"></path>
<path d="M0.712 0.215 Q0.739 0.301 0.912 0.307" stroke="hsl(0.0,100%,35%)" stroke-width="0.00339"></path>
<path d="M0.712 0.215 Q0.680 0.156 0.558 0.159" stroke="hsl(0.0,100%,35%)" stroke-width="0.00339"></path>
<path d="M0.304 0.186 Q0.225 0.319 0.469 0.387" stroke="hsl(0.0,100%,35%)" stroke-width="0.00145"></path>
<path d="M0.304 0.186 Q0.511 0.368 0.912 0.307" stroke="hsl(0.0,100%,35%)" stroke-width="0.00145"></path>
<path d="M0.304 0.186 Q0.452 0.223 0.558 0.159" stroke="hsl(0.0,100%,35%)" stroke-width="0.00048"></path>
</g>
<text x="0.760" y="0.399" font-size="0.018997" fill="hsl(0.0,100%,20%)">beaufort.francois</text>
<text x="0.469" y="0.332" font-size="0.111538" fill="hsl(0.0,100%,20%)">cwallez</text>
<text x="0.912" y="0.259" font-size="0.096176" fill="hsl(0.0,100%,20%)">enga</text>
<text x="0.558" y="0.117" font-size="0.084282" fill="hsl(0.0,100%,20%)">kainino</text>
<text x="0.990" y="0.031" font-size="0.018997" fill="hsl(0.0,100%,20%)">brandon1.jones</text>
<text x="0.748" y="0.045" font-size="0.018997" fill="hsl(0.0,100%,20%)">rafael.cintron</text>
<text x="1.396" y="0.183" font-size="0.035136" fill="hsl(0.0,100%,20%)">bryan.bernhart</text>
<text x="0.179" y="0.427" font-size="0.012327" fill="hsl(0.0,100%,20%)">digit</text>
<text x="0.249" y="0.256" font-size="0.007549" fill="hsl(0.0,100%,20%)">thakis</text>
<text x="1.096" y="0.535" font-size="0.046328" fill="hsl(0.0,100%,20%)">jiawei.shao</text>
<text x="0.827" y="0.073" font-size="0.043581" fill="hsl(0.0,100%,20%)">yunchao.he</text>
<text x="1.267" y="0.292" font-size="0.017433" fill="hsl(0.0,100%,20%)">hob</text>
<text x="0.763" y="0.162" font-size="0.018997" fill="hsl(0.0,100%,20%)">senorblanco</text>
<text x="0.127" y="0.159" font-size="0.032613" fill="hsl(0.0,100%,20%)">rharrison</text>
<text x="1.039" y="0.389" font-size="0.004358" fill="hsl(0.0,100%,20%)">oshima</text>
<text x="0.211" y="0.053" font-size="0.004358" fill="hsl(0.0,100%,20%)">afakhry</text>
<text x="1.134" y="0.001" font-size="0.019971" fill="hsl(0.0,100%,20%)">idanr</text>
<text x="1.126" y="0.166" font-size="0.027563" fill="hsl(0.0,100%,20%)">natlee</text>
<text x="0.735" y="0.217" font-size="0.025412" fill="hsl(0.0,100%,20%)">hao.x.li</text>
<text x="0.648" y="0.171" font-size="0.006163" fill="hsl(0.0,100%,20%)">tandrii</text>
<text x="0.601" y="0.541" font-size="0.004358" fill="hsl(0.0,100%,20%)">kbr</text>
<text x="0.114" y="0.211" font-size="0.007549" fill="hsl(0.0,100%,20%)">fjhenigman</text>
<text x="0.652" y="-0.122" font-size="0.008716" fill="hsl(0.0,100%,20%)">iannucci</text>
<text x="0.389" y="0.224" font-size="0.011531" fill="hsl(0.0,100%,20%)">jiajie.hu</text>
<text x="0.712" y="0.203" font-size="0.024653" fill="hsl(0.0,100%,20%)">shaobo.yan</text>
<text x="0.304" y="0.180" font-size="0.011531" fill="hsl(0.0,100%,20%)">yizhou.jiang</text>
</svg>
