<svg width="4000" height="2000" viewBox="-0.025 -0.025 2.05 1.05" xmlns="http://www.w3.org/2000/svg">
  <style>
    path {
      fill: none;
      stroke-linecap: round;
      stroke-opacity: 0.4;
    }

    text {
      text-anchor: middle;
      alignment-baseline: hanging;
    }
  </style>
  <g opacity="0.4">
<path d="M1.196 0.653 Q1.487 0.856 1.948 0.759" stroke="hsl(0.0,100%,35%)" stroke-width="0.03398"></path>
<path d="M1.196 0.653 Q1.759 0.485 1.555 0.173" stroke="hsl(0.0,100%,35%)" stroke-width="0.01812"></path>
<path d="M1.196 0.653 Q1.823 0.597 1.851 0.278" stroke="hsl(0.0,100%,35%)" stroke-width="0.00227"></path>
<path d="M1.948 0.759 Q1.612 0.764 1.548 0.929" stroke="hsl(180.0,100%,35%)" stroke-width="0.01586"></path>
<path d="M1.948 0.759 Q2.283 0.499 1.851 0.278" stroke="hsl(180.0,100%,35%)" stroke-width="0.00906"></path>
<path d="M1.948 0.759 Q2.084 0.523 1.654 0.404" stroke="hsl(180.0,100%,35%)" stroke-width="0.00227"></path>
<path d="M1.948 0.759 Q1.988 0.202 0.910 0.060" stroke="hsl(180.0,100%,35%)" stroke-width="0.00680"></path>
<path d="M1.948 0.759 Q1.699 0.700 1.530 0.809" stroke="hsl(180.0,100%,35%)" stroke-width="0.00227"></path>
<path d="M1.555 0.173 Q1.619 0.285 1.851 0.278" stroke="hsl(0.0,100%,35%)" stroke-width="0.02039"></path>
<path d="M1.555 0.173 Q1.717 0.179 1.764 0.101" stroke="hsl(0.0,100%,35%)" stroke-width="0.04531"></path>
<path d="M1.555 0.173 Q1.436 0.133 1.332 0.183" stroke="hsl(0.0,100%,35%)" stroke-width="0.01586"></path>
<path d="M1.555 0.173 Q0.992 0.341 1.196 0.653" stroke="hsl(0.0,100%,35%)" stroke-width="0.01586"></path>
<path d="M1.555 0.173 Q1.283 0.544 1.948 0.759" stroke="hsl(0.0,100%,35%)" stroke-width="0.01133"></path>
<path d="M1.555 0.173 Q1.323 -0.012 0.910 0.060" stroke="hsl(0.0,100%,35%)" stroke-width="0.00906"></path>
<path d="M1.851 0.278 Q1.515 0.538 1.948 0.759" stroke="hsl(180.0,100%,35%)" stroke-width="0.00906"></path>
<path d="M1.851 0.278 Q1.179 0.543 1.548 0.929" stroke="hsl(180.0,100%,35%)" stroke-width="0.00227"></path>
<path d="M1.851 0.278 Q1.652 0.302 1.654 0.404" stroke="hsl(180.0,100%,35%)" stroke-width="0.00680"></path>
<path d="M1.851 0.278 Q1.787 0.167 1.555 0.173" stroke="hsl(180.0,100%,35%)" stroke-width="0.01812"></path>
<path d="M1.851 0.278 Q1.053 0.436 1.185 0.859" stroke="hsl(180.0,100%,35%)" stroke-width="0.00227"></path>
<path d="M1.764 0.101 Q1.038 0.263 1.196 0.653" stroke="hsl(0.0,100%,35%)" stroke-width="0.01133"></path>
<path d="M1.764 0.101 Q1.602 0.095 1.555 0.173" stroke="hsl(0.0,100%,35%)" stroke-width="0.00906"></path>
<path d="M1.764 0.101 Q1.557 0.153 1.614 0.265" stroke="hsl(0.0,100%,35%)" stroke-width="0.00227"></path>
<path d="M1.764 0.101 Q1.482 0.055 1.332 0.183" stroke="hsl(0.0,100%,35%)" stroke-width="0.00453"></path>
<path d="M0.910 0.060 Q1.304 0.251 1.764 0.101" stroke="hsl(0.0,100%,35%)" stroke-width="0.00227"></path>
<path d="M0.910 0.060 Q1.142 0.246 1.555 0.173" stroke="hsl(0.0,100%,35%)" stroke-width="0.00453"></path>
<path d="M0.910 0.060 Q0.870 0.617 1.948 0.759" stroke="hsl(0.0,100%,35%)" stroke-width="0.00453"></path>
<path d="M1.755 0.891 Q1.958 0.864 1.948 0.759" stroke="hsl(180.0,100%,35%)" stroke-width="0.04304"></path>
<path d="M1.755 0.891 Q1.709 0.805 1.530 0.809" stroke="hsl(180.0,100%,35%)" stroke-width="0.00227"></path>
<path d="M1.755 0.891 Q2.392 0.498 1.764 0.101" stroke="hsl(180.0,100%,35%)" stroke-width="0.00227"></path>
<path d="M1.548 0.929 Q2.000 0.850 1.945 0.612" stroke="hsl(180.0,100%,35%)" stroke-width="0.00227"></path>
<path d="M1.548 0.929 Q1.885 0.924 1.948 0.759" stroke="hsl(180.0,100%,35%)" stroke-width="0.02719"></path>
<path d="M1.548 0.929 Q2.220 0.664 1.851 0.278" stroke="hsl(180.0,100%,35%)" stroke-width="0.00227"></path>
<path d="M1.185 0.859 Q1.647 0.962 1.948 0.759" stroke="hsl(180.0,100%,35%)" stroke-width="0.00680"></path>
<path d="M1.185 0.859 Q1.983 0.702 1.851 0.278" stroke="hsl(180.0,100%,35%)" stroke-width="0.00453"></path>
<path d="M0.579 0.291 Q1.226 0.539 1.851 0.278" stroke="hsl(180.0,100%,35%)" stroke-width="0.00453"></path>
<path d="M0.579 0.291 Q0.412 0.319 0.430 0.407" stroke="hsl(180.0,100%,35%)" stroke-width="0.00227"></path>
<path d="M0.579 0.291 Q0.890 0.799 1.948 0.759" stroke="hsl(180.0,100%,35%)" stroke-width="0.00227"></path>
<path d="M1.499 0.676 Q1.196 0.705 1.185 0.859" stroke="hsl(180.0,100%,35%)" stroke-width="0.00453"></path>
<path d="M1.499 0.676 Q1.658 0.807 1.948 0.759" stroke="hsl(180.0,100%,35%)" stroke-width="0.00453"></path>
<path d="M1.499 0.676 Q1.993 0.548 1.851 0.278" stroke="hsl(180.0,100%,35%)" stroke-width="0.00227"></path>
<path d="M1.945 0.612 Q1.965 0.450 1.654 0.404" stroke="hsl(180.0,100%,35%)" stroke-width="0.00453"></path>
<path d="M1.945 0.612 Q1.829 0.686 1.948 0.759" stroke="hsl(180.0,100%,35%)" stroke-width="0.00453"></path>
<path d="M1.945 0.612 Q2.101 0.315 1.555 0.173" stroke="hsl(180.0,100%,35%)" stroke-width="0.00227"></path>
<path d="M1.945 0.612 Q1.580 0.627 1.530 0.809" stroke="hsl(180.0,100%,35%)" stroke-width="0.00227"></path>
<path d="M1.945 0.612 Q1.493 0.691 1.548 0.929" stroke="hsl(180.0,100%,35%)" stroke-width="0.00227"></path>
</g>
<text x="1.196" y="0.621" font-size="0.062897" fill="hsl(0.0,100%,20%)">amaiorano</text>
<text x="1.948" y="0.711" font-size="0.094346" fill="hsl(180.0,100%,20%)">enga</text>
<text x="1.555" y="0.128" font-size="0.090784" fill="hsl(0.0,100%,20%)">bclayton</text>
<text x="1.851" y="0.246" font-size="0.063765" fill="hsl(180.0,100%,20%)">cwallez</text>
<text x="1.764" y="0.070" font-size="0.061125" fill="hsl(0.0,100%,20%)">dsinclair</text>
<text x="1.332" y="0.167" font-size="0.031449" fill="hsl(0.0,100%,20%)">jrprice</text>
<text x="0.910" y="0.042" font-size="0.036314" fill="hsl(0.0,100%,20%)">dneto</text>
<text x="1.755" y="0.867" font-size="0.048038" fill="hsl(180.0,100%,20%)">bsheedy</text>
<text x="1.530" y="0.800" font-size="0.018157" fill="hsl(180.0,100%,20%)">kainino</text>
<text x="1.548" y="0.904" font-size="0.050274" fill="hsl(180.0,100%,20%)">lokokung</text>
<text x="1.654" y="0.391" font-size="0.025678" fill="hsl(180.0,100%,20%)">senorblanco</text>
<text x="1.185" y="0.845" font-size="0.029650" fill="hsl(180.0,100%,20%)">penghuang</text>
<text x="1.614" y="0.260" font-size="0.010483" fill="hsl(0.0,100%,20%)">yiwzhang</text>
<text x="0.579" y="0.281" font-size="0.020966" fill="hsl(180.0,100%,20%)">geofflang</text>
<text x="0.430" y="0.402" font-size="0.010483" fill="hsl(0.0,100%,20%)">fmalita</text>
<text x="1.499" y="0.665" font-size="0.023440" fill="hsl(180.0,100%,20%)">jie.a.chen</text>
<text x="1.945" y="0.597" font-size="0.029650" fill="hsl(180.0,100%,20%)">shrekshao</text>
</svg>
