<svg width="4000" height="2000" viewBox="-0.025 -0.025 2.05 1.05" xmlns="http://www.w3.org/2000/svg">
  <style>
    path {
      fill: none;
      stroke-linecap: round;
      stroke-opacity: 0.4;
    }

    text {
      text-anchor: middle;
      alignment-baseline: hanging;
    }
  </style>
  <g opacity="0.4">
<path d="M1.300 0.126 Q1.118 0.010 0.851 0.073" stroke="hsl(0.0,100%,35%)" stroke-width="0.00141"></path>
<path d="M1.300 0.126 Q0.929 0.124 0.843 0.304" stroke="hsl(0.0,100%,35%)" stroke-width="0.00040"></path>
<path d="M1.300 0.126 Q0.839 0.025 0.541 0.228" stroke="hsl(0.0,100%,35%)" stroke-width="0.00060"></path>
<path d="M0.851 0.073 Q0.572 0.088 0.541 0.228" stroke="hsl(0.0,100%,35%)" stroke-width="0.04712"></path>
<path d="M0.851 0.073 Q0.724 0.105 0.758 0.174" stroke="hsl(0.0,100%,35%)" stroke-width="0.00383"></path>
<path d="M0.851 0.073 Q0.957 0.144 1.119 0.108" stroke="hsl(0.0,100%,35%)" stroke-width="0.01973"></path>
<path d="M0.851 0.073 Q0.724 0.059 0.670 0.118" stroke="hsl(0.0,100%,35%)" stroke-width="0.00020"></path>
<path d="M0.851 0.073 Q1.033 0.189 1.300 0.126" stroke="hsl(0.0,100%,35%)" stroke-width="0.00060"></path>
<path d="M0.851 0.073 Q0.903 0.399 1.550 0.445" stroke="hsl(0.0,100%,35%)" stroke-width="0.00383"></path>
<path d="M0.851 0.073 Q0.246 0.111 0.187 0.415" stroke="hsl(0.0,100%,35%)" stroke-width="0.00020"></path>
<path d="M0.851 0.073 Q1.046 0.506 1.934 0.506" stroke="hsl(0.0,100%,35%)" stroke-width="0.00201"></path>
<path d="M0.851 0.073 Q0.866 0.621 1.939 0.734" stroke="hsl(0.0,100%,35%)" stroke-width="0.00121"></path>
<path d="M0.851 0.073 Q0.809 0.539 1.709 0.662" stroke="hsl(0.0,100%,35%)" stroke-width="0.00101"></path>
<path d="M0.851 0.073 Q0.864 0.240 1.192 0.270" stroke="hsl(0.0,100%,35%)" stroke-width="0.00040"></path>
<path d="M0.851 0.073 Q1.193 0.128 1.377 -0.027" stroke="hsl(0.0,100%,35%)" stroke-width="0.00020"></path>
<path d="M0.851 0.073 Q0.662 0.187 0.843 0.304" stroke="hsl(0.0,100%,35%)" stroke-width="0.01007"></path>
<path d="M0.851 0.073 Q0.696 0.146 0.805 0.238" stroke="hsl(0.0,100%,35%)" stroke-width="0.00020"></path>
<path d="M0.851 0.073 Q0.363 0.143 0.393 0.396" stroke="hsl(0.0,100%,35%)" stroke-width="0.00020"></path>
<path d="M0.851 0.073 Q0.494 0.144 0.554 0.334" stroke="hsl(0.0,100%,35%)" stroke-width="0.00020"></path>
<path d="M0.851 0.073 Q0.634 0.288 1.006 0.441" stroke="hsl(0.0,100%,35%)" stroke-width="0.00020"></path>
<path d="M0.851 0.073 Q0.808 0.224 1.094 0.279" stroke="hsl(0.0,100%,35%)" stroke-width="0.00020"></path>
<path d="M0.851 0.073 Q0.778 0.278 1.162 0.359" stroke="hsl(0.0,100%,35%)" stroke-width="0.00020"></path>
<path d="M0.851 0.073 Q0.554 0.122 0.584 0.277" stroke="hsl(0.0,100%,35%)" stroke-width="0.00040"></path>
<path d="M0.843 0.304 Q1.032 0.190 0.851 0.073" stroke="hsl(0.0,100%,35%)" stroke-width="0.00443"></path>
<path d="M0.843 0.304 Q1.047 0.738 1.939 0.734" stroke="hsl(0.0,100%,35%)" stroke-width="0.00020"></path>
<path d="M0.843 0.304 Q0.753 0.206 0.541 0.228" stroke="hsl(0.0,100%,35%)" stroke-width="0.00282"></path>
<path d="M0.843 0.304 Q0.990 0.656 1.709 0.662" stroke="hsl(0.0,100%,35%)" stroke-width="0.00020"></path>
<path d="M0.541 0.228 Q0.926 0.283 1.119 0.108" stroke="hsl(0.0,100%,35%)" stroke-width="0.00966"></path>
<path d="M0.541 0.228 Q0.820 0.212 0.851 0.073" stroke="hsl(0.0,100%,35%)" stroke-width="0.02456"></path>
<path d="M0.541 0.228 Q0.872 0.538 1.550 0.445" stroke="hsl(0.0,100%,35%)" stroke-width="0.00322"></path>
<path d="M0.541 0.228 Q1.014 0.646 1.934 0.506" stroke="hsl(0.0,100%,35%)" stroke-width="0.00262"></path>
<path d="M0.541 0.228 Q0.693 0.244 0.758 0.174" stroke="hsl(0.0,100%,35%)" stroke-width="0.00463"></path>
<path d="M0.541 0.228 Q0.631 0.326 0.843 0.304" stroke="hsl(0.0,100%,35%)" stroke-width="0.00624"></path>
<path d="M0.541 0.228 Q0.214 0.250 0.187 0.415" stroke="hsl(0.0,100%,35%)" stroke-width="0.00040"></path>
<path d="M0.541 0.228 Q0.906 0.347 1.219 0.195" stroke="hsl(0.0,100%,35%)" stroke-width="0.00081"></path>
<path d="M0.541 0.228 Q0.464 0.329 0.644 0.389" stroke="hsl(0.0,100%,35%)" stroke-width="0.00020"></path>
<path d="M0.541 0.228 Q0.581 0.301 0.733 0.298" stroke="hsl(0.0,100%,35%)" stroke-width="0.00040"></path>
<path d="M1.550 0.445 Q1.692 0.552 1.934 0.506" stroke="hsl(180.0,100%,35%)" stroke-width="0.04832"></path>
<path d="M1.550 0.445 Q1.513 0.667 1.939 0.734" stroke="hsl(180.0,100%,35%)" stroke-width="0.01148"></path>
<path d="M1.550 0.445 Q1.610 0.588 1.903 0.591" stroke="hsl(180.0,100%,35%)" stroke-width="0.00081"></path>
<path d="M1.550 0.445 Q1.456 0.585 1.709 0.662" stroke="hsl(180.0,100%,35%)" stroke-width="0.00101"></path>
<path d="M1.550 0.445 Q1.399 0.527 1.528 0.619" stroke="hsl(180.0,100%,35%)" stroke-width="0.00040"></path>
<path d="M1.550 0.445 Q1.219 0.134 0.541 0.228" stroke="hsl(180.0,100%,35%)" stroke-width="0.00221"></path>
<path d="M1.550 0.445 Q1.497 0.119 0.851 0.073" stroke="hsl(180.0,100%,35%)" stroke-width="0.00221"></path>
<path d="M1.934 0.506 Q1.697 0.539 1.709 0.662" stroke="hsl(180.0,100%,35%)" stroke-width="0.02034"></path>
<path d="M1.934 0.506 Q1.791 0.399 1.550 0.445" stroke="hsl(180.0,100%,35%)" stroke-width="0.00926"></path>
<path d="M1.934 0.506 Q1.739 0.073 0.851 0.073" stroke="hsl(180.0,100%,35%)" stroke-width="0.00342"></path>
<path d="M1.934 0.506 Q1.461 0.088 0.541 0.228" stroke="hsl(180.0,100%,35%)" stroke-width="0.00081"></path>
<path d="M1.934 0.506 Q1.641 0.481 1.528 0.619" stroke="hsl(180.0,100%,35%)" stroke-width="0.01148"></path>
<path d="M1.934 0.506 Q1.754 0.621 1.939 0.734" stroke="hsl(180.0,100%,35%)" stroke-width="0.06302"></path>
<path d="M1.934 0.506 Q1.550 0.187 0.843 0.304" stroke="hsl(180.0,100%,35%)" stroke-width="0.00060"></path>
<path d="M1.934 0.506 Q1.695 0.176 0.998 0.220" stroke="hsl(180.0,100%,35%)" stroke-width="0.00020"></path>
<path d="M1.939 0.734 Q2.118 0.619 1.934 0.506" stroke="hsl(180.0,100%,35%)" stroke-width="0.04752"></path>
<path d="M1.939 0.734 Q1.976 0.511 1.550 0.445" stroke="hsl(180.0,100%,35%)" stroke-width="0.00765"></path>
<path d="M1.939 0.734 Q1.882 0.652 1.709 0.662" stroke="hsl(180.0,100%,35%)" stroke-width="0.00342"></path>
<path d="M1.939 0.734 Q1.923 0.186 0.851 0.073" stroke="hsl(180.0,100%,35%)" stroke-width="0.00020"></path>
<path d="M1.939 0.734 Q1.825 0.594 1.528 0.619" stroke="hsl(180.0,100%,35%)" stroke-width="0.00121"></path>
<path d="M1.903 0.591 Q1.986 0.555 1.934 0.506" stroke="hsl(180.0,100%,35%)" stroke-width="0.00362"></path>
<path d="M1.903 0.591 Q1.806 0.669 1.939 0.734" stroke="hsl(180.0,100%,35%)" stroke-width="0.00020"></path>
<path d="M1.903 0.591 Q1.843 0.447 1.550 0.445" stroke="hsl(180.0,100%,35%)" stroke-width="0.00081"></path>
<path d="M1.903 0.591 Q1.513 0.137 0.541 0.228" stroke="hsl(180.0,100%,35%)" stroke-width="0.00020"></path>
<path d="M1.709 0.662 Q1.473 0.211 0.541 0.228" stroke="hsl(180.0,100%,35%)" stroke-width="0.00987"></path>
<path d="M1.709 0.662 Q1.803 0.521 1.550 0.445" stroke="hsl(180.0,100%,35%)" stroke-width="0.00060"></path>
<path d="M1.709 0.662 Q1.946 0.629 1.934 0.506" stroke="hsl(180.0,100%,35%)" stroke-width="0.01510"></path>
<path d="M1.709 0.662 Q1.766 0.744 1.939 0.734" stroke="hsl(180.0,100%,35%)" stroke-width="0.00282"></path>
<path d="M1.709 0.662 Q1.751 0.196 0.851 0.073" stroke="hsl(180.0,100%,35%)" stroke-width="0.00644"></path>
<path d="M1.709 0.662 Q1.653 0.604 1.528 0.619" stroke="hsl(180.0,100%,35%)" stroke-width="0.00040"></path>
<path d="M1.709 0.662 Q1.562 0.310 0.843 0.304" stroke="hsl(180.0,100%,35%)" stroke-width="0.00121"></path>
<path d="M1.709 0.662 Q1.624 0.228 0.758 0.174" stroke="hsl(180.0,100%,35%)" stroke-width="0.00020"></path>
<path d="M1.528 0.619 Q1.821 0.644 1.934 0.506" stroke="hsl(180.0,100%,35%)" stroke-width="0.00705"></path>
<path d="M1.528 0.619 Q1.678 0.536 1.550 0.445" stroke="hsl(180.0,100%,35%)" stroke-width="0.00020"></path>
<path d="M1.528 0.619 Q1.641 0.759 1.939 0.734" stroke="hsl(180.0,100%,35%)" stroke-width="0.00342"></path>
<path d="M1.528 0.619 Q1.584 0.677 1.709 0.662" stroke="hsl(180.0,100%,35%)" stroke-width="0.00020"></path>
<path d="M0.393 0.396 Q0.602 0.342 0.541 0.228" stroke="hsl(0.0,100%,35%)" stroke-width="0.00503"></path>
<path d="M0.393 0.396 Q0.881 0.326 0.851 0.073" stroke="hsl(0.0,100%,35%)" stroke-width="0.00383"></path>
<path d="M0.393 0.396 Q0.275 0.364 0.187 0.415" stroke="hsl(0.0,100%,35%)" stroke-width="0.00141"></path>
<path d="M0.393 0.396 Q0.692 0.440 0.843 0.304" stroke="hsl(0.0,100%,35%)" stroke-width="0.00020"></path>
<path d="M0.393 0.396 Q0.654 0.275 0.474 0.121" stroke="hsl(0.0,100%,35%)" stroke-width="0.00020"></path>
<path d="M0.474 0.121 Q0.423 0.188 0.541 0.228" stroke="hsl(0.0,100%,35%)" stroke-width="0.00282"></path>
<path d="M0.474 0.121 Q0.701 0.172 0.851 0.073" stroke="hsl(0.0,100%,35%)" stroke-width="0.00242"></path>
<path d="M0.474 0.121 Q0.096 0.210 0.187 0.415" stroke="hsl(0.0,100%,35%)" stroke-width="0.00081"></path>
<path d="M0.474 0.121 Q0.512 0.286 0.843 0.304" stroke="hsl(0.0,100%,35%)" stroke-width="0.00040"></path>
<path d="M1.219 0.195 Q0.853 0.076 0.541 0.228" stroke="hsl(0.0,100%,35%)" stroke-width="0.00584"></path>
<path d="M1.219 0.195 Q1.132 0.060 0.851 0.073" stroke="hsl(0.0,100%,35%)" stroke-width="0.00564"></path>
<path d="M1.219 0.195 Q0.527 0.098 0.187 0.415" stroke="hsl(0.0,100%,35%)" stroke-width="0.00081"></path>
<path d="M1.219 0.195 Q0.943 0.174 0.843 0.304" stroke="hsl(0.0,100%,35%)" stroke-width="0.00020"></path>
<path d="M0.758 0.174 Q0.607 0.157 0.541 0.228" stroke="hsl(0.0,100%,35%)" stroke-width="0.01067"></path>
<path d="M0.758 0.174 Q0.885 0.142 0.851 0.073" stroke="hsl(0.0,100%,35%)" stroke-width="0.00987"></path>
<path d="M0.758 0.174 Q0.992 0.213 1.119 0.108" stroke="hsl(0.0,100%,35%)" stroke-width="0.00020"></path>
<path d="M0.758 0.174 Q0.972 0.276 1.219 0.195" stroke="hsl(0.0,100%,35%)" stroke-width="0.00040"></path>
<path d="M0.758 0.174 Q0.696 0.256 0.843 0.304" stroke="hsl(0.0,100%,35%)" stroke-width="0.00201"></path>
<path d="M0.758 0.174 Q0.844 0.608 1.709 0.662" stroke="hsl(0.0,100%,35%)" stroke-width="0.00020"></path>
<path d="M1.119 0.108 Q0.734 0.052 0.541 0.228" stroke="hsl(0.0,100%,35%)" stroke-width="0.00805"></path>
<path d="M1.119 0.108 Q1.013 0.037 0.851 0.073" stroke="hsl(0.0,100%,35%)" stroke-width="0.00745"></path>
<path d="M0.670 0.118 Q0.797 0.132 0.851 0.073" stroke="hsl(0.0,100%,35%)" stroke-width="0.00463"></path>
<path d="M0.670 0.118 Q0.518 0.147 0.541 0.228" stroke="hsl(0.0,100%,35%)" stroke-width="0.00322"></path>
<path d="M0.670 0.118 Q0.670 0.164 0.758 0.174" stroke="hsl(0.0,100%,35%)" stroke-width="0.00020"></path>
<path d="M0.670 0.118 Q0.755 0.598 1.709 0.662" stroke="hsl(0.0,100%,35%)" stroke-width="0.00020"></path>
<path d="M1.192 0.270 Q1.179 0.103 0.851 0.073" stroke="hsl(0.0,100%,35%)" stroke-width="0.00060"></path>
<path d="M1.192 0.270 Q0.901 0.119 0.541 0.228" stroke="hsl(0.0,100%,35%)" stroke-width="0.00040"></path>
<path d="M0.805 0.238 Q1.155 0.598 1.934 0.506" stroke="hsl(0.0,100%,35%)" stroke-width="0.00242"></path>
<path d="M0.805 0.238 Q0.960 0.165 0.851 0.073" stroke="hsl(0.0,100%,35%)" stroke-width="0.00383"></path>
<path d="M0.805 0.238 Q0.975 0.713 1.939 0.734" stroke="hsl(0.0,100%,35%)" stroke-width="0.00101"></path>
<path d="M0.805 0.238 Q0.681 0.180 0.541 0.228" stroke="hsl(0.0,100%,35%)" stroke-width="0.00362"></path>
<path d="M0.805 0.238 Q0.833 0.197 0.758 0.174" stroke="hsl(0.0,100%,35%)" stroke-width="0.00060"></path>
<path d="M0.554 0.334 Q0.633 0.278 0.541 0.228" stroke="hsl(0.0,100%,35%)" stroke-width="0.00463"></path>
<path d="M0.554 0.334 Q0.911 0.263 0.851 0.073" stroke="hsl(0.0,100%,35%)" stroke-width="0.00383"></path>
<path d="M0.554 0.334 Q0.722 0.377 0.843 0.304" stroke="hsl(0.0,100%,35%)" stroke-width="0.00141"></path>
<path d="M1.094 0.279 Q1.137 0.127 0.851 0.073" stroke="hsl(0.0,100%,35%)" stroke-width="0.00040"></path>
<path d="M1.094 0.279 Q0.948 0.241 0.843 0.304" stroke="hsl(0.0,100%,35%)" stroke-width="0.00020"></path>
<path d="M1.094 0.279 Q0.858 0.142 0.541 0.228" stroke="hsl(0.0,100%,35%)" stroke-width="0.00060"></path>
<path d="M0.846 0.453 Q0.874 0.279 0.541 0.228" stroke="hsl(0.0,100%,35%)" stroke-width="0.00040"></path>
<path d="M0.846 0.453 Q1.347 0.697 1.934 0.506" stroke="hsl(0.0,100%,35%)" stroke-width="0.00020"></path>
<path d="M0.846 0.453 Q1.153 0.264 0.851 0.073" stroke="hsl(0.0,100%,35%)" stroke-width="0.00081"></path>
<path d="M0.846 0.453 Q0.963 0.378 0.843 0.304" stroke="hsl(0.0,100%,35%)" stroke-width="0.00020"></path>
<path d="M1.536 0.773 Q1.712 0.752 1.709 0.662" stroke="hsl(180.0,100%,35%)" stroke-width="0.00322"></path>
<path d="M1.536 0.773 Q1.806 0.611 1.550 0.445" stroke="hsl(180.0,100%,35%)" stroke-width="0.00020"></path>
<path d="M1.536 0.773 Q1.754 0.286 0.851 0.073" stroke="hsl(180.0,100%,35%)" stroke-width="0.00040"></path>
<path d="M1.536 0.773 Q1.655 0.694 1.528 0.619" stroke="hsl(180.0,100%,35%)" stroke-width="0.00242"></path>
<path d="M1.536 0.773 Q1.769 0.834 1.939 0.734" stroke="hsl(180.0,100%,35%)" stroke-width="0.01188"></path>
<path d="M0.998 0.220 Q0.764 0.132 0.541 0.228" stroke="hsl(0.0,100%,35%)" stroke-width="0.00101"></path>
<path d="M0.998 0.220 Q1.042 0.117 0.851 0.073" stroke="hsl(0.0,100%,35%)" stroke-width="0.00121"></path>
<path d="M0.998 0.220 Q1.237 0.550 1.934 0.506" stroke="hsl(0.0,100%,35%)" stroke-width="0.00101"></path>
<path d="M1.199 0.405 Q1.012 0.185 0.541 0.228" stroke="hsl(0.0,100%,35%)" stroke-width="0.00141"></path>
<path d="M1.199 0.405 Q1.486 0.603 1.934 0.506" stroke="hsl(0.0,100%,35%)" stroke-width="0.00020"></path>
<path d="M1.199 0.405 Q1.378 0.304 1.219 0.195" stroke="hsl(0.0,100%,35%)" stroke-width="0.00121"></path>
<path d="M1.199 0.405 Q1.291 0.170 0.851 0.073" stroke="hsl(0.0,100%,35%)" stroke-width="0.00101"></path>
<path d="M1.199 0.405 Q1.249 0.636 1.709 0.662" stroke="hsl(0.0,100%,35%)" stroke-width="0.00020"></path>
<path d="M1.199 0.405 Q0.686 0.208 0.187 0.415" stroke="hsl(0.0,100%,35%)" stroke-width="0.00040"></path>
<path d="M0.823 0.474 Q1.158 0.279 0.851 0.073" stroke="hsl(0.0,100%,35%)" stroke-width="0.00060"></path>
<path d="M0.823 0.474 Q0.879 0.294 0.541 0.228" stroke="hsl(0.0,100%,35%)" stroke-width="0.00060"></path>
<path d="M0.823 0.474 Q0.969 0.393 0.843 0.304" stroke="hsl(0.0,100%,35%)" stroke-width="0.00040"></path>
<path d="M0.856 0.425 Q1.135 0.248 0.851 0.073" stroke="hsl(0.0,100%,35%)" stroke-width="0.00121"></path>
<path d="M0.856 0.425 Q1.008 0.280 0.758 0.174" stroke="hsl(0.0,100%,35%)" stroke-width="0.00060"></path>
<path d="M0.856 0.425 Q0.856 0.263 0.541 0.228" stroke="hsl(0.0,100%,35%)" stroke-width="0.00040"></path>
<path d="M0.856 0.425 Q0.946 0.362 0.843 0.304" stroke="hsl(0.0,100%,35%)" stroke-width="0.00020"></path>
</g>
<text x="1.300" y="0.121" font-size="0.010254" fill="hsl(0.0,100%,20%)">bajones</text>
<text x="0.851" y="0.033" font-size="0.079694" fill="hsl(0.0,100%,20%)">cwallez</text>
<text x="0.843" y="0.288" font-size="0.033069" fill="hsl(0.0,100%,20%)">kainino</text>
<text x="0.541" y="0.190" font-size="0.075818" fill="hsl(0.0,100%,20%)">enga</text>
<text x="1.550" y="0.416" font-size="0.056663" fill="hsl(180.0,100%,20%)">bclayton</text>
<text x="1.934" y="0.461" font-size="0.091258" fill="hsl(180.0,100%,20%)">dsinclair</text>
<text x="1.939" y="0.697" font-size="0.073518" fill="hsl(180.0,100%,20%)">dneto</text>
<text x="1.903" y="0.584" font-size="0.014010" fill="hsl(180.0,100%,20%)">jrprice</text>
<text x="1.709" y="0.638" font-size="0.048170" fill="hsl(180.0,100%,20%)">rharrison</text>
<text x="1.528" y="0.604" font-size="0.030534" fill="hsl(180.0,100%,20%)">sarahmashay</text>
<text x="0.393" y="0.387" font-size="0.019456" fill="hsl(0.0,100%,20%)">brandon1.jones</text>
<text x="0.187" y="0.409" font-size="0.011841" fill="hsl(0.0,100%,20%)">rafael.cintron</text>
<text x="0.474" y="0.114" font-size="0.015210" fill="hsl(0.0,100%,20%)">natlee</text>
<text x="1.219" y="0.183" font-size="0.022776" fill="hsl(0.0,100%,20%)">bryan.bernhart</text>
<text x="0.758" y="0.157" font-size="0.034113" fill="hsl(0.0,100%,20%)">jiawei.shao</text>
<text x="1.119" y="0.088" font-size="0.039627" fill="hsl(0.0,100%,20%)">senorblanco</text>
<text x="0.670" y="0.110" font-size="0.017159" fill="hsl(0.0,100%,20%)">hao.x.li</text>
<text x="1.192" y="0.266" font-size="0.007005" fill="hsl(0.0,100%,20%)">shaobo.yan</text>
<text x="1.377" y="-0.028" font-size="0.002648" fill="hsl(0.0,100%,20%)">johnstiles</text>
<text x="0.805" y="0.228" font-size="0.020164" fill="hsl(0.0,100%,20%)">tommek</text>
<text x="0.554" y="0.324" font-size="0.018722" fill="hsl(0.0,100%,20%)">yunchao.he</text>
<text x="1.006" y="0.440" font-size="0.002648" fill="hsl(0.0,100%,20%)">sque</text>
<text x="1.094" y="0.275" font-size="0.007005" fill="hsl(0.0,100%,20%)">zmo</text>
<text x="1.162" y="0.357" font-size="0.002648" fill="hsl(0.0,100%,20%)">thakis</text>
<text x="0.584" y="0.275" font-size="0.003744" fill="hsl(0.0,100%,20%)">digit</text>
<text x="0.846" y="0.449" font-size="0.007489" fill="hsl(0.0,100%,20%)">cwoffenden</text>
<text x="1.536" y="0.760" font-size="0.025118" fill="hsl(180.0,100%,20%)">dj2</text>
<text x="0.998" y="0.215" font-size="0.010917" fill="hsl(0.0,100%,20%)">idanr</text>
<text x="0.644" y="0.387" font-size="0.002648" fill="hsl(0.0,100%,20%)">mtklein</text>
<text x="0.733" y="0.296" font-size="0.003744" fill="hsl(0.0,100%,20%)">mehe</text>
<text x="1.199" y="0.399" font-size="0.012419" fill="hsl(0.0,100%,20%)">enrico.galli</text>
<text x="0.823" y="0.470" font-size="0.007489" fill="hsl(0.0,100%,20%)">jiajie.hu</text>
<text x="0.856" y="0.420" font-size="0.009172" fill="hsl(0.0,100%,20%)">xinghua.cao</text>
</svg>
