<svg width="4000" height="2000" viewBox="-0.025 -0.025 2.05 1.05" xmlns="http://www.w3.org/2000/svg">
  <style>
    path {
      fill: none;
      stroke-linecap: round;
      stroke-opacity: 0.4;
    }

    text {
      text-anchor: middle;
      alignment-baseline: hanging;
    }
  </style>
  <g opacity="0.4">
<path d="M0.621 0.858 Q0.878 0.834 0.888 0.703" stroke="hsl(0.0,100%,35%)" stroke-width="0.00078"></path>
<path d="M0.621 0.858 Q0.781 0.557 0.230 0.413" stroke="hsl(0.0,100%,35%)" stroke-width="0.00039"></path>
<path d="M0.621 0.858 Q1.355 0.830 1.462 0.465" stroke="hsl(0.0,100%,35%)" stroke-width="0.00039"></path>
<path d="M0.888 0.703 Q0.639 0.568 0.319 0.659" stroke="hsl(0.0,100%,35%)" stroke-width="0.01128"></path>
<path d="M0.888 0.703 Q1.365 0.699 1.462 0.465" stroke="hsl(0.0,100%,35%)" stroke-width="0.02411"></path>
<path d="M0.888 0.703 Q1.329 0.782 1.580 0.584" stroke="hsl(0.0,100%,35%)" stroke-width="0.01283"></path>
<path d="M0.888 0.703 Q1.185 0.657 1.160 0.502" stroke="hsl(0.0,100%,35%)" stroke-width="0.00117"></path>
<path d="M0.888 0.703 Q1.178 0.949 1.722 0.862" stroke="hsl(0.0,100%,35%)" stroke-width="0.00039"></path>
<path d="M0.888 0.703 Q1.290 0.594 1.166 0.374" stroke="hsl(0.0,100%,35%)" stroke-width="0.00117"></path>
<path d="M0.888 0.703 Q1.243 0.705 1.324 0.532" stroke="hsl(0.0,100%,35%)" stroke-width="0.00117"></path>
<path d="M0.888 0.703 Q1.012 0.526 0.694 0.427" stroke="hsl(0.0,100%,35%)" stroke-width="0.00039"></path>
<path d="M0.888 0.703 Q1.425 0.602 1.345 0.317" stroke="hsl(0.0,100%,35%)" stroke-width="0.00039"></path>
<path d="M0.888 0.703 Q0.744 0.612 0.534 0.662" stroke="hsl(0.0,100%,35%)" stroke-width="0.00039"></path>
<path d="M0.888 0.703 Q0.791 0.427 0.230 0.413" stroke="hsl(0.0,100%,35%)" stroke-width="0.00078"></path>
<path d="M0.888 0.703 Q0.872 0.743 0.947 0.760" stroke="hsl(0.0,100%,35%)" stroke-width="0.00039"></path>
<path d="M0.888 0.703 Q0.779 0.858 1.057 0.945" stroke="hsl(0.0,100%,35%)" stroke-width="0.00039"></path>
<path d="M0.230 0.413 Q0.077 0.554 0.319 0.659" stroke="hsl(180.0,100%,35%)" stroke-width="0.04121"></path>
<path d="M0.230 0.413 Q0.016 0.481 0.102 0.600" stroke="hsl(180.0,100%,35%)" stroke-width="0.01983"></path>
<path d="M0.230 0.413 Q0.040 0.438 0.046 0.536" stroke="hsl(180.0,100%,35%)" stroke-width="0.00039"></path>
<path d="M0.230 0.413 Q0.183 0.599 0.534 0.662" stroke="hsl(180.0,100%,35%)" stroke-width="0.00233"></path>
<path d="M0.230 0.413 Q0.624 0.644 1.160 0.502" stroke="hsl(180.0,100%,35%)" stroke-width="0.00078"></path>
<path d="M0.230 0.413 Q0.804 0.686 1.462 0.465" stroke="hsl(180.0,100%,35%)" stroke-width="0.00156"></path>
<path d="M0.230 0.413 Q0.326 0.690 0.888 0.703" stroke="hsl(180.0,100%,35%)" stroke-width="0.00194"></path>
<path d="M0.230 0.413 Q0.617 0.936 1.722 0.862" stroke="hsl(180.0,100%,35%)" stroke-width="0.00039"></path>
<path d="M0.230 0.413 Q0.437 0.395 0.448 0.290" stroke="hsl(180.0,100%,35%)" stroke-width="0.00039"></path>
<path d="M1.462 0.465 Q1.095 0.175 0.448 0.290" stroke="hsl(0.0,100%,35%)" stroke-width="0.00117"></path>
<path d="M1.462 0.465 Q1.426 0.548 1.580 0.584" stroke="hsl(0.0,100%,35%)" stroke-width="0.01283"></path>
<path d="M1.462 0.465 Q1.275 0.716 1.722 0.862" stroke="hsl(0.0,100%,35%)" stroke-width="0.00117"></path>
<path d="M1.462 0.465 Q1.282 0.423 1.160 0.502" stroke="hsl(0.0,100%,35%)" stroke-width="0.00467"></path>
<path d="M1.462 0.465 Q0.674 0.261 0.102 0.600" stroke="hsl(0.0,100%,35%)" stroke-width="0.00117"></path>
<path d="M1.462 0.465 Q0.984 0.470 0.888 0.703" stroke="hsl(0.0,100%,35%)" stroke-width="0.00739"></path>
<path d="M1.462 0.465 Q1.304 0.508 1.352 0.594" stroke="hsl(0.0,100%,35%)" stroke-width="0.00039"></path>
<path d="M1.462 0.465 Q1.387 0.361 1.166 0.374" stroke="hsl(0.0,100%,35%)" stroke-width="0.00194"></path>
<path d="M1.462 0.465 Q0.735 0.334 0.319 0.659" stroke="hsl(0.0,100%,35%)" stroke-width="0.00272"></path>
<path d="M1.462 0.465 Q1.221 0.667 1.560 0.828" stroke="hsl(0.0,100%,35%)" stroke-width="0.00039"></path>
<path d="M1.462 0.465 Q1.340 0.471 1.324 0.532" stroke="hsl(0.0,100%,35%)" stroke-width="0.00117"></path>
<path d="M1.462 0.465 Q1.522 0.368 1.345 0.317" stroke="hsl(0.0,100%,35%)" stroke-width="0.00078"></path>
<path d="M1.462 0.465 Q0.841 0.378 0.534 0.662" stroke="hsl(0.0,100%,35%)" stroke-width="0.00194"></path>
<path d="M1.462 0.465 Q0.888 0.193 0.230 0.413" stroke="hsl(0.0,100%,35%)" stroke-width="0.00117"></path>
<path d="M1.462 0.465 Q1.303 0.343 1.029 0.394" stroke="hsl(0.0,100%,35%)" stroke-width="0.00078"></path>
<path d="M1.462 0.465 Q1.009 0.563 1.101 0.806" stroke="hsl(0.0,100%,35%)" stroke-width="0.00039"></path>
<path d="M0.534 0.662 Q1.155 0.749 1.462 0.465" stroke="hsl(180.0,100%,35%)" stroke-width="0.00739"></path>
<path d="M0.534 0.662 Q0.678 0.753 0.888 0.703" stroke="hsl(180.0,100%,35%)" stroke-width="0.00194"></path>
<path d="M0.534 0.662 Q0.581 0.477 0.230 0.413" stroke="hsl(180.0,100%,35%)" stroke-width="0.00311"></path>
<path d="M0.534 0.662 Q0.429 0.618 0.319 0.659" stroke="hsl(180.0,100%,35%)" stroke-width="0.00778"></path>
<path d="M0.534 0.662 Q0.368 0.545 0.102 0.600" stroke="hsl(180.0,100%,35%)" stroke-width="0.00078"></path>
<path d="M0.534 0.662 Q0.975 0.707 1.160 0.502" stroke="hsl(180.0,100%,35%)" stroke-width="0.00078"></path>
<path d="M0.319 0.659 Q0.471 0.518 0.230 0.413" stroke="hsl(180.0,100%,35%)" stroke-width="0.04627"></path>
<path d="M0.319 0.659 Q0.258 0.586 0.102 0.600" stroke="hsl(180.0,100%,35%)" stroke-width="0.06143"></path>
<path d="M0.319 0.659 Q1.046 0.791 1.462 0.465" stroke="hsl(180.0,100%,35%)" stroke-width="0.00894"></path>
<path d="M0.319 0.659 Q0.425 0.704 0.534 0.662" stroke="hsl(180.0,100%,35%)" stroke-width="0.01516"></path>
<path d="M0.319 0.659 Q0.679 0.500 0.448 0.290" stroke="hsl(180.0,100%,35%)" stroke-width="0.00117"></path>
<path d="M0.319 0.659 Q0.568 0.795 0.888 0.703" stroke="hsl(180.0,100%,35%)" stroke-width="0.01361"></path>
<path d="M0.319 0.659 Q0.639 0.532 0.460 0.348" stroke="hsl(180.0,100%,35%)" stroke-width="0.00039"></path>
<path d="M0.319 0.659 Q0.859 1.041 1.722 0.862" stroke="hsl(180.0,100%,35%)" stroke-width="0.00039"></path>
<path d="M0.319 0.659 Q0.282 0.543 0.046 0.536" stroke="hsl(180.0,100%,35%)" stroke-width="0.00039"></path>
<path d="M0.319 0.659 Q0.971 0.686 1.166 0.374" stroke="hsl(180.0,100%,35%)" stroke-width="0.00039"></path>
<path d="M0.319 0.659 Q0.866 0.749 1.160 0.502" stroke="hsl(180.0,100%,35%)" stroke-width="0.00039"></path>
<path d="M0.319 0.659 Q0.541 0.634 0.540 0.520" stroke="hsl(180.0,100%,35%)" stroke-width="0.00039"></path>
<path d="M0.102 0.600 Q0.163 0.673 0.319 0.659" stroke="hsl(180.0,100%,35%)" stroke-width="0.04782"></path>
<path d="M0.102 0.600 Q0.211 0.521 0.082 0.451" stroke="hsl(180.0,100%,35%)" stroke-width="0.00039"></path>
<path d="M0.102 0.600 Q0.315 0.532 0.230 0.413" stroke="hsl(180.0,100%,35%)" stroke-width="0.02177"></path>
<path d="M0.102 0.600 Q0.125 0.557 0.046 0.536" stroke="hsl(180.0,100%,35%)" stroke-width="0.00544"></path>
<path d="M0.102 0.600 Q0.889 0.805 1.462 0.465" stroke="hsl(180.0,100%,35%)" stroke-width="0.00194"></path>
<path d="M0.102 0.600 Q0.412 0.809 0.888 0.703" stroke="hsl(180.0,100%,35%)" stroke-width="0.00156"></path>
<path d="M0.102 0.600 Q0.730 0.682 1.029 0.394" stroke="hsl(180.0,100%,35%)" stroke-width="0.00039"></path>
<path d="M0.102 0.600 Q0.814 0.700 1.166 0.374" stroke="hsl(180.0,100%,35%)" stroke-width="0.00117"></path>
<path d="M0.102 0.600 Q0.268 0.718 0.534 0.662" stroke="hsl(180.0,100%,35%)" stroke-width="0.00078"></path>
<path d="M1.160 0.502 Q1.340 0.544 1.462 0.465" stroke="hsl(0.0,100%,35%)" stroke-width="0.00350"></path>
<path d="M1.160 0.502 Q1.304 0.627 1.580 0.584" stroke="hsl(0.0,100%,35%)" stroke-width="0.00194"></path>
<path d="M1.160 0.502 Q1.099 0.745 1.560 0.828" stroke="hsl(0.0,100%,35%)" stroke-width="0.00039"></path>
<path d="M1.160 0.502 Q0.863 0.548 0.888 0.703" stroke="hsl(0.0,100%,35%)" stroke-width="0.00156"></path>
<path d="M1.160 0.502 Q0.887 0.642 1.101 0.806" stroke="hsl(0.0,100%,35%)" stroke-width="0.00039"></path>
<path d="M0.458 0.738 Q0.700 0.806 0.888 0.703" stroke="hsl(0.0,100%,35%)" stroke-width="0.00078"></path>
<path d="M0.458 0.738 Q0.451 0.671 0.319 0.659" stroke="hsl(0.0,100%,35%)" stroke-width="0.00078"></path>
<path d="M0.863 0.526 Q0.734 0.620 0.888 0.703" stroke="hsl(0.0,100%,35%)" stroke-width="0.00078"></path>
<path d="M0.863 0.526 Q1.031 0.574 1.160 0.502" stroke="hsl(0.0,100%,35%)" stroke-width="0.00078"></path>
<path d="M0.863 0.526 Q0.970 0.817 1.560 0.828" stroke="hsl(0.0,100%,35%)" stroke-width="0.00039"></path>
<path d="M0.863 0.526 Q1.175 0.698 1.580 0.584" stroke="hsl(0.0,100%,35%)" stroke-width="0.00039"></path>
<path d="M0.863 0.526 Q0.485 0.484 0.319 0.659" stroke="hsl(0.0,100%,35%)" stroke-width="0.00039"></path>
<path d="M0.863 0.526 Q1.211 0.616 1.462 0.465" stroke="hsl(0.0,100%,35%)" stroke-width="0.00039"></path>
<path d="M1.560 0.828 Q1.075 0.496 0.319 0.659" stroke="hsl(0.0,100%,35%)" stroke-width="0.00156"></path>
<path d="M1.560 0.828 Q1.615 0.877 1.722 0.862" stroke="hsl(0.0,100%,35%)" stroke-width="0.00428"></path>
<path d="M1.560 0.828 Q1.801 0.627 1.462 0.465" stroke="hsl(0.0,100%,35%)" stroke-width="0.00817"></path>
<path d="M1.560 0.828 Q1.324 0.631 0.888 0.703" stroke="hsl(0.0,100%,35%)" stroke-width="0.00039"></path>
<path d="M1.560 0.828 Q1.765 0.710 1.580 0.584" stroke="hsl(0.0,100%,35%)" stroke-width="0.00078"></path>
<path d="M1.560 0.828 Q1.227 0.355 0.230 0.413" stroke="hsl(0.0,100%,35%)" stroke-width="0.00039"></path>
<path d="M1.560 0.828 Q1.621 0.585 1.160 0.502" stroke="hsl(0.0,100%,35%)" stroke-width="0.00039"></path>
<path d="M1.560 0.828 Q1.726 0.522 1.166 0.374" stroke="hsl(0.0,100%,35%)" stroke-width="0.00039"></path>
<path d="M1.560 0.828 Q1.014 0.422 0.102 0.600" stroke="hsl(0.0,100%,35%)" stroke-width="0.00039"></path>
<path d="M1.580 0.584 Q1.616 0.501 1.462 0.465" stroke="hsl(0.0,100%,35%)" stroke-width="0.01866"></path>
<path d="M1.580 0.584 Q1.436 0.459 1.160 0.502" stroke="hsl(0.0,100%,35%)" stroke-width="0.00233"></path>
<path d="M1.580 0.584 Q1.138 0.505 0.888 0.703" stroke="hsl(0.0,100%,35%)" stroke-width="0.00855"></path>
<path d="M1.580 0.584 Q1.541 0.396 1.166 0.374" stroke="hsl(0.0,100%,35%)" stroke-width="0.00194"></path>
<path d="M1.580 0.584 Q1.375 0.702 1.560 0.828" stroke="hsl(0.0,100%,35%)" stroke-width="0.00078"></path>
<path d="M1.580 0.584 Q0.995 0.414 0.534 0.662" stroke="hsl(0.0,100%,35%)" stroke-width="0.00039"></path>
<path d="M1.580 0.584 Q1.788 0.588 1.842 0.487" stroke="hsl(0.0,100%,35%)" stroke-width="0.00039"></path>
<path d="M1.580 0.584 Q0.889 0.370 0.319 0.659" stroke="hsl(0.0,100%,35%)" stroke-width="0.00039"></path>
<path d="M1.580 0.584 Q1.457 0.379 1.029 0.394" stroke="hsl(0.0,100%,35%)" stroke-width="0.00039"></path>
<path d="M1.430 0.603 Q1.556 0.541 1.462 0.465" stroke="hsl(0.0,100%,35%)" stroke-width="0.00078"></path>
<path d="M1.430 0.603 Q1.079 0.545 0.888 0.703" stroke="hsl(0.0,100%,35%)" stroke-width="0.00039"></path>
<path d="M1.430 0.603 Q1.481 0.436 1.166 0.374" stroke="hsl(0.0,100%,35%)" stroke-width="0.00039"></path>
<path d="M1.166 0.374 Q1.241 0.479 1.462 0.465" stroke="hsl(0.0,100%,35%)" stroke-width="0.00505"></path>
<path d="M1.166 0.374 Q1.061 0.437 1.160 0.502" stroke="hsl(0.0,100%,35%)" stroke-width="0.00311"></path>
<path d="M1.166 0.374 Q0.764 0.483 0.888 0.703" stroke="hsl(0.0,100%,35%)" stroke-width="0.00039"></path>
<path d="M1.166 0.374 Q0.620 0.392 0.534 0.662" stroke="hsl(0.0,100%,35%)" stroke-width="0.00039"></path>
<path d="M1.166 0.374 Q0.477 0.231 0.046 0.536" stroke="hsl(0.0,100%,35%)" stroke-width="0.00039"></path>
<path d="M1.166 0.374 Q1.205 0.562 1.580 0.584" stroke="hsl(0.0,100%,35%)" stroke-width="0.00078"></path>
<path d="M0.046 0.536 Q0.084 0.652 0.319 0.659" stroke="hsl(180.0,100%,35%)" stroke-width="0.00467"></path>
<path d="M0.046 0.536 Q0.333 0.788 0.888 0.703" stroke="hsl(180.0,100%,35%)" stroke-width="0.00078"></path>
<path d="M0.046 0.536 Q0.023 0.579 0.102 0.600" stroke="hsl(180.0,100%,35%)" stroke-width="0.00350"></path>
<path d="M0.046 0.536 Q0.736 0.679 1.166 0.374" stroke="hsl(180.0,100%,35%)" stroke-width="0.00039"></path>
<path d="M0.046 0.536 Q0.236 0.511 0.230 0.413" stroke="hsl(180.0,100%,35%)" stroke-width="0.00156"></path>
<path d="M0.046 0.536 Q0.811 0.784 1.462 0.465" stroke="hsl(180.0,100%,35%)" stroke-width="0.00039"></path>
<path d="M0.046 0.536 Q0.133 0.500 0.082 0.451" stroke="hsl(180.0,100%,35%)" stroke-width="0.00078"></path>
<path d="M0.046 0.536 Q0.190 0.697 0.534 0.662" stroke="hsl(180.0,100%,35%)" stroke-width="0.00039"></path>
<path d="M0.448 0.290 Q0.088 0.449 0.319 0.659" stroke="hsl(180.0,100%,35%)" stroke-width="0.00117"></path>
<path d="M0.448 0.290 Q0.814 0.580 1.462 0.465" stroke="hsl(180.0,100%,35%)" stroke-width="0.00194"></path>
<path d="M0.448 0.290 Q0.193 0.493 0.534 0.662" stroke="hsl(180.0,100%,35%)" stroke-width="0.00039"></path>
<path d="M0.448 0.290 Q0.240 0.308 0.230 0.413" stroke="hsl(180.0,100%,35%)" stroke-width="0.00194"></path>
<path d="M0.448 0.290 Q0.027 0.376 0.102 0.600" stroke="hsl(180.0,100%,35%)" stroke-width="0.00039"></path>
<path d="M1.722 0.862 Q1.909 0.611 1.462 0.465" stroke="hsl(0.0,100%,35%)" stroke-width="0.00661"></path>
<path d="M1.722 0.862 Q1.873 0.694 1.580 0.584" stroke="hsl(0.0,100%,35%)" stroke-width="0.00078"></path>
<path d="M1.722 0.862 Q1.335 0.339 0.230 0.413" stroke="hsl(0.0,100%,35%)" stroke-width="0.00117"></path>
<path d="M1.722 0.862 Q1.729 0.569 1.160 0.502" stroke="hsl(0.0,100%,35%)" stroke-width="0.00039"></path>
<path d="M1.722 0.862 Q1.432 0.616 0.888 0.703" stroke="hsl(0.0,100%,35%)" stroke-width="0.00039"></path>
<path d="M1.722 0.862 Q1.183 0.480 0.319 0.659" stroke="hsl(0.0,100%,35%)" stroke-width="0.00233"></path>
<path d="M1.722 0.862 Q1.750 0.489 1.029 0.394" stroke="hsl(0.0,100%,35%)" stroke-width="0.00078"></path>
<path d="M1.722 0.862 Q1.668 0.813 1.560 0.828" stroke="hsl(0.0,100%,35%)" stroke-width="0.00039"></path>
<path d="M1.722 0.862 Q1.834 0.507 1.166 0.374" stroke="hsl(0.0,100%,35%)" stroke-width="0.00039"></path>
<path d="M0.811 0.820 Q0.943 0.777 0.888 0.703" stroke="hsl(0.0,100%,35%)" stroke-width="0.00661"></path>
<path d="M0.811 0.820 Q1.384 0.856 1.580 0.584" stroke="hsl(0.0,100%,35%)" stroke-width="0.00117"></path>
<path d="M0.811 0.820 Q1.420 0.773 1.462 0.465" stroke="hsl(0.0,100%,35%)" stroke-width="0.00233"></path>
<path d="M0.811 0.820 Q1.240 0.731 1.160 0.502" stroke="hsl(0.0,100%,35%)" stroke-width="0.00078"></path>
<path d="M0.602 0.534 Q0.610 0.676 0.888 0.703" stroke="hsl(180.0,100%,35%)" stroke-width="0.00078"></path>
<path d="M0.602 0.534 Q1.087 0.672 1.462 0.465" stroke="hsl(180.0,100%,35%)" stroke-width="0.00078"></path>
<path d="M0.602 0.534 Q0.360 0.540 0.319 0.659" stroke="hsl(180.0,100%,35%)" stroke-width="0.00194"></path>
<path d="M0.602 0.534 Q0.299 0.467 0.102 0.600" stroke="hsl(180.0,100%,35%)" stroke-width="0.00039"></path>
<path d="M1.324 0.532 Q1.446 0.526 1.462 0.465" stroke="hsl(0.0,100%,35%)" stroke-width="0.00350"></path>
<path d="M1.324 0.532 Q1.506 0.429 1.345 0.317" stroke="hsl(0.0,100%,35%)" stroke-width="0.00039"></path>
<path d="M1.324 0.532 Q0.969 0.530 0.888 0.703" stroke="hsl(0.0,100%,35%)" stroke-width="0.00194"></path>
<path d="M1.345 0.317 Q1.285 0.415 1.462 0.465" stroke="hsl(0.0,100%,35%)" stroke-width="0.00661"></path>
<path d="M1.345 0.317 Q0.808 0.419 0.888 0.703" stroke="hsl(0.0,100%,35%)" stroke-width="0.00311"></path>
<path d="M1.345 0.317 Q1.249 0.498 1.580 0.584" stroke="hsl(0.0,100%,35%)" stroke-width="0.00039"></path>
<path d="M1.294 0.758 Q1.135 0.649 0.888 0.703" stroke="hsl(0.0,100%,35%)" stroke-width="0.00039"></path>
<path d="M1.294 0.758 Q1.612 0.645 1.462 0.465" stroke="hsl(0.0,100%,35%)" stroke-width="0.00039"></path>
<path d="M1.294 0.758 Q0.886 0.514 0.319 0.659" stroke="hsl(0.0,100%,35%)" stroke-width="0.00039"></path>
<path d="M1.029 0.394 Q1.188 0.516 1.462 0.465" stroke="hsl(0.0,100%,35%)" stroke-width="0.00505"></path>
<path d="M1.029 0.394 Q1.152 0.599 1.580 0.584" stroke="hsl(0.0,100%,35%)" stroke-width="0.00194"></path>
<path d="M1.029 0.394 Q1.002 0.766 1.722 0.862" stroke="hsl(0.0,100%,35%)" stroke-width="0.00078"></path>
<path d="M1.029 0.394 Q1.008 0.474 1.160 0.502" stroke="hsl(0.0,100%,35%)" stroke-width="0.00039"></path>
<path d="M1.029 0.394 Q1.113 0.411 1.166 0.374" stroke="hsl(0.0,100%,35%)" stroke-width="0.00078"></path>
<path d="M1.029 0.394 Q0.567 0.429 0.534 0.662" stroke="hsl(0.0,100%,35%)" stroke-width="0.00078"></path>
<path d="M1.029 0.394 Q0.711 0.520 0.888 0.703" stroke="hsl(0.0,100%,35%)" stroke-width="0.00039"></path>
<path d="M1.029 0.394 Q0.462 0.385 0.319 0.659" stroke="hsl(0.0,100%,35%)" stroke-width="0.00156"></path>
<path d="M1.101 0.806 Q1.076 0.712 0.888 0.703" stroke="hsl(0.0,100%,35%)" stroke-width="0.02294"></path>
<path d="M1.101 0.806 Q1.554 0.708 1.462 0.465" stroke="hsl(0.0,100%,35%)" stroke-width="0.01905"></path>
<path d="M1.101 0.806 Q1.294 0.802 1.328 0.706" stroke="hsl(0.0,100%,35%)" stroke-width="0.00039"></path>
<path d="M1.101 0.806 Q1.374 0.666 1.160 0.502" stroke="hsl(0.0,100%,35%)" stroke-width="0.00039"></path>
<path d="M1.101 0.806 Q0.827 0.576 0.319 0.659" stroke="hsl(0.0,100%,35%)" stroke-width="0.00428"></path>
<path d="M1.101 0.806 Q0.766 0.503 0.102 0.600" stroke="hsl(0.0,100%,35%)" stroke-width="0.00039"></path>
<path d="M1.101 0.806 Q1.614 0.611 1.345 0.317" stroke="hsl(0.0,100%,35%)" stroke-width="0.00194"></path>
<path d="M1.101 0.806 Q0.979 0.435 0.230 0.413" stroke="hsl(0.0,100%,35%)" stroke-width="0.00039"></path>
<path d="M1.101 0.806 Q0.877 0.740 0.699 0.835" stroke="hsl(0.0,100%,35%)" stroke-width="0.00039"></path>
<path d="M1.101 0.806 Q0.789 0.460 0.046 0.536" stroke="hsl(0.0,100%,35%)" stroke-width="0.00194"></path>
<path d="M1.684 0.256 Q0.679 0.185 0.319 0.659" stroke="hsl(0.0,100%,35%)" stroke-width="0.00039"></path>
<path d="M1.684 0.256 Q0.928 0.320 0.888 0.703" stroke="hsl(0.0,100%,35%)" stroke-width="0.00350"></path>
<path d="M1.684 0.256 Q1.406 0.316 1.462 0.465" stroke="hsl(0.0,100%,35%)" stroke-width="0.00389"></path>
<path d="M1.261 0.925 Q1.343 0.983 1.476 0.956" stroke="hsl(0.0,100%,35%)" stroke-width="0.00078"></path>
<path d="M1.261 0.925 Q1.251 0.739 0.888 0.703" stroke="hsl(0.0,100%,35%)" stroke-width="0.00156"></path>
<path d="M1.261 0.925 Q1.729 0.735 1.462 0.465" stroke="hsl(0.0,100%,35%)" stroke-width="0.00117"></path>
<path d="M0.612 0.724 Q0.456 0.560 0.102 0.600" stroke="hsl(180.0,100%,35%)" stroke-width="0.00039"></path>
<path d="M0.612 0.724 Q0.877 0.474 0.448 0.290" stroke="hsl(180.0,100%,35%)" stroke-width="0.00039"></path>
<path d="M0.612 0.724 Q0.517 0.633 0.319 0.659" stroke="hsl(180.0,100%,35%)" stroke-width="0.00272"></path>
<path d="M0.612 0.724 Q1.244 0.764 1.462 0.465" stroke="hsl(180.0,100%,35%)" stroke-width="0.00039"></path>
<path d="M0.612 0.724 Q0.622 0.677 0.534 0.662" stroke="hsl(180.0,100%,35%)" stroke-width="0.00039"></path>
<path d="M0.838 0.420 Q1.114 0.568 1.462 0.465" stroke="hsl(0.0,100%,35%)" stroke-width="0.00039"></path>
<path d="M0.838 0.420 Q0.661 0.666 1.101 0.806" stroke="hsl(0.0,100%,35%)" stroke-width="0.00039"></path>
<path d="M0.838 0.420 Q0.637 0.572 0.888 0.703" stroke="hsl(0.0,100%,35%)" stroke-width="0.00039"></path>
<path d="M0.699 0.835 Q0.898 0.807 0.888 0.703" stroke="hsl(0.0,100%,35%)" stroke-width="0.00194"></path>
<path d="M0.699 0.835 Q0.755 0.715 0.534 0.662" stroke="hsl(0.0,100%,35%)" stroke-width="0.00039"></path>
<path d="M0.699 0.835 Q0.588 0.598 0.102 0.600" stroke="hsl(0.0,100%,35%)" stroke-width="0.00039"></path>
<path d="M0.699 0.835 Q1.376 0.803 1.462 0.465" stroke="hsl(0.0,100%,35%)" stroke-width="0.00156"></path>
<path d="M0.699 0.835 Q1.340 0.885 1.580 0.584" stroke="hsl(0.0,100%,35%)" stroke-width="0.00039"></path>
<path d="M0.699 0.835 Q1.009 0.512 0.448 0.290" stroke="hsl(0.0,100%,35%)" stroke-width="0.00039"></path>
<path d="M1.310 0.146 Q1.190 0.239 1.345 0.317" stroke="hsl(0.0,100%,35%)" stroke-width="0.00233"></path>
<path d="M1.310 0.146 Q0.653 0.340 0.888 0.703" stroke="hsl(0.0,100%,35%)" stroke-width="0.00233"></path>
<path d="M1.310 0.146 Q1.130 0.336 1.462 0.465" stroke="hsl(0.0,100%,35%)" stroke-width="0.00350"></path>
<path d="M1.254 0.283 Q0.485 0.284 0.319 0.659" stroke="hsl(0.0,100%,35%)" stroke-width="0.00039"></path>
<path d="M1.254 0.283 Q1.212 0.416 1.462 0.465" stroke="hsl(0.0,100%,35%)" stroke-width="0.00117"></path>
<path d="M1.254 0.283 Q0.424 0.211 0.102 0.600" stroke="hsl(0.0,100%,35%)" stroke-width="0.00117"></path>
<path d="M0.862 0.850 Q0.992 0.782 0.888 0.703" stroke="hsl(0.0,100%,35%)" stroke-width="0.00194"></path>
<path d="M0.862 0.850 Q0.743 0.646 0.319 0.659" stroke="hsl(0.0,100%,35%)" stroke-width="0.00117"></path>
<path d="M0.862 0.850 Q1.434 0.860 1.580 0.584" stroke="hsl(0.0,100%,35%)" stroke-width="0.00117"></path>
<path d="M0.862 0.850 Q1.470 0.778 1.462 0.465" stroke="hsl(0.0,100%,35%)" stroke-width="0.00039"></path>
<path d="M0.862 0.850 Q0.849 0.690 0.534 0.662" stroke="hsl(0.0,100%,35%)" stroke-width="0.00039"></path>
<path d="M0.773 0.572 Q1.203 0.657 1.462 0.465" stroke="hsl(0.0,100%,35%)" stroke-width="0.00078"></path>
<path d="M0.773 0.572 Q0.726 0.661 0.888 0.703" stroke="hsl(0.0,100%,35%)" stroke-width="0.00117"></path>
<path d="M0.773 0.572 Q1.081 0.662 1.324 0.532" stroke="hsl(0.0,100%,35%)" stroke-width="0.00039"></path>
<path d="M1.136 0.403 Q1.249 0.500 1.462 0.465" stroke="hsl(0.0,100%,35%)" stroke-width="0.00194"></path>
<path d="M1.136 0.403 Q0.522 0.368 0.319 0.659" stroke="hsl(0.0,100%,35%)" stroke-width="0.00039"></path>
<path d="M1.136 0.403 Q1.069 0.458 1.160 0.502" stroke="hsl(0.0,100%,35%)" stroke-width="0.00039"></path>
<path d="M1.136 0.403 Q0.628 0.413 0.534 0.662" stroke="hsl(0.0,100%,35%)" stroke-width="0.00078"></path>
<path d="M1.136 0.403 Q0.772 0.504 0.888 0.703" stroke="hsl(0.0,100%,35%)" stroke-width="0.00039"></path>
<path d="M1.136 0.403 Q1.091 0.542 1.352 0.594" stroke="hsl(0.0,100%,35%)" stroke-width="0.00039"></path>
</g>
<text x="0.621" y="0.854" font-size="0.006848" fill="hsl(0.0,100%,20%)">albin.bernhardsson</text>
<text x="0.888" y="0.670" font-size="0.066216" fill="hsl(0.0,100%,20%)">cwallez</text>
<text x="0.230" y="0.380" font-size="0.066745" fill="hsl(180.0,100%,20%)">dsinclair</text>
<text x="1.462" y="0.428" font-size="0.074229" fill="hsl(0.0,100%,20%)">enga</text>
<text x="0.534" y="0.643" font-size="0.037507" fill="hsl(180.0,100%,20%)">amaiorano</text>
<text x="0.319" y="0.613" font-size="0.092573" fill="hsl(180.0,100%,20%)">bclayton</text>
<text x="0.102" y="0.564" font-size="0.071903" fill="hsl(180.0,100%,20%)">jrprice</text>
<text x="1.160" y="0.488" font-size="0.027177" fill="hsl(0.0,100%,20%)">kainino</text>
<text x="0.458" y="0.734" font-size="0.006848" fill="hsl(0.0,100%,20%)">andre</text>
<text x="0.863" y="0.521" font-size="0.009684" fill="hsl(0.0,100%,20%)">austineng</text>
<text x="1.560" y="0.816" font-size="0.023968" fill="hsl(0.0,100%,20%)">shrekshao</text>
<text x="1.580" y="0.561" font-size="0.045681" fill="hsl(0.0,100%,20%)">lokokung</text>
<text x="1.430" y="0.600" font-size="0.006848" fill="hsl(0.0,100%,20%)">avi</text>
<text x="1.166" y="0.362" font-size="0.023968" fill="hsl(0.0,100%,20%)">bajones</text>
<text x="0.046" y="0.524" font-size="0.025161" fill="hsl(180.0,100%,20%)">dneto</text>
<text x="0.448" y="0.281" font-size="0.016774" fill="hsl(180.0,100%,20%)">rharrison</text>
<text x="0.460" y="0.346" font-size="0.003424" fill="hsl(180.0,100%,20%)">kjlubick</text>
<text x="1.722" y="0.849" font-size="0.024927" fill="hsl(0.0,100%,20%)">senorblanco</text>
<text x="0.540" y="0.519" font-size="0.003424" fill="hsl(180.0,100%,20%)">brucedawson</text>
<text x="0.811" y="0.811" font-size="0.018118" fill="hsl(0.0,100%,20%)">beaufort.francois</text>
<text x="0.602" y="0.529" font-size="0.010827" fill="hsl(180.0,100%,20%)">brandon1.jones</text>
<text x="1.324" y="0.524" font-size="0.016060" fill="hsl(0.0,100%,20%)">lehoangquyen</text>
<text x="0.694" y="0.425" font-size="0.003424" fill="hsl(0.0,100%,20%)">fbeaufort</text>
<text x="1.345" y="0.307" font-size="0.021924" fill="hsl(0.0,100%,20%)">penghuang</text>
<text x="0.947" y="0.758" font-size="0.003424" fill="hsl(0.0,100%,20%)">arthursonzogni</text>
<text x="1.057" y="0.943" font-size="0.003424" fill="hsl(0.0,100%,20%)">jamesgk</text>
<text x="1.294" y="0.755" font-size="0.005930" fill="hsl(0.0,100%,20%)">danakj</text>
<text x="0.082" y="0.448" font-size="0.005930" fill="hsl(180.0,100%,20%)">alanbaker</text>
<text x="1.352" y="0.592" font-size="0.004842" fill="hsl(0.0,100%,20%)">bsheedy</text>
<text x="1.029" y="0.384" font-size="0.020544" fill="hsl(0.0,100%,20%)">gman</text>
<text x="1.101" y="0.786" font-size="0.040076" fill="hsl(0.0,100%,20%)">jiawei.shao</text>
<text x="1.684" y="0.249" font-size="0.015312" fill="hsl(0.0,100%,20%)">hao.x.li</text>
<text x="1.261" y="0.919" font-size="0.010272" fill="hsl(0.0,100%,20%)">hitawala</text>
<text x="1.476" y="0.954" font-size="0.004842" fill="hsl(0.0,100%,20%)">sunnyps</text>
<text x="0.612" y="0.718" font-size="0.011356" fill="hsl(180.0,100%,20%)">jason.erb</text>
<text x="0.838" y="0.418" font-size="0.005930" fill="hsl(0.0,100%,20%)">jianlin.qiu</text>
<text x="1.328" y="0.705" font-size="0.003424" fill="hsl(0.0,100%,20%)">rafael.cintron</text>
<text x="0.699" y="0.828" font-size="0.012811" fill="hsl(0.0,100%,20%)">zhaoming.jiang</text>
<text x="1.310" y="0.138" font-size="0.015690" fill="hsl(0.0,100%,20%)">jie.a.chen</text>
<text x="1.254" y="0.279" font-size="0.009059" fill="hsl(0.0,100%,20%)">jojwang</text>
<text x="1.842" y="0.485" font-size="0.003424" fill="hsl(0.0,100%,20%)">kbr</text>
<text x="0.862" y="0.844" font-size="0.012345" fill="hsl(0.0,100%,20%)">tiszka</text>
<text x="0.773" y="0.568" font-size="0.008387" fill="hsl(0.0,100%,20%)">vollick</text>
<text x="1.136" y="0.398" font-size="0.011356" fill="hsl(0.0,100%,20%)">ynovikov</text>
</svg>
