<svg width="4000" height="2000" viewBox="-0.025 -0.025 2.05 1.05" xmlns="http://www.w3.org/2000/svg">
  <style>
    path {
      fill: none;
      stroke-linecap: round;
      stroke-opacity: 0.4;
    }

    text {
      text-anchor: middle;
      alignment-baseline: hanging;
    }
  </style>
  <g opacity="0.4">
<path d="M0.973 0.029 Q0.512 0.010 0.373 0.231" stroke="hsl(0.0,100%,35%)" stroke-width="0.00448"></path>
<path d="M0.973 0.029 Q0.732 -0.000 0.622 0.111" stroke="hsl(0.0,100%,35%)" stroke-width="0.00399"></path>
<path d="M0.973 0.029 Q0.685 0.119 0.797 0.279" stroke="hsl(0.0,100%,35%)" stroke-width="0.00050"></path>
<path d="M0.373 0.231 Q0.593 0.221 0.622 0.111" stroke="hsl(0.0,100%,35%)" stroke-width="0.07174"></path>
<path d="M0.373 0.231 Q0.667 0.379 1.021 0.268" stroke="hsl(0.0,100%,35%)" stroke-width="0.00448"></path>
<path d="M0.373 0.231 Q0.546 0.340 0.797 0.279" stroke="hsl(0.0,100%,35%)" stroke-width="0.05181"></path>
<path d="M0.373 0.231 Q0.105 0.365 0.309 0.526" stroke="hsl(0.0,100%,35%)" stroke-width="0.00050"></path>
<path d="M0.373 0.231 Q0.313 0.477 0.780 0.560" stroke="hsl(0.0,100%,35%)" stroke-width="0.00100"></path>
<path d="M0.373 0.231 Q0.229 0.287 0.307 0.370" stroke="hsl(0.0,100%,35%)" stroke-width="0.00747"></path>
<path d="M0.373 0.231 Q0.190 0.513 0.701 0.664" stroke="hsl(0.0,100%,35%)" stroke-width="0.00349"></path>
<path d="M0.373 0.231 Q0.381 0.320 0.556 0.335" stroke="hsl(0.0,100%,35%)" stroke-width="0.00050"></path>
<path d="M0.373 0.231 Q0.939 0.278 1.156 0.013" stroke="hsl(0.0,100%,35%)" stroke-width="0.00100"></path>
<path d="M0.373 0.231 Q0.718 0.433 1.189 0.308" stroke="hsl(0.0,100%,35%)" stroke-width="0.00050"></path>
<path d="M0.373 0.231 Q0.835 0.250 0.973 0.029" stroke="hsl(0.0,100%,35%)" stroke-width="0.00050"></path>
<path d="M0.373 0.231 Q0.181 0.223 0.124 0.314" stroke="hsl(0.0,100%,35%)" stroke-width="0.00100"></path>
<path d="M0.373 0.231 Q0.449 0.300 0.601 0.278" stroke="hsl(0.0,100%,35%)" stroke-width="0.00050"></path>
<path d="M0.373 0.231 Q0.293 0.357 0.523 0.424" stroke="hsl(0.0,100%,35%)" stroke-width="0.00050"></path>
<path d="M0.373 0.231 Q0.765 0.430 1.241 0.283" stroke="hsl(0.0,100%,35%)" stroke-width="0.00100"></path>
<path d="M0.373 0.231 Q0.584 0.235 0.639 0.134" stroke="hsl(0.0,100%,35%)" stroke-width="0.00050"></path>
<path d="M0.373 0.231 Q0.341 0.274 0.418 0.299" stroke="hsl(0.0,100%,35%)" stroke-width="0.00050"></path>
<path d="M0.622 0.111 Q0.258 0.178 0.307 0.370" stroke="hsl(0.0,100%,35%)" stroke-width="0.00249"></path>
<path d="M0.622 0.111 Q0.402 0.121 0.373 0.231" stroke="hsl(0.0,100%,35%)" stroke-width="0.04384"></path>
<path d="M0.622 0.111 Q0.311 0.148 0.314 0.308" stroke="hsl(0.0,100%,35%)" stroke-width="0.00100"></path>
<path d="M0.622 0.111 Q0.576 0.230 0.797 0.279" stroke="hsl(0.0,100%,35%)" stroke-width="0.04932"></path>
<path d="M0.622 0.111 Q0.696 0.269 1.021 0.268" stroke="hsl(0.0,100%,35%)" stroke-width="0.00050"></path>
<path d="M0.622 0.111 Q1.018 0.245 1.366 0.082" stroke="hsl(0.0,100%,35%)" stroke-width="0.00050"></path>
<path d="M0.797 0.279 Q0.432 0.162 0.124 0.314" stroke="hsl(0.0,100%,35%)" stroke-width="0.00050"></path>
<path d="M0.797 0.279 Q0.844 0.160 0.622 0.111" stroke="hsl(0.0,100%,35%)" stroke-width="0.00249"></path>
<path d="M0.797 0.279 Q0.623 0.170 0.373 0.231" stroke="hsl(0.0,100%,35%)" stroke-width="0.00249"></path>
<path d="M0.797 0.279 Q0.480 0.226 0.307 0.370" stroke="hsl(0.0,100%,35%)" stroke-width="0.00050"></path>
<path d="M0.818 0.110 Q0.719 0.072 0.622 0.111" stroke="hsl(0.0,100%,35%)" stroke-width="0.00199"></path>
<path d="M0.818 0.110 Q0.498 0.081 0.373 0.231" stroke="hsl(0.0,100%,35%)" stroke-width="0.00399"></path>
<path d="M0.818 0.110 Q0.672 0.190 0.797 0.279" stroke="hsl(0.0,100%,35%)" stroke-width="0.00249"></path>
<path d="M0.818 0.110 Q0.634 0.308 0.982 0.441" stroke="hsl(0.0,100%,35%)" stroke-width="0.00050"></path>
<path d="M0.982 0.441 Q1.066 0.205 0.622 0.111" stroke="hsl(0.0,100%,35%)" stroke-width="0.00199"></path>
<path d="M0.982 0.441 Q0.846 0.214 0.373 0.231" stroke="hsl(0.0,100%,35%)" stroke-width="0.00399"></path>
<path d="M0.982 0.441 Q1.019 0.323 0.797 0.279" stroke="hsl(0.0,100%,35%)" stroke-width="0.00299"></path>
<path d="M1.156 0.013 Q0.810 -0.045 0.622 0.111" stroke="hsl(0.0,100%,35%)" stroke-width="0.01345"></path>
<path d="M1.156 0.013 Q0.590 -0.035 0.373 0.231" stroke="hsl(0.0,100%,35%)" stroke-width="0.01345"></path>
<path d="M1.156 0.013 Q0.764 0.074 0.797 0.279" stroke="hsl(0.0,100%,35%)" stroke-width="0.00399"></path>
<path d="M0.309 0.526 Q0.157 0.587 0.243 0.674" stroke="hsl(180.0,100%,35%)" stroke-width="0.00697"></path>
<path d="M0.309 0.526 Q0.365 0.460 0.249 0.418" stroke="hsl(180.0,100%,35%)" stroke-width="0.00199"></path>
<path d="M0.309 0.526 Q0.385 0.383 0.124 0.314" stroke="hsl(180.0,100%,35%)" stroke-width="0.00050"></path>
<path d="M0.309 0.526 Q0.577 0.391 0.373 0.231" stroke="hsl(180.0,100%,35%)" stroke-width="0.00100"></path>
<path d="M0.307 0.370 Q0.451 0.313 0.373 0.231" stroke="hsl(0.0,100%,35%)" stroke-width="0.01993"></path>
<path d="M0.307 0.370 Q0.671 0.304 0.622 0.111" stroke="hsl(0.0,100%,35%)" stroke-width="0.01445"></path>
<path d="M0.307 0.370 Q0.625 0.422 0.797 0.279" stroke="hsl(0.0,100%,35%)" stroke-width="0.00897"></path>
<path d="M0.701 0.664 Q0.884 0.382 0.373 0.231" stroke="hsl(0.0,100%,35%)" stroke-width="0.01544"></path>
<path d="M0.701 0.664 Q1.104 0.372 0.622 0.111" stroke="hsl(0.0,100%,35%)" stroke-width="0.01345"></path>
<path d="M0.701 0.664 Q1.057 0.491 0.797 0.279" stroke="hsl(0.0,100%,35%)" stroke-width="0.00648"></path>
<path d="M0.556 0.335 Q0.548 0.246 0.373 0.231" stroke="hsl(0.0,100%,35%)" stroke-width="0.00149"></path>
<path d="M0.556 0.335 Q0.768 0.237 0.622 0.111" stroke="hsl(0.0,100%,35%)" stroke-width="0.00498"></path>
<path d="M0.556 0.335 Q0.722 0.355 0.797 0.279" stroke="hsl(0.0,100%,35%)" stroke-width="0.00199"></path>
<path d="M1.189 0.308 Q1.063 0.097 0.622 0.111" stroke="hsl(0.0,100%,35%)" stroke-width="0.00100"></path>
<path d="M1.189 0.308 Q0.843 0.106 0.373 0.231" stroke="hsl(0.0,100%,35%)" stroke-width="0.00100"></path>
<path d="M1.189 0.308 Q1.017 0.215 0.797 0.279" stroke="hsl(0.0,100%,35%)" stroke-width="0.00149"></path>
<path d="M0.124 0.314 Q0.315 0.322 0.373 0.231" stroke="hsl(0.0,100%,35%)" stroke-width="0.01594"></path>
<path d="M0.124 0.314 Q0.047 0.457 0.309 0.526" stroke="hsl(0.0,100%,35%)" stroke-width="0.00050"></path>
<path d="M0.124 0.314 Q0.536 0.313 0.622 0.111" stroke="hsl(0.0,100%,35%)" stroke-width="0.01096"></path>
<path d="M0.124 0.314 Q0.489 0.431 0.797 0.279" stroke="hsl(0.0,100%,35%)" stroke-width="0.00897"></path>
<path d="M1.241 0.283 Q1.022 0.192 0.797 0.279" stroke="hsl(0.0,100%,35%)" stroke-width="0.00598"></path>
<path d="M1.241 0.283 Q1.069 0.073 0.622 0.111" stroke="hsl(0.0,100%,35%)" stroke-width="0.00100"></path>
<path d="M1.241 0.283 Q0.849 0.083 0.373 0.231" stroke="hsl(0.0,100%,35%)" stroke-width="0.00249"></path>
<path d="M0.639 0.134 Q0.428 0.129 0.373 0.231" stroke="hsl(0.0,100%,35%)" stroke-width="0.01046"></path>
<path d="M0.639 0.134 Q0.648 0.119 0.622 0.111" stroke="hsl(0.0,100%,35%)" stroke-width="0.00747"></path>
<path d="M0.639 0.134 Q0.602 0.238 0.797 0.279" stroke="hsl(0.0,100%,35%)" stroke-width="0.00697"></path>
<path d="M0.639 0.134 Q0.564 0.356 0.982 0.441" stroke="hsl(0.0,100%,35%)" stroke-width="0.00149"></path>
<path d="M0.418 0.299 Q0.307 0.312 0.307 0.370" stroke="hsl(0.0,100%,35%)" stroke-width="0.00050"></path>
<path d="M0.418 0.299 Q0.451 0.256 0.373 0.231" stroke="hsl(0.0,100%,35%)" stroke-width="0.00947"></path>
<path d="M0.418 0.299 Q0.671 0.246 0.622 0.111" stroke="hsl(0.0,100%,35%)" stroke-width="0.00299"></path>
<path d="M0.418 0.299 Q0.624 0.365 0.797 0.279" stroke="hsl(0.0,100%,35%)" stroke-width="0.00399"></path>
<path d="M0.778 0.331 Q0.876 0.190 0.622 0.111" stroke="hsl(0.0,100%,35%)" stroke-width="0.00050"></path>
<path d="M0.778 0.331 Q0.655 0.200 0.373 0.231" stroke="hsl(0.0,100%,35%)" stroke-width="0.00199"></path>
<path d="M0.778 0.331 Q0.829 0.309 0.797 0.279" stroke="hsl(0.0,100%,35%)" stroke-width="0.00100"></path>
<path d="M0.510 0.503 Q0.659 0.339 0.373 0.231" stroke="hsl(0.0,100%,35%)" stroke-width="0.00747"></path>
<path d="M0.510 0.503 Q0.879 0.329 0.622 0.111" stroke="hsl(0.0,100%,35%)" stroke-width="0.00349"></path>
<path d="M0.510 0.503 Q0.833 0.448 0.797 0.279" stroke="hsl(0.0,100%,35%)" stroke-width="0.00299"></path>
<path d="M0.867 0.372 Q0.733 0.202 0.373 0.231" stroke="hsl(0.0,100%,35%)" stroke-width="0.00149"></path>
<path d="M0.867 0.372 Q0.953 0.193 0.622 0.111" stroke="hsl(0.0,100%,35%)" stroke-width="0.00149"></path>
<path d="M0.867 0.372 Q0.906 0.311 0.797 0.279" stroke="hsl(0.0,100%,35%)" stroke-width="0.00050"></path>
</g>
<text x="0.973" y="0.019" font-size="0.019088" fill="hsl(0.0,100%,20%)">beaufort.francois</text>
<text x="0.373" y="0.176" font-size="0.108772" fill="hsl(0.0,100%,20%)">cwallez</text>
<text x="0.622" y="0.062" font-size="0.099085" fill="hsl(0.0,100%,20%)">enga</text>
<text x="0.797" y="0.239" font-size="0.080029" fill="hsl(0.0,100%,20%)">kainino</text>
<text x="0.818" y="0.100" font-size="0.018578" fill="hsl(0.0,100%,20%)">brandon1.jones</text>
<text x="0.982" y="0.431" font-size="0.020539" fill="hsl(0.0,100%,20%)">rafael.cintron</text>
<text x="1.156" y="-0.005" font-size="0.035032" fill="hsl(0.0,100%,20%)">bryan.bernhart</text>
<text x="1.021" y="0.261" font-size="0.013848" fill="hsl(0.0,100%,20%)">digit</text>
<text x="0.309" y="0.515" font-size="0.021001" fill="hsl(180.0,100%,20%)">dsinclair</text>
<text x="0.780" y="0.557" font-size="0.006193" fill="hsl(0.0,100%,20%)">thakis</text>
<text x="0.307" y="0.347" font-size="0.045718" fill="hsl(0.0,100%,20%)">jiawei.shao</text>
<text x="0.701" y="0.645" font-size="0.038674" fill="hsl(0.0,100%,20%)">yunchao.he</text>
<text x="0.556" y="0.326" font-size="0.018578" fill="hsl(0.0,100%,20%)">hob</text>
<text x="1.189" y="0.302" font-size="0.012386" fill="hsl(0.0,100%,20%)">senorblanco</text>
<text x="0.124" y="0.295" font-size="0.038425" fill="hsl(0.0,100%,20%)">rharrison</text>
<text x="0.601" y="0.276" font-size="0.004379" fill="hsl(0.0,100%,20%)">oshima</text>
<text x="0.523" y="0.422" font-size="0.004379" fill="hsl(0.0,100%,20%)">afakhry</text>
<text x="1.241" y="0.273" font-size="0.020067" fill="hsl(0.0,100%,20%)">idanr</text>
<text x="0.639" y="0.117" font-size="0.032179" fill="hsl(0.0,100%,20%)">natlee</text>
<text x="0.418" y="0.287" font-size="0.025906" fill="hsl(0.0,100%,20%)">hao.x.li</text>
<text x="0.243" y="0.666" font-size="0.016385" fill="hsl(180.0,100%,20%)">sarahmashay</text>
<text x="0.249" y="0.414" font-size="0.008758" fill="hsl(180.0,100%,20%)">dneto</text>
<text x="0.314" y="0.305" font-size="0.006193" fill="hsl(0.0,100%,20%)">mehe</text>
<text x="1.366" y="0.079" font-size="0.004379" fill="hsl(0.0,100%,20%)">kbr</text>
<text x="0.778" y="0.325" font-size="0.011586" fill="hsl(0.0,100%,20%)">jiajie.hu</text>
<text x="0.510" y="0.491" font-size="0.023171" fill="hsl(0.0,100%,20%)">shaobo.yan</text>
<text x="0.867" y="0.366" font-size="0.011586" fill="hsl(0.0,100%,20%)">yizhou.jiang</text>
</svg>
