<svg width="4000" height="2000" viewBox="-0.025 -0.025 2.05 1.05" xmlns="http://www.w3.org/2000/svg">
  <style>
    path {
      fill: none;
      stroke-linecap: round;
      stroke-opacity: 0.4;
    }

    text {
      text-anchor: middle;
      alignment-baseline: hanging;
    }
  </style>
  <g opacity="0.4">
<path d="M1.822 0.665 Q1.497 0.708 1.510 0.876" stroke="hsl(0.0,100%,35%)" stroke-width="0.00693"></path>
<path d="M1.822 0.665 Q1.015 0.341 0.207 0.664" stroke="hsl(0.0,100%,35%)" stroke-width="0.00520"></path>
<path d="M1.822 0.665 Q1.596 0.145 0.533 0.141" stroke="hsl(0.0,100%,35%)" stroke-width="0.00347"></path>
<path d="M1.822 0.665 Q1.628 0.622 1.502 0.707" stroke="hsl(0.0,100%,35%)" stroke-width="0.00173"></path>
<path d="M1.510 0.876 Q1.835 0.833 1.822 0.665" stroke="hsl(0.0,100%,35%)" stroke-width="0.01907"></path>
<path d="M1.510 0.876 Q1.609 0.313 0.533 0.141" stroke="hsl(0.0,100%,35%)" stroke-width="0.02080"></path>
<path d="M1.510 0.876 Q1.640 0.790 1.502 0.707" stroke="hsl(0.0,100%,35%)" stroke-width="0.01907"></path>
<path d="M1.510 0.876 Q1.686 0.697 1.376 0.572" stroke="hsl(0.0,100%,35%)" stroke-width="0.01213"></path>
<path d="M1.510 0.876 Q1.330 0.822 1.187 0.898" stroke="hsl(0.0,100%,35%)" stroke-width="0.03120"></path>
<path d="M1.510 0.876 Q1.332 0.470 0.501 0.467" stroke="hsl(0.0,100%,35%)" stroke-width="0.00173"></path>
<path d="M1.510 0.876 Q1.739 0.426 0.912 0.215" stroke="hsl(0.0,100%,35%)" stroke-width="0.00173"></path>
<path d="M0.207 0.664 Q0.342 0.605 0.257 0.527" stroke="hsl(180.0,100%,35%)" stroke-width="0.01387"></path>
<path d="M0.207 0.664 Q0.511 0.624 0.501 0.467" stroke="hsl(180.0,100%,35%)" stroke-width="0.00173"></path>
<path d="M0.207 0.664 Q0.788 0.468 0.533 0.141" stroke="hsl(180.0,100%,35%)" stroke-width="0.00347"></path>
<path d="M0.207 0.664 Q0.776 0.599 0.775 0.307" stroke="hsl(180.0,100%,35%)" stroke-width="0.00173"></path>
<path d="M0.533 0.141 Q0.434 0.704 1.510 0.876" stroke="hsl(180.0,100%,35%)" stroke-width="0.01560"></path>
<path d="M0.533 0.141 Q0.255 0.651 1.187 0.898" stroke="hsl(180.0,100%,35%)" stroke-width="0.00173"></path>
<path d="M0.533 0.141 Q0.087 0.279 0.257 0.527" stroke="hsl(180.0,100%,35%)" stroke-width="0.00867"></path>
<path d="M0.533 0.141 Q-0.048 0.337 0.207 0.664" stroke="hsl(180.0,100%,35%)" stroke-width="0.01040"></path>
<path d="M0.533 0.141 Q0.456 0.351 0.848 0.435" stroke="hsl(180.0,100%,35%)" stroke-width="0.00173"></path>
<path d="M0.533 0.141 Q0.628 0.196 0.755 0.162" stroke="hsl(180.0,100%,35%)" stroke-width="0.00173"></path>
<path d="M0.533 0.141 Q0.663 0.254 0.912 0.215" stroke="hsl(180.0,100%,35%)" stroke-width="0.00173"></path>
<path d="M0.533 0.141 Q0.256 0.298 0.501 0.467" stroke="hsl(180.0,100%,35%)" stroke-width="0.00173"></path>
<path d="M1.502 0.707 Q1.371 0.793 1.510 0.876" stroke="hsl(0.0,100%,35%)" stroke-width="0.01213"></path>
<path d="M1.502 0.707 Q1.547 0.614 1.376 0.572" stroke="hsl(0.0,100%,35%)" stroke-width="0.00693"></path>
<path d="M1.502 0.707 Q1.696 0.750 1.822 0.665" stroke="hsl(0.0,100%,35%)" stroke-width="0.00173"></path>
<path d="M1.502 0.707 Q1.192 0.740 1.187 0.898" stroke="hsl(0.0,100%,35%)" stroke-width="0.00173"></path>
<path d="M0.912 0.215 Q0.781 0.102 0.533 0.141" stroke="hsl(180.0,100%,35%)" stroke-width="0.03293"></path>
<path d="M0.912 0.215 Q0.200 0.299 0.207 0.664" stroke="hsl(180.0,100%,35%)" stroke-width="0.00347"></path>
<path d="M0.912 0.215 Q1.099 0.236 1.180 0.149" stroke="hsl(180.0,100%,35%)" stroke-width="0.00173"></path>
<path d="M0.912 0.215 Q0.682 0.665 1.510 0.876" stroke="hsl(180.0,100%,35%)" stroke-width="0.00347"></path>
<path d="M1.187 0.898 Q1.367 0.951 1.510 0.876" stroke="hsl(0.0,100%,35%)" stroke-width="0.02253"></path>
<path d="M1.187 0.898 Q1.692 0.908 1.822 0.665" stroke="hsl(0.0,100%,35%)" stroke-width="0.00173"></path>
<path d="M1.187 0.898 Q1.388 0.599 0.848 0.435" stroke="hsl(0.0,100%,35%)" stroke-width="0.00520"></path>
<path d="M1.187 0.898 Q1.454 0.520 0.775 0.307" stroke="hsl(0.0,100%,35%)" stroke-width="0.00173"></path>
<path d="M1.187 0.898 Q1.040 0.726 0.672 0.760" stroke="hsl(0.0,100%,35%)" stroke-width="0.00173"></path>
<path d="M1.187 0.898 Q1.497 0.866 1.502 0.707" stroke="hsl(0.0,100%,35%)" stroke-width="0.00173"></path>
<path d="M0.501 0.467 Q0.777 0.311 0.533 0.141" stroke="hsl(180.0,100%,35%)" stroke-width="0.00347"></path>
<path d="M0.501 0.467 Q0.331 0.448 0.257 0.527" stroke="hsl(180.0,100%,35%)" stroke-width="0.00520"></path>
<path d="M0.501 0.467 Q0.196 0.507 0.207 0.664" stroke="hsl(180.0,100%,35%)" stroke-width="0.00173"></path>
<path d="M0.257 0.527 Q0.123 0.585 0.207 0.664" stroke="hsl(180.0,100%,35%)" stroke-width="0.01040"></path>
<path d="M0.257 0.527 Q0.427 0.546 0.501 0.467" stroke="hsl(180.0,100%,35%)" stroke-width="0.01040"></path>
<path d="M0.257 0.527 Q0.704 0.389 0.533 0.141" stroke="hsl(180.0,100%,35%)" stroke-width="0.00347"></path>
<path d="M0.848 0.435 Q0.826 0.788 1.510 0.876" stroke="hsl(0.0,100%,35%)" stroke-width="0.00347"></path>
<path d="M0.848 0.435 Q0.344 0.421 0.207 0.664" stroke="hsl(0.0,100%,35%)" stroke-width="0.00173"></path>
<path d="M0.848 0.435 Q0.647 0.734 1.187 0.898" stroke="hsl(0.0,100%,35%)" stroke-width="0.00520"></path>
<path d="M0.775 0.307 Q0.206 0.372 0.207 0.664" stroke="hsl(180.0,100%,35%)" stroke-width="0.00347"></path>
<path d="M0.775 0.307 Q0.709 0.386 0.848 0.435" stroke="hsl(180.0,100%,35%)" stroke-width="0.00520"></path>
<path d="M0.775 0.307 Q0.508 0.685 1.187 0.898" stroke="hsl(180.0,100%,35%)" stroke-width="0.00173"></path>
<path d="M0.672 0.760 Q0.998 0.985 1.510 0.876" stroke="hsl(180.0,100%,35%)" stroke-width="0.00173"></path>
<path d="M0.672 0.760 Q0.651 0.561 0.257 0.527" stroke="hsl(180.0,100%,35%)" stroke-width="0.00173"></path>
<path d="M0.672 0.760 Q1.097 0.423 0.533 0.141" stroke="hsl(180.0,100%,35%)" stroke-width="0.00173"></path>
<path d="M0.672 0.760 Q0.620 0.858 0.801 0.905" stroke="hsl(180.0,100%,35%)" stroke-width="0.00173"></path>
<path d="M0.313 0.271 Q0.526 0.250 0.533 0.141" stroke="hsl(180.0,100%,35%)" stroke-width="0.02947"></path>
<path d="M0.313 0.271 Q-0.055 0.446 0.207 0.664" stroke="hsl(180.0,100%,35%)" stroke-width="0.02427"></path>
<path d="M0.313 0.271 Q0.427 0.812 1.510 0.876" stroke="hsl(180.0,100%,35%)" stroke-width="0.01387"></path>
<path d="M0.313 0.271 Q0.080 0.388 0.257 0.527" stroke="hsl(180.0,100%,35%)" stroke-width="0.00173"></path>
<path d="M0.313 0.271 Q0.558 0.727 1.502 0.707" stroke="hsl(180.0,100%,35%)" stroke-width="0.00173"></path>
<path d="M0.190 0.742 Q0.261 0.706 0.207 0.664" stroke="hsl(180.0,100%,35%)" stroke-width="0.01040"></path>
<path d="M0.190 0.742 Q0.842 0.510 0.533 0.141" stroke="hsl(180.0,100%,35%)" stroke-width="0.00867"></path>
<path d="M0.190 0.742 Q0.743 1.073 1.510 0.876" stroke="hsl(180.0,100%,35%)" stroke-width="0.00173"></path>
<path d="M1.844 0.452 Q1.437 0.035 0.533 0.141" stroke="hsl(180.0,100%,35%)" stroke-width="0.00173"></path>
<path d="M1.844 0.452 Q0.856 0.231 0.207 0.664" stroke="hsl(180.0,100%,35%)" stroke-width="0.00347"></path>
<path d="M1.844 0.452 Q1.962 0.356 1.800 0.278" stroke="hsl(180.0,100%,35%)" stroke-width="0.00173"></path>
</g>
<text x="1.822" y="0.644" font-size="0.042225" fill="hsl(0.0,100%,20%)">amaiorano</text>
<text x="1.510" y="0.830" font-size="0.091499" fill="hsl(0.0,100%,20%)">bclayton</text>
<text x="0.207" y="0.631" font-size="0.065296" fill="hsl(180.0,100%,20%)">enga</text>
<text x="0.533" y="0.100" font-size="0.082594" fill="hsl(180.0,100%,20%)">cwallez</text>
<text x="1.502" y="0.684" font-size="0.045750" fill="hsl(0.0,100%,20%)">jrprice</text>
<text x="0.912" y="0.193" font-size="0.044894" fill="hsl(180.0,100%,20%)">arthursonzogni</text>
<text x="1.180" y="0.144" font-size="0.008805" fill="hsl(180.0,100%,20%)">khaslett</text>
<text x="1.376" y="0.557" font-size="0.029201" fill="hsl(0.0,100%,20%)">dneto</text>
<text x="1.187" y="0.869" font-size="0.058403" fill="hsl(0.0,100%,20%)">dsinclair</text>
<text x="0.501" y="0.450" font-size="0.034100" fill="hsl(180.0,100%,20%)">kainino</text>
<text x="0.257" y="0.502" font-size="0.049806" fill="hsl(180.0,100%,20%)">lokokung</text>
<text x="0.848" y="0.419" font-size="0.031745" fill="hsl(0.0,100%,20%)">senorblanco</text>
<text x="0.755" y="0.157" font-size="0.008805" fill="hsl(180.0,100%,20%)">fhorschig</text>
<text x="0.775" y="0.295" font-size="0.024903" fill="hsl(180.0,100%,20%)">shrekshao</text>
<text x="0.672" y="0.750" font-size="0.019687" fill="hsl(180.0,100%,20%)">gman</text>
<text x="0.801" y="0.900" font-size="0.008805" fill="hsl(180.0,100%,20%)">bajones</text>
<text x="0.313" y="0.243" font-size="0.056376" fill="hsl(180.0,100%,20%)">jiawei.shao</text>
<text x="0.190" y="0.727" font-size="0.030500" fill="hsl(180.0,100%,20%)">penghuang</text>
<text x="1.844" y="0.444" font-size="0.017609" fill="hsl(180.0,100%,20%)">shaobo.yan</text>
<text x="1.800" y="0.273" font-size="0.008805" fill="hsl(180.0,100%,20%)">sunnyps</text>
</svg>
