<svg width="4000" height="2000" viewBox="-0.025 -0.025 2.05 1.05" xmlns="http://www.w3.org/2000/svg">
  <style>
    path {
      fill: none;
      stroke-linecap: round;
      stroke-opacity: 0.4;
    }

    text {
      text-anchor: middle;
      alignment-baseline: hanging;
    }
  </style>
  <g opacity="0.4">
<path d="M0.518 0.636 Q0.343 0.706 0.440 0.807" stroke="hsl(0.0,100%,35%)" stroke-width="0.00126"></path>
<path d="M0.518 0.636 Q0.551 0.585 0.458 0.558" stroke="hsl(0.0,100%,35%)" stroke-width="0.00042"></path>
<path d="M0.518 0.636 Q1.106 0.597 1.157 0.301" stroke="hsl(0.0,100%,35%)" stroke-width="0.00042"></path>
<path d="M0.518 0.636 Q1.091 0.522 0.994 0.217" stroke="hsl(0.0,100%,35%)" stroke-width="0.00084"></path>
<path d="M0.440 0.807 Q0.532 0.605 0.158 0.516" stroke="hsl(0.0,100%,35%)" stroke-width="0.00923"></path>
<path d="M0.440 0.807 Q1.189 0.623 0.994 0.217" stroke="hsl(0.0,100%,35%)" stroke-width="0.02223"></path>
<path d="M0.440 0.807 Q1.039 0.584 0.738 0.243" stroke="hsl(0.0,100%,35%)" stroke-width="0.01069"></path>
<path d="M0.440 0.807 Q1.203 0.697 1.157 0.301" stroke="hsl(0.0,100%,35%)" stroke-width="0.00147"></path>
<path d="M0.440 0.807 Q0.984 0.484 0.474 0.148" stroke="hsl(0.0,100%,35%)" stroke-width="0.00021"></path>
<path d="M0.440 0.807 Q1.359 0.635 1.226 0.149" stroke="hsl(0.0,100%,35%)" stroke-width="0.00042"></path>
<path d="M0.440 0.807 Q1.331 0.541 1.007 0.048" stroke="hsl(0.0,100%,35%)" stroke-width="0.00168"></path>
<path d="M0.440 0.807 Q0.971 0.685 0.851 0.400" stroke="hsl(0.0,100%,35%)" stroke-width="0.00021"></path>
<path d="M0.440 0.807 Q0.524 0.644 0.226 0.567" stroke="hsl(0.0,100%,35%)" stroke-width="0.00042"></path>
<path d="M0.440 0.807 Q1.145 0.710 1.112 0.345" stroke="hsl(0.0,100%,35%)" stroke-width="0.00042"></path>
<path d="M0.440 0.807 Q1.426 0.588 1.215 0.059" stroke="hsl(0.0,100%,35%)" stroke-width="0.00063"></path>
<path d="M0.440 0.807 Q0.322 0.750 0.185 0.795" stroke="hsl(0.0,100%,35%)" stroke-width="0.00021"></path>
<path d="M0.440 0.807 Q0.648 0.686 0.458 0.558" stroke="hsl(0.0,100%,35%)" stroke-width="0.00042"></path>
<path d="M0.440 0.807 Q0.605 0.910 0.843 0.852" stroke="hsl(0.0,100%,35%)" stroke-width="0.00042"></path>
<path d="M0.440 0.807 Q0.735 0.856 0.895 0.723" stroke="hsl(0.0,100%,35%)" stroke-width="0.00021"></path>
<path d="M0.440 0.807 Q0.270 0.798 0.215 0.879" stroke="hsl(0.0,100%,35%)" stroke-width="0.00021"></path>
<path d="M0.458 0.558 Q0.342 0.477 0.158 0.516" stroke="hsl(180.0,100%,35%)" stroke-width="0.06039"></path>
<path d="M0.458 0.558 Q0.487 0.422 0.228 0.378" stroke="hsl(180.0,100%,35%)" stroke-width="0.02369"></path>
<path d="M0.458 0.558 Q0.708 0.537 0.722 0.410" stroke="hsl(180.0,100%,35%)" stroke-width="0.00084"></path>
<path d="M0.458 0.558 Q0.250 0.678 0.440 0.807" stroke="hsl(180.0,100%,35%)" stroke-width="0.00273"></path>
<path d="M0.458 0.558 Q0.335 0.516 0.226 0.567" stroke="hsl(180.0,100%,35%)" stroke-width="0.00147"></path>
<path d="M0.458 0.558 Q0.255 0.515 0.127 0.604" stroke="hsl(180.0,100%,35%)" stroke-width="0.00042"></path>
<path d="M0.458 0.558 Q1.013 0.569 1.157 0.301" stroke="hsl(180.0,100%,35%)" stroke-width="0.00042"></path>
<path d="M0.458 0.558 Q0.999 0.495 0.994 0.217" stroke="hsl(180.0,100%,35%)" stroke-width="0.00084"></path>
<path d="M0.458 0.558 Q0.955 0.582 1.112 0.345" stroke="hsl(180.0,100%,35%)" stroke-width="0.00084"></path>
<path d="M0.458 0.558 Q0.813 0.451 0.682 0.254" stroke="hsl(180.0,100%,35%)" stroke-width="0.00021"></path>
<path d="M0.458 0.558 Q0.781 0.557 0.851 0.400" stroke="hsl(180.0,100%,35%)" stroke-width="0.00021"></path>
<path d="M1.157 0.301 Q1.143 0.226 0.994 0.217" stroke="hsl(0.0,100%,35%)" stroke-width="0.00294"></path>
<path d="M1.157 0.301 Q1.285 0.144 1.007 0.048" stroke="hsl(0.0,100%,35%)" stroke-width="0.00021"></path>
<path d="M1.157 0.301 Q0.993 0.188 0.738 0.243" stroke="hsl(0.0,100%,35%)" stroke-width="0.00294"></path>
<path d="M1.157 0.301 Q0.399 0.247 0.127 0.604" stroke="hsl(0.0,100%,35%)" stroke-width="0.00021"></path>
<path d="M1.157 0.301 Q1.021 0.368 1.123 0.449" stroke="hsl(0.0,100%,35%)" stroke-width="0.00021"></path>
<path d="M1.157 0.301 Q0.394 0.410 0.440 0.807" stroke="hsl(0.0,100%,35%)" stroke-width="0.00231"></path>
<path d="M1.157 0.301 Q0.925 0.289 0.851 0.400" stroke="hsl(0.0,100%,35%)" stroke-width="0.00021"></path>
<path d="M1.157 0.301 Q0.271 0.458 0.383 0.924" stroke="hsl(0.0,100%,35%)" stroke-width="0.00021"></path>
<path d="M1.157 0.301 Q0.486 0.208 0.158 0.516" stroke="hsl(0.0,100%,35%)" stroke-width="0.00021"></path>
<path d="M0.994 0.217 Q0.251 0.237 0.127 0.604" stroke="hsl(0.0,100%,35%)" stroke-width="0.00105"></path>
<path d="M0.994 0.217 Q0.845 0.179 0.738 0.243" stroke="hsl(0.0,100%,35%)" stroke-width="0.01719"></path>
<path d="M0.994 0.217 Q0.950 0.305 1.112 0.345" stroke="hsl(0.0,100%,35%)" stroke-width="0.00126"></path>
<path d="M0.994 0.217 Q1.009 0.292 1.157 0.301" stroke="hsl(0.0,100%,35%)" stroke-width="0.00419"></path>
<path d="M0.994 0.217 Q0.482 0.145 0.228 0.378" stroke="hsl(0.0,100%,35%)" stroke-width="0.00084"></path>
<path d="M0.994 0.217 Q0.245 0.401 0.440 0.807" stroke="hsl(0.0,100%,35%)" stroke-width="0.00985"></path>
<path d="M0.994 0.217 Q0.872 0.359 1.123 0.449" stroke="hsl(0.0,100%,35%)" stroke-width="0.00042"></path>
<path d="M0.994 0.217 Q1.136 0.135 1.007 0.048" stroke="hsl(0.0,100%,35%)" stroke-width="0.00147"></path>
<path d="M0.994 0.217 Q0.337 0.199 0.158 0.516" stroke="hsl(0.0,100%,35%)" stroke-width="0.00315"></path>
<path d="M0.994 0.217 Q0.777 0.280 0.851 0.400" stroke="hsl(0.0,100%,35%)" stroke-width="0.00189"></path>
<path d="M0.994 0.217 Q1.231 0.182 1.215 0.059" stroke="hsl(0.0,100%,35%)" stroke-width="0.00063"></path>
<path d="M0.994 0.217 Q1.165 0.229 1.226 0.149" stroke="hsl(0.0,100%,35%)" stroke-width="0.00063"></path>
<path d="M0.994 0.217 Q0.330 0.239 0.226 0.567" stroke="hsl(0.0,100%,35%)" stroke-width="0.00126"></path>
<path d="M0.994 0.217 Q0.808 0.173 0.682 0.254" stroke="hsl(0.0,100%,35%)" stroke-width="0.00063"></path>
<path d="M0.994 0.217 Q0.908 0.236 0.925 0.282" stroke="hsl(0.0,100%,35%)" stroke-width="0.00021"></path>
<path d="M0.994 0.217 Q0.454 0.280 0.458 0.558" stroke="hsl(0.0,100%,35%)" stroke-width="0.00084"></path>
<path d="M0.994 0.217 Q0.950 0.104 0.719 0.100" stroke="hsl(0.0,100%,35%)" stroke-width="0.00021"></path>
<path d="M0.994 0.217 Q0.742 0.202 0.658 0.321" stroke="hsl(0.0,100%,35%)" stroke-width="0.00063"></path>
<path d="M0.994 0.217 Q1.154 0.317 1.385 0.261" stroke="hsl(0.0,100%,35%)" stroke-width="0.00021"></path>
<path d="M0.994 0.217 Q0.123 0.449 0.383 0.924" stroke="hsl(0.0,100%,35%)" stroke-width="0.00021"></path>
<path d="M0.226 0.567 Q0.890 0.546 0.994 0.217" stroke="hsl(180.0,100%,35%)" stroke-width="0.00671"></path>
<path d="M0.226 0.567 Q0.233 0.528 0.158 0.516" stroke="hsl(180.0,100%,35%)" stroke-width="0.00944"></path>
<path d="M0.226 0.567 Q0.142 0.730 0.440 0.807" stroke="hsl(180.0,100%,35%)" stroke-width="0.00210"></path>
<path d="M0.226 0.567 Q0.350 0.609 0.458 0.558" stroke="hsl(180.0,100%,35%)" stroke-width="0.00231"></path>
<path d="M0.226 0.567 Q0.378 0.473 0.228 0.378" stroke="hsl(180.0,100%,35%)" stroke-width="0.00147"></path>
<path d="M0.226 0.567 Q0.599 0.588 0.722 0.410" stroke="hsl(180.0,100%,35%)" stroke-width="0.00063"></path>
<path d="M0.226 0.567 Q0.147 0.566 0.127 0.604" stroke="hsl(180.0,100%,35%)" stroke-width="0.00021"></path>
<path d="M0.226 0.567 Q0.905 0.620 1.157 0.301" stroke="hsl(180.0,100%,35%)" stroke-width="0.00042"></path>
<path d="M0.158 0.516 Q0.275 0.597 0.458 0.558" stroke="hsl(180.0,100%,35%)" stroke-width="0.06311"></path>
<path d="M0.158 0.516 Q0.303 0.461 0.228 0.378" stroke="hsl(180.0,100%,35%)" stroke-width="0.05431"></path>
<path d="M0.158 0.516 Q0.815 0.534 0.994 0.217" stroke="hsl(180.0,100%,35%)" stroke-width="0.00629"></path>
<path d="M0.158 0.516 Q0.151 0.555 0.226 0.567" stroke="hsl(180.0,100%,35%)" stroke-width="0.01426"></path>
<path d="M0.158 0.516 Q0.072 0.554 0.127 0.604" stroke="hsl(180.0,100%,35%)" stroke-width="0.00084"></path>
<path d="M0.158 0.516 Q0.066 0.718 0.440 0.807" stroke="hsl(180.0,100%,35%)" stroke-width="0.01195"></path>
<path d="M0.158 0.516 Q-0.056 0.765 0.383 0.924" stroke="hsl(180.0,100%,35%)" stroke-width="0.00021"></path>
<path d="M0.158 0.516 Q0.771 0.621 1.112 0.345" stroke="hsl(180.0,100%,35%)" stroke-width="0.00105"></path>
<path d="M0.158 0.516 Q0.524 0.576 0.722 0.410" stroke="hsl(180.0,100%,35%)" stroke-width="0.00210"></path>
<path d="M0.158 0.516 Q0.220 0.431 0.068 0.382" stroke="hsl(180.0,100%,35%)" stroke-width="0.00021"></path>
<path d="M0.158 0.516 Q0.957 0.452 1.007 0.048" stroke="hsl(180.0,100%,35%)" stroke-width="0.00021"></path>
<path d="M0.158 0.516 Q0.830 0.608 1.157 0.301" stroke="hsl(180.0,100%,35%)" stroke-width="0.00042"></path>
<path d="M0.158 0.516 Q0.771 0.420 0.719 0.100" stroke="hsl(180.0,100%,35%)" stroke-width="0.00021"></path>
<path d="M0.158 0.516 Q0.232 0.821 0.843 0.852" stroke="hsl(180.0,100%,35%)" stroke-width="0.00021"></path>
<path d="M0.228 0.378 Q0.083 0.433 0.158 0.516" stroke="hsl(180.0,100%,35%)" stroke-width="0.04990"></path>
<path d="M0.228 0.378 Q0.461 0.611 0.966 0.549" stroke="hsl(180.0,100%,35%)" stroke-width="0.00021"></path>
<path d="M0.228 0.378 Q0.200 0.514 0.458 0.558" stroke="hsl(180.0,100%,35%)" stroke-width="0.02306"></path>
<path d="M0.228 0.378 Q0.449 0.493 0.722 0.410" stroke="hsl(180.0,100%,35%)" stroke-width="0.00671"></path>
<path d="M0.228 0.378 Q0.740 0.451 0.994 0.217" stroke="hsl(180.0,100%,35%)" stroke-width="0.00147"></path>
<path d="M0.228 0.378 Q-0.365 0.980 0.679 1.401" stroke="hsl(180.0,100%,35%)" stroke-width="0.00021"></path>
<path d="M0.228 0.378 Q-0.008 0.635 0.440 0.807" stroke="hsl(180.0,100%,35%)" stroke-width="0.00105"></path>
<path d="M0.228 0.378 Q0.076 0.472 0.226 0.567" stroke="hsl(180.0,100%,35%)" stroke-width="0.00105"></path>
<path d="M0.228 0.378 Q0.554 0.407 0.682 0.254" stroke="hsl(180.0,100%,35%)" stroke-width="0.00021"></path>
<path d="M0.228 0.378 Q0.882 0.369 1.007 0.048" stroke="hsl(180.0,100%,35%)" stroke-width="0.00063"></path>
<path d="M0.722 0.410 Q0.356 0.350 0.158 0.516" stroke="hsl(180.0,100%,35%)" stroke-width="0.00377"></path>
<path d="M0.722 0.410 Q0.264 0.552 0.440 0.807" stroke="hsl(180.0,100%,35%)" stroke-width="0.00042"></path>
<path d="M0.722 0.410 Q0.501 0.296 0.228 0.378" stroke="hsl(180.0,100%,35%)" stroke-width="0.00252"></path>
<path d="M0.722 0.410 Q1.027 0.443 1.157 0.301" stroke="hsl(180.0,100%,35%)" stroke-width="0.00021"></path>
<path d="M0.722 0.410 Q1.155 0.286 1.007 0.048" stroke="hsl(180.0,100%,35%)" stroke-width="0.00021"></path>
<path d="M0.722 0.410 Q0.472 0.431 0.458 0.558" stroke="hsl(180.0,100%,35%)" stroke-width="0.00084"></path>
<path d="M0.722 0.410 Q1.013 0.368 0.994 0.217" stroke="hsl(180.0,100%,35%)" stroke-width="0.00021"></path>
<path d="M0.722 0.410 Q0.733 0.528 0.966 0.549" stroke="hsl(180.0,100%,35%)" stroke-width="0.00042"></path>
<path d="M0.722 0.410 Q0.349 0.390 0.226 0.567" stroke="hsl(180.0,100%,35%)" stroke-width="0.00021"></path>
<path d="M0.127 0.604 Q0.213 0.566 0.158 0.516" stroke="hsl(180.0,100%,35%)" stroke-width="0.00063"></path>
<path d="M0.127 0.604 Q0.870 0.584 0.994 0.217" stroke="hsl(180.0,100%,35%)" stroke-width="0.00105"></path>
<path d="M0.127 0.604 Q0.206 0.606 0.226 0.567" stroke="hsl(180.0,100%,35%)" stroke-width="0.00021"></path>
<path d="M0.127 0.604 Q0.330 0.647 0.458 0.558" stroke="hsl(180.0,100%,35%)" stroke-width="0.00126"></path>
<path d="M0.127 0.604 Q0.358 0.512 0.228 0.378" stroke="hsl(180.0,100%,35%)" stroke-width="0.00021"></path>
<path d="M0.998 0.605 Q0.558 0.594 0.440 0.807" stroke="hsl(0.0,100%,35%)" stroke-width="0.00042"></path>
<path d="M0.998 0.605 Q0.649 0.392 0.158 0.516" stroke="hsl(0.0,100%,35%)" stroke-width="0.00042"></path>
<path d="M0.843 0.852 Q0.769 0.547 0.158 0.516" stroke="hsl(0.0,100%,35%)" stroke-width="0.00147"></path>
<path d="M0.843 0.852 Q0.678 0.749 0.440 0.807" stroke="hsl(0.0,100%,35%)" stroke-width="0.00440"></path>
<path d="M0.843 0.852 Q1.426 0.565 0.994 0.217" stroke="hsl(0.0,100%,35%)" stroke-width="0.00042"></path>
<path d="M0.843 0.852 Q1.000 0.783 0.901 0.691" stroke="hsl(0.0,100%,35%)" stroke-width="0.00021"></path>
<path d="M1.272 0.350 Q0.491 0.412 0.440 0.807" stroke="hsl(0.0,100%,35%)" stroke-width="0.00042"></path>
<path d="M1.272 0.350 Q1.254 0.303 1.157 0.301" stroke="hsl(0.0,100%,35%)" stroke-width="0.00042"></path>
<path d="M1.272 0.350 Q1.022 0.291 0.851 0.400" stroke="hsl(0.0,100%,35%)" stroke-width="0.00021"></path>
<path d="M1.272 0.350 Q1.090 0.190 0.738 0.243" stroke="hsl(0.0,100%,35%)" stroke-width="0.00021"></path>
<path d="M1.272 0.350 Q0.582 0.210 0.158 0.516" stroke="hsl(0.0,100%,35%)" stroke-width="0.00021"></path>
<path d="M1.272 0.350 Q1.239 0.228 0.994 0.217" stroke="hsl(0.0,100%,35%)" stroke-width="0.00021"></path>
<path d="M0.851 0.400 Q0.412 0.319 0.158 0.516" stroke="hsl(0.0,100%,35%)" stroke-width="0.00105"></path>
<path d="M0.851 0.400 Q1.025 0.425 1.112 0.345" stroke="hsl(0.0,100%,35%)" stroke-width="0.00356"></path>
<path d="M0.851 0.400 Q1.069 0.337 0.994 0.217" stroke="hsl(0.0,100%,35%)" stroke-width="0.00755"></path>
<path d="M0.851 0.400 Q0.919 0.299 0.738 0.243" stroke="hsl(0.0,100%,35%)" stroke-width="0.00126"></path>
<path d="M0.851 0.400 Q1.083 0.411 1.157 0.301" stroke="hsl(0.0,100%,35%)" stroke-width="0.00042"></path>
<path d="M0.851 0.400 Q0.528 0.400 0.458 0.558" stroke="hsl(0.0,100%,35%)" stroke-width="0.00063"></path>
<path d="M0.851 0.400 Q0.320 0.521 0.440 0.807" stroke="hsl(0.0,100%,35%)" stroke-width="0.00021"></path>
<path d="M0.851 0.400 Q1.211 0.255 1.007 0.048" stroke="hsl(0.0,100%,35%)" stroke-width="0.00021"></path>
<path d="M0.851 0.400 Q0.557 0.264 0.228 0.378" stroke="hsl(0.0,100%,35%)" stroke-width="0.00021"></path>
<path d="M0.738 0.243 Q0.887 0.282 0.994 0.217" stroke="hsl(0.0,100%,35%)" stroke-width="0.02055"></path>
<path d="M0.738 0.243 Q0.901 0.356 1.157 0.301" stroke="hsl(0.0,100%,35%)" stroke-width="0.00294"></path>
<path d="M0.738 0.243 Q0.138 0.465 0.440 0.807" stroke="hsl(0.0,100%,35%)" stroke-width="0.00650"></path>
<path d="M0.738 0.243 Q1.029 0.199 1.007 0.048" stroke="hsl(0.0,100%,35%)" stroke-width="0.00126"></path>
<path d="M0.738 0.243 Q0.669 0.344 0.851 0.400" stroke="hsl(0.0,100%,35%)" stroke-width="0.00168"></path>
<path d="M0.738 0.243 Q0.375 0.209 0.228 0.378" stroke="hsl(0.0,100%,35%)" stroke-width="0.00021"></path>
<path d="M0.738 0.243 Q0.230 0.264 0.158 0.516" stroke="hsl(0.0,100%,35%)" stroke-width="0.00063"></path>
<path d="M0.738 0.243 Q0.223 0.303 0.226 0.567" stroke="hsl(0.0,100%,35%)" stroke-width="0.00021"></path>
<path d="M0.738 0.243 Q0.954 0.316 1.143 0.226" stroke="hsl(0.0,100%,35%)" stroke-width="0.00021"></path>
<path d="M0.738 0.243 Q0.701 0.238 0.682 0.254" stroke="hsl(0.0,100%,35%)" stroke-width="0.00021"></path>
<path d="M1.336 0.034 Q1.018 0.057 0.994 0.217" stroke="hsl(0.0,100%,35%)" stroke-width="0.00042"></path>
<path d="M1.336 0.034 Q0.270 0.241 0.440 0.807" stroke="hsl(0.0,100%,35%)" stroke-width="0.00021"></path>
<path d="M1.336 0.034 Q1.161 -0.025 1.007 0.048" stroke="hsl(0.0,100%,35%)" stroke-width="0.00021"></path>
<path d="M1.007 0.048 Q0.865 0.130 0.994 0.217" stroke="hsl(0.0,100%,35%)" stroke-width="0.00440"></path>
<path d="M1.007 0.048 Q0.880 0.204 1.157 0.301" stroke="hsl(0.0,100%,35%)" stroke-width="0.00210"></path>
<path d="M1.007 0.048 Q0.117 0.314 0.440 0.807" stroke="hsl(0.0,100%,35%)" stroke-width="0.00063"></path>
<path d="M1.007 0.048 Q0.201 0.151 0.226 0.567" stroke="hsl(0.0,100%,35%)" stroke-width="0.00021"></path>
<path d="M1.007 0.048 Q0.574 0.172 0.722 0.410" stroke="hsl(0.0,100%,35%)" stroke-width="0.00021"></path>
<path d="M1.007 0.048 Q0.716 0.092 0.738 0.243" stroke="hsl(0.0,100%,35%)" stroke-width="0.00042"></path>
<path d="M0.383 0.924 Q0.506 0.877 0.440 0.807" stroke="hsl(0.0,100%,35%)" stroke-width="0.02055"></path>
<path d="M0.383 0.924 Q1.254 0.693 0.994 0.217" stroke="hsl(0.0,100%,35%)" stroke-width="0.01677"></path>
<path d="M0.383 0.924 Q0.498 0.982 0.635 0.939" stroke="hsl(0.0,100%,35%)" stroke-width="0.00042"></path>
<path d="M0.383 0.924 Q1.269 0.767 1.157 0.301" stroke="hsl(0.0,100%,35%)" stroke-width="0.00021"></path>
<path d="M0.383 0.924 Q0.598 0.675 0.158 0.516" stroke="hsl(0.0,100%,35%)" stroke-width="0.00482"></path>
<path d="M0.383 0.924 Q0.743 0.620 0.228 0.378" stroke="hsl(0.0,100%,35%)" stroke-width="0.00042"></path>
<path d="M0.383 0.924 Q1.425 0.705 1.226 0.149" stroke="hsl(0.0,100%,35%)" stroke-width="0.00105"></path>
<path d="M0.383 0.924 Q0.714 0.756 0.458 0.558" stroke="hsl(0.0,100%,35%)" stroke-width="0.00021"></path>
<path d="M0.383 0.924 Q1.233 0.603 0.792 0.118" stroke="hsl(0.0,100%,35%)" stroke-width="0.00021"></path>
<path d="M0.383 0.924 Q0.964 0.735 0.722 0.410" stroke="hsl(0.0,100%,35%)" stroke-width="0.00105"></path>
<path d="M0.383 0.924 Q1.397 0.611 1.007 0.048" stroke="hsl(0.0,100%,35%)" stroke-width="0.00042"></path>
<path d="M0.383 0.924 Q0.511 0.713 0.127 0.604" stroke="hsl(0.0,100%,35%)" stroke-width="0.00021"></path>
<path d="M0.383 0.924 Q1.105 0.655 0.738 0.243" stroke="hsl(0.0,100%,35%)" stroke-width="0.00021"></path>
<path d="M1.112 0.345 Q1.156 0.258 0.994 0.217" stroke="hsl(0.0,100%,35%)" stroke-width="0.00566"></path>
<path d="M1.112 0.345 Q1.006 0.220 0.738 0.243" stroke="hsl(0.0,100%,35%)" stroke-width="0.00042"></path>
<path d="M1.112 0.345 Q0.499 0.240 0.158 0.516" stroke="hsl(0.0,100%,35%)" stroke-width="0.00189"></path>
<path d="M1.112 0.345 Q0.407 0.442 0.440 0.807" stroke="hsl(0.0,100%,35%)" stroke-width="0.00105"></path>
<path d="M1.112 0.345 Q0.615 0.321 0.458 0.558" stroke="hsl(0.0,100%,35%)" stroke-width="0.00147"></path>
<path d="M1.112 0.345 Q1.170 0.332 1.157 0.301" stroke="hsl(0.0,100%,35%)" stroke-width="0.00021"></path>
<path d="M1.112 0.345 Q0.970 0.214 0.682 0.254" stroke="hsl(0.0,100%,35%)" stroke-width="0.00042"></path>
<path d="M1.112 0.345 Q0.938 0.320 0.851 0.400" stroke="hsl(0.0,100%,35%)" stroke-width="0.00021"></path>
<path d="M1.112 0.345 Q1.298 0.176 1.007 0.048" stroke="hsl(0.0,100%,35%)" stroke-width="0.00021"></path>
<path d="M0.790 0.654 Q0.493 0.660 0.440 0.807" stroke="hsl(0.0,100%,35%)" stroke-width="0.00524"></path>
<path d="M0.790 0.654 Q1.241 0.476 0.994 0.217" stroke="hsl(0.0,100%,35%)" stroke-width="0.00168"></path>
<path d="M0.790 0.654 Q1.092 0.438 0.738 0.243" stroke="hsl(0.0,100%,35%)" stroke-width="0.00063"></path>
<path d="M0.790 0.654 Q1.256 0.551 1.157 0.301" stroke="hsl(0.0,100%,35%)" stroke-width="0.00042"></path>
<path d="M0.759 0.739 Q1.145 0.487 0.738 0.243" stroke="hsl(0.0,100%,35%)" stroke-width="0.00021"></path>
<path d="M0.759 0.739 Q0.546 0.709 0.440 0.807" stroke="hsl(0.0,100%,35%)" stroke-width="0.00377"></path>
<path d="M0.759 0.739 Q1.294 0.525 0.994 0.217" stroke="hsl(0.0,100%,35%)" stroke-width="0.00063"></path>
<path d="M0.125 0.713 Q0.208 0.823 0.440 0.807" stroke="hsl(0.0,100%,35%)" stroke-width="0.00105"></path>
<path d="M0.125 0.713 Q0.956 0.639 0.994 0.217" stroke="hsl(0.0,100%,35%)" stroke-width="0.00084"></path>
<path d="M0.125 0.713 Q0.299 0.621 0.158 0.516" stroke="hsl(0.0,100%,35%)" stroke-width="0.00210"></path>
<path d="M0.125 0.713 Q0.444 0.567 0.228 0.378" stroke="hsl(0.0,100%,35%)" stroke-width="0.00021"></path>
<path d="M0.474 0.148 Q0.679 0.286 0.994 0.217" stroke="hsl(0.0,100%,35%)" stroke-width="0.00105"></path>
<path d="M0.474 0.148 Q-0.070 0.470 0.440 0.807" stroke="hsl(0.0,100%,35%)" stroke-width="0.00042"></path>
<path d="M0.474 0.148 Q0.693 0.361 1.157 0.301" stroke="hsl(0.0,100%,35%)" stroke-width="0.00021"></path>
<path d="M1.226 0.149 Q1.055 0.136 0.994 0.217" stroke="hsl(0.0,100%,35%)" stroke-width="0.01845"></path>
<path d="M1.226 0.149 Q0.307 0.320 0.440 0.807" stroke="hsl(0.0,100%,35%)" stroke-width="0.00839"></path>
<path d="M1.226 0.149 Q0.398 0.119 0.158 0.516" stroke="hsl(0.0,100%,35%)" stroke-width="0.00042"></path>
<path d="M1.226 0.149 Q0.906 0.098 0.738 0.243" stroke="hsl(0.0,100%,35%)" stroke-width="0.00021"></path>
<path d="M1.215 0.059 Q0.978 0.094 0.994 0.217" stroke="hsl(0.0,100%,35%)" stroke-width="0.00608"></path>
<path d="M1.215 0.059 Q1.149 0.106 1.226 0.149" stroke="hsl(0.0,100%,35%)" stroke-width="0.00021"></path>
<path d="M1.215 0.059 Q0.230 0.278 0.440 0.807" stroke="hsl(0.0,100%,35%)" stroke-width="0.00294"></path>
<path d="M1.215 0.059 Q0.829 0.056 0.738 0.243" stroke="hsl(0.0,100%,35%)" stroke-width="0.00021"></path>
<path d="M0.602 0.627 Q0.377 0.684 0.440 0.807" stroke="hsl(0.0,100%,35%)" stroke-width="0.00021"></path>
<path d="M0.602 0.627 Q1.126 0.501 0.994 0.217" stroke="hsl(0.0,100%,35%)" stroke-width="0.00021"></path>
<path d="M0.602 0.627 Q0.469 0.483 0.158 0.516" stroke="hsl(0.0,100%,35%)" stroke-width="0.00021"></path>
<path d="M0.682 0.254 Q0.868 0.298 0.994 0.217" stroke="hsl(0.0,100%,35%)" stroke-width="0.00461"></path>
<path d="M0.682 0.254 Q0.719 0.260 0.738 0.243" stroke="hsl(0.0,100%,35%)" stroke-width="0.00126"></path>
<path d="M0.682 0.254 Q0.824 0.386 1.112 0.345" stroke="hsl(0.0,100%,35%)" stroke-width="0.00126"></path>
<path d="M0.682 0.254 Q0.882 0.373 1.157 0.301" stroke="hsl(0.0,100%,35%)" stroke-width="0.00021"></path>
<path d="M0.682 0.254 Q1.010 0.216 1.007 0.048" stroke="hsl(0.0,100%,35%)" stroke-width="0.00063"></path>
<path d="M0.682 0.254 Q0.204 0.320 0.226 0.567" stroke="hsl(0.0,100%,35%)" stroke-width="0.00042"></path>
<path d="M0.682 0.254 Q0.119 0.482 0.440 0.807" stroke="hsl(0.0,100%,35%)" stroke-width="0.00042"></path>
<path d="M0.682 0.254 Q0.211 0.280 0.158 0.516" stroke="hsl(0.0,100%,35%)" stroke-width="0.00084"></path>
<path d="M0.672 0.828 Q0.573 0.771 0.440 0.807" stroke="hsl(0.0,100%,35%)" stroke-width="0.00084"></path>
<path d="M0.672 0.828 Q0.665 0.569 0.158 0.516" stroke="hsl(0.0,100%,35%)" stroke-width="0.00021"></path>
<path d="M0.672 0.828 Q1.322 0.587 0.994 0.217" stroke="hsl(0.0,100%,35%)" stroke-width="0.00042"></path>
<path d="M0.925 0.282 Q1.182 0.275 1.226 0.149" stroke="hsl(0.0,100%,35%)" stroke-width="0.00587"></path>
<path d="M0.925 0.282 Q0.263 0.447 0.440 0.807" stroke="hsl(0.0,100%,35%)" stroke-width="0.00671"></path>
<path d="M0.925 0.282 Q1.011 0.263 0.994 0.217" stroke="hsl(0.0,100%,35%)" stroke-width="0.00860"></path>
<path d="M0.925 0.282 Q0.354 0.245 0.158 0.516" stroke="hsl(0.0,100%,35%)" stroke-width="0.00021"></path>
<path d="M1.385 0.261 Q1.224 0.161 0.994 0.217" stroke="hsl(0.0,100%,35%)" stroke-width="0.00210"></path>
<path d="M1.385 0.261 Q0.476 0.345 0.440 0.807" stroke="hsl(0.0,100%,35%)" stroke-width="0.00210"></path>
<path d="M1.385 0.261 Q1.075 0.123 0.738 0.243" stroke="hsl(0.0,100%,35%)" stroke-width="0.00084"></path>
<path d="M1.385 0.261 Q0.568 0.143 0.158 0.516" stroke="hsl(0.0,100%,35%)" stroke-width="0.00063"></path>
<path d="M1.385 0.261 Q0.560 0.182 0.226 0.567" stroke="hsl(0.0,100%,35%)" stroke-width="0.00021"></path>
<path d="M1.154 0.335 Q0.512 0.226 0.158 0.516" stroke="hsl(0.0,100%,35%)" stroke-width="0.00021"></path>
<path d="M1.154 0.335 Q0.420 0.428 0.440 0.807" stroke="hsl(0.0,100%,35%)" stroke-width="0.00335"></path>
<path d="M1.154 0.335 Q1.169 0.244 0.994 0.217" stroke="hsl(0.0,100%,35%)" stroke-width="0.00335"></path>
<path d="M1.154 0.335 Q1.019 0.206 0.738 0.243" stroke="hsl(0.0,100%,35%)" stroke-width="0.00021"></path>
<path d="M0.718 0.265 Q0.608 0.206 0.470 0.247" stroke="hsl(0.0,100%,35%)" stroke-width="0.00042"></path>
<path d="M0.718 0.265 Q0.146 0.480 0.440 0.807" stroke="hsl(0.0,100%,35%)" stroke-width="0.00084"></path>
<path d="M0.718 0.265 Q0.894 0.296 0.994 0.217" stroke="hsl(0.0,100%,35%)" stroke-width="0.00063"></path>
<path d="M0.470 0.247 Q0.756 0.337 0.994 0.217" stroke="hsl(0.0,100%,35%)" stroke-width="0.00189"></path>
<path d="M0.470 0.247 Q0.008 0.521 0.440 0.807" stroke="hsl(0.0,100%,35%)" stroke-width="0.00021"></path>
<path d="M0.470 0.247 Q0.927 0.349 1.226 0.149" stroke="hsl(0.0,100%,35%)" stroke-width="0.00021"></path>
<path d="M0.394 0.628 Q0.511 0.470 0.228 0.378" stroke="hsl(180.0,100%,35%)" stroke-width="0.00021"></path>
<path d="M0.394 0.628 Q0.280 0.563 0.127 0.604" stroke="hsl(180.0,100%,35%)" stroke-width="0.00021"></path>
<path d="M0.394 0.628 Q0.366 0.525 0.158 0.516" stroke="hsl(180.0,100%,35%)" stroke-width="0.00147"></path>
<path d="M0.394 0.628 Q1.023 0.543 0.994 0.217" stroke="hsl(180.0,100%,35%)" stroke-width="0.00021"></path>
<path d="M0.394 0.628 Q0.359 0.564 0.226 0.567" stroke="hsl(180.0,100%,35%)" stroke-width="0.00021"></path>
<path d="M0.963 0.789 Q1.436 0.509 0.994 0.217" stroke="hsl(0.0,100%,35%)" stroke-width="0.00021"></path>
<path d="M0.963 0.789 Q0.565 0.741 0.383 0.924" stroke="hsl(0.0,100%,35%)" stroke-width="0.00021"></path>
<path d="M0.963 0.789 Q0.687 0.693 0.440 0.807" stroke="hsl(0.0,100%,35%)" stroke-width="0.00021"></path>
<path d="M0.792 0.118 Q0.065 0.392 0.440 0.807" stroke="hsl(0.0,100%,35%)" stroke-width="0.00294"></path>
<path d="M0.792 0.118 Q0.150 0.229 0.226 0.567" stroke="hsl(0.0,100%,35%)" stroke-width="0.00021"></path>
<path d="M0.792 0.118 Q0.814 0.208 0.994 0.217" stroke="hsl(0.0,100%,35%)" stroke-width="0.00273"></path>
<path d="M0.792 0.118 Q0.302 0.135 0.228 0.378" stroke="hsl(0.0,100%,35%)" stroke-width="0.00021"></path>
<path d="M0.792 0.118 Q0.665 0.170 0.738 0.243" stroke="hsl(0.0,100%,35%)" stroke-width="0.00021"></path>
<path d="M0.792 0.118 Q0.071 0.228 0.127 0.604" stroke="hsl(0.0,100%,35%)" stroke-width="0.00021"></path>
<path d="M0.482 0.298 Q0.146 0.342 0.158 0.516" stroke="hsl(0.0,100%,35%)" stroke-width="0.00021"></path>
<path d="M0.482 0.298 Q0.803 0.360 0.994 0.217" stroke="hsl(0.0,100%,35%)" stroke-width="0.00063"></path>
<path d="M0.482 0.298 Q0.291 0.288 0.228 0.378" stroke="hsl(0.0,100%,35%)" stroke-width="0.00084"></path>
<path d="M0.735 0.073 Q0.000 0.381 0.440 0.807" stroke="hsl(0.0,100%,35%)" stroke-width="0.00189"></path>
<path d="M0.735 0.073 Q0.749 0.197 0.994 0.217" stroke="hsl(0.0,100%,35%)" stroke-width="0.00210"></path>
<path d="M0.735 0.073 Q0.175 0.311 0.518 0.636" stroke="hsl(0.0,100%,35%)" stroke-width="0.00021"></path>
<path d="M0.128 0.653 Q0.166 0.628 0.127 0.604" stroke="hsl(180.0,100%,35%)" stroke-width="0.00021"></path>
<path d="M0.128 0.653 Q0.369 0.671 0.458 0.558" stroke="hsl(180.0,100%,35%)" stroke-width="0.00021"></path>
<path d="M0.128 0.653 Q0.253 0.590 0.158 0.516" stroke="hsl(180.0,100%,35%)" stroke-width="0.00021"></path>
<path d="M0.128 0.653 Q0.161 0.792 0.440 0.807" stroke="hsl(180.0,100%,35%)" stroke-width="0.00021"></path>
<path d="M1.402 0.183 Q1.171 0.119 0.994 0.217" stroke="hsl(0.0,100%,35%)" stroke-width="0.00063"></path>
<path d="M1.402 0.183 Q0.422 0.303 0.440 0.807" stroke="hsl(0.0,100%,35%)" stroke-width="0.00063"></path>
<path d="M1.402 0.183 Q1.408 0.084 1.215 0.059" stroke="hsl(0.0,100%,35%)" stroke-width="0.00021"></path>
<path d="M1.019 0.455 Q1.196 0.331 0.994 0.217" stroke="hsl(0.0,100%,35%)" stroke-width="0.00252"></path>
<path d="M1.019 0.455 Q0.540 0.313 0.158 0.516" stroke="hsl(0.0,100%,35%)" stroke-width="0.00021"></path>
<path d="M1.019 0.455 Q1.211 0.405 1.157 0.301" stroke="hsl(0.0,100%,35%)" stroke-width="0.00021"></path>
<path d="M1.019 0.455 Q0.532 0.352 0.226 0.567" stroke="hsl(0.0,100%,35%)" stroke-width="0.00042"></path>
<path d="M1.019 0.455 Q0.448 0.515 0.440 0.807" stroke="hsl(0.0,100%,35%)" stroke-width="0.00021"></path>
<path d="M1.019 0.455 Q1.075 0.473 1.123 0.449" stroke="hsl(0.0,100%,35%)" stroke-width="0.00021"></path>
</g>
<text x="0.518" y="0.632" font-size="0.009295" fill="hsl(0.0,100%,20%)">albin.bernhardsson</text>
<text x="0.440" y="0.774" font-size="0.065816" fill="hsl(0.0,100%,20%)">cwallez</text>
<text x="0.458" y="0.522" font-size="0.071641" fill="hsl(180.0,100%,20%)">dsinclair</text>
<text x="1.157" y="0.288" font-size="0.025850" fill="hsl(0.0,100%,20%)">kainino</text>
<text x="0.994" y="0.180" font-size="0.075019" fill="hsl(0.0,100%,20%)">enga</text>
<text x="0.226" y="0.550" font-size="0.034780" fill="hsl(180.0,100%,20%)">amaiorano</text>
<text x="0.158" y="0.470" font-size="0.092208" fill="hsl(180.0,100%,20%)">bclayton</text>
<text x="0.228" y="0.344" font-size="0.068307" fill="hsl(180.0,100%,20%)">jrprice</text>
<text x="0.722" y="0.399" font-size="0.023638" fill="hsl(180.0,100%,20%)">dneto</text>
<text x="0.127" y="0.597" font-size="0.013787" fill="hsl(180.0,100%,20%)">rharrison</text>
<text x="0.998" y="0.602" font-size="0.004800" fill="hsl(0.0,100%,20%)">andre</text>
<text x="0.843" y="0.845" font-size="0.013995" fill="hsl(0.0,100%,20%)">arthursonzogni</text>
<text x="0.901" y="0.690" font-size="0.002400" fill="hsl(0.0,100%,20%)">khaslett</text>
<text x="1.272" y="0.347" font-size="0.006788" fill="hsl(0.0,100%,20%)">austineng</text>
<text x="0.851" y="0.388" font-size="0.023270" fill="hsl(0.0,100%,20%)">shrekshao</text>
<text x="0.738" y="0.221" font-size="0.044320" fill="hsl(0.0,100%,20%)">lokokung</text>
<text x="1.336" y="0.031" font-size="0.004800" fill="hsl(0.0,100%,20%)">avi</text>
<text x="1.007" y="0.037" font-size="0.020506" fill="hsl(0.0,100%,20%)">bajones</text>
<text x="0.383" y="0.906" font-size="0.036081" fill="hsl(0.0,100%,20%)">jiawei.shao</text>
<text x="1.112" y="0.334" font-size="0.023393" fill="hsl(0.0,100%,20%)">senorblanco</text>
<text x="0.068" y="0.381" font-size="0.002400" fill="hsl(180.0,100%,20%)">kjlubick</text>
<text x="0.719" y="0.099" font-size="0.003394" fill="hsl(0.0,100%,20%)">brucedawson</text>
<text x="0.790" y="0.646" font-size="0.014795" fill="hsl(0.0,100%,20%)">beaufort.francois</text>
<text x="0.759" y="0.734" font-size="0.011257" fill="hsl(0.0,100%,20%)">blundell</text>
<text x="0.125" y="0.708" font-size="0.010733" fill="hsl(0.0,100%,20%)">brandon1.jones</text>
<text x="0.474" y="0.144" font-size="0.007200" fill="hsl(0.0,100%,20%)">yunchao.he</text>
<text x="1.226" y="0.133" font-size="0.031385" fill="hsl(0.0,100%,20%)">penghuang</text>
<text x="1.215" y="0.050" font-size="0.017307" fill="hsl(0.0,100%,20%)">lehoangquyen</text>
<text x="0.185" y="0.794" font-size="0.002400" fill="hsl(0.0,100%,20%)">fbeaufort</text>
<text x="0.895" y="0.722" font-size="0.002400" fill="hsl(0.0,100%,20%)">jamesgk</text>
<text x="0.215" y="0.878" font-size="0.002400" fill="hsl(0.0,100%,20%)">fhorschig</text>
<text x="0.602" y="0.625" font-size="0.004157" fill="hsl(0.0,100%,20%)">danakj</text>
<text x="0.966" y="0.546" font-size="0.004157" fill="hsl(180.0,100%,20%)">alanbaker</text>
<text x="0.682" y="0.246" font-size="0.017637" fill="hsl(0.0,100%,20%)">gman</text>
<text x="0.672" y="0.825" font-size="0.006350" fill="hsl(0.0,100%,20%)">elie.michel.fr</text>
<text x="1.123" y="0.447" font-size="0.004800" fill="hsl(0.0,100%,20%)">bsheedy</text>
<text x="0.925" y="0.270" font-size="0.024358" fill="hsl(0.0,100%,20%)">jie.a.chen</text>
<text x="0.658" y="0.319" font-size="0.004157" fill="hsl(0.0,100%,20%)">toji</text>
<text x="1.385" y="0.254" font-size="0.012925" fill="hsl(0.0,100%,20%)">tiszka</text>
<text x="1.154" y="0.328" font-size="0.013995" fill="hsl(0.0,100%,20%)">hao.x.li</text>
<text x="0.718" y="0.261" font-size="0.007200" fill="hsl(0.0,100%,20%)">hitawala</text>
<text x="0.470" y="0.243" font-size="0.008654" fill="hsl(0.0,100%,20%)">sunnyps</text>
<text x="0.394" y="0.624" font-size="0.007960" fill="hsl(180.0,100%,20%)">jason.erb</text>
<text x="0.963" y="0.787" font-size="0.004157" fill="hsl(0.0,100%,20%)">jianlin.qiu</text>
<text x="0.635" y="0.937" font-size="0.003394" fill="hsl(0.0,100%,20%)">rafael.cintron</text>
<text x="0.792" y="0.111" font-size="0.013577" fill="hsl(0.0,100%,20%)">zhaoming.jiang</text>
<text x="0.482" y="0.295" font-size="0.006788" fill="hsl(0.0,100%,20%)">jojwang</text>
<text x="0.679" y="1.400" font-size="0.002400" fill="hsl(180.0,100%,20%)">johnstiles</text>
<text x="1.143" y="0.225" font-size="0.002400" fill="hsl(0.0,100%,20%)">kbr</text>
<text x="0.735" y="0.067" font-size="0.010733" fill="hsl(0.0,100%,20%)">shaobo.yan</text>
<text x="0.128" y="0.650" font-size="0.004800" fill="hsl(180.0,100%,20%)">stha09</text>
<text x="1.402" y="0.180" font-size="0.006350" fill="hsl(0.0,100%,20%)">vollick</text>
<text x="1.019" y="0.449" font-size="0.010183" fill="hsl(0.0,100%,20%)">ynovikov</text>
</svg>
