<svg width="4000" height="2000" viewBox="-0.025 -0.025 2.05 1.05" xmlns="http://www.w3.org/2000/svg">
  <style>
    path {
      fill: none;
      stroke-linecap: round;
      stroke-opacity: 0.4;
    }

    text {
      text-anchor: middle;
      alignment-baseline: hanging;
    }
  </style>
  <g opacity="0.4">
<path d="M1.952 0.572 Q1.888 0.549 1.830 0.576" stroke="hsl(0.0,100%,35%)" stroke-width="0.00145"></path>
<path d="M1.952 0.572 Q1.863 0.466 1.638 0.486" stroke="hsl(0.0,100%,35%)" stroke-width="0.00199"></path>
<path d="M1.952 0.572 Q1.952 0.450 1.714 0.423" stroke="hsl(0.0,100%,35%)" stroke-width="0.00023"></path>
<path d="M1.952 0.572 Q1.801 0.553 1.731 0.622" stroke="hsl(0.0,100%,35%)" stroke-width="0.00015"></path>
<path d="M1.830 0.576 Q1.894 0.476 1.714 0.423" stroke="hsl(0.0,100%,35%)" stroke-width="0.03935"></path>
<path d="M1.830 0.576 Q1.969 0.547 1.942 0.472" stroke="hsl(0.0,100%,35%)" stroke-width="0.04165"></path>
<path d="M1.830 0.576 Q1.961 0.452 1.748 0.361" stroke="hsl(0.0,100%,35%)" stroke-width="0.06319"></path>
<path d="M1.830 0.576 Q1.664 0.240 0.973 0.248" stroke="hsl(0.0,100%,35%)" stroke-width="0.02300"></path>
<path d="M1.830 0.576 Q1.763 0.498 1.596 0.513" stroke="hsl(0.0,100%,35%)" stroke-width="0.02789"></path>
<path d="M1.830 0.576 Q1.555 0.269 0.896 0.336" stroke="hsl(0.0,100%,35%)" stroke-width="0.00031"></path>
<path d="M1.830 0.576 Q1.652 0.364 1.199 0.404" stroke="hsl(0.0,100%,35%)" stroke-width="0.01108"></path>
<path d="M1.830 0.576 Q1.475 0.346 0.949 0.468" stroke="hsl(0.0,100%,35%)" stroke-width="0.00046"></path>
<path d="M1.830 0.576 Q1.805 0.493 1.638 0.486" stroke="hsl(0.0,100%,35%)" stroke-width="0.00382"></path>
<path d="M1.830 0.576 Q1.528 0.194 0.717 0.257" stroke="hsl(0.0,100%,35%)" stroke-width="0.00099"></path>
<path d="M1.830 0.576 Q1.806 0.344 1.348 0.304" stroke="hsl(0.0,100%,35%)" stroke-width="0.00015"></path>
<path d="M1.830 0.576 Q1.632 0.415 1.275 0.476" stroke="hsl(0.0,100%,35%)" stroke-width="0.00023"></path>
<path d="M1.830 0.576 Q1.690 0.428 1.371 0.464" stroke="hsl(0.0,100%,35%)" stroke-width="0.00053"></path>
<path d="M1.830 0.576 Q1.743 0.579 1.731 0.622" stroke="hsl(0.0,100%,35%)" stroke-width="0.00015"></path>
<path d="M1.830 0.576 Q1.663 0.585 1.645 0.668" stroke="hsl(0.0,100%,35%)" stroke-width="0.00015"></path>
<path d="M1.638 0.486 Q1.485 0.357 1.199 0.404" stroke="hsl(0.0,100%,35%)" stroke-width="0.00779"></path>
<path d="M1.638 0.486 Q1.794 0.446 1.748 0.361" stroke="hsl(0.0,100%,35%)" stroke-width="0.00672"></path>
<path d="M1.638 0.486 Q1.662 0.569 1.830 0.576" stroke="hsl(0.0,100%,35%)" stroke-width="0.00657"></path>
<path d="M1.638 0.486 Q1.802 0.540 1.942 0.472" stroke="hsl(0.0,100%,35%)" stroke-width="0.00145"></path>
<path d="M1.638 0.486 Q1.726 0.470 1.714 0.423" stroke="hsl(0.0,100%,35%)" stroke-width="0.00069"></path>
<path d="M1.638 0.486 Q1.308 0.340 0.949 0.468" stroke="hsl(0.0,100%,35%)" stroke-width="0.00015"></path>
<path d="M1.638 0.486 Q1.596 0.491 1.596 0.513" stroke="hsl(0.0,100%,35%)" stroke-width="0.00183"></path>
<path d="M1.638 0.486 Q1.497 0.234 0.973 0.248" stroke="hsl(0.0,100%,35%)" stroke-width="0.00711"></path>
<path d="M1.638 0.486 Q1.727 0.592 1.952 0.572" stroke="hsl(0.0,100%,35%)" stroke-width="0.00023"></path>
<path d="M1.638 0.486 Q1.266 0.635 1.474 0.849" stroke="hsl(0.0,100%,35%)" stroke-width="0.00023"></path>
<path d="M1.638 0.486 Q1.522 0.422 1.371 0.464" stroke="hsl(0.0,100%,35%)" stroke-width="0.00015"></path>
<path d="M1.638 0.486 Q1.388 0.263 0.896 0.336" stroke="hsl(0.0,100%,35%)" stroke-width="0.00183"></path>
<path d="M1.638 0.486 Q1.262 0.647 1.492 0.866" stroke="hsl(0.0,100%,35%)" stroke-width="0.00015"></path>
<path d="M1.714 0.423 Q1.650 0.523 1.830 0.576" stroke="hsl(0.0,100%,35%)" stroke-width="0.02476"></path>
<path d="M1.714 0.423 Q1.472 0.311 1.199 0.404" stroke="hsl(0.0,100%,35%)" stroke-width="0.00298"></path>
<path d="M1.714 0.423 Q1.484 0.187 0.973 0.248" stroke="hsl(0.0,100%,35%)" stroke-width="0.00176"></path>
<path d="M1.714 0.423 Q1.789 0.494 1.942 0.472" stroke="hsl(0.0,100%,35%)" stroke-width="0.00321"></path>
<path d="M1.714 0.423 Q1.375 0.216 0.896 0.336" stroke="hsl(0.0,100%,35%)" stroke-width="0.00015"></path>
<path d="M1.714 0.423 Q1.781 0.399 1.748 0.361" stroke="hsl(0.0,100%,35%)" stroke-width="0.00313"></path>
<path d="M1.714 0.423 Q1.583 0.445 1.596 0.513" stroke="hsl(0.0,100%,35%)" stroke-width="0.00191"></path>
<path d="M1.714 0.423 Q1.626 0.440 1.638 0.486" stroke="hsl(0.0,100%,35%)" stroke-width="0.00023"></path>
<path d="M1.714 0.423 Q1.296 0.293 0.949 0.468" stroke="hsl(0.0,100%,35%)" stroke-width="0.00023"></path>
<path d="M1.731 0.622 Q1.793 0.536 1.638 0.486" stroke="hsl(0.0,100%,35%)" stroke-width="0.00031"></path>
<path d="M1.731 0.622 Q1.818 0.619 1.830 0.576" stroke="hsl(0.0,100%,35%)" stroke-width="0.00046"></path>
<path d="M1.731 0.622 Q1.882 0.641 1.952 0.572" stroke="hsl(0.0,100%,35%)" stroke-width="0.00015"></path>
<path d="M1.731 0.622 Q1.726 0.693 1.862 0.711" stroke="hsl(0.0,100%,35%)" stroke-width="0.00015"></path>
<path d="M1.731 0.622 Q1.751 0.541 1.596 0.513" stroke="hsl(0.0,100%,35%)" stroke-width="0.00015"></path>
<path d="M1.731 0.622 Q1.949 0.495 1.748 0.361" stroke="hsl(0.0,100%,35%)" stroke-width="0.00023"></path>
<path d="M1.088 0.161 Q0.961 0.181 0.973 0.248" stroke="hsl(180.0,100%,35%)" stroke-width="0.00046"></path>
<path d="M1.088 0.161 Q0.949 0.305 1.199 0.404" stroke="hsl(180.0,100%,35%)" stroke-width="0.00031"></path>
<path d="M1.088 0.161 Q1.258 0.393 1.748 0.361" stroke="hsl(180.0,100%,35%)" stroke-width="0.00015"></path>
<path d="M1.088 0.161 Q0.852 0.210 0.896 0.336" stroke="hsl(180.0,100%,35%)" stroke-width="0.00015"></path>
<path d="M0.973 0.248 Q1.139 0.583 1.830 0.576" stroke="hsl(180.0,100%,35%)" stroke-width="0.01536"></path>
<path d="M0.973 0.248 Q1.270 0.459 1.748 0.361" stroke="hsl(180.0,100%,35%)" stroke-width="0.00252"></path>
<path d="M0.973 0.248 Q1.088 0.331 1.276 0.294" stroke="hsl(180.0,100%,35%)" stroke-width="0.00848"></path>
<path d="M0.973 0.248 Q0.961 0.371 1.199 0.404" stroke="hsl(180.0,100%,35%)" stroke-width="0.05624"></path>
<path d="M0.973 0.248 Q0.838 0.201 0.717 0.257" stroke="hsl(180.0,100%,35%)" stroke-width="0.01246"></path>
<path d="M0.973 0.248 Q0.997 0.111 0.736 0.069" stroke="hsl(180.0,100%,35%)" stroke-width="0.00015"></path>
<path d="M0.973 0.248 Q0.864 0.276 0.896 0.336" stroke="hsl(180.0,100%,35%)" stroke-width="0.01933"></path>
<path d="M0.973 0.248 Q0.785 0.353 0.949 0.468" stroke="hsl(180.0,100%,35%)" stroke-width="0.00443"></path>
<path d="M0.973 0.248 Q1.203 0.484 1.714 0.423" stroke="hsl(180.0,100%,35%)" stroke-width="0.00031"></path>
<path d="M0.973 0.248 Q1.123 0.361 1.377 0.313" stroke="hsl(180.0,100%,35%)" stroke-width="0.00031"></path>
<path d="M0.973 0.248 Q0.721 0.344 0.855 0.488" stroke="hsl(180.0,100%,35%)" stroke-width="0.00023"></path>
<path d="M0.973 0.248 Q0.697 0.320 0.777 0.470" stroke="hsl(180.0,100%,35%)" stroke-width="0.00015"></path>
<path d="M0.973 0.248 Q0.815 0.265 0.813 0.346" stroke="hsl(180.0,100%,35%)" stroke-width="0.00092"></path>
<path d="M0.973 0.248 Q0.980 0.420 1.317 0.454" stroke="hsl(180.0,100%,35%)" stroke-width="0.00038"></path>
<path d="M0.973 0.248 Q1.046 0.316 1.196 0.296" stroke="hsl(180.0,100%,35%)" stroke-width="0.00015"></path>
<path d="M0.973 0.248 Q1.278 0.554 1.942 0.472" stroke="hsl(180.0,100%,35%)" stroke-width="0.00031"></path>
<path d="M0.973 0.248 Q1.115 0.500 1.638 0.486" stroke="hsl(180.0,100%,35%)" stroke-width="0.00138"></path>
<path d="M0.973 0.248 Q0.682 0.294 0.709 0.447" stroke="hsl(180.0,100%,35%)" stroke-width="0.00023"></path>
<path d="M0.973 0.248 Q0.690 0.278 0.687 0.423" stroke="hsl(180.0,100%,35%)" stroke-width="0.00023"></path>
<path d="M0.973 0.248 Q1.056 0.308 1.191 0.280" stroke="hsl(180.0,100%,35%)" stroke-width="0.00382"></path>
<path d="M0.973 0.248 Q0.758 0.262 0.740 0.371" stroke="hsl(180.0,100%,35%)" stroke-width="0.00046"></path>
<path d="M0.973 0.248 Q1.073 0.505 1.596 0.513" stroke="hsl(180.0,100%,35%)" stroke-width="0.00061"></path>
<path d="M0.973 0.248 Q1.146 0.315 1.314 0.245" stroke="hsl(180.0,100%,35%)" stroke-width="0.00023"></path>
<path d="M0.973 0.248 Q1.095 0.155 0.940 0.075" stroke="hsl(180.0,100%,35%)" stroke-width="0.00069"></path>
<path d="M0.973 0.248 Q0.711 0.190 0.541 0.305" stroke="hsl(180.0,100%,35%)" stroke-width="0.00015"></path>
<path d="M0.973 0.248 Q0.906 0.427 1.242 0.500" stroke="hsl(180.0,100%,35%)" stroke-width="0.00015"></path>
<path d="M1.199 0.404 Q1.326 0.364 1.276 0.294" stroke="hsl(180.0,100%,35%)" stroke-width="0.01383"></path>
<path d="M1.199 0.404 Q1.102 0.309 0.896 0.336" stroke="hsl(180.0,100%,35%)" stroke-width="0.01551"></path>
<path d="M1.199 0.404 Q1.211 0.281 0.973 0.248" stroke="hsl(180.0,100%,35%)" stroke-width="0.02972"></path>
<path d="M1.199 0.404 Q1.218 0.453 1.317 0.454" stroke="hsl(180.0,100%,35%)" stroke-width="0.00206"></path>
<path d="M1.199 0.404 Q1.441 0.517 1.714 0.423" stroke="hsl(180.0,100%,35%)" stroke-width="0.00053"></path>
<path d="M1.199 0.404 Q1.023 0.386 0.949 0.468" stroke="hsl(180.0,100%,35%)" stroke-width="0.00222"></path>
<path d="M1.199 0.404 Q1.508 0.492 1.748 0.361" stroke="hsl(180.0,100%,35%)" stroke-width="0.00153"></path>
<path d="M1.199 0.404 Q1.377 0.616 1.830 0.576" stroke="hsl(180.0,100%,35%)" stroke-width="0.00535"></path>
<path d="M1.199 0.404 Q0.959 0.377 0.855 0.488" stroke="hsl(180.0,100%,35%)" stroke-width="0.00023"></path>
<path d="M1.199 0.404 Q1.516 0.587 1.942 0.472" stroke="hsl(180.0,100%,35%)" stroke-width="0.00061"></path>
<path d="M1.199 0.404 Q1.361 0.394 1.377 0.313" stroke="hsl(180.0,100%,35%)" stroke-width="0.00023"></path>
<path d="M1.199 0.404 Q1.039 0.415 1.024 0.495" stroke="hsl(180.0,100%,35%)" stroke-width="0.00031"></path>
<path d="M1.199 0.404 Q1.076 0.234 0.717 0.257" stroke="hsl(180.0,100%,35%)" stroke-width="0.00565"></path>
<path d="M1.199 0.404 Q1.294 0.340 1.191 0.280" stroke="hsl(180.0,100%,35%)" stroke-width="0.00344"></path>
<path d="M1.199 0.404 Q1.353 0.533 1.638 0.486" stroke="hsl(180.0,100%,35%)" stroke-width="0.00053"></path>
<path d="M1.199 0.404 Q1.322 0.363 1.269 0.294" stroke="hsl(180.0,100%,35%)" stroke-width="0.00023"></path>
<path d="M1.199 0.404 Q1.296 0.461 1.429 0.427" stroke="hsl(180.0,100%,35%)" stroke-width="0.00015"></path>
<path d="M1.199 0.404 Q1.045 0.453 1.106 0.539" stroke="hsl(180.0,100%,35%)" stroke-width="0.00023"></path>
<path d="M1.199 0.404 Q0.920 0.327 0.709 0.447" stroke="hsl(180.0,100%,35%)" stroke-width="0.00015"></path>
<path d="M1.199 0.404 Q1.521 0.345 1.477 0.176" stroke="hsl(180.0,100%,35%)" stroke-width="0.00031"></path>
<path d="M1.199 0.404 Q0.949 0.223 0.541 0.305" stroke="hsl(180.0,100%,35%)" stroke-width="0.00053"></path>
<path d="M1.199 0.404 Q1.053 0.298 0.813 0.346" stroke="hsl(180.0,100%,35%)" stroke-width="0.00038"></path>
<path d="M1.199 0.404 Q0.858 0.492 0.955 0.678" stroke="hsl(180.0,100%,35%)" stroke-width="0.00015"></path>
<path d="M1.748 0.361 Q1.617 0.485 1.830 0.576" stroke="hsl(0.0,100%,35%)" stroke-width="0.04982"></path>
<path d="M1.748 0.361 Q1.681 0.385 1.714 0.423" stroke="hsl(0.0,100%,35%)" stroke-width="0.00489"></path>
<path d="M1.748 0.361 Q1.316 0.102 0.717 0.257" stroke="hsl(0.0,100%,35%)" stroke-width="0.00038"></path>
<path d="M1.748 0.361 Q1.756 0.455 1.942 0.472" stroke="hsl(0.0,100%,35%)" stroke-width="0.00871"></path>
<path d="M1.748 0.361 Q1.451 0.149 0.973 0.248" stroke="hsl(0.0,100%,35%)" stroke-width="0.00680"></path>
<path d="M1.748 0.361 Q1.592 0.402 1.638 0.486" stroke="hsl(0.0,100%,35%)" stroke-width="0.00894"></path>
<path d="M1.748 0.361 Q1.439 0.273 1.199 0.404" stroke="hsl(0.0,100%,35%)" stroke-width="0.00145"></path>
<path d="M1.748 0.361 Q1.342 0.178 0.896 0.336" stroke="hsl(0.0,100%,35%)" stroke-width="0.00038"></path>
<path d="M1.748 0.361 Q1.550 0.406 1.596 0.513" stroke="hsl(0.0,100%,35%)" stroke-width="0.02483"></path>
<path d="M1.748 0.361 Q1.263 0.255 0.949 0.468" stroke="hsl(0.0,100%,35%)" stroke-width="0.00015"></path>
<path d="M1.748 0.361 Q1.477 0.337 1.371 0.464" stroke="hsl(0.0,100%,35%)" stroke-width="0.00436"></path>
<path d="M0.896 0.336 Q1.005 0.307 0.973 0.248" stroke="hsl(180.0,100%,35%)" stroke-width="0.00344"></path>
<path d="M0.896 0.336 Q1.120 0.391 1.276 0.294" stroke="hsl(180.0,100%,35%)" stroke-width="0.00138"></path>
<path d="M0.896 0.336 Q0.993 0.431 1.199 0.404" stroke="hsl(180.0,100%,35%)" stroke-width="0.00390"></path>
<path d="M0.896 0.336 Q1.171 0.642 1.830 0.576" stroke="hsl(180.0,100%,35%)" stroke-width="0.00015"></path>
<path d="M0.896 0.336 Q1.088 0.367 1.191 0.280" stroke="hsl(180.0,100%,35%)" stroke-width="0.00015"></path>
<path d="M0.896 0.336 Q0.817 0.413 0.949 0.468" stroke="hsl(180.0,100%,35%)" stroke-width="0.00015"></path>
<path d="M0.896 0.336 Q1.146 0.560 1.638 0.486" stroke="hsl(180.0,100%,35%)" stroke-width="0.00023"></path>
<path d="M0.896 0.336 Q1.302 0.519 1.748 0.361" stroke="hsl(180.0,100%,35%)" stroke-width="0.00023"></path>
<path d="M0.738 0.026 Q0.666 0.307 1.199 0.404" stroke="hsl(180.0,100%,35%)" stroke-width="0.00031"></path>
<path d="M0.738 0.026 Q0.679 0.184 0.973 0.248" stroke="hsl(180.0,100%,35%)" stroke-width="0.00031"></path>
<path d="M1.526 0.059 Q1.087 0.166 1.199 0.404" stroke="hsl(180.0,100%,35%)" stroke-width="0.00031"></path>
<path d="M1.526 0.059 Q1.214 0.126 1.276 0.294" stroke="hsl(180.0,100%,35%)" stroke-width="0.00015"></path>
<path d="M1.276 0.294 Q1.149 0.333 1.199 0.404" stroke="hsl(180.0,100%,35%)" stroke-width="0.01414"></path>
<path d="M1.276 0.294 Q1.052 0.239 0.896 0.336" stroke="hsl(180.0,100%,35%)" stroke-width="0.00176"></path>
<path d="M1.276 0.294 Q1.161 0.210 0.973 0.248" stroke="hsl(180.0,100%,35%)" stroke-width="0.00397"></path>
<path d="M1.276 0.294 Q1.327 0.545 1.830 0.576" stroke="hsl(180.0,100%,35%)" stroke-width="0.00053"></path>
<path d="M1.276 0.294 Q0.973 0.315 0.949 0.468" stroke="hsl(180.0,100%,35%)" stroke-width="0.00046"></path>
<path d="M1.276 0.294 Q1.168 0.382 1.317 0.454" stroke="hsl(180.0,100%,35%)" stroke-width="0.00122"></path>
<path d="M1.942 0.472 Q1.803 0.501 1.830 0.576" stroke="hsl(0.0,100%,35%)" stroke-width="0.03851"></path>
<path d="M1.942 0.472 Q1.737 0.423 1.596 0.513" stroke="hsl(0.0,100%,35%)" stroke-width="0.00367"></path>
<path d="M1.942 0.472 Q1.867 0.402 1.714 0.423" stroke="hsl(0.0,100%,35%)" stroke-width="0.00183"></path>
<path d="M1.942 0.472 Q1.935 0.378 1.748 0.361" stroke="hsl(0.0,100%,35%)" stroke-width="0.01009"></path>
<path d="M1.942 0.472 Q1.449 0.272 0.949 0.468" stroke="hsl(0.0,100%,35%)" stroke-width="0.00031"></path>
<path d="M1.942 0.472 Q1.637 0.166 0.973 0.248" stroke="hsl(0.0,100%,35%)" stroke-width="0.00160"></path>
<path d="M1.942 0.472 Q1.625 0.290 1.199 0.404" stroke="hsl(0.0,100%,35%)" stroke-width="0.00153"></path>
<path d="M1.942 0.472 Q1.637 0.511 1.645 0.668" stroke="hsl(0.0,100%,35%)" stroke-width="0.00015"></path>
<path d="M1.942 0.472 Q1.528 0.195 0.896 0.336" stroke="hsl(0.0,100%,35%)" stroke-width="0.00031"></path>
<path d="M1.942 0.472 Q1.663 0.354 1.371 0.464" stroke="hsl(0.0,100%,35%)" stroke-width="0.00015"></path>
<path d="M1.942 0.472 Q1.779 0.418 1.638 0.486" stroke="hsl(0.0,100%,35%)" stroke-width="0.00038"></path>
<path d="M1.596 0.513 Q1.663 0.591 1.830 0.576" stroke="hsl(0.0,100%,35%)" stroke-width="0.01085"></path>
<path d="M1.596 0.513 Q1.802 0.562 1.942 0.472" stroke="hsl(0.0,100%,35%)" stroke-width="0.00504"></path>
<path d="M1.596 0.513 Q1.727 0.492 1.714 0.423" stroke="hsl(0.0,100%,35%)" stroke-width="0.00122"></path>
<path d="M1.596 0.513 Q1.496 0.600 1.645 0.668" stroke="hsl(0.0,100%,35%)" stroke-width="0.00329"></path>
<path d="M1.596 0.513 Q1.485 0.379 1.199 0.404" stroke="hsl(0.0,100%,35%)" stroke-width="0.00031"></path>
<path d="M1.596 0.513 Q1.794 0.467 1.748 0.361" stroke="hsl(0.0,100%,35%)" stroke-width="0.01949"></path>
<path d="M1.596 0.513 Q1.497 0.256 0.973 0.248" stroke="hsl(0.0,100%,35%)" stroke-width="0.00038"></path>
<path d="M1.596 0.513 Q1.638 0.508 1.638 0.486" stroke="hsl(0.0,100%,35%)" stroke-width="0.00153"></path>
<path d="M1.596 0.513 Q1.523 0.444 1.371 0.464" stroke="hsl(0.0,100%,35%)" stroke-width="0.00046"></path>
<path d="M0.949 0.468 Q1.138 0.363 0.973 0.248" stroke="hsl(180.0,100%,35%)" stroke-width="0.00397"></path>
<path d="M0.949 0.468 Q1.126 0.486 1.199 0.404" stroke="hsl(180.0,100%,35%)" stroke-width="0.00619"></path>
<path d="M0.949 0.468 Q1.029 0.391 0.896 0.336" stroke="hsl(180.0,100%,35%)" stroke-width="0.00351"></path>
<path d="M0.949 0.468 Q1.252 0.446 1.276 0.294" stroke="hsl(180.0,100%,35%)" stroke-width="0.00031"></path>
<path d="M0.949 0.468 Q1.435 0.574 1.748 0.361" stroke="hsl(180.0,100%,35%)" stroke-width="0.00015"></path>
<path d="M0.949 0.468 Q1.303 0.698 1.830 0.576" stroke="hsl(180.0,100%,35%)" stroke-width="0.00046"></path>
<path d="M0.949 0.468 Q1.144 0.535 1.317 0.454" stroke="hsl(180.0,100%,35%)" stroke-width="0.00038"></path>
<path d="M0.949 0.468 Q1.443 0.669 1.942 0.472" stroke="hsl(180.0,100%,35%)" stroke-width="0.00015"></path>
<path d="M1.811 0.424 Q1.699 0.504 1.830 0.576" stroke="hsl(0.0,100%,35%)" stroke-width="0.00015"></path>
<path d="M1.811 0.424 Q1.533 0.168 0.973 0.248" stroke="hsl(0.0,100%,35%)" stroke-width="0.00015"></path>
<path d="M0.736 0.069 Q0.712 0.206 0.973 0.248" stroke="hsl(180.0,100%,35%)" stroke-width="0.00176"></path>
<path d="M0.736 0.069 Q0.700 0.329 1.199 0.404" stroke="hsl(180.0,100%,35%)" stroke-width="0.00015"></path>
<path d="M0.736 0.069 Q0.878 0.541 1.830 0.576" stroke="hsl(180.0,100%,35%)" stroke-width="0.00053"></path>
<path d="M0.760 0.352 Q0.950 0.342 0.973 0.248" stroke="hsl(180.0,100%,35%)" stroke-width="0.00015"></path>
<path d="M0.760 0.352 Q0.841 0.371 0.896 0.336" stroke="hsl(180.0,100%,35%)" stroke-width="0.00015"></path>
<path d="M1.317 0.454 Q1.298 0.406 1.199 0.404" stroke="hsl(180.0,100%,35%)" stroke-width="0.00657"></path>
<path d="M1.317 0.454 Q1.175 0.235 0.717 0.257" stroke="hsl(180.0,100%,35%)" stroke-width="0.00153"></path>
<path d="M1.317 0.454 Q1.608 0.494 1.748 0.361" stroke="hsl(180.0,100%,35%)" stroke-width="0.00023"></path>
<path d="M1.317 0.454 Q1.615 0.588 1.942 0.472" stroke="hsl(180.0,100%,35%)" stroke-width="0.00015"></path>
<path d="M1.317 0.454 Q1.201 0.311 0.896 0.336" stroke="hsl(180.0,100%,35%)" stroke-width="0.00069"></path>
<path d="M1.317 0.454 Q1.122 0.388 0.949 0.468" stroke="hsl(180.0,100%,35%)" stroke-width="0.00015"></path>
<path d="M1.317 0.454 Q1.425 0.366 1.276 0.294" stroke="hsl(180.0,100%,35%)" stroke-width="0.00084"></path>
<path d="M1.317 0.454 Q1.476 0.617 1.830 0.576" stroke="hsl(180.0,100%,35%)" stroke-width="0.00061"></path>
<path d="M1.317 0.454 Q1.310 0.282 0.973 0.248" stroke="hsl(180.0,100%,35%)" stroke-width="0.00153"></path>
<path d="M1.317 0.454 Q1.452 0.534 1.638 0.486" stroke="hsl(180.0,100%,35%)" stroke-width="0.00015"></path>
<path d="M1.244 0.421 Q1.235 0.403 1.199 0.404" stroke="hsl(180.0,100%,35%)" stroke-width="0.00015"></path>
<path d="M0.813 0.346 Q0.959 0.452 1.199 0.404" stroke="hsl(180.0,100%,35%)" stroke-width="0.00795"></path>
<path d="M0.813 0.346 Q0.971 0.329 0.973 0.248" stroke="hsl(180.0,100%,35%)" stroke-width="0.00856"></path>
<path d="M0.813 0.346 Q0.862 0.357 0.896 0.336" stroke="hsl(180.0,100%,35%)" stroke-width="0.00283"></path>
<path d="M0.813 0.346 Q1.054 0.389 1.191 0.280" stroke="hsl(180.0,100%,35%)" stroke-width="0.00061"></path>
<path d="M0.717 0.257 Q1.018 0.639 1.830 0.576" stroke="hsl(180.0,100%,35%)" stroke-width="0.00726"></path>
<path d="M0.717 0.257 Q0.840 0.427 1.199 0.404" stroke="hsl(180.0,100%,35%)" stroke-width="0.00886"></path>
<path d="M0.717 0.257 Q1.149 0.515 1.748 0.361" stroke="hsl(180.0,100%,35%)" stroke-width="0.00053"></path>
<path d="M0.717 0.257 Q0.967 0.387 1.276 0.294" stroke="hsl(180.0,100%,35%)" stroke-width="0.00031"></path>
<path d="M0.717 0.257 Q0.680 0.437 1.024 0.495" stroke="hsl(180.0,100%,35%)" stroke-width="0.00015"></path>
<path d="M0.717 0.257 Q0.852 0.304 0.973 0.248" stroke="hsl(180.0,100%,35%)" stroke-width="0.00573"></path>
<path d="M0.717 0.257 Q0.743 0.332 0.896 0.336" stroke="hsl(180.0,100%,35%)" stroke-width="0.00099"></path>
<path d="M0.717 0.257 Q0.952 0.561 1.596 0.513" stroke="hsl(180.0,100%,35%)" stroke-width="0.00023"></path>
<path d="M0.717 0.257 Q1.157 0.610 1.942 0.472" stroke="hsl(180.0,100%,35%)" stroke-width="0.00023"></path>
<path d="M1.191 0.280 Q1.108 0.220 0.973 0.248" stroke="hsl(180.0,100%,35%)" stroke-width="0.02300"></path>
<path d="M1.191 0.280 Q1.096 0.344 1.199 0.404" stroke="hsl(180.0,100%,35%)" stroke-width="0.02086"></path>
<path d="M1.191 0.280 Q1.274 0.556 1.830 0.576" stroke="hsl(180.0,100%,35%)" stroke-width="0.00245"></path>
<path d="M1.191 0.280 Q1.223 0.304 1.276 0.294" stroke="hsl(180.0,100%,35%)" stroke-width="0.00023"></path>
<path d="M1.191 0.280 Q1.413 0.527 1.942 0.472" stroke="hsl(180.0,100%,35%)" stroke-width="0.00015"></path>
<path d="M1.191 0.280 Q0.920 0.326 0.949 0.468" stroke="hsl(180.0,100%,35%)" stroke-width="0.00031"></path>
<path d="M1.191 0.280 Q1.249 0.473 1.638 0.486" stroke="hsl(180.0,100%,35%)" stroke-width="0.00031"></path>
<path d="M1.191 0.280 Q1.207 0.478 1.596 0.513" stroke="hsl(180.0,100%,35%)" stroke-width="0.00053"></path>
<path d="M1.191 0.280 Q1.258 0.334 1.377 0.313" stroke="hsl(180.0,100%,35%)" stroke-width="0.00031"></path>
<path d="M1.191 0.280 Q1.076 0.395 1.275 0.476" stroke="hsl(180.0,100%,35%)" stroke-width="0.00015"></path>
<path d="M1.191 0.280 Q1.418 0.285 1.477 0.176" stroke="hsl(180.0,100%,35%)" stroke-width="0.00015"></path>
<path d="M1.191 0.280 Q0.999 0.249 0.896 0.336" stroke="hsl(180.0,100%,35%)" stroke-width="0.00443"></path>
<path d="M1.191 0.280 Q0.973 0.174 0.717 0.257" stroke="hsl(180.0,100%,35%)" stroke-width="0.00023"></path>
<path d="M1.191 0.280 Q0.846 0.163 0.541 0.305" stroke="hsl(180.0,100%,35%)" stroke-width="0.00023"></path>
<path d="M1.348 0.304 Q1.206 0.201 0.973 0.248" stroke="hsl(180.0,100%,35%)" stroke-width="0.00397"></path>
<path d="M1.348 0.304 Q1.194 0.324 1.199 0.404" stroke="hsl(180.0,100%,35%)" stroke-width="0.00413"></path>
<path d="M1.348 0.304 Q1.372 0.536 1.830 0.576" stroke="hsl(180.0,100%,35%)" stroke-width="0.00191"></path>
<path d="M1.348 0.304 Q1.097 0.230 0.896 0.336" stroke="hsl(180.0,100%,35%)" stroke-width="0.00122"></path>
<path d="M1.348 0.304 Q1.515 0.266 1.477 0.176" stroke="hsl(180.0,100%,35%)" stroke-width="0.00076"></path>
<path d="M1.275 0.476 Q1.306 0.302 0.973 0.248" stroke="hsl(0.0,100%,35%)" stroke-width="0.00275"></path>
<path d="M1.275 0.476 Q1.294 0.425 1.199 0.404" stroke="hsl(0.0,100%,35%)" stroke-width="0.00237"></path>
<path d="M1.275 0.476 Q1.448 0.554 1.638 0.486" stroke="hsl(0.0,100%,35%)" stroke-width="0.00023"></path>
<path d="M1.275 0.476 Q1.536 0.538 1.714 0.423" stroke="hsl(0.0,100%,35%)" stroke-width="0.00031"></path>
<path d="M1.275 0.476 Q1.472 0.637 1.830 0.576" stroke="hsl(0.0,100%,35%)" stroke-width="0.00344"></path>
<path d="M1.275 0.476 Q1.603 0.513 1.748 0.361" stroke="hsl(0.0,100%,35%)" stroke-width="0.00031"></path>
<path d="M1.275 0.476 Q1.406 0.559 1.596 0.513" stroke="hsl(0.0,100%,35%)" stroke-width="0.00015"></path>
<path d="M1.275 0.476 Q1.197 0.330 0.896 0.336" stroke="hsl(0.0,100%,35%)" stroke-width="0.00046"></path>
<path d="M1.275 0.476 Q1.389 0.361 1.191 0.280" stroke="hsl(0.0,100%,35%)" stroke-width="0.00015"></path>
<path d="M1.371 0.464 Q1.511 0.612 1.830 0.576" stroke="hsl(0.0,100%,35%)" stroke-width="0.00275"></path>
<path d="M1.371 0.464 Q1.575 0.512 1.714 0.423" stroke="hsl(0.0,100%,35%)" stroke-width="0.00115"></path>
<path d="M1.371 0.464 Q1.650 0.582 1.942 0.472" stroke="hsl(0.0,100%,35%)" stroke-width="0.00053"></path>
<path d="M1.371 0.464 Q1.236 0.305 0.896 0.336" stroke="hsl(0.0,100%,35%)" stroke-width="0.00015"></path>
<path d="M1.371 0.464 Q1.642 0.488 1.748 0.361" stroke="hsl(0.0,100%,35%)" stroke-width="0.00267"></path>
<path d="M1.371 0.464 Q1.445 0.533 1.596 0.513" stroke="hsl(0.0,100%,35%)" stroke-width="0.00130"></path>
<path d="M1.371 0.464 Q1.487 0.529 1.638 0.486" stroke="hsl(0.0,100%,35%)" stroke-width="0.00015"></path>
<path d="M0.687 0.423 Q0.971 0.393 0.973 0.248" stroke="hsl(180.0,100%,35%)" stroke-width="0.00290"></path>
<path d="M0.687 0.423 Q0.862 0.421 0.896 0.336" stroke="hsl(180.0,100%,35%)" stroke-width="0.00023"></path>
<path d="M0.687 0.423 Q0.959 0.516 1.199 0.404" stroke="hsl(180.0,100%,35%)" stroke-width="0.00130"></path>
<path d="M0.687 0.423 Q1.085 0.476 1.276 0.294" stroke="hsl(180.0,100%,35%)" stroke-width="0.00023"></path>
<path d="M0.542 0.311 Q0.808 0.366 0.973 0.248" stroke="hsl(180.0,100%,35%)" stroke-width="0.00168"></path>
<path d="M0.542 0.311 Q0.796 0.489 1.199 0.404" stroke="hsl(180.0,100%,35%)" stroke-width="0.00023"></path>
<path d="M1.477 0.176 Q1.155 0.234 1.199 0.404" stroke="hsl(180.0,100%,35%)" stroke-width="0.00069"></path>
<path d="M1.477 0.176 Q1.167 0.111 0.973 0.248" stroke="hsl(180.0,100%,35%)" stroke-width="0.00130"></path>
<path d="M1.477 0.176 Q1.058 0.140 0.896 0.336" stroke="hsl(180.0,100%,35%)" stroke-width="0.00046"></path>
<path d="M1.241 0.294 Q1.132 0.341 1.199 0.404" stroke="hsl(180.0,100%,35%)" stroke-width="0.00214"></path>
<path d="M1.241 0.294 Q1.144 0.217 0.973 0.248" stroke="hsl(180.0,100%,35%)" stroke-width="0.00229"></path>
<path d="M1.241 0.294 Q1.454 0.282 1.477 0.176" stroke="hsl(180.0,100%,35%)" stroke-width="0.00053"></path>
<path d="M1.241 0.294 Q1.035 0.246 0.896 0.336" stroke="hsl(180.0,100%,35%)" stroke-width="0.00130"></path>
<path d="M0.541 0.305 Q0.791 0.486 1.199 0.404" stroke="hsl(180.0,100%,35%)" stroke-width="0.00512"></path>
<path d="M0.541 0.305 Q0.803 0.363 0.973 0.248" stroke="hsl(180.0,100%,35%)" stroke-width="0.00497"></path>
<path d="M0.541 0.305 Q1.113 0.428 1.477 0.176" stroke="hsl(180.0,100%,35%)" stroke-width="0.00046"></path>
<path d="M0.541 0.305 Q0.694 0.392 0.896 0.336" stroke="hsl(180.0,100%,35%)" stroke-width="0.00092"></path>
<path d="M1.269 0.294 Q1.146 0.335 1.199 0.404" stroke="hsl(180.0,100%,35%)" stroke-width="0.00214"></path>
<path d="M1.269 0.294 Q1.416 0.243 1.348 0.159" stroke="hsl(180.0,100%,35%)" stroke-width="0.00015"></path>
<path d="M1.269 0.294 Q1.049 0.240 0.896 0.336" stroke="hsl(180.0,100%,35%)" stroke-width="0.00015"></path>
<path d="M0.685 0.404 Q0.845 0.412 0.896 0.336" stroke="hsl(180.0,100%,35%)" stroke-width="0.00023"></path>
<path d="M0.765 0.350 Q0.950 0.340 0.973 0.248" stroke="hsl(180.0,100%,35%)" stroke-width="0.00053"></path>
<path d="M0.765 0.350 Q0.938 0.464 1.199 0.404" stroke="hsl(180.0,100%,35%)" stroke-width="0.00023"></path>
<path d="M1.377 0.313 Q1.215 0.323 1.199 0.404" stroke="hsl(180.0,100%,35%)" stroke-width="0.00741"></path>
<path d="M1.377 0.313 Q1.227 0.200 0.973 0.248" stroke="hsl(180.0,100%,35%)" stroke-width="0.00329"></path>
<path d="M1.377 0.313 Q1.393 0.535 1.830 0.576" stroke="hsl(180.0,100%,35%)" stroke-width="0.00015"></path>
<path d="M0.855 0.488 Q1.106 0.392 0.973 0.248" stroke="hsl(180.0,100%,35%)" stroke-width="0.00107"></path>
<path d="M0.855 0.488 Q1.094 0.515 1.199 0.404" stroke="hsl(180.0,100%,35%)" stroke-width="0.00222"></path>
<path d="M1.196 0.296 Q1.111 0.351 1.199 0.404" stroke="hsl(180.0,100%,35%)" stroke-width="0.00176"></path>
<path d="M1.196 0.296 Q1.123 0.227 0.973 0.248" stroke="hsl(180.0,100%,35%)" stroke-width="0.00015"></path>
<path d="M1.196 0.296 Q1.353 0.463 1.714 0.423" stroke="hsl(180.0,100%,35%)" stroke-width="0.00015"></path>
<path d="M1.196 0.296 Q1.014 0.256 0.896 0.336" stroke="hsl(180.0,100%,35%)" stroke-width="0.00031"></path>
<path d="M1.196 0.296 Q1.289 0.563 1.830 0.576" stroke="hsl(180.0,100%,35%)" stroke-width="0.00015"></path>
<path d="M1.155 0.492 Q1.259 0.334 0.973 0.248" stroke="hsl(180.0,100%,35%)" stroke-width="0.00115"></path>
<path d="M1.155 0.492 Q1.247 0.457 1.199 0.404" stroke="hsl(180.0,100%,35%)" stroke-width="0.00084"></path>
<path d="M1.155 0.492 Q1.150 0.362 0.896 0.336" stroke="hsl(180.0,100%,35%)" stroke-width="0.00023"></path>
<path d="M0.709 0.447 Q1.000 0.400 0.973 0.248" stroke="hsl(180.0,100%,35%)" stroke-width="0.00688"></path>
<path d="M0.709 0.447 Q0.988 0.523 1.199 0.404" stroke="hsl(180.0,100%,35%)" stroke-width="0.00474"></path>
<path d="M0.709 0.447 Q0.891 0.429 0.896 0.336" stroke="hsl(180.0,100%,35%)" stroke-width="0.00092"></path>
<path d="M0.709 0.447 Q1.083 0.460 1.191 0.280" stroke="hsl(180.0,100%,35%)" stroke-width="0.00069"></path>
<path d="M0.944 0.492 Q1.142 0.499 1.199 0.404" stroke="hsl(180.0,100%,35%)" stroke-width="0.00038"></path>
<path d="M0.944 0.492 Q1.154 0.376 0.973 0.248" stroke="hsl(180.0,100%,35%)" stroke-width="0.00023"></path>
<path d="M0.944 0.492 Q1.320 0.711 1.830 0.576" stroke="hsl(180.0,100%,35%)" stroke-width="0.00015"></path>
<path d="M1.158 -0.025 Q0.931 0.134 1.191 0.280" stroke="hsl(180.0,100%,35%)" stroke-width="0.00023"></path>
<path d="M1.158 -0.025 Q0.836 0.198 1.199 0.404" stroke="hsl(180.0,100%,35%)" stroke-width="0.00031"></path>
<path d="M1.158 -0.025 Q0.848 0.075 0.973 0.248" stroke="hsl(180.0,100%,35%)" stroke-width="0.00015"></path>
<path d="M1.158 -0.025 Q1.157 0.139 1.477 0.176" stroke="hsl(180.0,100%,35%)" stroke-width="0.00015"></path>
<path d="M0.740 0.371 Q0.955 0.356 0.973 0.248" stroke="hsl(180.0,100%,35%)" stroke-width="0.00031"></path>
<path d="M1.314 0.245 Q1.142 0.178 0.973 0.248" stroke="hsl(180.0,100%,35%)" stroke-width="0.00428"></path>
<path d="M1.314 0.245 Q1.129 0.302 1.199 0.404" stroke="hsl(180.0,100%,35%)" stroke-width="0.00329"></path>
<path d="M1.314 0.245 Q1.224 0.238 1.191 0.280" stroke="hsl(180.0,100%,35%)" stroke-width="0.00015"></path>
<path d="M1.314 0.245 Q1.032 0.207 0.896 0.336" stroke="hsl(180.0,100%,35%)" stroke-width="0.00092"></path>
<path d="M1.310 0.254 Q1.444 0.395 1.748 0.361" stroke="hsl(180.0,100%,35%)" stroke-width="0.00092"></path>
<path d="M1.310 0.254 Q1.147 0.184 0.973 0.248" stroke="hsl(180.0,100%,35%)" stroke-width="0.00145"></path>
<path d="M1.310 0.254 Q1.246 0.441 1.596 0.513" stroke="hsl(180.0,100%,35%)" stroke-width="0.00038"></path>
<path d="M1.310 0.254 Q1.135 0.307 1.199 0.404" stroke="hsl(180.0,100%,35%)" stroke-width="0.00138"></path>
<path d="M1.310 0.254 Q1.230 0.243 1.191 0.280" stroke="hsl(180.0,100%,35%)" stroke-width="0.00023"></path>
<path d="M1.052 -0.235 Q0.626 -0.009 0.973 0.248" stroke="hsl(180.0,100%,35%)" stroke-width="0.00015"></path>
<path d="M1.052 -0.235 Q0.614 0.114 1.199 0.404" stroke="hsl(180.0,100%,35%)" stroke-width="0.00023"></path>
<path d="M1.046 0.101 Q0.892 0.160 0.973 0.248" stroke="hsl(180.0,100%,35%)" stroke-width="0.00053"></path>
<path d="M1.046 0.101 Q0.880 0.283 1.199 0.404" stroke="hsl(180.0,100%,35%)" stroke-width="0.00092"></path>
<path d="M1.046 0.101 Q0.783 0.188 0.896 0.336" stroke="hsl(180.0,100%,35%)" stroke-width="0.00031"></path>
<path d="M1.242 0.500 Q1.297 0.443 1.199 0.404" stroke="hsl(180.0,100%,35%)" stroke-width="0.00053"></path>
<path d="M1.242 0.500 Q1.309 0.320 0.973 0.248" stroke="hsl(180.0,100%,35%)" stroke-width="0.00084"></path>
<path d="M1.242 0.500 Q1.606 0.531 1.748 0.361" stroke="hsl(180.0,100%,35%)" stroke-width="0.00038"></path>
<path d="M1.242 0.500 Q1.200 0.348 0.896 0.336" stroke="hsl(180.0,100%,35%)" stroke-width="0.00092"></path>
<path d="M0.631 0.289 Q0.823 0.460 1.199 0.404" stroke="hsl(180.0,100%,35%)" stroke-width="0.00015"></path>
<path d="M0.631 0.289 Q0.835 0.337 0.973 0.248" stroke="hsl(180.0,100%,35%)" stroke-width="0.00031"></path>
<path d="M1.551 0.611 Q1.694 0.566 1.638 0.486" stroke="hsl(0.0,100%,35%)" stroke-width="0.00122"></path>
<path d="M1.551 0.611 Q1.553 0.314 0.973 0.248" stroke="hsl(0.0,100%,35%)" stroke-width="0.00015"></path>
<path d="M1.551 0.611 Q1.579 0.502 1.371 0.464" stroke="hsl(0.0,100%,35%)" stroke-width="0.00092"></path>
<path d="M1.551 0.611 Q1.652 0.571 1.596 0.513" stroke="hsl(0.0,100%,35%)" stroke-width="0.00451"></path>
<path d="M1.024 0.495 Q1.363 0.696 1.830 0.576" stroke="hsl(180.0,100%,35%)" stroke-width="0.00038"></path>
<path d="M1.024 0.495 Q1.312 0.445 1.276 0.294" stroke="hsl(180.0,100%,35%)" stroke-width="0.00046"></path>
<path d="M1.024 0.495 Q1.197 0.361 0.973 0.248" stroke="hsl(180.0,100%,35%)" stroke-width="0.00015"></path>
<path d="M1.024 0.495 Q1.008 0.467 0.949 0.468" stroke="hsl(180.0,100%,35%)" stroke-width="0.00038"></path>
<path d="M1.024 0.495 Q1.185 0.485 1.199 0.404" stroke="hsl(180.0,100%,35%)" stroke-width="0.00183"></path>
<path d="M1.024 0.495 Q1.061 0.314 0.717 0.257" stroke="hsl(180.0,100%,35%)" stroke-width="0.00069"></path>
<path d="M1.024 0.495 Q1.427 0.597 1.714 0.423" stroke="hsl(180.0,100%,35%)" stroke-width="0.00015"></path>
<path d="M0.451 0.139 Q0.625 0.298 0.973 0.248" stroke="hsl(180.0,100%,35%)" stroke-width="0.00031"></path>
<path d="M0.451 0.139 Q0.613 0.421 1.199 0.404" stroke="hsl(180.0,100%,35%)" stroke-width="0.00015"></path>
<path d="M1.429 0.427 Q1.494 0.359 1.377 0.313" stroke="hsl(180.0,100%,35%)" stroke-width="0.00206"></path>
<path d="M1.429 0.427 Q1.344 0.246 0.973 0.248" stroke="hsl(180.0,100%,35%)" stroke-width="0.00336"></path>
<path d="M1.429 0.427 Q1.332 0.369 1.199 0.404" stroke="hsl(180.0,100%,35%)" stroke-width="0.00413"></path>
<path d="M1.429 0.427 Q1.459 0.330 1.276 0.294" stroke="hsl(180.0,100%,35%)" stroke-width="0.00015"></path>
<path d="M1.309 0.410 Q1.258 0.385 1.199 0.404" stroke="hsl(180.0,100%,35%)" stroke-width="0.00092"></path>
<path d="M1.309 0.410 Q1.385 0.345 1.276 0.294" stroke="hsl(180.0,100%,35%)" stroke-width="0.00031"></path>
<path d="M1.309 0.410 Q1.436 0.597 1.830 0.576" stroke="hsl(180.0,100%,35%)" stroke-width="0.00023"></path>
<path d="M1.309 0.410 Q1.270 0.262 0.973 0.248" stroke="hsl(180.0,100%,35%)" stroke-width="0.00084"></path>
<path d="M1.147 0.290 Q1.082 0.358 1.199 0.404" stroke="hsl(180.0,100%,35%)" stroke-width="0.00168"></path>
<path d="M1.147 0.290 Q1.094 0.234 0.973 0.248" stroke="hsl(180.0,100%,35%)" stroke-width="0.00031"></path>
<path d="M1.147 0.290 Q1.209 0.318 1.276 0.294" stroke="hsl(180.0,100%,35%)" stroke-width="0.00015"></path>
<path d="M1.051 0.477 Q1.183 0.470 1.199 0.404" stroke="hsl(180.0,100%,35%)" stroke-width="0.00069"></path>
<path d="M1.051 0.477 Q1.195 0.347 0.973 0.248" stroke="hsl(180.0,100%,35%)" stroke-width="0.00046"></path>
<path d="M1.051 0.477 Q0.933 0.289 0.541 0.305" stroke="hsl(180.0,100%,35%)" stroke-width="0.00046"></path>
<path d="M1.051 0.477 Q1.505 0.411 1.477 0.176" stroke="hsl(180.0,100%,35%)" stroke-width="0.00015"></path>
<path d="M0.530 0.511 Q0.962 0.468 0.973 0.248" stroke="hsl(180.0,100%,35%)" stroke-width="0.00023"></path>
<path d="M1.408 0.809 Q1.627 0.565 1.199 0.404" stroke="hsl(180.0,100%,35%)" stroke-width="0.00031"></path>
<path d="M1.408 0.809 Q1.639 0.442 0.973 0.248" stroke="hsl(180.0,100%,35%)" stroke-width="0.00031"></path>
<path d="M1.408 0.809 Q1.692 0.498 1.147 0.290" stroke="hsl(180.0,100%,35%)" stroke-width="0.00015"></path>
<path d="M0.611 0.368 Q0.779 0.409 0.896 0.336" stroke="hsl(180.0,100%,35%)" stroke-width="0.00015"></path>
<path d="M1.160 0.716 Q1.583 0.697 1.638 0.486" stroke="hsl(0.0,100%,35%)" stroke-width="0.00023"></path>
<path d="M1.160 0.716 Q1.016 0.763 1.075 0.844" stroke="hsl(0.0,100%,35%)" stroke-width="0.00015"></path>
<path d="M1.645 0.277 Q1.498 0.463 1.830 0.576" stroke="hsl(0.0,100%,35%)" stroke-width="0.00084"></path>
<path d="M1.645 0.277 Q1.320 0.252 1.199 0.404" stroke="hsl(0.0,100%,35%)" stroke-width="0.00015"></path>
<path d="M1.216 0.187 Q1.046 0.169 0.973 0.248" stroke="hsl(180.0,100%,35%)" stroke-width="0.00053"></path>
<path d="M1.216 0.187 Q1.034 0.292 1.199 0.404" stroke="hsl(180.0,100%,35%)" stroke-width="0.00031"></path>
<path d="M1.216 0.187 Q0.937 0.197 0.896 0.336" stroke="hsl(180.0,100%,35%)" stroke-width="0.00031"></path>
<path d="M1.877 0.357 Q1.500 0.245 1.199 0.404" stroke="hsl(0.0,100%,35%)" stroke-width="0.00023"></path>
<path d="M1.877 0.357 Q1.817 0.428 1.942 0.472" stroke="hsl(0.0,100%,35%)" stroke-width="0.00031"></path>
<path d="M1.032 0.430 Q1.148 0.327 0.973 0.248" stroke="hsl(180.0,100%,35%)" stroke-width="0.00092"></path>
<path d="M1.032 0.430 Q1.136 0.451 1.199 0.404" stroke="hsl(180.0,100%,35%)" stroke-width="0.00076"></path>
<path d="M1.032 0.430 Q1.231 0.387 1.191 0.280" stroke="hsl(180.0,100%,35%)" stroke-width="0.00023"></path>
<path d="M0.617 0.386 Q0.905 0.388 0.973 0.248" stroke="hsl(0.0,100%,35%)" stroke-width="0.00015"></path>
<path d="M1.247 0.411 Q1.228 0.398 1.199 0.404" stroke="hsl(180.0,100%,35%)" stroke-width="0.00015"></path>
<path d="M1.247 0.411 Q1.240 0.274 0.973 0.248" stroke="hsl(180.0,100%,35%)" stroke-width="0.00015"></path>
<path d="M0.722 0.287 Q0.879 0.318 0.973 0.248" stroke="hsl(180.0,100%,35%)" stroke-width="0.00023"></path>
<path d="M0.532 0.136 Q0.663 0.280 0.973 0.248" stroke="hsl(180.0,100%,35%)" stroke-width="0.00069"></path>
<path d="M0.591 0.393 Q0.886 0.520 1.199 0.404" stroke="hsl(180.0,100%,35%)" stroke-width="0.00031"></path>
<path d="M0.591 0.393 Q0.898 0.397 0.973 0.248" stroke="hsl(180.0,100%,35%)" stroke-width="0.00046"></path>
<path d="M0.912 0.093 Q0.819 0.183 0.973 0.248" stroke="hsl(0.0,100%,35%)" stroke-width="0.00023"></path>
<path d="M0.912 0.093 Q0.960 0.435 1.638 0.486" stroke="hsl(0.0,100%,35%)" stroke-width="0.00015"></path>
<path d="M0.807 0.367 Q0.985 0.341 0.973 0.248" stroke="hsl(180.0,100%,35%)" stroke-width="0.00023"></path>
<path d="M0.807 0.367 Q0.973 0.464 1.199 0.404" stroke="hsl(180.0,100%,35%)" stroke-width="0.00023"></path>
<path d="M0.760 0.293 Q0.902 0.313 0.973 0.248" stroke="hsl(180.0,100%,35%)" stroke-width="0.00015"></path>
<path d="M0.514 0.370 Q0.841 0.401 0.973 0.248" stroke="hsl(180.0,100%,35%)" stroke-width="0.00053"></path>
<path d="M0.514 0.370 Q0.924 0.460 1.191 0.280" stroke="hsl(180.0,100%,35%)" stroke-width="0.00031"></path>
<path d="M0.514 0.370 Q0.829 0.524 1.199 0.404" stroke="hsl(180.0,100%,35%)" stroke-width="0.00015"></path>
<path d="M0.599 -0.084 Q0.603 0.216 1.191 0.280" stroke="hsl(180.0,100%,35%)" stroke-width="0.00023"></path>
<path d="M0.599 -0.084 Q0.508 0.280 1.199 0.404" stroke="hsl(180.0,100%,35%)" stroke-width="0.00015"></path>
<path d="M0.599 -0.084 Q0.520 0.156 0.973 0.248" stroke="hsl(180.0,100%,35%)" stroke-width="0.00023"></path>
<path d="M1.240 0.182 Q1.054 0.162 0.973 0.248" stroke="hsl(180.0,100%,35%)" stroke-width="0.00023"></path>
<path d="M1.240 0.182 Q1.042 0.285 1.199 0.404" stroke="hsl(180.0,100%,35%)" stroke-width="0.00023"></path>
</g>
<text x="1.952" y="0.567" font-size="0.008973" fill="hsl(0.0,100%,20%)">afdx</text>
<text x="1.830" y="0.533" font-size="0.086420" fill="hsl(0.0,100%,20%)">bclayton</text>
<text x="1.638" y="0.470" font-size="0.033200" fill="hsl(0.0,100%,20%)">rharrison</text>
<text x="1.714" y="0.403" font-size="0.041525" fill="hsl(0.0,100%,20%)">amaiorano</text>
<text x="1.731" y="0.619" font-size="0.005927" fill="hsl(0.0,100%,20%)">vasniktel</text>
<text x="1.088" y="0.159" font-size="0.004686" fill="hsl(180.0,100%,20%)">albin.bernhardsson</text>
<text x="0.973" y="0.209" font-size="0.076711" fill="hsl(180.0,100%,20%)">cwallez</text>
<text x="1.199" y="0.367" font-size="0.074729" fill="hsl(180.0,100%,20%)">enga</text>
<text x="1.748" y="0.328" font-size="0.065512" fill="hsl(0.0,100%,20%)">dsinclair</text>
<text x="0.896" y="0.317" font-size="0.037193" fill="hsl(180.0,100%,20%)">kainino</text>
<text x="0.738" y="0.024" font-size="0.003630" fill="hsl(180.0,100%,20%)">aleksi</text>
<text x="1.526" y="0.057" font-size="0.003422" fill="hsl(180.0,100%,20%)">aleksi.sapon</text>
<text x="1.276" y="0.278" font-size="0.030893" fill="hsl(180.0,100%,20%)">lokokung</text>
<text x="1.942" y="0.448" font-size="0.048244" fill="hsl(0.0,100%,20%)">jrprice</text>
<text x="1.596" y="0.490" font-size="0.046134" fill="hsl(0.0,100%,20%)">dneto</text>
<text x="1.645" y="0.664" font-size="0.008382" fill="hsl(0.0,100%,20%)">alanbaker</text>
<text x="0.949" y="0.457" font-size="0.021979" fill="hsl(180.0,100%,20%)">bajones</text>
<text x="1.845" y="0.789" font-size="0.001210" fill="hsl(0.0,100%,20%)">sugoi</text>
<text x="1.606" y="-0.060" font-size="0.001210" fill="hsl(0.0,100%,20%)">armansito</text>
<text x="1.811" y="0.423" font-size="0.002420" fill="hsl(0.0,100%,20%)">andre</text>
<text x="0.736" y="0.066" font-size="0.007259" fill="hsl(180.0,100%,20%)">arthursonzogni</text>
<text x="0.932" y="0.033" font-size="0.001210" fill="hsl(180.0,100%,20%)">khaslett</text>
<text x="0.760" y="0.350" font-size="0.003422" fill="hsl(180.0,100%,20%)">austineng</text>
<text x="1.317" y="0.445" font-size="0.018067" fill="hsl(180.0,100%,20%)">shrekshao</text>
<text x="1.244" y="0.420" font-size="0.002420" fill="hsl(180.0,100%,20%)">avi</text>
<text x="0.813" y="0.336" font-size="0.020245" fill="hsl(180.0,100%,20%)">yunchao.he</text>
<text x="0.985" y="0.478" font-size="0.001210" fill="hsl(180.0,100%,20%)">headlessclayton</text>
<text x="1.921" y="0.373" font-size="0.001711" fill="hsl(0.0,100%,20%)">brucedawson</text>
<text x="0.717" y="0.242" font-size="0.029833" fill="hsl(180.0,100%,20%)">senorblanco</text>
<text x="1.861" y="1.098" font-size="0.001210" fill="hsl(0.0,100%,20%)">kjlubick</text>
<text x="1.191" y="0.263" font-size="0.035045" fill="hsl(180.0,100%,20%)">jiawei.shao</text>
<text x="1.348" y="0.296" font-size="0.015635" fill="hsl(180.0,100%,20%)">brandon1.jones</text>
<text x="1.275" y="0.469" font-size="0.014417" fill="hsl(0.0,100%,20%)">zhaoming.jiang</text>
<text x="1.371" y="0.456" font-size="0.017110" fill="hsl(0.0,100%,20%)">sarahmashay</text>
<text x="1.862" y="0.710" font-size="0.002096" fill="hsl(0.0,100%,20%)">allydonaldson</text>
<text x="0.687" y="0.418" font-size="0.009754" fill="hsl(180.0,100%,20%)">beaufort.francois</text>
<text x="0.542" y="0.308" font-size="0.006287" fill="hsl(180.0,100%,20%)">blundell</text>
<text x="1.477" y="0.171" font-size="0.009903" fill="hsl(180.0,100%,20%)">rafael.cintron</text>
<text x="1.241" y="0.289" font-size="0.011089" fill="hsl(180.0,100%,20%)">natlee</text>
<text x="0.541" y="0.298" font-size="0.015682" fill="hsl(180.0,100%,20%)">bryan.bernhart</text>
<text x="1.269" y="0.290" font-size="0.007458" fill="hsl(180.0,100%,20%)">bsheedy</text>
<text x="1.348" y="0.158" font-size="0.001711" fill="hsl(180.0,100%,20%)">gbeaty</text>
<text x="0.878" y="0.950" font-size="0.002096" fill="hsl(180.0,100%,20%)">capn</text>
<text x="0.685" y="0.403" font-size="0.002705" fill="hsl(180.0,100%,20%)">ccameron</text>
<text x="0.765" y="0.348" font-size="0.004013" fill="hsl(180.0,100%,20%)">cjj19970505</text>
<text x="0.608" y="0.077" font-size="0.001210" fill="hsl(180.0,100%,20%)">fhorschig</text>
<text x="0.959" y="0.148" font-size="0.001210" fill="hsl(180.0,100%,20%)">jamesgk</text>
<text x="1.377" y="0.305" font-size="0.016367" fill="hsl(180.0,100%,20%)">penghuang</text>
<text x="0.855" y="0.484" font-size="0.008725" fill="hsl(180.0,100%,20%)">lehoangquyen</text>
<text x="0.777" y="0.469" font-size="0.001711" fill="hsl(180.0,100%,20%)">fbeaufort</text>
<text x="1.196" y="0.292" font-size="0.007359" fill="hsl(180.0,100%,20%)">ynovikov</text>
<text x="1.155" y="0.489" font-size="0.006736" fill="hsl(180.0,100%,20%)">hogehoge</text>
<text x="0.709" y="0.438" font-size="0.016501" fill="hsl(180.0,100%,20%)">hao.x.li</text>
<text x="0.944" y="0.490" font-size="0.004362" fill="hsl(180.0,100%,20%)">rockot</text>
<text x="1.158" y="-0.027" font-size="0.004191" fill="hsl(180.0,100%,20%)">jiajia.qin</text>
<text x="0.740" y="0.369" font-size="0.004191" fill="hsl(180.0,100%,20%)">thakis</text>
<text x="1.474" y="0.848" font-size="0.002420" fill="hsl(0.0,100%,20%)">jmadill</text>
<text x="1.314" y="0.239" font-size="0.013198" fill="hsl(180.0,100%,20%)">shaobo.yan</text>
<text x="1.900" y="1.936" font-size="0.002096" fill="hsl(0.0,100%,20%)">johnstiles</text>
<text x="1.310" y="0.250" font-size="0.009214" fill="hsl(180.0,100%,20%)">tommek</text>
<text x="0.756" y="2.603" font-size="0.001210" fill="hsl(180.0,100%,20%)">sque</text>
<text x="1.052" y="-0.237" font-size="0.003422" fill="hsl(180.0,100%,20%)">zmo</text>
<text x="0.940" y="0.073" font-size="0.003826" fill="hsl(180.0,100%,20%)">digit</text>
<text x="1.046" y="0.098" font-size="0.006049" fill="hsl(180.0,100%,20%)">hob</text>
<text x="0.765" y="0.620" font-size="0.001210" fill="hsl(180.0,100%,20%)">oshima</text>
<text x="0.842" y="0.099" font-size="0.001210" fill="hsl(180.0,100%,20%)">afakhry</text>
<text x="1.242" y="0.496" font-size="0.007458" fill="hsl(180.0,100%,20%)">idanr</text>
<text x="0.611" y="0.345" font-size="0.001711" fill="hsl(180.0,100%,20%)">tandrii</text>
<text x="1.065" y="0.162" font-size="0.002096" fill="hsl(180.0,100%,20%)">kbr</text>
<text x="0.631" y="0.287" font-size="0.003422" fill="hsl(180.0,100%,20%)">cwoffenden</text>
<text x="1.294" y="0.726" font-size="0.002096" fill="hsl(180.0,100%,20%)">danakj</text>
<text x="1.551" y="0.605" font-size="0.011478" fill="hsl(0.0,100%,20%)">dj2</text>
<text x="1.024" y="0.490" font-size="0.009603" fill="hsl(180.0,100%,20%)">gman</text>
<text x="0.451" y="0.137" font-size="0.003201" fill="hsl(180.0,100%,20%)">elie.michel.fr</text>
<text x="1.429" y="0.420" font-size="0.013848" fill="hsl(180.0,100%,20%)">jie.a.chen</text>
<text x="1.106" y="0.538" font-size="0.002096" fill="hsl(180.0,100%,20%)">toji</text>
<text x="1.309" y="0.406" font-size="0.006844" fill="hsl(180.0,100%,20%)">tiszka</text>
<text x="1.147" y="0.287" font-size="0.006950" fill="hsl(180.0,100%,20%)">sunnyps</text>
<text x="1.211" y="0.327" font-size="0.001210" fill="hsl(180.0,100%,20%)">mtklein</text>
<text x="0.955" y="0.677" font-size="0.001711" fill="hsl(180.0,100%,20%)">mehe</text>
<text x="1.051" y="0.474" font-size="0.006049" fill="hsl(180.0,100%,20%)">enrico.galli</text>
<text x="0.530" y="0.510" font-size="0.002420" fill="hsl(180.0,100%,20%)">fjhenigman</text>
<text x="1.388" y="0.797" font-size="0.003201" fill="hsl(180.0,100%,20%)">hans</text>
<text x="1.763" y="0.879" font-size="0.001210" fill="hsl(180.0,100%,20%)">hwennborg</text>
<text x="1.408" y="0.807" font-size="0.003826" fill="hsl(180.0,100%,20%)">hitawala</text>
<text x="0.611" y="0.367" font-size="0.002420" fill="hsl(180.0,100%,20%)">iannucci</text>
<text x="1.160" y="0.715" font-size="0.002964" fill="hsl(0.0,100%,20%)">jamessliu2020</text>
<text x="1.075" y="0.843" font-size="0.001711" fill="hsl(0.0,100%,20%)">paulthomson</text>
<text x="1.645" y="0.275" font-size="0.004840" fill="hsl(0.0,100%,20%)">jason.erb</text>
<text x="1.216" y="0.185" font-size="0.004686" fill="hsl(180.0,100%,20%)">jiajie.hu</text>
<text x="1.174" y="0.081" font-size="0.002096" fill="hsl(180.0,100%,20%)">jianlin.qiu</text>
<text x="1.877" y="0.355" font-size="0.003422" fill="hsl(0.0,100%,20%)">jojwang</text>
<text x="1.032" y="0.427" font-size="0.006169" fill="hsl(180.0,100%,20%)">junwei.fu</text>
<text x="1.149" y="0.096" font-size="0.001210" fill="hsl(180.0,100%,20%)">ningxin.hu</text>
<text x="1.536" y="0.389" font-size="0.002705" fill="hsl(0.0,100%,20%)">jwata</text>
<text x="0.617" y="0.384" font-size="0.002705" fill="hsl(0.0,100%,20%)">ukai</text>
<text x="1.247" y="0.409" font-size="0.003201" fill="hsl(180.0,100%,20%)">pkasting</text>
<text x="1.492" y="0.865" font-size="0.001711" fill="hsl(0.0,100%,20%)">mmoroz</text>
<text x="0.722" y="0.286" font-size="0.002705" fill="hsl(180.0,100%,20%)">stephen</text>
<text x="0.532" y="0.134" font-size="0.004527" fill="hsl(180.0,100%,20%)">stha09</text>
<text x="0.481" y="0.543" font-size="0.001711" fill="hsl(180.0,100%,20%)">svenzheng</text>
<text x="0.336" y="0.679" font-size="0.001210" fill="hsl(180.0,100%,20%)">lgrey</text>
<text x="0.591" y="0.391" font-size="0.004013" fill="hsl(180.0,100%,20%)">tangm</text>
<text x="0.912" y="0.091" font-size="0.002964" fill="hsl(0.0,100%,20%)">vadimsh</text>
<text x="0.807" y="0.365" font-size="0.003201" fill="hsl(180.0,100%,20%)">vollick</text>
<text x="0.760" y="0.291" font-size="0.002420" fill="hsl(180.0,100%,20%)">wangqing-hf</text>
<text x="0.514" y="0.367" font-size="0.004686" fill="hsl(180.0,100%,20%)">xinghua.cao</text>
<text x="0.599" y="-0.086" font-size="0.003826" fill="hsl(180.0,100%,20%)">yang.gu</text>
<text x="1.240" y="0.181" font-size="0.003201" fill="hsl(180.0,100%,20%)">yizhou.jiang</text>
</svg>
