<svg width="4000" height="2000" viewBox="-0.025 -0.025 2.05 1.05" xmlns="http://www.w3.org/2000/svg">
  <style>
    path {
      fill: none;
      stroke-linecap: round;
      stroke-opacity: 0.4;
    }

    text {
      text-anchor: middle;
      alignment-baseline: hanging;
    }
  </style>
  <g opacity="0.4">
<path d="M0.849 0.274 Q0.631 0.275 0.585 0.382" stroke="hsl(0.0,100%,35%)" stroke-width="0.00535"></path>
<path d="M0.849 0.274 Q0.795 0.388 1.007 0.439" stroke="hsl(0.0,100%,35%)" stroke-width="0.00535"></path>
<path d="M0.849 0.274 Q0.879 0.617 1.555 0.678" stroke="hsl(0.0,100%,35%)" stroke-width="0.00178"></path>
<path d="M0.849 0.274 Q0.839 0.150 0.595 0.128" stroke="hsl(0.0,100%,35%)" stroke-width="0.00178"></path>
<path d="M0.585 0.382 Q0.804 0.380 0.849 0.274" stroke="hsl(0.0,100%,35%)" stroke-width="0.03032"></path>
<path d="M0.585 0.382 Q0.833 0.724 1.555 0.678" stroke="hsl(0.0,100%,35%)" stroke-width="0.02853"></path>
<path d="M0.585 0.382 Q0.265 0.353 0.139 0.503" stroke="hsl(0.0,100%,35%)" stroke-width="0.01605"></path>
<path d="M0.585 0.382 Q0.510 0.479 0.683 0.537" stroke="hsl(0.0,100%,35%)" stroke-width="0.01783"></path>
<path d="M0.585 0.382 Q0.793 0.257 0.595 0.128" stroke="hsl(0.0,100%,35%)" stroke-width="0.01783"></path>
<path d="M0.585 0.382 Q0.936 0.529 1.301 0.390" stroke="hsl(0.0,100%,35%)" stroke-width="0.00178"></path>
<path d="M0.585 0.382 Q1.044 0.626 1.622 0.456" stroke="hsl(0.0,100%,35%)" stroke-width="0.00178"></path>
<path d="M0.585 0.382 Q0.464 0.266 0.212 0.300" stroke="hsl(0.0,100%,35%)" stroke-width="0.00178"></path>
<path d="M0.585 0.382 Q0.750 0.495 1.007 0.439" stroke="hsl(0.0,100%,35%)" stroke-width="0.01070"></path>
<path d="M1.007 0.439 Q0.849 0.598 1.124 0.710" stroke="hsl(180.0,100%,35%)" stroke-width="0.01783"></path>
<path d="M1.007 0.439 Q1.193 0.473 1.301 0.390" stroke="hsl(180.0,100%,35%)" stroke-width="0.00713"></path>
<path d="M1.007 0.439 Q1.090 0.668 1.555 0.678" stroke="hsl(180.0,100%,35%)" stroke-width="0.00357"></path>
<path d="M1.007 0.439 Q1.493 0.347 1.420 0.089" stroke="hsl(180.0,100%,35%)" stroke-width="0.00178"></path>
<path d="M1.555 0.678 Q1.307 0.336 0.585 0.382" stroke="hsl(180.0,100%,35%)" stroke-width="0.01248"></path>
<path d="M1.555 0.678 Q1.515 0.211 0.595 0.128" stroke="hsl(180.0,100%,35%)" stroke-width="0.00178"></path>
<path d="M1.555 0.678 Q1.314 0.608 1.124 0.710" stroke="hsl(180.0,100%,35%)" stroke-width="0.01070"></path>
<path d="M1.555 0.678 Q1.472 0.449 1.007 0.439" stroke="hsl(180.0,100%,35%)" stroke-width="0.01962"></path>
<path d="M1.555 0.678 Q1.948 0.478 1.645 0.243" stroke="hsl(180.0,100%,35%)" stroke-width="0.00178"></path>
<path d="M1.555 0.678 Q1.743 0.613 1.657 0.507" stroke="hsl(180.0,100%,35%)" stroke-width="0.00178"></path>
<path d="M1.555 0.678 Q1.766 0.580 1.622 0.456" stroke="hsl(180.0,100%,35%)" stroke-width="0.00178"></path>
<path d="M1.555 0.678 Q1.434 0.520 1.099 0.544" stroke="hsl(180.0,100%,35%)" stroke-width="0.00178"></path>
<path d="M1.555 0.678 Q1.776 0.447 1.374 0.289" stroke="hsl(180.0,100%,35%)" stroke-width="0.00178"></path>
<path d="M1.555 0.678 Q1.658 0.483 1.301 0.390" stroke="hsl(180.0,100%,35%)" stroke-width="0.00178"></path>
<path d="M0.595 0.128 Q0.387 0.253 0.585 0.382" stroke="hsl(0.0,100%,35%)" stroke-width="0.01070"></path>
<path d="M0.595 0.128 Q0.606 0.252 0.849 0.274" stroke="hsl(0.0,100%,35%)" stroke-width="0.00535"></path>
<path d="M0.595 0.128 Q1.028 0.395 1.645 0.243" stroke="hsl(0.0,100%,35%)" stroke-width="0.00535"></path>
<path d="M0.595 0.128 Q1.038 0.273 1.420 0.089" stroke="hsl(0.0,100%,35%)" stroke-width="0.00178"></path>
<path d="M0.595 0.128 Q0.842 0.282 1.198 0.196" stroke="hsl(0.0,100%,35%)" stroke-width="0.00178"></path>
<path d="M0.595 0.128 Q0.552 0.366 1.007 0.439" stroke="hsl(0.0,100%,35%)" stroke-width="0.00178"></path>
<path d="M0.595 0.128 Q0.635 0.595 1.555 0.678" stroke="hsl(0.0,100%,35%)" stroke-width="0.00178"></path>
<path d="M0.595 0.128 Q0.514 0.437 1.099 0.544" stroke="hsl(0.0,100%,35%)" stroke-width="0.00178"></path>
<path d="M1.622 0.456 Q1.411 0.554 1.555 0.678" stroke="hsl(180.0,100%,35%)" stroke-width="0.02318"></path>
<path d="M1.622 0.456 Q1.328 0.325 1.007 0.439" stroke="hsl(180.0,100%,35%)" stroke-width="0.00357"></path>
<path d="M1.622 0.456 Q1.627 0.554 1.818 0.573" stroke="hsl(180.0,100%,35%)" stroke-width="0.00178"></path>
<path d="M0.139 0.503 Q0.459 0.532 0.585 0.382" stroke="hsl(0.0,100%,35%)" stroke-width="0.01070"></path>
<path d="M0.139 0.503 Q0.384 0.629 0.683 0.537" stroke="hsl(0.0,100%,35%)" stroke-width="0.00713"></path>
<path d="M0.139 0.503 Q0.678 0.530 0.849 0.274" stroke="hsl(0.0,100%,35%)" stroke-width="0.00178"></path>
<path d="M1.124 0.710 Q1.282 0.551 1.007 0.439" stroke="hsl(180.0,100%,35%)" stroke-width="0.01962"></path>
<path d="M1.124 0.710 Q1.468 0.585 1.301 0.390" stroke="hsl(180.0,100%,35%)" stroke-width="0.01248"></path>
<path d="M1.124 0.710 Q1.365 0.780 1.555 0.678" stroke="hsl(180.0,100%,35%)" stroke-width="0.00713"></path>
<path d="M1.124 0.710 Q1.769 0.459 1.420 0.089" stroke="hsl(180.0,100%,35%)" stroke-width="0.00178"></path>
<path d="M1.124 0.710 Q1.117 0.438 0.585 0.382" stroke="hsl(180.0,100%,35%)" stroke-width="0.00178"></path>
<path d="M1.645 0.243 Q1.004 0.100 0.585 0.382" stroke="hsl(0.0,100%,35%)" stroke-width="0.01248"></path>
<path d="M1.645 0.243 Q1.169 0.213 1.007 0.439" stroke="hsl(0.0,100%,35%)" stroke-width="0.00357"></path>
<path d="M1.645 0.243 Q1.212 -0.025 0.595 0.128" stroke="hsl(0.0,100%,35%)" stroke-width="0.00357"></path>
<path d="M1.420 0.089 Q0.933 0.182 1.007 0.439" stroke="hsl(0.0,100%,35%)" stroke-width="0.00713"></path>
<path d="M1.420 0.089 Q1.409 0.211 1.645 0.243" stroke="hsl(0.0,100%,35%)" stroke-width="0.00892"></path>
<path d="M1.420 0.089 Q0.976 -0.057 0.595 0.128" stroke="hsl(0.0,100%,35%)" stroke-width="0.00178"></path>
<path d="M1.198 0.196 Q0.743 0.166 0.585 0.382" stroke="hsl(0.0,100%,35%)" stroke-width="0.00178"></path>
<path d="M1.198 0.196 Q0.749 0.438 1.124 0.710" stroke="hsl(0.0,100%,35%)" stroke-width="0.00178"></path>
<path d="M1.198 0.196 Q0.991 0.508 1.555 0.678" stroke="hsl(0.0,100%,35%)" stroke-width="0.00178"></path>
<path d="M1.198 0.196 Q1.384 0.309 1.645 0.243" stroke="hsl(0.0,100%,35%)" stroke-width="0.00357"></path>
<path d="M1.198 0.196 Q0.622 0.051 0.212 0.300" stroke="hsl(0.0,100%,35%)" stroke-width="0.00178"></path>
<path d="M0.441 0.524 Q0.875 0.824 1.555 0.678" stroke="hsl(180.0,100%,35%)" stroke-width="0.01962"></path>
<path d="M0.441 0.524 Q0.792 0.595 1.007 0.439" stroke="hsl(180.0,100%,35%)" stroke-width="0.01962"></path>
<path d="M0.441 0.524 Q0.627 0.482 0.585 0.382" stroke="hsl(180.0,100%,35%)" stroke-width="0.00535"></path>
<path d="M0.860 0.614 Q1.073 0.556 1.007 0.439" stroke="hsl(180.0,100%,35%)" stroke-width="0.01070"></path>
<path d="M0.860 0.614 Q1.156 0.785 1.555 0.678" stroke="hsl(180.0,100%,35%)" stroke-width="0.00892"></path>
<path d="M0.860 0.614 Q0.908 0.443 0.585 0.382" stroke="hsl(180.0,100%,35%)" stroke-width="0.00178"></path>
<path d="M0.532 0.772 Q1.119 0.930 1.555 0.678" stroke="hsl(180.0,100%,35%)" stroke-width="0.00178"></path>
<path d="M0.532 0.772 Q1.035 0.701 1.007 0.439" stroke="hsl(180.0,100%,35%)" stroke-width="0.00357"></path>
<path d="M0.532 0.772 Q0.434 0.838 0.541 0.900" stroke="hsl(180.0,100%,35%)" stroke-width="0.00178"></path>
</g>
<text x="0.849" y="0.250" font-size="0.046961" fill="hsl(0.0,100%,20%)">amaiorano</text>
<text x="0.585" y="0.337" font-size="0.089782" fill="hsl(0.0,100%,20%)">bclayton</text>
<text x="1.007" y="0.401" font-size="0.076023" fill="hsl(180.0,100%,20%)">enga</text>
<text x="1.555" y="0.637" font-size="0.080870" fill="hsl(180.0,100%,20%)">cwallez</text>
<text x="0.595" y="0.103" font-size="0.049330" fill="hsl(0.0,100%,20%)">dsinclair</text>
<text x="1.622" y="0.438" font-size="0.036998" fill="hsl(180.0,100%,20%)">arthursonzogni</text>
<text x="1.818" y="0.569" font-size="0.008720" fill="hsl(180.0,100%,20%)">khaslett</text>
<text x="0.139" y="0.484" font-size="0.038999" fill="hsl(0.0,100%,20%)">jrprice</text>
<text x="0.683" y="0.520" font-size="0.032629" fill="hsl(0.0,100%,20%)">dneto</text>
<text x="1.301" y="0.374" font-size="0.031442" fill="hsl(180.0,100%,20%)">kainino</text>
<text x="0.212" y="0.294" font-size="0.012333" fill="hsl(0.0,100%,20%)">bajones</text>
<text x="1.124" y="0.682" font-size="0.055838" fill="hsl(180.0,100%,20%)">lokokung</text>
<text x="1.645" y="0.222" font-size="0.040902" fill="hsl(0.0,100%,20%)">senorblanco</text>
<text x="1.657" y="0.503" font-size="0.008720" fill="hsl(180.0,100%,20%)">fhorschig</text>
<text x="1.099" y="0.538" font-size="0.012333" fill="hsl(180.0,100%,20%)">rharrison</text>
<text x="1.374" y="0.284" font-size="0.008720" fill="hsl(180.0,100%,20%)">blundell</text>
<text x="1.420" y="0.073" font-size="0.031442" fill="hsl(0.0,100%,20%)">shrekshao</text>
<text x="1.198" y="0.184" font-size="0.023072" fill="hsl(0.0,100%,20%)">gman</text>
<text x="0.441" y="0.502" font-size="0.043602" fill="hsl(180.0,100%,20%)">jiawei.shao</text>
<text x="0.860" y="0.598" font-size="0.030208" fill="hsl(180.0,100%,20%)">penghuang</text>
<text x="0.532" y="0.764" font-size="0.017441" fill="hsl(180.0,100%,20%)">shaobo.yan</text>
<text x="0.541" y="0.896" font-size="0.008720" fill="hsl(180.0,100%,20%)">sunnyps</text>
</svg>
