<svg width="4000" height="2000" viewBox="-0.025 -0.025 2.05 1.05" xmlns="http://www.w3.org/2000/svg">
  <style>
    path {
      fill: none;
      stroke-linecap: round;
      stroke-opacity: 0.4;
    }

    text {
      text-anchor: middle;
      alignment-baseline: hanging;
    }
  </style>
  <g opacity="0.4">
<path d="M1.268 0.508 Q1.455 0.395 1.277 0.279" stroke="hsl(0.0,100%,35%)" stroke-width="0.11055"></path>
<path d="M1.268 0.508 Q0.691 0.614 0.772 0.919" stroke="hsl(0.0,100%,35%)" stroke-width="0.01164"></path>
<path d="M1.268 0.508 Q1.258 0.335 0.920 0.303" stroke="hsl(0.0,100%,35%)" stroke-width="0.01164"></path>
<path d="M1.268 0.508 Q1.096 0.478 1.002 0.556" stroke="hsl(0.0,100%,35%)" stroke-width="0.04073"></path>
<path d="M1.268 0.508 Q1.382 0.572 1.532 0.530" stroke="hsl(0.0,100%,35%)" stroke-width="0.01746"></path>
<path d="M1.268 0.508 Q1.506 0.483 1.510 0.361" stroke="hsl(0.0,100%,35%)" stroke-width="0.00582"></path>
<path d="M0.466 0.860 Q1.149 0.844 1.268 0.508" stroke="hsl(180.0,100%,35%)" stroke-width="0.02327"></path>
<path d="M0.466 0.860 Q0.571 0.951 0.772 0.919" stroke="hsl(180.0,100%,35%)" stroke-width="0.04655"></path>
<path d="M0.466 0.860 Q1.336 0.731 1.277 0.279" stroke="hsl(180.0,100%,35%)" stroke-width="0.02327"></path>
<path d="M0.466 0.860 Q1.139 0.672 0.920 0.303" stroke="hsl(180.0,100%,35%)" stroke-width="0.00582"></path>
<path d="M0.466 0.860 Q1.387 0.819 1.510 0.361" stroke="hsl(180.0,100%,35%)" stroke-width="0.01746"></path>
<path d="M0.824 0.771 Q0.882 0.835 1.020 0.822" stroke="hsl(180.0,100%,35%)" stroke-width="0.00582"></path>
<path d="M0.824 0.771 Q0.574 0.743 0.466 0.860" stroke="hsl(180.0,100%,35%)" stroke-width="0.00582"></path>
<path d="M0.824 0.771 Q0.942 0.666 0.763 0.586" stroke="hsl(180.0,100%,35%)" stroke-width="0.00582"></path>
</g>
<text x="1.268" y="0.450" font-size="0.115470" fill="hsl(0.0,100%,20%)">bmeurer</text>
<text x="1.277" y="0.234" font-size="0.089834" fill="hsl(0.0,100%,20%)">szuend</text>
<text x="0.772" y="0.890" font-size="0.059235" fill="hsl(180.0,100%,20%)">ergunsh</text>
<text x="0.920" y="0.286" font-size="0.032444" fill="hsl(0.0,100%,20%)">kprokopenko</text>
<text x="1.002" y="0.531" font-size="0.049559" fill="hsl(0.0,100%,20%)">pfaffe</text>
<text x="1.532" y="0.514" font-size="0.032444" fill="hsl(0.0,100%,20%)">yangguo</text>
<text x="1.510" y="0.342" font-size="0.037463" fill="hsl(180.0,100%,20%)">alexrudenko</text>
<text x="0.466" y="0.817" font-size="0.085840" fill="hsl(180.0,100%,20%)">dsv</text>
<text x="0.824" y="0.755" font-size="0.032444" fill="hsl(180.0,100%,20%)">sisidovski</text>
<text x="1.020" y="0.812" font-size="0.018732" fill="hsl(180.0,100%,20%)">kouhei</text>
<text x="0.763" y="0.577" font-size="0.018732" fill="hsl(180.0,100%,20%)">yyanagisawa</text>
</svg>
