<svg width="4000" height="2000" viewBox="-0.025 -0.025 2.05 1.05" xmlns="http://www.w3.org/2000/svg">
  <style>
    path {
      fill: none;
      stroke-linecap: round;
      stroke-opacity: 0.4;
    }

    text {
      text-anchor: middle;
      alignment-baseline: hanging;
    }
  </style>
  <g opacity="0.4">
<path d="M0.375 0.412 Q0.521 0.840 1.388 0.863" stroke="hsl(0.0,100%,35%)" stroke-width="0.00045"></path>
<path d="M0.375 0.412 Q0.703 0.846 1.622 0.782" stroke="hsl(0.0,100%,35%)" stroke-width="0.00045"></path>
<path d="M0.375 0.412 Q0.332 0.547 0.585 0.597" stroke="hsl(0.0,100%,35%)" stroke-width="0.00045"></path>
<path d="M1.388 0.863 Q1.569 0.869 1.622 0.782" stroke="hsl(0.0,100%,35%)" stroke-width="0.00893"></path>
<path d="M1.388 0.863 Q1.504 0.946 1.691 0.907" stroke="hsl(0.0,100%,35%)" stroke-width="0.00223"></path>
<path d="M1.388 0.863 Q1.047 0.736 0.725 0.874" stroke="hsl(0.0,100%,35%)" stroke-width="0.00134"></path>
<path d="M1.622 0.782 Q1.556 0.858 1.691 0.907" stroke="hsl(0.0,100%,35%)" stroke-width="0.05044"></path>
<path d="M1.622 0.782 Q1.876 0.473 1.329 0.281" stroke="hsl(0.0,100%,35%)" stroke-width="0.00357"></path>
<path d="M1.622 0.782 Q1.100 0.649 0.725 0.874" stroke="hsl(0.0,100%,35%)" stroke-width="0.02098"></path>
<path d="M1.622 0.782 Q1.187 0.705 0.943 0.901" stroke="hsl(0.0,100%,35%)" stroke-width="0.00268"></path>
<path d="M1.622 0.782 Q1.745 0.299 0.831 0.133" stroke="hsl(0.0,100%,35%)" stroke-width="0.00134"></path>
<path d="M1.622 0.782 Q1.440 0.775 1.388 0.863" stroke="hsl(0.0,100%,35%)" stroke-width="0.00402"></path>
<path d="M1.622 0.782 Q1.706 0.722 1.609 0.668" stroke="hsl(0.0,100%,35%)" stroke-width="0.00179"></path>
<path d="M1.622 0.782 Q1.251 0.482 0.585 0.597" stroke="hsl(0.0,100%,35%)" stroke-width="0.00134"></path>
<path d="M1.622 0.782 Q1.045 0.484 0.337 0.700" stroke="hsl(0.0,100%,35%)" stroke-width="0.00089"></path>
<path d="M1.622 0.782 Q1.937 0.649 1.747 0.466" stroke="hsl(0.0,100%,35%)" stroke-width="0.00089"></path>
<path d="M1.622 0.782 Q1.827 0.551 1.421 0.400" stroke="hsl(0.0,100%,35%)" stroke-width="0.00089"></path>
<path d="M1.622 0.782 Q1.468 0.408 0.705 0.401" stroke="hsl(0.0,100%,35%)" stroke-width="0.00045"></path>
<path d="M1.622 0.782 Q1.554 0.265 0.532 0.185" stroke="hsl(0.0,100%,35%)" stroke-width="0.00045"></path>
<path d="M0.585 0.597 Q1.210 0.588 1.329 0.281" stroke="hsl(0.0,100%,35%)" stroke-width="0.00893"></path>
<path d="M0.585 0.597 Q0.379 0.599 0.337 0.700" stroke="hsl(0.0,100%,35%)" stroke-width="0.01964"></path>
<path d="M0.585 0.597 Q0.956 0.897 1.622 0.782" stroke="hsl(0.0,100%,35%)" stroke-width="0.00179"></path>
<path d="M0.585 0.597 Q0.677 0.509 0.526 0.445" stroke="hsl(0.0,100%,35%)" stroke-width="0.00491"></path>
<path d="M0.585 0.597 Q0.890 0.973 1.691 0.907" stroke="hsl(0.0,100%,35%)" stroke-width="0.00045"></path>
<path d="M0.585 0.597 Q0.467 0.885 1.002 1.005" stroke="hsl(0.0,100%,35%)" stroke-width="0.00179"></path>
<path d="M0.585 0.597 Q1.160 0.666 1.421 0.400" stroke="hsl(0.0,100%,35%)" stroke-width="0.00402"></path>
<path d="M0.585 0.597 Q0.499 0.871 1.014 0.973" stroke="hsl(0.0,100%,35%)" stroke-width="0.00045"></path>
<path d="M0.585 0.597 Q1.284 0.522 1.291 0.165" stroke="hsl(0.0,100%,35%)" stroke-width="0.00223"></path>
<path d="M0.585 0.597 Q0.672 0.840 1.166 0.851" stroke="hsl(0.0,100%,35%)" stroke-width="0.00312"></path>
<path d="M0.585 0.597 Q0.551 0.507 0.367 0.504" stroke="hsl(0.0,100%,35%)" stroke-width="0.00045"></path>
<path d="M0.585 0.597 Q0.888 0.381 0.532 0.185" stroke="hsl(0.0,100%,35%)" stroke-width="0.00045"></path>
<path d="M0.585 0.597 Q0.804 0.601 0.861 0.495" stroke="hsl(0.0,100%,35%)" stroke-width="0.00179"></path>
<path d="M0.585 0.597 Q1.271 0.764 1.747 0.466" stroke="hsl(0.0,100%,35%)" stroke-width="0.00089"></path>
<path d="M0.585 0.597 Q1.079 0.415 0.831 0.133" stroke="hsl(0.0,100%,35%)" stroke-width="0.00179"></path>
<path d="M0.585 0.597 Q0.319 0.777 0.612 0.947" stroke="hsl(0.0,100%,35%)" stroke-width="0.00089"></path>
<path d="M0.585 0.597 Q0.783 0.755 1.135 0.693" stroke="hsl(0.0,100%,35%)" stroke-width="0.00045"></path>
<path d="M0.585 0.597 Q0.433 0.764 0.725 0.874" stroke="hsl(0.0,100%,35%)" stroke-width="0.00045"></path>
<path d="M1.329 0.281 Q1.199 0.108 0.831 0.133" stroke="hsl(180.0,100%,35%)" stroke-width="0.00714"></path>
<path d="M1.329 0.281 Q0.704 0.290 0.585 0.597" stroke="hsl(180.0,100%,35%)" stroke-width="0.01205"></path>
<path d="M1.329 0.281 Q1.390 0.457 1.747 0.466" stroke="hsl(180.0,100%,35%)" stroke-width="0.00268"></path>
<path d="M1.329 0.281 Q1.404 0.215 1.291 0.165" stroke="hsl(180.0,100%,35%)" stroke-width="0.00446"></path>
<path d="M1.329 0.281 Q0.498 0.292 0.337 0.700" stroke="hsl(180.0,100%,35%)" stroke-width="0.01384"></path>
<path d="M1.329 0.281 Q1.008 0.074 0.532 0.185" stroke="hsl(180.0,100%,35%)" stroke-width="0.00045"></path>
<path d="M1.329 0.281 Q0.791 0.534 1.166 0.851" stroke="hsl(180.0,100%,35%)" stroke-width="0.00625"></path>
<path d="M1.329 0.281 Q1.606 0.207 1.520 0.055" stroke="hsl(180.0,100%,35%)" stroke-width="0.00045"></path>
<path d="M1.329 0.281 Q1.517 0.289 1.572 0.199" stroke="hsl(180.0,100%,35%)" stroke-width="0.01518"></path>
<path d="M1.329 0.281 Q0.586 0.578 1.002 1.005" stroke="hsl(180.0,100%,35%)" stroke-width="0.00179"></path>
<path d="M1.329 0.281 Q1.075 0.590 1.622 0.782" stroke="hsl(180.0,100%,35%)" stroke-width="0.00089"></path>
<path d="M1.329 0.281 Q1.396 0.375 1.593 0.362" stroke="hsl(180.0,100%,35%)" stroke-width="0.00089"></path>
<path d="M0.337 0.700 Q0.630 0.941 1.166 0.851" stroke="hsl(180.0,100%,35%)" stroke-width="0.00402"></path>
<path d="M0.337 0.700 Q1.168 0.689 1.329 0.281" stroke="hsl(180.0,100%,35%)" stroke-width="0.00670"></path>
<path d="M0.337 0.700 Q0.846 0.481 0.532 0.185" stroke="hsl(180.0,100%,35%)" stroke-width="0.00937"></path>
<path d="M0.337 0.700 Q1.118 0.767 1.421 0.400" stroke="hsl(180.0,100%,35%)" stroke-width="0.00045"></path>
<path d="M0.337 0.700 Q1.037 0.515 0.831 0.133" stroke="hsl(180.0,100%,35%)" stroke-width="0.00268"></path>
<path d="M0.337 0.700 Q1.242 0.623 1.291 0.165" stroke="hsl(180.0,100%,35%)" stroke-width="0.00312"></path>
<path d="M0.337 0.700 Q0.914 0.998 1.622 0.782" stroke="hsl(180.0,100%,35%)" stroke-width="0.00089"></path>
<path d="M0.337 0.700 Q0.645 0.804 0.916 0.677" stroke="hsl(180.0,100%,35%)" stroke-width="0.00045"></path>
<path d="M0.337 0.700 Q0.543 0.698 0.585 0.597" stroke="hsl(180.0,100%,35%)" stroke-width="0.00268"></path>
<path d="M0.337 0.700 Q0.312 0.790 0.483 0.822" stroke="hsl(180.0,100%,35%)" stroke-width="0.00134"></path>
<path d="M0.337 0.700 Q0.848 1.074 1.691 0.907" stroke="hsl(180.0,100%,35%)" stroke-width="0.00045"></path>
<path d="M0.337 0.700 Q1.355 0.696 1.572 0.199" stroke="hsl(180.0,100%,35%)" stroke-width="0.00045"></path>
<path d="M0.526 0.445 Q0.434 0.533 0.585 0.597" stroke="hsl(180.0,100%,35%)" stroke-width="0.00134"></path>
<path d="M0.526 0.445 Q1.133 0.458 1.291 0.165" stroke="hsl(180.0,100%,35%)" stroke-width="0.00045"></path>
<path d="M0.526 0.445 Q1.059 0.524 1.329 0.281" stroke="hsl(180.0,100%,35%)" stroke-width="0.00045"></path>
<path d="M0.526 0.445 Q0.653 0.537 0.861 0.495" stroke="hsl(180.0,100%,35%)" stroke-width="0.00045"></path>
<path d="M0.526 0.445 Q0.316 0.820 1.002 1.005" stroke="hsl(180.0,100%,35%)" stroke-width="0.00089"></path>
<path d="M0.526 0.445 Q0.928 0.350 0.831 0.133" stroke="hsl(180.0,100%,35%)" stroke-width="0.00089"></path>
<path d="M1.691 0.907 Q1.757 0.831 1.622 0.782" stroke="hsl(0.0,100%,35%)" stroke-width="0.02410"></path>
<path d="M1.691 0.907 Q1.234 0.698 0.725 0.874" stroke="hsl(0.0,100%,35%)" stroke-width="0.00982"></path>
<path d="M1.691 0.907 Q2.011 0.522 1.329 0.281" stroke="hsl(0.0,100%,35%)" stroke-width="0.00134"></path>
<path d="M1.691 0.907 Q1.880 0.348 0.831 0.133" stroke="hsl(0.0,100%,35%)" stroke-width="0.00045"></path>
<path d="M1.691 0.907 Q1.473 0.774 1.166 0.851" stroke="hsl(0.0,100%,35%)" stroke-width="0.00089"></path>
<path d="M1.691 0.907 Q2.072 0.698 1.747 0.466" stroke="hsl(0.0,100%,35%)" stroke-width="0.00045"></path>
<path d="M1.691 0.907 Q2.078 0.615 1.593 0.362" stroke="hsl(0.0,100%,35%)" stroke-width="0.00045"></path>
<path d="M1.691 0.907 Q1.584 0.689 1.135 0.693" stroke="hsl(0.0,100%,35%)" stroke-width="0.00045"></path>
<path d="M1.691 0.907 Q1.386 0.531 0.585 0.597" stroke="hsl(0.0,100%,35%)" stroke-width="0.00045"></path>
<path d="M1.691 0.907 Q1.120 0.711 0.612 0.947" stroke="hsl(0.0,100%,35%)" stroke-width="0.00045"></path>
<path d="M1.691 0.907 Q1.322 0.754 0.943 0.901" stroke="hsl(0.0,100%,35%)" stroke-width="0.00134"></path>
<path d="M1.691 0.907 Q1.268 0.818 1.002 1.005" stroke="hsl(0.0,100%,35%)" stroke-width="0.00045"></path>
<path d="M1.002 1.005 Q1.423 0.501 0.532 0.185" stroke="hsl(180.0,100%,35%)" stroke-width="0.00179"></path>
<path d="M1.002 1.005 Q1.034 0.991 1.014 0.973" stroke="hsl(180.0,100%,35%)" stroke-width="0.00045"></path>
<path d="M1.002 1.005 Q1.819 0.643 1.291 0.165" stroke="hsl(180.0,100%,35%)" stroke-width="0.00670"></path>
<path d="M1.002 1.005 Q1.207 0.961 1.166 0.851" stroke="hsl(180.0,100%,35%)" stroke-width="0.01652"></path>
<path d="M1.002 1.005 Q1.120 0.718 0.585 0.597" stroke="hsl(180.0,100%,35%)" stroke-width="0.00089"></path>
<path d="M1.002 1.005 Q1.212 0.630 0.526 0.445" stroke="hsl(180.0,100%,35%)" stroke-width="0.00045"></path>
<path d="M1.002 1.005 Q1.491 1.018 1.622 0.782" stroke="hsl(180.0,100%,35%)" stroke-width="0.00134"></path>
<path d="M1.002 1.005 Q0.968 0.884 0.725 0.874" stroke="hsl(180.0,100%,35%)" stroke-width="0.00045"></path>
<path d="M1.002 1.005 Q1.614 0.535 0.831 0.133" stroke="hsl(180.0,100%,35%)" stroke-width="0.00045"></path>
<path d="M1.002 1.005 Q1.408 0.569 0.647 0.276" stroke="hsl(180.0,100%,35%)" stroke-width="0.00045"></path>
<path d="M1.002 1.005 Q1.425 1.094 1.691 0.907" stroke="hsl(180.0,100%,35%)" stroke-width="0.00045"></path>
<path d="M1.002 1.005 Q0.914 0.720 0.337 0.700" stroke="hsl(180.0,100%,35%)" stroke-width="0.00446"></path>
<path d="M1.002 1.005 Q1.695 0.787 1.421 0.400" stroke="hsl(180.0,100%,35%)" stroke-width="0.00045"></path>
<path d="M1.421 0.400 Q1.545 0.257 1.291 0.165" stroke="hsl(180.0,100%,35%)" stroke-width="0.00179"></path>
<path d="M1.421 0.400 Q1.149 0.115 0.532 0.185" stroke="hsl(180.0,100%,35%)" stroke-width="0.00089"></path>
<path d="M1.421 0.400 Q0.845 0.332 0.585 0.597" stroke="hsl(180.0,100%,35%)" stroke-width="0.00045"></path>
<path d="M1.421 0.400 Q0.728 0.619 1.002 1.005" stroke="hsl(180.0,100%,35%)" stroke-width="0.00134"></path>
<path d="M1.421 0.400 Q1.340 0.149 0.831 0.133" stroke="hsl(180.0,100%,35%)" stroke-width="0.00089"></path>
<path d="M1.421 0.400 Q1.044 0.490 1.135 0.693" stroke="hsl(180.0,100%,35%)" stroke-width="0.00045"></path>
<path d="M1.421 0.400 Q1.470 0.323 1.329 0.281" stroke="hsl(180.0,100%,35%)" stroke-width="0.00045"></path>
<path d="M1.421 0.400 Q0.933 0.575 1.166 0.851" stroke="hsl(180.0,100%,35%)" stroke-width="0.00268"></path>
<path d="M1.421 0.400 Q1.216 0.631 1.622 0.782" stroke="hsl(180.0,100%,35%)" stroke-width="0.00045"></path>
<path d="M1.421 0.400 Q1.134 0.183 0.647 0.276" stroke="hsl(180.0,100%,35%)" stroke-width="0.00045"></path>
<path d="M1.421 0.400 Q1.531 0.498 1.747 0.466" stroke="hsl(180.0,100%,35%)" stroke-width="0.00045"></path>
<path d="M1.421 0.400 Q0.938 0.244 0.526 0.445" stroke="hsl(180.0,100%,35%)" stroke-width="0.00045"></path>
<path d="M1.014 0.973 Q0.982 0.987 1.002 1.005" stroke="hsl(180.0,100%,35%)" stroke-width="0.00536"></path>
<path d="M1.014 0.973 Q1.403 0.483 0.532 0.185" stroke="hsl(180.0,100%,35%)" stroke-width="0.00045"></path>
<path d="M1.014 0.973 Q1.594 0.517 0.831 0.133" stroke="hsl(180.0,100%,35%)" stroke-width="0.00089"></path>
<path d="M1.014 0.973 Q1.388 0.551 0.647 0.276" stroke="hsl(180.0,100%,35%)" stroke-width="0.00045"></path>
<path d="M1.291 0.165 Q0.679 0.483 1.166 0.851" stroke="hsl(180.0,100%,35%)" stroke-width="0.00536"></path>
<path d="M1.291 0.165 Q0.895 0.023 0.532 0.185" stroke="hsl(180.0,100%,35%)" stroke-width="0.01071"></path>
<path d="M1.291 0.165 Q1.086 0.057 0.831 0.133" stroke="hsl(180.0,100%,35%)" stroke-width="0.01384"></path>
<path d="M1.291 0.165 Q1.217 0.231 1.329 0.281" stroke="hsl(180.0,100%,35%)" stroke-width="0.03214"></path>
<path d="M1.291 0.165 Q0.880 0.091 0.647 0.276" stroke="hsl(180.0,100%,35%)" stroke-width="0.00045"></path>
<path d="M1.291 0.165 Q1.168 0.308 1.421 0.400" stroke="hsl(180.0,100%,35%)" stroke-width="0.00759"></path>
<path d="M1.291 0.165 Q0.506 0.513 1.014 0.973" stroke="hsl(180.0,100%,35%)" stroke-width="0.00268"></path>
<path d="M1.291 0.165 Q0.592 0.240 0.585 0.597" stroke="hsl(180.0,100%,35%)" stroke-width="0.00670"></path>
<path d="M1.291 0.165 Q0.386 0.241 0.337 0.700" stroke="hsl(180.0,100%,35%)" stroke-width="0.01161"></path>
<path d="M1.291 0.165 Q0.474 0.527 1.002 1.005" stroke="hsl(180.0,100%,35%)" stroke-width="0.00402"></path>
<path d="M1.291 0.165 Q0.897 0.616 1.691 0.907" stroke="hsl(180.0,100%,35%)" stroke-width="0.00134"></path>
<path d="M1.291 0.165 Q1.284 0.324 1.593 0.362" stroke="hsl(180.0,100%,35%)" stroke-width="0.00089"></path>
<path d="M1.291 0.165 Q1.493 0.156 1.520 0.055" stroke="hsl(180.0,100%,35%)" stroke-width="0.00045"></path>
<path d="M1.291 0.165 Q1.404 0.238 1.572 0.199" stroke="hsl(180.0,100%,35%)" stroke-width="0.00179"></path>
<path d="M1.291 0.165 Q1.047 0.480 1.609 0.668" stroke="hsl(180.0,100%,35%)" stroke-width="0.00045"></path>
<path d="M1.291 0.165 Q1.278 0.406 1.747 0.466" stroke="hsl(180.0,100%,35%)" stroke-width="0.00045"></path>
<path d="M1.166 0.851 Q0.872 0.610 0.337 0.700" stroke="hsl(180.0,100%,35%)" stroke-width="0.01473"></path>
<path d="M1.166 0.851 Q1.778 0.533 1.291 0.165" stroke="hsl(180.0,100%,35%)" stroke-width="0.00312"></path>
<path d="M1.166 0.851 Q1.277 0.766 1.135 0.693" stroke="hsl(180.0,100%,35%)" stroke-width="0.00134"></path>
<path d="M1.166 0.851 Q1.449 0.908 1.622 0.782" stroke="hsl(180.0,100%,35%)" stroke-width="0.00268"></path>
<path d="M1.166 0.851 Q1.053 0.826 0.978 0.875" stroke="hsl(180.0,100%,35%)" stroke-width="0.00045"></path>
<path d="M1.166 0.851 Q0.961 0.896 1.002 1.005" stroke="hsl(180.0,100%,35%)" stroke-width="0.00670"></path>
<path d="M1.166 0.851 Q1.298 0.652 0.939 0.544" stroke="hsl(180.0,100%,35%)" stroke-width="0.00045"></path>
<path d="M1.166 0.851 Q1.078 0.608 0.585 0.597" stroke="hsl(180.0,100%,35%)" stroke-width="0.00223"></path>
<path d="M1.166 0.851 Q1.573 0.425 0.831 0.133" stroke="hsl(180.0,100%,35%)" stroke-width="0.00134"></path>
<path d="M1.166 0.851 Q1.382 0.391 0.532 0.185" stroke="hsl(180.0,100%,35%)" stroke-width="0.00268"></path>
<path d="M1.166 0.851 Q1.703 0.599 1.329 0.281" stroke="hsl(180.0,100%,35%)" stroke-width="0.00402"></path>
<path d="M1.166 0.851 Q1.298 0.612 0.861 0.495" stroke="hsl(180.0,100%,35%)" stroke-width="0.00045"></path>
<path d="M1.166 0.851 Q1.384 0.984 1.691 0.907" stroke="hsl(180.0,100%,35%)" stroke-width="0.00179"></path>
<path d="M1.166 0.851 Q1.654 0.677 1.421 0.400" stroke="hsl(180.0,100%,35%)" stroke-width="0.00089"></path>
<path d="M1.166 0.851 Q1.764 0.775 1.747 0.466" stroke="hsl(180.0,100%,35%)" stroke-width="0.00045"></path>
<path d="M1.166 0.851 Q1.630 0.796 1.625 0.558" stroke="hsl(180.0,100%,35%)" stroke-width="0.00045"></path>
<path d="M0.532 0.185 Q0.517 0.253 0.647 0.276" stroke="hsl(180.0,100%,35%)" stroke-width="0.00268"></path>
<path d="M0.532 0.185 Q0.723 0.219 0.831 0.133" stroke="hsl(180.0,100%,35%)" stroke-width="0.01250"></path>
<path d="M0.532 0.185 Q0.023 0.403 0.337 0.700" stroke="hsl(180.0,100%,35%)" stroke-width="0.00134"></path>
<path d="M0.532 0.185 Q0.928 0.327 1.291 0.165" stroke="hsl(180.0,100%,35%)" stroke-width="0.00268"></path>
<path d="M0.532 0.185 Q0.600 0.701 1.622 0.782" stroke="hsl(180.0,100%,35%)" stroke-width="0.00089"></path>
<path d="M0.532 0.185 Q0.854 0.393 1.329 0.281" stroke="hsl(180.0,100%,35%)" stroke-width="0.00357"></path>
<path d="M0.532 0.185 Q0.229 0.402 0.585 0.597" stroke="hsl(180.0,100%,35%)" stroke-width="0.00045"></path>
<path d="M0.861 0.495 Q0.641 0.491 0.585 0.597" stroke="hsl(180.0,100%,35%)" stroke-width="0.00223"></path>
<path d="M0.861 0.495 Q0.435 0.493 0.337 0.700" stroke="hsl(180.0,100%,35%)" stroke-width="0.00089"></path>
<path d="M0.861 0.495 Q1.217 0.560 1.421 0.400" stroke="hsl(180.0,100%,35%)" stroke-width="0.00045"></path>
<path d="M0.861 0.495 Q1.135 0.309 0.831 0.133" stroke="hsl(180.0,100%,35%)" stroke-width="0.00045"></path>
<path d="M0.861 0.495 Q1.266 0.482 1.329 0.281" stroke="hsl(180.0,100%,35%)" stroke-width="0.00134"></path>
<path d="M0.861 0.495 Q1.327 0.658 1.747 0.466" stroke="hsl(180.0,100%,35%)" stroke-width="0.00045"></path>
<path d="M0.861 0.495 Q0.858 0.417 0.705 0.401" stroke="hsl(180.0,100%,35%)" stroke-width="0.00045"></path>
<path d="M0.861 0.495 Q1.340 0.416 1.291 0.165" stroke="hsl(180.0,100%,35%)" stroke-width="0.00045"></path>
<path d="M0.861 0.495 Q0.734 0.403 0.526 0.445" stroke="hsl(180.0,100%,35%)" stroke-width="0.00089"></path>
<path d="M1.747 0.466 Q1.760 0.224 1.291 0.165" stroke="hsl(180.0,100%,35%)" stroke-width="0.00089"></path>
<path d="M1.747 0.466 Q1.686 0.290 1.329 0.281" stroke="hsl(180.0,100%,35%)" stroke-width="0.00045"></path>
<path d="M1.747 0.466 Q1.277 0.225 0.705 0.401" stroke="hsl(180.0,100%,35%)" stroke-width="0.00134"></path>
<path d="M1.747 0.466 Q1.432 0.599 1.622 0.782" stroke="hsl(180.0,100%,35%)" stroke-width="0.00045"></path>
<path d="M0.831 0.133 Q0.640 0.099 0.532 0.185" stroke="hsl(180.0,100%,35%)" stroke-width="0.00803"></path>
<path d="M0.831 0.133 Q0.962 0.307 1.329 0.281" stroke="hsl(180.0,100%,35%)" stroke-width="0.01116"></path>
<path d="M0.831 0.133 Q0.424 0.559 1.166 0.851" stroke="hsl(180.0,100%,35%)" stroke-width="0.00179"></path>
<path d="M0.831 0.133 Q0.131 0.318 0.337 0.700" stroke="hsl(180.0,100%,35%)" stroke-width="0.00625"></path>
<path d="M0.831 0.133 Q0.642 0.692 1.691 0.907" stroke="hsl(180.0,100%,35%)" stroke-width="0.00179"></path>
<path d="M0.831 0.133 Q0.708 0.616 1.622 0.782" stroke="hsl(180.0,100%,35%)" stroke-width="0.00179"></path>
<path d="M0.831 0.133 Q0.273 0.539 0.943 0.901" stroke="hsl(180.0,100%,35%)" stroke-width="0.00045"></path>
<path d="M0.831 0.133 Q1.036 0.241 1.291 0.165" stroke="hsl(180.0,100%,35%)" stroke-width="0.00268"></path>
<path d="M0.831 0.133 Q0.337 0.316 0.585 0.597" stroke="hsl(180.0,100%,35%)" stroke-width="0.00223"></path>
<path d="M0.831 0.133 Q0.625 0.168 0.647 0.276" stroke="hsl(180.0,100%,35%)" stroke-width="0.00045"></path>
<path d="M0.831 0.133 Q0.556 0.320 0.861 0.495" stroke="hsl(180.0,100%,35%)" stroke-width="0.00045"></path>
<path d="M0.831 0.133 Q0.185 0.483 0.725 0.874" stroke="hsl(180.0,100%,35%)" stroke-width="0.00089"></path>
<path d="M0.831 0.133 Q1.029 0.400 1.593 0.362" stroke="hsl(180.0,100%,35%)" stroke-width="0.00089"></path>
<path d="M0.831 0.133 Q0.106 0.408 0.483 0.822" stroke="hsl(180.0,100%,35%)" stroke-width="0.00045"></path>
<path d="M0.831 0.133 Q0.439 0.422 0.916 0.677" stroke="hsl(180.0,100%,35%)" stroke-width="0.00045"></path>
<path d="M0.831 0.133 Q1.149 0.314 1.572 0.199" stroke="hsl(180.0,100%,35%)" stroke-width="0.00045"></path>
<path d="M0.831 0.133 Q0.534 0.131 0.464 0.275" stroke="hsl(180.0,100%,35%)" stroke-width="0.00045"></path>
<path d="M0.831 0.133 Q0.564 0.155 0.547 0.290" stroke="hsl(180.0,100%,35%)" stroke-width="0.00045"></path>
<path d="M0.612 0.947 Q0.878 0.767 0.585 0.597" stroke="hsl(0.0,100%,35%)" stroke-width="0.01428"></path>
<path d="M0.612 0.947 Q0.726 0.933 0.725 0.874" stroke="hsl(0.0,100%,35%)" stroke-width="0.02053"></path>
<path d="M0.612 0.947 Q1.067 1.060 1.388 0.863" stroke="hsl(0.0,100%,35%)" stroke-width="0.00045"></path>
<path d="M0.612 0.947 Q0.760 1.054 1.002 1.005" stroke="hsl(0.0,100%,35%)" stroke-width="0.00580"></path>
<path d="M0.612 0.947 Q1.249 1.066 1.622 0.782" stroke="hsl(0.0,100%,35%)" stroke-width="0.00134"></path>
<path d="M0.612 0.947 Q1.183 1.143 1.691 0.907" stroke="hsl(0.0,100%,35%)" stroke-width="0.00045"></path>
<path d="M0.612 0.947 Q1.503 0.758 1.329 0.281" stroke="hsl(0.0,100%,35%)" stroke-width="0.00223"></path>
<path d="M0.612 0.947 Q0.672 0.768 0.337 0.700" stroke="hsl(0.0,100%,35%)" stroke-width="0.00045"></path>
<path d="M0.612 0.947 Q1.076 0.925 1.135 0.693" stroke="hsl(0.0,100%,35%)" stroke-width="0.00045"></path>
<path d="M0.612 0.947 Q0.970 0.679 0.526 0.445" stroke="hsl(0.0,100%,35%)" stroke-width="0.00045"></path>
<path d="M1.135 0.693 Q1.024 0.778 1.166 0.851" stroke="hsl(180.0,100%,35%)" stroke-width="0.00714"></path>
<path d="M1.135 0.693 Q1.562 0.526 1.329 0.281" stroke="hsl(180.0,100%,35%)" stroke-width="0.00446"></path>
<path d="M1.135 0.693 Q0.819 0.823 1.002 1.005" stroke="hsl(180.0,100%,35%)" stroke-width="0.00089"></path>
<path d="M1.135 0.693 Q0.731 0.537 0.337 0.700" stroke="hsl(180.0,100%,35%)" stroke-width="0.00714"></path>
<path d="M1.135 0.693 Q1.039 0.641 0.916 0.677" stroke="hsl(180.0,100%,35%)" stroke-width="0.00134"></path>
<path d="M1.135 0.693 Q1.275 0.654 1.229 0.578" stroke="hsl(180.0,100%,35%)" stroke-width="0.00045"></path>
<path d="M1.135 0.693 Q1.629 0.619 1.593 0.362" stroke="hsl(180.0,100%,35%)" stroke-width="0.00045"></path>
<path d="M1.135 0.693 Q1.749 0.533 1.572 0.199" stroke="hsl(180.0,100%,35%)" stroke-width="0.00045"></path>
<path d="M1.135 0.693 Q1.029 0.447 0.526 0.445" stroke="hsl(180.0,100%,35%)" stroke-width="0.00045"></path>
<path d="M1.135 0.693 Q1.431 0.353 0.831 0.133" stroke="hsl(180.0,100%,35%)" stroke-width="0.00045"></path>
<path d="M1.135 0.693 Q0.937 0.535 0.585 0.597" stroke="hsl(180.0,100%,35%)" stroke-width="0.00045"></path>
<path d="M1.135 0.693 Q1.242 0.911 1.691 0.907" stroke="hsl(180.0,100%,35%)" stroke-width="0.00045"></path>
<path d="M0.725 0.874 Q0.813 0.931 0.943 0.901" stroke="hsl(0.0,100%,35%)" stroke-width="0.00179"></path>
<path d="M0.725 0.874 Q1.248 1.007 1.622 0.782" stroke="hsl(0.0,100%,35%)" stroke-width="0.00446"></path>
<path d="M0.725 0.874 Q1.182 1.084 1.691 0.907" stroke="hsl(0.0,100%,35%)" stroke-width="0.00268"></path>
<path d="M0.725 0.874 Q1.576 0.633 1.291 0.165" stroke="hsl(0.0,100%,35%)" stroke-width="0.00089"></path>
<path d="M0.725 0.874 Q1.066 1.001 1.388 0.863" stroke="hsl(0.0,100%,35%)" stroke-width="0.00089"></path>
<path d="M0.725 0.874 Q1.096 0.712 0.861 0.495" stroke="hsl(0.0,100%,35%)" stroke-width="0.00045"></path>
<path d="M0.943 0.901 Q1.377 0.977 1.622 0.782" stroke="hsl(0.0,100%,35%)" stroke-width="0.01339"></path>
<path d="M0.943 0.901 Q0.855 0.844 0.725 0.874" stroke="hsl(0.0,100%,35%)" stroke-width="0.00670"></path>
<path d="M0.943 0.901 Q1.312 1.053 1.691 0.907" stroke="hsl(0.0,100%,35%)" stroke-width="0.00312"></path>
<path d="M1.014 0.201 Q0.977 0.131 0.831 0.133" stroke="hsl(180.0,100%,35%)" stroke-width="0.01071"></path>
<path d="M1.014 0.201 Q0.277 0.315 0.337 0.700" stroke="hsl(180.0,100%,35%)" stroke-width="0.00089"></path>
<path d="M1.014 0.201 Q0.483 0.313 0.585 0.597" stroke="hsl(180.0,100%,35%)" stroke-width="0.00089"></path>
<path d="M1.014 0.201 Q1.108 0.304 1.329 0.281" stroke="hsl(180.0,100%,35%)" stroke-width="0.00134"></path>
<path d="M1.014 0.201 Q0.699 0.239 0.705 0.401" stroke="hsl(180.0,100%,35%)" stroke-width="0.00089"></path>
<path d="M0.705 0.401 Q1.113 0.466 1.329 0.281" stroke="hsl(180.0,100%,35%)" stroke-width="0.00089"></path>
<path d="M0.705 0.401 Q0.937 0.440 1.063 0.335" stroke="hsl(180.0,100%,35%)" stroke-width="0.00134"></path>
<path d="M0.705 0.401 Q0.982 0.293 0.831 0.133" stroke="hsl(180.0,100%,35%)" stroke-width="0.00312"></path>
<path d="M0.705 0.401 Q0.859 0.775 1.622 0.782" stroke="hsl(180.0,100%,35%)" stroke-width="0.00089"></path>
<path d="M0.705 0.401 Q1.180 0.559 1.593 0.362" stroke="hsl(180.0,100%,35%)" stroke-width="0.00045"></path>
<path d="M0.705 0.401 Q0.282 0.477 0.337 0.700" stroke="hsl(180.0,100%,35%)" stroke-width="0.00045"></path>
<path d="M0.705 0.401 Q0.677 0.769 1.388 0.863" stroke="hsl(180.0,100%,35%)" stroke-width="0.00045"></path>
<path d="M1.593 0.362 Q1.600 0.203 1.291 0.165" stroke="hsl(180.0,100%,35%)" stroke-width="0.00134"></path>
<path d="M1.593 0.362 Q1.526 0.269 1.329 0.281" stroke="hsl(180.0,100%,35%)" stroke-width="0.00089"></path>
<path d="M1.593 0.362 Q1.432 0.166 1.014 0.201" stroke="hsl(180.0,100%,35%)" stroke-width="0.00045"></path>
<path d="M1.593 0.362 Q1.099 0.436 1.135 0.693" stroke="hsl(180.0,100%,35%)" stroke-width="0.00045"></path>
<path d="M1.593 0.362 Q1.272 0.578 1.622 0.782" stroke="hsl(180.0,100%,35%)" stroke-width="0.00089"></path>
<path d="M1.593 0.362 Q1.395 0.095 0.831 0.133" stroke="hsl(180.0,100%,35%)" stroke-width="0.00089"></path>
<path d="M1.593 0.362 Q0.988 0.521 1.166 0.851" stroke="hsl(180.0,100%,35%)" stroke-width="0.00045"></path>
<path d="M1.593 0.362 Q1.003 0.384 0.916 0.677" stroke="hsl(180.0,100%,35%)" stroke-width="0.00045"></path>
<path d="M1.593 0.362 Q0.837 0.501 0.943 0.901" stroke="hsl(180.0,100%,35%)" stroke-width="0.00134"></path>
<path d="M1.593 0.362 Q0.901 0.278 0.585 0.597" stroke="hsl(180.0,100%,35%)" stroke-width="0.00045"></path>
<path d="M1.593 0.362 Q0.783 0.565 1.002 1.005" stroke="hsl(180.0,100%,35%)" stroke-width="0.00045"></path>
<path d="M1.086 0.051 Q1.053 0.065 1.072 0.084" stroke="hsl(0.0,100%,35%)" stroke-width="0.00179"></path>
<path d="M1.086 0.051 Q1.085 0.391 1.747 0.466" stroke="hsl(0.0,100%,35%)" stroke-width="0.00089"></path>
<path d="M1.086 0.051 Q0.588 0.517 1.388 0.863" stroke="hsl(0.0,100%,35%)" stroke-width="0.00357"></path>
<path d="M1.086 0.051 Q0.399 0.224 0.585 0.597" stroke="hsl(0.0,100%,35%)" stroke-width="0.00134"></path>
<path d="M0.647 0.276 Q0.853 0.241 0.831 0.133" stroke="hsl(180.0,100%,35%)" stroke-width="0.00491"></path>
<path d="M0.647 0.276 Q0.662 0.207 0.532 0.185" stroke="hsl(180.0,100%,35%)" stroke-width="0.00357"></path>
<path d="M0.647 0.276 Q0.153 0.426 0.337 0.700" stroke="hsl(180.0,100%,35%)" stroke-width="0.00089"></path>
<path d="M0.647 0.276 Q0.984 0.415 1.329 0.281" stroke="hsl(180.0,100%,35%)" stroke-width="0.00089"></path>
<path d="M0.647 0.276 Q0.207 0.591 0.725 0.874" stroke="hsl(180.0,100%,35%)" stroke-width="0.00045"></path>
<path d="M0.647 0.276 Q0.241 0.711 1.002 1.005" stroke="hsl(180.0,100%,35%)" stroke-width="0.00045"></path>
<path d="M1.572 0.199 Q0.554 0.202 0.337 0.700" stroke="hsl(180.0,100%,35%)" stroke-width="0.00089"></path>
<path d="M1.572 0.199 Q1.385 0.192 1.329 0.281" stroke="hsl(180.0,100%,35%)" stroke-width="0.00357"></path>
<path d="M1.572 0.199 Q1.131 0.500 1.622 0.782" stroke="hsl(180.0,100%,35%)" stroke-width="0.00045"></path>
<path d="M1.696 0.367 Q1.656 0.185 1.291 0.165" stroke="hsl(180.0,100%,35%)" stroke-width="0.00045"></path>
<path d="M1.696 0.367 Q1.649 0.344 1.593 0.362" stroke="hsl(180.0,100%,35%)" stroke-width="0.00089"></path>
<path d="M1.696 0.367 Q1.582 0.251 1.329 0.281" stroke="hsl(180.0,100%,35%)" stroke-width="0.00134"></path>
<path d="M1.696 0.367 Q1.327 0.560 1.622 0.782" stroke="hsl(180.0,100%,35%)" stroke-width="0.00045"></path>
<path d="M1.696 0.367 Q0.750 0.262 0.337 0.700" stroke="hsl(180.0,100%,35%)" stroke-width="0.00045"></path>
<path d="M1.696 0.367 Q1.642 0.427 1.747 0.466" stroke="hsl(180.0,100%,35%)" stroke-width="0.00045"></path>
<path d="M0.916 0.677 Q0.608 0.573 0.337 0.700" stroke="hsl(180.0,100%,35%)" stroke-width="0.00089"></path>
<path d="M0.916 0.677 Q1.513 0.496 1.291 0.165" stroke="hsl(180.0,100%,35%)" stroke-width="0.00045"></path>
<path d="M0.483 0.822 Q0.507 0.732 0.337 0.700" stroke="hsl(180.0,100%,35%)" stroke-width="0.00937"></path>
<path d="M0.483 0.822 Q1.346 0.986 1.855 0.601" stroke="hsl(180.0,100%,35%)" stroke-width="0.00045"></path>
<path d="M0.483 0.822 Q0.801 0.973 1.166 0.851" stroke="hsl(180.0,100%,35%)" stroke-width="0.00134"></path>
<path d="M0.483 0.822 Q1.302 1.050 1.927 0.701" stroke="hsl(180.0,100%,35%)" stroke-width="0.00045"></path>
<path d="M0.483 0.822 Q1.338 0.721 1.329 0.281" stroke="hsl(180.0,100%,35%)" stroke-width="0.00045"></path>
<path d="M1.082 0.507 Q0.849 0.696 1.166 0.851" stroke="hsl(180.0,100%,35%)" stroke-width="0.00134"></path>
<path d="M1.082 0.507 Q0.999 0.420 0.810 0.441" stroke="hsl(180.0,100%,35%)" stroke-width="0.00045"></path>
<path d="M1.082 0.507 Q1.120 0.388 0.895 0.343" stroke="hsl(180.0,100%,35%)" stroke-width="0.00045"></path>
<path d="M1.082 0.507 Q1.136 0.581 1.292 0.571" stroke="hsl(180.0,100%,35%)" stroke-width="0.00045"></path>
<path d="M1.082 0.507 Q1.447 0.620 1.747 0.466" stroke="hsl(180.0,100%,35%)" stroke-width="0.00045"></path>
<path d="M1.082 0.507 Q1.133 0.467 1.065 0.433" stroke="hsl(180.0,100%,35%)" stroke-width="0.00045"></path>
<path d="M0.133 0.709 Q0.751 0.527 0.532 0.185" stroke="hsl(180.0,100%,35%)" stroke-width="0.00045"></path>
<path d="M0.133 0.709 Q0.535 0.987 1.166 0.851" stroke="hsl(180.0,100%,35%)" stroke-width="0.00045"></path>
<path d="M0.133 0.709 Q0.242 0.745 0.337 0.700" stroke="hsl(180.0,100%,35%)" stroke-width="0.00045"></path>
<path d="M0.133 0.709 Q0.647 0.902 1.135 0.693" stroke="hsl(180.0,100%,35%)" stroke-width="0.00045"></path>
<path d="M0.775 0.620 Q0.492 0.573 0.337 0.700" stroke="hsl(180.0,100%,35%)" stroke-width="0.00223"></path>
<path d="M0.775 0.620 Q1.384 0.738 1.747 0.466" stroke="hsl(180.0,100%,35%)" stroke-width="0.00045"></path>
<path d="M0.775 0.620 Q0.785 0.814 1.166 0.851" stroke="hsl(180.0,100%,35%)" stroke-width="0.00089"></path>
<path d="M0.775 0.620 Q0.987 0.423 0.647 0.276" stroke="hsl(180.0,100%,35%)" stroke-width="0.00045"></path>
<path d="M0.775 0.620 Q0.698 0.571 0.585 0.597" stroke="hsl(180.0,100%,35%)" stroke-width="0.00045"></path>
<path d="M0.775 0.620 Q1.069 0.871 1.622 0.782" stroke="hsl(180.0,100%,35%)" stroke-width="0.00045"></path>
<path d="M0.775 0.620 Q1.002 0.354 0.532 0.185" stroke="hsl(180.0,100%,35%)" stroke-width="0.00045"></path>
<path d="M1.855 0.601 Q0.992 0.437 0.483 0.822" stroke="hsl(180.0,100%,35%)" stroke-width="0.00134"></path>
<path d="M1.855 0.601 Q1.848 0.336 1.329 0.281" stroke="hsl(180.0,100%,35%)" stroke-width="0.00045"></path>
<path d="M1.855 0.601 Q1.017 0.347 0.337 0.700" stroke="hsl(180.0,100%,35%)" stroke-width="0.00089"></path>
<path d="M1.855 0.601 Q1.310 0.588 1.166 0.851" stroke="hsl(180.0,100%,35%)" stroke-width="0.00045"></path>
<path d="M1.531 0.511 Q1.613 0.356 1.329 0.281" stroke="hsl(180.0,100%,35%)" stroke-width="0.00045"></path>
<path d="M1.531 0.511 Q1.090 0.471 0.916 0.677" stroke="hsl(180.0,100%,35%)" stroke-width="0.00045"></path>
<path d="M1.531 0.511 Q1.540 0.553 1.625 0.558" stroke="hsl(180.0,100%,35%)" stroke-width="0.00045"></path>
<path d="M1.006 0.621 Q0.608 0.526 0.337 0.700" stroke="hsl(180.0,100%,35%)" stroke-width="0.00134"></path>
<path d="M1.006 0.621 Q0.916 0.631 0.916 0.677" stroke="hsl(180.0,100%,35%)" stroke-width="0.00045"></path>
<path d="M1.006 0.621 Q0.696 0.812 1.002 1.005" stroke="hsl(180.0,100%,35%)" stroke-width="0.00045"></path>
<path d="M1.910 0.562 Q1.851 0.570 1.855 0.601" stroke="hsl(180.0,100%,35%)" stroke-width="0.00223"></path>
<path d="M1.910 0.562 Q0.988 0.406 0.483 0.822" stroke="hsl(180.0,100%,35%)" stroke-width="0.00223"></path>
<path d="M1.910 0.562 Q1.068 0.137 0.054 0.455" stroke="hsl(180.0,100%,35%)" stroke-width="0.00045"></path>
<path d="M1.910 0.562 Q1.013 0.316 0.337 0.700" stroke="hsl(180.0,100%,35%)" stroke-width="0.00134"></path>
<path d="M1.910 0.562 Q1.306 0.557 1.166 0.851" stroke="hsl(180.0,100%,35%)" stroke-width="0.00134"></path>
<path d="M1.910 0.562 Q1.239 0.104 0.198 0.331" stroke="hsl(180.0,100%,35%)" stroke-width="0.00045"></path>
<path d="M0.054 0.455 Q-0.001 0.634 0.337 0.700" stroke="hsl(180.0,100%,35%)" stroke-width="0.00045"></path>
<path d="M0.054 0.455 Q0.225 0.421 0.198 0.331" stroke="hsl(180.0,100%,35%)" stroke-width="0.00045"></path>
<path d="M0.054 0.455 Q0.020 0.515 0.131 0.546" stroke="hsl(180.0,100%,35%)" stroke-width="0.00045"></path>
<path d="M0.054 0.455 Q-0.030 0.505 0.051 0.558" stroke="hsl(180.0,100%,35%)" stroke-width="0.00045"></path>
<path d="M1.105 1.006 Q1.797 0.688 1.329 0.281" stroke="hsl(180.0,100%,35%)" stroke-width="0.00045"></path>
<path d="M1.105 1.006 Q1.259 0.941 1.166 0.851" stroke="hsl(180.0,100%,35%)" stroke-width="0.00045"></path>
<path d="M1.105 1.006 Q1.266 0.779 0.859 0.651" stroke="hsl(180.0,100%,35%)" stroke-width="0.00045"></path>
<path d="M0.859 0.651 Q0.559 0.571 0.337 0.700" stroke="hsl(180.0,100%,35%)" stroke-width="0.00045"></path>
<path d="M0.859 0.651 Q0.534 0.661 0.483 0.822" stroke="hsl(180.0,100%,35%)" stroke-width="0.00089"></path>
<path d="M0.859 0.651 Q1.353 0.890 1.927 0.701" stroke="hsl(180.0,100%,35%)" stroke-width="0.00089"></path>
<path d="M0.859 0.651 Q0.852 0.813 1.166 0.851" stroke="hsl(180.0,100%,35%)" stroke-width="0.00045"></path>
<path d="M0.521 0.690 Q0.421 0.658 0.337 0.700" stroke="hsl(180.0,100%,35%)" stroke-width="0.00268"></path>
<path d="M0.521 0.690 Q0.714 0.900 1.166 0.851" stroke="hsl(180.0,100%,35%)" stroke-width="0.00179"></path>
<path d="M0.521 0.690 Q0.397 0.748 0.483 0.822" stroke="hsl(180.0,100%,35%)" stroke-width="0.00179"></path>
<path d="M1.383 0.788 Q1.223 0.776 1.166 0.851" stroke="hsl(180.0,100%,35%)" stroke-width="0.00536"></path>
<path d="M1.383 0.788 Q1.238 0.639 0.916 0.677" stroke="hsl(180.0,100%,35%)" stroke-width="0.00045"></path>
<path d="M1.383 0.788 Q1.761 0.524 1.329 0.281" stroke="hsl(180.0,100%,35%)" stroke-width="0.00134"></path>
<path d="M1.383 0.788 Q0.930 0.535 0.337 0.700" stroke="hsl(180.0,100%,35%)" stroke-width="0.00089"></path>
<path d="M1.250 0.634 Q1.039 0.395 0.526 0.445" stroke="hsl(180.0,100%,35%)" stroke-width="0.00045"></path>
<path d="M1.250 0.634 Q1.034 0.726 1.166 0.851" stroke="hsl(180.0,100%,35%)" stroke-width="0.00223"></path>
<path d="M1.250 0.634 Q1.318 0.783 1.622 0.782" stroke="hsl(180.0,100%,35%)" stroke-width="0.00045"></path>
<path d="M1.250 0.634 Q0.829 0.770 1.002 1.005" stroke="hsl(180.0,100%,35%)" stroke-width="0.00045"></path>
<path d="M0.131 0.546 Q0.166 0.485 0.054 0.455" stroke="hsl(180.0,100%,35%)" stroke-width="0.00089"></path>
<path d="M0.131 0.546 Q0.081 0.536 0.051 0.558" stroke="hsl(180.0,100%,35%)" stroke-width="0.00134"></path>
<path d="M0.131 0.546 Q0.111 0.664 0.337 0.700" stroke="hsl(180.0,100%,35%)" stroke-width="0.00134"></path>
<path d="M0.131 0.546 Q0.317 0.662 0.585 0.597" stroke="hsl(180.0,100%,35%)" stroke-width="0.00045"></path>
<path d="M1.858 0.358 Q1.716 0.390 1.747 0.466" stroke="hsl(180.0,100%,35%)" stroke-width="0.00089"></path>
<path d="M1.858 0.358 Q0.824 0.225 0.337 0.700" stroke="hsl(180.0,100%,35%)" stroke-width="0.00045"></path>
<path d="M1.858 0.358 Q1.606 0.292 1.421 0.400" stroke="hsl(180.0,100%,35%)" stroke-width="0.00089"></path>
<path d="M1.922 0.922 Q1.601 0.735 1.166 0.851" stroke="hsl(180.0,100%,35%)" stroke-width="0.00089"></path>
<path d="M1.922 0.922 Q2.102 0.813 1.927 0.701" stroke="hsl(180.0,100%,35%)" stroke-width="0.00089"></path>
<path d="M1.922 0.922 Q1.283 0.584 0.483 0.822" stroke="hsl(180.0,100%,35%)" stroke-width="0.00045"></path>
<path d="M0.636 0.411 Q0.461 0.494 0.585 0.597" stroke="hsl(180.0,100%,35%)" stroke-width="0.00045"></path>
<path d="M0.636 0.411 Q1.160 0.419 1.291 0.165" stroke="hsl(180.0,100%,35%)" stroke-width="0.00045"></path>
<path d="M0.636 0.411 Q0.764 0.277 0.532 0.185" stroke="hsl(180.0,100%,35%)" stroke-width="0.00045"></path>
<path d="M0.826 0.530 Q0.841 0.809 1.388 0.863" stroke="hsl(0.0,100%,35%)" stroke-width="0.00045"></path>
<path d="M0.826 0.530 Q1.306 0.356 1.072 0.084" stroke="hsl(0.0,100%,35%)" stroke-width="0.00045"></path>
<path d="M0.826 0.530 Q1.022 0.815 1.622 0.782" stroke="hsl(0.0,100%,35%)" stroke-width="0.00045"></path>
<path d="M0.826 0.530 Q0.651 0.515 0.585 0.597" stroke="hsl(0.0,100%,35%)" stroke-width="0.00045"></path>
<path d="M0.826 0.530 Q1.276 0.506 1.329 0.281" stroke="hsl(0.0,100%,35%)" stroke-width="0.00045"></path>
<path d="M0.826 0.530 Q1.351 0.440 1.291 0.165" stroke="hsl(0.0,100%,35%)" stroke-width="0.00045"></path>
</g>
<text x="0.375" y="0.409" font-size="0.005742" fill="hsl(0.0,100%,20%)">alexnj</text>
<text x="1.388" y="0.851" font-size="0.023674" fill="hsl(0.0,100%,20%)">paulirish</text>
<text x="1.622" y="0.751" font-size="0.062283" fill="hsl(0.0,100%,20%)">jacktfranklin</text>
<text x="0.585" y="0.571" font-size="0.051355" fill="hsl(0.0,100%,20%)">alexrudenko</text>
<text x="1.329" y="0.250" font-size="0.062634" fill="hsl(180.0,100%,20%)">szuend</text>
<text x="0.337" y="0.670" font-size="0.058741" fill="hsl(180.0,100%,20%)">dsv</text>
<text x="0.526" y="0.436" font-size="0.017541" fill="hsl(180.0,100%,20%)">nvitkov</text>
<text x="1.691" y="0.882" font-size="0.051141" fill="hsl(0.0,100%,20%)">andoli</text>
<text x="1.002" y="0.985" font-size="0.040192" fill="hsl(180.0,100%,20%)">kprokopenko</text>
<text x="1.421" y="0.388" font-size="0.025463" fill="hsl(180.0,100%,20%)">yangguo</text>
<text x="1.014" y="0.965" font-size="0.016240" fill="hsl(180.0,100%,20%)">petermueller</text>
<text x="1.291" y="0.136" font-size="0.057225" fill="hsl(180.0,100%,20%)">bmeurer</text>
<text x="1.166" y="0.825" font-size="0.051781" fill="hsl(180.0,100%,20%)">wolfi</text>
<text x="0.367" y="0.502" font-size="0.003315" fill="hsl(180.0,100%,20%)">tperrotta</text>
<text x="0.532" y="0.165" font-size="0.039780" fill="hsl(180.0,100%,20%)">ergunsh</text>
<text x="0.861" y="0.487" font-size="0.016575" fill="hsl(180.0,100%,20%)">jrandolf</text>
<text x="1.747" y="0.457" font-size="0.017852" fill="hsl(180.0,100%,20%)">mathias</text>
<text x="0.831" y="0.108" font-size="0.051033" fill="hsl(180.0,100%,20%)">pfaffe</text>
<text x="0.612" y="0.930" font-size="0.034290" fill="hsl(0.0,100%,20%)">hadrienjaubert</text>
<text x="1.135" y="0.680" font-size="0.026312" fill="hsl(180.0,100%,20%)">jec</text>
<text x="0.725" y="0.853" font-size="0.042323" fill="hsl(0.0,100%,20%)">nancyly</text>
<text x="0.943" y="0.887" font-size="0.027536" fill="hsl(0.0,100%,20%)">alinavarkki</text>
<text x="1.014" y="0.192" font-size="0.019329" fill="hsl(180.0,100%,20%)">almuthanna</text>
<text x="0.705" y="0.393" font-size="0.016240" fill="hsl(180.0,100%,20%)">liviurau</text>
<text x="1.593" y="0.353" font-size="0.017852" fill="hsl(180.0,100%,20%)">leese</text>
<text x="1.086" y="0.044" font-size="0.013668" fill="hsl(0.0,100%,20%)">asraine</text>
<text x="1.072" y="0.080" font-size="0.007412" fill="hsl(0.0,100%,20%)">cjamcl</text>
<text x="0.647" y="0.266" font-size="0.020164" fill="hsl(180.0,100%,20%)">changhaohan</text>
<text x="1.520" y="0.053" font-size="0.004688" fill="hsl(180.0,100%,20%)">caseq</text>
<text x="1.572" y="0.187" font-size="0.023905" fill="hsl(180.0,100%,20%)">jarin</text>
<text x="1.609" y="0.664" font-size="0.007412" fill="hsl(0.0,100%,20%)">victorporof</text>
<text x="1.696" y="0.363" font-size="0.009945" fill="hsl(180.0,100%,20%)">chrche</text>
<text x="0.916" y="0.671" font-size="0.011483" fill="hsl(180.0,100%,20%)">semel</text>
<text x="0.483" y="0.811" font-size="0.022483" fill="hsl(180.0,100%,20%)">kenoss</text>
<text x="1.082" y="0.503" font-size="0.009376" fill="hsl(180.0,100%,20%)">fluorescent.hallucinogen</text>
<text x="0.810" y="0.440" font-size="0.003315" fill="hsl(180.0,100%,20%)">dibyapal</text>
<text x="0.895" y="0.341" font-size="0.003315" fill="hsl(180.0,100%,20%)">hartmanng</text>
<text x="1.292" y="0.569" font-size="0.003315" fill="hsl(180.0,100%,20%)">scheib</text>
<text x="1.065" y="0.431" font-size="0.003315" fill="hsl(180.0,100%,20%)">finnur</text>
<text x="0.133" y="0.706" font-size="0.006630" fill="hsl(180.0,100%,20%)">henry</text>
<text x="1.229" y="0.576" font-size="0.003315" fill="hsl(180.0,100%,20%)">tomac</text>
<text x="0.775" y="0.615" font-size="0.011483" fill="hsl(180.0,100%,20%)">jimmyseto</text>
<text x="1.855" y="0.595" font-size="0.011952" fill="hsl(180.0,100%,20%)">lingqi</text>
<text x="1.927" y="0.697" font-size="0.007412" fill="hsl(180.0,100%,20%)">domenic</text>
<text x="1.063" y="0.332" font-size="0.005742" fill="hsl(180.0,100%,20%)">machenbach</text>
<text x="1.531" y="0.508" font-size="0.005742" fill="hsl(180.0,100%,20%)">lyf</text>
<text x="1.625" y="0.555" font-size="0.004688" fill="hsl(180.0,100%,20%)">titouan</text>
<text x="1.006" y="0.617" font-size="0.007412" fill="hsl(180.0,100%,20%)">memmott</text>
<text x="1.910" y="0.555" font-size="0.014064" fill="hsl(180.0,100%,20%)">miinak</text>
<text x="0.054" y="0.450" font-size="0.008771" fill="hsl(180.0,100%,20%)">sisidovski</text>
<text x="0.198" y="0.328" font-size="0.004688" fill="hsl(180.0,100%,20%)">kouhei</text>
<text x="1.105" y="1.003" font-size="0.005742" fill="hsl(180.0,100%,20%)">morlovich</text>
<text x="0.859" y="0.647" font-size="0.008771" fill="hsl(180.0,100%,20%)">nhiroki</text>
<text x="0.464" y="0.273" font-size="0.003315" fill="hsl(180.0,100%,20%)">adetaylor</text>
<text x="0.547" y="0.288" font-size="0.003315" fill="hsl(180.0,100%,20%)">panchok</text>
<text x="0.521" y="0.684" font-size="0.012403" fill="hsl(180.0,100%,20%)">robertlin</text>
<text x="1.383" y="0.781" font-size="0.014064" fill="hsl(180.0,100%,20%)">shuuran</text>
<text x="1.250" y="0.630" font-size="0.009376" fill="hsl(180.0,100%,20%)">silviaeremia</text>
<text x="0.131" y="0.540" font-size="0.010483" fill="hsl(180.0,100%,20%)">tnak</text>
<text x="0.051" y="0.554" font-size="0.006630" fill="hsl(180.0,100%,20%)">yyanagisawa</text>
<text x="1.858" y="0.354" font-size="0.007412" fill="hsl(180.0,100%,20%)">sokcevic</text>
<text x="1.922" y="0.919" font-size="0.007412" fill="hsl(180.0,100%,20%)">taiyo</text>
<text x="0.636" y="0.408" font-size="0.005742" fill="hsl(180.0,100%,20%)">tkent</text>
<text x="0.826" y="0.526" font-size="0.008120" fill="hsl(0.0,100%,20%)">vidorteg</text>
<text x="0.978" y="0.874" font-size="0.003315" fill="hsl(180.0,100%,20%)">mathiasb</text>
<text x="0.939" y="0.542" font-size="0.003315" fill="hsl(180.0,100%,20%)">tsepez</text>
</svg>
