<svg width="4000" height="2000" viewBox="-0.025 -0.025 2.05 1.05" xmlns="http://www.w3.org/2000/svg">
  <style>
    path {
      fill: none;
      stroke-linecap: round;
      stroke-opacity: 0.4;
    }

    text {
      text-anchor: middle;
      alignment-baseline: hanging;
    }
  </style>
  <g opacity="0.4">
<path d="M1.094 0.368 Q1.030 0.280 0.844 0.292" stroke="hsl(0.0,100%,35%)" stroke-width="0.00042"></path>
<path d="M1.094 0.368 Q1.362 0.294 1.277 0.147" stroke="hsl(0.0,100%,35%)" stroke-width="0.00042"></path>
<path d="M1.094 0.368 Q0.728 0.415 0.740 0.603" stroke="hsl(0.0,100%,35%)" stroke-width="0.00042"></path>
<path d="M0.844 0.292 Q1.184 0.227 1.133 0.048" stroke="hsl(0.0,100%,35%)" stroke-width="0.00458"></path>
<path d="M0.844 0.292 Q1.177 0.306 1.277 0.147" stroke="hsl(0.0,100%,35%)" stroke-width="0.00500"></path>
<path d="M0.844 0.292 Q0.760 0.223 0.608 0.249" stroke="hsl(0.0,100%,35%)" stroke-width="0.00083"></path>
<path d="M0.844 0.292 Q0.543 0.427 0.740 0.603" stroke="hsl(0.0,100%,35%)" stroke-width="0.00042"></path>
<path d="M1.277 0.147 Q1.285 0.068 1.133 0.048" stroke="hsl(0.0,100%,35%)" stroke-width="0.03750"></path>
<path d="M1.277 0.147 Q1.093 0.036 0.836 0.101" stroke="hsl(0.0,100%,35%)" stroke-width="0.00167"></path>
<path d="M1.277 0.147 Q0.643 0.267 0.740 0.603" stroke="hsl(0.0,100%,35%)" stroke-width="0.00083"></path>
<path d="M1.277 0.147 Q0.478 0.342 0.684 0.775" stroke="hsl(0.0,100%,35%)" stroke-width="0.00125"></path>
<path d="M1.277 0.147 Q0.861 0.064 0.608 0.249" stroke="hsl(0.0,100%,35%)" stroke-width="0.00417"></path>
<path d="M1.277 0.147 Q0.519 0.115 0.290 0.478" stroke="hsl(0.0,100%,35%)" stroke-width="0.00083"></path>
<path d="M1.277 0.147 Q0.945 0.132 0.844 0.292" stroke="hsl(0.0,100%,35%)" stroke-width="0.00208"></path>
<path d="M1.277 0.147 Q1.107 0.174 1.124 0.263" stroke="hsl(0.0,100%,35%)" stroke-width="0.00167"></path>
<path d="M1.277 0.147 Q0.305 0.297 0.384 0.804" stroke="hsl(0.0,100%,35%)" stroke-width="0.00042"></path>
<path d="M0.740 0.603 Q0.574 0.678 0.684 0.775" stroke="hsl(180.0,100%,35%)" stroke-width="0.00958"></path>
<path d="M0.740 0.603 Q0.389 0.731 0.562 0.930" stroke="hsl(180.0,100%,35%)" stroke-width="0.00625"></path>
<path d="M0.740 0.603 Q1.528 0.512 1.524 0.108" stroke="hsl(180.0,100%,35%)" stroke-width="0.00417"></path>
<path d="M0.740 0.603 Q0.401 0.633 0.384 0.804" stroke="hsl(180.0,100%,35%)" stroke-width="0.02000"></path>
<path d="M0.740 0.603 Q0.615 0.451 0.290 0.478" stroke="hsl(180.0,100%,35%)" stroke-width="0.00167"></path>
<path d="M0.740 0.603 Q0.522 0.519 0.311 0.607" stroke="hsl(180.0,100%,35%)" stroke-width="0.00458"></path>
<path d="M0.740 0.603 Q1.374 0.483 1.277 0.147" stroke="hsl(180.0,100%,35%)" stroke-width="0.00083"></path>
<path d="M0.740 0.603 Q1.381 0.404 1.133 0.048" stroke="hsl(180.0,100%,35%)" stroke-width="0.00083"></path>
<path d="M0.740 0.603 Q1.475 0.592 1.616 0.231" stroke="hsl(180.0,100%,35%)" stroke-width="0.00083"></path>
<path d="M0.740 0.603 Q0.520 0.786 0.829 0.933" stroke="hsl(180.0,100%,35%)" stroke-width="0.00750"></path>
<path d="M0.740 0.603 Q1.329 0.586 1.426 0.295" stroke="hsl(180.0,100%,35%)" stroke-width="0.00042"></path>
<path d="M0.740 0.603 Q0.593 0.577 0.510 0.642" stroke="hsl(180.0,100%,35%)" stroke-width="0.00042"></path>
<path d="M0.740 0.603 Q0.713 0.377 0.267 0.341" stroke="hsl(180.0,100%,35%)" stroke-width="0.00042"></path>
<path d="M0.740 0.603 Q0.492 0.531 0.295 0.635" stroke="hsl(180.0,100%,35%)" stroke-width="0.00083"></path>
<path d="M0.740 0.603 Q0.698 0.733 0.942 0.781" stroke="hsl(180.0,100%,35%)" stroke-width="0.00042"></path>
<path d="M0.740 0.603 Q0.887 0.486 0.691 0.389" stroke="hsl(180.0,100%,35%)" stroke-width="0.00042"></path>
<path d="M0.684 0.775 Q0.725 0.548 0.290 0.478" stroke="hsl(180.0,100%,35%)" stroke-width="0.01125"></path>
<path d="M0.684 0.775 Q0.850 0.700 0.740 0.603" stroke="hsl(180.0,100%,35%)" stroke-width="0.01125"></path>
<path d="M0.684 0.775 Q0.499 0.828 0.562 0.930" stroke="hsl(180.0,100%,35%)" stroke-width="0.00500"></path>
<path d="M0.684 0.775 Q0.511 0.730 0.384 0.804" stroke="hsl(180.0,100%,35%)" stroke-width="0.01125"></path>
<path d="M0.684 0.775 Q1.638 0.610 1.524 0.108" stroke="hsl(180.0,100%,35%)" stroke-width="0.00875"></path>
<path d="M0.684 0.775 Q0.808 0.830 0.942 0.781" stroke="hsl(180.0,100%,35%)" stroke-width="0.00125"></path>
<path d="M0.684 0.775 Q0.823 0.475 0.267 0.341" stroke="hsl(180.0,100%,35%)" stroke-width="0.00083"></path>
<path d="M0.684 0.775 Q0.966 0.875 1.221 0.759" stroke="hsl(180.0,100%,35%)" stroke-width="0.00042"></path>
<path d="M0.684 0.775 Q0.923 0.809 1.040 0.700" stroke="hsl(180.0,100%,35%)" stroke-width="0.00292"></path>
<path d="M0.684 0.775 Q1.585 0.689 1.616 0.231" stroke="hsl(180.0,100%,35%)" stroke-width="0.00042"></path>
<path d="M0.684 0.775 Q1.491 0.501 1.133 0.048" stroke="hsl(180.0,100%,35%)" stroke-width="0.00042"></path>
<path d="M0.562 0.930 Q0.747 0.877 0.684 0.775" stroke="hsl(180.0,100%,35%)" stroke-width="0.04167"></path>
<path d="M0.562 0.930 Q0.787 0.649 0.290 0.478" stroke="hsl(180.0,100%,35%)" stroke-width="0.01917"></path>
<path d="M0.562 0.930 Q1.700 0.711 1.524 0.108" stroke="hsl(180.0,100%,35%)" stroke-width="0.01000"></path>
<path d="M0.562 0.930 Q0.871 0.931 0.942 0.781" stroke="hsl(180.0,100%,35%)" stroke-width="0.00042"></path>
<path d="M0.562 0.930 Q1.150 0.993 1.401 0.720" stroke="hsl(180.0,100%,35%)" stroke-width="0.00042"></path>
<path d="M0.562 0.930 Q0.692 0.985 0.829 0.933" stroke="hsl(180.0,100%,35%)" stroke-width="0.01042"></path>
<path d="M0.562 0.930 Q0.886 0.576 0.267 0.341" stroke="hsl(180.0,100%,35%)" stroke-width="0.01667"></path>
<path d="M0.562 0.930 Q0.695 0.718 0.311 0.607" stroke="hsl(180.0,100%,35%)" stroke-width="0.00083"></path>
<path d="M0.562 0.930 Q0.573 0.831 0.384 0.804" stroke="hsl(180.0,100%,35%)" stroke-width="0.01125"></path>
<path d="M0.562 0.930 Q1.648 0.791 1.616 0.231" stroke="hsl(180.0,100%,35%)" stroke-width="0.00708"></path>
<path d="M0.562 0.930 Q1.130 0.599 0.608 0.249" stroke="hsl(180.0,100%,35%)" stroke-width="0.00042"></path>
<path d="M0.562 0.930 Q1.502 0.785 1.426 0.295" stroke="hsl(180.0,100%,35%)" stroke-width="0.00375"></path>
<path d="M0.562 0.930 Q0.912 0.802 0.740 0.603" stroke="hsl(180.0,100%,35%)" stroke-width="0.01833"></path>
<path d="M0.562 0.930 Q1.429 0.868 1.500 0.432" stroke="hsl(180.0,100%,35%)" stroke-width="0.00083"></path>
<path d="M0.562 0.930 Q1.553 0.603 1.133 0.048" stroke="hsl(180.0,100%,35%)" stroke-width="0.00083"></path>
<path d="M0.562 0.930 Q0.979 0.684 0.591 0.427" stroke="hsl(180.0,100%,35%)" stroke-width="0.00042"></path>
<path d="M0.562 0.930 Q1.028 0.976 1.221 0.759" stroke="hsl(180.0,100%,35%)" stroke-width="0.00042"></path>
<path d="M0.562 0.930 Q0.985 0.910 1.040 0.700" stroke="hsl(180.0,100%,35%)" stroke-width="0.00042"></path>
<path d="M1.524 0.108 Q0.385 0.327 0.562 0.930" stroke="hsl(180.0,100%,35%)" stroke-width="0.00875"></path>
<path d="M1.524 0.108 Q0.397 0.228 0.384 0.804" stroke="hsl(180.0,100%,35%)" stroke-width="0.01542"></path>
<path d="M1.524 0.108 Q1.471 0.188 1.616 0.231" stroke="hsl(180.0,100%,35%)" stroke-width="0.00750"></path>
<path d="M1.524 0.108 Q1.611 0.208 1.825 0.187" stroke="hsl(180.0,100%,35%)" stroke-width="0.00042"></path>
<path d="M1.524 0.108 Q0.953 -0.004 0.608 0.249" stroke="hsl(180.0,100%,35%)" stroke-width="0.00042"></path>
<path d="M1.524 0.108 Q0.709 -0.027 0.267 0.341" stroke="hsl(180.0,100%,35%)" stroke-width="0.00292"></path>
<path d="M1.524 0.108 Q0.611 0.046 0.290 0.478" stroke="hsl(180.0,100%,35%)" stroke-width="0.00167"></path>
<path d="M1.524 0.108 Q0.570 0.274 0.684 0.775" stroke="hsl(180.0,100%,35%)" stroke-width="0.00500"></path>
<path d="M1.524 0.108 Q1.377 -0.000 1.133 0.048" stroke="hsl(180.0,100%,35%)" stroke-width="0.00167"></path>
<path d="M1.524 0.108 Q0.516 0.382 0.829 0.933" stroke="hsl(180.0,100%,35%)" stroke-width="0.00083"></path>
<path d="M1.524 0.108 Q1.370 0.078 1.277 0.147" stroke="hsl(180.0,100%,35%)" stroke-width="0.00250"></path>
<path d="M1.524 0.108 Q0.973 0.389 1.401 0.720" stroke="hsl(180.0,100%,35%)" stroke-width="0.00083"></path>
<path d="M1.524 0.108 Q1.295 0.414 1.841 0.592" stroke="hsl(180.0,100%,35%)" stroke-width="0.00042"></path>
<path d="M1.524 0.108 Q1.735 0.074 1.714 -0.037" stroke="hsl(180.0,100%,35%)" stroke-width="0.00042"></path>
<path d="M1.524 0.108 Q0.735 0.199 0.740 0.603" stroke="hsl(180.0,100%,35%)" stroke-width="0.00208"></path>
<path d="M1.524 0.108 Q0.488 0.126 0.295 0.635" stroke="hsl(180.0,100%,35%)" stroke-width="0.00042"></path>
<path d="M1.524 0.108 Q0.694 0.328 0.942 0.781" stroke="hsl(180.0,100%,35%)" stroke-width="0.00042"></path>
<path d="M0.384 0.804 Q0.696 0.549 0.267 0.341" stroke="hsl(180.0,100%,35%)" stroke-width="0.01583"></path>
<path d="M0.384 0.804 Q1.511 0.684 1.524 0.108" stroke="hsl(180.0,100%,35%)" stroke-width="0.00833"></path>
<path d="M0.384 0.804 Q0.372 0.903 0.562 0.930" stroke="hsl(180.0,100%,35%)" stroke-width="0.01042"></path>
<path d="M0.384 0.804 Q1.458 0.764 1.616 0.231" stroke="hsl(180.0,100%,35%)" stroke-width="0.00167"></path>
<path d="M0.384 0.804 Q0.598 0.622 0.290 0.478" stroke="hsl(180.0,100%,35%)" stroke-width="0.00250"></path>
<path d="M0.384 0.804 Q1.364 0.576 1.133 0.048" stroke="hsl(180.0,100%,35%)" stroke-width="0.00042"></path>
<path d="M0.384 0.804 Q0.723 0.775 0.740 0.603" stroke="hsl(180.0,100%,35%)" stroke-width="0.00625"></path>
<path d="M0.384 0.804 Q0.557 0.850 0.684 0.775" stroke="hsl(180.0,100%,35%)" stroke-width="0.01833"></path>
<path d="M0.384 0.804 Q0.831 0.468 0.273 0.176" stroke="hsl(180.0,100%,35%)" stroke-width="0.00042"></path>
<path d="M0.384 0.804 Q0.789 0.657 0.591 0.427" stroke="hsl(180.0,100%,35%)" stroke-width="0.00083"></path>
<path d="M0.384 0.804 Q0.503 0.958 0.829 0.933" stroke="hsl(180.0,100%,35%)" stroke-width="0.00042"></path>
<path d="M0.384 0.804 Q1.357 0.654 1.277 0.147" stroke="hsl(180.0,100%,35%)" stroke-width="0.00083"></path>
<path d="M0.384 0.804 Q0.758 1.027 1.276 0.894" stroke="hsl(180.0,100%,35%)" stroke-width="0.00042"></path>
<path d="M0.384 0.804 Q0.475 0.702 0.295 0.635" stroke="hsl(180.0,100%,35%)" stroke-width="0.00125"></path>
<path d="M0.384 0.804 Q0.960 0.965 1.401 0.720" stroke="hsl(180.0,100%,35%)" stroke-width="0.00042"></path>
<path d="M0.290 0.478 Q0.388 0.405 0.267 0.341" stroke="hsl(180.0,100%,35%)" stroke-width="0.01417"></path>
<path d="M0.290 0.478 Q0.064 0.758 0.562 0.930" stroke="hsl(180.0,100%,35%)" stroke-width="0.00167"></path>
<path d="M0.290 0.478 Q0.932 0.697 1.500 0.432" stroke="hsl(180.0,100%,35%)" stroke-width="0.00083"></path>
<path d="M0.290 0.478 Q0.249 0.705 0.684 0.775" stroke="hsl(180.0,100%,35%)" stroke-width="0.00875"></path>
<path d="M0.290 0.478 Q1.202 0.540 1.524 0.108" stroke="hsl(180.0,100%,35%)" stroke-width="0.00167"></path>
<path d="M0.290 0.478 Q0.076 0.660 0.384 0.804" stroke="hsl(180.0,100%,35%)" stroke-width="0.00250"></path>
<path d="M0.290 0.478 Q1.056 0.431 1.133 0.048" stroke="hsl(180.0,100%,35%)" stroke-width="0.00167"></path>
<path d="M0.290 0.478 Q1.049 0.510 1.277 0.147" stroke="hsl(180.0,100%,35%)" stroke-width="0.00125"></path>
<path d="M0.290 0.478 Q0.864 0.399 0.836 0.101" stroke="hsl(180.0,100%,35%)" stroke-width="0.00042"></path>
<path d="M0.290 0.478 Q0.414 0.630 0.740 0.603" stroke="hsl(180.0,100%,35%)" stroke-width="0.00208"></path>
<path d="M0.290 0.478 Q0.481 0.512 0.591 0.427" stroke="hsl(180.0,100%,35%)" stroke-width="0.00083"></path>
<path d="M0.290 0.478 Q0.167 0.558 0.295 0.635" stroke="hsl(180.0,100%,35%)" stroke-width="0.00042"></path>
<path d="M0.290 0.478 Q0.632 0.427 0.608 0.249" stroke="hsl(180.0,100%,35%)" stroke-width="0.00042"></path>
<path d="M0.290 0.478 Q1.062 0.726 1.715 0.404" stroke="hsl(180.0,100%,35%)" stroke-width="0.00042"></path>
<path d="M0.311 0.607 Q0.178 0.819 0.562 0.930" stroke="hsl(180.0,100%,35%)" stroke-width="0.00208"></path>
<path d="M0.311 0.607 Q0.363 0.766 0.684 0.775" stroke="hsl(180.0,100%,35%)" stroke-width="0.00083"></path>
<path d="M0.311 0.607 Q0.403 0.538 0.290 0.478" stroke="hsl(180.0,100%,35%)" stroke-width="0.00042"></path>
<path d="M0.311 0.607 Q0.528 0.691 0.740 0.603" stroke="hsl(180.0,100%,35%)" stroke-width="0.00125"></path>
<path d="M0.311 0.607 Q0.280 0.618 0.295 0.635" stroke="hsl(180.0,100%,35%)" stroke-width="0.00042"></path>
<path d="M0.311 0.607 Q1.264 0.680 1.616 0.231" stroke="hsl(180.0,100%,35%)" stroke-width="0.00042"></path>
<path d="M1.133 0.048 Q0.942 0.015 0.836 0.101" stroke="hsl(0.0,100%,35%)" stroke-width="0.00250"></path>
<path d="M1.133 0.048 Q0.710 0.043 0.608 0.249" stroke="hsl(0.0,100%,35%)" stroke-width="0.00833"></path>
<path d="M1.133 0.048 Q0.367 0.094 0.290 0.478" stroke="hsl(0.0,100%,35%)" stroke-width="0.00083"></path>
<path d="M1.133 0.048 Q0.142 0.374 0.562 0.930" stroke="hsl(0.0,100%,35%)" stroke-width="0.00083"></path>
<path d="M1.133 0.048 Q1.126 0.126 1.277 0.147" stroke="hsl(0.0,100%,35%)" stroke-width="0.01708"></path>
<path d="M1.133 0.048 Q0.327 0.322 0.684 0.775" stroke="hsl(0.0,100%,35%)" stroke-width="0.00167"></path>
<path d="M1.133 0.048 Q1.280 0.156 1.524 0.108" stroke="hsl(0.0,100%,35%)" stroke-width="0.00083"></path>
<path d="M1.133 0.048 Q0.451 0.376 0.942 0.781" stroke="hsl(0.0,100%,35%)" stroke-width="0.00042"></path>
<path d="M1.133 0.048 Q1.009 0.313 1.500 0.432" stroke="hsl(0.0,100%,35%)" stroke-width="0.00042"></path>
<path d="M1.133 0.048 Q0.729 0.437 1.401 0.720" stroke="hsl(0.0,100%,35%)" stroke-width="0.00042"></path>
<path d="M1.133 0.048 Q0.492 0.247 0.740 0.603" stroke="hsl(0.0,100%,35%)" stroke-width="0.00042"></path>
<path d="M1.133 0.048 Q0.639 0.130 0.691 0.389" stroke="hsl(0.0,100%,35%)" stroke-width="0.00042"></path>
<path d="M1.616 0.231 Q0.530 0.370 0.562 0.930" stroke="hsl(180.0,100%,35%)" stroke-width="0.00958"></path>
<path d="M1.616 0.231 Q0.755 0.089 0.290 0.478" stroke="hsl(180.0,100%,35%)" stroke-width="0.00083"></path>
<path d="M1.616 0.231 Q1.117 0.433 1.401 0.720" stroke="hsl(180.0,100%,35%)" stroke-width="0.00042"></path>
<path d="M1.616 0.231 Q0.854 0.016 0.267 0.341" stroke="hsl(180.0,100%,35%)" stroke-width="0.00292"></path>
<path d="M1.616 0.231 Q1.098 0.039 0.608 0.249" stroke="hsl(180.0,100%,35%)" stroke-width="0.00083"></path>
<path d="M1.616 0.231 Q1.397 0.308 1.500 0.432" stroke="hsl(180.0,100%,35%)" stroke-width="0.00042"></path>
<path d="M1.616 0.231 Q0.715 0.317 0.684 0.775" stroke="hsl(180.0,100%,35%)" stroke-width="0.00042"></path>
<path d="M1.616 0.231 Q1.668 0.151 1.524 0.108" stroke="hsl(180.0,100%,35%)" stroke-width="0.02042"></path>
<path d="M1.616 0.231 Q0.541 0.271 0.384 0.804" stroke="hsl(180.0,100%,35%)" stroke-width="0.00250"></path>
<path d="M1.616 0.231 Q1.470 0.225 1.426 0.295" stroke="hsl(180.0,100%,35%)" stroke-width="0.00042"></path>
<path d="M1.616 0.231 Q0.880 0.242 0.740 0.603" stroke="hsl(180.0,100%,35%)" stroke-width="0.00083"></path>
<path d="M1.616 0.231 Q0.662 0.158 0.311 0.607" stroke="hsl(180.0,100%,35%)" stroke-width="0.00042"></path>
<path d="M1.616 0.231 Q1.514 0.121 1.277 0.147" stroke="hsl(180.0,100%,35%)" stroke-width="0.00125"></path>
<path d="M1.616 0.231 Q0.947 0.124 0.591 0.427" stroke="hsl(180.0,100%,35%)" stroke-width="0.00042"></path>
<path d="M1.616 0.231 Q1.521 0.043 1.133 0.048" stroke="hsl(180.0,100%,35%)" stroke-width="0.00083"></path>
<path d="M0.829 0.933 Q1.836 0.660 1.524 0.108" stroke="hsl(180.0,100%,35%)" stroke-width="0.00167"></path>
<path d="M0.829 0.933 Q0.698 0.878 0.562 0.930" stroke="hsl(180.0,100%,35%)" stroke-width="0.00167"></path>
<path d="M0.829 0.933 Q0.831 0.667 0.311 0.607" stroke="hsl(180.0,100%,35%)" stroke-width="0.00042"></path>
<path d="M0.829 0.933 Q1.022 0.525 0.267 0.341" stroke="hsl(180.0,100%,35%)" stroke-width="0.00083"></path>
<path d="M0.829 0.933 Q1.048 0.751 0.740 0.603" stroke="hsl(180.0,100%,35%)" stroke-width="0.00167"></path>
<path d="M0.829 0.933 Q1.784 0.740 1.616 0.231" stroke="hsl(180.0,100%,35%)" stroke-width="0.00167"></path>
<path d="M0.829 0.933 Q0.924 0.598 0.290 0.478" stroke="hsl(180.0,100%,35%)" stroke-width="0.00042"></path>
<path d="M0.829 0.933 Q1.286 0.941 1.401 0.720" stroke="hsl(180.0,100%,35%)" stroke-width="0.00042"></path>
<path d="M1.426 0.295 Q1.572 0.301 1.616 0.231" stroke="hsl(180.0,100%,35%)" stroke-width="0.00583"></path>
<path d="M1.426 0.295 Q0.810 0.086 0.267 0.341" stroke="hsl(180.0,100%,35%)" stroke-width="0.00042"></path>
<path d="M1.426 0.295 Q0.711 0.159 0.290 0.478" stroke="hsl(180.0,100%,35%)" stroke-width="0.00042"></path>
<path d="M0.267 0.341 Q-0.045 0.596 0.384 0.804" stroke="hsl(180.0,100%,35%)" stroke-width="0.00083"></path>
<path d="M0.267 0.341 Q0.128 0.641 0.684 0.775" stroke="hsl(180.0,100%,35%)" stroke-width="0.00417"></path>
<path d="M0.267 0.341 Q0.169 0.414 0.290 0.478" stroke="hsl(180.0,100%,35%)" stroke-width="0.01417"></path>
<path d="M0.267 0.341 Q0.293 0.567 0.740 0.603" stroke="hsl(180.0,100%,35%)" stroke-width="0.00083"></path>
<path d="M0.267 0.341 Q-0.057 0.694 0.562 0.930" stroke="hsl(180.0,100%,35%)" stroke-width="0.00375"></path>
<path d="M0.267 0.341 Q1.029 0.556 1.616 0.231" stroke="hsl(180.0,100%,35%)" stroke-width="0.00125"></path>
<path d="M0.267 0.341 Q0.595 0.432 0.844 0.292" stroke="hsl(180.0,100%,35%)" stroke-width="0.00042"></path>
<path d="M0.267 0.341 Q0.360 0.448 0.591 0.427" stroke="hsl(180.0,100%,35%)" stroke-width="0.00167"></path>
<path d="M0.267 0.341 Q0.927 0.446 1.277 0.147" stroke="hsl(180.0,100%,35%)" stroke-width="0.00042"></path>
<path d="M0.267 0.341 Q0.490 0.561 0.968 0.500" stroke="hsl(180.0,100%,35%)" stroke-width="0.00083"></path>
<path d="M0.295 0.635 Q0.543 0.708 0.740 0.603" stroke="hsl(180.0,100%,35%)" stroke-width="0.00333"></path>
<path d="M0.295 0.635 Q0.326 0.624 0.311 0.607" stroke="hsl(180.0,100%,35%)" stroke-width="0.00042"></path>
<path d="M0.295 0.635 Q0.378 0.783 0.684 0.775" stroke="hsl(180.0,100%,35%)" stroke-width="0.00042"></path>
<path d="M0.295 0.635 Q1.279 0.697 1.616 0.231" stroke="hsl(180.0,100%,35%)" stroke-width="0.00042"></path>
<path d="M0.295 0.635 Q0.205 0.737 0.384 0.804" stroke="hsl(180.0,100%,35%)" stroke-width="0.00083"></path>
<path d="M0.295 0.635 Q0.324 0.891 0.829 0.933" stroke="hsl(180.0,100%,35%)" stroke-width="0.00042"></path>
<path d="M0.295 0.635 Q0.419 0.555 0.290 0.478" stroke="hsl(180.0,100%,35%)" stroke-width="0.00042"></path>
<path d="M0.691 0.389 Q0.544 0.506 0.740 0.603" stroke="hsl(0.0,100%,35%)" stroke-width="0.00208"></path>
<path d="M0.691 0.389 Q0.762 0.303 0.608 0.249" stroke="hsl(0.0,100%,35%)" stroke-width="0.00708"></path>
<path d="M0.691 0.389 Q0.845 0.371 0.844 0.292" stroke="hsl(0.0,100%,35%)" stroke-width="0.00042"></path>
<path d="M0.691 0.389 Q1.279 0.495 1.616 0.231" stroke="hsl(0.0,100%,35%)" stroke-width="0.00333"></path>
<path d="M0.691 0.389 Q1.178 0.385 1.277 0.147" stroke="hsl(0.0,100%,35%)" stroke-width="0.00125"></path>
<path d="M0.836 0.101 Q1.028 0.134 1.133 0.048" stroke="hsl(0.0,100%,35%)" stroke-width="0.01083"></path>
<path d="M0.836 0.101 Q0.036 0.461 0.562 0.930" stroke="hsl(0.0,100%,35%)" stroke-width="0.00042"></path>
<path d="M0.836 0.101 Q0.262 0.180 0.290 0.478" stroke="hsl(0.0,100%,35%)" stroke-width="0.00042"></path>
<path d="M0.836 0.101 Q0.604 0.130 0.608 0.249" stroke="hsl(0.0,100%,35%)" stroke-width="0.00625"></path>
<path d="M0.836 0.101 Q1.020 0.212 1.277 0.147" stroke="hsl(0.0,100%,35%)" stroke-width="0.01000"></path>
<path d="M0.836 0.101 Q0.850 0.240 1.124 0.263" stroke="hsl(0.0,100%,35%)" stroke-width="0.00042"></path>
<path d="M0.608 0.249 Q1.032 0.253 1.133 0.048" stroke="hsl(0.0,100%,35%)" stroke-width="0.00333"></path>
<path d="M0.608 0.249 Q0.841 0.221 0.836 0.101" stroke="hsl(0.0,100%,35%)" stroke-width="0.00167"></path>
<path d="M0.608 0.249 Q1.025 0.332 1.277 0.147" stroke="hsl(0.0,100%,35%)" stroke-width="0.00333"></path>
<path d="M0.608 0.249 Q0.040 0.580 0.562 0.930" stroke="hsl(0.0,100%,35%)" stroke-width="0.00083"></path>
<path d="M0.608 0.249 Q0.692 0.317 0.844 0.292" stroke="hsl(0.0,100%,35%)" stroke-width="0.00042"></path>
<path d="M1.500 0.432 Q1.432 0.134 0.836 0.101" stroke="hsl(0.0,100%,35%)" stroke-width="0.00125"></path>
<path d="M1.500 0.432 Q1.718 0.355 1.616 0.231" stroke="hsl(0.0,100%,35%)" stroke-width="0.00042"></path>
<path d="M1.500 0.432 Q0.982 0.366 0.740 0.603" stroke="hsl(0.0,100%,35%)" stroke-width="0.00042"></path>
<path d="M1.500 0.432 Q0.632 0.493 0.562 0.930" stroke="hsl(0.0,100%,35%)" stroke-width="0.00125"></path>
<path d="M1.500 0.432 Q0.817 0.440 0.684 0.775" stroke="hsl(0.0,100%,35%)" stroke-width="0.00042"></path>
<path d="M1.500 0.432 Q1.344 0.413 1.274 0.485" stroke="hsl(0.0,100%,35%)" stroke-width="0.00042"></path>
<path d="M1.500 0.432 Q0.858 0.213 0.290 0.478" stroke="hsl(0.0,100%,35%)" stroke-width="0.00042"></path>
<path d="M1.401 0.720 Q0.813 0.657 0.562 0.930" stroke="hsl(180.0,100%,35%)" stroke-width="0.00125"></path>
<path d="M1.401 0.720 Q1.230 0.411 0.591 0.427" stroke="hsl(180.0,100%,35%)" stroke-width="0.00083"></path>
<path d="M1.401 0.720 Q1.200 0.782 1.276 0.894" stroke="hsl(180.0,100%,35%)" stroke-width="0.00083"></path>
<path d="M1.401 0.720 Q1.952 0.438 1.524 0.108" stroke="hsl(180.0,100%,35%)" stroke-width="0.00250"></path>
<path d="M1.401 0.720 Q0.825 0.558 0.384 0.804" stroke="hsl(180.0,100%,35%)" stroke-width="0.00125"></path>
<path d="M1.401 0.720 Q1.805 0.330 1.133 0.048" stroke="hsl(180.0,100%,35%)" stroke-width="0.00042"></path>
<path d="M1.401 0.720 Q0.998 0.604 0.684 0.775" stroke="hsl(180.0,100%,35%)" stroke-width="0.00167"></path>
<path d="M1.401 0.720 Q1.899 0.518 1.616 0.231" stroke="hsl(180.0,100%,35%)" stroke-width="0.00083"></path>
<path d="M1.401 0.720 Q1.567 0.759 1.681 0.687" stroke="hsl(180.0,100%,35%)" stroke-width="0.00042"></path>
<path d="M0.273 0.176 Q0.459 0.158 0.465 0.063" stroke="hsl(0.0,100%,35%)" stroke-width="0.00250"></path>
<path d="M0.273 0.176 Q0.466 0.348 0.844 0.292" stroke="hsl(0.0,100%,35%)" stroke-width="0.00250"></path>
<path d="M0.273 0.176 Q0.123 0.612 0.942 0.781" stroke="hsl(0.0,100%,35%)" stroke-width="0.00083"></path>
<path d="M0.273 0.176 Q0.164 0.483 0.740 0.603" stroke="hsl(0.0,100%,35%)" stroke-width="0.00083"></path>
<path d="M0.465 0.063 Q0.812 0.189 1.133 0.048" stroke="hsl(0.0,100%,35%)" stroke-width="0.00083"></path>
<path d="M0.465 0.063 Q0.804 0.267 1.277 0.147" stroke="hsl(0.0,100%,35%)" stroke-width="0.00042"></path>
<path d="M0.465 0.063 Q0.472 0.253 0.844 0.292" stroke="hsl(0.0,100%,35%)" stroke-width="0.00042"></path>
<path d="M0.521 0.801 Q0.439 0.874 0.562 0.930" stroke="hsl(180.0,100%,35%)" stroke-width="0.00042"></path>
<path d="M0.521 0.801 Q1.027 0.937 1.401 0.720" stroke="hsl(180.0,100%,35%)" stroke-width="0.00042"></path>
<path d="M0.521 0.801 Q1.423 0.625 1.277 0.147" stroke="hsl(180.0,100%,35%)" stroke-width="0.00042"></path>
<path d="M0.591 0.427 Q0.399 0.392 0.290 0.478" stroke="hsl(180.0,100%,35%)" stroke-width="0.00417"></path>
<path d="M0.591 0.427 Q0.498 0.319 0.267 0.341" stroke="hsl(180.0,100%,35%)" stroke-width="0.00208"></path>
<path d="M0.591 0.427 Q0.185 0.574 0.384 0.804" stroke="hsl(180.0,100%,35%)" stroke-width="0.00042"></path>
<path d="M0.591 0.427 Q0.359 0.620 0.684 0.775" stroke="hsl(180.0,100%,35%)" stroke-width="0.00083"></path>
<path d="M0.591 0.427 Q0.742 0.341 0.608 0.249" stroke="hsl(180.0,100%,35%)" stroke-width="0.00042"></path>
<path d="M0.591 0.427 Q1.260 0.534 1.616 0.231" stroke="hsl(180.0,100%,35%)" stroke-width="0.00042"></path>
<path d="M0.591 0.427 Q0.721 0.539 0.968 0.500" stroke="hsl(180.0,100%,35%)" stroke-width="0.00042"></path>
<path d="M0.968 0.500 Q0.606 0.581 0.684 0.775" stroke="hsl(0.0,100%,35%)" stroke-width="0.00208"></path>
<path d="M0.968 0.500 Q0.647 0.353 0.290 0.478" stroke="hsl(0.0,100%,35%)" stroke-width="0.00333"></path>
<path d="M0.968 0.500 Q1.081 0.467 1.041 0.405" stroke="hsl(0.0,100%,35%)" stroke-width="0.00125"></path>
<path d="M0.968 0.500 Q1.406 0.385 1.277 0.147" stroke="hsl(0.0,100%,35%)" stroke-width="0.00083"></path>
<path d="M0.968 0.500 Q1.289 0.572 1.500 0.432" stroke="hsl(0.0,100%,35%)" stroke-width="0.00042"></path>
<path d="M0.968 0.500 Q0.433 0.535 0.384 0.804" stroke="hsl(0.0,100%,35%)" stroke-width="0.00042"></path>
<path d="M0.968 0.500 Q0.730 0.635 0.942 0.781" stroke="hsl(0.0,100%,35%)" stroke-width="0.00042"></path>
<path d="M1.266 0.386 Q0.490 0.419 0.384 0.804" stroke="hsl(0.0,100%,35%)" stroke-width="0.00042"></path>
<path d="M1.266 0.386 Q0.787 0.519 0.942 0.781" stroke="hsl(0.0,100%,35%)" stroke-width="0.00042"></path>
<path d="M1.266 0.386 Q1.617 0.299 1.524 0.108" stroke="hsl(0.0,100%,35%)" stroke-width="0.00042"></path>
<path d="M1.266 0.386 Q0.478 0.517 0.562 0.930" stroke="hsl(0.0,100%,35%)" stroke-width="0.00042"></path>
<path d="M1.266 0.386 Q1.346 0.456 1.500 0.432" stroke="hsl(0.0,100%,35%)" stroke-width="0.00083"></path>
<path d="M1.266 0.386 Q0.663 0.464 0.684 0.775" stroke="hsl(0.0,100%,35%)" stroke-width="0.00042"></path>
<path d="M1.266 0.386 Q0.829 0.389 0.740 0.603" stroke="hsl(0.0,100%,35%)" stroke-width="0.00042"></path>
<path d="M1.266 0.386 Q1.279 0.158 0.836 0.101" stroke="hsl(0.0,100%,35%)" stroke-width="0.00083"></path>
<path d="M1.388 0.245 Q1.565 0.204 1.524 0.108" stroke="hsl(180.0,100%,35%)" stroke-width="0.00125"></path>
<path d="M1.388 0.245 Q0.777 0.294 0.740 0.603" stroke="hsl(180.0,100%,35%)" stroke-width="0.00042"></path>
<path d="M1.388 0.245 Q0.439 0.324 0.384 0.804" stroke="hsl(180.0,100%,35%)" stroke-width="0.00042"></path>
<path d="M0.472 0.711 Q0.353 0.740 0.384 0.804" stroke="hsl(180.0,100%,35%)" stroke-width="0.00208"></path>
<path d="M0.472 0.711 Q0.650 0.840 0.942 0.781" stroke="hsl(180.0,100%,35%)" stroke-width="0.00042"></path>
<path d="M0.472 0.711 Q1.480 0.620 1.524 0.108" stroke="hsl(180.0,100%,35%)" stroke-width="0.00083"></path>
<path d="M0.472 0.711 Q0.759 0.593 0.591 0.427" stroke="hsl(180.0,100%,35%)" stroke-width="0.00042"></path>
<path d="M0.472 0.711 Q0.692 0.711 0.740 0.603" stroke="hsl(180.0,100%,35%)" stroke-width="0.00042"></path>
<path d="M1.715 0.404 Q0.729 0.338 0.384 0.804" stroke="hsl(180.0,100%,35%)" stroke-width="0.00125"></path>
<path d="M1.715 0.404 Q1.662 0.484 1.808 0.528" stroke="hsl(180.0,100%,35%)" stroke-width="0.00042"></path>
<path d="M1.715 0.404 Q1.856 0.218 1.524 0.108" stroke="hsl(180.0,100%,35%)" stroke-width="0.00083"></path>
<path d="M1.715 0.404 Q1.147 0.341 0.899 0.604" stroke="hsl(180.0,100%,35%)" stroke-width="0.00042"></path>
<path d="M1.808 0.528 Q1.860 0.447 1.715 0.404" stroke="hsl(180.0,100%,35%)" stroke-width="0.00125"></path>
<path d="M1.808 0.528 Q0.875 0.381 0.384 0.804" stroke="hsl(180.0,100%,35%)" stroke-width="0.00083"></path>
<path d="M1.808 0.528 Q1.048 0.427 0.684 0.775" stroke="hsl(180.0,100%,35%)" stroke-width="0.00042"></path>
<path d="M1.883 0.415 Q1.755 0.456 1.808 0.528" stroke="hsl(180.0,100%,35%)" stroke-width="0.00208"></path>
<path d="M1.883 0.415 Q1.808 0.376 1.715 0.404" stroke="hsl(180.0,100%,35%)" stroke-width="0.00208"></path>
<path d="M1.883 0.415 Q1.540 0.449 1.531 0.624" stroke="hsl(180.0,100%,35%)" stroke-width="0.00042"></path>
<path d="M1.883 0.415 Q0.822 0.310 0.384 0.804" stroke="hsl(180.0,100%,35%)" stroke-width="0.00125"></path>
<path d="M1.883 0.415 Q1.949 0.190 1.524 0.108" stroke="hsl(180.0,100%,35%)" stroke-width="0.00125"></path>
<path d="M1.883 0.415 Q1.630 0.408 1.561 0.529" stroke="hsl(180.0,100%,35%)" stroke-width="0.00042"></path>
<path d="M1.531 0.624 Q0.813 0.484 0.384 0.804" stroke="hsl(180.0,100%,35%)" stroke-width="0.00083"></path>
<path d="M1.531 0.624 Q1.622 0.583 1.561 0.529" stroke="hsl(180.0,100%,35%)" stroke-width="0.00083"></path>
<path d="M1.531 0.624 Q1.462 0.546 1.294 0.563" stroke="hsl(180.0,100%,35%)" stroke-width="0.00042"></path>
<path d="M1.531 0.624 Q1.354 0.543 1.158 0.612" stroke="hsl(180.0,100%,35%)" stroke-width="0.00083"></path>
<path d="M1.690 0.157 Q0.693 0.265 0.684 0.775" stroke="hsl(180.0,100%,35%)" stroke-width="0.00042"></path>
<path d="M1.690 0.157 Q1.646 0.099 1.524 0.108" stroke="hsl(180.0,100%,35%)" stroke-width="0.00042"></path>
<path d="M1.690 0.157 Q0.893 0.287 0.972 0.705" stroke="hsl(180.0,100%,35%)" stroke-width="0.00042"></path>
<path d="M1.690 0.157 Q0.641 0.106 0.311 0.607" stroke="hsl(180.0,100%,35%)" stroke-width="0.00042"></path>
<path d="M0.972 0.705 Q0.598 0.637 0.384 0.804" stroke="hsl(180.0,100%,35%)" stroke-width="0.00042"></path>
<path d="M0.972 0.705 Q1.584 0.703 1.715 0.404" stroke="hsl(180.0,100%,35%)" stroke-width="0.00083"></path>
<path d="M0.972 0.705 Q1.016 0.640 0.899 0.604" stroke="hsl(180.0,100%,35%)" stroke-width="0.00083"></path>
<path d="M0.972 0.705 Q1.725 0.517 1.524 0.108" stroke="hsl(180.0,100%,35%)" stroke-width="0.00042"></path>
<path d="M1.892 0.320 Q0.750 0.260 0.384 0.804" stroke="hsl(180.0,100%,35%)" stroke-width="0.00083"></path>
<path d="M1.892 0.320 Q1.877 0.140 1.524 0.108" stroke="hsl(180.0,100%,35%)" stroke-width="0.00083"></path>
<path d="M1.892 0.320 Q1.736 0.327 1.715 0.404" stroke="hsl(180.0,100%,35%)" stroke-width="0.00042"></path>
<path d="M0.914 0.843 Q0.853 0.763 0.684 0.775" stroke="hsl(180.0,100%,35%)" stroke-width="0.00167"></path>
<path d="M0.914 0.843 Q0.668 0.816 0.562 0.930" stroke="hsl(180.0,100%,35%)" stroke-width="0.00042"></path>
<path d="M0.914 0.843 Q0.799 0.871 0.829 0.933" stroke="hsl(180.0,100%,35%)" stroke-width="0.00042"></path>
<path d="M1.825 0.187 Q1.738 0.087 1.524 0.108" stroke="hsl(180.0,100%,35%)" stroke-width="0.00542"></path>
<path d="M1.825 0.187 Q0.985 0.430 1.276 0.894" stroke="hsl(180.0,100%,35%)" stroke-width="0.00042"></path>
<path d="M1.825 0.187 Q0.784 0.253 0.684 0.775" stroke="hsl(180.0,100%,35%)" stroke-width="0.00083"></path>
<path d="M1.825 0.187 Q0.611 0.207 0.384 0.804" stroke="hsl(180.0,100%,35%)" stroke-width="0.00042"></path>
<path d="M1.030 0.194 Q0.340 0.256 0.311 0.607" stroke="hsl(0.0,100%,35%)" stroke-width="0.00042"></path>
<path d="M1.030 0.194 Q1.346 0.250 1.524 0.108" stroke="hsl(0.0,100%,35%)" stroke-width="0.00042"></path>
<path d="M1.030 0.194 Q1.192 0.220 1.277 0.147" stroke="hsl(0.0,100%,35%)" stroke-width="0.00042"></path>
<path d="M1.294 0.563 Q0.646 0.501 0.384 0.804" stroke="hsl(180.0,100%,35%)" stroke-width="0.00125"></path>
<path d="M1.294 0.563 Q1.186 0.560 1.158 0.612" stroke="hsl(180.0,100%,35%)" stroke-width="0.00125"></path>
<path d="M1.294 0.563 Q1.364 0.641 1.531 0.624" stroke="hsl(180.0,100%,35%)" stroke-width="0.00083"></path>
<path d="M1.294 0.563 Q0.984 0.472 0.740 0.603" stroke="hsl(180.0,100%,35%)" stroke-width="0.00042"></path>
<path d="M0.993 0.645 Q1.688 0.483 1.524 0.108" stroke="hsl(180.0,100%,35%)" stroke-width="0.00083"></path>
<path d="M0.993 0.645 Q0.979 0.606 0.899 0.604" stroke="hsl(180.0,100%,35%)" stroke-width="0.00083"></path>
<path d="M0.993 0.645 Q1.547 0.669 1.715 0.404" stroke="hsl(180.0,100%,35%)" stroke-width="0.00042"></path>
<path d="M0.429 0.821 Q0.409 0.902 0.562 0.930" stroke="hsl(180.0,100%,35%)" stroke-width="0.00042"></path>
<path d="M0.429 0.821 Q0.732 0.549 0.267 0.341" stroke="hsl(180.0,100%,35%)" stroke-width="0.00042"></path>
<path d="M0.429 0.821 Q0.759 0.774 0.740 0.603" stroke="hsl(180.0,100%,35%)" stroke-width="0.00042"></path>
<path d="M0.864 0.368 Q0.915 0.326 0.844 0.292" stroke="hsl(0.0,100%,35%)" stroke-width="0.00083"></path>
<path d="M0.864 0.368 Q0.909 0.136 0.465 0.063" stroke="hsl(0.0,100%,35%)" stroke-width="0.00042"></path>
<path d="M0.864 0.368 Q1.248 0.340 1.277 0.147" stroke="hsl(0.0,100%,35%)" stroke-width="0.00042"></path>
<path d="M0.864 0.368 Q0.614 0.461 0.740 0.603" stroke="hsl(0.0,100%,35%)" stroke-width="0.00042"></path>
<path d="M0.864 0.368 Q0.449 0.536 0.684 0.775" stroke="hsl(0.0,100%,35%)" stroke-width="0.00042"></path>
<path d="M0.864 0.368 Q0.264 0.589 0.562 0.930" stroke="hsl(0.0,100%,35%)" stroke-width="0.00042"></path>
</g>
<text x="1.094" y="0.365" font-size="0.005754" fill="hsl(0.0,100%,20%)">alexnj</text>
<text x="0.844" y="0.281" font-size="0.022037" fill="hsl(0.0,100%,20%)">paulirish</text>
<text x="1.277" y="0.121" font-size="0.050712" fill="hsl(0.0,100%,20%)">jacktfranklin</text>
<text x="0.740" y="0.576" font-size="0.055194" fill="hsl(180.0,100%,20%)">alexrudenko</text>
<text x="0.684" y="0.743" font-size="0.064078" fill="hsl(180.0,100%,20%)">szuend</text>
<text x="0.562" y="0.894" font-size="0.072636" fill="hsl(180.0,100%,20%)">bmeurer</text>
<text x="1.524" y="0.080" font-size="0.057062" fill="hsl(180.0,100%,20%)">wolfi</text>
<text x="0.384" y="0.773" font-size="0.062065" fill="hsl(180.0,100%,20%)">dsv</text>
<text x="0.290" y="0.452" font-size="0.051469" fill="hsl(180.0,100%,20%)">pfaffe</text>
<text x="0.311" y="0.598" font-size="0.018498" fill="hsl(180.0,100%,20%)">nvitkov</text>
<text x="1.133" y="0.022" font-size="0.051038" fill="hsl(0.0,100%,20%)">andoli</text>
<text x="1.616" y="0.209" font-size="0.044449" fill="hsl(180.0,100%,20%)">kprokopenko</text>
<text x="0.829" y="0.920" font-size="0.027597" fill="hsl(180.0,100%,20%)">yangguo</text>
<text x="1.426" y="0.286" font-size="0.017263" fill="hsl(180.0,100%,20%)">petermueller</text>
<text x="0.510" y="0.641" font-size="0.003322" fill="hsl(180.0,100%,20%)">tperrotta</text>
<text x="0.267" y="0.317" font-size="0.047684" fill="hsl(180.0,100%,20%)">ergunsh</text>
<text x="0.295" y="0.627" font-size="0.015933" fill="hsl(180.0,100%,20%)">jrandolf</text>
<text x="0.942" y="0.775" font-size="0.011509" fill="hsl(0.0,100%,20%)">mathias</text>
<text x="0.691" y="0.379" font-size="0.019934" fill="hsl(0.0,100%,20%)">hadrienjaubert</text>
<text x="0.836" y="0.086" font-size="0.031166" fill="hsl(0.0,100%,20%)">alinavarkki</text>
<text x="0.608" y="0.233" font-size="0.032039" fill="hsl(0.0,100%,20%)">nancyly</text>
<text x="1.124" y="0.260" font-size="0.007429" fill="hsl(0.0,100%,20%)">victorporof</text>
<text x="1.500" y="0.424" font-size="0.014858" fill="hsl(0.0,100%,20%)">leese</text>
<text x="1.401" y="0.710" font-size="0.018794" fill="hsl(180.0,100%,20%)">jec</text>
<text x="0.273" y="0.169" font-size="0.013698" fill="hsl(0.0,100%,20%)">asraine</text>
<text x="0.465" y="0.058" font-size="0.011019" fill="hsl(0.0,100%,20%)">cjamcl</text>
<text x="0.521" y="0.799" font-size="0.005754" fill="hsl(180.0,100%,20%)">barrypollard</text>
<text x="0.591" y="0.417" font-size="0.019372" fill="hsl(180.0,100%,20%)">changhaohan</text>
<text x="1.221" y="0.757" font-size="0.004698" fill="hsl(180.0,100%,20%)">caseq</text>
<text x="1.040" y="0.695" font-size="0.009397" fill="hsl(180.0,100%,20%)">jarin</text>
<text x="0.968" y="0.492" font-size="0.016276" fill="hsl(0.0,100%,20%)">liviurau</text>
<text x="1.266" y="0.381" font-size="0.010506" fill="hsl(0.0,100%,20%)">chrche</text>
<text x="1.276" y="0.890" font-size="0.006645" fill="hsl(180.0,100%,20%)">semel</text>
<text x="1.388" y="0.241" font-size="0.007429" fill="hsl(180.0,100%,20%)">elormcoch</text>
<text x="1.681" y="0.685" font-size="0.003322" fill="hsl(180.0,100%,20%)">tomac</text>
<text x="0.472" y="0.706" font-size="0.010506" fill="hsl(180.0,100%,20%)">jimmyseto</text>
<text x="1.715" y="0.396" font-size="0.014858" fill="hsl(180.0,100%,20%)">kenoss</text>
<text x="1.808" y="0.522" font-size="0.011509" fill="hsl(180.0,100%,20%)">lingqi</text>
<text x="0.899" y="0.600" font-size="0.007429" fill="hsl(180.0,100%,20%)">domenic</text>
<text x="1.274" y="0.484" font-size="0.003322" fill="hsl(0.0,100%,20%)">almuthanna</text>
<text x="1.041" y="0.402" font-size="0.005754" fill="hsl(0.0,100%,20%)">machenbach</text>
<text x="1.883" y="0.408" font-size="0.014095" fill="hsl(180.0,100%,20%)">miinak</text>
<text x="1.531" y="0.618" font-size="0.010506" fill="hsl(180.0,100%,20%)">sisidovski</text>
<text x="1.561" y="0.527" font-size="0.005754" fill="hsl(180.0,100%,20%)">kouhei</text>
<text x="1.690" y="0.154" font-size="0.006645" fill="hsl(180.0,100%,20%)">morlovich</text>
<text x="0.972" y="0.700" font-size="0.008790" fill="hsl(180.0,100%,20%)">nhiroki</text>
<text x="1.892" y="0.316" font-size="0.007429" fill="hsl(180.0,100%,20%)">robertlin</text>
<text x="0.914" y="0.839" font-size="0.008138" fill="hsl(180.0,100%,20%)">seth.brenith</text>
<text x="1.825" y="0.180" font-size="0.014095" fill="hsl(180.0,100%,20%)">shuuran</text>
<text x="1.030" y="0.191" font-size="0.005754" fill="hsl(0.0,100%,20%)">silviaeremia</text>
<text x="1.294" y="0.557" font-size="0.010506" fill="hsl(180.0,100%,20%)">tnak</text>
<text x="1.158" y="0.609" font-size="0.007429" fill="hsl(180.0,100%,20%)">yyanagisawa</text>
<text x="0.993" y="0.641" font-size="0.007429" fill="hsl(180.0,100%,20%)">taiyo</text>
<text x="0.429" y="0.818" font-size="0.005754" fill="hsl(180.0,100%,20%)">tkent</text>
<text x="0.864" y="0.364" font-size="0.008790" fill="hsl(0.0,100%,20%)">vidorteg</text>
<text x="1.841" y="0.591" font-size="0.003322" fill="hsl(180.0,100%,20%)">mathiasb</text>
<text x="1.714" y="-0.039" font-size="0.003322" fill="hsl(180.0,100%,20%)">tsepez</text>
</svg>
