<svg width="4000" height="2000" viewBox="-0.025 -0.025 2.05 1.05" xmlns="http://www.w3.org/2000/svg">
  <style>
    path {
      fill: none;
      stroke-linecap: round;
      stroke-opacity: 0.4;
    }

    text {
      text-anchor: middle;
      alignment-baseline: hanging;
    }
  </style>
  <g opacity="0.4">
<path d="M1.781 0.766 Q1.721 0.664 1.509 0.671" stroke="hsl(0.0,100%,35%)" stroke-width="0.00070"></path>
<path d="M1.781 0.766 Q1.064 0.557 0.498 0.860" stroke="hsl(0.0,100%,35%)" stroke-width="0.00070"></path>
<path d="M1.781 0.766 Q1.455 0.587 1.033 0.706" stroke="hsl(0.0,100%,35%)" stroke-width="0.00070"></path>
<path d="M1.509 0.671 Q0.852 0.563 0.498 0.860" stroke="hsl(0.0,100%,35%)" stroke-width="0.00417"></path>
<path d="M1.509 0.671 Q0.954 0.637 0.766 0.901" stroke="hsl(0.0,100%,35%)" stroke-width="0.00278"></path>
<path d="M1.509 0.671 Q0.910 0.468 0.383 0.716" stroke="hsl(0.0,100%,35%)" stroke-width="0.00070"></path>
<path d="M0.498 0.860 Q0.600 0.934 0.766 0.901" stroke="hsl(0.0,100%,35%)" stroke-width="0.05005"></path>
<path d="M0.498 0.860 Q1.325 0.743 1.277 0.314" stroke="hsl(0.0,100%,35%)" stroke-width="0.00139"></path>
<path d="M0.498 0.860 Q0.556 0.765 0.383 0.716" stroke="hsl(0.0,100%,35%)" stroke-width="0.00348"></path>
<path d="M0.498 0.860 Q0.637 0.817 0.583 0.740" stroke="hsl(0.0,100%,35%)" stroke-width="0.00209"></path>
<path d="M0.498 0.860 Q1.080 0.848 1.184 0.561" stroke="hsl(0.0,100%,35%)" stroke-width="0.00139"></path>
<path d="M0.498 0.860 Q1.155 0.968 1.509 0.671" stroke="hsl(0.0,100%,35%)" stroke-width="0.00139"></path>
<path d="M0.498 0.860 Q0.680 0.848 0.696 0.757" stroke="hsl(0.0,100%,35%)" stroke-width="0.00070"></path>
<path d="M0.498 0.860 Q0.889 0.890 1.033 0.706" stroke="hsl(0.0,100%,35%)" stroke-width="0.00070"></path>
<path d="M1.033 0.706 Q1.469 0.559 1.277 0.314" stroke="hsl(180.0,100%,35%)" stroke-width="0.00626"></path>
<path d="M1.033 0.706 Q0.986 0.626 0.819 0.631" stroke="hsl(180.0,100%,35%)" stroke-width="0.02572"></path>
<path d="M1.033 0.706 Q0.642 0.676 0.498 0.860" stroke="hsl(180.0,100%,35%)" stroke-width="0.00139"></path>
<path d="M1.033 0.706 Q0.935 0.753 1.003 0.810" stroke="hsl(180.0,100%,35%)" stroke-width="0.00417"></path>
<path d="M1.033 0.706 Q0.744 0.750 0.766 0.901" stroke="hsl(180.0,100%,35%)" stroke-width="0.00070"></path>
<path d="M1.033 0.706 Q0.905 0.384 0.247 0.375" stroke="hsl(180.0,100%,35%)" stroke-width="0.00139"></path>
<path d="M1.033 0.706 Q1.301 0.481 0.920 0.300" stroke="hsl(180.0,100%,35%)" stroke-width="0.00556"></path>
<path d="M1.033 0.706 Q0.784 0.377 0.086 0.425" stroke="hsl(180.0,100%,35%)" stroke-width="0.00070"></path>
<path d="M1.033 0.706 Q1.235 0.587 1.046 0.461" stroke="hsl(180.0,100%,35%)" stroke-width="0.00834"></path>
<path d="M1.033 0.706 Q0.836 0.465 0.321 0.508" stroke="hsl(180.0,100%,35%)" stroke-width="0.00417"></path>
<path d="M1.033 0.706 Q0.951 0.635 0.793 0.659" stroke="hsl(180.0,100%,35%)" stroke-width="0.00070"></path>
<path d="M1.033 0.706 Q1.385 0.696 1.442 0.522" stroke="hsl(180.0,100%,35%)" stroke-width="0.00070"></path>
<path d="M1.033 0.706 Q0.908 0.664 0.799 0.715" stroke="hsl(180.0,100%,35%)" stroke-width="0.00070"></path>
<path d="M1.277 0.314 Q1.033 0.419 1.184 0.561" stroke="hsl(180.0,100%,35%)" stroke-width="0.00834"></path>
<path d="M1.277 0.314 Q0.841 0.461 1.033 0.706" stroke="hsl(180.0,100%,35%)" stroke-width="0.00417"></path>
<path d="M1.277 0.314 Q1.551 0.239 1.463 0.088" stroke="hsl(180.0,100%,35%)" stroke-width="0.00139"></path>
<path d="M1.277 0.314 Q1.044 0.342 1.046 0.461" stroke="hsl(180.0,100%,35%)" stroke-width="0.00556"></path>
<path d="M1.277 0.314 Q0.795 0.381 0.819 0.631" stroke="hsl(180.0,100%,35%)" stroke-width="0.01321"></path>
<path d="M1.277 0.314 Q1.193 0.451 1.442 0.522" stroke="hsl(180.0,100%,35%)" stroke-width="0.00070"></path>
<path d="M1.277 0.314 Q0.645 0.220 0.321 0.508" stroke="hsl(180.0,100%,35%)" stroke-width="0.00556"></path>
<path d="M1.277 0.314 Q1.434 0.238 1.319 0.145" stroke="hsl(180.0,100%,35%)" stroke-width="0.00070"></path>
<path d="M0.819 0.631 Q0.669 0.470 0.321 0.508" stroke="hsl(180.0,100%,35%)" stroke-width="0.00209"></path>
<path d="M0.819 0.631 Q1.301 0.564 1.277 0.314" stroke="hsl(180.0,100%,35%)" stroke-width="0.00904"></path>
<path d="M0.819 0.631 Q1.217 0.701 1.442 0.522" stroke="hsl(180.0,100%,35%)" stroke-width="0.01390"></path>
<path d="M0.819 0.631 Q1.134 0.486 0.920 0.300" stroke="hsl(180.0,100%,35%)" stroke-width="0.00070"></path>
<path d="M0.819 0.631 Q1.057 0.669 1.184 0.561" stroke="hsl(180.0,100%,35%)" stroke-width="0.00139"></path>
<path d="M0.819 0.631 Q1.068 0.592 1.046 0.461" stroke="hsl(180.0,100%,35%)" stroke-width="0.00487"></path>
<path d="M0.819 0.631 Q0.475 0.681 0.498 0.860" stroke="hsl(180.0,100%,35%)" stroke-width="0.00139"></path>
<path d="M0.819 0.631 Q0.799 0.523 0.586 0.510" stroke="hsl(180.0,100%,35%)" stroke-width="0.00070"></path>
<path d="M0.819 0.631 Q0.865 0.711 1.033 0.706" stroke="hsl(180.0,100%,35%)" stroke-width="0.00139"></path>
<path d="M1.003 0.810 Q1.101 0.764 1.033 0.706" stroke="hsl(180.0,100%,35%)" stroke-width="0.00209"></path>
<path d="M1.003 0.810 Q1.304 0.645 1.046 0.461" stroke="hsl(180.0,100%,35%)" stroke-width="0.00070"></path>
<path d="M1.003 0.810 Q1.537 0.617 1.277 0.314" stroke="hsl(180.0,100%,35%)" stroke-width="0.00070"></path>
<path d="M1.003 0.810 Q0.977 0.722 0.799 0.715" stroke="hsl(180.0,100%,35%)" stroke-width="0.00070"></path>
<path d="M1.003 0.810 Q0.973 0.442 0.247 0.375" stroke="hsl(180.0,100%,35%)" stroke-width="0.00070"></path>
<path d="M0.766 0.901 Q0.664 0.827 0.498 0.860" stroke="hsl(0.0,100%,35%)" stroke-width="0.01321"></path>
<path d="M0.766 0.901 Q0.722 0.732 0.383 0.716" stroke="hsl(0.0,100%,35%)" stroke-width="0.00834"></path>
<path d="M0.766 0.901 Q1.491 0.710 1.277 0.314" stroke="hsl(0.0,100%,35%)" stroke-width="0.00139"></path>
<path d="M0.766 0.901 Q1.246 0.815 1.184 0.561" stroke="hsl(0.0,100%,35%)" stroke-width="0.00070"></path>
<path d="M0.766 0.901 Q0.803 0.784 0.583 0.740" stroke="hsl(0.0,100%,35%)" stroke-width="0.00070"></path>
<path d="M0.766 0.901 Q1.257 0.737 1.046 0.461" stroke="hsl(0.0,100%,35%)" stroke-width="0.00139"></path>
<path d="M0.247 0.375 Q0.727 0.688 1.442 0.522" stroke="hsl(180.0,100%,35%)" stroke-width="0.00278"></path>
<path d="M0.247 0.375 Q0.126 0.368 0.086 0.425" stroke="hsl(180.0,100%,35%)" stroke-width="0.00070"></path>
<path d="M0.247 0.375 Q0.578 0.578 1.046 0.461" stroke="hsl(180.0,100%,35%)" stroke-width="0.01043"></path>
<path d="M0.247 0.375 Q0.178 0.456 0.321 0.508" stroke="hsl(180.0,100%,35%)" stroke-width="0.01599"></path>
<path d="M0.247 0.375 Q0.375 0.698 1.033 0.706" stroke="hsl(180.0,100%,35%)" stroke-width="0.00139"></path>
<path d="M0.247 0.375 Q0.277 0.744 1.003 0.810" stroke="hsl(180.0,100%,35%)" stroke-width="0.00070"></path>
<path d="M0.247 0.375 Q-0.016 0.668 0.498 0.860" stroke="hsl(180.0,100%,35%)" stroke-width="0.00209"></path>
<path d="M0.247 0.375 Q0.042 0.573 0.383 0.716" stroke="hsl(180.0,100%,35%)" stroke-width="0.00070"></path>
<path d="M0.247 0.375 Q0.567 0.656 1.184 0.561" stroke="hsl(180.0,100%,35%)" stroke-width="0.00070"></path>
<path d="M0.247 0.375 Q0.469 0.624 1.004 0.571" stroke="hsl(180.0,100%,35%)" stroke-width="0.00070"></path>
<path d="M0.247 0.375 Q0.086 0.742 0.766 0.901" stroke="hsl(180.0,100%,35%)" stroke-width="0.00070"></path>
<path d="M0.247 0.375 Q0.329 0.617 0.819 0.631" stroke="hsl(180.0,100%,35%)" stroke-width="0.00209"></path>
<path d="M0.920 0.300 Q0.854 0.406 1.046 0.461" stroke="hsl(180.0,100%,35%)" stroke-width="0.00278"></path>
<path d="M0.920 0.300 Q1.003 0.516 1.442 0.522" stroke="hsl(180.0,100%,35%)" stroke-width="0.00139"></path>
<path d="M0.920 0.300 Q0.651 0.526 1.033 0.706" stroke="hsl(180.0,100%,35%)" stroke-width="0.00070"></path>
<path d="M0.920 0.300 Q0.523 0.203 0.247 0.375" stroke="hsl(180.0,100%,35%)" stroke-width="0.00209"></path>
<path d="M0.920 0.300 Q0.843 0.484 1.184 0.561" stroke="hsl(180.0,100%,35%)" stroke-width="0.00070"></path>
<path d="M0.920 0.300 Q0.375 0.216 0.091 0.463" stroke="hsl(180.0,100%,35%)" stroke-width="0.00070"></path>
<path d="M0.920 0.300 Q0.553 0.572 1.003 0.810" stroke="hsl(180.0,100%,35%)" stroke-width="0.00070"></path>
<path d="M0.920 0.300 Q0.455 0.284 0.321 0.508" stroke="hsl(180.0,100%,35%)" stroke-width="0.00209"></path>
<path d="M0.086 0.425 Q0.207 0.433 0.247 0.375" stroke="hsl(180.0,100%,35%)" stroke-width="0.00556"></path>
<path d="M0.086 0.425 Q0.687 0.745 1.442 0.522" stroke="hsl(180.0,100%,35%)" stroke-width="0.00070"></path>
<path d="M0.086 0.425 Q0.526 0.713 1.184 0.561" stroke="hsl(180.0,100%,35%)" stroke-width="0.00070"></path>
<path d="M1.046 0.461 Q0.647 0.340 0.321 0.508" stroke="hsl(180.0,100%,35%)" stroke-width="0.01182"></path>
<path d="M1.046 0.461 Q1.196 0.571 1.442 0.522" stroke="hsl(180.0,100%,35%)" stroke-width="0.01877"></path>
<path d="M1.046 0.461 Q1.035 0.539 1.184 0.561" stroke="hsl(180.0,100%,35%)" stroke-width="0.02085"></path>
<path d="M1.046 0.461 Q1.280 0.434 1.277 0.314" stroke="hsl(180.0,100%,35%)" stroke-width="0.04866"></path>
<path d="M1.046 0.461 Q0.938 0.508 1.004 0.571" stroke="hsl(180.0,100%,35%)" stroke-width="0.00070"></path>
<path d="M1.046 0.461 Q1.112 0.356 0.920 0.300" stroke="hsl(180.0,100%,35%)" stroke-width="0.01112"></path>
<path d="M1.046 0.461 Q0.595 0.251 0.086 0.425" stroke="hsl(180.0,100%,35%)" stroke-width="0.00417"></path>
<path d="M1.046 0.461 Q0.844 0.581 1.033 0.706" stroke="hsl(180.0,100%,35%)" stroke-width="0.02711"></path>
<path d="M1.046 0.461 Q0.797 0.501 0.819 0.631" stroke="hsl(180.0,100%,35%)" stroke-width="0.01738"></path>
<path d="M1.046 0.461 Q0.716 0.258 0.247 0.375" stroke="hsl(180.0,100%,35%)" stroke-width="0.00765"></path>
<path d="M1.046 0.461 Q0.555 0.625 0.766 0.901" stroke="hsl(180.0,100%,35%)" stroke-width="0.00139"></path>
<path d="M1.046 0.461 Q0.887 0.412 0.756 0.479" stroke="hsl(180.0,100%,35%)" stroke-width="0.00139"></path>
<path d="M0.321 0.508 Q0.472 0.669 0.819 0.631" stroke="hsl(180.0,100%,35%)" stroke-width="0.01251"></path>
<path d="M0.321 0.508 Q0.721 0.630 1.046 0.461" stroke="hsl(180.0,100%,35%)" stroke-width="0.01043"></path>
<path d="M0.321 0.508 Q0.242 0.439 0.091 0.463" stroke="hsl(180.0,100%,35%)" stroke-width="0.00139"></path>
<path d="M0.321 0.508 Q0.127 0.719 0.498 0.860" stroke="hsl(180.0,100%,35%)" stroke-width="0.00278"></path>
<path d="M0.321 0.508 Q0.592 0.434 0.507 0.286" stroke="hsl(180.0,100%,35%)" stroke-width="0.00070"></path>
<path d="M0.321 0.508 Q0.390 0.427 0.247 0.375" stroke="hsl(180.0,100%,35%)" stroke-width="0.00834"></path>
<path d="M0.321 0.508 Q0.138 0.496 0.076 0.583" stroke="hsl(180.0,100%,35%)" stroke-width="0.00070"></path>
<path d="M0.321 0.508 Q0.518 0.749 1.033 0.706" stroke="hsl(180.0,100%,35%)" stroke-width="0.00070"></path>
<path d="M0.321 0.508 Q0.710 0.707 1.184 0.561" stroke="hsl(180.0,100%,35%)" stroke-width="0.00070"></path>
<path d="M0.321 0.508 Q0.954 0.602 1.277 0.314" stroke="hsl(180.0,100%,35%)" stroke-width="0.00278"></path>
<path d="M0.321 0.508 Q0.229 0.793 0.766 0.901" stroke="hsl(180.0,100%,35%)" stroke-width="0.00070"></path>
<path d="M0.321 0.508 Q0.786 0.524 0.920 0.300" stroke="hsl(180.0,100%,35%)" stroke-width="0.00070"></path>
<path d="M0.321 0.508 Q0.870 0.739 1.442 0.522" stroke="hsl(180.0,100%,35%)" stroke-width="0.00070"></path>
<path d="M1.442 0.522 Q1.184 0.459 1.004 0.571" stroke="hsl(180.0,100%,35%)" stroke-width="0.00278"></path>
<path d="M1.442 0.522 Q1.282 0.490 1.184 0.561" stroke="hsl(180.0,100%,35%)" stroke-width="0.01599"></path>
<path d="M1.442 0.522 Q1.044 0.452 0.819 0.631" stroke="hsl(180.0,100%,35%)" stroke-width="0.00070"></path>
<path d="M1.442 0.522 Q1.293 0.413 1.046 0.461" stroke="hsl(180.0,100%,35%)" stroke-width="0.00556"></path>
<path d="M1.442 0.522 Q0.699 0.502 0.498 0.860" stroke="hsl(180.0,100%,35%)" stroke-width="0.00070"></path>
<path d="M1.442 0.522 Q1.526 0.385 1.277 0.314" stroke="hsl(180.0,100%,35%)" stroke-width="0.00487"></path>
<path d="M1.442 0.522 Q1.090 0.532 1.033 0.706" stroke="hsl(180.0,100%,35%)" stroke-width="0.00070"></path>
<path d="M0.799 0.715 Q0.923 0.758 1.033 0.706" stroke="hsl(180.0,100%,35%)" stroke-width="0.00070"></path>
<path d="M0.799 0.715 Q0.877 0.677 0.819 0.631" stroke="hsl(180.0,100%,35%)" stroke-width="0.00139"></path>
<path d="M0.799 0.715 Q1.191 0.532 0.920 0.300" stroke="hsl(180.0,100%,35%)" stroke-width="0.00070"></path>
<path d="M0.799 0.715 Q1.115 0.715 1.184 0.561" stroke="hsl(180.0,100%,35%)" stroke-width="0.00070"></path>
<path d="M0.583 0.740 Q0.444 0.783 0.498 0.860" stroke="hsl(0.0,100%,35%)" stroke-width="0.01182"></path>
<path d="M0.583 0.740 Q0.502 0.688 0.383 0.716" stroke="hsl(0.0,100%,35%)" stroke-width="0.00695"></path>
<path d="M0.583 0.740 Q0.546 0.857 0.766 0.901" stroke="hsl(0.0,100%,35%)" stroke-width="0.00487"></path>
<path d="M0.383 0.716 Q0.464 0.768 0.583 0.740" stroke="hsl(0.0,100%,35%)" stroke-width="0.00278"></path>
<path d="M0.383 0.716 Q0.324 0.811 0.498 0.860" stroke="hsl(0.0,100%,35%)" stroke-width="0.00417"></path>
<path d="M0.383 0.716 Q0.426 0.885 0.766 0.901" stroke="hsl(0.0,100%,35%)" stroke-width="0.00348"></path>
<path d="M0.383 0.716 Q0.918 0.721 1.046 0.461" stroke="hsl(0.0,100%,35%)" stroke-width="0.00139"></path>
<path d="M0.383 0.716 Q0.982 0.919 1.509 0.671" stroke="hsl(0.0,100%,35%)" stroke-width="0.00070"></path>
<path d="M1.184 0.561 Q1.344 0.593 1.442 0.522" stroke="hsl(180.0,100%,35%)" stroke-width="0.00556"></path>
<path d="M1.184 0.561 Q1.428 0.456 1.277 0.314" stroke="hsl(180.0,100%,35%)" stroke-width="0.00765"></path>
<path d="M1.184 0.561 Q0.795 0.362 0.321 0.508" stroke="hsl(180.0,100%,35%)" stroke-width="0.00209"></path>
<path d="M1.184 0.561 Q0.946 0.523 0.819 0.631" stroke="hsl(180.0,100%,35%)" stroke-width="0.00209"></path>
<path d="M1.184 0.561 Q0.703 0.647 0.766 0.901" stroke="hsl(180.0,100%,35%)" stroke-width="0.00278"></path>
<path d="M1.184 0.561 Q0.601 0.574 0.498 0.860" stroke="hsl(180.0,100%,35%)" stroke-width="0.00139"></path>
<path d="M1.184 0.561 Q0.741 0.530 0.583 0.740" stroke="hsl(180.0,100%,35%)" stroke-width="0.00070"></path>
<path d="M1.184 0.561 Q1.195 0.484 1.046 0.461" stroke="hsl(180.0,100%,35%)" stroke-width="0.00139"></path>
<path d="M1.184 0.561 Q0.992 0.604 1.033 0.706" stroke="hsl(180.0,100%,35%)" stroke-width="0.00278"></path>
<path d="M1.184 0.561 Q1.086 0.530 1.004 0.571" stroke="hsl(180.0,100%,35%)" stroke-width="0.00070"></path>
<path d="M1.184 0.561 Q0.868 0.561 0.799 0.715" stroke="hsl(180.0,100%,35%)" stroke-width="0.00070"></path>
<path d="M1.184 0.561 Q1.035 0.434 0.756 0.479" stroke="hsl(180.0,100%,35%)" stroke-width="0.00070"></path>
<path d="M1.272 0.664 Q1.240 0.705 1.313 0.730" stroke="hsl(0.0,100%,35%)" stroke-width="0.00070"></path>
<path d="M1.272 0.664 Q1.828 0.414 1.463 0.088" stroke="hsl(0.0,100%,35%)" stroke-width="0.00070"></path>
<path d="M1.272 0.664 Q1.385 0.715 1.509 0.671" stroke="hsl(0.0,100%,35%)" stroke-width="0.00139"></path>
<path d="M1.004 0.571 Q1.102 0.602 1.184 0.561" stroke="hsl(180.0,100%,35%)" stroke-width="0.00626"></path>
<path d="M1.004 0.571 Q1.262 0.634 1.442 0.522" stroke="hsl(180.0,100%,35%)" stroke-width="0.00348"></path>
<path d="M1.004 0.571 Q0.864 0.564 0.819 0.631" stroke="hsl(180.0,100%,35%)" stroke-width="0.00070"></path>
<path d="M1.004 0.571 Q1.346 0.497 1.277 0.314" stroke="hsl(180.0,100%,35%)" stroke-width="0.00070"></path>
<path d="M1.004 0.571 Q0.577 0.519 0.383 0.716" stroke="hsl(180.0,100%,35%)" stroke-width="0.00070"></path>
<path d="M0.756 0.479 Q0.915 0.528 1.046 0.461" stroke="hsl(180.0,100%,35%)" stroke-width="0.00209"></path>
<path d="M0.756 0.479 Q1.148 0.501 1.277 0.314" stroke="hsl(180.0,100%,35%)" stroke-width="0.00070"></path>
<path d="M0.756 0.479 Q0.461 0.575 0.583 0.740" stroke="hsl(180.0,100%,35%)" stroke-width="0.00209"></path>
<path d="M0.756 0.479 Q0.712 0.648 1.033 0.706" stroke="hsl(180.0,100%,35%)" stroke-width="0.00070"></path>
<path d="M0.756 0.479 Q0.584 0.325 0.247 0.375" stroke="hsl(180.0,100%,35%)" stroke-width="0.00070"></path>
<path d="M0.683 0.293 Q0.730 0.450 1.046 0.461" stroke="hsl(0.0,100%,35%)" stroke-width="0.00070"></path>
<path d="M0.683 0.293 Q0.571 0.401 0.756 0.479" stroke="hsl(0.0,100%,35%)" stroke-width="0.00139"></path>
<path d="M0.683 0.293 Q0.963 0.423 1.277 0.314" stroke="hsl(0.0,100%,35%)" stroke-width="0.00070"></path>
<path d="M0.236 0.667 Q0.603 0.846 1.033 0.706" stroke="hsl(0.0,100%,35%)" stroke-width="0.00070"></path>
<path d="M0.236 0.667 Q0.271 0.721 0.383 0.716" stroke="hsl(0.0,100%,35%)" stroke-width="0.00209"></path>
<path d="M0.236 0.667 Q0.870 0.924 1.509 0.671" stroke="hsl(0.0,100%,35%)" stroke-width="0.00070"></path>
<path d="M0.091 0.463 Q0.171 0.532 0.321 0.508" stroke="hsl(180.0,100%,35%)" stroke-width="0.00209"></path>
<path d="M0.091 0.463 Q0.803 0.626 1.277 0.314" stroke="hsl(180.0,100%,35%)" stroke-width="0.00070"></path>
<path d="M0.091 0.463 Q0.239 0.450 0.247 0.375" stroke="hsl(180.0,100%,35%)" stroke-width="0.00070"></path>
<path d="M0.091 0.463 Q0.321 0.693 0.819 0.631" stroke="hsl(180.0,100%,35%)" stroke-width="0.00070"></path>
<path d="M0.091 0.463 Q0.078 0.817 0.766 0.901" stroke="hsl(180.0,100%,35%)" stroke-width="0.00070"></path>
<path d="M0.267 0.927 Q0.780 0.889 0.819 0.631" stroke="hsl(180.0,100%,35%)" stroke-width="0.00209"></path>
<path d="M0.267 0.927 Q0.226 0.914 0.192 0.931" stroke="hsl(180.0,100%,35%)" stroke-width="0.00070"></path>
<path d="M0.267 0.927 Q0.630 0.728 0.321 0.508" stroke="hsl(180.0,100%,35%)" stroke-width="0.00070"></path>
<path d="M1.384 0.615 Q1.572 0.443 1.277 0.314" stroke="hsl(180.0,100%,35%)" stroke-width="0.00070"></path>
<path d="M1.384 0.615 Q1.266 0.532 1.078 0.572" stroke="hsl(180.0,100%,35%)" stroke-width="0.00070"></path>
<path d="M1.384 0.615 Q1.327 0.548 1.184 0.561" stroke="hsl(180.0,100%,35%)" stroke-width="0.00139"></path>
<path d="M0.107 0.772 Q0.022 0.868 0.192 0.931" stroke="hsl(180.0,100%,35%)" stroke-width="0.00209"></path>
<path d="M0.107 0.772 Q0.063 0.881 0.267 0.927" stroke="hsl(180.0,100%,35%)" stroke-width="0.00209"></path>
<path d="M0.107 0.772 Q1.290 0.777 1.560 0.200" stroke="hsl(180.0,100%,35%)" stroke-width="0.00070"></path>
<path d="M0.107 0.772 Q0.576 0.843 0.819 0.631" stroke="hsl(180.0,100%,35%)" stroke-width="0.00209"></path>
<path d="M0.107 0.772 Q0.425 0.682 0.321 0.508" stroke="hsl(180.0,100%,35%)" stroke-width="0.00070"></path>
<path d="M1.560 0.200 Q0.845 0.267 0.819 0.631" stroke="hsl(180.0,100%,35%)" stroke-width="0.00070"></path>
<path d="M1.560 0.200 Q1.725 0.162 1.687 0.073" stroke="hsl(180.0,100%,35%)" stroke-width="0.00070"></path>
<path d="M1.560 0.200 Q1.653 0.262 1.793 0.230" stroke="hsl(180.0,100%,35%)" stroke-width="0.00070"></path>
<path d="M1.560 0.200 Q1.600 0.318 1.838 0.324" stroke="hsl(180.0,100%,35%)" stroke-width="0.00070"></path>
<path d="M0.728 0.133 Q0.375 0.400 0.819 0.631" stroke="hsl(180.0,100%,35%)" stroke-width="0.00070"></path>
<path d="M0.728 0.133 Q-0.138 0.438 0.267 0.927" stroke="hsl(180.0,100%,35%)" stroke-width="0.00070"></path>
<path d="M0.728 0.133 Q0.551 0.048 0.346 0.116" stroke="hsl(180.0,100%,35%)" stroke-width="0.00070"></path>
<path d="M1.793 0.230 Q1.700 0.168 1.560 0.200" stroke="hsl(180.0,100%,35%)" stroke-width="0.00139"></path>
<path d="M1.793 0.230 Q1.740 0.286 1.838 0.324" stroke="hsl(180.0,100%,35%)" stroke-width="0.00209"></path>
<path d="M1.793 0.230 Q0.985 0.235 0.819 0.631" stroke="hsl(180.0,100%,35%)" stroke-width="0.00209"></path>
<path d="M1.793 0.230 Q1.032 0.316 1.033 0.706" stroke="hsl(180.0,100%,35%)" stroke-width="0.00070"></path>
<path d="M1.774 0.616 Q1.331 0.513 1.033 0.706" stroke="hsl(180.0,100%,35%)" stroke-width="0.00070"></path>
<path d="M1.774 0.616 Q1.534 0.393 1.046 0.461" stroke="hsl(180.0,100%,35%)" stroke-width="0.00070"></path>
<path d="M1.774 0.616 Q1.683 0.502 1.442 0.522" stroke="hsl(180.0,100%,35%)" stroke-width="0.00070"></path>
<path d="M1.612 0.608 Q1.510 0.619 1.509 0.671" stroke="hsl(0.0,100%,35%)" stroke-width="0.00070"></path>
<path d="M1.612 0.608 Q1.365 0.609 1.313 0.730" stroke="hsl(0.0,100%,35%)" stroke-width="0.00070"></path>
<path d="M1.612 0.608 Q0.853 0.511 0.498 0.860" stroke="hsl(0.0,100%,35%)" stroke-width="0.00070"></path>
<path d="M1.612 0.608 Q1.244 0.541 1.033 0.706" stroke="hsl(0.0,100%,35%)" stroke-width="0.00070"></path>
<path d="M1.612 0.608 Q1.680 0.394 1.277 0.314" stroke="hsl(0.0,100%,35%)" stroke-width="0.00070"></path>
<path d="M1.612 0.608 Q1.446 0.422 1.046 0.461" stroke="hsl(0.0,100%,35%)" stroke-width="0.00070"></path>
</g>
<text x="1.781" y="0.762" font-size="0.007885" fill="hsl(0.0,100%,20%)">alexnj</text>
<text x="1.509" y="0.661" font-size="0.019844" fill="hsl(0.0,100%,20%)">paulirish</text>
<text x="0.498" y="0.832" font-size="0.056127" fill="hsl(0.0,100%,20%)">jacktfranklin</text>
<text x="1.033" y="0.678" font-size="0.056495" fill="hsl(180.0,100%,20%)">alexrudenko</text>
<text x="1.277" y="0.284" font-size="0.061417" fill="hsl(180.0,100%,20%)">szuend</text>
<text x="0.819" y="0.601" font-size="0.059706" fill="hsl(180.0,100%,20%)">dsv</text>
<text x="1.003" y="0.802" font-size="0.017632" fill="hsl(180.0,100%,20%)">nvitkov</text>
<text x="0.766" y="0.874" font-size="0.052895" fill="hsl(0.0,100%,20%)">andoli</text>
<text x="0.247" y="0.353" font-size="0.044372" fill="hsl(180.0,100%,20%)">kprokopenko</text>
<text x="0.920" y="0.285" font-size="0.029853" fill="hsl(180.0,100%,20%)">yangguo</text>
<text x="0.086" y="0.416" font-size="0.019315" fill="hsl(180.0,100%,20%)">petermueller</text>
<text x="1.046" y="0.420" font-size="0.082450" fill="hsl(180.0,100%,20%)">bmeurer</text>
<text x="0.321" y="0.482" font-size="0.051907" fill="hsl(180.0,100%,20%)">wolfi</text>
<text x="0.793" y="0.657" font-size="0.004553" fill="hsl(180.0,100%,20%)">tperrotta</text>
<text x="1.442" y="0.498" font-size="0.049032" fill="hsl(180.0,100%,20%)">ergunsh</text>
<text x="0.799" y="0.709" font-size="0.012876" fill="hsl(180.0,100%,20%)">jrandolf</text>
<text x="0.583" y="0.724" font-size="0.030877" fill="hsl(0.0,100%,20%)">alinavarkki</text>
<text x="0.383" y="0.700" font-size="0.032511" fill="hsl(0.0,100%,20%)">nancyly</text>
<text x="1.184" y="0.536" font-size="0.051304" fill="hsl(180.0,100%,20%)">pfaffe</text>
<text x="1.272" y="0.659" font-size="0.009105" fill="hsl(0.0,100%,20%)">asraine</text>
<text x="1.313" y="0.726" font-size="0.006438" fill="hsl(0.0,100%,20%)">cjamcl</text>
<text x="1.463" y="0.084" font-size="0.007885" fill="hsl(180.0,100%,20%)">mathias</text>
<text x="1.004" y="0.560" font-size="0.022303" fill="hsl(180.0,100%,20%)">changhaohan</text>
<text x="0.756" y="0.470" font-size="0.017034" fill="hsl(180.0,100%,20%)">leese</text>
<text x="0.683" y="0.289" font-size="0.009105" fill="hsl(0.0,100%,20%)">chrche</text>
<text x="0.586" y="0.507" font-size="0.004553" fill="hsl(180.0,100%,20%)">semel</text>
<text x="0.236" y="0.662" font-size="0.010180" fill="hsl(0.0,100%,20%)">hadrienjaubert</text>
<text x="0.696" y="0.754" font-size="0.004553" fill="hsl(0.0,100%,20%)">victorporof</text>
<text x="0.091" y="0.456" font-size="0.014396" fill="hsl(180.0,100%,20%)">jec</text>
<text x="0.267" y="0.920" font-size="0.013658" fill="hsl(180.0,100%,20%)">kenoss</text>
<text x="0.192" y="0.926" font-size="0.009105" fill="hsl(180.0,100%,20%)">lingqi</text>
<text x="1.384" y="0.611" font-size="0.009105" fill="hsl(180.0,100%,20%)">liviurau</text>
<text x="1.078" y="0.569" font-size="0.004553" fill="hsl(180.0,100%,20%)">machenbach</text>
<text x="0.107" y="0.764" font-size="0.015099" fill="hsl(180.0,100%,20%)">miinak</text>
<text x="1.560" y="0.194" font-size="0.012045" fill="hsl(180.0,100%,20%)">sisidovski</text>
<text x="0.728" y="0.129" font-size="0.007885" fill="hsl(180.0,100%,20%)">nhiroki</text>
<text x="0.346" y="0.113" font-size="0.004553" fill="hsl(180.0,100%,20%)">domenic</text>
<text x="1.687" y="0.071" font-size="0.004553" fill="hsl(180.0,100%,20%)">kouhei</text>
<text x="1.793" y="0.223" font-size="0.014396" fill="hsl(180.0,100%,20%)">tnak</text>
<text x="1.838" y="0.320" font-size="0.009105" fill="hsl(180.0,100%,20%)">yyanagisawa</text>
<text x="1.319" y="0.142" font-size="0.004553" fill="hsl(180.0,100%,20%)">caseq</text>
<text x="1.774" y="0.612" font-size="0.007885" fill="hsl(180.0,100%,20%)">tkent</text>
<text x="1.612" y="0.603" font-size="0.011151" fill="hsl(0.0,100%,20%)">vidorteg</text>
<text x="0.507" y="0.284" font-size="0.004553" fill="hsl(180.0,100%,20%)">mathiasb</text>
<text x="0.076" y="0.581" font-size="0.004553" fill="hsl(180.0,100%,20%)">tsepez</text>
</svg>
