<svg width="4000" height="2000" viewBox="-0.025 -0.025 2.05 1.05" xmlns="http://www.w3.org/2000/svg">
  <style>
    path {
      fill: none;
      stroke-linecap: round;
      stroke-opacity: 0.4;
    }

    text {
      text-anchor: middle;
      alignment-baseline: hanging;
    }
  </style>
  <g opacity="0.4">
<path d="M0.904 0.670 Q0.760 0.578 0.549 0.627" stroke="hsl(0.0,100%,35%)" stroke-width="0.00858"></path>
<path d="M0.904 0.670 Q1.148 0.701 1.263 0.589" stroke="hsl(0.0,100%,35%)" stroke-width="0.01545"></path>
<path d="M0.904 0.670 Q1.594 0.728 1.859 0.404" stroke="hsl(0.0,100%,35%)" stroke-width="0.00172"></path>
<path d="M0.904 0.670 Q1.443 0.534 1.296 0.241" stroke="hsl(0.0,100%,35%)" stroke-width="0.01030"></path>
<path d="M0.904 0.670 Q1.242 0.403 0.795 0.179" stroke="hsl(0.0,100%,35%)" stroke-width="0.00172"></path>
<path d="M0.549 0.627 Q1.274 0.481 1.149 0.095" stroke="hsl(0.0,100%,35%)" stroke-width="0.00172"></path>
<path d="M0.549 0.627 Q0.936 0.751 1.263 0.589" stroke="hsl(0.0,100%,35%)" stroke-width="0.00687"></path>
<path d="M0.549 0.627 Q1.031 0.453 0.795 0.179" stroke="hsl(0.0,100%,35%)" stroke-width="0.00172"></path>
<path d="M1.263 0.589 Q1.129 0.648 1.213 0.726" stroke="hsl(0.0,100%,35%)" stroke-width="0.02575"></path>
<path d="M1.263 0.589 Q1.709 0.616 1.859 0.404" stroke="hsl(0.0,100%,35%)" stroke-width="0.02060"></path>
<path d="M1.263 0.589 Q1.019 0.558 0.904 0.670" stroke="hsl(0.0,100%,35%)" stroke-width="0.04807"></path>
<path d="M1.263 0.589 Q1.598 0.518 1.532 0.339" stroke="hsl(0.0,100%,35%)" stroke-width="0.00687"></path>
<path d="M1.263 0.589 Q1.357 0.291 0.795 0.179" stroke="hsl(0.0,100%,35%)" stroke-width="0.01202"></path>
<path d="M1.263 0.589 Q1.188 0.486 0.969 0.500" stroke="hsl(0.0,100%,35%)" stroke-width="0.00858"></path>
<path d="M1.263 0.589 Q1.105 0.782 1.446 0.902" stroke="hsl(0.0,100%,35%)" stroke-width="0.00172"></path>
<path d="M1.263 0.589 Q1.373 0.658 1.530 0.619" stroke="hsl(0.0,100%,35%)" stroke-width="0.00343"></path>
<path d="M1.263 0.589 Q0.875 0.466 0.549 0.627" stroke="hsl(0.0,100%,35%)" stroke-width="0.00343"></path>
<path d="M1.263 0.589 Q1.601 0.319 1.149 0.095" stroke="hsl(0.0,100%,35%)" stroke-width="0.01545"></path>
<path d="M1.263 0.589 Q1.559 0.422 1.296 0.241" stroke="hsl(0.0,100%,35%)" stroke-width="0.00343"></path>
<path d="M1.263 0.589 Q0.740 0.678 0.798 0.952" stroke="hsl(0.0,100%,35%)" stroke-width="0.00172"></path>
<path d="M1.263 0.589 Q1.467 0.534 1.403 0.422" stroke="hsl(0.0,100%,35%)" stroke-width="0.00172"></path>
<path d="M1.859 0.404 Q1.412 0.377 1.263 0.589" stroke="hsl(0.0,100%,35%)" stroke-width="0.02060"></path>
<path d="M1.859 0.404 Q1.708 0.210 1.296 0.241" stroke="hsl(0.0,100%,35%)" stroke-width="0.01545"></path>
<path d="M1.859 0.404 Q1.254 0.570 1.446 0.902" stroke="hsl(0.0,100%,35%)" stroke-width="0.00172"></path>
<path d="M1.859 0.404 Q1.278 0.435 1.213 0.726" stroke="hsl(0.0,100%,35%)" stroke-width="0.00172"></path>
<path d="M1.859 0.404 Q1.747 0.306 1.532 0.339" stroke="hsl(0.0,100%,35%)" stroke-width="0.00515"></path>
<path d="M1.859 0.404 Q1.879 0.268 1.620 0.229" stroke="hsl(0.0,100%,35%)" stroke-width="0.00172"></path>
<path d="M1.296 0.241 Q1.001 0.408 1.263 0.589" stroke="hsl(0.0,100%,35%)" stroke-width="0.01889"></path>
<path d="M1.296 0.241 Q1.339 0.138 1.149 0.095" stroke="hsl(0.0,100%,35%)" stroke-width="0.02919"></path>
<path d="M1.296 0.241 Q0.757 0.377 0.904 0.670" stroke="hsl(0.0,100%,35%)" stroke-width="0.00515"></path>
<path d="M1.296 0.241 Q0.867 0.466 1.213 0.726" stroke="hsl(0.0,100%,35%)" stroke-width="0.00687"></path>
<path d="M1.296 0.241 Q1.447 0.435 1.859 0.404" stroke="hsl(0.0,100%,35%)" stroke-width="0.01717"></path>
<path d="M1.296 0.241 Q1.095 0.110 0.795 0.179" stroke="hsl(0.0,100%,35%)" stroke-width="0.00343"></path>
<path d="M1.296 0.241 Q1.517 0.249 1.582 0.143" stroke="hsl(0.0,100%,35%)" stroke-width="0.00172"></path>
<path d="M1.296 0.241 Q1.335 0.337 1.532 0.339" stroke="hsl(0.0,100%,35%)" stroke-width="0.00172"></path>
<path d="M1.296 0.241 Q0.421 0.343 0.429 0.793" stroke="hsl(0.0,100%,35%)" stroke-width="0.00343"></path>
<path d="M1.860 0.690 Q1.742 0.724 1.782 0.789" stroke="hsl(0.0,100%,35%)" stroke-width="0.02232"></path>
<path d="M1.860 0.690 Q1.484 0.713 1.446 0.902" stroke="hsl(0.0,100%,35%)" stroke-width="0.00172"></path>
<path d="M1.860 0.690 Q1.642 0.520 1.263 0.589" stroke="hsl(0.0,100%,35%)" stroke-width="0.00172"></path>
<path d="M1.860 0.690 Q1.736 0.221 0.795 0.179" stroke="hsl(0.0,100%,35%)" stroke-width="0.00172"></path>
<path d="M1.782 0.789 Q1.682 0.585 1.263 0.589" stroke="hsl(0.0,100%,35%)" stroke-width="0.00172"></path>
<path d="M1.782 0.789 Q1.777 0.287 0.795 0.179" stroke="hsl(0.0,100%,35%)" stroke-width="0.00172"></path>
<path d="M1.782 0.789 Q1.524 0.778 1.446 0.902" stroke="hsl(0.0,100%,35%)" stroke-width="0.00515"></path>
<path d="M1.782 0.789 Q1.901 0.755 1.860 0.690" stroke="hsl(0.0,100%,35%)" stroke-width="0.00172"></path>
<path d="M1.213 0.726 Q1.347 0.667 1.263 0.589" stroke="hsl(0.0,100%,35%)" stroke-width="0.00515"></path>
<path d="M1.213 0.726 Q1.441 0.369 0.795 0.179" stroke="hsl(0.0,100%,35%)" stroke-width="0.01202"></path>
<path d="M1.213 0.726 Q1.682 0.596 1.532 0.339" stroke="hsl(0.0,100%,35%)" stroke-width="0.00343"></path>
<path d="M1.213 0.726 Q1.643 0.500 1.296 0.241" stroke="hsl(0.0,100%,35%)" stroke-width="0.00172"></path>
<path d="M1.213 0.726 Q1.685 0.397 1.149 0.095" stroke="hsl(0.0,100%,35%)" stroke-width="0.00172"></path>
<path d="M1.213 0.726 Q1.103 0.636 0.904 0.670" stroke="hsl(0.0,100%,35%)" stroke-width="0.00172"></path>
<path d="M1.532 0.339 Q1.643 0.437 1.859 0.404" stroke="hsl(0.0,100%,35%)" stroke-width="0.02060"></path>
<path d="M1.532 0.339 Q1.063 0.469 1.213 0.726" stroke="hsl(0.0,100%,35%)" stroke-width="0.00515"></path>
<path d="M1.532 0.339 Q1.454 0.442 1.638 0.502" stroke="hsl(0.0,100%,35%)" stroke-width="0.00172"></path>
<path d="M1.532 0.339 Q1.535 0.140 1.149 0.095" stroke="hsl(0.0,100%,35%)" stroke-width="0.00172"></path>
<path d="M1.532 0.339 Q1.039 0.603 1.446 0.902" stroke="hsl(0.0,100%,35%)" stroke-width="0.00172"></path>
<path d="M1.532 0.339 Q1.197 0.410 1.263 0.589" stroke="hsl(0.0,100%,35%)" stroke-width="0.00687"></path>
<path d="M1.532 0.339 Q1.291 0.112 0.795 0.179" stroke="hsl(0.0,100%,35%)" stroke-width="0.00172"></path>
<path d="M1.532 0.339 Q0.674 0.499 0.798 0.952" stroke="hsl(0.0,100%,35%)" stroke-width="0.00172"></path>
<path d="M1.149 0.095 Q1.257 0.391 1.859 0.404" stroke="hsl(0.0,100%,35%)" stroke-width="0.01373"></path>
<path d="M1.149 0.095 Q0.567 0.334 0.904 0.670" stroke="hsl(0.0,100%,35%)" stroke-width="0.00343"></path>
<path d="M1.149 0.095 Q1.106 0.197 1.296 0.241" stroke="hsl(0.0,100%,35%)" stroke-width="0.00343"></path>
<path d="M1.149 0.095 Q0.810 0.365 1.263 0.589" stroke="hsl(0.0,100%,35%)" stroke-width="0.00172"></path>
<path d="M1.149 0.095 Q0.905 0.067 0.795 0.179" stroke="hsl(0.0,100%,35%)" stroke-width="0.00687"></path>
<path d="M0.798 0.952 Q1.767 0.890 1.859 0.404" stroke="hsl(0.0,100%,35%)" stroke-width="0.00172"></path>
<path d="M0.798 0.952 Q1.616 0.696 1.296 0.241" stroke="hsl(0.0,100%,35%)" stroke-width="0.00172"></path>
<path d="M0.798 0.952 Q1.320 0.864 1.263 0.589" stroke="hsl(0.0,100%,35%)" stroke-width="0.00343"></path>
<path d="M0.798 0.952 Q0.740 0.799 0.429 0.793" stroke="hsl(0.0,100%,35%)" stroke-width="0.00343"></path>
<path d="M0.798 0.952 Q0.604 0.750 0.167 0.800" stroke="hsl(0.0,100%,35%)" stroke-width="0.00172"></path>
<path d="M1.235 0.420 Q1.409 0.343 1.296 0.241" stroke="hsl(0.0,100%,35%)" stroke-width="0.00172"></path>
<path d="M1.235 0.420 Q1.317 0.455 1.403 0.422" stroke="hsl(0.0,100%,35%)" stroke-width="0.00172"></path>
<path d="M1.235 0.420 Q1.560 0.537 1.859 0.404" stroke="hsl(0.0,100%,35%)" stroke-width="0.00172"></path>
<path d="M0.680 0.516 Q0.669 0.637 0.904 0.670" stroke="hsl(0.0,100%,35%)" stroke-width="0.00515"></path>
<path d="M0.680 0.516 Q1.251 0.399 1.149 0.095" stroke="hsl(0.0,100%,35%)" stroke-width="0.00172"></path>
<path d="M0.680 0.516 Q1.247 0.598 1.532 0.339" stroke="hsl(0.0,100%,35%)" stroke-width="0.00172"></path>
<path d="M0.680 0.516 Q0.525 0.545 0.549 0.627" stroke="hsl(0.0,100%,35%)" stroke-width="0.00172"></path>
<path d="M0.185 0.481 Q-0.006 0.556 0.098 0.666" stroke="hsl(0.0,100%,35%)" stroke-width="0.00343"></path>
<path d="M0.185 0.481 Q0.976 0.481 1.149 0.095" stroke="hsl(0.0,100%,35%)" stroke-width="0.00172"></path>
<path d="M0.185 0.481 Q0.732 0.452 0.795 0.179" stroke="hsl(0.0,100%,35%)" stroke-width="0.00172"></path>
<path d="M1.023 0.143 Q0.786 0.414 1.263 0.589" stroke="hsl(0.0,100%,35%)" stroke-width="0.00172"></path>
<path d="M1.023 0.143 Q0.711 0.310 0.969 0.500" stroke="hsl(0.0,100%,35%)" stroke-width="0.00172"></path>
<path d="M1.023 0.143 Q1.124 0.144 1.149 0.095" stroke="hsl(0.0,100%,35%)" stroke-width="0.00343"></path>
</g>
<text x="0.904" y="0.638" font-size="0.063032" fill="hsl(0.0,100%,20%)">alexrudenko</text>
<text x="0.549" y="0.612" font-size="0.030704" fill="hsl(0.0,100%,20%)">nvitkov</text>
<text x="1.263" y="0.541" font-size="0.096400" fill="hsl(0.0,100%,20%)">bmeurer</text>
<text x="1.859" y="0.369" font-size="0.069631" fill="hsl(0.0,100%,20%)">wolfi</text>
<text x="1.296" y="0.206" font-size="0.070113" fill="hsl(0.0,100%,20%)">dsv</text>
<text x="0.795" y="0.158" font-size="0.041843" fill="hsl(0.0,100%,20%)">pfaffe</text>
<text x="1.860" y="0.673" font-size="0.033835" fill="hsl(0.0,100%,20%)">alinavarkki</text>
<text x="1.782" y="0.771" font-size="0.035770" fill="hsl(0.0,100%,20%)">andoli</text>
<text x="1.446" y="0.891" font-size="0.021711" fill="hsl(0.0,100%,20%)">nancyly</text>
<text x="1.213" y="0.700" font-size="0.050586" fill="hsl(0.0,100%,20%)">ergunsh</text>
<text x="1.532" y="0.315" font-size="0.048548" fill="hsl(0.0,100%,20%)">kprokopenko</text>
<text x="0.969" y="0.490" font-size="0.020101" fill="hsl(0.0,100%,20%)">yangguo</text>
<text x="1.530" y="0.613" font-size="0.011605" fill="hsl(0.0,100%,20%)">petermueller</text>
<text x="1.149" y="0.066" font-size="0.058026" fill="hsl(0.0,100%,20%)">szuend</text>
<text x="0.798" y="0.939" font-size="0.024618" fill="hsl(0.0,100%,20%)">jec</text>
<text x="1.403" y="0.416" font-size="0.011605" fill="hsl(0.0,100%,20%)">mathias</text>
<text x="1.235" y="0.413" font-size="0.014213" fill="hsl(0.0,100%,20%)">chrche</text>
<text x="1.582" y="0.139" font-size="0.008206" fill="hsl(0.0,100%,20%)">asraine</text>
<text x="0.429" y="0.785" font-size="0.016412" fill="hsl(0.0,100%,20%)">changhaohan</text>
<text x="0.167" y="0.796" font-size="0.008206" fill="hsl(0.0,100%,20%)">semel</text>
<text x="0.680" y="0.506" font-size="0.020101" fill="hsl(0.0,100%,20%)">jrandolf</text>
<text x="1.638" y="0.498" font-size="0.008206" fill="hsl(0.0,100%,20%)">leese</text>
<text x="0.185" y="0.473" font-size="0.016412" fill="hsl(0.0,100%,20%)">liviurau</text>
<text x="0.098" y="0.661" font-size="0.011605" fill="hsl(0.0,100%,20%)">machenbach</text>
<text x="1.023" y="0.135" font-size="0.016412" fill="hsl(0.0,100%,20%)">seth.brenith</text>
<text x="1.620" y="0.224" font-size="0.008206" fill="hsl(0.0,100%,20%)">shuuran</text>
</svg>
