<svg width="4000" height="2000" viewBox="-0.025 -0.025 2.05 1.05" xmlns="http://www.w3.org/2000/svg">
  <style>
    path {
      fill: none;
      stroke-linecap: round;
      stroke-opacity: 0.4;
    }

    text {
      text-anchor: middle;
      alignment-baseline: hanging;
    }
  </style>
  <g opacity="0.4">
<path d="M1.256 0.416 Q0.737 0.481 0.750 0.748" stroke="hsl(0.0,100%,35%)" stroke-width="0.01127"></path>
<path d="M1.256 0.416 Q1.224 0.558 1.495 0.605" stroke="hsl(0.0,100%,35%)" stroke-width="0.01690"></path>
<path d="M1.256 0.416 Q0.833 0.281 0.478 0.459" stroke="hsl(0.0,100%,35%)" stroke-width="0.00563"></path>
<path d="M0.750 0.748 Q0.743 0.655 0.560 0.638" stroke="hsl(0.0,100%,35%)" stroke-width="0.02254"></path>
<path d="M0.750 0.748 Q1.081 0.728 1.113 0.562" stroke="hsl(0.0,100%,35%)" stroke-width="0.03944"></path>
<path d="M0.750 0.748 Q0.845 0.549 0.478 0.459" stroke="hsl(0.0,100%,35%)" stroke-width="0.02817"></path>
<path d="M0.750 0.748 Q0.926 0.610 0.694 0.493" stroke="hsl(0.0,100%,35%)" stroke-width="0.01127"></path>
<path d="M0.750 0.748 Q1.269 0.683 1.256 0.416" stroke="hsl(0.0,100%,35%)" stroke-width="0.01127"></path>
<path d="M0.750 0.748 Q0.718 0.508 0.243 0.471" stroke="hsl(0.0,100%,35%)" stroke-width="0.01127"></path>
<path d="M0.750 0.748 Q0.890 0.827 1.075 0.776" stroke="hsl(0.0,100%,35%)" stroke-width="0.00563"></path>
<path d="M1.552 0.945 Q1.404 0.487 0.478 0.459" stroke="hsl(180.0,100%,35%)" stroke-width="0.00563"></path>
<path d="M1.552 0.945 Q1.662 0.963 1.721 0.913" stroke="hsl(180.0,100%,35%)" stroke-width="0.00563"></path>
<path d="M1.552 0.945 Q1.241 0.828 0.944 0.954" stroke="hsl(180.0,100%,35%)" stroke-width="0.00563"></path>
<path d="M1.594 0.263 Q1.681 0.351 1.871 0.328" stroke="hsl(180.0,100%,35%)" stroke-width="0.01127"></path>
<path d="M1.594 0.263 Q1.027 0.596 1.552 0.945" stroke="hsl(180.0,100%,35%)" stroke-width="0.01127"></path>
<path d="M1.594 0.263 Q1.738 0.189 1.625 0.102" stroke="hsl(180.0,100%,35%)" stroke-width="0.01127"></path>
<path d="M1.871 0.328 Q1.218 0.573 1.552 0.945" stroke="hsl(180.0,100%,35%)" stroke-width="0.00563"></path>
<path d="M1.871 0.328 Q1.928 0.166 1.625 0.102" stroke="hsl(180.0,100%,35%)" stroke-width="0.00563"></path>
<path d="M1.871 0.328 Q1.070 0.114 0.478 0.459" stroke="hsl(180.0,100%,35%)" stroke-width="0.00563"></path>
<path d="M0.560 0.638 Q0.663 0.532 0.478 0.459" stroke="hsl(0.0,100%,35%)" stroke-width="0.06761"></path>
<path d="M0.560 0.638 Q0.898 0.710 1.113 0.562" stroke="hsl(0.0,100%,35%)" stroke-width="0.00563"></path>
<path d="M0.560 0.638 Q0.743 0.592 0.694 0.493" stroke="hsl(0.0,100%,35%)" stroke-width="0.01690"></path>
<path d="M0.560 0.638 Q0.535 0.491 0.243 0.471" stroke="hsl(0.0,100%,35%)" stroke-width="0.02254"></path>
<path d="M0.560 0.638 Q1.054 0.808 1.495 0.605" stroke="hsl(0.0,100%,35%)" stroke-width="0.01127"></path>
<path d="M0.560 0.638 Q1.086 0.666 1.256 0.416" stroke="hsl(0.0,100%,35%)" stroke-width="0.00563"></path>
<path d="M0.560 0.638 Q0.567 0.731 0.750 0.748" stroke="hsl(0.0,100%,35%)" stroke-width="0.00563"></path>
<path d="M0.560 0.638 Q0.810 0.990 1.552 0.945" stroke="hsl(0.0,100%,35%)" stroke-width="0.00563"></path>
<path d="M0.560 0.638 Q0.708 0.810 1.075 0.776" stroke="hsl(0.0,100%,35%)" stroke-width="0.00563"></path>
<path d="M0.286 0.565 Q0.615 1.008 1.552 0.945" stroke="hsl(0.0,100%,35%)" stroke-width="0.00563"></path>
<path d="M0.286 0.565 Q0.364 0.656 0.560 0.638" stroke="hsl(0.0,100%,35%)" stroke-width="0.01127"></path>
<path d="M0.286 0.565 Q0.339 0.509 0.243 0.471" stroke="hsl(0.0,100%,35%)" stroke-width="0.00563"></path>
</g>
<text x="1.256" y="0.391" font-size="0.050351" fill="hsl(0.0,100%,20%)">alexrudenko</text>
<text x="0.750" y="0.705" font-size="0.085580" fill="hsl(0.0,100%,20%)">dsv</text>
<text x="1.495" y="0.586" font-size="0.037529" fill="hsl(0.0,100%,20%)">yangguo</text>
<text x="0.478" y="0.421" font-size="0.075059" fill="hsl(0.0,100%,20%)">szuend</text>
<text x="1.552" y="0.921" font-size="0.047471" fill="hsl(180.0,100%,20%)">andoli</text>
<text x="1.721" y="0.905" font-size="0.016784" fill="hsl(180.0,100%,20%)">nancyly</text>
<text x="0.944" y="0.946" font-size="0.016784" fill="hsl(180.0,100%,20%)">alinavarkki</text>
<text x="1.594" y="0.242" font-size="0.041111" fill="hsl(180.0,100%,20%)">asraine</text>
<text x="1.871" y="0.309" font-size="0.037529" fill="hsl(180.0,100%,20%)">cjamcl</text>
<text x="1.625" y="0.088" font-size="0.029070" fill="hsl(180.0,100%,20%)">paulirish</text>
<text x="0.560" y="0.591" font-size="0.094943" fill="hsl(0.0,100%,20%)">bmeurer</text>
<text x="1.113" y="0.538" font-size="0.047471" fill="hsl(0.0,100%,20%)">ergunsh</text>
<text x="0.694" y="0.474" font-size="0.037529" fill="hsl(0.0,100%,20%)">kprokopenko</text>
<text x="0.243" y="0.449" font-size="0.044405" fill="hsl(0.0,100%,20%)">pfaffe</text>
<text x="1.075" y="0.764" font-size="0.023736" fill="hsl(0.0,100%,20%)">wolfi</text>
<text x="0.286" y="0.548" font-size="0.033567" fill="hsl(0.0,100%,20%)">kimanh</text>
</svg>
