<svg width="4000" height="2000" viewBox="-0.025 -0.025 2.05 1.05" xmlns="http://www.w3.org/2000/svg">
  <style>
    path {
      fill: none;
      stroke-linecap: round;
      stroke-opacity: 0.4;
    }

    text {
      text-anchor: middle;
      alignment-baseline: hanging;
    }
  </style>
  <g opacity="0.4">
<path d="M1.330 0.832 Q1.615 0.504 1.038 0.293" stroke="hsl(0.0,100%,35%)" stroke-width="0.00985"></path>
<path d="M1.330 0.832 Q1.407 0.975 1.704 0.969" stroke="hsl(0.0,100%,35%)" stroke-width="0.01969"></path>
<path d="M1.330 0.832 Q1.220 0.758 1.052 0.796" stroke="hsl(0.0,100%,35%)" stroke-width="0.02954"></path>
<path d="M1.038 0.293 Q0.983 0.161 0.713 0.158" stroke="hsl(180.0,100%,35%)" stroke-width="0.05908"></path>
<path d="M1.038 0.293 Q0.487 0.531 0.830 0.852" stroke="hsl(180.0,100%,35%)" stroke-width="0.02954"></path>
<path d="M1.038 0.293 Q1.027 0.095 0.637 0.057" stroke="hsl(180.0,100%,35%)" stroke-width="0.01969"></path>
<path d="M1.038 0.293 Q0.830 0.764 1.704 0.969" stroke="hsl(180.0,100%,35%)" stroke-width="0.00985"></path>
<path d="M1.038 0.293 Q1.238 0.280 1.256 0.180" stroke="hsl(180.0,100%,35%)" stroke-width="0.00985"></path>
<path d="M1.038 0.293 Q0.376 0.614 0.857 1.007" stroke="hsl(180.0,100%,35%)" stroke-width="0.02954"></path>
<path d="M1.038 0.293 Q0.643 0.547 1.052 0.796" stroke="hsl(180.0,100%,35%)" stroke-width="0.01969"></path>
<path d="M1.038 0.293 Q0.753 0.621 1.330 0.832" stroke="hsl(180.0,100%,35%)" stroke-width="0.00985"></path>
<path d="M1.704 0.969 Q1.360 0.736 0.830 0.852" stroke="hsl(0.0,100%,35%)" stroke-width="0.01969"></path>
<path d="M1.704 0.969 Q1.627 0.826 1.330 0.832" stroke="hsl(0.0,100%,35%)" stroke-width="0.00985"></path>
<path d="M0.857 1.007 Q1.124 0.940 1.052 0.796" stroke="hsl(180.0,100%,35%)" stroke-width="0.00985"></path>
<path d="M0.857 1.007 Q0.967 0.924 0.830 0.852" stroke="hsl(180.0,100%,35%)" stroke-width="0.01969"></path>
<path d="M0.857 1.007 Q1.234 1.014 1.330 0.832" stroke="hsl(180.0,100%,35%)" stroke-width="0.00985"></path>
<path d="M0.398 0.746 Q0.795 0.975 1.330 0.832" stroke="hsl(0.0,100%,35%)" stroke-width="0.00985"></path>
<path d="M0.398 0.746 Q0.685 0.902 1.052 0.796" stroke="hsl(0.0,100%,35%)" stroke-width="0.00985"></path>
<path d="M0.398 0.746 Q0.361 0.850 0.558 0.891" stroke="hsl(0.0,100%,35%)" stroke-width="0.00985"></path>
<path d="M1.942 0.709 Q1.998 0.602 1.803 0.552" stroke="hsl(0.0,100%,35%)" stroke-width="0.00985"></path>
<path d="M1.942 0.709 Q1.614 0.791 1.704 0.969" stroke="hsl(0.0,100%,35%)" stroke-width="0.00985"></path>
<path d="M1.942 0.709 Q1.817 0.585 1.548 0.618" stroke="hsl(0.0,100%,35%)" stroke-width="0.00985"></path>
</g>
<text x="1.330" y="0.795" font-size="0.072548" fill="hsl(0.0,100%,20%)">alexrudenko</text>
<text x="1.038" y="0.242" font-size="0.102598" fill="hsl(180.0,100%,20%)">dsv</text>
<text x="1.704" y="0.939" font-size="0.060698" fill="hsl(0.0,100%,20%)">szuend</text>
<text x="1.052" y="0.765" font-size="0.060698" fill="hsl(0.0,100%,20%)">yangguo</text>
<text x="0.857" y="0.977" font-size="0.060698" fill="hsl(180.0,100%,20%)">bmeurer</text>
<text x="0.830" y="0.822" font-size="0.060698" fill="hsl(180.0,100%,20%)">pfaffe</text>
<text x="0.713" y="0.130" font-size="0.056195" fill="hsl(180.0,100%,20%)">ergunsh</text>
<text x="0.637" y="0.041" font-size="0.032444" fill="hsl(180.0,100%,20%)">wolfi</text>
<text x="1.256" y="0.168" font-size="0.022942" fill="hsl(180.0,100%,20%)">changhaohan</text>
<text x="0.398" y="0.726" font-size="0.039736" fill="hsl(0.0,100%,20%)">nvitkov</text>
<text x="0.558" y="0.879" font-size="0.022942" fill="hsl(0.0,100%,20%)">kimanh</text>
<text x="1.942" y="0.689" font-size="0.039736" fill="hsl(0.0,100%,20%)">paulirish</text>
<text x="1.803" y="0.540" font-size="0.022942" fill="hsl(0.0,100%,20%)">asraine</text>
<text x="1.548" y="0.607" font-size="0.022942" fill="hsl(0.0,100%,20%)">andoli</text>
</svg>
