<svg width="4000" height="2000" viewBox="-0.025 -0.025 2.05 1.05" xmlns="http://www.w3.org/2000/svg">
  <style>
    path {
      fill: none;
      stroke-linecap: round;
      stroke-opacity: 0.4;
    }

    text {
      text-anchor: middle;
      alignment-baseline: hanging;
    }
  </style>
  <g opacity="0.4">
<path d="M1.708 0.116 Q0.817 0.260 0.904 0.726" stroke="hsl(0.0,100%,35%)" stroke-width="0.01066"></path>
<path d="M1.708 0.116 Q1.400 0.230 1.555 0.406" stroke="hsl(0.0,100%,35%)" stroke-width="0.00178"></path>
<path d="M1.708 0.116 Q0.642 0.379 0.922 0.956" stroke="hsl(0.0,100%,35%)" stroke-width="0.00355"></path>
<path d="M1.708 0.116 Q0.886 0.424 1.307 0.893" stroke="hsl(0.0,100%,35%)" stroke-width="0.01599"></path>
<path d="M1.708 0.116 Q0.986 0.076 0.751 0.420" stroke="hsl(0.0,100%,35%)" stroke-width="0.00178"></path>
<path d="M1.708 0.116 Q1.542 0.094 1.463 0.170" stroke="hsl(0.0,100%,35%)" stroke-width="0.01243"></path>
<path d="M1.708 0.116 Q1.221 0.337 1.547 0.623" stroke="hsl(0.0,100%,35%)" stroke-width="0.00178"></path>
<path d="M1.708 0.116 Q0.888 -0.021 0.441 0.350" stroke="hsl(0.0,100%,35%)" stroke-width="0.00178"></path>
<path d="M0.904 0.726 Q1.073 0.542 0.751 0.420" stroke="hsl(0.0,100%,35%)" stroke-width="0.01421"></path>
<path d="M0.904 0.726 Q1.795 0.582 1.708 0.116" stroke="hsl(0.0,100%,35%)" stroke-width="0.01599"></path>
<path d="M0.904 0.726 Q1.486 0.696 1.555 0.406" stroke="hsl(0.0,100%,35%)" stroke-width="0.00355"></path>
<path d="M0.904 0.726 Q0.972 0.890 1.307 0.893" stroke="hsl(0.0,100%,35%)" stroke-width="0.01243"></path>
<path d="M0.904 0.726 Q0.729 0.845 0.922 0.956" stroke="hsl(0.0,100%,35%)" stroke-width="0.01421"></path>
<path d="M0.904 0.726 Q0.974 0.446 0.441 0.350" stroke="hsl(0.0,100%,35%)" stroke-width="0.00178"></path>
<path d="M1.555 0.406 Q0.972 0.436 0.904 0.726" stroke="hsl(0.0,100%,35%)" stroke-width="0.01954"></path>
<path d="M1.555 0.406 Q1.141 0.252 0.751 0.420" stroke="hsl(0.0,100%,35%)" stroke-width="0.00888"></path>
<path d="M1.555 0.406 Q0.797 0.554 0.922 0.956" stroke="hsl(0.0,100%,35%)" stroke-width="0.01066"></path>
<path d="M1.555 0.406 Q1.508 0.310 1.312 0.311" stroke="hsl(0.0,100%,35%)" stroke-width="0.00178"></path>
<path d="M1.555 0.406 Q1.613 0.153 1.133 0.070" stroke="hsl(0.0,100%,35%)" stroke-width="0.00178"></path>
<path d="M1.555 0.406 Q1.697 0.270 1.463 0.170" stroke="hsl(0.0,100%,35%)" stroke-width="0.00710"></path>
<path d="M1.555 0.406 Q0.945 0.237 0.482 0.497" stroke="hsl(0.0,100%,35%)" stroke-width="0.00888"></path>
<path d="M1.555 0.406 Q1.376 0.513 1.547 0.623" stroke="hsl(0.0,100%,35%)" stroke-width="0.00355"></path>
<path d="M1.555 0.406 Q1.041 0.600 1.307 0.893" stroke="hsl(0.0,100%,35%)" stroke-width="0.00355"></path>
<path d="M1.555 0.406 Q1.576 0.518 1.801 0.533" stroke="hsl(0.0,100%,35%)" stroke-width="0.00178"></path>
<path d="M0.922 0.956 Q1.679 0.808 1.555 0.406" stroke="hsl(0.0,100%,35%)" stroke-width="0.00533"></path>
<path d="M0.922 0.956 Q1.165 1.002 1.307 0.893" stroke="hsl(0.0,100%,35%)" stroke-width="0.01599"></path>
<path d="M0.922 0.956 Q1.700 0.921 1.801 0.533" stroke="hsl(0.0,100%,35%)" stroke-width="0.00355"></path>
<path d="M0.922 0.956 Q0.982 0.841 0.771 0.786" stroke="hsl(0.0,100%,35%)" stroke-width="0.00178"></path>
<path d="M0.922 0.956 Q1.097 0.838 0.904 0.726" stroke="hsl(0.0,100%,35%)" stroke-width="0.00710"></path>
<path d="M1.307 0.893 Q1.211 0.530 0.482 0.497" stroke="hsl(0.0,100%,35%)" stroke-width="0.01421"></path>
<path d="M1.307 0.893 Q1.064 0.848 0.922 0.956" stroke="hsl(0.0,100%,35%)" stroke-width="0.02664"></path>
<path d="M1.307 0.893 Q1.821 0.699 1.555 0.406" stroke="hsl(0.0,100%,35%)" stroke-width="0.02309"></path>
<path d="M1.307 0.893 Q1.842 0.812 1.801 0.533" stroke="hsl(0.0,100%,35%)" stroke-width="0.00533"></path>
<path d="M1.307 0.893 Q1.408 0.545 0.751 0.420" stroke="hsl(0.0,100%,35%)" stroke-width="0.00533"></path>
<path d="M1.307 0.893 Q1.309 0.448 0.441 0.350" stroke="hsl(0.0,100%,35%)" stroke-width="0.00178"></path>
<path d="M1.307 0.893 Q2.130 0.585 1.708 0.116" stroke="hsl(0.0,100%,35%)" stroke-width="0.01243"></path>
<path d="M1.307 0.893 Q1.239 0.729 0.904 0.726" stroke="hsl(0.0,100%,35%)" stroke-width="0.04441"></path>
<path d="M1.307 0.893 Q1.254 0.797 1.055 0.802" stroke="hsl(0.0,100%,35%)" stroke-width="0.00178"></path>
<path d="M1.307 0.893 Q1.719 0.489 1.022 0.200" stroke="hsl(0.0,100%,35%)" stroke-width="0.00355"></path>
<path d="M1.307 0.893 Q1.526 0.718 1.233 0.573" stroke="hsl(0.0,100%,35%)" stroke-width="0.00533"></path>
<path d="M1.307 0.893 Q1.879 0.447 1.133 0.070" stroke="hsl(0.0,100%,35%)" stroke-width="0.00178"></path>
<path d="M1.547 0.623 Q1.725 0.516 1.555 0.406" stroke="hsl(0.0,100%,35%)" stroke-width="0.00710"></path>
<path d="M1.547 0.623 Q1.143 0.546 0.904 0.726" stroke="hsl(0.0,100%,35%)" stroke-width="0.00178"></path>
<path d="M1.547 0.623 Q1.312 0.362 0.751 0.420" stroke="hsl(0.0,100%,35%)" stroke-width="0.00178"></path>
<path d="M0.441 0.350 Q0.341 0.282 0.188 0.317" stroke="hsl(0.0,100%,35%)" stroke-width="0.00533"></path>
<path d="M0.441 0.350 Q0.517 0.216 0.273 0.150" stroke="hsl(0.0,100%,35%)" stroke-width="0.00533"></path>
<path d="M0.441 0.350 Q0.540 0.446 0.751 0.420" stroke="hsl(0.0,100%,35%)" stroke-width="0.00178"></path>
<path d="M0.188 0.317 Q0.288 0.384 0.441 0.350" stroke="hsl(0.0,100%,35%)" stroke-width="0.01243"></path>
<path d="M0.188 0.317 Q0.800 0.634 1.555 0.406" stroke="hsl(0.0,100%,35%)" stroke-width="0.00178"></path>
<path d="M0.188 0.317 Q0.387 0.481 0.751 0.420" stroke="hsl(0.0,100%,35%)" stroke-width="0.00178"></path>
<path d="M1.133 0.070 Q1.075 0.322 1.555 0.406" stroke="hsl(0.0,100%,35%)" stroke-width="0.00355"></path>
<path d="M1.133 0.070 Q0.974 0.113 1.022 0.200" stroke="hsl(0.0,100%,35%)" stroke-width="0.00355"></path>
<path d="M1.133 0.070 Q0.762 -0.006 0.531 0.158" stroke="hsl(0.0,100%,35%)" stroke-width="0.00178"></path>
<path d="M1.133 0.070 Q0.318 0.471 0.922 0.956" stroke="hsl(0.0,100%,35%)" stroke-width="0.00178"></path>
<path d="M1.133 0.070 Q0.562 0.516 1.307 0.893" stroke="hsl(0.0,100%,35%)" stroke-width="0.00178"></path>
<path d="M0.482 0.497 Q0.578 0.860 1.307 0.893" stroke="hsl(0.0,100%,35%)" stroke-width="0.00178"></path>
<path d="M0.482 0.497 Q0.510 0.696 0.904 0.726" stroke="hsl(0.0,100%,35%)" stroke-width="0.00178"></path>
<path d="M0.482 0.497 Q0.679 0.512 0.751 0.420" stroke="hsl(0.0,100%,35%)" stroke-width="0.01066"></path>
<path d="M0.482 0.497 Q1.401 0.552 1.708 0.116" stroke="hsl(0.0,100%,35%)" stroke-width="0.00178"></path>
<path d="M0.482 0.497 Q1.092 0.666 1.555 0.406" stroke="hsl(0.0,100%,35%)" stroke-width="0.00178"></path>
<path d="M0.482 0.497 Q1.113 0.779 1.801 0.533" stroke="hsl(0.0,100%,35%)" stroke-width="0.00355"></path>
<path d="M0.482 0.497 Q0.319 0.433 0.158 0.499" stroke="hsl(0.0,100%,35%)" stroke-width="0.00355"></path>
<path d="M1.801 0.533 Q1.780 0.420 1.555 0.406" stroke="hsl(0.0,100%,35%)" stroke-width="0.00888"></path>
<path d="M1.801 0.533 Q1.366 0.266 0.751 0.420" stroke="hsl(0.0,100%,35%)" stroke-width="0.00178"></path>
<path d="M1.801 0.533 Q1.837 0.168 1.133 0.070" stroke="hsl(0.0,100%,35%)" stroke-width="0.00178"></path>
<path d="M1.801 0.533 Q1.170 0.252 0.482 0.497" stroke="hsl(0.0,100%,35%)" stroke-width="0.00533"></path>
<path d="M1.801 0.533 Q1.344 0.036 0.273 0.150" stroke="hsl(0.0,100%,35%)" stroke-width="0.00178"></path>
<path d="M1.801 0.533 Q1.612 0.658 1.816 0.778" stroke="hsl(0.0,100%,35%)" stroke-width="0.00178"></path>
<path d="M1.801 0.533 Q1.197 0.450 0.904 0.726" stroke="hsl(0.0,100%,35%)" stroke-width="0.00178"></path>
<path d="M1.233 0.573 Q1.837 0.439 1.708 0.116" stroke="hsl(0.0,100%,35%)" stroke-width="0.00533"></path>
<path d="M1.233 0.573 Q1.350 0.661 1.547 0.623" stroke="hsl(0.0,100%,35%)" stroke-width="0.00178"></path>
<path d="M1.233 0.573 Q0.946 0.584 0.904 0.726" stroke="hsl(0.0,100%,35%)" stroke-width="0.00178"></path>
<path d="M1.233 0.573 Q1.549 0.667 1.801 0.533" stroke="hsl(0.0,100%,35%)" stroke-width="0.00178"></path>
<path d="M1.442 0.747 Q1.189 0.629 0.904 0.726" stroke="hsl(0.0,100%,35%)" stroke-width="0.00710"></path>
<path d="M1.442 0.747 Q1.772 0.599 1.555 0.406" stroke="hsl(0.0,100%,35%)" stroke-width="0.00178"></path>
<path d="M1.442 0.747 Q1.914 0.463 1.463 0.170" stroke="hsl(0.0,100%,35%)" stroke-width="0.00178"></path>
</g>
<text x="1.708" y="0.086" font-size="0.059628" fill="hsl(0.0,100%,20%)">alexrudenko</text>
<text x="0.904" y="0.686" font-size="0.081195" fill="hsl(0.0,100%,20%)">szuend</text>
<text x="1.555" y="0.369" font-size="0.072521" fill="hsl(0.0,100%,20%)">bmeurer</text>
<text x="0.922" y="0.926" font-size="0.061464" fill="hsl(0.0,100%,20%)">wolfi</text>
<text x="1.307" y="0.848" font-size="0.090676" fill="hsl(0.0,100%,20%)">dsv</text>
<text x="0.751" y="0.397" font-size="0.044721" fill="hsl(0.0,100%,20%)">pfaffe</text>
<text x="1.463" y="0.155" font-size="0.029814" fill="hsl(0.0,100%,20%)">yangguo</text>
<text x="1.547" y="0.610" font-size="0.027217" fill="hsl(0.0,100%,20%)">nvitkov</text>
<text x="0.441" y="0.332" font-size="0.035486" fill="hsl(0.0,100%,20%)">andoli</text>
<text x="0.188" y="0.302" font-size="0.029814" fill="hsl(0.0,100%,20%)">alinavarkki</text>
<text x="0.273" y="0.141" font-size="0.017213" fill="hsl(0.0,100%,20%)">nancyly</text>
<text x="1.312" y="0.307" font-size="0.008607" fill="hsl(0.0,100%,20%)">mathias</text>
<text x="1.133" y="0.056" font-size="0.027217" fill="hsl(0.0,100%,20%)">jec</text>
<text x="0.482" y="0.474" font-size="0.047140" fill="hsl(0.0,100%,20%)">ergunsh</text>
<text x="1.801" y="0.513" font-size="0.040369" fill="hsl(0.0,100%,20%)">kprokopenko</text>
<text x="1.055" y="0.797" font-size="0.008607" fill="hsl(0.0,100%,20%)">asraine</text>
<text x="1.022" y="0.191" font-size="0.017213" fill="hsl(0.0,100%,20%)">changhaohan</text>
<text x="1.233" y="0.560" font-size="0.025820" fill="hsl(0.0,100%,20%)">jrandolf</text>
<text x="0.158" y="0.493" font-size="0.012172" fill="hsl(0.0,100%,20%)">liviurau</text>
<text x="0.531" y="0.154" font-size="0.008607" fill="hsl(0.0,100%,20%)">semel</text>
<text x="1.816" y="0.773" font-size="0.008607" fill="hsl(0.0,100%,20%)">leese</text>
<text x="1.442" y="0.737" font-size="0.021082" fill="hsl(0.0,100%,20%)">seth.brenith</text>
<text x="0.771" y="0.782" font-size="0.008607" fill="hsl(0.0,100%,20%)">shuuran</text>
</svg>
