<svg width="4000" height="2000" viewBox="-0.025 -0.025 2.05 1.05" xmlns="http://www.w3.org/2000/svg">
  <style>
    path {
      fill: none;
      stroke-linecap: round;
      stroke-opacity: 0.4;
    }

    text {
      text-anchor: middle;
      alignment-baseline: hanging;
    }
  </style>
  <g opacity="0.4">
<path d="M1.712 0.364 Q1.161 0.094 0.513 0.304" stroke="hsl(0.0,100%,35%)" stroke-width="0.00198"></path>
<path d="M1.712 0.364 Q1.750 0.274 1.582 0.235" stroke="hsl(0.0,100%,35%)" stroke-width="0.00395"></path>
<path d="M1.712 0.364 Q1.522 0.205 1.168 0.263" stroke="hsl(0.0,100%,35%)" stroke-width="0.00395"></path>
<path d="M1.712 0.364 Q1.296 -0.009 0.476 0.112" stroke="hsl(0.0,100%,35%)" stroke-width="0.01383"></path>
<path d="M1.712 0.364 Q1.040 -0.004 0.175 0.243" stroke="hsl(0.0,100%,35%)" stroke-width="0.00198"></path>
<path d="M0.513 0.304 Q0.393 0.206 0.175 0.243" stroke="hsl(0.0,100%,35%)" stroke-width="0.01581"></path>
<path d="M0.513 0.304 Q1.064 0.574 1.712 0.364" stroke="hsl(0.0,100%,35%)" stroke-width="0.00593"></path>
<path d="M0.513 0.304 Q1.102 0.484 1.582 0.235" stroke="hsl(0.0,100%,35%)" stroke-width="0.00395"></path>
<path d="M0.513 0.304 Q0.648 0.201 0.476 0.112" stroke="hsl(0.0,100%,35%)" stroke-width="0.00593"></path>
<path d="M0.513 0.304 Q0.874 0.414 1.168 0.263" stroke="hsl(0.0,100%,35%)" stroke-width="0.01581"></path>
<path d="M0.513 0.304 Q0.156 0.508 0.476 0.727" stroke="hsl(0.0,100%,35%)" stroke-width="0.00198"></path>
<path d="M1.582 0.235 Q0.992 0.056 0.513 0.304" stroke="hsl(0.0,100%,35%)" stroke-width="0.02174"></path>
<path d="M1.582 0.235 Q0.872 -0.042 0.175 0.243" stroke="hsl(0.0,100%,35%)" stroke-width="0.01581"></path>
<path d="M1.582 0.235 Q1.353 0.166 1.168 0.263" stroke="hsl(0.0,100%,35%)" stroke-width="0.01383"></path>
<path d="M1.582 0.235 Q0.959 0.447 1.235 0.797" stroke="hsl(0.0,100%,35%)" stroke-width="0.00198"></path>
<path d="M1.582 0.235 Q0.938 0.206 0.740 0.514" stroke="hsl(0.0,100%,35%)" stroke-width="0.00198"></path>
<path d="M1.582 0.235 Q1.424 0.086 1.098 0.131" stroke="hsl(0.0,100%,35%)" stroke-width="0.00988"></path>
<path d="M1.582 0.235 Q1.771 0.257 1.854 0.169" stroke="hsl(0.0,100%,35%)" stroke-width="0.02174"></path>
<path d="M1.582 0.235 Q1.489 0.096 1.196 0.110" stroke="hsl(0.0,100%,35%)" stroke-width="0.00395"></path>
<path d="M1.582 0.235 Q1.128 -0.047 0.476 0.112" stroke="hsl(0.0,100%,35%)" stroke-width="0.00395"></path>
<path d="M1.582 0.235 Q1.380 0.285 1.433 0.395" stroke="hsl(0.0,100%,35%)" stroke-width="0.00395"></path>
<path d="M1.582 0.235 Q0.522 0.168 0.158 0.670" stroke="hsl(0.0,100%,35%)" stroke-width="0.00198"></path>
<path d="M1.582 0.235 Q1.561 0.109 1.310 0.092" stroke="hsl(0.0,100%,35%)" stroke-width="0.00395"></path>
<path d="M1.582 0.235 Q1.544 0.326 1.712 0.364" stroke="hsl(0.0,100%,35%)" stroke-width="0.00593"></path>
<path d="M1.168 0.263 Q1.397 0.332 1.582 0.235" stroke="hsl(0.0,100%,35%)" stroke-width="0.01186"></path>
<path d="M1.168 0.263 Q0.942 0.049 0.476 0.112" stroke="hsl(0.0,100%,35%)" stroke-width="0.01581"></path>
<path d="M1.168 0.263 Q1.195 0.382 1.433 0.395" stroke="hsl(0.0,100%,35%)" stroke-width="0.00395"></path>
<path d="M1.168 0.263 Q1.019 0.241 0.943 0.309" stroke="hsl(0.0,100%,35%)" stroke-width="0.00198"></path>
<path d="M1.168 0.263 Q0.337 0.264 0.158 0.670" stroke="hsl(0.0,100%,35%)" stroke-width="0.00198"></path>
<path d="M1.168 0.263 Q1.586 0.353 1.854 0.169" stroke="hsl(0.0,100%,35%)" stroke-width="0.00198"></path>
<path d="M0.476 0.112 Q1.120 0.416 1.854 0.169" stroke="hsl(0.0,100%,35%)" stroke-width="0.00988"></path>
<path d="M0.476 0.112 Q0.702 0.326 1.168 0.263" stroke="hsl(0.0,100%,35%)" stroke-width="0.02372"></path>
<path d="M0.476 0.112 Q0.931 0.395 1.582 0.235" stroke="hsl(0.0,100%,35%)" stroke-width="0.02767"></path>
<path d="M0.476 0.112 Q0.729 0.445 1.433 0.395" stroke="hsl(0.0,100%,35%)" stroke-width="0.00593"></path>
<path d="M0.476 0.112 Q0.221 0.117 0.175 0.243" stroke="hsl(0.0,100%,35%)" stroke-width="0.00593"></path>
<path d="M0.476 0.112 Q-0.016 0.420 0.476 0.727" stroke="hsl(0.0,100%,35%)" stroke-width="0.00198"></path>
<path d="M0.476 0.112 Q0.893 0.486 1.712 0.364" stroke="hsl(0.0,100%,35%)" stroke-width="0.00593"></path>
<path d="M0.476 0.112 Q0.341 0.216 0.513 0.304" stroke="hsl(0.0,100%,35%)" stroke-width="0.03360"></path>
<path d="M0.476 0.112 Q0.651 0.149 0.761 0.072" stroke="hsl(0.0,100%,35%)" stroke-width="0.00198"></path>
<path d="M0.476 0.112 Q0.111 0.351 0.496 0.582" stroke="hsl(0.0,100%,35%)" stroke-width="0.00395"></path>
<path d="M0.731 0.769 Q0.637 0.697 0.476 0.727" stroke="hsl(180.0,100%,35%)" stroke-width="0.02174"></path>
<path d="M0.731 0.769 Q1.583 0.673 1.582 0.235" stroke="hsl(180.0,100%,35%)" stroke-width="0.00198"></path>
<path d="M0.731 0.769 Q0.874 0.395 0.175 0.243" stroke="hsl(180.0,100%,35%)" stroke-width="0.00198"></path>
<path d="M0.731 0.769 Q0.523 0.605 0.158 0.670" stroke="hsl(180.0,100%,35%)" stroke-width="0.00198"></path>
<path d="M0.476 0.727 Q0.570 0.799 0.731 0.769" stroke="hsl(180.0,100%,35%)" stroke-width="0.00395"></path>
<path d="M0.476 0.727 Q0.362 0.635 0.158 0.670" stroke="hsl(180.0,100%,35%)" stroke-width="0.00593"></path>
<path d="M0.476 0.727 Q0.713 0.425 0.175 0.243" stroke="hsl(180.0,100%,35%)" stroke-width="0.00198"></path>
<path d="M0.740 0.514 Q1.384 0.543 1.582 0.235" stroke="hsl(0.0,100%,35%)" stroke-width="0.00395"></path>
<path d="M0.740 0.514 Q0.564 0.499 0.496 0.582" stroke="hsl(0.0,100%,35%)" stroke-width="0.00395"></path>
<path d="M0.740 0.514 Q0.531 0.369 0.203 0.439" stroke="hsl(0.0,100%,35%)" stroke-width="0.00198"></path>
<path d="M0.740 0.514 Q1.155 0.474 1.168 0.263" stroke="hsl(0.0,100%,35%)" stroke-width="0.00198"></path>
<path d="M0.740 0.514 Q0.929 0.261 0.476 0.112" stroke="hsl(0.0,100%,35%)" stroke-width="0.00198"></path>
<path d="M1.854 0.169 Q1.211 -0.135 0.476 0.112" stroke="hsl(0.0,100%,35%)" stroke-width="0.00198"></path>
<path d="M1.854 0.169 Q1.075 -0.032 0.513 0.304" stroke="hsl(0.0,100%,35%)" stroke-width="0.00198"></path>
<path d="M1.854 0.169 Q0.955 -0.130 0.175 0.243" stroke="hsl(0.0,100%,35%)" stroke-width="0.01186"></path>
<path d="M1.854 0.169 Q1.627 0.238 1.712 0.364" stroke="hsl(0.0,100%,35%)" stroke-width="0.00198"></path>
<path d="M1.854 0.169 Q1.665 0.148 1.582 0.235" stroke="hsl(0.0,100%,35%)" stroke-width="0.00198"></path>
<path d="M1.854 0.169 Q1.463 0.198 1.433 0.395" stroke="hsl(0.0,100%,35%)" stroke-width="0.00395"></path>
<path d="M1.196 0.110 Q1.289 0.250 1.582 0.235" stroke="hsl(0.0,100%,35%)" stroke-width="0.00791"></path>
<path d="M1.196 0.110 Q0.699 0.071 0.513 0.304" stroke="hsl(0.0,100%,35%)" stroke-width="0.00198"></path>
<path d="M1.196 0.110 Q0.579 -0.027 0.175 0.243" stroke="hsl(0.0,100%,35%)" stroke-width="0.00198"></path>
<path d="M1.433 0.395 Q1.635 0.345 1.582 0.235" stroke="hsl(0.0,100%,35%)" stroke-width="0.00988"></path>
<path d="M1.433 0.395 Q0.925 0.067 0.175 0.243" stroke="hsl(0.0,100%,35%)" stroke-width="0.00198"></path>
<path d="M1.433 0.395 Q0.991 0.316 0.740 0.514" stroke="hsl(0.0,100%,35%)" stroke-width="0.00198"></path>
<path d="M1.433 0.395 Q1.824 0.366 1.854 0.169" stroke="hsl(0.0,100%,35%)" stroke-width="0.00593"></path>
<path d="M1.433 0.395 Q0.575 0.278 0.158 0.670" stroke="hsl(0.0,100%,35%)" stroke-width="0.00198"></path>
<path d="M1.433 0.395 Q1.435 0.506 1.652 0.529" stroke="hsl(0.0,100%,35%)" stroke-width="0.00198"></path>
<path d="M1.433 0.395 Q1.046 0.166 0.513 0.304" stroke="hsl(0.0,100%,35%)" stroke-width="0.00198"></path>
<path d="M1.433 0.395 Q1.407 0.276 1.168 0.263" stroke="hsl(0.0,100%,35%)" stroke-width="0.01779"></path>
<path d="M0.951 0.460 Q0.992 0.191 0.476 0.112" stroke="hsl(0.0,100%,35%)" stroke-width="0.00198"></path>
<path d="M0.951 0.460 Q0.823 0.686 1.235 0.797" stroke="hsl(0.0,100%,35%)" stroke-width="0.00198"></path>
<path d="M0.951 0.460 Q1.218 0.405 1.168 0.263" stroke="hsl(0.0,100%,35%)" stroke-width="0.00198"></path>
<path d="M1.094 0.655 Q1.635 0.633 1.712 0.364" stroke="hsl(0.0,100%,35%)" stroke-width="0.00593"></path>
<path d="M1.094 0.655 Q1.580 0.403 1.196 0.110" stroke="hsl(0.0,100%,35%)" stroke-width="0.00198"></path>
<path d="M1.094 0.655 Q1.084 0.363 0.513 0.304" stroke="hsl(0.0,100%,35%)" stroke-width="0.00198"></path>
<path d="M1.094 0.655 Q1.471 0.593 1.433 0.395" stroke="hsl(0.0,100%,35%)" stroke-width="0.00198"></path>
<path d="M0.605 0.936 Q1.064 0.602 0.513 0.304" stroke="hsl(0.0,100%,35%)" stroke-width="0.00198"></path>
<path d="M0.605 0.936 Q0.944 0.503 0.175 0.243" stroke="hsl(0.0,100%,35%)" stroke-width="0.00198"></path>
<path d="M0.605 0.936 Q0.794 1.027 1.013 0.954" stroke="hsl(0.0,100%,35%)" stroke-width="0.00395"></path>
<path d="M0.462 0.422 Q0.581 0.373 0.513 0.304" stroke="hsl(0.0,100%,35%)" stroke-width="0.00395"></path>
<path d="M0.462 0.422 Q1.171 0.553 1.582 0.235" stroke="hsl(0.0,100%,35%)" stroke-width="0.00198"></path>
<path d="M0.462 0.422 Q1.013 0.404 1.098 0.131" stroke="hsl(0.0,100%,35%)" stroke-width="0.00198"></path>
</g>
<text x="1.712" y="0.342" font-size="0.044894" fill="hsl(0.0,100%,20%)">alexrudenko</text>
<text x="0.513" y="0.270" font-size="0.068765" fill="hsl(0.0,100%,20%)">szuend</text>
<text x="1.582" y="0.193" font-size="0.085363" fill="hsl(0.0,100%,20%)">bmeurer</text>
<text x="1.168" y="0.229" font-size="0.067629" fill="hsl(0.0,100%,20%)">wolfi</text>
<text x="0.476" y="0.072" font-size="0.080695" fill="hsl(0.0,100%,20%)">dsv</text>
<text x="0.175" y="0.219" font-size="0.049021" fill="hsl(0.0,100%,20%)">pfaffe</text>
<text x="0.731" y="0.752" font-size="0.035218" fill="hsl(180.0,100%,20%)">alinavarkki</text>
<text x="0.476" y="0.708" font-size="0.038378" fill="hsl(180.0,100%,20%)">andoli</text>
<text x="0.158" y="0.659" font-size="0.023295" fill="hsl(180.0,100%,20%)">nancyly</text>
<text x="1.235" y="0.791" font-size="0.012451" fill="hsl(0.0,100%,20%)">mathias</text>
<text x="0.740" y="0.501" font-size="0.026414" fill="hsl(0.0,100%,20%)">jec</text>
<text x="1.098" y="0.120" font-size="0.021567" fill="hsl(0.0,100%,20%)">yangguo</text>
<text x="1.854" y="0.144" font-size="0.049806" fill="hsl(0.0,100%,20%)">ergunsh</text>
<text x="1.196" y="0.097" font-size="0.026414" fill="hsl(0.0,100%,20%)">nvitkov</text>
<text x="1.433" y="0.370" font-size="0.049806" fill="hsl(0.0,100%,20%)">kprokopenko</text>
<text x="1.310" y="0.086" font-size="0.012451" fill="hsl(0.0,100%,20%)">petermueller</text>
<text x="0.951" y="0.452" font-size="0.015250" fill="hsl(0.0,100%,20%)">chrche</text>
<text x="0.761" y="0.067" font-size="0.008805" fill="hsl(0.0,100%,20%)">asraine</text>
<text x="0.496" y="0.573" font-size="0.017609" fill="hsl(0.0,100%,20%)">changhaohan</text>
<text x="0.203" y="0.435" font-size="0.008805" fill="hsl(0.0,100%,20%)">semel</text>
<text x="1.094" y="0.644" font-size="0.021567" fill="hsl(0.0,100%,20%)">jrandolf</text>
<text x="1.652" y="0.525" font-size="0.008805" fill="hsl(0.0,100%,20%)">leese</text>
<text x="0.605" y="0.927" font-size="0.017609" fill="hsl(0.0,100%,20%)">liviurau</text>
<text x="1.013" y="0.948" font-size="0.012451" fill="hsl(0.0,100%,20%)">machenbach</text>
<text x="0.462" y="0.413" font-size="0.017609" fill="hsl(0.0,100%,20%)">seth.brenith</text>
<text x="0.943" y="0.304" font-size="0.008805" fill="hsl(0.0,100%,20%)">shuuran</text>
</svg>
