<svg width="4000" height="2000" viewBox="-0.025 -0.025 2.05 1.05" xmlns="http://www.w3.org/2000/svg">
  <style>
    path {
      fill: none;
      stroke-linecap: round;
      stroke-opacity: 0.4;
    }

    text {
      text-anchor: middle;
      alignment-baseline: hanging;
    }
  </style>
  <g opacity="0.4">
<path d="M0.513 0.827 Q0.486 0.782 0.394 0.785" stroke="hsl(0.0,100%,35%)" stroke-width="0.00040"></path>
<path d="M0.513 0.827 Q0.529 0.606 0.102 0.550" stroke="hsl(0.0,100%,35%)" stroke-width="0.00080"></path>
<path d="M0.513 0.827 Q0.649 0.666 0.365 0.564" stroke="hsl(0.0,100%,35%)" stroke-width="0.00040"></path>
<path d="M0.394 0.785 Q0.436 0.609 0.102 0.550" stroke="hsl(0.0,100%,35%)" stroke-width="0.00601"></path>
<path d="M0.394 0.785 Q0.557 0.559 0.152 0.430" stroke="hsl(0.0,100%,35%)" stroke-width="0.00321"></path>
<path d="M0.394 0.785 Q0.221 0.732 0.079 0.804" stroke="hsl(0.0,100%,35%)" stroke-width="0.00080"></path>
<path d="M0.394 0.785 Q0.858 0.774 0.938 0.546" stroke="hsl(0.0,100%,35%)" stroke-width="0.00040"></path>
<path d="M0.394 0.785 Q0.556 0.669 0.365 0.564" stroke="hsl(0.0,100%,35%)" stroke-width="0.00080"></path>
<path d="M0.394 0.785 Q1.119 0.739 1.188 0.375" stroke="hsl(0.0,100%,35%)" stroke-width="0.00080"></path>
<path d="M0.394 0.785 Q0.713 0.680 0.577 0.501" stroke="hsl(0.0,100%,35%)" stroke-width="0.00040"></path>
<path d="M0.394 0.785 Q1.372 0.583 1.193 0.062" stroke="hsl(0.0,100%,35%)" stroke-width="0.00040"></path>
<path d="M0.102 0.550 Q0.029 0.629 0.167 0.682" stroke="hsl(0.0,100%,35%)" stroke-width="0.00321"></path>
<path d="M0.102 0.550 Q-0.113 0.673 0.079 0.804" stroke="hsl(0.0,100%,35%)" stroke-width="0.00722"></path>
<path d="M0.102 0.550 Q0.232 0.700 0.553 0.669" stroke="hsl(0.0,100%,35%)" stroke-width="0.00080"></path>
<path d="M0.102 0.550 Q0.759 0.781 1.353 0.511" stroke="hsl(0.0,100%,35%)" stroke-width="0.00120"></path>
<path d="M0.102 0.550 Q0.223 0.500 0.152 0.430" stroke="hsl(0.0,100%,35%)" stroke-width="0.00922"></path>
<path d="M0.102 0.550 Q0.785 0.680 1.188 0.375" stroke="hsl(0.0,100%,35%)" stroke-width="0.00160"></path>
<path d="M0.102 0.550 Q0.523 0.715 0.938 0.546" stroke="hsl(0.0,100%,35%)" stroke-width="0.00040"></path>
<path d="M0.365 0.564 Q0.216 0.606 0.266 0.688" stroke="hsl(0.0,100%,35%)" stroke-width="0.00281"></path>
<path d="M0.365 0.564 Q0.244 0.504 0.102 0.550" stroke="hsl(0.0,100%,35%)" stroke-width="0.00120"></path>
<path d="M0.365 0.564 Q0.202 0.680 0.394 0.785" stroke="hsl(0.0,100%,35%)" stroke-width="0.00361"></path>
<path d="M0.365 0.564 Q1.314 0.681 1.751 0.243" stroke="hsl(0.0,100%,35%)" stroke-width="0.00040"></path>
<path d="M0.569 0.878 Q0.555 0.797 0.394 0.785" stroke="hsl(0.0,100%,35%)" stroke-width="0.00040"></path>
<path d="M0.569 0.878 Q0.719 0.571 0.152 0.430" stroke="hsl(0.0,100%,35%)" stroke-width="0.00040"></path>
<path d="M0.569 0.878 Q1.019 0.786 0.938 0.546" stroke="hsl(0.0,100%,35%)" stroke-width="0.00040"></path>
<path d="M0.152 0.430 Q0.031 0.480 0.102 0.550" stroke="hsl(0.0,100%,35%)" stroke-width="0.03127"></path>
<path d="M0.152 0.430 Q-0.042 0.559 0.167 0.682" stroke="hsl(0.0,100%,35%)" stroke-width="0.00120"></path>
<path d="M0.152 0.430 Q0.453 0.645 0.938 0.546" stroke="hsl(0.0,100%,35%)" stroke-width="0.00040"></path>
<path d="M0.152 0.430 Q0.714 0.610 1.188 0.375" stroke="hsl(0.0,100%,35%)" stroke-width="0.00080"></path>
<path d="M0.152 0.430 Q-0.183 0.602 0.079 0.804" stroke="hsl(0.0,100%,35%)" stroke-width="0.00241"></path>
<path d="M0.152 0.430 Q0.161 0.630 0.553 0.669" stroke="hsl(0.0,100%,35%)" stroke-width="0.00080"></path>
<path d="M0.152 0.430 Q-0.011 0.656 0.394 0.785" stroke="hsl(0.0,100%,35%)" stroke-width="0.00160"></path>
<path d="M0.152 0.430 Q-0.082 0.547 0.096 0.687" stroke="hsl(0.0,100%,35%)" stroke-width="0.00120"></path>
<path d="M0.938 0.546 Q1.200 0.510 1.188 0.375" stroke="hsl(120.0,100%,35%)" stroke-width="0.00922"></path>
<path d="M0.938 0.546 Q1.173 0.611 1.353 0.511" stroke="hsl(120.0,100%,35%)" stroke-width="0.00601"></path>
<path d="M0.938 0.546 Q1.257 0.310 0.867 0.103" stroke="hsl(120.0,100%,35%)" stroke-width="0.00441"></path>
<path d="M0.938 0.546 Q0.888 0.411 0.614 0.406" stroke="hsl(120.0,100%,35%)" stroke-width="0.02245"></path>
<path d="M0.938 0.546 Q0.647 0.530 0.553 0.669" stroke="hsl(120.0,100%,35%)" stroke-width="0.00040"></path>
<path d="M0.938 0.546 Q0.808 0.627 0.938 0.708" stroke="hsl(120.0,100%,35%)" stroke-width="0.00321"></path>
<path d="M0.938 0.546 Q0.638 0.331 0.152 0.430" stroke="hsl(120.0,100%,35%)" stroke-width="0.00080"></path>
<path d="M0.938 0.546 Q0.516 0.381 0.102 0.550" stroke="hsl(120.0,100%,35%)" stroke-width="0.00080"></path>
<path d="M0.938 0.546 Q1.453 0.355 1.193 0.062" stroke="hsl(120.0,100%,35%)" stroke-width="0.00080"></path>
<path d="M0.938 0.546 Q1.248 0.680 1.578 0.558" stroke="hsl(120.0,100%,35%)" stroke-width="0.00962"></path>
<path d="M0.938 0.546 Q1.553 0.401 1.406 0.070" stroke="hsl(120.0,100%,35%)" stroke-width="0.00040"></path>
<path d="M0.938 0.546 Q0.977 0.608 1.107 0.604" stroke="hsl(120.0,100%,35%)" stroke-width="0.00040"></path>
<path d="M0.938 0.546 Q0.794 0.451 0.577 0.501" stroke="hsl(120.0,100%,35%)" stroke-width="0.00040"></path>
<path d="M0.938 0.546 Q0.828 0.570 0.851 0.629" stroke="hsl(120.0,100%,35%)" stroke-width="0.00080"></path>
<path d="M1.188 0.375 Q0.635 0.395 0.553 0.669" stroke="hsl(120.0,100%,35%)" stroke-width="0.01363"></path>
<path d="M1.188 0.375 Q0.926 0.410 0.938 0.546" stroke="hsl(120.0,100%,35%)" stroke-width="0.00922"></path>
<path d="M1.188 0.375 Q1.161 0.476 1.353 0.511" stroke="hsl(120.0,100%,35%)" stroke-width="0.00561"></path>
<path d="M1.188 0.375 Q0.876 0.275 0.614 0.406" stroke="hsl(120.0,100%,35%)" stroke-width="0.01082"></path>
<path d="M1.188 0.375 Q1.245 0.175 0.867 0.103" stroke="hsl(120.0,100%,35%)" stroke-width="0.00641"></path>
<path d="M1.188 0.375 Q1.574 0.422 1.751 0.243" stroke="hsl(120.0,100%,35%)" stroke-width="0.00160"></path>
<path d="M1.188 0.375 Q0.782 0.316 0.577 0.501" stroke="hsl(120.0,100%,35%)" stroke-width="0.00120"></path>
<path d="M1.188 0.375 Q1.378 0.389 1.448 0.300" stroke="hsl(120.0,100%,35%)" stroke-width="0.00040"></path>
<path d="M1.188 0.375 Q1.116 0.392 1.135 0.431" stroke="hsl(120.0,100%,35%)" stroke-width="0.00080"></path>
<path d="M1.188 0.375 Q0.504 0.245 0.102 0.550" stroke="hsl(120.0,100%,35%)" stroke-width="0.00040"></path>
<path d="M1.188 0.375 Q0.562 0.328 0.334 0.623" stroke="hsl(120.0,100%,35%)" stroke-width="0.00040"></path>
<path d="M1.353 0.511 Q1.379 0.410 1.188 0.375" stroke="hsl(120.0,100%,35%)" stroke-width="0.04329"></path>
<path d="M1.353 0.511 Q0.826 0.430 0.553 0.669" stroke="hsl(120.0,100%,35%)" stroke-width="0.02004"></path>
<path d="M1.353 0.511 Q1.437 0.210 0.867 0.103" stroke="hsl(120.0,100%,35%)" stroke-width="0.01002"></path>
<path d="M1.353 0.511 Q1.766 0.457 1.751 0.243" stroke="hsl(120.0,100%,35%)" stroke-width="0.00040"></path>
<path d="M1.353 0.511 Q1.271 0.327 0.894 0.326" stroke="hsl(120.0,100%,35%)" stroke-width="0.00040"></path>
<path d="M1.353 0.511 Q1.428 0.579 1.578 0.558" stroke="hsl(120.0,100%,35%)" stroke-width="0.01042"></path>
<path d="M1.353 0.511 Q0.973 0.351 0.577 0.501" stroke="hsl(120.0,100%,35%)" stroke-width="0.01604"></path>
<path d="M1.353 0.511 Q0.988 0.526 0.938 0.708" stroke="hsl(120.0,100%,35%)" stroke-width="0.00080"></path>
<path d="M1.353 0.511 Q1.068 0.310 0.614 0.406" stroke="hsl(120.0,100%,35%)" stroke-width="0.01163"></path>
<path d="M1.353 0.511 Q1.632 0.254 1.193 0.062" stroke="hsl(120.0,100%,35%)" stroke-width="0.00842"></path>
<path d="M1.353 0.511 Q0.482 0.403 0.079 0.804" stroke="hsl(120.0,100%,35%)" stroke-width="0.00040"></path>
<path d="M1.353 0.511 Q1.733 0.301 1.406 0.070" stroke="hsl(120.0,100%,35%)" stroke-width="0.00401"></path>
<path d="M1.353 0.511 Q1.118 0.445 0.938 0.546" stroke="hsl(120.0,100%,35%)" stroke-width="0.01804"></path>
<path d="M1.353 0.511 Q1.569 0.509 1.612 0.403" stroke="hsl(120.0,100%,35%)" stroke-width="0.00080"></path>
<path d="M1.353 0.511 Q0.696 0.280 0.102 0.550" stroke="hsl(120.0,100%,35%)" stroke-width="0.00120"></path>
<path d="M1.353 0.511 Q0.802 0.371 0.407 0.609" stroke="hsl(120.0,100%,35%)" stroke-width="0.00040"></path>
<path d="M1.353 0.511 Q0.754 0.363 0.334 0.623" stroke="hsl(120.0,100%,35%)" stroke-width="0.00040"></path>
<path d="M0.867 0.103 Q0.784 0.404 1.353 0.511" stroke="hsl(120.0,100%,35%)" stroke-width="0.00842"></path>
<path d="M0.867 0.103 Q0.499 0.204 0.614 0.406" stroke="hsl(120.0,100%,35%)" stroke-width="0.01563"></path>
<path d="M0.867 0.103 Q1.063 0.148 1.193 0.062" stroke="hsl(120.0,100%,35%)" stroke-width="0.00681"></path>
<path d="M0.867 0.103 Q1.044 0.264 1.398 0.213" stroke="hsl(120.0,100%,35%)" stroke-width="0.00040"></path>
<path d="M0.867 0.103 Q-0.088 0.296 0.079 0.804" stroke="hsl(120.0,100%,35%)" stroke-width="0.00040"></path>
<path d="M0.867 0.103 Q0.404 0.244 0.577 0.501" stroke="hsl(120.0,100%,35%)" stroke-width="0.00281"></path>
<path d="M0.867 0.103 Q0.257 0.323 0.553 0.669" stroke="hsl(120.0,100%,35%)" stroke-width="0.00080"></path>
<path d="M0.867 0.103 Q0.810 0.303 1.188 0.375" stroke="hsl(120.0,100%,35%)" stroke-width="0.00401"></path>
<path d="M0.867 0.103 Q0.127 0.173 0.102 0.550" stroke="hsl(120.0,100%,35%)" stroke-width="0.00040"></path>
<path d="M0.867 0.103 Q0.859 0.472 1.578 0.558" stroke="hsl(120.0,100%,35%)" stroke-width="0.00080"></path>
<path d="M0.867 0.103 Q0.248 0.123 0.152 0.430" stroke="hsl(120.0,100%,35%)" stroke-width="0.00160"></path>
<path d="M0.867 0.103 Q0.702 0.220 0.894 0.326" stroke="hsl(120.0,100%,35%)" stroke-width="0.00120"></path>
<path d="M0.867 0.103 Q0.920 0.221 1.161 0.221" stroke="hsl(120.0,100%,35%)" stroke-width="0.00040"></path>
<path d="M0.867 0.103 Q0.845 0.181 0.993 0.209" stroke="hsl(120.0,100%,35%)" stroke-width="0.00040"></path>
<path d="M0.867 0.103 Q0.549 0.339 0.938 0.546" stroke="hsl(120.0,100%,35%)" stroke-width="0.00080"></path>
<path d="M0.867 0.103 Q1.197 0.350 1.751 0.243" stroke="hsl(120.0,100%,35%)" stroke-width="0.00040"></path>
<path d="M0.614 0.406 Q0.519 0.446 0.577 0.501" stroke="hsl(120.0,100%,35%)" stroke-width="0.01884"></path>
<path d="M0.614 0.406 Q0.983 0.305 0.867 0.103" stroke="hsl(120.0,100%,35%)" stroke-width="0.01002"></path>
<path d="M0.614 0.406 Q0.899 0.606 1.353 0.511" stroke="hsl(120.0,100%,35%)" stroke-width="0.01563"></path>
<path d="M0.614 0.406 Q1.178 0.350 1.193 0.062" stroke="hsl(120.0,100%,35%)" stroke-width="0.00241"></path>
<path d="M0.614 0.406 Q0.373 0.525 0.553 0.669" stroke="hsl(120.0,100%,35%)" stroke-width="0.00561"></path>
<path d="M0.614 0.406 Q0.242 0.375 0.102 0.550" stroke="hsl(120.0,100%,35%)" stroke-width="0.00080"></path>
<path d="M0.614 0.406 Q0.664 0.541 0.938 0.546" stroke="hsl(120.0,100%,35%)" stroke-width="0.00601"></path>
<path d="M0.614 0.406 Q0.926 0.505 1.188 0.375" stroke="hsl(120.0,100%,35%)" stroke-width="0.02205"></path>
<path d="M0.614 0.406 Q0.363 0.435 0.365 0.564" stroke="hsl(120.0,100%,35%)" stroke-width="0.00040"></path>
<path d="M0.614 0.406 Q0.348 0.466 0.407 0.609" stroke="hsl(120.0,100%,35%)" stroke-width="0.00361"></path>
<path d="M0.614 0.406 Q0.974 0.674 1.578 0.558" stroke="hsl(120.0,100%,35%)" stroke-width="0.00241"></path>
<path d="M0.614 0.406 Q0.363 0.325 0.152 0.430" stroke="hsl(120.0,100%,35%)" stroke-width="0.00080"></path>
<path d="M0.614 0.406 Q0.837 0.391 0.858 0.279" stroke="hsl(120.0,100%,35%)" stroke-width="0.00040"></path>
<path d="M0.614 0.406 Q0.554 0.564 0.851 0.629" stroke="hsl(120.0,100%,35%)" stroke-width="0.00120"></path>
<path d="M0.614 0.406 Q0.817 0.422 0.894 0.326" stroke="hsl(120.0,100%,35%)" stroke-width="0.00040"></path>
<path d="M0.553 0.669 Q0.700 0.590 0.577 0.501" stroke="hsl(120.0,100%,35%)" stroke-width="0.01403"></path>
<path d="M0.553 0.669 Q1.079 0.750 1.353 0.511" stroke="hsl(120.0,100%,35%)" stroke-width="0.00200"></path>
<path d="M0.553 0.669 Q1.295 0.748 1.612 0.403" stroke="hsl(120.0,100%,35%)" stroke-width="0.00040"></path>
<path d="M0.553 0.669 Q1.106 0.649 1.188 0.375" stroke="hsl(120.0,100%,35%)" stroke-width="0.00922"></path>
<path d="M0.553 0.669 Q1.163 0.449 0.867 0.103" stroke="hsl(120.0,100%,35%)" stroke-width="0.00120"></path>
<path d="M0.553 0.669 Q0.794 0.549 0.614 0.406" stroke="hsl(120.0,100%,35%)" stroke-width="0.00241"></path>
<path d="M0.553 0.669 Q0.422 0.519 0.102 0.550" stroke="hsl(120.0,100%,35%)" stroke-width="0.00160"></path>
<path d="M0.553 0.669 Q0.544 0.469 0.152 0.430" stroke="hsl(120.0,100%,35%)" stroke-width="0.00080"></path>
<path d="M0.553 0.669 Q0.350 0.599 0.167 0.682" stroke="hsl(120.0,100%,35%)" stroke-width="0.00040"></path>
<path d="M0.553 0.669 Q0.844 0.684 0.938 0.546" stroke="hsl(120.0,100%,35%)" stroke-width="0.00160"></path>
<path d="M0.553 0.669 Q0.528 0.610 0.407 0.609" stroke="hsl(120.0,100%,35%)" stroke-width="0.00080"></path>
<path d="M0.553 0.669 Q0.734 0.708 0.851 0.629" stroke="hsl(120.0,100%,35%)" stroke-width="0.00040"></path>
<path d="M0.553 0.669 Q0.208 0.642 0.079 0.804" stroke="hsl(120.0,100%,35%)" stroke-width="0.00040"></path>
<path d="M0.938 0.708 Q1.303 0.692 1.353 0.511" stroke="hsl(120.0,100%,35%)" stroke-width="0.00200"></path>
<path d="M0.938 0.708 Q1.329 0.591 1.188 0.375" stroke="hsl(120.0,100%,35%)" stroke-width="0.00080"></path>
<path d="M0.938 0.708 Q0.776 0.611 0.553 0.669" stroke="hsl(120.0,100%,35%)" stroke-width="0.00040"></path>
<path d="M0.938 0.708 Q1.068 0.627 0.938 0.546" stroke="hsl(120.0,100%,35%)" stroke-width="0.00160"></path>
<path d="M0.938 0.708 Q0.958 0.651 0.851 0.629" stroke="hsl(120.0,100%,35%)" stroke-width="0.00040"></path>
<path d="M0.938 0.708 Q1.582 0.436 1.193 0.062" stroke="hsl(120.0,100%,35%)" stroke-width="0.00040"></path>
<path d="M0.938 0.708 Q1.378 0.761 1.578 0.558" stroke="hsl(120.0,100%,35%)" stroke-width="0.00040"></path>
<path d="M0.938 0.708 Q0.704 0.545 0.334 0.623" stroke="hsl(120.0,100%,35%)" stroke-width="0.00040"></path>
<path d="M1.193 0.062 Q0.914 0.318 1.353 0.511" stroke="hsl(120.0,100%,35%)" stroke-width="0.01002"></path>
<path d="M1.193 0.062 Q0.387 0.238 0.553 0.669" stroke="hsl(120.0,100%,35%)" stroke-width="0.00080"></path>
<path d="M1.193 0.062 Q0.832 0.134 0.894 0.326" stroke="hsl(120.0,100%,35%)" stroke-width="0.00040"></path>
<path d="M1.193 0.062 Q0.534 0.158 0.577 0.501" stroke="hsl(120.0,100%,35%)" stroke-width="0.00281"></path>
<path d="M1.193 0.062 Q0.042 0.210 0.079 0.804" stroke="hsl(120.0,100%,35%)" stroke-width="0.00080"></path>
<path d="M1.193 0.062 Q1.130 0.316 1.612 0.403" stroke="hsl(120.0,100%,35%)" stroke-width="0.00040"></path>
<path d="M1.193 0.062 Q0.940 0.217 1.188 0.375" stroke="hsl(120.0,100%,35%)" stroke-width="0.00040"></path>
<path d="M1.193 0.062 Q0.997 0.017 0.867 0.103" stroke="hsl(120.0,100%,35%)" stroke-width="0.01523"></path>
<path d="M1.193 0.062 Q0.628 0.118 0.614 0.406" stroke="hsl(120.0,100%,35%)" stroke-width="0.00160"></path>
<path d="M1.193 0.062 Q1.293 0.109 1.406 0.070" stroke="hsl(120.0,100%,35%)" stroke-width="0.00080"></path>
<path d="M1.193 0.062 Q0.679 0.253 0.938 0.546" stroke="hsl(120.0,100%,35%)" stroke-width="0.00160"></path>
<path d="M1.193 0.062 Q0.548 0.334 0.938 0.708" stroke="hsl(120.0,100%,35%)" stroke-width="0.00040"></path>
<path d="M1.193 0.062 Q0.378 0.038 0.152 0.430" stroke="hsl(120.0,100%,35%)" stroke-width="0.00120"></path>
<path d="M1.193 0.062 Q0.363 0.178 0.407 0.609" stroke="hsl(120.0,100%,35%)" stroke-width="0.00040"></path>
<path d="M1.193 0.062 Q0.257 0.088 0.102 0.550" stroke="hsl(120.0,100%,35%)" stroke-width="0.00080"></path>
<path d="M1.578 0.558 Q1.586 0.188 0.867 0.103" stroke="hsl(120.0,100%,35%)" stroke-width="0.00200"></path>
<path d="M1.578 0.558 Q1.503 0.489 1.353 0.511" stroke="hsl(120.0,100%,35%)" stroke-width="0.00160"></path>
<path d="M1.578 0.558 Q1.137 0.505 0.938 0.708" stroke="hsl(120.0,100%,35%)" stroke-width="0.00040"></path>
<path d="M1.578 0.558 Q1.123 0.329 0.577 0.501" stroke="hsl(120.0,100%,35%)" stroke-width="0.00080"></path>
<path d="M1.578 0.558 Q1.267 0.424 0.938 0.546" stroke="hsl(120.0,100%,35%)" stroke-width="0.00200"></path>
<path d="M1.578 0.558 Q1.782 0.233 1.193 0.062" stroke="hsl(120.0,100%,35%)" stroke-width="0.00160"></path>
<path d="M1.578 0.558 Q0.976 0.408 0.553 0.669" stroke="hsl(120.0,100%,35%)" stroke-width="0.00040"></path>
<path d="M1.578 0.558 Q1.421 0.305 0.894 0.326" stroke="hsl(120.0,100%,35%)" stroke-width="0.00040"></path>
<path d="M1.578 0.558 Q1.217 0.289 0.614 0.406" stroke="hsl(120.0,100%,35%)" stroke-width="0.00160"></path>
<path d="M1.406 0.070 Q1.306 0.023 1.193 0.062" stroke="hsl(120.0,100%,35%)" stroke-width="0.00481"></path>
<path d="M1.406 0.070 Q0.647 0.119 0.577 0.501" stroke="hsl(120.0,100%,35%)" stroke-width="0.00040"></path>
<path d="M1.406 0.070 Q0.500 0.199 0.553 0.669" stroke="hsl(120.0,100%,35%)" stroke-width="0.00040"></path>
<path d="M1.406 0.070 Q1.027 0.280 1.353 0.511" stroke="hsl(120.0,100%,35%)" stroke-width="0.00040"></path>
<path d="M0.577 0.501 Q0.672 0.461 0.614 0.406" stroke="hsl(120.0,100%,35%)" stroke-width="0.00080"></path>
<path d="M0.577 0.501 Q0.983 0.560 1.188 0.375" stroke="hsl(120.0,100%,35%)" stroke-width="0.00441"></path>
<path d="M0.577 0.501 Q0.431 0.580 0.553 0.669" stroke="hsl(120.0,100%,35%)" stroke-width="0.01604"></path>
<path d="M0.577 0.501 Q0.722 0.595 0.938 0.546" stroke="hsl(120.0,100%,35%)" stroke-width="0.00080"></path>
<path d="M0.577 0.501 Q0.957 0.661 1.353 0.511" stroke="hsl(120.0,100%,35%)" stroke-width="0.00441"></path>
<path d="M0.577 0.501 Q1.236 0.404 1.193 0.062" stroke="hsl(120.0,100%,35%)" stroke-width="0.00120"></path>
<path d="M0.577 0.501 Q0.258 0.606 0.394 0.785" stroke="hsl(120.0,100%,35%)" stroke-width="0.00040"></path>
<path d="M0.577 0.501 Q0.406 0.521 0.407 0.609" stroke="hsl(120.0,100%,35%)" stroke-width="0.00200"></path>
<path d="M0.577 0.501 Q0.421 0.380 0.152 0.430" stroke="hsl(120.0,100%,35%)" stroke-width="0.00040"></path>
<path d="M0.577 0.501 Q0.647 0.829 1.302 0.867" stroke="hsl(120.0,100%,35%)" stroke-width="0.00080"></path>
<path d="M0.851 0.629 Q0.961 0.605 0.938 0.546" stroke="hsl(120.0,100%,35%)" stroke-width="0.00281"></path>
<path d="M0.851 0.629 Q0.831 0.686 0.938 0.708" stroke="hsl(120.0,100%,35%)" stroke-width="0.00040"></path>
<path d="M0.851 0.629 Q1.222 0.569 1.188 0.375" stroke="hsl(120.0,100%,35%)" stroke-width="0.00040"></path>
<path d="M0.851 0.629 Q1.475 0.414 1.193 0.062" stroke="hsl(120.0,100%,35%)" stroke-width="0.00040"></path>
<path d="M0.851 0.629 Q0.911 0.470 0.614 0.406" stroke="hsl(120.0,100%,35%)" stroke-width="0.00080"></path>
<path d="M0.851 0.629 Q1.271 0.738 1.578 0.558" stroke="hsl(120.0,100%,35%)" stroke-width="0.00040"></path>
<path d="M0.851 0.629 Q0.670 0.589 0.553 0.669" stroke="hsl(120.0,100%,35%)" stroke-width="0.00040"></path>
<path d="M0.167 0.682 Q0.240 0.603 0.102 0.550" stroke="hsl(0.0,100%,35%)" stroke-width="0.01323"></path>
<path d="M0.167 0.682 Q0.897 0.834 1.353 0.511" stroke="hsl(0.0,100%,35%)" stroke-width="0.00040"></path>
<path d="M0.167 0.682 Q0.371 0.753 0.553 0.669" stroke="hsl(0.0,100%,35%)" stroke-width="0.00040"></path>
<path d="M0.167 0.682 Q0.026 0.725 0.079 0.804" stroke="hsl(0.0,100%,35%)" stroke-width="0.00521"></path>
<path d="M0.167 0.682 Q0.361 0.553 0.152 0.430" stroke="hsl(0.0,100%,35%)" stroke-width="0.00762"></path>
<path d="M0.167 0.682 Q0.127 0.670 0.096 0.687" stroke="hsl(0.0,100%,35%)" stroke-width="0.00080"></path>
<path d="M0.167 0.682 Q0.198 0.779 0.394 0.785" stroke="hsl(0.0,100%,35%)" stroke-width="0.00040"></path>
<path d="M0.079 0.804 Q0.293 0.682 0.102 0.550" stroke="hsl(0.0,100%,35%)" stroke-width="0.00441"></path>
<path d="M0.079 0.804 Q0.221 0.761 0.167 0.682" stroke="hsl(0.0,100%,35%)" stroke-width="0.00160"></path>
<path d="M0.079 0.804 Q0.415 0.632 0.152 0.430" stroke="hsl(0.0,100%,35%)" stroke-width="0.00241"></path>
<path d="M0.079 0.804 Q0.950 0.912 1.353 0.511" stroke="hsl(0.0,100%,35%)" stroke-width="0.00080"></path>
<path d="M0.079 0.804 Q0.251 0.858 0.394 0.785" stroke="hsl(0.0,100%,35%)" stroke-width="0.00040"></path>
<path d="M0.266 0.688 Q0.294 0.586 0.102 0.550" stroke="hsl(0.0,100%,35%)" stroke-width="0.00160"></path>
<path d="M0.266 0.688 Q0.415 0.536 0.152 0.430" stroke="hsl(0.0,100%,35%)" stroke-width="0.00040"></path>
<path d="M0.266 0.688 Q0.252 0.762 0.394 0.785" stroke="hsl(0.0,100%,35%)" stroke-width="0.00160"></path>
<path d="M0.266 0.688 Q0.978 0.716 1.188 0.375" stroke="hsl(0.0,100%,35%)" stroke-width="0.00040"></path>
<path d="M0.893 0.232 Q0.900 0.464 1.353 0.511" stroke="hsl(0.0,100%,35%)" stroke-width="0.00040"></path>
<path d="M0.893 0.232 Q0.818 0.279 0.894 0.326" stroke="hsl(0.0,100%,35%)" stroke-width="0.00040"></path>
<path d="M0.893 0.232 Q0.364 0.183 0.152 0.430" stroke="hsl(0.0,100%,35%)" stroke-width="0.00040"></path>
<path d="M0.894 0.326 Q0.976 0.510 1.353 0.511" stroke="hsl(120.0,100%,35%)" stroke-width="0.00160"></path>
<path d="M0.894 0.326 Q0.424 0.370 0.407 0.609" stroke="hsl(120.0,100%,35%)" stroke-width="0.00080"></path>
<path d="M0.894 0.326 Q0.913 0.296 0.858 0.279" stroke="hsl(120.0,100%,35%)" stroke-width="0.00080"></path>
<path d="M0.894 0.326 Q1.059 0.209 0.867 0.103" stroke="hsl(120.0,100%,35%)" stroke-width="0.00160"></path>
<path d="M0.894 0.326 Q0.690 0.310 0.614 0.406" stroke="hsl(120.0,100%,35%)" stroke-width="0.00160"></path>
<path d="M0.894 0.326 Q0.319 0.280 0.102 0.550" stroke="hsl(120.0,100%,35%)" stroke-width="0.00040"></path>
<path d="M0.894 0.326 Q1.002 0.409 1.188 0.375" stroke="hsl(120.0,100%,35%)" stroke-width="0.00120"></path>
<path d="M0.894 0.326 Q1.255 0.254 1.193 0.062" stroke="hsl(120.0,100%,35%)" stroke-width="0.00040"></path>
<path d="M1.612 0.403 Q0.666 0.254 0.167 0.682" stroke="hsl(0.0,100%,35%)" stroke-width="0.00120"></path>
<path d="M1.612 0.403 Q1.675 0.149 1.193 0.062" stroke="hsl(0.0,100%,35%)" stroke-width="0.00080"></path>
<path d="M1.612 0.403 Q1.161 0.340 0.938 0.546" stroke="hsl(0.0,100%,35%)" stroke-width="0.00080"></path>
<path d="M1.612 0.403 Q1.396 0.405 1.353 0.511" stroke="hsl(0.0,100%,35%)" stroke-width="0.00160"></path>
<path d="M1.612 0.403 Q1.422 0.304 1.188 0.375" stroke="hsl(0.0,100%,35%)" stroke-width="0.00040"></path>
<path d="M1.612 0.403 Q0.869 0.324 0.553 0.669" stroke="hsl(0.0,100%,35%)" stroke-width="0.00040"></path>
<path d="M1.612 0.403 Q1.479 0.104 0.867 0.103" stroke="hsl(0.0,100%,35%)" stroke-width="0.00120"></path>
<path d="M1.612 0.403 Q0.888 0.532 0.981 0.914" stroke="hsl(0.0,100%,35%)" stroke-width="0.00040"></path>
<path d="M1.612 0.403 Q1.110 0.205 0.614 0.406" stroke="hsl(0.0,100%,35%)" stroke-width="0.00080"></path>
<path d="M0.407 0.609 Q0.432 0.668 0.553 0.669" stroke="hsl(120.0,100%,35%)" stroke-width="0.00441"></path>
<path d="M0.407 0.609 Q0.578 0.589 0.577 0.501" stroke="hsl(120.0,100%,35%)" stroke-width="0.00281"></path>
<path d="M0.407 0.609 Q0.673 0.549 0.614 0.406" stroke="hsl(120.0,100%,35%)" stroke-width="0.00080"></path>
<path d="M0.407 0.609 Q0.985 0.648 1.188 0.375" stroke="hsl(120.0,100%,35%)" stroke-width="0.00080"></path>
<path d="M0.407 0.609 Q0.087 0.641 0.079 0.804" stroke="hsl(120.0,100%,35%)" stroke-width="0.00040"></path>
<path d="M0.407 0.609 Q0.648 0.917 1.302 0.867" stroke="hsl(120.0,100%,35%)" stroke-width="0.00040"></path>
<path d="M0.334 0.623 Q0.407 0.690 0.553 0.669" stroke="hsl(120.0,100%,35%)" stroke-width="0.00241"></path>
<path d="M0.334 0.623 Q1.017 0.470 0.867 0.103" stroke="hsl(120.0,100%,35%)" stroke-width="0.00080"></path>
<path d="M0.334 0.623 Q0.276 0.540 0.102 0.550" stroke="hsl(120.0,100%,35%)" stroke-width="0.00080"></path>
<path d="M0.334 0.623 Q0.933 0.771 1.353 0.511" stroke="hsl(120.0,100%,35%)" stroke-width="0.00120"></path>
<path d="M0.334 0.623 Q1.346 0.717 1.751 0.243" stroke="hsl(120.0,100%,35%)" stroke-width="0.00040"></path>
<path d="M0.334 0.623 Q1.212 0.514 1.193 0.062" stroke="hsl(120.0,100%,35%)" stroke-width="0.00040"></path>
<path d="M1.302 0.867 Q1.639 0.598 1.188 0.375" stroke="hsl(120.0,100%,35%)" stroke-width="0.00200"></path>
<path d="M1.302 0.867 Q1.086 0.618 0.553 0.669" stroke="hsl(120.0,100%,35%)" stroke-width="0.00160"></path>
<path d="M1.302 0.867 Q1.224 0.790 1.057 0.811" stroke="hsl(120.0,100%,35%)" stroke-width="0.00120"></path>
<path d="M1.302 0.867 Q1.077 0.419 0.152 0.430" stroke="hsl(120.0,100%,35%)" stroke-width="0.00080"></path>
<path d="M1.302 0.867 Q1.828 0.697 1.612 0.403" stroke="hsl(120.0,100%,35%)" stroke-width="0.00040"></path>
<path d="M1.302 0.867 Q1.327 0.499 0.614 0.406" stroke="hsl(120.0,100%,35%)" stroke-width="0.00040"></path>
<path d="M1.302 0.867 Q2.025 0.645 1.751 0.243" stroke="hsl(120.0,100%,35%)" stroke-width="0.00040"></path>
<path d="M1.756 0.344 Q1.136 0.147 0.614 0.406" stroke="hsl(0.0,100%,35%)" stroke-width="0.00040"></path>
<path d="M1.756 0.344 Q1.834 0.293 1.751 0.243" stroke="hsl(0.0,100%,35%)" stroke-width="0.00040"></path>
<path d="M1.756 0.344 Q1.505 0.046 0.867 0.103" stroke="hsl(0.0,100%,35%)" stroke-width="0.00040"></path>
<path d="M1.756 0.344 Q1.421 0.347 1.353 0.511" stroke="hsl(0.0,100%,35%)" stroke-width="0.00040"></path>
<path d="M1.756 0.344 Q1.637 0.345 1.612 0.403" stroke="hsl(0.0,100%,35%)" stroke-width="0.00080"></path>
<path d="M1.756 0.344 Q1.447 0.246 1.188 0.375" stroke="hsl(0.0,100%,35%)" stroke-width="0.00040"></path>
<path d="M1.756 0.344 Q1.186 0.282 0.938 0.546" stroke="hsl(0.0,100%,35%)" stroke-width="0.00040"></path>
<path d="M1.756 0.344 Q0.691 0.196 0.167 0.682" stroke="hsl(0.0,100%,35%)" stroke-width="0.00080"></path>
<path d="M1.207 0.159 Q1.082 0.063 0.867 0.103" stroke="hsl(120.0,100%,35%)" stroke-width="0.00120"></path>
<path d="M1.207 0.159 Q0.763 0.299 0.938 0.546" stroke="hsl(120.0,100%,35%)" stroke-width="0.00040"></path>
<path d="M1.207 0.159 Q0.713 0.164 0.614 0.406" stroke="hsl(120.0,100%,35%)" stroke-width="0.00080"></path>
<path d="M1.207 0.159 Q0.299 0.310 0.394 0.785" stroke="hsl(120.0,100%,35%)" stroke-width="0.00040"></path>
<path d="M1.207 0.159 Q0.998 0.364 1.353 0.511" stroke="hsl(120.0,100%,35%)" stroke-width="0.00040"></path>
<path d="M0.267 0.840 Q0.838 0.827 0.938 0.546" stroke="hsl(0.0,100%,35%)" stroke-width="0.00040"></path>
<path d="M0.267 0.840 Q0.202 0.784 0.079 0.804" stroke="hsl(0.0,100%,35%)" stroke-width="0.00160"></path>
<path d="M0.267 0.840 Q0.374 0.838 0.394 0.785" stroke="hsl(0.0,100%,35%)" stroke-width="0.00040"></path>
<path d="M0.267 0.840 Q1.352 0.636 1.193 0.062" stroke="hsl(0.0,100%,35%)" stroke-width="0.00040"></path>
<path d="M0.399 0.454 Q0.545 0.473 0.614 0.406" stroke="hsl(120.0,100%,35%)" stroke-width="0.00200"></path>
<path d="M0.399 0.454 Q1.243 0.619 1.751 0.243" stroke="hsl(120.0,100%,35%)" stroke-width="0.00040"></path>
<path d="M0.399 0.454 Q0.914 0.372 0.867 0.103" stroke="hsl(120.0,100%,35%)" stroke-width="0.00040"></path>
<path d="M0.399 0.454 Q0.279 0.533 0.407 0.609" stroke="hsl(120.0,100%,35%)" stroke-width="0.00040"></path>
<path d="M0.399 0.454 Q0.595 0.608 0.938 0.546" stroke="hsl(120.0,100%,35%)" stroke-width="0.00040"></path>
<path d="M1.428 0.728 Q1.279 0.404 0.614 0.406" stroke="hsl(240.0,100%,35%)" stroke-width="0.00160"></path>
<path d="M1.428 0.728 Q1.343 0.824 1.510 0.886" stroke="hsl(240.0,100%,35%)" stroke-width="0.00040"></path>
<path d="M1.428 0.728 Q1.648 0.304 0.867 0.103" stroke="hsl(240.0,100%,35%)" stroke-width="0.00040"></path>
<path d="M1.510 0.886 Q1.595 0.791 1.428 0.728" stroke="hsl(240.0,100%,35%)" stroke-width="0.00120"></path>
<path d="M1.510 0.886 Q1.447 0.467 0.614 0.406" stroke="hsl(240.0,100%,35%)" stroke-width="0.00080"></path>
<path d="M1.510 0.886 Q1.758 0.566 1.188 0.375" stroke="hsl(240.0,100%,35%)" stroke-width="0.00040"></path>
<path d="M0.981 0.914 Q1.515 0.685 1.188 0.375" stroke="hsl(120.0,100%,35%)" stroke-width="0.00040"></path>
<path d="M0.981 0.914 Q1.573 0.486 0.867 0.103" stroke="hsl(120.0,100%,35%)" stroke-width="0.00040"></path>
<path d="M0.981 0.914 Q0.960 0.853 0.837 0.850" stroke="hsl(120.0,100%,35%)" stroke-width="0.00040"></path>
<path d="M0.981 0.914 Q1.124 0.802 0.938 0.708" stroke="hsl(120.0,100%,35%)" stroke-width="0.00040"></path>
<path d="M1.634 0.686 Q1.412 0.761 1.510 0.886" stroke="hsl(240.0,100%,35%)" stroke-width="0.00120"></path>
<path d="M1.634 0.686 Q1.497 0.666 1.428 0.728" stroke="hsl(240.0,100%,35%)" stroke-width="0.00120"></path>
<path d="M1.634 0.686 Q0.858 0.599 0.518 0.959" stroke="hsl(240.0,100%,35%)" stroke-width="0.00040"></path>
<path d="M1.634 0.686 Q1.348 0.342 0.614 0.406" stroke="hsl(240.0,100%,35%)" stroke-width="0.00120"></path>
<path d="M1.634 0.686 Q1.717 0.241 0.867 0.103" stroke="hsl(240.0,100%,35%)" stroke-width="0.00040"></path>
<path d="M0.518 0.959 Q1.009 0.701 0.614 0.406" stroke="hsl(240.0,100%,35%)" stroke-width="0.00080"></path>
<path d="M0.518 0.959 Q0.627 1.007 0.745 0.964" stroke="hsl(240.0,100%,35%)" stroke-width="0.00080"></path>
<path d="M0.518 0.959 Q0.476 0.906 0.364 0.915" stroke="hsl(240.0,100%,35%)" stroke-width="0.00040"></path>
<path d="M0.518 0.959 Q0.397 0.890 0.237 0.935" stroke="hsl(240.0,100%,35%)" stroke-width="0.00080"></path>
<path d="M0.837 0.850 Q1.081 0.583 0.614 0.406" stroke="hsl(240.0,100%,35%)" stroke-width="0.00040"></path>
<path d="M0.837 0.850 Q1.230 0.908 1.428 0.728" stroke="hsl(240.0,100%,35%)" stroke-width="0.00040"></path>
<path d="M0.837 0.850 Q1.031 0.404 0.203 0.212" stroke="hsl(240.0,100%,35%)" stroke-width="0.00040"></path>
<path d="M0.992 0.361 Q1.079 0.407 1.188 0.375" stroke="hsl(120.0,100%,35%)" stroke-width="0.00281"></path>
<path d="M0.992 0.361 Q1.053 0.508 1.353 0.511" stroke="hsl(120.0,100%,35%)" stroke-width="0.00040"></path>
<path d="M0.992 0.361 Q1.128 0.577 1.578 0.558" stroke="hsl(120.0,100%,35%)" stroke-width="0.00040"></path>
<path d="M1.398 0.213 Q1.221 0.052 0.867 0.103" stroke="hsl(120.0,100%,35%)" stroke-width="0.00481"></path>
<path d="M1.398 0.213 Q1.075 0.138 0.858 0.279" stroke="hsl(120.0,100%,35%)" stroke-width="0.00040"></path>
<path d="M1.398 0.213 Q0.852 0.153 0.614 0.406" stroke="hsl(120.0,100%,35%)" stroke-width="0.00040"></path>
<path d="M0.364 0.915 Q0.896 0.710 0.614 0.406" stroke="hsl(240.0,100%,35%)" stroke-width="0.00120"></path>
<path d="M0.364 0.915 Q0.284 0.899 0.237 0.935" stroke="hsl(240.0,100%,35%)" stroke-width="0.00120"></path>
<path d="M0.364 0.915 Q0.406 0.968 0.518 0.959" stroke="hsl(240.0,100%,35%)" stroke-width="0.00080"></path>
<path d="M0.364 0.915 Q0.946 0.845 0.938 0.546" stroke="hsl(240.0,100%,35%)" stroke-width="0.00040"></path>
<path d="M0.281 0.090 Q0.564 0.214 0.867 0.103" stroke="hsl(240.0,100%,35%)" stroke-width="0.00080"></path>
<path d="M0.281 0.090 Q0.145 0.136 0.203 0.212" stroke="hsl(240.0,100%,35%)" stroke-width="0.00080"></path>
<path d="M0.281 0.090 Q0.344 0.639 1.428 0.728" stroke="hsl(240.0,100%,35%)" stroke-width="0.00040"></path>
<path d="M0.305 0.692 Q0.974 0.811 1.353 0.511" stroke="hsl(120.0,100%,35%)" stroke-width="0.00040"></path>
<path d="M0.305 0.692 Q0.594 0.651 0.577 0.501" stroke="hsl(120.0,100%,35%)" stroke-width="0.00040"></path>
<path d="M0.305 0.692 Q0.739 0.745 0.938 0.546" stroke="hsl(120.0,100%,35%)" stroke-width="0.00040"></path>
<path d="M0.662 0.767 Q0.513 0.722 0.394 0.785" stroke="hsl(0.0,100%,35%)" stroke-width="0.00080"></path>
<path d="M0.662 0.767 Q0.527 0.648 0.266 0.688" stroke="hsl(0.0,100%,35%)" stroke-width="0.00040"></path>
<path d="M0.662 0.767 Q0.676 0.497 0.152 0.430" stroke="hsl(0.0,100%,35%)" stroke-width="0.00040"></path>
<path d="M0.662 0.767 Q0.977 0.712 0.938 0.546" stroke="hsl(0.0,100%,35%)" stroke-width="0.00040"></path>
<path d="M0.662 0.767 Q1.238 0.676 1.188 0.375" stroke="hsl(0.0,100%,35%)" stroke-width="0.00040"></path>
<path d="M0.662 0.767 Q1.212 0.777 1.353 0.511" stroke="hsl(0.0,100%,35%)" stroke-width="0.00040"></path>
</g>
<text x="0.513" y="0.824" font-size="0.006576" fill="hsl(0.0,100%,20%)">aixba</text>
<text x="0.394" y="0.773" font-size="0.025041" fill="hsl(0.0,100%,20%)">paulirish</text>
<text x="0.102" y="0.526" font-size="0.049100" fill="hsl(0.0,100%,20%)">andoli</text>
<text x="0.365" y="0.556" font-size="0.016108" fill="hsl(0.0,100%,20%)">asraine</text>
<text x="0.569" y="0.875" font-size="0.005695" fill="hsl(0.0,100%,20%)">alexnj</text>
<text x="0.152" y="0.408" font-size="0.043496" fill="hsl(0.0,100%,20%)">jacktfranklin</text>
<text x="0.938" y="0.519" font-size="0.054326" fill="hsl(120.0,100%,20%)">alexrudenko</text>
<text x="1.188" y="0.342" font-size="0.065016" fill="hsl(120.0,100%,20%)">szuend</text>
<text x="1.353" y="0.473" font-size="0.075624" fill="hsl(120.0,100%,20%)">bmeurer</text>
<text x="0.867" y="0.076" font-size="0.053726" fill="hsl(120.0,100%,20%)">wolfi</text>
<text x="0.614" y="0.372" font-size="0.068022" fill="hsl(120.0,100%,20%)">dsv</text>
<text x="0.553" y="0.642" font-size="0.053221" fill="hsl(120.0,100%,20%)">pfaffe</text>
<text x="0.938" y="0.699" font-size="0.018009" fill="hsl(120.0,100%,20%)">nvitkov</text>
<text x="1.193" y="0.041" font-size="0.042490" fill="hsl(120.0,100%,20%)">kprokopenko</text>
<text x="1.578" y="0.542" font-size="0.030844" fill="hsl(120.0,100%,20%)">yangguo</text>
<text x="1.406" y="0.061" font-size="0.017398" fill="hsl(120.0,100%,20%)">petermueller</text>
<text x="1.107" y="0.602" font-size="0.003288" fill="hsl(120.0,100%,20%)">tperrotta</text>
<text x="0.577" y="0.476" font-size="0.049865" fill="hsl(120.0,100%,20%)">ergunsh</text>
<text x="0.851" y="0.621" font-size="0.015067" fill="hsl(120.0,100%,20%)">jrandolf</text>
<text x="0.167" y="0.667" font-size="0.031365" fill="hsl(0.0,100%,20%)">alinavarkki</text>
<text x="0.079" y="0.790" font-size="0.028093" fill="hsl(0.0,100%,20%)">nancyly</text>
<text x="0.096" y="0.684" font-size="0.007352" fill="hsl(0.0,100%,20%)">victorporof</text>
<text x="0.266" y="0.681" font-size="0.013950" fill="hsl(0.0,100%,20%)">cjamcl</text>
<text x="1.751" y="0.238" font-size="0.010905" fill="hsl(120.0,100%,20%)">mathias</text>
<text x="0.893" y="0.229" font-size="0.005695" fill="hsl(0.0,100%,20%)">barrypollard</text>
<text x="0.894" y="0.317" font-size="0.017706" fill="hsl(120.0,100%,20%)">jec</text>
<text x="1.612" y="0.394" font-size="0.016765" fill="hsl(0.0,100%,20%)">leese</text>
<text x="0.407" y="0.598" font-size="0.022056" fill="hsl(120.0,100%,20%)">changhaohan</text>
<text x="0.334" y="0.616" font-size="0.013950" fill="hsl(120.0,100%,20%)">kimanh</text>
<text x="1.302" y="0.860" font-size="0.014704" fill="hsl(120.0,100%,20%)">liviurau</text>
<text x="1.756" y="0.339" font-size="0.010398" fill="hsl(0.0,100%,20%)">chrche</text>
<text x="0.858" y="0.276" font-size="0.006576" fill="hsl(120.0,100%,20%)">semel</text>
<text x="1.207" y="0.154" font-size="0.009300" fill="hsl(120.0,100%,20%)">elormcoch</text>
<text x="0.267" y="0.835" font-size="0.008699" fill="hsl(0.0,100%,20%)">hadrienjaubert</text>
<text x="0.399" y="0.449" font-size="0.009864" fill="hsl(120.0,100%,20%)">jimmyseto</text>
<text x="1.428" y="0.722" font-size="0.012302" fill="hsl(240.0,100%,20%)">kenoss</text>
<text x="1.510" y="0.881" font-size="0.010398" fill="hsl(240.0,100%,20%)">lingqi</text>
<text x="0.981" y="0.910" font-size="0.007352" fill="hsl(120.0,100%,20%)">morlovich</text>
<text x="1.057" y="0.808" font-size="0.005695" fill="hsl(120.0,100%,20%)">machenbach</text>
<text x="1.634" y="0.680" font-size="0.010905" fill="hsl(240.0,100%,20%)">miinak</text>
<text x="0.518" y="0.954" font-size="0.010398" fill="hsl(240.0,100%,20%)">sisidovski</text>
<text x="0.837" y="0.847" font-size="0.006576" fill="hsl(240.0,100%,20%)">nhiroki</text>
<text x="0.203" y="0.209" font-size="0.005695" fill="hsl(240.0,100%,20%)">domenic</text>
<text x="0.992" y="0.356" font-size="0.009864" fill="hsl(120.0,100%,20%)">seth.brenith</text>
<text x="1.398" y="0.207" font-size="0.012734" fill="hsl(120.0,100%,20%)">shuuran</text>
<text x="0.745" y="0.962" font-size="0.004650" fill="hsl(240.0,100%,20%)">kouhei</text>
<text x="0.364" y="0.910" font-size="0.010398" fill="hsl(240.0,100%,20%)">tnak</text>
<text x="0.237" y="0.931" font-size="0.007352" fill="hsl(240.0,100%,20%)">yyanagisawa</text>
<text x="1.448" y="0.298" font-size="0.003288" fill="hsl(120.0,100%,20%)">caseq</text>
<text x="1.135" y="0.428" font-size="0.004650" fill="hsl(120.0,100%,20%)">jarin</text>
<text x="0.281" y="0.087" font-size="0.007352" fill="hsl(240.0,100%,20%)">taiyo</text>
<text x="0.305" y="0.689" font-size="0.005695" fill="hsl(120.0,100%,20%)">tkent</text>
<text x="0.662" y="0.762" font-size="0.008699" fill="hsl(0.0,100%,20%)">vidorteg</text>
<text x="1.161" y="0.220" font-size="0.003288" fill="hsl(120.0,100%,20%)">mathiasb</text>
<text x="0.993" y="0.208" font-size="0.003288" fill="hsl(120.0,100%,20%)">tsepez</text>
</svg>
