<svg width="4000" height="2000" viewBox="-0.025 -0.025 2.05 1.05" xmlns="http://www.w3.org/2000/svg">
  <style>
    path {
      fill: none;
      stroke-linecap: round;
      stroke-opacity: 0.4;
    }

    text {
      text-anchor: middle;
      alignment-baseline: hanging;
    }
  </style>
  <g opacity="0.4">
<path d="M1.745 0.651 Q1.882 0.519 1.653 0.423" stroke="hsl(0.0,100%,35%)" stroke-width="0.00602"></path>
<path d="M1.745 0.651 Q1.900 0.637 1.907 0.558" stroke="hsl(0.0,100%,35%)" stroke-width="0.00870"></path>
<path d="M1.745 0.651 Q1.723 0.482 1.387 0.455" stroke="hsl(0.0,100%,35%)" stroke-width="0.00335"></path>
<path d="M1.745 0.651 Q1.577 0.533 1.310 0.589" stroke="hsl(0.0,100%,35%)" stroke-width="0.02476"></path>
<path d="M1.745 0.651 Q2.107 0.447 1.788 0.225" stroke="hsl(0.0,100%,35%)" stroke-width="0.00067"></path>
<path d="M1.745 0.651 Q1.464 0.635 1.371 0.769" stroke="hsl(0.0,100%,35%)" stroke-width="0.00469"></path>
<path d="M1.745 0.651 Q1.389 0.222 0.473 0.302" stroke="hsl(0.0,100%,35%)" stroke-width="0.00134"></path>
<path d="M1.745 0.651 Q1.561 0.188 0.616 0.176" stroke="hsl(0.0,100%,35%)" stroke-width="0.00134"></path>
<path d="M1.745 0.651 Q1.800 0.416 1.352 0.337" stroke="hsl(0.0,100%,35%)" stroke-width="0.00067"></path>
<path d="M1.745 0.651 Q1.616 0.613 1.513 0.668" stroke="hsl(0.0,100%,35%)" stroke-width="0.01004"></path>
<path d="M1.745 0.651 Q2.089 0.496 1.862 0.295" stroke="hsl(0.0,100%,35%)" stroke-width="0.00067"></path>
<path d="M1.653 0.423 Q1.879 0.351 1.788 0.225" stroke="hsl(0.0,100%,35%)" stroke-width="0.00669"></path>
<path d="M1.653 0.423 Q1.517 0.556 1.745 0.651" stroke="hsl(0.0,100%,35%)" stroke-width="0.00669"></path>
<path d="M1.653 0.423 Q1.672 0.542 1.907 0.558" stroke="hsl(0.0,100%,35%)" stroke-width="0.00469"></path>
<path d="M1.653 0.423 Q1.349 0.438 1.310 0.589" stroke="hsl(0.0,100%,35%)" stroke-width="0.01205"></path>
<path d="M1.653 0.423 Q1.495 0.386 1.387 0.455" stroke="hsl(0.0,100%,35%)" stroke-width="0.01004"></path>
<path d="M1.653 0.423 Q1.299 0.575 1.517 0.781" stroke="hsl(0.0,100%,35%)" stroke-width="0.00134"></path>
<path d="M1.653 0.423 Q1.807 0.446 1.885 0.376" stroke="hsl(0.0,100%,35%)" stroke-width="0.00067"></path>
<path d="M1.653 0.423 Q1.332 0.092 0.616 0.176" stroke="hsl(0.0,100%,35%)" stroke-width="0.00067"></path>
<path d="M1.907 0.558 Q1.888 0.440 1.653 0.423" stroke="hsl(0.0,100%,35%)" stroke-width="0.04351"></path>
<path d="M1.907 0.558 Q2.114 0.368 1.788 0.225" stroke="hsl(0.0,100%,35%)" stroke-width="0.01807"></path>
<path d="M1.907 0.558 Q1.729 0.403 1.387 0.455" stroke="hsl(0.0,100%,35%)" stroke-width="0.01272"></path>
<path d="M1.907 0.558 Q1.534 0.592 1.517 0.781" stroke="hsl(0.0,100%,35%)" stroke-width="0.00067"></path>
<path d="M1.907 0.558 Q1.842 0.158 1.048 0.102" stroke="hsl(0.0,100%,35%)" stroke-width="0.00067"></path>
<path d="M1.907 0.558 Q1.622 0.534 1.513 0.668" stroke="hsl(0.0,100%,35%)" stroke-width="0.01205"></path>
<path d="M1.907 0.558 Q2.041 0.463 1.885 0.376" stroke="hsl(0.0,100%,35%)" stroke-width="0.01874"></path>
<path d="M1.907 0.558 Q1.470 0.557 1.371 0.769" stroke="hsl(0.0,100%,35%)" stroke-width="0.00134"></path>
<path d="M1.907 0.558 Q1.583 0.455 1.310 0.589" stroke="hsl(0.0,100%,35%)" stroke-width="0.01807"></path>
<path d="M1.907 0.558 Q1.806 0.337 1.352 0.337" stroke="hsl(0.0,100%,35%)" stroke-width="0.00535"></path>
<path d="M1.907 0.558 Q1.409 0.231 0.661 0.402" stroke="hsl(0.0,100%,35%)" stroke-width="0.00067"></path>
<path d="M1.907 0.558 Q2.095 0.417 1.862 0.295" stroke="hsl(0.0,100%,35%)" stroke-width="0.00335"></path>
<path d="M1.907 0.558 Q1.751 0.573 1.745 0.651" stroke="hsl(0.0,100%,35%)" stroke-width="0.02744"></path>
<path d="M1.907 0.558 Q1.360 0.283 0.702 0.489" stroke="hsl(0.0,100%,35%)" stroke-width="0.00067"></path>
<path d="M1.907 0.558 Q1.567 0.109 0.616 0.176" stroke="hsl(0.0,100%,35%)" stroke-width="0.00134"></path>
<path d="M1.907 0.558 Q2.013 0.338 1.607 0.238" stroke="hsl(0.0,100%,35%)" stroke-width="0.00067"></path>
<path d="M1.387 0.455 Q1.564 0.611 1.907 0.558" stroke="hsl(0.0,100%,35%)" stroke-width="0.01339"></path>
<path d="M1.387 0.455 Q1.241 0.507 1.310 0.589" stroke="hsl(0.0,100%,35%)" stroke-width="0.01406"></path>
<path d="M1.387 0.455 Q1.464 0.389 1.352 0.337" stroke="hsl(0.0,100%,35%)" stroke-width="0.00535"></path>
<path d="M1.387 0.455 Q1.556 0.300 1.291 0.184" stroke="hsl(0.0,100%,35%)" stroke-width="0.00067"></path>
<path d="M1.387 0.455 Q1.067 0.283 0.661 0.402" stroke="hsl(0.0,100%,35%)" stroke-width="0.00067"></path>
<path d="M1.387 0.455 Q1.699 0.515 1.885 0.376" stroke="hsl(0.0,100%,35%)" stroke-width="0.00134"></path>
<path d="M1.387 0.455 Q1.771 0.420 1.788 0.225" stroke="hsl(0.0,100%,35%)" stroke-width="0.00067"></path>
<path d="M1.387 0.455 Q1.546 0.493 1.653 0.423" stroke="hsl(0.0,100%,35%)" stroke-width="0.00535"></path>
<path d="M1.387 0.455 Q1.225 0.161 0.616 0.176" stroke="hsl(0.0,100%,35%)" stroke-width="0.00067"></path>
<path d="M1.387 0.455 Q1.280 0.587 1.513 0.668" stroke="hsl(0.0,100%,35%)" stroke-width="0.00067"></path>
<path d="M1.387 0.455 Q1.053 0.196 0.473 0.302" stroke="hsl(0.0,100%,35%)" stroke-width="0.00134"></path>
<path d="M1.387 0.455 Q1.500 0.211 1.048 0.102" stroke="hsl(0.0,100%,35%)" stroke-width="0.00067"></path>
<path d="M1.387 0.455 Q1.281 0.313 0.980 0.333" stroke="hsl(0.0,100%,35%)" stroke-width="0.00067"></path>
<path d="M1.310 0.589 Q1.768 0.598 1.885 0.376" stroke="hsl(0.0,100%,35%)" stroke-width="0.00870"></path>
<path d="M1.310 0.589 Q1.456 0.538 1.387 0.455" stroke="hsl(0.0,100%,35%)" stroke-width="0.01071"></path>
<path d="M1.310 0.589 Q1.633 0.693 1.907 0.558" stroke="hsl(0.0,100%,35%)" stroke-width="0.01272"></path>
<path d="M1.310 0.589 Q1.533 0.472 1.352 0.337" stroke="hsl(0.0,100%,35%)" stroke-width="0.00201"></path>
<path d="M1.310 0.589 Q1.840 0.503 1.788 0.225" stroke="hsl(0.0,100%,35%)" stroke-width="0.00335"></path>
<path d="M1.310 0.589 Q1.294 0.244 0.616 0.176" stroke="hsl(0.0,100%,35%)" stroke-width="0.00067"></path>
<path d="M1.310 0.589 Q1.478 0.707 1.745 0.651" stroke="hsl(0.0,100%,35%)" stroke-width="0.00602"></path>
<path d="M1.310 0.589 Q1.614 0.575 1.653 0.423" stroke="hsl(0.0,100%,35%)" stroke-width="0.02008"></path>
<path d="M1.310 0.589 Q1.651 0.466 1.484 0.273" stroke="hsl(0.0,100%,35%)" stroke-width="0.00067"></path>
<path d="M1.310 0.589 Q1.739 0.473 1.607 0.238" stroke="hsl(0.0,100%,35%)" stroke-width="0.00134"></path>
<path d="M1.310 0.589 Q1.349 0.669 1.513 0.668" stroke="hsl(0.0,100%,35%)" stroke-width="0.00067"></path>
<path d="M1.310 0.589 Q1.122 0.278 0.473 0.302" stroke="hsl(0.0,100%,35%)" stroke-width="0.00134"></path>
<path d="M1.310 0.589 Q1.715 0.356 1.349 0.107" stroke="hsl(0.0,100%,35%)" stroke-width="0.00067"></path>
<path d="M1.310 0.589 Q1.513 0.573 1.525 0.471" stroke="hsl(0.0,100%,35%)" stroke-width="0.00201"></path>
<path d="M1.310 0.589 Q1.569 0.293 1.048 0.102" stroke="hsl(0.0,100%,35%)" stroke-width="0.00067"></path>
<path d="M1.788 0.225 Q1.715 0.320 1.885 0.376" stroke="hsl(0.0,100%,35%)" stroke-width="0.01339"></path>
<path d="M1.788 0.225 Q1.580 0.415 1.907 0.558" stroke="hsl(0.0,100%,35%)" stroke-width="0.00268"></path>
<path d="M1.788 0.225 Q1.033 0.140 0.702 0.489" stroke="hsl(0.0,100%,35%)" stroke-width="0.00067"></path>
<path d="M1.788 0.225 Q1.562 0.297 1.653 0.423" stroke="hsl(0.0,100%,35%)" stroke-width="0.00201"></path>
<path d="M1.788 0.225 Q1.403 0.260 1.387 0.455" stroke="hsl(0.0,100%,35%)" stroke-width="0.00201"></path>
<path d="M1.788 0.225 Q1.257 0.312 1.310 0.589" stroke="hsl(0.0,100%,35%)" stroke-width="0.00067"></path>
<path d="M1.788 0.225 Q1.241 -0.034 0.616 0.176" stroke="hsl(0.0,100%,35%)" stroke-width="0.00268"></path>
<path d="M1.788 0.225 Q1.069 0.000 0.473 0.302" stroke="hsl(0.0,100%,35%)" stroke-width="0.00134"></path>
<path d="M1.788 0.225 Q1.159 0.178 0.929 0.474" stroke="hsl(0.0,100%,35%)" stroke-width="0.00067"></path>
<path d="M1.788 0.225 Q1.425 0.430 1.745 0.651" stroke="hsl(0.0,100%,35%)" stroke-width="0.00201"></path>
<path d="M1.371 0.769 Q1.807 0.771 1.907 0.558" stroke="hsl(0.0,100%,35%)" stroke-width="0.00335"></path>
<path d="M1.371 0.769 Q1.789 0.653 1.653 0.423" stroke="hsl(0.0,100%,35%)" stroke-width="0.00067"></path>
<path d="M1.371 0.769 Q2.015 0.580 1.788 0.225" stroke="hsl(0.0,100%,35%)" stroke-width="0.00067"></path>
<path d="M1.371 0.769 Q1.652 0.785 1.745 0.651" stroke="hsl(0.0,100%,35%)" stroke-width="0.00134"></path>
<path d="M0.473 0.302 Q0.645 0.268 0.616 0.176" stroke="hsl(180.0,100%,35%)" stroke-width="0.03146"></path>
<path d="M0.473 0.302 Q0.563 0.479 0.929 0.474" stroke="hsl(180.0,100%,35%)" stroke-width="0.00134"></path>
<path d="M0.473 0.302 Q0.829 0.731 1.745 0.651" stroke="hsl(180.0,100%,35%)" stroke-width="0.00067"></path>
<path d="M0.473 0.302 Q0.966 0.599 1.653 0.423" stroke="hsl(180.0,100%,35%)" stroke-width="0.00067"></path>
<path d="M0.473 0.302 Q0.487 0.389 0.661 0.402" stroke="hsl(180.0,100%,35%)" stroke-width="0.00201"></path>
<path d="M0.473 0.302 Q1.192 0.526 1.788 0.225" stroke="hsl(180.0,100%,35%)" stroke-width="0.00134"></path>
<path d="M0.616 0.176 Q0.534 0.387 0.929 0.474" stroke="hsl(180.0,100%,35%)" stroke-width="0.00268"></path>
<path d="M0.616 0.176 Q0.458 0.298 0.661 0.402" stroke="hsl(180.0,100%,35%)" stroke-width="0.00201"></path>
<path d="M0.616 0.176 Q1.163 0.435 1.788 0.225" stroke="hsl(180.0,100%,35%)" stroke-width="0.00067"></path>
<path d="M0.616 0.176 Q0.955 0.625 1.907 0.558" stroke="hsl(180.0,100%,35%)" stroke-width="0.00134"></path>
<path d="M0.616 0.176 Q0.444 0.210 0.473 0.302" stroke="hsl(180.0,100%,35%)" stroke-width="0.00669"></path>
<path d="M1.352 0.337 Q1.452 0.559 1.907 0.558" stroke="hsl(0.0,100%,35%)" stroke-width="0.01138"></path>
<path d="M1.352 0.337 Q1.659 0.368 1.788 0.225" stroke="hsl(0.0,100%,35%)" stroke-width="0.00067"></path>
<path d="M1.352 0.337 Q1.388 0.159 1.048 0.102" stroke="hsl(0.0,100%,35%)" stroke-width="0.00067"></path>
<path d="M1.352 0.337 Q1.587 0.463 1.885 0.376" stroke="hsl(0.0,100%,35%)" stroke-width="0.00268"></path>
<path d="M1.352 0.337 Q0.955 0.231 0.661 0.402" stroke="hsl(0.0,100%,35%)" stroke-width="0.00067"></path>
<path d="M1.352 0.337 Q0.905 0.283 0.702 0.489" stroke="hsl(0.0,100%,35%)" stroke-width="0.00067"></path>
<path d="M1.352 0.337 Q1.434 0.440 1.653 0.423" stroke="hsl(0.0,100%,35%)" stroke-width="0.00067"></path>
<path d="M1.352 0.337 Q1.275 0.403 1.387 0.455" stroke="hsl(0.0,100%,35%)" stroke-width="0.01138"></path>
<path d="M1.352 0.337 Q1.129 0.455 1.310 0.589" stroke="hsl(0.0,100%,35%)" stroke-width="0.00201"></path>
<path d="M1.352 0.337 Q1.641 0.418 1.862 0.295" stroke="hsl(0.0,100%,35%)" stroke-width="0.00067"></path>
<path d="M1.513 0.668 Q1.620 0.536 1.387 0.455" stroke="hsl(0.0,100%,35%)" stroke-width="0.00268"></path>
<path d="M1.513 0.668 Q1.798 0.692 1.907 0.558" stroke="hsl(0.0,100%,35%)" stroke-width="0.00268"></path>
<path d="M1.513 0.668 Q1.361 0.690 1.371 0.769" stroke="hsl(0.0,100%,35%)" stroke-width="0.00067"></path>
<path d="M1.513 0.668 Q1.932 0.596 1.885 0.376" stroke="hsl(0.0,100%,35%)" stroke-width="0.00067"></path>
<path d="M1.513 0.668 Q1.642 0.706 1.745 0.651" stroke="hsl(0.0,100%,35%)" stroke-width="0.00134"></path>
<path d="M1.513 0.668 Q1.697 0.470 1.352 0.337" stroke="hsl(0.0,100%,35%)" stroke-width="0.00067"></path>
<path d="M0.929 0.474 Q1.010 0.262 0.616 0.176" stroke="hsl(180.0,100%,35%)" stroke-width="0.01272"></path>
<path d="M0.929 0.474 Q1.350 0.712 1.907 0.558" stroke="hsl(180.0,100%,35%)" stroke-width="0.00067"></path>
<path d="M0.929 0.474 Q1.557 0.521 1.788 0.225" stroke="hsl(180.0,100%,35%)" stroke-width="0.00067"></path>
<path d="M0.929 0.474 Q0.852 0.384 0.661 0.402" stroke="hsl(180.0,100%,35%)" stroke-width="0.00335"></path>
<path d="M0.929 0.474 Q0.838 0.297 0.473 0.302" stroke="hsl(180.0,100%,35%)" stroke-width="0.01004"></path>
<path d="M1.048 0.102 Q1.112 0.502 1.907 0.558" stroke="hsl(0.0,100%,35%)" stroke-width="0.00134"></path>
<path d="M1.048 0.102 Q1.218 0.282 1.607 0.238" stroke="hsl(0.0,100%,35%)" stroke-width="0.00134"></path>
<path d="M1.048 0.102 Q1.194 0.165 1.349 0.107" stroke="hsl(0.0,100%,35%)" stroke-width="0.00067"></path>
<path d="M1.048 0.102 Q0.935 0.347 1.387 0.455" stroke="hsl(0.0,100%,35%)" stroke-width="0.00134"></path>
<path d="M1.048 0.102 Q0.789 0.398 1.310 0.589" stroke="hsl(0.0,100%,35%)" stroke-width="0.00067"></path>
<path d="M1.048 0.102 Q0.773 0.053 0.616 0.176" stroke="hsl(0.0,100%,35%)" stroke-width="0.00067"></path>
<path d="M1.048 0.102 Q1.093 0.384 1.653 0.423" stroke="hsl(0.0,100%,35%)" stroke-width="0.00067"></path>
<path d="M1.885 0.376 Q1.427 0.368 1.310 0.589" stroke="hsl(0.0,100%,35%)" stroke-width="0.00134"></path>
<path d="M1.885 0.376 Q1.731 0.353 1.653 0.423" stroke="hsl(0.0,100%,35%)" stroke-width="0.00201"></path>
<path d="M1.885 0.376 Q1.957 0.281 1.788 0.225" stroke="hsl(0.0,100%,35%)" stroke-width="0.01071"></path>
<path d="M1.885 0.376 Q1.595 0.486 1.745 0.651" stroke="hsl(0.0,100%,35%)" stroke-width="0.00067"></path>
<path d="M1.885 0.376 Q1.750 0.472 1.907 0.558" stroke="hsl(0.0,100%,35%)" stroke-width="0.00469"></path>
<path d="M1.885 0.376 Q1.650 0.250 1.352 0.337" stroke="hsl(0.0,100%,35%)" stroke-width="0.00134"></path>
<path d="M1.885 0.376 Q0.688 0.339 0.353 0.915" stroke="hsl(0.0,100%,35%)" stroke-width="0.00067"></path>
<path d="M1.885 0.376 Q1.856 0.252 1.607 0.238" stroke="hsl(0.0,100%,35%)" stroke-width="0.00134"></path>
<path d="M1.885 0.376 Q1.112 0.286 0.766 0.643" stroke="hsl(0.0,100%,35%)" stroke-width="0.00134"></path>
<path d="M0.702 0.489 Q0.828 0.527 0.929 0.474" stroke="hsl(0.0,100%,35%)" stroke-width="0.00201"></path>
<path d="M0.702 0.489 Q1.149 0.543 1.352 0.337" stroke="hsl(0.0,100%,35%)" stroke-width="0.00067"></path>
<path d="M0.702 0.489 Q1.094 0.779 1.745 0.651" stroke="hsl(0.0,100%,35%)" stroke-width="0.00067"></path>
<path d="M0.702 0.489 Q1.249 0.765 1.907 0.558" stroke="hsl(0.0,100%,35%)" stroke-width="0.00067"></path>
<path d="M1.607 0.238 Q1.708 0.268 1.788 0.225" stroke="hsl(0.0,100%,35%)" stroke-width="0.00268"></path>
<path d="M1.607 0.238 Q1.636 0.363 1.885 0.376" stroke="hsl(0.0,100%,35%)" stroke-width="0.00134"></path>
<path d="M1.607 0.238 Q1.178 0.355 1.310 0.589" stroke="hsl(0.0,100%,35%)" stroke-width="0.00067"></path>
<path d="M1.607 0.238 Q0.863 0.273 0.766 0.643" stroke="hsl(0.0,100%,35%)" stroke-width="0.00067"></path>
<path d="M0.766 0.643 Q1.385 0.711 1.653 0.423" stroke="hsl(0.0,100%,35%)" stroke-width="0.00067"></path>
<path d="M0.766 0.643 Q1.611 0.638 1.788 0.225" stroke="hsl(0.0,100%,35%)" stroke-width="0.00067"></path>
<path d="M0.766 0.643 Q0.692 0.713 0.812 0.765" stroke="hsl(0.0,100%,35%)" stroke-width="0.00134"></path>
<path d="M1.168 0.742 Q1.361 0.694 1.310 0.589" stroke="hsl(0.0,100%,35%)" stroke-width="0.00067"></path>
<path d="M1.168 0.742 Q1.311 0.831 1.517 0.781" stroke="hsl(0.0,100%,35%)" stroke-width="0.00067"></path>
<path d="M1.168 0.742 Q1.507 0.643 1.387 0.455" stroke="hsl(0.0,100%,35%)" stroke-width="0.00067"></path>
<path d="M1.168 0.742 Q1.684 0.798 1.907 0.558" stroke="hsl(0.0,100%,35%)" stroke-width="0.00067"></path>
<path d="M1.168 0.742 Q1.529 0.812 1.745 0.651" stroke="hsl(0.0,100%,35%)" stroke-width="0.00067"></path>
<path d="M1.168 0.742 Q1.263 0.560 0.929 0.474" stroke="hsl(0.0,100%,35%)" stroke-width="0.00067"></path>
<path d="M1.525 0.471 Q1.490 0.605 1.745 0.651" stroke="hsl(0.0,100%,35%)" stroke-width="0.00268"></path>
<path d="M1.525 0.471 Q1.209 0.589 1.371 0.769" stroke="hsl(0.0,100%,35%)" stroke-width="0.00067"></path>
<path d="M1.525 0.471 Q1.627 0.473 1.653 0.423" stroke="hsl(0.0,100%,35%)" stroke-width="0.00067"></path>
<path d="M1.525 0.471 Q1.545 0.369 1.352 0.337" stroke="hsl(0.0,100%,35%)" stroke-width="0.00067"></path>
<path d="M1.525 0.471 Q1.322 0.487 1.310 0.589" stroke="hsl(0.0,100%,35%)" stroke-width="0.00067"></path>
<path d="M1.762 0.848 Q1.587 0.840 1.532 0.923" stroke="hsl(0.0,100%,35%)" stroke-width="0.00134"></path>
<path d="M1.762 0.848 Q1.880 0.839 1.887 0.779" stroke="hsl(0.0,100%,35%)" stroke-width="0.00134"></path>
<path d="M1.762 0.848 Q1.141 0.381 0.093 0.581" stroke="hsl(0.0,100%,35%)" stroke-width="0.00067"></path>
<path d="M1.762 0.848 Q1.743 0.629 1.310 0.589" stroke="hsl(0.0,100%,35%)" stroke-width="0.00134"></path>
<path d="M0.093 0.581 Q0.695 0.829 1.310 0.589" stroke="hsl(0.0,100%,35%)" stroke-width="0.00067"></path>
<path d="M0.093 0.581 Q0.257 0.613 0.356 0.540" stroke="hsl(0.0,100%,35%)" stroke-width="0.00067"></path>
<path d="M0.093 0.581 Q0.590 0.388 0.323 0.103" stroke="hsl(0.0,100%,35%)" stroke-width="0.00067"></path>
<path d="M0.093 0.581 Q0.478 0.417 0.243 0.193" stroke="hsl(0.0,100%,35%)" stroke-width="0.00067"></path>
<path d="M1.667 0.499 Q1.721 0.459 1.653 0.423" stroke="hsl(0.0,100%,35%)" stroke-width="0.00268"></path>
<path d="M1.667 0.499 Q1.740 0.577 1.907 0.558" stroke="hsl(0.0,100%,35%)" stroke-width="0.00067"></path>
<path d="M1.667 0.499 Q1.455 0.553 1.513 0.668" stroke="hsl(0.0,100%,35%)" stroke-width="0.00067"></path>
<path d="M1.291 0.184 Q1.122 0.339 1.387 0.455" stroke="hsl(0.0,100%,35%)" stroke-width="0.00535"></path>
<path d="M1.291 0.184 Q1.381 0.157 1.349 0.107" stroke="hsl(0.0,100%,35%)" stroke-width="0.00067"></path>
<path d="M1.291 0.184 Q0.976 0.391 1.310 0.589" stroke="hsl(0.0,100%,35%)" stroke-width="0.00067"></path>
<path d="M0.323 0.103 Q0.427 0.544 1.310 0.589" stroke="hsl(0.0,100%,35%)" stroke-width="0.00134"></path>
<path d="M0.323 0.103 Q0.210 0.132 0.243 0.193" stroke="hsl(0.0,100%,35%)" stroke-width="0.00134"></path>
<path d="M0.323 0.103 Q-0.175 0.296 0.093 0.581" stroke="hsl(0.0,100%,35%)" stroke-width="0.00067"></path>
<path d="M0.323 0.103 Q0.595 0.662 1.745 0.651" stroke="hsl(0.0,100%,35%)" stroke-width="0.00067"></path>
<path d="M0.475 0.789 Q0.313 0.827 0.353 0.915" stroke="hsl(180.0,100%,35%)" stroke-width="0.00067"></path>
<path d="M0.475 0.789 Q0.475 0.699 0.300 0.680" stroke="hsl(180.0,100%,35%)" stroke-width="0.00067"></path>
<path d="M0.475 0.789 Q0.864 0.545 0.473 0.302" stroke="hsl(180.0,100%,35%)" stroke-width="0.00067"></path>
</g>
<text x="1.745" y="0.621" font-size="0.060580" fill="hsl(0.0,100%,20%)">alexrudenko</text>
<text x="1.653" y="0.391" font-size="0.064571" fill="hsl(0.0,100%,20%)">szuend</text>
<text x="1.907" y="0.515" font-size="0.087305" fill="hsl(0.0,100%,20%)">bmeurer</text>
<text x="1.387" y="0.426" font-size="0.058575" fill="hsl(0.0,100%,20%)">wolfi</text>
<text x="1.310" y="0.554" font-size="0.070055" fill="hsl(0.0,100%,20%)">dsv</text>
<text x="1.788" y="0.200" font-size="0.049536" fill="hsl(0.0,100%,20%)">pfaffe</text>
<text x="1.371" y="0.759" font-size="0.020840" fill="hsl(0.0,100%,20%)">nvitkov</text>
<text x="0.473" y="0.280" font-size="0.044209" fill="hsl(180.0,100%,20%)">jacktfranklin</text>
<text x="0.616" y="0.153" font-size="0.046132" fill="hsl(180.0,100%,20%)">andoli</text>
<text x="1.352" y="0.317" font-size="0.039541" fill="hsl(0.0,100%,20%)">kprokopenko</text>
<text x="1.513" y="0.652" font-size="0.032620" fill="hsl(0.0,100%,20%)">yangguo</text>
<text x="1.862" y="0.288" font-size="0.012329" fill="hsl(0.0,100%,20%)">petermueller</text>
<text x="0.929" y="0.457" font-size="0.033604" fill="hsl(180.0,100%,20%)">alinavarkki</text>
<text x="0.661" y="0.393" font-size="0.017436" fill="hsl(180.0,100%,20%)">nancyly</text>
<text x="1.517" y="0.776" font-size="0.009320" fill="hsl(0.0,100%,20%)">mathias</text>
<text x="1.048" y="0.093" font-size="0.017436" fill="hsl(0.0,100%,20%)">jec</text>
<text x="1.885" y="0.352" font-size="0.048203" fill="hsl(0.0,100%,20%)">ergunsh</text>
<text x="0.702" y="0.482" font-size="0.013980" fill="hsl(0.0,100%,20%)">leese</text>
<text x="1.607" y="0.229" font-size="0.018048" fill="hsl(0.0,100%,20%)">changhaohan</text>
<text x="0.766" y="0.637" font-size="0.012329" fill="hsl(0.0,100%,20%)">liviurau</text>
<text x="1.168" y="0.736" font-size="0.011415" fill="hsl(0.0,100%,20%)">chrche</text>
<text x="1.484" y="0.270" font-size="0.004660" fill="hsl(0.0,100%,20%)">asraine</text>
<text x="1.349" y="0.103" font-size="0.008071" fill="hsl(0.0,100%,20%)">semel</text>
<text x="1.525" y="0.463" font-size="0.015455" fill="hsl(0.0,100%,20%)">jrandolf</text>
<text x="0.353" y="0.911" font-size="0.006590" fill="hsl(180.0,100%,20%)">paulirish</text>
<text x="0.812" y="0.761" font-size="0.006590" fill="hsl(0.0,100%,20%)">machenbach</text>
<text x="1.762" y="0.842" font-size="0.012329" fill="hsl(0.0,100%,20%)">miinak</text>
<text x="1.532" y="0.920" font-size="0.006590" fill="hsl(0.0,100%,20%)">lingqi</text>
<text x="1.887" y="0.775" font-size="0.006590" fill="hsl(0.0,100%,20%)">kenoss</text>
<text x="0.093" y="0.575" font-size="0.011415" fill="hsl(0.0,100%,20%)">sisidovski</text>
<text x="1.667" y="0.494" font-size="0.011415" fill="hsl(0.0,100%,20%)">seth.brenith</text>
<text x="1.291" y="0.176" font-size="0.015455" fill="hsl(0.0,100%,20%)">shuuran</text>
<text x="0.356" y="0.538" font-size="0.004660" fill="hsl(0.0,100%,20%)">kouhei</text>
<text x="0.323" y="0.096" font-size="0.012329" fill="hsl(0.0,100%,20%)">tnak</text>
<text x="0.243" y="0.189" font-size="0.008071" fill="hsl(0.0,100%,20%)">yyanagisawa</text>
<text x="0.475" y="0.785" font-size="0.008071" fill="hsl(180.0,100%,20%)">vidorteg</text>
<text x="0.300" y="0.678" font-size="0.004660" fill="hsl(180.0,100%,20%)">cjamcl</text>
<text x="0.980" y="0.331" font-size="0.004660" fill="hsl(0.0,100%,20%)">mathiasb</text>
</svg>
