<svg width="4000" height="2000" viewBox="-0.025 -0.025 2.05 1.05" xmlns="http://www.w3.org/2000/svg">
  <style>
    path {
      fill: none;
      stroke-linecap: round;
      stroke-opacity: 0.4;
    }

    text {
      text-anchor: middle;
      alignment-baseline: hanging;
    }
  </style>
  <g opacity="0.4">
<path d="M0.814 0.059 Q0.759 0.228 1.076 0.293" stroke="hsl(0.0,100%,35%)" stroke-width="0.01780"></path>
<path d="M0.814 0.059 Q0.295 0.298 0.646 0.604" stroke="hsl(0.0,100%,35%)" stroke-width="0.00178"></path>
<path d="M0.814 0.059 Q1.058 0.170 1.327 0.075" stroke="hsl(0.0,100%,35%)" stroke-width="0.00356"></path>
<path d="M0.814 0.059 Q0.974 0.261 1.404 0.228" stroke="hsl(0.0,100%,35%)" stroke-width="0.01424"></path>
<path d="M0.814 0.059 Q0.890 0.114 1.012 0.089" stroke="hsl(0.0,100%,35%)" stroke-width="0.02135"></path>
<path d="M0.814 0.059 Q0.613 0.046 0.543 0.141" stroke="hsl(0.0,100%,35%)" stroke-width="0.00178"></path>
<path d="M0.814 0.059 Q0.763 0.563 1.736 0.699" stroke="hsl(0.0,100%,35%)" stroke-width="0.00178"></path>
<path d="M1.076 0.293 Q0.371 0.396 0.419 0.763" stroke="hsl(0.0,100%,35%)" stroke-width="0.01424"></path>
<path d="M1.076 0.293 Q1.132 0.124 0.814 0.059" stroke="hsl(0.0,100%,35%)" stroke-width="0.02135"></path>
<path d="M1.076 0.293 Q0.612 0.362 0.646 0.604" stroke="hsl(0.0,100%,35%)" stroke-width="0.00712"></path>
<path d="M1.076 0.293 Q1.292 0.326 1.404 0.228" stroke="hsl(0.0,100%,35%)" stroke-width="0.01068"></path>
<path d="M1.076 0.293 Q1.081 0.627 1.736 0.699" stroke="hsl(0.0,100%,35%)" stroke-width="0.00178"></path>
<path d="M1.076 0.293 Q1.181 0.349 1.314 0.311" stroke="hsl(0.0,100%,35%)" stroke-width="0.00356"></path>
<path d="M1.076 0.293 Q1.501 0.352 1.709 0.157" stroke="hsl(0.0,100%,35%)" stroke-width="0.00356"></path>
<path d="M0.646 0.604 Q1.110 0.534 1.076 0.293" stroke="hsl(0.0,100%,35%)" stroke-width="0.04093"></path>
<path d="M0.646 0.604 Q0.405 0.638 0.419 0.763" stroke="hsl(0.0,100%,35%)" stroke-width="0.01602"></path>
<path d="M0.646 0.604 Q0.350 0.532 0.146 0.660" stroke="hsl(0.0,100%,35%)" stroke-width="0.00890"></path>
<path d="M0.646 0.604 Q0.326 0.580 0.211 0.731" stroke="hsl(0.0,100%,35%)" stroke-width="0.00178"></path>
<path d="M0.646 0.604 Q1.534 0.593 1.709 0.157" stroke="hsl(0.0,100%,35%)" stroke-width="0.00356"></path>
<path d="M0.646 0.604 Q1.241 0.420 1.012 0.089" stroke="hsl(0.0,100%,35%)" stroke-width="0.00534"></path>
<path d="M0.646 0.604 Q1.165 0.365 0.814 0.059" stroke="hsl(0.0,100%,35%)" stroke-width="0.00178"></path>
<path d="M0.646 0.604 Q1.325 0.567 1.404 0.228" stroke="hsl(0.0,100%,35%)" stroke-width="0.00178"></path>
<path d="M0.646 0.604 Q1.114 0.869 1.736 0.699" stroke="hsl(0.0,100%,35%)" stroke-width="0.00178"></path>
<path d="M0.646 0.604 Q1.409 0.475 1.327 0.075" stroke="hsl(0.0,100%,35%)" stroke-width="0.00178"></path>
<path d="M1.327 0.075 Q0.563 0.203 0.646 0.604" stroke="hsl(0.0,100%,35%)" stroke-width="0.00178"></path>
<path d="M1.327 0.075 Q1.243 0.167 1.404 0.228" stroke="hsl(0.0,100%,35%)" stroke-width="0.00890"></path>
<path d="M1.327 0.075 Q0.268 0.131 0.146 0.660" stroke="hsl(0.0,100%,35%)" stroke-width="0.00534"></path>
<path d="M1.327 0.075 Q1.027 0.134 1.076 0.293" stroke="hsl(0.0,100%,35%)" stroke-width="0.00890"></path>
<path d="M1.404 0.228 Q1.613 0.254 1.709 0.157" stroke="hsl(0.0,100%,35%)" stroke-width="0.03381"></path>
<path d="M1.404 0.228 Q1.488 0.136 1.327 0.075" stroke="hsl(0.0,100%,35%)" stroke-width="0.03203"></path>
<path d="M1.404 0.228 Q0.724 0.264 0.646 0.604" stroke="hsl(0.0,100%,35%)" stroke-width="0.02313"></path>
<path d="M1.404 0.228 Q0.429 0.192 0.146 0.660" stroke="hsl(0.0,100%,35%)" stroke-width="0.00890"></path>
<path d="M1.404 0.228 Q0.484 0.298 0.419 0.763" stroke="hsl(0.0,100%,35%)" stroke-width="0.00890"></path>
<path d="M1.404 0.228 Q1.193 0.530 1.736 0.699" stroke="hsl(0.0,100%,35%)" stroke-width="0.00178"></path>
<path d="M1.404 0.228 Q1.244 0.026 0.814 0.059" stroke="hsl(0.0,100%,35%)" stroke-width="0.01957"></path>
<path d="M1.404 0.228 Q1.188 0.195 1.076 0.293" stroke="hsl(0.0,100%,35%)" stroke-width="0.04983"></path>
<path d="M1.404 0.228 Q0.827 0.375 0.988 0.689" stroke="hsl(0.0,100%,35%)" stroke-width="0.00178"></path>
<path d="M1.404 0.228 Q0.580 0.111 0.170 0.487" stroke="hsl(0.0,100%,35%)" stroke-width="0.00356"></path>
<path d="M1.404 0.228 Q1.556 0.340 1.807 0.290" stroke="hsl(0.0,100%,35%)" stroke-width="0.00534"></path>
<path d="M1.404 0.228 Q1.349 0.394 1.660 0.457" stroke="hsl(0.0,100%,35%)" stroke-width="0.00178"></path>
<path d="M1.736 0.699 Q1.558 0.634 1.393 0.706" stroke="hsl(0.0,100%,35%)" stroke-width="0.00712"></path>
<path d="M1.736 0.699 Q1.480 0.776 1.575 0.917" stroke="hsl(0.0,100%,35%)" stroke-width="0.00356"></path>
<path d="M1.736 0.699 Q1.731 0.364 1.076 0.293" stroke="hsl(0.0,100%,35%)" stroke-width="0.00178"></path>
<path d="M0.988 0.689 Q0.867 0.833 1.121 0.923" stroke="hsl(0.0,100%,35%)" stroke-width="0.00356"></path>
<path d="M0.988 0.689 Q1.354 0.843 1.736 0.699" stroke="hsl(0.0,100%,35%)" stroke-width="0.00356"></path>
<path d="M0.988 0.689 Q1.237 0.640 1.197 0.508" stroke="hsl(0.0,100%,35%)" stroke-width="0.00356"></path>
<path d="M1.121 0.923 Q1.608 0.934 1.736 0.699" stroke="hsl(0.0,100%,35%)" stroke-width="0.00178"></path>
<path d="M1.121 0.923 Q1.491 0.731 1.197 0.508" stroke="hsl(0.0,100%,35%)" stroke-width="0.00178"></path>
<path d="M1.121 0.923 Q1.603 0.599 1.076 0.293" stroke="hsl(0.0,100%,35%)" stroke-width="0.00178"></path>
<path d="M0.146 0.660 Q0.441 0.732 0.646 0.604" stroke="hsl(0.0,100%,35%)" stroke-width="0.01068"></path>
<path d="M0.146 0.660 Q0.200 0.766 0.419 0.763" stroke="hsl(0.0,100%,35%)" stroke-width="0.00178"></path>
<path d="M0.146 0.660 Q1.066 0.861 1.660 0.457" stroke="hsl(0.0,100%,35%)" stroke-width="0.00178"></path>
<path d="M0.146 0.660 Q1.330 0.721 1.709 0.157" stroke="hsl(0.0,100%,35%)" stroke-width="0.00178"></path>
<path d="M0.146 0.660 Q0.910 0.997 1.736 0.699" stroke="hsl(0.0,100%,35%)" stroke-width="0.00178"></path>
<path d="M0.146 0.660 Q0.961 0.493 0.814 0.059" stroke="hsl(0.0,100%,35%)" stroke-width="0.00356"></path>
<path d="M1.709 0.157 Q1.500 0.132 1.404 0.228" stroke="hsl(0.0,100%,35%)" stroke-width="0.00178"></path>
<path d="M1.709 0.157 Q1.284 0.098 1.076 0.293" stroke="hsl(0.0,100%,35%)" stroke-width="0.00356"></path>
<path d="M1.709 0.157 Q0.580 0.202 0.419 0.763" stroke="hsl(0.0,100%,35%)" stroke-width="0.00534"></path>
<path d="M1.709 0.157 Q1.340 -0.071 0.814 0.059" stroke="hsl(0.0,100%,35%)" stroke-width="0.00178"></path>
<path d="M1.709 0.157 Q1.588 0.225 1.695 0.299" stroke="hsl(0.0,100%,35%)" stroke-width="0.00356"></path>
<path d="M1.709 0.157 Q0.525 0.096 0.146 0.660" stroke="hsl(0.0,100%,35%)" stroke-width="0.00178"></path>
<path d="M1.709 0.157 Q0.676 0.014 0.170 0.487" stroke="hsl(0.0,100%,35%)" stroke-width="0.00178"></path>
<path d="M0.170 0.487 Q1.082 0.698 1.695 0.299" stroke="hsl(0.0,100%,35%)" stroke-width="0.00178"></path>
<path d="M0.170 0.487 Q0.074 0.675 0.419 0.763" stroke="hsl(0.0,100%,35%)" stroke-width="0.00178"></path>
<path d="M0.170 0.487 Q0.778 0.571 1.076 0.293" stroke="hsl(0.0,100%,35%)" stroke-width="0.00178"></path>
<path d="M1.544 0.095 Q1.207 -0.069 0.814 0.059" stroke="hsl(0.0,100%,35%)" stroke-width="0.00178"></path>
<path d="M1.544 0.095 Q1.367 0.133 1.404 0.228" stroke="hsl(0.0,100%,35%)" stroke-width="0.00178"></path>
<path d="M1.544 0.095 Q1.451 0.041 1.327 0.075" stroke="hsl(0.0,100%,35%)" stroke-width="0.00178"></path>
<path d="M0.668 0.729 Q0.516 0.696 0.419 0.763" stroke="hsl(0.0,100%,35%)" stroke-width="0.00356"></path>
<path d="M0.668 0.729 Q1.520 0.534 1.327 0.075" stroke="hsl(0.0,100%,35%)" stroke-width="0.00178"></path>
<path d="M0.668 0.729 Q1.226 0.927 1.736 0.699" stroke="hsl(0.0,100%,35%)" stroke-width="0.00178"></path>
<path d="M0.668 0.729 Q0.757 0.662 0.646 0.604" stroke="hsl(0.0,100%,35%)" stroke-width="0.00356"></path>
<path d="M0.194 0.335 Q0.334 0.405 0.502 0.352" stroke="hsl(0.0,100%,35%)" stroke-width="0.00178"></path>
<path d="M0.194 0.335 Q0.884 0.524 1.404 0.228" stroke="hsl(0.0,100%,35%)" stroke-width="0.00178"></path>
<path d="M0.194 0.335 Q0.317 0.282 0.241 0.210" stroke="hsl(0.0,100%,35%)" stroke-width="0.00178"></path>
</g>
<text x="0.814" y="0.026" font-size="0.065689" fill="hsl(0.0,100%,20%)">alexrudenko</text>
<text x="1.076" y="0.250" font-size="0.085207" fill="hsl(0.0,100%,20%)">szuend</text>
<text x="0.646" y="0.568" font-size="0.071193" fill="hsl(0.0,100%,20%)">bmeurer</text>
<text x="1.327" y="0.050" font-size="0.050341" fill="hsl(0.0,100%,20%)">wolfi</text>
<text x="1.404" y="0.181" font-size="0.094362" fill="hsl(0.0,100%,20%)">dsv</text>
<text x="1.012" y="0.073" font-size="0.032053" fill="hsl(0.0,100%,20%)">yangguo</text>
<text x="0.543" y="0.137" font-size="0.008276" fill="hsl(0.0,100%,20%)">nvitkov</text>
<text x="1.736" y="0.682" font-size="0.033104" fill="hsl(0.0,100%,20%)">andoli</text>
<text x="1.393" y="0.698" font-size="0.016552" fill="hsl(0.0,100%,20%)">alinavarkki</text>
<text x="1.575" y="0.911" font-size="0.011704" fill="hsl(0.0,100%,20%)">nancyly</text>
<text x="0.988" y="0.678" font-size="0.021896" fill="hsl(0.0,100%,20%)">asraine</text>
<text x="1.121" y="0.914" font-size="0.018506" fill="hsl(0.0,100%,20%)">cjamcl</text>
<text x="1.197" y="0.501" font-size="0.014335" fill="hsl(0.0,100%,20%)">paulirish</text>
<text x="0.419" y="0.741" font-size="0.044568" fill="hsl(0.0,100%,20%)">pfaffe</text>
<text x="0.146" y="0.639" font-size="0.042200" fill="hsl(0.0,100%,20%)">kprokopenko</text>
<text x="0.211" y="0.727" font-size="0.008276" fill="hsl(0.0,100%,20%)">petermueller</text>
<text x="1.709" y="0.133" font-size="0.048962" fill="hsl(0.0,100%,20%)">ergunsh</text>
<text x="0.170" y="0.477" font-size="0.020272" fill="hsl(0.0,100%,20%)">changhaohan</text>
<text x="1.695" y="0.292" font-size="0.014335" fill="hsl(0.0,100%,20%)">liviurau</text>
<text x="1.807" y="0.283" font-size="0.014335" fill="hsl(0.0,100%,20%)">jrandolf</text>
<text x="1.660" y="0.451" font-size="0.011704" fill="hsl(0.0,100%,20%)">jec</text>
<text x="1.544" y="0.087" font-size="0.014335" fill="hsl(0.0,100%,20%)">elormcoch</text>
<text x="0.668" y="0.719" font-size="0.020272" fill="hsl(0.0,100%,20%)">kimanh</text>
<text x="0.194" y="0.328" font-size="0.014335" fill="hsl(0.0,100%,20%)">sisidovski</text>
<text x="0.502" y="0.348" font-size="0.008276" fill="hsl(0.0,100%,20%)">kouhei</text>
<text x="0.241" y="0.206" font-size="0.008276" fill="hsl(0.0,100%,20%)">yyanagisawa</text>
<text x="1.314" y="0.305" font-size="0.011704" fill="hsl(0.0,100%,20%)">mathias</text>
</svg>
