<svg width="4000" height="2000" viewBox="-0.025 -0.025 2.05 1.05" xmlns="http://www.w3.org/2000/svg">
  <style>
    path {
      fill: none;
      stroke-linecap: round;
      stroke-opacity: 0.4;
    }

    text {
      text-anchor: middle;
      alignment-baseline: hanging;
    }
  </style>
  <g opacity="0.4">
<path d="M0.566 0.754 Q0.417 0.751 0.378 0.823" stroke="hsl(0.0,100%,35%)" stroke-width="0.00072"></path>
<path d="M0.566 0.754 Q1.101 0.661 1.036 0.379" stroke="hsl(0.0,100%,35%)" stroke-width="0.00072"></path>
<path d="M0.566 0.754 Q0.597 0.704 0.505 0.678" stroke="hsl(0.0,100%,35%)" stroke-width="0.00072"></path>
<path d="M0.378 0.823 Q1.063 0.733 1.036 0.379" stroke="hsl(0.0,100%,35%)" stroke-width="0.00506"></path>
<path d="M0.378 0.823 Q0.901 0.728 0.829 0.451" stroke="hsl(0.0,100%,35%)" stroke-width="0.00289"></path>
<path d="M0.378 0.823 Q0.734 0.495 0.172 0.249" stroke="hsl(0.0,100%,35%)" stroke-width="0.00072"></path>
<path d="M1.036 0.379 Q0.875 0.374 0.829 0.451" stroke="hsl(0.0,100%,35%)" stroke-width="0.05495"></path>
<path d="M1.036 0.379 Q0.937 0.486 1.124 0.558" stroke="hsl(0.0,100%,35%)" stroke-width="0.00145"></path>
<path d="M1.036 0.379 Q0.708 0.141 0.172 0.249" stroke="hsl(0.0,100%,35%)" stroke-width="0.00434"></path>
<path d="M1.036 0.379 Q0.925 0.289 0.725 0.324" stroke="hsl(0.0,100%,35%)" stroke-width="0.00217"></path>
<path d="M1.036 0.379 Q1.086 0.300 0.943 0.259" stroke="hsl(0.0,100%,35%)" stroke-width="0.00145"></path>
<path d="M1.036 0.379 Q0.352 0.470 0.378 0.823" stroke="hsl(0.0,100%,35%)" stroke-width="0.00289"></path>
<path d="M1.036 0.379 Q0.776 0.370 0.701 0.495" stroke="hsl(0.0,100%,35%)" stroke-width="0.00145"></path>
<path d="M1.036 0.379 Q0.532 0.422 0.505 0.678" stroke="hsl(0.0,100%,35%)" stroke-width="0.00072"></path>
<path d="M0.505 0.678 Q0.910 0.742 1.124 0.558" stroke="hsl(180.0,100%,35%)" stroke-width="0.00723"></path>
<path d="M0.505 0.678 Q0.498 0.584 0.313 0.567" stroke="hsl(180.0,100%,35%)" stroke-width="0.02675"></path>
<path d="M0.505 0.678 Q1.010 0.635 1.036 0.379" stroke="hsl(180.0,100%,35%)" stroke-width="0.00145"></path>
<path d="M0.505 0.678 Q0.319 0.611 0.148 0.687" stroke="hsl(180.0,100%,35%)" stroke-width="0.00072"></path>
<path d="M0.505 0.678 Q0.848 0.629 0.829 0.451" stroke="hsl(180.0,100%,35%)" stroke-width="0.00072"></path>
<path d="M0.505 0.678 Q0.989 0.966 1.658 0.793" stroke="hsl(180.0,100%,35%)" stroke-width="0.00145"></path>
<path d="M0.505 0.678 Q1.155 0.790 1.517 0.498" stroke="hsl(180.0,100%,35%)" stroke-width="0.00578"></path>
<path d="M0.505 0.678 Q1.196 0.881 1.744 0.589" stroke="hsl(180.0,100%,35%)" stroke-width="0.00072"></path>
<path d="M0.505 0.678 Q1.029 0.865 1.508 0.650" stroke="hsl(180.0,100%,35%)" stroke-width="0.00362"></path>
<path d="M0.505 0.678 Q0.833 1.035 1.602 0.953" stroke="hsl(180.0,100%,35%)" stroke-width="0.00362"></path>
<path d="M0.505 0.678 Q0.306 0.643 0.195 0.733" stroke="hsl(180.0,100%,35%)" stroke-width="0.00072"></path>
<path d="M0.505 0.678 Q1.239 0.564 1.178 0.181" stroke="hsl(180.0,100%,35%)" stroke-width="0.00072"></path>
<path d="M0.505 0.678 Q0.613 0.475 0.241 0.378" stroke="hsl(180.0,100%,35%)" stroke-width="0.00072"></path>
<path d="M1.124 0.558 Q1.273 0.372 0.943 0.259" stroke="hsl(180.0,100%,35%)" stroke-width="0.01012"></path>
<path d="M1.124 0.558 Q0.719 0.494 0.505 0.678" stroke="hsl(180.0,100%,35%)" stroke-width="0.00506"></path>
<path d="M1.124 0.558 Q1.500 0.471 1.412 0.268" stroke="hsl(180.0,100%,35%)" stroke-width="0.00145"></path>
<path d="M1.124 0.558 Q1.243 0.681 1.508 0.650" stroke="hsl(180.0,100%,35%)" stroke-width="0.00578"></path>
<path d="M1.124 0.558 Q0.712 0.400 0.313 0.567" stroke="hsl(180.0,100%,35%)" stroke-width="0.01374"></path>
<path d="M1.124 0.558 Q1.453 0.380 1.178 0.181" stroke="hsl(180.0,100%,35%)" stroke-width="0.00072"></path>
<path d="M1.124 0.558 Q1.047 0.851 1.602 0.953" stroke="hsl(180.0,100%,35%)" stroke-width="0.00578"></path>
<path d="M1.124 0.558 Q0.953 0.521 0.843 0.597" stroke="hsl(180.0,100%,35%)" stroke-width="0.00072"></path>
<path d="M0.313 0.567 Q0.648 1.018 1.602 0.953" stroke="hsl(180.0,100%,35%)" stroke-width="0.00217"></path>
<path d="M0.313 0.567 Q0.725 0.725 1.124 0.558" stroke="hsl(180.0,100%,35%)" stroke-width="0.00940"></path>
<path d="M0.313 0.567 Q1.054 0.547 1.178 0.181" stroke="hsl(180.0,100%,35%)" stroke-width="0.01446"></path>
<path d="M0.313 0.567 Q0.970 0.773 1.517 0.498" stroke="hsl(180.0,100%,35%)" stroke-width="0.00072"></path>
<path d="M0.313 0.567 Q0.874 0.539 0.943 0.259" stroke="hsl(180.0,100%,35%)" stroke-width="0.00145"></path>
<path d="M0.313 0.567 Q0.844 0.847 1.508 0.650" stroke="hsl(180.0,100%,35%)" stroke-width="0.00506"></path>
<path d="M0.313 0.567 Q0.825 0.618 1.036 0.379" stroke="hsl(180.0,100%,35%)" stroke-width="0.00145"></path>
<path d="M0.313 0.567 Q0.365 0.419 0.088 0.362" stroke="hsl(180.0,100%,35%)" stroke-width="0.00072"></path>
<path d="M0.313 0.567 Q0.320 0.661 0.505 0.678" stroke="hsl(180.0,100%,35%)" stroke-width="0.00217"></path>
<path d="M0.148 0.687 Q0.334 0.754 0.505 0.678" stroke="hsl(180.0,100%,35%)" stroke-width="0.00217"></path>
<path d="M0.148 0.687 Q0.858 0.940 1.508 0.650" stroke="hsl(180.0,100%,35%)" stroke-width="0.00072"></path>
<path d="M0.148 0.687 Q0.739 0.818 1.124 0.558" stroke="hsl(180.0,100%,35%)" stroke-width="0.00072"></path>
<path d="M0.148 0.687 Q0.442 0.551 0.241 0.378" stroke="hsl(180.0,100%,35%)" stroke-width="0.00072"></path>
<path d="M0.148 0.687 Q0.819 1.042 1.658 0.793" stroke="hsl(180.0,100%,35%)" stroke-width="0.00072"></path>
<path d="M0.829 0.451 Q0.990 0.457 1.036 0.379" stroke="hsl(0.0,100%,35%)" stroke-width="0.01591"></path>
<path d="M0.829 0.451 Q0.662 0.219 0.172 0.249" stroke="hsl(0.0,100%,35%)" stroke-width="0.00940"></path>
<path d="M0.829 0.451 Q0.891 0.564 1.124 0.558" stroke="hsl(0.0,100%,35%)" stroke-width="0.00217"></path>
<path d="M0.829 0.451 Q1.040 0.378 0.943 0.259" stroke="hsl(0.0,100%,35%)" stroke-width="0.00072"></path>
<path d="M0.829 0.451 Q0.879 0.367 0.725 0.324" stroke="hsl(0.0,100%,35%)" stroke-width="0.00072"></path>
<path d="M1.658 0.793 Q1.908 0.391 1.178 0.181" stroke="hsl(180.0,100%,35%)" stroke-width="0.00289"></path>
<path d="M1.658 0.793 Q1.865 0.708 1.744 0.589" stroke="hsl(180.0,100%,35%)" stroke-width="0.00072"></path>
<path d="M1.658 0.793 Q1.698 0.691 1.508 0.650" stroke="hsl(180.0,100%,35%)" stroke-width="0.01085"></path>
<path d="M1.658 0.793 Q1.502 0.862 1.602 0.953" stroke="hsl(180.0,100%,35%)" stroke-width="0.01808"></path>
<path d="M1.658 0.793 Q1.174 0.505 0.505 0.678" stroke="hsl(180.0,100%,35%)" stroke-width="0.00145"></path>
<path d="M1.658 0.793 Q0.988 0.438 0.148 0.687" stroke="hsl(180.0,100%,35%)" stroke-width="0.00072"></path>
<path d="M1.658 0.793 Q1.679 0.462 1.036 0.379" stroke="hsl(180.0,100%,35%)" stroke-width="0.00217"></path>
<path d="M1.658 0.793 Q1.350 0.224 0.172 0.249" stroke="hsl(180.0,100%,35%)" stroke-width="0.00072"></path>
<path d="M1.658 0.793 Q1.728 0.383 0.943 0.259" stroke="hsl(180.0,100%,35%)" stroke-width="0.00072"></path>
<path d="M1.658 0.793 Q1.797 0.520 1.295 0.393" stroke="hsl(180.0,100%,35%)" stroke-width="0.00072"></path>
<path d="M1.658 0.793 Q1.517 0.456 0.829 0.451" stroke="hsl(180.0,100%,35%)" stroke-width="0.00072"></path>
<path d="M1.658 0.793 Q1.167 0.411 0.313 0.567" stroke="hsl(180.0,100%,35%)" stroke-width="0.00289"></path>
<path d="M1.517 0.498 Q1.391 0.572 1.508 0.650" stroke="hsl(180.0,100%,35%)" stroke-width="0.00289"></path>
<path d="M1.517 0.498 Q1.601 0.271 1.178 0.181" stroke="hsl(180.0,100%,35%)" stroke-width="0.00145"></path>
<path d="M1.517 0.498 Q0.867 0.385 0.505 0.678" stroke="hsl(180.0,100%,35%)" stroke-width="0.00072"></path>
<path d="M1.517 0.498 Q1.351 0.674 1.658 0.793" stroke="hsl(180.0,100%,35%)" stroke-width="0.00217"></path>
<path d="M1.517 0.498 Q1.421 0.263 0.943 0.259" stroke="hsl(180.0,100%,35%)" stroke-width="0.00072"></path>
<path d="M1.517 0.498 Q1.055 0.696 1.341 0.965" stroke="hsl(180.0,100%,35%)" stroke-width="0.00072"></path>
<path d="M1.517 0.498 Q0.681 0.319 0.148 0.687" stroke="hsl(180.0,100%,35%)" stroke-width="0.00072"></path>
<path d="M1.517 0.498 Q1.195 0.742 1.602 0.953" stroke="hsl(180.0,100%,35%)" stroke-width="0.00217"></path>
<path d="M1.744 0.589 Q1.538 0.674 1.658 0.793" stroke="hsl(180.0,100%,35%)" stroke-width="0.00578"></path>
<path d="M1.744 0.589 Q1.787 0.271 1.178 0.181" stroke="hsl(180.0,100%,35%)" stroke-width="0.00072"></path>
<path d="M1.744 0.589 Q1.607 0.263 0.943 0.259" stroke="hsl(180.0,100%,35%)" stroke-width="0.00072"></path>
<path d="M1.508 0.650 Q1.313 0.821 1.602 0.953" stroke="hsl(180.0,100%,35%)" stroke-width="0.00868"></path>
<path d="M1.508 0.650 Q1.718 0.349 1.178 0.181" stroke="hsl(180.0,100%,35%)" stroke-width="0.01663"></path>
<path d="M1.508 0.650 Q1.539 0.341 0.943 0.259" stroke="hsl(180.0,100%,35%)" stroke-width="0.02169"></path>
<path d="M1.508 0.650 Q1.389 0.527 1.124 0.558" stroke="hsl(180.0,100%,35%)" stroke-width="0.05061"></path>
<path d="M1.508 0.650 Q1.607 0.479 1.295 0.393" stroke="hsl(180.0,100%,35%)" stroke-width="0.00072"></path>
<path d="M1.508 0.650 Q1.635 0.576 1.517 0.498" stroke="hsl(180.0,100%,35%)" stroke-width="0.01157"></path>
<path d="M1.508 0.650 Q1.675 0.667 1.744 0.589" stroke="hsl(180.0,100%,35%)" stroke-width="0.00434"></path>
<path d="M1.508 0.650 Q0.984 0.463 0.505 0.678" stroke="hsl(180.0,100%,35%)" stroke-width="0.01085"></path>
<path d="M1.508 0.650 Q0.977 0.369 0.313 0.567" stroke="hsl(180.0,100%,35%)" stroke-width="0.01808"></path>
<path d="M1.508 0.650 Q1.469 0.752 1.658 0.793" stroke="hsl(180.0,100%,35%)" stroke-width="0.00651"></path>
<path d="M1.508 0.650 Q1.327 0.415 0.829 0.451" stroke="hsl(180.0,100%,35%)" stroke-width="0.00145"></path>
<path d="M1.508 0.650 Q1.951 0.370 1.503 0.093" stroke="hsl(180.0,100%,35%)" stroke-width="0.00145"></path>
<path d="M1.602 0.953 Q1.267 0.502 0.313 0.567" stroke="hsl(180.0,100%,35%)" stroke-width="0.01446"></path>
<path d="M1.602 0.953 Q1.798 0.783 1.508 0.650" stroke="hsl(180.0,100%,35%)" stroke-width="0.00506"></path>
<path d="M1.602 0.953 Q1.462 0.907 1.341 0.965" stroke="hsl(180.0,100%,35%)" stroke-width="0.00145"></path>
<path d="M1.602 0.953 Q1.779 0.553 1.036 0.379" stroke="hsl(180.0,100%,35%)" stroke-width="0.00289"></path>
<path d="M1.602 0.953 Q1.646 0.846 1.448 0.802" stroke="hsl(180.0,100%,35%)" stroke-width="0.00072"></path>
<path d="M1.602 0.953 Q1.759 0.884 1.658 0.793" stroke="hsl(180.0,100%,35%)" stroke-width="0.00868"></path>
<path d="M1.602 0.953 Q1.516 0.869 1.332 0.892" stroke="hsl(180.0,100%,35%)" stroke-width="0.00072"></path>
<path d="M1.602 0.953 Q1.274 0.596 0.505 0.678" stroke="hsl(180.0,100%,35%)" stroke-width="0.00145"></path>
<path d="M1.602 0.953 Q1.828 0.474 0.943 0.259" stroke="hsl(180.0,100%,35%)" stroke-width="0.00072"></path>
<path d="M1.602 0.953 Q1.679 0.660 1.124 0.558" stroke="hsl(180.0,100%,35%)" stroke-width="0.00289"></path>
<path d="M1.602 0.953 Q1.617 0.548 0.829 0.451" stroke="hsl(180.0,100%,35%)" stroke-width="0.00072"></path>
<path d="M1.602 0.953 Q1.924 0.708 1.517 0.498" stroke="hsl(180.0,100%,35%)" stroke-width="0.00072"></path>
<path d="M1.602 0.953 Q2.008 0.482 1.178 0.181" stroke="hsl(180.0,100%,35%)" stroke-width="0.00072"></path>
<path d="M1.178 0.181 Q1.067 0.310 1.295 0.393" stroke="hsl(180.0,100%,35%)" stroke-width="0.00289"></path>
<path d="M1.178 0.181 Q0.998 0.173 0.943 0.259" stroke="hsl(180.0,100%,35%)" stroke-width="0.01735"></path>
<path d="M1.178 0.181 Q0.436 0.201 0.313 0.567" stroke="hsl(180.0,100%,35%)" stroke-width="0.00072"></path>
<path d="M1.178 0.181 Q0.967 0.481 1.508 0.650" stroke="hsl(180.0,100%,35%)" stroke-width="0.00434"></path>
<path d="M1.178 0.181 Q0.948 0.252 1.036 0.379" stroke="hsl(180.0,100%,35%)" stroke-width="0.00072"></path>
<path d="M1.178 0.181 Q0.849 0.359 1.124 0.558" stroke="hsl(180.0,100%,35%)" stroke-width="0.00506"></path>
<path d="M1.178 0.181 Q0.443 0.295 0.505 0.678" stroke="hsl(180.0,100%,35%)" stroke-width="0.00072"></path>
<path d="M0.241 0.378 Q0.132 0.581 0.505 0.678" stroke="hsl(180.0,100%,35%)" stroke-width="0.00217"></path>
<path d="M0.241 0.378 Q0.125 0.486 0.313 0.567" stroke="hsl(180.0,100%,35%)" stroke-width="0.00145"></path>
<path d="M0.241 0.378 Q0.783 0.693 1.517 0.498" stroke="hsl(180.0,100%,35%)" stroke-width="0.00072"></path>
<path d="M0.241 0.378 Q0.687 0.458 0.943 0.259" stroke="hsl(180.0,100%,35%)" stroke-width="0.00072"></path>
<path d="M0.725 0.324 Q0.836 0.414 1.036 0.379" stroke="hsl(0.0,100%,35%)" stroke-width="0.01374"></path>
<path d="M0.725 0.324 Q0.508 0.176 0.172 0.249" stroke="hsl(0.0,100%,35%)" stroke-width="0.00723"></path>
<path d="M0.725 0.324 Q0.675 0.408 0.829 0.451" stroke="hsl(0.0,100%,35%)" stroke-width="0.00289"></path>
<path d="M0.172 0.249 Q0.389 0.397 0.725 0.324" stroke="hsl(0.0,100%,35%)" stroke-width="0.00289"></path>
<path d="M0.172 0.249 Q0.500 0.487 1.036 0.379" stroke="hsl(0.0,100%,35%)" stroke-width="0.00434"></path>
<path d="M0.172 0.249 Q0.339 0.482 0.829 0.451" stroke="hsl(0.0,100%,35%)" stroke-width="0.00289"></path>
<path d="M0.172 0.249 Q0.519 0.717 1.508 0.650" stroke="hsl(0.0,100%,35%)" stroke-width="0.00145"></path>
<path d="M0.172 0.249 Q-0.184 0.578 0.378 0.823" stroke="hsl(0.0,100%,35%)" stroke-width="0.00072"></path>
<path d="M0.943 0.259 Q1.123 0.267 1.178 0.181" stroke="hsl(180.0,100%,35%)" stroke-width="0.00578"></path>
<path d="M0.943 0.259 Q0.794 0.445 1.124 0.558" stroke="hsl(180.0,100%,35%)" stroke-width="0.00868"></path>
<path d="M0.943 0.259 Q0.717 0.738 1.602 0.953" stroke="hsl(180.0,100%,35%)" stroke-width="0.00217"></path>
<path d="M0.943 0.259 Q0.381 0.287 0.313 0.567" stroke="hsl(180.0,100%,35%)" stroke-width="0.00217"></path>
<path d="M0.943 0.259 Q0.732 0.332 0.829 0.451" stroke="hsl(180.0,100%,35%)" stroke-width="0.00289"></path>
<path d="M0.943 0.259 Q0.893 0.338 1.036 0.379" stroke="hsl(180.0,100%,35%)" stroke-width="0.00145"></path>
<path d="M0.943 0.259 Q0.782 0.248 0.725 0.324" stroke="hsl(180.0,100%,35%)" stroke-width="0.00072"></path>
<path d="M0.943 0.259 Q0.912 0.567 1.508 0.650" stroke="hsl(180.0,100%,35%)" stroke-width="0.00145"></path>
<path d="M0.943 0.259 Q0.388 0.381 0.505 0.678" stroke="hsl(180.0,100%,35%)" stroke-width="0.00289"></path>
<path d="M0.943 0.259 Q1.012 0.396 1.295 0.393" stroke="hsl(180.0,100%,35%)" stroke-width="0.00072"></path>
<path d="M0.943 0.259 Q0.497 0.178 0.241 0.378" stroke="hsl(180.0,100%,35%)" stroke-width="0.00072"></path>
<path d="M0.943 0.259 Q1.356 0.288 1.503 0.093" stroke="hsl(180.0,100%,35%)" stroke-width="0.00072"></path>
<path d="M0.278 0.722 Q0.629 0.986 1.220 0.873" stroke="hsl(0.0,100%,35%)" stroke-width="0.00072"></path>
<path d="M0.278 0.722 Q1.208 0.722 1.412 0.268" stroke="hsl(0.0,100%,35%)" stroke-width="0.00072"></path>
<path d="M0.278 0.722 Q0.248 0.793 0.378 0.823" stroke="hsl(0.0,100%,35%)" stroke-width="0.00217"></path>
<path d="M1.295 0.393 Q1.227 0.255 0.943 0.259" stroke="hsl(180.0,100%,35%)" stroke-width="0.00651"></path>
<path d="M1.295 0.393 Q1.407 0.263 1.178 0.181" stroke="hsl(180.0,100%,35%)" stroke-width="0.00362"></path>
<path d="M1.295 0.393 Q0.665 0.283 0.313 0.567" stroke="hsl(180.0,100%,35%)" stroke-width="0.00072"></path>
<path d="M1.295 0.393 Q1.077 0.441 1.124 0.558" stroke="hsl(180.0,100%,35%)" stroke-width="0.00072"></path>
<path d="M1.295 0.393 Q0.849 0.097 0.172 0.249" stroke="hsl(180.0,100%,35%)" stroke-width="0.00072"></path>
<path d="M1.503 0.093 Q1.060 0.372 1.508 0.650" stroke="hsl(180.0,100%,35%)" stroke-width="0.00217"></path>
<path d="M1.503 0.093 Q0.941 0.250 1.124 0.558" stroke="hsl(180.0,100%,35%)" stroke-width="0.00072"></path>
<path d="M1.503 0.093 Q0.930 0.053 0.725 0.324" stroke="hsl(180.0,100%,35%)" stroke-width="0.00217"></path>
<path d="M1.503 0.093 Q0.536 0.186 0.505 0.678" stroke="hsl(180.0,100%,35%)" stroke-width="0.00072"></path>
<path d="M1.503 0.093 Q1.021 0.474 1.658 0.793" stroke="hsl(180.0,100%,35%)" stroke-width="0.00072"></path>
<path d="M1.269 0.044 Q0.904 0.395 1.508 0.650" stroke="hsl(180.0,100%,35%)" stroke-width="0.00072"></path>
<path d="M1.269 0.044 Q1.347 0.115 1.503 0.093" stroke="hsl(180.0,100%,35%)" stroke-width="0.00145"></path>
<path d="M1.269 0.044 Q0.785 0.272 1.124 0.558" stroke="hsl(180.0,100%,35%)" stroke-width="0.00072"></path>
<path d="M0.516 0.396 Q0.285 0.535 0.505 0.678" stroke="hsl(0.0,100%,35%)" stroke-width="0.00072"></path>
<path d="M0.516 0.396 Q0.461 0.254 0.172 0.249" stroke="hsl(0.0,100%,35%)" stroke-width="0.00289"></path>
<path d="M0.516 0.396 Q0.105 0.582 0.378 0.823" stroke="hsl(0.0,100%,35%)" stroke-width="0.00072"></path>
<path d="M0.516 0.396 Q0.769 0.823 1.658 0.793" stroke="hsl(0.0,100%,35%)" stroke-width="0.00072"></path>
<path d="M1.341 0.965 Q1.481 1.011 1.602 0.953" stroke="hsl(180.0,100%,35%)" stroke-width="0.00217"></path>
<path d="M1.341 0.965 Q1.558 0.718 1.124 0.558" stroke="hsl(180.0,100%,35%)" stroke-width="0.00072"></path>
<path d="M1.341 0.965 Q1.637 0.943 1.658 0.793" stroke="hsl(180.0,100%,35%)" stroke-width="0.00072"></path>
<path d="M1.341 0.965 Q1.145 0.560 0.313 0.567" stroke="hsl(180.0,100%,35%)" stroke-width="0.00072"></path>
<path d="M1.341 0.965 Q1.496 0.606 0.829 0.451" stroke="hsl(180.0,100%,35%)" stroke-width="0.00072"></path>
<path d="M0.540 0.406 Q0.298 0.441 0.313 0.567" stroke="hsl(180.0,100%,35%)" stroke-width="0.00217"></path>
<path d="M0.540 0.406 Q0.367 0.716 0.935 0.868" stroke="hsl(180.0,100%,35%)" stroke-width="0.00072"></path>
<path d="M0.540 0.406 Q0.633 0.892 1.602 0.953" stroke="hsl(180.0,100%,35%)" stroke-width="0.00072"></path>
<path d="M0.802 0.101 Q0.597 0.394 1.124 0.558" stroke="hsl(180.0,100%,35%)" stroke-width="0.00072"></path>
<path d="M0.802 0.101 Q0.932 0.104 0.967 0.041" stroke="hsl(180.0,100%,35%)" stroke-width="0.00072"></path>
<path d="M0.802 0.101 Q0.746 0.208 0.943 0.259" stroke="hsl(180.0,100%,35%)" stroke-width="0.00145"></path>
<path d="M0.921 0.782 Q0.859 0.828 0.935 0.868" stroke="hsl(180.0,100%,35%)" stroke-width="0.00217"></path>
<path d="M0.921 0.782 Q1.032 0.518 0.540 0.406" stroke="hsl(180.0,100%,35%)" stroke-width="0.00217"></path>
<path d="M0.921 0.782 Q0.587 0.771 0.491 0.931" stroke="hsl(180.0,100%,35%)" stroke-width="0.00072"></path>
<path d="M0.921 0.782 Q0.789 0.553 0.313 0.567" stroke="hsl(180.0,100%,35%)" stroke-width="0.00217"></path>
<path d="M0.921 0.782 Q1.125 1.004 1.602 0.953" stroke="hsl(180.0,100%,35%)" stroke-width="0.00072"></path>
<path d="M0.491 0.931 Q0.693 0.713 0.313 0.567" stroke="hsl(180.0,100%,35%)" stroke-width="0.00072"></path>
<path d="M0.491 0.931 Q0.617 0.976 0.732 0.924" stroke="hsl(180.0,100%,35%)" stroke-width="0.00072"></path>
<path d="M0.491 0.931 Q0.373 0.895 0.277 0.944" stroke="hsl(180.0,100%,35%)" stroke-width="0.00072"></path>
<path d="M0.491 0.931 Q0.348 0.833 0.126 0.881" stroke="hsl(180.0,100%,35%)" stroke-width="0.00072"></path>
<path d="M1.872 0.213 Q1.222 0.236 1.124 0.558" stroke="hsl(180.0,100%,35%)" stroke-width="0.00072"></path>
<path d="M1.872 0.213 Q1.145 0.529 1.602 0.953" stroke="hsl(180.0,100%,35%)" stroke-width="0.00072"></path>
<path d="M1.872 0.213 Q1.901 0.152 1.789 0.124" stroke="hsl(180.0,100%,35%)" stroke-width="0.00072"></path>
<path d="M1.789 0.124 Q0.697 0.050 0.313 0.567" stroke="hsl(180.0,100%,35%)" stroke-width="0.00072"></path>
<path d="M1.789 0.124 Q0.939 0.015 0.540 0.406" stroke="hsl(180.0,100%,35%)" stroke-width="0.00072"></path>
<path d="M1.789 0.124 Q1.603 0.156 1.625 0.254" stroke="hsl(180.0,100%,35%)" stroke-width="0.00072"></path>
<path d="M0.277 0.944 Q0.395 0.981 0.491 0.931" stroke="hsl(180.0,100%,35%)" stroke-width="0.00145"></path>
<path d="M0.277 0.944 Q0.252 0.883 0.126 0.881" stroke="hsl(180.0,100%,35%)" stroke-width="0.00217"></path>
<path d="M0.277 0.944 Q0.597 0.763 0.313 0.567" stroke="hsl(180.0,100%,35%)" stroke-width="0.00217"></path>
<path d="M0.277 0.944 Q0.604 0.857 0.505 0.678" stroke="hsl(180.0,100%,35%)" stroke-width="0.00072"></path>
<path d="M1.316 0.438 Q0.719 0.396 0.505 0.678" stroke="hsl(180.0,100%,35%)" stroke-width="0.00072"></path>
<path d="M1.316 0.438 Q1.243 0.582 1.508 0.650" stroke="hsl(180.0,100%,35%)" stroke-width="0.00072"></path>
<path d="M1.316 0.438 Q1.453 0.282 1.178 0.181" stroke="hsl(180.0,100%,35%)" stroke-width="0.00072"></path>
<path d="M1.275 0.720 Q0.744 0.592 0.378 0.823" stroke="hsl(0.0,100%,35%)" stroke-width="0.00072"></path>
<path d="M1.275 0.720 Q1.125 0.785 1.220 0.873" stroke="hsl(0.0,100%,35%)" stroke-width="0.00072"></path>
<path d="M1.275 0.720 Q1.428 0.502 1.036 0.379" stroke="hsl(0.0,100%,35%)" stroke-width="0.00072"></path>
<path d="M1.275 0.720 Q0.923 0.545 0.505 0.678" stroke="hsl(0.0,100%,35%)" stroke-width="0.00072"></path>
<path d="M1.275 0.720 Q1.329 0.609 1.124 0.558" stroke="hsl(0.0,100%,35%)" stroke-width="0.00072"></path>
<path d="M1.275 0.720 Q1.447 0.732 1.508 0.650" stroke="hsl(0.0,100%,35%)" stroke-width="0.00072"></path>
</g>
<text x="0.566" y="0.750" font-size="0.007998" fill="hsl(0.0,100%,20%)">alexnj</text>
<text x="0.378" y="0.812" font-size="0.022145" fill="hsl(0.0,100%,20%)">paulirish</text>
<text x="1.036" y="0.349" font-size="0.059493" fill="hsl(0.0,100%,20%)">jacktfranklin</text>
<text x="0.505" y="0.652" font-size="0.051211" fill="hsl(180.0,100%,20%)">alexrudenko</text>
<text x="1.124" y="0.527" font-size="0.063481" fill="hsl(180.0,100%,20%)">szuend</text>
<text x="0.313" y="0.536" font-size="0.061259" fill="hsl(180.0,100%,20%)">dsv</text>
<text x="0.148" y="0.680" font-size="0.014602" fill="hsl(180.0,100%,20%)">nvitkov</text>
<text x="0.829" y="0.424" font-size="0.054244" fill="hsl(0.0,100%,20%)">andoli</text>
<text x="1.658" y="0.770" font-size="0.045478" fill="hsl(180.0,100%,20%)">kprokopenko</text>
<text x="1.517" y="0.482" font-size="0.030279" fill="hsl(180.0,100%,20%)">yangguo</text>
<text x="1.744" y="0.579" font-size="0.019591" fill="hsl(180.0,100%,20%)">petermueller</text>
<text x="1.508" y="0.612" font-size="0.076434" fill="hsl(180.0,100%,20%)">bmeurer</text>
<text x="1.602" y="0.928" font-size="0.051003" fill="hsl(180.0,100%,20%)">wolfi</text>
<text x="0.195" y="0.730" font-size="0.004618" fill="hsl(180.0,100%,20%)">tperrotta</text>
<text x="1.178" y="0.156" font-size="0.048649" fill="hsl(180.0,100%,20%)">ergunsh</text>
<text x="0.241" y="0.370" font-size="0.014602" fill="hsl(180.0,100%,20%)">jrandolf</text>
<text x="0.725" y="0.308" font-size="0.030976" fill="hsl(0.0,100%,20%)">alinavarkki</text>
<text x="0.172" y="0.233" font-size="0.033616" fill="hsl(0.0,100%,20%)">nancyly</text>
<text x="0.943" y="0.232" font-size="0.052851" fill="hsl(180.0,100%,20%)">pfaffe</text>
<text x="0.278" y="0.717" font-size="0.010325" fill="hsl(0.0,100%,20%)">asraine</text>
<text x="1.220" y="0.870" font-size="0.006530" fill="hsl(0.0,100%,20%)">cjamcl</text>
<text x="1.412" y="0.264" font-size="0.007998" fill="hsl(180.0,100%,20%)">mathias</text>
<text x="1.295" y="0.382" font-size="0.022621" fill="hsl(180.0,100%,20%)">changhaohan</text>
<text x="1.503" y="0.084" font-size="0.017277" fill="hsl(180.0,100%,20%)">leese</text>
<text x="1.269" y="0.040" font-size="0.009235" fill="hsl(180.0,100%,20%)">chrche</text>
<text x="0.088" y="0.359" font-size="0.004618" fill="hsl(180.0,100%,20%)">semel</text>
<text x="0.516" y="0.390" font-size="0.012217" fill="hsl(0.0,100%,20%)">hadrienjaubert</text>
<text x="0.701" y="0.492" font-size="0.006530" fill="hsl(0.0,100%,20%)">victorporof</text>
<text x="1.341" y="0.958" font-size="0.014602" fill="hsl(180.0,100%,20%)">jec</text>
<text x="0.540" y="0.399" font-size="0.013853" fill="hsl(180.0,100%,20%)">kenoss</text>
<text x="0.935" y="0.863" font-size="0.009235" fill="hsl(180.0,100%,20%)">lingqi</text>
<text x="0.802" y="0.097" font-size="0.009235" fill="hsl(180.0,100%,20%)">liviurau</text>
<text x="0.967" y="0.039" font-size="0.004618" fill="hsl(180.0,100%,20%)">machenbach</text>
<text x="0.921" y="0.774" font-size="0.015315" fill="hsl(180.0,100%,20%)">miinak</text>
<text x="0.491" y="0.925" font-size="0.012217" fill="hsl(180.0,100%,20%)">sisidovski</text>
<text x="1.872" y="0.209" font-size="0.007998" fill="hsl(180.0,100%,20%)">morlovich</text>
<text x="1.789" y="0.120" font-size="0.009235" fill="hsl(180.0,100%,20%)">nhiroki</text>
<text x="1.625" y="0.252" font-size="0.004618" fill="hsl(180.0,100%,20%)">domenic</text>
<text x="0.732" y="0.922" font-size="0.004618" fill="hsl(180.0,100%,20%)">kouhei</text>
<text x="0.277" y="0.937" font-size="0.014602" fill="hsl(180.0,100%,20%)">tnak</text>
<text x="0.126" y="0.877" font-size="0.009235" fill="hsl(180.0,100%,20%)">yyanagisawa</text>
<text x="0.843" y="0.594" font-size="0.004618" fill="hsl(180.0,100%,20%)">caseq</text>
<text x="1.316" y="0.434" font-size="0.007998" fill="hsl(180.0,100%,20%)">tkent</text>
<text x="1.275" y="0.714" font-size="0.011311" fill="hsl(0.0,100%,20%)">vidorteg</text>
<text x="1.448" y="0.799" font-size="0.004618" fill="hsl(180.0,100%,20%)">mathiasb</text>
<text x="1.332" y="0.890" font-size="0.004618" fill="hsl(180.0,100%,20%)">tsepez</text>
</svg>
