<svg width="4000" height="2000" viewBox="-0.025 -0.025 2.05 1.05" xmlns="http://www.w3.org/2000/svg">
  <style>
    path {
      fill: none;
      stroke-linecap: round;
      stroke-opacity: 0.4;
    }

    text {
      text-anchor: middle;
      alignment-baseline: hanging;
    }
  </style>
  <g opacity="0.4">
<path d="M1.699 0.490 Q1.217 0.520 1.170 0.762" stroke="hsl(0.0,100%,35%)" stroke-width="0.01673"></path>
<path d="M1.699 0.490 Q1.470 0.494 1.428 0.607" stroke="hsl(0.0,100%,35%)" stroke-width="0.00186"></path>
<path d="M1.699 0.490 Q1.288 0.345 0.916 0.513" stroke="hsl(0.0,100%,35%)" stroke-width="0.00372"></path>
<path d="M1.699 0.490 Q1.071 0.389 0.736 0.673" stroke="hsl(0.0,100%,35%)" stroke-width="0.01301"></path>
<path d="M1.699 0.490 Q1.886 0.486 1.920 0.393" stroke="hsl(0.0,100%,35%)" stroke-width="0.01673"></path>
<path d="M1.699 0.490 Q1.598 0.554 1.701 0.617" stroke="hsl(0.0,100%,35%)" stroke-width="0.00186"></path>
<path d="M1.699 0.490 Q1.640 0.124 0.915 0.072" stroke="hsl(0.0,100%,35%)" stroke-width="0.00186"></path>
<path d="M1.170 0.762 Q1.135 0.855 1.309 0.893" stroke="hsl(0.0,100%,35%)" stroke-width="0.02045"></path>
<path d="M1.170 0.762 Q1.652 0.731 1.699 0.490" stroke="hsl(0.0,100%,35%)" stroke-width="0.02230"></path>
<path d="M1.170 0.762 Q1.423 0.736 1.428 0.607" stroke="hsl(0.0,100%,35%)" stroke-width="0.00743"></path>
<path d="M1.170 0.762 Q1.024 0.630 0.736 0.673" stroke="hsl(0.0,100%,35%)" stroke-width="0.01115"></path>
<path d="M1.170 0.762 Q1.242 0.586 0.916 0.513" stroke="hsl(0.0,100%,35%)" stroke-width="0.00186"></path>
<path d="M1.170 0.762 Q1.594 0.366 0.915 0.072" stroke="hsl(0.0,100%,35%)" stroke-width="0.00186"></path>
<path d="M1.170 0.762 Q1.014 0.850 1.153 0.946" stroke="hsl(0.0,100%,35%)" stroke-width="0.00186"></path>
<path d="M1.170 0.762 Q0.843 0.648 0.550 0.783" stroke="hsl(0.0,100%,35%)" stroke-width="0.00186"></path>
<path d="M1.428 0.607 Q1.175 0.633 1.170 0.762" stroke="hsl(0.0,100%,35%)" stroke-width="0.04647"></path>
<path d="M1.428 0.607 Q1.140 0.726 1.309 0.893" stroke="hsl(0.0,100%,35%)" stroke-width="0.01487"></path>
<path d="M1.428 0.607 Q1.247 0.457 0.916 0.513" stroke="hsl(0.0,100%,35%)" stroke-width="0.00186"></path>
<path d="M1.428 0.607 Q1.019 0.721 1.153 0.946" stroke="hsl(0.0,100%,35%)" stroke-width="0.00186"></path>
<path d="M1.428 0.607 Q1.357 0.659 1.442 0.705" stroke="hsl(0.0,100%,35%)" stroke-width="0.00743"></path>
<path d="M1.428 0.607 Q1.027 0.606 0.938 0.802" stroke="hsl(0.0,100%,35%)" stroke-width="0.00186"></path>
<path d="M1.428 0.607 Q0.848 0.519 0.550 0.783" stroke="hsl(0.0,100%,35%)" stroke-width="0.00372"></path>
<path d="M1.428 0.607 Q1.845 0.598 1.920 0.393" stroke="hsl(0.0,100%,35%)" stroke-width="0.00558"></path>
<path d="M1.428 0.607 Q1.657 0.602 1.699 0.490" stroke="hsl(0.0,100%,35%)" stroke-width="0.00186"></path>
<path d="M0.916 0.513 Q1.097 0.663 1.428 0.607" stroke="hsl(0.0,100%,35%)" stroke-width="0.00186"></path>
<path d="M0.916 0.513 Q0.698 0.557 0.736 0.673" stroke="hsl(0.0,100%,35%)" stroke-width="0.00929"></path>
<path d="M0.916 0.513 Q1.026 0.714 1.442 0.705" stroke="hsl(0.0,100%,35%)" stroke-width="0.00186"></path>
<path d="M0.916 0.513 Q0.844 0.688 1.170 0.762" stroke="hsl(0.0,100%,35%)" stroke-width="0.00929"></path>
<path d="M0.736 0.673 Q0.555 0.691 0.550 0.783" stroke="hsl(0.0,100%,35%)" stroke-width="0.03160"></path>
<path d="M0.736 0.673 Q0.953 0.629 0.916 0.513" stroke="hsl(0.0,100%,35%)" stroke-width="0.03160"></path>
<path d="M0.736 0.673 Q1.135 0.778 1.428 0.607" stroke="hsl(0.0,100%,35%)" stroke-width="0.02416"></path>
<path d="M0.736 0.673 Q1.063 0.830 1.442 0.705" stroke="hsl(0.0,100%,35%)" stroke-width="0.00743"></path>
<path d="M0.736 0.673 Q0.847 0.897 1.309 0.893" stroke="hsl(0.0,100%,35%)" stroke-width="0.00558"></path>
<path d="M0.736 0.673 Q1.306 0.408 0.915 0.072" stroke="hsl(0.0,100%,35%)" stroke-width="0.00186"></path>
<path d="M0.736 0.673 Q1.364 0.774 1.699 0.490" stroke="hsl(0.0,100%,35%)" stroke-width="0.02045"></path>
<path d="M0.736 0.673 Q0.882 0.804 1.170 0.762" stroke="hsl(0.0,100%,35%)" stroke-width="0.05204"></path>
<path d="M0.736 0.673 Q0.781 0.519 0.491 0.464" stroke="hsl(0.0,100%,35%)" stroke-width="0.00186"></path>
<path d="M0.736 0.673 Q1.200 0.560 1.082 0.309" stroke="hsl(0.0,100%,35%)" stroke-width="0.00372"></path>
<path d="M0.736 0.673 Q0.684 0.579 0.489 0.583" stroke="hsl(0.0,100%,35%)" stroke-width="0.00558"></path>
<path d="M0.736 0.673 Q1.153 0.472 0.852 0.224" stroke="hsl(0.0,100%,35%)" stroke-width="0.00186"></path>
<path d="M0.915 0.072 Q1.074 0.172 1.303 0.116" stroke="hsl(0.0,100%,35%)" stroke-width="0.00743"></path>
<path d="M0.915 0.072 Q0.987 0.113 1.083 0.087" stroke="hsl(0.0,100%,35%)" stroke-width="0.00372"></path>
<path d="M0.915 0.072 Q0.491 0.468 1.170 0.762" stroke="hsl(0.0,100%,35%)" stroke-width="0.00186"></path>
<path d="M1.442 0.705 Q1.514 0.653 1.428 0.607" stroke="hsl(0.0,100%,35%)" stroke-width="0.01115"></path>
<path d="M1.442 0.705 Q1.226 0.772 1.309 0.893" stroke="hsl(0.0,100%,35%)" stroke-width="0.00186"></path>
<path d="M1.442 0.705 Q1.532 0.347 0.852 0.224" stroke="hsl(0.0,100%,35%)" stroke-width="0.00186"></path>
<path d="M1.442 0.705 Q0.934 0.565 0.550 0.783" stroke="hsl(0.0,100%,35%)" stroke-width="0.00186"></path>
<path d="M1.442 0.705 Q1.685 0.283 0.915 0.072" stroke="hsl(0.0,100%,35%)" stroke-width="0.00186"></path>
<path d="M0.550 0.783 Q0.731 0.765 0.736 0.673" stroke="hsl(0.0,100%,35%)" stroke-width="0.00186"></path>
<path d="M0.550 0.783 Q0.877 0.896 1.170 0.762" stroke="hsl(0.0,100%,35%)" stroke-width="0.00372"></path>
<path d="M0.550 0.783 Q0.842 0.990 1.309 0.893" stroke="hsl(0.0,100%,35%)" stroke-width="0.00372"></path>
<path d="M0.550 0.783 Q1.359 0.866 1.699 0.490" stroke="hsl(0.0,100%,35%)" stroke-width="0.00186"></path>
<path d="M0.550 0.783 Q0.560 0.888 0.767 0.906" stroke="hsl(0.0,100%,35%)" stroke-width="0.00372"></path>
<path d="M0.550 0.783 Q1.059 0.922 1.442 0.705" stroke="hsl(0.0,100%,35%)" stroke-width="0.00186"></path>
<path d="M1.082 0.309 Q0.447 0.544 0.767 0.906" stroke="hsl(0.0,100%,35%)" stroke-width="0.00186"></path>
<path d="M1.082 0.309 Q0.729 0.646 1.309 0.893" stroke="hsl(0.0,100%,35%)" stroke-width="0.00186"></path>
<path d="M1.082 0.309 Q0.764 0.553 1.170 0.762" stroke="hsl(0.0,100%,35%)" stroke-width="0.00186"></path>
<path d="M0.852 0.224 Q0.834 0.531 1.428 0.607" stroke="hsl(0.0,100%,35%)" stroke-width="0.00558"></path>
<path d="M0.852 0.224 Q0.900 0.313 1.082 0.309" stroke="hsl(0.0,100%,35%)" stroke-width="0.00372"></path>
<path d="M0.852 0.224 Q0.708 0.279 0.783 0.361" stroke="hsl(0.0,100%,35%)" stroke-width="0.00186"></path>
<path d="M0.852 0.224 Q0.581 0.557 1.170 0.762" stroke="hsl(0.0,100%,35%)" stroke-width="0.00372"></path>
<path d="M0.727 0.530 Q1.246 0.704 1.699 0.490" stroke="hsl(0.0,100%,35%)" stroke-width="0.00186"></path>
<path d="M0.727 0.530 Q0.618 0.603 0.736 0.673" stroke="hsl(0.0,100%,35%)" stroke-width="0.00186"></path>
<path d="M0.727 0.530 Q0.835 0.559 0.916 0.513" stroke="hsl(0.0,100%,35%)" stroke-width="0.00186"></path>
<path d="M1.206 0.530 Q1.366 0.491 1.326 0.404" stroke="hsl(180.0,100%,35%)" stroke-width="0.00186"></path>
<path d="M1.206 0.530 Q0.857 0.507 0.736 0.673" stroke="hsl(180.0,100%,35%)" stroke-width="0.00186"></path>
<path d="M1.206 0.530 Q1.262 0.473 1.164 0.433" stroke="hsl(180.0,100%,35%)" stroke-width="0.00186"></path>
</g>
<text x="1.699" y="0.457" font-size="0.064526" fill="hsl(0.0,100%,20%)">alexrudenko</text>
<text x="1.170" y="0.716" font-size="0.090435" fill="hsl(0.0,100%,20%)">szuend</text>
<text x="1.428" y="0.570" font-size="0.074175" fill="hsl(0.0,100%,20%)">bmeurer</text>
<text x="0.916" y="0.488" font-size="0.050278" fill="hsl(0.0,100%,20%)">wolfi</text>
<text x="0.736" y="0.625" font-size="0.095240" fill="hsl(0.0,100%,20%)">dsv</text>
<text x="1.920" y="0.378" font-size="0.029870" fill="hsl(0.0,100%,20%)">yangguo</text>
<text x="1.701" y="0.613" font-size="0.008623" fill="hsl(0.0,100%,20%)">nvitkov</text>
<text x="0.915" y="0.058" font-size="0.028598" fill="hsl(0.0,100%,20%)">andoli</text>
<text x="1.303" y="0.107" font-size="0.017245" fill="hsl(0.0,100%,20%)">alinavarkki</text>
<text x="1.083" y="0.081" font-size="0.012194" fill="hsl(0.0,100%,20%)">nancyly</text>
<text x="1.309" y="0.871" font-size="0.043967" fill="hsl(0.0,100%,20%)">pfaffe</text>
<text x="1.153" y="0.940" font-size="0.012194" fill="hsl(0.0,100%,20%)">mathias</text>
<text x="1.442" y="0.686" font-size="0.038561" fill="hsl(0.0,100%,20%)">kprokopenko</text>
<text x="0.938" y="0.798" font-size="0.008623" fill="hsl(0.0,100%,20%)">petermueller</text>
<text x="0.550" y="0.759" font-size="0.047228" fill="hsl(0.0,100%,20%)">ergunsh</text>
<text x="1.082" y="0.297" font-size="0.022813" fill="hsl(0.0,100%,20%)">changhaohan</text>
<text x="0.767" y="0.899" font-size="0.014935" fill="hsl(0.0,100%,20%)">liviurau</text>
<text x="0.491" y="0.459" font-size="0.008623" fill="hsl(0.0,100%,20%)">asraine</text>
<text x="0.489" y="0.576" font-size="0.014935" fill="hsl(0.0,100%,20%)">jrandolf</text>
<text x="0.852" y="0.211" font-size="0.027267" fill="hsl(0.0,100%,20%)">jec</text>
<text x="0.727" y="0.523" font-size="0.014935" fill="hsl(0.0,100%,20%)">elormcoch</text>
<text x="0.783" y="0.357" font-size="0.008623" fill="hsl(0.0,100%,20%)">semel</text>
<text x="1.206" y="0.523" font-size="0.014935" fill="hsl(180.0,100%,20%)">sisidovski</text>
<text x="1.326" y="0.400" font-size="0.008623" fill="hsl(180.0,100%,20%)">kouhei</text>
<text x="1.164" y="0.429" font-size="0.008623" fill="hsl(180.0,100%,20%)">yyanagisawa</text>
</svg>
