<svg width="4000" height="2000" viewBox="-0.025 -0.025 2.05 1.05" xmlns="http://www.w3.org/2000/svg">
  <style>
    path {
      fill: none;
      stroke-linecap: round;
      stroke-opacity: 0.4;
    }

    text {
      text-anchor: middle;
      alignment-baseline: hanging;
    }
  </style>
  <g opacity="0.4">
<path d="M1.107 0.848 Q1.021 0.831 0.969 0.869" stroke="hsl(0.0,100%,35%)" stroke-width="0.00043"></path>
<path d="M1.107 0.848 Q0.860 0.896 0.899 1.028" stroke="hsl(0.0,100%,35%)" stroke-width="0.00043"></path>
<path d="M1.107 0.848 Q1.648 0.884 1.836 0.627" stroke="hsl(0.0,100%,35%)" stroke-width="0.00043"></path>
<path d="M0.969 0.869 Q0.721 0.863 0.654 0.982" stroke="hsl(0.0,100%,35%)" stroke-width="0.00390"></path>
<path d="M0.969 0.869 Q0.807 0.935 0.899 1.028" stroke="hsl(0.0,100%,35%)" stroke-width="0.00736"></path>
<path d="M0.969 0.869 Q1.292 0.474 0.593 0.230" stroke="hsl(0.0,100%,35%)" stroke-width="0.00130"></path>
<path d="M0.899 1.028 Q0.813 0.956 0.654 0.982" stroke="hsl(0.0,100%,35%)" stroke-width="0.03983"></path>
<path d="M0.899 1.028 Q0.979 0.946 0.837 0.889" stroke="hsl(0.0,100%,35%)" stroke-width="0.00260"></path>
<path d="M0.899 1.028 Q1.688 1.015 1.836 0.627" stroke="hsl(0.0,100%,35%)" stroke-width="0.00087"></path>
<path d="M0.899 1.028 Q0.840 0.787 0.358 0.763" stroke="hsl(0.0,100%,35%)" stroke-width="0.00346"></path>
<path d="M0.899 1.028 Q1.384 0.568 0.593 0.230" stroke="hsl(0.0,100%,35%)" stroke-width="0.00823"></path>
<path d="M0.899 1.028 Q1.586 0.678 1.054 0.266" stroke="hsl(0.0,100%,35%)" stroke-width="0.00130"></path>
<path d="M0.899 1.028 Q1.061 0.962 0.969 0.869" stroke="hsl(0.0,100%,35%)" stroke-width="0.00390"></path>
<path d="M0.899 1.028 Q1.968 0.490 1.152 -0.150" stroke="hsl(0.0,100%,35%)" stroke-width="0.00173"></path>
<path d="M0.899 1.028 Q1.887 0.966 1.982 0.470" stroke="hsl(0.0,100%,35%)" stroke-width="0.00043"></path>
<path d="M0.899 1.028 Q1.162 0.877 0.926 0.716" stroke="hsl(0.0,100%,35%)" stroke-width="0.00087"></path>
<path d="M0.899 1.028 Q1.074 0.842 0.749 0.716" stroke="hsl(0.0,100%,35%)" stroke-width="0.00087"></path>
<path d="M0.899 1.028 Q1.487 0.728 1.031 0.375" stroke="hsl(0.0,100%,35%)" stroke-width="0.00043"></path>
<path d="M1.836 0.627 Q0.989 0.400 0.358 0.763" stroke="hsl(180.0,100%,35%)" stroke-width="0.00736"></path>
<path d="M1.836 0.627 Q1.003 0.490 0.551 0.866" stroke="hsl(180.0,100%,35%)" stroke-width="0.00649"></path>
<path d="M1.836 0.627 Q1.172 0.326 0.438 0.585" stroke="hsl(180.0,100%,35%)" stroke-width="0.00433"></path>
<path d="M1.836 0.627 Q2.035 0.578 1.982 0.470" stroke="hsl(180.0,100%,35%)" stroke-width="0.02165"></path>
<path d="M1.836 0.627 Q1.734 0.290 1.054 0.266" stroke="hsl(180.0,100%,35%)" stroke-width="0.00216"></path>
<path d="M1.836 0.627 Q1.696 0.680 1.769 0.761" stroke="hsl(180.0,100%,35%)" stroke-width="0.00476"></path>
<path d="M1.836 0.627 Q1.048 0.640 0.899 1.028" stroke="hsl(180.0,100%,35%)" stroke-width="0.00130"></path>
<path d="M1.836 0.627 Q0.961 0.568 0.654 0.982" stroke="hsl(180.0,100%,35%)" stroke-width="0.00043"></path>
<path d="M1.836 0.627 Q1.300 0.278 0.500 0.463" stroke="hsl(180.0,100%,35%)" stroke-width="0.00087"></path>
<path d="M1.836 0.627 Q1.222 0.454 0.749 0.716" stroke="hsl(180.0,100%,35%)" stroke-width="0.00390"></path>
<path d="M1.836 0.627 Q1.429 0.342 0.784 0.479" stroke="hsl(180.0,100%,35%)" stroke-width="0.00043"></path>
<path d="M1.836 0.627 Q1.924 0.548 1.788 0.488" stroke="hsl(180.0,100%,35%)" stroke-width="0.00043"></path>
<path d="M1.836 0.627 Q1.866 0.371 1.373 0.301" stroke="hsl(180.0,100%,35%)" stroke-width="0.00043"></path>
<path d="M1.836 0.627 Q1.842 0.681 1.946 0.690" stroke="hsl(180.0,100%,35%)" stroke-width="0.00087"></path>
<path d="M1.836 0.627 Q1.310 0.490 0.926 0.716" stroke="hsl(180.0,100%,35%)" stroke-width="0.00043"></path>
<path d="M1.836 0.627 Q1.367 0.163 0.358 0.290" stroke="hsl(180.0,100%,35%)" stroke-width="0.00087"></path>
<path d="M0.358 0.763 Q1.104 0.654 1.054 0.266" stroke="hsl(180.0,100%,35%)" stroke-width="0.01039"></path>
<path d="M0.358 0.763 Q1.206 0.991 1.836 0.627" stroke="hsl(180.0,100%,35%)" stroke-width="0.01039"></path>
<path d="M0.358 0.763 Q0.372 0.853 0.551 0.866" stroke="hsl(180.0,100%,35%)" stroke-width="0.00520"></path>
<path d="M0.358 0.763 Q1.404 0.942 1.982 0.470" stroke="hsl(180.0,100%,35%)" stroke-width="0.01212"></path>
<path d="M0.358 0.763 Q0.541 0.690 0.438 0.585" stroke="hsl(180.0,100%,35%)" stroke-width="0.00952"></path>
<path d="M0.358 0.763 Q0.679 0.853 0.926 0.716" stroke="hsl(180.0,100%,35%)" stroke-width="0.00260"></path>
<path d="M0.358 0.763 Q1.235 0.735 1.373 0.301" stroke="hsl(180.0,100%,35%)" stroke-width="0.00043"></path>
<path d="M0.358 0.763 Q0.253 0.715 0.136 0.755" stroke="hsl(180.0,100%,35%)" stroke-width="0.00043"></path>
<path d="M0.358 0.763 Q0.384 0.685 0.239 0.655" stroke="hsl(180.0,100%,35%)" stroke-width="0.00779"></path>
<path d="M0.358 0.763 Q0.669 0.641 0.500 0.463" stroke="hsl(180.0,100%,35%)" stroke-width="0.00173"></path>
<path d="M0.358 0.763 Q0.417 1.004 0.899 1.028" stroke="hsl(180.0,100%,35%)" stroke-width="0.00087"></path>
<path d="M0.358 0.763 Q0.635 0.467 0.118 0.267" stroke="hsl(180.0,100%,35%)" stroke-width="0.00087"></path>
<path d="M0.358 0.763 Q0.330 0.932 0.654 0.982" stroke="hsl(180.0,100%,35%)" stroke-width="0.00043"></path>
<path d="M0.551 0.866 Q0.537 0.776 0.358 0.763" stroke="hsl(180.0,100%,35%)" stroke-width="0.03550"></path>
<path d="M0.551 0.866 Q1.283 0.667 1.054 0.266" stroke="hsl(180.0,100%,35%)" stroke-width="0.01688"></path>
<path d="M0.551 0.866 Q0.720 0.703 0.438 0.585" stroke="hsl(180.0,100%,35%)" stroke-width="0.01039"></path>
<path d="M0.551 0.866 Q0.858 0.866 0.926 0.716" stroke="hsl(180.0,100%,35%)" stroke-width="0.00087"></path>
<path d="M0.551 0.866 Q0.861 0.776 0.753 0.605" stroke="hsl(180.0,100%,35%)" stroke-width="0.00043"></path>
<path d="M0.551 0.866 Q0.770 0.831 0.749 0.716" stroke="hsl(180.0,100%,35%)" stroke-width="0.00952"></path>
<path d="M0.551 0.866 Q1.414 0.748 1.373 0.301" stroke="hsl(180.0,100%,35%)" stroke-width="0.01645"></path>
<path d="M0.551 0.866 Q1.244 1.057 1.769 0.761" stroke="hsl(180.0,100%,35%)" stroke-width="0.00087"></path>
<path d="M0.551 0.866 Q1.583 0.955 1.982 0.470" stroke="hsl(180.0,100%,35%)" stroke-width="0.01212"></path>
<path d="M0.551 0.866 Q0.848 0.654 0.500 0.463" stroke="hsl(180.0,100%,35%)" stroke-width="0.00563"></path>
<path d="M0.551 0.866 Q1.081 0.556 0.593 0.230" stroke="hsl(180.0,100%,35%)" stroke-width="0.00043"></path>
<path d="M0.551 0.866 Q0.978 0.719 0.784 0.479" stroke="hsl(180.0,100%,35%)" stroke-width="0.00346"></path>
<path d="M0.551 0.866 Q1.385 1.004 1.836 0.627" stroke="hsl(180.0,100%,35%)" stroke-width="0.01862"></path>
<path d="M0.551 0.866 Q0.814 0.480 0.118 0.267" stroke="hsl(180.0,100%,35%)" stroke-width="0.00087"></path>
<path d="M0.551 0.866 Q0.510 0.945 0.654 0.982" stroke="hsl(180.0,100%,35%)" stroke-width="0.00130"></path>
<path d="M0.551 0.866 Q1.199 0.811 1.234 0.484" stroke="hsl(180.0,100%,35%)" stroke-width="0.00043"></path>
<path d="M0.551 0.866 Q0.432 0.728 0.136 0.755" stroke="hsl(180.0,100%,35%)" stroke-width="0.00043"></path>
<path d="M0.551 0.866 Q0.564 0.698 0.239 0.655" stroke="hsl(180.0,100%,35%)" stroke-width="0.00087"></path>
<path d="M0.551 0.866 Q1.665 0.478 1.152 -0.150" stroke="hsl(180.0,100%,35%)" stroke-width="0.00043"></path>
<path d="M0.438 0.585 Q0.269 0.748 0.551 0.866" stroke="hsl(180.0,100%,35%)" stroke-width="0.00909"></path>
<path d="M0.438 0.585 Q1.302 0.836 1.982 0.470" stroke="hsl(180.0,100%,35%)" stroke-width="0.01602"></path>
<path d="M0.438 0.585 Q0.566 0.536 0.500 0.463" stroke="hsl(180.0,100%,35%)" stroke-width="0.00779"></path>
<path d="M0.438 0.585 Q0.311 0.543 0.203 0.596" stroke="hsl(180.0,100%,35%)" stroke-width="0.00043"></path>
<path d="M0.438 0.585 Q0.799 0.438 0.593 0.230" stroke="hsl(180.0,100%,35%)" stroke-width="0.00043"></path>
<path d="M0.438 0.585 Q1.133 0.629 1.373 0.301" stroke="hsl(180.0,100%,35%)" stroke-width="0.00303"></path>
<path d="M0.438 0.585 Q1.001 0.548 1.054 0.266" stroke="hsl(180.0,100%,35%)" stroke-width="0.00173"></path>
<path d="M0.438 0.585 Q0.255 0.658 0.358 0.763" stroke="hsl(180.0,100%,35%)" stroke-width="0.00346"></path>
<path d="M0.438 0.585 Q0.228 0.827 0.654 0.982" stroke="hsl(180.0,100%,35%)" stroke-width="0.00173"></path>
<path d="M0.438 0.585 Q0.488 0.713 0.749 0.716" stroke="hsl(180.0,100%,35%)" stroke-width="0.00087"></path>
<path d="M0.438 0.585 Q0.314 0.898 0.899 1.028" stroke="hsl(180.0,100%,35%)" stroke-width="0.00260"></path>
<path d="M0.438 0.585 Q0.579 0.658 0.753 0.605" stroke="hsl(180.0,100%,35%)" stroke-width="0.00130"></path>
<path d="M0.438 0.585 Q0.637 0.599 0.708 0.505" stroke="hsl(180.0,100%,35%)" stroke-width="0.00043"></path>
<path d="M0.438 0.585 Q0.556 0.428 0.277 0.337" stroke="hsl(180.0,100%,35%)" stroke-width="0.00043"></path>
<path d="M0.438 0.585 Q1.103 0.886 1.836 0.627" stroke="hsl(180.0,100%,35%)" stroke-width="0.00216"></path>
<path d="M0.438 0.585 Q1.108 0.939 1.946 0.690" stroke="hsl(180.0,100%,35%)" stroke-width="0.00043"></path>
<path d="M0.438 0.585 Q0.576 0.748 0.926 0.716" stroke="hsl(180.0,100%,35%)" stroke-width="0.00043"></path>
<path d="M1.982 0.470 Q1.814 0.263 1.373 0.301" stroke="hsl(180.0,100%,35%)" stroke-width="0.01126"></path>
<path d="M1.982 0.470 Q1.119 0.219 0.438 0.585" stroke="hsl(180.0,100%,35%)" stroke-width="0.00779"></path>
<path d="M1.982 0.470 Q0.950 0.382 0.551 0.866" stroke="hsl(180.0,100%,35%)" stroke-width="0.00909"></path>
<path d="M1.982 0.470 Q1.247 0.170 0.500 0.463" stroke="hsl(180.0,100%,35%)" stroke-width="0.00130"></path>
<path d="M1.982 0.470 Q1.682 0.183 1.054 0.266" stroke="hsl(180.0,100%,35%)" stroke-width="0.00303"></path>
<path d="M1.982 0.470 Q0.909 0.461 0.654 0.982" stroke="hsl(180.0,100%,35%)" stroke-width="0.00043"></path>
<path d="M1.982 0.470 Q1.784 0.520 1.836 0.627" stroke="hsl(180.0,100%,35%)" stroke-width="0.00303"></path>
<path d="M1.982 0.470 Q0.936 0.292 0.358 0.763" stroke="hsl(180.0,100%,35%)" stroke-width="0.01299"></path>
<path d="M1.982 0.470 Q0.763 0.294 0.152 0.850" stroke="hsl(180.0,100%,35%)" stroke-width="0.00043"></path>
<path d="M1.982 0.470 Q1.598 0.327 1.234 0.484" stroke="hsl(180.0,100%,35%)" stroke-width="0.00087"></path>
<path d="M1.982 0.470 Q1.169 0.347 0.749 0.716" stroke="hsl(180.0,100%,35%)" stroke-width="0.00043"></path>
<path d="M1.982 0.470 Q0.995 0.532 0.899 1.028" stroke="hsl(180.0,100%,35%)" stroke-width="0.00087"></path>
<path d="M1.982 0.470 Q1.337 0.424 1.105 0.729" stroke="hsl(180.0,100%,35%)" stroke-width="0.00043"></path>
<path d="M1.054 0.266 Q1.186 0.347 1.373 0.301" stroke="hsl(180.0,100%,35%)" stroke-width="0.01342"></path>
<path d="M1.054 0.266 Q0.323 0.465 0.551 0.866" stroke="hsl(180.0,100%,35%)" stroke-width="0.00173"></path>
<path d="M1.054 0.266 Q0.586 0.079 0.118 0.267" stroke="hsl(180.0,100%,35%)" stroke-width="0.00087"></path>
<path d="M1.054 0.266 Q0.308 0.375 0.358 0.763" stroke="hsl(180.0,100%,35%)" stroke-width="0.00996"></path>
<path d="M1.054 0.266 Q0.491 0.302 0.438 0.585" stroke="hsl(180.0,100%,35%)" stroke-width="0.00173"></path>
<path d="M1.054 0.266 Q1.355 0.554 1.982 0.470" stroke="hsl(180.0,100%,35%)" stroke-width="0.00260"></path>
<path d="M1.054 0.266 Q0.281 0.544 0.654 0.982" stroke="hsl(180.0,100%,35%)" stroke-width="0.00173"></path>
<path d="M1.054 0.266 Q0.367 0.616 0.899 1.028" stroke="hsl(180.0,100%,35%)" stroke-width="0.00130"></path>
<path d="M1.054 0.266 Q0.447 0.534 0.837 0.889" stroke="hsl(180.0,100%,35%)" stroke-width="0.00043"></path>
<path d="M1.054 0.266 Q1.156 0.603 1.836 0.627" stroke="hsl(180.0,100%,35%)" stroke-width="0.00216"></path>
<path d="M1.054 0.266 Q0.970 0.411 1.234 0.484" stroke="hsl(180.0,100%,35%)" stroke-width="0.00043"></path>
<path d="M1.054 0.266 Q1.161 0.656 1.946 0.690" stroke="hsl(180.0,100%,35%)" stroke-width="0.00043"></path>
<path d="M1.054 0.266 Q0.852 0.156 0.593 0.230" stroke="hsl(180.0,100%,35%)" stroke-width="0.00043"></path>
<path d="M1.054 0.266 Q0.727 0.006 0.149 0.109" stroke="hsl(180.0,100%,35%)" stroke-width="0.00043"></path>
<path d="M1.769 0.761 Q1.075 0.570 0.551 0.866" stroke="hsl(180.0,100%,35%)" stroke-width="0.00216"></path>
<path d="M1.769 0.761 Q1.061 0.480 0.358 0.763" stroke="hsl(180.0,100%,35%)" stroke-width="0.00087"></path>
<path d="M1.769 0.761 Q1.807 0.370 1.054 0.266" stroke="hsl(180.0,100%,35%)" stroke-width="0.00130"></path>
<path d="M1.769 0.761 Q1.909 0.708 1.836 0.627" stroke="hsl(180.0,100%,35%)" stroke-width="0.00130"></path>
<path d="M1.769 0.761 Q1.914 0.761 1.946 0.690" stroke="hsl(180.0,100%,35%)" stroke-width="0.00043"></path>
<path d="M1.769 0.761 Q1.372 0.358 0.500 0.463" stroke="hsl(180.0,100%,35%)" stroke-width="0.00087"></path>
<path d="M0.654 0.982 Q0.819 0.972 0.837 0.889" stroke="hsl(0.0,100%,35%)" stroke-width="0.00216"></path>
<path d="M0.654 0.982 Q1.225 0.594 0.593 0.230" stroke="hsl(0.0,100%,35%)" stroke-width="0.00866"></path>
<path d="M0.654 0.982 Q1.427 0.704 1.054 0.266" stroke="hsl(0.0,100%,35%)" stroke-width="0.00087"></path>
<path d="M0.654 0.982 Q0.695 0.904 0.551 0.866" stroke="hsl(0.0,100%,35%)" stroke-width="0.00087"></path>
<path d="M0.654 0.982 Q0.740 1.054 0.899 1.028" stroke="hsl(0.0,100%,35%)" stroke-width="0.01775"></path>
<path d="M0.654 0.982 Q0.681 0.813 0.358 0.763" stroke="hsl(0.0,100%,35%)" stroke-width="0.00130"></path>
<path d="M0.654 0.982 Q0.864 0.740 0.438 0.585" stroke="hsl(0.0,100%,35%)" stroke-width="0.00087"></path>
<path d="M0.654 0.982 Q1.002 0.904 0.926 0.716" stroke="hsl(0.0,100%,35%)" stroke-width="0.00043"></path>
<path d="M0.654 0.982 Q0.958 0.518 0.118 0.267" stroke="hsl(0.0,100%,35%)" stroke-width="0.00043"></path>
<path d="M0.654 0.982 Q1.005 0.813 0.753 0.605" stroke="hsl(0.0,100%,35%)" stroke-width="0.00043"></path>
<path d="M0.654 0.982 Q1.529 1.041 1.836 0.627" stroke="hsl(0.0,100%,35%)" stroke-width="0.00043"></path>
<path d="M0.654 0.982 Q1.060 0.577 0.358 0.290" stroke="hsl(0.0,100%,35%)" stroke-width="0.00043"></path>
<path d="M0.500 0.463 Q0.203 0.675 0.551 0.866" stroke="hsl(180.0,100%,35%)" stroke-width="0.00866"></path>
<path d="M0.500 0.463 Q0.934 0.475 1.054 0.266" stroke="hsl(180.0,100%,35%)" stroke-width="0.00087"></path>
<path d="M0.500 0.463 Q0.513 0.584 0.753 0.605" stroke="hsl(180.0,100%,35%)" stroke-width="0.00043"></path>
<path d="M0.500 0.463 Q1.066 0.556 1.373 0.301" stroke="hsl(180.0,100%,35%)" stroke-width="0.00303"></path>
<path d="M0.500 0.463 Q0.733 0.365 0.593 0.230" stroke="hsl(180.0,100%,35%)" stroke-width="0.00087"></path>
<path d="M0.500 0.463 Q0.466 0.289 0.118 0.267" stroke="hsl(180.0,100%,35%)" stroke-width="0.00043"></path>
<path d="M0.500 0.463 Q0.188 0.585 0.358 0.763" stroke="hsl(180.0,100%,35%)" stroke-width="0.00043"></path>
<path d="M0.500 0.463 Q0.372 0.511 0.438 0.585" stroke="hsl(180.0,100%,35%)" stroke-width="0.02121"></path>
<path d="M0.500 0.463 Q1.235 0.763 1.982 0.470" stroke="hsl(180.0,100%,35%)" stroke-width="0.00260"></path>
<path d="M0.500 0.463 Q0.629 0.528 0.784 0.479" stroke="hsl(180.0,100%,35%)" stroke-width="0.00043"></path>
<path d="M0.500 0.463 Q1.036 0.812 1.836 0.627" stroke="hsl(180.0,100%,35%)" stroke-width="0.00087"></path>
<path d="M0.500 0.463 Q0.896 0.865 1.769 0.761" stroke="hsl(180.0,100%,35%)" stroke-width="0.00043"></path>
<path d="M0.500 0.463 Q0.248 0.825 0.899 1.028" stroke="hsl(180.0,100%,35%)" stroke-width="0.00130"></path>
<path d="M0.500 0.463 Q0.850 0.620 1.234 0.484" stroke="hsl(180.0,100%,35%)" stroke-width="0.00043"></path>
<path d="M0.500 0.463 Q0.161 0.753 0.654 0.982" stroke="hsl(180.0,100%,35%)" stroke-width="0.00043"></path>
<path d="M0.749 0.716 Q0.699 0.588 0.438 0.585" stroke="hsl(180.0,100%,35%)" stroke-width="0.00260"></path>
<path d="M0.749 0.716 Q0.530 0.752 0.551 0.866" stroke="hsl(180.0,100%,35%)" stroke-width="0.00173"></path>
<path d="M0.749 0.716 Q1.224 0.942 1.769 0.761" stroke="hsl(180.0,100%,35%)" stroke-width="0.00043"></path>
<path d="M0.749 0.716 Q1.394 0.633 1.373 0.301" stroke="hsl(180.0,100%,35%)" stroke-width="0.00087"></path>
<path d="M0.749 0.716 Q1.364 0.889 1.836 0.627" stroke="hsl(180.0,100%,35%)" stroke-width="0.00043"></path>
<path d="M0.749 0.716 Q0.827 0.540 0.500 0.463" stroke="hsl(180.0,100%,35%)" stroke-width="0.00130"></path>
<path d="M0.749 0.716 Q1.262 0.552 1.054 0.266" stroke="hsl(180.0,100%,35%)" stroke-width="0.00043"></path>
<path d="M0.749 0.716 Q0.840 0.661 0.753 0.605" stroke="hsl(180.0,100%,35%)" stroke-width="0.00043"></path>
<path d="M0.749 0.716 Q0.516 0.661 0.358 0.763" stroke="hsl(180.0,100%,35%)" stroke-width="0.00043"></path>
<path d="M0.749 0.716 Q0.575 0.902 0.899 1.028" stroke="hsl(180.0,100%,35%)" stroke-width="0.00043"></path>
<path d="M0.749 0.716 Q1.178 0.697 1.234 0.484" stroke="hsl(180.0,100%,35%)" stroke-width="0.00043"></path>
<path d="M0.784 0.479 Q0.654 0.414 0.500 0.463" stroke="hsl(180.0,100%,35%)" stroke-width="0.00433"></path>
<path d="M0.784 0.479 Q1.221 0.507 1.373 0.301" stroke="hsl(180.0,100%,35%)" stroke-width="0.00043"></path>
<path d="M0.784 0.479 Q1.089 0.426 1.054 0.266" stroke="hsl(180.0,100%,35%)" stroke-width="0.00043"></path>
<path d="M1.373 0.301 Q1.542 0.507 1.982 0.470" stroke="hsl(0.0,100%,35%)" stroke-width="0.00087"></path>
<path d="M1.373 0.301 Q0.495 0.329 0.358 0.763" stroke="hsl(0.0,100%,35%)" stroke-width="0.00390"></path>
<path d="M1.373 0.301 Q1.241 0.220 1.054 0.266" stroke="hsl(0.0,100%,35%)" stroke-width="0.01472"></path>
<path d="M1.373 0.301 Q1.343 0.557 1.836 0.627" stroke="hsl(0.0,100%,35%)" stroke-width="0.00087"></path>
<path d="M1.373 0.301 Q0.509 0.419 0.551 0.866" stroke="hsl(0.0,100%,35%)" stroke-width="0.00390"></path>
<path d="M1.373 0.301 Q0.806 0.207 0.500 0.463" stroke="hsl(0.0,100%,35%)" stroke-width="0.00087"></path>
<path d="M1.373 0.301 Q0.716 0.504 0.969 0.869" stroke="hsl(0.0,100%,35%)" stroke-width="0.00043"></path>
<path d="M1.373 0.301 Q1.157 0.364 1.234 0.484" stroke="hsl(0.0,100%,35%)" stroke-width="0.00173"></path>
<path d="M1.373 0.301 Q0.554 0.570 0.899 1.028" stroke="hsl(0.0,100%,35%)" stroke-width="0.00043"></path>
<path d="M1.946 0.690 Q1.941 0.637 1.836 0.627" stroke="hsl(180.0,100%,35%)" stroke-width="0.00346"></path>
<path d="M1.946 0.690 Q1.801 0.690 1.769 0.761" stroke="hsl(180.0,100%,35%)" stroke-width="0.00043"></path>
<path d="M1.946 0.690 Q1.093 0.409 0.358 0.763" stroke="hsl(180.0,100%,35%)" stroke-width="0.00043"></path>
<path d="M1.946 0.690 Q1.405 0.287 0.500 0.463" stroke="hsl(180.0,100%,35%)" stroke-width="0.00043"></path>
<path d="M1.946 0.690 Q2.140 0.587 1.982 0.470" stroke="hsl(180.0,100%,35%)" stroke-width="0.00087"></path>
<path d="M1.946 0.690 Q1.327 0.464 0.749 0.716" stroke="hsl(180.0,100%,35%)" stroke-width="0.00043"></path>
<path d="M1.946 0.690 Q1.839 0.299 1.054 0.266" stroke="hsl(180.0,100%,35%)" stroke-width="0.00043"></path>
<path d="M0.358 0.290 Q0.827 0.754 1.836 0.627" stroke="hsl(0.0,100%,35%)" stroke-width="0.00606"></path>
<path d="M0.358 0.290 Q0.523 0.307 0.593 0.230" stroke="hsl(0.0,100%,35%)" stroke-width="0.00996"></path>
<path d="M0.358 0.290 Q0.200 0.702 0.969 0.869" stroke="hsl(0.0,100%,35%)" stroke-width="0.00043"></path>
<path d="M0.358 0.290 Q0.290 0.405 0.500 0.463" stroke="hsl(0.0,100%,35%)" stroke-width="0.00563"></path>
<path d="M0.358 0.290 Q0.038 0.767 0.899 1.028" stroke="hsl(0.0,100%,35%)" stroke-width="0.00130"></path>
<path d="M0.358 0.290 Q-0.048 0.695 0.654 0.982" stroke="hsl(0.0,100%,35%)" stroke-width="0.00043"></path>
<path d="M0.358 0.290 Q-0.021 0.527 0.358 0.763" stroke="hsl(0.0,100%,35%)" stroke-width="0.00043"></path>
<path d="M0.358 0.290 Q1.026 0.705 1.982 0.470" stroke="hsl(0.0,100%,35%)" stroke-width="0.00043"></path>
<path d="M0.837 0.889 Q0.671 0.899 0.654 0.982" stroke="hsl(0.0,100%,35%)" stroke-width="0.00909"></path>
<path d="M0.837 0.889 Q0.713 0.821 0.551 0.866" stroke="hsl(0.0,100%,35%)" stroke-width="0.00043"></path>
<path d="M0.837 0.889 Q1.444 0.621 1.054 0.266" stroke="hsl(0.0,100%,35%)" stroke-width="0.00043"></path>
<path d="M0.837 0.889 Q1.242 0.511 0.593 0.230" stroke="hsl(0.0,100%,35%)" stroke-width="0.00649"></path>
<path d="M0.837 0.889 Q0.757 0.971 0.899 1.028" stroke="hsl(0.0,100%,35%)" stroke-width="0.01169"></path>
<path d="M0.593 0.230 Q0.021 0.618 0.654 0.982" stroke="hsl(0.0,100%,35%)" stroke-width="0.00346"></path>
<path d="M0.593 0.230 Q0.187 0.608 0.837 0.889" stroke="hsl(0.0,100%,35%)" stroke-width="0.00173"></path>
<path d="M0.593 0.230 Q0.108 0.690 0.899 1.028" stroke="hsl(0.0,100%,35%)" stroke-width="0.00346"></path>
<path d="M0.593 0.230 Q0.063 0.540 0.551 0.866" stroke="hsl(0.0,100%,35%)" stroke-width="0.00087"></path>
<path d="M0.593 0.230 Q0.270 0.625 0.969 0.869" stroke="hsl(0.0,100%,35%)" stroke-width="0.00087"></path>
<path d="M0.869 0.227 Q0.930 0.283 1.054 0.266" stroke="hsl(0.0,100%,35%)" stroke-width="0.00216"></path>
<path d="M0.869 0.227 Q1.231 0.571 1.982 0.470" stroke="hsl(0.0,100%,35%)" stroke-width="0.00043"></path>
<path d="M0.869 0.227 Q1.032 0.621 1.836 0.627" stroke="hsl(0.0,100%,35%)" stroke-width="0.00087"></path>
<path d="M0.118 0.267 Q-0.021 0.722 0.837 0.889" stroke="hsl(180.0,100%,35%)" stroke-width="0.00130"></path>
<path d="M0.118 0.267 Q0.152 0.441 0.500 0.463" stroke="hsl(180.0,100%,35%)" stroke-width="0.00043"></path>
<path d="M0.118 0.267 Q0.689 0.791 1.836 0.627" stroke="hsl(180.0,100%,35%)" stroke-width="0.00043"></path>
<path d="M0.118 0.267 Q-0.145 0.653 0.551 0.866" stroke="hsl(180.0,100%,35%)" stroke-width="0.00130"></path>
<path d="M0.118 0.267 Q-0.159 0.563 0.358 0.763" stroke="hsl(180.0,100%,35%)" stroke-width="0.00087"></path>
<path d="M0.118 0.267 Q0.526 0.397 0.869 0.227" stroke="hsl(180.0,100%,35%)" stroke-width="0.00043"></path>
<path d="M0.118 0.267 Q0.165 0.563 0.753 0.605" stroke="hsl(180.0,100%,35%)" stroke-width="0.00043"></path>
<path d="M0.118 0.267 Q-0.100 0.804 0.899 1.028" stroke="hsl(180.0,100%,35%)" stroke-width="0.00043"></path>
<path d="M0.118 0.267 Q0.587 0.454 1.054 0.266" stroke="hsl(180.0,100%,35%)" stroke-width="0.00043"></path>
<path d="M0.753 0.605 Q0.443 0.695 0.551 0.866" stroke="hsl(180.0,100%,35%)" stroke-width="0.00087"></path>
<path d="M0.753 0.605 Q1.090 0.640 1.234 0.484" stroke="hsl(180.0,100%,35%)" stroke-width="0.00087"></path>
<path d="M0.753 0.605 Q0.830 0.737 1.105 0.729" stroke="hsl(180.0,100%,35%)" stroke-width="0.00087"></path>
<path d="M0.753 0.605 Q0.612 0.532 0.438 0.585" stroke="hsl(180.0,100%,35%)" stroke-width="0.00563"></path>
<path d="M0.753 0.605 Q1.475 0.784 1.982 0.470" stroke="hsl(180.0,100%,35%)" stroke-width="0.00303"></path>
<path d="M0.753 0.605 Q0.401 0.774 0.654 0.982" stroke="hsl(180.0,100%,35%)" stroke-width="0.00043"></path>
<path d="M0.753 0.605 Q0.429 0.605 0.358 0.763" stroke="hsl(180.0,100%,35%)" stroke-width="0.00390"></path>
<path d="M0.753 0.605 Q0.740 0.483 0.500 0.463" stroke="hsl(180.0,100%,35%)" stroke-width="0.00087"></path>
<path d="M0.753 0.605 Q0.886 0.601 0.908 0.535" stroke="hsl(180.0,100%,35%)" stroke-width="0.00043"></path>
<path d="M0.753 0.605 Q0.706 0.309 0.118 0.267" stroke="hsl(180.0,100%,35%)" stroke-width="0.00043"></path>
<path d="M0.753 0.605 Q0.455 0.527 0.239 0.655" stroke="hsl(180.0,100%,35%)" stroke-width="0.00043"></path>
<path d="M0.753 0.605 Q1.136 0.886 1.769 0.761" stroke="hsl(180.0,100%,35%)" stroke-width="0.00043"></path>
<path d="M0.753 0.605 Q1.175 0.496 1.054 0.266" stroke="hsl(180.0,100%,35%)" stroke-width="0.00043"></path>
<path d="M0.152 0.850 Q0.194 0.926 0.351 0.922" stroke="hsl(0.0,100%,35%)" stroke-width="0.00216"></path>
<path d="M0.152 0.850 Q0.545 1.023 0.969 0.869" stroke="hsl(0.0,100%,35%)" stroke-width="0.00260"></path>
<path d="M0.152 0.850 Q0.646 0.938 0.926 0.716" stroke="hsl(0.0,100%,35%)" stroke-width="0.00087"></path>
<path d="M0.152 0.850 Q1.172 1.076 1.836 0.627" stroke="hsl(0.0,100%,35%)" stroke-width="0.00130"></path>
<path d="M1.006 0.558 Q0.532 0.621 0.551 0.866" stroke="hsl(180.0,100%,35%)" stroke-width="0.00043"></path>
<path d="M1.006 0.558 Q0.842 0.531 0.753 0.605" stroke="hsl(180.0,100%,35%)" stroke-width="0.00043"></path>
<path d="M1.006 0.558 Q0.577 0.772 0.899 1.028" stroke="hsl(180.0,100%,35%)" stroke-width="0.00043"></path>
<path d="M1.234 0.484 Q1.318 0.339 1.054 0.266" stroke="hsl(180.0,100%,35%)" stroke-width="0.00390"></path>
<path d="M1.234 0.484 Q1.450 0.420 1.373 0.301" stroke="hsl(180.0,100%,35%)" stroke-width="0.00216"></path>
<path d="M1.234 0.484 Q1.619 0.627 1.982 0.470" stroke="hsl(180.0,100%,35%)" stroke-width="0.00043"></path>
<path d="M1.234 0.484 Q0.572 0.448 0.358 0.763" stroke="hsl(180.0,100%,35%)" stroke-width="0.00043"></path>
<path d="M1.234 0.484 Q1.116 0.229 0.593 0.230" stroke="hsl(180.0,100%,35%)" stroke-width="0.00043"></path>
<path d="M1.234 0.484 Q0.883 0.326 0.500 0.463" stroke="hsl(180.0,100%,35%)" stroke-width="0.00043"></path>
<path d="M0.107 0.193 Q0.823 0.707 1.982 0.470" stroke="hsl(180.0,100%,35%)" stroke-width="0.00043"></path>
<path d="M0.107 0.193 Q0.098 0.619 0.926 0.716" stroke="hsl(180.0,100%,35%)" stroke-width="0.00043"></path>
<path d="M0.107 0.193 Q-0.041 0.455 0.438 0.585" stroke="hsl(180.0,100%,35%)" stroke-width="0.00043"></path>
<path d="M0.107 0.193 Q-0.209 0.619 0.551 0.866" stroke="hsl(180.0,100%,35%)" stroke-width="0.00043"></path>
<path d="M0.107 0.193 Q0.054 0.232 0.118 0.267" stroke="hsl(180.0,100%,35%)" stroke-width="0.00087"></path>
<path d="M0.107 0.193 Q-0.224 0.528 0.358 0.763" stroke="hsl(180.0,100%,35%)" stroke-width="0.00043"></path>
<path d="M0.805 0.303 Q0.396 0.371 0.438 0.585" stroke="hsl(180.0,100%,35%)" stroke-width="0.00130"></path>
<path d="M0.805 0.303 Q0.776 0.319 0.800 0.336" stroke="hsl(180.0,100%,35%)" stroke-width="0.00043"></path>
<path d="M0.805 0.303 Q0.708 0.440 0.955 0.518" stroke="hsl(180.0,100%,35%)" stroke-width="0.00043"></path>
<path d="M0.805 0.303 Q0.736 0.319 0.751 0.356" stroke="hsl(180.0,100%,35%)" stroke-width="0.00043"></path>
<path d="M0.805 0.303 Q0.535 0.534 0.926 0.716" stroke="hsl(180.0,100%,35%)" stroke-width="0.00043"></path>
<path d="M0.805 0.303 Q0.721 0.464 1.017 0.540" stroke="hsl(180.0,100%,35%)" stroke-width="0.00043"></path>
<path d="M1.031 0.375 Q0.384 0.434 0.358 0.763" stroke="hsl(0.0,100%,35%)" stroke-width="0.00130"></path>
<path d="M1.031 0.375 Q1.130 0.325 1.054 0.266" stroke="hsl(0.0,100%,35%)" stroke-width="0.00346"></path>
<path d="M1.031 0.375 Q0.872 0.477 1.036 0.577" stroke="hsl(0.0,100%,35%)" stroke-width="0.00130"></path>
<path d="M1.031 0.375 Q0.443 0.675 0.899 1.028" stroke="hsl(0.0,100%,35%)" stroke-width="0.00087"></path>
<path d="M1.031 0.375 Q0.662 0.138 0.118 0.267" stroke="hsl(0.0,100%,35%)" stroke-width="0.00043"></path>
<path d="M1.031 0.375 Q1.431 0.613 1.982 0.470" stroke="hsl(0.0,100%,35%)" stroke-width="0.00043"></path>
<path d="M1.779 0.463 Q1.875 0.507 1.982 0.470" stroke="hsl(180.0,100%,35%)" stroke-width="0.00216"></path>
<path d="M1.779 0.463 Q1.150 0.419 0.926 0.716" stroke="hsl(180.0,100%,35%)" stroke-width="0.00043"></path>
<path d="M1.779 0.463 Q1.011 0.255 0.438 0.585" stroke="hsl(180.0,100%,35%)" stroke-width="0.00087"></path>
<path d="M1.779 0.463 Q1.490 0.364 1.234 0.484" stroke="hsl(180.0,100%,35%)" stroke-width="0.00043"></path>
<path d="M1.779 0.463 Q1.676 0.557 1.836 0.627" stroke="hsl(180.0,100%,35%)" stroke-width="0.00043"></path>
<path d="M0.149 0.109 Q0.776 0.656 1.982 0.470" stroke="hsl(180.0,100%,35%)" stroke-width="0.00173"></path>
<path d="M0.149 0.109 Q0.153 0.167 0.269 0.178" stroke="hsl(180.0,100%,35%)" stroke-width="0.00043"></path>
<path d="M0.149 0.109 Q-0.087 0.404 0.438 0.585" stroke="hsl(180.0,100%,35%)" stroke-width="0.00130"></path>
<path d="M0.149 0.109 Q-0.022 0.271 0.257 0.390" stroke="hsl(180.0,100%,35%)" stroke-width="0.00043"></path>
<path d="M0.149 0.109 Q-0.270 0.478 0.358 0.763" stroke="hsl(180.0,100%,35%)" stroke-width="0.00043"></path>
<path d="M0.269 0.178 Q0.264 0.119 0.149 0.109" stroke="hsl(180.0,100%,35%)" stroke-width="0.00216"></path>
<path d="M0.269 0.178 Q0.892 0.667 1.982 0.470" stroke="hsl(180.0,100%,35%)" stroke-width="0.00173"></path>
<path d="M0.269 0.178 Q-0.155 0.488 0.358 0.763" stroke="hsl(180.0,100%,35%)" stroke-width="0.00043"></path>
<path d="M0.269 0.178 Q0.028 0.415 0.438 0.585" stroke="hsl(180.0,100%,35%)" stroke-width="0.00043"></path>
<path d="M0.316 0.053 Q0.192 0.106 0.269 0.178" stroke="hsl(180.0,100%,35%)" stroke-width="0.00216"></path>
<path d="M0.316 0.053 Q0.188 0.047 0.149 0.109" stroke="hsl(180.0,100%,35%)" stroke-width="0.00216"></path>
<path d="M0.316 0.053 Q-0.163 0.224 0.066 0.495" stroke="hsl(180.0,100%,35%)" stroke-width="0.00043"></path>
<path d="M0.316 0.053 Q0.815 0.595 1.982 0.470" stroke="hsl(180.0,100%,35%)" stroke-width="0.00130"></path>
<path d="M0.316 0.053 Q-0.048 0.343 0.438 0.585" stroke="hsl(180.0,100%,35%)" stroke-width="0.00130"></path>
<path d="M0.316 0.053 Q-0.220 0.244 0.035 0.547" stroke="hsl(180.0,100%,35%)" stroke-width="0.00043"></path>
<path d="M0.066 0.495 Q1.044 0.866 1.982 0.470" stroke="hsl(180.0,100%,35%)" stroke-width="0.00043"></path>
<path d="M0.066 0.495 Q0.008 0.515 0.035 0.547" stroke="hsl(180.0,100%,35%)" stroke-width="0.00043"></path>
<path d="M0.066 0.495 Q0.173 0.441 0.091 0.376" stroke="hsl(180.0,100%,35%)" stroke-width="0.00043"></path>
<path d="M0.066 0.495 Q0.163 0.521 0.235 0.479" stroke="hsl(180.0,100%,35%)" stroke-width="0.00043"></path>
<path d="M0.341 0.615 Q0.231 0.692 0.358 0.763" stroke="hsl(180.0,100%,35%)" stroke-width="0.00043"></path>
<path d="M0.341 0.615 Q0.414 0.619 0.438 0.585" stroke="hsl(180.0,100%,35%)" stroke-width="0.00043"></path>
<path d="M0.341 0.615 Q0.836 0.376 0.479 0.082" stroke="hsl(180.0,100%,35%)" stroke-width="0.00043"></path>
<path d="M0.479 0.082 Q0.920 0.577 1.982 0.470" stroke="hsl(180.0,100%,35%)" stroke-width="0.00043"></path>
<path d="M0.479 0.082 Q0.293 0.029 0.149 0.109" stroke="hsl(180.0,100%,35%)" stroke-width="0.00087"></path>
<path d="M0.479 0.082 Q0.122 0.192 0.257 0.390" stroke="hsl(180.0,100%,35%)" stroke-width="0.00087"></path>
<path d="M0.479 0.082 Q0.057 0.325 0.438 0.585" stroke="hsl(180.0,100%,35%)" stroke-width="0.00043"></path>
<path d="M1.785 0.389 Q1.819 0.469 1.982 0.470" stroke="hsl(180.0,100%,35%)" stroke-width="0.00216"></path>
<path d="M1.785 0.389 Q0.955 0.217 0.438 0.585" stroke="hsl(180.0,100%,35%)" stroke-width="0.00130"></path>
<path d="M1.785 0.389 Q1.191 -0.078 0.149 0.109" stroke="hsl(180.0,100%,35%)" stroke-width="0.00087"></path>
<path d="M0.261 0.610 Q0.186 0.706 0.358 0.763" stroke="hsl(180.0,100%,35%)" stroke-width="0.00087"></path>
<path d="M0.261 0.610 Q0.201 0.796 0.551 0.866" stroke="hsl(180.0,100%,35%)" stroke-width="0.00043"></path>
<path d="M0.261 0.610 Q0.420 0.761 0.749 0.716" stroke="hsl(180.0,100%,35%)" stroke-width="0.00043"></path>
<path d="M0.203 0.596 Q0.330 0.637 0.438 0.585" stroke="hsl(180.0,100%,35%)" stroke-width="0.00520"></path>
<path d="M0.203 0.596 Q0.548 0.843 1.105 0.729" stroke="hsl(180.0,100%,35%)" stroke-width="0.00043"></path>
<path d="M0.203 0.596 Q0.146 0.710 0.358 0.763" stroke="hsl(180.0,100%,35%)" stroke-width="0.00130"></path>
<path d="M1.520 0.732 Q1.621 0.796 1.769 0.761" stroke="hsl(180.0,100%,35%)" stroke-width="0.00043"></path>
<path d="M1.520 0.732 Q1.097 0.442 0.438 0.585" stroke="hsl(180.0,100%,35%)" stroke-width="0.00043"></path>
<path d="M1.520 0.732 Q0.973 0.756 0.899 1.028" stroke="hsl(180.0,100%,35%)" stroke-width="0.00043"></path>
<path d="M0.091 0.376 Q0.962 0.802 1.982 0.470" stroke="hsl(180.0,100%,35%)" stroke-width="0.00130"></path>
<path d="M0.091 0.376 Q0.080 0.457 0.235 0.479" stroke="hsl(180.0,100%,35%)" stroke-width="0.00130"></path>
<path d="M0.091 0.376 Q-0.017 0.431 0.066 0.495" stroke="hsl(180.0,100%,35%)" stroke-width="0.00087"></path>
<path d="M0.091 0.376 Q0.763 0.851 1.836 0.627" stroke="hsl(180.0,100%,35%)" stroke-width="0.00043"></path>
<path d="M0.255 0.378 Q0.182 0.518 0.438 0.585" stroke="hsl(180.0,100%,35%)" stroke-width="0.00087"></path>
<path d="M0.255 0.378 Q0.247 0.385 0.257 0.390" stroke="hsl(180.0,100%,35%)" stroke-width="0.00087"></path>
<path d="M0.255 0.378 Q0.418 0.222 0.149 0.109" stroke="hsl(180.0,100%,35%)" stroke-width="0.00043"></path>
<path d="M1.838 0.430 Q0.846 0.391 0.551 0.866" stroke="hsl(180.0,100%,35%)" stroke-width="0.00043"></path>
<path d="M1.838 0.430 Q1.709 0.272 1.373 0.301" stroke="hsl(180.0,100%,35%)" stroke-width="0.00043"></path>
<path d="M1.838 0.430 Q1.679 0.528 1.836 0.627" stroke="hsl(180.0,100%,35%)" stroke-width="0.00043"></path>
<path d="M0.277 0.619 Q0.423 0.883 0.969 0.869" stroke="hsl(0.0,100%,35%)" stroke-width="0.00043"></path>
<path d="M0.277 0.619 Q0.072 0.786 0.351 0.922" stroke="hsl(0.0,100%,35%)" stroke-width="0.00043"></path>
<path d="M0.277 0.619 Q0.261 0.948 0.899 1.028" stroke="hsl(0.0,100%,35%)" stroke-width="0.00043"></path>
<path d="M0.277 0.619 Q1.050 0.935 1.836 0.627" stroke="hsl(0.0,100%,35%)" stroke-width="0.00043"></path>
<path d="M0.277 0.619 Q0.202 0.707 0.358 0.763" stroke="hsl(0.0,100%,35%)" stroke-width="0.00043"></path>
<path d="M0.277 0.619 Q0.217 0.798 0.551 0.866" stroke="hsl(0.0,100%,35%)" stroke-width="0.00043"></path>
</g>
<text x="1.107" y="0.845" font-size="0.005767" fill="hsl(0.0,100%,20%)">alexnj</text>
<text x="0.969" y="0.857" font-size="0.023544" fill="hsl(0.0,100%,20%)">paulirish</text>
<text x="0.899" y="1.000" font-size="0.055015" fill="hsl(0.0,100%,20%)">jacktfranklin</text>
<text x="1.836" y="0.601" font-size="0.053585" fill="hsl(180.0,100%,20%)">alexrudenko</text>
<text x="0.358" y="0.732" font-size="0.062823" fill="hsl(180.0,100%,20%)">szuend</text>
<text x="0.551" y="0.831" font-size="0.069764" fill="hsl(180.0,100%,20%)">bmeurer</text>
<text x="0.438" y="0.556" font-size="0.057863" fill="hsl(180.0,100%,20%)">wolfi</text>
<text x="1.982" y="0.441" font-size="0.059376" fill="hsl(180.0,100%,20%)">dsv</text>
<text x="1.054" y="0.240" font-size="0.051367" fill="hsl(180.0,100%,20%)">pfaffe</text>
<text x="1.769" y="0.751" font-size="0.019415" fill="hsl(180.0,100%,20%)">nvitkov</text>
<text x="0.654" y="0.957" font-size="0.050166" fill="hsl(0.0,100%,20%)">andoli</text>
<text x="0.500" y="0.441" font-size="0.043795" fill="hsl(180.0,100%,20%)">kprokopenko</text>
<text x="0.749" y="0.703" font-size="0.025791" fill="hsl(180.0,100%,20%)">yangguo</text>
<text x="0.784" y="0.471" font-size="0.015617" fill="hsl(180.0,100%,20%)">petermueller</text>
<text x="1.788" y="0.486" font-size="0.003330" fill="hsl(180.0,100%,20%)">tperrotta</text>
<text x="1.373" y="0.278" font-size="0.045165" fill="hsl(0.0,100%,20%)">ergunsh</text>
<text x="1.946" y="0.682" font-size="0.014891" fill="hsl(180.0,100%,20%)">jrandolf</text>
<text x="0.926" y="0.709" font-size="0.014126" fill="hsl(180.0,100%,20%)">mathias</text>
<text x="0.358" y="0.277" font-size="0.025791" fill="hsl(0.0,100%,20%)">hadrienjaubert</text>
<text x="0.837" y="0.874" font-size="0.030517" fill="hsl(0.0,100%,20%)">alinavarkki</text>
<text x="0.593" y="0.213" font-size="0.034922" fill="hsl(0.0,100%,20%)">nancyly</text>
<text x="0.869" y="0.222" font-size="0.009989" fill="hsl(0.0,100%,20%)">almuthanna</text>
<text x="0.118" y="0.258" font-size="0.016978" fill="hsl(180.0,100%,20%)">leese</text>
<text x="0.753" y="0.593" font-size="0.024010" fill="hsl(180.0,100%,20%)">jec</text>
<text x="0.152" y="0.843" font-size="0.013728" fill="hsl(0.0,100%,20%)">asraine</text>
<text x="0.351" y="0.918" font-size="0.008156" fill="hsl(0.0,100%,20%)">cjamcl</text>
<text x="1.006" y="0.555" font-size="0.005767" fill="hsl(180.0,100%,20%)">barrypollard</text>
<text x="1.234" y="0.474" font-size="0.018539" fill="hsl(180.0,100%,20%)">changhaohan</text>
<text x="0.136" y="0.753" font-size="0.004709" fill="hsl(180.0,100%,20%)">caseq</text>
<text x="0.239" y="0.648" font-size="0.015258" fill="hsl(180.0,100%,20%)">jarin</text>
<text x="1.152" y="-0.153" font-size="0.007445" fill="hsl(0.0,100%,20%)">victorporof</text>
<text x="0.107" y="0.189" font-size="0.008809" fill="hsl(180.0,100%,20%)">chrche</text>
<text x="1.105" y="0.725" font-size="0.006659" fill="hsl(180.0,100%,20%)">semel</text>
<text x="0.805" y="0.299" font-size="0.009418" fill="hsl(180.0,100%,20%)">fluorescent.hallucinogen</text>
<text x="0.800" y="0.335" font-size="0.003330" fill="hsl(180.0,100%,20%)">dibyapal</text>
<text x="0.955" y="0.516" font-size="0.003330" fill="hsl(180.0,100%,20%)">hartmanng</text>
<text x="0.751" y="0.354" font-size="0.003330" fill="hsl(180.0,100%,20%)">scheib</text>
<text x="1.017" y="0.539" font-size="0.003330" fill="hsl(180.0,100%,20%)">finnur</text>
<text x="1.031" y="0.368" font-size="0.014514" fill="hsl(0.0,100%,20%)">liviurau</text>
<text x="0.908" y="0.533" font-size="0.003330" fill="hsl(180.0,100%,20%)">tomac</text>
<text x="1.779" y="0.458" font-size="0.010529" fill="hsl(180.0,100%,20%)">jimmyseto</text>
<text x="0.149" y="0.100" font-size="0.016978" fill="hsl(180.0,100%,20%)">kenoss</text>
<text x="0.269" y="0.171" font-size="0.013728" fill="hsl(180.0,100%,20%)">lingqi</text>
<text x="0.257" y="0.386" font-size="0.007445" fill="hsl(180.0,100%,20%)">domenic</text>
<text x="1.036" y="0.574" font-size="0.005767" fill="hsl(0.0,100%,20%)">machenbach</text>
<text x="0.316" y="0.046" font-size="0.014126" fill="hsl(180.0,100%,20%)">miinak</text>
<text x="0.066" y="0.491" font-size="0.008809" fill="hsl(180.0,100%,20%)">sisidovski</text>
<text x="0.035" y="0.545" font-size="0.004709" fill="hsl(180.0,100%,20%)">kouhei</text>
<text x="0.341" y="0.612" font-size="0.005767" fill="hsl(180.0,100%,20%)">morlovich</text>
<text x="0.479" y="0.078" font-size="0.008809" fill="hsl(180.0,100%,20%)">nhiroki</text>
<text x="1.785" y="0.384" font-size="0.010529" fill="hsl(180.0,100%,20%)">robertlin</text>
<text x="0.261" y="0.606" font-size="0.006659" fill="hsl(180.0,100%,20%)">seth.brenith</text>
<text x="0.203" y="0.589" font-size="0.013728" fill="hsl(180.0,100%,20%)">shuuran</text>
<text x="1.520" y="0.729" font-size="0.005767" fill="hsl(180.0,100%,20%)">silviaeremia</text>
<text x="0.091" y="0.371" font-size="0.010529" fill="hsl(180.0,100%,20%)">tnak</text>
<text x="0.235" y="0.476" font-size="0.006659" fill="hsl(180.0,100%,20%)">yyanagisawa</text>
<text x="0.255" y="0.375" font-size="0.007445" fill="hsl(180.0,100%,20%)">taiyo</text>
<text x="1.838" y="0.427" font-size="0.005767" fill="hsl(180.0,100%,20%)">tkent</text>
<text x="0.277" y="0.615" font-size="0.008156" fill="hsl(0.0,100%,20%)">vidorteg</text>
<text x="0.708" y="0.503" font-size="0.003330" fill="hsl(180.0,100%,20%)">mathiasb</text>
<text x="0.277" y="0.335" font-size="0.003330" fill="hsl(180.0,100%,20%)">tsepez</text>
</svg>
