<svg width="4000" height="2000" viewBox="-0.025 -0.025 2.05 1.05" xmlns="http://www.w3.org/2000/svg">
  <style>
    path {
      fill: none;
      stroke-linecap: round;
      stroke-opacity: 0.4;
    }

    text {
      text-anchor: middle;
      alignment-baseline: hanging;
    }
  </style>
  <g opacity="0.4">
<path d="M0.286 0.155 Q0.322 0.127 0.276 0.103" stroke="hsl(0.0,100%,35%)" stroke-width="0.01126"></path>
<path d="M0.286 0.155 Q0.350 0.247 0.545 0.236" stroke="hsl(0.0,100%,35%)" stroke-width="0.02026"></path>
<path d="M0.286 0.155 Q-0.376 0.528 0.208 0.933" stroke="hsl(0.0,100%,35%)" stroke-width="0.00225"></path>
<path d="M0.286 0.155 Q-0.127 0.614 0.678 0.916" stroke="hsl(0.0,100%,35%)" stroke-width="0.00675"></path>
<path d="M0.286 0.155 Q0.391 0.354 0.802 0.347" stroke="hsl(0.0,100%,35%)" stroke-width="0.00225"></path>
<path d="M0.276 0.103 Q-0.159 0.517 0.553 0.820" stroke="hsl(0.0,100%,35%)" stroke-width="0.00225"></path>
<path d="M0.276 0.103 Q0.304 0.224 0.545 0.236" stroke="hsl(0.0,100%,35%)" stroke-width="0.00901"></path>
<path d="M0.276 0.103 Q0.344 0.330 0.802 0.347" stroke="hsl(0.0,100%,35%)" stroke-width="0.00225"></path>
<path d="M0.545 0.236 Q0.321 0.224 0.249 0.331" stroke="hsl(0.0,100%,35%)" stroke-width="0.03377"></path>
<path d="M0.545 0.236 Q-0.181 0.517 0.208 0.933" stroke="hsl(0.0,100%,35%)" stroke-width="0.02477"></path>
<path d="M0.545 0.236 Q0.481 0.144 0.286 0.155" stroke="hsl(0.0,100%,35%)" stroke-width="0.06304"></path>
<path d="M0.545 0.236 Q0.694 0.444 1.132 0.417" stroke="hsl(0.0,100%,35%)" stroke-width="0.00901"></path>
<path d="M0.545 0.236 Q0.585 0.343 0.802 0.347" stroke="hsl(0.0,100%,35%)" stroke-width="0.01576"></path>
<path d="M0.545 0.236 Q0.469 0.331 0.636 0.389" stroke="hsl(0.0,100%,35%)" stroke-width="0.01126"></path>
<path d="M0.545 0.236 Q0.913 0.270 1.060 0.099" stroke="hsl(0.0,100%,35%)" stroke-width="0.00225"></path>
<path d="M0.545 0.236 Q0.523 0.319 0.680 0.348" stroke="hsl(0.0,100%,35%)" stroke-width="0.00450"></path>
<path d="M0.545 0.236 Q0.517 0.116 0.276 0.103" stroke="hsl(0.0,100%,35%)" stroke-width="0.00450"></path>
<path d="M0.545 0.236 Q0.082 0.530 0.553 0.820" stroke="hsl(0.0,100%,35%)" stroke-width="0.01576"></path>
<path d="M0.545 0.236 Q0.068 0.603 0.678 0.916" stroke="hsl(0.0,100%,35%)" stroke-width="0.00450"></path>
<path d="M0.545 0.236 Q0.802 0.204 0.794 0.071" stroke="hsl(0.0,100%,35%)" stroke-width="0.00225"></path>
<path d="M0.545 0.236 Q0.498 0.813 1.612 0.963" stroke="hsl(0.0,100%,35%)" stroke-width="0.00225"></path>
<path d="M0.208 0.933 Q0.934 0.652 0.545 0.236" stroke="hsl(0.0,100%,35%)" stroke-width="0.02702"></path>
<path d="M0.208 0.933 Q0.456 1.019 0.678 0.916" stroke="hsl(0.0,100%,35%)" stroke-width="0.01801"></path>
<path d="M0.208 0.933 Q1.301 0.686 1.060 0.099" stroke="hsl(0.0,100%,35%)" stroke-width="0.00225"></path>
<path d="M0.208 0.933 Q0.710 0.640 0.249 0.331" stroke="hsl(0.0,100%,35%)" stroke-width="0.00225"></path>
<path d="M0.208 0.933 Q1.083 0.860 1.132 0.417" stroke="hsl(0.0,100%,35%)" stroke-width="0.00450"></path>
<path d="M0.208 0.933 Q0.429 0.830 0.276 0.700" stroke="hsl(0.0,100%,35%)" stroke-width="0.00225"></path>
<path d="M1.432 0.299 Q1.319 0.219 1.139 0.256" stroke="hsl(180.0,100%,35%)" stroke-width="0.03152"></path>
<path d="M1.432 0.299 Q1.406 0.124 1.060 0.099" stroke="hsl(180.0,100%,35%)" stroke-width="0.00225"></path>
<path d="M1.432 0.299 Q1.038 0.090 0.545 0.236" stroke="hsl(180.0,100%,35%)" stroke-width="0.00225"></path>
<path d="M1.432 0.299 Q1.078 0.197 0.802 0.347" stroke="hsl(180.0,100%,35%)" stroke-width="0.00225"></path>
<path d="M1.139 0.256 Q0.858 0.128 0.545 0.236" stroke="hsl(180.0,100%,35%)" stroke-width="0.00225"></path>
<path d="M1.139 0.256 Q0.898 0.234 0.802 0.347" stroke="hsl(180.0,100%,35%)" stroke-width="0.00225"></path>
<path d="M1.139 0.256 Q1.226 0.162 1.060 0.099" stroke="hsl(180.0,100%,35%)" stroke-width="0.00450"></path>
<path d="M0.249 0.331 Q0.473 0.343 0.545 0.236" stroke="hsl(0.0,100%,35%)" stroke-width="0.00675"></path>
<path d="M0.249 0.331 Q0.513 0.449 0.802 0.347" stroke="hsl(0.0,100%,35%)" stroke-width="0.01351"></path>
<path d="M0.249 0.331 Q0.621 0.551 1.132 0.417" stroke="hsl(0.0,100%,35%)" stroke-width="0.00450"></path>
<path d="M1.132 0.417 Q0.257 0.490 0.208 0.933" stroke="hsl(0.0,100%,35%)" stroke-width="0.02702"></path>
<path d="M1.132 0.417 Q0.759 0.197 0.249 0.331" stroke="hsl(0.0,100%,35%)" stroke-width="0.00450"></path>
<path d="M1.132 0.417 Q0.849 0.376 0.707 0.505" stroke="hsl(0.0,100%,35%)" stroke-width="0.00225"></path>
<path d="M1.132 0.417 Q0.520 0.503 0.553 0.820" stroke="hsl(0.0,100%,35%)" stroke-width="0.00225"></path>
<path d="M1.132 0.417 Q1.350 0.243 1.060 0.099" stroke="hsl(0.0,100%,35%)" stroke-width="0.00225"></path>
<path d="M1.132 0.417 Q0.983 0.209 0.545 0.236" stroke="hsl(0.0,100%,35%)" stroke-width="0.00450"></path>
<path d="M0.553 0.820 Q0.290 0.808 0.208 0.933" stroke="hsl(0.0,100%,35%)" stroke-width="0.01801"></path>
<path d="M0.553 0.820 Q0.952 0.434 0.286 0.155" stroke="hsl(0.0,100%,35%)" stroke-width="0.00450"></path>
<path d="M0.553 0.820 Q0.539 0.893 0.678 0.916" stroke="hsl(0.0,100%,35%)" stroke-width="0.00225"></path>
<path d="M1.719 0.748 Q1.064 0.623 0.678 0.916" stroke="hsl(0.0,100%,35%)" stroke-width="0.00225"></path>
<path d="M1.719 0.748 Q1.494 0.834 1.612 0.963" stroke="hsl(0.0,100%,35%)" stroke-width="0.00225"></path>
<path d="M1.719 0.748 Q0.815 0.538 0.208 0.933" stroke="hsl(0.0,100%,35%)" stroke-width="0.00225"></path>
<path d="M0.438 0.053 Q0.281 0.074 0.286 0.155" stroke="hsl(0.0,100%,35%)" stroke-width="0.00450"></path>
<path d="M0.438 0.053 Q-0.118 0.460 0.553 0.820" stroke="hsl(0.0,100%,35%)" stroke-width="0.00225"></path>
<path d="M0.438 0.053 Q0.494 0.374 1.132 0.417" stroke="hsl(0.0,100%,35%)" stroke-width="0.00225"></path>
<path d="M0.438 0.053 Q0.317 0.046 0.276 0.103" stroke="hsl(0.0,100%,35%)" stroke-width="0.00225"></path>
<path d="M0.841 0.670 Q1.188 0.696 1.315 0.532" stroke="hsl(180.0,100%,35%)" stroke-width="0.00450"></path>
<path d="M0.841 0.670 Q0.577 0.687 0.553 0.820" stroke="hsl(180.0,100%,35%)" stroke-width="0.00225"></path>
<path d="M0.841 0.670 Q1.080 0.500 0.802 0.347" stroke="hsl(180.0,100%,35%)" stroke-width="0.00225"></path>
<path d="M0.349 0.540 Q0.690 0.427 0.545 0.236" stroke="hsl(0.0,100%,35%)" stroke-width="0.00225"></path>
<path d="M0.349 0.540 Q0.614 0.522 0.636 0.389" stroke="hsl(0.0,100%,35%)" stroke-width="0.00225"></path>
<path d="M0.349 0.540 Q0.227 0.721 0.553 0.820" stroke="hsl(0.0,100%,35%)" stroke-width="0.00225"></path>
</g>
<text x="0.286" y="0.120" font-size="0.069201" fill="hsl(0.0,100%,20%)">alexrudenko</text>
<text x="0.276" y="0.085" font-size="0.036257" fill="hsl(0.0,100%,20%)">nvitkov</text>
<text x="0.545" y="0.183" font-size="0.105706" fill="hsl(0.0,100%,20%)">bmeurer</text>
<text x="0.208" y="0.896" font-size="0.073797" fill="hsl(0.0,100%,20%)">wolfi</text>
<text x="0.678" y="0.897" font-size="0.037529" fill="hsl(0.0,100%,20%)">dsv</text>
<text x="0.802" y="0.326" font-size="0.041111" fill="hsl(180.0,100%,20%)">pfaffe</text>
<text x="1.432" y="0.279" font-size="0.039953" fill="hsl(180.0,100%,20%)">alinavarkki</text>
<text x="1.139" y="0.236" font-size="0.041111" fill="hsl(180.0,100%,20%)">andoli</text>
<text x="1.060" y="0.087" font-size="0.023736" fill="hsl(180.0,100%,20%)">nancyly</text>
<text x="0.249" y="0.305" font-size="0.052182" fill="hsl(0.0,100%,20%)">ergunsh</text>
<text x="1.132" y="0.391" font-size="0.051275" fill="hsl(0.0,100%,20%)">kprokopenko</text>
<text x="0.636" y="0.377" font-size="0.023736" fill="hsl(0.0,100%,20%)">yangguo</text>
<text x="0.680" y="0.341" font-size="0.013704" fill="hsl(0.0,100%,20%)">petermueller</text>
<text x="0.553" y="0.797" font-size="0.046472" fill="hsl(0.0,100%,20%)">szuend</text>
<text x="0.794" y="0.066" font-size="0.009690" fill="hsl(0.0,100%,20%)">jec</text>
<text x="1.612" y="0.956" font-size="0.013704" fill="hsl(0.0,100%,20%)">mathias</text>
<text x="1.719" y="0.739" font-size="0.016784" fill="hsl(0.0,100%,20%)">chrche</text>
<text x="0.438" y="0.043" font-size="0.021668" fill="hsl(0.0,100%,20%)">jrandolf</text>
<text x="0.707" y="0.500" font-size="0.009690" fill="hsl(0.0,100%,20%)">leese</text>
<text x="0.841" y="0.660" font-size="0.019380" fill="hsl(180.0,100%,20%)">liviurau</text>
<text x="1.315" y="0.525" font-size="0.013704" fill="hsl(180.0,100%,20%)">machenbach</text>
<text x="0.349" y="0.532" font-size="0.016784" fill="hsl(0.0,100%,20%)">seth.brenith</text>
<text x="0.276" y="0.695" font-size="0.009690" fill="hsl(0.0,100%,20%)">shuuran</text>
</svg>
