<svg width="4000" height="2000" viewBox="-0.025 -0.025 2.05 1.05" xmlns="http://www.w3.org/2000/svg">
  <style>
    path {
      fill: none;
      stroke-linecap: round;
      stroke-opacity: 0.4;
    }

    text {
      text-anchor: middle;
      alignment-baseline: hanging;
    }
  </style>
  <g opacity="0.4">
<path d="M0.915 0.029 Q0.729 0.041 0.710 0.134" stroke="hsl(0.0,100%,35%)" stroke-width="0.00043"></path>
<path d="M0.915 0.029 Q0.808 0.157 1.033 0.237" stroke="hsl(0.0,100%,35%)" stroke-width="0.00043"></path>
<path d="M0.915 0.029 Q0.352 0.523 1.192 0.906" stroke="hsl(0.0,100%,35%)" stroke-width="0.00043"></path>
<path d="M0.710 0.134 Q0.627 0.225 0.786 0.285" stroke="hsl(0.0,100%,35%)" stroke-width="0.00386"></path>
<path d="M0.710 0.134 Q0.789 0.250 1.033 0.237" stroke="hsl(0.0,100%,35%)" stroke-width="0.00600"></path>
<path d="M0.710 0.134 Q0.460 0.204 0.542 0.342" stroke="hsl(0.0,100%,35%)" stroke-width="0.00129"></path>
<path d="M1.033 0.237 Q0.871 0.212 0.786 0.285" stroke="hsl(0.0,100%,35%)" stroke-width="0.03944"></path>
<path d="M1.033 0.237 Q0.826 0.268 0.842 0.376" stroke="hsl(0.0,100%,35%)" stroke-width="0.00257"></path>
<path d="M1.033 0.237 Q0.577 0.603 1.192 0.906" stroke="hsl(0.0,100%,35%)" stroke-width="0.00086"></path>
<path d="M1.033 0.237 Q0.844 0.355 1.033 0.473" stroke="hsl(0.0,100%,35%)" stroke-width="0.00257"></path>
<path d="M1.033 0.237 Q0.703 0.191 0.542 0.342" stroke="hsl(0.0,100%,35%)" stroke-width="0.00514"></path>
<path d="M1.033 0.237 Q1.325 0.391 1.691 0.283" stroke="hsl(0.0,100%,35%)" stroke-width="0.00086"></path>
<path d="M1.033 0.237 Q0.953 0.121 0.710 0.134" stroke="hsl(0.0,100%,35%)" stroke-width="0.00343"></path>
<path d="M1.033 0.237 Q0.904 0.233 0.868 0.295" stroke="hsl(0.0,100%,35%)" stroke-width="0.00171"></path>
<path d="M1.033 0.237 Q0.761 0.618 1.445 0.834" stroke="hsl(0.0,100%,35%)" stroke-width="0.00043"></path>
<path d="M1.033 0.237 Q0.991 0.351 1.204 0.396" stroke="hsl(0.0,100%,35%)" stroke-width="0.00043"></path>
<path d="M1.033 0.237 Q0.738 0.423 1.037 0.607" stroke="hsl(0.0,100%,35%)" stroke-width="0.00086"></path>
<path d="M1.192 0.906 Q1.459 0.658 1.033 0.473" stroke="hsl(180.0,100%,35%)" stroke-width="0.00900"></path>
<path d="M1.192 0.906 Q1.244 0.680 0.814 0.605" stroke="hsl(180.0,100%,35%)" stroke-width="0.00643"></path>
<path d="M1.192 0.906 Q1.785 0.901 1.906 0.610" stroke="hsl(180.0,100%,35%)" stroke-width="0.00429"></path>
<path d="M1.192 0.906 Q1.376 0.921 1.445 0.834" stroke="hsl(180.0,100%,35%)" stroke-width="0.02229"></path>
<path d="M1.192 0.906 Q1.940 0.694 1.691 0.283" stroke="hsl(180.0,100%,35%)" stroke-width="0.00171"></path>
<path d="M1.192 0.906 Q0.930 0.803 0.672 0.908" stroke="hsl(180.0,100%,35%)" stroke-width="0.00514"></path>
<path d="M1.192 0.906 Q1.648 0.540 1.033 0.237" stroke="hsl(180.0,100%,35%)" stroke-width="0.00086"></path>
<path d="M1.192 0.906 Q1.486 0.514 0.786 0.285" stroke="hsl(180.0,100%,35%)" stroke-width="0.00086"></path>
<path d="M1.192 0.906 Q1.731 0.952 1.939 0.699" stroke="hsl(180.0,100%,35%)" stroke-width="0.00086"></path>
<path d="M1.192 0.906 Q1.353 0.725 1.037 0.607" stroke="hsl(180.0,100%,35%)" stroke-width="0.00686"></path>
<path d="M1.192 0.906 Q1.511 0.835 1.443 0.664" stroke="hsl(180.0,100%,35%)" stroke-width="0.00043"></path>
<path d="M1.192 0.906 Q1.210 0.803 1.012 0.771" stroke="hsl(180.0,100%,35%)" stroke-width="0.00043"></path>
<path d="M1.192 0.906 Q1.806 0.690 1.520 0.343" stroke="hsl(180.0,100%,35%)" stroke-width="0.00043"></path>
<path d="M1.192 0.906 Q1.129 0.825 0.957 0.838" stroke="hsl(180.0,100%,35%)" stroke-width="0.00086"></path>
<path d="M1.192 0.906 Q1.606 0.654 1.204 0.396" stroke="hsl(180.0,100%,35%)" stroke-width="0.00043"></path>
<path d="M1.192 0.906 Q1.173 0.447 0.274 0.356" stroke="hsl(180.0,100%,35%)" stroke-width="0.00086"></path>
<path d="M1.033 0.473 Q1.514 0.509 1.691 0.283" stroke="hsl(180.0,100%,35%)" stroke-width="0.01029"></path>
<path d="M1.033 0.473 Q0.766 0.721 1.192 0.906" stroke="hsl(180.0,100%,35%)" stroke-width="0.01243"></path>
<path d="M1.033 0.473 Q0.818 0.495 0.814 0.605" stroke="hsl(180.0,100%,35%)" stroke-width="0.00514"></path>
<path d="M1.033 0.473 Q0.950 0.736 1.445 0.834" stroke="hsl(180.0,100%,35%)" stroke-width="0.01329"></path>
<path d="M1.033 0.473 Q1.359 0.716 1.906 0.610" stroke="hsl(180.0,100%,35%)" stroke-width="0.00943"></path>
<path d="M1.033 0.473 Q1.180 0.469 1.204 0.396" stroke="hsl(180.0,100%,35%)" stroke-width="0.00257"></path>
<path d="M1.033 0.473 Q1.380 0.506 1.520 0.343" stroke="hsl(180.0,100%,35%)" stroke-width="0.00043"></path>
<path d="M1.033 0.473 Q0.706 0.464 0.617 0.622" stroke="hsl(180.0,100%,35%)" stroke-width="0.00043"></path>
<path d="M1.033 0.473 Q1.227 0.480 1.284 0.387" stroke="hsl(180.0,100%,35%)" stroke-width="0.00772"></path>
<path d="M1.033 0.473 Q1.305 0.767 1.939 0.699" stroke="hsl(180.0,100%,35%)" stroke-width="0.00129"></path>
<path d="M1.033 0.473 Q1.060 0.330 0.786 0.285" stroke="hsl(180.0,100%,35%)" stroke-width="0.00043"></path>
<path d="M0.814 0.605 Q1.029 0.583 1.033 0.473" stroke="hsl(180.0,100%,35%)" stroke-width="0.03515"></path>
<path d="M0.814 0.605 Q1.511 0.619 1.691 0.283" stroke="hsl(180.0,100%,35%)" stroke-width="0.01672"></path>
<path d="M0.814 0.605 Q1.356 0.826 1.906 0.610" stroke="hsl(180.0,100%,35%)" stroke-width="0.01029"></path>
<path d="M0.814 0.605 Q1.176 0.579 1.204 0.396" stroke="hsl(180.0,100%,35%)" stroke-width="0.00043"></path>
<path d="M0.814 0.605 Q1.290 0.745 1.667 0.544" stroke="hsl(180.0,100%,35%)" stroke-width="0.00043"></path>
<path d="M0.814 0.605 Q0.924 0.651 1.037 0.607" stroke="hsl(180.0,100%,35%)" stroke-width="0.00943"></path>
<path d="M0.814 0.605 Q1.377 0.615 1.520 0.343" stroke="hsl(180.0,100%,35%)" stroke-width="0.01629"></path>
<path d="M0.814 0.605 Q0.501 0.728 0.672 0.908" stroke="hsl(180.0,100%,35%)" stroke-width="0.00086"></path>
<path d="M0.814 0.605 Q0.947 0.846 1.445 0.834" stroke="hsl(180.0,100%,35%)" stroke-width="0.01200"></path>
<path d="M0.814 0.605 Q1.301 0.877 1.939 0.699" stroke="hsl(180.0,100%,35%)" stroke-width="0.00557"></path>
<path d="M0.814 0.605 Q0.889 0.419 0.542 0.342" stroke="hsl(180.0,100%,35%)" stroke-width="0.00043"></path>
<path d="M0.814 0.605 Q1.082 0.760 1.443 0.664" stroke="hsl(180.0,100%,35%)" stroke-width="0.00343"></path>
<path d="M0.814 0.605 Q0.762 0.831 1.192 0.906" stroke="hsl(180.0,100%,35%)" stroke-width="0.01843"></path>
<path d="M0.814 0.605 Q0.470 0.613 0.409 0.783" stroke="hsl(180.0,100%,35%)" stroke-width="0.00086"></path>
<path d="M0.814 0.605 Q1.056 0.439 0.786 0.285" stroke="hsl(180.0,100%,35%)" stroke-width="0.00129"></path>
<path d="M0.814 0.605 Q1.409 0.502 1.339 0.190" stroke="hsl(180.0,100%,35%)" stroke-width="0.00043"></path>
<path d="M0.814 0.605 Q0.702 0.574 0.617 0.622" stroke="hsl(180.0,100%,35%)" stroke-width="0.00043"></path>
<path d="M0.814 0.605 Q1.224 0.590 1.284 0.387" stroke="hsl(180.0,100%,35%)" stroke-width="0.00086"></path>
<path d="M0.814 0.605 Q1.089 0.461 0.868 0.295" stroke="hsl(180.0,100%,35%)" stroke-width="0.00043"></path>
<path d="M1.906 0.610 Q1.364 0.389 0.814 0.605" stroke="hsl(180.0,100%,35%)" stroke-width="0.00900"></path>
<path d="M1.906 0.610 Q1.496 0.630 1.445 0.834" stroke="hsl(180.0,100%,35%)" stroke-width="0.01672"></path>
<path d="M1.906 0.610 Q1.851 0.661 1.939 0.699" stroke="hsl(180.0,100%,35%)" stroke-width="0.00772"></path>
<path d="M1.906 0.610 Q1.682 0.608 1.629 0.716" stroke="hsl(180.0,100%,35%)" stroke-width="0.00043"></path>
<path d="M1.906 0.610 Q1.439 0.203 0.542 0.342" stroke="hsl(180.0,100%,35%)" stroke-width="0.00043"></path>
<path d="M1.906 0.610 Q1.926 0.400 1.520 0.343" stroke="hsl(180.0,100%,35%)" stroke-width="0.00300"></path>
<path d="M1.906 0.610 Q2.060 0.403 1.691 0.283" stroke="hsl(180.0,100%,35%)" stroke-width="0.00171"></path>
<path d="M1.906 0.610 Q1.579 0.367 1.033 0.473" stroke="hsl(180.0,100%,35%)" stroke-width="0.00472"></path>
<path d="M1.906 0.610 Q1.606 0.224 0.786 0.285" stroke="hsl(180.0,100%,35%)" stroke-width="0.00171"></path>
<path d="M1.906 0.610 Q1.474 0.435 1.037 0.607" stroke="hsl(180.0,100%,35%)" stroke-width="0.00086"></path>
<path d="M1.906 0.610 Q1.768 0.249 1.033 0.237" stroke="hsl(180.0,100%,35%)" stroke-width="0.00257"></path>
<path d="M1.906 0.610 Q1.839 0.529 1.667 0.544" stroke="hsl(180.0,100%,35%)" stroke-width="0.00129"></path>
<path d="M1.906 0.610 Q1.907 0.524 1.740 0.505" stroke="hsl(180.0,100%,35%)" stroke-width="0.00043"></path>
<path d="M1.906 0.610 Q1.996 0.500 1.801 0.432" stroke="hsl(180.0,100%,35%)" stroke-width="0.00043"></path>
<path d="M1.906 0.610 Q1.312 0.615 1.192 0.906" stroke="hsl(180.0,100%,35%)" stroke-width="0.00214"></path>
<path d="M1.906 0.610 Q1.249 0.534 0.957 0.838" stroke="hsl(180.0,100%,35%)" stroke-width="0.00043"></path>
<path d="M1.906 0.610 Q1.726 0.363 1.204 0.396" stroke="hsl(180.0,100%,35%)" stroke-width="0.00043"></path>
<path d="M1.445 0.834 Q1.875 0.604 1.520 0.343" stroke="hsl(180.0,100%,35%)" stroke-width="0.01243"></path>
<path d="M1.445 0.834 Q1.855 0.814 1.906 0.610" stroke="hsl(180.0,100%,35%)" stroke-width="0.00900"></path>
<path d="M1.445 0.834 Q1.313 0.593 0.814 0.605" stroke="hsl(180.0,100%,35%)" stroke-width="0.00900"></path>
<path d="M1.445 0.834 Q1.800 0.865 1.939 0.699" stroke="hsl(180.0,100%,35%)" stroke-width="0.00129"></path>
<path d="M1.445 0.834 Q2.009 0.607 1.691 0.283" stroke="hsl(180.0,100%,35%)" stroke-width="0.00300"></path>
<path d="M1.445 0.834 Q1.555 0.428 0.786 0.285" stroke="hsl(180.0,100%,35%)" stroke-width="0.00043"></path>
<path d="M1.445 0.834 Q1.261 0.819 1.192 0.906" stroke="hsl(180.0,100%,35%)" stroke-width="0.00472"></path>
<path d="M1.445 0.834 Q1.528 0.571 1.033 0.473" stroke="hsl(180.0,100%,35%)" stroke-width="0.01629"></path>
<path d="M1.445 0.834 Q0.955 0.424 0.046 0.573" stroke="hsl(180.0,100%,35%)" stroke-width="0.00043"></path>
<path d="M1.445 0.834 Q1.908 0.491 1.339 0.190" stroke="hsl(180.0,100%,35%)" stroke-width="0.00086"></path>
<path d="M1.445 0.834 Q1.423 0.639 1.037 0.607" stroke="hsl(180.0,100%,35%)" stroke-width="0.00043"></path>
<path d="M1.445 0.834 Q1.717 0.453 1.033 0.237" stroke="hsl(180.0,100%,35%)" stroke-width="0.00086"></path>
<path d="M1.445 0.834 Q1.703 0.725 1.548 0.576" stroke="hsl(180.0,100%,35%)" stroke-width="0.00043"></path>
<path d="M1.445 0.834 Q1.198 0.738 0.957 0.838" stroke="hsl(180.0,100%,35%)" stroke-width="0.00129"></path>
<path d="M1.445 0.834 Q1.788 0.733 1.667 0.544" stroke="hsl(180.0,100%,35%)" stroke-width="0.00043"></path>
<path d="M1.691 0.283 Q1.557 0.279 1.520 0.343" stroke="hsl(180.0,100%,35%)" stroke-width="0.01286"></path>
<path d="M1.691 0.283 Q0.995 0.269 0.814 0.605" stroke="hsl(180.0,100%,35%)" stroke-width="0.00171"></path>
<path d="M1.691 0.283 Q0.650 0.276 0.409 0.783" stroke="hsl(180.0,100%,35%)" stroke-width="0.00086"></path>
<path d="M1.691 0.283 Q1.210 0.246 1.033 0.473" stroke="hsl(180.0,100%,35%)" stroke-width="0.00986"></path>
<path d="M1.691 0.283 Q1.536 0.489 1.906 0.610" stroke="hsl(180.0,100%,35%)" stroke-width="0.00171"></path>
<path d="M1.691 0.283 Q1.127 0.509 1.445 0.834" stroke="hsl(180.0,100%,35%)" stroke-width="0.00257"></path>
<path d="M1.691 0.283 Q1.237 0.103 0.786 0.285" stroke="hsl(180.0,100%,35%)" stroke-width="0.00171"></path>
<path d="M1.691 0.283 Q1.398 0.128 1.033 0.237" stroke="hsl(180.0,100%,35%)" stroke-width="0.00129"></path>
<path d="M1.691 0.283 Q1.192 0.159 0.842 0.376" stroke="hsl(180.0,100%,35%)" stroke-width="0.00043"></path>
<path d="M1.691 0.283 Q0.943 0.495 1.192 0.906" stroke="hsl(180.0,100%,35%)" stroke-width="0.00214"></path>
<path d="M1.691 0.283 Q1.589 0.166 1.339 0.190" stroke="hsl(180.0,100%,35%)" stroke-width="0.00043"></path>
<path d="M1.691 0.283 Q0.879 0.414 0.957 0.838" stroke="hsl(180.0,100%,35%)" stroke-width="0.00043"></path>
<path d="M1.691 0.283 Q1.069 0.082 0.542 0.342" stroke="hsl(180.0,100%,35%)" stroke-width="0.00043"></path>
<path d="M1.691 0.283 Q1.875 0.212 1.778 0.107" stroke="hsl(180.0,100%,35%)" stroke-width="0.00043"></path>
<path d="M0.672 0.908 Q0.985 0.785 0.814 0.605" stroke="hsl(180.0,100%,35%)" stroke-width="0.00214"></path>
<path d="M0.672 0.908 Q1.200 0.763 1.033 0.473" stroke="hsl(180.0,100%,35%)" stroke-width="0.00086"></path>
<path d="M0.672 0.908 Q1.682 0.799 1.691 0.283" stroke="hsl(180.0,100%,35%)" stroke-width="0.00129"></path>
<path d="M0.672 0.908 Q0.933 1.011 1.192 0.906" stroke="hsl(180.0,100%,35%)" stroke-width="0.00129"></path>
<path d="M0.672 0.908 Q0.870 0.930 0.957 0.838" stroke="hsl(180.0,100%,35%)" stroke-width="0.00043"></path>
<path d="M0.672 0.908 Q1.472 1.057 1.939 0.699" stroke="hsl(180.0,100%,35%)" stroke-width="0.00086"></path>
<path d="M0.786 0.285 Q0.741 0.341 0.842 0.376" stroke="hsl(0.0,100%,35%)" stroke-width="0.00257"></path>
<path d="M0.786 0.285 Q0.619 0.265 0.542 0.342" stroke="hsl(0.0,100%,35%)" stroke-width="0.00857"></path>
<path d="M0.786 0.285 Q1.240 0.465 1.691 0.283" stroke="hsl(0.0,100%,35%)" stroke-width="0.00086"></path>
<path d="M0.786 0.285 Q0.544 0.451 0.814 0.605" stroke="hsl(0.0,100%,35%)" stroke-width="0.00086"></path>
<path d="M0.786 0.285 Q0.948 0.310 1.033 0.237" stroke="hsl(0.0,100%,35%)" stroke-width="0.01758"></path>
<path d="M0.786 0.285 Q0.759 0.428 1.033 0.473" stroke="hsl(0.0,100%,35%)" stroke-width="0.00129"></path>
<path d="M0.786 0.285 Q1.086 0.671 1.906 0.610" stroke="hsl(0.0,100%,35%)" stroke-width="0.00086"></path>
<path d="M0.786 0.285 Q0.906 0.424 1.204 0.396" stroke="hsl(0.0,100%,35%)" stroke-width="0.00043"></path>
<path d="M0.786 0.285 Q0.199 0.458 0.409 0.783" stroke="hsl(0.0,100%,35%)" stroke-width="0.00043"></path>
<path d="M0.786 0.285 Q1.020 0.591 1.667 0.544" stroke="hsl(0.0,100%,35%)" stroke-width="0.00043"></path>
<path d="M0.786 0.285 Q0.492 0.677 1.192 0.906" stroke="hsl(0.0,100%,35%)" stroke-width="0.00043"></path>
<path d="M0.786 0.285 Q0.473 0.218 0.274 0.356" stroke="hsl(0.0,100%,35%)" stroke-width="0.00043"></path>
<path d="M1.939 0.699 Q1.451 0.427 0.814 0.605" stroke="hsl(180.0,100%,35%)" stroke-width="0.00857"></path>
<path d="M1.939 0.699 Q2.148 0.441 1.691 0.283" stroke="hsl(180.0,100%,35%)" stroke-width="0.00086"></path>
<path d="M1.939 0.699 Q1.927 0.567 1.667 0.544" stroke="hsl(180.0,100%,35%)" stroke-width="0.00043"></path>
<path d="M1.939 0.699 Q2.014 0.437 1.520 0.343" stroke="hsl(180.0,100%,35%)" stroke-width="0.00300"></path>
<path d="M1.939 0.699 Q1.526 0.241 0.542 0.342" stroke="hsl(180.0,100%,35%)" stroke-width="0.00086"></path>
<path d="M1.939 0.699 Q1.107 0.435 0.409 0.783" stroke="hsl(180.0,100%,35%)" stroke-width="0.00043"></path>
<path d="M1.939 0.699 Q1.666 0.405 1.033 0.473" stroke="hsl(180.0,100%,35%)" stroke-width="0.00043"></path>
<path d="M1.939 0.699 Q1.993 0.648 1.906 0.610" stroke="hsl(180.0,100%,35%)" stroke-width="0.02100"></path>
<path d="M1.939 0.699 Q1.584 0.668 1.445 0.834" stroke="hsl(180.0,100%,35%)" stroke-width="0.00257"></path>
<path d="M1.939 0.699 Q1.719 0.582 1.443 0.664" stroke="hsl(180.0,100%,35%)" stroke-width="0.00043"></path>
<path d="M1.939 0.699 Q1.400 0.653 1.192 0.906" stroke="hsl(180.0,100%,35%)" stroke-width="0.00086"></path>
<path d="M1.939 0.699 Q1.138 0.550 0.672 0.908" stroke="hsl(180.0,100%,35%)" stroke-width="0.00043"></path>
<path d="M1.939 0.699 Q1.855 0.287 1.033 0.237" stroke="hsl(180.0,100%,35%)" stroke-width="0.00129"></path>
<path d="M1.939 0.699 Q2.046 0.324 1.339 0.190" stroke="hsl(180.0,100%,35%)" stroke-width="0.00043"></path>
<path d="M1.939 0.699 Q1.694 0.261 0.786 0.285" stroke="hsl(180.0,100%,35%)" stroke-width="0.00043"></path>
<path d="M1.037 0.607 Q1.469 0.782 1.906 0.610" stroke="hsl(180.0,100%,35%)" stroke-width="0.00257"></path>
<path d="M1.037 0.607 Q0.927 0.562 0.814 0.605" stroke="hsl(180.0,100%,35%)" stroke-width="0.00171"></path>
<path d="M1.037 0.607 Q0.613 0.685 0.672 0.908" stroke="hsl(180.0,100%,35%)" stroke-width="0.00043"></path>
<path d="M1.037 0.607 Q1.489 0.572 1.520 0.343" stroke="hsl(180.0,100%,35%)" stroke-width="0.00086"></path>
<path d="M1.037 0.607 Q0.875 0.788 1.192 0.906" stroke="hsl(180.0,100%,35%)" stroke-width="0.00086"></path>
<path d="M1.037 0.607 Q1.414 0.833 1.939 0.699" stroke="hsl(180.0,100%,35%)" stroke-width="0.00129"></path>
<path d="M1.037 0.607 Q1.623 0.576 1.691 0.283" stroke="hsl(180.0,100%,35%)" stroke-width="0.00043"></path>
<path d="M1.037 0.607 Q1.402 0.701 1.667 0.544" stroke="hsl(180.0,100%,35%)" stroke-width="0.00043"></path>
<path d="M1.037 0.607 Q1.142 0.539 1.033 0.473" stroke="hsl(180.0,100%,35%)" stroke-width="0.00043"></path>
<path d="M1.037 0.607 Q1.331 0.421 1.033 0.237" stroke="hsl(180.0,100%,35%)" stroke-width="0.00043"></path>
<path d="M1.037 0.607 Q1.522 0.459 1.339 0.190" stroke="hsl(180.0,100%,35%)" stroke-width="0.00043"></path>
<path d="M1.443 0.664 Q1.662 0.781 1.939 0.699" stroke="hsl(180.0,100%,35%)" stroke-width="0.00429"></path>
<path d="M1.443 0.664 Q1.738 0.519 1.520 0.343" stroke="hsl(180.0,100%,35%)" stroke-width="0.00043"></path>
<path d="M1.443 0.664 Q1.872 0.523 1.691 0.283" stroke="hsl(180.0,100%,35%)" stroke-width="0.00043"></path>
<path d="M1.520 0.343 Q1.090 0.574 1.445 0.834" stroke="hsl(180.0,100%,35%)" stroke-width="0.00086"></path>
<path d="M1.520 0.343 Q1.173 0.311 1.033 0.473" stroke="hsl(180.0,100%,35%)" stroke-width="0.00386"></path>
<path d="M1.520 0.343 Q1.654 0.347 1.691 0.283" stroke="hsl(180.0,100%,35%)" stroke-width="0.01457"></path>
<path d="M1.520 0.343 Q0.906 0.559 1.192 0.906" stroke="hsl(180.0,100%,35%)" stroke-width="0.00086"></path>
<path d="M1.520 0.343 Q0.958 0.333 0.814 0.605" stroke="hsl(180.0,100%,35%)" stroke-width="0.00386"></path>
<path d="M1.520 0.343 Q1.445 0.605 1.939 0.699" stroke="hsl(180.0,100%,35%)" stroke-width="0.00086"></path>
<path d="M1.520 0.343 Q1.282 0.077 0.710 0.134" stroke="hsl(180.0,100%,35%)" stroke-width="0.00043"></path>
<path d="M1.520 0.343 Q1.552 0.230 1.339 0.190" stroke="hsl(180.0,100%,35%)" stroke-width="0.00171"></path>
<path d="M1.520 0.343 Q1.361 0.193 1.033 0.237" stroke="hsl(180.0,100%,35%)" stroke-width="0.00043"></path>
<path d="M1.520 0.343 Q1.631 0.216 1.406 0.134" stroke="hsl(180.0,100%,35%)" stroke-width="0.00086"></path>
<path d="M0.957 0.838 Q1.020 0.919 1.192 0.906" stroke="hsl(180.0,100%,35%)" stroke-width="0.00343"></path>
<path d="M0.957 0.838 Q0.759 0.816 0.672 0.908" stroke="hsl(180.0,100%,35%)" stroke-width="0.00043"></path>
<path d="M0.957 0.838 Q1.287 0.671 1.033 0.473" stroke="hsl(180.0,100%,35%)" stroke-width="0.00043"></path>
<path d="M0.957 0.838 Q1.559 0.965 1.939 0.699" stroke="hsl(180.0,100%,35%)" stroke-width="0.00043"></path>
<path d="M0.957 0.838 Q1.205 0.934 1.445 0.834" stroke="hsl(180.0,100%,35%)" stroke-width="0.00086"></path>
<path d="M0.957 0.838 Q1.182 0.739 1.037 0.607" stroke="hsl(180.0,100%,35%)" stroke-width="0.00043"></path>
<path d="M0.957 0.838 Q1.768 0.707 1.691 0.283" stroke="hsl(180.0,100%,35%)" stroke-width="0.00043"></path>
<path d="M0.274 0.356 Q0.293 0.815 1.192 0.906" stroke="hsl(0.0,100%,35%)" stroke-width="0.00514"></path>
<path d="M0.274 0.356 Q0.420 0.403 0.542 0.342" stroke="hsl(0.0,100%,35%)" stroke-width="0.00857"></path>
<path d="M0.274 0.356 Q0.669 0.332 0.710 0.134" stroke="hsl(0.0,100%,35%)" stroke-width="0.00043"></path>
<path d="M0.274 0.356 Q0.832 0.860 1.939 0.699" stroke="hsl(0.0,100%,35%)" stroke-width="0.00514"></path>
<path d="M0.274 0.356 Q0.749 0.448 1.033 0.237" stroke="hsl(0.0,100%,35%)" stroke-width="0.00129"></path>
<path d="M0.274 0.356 Q0.587 0.423 0.786 0.285" stroke="hsl(0.0,100%,35%)" stroke-width="0.00043"></path>
<path d="M0.274 0.356 Q0.560 0.566 1.033 0.473" stroke="hsl(0.0,100%,35%)" stroke-width="0.00043"></path>
<path d="M0.274 0.356 Q0.477 0.829 1.445 0.834" stroke="hsl(0.0,100%,35%)" stroke-width="0.00043"></path>
<path d="M0.842 0.376 Q0.886 0.319 0.786 0.285" stroke="hsl(0.0,100%,35%)" stroke-width="0.00900"></path>
<path d="M0.842 0.376 Q0.644 0.485 0.814 0.605" stroke="hsl(0.0,100%,35%)" stroke-width="0.00043"></path>
<path d="M0.842 0.376 Q1.341 0.499 1.691 0.283" stroke="hsl(0.0,100%,35%)" stroke-width="0.00043"></path>
<path d="M0.842 0.376 Q0.719 0.299 0.542 0.342" stroke="hsl(0.0,100%,35%)" stroke-width="0.00643"></path>
<path d="M0.842 0.376 Q1.048 0.344 1.033 0.237" stroke="hsl(0.0,100%,35%)" stroke-width="0.01115"></path>
<path d="M0.542 0.342 Q0.710 0.362 0.786 0.285" stroke="hsl(0.0,100%,35%)" stroke-width="0.00343"></path>
<path d="M0.542 0.342 Q0.665 0.419 0.842 0.376" stroke="hsl(0.0,100%,35%)" stroke-width="0.00171"></path>
<path d="M0.542 0.342 Q0.871 0.387 1.033 0.237" stroke="hsl(0.0,100%,35%)" stroke-width="0.00343"></path>
<path d="M0.542 0.342 Q0.467 0.528 0.814 0.605" stroke="hsl(0.0,100%,35%)" stroke-width="0.00086"></path>
<path d="M0.542 0.342 Q0.792 0.271 0.710 0.134" stroke="hsl(0.0,100%,35%)" stroke-width="0.00043"></path>
<path d="M1.284 0.301 Q1.502 0.373 1.691 0.283" stroke="hsl(180.0,100%,35%)" stroke-width="0.00129"></path>
<path d="M1.284 0.301 Q0.938 0.600 1.445 0.834" stroke="hsl(180.0,100%,35%)" stroke-width="0.00043"></path>
<path d="M1.284 0.301 Q0.754 0.585 1.192 0.906" stroke="hsl(180.0,100%,35%)" stroke-width="0.00043"></path>
<path d="M0.409 0.783 Q0.951 0.666 0.842 0.376" stroke="hsl(0.0,100%,35%)" stroke-width="0.00129"></path>
<path d="M0.409 0.783 Q1.241 1.047 1.939 0.699" stroke="hsl(0.0,100%,35%)" stroke-width="0.00043"></path>
<path d="M0.409 0.783 Q0.702 1.001 1.192 0.906" stroke="hsl(0.0,100%,35%)" stroke-width="0.00043"></path>
<path d="M0.409 0.783 Q0.753 0.775 0.814 0.605" stroke="hsl(0.0,100%,35%)" stroke-width="0.00129"></path>
<path d="M0.409 0.783 Q0.968 0.753 1.033 0.473" stroke="hsl(0.0,100%,35%)" stroke-width="0.00043"></path>
<path d="M0.409 0.783 Q1.232 0.717 1.284 0.301" stroke="hsl(0.0,100%,35%)" stroke-width="0.00043"></path>
<path d="M0.409 0.783 Q1.229 0.915 1.667 0.544" stroke="hsl(0.0,100%,35%)" stroke-width="0.00043"></path>
<path d="M0.409 0.783 Q1.157 0.634 1.033 0.237" stroke="hsl(0.0,100%,35%)" stroke-width="0.00043"></path>
<path d="M1.667 0.544 Q1.192 0.404 0.814 0.605" stroke="hsl(180.0,100%,35%)" stroke-width="0.00086"></path>
<path d="M1.667 0.544 Q1.786 0.301 1.339 0.190" stroke="hsl(180.0,100%,35%)" stroke-width="0.00086"></path>
<path d="M1.667 0.544 Q1.582 0.536 1.548 0.576" stroke="hsl(180.0,100%,35%)" stroke-width="0.00086"></path>
<path d="M1.667 0.544 Q1.733 0.625 1.906 0.610" stroke="hsl(180.0,100%,35%)" stroke-width="0.00514"></path>
<path d="M1.667 0.544 Q1.324 0.645 1.445 0.834" stroke="hsl(180.0,100%,35%)" stroke-width="0.00300"></path>
<path d="M1.667 0.544 Q1.434 0.238 0.786 0.285" stroke="hsl(180.0,100%,35%)" stroke-width="0.00043"></path>
<path d="M1.667 0.544 Q1.407 0.382 1.033 0.473" stroke="hsl(180.0,100%,35%)" stroke-width="0.00386"></path>
<path d="M1.667 0.544 Q1.679 0.676 1.939 0.699" stroke="hsl(180.0,100%,35%)" stroke-width="0.00086"></path>
<path d="M1.667 0.544 Q1.604 0.586 1.672 0.626" stroke="hsl(180.0,100%,35%)" stroke-width="0.00043"></path>
<path d="M1.667 0.544 Q0.847 0.412 0.409 0.783" stroke="hsl(180.0,100%,35%)" stroke-width="0.00043"></path>
<path d="M1.667 0.544 Q1.601 0.389 1.284 0.387" stroke="hsl(180.0,100%,35%)" stroke-width="0.00043"></path>
<path d="M1.667 0.544 Q0.878 0.527 0.672 0.908" stroke="hsl(180.0,100%,35%)" stroke-width="0.00043"></path>
<path d="M0.046 0.573 Q-0.005 0.648 0.130 0.690" stroke="hsl(0.0,100%,35%)" stroke-width="0.00214"></path>
<path d="M0.046 0.573 Q0.729 0.486 0.710 0.134" stroke="hsl(0.0,100%,35%)" stroke-width="0.00257"></path>
<path d="M0.046 0.573 Q0.767 0.716 1.204 0.396" stroke="hsl(0.0,100%,35%)" stroke-width="0.00086"></path>
<path d="M0.046 0.573 Q0.353 0.969 1.192 0.906" stroke="hsl(0.0,100%,35%)" stroke-width="0.00129"></path>
<path d="M1.046 0.558 Q0.892 0.535 0.814 0.605" stroke="hsl(180.0,100%,35%)" stroke-width="0.00043"></path>
<path d="M1.046 0.558 Q1.368 0.675 1.667 0.544" stroke="hsl(180.0,100%,35%)" stroke-width="0.00043"></path>
<path d="M1.046 0.558 Q1.296 0.395 1.033 0.237" stroke="hsl(180.0,100%,35%)" stroke-width="0.00043"></path>
<path d="M1.339 0.190 Q1.441 0.307 1.691 0.283" stroke="hsl(180.0,100%,35%)" stroke-width="0.00386"></path>
<path d="M1.339 0.190 Q1.307 0.303 1.520 0.343" stroke="hsl(180.0,100%,35%)" stroke-width="0.00214"></path>
<path d="M1.339 0.190 Q0.877 0.533 1.445 0.834" stroke="hsl(180.0,100%,35%)" stroke-width="0.00043"></path>
<path d="M1.339 0.190 Q0.959 0.270 1.033 0.473" stroke="hsl(180.0,100%,35%)" stroke-width="0.00043"></path>
<path d="M1.339 0.190 Q0.819 0.106 0.542 0.342" stroke="hsl(180.0,100%,35%)" stroke-width="0.00043"></path>
<path d="M1.339 0.190 Q1.231 0.564 1.939 0.699" stroke="hsl(180.0,100%,35%)" stroke-width="0.00043"></path>
<path d="M1.339 0.190 Q1.418 0.175 1.406 0.134" stroke="hsl(180.0,100%,35%)" stroke-width="0.00043"></path>
<path d="M1.406 0.134 Q0.948 0.229 1.033 0.473" stroke="hsl(180.0,100%,35%)" stroke-width="0.00129"></path>
<path d="M1.406 0.134 Q1.429 0.265 1.691 0.283" stroke="hsl(180.0,100%,35%)" stroke-width="0.00343"></path>
<path d="M1.406 0.134 Q1.298 0.095 1.199 0.139" stroke="hsl(180.0,100%,35%)" stroke-width="0.00129"></path>
<path d="M1.406 0.134 Q1.137 0.110 1.033 0.237" stroke="hsl(180.0,100%,35%)" stroke-width="0.00086"></path>
<path d="M1.406 0.134 Q0.389 0.259 0.409 0.783" stroke="hsl(180.0,100%,35%)" stroke-width="0.00043"></path>
<path d="M1.406 0.134 Q0.866 0.492 1.445 0.834" stroke="hsl(180.0,100%,35%)" stroke-width="0.00043"></path>
<path d="M0.467 0.920 Q1.025 1.072 1.445 0.834" stroke="hsl(180.0,100%,35%)" stroke-width="0.00043"></path>
<path d="M0.467 0.920 Q1.254 0.805 1.204 0.396" stroke="hsl(180.0,100%,35%)" stroke-width="0.00043"></path>
<path d="M0.467 0.920 Q1.434 1.053 1.906 0.610" stroke="hsl(180.0,100%,35%)" stroke-width="0.00043"></path>
<path d="M0.467 0.920 Q0.892 0.832 0.814 0.605" stroke="hsl(180.0,100%,35%)" stroke-width="0.00043"></path>
<path d="M0.467 0.920 Q0.548 0.839 0.409 0.783" stroke="hsl(180.0,100%,35%)" stroke-width="0.00086"></path>
<path d="M0.467 0.920 Q1.107 0.809 1.033 0.473" stroke="hsl(180.0,100%,35%)" stroke-width="0.00043"></path>
<path d="M0.467 0.920 Q0.840 1.058 1.192 0.906" stroke="hsl(180.0,100%,35%)" stroke-width="0.00043"></path>
<path d="M0.467 0.920 Q1.090 0.723 0.842 0.376" stroke="hsl(180.0,100%,35%)" stroke-width="0.00043"></path>
<path d="M1.435 0.950 Q1.942 0.874 1.906 0.610" stroke="hsl(180.0,100%,35%)" stroke-width="0.00129"></path>
<path d="M1.435 0.950 Q1.563 0.987 1.664 0.933" stroke="hsl(180.0,100%,35%)" stroke-width="0.00043"></path>
<path d="M1.435 0.950 Q1.519 0.974 1.584 0.939" stroke="hsl(180.0,100%,35%)" stroke-width="0.00043"></path>
<path d="M1.435 0.950 Q1.458 0.981 1.523 0.977" stroke="hsl(180.0,100%,35%)" stroke-width="0.00043"></path>
<path d="M1.435 0.950 Q1.763 0.627 1.204 0.396" stroke="hsl(180.0,100%,35%)" stroke-width="0.00043"></path>
<path d="M1.435 0.950 Q1.661 0.947 1.703 0.836" stroke="hsl(180.0,100%,35%)" stroke-width="0.00043"></path>
<path d="M1.211 0.711 Q1.230 0.819 1.445 0.834" stroke="hsl(180.0,100%,35%)" stroke-width="0.00214"></path>
<path d="M1.211 0.711 Q1.460 0.552 1.204 0.396" stroke="hsl(180.0,100%,35%)" stroke-width="0.00043"></path>
<path d="M1.211 0.711 Q1.639 0.799 1.906 0.610" stroke="hsl(180.0,100%,35%)" stroke-width="0.00086"></path>
<path d="M1.211 0.711 Q1.692 0.476 1.339 0.190" stroke="hsl(180.0,100%,35%)" stroke-width="0.00043"></path>
<path d="M1.211 0.711 Q1.045 0.805 1.192 0.906" stroke="hsl(180.0,100%,35%)" stroke-width="0.00043"></path>
<path d="M1.778 0.107 Q1.030 0.404 1.445 0.834" stroke="hsl(180.0,100%,35%)" stroke-width="0.00171"></path>
<path d="M1.778 0.107 Q1.634 0.275 1.929 0.382" stroke="hsl(180.0,100%,35%)" stroke-width="0.00043"></path>
<path d="M1.778 0.107 Q1.439 0.384 1.906 0.610" stroke="hsl(180.0,100%,35%)" stroke-width="0.00129"></path>
<path d="M1.778 0.107 Q1.297 0.179 1.332 0.429" stroke="hsl(180.0,100%,35%)" stroke-width="0.00043"></path>
<path d="M1.778 0.107 Q1.113 0.141 1.033 0.473" stroke="hsl(180.0,100%,35%)" stroke-width="0.00043"></path>
<path d="M1.929 0.382 Q2.074 0.214 1.778 0.107" stroke="hsl(180.0,100%,35%)" stroke-width="0.00214"></path>
<path d="M1.929 0.382 Q1.326 0.511 1.445 0.834" stroke="hsl(180.0,100%,35%)" stroke-width="0.00171"></path>
<path d="M1.929 0.382 Q1.408 0.248 1.033 0.473" stroke="hsl(180.0,100%,35%)" stroke-width="0.00043"></path>
<path d="M1.929 0.382 Q1.735 0.491 1.906 0.610" stroke="hsl(180.0,100%,35%)" stroke-width="0.00043"></path>
<path d="M1.912 0.285 Q1.843 0.337 1.929 0.382" stroke="hsl(180.0,100%,35%)" stroke-width="0.00214"></path>
<path d="M1.912 0.285 Q1.988 0.169 1.778 0.107" stroke="hsl(180.0,100%,35%)" stroke-width="0.00214"></path>
<path d="M1.912 0.285 Q1.273 -0.072 0.435 0.161" stroke="hsl(180.0,100%,35%)" stroke-width="0.00043"></path>
<path d="M1.912 0.285 Q1.240 0.466 1.445 0.834" stroke="hsl(180.0,100%,35%)" stroke-width="0.00129"></path>
<path d="M1.912 0.285 Q1.649 0.446 1.906 0.610" stroke="hsl(180.0,100%,35%)" stroke-width="0.00129"></path>
<path d="M1.912 0.285 Q1.374 -0.101 0.502 0.077" stroke="hsl(180.0,100%,35%)" stroke-width="0.00043"></path>
<path d="M0.435 0.161 Q0.402 0.700 1.445 0.834" stroke="hsl(180.0,100%,35%)" stroke-width="0.00043"></path>
<path d="M0.435 0.161 Q0.537 0.132 0.502 0.077" stroke="hsl(180.0,100%,35%)" stroke-width="0.00043"></path>
<path d="M0.435 0.161 Q0.423 0.110 0.320 0.105" stroke="hsl(180.0,100%,35%)" stroke-width="0.00043"></path>
<path d="M0.435 0.161 Q0.338 0.112 0.220 0.148" stroke="hsl(180.0,100%,35%)" stroke-width="0.00043"></path>
<path d="M1.237 0.342 Q1.030 0.366 1.033 0.473" stroke="hsl(180.0,100%,35%)" stroke-width="0.00043"></path>
<path d="M1.237 0.342 Q1.357 0.610 1.906 0.610" stroke="hsl(180.0,100%,35%)" stroke-width="0.00043"></path>
<path d="M1.237 0.342 Q1.689 0.392 1.886 0.183" stroke="hsl(180.0,100%,35%)" stroke-width="0.00043"></path>
<path d="M1.886 0.183 Q1.145 0.420 1.445 0.834" stroke="hsl(180.0,100%,35%)" stroke-width="0.00043"></path>
<path d="M1.886 0.183 Q1.893 0.123 1.778 0.107" stroke="hsl(180.0,100%,35%)" stroke-width="0.00086"></path>
<path d="M1.886 0.183 Q1.412 0.195 1.332 0.429" stroke="hsl(180.0,100%,35%)" stroke-width="0.00086"></path>
<path d="M1.886 0.183 Q1.554 0.400 1.906 0.610" stroke="hsl(180.0,100%,35%)" stroke-width="0.00043"></path>
<path d="M1.194 0.688 Q1.203 0.811 1.445 0.834" stroke="hsl(180.0,100%,35%)" stroke-width="0.00214"></path>
<path d="M1.194 0.688 Q1.612 0.791 1.906 0.610" stroke="hsl(180.0,100%,35%)" stroke-width="0.00129"></path>
<path d="M1.194 0.688 Q1.951 0.514 1.778 0.107" stroke="hsl(180.0,100%,35%)" stroke-width="0.00086"></path>
<path d="M0.865 0.383 Q0.877 0.462 1.033 0.473" stroke="hsl(180.0,100%,35%)" stroke-width="0.00171"></path>
<path d="M0.865 0.383 Q0.662 0.484 0.814 0.605" stroke="hsl(180.0,100%,35%)" stroke-width="0.00043"></path>
<path d="M0.865 0.383 Q0.772 0.529 1.037 0.607" stroke="hsl(180.0,100%,35%)" stroke-width="0.00043"></path>
<path d="M1.629 0.716 Q1.852 0.718 1.906 0.610" stroke="hsl(180.0,100%,35%)" stroke-width="0.00472"></path>
<path d="M1.629 0.716 Q1.701 0.630 1.548 0.576" stroke="hsl(180.0,100%,35%)" stroke-width="0.00043"></path>
<path d="M1.629 0.716 Q1.526 0.475 1.033 0.473" stroke="hsl(180.0,100%,35%)" stroke-width="0.00086"></path>
<path d="M1.629 0.716 Q1.443 0.738 1.445 0.834" stroke="hsl(180.0,100%,35%)" stroke-width="0.00043"></path>
<path d="M1.583 0.618 Q0.895 0.581 0.672 0.908" stroke="hsl(180.0,100%,35%)" stroke-width="0.00043"></path>
<path d="M1.583 0.618 Q1.751 0.678 1.906 0.610" stroke="hsl(180.0,100%,35%)" stroke-width="0.00043"></path>
<path d="M1.583 0.618 Q1.613 0.317 1.033 0.237" stroke="hsl(180.0,100%,35%)" stroke-width="0.00043"></path>
<path d="M0.320 0.105 Q0.300 0.695 1.445 0.834" stroke="hsl(180.0,100%,35%)" stroke-width="0.00129"></path>
<path d="M0.320 0.105 Q0.235 0.107 0.220 0.148" stroke="hsl(180.0,100%,35%)" stroke-width="0.00129"></path>
<path d="M0.320 0.105 Q0.333 0.156 0.435 0.161" stroke="hsl(180.0,100%,35%)" stroke-width="0.00086"></path>
<path d="M0.320 0.105 Q0.115 0.680 1.192 0.906" stroke="hsl(180.0,100%,35%)" stroke-width="0.00043"></path>
<path d="M1.439 0.442 Q1.538 0.619 1.906 0.610" stroke="hsl(180.0,100%,35%)" stroke-width="0.00086"></path>
<path d="M1.439 0.442 Q1.396 0.414 1.332 0.429" stroke="hsl(180.0,100%,35%)" stroke-width="0.00086"></path>
<path d="M1.439 0.442 Q1.877 0.342 1.778 0.107" stroke="hsl(180.0,100%,35%)" stroke-width="0.00043"></path>
<path d="M1.107 0.763 Q1.086 0.625 0.814 0.605" stroke="hsl(180.0,100%,35%)" stroke-width="0.00043"></path>
<path d="M1.107 0.763 Q1.649 0.636 1.520 0.343" stroke="hsl(180.0,100%,35%)" stroke-width="0.00043"></path>
<path d="M1.107 0.763 Q1.035 0.851 1.192 0.906" stroke="hsl(180.0,100%,35%)" stroke-width="0.00043"></path>
<path d="M0.337 0.583 Q0.882 0.433 0.710 0.134" stroke="hsl(0.0,100%,35%)" stroke-width="0.00043"></path>
<path d="M0.337 0.583 Q0.148 0.595 0.130 0.690" stroke="hsl(0.0,100%,35%)" stroke-width="0.00043"></path>
<path d="M0.337 0.583 Q0.962 0.549 1.033 0.237" stroke="hsl(0.0,100%,35%)" stroke-width="0.00043"></path>
<path d="M0.337 0.583 Q0.506 0.916 1.192 0.906" stroke="hsl(0.0,100%,35%)" stroke-width="0.00043"></path>
<path d="M0.337 0.583 Q0.773 0.667 1.033 0.473" stroke="hsl(0.0,100%,35%)" stroke-width="0.00043"></path>
<path d="M0.337 0.583 Q0.558 0.690 0.814 0.605" stroke="hsl(0.0,100%,35%)" stroke-width="0.00043"></path>
</g>
<text x="0.915" y="0.027" font-size="0.005739" fill="hsl(0.0,100%,20%)">alexnj</text>
<text x="0.710" y="0.123" font-size="0.022225" fill="hsl(0.0,100%,20%)">paulirish</text>
<text x="1.033" y="0.210" font-size="0.052699" fill="hsl(0.0,100%,20%)">jacktfranklin</text>
<text x="1.192" y="0.878" font-size="0.055440" fill="hsl(180.0,100%,20%)">alexrudenko</text>
<text x="1.033" y="0.441" font-size="0.063902" fill="hsl(180.0,100%,20%)">szuend</text>
<text x="0.814" y="0.571" font-size="0.069339" fill="hsl(180.0,100%,20%)">bmeurer</text>
<text x="1.906" y="0.581" font-size="0.058146" fill="hsl(180.0,100%,20%)">wolfi</text>
<text x="1.445" y="0.803" font-size="0.061806" fill="hsl(180.0,100%,20%)">dsv</text>
<text x="1.691" y="0.257" font-size="0.050355" fill="hsl(180.0,100%,20%)">pfaffe</text>
<text x="0.672" y="0.898" font-size="0.019601" fill="hsl(180.0,100%,20%)">nvitkov</text>
<text x="0.786" y="0.260" font-size="0.050137" fill="hsl(0.0,100%,20%)">andoli</text>
<text x="1.939" y="0.677" font-size="0.043325" fill="hsl(180.0,100%,20%)">kprokopenko</text>
<text x="1.037" y="0.593" font-size="0.027321" fill="hsl(180.0,100%,20%)">yangguo</text>
<text x="1.443" y="0.656" font-size="0.015540" fill="hsl(180.0,100%,20%)">petermueller</text>
<text x="1.012" y="0.770" font-size="0.003313" fill="hsl(180.0,100%,20%)">tperrotta</text>
<text x="1.520" y="0.321" font-size="0.045428" fill="hsl(180.0,100%,20%)">ergunsh</text>
<text x="0.957" y="0.830" font-size="0.015889" fill="hsl(180.0,100%,20%)">jrandolf</text>
<text x="1.204" y="0.390" font-size="0.013253" fill="hsl(180.0,100%,20%)">mathias</text>
<text x="0.274" y="0.344" font-size="0.024347" fill="hsl(0.0,100%,20%)">hadrienjaubert</text>
<text x="0.842" y="0.360" font-size="0.030546" fill="hsl(0.0,100%,20%)">alinavarkki</text>
<text x="0.542" y="0.325" font-size="0.032965" fill="hsl(0.0,100%,20%)">nancyly</text>
<text x="1.284" y="0.297" font-size="0.008116" fill="hsl(180.0,100%,20%)">almuthanna</text>
<text x="0.409" y="0.775" font-size="0.015540" fill="hsl(0.0,100%,20%)">leese</text>
<text x="1.667" y="0.532" font-size="0.023661" fill="hsl(180.0,100%,20%)">jec</text>
<text x="0.046" y="0.566" font-size="0.013660" fill="hsl(0.0,100%,20%)">asraine</text>
<text x="0.130" y="0.686" font-size="0.008116" fill="hsl(0.0,100%,20%)">cjamcl</text>
<text x="1.046" y="0.555" font-size="0.005739" fill="hsl(180.0,100%,20%)">barrypollard</text>
<text x="1.339" y="0.180" font-size="0.018742" fill="hsl(180.0,100%,20%)">changhaohan</text>
<text x="0.617" y="0.620" font-size="0.004685" fill="hsl(180.0,100%,20%)">caseq</text>
<text x="1.284" y="0.379" font-size="0.015183" fill="hsl(180.0,100%,20%)">jarin</text>
<text x="0.868" y="0.291" font-size="0.007408" fill="hsl(0.0,100%,20%)">victorporof</text>
<text x="1.406" y="0.126" font-size="0.015183" fill="hsl(180.0,100%,20%)">liviurau</text>
<text x="0.467" y="0.915" font-size="0.009939" fill="hsl(180.0,100%,20%)">chrche</text>
<text x="1.548" y="0.572" font-size="0.006626" fill="hsl(180.0,100%,20%)">semel</text>
<text x="1.435" y="0.945" font-size="0.009371" fill="hsl(180.0,100%,20%)">fluorescent.hallucinogen</text>
<text x="1.664" y="0.932" font-size="0.003313" fill="hsl(180.0,100%,20%)">dibyapal</text>
<text x="1.584" y="0.937" font-size="0.003313" fill="hsl(180.0,100%,20%)">hartmanng</text>
<text x="1.523" y="0.975" font-size="0.003313" fill="hsl(180.0,100%,20%)">scheib</text>
<text x="1.703" y="0.834" font-size="0.003313" fill="hsl(180.0,100%,20%)">finnur</text>
<text x="1.672" y="0.624" font-size="0.003313" fill="hsl(180.0,100%,20%)">tomac</text>
<text x="1.211" y="0.706" font-size="0.010477" fill="hsl(180.0,100%,20%)">jimmyseto</text>
<text x="1.778" y="0.098" font-size="0.016894" fill="hsl(180.0,100%,20%)">kenoss</text>
<text x="1.929" y="0.375" font-size="0.013660" fill="hsl(180.0,100%,20%)">lingqi</text>
<text x="1.332" y="0.425" font-size="0.007408" fill="hsl(180.0,100%,20%)">domenic</text>
<text x="1.199" y="0.137" font-size="0.005739" fill="hsl(0.0,100%,20%)">machenbach</text>
<text x="1.912" y="0.278" font-size="0.014056" fill="hsl(180.0,100%,20%)">miinak</text>
<text x="0.435" y="0.157" font-size="0.008766" fill="hsl(180.0,100%,20%)">sisidovski</text>
<text x="0.502" y="0.074" font-size="0.004685" fill="hsl(180.0,100%,20%)">kouhei</text>
<text x="1.237" y="0.339" font-size="0.005739" fill="hsl(180.0,100%,20%)">morlovich</text>
<text x="1.886" y="0.178" font-size="0.008766" fill="hsl(180.0,100%,20%)">nhiroki</text>
<text x="1.194" y="0.683" font-size="0.010477" fill="hsl(180.0,100%,20%)">robertlin</text>
<text x="0.865" y="0.379" font-size="0.008116" fill="hsl(180.0,100%,20%)">seth.brenith</text>
<text x="1.629" y="0.710" font-size="0.013253" fill="hsl(180.0,100%,20%)">shuuran</text>
<text x="1.583" y="0.615" font-size="0.005739" fill="hsl(180.0,100%,20%)">silviaeremia</text>
<text x="0.320" y="0.100" font-size="0.010477" fill="hsl(180.0,100%,20%)">tnak</text>
<text x="0.220" y="0.145" font-size="0.006626" fill="hsl(180.0,100%,20%)">yyanagisawa</text>
<text x="1.439" y="0.438" font-size="0.007408" fill="hsl(180.0,100%,20%)">taiyo</text>
<text x="1.107" y="0.760" font-size="0.005739" fill="hsl(180.0,100%,20%)">tkent</text>
<text x="0.337" y="0.579" font-size="0.008116" fill="hsl(0.0,100%,20%)">vidorteg</text>
<text x="1.740" y="0.503" font-size="0.003313" fill="hsl(180.0,100%,20%)">mathiasb</text>
<text x="1.801" y="0.430" font-size="0.003313" fill="hsl(180.0,100%,20%)">tsepez</text>
</svg>
