<svg width="4000" height="2000" viewBox="-0.025 -0.025 2.05 1.05" xmlns="http://www.w3.org/2000/svg">
  <style>
    path {
      fill: none;
      stroke-linecap: round;
      stroke-opacity: 0.4;
    }

    text {
      text-anchor: middle;
      alignment-baseline: hanging;
    }
  </style>
  <g opacity="0.4">
<path d="M1.089 0.767 Q0.887 0.740 0.789 0.832" stroke="hsl(0.0,100%,35%)" stroke-width="0.00073"></path>
<path d="M1.089 0.767 Q0.938 0.696 0.767 0.755" stroke="hsl(0.0,100%,35%)" stroke-width="0.00146"></path>
<path d="M1.089 0.767 Q1.478 0.738 1.507 0.541" stroke="hsl(0.0,100%,35%)" stroke-width="0.00073"></path>
<path d="M0.789 0.832 Q0.840 0.789 0.767 0.755" stroke="hsl(0.0,100%,35%)" stroke-width="0.00805"></path>
<path d="M0.789 0.832 Q1.361 0.610 1.053 0.282" stroke="hsl(0.0,100%,35%)" stroke-width="0.00073"></path>
<path d="M0.789 0.832 Q1.380 0.830 1.507 0.541" stroke="hsl(0.0,100%,35%)" stroke-width="0.00146"></path>
<path d="M0.789 0.832 Q1.579 0.673 1.441 0.252" stroke="hsl(0.0,100%,35%)" stroke-width="0.00146"></path>
<path d="M0.789 0.832 Q1.393 1.005 1.862 0.748" stroke="hsl(0.0,100%,35%)" stroke-width="0.00073"></path>
<path d="M0.789 0.832 Q1.040 0.535 0.516 0.348" stroke="hsl(0.0,100%,35%)" stroke-width="0.00073"></path>
<path d="M0.767 0.755 Q0.425 0.749 0.339 0.914" stroke="hsl(0.0,100%,35%)" stroke-width="0.00585"></path>
<path d="M0.767 0.755 Q0.722 0.897 0.989 0.950" stroke="hsl(0.0,100%,35%)" stroke-width="0.00366"></path>
<path d="M0.767 0.755 Q1.105 0.973 1.606 0.856" stroke="hsl(0.0,100%,35%)" stroke-width="0.00073"></path>
<path d="M0.767 0.755 Q1.102 0.542 0.761 0.332" stroke="hsl(0.0,100%,35%)" stroke-width="0.00220"></path>
<path d="M0.767 0.755 Q1.505 0.638 1.441 0.252" stroke="hsl(0.0,100%,35%)" stroke-width="0.00073"></path>
<path d="M0.767 0.755 Q1.288 0.576 1.053 0.282" stroke="hsl(0.0,100%,35%)" stroke-width="0.00073"></path>
<path d="M1.507 0.541 Q1.354 0.509 1.257 0.577" stroke="hsl(0.0,100%,35%)" stroke-width="0.00439"></path>
<path d="M1.507 0.541 Q0.966 0.500 0.767 0.755" stroke="hsl(0.0,100%,35%)" stroke-width="0.00220"></path>
<path d="M1.507 0.541 Q0.915 0.543 0.789 0.832" stroke="hsl(0.0,100%,35%)" stroke-width="0.00439"></path>
<path d="M1.053 0.282 Q1.271 0.345 1.441 0.252" stroke="hsl(180.0,100%,35%)" stroke-width="0.00878"></path>
<path d="M1.053 0.282 Q0.867 0.248 0.761 0.332" stroke="hsl(180.0,100%,35%)" stroke-width="0.00732"></path>
<path d="M1.053 0.282 Q1.287 0.248 1.272 0.127" stroke="hsl(180.0,100%,35%)" stroke-width="0.00439"></path>
<path d="M1.053 0.282 Q1.191 0.189 1.039 0.101" stroke="hsl(180.0,100%,35%)" stroke-width="0.01390"></path>
<path d="M1.053 0.282 Q0.870 0.679 1.606 0.856" stroke="hsl(180.0,100%,35%)" stroke-width="0.00073"></path>
<path d="M1.053 0.282 Q0.413 0.302 0.311 0.619" stroke="hsl(180.0,100%,35%)" stroke-width="0.00512"></path>
<path d="M1.053 0.282 Q1.105 0.351 1.251 0.341" stroke="hsl(180.0,100%,35%)" stroke-width="0.01171"></path>
<path d="M1.053 0.282 Q0.532 0.461 0.767 0.755" stroke="hsl(180.0,100%,35%)" stroke-width="0.00073"></path>
<path d="M1.441 0.252 Q1.040 0.587 1.606 0.856" stroke="hsl(180.0,100%,35%)" stroke-width="0.01317"></path>
<path d="M1.441 0.252 Q1.223 0.190 1.053 0.282" stroke="hsl(180.0,100%,35%)" stroke-width="0.01098"></path>
<path d="M1.441 0.252 Q1.037 0.156 0.761 0.332" stroke="hsl(180.0,100%,35%)" stroke-width="0.00439"></path>
<path d="M1.441 0.252 Q1.361 0.097 1.039 0.101" stroke="hsl(180.0,100%,35%)" stroke-width="0.00512"></path>
<path d="M1.441 0.252 Q1.457 0.156 1.272 0.127" stroke="hsl(180.0,100%,35%)" stroke-width="0.00585"></path>
<path d="M1.441 0.252 Q0.702 0.369 0.767 0.755" stroke="hsl(180.0,100%,35%)" stroke-width="0.00073"></path>
<path d="M1.441 0.252 Q0.874 0.311 0.865 0.601" stroke="hsl(180.0,100%,35%)" stroke-width="0.00146"></path>
<path d="M1.441 0.252 Q1.254 0.585 1.862 0.748" stroke="hsl(180.0,100%,35%)" stroke-width="0.00146"></path>
<path d="M1.441 0.252 Q1.046 0.452 1.349 0.689" stroke="hsl(180.0,100%,35%)" stroke-width="0.00073"></path>
<path d="M0.761 0.332 Q1.164 0.428 1.441 0.252" stroke="hsl(180.0,100%,35%)" stroke-width="0.02780"></path>
<path d="M0.761 0.332 Q0.764 0.763 1.606 0.856" stroke="hsl(180.0,100%,35%)" stroke-width="0.01463"></path>
<path d="M0.761 0.332 Q1.180 0.331 1.272 0.127" stroke="hsl(180.0,100%,35%)" stroke-width="0.00951"></path>
<path d="M0.761 0.332 Q0.598 0.487 0.865 0.601" stroke="hsl(180.0,100%,35%)" stroke-width="0.00073"></path>
<path d="M0.761 0.332 Q0.998 0.526 1.430 0.454" stroke="hsl(180.0,100%,35%)" stroke-width="0.00073"></path>
<path d="M0.761 0.332 Q0.998 0.435 1.251 0.341" stroke="hsl(180.0,100%,35%)" stroke-width="0.00732"></path>
<path d="M0.761 0.332 Q0.978 0.760 1.862 0.748" stroke="hsl(180.0,100%,35%)" stroke-width="0.01244"></path>
<path d="M0.761 0.332 Q0.306 0.385 0.311 0.619" stroke="hsl(180.0,100%,35%)" stroke-width="0.00146"></path>
<path d="M0.761 0.332 Q1.084 0.272 1.039 0.101" stroke="hsl(180.0,100%,35%)" stroke-width="0.00293"></path>
<path d="M0.761 0.332 Q0.625 0.291 0.516 0.348" stroke="hsl(180.0,100%,35%)" stroke-width="0.00878"></path>
<path d="M0.761 0.332 Q0.380 0.687 0.989 0.950" stroke="hsl(180.0,100%,35%)" stroke-width="0.00073"></path>
<path d="M0.761 0.332 Q0.743 0.217 0.514 0.200" stroke="hsl(180.0,100%,35%)" stroke-width="0.00293"></path>
<path d="M0.761 0.332 Q0.947 0.365 1.053 0.282" stroke="hsl(180.0,100%,35%)" stroke-width="0.02780"></path>
<path d="M0.761 0.332 Q0.425 0.544 0.767 0.755" stroke="hsl(180.0,100%,35%)" stroke-width="0.00073"></path>
<path d="M0.761 0.332 Q0.770 0.628 1.349 0.689" stroke="hsl(180.0,100%,35%)" stroke-width="0.00073"></path>
<path d="M1.272 0.127 Q0.852 0.127 0.761 0.332" stroke="hsl(180.0,100%,35%)" stroke-width="0.00951"></path>
<path d="M1.272 0.127 Q1.176 0.067 1.039 0.101" stroke="hsl(180.0,100%,35%)" stroke-width="0.01244"></path>
<path d="M1.272 0.127 Q0.717 0.086 0.516 0.348" stroke="hsl(180.0,100%,35%)" stroke-width="0.00366"></path>
<path d="M1.272 0.127 Q1.007 0.026 0.753 0.133" stroke="hsl(180.0,100%,35%)" stroke-width="0.00073"></path>
<path d="M1.272 0.127 Q0.472 0.482 0.989 0.950" stroke="hsl(180.0,100%,35%)" stroke-width="0.00073"></path>
<path d="M1.272 0.127 Q1.069 0.556 1.862 0.748" stroke="hsl(180.0,100%,35%)" stroke-width="0.00073"></path>
<path d="M1.272 0.127 Q1.255 0.223 1.441 0.252" stroke="hsl(180.0,100%,35%)" stroke-width="0.00366"></path>
<path d="M1.272 0.127 Q1.089 0.322 1.430 0.454" stroke="hsl(180.0,100%,35%)" stroke-width="0.00073"></path>
<path d="M1.272 0.127 Q0.689 0.282 0.865 0.601" stroke="hsl(180.0,100%,35%)" stroke-width="0.00073"></path>
<path d="M1.272 0.127 Q1.089 0.230 1.251 0.341" stroke="hsl(180.0,100%,35%)" stroke-width="0.00073"></path>
<path d="M1.039 0.101 Q0.933 0.589 1.862 0.748" stroke="hsl(180.0,100%,35%)" stroke-width="0.01976"></path>
<path d="M1.039 0.101 Q1.135 0.160 1.272 0.127" stroke="hsl(180.0,100%,35%)" stroke-width="0.01610"></path>
<path d="M1.039 0.101 Q0.716 0.161 0.761 0.332" stroke="hsl(180.0,100%,35%)" stroke-width="0.02341"></path>
<path d="M1.039 0.101 Q0.580 0.120 0.516 0.348" stroke="hsl(180.0,100%,35%)" stroke-width="0.00439"></path>
<path d="M1.039 0.101 Q0.719 0.592 1.606 0.856" stroke="hsl(180.0,100%,35%)" stroke-width="0.00878"></path>
<path d="M1.039 0.101 Q0.380 0.373 0.767 0.755" stroke="hsl(180.0,100%,35%)" stroke-width="0.00146"></path>
<path d="M1.039 0.101 Q0.902 0.194 1.053 0.282" stroke="hsl(180.0,100%,35%)" stroke-width="0.00878"></path>
<path d="M1.039 0.101 Q1.119 0.257 1.441 0.252" stroke="hsl(180.0,100%,35%)" stroke-width="0.03073"></path>
<path d="M1.039 0.101 Q0.921 0.415 1.507 0.541" stroke="hsl(180.0,100%,35%)" stroke-width="0.00073"></path>
<path d="M1.039 0.101 Q0.911 0.002 0.689 0.043" stroke="hsl(180.0,100%,35%)" stroke-width="0.00659"></path>
<path d="M1.039 0.101 Q0.390 0.161 0.364 0.491" stroke="hsl(180.0,100%,35%)" stroke-width="0.00220"></path>
<path d="M1.039 0.101 Q0.953 0.356 1.430 0.454" stroke="hsl(180.0,100%,35%)" stroke-width="0.00073"></path>
<path d="M1.039 0.101 Q0.953 0.264 1.251 0.341" stroke="hsl(180.0,100%,35%)" stroke-width="0.00366"></path>
<path d="M1.606 0.856 Q1.820 0.853 1.862 0.748" stroke="hsl(180.0,100%,35%)" stroke-width="0.01756"></path>
<path d="M1.606 0.856 Q1.602 0.425 0.761 0.332" stroke="hsl(180.0,100%,35%)" stroke-width="0.00220"></path>
<path d="M1.606 0.856 Q1.797 0.266 0.689 0.043" stroke="hsl(180.0,100%,35%)" stroke-width="0.00073"></path>
<path d="M1.606 0.856 Q2.006 0.521 1.441 0.252" stroke="hsl(180.0,100%,35%)" stroke-width="0.00146"></path>
<path d="M1.606 0.856 Q1.926 0.365 1.039 0.101" stroke="hsl(180.0,100%,35%)" stroke-width="0.00073"></path>
<path d="M0.311 0.619 Q0.765 0.565 0.761 0.332" stroke="hsl(180.0,100%,35%)" stroke-width="0.00293"></path>
<path d="M0.311 0.619 Q1.169 0.661 1.441 0.252" stroke="hsl(180.0,100%,35%)" stroke-width="0.00073"></path>
<path d="M0.311 0.619 Q0.768 0.996 1.606 0.856" stroke="hsl(180.0,100%,35%)" stroke-width="0.00073"></path>
<path d="M0.311 0.619 Q0.951 0.599 1.053 0.282" stroke="hsl(180.0,100%,35%)" stroke-width="0.00073"></path>
<path d="M0.311 0.619 Q1.003 0.668 1.251 0.341" stroke="hsl(180.0,100%,35%)" stroke-width="0.00073"></path>
<path d="M0.311 0.619 Q0.774 0.861 1.349 0.689" stroke="hsl(180.0,100%,35%)" stroke-width="0.00073"></path>
<path d="M1.251 0.341 Q1.433 0.238 1.272 0.127" stroke="hsl(180.0,100%,35%)" stroke-width="0.00146"></path>
<path d="M1.251 0.341 Q1.200 0.272 1.053 0.282" stroke="hsl(180.0,100%,35%)" stroke-width="0.00293"></path>
<path d="M1.251 0.341 Q0.878 0.197 0.516 0.348" stroke="hsl(180.0,100%,35%)" stroke-width="0.00073"></path>
<path d="M1.251 0.341 Q1.337 0.179 1.039 0.101" stroke="hsl(180.0,100%,35%)" stroke-width="0.00293"></path>
<path d="M0.339 0.914 Q0.680 0.920 0.767 0.755" stroke="hsl(0.0,100%,35%)" stroke-width="0.02341"></path>
<path d="M0.339 0.914 Q1.016 0.707 0.761 0.332" stroke="hsl(0.0,100%,35%)" stroke-width="0.00073"></path>
<path d="M0.339 0.914 Q1.019 1.138 1.606 0.856" stroke="hsl(0.0,100%,35%)" stroke-width="0.00073"></path>
<path d="M0.339 0.914 Q0.635 1.062 0.989 0.950" stroke="hsl(0.0,100%,35%)" stroke-width="0.00220"></path>
<path d="M0.339 0.914 Q0.489 0.859 0.414 0.773" stroke="hsl(0.0,100%,35%)" stroke-width="0.00146"></path>
<path d="M0.339 0.914 Q0.630 0.963 0.789 0.832" stroke="hsl(0.0,100%,35%)" stroke-width="0.00073"></path>
<path d="M1.257 0.577 Q0.869 0.567 0.767 0.755" stroke="hsl(0.0,100%,35%)" stroke-width="0.00220"></path>
<path d="M1.257 0.577 Q0.819 0.611 0.789 0.832" stroke="hsl(0.0,100%,35%)" stroke-width="0.00293"></path>
<path d="M1.257 0.577 Q1.608 0.451 1.441 0.252" stroke="hsl(0.0,100%,35%)" stroke-width="0.00073"></path>
<path d="M1.430 0.454 Q1.193 0.259 0.761 0.332" stroke="hsl(180.0,100%,35%)" stroke-width="0.00293"></path>
<path d="M1.430 0.454 Q1.388 0.100 0.689 0.043" stroke="hsl(180.0,100%,35%)" stroke-width="0.00146"></path>
<path d="M1.430 0.454 Q1.344 0.404 1.228 0.434" stroke="hsl(180.0,100%,35%)" stroke-width="0.00146"></path>
<path d="M1.430 0.454 Q1.612 0.258 1.272 0.127" stroke="hsl(180.0,100%,35%)" stroke-width="0.00073"></path>
<path d="M1.430 0.454 Q1.516 0.199 1.039 0.101" stroke="hsl(180.0,100%,35%)" stroke-width="0.00220"></path>
<path d="M1.430 0.454 Q1.596 0.355 1.441 0.252" stroke="hsl(180.0,100%,35%)" stroke-width="0.00146"></path>
<path d="M1.862 0.748 Q1.968 0.260 1.039 0.101" stroke="hsl(180.0,100%,35%)" stroke-width="0.00073"></path>
<path d="M1.862 0.748 Q2.048 0.416 1.441 0.252" stroke="hsl(180.0,100%,35%)" stroke-width="0.00220"></path>
<path d="M1.862 0.748 Q1.648 0.751 1.606 0.856" stroke="hsl(180.0,100%,35%)" stroke-width="0.01098"></path>
<path d="M1.862 0.748 Q1.831 0.353 1.053 0.282" stroke="hsl(180.0,100%,35%)" stroke-width="0.00073"></path>
<path d="M1.862 0.748 Q1.645 0.320 0.761 0.332" stroke="hsl(180.0,100%,35%)" stroke-width="0.00366"></path>
<path d="M1.862 0.748 Q1.509 0.279 0.516 0.348" stroke="hsl(180.0,100%,35%)" stroke-width="0.00220"></path>
<path d="M1.862 0.748 Q1.522 0.538 1.038 0.658" stroke="hsl(180.0,100%,35%)" stroke-width="0.00146"></path>
<path d="M1.862 0.748 Q1.840 0.161 0.689 0.043" stroke="hsl(180.0,100%,35%)" stroke-width="0.00073"></path>
<path d="M0.516 0.348 Q0.651 0.389 0.761 0.332" stroke="hsl(180.0,100%,35%)" stroke-width="0.00732"></path>
<path d="M0.516 0.348 Q0.654 0.820 1.606 0.856" stroke="hsl(180.0,100%,35%)" stroke-width="0.00073"></path>
<path d="M0.516 0.348 Q0.888 0.584 1.430 0.454" stroke="hsl(180.0,100%,35%)" stroke-width="0.00073"></path>
<path d="M0.516 0.348 Q0.868 0.817 1.862 0.748" stroke="hsl(180.0,100%,35%)" stroke-width="0.00220"></path>
<path d="M0.516 0.348 Q0.271 0.744 0.989 0.950" stroke="hsl(180.0,100%,35%)" stroke-width="0.00073"></path>
<path d="M0.516 0.348 Q0.725 0.465 1.000 0.389" stroke="hsl(180.0,100%,35%)" stroke-width="0.00073"></path>
<path d="M0.516 0.348 Q1.054 0.485 1.441 0.252" stroke="hsl(180.0,100%,35%)" stroke-width="0.00073"></path>
<path d="M0.516 0.348 Q1.071 0.388 1.272 0.127" stroke="hsl(180.0,100%,35%)" stroke-width="0.00878"></path>
<path d="M0.516 0.348 Q0.316 0.601 0.767 0.755" stroke="hsl(180.0,100%,35%)" stroke-width="0.00073"></path>
<path d="M0.516 0.348 Q0.837 0.422 1.053 0.282" stroke="hsl(180.0,100%,35%)" stroke-width="0.00146"></path>
<path d="M0.516 0.348 Q0.633 0.274 0.514 0.200" stroke="hsl(180.0,100%,35%)" stroke-width="0.00073"></path>
<path d="M1.349 0.689 Q1.344 0.823 1.606 0.856" stroke="hsl(180.0,100%,35%)" stroke-width="0.00439"></path>
<path d="M1.349 0.689 Q1.760 0.392 1.272 0.127" stroke="hsl(180.0,100%,35%)" stroke-width="0.00146"></path>
<path d="M1.349 0.689 Q1.005 0.605 0.767 0.755" stroke="hsl(180.0,100%,35%)" stroke-width="0.00146"></path>
<path d="M1.349 0.689 Q1.341 0.392 0.761 0.332" stroke="hsl(180.0,100%,35%)" stroke-width="0.00220"></path>
<path d="M1.349 0.689 Q1.178 0.548 0.865 0.601" stroke="hsl(180.0,100%,35%)" stroke-width="0.00073"></path>
<path d="M1.349 0.689 Q1.205 0.351 0.516 0.348" stroke="hsl(180.0,100%,35%)" stroke-width="0.00073"></path>
<path d="M0.689 0.043 Q0.372 0.420 1.038 0.658" stroke="hsl(180.0,100%,35%)" stroke-width="0.00073"></path>
<path d="M0.689 0.043 Q0.497 0.633 1.606 0.856" stroke="hsl(180.0,100%,35%)" stroke-width="0.00146"></path>
<path d="M0.689 0.043 Q0.897 0.298 1.441 0.252" stroke="hsl(180.0,100%,35%)" stroke-width="0.00073"></path>
<path d="M0.689 0.043 Q0.711 0.630 1.862 0.748" stroke="hsl(180.0,100%,35%)" stroke-width="0.00146"></path>
<path d="M0.689 0.043 Q0.818 0.142 1.039 0.101" stroke="hsl(180.0,100%,35%)" stroke-width="0.00073"></path>
<path d="M1.038 0.658 Q1.564 0.536 1.441 0.252" stroke="hsl(180.0,100%,35%)" stroke-width="0.00220"></path>
<path d="M1.038 0.658 Q1.163 0.870 1.606 0.856" stroke="hsl(180.0,100%,35%)" stroke-width="0.00073"></path>
<path d="M1.038 0.658 Q1.010 0.464 0.626 0.436" stroke="hsl(180.0,100%,35%)" stroke-width="0.00146"></path>
<path d="M1.038 0.658 Q0.997 0.595 0.865 0.601" stroke="hsl(180.0,100%,35%)" stroke-width="0.00073"></path>
<path d="M0.303 0.769 Q1.205 0.582 1.039 0.101" stroke="hsl(0.0,100%,35%)" stroke-width="0.00073"></path>
<path d="M0.303 0.769 Q0.719 0.797 0.865 0.601" stroke="hsl(0.0,100%,35%)" stroke-width="0.00073"></path>
<path d="M0.303 0.769 Q1.301 0.641 1.272 0.127" stroke="hsl(0.0,100%,35%)" stroke-width="0.00073"></path>
<path d="M0.303 0.769 Q1.068 0.675 1.053 0.282" stroke="hsl(0.0,100%,35%)" stroke-width="0.00073"></path>
<path d="M0.303 0.769 Q0.205 0.848 0.339 0.914" stroke="hsl(0.0,100%,35%)" stroke-width="0.00146"></path>
<path d="M0.364 0.491 Q0.876 0.524 1.053 0.282" stroke="hsl(180.0,100%,35%)" stroke-width="0.00220"></path>
<path d="M0.364 0.491 Q0.235 0.544 0.311 0.619" stroke="hsl(180.0,100%,35%)" stroke-width="0.00073"></path>
<path d="M0.364 0.491 Q1.093 0.587 1.441 0.252" stroke="hsl(180.0,100%,35%)" stroke-width="0.00073"></path>
<path d="M0.364 0.491 Q0.554 0.450 0.516 0.348" stroke="hsl(180.0,100%,35%)" stroke-width="0.00073"></path>
<path d="M0.885 0.150 Q1.097 0.216 1.272 0.127" stroke="hsl(180.0,100%,35%)" stroke-width="0.00220"></path>
<path d="M0.885 0.150 Q0.864 0.250 1.053 0.282" stroke="hsl(180.0,100%,35%)" stroke-width="0.00073"></path>
<path d="M0.885 0.150 Q1.001 0.157 1.039 0.101" stroke="hsl(180.0,100%,35%)" stroke-width="0.00146"></path>
<path d="M0.885 0.150 Q0.292 0.472 0.789 0.832" stroke="hsl(180.0,100%,35%)" stroke-width="0.00073"></path>
<path d="M0.885 0.150 Q0.678 0.216 0.761 0.332" stroke="hsl(180.0,100%,35%)" stroke-width="0.00073"></path>
<path d="M1.000 0.389 Q0.929 0.743 1.606 0.856" stroke="hsl(180.0,100%,35%)" stroke-width="0.00073"></path>
<path d="M1.000 0.389 Q0.926 0.312 0.761 0.332" stroke="hsl(180.0,100%,35%)" stroke-width="0.00073"></path>
<path d="M1.000 0.389 Q1.346 0.312 1.272 0.127" stroke="hsl(180.0,100%,35%)" stroke-width="0.00220"></path>
<path d="M1.000 0.389 Q0.891 0.412 0.912 0.470" stroke="hsl(180.0,100%,35%)" stroke-width="0.00073"></path>
<path d="M1.000 0.389 Q1.250 0.253 1.039 0.101" stroke="hsl(180.0,100%,35%)" stroke-width="0.00146"></path>
<path d="M1.000 0.389 Q0.791 0.271 0.516 0.348" stroke="hsl(180.0,100%,35%)" stroke-width="0.00073"></path>
<path d="M1.000 0.389 Q1.112 0.346 1.053 0.282" stroke="hsl(180.0,100%,35%)" stroke-width="0.00073"></path>
<path d="M1.525 0.187 Q1.430 0.202 1.441 0.252" stroke="hsl(180.0,100%,35%)" stroke-width="0.00512"></path>
<path d="M1.525 0.187 Q1.027 0.106 0.761 0.332" stroke="hsl(180.0,100%,35%)" stroke-width="0.00073"></path>
<path d="M1.525 0.187 Q1.264 0.209 1.251 0.341" stroke="hsl(180.0,100%,35%)" stroke-width="0.00073"></path>
<path d="M1.824 0.418 Q1.787 0.501 1.939 0.537" stroke="hsl(180.0,100%,35%)" stroke-width="0.00073"></path>
<path d="M1.824 0.418 Q1.685 0.103 1.039 0.101" stroke="hsl(180.0,100%,35%)" stroke-width="0.00073"></path>
<path d="M1.824 0.418 Q1.858 0.365 1.763 0.337" stroke="hsl(180.0,100%,35%)" stroke-width="0.00073"></path>
</g>
<text x="1.089" y="0.762" font-size="0.009877" fill="hsl(0.0,100%,20%)">aixba</text>
<text x="0.789" y="0.818" font-size="0.027497" fill="hsl(0.0,100%,20%)">paulirish</text>
<text x="0.767" y="0.733" font-size="0.043617" fill="hsl(0.0,100%,20%)">andoli</text>
<text x="1.507" y="0.531" font-size="0.021527" fill="hsl(0.0,100%,20%)">asraine</text>
<text x="1.053" y="0.251" font-size="0.061088" fill="hsl(180.0,100%,20%)">alexrudenko</text>
<text x="1.441" y="0.219" font-size="0.066626" fill="hsl(180.0,100%,20%)">szuend</text>
<text x="0.761" y="0.292" font-size="0.079633" fill="hsl(180.0,100%,20%)">bmeurer</text>
<text x="1.272" y="0.100" font-size="0.053874" fill="hsl(180.0,100%,20%)">wolfi</text>
<text x="1.039" y="0.063" font-size="0.076030" fill="hsl(180.0,100%,20%)">dsv</text>
<text x="1.606" y="0.830" font-size="0.052032" fill="hsl(180.0,100%,20%)">pfaffe</text>
<text x="0.311" y="0.608" font-size="0.021527" fill="hsl(180.0,100%,20%)">nvitkov</text>
<text x="1.251" y="0.325" font-size="0.033129" fill="hsl(180.0,100%,20%)">yangguo</text>
<text x="0.339" y="0.896" font-size="0.034922" fill="hsl(0.0,100%,20%)">alinavarkki</text>
<text x="0.989" y="0.942" font-size="0.016380" fill="hsl(0.0,100%,20%)">nancyly</text>
<text x="0.414" y="0.770" font-size="0.006984" fill="hsl(0.0,100%,20%)">victorporof</text>
<text x="1.257" y="0.567" font-size="0.018479" fill="hsl(0.0,100%,20%)">cjamcl</text>
<text x="0.865" y="0.594" font-size="0.013066" fill="hsl(180.0,100%,20%)">mathias</text>
<text x="1.430" y="0.443" font-size="0.020953" fill="hsl(180.0,100%,20%)">jec</text>
<text x="1.862" y="0.723" font-size="0.051324" fill="hsl(180.0,100%,20%)">ergunsh</text>
<text x="0.516" y="0.328" font-size="0.039817" fill="hsl(180.0,100%,20%)">kprokopenko</text>
<text x="0.514" y="0.195" font-size="0.011043" fill="hsl(180.0,100%,20%)">petermueller</text>
<text x="1.349" y="0.678" font-size="0.020953" fill="hsl(180.0,100%,20%)">kimanh</text>
<text x="0.689" y="0.032" font-size="0.022086" fill="hsl(180.0,100%,20%)">changhaohan</text>
<text x="1.038" y="0.650" font-size="0.015617" fill="hsl(180.0,100%,20%)">liviurau</text>
<text x="0.303" y="0.763" font-size="0.012097" fill="hsl(0.0,100%,20%)">chrche</text>
<text x="0.364" y="0.484" font-size="0.014816" fill="hsl(180.0,100%,20%)">jrandolf</text>
<text x="0.885" y="0.143" font-size="0.013969" fill="hsl(180.0,100%,20%)">elormcoch</text>
<text x="1.228" y="0.431" font-size="0.006984" fill="hsl(180.0,100%,20%)">semel</text>
<text x="1.000" y="0.380" font-size="0.016380" fill="hsl(180.0,100%,20%)">leese</text>
<text x="0.912" y="0.468" font-size="0.004939" fill="hsl(180.0,100%,20%)">morlovich</text>
<text x="0.626" y="0.432" font-size="0.006984" fill="hsl(180.0,100%,20%)">machenbach</text>
<text x="1.525" y="0.179" font-size="0.014816" fill="hsl(180.0,100%,20%)">seth.brenith</text>
<text x="1.824" y="0.414" font-size="0.008554" fill="hsl(180.0,100%,20%)">sisidovski</text>
<text x="1.939" y="0.534" font-size="0.004939" fill="hsl(180.0,100%,20%)">kouhei</text>
<text x="1.763" y="0.335" font-size="0.004939" fill="hsl(180.0,100%,20%)">yyanagisawa</text>
<text x="0.753" y="0.131" font-size="0.004939" fill="hsl(180.0,100%,20%)">shuuran</text>
</svg>
