<svg width="4000" height="2000" viewBox="-0.025 -0.025 2.05 1.05" xmlns="http://www.w3.org/2000/svg">
  <style>
    path {
      fill: none;
      stroke-linecap: round;
      stroke-opacity: 0.4;
    }

    text {
      text-anchor: middle;
      alignment-baseline: hanging;
    }
  </style>
  <g opacity="0.4">
<path d="M0.273 0.400 Q0.229 0.817 1.033 0.929" stroke="hsl(0.0,100%,35%)" stroke-width="0.00723"></path>
<path d="M0.273 0.400 Q0.284 0.497 0.476 0.512" stroke="hsl(0.0,100%,35%)" stroke-width="0.00723"></path>
<path d="M0.273 0.400 Q0.968 0.459 1.236 0.133" stroke="hsl(0.0,100%,35%)" stroke-width="0.00181"></path>
<path d="M0.273 0.400 Q0.515 0.391 0.550 0.270" stroke="hsl(0.0,100%,35%)" stroke-width="0.00181"></path>
<path d="M0.273 0.400 Q1.110 0.456 1.402 0.060" stroke="hsl(0.0,100%,35%)" stroke-width="0.00181"></path>
<path d="M0.273 0.400 Q-0.064 0.725 0.497 0.961" stroke="hsl(0.0,100%,35%)" stroke-width="0.00181"></path>
<path d="M0.273 0.400 Q0.128 0.761 0.801 0.911" stroke="hsl(0.0,100%,35%)" stroke-width="0.00181"></path>
<path d="M1.033 0.929 Q0.940 0.671 0.415 0.659" stroke="hsl(0.0,100%,35%)" stroke-width="0.00181"></path>
<path d="M1.033 0.929 Q1.077 0.513 0.273 0.400" stroke="hsl(0.0,100%,35%)" stroke-width="0.00904"></path>
<path d="M1.033 0.929 Q1.265 0.998 1.450 0.901" stroke="hsl(0.0,100%,35%)" stroke-width="0.00362"></path>
<path d="M1.033 0.929 Q0.932 0.874 0.801 0.911" stroke="hsl(0.0,100%,35%)" stroke-width="0.00362"></path>
<path d="M1.033 0.929 Q1.088 0.609 0.476 0.512" stroke="hsl(0.0,100%,35%)" stroke-width="0.00904"></path>
<path d="M1.033 0.929 Q1.301 0.847 1.200 0.698" stroke="hsl(0.0,100%,35%)" stroke-width="0.01266"></path>
<path d="M0.476 0.512 Q0.689 0.750 1.200 0.698" stroke="hsl(0.0,100%,35%)" stroke-width="0.00181"></path>
<path d="M0.476 0.512 Q0.421 0.832 1.033 0.929" stroke="hsl(0.0,100%,35%)" stroke-width="0.00362"></path>
<path d="M0.476 0.512 Q0.233 0.693 0.531 0.851" stroke="hsl(0.0,100%,35%)" stroke-width="0.00181"></path>
<path d="M0.476 0.512 Q0.320 0.777 0.801 0.911" stroke="hsl(0.0,100%,35%)" stroke-width="0.00362"></path>
<path d="M1.236 0.133 Q1.378 0.129 1.402 0.060" stroke="hsl(180.0,100%,35%)" stroke-width="0.05064"></path>
<path d="M1.236 0.133 Q0.497 0.490 1.033 0.929" stroke="hsl(180.0,100%,35%)" stroke-width="0.00181"></path>
<path d="M1.236 0.133 Q1.116 0.125 1.073 0.182" stroke="hsl(180.0,100%,35%)" stroke-width="0.00181"></path>
<path d="M1.236 0.133 Q0.541 0.073 0.273 0.400" stroke="hsl(180.0,100%,35%)" stroke-width="0.00181"></path>
<path d="M1.236 0.133 Q1.018 0.350 1.395 0.505" stroke="hsl(180.0,100%,35%)" stroke-width="0.00181"></path>
<path d="M0.497 0.961 Q1.059 0.970 1.200 0.698" stroke="hsl(0.0,100%,35%)" stroke-width="0.00723"></path>
<path d="M0.497 0.961 Q0.690 0.997 0.801 0.911" stroke="hsl(0.0,100%,35%)" stroke-width="0.01990"></path>
<path d="M0.497 0.961 Q0.846 0.733 0.476 0.512" stroke="hsl(0.0,100%,35%)" stroke-width="0.00543"></path>
<path d="M0.801 0.911 Q1.170 0.884 1.200 0.698" stroke="hsl(0.0,100%,35%)" stroke-width="0.00904"></path>
<path d="M0.801 0.911 Q0.714 0.827 0.531 0.851" stroke="hsl(0.0,100%,35%)" stroke-width="0.01447"></path>
<path d="M0.801 0.911 Q0.809 0.708 0.415 0.659" stroke="hsl(0.0,100%,35%)" stroke-width="0.02351"></path>
<path d="M0.801 0.911 Q0.902 0.966 1.033 0.929" stroke="hsl(0.0,100%,35%)" stroke-width="0.07054"></path>
<path d="M0.801 0.911 Q0.650 0.756 0.316 0.796" stroke="hsl(0.0,100%,35%)" stroke-width="0.00181"></path>
<path d="M0.801 0.911 Q0.830 0.999 1.008 1.005" stroke="hsl(0.0,100%,35%)" stroke-width="0.01809"></path>
<path d="M0.801 0.911 Q0.996 0.847 0.916 0.738" stroke="hsl(0.0,100%,35%)" stroke-width="0.00181"></path>
<path d="M0.801 0.911 Q1.137 0.781 0.958 0.588" stroke="hsl(0.0,100%,35%)" stroke-width="0.00181"></path>
<path d="M0.801 0.911 Q1.783 0.605 1.402 0.060" stroke="hsl(0.0,100%,35%)" stroke-width="0.00181"></path>
<path d="M0.801 0.911 Q0.957 0.646 0.476 0.512" stroke="hsl(0.0,100%,35%)" stroke-width="0.01085"></path>
<path d="M0.801 0.911 Q0.609 0.875 0.497 0.961" stroke="hsl(0.0,100%,35%)" stroke-width="0.00181"></path>
<path d="M0.801 0.911 Q0.946 0.549 0.273 0.400" stroke="hsl(0.0,100%,35%)" stroke-width="0.01447"></path>
<path d="M1.200 0.698 Q0.987 0.461 0.476 0.512" stroke="hsl(0.0,100%,35%)" stroke-width="0.01085"></path>
<path d="M1.200 0.698 Q0.831 0.725 0.801 0.911" stroke="hsl(0.0,100%,35%)" stroke-width="0.01085"></path>
<path d="M1.200 0.698 Q1.411 0.797 1.649 0.716" stroke="hsl(0.0,100%,35%)" stroke-width="0.00181"></path>
<path d="M1.200 0.698 Q0.638 0.689 0.497 0.961" stroke="hsl(0.0,100%,35%)" stroke-width="0.00543"></path>
<path d="M1.200 0.698 Q1.671 0.423 1.236 0.133" stroke="hsl(0.0,100%,35%)" stroke-width="0.00181"></path>
<path d="M1.200 0.698 Q0.932 0.780 1.033 0.929" stroke="hsl(0.0,100%,35%)" stroke-width="0.00723"></path>
<path d="M1.200 0.698 Q1.812 0.420 1.402 0.060" stroke="hsl(0.0,100%,35%)" stroke-width="0.00181"></path>
<path d="M1.200 0.698 Q0.859 0.813 1.008 1.005" stroke="hsl(0.0,100%,35%)" stroke-width="0.00181"></path>
<path d="M1.200 0.698 Q0.744 0.641 0.531 0.851" stroke="hsl(0.0,100%,35%)" stroke-width="0.00181"></path>
<path d="M0.531 0.851 Q0.467 0.781 0.316 0.796" stroke="hsl(0.0,100%,35%)" stroke-width="0.00181"></path>
<path d="M0.531 0.851 Q0.626 0.732 0.415 0.659" stroke="hsl(0.0,100%,35%)" stroke-width="0.00904"></path>
<path d="M0.531 0.851 Q0.619 0.935 0.801 0.911" stroke="hsl(0.0,100%,35%)" stroke-width="0.00543"></path>
<path d="M0.531 0.851 Q0.719 0.990 1.033 0.929" stroke="hsl(0.0,100%,35%)" stroke-width="0.00181"></path>
<path d="M0.415 0.659 Q0.320 0.778 0.531 0.851" stroke="hsl(0.0,100%,35%)" stroke-width="0.00362"></path>
<path d="M0.415 0.659 Q0.508 0.918 1.033 0.929" stroke="hsl(0.0,100%,35%)" stroke-width="0.00181"></path>
<path d="M0.415 0.659 Q0.743 0.732 0.958 0.588" stroke="hsl(0.0,100%,35%)" stroke-width="0.00181"></path>
<path d="M0.316 0.796 Q0.475 0.748 0.415 0.659" stroke="hsl(0.0,100%,35%)" stroke-width="0.00362"></path>
<path d="M0.316 0.796 Q0.380 0.867 0.531 0.851" stroke="hsl(0.0,100%,35%)" stroke-width="0.00362"></path>
<path d="M0.316 0.796 Q0.623 0.686 0.476 0.512" stroke="hsl(0.0,100%,35%)" stroke-width="0.00181"></path>
<path d="M1.008 1.005 Q0.980 0.916 0.801 0.911" stroke="hsl(0.0,100%,35%)" stroke-width="0.00723"></path>
<path d="M1.008 1.005 Q1.367 0.546 0.550 0.270" stroke="hsl(0.0,100%,35%)" stroke-width="0.00181"></path>
<path d="M1.008 1.005 Q1.349 0.890 1.200 0.698" stroke="hsl(0.0,100%,35%)" stroke-width="0.00543"></path>
<path d="M0.958 0.588 Q1.243 0.634 1.395 0.505" stroke="hsl(0.0,100%,35%)" stroke-width="0.00543"></path>
<path d="M0.958 0.588 Q0.766 0.357 0.273 0.400" stroke="hsl(0.0,100%,35%)" stroke-width="0.00181"></path>
<path d="M0.958 0.588 Q0.429 0.683 0.497 0.961" stroke="hsl(0.0,100%,35%)" stroke-width="0.00181"></path>
</g>
<text x="0.273" y="0.376" font-size="0.048204" fill="hsl(0.0,100%,20%)">alexrudenko</text>
<text x="1.033" y="0.890" font-size="0.078365" fill="hsl(0.0,100%,20%)">szuend</text>
<text x="0.476" y="0.487" font-size="0.050721" fill="hsl(0.0,100%,20%)">dsv</text>
<text x="1.236" y="0.106" font-size="0.053119" fill="hsl(180.0,100%,20%)">jacktfranklin</text>
<text x="0.550" y="0.264" font-size="0.012883" fill="hsl(0.0,100%,20%)">nvitkov</text>
<text x="1.402" y="0.034" font-size="0.050721" fill="hsl(180.0,100%,20%)">andoli</text>
<text x="0.497" y="0.939" font-size="0.044628" fill="hsl(0.0,100%,20%)">kprokopenko</text>
<text x="0.801" y="0.860" font-size="0.101032" fill="hsl(0.0,100%,20%)">bmeurer</text>
<text x="1.200" y="0.668" font-size="0.060427" fill="hsl(0.0,100%,20%)">wolfi</text>
<text x="0.531" y="0.829" font-size="0.044628" fill="hsl(0.0,100%,20%)">ergunsh</text>
<text x="0.415" y="0.637" font-size="0.045549" fill="hsl(0.0,100%,20%)">pfaffe</text>
<text x="0.316" y="0.784" font-size="0.024102" fill="hsl(0.0,100%,20%)">changhaohan</text>
<text x="1.008" y="0.985" font-size="0.039708" fill="hsl(0.0,100%,20%)">yangguo</text>
<text x="0.916" y="0.734" font-size="0.009110" fill="hsl(0.0,100%,20%)">petermueller</text>
<text x="0.958" y="0.576" font-size="0.024102" fill="hsl(0.0,100%,20%)">leese</text>
<text x="1.073" y="0.177" font-size="0.009110" fill="hsl(180.0,100%,20%)">nancyly</text>
<text x="1.395" y="0.496" font-size="0.018220" fill="hsl(0.0,100%,20%)">alinavarkki</text>
<text x="1.450" y="0.894" font-size="0.012883" fill="hsl(0.0,100%,20%)">mathias</text>
<text x="1.649" y="0.711" font-size="0.009110" fill="hsl(0.0,100%,20%)">jec</text>
</svg>
