<svg width="4000" height="2000" viewBox="-0.025 -0.025 2.05 1.05" xmlns="http://www.w3.org/2000/svg">
  <style>
    path {
      fill: none;
      stroke-linecap: round;
      stroke-opacity: 0.4;
    }

    text {
      text-anchor: middle;
      alignment-baseline: hanging;
    }
  </style>
  <g opacity="0.4">
<path d="M1.849 0.465 Q1.635 0.483 1.624 0.591" stroke="hsl(0.0,100%,35%)" stroke-width="0.08083"></path>
<path d="M1.849 0.465 Q1.749 0.561 1.915 0.631" stroke="hsl(0.0,100%,35%)" stroke-width="0.02309"></path>
<path d="M1.849 0.465 Q1.667 0.415 1.530 0.493" stroke="hsl(0.0,100%,35%)" stroke-width="0.02309"></path>
<path d="M1.849 0.465 Q1.869 0.249 1.452 0.191" stroke="hsl(0.0,100%,35%)" stroke-width="0.03464"></path>
<path d="M1.849 0.465 Q2.059 0.363 1.906 0.238" stroke="hsl(0.0,100%,35%)" stroke-width="0.01155"></path>
<path d="M1.849 0.465 Q1.733 0.306 1.397 0.328" stroke="hsl(0.0,100%,35%)" stroke-width="0.01155"></path>
<path d="M1.849 0.465 Q1.988 0.375 1.842 0.287" stroke="hsl(0.0,100%,35%)" stroke-width="0.02309"></path>
<path d="M1.849 0.465 Q2.052 0.298 1.771 0.162" stroke="hsl(0.0,100%,35%)" stroke-width="0.03464"></path>
<path d="M1.530 0.493 Q1.712 0.543 1.849 0.465" stroke="hsl(0.0,100%,35%)" stroke-width="0.03464"></path>
<path d="M1.530 0.493 Q1.596 0.384 1.397 0.328" stroke="hsl(0.0,100%,35%)" stroke-width="0.01155"></path>
<path d="M1.530 0.493 Q1.397 0.441 1.266 0.494" stroke="hsl(0.0,100%,35%)" stroke-width="0.01155"></path>
<path d="M1.530 0.493 Q1.498 0.561 1.624 0.591" stroke="hsl(0.0,100%,35%)" stroke-width="0.01155"></path>
<path d="M1.661 0.858 Q1.755 0.597 1.266 0.494" stroke="hsl(0.0,100%,35%)" stroke-width="0.01155"></path>
<path d="M1.661 0.858 Q1.619 0.737 1.374 0.731" stroke="hsl(0.0,100%,35%)" stroke-width="0.01155"></path>
<path d="M1.661 0.858 Q1.888 0.649 1.530 0.493" stroke="hsl(0.0,100%,35%)" stroke-width="0.01155"></path>
</g>
<text x="1.849" y="0.402" font-size="0.126491" fill="hsl(0.0,100%,20%)">bmeurer</text>
<text x="1.624" y="0.555" font-size="0.073030" fill="hsl(0.0,100%,20%)">ergunsh</text>
<text x="1.915" y="0.612" font-size="0.036515" fill="hsl(0.0,100%,20%)">kprokopenko</text>
<text x="1.530" y="0.454" font-size="0.077460" fill="hsl(0.0,100%,20%)">wolfi</text>
<text x="1.452" y="0.169" font-size="0.044721" fill="hsl(0.0,100%,20%)">pfaffe</text>
<text x="1.906" y="0.225" font-size="0.025820" fill="hsl(0.0,100%,20%)">yangguo</text>
<text x="1.397" y="0.309" font-size="0.036515" fill="hsl(0.0,100%,20%)">nancyly</text>
<text x="1.842" y="0.269" font-size="0.036515" fill="hsl(0.0,100%,20%)">petermueller</text>
<text x="1.771" y="0.140" font-size="0.044721" fill="hsl(0.0,100%,20%)">alexrudenko</text>
<text x="1.661" y="0.836" font-size="0.044721" fill="hsl(0.0,100%,20%)">chrche</text>
<text x="1.266" y="0.476" font-size="0.036515" fill="hsl(0.0,100%,20%)">dsv</text>
<text x="1.374" y="0.718" font-size="0.025820" fill="hsl(0.0,100%,20%)">mathias</text>
</svg>
