<svg width="4000" height="2000" viewBox="-0.025 -0.025 2.05 1.05" xmlns="http://www.w3.org/2000/svg">
  <style>
    path {
      fill: none;
      stroke-linecap: round;
      stroke-opacity: 0.4;
    }

    text {
      text-anchor: middle;
      alignment-baseline: hanging;
    }
  </style>
  <g opacity="0.4">
<path d="M1.974 0.493 Q1.306 0.132 0.455 0.379" stroke="hsl(0.0,100%,35%)" stroke-width="0.00193"></path>
<path d="M1.974 0.493 Q1.298 0.310 0.792 0.599" stroke="hsl(0.0,100%,35%)" stroke-width="0.00386"></path>
<path d="M1.974 0.493 Q1.563 0.316 1.127 0.477" stroke="hsl(0.0,100%,35%)" stroke-width="0.00386"></path>
<path d="M1.974 0.493 Q1.526 0.010 0.486 0.123" stroke="hsl(0.0,100%,35%)" stroke-width="0.01352"></path>
<path d="M1.974 0.493 Q1.185 0.363 0.758 0.719" stroke="hsl(0.0,100%,35%)" stroke-width="0.00193"></path>
<path d="M1.974 0.493 Q1.598 0.156 0.859 0.266" stroke="hsl(0.0,100%,35%)" stroke-width="0.00193"></path>
<path d="M0.455 0.379 Q0.335 0.610 0.758 0.719" stroke="hsl(0.0,100%,35%)" stroke-width="0.01545"></path>
<path d="M0.455 0.379 Q1.124 0.740 1.974 0.493" stroke="hsl(0.0,100%,35%)" stroke-width="0.00579"></path>
<path d="M0.455 0.379 Q0.447 0.557 0.792 0.599" stroke="hsl(0.0,100%,35%)" stroke-width="0.00386"></path>
<path d="M0.455 0.379 Q0.676 0.257 0.486 0.123" stroke="hsl(0.0,100%,35%)" stroke-width="0.00579"></path>
<path d="M0.455 0.379 Q0.713 0.563 1.127 0.477" stroke="hsl(0.0,100%,35%)" stroke-width="0.01545"></path>
<path d="M0.455 0.379 Q1.075 0.400 1.253 0.103" stroke="hsl(0.0,100%,35%)" stroke-width="0.00193"></path>
<path d="M0.792 0.599 Q0.800 0.422 0.455 0.379" stroke="hsl(0.0,100%,35%)" stroke-width="0.02125"></path>
<path d="M0.792 0.599 Q0.679 0.652 0.758 0.719" stroke="hsl(0.0,100%,35%)" stroke-width="0.01545"></path>
<path d="M0.792 0.599 Q1.057 0.605 1.127 0.477" stroke="hsl(0.0,100%,35%)" stroke-width="0.01352"></path>
<path d="M0.792 0.599 Q0.969 0.415 0.648 0.288" stroke="hsl(0.0,100%,35%)" stroke-width="0.00193"></path>
<path d="M0.792 0.599 Q0.687 0.507 0.484 0.538" stroke="hsl(0.0,100%,35%)" stroke-width="0.00193"></path>
<path d="M0.792 0.599 Q1.093 0.446 0.859 0.266" stroke="hsl(0.0,100%,35%)" stroke-width="0.00966"></path>
<path d="M0.792 0.599 Q0.854 0.770 1.200 0.777" stroke="hsl(0.0,100%,35%)" stroke-width="0.02125"></path>
<path d="M0.792 0.599 Q0.820 0.515 0.661 0.483" stroke="hsl(0.0,100%,35%)" stroke-width="0.00386"></path>
<path d="M0.792 0.599 Q1.020 0.300 0.486 0.123" stroke="hsl(0.0,100%,35%)" stroke-width="0.00386"></path>
<path d="M0.792 0.599 Q1.165 0.682 1.408 0.518" stroke="hsl(0.0,100%,35%)" stroke-width="0.00386"></path>
<path d="M0.792 0.599 Q1.389 0.370 1.073 0.028" stroke="hsl(0.0,100%,35%)" stroke-width="0.00193"></path>
<path d="M0.792 0.599 Q0.990 0.497 0.834 0.379" stroke="hsl(0.0,100%,35%)" stroke-width="0.00386"></path>
<path d="M0.792 0.599 Q1.468 0.782 1.974 0.493" stroke="hsl(0.0,100%,35%)" stroke-width="0.00579"></path>
<path d="M1.127 0.477 Q0.862 0.471 0.792 0.599" stroke="hsl(0.0,100%,35%)" stroke-width="0.01159"></path>
<path d="M1.127 0.477 Q1.090 0.172 0.486 0.123" stroke="hsl(0.0,100%,35%)" stroke-width="0.01545"></path>
<path d="M1.127 0.477 Q1.235 0.554 1.408 0.518" stroke="hsl(0.0,100%,35%)" stroke-width="0.00386"></path>
<path d="M1.127 0.477 Q1.278 0.453 1.264 0.375" stroke="hsl(0.0,100%,35%)" stroke-width="0.00193"></path>
<path d="M1.127 0.477 Q1.459 0.242 1.073 0.028" stroke="hsl(0.0,100%,35%)" stroke-width="0.00193"></path>
<path d="M1.127 0.477 Q0.924 0.642 1.200 0.777" stroke="hsl(0.0,100%,35%)" stroke-width="0.00193"></path>
<path d="M0.486 0.123 Q0.320 0.593 1.200 0.777" stroke="hsl(0.0,100%,35%)" stroke-width="0.00966"></path>
<path d="M0.486 0.123 Q0.523 0.428 1.127 0.477" stroke="hsl(0.0,100%,35%)" stroke-width="0.02318"></path>
<path d="M0.486 0.123 Q0.258 0.422 0.792 0.599" stroke="hsl(0.0,100%,35%)" stroke-width="0.02704"></path>
<path d="M0.486 0.123 Q0.631 0.505 1.408 0.518" stroke="hsl(0.0,100%,35%)" stroke-width="0.00579"></path>
<path d="M0.486 0.123 Q0.145 0.475 0.758 0.719" stroke="hsl(0.0,100%,35%)" stroke-width="0.00579"></path>
<path d="M0.486 0.123 Q0.886 0.266 1.253 0.103" stroke="hsl(0.0,100%,35%)" stroke-width="0.00193"></path>
<path d="M0.486 0.123 Q0.934 0.605 1.974 0.493" stroke="hsl(0.0,100%,35%)" stroke-width="0.00966"></path>
<path d="M0.486 0.123 Q0.266 0.245 0.455 0.379" stroke="hsl(0.0,100%,35%)" stroke-width="0.03283"></path>
<path d="M0.486 0.123 Q0.693 0.132 0.756 0.033" stroke="hsl(0.0,100%,35%)" stroke-width="0.00193"></path>
<path d="M0.486 0.123 Q0.212 0.224 0.348 0.380" stroke="hsl(0.0,100%,35%)" stroke-width="0.00386"></path>
<path d="M0.486 0.123 Q0.987 0.472 1.779 0.304" stroke="hsl(0.0,100%,35%)" stroke-width="0.00579"></path>
<path d="M1.237 0.236 Q1.351 0.172 1.253 0.103" stroke="hsl(180.0,100%,35%)" stroke-width="0.02125"></path>
<path d="M1.237 0.236 Q0.723 0.328 0.792 0.599" stroke="hsl(180.0,100%,35%)" stroke-width="0.00193"></path>
<path d="M1.237 0.236 Q0.611 0.382 0.758 0.719" stroke="hsl(180.0,100%,35%)" stroke-width="0.00193"></path>
<path d="M1.237 0.236 Q1.321 0.099 1.073 0.028" stroke="hsl(180.0,100%,35%)" stroke-width="0.00193"></path>
<path d="M1.253 0.103 Q1.139 0.166 1.237 0.236" stroke="hsl(180.0,100%,35%)" stroke-width="0.00386"></path>
<path d="M1.253 0.103 Q1.223 0.030 1.073 0.028" stroke="hsl(180.0,100%,35%)" stroke-width="0.00579"></path>
<path d="M1.253 0.103 Q0.512 0.312 0.758 0.719" stroke="hsl(180.0,100%,35%)" stroke-width="0.00193"></path>
<path d="M0.484 0.538 Q0.589 0.630 0.792 0.599" stroke="hsl(0.0,100%,35%)" stroke-width="0.00386"></path>
<path d="M0.484 0.538 Q0.543 0.432 0.348 0.380" stroke="hsl(0.0,100%,35%)" stroke-width="0.00386"></path>
<path d="M0.484 0.538 Q0.346 0.449 0.142 0.497" stroke="hsl(0.0,100%,35%)" stroke-width="0.00193"></path>
<path d="M0.484 0.538 Q0.855 0.636 1.127 0.477" stroke="hsl(0.0,100%,35%)" stroke-width="0.00193"></path>
<path d="M0.484 0.538 Q0.817 0.331 0.486 0.123" stroke="hsl(0.0,100%,35%)" stroke-width="0.00193"></path>
<path d="M1.200 0.777 Q1.367 0.307 0.486 0.123" stroke="hsl(0.0,100%,35%)" stroke-width="0.00193"></path>
<path d="M1.200 0.777 Q1.146 0.429 0.455 0.379" stroke="hsl(0.0,100%,35%)" stroke-width="0.00193"></path>
<path d="M1.200 0.777 Q1.026 0.660 0.758 0.719" stroke="hsl(0.0,100%,35%)" stroke-width="0.01159"></path>
<path d="M1.200 0.777 Q1.815 0.790 1.974 0.493" stroke="hsl(0.0,100%,35%)" stroke-width="0.00193"></path>
<path d="M1.200 0.777 Q1.138 0.607 0.792 0.599" stroke="hsl(0.0,100%,35%)" stroke-width="0.00193"></path>
<path d="M1.200 0.777 Q1.512 0.689 1.408 0.518" stroke="hsl(0.0,100%,35%)" stroke-width="0.00386"></path>
<path d="M0.661 0.483 Q0.633 0.567 0.792 0.599" stroke="hsl(0.0,100%,35%)" stroke-width="0.00773"></path>
<path d="M0.661 0.483 Q0.641 0.390 0.455 0.379" stroke="hsl(0.0,100%,35%)" stroke-width="0.00193"></path>
<path d="M0.661 0.483 Q0.520 0.620 0.758 0.719" stroke="hsl(0.0,100%,35%)" stroke-width="0.00193"></path>
<path d="M1.408 0.518 Q1.035 0.435 0.792 0.599" stroke="hsl(0.0,100%,35%)" stroke-width="0.00966"></path>
<path d="M1.408 0.518 Q0.922 0.488 0.758 0.719" stroke="hsl(0.0,100%,35%)" stroke-width="0.00193"></path>
<path d="M1.408 0.518 Q0.930 0.343 0.484 0.538" stroke="hsl(0.0,100%,35%)" stroke-width="0.00193"></path>
<path d="M1.408 0.518 Q1.097 0.606 1.200 0.777" stroke="hsl(0.0,100%,35%)" stroke-width="0.00579"></path>
<path d="M1.408 0.518 Q1.632 0.206 1.073 0.028" stroke="hsl(0.0,100%,35%)" stroke-width="0.00193"></path>
<path d="M1.408 0.518 Q1.561 0.459 1.479 0.372" stroke="hsl(0.0,100%,35%)" stroke-width="0.00193"></path>
<path d="M1.408 0.518 Q1.043 0.258 0.455 0.379" stroke="hsl(0.0,100%,35%)" stroke-width="0.00193"></path>
<path d="M1.408 0.518 Q1.300 0.441 1.127 0.477" stroke="hsl(0.0,100%,35%)" stroke-width="0.01738"></path>
<path d="M1.024 0.180 Q0.801 0.044 0.486 0.123" stroke="hsl(0.0,100%,35%)" stroke-width="0.00193"></path>
<path d="M1.024 0.180 Q0.750 0.159 0.648 0.288" stroke="hsl(0.0,100%,35%)" stroke-width="0.00193"></path>
<path d="M1.024 0.180 Q0.838 0.349 1.127 0.477" stroke="hsl(0.0,100%,35%)" stroke-width="0.00193"></path>
<path d="M1.779 0.304 Q1.726 0.438 1.974 0.493" stroke="hsl(0.0,100%,35%)" stroke-width="0.00579"></path>
<path d="M1.779 0.304 Q1.077 0.170 0.661 0.483" stroke="hsl(0.0,100%,35%)" stroke-width="0.00193"></path>
<path d="M1.779 0.304 Q1.057 0.077 0.455 0.379" stroke="hsl(0.0,100%,35%)" stroke-width="0.00193"></path>
<path d="M1.779 0.304 Q1.423 0.337 1.408 0.518" stroke="hsl(0.0,100%,35%)" stroke-width="0.00193"></path>
<path d="M1.538 0.823 Q1.352 0.385 0.455 0.379" stroke="hsl(0.0,100%,35%)" stroke-width="0.00193"></path>
<path d="M1.538 0.823 Q1.231 0.615 0.758 0.719" stroke="hsl(0.0,100%,35%)" stroke-width="0.00193"></path>
<path d="M1.538 0.823 Q1.792 0.845 1.890 0.726" stroke="hsl(0.0,100%,35%)" stroke-width="0.00386"></path>
<path d="M0.706 0.430 Q0.622 0.354 0.455 0.379" stroke="hsl(0.0,100%,35%)" stroke-width="0.00386"></path>
<path d="M0.706 0.430 Q0.614 0.532 0.792 0.599" stroke="hsl(0.0,100%,35%)" stroke-width="0.00193"></path>
<path d="M0.706 0.430 Q0.914 0.378 0.859 0.266" stroke="hsl(0.0,100%,35%)" stroke-width="0.00193"></path>
</g>
<text x="1.974" y="0.469" font-size="0.046872" fill="hsl(0.0,100%,20%)">alexrudenko</text>
<text x="0.455" y="0.345" font-size="0.067979" fill="hsl(0.0,100%,20%)">szuend</text>
<text x="0.792" y="0.557" font-size="0.084387" fill="hsl(0.0,100%,20%)">bmeurer</text>
<text x="1.127" y="0.444" font-size="0.066856" fill="hsl(0.0,100%,20%)">wolfi</text>
<text x="0.486" y="0.082" font-size="0.082112" fill="hsl(0.0,100%,20%)">dsv</text>
<text x="0.758" y="0.695" font-size="0.048461" fill="hsl(0.0,100%,20%)">pfaffe</text>
<text x="0.859" y="0.254" font-size="0.023028" fill="hsl(0.0,100%,20%)">yangguo</text>
<text x="1.237" y="0.218" font-size="0.034816" fill="hsl(180.0,100%,20%)">alinavarkki</text>
<text x="1.253" y="0.084" font-size="0.037939" fill="hsl(180.0,100%,20%)">andoli</text>
<text x="1.073" y="0.017" font-size="0.023028" fill="hsl(180.0,100%,20%)">nancyly</text>
<text x="0.648" y="0.282" font-size="0.012309" fill="hsl(0.0,100%,20%)">mathias</text>
<text x="0.484" y="0.525" font-size="0.026112" fill="hsl(0.0,100%,20%)">jec</text>
<text x="1.200" y="0.753" font-size="0.049237" fill="hsl(0.0,100%,20%)">ergunsh</text>
<text x="0.661" y="0.470" font-size="0.026112" fill="hsl(0.0,100%,20%)">nvitkov</text>
<text x="1.408" y="0.493" font-size="0.049237" fill="hsl(0.0,100%,20%)">kprokopenko</text>
<text x="0.834" y="0.372" font-size="0.012309" fill="hsl(0.0,100%,20%)">petermueller</text>
<text x="1.024" y="0.173" font-size="0.015076" fill="hsl(0.0,100%,20%)">chrche</text>
<text x="0.756" y="0.029" font-size="0.008704" fill="hsl(0.0,100%,20%)">asraine</text>
<text x="0.348" y="0.371" font-size="0.017408" fill="hsl(0.0,100%,20%)">changhaohan</text>
<text x="1.779" y="0.291" font-size="0.026112" fill="hsl(0.0,100%,20%)">jrandolf</text>
<text x="0.142" y="0.493" font-size="0.008704" fill="hsl(0.0,100%,20%)">semel</text>
<text x="1.479" y="0.367" font-size="0.008704" fill="hsl(0.0,100%,20%)">leese</text>
<text x="1.538" y="0.815" font-size="0.017408" fill="hsl(0.0,100%,20%)">liviurau</text>
<text x="1.890" y="0.720" font-size="0.012309" fill="hsl(0.0,100%,20%)">machenbach</text>
<text x="0.706" y="0.421" font-size="0.017408" fill="hsl(0.0,100%,20%)">seth.brenith</text>
<text x="1.264" y="0.370" font-size="0.008704" fill="hsl(0.0,100%,20%)">shuuran</text>
</svg>
