<svg width="4000" height="2000" viewBox="-0.025 -0.025 2.05 1.05" xmlns="http://www.w3.org/2000/svg">
  <style>
    path {
      fill: none;
      stroke-linecap: round;
      stroke-opacity: 0.4;
    }

    text {
      text-anchor: middle;
      alignment-baseline: hanging;
    }
  </style>
  <g opacity="0.4">
<path d="M0.159 0.421 Q0.217 0.482 0.349 0.468" stroke="hsl(0.0,100%,35%)" stroke-width="0.01248"></path>
<path d="M0.159 0.421 Q1.179 0.615 1.782 0.160" stroke="hsl(0.0,100%,35%)" stroke-width="0.00892"></path>
<path d="M0.159 0.421 Q0.851 0.532 1.219 0.219" stroke="hsl(0.0,100%,35%)" stroke-width="0.00178"></path>
<path d="M0.159 0.421 Q0.611 0.382 0.634 0.153" stroke="hsl(0.0,100%,35%)" stroke-width="0.00178"></path>
<path d="M0.159 0.421 Q0.512 0.626 0.990 0.499" stroke="hsl(0.0,100%,35%)" stroke-width="0.00357"></path>
<path d="M0.349 0.468 Q0.645 0.611 0.990 0.499" stroke="hsl(0.0,100%,35%)" stroke-width="0.01605"></path>
<path d="M0.349 0.468 Q0.291 0.406 0.159 0.421" stroke="hsl(0.0,100%,35%)" stroke-width="0.02496"></path>
<path d="M0.349 0.468 Q0.476 0.598 0.757 0.565" stroke="hsl(0.0,100%,35%)" stroke-width="0.00357"></path>
<path d="M1.782 0.160 Q1.706 0.073 1.519 0.091" stroke="hsl(0.0,100%,35%)" stroke-width="0.03745"></path>
<path d="M1.782 0.160 Q1.296 0.092 1.056 0.314" stroke="hsl(0.0,100%,35%)" stroke-width="0.00178"></path>
<path d="M1.782 0.160 Q0.761 -0.034 0.159 0.421" stroke="hsl(0.0,100%,35%)" stroke-width="0.00713"></path>
<path d="M1.782 0.160 Q0.480 0.261 0.390 0.918" stroke="hsl(0.0,100%,35%)" stroke-width="0.01070"></path>
<path d="M1.782 0.160 Q1.214 0.219 1.205 0.509" stroke="hsl(0.0,100%,35%)" stroke-width="0.00357"></path>
<path d="M1.782 0.160 Q1.115 0.171 0.990 0.499" stroke="hsl(0.0,100%,35%)" stroke-width="0.00535"></path>
<path d="M1.219 0.219 Q1.548 0.302 1.782 0.160" stroke="hsl(0.0,100%,35%)" stroke-width="0.02853"></path>
<path d="M1.219 0.219 Q0.353 0.318 0.356 0.762" stroke="hsl(0.0,100%,35%)" stroke-width="0.00357"></path>
<path d="M1.219 0.219 Q1.354 0.276 1.495 0.223" stroke="hsl(0.0,100%,35%)" stroke-width="0.00178"></path>
<path d="M1.219 0.219 Q0.666 0.524 1.140 0.861" stroke="hsl(0.0,100%,35%)" stroke-width="0.01070"></path>
<path d="M1.219 0.219 Q0.712 0.299 0.757 0.565" stroke="hsl(0.0,100%,35%)" stroke-width="0.00357"></path>
<path d="M1.219 0.219 Q1.471 0.215 1.519 0.091" stroke="hsl(0.0,100%,35%)" stroke-width="0.00892"></path>
<path d="M1.219 0.219 Q0.385 0.176 0.119 0.573" stroke="hsl(0.0,100%,35%)" stroke-width="0.00357"></path>
<path d="M1.219 0.219 Q0.246 0.403 0.390 0.918" stroke="hsl(0.0,100%,35%)" stroke-width="0.00178"></path>
<path d="M1.219 0.219 Q0.881 0.313 0.990 0.499" stroke="hsl(0.0,100%,35%)" stroke-width="0.00178"></path>
<path d="M1.219 0.219 Q0.527 0.108 0.159 0.421" stroke="hsl(0.0,100%,35%)" stroke-width="0.00357"></path>
<path d="M0.990 0.499 Q1.329 0.405 1.219 0.219" stroke="hsl(0.0,100%,35%)" stroke-width="0.00178"></path>
<path d="M0.990 0.499 Q1.581 0.401 1.519 0.091" stroke="hsl(0.0,100%,35%)" stroke-width="0.00357"></path>
<path d="M0.990 0.499 Q0.636 0.294 0.159 0.421" stroke="hsl(0.0,100%,35%)" stroke-width="0.00535"></path>
<path d="M0.990 0.499 Q0.355 0.589 0.390 0.918" stroke="hsl(0.0,100%,35%)" stroke-width="0.00178"></path>
<path d="M0.990 0.499 Q1.657 0.488 1.782 0.160" stroke="hsl(0.0,100%,35%)" stroke-width="0.00357"></path>
<path d="M0.990 0.499 Q0.821 0.485 0.757 0.565" stroke="hsl(0.0,100%,35%)" stroke-width="0.00178"></path>
<path d="M0.990 0.499 Q1.089 0.547 1.205 0.509" stroke="hsl(0.0,100%,35%)" stroke-width="0.00178"></path>
<path d="M0.773 0.993 Q1.319 1.034 1.520 0.777" stroke="hsl(180.0,100%,35%)" stroke-width="0.01070"></path>
<path d="M0.773 0.993 Q1.062 1.000 1.140 0.861" stroke="hsl(180.0,100%,35%)" stroke-width="0.01070"></path>
<path d="M0.773 0.993 Q1.154 0.856 0.971 0.640" stroke="hsl(180.0,100%,35%)" stroke-width="0.00357"></path>
<path d="M1.140 0.861 Q0.851 0.853 0.773 0.993" stroke="hsl(180.0,100%,35%)" stroke-width="0.03745"></path>
<path d="M1.140 0.861 Q1.945 0.552 1.519 0.091" stroke="hsl(180.0,100%,35%)" stroke-width="0.00535"></path>
<path d="M1.140 0.861 Q1.232 0.717 0.971 0.640" stroke="hsl(180.0,100%,35%)" stroke-width="0.01248"></path>
<path d="M1.140 0.861 Q1.106 0.919 1.212 0.948" stroke="hsl(180.0,100%,35%)" stroke-width="0.00713"></path>
<path d="M1.140 0.861 Q1.693 0.556 1.219 0.219" stroke="hsl(180.0,100%,35%)" stroke-width="0.00535"></path>
<path d="M1.140 0.861 Q1.557 0.777 1.486 0.555" stroke="hsl(180.0,100%,35%)" stroke-width="0.00535"></path>
<path d="M1.140 0.861 Q2.021 0.639 1.782 0.160" stroke="hsl(180.0,100%,35%)" stroke-width="0.00178"></path>
<path d="M1.140 0.861 Q1.397 0.895 1.520 0.777" stroke="hsl(180.0,100%,35%)" stroke-width="0.01427"></path>
<path d="M1.140 0.861 Q0.859 0.513 0.119 0.573" stroke="hsl(180.0,100%,35%)" stroke-width="0.00357"></path>
<path d="M1.140 0.861 Q1.001 0.445 0.159 0.421" stroke="hsl(180.0,100%,35%)" stroke-width="0.00178"></path>
<path d="M1.486 0.555 Q1.034 0.696 1.212 0.948" stroke="hsl(180.0,100%,35%)" stroke-width="0.00892"></path>
<path d="M1.486 0.555 Q1.300 0.255 0.674 0.279" stroke="hsl(180.0,100%,35%)" stroke-width="0.00178"></path>
<path d="M1.486 0.555 Q1.068 0.639 1.140 0.861" stroke="hsl(180.0,100%,35%)" stroke-width="0.01248"></path>
<path d="M1.486 0.555 Q1.325 0.673 1.520 0.777" stroke="hsl(180.0,100%,35%)" stroke-width="0.00178"></path>
<path d="M1.486 0.555 Q0.779 0.631 0.773 0.993" stroke="hsl(180.0,100%,35%)" stroke-width="0.00357"></path>
<path d="M0.674 0.279 Q0.442 0.663 1.140 0.861" stroke="hsl(0.0,100%,35%)" stroke-width="0.00178"></path>
<path d="M0.674 0.279 Q1.247 0.354 1.519 0.091" stroke="hsl(0.0,100%,35%)" stroke-width="0.00178"></path>
<path d="M0.674 0.279 Q0.756 0.500 1.205 0.509" stroke="hsl(0.0,100%,35%)" stroke-width="0.00178"></path>
<path d="M0.674 0.279 Q0.858 0.224 0.790 0.122" stroke="hsl(0.0,100%,35%)" stroke-width="0.00178"></path>
<path d="M0.674 0.279 Q0.755 0.208 0.634 0.153" stroke="hsl(0.0,100%,35%)" stroke-width="0.00357"></path>
<path d="M1.205 0.509 Q1.772 0.450 1.782 0.160" stroke="hsl(0.0,100%,35%)" stroke-width="0.00178"></path>
<path d="M1.205 0.509 Q0.470 0.551 0.390 0.918" stroke="hsl(0.0,100%,35%)" stroke-width="0.00178"></path>
<path d="M1.205 0.509 Q0.578 0.466 0.356 0.762" stroke="hsl(0.0,100%,35%)" stroke-width="0.00178"></path>
<path d="M1.205 0.509 Q1.105 0.461 0.990 0.499" stroke="hsl(0.0,100%,35%)" stroke-width="0.00713"></path>
<path d="M1.205 0.509 Q0.610 0.324 0.119 0.573" stroke="hsl(0.0,100%,35%)" stroke-width="0.00357"></path>
<path d="M0.390 0.918 Q1.025 0.828 0.990 0.499" stroke="hsl(0.0,100%,35%)" stroke-width="0.00178"></path>
<path d="M0.390 0.918 Q0.530 0.691 0.119 0.573" stroke="hsl(0.0,100%,35%)" stroke-width="0.00713"></path>
<path d="M0.390 0.918 Q0.856 0.815 0.757 0.565" stroke="hsl(0.0,100%,35%)" stroke-width="0.00178"></path>
<path d="M0.356 0.762 Q1.223 0.663 1.219 0.219" stroke="hsl(0.0,100%,35%)" stroke-width="0.00357"></path>
<path d="M0.356 0.762 Q0.249 0.847 0.390 0.918" stroke="hsl(0.0,100%,35%)" stroke-width="0.00357"></path>
<path d="M0.356 0.762 Q0.594 0.799 0.718 0.691" stroke="hsl(0.0,100%,35%)" stroke-width="0.00178"></path>
<path d="M0.356 0.762 Q1.065 0.678 1.056 0.314" stroke="hsl(0.0,100%,35%)" stroke-width="0.00178"></path>
<path d="M0.356 0.762 Q0.388 0.620 0.119 0.573" stroke="hsl(0.0,100%,35%)" stroke-width="0.00178"></path>
<path d="M0.328 0.227 Q0.449 0.179 0.382 0.110" stroke="hsl(0.0,100%,35%)" stroke-width="0.00178"></path>
<path d="M0.328 0.227 Q0.781 0.401 1.219 0.219" stroke="hsl(0.0,100%,35%)" stroke-width="0.00178"></path>
<path d="M0.328 0.227 Q0.088 0.290 0.159 0.421" stroke="hsl(0.0,100%,35%)" stroke-width="0.00178"></path>
<path d="M0.328 0.227 Q0.541 0.543 1.205 0.509" stroke="hsl(0.0,100%,35%)" stroke-width="0.00178"></path>
<path d="M0.328 0.227 Q0.273 0.482 0.757 0.565" stroke="hsl(0.0,100%,35%)" stroke-width="0.00178"></path>
<path d="M0.757 0.565 Q0.573 0.373 0.159 0.421" stroke="hsl(0.0,100%,35%)" stroke-width="0.00357"></path>
<path d="M0.757 0.565 Q1.265 0.484 1.219 0.219" stroke="hsl(0.0,100%,35%)" stroke-width="0.00178"></path>
<path d="M0.757 0.565 Q0.926 0.578 0.990 0.499" stroke="hsl(0.0,100%,35%)" stroke-width="0.01070"></path>
<path d="M0.757 0.565 Q0.631 0.435 0.349 0.468" stroke="hsl(0.0,100%,35%)" stroke-width="0.00178"></path>
<path d="M0.757 0.565 Q0.291 0.668 0.390 0.918" stroke="hsl(0.0,100%,35%)" stroke-width="0.00713"></path>
<path d="M1.495 0.223 Q0.669 0.055 0.159 0.421" stroke="hsl(0.0,100%,35%)" stroke-width="0.00178"></path>
<path d="M1.495 0.223 Q1.613 0.162 1.519 0.091" stroke="hsl(0.0,100%,35%)" stroke-width="0.00713"></path>
<path d="M1.495 0.223 Q1.457 0.328 1.653 0.369" stroke="hsl(0.0,100%,35%)" stroke-width="0.00178"></path>
<path d="M1.495 0.223 Q1.022 0.260 0.990 0.499" stroke="hsl(0.0,100%,35%)" stroke-width="0.00178"></path>
<path d="M1.519 0.091 Q1.595 0.178 1.782 0.160" stroke="hsl(0.0,100%,35%)" stroke-width="0.01605"></path>
<path d="M1.519 0.091 Q0.928 0.189 0.990 0.499" stroke="hsl(0.0,100%,35%)" stroke-width="0.00713"></path>
<path d="M1.519 0.091 Q0.945 0.016 0.674 0.279" stroke="hsl(0.0,100%,35%)" stroke-width="0.00178"></path>
<path d="M1.519 0.091 Q0.433 0.052 0.119 0.573" stroke="hsl(0.0,100%,35%)" stroke-width="0.00178"></path>
<path d="M1.519 0.091 Q1.267 0.095 1.219 0.219" stroke="hsl(0.0,100%,35%)" stroke-width="0.00178"></path>
<path d="M1.765 0.516 Q1.143 0.621 1.212 0.948" stroke="hsl(180.0,100%,35%)" stroke-width="0.00713"></path>
<path d="M1.765 0.516 Q1.594 0.479 1.486 0.555" stroke="hsl(180.0,100%,35%)" stroke-width="0.01070"></path>
<path d="M1.765 0.516 Q0.888 0.556 0.773 0.993" stroke="hsl(180.0,100%,35%)" stroke-width="0.00357"></path>
<path d="M1.765 0.516 Q1.177 0.563 1.140 0.861" stroke="hsl(180.0,100%,35%)" stroke-width="0.00357"></path>
<path d="M0.125 0.719 Q0.776 1.027 1.520 0.777" stroke="hsl(0.0,100%,35%)" stroke-width="0.00178"></path>
<path d="M0.125 0.719 Q0.099 0.872 0.390 0.918" stroke="hsl(0.0,100%,35%)" stroke-width="0.00357"></path>
<path d="M0.125 0.719 Q0.239 0.645 0.119 0.573" stroke="hsl(0.0,100%,35%)" stroke-width="0.00178"></path>
<path d="M1.326 0.364 Q1.231 0.285 1.056 0.314" stroke="hsl(0.0,100%,35%)" stroke-width="0.00178"></path>
<path d="M1.326 0.364 Q1.717 0.353 1.782 0.160" stroke="hsl(0.0,100%,35%)" stroke-width="0.00357"></path>
<path d="M1.326 0.364 Q0.836 0.575 1.140 0.861" stroke="hsl(0.0,100%,35%)" stroke-width="0.00178"></path>
</g>
<text x="0.159" y="0.394" font-size="0.053981" fill="hsl(0.0,100%,20%)">alexrudenko</text>
<text x="0.349" y="0.444" font-size="0.046749" fill="hsl(0.0,100%,20%)">nvitkov</text>
<text x="1.782" y="0.125" font-size="0.069530" fill="hsl(0.0,100%,20%)">szuend</text>
<text x="1.219" y="0.191" font-size="0.056381" fill="hsl(0.0,100%,20%)">dsv</text>
<text x="0.634" y="0.146" font-size="0.014095" fill="hsl(0.0,100%,20%)">mathias</text>
<text x="0.990" y="0.473" font-size="0.052740" fill="hsl(0.0,100%,20%)">ergunsh</text>
<text x="0.773" y="0.967" font-size="0.050821" fill="hsl(180.0,100%,20%)">andoli</text>
<text x="1.520" y="0.761" font-size="0.032552" fill="hsl(180.0,100%,20%)">nancyly</text>
<text x="1.140" y="0.825" font-size="0.070944" fill="hsl(180.0,100%,20%)">jacktfranklin</text>
<text x="0.971" y="0.628" font-size="0.024414" fill="hsl(180.0,100%,20%)">alinavarkki</text>
<text x="1.486" y="0.535" font-size="0.040689" fill="hsl(180.0,100%,20%)">asraine</text>
<text x="1.212" y="0.933" font-size="0.029342" fill="hsl(180.0,100%,20%)">paulirish</text>
<text x="0.674" y="0.268" font-size="0.023017" fill="hsl(0.0,100%,20%)">liviurau</text>
<text x="1.205" y="0.494" font-size="0.030449" fill="hsl(0.0,100%,20%)">bmeurer</text>
<text x="0.390" y="0.898" font-size="0.039028" fill="hsl(0.0,100%,20%)">kimanh</text>
<text x="0.356" y="0.750" font-size="0.025734" fill="hsl(0.0,100%,20%)">yangguo</text>
<text x="0.119" y="0.559" font-size="0.029342" fill="hsl(0.0,100%,20%)">kprokopenko</text>
<text x="0.328" y="0.218" font-size="0.018197" fill="hsl(0.0,100%,20%)">brunobraga</text>
<text x="0.382" y="0.105" font-size="0.008138" fill="hsl(0.0,100%,20%)">battre</text>
<text x="0.757" y="0.546" font-size="0.037292" fill="hsl(0.0,100%,20%)">wolfi</text>
<text x="1.495" y="0.211" font-size="0.023017" fill="hsl(0.0,100%,20%)">changhaohan</text>
<text x="1.519" y="0.061" font-size="0.058683" fill="hsl(0.0,100%,20%)">pfaffe</text>
<text x="1.653" y="0.365" font-size="0.008138" fill="hsl(0.0,100%,20%)">jec</text>
<text x="1.765" y="0.501" font-size="0.030449" fill="hsl(180.0,100%,20%)">cjamcl</text>
<text x="0.790" y="0.118" font-size="0.008138" fill="hsl(0.0,100%,20%)">machenbach</text>
<text x="0.125" y="0.711" font-size="0.016276" fill="hsl(0.0,100%,20%)">petermueller</text>
<text x="1.326" y="0.356" font-size="0.016276" fill="hsl(0.0,100%,20%)">rop</text>
<text x="1.056" y="0.307" font-size="0.014095" fill="hsl(0.0,100%,20%)">leese</text>
<text x="0.718" y="0.687" font-size="0.008138" fill="hsl(0.0,100%,20%)">semel</text>
</svg>
