<svg width="4000" height="2000" viewBox="-0.025 -0.025 2.05 1.05" xmlns="http://www.w3.org/2000/svg">
  <style>
    path {
      fill: none;
      stroke-linecap: round;
      stroke-opacity: 0.4;
    }

    text {
      text-anchor: middle;
      alignment-baseline: hanging;
    }
  </style>
  <g opacity="0.4">
<path d="M1.419 0.248 Q0.883 0.426 1.112 0.727" stroke="hsl(0.0,100%,35%)" stroke-width="0.00462"></path>
<path d="M1.419 0.248 Q1.088 0.172 0.867 0.317" stroke="hsl(0.0,100%,35%)" stroke-width="0.00462"></path>
<path d="M1.419 0.248 Q1.023 0.330 1.096 0.541" stroke="hsl(0.0,100%,35%)" stroke-width="0.00924"></path>
<path d="M1.419 0.248 Q0.829 0.195 0.596 0.470" stroke="hsl(0.0,100%,35%)" stroke-width="0.01848"></path>
<path d="M1.112 0.727 Q1.115 0.851 1.358 0.876" stroke="hsl(0.0,100%,35%)" stroke-width="0.01848"></path>
<path d="M1.112 0.727 Q1.648 0.549 1.419 0.248" stroke="hsl(0.0,100%,35%)" stroke-width="0.00462"></path>
<path d="M1.112 0.727 Q1.317 0.472 0.867 0.317" stroke="hsl(0.0,100%,35%)" stroke-width="0.00924"></path>
<path d="M1.112 0.727 Q1.059 0.495 0.596 0.470" stroke="hsl(0.0,100%,35%)" stroke-width="0.00924"></path>
<path d="M1.112 0.727 Q1.025 0.565 0.690 0.572" stroke="hsl(0.0,100%,35%)" stroke-width="0.00462"></path>
<path d="M1.096 0.541 Q1.161 0.383 0.867 0.317" stroke="hsl(0.0,100%,35%)" stroke-width="0.00462"></path>
<path d="M1.096 0.541 Q0.903 0.406 0.596 0.470" stroke="hsl(0.0,100%,35%)" stroke-width="0.00462"></path>
<path d="M1.096 0.541 Q0.638 0.614 0.680 0.854" stroke="hsl(0.0,100%,35%)" stroke-width="0.00462"></path>
<path d="M0.596 0.470 Q0.992 0.534 1.204 0.355" stroke="hsl(0.0,100%,35%)" stroke-width="0.02309"></path>
<path d="M0.596 0.470 Q0.789 0.606 1.096 0.541" stroke="hsl(0.0,100%,35%)" stroke-width="0.05543"></path>
<path d="M0.596 0.470 Q0.854 0.448 0.867 0.317" stroke="hsl(0.0,100%,35%)" stroke-width="0.03695"></path>
<path d="M0.596 0.470 Q0.331 0.679 0.680 0.854" stroke="hsl(0.0,100%,35%)" stroke-width="0.01386"></path>
<path d="M0.596 0.470 Q0.652 0.826 1.358 0.876" stroke="hsl(0.0,100%,35%)" stroke-width="0.01386"></path>
<path d="M0.596 0.470 Q0.562 0.540 0.690 0.572" stroke="hsl(0.0,100%,35%)" stroke-width="0.00462"></path>
<path d="M0.596 0.470 Q1.185 0.524 1.419 0.248" stroke="hsl(0.0,100%,35%)" stroke-width="0.01386"></path>
<path d="M0.596 0.470 Q0.649 0.702 1.112 0.727" stroke="hsl(0.0,100%,35%)" stroke-width="0.03695"></path>
<path d="M0.596 0.470 Q1.080 0.750 1.733 0.575" stroke="hsl(0.0,100%,35%)" stroke-width="0.00462"></path>
<path d="M0.596 0.470 Q0.461 0.509 0.508 0.583" stroke="hsl(0.0,100%,35%)" stroke-width="0.00924"></path>
<path d="M1.204 0.355 Q0.807 0.291 0.596 0.470" stroke="hsl(0.0,100%,35%)" stroke-width="0.00462"></path>
<path d="M1.204 0.355 Q0.860 0.522 1.112 0.727" stroke="hsl(0.0,100%,35%)" stroke-width="0.00462"></path>
<path d="M1.204 0.355 Q0.863 0.646 1.358 0.876" stroke="hsl(0.0,100%,35%)" stroke-width="0.00462"></path>
<path d="M0.680 0.854 Q1.203 0.623 0.867 0.317" stroke="hsl(0.0,100%,35%)" stroke-width="0.01386"></path>
<path d="M0.680 0.854 Q1.001 1.001 1.358 0.876" stroke="hsl(0.0,100%,35%)" stroke-width="0.00462"></path>
<path d="M0.680 0.854 Q0.706 0.742 0.494 0.705" stroke="hsl(0.0,100%,35%)" stroke-width="0.00462"></path>
</g>
<text x="1.419" y="0.220" font-size="0.056569" fill="hsl(0.0,100%,20%)">alexrudenko</text>
<text x="1.112" y="0.690" font-size="0.073030" fill="hsl(0.0,100%,20%)">szuend</text>
<text x="0.867" y="0.285" font-size="0.063246" fill="hsl(0.0,100%,20%)">bmeurer</text>
<text x="1.096" y="0.508" font-size="0.067330" fill="hsl(0.0,100%,20%)">wolfi</text>
<text x="0.596" y="0.410" font-size="0.120000" fill="hsl(0.0,100%,20%)">dsv</text>
<text x="1.204" y="0.331" font-size="0.046188" fill="hsl(0.0,100%,20%)">ergunsh</text>
<text x="0.680" y="0.829" font-size="0.048990" fill="hsl(0.0,100%,20%)">kprokopenko</text>
<text x="1.358" y="0.852" font-size="0.048990" fill="hsl(0.0,100%,20%)">pfaffe</text>
<text x="0.690" y="0.560" font-size="0.023094" fill="hsl(0.0,100%,20%)">andoli</text>
<text x="1.733" y="0.567" font-size="0.016330" fill="hsl(0.0,100%,20%)">asraine</text>
<text x="0.508" y="0.572" font-size="0.023094" fill="hsl(0.0,100%,20%)">changhaohan</text>
<text x="0.494" y="0.697" font-size="0.016330" fill="hsl(0.0,100%,20%)">jec</text>
</svg>
