<svg width="4000" height="2000" viewBox="-0.025 -0.025 2.05 1.05" xmlns="http://www.w3.org/2000/svg">
  <style>
    path {
      fill: none;
      stroke-linecap: round;
      stroke-opacity: 0.4;
    }

    text {
      text-anchor: middle;
      alignment-baseline: hanging;
    }
  </style>
  <g opacity="0.4">
<path d="M1.097 0.460 Q1.235 0.363 1.076 0.274" stroke="hsl(0.0,100%,35%)" stroke-width="0.01121"></path>
<path d="M1.097 0.460 Q1.024 0.564 1.212 0.623" stroke="hsl(0.0,100%,35%)" stroke-width="0.02017"></path>
<path d="M1.097 0.460 Q0.637 0.351 0.323 0.552" stroke="hsl(0.0,100%,35%)" stroke-width="0.00224"></path>
<path d="M1.097 0.460 Q0.677 0.467 0.599 0.673" stroke="hsl(0.0,100%,35%)" stroke-width="0.00672"></path>
<path d="M1.097 0.460 Q1.174 0.636 1.535 0.636" stroke="hsl(0.0,100%,35%)" stroke-width="0.00224"></path>
<path d="M1.076 0.274 Q0.669 0.273 0.579 0.471" stroke="hsl(0.0,100%,35%)" stroke-width="0.00224"></path>
<path d="M1.076 0.274 Q0.865 0.475 1.212 0.623" stroke="hsl(0.0,100%,35%)" stroke-width="0.00896"></path>
<path d="M1.076 0.274 Q1.015 0.547 1.535 0.636" stroke="hsl(0.0,100%,35%)" stroke-width="0.00224"></path>
<path d="M1.212 0.623 Q1.285 0.518 1.097 0.460" stroke="hsl(0.0,100%,35%)" stroke-width="0.07395"></path>
<path d="M1.212 0.623 Q1.454 0.551 1.366 0.417" stroke="hsl(0.0,100%,35%)" stroke-width="0.03362"></path>
<path d="M1.212 0.623 Q0.824 0.410 0.323 0.552" stroke="hsl(0.0,100%,35%)" stroke-width="0.02465"></path>
<path d="M1.212 0.623 Q0.837 0.284 0.095 0.393" stroke="hsl(0.0,100%,35%)" stroke-width="0.00896"></path>
<path d="M1.212 0.623 Q1.362 0.694 1.535 0.636" stroke="hsl(0.0,100%,35%)" stroke-width="0.01569"></path>
<path d="M1.212 0.623 Q1.819 0.492 1.697 0.167" stroke="hsl(0.0,100%,35%)" stroke-width="0.01121"></path>
<path d="M1.212 0.623 Q1.226 0.204 0.413 0.106" stroke="hsl(0.0,100%,35%)" stroke-width="0.00224"></path>
<path d="M1.212 0.623 Q1.568 0.373 1.158 0.144" stroke="hsl(0.0,100%,35%)" stroke-width="0.00448"></path>
<path d="M1.212 0.623 Q1.423 0.421 1.076 0.274" stroke="hsl(0.0,100%,35%)" stroke-width="0.00448"></path>
<path d="M1.212 0.623 Q1.016 0.420 0.579 0.471" stroke="hsl(0.0,100%,35%)" stroke-width="0.01345"></path>
<path d="M1.212 0.623 Q0.865 0.525 0.599 0.673" stroke="hsl(0.0,100%,35%)" stroke-width="0.00448"></path>
<path d="M1.212 0.623 Q1.616 0.594 1.649 0.391" stroke="hsl(0.0,100%,35%)" stroke-width="0.00224"></path>
<path d="M0.323 0.552 Q0.711 0.765 1.212 0.623" stroke="hsl(0.0,100%,35%)" stroke-width="0.02689"></path>
<path d="M0.323 0.552 Q0.364 0.668 0.599 0.673" stroke="hsl(0.0,100%,35%)" stroke-width="0.01793"></path>
<path d="M0.323 0.552 Q0.725 0.347 0.413 0.106" stroke="hsl(0.0,100%,35%)" stroke-width="0.00224"></path>
<path d="M0.323 0.552 Q0.953 0.693 1.366 0.417" stroke="hsl(0.0,100%,35%)" stroke-width="0.00224"></path>
<path d="M0.323 0.552 Q0.336 0.426 0.095 0.393" stroke="hsl(0.0,100%,35%)" stroke-width="0.00448"></path>
<path d="M0.323 0.552 Q0.746 0.565 0.865 0.362" stroke="hsl(0.0,100%,35%)" stroke-width="0.00224"></path>
<path d="M0.681 0.222 Q0.482 0.103 0.205 0.173" stroke="hsl(180.0,100%,35%)" stroke-width="0.02913"></path>
<path d="M0.681 0.222 Q0.640 0.110 0.413 0.106" stroke="hsl(180.0,100%,35%)" stroke-width="0.00224"></path>
<path d="M0.681 0.222 Q0.626 0.529 1.212 0.623" stroke="hsl(180.0,100%,35%)" stroke-width="0.00224"></path>
<path d="M0.681 0.222 Q0.776 0.600 1.535 0.636" stroke="hsl(180.0,100%,35%)" stroke-width="0.00224"></path>
<path d="M0.205 0.173 Q0.349 0.599 1.212 0.623" stroke="hsl(180.0,100%,35%)" stroke-width="0.00224"></path>
<path d="M0.205 0.173 Q0.499 0.671 1.535 0.636" stroke="hsl(180.0,100%,35%)" stroke-width="0.00224"></path>
<path d="M0.205 0.173 Q0.363 0.181 0.413 0.106" stroke="hsl(180.0,100%,35%)" stroke-width="0.00448"></path>
<path d="M1.366 0.417 Q1.124 0.489 1.212 0.623" stroke="hsl(0.0,100%,35%)" stroke-width="0.00672"></path>
<path d="M1.366 0.417 Q1.275 0.560 1.535 0.636" stroke="hsl(0.0,100%,35%)" stroke-width="0.01345"></path>
<path d="M1.366 0.417 Q0.750 0.150 0.095 0.393" stroke="hsl(0.0,100%,35%)" stroke-width="0.00448"></path>
<path d="M0.095 0.393 Q0.082 0.518 0.323 0.552" stroke="hsl(0.0,100%,35%)" stroke-width="0.02689"></path>
<path d="M0.095 0.393 Q0.711 0.659 1.366 0.417" stroke="hsl(0.0,100%,35%)" stroke-width="0.00448"></path>
<path d="M0.095 0.393 Q0.258 0.413 0.333 0.338" stroke="hsl(0.0,100%,35%)" stroke-width="0.00224"></path>
<path d="M0.095 0.393 Q0.274 0.529 0.579 0.471" stroke="hsl(0.0,100%,35%)" stroke-width="0.00224"></path>
<path d="M0.095 0.393 Q0.483 0.313 0.413 0.106" stroke="hsl(0.0,100%,35%)" stroke-width="0.00224"></path>
<path d="M0.095 0.393 Q0.469 0.731 1.212 0.623" stroke="hsl(0.0,100%,35%)" stroke-width="0.00448"></path>
<path d="M0.579 0.471 Q0.387 0.460 0.323 0.552" stroke="hsl(0.0,100%,35%)" stroke-width="0.01793"></path>
<path d="M0.579 0.471 Q0.847 0.569 1.097 0.460" stroke="hsl(0.0,100%,35%)" stroke-width="0.00448"></path>
<path d="M0.579 0.471 Q0.427 0.576 0.599 0.673" stroke="hsl(0.0,100%,35%)" stroke-width="0.00224"></path>
<path d="M1.670 0.810 Q1.244 0.528 0.599 0.673" stroke="hsl(0.0,100%,35%)" stroke-width="0.00224"></path>
<path d="M1.670 0.810 Q1.522 0.839 1.545 0.917" stroke="hsl(0.0,100%,35%)" stroke-width="0.00224"></path>
<path d="M1.670 0.810 Q1.203 0.412 0.323 0.552" stroke="hsl(0.0,100%,35%)" stroke-width="0.00224"></path>
<path d="M1.459 0.304 Q1.154 0.310 1.097 0.460" stroke="hsl(0.0,100%,35%)" stroke-width="0.00448"></path>
<path d="M1.459 0.304 Q0.886 0.212 0.579 0.471" stroke="hsl(0.0,100%,35%)" stroke-width="0.00224"></path>
<path d="M1.459 0.304 Q0.707 0.076 0.095 0.393" stroke="hsl(0.0,100%,35%)" stroke-width="0.00224"></path>
<path d="M0.942 0.052 Q1.077 0.079 1.159 0.019" stroke="hsl(0.0,100%,35%)" stroke-width="0.00448"></path>
<path d="M0.942 0.052 Q0.425 0.189 0.579 0.471" stroke="hsl(0.0,100%,35%)" stroke-width="0.00224"></path>
<path d="M0.942 0.052 Q0.771 0.463 1.535 0.636" stroke="hsl(0.0,100%,35%)" stroke-width="0.00224"></path>
<path d="M0.942 0.601 Q1.060 0.666 1.212 0.623" stroke="hsl(0.0,100%,35%)" stroke-width="0.00224"></path>
<path d="M0.942 0.601 Q1.667 0.535 1.697 0.167" stroke="hsl(0.0,100%,35%)" stroke-width="0.00224"></path>
<path d="M0.942 0.601 Q0.865 0.464 0.579 0.471" stroke="hsl(0.0,100%,35%)" stroke-width="0.00224"></path>
</g>
<text x="1.097" y="0.424" font-size="0.072344" fill="hsl(0.0,100%,20%)">alexrudenko</text>
<text x="1.076" y="0.256" font-size="0.034856" fill="hsl(0.0,100%,20%)">nvitkov</text>
<text x="1.212" y="0.569" font-size="0.106780" fill="hsl(0.0,100%,20%)">bmeurer</text>
<text x="0.323" y="0.515" font-size="0.073624" fill="hsl(0.0,100%,20%)">wolfi</text>
<text x="0.599" y="0.655" font-size="0.037442" fill="hsl(0.0,100%,20%)">dsv</text>
<text x="1.535" y="0.616" font-size="0.041015" fill="hsl(0.0,100%,20%)">pfaffe</text>
<text x="0.681" y="0.203" font-size="0.038669" fill="hsl(180.0,100%,20%)">alinavarkki</text>
<text x="0.205" y="0.153" font-size="0.039860" fill="hsl(180.0,100%,20%)">andoli</text>
<text x="0.413" y="0.094" font-size="0.023680" fill="hsl(180.0,100%,20%)">nancyly</text>
<text x="1.366" y="0.391" font-size="0.052060" fill="hsl(0.0,100%,20%)">ergunsh</text>
<text x="0.095" y="0.367" font-size="0.051155" fill="hsl(0.0,100%,20%)">kprokopenko</text>
<text x="1.697" y="0.155" font-size="0.023680" fill="hsl(0.0,100%,20%)">yangguo</text>
<text x="1.158" y="0.137" font-size="0.013672" fill="hsl(0.0,100%,20%)">petermueller</text>
<text x="0.579" y="0.449" font-size="0.045344" fill="hsl(0.0,100%,20%)">szuend</text>
<text x="1.649" y="0.386" font-size="0.009667" fill="hsl(0.0,100%,20%)">jec</text>
<text x="1.670" y="0.802" font-size="0.016744" fill="hsl(0.0,100%,20%)">chrche</text>
<text x="1.545" y="0.912" font-size="0.009667" fill="hsl(0.0,100%,20%)">mathias</text>
<text x="1.459" y="0.295" font-size="0.019335" fill="hsl(0.0,100%,20%)">jrandolf</text>
<text x="0.333" y="0.333" font-size="0.009667" fill="hsl(0.0,100%,20%)">leese</text>
<text x="0.942" y="0.043" font-size="0.019335" fill="hsl(0.0,100%,20%)">liviurau</text>
<text x="1.159" y="0.012" font-size="0.013672" fill="hsl(0.0,100%,20%)">machenbach</text>
<text x="0.942" y="0.593" font-size="0.016744" fill="hsl(0.0,100%,20%)">seth.brenith</text>
<text x="0.865" y="0.357" font-size="0.009667" fill="hsl(0.0,100%,20%)">shuuran</text>
</svg>
