<svg width="4000" height="2000" viewBox="-0.025 -0.025 2.05 1.05" xmlns="http://www.w3.org/2000/svg">
  <style>
    path {
      fill: none;
      stroke-linecap: round;
      stroke-opacity: 0.4;
    }

    text {
      text-anchor: middle;
      alignment-baseline: hanging;
    }
  </style>
  <g opacity="0.4">
<path d="M1.024 0.339 Q0.704 0.331 0.617 0.485" stroke="hsl(0.0,100%,35%)" stroke-width="0.00757"></path>
<path d="M1.024 0.339 Q0.827 0.320 0.748 0.412" stroke="hsl(0.0,100%,35%)" stroke-width="0.00757"></path>
<path d="M1.024 0.339 Q1.173 0.374 1.274 0.309" stroke="hsl(0.0,100%,35%)" stroke-width="0.00206"></path>
<path d="M1.024 0.339 Q0.502 0.277 0.267 0.518" stroke="hsl(0.0,100%,35%)" stroke-width="0.01169"></path>
<path d="M1.024 0.339 Q0.874 0.463 1.083 0.563" stroke="hsl(0.0,100%,35%)" stroke-width="0.00069"></path>
<path d="M1.024 0.339 Q1.168 0.214 0.956 0.116" stroke="hsl(0.0,100%,35%)" stroke-width="0.00413"></path>
<path d="M1.024 0.339 Q0.913 0.173 0.564 0.191" stroke="hsl(0.0,100%,35%)" stroke-width="0.00069"></path>
<path d="M1.024 0.339 Q1.008 0.406 1.135 0.428" stroke="hsl(0.0,100%,35%)" stroke-width="0.00825"></path>
<path d="M1.024 0.339 Q0.770 0.068 0.186 0.132" stroke="hsl(0.0,100%,35%)" stroke-width="0.00069"></path>
<path d="M0.617 0.485 Q0.787 0.617 1.083 0.563" stroke="hsl(0.0,100%,35%)" stroke-width="0.00825"></path>
<path d="M0.617 0.485 Q0.937 0.493 1.024 0.339" stroke="hsl(0.0,100%,35%)" stroke-width="0.01307"></path>
<path d="M0.617 0.485 Q0.741 0.475 0.748 0.412" stroke="hsl(0.0,100%,35%)" stroke-width="0.00413"></path>
<path d="M0.617 0.485 Q0.416 0.431 0.267 0.518" stroke="hsl(0.0,100%,35%)" stroke-width="0.00688"></path>
<path d="M0.617 0.485 Q1.086 0.528 1.274 0.309" stroke="hsl(0.0,100%,35%)" stroke-width="0.01032"></path>
<path d="M0.617 0.485 Q0.465 0.467 0.398 0.538" stroke="hsl(0.0,100%,35%)" stroke-width="0.00275"></path>
<path d="M0.617 0.485 Q0.684 0.222 0.186 0.132" stroke="hsl(0.0,100%,35%)" stroke-width="0.00069"></path>
<path d="M0.617 0.485 Q0.600 0.634 0.888 0.675" stroke="hsl(0.0,100%,35%)" stroke-width="0.00138"></path>
<path d="M0.748 0.412 Q0.624 0.422 0.617 0.485" stroke="hsl(0.0,100%,35%)" stroke-width="0.04884"></path>
<path d="M0.748 0.412 Q0.795 0.555 1.083 0.563" stroke="hsl(0.0,100%,35%)" stroke-width="0.01995"></path>
<path d="M0.748 0.412 Q1.094 0.466 1.274 0.309" stroke="hsl(0.0,100%,35%)" stroke-width="0.01238"></path>
<path d="M0.748 0.412 Q0.472 0.405 0.398 0.538" stroke="hsl(0.0,100%,35%)" stroke-width="0.00069"></path>
<path d="M0.748 0.412 Q0.807 0.336 0.672 0.291" stroke="hsl(0.0,100%,35%)" stroke-width="0.00069"></path>
<path d="M0.748 0.412 Q0.928 0.498 1.135 0.428" stroke="hsl(0.0,100%,35%)" stroke-width="0.00963"></path>
<path d="M0.748 0.412 Q0.608 0.572 0.888 0.675" stroke="hsl(0.0,100%,35%)" stroke-width="0.01720"></path>
<path d="M0.748 0.412 Q1.089 0.306 0.956 0.116" stroke="hsl(0.0,100%,35%)" stroke-width="0.00138"></path>
<path d="M0.748 0.412 Q0.423 0.369 0.267 0.518" stroke="hsl(0.0,100%,35%)" stroke-width="0.00688"></path>
<path d="M0.748 0.412 Q0.599 0.497 0.733 0.589" stroke="hsl(0.0,100%,35%)" stroke-width="0.00757"></path>
<path d="M0.748 0.412 Q0.766 0.220 0.394 0.169" stroke="hsl(0.0,100%,35%)" stroke-width="0.00069"></path>
<path d="M0.748 0.412 Q0.480 0.446 0.488 0.584" stroke="hsl(0.0,100%,35%)" stroke-width="0.00206"></path>
<path d="M0.748 0.412 Q0.944 0.431 1.024 0.339" stroke="hsl(0.0,100%,35%)" stroke-width="0.02545"></path>
<path d="M0.748 0.412 Q0.569 0.283 0.278 0.342" stroke="hsl(0.0,100%,35%)" stroke-width="0.00069"></path>
<path d="M0.748 0.412 Q0.691 0.160 0.186 0.132" stroke="hsl(0.0,100%,35%)" stroke-width="0.00138"></path>
<path d="M0.748 0.412 Q0.855 0.628 1.300 0.623" stroke="hsl(0.0,100%,35%)" stroke-width="0.00069"></path>
<path d="M1.274 0.309 Q0.929 0.255 0.748 0.412" stroke="hsl(0.0,100%,35%)" stroke-width="0.01376"></path>
<path d="M1.274 0.309 Q0.603 0.212 0.267 0.518" stroke="hsl(0.0,100%,35%)" stroke-width="0.01238"></path>
<path d="M1.274 0.309 Q0.780 0.341 0.733 0.589" stroke="hsl(0.0,100%,35%)" stroke-width="0.00550"></path>
<path d="M1.274 0.309 Q1.317 0.428 1.560 0.433" stroke="hsl(0.0,100%,35%)" stroke-width="0.00069"></path>
<path d="M1.274 0.309 Q0.946 0.063 0.394 0.169" stroke="hsl(0.0,100%,35%)" stroke-width="0.00069"></path>
<path d="M1.274 0.309 Q0.788 0.415 0.888 0.675" stroke="hsl(0.0,100%,35%)" stroke-width="0.00138"></path>
<path d="M1.274 0.309 Q0.975 0.398 1.083 0.563" stroke="hsl(0.0,100%,35%)" stroke-width="0.00069"></path>
<path d="M1.274 0.309 Q0.805 0.265 0.617 0.485" stroke="hsl(0.0,100%,35%)" stroke-width="0.00619"></path>
<path d="M1.274 0.309 Q0.872 0.003 0.186 0.132" stroke="hsl(0.0,100%,35%)" stroke-width="0.00069"></path>
<path d="M1.274 0.309 Q1.109 0.341 1.135 0.428" stroke="hsl(0.0,100%,35%)" stroke-width="0.00069"></path>
<path d="M1.274 0.309 Q1.014 0.108 0.564 0.191" stroke="hsl(0.0,100%,35%)" stroke-width="0.00069"></path>
<path d="M1.274 0.309 Q0.988 0.179 0.672 0.291" stroke="hsl(0.0,100%,35%)" stroke-width="0.00069"></path>
<path d="M0.267 0.518 Q0.452 0.721 0.888 0.675" stroke="hsl(0.0,100%,35%)" stroke-width="0.01445"></path>
<path d="M0.267 0.518 Q0.938 0.615 1.274 0.309" stroke="hsl(0.0,100%,35%)" stroke-width="0.01238"></path>
<path d="M0.267 0.518 Q0.592 0.561 0.748 0.412" stroke="hsl(0.0,100%,35%)" stroke-width="0.01513"></path>
<path d="M0.267 0.518 Q0.443 0.646 0.733 0.589" stroke="hsl(0.0,100%,35%)" stroke-width="0.00344"></path>
<path d="M0.267 0.518 Q0.639 0.704 1.083 0.563" stroke="hsl(0.0,100%,35%)" stroke-width="0.00344"></path>
<path d="M0.267 0.518 Q0.535 0.309 0.186 0.132" stroke="hsl(0.0,100%,35%)" stroke-width="0.00069"></path>
<path d="M0.267 0.518 Q0.788 0.580 1.024 0.339" stroke="hsl(0.0,100%,35%)" stroke-width="0.00757"></path>
<path d="M0.267 0.518 Q0.468 0.571 0.617 0.485" stroke="hsl(0.0,100%,35%)" stroke-width="0.02408"></path>
<path d="M0.267 0.518 Q0.853 0.916 1.759 0.717" stroke="hsl(0.0,100%,35%)" stroke-width="0.00069"></path>
<path d="M0.267 0.518 Q0.699 0.777 1.300 0.623" stroke="hsl(0.0,100%,35%)" stroke-width="0.00138"></path>
<path d="M0.267 0.518 Q0.061 0.563 0.105 0.673" stroke="hsl(0.0,100%,35%)" stroke-width="0.00206"></path>
<path d="M0.267 0.518 Q0.651 0.485 0.672 0.291" stroke="hsl(0.0,100%,35%)" stroke-width="0.00069"></path>
<path d="M1.083 0.563 Q0.896 0.580 0.888 0.675" stroke="hsl(0.0,100%,35%)" stroke-width="0.01513"></path>
<path d="M1.083 0.563 Q1.037 0.421 0.748 0.412" stroke="hsl(0.0,100%,35%)" stroke-width="0.00206"></path>
<path d="M1.083 0.563 Q0.858 0.291 0.278 0.342" stroke="hsl(0.0,100%,35%)" stroke-width="0.00069"></path>
<path d="M1.083 0.563 Q0.913 0.431 0.617 0.485" stroke="hsl(0.0,100%,35%)" stroke-width="0.00138"></path>
<path d="M1.083 0.563 Q1.144 0.637 1.300 0.623" stroke="hsl(0.0,100%,35%)" stroke-width="0.00069"></path>
<path d="M0.956 0.116 Q0.615 0.222 0.748 0.412" stroke="hsl(0.0,100%,35%)" stroke-width="0.00275"></path>
<path d="M0.956 0.116 Q0.491 0.233 0.617 0.485" stroke="hsl(0.0,100%,35%)" stroke-width="0.00069"></path>
<path d="M0.956 0.116 Q0.662 0.365 1.083 0.563" stroke="hsl(0.0,100%,35%)" stroke-width="0.00069"></path>
<path d="M0.564 0.191 Q0.422 0.086 0.186 0.132" stroke="hsl(180.0,100%,35%)" stroke-width="0.01720"></path>
<path d="M0.564 0.191 Q0.308 0.129 0.133 0.240" stroke="hsl(180.0,100%,35%)" stroke-width="0.00069"></path>
<path d="M0.564 0.191 Q0.675 0.357 1.024 0.339" stroke="hsl(180.0,100%,35%)" stroke-width="0.00069"></path>
<path d="M0.564 0.191 Q0.355 0.348 0.617 0.485" stroke="hsl(180.0,100%,35%)" stroke-width="0.00069"></path>
<path d="M1.135 0.428 Q1.300 0.396 1.274 0.309" stroke="hsl(0.0,100%,35%)" stroke-width="0.00275"></path>
<path d="M1.135 0.428 Q0.955 0.343 0.748 0.412" stroke="hsl(0.0,100%,35%)" stroke-width="0.00206"></path>
<path d="M1.135 0.428 Q1.295 0.236 0.956 0.116" stroke="hsl(0.0,100%,35%)" stroke-width="0.00069"></path>
<path d="M1.135 0.428 Q1.151 0.361 1.024 0.339" stroke="hsl(0.0,100%,35%)" stroke-width="0.00206"></path>
<path d="M1.135 0.428 Q0.806 0.428 0.733 0.589" stroke="hsl(0.0,100%,35%)" stroke-width="0.00069"></path>
<path d="M0.186 0.132 Q0.073 0.175 0.133 0.240" stroke="hsl(180.0,100%,35%)" stroke-width="0.00413"></path>
<path d="M0.186 0.132 Q0.260 0.192 0.394 0.169" stroke="hsl(180.0,100%,35%)" stroke-width="0.00344"></path>
<path d="M0.186 0.132 Q0.290 0.527 1.083 0.563" stroke="hsl(180.0,100%,35%)" stroke-width="0.00069"></path>
<path d="M0.186 0.132 Q0.243 0.384 0.748 0.412" stroke="hsl(180.0,100%,35%)" stroke-width="0.00206"></path>
<path d="M0.186 0.132 Q0.328 0.237 0.564 0.191" stroke="hsl(180.0,100%,35%)" stroke-width="0.00275"></path>
<path d="M0.186 0.132 Q0.119 0.395 0.617 0.485" stroke="hsl(180.0,100%,35%)" stroke-width="0.00069"></path>
<path d="M0.133 0.240 Q0.246 0.197 0.186 0.132" stroke="hsl(180.0,100%,35%)" stroke-width="0.01857"></path>
<path d="M0.133 0.240 Q0.303 0.449 0.748 0.412" stroke="hsl(180.0,100%,35%)" stroke-width="0.00069"></path>
<path d="M0.133 0.240 Q0.350 0.592 1.083 0.563" stroke="hsl(180.0,100%,35%)" stroke-width="0.00069"></path>
<path d="M0.133 0.240 Q0.321 0.257 0.394 0.169" stroke="hsl(180.0,100%,35%)" stroke-width="0.00069"></path>
<path d="M0.133 0.240 Q0.388 0.302 0.564 0.191" stroke="hsl(180.0,100%,35%)" stroke-width="0.00619"></path>
<path d="M0.133 0.240 Q-0.144 0.384 0.076 0.551" stroke="hsl(180.0,100%,35%)" stroke-width="0.00069"></path>
<path d="M1.759 0.717 Q1.960 0.638 1.848 0.523" stroke="hsl(180.0,100%,35%)" stroke-width="0.00275"></path>
<path d="M1.759 0.717 Q1.441 0.110 0.186 0.132" stroke="hsl(180.0,100%,35%)" stroke-width="0.00206"></path>
<path d="M1.759 0.717 Q1.629 0.120 0.434 0.052" stroke="hsl(180.0,100%,35%)" stroke-width="0.00275"></path>
<path d="M1.848 0.523 Q1.330 -0.005 0.186 0.132" stroke="hsl(180.0,100%,35%)" stroke-width="0.00069"></path>
<path d="M1.848 0.523 Q1.518 0.004 0.434 0.052" stroke="hsl(180.0,100%,35%)" stroke-width="0.00069"></path>
<path d="M1.848 0.523 Q1.263 0.257 0.617 0.485" stroke="hsl(180.0,100%,35%)" stroke-width="0.00069"></path>
<path d="M0.434 0.052 Q0.246 0.042 0.186 0.132" stroke="hsl(180.0,100%,35%)" stroke-width="0.00550"></path>
<path d="M0.434 0.052 Q0.388 0.147 0.564 0.191" stroke="hsl(180.0,100%,35%)" stroke-width="0.00069"></path>
<path d="M0.434 0.052 Q0.499 0.313 1.024 0.339" stroke="hsl(180.0,100%,35%)" stroke-width="0.00069"></path>
<path d="M0.434 0.052 Q0.564 0.650 1.759 0.717" stroke="hsl(180.0,100%,35%)" stroke-width="0.00069"></path>
<path d="M0.672 0.291 Q0.613 0.367 0.748 0.412" stroke="hsl(0.0,100%,35%)" stroke-width="0.00206"></path>
<path d="M0.672 0.291 Q0.720 0.583 1.300 0.623" stroke="hsl(0.0,100%,35%)" stroke-width="0.00138"></path>
<path d="M0.672 0.291 Q0.808 0.267 0.792 0.196" stroke="hsl(0.0,100%,35%)" stroke-width="0.00069"></path>
<path d="M0.672 0.291 Q0.959 0.420 1.274 0.309" stroke="hsl(0.0,100%,35%)" stroke-width="0.00069"></path>
<path d="M0.672 0.291 Q0.288 0.323 0.267 0.518" stroke="hsl(0.0,100%,35%)" stroke-width="0.00069"></path>
<path d="M0.672 0.291 Q0.556 0.114 0.186 0.132" stroke="hsl(0.0,100%,35%)" stroke-width="0.00069"></path>
<path d="M0.672 0.291 Q0.489 0.377 0.617 0.485" stroke="hsl(0.0,100%,35%)" stroke-width="0.00138"></path>
<path d="M0.888 0.675 Q0.704 0.472 0.267 0.518" stroke="hsl(0.0,100%,35%)" stroke-width="0.00069"></path>
<path d="M0.888 0.675 Q0.905 0.526 0.617 0.485" stroke="hsl(0.0,100%,35%)" stroke-width="0.00275"></path>
<path d="M0.888 0.675 Q1.075 0.658 1.083 0.563" stroke="hsl(0.0,100%,35%)" stroke-width="0.00963"></path>
<path d="M0.888 0.675 Q1.225 0.534 1.024 0.339" stroke="hsl(0.0,100%,35%)" stroke-width="0.00069"></path>
<path d="M0.888 0.675 Q1.029 0.516 0.748 0.412" stroke="hsl(0.0,100%,35%)" stroke-width="0.00413"></path>
<path d="M0.888 0.675 Q0.880 0.601 0.733 0.589" stroke="hsl(0.0,100%,35%)" stroke-width="0.00206"></path>
<path d="M0.888 0.675 Q1.160 0.273 0.434 0.052" stroke="hsl(0.0,100%,35%)" stroke-width="0.00069"></path>
<path d="M0.888 0.675 Q1.136 0.732 1.300 0.623" stroke="hsl(0.0,100%,35%)" stroke-width="0.00138"></path>
<path d="M0.888 0.675 Q0.594 0.590 0.362 0.715" stroke="hsl(0.0,100%,35%)" stroke-width="0.00138"></path>
<path d="M0.733 0.589 Q0.882 0.503 0.748 0.412" stroke="hsl(0.0,100%,35%)" stroke-width="0.01307"></path>
<path d="M0.733 0.589 Q0.929 0.646 1.083 0.563" stroke="hsl(0.0,100%,35%)" stroke-width="0.00069"></path>
<path d="M0.733 0.589 Q0.941 0.428 0.672 0.291" stroke="hsl(0.0,100%,35%)" stroke-width="0.00069"></path>
<path d="M0.733 0.589 Q0.742 0.663 0.888 0.675" stroke="hsl(0.0,100%,35%)" stroke-width="0.00206"></path>
<path d="M0.733 0.589 Q0.900 0.311 0.394 0.169" stroke="hsl(0.0,100%,35%)" stroke-width="0.00069"></path>
<path d="M0.733 0.589 Q0.703 0.374 0.278 0.342" stroke="hsl(0.0,100%,35%)" stroke-width="0.00069"></path>
<path d="M0.733 0.589 Q0.758 0.514 0.617 0.485" stroke="hsl(0.0,100%,35%)" stroke-width="0.00069"></path>
<path d="M0.733 0.589 Q1.228 0.557 1.274 0.309" stroke="hsl(0.0,100%,35%)" stroke-width="0.01101"></path>
<path d="M0.733 0.589 Q0.557 0.460 0.267 0.518" stroke="hsl(0.0,100%,35%)" stroke-width="0.00206"></path>
<path d="M0.733 0.589 Q0.825 0.251 0.186 0.132" stroke="hsl(0.0,100%,35%)" stroke-width="0.00069"></path>
<path d="M0.733 0.589 Q1.078 0.522 1.024 0.339" stroke="hsl(0.0,100%,35%)" stroke-width="0.00138"></path>
<path d="M0.278 0.342 Q0.286 0.262 0.133 0.240" stroke="hsl(180.0,100%,35%)" stroke-width="0.00206"></path>
<path d="M0.278 0.342 Q0.308 0.556 0.733 0.589" stroke="hsl(180.0,100%,35%)" stroke-width="0.00069"></path>
<path d="M0.278 0.342 Q0.653 0.490 1.024 0.339" stroke="hsl(180.0,100%,35%)" stroke-width="0.00069"></path>
<path d="M0.278 0.342 Q0.503 0.614 1.083 0.563" stroke="hsl(180.0,100%,35%)" stroke-width="0.00069"></path>
<path d="M1.300 0.623 Q1.240 0.550 1.083 0.563" stroke="hsl(0.0,100%,35%)" stroke-width="0.00206"></path>
<path d="M1.300 0.623 Q1.053 0.567 0.888 0.675" stroke="hsl(0.0,100%,35%)" stroke-width="0.00206"></path>
<path d="M1.300 0.623 Q0.758 0.482 0.362 0.715" stroke="hsl(0.0,100%,35%)" stroke-width="0.00069"></path>
<path d="M1.300 0.623 Q1.070 0.417 0.617 0.485" stroke="hsl(0.0,100%,35%)" stroke-width="0.00069"></path>
<path d="M0.362 0.715 Q0.674 0.651 0.617 0.485" stroke="hsl(0.0,100%,35%)" stroke-width="0.00206"></path>
<path d="M0.362 0.715 Q0.844 0.783 1.083 0.563" stroke="hsl(0.0,100%,35%)" stroke-width="0.00069"></path>
<path d="M0.362 0.715 Q0.364 0.620 0.179 0.598" stroke="hsl(0.0,100%,35%)" stroke-width="0.00138"></path>
<path d="M0.362 0.715 Q0.522 0.633 0.398 0.538" stroke="hsl(0.0,100%,35%)" stroke-width="0.00069"></path>
<path d="M0.148 0.328 Q0.056 0.446 0.267 0.518" stroke="hsl(180.0,100%,35%)" stroke-width="0.00069"></path>
<path d="M0.148 0.328 Q0.105 0.482 0.398 0.538" stroke="hsl(180.0,100%,35%)" stroke-width="0.00069"></path>
<path d="M0.148 0.328 Q0.726 0.543 1.274 0.309" stroke="hsl(180.0,100%,35%)" stroke-width="0.00069"></path>
<path d="M0.148 0.328 Q0.577 0.508 1.024 0.339" stroke="hsl(180.0,100%,35%)" stroke-width="0.00069"></path>
<path d="M0.148 0.328 Q0.210 0.281 0.133 0.240" stroke="hsl(180.0,100%,35%)" stroke-width="0.00138"></path>
<path d="M0.105 0.673 Q0.832 0.690 1.024 0.339" stroke="hsl(0.0,100%,35%)" stroke-width="0.00206"></path>
<path d="M0.105 0.673 Q0.976 0.565 0.956 0.116" stroke="hsl(0.0,100%,35%)" stroke-width="0.00069"></path>
<path d="M0.105 0.673 Q0.512 0.682 0.617 0.485" stroke="hsl(0.0,100%,35%)" stroke-width="0.00069"></path>
<path d="M0.105 0.673 Q0.487 0.757 0.733 0.589" stroke="hsl(0.0,100%,35%)" stroke-width="0.00069"></path>
<path d="M1.617 0.237 Q1.388 0.205 1.274 0.309" stroke="hsl(0.0,100%,35%)" stroke-width="0.00206"></path>
<path d="M1.617 0.237 Q1.239 0.170 1.024 0.339" stroke="hsl(0.0,100%,35%)" stroke-width="0.00069"></path>
<path d="M1.617 0.237 Q0.718 0.108 0.267 0.518" stroke="hsl(0.0,100%,35%)" stroke-width="0.00069"></path>
<path d="M0.669 0.281 Q0.651 0.505 1.083 0.563" stroke="hsl(0.0,100%,35%)" stroke-width="0.00206"></path>
<path d="M0.669 0.281 Q0.950 0.416 1.274 0.309" stroke="hsl(0.0,100%,35%)" stroke-width="0.00138"></path>
<path d="M0.669 0.281 Q0.547 0.110 0.186 0.132" stroke="hsl(0.0,100%,35%)" stroke-width="0.00069"></path>
<path d="M0.669 0.281 Q0.604 0.362 0.748 0.412" stroke="hsl(0.0,100%,35%)" stroke-width="0.00206"></path>
<path d="M0.669 0.281 Q0.328 0.355 0.398 0.538" stroke="hsl(0.0,100%,35%)" stroke-width="0.00069"></path>
<path d="M0.669 0.281 Q0.455 0.448 0.733 0.589" stroke="hsl(0.0,100%,35%)" stroke-width="0.00069"></path>
<path d="M0.519 0.269 Q0.395 0.396 0.617 0.485" stroke="hsl(0.0,100%,35%)" stroke-width="0.00275"></path>
<path d="M0.519 0.269 Q0.519 0.386 0.748 0.412" stroke="hsl(0.0,100%,35%)" stroke-width="0.00069"></path>
<path d="M0.519 0.269 Q0.699 0.472 1.135 0.428" stroke="hsl(0.0,100%,35%)" stroke-width="0.00069"></path>
<path d="M1.319 0.835 Q1.509 0.937 1.750 0.867" stroke="hsl(0.0,100%,35%)" stroke-width="0.00069"></path>
<path d="M1.319 0.835 Q1.047 0.466 0.267 0.518" stroke="hsl(0.0,100%,35%)" stroke-width="0.00069"></path>
<path d="M1.319 0.835 Q1.081 0.785 0.931 0.891" stroke="hsl(0.0,100%,35%)" stroke-width="0.00069"></path>
</g>
<text x="1.024" y="0.310" font-size="0.057869" fill="hsl(0.0,100%,20%)">alexrudenko</text>
<text x="0.617" y="0.449" font-size="0.071039" fill="hsl(0.0,100%,20%)">szuend</text>
<text x="0.748" y="0.368" font-size="0.087869" fill="hsl(0.0,100%,20%)">bmeurer</text>
<text x="1.274" y="0.280" font-size="0.058070" fill="hsl(0.0,100%,20%)">wolfi</text>
<text x="0.267" y="0.485" font-size="0.066122" fill="hsl(0.0,100%,20%)">dsv</text>
<text x="1.083" y="0.539" font-size="0.048942" fill="hsl(0.0,100%,20%)">pfaffe</text>
<text x="0.956" y="0.106" font-size="0.019290" fill="hsl(0.0,100%,20%)">nvitkov</text>
<text x="0.564" y="0.175" font-size="0.031988" fill="hsl(180.0,100%,20%)">jacktfranklin</text>
<text x="1.135" y="0.413" font-size="0.030500" fill="hsl(0.0,100%,20%)">yangguo</text>
<text x="0.186" y="0.109" font-size="0.046506" fill="hsl(180.0,100%,20%)">andoli</text>
<text x="0.133" y="0.223" font-size="0.034775" fill="hsl(180.0,100%,20%)">alinavarkki</text>
<text x="0.394" y="0.162" font-size="0.014467" fill="hsl(180.0,100%,20%)">nancyly</text>
<text x="0.076" y="0.549" font-size="0.004822" fill="hsl(180.0,100%,20%)">victorporof</text>
<text x="1.759" y="0.709" font-size="0.017388" fill="hsl(180.0,100%,20%)">asraine</text>
<text x="1.848" y="0.516" font-size="0.012759" fill="hsl(180.0,100%,20%)">cjamcl</text>
<text x="0.434" y="0.042" font-size="0.019883" fill="hsl(180.0,100%,20%)">paulirish</text>
<text x="0.398" y="0.531" font-size="0.013640" fill="hsl(0.0,100%,20%)">mathias</text>
<text x="0.672" y="0.281" font-size="0.018677" fill="hsl(0.0,100%,20%)">jec</text>
<text x="0.888" y="0.650" font-size="0.051036" fill="hsl(0.0,100%,20%)">ergunsh</text>
<text x="0.733" y="0.567" font-size="0.043133" fill="hsl(0.0,100%,20%)">kprokopenko</text>
<text x="0.488" y="0.580" font-size="0.008353" fill="hsl(0.0,100%,20%)">petermueller</text>
<text x="0.278" y="0.334" font-size="0.014467" fill="hsl(180.0,100%,20%)">leese</text>
<text x="1.300" y="0.614" font-size="0.019290" fill="hsl(0.0,100%,20%)">changhaohan</text>
<text x="0.362" y="0.707" font-size="0.015250" fill="hsl(0.0,100%,20%)">liviurau</text>
<text x="0.148" y="0.322" font-size="0.011812" fill="hsl(180.0,100%,20%)">chrche</text>
<text x="0.105" y="0.666" font-size="0.014467" fill="hsl(0.0,100%,20%)">jrandolf</text>
<text x="1.617" y="0.232" font-size="0.010783" fill="hsl(0.0,100%,20%)">elormcoch</text>
<text x="0.792" y="0.193" font-size="0.004822" fill="hsl(0.0,100%,20%)">semel</text>
<text x="0.669" y="0.273" font-size="0.015994" fill="hsl(0.0,100%,20%)">kimanh</text>
<text x="0.179" y="0.595" font-size="0.006820" fill="hsl(0.0,100%,20%)">machenbach</text>
<text x="0.519" y="0.263" font-size="0.011812" fill="hsl(0.0,100%,20%)">seth.brenith</text>
<text x="1.319" y="0.831" font-size="0.008353" fill="hsl(0.0,100%,20%)">sisidovski</text>
<text x="1.750" y="0.864" font-size="0.004822" fill="hsl(0.0,100%,20%)">kouhei</text>
<text x="0.931" y="0.888" font-size="0.004822" fill="hsl(0.0,100%,20%)">yyanagisawa</text>
<text x="1.560" y="0.431" font-size="0.004822" fill="hsl(0.0,100%,20%)">shuuran</text>
</svg>
