<svg width="4000" height="2000" viewBox="-0.025 -0.025 2.05 1.05" xmlns="http://www.w3.org/2000/svg">
  <style>
    path {
      fill: none;
      stroke-linecap: round;
      stroke-opacity: 0.4;
    }

    text {
      text-anchor: middle;
      alignment-baseline: hanging;
    }
  </style>
  <g opacity="0.4">
<path d="M1.829 0.405 Q1.962 0.376 1.935 0.305" stroke="hsl(0.0,100%,35%)" stroke-width="0.00069"></path>
<path d="M1.829 0.405 Q1.607 0.574 1.890 0.720" stroke="hsl(0.0,100%,35%)" stroke-width="0.00069"></path>
<path d="M1.829 0.405 Q0.630 0.401 0.359 0.985" stroke="hsl(0.0,100%,35%)" stroke-width="0.00069"></path>
<path d="M1.890 0.720 Q1.924 0.650 1.795 0.618" stroke="hsl(0.0,100%,35%)" stroke-width="0.03514"></path>
<path d="M1.890 0.720 Q1.729 0.707 1.667 0.782" stroke="hsl(0.0,100%,35%)" stroke-width="0.00138"></path>
<path d="M1.890 0.720 Q0.913 0.546 0.359 0.985" stroke="hsl(0.0,100%,35%)" stroke-width="0.00069"></path>
<path d="M1.890 0.720 Q1.327 0.686 1.136 0.953" stroke="hsl(0.0,100%,35%)" stroke-width="0.00069"></path>
<path d="M1.890 0.720 Q1.546 0.695 1.421 0.857" stroke="hsl(0.0,100%,35%)" stroke-width="0.00207"></path>
<path d="M1.890 0.720 Q1.581 0.623 1.324 0.753" stroke="hsl(0.0,100%,35%)" stroke-width="0.00138"></path>
<path d="M0.359 0.985 Q0.773 1.124 1.136 0.953" stroke="hsl(90.0,100%,35%)" stroke-width="0.00344"></path>
<path d="M0.359 0.985 Q0.658 1.054 0.858 0.923" stroke="hsl(90.0,100%,35%)" stroke-width="0.00896"></path>
<path d="M0.359 0.985 Q0.790 0.774 0.472 0.517" stroke="hsl(90.0,100%,35%)" stroke-width="0.00482"></path>
<path d="M0.359 0.985 Q0.508 0.904 0.382 0.813" stroke="hsl(90.0,100%,35%)" stroke-width="0.02411"></path>
<path d="M0.359 0.985 Q1.027 1.062 1.324 0.753" stroke="hsl(90.0,100%,35%)" stroke-width="0.00069"></path>
<path d="M0.359 0.985 Q0.366 0.829 0.063 0.792" stroke="hsl(90.0,100%,35%)" stroke-width="0.00482"></path>
<path d="M0.359 0.985 Q1.336 1.159 1.890 0.720" stroke="hsl(90.0,100%,35%)" stroke-width="0.00138"></path>
<path d="M0.359 0.985 Q1.370 1.089 1.795 0.618" stroke="hsl(90.0,100%,35%)" stroke-width="0.00069"></path>
<path d="M0.359 0.985 Q0.652 0.743 0.244 0.547" stroke="hsl(90.0,100%,35%)" stroke-width="0.00069"></path>
<path d="M0.359 0.985 Q0.680 0.915 0.613 0.743" stroke="hsl(90.0,100%,35%)" stroke-width="0.00620"></path>
<path d="M0.359 0.985 Q0.571 1.076 0.796 0.993" stroke="hsl(90.0,100%,35%)" stroke-width="0.00069"></path>
<path d="M0.359 0.985 Q0.324 0.881 0.113 0.875" stroke="hsl(90.0,100%,35%)" stroke-width="0.00069"></path>
<path d="M1.136 0.953 Q1.390 0.891 1.324 0.753" stroke="hsl(90.0,100%,35%)" stroke-width="0.00689"></path>
<path d="M1.136 0.953 Q0.722 0.813 0.359 0.985" stroke="hsl(90.0,100%,35%)" stroke-width="0.00551"></path>
<path d="M1.136 0.953 Q1.021 0.882 0.858 0.923" stroke="hsl(90.0,100%,35%)" stroke-width="0.00551"></path>
<path d="M1.136 0.953 Q0.870 0.732 0.382 0.813" stroke="hsl(90.0,100%,35%)" stroke-width="0.00965"></path>
<path d="M1.136 0.953 Q1.153 0.602 0.472 0.517" stroke="hsl(90.0,100%,35%)" stroke-width="0.01033"></path>
<path d="M1.136 0.953 Q1.124 0.983 1.180 0.995" stroke="hsl(90.0,100%,35%)" stroke-width="0.00138"></path>
<path d="M1.136 0.953 Q1.310 0.791 1.032 0.670" stroke="hsl(90.0,100%,35%)" stroke-width="0.00069"></path>
<path d="M1.136 0.953 Q1.733 0.917 1.795 0.618" stroke="hsl(90.0,100%,35%)" stroke-width="0.00069"></path>
<path d="M0.858 0.923 Q0.973 0.993 1.136 0.953" stroke="hsl(90.0,100%,35%)" stroke-width="0.04823"></path>
<path d="M0.858 0.923 Q1.227 0.931 1.324 0.753" stroke="hsl(90.0,100%,35%)" stroke-width="0.01860"></path>
<path d="M0.858 0.923 Q0.989 0.643 0.472 0.517" stroke="hsl(90.0,100%,35%)" stroke-width="0.01378"></path>
<path d="M0.858 0.923 Q0.961 1.023 1.180 0.995" stroke="hsl(90.0,100%,35%)" stroke-width="0.00069"></path>
<path d="M0.858 0.923 Q1.191 0.711 0.851 0.502" stroke="hsl(90.0,100%,35%)" stroke-width="0.00069"></path>
<path d="M0.858 0.923 Q0.879 0.784 0.613 0.743" stroke="hsl(90.0,100%,35%)" stroke-width="0.01240"></path>
<path d="M0.858 0.923 Q1.147 0.831 1.032 0.670" stroke="hsl(90.0,100%,35%)" stroke-width="0.02067"></path>
<path d="M0.858 0.923 Q0.565 0.698 0.063 0.792" stroke="hsl(90.0,100%,35%)" stroke-width="0.00138"></path>
<path d="M0.858 0.923 Q0.707 0.773 0.382 0.813" stroke="hsl(90.0,100%,35%)" stroke-width="0.01860"></path>
<path d="M0.858 0.923 Q0.851 0.612 0.244 0.547" stroke="hsl(90.0,100%,35%)" stroke-width="0.00551"></path>
<path d="M0.858 0.923 Q1.192 1.002 1.421 0.857" stroke="hsl(90.0,100%,35%)" stroke-width="0.00069"></path>
<path d="M0.858 0.923 Q0.771 0.946 0.796 0.993" stroke="hsl(90.0,100%,35%)" stroke-width="0.00413"></path>
<path d="M0.858 0.923 Q0.559 0.854 0.359 0.985" stroke="hsl(90.0,100%,35%)" stroke-width="0.02825"></path>
<path d="M0.858 0.923 Q1.275 1.068 1.649 0.896" stroke="hsl(90.0,100%,35%)" stroke-width="0.00069"></path>
<path d="M0.858 0.923 Q1.570 0.958 1.795 0.618" stroke="hsl(90.0,100%,35%)" stroke-width="0.00138"></path>
<path d="M0.858 0.923 Q1.259 0.838 1.181 0.623" stroke="hsl(90.0,100%,35%)" stroke-width="0.00069"></path>
<path d="M0.472 0.517 Q0.341 0.797 0.858 0.923" stroke="hsl(90.0,100%,35%)" stroke-width="0.01378"></path>
<path d="M0.472 0.517 Q0.190 0.647 0.382 0.813" stroke="hsl(90.0,100%,35%)" stroke-width="0.01378"></path>
<path d="M0.472 0.517 Q0.334 0.487 0.244 0.547" stroke="hsl(90.0,100%,35%)" stroke-width="0.00551"></path>
<path d="M0.472 0.517 Q0.539 0.604 0.723 0.590" stroke="hsl(90.0,100%,35%)" stroke-width="0.00069"></path>
<path d="M0.472 0.517 Q0.675 0.877 1.421 0.857" stroke="hsl(90.0,100%,35%)" stroke-width="0.00069"></path>
<path d="M0.472 0.517 Q0.630 0.706 1.032 0.670" stroke="hsl(90.0,100%,35%)" stroke-width="0.00138"></path>
<path d="M0.472 0.517 Q0.710 0.806 1.324 0.753" stroke="hsl(90.0,100%,35%)" stroke-width="0.00069"></path>
<path d="M0.472 0.517 Q0.456 0.868 1.136 0.953" stroke="hsl(90.0,100%,35%)" stroke-width="0.00276"></path>
<path d="M0.472 0.517 Q1.053 0.833 1.795 0.618" stroke="hsl(90.0,100%,35%)" stroke-width="0.00069"></path>
<path d="M0.472 0.517 Q0.362 0.658 0.613 0.743" stroke="hsl(90.0,100%,35%)" stroke-width="0.00069"></path>
<path d="M0.472 0.517 Q1.019 0.902 1.890 0.720" stroke="hsl(90.0,100%,35%)" stroke-width="0.00138"></path>
<path d="M0.472 0.517 Q0.674 0.585 0.851 0.502" stroke="hsl(90.0,100%,35%)" stroke-width="0.00138"></path>
<path d="M0.472 0.517 Q0.663 0.535 0.739 0.446" stroke="hsl(90.0,100%,35%)" stroke-width="0.00069"></path>
<path d="M0.382 0.813 Q0.821 0.872 1.032 0.670" stroke="hsl(90.0,100%,35%)" stroke-width="0.00758"></path>
<path d="M0.382 0.813 Q0.664 0.684 0.472 0.517" stroke="hsl(90.0,100%,35%)" stroke-width="0.00965"></path>
<path d="M0.382 0.813 Q0.532 0.963 0.858 0.923" stroke="hsl(90.0,100%,35%)" stroke-width="0.01309"></path>
<path d="M0.382 0.813 Q0.526 0.653 0.244 0.547" stroke="hsl(90.0,100%,35%)" stroke-width="0.00207"></path>
<path d="M0.382 0.813 Q0.901 0.972 1.324 0.753" stroke="hsl(90.0,100%,35%)" stroke-width="0.00344"></path>
<path d="M0.382 0.813 Q1.244 0.999 1.795 0.618" stroke="hsl(90.0,100%,35%)" stroke-width="0.00069"></path>
<path d="M0.382 0.813 Q0.233 0.895 0.359 0.985" stroke="hsl(90.0,100%,35%)" stroke-width="0.00551"></path>
<path d="M0.382 0.813 Q0.647 1.034 1.136 0.953" stroke="hsl(90.0,100%,35%)" stroke-width="0.01516"></path>
<path d="M0.382 0.813 Q0.500 0.875 0.647 0.831" stroke="hsl(90.0,100%,35%)" stroke-width="0.00069"></path>
<path d="M0.382 0.813 Q0.933 0.878 1.181 0.623" stroke="hsl(90.0,100%,35%)" stroke-width="0.00138"></path>
<path d="M0.382 0.813 Q0.554 0.824 0.613 0.743" stroke="hsl(90.0,100%,35%)" stroke-width="0.00069"></path>
<path d="M0.382 0.813 Q1.210 1.068 1.890 0.720" stroke="hsl(90.0,100%,35%)" stroke-width="0.00138"></path>
<path d="M0.382 0.813 Q0.944 0.762 0.969 0.477" stroke="hsl(90.0,100%,35%)" stroke-width="0.00069"></path>
<path d="M0.382 0.813 Q0.343 0.694 0.102 0.687" stroke="hsl(90.0,100%,35%)" stroke-width="0.00207"></path>
<path d="M1.324 0.753 Q1.244 0.653 1.032 0.670" stroke="hsl(90.0,100%,35%)" stroke-width="0.01378"></path>
<path d="M1.324 0.753 Q0.955 0.745 0.858 0.923" stroke="hsl(90.0,100%,35%)" stroke-width="0.00276"></path>
<path d="M1.324 0.753 Q1.372 0.889 1.649 0.896" stroke="hsl(90.0,100%,35%)" stroke-width="0.00069"></path>
<path d="M1.324 0.753 Q1.071 0.815 1.136 0.953" stroke="hsl(90.0,100%,35%)" stroke-width="0.00207"></path>
<path d="M1.324 0.753 Q1.087 0.465 0.472 0.517" stroke="hsl(90.0,100%,35%)" stroke-width="0.00207"></path>
<path d="M1.324 0.753 Q0.805 0.595 0.382 0.813" stroke="hsl(90.0,100%,35%)" stroke-width="0.00069"></path>
<path d="M1.324 0.753 Q1.668 0.780 1.795 0.618" stroke="hsl(90.0,100%,35%)" stroke-width="0.00276"></path>
<path d="M1.324 0.753 Q1.633 0.850 1.890 0.720" stroke="hsl(90.0,100%,35%)" stroke-width="0.00138"></path>
<path d="M1.324 0.753 Q1.473 0.836 1.667 0.782" stroke="hsl(90.0,100%,35%)" stroke-width="0.00069"></path>
<path d="M1.324 0.753 Q0.656 0.676 0.359 0.985" stroke="hsl(90.0,100%,35%)" stroke-width="0.00207"></path>
<path d="M0.063 0.792 Q0.355 1.016 0.858 0.923" stroke="hsl(90.0,100%,35%)" stroke-width="0.00344"></path>
<path d="M0.063 0.792 Q0.471 1.087 1.136 0.953" stroke="hsl(90.0,100%,35%)" stroke-width="0.00138"></path>
<path d="M0.063 0.792 Q0.724 1.025 1.324 0.753" stroke="hsl(90.0,100%,35%)" stroke-width="0.00069"></path>
<path d="M0.063 0.792 Q0.056 0.947 0.359 0.985" stroke="hsl(90.0,100%,35%)" stroke-width="0.00138"></path>
<path d="M1.795 0.618 Q1.600 0.675 1.667 0.782" stroke="hsl(0.0,100%,35%)" stroke-width="0.00207"></path>
<path d="M1.795 0.618 Q1.417 0.663 1.421 0.857" stroke="hsl(0.0,100%,35%)" stroke-width="0.00207"></path>
<path d="M1.795 0.618 Q1.452 0.592 1.324 0.753" stroke="hsl(0.0,100%,35%)" stroke-width="0.00069"></path>
<path d="M1.795 0.618 Q1.083 0.583 0.858 0.923" stroke="hsl(0.0,100%,35%)" stroke-width="0.00138"></path>
<path d="M1.795 0.618 Q1.761 0.688 1.890 0.720" stroke="hsl(0.0,100%,35%)" stroke-width="0.00689"></path>
<path d="M0.244 0.547 Q0.250 0.858 0.858 0.923" stroke="hsl(90.0,100%,35%)" stroke-width="0.01171"></path>
<path d="M0.244 0.547 Q0.619 0.866 1.324 0.753" stroke="hsl(90.0,100%,35%)" stroke-width="0.00069"></path>
<path d="M0.244 0.547 Q0.583 0.646 0.851 0.502" stroke="hsl(90.0,100%,35%)" stroke-width="0.00069"></path>
<path d="M0.244 0.547 Q0.539 0.766 1.032 0.670" stroke="hsl(90.0,100%,35%)" stroke-width="0.00276"></path>
<path d="M0.244 0.547 Q0.585 0.937 1.421 0.857" stroke="hsl(90.0,100%,35%)" stroke-width="0.00069"></path>
<path d="M0.244 0.547 Q0.667 1.003 1.649 0.896" stroke="hsl(90.0,100%,35%)" stroke-width="0.00069"></path>
<path d="M0.244 0.547 Q0.365 0.928 1.136 0.953" stroke="hsl(90.0,100%,35%)" stroke-width="0.00069"></path>
<path d="M0.244 0.547 Q0.382 0.578 0.472 0.517" stroke="hsl(90.0,100%,35%)" stroke-width="0.01171"></path>
<path d="M0.244 0.547 Q0.100 0.708 0.382 0.813" stroke="hsl(90.0,100%,35%)" stroke-width="0.00207"></path>
<path d="M0.244 0.547 Q0.163 0.881 0.796 0.993" stroke="hsl(90.0,100%,35%)" stroke-width="0.00069"></path>
<path d="M0.613 0.743 Q0.723 0.602 0.472 0.517" stroke="hsl(90.0,100%,35%)" stroke-width="0.00276"></path>
<path d="M0.613 0.743 Q0.591 0.882 0.858 0.923" stroke="hsl(90.0,100%,35%)" stroke-width="0.00276"></path>
<path d="M0.613 0.743 Q0.299 0.657 0.063 0.792" stroke="hsl(90.0,100%,35%)" stroke-width="0.00069"></path>
<path d="M0.613 0.743 Q0.880 0.790 1.032 0.670" stroke="hsl(90.0,100%,35%)" stroke-width="0.00069"></path>
<path d="M0.613 0.743 Q0.292 0.813 0.359 0.985" stroke="hsl(90.0,100%,35%)" stroke-width="0.00069"></path>
<path d="M0.613 0.743 Q0.585 0.571 0.244 0.547" stroke="hsl(90.0,100%,35%)" stroke-width="0.00069"></path>
<path d="M1.667 0.782 Q1.862 0.726 1.795 0.618" stroke="hsl(0.0,100%,35%)" stroke-width="0.01309"></path>
<path d="M1.667 0.782 Q1.150 0.691 0.858 0.923" stroke="hsl(0.0,100%,35%)" stroke-width="0.00069"></path>
<path d="M1.667 0.782 Q1.519 0.699 1.324 0.753" stroke="hsl(0.0,100%,35%)" stroke-width="0.00069"></path>
<path d="M1.667 0.782 Q1.484 0.770 1.421 0.857" stroke="hsl(0.0,100%,35%)" stroke-width="0.00413"></path>
<path d="M1.667 0.782 Q1.828 0.796 1.890 0.720" stroke="hsl(0.0,100%,35%)" stroke-width="0.01033"></path>
<path d="M1.421 0.857 Q1.799 0.813 1.795 0.618" stroke="hsl(0.0,100%,35%)" stroke-width="0.00276"></path>
<path d="M1.421 0.857 Q1.604 0.869 1.667 0.782" stroke="hsl(0.0,100%,35%)" stroke-width="0.00276"></path>
<path d="M1.421 0.857 Q1.765 0.882 1.890 0.720" stroke="hsl(0.0,100%,35%)" stroke-width="0.00069"></path>
<path d="M0.851 0.502 Q0.517 0.714 0.858 0.923" stroke="hsl(90.0,100%,35%)" stroke-width="0.00138"></path>
<path d="M0.851 0.502 Q0.919 0.629 1.181 0.623" stroke="hsl(90.0,100%,35%)" stroke-width="0.00138"></path>
<path d="M0.851 0.502 Q0.930 0.513 0.969 0.477" stroke="hsl(90.0,100%,35%)" stroke-width="0.00069"></path>
<path d="M0.851 0.502 Q0.649 0.434 0.472 0.517" stroke="hsl(90.0,100%,35%)" stroke-width="0.00207"></path>
<path d="M0.851 0.502 Q0.367 0.564 0.382 0.813" stroke="hsl(90.0,100%,35%)" stroke-width="0.00069"></path>
<path d="M0.851 0.502 Q1.230 0.749 1.795 0.618" stroke="hsl(90.0,100%,35%)" stroke-width="0.00069"></path>
<path d="M0.851 0.502 Q0.633 0.784 1.136 0.953" stroke="hsl(90.0,100%,35%)" stroke-width="0.00069"></path>
<path d="M0.851 0.502 Q0.511 0.403 0.244 0.547" stroke="hsl(90.0,100%,35%)" stroke-width="0.00069"></path>
<path d="M1.032 0.670 Q0.592 0.612 0.382 0.813" stroke="hsl(90.0,100%,35%)" stroke-width="0.00138"></path>
<path d="M1.032 0.670 Q0.858 0.833 1.136 0.953" stroke="hsl(90.0,100%,35%)" stroke-width="0.00276"></path>
<path d="M1.032 0.670 Q1.112 0.770 1.324 0.753" stroke="hsl(90.0,100%,35%)" stroke-width="0.01240"></path>
<path d="M1.032 0.670 Q0.444 0.693 0.359 0.985" stroke="hsl(90.0,100%,35%)" stroke-width="0.00069"></path>
<path d="M1.032 0.670 Q0.743 0.762 0.858 0.923" stroke="hsl(90.0,100%,35%)" stroke-width="0.00620"></path>
<path d="M1.032 0.670 Q0.736 0.451 0.244 0.547" stroke="hsl(90.0,100%,35%)" stroke-width="0.00138"></path>
<path d="M1.032 0.670 Q1.776 0.668 1.935 0.305" stroke="hsl(90.0,100%,35%)" stroke-width="0.00069"></path>
<path d="M1.032 0.670 Q1.144 0.677 1.181 0.623" stroke="hsl(90.0,100%,35%)" stroke-width="0.00138"></path>
<path d="M1.032 0.670 Q1.421 0.867 1.890 0.720" stroke="hsl(90.0,100%,35%)" stroke-width="0.00069"></path>
<path d="M1.649 0.896 Q1.749 0.843 1.667 0.782" stroke="hsl(0.0,100%,35%)" stroke-width="0.00207"></path>
<path d="M1.649 0.896 Q1.225 0.441 0.244 0.547" stroke="hsl(0.0,100%,35%)" stroke-width="0.00069"></path>
<path d="M1.649 0.896 Q0.933 0.682 0.359 0.985" stroke="hsl(0.0,100%,35%)" stroke-width="0.00069"></path>
<path d="M1.649 0.896 Q1.232 0.751 0.858 0.923" stroke="hsl(0.0,100%,35%)" stroke-width="0.00069"></path>
<path d="M1.181 0.623 Q1.149 0.717 1.324 0.753" stroke="hsl(90.0,100%,35%)" stroke-width="0.00276"></path>
<path d="M1.181 0.623 Q1.069 0.617 1.032 0.670" stroke="hsl(90.0,100%,35%)" stroke-width="0.00138"></path>
<path d="M1.181 0.623 Q0.629 0.558 0.382 0.813" stroke="hsl(90.0,100%,35%)" stroke-width="0.00069"></path>
<path d="M0.844 0.270 Q0.178 0.449 0.382 0.813" stroke="hsl(90.0,100%,35%)" stroke-width="0.00069"></path>
<path d="M0.844 0.270 Q0.432 0.699 1.180 0.995" stroke="hsl(90.0,100%,35%)" stroke-width="0.00069"></path>
<path d="M0.844 0.270 Q0.460 0.319 0.472 0.517" stroke="hsl(90.0,100%,35%)" stroke-width="0.00069"></path>
<path d="M0.844 0.270 Q0.329 0.599 0.858 0.923" stroke="hsl(90.0,100%,35%)" stroke-width="0.00069"></path>
<path d="M0.102 0.687 Q-0.008 0.887 0.359 0.985" stroke="hsl(90.0,100%,35%)" stroke-width="0.00276"></path>
<path d="M0.102 0.687 Q-0.001 0.731 0.063 0.792" stroke="hsl(90.0,100%,35%)" stroke-width="0.00069"></path>
<path d="M0.102 0.687 Q0.406 1.026 1.136 0.953" stroke="hsl(90.0,100%,35%)" stroke-width="0.00069"></path>
<path d="M0.102 0.687 Q0.285 0.645 0.244 0.547" stroke="hsl(90.0,100%,35%)" stroke-width="0.00069"></path>
<path d="M0.102 0.687 Q0.141 0.806 0.382 0.813" stroke="hsl(90.0,100%,35%)" stroke-width="0.00138"></path>
<path d="M0.910 0.032 Q0.287 0.538 1.136 0.953" stroke="hsl(180.0,100%,35%)" stroke-width="0.00138"></path>
<path d="M0.910 0.032 Q0.541 0.476 1.324 0.753" stroke="hsl(180.0,100%,35%)" stroke-width="0.00069"></path>
<path d="M0.910 0.032 Q0.683 -0.041 0.489 0.053" stroke="hsl(180.0,100%,35%)" stroke-width="0.00207"></path>
<path d="M1.607 0.202 Q1.796 0.190 1.814 0.095" stroke="hsl(270.0,100%,35%)" stroke-width="0.00138"></path>
<path d="M1.607 0.202 Q1.311 0.129 1.103 0.258" stroke="hsl(270.0,100%,35%)" stroke-width="0.00138"></path>
<path d="M1.607 0.202 Q1.624 0.086 1.401 0.052" stroke="hsl(270.0,100%,35%)" stroke-width="0.00069"></path>
<path d="M1.607 0.202 Q0.505 0.262 0.382 0.813" stroke="hsl(270.0,100%,35%)" stroke-width="0.00138"></path>
<path d="M1.401 0.052 Q0.283 0.229 0.382 0.813" stroke="hsl(270.0,100%,35%)" stroke-width="0.00069"></path>
<path d="M1.401 0.052 Q1.279 0.120 1.386 0.195" stroke="hsl(270.0,100%,35%)" stroke-width="0.00069"></path>
<path d="M1.401 0.052 Q1.165 0.022 1.055 0.131" stroke="hsl(270.0,100%,35%)" stroke-width="0.00069"></path>
<path d="M1.401 0.052 Q1.462 0.086 1.541 0.063" stroke="hsl(270.0,100%,35%)" stroke-width="0.00069"></path>
<path d="M0.995 0.983 Q1.090 0.996 1.136 0.953" stroke="hsl(90.0,100%,35%)" stroke-width="0.00138"></path>
<path d="M0.995 0.983 Q0.975 0.926 0.858 0.923" stroke="hsl(90.0,100%,35%)" stroke-width="0.00069"></path>
<path d="M0.995 0.983 Q0.996 0.787 0.613 0.743" stroke="hsl(90.0,100%,35%)" stroke-width="0.00069"></path>
<path d="M0.723 0.590 Q0.656 0.504 0.472 0.517" stroke="hsl(90.0,100%,35%)" stroke-width="0.00620"></path>
<path d="M0.723 0.590 Q0.937 0.583 0.969 0.477" stroke="hsl(90.0,100%,35%)" stroke-width="0.00069"></path>
<path d="M0.723 0.590 Q0.374 0.633 0.382 0.813" stroke="hsl(90.0,100%,35%)" stroke-width="0.00069"></path>
<path d="M1.055 0.131 Q0.172 0.337 0.382 0.813" stroke="hsl(270.0,100%,35%)" stroke-width="0.00138"></path>
<path d="M1.055 0.131 Q1.352 0.194 1.541 0.063" stroke="hsl(270.0,100%,35%)" stroke-width="0.00138"></path>
<path d="M1.055 0.131 Q1.291 0.161 1.401 0.052" stroke="hsl(270.0,100%,35%)" stroke-width="0.00069"></path>
<path d="M1.055 0.131 Q0.024 0.419 0.359 0.985" stroke="hsl(270.0,100%,35%)" stroke-width="0.00069"></path>
<path d="M1.539 0.435 Q1.841 0.449 1.935 0.305" stroke="hsl(0.0,100%,35%)" stroke-width="0.00069"></path>
<path d="M1.539 0.435 Q1.561 0.383 1.466 0.361" stroke="hsl(0.0,100%,35%)" stroke-width="0.00069"></path>
<path d="M1.539 0.435 Q1.486 0.647 1.890 0.720" stroke="hsl(0.0,100%,35%)" stroke-width="0.00069"></path>
</g>
<text x="1.829" y="0.401" font-size="0.008085" fill="hsl(0.0,100%,20%)">alexnj</text>
<text x="1.935" y="0.300" font-size="0.008085" fill="hsl(0.0,100%,20%)">paulirish</text>
<text x="1.890" y="0.697" font-size="0.045971" fill="hsl(0.0,100%,20%)">jacktfranklin</text>
<text x="0.359" y="0.956" font-size="0.058111" fill="hsl(90.0,100%,20%)">alexrudenko</text>
<text x="1.136" y="0.922" font-size="0.062098" fill="hsl(90.0,100%,20%)">szuend</text>
<text x="0.858" y="0.878" font-size="0.088930" fill="hsl(90.0,100%,20%)">bmeurer</text>
<text x="0.472" y="0.488" font-size="0.058485" fill="hsl(90.0,100%,20%)">wolfi</text>
<text x="0.382" y="0.780" font-size="0.066993" fill="hsl(90.0,100%,20%)">dsv</text>
<text x="1.324" y="0.728" font-size="0.050054" fill="hsl(90.0,100%,20%)">pfaffe</text>
<text x="0.063" y="0.781" font-size="0.021390" fill="hsl(90.0,100%,20%)">nvitkov</text>
<text x="1.795" y="0.595" font-size="0.047600" fill="hsl(0.0,100%,20%)">andoli</text>
<text x="0.244" y="0.527" font-size="0.039880" fill="hsl(90.0,100%,20%)">kprokopenko</text>
<text x="0.613" y="0.728" font-size="0.030250" fill="hsl(90.0,100%,20%)">yangguo</text>
<text x="0.796" y="0.986" font-size="0.013202" fill="hsl(90.0,100%,20%)">petermueller</text>
<text x="0.113" y="0.873" font-size="0.004668" fill="hsl(90.0,100%,20%)">tperrotta</text>
<text x="1.667" y="0.765" font-size="0.034616" fill="hsl(0.0,100%,20%)">alinavarkki</text>
<text x="1.421" y="0.845" font-size="0.022866" fill="hsl(0.0,100%,20%)">nancyly</text>
<text x="1.180" y="0.990" font-size="0.009335" fill="hsl(90.0,100%,20%)">mathias</text>
<text x="0.851" y="0.492" font-size="0.018670" fill="hsl(90.0,100%,20%)">jec</text>
<text x="1.032" y="0.646" font-size="0.049176" fill="hsl(90.0,100%,20%)">ergunsh</text>
<text x="1.649" y="0.889" font-size="0.014003" fill="hsl(0.0,100%,20%)">leese</text>
<text x="1.181" y="0.615" font-size="0.017465" fill="hsl(90.0,100%,20%)">changhaohan</text>
<text x="0.844" y="0.265" font-size="0.009335" fill="hsl(90.0,100%,20%)">chrche</text>
<text x="0.647" y="0.828" font-size="0.004668" fill="hsl(90.0,100%,20%)">asraine</text>
<text x="0.969" y="0.473" font-size="0.008085" fill="hsl(90.0,100%,20%)">semel</text>
<text x="0.102" y="0.678" font-size="0.016169" fill="hsl(90.0,100%,20%)">jrandolf</text>
<text x="0.910" y="0.027" font-size="0.011433" fill="hsl(180.0,100%,20%)">liviurau</text>
<text x="0.489" y="0.049" font-size="0.008085" fill="hsl(180.0,100%,20%)">machenbach</text>
<text x="1.607" y="0.196" font-size="0.012349" fill="hsl(270.0,100%,20%)">miinak</text>
<text x="1.814" y="0.092" font-size="0.006601" fill="hsl(270.0,100%,20%)">lingqi</text>
<text x="1.103" y="0.254" font-size="0.006601" fill="hsl(270.0,100%,20%)">kenoss</text>
<text x="1.401" y="0.047" font-size="0.011433" fill="hsl(270.0,100%,20%)">sisidovski</text>
<text x="0.995" y="0.979" font-size="0.009335" fill="hsl(90.0,100%,20%)">seth.brenith</text>
<text x="0.723" y="0.582" font-size="0.016169" fill="hsl(90.0,100%,20%)">shuuran</text>
<text x="1.386" y="0.193" font-size="0.004668" fill="hsl(270.0,100%,20%)">kouhei</text>
<text x="1.055" y="0.125" font-size="0.012349" fill="hsl(270.0,100%,20%)">tnak</text>
<text x="1.541" y="0.059" font-size="0.008085" fill="hsl(270.0,100%,20%)">yyanagisawa</text>
<text x="1.539" y="0.430" font-size="0.008085" fill="hsl(0.0,100%,20%)">vidorteg</text>
<text x="1.466" y="0.359" font-size="0.004668" fill="hsl(0.0,100%,20%)">cjamcl</text>
<text x="0.739" y="0.443" font-size="0.004668" fill="hsl(90.0,100%,20%)">mathiasb</text>
</svg>
