<svg width="4000" height="2000" viewBox="-0.025 -0.025 2.05 1.05" xmlns="http://www.w3.org/2000/svg">
  <style>
    path {
      fill: none;
      stroke-linecap: round;
      stroke-opacity: 0.4;
    }

    text {
      text-anchor: middle;
      alignment-baseline: hanging;
    }
  </style>
  <g opacity="0.4">
<path d="M0.323 0.252 Q0.712 0.658 1.590 0.558" stroke="hsl(0.0,100%,35%)" stroke-width="0.03750"></path>
<path d="M0.323 0.252 Q0.847 0.750 1.934 0.604" stroke="hsl(0.0,100%,35%)" stroke-width="0.01875"></path>
<path d="M0.323 0.252 Q0.173 0.519 0.661 0.651" stroke="hsl(0.0,100%,35%)" stroke-width="0.01875"></path>
<path d="M0.323 0.252 Q0.515 0.488 1.018 0.446" stroke="hsl(0.0,100%,35%)" stroke-width="0.01875"></path>
<path d="M0.323 0.252 Q0.433 0.306 0.563 0.264" stroke="hsl(0.0,100%,35%)" stroke-width="0.01875"></path>
<path d="M1.590 0.558 Q1.201 0.151 0.323 0.252" stroke="hsl(0.0,100%,35%)" stroke-width="0.00938"></path>
<path d="M1.590 0.558 Q1.725 0.650 1.934 0.604" stroke="hsl(0.0,100%,35%)" stroke-width="0.04688"></path>
<path d="M1.590 0.558 Q1.261 0.683 1.434 0.871" stroke="hsl(0.0,100%,35%)" stroke-width="0.01875"></path>
<path d="M0.661 0.651 Q1.003 0.620 1.018 0.446" stroke="hsl(0.0,100%,35%)" stroke-width="0.00938"></path>
<path d="M0.661 0.651 Q0.811 0.384 0.323 0.252" stroke="hsl(0.0,100%,35%)" stroke-width="0.02813"></path>
<path d="M0.661 0.651 Q1.334 0.882 1.934 0.604" stroke="hsl(0.0,100%,35%)" stroke-width="0.00938"></path>
<path d="M1.434 0.871 Q1.763 0.746 1.590 0.558" stroke="hsl(0.0,100%,35%)" stroke-width="0.00938"></path>
<path d="M1.434 0.871 Q1.148 0.838 1.021 0.971" stroke="hsl(0.0,100%,35%)" stroke-width="0.00938"></path>
<path d="M1.434 0.871 Q1.566 0.576 1.018 0.446" stroke="hsl(0.0,100%,35%)" stroke-width="0.00938"></path>
<path d="M1.042 0.267 Q0.804 0.170 0.563 0.264" stroke="hsl(0.0,100%,35%)" stroke-width="0.00938"></path>
<path d="M1.042 0.267 Q0.695 0.116 0.323 0.252" stroke="hsl(0.0,100%,35%)" stroke-width="0.01875"></path>
<path d="M1.042 0.267 Q0.754 0.647 1.434 0.871" stroke="hsl(0.0,100%,35%)" stroke-width="0.00938"></path>
</g>
<text x="0.323" y="0.199" font-size="0.106066" fill="hsl(0.0,100%,20%)">bmeurer</text>
<text x="1.590" y="0.513" font-size="0.090139" fill="hsl(0.0,100%,20%)">ergunsh</text>
<text x="1.934" y="0.569" font-size="0.070711" fill="hsl(0.0,100%,20%)">pfaffe</text>
<text x="0.661" y="0.617" font-size="0.066144" fill="hsl(0.0,100%,20%)">nvitkov</text>
<text x="1.018" y="0.421" font-size="0.050000" fill="hsl(0.0,100%,20%)">szuend</text>
<text x="0.563" y="0.242" font-size="0.043301" fill="hsl(0.0,100%,20%)">dsv</text>
<text x="1.434" y="0.841" font-size="0.061237" fill="hsl(0.0,100%,20%)">kprokopenko</text>
<text x="1.021" y="0.958" font-size="0.025000" fill="hsl(0.0,100%,20%)">leese</text>
<text x="1.042" y="0.242" font-size="0.050000" fill="hsl(0.0,100%,20%)">wolfi</text>
</svg>
