<svg width="4000" height="2000" viewBox="-0.025 -0.025 2.05 1.05" xmlns="http://www.w3.org/2000/svg">
  <style>
    path {
      fill: none;
      stroke-linecap: round;
      stroke-opacity: 0.4;
    }

    text {
      text-anchor: middle;
      alignment-baseline: hanging;
    }
  </style>
  <g opacity="0.4">
<path d="M1.730 0.442 Q1.564 0.247 1.147 0.285" stroke="hsl(0.0,100%,35%)" stroke-width="0.01039"></path>
<path d="M1.730 0.442 Q1.421 0.269 1.015 0.382" stroke="hsl(0.0,100%,35%)" stroke-width="0.01039"></path>
<path d="M1.730 0.442 Q1.429 0.385 1.251 0.520" stroke="hsl(0.0,100%,35%)" stroke-width="0.01039"></path>
<path d="M1.147 0.285 Q0.690 0.603 1.210 0.895" stroke="hsl(0.0,100%,35%)" stroke-width="0.04157"></path>
<path d="M1.147 0.285 Q0.981 0.213 0.803 0.278" stroke="hsl(0.0,100%,35%)" stroke-width="0.01039"></path>
<path d="M1.147 0.285 Q1.034 0.134 0.714 0.155" stroke="hsl(0.0,100%,35%)" stroke-width="0.04157"></path>
<path d="M1.147 0.285 Q0.514 0.614 1.018 0.995" stroke="hsl(0.0,100%,35%)" stroke-width="0.04157"></path>
<path d="M1.147 0.285 Q1.003 0.307 1.015 0.382" stroke="hsl(0.0,100%,35%)" stroke-width="0.02079"></path>
<path d="M1.210 0.895 Q1.034 0.907 1.018 0.995" stroke="hsl(0.0,100%,35%)" stroke-width="0.06236"></path>
<path d="M1.210 0.895 Q1.311 0.462 0.490 0.318" stroke="hsl(0.0,100%,35%)" stroke-width="0.02079"></path>
<path d="M1.210 0.895 Q1.401 0.840 1.335 0.735" stroke="hsl(0.0,100%,35%)" stroke-width="0.01039"></path>
<path d="M0.524 0.457 Q0.618 0.381 0.490 0.318" stroke="hsl(180.0,100%,35%)" stroke-width="0.02079"></path>
<path d="M0.524 0.457 Q0.517 0.813 1.210 0.895" stroke="hsl(180.0,100%,35%)" stroke-width="0.01039"></path>
<path d="M0.524 0.457 Q0.711 0.929 1.674 0.942" stroke="hsl(180.0,100%,35%)" stroke-width="0.01039"></path>
<path d="M1.674 0.942 Q1.809 0.965 1.885 0.904" stroke="hsl(180.0,100%,35%)" stroke-width="0.02079"></path>
<path d="M1.674 0.942 Q1.929 0.855 1.815 0.711" stroke="hsl(180.0,100%,35%)" stroke-width="0.01039"></path>
<path d="M1.674 0.942 Q1.935 0.508 1.147 0.285" stroke="hsl(180.0,100%,35%)" stroke-width="0.02079"></path>
</g>
<text x="1.730" y="0.422" font-size="0.040825" fill="hsl(0.0,100%,20%)">alinavarkki</text>
<text x="1.147" y="0.235" font-size="0.100000" fill="hsl(0.0,100%,20%)">bmeurer</text>
<text x="1.015" y="0.362" font-size="0.040825" fill="hsl(0.0,100%,20%)">pfaffe</text>
<text x="1.251" y="0.508" font-size="0.023570" fill="hsl(0.0,100%,20%)">andoli</text>
<text x="1.210" y="0.851" font-size="0.088192" fill="hsl(0.0,100%,20%)">szuend</text>
<text x="0.803" y="0.266" font-size="0.023570" fill="hsl(0.0,100%,20%)">jec</text>
<text x="0.714" y="0.132" font-size="0.047140" fill="hsl(0.0,100%,20%)">yangguo</text>
<text x="1.018" y="0.958" font-size="0.074536" fill="hsl(0.0,100%,20%)">wolfi</text>
<text x="0.524" y="0.434" font-size="0.047140" fill="hsl(180.0,100%,20%)">jrandolf</text>
<text x="0.490" y="0.294" font-size="0.047140" fill="hsl(180.0,100%,20%)">alexrudenko</text>
<text x="1.674" y="0.913" font-size="0.057735" fill="hsl(180.0,100%,20%)">kprokopenko</text>
<text x="1.885" y="0.888" font-size="0.033333" fill="hsl(180.0,100%,20%)">ergunsh</text>
<text x="1.815" y="0.699" font-size="0.023570" fill="hsl(180.0,100%,20%)">nancyly</text>
<text x="1.335" y="0.723" font-size="0.023570" fill="hsl(0.0,100%,20%)">dsv</text>
</svg>
