<svg width="4000" height="2000" viewBox="-0.025 -0.025 2.05 1.05" xmlns="http://www.w3.org/2000/svg">
  <style>
    path {
      fill: none;
      stroke-linecap: round;
      stroke-opacity: 0.4;
    }

    text {
      text-anchor: middle;
      alignment-baseline: hanging;
    }
  </style>
  <g opacity="0.4">
<path d="M0.803 0.109 Q0.699 0.088 0.636 0.134" stroke="hsl(0.0,100%,35%)" stroke-width="0.00043"></path>
<path d="M0.803 0.109 Q0.608 0.172 0.690 0.281" stroke="hsl(0.0,100%,35%)" stroke-width="0.00043"></path>
<path d="M0.803 0.109 Q1.045 0.534 1.928 0.509" stroke="hsl(0.0,100%,35%)" stroke-width="0.00043"></path>
<path d="M0.636 0.134 Q0.400 0.125 0.329 0.238" stroke="hsl(0.0,100%,35%)" stroke-width="0.00389"></path>
<path d="M0.636 0.134 Q0.545 0.219 0.690 0.281" stroke="hsl(0.0,100%,35%)" stroke-width="0.00735"></path>
<path d="M0.636 0.134 Q-0.141 0.375 0.157 0.807" stroke="hsl(0.0,100%,35%)" stroke-width="0.00130"></path>
<path d="M0.690 0.281 Q0.544 0.187 0.329 0.238" stroke="hsl(0.0,100%,35%)" stroke-width="0.03979"></path>
<path d="M0.690 0.281 Q0.800 0.339 0.937 0.298" stroke="hsl(0.0,100%,35%)" stroke-width="0.00259"></path>
<path d="M0.690 0.281 Q1.127 0.643 1.928 0.509" stroke="hsl(0.0,100%,35%)" stroke-width="0.00086"></path>
<path d="M0.690 0.281 Q0.744 0.532 1.246 0.561" stroke="hsl(0.0,100%,35%)" stroke-width="0.00346"></path>
<path d="M0.690 0.281 Q0.003 0.438 0.157 0.807" stroke="hsl(0.0,100%,35%)" stroke-width="0.00778"></path>
<path d="M0.690 0.281 Q0.344 0.387 0.475 0.579" stroke="hsl(0.0,100%,35%)" stroke-width="0.00130"></path>
<path d="M0.690 0.281 Q0.780 0.197 0.636 0.134" stroke="hsl(0.0,100%,35%)" stroke-width="0.00389"></path>
<path d="M0.690 0.281 Q0.826 0.372 1.033 0.326" stroke="hsl(0.0,100%,35%)" stroke-width="0.00173"></path>
<path d="M0.690 0.281 Q0.978 0.691 1.840 0.641" stroke="hsl(0.0,100%,35%)" stroke-width="0.00043"></path>
<path d="M0.690 0.281 Q0.688 0.406 0.931 0.434" stroke="hsl(0.0,100%,35%)" stroke-width="0.00086"></path>
<path d="M0.690 0.281 Q0.339 0.491 0.671 0.708" stroke="hsl(0.0,100%,35%)" stroke-width="0.00086"></path>
<path d="M0.690 0.281 Q0.239 0.436 0.441 0.689" stroke="hsl(0.0,100%,35%)" stroke-width="0.00043"></path>
<path d="M1.928 0.509 Q1.545 0.399 1.246 0.561" stroke="hsl(180.0,100%,35%)" stroke-width="0.00692"></path>
<path d="M1.928 0.509 Q1.314 0.396 0.958 0.670" stroke="hsl(180.0,100%,35%)" stroke-width="0.00649"></path>
<path d="M1.928 0.509 Q2.077 0.303 1.709 0.185" stroke="hsl(180.0,100%,35%)" stroke-width="0.00432"></path>
<path d="M1.928 0.509 Q1.779 0.557 1.840 0.641" stroke="hsl(180.0,100%,35%)" stroke-width="0.02162"></path>
<path d="M1.928 0.509 Q1.146 0.254 0.475 0.579" stroke="hsl(180.0,100%,35%)" stroke-width="0.00216"></path>
<path d="M1.928 0.509 Q1.768 0.451 1.619 0.516" stroke="hsl(180.0,100%,35%)" stroke-width="0.00519"></path>
<path d="M1.928 0.509 Q1.491 0.148 0.690 0.281" stroke="hsl(180.0,100%,35%)" stroke-width="0.00130"></path>
<path d="M1.928 0.509 Q1.345 0.054 0.329 0.238" stroke="hsl(180.0,100%,35%)" stroke-width="0.00043"></path>
<path d="M1.928 0.509 Q2.051 0.396 1.857 0.311" stroke="hsl(180.0,100%,35%)" stroke-width="0.00086"></path>
<path d="M1.928 0.509 Q1.140 0.357 0.671 0.708" stroke="hsl(180.0,100%,35%)" stroke-width="0.00519"></path>
<path d="M1.928 0.509 Q1.759 0.362 1.434 0.411" stroke="hsl(180.0,100%,35%)" stroke-width="0.00043"></path>
<path d="M1.928 0.509 Q1.906 0.531 1.944 0.546" stroke="hsl(180.0,100%,35%)" stroke-width="0.00043"></path>
<path d="M1.928 0.509 Q1.473 0.326 1.016 0.507" stroke="hsl(180.0,100%,35%)" stroke-width="0.00043"></path>
<path d="M1.928 0.509 Q1.920 0.469 1.840 0.464" stroke="hsl(180.0,100%,35%)" stroke-width="0.00086"></path>
<path d="M1.928 0.509 Q1.489 0.272 0.931 0.434" stroke="hsl(180.0,100%,35%)" stroke-width="0.00043"></path>
<path d="M1.928 0.509 Q0.921 0.249 0.192 0.683" stroke="hsl(180.0,100%,35%)" stroke-width="0.00086"></path>
<path d="M1.246 0.561 Q0.846 0.416 0.475 0.579" stroke="hsl(180.0,100%,35%)" stroke-width="0.01038"></path>
<path d="M1.246 0.561 Q1.628 0.671 1.928 0.509" stroke="hsl(180.0,100%,35%)" stroke-width="0.00995"></path>
<path d="M1.246 0.561 Q1.014 0.558 0.958 0.670" stroke="hsl(180.0,100%,35%)" stroke-width="0.00519"></path>
<path d="M1.246 0.561 Q1.479 0.720 1.840 0.641" stroke="hsl(180.0,100%,35%)" stroke-width="0.01211"></path>
<path d="M1.246 0.561 Q1.778 0.466 1.709 0.185" stroke="hsl(180.0,100%,35%)" stroke-width="0.00951"></path>
<path d="M1.246 0.561 Q1.190 0.435 0.931 0.434" stroke="hsl(180.0,100%,35%)" stroke-width="0.00259"></path>
<path d="M1.246 0.561 Q1.174 0.488 1.016 0.507" stroke="hsl(180.0,100%,35%)" stroke-width="0.00043"></path>
<path d="M1.246 0.561 Q0.776 0.494 0.543 0.709" stroke="hsl(180.0,100%,35%)" stroke-width="0.00043"></path>
<path d="M1.246 0.561 Q1.324 0.458 1.140 0.397" stroke="hsl(180.0,100%,35%)" stroke-width="0.00778"></path>
<path d="M1.246 0.561 Q1.751 0.558 1.857 0.311" stroke="hsl(180.0,100%,35%)" stroke-width="0.00173"></path>
<path d="M1.246 0.561 Q1.191 0.310 0.690 0.281" stroke="hsl(180.0,100%,35%)" stroke-width="0.00043"></path>
<path d="M1.246 0.561 Q0.883 0.247 0.192 0.355" stroke="hsl(180.0,100%,35%)" stroke-width="0.00043"></path>
<path d="M1.246 0.561 Q1.046 0.216 0.329 0.238" stroke="hsl(180.0,100%,35%)" stroke-width="0.00043"></path>
<path d="M0.958 0.670 Q1.189 0.673 1.246 0.561" stroke="hsl(180.0,100%,35%)" stroke-width="0.03546"></path>
<path d="M0.958 0.670 Q0.790 0.528 0.475 0.579" stroke="hsl(180.0,100%,35%)" stroke-width="0.01687"></path>
<path d="M0.958 0.670 Q1.721 0.578 1.709 0.185" stroke="hsl(180.0,100%,35%)" stroke-width="0.01038"></path>
<path d="M0.958 0.670 Q1.134 0.547 0.931 0.434" stroke="hsl(180.0,100%,35%)" stroke-width="0.00043"></path>
<path d="M0.958 0.670 Q1.561 0.517 1.394 0.189" stroke="hsl(180.0,100%,35%)" stroke-width="0.00043"></path>
<path d="M0.958 0.670 Q0.785 0.632 0.671 0.708" stroke="hsl(180.0,100%,35%)" stroke-width="0.00951"></path>
<path d="M0.958 0.670 Q1.118 0.600 1.016 0.507" stroke="hsl(180.0,100%,35%)" stroke-width="0.01643"></path>
<path d="M0.958 0.670 Q1.412 0.725 1.619 0.516" stroke="hsl(180.0,100%,35%)" stroke-width="0.00086"></path>
<path d="M0.958 0.670 Q1.423 0.832 1.840 0.641" stroke="hsl(180.0,100%,35%)" stroke-width="0.01211"></path>
<path d="M0.958 0.670 Q1.695 0.671 1.857 0.311" stroke="hsl(180.0,100%,35%)" stroke-width="0.00562"></path>
<path d="M0.958 0.670 Q0.448 0.579 0.157 0.807" stroke="hsl(180.0,100%,35%)" stroke-width="0.00043"></path>
<path d="M0.958 0.670 Q1.403 0.636 1.434 0.411" stroke="hsl(180.0,100%,35%)" stroke-width="0.00346"></path>
<path d="M0.958 0.670 Q1.572 0.784 1.928 0.509" stroke="hsl(180.0,100%,35%)" stroke-width="0.01860"></path>
<path d="M0.958 0.670 Q0.827 0.360 0.192 0.355" stroke="hsl(180.0,100%,35%)" stroke-width="0.00086"></path>
<path d="M0.958 0.670 Q0.990 0.328 0.329 0.238" stroke="hsl(180.0,100%,35%)" stroke-width="0.00130"></path>
<path d="M0.958 0.670 Q0.653 0.519 0.291 0.634" stroke="hsl(180.0,100%,35%)" stroke-width="0.00043"></path>
<path d="M0.958 0.670 Q0.720 0.607 0.543 0.709" stroke="hsl(180.0,100%,35%)" stroke-width="0.00043"></path>
<path d="M0.958 0.670 Q1.268 0.570 1.140 0.397" stroke="hsl(180.0,100%,35%)" stroke-width="0.00086"></path>
<path d="M0.958 0.670 Q1.271 0.513 1.033 0.326" stroke="hsl(180.0,100%,35%)" stroke-width="0.00043"></path>
<path d="M1.709 0.185 Q0.945 0.278 0.958 0.670" stroke="hsl(180.0,100%,35%)" stroke-width="0.00908"></path>
<path d="M1.709 0.185 Q1.410 0.439 1.840 0.641" stroke="hsl(180.0,100%,35%)" stroke-width="0.01600"></path>
<path d="M1.709 0.185 Q1.682 0.278 1.857 0.311" stroke="hsl(180.0,100%,35%)" stroke-width="0.00778"></path>
<path d="M1.709 0.185 Q1.517 0.219 1.540 0.319" stroke="hsl(180.0,100%,35%)" stroke-width="0.00043"></path>
<path d="M1.709 0.185 Q0.436 0.186 0.157 0.807" stroke="hsl(180.0,100%,35%)" stroke-width="0.00043"></path>
<path d="M1.709 0.185 Q1.105 0.208 1.016 0.507" stroke="hsl(180.0,100%,35%)" stroke-width="0.00303"></path>
<path d="M1.709 0.185 Q0.777 0.135 0.475 0.579" stroke="hsl(180.0,100%,35%)" stroke-width="0.00173"></path>
<path d="M1.709 0.185 Q1.177 0.280 1.246 0.561" stroke="hsl(180.0,100%,35%)" stroke-width="0.00346"></path>
<path d="M1.709 0.185 Q0.977 -0.064 0.329 0.238" stroke="hsl(180.0,100%,35%)" stroke-width="0.00173"></path>
<path d="M1.709 0.185 Q0.772 0.239 0.671 0.708" stroke="hsl(180.0,100%,35%)" stroke-width="0.00086"></path>
<path d="M1.709 0.185 Q1.122 0.029 0.690 0.281" stroke="hsl(180.0,100%,35%)" stroke-width="0.00259"></path>
<path d="M1.709 0.185 Q1.548 0.124 1.394 0.189" stroke="hsl(180.0,100%,35%)" stroke-width="0.00130"></path>
<path d="M1.709 0.185 Q1.466 0.226 1.493 0.354" stroke="hsl(180.0,100%,35%)" stroke-width="0.00043"></path>
<path d="M1.709 0.185 Q1.666 0.094 1.479 0.095" stroke="hsl(180.0,100%,35%)" stroke-width="0.00043"></path>
<path d="M1.709 0.185 Q1.559 0.391 1.928 0.509" stroke="hsl(180.0,100%,35%)" stroke-width="0.00216"></path>
<path d="M1.709 0.185 Q1.551 0.351 1.840 0.464" stroke="hsl(180.0,100%,35%)" stroke-width="0.00043"></path>
<path d="M1.709 0.185 Q1.121 0.154 0.931 0.434" stroke="hsl(180.0,100%,35%)" stroke-width="0.00043"></path>
<path d="M1.840 0.641 Q1.535 0.409 1.016 0.507" stroke="hsl(180.0,100%,35%)" stroke-width="0.01124"></path>
<path d="M1.840 0.641 Q2.139 0.387 1.709 0.185" stroke="hsl(180.0,100%,35%)" stroke-width="0.00865"></path>
<path d="M1.840 0.641 Q1.375 0.479 0.958 0.670" stroke="hsl(180.0,100%,35%)" stroke-width="0.00908"></path>
<path d="M1.840 0.641 Q2.113 0.479 1.857 0.311" stroke="hsl(180.0,100%,35%)" stroke-width="0.00130"></path>
<path d="M1.840 0.641 Q1.207 0.337 0.475 0.579" stroke="hsl(180.0,100%,35%)" stroke-width="0.00303"></path>
<path d="M1.840 0.641 Q1.407 0.137 0.329 0.238" stroke="hsl(180.0,100%,35%)" stroke-width="0.00043"></path>
<path d="M1.840 0.641 Q1.989 0.592 1.928 0.509" stroke="hsl(180.0,100%,35%)" stroke-width="0.00476"></path>
<path d="M1.840 0.641 Q1.607 0.482 1.246 0.561" stroke="hsl(180.0,100%,35%)" stroke-width="0.01384"></path>
<path d="M1.840 0.641 Q0.876 0.476 0.343 0.910" stroke="hsl(180.0,100%,35%)" stroke-width="0.00043"></path>
<path d="M1.840 0.641 Q1.071 0.328 0.291 0.634" stroke="hsl(180.0,100%,35%)" stroke-width="0.00086"></path>
<path d="M1.840 0.641 Q1.202 0.440 0.671 0.708" stroke="hsl(180.0,100%,35%)" stroke-width="0.00043"></path>
<path d="M1.840 0.641 Q1.552 0.231 0.690 0.281" stroke="hsl(180.0,100%,35%)" stroke-width="0.00086"></path>
<path d="M1.840 0.641 Q1.841 0.375 1.323 0.317" stroke="hsl(180.0,100%,35%)" stroke-width="0.00043"></path>
<path d="M1.840 0.641 Q1.981 0.552 1.840 0.464" stroke="hsl(180.0,100%,35%)" stroke-width="0.00130"></path>
<path d="M0.475 0.579 Q0.803 0.651 1.016 0.507" stroke="hsl(180.0,100%,35%)" stroke-width="0.01341"></path>
<path d="M0.475 0.579 Q0.643 0.721 0.958 0.670" stroke="hsl(180.0,100%,35%)" stroke-width="0.00173"></path>
<path d="M0.475 0.579 Q0.513 0.410 0.192 0.355" stroke="hsl(180.0,100%,35%)" stroke-width="0.00086"></path>
<path d="M0.475 0.579 Q0.875 0.724 1.246 0.561" stroke="hsl(180.0,100%,35%)" stroke-width="0.00995"></path>
<path d="M0.475 0.579 Q1.407 0.629 1.709 0.185" stroke="hsl(180.0,100%,35%)" stroke-width="0.00173"></path>
<path d="M0.475 0.579 Q1.109 0.883 1.840 0.641" stroke="hsl(180.0,100%,35%)" stroke-width="0.00259"></path>
<path d="M0.475 0.579 Q0.675 0.379 0.329 0.238" stroke="hsl(180.0,100%,35%)" stroke-width="0.00173"></path>
<path d="M0.475 0.579 Q0.820 0.473 0.690 0.281" stroke="hsl(180.0,100%,35%)" stroke-width="0.00130"></path>
<path d="M0.475 0.579 Q0.931 0.531 0.937 0.298" stroke="hsl(180.0,100%,35%)" stroke-width="0.00043"></path>
<path d="M0.475 0.579 Q1.257 0.835 1.928 0.509" stroke="hsl(180.0,100%,35%)" stroke-width="0.00216"></path>
<path d="M0.475 0.579 Q0.339 0.570 0.291 0.634" stroke="hsl(180.0,100%,35%)" stroke-width="0.00043"></path>
<path d="M0.475 0.579 Q1.249 0.795 1.840 0.464" stroke="hsl(180.0,100%,35%)" stroke-width="0.00043"></path>
<path d="M0.475 0.579 Q0.134 0.629 0.157 0.807" stroke="hsl(180.0,100%,35%)" stroke-width="0.00043"></path>
<path d="M0.475 0.579 Q0.608 0.801 1.070 0.784" stroke="hsl(180.0,100%,35%)" stroke-width="0.00043"></path>
<path d="M1.619 0.516 Q1.165 0.461 0.958 0.670" stroke="hsl(180.0,100%,35%)" stroke-width="0.00216"></path>
<path d="M1.619 0.516 Q1.396 0.464 1.246 0.561" stroke="hsl(180.0,100%,35%)" stroke-width="0.00086"></path>
<path d="M1.619 0.516 Q0.997 0.319 0.475 0.579" stroke="hsl(180.0,100%,35%)" stroke-width="0.00130"></path>
<path d="M1.619 0.516 Q1.779 0.574 1.928 0.509" stroke="hsl(180.0,100%,35%)" stroke-width="0.00130"></path>
<path d="M1.619 0.516 Q1.771 0.534 1.840 0.464" stroke="hsl(180.0,100%,35%)" stroke-width="0.00043"></path>
<path d="M1.619 0.516 Q1.902 0.461 1.857 0.311" stroke="hsl(180.0,100%,35%)" stroke-width="0.00086"></path>
<path d="M0.329 0.238 Q0.585 0.390 0.937 0.298" stroke="hsl(0.0,100%,35%)" stroke-width="0.00216"></path>
<path d="M0.329 0.238 Q-0.212 0.488 0.157 0.807" stroke="hsl(0.0,100%,35%)" stroke-width="0.00865"></path>
<path d="M0.329 0.238 Q0.129 0.438 0.475 0.579" stroke="hsl(0.0,100%,35%)" stroke-width="0.00086"></path>
<path d="M0.329 0.238 Q0.297 0.580 0.958 0.670" stroke="hsl(0.0,100%,35%)" stroke-width="0.00086"></path>
<path d="M0.329 0.238 Q0.474 0.332 0.690 0.281" stroke="hsl(0.0,100%,35%)" stroke-width="0.01773"></path>
<path d="M0.329 0.238 Q0.529 0.583 1.246 0.561" stroke="hsl(0.0,100%,35%)" stroke-width="0.00130"></path>
<path d="M0.329 0.238 Q1.061 0.487 1.709 0.185" stroke="hsl(0.0,100%,35%)" stroke-width="0.00086"></path>
<path d="M0.329 0.238 Q0.473 0.456 0.931 0.434" stroke="hsl(0.0,100%,35%)" stroke-width="0.00043"></path>
<path d="M0.329 0.238 Q0.167 0.269 0.192 0.355" stroke="hsl(0.0,100%,35%)" stroke-width="0.00043"></path>
<path d="M0.329 0.238 Q0.901 0.427 1.394 0.189" stroke="hsl(0.0,100%,35%)" stroke-width="0.00043"></path>
<path d="M0.329 0.238 Q0.911 0.693 1.928 0.509" stroke="hsl(0.0,100%,35%)" stroke-width="0.00043"></path>
<path d="M0.329 0.238 Q-0.096 0.433 0.192 0.683" stroke="hsl(0.0,100%,35%)" stroke-width="0.00043"></path>
<path d="M1.857 0.311 Q1.120 0.311 0.958 0.670" stroke="hsl(180.0,100%,35%)" stroke-width="0.00865"></path>
<path d="M1.857 0.311 Q0.952 0.169 0.475 0.579" stroke="hsl(180.0,100%,35%)" stroke-width="0.00086"></path>
<path d="M1.857 0.311 Q1.723 0.157 1.394 0.189" stroke="hsl(180.0,100%,35%)" stroke-width="0.00043"></path>
<path d="M1.857 0.311 Q1.280 0.241 1.016 0.507" stroke="hsl(180.0,100%,35%)" stroke-width="0.00303"></path>
<path d="M1.857 0.311 Q0.611 0.219 0.157 0.807" stroke="hsl(180.0,100%,35%)" stroke-width="0.00086"></path>
<path d="M1.857 0.311 Q0.989 0.000 0.192 0.355" stroke="hsl(180.0,100%,35%)" stroke-width="0.00043"></path>
<path d="M1.857 0.311 Q1.352 0.314 1.246 0.561" stroke="hsl(180.0,100%,35%)" stroke-width="0.00043"></path>
<path d="M1.857 0.311 Q1.884 0.218 1.709 0.185" stroke="hsl(180.0,100%,35%)" stroke-width="0.02119"></path>
<path d="M1.857 0.311 Q1.585 0.472 1.840 0.641" stroke="hsl(180.0,100%,35%)" stroke-width="0.00259"></path>
<path d="M1.857 0.311 Q1.566 0.277 1.434 0.411" stroke="hsl(180.0,100%,35%)" stroke-width="0.00043"></path>
<path d="M1.857 0.311 Q1.734 0.424 1.928 0.509" stroke="hsl(180.0,100%,35%)" stroke-width="0.00086"></path>
<path d="M1.857 0.311 Q1.574 0.366 1.619 0.516" stroke="hsl(180.0,100%,35%)" stroke-width="0.00043"></path>
<path d="M1.857 0.311 Q1.297 0.063 0.690 0.281" stroke="hsl(180.0,100%,35%)" stroke-width="0.00130"></path>
<path d="M1.857 0.311 Q0.816 0.159 0.291 0.634" stroke="hsl(180.0,100%,35%)" stroke-width="0.00043"></path>
<path d="M1.857 0.311 Q1.152 -0.031 0.329 0.238" stroke="hsl(180.0,100%,35%)" stroke-width="0.00043"></path>
<path d="M0.671 0.708 Q1.608 0.654 1.709 0.185" stroke="hsl(180.0,100%,35%)" stroke-width="0.00259"></path>
<path d="M0.671 0.708 Q0.844 0.746 0.958 0.670" stroke="hsl(180.0,100%,35%)" stroke-width="0.00173"></path>
<path d="M0.671 0.708 Q1.298 0.801 1.619 0.516" stroke="hsl(180.0,100%,35%)" stroke-width="0.00043"></path>
<path d="M0.671 0.708 Q1.004 0.676 1.016 0.507" stroke="hsl(180.0,100%,35%)" stroke-width="0.00086"></path>
<path d="M0.671 0.708 Q1.458 0.860 1.928 0.509" stroke="hsl(180.0,100%,35%)" stroke-width="0.00043"></path>
<path d="M0.671 0.708 Q1.581 0.747 1.857 0.311" stroke="hsl(180.0,100%,35%)" stroke-width="0.00130"></path>
<path d="M0.671 0.708 Q0.676 0.604 0.475 0.579" stroke="hsl(180.0,100%,35%)" stroke-width="0.00043"></path>
<path d="M0.671 0.708 Q1.447 0.593 1.394 0.189" stroke="hsl(180.0,100%,35%)" stroke-width="0.00043"></path>
<path d="M0.671 0.708 Q1.076 0.749 1.246 0.561" stroke="hsl(180.0,100%,35%)" stroke-width="0.00043"></path>
<path d="M0.671 0.708 Q1.021 0.498 0.690 0.281" stroke="hsl(180.0,100%,35%)" stroke-width="0.00043"></path>
<path d="M0.671 0.708 Q0.540 0.595 0.291 0.634" stroke="hsl(180.0,100%,35%)" stroke-width="0.00043"></path>
<path d="M1.434 0.411 Q1.726 0.446 1.857 0.311" stroke="hsl(180.0,100%,35%)" stroke-width="0.00432"></path>
<path d="M1.434 0.411 Q1.149 0.376 1.016 0.507" stroke="hsl(180.0,100%,35%)" stroke-width="0.00043"></path>
<path d="M1.434 0.411 Q0.821 0.303 0.475 0.579" stroke="hsl(180.0,100%,35%)" stroke-width="0.00043"></path>
<path d="M1.016 0.507 Q1.321 0.739 1.840 0.641" stroke="hsl(180.0,100%,35%)" stroke-width="0.00086"></path>
<path d="M1.016 0.507 Q1.088 0.580 1.246 0.561" stroke="hsl(180.0,100%,35%)" stroke-width="0.00389"></path>
<path d="M1.016 0.507 Q0.688 0.435 0.475 0.579" stroke="hsl(180.0,100%,35%)" stroke-width="0.01470"></path>
<path d="M1.016 0.507 Q1.470 0.690 1.928 0.509" stroke="hsl(180.0,100%,35%)" stroke-width="0.00086"></path>
<path d="M1.016 0.507 Q0.856 0.577 0.958 0.670" stroke="hsl(180.0,100%,35%)" stroke-width="0.00389"></path>
<path d="M1.016 0.507 Q1.594 0.577 1.857 0.311" stroke="hsl(180.0,100%,35%)" stroke-width="0.00086"></path>
<path d="M1.016 0.507 Q1.124 0.245 0.636 0.134" stroke="hsl(180.0,100%,35%)" stroke-width="0.00043"></path>
<path d="M1.016 0.507 Q0.552 0.426 0.291 0.634" stroke="hsl(180.0,100%,35%)" stroke-width="0.00173"></path>
<path d="M1.016 0.507 Q1.033 0.329 0.690 0.281" stroke="hsl(180.0,100%,35%)" stroke-width="0.00043"></path>
<path d="M1.840 0.464 Q1.848 0.504 1.928 0.509" stroke="hsl(180.0,100%,35%)" stroke-width="0.00346"></path>
<path d="M1.840 0.464 Q1.688 0.446 1.619 0.516" stroke="hsl(180.0,100%,35%)" stroke-width="0.00043"></path>
<path d="M1.840 0.464 Q1.466 0.394 1.246 0.561" stroke="hsl(180.0,100%,35%)" stroke-width="0.00043"></path>
<path d="M1.840 0.464 Q1.972 0.391 1.857 0.311" stroke="hsl(180.0,100%,35%)" stroke-width="0.00043"></path>
<path d="M1.840 0.464 Q1.699 0.553 1.840 0.641" stroke="hsl(180.0,100%,35%)" stroke-width="0.00086"></path>
<path d="M1.840 0.464 Q1.061 0.352 0.671 0.708" stroke="hsl(180.0,100%,35%)" stroke-width="0.00043"></path>
<path d="M1.840 0.464 Q1.066 0.249 0.475 0.579" stroke="hsl(180.0,100%,35%)" stroke-width="0.00043"></path>
<path d="M0.192 0.683 Q1.199 0.943 1.928 0.509" stroke="hsl(0.0,100%,35%)" stroke-width="0.00519"></path>
<path d="M0.192 0.683 Q0.076 0.738 0.157 0.807" stroke="hsl(0.0,100%,35%)" stroke-width="0.00908"></path>
<path d="M0.192 0.683 Q0.853 0.498 0.636 0.134" stroke="hsl(0.0,100%,35%)" stroke-width="0.00043"></path>
<path d="M0.192 0.683 Q1.323 0.830 1.857 0.311" stroke="hsl(0.0,100%,35%)" stroke-width="0.00562"></path>
<path d="M0.192 0.683 Q0.762 0.582 0.690 0.281" stroke="hsl(0.0,100%,35%)" stroke-width="0.00130"></path>
<path d="M0.192 0.683 Q0.617 0.488 0.329 0.238" stroke="hsl(0.0,100%,35%)" stroke-width="0.00043"></path>
<path d="M0.192 0.683 Q0.817 0.833 1.246 0.561" stroke="hsl(0.0,100%,35%)" stroke-width="0.00043"></path>
<path d="M0.192 0.683 Q1.051 0.992 1.840 0.641" stroke="hsl(0.0,100%,35%)" stroke-width="0.00043"></path>
<path d="M0.937 0.298 Q0.681 0.146 0.329 0.238" stroke="hsl(0.0,100%,35%)" stroke-width="0.00908"></path>
<path d="M0.937 0.298 Q0.650 0.489 0.958 0.670" stroke="hsl(0.0,100%,35%)" stroke-width="0.00043"></path>
<path d="M0.937 0.298 Q0.481 0.346 0.475 0.579" stroke="hsl(0.0,100%,35%)" stroke-width="0.00043"></path>
<path d="M0.937 0.298 Q0.140 0.397 0.157 0.807" stroke="hsl(0.0,100%,35%)" stroke-width="0.00649"></path>
<path d="M0.937 0.298 Q0.827 0.240 0.690 0.281" stroke="hsl(0.0,100%,35%)" stroke-width="0.01168"></path>
<path d="M0.157 0.807 Q0.698 0.557 0.329 0.238" stroke="hsl(0.0,100%,35%)" stroke-width="0.00346"></path>
<path d="M0.157 0.807 Q0.954 0.709 0.937 0.298" stroke="hsl(0.0,100%,35%)" stroke-width="0.00173"></path>
<path d="M0.157 0.807 Q0.844 0.651 0.690 0.281" stroke="hsl(0.0,100%,35%)" stroke-width="0.00346"></path>
<path d="M0.157 0.807 Q0.667 0.899 0.958 0.670" stroke="hsl(0.0,100%,35%)" stroke-width="0.00086"></path>
<path d="M0.157 0.807 Q0.935 0.566 0.636 0.134" stroke="hsl(0.0,100%,35%)" stroke-width="0.00043"></path>
<path d="M0.302 0.479 Q0.309 0.564 0.475 0.579" stroke="hsl(180.0,100%,35%)" stroke-width="0.00173"></path>
<path d="M0.302 0.479 Q0.942 0.868 1.840 0.641" stroke="hsl(180.0,100%,35%)" stroke-width="0.00043"></path>
<path d="M0.302 0.479 Q1.091 0.819 1.928 0.509" stroke="hsl(180.0,100%,35%)" stroke-width="0.00043"></path>
<path d="M0.192 0.355 Q0.610 0.476 0.937 0.298" stroke="hsl(180.0,100%,35%)" stroke-width="0.00130"></path>
<path d="M0.192 0.355 Q1.060 0.666 1.857 0.311" stroke="hsl(180.0,100%,35%)" stroke-width="0.00043"></path>
<path d="M0.192 0.355 Q0.937 0.779 1.928 0.509" stroke="hsl(180.0,100%,35%)" stroke-width="0.00043"></path>
<path d="M0.192 0.355 Q0.323 0.666 0.958 0.670" stroke="hsl(180.0,100%,35%)" stroke-width="0.00130"></path>
<path d="M0.192 0.355 Q0.554 0.669 1.246 0.561" stroke="hsl(180.0,100%,35%)" stroke-width="0.00086"></path>
<path d="M0.192 0.355 Q0.148 0.439 0.302 0.479" stroke="hsl(180.0,100%,35%)" stroke-width="0.00043"></path>
<path d="M0.192 0.355 Q0.926 0.513 1.394 0.189" stroke="hsl(180.0,100%,35%)" stroke-width="0.00043"></path>
<path d="M0.192 0.355 Q0.500 0.418 0.690 0.281" stroke="hsl(180.0,100%,35%)" stroke-width="0.00043"></path>
<path d="M0.192 0.355 Q0.155 0.524 0.475 0.579" stroke="hsl(180.0,100%,35%)" stroke-width="0.00043"></path>
<path d="M1.394 0.189 Q0.791 0.342 0.958 0.670" stroke="hsl(180.0,100%,35%)" stroke-width="0.00086"></path>
<path d="M1.394 0.189 Q0.487 0.191 0.291 0.634" stroke="hsl(180.0,100%,35%)" stroke-width="0.00086"></path>
<path d="M1.394 0.189 Q1.256 0.239 1.323 0.317" stroke="hsl(180.0,100%,35%)" stroke-width="0.00086"></path>
<path d="M1.394 0.189 Q1.555 0.250 1.709 0.185" stroke="hsl(180.0,100%,35%)" stroke-width="0.00562"></path>
<path d="M1.394 0.189 Q1.256 0.504 1.840 0.641" stroke="hsl(180.0,100%,35%)" stroke-width="0.00303"></path>
<path d="M1.394 0.189 Q0.823 0.000 0.329 0.238" stroke="hsl(180.0,100%,35%)" stroke-width="0.00043"></path>
<path d="M1.394 0.189 Q1.022 0.345 1.246 0.561" stroke="hsl(180.0,100%,35%)" stroke-width="0.00389"></path>
<path d="M1.394 0.189 Q1.528 0.343 1.857 0.311" stroke="hsl(180.0,100%,35%)" stroke-width="0.00086"></path>
<path d="M1.394 0.189 Q1.389 0.116 1.244 0.102" stroke="hsl(180.0,100%,35%)" stroke-width="0.00043"></path>
<path d="M1.394 0.189 Q0.660 0.032 0.192 0.355" stroke="hsl(180.0,100%,35%)" stroke-width="0.00043"></path>
<path d="M1.394 0.189 Q1.101 0.242 1.140 0.397" stroke="hsl(180.0,100%,35%)" stroke-width="0.00043"></path>
<path d="M1.394 0.189 Q1.245 0.397 1.619 0.516" stroke="hsl(180.0,100%,35%)" stroke-width="0.00043"></path>
<path d="M1.394 0.189 Q0.623 0.200 0.475 0.579" stroke="hsl(180.0,100%,35%)" stroke-width="0.00043"></path>
<path d="M0.343 0.910 Q0.443 0.913 0.471 0.864" stroke="hsl(0.0,100%,35%)" stroke-width="0.00216"></path>
<path d="M0.343 0.910 Q1.110 0.581 0.636 0.134" stroke="hsl(0.0,100%,35%)" stroke-width="0.00259"></path>
<path d="M0.343 0.910 Q1.018 0.790 0.931 0.434" stroke="hsl(0.0,100%,35%)" stroke-width="0.00086"></path>
<path d="M0.343 0.910 Q1.456 1.027 1.928 0.509" stroke="hsl(0.0,100%,35%)" stroke-width="0.00130"></path>
<path d="M0.726 0.604 Q0.789 0.684 0.958 0.670" stroke="hsl(180.0,100%,35%)" stroke-width="0.00043"></path>
<path d="M0.726 0.604 Q1.392 0.530 1.394 0.189" stroke="hsl(180.0,100%,35%)" stroke-width="0.00043"></path>
<path d="M0.726 0.604 Q0.966 0.436 0.690 0.281" stroke="hsl(180.0,100%,35%)" stroke-width="0.00043"></path>
<path d="M0.291 0.634 Q0.427 0.643 0.475 0.579" stroke="hsl(180.0,100%,35%)" stroke-width="0.00389"></path>
<path d="M0.291 0.634 Q0.755 0.716 1.016 0.507" stroke="hsl(180.0,100%,35%)" stroke-width="0.00216"></path>
<path d="M0.291 0.634 Q1.061 0.947 1.840 0.641" stroke="hsl(180.0,100%,35%)" stroke-width="0.00043"></path>
<path d="M0.291 0.634 Q0.827 0.789 1.246 0.561" stroke="hsl(180.0,100%,35%)" stroke-width="0.00043"></path>
<path d="M0.291 0.634 Q0.086 0.694 0.157 0.807" stroke="hsl(180.0,100%,35%)" stroke-width="0.00043"></path>
<path d="M0.291 0.634 Q1.333 0.786 1.857 0.311" stroke="hsl(180.0,100%,35%)" stroke-width="0.00043"></path>
<path d="M0.168 0.455 Q0.856 0.882 1.840 0.641" stroke="hsl(180.0,100%,35%)" stroke-width="0.00043"></path>
<path d="M0.168 0.455 Q0.567 0.597 0.931 0.434" stroke="hsl(180.0,100%,35%)" stroke-width="0.00043"></path>
<path d="M0.168 0.455 Q1.155 0.628 1.709 0.185" stroke="hsl(180.0,100%,35%)" stroke-width="0.00043"></path>
<path d="M0.168 0.455 Q0.391 0.721 0.958 0.670" stroke="hsl(180.0,100%,35%)" stroke-width="0.00043"></path>
<path d="M0.168 0.455 Q0.260 0.410 0.192 0.355" stroke="hsl(180.0,100%,35%)" stroke-width="0.00086"></path>
<path d="M0.168 0.455 Q0.623 0.724 1.246 0.561" stroke="hsl(180.0,100%,35%)" stroke-width="0.00043"></path>
<path d="M1.505 0.674 Q1.998 0.470 1.709 0.185" stroke="hsl(180.0,100%,35%)" stroke-width="0.00130"></path>
<path d="M1.505 0.674 Q1.563 0.610 1.452 0.568" stroke="hsl(180.0,100%,35%)" stroke-width="0.00043"></path>
<path d="M1.505 0.674 Q1.577 0.650 1.546 0.610" stroke="hsl(180.0,100%,35%)" stroke-width="0.00043"></path>
<path d="M1.505 0.674 Q1.363 0.634 1.254 0.694" stroke="hsl(180.0,100%,35%)" stroke-width="0.00043"></path>
<path d="M1.505 0.674 Q1.410 0.439 0.931 0.434" stroke="hsl(180.0,100%,35%)" stroke-width="0.00043"></path>
<path d="M1.505 0.674 Q1.424 0.672 1.402 0.711" stroke="hsl(180.0,100%,35%)" stroke-width="0.00043"></path>
<path d="M0.441 0.689 Q0.946 0.786 1.246 0.561" stroke="hsl(180.0,100%,35%)" stroke-width="0.00130"></path>
<path d="M0.441 0.689 Q0.546 0.641 0.475 0.579" stroke="hsl(180.0,100%,35%)" stroke-width="0.00346"></path>
<path d="M0.441 0.689 Q0.361 0.717 0.399 0.762" stroke="hsl(180.0,100%,35%)" stroke-width="0.00130"></path>
<path d="M0.441 0.689 Q0.892 0.535 0.690 0.281" stroke="hsl(180.0,100%,35%)" stroke-width="0.00086"></path>
<path d="M0.441 0.689 Q0.584 0.473 0.192 0.355" stroke="hsl(180.0,100%,35%)" stroke-width="0.00043"></path>
<path d="M0.441 0.689 Q1.180 0.945 1.840 0.641" stroke="hsl(180.0,100%,35%)" stroke-width="0.00043"></path>
<path d="M1.906 0.748 Q1.959 0.681 1.840 0.641" stroke="hsl(180.0,100%,35%)" stroke-width="0.00216"></path>
<path d="M1.906 0.748 Q1.669 0.396 0.931 0.434" stroke="hsl(180.0,100%,35%)" stroke-width="0.00043"></path>
<path d="M1.906 0.748 Q2.257 0.427 1.709 0.185" stroke="hsl(180.0,100%,35%)" stroke-width="0.00086"></path>
<path d="M1.906 0.748 Q1.189 0.368 0.291 0.634" stroke="hsl(180.0,100%,35%)" stroke-width="0.00043"></path>
<path d="M1.906 0.748 Q2.108 0.633 1.928 0.509" stroke="hsl(180.0,100%,35%)" stroke-width="0.00043"></path>
<path d="M1.070 0.784 Q1.570 0.867 1.840 0.641" stroke="hsl(180.0,100%,35%)" stroke-width="0.00173"></path>
<path d="M1.070 0.784 Q1.009 0.910 1.241 0.968" stroke="hsl(180.0,100%,35%)" stroke-width="0.00043"></path>
<path d="M1.070 0.784 Q1.868 0.613 1.709 0.185" stroke="hsl(180.0,100%,35%)" stroke-width="0.00130"></path>
<path d="M1.070 0.784 Q0.785 0.826 0.804 0.974" stroke="hsl(180.0,100%,35%)" stroke-width="0.00043"></path>
<path d="M1.070 0.784 Q1.336 0.708 1.246 0.561" stroke="hsl(180.0,100%,35%)" stroke-width="0.00043"></path>
<path d="M1.241 0.968 Q1.302 0.842 1.070 0.784" stroke="hsl(180.0,100%,35%)" stroke-width="0.00216"></path>
<path d="M1.241 0.968 Q1.803 0.924 1.840 0.641" stroke="hsl(180.0,100%,35%)" stroke-width="0.00173"></path>
<path d="M1.241 0.968 Q1.569 0.765 1.246 0.561" stroke="hsl(180.0,100%,35%)" stroke-width="0.00043"></path>
<path d="M1.241 0.968 Q2.101 0.670 1.709 0.185" stroke="hsl(180.0,100%,35%)" stroke-width="0.00043"></path>
<path d="M1.285 0.832 Q1.155 0.891 1.241 0.968" stroke="hsl(180.0,100%,35%)" stroke-width="0.00216"></path>
<path d="M1.285 0.832 Q1.216 0.765 1.070 0.784" stroke="hsl(180.0,100%,35%)" stroke-width="0.00216"></path>
<path d="M1.285 0.832 Q1.034 0.743 0.803 0.846" stroke="hsl(180.0,100%,35%)" stroke-width="0.00043"></path>
<path d="M1.285 0.832 Q1.716 0.848 1.840 0.641" stroke="hsl(180.0,100%,35%)" stroke-width="0.00130"></path>
<path d="M1.285 0.832 Q2.015 0.593 1.709 0.185" stroke="hsl(180.0,100%,35%)" stroke-width="0.00130"></path>
<path d="M1.285 0.832 Q1.295 0.899 1.426 0.908" stroke="hsl(180.0,100%,35%)" stroke-width="0.00043"></path>
<path d="M0.803 0.846 Q1.486 0.951 1.840 0.641" stroke="hsl(180.0,100%,35%)" stroke-width="0.00043"></path>
<path d="M0.803 0.846 Q1.065 1.002 1.426 0.908" stroke="hsl(180.0,100%,35%)" stroke-width="0.00043"></path>
<path d="M0.803 0.846 Q0.574 0.850 0.532 0.962" stroke="hsl(180.0,100%,35%)" stroke-width="0.00043"></path>
<path d="M0.803 0.846 Q0.727 0.808 0.637 0.837" stroke="hsl(180.0,100%,35%)" stroke-width="0.00043"></path>
<path d="M1.528 0.132 Q1.044 0.290 1.246 0.561" stroke="hsl(180.0,100%,35%)" stroke-width="0.00043"></path>
<path d="M1.528 0.132 Q1.576 0.195 1.709 0.185" stroke="hsl(180.0,100%,35%)" stroke-width="0.00043"></path>
<path d="M1.528 0.132 Q0.635 0.435 1.030 0.937" stroke="hsl(180.0,100%,35%)" stroke-width="0.00043"></path>
<path d="M1.030 0.937 Q1.672 0.951 1.840 0.641" stroke="hsl(180.0,100%,35%)" stroke-width="0.00043"></path>
<path d="M1.030 0.937 Q1.172 0.868 1.070 0.784" stroke="hsl(180.0,100%,35%)" stroke-width="0.00086"></path>
<path d="M1.030 0.937 Q0.887 0.910 0.804 0.974" stroke="hsl(180.0,100%,35%)" stroke-width="0.00086"></path>
<path d="M1.030 0.937 Q1.971 0.697 1.709 0.185" stroke="hsl(180.0,100%,35%)" stroke-width="0.00043"></path>
<path d="M1.688 0.656 Q1.777 0.679 1.840 0.641" stroke="hsl(180.0,100%,35%)" stroke-width="0.00216"></path>
<path d="M1.688 0.656 Q2.075 0.425 1.709 0.185" stroke="hsl(180.0,100%,35%)" stroke-width="0.00130"></path>
<path d="M1.688 0.656 Q1.276 0.597 1.070 0.784" stroke="hsl(180.0,100%,35%)" stroke-width="0.00086"></path>
<path d="M1.196 0.296 Q1.009 0.438 1.246 0.561" stroke="hsl(180.0,100%,35%)" stroke-width="0.00086"></path>
<path d="M1.196 0.296 Q0.778 0.436 0.958 0.670" stroke="hsl(180.0,100%,35%)" stroke-width="0.00043"></path>
<path d="M1.196 0.296 Q0.604 0.397 0.671 0.708" stroke="hsl(180.0,100%,35%)" stroke-width="0.00043"></path>
<path d="M1.540 0.319 Q1.732 0.286 1.709 0.185" stroke="hsl(180.0,100%,35%)" stroke-width="0.00476"></path>
<path d="M1.540 0.319 Q1.433 0.275 1.323 0.317" stroke="hsl(180.0,100%,35%)" stroke-width="0.00043"></path>
<path d="M1.540 0.319 Q1.199 0.381 1.246 0.561" stroke="hsl(180.0,100%,35%)" stroke-width="0.00130"></path>
<path d="M1.540 0.319 Q1.433 0.540 1.840 0.641" stroke="hsl(180.0,100%,35%)" stroke-width="0.00043"></path>
<path d="M0.657 0.408 Q1.052 0.655 1.619 0.516" stroke="hsl(180.0,100%,35%)" stroke-width="0.00043"></path>
<path d="M0.657 0.408 Q1.361 0.507 1.709 0.185" stroke="hsl(180.0,100%,35%)" stroke-width="0.00043"></path>
<path d="M0.657 0.408 Q0.775 0.351 0.690 0.281" stroke="hsl(180.0,100%,35%)" stroke-width="0.00043"></path>
<path d="M0.532 0.962 Q1.444 1.063 1.840 0.641" stroke="hsl(180.0,100%,35%)" stroke-width="0.00130"></path>
<path d="M0.532 0.962 Q0.685 0.921 0.637 0.837" stroke="hsl(180.0,100%,35%)" stroke-width="0.00130"></path>
<path d="M0.532 0.962 Q0.761 0.958 0.803 0.846" stroke="hsl(180.0,100%,35%)" stroke-width="0.00086"></path>
<path d="M0.532 0.962 Q1.593 1.015 1.928 0.509" stroke="hsl(180.0,100%,35%)" stroke-width="0.00043"></path>
<path d="M0.992 0.904 Q1.926 0.688 1.709 0.185" stroke="hsl(180.0,100%,35%)" stroke-width="0.00086"></path>
<path d="M0.992 0.904 Q0.842 0.902 0.804 0.974" stroke="hsl(180.0,100%,35%)" stroke-width="0.00086"></path>
<path d="M0.992 0.904 Q1.127 0.860 1.070 0.784" stroke="hsl(180.0,100%,35%)" stroke-width="0.00043"></path>
<path d="M1.836 0.433 Q1.207 0.376 0.958 0.670" stroke="hsl(180.0,100%,35%)" stroke-width="0.00043"></path>
<path d="M1.836 0.433 Q1.367 0.306 1.016 0.507" stroke="hsl(180.0,100%,35%)" stroke-width="0.00043"></path>
<path d="M1.836 0.433 Q1.821 0.489 1.928 0.509" stroke="hsl(180.0,100%,35%)" stroke-width="0.00043"></path>
<path d="M0.208 0.942 Q1.068 0.624 0.636 0.134" stroke="hsl(0.0,100%,35%)" stroke-width="0.00043"></path>
<path d="M0.208 0.942 Q0.401 0.956 0.471 0.864" stroke="hsl(0.0,100%,35%)" stroke-width="0.00043"></path>
<path d="M0.208 0.942 Q0.977 0.708 0.690 0.281" stroke="hsl(0.0,100%,35%)" stroke-width="0.00043"></path>
<path d="M0.208 0.942 Q1.414 1.070 1.928 0.509" stroke="hsl(0.0,100%,35%)" stroke-width="0.00043"></path>
<path d="M0.208 0.942 Q1.031 0.959 1.246 0.561" stroke="hsl(0.0,100%,35%)" stroke-width="0.00043"></path>
<path d="M0.208 0.942 Q0.800 0.956 0.958 0.670" stroke="hsl(0.0,100%,35%)" stroke-width="0.00043"></path>
</g>
<text x="0.803" y="0.106" font-size="0.005764" fill="hsl(0.0,100%,20%)">alexnj</text>
<text x="0.636" y="0.123" font-size="0.023295" fill="hsl(0.0,100%,20%)">paulirish</text>
<text x="0.690" y="0.254" font-size="0.054782" fill="hsl(0.0,100%,20%)">jacktfranklin</text>
<text x="1.928" y="0.482" font-size="0.053865" fill="hsl(180.0,100%,20%)">alexrudenko</text>
<text x="1.246" y="0.530" font-size="0.062612" fill="hsl(180.0,100%,20%)">szuend</text>
<text x="0.958" y="0.636" font-size="0.069646" fill="hsl(180.0,100%,20%)">bmeurer</text>
<text x="1.709" y="0.156" font-size="0.057927" fill="hsl(180.0,100%,20%)">wolfi</text>
<text x="1.840" y="0.610" font-size="0.060452" fill="hsl(180.0,100%,20%)">dsv</text>
<text x="0.475" y="0.553" font-size="0.051231" fill="hsl(180.0,100%,20%)">pfaffe</text>
<text x="1.619" y="0.506" font-size="0.019687" fill="hsl(180.0,100%,20%)">nvitkov</text>
<text x="0.329" y="0.213" font-size="0.050138" fill="hsl(0.0,100%,20%)">andoli</text>
<text x="1.857" y="0.289" font-size="0.043770" fill="hsl(180.0,100%,20%)">kprokopenko</text>
<text x="0.671" y="0.694" font-size="0.026414" fill="hsl(180.0,100%,20%)">yangguo</text>
<text x="1.434" y="0.404" font-size="0.015609" fill="hsl(180.0,100%,20%)">petermueller</text>
<text x="1.944" y="0.544" font-size="0.003328" fill="hsl(180.0,100%,20%)">tperrotta</text>
<text x="1.016" y="0.485" font-size="0.045140" fill="hsl(180.0,100%,20%)">ergunsh</text>
<text x="1.840" y="0.456" font-size="0.015960" fill="hsl(180.0,100%,20%)">jrandolf</text>
<text x="0.931" y="0.427" font-size="0.013721" fill="hsl(180.0,100%,20%)">mathias</text>
<text x="0.192" y="0.671" font-size="0.024903" fill="hsl(0.0,100%,20%)">hadrienjaubert</text>
<text x="0.937" y="0.283" font-size="0.030500" fill="hsl(0.0,100%,20%)">alinavarkki</text>
<text x="0.157" y="0.790" font-size="0.034262" fill="hsl(0.0,100%,20%)">nancyly</text>
<text x="0.302" y="0.475" font-size="0.008805" fill="hsl(180.0,100%,20%)">almuthanna</text>
<text x="0.192" y="0.347" font-size="0.016639" fill="hsl(180.0,100%,20%)">leese</text>
<text x="1.394" y="0.177" font-size="0.023997" fill="hsl(180.0,100%,20%)">jec</text>
<text x="0.343" y="0.903" font-size="0.013721" fill="hsl(0.0,100%,20%)">asraine</text>
<text x="0.471" y="0.860" font-size="0.008151" fill="hsl(0.0,100%,20%)">cjamcl</text>
<text x="0.726" y="0.601" font-size="0.005764" fill="hsl(180.0,100%,20%)">barrypollard</text>
<text x="0.291" y="0.625" font-size="0.018528" fill="hsl(180.0,100%,20%)">changhaohan</text>
<text x="0.543" y="0.706" font-size="0.004706" fill="hsl(180.0,100%,20%)">caseq</text>
<text x="1.140" y="0.390" font-size="0.015250" fill="hsl(180.0,100%,20%)">jarin</text>
<text x="1.033" y="0.322" font-size="0.007441" fill="hsl(0.0,100%,20%)">victorporof</text>
<text x="0.168" y="0.451" font-size="0.008805" fill="hsl(180.0,100%,20%)">chrche</text>
<text x="1.323" y="0.314" font-size="0.006656" fill="hsl(180.0,100%,20%)">semel</text>
<text x="1.505" y="0.669" font-size="0.009412" fill="hsl(180.0,100%,20%)">fluorescent.hallucinogen</text>
<text x="1.452" y="0.566" font-size="0.003328" fill="hsl(180.0,100%,20%)">dibyapal</text>
<text x="1.546" y="0.608" font-size="0.003328" fill="hsl(180.0,100%,20%)">hartmanng</text>
<text x="1.254" y="0.693" font-size="0.003328" fill="hsl(180.0,100%,20%)">scheib</text>
<text x="1.402" y="0.709" font-size="0.003328" fill="hsl(180.0,100%,20%)">finnur</text>
<text x="0.441" y="0.682" font-size="0.014506" fill="hsl(180.0,100%,20%)">liviurau</text>
<text x="1.244" y="0.100" font-size="0.003328" fill="hsl(180.0,100%,20%)">tomac</text>
<text x="1.906" y="0.742" font-size="0.010523" fill="hsl(180.0,100%,20%)">jimmyseto</text>
<text x="1.070" y="0.776" font-size="0.016968" fill="hsl(180.0,100%,20%)">kenoss</text>
<text x="1.241" y="0.961" font-size="0.013721" fill="hsl(180.0,100%,20%)">lingqi</text>
<text x="0.804" y="0.970" font-size="0.007441" fill="hsl(180.0,100%,20%)">domenic</text>
<text x="0.399" y="0.759" font-size="0.005764" fill="hsl(180.0,100%,20%)">machenbach</text>
<text x="1.285" y="0.825" font-size="0.014119" fill="hsl(180.0,100%,20%)">miinak</text>
<text x="0.803" y="0.841" font-size="0.008805" fill="hsl(180.0,100%,20%)">sisidovski</text>
<text x="1.426" y="0.906" font-size="0.004706" fill="hsl(180.0,100%,20%)">kouhei</text>
<text x="1.528" y="0.129" font-size="0.005764" fill="hsl(180.0,100%,20%)">morlovich</text>
<text x="1.030" y="0.932" font-size="0.008805" fill="hsl(180.0,100%,20%)">nhiroki</text>
<text x="1.688" y="0.651" font-size="0.010523" fill="hsl(180.0,100%,20%)">robertlin</text>
<text x="1.196" y="0.293" font-size="0.006656" fill="hsl(180.0,100%,20%)">seth.brenith</text>
<text x="1.540" y="0.313" font-size="0.013721" fill="hsl(180.0,100%,20%)">shuuran</text>
<text x="0.657" y="0.405" font-size="0.005764" fill="hsl(180.0,100%,20%)">silviaeremia</text>
<text x="0.532" y="0.957" font-size="0.010523" fill="hsl(180.0,100%,20%)">tnak</text>
<text x="0.637" y="0.834" font-size="0.006656" fill="hsl(180.0,100%,20%)">yyanagisawa</text>
<text x="0.992" y="0.901" font-size="0.007441" fill="hsl(180.0,100%,20%)">taiyo</text>
<text x="1.836" y="0.430" font-size="0.005764" fill="hsl(180.0,100%,20%)">tkent</text>
<text x="0.208" y="0.938" font-size="0.008151" fill="hsl(0.0,100%,20%)">vidorteg</text>
<text x="1.493" y="0.352" font-size="0.003328" fill="hsl(180.0,100%,20%)">mathiasb</text>
<text x="1.479" y="0.093" font-size="0.003328" fill="hsl(180.0,100%,20%)">tsepez</text>
</svg>
