<svg width="4000" height="2000" viewBox="-0.025 -0.025 2.05 1.05" xmlns="http://www.w3.org/2000/svg">
  <style>
    path {
      fill: none;
      stroke-linecap: round;
      stroke-opacity: 0.4;
    }

    text {
      text-anchor: middle;
      alignment-baseline: hanging;
    }
  </style>
  <g opacity="0.4">
<path d="M0.674 0.966 Q0.639 0.910 0.523 0.915" stroke="hsl(0.0,100%,35%)" stroke-width="0.00043"></path>
<path d="M0.674 0.966 Q0.500 0.794 0.128 0.842" stroke="hsl(0.0,100%,35%)" stroke-width="0.00043"></path>
<path d="M0.674 0.966 Q1.141 0.734 0.792 0.456" stroke="hsl(0.0,100%,35%)" stroke-width="0.00043"></path>
<path d="M0.523 0.915 Q0.601 0.833 0.459 0.777" stroke="hsl(0.0,100%,35%)" stroke-width="0.00390"></path>
<path d="M0.523 0.915 Q0.384 0.799 0.128 0.842" stroke="hsl(0.0,100%,35%)" stroke-width="0.00520"></path>
<path d="M0.523 0.915 Q0.840 1.049 1.171 0.923" stroke="hsl(0.0,100%,35%)" stroke-width="0.00087"></path>
<path d="M0.523 0.915 Q1.024 0.739 0.792 0.456" stroke="hsl(0.0,100%,35%)" stroke-width="0.00043"></path>
<path d="M0.128 0.842 Q0.345 0.875 0.459 0.777" stroke="hsl(0.0,100%,35%)" stroke-width="0.03942"></path>
<path d="M0.128 0.842 Q0.434 1.005 0.820 0.891" stroke="hsl(0.0,100%,35%)" stroke-width="0.00173"></path>
<path d="M0.128 0.842 Q0.769 0.781 0.792 0.456" stroke="hsl(0.0,100%,35%)" stroke-width="0.00087"></path>
<path d="M0.128 0.842 Q1.145 0.868 1.420 0.378" stroke="hsl(0.0,100%,35%)" stroke-width="0.00130"></path>
<path d="M0.128 0.842 Q0.584 1.091 1.171 0.923" stroke="hsl(0.0,100%,35%)" stroke-width="0.00433"></path>
<path d="M0.128 0.842 Q0.895 0.904 1.186 0.544" stroke="hsl(0.0,100%,35%)" stroke-width="0.00087"></path>
<path d="M0.128 0.842 Q0.267 0.957 0.523 0.915" stroke="hsl(0.0,100%,35%)" stroke-width="0.00217"></path>
<path d="M0.128 0.842 Q0.078 0.896 0.174 0.933" stroke="hsl(0.0,100%,35%)" stroke-width="0.00173"></path>
<path d="M0.128 0.842 Q0.909 0.734 0.870 0.329" stroke="hsl(0.0,100%,35%)" stroke-width="0.00043"></path>
<path d="M0.792 0.456 Q1.168 0.542 1.420 0.378" stroke="hsl(120.0,100%,35%)" stroke-width="0.00996"></path>
<path d="M0.792 0.456 Q1.019 0.511 1.177 0.412" stroke="hsl(120.0,100%,35%)" stroke-width="0.00650"></path>
<path d="M0.792 0.456 Q1.147 0.431 1.178 0.253" stroke="hsl(120.0,100%,35%)" stroke-width="0.00433"></path>
<path d="M0.792 0.456 Q0.932 0.408 0.870 0.329" stroke="hsl(120.0,100%,35%)" stroke-width="0.02253"></path>
<path d="M0.792 0.456 Q0.919 0.578 1.186 0.544" stroke="hsl(120.0,100%,35%)" stroke-width="0.00173"></path>
<path d="M0.792 0.456 Q0.757 0.391 0.622 0.394" stroke="hsl(120.0,100%,35%)" stroke-width="0.00477"></path>
<path d="M0.792 0.456 Q0.151 0.516 0.128 0.842" stroke="hsl(120.0,100%,35%)" stroke-width="0.00087"></path>
<path d="M0.792 0.456 Q0.369 0.549 0.459 0.777" stroke="hsl(120.0,100%,35%)" stroke-width="0.00087"></path>
<path d="M0.792 0.456 Q1.338 0.459 1.463 0.193" stroke="hsl(120.0,100%,35%)" stroke-width="0.00087"></path>
<path d="M0.792 0.456 Q0.695 0.427 0.618 0.468" stroke="hsl(120.0,100%,35%)" stroke-width="0.00780"></path>
<path d="M0.792 0.456 Q1.302 0.390 1.286 0.127" stroke="hsl(120.0,100%,35%)" stroke-width="0.00043"></path>
<path d="M0.792 0.456 Q0.726 0.352 0.510 0.361" stroke="hsl(120.0,100%,35%)" stroke-width="0.00043"></path>
<path d="M0.792 0.456 Q1.039 0.650 1.472 0.572" stroke="hsl(120.0,100%,35%)" stroke-width="0.00043"></path>
<path d="M0.792 0.456 Q0.867 0.304 0.588 0.235" stroke="hsl(120.0,100%,35%)" stroke-width="0.00087"></path>
<path d="M0.792 0.456 Q1.153 0.616 1.545 0.475" stroke="hsl(120.0,100%,35%)" stroke-width="0.00043"></path>
<path d="M0.792 0.456 Q0.690 0.690 1.124 0.791" stroke="hsl(120.0,100%,35%)" stroke-width="0.00087"></path>
<path d="M1.420 0.378 Q1.171 0.414 1.186 0.544" stroke="hsl(120.0,100%,35%)" stroke-width="0.01083"></path>
<path d="M1.420 0.378 Q1.044 0.291 0.792 0.456" stroke="hsl(120.0,100%,35%)" stroke-width="0.01430"></path>
<path d="M1.420 0.378 Q1.271 0.347 1.177 0.412" stroke="hsl(120.0,100%,35%)" stroke-width="0.00607"></path>
<path d="M1.420 0.378 Q1.184 0.244 0.870 0.329" stroke="hsl(120.0,100%,35%)" stroke-width="0.01343"></path>
<path d="M1.420 0.378 Q1.399 0.267 1.178 0.253" stroke="hsl(120.0,100%,35%)" stroke-width="0.00910"></path>
<path d="M1.420 0.378 Q1.404 0.452 1.545 0.475" stroke="hsl(120.0,100%,35%)" stroke-width="0.00260"></path>
<path d="M1.420 0.378 Q1.291 0.485 1.472 0.572" stroke="hsl(120.0,100%,35%)" stroke-width="0.00087"></path>
<path d="M1.420 0.378 Q1.171 0.358 1.077 0.475" stroke="hsl(120.0,100%,35%)" stroke-width="0.00043"></path>
<path d="M1.420 0.378 Q1.555 0.462 1.747 0.414" stroke="hsl(120.0,100%,35%)" stroke-width="0.00433"></path>
<path d="M1.420 0.378 Q1.590 0.294 1.463 0.193" stroke="hsl(120.0,100%,35%)" stroke-width="0.00130"></path>
<path d="M1.420 0.378 Q0.621 0.385 0.459 0.777" stroke="hsl(120.0,100%,35%)" stroke-width="0.00043"></path>
<path d="M1.177 0.412 Q1.326 0.444 1.420 0.378" stroke="hsl(120.0,100%,35%)" stroke-width="0.03552"></path>
<path d="M1.177 0.412 Q1.076 0.480 1.186 0.544" stroke="hsl(120.0,100%,35%)" stroke-width="0.01690"></path>
<path d="M1.177 0.412 Q1.305 0.333 1.178 0.253" stroke="hsl(120.0,100%,35%)" stroke-width="0.01040"></path>
<path d="M1.177 0.412 Q1.310 0.517 1.545 0.475" stroke="hsl(120.0,100%,35%)" stroke-width="0.00043"></path>
<path d="M1.177 0.412 Q1.496 0.399 1.541 0.240" stroke="hsl(120.0,100%,35%)" stroke-width="0.00043"></path>
<path d="M1.177 0.412 Q0.852 0.328 0.618 0.468" stroke="hsl(120.0,100%,35%)" stroke-width="0.00953"></path>
<path d="M1.177 0.412 Q1.197 0.551 1.472 0.572" stroke="hsl(120.0,100%,35%)" stroke-width="0.01646"></path>
<path d="M1.177 0.412 Q0.914 0.292 0.622 0.394" stroke="hsl(120.0,100%,35%)" stroke-width="0.00087"></path>
<path d="M1.177 0.412 Q1.090 0.309 0.870 0.329" stroke="hsl(120.0,100%,35%)" stroke-width="0.01213"></path>
<path d="M1.177 0.412 Q1.496 0.360 1.463 0.193" stroke="hsl(120.0,100%,35%)" stroke-width="0.00650"></path>
<path d="M1.177 0.412 Q0.765 0.666 1.171 0.923" stroke="hsl(120.0,100%,35%)" stroke-width="0.00043"></path>
<path d="M1.177 0.412 Q1.459 0.291 1.286 0.127" stroke="hsl(120.0,100%,35%)" stroke-width="0.00390"></path>
<path d="M1.177 0.412 Q0.950 0.357 0.792 0.456" stroke="hsl(120.0,100%,35%)" stroke-width="0.01863"></path>
<path d="M1.177 0.412 Q1.513 0.482 1.724 0.334" stroke="hsl(120.0,100%,35%)" stroke-width="0.00087"></path>
<path d="M1.177 0.412 Q0.526 0.451 0.459 0.777" stroke="hsl(120.0,100%,35%)" stroke-width="0.00130"></path>
<path d="M1.177 0.412 Q1.020 0.543 1.240 0.648" stroke="hsl(120.0,100%,35%)" stroke-width="0.00043"></path>
<path d="M1.177 0.412 Q1.077 0.424 1.077 0.475" stroke="hsl(120.0,100%,35%)" stroke-width="0.00043"></path>
<path d="M1.177 0.412 Q1.460 0.527 1.747 0.414" stroke="hsl(120.0,100%,35%)" stroke-width="0.00087"></path>
<path d="M1.177 0.412 Q0.259 0.472 0.174 0.933" stroke="hsl(120.0,100%,35%)" stroke-width="0.00043"></path>
<path d="M1.178 0.253 Q1.050 0.332 1.177 0.412" stroke="hsl(120.0,100%,35%)" stroke-width="0.00910"></path>
<path d="M1.178 0.253 Q0.963 0.230 0.870 0.329" stroke="hsl(120.0,100%,35%)" stroke-width="0.01603"></path>
<path d="M1.178 0.253 Q1.369 0.280 1.463 0.193" stroke="hsl(120.0,100%,35%)" stroke-width="0.00780"></path>
<path d="M1.178 0.253 Q1.240 0.139 1.031 0.084" stroke="hsl(120.0,100%,35%)" stroke-width="0.00043"></path>
<path d="M1.178 0.253 Q0.638 0.587 1.171 0.923" stroke="hsl(120.0,100%,35%)" stroke-width="0.00043"></path>
<path d="M1.178 0.253 Q1.070 0.471 1.472 0.572" stroke="hsl(120.0,100%,35%)" stroke-width="0.00303"></path>
<path d="M1.178 0.253 Q0.949 0.400 1.186 0.544" stroke="hsl(120.0,100%,35%)" stroke-width="0.00173"></path>
<path d="M1.178 0.253 Q1.199 0.364 1.420 0.378" stroke="hsl(120.0,100%,35%)" stroke-width="0.00477"></path>
<path d="M1.178 0.253 Q0.399 0.371 0.459 0.777" stroke="hsl(120.0,100%,35%)" stroke-width="0.00173"></path>
<path d="M1.178 0.253 Q0.725 0.248 0.618 0.468" stroke="hsl(120.0,100%,35%)" stroke-width="0.00087"></path>
<path d="M1.178 0.253 Q0.182 0.337 0.128 0.842" stroke="hsl(120.0,100%,35%)" stroke-width="0.00260"></path>
<path d="M1.178 0.253 Q1.369 0.319 1.541 0.240" stroke="hsl(120.0,100%,35%)" stroke-width="0.00087"></path>
<path d="M1.178 0.253 Q1.064 0.142 0.822 0.173" stroke="hsl(120.0,100%,35%)" stroke-width="0.00043"></path>
<path d="M1.178 0.253 Q1.173 0.150 0.971 0.130" stroke="hsl(120.0,100%,35%)" stroke-width="0.00043"></path>
<path d="M1.178 0.253 Q0.823 0.277 0.792 0.456" stroke="hsl(120.0,100%,35%)" stroke-width="0.00217"></path>
<path d="M1.178 0.253 Q0.897 0.126 0.588 0.235" stroke="hsl(120.0,100%,35%)" stroke-width="0.00043"></path>
<path d="M1.178 0.253 Q1.183 0.437 1.545 0.475" stroke="hsl(120.0,100%,35%)" stroke-width="0.00043"></path>
<path d="M0.870 0.329 Q0.977 0.571 1.472 0.572" stroke="hsl(120.0,100%,35%)" stroke-width="0.01256"></path>
<path d="M0.870 0.329 Q1.085 0.353 1.178 0.253" stroke="hsl(120.0,100%,35%)" stroke-width="0.00996"></path>
<path d="M0.870 0.329 Q0.957 0.432 1.177 0.412" stroke="hsl(120.0,100%,35%)" stroke-width="0.00910"></path>
<path d="M0.870 0.329 Q1.276 0.380 1.463 0.193" stroke="hsl(120.0,100%,35%)" stroke-width="0.00130"></path>
<path d="M0.870 0.329 Q0.857 0.500 1.186 0.544" stroke="hsl(120.0,100%,35%)" stroke-width="0.00303"></path>
<path d="M0.870 0.329 Q0.307 0.471 0.459 0.777" stroke="hsl(120.0,100%,35%)" stroke-width="0.00043"></path>
<path d="M0.870 0.329 Q0.730 0.377 0.792 0.456" stroke="hsl(120.0,100%,35%)" stroke-width="0.00520"></path>
<path d="M0.870 0.329 Q1.106 0.464 1.420 0.378" stroke="hsl(120.0,100%,35%)" stroke-width="0.01733"></path>
<path d="M0.870 0.329 Q0.491 0.493 0.727 0.714" stroke="hsl(120.0,100%,35%)" stroke-width="0.00043"></path>
<path d="M0.870 0.329 Q0.800 0.563 1.240 0.648" stroke="hsl(120.0,100%,35%)" stroke-width="0.00087"></path>
<path d="M0.870 0.329 Q0.633 0.348 0.618 0.468" stroke="hsl(120.0,100%,35%)" stroke-width="0.00043"></path>
<path d="M0.870 0.329 Q0.089 0.437 0.128 0.842" stroke="hsl(120.0,100%,35%)" stroke-width="0.00087"></path>
<path d="M0.870 0.329 Q1.436 0.452 1.799 0.202" stroke="hsl(120.0,100%,35%)" stroke-width="0.00043"></path>
<path d="M0.870 0.329 Q0.805 0.226 0.588 0.235" stroke="hsl(120.0,100%,35%)" stroke-width="0.00130"></path>
<path d="M0.870 0.329 Q1.277 0.419 1.541 0.240" stroke="hsl(120.0,100%,35%)" stroke-width="0.00043"></path>
<path d="M1.186 0.544 Q1.306 0.615 1.472 0.572" stroke="hsl(120.0,100%,35%)" stroke-width="0.01170"></path>
<path d="M1.186 0.544 Q1.286 0.476 1.177 0.412" stroke="hsl(120.0,100%,35%)" stroke-width="0.00173"></path>
<path d="M1.186 0.544 Q1.623 0.546 1.724 0.334" stroke="hsl(120.0,100%,35%)" stroke-width="0.00087"></path>
<path d="M1.186 0.544 Q1.435 0.508 1.420 0.378" stroke="hsl(120.0,100%,35%)" stroke-width="0.00953"></path>
<path d="M1.186 0.544 Q1.414 0.397 1.178 0.253" stroke="hsl(120.0,100%,35%)" stroke-width="0.00173"></path>
<path d="M1.186 0.544 Q1.199 0.373 0.870 0.329" stroke="hsl(120.0,100%,35%)" stroke-width="0.00260"></path>
<path d="M1.186 0.544 Q0.636 0.515 0.459 0.777" stroke="hsl(120.0,100%,35%)" stroke-width="0.00173"></path>
<path d="M1.186 0.544 Q0.418 0.481 0.128 0.842" stroke="hsl(120.0,100%,35%)" stroke-width="0.00130"></path>
<path d="M1.186 0.544 Q0.725 0.644 0.820 0.891" stroke="hsl(120.0,100%,35%)" stroke-width="0.00043"></path>
<path d="M1.186 0.544 Q1.059 0.421 0.792 0.456" stroke="hsl(120.0,100%,35%)" stroke-width="0.00217"></path>
<path d="M1.186 0.544 Q1.129 0.607 1.240 0.648" stroke="hsl(120.0,100%,35%)" stroke-width="0.00043"></path>
<path d="M1.186 0.544 Q1.134 0.270 0.588 0.235" stroke="hsl(120.0,100%,35%)" stroke-width="0.00043"></path>
<path d="M1.186 0.544 Q0.874 0.730 1.171 0.923" stroke="hsl(120.0,100%,35%)" stroke-width="0.00043"></path>
<path d="M1.186 0.544 Q0.794 0.306 0.244 0.445" stroke="hsl(120.0,100%,35%)" stroke-width="0.00043"></path>
<path d="M0.622 0.394 Q0.885 0.514 1.177 0.412" stroke="hsl(120.0,100%,35%)" stroke-width="0.00217"></path>
<path d="M0.622 0.394 Q1.034 0.546 1.420 0.378" stroke="hsl(120.0,100%,35%)" stroke-width="0.00087"></path>
<path d="M0.622 0.394 Q0.784 0.581 1.186 0.544" stroke="hsl(120.0,100%,35%)" stroke-width="0.00043"></path>
<path d="M0.622 0.394 Q0.658 0.459 0.792 0.456" stroke="hsl(120.0,100%,35%)" stroke-width="0.00130"></path>
<path d="M0.622 0.394 Q0.732 0.307 0.588 0.235" stroke="hsl(120.0,100%,35%)" stroke-width="0.00043"></path>
<path d="M0.622 0.394 Q1.203 0.462 1.463 0.193" stroke="hsl(120.0,100%,35%)" stroke-width="0.00043"></path>
<path d="M0.459 0.777 Q0.548 0.906 0.820 0.891" stroke="hsl(0.0,100%,35%)" stroke-width="0.00303"></path>
<path d="M0.459 0.777 Q0.697 0.992 1.171 0.923" stroke="hsl(0.0,100%,35%)" stroke-width="0.00866"></path>
<path d="M0.459 0.777 Q1.009 0.805 1.186 0.544" stroke="hsl(0.0,100%,35%)" stroke-width="0.00087"></path>
<path d="M0.459 0.777 Q1.109 0.738 1.177 0.412" stroke="hsl(0.0,100%,35%)" stroke-width="0.00087"></path>
<path d="M0.459 0.777 Q0.241 0.743 0.128 0.842" stroke="hsl(0.0,100%,35%)" stroke-width="0.01776"></path>
<path d="M0.459 0.777 Q1.258 0.770 1.420 0.378" stroke="hsl(0.0,100%,35%)" stroke-width="0.00130"></path>
<path d="M0.459 0.777 Q1.237 0.659 1.178 0.253" stroke="hsl(0.0,100%,35%)" stroke-width="0.00087"></path>
<path d="M0.459 0.777 Q1.243 0.843 1.545 0.475" stroke="hsl(0.0,100%,35%)" stroke-width="0.00043"></path>
<path d="M0.459 0.777 Q1.446 0.808 1.724 0.334" stroke="hsl(0.0,100%,35%)" stroke-width="0.00043"></path>
<path d="M0.459 0.777 Q1.429 0.725 1.541 0.240" stroke="hsl(0.0,100%,35%)" stroke-width="0.00043"></path>
<path d="M0.459 0.777 Q0.882 0.683 0.792 0.456" stroke="hsl(0.0,100%,35%)" stroke-width="0.00043"></path>
<path d="M0.459 0.777 Q0.780 0.917 1.124 0.791" stroke="hsl(0.0,100%,35%)" stroke-width="0.00043"></path>
<path d="M1.463 0.193 Q1.145 0.245 1.177 0.412" stroke="hsl(120.0,100%,35%)" stroke-width="0.00996"></path>
<path d="M1.463 0.193 Q1.044 0.313 1.186 0.544" stroke="hsl(120.0,100%,35%)" stroke-width="0.00087"></path>
<path d="M1.463 0.193 Q1.464 0.232 1.541 0.240" stroke="hsl(120.0,100%,35%)" stroke-width="0.00043"></path>
<path d="M1.463 0.193 Q1.165 0.384 1.472 0.572" stroke="hsl(120.0,100%,35%)" stroke-width="0.00303"></path>
<path d="M1.463 0.193 Q0.733 0.500 1.171 0.923" stroke="hsl(120.0,100%,35%)" stroke-width="0.00087"></path>
<path d="M1.463 0.193 Q1.481 0.315 1.724 0.334" stroke="hsl(120.0,100%,35%)" stroke-width="0.00043"></path>
<path d="M1.463 0.193 Q1.293 0.277 1.420 0.378" stroke="hsl(120.0,100%,35%)" stroke-width="0.00043"></path>
<path d="M1.463 0.193 Q1.273 0.166 1.178 0.253" stroke="hsl(120.0,100%,35%)" stroke-width="0.02123"></path>
<path d="M1.463 0.193 Q1.058 0.143 0.870 0.329" stroke="hsl(120.0,100%,35%)" stroke-width="0.00260"></path>
<path d="M1.463 0.193 Q1.427 0.124 1.286 0.127" stroke="hsl(120.0,100%,35%)" stroke-width="0.00043"></path>
<path d="M1.463 0.193 Q0.917 0.190 0.792 0.456" stroke="hsl(120.0,100%,35%)" stroke-width="0.00087"></path>
<path d="M1.463 0.193 Q0.882 0.125 0.622 0.394" stroke="hsl(120.0,100%,35%)" stroke-width="0.00043"></path>
<path d="M1.463 0.193 Q0.277 0.250 0.128 0.842" stroke="hsl(120.0,100%,35%)" stroke-width="0.00130"></path>
<path d="M1.463 0.193 Q0.987 0.376 1.240 0.648" stroke="hsl(120.0,100%,35%)" stroke-width="0.00043"></path>
<path d="M1.463 0.193 Q0.494 0.284 0.459 0.777" stroke="hsl(120.0,100%,35%)" stroke-width="0.00087"></path>
<path d="M0.618 0.468 Q1.070 0.473 1.178 0.253" stroke="hsl(120.0,100%,35%)" stroke-width="0.00173"></path>
<path d="M0.618 0.468 Q0.942 0.552 1.177 0.412" stroke="hsl(120.0,100%,35%)" stroke-width="0.00173"></path>
<path d="M0.618 0.468 Q0.679 0.432 0.622 0.394" stroke="hsl(120.0,100%,35%)" stroke-width="0.00043"></path>
<path d="M0.618 0.468 Q0.962 0.691 1.472 0.572" stroke="hsl(120.0,100%,35%)" stroke-width="0.00087"></path>
<path d="M0.618 0.468 Q0.715 0.497 0.792 0.456" stroke="hsl(120.0,100%,35%)" stroke-width="0.00173"></path>
<path d="M0.618 0.468 Q1.261 0.500 1.463 0.193" stroke="hsl(120.0,100%,35%)" stroke-width="0.00130"></path>
<path d="M0.618 0.468 Q0.841 0.620 1.186 0.544" stroke="hsl(120.0,100%,35%)" stroke-width="0.00043"></path>
<path d="M0.618 0.468 Q1.261 0.539 1.541 0.240" stroke="hsl(120.0,100%,35%)" stroke-width="0.00043"></path>
<path d="M1.286 0.127 Q1.322 0.196 1.463 0.193" stroke="hsl(120.0,100%,35%)" stroke-width="0.00433"></path>
<path d="M1.286 0.127 Q1.023 0.387 1.472 0.572" stroke="hsl(120.0,100%,35%)" stroke-width="0.00043"></path>
<path d="M1.286 0.127 Q0.903 0.315 1.186 0.544" stroke="hsl(120.0,100%,35%)" stroke-width="0.00043"></path>
<path d="M1.472 0.572 Q1.365 0.330 0.870 0.329" stroke="hsl(120.0,100%,35%)" stroke-width="0.00087"></path>
<path d="M1.472 0.572 Q1.601 0.464 1.420 0.378" stroke="hsl(120.0,100%,35%)" stroke-width="0.00433"></path>
<path d="M1.472 0.572 Q1.351 0.500 1.186 0.544" stroke="hsl(120.0,100%,35%)" stroke-width="0.01473"></path>
<path d="M1.472 0.572 Q1.225 0.378 0.792 0.456" stroke="hsl(120.0,100%,35%)" stroke-width="0.00087"></path>
<path d="M1.472 0.572 Q1.452 0.433 1.177 0.412" stroke="hsl(120.0,100%,35%)" stroke-width="0.00390"></path>
<path d="M1.472 0.572 Q1.771 0.380 1.463 0.193" stroke="hsl(120.0,100%,35%)" stroke-width="0.00130"></path>
<path d="M1.472 0.572 Q0.723 0.553 0.523 0.915" stroke="hsl(120.0,100%,35%)" stroke-width="0.00043"></path>
<path d="M1.472 0.572 Q1.295 0.564 1.240 0.648" stroke="hsl(120.0,100%,35%)" stroke-width="0.00173"></path>
<path d="M1.472 0.572 Q0.584 0.438 0.128 0.842" stroke="hsl(120.0,100%,35%)" stroke-width="0.00043"></path>
<path d="M1.472 0.572 Q1.482 0.508 1.360 0.489" stroke="hsl(120.0,100%,35%)" stroke-width="0.00087"></path>
<path d="M0.588 0.235 Q0.513 0.386 0.792 0.456" stroke="hsl(120.0,100%,35%)" stroke-width="0.00347"></path>
<path d="M0.588 0.235 Q0.478 0.321 0.622 0.394" stroke="hsl(120.0,100%,35%)" stroke-width="0.00043"></path>
<path d="M0.588 0.235 Q0.889 0.473 1.420 0.378" stroke="hsl(120.0,100%,35%)" stroke-width="0.00043"></path>
<path d="M0.588 0.235 Q1.059 0.389 1.463 0.193" stroke="hsl(120.0,100%,35%)" stroke-width="0.00043"></path>
<path d="M0.588 0.235 Q0.653 0.339 0.870 0.329" stroke="hsl(120.0,100%,35%)" stroke-width="0.00087"></path>
<path d="M0.588 0.235 Q0.416 0.357 0.618 0.468" stroke="hsl(120.0,100%,35%)" stroke-width="0.00043"></path>
<path d="M0.588 0.235 Q0.640 0.509 1.186 0.544" stroke="hsl(120.0,100%,35%)" stroke-width="0.00043"></path>
<path d="M1.124 0.791 Q1.226 0.557 0.792 0.456" stroke="hsl(0.0,100%,35%)" stroke-width="0.00390"></path>
<path d="M1.124 0.791 Q1.041 0.866 1.171 0.923" stroke="hsl(0.0,100%,35%)" stroke-width="0.00823"></path>
<path d="M1.124 0.791 Q0.724 0.732 0.523 0.915" stroke="hsl(0.0,100%,35%)" stroke-width="0.00043"></path>
<path d="M1.124 0.791 Q1.772 0.560 1.463 0.193" stroke="hsl(0.0,100%,35%)" stroke-width="0.00520"></path>
<path d="M1.124 0.791 Q0.585 0.617 0.128 0.842" stroke="hsl(0.0,100%,35%)" stroke-width="0.00130"></path>
<path d="M1.124 0.791 Q0.803 0.651 0.459 0.777" stroke="hsl(0.0,100%,35%)" stroke-width="0.00043"></path>
<path d="M0.820 0.891 Q0.731 0.762 0.459 0.777" stroke="hsl(0.0,100%,35%)" stroke-width="0.01040"></path>
<path d="M0.820 0.891 Q1.381 0.723 1.177 0.412" stroke="hsl(0.0,100%,35%)" stroke-width="0.00043"></path>
<path d="M0.820 0.891 Q1.281 0.790 1.186 0.544" stroke="hsl(0.0,100%,35%)" stroke-width="0.00043"></path>
<path d="M0.820 0.891 Q0.969 0.977 1.171 0.923" stroke="hsl(0.0,100%,35%)" stroke-width="0.00650"></path>
<path d="M0.820 0.891 Q0.513 0.728 0.128 0.842" stroke="hsl(0.0,100%,35%)" stroke-width="0.01040"></path>
<path d="M0.820 0.891 Q0.463 0.783 0.174 0.933" stroke="hsl(0.0,100%,35%)" stroke-width="0.00043"></path>
<path d="M1.171 0.923 Q0.932 0.708 0.459 0.777" stroke="hsl(0.0,100%,35%)" stroke-width="0.00347"></path>
<path d="M1.171 0.923 Q1.021 0.837 0.820 0.891" stroke="hsl(0.0,100%,35%)" stroke-width="0.00173"></path>
<path d="M1.171 0.923 Q0.715 0.674 0.128 0.842" stroke="hsl(0.0,100%,35%)" stroke-width="0.00347"></path>
<path d="M1.171 0.923 Q1.583 0.669 1.177 0.412" stroke="hsl(0.0,100%,35%)" stroke-width="0.00087"></path>
<path d="M1.171 0.923 Q0.854 0.789 0.523 0.915" stroke="hsl(0.0,100%,35%)" stroke-width="0.00043"></path>
<path d="M1.724 0.334 Q0.826 0.431 0.820 0.891" stroke="hsl(0.0,100%,35%)" stroke-width="0.00130"></path>
<path d="M1.724 0.334 Q1.706 0.211 1.463 0.193" stroke="hsl(0.0,100%,35%)" stroke-width="0.00043"></path>
<path d="M1.724 0.334 Q1.160 0.208 0.792 0.456" stroke="hsl(0.0,100%,35%)" stroke-width="0.00043"></path>
<path d="M1.724 0.334 Q1.387 0.264 1.177 0.412" stroke="hsl(0.0,100%,35%)" stroke-width="0.00130"></path>
<path d="M1.724 0.334 Q1.536 0.295 1.420 0.378" stroke="hsl(0.0,100%,35%)" stroke-width="0.00043"></path>
<path d="M1.724 0.334 Q1.730 0.424 1.908 0.441" stroke="hsl(0.0,100%,35%)" stroke-width="0.00043"></path>
<path d="M1.541 0.240 Q1.222 0.254 1.177 0.412" stroke="hsl(120.0,100%,35%)" stroke-width="0.00130"></path>
<path d="M1.541 0.240 Q1.064 0.384 1.240 0.648" stroke="hsl(120.0,100%,35%)" stroke-width="0.00087"></path>
<path d="M1.541 0.240 Q1.700 0.273 1.799 0.202" stroke="hsl(120.0,100%,35%)" stroke-width="0.00087"></path>
<path d="M1.541 0.240 Q1.350 0.174 1.178 0.253" stroke="hsl(120.0,100%,35%)" stroke-width="0.00390"></path>
<path d="M1.541 0.240 Q1.134 0.151 0.870 0.329" stroke="hsl(120.0,100%,35%)" stroke-width="0.00303"></path>
<path d="M1.541 0.240 Q0.571 0.292 0.459 0.777" stroke="hsl(120.0,100%,35%)" stroke-width="0.00043"></path>
<path d="M1.541 0.240 Q1.370 0.285 1.420 0.378" stroke="hsl(120.0,100%,35%)" stroke-width="0.00217"></path>
<path d="M1.541 0.240 Q1.540 0.201 1.463 0.193" stroke="hsl(120.0,100%,35%)" stroke-width="0.00087"></path>
<path d="M1.541 0.240 Q1.715 0.159 1.595 0.056" stroke="hsl(120.0,100%,35%)" stroke-width="0.00043"></path>
<path d="M1.541 0.240 Q1.558 0.324 1.724 0.334" stroke="hsl(120.0,100%,35%)" stroke-width="0.00043"></path>
<path d="M0.727 0.714 Q0.746 0.786 0.890 0.793" stroke="hsl(0.0,100%,35%)" stroke-width="0.00173"></path>
<path d="M0.727 0.714 Q0.465 0.773 0.523 0.915" stroke="hsl(0.0,100%,35%)" stroke-width="0.00260"></path>
<path d="M0.727 0.714 Q1.327 0.758 1.545 0.475" stroke="hsl(0.0,100%,35%)" stroke-width="0.00087"></path>
<path d="M0.727 0.714 Q0.966 0.598 0.792 0.456" stroke="hsl(0.0,100%,35%)" stroke-width="0.00087"></path>
<path d="M1.746 0.572 Q1.589 0.378 1.177 0.412" stroke="hsl(0.0,100%,35%)" stroke-width="0.00043"></path>
<path d="M1.746 0.572 Q1.909 0.365 1.541 0.240" stroke="hsl(0.0,100%,35%)" stroke-width="0.00043"></path>
<path d="M1.746 0.572 Q0.721 0.383 0.128 0.842" stroke="hsl(0.0,100%,35%)" stroke-width="0.00043"></path>
<path d="M1.240 0.648 Q1.297 0.585 1.186 0.544" stroke="hsl(120.0,100%,35%)" stroke-width="0.00433"></path>
<path d="M1.240 0.648 Q1.417 0.656 1.472 0.572" stroke="hsl(120.0,100%,35%)" stroke-width="0.00217"></path>
<path d="M1.240 0.648 Q1.310 0.415 0.870 0.329" stroke="hsl(120.0,100%,35%)" stroke-width="0.00043"></path>
<path d="M1.240 0.648 Q1.546 0.549 1.420 0.378" stroke="hsl(120.0,100%,35%)" stroke-width="0.00087"></path>
<path d="M1.240 0.648 Q0.985 0.772 1.171 0.923" stroke="hsl(120.0,100%,35%)" stroke-width="0.00043"></path>
<path d="M1.240 0.648 Q1.716 0.465 1.463 0.193" stroke="hsl(120.0,100%,35%)" stroke-width="0.00043"></path>
<path d="M1.240 0.648 Q1.428 0.592 1.360 0.489" stroke="hsl(120.0,100%,35%)" stroke-width="0.00043"></path>
<path d="M1.360 0.489 Q1.478 0.445 1.420 0.378" stroke="hsl(120.0,100%,35%)" stroke-width="0.00217"></path>
<path d="M1.360 0.489 Q1.229 0.481 1.186 0.544" stroke="hsl(120.0,100%,35%)" stroke-width="0.00347"></path>
<path d="M1.360 0.489 Q1.453 0.375 1.251 0.304" stroke="hsl(120.0,100%,35%)" stroke-width="0.00130"></path>
<path d="M1.360 0.489 Q0.462 0.419 0.128 0.842" stroke="hsl(120.0,100%,35%)" stroke-width="0.00087"></path>
<path d="M1.360 0.489 Q1.666 0.484 1.724 0.334" stroke="hsl(120.0,100%,35%)" stroke-width="0.00043"></path>
<path d="M1.360 0.489 Q1.242 0.311 0.870 0.329" stroke="hsl(120.0,100%,35%)" stroke-width="0.00043"></path>
<path d="M1.360 0.489 Q1.463 0.519 1.545 0.475" stroke="hsl(120.0,100%,35%)" stroke-width="0.00043"></path>
<path d="M1.789 0.512 Q1.476 0.237 0.870 0.329" stroke="hsl(0.0,100%,35%)" stroke-width="0.00043"></path>
<path d="M1.789 0.512 Q1.696 0.445 1.545 0.475" stroke="hsl(0.0,100%,35%)" stroke-width="0.00043"></path>
<path d="M1.789 0.512 Q1.691 0.260 1.178 0.253" stroke="hsl(0.0,100%,35%)" stroke-width="0.00043"></path>
<path d="M1.789 0.512 Q1.563 0.340 1.177 0.412" stroke="hsl(0.0,100%,35%)" stroke-width="0.00043"></path>
<path d="M1.789 0.512 Q1.899 0.410 1.724 0.334" stroke="hsl(0.0,100%,35%)" stroke-width="0.00087"></path>
<path d="M1.789 0.512 Q1.712 0.371 1.420 0.378" stroke="hsl(0.0,100%,35%)" stroke-width="0.00043"></path>
<path d="M1.789 0.512 Q1.336 0.284 0.792 0.456" stroke="hsl(0.0,100%,35%)" stroke-width="0.00043"></path>
<path d="M1.789 0.512 Q1.001 0.508 0.820 0.891" stroke="hsl(0.0,100%,35%)" stroke-width="0.00087"></path>
<path d="M0.153 0.655 Q0.988 0.659 1.178 0.253" stroke="hsl(120.0,100%,35%)" stroke-width="0.00087"></path>
<path d="M0.153 0.655 Q0.073 0.651 0.046 0.689" stroke="hsl(120.0,100%,35%)" stroke-width="0.00043"></path>
<path d="M0.153 0.655 Q0.185 0.601 0.085 0.573" stroke="hsl(120.0,100%,35%)" stroke-width="0.00043"></path>
<path d="M0.153 0.655 Q0.269 0.644 0.273 0.585" stroke="hsl(120.0,100%,35%)" stroke-width="0.00043"></path>
<path d="M1.041 0.491 Q1.085 0.376 0.870 0.329" stroke="hsl(120.0,100%,35%)" stroke-width="0.00217"></path>
<path d="M1.041 0.491 Q1.305 0.584 1.545 0.475" stroke="hsl(120.0,100%,35%)" stroke-width="0.00043"></path>
<path d="M1.041 0.491 Q1.300 0.399 1.178 0.253" stroke="hsl(120.0,100%,35%)" stroke-width="0.00087"></path>
<path d="M1.041 0.491 Q1.015 0.609 1.240 0.648" stroke="hsl(120.0,100%,35%)" stroke-width="0.00043"></path>
<path d="M1.041 0.491 Q0.945 0.423 0.792 0.456" stroke="hsl(120.0,100%,35%)" stroke-width="0.00043"></path>
<path d="M0.244 0.445 Q0.649 0.512 0.870 0.329" stroke="hsl(240.0,100%,35%)" stroke-width="0.00130"></path>
<path d="M0.244 0.445 Q0.450 0.652 0.900 0.597" stroke="hsl(240.0,100%,35%)" stroke-width="0.00043"></path>
<path d="M0.244 0.445 Q0.864 0.536 1.178 0.253" stroke="hsl(240.0,100%,35%)" stroke-width="0.00087"></path>
<path d="M0.244 0.445 Q0.519 0.267 0.233 0.093" stroke="hsl(240.0,100%,35%)" stroke-width="0.00043"></path>
<path d="M0.900 0.597 Q0.694 0.389 0.244 0.445" stroke="hsl(240.0,100%,35%)" stroke-width="0.00173"></path>
<path d="M0.900 0.597 Q1.099 0.457 0.870 0.329" stroke="hsl(240.0,100%,35%)" stroke-width="0.00173"></path>
<path d="M0.900 0.597 Q1.335 0.591 1.420 0.378" stroke="hsl(240.0,100%,35%)" stroke-width="0.00043"></path>
<path d="M0.887 0.673 Q0.955 0.638 0.900 0.597" stroke="hsl(240.0,100%,35%)" stroke-width="0.00217"></path>
<path d="M0.887 0.673 Q0.748 0.430 0.244 0.445" stroke="hsl(240.0,100%,35%)" stroke-width="0.00217"></path>
<path d="M0.887 0.673 Q0.776 0.672 0.750 0.727" stroke="hsl(240.0,100%,35%)" stroke-width="0.00043"></path>
<path d="M0.887 0.673 Q1.154 0.498 0.870 0.329" stroke="hsl(240.0,100%,35%)" stroke-width="0.00130"></path>
<path d="M0.887 0.673 Q1.369 0.521 1.178 0.253" stroke="hsl(240.0,100%,35%)" stroke-width="0.00130"></path>
<path d="M0.887 0.673 Q0.968 0.681 1.000 0.643" stroke="hsl(240.0,100%,35%)" stroke-width="0.00043"></path>
<path d="M0.750 0.727 Q1.128 0.552 0.870 0.329" stroke="hsl(240.0,100%,35%)" stroke-width="0.00043"></path>
<path d="M0.750 0.727 Q0.942 0.735 1.000 0.643" stroke="hsl(240.0,100%,35%)" stroke-width="0.00043"></path>
<path d="M0.750 0.727 Q0.899 0.660 0.802 0.573" stroke="hsl(240.0,100%,35%)" stroke-width="0.00043"></path>
<path d="M0.750 0.727 Q0.723 0.622 0.513 0.612" stroke="hsl(240.0,100%,35%)" stroke-width="0.00043"></path>
<path d="M0.147 0.278 Q0.703 0.583 1.420 0.378" stroke="hsl(240.0,100%,35%)" stroke-width="0.00043"></path>
<path d="M0.147 0.278 Q0.682 0.471 1.178 0.253" stroke="hsl(240.0,100%,35%)" stroke-width="0.00043"></path>
<path d="M0.147 0.278 Q0.183 0.334 0.301 0.329" stroke="hsl(240.0,100%,35%)" stroke-width="0.00043"></path>
<path d="M0.147 0.278 Q0.292 0.431 0.622 0.394" stroke="hsl(240.0,100%,35%)" stroke-width="0.00043"></path>
<path d="M0.301 0.329 Q0.586 0.443 0.870 0.329" stroke="hsl(240.0,100%,35%)" stroke-width="0.00043"></path>
<path d="M0.301 0.329 Q0.180 0.375 0.244 0.445" stroke="hsl(240.0,100%,35%)" stroke-width="0.00087"></path>
<path d="M0.301 0.329 Q0.456 0.198 0.233 0.093" stroke="hsl(240.0,100%,35%)" stroke-width="0.00087"></path>
<path d="M0.301 0.329 Q0.801 0.466 1.178 0.253" stroke="hsl(240.0,100%,35%)" stroke-width="0.00043"></path>
<path d="M0.998 0.405 Q0.994 0.341 0.870 0.329" stroke="hsl(240.0,100%,35%)" stroke-width="0.00173"></path>
<path d="M0.998 0.405 Q1.209 0.365 1.178 0.253" stroke="hsl(240.0,100%,35%)" stroke-width="0.00087"></path>
<path d="M0.998 0.405 Q0.589 0.274 0.244 0.445" stroke="hsl(240.0,100%,35%)" stroke-width="0.00087"></path>
<path d="M1.464 0.256 Q1.344 0.308 1.420 0.378" stroke="hsl(120.0,100%,35%)" stroke-width="0.00173"></path>
<path d="M1.464 0.256 Q1.195 0.277 1.177 0.412" stroke="hsl(120.0,100%,35%)" stroke-width="0.00043"></path>
<path d="M1.464 0.256 Q0.871 0.193 0.618 0.468" stroke="hsl(120.0,100%,35%)" stroke-width="0.00043"></path>
<path d="M1.031 0.084 Q0.969 0.198 1.178 0.253" stroke="hsl(120.0,100%,35%)" stroke-width="0.00520"></path>
<path d="M1.031 0.084 Q1.320 0.297 1.799 0.202" stroke="hsl(120.0,100%,35%)" stroke-width="0.00043"></path>
<path d="M1.031 0.084 Q0.990 0.309 1.420 0.378" stroke="hsl(120.0,100%,35%)" stroke-width="0.00087"></path>
<path d="M1.031 0.084 Q0.754 0.174 0.870 0.329" stroke="hsl(120.0,100%,35%)" stroke-width="0.00043"></path>
<path d="M0.391 0.600 Q0.671 0.543 0.622 0.394" stroke="hsl(0.0,100%,35%)" stroke-width="0.00043"></path>
<path d="M0.391 0.600 Q1.062 0.584 1.178 0.253" stroke="hsl(0.0,100%,35%)" stroke-width="0.00043"></path>
<path d="M0.391 0.600 Q0.066 0.668 0.128 0.842" stroke="hsl(0.0,100%,35%)" stroke-width="0.00043"></path>
<path d="M0.802 0.573 Q1.031 0.465 0.870 0.329" stroke="hsl(240.0,100%,35%)" stroke-width="0.00130"></path>
<path d="M0.802 0.573 Q0.627 0.535 0.513 0.612" stroke="hsl(240.0,100%,35%)" stroke-width="0.00130"></path>
<path d="M0.802 0.573 Q0.653 0.640 0.750 0.727" stroke="hsl(240.0,100%,35%)" stroke-width="0.00087"></path>
<path d="M0.802 0.573 Q0.891 0.512 0.792 0.456" stroke="hsl(240.0,100%,35%)" stroke-width="0.00043"></path>
<path d="M0.458 0.124 Q0.715 0.332 1.178 0.253" stroke="hsl(240.0,100%,35%)" stroke-width="0.00087"></path>
<path d="M0.458 0.124 Q0.370 0.064 0.233 0.093" stroke="hsl(240.0,100%,35%)" stroke-width="0.00087"></path>
<path d="M0.458 0.124 Q0.094 0.241 0.244 0.445" stroke="hsl(240.0,100%,35%)" stroke-width="0.00043"></path>
<path d="M0.821 0.547 Q1.107 0.551 1.177 0.412" stroke="hsl(120.0,100%,35%)" stroke-width="0.00043"></path>
<path d="M0.821 0.547 Q1.127 0.690 1.472 0.572" stroke="hsl(120.0,100%,35%)" stroke-width="0.00043"></path>
<path d="M0.821 0.547 Q0.880 0.496 0.792 0.456" stroke="hsl(120.0,100%,35%)" stroke-width="0.00043"></path>
<path d="M0.682 0.641 Q0.384 0.746 0.523 0.915" stroke="hsl(0.0,100%,35%)" stroke-width="0.00087"></path>
<path d="M0.682 0.641 Q0.665 0.759 0.890 0.793" stroke="hsl(0.0,100%,35%)" stroke-width="0.00043"></path>
<path d="M0.682 0.641 Q0.245 0.631 0.128 0.842" stroke="hsl(0.0,100%,35%)" stroke-width="0.00043"></path>
<path d="M0.682 0.641 Q0.886 0.571 0.792 0.456" stroke="hsl(0.0,100%,35%)" stroke-width="0.00043"></path>
<path d="M0.682 0.641 Q1.262 0.657 1.420 0.378" stroke="hsl(0.0,100%,35%)" stroke-width="0.00043"></path>
<path d="M0.682 0.641 Q1.113 0.626 1.177 0.412" stroke="hsl(0.0,100%,35%)" stroke-width="0.00043"></path>
</g>
<text x="0.674" y="0.963" font-size="0.005793" fill="hsl(0.0,100%,20%)">alexnj</text>
<text x="0.523" y="0.904" font-size="0.021415" fill="hsl(0.0,100%,20%)">paulirish</text>
<text x="0.128" y="0.816" font-size="0.051052" fill="hsl(0.0,100%,20%)">jacktfranklin</text>
<text x="0.792" y="0.427" font-size="0.056561" fill="hsl(120.0,100%,20%)">alexrudenko</text>
<text x="1.420" y="0.346" font-size="0.064159" fill="hsl(120.0,100%,20%)">szuend</text>
<text x="1.177" y="0.377" font-size="0.070711" fill="hsl(120.0,100%,20%)">bmeurer</text>
<text x="1.178" y="0.224" font-size="0.057735" fill="hsl(120.0,100%,20%)">wolfi</text>
<text x="0.870" y="0.298" font-size="0.062301" fill="hsl(120.0,100%,20%)">dsv</text>
<text x="1.186" y="0.518" font-size="0.050056" fill="hsl(120.0,100%,20%)">pfaffe</text>
<text x="0.622" y="0.384" font-size="0.018621" fill="hsl(120.0,100%,20%)">nvitkov</text>
<text x="0.459" y="0.751" font-size="0.051052" fill="hsl(0.0,100%,20%)">andoli</text>
<text x="1.463" y="0.171" font-size="0.044496" fill="hsl(120.0,100%,20%)">kprokopenko</text>
<text x="0.618" y="0.455" font-size="0.026964" fill="hsl(120.0,100%,20%)">yangguo</text>
<text x="1.286" y="0.119" font-size="0.016040" fill="hsl(120.0,100%,20%)">petermueller</text>
<text x="0.510" y="0.360" font-size="0.003345" fill="hsl(120.0,100%,20%)">tperrotta</text>
<text x="1.472" y="0.549" font-size="0.045857" fill="hsl(120.0,100%,20%)">ergunsh</text>
<text x="0.588" y="0.227" font-size="0.016040" fill="hsl(120.0,100%,20%)">jrandolf</text>
<text x="1.545" y="0.469" font-size="0.012953" fill="hsl(120.0,100%,20%)">mathias</text>
<text x="1.124" y="0.779" font-size="0.023171" fill="hsl(0.0,100%,20%)">hadrienjaubert</text>
<text x="0.820" y="0.875" font-size="0.031195" fill="hsl(0.0,100%,20%)">alinavarkki</text>
<text x="1.171" y="0.907" font-size="0.032598" fill="hsl(0.0,100%,20%)">nancyly</text>
<text x="0.174" y="0.929" font-size="0.008192" fill="hsl(0.0,100%,20%)">victorporof</text>
<text x="1.724" y="0.326" font-size="0.014957" fill="hsl(0.0,100%,20%)">leese</text>
<text x="1.541" y="0.230" font-size="0.021415" fill="hsl(120.0,100%,20%)">jec</text>
<text x="0.727" y="0.707" font-size="0.012953" fill="hsl(0.0,100%,20%)">asraine</text>
<text x="0.890" y="0.789" font-size="0.007479" fill="hsl(0.0,100%,20%)">cjamcl</text>
<text x="1.746" y="0.569" font-size="0.005793" fill="hsl(0.0,100%,20%)">barrypollard</text>
<text x="1.240" y="0.639" font-size="0.019213" fill="hsl(120.0,100%,20%)">changhaohan</text>
<text x="1.077" y="0.473" font-size="0.004730" fill="hsl(120.0,100%,20%)">caseq</text>
<text x="1.747" y="0.409" font-size="0.011586" fill="hsl(120.0,100%,20%)">jarin</text>
<text x="1.360" y="0.481" font-size="0.016385" fill="hsl(120.0,100%,20%)">liviurau</text>
<text x="1.789" y="0.507" font-size="0.010576" fill="hsl(0.0,100%,20%)">chrche</text>
<text x="1.799" y="0.199" font-size="0.006689" fill="hsl(120.0,100%,20%)">semel</text>
<text x="0.153" y="0.652" font-size="0.007479" fill="hsl(120.0,100%,20%)">fluorescent.hallucinogen</text>
<text x="0.046" y="0.687" font-size="0.003345" fill="hsl(120.0,100%,20%)">dibyapal</text>
<text x="0.085" y="0.572" font-size="0.003345" fill="hsl(120.0,100%,20%)">hartmanng</text>
<text x="0.273" y="0.583" font-size="0.003345" fill="hsl(120.0,100%,20%)">scheib</text>
<text x="1.595" y="0.055" font-size="0.003345" fill="hsl(120.0,100%,20%)">tomac</text>
<text x="1.041" y="0.485" font-size="0.010576" fill="hsl(120.0,100%,20%)">jimmyseto</text>
<text x="0.244" y="0.437" font-size="0.015687" fill="hsl(240.0,100%,20%)">kenoss</text>
<text x="0.900" y="0.590" font-size="0.012953" fill="hsl(240.0,100%,20%)">lingqi</text>
<text x="0.233" y="0.090" font-size="0.007479" fill="hsl(240.0,100%,20%)">domenic</text>
<text x="1.908" y="0.439" font-size="0.003345" fill="hsl(0.0,100%,20%)">almuthanna</text>
<text x="1.251" y="0.301" font-size="0.005793" fill="hsl(120.0,100%,20%)">machenbach</text>
<text x="0.887" y="0.666" font-size="0.014190" fill="hsl(240.0,100%,20%)">miinak</text>
<text x="0.750" y="0.722" font-size="0.008849" fill="hsl(240.0,100%,20%)">sisidovski</text>
<text x="1.000" y="0.641" font-size="0.004730" fill="hsl(240.0,100%,20%)">kouhei</text>
<text x="0.147" y="0.274" font-size="0.006689" fill="hsl(240.0,100%,20%)">morlovich</text>
<text x="0.301" y="0.325" font-size="0.008849" fill="hsl(240.0,100%,20%)">nhiroki</text>
<text x="0.998" y="0.400" font-size="0.009460" fill="hsl(240.0,100%,20%)">robertlin</text>
<text x="1.464" y="0.252" font-size="0.008192" fill="hsl(120.0,100%,20%)">seth.brenith</text>
<text x="1.031" y="0.077" font-size="0.013790" fill="hsl(120.0,100%,20%)">shuuran</text>
<text x="0.391" y="0.597" font-size="0.005793" fill="hsl(0.0,100%,20%)">silviaeremia</text>
<text x="0.802" y="0.568" font-size="0.010576" fill="hsl(240.0,100%,20%)">tnak</text>
<text x="0.513" y="0.609" font-size="0.006689" fill="hsl(240.0,100%,20%)">yyanagisawa</text>
<text x="0.458" y="0.120" font-size="0.007479" fill="hsl(240.0,100%,20%)">taiyo</text>
<text x="0.821" y="0.545" font-size="0.005793" fill="hsl(120.0,100%,20%)">tkent</text>
<text x="0.682" y="0.637" font-size="0.008849" fill="hsl(0.0,100%,20%)">vidorteg</text>
<text x="0.822" y="0.171" font-size="0.003345" fill="hsl(120.0,100%,20%)">mathiasb</text>
<text x="0.971" y="0.128" font-size="0.003345" fill="hsl(120.0,100%,20%)">tsepez</text>
</svg>
