<svg width="4000" height="2000" viewBox="-0.025 -0.025 2.05 1.05" xmlns="http://www.w3.org/2000/svg">
  <style>
    path {
      fill: none;
      stroke-linecap: round;
      stroke-opacity: 0.4;
    }

    text {
      text-anchor: middle;
      alignment-baseline: hanging;
    }
  </style>
  <g opacity="0.4">
<path d="M0.302 0.372 Q-0.139 0.587 0.184 0.849" stroke="hsl(0.0,100%,35%)" stroke-width="0.00044"></path>
<path d="M0.302 0.372 Q0.869 0.817 1.861 0.638" stroke="hsl(0.0,100%,35%)" stroke-width="0.00044"></path>
<path d="M0.302 0.372 Q0.135 0.346 0.048 0.422" stroke="hsl(0.0,100%,35%)" stroke-width="0.00044"></path>
<path d="M0.184 0.849 Q1.192 1.079 1.861 0.638" stroke="hsl(0.0,100%,35%)" stroke-width="0.00883"></path>
<path d="M0.184 0.849 Q1.013 1.113 1.710 0.766" stroke="hsl(0.0,100%,35%)" stroke-width="0.00221"></path>
<path d="M0.184 0.849 Q0.654 0.731 0.527 0.476" stroke="hsl(0.0,100%,35%)" stroke-width="0.00132"></path>
<path d="M1.861 0.638 Q1.683 0.672 1.710 0.766" stroke="hsl(0.0,100%,35%)" stroke-width="0.05254"></path>
<path d="M1.861 0.638 Q1.686 0.170 0.734 0.153" stroke="hsl(0.0,100%,35%)" stroke-width="0.00353"></path>
<path d="M1.861 0.638 Q1.324 0.290 0.527 0.476" stroke="hsl(0.0,100%,35%)" stroke-width="0.02119"></path>
<path d="M1.861 0.638 Q1.853 0.692 1.955 0.708" stroke="hsl(0.0,100%,35%)" stroke-width="0.00265"></path>
<path d="M1.861 0.638 Q1.420 0.495 1.044 0.679" stroke="hsl(0.0,100%,35%)" stroke-width="0.00132"></path>
<path d="M1.861 0.638 Q0.854 0.408 0.184 0.849" stroke="hsl(0.0,100%,35%)" stroke-width="0.00397"></path>
<path d="M1.861 0.638 Q1.823 0.642 1.823 0.661" stroke="hsl(0.0,100%,35%)" stroke-width="0.00177"></path>
<path d="M1.861 0.638 Q1.127 0.167 0.048 0.422" stroke="hsl(0.0,100%,35%)" stroke-width="0.00177"></path>
<path d="M1.861 0.638 Q1.055 0.249 0.119 0.557" stroke="hsl(0.0,100%,35%)" stroke-width="0.00088"></path>
<path d="M1.861 0.638 Q1.675 0.589 1.538 0.669" stroke="hsl(0.0,100%,35%)" stroke-width="0.00088"></path>
<path d="M1.861 0.638 Q1.775 0.509 1.504 0.523" stroke="hsl(0.0,100%,35%)" stroke-width="0.00088"></path>
<path d="M1.861 0.638 Q1.312 0.640 1.196 0.908" stroke="hsl(0.0,100%,35%)" stroke-width="0.00044"></path>
<path d="M1.861 0.638 Q1.528 0.634 1.446 0.796" stroke="hsl(0.0,100%,35%)" stroke-width="0.00044"></path>
<path d="M0.048 0.422 Q0.607 0.425 0.734 0.153" stroke="hsl(0.0,100%,35%)" stroke-width="0.00883"></path>
<path d="M0.048 0.422 Q-0.024 0.504 0.119 0.557" stroke="hsl(0.0,100%,35%)" stroke-width="0.01943"></path>
<path d="M0.048 0.422 Q0.782 0.893 1.861 0.638" stroke="hsl(0.0,100%,35%)" stroke-width="0.00177"></path>
<path d="M0.048 0.422 Q0.230 0.375 0.177 0.276" stroke="hsl(0.0,100%,35%)" stroke-width="0.00486"></path>
<path d="M0.048 0.422 Q0.604 0.927 1.710 0.766" stroke="hsl(0.0,100%,35%)" stroke-width="0.00044"></path>
<path d="M0.048 0.422 Q0.549 0.587 0.981 0.379" stroke="hsl(0.0,100%,35%)" stroke-width="0.00177"></path>
<path d="M0.048 0.422 Q0.696 0.764 1.504 0.523" stroke="hsl(0.0,100%,35%)" stroke-width="0.00397"></path>
<path d="M0.048 0.422 Q0.402 0.624 0.873 0.496" stroke="hsl(0.0,100%,35%)" stroke-width="0.00044"></path>
<path d="M0.048 0.422 Q0.758 0.460 0.987 0.122" stroke="hsl(0.0,100%,35%)" stroke-width="0.00221"></path>
<path d="M0.048 0.422 Q0.530 0.673 1.126 0.493" stroke="hsl(0.0,100%,35%)" stroke-width="0.00309"></path>
<path d="M0.048 0.422 Q0.270 0.362 0.202 0.241" stroke="hsl(0.0,100%,35%)" stroke-width="0.00044"></path>
<path d="M0.048 0.422 Q0.448 0.889 1.446 0.796" stroke="hsl(0.0,100%,35%)" stroke-width="0.00044"></path>
<path d="M0.048 0.422 Q0.323 0.428 0.394 0.295" stroke="hsl(0.0,100%,35%)" stroke-width="0.00177"></path>
<path d="M0.048 0.422 Q0.596 0.844 1.538 0.669" stroke="hsl(0.0,100%,35%)" stroke-width="0.00088"></path>
<path d="M0.048 0.422 Q0.341 0.750 1.044 0.679" stroke="hsl(0.0,100%,35%)" stroke-width="0.00177"></path>
<path d="M0.048 0.422 Q0.131 0.539 0.377 0.524" stroke="hsl(0.0,100%,35%)" stroke-width="0.00088"></path>
<path d="M0.048 0.422 Q0.678 0.689 1.336 0.440" stroke="hsl(0.0,100%,35%)" stroke-width="0.00044"></path>
<path d="M0.048 0.422 Q0.245 0.545 0.527 0.476" stroke="hsl(0.0,100%,35%)" stroke-width="0.00044"></path>
<path d="M0.734 0.153 Q0.468 0.478 1.044 0.679" stroke="hsl(180.0,100%,35%)" stroke-width="0.00706"></path>
<path d="M0.734 0.153 Q0.175 0.150 0.048 0.422" stroke="hsl(180.0,100%,35%)" stroke-width="0.01192"></path>
<path d="M0.734 0.153 Q0.723 0.571 1.538 0.669" stroke="hsl(180.0,100%,35%)" stroke-width="0.00265"></path>
<path d="M0.734 0.153 Q0.885 0.188 0.987 0.122" stroke="hsl(180.0,100%,35%)" stroke-width="0.00442"></path>
<path d="M0.734 0.153 Q0.103 0.232 0.119 0.557" stroke="hsl(180.0,100%,35%)" stroke-width="0.01369"></path>
<path d="M0.734 0.153 Q0.576 0.617 1.446 0.796" stroke="hsl(180.0,100%,35%)" stroke-width="0.00044"></path>
<path d="M0.734 0.153 Q0.657 0.401 1.126 0.493" stroke="hsl(180.0,100%,35%)" stroke-width="0.00618"></path>
<path d="M0.734 0.153 Q0.993 0.155 1.054 0.029" stroke="hsl(180.0,100%,35%)" stroke-width="0.00044"></path>
<path d="M0.734 0.153 Q0.658 0.199 0.733 0.247" stroke="hsl(180.0,100%,35%)" stroke-width="0.01501"></path>
<path d="M0.734 0.153 Q0.676 0.315 0.981 0.379" stroke="hsl(180.0,100%,35%)" stroke-width="0.00177"></path>
<path d="M0.734 0.153 Q0.909 0.621 1.861 0.638" stroke="hsl(180.0,100%,35%)" stroke-width="0.00088"></path>
<path d="M0.734 0.153 Q0.771 0.468 1.394 0.519" stroke="hsl(180.0,100%,35%)" stroke-width="0.00088"></path>
<path d="M0.119 0.557 Q0.673 0.726 1.126 0.493" stroke="hsl(180.0,100%,35%)" stroke-width="0.00397"></path>
<path d="M0.119 0.557 Q0.750 0.478 0.734 0.153" stroke="hsl(180.0,100%,35%)" stroke-width="0.00706"></path>
<path d="M0.119 0.557 Q0.591 0.942 1.446 0.796" stroke="hsl(180.0,100%,35%)" stroke-width="0.00927"></path>
<path d="M0.119 0.557 Q0.839 0.817 1.504 0.523" stroke="hsl(180.0,100%,35%)" stroke-width="0.00044"></path>
<path d="M0.119 0.557 Q0.484 0.803 1.044 0.679" stroke="hsl(180.0,100%,35%)" stroke-width="0.00265"></path>
<path d="M0.119 0.557 Q0.901 0.513 0.987 0.122" stroke="hsl(180.0,100%,35%)" stroke-width="0.00309"></path>
<path d="M0.119 0.557 Q0.925 0.946 1.861 0.638" stroke="hsl(180.0,100%,35%)" stroke-width="0.00088"></path>
<path d="M0.119 0.557 Q0.876 0.610 1.146 0.253" stroke="hsl(180.0,100%,35%)" stroke-width="0.00044"></path>
<path d="M0.119 0.557 Q0.191 0.475 0.048 0.422" stroke="hsl(180.0,100%,35%)" stroke-width="0.00265"></path>
<path d="M0.119 0.557 Q0.196 0.650 0.394 0.633" stroke="hsl(180.0,100%,35%)" stroke-width="0.00132"></path>
<path d="M0.119 0.557 Q0.747 0.980 1.710 0.766" stroke="hsl(180.0,100%,35%)" stroke-width="0.00044"></path>
<path d="M0.119 0.557 Q0.674 0.524 0.733 0.247" stroke="hsl(180.0,100%,35%)" stroke-width="0.00044"></path>
<path d="M0.177 0.276 Q-0.005 0.323 0.048 0.422" stroke="hsl(0.0,100%,35%)" stroke-width="0.00132"></path>
<path d="M0.177 0.276 Q0.705 0.361 0.987 0.122" stroke="hsl(0.0,100%,35%)" stroke-width="0.00044"></path>
<path d="M0.177 0.276 Q0.554 0.325 0.734 0.153" stroke="hsl(0.0,100%,35%)" stroke-width="0.00044"></path>
<path d="M0.177 0.276 Q0.270 0.329 0.394 0.295" stroke="hsl(0.0,100%,35%)" stroke-width="0.00044"></path>
<path d="M0.177 0.276 Q0.496 0.488 0.981 0.379" stroke="hsl(0.0,100%,35%)" stroke-width="0.00088"></path>
<path d="M0.177 0.276 Q0.288 0.651 1.044 0.679" stroke="hsl(0.0,100%,35%)" stroke-width="0.00088"></path>
<path d="M1.710 0.766 Q1.888 0.732 1.861 0.638" stroke="hsl(0.0,100%,35%)" stroke-width="0.02428"></path>
<path d="M1.710 0.766 Q1.351 0.384 0.527 0.476" stroke="hsl(0.0,100%,35%)" stroke-width="0.00971"></path>
<path d="M1.710 0.766 Q1.713 0.264 0.734 0.153" stroke="hsl(0.0,100%,35%)" stroke-width="0.00132"></path>
<path d="M1.710 0.766 Q1.447 0.590 1.044 0.679" stroke="hsl(0.0,100%,35%)" stroke-width="0.00044"></path>
<path d="M1.710 0.766 Q1.636 0.513 1.126 0.493" stroke="hsl(0.0,100%,35%)" stroke-width="0.00088"></path>
<path d="M1.710 0.766 Q1.702 0.683 1.538 0.669" stroke="hsl(0.0,100%,35%)" stroke-width="0.00044"></path>
<path d="M1.710 0.766 Q1.750 0.580 1.394 0.519" stroke="hsl(0.0,100%,35%)" stroke-width="0.00044"></path>
<path d="M1.710 0.766 Q1.784 0.528 1.336 0.440" stroke="hsl(0.0,100%,35%)" stroke-width="0.00044"></path>
<path d="M1.710 0.766 Q1.154 0.262 0.048 0.422" stroke="hsl(0.0,100%,35%)" stroke-width="0.00044"></path>
<path d="M1.710 0.766 Q1.238 0.378 0.377 0.524" stroke="hsl(0.0,100%,35%)" stroke-width="0.00044"></path>
<path d="M1.710 0.766 Q1.880 0.786 1.955 0.708" stroke="hsl(0.0,100%,35%)" stroke-width="0.00132"></path>
<path d="M1.710 0.766 Q1.655 0.427 0.981 0.379" stroke="hsl(0.0,100%,35%)" stroke-width="0.00044"></path>
<path d="M0.981 0.379 Q0.881 0.681 1.446 0.796" stroke="hsl(180.0,100%,35%)" stroke-width="0.00177"></path>
<path d="M0.981 0.379 Q0.834 0.416 0.873 0.496" stroke="hsl(180.0,100%,35%)" stroke-width="0.00044"></path>
<path d="M0.981 0.379 Q1.190 0.252 0.987 0.122" stroke="hsl(180.0,100%,35%)" stroke-width="0.00662"></path>
<path d="M0.981 0.379 Q0.962 0.465 1.126 0.493" stroke="hsl(180.0,100%,35%)" stroke-width="0.01634"></path>
<path d="M0.981 0.379 Q0.480 0.214 0.048 0.422" stroke="hsl(180.0,100%,35%)" stroke-width="0.00088"></path>
<path d="M0.981 0.379 Q0.662 0.167 0.177 0.276" stroke="hsl(180.0,100%,35%)" stroke-width="0.00044"></path>
<path d="M0.981 0.379 Q1.214 0.685 1.861 0.638" stroke="hsl(180.0,100%,35%)" stroke-width="0.00132"></path>
<path d="M0.981 0.379 Q0.677 0.337 0.527 0.476" stroke="hsl(180.0,100%,35%)" stroke-width="0.00044"></path>
<path d="M0.981 0.379 Q0.773 0.542 1.044 0.679" stroke="hsl(180.0,100%,35%)" stroke-width="0.00044"></path>
<path d="M0.981 0.379 Q0.920 0.604 1.344 0.683" stroke="hsl(180.0,100%,35%)" stroke-width="0.00044"></path>
<path d="M0.981 0.379 Q1.036 0.719 1.710 0.766" stroke="hsl(180.0,100%,35%)" stroke-width="0.00044"></path>
<path d="M0.981 0.379 Q0.408 0.296 0.119 0.557" stroke="hsl(180.0,100%,35%)" stroke-width="0.00442"></path>
<path d="M0.981 0.379 Q1.128 0.556 1.504 0.523" stroke="hsl(180.0,100%,35%)" stroke-width="0.00044"></path>
<path d="M1.504 0.523 Q1.566 0.219 0.987 0.122" stroke="hsl(180.0,100%,35%)" stroke-width="0.00177"></path>
<path d="M1.504 0.523 Q1.257 0.648 1.446 0.796" stroke="hsl(180.0,100%,35%)" stroke-width="0.00088"></path>
<path d="M1.504 0.523 Q0.856 0.181 0.048 0.422" stroke="hsl(180.0,100%,35%)" stroke-width="0.00044"></path>
<path d="M1.504 0.523 Q1.357 0.346 0.981 0.379" stroke="hsl(180.0,100%,35%)" stroke-width="0.00132"></path>
<path d="M1.504 0.523 Q1.149 0.509 1.044 0.679" stroke="hsl(180.0,100%,35%)" stroke-width="0.00088"></path>
<path d="M1.504 0.523 Q1.486 0.448 1.336 0.440" stroke="hsl(180.0,100%,35%)" stroke-width="0.00044"></path>
<path d="M1.504 0.523 Q1.415 0.184 0.734 0.153" stroke="hsl(180.0,100%,35%)" stroke-width="0.00044"></path>
<path d="M1.504 0.523 Q1.338 0.432 1.126 0.493" stroke="hsl(180.0,100%,35%)" stroke-width="0.00265"></path>
<path d="M1.504 0.523 Q1.590 0.652 1.861 0.638" stroke="hsl(180.0,100%,35%)" stroke-width="0.00044"></path>
<path d="M1.504 0.523 Q1.296 0.571 1.344 0.683" stroke="hsl(180.0,100%,35%)" stroke-width="0.00044"></path>
<path d="M1.504 0.523 Q1.452 0.499 1.394 0.519" stroke="hsl(180.0,100%,35%)" stroke-width="0.00044"></path>
<path d="M1.504 0.523 Q1.404 0.603 1.538 0.669" stroke="hsl(180.0,100%,35%)" stroke-width="0.00044"></path>
<path d="M1.504 0.523 Q1.038 0.134 0.177 0.276" stroke="hsl(180.0,100%,35%)" stroke-width="0.00044"></path>
<path d="M0.873 0.496 Q1.020 0.459 0.981 0.379" stroke="hsl(180.0,100%,35%)" stroke-width="0.00530"></path>
<path d="M0.873 0.496 Q0.920 0.760 1.446 0.796" stroke="hsl(180.0,100%,35%)" stroke-width="0.00044"></path>
<path d="M0.873 0.496 Q0.812 0.622 1.044 0.679" stroke="hsl(180.0,100%,35%)" stroke-width="0.00088"></path>
<path d="M0.873 0.496 Q0.959 0.683 1.344 0.683" stroke="hsl(180.0,100%,35%)" stroke-width="0.00044"></path>
<path d="M0.987 0.122 Q0.759 0.335 1.126 0.493" stroke="hsl(180.0,100%,35%)" stroke-width="0.00530"></path>
<path d="M0.987 0.122 Q0.678 0.551 1.446 0.796" stroke="hsl(180.0,100%,35%)" stroke-width="0.01060"></path>
<path d="M0.987 0.122 Q0.570 0.412 1.044 0.679" stroke="hsl(180.0,100%,35%)" stroke-width="0.01369"></path>
<path d="M0.987 0.122 Q0.836 0.087 0.734 0.153" stroke="hsl(180.0,100%,35%)" stroke-width="0.03179"></path>
<path d="M0.987 0.122 Q0.717 0.474 1.344 0.683" stroke="hsl(180.0,100%,35%)" stroke-width="0.00044"></path>
<path d="M0.987 0.122 Q0.925 0.426 1.504 0.523" stroke="hsl(180.0,100%,35%)" stroke-width="0.00751"></path>
<path d="M0.987 0.122 Q0.631 0.286 0.873 0.496" stroke="hsl(180.0,100%,35%)" stroke-width="0.00265"></path>
<path d="M0.987 0.122 Q0.278 0.084 0.048 0.422" stroke="hsl(180.0,100%,35%)" stroke-width="0.00662"></path>
<path d="M0.987 0.122 Q0.206 0.166 0.119 0.557" stroke="hsl(180.0,100%,35%)" stroke-width="0.01148"></path>
<path d="M0.987 0.122 Q0.778 0.249 0.981 0.379" stroke="hsl(180.0,100%,35%)" stroke-width="0.00397"></path>
<path d="M0.987 0.122 Q0.833 0.589 1.710 0.766" stroke="hsl(180.0,100%,35%)" stroke-width="0.00132"></path>
<path d="M0.987 0.122 Q0.873 0.402 1.394 0.519" stroke="hsl(180.0,100%,35%)" stroke-width="0.00088"></path>
<path d="M0.987 0.122 Q1.096 0.089 1.054 0.029" stroke="hsl(180.0,100%,35%)" stroke-width="0.00044"></path>
<path d="M0.987 0.122 Q0.761 0.133 0.733 0.247" stroke="hsl(180.0,100%,35%)" stroke-width="0.00177"></path>
<path d="M0.987 0.122 Q0.974 0.559 1.823 0.661" stroke="hsl(180.0,100%,35%)" stroke-width="0.00044"></path>
<path d="M0.987 0.122 Q0.825 0.506 1.538 0.669" stroke="hsl(180.0,100%,35%)" stroke-width="0.00044"></path>
<path d="M1.126 0.493 Q0.572 0.324 0.119 0.557" stroke="hsl(180.0,100%,35%)" stroke-width="0.01545"></path>
<path d="M1.126 0.493 Q1.354 0.280 0.987 0.122" stroke="hsl(180.0,100%,35%)" stroke-width="0.00309"></path>
<path d="M1.126 0.493 Q1.274 0.509 1.336 0.440" stroke="hsl(180.0,100%,35%)" stroke-width="0.00132"></path>
<path d="M1.126 0.493 Q1.378 0.713 1.861 0.638" stroke="hsl(180.0,100%,35%)" stroke-width="0.00265"></path>
<path d="M1.126 0.493 Q1.287 0.463 1.263 0.377" stroke="hsl(180.0,100%,35%)" stroke-width="0.00044"></path>
<path d="M1.126 0.493 Q1.144 0.407 0.981 0.379" stroke="hsl(180.0,100%,35%)" stroke-width="0.00662"></path>
<path d="M1.126 0.493 Q1.255 0.365 1.032 0.274" stroke="hsl(180.0,100%,35%)" stroke-width="0.00044"></path>
<path d="M1.126 0.493 Q0.644 0.242 0.048 0.422" stroke="hsl(180.0,100%,35%)" stroke-width="0.00221"></path>
<path d="M1.126 0.493 Q0.936 0.570 1.044 0.679" stroke="hsl(180.0,100%,35%)" stroke-width="0.00132"></path>
<path d="M1.126 0.493 Q1.044 0.709 1.446 0.796" stroke="hsl(180.0,100%,35%)" stroke-width="0.00265"></path>
<path d="M1.126 0.493 Q1.203 0.245 0.734 0.153" stroke="hsl(180.0,100%,35%)" stroke-width="0.00397"></path>
<path d="M1.126 0.493 Q0.919 0.248 0.394 0.295" stroke="hsl(180.0,100%,35%)" stroke-width="0.00044"></path>
<path d="M1.126 0.493 Q1.200 0.747 1.710 0.766" stroke="hsl(180.0,100%,35%)" stroke-width="0.00177"></path>
<path d="M1.126 0.493 Q1.291 0.584 1.504 0.523" stroke="hsl(180.0,100%,35%)" stroke-width="0.00088"></path>
<path d="M1.126 0.493 Q1.191 0.664 1.538 0.669" stroke="hsl(180.0,100%,35%)" stroke-width="0.00044"></path>
<path d="M1.126 0.493 Q0.825 0.541 0.852 0.699" stroke="hsl(180.0,100%,35%)" stroke-width="0.00044"></path>
<path d="M1.446 0.796 Q1.486 0.719 1.344 0.683" stroke="hsl(180.0,100%,35%)" stroke-width="0.00265"></path>
<path d="M1.446 0.796 Q1.339 0.657 1.044 0.679" stroke="hsl(180.0,100%,35%)" stroke-width="0.01236"></path>
<path d="M1.446 0.796 Q0.974 0.411 0.119 0.557" stroke="hsl(180.0,100%,35%)" stroke-width="0.00132"></path>
<path d="M1.446 0.796 Q1.756 0.367 0.987 0.122" stroke="hsl(180.0,100%,35%)" stroke-width="0.00265"></path>
<path d="M1.446 0.796 Q1.780 0.800 1.861 0.638" stroke="hsl(180.0,100%,35%)" stroke-width="0.00088"></path>
<path d="M1.446 0.796 Q1.605 0.332 0.734 0.153" stroke="hsl(180.0,100%,35%)" stroke-width="0.00353"></path>
<path d="M1.446 0.796 Q1.046 0.329 0.048 0.422" stroke="hsl(180.0,100%,35%)" stroke-width="0.00044"></path>
<path d="M0.394 0.295 Q0.119 0.289 0.048 0.422" stroke="hsl(0.0,100%,35%)" stroke-width="0.00221"></path>
<path d="M0.394 0.295 Q0.047 0.371 0.119 0.557" stroke="hsl(0.0,100%,35%)" stroke-width="0.00088"></path>
<path d="M0.394 0.295 Q0.767 0.631 1.504 0.523" stroke="hsl(0.0,100%,35%)" stroke-width="0.00044"></path>
<path d="M0.394 0.295 Q0.412 0.617 1.044 0.679" stroke="hsl(0.0,100%,35%)" stroke-width="0.00044"></path>
<path d="M0.394 0.295 Q0.678 0.292 0.734 0.153" stroke="hsl(0.0,100%,35%)" stroke-width="0.00132"></path>
<path d="M0.394 0.295 Q0.667 0.711 1.538 0.669" stroke="hsl(0.0,100%,35%)" stroke-width="0.00044"></path>
<path d="M0.394 0.295 Q0.304 0.762 1.196 0.908" stroke="hsl(0.0,100%,35%)" stroke-width="0.00044"></path>
<path d="M0.394 0.295 Q0.829 0.327 0.987 0.122" stroke="hsl(0.0,100%,35%)" stroke-width="0.00044"></path>
<path d="M0.394 0.295 Q0.301 0.242 0.177 0.276" stroke="hsl(0.0,100%,35%)" stroke-width="0.00088"></path>
<path d="M1.538 0.669 Q1.700 0.285 0.987 0.122" stroke="hsl(180.0,100%,35%)" stroke-width="0.00088"></path>
<path d="M1.538 0.669 Q1.549 0.250 0.734 0.153" stroke="hsl(180.0,100%,35%)" stroke-width="0.00044"></path>
<path d="M1.538 0.669 Q1.175 0.720 1.196 0.908" stroke="hsl(180.0,100%,35%)" stroke-width="0.00132"></path>
<path d="M1.538 0.669 Q1.724 0.718 1.861 0.638" stroke="hsl(180.0,100%,35%)" stroke-width="0.00044"></path>
<path d="M1.044 0.679 Q1.152 0.818 1.446 0.796" stroke="hsl(180.0,100%,35%)" stroke-width="0.00795"></path>
<path d="M1.044 0.679 Q1.311 0.354 0.734 0.153" stroke="hsl(180.0,100%,35%)" stroke-width="0.01148"></path>
<path d="M1.044 0.679 Q1.234 0.603 1.126 0.493" stroke="hsl(180.0,100%,35%)" stroke-width="0.00177"></path>
<path d="M1.044 0.679 Q0.680 0.433 0.119 0.557" stroke="hsl(180.0,100%,35%)" stroke-width="0.00662"></path>
<path d="M1.044 0.679 Q1.308 0.856 1.710 0.766" stroke="hsl(180.0,100%,35%)" stroke-width="0.00177"></path>
<path d="M1.044 0.679 Q1.486 0.822 1.861 0.638" stroke="hsl(180.0,100%,35%)" stroke-width="0.00177"></path>
<path d="M1.044 0.679 Q1.477 0.876 1.955 0.708" stroke="hsl(180.0,100%,35%)" stroke-width="0.00044"></path>
<path d="M1.044 0.679 Q1.462 0.389 0.987 0.122" stroke="hsl(180.0,100%,35%)" stroke-width="0.00265"></path>
<path d="M1.044 0.679 Q0.752 0.352 0.048 0.422" stroke="hsl(180.0,100%,35%)" stroke-width="0.00221"></path>
<path d="M1.044 0.679 Q1.192 0.741 1.344 0.683" stroke="hsl(180.0,100%,35%)" stroke-width="0.00044"></path>
<path d="M1.044 0.679 Q1.027 0.357 0.394 0.295" stroke="hsl(180.0,100%,35%)" stroke-width="0.00044"></path>
<path d="M1.044 0.679 Q0.948 0.474 0.527 0.476" stroke="hsl(180.0,100%,35%)" stroke-width="0.00088"></path>
<path d="M1.044 0.679 Q1.347 0.669 1.394 0.519" stroke="hsl(180.0,100%,35%)" stroke-width="0.00088"></path>
<path d="M1.044 0.679 Q0.756 0.526 0.394 0.633" stroke="hsl(180.0,100%,35%)" stroke-width="0.00044"></path>
<path d="M1.044 0.679 Q1.436 0.486 1.146 0.253" stroke="hsl(180.0,100%,35%)" stroke-width="0.00044"></path>
<path d="M1.044 0.679 Q1.235 0.401 0.733 0.247" stroke="hsl(180.0,100%,35%)" stroke-width="0.00044"></path>
<path d="M1.044 0.679 Q0.956 0.725 1.026 0.778" stroke="hsl(180.0,100%,35%)" stroke-width="0.00044"></path>
<path d="M1.044 0.679 Q1.270 0.743 1.445 0.647" stroke="hsl(180.0,100%,35%)" stroke-width="0.00044"></path>
<path d="M1.044 0.679 Q0.937 0.824 1.196 0.908" stroke="hsl(180.0,100%,35%)" stroke-width="0.00044"></path>
<path d="M0.377 0.524 Q0.293 0.407 0.048 0.422" stroke="hsl(0.0,100%,35%)" stroke-width="0.01413"></path>
<path d="M0.377 0.524 Q0.490 0.530 0.527 0.476" stroke="hsl(0.0,100%,35%)" stroke-width="0.02031"></path>
<path d="M0.377 0.524 Q0.020 0.648 0.184 0.849" stroke="hsl(0.0,100%,35%)" stroke-width="0.00044"></path>
<path d="M0.377 0.524 Q0.794 0.572 0.981 0.379" stroke="hsl(0.0,100%,35%)" stroke-width="0.00574"></path>
<path d="M0.377 0.524 Q1.028 0.878 1.861 0.638" stroke="hsl(0.0,100%,35%)" stroke-width="0.00132"></path>
<path d="M0.377 0.524 Q0.849 0.912 1.710 0.766" stroke="hsl(0.0,100%,35%)" stroke-width="0.00044"></path>
<path d="M0.377 0.524 Q0.852 0.409 0.734 0.153" stroke="hsl(0.0,100%,35%)" stroke-width="0.00265"></path>
<path d="M0.377 0.524 Q0.221 0.489 0.119 0.557" stroke="hsl(0.0,100%,35%)" stroke-width="0.00044"></path>
<path d="M0.377 0.524 Q0.923 0.673 1.336 0.440" stroke="hsl(0.0,100%,35%)" stroke-width="0.00044"></path>
<path d="M0.377 0.524 Q0.475 0.360 0.177 0.276" stroke="hsl(0.0,100%,35%)" stroke-width="0.00044"></path>
<path d="M1.336 0.440 Q1.188 0.425 1.126 0.493" stroke="hsl(180.0,100%,35%)" stroke-width="0.00706"></path>
<path d="M1.336 0.440 Q1.265 0.176 0.734 0.153" stroke="hsl(180.0,100%,35%)" stroke-width="0.00442"></path>
<path d="M1.336 0.440 Q1.206 0.339 0.981 0.379" stroke="hsl(180.0,100%,35%)" stroke-width="0.00088"></path>
<path d="M1.336 0.440 Q0.634 0.255 0.119 0.557" stroke="hsl(180.0,100%,35%)" stroke-width="0.00706"></path>
<path d="M1.336 0.440 Q1.390 0.308 1.146 0.253" stroke="hsl(180.0,100%,35%)" stroke-width="0.00132"></path>
<path d="M1.336 0.440 Q1.641 0.400 1.631 0.242" stroke="hsl(180.0,100%,35%)" stroke-width="0.00044"></path>
<path d="M1.336 0.440 Q1.301 0.491 1.394 0.519" stroke="hsl(180.0,100%,35%)" stroke-width="0.00044"></path>
<path d="M1.336 0.440 Q1.189 0.223 0.733 0.247" stroke="hsl(180.0,100%,35%)" stroke-width="0.00044"></path>
<path d="M1.336 0.440 Q0.888 0.126 0.177 0.276" stroke="hsl(180.0,100%,35%)" stroke-width="0.00044"></path>
<path d="M1.336 0.440 Q0.998 0.501 1.044 0.679" stroke="hsl(180.0,100%,35%)" stroke-width="0.00044"></path>
<path d="M1.336 0.440 Q0.706 0.173 0.048 0.422" stroke="hsl(180.0,100%,35%)" stroke-width="0.00044"></path>
<path d="M1.336 0.440 Q1.262 0.678 1.710 0.766" stroke="hsl(180.0,100%,35%)" stroke-width="0.00044"></path>
<path d="M0.527 0.476 Q1.055 0.877 1.955 0.708" stroke="hsl(0.0,100%,35%)" stroke-width="0.00177"></path>
<path d="M0.527 0.476 Q1.064 0.824 1.861 0.638" stroke="hsl(0.0,100%,35%)" stroke-width="0.00486"></path>
<path d="M0.527 0.476 Q0.886 0.858 1.710 0.766" stroke="hsl(0.0,100%,35%)" stroke-width="0.00265"></path>
<path d="M0.527 0.476 Q1.040 0.391 0.987 0.122" stroke="hsl(0.0,100%,35%)" stroke-width="0.00088"></path>
<path d="M0.527 0.476 Q0.057 0.594 0.184 0.849" stroke="hsl(0.0,100%,35%)" stroke-width="0.00088"></path>
<path d="M0.527 0.476 Q0.605 0.359 0.394 0.295" stroke="hsl(0.0,100%,35%)" stroke-width="0.00044"></path>
<path d="M1.955 0.708 Q1.964 0.654 1.861 0.638" stroke="hsl(0.0,100%,35%)" stroke-width="0.01325"></path>
<path d="M1.955 0.708 Q1.427 0.306 0.527 0.476" stroke="hsl(0.0,100%,35%)" stroke-width="0.00662"></path>
<path d="M1.955 0.708 Q1.786 0.688 1.710 0.766" stroke="hsl(0.0,100%,35%)" stroke-width="0.00221"></path>
<path d="M1.327 0.532 Q1.068 0.549 1.044 0.679" stroke="hsl(180.0,100%,35%)" stroke-width="0.01104"></path>
<path d="M1.327 0.532 Q0.703 0.303 0.119 0.557" stroke="hsl(180.0,100%,35%)" stroke-width="0.00088"></path>
<path d="M1.327 0.532 Q0.775 0.221 0.048 0.422" stroke="hsl(180.0,100%,35%)" stroke-width="0.00088"></path>
<path d="M1.327 0.532 Q1.334 0.224 0.734 0.153" stroke="hsl(180.0,100%,35%)" stroke-width="0.00132"></path>
<path d="M1.327 0.532 Q0.961 0.694 1.196 0.908" stroke="hsl(180.0,100%,35%)" stroke-width="0.00088"></path>
<path d="M1.327 0.532 Q1.371 0.539 1.394 0.519" stroke="hsl(180.0,100%,35%)" stroke-width="0.00044"></path>
<path d="M1.196 0.908 Q1.570 0.438 0.734 0.153" stroke="hsl(180.0,100%,35%)" stroke-width="0.00088"></path>
<path d="M1.196 0.908 Q1.189 0.856 1.086 0.848" stroke="hsl(180.0,100%,35%)" stroke-width="0.00132"></path>
<path d="M1.196 0.908 Q1.304 0.763 1.044 0.679" stroke="hsl(180.0,100%,35%)" stroke-width="0.00309"></path>
<path d="M1.196 0.908 Q1.745 0.906 1.861 0.638" stroke="hsl(180.0,100%,35%)" stroke-width="0.00088"></path>
<path d="M1.196 0.908 Q1.606 0.753 1.394 0.519" stroke="hsl(180.0,100%,35%)" stroke-width="0.00044"></path>
<path d="M1.196 0.908 Q0.939 0.517 0.119 0.557" stroke="hsl(180.0,100%,35%)" stroke-width="0.00044"></path>
<path d="M1.196 0.908 Q0.737 0.676 0.184 0.849" stroke="hsl(180.0,100%,35%)" stroke-width="0.00044"></path>
<path d="M1.394 0.519 Q1.509 0.239 0.987 0.122" stroke="hsl(180.0,100%,35%)" stroke-width="0.00132"></path>
<path d="M1.394 0.519 Q1.358 0.204 0.734 0.153" stroke="hsl(180.0,100%,35%)" stroke-width="0.00088"></path>
<path d="M1.394 0.519 Q1.351 0.512 1.327 0.532" stroke="hsl(180.0,100%,35%)" stroke-width="0.00044"></path>
<path d="M1.394 0.519 Q1.429 0.468 1.336 0.440" stroke="hsl(180.0,100%,35%)" stroke-width="0.00044"></path>
<path d="M1.394 0.519 Q1.533 0.672 1.861 0.638" stroke="hsl(180.0,100%,35%)" stroke-width="0.00088"></path>
<path d="M1.394 0.519 Q1.091 0.529 1.044 0.679" stroke="hsl(180.0,100%,35%)" stroke-width="0.00088"></path>
<path d="M1.394 0.519 Q1.281 0.453 1.126 0.493" stroke="hsl(180.0,100%,35%)" stroke-width="0.00044"></path>
<path d="M1.394 0.519 Q1.483 0.336 1.146 0.253" stroke="hsl(180.0,100%,35%)" stroke-width="0.00044"></path>
<path d="M1.394 0.519 Q1.524 0.726 1.955 0.708" stroke="hsl(180.0,100%,35%)" stroke-width="0.00132"></path>
<path d="M1.394 0.519 Q0.799 0.202 0.048 0.422" stroke="hsl(180.0,100%,35%)" stroke-width="0.00044"></path>
<path d="M1.394 0.519 Q1.299 0.367 0.981 0.379" stroke="hsl(180.0,100%,35%)" stroke-width="0.00044"></path>
<path d="M0.145 0.718 Q0.115 0.697 0.067 0.707" stroke="hsl(0.0,100%,35%)" stroke-width="0.00177"></path>
<path d="M0.145 0.718 Q0.881 0.972 1.538 0.669" stroke="hsl(0.0,100%,35%)" stroke-width="0.00088"></path>
<path d="M0.145 0.718 Q0.060 0.791 0.184 0.849" stroke="hsl(0.0,100%,35%)" stroke-width="0.00353"></path>
<path d="M0.145 0.718 Q0.333 0.551 0.048 0.422" stroke="hsl(0.0,100%,35%)" stroke-width="0.00132"></path>
<path d="M1.344 0.683 Q1.197 0.621 1.044 0.679" stroke="hsl(180.0,100%,35%)" stroke-width="0.00486"></path>
<path d="M1.344 0.683 Q1.305 0.760 1.446 0.796" stroke="hsl(180.0,100%,35%)" stroke-width="0.00353"></path>
<path d="M1.344 0.683 Q0.832 0.375 0.119 0.557" stroke="hsl(180.0,100%,35%)" stroke-width="0.00088"></path>
<path d="M1.344 0.683 Q1.463 0.296 0.734 0.153" stroke="hsl(180.0,100%,35%)" stroke-width="0.00088"></path>
<path d="M1.344 0.683 Q1.101 0.416 0.527 0.476" stroke="hsl(180.0,100%,35%)" stroke-width="0.00044"></path>
<path d="M1.344 0.683 Q1.405 0.458 0.981 0.379" stroke="hsl(180.0,100%,35%)" stroke-width="0.00044"></path>
<path d="M0.733 0.247 Q0.178 0.279 0.119 0.557" stroke="hsl(180.0,100%,35%)" stroke-width="0.00088"></path>
<path d="M0.733 0.247 Q0.809 0.200 0.734 0.153" stroke="hsl(180.0,100%,35%)" stroke-width="0.00397"></path>
<path d="M0.733 0.247 Q0.984 0.668 1.861 0.638" stroke="hsl(180.0,100%,35%)" stroke-width="0.00044"></path>
<path d="M0.733 0.247 Q0.960 0.235 0.987 0.122" stroke="hsl(180.0,100%,35%)" stroke-width="0.00044"></path>
<path d="M0.528 0.327 Q0.922 0.317 0.987 0.122" stroke="hsl(180.0,100%,35%)" stroke-width="0.00044"></path>
<path d="M0.528 0.327 Q0.807 0.597 1.394 0.519" stroke="hsl(180.0,100%,35%)" stroke-width="0.00088"></path>
<path d="M0.528 0.327 Q0.771 0.281 0.734 0.153" stroke="hsl(180.0,100%,35%)" stroke-width="0.00132"></path>
<path d="M0.528 0.327 Q0.946 0.749 1.861 0.638" stroke="hsl(180.0,100%,35%)" stroke-width="0.00044"></path>
<path d="M0.528 0.327 Q0.140 0.360 0.119 0.557" stroke="hsl(180.0,100%,35%)" stroke-width="0.00044"></path>
<path d="M0.528 0.327 Q0.760 0.700 1.538 0.669" stroke="hsl(180.0,100%,35%)" stroke-width="0.00044"></path>
<path d="M1.146 0.253 Q0.389 0.199 0.119 0.557" stroke="hsl(180.0,100%,35%)" stroke-width="0.00088"></path>
<path d="M1.146 0.253 Q1.171 0.156 0.987 0.122" stroke="hsl(180.0,100%,35%)" stroke-width="0.00044"></path>
<path d="M0.394 0.633 Q0.318 0.540 0.119 0.557" stroke="hsl(180.0,100%,35%)" stroke-width="0.00927"></path>
<path d="M0.394 0.633 Q0.757 0.522 0.619 0.320" stroke="hsl(180.0,100%,35%)" stroke-width="0.00044"></path>
<path d="M0.394 0.633 Q0.872 0.709 1.126 0.493" stroke="hsl(180.0,100%,35%)" stroke-width="0.00132"></path>
<path d="M0.394 0.633 Q0.419 0.917 0.978 0.967" stroke="hsl(180.0,100%,35%)" stroke-width="0.00044"></path>
<path d="M0.394 0.633 Q0.949 0.461 0.734 0.153" stroke="hsl(180.0,100%,35%)" stroke-width="0.00044"></path>
<path d="M0.784 0.384 Q0.867 0.507 1.126 0.493" stroke="hsl(180.0,100%,35%)" stroke-width="0.00132"></path>
<path d="M0.784 0.384 Q0.715 0.319 0.573 0.339" stroke="hsl(180.0,100%,35%)" stroke-width="0.00044"></path>
<path d="M0.784 0.384 Q0.413 0.580 0.715 0.804" stroke="hsl(180.0,100%,35%)" stroke-width="0.00044"></path>
<path d="M0.784 0.384 Q0.718 0.372 0.680 0.401" stroke="hsl(180.0,100%,35%)" stroke-width="0.00044"></path>
<path d="M0.784 0.384 Q0.933 0.677 1.538 0.669" stroke="hsl(180.0,100%,35%)" stroke-width="0.00044"></path>
<path d="M0.784 0.384 Q0.702 0.481 0.874 0.542" stroke="hsl(180.0,100%,35%)" stroke-width="0.00044"></path>
<path d="M1.184 0.817 Q1.332 0.859 1.446 0.796" stroke="hsl(180.0,100%,35%)" stroke-width="0.00044"></path>
<path d="M1.184 0.817 Q1.414 0.644 1.126 0.493" stroke="hsl(180.0,100%,35%)" stroke-width="0.00044"></path>
<path d="M1.184 0.817 Q0.860 0.474 0.119 0.557" stroke="hsl(180.0,100%,35%)" stroke-width="0.00044"></path>
<path d="M1.184 0.817 Q1.562 0.659 1.336 0.440" stroke="hsl(180.0,100%,35%)" stroke-width="0.00044"></path>
<path d="M0.453 0.359 Q0.128 0.391 0.119 0.557" stroke="hsl(180.0,100%,35%)" stroke-width="0.00221"></path>
<path d="M0.453 0.359 Q0.747 0.731 1.538 0.669" stroke="hsl(180.0,100%,35%)" stroke-width="0.00044"></path>
<path d="M0.453 0.359 Q0.681 0.561 1.126 0.493" stroke="hsl(180.0,100%,35%)" stroke-width="0.00088"></path>
<path d="M0.453 0.359 Q0.639 0.699 1.344 0.683" stroke="hsl(180.0,100%,35%)" stroke-width="0.00044"></path>
<path d="M0.453 0.359 Q0.200 0.309 0.048 0.422" stroke="hsl(180.0,100%,35%)" stroke-width="0.00044"></path>
<path d="M0.453 0.359 Q0.934 0.780 1.861 0.638" stroke="hsl(180.0,100%,35%)" stroke-width="0.00044"></path>
<path d="M0.453 0.359 Q0.600 0.776 1.446 0.796" stroke="hsl(180.0,100%,35%)" stroke-width="0.00044"></path>
<path d="M0.619 0.320 Q0.257 0.432 0.394 0.633" stroke="hsl(180.0,100%,35%)" stroke-width="0.00132"></path>
<path d="M0.619 0.320 Q0.811 0.259 0.734 0.153" stroke="hsl(180.0,100%,35%)" stroke-width="0.00044"></path>
<path d="M0.619 0.320 Q0.180 0.338 0.119 0.557" stroke="hsl(180.0,100%,35%)" stroke-width="0.00088"></path>
<path d="M0.619 0.320 Q0.734 0.508 1.126 0.493" stroke="hsl(180.0,100%,35%)" stroke-width="0.00044"></path>
<path d="M0.759 0.565 Q1.077 0.354 0.734 0.153" stroke="hsl(180.0,100%,35%)" stroke-width="0.00044"></path>
<path d="M0.759 0.565 Q1.203 0.486 1.146 0.253" stroke="hsl(180.0,100%,35%)" stroke-width="0.00044"></path>
<path d="M0.759 0.565 Q0.699 0.651 0.852 0.699" stroke="hsl(180.0,100%,35%)" stroke-width="0.00044"></path>
<path d="M0.315 0.493 Q0.166 0.486 0.119 0.557" stroke="hsl(180.0,100%,35%)" stroke-width="0.00132"></path>
<path d="M0.315 0.493 Q0.923 0.539 1.146 0.253" stroke="hsl(180.0,100%,35%)" stroke-width="0.00044"></path>
<path d="M0.315 0.493 Q0.739 0.569 0.981 0.379" stroke="hsl(180.0,100%,35%)" stroke-width="0.00044"></path>
<path d="M0.676 0.332 Q0.657 0.315 0.619 0.320" stroke="hsl(180.0,100%,35%)" stroke-width="0.00221"></path>
<path d="M0.676 0.332 Q0.294 0.426 0.394 0.633" stroke="hsl(180.0,100%,35%)" stroke-width="0.00221"></path>
<path d="M0.676 0.332 Q0.182 0.554 0.506 0.844" stroke="hsl(180.0,100%,35%)" stroke-width="0.00044"></path>
<path d="M0.676 0.332 Q0.218 0.333 0.119 0.557" stroke="hsl(180.0,100%,35%)" stroke-width="0.00132"></path>
<path d="M0.676 0.332 Q0.772 0.503 1.126 0.493" stroke="hsl(180.0,100%,35%)" stroke-width="0.00132"></path>
<path d="M0.676 0.332 Q0.085 0.608 0.493 0.957" stroke="hsl(180.0,100%,35%)" stroke-width="0.00044"></path>
<path d="M0.506 0.844 Q0.543 0.623 0.119 0.557" stroke="hsl(180.0,100%,35%)" stroke-width="0.00044"></path>
<path d="M0.506 0.844 Q0.409 0.898 0.493 0.957" stroke="hsl(180.0,100%,35%)" stroke-width="0.00044"></path>
<path d="M0.506 0.844 Q0.617 0.814 0.582 0.754" stroke="hsl(180.0,100%,35%)" stroke-width="0.00044"></path>
<path d="M0.506 0.844 Q0.692 0.805 0.657 0.707" stroke="hsl(180.0,100%,35%)" stroke-width="0.00044"></path>
<path d="M0.632 0.894 Q1.277 0.544 0.734 0.153" stroke="hsl(180.0,100%,35%)" stroke-width="0.00044"></path>
<path d="M0.632 0.894 Q1.200 0.793 1.126 0.493" stroke="hsl(180.0,100%,35%)" stroke-width="0.00044"></path>
<path d="M0.632 0.894 Q0.799 0.891 0.830 0.809" stroke="hsl(180.0,100%,35%)" stroke-width="0.00044"></path>
<path d="M0.830 0.809 Q0.676 0.541 0.119 0.557" stroke="hsl(180.0,100%,35%)" stroke-width="0.00044"></path>
<path d="M0.830 0.809 Q0.753 0.634 0.394 0.633" stroke="hsl(180.0,100%,35%)" stroke-width="0.00088"></path>
<path d="M0.830 0.809 Q0.778 0.918 0.978 0.967" stroke="hsl(180.0,100%,35%)" stroke-width="0.00088"></path>
<path d="M0.830 0.809 Q1.230 0.710 1.126 0.493" stroke="hsl(180.0,100%,35%)" stroke-width="0.00044"></path>
<path d="M0.190 0.606 Q0.194 0.567 0.119 0.557" stroke="hsl(180.0,100%,35%)" stroke-width="0.00265"></path>
<path d="M0.190 0.606 Q0.748 0.737 1.126 0.493" stroke="hsl(180.0,100%,35%)" stroke-width="0.00177"></path>
<path d="M0.190 0.606 Q0.271 0.661 0.394 0.633" stroke="hsl(180.0,100%,35%)" stroke-width="0.00177"></path>
<path d="M1.711 0.379 Q1.327 0.319 1.126 0.493" stroke="hsl(180.0,100%,35%)" stroke-width="0.00530"></path>
<path d="M1.711 0.379 Q1.530 0.203 1.146 0.253" stroke="hsl(180.0,100%,35%)" stroke-width="0.00044"></path>
<path d="M1.711 0.379 Q1.404 0.071 0.734 0.153" stroke="hsl(180.0,100%,35%)" stroke-width="0.00132"></path>
<path d="M1.711 0.379 Q0.773 0.150 0.119 0.557" stroke="hsl(180.0,100%,35%)" stroke-width="0.00088"></path>
<path d="M1.245 0.265 Q0.703 0.057 0.177 0.276" stroke="hsl(180.0,100%,35%)" stroke-width="0.00044"></path>
<path d="M1.245 0.265 Q1.003 0.355 1.126 0.493" stroke="hsl(180.0,100%,35%)" stroke-width="0.00221"></path>
<path d="M1.245 0.265 Q1.255 0.575 1.861 0.638" stroke="hsl(180.0,100%,35%)" stroke-width="0.00044"></path>
<path d="M1.245 0.265 Q1.021 0.269 0.981 0.379" stroke="hsl(180.0,100%,35%)" stroke-width="0.00044"></path>
<path d="M0.582 0.754 Q0.472 0.784 0.506 0.844" stroke="hsl(180.0,100%,35%)" stroke-width="0.00088"></path>
<path d="M0.582 0.754 Q0.657 0.745 0.657 0.707" stroke="hsl(180.0,100%,35%)" stroke-width="0.00132"></path>
<path d="M0.582 0.754 Q0.508 0.562 0.119 0.557" stroke="hsl(180.0,100%,35%)" stroke-width="0.00132"></path>
<path d="M0.582 0.754 Q0.580 0.481 0.048 0.422" stroke="hsl(180.0,100%,35%)" stroke-width="0.00044"></path>
<path d="M1.569 0.501 Q1.419 0.579 1.538 0.669" stroke="hsl(180.0,100%,35%)" stroke-width="0.00088"></path>
<path d="M1.569 0.501 Q0.799 0.239 0.119 0.557" stroke="hsl(180.0,100%,35%)" stroke-width="0.00044"></path>
<path d="M1.569 0.501 Q1.519 0.499 1.504 0.523" stroke="hsl(180.0,100%,35%)" stroke-width="0.00088"></path>
<path d="M0.791 0.973 Q1.343 0.800 1.126 0.493" stroke="hsl(180.0,100%,35%)" stroke-width="0.00088"></path>
<path d="M0.791 0.973 Q0.890 1.008 0.978 0.967" stroke="hsl(180.0,100%,35%)" stroke-width="0.00088"></path>
<path d="M0.791 0.973 Q0.865 0.724 0.394 0.633" stroke="hsl(180.0,100%,35%)" stroke-width="0.00044"></path>
<path d="M0.248 0.197 Q-0.032 0.270 0.048 0.422" stroke="hsl(180.0,100%,35%)" stroke-width="0.00044"></path>
<path d="M0.248 0.197 Q0.677 0.308 0.987 0.122" stroke="hsl(180.0,100%,35%)" stroke-width="0.00044"></path>
<path d="M0.248 0.197 Q0.368 0.736 1.446 0.796" stroke="hsl(180.0,100%,35%)" stroke-width="0.00044"></path>
<path d="M0.240 0.443 Q-0.113 0.635 0.184 0.849" stroke="hsl(0.0,100%,35%)" stroke-width="0.00044"></path>
<path d="M0.240 0.443 Q-0.057 0.540 0.067 0.707" stroke="hsl(0.0,100%,35%)" stroke-width="0.00044"></path>
<path d="M0.240 0.443 Q0.895 0.864 1.861 0.638" stroke="hsl(0.0,100%,35%)" stroke-width="0.00044"></path>
<path d="M0.240 0.443 Q0.161 0.394 0.048 0.422" stroke="hsl(0.0,100%,35%)" stroke-width="0.00044"></path>
<path d="M0.240 0.443 Q0.719 0.396 0.734 0.153" stroke="hsl(0.0,100%,35%)" stroke-width="0.00044"></path>
<path d="M0.240 0.443 Q0.870 0.432 0.987 0.122" stroke="hsl(0.0,100%,35%)" stroke-width="0.00044"></path>
</g>
<text x="0.302" y="0.369" font-size="0.005710" fill="hsl(0.0,100%,20%)">alexnj</text>
<text x="0.184" y="0.837" font-size="0.023545" fill="hsl(0.0,100%,20%)">paulirish</text>
<text x="1.861" y="0.607" font-size="0.062814" fill="hsl(0.0,100%,20%)">jacktfranklin</text>
<text x="0.048" y="0.397" font-size="0.051182" fill="hsl(0.0,100%,20%)">alexrudenko</text>
<text x="0.734" y="0.121" font-size="0.062641" fill="hsl(180.0,100%,20%)">szuend</text>
<text x="0.119" y="0.527" font-size="0.058792" fill="hsl(180.0,100%,20%)">dsv</text>
<text x="0.177" y="0.267" font-size="0.017446" fill="hsl(0.0,100%,20%)">nvitkov</text>
<text x="1.710" y="0.741" font-size="0.051394" fill="hsl(0.0,100%,20%)">andoli</text>
<text x="0.981" y="0.359" font-size="0.039973" fill="hsl(180.0,100%,20%)">kprokopenko</text>
<text x="1.504" y="0.510" font-size="0.025538" fill="hsl(180.0,100%,20%)">yangguo</text>
<text x="0.873" y="0.488" font-size="0.016151" fill="hsl(180.0,100%,20%)">petermueller</text>
<text x="0.987" y="0.094" font-size="0.057009" fill="hsl(180.0,100%,20%)">bmeurer</text>
<text x="1.126" y="0.468" font-size="0.051710" fill="hsl(180.0,100%,20%)">wolfi</text>
<text x="0.202" y="0.239" font-size="0.003297" fill="hsl(0.0,100%,20%)">tperrotta</text>
<text x="1.446" y="0.776" font-size="0.039563" fill="hsl(180.0,100%,20%)">ergunsh</text>
<text x="0.394" y="0.287" font-size="0.016485" fill="hsl(0.0,100%,20%)">jrandolf</text>
<text x="1.538" y="0.660" font-size="0.017754" fill="hsl(180.0,100%,20%)">mathias</text>
<text x="1.044" y="0.654" font-size="0.051182" fill="hsl(180.0,100%,20%)">pfaffe</text>
<text x="0.377" y="0.506" font-size="0.034262" fill="hsl(0.0,100%,20%)">hadrienjaubert</text>
<text x="1.336" y="0.427" font-size="0.026168" fill="hsl(180.0,100%,20%)">jec</text>
<text x="0.527" y="0.455" font-size="0.042349" fill="hsl(0.0,100%,20%)">nancyly</text>
<text x="1.955" y="0.694" font-size="0.026986" fill="hsl(0.0,100%,20%)">alinavarkki</text>
<text x="1.327" y="0.522" font-size="0.019781" fill="hsl(180.0,100%,20%)">almuthanna</text>
<text x="1.196" y="0.900" font-size="0.016485" fill="hsl(180.0,100%,20%)">liviurau</text>
<text x="1.394" y="0.510" font-size="0.018356" fill="hsl(180.0,100%,20%)">leese</text>
<text x="0.145" y="0.711" font-size="0.013593" fill="hsl(0.0,100%,20%)">asraine</text>
<text x="0.067" y="0.703" font-size="0.007372" fill="hsl(0.0,100%,20%)">cjamcl</text>
<text x="1.344" y="0.673" font-size="0.020054" fill="hsl(180.0,100%,20%)">changhaohan</text>
<text x="1.054" y="0.026" font-size="0.004663" fill="hsl(180.0,100%,20%)">caseq</text>
<text x="0.733" y="0.234" font-size="0.024227" fill="hsl(180.0,100%,20%)">jarin</text>
<text x="1.823" y="0.658" font-size="0.007372" fill="hsl(0.0,100%,20%)">victorporof</text>
<text x="0.528" y="0.323" font-size="0.009891" fill="hsl(180.0,100%,20%)">chrche</text>
<text x="1.146" y="0.247" font-size="0.011421" fill="hsl(180.0,100%,20%)">semel</text>
<text x="0.394" y="0.622" font-size="0.022361" fill="hsl(180.0,100%,20%)">kenoss</text>
<text x="0.784" y="0.379" font-size="0.009325" fill="hsl(180.0,100%,20%)">fluorescent.hallucinogen</text>
<text x="0.573" y="0.337" font-size="0.003297" fill="hsl(180.0,100%,20%)">dibyapal</text>
<text x="0.715" y="0.802" font-size="0.003297" fill="hsl(180.0,100%,20%)">hartmanng</text>
<text x="0.680" y="0.399" font-size="0.003297" fill="hsl(180.0,100%,20%)">scheib</text>
<text x="0.874" y="0.540" font-size="0.003297" fill="hsl(180.0,100%,20%)">finnur</text>
<text x="1.184" y="0.814" font-size="0.006594" fill="hsl(180.0,100%,20%)">henry</text>
<text x="1.631" y="0.241" font-size="0.003297" fill="hsl(180.0,100%,20%)">tomac</text>
<text x="0.453" y="0.353" font-size="0.011421" fill="hsl(180.0,100%,20%)">jimmyseto</text>
<text x="0.619" y="0.314" font-size="0.011887" fill="hsl(180.0,100%,20%)">lingqi</text>
<text x="0.978" y="0.964" font-size="0.007372" fill="hsl(180.0,100%,20%)">domenic</text>
<text x="1.086" y="0.845" font-size="0.005710" fill="hsl(180.0,100%,20%)">machenbach</text>
<text x="0.759" y="0.563" font-size="0.005710" fill="hsl(180.0,100%,20%)">lyf</text>
<text x="0.852" y="0.696" font-size="0.004663" fill="hsl(180.0,100%,20%)">titouan</text>
<text x="0.315" y="0.489" font-size="0.007372" fill="hsl(180.0,100%,20%)">memmott</text>
<text x="0.676" y="0.325" font-size="0.013988" fill="hsl(180.0,100%,20%)">miinak</text>
<text x="0.506" y="0.840" font-size="0.008723" fill="hsl(180.0,100%,20%)">sisidovski</text>
<text x="0.493" y="0.955" font-size="0.004663" fill="hsl(180.0,100%,20%)">kouhei</text>
<text x="0.632" y="0.891" font-size="0.005710" fill="hsl(180.0,100%,20%)">morlovich</text>
<text x="0.830" y="0.805" font-size="0.008723" fill="hsl(180.0,100%,20%)">nhiroki</text>
<text x="1.026" y="0.777" font-size="0.003297" fill="hsl(180.0,100%,20%)">adetaylor</text>
<text x="1.445" y="0.646" font-size="0.003297" fill="hsl(180.0,100%,20%)">panchok</text>
<text x="0.190" y="0.600" font-size="0.012336" fill="hsl(180.0,100%,20%)">robertlin</text>
<text x="1.711" y="0.372" font-size="0.013988" fill="hsl(180.0,100%,20%)">shuuran</text>
<text x="1.245" y="0.260" font-size="0.009325" fill="hsl(180.0,100%,20%)">silviaeremia</text>
<text x="0.582" y="0.748" font-size="0.010426" fill="hsl(180.0,100%,20%)">tnak</text>
<text x="0.657" y="0.703" font-size="0.006594" fill="hsl(180.0,100%,20%)">yyanagisawa</text>
<text x="1.569" y="0.497" font-size="0.007372" fill="hsl(180.0,100%,20%)">sokcevic</text>
<text x="0.791" y="0.970" font-size="0.007372" fill="hsl(180.0,100%,20%)">taiyo</text>
<text x="0.248" y="0.194" font-size="0.005710" fill="hsl(180.0,100%,20%)">tkent</text>
<text x="0.240" y="0.439" font-size="0.008076" fill="hsl(0.0,100%,20%)">vidorteg</text>
<text x="1.263" y="0.376" font-size="0.003297" fill="hsl(180.0,100%,20%)">mathiasb</text>
<text x="1.032" y="0.272" font-size="0.003297" fill="hsl(180.0,100%,20%)">tsepez</text>
</svg>
