<svg width="4000" height="2000" viewBox="-0.025 -0.025 2.05 1.05" xmlns="http://www.w3.org/2000/svg">
  <style>
    path {
      fill: none;
      stroke-linecap: round;
      stroke-opacity: 0.4;
    }

    text {
      text-anchor: middle;
      alignment-baseline: hanging;
    }
  </style>
  <g opacity="0.4">
<path d="M0.169 0.322 Q-0.250 0.668 0.333 0.948" stroke="hsl(0.0,100%,35%)" stroke-width="0.00627"></path>
<path d="M0.169 0.322 Q0.212 0.260 0.102 0.226" stroke="hsl(0.0,100%,35%)" stroke-width="0.00627"></path>
<path d="M0.169 0.322 Q0.224 0.418 0.423 0.412" stroke="hsl(0.0,100%,35%)" stroke-width="0.00627"></path>
<path d="M0.169 0.322 Q0.052 0.418 0.213 0.497" stroke="hsl(0.0,100%,35%)" stroke-width="0.00627"></path>
<path d="M0.169 0.322 Q0.086 0.537 0.487 0.625" stroke="hsl(0.0,100%,35%)" stroke-width="0.00627"></path>
<path d="M0.169 0.322 Q0.080 0.378 0.169 0.433" stroke="hsl(0.0,100%,35%)" stroke-width="0.00627"></path>
<path d="M0.333 0.948 Q0.271 0.886 0.137 0.902" stroke="hsl(0.0,100%,35%)" stroke-width="0.01255"></path>
<path d="M0.333 0.948 Q0.662 0.658 0.169 0.433" stroke="hsl(0.0,100%,35%)" stroke-width="0.00627"></path>
<path d="M0.333 0.948 Q0.281 0.900 0.176 0.914" stroke="hsl(0.0,100%,35%)" stroke-width="0.00627"></path>
<path d="M0.423 0.412 Q0.552 0.412 0.581 0.349" stroke="hsl(0.0,100%,35%)" stroke-width="0.00627"></path>
<path d="M0.423 0.412 Q0.251 0.412 0.213 0.497" stroke="hsl(0.0,100%,35%)" stroke-width="0.00627"></path>
<path d="M0.423 0.412 Q0.368 0.316 0.169 0.322" stroke="hsl(0.0,100%,35%)" stroke-width="0.00627"></path>
<path d="M0.078 0.698 Q0.164 0.645 0.079 0.592" stroke="hsl(60.0,100%,35%)" stroke-width="0.00627"></path>
<path d="M0.078 0.698 Q0.451 0.688 0.514 0.504" stroke="hsl(60.0,100%,35%)" stroke-width="0.00627"></path>
<path d="M0.078 0.698 Q0.633 0.733 0.824 0.470" stroke="hsl(60.0,100%,35%)" stroke-width="0.00627"></path>
<path d="M0.294 0.602 Q0.665 0.642 0.824 0.470" stroke="hsl(60.0,100%,35%)" stroke-width="0.00627"></path>
<path d="M0.294 0.602 Q0.195 0.554 0.079 0.592" stroke="hsl(60.0,100%,35%)" stroke-width="0.00627"></path>
<path d="M0.294 0.602 Q0.483 0.597 0.514 0.504" stroke="hsl(60.0,100%,35%)" stroke-width="0.00627"></path>
<path d="M0.294 0.602 Q0.270 0.634 0.326 0.652" stroke="hsl(60.0,100%,35%)" stroke-width="0.00627"></path>
<path d="M1.080 0.763 Q1.197 0.727 1.152 0.662" stroke="hsl(60.0,100%,35%)" stroke-width="0.01255"></path>
<path d="M1.080 0.763 Q1.304 0.478 0.795 0.306" stroke="hsl(60.0,100%,35%)" stroke-width="0.00627"></path>
<path d="M1.080 0.763 Q1.011 0.816 1.099 0.862" stroke="hsl(60.0,100%,35%)" stroke-width="0.00627"></path>
<path d="M1.080 0.763 Q0.733 0.703 0.539 0.860" stroke="hsl(60.0,100%,35%)" stroke-width="0.00627"></path>
<path d="M1.152 0.662 Q1.499 0.419 1.101 0.196" stroke="hsl(0.0,100%,35%)" stroke-width="0.00627"></path>
<path d="M1.152 0.662 Q1.163 0.608 1.059 0.591" stroke="hsl(0.0,100%,35%)" stroke-width="0.00627"></path>
<path d="M1.152 0.662 Q1.183 0.708 1.279 0.703" stroke="hsl(0.0,100%,35%)" stroke-width="0.00627"></path>
<path d="M1.152 0.662 Q1.035 0.698 1.080 0.763" stroke="hsl(0.0,100%,35%)" stroke-width="0.01255"></path>
<path d="M1.404 0.677 Q1.389 0.717 1.465 0.734" stroke="hsl(120.0,100%,35%)" stroke-width="0.01255"></path>
<path d="M1.404 0.677 Q1.204 0.749 1.302 0.863" stroke="hsl(120.0,100%,35%)" stroke-width="0.01255"></path>
<path d="M1.404 0.677 Q1.264 0.822 1.517 0.923" stroke="hsl(120.0,100%,35%)" stroke-width="0.00627"></path>
<path d="M1.465 0.734 Q1.340 0.839 1.517 0.923" stroke="hsl(120.0,100%,35%)" stroke-width="0.00627"></path>
<path d="M1.465 0.734 Q1.280 0.766 1.302 0.863" stroke="hsl(120.0,100%,35%)" stroke-width="0.01255"></path>
<path d="M1.465 0.734 Q1.130 0.631 0.857 0.772" stroke="hsl(120.0,100%,35%)" stroke-width="0.00627"></path>
<path d="M1.302 0.863 Q1.263 0.921 1.369 0.953" stroke="hsl(120.0,100%,35%)" stroke-width="0.01882"></path>
<path d="M1.302 0.863 Q1.362 0.936 1.517 0.923" stroke="hsl(120.0,100%,35%)" stroke-width="0.00627"></path>
<path d="M1.302 0.863 Q1.549 0.909 1.694 0.799" stroke="hsl(120.0,100%,35%)" stroke-width="0.00627"></path>
<path d="M1.302 0.863 Q1.906 0.554 1.437 0.192" stroke="hsl(120.0,100%,35%)" stroke-width="0.00627"></path>
<path d="M1.517 0.923 Q1.458 0.850 1.302 0.863" stroke="hsl(120.0,100%,35%)" stroke-width="0.01255"></path>
<path d="M1.517 0.923 Q1.705 0.896 1.694 0.799" stroke="hsl(120.0,100%,35%)" stroke-width="0.00627"></path>
<path d="M1.517 0.923 Q1.419 0.908 1.369 0.953" stroke="hsl(120.0,100%,35%)" stroke-width="0.00627"></path>
<path d="M1.090 0.091 Q0.927 0.097 0.903 0.178" stroke="hsl(0.0,100%,35%)" stroke-width="0.00627"></path>
<path d="M1.090 0.091 Q1.011 0.146 1.101 0.196" stroke="hsl(0.0,100%,35%)" stroke-width="0.00627"></path>
<path d="M1.090 0.091 Q0.306 0.290 0.522 0.717" stroke="hsl(0.0,100%,35%)" stroke-width="0.00627"></path>
<path d="M1.090 0.091 Q1.063 0.204 1.277 0.242" stroke="hsl(0.0,100%,35%)" stroke-width="0.00627"></path>
<path d="M1.090 0.091 Q1.184 0.102 1.226 0.059" stroke="hsl(0.0,100%,35%)" stroke-width="0.00627"></path>
<path d="M1.090 0.091 Q1.183 0.211 1.437 0.192" stroke="hsl(0.0,100%,35%)" stroke-width="0.00627"></path>
<path d="M1.090 0.091 Q1.198 0.148 1.332 0.108" stroke="hsl(0.0,100%,35%)" stroke-width="0.00627"></path>
<path d="M1.090 0.091 Q0.889 0.158 0.975 0.270" stroke="hsl(0.0,100%,35%)" stroke-width="0.00627"></path>
<path d="M1.735 0.939 Q1.861 0.956 1.922 0.898" stroke="hsl(120.0,100%,35%)" stroke-width="0.01255"></path>
<path d="M1.735 0.939 Q1.666 0.940 1.652 0.974" stroke="hsl(120.0,100%,35%)" stroke-width="0.01255"></path>
<path d="M1.735 0.939 Q1.843 0.892 1.775 0.830" stroke="hsl(120.0,100%,35%)" stroke-width="0.00627"></path>
<path d="M1.898 0.209 Q1.809 0.192 1.756 0.232" stroke="hsl(0.0,100%,35%)" stroke-width="0.00627"></path>
<path d="M1.898 0.209 Q1.757 0.192 1.692 0.256" stroke="hsl(0.0,100%,35%)" stroke-width="0.00627"></path>
<path d="M1.898 0.209 Q1.802 0.268 1.895 0.328" stroke="hsl(0.0,100%,35%)" stroke-width="0.00627"></path>
<path d="M1.898 0.209 Q1.046 0.323 1.080 0.763" stroke="hsl(0.0,100%,35%)" stroke-width="0.00627"></path>
<path d="M1.898 0.209 Q1.736 0.170 1.625 0.241" stroke="hsl(0.0,100%,35%)" stroke-width="0.00627"></path>
<path d="M0.898 0.702 Q0.821 0.729 0.857 0.772" stroke="hsl(120.0,100%,35%)" stroke-width="0.00627"></path>
<path d="M0.898 0.702 Q0.947 0.687 0.928 0.660" stroke="hsl(120.0,100%,35%)" stroke-width="0.00627"></path>
<path d="M0.898 0.702 Q0.875 0.679 0.826 0.685" stroke="hsl(120.0,100%,35%)" stroke-width="0.00627"></path>
<path d="M0.690 0.646 Q0.428 0.497 0.079 0.592" stroke="hsl(60.0,100%,35%)" stroke-width="0.00627"></path>
<path d="M0.690 0.646 Q0.606 0.678 0.651 0.726" stroke="hsl(60.0,100%,35%)" stroke-width="0.01255"></path>
<path d="M0.690 0.646 Q0.689 0.582 0.564 0.569" stroke="hsl(60.0,100%,35%)" stroke-width="0.00627"></path>
<path d="M0.713 0.997 Q0.727 0.758 0.264 0.699" stroke="hsl(0.0,100%,35%)" stroke-width="0.00627"></path>
<path d="M0.713 0.997 Q0.736 0.893 0.539 0.860" stroke="hsl(0.0,100%,35%)" stroke-width="0.01882"></path>
<path d="M0.713 0.997 Q0.817 0.930 0.709 0.865" stroke="hsl(0.0,100%,35%)" stroke-width="0.01255"></path>
<path d="M0.713 0.997 Q0.870 0.955 0.821 0.869" stroke="hsl(0.0,100%,35%)" stroke-width="0.00627"></path>
<path d="M0.652 0.061 Q0.514 0.083 0.528 0.155" stroke="hsl(120.0,100%,35%)" stroke-width="0.01882"></path>
<path d="M0.652 0.061 Q0.432 -0.003 0.261 0.091" stroke="hsl(120.0,100%,35%)" stroke-width="0.02509"></path>
<path d="M0.652 0.061 Q0.147 0.520 0.932 0.867" stroke="hsl(120.0,100%,35%)" stroke-width="0.00627"></path>
<path d="M0.652 0.061 Q0.649 0.137 0.796 0.155" stroke="hsl(120.0,100%,35%)" stroke-width="0.00627"></path>
<path d="M0.652 0.061 Q0.500 0.111 0.565 0.196" stroke="hsl(120.0,100%,35%)" stroke-width="0.00627"></path>
<path d="M0.652 0.061 Q0.185 0.457 0.857 0.772" stroke="hsl(120.0,100%,35%)" stroke-width="0.00627"></path>
<path d="M0.652 0.061 Q0.743 0.100 0.840 0.064" stroke="hsl(120.0,100%,35%)" stroke-width="0.00627"></path>
<path d="M0.335 0.791 Q0.373 0.731 0.264 0.699" stroke="hsl(0.0,100%,35%)" stroke-width="0.00627"></path>
<path d="M0.335 0.791 Q0.228 0.767 0.157 0.814" stroke="hsl(0.0,100%,35%)" stroke-width="0.00627"></path>
<path d="M0.335 0.791 Q0.451 0.790 0.474 0.733" stroke="hsl(0.0,100%,35%)" stroke-width="0.00627"></path>
<path d="M0.335 0.791 Q0.382 0.866 0.539 0.860" stroke="hsl(0.0,100%,35%)" stroke-width="0.00627"></path>
<path d="M0.335 0.791 Q0.627 0.523 0.169 0.322" stroke="hsl(0.0,100%,35%)" stroke-width="0.00627"></path>
<path d="M0.335 0.791 Q0.544 0.738 0.487 0.625" stroke="hsl(0.0,100%,35%)" stroke-width="0.00627"></path>
<path d="M0.335 0.791 Q0.488 0.791 0.522 0.717" stroke="hsl(0.0,100%,35%)" stroke-width="0.00627"></path>
<path d="M0.979 0.979 Q1.052 0.907 0.928 0.855" stroke="hsl(120.0,100%,35%)" stroke-width="0.00627"></path>
<path d="M0.979 0.979 Q1.045 0.914 0.932 0.867" stroke="hsl(120.0,100%,35%)" stroke-width="0.00627"></path>
<path d="M0.979 0.979 Q1.104 0.949 1.072 0.881" stroke="hsl(120.0,100%,35%)" stroke-width="0.00627"></path>
<path d="M0.979 0.979 Q1.012 0.916 0.897 0.886" stroke="hsl(120.0,100%,35%)" stroke-width="0.00627"></path>
<path d="M0.979 0.979 Q1.008 0.906 0.871 0.875" stroke="hsl(120.0,100%,35%)" stroke-width="0.00627"></path>
<path d="M0.979 0.979 Q1.083 0.851 0.857 0.772" stroke="hsl(120.0,100%,35%)" stroke-width="0.00627"></path>
<path d="M0.979 0.979 Q0.975 0.949 0.916 0.944" stroke="hsl(120.0,100%,35%)" stroke-width="0.00627"></path>
<path d="M0.597 0.297 Q0.390 0.384 0.514 0.504" stroke="hsl(60.0,100%,35%)" stroke-width="0.00627"></path>
<path d="M0.597 0.297 Q0.689 0.341 0.795 0.306" stroke="hsl(60.0,100%,35%)" stroke-width="0.00627"></path>
<path d="M0.597 0.297 Q0.529 0.300 0.521 0.334" stroke="hsl(60.0,100%,35%)" stroke-width="0.00627"></path>
<path d="M1.610 0.541 Q1.510 0.519 1.445 0.563" stroke="hsl(0.0,100%,35%)" stroke-width="0.00627"></path>
<path d="M1.610 0.541 Q1.490 0.528 1.438 0.584" stroke="hsl(0.0,100%,35%)" stroke-width="0.00627"></path>
<path d="M1.610 0.541 Q1.665 0.456 1.510 0.410" stroke="hsl(0.0,100%,35%)" stroke-width="0.00627"></path>
<path d="M1.610 0.541 Q1.689 0.484 1.593 0.433" stroke="hsl(0.0,100%,35%)" stroke-width="0.00627"></path>
<path d="M1.610 0.541 Q0.666 0.387 0.157 0.814" stroke="hsl(0.0,100%,35%)" stroke-width="0.00627"></path>
<path d="M1.610 0.541 Q1.575 0.479 1.445 0.482" stroke="hsl(0.0,100%,35%)" stroke-width="0.00627"></path>
<path d="M1.610 0.541 Q1.736 0.412 1.510 0.322" stroke="hsl(0.0,100%,35%)" stroke-width="0.00627"></path>
<path d="M0.334 0.186 Q0.441 0.237 0.565 0.196" stroke="hsl(120.0,100%,35%)" stroke-width="0.01255"></path>
<path d="M0.334 0.186 Q0.558 0.860 1.922 0.898" stroke="hsl(120.0,100%,35%)" stroke-width="0.00627"></path>
<path d="M0.334 0.186 Q0.373 0.124 0.261 0.091" stroke="hsl(120.0,100%,35%)" stroke-width="0.03764"></path>
<path d="M0.334 0.186 Q0.540 0.796 1.775 0.830" stroke="hsl(120.0,100%,35%)" stroke-width="0.00627"></path>
<path d="M0.334 0.186 Q0.449 0.167 0.436 0.106" stroke="hsl(120.0,100%,35%)" stroke-width="0.00627"></path>
<path d="M1.688 0.052 Q1.720 0.109 1.837 0.106" stroke="hsl(180.0,100%,35%)" stroke-width="0.00627"></path>
<path d="M1.688 0.052 Q1.574 0.087 1.617 0.150" stroke="hsl(180.0,100%,35%)" stroke-width="0.00627"></path>
<path d="M1.688 0.052 Q1.547 0.003 1.421 0.061" stroke="hsl(180.0,100%,35%)" stroke-width="0.00627"></path>
<path d="M0.970 0.539 Q0.903 0.542 0.896 0.576" stroke="hsl(60.0,100%,35%)" stroke-width="0.00627"></path>
<path d="M0.970 0.539 Q0.952 0.475 0.824 0.470" stroke="hsl(60.0,100%,35%)" stroke-width="0.01255"></path>
<path d="M0.970 0.539 Q0.482 0.387 0.079 0.592" stroke="hsl(60.0,100%,35%)" stroke-width="0.00627"></path>
<path d="M0.970 0.539 Q0.770 0.430 0.514 0.504" stroke="hsl(60.0,100%,35%)" stroke-width="0.00627"></path>
<path d="M1.227 0.513 Q1.337 0.468 1.273 0.405" stroke="hsl(240.0,100%,35%)" stroke-width="0.01882"></path>
<path d="M1.227 0.513 Q1.217 0.408 1.010 0.390" stroke="hsl(240.0,100%,35%)" stroke-width="0.01882"></path>
<path d="M1.227 0.513 Q1.384 0.418 1.234 0.321" stroke="hsl(240.0,100%,35%)" stroke-width="0.01255"></path>
<path d="M1.010 0.390 Q0.901 0.397 0.891 0.452" stroke="hsl(240.0,100%,35%)" stroke-width="0.01255"></path>
<path d="M1.010 0.390 Q1.020 0.495 1.227 0.513" stroke="hsl(240.0,100%,35%)" stroke-width="0.00627"></path>
<path d="M1.010 0.390 Q1.129 0.450 1.273 0.405" stroke="hsl(240.0,100%,35%)" stroke-width="0.00627"></path>
<path d="M1.857 0.475 Q1.643 0.561 1.766 0.685" stroke="hsl(300.0,100%,35%)" stroke-width="0.03136"></path>
<path d="M1.857 0.475 Q1.790 0.530 1.883 0.575" stroke="hsl(300.0,100%,35%)" stroke-width="0.02509"></path>
<path d="M1.857 0.475 Q1.742 0.586 1.933 0.667" stroke="hsl(300.0,100%,35%)" stroke-width="0.00627"></path>
<path d="M1.695 0.364 Q1.852 0.385 1.926 0.313" stroke="hsl(0.0,100%,35%)" stroke-width="0.00627"></path>
<path d="M1.695 0.364 Q1.636 0.306 1.510 0.322" stroke="hsl(0.0,100%,35%)" stroke-width="0.00627"></path>
<path d="M1.695 0.364 Q1.279 0.026 0.528 0.155" stroke="hsl(0.0,100%,35%)" stroke-width="0.00627"></path>
</g>
<text x="0.169" y="0.306" font-size="0.031524" fill="hsl(0.0,100%,20%)">averge</text>
<text x="0.333" y="0.935" font-size="0.024922" fill="hsl(0.0,100%,20%)">cammie</text>
<text x="0.102" y="0.220" font-size="0.011146" fill="hsl(0.0,100%,20%)">wanderview</text>
<text x="0.423" y="0.401" font-size="0.022291" fill="hsl(0.0,100%,20%)">gtanzer</text>
<text x="0.213" y="0.489" font-size="0.015762" fill="hsl(0.0,100%,20%)">arthursonzogni</text>
<text x="0.487" y="0.617" font-size="0.015762" fill="hsl(0.0,100%,20%)">alexmos</text>
<text x="0.169" y="0.426" font-size="0.015762" fill="hsl(0.0,100%,20%)">dom</text>
<text x="0.078" y="0.688" font-size="0.019305" fill="hsl(60.0,100%,20%)">bin.miao</text>
<text x="0.079" y="0.580" font-size="0.022291" fill="hsl(60.0,100%,20%)">reillyg</text>
<text x="0.514" y="0.493" font-size="0.022291" fill="hsl(60.0,100%,20%)">ajgo</text>
<text x="0.824" y="0.459" font-size="0.022291" fill="hsl(60.0,100%,20%)">ningxin.hu</text>
<text x="0.294" y="0.591" font-size="0.022291" fill="hsl(60.0,100%,20%)">bryan.bernhart</text>
<text x="0.326" y="0.647" font-size="0.011146" fill="hsl(60.0,100%,20%)">rafael.cintron</text>
<text x="0.137" y="0.894" font-size="0.015762" fill="hsl(0.0,100%,20%)">yaoxia</text>
<text x="0.176" y="0.909" font-size="0.011146" fill="hsl(0.0,100%,20%)">behamilton</text>
<text x="1.080" y="0.747" font-size="0.031524" fill="hsl(60.0,100%,20%)">cbiesinger</text>
<text x="1.152" y="0.648" font-size="0.029488" fill="hsl(0.0,100%,20%)">npm</text>
<text x="0.795" y="0.298" font-size="0.015762" fill="hsl(60.0,100%,20%)">jam</text>
<text x="1.099" y="0.856" font-size="0.011146" fill="hsl(60.0,100%,20%)">pdr</text>
<text x="0.539" y="0.847" font-size="0.024922" fill="hsl(60.0,100%,20%)">flackr</text>
<text x="1.404" y="0.664" font-size="0.024922" fill="hsl(120.0,100%,20%)">chromium</text>
<text x="1.465" y="0.720" font-size="0.027301" fill="hsl(120.0,100%,20%)">lwarlow</text>
<text x="1.302" y="0.843" font-size="0.038609" fill="hsl(120.0,100%,20%)">masonf</text>
<text x="1.517" y="0.908" font-size="0.029488" fill="hsl(120.0,100%,20%)">jarhar</text>
<text x="1.090" y="0.075" font-size="0.031524" fill="hsl(0.0,100%,20%)">djmitche</text>
<text x="0.903" y="0.173" font-size="0.011146" fill="hsl(0.0,100%,20%)">sky</text>
<text x="1.101" y="0.189" font-size="0.015762" fill="hsl(0.0,100%,20%)">nasko</text>
<text x="0.522" y="0.709" font-size="0.015762" fill="hsl(0.0,100%,20%)">danakj</text>
<text x="1.277" y="0.236" font-size="0.011146" fill="hsl(0.0,100%,20%)">miketaylr</text>
<text x="1.226" y="0.053" font-size="0.011146" fill="hsl(0.0,100%,20%)">victortan</text>
<text x="1.437" y="0.184" font-size="0.015762" fill="hsl(0.0,100%,20%)">boliu</text>
<text x="1.332" y="0.102" font-size="0.011146" fill="hsl(0.0,100%,20%)">caseq</text>
<text x="0.975" y="0.265" font-size="0.011146" fill="hsl(0.0,100%,20%)">dcheng</text>
<text x="1.735" y="0.927" font-size="0.024922" fill="hsl(120.0,100%,20%)">fs</text>
<text x="1.922" y="0.889" font-size="0.019305" fill="hsl(120.0,100%,20%)">futhark</text>
<text x="1.652" y="0.966" font-size="0.015762" fill="hsl(120.0,100%,20%)">schenney</text>
<text x="1.775" y="0.822" font-size="0.015762" fill="hsl(120.0,100%,20%)">szager</text>
<text x="0.581" y="0.343" font-size="0.011146" fill="hsl(0.0,100%,20%)">mmenke</text>
<text x="1.694" y="0.791" font-size="0.015762" fill="hsl(120.0,100%,20%)">dbaron</text>
<text x="1.369" y="0.942" font-size="0.022291" fill="hsl(120.0,100%,20%)">dizhangg</text>
<text x="1.898" y="0.197" font-size="0.024922" fill="hsl(0.0,100%,20%)">johnstiles</text>
<text x="1.756" y="0.227" font-size="0.011146" fill="hsl(0.0,100%,20%)">kainino</text>
<text x="1.692" y="0.251" font-size="0.011146" fill="hsl(0.0,100%,20%)">fmalita</text>
<text x="1.895" y="0.322" font-size="0.011146" fill="hsl(0.0,100%,20%)">aaronhk</text>
<text x="1.625" y="0.235" font-size="0.011146" fill="hsl(0.0,100%,20%)">brianosman</text>
<text x="0.898" y="0.692" font-size="0.019305" fill="hsl(120.0,100%,20%)">jpgravel</text>
<text x="0.857" y="0.761" font-size="0.022291" fill="hsl(120.0,100%,20%)">wangxianzhu</text>
<text x="0.928" y="0.654" font-size="0.011146" fill="hsl(120.0,100%,20%)">yiyix</text>
<text x="0.826" y="0.680" font-size="0.011146" fill="hsl(120.0,100%,20%)">michaelludwig</text>
<text x="0.690" y="0.635" font-size="0.022291" fill="hsl(60.0,100%,20%)">juha.j.vainio</text>
<text x="0.651" y="0.718" font-size="0.015762" fill="hsl(60.0,100%,20%)">raphael.kubo.da.costa</text>
<text x="0.564" y="0.563" font-size="0.011146" fill="hsl(60.0,100%,20%)">guterman</text>
<text x="0.713" y="0.982" font-size="0.029488" fill="hsl(0.0,100%,20%)">kevers</text>
<text x="0.264" y="0.692" font-size="0.015762" fill="hsl(0.0,100%,20%)">mustaq</text>
<text x="0.709" y="0.857" font-size="0.015762" fill="hsl(0.0,100%,20%)">iclelland</text>
<text x="0.821" y="0.864" font-size="0.011146" fill="hsl(0.0,100%,20%)">aleventhal</text>
<text x="0.652" y="0.041" font-size="0.038609" fill="hsl(120.0,100%,20%)">khushalsagar</text>
<text x="0.528" y="0.144" font-size="0.022291" fill="hsl(0.0,100%,20%)">rakina</text>
<text x="0.261" y="0.073" font-size="0.035245" fill="hsl(120.0,100%,20%)">vmpstr</text>
<text x="0.932" y="0.859" font-size="0.015762" fill="hsl(120.0,100%,20%)">tiszka</text>
<text x="0.796" y="0.149" font-size="0.011146" fill="hsl(120.0,100%,20%)">dtapuska</text>
<text x="0.565" y="0.187" font-size="0.019305" fill="hsl(120.0,100%,20%)">bokan</text>
<text x="0.840" y="0.059" font-size="0.011146" fill="hsl(120.0,100%,20%)">joenotcharles</text>
<text x="0.335" y="0.776" font-size="0.029488" fill="hsl(0.0,100%,20%)">lbrady</text>
<text x="0.157" y="0.806" font-size="0.015762" fill="hsl(0.0,100%,20%)">creis</text>
<text x="0.474" y="0.728" font-size="0.011146" fill="hsl(0.0,100%,20%)">jbroman</text>
<text x="0.979" y="0.965" font-size="0.029488" fill="hsl(120.0,100%,20%)">linnan</text>
<text x="0.928" y="0.850" font-size="0.011146" fill="hsl(120.0,100%,20%)">japhet</text>
<text x="1.072" y="0.875" font-size="0.011146" fill="hsl(120.0,100%,20%)">apaseltiner</text>
<text x="0.897" y="0.881" font-size="0.011146" fill="hsl(120.0,100%,20%)">avi</text>
<text x="0.871" y="0.869" font-size="0.011146" fill="hsl(120.0,100%,20%)">anthonygarant</text>
<text x="0.916" y="0.939" font-size="0.011146" fill="hsl(120.0,100%,20%)">alexrudenko</text>
<text x="0.597" y="0.287" font-size="0.019305" fill="hsl(60.0,100%,20%)">mattreynolds</text>
<text x="0.521" y="0.328" font-size="0.011146" fill="hsl(60.0,100%,20%)">rbyers</text>
<text x="1.610" y="0.527" font-size="0.029488" fill="hsl(0.0,100%,20%)">mjwilson</text>
<text x="1.445" y="0.557" font-size="0.011146" fill="hsl(0.0,100%,20%)">ravjit</text>
<text x="1.438" y="0.578" font-size="0.011146" fill="hsl(0.0,100%,20%)">ntfschr</text>
<text x="1.510" y="0.404" font-size="0.011146" fill="hsl(0.0,100%,20%)">sinafirooz</text>
<text x="1.593" y="0.427" font-size="0.011146" fill="hsl(0.0,100%,20%)">hongchan</text>
<text x="1.445" y="0.477" font-size="0.011146" fill="hsl(0.0,100%,20%)">blundell</text>
<text x="1.510" y="0.314" font-size="0.015762" fill="hsl(0.0,100%,20%)">haraken</text>
<text x="1.059" y="0.585" font-size="0.011146" fill="hsl(0.0,100%,20%)">dullweber</text>
<text x="1.279" y="0.698" font-size="0.011146" fill="hsl(0.0,100%,20%)">mathias</text>
<text x="0.334" y="0.167" font-size="0.036966" fill="hsl(120.0,100%,20%)">nrosenthal</text>
<text x="0.436" y="0.101" font-size="0.011146" fill="hsl(120.0,100%,20%)">tiborg</text>
<text x="1.688" y="0.042" font-size="0.019305" fill="hsl(180.0,100%,20%)">saeideid</text>
<text x="1.837" y="0.100" font-size="0.011146" fill="hsl(180.0,100%,20%)">antoniosartori</text>
<text x="1.617" y="0.145" font-size="0.011146" fill="hsl(180.0,100%,20%)">phao</text>
<text x="1.421" y="0.056" font-size="0.011146" fill="hsl(180.0,100%,20%)">mkwst</text>
<text x="0.970" y="0.526" font-size="0.024922" fill="hsl(60.0,100%,20%)">shiyi.zou</text>
<text x="0.896" y="0.570" font-size="0.011146" fill="hsl(60.0,100%,20%)">asully</text>
<text x="1.227" y="0.496" font-size="0.033437" fill="hsl(240.0,100%,20%)">sisidovski</text>
<text x="1.273" y="0.394" font-size="0.022291" fill="hsl(240.0,100%,20%)">chikamune</text>
<text x="1.010" y="0.375" font-size="0.029488" fill="hsl(240.0,100%,20%)">yyanagisawa</text>
<text x="1.234" y="0.313" font-size="0.015762" fill="hsl(240.0,100%,20%)">kouhei</text>
<text x="1.857" y="0.457" font-size="0.035245" fill="hsl(300.0,100%,20%)">snehagarwal</text>
<text x="1.766" y="0.673" font-size="0.024922" fill="hsl(300.0,100%,20%)">estade</text>
<text x="1.883" y="0.564" font-size="0.022291" fill="hsl(300.0,100%,20%)">ayui</text>
<text x="1.933" y="0.661" font-size="0.011146" fill="hsl(300.0,100%,20%)">brandm</text>
<text x="1.695" y="0.355" font-size="0.019305" fill="hsl(0.0,100%,20%)">yuzus</text>
<text x="1.926" y="0.307" font-size="0.011146" fill="hsl(0.0,100%,20%)">fergal</text>
<text x="0.891" y="0.444" font-size="0.015762" fill="hsl(240.0,100%,20%)">nhiroki</text>
</svg>
