<svg width="4000" height="2000" viewBox="-0.025 -0.025 2.05 1.05" xmlns="http://www.w3.org/2000/svg">
  <style>
    path {
      fill: none;
      stroke-linecap: round;
      stroke-opacity: 0.4;
    }

    text {
      text-anchor: middle;
      alignment-baseline: hanging;
    }
  </style>
  <g opacity="0.4">
<path d="M1.941 0.573 Q1.648 0.580 1.598 0.724" stroke="hsl(0.0,100%,35%)" stroke-width="0.00273"></path>
<path d="M1.941 0.573 Q1.776 0.654 1.899 0.753" stroke="hsl(0.0,100%,35%)" stroke-width="0.01912"></path>
<path d="M1.941 0.573 Q1.449 0.354 0.915 0.546" stroke="hsl(0.0,100%,35%)" stroke-width="0.00273"></path>
<path d="M1.941 0.573 Q1.220 0.264 0.459 0.548" stroke="hsl(0.0,100%,35%)" stroke-width="0.01092"></path>
<path d="M1.941 0.573 Q1.878 0.400 1.528 0.393" stroke="hsl(0.0,100%,35%)" stroke-width="0.00819"></path>
<path d="M1.598 0.724 Q1.462 0.603 1.196 0.643" stroke="hsl(180.0,100%,35%)" stroke-width="0.00273"></path>
<path d="M1.598 0.724 Q1.009 0.592 0.623 0.851" stroke="hsl(180.0,100%,35%)" stroke-width="0.01366"></path>
<path d="M0.915 0.546 Q0.685 0.455 0.459 0.548" stroke="hsl(0.0,100%,35%)" stroke-width="0.00546"></path>
<path d="M0.915 0.546 Q1.241 0.846 1.899 0.753" stroke="hsl(0.0,100%,35%)" stroke-width="0.00273"></path>
<path d="M0.915 0.546 Q1.406 0.764 1.941 0.573" stroke="hsl(0.0,100%,35%)" stroke-width="0.00273"></path>
<path d="M0.459 0.548 Q0.119 0.723 0.386 0.927" stroke="hsl(0.0,100%,35%)" stroke-width="0.00273"></path>
<path d="M0.459 0.548 Q0.298 0.732 0.623 0.851" stroke="hsl(0.0,100%,35%)" stroke-width="0.01092"></path>
<path d="M0.459 0.548 Q0.887 0.864 1.598 0.724" stroke="hsl(0.0,100%,35%)" stroke-width="0.01639"></path>
<path d="M0.459 0.548 Q0.692 0.503 0.655 0.379" stroke="hsl(0.0,100%,35%)" stroke-width="0.00819"></path>
<path d="M0.726 0.568 Q0.608 0.504 0.459 0.548" stroke="hsl(0.0,100%,35%)" stroke-width="0.01366"></path>
<path d="M0.726 0.568 Q1.037 0.820 1.598 0.724" stroke="hsl(0.0,100%,35%)" stroke-width="0.01092"></path>
<path d="M1.196 0.643 Q1.332 0.764 1.598 0.724" stroke="hsl(180.0,100%,35%)" stroke-width="0.09832"></path>
<path d="M1.196 0.643 Q0.564 0.623 0.386 0.927" stroke="hsl(180.0,100%,35%)" stroke-width="0.00819"></path>
<path d="M0.623 0.851 Q1.212 0.982 1.598 0.724" stroke="hsl(180.0,100%,35%)" stroke-width="0.01912"></path>
<path d="M0.623 0.851 Q0.784 0.666 0.459 0.548" stroke="hsl(180.0,100%,35%)" stroke-width="0.00546"></path>
<path d="M0.623 0.851 Q1.016 0.622 0.655 0.379" stroke="hsl(180.0,100%,35%)" stroke-width="0.00546"></path>
<path d="M0.623 0.851 Q0.444 0.841 0.386 0.927" stroke="hsl(180.0,100%,35%)" stroke-width="0.01912"></path>
<path d="M0.195 0.910 Q0.456 0.966 0.623 0.851" stroke="hsl(180.0,100%,35%)" stroke-width="0.01639"></path>
<path d="M0.195 0.910 Q0.617 0.781 0.459 0.548" stroke="hsl(180.0,100%,35%)" stroke-width="0.01092"></path>
<path d="M0.195 0.910 Q1.045 1.097 1.598 0.724" stroke="hsl(180.0,100%,35%)" stroke-width="0.01639"></path>
<path d="M0.195 0.910 Q1.275 0.918 1.528 0.393" stroke="hsl(180.0,100%,35%)" stroke-width="0.00273"></path>
<path d="M1.608 0.858 Q1.710 0.789 1.598 0.724" stroke="hsl(180.0,100%,35%)" stroke-width="0.01639"></path>
<path d="M1.608 0.858 Q1.514 0.428 0.655 0.379" stroke="hsl(180.0,100%,35%)" stroke-width="0.00273"></path>
<path d="M1.608 0.858 Q1.282 0.473 0.459 0.548" stroke="hsl(180.0,100%,35%)" stroke-width="0.00273"></path>
<path d="M1.507 0.798 Q1.612 0.779 1.598 0.724" stroke="hsl(0.0,100%,35%)" stroke-width="0.00819"></path>
<path d="M1.507 0.798 Q1.023 0.648 0.623 0.851" stroke="hsl(0.0,100%,35%)" stroke-width="0.00273"></path>
<path d="M1.507 0.798 Q1.183 0.463 0.459 0.548" stroke="hsl(0.0,100%,35%)" stroke-width="0.00546"></path>
</g>
<text x="1.941" y="0.548" font-size="0.049817" fill="hsl(0.0,100%,20%)">aaronwood</text>
<text x="1.598" y="0.672" font-size="0.104637" fill="hsl(180.0,100%,20%)">brettw</text>
<text x="1.899" y="0.736" font-size="0.034174" fill="hsl(0.0,100%,20%)">tmandry</text>
<text x="0.915" y="0.532" font-size="0.027017" fill="hsl(0.0,100%,20%)">paulfaria</text>
<text x="0.459" y="0.512" font-size="0.070452" fill="hsl(0.0,100%,20%)">phosek</text>
<text x="1.528" y="0.381" font-size="0.024165" fill="hsl(0.0,100%,20%)">bwb</text>
<text x="0.726" y="0.549" font-size="0.036247" fill="hsl(0.0,100%,20%)">adetaylor</text>
<text x="1.196" y="0.605" font-size="0.076416" fill="hsl(180.0,100%,20%)">sdefresne</text>
<text x="0.623" y="0.816" font-size="0.070452" fill="hsl(180.0,100%,20%)">scottmg</text>
<text x="0.195" y="0.885" font-size="0.049817" fill="hsl(180.0,100%,20%)">digit</text>
<text x="0.386" y="0.906" font-size="0.040073" fill="hsl(180.0,100%,20%)">thakis</text>
<text x="0.655" y="0.365" font-size="0.029596" fill="hsl(180.0,100%,20%)">dpranke</text>
<text x="1.608" y="0.841" font-size="0.034174" fill="hsl(180.0,100%,20%)">rjascani</text>
<text x="1.507" y="0.783" font-size="0.029596" fill="hsl(0.0,100%,20%)">shayba</text>
</svg>
