<svg width="4000" height="2000" viewBox="-0.025 -0.025 2.05 1.05" xmlns="http://www.w3.org/2000/svg">
  <style>
    path {
      fill: none;
      stroke-linecap: round;
      stroke-opacity: 0.4;
    }

    text {
      text-anchor: middle;
      alignment-baseline: hanging;
    }
  </style>
  <g opacity="0.4">
<path d="M0.785 0.283 Q0.581 0.416 0.796 0.545" stroke="hsl(0.0,100%,35%)" stroke-width="0.00408"></path>
<path d="M0.785 0.283 Q0.827 0.386 1.038 0.388" stroke="hsl(0.0,100%,35%)" stroke-width="0.02445"></path>
<path d="M0.785 0.283 Q1.006 0.467 1.414 0.399" stroke="hsl(0.0,100%,35%)" stroke-width="0.00408"></path>
<path d="M0.785 0.283 Q0.529 0.594 1.080 0.786" stroke="hsl(0.0,100%,35%)" stroke-width="0.00815"></path>
<path d="M0.785 0.283 Q0.677 0.547 1.171 0.658" stroke="hsl(0.0,100%,35%)" stroke-width="0.00408"></path>
<path d="M0.785 0.283 Q0.241 0.634 0.807 0.976" stroke="hsl(0.0,100%,35%)" stroke-width="0.00408"></path>
<path d="M1.038 0.388 Q0.741 0.596 1.080 0.786" stroke="hsl(0.0,100%,35%)" stroke-width="0.02038"></path>
<path d="M1.038 0.388 Q0.689 0.668 1.159 0.901" stroke="hsl(0.0,100%,35%)" stroke-width="0.00408"></path>
<path d="M1.038 0.388 Q0.724 0.189 0.266 0.299" stroke="hsl(0.0,100%,35%)" stroke-width="0.00408"></path>
<path d="M1.038 0.388 Q0.452 0.636 0.807 0.976" stroke="hsl(0.0,100%,35%)" stroke-width="0.00408"></path>
<path d="M1.080 0.786 Q1.028 0.859 1.159 0.901" stroke="hsl(0.0,100%,35%)" stroke-width="0.03260"></path>
<path d="M1.080 0.786 Q1.378 0.579 1.038 0.388" stroke="hsl(0.0,100%,35%)" stroke-width="0.02038"></path>
<path d="M1.080 0.786 Q1.228 0.740 1.171 0.658" stroke="hsl(0.0,100%,35%)" stroke-width="0.00815"></path>
<path d="M1.171 0.658 Q1.320 0.497 1.038 0.388" stroke="hsl(0.0,100%,35%)" stroke-width="0.01630"></path>
<path d="M1.171 0.658 Q0.734 0.744 0.807 0.976" stroke="hsl(0.0,100%,35%)" stroke-width="0.00408"></path>
<path d="M1.171 0.658 Q0.794 0.455 0.315 0.594" stroke="hsl(0.0,100%,35%)" stroke-width="0.00408"></path>
<path d="M1.171 0.658 Q1.022 0.704 1.080 0.786" stroke="hsl(0.0,100%,35%)" stroke-width="0.02038"></path>
<path d="M1.171 0.658 Q0.970 0.777 1.159 0.901" stroke="hsl(0.0,100%,35%)" stroke-width="0.00408"></path>
<path d="M0.807 0.976 Q1.095 0.936 1.080 0.786" stroke="hsl(0.0,100%,35%)" stroke-width="0.05706"></path>
<path d="M0.807 0.976 Q1.393 0.728 1.038 0.388" stroke="hsl(0.0,100%,35%)" stroke-width="0.02853"></path>
<path d="M0.807 0.976 Q1.044 1.009 1.159 0.901" stroke="hsl(0.0,100%,35%)" stroke-width="0.00815"></path>
<path d="M0.807 0.976 Q1.244 0.890 1.171 0.658" stroke="hsl(0.0,100%,35%)" stroke-width="0.03668"></path>
<path d="M0.807 0.976 Q0.777 0.813 0.452 0.793" stroke="hsl(0.0,100%,35%)" stroke-width="0.00815"></path>
<path d="M0.709 0.440 Q0.915 0.480 1.038 0.388" stroke="hsl(0.0,100%,35%)" stroke-width="0.00815"></path>
<path d="M0.709 0.440 Q0.617 0.687 1.080 0.786" stroke="hsl(0.0,100%,35%)" stroke-width="0.00408"></path>
<path d="M0.709 0.440 Q0.765 0.641 1.171 0.658" stroke="hsl(0.0,100%,35%)" stroke-width="0.00408"></path>
</g>
<text x="0.785" y="0.256" font-size="0.053137" fill="hsl(0.0,100%,20%)">aaronwood</text>
<text x="0.796" y="0.537" font-size="0.015339" fill="hsl(0.0,100%,20%)">computerdruid</text>
<text x="1.038" y="0.345" font-size="0.086772" fill="hsl(0.0,100%,20%)">brettw</text>
<text x="1.414" y="0.392" font-size="0.015339" fill="hsl(0.0,100%,20%)">tmandry</text>
<text x="1.080" y="0.737" font-size="0.099410" fill="hsl(0.0,100%,20%)">tikuta</text>
<text x="1.171" y="0.620" font-size="0.076697" fill="hsl(0.0,100%,20%)">sdefresne</text>
<text x="0.807" y="0.930" font-size="0.093305" fill="hsl(0.0,100%,20%)">digit</text>
<text x="1.159" y="0.874" font-size="0.053137" fill="hsl(0.0,100%,20%)">phosek</text>
<text x="0.266" y="0.291" font-size="0.015339" fill="hsl(0.0,100%,20%)">thakis</text>
<text x="0.452" y="0.782" font-size="0.021693" fill="hsl(0.0,100%,20%)">danakj</text>
<text x="0.709" y="0.424" font-size="0.030679" fill="hsl(0.0,100%,20%)">mfarazma</text>
<text x="0.315" y="0.586" font-size="0.015339" fill="hsl(0.0,100%,20%)">justincohen</text>
</svg>
