<svg width="4000" height="2000" viewBox="-0.025 -0.025 2.05 1.05" xmlns="http://www.w3.org/2000/svg">
  <style>
    path {
      fill: none;
      stroke-linecap: round;
      stroke-opacity: 0.4;
    }

    text {
      text-anchor: middle;
      alignment-baseline: hanging;
    }
  </style>
  <g opacity="0.4">
<path d="M0.221 0.570 Q0.281 0.519 0.195 0.479" stroke="hsl(0.0,100%,35%)" stroke-width="0.01364"></path>
<path d="M0.221 0.570 Q0.833 1.026 1.856 0.828" stroke="hsl(0.0,100%,35%)" stroke-width="0.01364"></path>
<path d="M0.221 0.570 Q0.527 1.029 1.490 0.981" stroke="hsl(0.0,100%,35%)" stroke-width="0.00682"></path>
<path d="M0.221 0.570 Q0.427 0.660 0.647 0.579" stroke="hsl(0.0,100%,35%)" stroke-width="0.00682"></path>
<path d="M1.856 0.828 Q1.285 0.754 1.016 1.017" stroke="hsl(0.0,100%,35%)" stroke-width="0.04091"></path>
<path d="M1.856 0.828 Q1.551 0.831 1.490 0.981" stroke="hsl(0.0,100%,35%)" stroke-width="0.05455"></path>
<path d="M1.856 0.828 Q1.707 0.505 1.046 0.507" stroke="hsl(0.0,100%,35%)" stroke-width="0.00682"></path>
<path d="M1.856 0.828 Q1.304 0.321 0.195 0.479" stroke="hsl(0.0,100%,35%)" stroke-width="0.02045"></path>
<path d="M1.490 0.981 Q1.796 0.977 1.856 0.828" stroke="hsl(0.0,100%,35%)" stroke-width="0.06136"></path>
<path d="M1.490 0.981 Q1.244 0.471 0.195 0.479" stroke="hsl(0.0,100%,35%)" stroke-width="0.01364"></path>
<path d="M1.490 0.981 Q1.647 0.655 1.046 0.507" stroke="hsl(0.0,100%,35%)" stroke-width="0.00682"></path>
<path d="M1.204 0.839 Q1.233 0.967 1.490 0.981" stroke="hsl(0.0,100%,35%)" stroke-width="0.01364"></path>
<path d="M1.204 0.839 Q0.967 0.890 1.016 1.017" stroke="hsl(0.0,100%,35%)" stroke-width="0.00682"></path>
<path d="M1.204 0.839 Q0.987 0.457 0.195 0.479" stroke="hsl(0.0,100%,35%)" stroke-width="0.00682"></path>
<path d="M1.361 0.510 Q1.355 0.768 1.856 0.828" stroke="hsl(0.0,100%,35%)" stroke-width="0.01364"></path>
<path d="M1.361 0.510 Q0.803 0.261 0.195 0.479" stroke="hsl(0.0,100%,35%)" stroke-width="0.00682"></path>
<path d="M1.361 0.510 Q1.206 0.446 1.046 0.507" stroke="hsl(0.0,100%,35%)" stroke-width="0.00682"></path>
</g>
<text x="0.221" y="0.544" font-size="0.052223" fill="hsl(0.0,100%,20%)">danakj</text>
<text x="0.195" y="0.447" font-size="0.063960" fill="hsl(0.0,100%,20%)">brettw</text>
<text x="1.856" y="0.768" font-size="0.118705" fill="hsl(0.0,100%,20%)">tikuta</text>
<text x="1.490" y="0.929" font-size="0.102247" fill="hsl(0.0,100%,20%)">digit</text>
<text x="0.647" y="0.568" font-size="0.021320" fill="hsl(0.0,100%,20%)">tmandry</text>
<text x="1.046" y="0.489" font-size="0.036927" fill="hsl(0.0,100%,20%)">sdefresne</text>
<text x="1.204" y="0.817" font-size="0.042640" fill="hsl(0.0,100%,20%)">dpranke</text>
<text x="1.016" y="0.989" font-size="0.056408" fill="hsl(0.0,100%,20%)">phosek</text>
<text x="1.361" y="0.489" font-size="0.042640" fill="hsl(0.0,100%,20%)">thakis</text>
</svg>
