<svg width="4000" height="2000" viewBox="-0.025 -0.025 2.05 1.05" xmlns="http://www.w3.org/2000/svg">
  <style>
    path {
      fill: none;
      stroke-linecap: round;
      stroke-opacity: 0.4;
    }

    text {
      text-anchor: middle;
      alignment-baseline: hanging;
    }
  </style>
  <g opacity="0.4">
<path d="M0.990 0.705 Q1.068 0.778 1.227 0.756" stroke="hsl(0.0,100%,35%)" stroke-width="0.00337"></path>
<path d="M0.990 0.705 Q0.849 0.811 1.026 0.904" stroke="hsl(0.0,100%,35%)" stroke-width="0.02023"></path>
<path d="M0.990 0.705 Q1.231 0.694 1.264 0.574" stroke="hsl(0.0,100%,35%)" stroke-width="0.00337"></path>
<path d="M0.990 0.705 Q1.060 0.523 0.720 0.449" stroke="hsl(0.0,100%,35%)" stroke-width="0.00674"></path>
<path d="M0.990 0.705 Q1.281 0.446 0.839 0.247" stroke="hsl(0.0,100%,35%)" stroke-width="0.00337"></path>
<path d="M0.990 0.705 Q1.311 0.535 1.050 0.342" stroke="hsl(0.0,100%,35%)" stroke-width="0.00337"></path>
<path d="M1.026 0.904 Q0.912 0.585 0.266 0.571" stroke="hsl(0.0,100%,35%)" stroke-width="0.00337"></path>
<path d="M1.026 0.904 Q1.237 0.615 0.720 0.449" stroke="hsl(0.0,100%,35%)" stroke-width="0.01348"></path>
<path d="M1.026 0.904 Q0.920 0.776 0.648 0.800" stroke="hsl(0.0,100%,35%)" stroke-width="0.00337"></path>
<path d="M1.026 0.904 Q1.488 0.627 1.050 0.342" stroke="hsl(0.0,100%,35%)" stroke-width="0.00337"></path>
<path d="M0.720 0.449 Q0.396 0.419 0.266 0.571" stroke="hsl(0.0,100%,35%)" stroke-width="0.02697"></path>
<path d="M0.720 0.449 Q0.509 0.737 1.026 0.904" stroke="hsl(0.0,100%,35%)" stroke-width="0.03034"></path>
<path d="M0.720 0.449 Q0.941 0.372 0.839 0.247" stroke="hsl(0.0,100%,35%)" stroke-width="0.00674"></path>
<path d="M0.839 0.247 Q0.408 0.613 1.026 0.904" stroke="hsl(0.0,100%,35%)" stroke-width="0.01685"></path>
<path d="M0.839 0.247 Q0.869 0.337 1.050 0.342" stroke="hsl(0.0,100%,35%)" stroke-width="0.00674"></path>
<path d="M0.839 0.247 Q1.138 0.314 1.334 0.184" stroke="hsl(0.0,100%,35%)" stroke-width="0.00337"></path>
<path d="M0.839 0.247 Q0.619 0.324 0.720 0.449" stroke="hsl(0.0,100%,35%)" stroke-width="0.01685"></path>
<path d="M0.839 0.247 Q0.294 0.294 0.266 0.571" stroke="hsl(0.0,100%,35%)" stroke-width="0.01348"></path>
<path d="M1.050 0.342 Q0.800 0.329 0.720 0.449" stroke="hsl(0.0,100%,35%)" stroke-width="0.04719"></path>
<path d="M1.050 0.342 Q0.589 0.618 1.026 0.904" stroke="hsl(0.0,100%,35%)" stroke-width="0.02023"></path>
<path d="M1.050 0.342 Q0.475 0.299 0.266 0.571" stroke="hsl(0.0,100%,35%)" stroke-width="0.01011"></path>
<path d="M1.050 0.342 Q1.020 0.252 0.839 0.247" stroke="hsl(0.0,100%,35%)" stroke-width="0.04382"></path>
<path d="M1.050 0.342 Q1.089 0.455 1.319 0.461" stroke="hsl(0.0,100%,35%)" stroke-width="0.00674"></path>
<path d="M1.050 0.342 Q0.482 0.490 0.648 0.800" stroke="hsl(0.0,100%,35%)" stroke-width="0.00337"></path>
<path d="M0.268 0.253 Q0.127 0.730 1.026 0.904" stroke="hsl(0.0,100%,35%)" stroke-width="0.00337"></path>
<path d="M0.268 0.253 Q0.440 0.265 0.501 0.184" stroke="hsl(0.0,100%,35%)" stroke-width="0.00337"></path>
<path d="M0.268 0.253 Q0.013 0.411 0.266 0.571" stroke="hsl(0.0,100%,35%)" stroke-width="0.00337"></path>
<path d="M1.319 0.461 Q1.201 0.507 1.264 0.574" stroke="hsl(0.0,100%,35%)" stroke-width="0.01011"></path>
<path d="M1.319 0.461 Q0.819 0.624 1.026 0.904" stroke="hsl(0.0,100%,35%)" stroke-width="0.01685"></path>
<path d="M1.319 0.461 Q1.281 0.348 1.050 0.342" stroke="hsl(0.0,100%,35%)" stroke-width="0.00674"></path>
<path d="M0.737 0.579 Q0.622 0.799 1.026 0.904" stroke="hsl(0.0,100%,35%)" stroke-width="0.00674"></path>
<path d="M0.737 0.579 Q0.833 0.510 0.720 0.449" stroke="hsl(0.0,100%,35%)" stroke-width="0.00337"></path>
<path d="M0.737 0.579 Q1.054 0.433 0.839 0.247" stroke="hsl(0.0,100%,35%)" stroke-width="0.00337"></path>
</g>
<text x="0.990" y="0.682" font-size="0.046499" fill="hsl(0.0,100%,20%)">aaronwood</text>
<text x="1.227" y="0.749" font-size="0.013423" fill="hsl(0.0,100%,20%)">computerdruid</text>
<text x="1.026" y="0.861" font-size="0.085950" fill="hsl(0.0,100%,20%)">brettw</text>
<text x="1.264" y="0.561" font-size="0.026846" fill="hsl(0.0,100%,20%)">tmandry</text>
<text x="0.720" y="0.404" font-size="0.090045" fill="hsl(0.0,100%,20%)">tikuta</text>
<text x="0.839" y="0.208" font-size="0.078270" fill="hsl(0.0,100%,20%)">sdefresne</text>
<text x="1.050" y="0.297" font-size="0.090045" fill="hsl(0.0,100%,20%)">digit</text>
<text x="0.268" y="0.241" font-size="0.023250" fill="hsl(0.0,100%,20%)">andrewsavage</text>
<text x="0.501" y="0.177" font-size="0.013423" fill="hsl(0.0,100%,20%)">mcgrathr</text>
<text x="0.266" y="0.543" font-size="0.055345" fill="hsl(0.0,100%,20%)">phosek</text>
<text x="0.648" y="0.791" font-size="0.018983" fill="hsl(0.0,100%,20%)">thakis</text>
<text x="1.319" y="0.438" font-size="0.046499" fill="hsl(0.0,100%,20%)">danakj</text>
<text x="0.737" y="0.565" font-size="0.026846" fill="hsl(0.0,100%,20%)">mfarazma</text>
<text x="1.334" y="0.177" font-size="0.013423" fill="hsl(0.0,100%,20%)">justincohen</text>
</svg>
