<svg width="4000" height="2000" viewBox="-0.025 -0.025 2.05 1.05" xmlns="http://www.w3.org/2000/svg">
  <style>
    path {
      fill: none;
      stroke-linecap: round;
      stroke-opacity: 0.4;
    }

    text {
      text-anchor: middle;
      alignment-baseline: hanging;
    }
  </style>
  <g opacity="0.4">
<path d="M0.793 0.735 Q0.650 0.602 0.358 0.643" stroke="hsl(0.0,100%,35%)" stroke-width="0.00329"></path>
<path d="M0.793 0.735 Q0.872 0.625 0.673 0.562" stroke="hsl(0.0,100%,35%)" stroke-width="0.03294"></path>
<path d="M0.793 0.735 Q1.017 0.728 1.052 0.617" stroke="hsl(0.0,100%,35%)" stroke-width="0.00329"></path>
<path d="M0.793 0.735 Q1.199 0.523 0.874 0.278" stroke="hsl(0.0,100%,35%)" stroke-width="0.00329"></path>
<path d="M0.793 0.735 Q1.105 0.650 1.006 0.479" stroke="hsl(0.0,100%,35%)" stroke-width="0.00329"></path>
<path d="M0.673 0.562 Q0.595 0.673 0.793 0.735" stroke="hsl(0.0,100%,35%)" stroke-width="0.00659"></path>
<path d="M0.673 0.562 Q0.819 0.666 1.052 0.617" stroke="hsl(0.0,100%,35%)" stroke-width="0.00329"></path>
<path d="M0.673 0.562 Q0.451 0.539 0.358 0.643" stroke="hsl(0.0,100%,35%)" stroke-width="0.00329"></path>
<path d="M1.052 0.617 Q0.907 0.514 0.673 0.562" stroke="hsl(0.0,100%,35%)" stroke-width="0.01647"></path>
<path d="M1.052 0.617 Q1.162 0.923 1.783 0.937" stroke="hsl(0.0,100%,35%)" stroke-width="0.00329"></path>
<path d="M1.052 0.617 Q0.828 0.625 0.793 0.735" stroke="hsl(0.0,100%,35%)" stroke-width="0.05270"></path>
<path d="M1.052 0.617 Q1.140 0.539 1.006 0.479" stroke="hsl(0.0,100%,35%)" stroke-width="0.00988"></path>
<path d="M1.006 0.479 Q0.694 0.564 0.793 0.735" stroke="hsl(0.0,100%,35%)" stroke-width="0.08565"></path>
<path d="M1.006 0.479 Q0.918 0.557 1.052 0.617" stroke="hsl(0.0,100%,35%)" stroke-width="0.00329"></path>
<path d="M1.006 0.479 Q0.773 0.454 0.673 0.562" stroke="hsl(0.0,100%,35%)" stroke-width="0.00659"></path>
<path d="M1.006 0.479 Q1.100 0.352 0.874 0.278" stroke="hsl(0.0,100%,35%)" stroke-width="0.00329"></path>
<path d="M1.006 0.479 Q1.028 0.863 1.783 0.937" stroke="hsl(0.0,100%,35%)" stroke-width="0.00329"></path>
<path d="M0.393 0.509 Q0.412 0.702 0.793 0.735" stroke="hsl(0.0,100%,35%)" stroke-width="0.01318"></path>
<path d="M0.393 0.509 Q0.724 0.616 1.006 0.479" stroke="hsl(0.0,100%,35%)" stroke-width="0.00659"></path>
<path d="M0.393 0.509 Q0.491 0.592 0.673 0.562" stroke="hsl(0.0,100%,35%)" stroke-width="0.00329"></path>
<path d="M1.921 0.651 Q1.289 0.467 0.793 0.735" stroke="hsl(0.0,100%,35%)" stroke-width="0.01318"></path>
<path d="M1.921 0.651 Q1.368 0.357 0.673 0.562" stroke="hsl(0.0,100%,35%)" stroke-width="0.01318"></path>
<path d="M1.921 0.651 Q1.623 0.766 1.783 0.937" stroke="hsl(0.0,100%,35%)" stroke-width="0.00988"></path>
<path d="M1.650 0.409 Q0.960 0.400 0.793 0.735" stroke="hsl(0.0,100%,35%)" stroke-width="0.00659"></path>
<path d="M1.650 0.409 Q0.817 0.267 0.358 0.643" stroke="hsl(0.0,100%,35%)" stroke-width="0.00329"></path>
<path d="M1.650 0.409 Q1.184 0.393 1.052 0.617" stroke="hsl(0.0,100%,35%)" stroke-width="0.00329"></path>
</g>
<text x="0.793" y="0.676" font-size="0.119024" fill="hsl(0.0,100%,20%)">brettw</text>
<text x="0.358" y="0.630" font-size="0.025000" fill="hsl(0.0,100%,20%)">thakis</text>
<text x="0.673" y="0.526" font-size="0.073598" fill="hsl(0.0,100%,20%)">scottmg</text>
<text x="1.052" y="0.579" font-size="0.077728" fill="hsl(0.0,100%,20%)">phosek</text>
<text x="0.874" y="0.268" font-size="0.020412" fill="hsl(0.0,100%,20%)">thomasanderson</text>
<text x="1.006" y="0.435" font-size="0.087797" fill="hsl(0.0,100%,20%)">juliehockett</text>
<text x="0.393" y="0.490" font-size="0.038188" fill="hsl(0.0,100%,20%)">haowei</text>
<text x="1.921" y="0.627" font-size="0.047871" fill="hsl(0.0,100%,20%)">joearmstrong334</text>
<text x="1.783" y="0.921" font-size="0.032275" fill="hsl(0.0,100%,20%)">dpranke</text>
<text x="1.650" y="0.394" font-size="0.028868" fill="hsl(0.0,100%,20%)">raphael.kubo.da.costa</text>
</svg>
