<svg width="4000" height="2000" viewBox="-0.025 -0.025 2.05 1.05" xmlns="http://www.w3.org/2000/svg">
  <style>
    path {
      fill: none;
      stroke-linecap: round;
      stroke-opacity: 0.4;
    }

    text {
      text-anchor: middle;
      alignment-baseline: hanging;
    }
  </style>
  <g opacity="0.4">
<path d="M0.773 0.517 Q0.398 0.751 0.774 0.985" stroke="hsl(0.0,100%,35%)" stroke-width="0.00298"></path>
<path d="M0.773 0.517 Q1.217 0.532 1.344 0.319" stroke="hsl(0.0,100%,35%)" stroke-width="0.02086"></path>
<path d="M0.773 0.517 Q1.022 0.889 1.803 0.849" stroke="hsl(0.0,100%,35%)" stroke-width="0.00298"></path>
<path d="M0.773 0.517 Q0.679 0.905 1.416 1.036" stroke="hsl(0.0,100%,35%)" stroke-width="0.01192"></path>
<path d="M0.773 0.517 Q1.112 0.410 0.978 0.222" stroke="hsl(0.0,100%,35%)" stroke-width="0.00894"></path>
<path d="M0.774 0.985 Q1.252 0.838 1.069 0.572" stroke="hsl(180.0,100%,35%)" stroke-width="0.00298"></path>
<path d="M0.774 0.985 Q0.690 0.880 0.466 0.898" stroke="hsl(180.0,100%,35%)" stroke-width="0.00298"></path>
<path d="M0.774 0.985 Q1.273 0.620 0.669 0.296" stroke="hsl(180.0,100%,35%)" stroke-width="0.01490"></path>
<path d="M1.803 0.849 Q1.460 0.865 1.416 1.036" stroke="hsl(0.0,100%,35%)" stroke-width="0.00596"></path>
<path d="M1.803 0.849 Q1.997 0.492 1.344 0.319" stroke="hsl(0.0,100%,35%)" stroke-width="0.00298"></path>
<path d="M1.803 0.849 Q1.553 0.477 0.773 0.517" stroke="hsl(0.0,100%,35%)" stroke-width="0.00298"></path>
<path d="M1.416 1.036 Q1.613 0.735 1.069 0.572" stroke="hsl(0.0,100%,35%)" stroke-width="0.00298"></path>
<path d="M1.416 1.036 Q1.634 0.517 0.669 0.296" stroke="hsl(0.0,100%,35%)" stroke-width="0.01192"></path>
<path d="M1.416 1.036 Q1.135 0.882 0.774 0.985" stroke="hsl(0.0,100%,35%)" stroke-width="0.01788"></path>
<path d="M1.416 1.036 Q1.600 0.414 0.427 0.188" stroke="hsl(0.0,100%,35%)" stroke-width="0.00894"></path>
<path d="M0.466 0.898 Q0.550 1.003 0.774 0.985" stroke="hsl(180.0,100%,35%)" stroke-width="0.09535"></path>
<path d="M0.466 0.898 Q1.029 0.856 1.069 0.572" stroke="hsl(180.0,100%,35%)" stroke-width="0.00596"></path>
<path d="M0.669 0.296 Q0.170 0.662 0.774 0.985" stroke="hsl(0.0,100%,35%)" stroke-width="0.01788"></path>
<path d="M0.669 0.296 Q0.451 0.815 1.416 1.036" stroke="hsl(0.0,100%,35%)" stroke-width="0.00596"></path>
<path d="M0.669 0.296 Q0.635 0.194 0.427 0.188" stroke="hsl(0.0,100%,35%)" stroke-width="0.00596"></path>
<path d="M0.669 0.296 Q0.648 0.514 1.069 0.572" stroke="hsl(0.0,100%,35%)" stroke-width="0.00596"></path>
<path d="M0.404 0.322 Q0.557 0.362 0.669 0.296" stroke="hsl(0.0,100%,35%)" stroke-width="0.01788"></path>
<path d="M0.404 0.322 Q0.339 0.881 1.416 1.036" stroke="hsl(0.0,100%,35%)" stroke-width="0.01192"></path>
<path d="M0.404 0.322 Q0.058 0.728 0.774 0.985" stroke="hsl(0.0,100%,35%)" stroke-width="0.01788"></path>
<path d="M0.404 0.322 Q0.771 0.387 0.978 0.222" stroke="hsl(0.0,100%,35%)" stroke-width="0.00298"></path>
<path d="M0.427 0.188 Q-0.038 0.656 0.774 0.985" stroke="hsl(0.0,100%,35%)" stroke-width="0.00298"></path>
<path d="M0.427 0.188 Q0.461 0.290 0.669 0.296" stroke="hsl(0.0,100%,35%)" stroke-width="0.00298"></path>
<path d="M0.427 0.188 Q0.243 0.809 1.416 1.036" stroke="hsl(0.0,100%,35%)" stroke-width="0.00298"></path>
<path d="M0.737 0.746 Q0.564 0.873 0.774 0.985" stroke="hsl(180.0,100%,35%)" stroke-width="0.01788"></path>
<path d="M0.737 0.746 Q1.029 0.405 0.427 0.188" stroke="hsl(180.0,100%,35%)" stroke-width="0.00298"></path>
<path d="M0.737 0.746 Q0.844 1.026 1.416 1.036" stroke="hsl(180.0,100%,35%)" stroke-width="0.00298"></path>
<path d="M1.011 0.729 Q0.687 0.810 0.774 0.985" stroke="hsl(180.0,100%,35%)" stroke-width="0.00894"></path>
<path d="M1.011 0.729 Q1.186 0.444 0.669 0.296" stroke="hsl(180.0,100%,35%)" stroke-width="0.00298"></path>
<path d="M1.011 0.729 Q0.968 0.963 1.416 1.036" stroke="hsl(180.0,100%,35%)" stroke-width="0.00596"></path>
</g>
<text x="0.773" y="0.490" font-size="0.053009" fill="hsl(0.0,100%,20%)">aaronwood</text>
<text x="0.774" y="0.932" font-size="0.106017" fill="hsl(180.0,100%,20%)">brettw</text>
<text x="1.344" y="0.301" font-size="0.036364" fill="hsl(0.0,100%,20%)">tmandry</text>
<text x="1.803" y="0.835" font-size="0.028748" fill="hsl(0.0,100%,20%)">paulfaria</text>
<text x="1.416" y="1.001" font-size="0.070418" fill="hsl(0.0,100%,20%)">phosek</text>
<text x="0.978" y="0.209" font-size="0.025713" fill="hsl(0.0,100%,20%)">bwb</text>
<text x="1.069" y="0.556" font-size="0.031492" fill="hsl(180.0,100%,20%)">thakis</text>
<text x="0.466" y="0.860" font-size="0.076060" fill="hsl(180.0,100%,20%)">sdefresne</text>
<text x="0.669" y="0.262" font-size="0.069234" fill="hsl(0.0,100%,20%)">scottmg</text>
<text x="0.404" y="0.296" font-size="0.053009" fill="hsl(0.0,100%,20%)">digit</text>
<text x="0.427" y="0.168" font-size="0.038569" fill="hsl(0.0,100%,20%)">dpranke</text>
<text x="0.737" y="0.727" font-size="0.036364" fill="hsl(180.0,100%,20%)">rjascani</text>
<text x="1.011" y="0.713" font-size="0.031492" fill="hsl(180.0,100%,20%)">shayba</text>
</svg>
