<svg width="4000" height="2000" viewBox="-0.025 -0.025 2.05 1.05" xmlns="http://www.w3.org/2000/svg">
  <style>
    path {
      fill: none;
      stroke-linecap: round;
      stroke-opacity: 0.4;
    }

    text {
      text-anchor: middle;
      alignment-baseline: hanging;
    }
  </style>
  <g opacity="0.4">
<path d="M1.132 0.389 Q1.103 0.271 0.866 0.259" stroke="hsl(0.0,100%,35%)" stroke-width="0.02412"></path>
<path d="M1.132 0.389 Q1.216 0.566 1.580 0.564" stroke="hsl(0.0,100%,35%)" stroke-width="0.01809"></path>
<path d="M1.132 0.389 Q1.284 0.361 1.264 0.281" stroke="hsl(0.0,100%,35%)" stroke-width="0.01809"></path>
<path d="M0.680 0.838 Q0.743 0.777 0.639 0.733" stroke="hsl(180.0,100%,35%)" stroke-width="0.08442"></path>
<path d="M0.680 0.838 Q0.994 0.911 1.204 0.773" stroke="hsl(180.0,100%,35%)" stroke-width="0.00603"></path>
<path d="M0.680 0.838 Q1.236 0.586 0.866 0.259" stroke="hsl(180.0,100%,35%)" stroke-width="0.00603"></path>
<path d="M0.639 0.733 Q0.464 0.848 0.650 0.959" stroke="hsl(180.0,100%,35%)" stroke-width="0.01206"></path>
<path d="M0.639 0.733 Q0.889 0.866 1.204 0.773" stroke="hsl(180.0,100%,35%)" stroke-width="0.04221"></path>
<path d="M0.639 0.733 Q0.575 0.794 0.680 0.838" stroke="hsl(180.0,100%,35%)" stroke-width="0.03015"></path>
<path d="M0.639 0.733 Q1.131 0.542 0.866 0.259" stroke="hsl(180.0,100%,35%)" stroke-width="0.00603"></path>
<path d="M0.313 0.761 Q0.498 0.812 0.639 0.733" stroke="hsl(180.0,100%,35%)" stroke-width="0.03015"></path>
<path d="M0.313 0.761 Q1.172 0.711 1.264 0.281" stroke="hsl(180.0,100%,35%)" stroke-width="0.00603"></path>
<path d="M0.313 0.761 Q0.990 0.620 0.866 0.259" stroke="hsl(180.0,100%,35%)" stroke-width="0.00603"></path>
<path d="M0.313 0.761 Q0.434 0.873 0.680 0.838" stroke="hsl(180.0,100%,35%)" stroke-width="0.02412"></path>
<path d="M1.537 0.751 Q1.038 0.623 0.680 0.838" stroke="hsl(180.0,100%,35%)" stroke-width="0.00603"></path>
<path d="M1.537 0.751 Q1.537 0.836 1.703 0.855" stroke="hsl(180.0,100%,35%)" stroke-width="0.00603"></path>
<path d="M1.537 0.751 Q1.102 0.562 0.639 0.733" stroke="hsl(180.0,100%,35%)" stroke-width="0.00603"></path>
</g>
<text x="1.132" y="0.358" font-size="0.060302" fill="hsl(0.0,100%,20%)">aaronwood</text>
<text x="0.866" y="0.234" font-size="0.050452" fill="hsl(0.0,100%,20%)">phosek</text>
<text x="1.580" y="0.547" font-size="0.033029" fill="hsl(0.0,100%,20%)">tmandry</text>
<text x="1.264" y="0.262" font-size="0.038139" fill="hsl(0.0,100%,20%)">bwb</text>
<text x="0.680" y="0.790" font-size="0.097234" fill="hsl(180.0,100%,20%)">brettw</text>
<text x="0.639" y="0.677" font-size="0.112815" fill="hsl(180.0,100%,20%)">scottmg</text>
<text x="1.204" y="0.746" font-size="0.053936" fill="hsl(180.0,100%,20%)">thakis</text>
<text x="0.313" y="0.729" font-size="0.063246" fill="hsl(180.0,100%,20%)">digit</text>
<text x="1.537" y="0.734" font-size="0.033029" fill="hsl(180.0,100%,20%)">rsesek</text>
<text x="1.703" y="0.845" font-size="0.019069" fill="hsl(180.0,100%,20%)">sdefresne</text>
<text x="0.650" y="0.945" font-size="0.026968" fill="hsl(180.0,100%,20%)">dpranke</text>
</svg>
