<svg width="4000" height="2000" viewBox="-0.025 -0.025 2.05 1.05" xmlns="http://www.w3.org/2000/svg">
  <style>
    path {
      fill: none;
      stroke-linecap: round;
      stroke-opacity: 0.4;
    }

    text {
      text-anchor: middle;
      alignment-baseline: hanging;
    }
  </style>
  <g opacity="0.4">
<path d="M1.322 0.192 Q0.746 0.501 1.222 0.850" stroke="hsl(0.0,100%,35%)" stroke-width="0.00518"></path>
<path d="M1.322 0.192 Q1.305 0.289 1.489 0.318" stroke="hsl(0.0,100%,35%)" stroke-width="0.00518"></path>
<path d="M1.322 0.192 Q1.268 0.452 1.762 0.535" stroke="hsl(0.0,100%,35%)" stroke-width="0.00518"></path>
<path d="M1.222 0.850 Q1.744 0.801 1.762 0.535" stroke="hsl(0.0,100%,35%)" stroke-width="0.01555"></path>
<path d="M1.222 0.850 Q1.461 0.785 1.387 0.654" stroke="hsl(0.0,100%,35%)" stroke-width="0.00518"></path>
<path d="M1.222 0.850 Q1.172 0.632 0.735 0.608" stroke="hsl(0.0,100%,35%)" stroke-width="0.04666"></path>
<path d="M1.762 0.535 Q1.190 0.366 0.735 0.608" stroke="hsl(0.0,100%,35%)" stroke-width="0.01037"></path>
<path d="M1.762 0.535 Q1.240 0.584 1.222 0.850" stroke="hsl(0.0,100%,35%)" stroke-width="0.00518"></path>
<path d="M1.762 0.535 Q1.700 0.639 1.889 0.692" stroke="hsl(0.0,100%,35%)" stroke-width="0.00518"></path>
<path d="M1.762 0.535 Q1.369 0.641 1.489 0.856" stroke="hsl(0.0,100%,35%)" stroke-width="0.00518"></path>
<path d="M0.735 0.608 Q1.024 0.761 1.387 0.654" stroke="hsl(0.0,100%,35%)" stroke-width="0.00518"></path>
<path d="M0.735 0.608 Q0.914 0.883 1.489 0.856" stroke="hsl(0.0,100%,35%)" stroke-width="0.00518"></path>
<path d="M0.735 0.608 Q1.307 0.777 1.762 0.535" stroke="hsl(0.0,100%,35%)" stroke-width="0.01037"></path>
<path d="M0.735 0.608 Q0.911 0.729 1.184 0.669" stroke="hsl(0.0,100%,35%)" stroke-width="0.01037"></path>
<path d="M1.387 0.654 Q1.148 0.719 1.222 0.850" stroke="hsl(0.0,100%,35%)" stroke-width="0.02074"></path>
<path d="M1.387 0.654 Q1.098 0.501 0.735 0.608" stroke="hsl(0.0,100%,35%)" stroke-width="0.09331"></path>
<path d="M1.387 0.654 Q0.907 0.576 0.651 0.793" stroke="hsl(0.0,100%,35%)" stroke-width="0.00518"></path>
<path d="M1.387 0.654 Q1.670 0.670 1.762 0.535" stroke="hsl(0.0,100%,35%)" stroke-width="0.02074"></path>
<path d="M1.387 0.654 Q1.276 0.776 1.489 0.856" stroke="hsl(0.0,100%,35%)" stroke-width="0.00518"></path>
<path d="M0.651 0.793 Q0.841 0.718 0.735 0.608" stroke="hsl(0.0,100%,35%)" stroke-width="0.02074"></path>
<path d="M0.651 0.793 Q1.019 0.993 1.489 0.856" stroke="hsl(0.0,100%,35%)" stroke-width="0.00518"></path>
<path d="M0.651 0.793 Q1.016 0.838 1.184 0.669" stroke="hsl(0.0,100%,35%)" stroke-width="0.00518"></path>
</g>
<text x="1.322" y="0.177" font-size="0.031363" fill="hsl(0.0,100%,20%)">andrewsavage</text>
<text x="1.222" y="0.810" font-size="0.078927" fill="hsl(0.0,100%,20%)">sdefresne</text>
<text x="1.489" y="0.309" font-size="0.018107" fill="hsl(0.0,100%,20%)">mcgrathr</text>
<text x="1.762" y="0.500" font-size="0.070129" fill="hsl(0.0,100%,20%)">phosek</text>
<text x="0.735" y="0.552" font-size="0.113079" fill="hsl(0.0,100%,20%)">brettw</text>
<text x="1.387" y="0.605" font-size="0.099177" fill="hsl(0.0,100%,20%)">digit</text>
<text x="1.489" y="0.838" font-size="0.036214" fill="hsl(0.0,100%,20%)">dpranke</text>
<text x="1.184" y="0.654" font-size="0.031363" fill="hsl(0.0,100%,20%)">scottmg</text>
<text x="0.651" y="0.769" font-size="0.047907" fill="hsl(0.0,100%,20%)">thakis</text>
<text x="1.889" y="0.683" font-size="0.018107" fill="hsl(0.0,100%,20%)">iannucci</text>
</svg>
