<svg width="4000" height="2000" viewBox="-0.025 -0.025 2.05 1.05" xmlns="http://www.w3.org/2000/svg">
  <style>
    path {
      fill: none;
      stroke-linecap: round;
      stroke-opacity: 0.4;
    }

    text {
      text-anchor: middle;
      alignment-baseline: hanging;
    }
  </style>
  <g opacity="0.4">
<path d="M0.546 0.167 Q0.015 0.313 0.182 0.603" stroke="hsl(0.0,100%,35%)" stroke-width="0.01463"></path>
<path d="M0.546 0.167 Q0.642 0.660 1.625 0.722" stroke="hsl(0.0,100%,35%)" stroke-width="0.01463"></path>
<path d="M0.546 0.167 Q0.210 0.696 1.168 0.976" stroke="hsl(0.0,100%,35%)" stroke-width="0.00732"></path>
<path d="M0.546 0.167 Q0.614 0.300 0.888 0.296" stroke="hsl(0.0,100%,35%)" stroke-width="0.00732"></path>
<path d="M1.625 0.722 Q1.047 0.601 0.685 0.856" stroke="hsl(0.0,100%,35%)" stroke-width="0.02195"></path>
<path d="M1.625 0.722 Q1.194 0.757 1.168 0.976" stroke="hsl(0.0,100%,35%)" stroke-width="0.00732"></path>
<path d="M1.625 0.722 Q0.998 0.374 0.182 0.603" stroke="hsl(0.0,100%,35%)" stroke-width="0.01463"></path>
<path d="M1.168 0.976 Q1.600 0.940 1.625 0.722" stroke="hsl(0.0,100%,35%)" stroke-width="0.11707"></path>
<path d="M1.168 0.976 Q0.973 0.592 0.182 0.603" stroke="hsl(0.0,100%,35%)" stroke-width="0.02195"></path>
<path d="M1.168 0.976 Q1.649 0.812 1.436 0.542" stroke="hsl(0.0,100%,35%)" stroke-width="0.00732"></path>
<path d="M0.455 0.530 Q0.456 0.896 1.168 0.976" stroke="hsl(0.0,100%,35%)" stroke-width="0.01463"></path>
<path d="M0.455 0.530 Q0.310 0.739 0.685 0.856" stroke="hsl(0.0,100%,35%)" stroke-width="0.00732"></path>
<path d="M0.455 0.530 Q0.260 0.512 0.182 0.603" stroke="hsl(0.0,100%,35%)" stroke-width="0.01463"></path>
<path d="M0.979 0.752 Q1.327 0.866 1.625 0.722" stroke="hsl(0.0,100%,35%)" stroke-width="0.01463"></path>
<path d="M0.979 0.752 Q0.700 0.518 0.182 0.603" stroke="hsl(0.0,100%,35%)" stroke-width="0.00732"></path>
<path d="M0.979 0.752 Q1.376 0.738 1.436 0.542" stroke="hsl(0.0,100%,35%)" stroke-width="0.00732"></path>
</g>
<text x="0.546" y="0.140" font-size="0.054100" fill="hsl(0.0,100%,20%)">danakj</text>
<text x="0.182" y="0.568" font-size="0.069843" fill="hsl(0.0,100%,20%)">brettw</text>
<text x="1.625" y="0.665" font-size="0.112618" fill="hsl(0.0,100%,20%)">tikuta</text>
<text x="1.168" y="0.922" font-size="0.108200" fill="hsl(0.0,100%,20%)">digit</text>
<text x="0.888" y="0.285" font-size="0.022086" fill="hsl(0.0,100%,20%)">tmandry</text>
<text x="1.436" y="0.526" font-size="0.031235" fill="hsl(0.0,100%,20%)">sdefresne</text>
<text x="0.455" y="0.506" font-size="0.049386" fill="hsl(0.0,100%,20%)">dpranke</text>
<text x="0.685" y="0.834" font-size="0.044173" fill="hsl(0.0,100%,20%)">phosek</text>
<text x="0.979" y="0.730" font-size="0.044173" fill="hsl(0.0,100%,20%)">thakis</text>
</svg>
