<svg width="4000" height="2000" viewBox="-0.025 -0.025 2.05 1.05" xmlns="http://www.w3.org/2000/svg">
  <style>
    path {
      fill: none;
      stroke-linecap: round;
      stroke-opacity: 0.4;
    }

    text {
      text-anchor: middle;
      alignment-baseline: hanging;
    }
  </style>
  <g opacity="0.4">
<path d="M0.617 0.428 Q0.473 0.308 0.207 0.352" stroke="hsl(0.0,100%,35%)" stroke-width="0.01364"></path>
<path d="M0.617 0.428 Q0.722 0.891 1.648 0.941" stroke="hsl(0.0,100%,35%)" stroke-width="0.01364"></path>
<path d="M0.617 0.428 Q0.826 0.712 1.425 0.673" stroke="hsl(0.0,100%,35%)" stroke-width="0.00682"></path>
<path d="M0.617 0.428 Q0.419 0.639 0.788 0.782" stroke="hsl(0.0,100%,35%)" stroke-width="0.00682"></path>
<path d="M1.648 0.941 Q1.903 0.901 1.881 0.768" stroke="hsl(0.0,100%,35%)" stroke-width="0.04091"></path>
<path d="M1.648 0.941 Q1.751 0.763 1.425 0.673" stroke="hsl(0.0,100%,35%)" stroke-width="0.05455"></path>
<path d="M1.648 0.941 Q1.399 0.359 0.207 0.352" stroke="hsl(0.0,100%,35%)" stroke-width="0.02045"></path>
<path d="M1.648 0.941 Q1.073 0.678 0.431 0.900" stroke="hsl(0.0,100%,35%)" stroke-width="0.00682"></path>
<path d="M1.425 0.673 Q1.322 0.852 1.648 0.941" stroke="hsl(0.0,100%,35%)" stroke-width="0.04773"></path>
<path d="M1.425 0.673 Q1.073 0.269 0.207 0.352" stroke="hsl(0.0,100%,35%)" stroke-width="0.02045"></path>
<path d="M1.425 0.673 Q0.746 0.588 0.431 0.900" stroke="hsl(0.0,100%,35%)" stroke-width="0.00682"></path>
<path d="M1.878 0.546 Q1.550 0.519 1.425 0.673" stroke="hsl(0.0,100%,35%)" stroke-width="0.01364"></path>
<path d="M1.878 0.546 Q1.702 0.657 1.881 0.768" stroke="hsl(0.0,100%,35%)" stroke-width="0.00682"></path>
<path d="M1.878 0.546 Q1.198 0.115 0.207 0.352" stroke="hsl(0.0,100%,35%)" stroke-width="0.01364"></path>
<path d="M1.040 0.775 Q1.211 0.980 1.648 0.941" stroke="hsl(0.0,100%,35%)" stroke-width="0.01364"></path>
<path d="M1.040 0.775 Q0.962 0.397 0.207 0.352" stroke="hsl(0.0,100%,35%)" stroke-width="0.00682"></path>
<path d="M1.040 0.775 Q0.635 0.716 0.431 0.900" stroke="hsl(0.0,100%,35%)" stroke-width="0.00682"></path>
</g>
<text x="0.617" y="0.402" font-size="0.052223" fill="hsl(0.0,100%,20%)">danakj</text>
<text x="0.207" y="0.317" font-size="0.070711" fill="hsl(0.0,100%,20%)">brettw</text>
<text x="1.648" y="0.884" font-size="0.114812" fill="hsl(0.0,100%,20%)">tikuta</text>
<text x="1.425" y="0.623" font-size="0.100000" fill="hsl(0.0,100%,20%)">digit</text>
<text x="0.788" y="0.772" font-size="0.021320" fill="hsl(0.0,100%,20%)">tmandry</text>
<text x="0.431" y="0.882" font-size="0.036927" fill="hsl(0.0,100%,20%)">sdefresne</text>
<text x="1.878" y="0.522" font-size="0.047673" fill="hsl(0.0,100%,20%)">dpranke</text>
<text x="1.881" y="0.740" font-size="0.056408" fill="hsl(0.0,100%,20%)">phosek</text>
<text x="1.040" y="0.754" font-size="0.042640" fill="hsl(0.0,100%,20%)">thakis</text>
</svg>
