<svg width="4000" height="2000" viewBox="-0.025 -0.025 2.05 1.05" xmlns="http://www.w3.org/2000/svg">
  <style>
    path {
      fill: none;
      stroke-linecap: round;
      stroke-opacity: 0.4;
    }

    text {
      text-anchor: middle;
      alignment-baseline: hanging;
    }
  </style>
  <g opacity="0.4">
<path d="M0.671 0.622 Q0.590 0.677 0.680 0.729" stroke="hsl(0.0,100%,35%)" stroke-width="0.00658"></path>
<path d="M0.671 0.622 Q0.682 0.762 0.957 0.787" stroke="hsl(0.0,100%,35%)" stroke-width="0.01316"></path>
<path d="M0.671 0.622 Q1.158 0.554 1.133 0.301" stroke="hsl(0.0,100%,35%)" stroke-width="0.01316"></path>
<path d="M0.671 0.622 Q0.915 0.596 0.919 0.472" stroke="hsl(0.0,100%,35%)" stroke-width="0.01316"></path>
<path d="M0.671 0.622 Q1.017 0.680 1.207 0.524" stroke="hsl(0.0,100%,35%)" stroke-width="0.00658"></path>
<path d="M0.680 0.729 Q0.761 0.673 0.671 0.622" stroke="hsl(0.0,100%,35%)" stroke-width="0.09209"></path>
<path d="M0.680 0.729 Q0.772 0.813 0.957 0.787" stroke="hsl(0.0,100%,35%)" stroke-width="0.00658"></path>
<path d="M0.680 0.729 Q1.249 0.605 1.133 0.301" stroke="hsl(0.0,100%,35%)" stroke-width="0.01973"></path>
<path d="M0.680 0.729 Q0.421 0.667 0.244 0.780" stroke="hsl(0.0,100%,35%)" stroke-width="0.01316"></path>
<path d="M0.957 0.787 Q0.946 0.647 0.671 0.622" stroke="hsl(0.0,100%,35%)" stroke-width="0.00658"></path>
<path d="M0.957 0.787 Q1.190 0.621 0.919 0.472" stroke="hsl(0.0,100%,35%)" stroke-width="0.00658"></path>
<path d="M0.957 0.787 Q1.434 0.579 1.133 0.301" stroke="hsl(0.0,100%,35%)" stroke-width="0.00658"></path>
<path d="M1.133 0.301 Q0.645 0.369 0.671 0.622" stroke="hsl(0.0,100%,35%)" stroke-width="0.01316"></path>
<path d="M1.133 0.301 Q0.306 0.363 0.244 0.780" stroke="hsl(0.0,100%,35%)" stroke-width="0.00658"></path>
<path d="M1.133 0.301 Q1.061 0.349 1.138 0.394" stroke="hsl(0.0,100%,35%)" stroke-width="0.00658"></path>
<path d="M1.133 0.301 Q0.657 0.509 0.957 0.787" stroke="hsl(0.0,100%,35%)" stroke-width="0.00658"></path>
<path d="M1.207 0.524 Q0.860 0.466 0.671 0.622" stroke="hsl(0.0,100%,35%)" stroke-width="0.02631"></path>
<path d="M1.207 0.524 Q0.872 0.605 0.957 0.787" stroke="hsl(0.0,100%,35%)" stroke-width="0.00658"></path>
<path d="M1.207 0.524 Q1.105 0.440 0.919 0.472" stroke="hsl(0.0,100%,35%)" stroke-width="0.01316"></path>
</g>
<text x="0.671" y="0.564" font-size="0.116139" fill="hsl(0.0,100%,20%)">brettw</text>
<text x="0.680" y="0.679" font-size="0.098830" fill="hsl(0.0,100%,20%)">digit</text>
<text x="0.957" y="0.756" font-size="0.060999" fill="hsl(0.0,100%,20%)">dpranke</text>
<text x="1.133" y="0.265" font-size="0.071528" fill="hsl(0.0,100%,20%)">phosek</text>
<text x="0.919" y="0.447" font-size="0.048224" fill="hsl(0.0,100%,20%)">scottmg</text>
<text x="1.207" y="0.493" font-size="0.060999" fill="hsl(0.0,100%,20%)">thakis</text>
<text x="0.244" y="0.761" font-size="0.037354" fill="hsl(0.0,100%,20%)">sdefresne</text>
<text x="1.138" y="0.383" font-size="0.021567" fill="hsl(0.0,100%,20%)">iannucci</text>
</svg>
