<svg width="4000" height="2000" viewBox="-0.025 -0.025 2.05 1.05" xmlns="http://www.w3.org/2000/svg">
  <style>
    path {
      fill: none;
      stroke-linecap: round;
      stroke-opacity: 0.4;
    }

    text {
      text-anchor: middle;
      alignment-baseline: hanging;
    }
  </style>
  <g opacity="0.4">
<path d="M0.319 0.156 Q0.454 0.178 0.527 0.118" stroke="hsl(0.0,100%,35%)" stroke-width="0.01429"></path>
<path d="M0.319 0.156 Q0.254 0.826 1.547 1.005" stroke="hsl(0.0,100%,35%)" stroke-width="0.01429"></path>
<path d="M0.319 0.156 Q0.444 0.758 1.646 0.829" stroke="hsl(0.0,100%,35%)" stroke-width="0.00714"></path>
<path d="M0.319 0.156 Q0.235 0.216 0.335 0.271" stroke="hsl(0.0,100%,35%)" stroke-width="0.00714"></path>
<path d="M1.547 1.005 Q1.443 0.847 1.112 0.863" stroke="hsl(0.0,100%,35%)" stroke-width="0.04286"></path>
<path d="M1.547 1.005 Q1.737 0.937 1.646 0.829" stroke="hsl(0.0,100%,35%)" stroke-width="0.05714"></path>
<path d="M1.547 1.005 Q1.665 0.700 1.096 0.576" stroke="hsl(0.0,100%,35%)" stroke-width="0.00714"></path>
<path d="M1.547 1.005 Q1.747 0.357 0.527 0.118" stroke="hsl(0.0,100%,35%)" stroke-width="0.02143"></path>
<path d="M1.646 0.829 Q1.457 0.897 1.547 1.005" stroke="hsl(0.0,100%,35%)" stroke-width="0.05000"></path>
<path d="M1.646 0.829 Q1.656 0.250 0.527 0.118" stroke="hsl(0.0,100%,35%)" stroke-width="0.01429"></path>
<path d="M1.646 0.829 Q1.574 0.592 1.096 0.576" stroke="hsl(0.0,100%,35%)" stroke-width="0.00714"></path>
<path d="M1.803 0.530 Q1.486 0.649 1.646 0.829" stroke="hsl(0.0,100%,35%)" stroke-width="0.01429"></path>
<path d="M1.803 0.530 Q1.191 0.559 1.112 0.863" stroke="hsl(0.0,100%,35%)" stroke-width="0.00714"></path>
<path d="M1.803 0.530 Q1.495 0.069 0.527 0.118" stroke="hsl(0.0,100%,35%)" stroke-width="0.00714"></path>
<path d="M0.992 0.334 Q0.733 0.780 1.547 1.005" stroke="hsl(0.0,100%,35%)" stroke-width="0.01429"></path>
<path d="M0.992 0.334 Q0.932 0.133 0.527 0.118" stroke="hsl(0.0,100%,35%)" stroke-width="0.00714"></path>
<path d="M0.992 0.334 Q0.850 0.476 1.096 0.576" stroke="hsl(0.0,100%,35%)" stroke-width="0.00714"></path>
</g>
<text x="0.319" y="0.129" font-size="0.053452" fill="hsl(0.0,100%,20%)">danakj</text>
<text x="0.527" y="0.085" font-size="0.065465" fill="hsl(0.0,100%,20%)">brettw</text>
<text x="1.547" y="0.946" font-size="0.117514" fill="hsl(0.0,100%,20%)">tikuta</text>
<text x="1.646" y="0.779" font-size="0.100000" fill="hsl(0.0,100%,20%)">digit</text>
<text x="0.335" y="0.260" font-size="0.021822" fill="hsl(0.0,100%,20%)">tmandry</text>
<text x="1.096" y="0.557" font-size="0.037796" fill="hsl(0.0,100%,20%)">sdefresne</text>
<text x="1.803" y="0.509" font-size="0.043644" fill="hsl(0.0,100%,20%)">dpranke</text>
<text x="1.112" y="0.834" font-size="0.057735" fill="hsl(0.0,100%,20%)">phosek</text>
<text x="0.992" y="0.312" font-size="0.043644" fill="hsl(0.0,100%,20%)">thakis</text>
</svg>
