<svg width="4000" height="2000" viewBox="-0.025 -0.025 2.05 1.05" xmlns="http://www.w3.org/2000/svg">
  <style>
    path {
      fill: none;
      stroke-linecap: round;
      stroke-opacity: 0.4;
    }

    text {
      text-anchor: middle;
      alignment-baseline: hanging;
    }
  </style>
  <g opacity="0.4">
<path d="M1.494 0.699 Q0.981 0.469 0.419 0.669" stroke="hsl(0.0,100%,35%)" stroke-width="0.00502"></path>
<path d="M1.494 0.699 Q1.483 0.789 1.657 0.814" stroke="hsl(0.0,100%,35%)" stroke-width="0.00502"></path>
<path d="M1.494 0.699 Q1.017 0.584 0.687 0.791" stroke="hsl(0.0,100%,35%)" stroke-width="0.00502"></path>
<path d="M0.419 0.669 Q0.455 0.784 0.687 0.791" stroke="hsl(0.0,100%,35%)" stroke-width="0.01506"></path>
<path d="M0.419 0.669 Q0.585 0.453 0.201 0.324" stroke="hsl(0.0,100%,35%)" stroke-width="0.00502"></path>
<path d="M0.419 0.669 Q0.483 0.519 0.204 0.454" stroke="hsl(0.0,100%,35%)" stroke-width="0.04518"></path>
<path d="M0.687 0.791 Q0.715 0.526 0.204 0.454" stroke="hsl(0.0,100%,35%)" stroke-width="0.01004"></path>
<path d="M0.687 0.791 Q0.651 0.676 0.419 0.669" stroke="hsl(0.0,100%,35%)" stroke-width="0.00502"></path>
<path d="M0.687 0.791 Q0.385 0.799 0.333 0.948" stroke="hsl(0.0,100%,35%)" stroke-width="0.00502"></path>
<path d="M0.687 0.791 Q1.003 0.544 0.590 0.336" stroke="hsl(0.0,100%,35%)" stroke-width="0.00502"></path>
<path d="M0.204 0.454 Q0.307 0.389 0.201 0.324" stroke="hsl(0.0,100%,35%)" stroke-width="0.00502"></path>
<path d="M0.204 0.454 Q0.492 0.472 0.590 0.336" stroke="hsl(0.0,100%,35%)" stroke-width="0.00502"></path>
<path d="M0.204 0.454 Q0.176 0.719 0.687 0.791" stroke="hsl(0.0,100%,35%)" stroke-width="0.01004"></path>
<path d="M0.204 0.454 Q0.095 0.498 0.156 0.561" stroke="hsl(0.0,100%,35%)" stroke-width="0.01004"></path>
<path d="M0.201 0.324 Q0.035 0.540 0.419 0.669" stroke="hsl(0.0,100%,35%)" stroke-width="0.02008"></path>
<path d="M0.201 0.324 Q0.099 0.390 0.204 0.454" stroke="hsl(0.0,100%,35%)" stroke-width="0.09037"></path>
<path d="M0.201 0.324 Q0.198 0.456 0.455 0.487" stroke="hsl(0.0,100%,35%)" stroke-width="0.00502"></path>
<path d="M0.201 0.324 Q0.071 0.655 0.687 0.791" stroke="hsl(0.0,100%,35%)" stroke-width="0.02008"></path>
<path d="M0.201 0.324 Q0.387 0.408 0.590 0.336" stroke="hsl(0.0,100%,35%)" stroke-width="0.00502"></path>
<path d="M1.934 0.429 Q1.151 0.030 0.201 0.324" stroke="hsl(0.0,100%,35%)" stroke-width="0.01004"></path>
<path d="M1.934 0.429 Q1.049 0.096 0.204 0.454" stroke="hsl(0.0,100%,35%)" stroke-width="0.02008"></path>
<path d="M1.934 0.429 Q1.820 0.247 1.440 0.263" stroke="hsl(0.0,100%,35%)" stroke-width="0.01004"></path>
<path d="M0.455 0.487 Q0.356 0.420 0.204 0.454" stroke="hsl(0.0,100%,35%)" stroke-width="0.02008"></path>
<path d="M0.455 0.487 Q0.643 0.438 0.590 0.336" stroke="hsl(0.0,100%,35%)" stroke-width="0.00502"></path>
<path d="M0.455 0.487 Q0.247 0.464 0.156 0.561" stroke="hsl(0.0,100%,35%)" stroke-width="0.00502"></path>
</g>
<text x="1.494" y="0.684" font-size="0.029488" fill="hsl(0.0,100%,20%)">andrewsavage</text>
<text x="0.419" y="0.631" font-size="0.074211" fill="hsl(0.0,100%,20%)">sdefresne</text>
<text x="1.657" y="0.806" font-size="0.017025" fill="hsl(0.0,100%,20%)">mcgrathr</text>
<text x="0.687" y="0.758" font-size="0.065938" fill="hsl(0.0,100%,20%)">phosek</text>
<text x="0.204" y="0.399" font-size="0.111641" fill="hsl(0.0,100%,20%)">brettw</text>
<text x="0.201" y="0.276" font-size="0.096309" fill="hsl(0.0,100%,20%)">digit</text>
<text x="0.590" y="0.319" font-size="0.034050" fill="hsl(0.0,100%,20%)">dpranke</text>
<text x="0.156" y="0.546" font-size="0.029488" fill="hsl(0.0,100%,20%)">scottmg</text>
<text x="1.934" y="0.405" font-size="0.048154" fill="hsl(0.0,100%,20%)">danakj</text>
<text x="1.440" y="0.251" font-size="0.024077" fill="hsl(0.0,100%,20%)">tmandry</text>
<text x="0.455" y="0.464" font-size="0.045044" fill="hsl(0.0,100%,20%)">thakis</text>
<text x="0.333" y="0.939" font-size="0.017025" fill="hsl(0.0,100%,20%)">iannucci</text>
</svg>
