<svg width="4000" height="2000" viewBox="-0.025 -0.025 2.05 1.05" xmlns="http://www.w3.org/2000/svg">
  <style>
    path {
      fill: none;
      stroke-linecap: round;
      stroke-opacity: 0.4;
    }

    text {
      text-anchor: middle;
      alignment-baseline: hanging;
    }
  </style>
  <g opacity="0.4">
<path d="M0.123 0.355 Q-0.269 0.707 0.332 0.976" stroke="hsl(0.0,100%,35%)" stroke-width="0.00284"></path>
<path d="M0.123 0.355 Q0.258 0.303 0.186 0.225" stroke="hsl(0.0,100%,35%)" stroke-width="0.01987"></path>
<path d="M0.123 0.355 Q0.020 0.712 0.694 0.841" stroke="hsl(0.0,100%,35%)" stroke-width="0.00284"></path>
<path d="M0.123 0.355 Q0.002 0.617 0.487 0.734" stroke="hsl(0.0,100%,35%)" stroke-width="0.01136"></path>
<path d="M0.123 0.355 Q0.489 0.396 0.649 0.226" stroke="hsl(0.0,100%,35%)" stroke-width="0.00852"></path>
<path d="M0.332 0.976 Q0.491 1.084 0.738 1.030" stroke="hsl(180.0,100%,35%)" stroke-width="0.00284"></path>
<path d="M0.332 0.976 Q0.480 0.811 0.191 0.703" stroke="hsl(180.0,100%,35%)" stroke-width="0.01420"></path>
<path d="M0.694 0.841 Q0.677 0.746 0.487 0.734" stroke="hsl(0.0,100%,35%)" stroke-width="0.00568"></path>
<path d="M0.694 0.841 Q0.933 0.432 0.186 0.225" stroke="hsl(0.0,100%,35%)" stroke-width="0.00284"></path>
<path d="M0.694 0.841 Q0.798 0.484 0.123 0.355" stroke="hsl(0.0,100%,35%)" stroke-width="0.00284"></path>
<path d="M0.487 0.734 Q0.729 0.794 0.899 0.689" stroke="hsl(0.0,100%,35%)" stroke-width="0.00284"></path>
<path d="M0.487 0.734 Q0.364 0.659 0.191 0.703" stroke="hsl(0.0,100%,35%)" stroke-width="0.01136"></path>
<path d="M0.487 0.734 Q0.216 0.824 0.332 0.976" stroke="hsl(0.0,100%,35%)" stroke-width="0.01703"></path>
<path d="M0.487 0.734 Q0.920 0.713 0.973 0.497" stroke="hsl(0.0,100%,35%)" stroke-width="0.00852"></path>
<path d="M0.738 1.030 Q0.579 0.922 0.332 0.976" stroke="hsl(180.0,100%,35%)" stroke-width="0.09937"></path>
<path d="M0.738 1.030 Q1.091 0.892 0.899 0.689" stroke="hsl(180.0,100%,35%)" stroke-width="0.00852"></path>
<path d="M0.191 0.703 Q0.043 0.867 0.332 0.976" stroke="hsl(0.0,100%,35%)" stroke-width="0.01987"></path>
<path d="M0.191 0.703 Q0.314 0.778 0.487 0.734" stroke="hsl(0.0,100%,35%)" stroke-width="0.00568"></path>
<path d="M0.191 0.703 Q0.747 0.756 0.973 0.497" stroke="hsl(0.0,100%,35%)" stroke-width="0.00568"></path>
<path d="M0.191 0.703 Q0.556 0.837 0.899 0.689" stroke="hsl(0.0,100%,35%)" stroke-width="0.01987"></path>
<path d="M0.483 0.571 Q0.232 0.578 0.191 0.703" stroke="hsl(0.0,100%,35%)" stroke-width="0.01703"></path>
<path d="M0.483 0.571 Q0.355 0.653 0.487 0.734" stroke="hsl(0.0,100%,35%)" stroke-width="0.01136"></path>
<path d="M0.483 0.571 Q0.084 0.743 0.332 0.976" stroke="hsl(0.0,100%,35%)" stroke-width="0.01703"></path>
<path d="M0.483 0.571 Q0.842 0.432 0.649 0.226" stroke="hsl(0.0,100%,35%)" stroke-width="0.00284"></path>
<path d="M0.401 0.841 Q0.258 0.894 0.332 0.976" stroke="hsl(180.0,100%,35%)" stroke-width="0.01703"></path>
<path d="M0.401 0.841 Q0.962 0.783 0.973 0.497" stroke="hsl(180.0,100%,35%)" stroke-width="0.00284"></path>
<path d="M0.401 0.841 Q0.529 0.805 0.487 0.734" stroke="hsl(180.0,100%,35%)" stroke-width="0.00284"></path>
<path d="M0.776 0.463 Q0.144 0.631 0.332 0.976" stroke="hsl(180.0,100%,35%)" stroke-width="0.00852"></path>
<path d="M0.776 0.463 Q0.292 0.466 0.191 0.703" stroke="hsl(180.0,100%,35%)" stroke-width="0.00284"></path>
<path d="M0.776 0.463 Q0.415 0.541 0.487 0.734" stroke="hsl(180.0,100%,35%)" stroke-width="0.00568"></path>
</g>
<text x="0.123" y="0.329" font-size="0.051741" fill="hsl(0.0,100%,20%)">aaronwood</text>
<text x="0.332" y="0.923" font-size="0.104993" fill="hsl(180.0,100%,20%)">brettw</text>
<text x="0.186" y="0.207" font-size="0.035494" fill="hsl(0.0,100%,20%)">tmandry</text>
<text x="0.694" y="0.827" font-size="0.028061" fill="hsl(0.0,100%,20%)">paulfaria</text>
<text x="0.487" y="0.700" font-size="0.067579" fill="hsl(0.0,100%,20%)">phosek</text>
<text x="0.649" y="0.214" font-size="0.025098" fill="hsl(0.0,100%,20%)">bwb</text>
<text x="0.738" y="0.991" font-size="0.078369" fill="hsl(180.0,100%,20%)">sdefresne</text>
<text x="0.191" y="0.666" font-size="0.073173" fill="hsl(0.0,100%,20%)">scottmg</text>
<text x="0.483" y="0.545" font-size="0.051741" fill="hsl(0.0,100%,20%)">digit</text>
<text x="0.899" y="0.668" font-size="0.041621" fill="hsl(0.0,100%,20%)">thakis</text>
<text x="0.973" y="0.482" font-size="0.030739" fill="hsl(0.0,100%,20%)">dpranke</text>
<text x="0.401" y="0.823" font-size="0.035494" fill="hsl(180.0,100%,20%)">rjascani</text>
<text x="0.776" y="0.448" font-size="0.030739" fill="hsl(180.0,100%,20%)">shayba</text>
</svg>
