<svg width="4000" height="2000" viewBox="-0.025 -0.025 2.05 1.05" xmlns="http://www.w3.org/2000/svg">
  <style>
    path {
      fill: none;
      stroke-linecap: round;
      stroke-opacity: 0.4;
    }

    text {
      text-anchor: middle;
      alignment-baseline: hanging;
    }
  </style>
  <g opacity="0.4">
<path d="M1.318 0.129 Q0.944 0.288 1.172 0.505" stroke="hsl(0.0,100%,35%)" stroke-width="0.00658"></path>
<path d="M1.318 0.129 Q1.402 0.420 1.987 0.443" stroke="hsl(0.0,100%,35%)" stroke-width="0.01316"></path>
<path d="M1.318 0.129 Q1.035 0.135 0.984 0.274" stroke="hsl(0.0,100%,35%)" stroke-width="0.01316"></path>
<path d="M1.318 0.129 Q1.452 0.281 1.779 0.249" stroke="hsl(0.0,100%,35%)" stroke-width="0.01316"></path>
<path d="M1.172 0.505 Q1.546 0.347 1.318 0.129" stroke="hsl(0.0,100%,35%)" stroke-width="0.11840"></path>
<path d="M1.172 0.505 Q1.630 0.637 1.987 0.443" stroke="hsl(0.0,100%,35%)" stroke-width="0.00658"></path>
<path d="M1.172 0.505 Q1.263 0.352 0.984 0.274" stroke="hsl(0.0,100%,35%)" stroke-width="0.01973"></path>
<path d="M1.172 0.505 Q1.538 0.532 1.671 0.360" stroke="hsl(0.0,100%,35%)" stroke-width="0.01316"></path>
<path d="M0.984 0.274 Q1.267 0.268 1.318 0.129" stroke="hsl(0.0,100%,35%)" stroke-width="0.01316"></path>
<path d="M0.984 0.274 Q1.259 0.454 1.671 0.360" stroke="hsl(0.0,100%,35%)" stroke-width="0.00658"></path>
<path d="M0.984 0.274 Q0.601 0.217 0.405 0.392" stroke="hsl(0.0,100%,35%)" stroke-width="0.00658"></path>
<path d="M0.984 0.274 Q1.351 0.559 1.987 0.443" stroke="hsl(0.0,100%,35%)" stroke-width="0.00658"></path>
<path d="M1.415 0.263 Q1.474 0.177 1.318 0.129" stroke="hsl(0.0,100%,35%)" stroke-width="0.02631"></path>
<path d="M1.415 0.263 Q1.558 0.467 1.987 0.443" stroke="hsl(0.0,100%,35%)" stroke-width="0.00658"></path>
<path d="M1.415 0.263 Q1.608 0.329 1.779 0.249" stroke="hsl(0.0,100%,35%)" stroke-width="0.01316"></path>
</g>
<text x="1.318" y="0.069" font-size="0.120077" fill="hsl(0.0,100%,20%)">brettw</text>
<text x="1.172" y="0.451" font-size="0.107833" fill="hsl(0.0,100%,20%)">digit</text>
<text x="1.987" y="0.418" font-size="0.048224" fill="hsl(0.0,100%,20%)">dpranke</text>
<text x="0.984" y="0.240" font-size="0.068199" fill="hsl(0.0,100%,20%)">phosek</text>
<text x="1.779" y="0.228" font-size="0.043133" fill="hsl(0.0,100%,20%)">scottmg</text>
<text x="1.671" y="0.341" font-size="0.037354" fill="hsl(0.0,100%,20%)">sdefresne</text>
<text x="0.405" y="0.381" font-size="0.021567" fill="hsl(0.0,100%,20%)">iannucci</text>
<text x="1.415" y="0.234" font-size="0.057060" fill="hsl(0.0,100%,20%)">thakis</text>
</svg>
