<svg width="4000" height="2000" viewBox="-0.025 -0.025 2.05 1.05" xmlns="http://www.w3.org/2000/svg">
  <style>
    path {
      fill: none;
      stroke-linecap: round;
      stroke-opacity: 0.4;
    }

    text {
      text-anchor: middle;
      alignment-baseline: hanging;
    }
  </style>
  <g opacity="0.4">
<path d="M1.045 0.367 Q0.829 0.489 1.021 0.621" stroke="hsl(0.0,100%,35%)" stroke-width="0.00502"></path>
<path d="M1.045 0.367 Q1.235 0.362 1.268 0.268" stroke="hsl(0.0,100%,35%)" stroke-width="0.00502"></path>
<path d="M1.045 0.367 Q0.548 0.565 0.827 0.851" stroke="hsl(0.0,100%,35%)" stroke-width="0.00502"></path>
<path d="M1.021 0.621 Q0.740 0.697 0.827 0.851" stroke="hsl(0.0,100%,35%)" stroke-width="0.01506"></path>
<path d="M1.021 0.621 Q1.490 0.432 1.225 0.161" stroke="hsl(0.0,100%,35%)" stroke-width="0.00502"></path>
<path d="M1.021 0.621 Q1.002 0.403 0.574 0.364" stroke="hsl(0.0,100%,35%)" stroke-width="0.04518"></path>
<path d="M0.827 0.851 Q1.089 0.557 0.574 0.364" stroke="hsl(0.0,100%,35%)" stroke-width="0.01004"></path>
<path d="M0.827 0.851 Q1.108 0.774 1.021 0.621" stroke="hsl(0.0,100%,35%)" stroke-width="0.00502"></path>
<path d="M0.827 0.851 Q1.099 0.919 1.292 0.801" stroke="hsl(0.0,100%,35%)" stroke-width="0.00502"></path>
<path d="M0.827 0.851 Q1.038 0.455 0.313 0.265" stroke="hsl(0.0,100%,35%)" stroke-width="0.00502"></path>
<path d="M0.574 0.364 Q1.062 0.393 1.225 0.161" stroke="hsl(0.0,100%,35%)" stroke-width="0.00502"></path>
<path d="M0.574 0.364 Q0.523 0.262 0.313 0.265" stroke="hsl(0.0,100%,35%)" stroke-width="0.00502"></path>
<path d="M0.574 0.364 Q0.311 0.658 0.827 0.851" stroke="hsl(0.0,100%,35%)" stroke-width="0.01004"></path>
<path d="M0.574 0.364 Q0.884 0.383 0.989 0.236" stroke="hsl(0.0,100%,35%)" stroke-width="0.01004"></path>
<path d="M1.225 0.161 Q0.737 0.133 0.574 0.364" stroke="hsl(0.0,100%,35%)" stroke-width="0.09537"></path>
<path d="M1.225 0.161 Q0.755 0.350 1.021 0.621" stroke="hsl(0.0,100%,35%)" stroke-width="0.01506"></path>
<path d="M1.225 0.161 Q0.762 0.008 0.361 0.200" stroke="hsl(0.0,100%,35%)" stroke-width="0.00502"></path>
<path d="M1.225 0.161 Q0.474 0.426 0.827 0.851" stroke="hsl(0.0,100%,35%)" stroke-width="0.02008"></path>
<path d="M1.225 0.161 Q0.686 0.031 0.313 0.265" stroke="hsl(0.0,100%,35%)" stroke-width="0.00502"></path>
<path d="M0.361 0.200 Q0.336 0.325 0.574 0.364" stroke="hsl(0.0,100%,35%)" stroke-width="0.02510"></path>
<path d="M0.361 0.200 Q0.285 0.223 0.313 0.265" stroke="hsl(0.0,100%,35%)" stroke-width="0.00502"></path>
<path d="M0.361 0.200 Q0.646 0.343 0.989 0.236" stroke="hsl(0.0,100%,35%)" stroke-width="0.01004"></path>
</g>
<text x="1.045" y="0.351" font-size="0.030861" fill="hsl(0.0,100%,20%)">andrewsavage</text>
<text x="1.021" y="0.583" font-size="0.075593" fill="hsl(0.0,100%,20%)">sdefresne</text>
<text x="1.268" y="0.259" font-size="0.017817" fill="hsl(0.0,100%,20%)">mcgrathr</text>
<text x="0.827" y="0.816" font-size="0.069007" fill="hsl(0.0,100%,20%)">phosek</text>
<text x="0.574" y="0.307" font-size="0.114087" fill="hsl(0.0,100%,20%)">brettw</text>
<text x="1.225" y="0.113" font-size="0.097590" fill="hsl(0.0,100%,20%)">digit</text>
<text x="0.313" y="0.247" font-size="0.035635" fill="hsl(0.0,100%,20%)">dpranke</text>
<text x="0.989" y="0.218" font-size="0.035635" fill="hsl(0.0,100%,20%)">scottmg</text>
<text x="0.361" y="0.173" font-size="0.053452" fill="hsl(0.0,100%,20%)">thakis</text>
<text x="1.292" y="0.792" font-size="0.017817" fill="hsl(0.0,100%,20%)">iannucci</text>
</svg>
