<svg width="4000" height="2000" viewBox="-0.025 -0.025 2.05 1.05" xmlns="http://www.w3.org/2000/svg">
  <style>
    path {
      fill: none;
      stroke-linecap: round;
      stroke-opacity: 0.4;
    }

    text {
      text-anchor: middle;
      alignment-baseline: hanging;
    }
  </style>
  <g opacity="0.4">
<path d="M1.499 0.295 Q1.316 0.467 1.610 0.594" stroke="hsl(0.0,100%,35%)" stroke-width="0.00643"></path>
<path d="M1.499 0.295 Q1.236 0.654 1.879 0.861" stroke="hsl(0.0,100%,35%)" stroke-width="0.00643"></path>
<path d="M1.499 0.295 Q1.090 0.442 1.287 0.674" stroke="hsl(0.0,100%,35%)" stroke-width="0.01286"></path>
<path d="M1.499 0.295 Q0.914 0.265 0.726 0.543" stroke="hsl(0.0,100%,35%)" stroke-width="0.01286"></path>
<path d="M1.610 0.594 Q1.794 0.422 1.499 0.295" stroke="hsl(0.0,100%,35%)" stroke-width="0.12214"></path>
<path d="M1.610 0.594 Q1.531 0.781 1.879 0.861" stroke="hsl(0.0,100%,35%)" stroke-width="0.00643"></path>
<path d="M1.610 0.594 Q1.384 0.569 1.287 0.674" stroke="hsl(0.0,100%,35%)" stroke-width="0.01928"></path>
<path d="M1.610 0.594 Q1.386 0.697 1.538 0.829" stroke="hsl(0.0,100%,35%)" stroke-width="0.01286"></path>
<path d="M1.287 0.674 Q1.696 0.527 1.499 0.295" stroke="hsl(0.0,100%,35%)" stroke-width="0.01286"></path>
<path d="M1.287 0.674 Q1.288 0.801 1.538 0.829" stroke="hsl(0.0,100%,35%)" stroke-width="0.00643"></path>
<path d="M1.287 0.674 Q1.051 0.791 1.227 0.931" stroke="hsl(0.0,100%,35%)" stroke-width="0.00643"></path>
<path d="M1.287 0.674 Q1.433 0.886 1.879 0.861" stroke="hsl(0.0,100%,35%)" stroke-width="0.00643"></path>
<path d="M0.998 0.460 Q1.380 0.478 1.499 0.295" stroke="hsl(0.0,100%,35%)" stroke-width="0.03214"></path>
<path d="M0.998 0.460 Q1.117 0.836 1.879 0.861" stroke="hsl(0.0,100%,35%)" stroke-width="0.00643"></path>
<path d="M0.998 0.460 Q0.795 0.447 0.726 0.543" stroke="hsl(0.0,100%,35%)" stroke-width="0.01286"></path>
</g>
<text x="1.499" y="0.235" font-size="0.120605" fill="hsl(0.0,100%,20%)">brettw</text>
<text x="1.610" y="0.539" font-size="0.108711" fill="hsl(0.0,100%,20%)">digit</text>
<text x="1.879" y="0.840" font-size="0.042640" fill="hsl(0.0,100%,20%)">dpranke</text>
<text x="1.287" y="0.640" font-size="0.067420" fill="hsl(0.0,100%,20%)">phosek</text>
<text x="0.726" y="0.522" font-size="0.042640" fill="hsl(0.0,100%,20%)">scottmg</text>
<text x="1.538" y="0.810" font-size="0.036927" fill="hsl(0.0,100%,20%)">sdefresne</text>
<text x="1.227" y="0.921" font-size="0.021320" fill="hsl(0.0,100%,20%)">iannucci</text>
<text x="0.998" y="0.429" font-size="0.060302" fill="hsl(0.0,100%,20%)">thakis</text>
</svg>
