<svg width="4000" height="2000" viewBox="-0.025 -0.025 2.05 1.05" xmlns="http://www.w3.org/2000/svg">
  <style>
    path {
      fill: none;
      stroke-linecap: round;
      stroke-opacity: 0.4;
    }

    text {
      text-anchor: middle;
      alignment-baseline: hanging;
    }
  </style>
  <g opacity="0.4">
<path d="M1.469 0.517 Q1.777 0.367 1.552 0.183" stroke="hsl(0.0,100%,35%)" stroke-width="0.00677"></path>
<path d="M1.469 0.517 Q1.494 0.411 1.294 0.376" stroke="hsl(0.0,100%,35%)" stroke-width="0.00338"></path>
<path d="M1.552 0.183 Q1.269 0.228 1.294 0.376" stroke="hsl(0.0,100%,35%)" stroke-width="0.05415"></path>
<path d="M1.552 0.183 Q1.657 0.305 1.917 0.280" stroke="hsl(0.0,100%,35%)" stroke-width="0.01015"></path>
<path d="M1.552 0.183 Q1.036 0.195 0.947 0.450" stroke="hsl(0.0,100%,35%)" stroke-width="0.00677"></path>
<path d="M1.294 0.376 Q0.658 0.167 0.111 0.431" stroke="hsl(0.0,100%,35%)" stroke-width="0.00338"></path>
<path d="M1.294 0.376 Q1.061 0.343 0.947 0.450" stroke="hsl(0.0,100%,35%)" stroke-width="0.03384"></path>
<path d="M1.294 0.376 Q1.577 0.331 1.552 0.183" stroke="hsl(0.0,100%,35%)" stroke-width="0.00338"></path>
<path d="M1.294 0.376 Q3.583 -0.939 1.519 -2.345" stroke="hsl(0.0,100%,35%)" stroke-width="0.00338"></path>
<path d="M1.294 0.376 Q1.682 0.453 1.917 0.280" stroke="hsl(0.0,100%,35%)" stroke-width="0.00338"></path>
<path d="M0.947 0.450 Q1.179 0.482 1.294 0.376" stroke="hsl(0.0,100%,35%)" stroke-width="0.01015"></path>
<path d="M0.947 0.450 Q0.544 0.273 0.111 0.431" stroke="hsl(0.0,100%,35%)" stroke-width="0.01015"></path>
<path d="M0.947 0.450 Q1.462 0.438 1.552 0.183" stroke="hsl(0.0,100%,35%)" stroke-width="0.00338"></path>
<path d="M1.917 0.280 Q1.529 0.203 1.294 0.376" stroke="hsl(0.0,100%,35%)" stroke-width="0.08799"></path>
<path d="M1.917 0.280 Q1.812 0.159 1.552 0.183" stroke="hsl(0.0,100%,35%)" stroke-width="0.00338"></path>
<path d="M1.917 0.280 Q1.296 0.171 0.947 0.450" stroke="hsl(0.0,100%,35%)" stroke-width="0.00677"></path>
<path d="M1.917 0.280 Q3.819 -1.112 1.519 -2.345" stroke="hsl(0.0,100%,35%)" stroke-width="0.00338"></path>
<path d="M1.917 0.280 Q1.259 0.372 1.294 0.713" stroke="hsl(0.0,100%,35%)" stroke-width="0.00338"></path>
<path d="M1.684 0.204 Q1.351 0.212 1.294 0.376" stroke="hsl(0.0,100%,35%)" stroke-width="0.01354"></path>
<path d="M1.684 0.204 Q1.740 0.289 1.917 0.280" stroke="hsl(0.0,100%,35%)" stroke-width="0.00677"></path>
<path d="M1.684 0.204 Q1.119 0.179 0.947 0.450" stroke="hsl(0.0,100%,35%)" stroke-width="0.00338"></path>
<path d="M1.127 0.610 Q1.397 0.526 1.294 0.376" stroke="hsl(0.0,100%,35%)" stroke-width="0.01354"></path>
<path d="M1.127 0.610 Q1.165 0.493 0.947 0.450" stroke="hsl(0.0,100%,35%)" stroke-width="0.01354"></path>
<path d="M1.127 0.610 Q1.127 0.695 1.294 0.713" stroke="hsl(0.0,100%,35%)" stroke-width="0.01015"></path>
<path d="M0.403 0.659 Q1.075 0.696 1.294 0.376" stroke="hsl(0.0,100%,35%)" stroke-width="0.00677"></path>
<path d="M0.403 0.659 Q0.440 0.487 0.111 0.431" stroke="hsl(0.0,100%,35%)" stroke-width="0.00338"></path>
<path d="M0.403 0.659 Q1.358 0.651 1.552 0.183" stroke="hsl(0.0,100%,35%)" stroke-width="0.00338"></path>
</g>
<text x="1.469" y="0.504" font-size="0.024744" fill="hsl(0.0,100%,20%)">adetaylor</text>
<text x="1.552" y="0.146" font-size="0.074231" fill="hsl(0.0,100%,20%)">phosek</text>
<text x="1.294" y="0.316" font-size="0.119523" fill="hsl(0.0,100%,20%)">brettw</text>
<text x="0.111" y="0.415" font-size="0.031944" fill="hsl(0.0,100%,20%)">thakis</text>
<text x="0.947" y="0.413" font-size="0.072843" fill="hsl(0.0,100%,20%)">scottmg</text>
<text x="1.519" y="-2.355" font-size="0.020203" fill="hsl(0.0,100%,20%)">thomasanderson</text>
<text x="1.917" y="0.237" font-size="0.086897" fill="hsl(0.0,100%,20%)">juliehockett</text>
<text x="1.684" y="0.185" font-size="0.037796" fill="hsl(0.0,100%,20%)">haowei</text>
<text x="1.127" y="0.586" font-size="0.047380" fill="hsl(0.0,100%,20%)">joearmstrong334</text>
<text x="1.294" y="0.699" font-size="0.028571" fill="hsl(0.0,100%,20%)">dpranke</text>
<text x="0.403" y="0.645" font-size="0.028571" fill="hsl(0.0,100%,20%)">raphael.kubo.da.costa</text>
</svg>
