<svg width="4000" height="2000" viewBox="-0.025 -0.025 2.05 1.05" xmlns="http://www.w3.org/2000/svg">
  <style>
    path {
      fill: none;
      stroke-linecap: round;
      stroke-opacity: 0.4;
    }

    text {
      text-anchor: middle;
      alignment-baseline: hanging;
    }
  </style>
  <g opacity="0.4">
<path d="M0.074 0.390 Q0.809 0.686 1.548 0.392" stroke="hsl(0.0,100%,35%)" stroke-width="0.00400"></path>
<path d="M0.074 0.390 Q0.059 0.428 0.130 0.443" stroke="hsl(0.0,100%,35%)" stroke-width="0.00100"></path>
<path d="M0.074 0.390 Q0.622 0.553 1.060 0.321" stroke="hsl(0.0,100%,35%)" stroke-width="0.00699"></path>
<path d="M0.074 0.390 Q0.118 0.519 0.379 0.526" stroke="hsl(0.0,100%,35%)" stroke-width="0.00799"></path>
<path d="M0.074 0.390 Q0.340 0.481 0.577 0.371" stroke="hsl(0.0,100%,35%)" stroke-width="0.00100"></path>
<path d="M0.074 0.390 Q0.704 0.625 1.302 0.369" stroke="hsl(0.0,100%,35%)" stroke-width="0.00100"></path>
<path d="M0.074 0.390 Q0.587 0.725 1.354 0.548" stroke="hsl(0.0,100%,35%)" stroke-width="0.00499"></path>
<path d="M0.074 0.390 Q0.721 0.708 1.484 0.463" stroke="hsl(0.0,100%,35%)" stroke-width="0.00100"></path>
<path d="M0.074 0.390 Q0.251 0.360 0.231 0.267" stroke="hsl(0.0,100%,35%)" stroke-width="0.00300"></path>
<path d="M1.548 0.392 Q1.326 0.431 1.354 0.548" stroke="hsl(0.0,100%,35%)" stroke-width="0.01398"></path>
<path d="M1.548 0.392 Q1.443 0.332 1.302 0.369" stroke="hsl(0.0,100%,35%)" stroke-width="0.00799"></path>
<path d="M1.548 0.392 Q1.361 0.259 1.060 0.321" stroke="hsl(0.0,100%,35%)" stroke-width="0.01498"></path>
<path d="M1.548 0.392 Q1.079 0.187 0.577 0.371" stroke="hsl(0.0,100%,35%)" stroke-width="0.00400"></path>
<path d="M1.548 0.392 Q1.305 0.338 1.147 0.445" stroke="hsl(0.0,100%,35%)" stroke-width="0.00100"></path>
<path d="M1.548 0.392 Q1.345 0.142 0.813 0.186" stroke="hsl(0.0,100%,35%)" stroke-width="0.00499"></path>
<path d="M1.060 0.321 Q1.246 0.454 1.548 0.392" stroke="hsl(0.0,100%,35%)" stroke-width="0.00499"></path>
<path d="M1.060 0.321 Q1.025 0.493 1.354 0.548" stroke="hsl(0.0,100%,35%)" stroke-width="0.00400"></path>
<path d="M1.060 0.321 Q0.941 0.335 0.943 0.396" stroke="hsl(0.0,100%,35%)" stroke-width="0.00400"></path>
<path d="M1.060 0.321 Q1.142 0.393 1.302 0.369" stroke="hsl(0.0,100%,35%)" stroke-width="0.00200"></path>
<path d="M1.060 0.321 Q1.044 0.204 0.813 0.186" stroke="hsl(0.0,100%,35%)" stroke-width="0.00899"></path>
<path d="M1.060 0.321 Q1.004 0.400 1.147 0.445" stroke="hsl(0.0,100%,35%)" stroke-width="0.01798"></path>
<path d="M1.060 0.321 Q0.778 0.249 0.577 0.371" stroke="hsl(0.0,100%,35%)" stroke-width="0.00100"></path>
<path d="M1.060 0.321 Q0.917 0.267 0.780 0.325" stroke="hsl(0.0,100%,35%)" stroke-width="0.00100"></path>
<path d="M1.060 0.321 Q0.996 0.435 1.205 0.491" stroke="hsl(0.0,100%,35%)" stroke-width="0.00300"></path>
<path d="M1.060 0.321 Q1.167 0.570 1.676 0.572" stroke="hsl(0.0,100%,35%)" stroke-width="0.00100"></path>
<path d="M1.060 0.321 Q0.784 0.384 0.848 0.533" stroke="hsl(0.0,100%,35%)" stroke-width="0.00200"></path>
<path d="M1.060 0.321 Q0.255 0.348 0.130 0.746" stroke="hsl(0.0,100%,35%)" stroke-width="0.00200"></path>
<path d="M1.060 0.321 Q0.660 0.455 0.834 0.680" stroke="hsl(0.0,100%,35%)" stroke-width="0.00100"></path>
<path d="M1.060 0.321 Q1.294 0.239 1.185 0.107" stroke="hsl(0.0,100%,35%)" stroke-width="0.00100"></path>
<path d="M0.379 0.526 Q0.883 0.559 1.060 0.321" stroke="hsl(0.0,100%,35%)" stroke-width="0.00100"></path>
<path d="M0.379 0.526 Q0.848 0.732 1.354 0.548" stroke="hsl(0.0,100%,35%)" stroke-width="0.00200"></path>
<path d="M0.379 0.526 Q0.512 0.367 0.231 0.267" stroke="hsl(0.0,100%,35%)" stroke-width="0.00100"></path>
<path d="M0.577 0.371 Q1.045 0.576 1.548 0.392" stroke="hsl(0.0,100%,35%)" stroke-width="0.00699"></path>
<path d="M0.577 0.371 Q0.858 0.442 1.060 0.321" stroke="hsl(0.0,100%,35%)" stroke-width="0.05294"></path>
<path d="M0.577 0.371 Q0.941 0.515 1.302 0.369" stroke="hsl(0.0,100%,35%)" stroke-width="0.00200"></path>
<path d="M0.577 0.371 Q0.758 0.260 0.581 0.147" stroke="hsl(0.0,100%,35%)" stroke-width="0.00200"></path>
<path d="M0.577 0.371 Q0.823 0.615 1.354 0.548" stroke="hsl(0.0,100%,35%)" stroke-width="0.00400"></path>
<path d="M0.577 0.371 Q0.740 0.457 0.943 0.396" stroke="hsl(0.0,100%,35%)" stroke-width="0.00599"></path>
<path d="M0.577 0.371 Q0.660 0.400 0.735 0.366" stroke="hsl(0.0,100%,35%)" stroke-width="0.00300"></path>
<path d="M0.577 0.371 Q0.843 0.325 0.813 0.186" stroke="hsl(0.0,100%,35%)" stroke-width="0.00100"></path>
<path d="M0.577 0.371 Q0.462 0.450 0.591 0.523" stroke="hsl(0.0,100%,35%)" stroke-width="0.00100"></path>
<path d="M1.302 0.369 Q1.406 0.430 1.548 0.392" stroke="hsl(0.0,100%,35%)" stroke-width="0.02098"></path>
<path d="M1.302 0.369 Q1.219 0.297 1.060 0.321" stroke="hsl(0.0,100%,35%)" stroke-width="0.03696"></path>
<path d="M1.302 0.369 Q0.938 0.225 0.577 0.371" stroke="hsl(0.0,100%,35%)" stroke-width="0.01598"></path>
<path d="M1.302 0.369 Q1.184 0.469 1.354 0.548" stroke="hsl(0.0,100%,35%)" stroke-width="0.00999"></path>
<path d="M1.302 0.369 Q1.362 0.271 1.184 0.220" stroke="hsl(0.0,100%,35%)" stroke-width="0.00200"></path>
<path d="M1.302 0.369 Q1.101 0.311 0.943 0.396" stroke="hsl(0.0,100%,35%)" stroke-width="0.00100"></path>
<path d="M1.302 0.369 Q1.204 0.180 0.813 0.186" stroke="hsl(0.0,100%,35%)" stroke-width="0.00200"></path>
<path d="M1.302 0.369 Q1.164 0.376 1.147 0.445" stroke="hsl(0.0,100%,35%)" stroke-width="0.00899"></path>
<path d="M1.302 0.369 Q0.848 0.104 0.231 0.267" stroke="hsl(0.0,100%,35%)" stroke-width="0.00100"></path>
<path d="M1.354 0.548 Q1.575 0.509 1.548 0.392" stroke="hsl(0.0,100%,35%)" stroke-width="0.00100"></path>
<path d="M1.354 0.548 Q1.388 0.376 1.060 0.321" stroke="hsl(0.0,100%,35%)" stroke-width="0.03596"></path>
<path d="M1.354 0.548 Q1.107 0.304 0.577 0.371" stroke="hsl(0.0,100%,35%)" stroke-width="0.00100"></path>
<path d="M1.354 0.548 Q1.472 0.262 0.938 0.141" stroke="hsl(0.0,100%,35%)" stroke-width="0.00100"></path>
<path d="M1.354 0.548 Q1.373 0.259 0.813 0.186" stroke="hsl(0.0,100%,35%)" stroke-width="0.00899"></path>
<path d="M1.354 0.548 Q1.270 0.390 0.943 0.396" stroke="hsl(0.0,100%,35%)" stroke-width="0.00100"></path>
<path d="M1.354 0.548 Q1.333 0.455 1.147 0.445" stroke="hsl(0.0,100%,35%)" stroke-width="0.02697"></path>
<path d="M1.354 0.548 Q1.325 0.490 1.205 0.491" stroke="hsl(0.0,100%,35%)" stroke-width="0.00300"></path>
<path d="M1.354 0.548 Q1.496 0.625 1.676 0.572" stroke="hsl(0.0,100%,35%)" stroke-width="0.00100"></path>
<path d="M1.354 0.548 Q1.245 0.322 0.780 0.325" stroke="hsl(0.0,100%,35%)" stroke-width="0.00100"></path>
<path d="M1.354 0.548 Q1.433 0.631 1.613 0.611" stroke="hsl(0.0,100%,35%)" stroke-width="0.00400"></path>
<path d="M1.354 0.548 Q1.186 0.560 1.172 0.645" stroke="hsl(0.0,100%,35%)" stroke-width="0.00200"></path>
<path d="M1.484 0.463 Q1.350 0.479 1.354 0.548" stroke="hsl(0.0,100%,35%)" stroke-width="0.00200"></path>
<path d="M1.484 0.463 Q0.881 0.273 0.379 0.526" stroke="hsl(0.0,100%,35%)" stroke-width="0.00100"></path>
<path d="M1.484 0.463 Q0.837 0.144 0.074 0.390" stroke="hsl(0.0,100%,35%)" stroke-width="0.00100"></path>
<path d="M0.931 0.455 Q1.290 0.547 1.548 0.392" stroke="hsl(0.0,100%,35%)" stroke-width="0.00100"></path>
<path d="M0.931 0.455 Q0.599 0.380 0.379 0.526" stroke="hsl(0.0,100%,35%)" stroke-width="0.00200"></path>
<path d="M0.931 0.455 Q1.103 0.414 1.060 0.321" stroke="hsl(0.0,100%,35%)" stroke-width="0.00999"></path>
<path d="M0.931 0.455 Q1.068 0.586 1.354 0.548" stroke="hsl(0.0,100%,35%)" stroke-width="0.00599"></path>
<path d="M1.339 0.389 Q1.254 0.299 1.060 0.321" stroke="hsl(0.0,100%,35%)" stroke-width="0.00300"></path>
<path d="M1.339 0.389 Q0.972 0.228 0.577 0.371" stroke="hsl(0.0,100%,35%)" stroke-width="0.00100"></path>
<path d="M1.339 0.389 Q1.361 0.548 1.676 0.572" stroke="hsl(0.0,100%,35%)" stroke-width="0.00100"></path>
<path d="M1.339 0.389 Q1.219 0.472 1.354 0.548" stroke="hsl(0.0,100%,35%)" stroke-width="0.00100"></path>
<path d="M1.676 0.572 Q1.756 0.456 1.548 0.392" stroke="hsl(0.0,100%,35%)" stroke-width="0.00100"></path>
<path d="M1.676 0.572 Q1.534 0.495 1.354 0.548" stroke="hsl(0.0,100%,35%)" stroke-width="0.00200"></path>
<path d="M1.676 0.572 Q1.514 0.402 1.147 0.445" stroke="hsl(0.0,100%,35%)" stroke-width="0.00100"></path>
<path d="M0.943 0.396 Q1.248 0.515 1.548 0.392" stroke="hsl(0.0,100%,35%)" stroke-width="0.00200"></path>
<path d="M0.943 0.396 Q1.061 0.382 1.060 0.321" stroke="hsl(0.0,100%,35%)" stroke-width="0.02997"></path>
<path d="M0.943 0.396 Q0.780 0.310 0.577 0.371" stroke="hsl(0.0,100%,35%)" stroke-width="0.00100"></path>
<path d="M0.943 0.396 Q1.046 0.265 0.813 0.186" stroke="hsl(0.0,100%,35%)" stroke-width="0.00400"></path>
<path d="M0.943 0.396 Q1.006 0.461 1.147 0.445" stroke="hsl(0.0,100%,35%)" stroke-width="0.01498"></path>
<path d="M0.943 0.396 Q1.026 0.554 1.354 0.548" stroke="hsl(0.0,100%,35%)" stroke-width="0.00200"></path>
<path d="M0.813 0.186 Q0.911 0.375 1.302 0.369" stroke="hsl(120.0,100%,35%)" stroke-width="0.00200"></path>
<path d="M0.813 0.186 Q0.793 0.475 1.354 0.548" stroke="hsl(120.0,100%,35%)" stroke-width="0.00400"></path>
<path d="M0.813 0.186 Q0.828 0.303 1.060 0.321" stroke="hsl(120.0,100%,35%)" stroke-width="0.01199"></path>
<path d="M0.813 0.186 Q0.773 0.382 1.147 0.445" stroke="hsl(120.0,100%,35%)" stroke-width="0.00100"></path>
<path d="M0.813 0.186 Q0.911 0.188 0.938 0.141" stroke="hsl(120.0,100%,35%)" stroke-width="0.00200"></path>
<path d="M0.813 0.186 Q0.546 0.231 0.577 0.371" stroke="hsl(120.0,100%,35%)" stroke-width="0.00100"></path>
<path d="M0.813 0.186 Q0.499 0.328 0.708 0.512" stroke="hsl(120.0,100%,35%)" stroke-width="0.00100"></path>
<path d="M0.813 0.186 Q0.905 0.164 0.883 0.114" stroke="hsl(120.0,100%,35%)" stroke-width="0.00100"></path>
<path d="M1.147 0.445 Q1.203 0.365 1.060 0.321" stroke="hsl(0.0,100%,35%)" stroke-width="0.07691"></path>
<path d="M1.147 0.445 Q1.168 0.538 1.354 0.548" stroke="hsl(0.0,100%,35%)" stroke-width="0.01498"></path>
<path d="M1.147 0.445 Q1.187 0.248 0.813 0.186" stroke="hsl(0.0,100%,35%)" stroke-width="0.00999"></path>
<path d="M1.147 0.445 Q1.084 0.379 0.943 0.396" stroke="hsl(0.0,100%,35%)" stroke-width="0.00899"></path>
<path d="M0.780 0.325 Q0.923 0.379 1.060 0.321" stroke="hsl(120.0,100%,35%)" stroke-width="0.00999"></path>
<path d="M0.780 0.325 Q0.805 0.393 0.943 0.396" stroke="hsl(120.0,100%,35%)" stroke-width="0.00100"></path>
<path d="M0.780 0.325 Q0.908 0.262 0.813 0.186" stroke="hsl(120.0,100%,35%)" stroke-width="0.01798"></path>
<path d="M0.780 0.325 Q1.093 0.258 1.031 0.091" stroke="hsl(120.0,100%,35%)" stroke-width="0.00100"></path>
<path d="M0.780 0.325 Q0.939 0.218 0.765 0.117" stroke="hsl(120.0,100%,35%)" stroke-width="0.00100"></path>
<path d="M1.205 0.491 Q1.268 0.377 1.060 0.321" stroke="hsl(0.0,100%,35%)" stroke-width="0.04495"></path>
<path d="M1.205 0.491 Q1.234 0.549 1.354 0.548" stroke="hsl(0.0,100%,35%)" stroke-width="0.00200"></path>
<path d="M1.205 0.491 Q1.213 0.456 1.147 0.445" stroke="hsl(0.0,100%,35%)" stroke-width="0.00499"></path>
<path d="M1.205 0.491 Q1.125 0.323 0.780 0.325" stroke="hsl(0.0,100%,35%)" stroke-width="0.00100"></path>
<path d="M1.205 0.491 Q1.253 0.260 0.813 0.186" stroke="hsl(0.0,100%,35%)" stroke-width="0.00300"></path>
<path d="M1.205 0.491 Q1.376 0.626 1.676 0.572" stroke="hsl(0.0,100%,35%)" stroke-width="0.00100"></path>
<path d="M1.185 0.107 Q0.670 0.117 0.577 0.371" stroke="hsl(120.0,100%,35%)" stroke-width="0.00100"></path>
<path d="M1.185 0.107 Q0.951 0.189 1.060 0.321" stroke="hsl(120.0,100%,35%)" stroke-width="0.00400"></path>
<path d="M1.185 0.107 Q0.936 0.072 0.813 0.186" stroke="hsl(120.0,100%,35%)" stroke-width="0.00400"></path>
<path d="M1.185 0.107 Q0.833 0.203 0.943 0.396" stroke="hsl(120.0,100%,35%)" stroke-width="0.00200"></path>
<path d="M1.185 0.107 Q1.235 0.186 1.400 0.180" stroke="hsl(120.0,100%,35%)" stroke-width="0.00100"></path>
<path d="M1.185 0.107 Q0.576 0.530 1.268 0.921" stroke="hsl(120.0,100%,35%)" stroke-width="0.00100"></path>
<path d="M1.185 0.107 Q1.200 0.192 1.370 0.204" stroke="hsl(120.0,100%,35%)" stroke-width="0.00100"></path>
<path d="M1.185 0.107 Q0.146 0.215 0.130 0.746" stroke="hsl(120.0,100%,35%)" stroke-width="0.00100"></path>
<path d="M1.185 0.107 Q0.896 0.268 1.147 0.445" stroke="hsl(120.0,100%,35%)" stroke-width="0.00100"></path>
<path d="M1.184 0.220 Q1.041 0.246 1.060 0.321" stroke="hsl(0.0,100%,35%)" stroke-width="0.00799"></path>
<path d="M1.184 0.220 Q1.228 0.379 1.548 0.392" stroke="hsl(0.0,100%,35%)" stroke-width="0.00200"></path>
<path d="M1.184 0.220 Q1.124 0.318 1.302 0.369" stroke="hsl(0.0,100%,35%)" stroke-width="0.00300"></path>
<path d="M1.184 0.220 Q0.537 0.212 0.379 0.526" stroke="hsl(0.0,100%,35%)" stroke-width="0.00400"></path>
<path d="M0.708 0.512 Q1.022 0.370 0.813 0.186" stroke="hsl(120.0,100%,35%)" stroke-width="0.00799"></path>
<path d="M0.708 0.512 Q0.755 0.415 0.577 0.371" stroke="hsl(120.0,100%,35%)" stroke-width="0.01398"></path>
<path d="M0.203 0.596 Q0.836 0.513 0.813 0.186" stroke="hsl(120.0,100%,35%)" stroke-width="0.00100"></path>
<path d="M0.203 0.596 Q0.047 0.656 0.130 0.746" stroke="hsl(120.0,100%,35%)" stroke-width="0.00200"></path>
<path d="M0.203 0.596 Q0.156 0.707 0.362 0.755" stroke="hsl(120.0,100%,35%)" stroke-width="0.00200"></path>
<path d="M0.203 0.596 Q0.353 0.616 0.425 0.548" stroke="hsl(120.0,100%,35%)" stroke-width="0.00100"></path>
<path d="M0.362 0.755 Q0.253 0.704 0.130 0.746" stroke="hsl(120.0,100%,35%)" stroke-width="0.00200"></path>
<path d="M0.362 0.755 Q0.187 0.818 0.272 0.917" stroke="hsl(120.0,100%,35%)" stroke-width="0.00200"></path>
<path d="M0.362 0.755 Q0.350 0.870 0.572 0.901" stroke="hsl(120.0,100%,35%)" stroke-width="0.00100"></path>
<path d="M0.362 0.755 Q1.043 0.560 0.813 0.186" stroke="hsl(120.0,100%,35%)" stroke-width="0.00100"></path>
<path d="M0.853 0.523 Q1.118 0.463 1.060 0.321" stroke="hsl(0.0,100%,35%)" stroke-width="0.00400"></path>
<path d="M0.853 0.523 Q1.055 0.577 1.205 0.491" stroke="hsl(0.0,100%,35%)" stroke-width="0.00200"></path>
<path d="M0.853 0.523 Q1.063 0.543 1.147 0.445" stroke="hsl(0.0,100%,35%)" stroke-width="0.00100"></path>
<path d="M0.855 0.333 Q0.967 0.368 1.060 0.321" stroke="hsl(0.0,100%,35%)" stroke-width="0.00400"></path>
<path d="M0.855 0.333 Q0.912 0.447 1.147 0.445" stroke="hsl(0.0,100%,35%)" stroke-width="0.00100"></path>
<path d="M0.855 0.333 Q0.952 0.251 0.813 0.186" stroke="hsl(0.0,100%,35%)" stroke-width="0.00100"></path>
<path d="M0.363 0.139 Q0.709 0.344 1.184 0.220" stroke="hsl(0.0,100%,35%)" stroke-width="0.00100"></path>
<path d="M0.363 0.139 Q0.262 0.109 0.181 0.152" stroke="hsl(0.0,100%,35%)" stroke-width="0.00100"></path>
<path d="M0.363 0.139 Q0.533 0.122 0.535 0.035" stroke="hsl(0.0,100%,35%)" stroke-width="0.00100"></path>
<path d="M1.239 0.668 Q1.427 0.458 1.060 0.321" stroke="hsl(0.0,100%,35%)" stroke-width="0.00400"></path>
<path d="M1.239 0.668 Q1.371 0.538 1.147 0.445" stroke="hsl(0.0,100%,35%)" stroke-width="0.00400"></path>
<path d="M1.239 0.668 Q1.411 0.341 0.813 0.186" stroke="hsl(0.0,100%,35%)" stroke-width="0.00300"></path>
<path d="M0.869 0.526 Q1.129 0.462 1.060 0.321" stroke="hsl(0.0,100%,35%)" stroke-width="0.00200"></path>
<path d="M0.869 0.526 Q1.074 0.541 1.147 0.445" stroke="hsl(0.0,100%,35%)" stroke-width="0.00100"></path>
<path d="M1.785 0.499 Q1.944 0.473 1.926 0.389" stroke="hsl(120.0,100%,35%)" stroke-width="0.00100"></path>
<path d="M1.785 0.499 Q1.550 0.148 0.813 0.186" stroke="hsl(120.0,100%,35%)" stroke-width="0.00100"></path>
<path d="M1.785 0.499 Q1.855 0.458 1.789 0.414" stroke="hsl(120.0,100%,35%)" stroke-width="0.00100"></path>
<path d="M1.785 0.499 Q1.820 0.552 1.930 0.546" stroke="hsl(120.0,100%,35%)" stroke-width="0.00100"></path>
<path d="M1.507 0.167 Q1.636 0.203 1.734 0.147" stroke="hsl(240.0,100%,35%)" stroke-width="0.00300"></path>
<path d="M1.507 0.167 Q1.547 0.100 1.425 0.065" stroke="hsl(240.0,100%,35%)" stroke-width="0.00200"></path>
<path d="M1.507 0.167 Q1.614 0.100 1.507 0.033" stroke="hsl(240.0,100%,35%)" stroke-width="0.00200"></path>
<path d="M1.289 0.463 Q1.288 0.346 1.060 0.321" stroke="hsl(0.0,100%,35%)" stroke-width="0.00400"></path>
<path d="M1.289 0.463 Q1.475 0.479 1.548 0.392" stroke="hsl(0.0,100%,35%)" stroke-width="0.00100"></path>
<path d="M1.289 0.463 Q1.007 0.275 0.577 0.371" stroke="hsl(0.0,100%,35%)" stroke-width="0.00100"></path>
<path d="M1.070 0.970 Q1.208 0.985 1.268 0.921" stroke="hsl(120.0,100%,35%)" stroke-width="0.00100"></path>
<path d="M1.070 0.970 Q1.175 0.907 1.077 0.842" stroke="hsl(120.0,100%,35%)" stroke-width="0.00100"></path>
<path d="M1.070 0.970 Q1.529 0.723 1.147 0.445" stroke="hsl(120.0,100%,35%)" stroke-width="0.00100"></path>
<path d="M1.711 0.233 Q1.300 0.030 0.813 0.186" stroke="hsl(120.0,100%,35%)" stroke-width="0.00100"></path>
<path d="M1.711 0.233 Q1.827 0.268 1.921 0.220" stroke="hsl(120.0,100%,35%)" stroke-width="0.00100"></path>
<path d="M1.711 0.233 Q1.848 0.227 1.866 0.159" stroke="hsl(120.0,100%,35%)" stroke-width="0.00100"></path>
<path d="M1.711 0.233 Q1.710 0.267 1.777 0.275" stroke="hsl(120.0,100%,35%)" stroke-width="0.00100"></path>
<path d="M1.711 0.233 Q0.714 0.381 0.783 0.899" stroke="hsl(120.0,100%,35%)" stroke-width="0.00100"></path>
<path d="M1.711 0.233 Q1.315 0.147 1.060 0.321" stroke="hsl(120.0,100%,35%)" stroke-width="0.00100"></path>
<path d="M1.711 0.233 Q1.677 0.195 1.594 0.203" stroke="hsl(120.0,100%,35%)" stroke-width="0.00100"></path>
<path d="M1.597 0.908 Q1.763 0.680 1.354 0.548" stroke="hsl(120.0,100%,35%)" stroke-width="0.00100"></path>
<path d="M1.597 0.908 Q1.783 0.390 0.813 0.186" stroke="hsl(120.0,100%,35%)" stroke-width="0.00100"></path>
<path d="M1.597 0.908 Q1.798 0.507 1.060 0.321" stroke="hsl(120.0,100%,35%)" stroke-width="0.00100"></path>
<path d="M1.101 0.148 Q0.824 0.240 0.943 0.396" stroke="hsl(120.0,100%,35%)" stroke-width="0.00100"></path>
<path d="M1.101 0.148 Q0.927 0.109 0.813 0.186" stroke="hsl(120.0,100%,35%)" stroke-width="0.00100"></path>
<path d="M1.101 0.148 Q1.206 0.224 1.378 0.190" stroke="hsl(120.0,100%,35%)" stroke-width="0.00100"></path>
<path d="M0.772 0.556 Q0.822 0.424 0.577 0.371" stroke="hsl(120.0,100%,35%)" stroke-width="0.00200"></path>
<path d="M0.772 0.556 Q0.775 0.521 0.708 0.512" stroke="hsl(120.0,100%,35%)" stroke-width="0.00100"></path>
<path d="M0.772 0.556 Q1.088 0.379 0.813 0.186" stroke="hsl(120.0,100%,35%)" stroke-width="0.00100"></path>
<path d="M0.826 0.065 Q0.457 0.168 0.577 0.371" stroke="hsl(0.0,100%,35%)" stroke-width="0.00100"></path>
<path d="M0.826 0.065 Q0.738 0.240 1.060 0.321" stroke="hsl(0.0,100%,35%)" stroke-width="0.00100"></path>
<path d="M1.338 0.740 Q1.534 0.475 1.060 0.321" stroke="hsl(0.0,100%,35%)" stroke-width="0.00200"></path>
<path d="M1.338 0.740 Q1.416 0.489 0.943 0.396" stroke="hsl(0.0,100%,35%)" stroke-width="0.00100"></path>
<path d="M1.338 0.740 Q1.499 0.647 1.354 0.548" stroke="hsl(0.0,100%,35%)" stroke-width="0.00200"></path>
<path d="M1.617 0.550 Q1.709 0.457 1.548 0.392" stroke="hsl(0.0,100%,35%)" stroke-width="0.00200"></path>
<path d="M1.617 0.550 Q1.240 0.253 0.577 0.371" stroke="hsl(0.0,100%,35%)" stroke-width="0.00100"></path>
<path d="M1.617 0.550 Q1.404 0.338 0.943 0.396" stroke="hsl(0.0,100%,35%)" stroke-width="0.00100"></path>
<path d="M1.617 0.550 Q1.466 0.404 1.147 0.445" stroke="hsl(0.0,100%,35%)" stroke-width="0.00100"></path>
<path d="M1.246 0.587 Q1.365 0.417 1.060 0.321" stroke="hsl(0.0,100%,35%)" stroke-width="0.00599"></path>
<path d="M1.246 0.587 Q1.350 0.300 0.813 0.186" stroke="hsl(0.0,100%,35%)" stroke-width="0.00100"></path>
<path d="M1.246 0.587 Q1.330 0.589 1.354 0.548" stroke="hsl(0.0,100%,35%)" stroke-width="0.00100"></path>
<path d="M0.735 0.366 Q0.918 0.291 0.813 0.186" stroke="hsl(0.0,100%,35%)" stroke-width="0.00100"></path>
<path d="M0.735 0.366 Q0.652 0.337 0.577 0.371" stroke="hsl(0.0,100%,35%)" stroke-width="0.00100"></path>
<path d="M0.735 0.366 Q0.934 0.408 1.060 0.321" stroke="hsl(0.0,100%,35%)" stroke-width="0.00100"></path>
<path d="M0.735 0.366 Q0.878 0.488 1.147 0.445" stroke="hsl(0.0,100%,35%)" stroke-width="0.00100"></path>
<path d="M0.735 0.366 Q0.816 0.422 0.943 0.396" stroke="hsl(0.0,100%,35%)" stroke-width="0.00100"></path>
<path d="M1.392 0.081 Q1.034 0.134 1.060 0.321" stroke="hsl(120.0,100%,35%)" stroke-width="0.00100"></path>
<path d="M1.392 0.081 Q1.019 0.017 0.813 0.186" stroke="hsl(120.0,100%,35%)" stroke-width="0.00100"></path>
<path d="M1.392 0.081 Q1.268 0.052 1.185 0.107" stroke="hsl(120.0,100%,35%)" stroke-width="0.00100"></path>
<path d="M1.593 0.455 Q1.516 0.354 1.302 0.369" stroke="hsl(0.0,100%,35%)" stroke-width="0.00100"></path>
<path d="M1.593 0.455 Q1.434 0.281 1.060 0.321" stroke="hsl(0.0,100%,35%)" stroke-width="0.00400"></path>
<path d="M1.593 0.455 Q1.378 0.361 1.147 0.445" stroke="hsl(0.0,100%,35%)" stroke-width="0.00100"></path>
<path d="M1.593 0.455 Q1.399 0.454 1.354 0.548" stroke="hsl(0.0,100%,35%)" stroke-width="0.00200"></path>
<path d="M0.734 0.775 Q0.552 0.805 0.572 0.901" stroke="hsl(120.0,100%,35%)" stroke-width="0.00100"></path>
<path d="M0.734 0.775 Q0.740 0.710 0.615 0.692" stroke="hsl(120.0,100%,35%)" stroke-width="0.00100"></path>
<path d="M0.734 0.775 Q0.659 0.847 0.783 0.899" stroke="hsl(120.0,100%,35%)" stroke-width="0.00100"></path>
<path d="M1.534 0.632 Q1.705 0.555 1.593 0.455" stroke="hsl(0.0,100%,35%)" stroke-width="0.00100"></path>
<path d="M1.534 0.632 Q1.511 0.554 1.354 0.548" stroke="hsl(0.0,100%,35%)" stroke-width="0.00100"></path>
<path d="M1.534 0.632 Q1.482 0.495 1.205 0.491" stroke="hsl(0.0,100%,35%)" stroke-width="0.00100"></path>
<path d="M1.534 0.632 Q1.546 0.381 1.060 0.321" stroke="hsl(0.0,100%,35%)" stroke-width="0.00100"></path>
<path d="M1.573 0.793 Q1.679 0.337 0.813 0.186" stroke="hsl(120.0,100%,35%)" stroke-width="0.00200"></path>
<path d="M1.573 0.793 Q1.493 0.855 1.597 0.908" stroke="hsl(120.0,100%,35%)" stroke-width="0.00200"></path>
<path d="M1.573 0.793 Q1.694 0.454 1.060 0.321" stroke="hsl(120.0,100%,35%)" stroke-width="0.00200"></path>
<path d="M1.573 0.793 Q1.984 0.647 1.789 0.414" stroke="hsl(120.0,100%,35%)" stroke-width="0.00100"></path>
<path d="M1.573 0.793 Q1.419 0.517 0.848 0.533" stroke="hsl(120.0,100%,35%)" stroke-width="0.00100"></path>
<path d="M1.573 0.793 Q1.949 0.741 1.930 0.546" stroke="hsl(120.0,100%,35%)" stroke-width="0.00100"></path>
<path d="M1.573 0.793 Q1.576 0.468 0.943 0.396" stroke="hsl(120.0,100%,35%)" stroke-width="0.00100"></path>
<path d="M1.932 0.324 Q1.860 0.319 1.834 0.353" stroke="hsl(120.0,100%,35%)" stroke-width="0.00100"></path>
<path d="M1.932 0.324 Q1.499 0.148 1.060 0.321" stroke="hsl(120.0,100%,35%)" stroke-width="0.00100"></path>
<path d="M1.932 0.324 Q1.484 0.031 0.813 0.186" stroke="hsl(120.0,100%,35%)" stroke-width="0.00100"></path>
</g>
<text x="0.074" y="0.377" font-size="0.026652" fill="hsl(0.0,100%,20%)">aaronwood</text>
<text x="1.548" y="0.369" font-size="0.045679" fill="hsl(0.0,100%,20%)">tikuta</text>
<text x="0.130" y="0.441" font-size="0.004711" fill="hsl(0.0,100%,20%)">computerdruid</text>
<text x="1.060" y="0.271" font-size="0.098940" fill="hsl(0.0,100%,20%)">brettw</text>
<text x="0.379" y="0.515" font-size="0.020537" fill="hsl(0.0,100%,20%)">tmandry</text>
<text x="0.577" y="0.345" font-size="0.052886" fill="hsl(0.0,100%,20%)">sdefresne</text>
<text x="1.302" y="0.344" font-size="0.051179" fill="hsl(0.0,100%,20%)">digit</text>
<text x="1.354" y="0.518" font-size="0.060885" fill="hsl(0.0,100%,20%)">phosek</text>
<text x="1.484" y="0.457" font-size="0.010535" fill="hsl(0.0,100%,20%)">paulfaria</text>
<text x="0.231" y="0.262" font-size="0.010535" fill="hsl(0.0,100%,20%)">bwb</text>
<text x="0.931" y="0.445" font-size="0.020537" fill="hsl(0.0,100%,20%)">adetaylor</text>
<text x="1.339" y="0.383" font-size="0.011541" fill="hsl(0.0,100%,20%)">andrewsavage</text>
<text x="1.676" y="0.565" font-size="0.013326" fill="hsl(0.0,100%,20%)">mcgrathr</text>
<text x="0.943" y="0.374" font-size="0.042923" fill="hsl(0.0,100%,20%)">thakis</text>
<text x="0.813" y="0.160" font-size="0.050304" fill="hsl(120.0,100%,20%)">dpranke</text>
<text x="1.147" y="0.411" font-size="0.066630" fill="hsl(0.0,100%,20%)">scottmg</text>
<text x="0.780" y="0.311" font-size="0.027472" fill="hsl(120.0,100%,20%)">thomasanderson</text>
<text x="1.205" y="0.472" font-size="0.038276" fill="hsl(0.0,100%,20%)">juliehockett</text>
<text x="0.848" y="0.529" font-size="0.008160" fill="hsl(120.0,100%,20%)">wfh</text>
<text x="0.130" y="0.740" font-size="0.012465" fill="hsl(120.0,100%,20%)">dcheng</text>
<text x="0.834" y="0.677" font-size="0.004711" fill="hsl(0.0,100%,20%)">rockot</text>
<text x="1.185" y="0.097" font-size="0.019989" fill="hsl(120.0,100%,20%)">brucedawson</text>
<text x="1.400" y="0.177" font-size="0.004711" fill="hsl(120.0,100%,20%)">mef</text>
<text x="1.268" y="0.918" font-size="0.006663" fill="hsl(120.0,100%,20%)">sky</text>
<text x="1.370" y="0.202" font-size="0.004711" fill="hsl(120.0,100%,20%)">jam</text>
<text x="1.184" y="0.210" font-size="0.021070" fill="hsl(0.0,100%,20%)">danakj</text>
<text x="0.938" y="0.137" font-size="0.008160" fill="hsl(120.0,100%,20%)">iannucci</text>
<text x="0.708" y="0.500" font-size="0.023081" fill="hsl(120.0,100%,20%)">liaoyuke</text>
<text x="0.883" y="0.112" font-size="0.004711" fill="hsl(120.0,100%,20%)">smut</text>
<text x="0.203" y="0.590" font-size="0.011541" fill="hsl(120.0,100%,20%)">erikchen</text>
<text x="0.362" y="0.748" font-size="0.013326" fill="hsl(120.0,100%,20%)">ssid</text>
<text x="0.425" y="0.545" font-size="0.004711" fill="hsl(120.0,100%,20%)">haraken</text>
<text x="0.853" y="0.517" font-size="0.012465" fill="hsl(0.0,100%,20%)">haowei</text>
<text x="0.855" y="0.327" font-size="0.011541" fill="hsl(0.0,100%,20%)">jamesr</text>
<text x="0.363" y="0.135" font-size="0.008160" fill="hsl(0.0,100%,20%)">jbroman</text>
<text x="0.181" y="0.149" font-size="0.004711" fill="hsl(0.0,100%,20%)">dalecurtis</text>
<text x="0.535" y="0.033" font-size="0.004711" fill="hsl(0.0,100%,20%)">tzik</text>
<text x="1.239" y="0.660" font-size="0.015626" fill="hsl(0.0,100%,20%)">joearmstrong334</text>
<text x="0.869" y="0.522" font-size="0.008160" fill="hsl(0.0,100%,20%)">joshuaseaton</text>
<text x="1.785" y="0.495" font-size="0.009423" fill="hsl(120.0,100%,20%)">jyan</text>
<text x="1.926" y="0.387" font-size="0.004711" fill="hsl(120.0,100%,20%)">scroggo</text>
<text x="1.789" y="0.411" font-size="0.006663" fill="hsl(120.0,100%,20%)">mark</text>
<text x="1.930" y="0.543" font-size="0.006663" fill="hsl(120.0,100%,20%)">palmer</text>
<text x="1.507" y="0.161" font-size="0.012465" fill="hsl(240.0,100%,20%)">lizeb</text>
<text x="1.734" y="0.143" font-size="0.008160" fill="hsl(240.0,100%,20%)">mattcary</text>
<text x="1.425" y="0.062" font-size="0.006663" fill="hsl(240.0,100%,20%)">pasko</text>
<text x="1.507" y="0.030" font-size="0.006663" fill="hsl(240.0,100%,20%)">agrieve</text>
<text x="1.289" y="0.457" font-size="0.011541" fill="hsl(0.0,100%,20%)">mfarazma</text>
<text x="1.070" y="0.966" font-size="0.008160" fill="hsl(120.0,100%,20%)">michaelpg</text>
<text x="1.077" y="0.840" font-size="0.004711" fill="hsl(120.0,100%,20%)">xhwang</text>
<text x="1.711" y="0.227" font-size="0.012465" fill="hsl(120.0,100%,20%)">msimonides</text>
<text x="1.921" y="0.217" font-size="0.004711" fill="hsl(120.0,100%,20%)">reveman</text>
<text x="1.866" y="0.156" font-size="0.004711" fill="hsl(120.0,100%,20%)">yzshen</text>
<text x="1.777" y="0.273" font-size="0.004711" fill="hsl(120.0,100%,20%)">grt</text>
<text x="0.783" y="0.896" font-size="0.006663" fill="hsl(120.0,100%,20%)">jochen</text>
<text x="1.594" y="0.200" font-size="0.004711" fill="hsl(120.0,100%,20%)">pkasting</text>
<text x="1.597" y="0.903" font-size="0.010535" fill="hsl(120.0,100%,20%)">pcc</text>
<text x="1.101" y="0.144" font-size="0.008160" fill="hsl(120.0,100%,20%)">pennymac</text>
<text x="1.378" y="0.187" font-size="0.004711" fill="hsl(120.0,100%,20%)">mmoroz</text>
<text x="0.772" y="0.551" font-size="0.009423" fill="hsl(120.0,100%,20%)">peterhanspers</text>
<text x="0.826" y="0.062" font-size="0.006663" fill="hsl(0.0,100%,20%)">phajdan.jr</text>
<text x="1.613" y="0.606" font-size="0.009423" fill="hsl(0.0,100%,20%)">vadimsh</text>
<text x="1.172" y="0.641" font-size="0.006663" fill="hsl(0.0,100%,20%)">tandrii</text>
<text x="1.338" y="0.735" font-size="0.010535" fill="hsl(0.0,100%,20%)">raphael.kubo.da.costa</text>
<text x="1.617" y="0.545" font-size="0.010535" fill="hsl(0.0,100%,20%)">ribalda</text>
<text x="1.246" y="0.580" font-size="0.013326" fill="hsl(0.0,100%,20%)">rjascani</text>
<text x="0.735" y="0.359" font-size="0.013326" fill="hsl(0.0,100%,20%)">rsesek</text>
<text x="1.392" y="0.077" font-size="0.008160" fill="hsl(120.0,100%,20%)">samogot</text>
<text x="0.581" y="0.144" font-size="0.006663" fill="hsl(0.0,100%,20%)">justincohen</text>
<text x="0.591" y="0.521" font-size="0.004711" fill="hsl(0.0,100%,20%)">noyau</text>
<text x="1.593" y="0.448" font-size="0.014134" fill="hsl(0.0,100%,20%)">shayba</text>
<text x="0.734" y="0.771" font-size="0.008160" fill="hsl(120.0,100%,20%)">skyostil</text>
<text x="0.572" y="0.898" font-size="0.006663" fill="hsl(120.0,100%,20%)">primiano</text>
<text x="0.615" y="0.690" font-size="0.004711" fill="hsl(120.0,100%,20%)">tdresser</text>
<text x="0.272" y="0.914" font-size="0.006663" fill="hsl(120.0,100%,20%)">xunjieli</text>
<text x="1.031" y="0.089" font-size="0.004711" fill="hsl(120.0,100%,20%)">fdoray</text>
<text x="0.765" y="0.115" font-size="0.004711" fill="hsl(120.0,100%,20%)">thestig</text>
<text x="1.534" y="0.627" font-size="0.009423" fill="hsl(0.0,100%,20%)">tsniatowski</text>
<text x="1.573" y="0.785" font-size="0.014899" fill="hsl(120.0,100%,20%)">vtsyrklevich</text>
<text x="1.932" y="0.320" font-size="0.008160" fill="hsl(120.0,100%,20%)">wangqing-hf</text>
<text x="1.834" y="0.351" font-size="0.004711" fill="hsl(120.0,100%,20%)">machenbach</text>
</svg>
