<svg width="4000" height="2000" viewBox="-0.025 -0.025 2.05 1.05" xmlns="http://www.w3.org/2000/svg">
  <style>
    path {
      fill: none;
      stroke-linecap: round;
      stroke-opacity: 0.4;
    }

    text {
      text-anchor: middle;
      alignment-baseline: hanging;
    }
  </style>
  <g opacity="0.4">
<path d="M0.074 0.384 Q0.804 0.683 1.548 0.393" stroke="hsl(0.0,100%,35%)" stroke-width="0.00400"></path>
<path d="M0.074 0.384 Q0.055 0.425 0.130 0.443" stroke="hsl(0.0,100%,35%)" stroke-width="0.00100"></path>
<path d="M0.074 0.384 Q0.618 0.550 1.060 0.320" stroke="hsl(0.0,100%,35%)" stroke-width="0.00699"></path>
<path d="M0.074 0.384 Q0.110 0.518 0.379 0.529" stroke="hsl(0.0,100%,35%)" stroke-width="0.00799"></path>
<path d="M0.074 0.384 Q0.331 0.481 0.577 0.377" stroke="hsl(0.0,100%,35%)" stroke-width="0.00100"></path>
<path d="M0.074 0.384 Q0.700 0.622 1.302 0.369" stroke="hsl(0.0,100%,35%)" stroke-width="0.00100"></path>
<path d="M0.074 0.384 Q0.583 0.722 1.354 0.548" stroke="hsl(0.0,100%,35%)" stroke-width="0.00499"></path>
<path d="M0.074 0.384 Q0.726 0.699 1.484 0.451" stroke="hsl(0.0,100%,35%)" stroke-width="0.00100"></path>
<path d="M0.074 0.384 Q0.246 0.357 0.231 0.267" stroke="hsl(0.0,100%,35%)" stroke-width="0.00300"></path>
<path d="M1.548 0.393 Q1.326 0.431 1.354 0.548" stroke="hsl(0.0,100%,35%)" stroke-width="0.01398"></path>
<path d="M1.548 0.393 Q1.444 0.332 1.302 0.369" stroke="hsl(0.0,100%,35%)" stroke-width="0.00799"></path>
<path d="M1.548 0.393 Q1.361 0.259 1.060 0.320" stroke="hsl(0.0,100%,35%)" stroke-width="0.01498"></path>
<path d="M1.548 0.393 Q1.075 0.191 0.577 0.377" stroke="hsl(0.0,100%,35%)" stroke-width="0.00400"></path>
<path d="M1.548 0.393 Q1.305 0.339 1.147 0.445" stroke="hsl(0.0,100%,35%)" stroke-width="0.00100"></path>
<path d="M1.548 0.393 Q1.339 0.146 0.813 0.194" stroke="hsl(0.0,100%,35%)" stroke-width="0.00499"></path>
<path d="M1.060 0.320 Q1.246 0.454 1.548 0.393" stroke="hsl(0.0,100%,35%)" stroke-width="0.00499"></path>
<path d="M1.060 0.320 Q1.025 0.493 1.354 0.548" stroke="hsl(0.0,100%,35%)" stroke-width="0.00400"></path>
<path d="M1.060 0.320 Q0.941 0.335 0.943 0.395" stroke="hsl(0.0,100%,35%)" stroke-width="0.00400"></path>
<path d="M1.060 0.320 Q1.142 0.393 1.302 0.369" stroke="hsl(0.0,100%,35%)" stroke-width="0.00200"></path>
<path d="M1.060 0.320 Q1.037 0.208 0.813 0.194" stroke="hsl(0.0,100%,35%)" stroke-width="0.00899"></path>
<path d="M1.060 0.320 Q1.004 0.400 1.147 0.445" stroke="hsl(0.0,100%,35%)" stroke-width="0.01798"></path>
<path d="M1.060 0.320 Q0.773 0.252 0.577 0.377" stroke="hsl(0.0,100%,35%)" stroke-width="0.00100"></path>
<path d="M1.060 0.320 Q0.916 0.267 0.780 0.325" stroke="hsl(0.0,100%,35%)" stroke-width="0.00100"></path>
<path d="M1.060 0.320 Q0.990 0.438 1.205 0.498" stroke="hsl(0.0,100%,35%)" stroke-width="0.00300"></path>
<path d="M1.060 0.320 Q1.167 0.569 1.676 0.572" stroke="hsl(0.0,100%,35%)" stroke-width="0.00100"></path>
<path d="M1.060 0.320 Q0.783 0.384 0.848 0.533" stroke="hsl(0.0,100%,35%)" stroke-width="0.00200"></path>
<path d="M1.060 0.320 Q0.254 0.347 0.130 0.746" stroke="hsl(0.0,100%,35%)" stroke-width="0.00200"></path>
<path d="M1.060 0.320 Q0.659 0.455 0.834 0.680" stroke="hsl(0.0,100%,35%)" stroke-width="0.00100"></path>
<path d="M1.060 0.320 Q1.293 0.239 1.185 0.107" stroke="hsl(0.0,100%,35%)" stroke-width="0.00100"></path>
<path d="M0.379 0.529 Q0.886 0.561 1.060 0.320" stroke="hsl(0.0,100%,35%)" stroke-width="0.00100"></path>
<path d="M0.379 0.529 Q0.851 0.733 1.354 0.548" stroke="hsl(0.0,100%,35%)" stroke-width="0.00200"></path>
<path d="M0.379 0.529 Q0.515 0.369 0.231 0.267" stroke="hsl(0.0,100%,35%)" stroke-width="0.00100"></path>
<path d="M0.577 0.377 Q1.050 0.579 1.548 0.393" stroke="hsl(0.0,100%,35%)" stroke-width="0.00699"></path>
<path d="M0.577 0.377 Q0.864 0.445 1.060 0.320" stroke="hsl(0.0,100%,35%)" stroke-width="0.05294"></path>
<path d="M0.577 0.377 Q0.946 0.518 1.302 0.369" stroke="hsl(0.0,100%,35%)" stroke-width="0.00200"></path>
<path d="M0.577 0.377 Q0.758 0.266 0.581 0.153" stroke="hsl(0.0,100%,35%)" stroke-width="0.00200"></path>
<path d="M0.577 0.377 Q0.829 0.618 1.354 0.548" stroke="hsl(0.0,100%,35%)" stroke-width="0.00400"></path>
<path d="M0.577 0.377 Q0.745 0.459 0.943 0.395" stroke="hsl(0.0,100%,35%)" stroke-width="0.00599"></path>
<path d="M0.577 0.377 Q0.691 0.387 0.735 0.334" stroke="hsl(0.0,100%,35%)" stroke-width="0.00300"></path>
<path d="M0.577 0.377 Q0.841 0.333 0.813 0.194" stroke="hsl(0.0,100%,35%)" stroke-width="0.00100"></path>
<path d="M0.577 0.377 Q0.468 0.453 0.591 0.523" stroke="hsl(0.0,100%,35%)" stroke-width="0.00100"></path>
<path d="M1.302 0.369 Q1.406 0.430 1.548 0.393" stroke="hsl(0.0,100%,35%)" stroke-width="0.02098"></path>
<path d="M1.302 0.369 Q1.220 0.296 1.060 0.320" stroke="hsl(0.0,100%,35%)" stroke-width="0.03696"></path>
<path d="M1.302 0.369 Q0.933 0.228 0.577 0.377" stroke="hsl(0.0,100%,35%)" stroke-width="0.01598"></path>
<path d="M1.302 0.369 Q1.185 0.469 1.354 0.548" stroke="hsl(0.0,100%,35%)" stroke-width="0.00999"></path>
<path d="M1.302 0.369 Q1.363 0.270 1.184 0.219" stroke="hsl(0.0,100%,35%)" stroke-width="0.00200"></path>
<path d="M1.302 0.369 Q1.101 0.310 0.943 0.395" stroke="hsl(0.0,100%,35%)" stroke-width="0.00100"></path>
<path d="M1.302 0.369 Q1.197 0.184 0.813 0.194" stroke="hsl(0.0,100%,35%)" stroke-width="0.00200"></path>
<path d="M1.302 0.369 Q1.164 0.376 1.147 0.445" stroke="hsl(0.0,100%,35%)" stroke-width="0.00899"></path>
<path d="M1.302 0.369 Q0.848 0.104 0.231 0.267" stroke="hsl(0.0,100%,35%)" stroke-width="0.00100"></path>
<path d="M1.354 0.548 Q1.575 0.509 1.548 0.393" stroke="hsl(0.0,100%,35%)" stroke-width="0.00100"></path>
<path d="M1.354 0.548 Q1.388 0.375 1.060 0.320" stroke="hsl(0.0,100%,35%)" stroke-width="0.03596"></path>
<path d="M1.354 0.548 Q1.102 0.307 0.577 0.377" stroke="hsl(0.0,100%,35%)" stroke-width="0.00100"></path>
<path d="M1.354 0.548 Q1.471 0.261 0.938 0.141" stroke="hsl(0.0,100%,35%)" stroke-width="0.00100"></path>
<path d="M1.354 0.548 Q1.366 0.263 0.813 0.194" stroke="hsl(0.0,100%,35%)" stroke-width="0.00899"></path>
<path d="M1.354 0.548 Q1.270 0.389 0.943 0.395" stroke="hsl(0.0,100%,35%)" stroke-width="0.00100"></path>
<path d="M1.354 0.548 Q1.332 0.455 1.147 0.445" stroke="hsl(0.0,100%,35%)" stroke-width="0.02697"></path>
<path d="M1.354 0.548 Q1.319 0.493 1.205 0.498" stroke="hsl(0.0,100%,35%)" stroke-width="0.00300"></path>
<path d="M1.354 0.548 Q1.496 0.624 1.676 0.572" stroke="hsl(0.0,100%,35%)" stroke-width="0.00100"></path>
<path d="M1.354 0.548 Q1.245 0.322 0.780 0.325" stroke="hsl(0.0,100%,35%)" stroke-width="0.00100"></path>
<path d="M1.354 0.548 Q1.433 0.631 1.613 0.611" stroke="hsl(0.0,100%,35%)" stroke-width="0.00400"></path>
<path d="M1.354 0.548 Q1.185 0.560 1.172 0.645" stroke="hsl(0.0,100%,35%)" stroke-width="0.00200"></path>
<path d="M1.484 0.451 Q1.341 0.473 1.354 0.548" stroke="hsl(0.0,100%,35%)" stroke-width="0.00200"></path>
<path d="M1.484 0.451 Q0.868 0.269 0.379 0.529" stroke="hsl(0.0,100%,35%)" stroke-width="0.00100"></path>
<path d="M1.484 0.451 Q0.832 0.135 0.074 0.384" stroke="hsl(0.0,100%,35%)" stroke-width="0.00100"></path>
<path d="M0.931 0.455 Q1.290 0.547 1.548 0.393" stroke="hsl(0.0,100%,35%)" stroke-width="0.00100"></path>
<path d="M0.931 0.455 Q0.596 0.382 0.379 0.529" stroke="hsl(0.0,100%,35%)" stroke-width="0.00200"></path>
<path d="M0.931 0.455 Q1.103 0.414 1.060 0.320" stroke="hsl(0.0,100%,35%)" stroke-width="0.00999"></path>
<path d="M0.931 0.455 Q1.068 0.586 1.354 0.548" stroke="hsl(0.0,100%,35%)" stroke-width="0.00599"></path>
<path d="M1.339 0.390 Q1.255 0.299 1.060 0.320" stroke="hsl(0.0,100%,35%)" stroke-width="0.00300"></path>
<path d="M1.339 0.390 Q0.968 0.231 0.577 0.377" stroke="hsl(0.0,100%,35%)" stroke-width="0.00100"></path>
<path d="M1.339 0.390 Q1.362 0.549 1.676 0.572" stroke="hsl(0.0,100%,35%)" stroke-width="0.00100"></path>
<path d="M1.339 0.390 Q1.220 0.472 1.354 0.548" stroke="hsl(0.0,100%,35%)" stroke-width="0.00100"></path>
<path d="M1.676 0.572 Q1.755 0.456 1.548 0.393" stroke="hsl(0.0,100%,35%)" stroke-width="0.00100"></path>
<path d="M1.676 0.572 Q1.534 0.495 1.354 0.548" stroke="hsl(0.0,100%,35%)" stroke-width="0.00200"></path>
<path d="M1.676 0.572 Q1.513 0.403 1.147 0.445" stroke="hsl(0.0,100%,35%)" stroke-width="0.00100"></path>
<path d="M0.943 0.395 Q1.248 0.515 1.548 0.393" stroke="hsl(0.0,100%,35%)" stroke-width="0.00200"></path>
<path d="M0.943 0.395 Q1.061 0.381 1.060 0.320" stroke="hsl(0.0,100%,35%)" stroke-width="0.02997"></path>
<path d="M0.943 0.395 Q0.774 0.313 0.577 0.377" stroke="hsl(0.0,100%,35%)" stroke-width="0.00100"></path>
<path d="M0.943 0.395 Q1.039 0.269 0.813 0.194" stroke="hsl(0.0,100%,35%)" stroke-width="0.00400"></path>
<path d="M0.943 0.395 Q1.005 0.461 1.147 0.445" stroke="hsl(0.0,100%,35%)" stroke-width="0.01498"></path>
<path d="M0.943 0.395 Q1.026 0.554 1.354 0.548" stroke="hsl(0.0,100%,35%)" stroke-width="0.00200"></path>
<path d="M0.813 0.194 Q0.917 0.379 1.302 0.369" stroke="hsl(120.0,100%,35%)" stroke-width="0.00200"></path>
<path d="M0.813 0.194 Q0.800 0.479 1.354 0.548" stroke="hsl(120.0,100%,35%)" stroke-width="0.00400"></path>
<path d="M0.813 0.194 Q0.835 0.307 1.060 0.320" stroke="hsl(120.0,100%,35%)" stroke-width="0.01199"></path>
<path d="M0.813 0.194 Q0.779 0.387 1.147 0.445" stroke="hsl(120.0,100%,35%)" stroke-width="0.00100"></path>
<path d="M0.813 0.194 Q0.918 0.193 0.938 0.141" stroke="hsl(120.0,100%,35%)" stroke-width="0.00200"></path>
<path d="M0.813 0.194 Q0.548 0.238 0.577 0.377" stroke="hsl(120.0,100%,35%)" stroke-width="0.00100"></path>
<path d="M0.813 0.194 Q0.503 0.334 0.708 0.516" stroke="hsl(120.0,100%,35%)" stroke-width="0.00100"></path>
<path d="M0.813 0.194 Q0.911 0.169 0.883 0.115" stroke="hsl(120.0,100%,35%)" stroke-width="0.00100"></path>
<path d="M1.147 0.445 Q1.203 0.365 1.060 0.320" stroke="hsl(0.0,100%,35%)" stroke-width="0.07691"></path>
<path d="M1.147 0.445 Q1.168 0.538 1.354 0.548" stroke="hsl(0.0,100%,35%)" stroke-width="0.01498"></path>
<path d="M1.147 0.445 Q1.181 0.253 0.813 0.194" stroke="hsl(0.0,100%,35%)" stroke-width="0.00999"></path>
<path d="M1.147 0.445 Q1.085 0.379 0.943 0.395" stroke="hsl(0.0,100%,35%)" stroke-width="0.00899"></path>
<path d="M0.780 0.325 Q0.923 0.378 1.060 0.320" stroke="hsl(120.0,100%,35%)" stroke-width="0.00999"></path>
<path d="M0.780 0.325 Q0.805 0.393 0.943 0.395" stroke="hsl(120.0,100%,35%)" stroke-width="0.00100"></path>
<path d="M0.780 0.325 Q0.901 0.266 0.813 0.194" stroke="hsl(120.0,100%,35%)" stroke-width="0.01798"></path>
<path d="M0.780 0.325 Q1.093 0.258 1.031 0.091" stroke="hsl(120.0,100%,35%)" stroke-width="0.00100"></path>
<path d="M0.780 0.325 Q0.939 0.218 0.765 0.117" stroke="hsl(120.0,100%,35%)" stroke-width="0.00100"></path>
<path d="M1.205 0.498 Q1.274 0.380 1.060 0.320" stroke="hsl(0.0,100%,35%)" stroke-width="0.04495"></path>
<path d="M1.205 0.498 Q1.240 0.552 1.354 0.548" stroke="hsl(0.0,100%,35%)" stroke-width="0.00200"></path>
<path d="M1.205 0.498 Q1.218 0.460 1.147 0.445" stroke="hsl(0.0,100%,35%)" stroke-width="0.00499"></path>
<path d="M1.205 0.498 Q1.131 0.326 0.780 0.325" stroke="hsl(0.0,100%,35%)" stroke-width="0.00100"></path>
<path d="M1.205 0.498 Q1.252 0.267 0.813 0.194" stroke="hsl(0.0,100%,35%)" stroke-width="0.00300"></path>
<path d="M1.205 0.498 Q1.382 0.629 1.676 0.572" stroke="hsl(0.0,100%,35%)" stroke-width="0.00100"></path>
<path d="M1.185 0.107 Q0.665 0.120 0.577 0.377" stroke="hsl(120.0,100%,35%)" stroke-width="0.00100"></path>
<path d="M1.185 0.107 Q0.952 0.188 1.060 0.320" stroke="hsl(120.0,100%,35%)" stroke-width="0.00400"></path>
<path d="M1.185 0.107 Q0.929 0.076 0.813 0.194" stroke="hsl(120.0,100%,35%)" stroke-width="0.00400"></path>
<path d="M1.185 0.107 Q0.833 0.203 0.943 0.395" stroke="hsl(120.0,100%,35%)" stroke-width="0.00200"></path>
<path d="M1.185 0.107 Q1.235 0.186 1.400 0.180" stroke="hsl(120.0,100%,35%)" stroke-width="0.00100"></path>
<path d="M1.185 0.107 Q0.576 0.530 1.268 0.921" stroke="hsl(120.0,100%,35%)" stroke-width="0.00100"></path>
<path d="M1.185 0.107 Q1.200 0.192 1.370 0.204" stroke="hsl(120.0,100%,35%)" stroke-width="0.00100"></path>
<path d="M1.185 0.107 Q0.146 0.215 0.130 0.746" stroke="hsl(120.0,100%,35%)" stroke-width="0.00100"></path>
<path d="M1.185 0.107 Q0.896 0.268 1.147 0.445" stroke="hsl(120.0,100%,35%)" stroke-width="0.00100"></path>
<path d="M1.184 0.219 Q1.041 0.245 1.060 0.320" stroke="hsl(0.0,100%,35%)" stroke-width="0.00799"></path>
<path d="M1.184 0.219 Q1.227 0.379 1.548 0.393" stroke="hsl(0.0,100%,35%)" stroke-width="0.00200"></path>
<path d="M1.184 0.219 Q1.123 0.318 1.302 0.369" stroke="hsl(0.0,100%,35%)" stroke-width="0.00300"></path>
<path d="M1.184 0.219 Q0.533 0.213 0.379 0.529" stroke="hsl(0.0,100%,35%)" stroke-width="0.00400"></path>
<path d="M0.708 0.516 Q1.018 0.376 0.813 0.194" stroke="hsl(120.0,100%,35%)" stroke-width="0.00799"></path>
<path d="M0.708 0.516 Q0.754 0.420 0.577 0.377" stroke="hsl(120.0,100%,35%)" stroke-width="0.01398"></path>
<path d="M0.203 0.596 Q0.830 0.517 0.813 0.194" stroke="hsl(120.0,100%,35%)" stroke-width="0.00100"></path>
<path d="M0.203 0.596 Q0.047 0.656 0.130 0.746" stroke="hsl(120.0,100%,35%)" stroke-width="0.00200"></path>
<path d="M0.203 0.596 Q0.156 0.707 0.362 0.755" stroke="hsl(120.0,100%,35%)" stroke-width="0.00200"></path>
<path d="M0.203 0.596 Q0.353 0.616 0.425 0.548" stroke="hsl(120.0,100%,35%)" stroke-width="0.00100"></path>
<path d="M0.362 0.755 Q0.253 0.704 0.130 0.746" stroke="hsl(120.0,100%,35%)" stroke-width="0.00200"></path>
<path d="M0.362 0.755 Q0.187 0.818 0.272 0.917" stroke="hsl(120.0,100%,35%)" stroke-width="0.00200"></path>
<path d="M0.362 0.755 Q0.350 0.870 0.572 0.901" stroke="hsl(120.0,100%,35%)" stroke-width="0.00100"></path>
<path d="M0.362 0.755 Q1.036 0.564 0.813 0.194" stroke="hsl(120.0,100%,35%)" stroke-width="0.00100"></path>
<path d="M0.853 0.527 Q1.122 0.465 1.060 0.320" stroke="hsl(0.0,100%,35%)" stroke-width="0.00400"></path>
<path d="M0.853 0.527 Q1.053 0.583 1.205 0.498" stroke="hsl(0.0,100%,35%)" stroke-width="0.00200"></path>
<path d="M0.853 0.527 Q1.066 0.545 1.147 0.445" stroke="hsl(0.0,100%,35%)" stroke-width="0.00100"></path>
<path d="M0.855 0.340 Q0.973 0.371 1.060 0.320" stroke="hsl(0.0,100%,35%)" stroke-width="0.00400"></path>
<path d="M0.855 0.340 Q0.917 0.451 1.147 0.445" stroke="hsl(0.0,100%,35%)" stroke-width="0.00100"></path>
<path d="M0.855 0.340 Q0.950 0.259 0.813 0.194" stroke="hsl(0.0,100%,35%)" stroke-width="0.00100"></path>
<path d="M0.363 0.139 Q0.710 0.343 1.184 0.219" stroke="hsl(0.0,100%,35%)" stroke-width="0.00100"></path>
<path d="M0.363 0.139 Q0.262 0.109 0.181 0.152" stroke="hsl(0.0,100%,35%)" stroke-width="0.00100"></path>
<path d="M0.363 0.139 Q0.533 0.122 0.535 0.035" stroke="hsl(0.0,100%,35%)" stroke-width="0.00100"></path>
<path d="M1.239 0.668 Q1.427 0.458 1.060 0.320" stroke="hsl(0.0,100%,35%)" stroke-width="0.00400"></path>
<path d="M1.239 0.668 Q1.371 0.538 1.147 0.445" stroke="hsl(0.0,100%,35%)" stroke-width="0.00400"></path>
<path d="M1.239 0.668 Q1.405 0.346 0.813 0.194" stroke="hsl(0.0,100%,35%)" stroke-width="0.00300"></path>
<path d="M0.869 0.542 Q1.142 0.469 1.060 0.320" stroke="hsl(0.0,100%,35%)" stroke-width="0.00200"></path>
<path d="M0.869 0.542 Q1.086 0.549 1.147 0.445" stroke="hsl(0.0,100%,35%)" stroke-width="0.00100"></path>
<path d="M1.785 0.499 Q1.944 0.473 1.926 0.389" stroke="hsl(120.0,100%,35%)" stroke-width="0.00100"></path>
<path d="M1.785 0.499 Q1.543 0.152 0.813 0.194" stroke="hsl(120.0,100%,35%)" stroke-width="0.00100"></path>
<path d="M1.785 0.499 Q1.855 0.458 1.789 0.414" stroke="hsl(120.0,100%,35%)" stroke-width="0.00100"></path>
<path d="M1.785 0.499 Q1.820 0.552 1.930 0.546" stroke="hsl(120.0,100%,35%)" stroke-width="0.00100"></path>
<path d="M1.507 0.167 Q1.636 0.203 1.734 0.147" stroke="hsl(240.0,100%,35%)" stroke-width="0.00300"></path>
<path d="M1.507 0.167 Q1.547 0.100 1.425 0.065" stroke="hsl(240.0,100%,35%)" stroke-width="0.00200"></path>
<path d="M1.507 0.167 Q1.614 0.100 1.507 0.033" stroke="hsl(240.0,100%,35%)" stroke-width="0.00200"></path>
<path d="M1.289 0.463 Q1.289 0.346 1.060 0.320" stroke="hsl(0.0,100%,35%)" stroke-width="0.00400"></path>
<path d="M1.289 0.463 Q1.475 0.480 1.548 0.393" stroke="hsl(0.0,100%,35%)" stroke-width="0.00100"></path>
<path d="M1.289 0.463 Q1.002 0.278 0.577 0.377" stroke="hsl(0.0,100%,35%)" stroke-width="0.00100"></path>
<path d="M1.070 0.970 Q1.208 0.985 1.268 0.921" stroke="hsl(120.0,100%,35%)" stroke-width="0.00100"></path>
<path d="M1.070 0.970 Q1.175 0.907 1.077 0.842" stroke="hsl(120.0,100%,35%)" stroke-width="0.00100"></path>
<path d="M1.070 0.970 Q1.528 0.723 1.147 0.445" stroke="hsl(120.0,100%,35%)" stroke-width="0.00100"></path>
<path d="M1.711 0.233 Q1.293 0.034 0.813 0.194" stroke="hsl(120.0,100%,35%)" stroke-width="0.00100"></path>
<path d="M1.711 0.233 Q1.826 0.268 1.921 0.220" stroke="hsl(120.0,100%,35%)" stroke-width="0.00100"></path>
<path d="M1.711 0.233 Q1.848 0.227 1.866 0.159" stroke="hsl(120.0,100%,35%)" stroke-width="0.00100"></path>
<path d="M1.711 0.233 Q1.710 0.267 1.777 0.275" stroke="hsl(120.0,100%,35%)" stroke-width="0.00100"></path>
<path d="M1.711 0.233 Q0.714 0.381 0.783 0.899" stroke="hsl(120.0,100%,35%)" stroke-width="0.00100"></path>
<path d="M1.711 0.233 Q1.315 0.146 1.060 0.320" stroke="hsl(120.0,100%,35%)" stroke-width="0.00100"></path>
<path d="M1.711 0.233 Q1.750 0.149 1.594 0.111" stroke="hsl(120.0,100%,35%)" stroke-width="0.00100"></path>
<path d="M1.597 0.908 Q1.763 0.679 1.354 0.548" stroke="hsl(120.0,100%,35%)" stroke-width="0.00100"></path>
<path d="M1.597 0.908 Q1.776 0.394 0.813 0.194" stroke="hsl(120.0,100%,35%)" stroke-width="0.00100"></path>
<path d="M1.597 0.908 Q1.798 0.507 1.060 0.320" stroke="hsl(120.0,100%,35%)" stroke-width="0.00100"></path>
<path d="M1.101 0.142 Q0.820 0.237 0.943 0.395" stroke="hsl(120.0,100%,35%)" stroke-width="0.00100"></path>
<path d="M1.101 0.142 Q0.916 0.111 0.813 0.194" stroke="hsl(120.0,100%,35%)" stroke-width="0.00100"></path>
<path d="M1.101 0.142 Q1.202 0.221 1.378 0.190" stroke="hsl(120.0,100%,35%)" stroke-width="0.00100"></path>
<path d="M0.772 0.579 Q0.836 0.439 0.577 0.377" stroke="hsl(120.0,100%,35%)" stroke-width="0.00200"></path>
<path d="M0.772 0.579 Q0.790 0.535 0.708 0.516" stroke="hsl(120.0,100%,35%)" stroke-width="0.00100"></path>
<path d="M0.772 0.579 Q1.100 0.395 0.813 0.194" stroke="hsl(120.0,100%,35%)" stroke-width="0.00100"></path>
<path d="M0.826 0.553 Q0.841 0.415 0.577 0.377" stroke="hsl(0.0,100%,35%)" stroke-width="0.00100"></path>
<path d="M0.826 0.553 Q1.128 0.483 1.060 0.320" stroke="hsl(0.0,100%,35%)" stroke-width="0.00100"></path>
<path d="M1.338 0.740 Q1.534 0.474 1.060 0.320" stroke="hsl(0.0,100%,35%)" stroke-width="0.00200"></path>
<path d="M1.338 0.740 Q1.416 0.489 0.943 0.395" stroke="hsl(0.0,100%,35%)" stroke-width="0.00100"></path>
<path d="M1.338 0.740 Q1.499 0.647 1.354 0.548" stroke="hsl(0.0,100%,35%)" stroke-width="0.00200"></path>
<path d="M1.617 0.550 Q1.708 0.458 1.548 0.393" stroke="hsl(0.0,100%,35%)" stroke-width="0.00200"></path>
<path d="M1.617 0.550 Q1.235 0.256 0.577 0.377" stroke="hsl(0.0,100%,35%)" stroke-width="0.00100"></path>
<path d="M1.617 0.550 Q1.404 0.338 0.943 0.395" stroke="hsl(0.0,100%,35%)" stroke-width="0.00100"></path>
<path d="M1.617 0.550 Q1.466 0.404 1.147 0.445" stroke="hsl(0.0,100%,35%)" stroke-width="0.00100"></path>
<path d="M1.246 0.443 Q1.251 0.345 1.060 0.320" stroke="hsl(0.0,100%,35%)" stroke-width="0.00599"></path>
<path d="M1.246 0.443 Q1.229 0.232 0.813 0.194" stroke="hsl(0.0,100%,35%)" stroke-width="0.00100"></path>
<path d="M1.246 0.443 Q1.216 0.517 1.354 0.548" stroke="hsl(0.0,100%,35%)" stroke-width="0.00100"></path>
<path d="M0.735 0.334 Q0.886 0.279 0.813 0.194" stroke="hsl(0.0,100%,35%)" stroke-width="0.00100"></path>
<path d="M0.735 0.334 Q0.621 0.324 0.577 0.377" stroke="hsl(0.0,100%,35%)" stroke-width="0.00100"></path>
<path d="M0.735 0.334 Q0.908 0.392 1.060 0.320" stroke="hsl(0.0,100%,35%)" stroke-width="0.00100"></path>
<path d="M0.735 0.334 Q0.852 0.472 1.147 0.445" stroke="hsl(0.0,100%,35%)" stroke-width="0.00100"></path>
<path d="M0.735 0.334 Q0.790 0.406 0.943 0.395" stroke="hsl(0.0,100%,35%)" stroke-width="0.00100"></path>
<path d="M1.392 0.081 Q1.035 0.134 1.060 0.320" stroke="hsl(120.0,100%,35%)" stroke-width="0.00100"></path>
<path d="M1.392 0.081 Q1.012 0.022 0.813 0.194" stroke="hsl(120.0,100%,35%)" stroke-width="0.00100"></path>
<path d="M1.392 0.081 Q1.268 0.052 1.185 0.107" stroke="hsl(120.0,100%,35%)" stroke-width="0.00100"></path>
<path d="M1.593 0.462 Q1.522 0.357 1.302 0.369" stroke="hsl(0.0,100%,35%)" stroke-width="0.00100"></path>
<path d="M1.593 0.462 Q1.440 0.284 1.060 0.320" stroke="hsl(0.0,100%,35%)" stroke-width="0.00400"></path>
<path d="M1.593 0.462 Q1.384 0.364 1.147 0.445" stroke="hsl(0.0,100%,35%)" stroke-width="0.00100"></path>
<path d="M1.593 0.462 Q1.405 0.457 1.354 0.548" stroke="hsl(0.0,100%,35%)" stroke-width="0.00200"></path>
<path d="M0.734 0.775 Q0.552 0.805 0.572 0.901" stroke="hsl(120.0,100%,35%)" stroke-width="0.00100"></path>
<path d="M0.734 0.775 Q0.740 0.710 0.615 0.692" stroke="hsl(120.0,100%,35%)" stroke-width="0.00100"></path>
<path d="M0.734 0.775 Q0.659 0.847 0.783 0.899" stroke="hsl(120.0,100%,35%)" stroke-width="0.00100"></path>
<path d="M1.534 0.632 Q1.699 0.559 1.593 0.462" stroke="hsl(0.0,100%,35%)" stroke-width="0.00100"></path>
<path d="M1.534 0.632 Q1.511 0.553 1.354 0.548" stroke="hsl(0.0,100%,35%)" stroke-width="0.00100"></path>
<path d="M1.534 0.632 Q1.477 0.499 1.205 0.498" stroke="hsl(0.0,100%,35%)" stroke-width="0.00100"></path>
<path d="M1.534 0.632 Q1.546 0.381 1.060 0.320" stroke="hsl(0.0,100%,35%)" stroke-width="0.00100"></path>
<path d="M1.573 0.793 Q1.672 0.341 0.813 0.194" stroke="hsl(120.0,100%,35%)" stroke-width="0.00200"></path>
<path d="M1.573 0.793 Q1.493 0.855 1.597 0.908" stroke="hsl(120.0,100%,35%)" stroke-width="0.00200"></path>
<path d="M1.573 0.793 Q1.694 0.454 1.060 0.320" stroke="hsl(120.0,100%,35%)" stroke-width="0.00200"></path>
<path d="M1.573 0.793 Q1.984 0.647 1.789 0.414" stroke="hsl(120.0,100%,35%)" stroke-width="0.00100"></path>
<path d="M1.573 0.793 Q1.418 0.518 0.848 0.533" stroke="hsl(120.0,100%,35%)" stroke-width="0.00100"></path>
<path d="M1.573 0.793 Q1.949 0.741 1.930 0.546" stroke="hsl(120.0,100%,35%)" stroke-width="0.00100"></path>
<path d="M1.573 0.793 Q1.576 0.468 0.943 0.395" stroke="hsl(120.0,100%,35%)" stroke-width="0.00100"></path>
<path d="M1.932 0.324 Q1.860 0.319 1.834 0.353" stroke="hsl(120.0,100%,35%)" stroke-width="0.00100"></path>
<path d="M1.932 0.324 Q1.499 0.148 1.060 0.320" stroke="hsl(120.0,100%,35%)" stroke-width="0.00100"></path>
<path d="M1.932 0.324 Q1.477 0.035 0.813 0.194" stroke="hsl(120.0,100%,35%)" stroke-width="0.00100"></path>
</g>
<text x="0.074" y="0.371" font-size="0.026652" fill="hsl(0.0,100%,20%)">aaronwood</text>
<text x="1.548" y="0.370" font-size="0.045679" fill="hsl(0.0,100%,20%)">tikuta</text>
<text x="0.130" y="0.441" font-size="0.004711" fill="hsl(0.0,100%,20%)">computerdruid</text>
<text x="1.060" y="0.271" font-size="0.098940" fill="hsl(0.0,100%,20%)">brettw</text>
<text x="0.379" y="0.519" font-size="0.020537" fill="hsl(0.0,100%,20%)">tmandry</text>
<text x="0.577" y="0.351" font-size="0.052886" fill="hsl(0.0,100%,20%)">sdefresne</text>
<text x="1.302" y="0.343" font-size="0.051179" fill="hsl(0.0,100%,20%)">digit</text>
<text x="1.354" y="0.517" font-size="0.060885" fill="hsl(0.0,100%,20%)">phosek</text>
<text x="1.484" y="0.445" font-size="0.010535" fill="hsl(0.0,100%,20%)">paulfaria</text>
<text x="0.231" y="0.262" font-size="0.010535" fill="hsl(0.0,100%,20%)">bwb</text>
<text x="0.931" y="0.445" font-size="0.020537" fill="hsl(0.0,100%,20%)">adetaylor</text>
<text x="1.339" y="0.385" font-size="0.011541" fill="hsl(0.0,100%,20%)">andrewsavage</text>
<text x="1.676" y="0.565" font-size="0.013326" fill="hsl(0.0,100%,20%)">mcgrathr</text>
<text x="0.943" y="0.374" font-size="0.042923" fill="hsl(0.0,100%,20%)">thakis</text>
<text x="0.813" y="0.169" font-size="0.050304" fill="hsl(120.0,100%,20%)">dpranke</text>
<text x="1.147" y="0.412" font-size="0.066630" fill="hsl(0.0,100%,20%)">scottmg</text>
<text x="0.780" y="0.311" font-size="0.027472" fill="hsl(120.0,100%,20%)">thomasanderson</text>
<text x="1.205" y="0.479" font-size="0.038276" fill="hsl(0.0,100%,20%)">juliehockett</text>
<text x="0.848" y="0.529" font-size="0.008160" fill="hsl(120.0,100%,20%)">wfh</text>
<text x="0.130" y="0.740" font-size="0.012465" fill="hsl(120.0,100%,20%)">dcheng</text>
<text x="0.834" y="0.677" font-size="0.004711" fill="hsl(0.0,100%,20%)">rockot</text>
<text x="1.185" y="0.097" font-size="0.019989" fill="hsl(120.0,100%,20%)">brucedawson</text>
<text x="1.400" y="0.177" font-size="0.004711" fill="hsl(120.0,100%,20%)">mef</text>
<text x="1.268" y="0.918" font-size="0.006663" fill="hsl(120.0,100%,20%)">sky</text>
<text x="1.370" y="0.202" font-size="0.004711" fill="hsl(120.0,100%,20%)">jam</text>
<text x="1.184" y="0.209" font-size="0.021070" fill="hsl(0.0,100%,20%)">danakj</text>
<text x="0.938" y="0.137" font-size="0.008160" fill="hsl(120.0,100%,20%)">iannucci</text>
<text x="0.708" y="0.505" font-size="0.023081" fill="hsl(120.0,100%,20%)">liaoyuke</text>
<text x="0.883" y="0.113" font-size="0.004711" fill="hsl(120.0,100%,20%)">smut</text>
<text x="0.203" y="0.590" font-size="0.011541" fill="hsl(120.0,100%,20%)">erikchen</text>
<text x="0.362" y="0.748" font-size="0.013326" fill="hsl(120.0,100%,20%)">ssid</text>
<text x="0.425" y="0.545" font-size="0.004711" fill="hsl(120.0,100%,20%)">haraken</text>
<text x="0.853" y="0.521" font-size="0.012465" fill="hsl(0.0,100%,20%)">haowei</text>
<text x="0.855" y="0.334" font-size="0.011541" fill="hsl(0.0,100%,20%)">jamesr</text>
<text x="0.363" y="0.135" font-size="0.008160" fill="hsl(0.0,100%,20%)">jbroman</text>
<text x="0.181" y="0.149" font-size="0.004711" fill="hsl(0.0,100%,20%)">dalecurtis</text>
<text x="0.535" y="0.033" font-size="0.004711" fill="hsl(0.0,100%,20%)">tzik</text>
<text x="1.239" y="0.660" font-size="0.015626" fill="hsl(0.0,100%,20%)">joearmstrong334</text>
<text x="0.869" y="0.538" font-size="0.008160" fill="hsl(0.0,100%,20%)">joshuaseaton</text>
<text x="1.785" y="0.495" font-size="0.009423" fill="hsl(120.0,100%,20%)">jyan</text>
<text x="1.926" y="0.387" font-size="0.004711" fill="hsl(120.0,100%,20%)">scroggo</text>
<text x="1.789" y="0.411" font-size="0.006663" fill="hsl(120.0,100%,20%)">mark</text>
<text x="1.930" y="0.543" font-size="0.006663" fill="hsl(120.0,100%,20%)">palmer</text>
<text x="1.507" y="0.161" font-size="0.012465" fill="hsl(240.0,100%,20%)">lizeb</text>
<text x="1.734" y="0.143" font-size="0.008160" fill="hsl(240.0,100%,20%)">mattcary</text>
<text x="1.425" y="0.062" font-size="0.006663" fill="hsl(240.0,100%,20%)">pasko</text>
<text x="1.507" y="0.030" font-size="0.006663" fill="hsl(240.0,100%,20%)">agrieve</text>
<text x="1.289" y="0.457" font-size="0.011541" fill="hsl(0.0,100%,20%)">mfarazma</text>
<text x="1.070" y="0.966" font-size="0.008160" fill="hsl(120.0,100%,20%)">michaelpg</text>
<text x="1.077" y="0.840" font-size="0.004711" fill="hsl(120.0,100%,20%)">xhwang</text>
<text x="1.711" y="0.227" font-size="0.012465" fill="hsl(120.0,100%,20%)">msimonides</text>
<text x="1.921" y="0.217" font-size="0.004711" fill="hsl(120.0,100%,20%)">reveman</text>
<text x="1.866" y="0.156" font-size="0.004711" fill="hsl(120.0,100%,20%)">yzshen</text>
<text x="1.777" y="0.273" font-size="0.004711" fill="hsl(120.0,100%,20%)">grt</text>
<text x="0.783" y="0.896" font-size="0.006663" fill="hsl(120.0,100%,20%)">jochen</text>
<text x="1.594" y="0.109" font-size="0.004711" fill="hsl(120.0,100%,20%)">pkasting</text>
<text x="1.597" y="0.903" font-size="0.010535" fill="hsl(120.0,100%,20%)">pcc</text>
<text x="1.101" y="0.138" font-size="0.008160" fill="hsl(120.0,100%,20%)">pennymac</text>
<text x="1.378" y="0.187" font-size="0.004711" fill="hsl(120.0,100%,20%)">mmoroz</text>
<text x="0.772" y="0.574" font-size="0.009423" fill="hsl(120.0,100%,20%)">peterhanspers</text>
<text x="0.826" y="0.549" font-size="0.006663" fill="hsl(0.0,100%,20%)">phajdan.jr</text>
<text x="1.613" y="0.606" font-size="0.009423" fill="hsl(0.0,100%,20%)">vadimsh</text>
<text x="1.172" y="0.641" font-size="0.006663" fill="hsl(0.0,100%,20%)">tandrii</text>
<text x="1.338" y="0.735" font-size="0.010535" fill="hsl(0.0,100%,20%)">raphael.kubo.da.costa</text>
<text x="1.617" y="0.545" font-size="0.010535" fill="hsl(0.0,100%,20%)">ribalda</text>
<text x="1.246" y="0.437" font-size="0.013326" fill="hsl(0.0,100%,20%)">rjascani</text>
<text x="0.735" y="0.327" font-size="0.013326" fill="hsl(0.0,100%,20%)">rsesek</text>
<text x="1.392" y="0.077" font-size="0.008160" fill="hsl(120.0,100%,20%)">samogot</text>
<text x="0.581" y="0.150" font-size="0.006663" fill="hsl(0.0,100%,20%)">justincohen</text>
<text x="0.591" y="0.520" font-size="0.004711" fill="hsl(0.0,100%,20%)">noyau</text>
<text x="1.593" y="0.455" font-size="0.014134" fill="hsl(0.0,100%,20%)">shayba</text>
<text x="0.734" y="0.771" font-size="0.008160" fill="hsl(120.0,100%,20%)">skyostil</text>
<text x="0.572" y="0.898" font-size="0.006663" fill="hsl(120.0,100%,20%)">primiano</text>
<text x="0.615" y="0.690" font-size="0.004711" fill="hsl(120.0,100%,20%)">tdresser</text>
<text x="0.272" y="0.914" font-size="0.006663" fill="hsl(120.0,100%,20%)">xunjieli</text>
<text x="1.031" y="0.089" font-size="0.004711" fill="hsl(120.0,100%,20%)">fdoray</text>
<text x="0.765" y="0.115" font-size="0.004711" fill="hsl(120.0,100%,20%)">thestig</text>
<text x="1.534" y="0.627" font-size="0.009423" fill="hsl(0.0,100%,20%)">tsniatowski</text>
<text x="1.573" y="0.785" font-size="0.014899" fill="hsl(120.0,100%,20%)">vtsyrklevich</text>
<text x="1.932" y="0.320" font-size="0.008160" fill="hsl(120.0,100%,20%)">wangqing-hf</text>
<text x="1.834" y="0.351" font-size="0.004711" fill="hsl(120.0,100%,20%)">machenbach</text>
</svg>
