<svg width="4000" height="2000" viewBox="-0.025 -0.025 2.05 1.05" xmlns="http://www.w3.org/2000/svg">
  <style>
    path {
      fill: none;
      stroke-linecap: round;
      stroke-opacity: 0.4;
    }

    text {
      text-anchor: middle;
      alignment-baseline: hanging;
    }
  </style>
  <g opacity="0.4">
<path d="M1.563 0.937 Q1.458 0.849 1.265 0.881" stroke="hsl(0.0,100%,35%)" stroke-width="0.00241"></path>
<path d="M1.563 0.937 Q2.085 0.621 1.584 0.298" stroke="hsl(0.0,100%,35%)" stroke-width="0.00241"></path>
<path d="M1.563 0.937 Q1.636 0.974 1.724 0.947" stroke="hsl(0.0,100%,35%)" stroke-width="0.00241"></path>
<path d="M1.207 0.137 Q1.115 0.240 1.297 0.308" stroke="hsl(0.0,100%,35%)" stroke-width="0.01207"></path>
<path d="M1.207 0.137 Q1.050 0.561 1.844 0.731" stroke="hsl(0.0,100%,35%)" stroke-width="0.00483"></path>
<path d="M1.207 0.137 Q0.597 0.225 0.637 0.542" stroke="hsl(0.0,100%,35%)" stroke-width="0.00483"></path>
<path d="M1.207 0.137 Q1.425 0.313 1.817 0.245" stroke="hsl(0.0,100%,35%)" stroke-width="0.00241"></path>
<path d="M1.297 0.308 Q1.232 0.629 1.844 0.731" stroke="hsl(0.0,100%,35%)" stroke-width="0.00241"></path>
<path d="M1.297 0.308 Q1.063 0.426 1.242 0.566" stroke="hsl(0.0,100%,35%)" stroke-width="0.00966"></path>
<path d="M1.297 0.308 Q1.458 0.257 1.393 0.167" stroke="hsl(0.0,100%,35%)" stroke-width="0.01931"></path>
<path d="M1.297 0.308 Q0.645 0.251 0.392 0.557" stroke="hsl(0.0,100%,35%)" stroke-width="0.00483"></path>
<path d="M1.297 0.308 Q1.221 0.187 0.968 0.197" stroke="hsl(0.0,100%,35%)" stroke-width="0.00483"></path>
<path d="M1.297 0.308 Q0.779 0.293 0.637 0.542" stroke="hsl(0.0,100%,35%)" stroke-width="0.00966"></path>
<path d="M1.297 0.308 Q1.292 0.387 1.445 0.407" stroke="hsl(0.0,100%,35%)" stroke-width="0.00966"></path>
<path d="M1.297 0.308 Q1.248 0.209 1.044 0.211" stroke="hsl(0.0,100%,35%)" stroke-width="0.00241"></path>
<path d="M1.297 0.308 Q0.881 -0.002 0.185 0.133" stroke="hsl(0.0,100%,35%)" stroke-width="0.01690"></path>
<path d="M1.297 0.308 Q1.108 0.497 1.434 0.630" stroke="hsl(0.0,100%,35%)" stroke-width="0.02655"></path>
<path d="M1.297 0.308 Q0.769 0.009 0.069 0.200" stroke="hsl(0.0,100%,35%)" stroke-width="0.00241"></path>
<path d="M1.297 0.308 Q1.055 0.577 1.526 0.754" stroke="hsl(0.0,100%,35%)" stroke-width="0.00241"></path>
<path d="M1.297 0.308 Q1.231 0.347 1.293 0.387" stroke="hsl(0.0,100%,35%)" stroke-width="0.00241"></path>
<path d="M1.297 0.308 Q1.441 0.161 1.185 0.059" stroke="hsl(0.0,100%,35%)" stroke-width="0.00241"></path>
<path d="M1.297 0.308 Q1.449 0.360 1.584 0.298" stroke="hsl(0.0,100%,35%)" stroke-width="0.00483"></path>
<path d="M1.297 0.308 Q1.064 0.130 0.665 0.204" stroke="hsl(0.0,100%,35%)" stroke-width="0.00241"></path>
<path d="M1.297 0.308 Q1.019 0.415 1.167 0.573" stroke="hsl(0.0,100%,35%)" stroke-width="0.00241"></path>
<path d="M1.297 0.308 Q0.789 0.082 0.236 0.280" stroke="hsl(0.0,100%,35%)" stroke-width="0.00724"></path>
<path d="M1.297 0.308 Q0.969 0.063 0.419 0.169" stroke="hsl(0.0,100%,35%)" stroke-width="0.01207"></path>
<path d="M0.637 0.542 Q0.502 0.500 0.392 0.557" stroke="hsl(0.0,100%,35%)" stroke-width="0.04828"></path>
<path d="M0.637 0.542 Q1.154 0.557 1.297 0.308" stroke="hsl(0.0,100%,35%)" stroke-width="0.03138"></path>
<path d="M0.637 0.542 Q0.646 0.331 0.236 0.280" stroke="hsl(0.0,100%,35%)" stroke-width="0.00724"></path>
<path d="M0.637 0.542 Q0.965 0.746 1.434 0.630" stroke="hsl(0.0,100%,35%)" stroke-width="0.00241"></path>
<path d="M0.637 0.542 Q0.661 0.628 0.835 0.635" stroke="hsl(0.0,100%,35%)" stroke-width="0.00241"></path>
<path d="M0.637 0.542 Q0.738 0.247 0.185 0.133" stroke="hsl(0.0,100%,35%)" stroke-width="0.00241"></path>
<path d="M0.876 0.471 Q0.975 0.743 1.526 0.754" stroke="hsl(0.0,100%,35%)" stroke-width="0.00724"></path>
<path d="M0.876 0.471 Q0.930 0.373 0.751 0.325" stroke="hsl(0.0,100%,35%)" stroke-width="0.00724"></path>
<path d="M0.876 0.471 Q0.809 0.567 0.981 0.621" stroke="hsl(0.0,100%,35%)" stroke-width="0.00241"></path>
<path d="M0.236 0.280 Q0.327 0.196 0.185 0.133" stroke="hsl(180.0,100%,35%)" stroke-width="0.04345"></path>
<path d="M0.236 0.280 Q0.905 0.455 1.393 0.167" stroke="hsl(180.0,100%,35%)" stroke-width="0.00241"></path>
<path d="M0.236 0.280 Q0.744 0.506 1.297 0.308" stroke="hsl(180.0,100%,35%)" stroke-width="0.01207"></path>
<path d="M0.236 0.280 Q0.895 0.558 1.584 0.298" stroke="hsl(180.0,100%,35%)" stroke-width="0.00241"></path>
<path d="M0.236 0.280 Q0.091 0.310 0.118 0.388" stroke="hsl(180.0,100%,35%)" stroke-width="0.01207"></path>
<path d="M0.236 0.280 Q0.200 0.336 0.302 0.365" stroke="hsl(180.0,100%,35%)" stroke-width="0.00241"></path>
<path d="M0.236 0.280 Q0.670 0.664 1.515 0.536" stroke="hsl(180.0,100%,35%)" stroke-width="0.00483"></path>
<path d="M0.236 0.280 Q0.216 0.207 0.069 0.200" stroke="hsl(180.0,100%,35%)" stroke-width="0.00241"></path>
<path d="M0.236 0.280 Q0.416 0.261 0.419 0.169" stroke="hsl(180.0,100%,35%)" stroke-width="0.01207"></path>
<path d="M1.434 0.630 Q1.295 0.196 0.419 0.169" stroke="hsl(0.0,100%,35%)" stroke-width="0.00241"></path>
<path d="M1.434 0.630 Q1.115 0.215 0.236 0.280" stroke="hsl(0.0,100%,35%)" stroke-width="0.00483"></path>
<path d="M1.434 0.630 Q1.390 0.559 1.242 0.566" stroke="hsl(0.0,100%,35%)" stroke-width="0.03621"></path>
<path d="M1.434 0.630 Q1.623 0.442 1.297 0.308" stroke="hsl(0.0,100%,35%)" stroke-width="0.03862"></path>
<path d="M1.434 0.630 Q1.549 0.599 1.515 0.536" stroke="hsl(0.0,100%,35%)" stroke-width="0.01448"></path>
<path d="M1.434 0.630 Q1.239 0.587 1.112 0.673" stroke="hsl(0.0,100%,35%)" stroke-width="0.00241"></path>
<path d="M1.434 0.630 Q1.559 0.762 1.844 0.731" stroke="hsl(0.0,100%,35%)" stroke-width="0.00241"></path>
<path d="M1.434 0.630 Q1.247 0.642 1.228 0.735" stroke="hsl(0.0,100%,35%)" stroke-width="0.00241"></path>
<path d="M1.434 0.630 Q1.207 0.132 0.185 0.133" stroke="hsl(0.0,100%,35%)" stroke-width="0.00724"></path>
<path d="M1.434 0.630 Q1.346 0.548 1.167 0.573" stroke="hsl(0.0,100%,35%)" stroke-width="0.00724"></path>
<path d="M1.434 0.630 Q1.273 0.608 1.195 0.682" stroke="hsl(0.0,100%,35%)" stroke-width="0.00241"></path>
<path d="M1.434 0.630 Q1.601 0.647 1.671 0.570" stroke="hsl(0.0,100%,35%)" stroke-width="0.00241"></path>
<path d="M1.434 0.630 Q0.970 0.246 0.118 0.388" stroke="hsl(0.0,100%,35%)" stroke-width="0.00483"></path>
<path d="M1.434 0.630 Q1.623 0.646 1.695 0.557" stroke="hsl(0.0,100%,35%)" stroke-width="0.00241"></path>
<path d="M0.185 0.133 Q0.093 0.217 0.236 0.280" stroke="hsl(180.0,100%,35%)" stroke-width="0.00483"></path>
<path d="M0.185 0.133 Q0.601 0.443 1.297 0.308" stroke="hsl(180.0,100%,35%)" stroke-width="0.00241"></path>
<path d="M0.185 0.133 Q0.527 0.601 1.515 0.536" stroke="hsl(180.0,100%,35%)" stroke-width="0.00241"></path>
<path d="M0.185 0.133 Q0.534 0.250 0.838 0.105" stroke="hsl(180.0,100%,35%)" stroke-width="0.00241"></path>
<path d="M0.185 0.133 Q0.386 0.136 0.436 0.038" stroke="hsl(180.0,100%,35%)" stroke-width="0.00241"></path>
<path d="M0.185 0.133 Q0.311 0.126 0.325 0.063" stroke="hsl(180.0,100%,35%)" stroke-width="0.00241"></path>
<path d="M1.875 0.625 Q1.775 0.672 1.844 0.731" stroke="hsl(0.0,100%,35%)" stroke-width="0.01448"></path>
<path d="M1.875 0.625 Q1.331 0.125 0.236 0.280" stroke="hsl(0.0,100%,35%)" stroke-width="0.00241"></path>
<path d="M1.875 0.625 Q1.606 0.469 1.242 0.566" stroke="hsl(0.0,100%,35%)" stroke-width="0.00241"></path>
<path d="M1.875 0.625 Q1.598 0.620 1.526 0.754" stroke="hsl(0.0,100%,35%)" stroke-width="0.00966"></path>
<path d="M1.242 0.566 Q1.476 0.448 1.297 0.308" stroke="hsl(0.0,100%,35%)" stroke-width="0.00966"></path>
<path d="M1.242 0.566 Q1.216 0.486 1.054 0.481" stroke="hsl(0.0,100%,35%)" stroke-width="0.00241"></path>
<path d="M1.242 0.566 Q1.338 0.500 1.231 0.439" stroke="hsl(0.0,100%,35%)" stroke-width="0.00241"></path>
<path d="M1.393 0.167 Q0.715 0.203 0.637 0.542" stroke="hsl(0.0,100%,35%)" stroke-width="0.00241"></path>
<path d="M1.393 0.167 Q1.232 0.218 1.297 0.308" stroke="hsl(0.0,100%,35%)" stroke-width="0.01690"></path>
<path d="M1.393 0.167 Q1.159 0.376 1.515 0.536" stroke="hsl(0.0,100%,35%)" stroke-width="0.00966"></path>
<path d="M1.393 0.167 Q0.905 -0.027 0.419 0.169" stroke="hsl(0.0,100%,35%)" stroke-width="0.00241"></path>
<path d="M0.665 0.204 Q1.050 0.435 1.584 0.298" stroke="hsl(0.0,100%,35%)" stroke-width="0.00241"></path>
<path d="M0.665 0.204 Q0.570 0.137 0.419 0.169" stroke="hsl(0.0,100%,35%)" stroke-width="0.00483"></path>
<path d="M0.665 0.204 Q0.665 0.500 1.242 0.566" stroke="hsl(0.0,100%,35%)" stroke-width="0.00241"></path>
<path d="M0.419 0.169 Q0.513 0.532 1.242 0.566" stroke="hsl(180.0,100%,35%)" stroke-width="0.00483"></path>
<path d="M0.419 0.169 Q0.229 0.399 0.637 0.542" stroke="hsl(180.0,100%,35%)" stroke-width="0.00483"></path>
<path d="M0.419 0.169 Q0.238 0.188 0.236 0.280" stroke="hsl(180.0,100%,35%)" stroke-width="0.02897"></path>
<path d="M0.419 0.169 Q0.330 0.104 0.185 0.133" stroke="hsl(180.0,100%,35%)" stroke-width="0.01931"></path>
<path d="M0.419 0.169 Q0.746 0.414 1.297 0.308" stroke="hsl(180.0,100%,35%)" stroke-width="0.00241"></path>
<path d="M0.419 0.169 Q0.673 0.572 1.515 0.536" stroke="hsl(180.0,100%,35%)" stroke-width="0.00241"></path>
<path d="M0.419 0.169 Q0.560 0.143 0.541 0.069" stroke="hsl(180.0,100%,35%)" stroke-width="0.00241"></path>
<path d="M1.515 0.536 Q1.071 0.364 0.637 0.542" stroke="hsl(0.0,100%,35%)" stroke-width="0.00483"></path>
<path d="M1.515 0.536 Q1.311 0.485 1.167 0.573" stroke="hsl(0.0,100%,35%)" stroke-width="0.00241"></path>
<path d="M1.515 0.536 Q1.588 0.379 1.297 0.308" stroke="hsl(0.0,100%,35%)" stroke-width="0.00241"></path>
<path d="M1.515 0.536 Q1.080 0.152 0.236 0.280" stroke="hsl(0.0,100%,35%)" stroke-width="0.00724"></path>
<path d="M1.515 0.536 Q0.632 0.497 0.361 0.919" stroke="hsl(0.0,100%,35%)" stroke-width="0.00241"></path>
<path d="M0.361 0.919 Q1.075 1.069 1.526 0.754" stroke="hsl(180.0,100%,35%)" stroke-width="0.00241"></path>
<path d="M0.361 0.919 Q1.244 0.958 1.515 0.536" stroke="hsl(180.0,100%,35%)" stroke-width="0.00483"></path>
<path d="M0.361 0.919 Q0.440 0.845 0.313 0.790" stroke="hsl(180.0,100%,35%)" stroke-width="0.00241"></path>
<path d="M0.579 0.371 Q0.792 0.429 0.951 0.338" stroke="hsl(0.0,100%,35%)" stroke-width="0.00241"></path>
<path d="M0.579 0.371 Q0.915 0.641 1.515 0.536" stroke="hsl(0.0,100%,35%)" stroke-width="0.00241"></path>
<path d="M0.579 0.371 Q0.032 0.601 0.361 0.919" stroke="hsl(0.0,100%,35%)" stroke-width="0.00241"></path>
<path d="M1.969 0.553 Q1.764 0.617 1.844 0.731" stroke="hsl(0.0,100%,35%)" stroke-width="0.00483"></path>
<path d="M1.969 0.553 Q1.321 0.070 0.236 0.280" stroke="hsl(0.0,100%,35%)" stroke-width="0.00241"></path>
<path d="M1.969 0.553 Q1.829 0.296 1.297 0.308" stroke="hsl(0.0,100%,35%)" stroke-width="0.00241"></path>
<path d="M0.049 0.496 Q0.044 0.616 0.277 0.645" stroke="hsl(0.0,100%,35%)" stroke-width="0.00241"></path>
<path d="M0.049 0.496 Q0.035 0.565 0.166 0.587" stroke="hsl(0.0,100%,35%)" stroke-width="0.00241"></path>
<path d="M0.049 0.496 Q0.749 0.809 1.515 0.536" stroke="hsl(0.0,100%,35%)" stroke-width="0.00241"></path>
<path d="M0.669 0.735 Q0.638 0.830 0.816 0.866" stroke="hsl(0.0,100%,35%)" stroke-width="0.00241"></path>
<path d="M0.669 0.735 Q0.787 0.784 0.909 0.738" stroke="hsl(0.0,100%,35%)" stroke-width="0.00241"></path>
<path d="M0.669 0.735 Q1.325 0.647 1.297 0.308" stroke="hsl(0.0,100%,35%)" stroke-width="0.00241"></path>
<path d="M1.745 0.135 Q1.534 0.184 1.584 0.298" stroke="hsl(0.0,100%,35%)" stroke-width="0.00241"></path>
<path d="M1.745 0.135 Q1.692 0.204 1.817 0.245" stroke="hsl(0.0,100%,35%)" stroke-width="0.00241"></path>
<path d="M1.745 0.135 Q1.149 0.250 1.242 0.566" stroke="hsl(0.0,100%,35%)" stroke-width="0.00241"></path>
<path d="M1.745 0.135 Q0.874 -0.095 0.236 0.280" stroke="hsl(0.0,100%,35%)" stroke-width="0.00241"></path>
</g>
<text x="1.563" y="0.930" font-size="0.013912" fill="hsl(0.0,100%,20%)">agrieve</text>
<text x="1.265" y="0.877" font-size="0.008032" fill="hsl(0.0,100%,20%)">richard.townsend</text>
<text x="1.584" y="0.288" font-size="0.019675" fill="hsl(0.0,100%,20%)">lizeb</text>
<text x="1.724" y="0.943" font-size="0.008032" fill="hsl(0.0,100%,20%)">wnwen</text>
<text x="1.207" y="0.124" font-size="0.025400" fill="hsl(0.0,100%,20%)">ahijazi</text>
<text x="1.297" y="0.265" font-size="0.086136" fill="hsl(0.0,100%,20%)">bartekn</text>
<text x="1.844" y="0.717" font-size="0.027824" fill="hsl(0.0,100%,20%)">haraken</text>
<text x="0.637" y="0.514" font-size="0.056796" fill="hsl(0.0,100%,20%)">arthursonzogni</text>
<text x="1.817" y="0.239" font-size="0.011359" fill="hsl(0.0,100%,20%)">nuskos</text>
<text x="0.876" y="0.460" font-size="0.021251" fill="hsl(0.0,100%,20%)">ajuma</text>
<text x="1.526" y="0.742" font-size="0.024097" fill="hsl(0.0,100%,20%)">mark</text>
<text x="0.751" y="0.318" font-size="0.013912" fill="hsl(0.0,100%,20%)">vollick</text>
<text x="0.981" y="0.617" font-size="0.008032" fill="hsl(0.0,100%,20%)">anthonyvd</text>
<text x="0.392" y="0.538" font-size="0.037674" fill="hsl(0.0,100%,20%)">danakj</text>
<text x="0.236" y="0.247" font-size="0.065746" fill="hsl(180.0,100%,20%)">tasak</text>
<text x="1.434" y="0.597" font-size="0.065254" fill="hsl(0.0,100%,20%)">mikt</text>
<text x="0.835" y="0.631" font-size="0.008032" fill="hsl(0.0,100%,20%)">jam</text>
<text x="0.185" y="0.107" font-size="0.053280" fill="hsl(180.0,100%,20%)">yukishiino</text>
<text x="1.875" y="0.611" font-size="0.027824" fill="hsl(0.0,100%,20%)">avi</text>
<text x="1.242" y="0.544" font-size="0.043994" fill="hsl(0.0,100%,20%)">keishi</text>
<text x="1.393" y="0.148" font-size="0.037674" fill="hsl(0.0,100%,20%)">tsepez</text>
<text x="0.968" y="0.191" font-size="0.011359" fill="hsl(0.0,100%,20%)">lukasza</text>
<text x="1.445" y="0.399" font-size="0.016064" fill="hsl(0.0,100%,20%)">glazunov</text>
<text x="1.044" y="0.207" font-size="0.008032" fill="hsl(0.0,100%,20%)">brucedawson</text>
<text x="0.069" y="0.195" font-size="0.011359" fill="hsl(0.0,100%,20%)">blundell</text>
<text x="1.293" y="0.383" font-size="0.008032" fill="hsl(0.0,100%,20%)">andre.kempe</text>
<text x="1.185" y="0.055" font-size="0.008032" fill="hsl(0.0,100%,20%)">ssid</text>
<text x="0.665" y="0.195" font-size="0.017961" fill="hsl(0.0,100%,20%)">thestig</text>
<text x="1.167" y="0.564" font-size="0.017961" fill="hsl(0.0,100%,20%)">mlippautz</text>
<text x="0.419" y="0.143" font-size="0.051431" fill="hsl(180.0,100%,20%)">kdlee</text>
<text x="1.515" y="0.516" font-size="0.040956" fill="hsl(0.0,100%,20%)">dcheng</text>
<text x="0.361" y="0.909" font-size="0.019675" fill="hsl(180.0,100%,20%)">pkasting</text>
<text x="0.579" y="0.364" font-size="0.013912" fill="hsl(0.0,100%,20%)">jbroman</text>
<text x="0.951" y="0.334" font-size="0.008032" fill="hsl(180.0,100%,20%)">sky</text>
<text x="1.969" y="0.545" font-size="0.016064" fill="hsl(0.0,100%,20%)">jdapena</text>
<text x="0.049" y="0.489" font-size="0.013912" fill="hsl(0.0,100%,20%)">jeffyoon</text>
<text x="0.277" y="0.641" font-size="0.008032" fill="hsl(180.0,100%,20%)">davidbienvenu</text>
<text x="0.166" y="0.583" font-size="0.008032" fill="hsl(180.0,100%,20%)">skyostil</text>
<text x="0.541" y="0.065" font-size="0.008032" fill="hsl(180.0,100%,20%)">leszeks</text>
<text x="1.054" y="0.476" font-size="0.008032" fill="hsl(0.0,100%,20%)">elkurin</text>
<text x="1.231" y="0.435" font-size="0.008032" fill="hsl(0.0,100%,20%)">rsesek</text>
<text x="0.669" y="0.728" font-size="0.013912" fill="hsl(0.0,100%,20%)">leimy</text>
<text x="0.816" y="0.862" font-size="0.008032" fill="hsl(0.0,100%,20%)">chikamune</text>
<text x="0.909" y="0.734" font-size="0.008032" fill="hsl(0.0,100%,20%)">kouhei</text>
<text x="1.112" y="0.669" font-size="0.008032" fill="hsl(0.0,100%,20%)">liviutinta</text>
<text x="1.228" y="0.731" font-size="0.008032" fill="hsl(0.0,100%,20%)">paulsemel</text>
<text x="1.195" y="0.678" font-size="0.008032" fill="hsl(0.0,100%,20%)">mpdenton</text>
<text x="1.671" y="0.566" font-size="0.008032" fill="hsl(0.0,100%,20%)">caitkp</text>
<text x="0.118" y="0.377" font-size="0.021251" fill="hsl(180.0,100%,20%)">wfh</text>
<text x="1.695" y="0.553" font-size="0.008032" fill="hsl(0.0,100%,20%)">yoavweiss</text>
<text x="0.313" y="0.786" font-size="0.008032" fill="hsl(0.0,100%,20%)">gab</text>
<text x="1.745" y="0.126" font-size="0.016064" fill="hsl(0.0,100%,20%)">stha09</text>
<text x="0.302" y="0.361" font-size="0.008032" fill="hsl(180.0,100%,20%)">erikchen</text>
<text x="0.838" y="0.101" font-size="0.008032" fill="hsl(180.0,100%,20%)">msw</text>
<text x="0.436" y="0.034" font-size="0.008032" fill="hsl(180.0,100%,20%)">nektar</text>
<text x="0.325" y="0.059" font-size="0.008032" fill="hsl(180.0,100%,20%)">dfried</text>
</svg>
