<svg width="4000" height="2000" viewBox="-0.025 -0.025 2.05 1.05" xmlns="http://www.w3.org/2000/svg">
  <style>
    path {
      fill: none;
      stroke-linecap: round;
      stroke-opacity: 0.4;
    }

    text {
      text-anchor: middle;
      alignment-baseline: hanging;
    }
  </style>
  <g opacity="0.4">
<path d="M1.769 0.646 Q1.830 0.696 1.941 0.677" stroke="hsl(0.0,100%,35%)" stroke-width="0.00114"></path>
<path d="M1.769 0.646 Q1.065 0.514 0.654 0.829" stroke="hsl(0.0,100%,35%)" stroke-width="0.00114"></path>
<path d="M1.769 0.646 Q0.948 0.317 0.126 0.646" stroke="hsl(0.0,100%,35%)" stroke-width="0.00114"></path>
<path d="M0.700 0.479 Q0.776 0.534 0.899 0.508" stroke="hsl(0.0,100%,35%)" stroke-width="0.00114"></path>
<path d="M0.700 0.479 Q0.287 0.708 0.644 0.960" stroke="hsl(0.0,100%,35%)" stroke-width="0.00114"></path>
<path d="M0.700 0.479 Q1.391 0.539 1.660 0.215" stroke="hsl(0.0,100%,35%)" stroke-width="0.00114"></path>
<path d="M0.700 0.479 Q0.370 0.627 0.586 0.820" stroke="hsl(0.0,100%,35%)" stroke-width="0.00228"></path>
<path d="M0.700 0.479 Q0.397 0.645 0.654 0.829" stroke="hsl(0.0,100%,35%)" stroke-width="0.00114"></path>
<path d="M0.700 0.479 Q0.916 0.347 0.705 0.212" stroke="hsl(0.0,100%,35%)" stroke-width="0.00114"></path>
<path d="M0.700 0.479 Q0.191 0.658 0.428 0.945" stroke="hsl(0.0,100%,35%)" stroke-width="0.00114"></path>
<path d="M0.705 0.212 Q0.158 0.492 0.586 0.820" stroke="hsl(180.0,100%,35%)" stroke-width="0.00342"></path>
<path d="M0.705 0.212 Q0.956 0.287 1.159 0.181" stroke="hsl(180.0,100%,35%)" stroke-width="0.00684"></path>
<path d="M0.705 0.212 Q0.845 0.360 1.164 0.324" stroke="hsl(180.0,100%,35%)" stroke-width="0.00228"></path>
<path d="M0.705 0.212 Q0.731 0.268 0.847 0.268" stroke="hsl(180.0,100%,35%)" stroke-width="0.00114"></path>
<path d="M0.705 0.212 Q-0.089 0.446 0.195 0.885" stroke="hsl(180.0,100%,35%)" stroke-width="0.00114"></path>
<path d="M0.705 0.212 Q0.760 0.291 0.927 0.282" stroke="hsl(180.0,100%,35%)" stroke-width="0.00114"></path>
<path d="M0.705 0.212 Q-0.020 0.523 0.428 0.945" stroke="hsl(180.0,100%,35%)" stroke-width="0.00228"></path>
<path d="M0.428 0.945 Q0.360 0.868 0.195 0.885" stroke="hsl(180.0,100%,35%)" stroke-width="0.06837"></path>
<path d="M0.428 0.945 Q0.532 1.037 0.734 1.006" stroke="hsl(180.0,100%,35%)" stroke-width="0.02735"></path>
<path d="M0.428 0.945 Q0.634 0.932 0.654 0.829" stroke="hsl(180.0,100%,35%)" stroke-width="0.00114"></path>
<path d="M0.428 0.945 Q0.607 0.914 0.586 0.820" stroke="hsl(180.0,100%,35%)" stroke-width="0.06951"></path>
<path d="M0.428 0.945 Q0.443 1.078 0.705 1.100" stroke="hsl(180.0,100%,35%)" stroke-width="0.00114"></path>
<path d="M0.428 0.945 Q0.531 0.848 0.365 0.777" stroke="hsl(180.0,100%,35%)" stroke-width="0.00684"></path>
<path d="M0.428 0.945 Q0.726 0.994 0.888 0.860" stroke="hsl(180.0,100%,35%)" stroke-width="0.00798"></path>
<path d="M0.428 0.945 Q1.069 0.679 0.691 0.308" stroke="hsl(180.0,100%,35%)" stroke-width="0.00114"></path>
<path d="M0.428 0.945 Q1.405 0.710 1.159 0.181" stroke="hsl(180.0,100%,35%)" stroke-width="0.02393"></path>
<path d="M0.428 0.945 Q0.736 0.696 0.317 0.491" stroke="hsl(180.0,100%,35%)" stroke-width="0.00114"></path>
<path d="M0.428 0.945 Q0.332 0.908 0.239 0.947" stroke="hsl(180.0,100%,35%)" stroke-width="0.00114"></path>
<path d="M0.428 0.945 Q0.745 0.885 0.698 0.717" stroke="hsl(180.0,100%,35%)" stroke-width="0.00456"></path>
<path d="M0.428 0.945 Q0.407 1.059 0.625 1.094" stroke="hsl(180.0,100%,35%)" stroke-width="0.00570"></path>
<path d="M0.428 0.945 Q0.643 0.948 0.695 0.844" stroke="hsl(180.0,100%,35%)" stroke-width="0.00228"></path>
<path d="M0.428 0.945 Q0.447 0.981 0.522 0.979" stroke="hsl(180.0,100%,35%)" stroke-width="0.01595"></path>
<path d="M0.428 0.945 Q1.153 0.634 0.705 0.212" stroke="hsl(180.0,100%,35%)" stroke-width="0.00228"></path>
<path d="M0.428 0.945 Q0.428 1.041 0.615 1.063" stroke="hsl(180.0,100%,35%)" stroke-width="0.00228"></path>
<path d="M0.428 0.945 Q0.533 0.881 0.430 0.816" stroke="hsl(180.0,100%,35%)" stroke-width="0.00228"></path>
<path d="M0.428 0.945 Q0.773 0.777 0.520 0.572" stroke="hsl(180.0,100%,35%)" stroke-width="0.00114"></path>
<path d="M0.428 0.945 Q0.568 0.679 0.080 0.553" stroke="hsl(180.0,100%,35%)" stroke-width="0.00114"></path>
<path d="M0.428 0.945 Q0.662 0.925 0.674 0.807" stroke="hsl(180.0,100%,35%)" stroke-width="0.00114"></path>
<path d="M0.428 0.945 Q1.378 0.646 1.003 0.117" stroke="hsl(180.0,100%,35%)" stroke-width="0.00114"></path>
<path d="M0.428 0.945 Q0.533 0.993 0.649 0.952" stroke="hsl(180.0,100%,35%)" stroke-width="0.00228"></path>
<path d="M0.428 0.945 Q0.524 0.996 0.644 0.960" stroke="hsl(180.0,100%,35%)" stroke-width="0.00228"></path>
<path d="M0.428 0.945 Q0.415 1.042 0.601 1.069" stroke="hsl(180.0,100%,35%)" stroke-width="0.00228"></path>
<path d="M0.428 0.945 Q0.649 0.943 0.693 0.835" stroke="hsl(180.0,100%,35%)" stroke-width="0.00114"></path>
<path d="M0.428 0.945 Q0.418 1.022 0.565 1.044" stroke="hsl(180.0,100%,35%)" stroke-width="0.00114"></path>
<path d="M0.428 0.945 Q0.860 0.695 0.467 0.430" stroke="hsl(180.0,100%,35%)" stroke-width="0.00228"></path>
<path d="M0.428 0.945 Q0.462 0.965 0.508 0.953" stroke="hsl(180.0,100%,35%)" stroke-width="0.00228"></path>
<path d="M0.428 0.945 Q0.562 0.997 0.692 0.942" stroke="hsl(180.0,100%,35%)" stroke-width="0.00228"></path>
<path d="M0.428 0.945 Q0.419 1.027 0.577 1.050" stroke="hsl(180.0,100%,35%)" stroke-width="0.00342"></path>
<path d="M0.428 0.945 Q0.484 1.024 0.650 1.014" stroke="hsl(180.0,100%,35%)" stroke-width="0.00114"></path>
<path d="M0.428 0.945 Q0.715 0.970 0.827 0.836" stroke="hsl(180.0,100%,35%)" stroke-width="0.00228"></path>
<path d="M0.428 0.945 Q0.537 0.995 0.659 0.953" stroke="hsl(180.0,100%,35%)" stroke-width="0.00114"></path>
<path d="M0.428 0.945 Q0.633 0.818 0.431 0.690" stroke="hsl(180.0,100%,35%)" stroke-width="0.00114"></path>
<path d="M0.428 0.945 Q0.466 1.025 0.630 1.024" stroke="hsl(180.0,100%,35%)" stroke-width="0.00114"></path>
<path d="M0.428 0.945 Q0.452 1.028 0.619 1.034" stroke="hsl(180.0,100%,35%)" stroke-width="0.00114"></path>
<path d="M0.428 0.945 Q0.294 1.145 0.655 1.254" stroke="hsl(180.0,100%,35%)" stroke-width="0.00114"></path>
<path d="M0.428 0.945 Q0.650 0.765 0.348 0.617" stroke="hsl(180.0,100%,35%)" stroke-width="0.00114"></path>
<path d="M0.428 0.945 Q0.607 0.834 0.431 0.723" stroke="hsl(180.0,100%,35%)" stroke-width="0.00228"></path>
<path d="M0.428 0.945 Q0.609 0.951 0.660 0.864" stroke="hsl(180.0,100%,35%)" stroke-width="0.00114"></path>
<path d="M0.317 0.491 Q0.441 0.490 0.467 0.430" stroke="hsl(0.0,100%,35%)" stroke-width="0.00342"></path>
<path d="M0.317 0.491 Q0.105 0.791 0.644 0.960" stroke="hsl(0.0,100%,35%)" stroke-width="0.00114"></path>
<path d="M0.317 0.491 Q0.307 0.790 0.888 0.860" stroke="hsl(0.0,100%,35%)" stroke-width="0.00114"></path>
<path d="M0.195 0.885 Q0.905 1.018 1.320 0.701" stroke="hsl(180.0,100%,35%)" stroke-width="0.00342"></path>
<path d="M0.195 0.885 Q0.429 0.805 0.324 0.673" stroke="hsl(180.0,100%,35%)" stroke-width="0.00456"></path>
<path d="M0.195 0.885 Q0.366 0.865 0.365 0.777" stroke="hsl(180.0,100%,35%)" stroke-width="0.03191"></path>
<path d="M0.195 0.885 Q0.263 0.962 0.428 0.945" stroke="hsl(180.0,100%,35%)" stroke-width="0.07179"></path>
<path d="M0.195 0.885 Q0.367 1.053 0.734 1.006" stroke="hsl(180.0,100%,35%)" stroke-width="0.00114"></path>
<path d="M0.195 0.885 Q0.442 0.931 0.586 0.820" stroke="hsl(180.0,100%,35%)" stroke-width="0.06837"></path>
<path d="M0.195 0.885 Q0.302 0.778 0.117 0.703" stroke="hsl(180.0,100%,35%)" stroke-width="0.00114"></path>
<path d="M0.195 0.885 Q0.255 0.788 0.078 0.737" stroke="hsl(180.0,100%,35%)" stroke-width="0.00228"></path>
<path d="M0.195 0.885 Q0.561 1.011 0.888 0.860" stroke="hsl(180.0,100%,35%)" stroke-width="0.00684"></path>
<path d="M0.195 0.885 Q1.240 0.726 1.159 0.181" stroke="hsl(180.0,100%,35%)" stroke-width="0.00456"></path>
<path d="M0.195 0.885 Q0.282 0.998 0.522 0.979" stroke="hsl(180.0,100%,35%)" stroke-width="0.00228"></path>
<path d="M0.195 0.885 Q0.406 0.842 0.369 0.730" stroke="hsl(180.0,100%,35%)" stroke-width="0.00114"></path>
<path d="M0.195 0.885 Q0.403 0.696 0.080 0.553" stroke="hsl(180.0,100%,35%)" stroke-width="0.00114"></path>
<path d="M0.195 0.885 Q0.334 0.775 0.151 0.683" stroke="hsl(180.0,100%,35%)" stroke-width="0.00114"></path>
<path d="M0.195 0.885 Q0.167 0.925 0.239 0.947" stroke="hsl(180.0,100%,35%)" stroke-width="0.00456"></path>
<path d="M0.195 0.885 Q1.463 0.843 1.660 0.215" stroke="hsl(180.0,100%,35%)" stroke-width="0.00228"></path>
<path d="M0.195 0.885 Q0.347 0.821 0.257 0.733" stroke="hsl(180.0,100%,35%)" stroke-width="0.00114"></path>
<path d="M0.195 0.885 Q0.066 1.072 0.403 1.176" stroke="hsl(180.0,100%,35%)" stroke-width="0.00228"></path>
<path d="M0.195 0.885 Q1.660 0.821 1.857 0.093" stroke="hsl(180.0,100%,35%)" stroke-width="0.00114"></path>
<path d="M0.195 0.885 Q0.447 0.754 0.248 0.603" stroke="hsl(180.0,100%,35%)" stroke-width="0.00114"></path>
<path d="M0.195 0.885 Q0.315 0.805 0.185 0.728" stroke="hsl(180.0,100%,35%)" stroke-width="0.00114"></path>
<path d="M0.195 0.885 Q1.565 0.853 1.804 0.178" stroke="hsl(180.0,100%,35%)" stroke-width="0.00114"></path>
<path d="M0.195 0.885 Q0.486 0.782 0.348 0.617" stroke="hsl(180.0,100%,35%)" stroke-width="0.00456"></path>
<path d="M0.195 0.885 Q0.356 0.829 0.283 0.738" stroke="hsl(180.0,100%,35%)" stroke-width="0.00114"></path>
<path d="M0.195 0.885 Q0.316 1.085 0.732 1.069" stroke="hsl(180.0,100%,35%)" stroke-width="0.00114"></path>
<path d="M0.195 0.885 Q0.133 0.917 0.182 0.954" stroke="hsl(180.0,100%,35%)" stroke-width="0.00114"></path>
<path d="M0.195 0.885 Q0.359 1.012 0.644 0.960" stroke="hsl(180.0,100%,35%)" stroke-width="0.00114"></path>
<path d="M0.195 0.885 Q0.469 0.949 0.654 0.829" stroke="hsl(180.0,100%,35%)" stroke-width="0.00114"></path>
<path d="M0.195 0.885 Q0.115 0.904 0.135 0.947" stroke="hsl(180.0,100%,35%)" stroke-width="0.00114"></path>
<path d="M0.734 1.006 Q0.733 0.817 0.365 0.777" stroke="hsl(180.0,100%,35%)" stroke-width="0.00114"></path>
<path d="M0.734 1.006 Q0.629 0.914 0.428 0.945" stroke="hsl(180.0,100%,35%)" stroke-width="0.01823"></path>
<path d="M0.734 1.006 Q0.561 0.838 0.195 0.885" stroke="hsl(180.0,100%,35%)" stroke-width="0.00570"></path>
<path d="M0.734 1.006 Q0.649 0.950 0.522 0.979" stroke="hsl(180.0,100%,35%)" stroke-width="0.00114"></path>
<path d="M0.734 1.006 Q1.606 0.679 1.159 0.181" stroke="hsl(180.0,100%,35%)" stroke-width="0.00114"></path>
<path d="M0.734 1.006 Q0.808 0.884 0.586 0.820" stroke="hsl(180.0,100%,35%)" stroke-width="0.01481"></path>
<path d="M0.734 1.006 Q1.355 0.603 0.705 0.212" stroke="hsl(180.0,100%,35%)" stroke-width="0.00228"></path>
<path d="M0.734 1.006 Q0.928 0.964 0.888 0.860" stroke="hsl(180.0,100%,35%)" stroke-width="0.00228"></path>
<path d="M0.365 0.777 Q0.193 0.797 0.195 0.885" stroke="hsl(180.0,100%,35%)" stroke-width="0.02849"></path>
<path d="M0.365 0.777 Q0.261 0.874 0.428 0.945" stroke="hsl(180.0,100%,35%)" stroke-width="0.02735"></path>
<path d="M0.365 0.777 Q0.440 0.843 0.586 0.820" stroke="hsl(180.0,100%,35%)" stroke-width="0.00798"></path>
<path d="M0.365 0.777 Q0.366 0.965 0.734 1.006" stroke="hsl(180.0,100%,35%)" stroke-width="0.00684"></path>
<path d="M0.365 0.777 Q0.560 0.923 0.888 0.860" stroke="hsl(180.0,100%,35%)" stroke-width="0.00228"></path>
<path d="M0.365 0.777 Q1.238 0.638 1.159 0.181" stroke="hsl(180.0,100%,35%)" stroke-width="0.00114"></path>
<path d="M0.365 0.777 Q1.542 0.706 1.664 0.116" stroke="hsl(180.0,100%,35%)" stroke-width="0.00114"></path>
<path d="M0.691 0.308 Q0.229 0.543 0.586 0.820" stroke="hsl(0.0,100%,35%)" stroke-width="0.00456"></path>
<path d="M0.691 0.308 Q0.050 0.574 0.428 0.945" stroke="hsl(0.0,100%,35%)" stroke-width="0.00342"></path>
<path d="M0.691 0.308 Q0.348 0.623 0.888 0.860" stroke="hsl(0.0,100%,35%)" stroke-width="0.00114"></path>
<path d="M0.691 0.308 Q-0.018 0.497 0.195 0.885" stroke="hsl(0.0,100%,35%)" stroke-width="0.00114"></path>
<path d="M0.691 0.308 Q0.623 0.354 0.696 0.397" stroke="hsl(0.0,100%,35%)" stroke-width="0.00342"></path>
<path d="M1.159 0.181 Q0.908 0.106 0.705 0.212" stroke="hsl(180.0,100%,35%)" stroke-width="0.09572"></path>
<path d="M1.159 0.181 Q0.361 0.386 0.586 0.820" stroke="hsl(180.0,100%,35%)" stroke-width="0.05242"></path>
<path d="M1.159 0.181 Q0.183 0.417 0.428 0.945" stroke="hsl(180.0,100%,35%)" stroke-width="0.02963"></path>
<path d="M1.159 0.181 Q0.481 0.466 0.888 0.860" stroke="hsl(180.0,100%,35%)" stroke-width="0.00228"></path>
<path d="M1.159 0.181 Q0.114 0.340 0.195 0.885" stroke="hsl(180.0,100%,35%)" stroke-width="0.00342"></path>
<path d="M1.159 0.181 Q1.125 0.099 0.956 0.097" stroke="hsl(180.0,100%,35%)" stroke-width="0.00114"></path>
<path d="M1.159 0.181 Q1.163 0.061 0.930 0.033" stroke="hsl(180.0,100%,35%)" stroke-width="0.00114"></path>
<path d="M1.159 0.181 Q1.266 0.100 1.130 0.030" stroke="hsl(180.0,100%,35%)" stroke-width="0.00228"></path>
<path d="M1.159 0.181 Q0.397 0.420 0.695 0.844" stroke="hsl(180.0,100%,35%)" stroke-width="0.00114"></path>
<path d="M1.159 0.181 Q1.133 0.118 1.003 0.117" stroke="hsl(180.0,100%,35%)" stroke-width="0.00570"></path>
<path d="M1.159 0.181 Q0.235 0.540 0.732 1.069" stroke="hsl(180.0,100%,35%)" stroke-width="0.00114"></path>
<path d="M1.159 0.181 Q0.182 0.513 0.615 1.063" stroke="hsl(180.0,100%,35%)" stroke-width="0.00114"></path>
<path d="M1.159 0.181 Q1.282 0.113 1.177 0.039" stroke="hsl(180.0,100%,35%)" stroke-width="0.00114"></path>
<path d="M1.159 0.181 Q0.934 0.162 0.847 0.268" stroke="hsl(180.0,100%,35%)" stroke-width="0.00114"></path>
<path d="M0.625 1.094 Q0.645 0.980 0.428 0.945" stroke="hsl(180.0,100%,35%)" stroke-width="0.00456"></path>
<path d="M0.625 1.094 Q0.577 0.903 0.195 0.885" stroke="hsl(180.0,100%,35%)" stroke-width="0.00228"></path>
<path d="M0.625 1.094 Q0.824 0.949 0.586 0.820" stroke="hsl(180.0,100%,35%)" stroke-width="0.00228"></path>
<path d="M0.522 0.979 Q0.502 0.944 0.428 0.945" stroke="hsl(180.0,100%,35%)" stroke-width="0.01026"></path>
<path d="M0.522 0.979 Q0.406 0.907 0.239 0.947" stroke="hsl(180.0,100%,35%)" stroke-width="0.00228"></path>
<path d="M0.522 0.979 Q0.558 1.023 0.650 1.014" stroke="hsl(180.0,100%,35%)" stroke-width="0.00114"></path>
<path d="M0.522 0.979 Q0.681 0.913 0.586 0.820" stroke="hsl(180.0,100%,35%)" stroke-width="0.00342"></path>
<path d="M0.522 0.979 Q0.434 0.867 0.195 0.885" stroke="hsl(180.0,100%,35%)" stroke-width="0.00570"></path>
<path d="M0.522 0.979 Q1.479 0.708 1.159 0.181" stroke="hsl(180.0,100%,35%)" stroke-width="0.00228"></path>
<path d="M0.522 0.979 Q0.790 0.969 0.827 0.836" stroke="hsl(180.0,100%,35%)" stroke-width="0.00114"></path>
<path d="M0.522 0.979 Q0.820 0.884 0.698 0.717" stroke="hsl(180.0,100%,35%)" stroke-width="0.00114"></path>
<path d="M0.522 0.979 Q0.555 1.067 0.732 1.069" stroke="hsl(180.0,100%,35%)" stroke-width="0.00114"></path>
<path d="M0.522 0.979 Q0.606 1.035 0.734 1.006" stroke="hsl(180.0,100%,35%)" stroke-width="0.00114"></path>
<path d="M0.520 0.572 Q0.642 0.536 0.599 0.469" stroke="hsl(0.0,100%,35%)" stroke-width="0.00114"></path>
<path d="M0.520 0.572 Q0.607 0.490 0.467 0.430" stroke="hsl(0.0,100%,35%)" stroke-width="0.00114"></path>
<path d="M0.520 0.572 Q0.397 0.560 0.348 0.617" stroke="hsl(0.0,100%,35%)" stroke-width="0.00342"></path>
<path d="M0.520 0.572 Q0.483 0.491 0.317 0.491" stroke="hsl(0.0,100%,35%)" stroke-width="0.00228"></path>
<path d="M0.520 0.572 Q0.381 0.727 0.654 0.829" stroke="hsl(0.0,100%,35%)" stroke-width="0.00114"></path>
<path d="M0.080 0.553 Q0.036 0.580 0.080 0.608" stroke="hsl(180.0,100%,35%)" stroke-width="0.00114"></path>
<path d="M0.080 0.553 Q0.140 0.513 0.077 0.475" stroke="hsl(180.0,100%,35%)" stroke-width="0.00114"></path>
<path d="M0.080 0.553 Q-0.128 0.742 0.195 0.885" stroke="hsl(180.0,100%,35%)" stroke-width="0.00114"></path>
<path d="M0.348 0.617 Q0.215 0.587 0.126 0.646" stroke="hsl(0.0,100%,35%)" stroke-width="0.00114"></path>
<path d="M0.348 0.617 Q0.305 0.766 0.586 0.820" stroke="hsl(0.0,100%,35%)" stroke-width="0.00228"></path>
<path d="M0.348 0.617 Q0.126 0.797 0.428 0.945" stroke="hsl(0.0,100%,35%)" stroke-width="0.00228"></path>
<path d="M0.348 0.617 Q0.058 0.720 0.195 0.885" stroke="hsl(0.0,100%,35%)" stroke-width="0.00114"></path>
<path d="M0.348 0.617 Q0.471 0.629 0.520 0.572" stroke="hsl(0.0,100%,35%)" stroke-width="0.00114"></path>
<path d="M1.527 0.109 Q0.487 0.276 0.586 0.820" stroke="hsl(0.0,100%,35%)" stroke-width="0.00114"></path>
<path d="M1.527 0.109 Q1.653 0.102 1.668 0.039" stroke="hsl(0.0,100%,35%)" stroke-width="0.00114"></path>
<path d="M1.527 0.109 Q1.499 0.083 1.444 0.091" stroke="hsl(0.0,100%,35%)" stroke-width="0.00114"></path>
<path d="M1.527 0.109 Q1.362 0.180 1.465 0.276" stroke="hsl(0.0,100%,35%)" stroke-width="0.00114"></path>
<path d="M1.527 0.109 Q1.531 0.055 1.427 0.040" stroke="hsl(0.0,100%,35%)" stroke-width="0.00114"></path>
<path d="M1.527 0.109 Q1.442 0.091 1.389 0.129" stroke="hsl(0.0,100%,35%)" stroke-width="0.00114"></path>
<path d="M1.527 0.109 Q1.400 0.132 1.419 0.199" stroke="hsl(0.0,100%,35%)" stroke-width="0.00114"></path>
<path d="M1.527 0.109 Q1.088 0.075 0.927 0.282" stroke="hsl(0.0,100%,35%)" stroke-width="0.00114"></path>
<path d="M1.527 0.109 Q1.449 0.147 1.506 0.193" stroke="hsl(0.0,100%,35%)" stroke-width="0.00114"></path>
<path d="M1.527 0.109 Q1.508 0.189 1.660 0.215" stroke="hsl(0.0,100%,35%)" stroke-width="0.00114"></path>
<path d="M1.527 0.109 Q1.538 0.045 1.416 0.025" stroke="hsl(0.0,100%,35%)" stroke-width="0.00114"></path>
<path d="M1.527 0.109 Q1.535 0.048 1.418 0.031" stroke="hsl(0.0,100%,35%)" stroke-width="0.00114"></path>
<path d="M1.085 0.843 Q0.973 0.812 0.888 0.860" stroke="hsl(0.0,100%,35%)" stroke-width="0.00114"></path>
<path d="M1.085 0.843 Q0.606 0.686 0.195 0.885" stroke="hsl(0.0,100%,35%)" stroke-width="0.00114"></path>
<path d="M1.085 0.843 Q1.875 0.644 1.660 0.215" stroke="hsl(0.0,100%,35%)" stroke-width="0.00114"></path>
<path d="M1.164 0.324 Q1.276 0.252 1.159 0.181" stroke="hsl(180.0,100%,35%)" stroke-width="0.00228"></path>
<path d="M1.164 0.324 Q1.024 0.176 0.705 0.212" stroke="hsl(180.0,100%,35%)" stroke-width="0.00228"></path>
<path d="M1.164 0.324 Q0.478 0.457 0.586 0.820" stroke="hsl(180.0,100%,35%)" stroke-width="0.00114"></path>
<path d="M0.157 0.430 Q0.179 0.791 0.888 0.860" stroke="hsl(0.0,100%,35%)" stroke-width="0.00114"></path>
<path d="M0.157 0.430 Q0.312 0.492 0.467 0.430" stroke="hsl(0.0,100%,35%)" stroke-width="0.00114"></path>
<path d="M0.157 0.430 Q-0.120 0.742 0.428 0.945" stroke="hsl(0.0,100%,35%)" stroke-width="0.00114"></path>
<path d="M1.920 0.419 Q1.737 0.435 1.728 0.527" stroke="hsl(0.0,100%,35%)" stroke-width="0.00114"></path>
<path d="M1.920 0.419 Q1.811 0.382 1.715 0.426" stroke="hsl(0.0,100%,35%)" stroke-width="0.00114"></path>
<path d="M1.920 0.419 Q0.931 0.353 0.586 0.820" stroke="hsl(0.0,100%,35%)" stroke-width="0.00114"></path>
<path d="M1.732 0.755 Q0.859 0.513 0.195 0.885" stroke="hsl(0.0,100%,35%)" stroke-width="0.00342"></path>
<path d="M1.732 0.755 Q1.899 0.758 1.941 0.677" stroke="hsl(0.0,100%,35%)" stroke-width="0.00228"></path>
<path d="M1.732 0.755 Q1.661 0.709 1.555 0.733" stroke="hsl(0.0,100%,35%)" stroke-width="0.00228"></path>
<path d="M1.915 0.281 Q1.850 0.297 1.868 0.332" stroke="hsl(180.0,100%,35%)" stroke-width="0.00114"></path>
<path d="M1.915 0.281 Q0.819 0.285 0.586 0.820" stroke="hsl(180.0,100%,35%)" stroke-width="0.00114"></path>
<path d="M1.320 0.701 Q0.610 0.568 0.195 0.885" stroke="hsl(180.0,100%,35%)" stroke-width="0.00570"></path>
<path d="M1.320 0.701 Q0.857 0.614 0.586 0.820" stroke="hsl(180.0,100%,35%)" stroke-width="0.00456"></path>
<path d="M1.320 0.701 Q1.477 0.663 1.438 0.579" stroke="hsl(180.0,100%,35%)" stroke-width="0.00228"></path>
<path d="M1.320 0.701 Q0.583 0.607 0.239 0.947" stroke="hsl(180.0,100%,35%)" stroke-width="0.00228"></path>
<path d="M1.320 0.701 Q1.199 0.671 1.115 0.724" stroke="hsl(180.0,100%,35%)" stroke-width="0.00114"></path>
<path d="M1.857 0.093 Q0.769 -0.016 0.317 0.491" stroke="hsl(0.0,100%,35%)" stroke-width="0.00114"></path>
<path d="M1.857 0.093 Q0.966 -0.094 0.407 0.300" stroke="hsl(0.0,100%,35%)" stroke-width="0.00228"></path>
<path d="M1.857 0.093 Q1.742 0.066 1.664 0.116" stroke="hsl(0.0,100%,35%)" stroke-width="0.00114"></path>
<path d="M1.857 0.093 Q1.438 -0.002 1.159 0.181" stroke="hsl(0.0,100%,35%)" stroke-width="0.00114"></path>
<path d="M1.857 0.093 Q1.762 0.125 1.804 0.178" stroke="hsl(0.0,100%,35%)" stroke-width="0.00114"></path>
<path d="M1.857 0.093 Q1.757 0.155 1.856 0.217" stroke="hsl(0.0,100%,35%)" stroke-width="0.00114"></path>
<path d="M1.857 0.093 Q0.639 0.202 0.586 0.820" stroke="hsl(0.0,100%,35%)" stroke-width="0.00114"></path>
<path d="M1.857 0.093 Q0.667 0.220 0.654 0.829" stroke="hsl(0.0,100%,35%)" stroke-width="0.00114"></path>
<path d="M1.857 0.093 Q1.760 0.086 1.726 0.132" stroke="hsl(0.0,100%,35%)" stroke-width="0.00114"></path>
<path d="M1.857 0.093 Q1.728 0.064 1.643 0.121" stroke="hsl(0.0,100%,35%)" stroke-width="0.00114"></path>
<path d="M1.857 0.093 Q1.661 0.115 1.660 0.215" stroke="hsl(0.0,100%,35%)" stroke-width="0.00228"></path>
<path d="M1.857 0.093 Q1.729 0.180 1.871 0.262" stroke="hsl(0.0,100%,35%)" stroke-width="0.00342"></path>
<path d="M1.857 0.093 Q0.550 0.023 0.126 0.646" stroke="hsl(0.0,100%,35%)" stroke-width="0.00114"></path>
<path d="M1.857 0.093 Q1.830 0.129 1.895 0.151" stroke="hsl(0.0,100%,35%)" stroke-width="0.00114"></path>
<path d="M0.407 0.300 Q0.219 0.567 0.698 0.717" stroke="hsl(0.0,100%,35%)" stroke-width="0.00114"></path>
<path d="M0.407 0.300 Q0.107 0.614 0.654 0.829" stroke="hsl(0.0,100%,35%)" stroke-width="0.00114"></path>
<path d="M0.407 0.300 Q1.169 0.574 1.871 0.262" stroke="hsl(0.0,100%,35%)" stroke-width="0.00228"></path>
<path d="M0.407 0.300 Q-0.099 0.723 0.615 1.063" stroke="hsl(0.0,100%,35%)" stroke-width="0.00114"></path>
<path d="M0.407 0.300 Q0.080 0.596 0.586 0.820" stroke="hsl(0.0,100%,35%)" stroke-width="0.00114"></path>
<path d="M0.407 0.300 Q0.116 0.630 0.695 0.844" stroke="hsl(0.0,100%,35%)" stroke-width="0.00114"></path>
<path d="M0.407 0.300 Q-0.109 0.704 0.565 1.044" stroke="hsl(0.0,100%,35%)" stroke-width="0.00114"></path>
<path d="M0.407 0.300 Q0.333 0.377 0.467 0.430" stroke="hsl(0.0,100%,35%)" stroke-width="0.00228"></path>
<path d="M0.407 0.300 Q-0.046 0.750 0.732 1.069" stroke="hsl(0.0,100%,35%)" stroke-width="0.00114"></path>
<path d="M0.407 0.300 Q0.502 0.202 0.331 0.134" stroke="hsl(0.0,100%,35%)" stroke-width="0.00114"></path>
<path d="M0.407 0.300 Q0.375 0.234 0.240 0.235" stroke="hsl(0.0,100%,35%)" stroke-width="0.00114"></path>
<path d="M0.407 0.300 Q0.295 0.278 0.228 0.328" stroke="hsl(0.0,100%,35%)" stroke-width="0.00114"></path>
<path d="M0.407 0.300 Q0.430 0.244 0.326 0.220" stroke="hsl(0.0,100%,35%)" stroke-width="0.00114"></path>
<path d="M0.407 0.300 Q0.634 0.746 1.555 0.733" stroke="hsl(0.0,100%,35%)" stroke-width="0.00114"></path>
<path d="M0.407 0.300 Q0.262 0.278 0.187 0.344" stroke="hsl(0.0,100%,35%)" stroke-width="0.00114"></path>
<path d="M0.407 0.300 Q0.595 0.214 0.469 0.103" stroke="hsl(0.0,100%,35%)" stroke-width="0.00114"></path>
<path d="M0.856 0.737 Q0.407 0.679 0.195 0.885" stroke="hsl(180.0,100%,35%)" stroke-width="0.00456"></path>
<path d="M0.856 0.737 Q1.010 0.707 0.983 0.625" stroke="hsl(180.0,100%,35%)" stroke-width="0.00114"></path>
<path d="M0.856 0.737 Q0.476 0.756 0.428 0.945" stroke="hsl(180.0,100%,35%)" stroke-width="0.00456"></path>
<path d="M0.856 0.737 Q0.581 0.803 0.649 0.952" stroke="hsl(180.0,100%,35%)" stroke-width="0.00114"></path>
<path d="M0.856 0.737 Q1.453 0.520 1.159 0.181" stroke="hsl(180.0,100%,35%)" stroke-width="0.00114"></path>
<path d="M0.856 0.737 Q0.793 0.696 0.698 0.717" stroke="hsl(180.0,100%,35%)" stroke-width="0.00114"></path>
<path d="M0.856 0.737 Q0.654 0.725 0.586 0.820" stroke="hsl(180.0,100%,35%)" stroke-width="0.00228"></path>
<path d="M0.856 0.737 Q1.201 0.444 0.705 0.212" stroke="hsl(180.0,100%,35%)" stroke-width="0.00114"></path>
<path d="M0.856 0.737 Q0.580 0.847 0.734 1.006" stroke="hsl(180.0,100%,35%)" stroke-width="0.00114"></path>
<path d="M0.962 0.395 Q0.553 0.613 0.888 0.860" stroke="hsl(0.0,100%,35%)" stroke-width="0.00114"></path>
<path d="M0.962 0.395 Q0.389 0.615 0.692 0.942" stroke="hsl(0.0,100%,35%)" stroke-width="0.00114"></path>
<path d="M0.962 0.395 Q0.926 0.456 1.036 0.487" stroke="hsl(0.0,100%,35%)" stroke-width="0.00114"></path>
<path d="M0.931 0.127 Q0.025 0.436 0.428 0.945" stroke="hsl(180.0,100%,35%)" stroke-width="0.00228"></path>
<path d="M0.931 0.127 Q1.002 0.200 1.159 0.181" stroke="hsl(180.0,100%,35%)" stroke-width="0.00342"></path>
<path d="M0.931 0.127 Q0.750 0.124 0.705 0.212" stroke="hsl(180.0,100%,35%)" stroke-width="0.00114"></path>
<path d="M0.931 0.127 Q0.204 0.405 0.586 0.820" stroke="hsl(180.0,100%,35%)" stroke-width="0.00114"></path>
</g>
<text x="1.769" y="0.642" font-size="0.008002" fill="hsl(0.0,100%,20%)">abarth</text>
<text x="1.941" y="0.673" font-size="0.008002" fill="hsl(0.0,100%,20%)">ddorwin</text>
<text x="0.654" y="0.823" font-size="0.012223" fill="hsl(0.0,100%,20%)">wez</text>
<text x="0.126" y="0.642" font-size="0.008002" fill="hsl(0.0,100%,20%)">tsepez</text>
<text x="0.700" y="0.473" font-size="0.013067" fill="hsl(0.0,100%,20%)">andre.kempe</text>
<text x="0.899" y="0.506" font-size="0.004620" fill="hsl(0.0,100%,20%)">mfoltz</text>
<text x="0.644" y="0.955" font-size="0.010331" fill="hsl(0.0,100%,20%)">agrieve</text>
<text x="1.660" y="0.209" font-size="0.012223" fill="hsl(0.0,100%,20%)">thakis</text>
<text x="0.586" y="0.786" font-size="0.067900" fill="hsl(180.0,100%,20%)">haraken</text>
<text x="0.705" y="0.188" font-size="0.048235" fill="hsl(180.0,100%,20%)">mlippautz</text>
<text x="0.428" y="0.899" font-size="0.092976" fill="hsl(180.0,100%,20%)">bartekn</text>
<text x="0.317" y="0.484" font-size="0.013860" fill="hsl(0.0,100%,20%)">avi</text>
<text x="0.467" y="0.423" font-size="0.013860" fill="hsl(0.0,100%,20%)">danakj</text>
<text x="0.888" y="0.848" font-size="0.022633" fill="hsl(0.0,100%,20%)">dcheng</text>
<text x="0.195" y="0.844" font-size="0.082257" fill="hsl(180.0,100%,20%)">lizeb</text>
<text x="0.734" y="0.986" font-size="0.039743" fill="hsl(180.0,100%,20%)">tasak</text>
<text x="0.705" y="1.097" font-size="0.004620" fill="hsl(180.0,100%,20%)">ajuma</text>
<text x="0.365" y="0.753" font-size="0.046431" fill="hsl(180.0,100%,20%)">yukishiino</text>
<text x="0.691" y="0.300" font-size="0.016658" fill="hsl(0.0,100%,20%)">richard.townsend</text>
<text x="1.159" y="0.147" font-size="0.068057" fill="hsl(180.0,100%,20%)">bikineev</text>
<text x="0.239" y="0.940" font-size="0.013860" fill="hsl(180.0,100%,20%)">ssid</text>
<text x="0.698" y="0.711" font-size="0.012223" fill="hsl(180.0,100%,20%)">mpdenton</text>
<text x="0.625" y="1.085" font-size="0.016658" fill="hsl(180.0,100%,20%)">glazunov</text>
<text x="0.695" y="0.839" font-size="0.009240" fill="hsl(180.0,100%,20%)">lukasza</text>
<text x="0.522" y="0.964" font-size="0.030296" fill="hsl(180.0,100%,20%)">keishi</text>
<text x="0.615" y="1.058" font-size="0.009240" fill="hsl(0.0,100%,20%)">gab</text>
<text x="0.430" y="0.813" font-size="0.006534" fill="hsl(180.0,100%,20%)">bgeffon</text>
<text x="0.520" y="0.564" font-size="0.014610" fill="hsl(0.0,100%,20%)">brucedawson</text>
<text x="0.080" y="0.548" font-size="0.010331" fill="hsl(180.0,100%,20%)">ellyjones</text>
<text x="0.674" y="0.804" font-size="0.004620" fill="hsl(180.0,100%,20%)">gbeaty</text>
<text x="1.003" y="0.111" font-size="0.011317" fill="hsl(180.0,100%,20%)">wfh</text>
<text x="0.649" y="0.948" font-size="0.008002" fill="hsl(180.0,100%,20%)">erikchen</text>
<text x="0.601" y="1.066" font-size="0.006534" fill="hsl(180.0,100%,20%)">agl</text>
<text x="0.693" y="0.833" font-size="0.004620" fill="hsl(180.0,100%,20%)">yukiy</text>
<text x="0.565" y="1.041" font-size="0.006534" fill="hsl(0.0,100%,20%)">kinuko</text>
<text x="0.508" y="0.950" font-size="0.006534" fill="hsl(180.0,100%,20%)">tikuta</text>
<text x="0.692" y="0.938" font-size="0.008002" fill="hsl(180.0,100%,20%)">mark</text>
<text x="0.577" y="1.046" font-size="0.008002" fill="hsl(180.0,100%,20%)">sebmarchand</text>
<text x="0.650" y="1.011" font-size="0.006534" fill="hsl(180.0,100%,20%)">sweilun</text>
<text x="0.827" y="0.832" font-size="0.008002" fill="hsl(180.0,100%,20%)">isherman</text>
<text x="0.659" y="0.951" font-size="0.004620" fill="hsl(180.0,100%,20%)">jbroman</text>
<text x="0.431" y="0.688" font-size="0.004620" fill="hsl(180.0,100%,20%)">robertshield</text>
<text x="0.630" y="1.021" font-size="0.004620" fill="hsl(180.0,100%,20%)">grt</text>
<text x="0.619" y="1.032" font-size="0.004620" fill="hsl(180.0,100%,20%)">asvitkine</text>
<text x="0.655" y="1.252" font-size="0.004620" fill="hsl(180.0,100%,20%)">ydago</text>
<text x="0.348" y="0.609" font-size="0.017893" fill="hsl(0.0,100%,20%)">palmer</text>
<text x="0.431" y="0.719" font-size="0.006534" fill="hsl(180.0,100%,20%)">yutak</text>
<text x="0.660" y="0.862" font-size="0.004620" fill="hsl(180.0,100%,20%)">primiano</text>
<text x="0.956" y="0.095" font-size="0.004620" fill="hsl(180.0,100%,20%)">oysteine</text>
<text x="0.930" y="0.030" font-size="0.004620" fill="hsl(180.0,100%,20%)">altimin</text>
<text x="1.130" y="0.027" font-size="0.006534" fill="hsl(180.0,100%,20%)">creis</text>
<text x="0.732" y="1.065" font-size="0.009240" fill="hsl(0.0,100%,20%)">fdoray</text>
<text x="1.177" y="0.036" font-size="0.004620" fill="hsl(180.0,100%,20%)">holte</text>
<text x="0.847" y="0.264" font-size="0.006534" fill="hsl(180.0,100%,20%)">ulan</text>
<text x="0.599" y="0.466" font-size="0.004620" fill="hsl(0.0,100%,20%)">cassew</text>
<text x="1.527" y="0.101" font-size="0.016004" fill="hsl(0.0,100%,20%)">dsanders11</text>
<text x="1.668" y="0.037" font-size="0.004620" fill="hsl(0.0,100%,20%)">acourbot</text>
<text x="1.444" y="0.089" font-size="0.004620" fill="hsl(0.0,100%,20%)">tguilbert</text>
<text x="1.465" y="0.274" font-size="0.004620" fill="hsl(0.0,100%,20%)">tbansal</text>
<text x="1.427" y="0.038" font-size="0.004620" fill="hsl(0.0,100%,20%)">michaeldo</text>
<text x="1.389" y="0.126" font-size="0.004620" fill="hsl(0.0,100%,20%)">austinct</text>
<text x="1.419" y="0.197" font-size="0.004620" fill="hsl(0.0,100%,20%)">olivierrobin</text>
<text x="0.927" y="0.279" font-size="0.006534" fill="hsl(0.0,100%,20%)">eseckler</text>
<text x="1.506" y="0.191" font-size="0.004620" fill="hsl(0.0,100%,20%)">mmoskvitin</text>
<text x="1.416" y="0.023" font-size="0.004620" fill="hsl(0.0,100%,20%)">jamiewalch</text>
<text x="1.418" y="0.029" font-size="0.004620" fill="hsl(0.0,100%,20%)">aleventhal</text>
<text x="0.080" y="0.606" font-size="0.004620" fill="hsl(180.0,100%,20%)">elainechien</text>
<text x="0.077" y="0.473" font-size="0.004620" fill="hsl(180.0,100%,20%)">tkent</text>
<text x="1.085" y="0.839" font-size="0.008002" fill="hsl(0.0,100%,20%)">gabor.kertesz</text>
<text x="1.164" y="0.318" font-size="0.012223" fill="hsl(180.0,100%,20%)">hpayer</text>
<text x="0.157" y="0.426" font-size="0.008002" fill="hsl(0.0,100%,20%)">jannh</text>
<text x="1.920" y="0.415" font-size="0.008002" fill="hsl(0.0,100%,20%)">kbr</text>
<text x="1.728" y="0.525" font-size="0.004620" fill="hsl(0.0,100%,20%)">martiniss</text>
<text x="1.715" y="0.424" font-size="0.004620" fill="hsl(0.0,100%,20%)">ccameron</text>
<text x="1.732" y="0.749" font-size="0.012223" fill="hsl(0.0,100%,20%)">kmarshall</text>
<text x="1.555" y="0.729" font-size="0.008002" fill="hsl(0.0,100%,20%)">kylechar</text>
<text x="1.915" y="0.278" font-size="0.006534" fill="hsl(180.0,100%,20%)">kolos</text>
<text x="1.868" y="0.330" font-size="0.004620" fill="hsl(180.0,100%,20%)">lgrey</text>
<text x="1.320" y="0.691" font-size="0.019049" fill="hsl(180.0,100%,20%)">thiabaud</text>
<text x="0.324" y="0.668" font-size="0.009240" fill="hsl(180.0,100%,20%)">pasko</text>
<text x="0.117" y="0.701" font-size="0.004620" fill="hsl(180.0,100%,20%)">msramek</text>
<text x="0.078" y="0.734" font-size="0.006534" fill="hsl(180.0,100%,20%)">alexilin</text>
<text x="0.369" y="0.728" font-size="0.004620" fill="hsl(180.0,100%,20%)">mamir</text>
<text x="0.151" y="0.681" font-size="0.004620" fill="hsl(180.0,100%,20%)">amraboelkher</text>
<text x="0.257" y="0.731" font-size="0.004620" fill="hsl(180.0,100%,20%)">skyostil</text>
<text x="0.403" y="1.173" font-size="0.006534" fill="hsl(180.0,100%,20%)">arthursonzogni</text>
<text x="1.857" y="0.083" font-size="0.020138" fill="hsl(0.0,100%,20%)">thestig</text>
<text x="0.248" y="0.600" font-size="0.004620" fill="hsl(180.0,100%,20%)">asully</text>
<text x="0.185" y="0.726" font-size="0.004620" fill="hsl(180.0,100%,20%)">etiennep</text>
<text x="1.804" y="0.175" font-size="0.006534" fill="hsl(0.0,100%,20%)">rsesek</text>
<text x="0.283" y="0.736" font-size="0.004620" fill="hsl(180.0,100%,20%)">caitlinfischer</text>
<text x="0.182" y="0.952" font-size="0.004620" fill="hsl(180.0,100%,20%)">sinansahin</text>
<text x="0.135" y="0.945" font-size="0.004620" fill="hsl(180.0,100%,20%)">hendrich</text>
<text x="0.407" y="0.290" font-size="0.020661" fill="hsl(0.0,100%,20%)">pkasting</text>
<text x="1.871" y="0.256" font-size="0.010331" fill="hsl(0.0,100%,20%)">pbos</text>
<text x="0.331" y="0.131" font-size="0.004620" fill="hsl(0.0,100%,20%)">renjietang</text>
<text x="0.240" y="0.233" font-size="0.004620" fill="hsl(0.0,100%,20%)">sandersd</text>
<text x="0.228" y="0.325" font-size="0.004620" fill="hsl(0.0,100%,20%)">droger</text>
<text x="0.326" y="0.218" font-size="0.004620" fill="hsl(0.0,100%,20%)">sadrul</text>
<text x="0.187" y="0.342" font-size="0.004620" fill="hsl(0.0,100%,20%)">bajones</text>
<text x="0.469" y="0.101" font-size="0.004620" fill="hsl(0.0,100%,20%)">abigailbklein</text>
<text x="0.696" y="0.393" font-size="0.008002" fill="hsl(180.0,100%,20%)">ajwong</text>
<text x="0.856" y="0.728" font-size="0.018480" fill="hsl(180.0,100%,20%)">saelo</text>
<text x="0.983" y="0.623" font-size="0.004620" fill="hsl(180.0,100%,20%)">cbruni</text>
<text x="0.962" y="0.391" font-size="0.008002" fill="hsl(0.0,100%,20%)">ssyed</text>
<text x="1.036" y="0.484" font-size="0.004620" fill="hsl(180.0,100%,20%)">abhijeet</text>
<text x="0.931" y="0.121" font-size="0.012223" fill="hsl(180.0,100%,20%)">stha09</text>
<text x="1.664" y="0.113" font-size="0.006534" fill="hsl(0.0,100%,20%)">dpranke</text>
<text x="1.856" y="0.215" font-size="0.004620" fill="hsl(0.0,100%,20%)">sunnyps</text>
<text x="1.726" y="0.130" font-size="0.004620" fill="hsl(0.0,100%,20%)">sammc</text>
<text x="1.643" y="0.118" font-size="0.004620" fill="hsl(0.0,100%,20%)">sdefresne</text>
<text x="1.895" y="0.148" font-size="0.004620" fill="hsl(0.0,100%,20%)">ajgo</text>
<text x="1.438" y="0.575" font-size="0.006534" fill="hsl(180.0,100%,20%)">rkaplow</text>
<text x="1.115" y="0.722" font-size="0.004620" fill="hsl(180.0,100%,20%)">chanli</text>
</svg>
