<svg width="4000" height="2000" viewBox="-0.025 -0.025 2.05 1.05" xmlns="http://www.w3.org/2000/svg">
  <style>
    path {
      fill: none;
      stroke-linecap: round;
      stroke-opacity: 0.4;
    }

    text {
      text-anchor: middle;
      alignment-baseline: hanging;
    }
  </style>
  <g opacity="0.4">
<path d="M1.136 0.808 Q0.928 0.860 0.985 0.974" stroke="hsl(0.0,100%,35%)" stroke-width="0.01278"></path>
<path d="M1.136 0.808 Q0.965 0.799 0.912 0.881" stroke="hsl(0.0,100%,35%)" stroke-width="0.01278"></path>
<path d="M1.136 0.808 Q1.164 0.722 1.004 0.690" stroke="hsl(0.0,100%,35%)" stroke-width="0.01278"></path>
<path d="M0.117 0.765 Q0.745 0.751 0.856 0.442" stroke="hsl(120.0,100%,35%)" stroke-width="0.03833"></path>
<path d="M0.117 0.765 Q0.376 0.828 0.556 0.716" stroke="hsl(120.0,100%,35%)" stroke-width="0.02556"></path>
<path d="M0.117 0.765 Q1.033 0.549 0.813 0.056" stroke="hsl(120.0,100%,35%)" stroke-width="0.01278"></path>
<path d="M0.856 0.442 Q0.487 0.519 0.556 0.716" stroke="hsl(0.0,100%,35%)" stroke-width="0.01278"></path>
<path d="M0.856 0.442 Q0.769 0.750 1.350 0.861" stroke="hsl(0.0,100%,35%)" stroke-width="0.02556"></path>
<path d="M0.856 0.442 Q0.634 0.415 0.532 0.517" stroke="hsl(0.0,100%,35%)" stroke-width="0.01278"></path>
<path d="M0.856 0.442 Q0.832 0.520 0.980 0.549" stroke="hsl(0.0,100%,35%)" stroke-width="0.01278"></path>
<path d="M1.124 0.161 Q1.054 0.046 0.813 0.056" stroke="hsl(120.0,100%,35%)" stroke-width="0.02556"></path>
<path d="M1.124 0.161 Q0.968 0.171 0.952 0.249" stroke="hsl(120.0,100%,35%)" stroke-width="0.01278"></path>
<path d="M1.124 0.161 Q0.766 0.248 0.856 0.442" stroke="hsl(120.0,100%,35%)" stroke-width="0.01278"></path>
<path d="M1.124 0.161 Q0.641 0.402 1.004 0.690" stroke="hsl(120.0,100%,35%)" stroke-width="0.01278"></path>
<path d="M0.636 0.203 Q0.503 0.267 0.601 0.346" stroke="hsl(120.0,100%,35%)" stroke-width="0.01278"></path>
<path d="M0.636 0.203 Q0.501 0.120 0.311 0.168" stroke="hsl(120.0,100%,35%)" stroke-width="0.01278"></path>
<path d="M0.636 0.203 Q0.913 0.280 1.124 0.161" stroke="hsl(120.0,100%,35%)" stroke-width="0.01278"></path>
<path d="M1.438 0.662 Q0.963 0.727 0.985 0.974" stroke="hsl(0.0,100%,35%)" stroke-width="0.01278"></path>
<path d="M1.438 0.662 Q1.199 0.589 1.004 0.690" stroke="hsl(0.0,100%,35%)" stroke-width="0.01278"></path>
<path d="M1.438 0.662 Q1.236 0.744 1.350 0.861" stroke="hsl(0.0,100%,35%)" stroke-width="0.06389"></path>
<path d="M1.438 0.662 Q1.323 0.436 0.856 0.442" stroke="hsl(0.0,100%,35%)" stroke-width="0.03833"></path>
<path d="M1.370 0.320 Q1.015 0.278 0.856 0.442" stroke="hsl(240.0,100%,35%)" stroke-width="0.01278"></path>
<path d="M1.370 0.320 Q1.301 0.410 1.461 0.463" stroke="hsl(240.0,100%,35%)" stroke-width="0.01278"></path>
<path d="M1.370 0.320 Q1.564 0.369 1.701 0.285" stroke="hsl(240.0,100%,35%)" stroke-width="0.01278"></path>
</g>
<text x="1.136" y="0.787" font-size="0.041404" fill="hsl(0.0,100%,20%)">adarom</text>
<text x="0.985" y="0.957" font-size="0.033806" fill="hsl(0.0,100%,20%)">kdlee</text>
<text x="0.912" y="0.869" font-size="0.023905" fill="hsl(0.0,100%,20%)">yukishiino</text>
<text x="1.004" y="0.669" font-size="0.041404" fill="hsl(0.0,100%,20%)">tasak</text>
<text x="0.117" y="0.735" font-size="0.058554" fill="hsl(120.0,100%,20%)">ahijazi</text>
<text x="0.856" y="0.399" font-size="0.086189" fill="hsl(0.0,100%,20%)">bartekn</text>
<text x="0.556" y="0.695" font-size="0.041404" fill="hsl(120.0,100%,20%)">haraken</text>
<text x="0.813" y="0.035" font-size="0.041404" fill="hsl(120.0,100%,20%)">arthursonzogni</text>
<text x="1.350" y="0.829" font-size="0.063246" fill="hsl(0.0,100%,20%)">keishi</text>
<text x="0.532" y="0.505" font-size="0.023905" fill="hsl(120.0,100%,20%)">tsepez</text>
<text x="0.980" y="0.537" font-size="0.023905" fill="hsl(0.0,100%,20%)">danakj</text>
<text x="1.124" y="0.132" font-size="0.058554" fill="hsl(120.0,100%,20%)">dcheng</text>
<text x="0.952" y="0.237" font-size="0.023905" fill="hsl(120.0,100%,20%)">mlippautz</text>
<text x="0.636" y="0.182" font-size="0.041404" fill="hsl(120.0,100%,20%)">jeffyoon</text>
<text x="0.601" y="0.334" font-size="0.023905" fill="hsl(120.0,100%,20%)">davidbienvenu</text>
<text x="0.311" y="0.156" font-size="0.023905" fill="hsl(120.0,100%,20%)">skyostil</text>
<text x="1.438" y="0.624" font-size="0.075593" fill="hsl(0.0,100%,20%)">mikt</text>
<text x="1.370" y="0.299" font-size="0.041404" fill="hsl(240.0,100%,20%)">thakis</text>
<text x="1.461" y="0.451" font-size="0.023905" fill="hsl(240.0,100%,20%)">hans</text>
<text x="1.701" y="0.273" font-size="0.023905" fill="hsl(240.0,100%,20%)">lukasza</text>
</svg>
