<svg width="4000" height="2000" viewBox="-0.025 -0.025 2.05 1.05" xmlns="http://www.w3.org/2000/svg">
  <style>
    path {
      fill: none;
      stroke-linecap: round;
      stroke-opacity: 0.4;
    }

    text {
      text-anchor: middle;
      alignment-baseline: hanging;
    }
  </style>
  <g opacity="0.4">
<path d="M1.891 0.783 Q1.733 0.839 1.808 0.929" stroke="hsl(0.0,100%,35%)" stroke-width="0.00114"></path>
<path d="M1.891 0.783 Q1.563 0.147 0.250 0.167" stroke="hsl(0.0,100%,35%)" stroke-width="0.00114"></path>
<path d="M1.891 0.783 Q1.960 0.769 1.949 0.733" stroke="hsl(0.0,100%,35%)" stroke-width="0.00114"></path>
<path d="M0.074 0.673 Q0.163 0.661 0.160 0.615" stroke="hsl(0.0,100%,35%)" stroke-width="0.00114"></path>
<path d="M0.074 0.673 Q0.429 0.895 0.941 0.771" stroke="hsl(0.0,100%,35%)" stroke-width="0.00114"></path>
<path d="M0.074 0.673 Q1.124 0.855 1.709 0.383" stroke="hsl(0.0,100%,35%)" stroke-width="0.00114"></path>
<path d="M0.074 0.673 Q0.918 0.830 1.410 0.452" stroke="hsl(0.0,100%,35%)" stroke-width="0.00228"></path>
<path d="M0.074 0.673 Q0.566 0.455 0.250 0.167" stroke="hsl(0.0,100%,35%)" stroke-width="0.00114"></path>
<path d="M0.074 0.673 Q1.142 0.713 1.454 0.201" stroke="hsl(0.0,100%,35%)" stroke-width="0.00114"></path>
<path d="M0.074 0.673 Q0.717 0.843 1.191 0.567" stroke="hsl(0.0,100%,35%)" stroke-width="0.00114"></path>
<path d="M1.454 0.201 Q1.231 0.318 1.410 0.452" stroke="hsl(180.0,100%,35%)" stroke-width="0.00341"></path>
<path d="M1.454 0.201 Q1.689 0.265 1.866 0.165" stroke="hsl(180.0,100%,35%)" stroke-width="0.00683"></path>
<path d="M1.454 0.201 Q1.679 0.172 1.673 0.056" stroke="hsl(180.0,100%,35%)" stroke-width="0.00228"></path>
<path d="M1.454 0.201 Q1.483 0.247 1.580 0.244" stroke="hsl(180.0,100%,35%)" stroke-width="0.00114"></path>
<path d="M1.454 0.201 Q1.032 0.443 1.412 0.702" stroke="hsl(180.0,100%,35%)" stroke-width="0.00114"></path>
<path d="M1.454 0.201 Q0.505 0.415 0.715 0.925" stroke="hsl(180.0,100%,35%)" stroke-width="0.00114"></path>
<path d="M1.454 0.201 Q1.030 0.331 1.191 0.567" stroke="hsl(180.0,100%,35%)" stroke-width="0.00228"></path>
<path d="M1.191 0.567 Q0.456 0.481 0.128 0.821" stroke="hsl(90.0,100%,35%)" stroke-width="0.00228"></path>
<path d="M1.191 0.567 Q1.193 0.679 1.412 0.702" stroke="hsl(90.0,100%,35%)" stroke-width="0.06830"></path>
<path d="M1.191 0.567 Q1.459 0.466 1.320 0.313" stroke="hsl(90.0,100%,35%)" stroke-width="0.02618"></path>
<path d="M1.191 0.567 Q1.040 0.179 0.250 0.167" stroke="hsl(90.0,100%,35%)" stroke-width="0.00114"></path>
<path d="M1.191 0.567 Q1.392 0.553 1.410 0.452" stroke="hsl(90.0,100%,35%)" stroke-width="0.06944"></path>
<path d="M1.191 0.567 Q1.174 0.730 1.489 0.774" stroke="hsl(90.0,100%,35%)" stroke-width="0.00114"></path>
<path d="M1.191 0.567 Q1.118 0.600 1.167 0.643" stroke="hsl(90.0,100%,35%)" stroke-width="0.00683"></path>
<path d="M1.191 0.567 Q0.944 0.663 1.078 0.805" stroke="hsl(90.0,100%,35%)" stroke-width="0.00797"></path>
<path d="M1.191 0.567 Q1.850 0.501 1.866 0.165" stroke="hsl(90.0,100%,35%)" stroke-width="0.02390"></path>
<path d="M1.191 0.567 Q0.974 0.230 0.269 0.262" stroke="hsl(90.0,100%,35%)" stroke-width="0.00114"></path>
<path d="M1.191 0.567 Q0.938 0.647 1.038 0.788" stroke="hsl(90.0,100%,35%)" stroke-width="0.00114"></path>
<path d="M1.191 0.567 Q1.319 0.634 1.478 0.587" stroke="hsl(90.0,100%,35%)" stroke-width="0.00455"></path>
<path d="M1.191 0.567 Q1.276 0.607 1.374 0.575" stroke="hsl(90.0,100%,35%)" stroke-width="0.00569"></path>
<path d="M1.191 0.567 Q1.319 0.475 1.167 0.392" stroke="hsl(90.0,100%,35%)" stroke-width="0.00228"></path>
<path d="M1.191 0.567 Q0.998 0.632 1.083 0.741" stroke="hsl(90.0,100%,35%)" stroke-width="0.01480"></path>
<path d="M1.191 0.567 Q1.615 0.437 1.454 0.201" stroke="hsl(90.0,100%,35%)" stroke-width="0.00228"></path>
<path d="M1.191 0.567 Q1.225 0.461 1.026 0.421" stroke="hsl(90.0,100%,35%)" stroke-width="0.00228"></path>
<path d="M1.191 0.567 Q1.155 0.402 0.825 0.383" stroke="hsl(90.0,100%,35%)" stroke-width="0.00228"></path>
<path d="M1.191 0.567 Q1.123 0.230 0.451 0.189" stroke="hsl(90.0,100%,35%)" stroke-width="0.00114"></path>
<path d="M1.191 0.567 Q0.678 0.453 0.342 0.678" stroke="hsl(90.0,100%,35%)" stroke-width="0.00114"></path>
<path d="M1.191 0.567 Q1.418 0.565 1.464 0.454" stroke="hsl(90.0,100%,35%)" stroke-width="0.00114"></path>
<path d="M1.191 0.567 Q1.704 0.493 1.673 0.227" stroke="hsl(90.0,100%,35%)" stroke-width="0.00114"></path>
<path d="M1.191 0.567 Q1.292 0.597 1.374 0.554" stroke="hsl(90.0,100%,35%)" stroke-width="0.00228"></path>
<path d="M1.191 0.567 Q0.903 0.619 0.941 0.771" stroke="hsl(90.0,100%,35%)" stroke-width="0.00228"></path>
<path d="M1.191 0.567 Q1.290 0.408 1.002 0.325" stroke="hsl(90.0,100%,35%)" stroke-width="0.00228"></path>
<path d="M1.191 0.567 Q1.296 0.458 1.108 0.383" stroke="hsl(90.0,100%,35%)" stroke-width="0.00114"></path>
<path d="M1.191 0.567 Q1.177 0.724 1.481 0.765" stroke="hsl(90.0,100%,35%)" stroke-width="0.00114"></path>
<path d="M1.191 0.567 Q1.061 0.338 0.585 0.351" stroke="hsl(90.0,100%,35%)" stroke-width="0.00228"></path>
<path d="M1.191 0.567 Q1.162 0.490 1.007 0.488" stroke="hsl(90.0,100%,35%)" stroke-width="0.00228"></path>
<path d="M1.191 0.567 Q1.374 0.627 1.533 0.551" stroke="hsl(90.0,100%,35%)" stroke-width="0.00228"></path>
<path d="M1.191 0.567 Q1.337 0.492 1.222 0.404" stroke="hsl(90.0,100%,35%)" stroke-width="0.00341"></path>
<path d="M1.191 0.567 Q1.303 0.604 1.400 0.558" stroke="hsl(90.0,100%,35%)" stroke-width="0.00114"></path>
<path d="M1.191 0.567 Q1.311 0.513 1.232 0.443" stroke="hsl(90.0,100%,35%)" stroke-width="0.00228"></path>
<path d="M1.191 0.567 Q1.213 0.477 1.043 0.447" stroke="hsl(90.0,100%,35%)" stroke-width="0.00114"></path>
<path d="M1.191 0.567 Q1.193 0.464 0.994 0.441" stroke="hsl(90.0,100%,35%)" stroke-width="0.00114"></path>
<path d="M1.191 0.567 Q1.202 0.464 1.003 0.436" stroke="hsl(90.0,100%,35%)" stroke-width="0.00114"></path>
<path d="M1.191 0.567 Q1.461 0.584 1.553 0.456" stroke="hsl(90.0,100%,35%)" stroke-width="0.00114"></path>
<path d="M1.191 0.567 Q1.354 0.491 1.243 0.395" stroke="hsl(90.0,100%,35%)" stroke-width="0.00114"></path>
<path d="M1.191 0.567 Q1.288 0.180 0.556 0.048" stroke="hsl(90.0,100%,35%)" stroke-width="0.00114"></path>
<path d="M1.191 0.567 Q1.362 0.550 1.367 0.463" stroke="hsl(90.0,100%,35%)" stroke-width="0.00228"></path>
<path d="M1.191 0.567 Q1.256 0.398 0.941 0.329" stroke="hsl(90.0,100%,35%)" stroke-width="0.00114"></path>
<path d="M0.269 0.262 Q0.356 0.370 0.585 0.351" stroke="hsl(0.0,100%,35%)" stroke-width="0.00341"></path>
<path d="M0.269 0.262 Q0.199 0.651 0.941 0.771" stroke="hsl(0.0,100%,35%)" stroke-width="0.00114"></path>
<path d="M0.269 0.262 Q0.239 0.695 1.078 0.805" stroke="hsl(0.0,100%,35%)" stroke-width="0.00114"></path>
<path d="M0.128 0.821 Q1.064 0.893 1.410 0.452" stroke="hsl(90.0,100%,35%)" stroke-width="0.00455"></path>
<path d="M0.128 0.821 Q0.863 0.906 1.191 0.567" stroke="hsl(90.0,100%,35%)" stroke-width="0.00341"></path>
<path d="M0.128 0.821 Q0.615 1.003 1.078 0.805" stroke="hsl(90.0,100%,35%)" stroke-width="0.00114"></path>
<path d="M0.128 0.821 Q0.865 1.018 1.412 0.702" stroke="hsl(90.0,100%,35%)" stroke-width="0.00114"></path>
<path d="M0.128 0.821 Q0.200 0.875 0.322 0.851" stroke="hsl(90.0,100%,35%)" stroke-width="0.00341"></path>
<path d="M1.412 0.702 Q1.410 0.590 1.191 0.567" stroke="hsl(90.0,100%,35%)" stroke-width="0.07171"></path>
<path d="M1.412 0.702 Q1.611 0.577 1.410 0.452" stroke="hsl(90.0,100%,35%)" stroke-width="0.06944"></path>
<path d="M1.412 0.702 Q1.586 0.512 1.254 0.386" stroke="hsl(90.0,100%,35%)" stroke-width="0.00341"></path>
<path d="M1.412 0.702 Q1.440 0.599 1.244 0.562" stroke="hsl(90.0,100%,35%)" stroke-width="0.00455"></path>
<path d="M1.412 0.702 Q1.337 0.624 1.167 0.643" stroke="hsl(90.0,100%,35%)" stroke-width="0.03187"></path>
<path d="M1.412 0.702 Q1.677 0.489 1.320 0.313" stroke="hsl(90.0,100%,35%)" stroke-width="0.00114"></path>
<path d="M1.412 0.702 Q1.174 0.690 1.099 0.804" stroke="hsl(90.0,100%,35%)" stroke-width="0.00114"></path>
<path d="M1.412 0.702 Q1.311 0.547 0.986 0.562" stroke="hsl(90.0,100%,35%)" stroke-width="0.00228"></path>
<path d="M1.412 0.702 Q1.163 0.687 1.078 0.805" stroke="hsl(90.0,100%,35%)" stroke-width="0.00683"></path>
<path d="M1.412 0.702 Q2.069 0.524 1.866 0.165" stroke="hsl(90.0,100%,35%)" stroke-width="0.00455"></path>
<path d="M1.412 0.702 Q1.217 0.656 1.083 0.741" stroke="hsl(90.0,100%,35%)" stroke-width="0.00228"></path>
<path d="M1.412 0.702 Q1.279 0.685 1.216 0.746" stroke="hsl(90.0,100%,35%)" stroke-width="0.00114"></path>
<path d="M1.412 0.702 Q0.896 0.476 0.342 0.678" stroke="hsl(90.0,100%,35%)" stroke-width="0.00114"></path>
<path d="M1.412 0.702 Q1.526 0.537 1.229 0.445" stroke="hsl(90.0,100%,35%)" stroke-width="0.00114"></path>
<path d="M1.412 0.702 Q1.157 0.670 1.038 0.788" stroke="hsl(90.0,100%,35%)" stroke-width="0.00455"></path>
<path d="M1.412 0.702 Q1.816 0.602 1.709 0.383" stroke="hsl(90.0,100%,35%)" stroke-width="0.00228"></path>
<path d="M1.412 0.702 Q1.450 0.595 1.249 0.552" stroke="hsl(90.0,100%,35%)" stroke-width="0.00114"></path>
<path d="M1.412 0.702 Q1.644 0.675 1.642 0.555" stroke="hsl(90.0,100%,35%)" stroke-width="0.00228"></path>
<path d="M1.412 0.702 Q1.854 0.708 1.963 0.494" stroke="hsl(90.0,100%,35%)" stroke-width="0.00114"></path>
<path d="M1.412 0.702 Q1.519 0.620 1.381 0.550" stroke="hsl(90.0,100%,35%)" stroke-width="0.00114"></path>
<path d="M1.412 0.702 Q1.301 0.563 1.004 0.586" stroke="hsl(90.0,100%,35%)" stroke-width="0.00114"></path>
<path d="M1.412 0.702 Q1.768 0.661 1.765 0.478" stroke="hsl(90.0,100%,35%)" stroke-width="0.00114"></path>
<path d="M1.412 0.702 Q1.507 0.204 0.556 0.048" stroke="hsl(90.0,100%,35%)" stroke-width="0.00455"></path>
<path d="M1.412 0.702 Q1.235 0.687 1.166 0.770" stroke="hsl(90.0,100%,35%)" stroke-width="0.00114"></path>
<path d="M1.412 0.702 Q1.563 0.646 1.487 0.560" stroke="hsl(90.0,100%,35%)" stroke-width="0.00114"></path>
<path d="M1.412 0.702 Q1.205 0.670 1.097 0.764" stroke="hsl(90.0,100%,35%)" stroke-width="0.00114"></path>
<path d="M1.412 0.702 Q1.122 0.642 0.941 0.771" stroke="hsl(90.0,100%,35%)" stroke-width="0.00114"></path>
<path d="M1.412 0.702 Q1.259 0.202 0.250 0.167" stroke="hsl(90.0,100%,35%)" stroke-width="0.00114"></path>
<path d="M1.412 0.702 Q0.877 0.859 1.066 1.154" stroke="hsl(90.0,100%,35%)" stroke-width="0.00114"></path>
<path d="M1.320 0.313 Q0.979 0.447 1.167 0.643" stroke="hsl(90.0,100%,35%)" stroke-width="0.00114"></path>
<path d="M1.320 0.313 Q1.052 0.414 1.191 0.567" stroke="hsl(90.0,100%,35%)" stroke-width="0.01821"></path>
<path d="M1.320 0.313 Q1.054 0.526 1.412 0.702" stroke="hsl(90.0,100%,35%)" stroke-width="0.00569"></path>
<path d="M1.320 0.313 Q0.859 0.480 1.083 0.741" stroke="hsl(90.0,100%,35%)" stroke-width="0.00114"></path>
<path d="M1.320 0.313 Q1.711 0.348 1.866 0.165" stroke="hsl(90.0,100%,35%)" stroke-width="0.00114"></path>
<path d="M1.320 0.313 Q1.253 0.400 1.410 0.452" stroke="hsl(90.0,100%,35%)" stroke-width="0.01480"></path>
<path d="M1.320 0.313 Q1.477 0.284 1.454 0.201" stroke="hsl(90.0,100%,35%)" stroke-width="0.00228"></path>
<path d="M1.320 0.313 Q0.805 0.511 1.078 0.805" stroke="hsl(90.0,100%,35%)" stroke-width="0.00228"></path>
<path d="M1.167 0.643 Q1.242 0.722 1.412 0.702" stroke="hsl(90.0,100%,35%)" stroke-width="0.02846"></path>
<path d="M1.167 0.643 Q1.240 0.610 1.191 0.567" stroke="hsl(90.0,100%,35%)" stroke-width="0.02732"></path>
<path d="M1.167 0.643 Q1.441 0.596 1.410 0.452" stroke="hsl(90.0,100%,35%)" stroke-width="0.00797"></path>
<path d="M1.167 0.643 Q1.507 0.509 1.320 0.313" stroke="hsl(90.0,100%,35%)" stroke-width="0.00683"></path>
<path d="M1.167 0.643 Q0.993 0.706 1.078 0.805" stroke="hsl(90.0,100%,35%)" stroke-width="0.00228"></path>
<path d="M1.167 0.643 Q1.899 0.544 1.866 0.165" stroke="hsl(90.0,100%,35%)" stroke-width="0.00114"></path>
<path d="M1.167 0.643 Q1.558 0.783 1.918 0.623" stroke="hsl(90.0,100%,35%)" stroke-width="0.00114"></path>
<path d="M1.866 0.165 Q1.631 0.101 1.454 0.201" stroke="hsl(180.0,100%,35%)" stroke-width="0.09448"></path>
<path d="M1.866 0.165 Q1.408 0.217 1.410 0.452" stroke="hsl(180.0,100%,35%)" stroke-width="0.05236"></path>
<path d="M1.866 0.165 Q1.207 0.231 1.191 0.567" stroke="hsl(180.0,100%,35%)" stroke-width="0.02960"></path>
<path d="M1.866 0.165 Q0.960 0.327 1.078 0.805" stroke="hsl(180.0,100%,35%)" stroke-width="0.00228"></path>
<path d="M1.866 0.165 Q1.209 0.343 1.412 0.702" stroke="hsl(180.0,100%,35%)" stroke-width="0.00341"></path>
<path d="M1.866 0.165 Q1.699 0.172 1.676 0.255" stroke="hsl(180.0,100%,35%)" stroke-width="0.00114"></path>
<path d="M1.866 0.165 Q1.880 0.075 1.707 0.048" stroke="hsl(180.0,100%,35%)" stroke-width="0.00114"></path>
<path d="M1.866 0.165 Q1.693 0.224 1.770 0.321" stroke="hsl(180.0,100%,35%)" stroke-width="0.00228"></path>
<path d="M1.866 0.165 Q1.334 0.139 1.167 0.392" stroke="hsl(180.0,100%,35%)" stroke-width="0.00114"></path>
<path d="M1.866 0.165 Q1.720 0.157 1.673 0.227" stroke="hsl(180.0,100%,35%)" stroke-width="0.00569"></path>
<path d="M1.866 0.165 Q1.360 0.287 1.487 0.560" stroke="hsl(180.0,100%,35%)" stroke-width="0.00114"></path>
<path d="M1.866 0.165 Q1.241 0.125 1.026 0.421" stroke="hsl(180.0,100%,35%)" stroke-width="0.00114"></path>
<path d="M1.866 0.165 Q1.931 0.046 1.714 -0.012" stroke="hsl(180.0,100%,35%)" stroke-width="0.00114"></path>
<path d="M1.866 0.165 Q1.660 0.147 1.580 0.244" stroke="hsl(180.0,100%,35%)" stroke-width="0.00114"></path>
<path d="M1.374 0.575 Q1.289 0.534 1.191 0.567" stroke="hsl(90.0,100%,35%)" stroke-width="0.00455"></path>
<path d="M1.374 0.575 Q1.291 0.646 1.412 0.702" stroke="hsl(90.0,100%,35%)" stroke-width="0.00228"></path>
<path d="M1.374 0.575 Q1.490 0.521 1.410 0.452" stroke="hsl(90.0,100%,35%)" stroke-width="0.00228"></path>
<path d="M1.083 0.741 Q1.277 0.675 1.191 0.567" stroke="hsl(90.0,100%,35%)" stroke-width="0.01024"></path>
<path d="M1.083 0.741 Q1.023 0.755 1.038 0.788" stroke="hsl(90.0,100%,35%)" stroke-width="0.00228"></path>
<path d="M1.083 0.741 Q1.388 0.713 1.400 0.558" stroke="hsl(90.0,100%,35%)" stroke-width="0.00114"></path>
<path d="M1.083 0.741 Q1.478 0.662 1.410 0.452" stroke="hsl(90.0,100%,35%)" stroke-width="0.00341"></path>
<path d="M1.083 0.741 Q1.279 0.787 1.412 0.702" stroke="hsl(90.0,100%,35%)" stroke-width="0.00569"></path>
<path d="M1.083 0.741 Q1.935 0.609 1.866 0.165" stroke="hsl(90.0,100%,35%)" stroke-width="0.00228"></path>
<path d="M1.083 0.741 Q1.396 0.622 1.232 0.443" stroke="hsl(90.0,100%,35%)" stroke-width="0.00114"></path>
<path d="M1.083 0.741 Q1.404 0.743 1.478 0.587" stroke="hsl(90.0,100%,35%)" stroke-width="0.00114"></path>
<path d="M1.083 0.741 Q1.430 0.731 1.487 0.560" stroke="hsl(90.0,100%,35%)" stroke-width="0.00114"></path>
<path d="M1.083 0.741 Q1.544 0.574 1.320 0.313" stroke="hsl(90.0,100%,35%)" stroke-width="0.00114"></path>
<path d="M0.451 0.189 Q0.495 0.109 0.349 0.069" stroke="hsl(0.0,100%,35%)" stroke-width="0.00114"></path>
<path d="M0.451 0.189 Q0.389 0.297 0.585 0.351" stroke="hsl(0.0,100%,35%)" stroke-width="0.00114"></path>
<path d="M0.451 0.189 Q0.616 0.140 0.556 0.048" stroke="hsl(0.0,100%,35%)" stroke-width="0.00341"></path>
<path d="M0.451 0.189 Q0.301 0.189 0.269 0.262" stroke="hsl(0.0,100%,35%)" stroke-width="0.00228"></path>
<path d="M0.451 0.189 Q0.368 0.138 0.250 0.167" stroke="hsl(0.0,100%,35%)" stroke-width="0.00114"></path>
<path d="M0.342 0.678 Q0.432 0.656 0.409 0.608" stroke="hsl(90.0,100%,35%)" stroke-width="0.00114"></path>
<path d="M0.342 0.678 Q0.305 0.748 0.433 0.782" stroke="hsl(90.0,100%,35%)" stroke-width="0.00114"></path>
<path d="M0.342 0.678 Q0.858 0.904 1.412 0.702" stroke="hsl(90.0,100%,35%)" stroke-width="0.00114"></path>
<path d="M0.556 0.048 Q0.704 0.669 1.949 0.733" stroke="hsl(0.0,100%,35%)" stroke-width="0.00114"></path>
<path d="M0.556 0.048 Q0.660 0.421 1.410 0.452" stroke="hsl(0.0,100%,35%)" stroke-width="0.00228"></path>
<path d="M0.556 0.048 Q0.459 0.435 1.191 0.567" stroke="hsl(0.0,100%,35%)" stroke-width="0.00228"></path>
<path d="M0.556 0.048 Q0.461 0.546 1.412 0.702" stroke="hsl(0.0,100%,35%)" stroke-width="0.00114"></path>
<path d="M0.556 0.048 Q0.391 0.098 0.451 0.189" stroke="hsl(0.0,100%,35%)" stroke-width="0.00114"></path>
<path d="M0.886 0.861 Q1.475 0.761 1.410 0.452" stroke="hsl(0.0,100%,35%)" stroke-width="0.00114"></path>
<path d="M0.886 0.861 Q0.818 0.780 0.645 0.795" stroke="hsl(0.0,100%,35%)" stroke-width="0.00114"></path>
<path d="M0.886 0.861 Q0.751 0.824 0.650 0.882" stroke="hsl(0.0,100%,35%)" stroke-width="0.00114"></path>
<path d="M0.886 0.861 Q0.735 0.894 0.766 0.975" stroke="hsl(0.0,100%,35%)" stroke-width="0.00114"></path>
<path d="M0.886 0.861 Q0.841 0.740 0.596 0.736" stroke="hsl(0.0,100%,35%)" stroke-width="0.00114"></path>
<path d="M0.886 0.861 Q0.927 0.774 0.767 0.735" stroke="hsl(0.0,100%,35%)" stroke-width="0.00114"></path>
<path d="M0.886 0.861 Q0.792 0.894 0.836 0.947" stroke="hsl(0.0,100%,35%)" stroke-width="0.00114"></path>
<path d="M0.886 0.861 Q0.749 0.859 0.715 0.925" stroke="hsl(0.0,100%,35%)" stroke-width="0.00114"></path>
<path d="M0.886 0.861 Q0.762 0.821 0.656 0.872" stroke="hsl(0.0,100%,35%)" stroke-width="0.00114"></path>
<path d="M0.886 0.861 Q1.681 0.786 1.709 0.383" stroke="hsl(0.0,100%,35%)" stroke-width="0.00114"></path>
<path d="M0.886 0.861 Q0.841 0.947 1.000 0.988" stroke="hsl(0.0,100%,35%)" stroke-width="0.00114"></path>
<path d="M0.886 0.861 Q0.972 0.917 1.099 0.888" stroke="hsl(0.0,100%,35%)" stroke-width="0.00114"></path>
<path d="M1.015 0.742 Q0.996 0.786 1.078 0.805" stroke="hsl(0.0,100%,35%)" stroke-width="0.00114"></path>
<path d="M1.015 0.742 Q1.245 0.802 1.412 0.702" stroke="hsl(0.0,100%,35%)" stroke-width="0.00114"></path>
<path d="M1.015 0.742 Q1.649 0.701 1.709 0.383" stroke="hsl(0.0,100%,35%)" stroke-width="0.00114"></path>
<path d="M1.673 0.056 Q1.682 0.149 1.866 0.165" stroke="hsl(180.0,100%,35%)" stroke-width="0.00228"></path>
<path d="M1.673 0.056 Q1.448 0.085 1.454 0.201" stroke="hsl(180.0,100%,35%)" stroke-width="0.00228"></path>
<path d="M1.673 0.056 Q1.224 0.202 1.410 0.452" stroke="hsl(180.0,100%,35%)" stroke-width="0.00114"></path>
<path d="M0.833 0.664 Q0.842 0.784 1.078 0.805" stroke="hsl(0.0,100%,35%)" stroke-width="0.00114"></path>
<path d="M0.833 0.664 Q0.960 0.458 0.585 0.351" stroke="hsl(0.0,100%,35%)" stroke-width="0.00114"></path>
<path d="M0.833 0.664 Q1.090 0.687 1.191 0.567" stroke="hsl(0.0,100%,35%)" stroke-width="0.00114"></path>
<path d="M1.416 0.890 Q1.442 0.848 1.365 0.826" stroke="hsl(270.0,100%,35%)" stroke-width="0.00114"></path>
<path d="M1.416 0.890 Q1.345 0.905 1.358 0.943" stroke="hsl(270.0,100%,35%)" stroke-width="0.00114"></path>
<path d="M1.416 0.890 Q1.764 0.670 1.410 0.452" stroke="hsl(270.0,100%,35%)" stroke-width="0.00114"></path>
<path d="M1.633 0.960 Q1.729 0.787 1.412 0.702" stroke="hsl(0.0,100%,35%)" stroke-width="0.00341"></path>
<path d="M1.633 0.960 Q1.746 0.980 1.808 0.929" stroke="hsl(0.0,100%,35%)" stroke-width="0.00228"></path>
<path d="M1.633 0.960 Q1.650 0.919 1.574 0.902" stroke="hsl(0.0,100%,35%)" stroke-width="0.00228"></path>
<path d="M1.859 0.894 Q1.901 0.881 1.884 0.857" stroke="hsl(90.0,100%,35%)" stroke-width="0.00114"></path>
<path d="M1.859 0.894 Q1.988 0.583 1.410 0.452" stroke="hsl(90.0,100%,35%)" stroke-width="0.00114"></path>
<path d="M1.254 0.386 Q1.279 0.450 1.410 0.452" stroke="hsl(90.0,100%,35%)" stroke-width="0.00569"></path>
<path d="M1.254 0.386 Q1.080 0.576 1.412 0.702" stroke="hsl(90.0,100%,35%)" stroke-width="0.00683"></path>
<path d="M1.254 0.386 Q1.228 0.304 1.064 0.299" stroke="hsl(90.0,100%,35%)" stroke-width="0.00228"></path>
<path d="M1.254 0.386 Q0.824 0.543 1.038 0.788" stroke="hsl(90.0,100%,35%)" stroke-width="0.00228"></path>
<path d="M1.254 0.386 Q1.145 0.319 0.990 0.357" stroke="hsl(90.0,100%,35%)" stroke-width="0.00114"></path>
<path d="M1.963 0.494 Q1.302 0.040 0.269 0.262" stroke="hsl(0.0,100%,35%)" stroke-width="0.00114"></path>
<path d="M1.963 0.494 Q1.663 0.566 1.737 0.728" stroke="hsl(0.0,100%,35%)" stroke-width="0.00228"></path>
<path d="M1.963 0.494 Q1.837 0.550 1.918 0.623" stroke="hsl(0.0,100%,35%)" stroke-width="0.00114"></path>
<path d="M1.963 0.494 Q2.178 0.310 1.866 0.165" stroke="hsl(0.0,100%,35%)" stroke-width="0.00114"></path>
<path d="M1.963 0.494 Q1.877 0.446 1.765 0.478" stroke="hsl(0.0,100%,35%)" stroke-width="0.00114"></path>
<path d="M1.963 0.494 Q1.878 0.535 1.939 0.585" stroke="hsl(0.0,100%,35%)" stroke-width="0.00114"></path>
<path d="M1.963 0.494 Q1.720 0.363 1.410 0.452" stroke="hsl(0.0,100%,35%)" stroke-width="0.00114"></path>
<path d="M1.963 0.494 Q1.368 -0.012 0.250 0.167" stroke="hsl(0.0,100%,35%)" stroke-width="0.00114"></path>
<path d="M1.963 0.494 Q2.013 0.445 1.928 0.410" stroke="hsl(0.0,100%,35%)" stroke-width="0.00114"></path>
<path d="M1.963 0.494 Q1.904 0.536 1.972 0.573" stroke="hsl(0.0,100%,35%)" stroke-width="0.00114"></path>
<path d="M1.963 0.494 Q1.925 0.388 1.709 0.383" stroke="hsl(0.0,100%,35%)" stroke-width="0.00228"></path>
<path d="M1.963 0.494 Q1.826 0.534 1.874 0.610" stroke="hsl(0.0,100%,35%)" stroke-width="0.00341"></path>
<path d="M1.963 0.494 Q1.765 0.611 1.949 0.733" stroke="hsl(0.0,100%,35%)" stroke-width="0.00114"></path>
<path d="M1.963 0.494 Q2.001 0.435 1.895 0.404" stroke="hsl(0.0,100%,35%)" stroke-width="0.00114"></path>
<path d="M1.737 0.728 Q1.721 0.606 1.478 0.587" stroke="hsl(0.0,100%,35%)" stroke-width="0.00114"></path>
<path d="M1.737 0.728 Q1.442 0.150 0.250 0.167" stroke="hsl(0.0,100%,35%)" stroke-width="0.00114"></path>
<path d="M1.737 0.728 Q1.901 0.696 1.874 0.610" stroke="hsl(0.0,100%,35%)" stroke-width="0.00228"></path>
<path d="M1.737 0.728 Q1.628 0.432 1.026 0.421" stroke="hsl(0.0,100%,35%)" stroke-width="0.00114"></path>
<path d="M1.737 0.728 Q1.795 0.525 1.410 0.452" stroke="hsl(0.0,100%,35%)" stroke-width="0.00114"></path>
<path d="M1.737 0.728 Q1.721 0.446 1.167 0.392" stroke="hsl(0.0,100%,35%)" stroke-width="0.00114"></path>
<path d="M1.737 0.728 Q1.580 0.696 1.481 0.765" stroke="hsl(0.0,100%,35%)" stroke-width="0.00114"></path>
<path d="M1.737 0.728 Q1.463 0.309 0.585 0.351" stroke="hsl(0.0,100%,35%)" stroke-width="0.00228"></path>
<path d="M1.737 0.728 Q1.747 0.594 1.487 0.560" stroke="hsl(0.0,100%,35%)" stroke-width="0.00114"></path>
<path d="M1.737 0.728 Q1.874 0.661 1.773 0.580" stroke="hsl(0.0,100%,35%)" stroke-width="0.00114"></path>
<path d="M1.737 0.728 Q1.609 0.724 1.572 0.785" stroke="hsl(0.0,100%,35%)" stroke-width="0.00114"></path>
<path d="M1.737 0.728 Q1.645 0.760 1.686 0.812" stroke="hsl(0.0,100%,35%)" stroke-width="0.00114"></path>
<path d="M1.737 0.728 Q1.798 0.645 1.648 0.597" stroke="hsl(0.0,100%,35%)" stroke-width="0.00114"></path>
<path d="M1.737 0.728 Q1.517 0.782 1.574 0.902" stroke="hsl(0.0,100%,35%)" stroke-width="0.00114"></path>
<path d="M1.737 0.728 Q1.591 0.739 1.579 0.813" stroke="hsl(0.0,100%,35%)" stroke-width="0.00114"></path>
<path d="M1.737 0.728 Q1.863 0.664 1.764 0.589" stroke="hsl(0.0,100%,35%)" stroke-width="0.00114"></path>
<path d="M1.237 0.600 Q1.243 0.686 1.412 0.702" stroke="hsl(90.0,100%,35%)" stroke-width="0.00455"></path>
<path d="M1.237 0.600 Q0.992 0.673 1.079 0.808" stroke="hsl(90.0,100%,35%)" stroke-width="0.00114"></path>
<path d="M1.237 0.600 Q1.241 0.574 1.191 0.567" stroke="hsl(90.0,100%,35%)" stroke-width="0.00455"></path>
<path d="M1.237 0.600 Q1.342 0.605 1.374 0.554" stroke="hsl(90.0,100%,35%)" stroke-width="0.00114"></path>
<path d="M1.237 0.600 Q1.900 0.508 1.866 0.165" stroke="hsl(90.0,100%,35%)" stroke-width="0.00114"></path>
<path d="M1.237 0.600 Q1.369 0.642 1.478 0.587" stroke="hsl(90.0,100%,35%)" stroke-width="0.00114"></path>
<path d="M1.237 0.600 Q1.442 0.561 1.410 0.452" stroke="hsl(90.0,100%,35%)" stroke-width="0.00228"></path>
<path d="M1.237 0.600 Q1.665 0.444 1.454 0.201" stroke="hsl(90.0,100%,35%)" stroke-width="0.00114"></path>
<path d="M1.237 0.600 Q1.509 0.473 1.320 0.313" stroke="hsl(90.0,100%,35%)" stroke-width="0.00114"></path>
<path d="M0.441 0.889 Q0.827 0.974 1.078 0.805" stroke="hsl(90.0,100%,35%)" stroke-width="0.00114"></path>
<path d="M0.441 0.889 Q1.257 0.939 1.533 0.551" stroke="hsl(90.0,100%,35%)" stroke-width="0.00114"></path>
<path d="M0.441 0.889 Q0.409 0.928 0.478 0.952" stroke="hsl(90.0,100%,35%)" stroke-width="0.00114"></path>
<path d="M1.658 0.080 Q1.035 0.230 1.191 0.567" stroke="hsl(180.0,100%,35%)" stroke-width="0.00228"></path>
<path d="M1.658 0.080 Q1.694 0.164 1.866 0.165" stroke="hsl(180.0,100%,35%)" stroke-width="0.00341"></path>
<path d="M1.658 0.080 Q1.459 0.100 1.454 0.201" stroke="hsl(180.0,100%,35%)" stroke-width="0.00114"></path>
<path d="M1.658 0.080 Q1.236 0.216 1.410 0.452" stroke="hsl(180.0,100%,35%)" stroke-width="0.00114"></path>
</g>
<text x="1.891" y="0.779" font-size="0.007998" fill="hsl(0.0,100%,20%)">abarth</text>
<text x="1.808" y="0.925" font-size="0.007998" fill="hsl(0.0,100%,20%)">ddorwin</text>
<text x="0.250" y="0.161" font-size="0.012217" fill="hsl(0.0,100%,20%)">wez</text>
<text x="1.949" y="0.729" font-size="0.007998" fill="hsl(0.0,100%,20%)">tsepez</text>
<text x="0.074" y="0.666" font-size="0.013060" fill="hsl(0.0,100%,20%)">andre.kempe</text>
<text x="0.160" y="0.613" font-size="0.004618" fill="hsl(0.0,100%,20%)">mfoltz</text>
<text x="0.941" y="0.766" font-size="0.010325" fill="hsl(0.0,100%,20%)">agrieve</text>
<text x="1.709" y="0.376" font-size="0.012217" fill="hsl(0.0,100%,20%)">thakis</text>
<text x="1.410" y="0.418" font-size="0.068178" fill="hsl(90.0,100%,20%)">haraken</text>
<text x="1.454" y="0.177" font-size="0.047987" fill="hsl(180.0,100%,20%)">mlippautz</text>
<text x="1.191" y="0.520" font-size="0.092812" fill="hsl(90.0,100%,20%)">bartekn</text>
<text x="0.269" y="0.255" font-size="0.013853" fill="hsl(0.0,100%,20%)">avi</text>
<text x="0.585" y="0.344" font-size="0.013853" fill="hsl(0.0,100%,20%)">danakj</text>
<text x="1.078" y="0.794" font-size="0.022621" fill="hsl(90.0,100%,20%)">dcheng</text>
<text x="0.128" y="0.812" font-size="0.017277" fill="hsl(90.0,100%,20%)">richard.townsend</text>
<text x="1.412" y="0.661" font-size="0.082472" fill="hsl(90.0,100%,20%)">lizeb</text>
<text x="1.320" y="0.293" font-size="0.039453" fill="hsl(90.0,100%,20%)">tasak</text>
<text x="1.489" y="0.772" font-size="0.004618" fill="hsl(90.0,100%,20%)">ajuma</text>
<text x="1.167" y="0.620" font-size="0.046406" fill="hsl(90.0,100%,20%)">yukishiino</text>
<text x="1.866" y="0.131" font-size="0.067864" fill="hsl(180.0,100%,20%)">bikineev</text>
<text x="1.038" y="0.781" font-size="0.013853" fill="hsl(90.0,100%,20%)">ssid</text>
<text x="1.478" y="0.581" font-size="0.012217" fill="hsl(90.0,100%,20%)">mpdenton</text>
<text x="1.374" y="0.567" font-size="0.016649" fill="hsl(90.0,100%,20%)">glazunov</text>
<text x="1.167" y="0.388" font-size="0.009235" fill="hsl(0.0,100%,20%)">lukasza</text>
<text x="1.083" y="0.726" font-size="0.029925" fill="hsl(90.0,100%,20%)">keishi</text>
<text x="1.026" y="0.416" font-size="0.009235" fill="hsl(0.0,100%,20%)">gab</text>
<text x="0.825" y="0.379" font-size="0.006530" fill="hsl(90.0,100%,20%)">bgeffon</text>
<text x="0.451" y="0.182" font-size="0.014602" fill="hsl(0.0,100%,20%)">brucedawson</text>
<text x="0.342" y="0.673" font-size="0.010325" fill="hsl(90.0,100%,20%)">ellyjones</text>
<text x="1.464" y="0.452" font-size="0.004618" fill="hsl(90.0,100%,20%)">gbeaty</text>
<text x="1.673" y="0.221" font-size="0.011311" fill="hsl(180.0,100%,20%)">wfh</text>
<text x="1.374" y="0.550" font-size="0.007998" fill="hsl(90.0,100%,20%)">erikchen</text>
<text x="1.002" y="0.322" font-size="0.006530" fill="hsl(90.0,100%,20%)">agl</text>
<text x="1.108" y="0.381" font-size="0.004618" fill="hsl(90.0,100%,20%)">yukiy</text>
<text x="1.481" y="0.762" font-size="0.006530" fill="hsl(0.0,100%,20%)">kinuko</text>
<text x="1.007" y="0.485" font-size="0.006530" fill="hsl(90.0,100%,20%)">tikuta</text>
<text x="1.533" y="0.547" font-size="0.007998" fill="hsl(90.0,100%,20%)">mark</text>
<text x="1.222" y="0.400" font-size="0.007998" fill="hsl(90.0,100%,20%)">sebmarchand</text>
<text x="1.400" y="0.554" font-size="0.006530" fill="hsl(90.0,100%,20%)">sweilun</text>
<text x="1.232" y="0.439" font-size="0.007998" fill="hsl(90.0,100%,20%)">isherman</text>
<text x="1.043" y="0.445" font-size="0.004618" fill="hsl(90.0,100%,20%)">jbroman</text>
<text x="0.994" y="0.439" font-size="0.004618" fill="hsl(90.0,100%,20%)">robertshield</text>
<text x="1.003" y="0.433" font-size="0.004618" fill="hsl(90.0,100%,20%)">grt</text>
<text x="1.553" y="0.454" font-size="0.004618" fill="hsl(90.0,100%,20%)">asvitkine</text>
<text x="1.243" y="0.393" font-size="0.004618" fill="hsl(90.0,100%,20%)">ydago</text>
<text x="0.556" y="0.039" font-size="0.017884" fill="hsl(0.0,100%,20%)">palmer</text>
<text x="1.367" y="0.460" font-size="0.006530" fill="hsl(90.0,100%,20%)">yutak</text>
<text x="0.941" y="0.327" font-size="0.004618" fill="hsl(90.0,100%,20%)">primiano</text>
<text x="1.676" y="0.253" font-size="0.004618" fill="hsl(180.0,100%,20%)">oysteine</text>
<text x="1.707" y="0.046" font-size="0.004618" fill="hsl(180.0,100%,20%)">altimin</text>
<text x="1.770" y="0.317" font-size="0.006530" fill="hsl(180.0,100%,20%)">creis</text>
<text x="1.487" y="0.555" font-size="0.009235" fill="hsl(0.0,100%,20%)">fdoray</text>
<text x="1.714" y="-0.014" font-size="0.004618" fill="hsl(180.0,100%,20%)">holte</text>
<text x="1.580" y="0.240" font-size="0.006530" fill="hsl(180.0,100%,20%)">ulan</text>
<text x="0.349" y="0.067" font-size="0.004618" fill="hsl(0.0,100%,20%)">cassew</text>
<text x="0.886" y="0.853" font-size="0.015996" fill="hsl(0.0,100%,20%)">dsanders11</text>
<text x="0.645" y="0.793" font-size="0.004618" fill="hsl(0.0,100%,20%)">acourbot</text>
<text x="0.650" y="0.880" font-size="0.004618" fill="hsl(0.0,100%,20%)">tguilbert</text>
<text x="0.766" y="0.973" font-size="0.004618" fill="hsl(0.0,100%,20%)">tbansal</text>
<text x="0.596" y="0.734" font-size="0.004618" fill="hsl(0.0,100%,20%)">michaeldo</text>
<text x="0.767" y="0.733" font-size="0.004618" fill="hsl(0.0,100%,20%)">austinct</text>
<text x="0.836" y="0.945" font-size="0.004618" fill="hsl(0.0,100%,20%)">olivierrobin</text>
<text x="0.715" y="0.922" font-size="0.006530" fill="hsl(0.0,100%,20%)">eseckler</text>
<text x="0.656" y="0.870" font-size="0.004618" fill="hsl(0.0,100%,20%)">mmoskvitin</text>
<text x="1.000" y="0.986" font-size="0.004618" fill="hsl(0.0,100%,20%)">jamiewalch</text>
<text x="1.099" y="0.885" font-size="0.004618" fill="hsl(0.0,100%,20%)">aleventhal</text>
<text x="0.409" y="0.605" font-size="0.004618" fill="hsl(90.0,100%,20%)">elainechien</text>
<text x="0.433" y="0.780" font-size="0.004618" fill="hsl(90.0,100%,20%)">tkent</text>
<text x="1.015" y="0.738" font-size="0.007998" fill="hsl(0.0,100%,20%)">gabor.kertesz</text>
<text x="1.673" y="0.050" font-size="0.012217" fill="hsl(180.0,100%,20%)">hpayer</text>
<text x="0.833" y="0.660" font-size="0.007998" fill="hsl(0.0,100%,20%)">jannh</text>
<text x="1.416" y="0.886" font-size="0.007998" fill="hsl(270.0,100%,20%)">kbr</text>
<text x="1.365" y="0.823" font-size="0.004618" fill="hsl(270.0,100%,20%)">martiniss</text>
<text x="1.358" y="0.941" font-size="0.004618" fill="hsl(270.0,100%,20%)">ccameron</text>
<text x="1.633" y="0.954" font-size="0.012217" fill="hsl(0.0,100%,20%)">kmarshall</text>
<text x="1.574" y="0.898" font-size="0.007998" fill="hsl(0.0,100%,20%)">kylechar</text>
<text x="1.859" y="0.891" font-size="0.006530" fill="hsl(90.0,100%,20%)">kolos</text>
<text x="1.884" y="0.855" font-size="0.004618" fill="hsl(90.0,100%,20%)">lgrey</text>
<text x="1.254" y="0.376" font-size="0.020128" fill="hsl(90.0,100%,20%)">thiabaud</text>
<text x="1.244" y="0.557" font-size="0.009235" fill="hsl(90.0,100%,20%)">pasko</text>
<text x="1.099" y="0.801" font-size="0.004618" fill="hsl(90.0,100%,20%)">msramek</text>
<text x="0.986" y="0.558" font-size="0.006530" fill="hsl(90.0,100%,20%)">alexilin</text>
<text x="1.216" y="0.744" font-size="0.004618" fill="hsl(90.0,100%,20%)">mamir</text>
<text x="1.229" y="0.443" font-size="0.004618" fill="hsl(90.0,100%,20%)">amraboelkher</text>
<text x="1.249" y="0.550" font-size="0.004618" fill="hsl(90.0,100%,20%)">skyostil</text>
<text x="1.642" y="0.552" font-size="0.006530" fill="hsl(90.0,100%,20%)">arthursonzogni</text>
<text x="1.963" y="0.484" font-size="0.020128" fill="hsl(0.0,100%,20%)">thestig</text>
<text x="1.381" y="0.547" font-size="0.004618" fill="hsl(90.0,100%,20%)">asully</text>
<text x="1.004" y="0.583" font-size="0.004618" fill="hsl(90.0,100%,20%)">etiennep</text>
<text x="1.765" y="0.474" font-size="0.006530" fill="hsl(0.0,100%,20%)">rsesek</text>
<text x="1.166" y="0.767" font-size="0.004618" fill="hsl(90.0,100%,20%)">caitlinfischer</text>
<text x="1.097" y="0.762" font-size="0.004618" fill="hsl(90.0,100%,20%)">sinansahin</text>
<text x="1.066" y="1.152" font-size="0.004618" fill="hsl(90.0,100%,20%)">hendrich</text>
<text x="1.737" y="0.718" font-size="0.020650" fill="hsl(0.0,100%,20%)">pkasting</text>
<text x="1.874" y="0.604" font-size="0.010325" fill="hsl(0.0,100%,20%)">pbos</text>
<text x="1.773" y="0.578" font-size="0.004618" fill="hsl(0.0,100%,20%)">renjietang</text>
<text x="1.572" y="0.783" font-size="0.004618" fill="hsl(0.0,100%,20%)">sandersd</text>
<text x="1.686" y="0.810" font-size="0.004618" fill="hsl(0.0,100%,20%)">droger</text>
<text x="1.648" y="0.595" font-size="0.004618" fill="hsl(0.0,100%,20%)">sadrul</text>
<text x="1.579" y="0.811" font-size="0.004618" fill="hsl(0.0,100%,20%)">bajones</text>
<text x="1.764" y="0.586" font-size="0.004618" fill="hsl(0.0,100%,20%)">abigailbklein</text>
<text x="0.322" y="0.847" font-size="0.007998" fill="hsl(90.0,100%,20%)">ajwong</text>
<text x="1.237" y="0.591" font-size="0.018470" fill="hsl(90.0,100%,20%)">saelo</text>
<text x="1.079" y="0.806" font-size="0.004618" fill="hsl(90.0,100%,20%)">cbruni</text>
<text x="0.441" y="0.885" font-size="0.007998" fill="hsl(90.0,100%,20%)">ssyed</text>
<text x="0.478" y="0.950" font-size="0.004618" fill="hsl(90.0,100%,20%)">abhijeet</text>
<text x="1.658" y="0.074" font-size="0.012217" fill="hsl(180.0,100%,20%)">stha09</text>
<text x="1.918" y="0.620" font-size="0.006530" fill="hsl(0.0,100%,20%)">dpranke</text>
<text x="1.939" y="0.583" font-size="0.004618" fill="hsl(0.0,100%,20%)">sunnyps</text>
<text x="1.928" y="0.408" font-size="0.004618" fill="hsl(0.0,100%,20%)">sammc</text>
<text x="1.972" y="0.571" font-size="0.004618" fill="hsl(0.0,100%,20%)">sdefresne</text>
<text x="1.895" y="0.402" font-size="0.004618" fill="hsl(0.0,100%,20%)">ajgo</text>
<text x="1.064" y="0.296" font-size="0.006530" fill="hsl(90.0,100%,20%)">rkaplow</text>
<text x="0.990" y="0.355" font-size="0.004618" fill="hsl(90.0,100%,20%)">chanli</text>
</svg>
