<svg width="4000" height="2000" viewBox="-0.025 -0.025 2.05 1.05" xmlns="http://www.w3.org/2000/svg">
  <style>
    path {
      fill: none;
      stroke-linecap: round;
      stroke-opacity: 0.4;
    }

    text {
      text-anchor: middle;
      alignment-baseline: hanging;
    }
  </style>
  <g opacity="0.4">
<path d="M0.559 0.410 Q0.620 0.471 0.751 0.455" stroke="hsl(0.0,100%,35%)" stroke-width="0.00119"></path>
<path d="M0.559 0.410 Q0.284 0.589 0.573 0.762" stroke="hsl(0.0,100%,35%)" stroke-width="0.00356"></path>
<path d="M0.559 0.410 Q0.641 0.483 0.801 0.460" stroke="hsl(0.0,100%,35%)" stroke-width="0.00119"></path>
<path d="M0.573 0.762 Q0.674 0.715 0.604 0.655" stroke="hsl(0.0,100%,35%)" stroke-width="0.03446"></path>
<path d="M0.573 0.762 Q0.407 0.774 0.393 0.857" stroke="hsl(0.0,100%,35%)" stroke-width="0.00356"></path>
<path d="M0.573 0.762 Q0.567 0.831 0.700 0.848" stroke="hsl(0.0,100%,35%)" stroke-width="0.02020"></path>
<path d="M0.573 0.762 Q0.745 0.778 0.814 0.697" stroke="hsl(0.0,100%,35%)" stroke-width="0.00594"></path>
<path d="M0.573 0.762 Q1.413 0.899 1.865 0.520" stroke="hsl(0.0,100%,35%)" stroke-width="0.00119"></path>
<path d="M0.573 0.762 Q0.744 0.754 0.765 0.668" stroke="hsl(0.0,100%,35%)" stroke-width="0.00238"></path>
<path d="M0.573 0.762 Q0.558 0.579 0.196 0.546" stroke="hsl(0.0,100%,35%)" stroke-width="0.00475"></path>
<path d="M0.573 0.762 Q0.762 0.982 1.232 0.938" stroke="hsl(0.0,100%,35%)" stroke-width="0.02020"></path>
<path d="M0.573 0.762 Q0.744 0.874 0.999 0.814" stroke="hsl(0.0,100%,35%)" stroke-width="0.00356"></path>
<path d="M0.573 0.762 Q0.419 0.787 0.433 0.867" stroke="hsl(0.0,100%,35%)" stroke-width="0.00356"></path>
<path d="M0.573 0.762 Q0.582 0.821 0.699 0.830" stroke="hsl(0.0,100%,35%)" stroke-width="0.00119"></path>
<path d="M0.573 0.762 Q0.927 0.742 0.965 0.564" stroke="hsl(0.0,100%,35%)" stroke-width="0.01188"></path>
<path d="M0.573 0.762 Q0.538 0.866 0.732 0.905" stroke="hsl(0.0,100%,35%)" stroke-width="0.00356"></path>
<path d="M0.573 0.762 Q0.484 0.648 0.241 0.666" stroke="hsl(0.0,100%,35%)" stroke-width="0.00238"></path>
<path d="M0.573 0.762 Q0.328 0.683 0.119 0.785" stroke="hsl(0.0,100%,35%)" stroke-width="0.00238"></path>
<path d="M0.573 0.762 Q0.336 0.737 0.234 0.847" stroke="hsl(0.0,100%,35%)" stroke-width="0.00238"></path>
<path d="M0.573 0.762 Q0.632 0.897 0.907 0.897" stroke="hsl(0.0,100%,35%)" stroke-width="0.00356"></path>
<path d="M0.573 0.762 Q1.077 0.875 1.407 0.654" stroke="hsl(0.0,100%,35%)" stroke-width="0.00119"></path>
<path d="M0.573 0.762 Q0.929 0.657 0.801 0.460" stroke="hsl(0.0,100%,35%)" stroke-width="0.00594"></path>
<path d="M0.573 0.762 Q0.848 0.584 0.559 0.410" stroke="hsl(0.0,100%,35%)" stroke-width="0.00119"></path>
<path d="M0.573 0.762 Q0.519 0.731 0.445 0.750" stroke="hsl(0.0,100%,35%)" stroke-width="0.00119"></path>
<path d="M0.573 0.762 Q0.463 0.629 0.180 0.654" stroke="hsl(0.0,100%,35%)" stroke-width="0.00119"></path>
<path d="M0.801 0.460 Q0.634 0.785 1.232 0.938" stroke="hsl(0.0,100%,35%)" stroke-width="0.01188"></path>
<path d="M0.801 0.460 Q0.813 0.450 0.796 0.442" stroke="hsl(0.0,100%,35%)" stroke-width="0.00119"></path>
<path d="M0.801 0.460 Q0.677 0.602 0.928 0.694" stroke="hsl(0.0,100%,35%)" stroke-width="0.00238"></path>
<path d="M0.801 0.460 Q0.546 0.518 0.604 0.655" stroke="hsl(0.0,100%,35%)" stroke-width="0.01188"></path>
<path d="M0.801 0.460 Q0.799 0.545 0.965 0.564" stroke="hsl(0.0,100%,35%)" stroke-width="0.02614"></path>
<path d="M0.801 0.460 Q0.617 0.581 0.814 0.697" stroke="hsl(0.0,100%,35%)" stroke-width="0.00951"></path>
<path d="M0.801 0.460 Q1.242 0.284 0.996 0.031" stroke="hsl(0.0,100%,35%)" stroke-width="0.00119"></path>
<path d="M0.801 0.460 Q0.430 0.382 0.196 0.546" stroke="hsl(0.0,100%,35%)" stroke-width="0.00119"></path>
<path d="M0.801 0.460 Q0.983 0.468 1.039 0.381" stroke="hsl(0.0,100%,35%)" stroke-width="0.00119"></path>
<path d="M0.801 0.460 Q1.012 0.413 0.968 0.301" stroke="hsl(0.0,100%,35%)" stroke-width="0.00119"></path>
<path d="M0.801 0.460 Q1.053 0.523 1.232 0.415" stroke="hsl(0.0,100%,35%)" stroke-width="0.00119"></path>
<path d="M0.801 0.460 Q1.118 0.444 1.158 0.286" stroke="hsl(0.0,100%,35%)" stroke-width="0.00119"></path>
<path d="M0.801 0.460 Q0.445 0.565 0.573 0.762" stroke="hsl(0.0,100%,35%)" stroke-width="0.02257"></path>
<path d="M0.801 0.460 Q1.076 0.437 1.093 0.298" stroke="hsl(0.0,100%,35%)" stroke-width="0.00119"></path>
<path d="M0.801 0.460 Q0.737 0.473 0.749 0.506" stroke="hsl(0.0,100%,35%)" stroke-width="0.00119"></path>
<path d="M0.234 0.847 Q0.471 0.872 0.573 0.762" stroke="hsl(0.0,100%,35%)" stroke-width="0.01307"></path>
<path d="M0.234 0.847 Q0.643 0.984 0.999 0.814" stroke="hsl(0.0,100%,35%)" stroke-width="0.00238"></path>
<path d="M0.234 0.847 Q0.226 0.793 0.119 0.785" stroke="hsl(0.0,100%,35%)" stroke-width="0.00356"></path>
<path d="M0.234 0.847 Q0.660 1.092 1.232 0.938" stroke="hsl(0.0,100%,35%)" stroke-width="0.00238"></path>
<path d="M0.234 0.847 Q0.644 0.888 0.814 0.697" stroke="hsl(0.0,100%,35%)" stroke-width="0.00356"></path>
<path d="M0.999 0.814 Q0.827 0.703 0.573 0.762" stroke="hsl(0.0,100%,35%)" stroke-width="0.01188"></path>
<path d="M0.999 0.814 Q1.416 0.685 1.255 0.453" stroke="hsl(0.0,100%,35%)" stroke-width="0.00119"></path>
<path d="M0.999 0.814 Q0.590 0.678 0.234 0.847" stroke="hsl(0.0,100%,35%)" stroke-width="0.00119"></path>
<path d="M0.999 0.814 Q1.000 0.719 0.814 0.697" stroke="hsl(0.0,100%,35%)" stroke-width="0.00238"></path>
<path d="M0.999 0.814 Q0.674 0.728 0.433 0.867" stroke="hsl(0.0,100%,35%)" stroke-width="0.00119"></path>
<path d="M0.999 0.814 Q1.019 0.836 1.066 0.831" stroke="hsl(0.0,100%,35%)" stroke-width="0.00119"></path>
<path d="M0.999 0.814 Q0.956 0.815 0.948 0.836" stroke="hsl(0.0,100%,35%)" stroke-width="0.00119"></path>
<path d="M0.999 0.814 Q1.082 0.862 1.193 0.832" stroke="hsl(0.0,100%,35%)" stroke-width="0.00119"></path>
<path d="M0.999 0.814 Q0.929 0.655 0.604 0.655" stroke="hsl(0.0,100%,35%)" stroke-width="0.00119"></path>
<path d="M0.999 0.814 Q1.226 0.816 1.278 0.705" stroke="hsl(0.0,100%,35%)" stroke-width="0.00356"></path>
<path d="M0.999 0.814 Q1.017 0.923 1.232 0.938" stroke="hsl(0.0,100%,35%)" stroke-width="0.00356"></path>
<path d="M0.999 0.814 Q1.060 0.740 0.928 0.694" stroke="hsl(0.0,100%,35%)" stroke-width="0.00119"></path>
<path d="M0.999 0.814 Q0.813 0.519 0.196 0.546" stroke="hsl(0.0,100%,35%)" stroke-width="0.00119"></path>
<path d="M0.119 0.785 Q0.465 0.817 0.604 0.655" stroke="hsl(0.0,100%,35%)" stroke-width="0.00119"></path>
<path d="M0.119 0.785 Q0.535 0.976 0.999 0.814" stroke="hsl(0.0,100%,35%)" stroke-width="0.00238"></path>
<path d="M0.119 0.785 Q0.364 0.864 0.573 0.762" stroke="hsl(0.0,100%,35%)" stroke-width="0.00713"></path>
<path d="M0.119 0.785 Q0.596 0.901 0.928 0.694" stroke="hsl(0.0,100%,35%)" stroke-width="0.00119"></path>
<path d="M0.119 0.785 Q0.553 1.084 1.232 0.938" stroke="hsl(0.0,100%,35%)" stroke-width="0.00119"></path>
<path d="M1.232 0.938 Q1.043 0.718 0.573 0.762" stroke="hsl(0.0,100%,35%)" stroke-width="0.01901"></path>
<path d="M1.232 0.938 Q1.215 0.830 0.999 0.814" stroke="hsl(0.0,100%,35%)" stroke-width="0.00119"></path>
<path d="M1.232 0.938 Q1.399 0.613 0.801 0.460" stroke="hsl(0.0,100%,35%)" stroke-width="0.00594"></path>
<path d="M1.232 0.938 Q1.141 0.903 1.052 0.939" stroke="hsl(0.0,100%,35%)" stroke-width="0.00238"></path>
<path d="M1.232 0.938 Q0.798 0.639 0.119 0.785" stroke="hsl(0.0,100%,35%)" stroke-width="0.00119"></path>
<path d="M1.232 0.938 Q1.216 0.734 0.814 0.697" stroke="hsl(0.0,100%,35%)" stroke-width="0.00951"></path>
<path d="M1.232 0.938 Q1.371 0.928 1.381 0.857" stroke="hsl(0.0,100%,35%)" stroke-width="0.00951"></path>
<path d="M1.232 0.938 Q1.389 0.995 1.535 0.931" stroke="hsl(0.0,100%,35%)" stroke-width="0.00238"></path>
<path d="M1.238 0.096 Q0.358 0.112 0.196 0.546" stroke="hsl(180.0,100%,35%)" stroke-width="0.00119"></path>
<path d="M1.238 0.096 Q0.219 0.321 0.433 0.867" stroke="hsl(180.0,100%,35%)" stroke-width="0.00238"></path>
<path d="M1.238 0.096 Q0.562 0.516 1.232 0.938" stroke="hsl(180.0,100%,35%)" stroke-width="0.00119"></path>
<path d="M1.238 0.096 Q1.033 0.080 0.956 0.177" stroke="hsl(180.0,100%,35%)" stroke-width="0.00119"></path>
<path d="M1.238 0.096 Q0.719 0.573 1.535 0.931" stroke="hsl(180.0,100%,35%)" stroke-width="0.00119"></path>
<path d="M1.238 0.096 Q1.165 0.173 1.298 0.225" stroke="hsl(180.0,100%,35%)" stroke-width="0.00119"></path>
<path d="M1.238 0.096 Q1.153 0.047 1.038 0.078" stroke="hsl(180.0,100%,35%)" stroke-width="0.00119"></path>
<path d="M1.238 0.096 Q1.134 0.127 1.172 0.185" stroke="hsl(180.0,100%,35%)" stroke-width="0.00119"></path>
<path d="M1.238 0.096 Q1.359 0.121 1.434 0.068" stroke="hsl(180.0,100%,35%)" stroke-width="0.00119"></path>
<path d="M1.238 0.096 Q1.170 0.015 0.996 0.031" stroke="hsl(180.0,100%,35%)" stroke-width="0.00119"></path>
<path d="M1.238 0.096 Q0.727 -0.044 0.343 0.175" stroke="hsl(180.0,100%,35%)" stroke-width="0.00119"></path>
<path d="M0.343 0.175 Q-0.012 0.515 0.573 0.762" stroke="hsl(180.0,100%,35%)" stroke-width="0.00119"></path>
<path d="M0.343 0.175 Q-0.027 0.331 0.196 0.546" stroke="hsl(180.0,100%,35%)" stroke-width="0.00119"></path>
<path d="M0.343 0.175 Q0.167 0.146 0.072 0.225" stroke="hsl(180.0,100%,35%)" stroke-width="0.00119"></path>
<path d="M0.343 0.175 Q0.544 0.227 0.689 0.140" stroke="hsl(180.0,100%,35%)" stroke-width="0.00119"></path>
<path d="M0.604 0.655 Q0.674 0.813 0.999 0.814" stroke="hsl(0.0,100%,35%)" stroke-width="0.02020"></path>
<path d="M0.604 0.655 Q0.857 0.682 0.965 0.564" stroke="hsl(0.0,100%,35%)" stroke-width="0.05347"></path>
<path d="M0.604 0.655 Q0.609 0.796 0.887 0.825" stroke="hsl(0.0,100%,35%)" stroke-width="0.00119"></path>
<path d="M0.604 0.655 Q0.600 0.886 1.052 0.939" stroke="hsl(0.0,100%,35%)" stroke-width="0.00238"></path>
<path d="M0.604 0.655 Q0.857 0.363 0.343 0.175" stroke="hsl(0.0,100%,35%)" stroke-width="0.00356"></path>
<path d="M0.604 0.655 Q0.502 0.702 0.573 0.762" stroke="hsl(0.0,100%,35%)" stroke-width="0.10337"></path>
<path d="M0.604 0.655 Q0.837 0.584 0.751 0.455" stroke="hsl(0.0,100%,35%)" stroke-width="0.00238"></path>
<path d="M0.604 0.655 Q1.133 0.574 1.093 0.298" stroke="hsl(0.0,100%,35%)" stroke-width="0.00119"></path>
<path d="M0.604 0.655 Q0.257 0.623 0.119 0.785" stroke="hsl(0.0,100%,35%)" stroke-width="0.00119"></path>
<path d="M0.604 0.655 Q0.462 0.600 0.325 0.658" stroke="hsl(0.0,100%,35%)" stroke-width="0.00119"></path>
<path d="M0.604 0.655 Q1.123 0.377 0.695 0.063" stroke="hsl(0.0,100%,35%)" stroke-width="0.00119"></path>
<path d="M0.604 0.655 Q0.734 0.739 0.928 0.694" stroke="hsl(0.0,100%,35%)" stroke-width="0.00356"></path>
<path d="M0.604 0.655 Q0.691 0.922 1.232 0.938" stroke="hsl(0.0,100%,35%)" stroke-width="0.00713"></path>
<path d="M0.604 0.655 Q0.858 0.597 0.801 0.460" stroke="hsl(0.0,100%,35%)" stroke-width="0.04159"></path>
<path d="M0.604 0.655 Q0.487 0.519 0.196 0.546" stroke="hsl(0.0,100%,35%)" stroke-width="0.00475"></path>
<path d="M0.604 0.655 Q0.550 0.796 0.813 0.853" stroke="hsl(0.0,100%,35%)" stroke-width="0.00238"></path>
<path d="M0.604 0.655 Q0.795 0.609 0.749 0.506" stroke="hsl(0.0,100%,35%)" stroke-width="0.00475"></path>
<path d="M0.604 0.655 Q1.091 0.684 1.255 0.453" stroke="hsl(0.0,100%,35%)" stroke-width="0.00238"></path>
<path d="M0.604 0.655 Q0.414 0.587 0.241 0.666" stroke="hsl(0.0,100%,35%)" stroke-width="0.00119"></path>
<path d="M0.604 0.655 Q0.497 0.771 0.700 0.848" stroke="hsl(0.0,100%,35%)" stroke-width="0.00238"></path>
<path d="M0.604 0.655 Q0.675 0.718 0.814 0.697" stroke="hsl(0.0,100%,35%)" stroke-width="0.02376"></path>
<path d="M0.604 0.655 Q0.620 0.558 0.435 0.529" stroke="hsl(0.0,100%,35%)" stroke-width="0.00238"></path>
<path d="M0.604 0.655 Q0.674 0.694 0.765 0.668" stroke="hsl(0.0,100%,35%)" stroke-width="0.00475"></path>
<path d="M0.604 0.655 Q0.921 0.612 0.908 0.448" stroke="hsl(0.0,100%,35%)" stroke-width="0.00119"></path>
<path d="M0.604 0.655 Q0.336 0.714 0.393 0.857" stroke="hsl(0.0,100%,35%)" stroke-width="0.00119"></path>
<path d="M0.604 0.655 Q0.714 0.562 0.557 0.488" stroke="hsl(0.0,100%,35%)" stroke-width="0.00119"></path>
<path d="M0.604 0.655 Q0.597 0.795 0.870 0.829" stroke="hsl(0.0,100%,35%)" stroke-width="0.00119"></path>
<path d="M0.604 0.655 Q0.638 0.531 0.406 0.487" stroke="hsl(0.0,100%,35%)" stroke-width="0.00119"></path>
<path d="M0.604 0.655 Q1.006 0.815 1.407 0.654" stroke="hsl(0.0,100%,35%)" stroke-width="0.00238"></path>
<path d="M0.604 0.655 Q0.633 0.796 0.916 0.813" stroke="hsl(0.0,100%,35%)" stroke-width="0.00119"></path>
<path d="M0.604 0.655 Q0.755 0.564 0.612 0.470" stroke="hsl(0.0,100%,35%)" stroke-width="0.00119"></path>
<path d="M1.865 0.520 Q1.010 0.199 0.196 0.546" stroke="hsl(180.0,100%,35%)" stroke-width="0.00119"></path>
<path d="M1.865 0.520 Q1.025 0.383 0.573 0.762" stroke="hsl(180.0,100%,35%)" stroke-width="0.00119"></path>
<path d="M1.865 0.520 Q1.701 0.109 0.864 0.099" stroke="hsl(180.0,100%,35%)" stroke-width="0.00119"></path>
<path d="M0.965 0.564 Q0.611 0.585 0.573 0.762" stroke="hsl(0.0,100%,35%)" stroke-width="0.02495"></path>
<path d="M0.965 0.564 Q0.783 0.601 0.814 0.697" stroke="hsl(0.0,100%,35%)" stroke-width="0.01545"></path>
<path d="M0.965 0.564 Q0.712 0.537 0.604 0.655" stroke="hsl(0.0,100%,35%)" stroke-width="0.00594"></path>
<path d="M0.965 0.564 Q0.967 0.479 0.801 0.460" stroke="hsl(0.0,100%,35%)" stroke-width="0.02257"></path>
<path d="M0.965 0.564 Q0.971 0.470 0.788 0.446" stroke="hsl(0.0,100%,35%)" stroke-width="0.00119"></path>
<path d="M0.965 0.564 Q0.605 0.653 0.700 0.848" stroke="hsl(0.0,100%,35%)" stroke-width="0.00119"></path>
<path d="M0.965 0.564 Q0.800 0.805 1.232 0.938" stroke="hsl(0.0,100%,35%)" stroke-width="0.00475"></path>
<path d="M0.965 0.564 Q0.596 0.401 0.196 0.546" stroke="hsl(0.0,100%,35%)" stroke-width="0.00119"></path>
<path d="M0.965 0.564 Q1.035 0.674 1.264 0.664" stroke="hsl(0.0,100%,35%)" stroke-width="0.00119"></path>
<path d="M0.907 0.897 Q0.848 0.763 0.573 0.762" stroke="hsl(0.0,100%,35%)" stroke-width="0.00594"></path>
<path d="M0.907 0.897 Q1.020 0.779 0.814 0.697" stroke="hsl(0.0,100%,35%)" stroke-width="0.00238"></path>
<path d="M0.907 0.897 Q1.037 0.983 1.232 0.938" stroke="hsl(0.0,100%,35%)" stroke-width="0.00119"></path>
<path d="M0.907 0.897 Q0.842 0.831 0.700 0.848" stroke="hsl(0.0,100%,35%)" stroke-width="0.00119"></path>
<path d="M0.072 0.225 Q0.189 0.195 0.157 0.132" stroke="hsl(180.0,100%,35%)" stroke-width="0.00119"></path>
<path d="M0.072 0.225 Q0.247 0.254 0.343 0.175" stroke="hsl(180.0,100%,35%)" stroke-width="0.01188"></path>
<path d="M0.072 0.225 Q0.204 0.310 0.398 0.265" stroke="hsl(180.0,100%,35%)" stroke-width="0.00119"></path>
<path d="M0.072 0.225 Q0.082 0.814 1.232 0.938" stroke="hsl(180.0,100%,35%)" stroke-width="0.00119"></path>
<path d="M0.072 0.225 Q-0.107 0.594 0.573 0.762" stroke="hsl(180.0,100%,35%)" stroke-width="0.00119"></path>
<path d="M0.072 0.225 Q-0.122 0.410 0.196 0.546" stroke="hsl(180.0,100%,35%)" stroke-width="0.00238"></path>
<path d="M0.072 0.225 Q0.383 0.217 0.436 0.064" stroke="hsl(180.0,100%,35%)" stroke-width="0.00238"></path>
<path d="M0.072 0.225 Q0.122 0.322 0.323 0.319" stroke="hsl(180.0,100%,35%)" stroke-width="0.00238"></path>
<path d="M1.697 0.466 Q1.738 0.527 1.865 0.520" stroke="hsl(0.0,100%,35%)" stroke-width="0.00238"></path>
<path d="M1.697 0.466 Q1.071 0.405 0.814 0.697" stroke="hsl(0.0,100%,35%)" stroke-width="0.00119"></path>
<path d="M1.697 0.466 Q1.087 0.609 1.232 0.938" stroke="hsl(0.0,100%,35%)" stroke-width="0.00119"></path>
<path d="M1.311 0.658 Q1.048 0.782 1.232 0.938" stroke="hsl(180.0,100%,35%)" stroke-width="0.00119"></path>
<path d="M1.311 0.658 Q0.859 0.563 0.573 0.762" stroke="hsl(180.0,100%,35%)" stroke-width="0.00119"></path>
<path d="M1.311 0.658 Q1.363 0.675 1.407 0.654" stroke="hsl(180.0,100%,35%)" stroke-width="0.00119"></path>
<path d="M1.770 0.260 Q1.612 0.201 1.460 0.265" stroke="hsl(180.0,100%,35%)" stroke-width="0.00119"></path>
<path d="M1.770 0.260 Q1.648 0.252 1.605 0.310" stroke="hsl(180.0,100%,35%)" stroke-width="0.00119"></path>
<path d="M1.770 0.260 Q1.116 0.549 1.535 0.931" stroke="hsl(180.0,100%,35%)" stroke-width="0.00119"></path>
<path d="M1.770 0.260 Q1.803 0.188 1.668 0.156" stroke="hsl(180.0,100%,35%)" stroke-width="0.00119"></path>
<path d="M1.770 0.260 Q0.943 0.288 0.814 0.697" stroke="hsl(180.0,100%,35%)" stroke-width="0.00119"></path>
<path d="M0.695 0.063 Q0.264 0.608 1.232 0.938" stroke="hsl(180.0,100%,35%)" stroke-width="0.00119"></path>
<path d="M0.695 0.063 Q0.751 0.115 0.864 0.099" stroke="hsl(180.0,100%,35%)" stroke-width="0.00356"></path>
<path d="M0.695 0.063 Q0.069 0.456 0.700 0.848" stroke="hsl(180.0,100%,35%)" stroke-width="0.00119"></path>
<path d="M0.695 0.063 Q0.367 0.295 0.749 0.506" stroke="hsl(180.0,100%,35%)" stroke-width="0.00119"></path>
<path d="M0.695 0.063 Q0.520 0.103 0.560 0.198" stroke="hsl(180.0,100%,35%)" stroke-width="0.00119"></path>
<path d="M1.364 0.417 Q1.534 0.360 1.460 0.265" stroke="hsl(180.0,100%,35%)" stroke-width="0.00119"></path>
<path d="M1.364 0.417 Q0.865 0.447 0.814 0.697" stroke="hsl(180.0,100%,35%)" stroke-width="0.00119"></path>
<path d="M1.364 0.417 Q1.020 0.641 1.381 0.857" stroke="hsl(180.0,100%,35%)" stroke-width="0.00119"></path>
<path d="M1.381 0.857 Q1.242 0.868 1.232 0.938" stroke="hsl(180.0,100%,35%)" stroke-width="0.01663"></path>
<path d="M1.381 0.857 Q1.226 0.664 0.814 0.697" stroke="hsl(180.0,100%,35%)" stroke-width="0.00238"></path>
<path d="M1.381 0.857 Q1.729 0.375 0.864 0.099" stroke="hsl(180.0,100%,35%)" stroke-width="0.00119"></path>
<path d="M1.381 0.857 Q1.336 0.811 1.234 0.823" stroke="hsl(180.0,100%,35%)" stroke-width="0.00119"></path>
<path d="M1.381 0.857 Q1.521 0.852 1.542 0.783" stroke="hsl(180.0,100%,35%)" stroke-width="0.00119"></path>
<path d="M1.086 0.477 Q0.601 0.517 0.573 0.762" stroke="hsl(0.0,100%,35%)" stroke-width="0.00713"></path>
<path d="M1.086 0.477 Q0.956 0.497 0.965 0.564" stroke="hsl(0.0,100%,35%)" stroke-width="0.01782"></path>
<path d="M1.086 0.477 Q0.703 0.470 0.604 0.655" stroke="hsl(0.0,100%,35%)" stroke-width="0.01069"></path>
<path d="M0.825 0.968 Q0.833 0.978 0.854 0.977" stroke="hsl(180.0,100%,35%)" stroke-width="0.00119"></path>
<path d="M0.825 0.968 Q0.864 0.815 0.573 0.762" stroke="hsl(180.0,100%,35%)" stroke-width="0.00238"></path>
<path d="M0.825 0.968 Q1.043 0.446 0.072 0.225" stroke="hsl(180.0,100%,35%)" stroke-width="0.00119"></path>
<path d="M0.243 0.374 Q-0.140 0.609 0.234 0.847" stroke="hsl(180.0,100%,35%)" stroke-width="0.00238"></path>
<path d="M0.243 0.374 Q0.452 0.295 0.343 0.175" stroke="hsl(180.0,100%,35%)" stroke-width="0.00238"></path>
<path d="M0.243 0.374 Q0.083 0.451 0.196 0.546" stroke="hsl(180.0,100%,35%)" stroke-width="0.00238"></path>
<path d="M0.243 0.374 Q0.270 0.650 0.814 0.697" stroke="hsl(180.0,100%,35%)" stroke-width="0.00238"></path>
<path d="M0.243 0.374 Q-0.148 0.555 0.119 0.785" stroke="hsl(180.0,100%,35%)" stroke-width="0.00119"></path>
<path d="M1.813 0.391 Q1.251 -0.011 0.343 0.175" stroke="hsl(180.0,100%,35%)" stroke-width="0.00119"></path>
<path d="M1.813 0.391 Q1.736 0.466 1.865 0.520" stroke="hsl(180.0,100%,35%)" stroke-width="0.00238"></path>
<path d="M1.813 0.391 Q1.069 0.344 0.814 0.697" stroke="hsl(180.0,100%,35%)" stroke-width="0.00119"></path>
<path d="M1.100 0.456 Q0.764 0.519 0.814 0.697" stroke="hsl(0.0,100%,35%)" stroke-width="0.00238"></path>
<path d="M1.100 0.456 Q0.946 0.483 0.965 0.564" stroke="hsl(0.0,100%,35%)" stroke-width="0.00119"></path>
<path d="M1.100 0.456 Q0.780 0.723 1.232 0.938" stroke="hsl(0.0,100%,35%)" stroke-width="0.00119"></path>
<path d="M1.573 0.573 Q1.671 0.640 1.824 0.607" stroke="hsl(180.0,100%,35%)" stroke-width="0.00356"></path>
<path d="M1.573 0.573 Q1.593 0.526 1.506 0.506" stroke="hsl(180.0,100%,35%)" stroke-width="0.00119"></path>
<path d="M1.573 0.573 Q0.969 0.561 0.813 0.853" stroke="hsl(180.0,100%,35%)" stroke-width="0.00119"></path>
<path d="M1.573 0.573 Q1.549 0.647 1.688 0.674" stroke="hsl(180.0,100%,35%)" stroke-width="0.00119"></path>
<path d="M1.573 0.573 Q1.425 0.581 1.407 0.654" stroke="hsl(180.0,100%,35%)" stroke-width="0.00238"></path>
<path d="M1.573 0.573 Q1.101 0.099 0.072 0.225" stroke="hsl(180.0,100%,35%)" stroke-width="0.00238"></path>
<path d="M1.573 0.573 Q1.584 0.737 1.905 0.767" stroke="hsl(180.0,100%,35%)" stroke-width="0.00238"></path>
<path d="M1.573 0.573 Q1.429 0.637 1.522 0.721" stroke="hsl(180.0,100%,35%)" stroke-width="0.00119"></path>
<path d="M0.294 0.568 Q0.278 0.721 0.573 0.762" stroke="hsl(180.0,100%,35%)" stroke-width="0.00356"></path>
<path d="M0.294 0.568 Q0.263 0.537 0.196 0.546" stroke="hsl(180.0,100%,35%)" stroke-width="0.00356"></path>
<path d="M0.294 0.568 Q0.033 0.641 0.119 0.785" stroke="hsl(180.0,100%,35%)" stroke-width="0.00119"></path>
<path d="M0.358 0.772 Q0.473 0.810 0.573 0.762" stroke="hsl(0.0,100%,35%)" stroke-width="0.01901"></path>
<path d="M0.358 0.772 Q0.459 0.627 0.196 0.546" stroke="hsl(0.0,100%,35%)" stroke-width="0.00119"></path>
<path d="M0.358 0.772 Q0.433 0.708 0.325 0.658" stroke="hsl(0.0,100%,35%)" stroke-width="0.00238"></path>
<path d="M0.358 0.772 Q0.872 0.923 1.278 0.705" stroke="hsl(0.0,100%,35%)" stroke-width="0.00119"></path>
<path d="M0.358 0.772 Q0.662 1.030 1.232 0.938" stroke="hsl(0.0,100%,35%)" stroke-width="0.00119"></path>
<path d="M0.358 0.772 Q0.646 0.826 0.814 0.697" stroke="hsl(0.0,100%,35%)" stroke-width="0.00119"></path>
<path d="M1.084 0.867 Q1.085 0.728 0.814 0.697" stroke="hsl(0.0,100%,35%)" stroke-width="0.00356"></path>
<path d="M1.084 0.867 Q1.101 0.932 1.232 0.938" stroke="hsl(0.0,100%,35%)" stroke-width="0.00238"></path>
<path d="M1.084 0.867 Q0.912 0.712 0.573 0.762" stroke="hsl(0.0,100%,35%)" stroke-width="0.00119"></path>
<path d="M0.980 0.855 Q0.850 0.727 0.573 0.762" stroke="hsl(180.0,100%,35%)" stroke-width="0.00119"></path>
<path d="M0.980 0.855 Q1.040 0.947 1.232 0.938" stroke="hsl(180.0,100%,35%)" stroke-width="0.00119"></path>
<path d="M0.980 0.855 Q1.205 0.388 0.343 0.175" stroke="hsl(180.0,100%,35%)" stroke-width="0.00119"></path>
<path d="M0.980 0.855 Q1.023 0.743 0.814 0.697" stroke="hsl(180.0,100%,35%)" stroke-width="0.00119"></path>
</g>
<text x="0.559" y="0.404" font-size="0.012127" fill="hsl(0.0,100%,20%)">ajuma</text>
<text x="0.751" y="0.450" font-size="0.008575" fill="hsl(0.0,100%,20%)">gab</text>
<text x="0.573" y="0.718" font-size="0.089525" fill="hsl(0.0,100%,20%)">bartekn</text>
<text x="0.801" y="0.430" font-size="0.059615" fill="hsl(0.0,100%,20%)">yukishiino</text>
<text x="0.234" y="0.834" font-size="0.025244" fill="hsl(0.0,100%,20%)">arthursonzogni</text>
<text x="0.999" y="0.796" font-size="0.035700" fill="hsl(0.0,100%,20%)">keishi</text>
<text x="0.119" y="0.774" font-size="0.022140" fill="hsl(0.0,100%,20%)">glazunov</text>
<text x="1.232" y="0.912" font-size="0.052159" fill="hsl(0.0,100%,20%)">lizeb</text>
<text x="0.814" y="0.676" font-size="0.043160" fill="hsl(0.0,100%,20%)">haraken</text>
<text x="1.238" y="0.088" font-size="0.017150" fill="hsl(180.0,100%,20%)">avi</text>
<text x="0.196" y="0.534" font-size="0.023221" fill="hsl(180.0,100%,20%)">dcheng</text>
<text x="0.433" y="0.861" font-size="0.012127" fill="hsl(180.0,100%,20%)">mark</text>
<text x="0.956" y="0.174" font-size="0.004951" fill="hsl(0.0,100%,20%)">tedchoc</text>
<text x="1.535" y="0.926" font-size="0.009901" fill="hsl(180.0,100%,20%)">rsesek</text>
<text x="1.298" y="0.223" font-size="0.004951" fill="hsl(180.0,100%,20%)">vovoy</text>
<text x="1.038" y="0.075" font-size="0.004951" fill="hsl(0.0,100%,20%)">garykac</text>
<text x="1.172" y="0.183" font-size="0.004951" fill="hsl(0.0,100%,20%)">khorimoto</text>
<text x="1.434" y="0.066" font-size="0.004951" fill="hsl(180.0,100%,20%)">mbonadei</text>
<text x="0.996" y="0.027" font-size="0.007001" fill="hsl(180.0,100%,20%)">rohitrao</text>
<text x="0.343" y="0.163" font-size="0.023221" fill="hsl(180.0,100%,20%)">danakj</text>
<text x="0.604" y="0.611" font-size="0.087167" fill="hsl(0.0,100%,20%)">kdlee</text>
<text x="0.393" y="0.853" font-size="0.009901" fill="hsl(0.0,100%,20%)">altimin</text>
<text x="0.700" y="0.837" font-size="0.023221" fill="hsl(0.0,100%,20%)">bikineev</text>
<text x="1.865" y="0.513" font-size="0.014003" fill="hsl(180.0,100%,20%)">thestig</text>
<text x="0.765" y="0.662" font-size="0.012127" fill="hsl(0.0,100%,20%)">bgeffon</text>
<text x="0.699" y="0.827" font-size="0.004951" fill="hsl(0.0,100%,20%)">tsepez</text>
<text x="0.965" y="0.533" font-size="0.062426" fill="hsl(0.0,100%,20%)">tasak</text>
<text x="0.732" y="0.901" font-size="0.008575" fill="hsl(0.0,100%,20%)">gbeaty</text>
<text x="0.241" y="0.661" font-size="0.008575" fill="hsl(0.0,100%,20%)">jochen</text>
<text x="0.907" y="0.889" font-size="0.017150" fill="hsl(0.0,100%,20%)">richard.townsend</text>
<text x="1.407" y="0.648" font-size="0.012127" fill="hsl(180.0,100%,20%)">wfh</text>
<text x="0.445" y="0.747" font-size="0.004951" fill="hsl(0.0,100%,20%)">asully</text>
<text x="0.180" y="0.651" font-size="0.004951" fill="hsl(0.0,100%,20%)">hypan</text>
<text x="0.072" y="0.213" font-size="0.024254" fill="hsl(180.0,100%,20%)">pkasting</text>
<text x="0.689" y="0.138" font-size="0.004951" fill="hsl(180.0,100%,20%)">lukasza</text>
<text x="1.697" y="0.461" font-size="0.009901" fill="hsl(0.0,100%,20%)">dsanders11</text>
<text x="1.311" y="0.654" font-size="0.008575" fill="hsl(180.0,100%,20%)">floresa</text>
<text x="0.928" y="0.687" font-size="0.013098" fill="hsl(0.0,100%,20%)">mpdenton</text>
<text x="1.770" y="0.255" font-size="0.011070" fill="hsl(180.0,100%,20%)">guochengwei</text>
<text x="1.460" y="0.261" font-size="0.007001" fill="hsl(180.0,100%,20%)">kimstephanie</text>
<text x="1.605" y="0.307" font-size="0.004951" fill="hsl(180.0,100%,20%)">smaier</text>
<text x="1.668" y="0.153" font-size="0.004951" fill="hsl(180.0,100%,20%)">dnicoara</text>
<text x="0.695" y="0.056" font-size="0.014003" fill="hsl(180.0,100%,20%)">hans</text>
<text x="0.864" y="0.093" font-size="0.011070" fill="hsl(180.0,100%,20%)">thakis</text>
<text x="0.749" y="0.500" font-size="0.012127" fill="hsl(0.0,100%,20%)">mlippautz</text>
<text x="0.560" y="0.196" font-size="0.004951" fill="hsl(180.0,100%,20%)">aeubanks</text>
<text x="1.364" y="0.413" font-size="0.008575" fill="hsl(180.0,100%,20%)">hnakashima</text>
<text x="1.381" y="0.844" font-size="0.026197" fill="hsl(180.0,100%,20%)">thiabaud</text>
<text x="1.086" y="0.464" font-size="0.027116" fill="hsl(0.0,100%,20%)">honokaanada</text>
<text x="0.887" y="0.822" font-size="0.004951" fill="hsl(0.0,100%,20%)">danilchap</text>
<text x="1.052" y="0.934" font-size="0.009901" fill="hsl(180.0,100%,20%)">fdoray</text>
<text x="1.093" y="0.295" font-size="0.007001" fill="hsl(0.0,100%,20%)">sdefresne</text>
<text x="0.325" y="0.654" font-size="0.008575" fill="hsl(0.0,100%,20%)">leszeks</text>
<text x="0.813" y="0.849" font-size="0.008575" fill="hsl(0.0,100%,20%)">kylechar</text>
<text x="1.255" y="0.449" font-size="0.008575" fill="hsl(0.0,100%,20%)">tkent</text>
<text x="0.435" y="0.525" font-size="0.007001" fill="hsl(0.0,100%,20%)">metzman</text>
<text x="0.908" y="0.445" font-size="0.004951" fill="hsl(0.0,100%,20%)">etienneb</text>
<text x="0.557" y="0.485" font-size="0.004951" fill="hsl(0.0,100%,20%)">erikchen</text>
<text x="0.870" y="0.827" font-size="0.004951" fill="hsl(0.0,100%,20%)">ayui</text>
<text x="0.406" y="0.485" font-size="0.004951" fill="hsl(0.0,100%,20%)">primiano</text>
<text x="0.916" y="0.810" font-size="0.004951" fill="hsl(0.0,100%,20%)">wez</text>
<text x="0.612" y="0.468" font-size="0.004951" fill="hsl(0.0,100%,20%)">battre</text>
<text x="1.066" y="0.828" font-size="0.004951" fill="hsl(0.0,100%,20%)">ccameron</text>
<text x="0.948" y="0.834" font-size="0.004951" fill="hsl(0.0,100%,20%)">rakina</text>
<text x="1.193" y="0.830" font-size="0.004951" fill="hsl(0.0,100%,20%)">wrong</text>
<text x="1.278" y="0.700" font-size="0.009901" fill="hsl(0.0,100%,20%)">ssid</text>
<text x="0.825" y="0.964" font-size="0.009901" fill="hsl(180.0,100%,20%)">marshall</text>
<text x="0.854" y="0.974" font-size="0.004951" fill="hsl(180.0,100%,20%)">perrier</text>
<text x="0.243" y="0.367" font-size="0.014852" fill="hsl(180.0,100%,20%)">paulsemel</text>
<text x="1.813" y="0.386" font-size="0.009901" fill="hsl(180.0,100%,20%)">pbos</text>
<text x="0.157" y="0.129" font-size="0.004951" fill="hsl(180.0,100%,20%)">agrieve</text>
<text x="0.398" y="0.262" font-size="0.004951" fill="hsl(180.0,100%,20%)">wittman</text>
<text x="0.436" y="0.061" font-size="0.007001" fill="hsl(180.0,100%,20%)">nicolaso</text>
<text x="0.323" y="0.316" font-size="0.007001" fill="hsl(180.0,100%,20%)">behdadb</text>
<text x="1.100" y="0.451" font-size="0.009901" fill="hsl(0.0,100%,20%)">qitiezheng</text>
<text x="1.573" y="0.564" font-size="0.017850" fill="hsl(180.0,100%,20%)">rwkeane</text>
<text x="1.824" y="0.603" font-size="0.008575" fill="hsl(180.0,100%,20%)">ajgo</text>
<text x="1.506" y="0.503" font-size="0.004951" fill="hsl(180.0,100%,20%)">mfoltz</text>
<text x="1.688" y="0.672" font-size="0.004951" fill="hsl(180.0,100%,20%)">ddorwin</text>
<text x="1.905" y="0.764" font-size="0.007001" fill="hsl(180.0,100%,20%)">jshin</text>
<text x="1.522" y="0.719" font-size="0.004951" fill="hsl(180.0,100%,20%)">kmarshall</text>
<text x="0.294" y="0.561" font-size="0.013098" fill="hsl(180.0,100%,20%)">saelo</text>
<text x="0.358" y="0.761" font-size="0.023221" fill="hsl(0.0,100%,20%)">sroettger</text>
<text x="1.084" y="0.861" font-size="0.012127" fill="hsl(0.0,100%,20%)">stha09</text>
<text x="0.788" y="0.443" font-size="0.004951" fill="hsl(0.0,100%,20%)">tikuta</text>
<text x="1.264" y="0.662" font-size="0.004951" fill="hsl(0.0,100%,20%)">estaab</text>
<text x="1.234" y="0.820" font-size="0.004951" fill="hsl(0.0,100%,20%)">dgozman</text>
<text x="1.542" y="0.781" font-size="0.004951" fill="hsl(0.0,100%,20%)">jamiewalch</text>
<text x="0.980" y="0.850" font-size="0.009901" fill="hsl(180.0,100%,20%)">wangqing-hf</text>
<text x="0.796" y="0.439" font-size="0.004951" fill="hsl(0.0,100%,20%)">joenotcharles</text>
<text x="1.039" y="0.379" font-size="0.004951" fill="hsl(0.0,100%,20%)">rockot</text>
<text x="0.968" y="0.298" font-size="0.004951" fill="hsl(0.0,100%,20%)">mamir</text>
<text x="1.232" y="0.412" font-size="0.004951" fill="hsl(0.0,100%,20%)">meacer</text>
<text x="1.158" y="0.284" font-size="0.004951" fill="hsl(0.0,100%,20%)">victortan</text>
</svg>
