<svg width="4000" height="2000" viewBox="-0.025 -0.025 2.05 1.05" xmlns="http://www.w3.org/2000/svg">
  <style>
    path {
      fill: none;
      stroke-linecap: round;
      stroke-opacity: 0.4;
    }

    text {
      text-anchor: middle;
      alignment-baseline: hanging;
    }
  </style>
  <g opacity="0.4">
<path d="M0.585 0.483 Q0.721 0.531 0.844 0.474" stroke="hsl(0.0,100%,35%)" stroke-width="0.00118"></path>
<path d="M0.585 0.483 Q0.593 0.707 1.031 0.752" stroke="hsl(0.0,100%,35%)" stroke-width="0.00354"></path>
<path d="M0.585 0.483 Q0.682 0.783 1.288 0.801" stroke="hsl(0.0,100%,35%)" stroke-width="0.00118"></path>
<path d="M1.031 0.752 Q0.766 0.778 0.758 0.913" stroke="hsl(0.0,100%,35%)" stroke-width="0.03421"></path>
<path d="M1.031 0.752 Q1.046 0.789 1.122 0.790" stroke="hsl(0.0,100%,35%)" stroke-width="0.00354"></path>
<path d="M1.031 0.752 Q1.196 0.754 1.236 0.674" stroke="hsl(0.0,100%,35%)" stroke-width="0.02005"></path>
<path d="M1.031 0.752 Q1.278 0.763 1.354 0.645" stroke="hsl(0.0,100%,35%)" stroke-width="0.00590"></path>
<path d="M1.031 0.752 Q1.591 0.852 1.910 0.601" stroke="hsl(0.0,100%,35%)" stroke-width="0.00118"></path>
<path d="M1.031 0.752 Q0.737 0.778 0.721 0.927" stroke="hsl(0.0,100%,35%)" stroke-width="0.00236"></path>
<path d="M1.031 0.752 Q0.926 0.656 0.715 0.686" stroke="hsl(0.0,100%,35%)" stroke-width="0.00472"></path>
<path d="M1.031 0.752 Q1.062 0.920 1.396 0.942" stroke="hsl(0.0,100%,35%)" stroke-width="0.02123"></path>
<path d="M1.031 0.752 Q1.100 0.794 1.198 0.770" stroke="hsl(0.0,100%,35%)" stroke-width="0.00354"></path>
<path d="M1.031 0.752 Q1.174 0.681 1.066 0.596" stroke="hsl(0.0,100%,35%)" stroke-width="0.00354"></path>
<path d="M1.031 0.752 Q1.012 0.579 0.670 0.550" stroke="hsl(0.0,100%,35%)" stroke-width="0.00118"></path>
<path d="M1.031 0.752 Q0.952 0.790 1.008 0.837" stroke="hsl(0.0,100%,35%)" stroke-width="0.01179"></path>
<path d="M1.031 0.752 Q1.055 0.573 0.710 0.521" stroke="hsl(0.0,100%,35%)" stroke-width="0.00354"></path>
<path d="M1.031 0.752 Q0.885 0.594 0.544 0.630" stroke="hsl(0.0,100%,35%)" stroke-width="0.00236"></path>
<path d="M1.031 0.752 Q0.861 0.604 0.535 0.654" stroke="hsl(0.0,100%,35%)" stroke-width="0.00236"></path>
<path d="M1.031 0.752 Q0.792 0.674 0.587 0.773" stroke="hsl(0.0,100%,35%)" stroke-width="0.00236"></path>
<path d="M1.031 0.752 Q1.220 0.753 1.263 0.661" stroke="hsl(0.0,100%,35%)" stroke-width="0.00354"></path>
<path d="M1.031 0.752 Q1.654 0.580 1.456 0.239" stroke="hsl(0.0,100%,35%)" stroke-width="0.00118"></path>
<path d="M1.031 0.752 Q1.120 0.828 1.288 0.801" stroke="hsl(0.0,100%,35%)" stroke-width="0.00590"></path>
<path d="M1.031 0.752 Q1.023 0.528 0.585 0.483" stroke="hsl(0.0,100%,35%)" stroke-width="0.00118"></path>
<path d="M1.031 0.752 Q1.006 0.659 0.820 0.651" stroke="hsl(0.0,100%,35%)" stroke-width="0.00118"></path>
<path d="M1.031 0.752 Q0.978 0.574 0.618 0.560" stroke="hsl(0.0,100%,35%)" stroke-width="0.00118"></path>
<path d="M1.288 0.801 Q1.230 0.893 1.396 0.942" stroke="hsl(0.0,100%,35%)" stroke-width="0.01297"></path>
<path d="M1.288 0.801 Q2.180 0.343 1.482 -0.192" stroke="hsl(0.0,100%,35%)" stroke-width="0.00118"></path>
<path d="M1.288 0.801 Q1.486 0.754 1.436 0.647" stroke="hsl(0.0,100%,35%)" stroke-width="0.00236"></path>
<path d="M1.288 0.801 Q0.934 0.751 0.758 0.913" stroke="hsl(0.0,100%,35%)" stroke-width="0.01179"></path>
<path d="M1.288 0.801 Q1.119 0.763 1.008 0.837" stroke="hsl(0.0,100%,35%)" stroke-width="0.02595"></path>
<path d="M1.288 0.801 Q1.446 0.736 1.354 0.645" stroke="hsl(0.0,100%,35%)" stroke-width="0.01062"></path>
<path d="M1.288 0.801 Q1.250 0.314 0.289 0.225" stroke="hsl(0.0,100%,35%)" stroke-width="0.00118"></path>
<path d="M1.288 0.801 Q1.094 0.629 0.715 0.686" stroke="hsl(0.0,100%,35%)" stroke-width="0.00118"></path>
<path d="M1.288 0.801 Q1.406 0.853 1.533 0.807" stroke="hsl(0.0,100%,35%)" stroke-width="0.00118"></path>
<path d="M1.288 0.801 Q1.572 0.742 1.518 0.591" stroke="hsl(0.0,100%,35%)" stroke-width="0.00118"></path>
<path d="M1.288 0.801 Q1.578 0.813 1.664 0.673" stroke="hsl(0.0,100%,35%)" stroke-width="0.00118"></path>
<path d="M1.288 0.801 Q1.703 0.792 1.775 0.587" stroke="hsl(0.0,100%,35%)" stroke-width="0.00118"></path>
<path d="M1.288 0.801 Q1.199 0.725 1.031 0.752" stroke="hsl(0.0,100%,35%)" stroke-width="0.02359"></path>
<path d="M1.288 0.801 Q1.582 0.762 1.570 0.610" stroke="hsl(0.0,100%,35%)" stroke-width="0.00118"></path>
<path d="M1.288 0.801 Q1.331 0.692 1.127 0.647" stroke="hsl(0.0,100%,35%)" stroke-width="0.00118"></path>
<path d="M0.587 0.773 Q0.825 0.851 1.031 0.752" stroke="hsl(0.0,100%,35%)" stroke-width="0.01297"></path>
<path d="M0.587 0.773 Q0.895 0.894 1.198 0.770" stroke="hsl(0.0,100%,35%)" stroke-width="0.00236"></path>
<path d="M0.587 0.773 Q0.656 0.703 0.535 0.654" stroke="hsl(0.0,100%,35%)" stroke-width="0.00354"></path>
<path d="M0.587 0.773 Q0.856 1.019 1.396 0.942" stroke="hsl(0.0,100%,35%)" stroke-width="0.00236"></path>
<path d="M0.587 0.773 Q1.073 0.862 1.354 0.645" stroke="hsl(0.0,100%,35%)" stroke-width="0.00354"></path>
<path d="M1.198 0.770 Q1.129 0.728 1.031 0.752" stroke="hsl(0.0,100%,35%)" stroke-width="0.01179"></path>
<path d="M1.198 0.770 Q1.340 0.719 1.272 0.639" stroke="hsl(0.0,100%,35%)" stroke-width="0.00118"></path>
<path d="M1.198 0.770 Q0.890 0.649 0.587 0.773" stroke="hsl(0.0,100%,35%)" stroke-width="0.00118"></path>
<path d="M1.198 0.770 Q1.376 0.738 1.354 0.645" stroke="hsl(0.0,100%,35%)" stroke-width="0.00236"></path>
<path d="M1.198 0.770 Q1.272 0.656 1.066 0.596" stroke="hsl(0.0,100%,35%)" stroke-width="0.00118"></path>
<path d="M1.198 0.770 Q1.306 0.714 1.219 0.649" stroke="hsl(0.0,100%,35%)" stroke-width="0.00118"></path>
<path d="M1.198 0.770 Q1.338 0.653 1.141 0.559" stroke="hsl(0.0,100%,35%)" stroke-width="0.00118"></path>
<path d="M1.198 0.770 Q1.412 0.723 1.369 0.609" stroke="hsl(0.0,100%,35%)" stroke-width="0.00118"></path>
<path d="M1.198 0.770 Q0.864 0.753 0.758 0.913" stroke="hsl(0.0,100%,35%)" stroke-width="0.00118"></path>
<path d="M1.198 0.770 Q1.481 0.716 1.437 0.566" stroke="hsl(0.0,100%,35%)" stroke-width="0.00354"></path>
<path d="M1.198 0.770 Q1.160 0.895 1.396 0.942" stroke="hsl(0.0,100%,35%)" stroke-width="0.00354"></path>
<path d="M1.198 0.770 Q1.416 0.756 1.436 0.647" stroke="hsl(0.0,100%,35%)" stroke-width="0.00118"></path>
<path d="M1.198 0.770 Q1.023 0.632 0.715 0.686" stroke="hsl(0.0,100%,35%)" stroke-width="0.00118"></path>
<path d="M0.535 0.654 Q0.440 0.828 0.758 0.913" stroke="hsl(0.0,100%,35%)" stroke-width="0.00118"></path>
<path d="M0.535 0.654 Q0.774 0.845 1.198 0.770" stroke="hsl(0.0,100%,35%)" stroke-width="0.00236"></path>
<path d="M0.535 0.654 Q0.704 0.802 1.031 0.752" stroke="hsl(0.0,100%,35%)" stroke-width="0.00708"></path>
<path d="M0.535 0.654 Q0.991 0.831 1.436 0.647" stroke="hsl(0.0,100%,35%)" stroke-width="0.00118"></path>
<path d="M0.535 0.654 Q0.735 0.970 1.396 0.942" stroke="hsl(0.0,100%,35%)" stroke-width="0.00118"></path>
<path d="M1.396 0.942 Q1.365 0.774 1.031 0.752" stroke="hsl(0.0,100%,35%)" stroke-width="0.01887"></path>
<path d="M1.396 0.942 Q1.434 0.816 1.198 0.770" stroke="hsl(0.0,100%,35%)" stroke-width="0.00118"></path>
<path d="M1.396 0.942 Q1.454 0.850 1.288 0.801" stroke="hsl(0.0,100%,35%)" stroke-width="0.00590"></path>
<path d="M1.396 0.942 Q1.686 0.925 1.716 0.779" stroke="hsl(0.0,100%,35%)" stroke-width="0.00236"></path>
<path d="M1.396 0.942 Q1.195 0.626 0.535 0.654" stroke="hsl(0.0,100%,35%)" stroke-width="0.00118"></path>
<path d="M1.396 0.942 Q1.612 0.785 1.354 0.645" stroke="hsl(0.0,100%,35%)" stroke-width="0.00944"></path>
<path d="M1.396 0.942 Q1.441 0.978 1.522 0.964" stroke="hsl(0.0,100%,35%)" stroke-width="0.00944"></path>
<path d="M1.396 0.942 Q1.627 0.947 1.688 0.835" stroke="hsl(0.0,100%,35%)" stroke-width="0.00236"></path>
<path d="M0.838 0.374 Q0.527 0.506 0.715 0.686" stroke="hsl(180.0,100%,35%)" stroke-width="0.00118"></path>
<path d="M0.838 0.374 Q0.775 0.531 1.066 0.596" stroke="hsl(180.0,100%,35%)" stroke-width="0.00236"></path>
<path d="M0.838 0.374 Q0.663 0.770 1.396 0.942" stroke="hsl(180.0,100%,35%)" stroke-width="0.00118"></path>
<path d="M0.838 0.374 Q0.761 0.288 0.576 0.307" stroke="hsl(180.0,100%,35%)" stroke-width="0.00118"></path>
<path d="M0.838 0.374 Q0.894 0.775 1.688 0.835" stroke="hsl(180.0,100%,35%)" stroke-width="0.00118"></path>
<path d="M0.838 0.374 Q0.862 0.300 0.723 0.272" stroke="hsl(180.0,100%,35%)" stroke-width="0.00118"></path>
<path d="M0.838 0.374 Q0.691 0.315 0.545 0.374" stroke="hsl(180.0,100%,35%)" stroke-width="0.00118"></path>
<path d="M0.838 0.374 Q0.721 0.376 0.699 0.433" stroke="hsl(180.0,100%,35%)" stroke-width="0.00118"></path>
<path d="M0.838 0.374 Q0.946 0.354 0.930 0.296" stroke="hsl(180.0,100%,35%)" stroke-width="0.00118"></path>
<path d="M0.838 0.374 Q0.683 0.190 0.289 0.225" stroke="hsl(180.0,100%,35%)" stroke-width="0.00118"></path>
<path d="M0.838 0.374 Q0.551 0.783 1.285 1.012" stroke="hsl(180.0,100%,35%)" stroke-width="0.00118"></path>
<path d="M1.285 1.012 Q1.366 0.832 1.031 0.752" stroke="hsl(180.0,100%,35%)" stroke-width="0.00118"></path>
<path d="M1.285 1.012 Q1.261 0.736 0.715 0.686" stroke="hsl(180.0,100%,35%)" stroke-width="0.00118"></path>
<path d="M1.285 1.012 Q1.244 0.976 1.164 0.988" stroke="hsl(180.0,100%,35%)" stroke-width="0.00118"></path>
<path d="M1.285 1.012 Q1.457 1.059 1.585 0.985" stroke="hsl(180.0,100%,35%)" stroke-width="0.00118"></path>
<path d="M0.758 0.913 Q1.092 0.929 1.198 0.770" stroke="hsl(0.0,100%,35%)" stroke-width="0.02005"></path>
<path d="M0.758 0.913 Q0.944 0.925 1.008 0.837" stroke="hsl(0.0,100%,35%)" stroke-width="0.05308"></path>
<path d="M0.758 0.913 Q1.219 0.823 1.145 0.579" stroke="hsl(0.0,100%,35%)" stroke-width="0.00118"></path>
<path d="M0.758 0.913 Q1.344 1.038 1.716 0.779" stroke="hsl(0.0,100%,35%)" stroke-width="0.00236"></path>
<path d="M0.758 0.913 Q0.942 1.068 1.285 1.012" stroke="hsl(0.0,100%,35%)" stroke-width="0.00354"></path>
<path d="M0.758 0.913 Q1.023 0.887 1.031 0.752" stroke="hsl(0.0,100%,35%)" stroke-width="0.10262"></path>
<path d="M0.758 0.913 Q1.152 0.711 0.844 0.474" stroke="hsl(0.0,100%,35%)" stroke-width="0.00236"></path>
<path d="M0.758 0.913 Q1.406 0.924 1.570 0.610" stroke="hsl(0.0,100%,35%)" stroke-width="0.00118"></path>
<path d="M0.758 0.913 Q0.853 0.738 0.535 0.654" stroke="hsl(0.0,100%,35%)" stroke-width="0.00118"></path>
<path d="M0.758 0.913 Q0.851 0.811 0.673 0.744" stroke="hsl(0.0,100%,35%)" stroke-width="0.00118"></path>
<path d="M0.758 0.913 Q1.508 0.620 1.101 0.190" stroke="hsl(0.0,100%,35%)" stroke-width="0.00118"></path>
<path d="M0.758 0.913 Q1.310 0.915 1.436 0.647" stroke="hsl(0.0,100%,35%)" stroke-width="0.00354"></path>
<path d="M0.758 0.913 Q1.054 1.055 1.396 0.942" stroke="hsl(0.0,100%,35%)" stroke-width="0.00708"></path>
<path d="M0.758 0.913 Q1.112 0.963 1.288 0.801" stroke="hsl(0.0,100%,35%)" stroke-width="0.04128"></path>
<path d="M0.758 0.913 Q0.918 0.791 0.715 0.686" stroke="hsl(0.0,100%,35%)" stroke-width="0.00472"></path>
<path d="M0.758 0.913 Q0.996 0.870 0.965 0.744" stroke="hsl(0.0,100%,35%)" stroke-width="0.00236"></path>
<path d="M0.758 0.913 Q1.155 0.854 1.127 0.647" stroke="hsl(0.0,100%,35%)" stroke-width="0.00472"></path>
<path d="M0.758 0.913 Q1.234 0.878 1.272 0.639" stroke="hsl(0.0,100%,35%)" stroke-width="0.00236"></path>
<path d="M0.758 0.913 Q0.877 0.728 0.544 0.630" stroke="hsl(0.0,100%,35%)" stroke-width="0.00118"></path>
<path d="M0.758 0.913 Q1.188 0.889 1.236 0.674" stroke="hsl(0.0,100%,35%)" stroke-width="0.00236"></path>
<path d="M0.758 0.913 Q1.270 0.898 1.354 0.645" stroke="hsl(0.0,100%,35%)" stroke-width="0.02359"></path>
<path d="M0.758 0.913 Q0.926 0.873 0.886 0.782" stroke="hsl(0.0,100%,35%)" stroke-width="0.00236"></path>
<path d="M0.758 0.913 Q0.729 0.912 0.721 0.927" stroke="hsl(0.0,100%,35%)" stroke-width="0.00472"></path>
<path d="M0.758 0.913 Q0.973 0.936 1.066 0.836" stroke="hsl(0.0,100%,35%)" stroke-width="0.00118"></path>
<path d="M0.758 0.913 Q1.038 0.924 1.122 0.790" stroke="hsl(0.0,100%,35%)" stroke-width="0.00118"></path>
<path d="M0.758 0.913 Q0.920 0.910 0.949 0.830" stroke="hsl(0.0,100%,35%)" stroke-width="0.00118"></path>
<path d="M0.758 0.913 Q1.368 0.697 1.082 0.352" stroke="hsl(0.0,100%,35%)" stroke-width="0.00118"></path>
<path d="M0.758 0.913 Q1.145 0.757 0.926 0.534" stroke="hsl(0.0,100%,35%)" stroke-width="0.00118"></path>
<path d="M0.758 0.913 Q1.646 0.715 1.456 0.239" stroke="hsl(0.0,100%,35%)" stroke-width="0.00236"></path>
<path d="M0.758 0.913 Q0.752 1.096 1.109 1.139" stroke="hsl(0.0,100%,35%)" stroke-width="0.00118"></path>
<path d="M0.758 0.913 Q0.807 0.938 0.867 0.919" stroke="hsl(0.0,100%,35%)" stroke-width="0.00118"></path>
<path d="M1.910 0.601 Q1.244 0.405 0.715 0.686" stroke="hsl(180.0,100%,35%)" stroke-width="0.00118"></path>
<path d="M1.910 0.601 Q1.349 0.501 1.031 0.752" stroke="hsl(180.0,100%,35%)" stroke-width="0.00118"></path>
<path d="M1.910 0.601 Q1.786 0.286 1.145 0.278" stroke="hsl(180.0,100%,35%)" stroke-width="0.00118"></path>
<path d="M1.008 0.837 Q1.088 0.799 1.031 0.752" stroke="hsl(0.0,100%,35%)" stroke-width="0.02595"></path>
<path d="M1.008 0.837 Q1.335 0.810 1.354 0.645" stroke="hsl(0.0,100%,35%)" stroke-width="0.01533"></path>
<path d="M1.008 0.837 Q0.823 0.825 0.758 0.913" stroke="hsl(0.0,100%,35%)" stroke-width="0.00590"></path>
<path d="M1.008 0.837 Q1.177 0.875 1.288 0.801" stroke="hsl(0.0,100%,35%)" stroke-width="0.02359"></path>
<path d="M1.008 0.837 Q1.007 0.909 1.146 0.925" stroke="hsl(0.0,100%,35%)" stroke-width="0.00118"></path>
<path d="M1.008 0.837 Q1.253 0.801 1.236 0.674" stroke="hsl(0.0,100%,35%)" stroke-width="0.00118"></path>
<path d="M1.008 0.837 Q1.119 0.967 1.396 0.942" stroke="hsl(0.0,100%,35%)" stroke-width="0.00472"></path>
<path d="M1.008 0.837 Q0.983 0.703 0.715 0.686" stroke="hsl(0.0,100%,35%)" stroke-width="0.00118"></path>
<path d="M1.008 0.837 Q0.973 0.920 1.127 0.955" stroke="hsl(0.0,100%,35%)" stroke-width="0.00118"></path>
<path d="M1.263 0.661 Q1.074 0.660 1.031 0.752" stroke="hsl(0.0,100%,35%)" stroke-width="0.00590"></path>
<path d="M1.263 0.661 Q1.322 0.671 1.354 0.645" stroke="hsl(0.0,100%,35%)" stroke-width="0.00236"></path>
<path d="M1.263 0.661 Q1.105 0.828 1.396 0.942" stroke="hsl(0.0,100%,35%)" stroke-width="0.00118"></path>
<path d="M1.263 0.661 Q1.239 0.662 1.236 0.674" stroke="hsl(0.0,100%,35%)" stroke-width="0.00118"></path>
<path d="M1.164 0.988 Q1.168 1.022 1.237 1.028" stroke="hsl(180.0,100%,35%)" stroke-width="0.00118"></path>
<path d="M1.164 0.988 Q1.204 1.024 1.285 1.012" stroke="hsl(180.0,100%,35%)" stroke-width="0.01179"></path>
<path d="M1.164 0.988 Q1.178 0.954 1.115 0.940" stroke="hsl(180.0,100%,35%)" stroke-width="0.00118"></path>
<path d="M1.164 0.988 Q1.316 1.011 1.396 0.942" stroke="hsl(180.0,100%,35%)" stroke-width="0.00118"></path>
<path d="M1.164 0.988 Q1.286 0.843 1.031 0.752" stroke="hsl(180.0,100%,35%)" stroke-width="0.00118"></path>
<path d="M1.164 0.988 Q1.180 0.747 0.715 0.686" stroke="hsl(180.0,100%,35%)" stroke-width="0.00236"></path>
<path d="M1.164 0.988 Q1.327 1.009 1.405 0.934" stroke="hsl(180.0,100%,35%)" stroke-width="0.00236"></path>
<path d="M1.164 0.988 Q1.150 0.962 1.098 0.963" stroke="hsl(180.0,100%,35%)" stroke-width="0.00236"></path>
<path d="M1.742 0.485 Q1.734 0.577 1.910 0.601" stroke="hsl(0.0,100%,35%)" stroke-width="0.00236"></path>
<path d="M1.742 0.485 Q1.420 0.487 1.354 0.645" stroke="hsl(0.0,100%,35%)" stroke-width="0.00118"></path>
<path d="M1.742 0.485 Q1.204 0.644 1.396 0.942" stroke="hsl(0.0,100%,35%)" stroke-width="0.00118"></path>
<path d="M0.722 0.594 Q0.780 0.903 1.396 0.942" stroke="hsl(180.0,100%,35%)" stroke-width="0.00118"></path>
<path d="M0.722 0.594 Q0.750 0.735 1.031 0.752" stroke="hsl(180.0,100%,35%)" stroke-width="0.00118"></path>
<path d="M0.722 0.594 Q1.373 0.563 1.456 0.239" stroke="hsl(180.0,100%,35%)" stroke-width="0.00118"></path>
<path d="M1.900 0.357 Q1.646 0.295 1.470 0.406" stroke="hsl(180.0,100%,35%)" stroke-width="0.00118"></path>
<path d="M1.900 0.357 Q1.765 0.324 1.671 0.382" stroke="hsl(180.0,100%,35%)" stroke-width="0.00118"></path>
<path d="M1.900 0.357 Q1.411 0.554 1.688 0.835" stroke="hsl(180.0,100%,35%)" stroke-width="0.00118"></path>
<path d="M1.900 0.357 Q1.984 0.325 1.940 0.277" stroke="hsl(180.0,100%,35%)" stroke-width="0.00118"></path>
<path d="M1.900 0.357 Q1.397 0.392 1.354 0.645" stroke="hsl(180.0,100%,35%)" stroke-width="0.00118"></path>
<path d="M1.101 0.190 Q0.647 0.625 1.396 0.942" stroke="hsl(180.0,100%,35%)" stroke-width="0.00118"></path>
<path d="M1.101 0.190 Q1.053 0.243 1.145 0.278" stroke="hsl(180.0,100%,35%)" stroke-width="0.00354"></path>
<path d="M1.101 0.190 Q0.781 0.459 1.236 0.674" stroke="hsl(180.0,100%,35%)" stroke-width="0.00118"></path>
<path d="M1.101 0.190 Q0.748 0.424 1.127 0.647" stroke="hsl(180.0,100%,35%)" stroke-width="0.00118"></path>
<path d="M1.101 0.190 Q1.032 0.099 0.839 0.112" stroke="hsl(180.0,100%,35%)" stroke-width="0.00118"></path>
<path d="M1.425 0.436 Q1.472 0.430 1.470 0.406" stroke="hsl(180.0,100%,35%)" stroke-width="0.00118"></path>
<path d="M1.425 0.436 Q1.223 0.526 1.354 0.645" stroke="hsl(180.0,100%,35%)" stroke-width="0.00118"></path>
<path d="M1.425 0.436 Q1.051 0.720 1.522 0.964" stroke="hsl(180.0,100%,35%)" stroke-width="0.00118"></path>
<path d="M1.522 0.964 Q1.477 0.928 1.396 0.942" stroke="hsl(180.0,100%,35%)" stroke-width="0.01651"></path>
<path d="M1.522 0.964 Q1.693 0.771 1.354 0.645" stroke="hsl(180.0,100%,35%)" stroke-width="0.00236"></path>
<path d="M1.522 0.964 Q1.882 0.546 1.145 0.278" stroke="hsl(180.0,100%,35%)" stroke-width="0.00118"></path>
<path d="M1.522 0.964 Q1.396 0.892 1.228 0.937" stroke="hsl(180.0,100%,35%)" stroke-width="0.00118"></path>
<path d="M1.522 0.964 Q1.839 0.887 1.759 0.716" stroke="hsl(180.0,100%,35%)" stroke-width="0.00118"></path>
<path d="M1.238 1.056 Q1.378 0.863 1.031 0.752" stroke="hsl(0.0,100%,35%)" stroke-width="0.00708"></path>
<path d="M1.238 1.056 Q1.298 0.901 1.008 0.837" stroke="hsl(0.0,100%,35%)" stroke-width="0.01769"></path>
<path d="M1.238 1.056 Q1.113 0.888 0.758 0.913" stroke="hsl(0.0,100%,35%)" stroke-width="0.01062"></path>
<path d="M0.345 0.540 Q0.232 0.510 0.150 0.558" stroke="hsl(180.0,100%,35%)" stroke-width="0.00118"></path>
<path d="M0.345 0.540 Q0.518 0.783 1.031 0.752" stroke="hsl(180.0,100%,35%)" stroke-width="0.00236"></path>
<path d="M0.345 0.540 Q0.396 0.927 1.164 0.988" stroke="hsl(180.0,100%,35%)" stroke-width="0.00118"></path>
<path d="M0.919 0.559 Q0.582 0.599 0.587 0.773" stroke="hsl(180.0,100%,35%)" stroke-width="0.00236"></path>
<path d="M0.919 0.559 Q0.739 0.859 1.285 1.012" stroke="hsl(180.0,100%,35%)" stroke-width="0.00236"></path>
<path d="M0.919 0.559 Q0.715 0.582 0.715 0.686" stroke="hsl(180.0,100%,35%)" stroke-width="0.00236"></path>
<path d="M0.919 0.559 Q1.068 0.689 1.354 0.645" stroke="hsl(180.0,100%,35%)" stroke-width="0.00236"></path>
<path d="M0.919 0.559 Q0.651 0.530 0.535 0.654" stroke="hsl(180.0,100%,35%)" stroke-width="0.00118"></path>
<path d="M1.937 0.518 Q1.216 0.635 1.285 1.012" stroke="hsl(180.0,100%,35%)" stroke-width="0.00118"></path>
<path d="M1.937 0.518 Q1.858 0.554 1.910 0.601" stroke="hsl(180.0,100%,35%)" stroke-width="0.00236"></path>
<path d="M1.937 0.518 Q1.544 0.465 1.354 0.645" stroke="hsl(180.0,100%,35%)" stroke-width="0.00118"></path>
<path d="M1.579 0.652 Q1.473 0.603 1.354 0.645" stroke="hsl(0.0,100%,35%)" stroke-width="0.00236"></path>
<path d="M1.579 0.652 Q1.146 0.631 1.008 0.837" stroke="hsl(0.0,100%,35%)" stroke-width="0.00118"></path>
<path d="M1.579 0.652 Q1.256 0.760 1.396 0.942" stroke="hsl(0.0,100%,35%)" stroke-width="0.00118"></path>
<path d="M1.793 0.242 Q1.929 0.182 1.843 0.103" stroke="hsl(180.0,100%,35%)" stroke-width="0.00354"></path>
<path d="M1.793 0.242 Q1.739 0.170 1.589 0.181" stroke="hsl(180.0,100%,35%)" stroke-width="0.00118"></path>
<path d="M1.793 0.242 Q0.977 0.327 0.965 0.744" stroke="hsl(180.0,100%,35%)" stroke-width="0.00118"></path>
<path d="M1.793 0.242 Q1.695 0.146 1.488 0.173" stroke="hsl(180.0,100%,35%)" stroke-width="0.00118"></path>
<path d="M1.793 0.242 Q1.627 0.173 1.456 0.239" stroke="hsl(180.0,100%,35%)" stroke-width="0.00236"></path>
<path d="M1.793 0.242 Q0.881 0.489 1.164 0.988" stroke="hsl(180.0,100%,35%)" stroke-width="0.00236"></path>
<path d="M1.793 0.242 Q1.713 0.216 1.645 0.249" stroke="hsl(180.0,100%,35%)" stroke-width="0.00236"></path>
<path d="M1.793 0.242 Q1.822 0.145 1.640 0.110" stroke="hsl(180.0,100%,35%)" stroke-width="0.00118"></path>
<path d="M0.700 0.565 Q0.716 0.725 1.031 0.752" stroke="hsl(180.0,100%,35%)" stroke-width="0.00354"></path>
<path d="M0.700 0.565 Q0.611 0.629 0.715 0.686" stroke="hsl(180.0,100%,35%)" stroke-width="0.00354"></path>
<path d="M0.700 0.565 Q0.546 0.576 0.535 0.654" stroke="hsl(180.0,100%,35%)" stroke-width="0.00118"></path>
<path d="M0.799 0.611 Q0.802 0.728 1.031 0.752" stroke="hsl(0.0,100%,35%)" stroke-width="0.01887"></path>
<path d="M0.799 0.611 Q0.697 0.632 0.715 0.686" stroke="hsl(0.0,100%,35%)" stroke-width="0.00118"></path>
<path d="M0.799 0.611 Q0.630 0.652 0.673 0.744" stroke="hsl(0.0,100%,35%)" stroke-width="0.00236"></path>
<path d="M0.799 0.611 Q1.154 0.716 1.437 0.566" stroke="hsl(0.0,100%,35%)" stroke-width="0.00118"></path>
<path d="M0.799 0.611 Q0.833 0.896 1.396 0.942" stroke="hsl(0.0,100%,35%)" stroke-width="0.00118"></path>
<path d="M0.799 0.611 Q1.050 0.739 1.354 0.645" stroke="hsl(0.0,100%,35%)" stroke-width="0.00118"></path>
<path d="M1.188 0.489 Q1.146 0.600 1.354 0.645" stroke="hsl(0.0,100%,35%)" stroke-width="0.00354"></path>
<path d="M1.188 0.489 Q0.929 0.757 1.396 0.942" stroke="hsl(0.0,100%,35%)" stroke-width="0.00236"></path>
<path d="M1.188 0.489 Q0.899 0.589 1.031 0.752" stroke="hsl(0.0,100%,35%)" stroke-width="0.00118"></path>
<path d="M0.772 0.426 Q0.641 0.641 1.031 0.752" stroke="hsl(180.0,100%,35%)" stroke-width="0.00118"></path>
<path d="M0.772 0.426 Q0.671 0.809 1.396 0.942" stroke="hsl(180.0,100%,35%)" stroke-width="0.00118"></path>
<path d="M0.772 0.426 Q0.559 0.822 1.285 1.012" stroke="hsl(180.0,100%,35%)" stroke-width="0.00118"></path>
<path d="M0.772 0.426 Q0.888 0.652 1.354 0.645" stroke="hsl(180.0,100%,35%)" stroke-width="0.00118"></path>
</g>
<text x="0.585" y="0.477" font-size="0.012082" fill="hsl(0.0,100%,20%)">ajuma</text>
<text x="0.844" y="0.470" font-size="0.008544" fill="hsl(0.0,100%,20%)">gab</text>
<text x="1.031" y="0.707" font-size="0.089606" fill="hsl(0.0,100%,20%)">bartekn</text>
<text x="1.288" y="0.771" font-size="0.060210" fill="hsl(0.0,100%,20%)">yukishiino</text>
<text x="0.587" y="0.760" font-size="0.025152" fill="hsl(0.0,100%,20%)">arthursonzogni</text>
<text x="1.198" y="0.752" font-size="0.035570" fill="hsl(0.0,100%,20%)">keishi</text>
<text x="0.535" y="0.643" font-size="0.022059" fill="hsl(0.0,100%,20%)">glazunov</text>
<text x="1.396" y="0.916" font-size="0.052435" fill="hsl(0.0,100%,20%)">lizeb</text>
<text x="1.354" y="0.623" font-size="0.043284" fill="hsl(0.0,100%,20%)">haraken</text>
<text x="0.838" y="0.366" font-size="0.017087" fill="hsl(180.0,100%,20%)">avi</text>
<text x="0.715" y="0.675" font-size="0.023136" fill="hsl(180.0,100%,20%)">dcheng</text>
<text x="1.066" y="0.590" font-size="0.012082" fill="hsl(180.0,100%,20%)">mark</text>
<text x="0.576" y="0.304" font-size="0.004933" fill="hsl(0.0,100%,20%)">tedchoc</text>
<text x="1.688" y="0.830" font-size="0.009865" fill="hsl(180.0,100%,20%)">rsesek</text>
<text x="0.723" y="0.270" font-size="0.004933" fill="hsl(180.0,100%,20%)">vovoy</text>
<text x="0.545" y="0.371" font-size="0.004933" fill="hsl(0.0,100%,20%)">garykac</text>
<text x="0.699" y="0.431" font-size="0.004933" fill="hsl(0.0,100%,20%)">khorimoto</text>
<text x="0.930" y="0.294" font-size="0.004933" fill="hsl(180.0,100%,20%)">mbonadei</text>
<text x="0.289" y="0.222" font-size="0.006976" fill="hsl(180.0,100%,20%)">rohitrao</text>
<text x="1.285" y="1.001" font-size="0.023136" fill="hsl(180.0,100%,20%)">danakj</text>
<text x="0.758" y="0.869" font-size="0.086848" fill="hsl(0.0,100%,20%)">kdlee</text>
<text x="1.122" y="0.785" font-size="0.009865" fill="hsl(0.0,100%,20%)">altimin</text>
<text x="1.236" y="0.663" font-size="0.023136" fill="hsl(0.0,100%,20%)">bikineev</text>
<text x="1.910" y="0.594" font-size="0.013952" fill="hsl(180.0,100%,20%)">thestig</text>
<text x="0.721" y="0.921" font-size="0.012082" fill="hsl(0.0,100%,20%)">bgeffon</text>
<text x="0.670" y="0.548" font-size="0.004933" fill="hsl(0.0,100%,20%)">tsepez</text>
<text x="1.008" y="0.806" font-size="0.062588" fill="hsl(0.0,100%,20%)">tasak</text>
<text x="0.710" y="0.517" font-size="0.008544" fill="hsl(0.0,100%,20%)">gbeaty</text>
<text x="0.544" y="0.625" font-size="0.008544" fill="hsl(0.0,100%,20%)">jochen</text>
<text x="1.263" y="0.653" font-size="0.017087" fill="hsl(0.0,100%,20%)">richard.townsend</text>
<text x="1.456" y="0.233" font-size="0.012082" fill="hsl(180.0,100%,20%)">wfh</text>
<text x="0.820" y="0.648" font-size="0.004933" fill="hsl(0.0,100%,20%)">asully</text>
<text x="0.618" y="0.558" font-size="0.004933" fill="hsl(0.0,100%,20%)">hypan</text>
<text x="1.164" y="0.976" font-size="0.024165" fill="hsl(180.0,100%,20%)">pkasting</text>
<text x="1.585" y="0.982" font-size="0.004933" fill="hsl(180.0,100%,20%)">lukasza</text>
<text x="1.742" y="0.480" font-size="0.009865" fill="hsl(0.0,100%,20%)">dsanders11</text>
<text x="0.722" y="0.590" font-size="0.008544" fill="hsl(180.0,100%,20%)">floresa</text>
<text x="1.436" y="0.640" font-size="0.013051" fill="hsl(0.0,100%,20%)">mpdenton</text>
<text x="1.900" y="0.352" font-size="0.011030" fill="hsl(180.0,100%,20%)">guochengwei</text>
<text x="1.470" y="0.402" font-size="0.006976" fill="hsl(180.0,100%,20%)">kimstephanie</text>
<text x="1.671" y="0.380" font-size="0.004933" fill="hsl(180.0,100%,20%)">smaier</text>
<text x="1.940" y="0.274" font-size="0.004933" fill="hsl(180.0,100%,20%)">dnicoara</text>
<text x="1.101" y="0.183" font-size="0.013952" fill="hsl(180.0,100%,20%)">hans</text>
<text x="1.145" y="0.272" font-size="0.011030" fill="hsl(180.0,100%,20%)">thakis</text>
<text x="1.127" y="0.641" font-size="0.012082" fill="hsl(0.0,100%,20%)">mlippautz</text>
<text x="0.839" y="0.110" font-size="0.004933" fill="hsl(180.0,100%,20%)">aeubanks</text>
<text x="1.425" y="0.432" font-size="0.008544" fill="hsl(180.0,100%,20%)">hnakashima</text>
<text x="1.522" y="0.951" font-size="0.026101" fill="hsl(180.0,100%,20%)">thiabaud</text>
<text x="1.238" y="1.043" font-size="0.027017" fill="hsl(0.0,100%,20%)">honokaanada</text>
<text x="1.145" y="0.576" font-size="0.004933" fill="hsl(0.0,100%,20%)">danilchap</text>
<text x="1.716" y="0.774" font-size="0.009865" fill="hsl(180.0,100%,20%)">fdoray</text>
<text x="1.570" y="0.606" font-size="0.006976" fill="hsl(0.0,100%,20%)">sdefresne</text>
<text x="0.673" y="0.740" font-size="0.008544" fill="hsl(0.0,100%,20%)">leszeks</text>
<text x="0.965" y="0.740" font-size="0.008544" fill="hsl(0.0,100%,20%)">kylechar</text>
<text x="1.272" y="0.635" font-size="0.008544" fill="hsl(0.0,100%,20%)">tkent</text>
<text x="0.886" y="0.779" font-size="0.006976" fill="hsl(0.0,100%,20%)">metzman</text>
<text x="1.066" y="0.834" font-size="0.004933" fill="hsl(0.0,100%,20%)">etienneb</text>
<text x="0.949" y="0.828" font-size="0.004933" fill="hsl(0.0,100%,20%)">erikchen</text>
<text x="1.082" y="0.349" font-size="0.004933" fill="hsl(0.0,100%,20%)">ayui</text>
<text x="0.926" y="0.531" font-size="0.004933" fill="hsl(0.0,100%,20%)">primiano</text>
<text x="1.109" y="1.137" font-size="0.004933" fill="hsl(0.0,100%,20%)">wez</text>
<text x="0.867" y="0.917" font-size="0.004933" fill="hsl(0.0,100%,20%)">battre</text>
<text x="1.219" y="0.646" font-size="0.004933" fill="hsl(0.0,100%,20%)">ccameron</text>
<text x="1.141" y="0.557" font-size="0.004933" fill="hsl(0.0,100%,20%)">rakina</text>
<text x="1.369" y="0.606" font-size="0.004933" fill="hsl(0.0,100%,20%)">wrong</text>
<text x="1.437" y="0.561" font-size="0.009865" fill="hsl(0.0,100%,20%)">ssid</text>
<text x="0.345" y="0.535" font-size="0.009865" fill="hsl(180.0,100%,20%)">marshall</text>
<text x="0.150" y="0.556" font-size="0.004933" fill="hsl(180.0,100%,20%)">perrier</text>
<text x="0.919" y="0.552" font-size="0.014798" fill="hsl(180.0,100%,20%)">paulsemel</text>
<text x="1.937" y="0.513" font-size="0.009865" fill="hsl(180.0,100%,20%)">pbos</text>
<text x="1.237" y="1.025" font-size="0.004933" fill="hsl(180.0,100%,20%)">agrieve</text>
<text x="1.115" y="0.937" font-size="0.004933" fill="hsl(180.0,100%,20%)">wittman</text>
<text x="1.405" y="0.931" font-size="0.006976" fill="hsl(180.0,100%,20%)">nicolaso</text>
<text x="1.098" y="0.960" font-size="0.006976" fill="hsl(180.0,100%,20%)">behdadb</text>
<text x="1.579" y="0.647" font-size="0.009865" fill="hsl(0.0,100%,20%)">qitiezheng</text>
<text x="1.793" y="0.233" font-size="0.017785" fill="hsl(180.0,100%,20%)">rwkeane</text>
<text x="1.843" y="0.098" font-size="0.008544" fill="hsl(180.0,100%,20%)">ajgo</text>
<text x="1.589" y="0.179" font-size="0.004933" fill="hsl(180.0,100%,20%)">mfoltz</text>
<text x="1.488" y="0.171" font-size="0.004933" fill="hsl(180.0,100%,20%)">ddorwin</text>
<text x="1.645" y="0.245" font-size="0.006976" fill="hsl(180.0,100%,20%)">jshin</text>
<text x="1.640" y="0.107" font-size="0.004933" fill="hsl(180.0,100%,20%)">kmarshall</text>
<text x="0.700" y="0.559" font-size="0.013051" fill="hsl(180.0,100%,20%)">saelo</text>
<text x="0.799" y="0.600" font-size="0.023136" fill="hsl(0.0,100%,20%)">sroettger</text>
<text x="1.188" y="0.483" font-size="0.012082" fill="hsl(0.0,100%,20%)">stha09</text>
<text x="1.146" y="0.923" font-size="0.004933" fill="hsl(0.0,100%,20%)">tikuta</text>
<text x="1.127" y="0.953" font-size="0.004933" fill="hsl(0.0,100%,20%)">estaab</text>
<text x="1.228" y="0.935" font-size="0.004933" fill="hsl(0.0,100%,20%)">dgozman</text>
<text x="1.759" y="0.714" font-size="0.004933" fill="hsl(0.0,100%,20%)">jamiewalch</text>
<text x="0.772" y="0.421" font-size="0.009865" fill="hsl(180.0,100%,20%)">wangqing-hf</text>
<text x="1.482" y="-0.195" font-size="0.004933" fill="hsl(0.0,100%,20%)">joenotcharles</text>
<text x="1.533" y="0.805" font-size="0.004933" fill="hsl(0.0,100%,20%)">rockot</text>
<text x="1.518" y="0.588" font-size="0.004933" fill="hsl(0.0,100%,20%)">mamir</text>
<text x="1.664" y="0.671" font-size="0.004933" fill="hsl(0.0,100%,20%)">meacer</text>
<text x="1.775" y="0.585" font-size="0.004933" fill="hsl(0.0,100%,20%)">victortan</text>
</svg>
