<svg width="4000" height="2000" viewBox="-0.025 -0.025 2.05 1.05" xmlns="http://www.w3.org/2000/svg">
  <style>
    path {
      fill: none;
      stroke-linecap: round;
      stroke-opacity: 0.4;
    }

    text {
      text-anchor: middle;
      alignment-baseline: hanging;
    }
  </style>
  <g opacity="0.4">
<path d="M0.434 0.814 Q1.303 1.028 1.912 0.651" stroke="hsl(0.0,100%,35%)" stroke-width="0.02000"></path>
<path d="M0.434 0.814 Q0.616 0.937 0.895 0.875" stroke="hsl(0.0,100%,35%)" stroke-width="0.02000"></path>
<path d="M0.434 0.814 Q0.254 0.861 0.306 0.958" stroke="hsl(0.0,100%,35%)" stroke-width="0.02000"></path>
<path d="M1.328 0.472 Q1.242 0.555 1.384 0.615" stroke="hsl(180.0,100%,35%)" stroke-width="0.04000"></path>
<path d="M1.328 0.472 Q1.142 0.469 1.095 0.559" stroke="hsl(180.0,100%,35%)" stroke-width="0.02000"></path>
<path d="M1.328 0.472 Q1.447 0.546 1.617 0.504" stroke="hsl(180.0,100%,35%)" stroke-width="0.02000"></path>
<path d="M0.839 0.540 Q1.000 0.353 0.672 0.234" stroke="hsl(180.0,100%,35%)" stroke-width="0.02000"></path>
<path d="M0.839 0.540 Q1.058 0.483 0.995 0.364" stroke="hsl(180.0,100%,35%)" stroke-width="0.02000"></path>
<path d="M0.839 0.540 Q1.137 0.604 1.328 0.472" stroke="hsl(180.0,100%,35%)" stroke-width="0.02000"></path>
<path d="M1.892 0.423 Q1.720 0.541 1.912 0.651" stroke="hsl(0.0,100%,35%)" stroke-width="0.02000"></path>
<path d="M1.892 0.423 Q0.671 0.373 0.306 0.958" stroke="hsl(0.0,100%,35%)" stroke-width="0.02000"></path>
<path d="M1.892 0.423 Q1.712 0.268 1.370 0.322" stroke="hsl(0.0,100%,35%)" stroke-width="0.06000"></path>
<path d="M1.892 0.423 Q1.690 0.409 1.617 0.504" stroke="hsl(0.0,100%,35%)" stroke-width="0.04000"></path>
<path d="M0.158 0.501 Q0.885 0.794 1.617 0.504" stroke="hsl(0.0,100%,35%)" stroke-width="0.02000"></path>
<path d="M0.158 0.501 Q0.086 0.566 0.197 0.615" stroke="hsl(0.0,100%,35%)" stroke-width="0.02000"></path>
<path d="M0.158 0.501 Q0.190 0.646 0.480 0.662" stroke="hsl(0.0,100%,35%)" stroke-width="0.02000"></path>
</g>
<text x="0.434" y="0.787" font-size="0.054772" fill="hsl(0.0,100%,20%)">adarom</text>
<text x="1.912" y="0.628" font-size="0.044721" fill="hsl(0.0,100%,20%)">kdlee</text>
<text x="0.895" y="0.860" font-size="0.031623" fill="hsl(0.0,100%,20%)">yukishiino</text>
<text x="0.306" y="0.936" font-size="0.044721" fill="hsl(0.0,100%,20%)">tasak</text>
<text x="1.328" y="0.437" font-size="0.070711" fill="hsl(180.0,100%,20%)">dcheng</text>
<text x="1.384" y="0.592" font-size="0.044721" fill="hsl(180.0,100%,20%)">arthursonzogni</text>
<text x="1.095" y="0.544" font-size="0.031623" fill="hsl(180.0,100%,20%)">mlippautz</text>
<text x="1.617" y="0.473" font-size="0.063246" fill="hsl(0.0,100%,20%)">bartekn</text>
<text x="0.839" y="0.512" font-size="0.054772" fill="hsl(180.0,100%,20%)">jeffyoon</text>
<text x="0.672" y="0.218" font-size="0.031623" fill="hsl(180.0,100%,20%)">davidbienvenu</text>
<text x="0.995" y="0.348" font-size="0.031623" fill="hsl(180.0,100%,20%)">skyostil</text>
<text x="1.892" y="0.381" font-size="0.083666" fill="hsl(0.0,100%,20%)">mikt</text>
<text x="1.370" y="0.294" font-size="0.054772" fill="hsl(0.0,100%,20%)">keishi</text>
<text x="0.158" y="0.473" font-size="0.054772" fill="hsl(0.0,100%,20%)">thakis</text>
<text x="0.197" y="0.599" font-size="0.031623" fill="hsl(0.0,100%,20%)">hans</text>
<text x="0.480" y="0.647" font-size="0.031623" fill="hsl(0.0,100%,20%)">lukasza</text>
</svg>
