<svg width="4000" height="2000" viewBox="-0.025 -0.025 2.05 1.05" xmlns="http://www.w3.org/2000/svg">
  <style>
    path {
      fill: none;
      stroke-linecap: round;
      stroke-opacity: 0.4;
    }

    text {
      text-anchor: middle;
      alignment-baseline: hanging;
    }
  </style>
  <g opacity="0.4">
<path d="M0.667 0.699 Q1.022 0.721 1.145 0.553" stroke="hsl(0.0,100%,35%)" stroke-width="0.00122"></path>
<path d="M0.667 0.699 Q0.533 0.822 0.746 0.915" stroke="hsl(0.0,100%,35%)" stroke-width="0.00365"></path>
<path d="M0.667 0.699 Q1.346 0.820 1.733 0.515" stroke="hsl(0.0,100%,35%)" stroke-width="0.00122"></path>
<path d="M0.746 0.915 Q1.910 0.791 1.924 0.196" stroke="hsl(0.0,100%,35%)" stroke-width="0.00244"></path>
<path d="M0.746 0.915 Q0.848 0.797 0.640 0.721" stroke="hsl(0.0,100%,35%)" stroke-width="0.00365"></path>
<path d="M0.746 0.915 Q0.745 1.026 0.962 1.050" stroke="hsl(0.0,100%,35%)" stroke-width="0.00609"></path>
<path d="M0.746 0.915 Q0.919 0.793 0.719 0.682" stroke="hsl(0.0,100%,35%)" stroke-width="0.00122"></path>
<path d="M0.746 0.915 Q0.676 0.988 0.803 1.037" stroke="hsl(0.0,100%,35%)" stroke-width="0.00365"></path>
<path d="M0.746 0.915 Q1.643 0.810 1.636 0.349" stroke="hsl(0.0,100%,35%)" stroke-width="0.00731"></path>
<path d="M0.746 0.915 Q0.607 0.871 0.491 0.929" stroke="hsl(0.0,100%,35%)" stroke-width="0.00244"></path>
<path d="M0.746 0.915 Q0.958 0.897 0.970 0.789" stroke="hsl(0.0,100%,35%)" stroke-width="0.03532"></path>
<path d="M0.746 0.915 Q0.794 0.956 0.886 0.942" stroke="hsl(0.0,100%,35%)" stroke-width="0.00365"></path>
<path d="M0.746 0.915 Q0.647 0.931 0.658 0.983" stroke="hsl(0.0,100%,35%)" stroke-width="0.02071"></path>
<path d="M0.746 0.915 Q1.381 0.809 1.314 0.476" stroke="hsl(0.0,100%,35%)" stroke-width="0.00122"></path>
<path d="M0.746 0.915 Q1.151 0.896 1.204 0.694" stroke="hsl(0.0,100%,35%)" stroke-width="0.00244"></path>
<path d="M0.746 0.915 Q1.038 0.942 1.155 0.805" stroke="hsl(0.0,100%,35%)" stroke-width="0.01827"></path>
<path d="M0.746 0.915 Q0.871 0.742 0.562 0.643" stroke="hsl(0.0,100%,35%)" stroke-width="0.00365"></path>
<path d="M0.746 0.915 Q1.168 0.658 0.761 0.396" stroke="hsl(0.0,100%,35%)" stroke-width="0.00365"></path>
<path d="M0.746 0.915 Q1.564 1.011 1.932 0.634" stroke="hsl(0.0,100%,35%)" stroke-width="0.01096"></path>
<path d="M0.746 0.915 Q0.900 0.900 0.905 0.821" stroke="hsl(0.0,100%,35%)" stroke-width="0.00365"></path>
<path d="M0.746 0.915 Q0.988 1.016 1.238 0.920" stroke="hsl(0.0,100%,35%)" stroke-width="0.00244"></path>
<path d="M0.746 0.915 Q0.801 1.033 1.044 1.032" stroke="hsl(0.0,100%,35%)" stroke-width="0.00244"></path>
<path d="M0.746 0.915 Q1.350 0.493 0.659 0.106" stroke="hsl(0.0,100%,35%)" stroke-width="0.00122"></path>
<path d="M0.746 0.915 Q1.558 0.912 1.733 0.515" stroke="hsl(0.0,100%,35%)" stroke-width="0.00609"></path>
<path d="M0.746 0.915 Q0.879 0.791 0.667 0.699" stroke="hsl(0.0,100%,35%)" stroke-width="0.00122"></path>
<path d="M0.746 0.915 Q0.710 0.759 0.397 0.742" stroke="hsl(0.0,100%,35%)" stroke-width="0.00122"></path>
<path d="M0.746 0.915 Q0.712 0.820 0.520 0.816" stroke="hsl(0.0,100%,35%)" stroke-width="0.00122"></path>
<path d="M1.733 0.515 Q1.213 0.545 1.155 0.805" stroke="hsl(0.0,100%,35%)" stroke-width="0.00974"></path>
<path d="M1.733 0.515 Q1.584 0.447 1.419 0.505" stroke="hsl(0.0,100%,35%)" stroke-width="0.00122"></path>
<path d="M1.733 0.515 Q1.320 0.517 1.231 0.719" stroke="hsl(0.0,100%,35%)" stroke-width="0.00244"></path>
<path d="M1.733 0.515 Q1.132 0.500 0.970 0.789" stroke="hsl(0.0,100%,35%)" stroke-width="0.01218"></path>
<path d="M1.733 0.515 Q1.738 0.614 1.932 0.634" stroke="hsl(0.0,100%,35%)" stroke-width="0.02680"></path>
<path d="M1.733 0.515 Q1.817 0.413 1.636 0.349" stroke="hsl(0.0,100%,35%)" stroke-width="0.00974"></path>
<path d="M1.733 0.515 Q1.654 0.154 0.931 0.113" stroke="hsl(0.0,100%,35%)" stroke-width="0.00122"></path>
<path d="M1.733 0.515 Q0.920 0.629 0.962 1.050" stroke="hsl(0.0,100%,35%)" stroke-width="0.00122"></path>
<path d="M1.733 0.515 Q1.518 0.525 1.488 0.631" stroke="hsl(0.0,100%,35%)" stroke-width="0.00122"></path>
<path d="M1.733 0.515 Q1.738 0.402 1.518 0.375" stroke="hsl(0.0,100%,35%)" stroke-width="0.00122"></path>
<path d="M1.733 0.515 Q1.918 0.487 1.903 0.390" stroke="hsl(0.0,100%,35%)" stroke-width="0.00122"></path>
<path d="M1.733 0.515 Q1.934 0.478 1.905 0.371" stroke="hsl(0.0,100%,35%)" stroke-width="0.00122"></path>
<path d="M1.733 0.515 Q0.920 0.518 0.746 0.915" stroke="hsl(0.0,100%,35%)" stroke-width="0.01949"></path>
<path d="M1.733 0.515 Q1.887 0.444 1.781 0.352" stroke="hsl(0.0,100%,35%)" stroke-width="0.00122"></path>
<path d="M1.733 0.515 Q1.228 0.373 0.839 0.587" stroke="hsl(0.0,100%,35%)" stroke-width="0.00122"></path>
<path d="M0.491 0.929 Q1.794 0.849 1.924 0.196" stroke="hsl(0.0,100%,35%)" stroke-width="0.00122"></path>
<path d="M0.491 0.929 Q0.630 0.972 0.746 0.915" stroke="hsl(0.0,100%,35%)" stroke-width="0.01340"></path>
<path d="M0.491 0.929 Q0.755 0.800 0.562 0.643" stroke="hsl(0.0,100%,35%)" stroke-width="0.00244"></path>
<path d="M0.491 0.929 Q0.732 0.855 0.640 0.721" stroke="hsl(0.0,100%,35%)" stroke-width="0.00244"></path>
<path d="M0.491 0.929 Q0.923 0.999 1.155 0.805" stroke="hsl(0.0,100%,35%)" stroke-width="0.00122"></path>
<path d="M0.491 0.929 Q1.527 0.868 1.636 0.349" stroke="hsl(0.0,100%,35%)" stroke-width="0.00122"></path>
<path d="M1.924 0.196 Q0.760 0.319 0.746 0.915" stroke="hsl(180.0,100%,35%)" stroke-width="0.00122"></path>
<path d="M1.924 0.196 Q0.760 0.430 0.962 1.050" stroke="hsl(180.0,100%,35%)" stroke-width="0.00122"></path>
<path d="M1.924 0.196 Q1.812 0.133 1.665 0.174" stroke="hsl(180.0,100%,35%)" stroke-width="0.00122"></path>
<path d="M1.924 0.196 Q1.804 0.105 1.601 0.144" stroke="hsl(180.0,100%,35%)" stroke-width="0.00122"></path>
<path d="M0.562 0.643 Q0.437 0.816 0.746 0.915" stroke="hsl(0.0,100%,35%)" stroke-width="0.01218"></path>
<path d="M0.562 0.643 Q0.721 0.701 0.868 0.636" stroke="hsl(0.0,100%,35%)" stroke-width="0.00122"></path>
<path d="M0.562 0.643 Q0.299 0.772 0.491 0.929" stroke="hsl(0.0,100%,35%)" stroke-width="0.00122"></path>
<path d="M0.562 0.643 Q1.334 0.711 1.636 0.349" stroke="hsl(0.0,100%,35%)" stroke-width="0.00244"></path>
<path d="M0.562 0.643 Q0.859 0.559 0.761 0.396" stroke="hsl(0.0,100%,35%)" stroke-width="0.00122"></path>
<path d="M0.562 0.643 Q0.452 0.643 0.426 0.696" stroke="hsl(0.0,100%,35%)" stroke-width="0.00122"></path>
<path d="M0.562 0.643 Q0.621 0.546 0.443 0.495" stroke="hsl(0.0,100%,35%)" stroke-width="0.00122"></path>
<path d="M0.562 0.643 Q0.591 0.560 0.434 0.527" stroke="hsl(0.0,100%,35%)" stroke-width="0.00122"></path>
<path d="M0.562 0.643 Q0.649 0.798 0.970 0.789" stroke="hsl(0.0,100%,35%)" stroke-width="0.00122"></path>
<path d="M0.562 0.643 Q0.735 0.587 0.662 0.490" stroke="hsl(0.0,100%,35%)" stroke-width="0.00365"></path>
<path d="M0.562 0.643 Q0.730 0.843 1.155 0.805" stroke="hsl(0.0,100%,35%)" stroke-width="0.00365"></path>
<path d="M0.562 0.643 Q0.837 0.815 1.231 0.719" stroke="hsl(0.0,100%,35%)" stroke-width="0.00122"></path>
<path d="M0.562 0.643 Q0.437 0.927 0.962 1.050" stroke="hsl(0.0,100%,35%)" stroke-width="0.00122"></path>
<path d="M0.640 0.721 Q0.750 0.821 0.970 0.789" stroke="hsl(0.0,100%,35%)" stroke-width="0.00122"></path>
<path d="M0.640 0.721 Q0.663 0.667 0.562 0.643" stroke="hsl(0.0,100%,35%)" stroke-width="0.00244"></path>
<path d="M0.640 0.721 Q0.538 0.839 0.746 0.915" stroke="hsl(0.0,100%,35%)" stroke-width="0.00731"></path>
<path d="M0.640 0.721 Q0.938 0.838 1.231 0.719" stroke="hsl(0.0,100%,35%)" stroke-width="0.00122"></path>
<path d="M0.640 0.721 Q0.831 0.866 1.155 0.805" stroke="hsl(0.0,100%,35%)" stroke-width="0.00122"></path>
<path d="M1.155 0.805 Q0.862 0.778 0.746 0.915" stroke="hsl(0.0,100%,35%)" stroke-width="0.01827"></path>
<path d="M1.155 0.805 Q0.988 0.605 0.562 0.643" stroke="hsl(0.0,100%,35%)" stroke-width="0.00122"></path>
<path d="M1.155 0.805 Q1.675 0.775 1.733 0.515" stroke="hsl(0.0,100%,35%)" stroke-width="0.00609"></path>
<path d="M1.155 0.805 Q1.742 0.452 1.183 0.088" stroke="hsl(0.0,100%,35%)" stroke-width="0.00122"></path>
<path d="M1.155 0.805 Q0.965 0.660 0.640 0.721" stroke="hsl(0.0,100%,35%)" stroke-width="0.00122"></path>
<path d="M1.155 0.805 Q1.760 0.673 1.636 0.349" stroke="hsl(0.0,100%,35%)" stroke-width="0.00853"></path>
<path d="M1.155 0.805 Q1.314 0.789 1.317 0.708" stroke="hsl(0.0,100%,35%)" stroke-width="0.00974"></path>
<path d="M1.155 0.805 Q1.520 0.592 1.186 0.368" stroke="hsl(0.0,100%,35%)" stroke-width="0.00244"></path>
<path d="M0.867 0.264 Q0.286 0.676 0.962 1.050" stroke="hsl(180.0,100%,35%)" stroke-width="0.00122"></path>
<path d="M0.867 0.264 Q0.708 0.309 0.761 0.396" stroke="hsl(180.0,100%,35%)" stroke-width="0.00244"></path>
<path d="M0.867 0.264 Q0.579 0.592 1.155 0.805" stroke="hsl(180.0,100%,35%)" stroke-width="0.00122"></path>
<path d="M0.867 0.264 Q0.678 0.241 0.592 0.329" stroke="hsl(180.0,100%,35%)" stroke-width="0.00122"></path>
<path d="M0.867 0.264 Q0.943 0.380 1.186 0.368" stroke="hsl(180.0,100%,35%)" stroke-width="0.00122"></path>
<path d="M0.867 0.264 Q0.756 0.210 0.625 0.252" stroke="hsl(180.0,100%,35%)" stroke-width="0.00122"></path>
<path d="M0.867 0.264 Q0.835 0.312 0.922 0.338" stroke="hsl(180.0,100%,35%)" stroke-width="0.00122"></path>
<path d="M0.867 0.264 Q0.909 0.336 1.059 0.331" stroke="hsl(180.0,100%,35%)" stroke-width="0.00122"></path>
<path d="M0.867 0.264 Q0.856 0.201 0.731 0.193" stroke="hsl(180.0,100%,35%)" stroke-width="0.00122"></path>
<path d="M0.867 0.264 Q1.020 0.201 0.931 0.113" stroke="hsl(180.0,100%,35%)" stroke-width="0.00122"></path>
<path d="M0.867 0.264 Q1.450 0.441 1.924 0.196" stroke="hsl(180.0,100%,35%)" stroke-width="0.00122"></path>
<path d="M0.719 0.682 Q0.408 0.760 0.491 0.929" stroke="hsl(180.0,100%,35%)" stroke-width="0.00244"></path>
<path d="M0.719 0.682 Q1.711 0.680 1.924 0.196" stroke="hsl(180.0,100%,35%)" stroke-width="0.00244"></path>
<path d="M0.719 0.682 Q0.546 0.915 0.962 1.050" stroke="hsl(180.0,100%,35%)" stroke-width="0.00244"></path>
<path d="M0.719 0.682 Q1.444 0.699 1.636 0.349" stroke="hsl(180.0,100%,35%)" stroke-width="0.00244"></path>
<path d="M0.719 0.682 Q0.649 0.686 0.640 0.721" stroke="hsl(180.0,100%,35%)" stroke-width="0.00122"></path>
<path d="M0.970 0.789 Q0.757 0.807 0.746 0.915" stroke="hsl(0.0,100%,35%)" stroke-width="0.10231"></path>
<path d="M0.970 0.789 Q0.882 0.635 0.562 0.643" stroke="hsl(0.0,100%,35%)" stroke-width="0.02192"></path>
<path d="M0.970 0.789 Q1.575 0.904 1.932 0.634" stroke="hsl(0.0,100%,35%)" stroke-width="0.05359"></path>
<path d="M0.970 0.789 Q1.172 0.739 1.120 0.630" stroke="hsl(0.0,100%,35%)" stroke-width="0.00122"></path>
<path d="M0.970 0.789 Q1.637 0.481 1.183 0.088" stroke="hsl(0.0,100%,35%)" stroke-width="0.00244"></path>
<path d="M0.970 0.789 Q1.922 0.683 1.924 0.196" stroke="hsl(0.0,100%,35%)" stroke-width="0.00365"></path>
<path d="M0.970 0.789 Q1.246 0.706 1.145 0.553" stroke="hsl(0.0,100%,35%)" stroke-width="0.00244"></path>
<path d="M0.970 0.789 Q1.725 0.733 1.781 0.352" stroke="hsl(0.0,100%,35%)" stroke-width="0.00122"></path>
<path d="M0.970 0.789 Q0.859 0.689 0.640 0.721" stroke="hsl(0.0,100%,35%)" stroke-width="0.00122"></path>
<path d="M0.970 0.789 Q0.813 0.943 1.078 1.053" stroke="hsl(0.0,100%,35%)" stroke-width="0.00122"></path>
<path d="M0.970 0.789 Q1.944 0.578 1.746 0.057" stroke="hsl(0.0,100%,35%)" stroke-width="0.00122"></path>
<path d="M0.970 0.789 Q1.157 0.806 1.231 0.719" stroke="hsl(0.0,100%,35%)" stroke-width="0.00365"></path>
<path d="M0.970 0.789 Q1.050 0.834 1.155 0.805" stroke="hsl(0.0,100%,35%)" stroke-width="0.00609"></path>
<path d="M0.970 0.789 Q1.570 0.805 1.733 0.515" stroke="hsl(0.0,100%,35%)" stroke-width="0.04263"></path>
<path d="M0.970 0.789 Q0.757 0.918 0.962 1.050" stroke="hsl(0.0,100%,35%)" stroke-width="0.00487"></path>
<path d="M0.970 0.789 Q1.299 0.696 1.190 0.515" stroke="hsl(0.0,100%,35%)" stroke-width="0.00244"></path>
<path d="M0.970 0.789 Q1.065 0.662 0.839 0.587" stroke="hsl(0.0,100%,35%)" stroke-width="0.00487"></path>
<path d="M0.970 0.789 Q1.041 0.692 0.868 0.636" stroke="hsl(0.0,100%,35%)" stroke-width="0.00244"></path>
<path d="M0.970 0.789 Q1.000 0.908 1.238 0.920" stroke="hsl(0.0,100%,35%)" stroke-width="0.00122"></path>
<path d="M0.970 0.789 Q0.659 0.823 0.658 0.983" stroke="hsl(0.0,100%,35%)" stroke-width="0.00244"></path>
<path d="M0.970 0.789 Q1.654 0.702 1.636 0.349" stroke="hsl(0.0,100%,35%)" stroke-width="0.02436"></path>
<path d="M0.970 0.789 Q1.176 0.697 1.043 0.576" stroke="hsl(0.0,100%,35%)" stroke-width="0.00244"></path>
<path d="M0.970 0.789 Q1.163 0.788 1.204 0.694" stroke="hsl(0.0,100%,35%)" stroke-width="0.00487"></path>
<path d="M0.970 0.789 Q1.432 0.831 1.615 0.614" stroke="hsl(0.0,100%,35%)" stroke-width="0.00122"></path>
<path d="M0.970 0.789 Q0.805 0.849 0.886 0.942" stroke="hsl(0.0,100%,35%)" stroke-width="0.00122"></path>
<path d="M0.970 0.789 Q1.003 0.687 0.812 0.649" stroke="hsl(0.0,100%,35%)" stroke-width="0.00122"></path>
<path d="M0.970 0.789 Q1.078 0.642 0.814 0.557" stroke="hsl(0.0,100%,35%)" stroke-width="0.00122"></path>
<path d="M0.970 0.789 Q1.025 0.711 0.885 0.667" stroke="hsl(0.0,100%,35%)" stroke-width="0.00122"></path>
<path d="M0.970 0.789 Q1.361 0.385 0.659 0.106" stroke="hsl(0.0,100%,35%)" stroke-width="0.00244"></path>
<path d="M0.970 0.789 Q1.125 0.710 1.005 0.616" stroke="hsl(0.0,100%,35%)" stroke-width="0.00122"></path>
<path d="M1.314 0.476 Q0.679 0.693 0.962 1.050" stroke="hsl(0.0,100%,35%)" stroke-width="0.00122"></path>
<path d="M1.314 0.476 Q0.679 0.582 0.746 0.915" stroke="hsl(0.0,100%,35%)" stroke-width="0.00122"></path>
<path d="M1.314 0.476 Q1.787 0.311 1.569 0.044" stroke="hsl(0.0,100%,35%)" stroke-width="0.00122"></path>
<path d="M1.932 0.634 Q0.976 0.493 0.491 0.929" stroke="hsl(0.0,100%,35%)" stroke-width="0.00122"></path>
<path d="M1.932 0.634 Q1.114 0.537 0.746 0.915" stroke="hsl(0.0,100%,35%)" stroke-width="0.02923"></path>
<path d="M1.932 0.634 Q1.114 0.648 0.962 1.050" stroke="hsl(0.0,100%,35%)" stroke-width="0.00244"></path>
<path d="M1.932 0.634 Q1.789 0.561 1.615 0.614" stroke="hsl(0.0,100%,35%)" stroke-width="0.00122"></path>
<path d="M1.932 0.634 Q2.011 0.432 1.636 0.349" stroke="hsl(0.0,100%,35%)" stroke-width="0.01583"></path>
<path d="M1.932 0.634 Q1.326 0.519 0.970 0.789" stroke="hsl(0.0,100%,35%)" stroke-width="0.00609"></path>
<path d="M1.932 0.634 Q1.927 0.535 1.733 0.515" stroke="hsl(0.0,100%,35%)" stroke-width="0.02314"></path>
<path d="M1.932 0.634 Q1.871 0.569 1.731 0.584" stroke="hsl(0.0,100%,35%)" stroke-width="0.00122"></path>
<path d="M1.932 0.634 Q1.016 0.553 0.658 0.983" stroke="hsl(0.0,100%,35%)" stroke-width="0.00122"></path>
<path d="M1.932 0.634 Q1.407 0.564 1.155 0.805" stroke="hsl(0.0,100%,35%)" stroke-width="0.00487"></path>
<path d="M1.932 0.634 Q1.772 0.651 1.771 0.733" stroke="hsl(0.0,100%,35%)" stroke-width="0.00122"></path>
<path d="M1.044 1.032 Q1.281 0.940 1.155 0.805" stroke="hsl(0.0,100%,35%)" stroke-width="0.00244"></path>
<path d="M1.044 1.032 Q0.988 0.913 0.746 0.915" stroke="hsl(0.0,100%,35%)" stroke-width="0.00609"></path>
<path d="M1.044 1.032 Q1.886 0.809 1.636 0.349" stroke="hsl(0.0,100%,35%)" stroke-width="0.00244"></path>
<path d="M1.044 1.032 Q0.890 0.930 0.658 0.983" stroke="hsl(0.0,100%,35%)" stroke-width="0.00122"></path>
<path d="M1.665 0.174 Q1.543 0.135 1.440 0.186" stroke="hsl(180.0,100%,35%)" stroke-width="0.00122"></path>
<path d="M1.665 0.174 Q1.778 0.237 1.924 0.196" stroke="hsl(180.0,100%,35%)" stroke-width="0.01218"></path>
<path d="M1.665 0.174 Q1.628 0.117 1.508 0.123" stroke="hsl(180.0,100%,35%)" stroke-width="0.00122"></path>
<path d="M1.665 0.174 Q0.906 0.388 1.155 0.805" stroke="hsl(180.0,100%,35%)" stroke-width="0.00122"></path>
<path d="M1.665 0.174 Q0.613 0.361 0.746 0.915" stroke="hsl(180.0,100%,35%)" stroke-width="0.00122"></path>
<path d="M1.665 0.174 Q0.613 0.472 0.962 1.050" stroke="hsl(180.0,100%,35%)" stroke-width="0.00244"></path>
<path d="M1.665 0.174 Q1.692 0.105 1.562 0.076" stroke="hsl(180.0,100%,35%)" stroke-width="0.00244"></path>
<path d="M1.665 0.174 Q1.592 0.167 1.562 0.201" stroke="hsl(180.0,100%,35%)" stroke-width="0.00244"></path>
<path d="M1.083 0.444 Q1.173 0.506 1.314 0.476" stroke="hsl(0.0,100%,35%)" stroke-width="0.00244"></path>
<path d="M1.083 0.444 Q1.435 0.507 1.636 0.349" stroke="hsl(0.0,100%,35%)" stroke-width="0.00122"></path>
<path d="M1.083 0.444 Q0.831 0.639 1.155 0.805" stroke="hsl(0.0,100%,35%)" stroke-width="0.00122"></path>
<path d="M1.357 0.812 Q1.262 0.768 1.155 0.805" stroke="hsl(180.0,100%,35%)" stroke-width="0.00122"></path>
<path d="M1.357 0.812 Q0.969 0.741 0.746 0.915" stroke="hsl(180.0,100%,35%)" stroke-width="0.00122"></path>
<path d="M1.357 0.812 Q1.573 0.319 0.659 0.106" stroke="hsl(180.0,100%,35%)" stroke-width="0.00122"></path>
<path d="M0.118 0.272 Q0.019 0.315 0.080 0.372" stroke="hsl(0.0,100%,35%)" stroke-width="0.00122"></path>
<path d="M0.118 0.272 Q0.130 0.356 0.295 0.368" stroke="hsl(0.0,100%,35%)" stroke-width="0.00122"></path>
<path d="M0.118 0.272 Q0.575 0.534 1.186 0.368" stroke="hsl(0.0,100%,35%)" stroke-width="0.00122"></path>
<path d="M0.118 0.272 Q0.244 0.257 0.241 0.192" stroke="hsl(0.0,100%,35%)" stroke-width="0.00122"></path>
<path d="M0.118 0.272 Q0.815 0.614 1.636 0.349" stroke="hsl(0.0,100%,35%)" stroke-width="0.00122"></path>
<path d="M1.746 0.057 Q0.853 0.312 1.155 0.805" stroke="hsl(0.0,100%,35%)" stroke-width="0.00122"></path>
<path d="M1.746 0.057 Q1.668 0.015 1.569 0.044" stroke="hsl(0.0,100%,35%)" stroke-width="0.00365"></path>
<path d="M1.746 0.057 Q0.461 0.302 0.658 0.983" stroke="hsl(0.0,100%,35%)" stroke-width="0.00122"></path>
<path d="M1.746 0.057 Q0.868 0.141 0.839 0.587" stroke="hsl(0.0,100%,35%)" stroke-width="0.00122"></path>
<path d="M1.746 0.057 Q1.775 0.097 1.859 0.092" stroke="hsl(0.0,100%,35%)" stroke-width="0.00122"></path>
<path d="M0.286 0.475 Q0.266 0.383 0.080 0.372" stroke="hsl(0.0,100%,35%)" stroke-width="0.00122"></path>
<path d="M0.286 0.475 Q1.062 0.682 1.636 0.349" stroke="hsl(0.0,100%,35%)" stroke-width="0.00122"></path>
<path d="M0.286 0.475 Q0.616 0.798 1.317 0.708" stroke="hsl(0.0,100%,35%)" stroke-width="0.00122"></path>
<path d="M1.952 0.758 Q1.223 0.595 0.746 0.915" stroke="hsl(0.0,100%,35%)" stroke-width="0.00731"></path>
<path d="M1.952 0.758 Q2.041 0.692 1.932 0.634" stroke="hsl(0.0,100%,35%)" stroke-width="0.01827"></path>
<path d="M1.952 0.758 Q1.436 0.577 0.970 0.789" stroke="hsl(0.0,100%,35%)" stroke-width="0.01096"></path>
<path d="M0.511 0.953 Q0.498 0.940 0.469 0.943" stroke="hsl(0.0,100%,35%)" stroke-width="0.00122"></path>
<path d="M0.511 0.953 Q0.659 0.981 0.746 0.915" stroke="hsl(0.0,100%,35%)" stroke-width="0.00244"></path>
<path d="M0.511 0.953 Q1.711 0.795 1.665 0.174" stroke="hsl(0.0,100%,35%)" stroke-width="0.00122"></path>
<path d="M1.399 0.561 Q1.954 0.484 1.924 0.196" stroke="hsl(0.0,100%,35%)" stroke-width="0.00122"></path>
<path d="M1.399 0.561 Q1.425 0.502 1.314 0.476" stroke="hsl(0.0,100%,35%)" stroke-width="0.00244"></path>
<path d="M1.399 0.561 Q1.687 0.503 1.636 0.349" stroke="hsl(0.0,100%,35%)" stroke-width="0.00122"></path>
<path d="M1.379 0.313 Q1.478 0.382 1.636 0.349" stroke="hsl(0.0,100%,35%)" stroke-width="0.00244"></path>
<path d="M1.379 0.313 Q1.399 0.584 1.932 0.634" stroke="hsl(0.0,100%,35%)" stroke-width="0.00122"></path>
<path d="M1.379 0.313 Q0.874 0.514 1.155 0.805" stroke="hsl(0.0,100%,35%)" stroke-width="0.00122"></path>
<path d="M0.460 0.046 Q0.400 0.028 0.351 0.053" stroke="hsl(180.0,100%,35%)" stroke-width="0.00365"></path>
<path d="M0.460 0.046 Q0.342 0.011 0.248 0.061" stroke="hsl(180.0,100%,35%)" stroke-width="0.00122"></path>
<path d="M0.460 0.046 Q0.450 0.426 1.190 0.515" stroke="hsl(180.0,100%,35%)" stroke-width="0.00122"></path>
<path d="M0.460 0.046 Q0.391 0.043 0.372 0.077" stroke="hsl(180.0,100%,35%)" stroke-width="0.00122"></path>
<path d="M0.460 0.046 Q0.512 0.115 0.659 0.106" stroke="hsl(180.0,100%,35%)" stroke-width="0.00244"></path>
<path d="M0.460 0.046 Q0.960 0.351 1.665 0.174" stroke="hsl(180.0,100%,35%)" stroke-width="0.00244"></path>
<path d="M0.460 0.046 Q0.365 0.114 0.477 0.175" stroke="hsl(180.0,100%,35%)" stroke-width="0.00244"></path>
<path d="M0.460 0.046 Q0.613 0.119 0.790 0.060" stroke="hsl(180.0,100%,35%)" stroke-width="0.00122"></path>
<path d="M1.095 0.915 Q0.920 0.845 0.746 0.915" stroke="hsl(180.0,100%,35%)" stroke-width="0.00365"></path>
<path d="M1.095 0.915 Q0.920 0.956 0.962 1.050" stroke="hsl(180.0,100%,35%)" stroke-width="0.00365"></path>
<path d="M1.095 0.915 Q1.023 0.727 0.640 0.721" stroke="hsl(180.0,100%,35%)" stroke-width="0.00122"></path>
<path d="M0.945 0.815 Q0.766 0.825 0.746 0.915" stroke="hsl(0.0,100%,35%)" stroke-width="0.01949"></path>
<path d="M0.945 0.815 Q0.765 0.936 0.962 1.050" stroke="hsl(0.0,100%,35%)" stroke-width="0.00122"></path>
<path d="M0.945 0.815 Q0.821 0.961 1.078 1.053" stroke="hsl(0.0,100%,35%)" stroke-width="0.00244"></path>
<path d="M0.945 0.815 Q1.063 0.596 0.662 0.490" stroke="hsl(0.0,100%,35%)" stroke-width="0.00122"></path>
<path d="M0.945 0.815 Q1.059 0.852 1.155 0.805" stroke="hsl(0.0,100%,35%)" stroke-width="0.00122"></path>
<path d="M0.945 0.815 Q1.663 0.720 1.636 0.349" stroke="hsl(0.0,100%,35%)" stroke-width="0.00122"></path>
<path d="M1.410 0.350 Q1.523 0.395 1.636 0.349" stroke="hsl(0.0,100%,35%)" stroke-width="0.00244"></path>
<path d="M1.410 0.350 Q0.919 0.527 1.155 0.805" stroke="hsl(0.0,100%,35%)" stroke-width="0.00244"></path>
<path d="M1.410 0.350 Q0.626 0.500 0.746 0.915" stroke="hsl(0.0,100%,35%)" stroke-width="0.00122"></path>
<path d="M1.195 0.234 Q0.848 0.228 0.761 0.396" stroke="hsl(180.0,100%,35%)" stroke-width="0.00122"></path>
<path d="M1.195 0.234 Q1.306 0.159 1.183 0.088" stroke="hsl(180.0,100%,35%)" stroke-width="0.00244"></path>
<path d="M1.195 0.234 Q1.186 0.169 1.057 0.160" stroke="hsl(180.0,100%,35%)" stroke-width="0.00122"></path>
<path d="M1.195 0.234 Q1.312 0.204 1.280 0.140" stroke="hsl(180.0,100%,35%)" stroke-width="0.00122"></path>
<path d="M0.701 1.045 Q0.827 0.988 0.746 0.915" stroke="hsl(180.0,100%,35%)" stroke-width="0.00122"></path>
<path d="M0.701 1.045 Q1.120 1.015 1.155 0.805" stroke="hsl(180.0,100%,35%)" stroke-width="0.00122"></path>
<path d="M0.701 1.045 Q1.992 0.865 1.924 0.196" stroke="hsl(180.0,100%,35%)" stroke-width="0.00122"></path>
<path d="M0.701 1.045 Q1.725 0.884 1.636 0.349" stroke="hsl(180.0,100%,35%)" stroke-width="0.00122"></path>
</g>
<text x="0.667" y="0.692" font-size="0.012278" fill="hsl(0.0,100%,20%)">ajuma</text>
<text x="1.145" y="0.549" font-size="0.008682" fill="hsl(0.0,100%,20%)">gab</text>
<text x="0.746" y="0.869" font-size="0.090643" fill="hsl(0.0,100%,20%)">bartekn</text>
<text x="1.733" y="0.486" font-size="0.059309" fill="hsl(0.0,100%,20%)">yukishiino</text>
<text x="0.491" y="0.916" font-size="0.024556" fill="hsl(0.0,100%,20%)">arthursonzogni</text>
<text x="1.924" y="0.183" font-size="0.025063" fill="hsl(180.0,100%,20%)">danakj</text>
<text x="0.562" y="0.625" font-size="0.036492" fill="hsl(0.0,100%,20%)">keishi</text>
<text x="0.640" y="0.710" font-size="0.022417" fill="hsl(0.0,100%,20%)">glazunov</text>
<text x="1.155" y="0.781" font-size="0.047288" fill="hsl(0.0,100%,20%)">lizeb</text>
<text x="1.636" y="0.328" font-size="0.042236" fill="hsl(0.0,100%,20%)">haraken</text>
<text x="0.867" y="0.255" font-size="0.017364" fill="hsl(180.0,100%,20%)">avi</text>
<text x="0.962" y="1.038" font-size="0.024556" fill="hsl(180.0,100%,20%)">dcheng</text>
<text x="0.761" y="0.389" font-size="0.013262" fill="hsl(180.0,100%,20%)">mark</text>
<text x="0.592" y="0.326" font-size="0.005013" fill="hsl(180.0,100%,20%)">tedchoc</text>
<text x="1.186" y="0.363" font-size="0.010025" fill="hsl(0.0,100%,20%)">rsesek</text>
<text x="0.625" y="0.250" font-size="0.005013" fill="hsl(180.0,100%,20%)">vovoy</text>
<text x="0.922" y="0.335" font-size="0.005013" fill="hsl(180.0,100%,20%)">garykac</text>
<text x="1.059" y="0.329" font-size="0.005013" fill="hsl(180.0,100%,20%)">khorimoto</text>
<text x="0.731" y="0.190" font-size="0.005013" fill="hsl(180.0,100%,20%)">mbonadei</text>
<text x="0.931" y="0.110" font-size="0.007089" fill="hsl(180.0,100%,20%)">rohitrao</text>
<text x="0.719" y="0.674" font-size="0.015851" fill="hsl(180.0,100%,20%)">paulsemel</text>
<text x="0.803" y="1.033" font-size="0.008682" fill="hsl(0.0,100%,20%)">tsepez</text>
<text x="0.970" y="0.745" font-size="0.087540" fill="hsl(0.0,100%,20%)">kdlee</text>
<text x="0.886" y="0.937" font-size="0.010025" fill="hsl(0.0,100%,20%)">altimin</text>
<text x="0.658" y="0.971" font-size="0.023511" fill="hsl(0.0,100%,20%)">bikineev</text>
<text x="1.314" y="0.469" font-size="0.014178" fill="hsl(0.0,100%,20%)">thestig</text>
<text x="1.204" y="0.688" font-size="0.012278" fill="hsl(0.0,100%,20%)">bgeffon</text>
<text x="1.932" y="0.602" font-size="0.063996" fill="hsl(0.0,100%,20%)">tasak</text>
<text x="0.905" y="0.817" font-size="0.008682" fill="hsl(0.0,100%,20%)">gbeaty</text>
<text x="1.238" y="0.915" font-size="0.008682" fill="hsl(0.0,100%,20%)">jochen</text>
<text x="1.044" y="1.023" font-size="0.017364" fill="hsl(0.0,100%,20%)">richard.townsend</text>
<text x="0.659" y="0.099" font-size="0.012278" fill="hsl(180.0,100%,20%)">wfh</text>
<text x="0.397" y="0.740" font-size="0.005013" fill="hsl(0.0,100%,20%)">asully</text>
<text x="0.520" y="0.814" font-size="0.005013" fill="hsl(0.0,100%,20%)">hypan</text>
<text x="1.665" y="0.162" font-size="0.024556" fill="hsl(180.0,100%,20%)">pkasting</text>
<text x="1.601" y="0.142" font-size="0.005013" fill="hsl(180.0,100%,20%)">lukasza</text>
<text x="1.083" y="0.439" font-size="0.010025" fill="hsl(0.0,100%,20%)">dsanders11</text>
<text x="1.357" y="0.808" font-size="0.008682" fill="hsl(180.0,100%,20%)">floresa</text>
<text x="1.231" y="0.712" font-size="0.013262" fill="hsl(0.0,100%,20%)">mpdenton</text>
<text x="0.118" y="0.267" font-size="0.011208" fill="hsl(0.0,100%,20%)">guochengwei</text>
<text x="0.080" y="0.369" font-size="0.007089" fill="hsl(0.0,100%,20%)">kimstephanie</text>
<text x="0.295" y="0.366" font-size="0.005013" fill="hsl(0.0,100%,20%)">smaier</text>
<text x="0.241" y="0.189" font-size="0.005013" fill="hsl(0.0,100%,20%)">dnicoara</text>
<text x="1.746" y="0.050" font-size="0.014178" fill="hsl(0.0,100%,20%)">hans</text>
<text x="1.569" y="0.039" font-size="0.010025" fill="hsl(0.0,100%,20%)">thakis</text>
<text x="0.839" y="0.581" font-size="0.012278" fill="hsl(0.0,100%,20%)">mlippautz</text>
<text x="1.859" y="0.089" font-size="0.005013" fill="hsl(0.0,100%,20%)">aeubanks</text>
<text x="0.286" y="0.471" font-size="0.008682" fill="hsl(0.0,100%,20%)">hnakashima</text>
<text x="1.317" y="0.701" font-size="0.015038" fill="hsl(0.0,100%,20%)">thiabaud</text>
<text x="1.952" y="0.744" font-size="0.027455" fill="hsl(0.0,100%,20%)">honokaanada</text>
<text x="1.120" y="0.627" font-size="0.005013" fill="hsl(0.0,100%,20%)">danilchap</text>
<text x="1.183" y="0.083" font-size="0.011208" fill="hsl(180.0,100%,20%)">fdoray</text>
<text x="1.781" y="0.349" font-size="0.007089" fill="hsl(0.0,100%,20%)">sdefresne</text>
<text x="1.078" y="1.049" font-size="0.008682" fill="hsl(0.0,100%,20%)">leszeks</text>
<text x="1.190" y="0.510" font-size="0.008682" fill="hsl(180.0,100%,20%)">kylechar</text>
<text x="0.868" y="0.632" font-size="0.008682" fill="hsl(0.0,100%,20%)">tkent</text>
<text x="1.043" y="0.573" font-size="0.007089" fill="hsl(0.0,100%,20%)">metzman</text>
<text x="1.615" y="0.611" font-size="0.007089" fill="hsl(0.0,100%,20%)">etienneb</text>
<text x="0.812" y="0.646" font-size="0.005013" fill="hsl(0.0,100%,20%)">erikchen</text>
<text x="0.814" y="0.554" font-size="0.005013" fill="hsl(0.0,100%,20%)">ayui</text>
<text x="0.885" y="0.665" font-size="0.005013" fill="hsl(0.0,100%,20%)">primiano</text>
<text x="1.005" y="0.614" font-size="0.005013" fill="hsl(0.0,100%,20%)">wez</text>
<text x="0.426" y="0.693" font-size="0.005013" fill="hsl(0.0,100%,20%)">ccameron</text>
<text x="0.443" y="0.493" font-size="0.005013" fill="hsl(0.0,100%,20%)">rakina</text>
<text x="0.434" y="0.525" font-size="0.005013" fill="hsl(0.0,100%,20%)">wrong</text>
<text x="0.662" y="0.485" font-size="0.010025" fill="hsl(0.0,100%,20%)">ssid</text>
<text x="0.511" y="0.948" font-size="0.010025" fill="hsl(0.0,100%,20%)">marshall</text>
<text x="0.469" y="0.940" font-size="0.005013" fill="hsl(0.0,100%,20%)">perrier</text>
<text x="1.399" y="0.556" font-size="0.010025" fill="hsl(0.0,100%,20%)">pbos</text>
<text x="1.440" y="0.184" font-size="0.005013" fill="hsl(180.0,100%,20%)">agrieve</text>
<text x="1.508" y="0.120" font-size="0.005013" fill="hsl(180.0,100%,20%)">wittman</text>
<text x="1.562" y="0.072" font-size="0.007089" fill="hsl(180.0,100%,20%)">nicolaso</text>
<text x="1.562" y="0.197" font-size="0.007089" fill="hsl(180.0,100%,20%)">behdadb</text>
<text x="1.379" y="0.308" font-size="0.010025" fill="hsl(0.0,100%,20%)">qitiezheng</text>
<text x="0.460" y="0.037" font-size="0.018073" fill="hsl(180.0,100%,20%)">rwkeane</text>
<text x="0.351" y="0.049" font-size="0.008682" fill="hsl(180.0,100%,20%)">ajgo</text>
<text x="0.248" y="0.059" font-size="0.005013" fill="hsl(180.0,100%,20%)">mfoltz</text>
<text x="0.372" y="0.074" font-size="0.005013" fill="hsl(180.0,100%,20%)">ddorwin</text>
<text x="0.477" y="0.172" font-size="0.007089" fill="hsl(180.0,100%,20%)">jshin</text>
<text x="0.790" y="0.058" font-size="0.005013" fill="hsl(180.0,100%,20%)">kmarshall</text>
<text x="1.095" y="0.908" font-size="0.013262" fill="hsl(180.0,100%,20%)">saelo</text>
<text x="0.945" y="0.803" font-size="0.023511" fill="hsl(0.0,100%,20%)">sroettger</text>
<text x="1.410" y="0.345" font-size="0.011208" fill="hsl(0.0,100%,20%)">stha09</text>
<text x="1.731" y="0.581" font-size="0.005013" fill="hsl(0.0,100%,20%)">tikuta</text>
<text x="1.771" y="0.731" font-size="0.005013" fill="hsl(0.0,100%,20%)">estaab</text>
<text x="1.195" y="0.229" font-size="0.011208" fill="hsl(180.0,100%,20%)">vollick</text>
<text x="1.057" y="0.157" font-size="0.005013" fill="hsl(180.0,100%,20%)">dtapuska</text>
<text x="1.280" y="0.138" font-size="0.005013" fill="hsl(180.0,100%,20%)">anthonyvd</text>
<text x="0.701" y="1.040" font-size="0.010025" fill="hsl(180.0,100%,20%)">wangqing-hf</text>
<text x="1.419" y="0.502" font-size="0.005013" fill="hsl(0.0,100%,20%)">joenotcharles</text>
<text x="1.488" y="0.629" font-size="0.005013" fill="hsl(0.0,100%,20%)">rockot</text>
<text x="1.518" y="0.372" font-size="0.005013" fill="hsl(0.0,100%,20%)">mamir</text>
<text x="1.903" y="0.387" font-size="0.005013" fill="hsl(0.0,100%,20%)">meacer</text>
<text x="1.905" y="0.369" font-size="0.005013" fill="hsl(0.0,100%,20%)">victortan</text>
</svg>
