<svg width="4000" height="2000" viewBox="-0.025 -0.025 2.05 1.05" xmlns="http://www.w3.org/2000/svg">
  <style>
    path {
      fill: none;
      stroke-linecap: round;
      stroke-opacity: 0.4;
    }

    text {
      text-anchor: middle;
      alignment-baseline: hanging;
    }
  </style>
  <g opacity="0.4">
<path d="M0.332 0.539 Q1.448 0.642 1.895 0.121" stroke="hsl(0.0,100%,35%)" stroke-width="0.00115"></path>
<path d="M0.332 0.539 Q0.143 0.586 0.192 0.689" stroke="hsl(0.0,100%,35%)" stroke-width="0.00115"></path>
<path d="M0.332 0.539 Q-0.040 0.654 0.102 0.861" stroke="hsl(0.0,100%,35%)" stroke-width="0.00115"></path>
<path d="M1.574 0.757 Q1.659 0.723 1.611 0.674" stroke="hsl(0.0,100%,35%)" stroke-width="0.00115"></path>
<path d="M1.574 0.757 Q1.034 0.719 0.840 0.974" stroke="hsl(0.0,100%,35%)" stroke-width="0.00115"></path>
<path d="M1.574 0.757 Q0.854 0.632 0.452 0.956" stroke="hsl(0.0,100%,35%)" stroke-width="0.00115"></path>
<path d="M1.574 0.757 Q1.370 0.643 1.102 0.718" stroke="hsl(0.0,100%,35%)" stroke-width="0.00229"></path>
<path d="M1.574 0.757 Q0.938 0.446 0.192 0.689" stroke="hsl(0.0,100%,35%)" stroke-width="0.00115"></path>
<path d="M1.574 0.757 Q1.615 0.431 0.988 0.340" stroke="hsl(0.0,100%,35%)" stroke-width="0.00115"></path>
<path d="M1.574 0.757 Q1.190 0.694 0.983 0.868" stroke="hsl(0.0,100%,35%)" stroke-width="0.00115"></path>
<path d="M0.988 0.340 Q0.743 0.552 1.102 0.718" stroke="hsl(240.0,100%,35%)" stroke-width="0.00344"></path>
<path d="M0.988 0.340 Q1.063 0.415 1.226 0.395" stroke="hsl(240.0,100%,35%)" stroke-width="0.00687"></path>
<path d="M0.988 0.340 Q1.089 0.290 1.013 0.230" stroke="hsl(240.0,100%,35%)" stroke-width="0.00229"></path>
<path d="M0.988 0.340 Q0.933 0.356 0.953 0.387" stroke="hsl(240.0,100%,35%)" stroke-width="0.00115"></path>
<path d="M0.988 0.340 Q0.456 0.487 0.627 0.779" stroke="hsl(240.0,100%,35%)" stroke-width="0.00115"></path>
<path d="M0.988 0.340 Q0.721 0.283 0.551 0.401" stroke="hsl(240.0,100%,35%)" stroke-width="0.00115"></path>
<path d="M0.988 0.340 Q0.563 0.603 0.983 0.868" stroke="hsl(240.0,100%,35%)" stroke-width="0.00229"></path>
<path d="M0.983 0.868 Q0.876 0.752 0.627 0.779" stroke="hsl(120.0,100%,35%)" stroke-width="0.06759"></path>
<path d="M0.983 0.868 Q0.731 0.620 0.192 0.689" stroke="hsl(120.0,100%,35%)" stroke-width="0.00115"></path>
<path d="M0.983 0.868 Q1.163 0.817 1.102 0.718" stroke="hsl(120.0,100%,35%)" stroke-width="0.06988"></path>
<path d="M0.983 0.868 Q1.045 0.969 1.256 0.960" stroke="hsl(120.0,100%,35%)" stroke-width="0.00115"></path>
<path d="M0.983 0.868 Q1.098 0.694 0.784 0.600" stroke="hsl(120.0,100%,35%)" stroke-width="0.00687"></path>
<path d="M0.983 0.868 Q1.169 0.882 1.237 0.795" stroke="hsl(120.0,100%,35%)" stroke-width="0.00802"></path>
<path d="M0.983 0.868 Q1.437 0.782 1.368 0.541" stroke="hsl(120.0,100%,35%)" stroke-width="0.00115"></path>
<path d="M0.983 0.868 Q1.483 0.680 1.226 0.395" stroke="hsl(120.0,100%,35%)" stroke-width="0.02406"></path>
<path d="M0.983 0.868 Q1.426 0.436 0.680 0.125" stroke="hsl(120.0,100%,35%)" stroke-width="0.00115"></path>
<path d="M0.983 0.868 Q1.357 0.833 1.371 0.642" stroke="hsl(120.0,100%,35%)" stroke-width="0.00115"></path>
<path d="M0.983 0.868 Q0.828 0.870 0.797 0.946" stroke="hsl(120.0,100%,35%)" stroke-width="0.00458"></path>
<path d="M0.983 0.868 Q0.937 0.940 1.067 0.978" stroke="hsl(120.0,100%,35%)" stroke-width="0.00573"></path>
<path d="M0.983 0.868 Q0.939 0.879 0.950 0.903" stroke="hsl(120.0,100%,35%)" stroke-width="0.00229"></path>
<path d="M0.983 0.868 Q0.971 0.810 0.854 0.803" stroke="hsl(120.0,100%,35%)" stroke-width="0.02635"></path>
<path d="M0.983 0.868 Q0.836 0.892 0.850 0.968" stroke="hsl(120.0,100%,35%)" stroke-width="0.01604"></path>
<path d="M0.983 0.868 Q1.408 0.605 0.988 0.340" stroke="hsl(120.0,100%,35%)" stroke-width="0.00229"></path>
<path d="M0.983 0.868 Q1.400 0.703 1.170 0.463" stroke="hsl(120.0,100%,35%)" stroke-width="0.00229"></path>
<path d="M0.983 0.868 Q0.820 0.803 0.657 0.869" stroke="hsl(120.0,100%,35%)" stroke-width="0.00229"></path>
<path d="M0.983 0.868 Q1.200 0.315 0.168 0.087" stroke="hsl(120.0,100%,35%)" stroke-width="0.00115"></path>
<path d="M0.983 0.868 Q1.318 0.532 0.735 0.294" stroke="hsl(120.0,100%,35%)" stroke-width="0.00115"></path>
<path d="M0.983 0.868 Q1.348 0.755 1.208 0.552" stroke="hsl(120.0,100%,35%)" stroke-width="0.00115"></path>
<path d="M0.983 0.868 Q1.647 0.656 1.379 0.286" stroke="hsl(120.0,100%,35%)" stroke-width="0.00115"></path>
<path d="M0.983 0.868 Q0.901 0.928 1.001 0.982" stroke="hsl(120.0,100%,35%)" stroke-width="0.00229"></path>
<path d="M0.983 0.868 Q0.827 0.893 0.840 0.974" stroke="hsl(120.0,100%,35%)" stroke-width="0.00229"></path>
<path d="M0.983 0.868 Q1.175 0.694 0.877 0.562" stroke="hsl(120.0,100%,35%)" stroke-width="0.00229"></path>
<path d="M0.983 0.868 Q1.114 0.932 1.268 0.882" stroke="hsl(120.0,100%,35%)" stroke-width="0.00115"></path>
<path d="M0.983 0.868 Q0.956 0.464 0.163 0.389" stroke="hsl(120.0,100%,35%)" stroke-width="0.00115"></path>
<path d="M0.983 0.868 Q1.562 0.457 0.886 0.084" stroke="hsl(120.0,100%,35%)" stroke-width="0.00229"></path>
<path d="M0.983 0.868 Q0.822 0.896 0.842 0.981" stroke="hsl(120.0,100%,35%)" stroke-width="0.00229"></path>
<path d="M0.983 0.868 Q1.089 0.918 1.210 0.877" stroke="hsl(120.0,100%,35%)" stroke-width="0.00229"></path>
<path d="M0.983 0.868 Q1.169 0.845 1.165 0.749" stroke="hsl(120.0,100%,35%)" stroke-width="0.00344"></path>
<path d="M0.983 0.868 Q0.973 0.960 1.150 0.985" stroke="hsl(120.0,100%,35%)" stroke-width="0.00115"></path>
<path d="M0.983 0.868 Q0.883 0.848 0.822 0.893" stroke="hsl(120.0,100%,35%)" stroke-width="0.00229"></path>
<path d="M0.983 0.868 Q1.068 0.951 1.250 0.928" stroke="hsl(120.0,100%,35%)" stroke-width="0.00115"></path>
<path d="M0.983 0.868 Q1.277 0.590 0.800 0.386" stroke="hsl(120.0,100%,35%)" stroke-width="0.00115"></path>
<path d="M0.983 0.868 Q0.942 0.897 0.990 0.924" stroke="hsl(120.0,100%,35%)" stroke-width="0.00115"></path>
<path d="M0.983 0.868 Q0.986 0.785 0.825 0.766" stroke="hsl(120.0,100%,35%)" stroke-width="0.00115"></path>
<path d="M0.983 0.868 Q0.945 0.917 1.033 0.946" stroke="hsl(120.0,100%,35%)" stroke-width="0.00115"></path>
<path d="M0.983 0.868 Q1.190 0.401 0.324 0.198" stroke="hsl(120.0,100%,35%)" stroke-width="0.00115"></path>
<path d="M0.983 0.868 Q0.988 0.874 1.000 0.873" stroke="hsl(120.0,100%,35%)" stroke-width="0.00229"></path>
<path d="M0.983 0.868 Q1.192 0.859 1.220 0.755" stroke="hsl(120.0,100%,35%)" stroke-width="0.00115"></path>
<path d="M0.680 0.125 Q0.816 0.146 0.886 0.084" stroke="hsl(0.0,100%,35%)" stroke-width="0.00344"></path>
<path d="M0.680 0.125 Q0.081 0.582 0.840 0.974" stroke="hsl(0.0,100%,35%)" stroke-width="0.00115"></path>
<path d="M0.680 0.125 Q0.423 0.571 1.237 0.795" stroke="hsl(0.0,100%,35%)" stroke-width="0.00115"></path>
<path d="M0.627 0.779 Q0.897 0.837 1.069 0.718" stroke="hsl(120.0,100%,35%)" stroke-width="0.00344"></path>
<path d="M0.627 0.779 Q0.854 0.776 0.897 0.664" stroke="hsl(120.0,100%,35%)" stroke-width="0.00458"></path>
<path d="M0.627 0.779 Q0.849 0.721 0.784 0.600" stroke="hsl(120.0,100%,35%)" stroke-width="0.03208"></path>
<path d="M0.627 0.779 Q0.734 0.895 0.983 0.868" stroke="hsl(120.0,100%,35%)" stroke-width="0.07217"></path>
<path d="M0.627 0.779 Q0.722 0.836 0.854 0.803" stroke="hsl(120.0,100%,35%)" stroke-width="0.00115"></path>
<path d="M0.627 0.779 Q0.914 0.843 1.102 0.718" stroke="hsl(120.0,100%,35%)" stroke-width="0.06874"></path>
<path d="M0.627 0.779 Q0.891 0.742 0.876 0.605" stroke="hsl(120.0,100%,35%)" stroke-width="0.00115"></path>
<path d="M0.627 0.779 Q0.715 0.687 0.555 0.624" stroke="hsl(120.0,100%,35%)" stroke-width="0.00229"></path>
<path d="M0.627 0.779 Q0.919 0.909 1.237 0.795" stroke="hsl(120.0,100%,35%)" stroke-width="0.00687"></path>
<path d="M0.627 0.779 Q1.233 0.707 1.226 0.395" stroke="hsl(120.0,100%,35%)" stroke-width="0.00458"></path>
<path d="M0.627 0.779 Q0.587 0.918 0.850 0.968" stroke="hsl(120.0,100%,35%)" stroke-width="0.00229"></path>
<path d="M0.627 0.779 Q0.698 0.822 0.796 0.796" stroke="hsl(120.0,100%,35%)" stroke-width="0.00115"></path>
<path d="M0.627 0.779 Q1.069 0.558 0.735 0.294" stroke="hsl(120.0,100%,35%)" stroke-width="0.00115"></path>
<path d="M0.627 0.779 Q0.793 0.742 0.757 0.653" stroke="hsl(120.0,100%,35%)" stroke-width="0.00115"></path>
<path d="M0.627 0.779 Q1.108 0.860 1.371 0.642" stroke="hsl(120.0,100%,35%)" stroke-width="0.00458"></path>
<path d="M0.627 0.779 Q0.398 0.833 0.452 0.956" stroke="hsl(120.0,100%,35%)" stroke-width="0.00229"></path>
<path d="M0.627 0.779 Q0.841 0.749 0.828 0.638" stroke="hsl(120.0,100%,35%)" stroke-width="0.00115"></path>
<path d="M0.627 0.779 Q0.884 0.754 0.892 0.624" stroke="hsl(120.0,100%,35%)" stroke-width="0.00229"></path>
<path d="M0.627 0.779 Q0.308 0.781 0.241 0.937" stroke="hsl(120.0,100%,35%)" stroke-width="0.00115"></path>
<path d="M0.627 0.779 Q0.840 0.763 0.855 0.656" stroke="hsl(120.0,100%,35%)" stroke-width="0.00115"></path>
<path d="M0.627 0.779 Q0.955 0.697 0.866 0.519" stroke="hsl(120.0,100%,35%)" stroke-width="0.00115"></path>
<path d="M0.627 0.779 Q0.475 0.808 0.498 0.888" stroke="hsl(120.0,100%,35%)" stroke-width="0.00115"></path>
<path d="M0.627 0.779 Q0.940 0.428 0.324 0.198" stroke="hsl(120.0,100%,35%)" stroke-width="0.00458"></path>
<path d="M0.627 0.779 Q0.785 0.723 0.710 0.633" stroke="hsl(120.0,100%,35%)" stroke-width="0.00115"></path>
<path d="M0.627 0.779 Q1.104 0.695 1.045 0.444" stroke="hsl(120.0,100%,35%)" stroke-width="0.00115"></path>
<path d="M0.627 0.779 Q0.624 0.900 0.859 0.928" stroke="hsl(120.0,100%,35%)" stroke-width="0.00115"></path>
<path d="M0.627 0.779 Q0.578 0.919 0.840 0.974" stroke="hsl(120.0,100%,35%)" stroke-width="0.00115"></path>
<path d="M0.627 0.779 Q0.482 0.647 0.192 0.689" stroke="hsl(120.0,100%,35%)" stroke-width="0.00115"></path>
<path d="M0.627 0.779 Q0.746 0.703 0.624 0.628" stroke="hsl(120.0,100%,35%)" stroke-width="0.00115"></path>
<path d="M0.784 0.600 Q0.562 0.658 0.627 0.779" stroke="hsl(120.0,100%,35%)" stroke-width="0.02635"></path>
<path d="M0.784 0.600 Q0.669 0.774 0.983 0.868" stroke="hsl(120.0,100%,35%)" stroke-width="0.02406"></path>
<path d="M0.784 0.600 Q0.849 0.722 1.102 0.718" stroke="hsl(120.0,100%,35%)" stroke-width="0.00802"></path>
<path d="M0.784 0.600 Q0.657 0.715 0.854 0.803" stroke="hsl(120.0,100%,35%)" stroke-width="0.00687"></path>
<path d="M0.784 0.600 Q0.854 0.788 1.237 0.795" stroke="hsl(120.0,100%,35%)" stroke-width="0.00229"></path>
<path d="M0.784 0.600 Q1.168 0.586 1.226 0.395" stroke="hsl(120.0,100%,35%)" stroke-width="0.00115"></path>
<path d="M0.784 0.600 Q0.959 0.607 1.013 0.524" stroke="hsl(120.0,100%,35%)" stroke-width="0.00115"></path>
<path d="M1.368 0.541 Q1.094 0.576 1.102 0.718" stroke="hsl(120.0,100%,35%)" stroke-width="0.00458"></path>
<path d="M1.368 0.541 Q0.914 0.628 0.983 0.868" stroke="hsl(120.0,100%,35%)" stroke-width="0.00344"></path>
<path d="M1.368 0.541 Q1.100 0.642 1.237 0.795" stroke="hsl(120.0,100%,35%)" stroke-width="0.00115"></path>
<path d="M1.368 0.541 Q0.807 0.512 0.627 0.779" stroke="hsl(120.0,100%,35%)" stroke-width="0.00115"></path>
<path d="M1.368 0.541 Q1.436 0.516 1.401 0.477" stroke="hsl(120.0,100%,35%)" stroke-width="0.00344"></path>
<path d="M1.226 0.395 Q1.151 0.320 0.988 0.340" stroke="hsl(240.0,100%,35%)" stroke-width="0.09623"></path>
<path d="M1.226 0.395 Q0.906 0.532 1.102 0.718" stroke="hsl(240.0,100%,35%)" stroke-width="0.05499"></path>
<path d="M1.226 0.395 Q0.726 0.583 0.983 0.868" stroke="hsl(240.0,100%,35%)" stroke-width="0.02979"></path>
<path d="M1.226 0.395 Q0.912 0.597 1.237 0.795" stroke="hsl(240.0,100%,35%)" stroke-width="0.00229"></path>
<path d="M1.226 0.395 Q0.619 0.467 0.627 0.779" stroke="hsl(240.0,100%,35%)" stroke-width="0.00344"></path>
<path d="M1.226 0.395 Q1.409 0.345 1.351 0.245" stroke="hsl(240.0,100%,35%)" stroke-width="0.00115"></path>
<path d="M1.226 0.395 Q1.463 0.302 1.332 0.165" stroke="hsl(240.0,100%,35%)" stroke-width="0.00115"></path>
<path d="M1.226 0.395 Q1.243 0.454 1.361 0.458" stroke="hsl(240.0,100%,35%)" stroke-width="0.00229"></path>
<path d="M1.226 0.395 Q0.682 0.594 0.950 0.903" stroke="hsl(240.0,100%,35%)" stroke-width="0.00115"></path>
<path d="M1.226 0.395 Q1.390 0.371 1.379 0.286" stroke="hsl(240.0,100%,35%)" stroke-width="0.00573"></path>
<path d="M1.226 0.395 Q1.097 0.383 1.045 0.444" stroke="hsl(240.0,100%,35%)" stroke-width="0.00115"></path>
<path d="M1.226 0.395 Q1.144 0.418 1.170 0.463" stroke="hsl(240.0,100%,35%)" stroke-width="0.00115"></path>
<path d="M1.226 0.395 Q1.413 0.341 1.348 0.238" stroke="hsl(240.0,100%,35%)" stroke-width="0.00115"></path>
<path d="M1.226 0.395 Q1.096 0.337 0.953 0.387" stroke="hsl(240.0,100%,35%)" stroke-width="0.00115"></path>
<path d="M1.067 0.978 Q1.113 0.906 0.983 0.868" stroke="hsl(120.0,100%,35%)" stroke-width="0.00458"></path>
<path d="M1.067 0.978 Q1.006 0.790 0.627 0.779" stroke="hsl(120.0,100%,35%)" stroke-width="0.00229"></path>
<path d="M1.067 0.978 Q1.293 0.855 1.102 0.718" stroke="hsl(120.0,100%,35%)" stroke-width="0.00229"></path>
<path d="M0.854 0.803 Q0.982 0.687 0.784 0.600" stroke="hsl(120.0,100%,35%)" stroke-width="0.00115"></path>
<path d="M0.854 0.803 Q0.866 0.861 0.983 0.868" stroke="hsl(120.0,100%,35%)" stroke-width="0.01833"></path>
<path d="M0.854 0.803 Q0.759 0.745 0.627 0.779" stroke="hsl(120.0,100%,35%)" stroke-width="0.00573"></path>
<path d="M0.854 0.803 Q0.719 0.885 0.850 0.968" stroke="hsl(120.0,100%,35%)" stroke-width="0.00115"></path>
<path d="M0.854 0.803 Q1.366 0.673 1.226 0.395" stroke="hsl(120.0,100%,35%)" stroke-width="0.00115"></path>
<path d="M0.854 0.803 Q1.046 0.810 1.102 0.718" stroke="hsl(120.0,100%,35%)" stroke-width="0.01489"></path>
<path d="M0.854 0.803 Q1.291 0.598 0.988 0.340" stroke="hsl(120.0,100%,35%)" stroke-width="0.00229"></path>
<path d="M0.854 0.803 Q1.052 0.875 1.237 0.795" stroke="hsl(120.0,100%,35%)" stroke-width="0.00229"></path>
<path d="M0.850 0.968 Q0.997 0.945 0.983 0.868" stroke="hsl(120.0,100%,35%)" stroke-width="0.01031"></path>
<path d="M0.850 0.968 Q1.371 0.910 1.371 0.642" stroke="hsl(120.0,100%,35%)" stroke-width="0.00229"></path>
<path d="M0.850 0.968 Q0.987 1.037 1.150 0.985" stroke="hsl(120.0,100%,35%)" stroke-width="0.00115"></path>
<path d="M0.850 0.968 Q1.177 0.893 1.102 0.718" stroke="hsl(120.0,100%,35%)" stroke-width="0.00344"></path>
<path d="M0.850 0.968 Q0.890 0.829 0.627 0.779" stroke="hsl(120.0,100%,35%)" stroke-width="0.00573"></path>
<path d="M0.850 0.968 Q1.496 0.757 1.226 0.395" stroke="hsl(120.0,100%,35%)" stroke-width="0.00229"></path>
<path d="M0.850 0.968 Q0.896 0.925 0.822 0.893" stroke="hsl(120.0,100%,35%)" stroke-width="0.00115"></path>
<path d="M0.850 0.968 Q0.842 0.946 0.797 0.946" stroke="hsl(120.0,100%,35%)" stroke-width="0.00115"></path>
<path d="M0.850 0.968 Q1.367 0.745 1.045 0.444" stroke="hsl(120.0,100%,35%)" stroke-width="0.00115"></path>
<path d="M0.850 0.968 Q0.985 0.886 0.854 0.803" stroke="hsl(120.0,100%,35%)" stroke-width="0.00115"></path>
<path d="M0.168 0.087 Q0.054 0.119 0.092 0.182" stroke="hsl(0.0,100%,35%)" stroke-width="0.00115"></path>
<path d="M0.168 0.087 Q0.529 0.229 0.886 0.084" stroke="hsl(0.0,100%,35%)" stroke-width="0.00115"></path>
<path d="M0.168 0.087 Q0.157 0.174 0.324 0.198" stroke="hsl(0.0,100%,35%)" stroke-width="0.00344"></path>
<path d="M0.168 0.087 Q0.393 0.209 0.680 0.125" stroke="hsl(0.0,100%,35%)" stroke-width="0.00229"></path>
<path d="M0.168 0.087 Q-0.301 0.393 0.192 0.689" stroke="hsl(0.0,100%,35%)" stroke-width="0.00115"></path>
<path d="M0.735 0.294 Q0.766 0.284 0.752 0.267" stroke="hsl(120.0,100%,35%)" stroke-width="0.00115"></path>
<path d="M0.735 0.294 Q0.611 0.383 0.757 0.462" stroke="hsl(120.0,100%,35%)" stroke-width="0.00115"></path>
<path d="M0.735 0.294 Q0.293 0.515 0.627 0.779" stroke="hsl(120.0,100%,35%)" stroke-width="0.00115"></path>
<path d="M0.324 0.198 Q-0.318 0.485 0.102 0.861" stroke="hsl(0.0,100%,35%)" stroke-width="0.00115"></path>
<path d="M0.324 0.198 Q0.297 0.613 1.102 0.718" stroke="hsl(0.0,100%,35%)" stroke-width="0.00229"></path>
<path d="M0.324 0.198 Q0.117 0.665 0.983 0.868" stroke="hsl(0.0,100%,35%)" stroke-width="0.00229"></path>
<path d="M0.324 0.198 Q0.010 0.549 0.627 0.779" stroke="hsl(0.0,100%,35%)" stroke-width="0.00115"></path>
<path d="M0.324 0.198 Q0.334 0.111 0.168 0.087" stroke="hsl(0.0,100%,35%)" stroke-width="0.00115"></path>
<path d="M0.841 0.459 Q0.765 0.640 1.102 0.718" stroke="hsl(0.0,100%,35%)" stroke-width="0.00115"></path>
<path d="M0.841 0.459 Q0.564 0.510 0.603 0.657" stroke="hsl(0.0,100%,35%)" stroke-width="0.00115"></path>
<path d="M0.841 0.459 Q0.748 0.390 0.593 0.419" stroke="hsl(0.0,100%,35%)" stroke-width="0.00115"></path>
<path d="M0.841 0.459 Q0.807 0.417 0.718 0.425" stroke="hsl(0.0,100%,35%)" stroke-width="0.00115"></path>
<path d="M0.841 0.459 Q0.725 0.353 0.493 0.386" stroke="hsl(0.0,100%,35%)" stroke-width="0.00115"></path>
<path d="M0.841 0.459 Q0.701 0.407 0.569 0.464" stroke="hsl(0.0,100%,35%)" stroke-width="0.00115"></path>
<path d="M0.841 0.459 Q0.831 0.433 0.778 0.432" stroke="hsl(0.0,100%,35%)" stroke-width="0.00115"></path>
<path d="M0.841 0.459 Q0.742 0.372 0.551 0.401" stroke="hsl(0.0,100%,35%)" stroke-width="0.00115"></path>
<path d="M0.841 0.459 Q0.794 0.403 0.674 0.413" stroke="hsl(0.0,100%,35%)" stroke-width="0.00115"></path>
<path d="M0.841 0.459 Q0.249 0.630 0.452 0.956" stroke="hsl(0.0,100%,35%)" stroke-width="0.00115"></path>
<path d="M0.841 0.459 Q0.862 0.321 0.597 0.280" stroke="hsl(0.0,100%,35%)" stroke-width="0.00115"></path>
<path d="M0.841 0.459 Q0.780 0.451 0.751 0.479" stroke="hsl(0.0,100%,35%)" stroke-width="0.00115"></path>
<path d="M0.618 0.973 Q1.070 1.008 1.237 0.795" stroke="hsl(0.0,100%,35%)" stroke-width="0.00115"></path>
<path d="M0.618 0.973 Q0.778 0.878 0.627 0.779" stroke="hsl(0.0,100%,35%)" stroke-width="0.00115"></path>
<path d="M0.618 0.973 Q0.549 0.931 0.452 0.956" stroke="hsl(0.0,100%,35%)" stroke-width="0.00115"></path>
<path d="M1.013 0.230 Q0.987 0.355 1.226 0.395" stroke="hsl(240.0,100%,35%)" stroke-width="0.00229"></path>
<path d="M1.013 0.230 Q0.912 0.280 0.988 0.340" stroke="hsl(240.0,100%,35%)" stroke-width="0.00229"></path>
<path d="M1.013 0.230 Q0.667 0.491 1.102 0.718" stroke="hsl(240.0,100%,35%)" stroke-width="0.00115"></path>
<path d="M0.650 0.878 Q1.010 0.954 1.237 0.795" stroke="hsl(0.0,100%,35%)" stroke-width="0.00115"></path>
<path d="M0.650 0.878 Q1.404 0.528 0.886 0.084" stroke="hsl(0.0,100%,35%)" stroke-width="0.00115"></path>
<path d="M0.650 0.878 Q0.825 0.940 0.983 0.868" stroke="hsl(0.0,100%,35%)" stroke-width="0.00115"></path>
<path d="M1.742 0.318 Q1.836 0.360 1.938 0.323" stroke="hsl(120.0,100%,35%)" stroke-width="0.00115"></path>
<path d="M1.742 0.318 Q1.586 0.345 1.605 0.427" stroke="hsl(120.0,100%,35%)" stroke-width="0.00115"></path>
<path d="M1.742 0.318 Q1.102 0.390 1.102 0.718" stroke="hsl(120.0,100%,35%)" stroke-width="0.00115"></path>
<path d="M1.786 0.218 Q0.758 0.267 0.627 0.779" stroke="hsl(0.0,100%,35%)" stroke-width="0.00344"></path>
<path d="M1.786 0.218 Q1.918 0.191 1.895 0.121" stroke="hsl(0.0,100%,35%)" stroke-width="0.00229"></path>
<path d="M1.786 0.218 Q1.649 0.187 1.558 0.247" stroke="hsl(0.0,100%,35%)" stroke-width="0.00229"></path>
<path d="M1.910 0.542 Q1.836 0.496 1.728 0.522" stroke="hsl(120.0,100%,35%)" stroke-width="0.00115"></path>
<path d="M1.910 0.542 Q1.366 0.468 1.102 0.718" stroke="hsl(120.0,100%,35%)" stroke-width="0.00115"></path>
<path d="M1.069 0.718 Q0.799 0.660 0.627 0.779" stroke="hsl(120.0,100%,35%)" stroke-width="0.00573"></path>
<path d="M1.069 0.718 Q1.086 0.724 1.102 0.718" stroke="hsl(120.0,100%,35%)" stroke-width="0.00458"></path>
<path d="M1.069 0.718 Q1.274 0.729 1.341 0.631" stroke="hsl(120.0,100%,35%)" stroke-width="0.00229"></path>
<path d="M1.069 0.718 Q1.281 0.741 1.371 0.642" stroke="hsl(120.0,100%,35%)" stroke-width="0.00229"></path>
<path d="M1.069 0.718 Q1.233 0.792 1.412 0.728" stroke="hsl(120.0,100%,35%)" stroke-width="0.00115"></path>
<path d="M0.241 0.937 Q1.109 0.619 0.680 0.125" stroke="hsl(0.0,100%,35%)" stroke-width="0.00115"></path>
<path d="M0.241 0.937 Q0.641 0.791 0.445 0.564" stroke="hsl(0.0,100%,35%)" stroke-width="0.00229"></path>
<path d="M0.241 0.937 Q0.957 0.885 1.013 0.524" stroke="hsl(0.0,100%,35%)" stroke-width="0.00115"></path>
<path d="M0.241 0.937 Q1.166 0.863 1.226 0.395" stroke="hsl(0.0,100%,35%)" stroke-width="0.00115"></path>
<path d="M0.241 0.937 Q0.408 0.964 0.498 0.888" stroke="hsl(0.0,100%,35%)" stroke-width="0.00115"></path>
<path d="M0.241 0.937 Q0.340 0.873 0.239 0.811" stroke="hsl(0.0,100%,35%)" stroke-width="0.00115"></path>
<path d="M0.241 0.937 Q0.847 0.999 1.102 0.718" stroke="hsl(0.0,100%,35%)" stroke-width="0.00115"></path>
<path d="M0.241 0.937 Q0.415 0.803 0.192 0.689" stroke="hsl(0.0,100%,35%)" stroke-width="0.00115"></path>
<path d="M0.241 0.937 Q0.278 0.856 0.129 0.821" stroke="hsl(0.0,100%,35%)" stroke-width="0.00115"></path>
<path d="M0.241 0.937 Q0.381 0.933 0.405 0.864" stroke="hsl(0.0,100%,35%)" stroke-width="0.00115"></path>
<path d="M0.241 0.937 Q0.331 0.988 0.452 0.956" stroke="hsl(0.0,100%,35%)" stroke-width="0.00229"></path>
<path d="M0.241 0.937 Q0.340 0.925 0.340 0.874" stroke="hsl(0.0,100%,35%)" stroke-width="0.00344"></path>
<path d="M0.241 0.937 Q0.232 0.871 0.102 0.861" stroke="hsl(0.0,100%,35%)" stroke-width="0.00115"></path>
<path d="M0.241 0.937 Q0.304 0.979 0.401 0.957" stroke="hsl(0.0,100%,35%)" stroke-width="0.00115"></path>
<path d="M0.445 0.564 Q0.316 0.825 0.797 0.946" stroke="hsl(0.0,100%,35%)" stroke-width="0.00115"></path>
<path d="M0.445 0.564 Q0.219 0.576 0.192 0.689" stroke="hsl(0.0,100%,35%)" stroke-width="0.00115"></path>
<path d="M0.445 0.564 Q0.145 0.698 0.340 0.874" stroke="hsl(0.0,100%,35%)" stroke-width="0.00229"></path>
<path d="M0.445 0.564 Q0.888 0.659 1.170 0.463" stroke="hsl(0.0,100%,35%)" stroke-width="0.00115"></path>
<path d="M0.445 0.564 Q0.651 0.772 1.102 0.718" stroke="hsl(0.0,100%,35%)" stroke-width="0.00115"></path>
<path d="M0.445 0.564 Q0.427 0.834 0.950 0.903" stroke="hsl(0.0,100%,35%)" stroke-width="0.00115"></path>
<path d="M0.445 0.564 Q0.444 0.420 0.163 0.389" stroke="hsl(0.0,100%,35%)" stroke-width="0.00115"></path>
<path d="M0.445 0.564 Q1.050 0.412 0.886 0.084" stroke="hsl(0.0,100%,35%)" stroke-width="0.00229"></path>
<path d="M0.445 0.564 Q0.842 0.624 1.045 0.444" stroke="hsl(0.0,100%,35%)" stroke-width="0.00115"></path>
<path d="M0.445 0.564 Q0.458 0.489 0.315 0.467" stroke="hsl(0.0,100%,35%)" stroke-width="0.00115"></path>
<path d="M0.445 0.564 Q0.351 0.504 0.213 0.537" stroke="hsl(0.0,100%,35%)" stroke-width="0.00115"></path>
<path d="M0.445 0.564 Q0.306 0.547 0.241 0.611" stroke="hsl(0.0,100%,35%)" stroke-width="0.00115"></path>
<path d="M0.445 0.564 Q0.487 0.495 0.361 0.459" stroke="hsl(0.0,100%,35%)" stroke-width="0.00115"></path>
<path d="M0.445 0.564 Q1.255 0.628 1.558 0.247" stroke="hsl(0.0,100%,35%)" stroke-width="0.00115"></path>
<path d="M0.445 0.564 Q0.313 0.530 0.216 0.587" stroke="hsl(0.0,100%,35%)" stroke-width="0.00115"></path>
<path d="M0.445 0.564 Q0.614 0.471 0.470 0.369" stroke="hsl(0.0,100%,35%)" stroke-width="0.00115"></path>
<path d="M1.503 0.802 Q1.083 0.615 0.627 0.779" stroke="hsl(120.0,100%,35%)" stroke-width="0.00458"></path>
<path d="M1.503 0.802 Q1.619 0.717 1.480 0.642" stroke="hsl(120.0,100%,35%)" stroke-width="0.00115"></path>
<path d="M1.503 0.802 Q1.190 0.731 0.983 0.868" stroke="hsl(120.0,100%,35%)" stroke-width="0.00458"></path>
<path d="M1.503 0.802 Q1.108 0.791 1.001 0.982" stroke="hsl(120.0,100%,35%)" stroke-width="0.00115"></path>
<path d="M1.503 0.802 Q1.690 0.543 1.226 0.395" stroke="hsl(120.0,100%,35%)" stroke-width="0.00115"></path>
<path d="M1.503 0.802 Q1.035 0.733 0.797 0.946" stroke="hsl(120.0,100%,35%)" stroke-width="0.00115"></path>
<path d="M1.503 0.802 Q1.370 0.680 1.102 0.718" stroke="hsl(120.0,100%,35%)" stroke-width="0.00229"></path>
<path d="M1.503 0.802 Q1.615 0.468 0.988 0.340" stroke="hsl(120.0,100%,35%)" stroke-width="0.00115"></path>
<path d="M1.503 0.802 Q1.178 0.673 0.854 0.803" stroke="hsl(120.0,100%,35%)" stroke-width="0.00115"></path>
<path d="M1.871 0.780 Q1.543 0.660 1.237 0.795" stroke="hsl(120.0,100%,35%)" stroke-width="0.00115"></path>
<path d="M1.871 0.780 Q1.463 0.697 1.210 0.877" stroke="hsl(120.0,100%,35%)" stroke-width="0.00115"></path>
<path d="M1.871 0.780 Q1.729 0.826 1.788 0.906" stroke="hsl(120.0,100%,35%)" stroke-width="0.00115"></path>
<path d="M1.193 0.221 Q0.570 0.502 0.983 0.868" stroke="hsl(240.0,100%,35%)" stroke-width="0.00229"></path>
<path d="M1.193 0.221 Q1.070 0.315 1.226 0.395" stroke="hsl(240.0,100%,35%)" stroke-width="0.00344"></path>
<path d="M1.193 0.221 Q0.995 0.239 0.988 0.340" stroke="hsl(240.0,100%,35%)" stroke-width="0.00115"></path>
<path d="M1.193 0.221 Q0.750 0.451 1.102 0.718" stroke="hsl(240.0,100%,35%)" stroke-width="0.00115"></path>
</g>
<text x="0.332" y="0.535" font-size="0.008024" fill="hsl(0.0,100%,20%)">abarth</text>
<text x="1.895" y="0.117" font-size="0.008024" fill="hsl(0.0,100%,20%)">ddorwin</text>
<text x="0.192" y="0.682" font-size="0.012256" fill="hsl(0.0,100%,20%)">wez</text>
<text x="0.102" y="0.857" font-size="0.008024" fill="hsl(0.0,100%,20%)">tsepez</text>
<text x="1.574" y="0.751" font-size="0.013102" fill="hsl(0.0,100%,20%)">andre.kempe</text>
<text x="1.611" y="0.672" font-size="0.004632" fill="hsl(0.0,100%,20%)">mfoltz</text>
<text x="0.840" y="0.969" font-size="0.010358" fill="hsl(0.0,100%,20%)">agrieve</text>
<text x="0.452" y="0.950" font-size="0.012256" fill="hsl(0.0,100%,20%)">thakis</text>
<text x="1.102" y="0.683" font-size="0.068397" fill="hsl(120.0,100%,20%)">haraken</text>
<text x="0.988" y="0.316" font-size="0.048364" fill="hsl(240.0,100%,20%)">mlippautz</text>
<text x="0.983" y="0.822" font-size="0.092648" fill="hsl(120.0,100%,20%)">bartekn</text>
<text x="0.680" y="0.119" font-size="0.013897" fill="hsl(0.0,100%,20%)">avi</text>
<text x="0.886" y="0.077" font-size="0.013897" fill="hsl(0.0,100%,20%)">danakj</text>
<text x="1.237" y="0.783" font-size="0.022694" fill="hsl(120.0,100%,20%)">dcheng</text>
<text x="0.627" y="0.738" font-size="0.082087" fill="hsl(120.0,100%,20%)">lizeb</text>
<text x="1.256" y="0.958" font-size="0.004632" fill="hsl(120.0,100%,20%)">ajuma</text>
<text x="0.784" y="0.577" font-size="0.045388" fill="hsl(120.0,100%,20%)">yukishiino</text>
<text x="1.368" y="0.533" font-size="0.016702" fill="hsl(120.0,100%,20%)">richard.townsend</text>
<text x="1.226" y="0.361" font-size="0.068553" fill="hsl(240.0,100%,20%)">bikineev</text>
<text x="1.371" y="0.635" font-size="0.013897" fill="hsl(120.0,100%,20%)">ssid</text>
<text x="0.797" y="0.939" font-size="0.012256" fill="hsl(120.0,100%,20%)">mpdenton</text>
<text x="1.067" y="0.969" font-size="0.016702" fill="hsl(120.0,100%,20%)">glazunov</text>
<text x="0.950" y="0.898" font-size="0.009265" fill="hsl(0.0,100%,20%)">lukasza</text>
<text x="0.854" y="0.783" font-size="0.039579" fill="hsl(120.0,100%,20%)">tasak</text>
<text x="0.850" y="0.953" font-size="0.030377" fill="hsl(120.0,100%,20%)">keishi</text>
<text x="1.170" y="0.458" font-size="0.009265" fill="hsl(0.0,100%,20%)">gab</text>
<text x="0.657" y="0.866" font-size="0.006551" fill="hsl(120.0,100%,20%)">bgeffon</text>
<text x="0.168" y="0.080" font-size="0.014649" fill="hsl(0.0,100%,20%)">brucedawson</text>
<text x="0.735" y="0.289" font-size="0.010358" fill="hsl(120.0,100%,20%)">ellyjones</text>
<text x="1.208" y="0.550" font-size="0.004632" fill="hsl(120.0,100%,20%)">gbeaty</text>
<text x="1.379" y="0.280" font-size="0.011347" fill="hsl(240.0,100%,20%)">wfh</text>
<text x="1.001" y="0.978" font-size="0.008024" fill="hsl(120.0,100%,20%)">erikchen</text>
<text x="0.877" y="0.559" font-size="0.006551" fill="hsl(120.0,100%,20%)">agl</text>
<text x="1.268" y="0.880" font-size="0.004632" fill="hsl(120.0,100%,20%)">yukiy</text>
<text x="0.163" y="0.385" font-size="0.006551" fill="hsl(0.0,100%,20%)">kinuko</text>
<text x="0.842" y="0.978" font-size="0.006551" fill="hsl(120.0,100%,20%)">tikuta</text>
<text x="1.210" y="0.873" font-size="0.008024" fill="hsl(120.0,100%,20%)">mark</text>
<text x="1.165" y="0.745" font-size="0.008024" fill="hsl(120.0,100%,20%)">sebmarchand</text>
<text x="1.150" y="0.981" font-size="0.006551" fill="hsl(120.0,100%,20%)">sweilun</text>
<text x="0.822" y="0.889" font-size="0.008024" fill="hsl(120.0,100%,20%)">isherman</text>
<text x="1.250" y="0.925" font-size="0.004632" fill="hsl(120.0,100%,20%)">jbroman</text>
<text x="0.800" y="0.384" font-size="0.004632" fill="hsl(120.0,100%,20%)">robertshield</text>
<text x="0.990" y="0.922" font-size="0.004632" fill="hsl(120.0,100%,20%)">grt</text>
<text x="0.825" y="0.763" font-size="0.004632" fill="hsl(120.0,100%,20%)">asvitkine</text>
<text x="1.033" y="0.944" font-size="0.004632" fill="hsl(120.0,100%,20%)">ydago</text>
<text x="0.324" y="0.189" font-size="0.017941" fill="hsl(0.0,100%,20%)">palmer</text>
<text x="1.000" y="0.869" font-size="0.006551" fill="hsl(120.0,100%,20%)">yutak</text>
<text x="1.220" y="0.753" font-size="0.004632" fill="hsl(120.0,100%,20%)">primiano</text>
<text x="1.351" y="0.242" font-size="0.004632" fill="hsl(240.0,100%,20%)">oysteine</text>
<text x="1.332" y="0.163" font-size="0.004632" fill="hsl(240.0,100%,20%)">altimin</text>
<text x="1.361" y="0.455" font-size="0.006551" fill="hsl(240.0,100%,20%)">creis</text>
<text x="1.045" y="0.439" font-size="0.009265" fill="hsl(0.0,100%,20%)">fdoray</text>
<text x="1.348" y="0.236" font-size="0.004632" fill="hsl(240.0,100%,20%)">holte</text>
<text x="0.953" y="0.384" font-size="0.006551" fill="hsl(240.0,100%,20%)">ulan</text>
<text x="0.092" y="0.179" font-size="0.004632" fill="hsl(0.0,100%,20%)">cassew</text>
<text x="0.841" y="0.451" font-size="0.016047" fill="hsl(0.0,100%,20%)">dsanders11</text>
<text x="0.603" y="0.655" font-size="0.004632" fill="hsl(0.0,100%,20%)">acourbot</text>
<text x="0.593" y="0.417" font-size="0.004632" fill="hsl(0.0,100%,20%)">tguilbert</text>
<text x="0.718" y="0.423" font-size="0.004632" fill="hsl(0.0,100%,20%)">tbansal</text>
<text x="0.493" y="0.384" font-size="0.004632" fill="hsl(0.0,100%,20%)">michaeldo</text>
<text x="0.569" y="0.461" font-size="0.004632" fill="hsl(0.0,100%,20%)">austinct</text>
<text x="0.778" y="0.429" font-size="0.004632" fill="hsl(0.0,100%,20%)">olivierrobin</text>
<text x="0.551" y="0.398" font-size="0.006551" fill="hsl(0.0,100%,20%)">eseckler</text>
<text x="0.674" y="0.411" font-size="0.004632" fill="hsl(0.0,100%,20%)">mmoskvitin</text>
<text x="0.597" y="0.278" font-size="0.004632" fill="hsl(0.0,100%,20%)">jamiewalch</text>
<text x="0.751" y="0.476" font-size="0.004632" fill="hsl(0.0,100%,20%)">aleventhal</text>
<text x="0.752" y="0.265" font-size="0.004632" fill="hsl(120.0,100%,20%)">elainechien</text>
<text x="0.757" y="0.460" font-size="0.004632" fill="hsl(120.0,100%,20%)">tkent</text>
<text x="0.618" y="0.969" font-size="0.008024" fill="hsl(0.0,100%,20%)">gabor.kertesz</text>
<text x="1.013" y="0.223" font-size="0.012256" fill="hsl(240.0,100%,20%)">hpayer</text>
<text x="0.650" y="0.874" font-size="0.008024" fill="hsl(0.0,100%,20%)">jannh</text>
<text x="1.742" y="0.314" font-size="0.008024" fill="hsl(120.0,100%,20%)">kbr</text>
<text x="1.938" y="0.320" font-size="0.004632" fill="hsl(120.0,100%,20%)">martiniss</text>
<text x="1.605" y="0.425" font-size="0.004632" fill="hsl(120.0,100%,20%)">ccameron</text>
<text x="1.786" y="0.212" font-size="0.012256" fill="hsl(0.0,100%,20%)">kmarshall</text>
<text x="1.558" y="0.243" font-size="0.008024" fill="hsl(0.0,100%,20%)">kylechar</text>
<text x="1.910" y="0.539" font-size="0.006551" fill="hsl(120.0,100%,20%)">kolos</text>
<text x="1.728" y="0.519" font-size="0.004632" fill="hsl(120.0,100%,20%)">lgrey</text>
<text x="1.069" y="0.709" font-size="0.019100" fill="hsl(120.0,100%,20%)">thiabaud</text>
<text x="0.897" y="0.660" font-size="0.009265" fill="hsl(120.0,100%,20%)">pasko</text>
<text x="0.876" y="0.603" font-size="0.004632" fill="hsl(120.0,100%,20%)">msramek</text>
<text x="0.555" y="0.621" font-size="0.006551" fill="hsl(120.0,100%,20%)">alexilin</text>
<text x="0.796" y="0.794" font-size="0.004632" fill="hsl(120.0,100%,20%)">mamir</text>
<text x="0.757" y="0.650" font-size="0.004632" fill="hsl(120.0,100%,20%)">amraboelkher</text>
<text x="0.828" y="0.635" font-size="0.004632" fill="hsl(120.0,100%,20%)">skyostil</text>
<text x="0.892" y="0.620" font-size="0.006551" fill="hsl(120.0,100%,20%)">arthursonzogni</text>
<text x="0.241" y="0.926" font-size="0.020192" fill="hsl(0.0,100%,20%)">thestig</text>
<text x="0.855" y="0.653" font-size="0.004632" fill="hsl(120.0,100%,20%)">asully</text>
<text x="0.866" y="0.516" font-size="0.004632" fill="hsl(120.0,100%,20%)">etiennep</text>
<text x="0.498" y="0.885" font-size="0.006551" fill="hsl(0.0,100%,20%)">rsesek</text>
<text x="0.710" y="0.631" font-size="0.004632" fill="hsl(120.0,100%,20%)">caitlinfischer</text>
<text x="0.859" y="0.925" font-size="0.004632" fill="hsl(120.0,100%,20%)">sinansahin</text>
<text x="0.624" y="0.626" font-size="0.004632" fill="hsl(120.0,100%,20%)">hendrich</text>
<text x="0.445" y="0.554" font-size="0.020717" fill="hsl(0.0,100%,20%)">pkasting</text>
<text x="0.340" y="0.869" font-size="0.010358" fill="hsl(0.0,100%,20%)">pbos</text>
<text x="0.315" y="0.465" font-size="0.004632" fill="hsl(0.0,100%,20%)">renjietang</text>
<text x="0.213" y="0.534" font-size="0.004632" fill="hsl(0.0,100%,20%)">sandersd</text>
<text x="0.241" y="0.608" font-size="0.004632" fill="hsl(0.0,100%,20%)">droger</text>
<text x="0.361" y="0.457" font-size="0.004632" fill="hsl(0.0,100%,20%)">sadrul</text>
<text x="0.216" y="0.584" font-size="0.004632" fill="hsl(0.0,100%,20%)">bajones</text>
<text x="0.470" y="0.366" font-size="0.004632" fill="hsl(0.0,100%,20%)">abigailbklein</text>
<text x="1.401" y="0.473" font-size="0.008024" fill="hsl(120.0,100%,20%)">ajwong</text>
<text x="1.503" y="0.793" font-size="0.018530" fill="hsl(120.0,100%,20%)">saelo</text>
<text x="1.480" y="0.640" font-size="0.004632" fill="hsl(120.0,100%,20%)">cbruni</text>
<text x="1.871" y="0.776" font-size="0.008024" fill="hsl(120.0,100%,20%)">ssyed</text>
<text x="1.788" y="0.904" font-size="0.004632" fill="hsl(120.0,100%,20%)">abhijeet</text>
<text x="1.193" y="0.215" font-size="0.012256" fill="hsl(240.0,100%,20%)">stha09</text>
<text x="1.013" y="0.520" font-size="0.006551" fill="hsl(0.0,100%,20%)">dpranke</text>
<text x="0.239" y="0.809" font-size="0.004632" fill="hsl(0.0,100%,20%)">sunnyps</text>
<text x="0.129" y="0.818" font-size="0.004632" fill="hsl(0.0,100%,20%)">sammc</text>
<text x="0.405" y="0.862" font-size="0.004632" fill="hsl(0.0,100%,20%)">sdefresne</text>
<text x="0.401" y="0.955" font-size="0.004632" fill="hsl(0.0,100%,20%)">ajgo</text>
<text x="1.341" y="0.628" font-size="0.006551" fill="hsl(120.0,100%,20%)">rkaplow</text>
<text x="1.412" y="0.726" font-size="0.004632" fill="hsl(120.0,100%,20%)">chanli</text>
</svg>
