<svg width="4000" height="2000" viewBox="-0.025 -0.025 2.05 1.05" xmlns="http://www.w3.org/2000/svg">
  <style>
    path {
      fill: none;
      stroke-linecap: round;
      stroke-opacity: 0.4;
    }

    text {
      text-anchor: middle;
      alignment-baseline: hanging;
    }
  </style>
  <g opacity="0.4">
<path d="M0.879 0.978 Q0.989 0.918 0.896 0.851" stroke="hsl(0.0,100%,35%)" stroke-width="0.01209"></path>
<path d="M0.879 0.978 Q0.729 0.891 0.526 0.945" stroke="hsl(0.0,100%,35%)" stroke-width="0.01209"></path>
<path d="M0.879 0.978 Q0.898 0.829 0.612 0.787" stroke="hsl(0.0,100%,35%)" stroke-width="0.01209"></path>
<path d="M0.875 0.713 Q1.020 0.658 0.944 0.575" stroke="hsl(180.0,100%,35%)" stroke-width="0.03626"></path>
<path d="M0.875 0.713 Q0.913 0.619 0.737 0.579" stroke="hsl(180.0,100%,35%)" stroke-width="0.02417"></path>
<path d="M0.875 0.713 Q1.555 0.463 1.216 0.077" stroke="hsl(180.0,100%,35%)" stroke-width="0.01209"></path>
<path d="M0.944 0.575 Q0.837 0.536 0.737 0.579" stroke="hsl(180.0,100%,35%)" stroke-width="0.01209"></path>
<path d="M0.944 0.575 Q1.156 0.528 1.111 0.415" stroke="hsl(180.0,100%,35%)" stroke-width="0.02417"></path>
<path d="M0.944 0.575 Q0.636 0.502 0.425 0.636" stroke="hsl(180.0,100%,35%)" stroke-width="0.01209"></path>
<path d="M0.944 0.575 Q0.887 0.458 0.645 0.460" stroke="hsl(180.0,100%,35%)" stroke-width="0.02417"></path>
<path d="M0.944 0.575 Q0.799 0.252 0.137 0.251" stroke="hsl(180.0,100%,35%)" stroke-width="0.01209"></path>
<path d="M1.203 0.264 Q1.359 0.173 1.216 0.077" stroke="hsl(180.0,100%,35%)" stroke-width="0.02417"></path>
<path d="M1.203 0.264 Q1.191 0.121 0.910 0.096" stroke="hsl(180.0,100%,35%)" stroke-width="0.01209"></path>
<path d="M1.203 0.264 Q0.824 0.368 0.944 0.575" stroke="hsl(180.0,100%,35%)" stroke-width="0.01209"></path>
<path d="M1.203 0.264 Q0.490 0.407 0.612 0.787" stroke="hsl(180.0,100%,35%)" stroke-width="0.01209"></path>
<path d="M1.780 0.170 Q1.570 0.314 1.805 0.449" stroke="hsl(0.0,100%,35%)" stroke-width="0.01209"></path>
<path d="M1.780 0.170 Q1.615 0.227 1.689 0.320" stroke="hsl(0.0,100%,35%)" stroke-width="0.01209"></path>
<path d="M1.780 0.170 Q1.417 0.102 1.203 0.264" stroke="hsl(0.0,100%,35%)" stroke-width="0.01209"></path>
<path d="M1.472 0.148 Q0.622 0.384 0.896 0.851" stroke="hsl(0.0,100%,35%)" stroke-width="0.01209"></path>
<path d="M1.472 0.148 Q0.532 0.296 0.612 0.787" stroke="hsl(0.0,100%,35%)" stroke-width="0.01209"></path>
<path d="M1.472 0.148 Q1.079 0.209 1.111 0.415" stroke="hsl(0.0,100%,35%)" stroke-width="0.06043"></path>
<path d="M1.472 0.148 Q0.866 0.256 0.944 0.575" stroke="hsl(0.0,100%,35%)" stroke-width="0.03626"></path>
<path d="M0.195 0.437 Q0.459 0.656 0.944 0.575" stroke="hsl(180.0,100%,35%)" stroke-width="0.01209"></path>
<path d="M0.195 0.437 Q0.441 0.429 0.479 0.307" stroke="hsl(180.0,100%,35%)" stroke-width="0.01209"></path>
<path d="M0.195 0.437 Q0.314 0.333 0.137 0.251" stroke="hsl(180.0,100%,35%)" stroke-width="0.01209"></path>
</g>
<text x="0.879" y="0.957" font-size="0.040269" fill="hsl(0.0,100%,20%)">adarom</text>
<text x="0.896" y="0.834" font-size="0.032880" fill="hsl(0.0,100%,20%)">kdlee</text>
<text x="0.526" y="0.933" font-size="0.023250" fill="hsl(0.0,100%,20%)">yukishiino</text>
<text x="0.612" y="0.767" font-size="0.040269" fill="hsl(0.0,100%,20%)">tasak</text>
<text x="0.875" y="0.685" font-size="0.056949" fill="hsl(180.0,100%,20%)">ahijazi</text>
<text x="0.944" y="0.530" font-size="0.090045" fill="hsl(180.0,100%,20%)">bartekn</text>
<text x="0.737" y="0.559" font-size="0.040269" fill="hsl(180.0,100%,20%)">haraken</text>
<text x="1.216" y="0.057" font-size="0.040269" fill="hsl(180.0,100%,20%)">arthursonzogni</text>
<text x="1.111" y="0.384" font-size="0.061512" fill="hsl(0.0,100%,20%)">keishi</text>
<text x="0.425" y="0.625" font-size="0.023250" fill="hsl(180.0,100%,20%)">tsepez</text>
<text x="0.645" y="0.443" font-size="0.032880" fill="hsl(180.0,100%,20%)">danakj</text>
<text x="0.137" y="0.235" font-size="0.032880" fill="hsl(180.0,100%,20%)">lukasza</text>
<text x="1.203" y="0.235" font-size="0.056949" fill="hsl(180.0,100%,20%)">dcheng</text>
<text x="0.910" y="0.084" font-size="0.023250" fill="hsl(180.0,100%,20%)">mlippautz</text>
<text x="1.780" y="0.150" font-size="0.040269" fill="hsl(0.0,100%,20%)">jeffyoon</text>
<text x="1.805" y="0.437" font-size="0.023250" fill="hsl(0.0,100%,20%)">davidbienvenu</text>
<text x="1.689" y="0.308" font-size="0.023250" fill="hsl(0.0,100%,20%)">skyostil</text>
<text x="1.472" y="0.112" font-size="0.073521" fill="hsl(0.0,100%,20%)">mikt</text>
<text x="0.195" y="0.417" font-size="0.040269" fill="hsl(180.0,100%,20%)">thakis</text>
<text x="0.479" y="0.296" font-size="0.023250" fill="hsl(180.0,100%,20%)">hans</text>
</svg>
