<svg width="4000" height="2000" viewBox="-0.025 -0.025 2.05 1.05" xmlns="http://www.w3.org/2000/svg">
  <style>
    path {
      fill: none;
      stroke-linecap: round;
      stroke-opacity: 0.4;
    }

    text {
      text-anchor: middle;
      alignment-baseline: hanging;
    }
  </style>
  <g opacity="0.4">
<path d="M0.200 0.485 Q0.827 0.667 1.318 0.400" stroke="hsl(0.0,100%,35%)" stroke-width="0.00432"></path>
<path d="M0.200 0.485 Q0.254 0.540 0.372 0.525" stroke="hsl(0.0,100%,35%)" stroke-width="0.00864"></path>
<path d="M0.200 0.485 Q0.128 0.578 0.293 0.634" stroke="hsl(0.0,100%,35%)" stroke-width="0.01007"></path>
<path d="M0.200 0.485 Q1.061 0.713 1.693 0.343" stroke="hsl(0.0,100%,35%)" stroke-width="0.00576"></path>
<path d="M0.200 0.485 Q1.224 0.653 1.776 0.190" stroke="hsl(0.0,100%,35%)" stroke-width="0.00144"></path>
<path d="M0.200 0.485 Q0.111 0.661 0.434 0.743" stroke="hsl(0.0,100%,35%)" stroke-width="0.00144"></path>
<path d="M1.318 0.400 Q1.454 0.513 1.703 0.472" stroke="hsl(90.0,100%,35%)" stroke-width="0.01871"></path>
<path d="M1.318 0.400 Q1.127 0.430 1.143 0.530" stroke="hsl(90.0,100%,35%)" stroke-width="0.01439"></path>
<path d="M1.318 0.400 Q0.745 0.274 0.372 0.525" stroke="hsl(90.0,100%,35%)" stroke-width="0.01583"></path>
<path d="M1.318 0.400 Q1.552 0.446 1.693 0.343" stroke="hsl(90.0,100%,35%)" stroke-width="0.02303"></path>
<path d="M1.318 0.400 Q1.715 0.387 1.776 0.190" stroke="hsl(90.0,100%,35%)" stroke-width="0.01007"></path>
<path d="M1.318 0.400 Q1.144 0.379 1.064 0.459" stroke="hsl(90.0,100%,35%)" stroke-width="0.00144"></path>
<path d="M1.318 0.400 Q1.415 0.655 1.933 0.665" stroke="hsl(90.0,100%,35%)" stroke-width="0.00144"></path>
<path d="M1.318 0.400 Q1.266 0.472 1.394 0.513" stroke="hsl(90.0,100%,35%)" stroke-width="0.01151"></path>
<path d="M1.318 0.400 Q1.694 0.468 1.909 0.300" stroke="hsl(90.0,100%,35%)" stroke-width="0.00432"></path>
<path d="M1.318 0.400 Q1.362 0.446 1.461 0.435" stroke="hsl(90.0,100%,35%)" stroke-width="0.00288"></path>
<path d="M1.318 0.400 Q1.635 0.225 1.362 0.032" stroke="hsl(90.0,100%,35%)" stroke-width="0.00144"></path>
<path d="M1.318 0.400 Q0.602 0.395 0.434 0.743" stroke="hsl(90.0,100%,35%)" stroke-width="0.01151"></path>
<path d="M1.318 0.400 Q0.756 0.370 0.573 0.638" stroke="hsl(90.0,100%,35%)" stroke-width="0.00144"></path>
<path d="M1.318 0.400 Q1.393 0.582 1.763 0.586" stroke="hsl(90.0,100%,35%)" stroke-width="0.00144"></path>
<path d="M1.318 0.400 Q1.311 0.696 1.886 0.765" stroke="hsl(90.0,100%,35%)" stroke-width="0.00144"></path>
<path d="M1.318 0.400 Q1.048 0.552 1.284 0.717" stroke="hsl(90.0,100%,35%)" stroke-width="0.01007"></path>
<path d="M1.318 0.400 Q1.470 0.412 1.527 0.341" stroke="hsl(90.0,100%,35%)" stroke-width="0.00144"></path>
<path d="M1.318 0.400 Q1.340 0.468 1.478 0.473" stroke="hsl(90.0,100%,35%)" stroke-width="0.00288"></path>
<path d="M1.318 0.400 Q0.797 0.181 0.254 0.387" stroke="hsl(90.0,100%,35%)" stroke-width="0.00144"></path>
<path d="M1.318 0.400 Q0.619 0.312 0.293 0.634" stroke="hsl(90.0,100%,35%)" stroke-width="0.00720"></path>
<path d="M1.318 0.400 Q0.612 0.477 0.606 0.838" stroke="hsl(90.0,100%,35%)" stroke-width="0.00288"></path>
<path d="M1.318 0.400 Q0.735 0.366 0.539 0.643" stroke="hsl(90.0,100%,35%)" stroke-width="0.00144"></path>
<path d="M1.318 0.400 Q1.266 0.493 1.435 0.539" stroke="hsl(90.0,100%,35%)" stroke-width="0.00144"></path>
<path d="M1.318 0.400 Q1.324 0.247 1.025 0.211" stroke="hsl(90.0,100%,35%)" stroke-width="0.00144"></path>
<path d="M0.372 0.525 Q0.246 0.564 0.293 0.634" stroke="hsl(0.0,100%,35%)" stroke-width="0.04606"></path>
<path d="M0.372 0.525 Q0.229 0.647 0.434 0.743" stroke="hsl(0.0,100%,35%)" stroke-width="0.01727"></path>
<path d="M0.372 0.525 Q1.080 0.765 1.703 0.472" stroke="hsl(0.0,100%,35%)" stroke-width="0.01583"></path>
<path d="M0.372 0.525 Q0.945 0.652 1.318 0.400" stroke="hsl(0.0,100%,35%)" stroke-width="0.02159"></path>
<path d="M0.372 0.525 Q0.239 0.728 0.606 0.838" stroke="hsl(0.0,100%,35%)" stroke-width="0.00144"></path>
<path d="M0.372 0.525 Q1.342 0.639 1.776 0.190" stroke="hsl(0.0,100%,35%)" stroke-width="0.00288"></path>
<path d="M0.372 0.525 Q0.951 0.499 1.025 0.211" stroke="hsl(0.0,100%,35%)" stroke-width="0.00144"></path>
<path d="M0.372 0.525 Q0.276 0.502 0.210 0.544" stroke="hsl(0.0,100%,35%)" stroke-width="0.00144"></path>
<path d="M0.372 0.525 Q0.362 0.617 0.539 0.643" stroke="hsl(0.0,100%,35%)" stroke-width="0.00144"></path>
<path d="M0.372 0.525 Q0.675 0.804 1.284 0.717" stroke="hsl(0.0,100%,35%)" stroke-width="0.00144"></path>
<path d="M0.372 0.525 Q0.511 0.461 0.416 0.379" stroke="hsl(0.0,100%,35%)" stroke-width="0.00144"></path>
<path d="M0.293 0.634 Q1.226 0.769 1.693 0.343" stroke="hsl(0.0,100%,35%)" stroke-width="0.00144"></path>
<path d="M0.293 0.634 Q0.410 0.688 0.539 0.643" stroke="hsl(0.0,100%,35%)" stroke-width="0.00144"></path>
<path d="M0.293 0.634 Q0.277 0.717 0.434 0.743" stroke="hsl(0.0,100%,35%)" stroke-width="0.03742"></path>
<path d="M0.293 0.634 Q0.993 0.722 1.318 0.400" stroke="hsl(0.0,100%,35%)" stroke-width="0.01007"></path>
<path d="M0.293 0.634 Q0.941 0.794 1.394 0.513" stroke="hsl(0.0,100%,35%)" stroke-width="0.00144"></path>
<path d="M0.293 0.634 Q0.723 0.874 1.284 0.717" stroke="hsl(0.0,100%,35%)" stroke-width="0.00288"></path>
<path d="M0.293 0.634 Q0.180 0.684 0.251 0.750" stroke="hsl(0.0,100%,35%)" stroke-width="0.00720"></path>
<path d="M0.293 0.634 Q0.998 0.569 1.025 0.211" stroke="hsl(0.0,100%,35%)" stroke-width="0.00288"></path>
<path d="M0.293 0.634 Q0.528 0.644 0.599 0.532" stroke="hsl(0.0,100%,35%)" stroke-width="0.00144"></path>
<path d="M0.293 0.634 Q0.430 0.692 0.573 0.638" stroke="hsl(0.0,100%,35%)" stroke-width="0.00144"></path>
<path d="M0.293 0.634 Q0.420 0.596 0.372 0.525" stroke="hsl(0.0,100%,35%)" stroke-width="0.00720"></path>
<path d="M0.293 0.634 Q1.089 0.977 1.933 0.665" stroke="hsl(0.0,100%,35%)" stroke-width="0.00144"></path>
<path d="M0.293 0.634 Q1.390 0.709 1.776 0.190" stroke="hsl(0.0,100%,35%)" stroke-width="0.00144"></path>
<path d="M1.693 0.343 Q1.856 0.283 1.776 0.190" stroke="hsl(90.0,100%,35%)" stroke-width="0.00432"></path>
<path d="M1.693 0.343 Q1.460 0.297 1.318 0.400" stroke="hsl(90.0,100%,35%)" stroke-width="0.04030"></path>
<path d="M1.693 0.343 Q0.753 0.373 0.606 0.838" stroke="hsl(90.0,100%,35%)" stroke-width="0.00144"></path>
<path d="M1.693 0.343 Q1.836 0.365 1.909 0.300" stroke="hsl(90.0,100%,35%)" stroke-width="0.00288"></path>
<path d="M1.693 0.343 Q0.760 0.209 0.293 0.634" stroke="hsl(90.0,100%,35%)" stroke-width="0.00720"></path>
<path d="M1.693 0.343 Q1.595 0.410 1.703 0.472" stroke="hsl(90.0,100%,35%)" stroke-width="0.03166"></path>
<path d="M1.693 0.343 Q1.465 0.143 1.025 0.211" stroke="hsl(90.0,100%,35%)" stroke-width="0.01007"></path>
<path d="M1.693 0.343 Q0.886 0.170 0.372 0.525" stroke="hsl(90.0,100%,35%)" stroke-width="0.00288"></path>
<path d="M1.693 0.343 Q1.738 0.356 1.774 0.337" stroke="hsl(90.0,100%,35%)" stroke-width="0.00144"></path>
<path d="M1.693 0.343 Q1.556 0.552 1.933 0.665" stroke="hsl(90.0,100%,35%)" stroke-width="0.00288"></path>
<path d="M1.693 0.343 Q1.183 0.518 1.412 0.805" stroke="hsl(90.0,100%,35%)" stroke-width="0.00144"></path>
<path d="M1.693 0.343 Q0.743 0.291 0.434 0.743" stroke="hsl(90.0,100%,35%)" stroke-width="0.00432"></path>
<path d="M1.693 0.343 Q1.611 0.309 1.527 0.341" stroke="hsl(90.0,100%,35%)" stroke-width="0.00432"></path>
<path d="M1.693 0.343 Q1.584 0.369 1.611 0.428" stroke="hsl(90.0,100%,35%)" stroke-width="0.00288"></path>
<path d="M1.693 0.343 Q1.570 0.371 1.597 0.437" stroke="hsl(90.0,100%,35%)" stroke-width="0.00144"></path>
<path d="M1.693 0.343 Q0.646 0.258 0.251 0.750" stroke="hsl(90.0,100%,35%)" stroke-width="0.00288"></path>
<path d="M1.693 0.343 Q1.780 0.412 1.935 0.385" stroke="hsl(90.0,100%,35%)" stroke-width="0.00144"></path>
<path d="M1.776 0.190 Q1.379 0.204 1.318 0.400" stroke="hsl(90.0,100%,35%)" stroke-width="0.03886"></path>
<path d="M1.776 0.190 Q1.755 0.272 1.909 0.300" stroke="hsl(90.0,100%,35%)" stroke-width="0.04893"></path>
<path d="M1.776 0.190 Q0.679 0.116 0.293 0.634" stroke="hsl(90.0,100%,35%)" stroke-width="0.00720"></path>
<path d="M1.776 0.190 Q1.612 0.250 1.693 0.343" stroke="hsl(90.0,100%,35%)" stroke-width="0.00144"></path>
<path d="M1.776 0.190 Q1.664 0.173 1.606 0.223" stroke="hsl(90.0,100%,35%)" stroke-width="0.00144"></path>
<path d="M1.776 0.190 Q0.663 0.198 0.434 0.743" stroke="hsl(90.0,100%,35%)" stroke-width="0.00144"></path>
<path d="M1.776 0.190 Q1.384 0.050 1.025 0.211" stroke="hsl(90.0,100%,35%)" stroke-width="0.00288"></path>
<path d="M1.776 0.190 Q1.825 0.220 1.893 0.202" stroke="hsl(90.0,100%,35%)" stroke-width="0.00144"></path>
<path d="M1.776 0.190 Q1.514 0.317 1.703 0.472" stroke="hsl(90.0,100%,35%)" stroke-width="0.00144"></path>
<path d="M0.434 0.743 Q1.383 0.795 1.693 0.343" stroke="hsl(0.0,100%,35%)" stroke-width="0.00144"></path>
<path d="M0.434 0.743 Q0.451 0.661 0.293 0.634" stroke="hsl(0.0,100%,35%)" stroke-width="0.00864"></path>
<path d="M0.434 0.743 Q1.150 0.749 1.318 0.400" stroke="hsl(0.0,100%,35%)" stroke-width="0.00144"></path>
<path d="M0.434 0.743 Q1.156 0.595 1.025 0.211" stroke="hsl(0.0,100%,35%)" stroke-width="0.00144"></path>
<path d="M0.434 0.743 Q0.657 0.792 0.801 0.694" stroke="hsl(0.0,100%,35%)" stroke-width="0.00144"></path>
<path d="M0.434 0.743 Q0.690 0.778 0.814 0.661" stroke="hsl(0.0,100%,35%)" stroke-width="0.00144"></path>
<path d="M0.434 0.743 Q0.630 0.769 0.723 0.678" stroke="hsl(0.0,100%,35%)" stroke-width="0.00144"></path>
<path d="M0.434 0.743 Q1.275 0.821 1.611 0.428" stroke="hsl(0.0,100%,35%)" stroke-width="0.00288"></path>
<path d="M0.434 0.743 Q0.337 0.710 0.251 0.750" stroke="hsl(0.0,100%,35%)" stroke-width="0.00144"></path>
<path d="M0.421 0.973 Q0.408 0.883 0.230 0.870" stroke="hsl(180.0,100%,35%)" stroke-width="0.00144"></path>
<path d="M0.421 0.973 Q1.057 1.017 1.284 0.717" stroke="hsl(180.0,100%,35%)" stroke-width="0.00432"></path>
<path d="M0.421 0.973 Q0.544 1.017 0.657 0.966" stroke="hsl(180.0,100%,35%)" stroke-width="0.00144"></path>
<path d="M0.421 0.973 Q0.374 0.918 0.258 0.929" stroke="hsl(180.0,100%,35%)" stroke-width="0.00144"></path>
<path d="M1.284 0.717 Q1.650 0.820 1.933 0.665" stroke="hsl(180.0,100%,35%)" stroke-width="0.00144"></path>
<path d="M1.284 0.717 Q1.162 0.705 1.113 0.763" stroke="hsl(180.0,100%,35%)" stroke-width="0.00144"></path>
<path d="M1.284 0.717 Q1.278 0.786 1.412 0.805" stroke="hsl(180.0,100%,35%)" stroke-width="0.00288"></path>
<path d="M1.284 0.717 Q1.690 0.678 1.703 0.472" stroke="hsl(180.0,100%,35%)" stroke-width="0.00144"></path>
<path d="M1.284 0.717 Q1.164 0.780 1.261 0.853" stroke="hsl(180.0,100%,35%)" stroke-width="0.00144"></path>
<path d="M1.284 0.717 Q1.554 0.565 1.318 0.400" stroke="hsl(180.0,100%,35%)" stroke-width="0.00144"></path>
<path d="M1.284 0.717 Q0.838 0.560 0.434 0.743" stroke="hsl(180.0,100%,35%)" stroke-width="0.00432"></path>
<path d="M1.064 0.459 Q1.238 0.481 1.318 0.400" stroke="hsl(270.0,100%,35%)" stroke-width="0.00864"></path>
<path d="M1.064 0.459 Q1.334 0.736 1.933 0.665" stroke="hsl(270.0,100%,35%)" stroke-width="0.00288"></path>
<path d="M1.064 0.459 Q1.635 0.467 1.776 0.190" stroke="hsl(270.0,100%,35%)" stroke-width="0.00288"></path>
<path d="M1.064 0.459 Q1.522 0.371 1.449 0.128" stroke="hsl(270.0,100%,35%)" stroke-width="0.00144"></path>
<path d="M0.889 0.392 Q1.089 0.778 1.886 0.765" stroke="hsl(270.0,100%,35%)" stroke-width="0.00432"></path>
<path d="M0.889 0.392 Q0.776 0.385 0.738 0.439" stroke="hsl(270.0,100%,35%)" stroke-width="0.00432"></path>
<path d="M0.889 0.392 Q0.725 0.431 0.765 0.520" stroke="hsl(270.0,100%,35%)" stroke-width="0.00144"></path>
<path d="M1.763 0.586 Q1.785 0.659 1.933 0.665" stroke="hsl(270.0,100%,35%)" stroke-width="0.00288"></path>
<path d="M1.763 0.586 Q1.824 0.517 1.703 0.472" stroke="hsl(270.0,100%,35%)" stroke-width="0.00576"></path>
<path d="M1.763 0.586 Q1.689 0.404 1.318 0.400" stroke="hsl(270.0,100%,35%)" stroke-width="0.00144"></path>
<path d="M1.763 0.586 Q1.814 0.476 1.611 0.428" stroke="hsl(270.0,100%,35%)" stroke-width="0.00144"></path>
<path d="M1.763 0.586 Q0.876 0.366 0.251 0.750" stroke="hsl(270.0,100%,35%)" stroke-width="0.00144"></path>
<path d="M1.703 0.472 Q1.568 0.359 1.318 0.400" stroke="hsl(90.0,100%,35%)" stroke-width="0.02015"></path>
<path d="M1.703 0.472 Q1.801 0.405 1.693 0.343" stroke="hsl(90.0,100%,35%)" stroke-width="0.00144"></path>
<path d="M1.703 0.472 Q1.867 0.482 1.923 0.405" stroke="hsl(90.0,100%,35%)" stroke-width="0.00144"></path>
<path d="M1.703 0.472 Q1.420 0.658 1.720 0.837" stroke="hsl(90.0,100%,35%)" stroke-width="0.00144"></path>
<path d="M1.909 0.300 Q1.539 0.078 1.025 0.211" stroke="hsl(90.0,100%,35%)" stroke-width="0.00144"></path>
<path d="M1.909 0.300 Q1.712 0.082 1.243 0.130" stroke="hsl(90.0,100%,35%)" stroke-width="0.00144"></path>
<path d="M1.909 0.300 Q1.526 0.528 1.886 0.765" stroke="hsl(90.0,100%,35%)" stroke-width="0.00144"></path>
<path d="M1.025 0.211 Q1.417 0.350 1.776 0.190" stroke="hsl(90.0,100%,35%)" stroke-width="0.00288"></path>
<path d="M1.025 0.211 Q1.172 0.376 1.527 0.341" stroke="hsl(90.0,100%,35%)" stroke-width="0.00144"></path>
<path d="M1.025 0.211 Q1.020 0.364 1.318 0.400" stroke="hsl(90.0,100%,35%)" stroke-width="0.00144"></path>
<path d="M1.025 0.211 Q0.320 0.276 0.293 0.634" stroke="hsl(90.0,100%,35%)" stroke-width="0.00432"></path>
<path d="M1.025 0.211 Q0.971 0.117 0.777 0.123" stroke="hsl(90.0,100%,35%)" stroke-width="0.00144"></path>
<path d="M1.638 0.780 Q1.878 0.782 1.933 0.665" stroke="hsl(270.0,100%,35%)" stroke-width="0.01007"></path>
<path d="M1.638 0.780 Q1.082 0.439 0.293 0.634" stroke="hsl(270.0,100%,35%)" stroke-width="0.00144"></path>
<path d="M1.638 0.780 Q1.917 0.639 1.703 0.472" stroke="hsl(270.0,100%,35%)" stroke-width="0.00144"></path>
<path d="M1.638 0.780 Q1.774 0.822 1.886 0.765" stroke="hsl(270.0,100%,35%)" stroke-width="0.01439"></path>
<path d="M1.638 0.780 Q1.662 0.857 1.816 0.862" stroke="hsl(270.0,100%,35%)" stroke-width="0.00288"></path>
<path d="M1.638 0.780 Q1.510 0.835 1.589 0.909" stroke="hsl(270.0,100%,35%)" stroke-width="0.00144"></path>
<path d="M1.638 0.780 Q1.633 0.825 1.720 0.837" stroke="hsl(270.0,100%,35%)" stroke-width="0.00144"></path>
<path d="M1.638 0.780 Q1.696 0.863 1.869 0.852" stroke="hsl(270.0,100%,35%)" stroke-width="0.00144"></path>
<path d="M1.638 0.780 Q1.533 0.796 1.540 0.850" stroke="hsl(270.0,100%,35%)" stroke-width="0.00144"></path>
<path d="M1.638 0.780 Q1.782 0.527 1.318 0.400" stroke="hsl(270.0,100%,35%)" stroke-width="0.00144"></path>
<path d="M1.143 0.530 Q1.335 0.500 1.318 0.400" stroke="hsl(90.0,100%,35%)" stroke-width="0.00432"></path>
<path d="M1.143 0.530 Q1.031 0.516 0.978 0.568" stroke="hsl(90.0,100%,35%)" stroke-width="0.00144"></path>
<path d="M1.143 0.530 Q0.813 0.281 0.254 0.387" stroke="hsl(90.0,100%,35%)" stroke-width="0.00144"></path>
<path d="M1.394 0.513 Q1.843 0.428 1.776 0.190" stroke="hsl(90.0,100%,35%)" stroke-width="0.00144"></path>
<path d="M1.394 0.513 Q1.447 0.442 1.318 0.400" stroke="hsl(90.0,100%,35%)" stroke-width="0.02159"></path>
<path d="M1.394 0.513 Q1.452 0.288 1.025 0.211" stroke="hsl(90.0,100%,35%)" stroke-width="0.00864"></path>
<path d="M1.394 0.513 Q0.873 0.315 0.372 0.525" stroke="hsl(90.0,100%,35%)" stroke-width="0.00576"></path>
<path d="M1.394 0.513 Q0.730 0.436 0.434 0.743" stroke="hsl(90.0,100%,35%)" stroke-width="0.00288"></path>
<path d="M1.394 0.513 Q1.823 0.509 1.909 0.300" stroke="hsl(90.0,100%,35%)" stroke-width="0.00288"></path>
<path d="M1.461 0.435 Q1.417 0.389 1.318 0.400" stroke="hsl(90.0,100%,35%)" stroke-width="0.00144"></path>
<path d="M1.461 0.435 Q1.423 0.235 1.025 0.211" stroke="hsl(90.0,100%,35%)" stroke-width="0.00144"></path>
<path d="M1.461 0.435 Q1.553 0.502 1.703 0.472" stroke="hsl(90.0,100%,35%)" stroke-width="0.00144"></path>
<path d="M0.254 0.387 Q0.506 0.758 1.284 0.717" stroke="hsl(0.0,100%,35%)" stroke-width="0.00144"></path>
<path d="M0.254 0.387 Q0.203 0.480 0.372 0.525" stroke="hsl(0.0,100%,35%)" stroke-width="0.00432"></path>
<path d="M0.254 0.387 Q0.911 0.720 1.703 0.472" stroke="hsl(0.0,100%,35%)" stroke-width="0.00144"></path>
<path d="M0.254 0.387 Q0.076 0.519 0.293 0.634" stroke="hsl(0.0,100%,35%)" stroke-width="0.00144"></path>
<path d="M0.254 0.387 Q0.393 0.328 0.308 0.247" stroke="hsl(0.0,100%,35%)" stroke-width="0.00144"></path>
<path d="M1.243 0.130 Q1.191 0.184 1.284 0.221" stroke="hsl(180.0,100%,35%)" stroke-width="0.00144"></path>
<path d="M1.243 0.130 Q0.365 0.192 0.293 0.634" stroke="hsl(180.0,100%,35%)" stroke-width="0.00144"></path>
<path d="M1.243 0.130 Q1.070 0.127 1.025 0.211" stroke="hsl(180.0,100%,35%)" stroke-width="0.00144"></path>
<path d="M0.461 0.835 Q0.531 0.865 0.606 0.838" stroke="hsl(90.0,100%,35%)" stroke-width="0.00144"></path>
<path d="M0.461 0.835 Q1.372 0.902 1.703 0.472" stroke="hsl(90.0,100%,35%)" stroke-width="0.00144"></path>
<path d="M0.461 0.835 Q1.237 0.789 1.318 0.400" stroke="hsl(90.0,100%,35%)" stroke-width="0.00144"></path>
<path d="M0.777 0.123 Q0.818 0.666 1.886 0.765" stroke="hsl(270.0,100%,35%)" stroke-width="0.00144"></path>
<path d="M0.777 0.123 Q0.831 0.217 1.025 0.211" stroke="hsl(270.0,100%,35%)" stroke-width="0.00288"></path>
<path d="M0.777 0.123 Q0.930 0.122 0.961 0.047" stroke="hsl(270.0,100%,35%)" stroke-width="0.00144"></path>
<path d="M0.451 0.144 Q0.485 0.211 0.622 0.209" stroke="hsl(270.0,100%,35%)" stroke-width="0.00144"></path>
<path d="M0.451 0.144 Q0.776 0.701 1.933 0.665" stroke="hsl(270.0,100%,35%)" stroke-width="0.00144"></path>
<path d="M0.451 0.144 Q0.528 0.110 0.478 0.064" stroke="hsl(270.0,100%,35%)" stroke-width="0.00144"></path>
<path d="M1.284 0.221 Q1.157 0.317 1.318 0.400" stroke="hsl(180.0,100%,35%)" stroke-width="0.00144"></path>
<path d="M1.284 0.221 Q1.335 0.167 1.243 0.130" stroke="hsl(180.0,100%,35%)" stroke-width="0.00144"></path>
<path d="M1.284 0.221 Q1.201 0.363 1.461 0.435" stroke="hsl(180.0,100%,35%)" stroke-width="0.00144"></path>
<path d="M1.284 0.221 Q0.251 0.424 0.421 0.973" stroke="hsl(180.0,100%,35%)" stroke-width="0.00144"></path>
<path d="M0.976 0.093 Q0.907 0.162 1.025 0.211" stroke="hsl(270.0,100%,35%)" stroke-width="0.00144"></path>
<path d="M0.976 0.093 Q0.852 0.068 0.777 0.123" stroke="hsl(270.0,100%,35%)" stroke-width="0.00144"></path>
<path d="M0.976 0.093 Q0.511 0.530 1.261 0.853" stroke="hsl(270.0,100%,35%)" stroke-width="0.00144"></path>
<path d="M1.261 0.853 Q1.382 0.789 1.284 0.717" stroke="hsl(180.0,100%,35%)" stroke-width="0.00576"></path>
<path d="M1.261 0.853 Q1.657 0.485 1.025 0.211" stroke="hsl(180.0,100%,35%)" stroke-width="0.00144"></path>
<path d="M1.261 0.853 Q1.937 0.607 1.606 0.223" stroke="hsl(180.0,100%,35%)" stroke-width="0.00144"></path>
<path d="M1.261 0.853 Q1.111 0.748 0.874 0.799" stroke="hsl(180.0,100%,35%)" stroke-width="0.00144"></path>
<path d="M1.261 0.853 Q1.652 0.638 1.318 0.400" stroke="hsl(180.0,100%,35%)" stroke-width="0.00144"></path>
<path d="M1.541 0.687 Q1.664 0.345 1.025 0.211" stroke="hsl(270.0,100%,35%)" stroke-width="0.00144"></path>
<path d="M1.541 0.687 Q1.376 0.755 1.473 0.850" stroke="hsl(270.0,100%,35%)" stroke-width="0.00144"></path>
<path d="M1.541 0.687 Q1.755 0.754 1.933 0.665" stroke="hsl(270.0,100%,35%)" stroke-width="0.00288"></path>
<path d="M1.541 0.687 Q0.959 0.411 0.293 0.634" stroke="hsl(270.0,100%,35%)" stroke-width="0.00144"></path>
<path d="M1.541 0.687 Q1.659 0.499 1.318 0.400" stroke="hsl(270.0,100%,35%)" stroke-width="0.00144"></path>
<path d="M1.265 0.964 Q1.173 0.933 1.093 0.970" stroke="hsl(180.0,100%,35%)" stroke-width="0.00144"></path>
<path d="M1.265 0.964 Q1.748 0.539 1.025 0.211" stroke="hsl(180.0,100%,35%)" stroke-width="0.00144"></path>
<path d="M1.265 0.964 Q1.352 0.984 1.410 0.946" stroke="hsl(180.0,100%,35%)" stroke-width="0.00144"></path>
<path d="M1.032 0.634 Q0.958 0.562 0.801 0.581" stroke="hsl(180.0,100%,35%)" stroke-width="0.00144"></path>
<path d="M1.032 0.634 Q1.092 0.726 1.284 0.717" stroke="hsl(180.0,100%,35%)" stroke-width="0.00288"></path>
<path d="M1.032 0.634 Q1.362 0.575 1.318 0.400" stroke="hsl(180.0,100%,35%)" stroke-width="0.00288"></path>
<path d="M1.032 0.634 Q0.662 0.487 0.293 0.634" stroke="hsl(180.0,100%,35%)" stroke-width="0.00144"></path>
<path d="M1.789 0.945 Q1.990 0.579 1.318 0.400" stroke="hsl(270.0,100%,35%)" stroke-width="0.00144"></path>
<path d="M1.789 0.945 Q1.801 0.902 1.720 0.886" stroke="hsl(270.0,100%,35%)" stroke-width="0.00144"></path>
<path d="M1.789 0.945 Q1.841 0.940 1.842 0.913" stroke="hsl(270.0,100%,35%)" stroke-width="0.00144"></path>
<path d="M1.960 0.433 Q2.041 0.356 1.909 0.300" stroke="hsl(90.0,100%,35%)" stroke-width="0.00288"></path>
<path d="M1.960 0.433 Q2.062 0.274 1.776 0.190" stroke="hsl(90.0,100%,35%)" stroke-width="0.00144"></path>
<path d="M1.960 0.433 Q1.665 0.288 1.318 0.400" stroke="hsl(90.0,100%,35%)" stroke-width="0.00144"></path>
<path d="M1.431 0.227 Q0.965 0.442 1.284 0.717" stroke="hsl(180.0,100%,35%)" stroke-width="0.00144"></path>
<path d="M1.431 0.227 Q1.519 0.181 1.449 0.128" stroke="hsl(180.0,100%,35%)" stroke-width="0.00144"></path>
<path d="M1.431 0.227 Q1.371 0.404 1.703 0.472" stroke="hsl(180.0,100%,35%)" stroke-width="0.00144"></path>
<path d="M1.431 0.227 Q0.536 0.203 0.293 0.634" stroke="hsl(180.0,100%,35%)" stroke-width="0.00144"></path>
<path d="M1.431 0.227 Q1.236 0.291 1.318 0.400" stroke="hsl(180.0,100%,35%)" stroke-width="0.00144"></path>
<path d="M1.522 0.082 Q1.481 0.025 1.362 0.032" stroke="hsl(180.0,100%,35%)" stroke-width="0.00144"></path>
<path d="M1.522 0.082 Q1.440 0.093 1.444 0.135" stroke="hsl(180.0,100%,35%)" stroke-width="0.00144"></path>
<path d="M1.522 0.082 Q0.895 0.351 1.284 0.717" stroke="hsl(180.0,100%,35%)" stroke-width="0.00144"></path>
</g>
<text x="0.200" y="0.472" font-size="0.026365" fill="hsl(0.0,100%,20%)">adarom</text>
<text x="1.318" y="0.357" font-size="0.086716" fill="hsl(90.0,100%,20%)">bartekn</text>
<text x="0.372" y="0.496" font-size="0.058685" fill="hsl(0.0,100%,20%)">kdlee</text>
<text x="0.293" y="0.603" font-size="0.062340" fill="hsl(0.0,100%,20%)">tasak</text>
<text x="1.693" y="0.313" font-size="0.058953" fill="hsl(90.0,100%,20%)">mikt</text>
<text x="1.776" y="0.163" font-size="0.054207" fill="hsl(90.0,100%,20%)">arthursonzogni</text>
<text x="0.434" y="0.719" font-size="0.047363" fill="hsl(0.0,100%,20%)">yukishiino</text>
<text x="0.421" y="0.965" font-size="0.014872" fill="hsl(180.0,100%,20%)">agrieve</text>
<text x="0.230" y="0.867" font-size="0.005621" fill="hsl(180.0,100%,20%)">ayzhao</text>
<text x="1.284" y="0.701" font-size="0.031797" fill="hsl(180.0,100%,20%)">lizeb</text>
<text x="0.657" y="0.963" font-size="0.005621" fill="hsl(180.0,100%,20%)">richard.townsend</text>
<text x="0.258" y="0.927" font-size="0.005621" fill="hsl(180.0,100%,20%)">wnwen</text>
<text x="1.064" y="0.450" font-size="0.019472" fill="hsl(270.0,100%,20%)">ahijazi</text>
<text x="1.933" y="0.652" font-size="0.024501" fill="hsl(270.0,100%,20%)">haraken</text>
<text x="1.449" y="0.124" font-size="0.007949" fill="hsl(270.0,100%,20%)">nuskos</text>
<text x="0.889" y="0.385" font-size="0.014872" fill="hsl(270.0,100%,20%)">ajuma</text>
<text x="1.886" y="0.754" font-size="0.022484" fill="hsl(270.0,100%,20%)">mark</text>
<text x="0.738" y="0.434" font-size="0.009736" fill="hsl(270.0,100%,20%)">vollick</text>
<text x="0.765" y="0.517" font-size="0.005621" fill="hsl(270.0,100%,20%)">anthonyvd</text>
<text x="1.763" y="0.577" font-size="0.017775" fill="hsl(270.0,100%,20%)">andre.kempe</text>
<text x="1.703" y="0.448" font-size="0.048354" fill="hsl(90.0,100%,20%)">keishi</text>
<text x="1.611" y="0.421" font-size="0.012569" fill="hsl(270.0,100%,20%)">mpdenton</text>
<text x="0.251" y="0.742" font-size="0.016863" fill="hsl(270.0,100%,20%)">wfh</text>
<text x="1.909" y="0.281" font-size="0.038123" fill="hsl(90.0,100%,20%)">danakj</text>
<text x="1.606" y="0.219" font-size="0.007949" fill="hsl(180.0,100%,20%)">jam</text>
<text x="1.025" y="0.193" font-size="0.034191" fill="hsl(90.0,100%,20%)">dcheng</text>
<text x="1.893" y="0.200" font-size="0.005621" fill="hsl(90.0,100%,20%)">ashleynewson</text>
<text x="1.638" y="0.766" font-size="0.028662" fill="hsl(270.0,100%,20%)">avi</text>
<text x="1.816" y="0.858" font-size="0.007949" fill="hsl(270.0,100%,20%)">sdefresne</text>
<text x="1.589" y="0.906" font-size="0.005621" fill="hsl(270.0,100%,20%)">robertogden</text>
<text x="1.720" y="0.833" font-size="0.007949" fill="hsl(270.0,100%,20%)">rsesek</text>
<text x="1.869" y="0.849" font-size="0.005621" fill="hsl(270.0,100%,20%)">senorblanco</text>
<text x="1.540" y="0.847" font-size="0.005621" fill="hsl(270.0,100%,20%)">zmo</text>
<text x="1.143" y="0.520" font-size="0.021770" fill="hsl(90.0,100%,20%)">glazunov</text>
<text x="1.394" y="0.496" font-size="0.035103" fill="hsl(90.0,100%,20%)">tsepez</text>
<text x="1.461" y="0.428" font-size="0.013769" fill="hsl(90.0,100%,20%)">lukasza</text>
<text x="1.362" y="0.028" font-size="0.007949" fill="hsl(180.0,100%,20%)">brucedawson</text>
<text x="0.573" y="0.634" font-size="0.007949" fill="hsl(0.0,100%,20%)">blundell</text>
<text x="1.527" y="0.335" font-size="0.012569" fill="hsl(90.0,100%,20%)">mlippautz</text>
<text x="1.478" y="0.469" font-size="0.007949" fill="hsl(90.0,100%,20%)">ssid</text>
<text x="0.254" y="0.379" font-size="0.016863" fill="hsl(0.0,100%,20%)">thestig</text>
<text x="0.606" y="0.832" font-size="0.012569" fill="hsl(90.0,100%,20%)">bikineev</text>
<text x="0.539" y="0.638" font-size="0.009736" fill="hsl(0.0,100%,20%)">thiabaud</text>
<text x="1.435" y="0.536" font-size="0.005621" fill="hsl(90.0,100%,20%)">junov</text>
<text x="1.243" y="0.124" font-size="0.012569" fill="hsl(180.0,100%,20%)">hans</text>
<text x="0.461" y="0.830" font-size="0.009736" fill="hsl(90.0,100%,20%)">davidben</text>
<text x="0.777" y="0.116" font-size="0.013769" fill="hsl(270.0,100%,20%)">pkasting</text>
<text x="0.451" y="0.140" font-size="0.009736" fill="hsl(270.0,100%,20%)">fmil</text>
<text x="0.622" y="0.206" font-size="0.005621" fill="hsl(270.0,100%,20%)">dayeung</text>
<text x="0.478" y="0.061" font-size="0.005621" fill="hsl(270.0,100%,20%)">kojii</text>
<text x="0.978" y="0.565" font-size="0.005621" fill="hsl(90.0,100%,20%)">hashimoto</text>
<text x="1.284" y="0.214" font-size="0.012569" fill="hsl(180.0,100%,20%)">thakis</text>
<text x="0.976" y="0.088" font-size="0.009736" fill="hsl(270.0,100%,20%)">jbroman</text>
<text x="1.261" y="0.844" font-size="0.017775" fill="hsl(180.0,100%,20%)">sky</text>
<text x="1.541" y="0.680" font-size="0.013769" fill="hsl(270.0,100%,20%)">jdapena</text>
<text x="1.473" y="0.847" font-size="0.005621" fill="hsl(270.0,100%,20%)">pbos</text>
<text x="1.265" y="0.959" font-size="0.009736" fill="hsl(180.0,100%,20%)">jeffyoon</text>
<text x="1.093" y="0.967" font-size="0.005621" fill="hsl(180.0,100%,20%)">davidbienvenu</text>
<text x="1.410" y="0.943" font-size="0.005621" fill="hsl(180.0,100%,20%)">skyostil</text>
<text x="1.032" y="0.627" font-size="0.013769" fill="hsl(180.0,100%,20%)">justincohen</text>
<text x="0.801" y="0.579" font-size="0.005621" fill="hsl(180.0,100%,20%)">ginnyhuang</text>
<text x="0.210" y="0.541" font-size="0.005621" fill="hsl(0.0,100%,20%)">leszeks</text>
<text x="0.416" y="0.376" font-size="0.005621" fill="hsl(0.0,100%,20%)">pasko</text>
<text x="1.923" y="0.402" font-size="0.005621" fill="hsl(270.0,100%,20%)">elkurin</text>
<text x="1.789" y="0.941" font-size="0.009736" fill="hsl(270.0,100%,20%)">leimy</text>
<text x="1.720" y="0.884" font-size="0.005621" fill="hsl(270.0,100%,20%)">chikamune</text>
<text x="1.842" y="0.911" font-size="0.005621" fill="hsl(270.0,100%,20%)">kouhei</text>
<text x="1.113" y="0.760" font-size="0.005621" fill="hsl(180.0,100%,20%)">fdoray</text>
<text x="1.412" y="0.800" font-size="0.009736" fill="hsl(180.0,100%,20%)">paulsemel</text>
<text x="1.774" y="0.334" font-size="0.005621" fill="hsl(90.0,100%,20%)">liviutinta</text>
<text x="1.597" y="0.434" font-size="0.005621" fill="hsl(270.0,100%,20%)">caitkp</text>
<text x="1.935" y="0.382" font-size="0.005621" fill="hsl(90.0,100%,20%)">yoavweiss</text>
<text x="0.961" y="0.044" font-size="0.005621" fill="hsl(180.0,100%,20%)">gab</text>
<text x="1.960" y="0.427" font-size="0.011242" fill="hsl(90.0,100%,20%)">pmeuleman</text>
<text x="0.874" y="0.796" font-size="0.005621" fill="hsl(180.0,100%,20%)">ffred</text>
<text x="1.431" y="0.220" font-size="0.012569" fill="hsl(180.0,100%,20%)">stha09</text>
<text x="0.599" y="0.529" font-size="0.005621" fill="hsl(0.0,100%,20%)">erikchen</text>
<text x="0.308" y="0.244" font-size="0.005621" fill="hsl(0.0,100%,20%)">olivierli</text>
<text x="1.522" y="0.077" font-size="0.009736" fill="hsl(180.0,100%,20%)">titouan</text>
<text x="1.444" y="0.132" font-size="0.005621" fill="hsl(180.0,100%,20%)">isaboori</text>
<text x="0.801" y="0.691" font-size="0.005621" fill="hsl(0.0,100%,20%)">dfried</text>
<text x="0.814" y="0.659" font-size="0.005621" fill="hsl(0.0,100%,20%)">msw</text>
<text x="0.723" y="0.676" font-size="0.005621" fill="hsl(0.0,100%,20%)">nektar</text>
</svg>
