<svg width="4000" height="2000" viewBox="-0.025 -0.025 2.05 1.05" xmlns="http://www.w3.org/2000/svg">
  <style>
    path {
      fill: none;
      stroke-linecap: round;
      stroke-opacity: 0.4;
    }

    text {
      text-anchor: middle;
      alignment-baseline: hanging;
    }
  </style>
  <g opacity="0.4">
<path d="M1.523 0.527 Q1.436 0.769 1.889 0.865" stroke="hsl(0.0,100%,35%)" stroke-width="0.00112"></path>
<path d="M1.523 0.527 Q1.595 0.588 1.731 0.566" stroke="hsl(0.0,100%,35%)" stroke-width="0.00112"></path>
<path d="M1.523 0.527 Q1.540 0.538 1.566 0.533" stroke="hsl(0.0,100%,35%)" stroke-width="0.00112"></path>
<path d="M1.737 0.384 Q1.833 0.358 1.803 0.306" stroke="hsl(0.0,100%,35%)" stroke-width="0.00112"></path>
<path d="M1.737 0.384 Q1.446 0.198 1.019 0.299" stroke="hsl(0.0,100%,35%)" stroke-width="0.00112"></path>
<path d="M1.737 0.384 Q1.382 0.555 1.636 0.765" stroke="hsl(0.0,100%,35%)" stroke-width="0.00112"></path>
<path d="M1.737 0.384 Q1.700 0.146 1.227 0.112" stroke="hsl(0.0,100%,35%)" stroke-width="0.00225"></path>
<path d="M1.737 0.384 Q1.588 0.474 1.731 0.566" stroke="hsl(0.0,100%,35%)" stroke-width="0.00112"></path>
<path d="M1.737 0.384 Q1.068 0.314 0.785 0.625" stroke="hsl(0.0,100%,35%)" stroke-width="0.00112"></path>
<path d="M1.737 0.384 Q1.482 0.101 0.872 0.163" stroke="hsl(0.0,100%,35%)" stroke-width="0.00112"></path>
<path d="M0.785 0.625 Q1.416 0.457 1.227 0.112" stroke="hsl(240.0,100%,35%)" stroke-width="0.00337"></path>
<path d="M0.785 0.625 Q0.981 0.676 1.123 0.592" stroke="hsl(240.0,100%,35%)" stroke-width="0.00674"></path>
<path d="M0.785 0.625 Q0.968 0.593 0.946 0.497" stroke="hsl(240.0,100%,35%)" stroke-width="0.00225"></path>
<path d="M0.785 0.625 Q0.847 0.671 0.951 0.651" stroke="hsl(240.0,100%,35%)" stroke-width="0.00112"></path>
<path d="M0.785 0.625 Q1.277 0.495 1.131 0.226" stroke="hsl(240.0,100%,35%)" stroke-width="0.00112"></path>
<path d="M0.785 0.625 Q0.451 0.481 0.096 0.612" stroke="hsl(240.0,100%,35%)" stroke-width="0.00112"></path>
<path d="M0.785 0.625 Q1.198 0.411 0.872 0.163" stroke="hsl(240.0,100%,35%)" stroke-width="0.00225"></path>
<path d="M0.872 0.163 Q0.978 0.536 1.731 0.566" stroke="hsl(120.0,100%,35%)" stroke-width="0.00112"></path>
<path d="M0.872 0.163 Q1.090 0.208 1.227 0.112" stroke="hsl(120.0,100%,35%)" stroke-width="0.07298"></path>
<path d="M0.872 0.163 Q0.658 0.103 0.495 0.195" stroke="hsl(120.0,100%,35%)" stroke-width="0.00112"></path>
<path d="M0.872 0.163 Q0.951 0.246 1.131 0.226" stroke="hsl(120.0,100%,35%)" stroke-width="0.06512"></path>
<path d="M0.872 0.163 Q1.088 0.137 1.085 0.026" stroke="hsl(120.0,100%,35%)" stroke-width="0.00674"></path>
<path d="M0.872 0.163 Q0.845 0.209 0.929 0.232" stroke="hsl(120.0,100%,35%)" stroke-width="0.00786"></path>
<path d="M0.872 0.163 Q0.686 0.019 0.364 0.078" stroke="hsl(120.0,100%,35%)" stroke-width="0.00112"></path>
<path d="M0.872 0.163 Q0.654 0.428 1.123 0.592" stroke="hsl(120.0,100%,35%)" stroke-width="0.02358"></path>
<path d="M0.872 0.163 Q0.391 0.271 0.495 0.529" stroke="hsl(120.0,100%,35%)" stroke-width="0.00112"></path>
<path d="M0.872 0.163 Q1.055 0.326 1.415 0.273" stroke="hsl(120.0,100%,35%)" stroke-width="0.00112"></path>
<path d="M0.872 0.163 Q0.701 0.177 0.690 0.263" stroke="hsl(120.0,100%,35%)" stroke-width="0.00449"></path>
<path d="M0.872 0.163 Q0.786 0.196 0.831 0.245" stroke="hsl(120.0,100%,35%)" stroke-width="0.00561"></path>
<path d="M0.872 0.163 Q1.000 0.064 0.836 -0.020" stroke="hsl(120.0,100%,35%)" stroke-width="0.00225"></path>
<path d="M0.872 0.163 Q0.925 0.096 0.806 0.055" stroke="hsl(120.0,100%,35%)" stroke-width="0.02582"></path>
<path d="M0.872 0.163 Q0.599 0.212 0.635 0.355" stroke="hsl(120.0,100%,35%)" stroke-width="0.01909"></path>
<path d="M0.872 0.163 Q0.459 0.377 0.785 0.625" stroke="hsl(120.0,100%,35%)" stroke-width="0.00225"></path>
<path d="M0.872 0.163 Q0.712 0.146 0.643 0.220" stroke="hsl(120.0,100%,35%)" stroke-width="0.00225"></path>
<path d="M0.872 0.163 Q0.691 0.078 0.485 0.147" stroke="hsl(120.0,100%,35%)" stroke-width="0.00225"></path>
<path d="M0.872 0.163 Q0.799 0.263 0.979 0.321" stroke="hsl(120.0,100%,35%)" stroke-width="0.00112"></path>
<path d="M0.872 0.163 Q0.058 0.421 0.383 0.874" stroke="hsl(120.0,100%,35%)" stroke-width="0.00112"></path>
<path d="M0.872 0.163 Q0.784 0.168 0.775 0.212" stroke="hsl(120.0,100%,35%)" stroke-width="0.00112"></path>
<path d="M0.872 0.163 Q0.536 0.420 0.964 0.640" stroke="hsl(120.0,100%,35%)" stroke-width="0.00112"></path>
<path d="M0.872 0.163 Q0.754 0.209 0.819 0.277" stroke="hsl(120.0,100%,35%)" stroke-width="0.00225"></path>
<path d="M0.872 0.163 Q0.837 0.260 1.019 0.299" stroke="hsl(120.0,100%,35%)" stroke-width="0.00225"></path>
<path d="M0.872 0.163 Q0.891 0.091 0.755 0.066" stroke="hsl(120.0,100%,35%)" stroke-width="0.00225"></path>
<path d="M0.872 0.163 Q0.859 0.201 0.932 0.216" stroke="hsl(120.0,100%,35%)" stroke-width="0.00112"></path>
<path d="M0.872 0.163 Q0.603 0.295 0.801 0.455" stroke="hsl(120.0,100%,35%)" stroke-width="0.00112"></path>
<path d="M0.872 0.163 Q0.467 0.287 0.620 0.511" stroke="hsl(120.0,100%,35%)" stroke-width="0.00225"></path>
<path d="M0.872 0.163 Q0.648 0.160 0.593 0.269" stroke="hsl(120.0,100%,35%)" stroke-width="0.00225"></path>
<path d="M0.872 0.163 Q0.859 0.231 0.989 0.252" stroke="hsl(120.0,100%,35%)" stroke-width="0.00225"></path>
<path d="M0.872 0.163 Q0.995 0.070 0.840 -0.011" stroke="hsl(120.0,100%,35%)" stroke-width="0.00337"></path>
<path d="M0.872 0.163 Q0.621 0.308 0.849 0.462" stroke="hsl(120.0,100%,35%)" stroke-width="0.00112"></path>
<path d="M0.872 0.163 Q0.780 0.117 0.670 0.151" stroke="hsl(120.0,100%,35%)" stroke-width="0.00225"></path>
<path d="M0.872 0.163 Q0.799 0.265 0.984 0.323" stroke="hsl(120.0,100%,35%)" stroke-width="0.00112"></path>
<path d="M0.872 0.163 Q0.816 0.071 0.623 0.078" stroke="hsl(120.0,100%,35%)" stroke-width="0.00112"></path>
<path d="M0.872 0.163 Q0.762 0.165 0.742 0.220" stroke="hsl(120.0,100%,35%)" stroke-width="0.00112"></path>
<path d="M0.872 0.163 Q0.723 0.135 0.636 0.202" stroke="hsl(120.0,100%,35%)" stroke-width="0.00112"></path>
<path d="M0.872 0.163 Q0.741 0.181 0.748 0.249" stroke="hsl(120.0,100%,35%)" stroke-width="0.00112"></path>
<path d="M0.872 0.163 Q1.022 0.143 1.016 0.065" stroke="hsl(120.0,100%,35%)" stroke-width="0.00112"></path>
<path d="M0.872 0.163 Q0.865 0.099 0.740 0.089" stroke="hsl(120.0,100%,35%)" stroke-width="0.00225"></path>
<path d="M0.872 0.163 Q0.731 0.195 0.762 0.271" stroke="hsl(120.0,100%,35%)" stroke-width="0.00112"></path>
<path d="M0.495 0.529 Q0.572 0.545 0.620 0.511" stroke="hsl(0.0,100%,35%)" stroke-width="0.00337"></path>
<path d="M0.495 0.529 Q0.941 0.519 1.019 0.299" stroke="hsl(0.0,100%,35%)" stroke-width="0.00112"></path>
<path d="M0.495 0.529 Q0.950 0.468 0.929 0.232" stroke="hsl(0.0,100%,35%)" stroke-width="0.00112"></path>
<path d="M1.131 0.226 Q1.072 0.298 1.200 0.344" stroke="hsl(120.0,100%,35%)" stroke-width="0.00337"></path>
<path d="M1.131 0.226 Q1.169 0.239 1.203 0.224" stroke="hsl(120.0,100%,35%)" stroke-width="0.00449"></path>
<path d="M1.131 0.226 Q1.268 0.117 1.085 0.026" stroke="hsl(120.0,100%,35%)" stroke-width="0.03144"></path>
<path d="M1.131 0.226 Q1.052 0.143 0.872 0.163" stroke="hsl(120.0,100%,35%)" stroke-width="0.07185"></path>
<path d="M1.131 0.226 Q1.105 0.076 0.806 0.055" stroke="hsl(120.0,100%,35%)" stroke-width="0.00112"></path>
<path d="M1.131 0.226 Q1.270 0.188 1.227 0.112" stroke="hsl(120.0,100%,35%)" stroke-width="0.07185"></path>
<path d="M1.131 0.226 Q1.229 0.283 1.362 0.248" stroke="hsl(120.0,100%,35%)" stroke-width="0.00112"></path>
<path d="M1.131 0.226 Q1.077 0.212 1.038 0.236" stroke="hsl(120.0,100%,35%)" stroke-width="0.00225"></path>
<path d="M1.131 0.226 Q1.025 0.189 0.929 0.232" stroke="hsl(120.0,100%,35%)" stroke-width="0.00674"></path>
<path d="M1.131 0.226 Q0.835 0.407 1.123 0.592" stroke="hsl(120.0,100%,35%)" stroke-width="0.00449"></path>
<path d="M1.131 0.226 Q0.780 0.191 0.635 0.355" stroke="hsl(120.0,100%,35%)" stroke-width="0.00337"></path>
<path d="M1.131 0.226 Q1.155 0.300 1.305 0.305" stroke="hsl(120.0,100%,35%)" stroke-width="0.00112"></path>
<path d="M1.131 0.226 Q0.238 0.400 0.383 0.874" stroke="hsl(120.0,100%,35%)" stroke-width="0.00112"></path>
<path d="M1.131 0.226 Q1.296 0.095 1.076 -0.014" stroke="hsl(120.0,100%,35%)" stroke-width="0.00112"></path>
<path d="M1.131 0.226 Q1.236 0.306 1.415 0.273" stroke="hsl(120.0,100%,35%)" stroke-width="0.00449"></path>
<path d="M1.131 0.226 Q0.953 0.596 1.636 0.765" stroke="hsl(120.0,100%,35%)" stroke-width="0.00225"></path>
<path d="M1.131 0.226 Q1.156 0.268 1.243 0.265" stroke="hsl(120.0,100%,35%)" stroke-width="0.00112"></path>
<path d="M1.131 0.226 Q1.248 0.270 1.360 0.222" stroke="hsl(120.0,100%,35%)" stroke-width="0.00225"></path>
<path d="M1.131 0.226 Q1.171 0.613 1.936 0.679" stroke="hsl(120.0,100%,35%)" stroke-width="0.00112"></path>
<path d="M1.131 0.226 Q0.900 0.477 1.338 0.645" stroke="hsl(120.0,100%,35%)" stroke-width="0.00112"></path>
<path d="M1.131 0.226 Q1.033 0.176 0.914 0.213" stroke="hsl(120.0,100%,35%)" stroke-width="0.00112"></path>
<path d="M1.131 0.226 Q1.023 0.591 1.711 0.724" stroke="hsl(120.0,100%,35%)" stroke-width="0.00112"></path>
<path d="M1.131 0.226 Q1.203 0.122 1.016 0.065" stroke="hsl(120.0,100%,35%)" stroke-width="0.00561"></path>
<path d="M1.131 0.226 Q1.390 0.117 1.234 -0.033" stroke="hsl(120.0,100%,35%)" stroke-width="0.00112"></path>
<path d="M1.131 0.226 Q0.756 0.142 0.509 0.306" stroke="hsl(120.0,100%,35%)" stroke-width="0.00112"></path>
<path d="M1.131 0.226 Q0.899 0.474 1.332 0.642" stroke="hsl(120.0,100%,35%)" stroke-width="0.00112"></path>
<path d="M1.131 0.226 Q1.017 0.240 1.019 0.299" stroke="hsl(120.0,100%,35%)" stroke-width="0.00112"></path>
<path d="M1.131 0.226 Q1.159 0.516 1.731 0.566" stroke="hsl(120.0,100%,35%)" stroke-width="0.00112"></path>
<path d="M1.131 0.226 Q1.177 0.296 1.324 0.290" stroke="hsl(120.0,100%,35%)" stroke-width="0.00112"></path>
<path d="M1.085 0.026 Q0.869 0.052 0.872 0.163" stroke="hsl(120.0,100%,35%)" stroke-width="0.02245"></path>
<path d="M1.085 0.026 Q0.948 0.135 1.131 0.226" stroke="hsl(120.0,100%,35%)" stroke-width="0.02470"></path>
<path d="M1.085 0.026 Q1.087 0.097 1.227 0.112" stroke="hsl(120.0,100%,35%)" stroke-width="0.00674"></path>
<path d="M1.085 0.026 Q0.922 -0.015 0.806 0.055" stroke="hsl(120.0,100%,35%)" stroke-width="0.00674"></path>
<path d="M1.085 0.026 Q0.842 0.098 0.929 0.232" stroke="hsl(120.0,100%,35%)" stroke-width="0.00225"></path>
<path d="M1.085 0.026 Q0.651 0.317 1.123 0.592" stroke="hsl(120.0,100%,35%)" stroke-width="0.00112"></path>
<path d="M1.085 0.026 Q1.264 0.040 1.330 -0.045" stroke="hsl(120.0,100%,35%)" stroke-width="0.00112"></path>
<path d="M0.364 0.078 Q0.768 0.268 1.227 0.112" stroke="hsl(120.0,100%,35%)" stroke-width="0.00449"></path>
<path d="M0.364 0.078 Q0.550 0.222 0.872 0.163" stroke="hsl(120.0,100%,35%)" stroke-width="0.00337"></path>
<path d="M0.364 0.078 Q0.523 0.268 0.929 0.232" stroke="hsl(120.0,100%,35%)" stroke-width="0.00112"></path>
<path d="M0.364 0.078 Q0.629 0.306 1.131 0.226" stroke="hsl(120.0,100%,35%)" stroke-width="0.00112"></path>
<path d="M0.364 0.078 Q0.243 0.113 0.285 0.180" stroke="hsl(120.0,100%,35%)" stroke-width="0.00337"></path>
<path d="M1.123 0.592 Q0.928 0.541 0.785 0.625" stroke="hsl(240.0,100%,35%)" stroke-width="0.09768"></path>
<path d="M1.123 0.592 Q1.559 0.373 1.227 0.112" stroke="hsl(240.0,100%,35%)" stroke-width="0.05501"></path>
<path d="M1.123 0.592 Q1.341 0.327 0.872 0.163" stroke="hsl(240.0,100%,35%)" stroke-width="0.02919"></path>
<path d="M1.123 0.592 Q1.314 0.373 0.929 0.232" stroke="hsl(240.0,100%,35%)" stroke-width="0.00225"></path>
<path d="M1.123 0.592 Q1.420 0.411 1.131 0.226" stroke="hsl(240.0,100%,35%)" stroke-width="0.00337"></path>
<path d="M1.123 0.592 Q0.982 0.617 1.000 0.692" stroke="hsl(240.0,100%,35%)" stroke-width="0.00112"></path>
<path d="M1.123 0.592 Q1.245 0.508 1.108 0.431" stroke="hsl(240.0,100%,35%)" stroke-width="0.00112"></path>
<path d="M1.123 0.592 Q1.127 0.668 1.276 0.683" stroke="hsl(240.0,100%,35%)" stroke-width="0.00225"></path>
<path d="M1.123 0.592 Q1.469 0.229 0.836 -0.020" stroke="hsl(240.0,100%,35%)" stroke-width="0.00112"></path>
<path d="M1.123 0.592 Q1.005 0.584 0.964 0.640" stroke="hsl(240.0,100%,35%)" stroke-width="0.00561"></path>
<path d="M1.123 0.592 Q1.045 0.326 0.509 0.306" stroke="hsl(240.0,100%,35%)" stroke-width="0.00112"></path>
<path d="M1.123 0.592 Q1.181 0.310 0.643 0.220" stroke="hsl(240.0,100%,35%)" stroke-width="0.00112"></path>
<path d="M1.123 0.592 Q1.089 0.659 1.212 0.690" stroke="hsl(240.0,100%,35%)" stroke-width="0.00112"></path>
<path d="M1.123 0.592 Q0.990 0.587 0.951 0.651" stroke="hsl(240.0,100%,35%)" stroke-width="0.00112"></path>
<path d="M0.831 0.245 Q0.917 0.212 0.872 0.163" stroke="hsl(120.0,100%,35%)" stroke-width="0.00561"></path>
<path d="M0.831 0.245 Q0.996 0.296 1.131 0.226" stroke="hsl(120.0,100%,35%)" stroke-width="0.00225"></path>
<path d="M0.831 0.245 Q1.135 0.258 1.227 0.112" stroke="hsl(120.0,100%,35%)" stroke-width="0.00337"></path>
<path d="M0.806 0.055 Q0.753 0.122 0.872 0.163" stroke="hsl(120.0,100%,35%)" stroke-width="0.01796"></path>
<path d="M0.806 0.055 Q0.832 0.206 1.131 0.226" stroke="hsl(120.0,100%,35%)" stroke-width="0.00561"></path>
<path d="M0.806 0.055 Q0.480 0.171 0.635 0.355" stroke="hsl(120.0,100%,35%)" stroke-width="0.00112"></path>
<path d="M0.806 0.055 Q0.535 0.387 1.123 0.592" stroke="hsl(120.0,100%,35%)" stroke-width="0.00112"></path>
<path d="M0.806 0.055 Q0.971 0.168 1.227 0.112" stroke="hsl(120.0,100%,35%)" stroke-width="0.01572"></path>
<path d="M0.806 0.055 Q0.339 0.336 0.785 0.625" stroke="hsl(120.0,100%,35%)" stroke-width="0.00225"></path>
<path d="M0.806 0.055 Q0.726 0.169 0.929 0.232" stroke="hsl(120.0,100%,35%)" stroke-width="0.00337"></path>
<path d="M0.635 0.355 Q0.907 0.307 0.872 0.163" stroke="hsl(120.0,100%,35%)" stroke-width="0.01123"></path>
<path d="M0.635 0.355 Q1.091 0.470 1.415 0.273" stroke="hsl(120.0,100%,35%)" stroke-width="0.00225"></path>
<path d="M0.635 0.355 Q0.657 0.451 0.849 0.462" stroke="hsl(120.0,100%,35%)" stroke-width="0.00112"></path>
<path d="M0.635 0.355 Q1.125 0.352 1.227 0.112" stroke="hsl(120.0,100%,35%)" stroke-width="0.00449"></path>
<path d="M0.635 0.355 Q0.987 0.390 1.131 0.226" stroke="hsl(120.0,100%,35%)" stroke-width="0.00561"></path>
<path d="M0.635 0.355 Q0.690 0.571 1.123 0.592" stroke="hsl(120.0,100%,35%)" stroke-width="0.00225"></path>
<path d="M0.635 0.355 Q0.816 0.261 0.670 0.151" stroke="hsl(120.0,100%,35%)" stroke-width="0.00112"></path>
<path d="M0.635 0.355 Q0.736 0.320 0.690 0.263" stroke="hsl(120.0,100%,35%)" stroke-width="0.00112"></path>
<path d="M0.635 0.355 Q0.611 0.306 0.509 0.306" stroke="hsl(120.0,100%,35%)" stroke-width="0.00112"></path>
<path d="M0.635 0.355 Q0.960 0.240 0.806 0.055" stroke="hsl(120.0,100%,35%)" stroke-width="0.00112"></path>
<path d="M0.979 0.321 Q0.999 0.334 1.029 0.327" stroke="hsl(0.0,100%,35%)" stroke-width="0.00112"></path>
<path d="M0.979 0.321 Q0.647 0.345 0.620 0.511" stroke="hsl(0.0,100%,35%)" stroke-width="0.00112"></path>
<path d="M0.979 0.321 Q1.203 0.200 1.016 0.065" stroke="hsl(0.0,100%,35%)" stroke-width="0.00337"></path>
<path d="M0.979 0.321 Q0.571 0.328 0.495 0.529" stroke="hsl(0.0,100%,35%)" stroke-width="0.00225"></path>
<path d="M0.979 0.321 Q1.159 0.594 1.731 0.566" stroke="hsl(0.0,100%,35%)" stroke-width="0.00112"></path>
<path d="M0.383 0.874 Q0.477 0.925 0.597 0.891" stroke="hsl(120.0,100%,35%)" stroke-width="0.00112"></path>
<path d="M0.383 0.874 Q0.385 0.936 0.505 0.948" stroke="hsl(120.0,100%,35%)" stroke-width="0.00112"></path>
<path d="M0.383 0.874 Q1.276 0.700 1.131 0.226" stroke="hsl(120.0,100%,35%)" stroke-width="0.00112"></path>
<path d="M1.016 0.065 Q0.917 0.409 1.566 0.533" stroke="hsl(0.0,100%,35%)" stroke-width="0.00112"></path>
<path d="M1.016 0.065 Q1.084 0.131 1.227 0.112" stroke="hsl(0.0,100%,35%)" stroke-width="0.00225"></path>
<path d="M1.016 0.065 Q0.866 0.085 0.872 0.163" stroke="hsl(0.0,100%,35%)" stroke-width="0.00225"></path>
<path d="M1.016 0.065 Q0.945 0.168 1.131 0.226" stroke="hsl(0.0,100%,35%)" stroke-width="0.00112"></path>
<path d="M1.016 0.065 Q0.792 0.185 0.979 0.321" stroke="hsl(0.0,100%,35%)" stroke-width="0.00112"></path>
<path d="M0.246 0.647 Q1.164 0.575 1.227 0.112" stroke="hsl(0.0,100%,35%)" stroke-width="0.00112"></path>
<path d="M0.246 0.647 Q0.349 0.736 0.546 0.706" stroke="hsl(0.0,100%,35%)" stroke-width="0.00112"></path>
<path d="M0.246 0.647 Q0.098 0.640 0.052 0.711" stroke="hsl(0.0,100%,35%)" stroke-width="0.00112"></path>
<path d="M0.246 0.647 Q0.089 0.659 0.080 0.739" stroke="hsl(0.0,100%,35%)" stroke-width="0.00112"></path>
<path d="M0.246 0.647 Q0.293 0.542 0.098 0.496" stroke="hsl(0.0,100%,35%)" stroke-width="0.00112"></path>
<path d="M0.246 0.647 Q0.323 0.583 0.215 0.532" stroke="hsl(0.0,100%,35%)" stroke-width="0.00112"></path>
<path d="M0.246 0.647 Q0.120 0.685 0.167 0.754" stroke="hsl(0.0,100%,35%)" stroke-width="0.00112"></path>
<path d="M0.246 0.647 Q0.199 0.599 0.096 0.612" stroke="hsl(0.0,100%,35%)" stroke-width="0.00112"></path>
<path d="M0.246 0.647 Q0.239 0.739 0.417 0.762" stroke="hsl(0.0,100%,35%)" stroke-width="0.00112"></path>
<path d="M0.246 0.647 Q0.847 0.984 1.636 0.765" stroke="hsl(0.0,100%,35%)" stroke-width="0.00112"></path>
<path d="M0.246 0.647 Q0.169 0.724 0.303 0.778" stroke="hsl(0.0,100%,35%)" stroke-width="0.00112"></path>
<path d="M0.246 0.647 Q0.308 0.676 0.378 0.652" stroke="hsl(0.0,100%,35%)" stroke-width="0.00112"></path>
<path d="M1.704 0.796 Q1.768 0.359 0.929 0.232" stroke="hsl(0.0,100%,35%)" stroke-width="0.00112"></path>
<path d="M1.704 0.796 Q1.874 0.397 1.131 0.226" stroke="hsl(0.0,100%,35%)" stroke-width="0.00112"></path>
<path d="M1.704 0.796 Q1.695 0.767 1.636 0.765" stroke="hsl(0.0,100%,35%)" stroke-width="0.00112"></path>
<path d="M0.946 0.497 Q0.959 0.580 1.123 0.592" stroke="hsl(240.0,100%,35%)" stroke-width="0.00225"></path>
<path d="M0.946 0.497 Q0.763 0.529 0.785 0.625" stroke="hsl(240.0,100%,35%)" stroke-width="0.00225"></path>
<path d="M0.946 0.497 Q1.394 0.361 1.227 0.112" stroke="hsl(240.0,100%,35%)" stroke-width="0.00112"></path>
<path d="M0.428 0.283 Q0.719 0.358 0.929 0.232" stroke="hsl(0.0,100%,35%)" stroke-width="0.00112"></path>
<path d="M0.428 0.283 Q0.341 0.435 0.620 0.511" stroke="hsl(0.0,100%,35%)" stroke-width="0.00112"></path>
<path d="M0.428 0.283 Q0.746 0.311 0.872 0.163" stroke="hsl(0.0,100%,35%)" stroke-width="0.00112"></path>
<path d="M1.454 0.862 Q1.522 0.832 1.479 0.793" stroke="hsl(120.0,100%,35%)" stroke-width="0.00112"></path>
<path d="M1.454 0.862 Q1.336 0.814 1.216 0.861" stroke="hsl(120.0,100%,35%)" stroke-width="0.00112"></path>
<path d="M1.454 0.862 Q1.940 0.441 1.227 0.112" stroke="hsl(120.0,100%,35%)" stroke-width="0.00112"></path>
<path d="M1.637 0.922 Q1.941 0.473 1.131 0.226" stroke="hsl(0.0,100%,35%)" stroke-width="0.00337"></path>
<path d="M1.637 0.922 Q1.809 0.944 1.889 0.865" stroke="hsl(0.0,100%,35%)" stroke-width="0.00225"></path>
<path d="M1.637 0.922 Q1.447 0.881 1.325 0.965" stroke="hsl(0.0,100%,35%)" stroke-width="0.00225"></path>
<path d="M0.773 0.839 Q0.798 0.776 0.682 0.750" stroke="hsl(120.0,100%,35%)" stroke-width="0.00112"></path>
<path d="M0.773 0.839 Q1.581 0.566 1.227 0.112" stroke="hsl(120.0,100%,35%)" stroke-width="0.00112"></path>
<path d="M1.200 0.344 Q1.260 0.271 1.131 0.226" stroke="hsl(120.0,100%,35%)" stroke-width="0.00561"></path>
<path d="M1.200 0.344 Q1.398 0.233 1.227 0.112" stroke="hsl(120.0,100%,35%)" stroke-width="0.00449"></path>
<path d="M1.200 0.344 Q1.187 0.303 1.105 0.300" stroke="hsl(120.0,100%,35%)" stroke-width="0.00225"></path>
<path d="M1.200 0.344 Q1.364 0.351 1.415 0.273" stroke="hsl(120.0,100%,35%)" stroke-width="0.00225"></path>
<path d="M1.200 0.344 Q1.228 0.373 1.291 0.366" stroke="hsl(120.0,100%,35%)" stroke-width="0.00112"></path>
<path d="M1.936 0.679 Q1.335 0.316 0.495 0.529" stroke="hsl(0.0,100%,35%)" stroke-width="0.00112"></path>
<path d="M1.936 0.679 Q1.762 0.430 1.238 0.461" stroke="hsl(0.0,100%,35%)" stroke-width="0.00225"></path>
<path d="M1.936 0.679 Q2.212 0.196 1.330 -0.045" stroke="hsl(0.0,100%,35%)" stroke-width="0.00112"></path>
<path d="M1.936 0.679 Q1.599 0.473 1.123 0.592" stroke="hsl(0.0,100%,35%)" stroke-width="0.00112"></path>
<path d="M1.936 0.679 Q1.787 0.656 1.711 0.724" stroke="hsl(0.0,100%,35%)" stroke-width="0.00112"></path>
<path d="M1.936 0.679 Q2.030 0.568 1.833 0.497" stroke="hsl(0.0,100%,35%)" stroke-width="0.00112"></path>
<path d="M1.936 0.679 Q2.035 0.254 1.227 0.112" stroke="hsl(0.0,100%,35%)" stroke-width="0.00112"></path>
<path d="M1.936 0.679 Q1.923 0.582 1.731 0.566" stroke="hsl(0.0,100%,35%)" stroke-width="0.00112"></path>
<path d="M1.936 0.679 Q1.890 0.604 1.734 0.610" stroke="hsl(0.0,100%,35%)" stroke-width="0.00112"></path>
<path d="M1.936 0.679 Q1.835 0.599 1.656 0.630" stroke="hsl(0.0,100%,35%)" stroke-width="0.00112"></path>
<path d="M1.936 0.679 Q1.717 0.662 1.636 0.765" stroke="hsl(0.0,100%,35%)" stroke-width="0.00225"></path>
<path d="M1.936 0.679 Q1.958 0.645 1.898 0.627" stroke="hsl(0.0,100%,35%)" stroke-width="0.00337"></path>
<path d="M1.936 0.679 Q1.868 0.532 1.566 0.533" stroke="hsl(0.0,100%,35%)" stroke-width="0.00112"></path>
<path d="M1.936 0.679 Q2.047 0.622 1.961 0.556" stroke="hsl(0.0,100%,35%)" stroke-width="0.00112"></path>
<path d="M1.238 0.461 Q1.122 0.252 0.690 0.263" stroke="hsl(0.0,100%,35%)" stroke-width="0.00112"></path>
<path d="M1.238 0.461 Q1.400 0.612 1.731 0.566" stroke="hsl(0.0,100%,35%)" stroke-width="0.00112"></path>
<path d="M1.238 0.461 Q1.435 0.676 1.898 0.627" stroke="hsl(0.0,100%,35%)" stroke-width="0.00225"></path>
<path d="M1.238 0.461 Q1.134 0.221 0.643 0.220" stroke="hsl(0.0,100%,35%)" stroke-width="0.00112"></path>
<path d="M1.238 0.461 Q1.511 0.284 1.227 0.112" stroke="hsl(0.0,100%,35%)" stroke-width="0.00112"></path>
<path d="M1.238 0.461 Q1.421 0.140 0.836 -0.020" stroke="hsl(0.0,100%,35%)" stroke-width="0.00112"></path>
<path d="M1.238 0.461 Q1.024 0.370 0.801 0.455" stroke="hsl(0.0,100%,35%)" stroke-width="0.00112"></path>
<path d="M1.238 0.461 Q0.888 0.362 0.620 0.511" stroke="hsl(0.0,100%,35%)" stroke-width="0.00225"></path>
<path d="M1.238 0.461 Q0.997 0.238 0.509 0.306" stroke="hsl(0.0,100%,35%)" stroke-width="0.00112"></path>
<path d="M1.238 0.461 Q1.390 0.446 1.394 0.368" stroke="hsl(0.0,100%,35%)" stroke-width="0.00112"></path>
<path d="M1.238 0.461 Q1.170 0.400 1.036 0.419" stroke="hsl(0.0,100%,35%)" stroke-width="0.00112"></path>
<path d="M1.238 0.461 Q1.340 0.445 1.332 0.392" stroke="hsl(0.0,100%,35%)" stroke-width="0.00112"></path>
<path d="M1.238 0.461 Q1.102 0.397 0.949 0.450" stroke="hsl(0.0,100%,35%)" stroke-width="0.00112"></path>
<path d="M1.238 0.461 Q0.878 0.730 1.325 0.965" stroke="hsl(0.0,100%,35%)" stroke-width="0.00112"></path>
<path d="M1.238 0.461 Q1.138 0.394 0.986 0.428" stroke="hsl(0.0,100%,35%)" stroke-width="0.00112"></path>
<path d="M1.238 0.461 Q1.391 0.414 1.332 0.329" stroke="hsl(0.0,100%,35%)" stroke-width="0.00112"></path>
<path d="M1.591 0.163 Q1.311 0.102 1.131 0.226" stroke="hsl(120.0,100%,35%)" stroke-width="0.00449"></path>
<path d="M1.591 0.163 Q1.686 0.097 1.578 0.036" stroke="hsl(120.0,100%,35%)" stroke-width="0.00112"></path>
<path d="M1.591 0.163 Q1.232 0.019 0.872 0.163" stroke="hsl(120.0,100%,35%)" stroke-width="0.00449"></path>
<path d="M1.591 0.163 Q1.114 0.065 0.819 0.277" stroke="hsl(120.0,100%,35%)" stroke-width="0.00112"></path>
<path d="M1.591 0.163 Q1.014 0.284 1.123 0.592" stroke="hsl(120.0,100%,35%)" stroke-width="0.00112"></path>
<path d="M1.591 0.163 Q1.060 0.033 0.690 0.263" stroke="hsl(120.0,100%,35%)" stroke-width="0.00112"></path>
<path d="M1.591 0.163 Q1.450 0.065 1.227 0.112" stroke="hsl(120.0,100%,35%)" stroke-width="0.00225"></path>
<path d="M1.591 0.163 Q0.818 0.233 0.785 0.625" stroke="hsl(120.0,100%,35%)" stroke-width="0.00112"></path>
<path d="M1.591 0.163 Q1.285 -0.048 0.806 0.055" stroke="hsl(120.0,100%,35%)" stroke-width="0.00112"></path>
<path d="M1.470 0.648 Q1.532 0.332 0.929 0.232" stroke="hsl(120.0,100%,35%)" stroke-width="0.00112"></path>
<path d="M1.470 0.648 Q1.546 0.354 0.989 0.252" stroke="hsl(120.0,100%,35%)" stroke-width="0.00112"></path>
<path d="M1.470 0.648 Q1.436 0.683 1.497 0.708" stroke="hsl(120.0,100%,35%)" stroke-width="0.00112"></path>
<path d="M1.361 0.537 Q1.416 0.252 0.872 0.163" stroke="hsl(240.0,100%,35%)" stroke-width="0.00225"></path>
<path d="M1.361 0.537 Q1.198 0.517 1.123 0.592" stroke="hsl(240.0,100%,35%)" stroke-width="0.00337"></path>
<path d="M1.361 0.537 Q1.003 0.466 0.785 0.625" stroke="hsl(240.0,100%,35%)" stroke-width="0.00112"></path>
<path d="M1.361 0.537 Q1.634 0.298 1.227 0.112" stroke="hsl(240.0,100%,35%)" stroke-width="0.00112"></path>
</g>
<text x="1.523" y="0.523" font-size="0.007943" fill="hsl(0.0,100%,20%)">abarth</text>
<text x="1.889" y="0.861" font-size="0.007943" fill="hsl(0.0,100%,20%)">ddorwin</text>
<text x="1.731" y="0.560" font-size="0.012133" fill="hsl(0.0,100%,20%)">wez</text>
<text x="1.566" y="0.529" font-size="0.007943" fill="hsl(0.0,100%,20%)">tsepez</text>
<text x="1.737" y="0.378" font-size="0.012971" fill="hsl(0.0,100%,20%)">andre.kempe</text>
<text x="1.803" y="0.304" font-size="0.004586" fill="hsl(0.0,100%,20%)">mfoltz</text>
<text x="1.019" y="0.294" font-size="0.010254" fill="hsl(0.0,100%,20%)">agrieve</text>
<text x="1.636" y="0.759" font-size="0.012133" fill="hsl(0.0,100%,20%)">thakis</text>
<text x="1.227" y="0.077" font-size="0.069397" fill="hsl(120.0,100%,20%)">haraken</text>
<text x="0.785" y="0.601" font-size="0.048533" fill="hsl(240.0,100%,20%)">mlippautz</text>
<text x="0.872" y="0.116" font-size="0.092631" fill="hsl(120.0,100%,20%)">bartekn</text>
<text x="0.495" y="0.522" font-size="0.013758" fill="hsl(0.0,100%,20%)">avi</text>
<text x="0.620" y="0.505" font-size="0.013758" fill="hsl(0.0,100%,20%)">danakj</text>
<text x="0.929" y="0.221" font-size="0.022930" fill="hsl(120.0,100%,20%)">dcheng</text>
<text x="0.495" y="0.193" font-size="0.004586" fill="hsl(120.0,100%,20%)">ajuma</text>
<text x="1.131" y="0.185" font-size="0.081907" fill="hsl(120.0,100%,20%)">lizeb</text>
<text x="1.085" y="0.004" font-size="0.043986" fill="hsl(120.0,100%,20%)">yukishiino</text>
<text x="0.364" y="0.070" font-size="0.016535" fill="hsl(120.0,100%,20%)">richard.townsend</text>
<text x="1.123" y="0.558" font-size="0.068482" fill="hsl(240.0,100%,20%)">bikineev</text>
<text x="1.415" y="0.266" font-size="0.013758" fill="hsl(120.0,100%,20%)">ssid</text>
<text x="0.690" y="0.257" font-size="0.012133" fill="hsl(0.0,100%,20%)">mpdenton</text>
<text x="0.831" y="0.236" font-size="0.017761" fill="hsl(120.0,100%,20%)">glazunov</text>
<text x="0.836" y="-0.024" font-size="0.009172" fill="hsl(0.0,100%,20%)">lukasza</text>
<text x="0.806" y="0.036" font-size="0.039449" fill="hsl(120.0,100%,20%)">tasak</text>
<text x="0.635" y="0.339" font-size="0.032101" fill="hsl(120.0,100%,20%)">keishi</text>
<text x="0.643" y="0.215" font-size="0.009172" fill="hsl(0.0,100%,20%)">gab</text>
<text x="0.485" y="0.144" font-size="0.006485" fill="hsl(120.0,100%,20%)">bgeffon</text>
<text x="0.979" y="0.314" font-size="0.014502" fill="hsl(0.0,100%,20%)">brucedawson</text>
<text x="0.383" y="0.869" font-size="0.010254" fill="hsl(120.0,100%,20%)">ellyjones</text>
<text x="0.775" y="0.210" font-size="0.004586" fill="hsl(120.0,100%,20%)">gbeaty</text>
<text x="0.964" y="0.634" font-size="0.011233" fill="hsl(240.0,100%,20%)">wfh</text>
<text x="0.819" y="0.273" font-size="0.007943" fill="hsl(120.0,100%,20%)">erikchen</text>
<text x="0.755" y="0.062" font-size="0.006485" fill="hsl(120.0,100%,20%)">agl</text>
<text x="0.932" y="0.214" font-size="0.004586" fill="hsl(120.0,100%,20%)">yukiy</text>
<text x="0.801" y="0.452" font-size="0.006485" fill="hsl(0.0,100%,20%)">kinuko</text>
<text x="0.593" y="0.265" font-size="0.006485" fill="hsl(120.0,100%,20%)">tikuta</text>
<text x="0.989" y="0.248" font-size="0.007943" fill="hsl(120.0,100%,20%)">mark</text>
<text x="0.840" y="-0.015" font-size="0.007943" fill="hsl(120.0,100%,20%)">sebmarchand</text>
<text x="0.849" y="0.458" font-size="0.006485" fill="hsl(120.0,100%,20%)">sweilun</text>
<text x="0.670" y="0.147" font-size="0.007943" fill="hsl(120.0,100%,20%)">isherman</text>
<text x="0.984" y="0.321" font-size="0.004586" fill="hsl(120.0,100%,20%)">jbroman</text>
<text x="0.623" y="0.076" font-size="0.004586" fill="hsl(120.0,100%,20%)">robertshield</text>
<text x="0.742" y="0.217" font-size="0.004586" fill="hsl(120.0,100%,20%)">grt</text>
<text x="0.636" y="0.200" font-size="0.004586" fill="hsl(120.0,100%,20%)">asvitkine</text>
<text x="0.748" y="0.247" font-size="0.004586" fill="hsl(120.0,100%,20%)">ydago</text>
<text x="1.016" y="0.056" font-size="0.018344" fill="hsl(0.0,100%,20%)">palmer</text>
<text x="0.740" y="0.085" font-size="0.006485" fill="hsl(120.0,100%,20%)">yutak</text>
<text x="0.762" y="0.268" font-size="0.004586" fill="hsl(120.0,100%,20%)">primiano</text>
<text x="1.000" y="0.690" font-size="0.004586" fill="hsl(240.0,100%,20%)">oysteine</text>
<text x="1.108" y="0.428" font-size="0.004586" fill="hsl(240.0,100%,20%)">altimin</text>
<text x="1.276" y="0.680" font-size="0.006485" fill="hsl(240.0,100%,20%)">creis</text>
<text x="0.509" y="0.302" font-size="0.009172" fill="hsl(0.0,100%,20%)">fdoray</text>
<text x="1.212" y="0.688" font-size="0.004586" fill="hsl(240.0,100%,20%)">holte</text>
<text x="0.951" y="0.648" font-size="0.006485" fill="hsl(240.0,100%,20%)">ulan</text>
<text x="1.029" y="0.325" font-size="0.004586" fill="hsl(0.0,100%,20%)">cassew</text>
<text x="0.246" y="0.639" font-size="0.015886" fill="hsl(0.0,100%,20%)">dsanders11</text>
<text x="0.546" y="0.704" font-size="0.004586" fill="hsl(0.0,100%,20%)">acourbot</text>
<text x="0.052" y="0.709" font-size="0.004586" fill="hsl(0.0,100%,20%)">tguilbert</text>
<text x="0.080" y="0.736" font-size="0.004586" fill="hsl(0.0,100%,20%)">tbansal</text>
<text x="0.098" y="0.494" font-size="0.004586" fill="hsl(0.0,100%,20%)">michaeldo</text>
<text x="0.215" y="0.530" font-size="0.004586" fill="hsl(0.0,100%,20%)">austinct</text>
<text x="0.167" y="0.752" font-size="0.004586" fill="hsl(0.0,100%,20%)">olivierrobin</text>
<text x="0.096" y="0.608" font-size="0.006485" fill="hsl(0.0,100%,20%)">eseckler</text>
<text x="0.417" y="0.760" font-size="0.004586" fill="hsl(0.0,100%,20%)">mmoskvitin</text>
<text x="0.303" y="0.776" font-size="0.004586" fill="hsl(0.0,100%,20%)">jamiewalch</text>
<text x="0.378" y="0.650" font-size="0.004586" fill="hsl(0.0,100%,20%)">aleventhal</text>
<text x="0.597" y="0.888" font-size="0.004586" fill="hsl(120.0,100%,20%)">elainechien</text>
<text x="0.505" y="0.945" font-size="0.004586" fill="hsl(120.0,100%,20%)">tkent</text>
<text x="1.704" y="0.792" font-size="0.007943" fill="hsl(0.0,100%,20%)">gabor.kertesz</text>
<text x="0.946" y="0.491" font-size="0.012133" fill="hsl(240.0,100%,20%)">hpayer</text>
<text x="0.428" y="0.279" font-size="0.007943" fill="hsl(0.0,100%,20%)">jannh</text>
<text x="1.454" y="0.858" font-size="0.007943" fill="hsl(120.0,100%,20%)">kbr</text>
<text x="1.479" y="0.790" font-size="0.004586" fill="hsl(120.0,100%,20%)">martiniss</text>
<text x="1.216" y="0.858" font-size="0.004586" fill="hsl(120.0,100%,20%)">ccameron</text>
<text x="1.637" y="0.916" font-size="0.012133" fill="hsl(0.0,100%,20%)">kmarshall</text>
<text x="1.325" y="0.961" font-size="0.007943" fill="hsl(0.0,100%,20%)">kylechar</text>
<text x="0.773" y="0.836" font-size="0.006485" fill="hsl(120.0,100%,20%)">kolos</text>
<text x="0.682" y="0.748" font-size="0.004586" fill="hsl(240.0,100%,20%)">lgrey</text>
<text x="1.200" y="0.334" font-size="0.018908" fill="hsl(120.0,100%,20%)">thiabaud</text>
<text x="1.203" y="0.219" font-size="0.009172" fill="hsl(120.0,100%,20%)">pasko</text>
<text x="1.362" y="0.246" font-size="0.004586" fill="hsl(120.0,100%,20%)">msramek</text>
<text x="1.038" y="0.233" font-size="0.006485" fill="hsl(120.0,100%,20%)">alexilin</text>
<text x="1.305" y="0.302" font-size="0.004586" fill="hsl(120.0,100%,20%)">mamir</text>
<text x="1.076" y="-0.016" font-size="0.004586" fill="hsl(120.0,100%,20%)">amraboelkher</text>
<text x="1.243" y="0.263" font-size="0.004586" fill="hsl(120.0,100%,20%)">skyostil</text>
<text x="1.360" y="0.219" font-size="0.006485" fill="hsl(120.0,100%,20%)">arthursonzogni</text>
<text x="1.936" y="0.669" font-size="0.019989" fill="hsl(0.0,100%,20%)">thestig</text>
<text x="1.338" y="0.642" font-size="0.004586" fill="hsl(120.0,100%,20%)">asully</text>
<text x="0.914" y="0.211" font-size="0.004586" fill="hsl(120.0,100%,20%)">etiennep</text>
<text x="1.711" y="0.720" font-size="0.006485" fill="hsl(0.0,100%,20%)">rsesek</text>
<text x="1.234" y="-0.035" font-size="0.004586" fill="hsl(120.0,100%,20%)">caitlinfischer</text>
<text x="1.332" y="0.640" font-size="0.004586" fill="hsl(120.0,100%,20%)">sinansahin</text>
<text x="1.324" y="0.287" font-size="0.004586" fill="hsl(120.0,100%,20%)">hendrich</text>
<text x="1.238" y="0.450" font-size="0.020509" fill="hsl(0.0,100%,20%)">pkasting</text>
<text x="1.898" y="0.622" font-size="0.010254" fill="hsl(0.0,100%,20%)">pbos</text>
<text x="1.394" y="0.366" font-size="0.004586" fill="hsl(0.0,100%,20%)">renjietang</text>
<text x="1.036" y="0.417" font-size="0.004586" fill="hsl(0.0,100%,20%)">sandersd</text>
<text x="1.332" y="0.390" font-size="0.004586" fill="hsl(0.0,100%,20%)">droger</text>
<text x="0.949" y="0.447" font-size="0.004586" fill="hsl(0.0,100%,20%)">sadrul</text>
<text x="0.986" y="0.426" font-size="0.004586" fill="hsl(0.0,100%,20%)">bajones</text>
<text x="1.332" y="0.327" font-size="0.004586" fill="hsl(0.0,100%,20%)">abigailbklein</text>
<text x="0.285" y="0.176" font-size="0.007943" fill="hsl(120.0,100%,20%)">ajwong</text>
<text x="1.591" y="0.154" font-size="0.018344" fill="hsl(120.0,100%,20%)">saelo</text>
<text x="1.578" y="0.034" font-size="0.004586" fill="hsl(120.0,100%,20%)">cbruni</text>
<text x="1.470" y="0.644" font-size="0.007943" fill="hsl(120.0,100%,20%)">ssyed</text>
<text x="1.497" y="0.705" font-size="0.004586" fill="hsl(0.0,100%,20%)">abhijeet</text>
<text x="1.361" y="0.531" font-size="0.012133" fill="hsl(240.0,100%,20%)">stha09</text>
<text x="1.330" y="-0.048" font-size="0.006485" fill="hsl(0.0,100%,20%)">dpranke</text>
<text x="1.833" y="0.495" font-size="0.004586" fill="hsl(0.0,100%,20%)">sunnyps</text>
<text x="1.734" y="0.608" font-size="0.004586" fill="hsl(0.0,100%,20%)">sammc</text>
<text x="1.656" y="0.628" font-size="0.004586" fill="hsl(0.0,100%,20%)">sdefresne</text>
<text x="1.961" y="0.553" font-size="0.004586" fill="hsl(0.0,100%,20%)">ajgo</text>
<text x="1.105" y="0.297" font-size="0.006485" fill="hsl(120.0,100%,20%)">rkaplow</text>
<text x="1.291" y="0.363" font-size="0.004586" fill="hsl(120.0,100%,20%)">chanli</text>
</svg>
