<svg width="4000" height="2000" viewBox="-0.025 -0.025 2.05 1.05" xmlns="http://www.w3.org/2000/svg">
  <style>
    path {
      fill: none;
      stroke-linecap: round;
      stroke-opacity: 0.4;
    }

    text {
      text-anchor: middle;
      alignment-baseline: hanging;
    }
  </style>
  <g opacity="0.4">
<path d="M0.178 0.576 Q0.320 0.629 0.456 0.572" stroke="hsl(0.0,100%,35%)" stroke-width="0.00119"></path>
<path d="M0.178 0.576 Q0.277 0.985 1.097 1.027" stroke="hsl(0.0,100%,35%)" stroke-width="0.00357"></path>
<path d="M0.178 0.576 Q0.533 0.709 0.872 0.565" stroke="hsl(0.0,100%,35%)" stroke-width="0.00119"></path>
<path d="M1.097 1.027 Q1.441 0.869 1.209 0.667" stroke="hsl(0.0,100%,35%)" stroke-width="0.00715"></path>
<path d="M1.097 1.027 Q1.245 1.030 1.283 0.958" stroke="hsl(0.0,100%,35%)" stroke-width="0.00357"></path>
<path d="M1.097 1.027 Q1.076 0.922 0.867 0.909" stroke="hsl(0.0,100%,35%)" stroke-width="0.03454"></path>
<path d="M1.097 1.027 Q1.150 1.072 1.250 1.057" stroke="hsl(0.0,100%,35%)" stroke-width="0.00357"></path>
<path d="M1.097 1.027 Q1.294 1.026 1.336 0.930" stroke="hsl(0.0,100%,35%)" stroke-width="0.02025"></path>
<path d="M1.097 1.027 Q1.865 0.961 1.905 0.572" stroke="hsl(0.0,100%,35%)" stroke-width="0.00119"></path>
<path d="M1.097 1.027 Q1.223 0.915 1.032 0.829" stroke="hsl(0.0,100%,35%)" stroke-width="0.00238"></path>
<path d="M1.097 1.027 Q0.725 0.801 0.202 0.933" stroke="hsl(0.0,100%,35%)" stroke-width="0.00476"></path>
<path d="M1.097 1.027 Q1.741 0.776 1.394 0.407" stroke="hsl(0.0,100%,35%)" stroke-width="0.01906"></path>
<path d="M1.097 1.027 Q1.035 0.928 0.829 0.937" stroke="hsl(0.0,100%,35%)" stroke-width="0.00357"></path>
<path d="M1.097 1.027 Q1.489 0.479 0.508 0.168" stroke="hsl(0.0,100%,35%)" stroke-width="0.00357"></path>
<path d="M1.097 1.027 Q1.097 0.931 0.911 0.911" stroke="hsl(0.0,100%,35%)" stroke-width="0.00119"></path>
<path d="M1.097 1.027 Q1.273 0.930 1.124 0.823" stroke="hsl(0.0,100%,35%)" stroke-width="0.01072"></path>
<path d="M1.097 1.027 Q1.295 0.894 1.080 0.768" stroke="hsl(0.0,100%,35%)" stroke-width="0.00357"></path>
<path d="M1.097 1.027 Q1.234 0.978 1.169 0.901" stroke="hsl(0.0,100%,35%)" stroke-width="0.00238"></path>
<path d="M1.097 1.027 Q1.265 1.004 1.258 0.918" stroke="hsl(0.0,100%,35%)" stroke-width="0.00238"></path>
<path d="M1.097 1.027 Q1.331 1.048 1.425 0.939" stroke="hsl(0.0,100%,35%)" stroke-width="0.00357"></path>
<path d="M1.097 1.027 Q1.477 1.051 1.609 0.871" stroke="hsl(0.0,100%,35%)" stroke-width="0.00119"></path>
<path d="M1.097 1.027 Q1.354 0.751 0.872 0.565" stroke="hsl(0.0,100%,35%)" stroke-width="0.00596"></path>
<path d="M1.097 1.027 Q0.999 0.617 0.178 0.576" stroke="hsl(0.0,100%,35%)" stroke-width="0.00119"></path>
<path d="M1.097 1.027 Q1.133 1.116 1.314 1.118" stroke="hsl(0.0,100%,35%)" stroke-width="0.00119"></path>
<path d="M1.097 1.027 Q1.140 0.799 0.706 0.728" stroke="hsl(0.0,100%,35%)" stroke-width="0.00119"></path>
<path d="M0.872 0.565 Q1.259 0.591 1.394 0.407" stroke="hsl(0.0,100%,35%)" stroke-width="0.00953"></path>
<path d="M0.872 0.565 Q0.764 0.547 0.705 0.596" stroke="hsl(0.0,100%,35%)" stroke-width="0.00119"></path>
<path d="M0.872 0.565 Q0.816 0.616 0.902 0.654" stroke="hsl(0.0,100%,35%)" stroke-width="0.00238"></path>
<path d="M0.872 0.565 Q0.595 0.736 0.867 0.909" stroke="hsl(0.0,100%,35%)" stroke-width="0.01191"></path>
<path d="M0.872 0.565 Q0.792 0.744 1.124 0.823" stroke="hsl(0.0,100%,35%)" stroke-width="0.02620"></path>
<path d="M0.872 0.565 Q0.959 0.684 1.209 0.667" stroke="hsl(0.0,100%,35%)" stroke-width="0.00953"></path>
<path d="M0.872 0.565 Q1.364 0.359 1.069 0.073" stroke="hsl(0.0,100%,35%)" stroke-width="0.00119"></path>
<path d="M0.872 0.565 Q0.243 0.615 0.202 0.933" stroke="hsl(0.0,100%,35%)" stroke-width="0.00119"></path>
<path d="M0.872 0.565 Q1.019 0.551 1.023 0.476" stroke="hsl(0.0,100%,35%)" stroke-width="0.00119"></path>
<path d="M0.872 0.565 Q0.752 0.547 0.690 0.601" stroke="hsl(0.0,100%,35%)" stroke-width="0.00119"></path>
<path d="M0.872 0.565 Q1.086 0.586 1.174 0.486" stroke="hsl(0.0,100%,35%)" stroke-width="0.00119"></path>
<path d="M0.872 0.565 Q1.153 0.531 1.148 0.386" stroke="hsl(0.0,100%,35%)" stroke-width="0.00119"></path>
<path d="M0.872 0.565 Q0.616 0.841 1.097 1.027" stroke="hsl(0.0,100%,35%)" stroke-width="0.01906"></path>
<path d="M0.872 0.565 Q1.061 0.519 1.013 0.417" stroke="hsl(0.0,100%,35%)" stroke-width="0.00119"></path>
<path d="M0.872 0.565 Q0.817 0.680 1.028 0.732" stroke="hsl(0.0,100%,35%)" stroke-width="0.00119"></path>
<path d="M1.283 0.958 Q1.329 0.474 0.394 0.345" stroke="hsl(0.0,100%,35%)" stroke-width="0.00119"></path>
<path d="M1.283 0.958 Q1.136 0.955 1.097 1.027" stroke="hsl(0.0,100%,35%)" stroke-width="0.01429"></path>
<path d="M1.283 0.958 Q1.073 0.857 0.829 0.937" stroke="hsl(0.0,100%,35%)" stroke-width="0.00238"></path>
<path d="M1.283 0.958 Q1.303 0.933 1.258 0.918" stroke="hsl(0.0,100%,35%)" stroke-width="0.00357"></path>
<path d="M1.283 0.958 Q1.779 0.705 1.394 0.407" stroke="hsl(0.0,100%,35%)" stroke-width="0.00238"></path>
<path d="M1.283 0.958 Q1.479 0.798 1.209 0.667" stroke="hsl(0.0,100%,35%)" stroke-width="0.00357"></path>
<path d="M0.394 0.345 Q0.200 0.826 1.097 1.027" stroke="hsl(180.0,100%,35%)" stroke-width="0.00119"></path>
<path d="M0.394 0.345 Q-0.173 0.601 0.202 0.933" stroke="hsl(180.0,100%,35%)" stroke-width="0.00119"></path>
<path d="M0.394 0.345 Q0.209 0.285 0.051 0.362" stroke="hsl(180.0,100%,35%)" stroke-width="0.00119"></path>
<path d="M0.394 0.345 Q0.568 0.359 0.633 0.277" stroke="hsl(180.0,100%,35%)" stroke-width="0.00119"></path>
<path d="M0.829 0.937 Q0.892 1.036 1.097 1.027" stroke="hsl(0.0,100%,35%)" stroke-width="0.01191"></path>
<path d="M0.829 0.937 Q0.988 0.820 0.794 0.717" stroke="hsl(0.0,100%,35%)" stroke-width="0.00119"></path>
<path d="M0.829 0.937 Q1.039 1.039 1.283 0.958" stroke="hsl(0.0,100%,35%)" stroke-width="0.00119"></path>
<path d="M0.829 0.937 Q1.236 0.878 1.209 0.667" stroke="hsl(0.0,100%,35%)" stroke-width="0.00238"></path>
<path d="M0.829 0.937 Q1.284 0.488 0.508 0.168" stroke="hsl(0.0,100%,35%)" stroke-width="0.00119"></path>
<path d="M0.829 0.937 Q0.789 0.834 0.580 0.831" stroke="hsl(0.0,100%,35%)" stroke-width="0.00119"></path>
<path d="M0.829 0.937 Q0.270 1.108 0.481 1.418" stroke="hsl(0.0,100%,35%)" stroke-width="0.00119"></path>
<path d="M0.829 0.937 Q0.766 0.819 0.520 0.824" stroke="hsl(0.0,100%,35%)" stroke-width="0.00119"></path>
<path d="M0.829 0.937 Q0.871 0.931 0.867 0.909" stroke="hsl(0.0,100%,35%)" stroke-width="0.00119"></path>
<path d="M0.829 0.937 Q0.681 0.869 0.515 0.926" stroke="hsl(0.0,100%,35%)" stroke-width="0.00357"></path>
<path d="M0.829 0.937 Q1.535 0.785 1.394 0.407" stroke="hsl(0.0,100%,35%)" stroke-width="0.00357"></path>
<path d="M0.829 0.937 Q1.092 0.810 0.902 0.654" stroke="hsl(0.0,100%,35%)" stroke-width="0.00119"></path>
<path d="M0.829 0.937 Q0.519 0.810 0.202 0.933" stroke="hsl(0.0,100%,35%)" stroke-width="0.00119"></path>
<path d="M1.258 0.918 Q1.070 0.835 0.867 0.909" stroke="hsl(0.0,100%,35%)" stroke-width="0.00119"></path>
<path d="M1.258 0.918 Q1.028 0.842 0.829 0.937" stroke="hsl(0.0,100%,35%)" stroke-width="0.00238"></path>
<path d="M1.258 0.918 Q1.091 0.940 1.097 1.027" stroke="hsl(0.0,100%,35%)" stroke-width="0.00715"></path>
<path d="M1.258 0.918 Q1.291 0.715 0.902 0.654" stroke="hsl(0.0,100%,35%)" stroke-width="0.00119"></path>
<path d="M1.258 0.918 Q1.734 0.690 1.394 0.407" stroke="hsl(0.0,100%,35%)" stroke-width="0.00119"></path>
<path d="M1.394 0.407 Q0.750 0.658 1.097 1.027" stroke="hsl(0.0,100%,35%)" stroke-width="0.01906"></path>
<path d="M1.394 0.407 Q0.688 0.559 0.829 0.937" stroke="hsl(0.0,100%,35%)" stroke-width="0.00119"></path>
<path d="M1.394 0.407 Q1.007 0.382 0.872 0.565" stroke="hsl(0.0,100%,35%)" stroke-width="0.00596"></path>
<path d="M1.394 0.407 Q1.259 0.431 1.275 0.501" stroke="hsl(0.0,100%,35%)" stroke-width="0.00238"></path>
<path d="M1.394 0.407 Q0.918 0.635 1.258 0.918" stroke="hsl(0.0,100%,35%)" stroke-width="0.00119"></path>
<path d="M1.394 0.407 Q1.094 0.500 1.209 0.667" stroke="hsl(0.0,100%,35%)" stroke-width="0.00953"></path>
<path d="M1.394 0.407 Q1.440 0.505 1.641 0.504" stroke="hsl(0.0,100%,35%)" stroke-width="0.00953"></path>
<path d="M1.394 0.407 Q1.441 0.119 0.889 0.032" stroke="hsl(0.0,100%,35%)" stroke-width="0.00238"></path>
<path d="M0.676 0.083 Q-0.241 0.414 0.202 0.933" stroke="hsl(180.0,100%,35%)" stroke-width="0.00119"></path>
<path d="M0.676 0.083 Q0.524 0.092 0.508 0.168" stroke="hsl(180.0,100%,35%)" stroke-width="0.00238"></path>
<path d="M0.676 0.083 Q0.776 0.389 1.394 0.407" stroke="hsl(180.0,100%,35%)" stroke-width="0.00119"></path>
<path d="M0.676 0.083 Q0.764 0.190 0.990 0.170" stroke="hsl(180.0,100%,35%)" stroke-width="0.00119"></path>
<path d="M0.676 0.083 Q0.823 0.101 0.889 0.032" stroke="hsl(180.0,100%,35%)" stroke-width="0.00119"></path>
<path d="M0.676 0.083 Q0.600 0.133 0.680 0.180" stroke="hsl(180.0,100%,35%)" stroke-width="0.00119"></path>
<path d="M0.676 0.083 Q0.661 0.171 0.828 0.197" stroke="hsl(180.0,100%,35%)" stroke-width="0.00119"></path>
<path d="M0.676 0.083 Q0.784 0.140 0.918 0.099" stroke="hsl(180.0,100%,35%)" stroke-width="0.00119"></path>
<path d="M0.676 0.083 Q0.685 0.147 0.812 0.157" stroke="hsl(180.0,100%,35%)" stroke-width="0.00119"></path>
<path d="M0.676 0.083 Q0.880 0.157 1.069 0.073" stroke="hsl(180.0,100%,35%)" stroke-width="0.00119"></path>
<path d="M0.676 0.083 Q0.326 0.158 0.394 0.345" stroke="hsl(180.0,100%,35%)" stroke-width="0.00119"></path>
<path d="M0.867 0.909 Q0.825 0.915 0.829 0.937" stroke="hsl(0.0,100%,35%)" stroke-width="0.02025"></path>
<path d="M0.867 0.909 Q1.064 0.917 1.124 0.823" stroke="hsl(0.0,100%,35%)" stroke-width="0.05360"></path>
<path d="M0.867 0.909 Q0.772 1.009 0.947 1.078" stroke="hsl(0.0,100%,35%)" stroke-width="0.00119"></path>
<path d="M0.867 0.909 Q1.397 0.787 1.275 0.501" stroke="hsl(0.0,100%,35%)" stroke-width="0.00238"></path>
<path d="M0.867 0.909 Q1.082 0.532 0.394 0.345" stroke="hsl(0.0,100%,35%)" stroke-width="0.00357"></path>
<path d="M0.867 0.909 Q0.888 1.014 1.097 1.027" stroke="hsl(0.0,100%,35%)" stroke-width="0.10362"></path>
<path d="M0.867 0.909 Q0.931 0.658 0.456 0.572" stroke="hsl(0.0,100%,35%)" stroke-width="0.00238"></path>
<path d="M0.867 0.909 Q1.333 0.692 1.013 0.417" stroke="hsl(0.0,100%,35%)" stroke-width="0.00119"></path>
<path d="M0.867 0.909 Q1.055 0.992 1.258 0.918" stroke="hsl(0.0,100%,35%)" stroke-width="0.00119"></path>
<path d="M0.867 0.909 Q0.724 0.969 0.810 1.052" stroke="hsl(0.0,100%,35%)" stroke-width="0.00119"></path>
<path d="M0.867 0.909 Q1.930 0.663 1.685 0.091" stroke="hsl(0.0,100%,35%)" stroke-width="0.00119"></path>
<path d="M0.867 0.909 Q1.089 0.788 0.902 0.654" stroke="hsl(0.0,100%,35%)" stroke-width="0.00357"></path>
<path d="M0.867 0.909 Q1.532 0.763 1.394 0.407" stroke="hsl(0.0,100%,35%)" stroke-width="0.00715"></path>
<path d="M0.867 0.909 Q1.144 0.738 0.872 0.565" stroke="hsl(0.0,100%,35%)" stroke-width="0.04169"></path>
<path d="M0.867 0.909 Q0.515 0.788 0.202 0.933" stroke="hsl(0.0,100%,35%)" stroke-width="0.00476"></path>
<path d="M0.867 0.909 Q0.930 0.808 0.747 0.756" stroke="hsl(0.0,100%,35%)" stroke-width="0.00238"></path>
<path d="M0.867 0.909 Q1.089 0.853 1.028 0.732" stroke="hsl(0.0,100%,35%)" stroke-width="0.00476"></path>
<path d="M0.867 0.909 Q0.984 0.798 0.794 0.717" stroke="hsl(0.0,100%,35%)" stroke-width="0.00238"></path>
<path d="M0.867 0.909 Q1.024 0.965 1.169 0.901" stroke="hsl(0.0,100%,35%)" stroke-width="0.00119"></path>
<path d="M0.867 0.909 Q1.084 1.013 1.336 0.930" stroke="hsl(0.0,100%,35%)" stroke-width="0.00238"></path>
<path d="M0.867 0.909 Q1.232 0.856 1.209 0.667" stroke="hsl(0.0,100%,35%)" stroke-width="0.02382"></path>
<path d="M0.867 0.909 Q0.941 0.795 0.735 0.734" stroke="hsl(0.0,100%,35%)" stroke-width="0.00238"></path>
<path d="M0.867 0.909 Q1.014 0.902 1.032 0.829" stroke="hsl(0.0,100%,35%)" stroke-width="0.00476"></path>
<path d="M0.867 0.909 Q1.278 0.935 1.419 0.740" stroke="hsl(0.0,100%,35%)" stroke-width="0.00119"></path>
<path d="M0.867 0.909 Q0.941 1.059 1.250 1.057" stroke="hsl(0.0,100%,35%)" stroke-width="0.00119"></path>
<path d="M0.867 0.909 Q1.015 0.834 0.902 0.745" stroke="hsl(0.0,100%,35%)" stroke-width="0.00119"></path>
<path d="M0.867 0.909 Q1.176 0.908 1.244 0.757" stroke="hsl(0.0,100%,35%)" stroke-width="0.00119"></path>
<path d="M0.867 0.909 Q0.895 0.769 0.628 0.724" stroke="hsl(0.0,100%,35%)" stroke-width="0.00119"></path>
<path d="M0.867 0.909 Q1.268 1.038 1.609 0.871" stroke="hsl(0.0,100%,35%)" stroke-width="0.00238"></path>
<path d="M0.867 0.909 Q0.834 0.899 0.807 0.913" stroke="hsl(0.0,100%,35%)" stroke-width="0.00119"></path>
<path d="M0.867 0.909 Q0.859 0.816 0.677 0.800" stroke="hsl(0.0,100%,35%)" stroke-width="0.00119"></path>
<path d="M1.905 0.572 Q0.765 0.412 0.202 0.933" stroke="hsl(180.0,100%,35%)" stroke-width="0.00119"></path>
<path d="M1.905 0.572 Q1.138 0.638 1.097 1.027" stroke="hsl(180.0,100%,35%)" stroke-width="0.00119"></path>
<path d="M1.905 0.572 Q2.204 0.357 1.850 0.164" stroke="hsl(180.0,100%,35%)" stroke-width="0.00119"></path>
<path d="M1.124 0.823 Q0.948 0.920 1.097 1.027" stroke="hsl(0.0,100%,35%)" stroke-width="0.02620"></path>
<path d="M1.124 0.823 Q1.291 0.762 1.209 0.667" stroke="hsl(0.0,100%,35%)" stroke-width="0.01548"></path>
<path d="M1.124 0.823 Q0.927 0.815 0.867 0.909" stroke="hsl(0.0,100%,35%)" stroke-width="0.00596"></path>
<path d="M1.124 0.823 Q1.204 0.644 0.872 0.565" stroke="hsl(0.0,100%,35%)" stroke-width="0.02263"></path>
<path d="M1.124 0.823 Q0.930 0.685 0.619 0.750" stroke="hsl(0.0,100%,35%)" stroke-width="0.00119"></path>
<path d="M1.124 0.823 Q1.144 0.919 1.336 0.930" stroke="hsl(0.0,100%,35%)" stroke-width="0.00119"></path>
<path d="M1.124 0.823 Q1.591 0.669 1.394 0.407" stroke="hsl(0.0,100%,35%)" stroke-width="0.00476"></path>
<path d="M1.124 0.823 Q0.575 0.694 0.202 0.933" stroke="hsl(0.0,100%,35%)" stroke-width="0.00119"></path>
<path d="M1.124 0.823 Q1.254 0.760 1.160 0.682" stroke="hsl(0.0,100%,35%)" stroke-width="0.00119"></path>
<path d="M1.425 0.939 Q1.191 0.917 1.097 1.027" stroke="hsl(0.0,100%,35%)" stroke-width="0.00596"></path>
<path d="M1.425 0.939 Q1.535 0.760 1.209 0.667" stroke="hsl(0.0,100%,35%)" stroke-width="0.00238"></path>
<path d="M1.425 0.939 Q1.835 0.667 1.394 0.407" stroke="hsl(0.0,100%,35%)" stroke-width="0.00119"></path>
<path d="M1.425 0.939 Q1.388 0.917 1.336 0.930" stroke="hsl(0.0,100%,35%)" stroke-width="0.00119"></path>
<path d="M0.051 0.362 Q0.211 0.291 0.108 0.197" stroke="hsl(180.0,100%,35%)" stroke-width="0.00119"></path>
<path d="M0.051 0.362 Q0.236 0.422 0.394 0.345" stroke="hsl(180.0,100%,35%)" stroke-width="0.01191"></path>
<path d="M0.051 0.362 Q0.177 0.294 0.072 0.217" stroke="hsl(180.0,100%,35%)" stroke-width="0.00119"></path>
<path d="M0.051 0.362 Q0.686 0.653 1.394 0.407" stroke="hsl(180.0,100%,35%)" stroke-width="0.00119"></path>
<path d="M0.051 0.362 Q0.043 0.903 1.097 1.027" stroke="hsl(180.0,100%,35%)" stroke-width="0.00119"></path>
<path d="M0.051 0.362 Q-0.330 0.678 0.202 0.933" stroke="hsl(180.0,100%,35%)" stroke-width="0.00238"></path>
<path d="M0.051 0.362 Q0.375 0.320 0.363 0.153" stroke="hsl(180.0,100%,35%)" stroke-width="0.00238"></path>
<path d="M0.051 0.362 Q0.253 0.341 0.257 0.239" stroke="hsl(180.0,100%,35%)" stroke-width="0.00238"></path>
<path d="M1.820 0.652 Q1.927 0.629 1.905 0.572" stroke="hsl(0.0,100%,35%)" stroke-width="0.00238"></path>
<path d="M1.820 0.652 Q1.503 0.538 1.209 0.667" stroke="hsl(0.0,100%,35%)" stroke-width="0.00119"></path>
<path d="M1.820 0.652 Q1.803 0.445 1.394 0.407" stroke="hsl(0.0,100%,35%)" stroke-width="0.00119"></path>
<path d="M1.352 0.528 Q1.469 0.476 1.394 0.407" stroke="hsl(180.0,100%,35%)" stroke-width="0.00119"></path>
<path d="M1.352 0.528 Q0.826 0.726 1.097 1.027" stroke="hsl(180.0,100%,35%)" stroke-width="0.00119"></path>
<path d="M1.352 0.528 Q1.206 0.751 1.609 0.871" stroke="hsl(180.0,100%,35%)" stroke-width="0.00119"></path>
<path d="M1.724 0.416 Q1.846 0.455 1.948 0.404" stroke="hsl(0.0,100%,35%)" stroke-width="0.00119"></path>
<path d="M1.724 0.416 Q1.847 0.384 1.812 0.318" stroke="hsl(0.0,100%,35%)" stroke-width="0.00119"></path>
<path d="M1.724 0.416 Q1.613 0.057 0.889 0.032" stroke="hsl(0.0,100%,35%)" stroke-width="0.00119"></path>
<path d="M1.724 0.416 Q1.749 0.366 1.656 0.343" stroke="hsl(0.0,100%,35%)" stroke-width="0.00119"></path>
<path d="M1.724 0.416 Q1.266 0.438 1.209 0.667" stroke="hsl(0.0,100%,35%)" stroke-width="0.00119"></path>
<path d="M1.685 0.091 Q1.286 0.191 1.394 0.407" stroke="hsl(180.0,100%,35%)" stroke-width="0.00119"></path>
<path d="M1.685 0.091 Q1.709 0.160 1.850 0.164" stroke="hsl(180.0,100%,35%)" stroke-width="0.00357"></path>
<path d="M1.685 0.091 Q0.839 0.441 1.336 0.930" stroke="hsl(180.0,100%,35%)" stroke-width="0.00119"></path>
<path d="M1.685 0.091 Q0.843 0.280 1.028 0.732" stroke="hsl(180.0,100%,35%)" stroke-width="0.00119"></path>
<path d="M1.685 0.091 Q1.555 0.049 1.445 0.103" stroke="hsl(180.0,100%,35%)" stroke-width="0.00119"></path>
<path d="M1.960 0.314 Q1.883 0.357 1.948 0.404" stroke="hsl(0.0,100%,35%)" stroke-width="0.00119"></path>
<path d="M1.960 0.314 Q1.303 0.340 1.209 0.667" stroke="hsl(0.0,100%,35%)" stroke-width="0.00119"></path>
<path d="M1.960 0.314 Q1.649 0.345 1.641 0.504" stroke="hsl(0.0,100%,35%)" stroke-width="0.00119"></path>
<path d="M1.641 0.504 Q1.595 0.406 1.394 0.407" stroke="hsl(0.0,100%,35%)" stroke-width="0.01668"></path>
<path d="M1.641 0.504 Q1.295 0.499 1.209 0.667" stroke="hsl(0.0,100%,35%)" stroke-width="0.00238"></path>
<path d="M1.641 0.504 Q2.018 0.376 1.850 0.164" stroke="hsl(0.0,100%,35%)" stroke-width="0.00119"></path>
<path d="M1.641 0.504 Q1.506 0.539 1.545 0.612" stroke="hsl(0.0,100%,35%)" stroke-width="0.00119"></path>
<path d="M1.641 0.504 Q1.727 0.488 1.716 0.443" stroke="hsl(0.0,100%,35%)" stroke-width="0.00119"></path>
<path d="M0.794 0.694 Q0.680 0.921 1.097 1.027" stroke="hsl(0.0,100%,35%)" stroke-width="0.00715"></path>
<path d="M0.794 0.694 Q0.856 0.825 1.124 0.823" stroke="hsl(0.0,100%,35%)" stroke-width="0.01787"></path>
<path d="M0.794 0.694 Q0.659 0.816 0.867 0.909" stroke="hsl(0.0,100%,35%)" stroke-width="0.01072"></path>
<path d="M0.591 0.422 Q0.662 0.414 0.662 0.378" stroke="hsl(180.0,100%,35%)" stroke-width="0.00119"></path>
<path d="M0.591 0.422 Q0.361 0.826 1.097 1.027" stroke="hsl(180.0,100%,35%)" stroke-width="0.00238"></path>
<path d="M0.591 0.422 Q0.370 0.284 0.051 0.362" stroke="hsl(180.0,100%,35%)" stroke-width="0.00119"></path>
<path d="M1.316 0.723 Q1.111 0.834 1.283 0.958" stroke="hsl(0.0,100%,35%)" stroke-width="0.00238"></path>
<path d="M1.316 0.723 Q1.157 0.349 0.394 0.345" stroke="hsl(0.0,100%,35%)" stroke-width="0.00238"></path>
<path d="M1.316 0.723 Q0.591 0.605 0.202 0.933" stroke="hsl(0.0,100%,35%)" stroke-width="0.00238"></path>
<path d="M1.316 0.723 Q1.307 0.674 1.209 0.667" stroke="hsl(0.0,100%,35%)" stroke-width="0.00238"></path>
<path d="M1.316 0.723 Q1.131 0.809 1.258 0.918" stroke="hsl(0.0,100%,35%)" stroke-width="0.00119"></path>
<path d="M1.829 0.559 Q1.283 0.165 0.394 0.345" stroke="hsl(180.0,100%,35%)" stroke-width="0.00119"></path>
<path d="M1.829 0.559 Q1.857 0.581 1.905 0.572" stroke="hsl(180.0,100%,35%)" stroke-width="0.00238"></path>
<path d="M1.829 0.559 Q1.433 0.489 1.209 0.667" stroke="hsl(180.0,100%,35%)" stroke-width="0.00119"></path>
<path d="M1.020 0.636 Q1.090 0.689 1.209 0.667" stroke="hsl(0.0,100%,35%)" stroke-width="0.00238"></path>
<path d="M1.020 0.636 Q0.922 0.750 1.124 0.823" stroke="hsl(0.0,100%,35%)" stroke-width="0.00119"></path>
<path d="M1.020 0.636 Q1.390 0.596 1.394 0.407" stroke="hsl(0.0,100%,35%)" stroke-width="0.00119"></path>
<path d="M1.839 0.888 Q1.731 0.850 1.633 0.894" stroke="hsl(180.0,100%,35%)" stroke-width="0.00357"></path>
<path d="M1.839 0.888 Q1.900 0.792 1.726 0.742" stroke="hsl(180.0,100%,35%)" stroke-width="0.00119"></path>
<path d="M1.839 0.888 Q1.399 0.604 0.747 0.756" stroke="hsl(180.0,100%,35%)" stroke-width="0.00119"></path>
<path d="M1.839 0.888 Q1.790 0.796 1.598 0.799" stroke="hsl(180.0,100%,35%)" stroke-width="0.00119"></path>
<path d="M1.839 0.888 Q1.738 0.834 1.609 0.871" stroke="hsl(180.0,100%,35%)" stroke-width="0.00238"></path>
<path d="M1.839 0.888 Q1.367 0.267 0.051 0.362" stroke="hsl(180.0,100%,35%)" stroke-width="0.00238"></path>
<path d="M1.839 0.888 Q1.828 0.906 1.861 0.915" stroke="hsl(180.0,100%,35%)" stroke-width="0.00238"></path>
<path d="M1.839 0.888 Q1.911 0.845 1.842 0.801" stroke="hsl(180.0,100%,35%)" stroke-width="0.00119"></path>
<path d="M0.202 0.796 Q0.465 1.090 1.097 1.027" stroke="hsl(0.0,100%,35%)" stroke-width="0.00357"></path>
<path d="M0.202 0.796 Q0.092 0.865 0.202 0.933" stroke="hsl(0.0,100%,35%)" stroke-width="0.00357"></path>
<path d="M0.202 0.796 Q0.632 1.068 1.258 0.918" stroke="hsl(0.0,100%,35%)" stroke-width="0.00119"></path>
<path d="M0.827 1.040 Q0.973 1.087 1.097 1.027" stroke="hsl(0.0,100%,35%)" stroke-width="0.01906"></path>
<path d="M0.827 1.040 Q0.600 0.861 0.202 0.933" stroke="hsl(0.0,100%,35%)" stroke-width="0.00119"></path>
<path d="M0.827 1.040 Q0.809 1.042 0.810 1.052" stroke="hsl(0.0,100%,35%)" stroke-width="0.00238"></path>
<path d="M0.827 1.040 Q0.762 0.920 0.515 0.926" stroke="hsl(0.0,100%,35%)" stroke-width="0.00119"></path>
<path d="M0.827 1.040 Q1.616 0.837 1.394 0.407" stroke="hsl(0.0,100%,35%)" stroke-width="0.00119"></path>
<path d="M0.827 1.040 Q1.316 0.930 1.209 0.667" stroke="hsl(0.0,100%,35%)" stroke-width="0.00119"></path>
<path d="M1.012 0.666 Q1.110 0.706 1.209 0.667" stroke="hsl(0.0,100%,35%)" stroke-width="0.00357"></path>
<path d="M1.012 0.666 Q1.409 0.613 1.394 0.407" stroke="hsl(0.0,100%,35%)" stroke-width="0.00238"></path>
<path d="M1.012 0.666 Q0.766 0.863 1.097 1.027" stroke="hsl(0.0,100%,35%)" stroke-width="0.00119"></path>
<path d="M0.996 0.694 Q0.781 0.881 1.097 1.027" stroke="hsl(180.0,100%,35%)" stroke-width="0.00119"></path>
<path d="M0.996 0.694 Q1.424 0.630 1.394 0.407" stroke="hsl(180.0,100%,35%)" stroke-width="0.00119"></path>
<path d="M0.996 0.694 Q0.974 0.399 0.394 0.345" stroke="hsl(180.0,100%,35%)" stroke-width="0.00119"></path>
<path d="M0.996 0.694 Q1.124 0.723 1.209 0.667" stroke="hsl(180.0,100%,35%)" stroke-width="0.00119"></path>
</g>
<text x="0.178" y="0.570" font-size="0.012142" fill="hsl(0.0,100%,20%)">ajuma</text>
<text x="0.456" y="0.568" font-size="0.008585" fill="hsl(0.0,100%,20%)">gab</text>
<text x="1.097" y="0.982" font-size="0.089498" fill="hsl(0.0,100%,20%)">bartekn</text>
<text x="0.872" y="0.536" font-size="0.058650" fill="hsl(0.0,100%,20%)">yukishiino</text>
<text x="1.283" y="0.945" font-size="0.026693" fill="hsl(0.0,100%,20%)">arthursonzogni</text>
<text x="0.394" y="0.333" font-size="0.023772" fill="hsl(180.0,100%,20%)">danakj</text>
<text x="0.829" y="0.919" font-size="0.035744" fill="hsl(0.0,100%,20%)">keishi</text>
<text x="1.258" y="0.907" font-size="0.022168" fill="hsl(0.0,100%,20%)">glazunov</text>
<text x="1.394" y="0.382" font-size="0.051513" fill="hsl(0.0,100%,20%)">lizeb</text>
<text x="1.209" y="0.645" font-size="0.043496" fill="hsl(0.0,100%,20%)">haraken</text>
<text x="0.676" y="0.075" font-size="0.017171" fill="hsl(180.0,100%,20%)">avi</text>
<text x="0.202" y="0.922" font-size="0.023250" fill="hsl(0.0,100%,20%)">dcheng</text>
<text x="0.508" y="0.162" font-size="0.012142" fill="hsl(180.0,100%,20%)">mark</text>
<text x="0.990" y="0.167" font-size="0.004957" fill="hsl(180.0,100%,20%)">tedchoc</text>
<text x="0.889" y="0.028" font-size="0.009914" fill="hsl(180.0,100%,20%)">rsesek</text>
<text x="0.680" y="0.178" font-size="0.004957" fill="hsl(180.0,100%,20%)">vovoy</text>
<text x="0.828" y="0.195" font-size="0.004957" fill="hsl(180.0,100%,20%)">garykac</text>
<text x="0.918" y="0.097" font-size="0.004957" fill="hsl(180.0,100%,20%)">khorimoto</text>
<text x="0.812" y="0.154" font-size="0.004957" fill="hsl(180.0,100%,20%)">mbonadei</text>
<text x="1.069" y="0.070" font-size="0.007010" fill="hsl(0.0,100%,20%)">rohitrao</text>
<text x="0.867" y="0.865" font-size="0.087274" fill="hsl(0.0,100%,20%)">kdlee</text>
<text x="1.250" y="1.052" font-size="0.009914" fill="hsl(0.0,100%,20%)">altimin</text>
<text x="1.336" y="0.919" font-size="0.023250" fill="hsl(0.0,100%,20%)">bikineev</text>
<text x="1.905" y="0.565" font-size="0.014020" fill="hsl(180.0,100%,20%)">thestig</text>
<text x="1.032" y="0.823" font-size="0.012142" fill="hsl(0.0,100%,20%)">bgeffon</text>
<text x="0.911" y="0.908" font-size="0.004957" fill="hsl(0.0,100%,20%)">tsepez</text>
<text x="1.124" y="0.792" font-size="0.062503" fill="hsl(0.0,100%,20%)">tasak</text>
<text x="1.080" y="0.764" font-size="0.008585" fill="hsl(0.0,100%,20%)">gbeaty</text>
<text x="1.169" y="0.897" font-size="0.008585" fill="hsl(0.0,100%,20%)">jochen</text>
<text x="1.425" y="0.931" font-size="0.017171" fill="hsl(0.0,100%,20%)">richard.townsend</text>
<text x="1.609" y="0.865" font-size="0.012142" fill="hsl(180.0,100%,20%)">wfh</text>
<text x="1.314" y="1.116" font-size="0.004957" fill="hsl(0.0,100%,20%)">asully</text>
<text x="0.706" y="0.726" font-size="0.004957" fill="hsl(0.0,100%,20%)">hypan</text>
<text x="0.051" y="0.350" font-size="0.024283" fill="hsl(180.0,100%,20%)">pkasting</text>
<text x="0.633" y="0.274" font-size="0.004957" fill="hsl(180.0,100%,20%)">lukasza</text>
<text x="1.820" y="0.648" font-size="0.009914" fill="hsl(0.0,100%,20%)">dsanders11</text>
<text x="1.352" y="0.523" font-size="0.008585" fill="hsl(180.0,100%,20%)">floresa</text>
<text x="0.902" y="0.647" font-size="0.013115" fill="hsl(0.0,100%,20%)">mpdenton</text>
<text x="1.724" y="0.410" font-size="0.011084" fill="hsl(0.0,100%,20%)">guochengwei</text>
<text x="1.948" y="0.400" font-size="0.007010" fill="hsl(0.0,100%,20%)">kimstephanie</text>
<text x="1.812" y="0.315" font-size="0.004957" fill="hsl(0.0,100%,20%)">smaier</text>
<text x="1.656" y="0.340" font-size="0.004957" fill="hsl(0.0,100%,20%)">dnicoara</text>
<text x="1.685" y="0.084" font-size="0.014020" fill="hsl(180.0,100%,20%)">hans</text>
<text x="1.850" y="0.158" font-size="0.011084" fill="hsl(180.0,100%,20%)">thakis</text>
<text x="1.028" y="0.726" font-size="0.012142" fill="hsl(0.0,100%,20%)">mlippautz</text>
<text x="1.445" y="0.100" font-size="0.004957" fill="hsl(180.0,100%,20%)">aeubanks</text>
<text x="1.960" y="0.310" font-size="0.008585" fill="hsl(0.0,100%,20%)">hnakashima</text>
<text x="1.641" y="0.491" font-size="0.026229" fill="hsl(0.0,100%,20%)">thiabaud</text>
<text x="0.794" y="0.681" font-size="0.027150" fill="hsl(0.0,100%,20%)">honokaanada</text>
<text x="0.947" y="1.075" font-size="0.004957" fill="hsl(0.0,100%,20%)">danilchap</text>
<text x="1.275" y="0.496" font-size="0.009914" fill="hsl(0.0,100%,20%)">fdoray</text>
<text x="1.013" y="0.414" font-size="0.007010" fill="hsl(0.0,100%,20%)">sdefresne</text>
<text x="0.810" y="1.047" font-size="0.008585" fill="hsl(0.0,100%,20%)">leszeks</text>
<text x="0.747" y="0.751" font-size="0.008585" fill="hsl(0.0,100%,20%)">kylechar</text>
<text x="0.794" y="0.713" font-size="0.008585" fill="hsl(0.0,100%,20%)">tkent</text>
<text x="0.735" y="0.730" font-size="0.007010" fill="hsl(0.0,100%,20%)">metzman</text>
<text x="1.419" y="0.738" font-size="0.004957" fill="hsl(0.0,100%,20%)">etienneb</text>
<text x="0.902" y="0.743" font-size="0.004957" fill="hsl(0.0,100%,20%)">erikchen</text>
<text x="1.244" y="0.755" font-size="0.004957" fill="hsl(0.0,100%,20%)">ayui</text>
<text x="0.628" y="0.722" font-size="0.004957" fill="hsl(0.0,100%,20%)">primiano</text>
<text x="0.807" y="0.910" font-size="0.004957" fill="hsl(0.0,100%,20%)">wez</text>
<text x="0.677" y="0.798" font-size="0.004957" fill="hsl(0.0,100%,20%)">battre</text>
<text x="0.580" y="0.829" font-size="0.004957" fill="hsl(0.0,100%,20%)">ccameron</text>
<text x="0.481" y="1.416" font-size="0.004957" fill="hsl(0.0,100%,20%)">rakina</text>
<text x="0.520" y="0.821" font-size="0.004957" fill="hsl(0.0,100%,20%)">wrong</text>
<text x="0.515" y="0.921" font-size="0.009914" fill="hsl(0.0,100%,20%)">ssid</text>
<text x="0.591" y="0.417" font-size="0.009914" fill="hsl(180.0,100%,20%)">marshall</text>
<text x="0.662" y="0.376" font-size="0.004957" fill="hsl(180.0,100%,20%)">perrier</text>
<text x="1.316" y="0.715" font-size="0.014870" fill="hsl(0.0,100%,20%)">paulsemel</text>
<text x="1.829" y="0.554" font-size="0.009914" fill="hsl(180.0,100%,20%)">pbos</text>
<text x="0.108" y="0.195" font-size="0.004957" fill="hsl(180.0,100%,20%)">agrieve</text>
<text x="0.072" y="0.215" font-size="0.004957" fill="hsl(180.0,100%,20%)">wittman</text>
<text x="0.363" y="0.149" font-size="0.007010" fill="hsl(180.0,100%,20%)">nicolaso</text>
<text x="0.257" y="0.235" font-size="0.007010" fill="hsl(180.0,100%,20%)">behdadb</text>
<text x="1.020" y="0.631" font-size="0.009914" fill="hsl(0.0,100%,20%)">qitiezheng</text>
<text x="1.839" y="0.879" font-size="0.017872" fill="hsl(180.0,100%,20%)">rwkeane</text>
<text x="1.633" y="0.890" font-size="0.008585" fill="hsl(180.0,100%,20%)">ajgo</text>
<text x="1.726" y="0.739" font-size="0.004957" fill="hsl(180.0,100%,20%)">mfoltz</text>
<text x="1.598" y="0.797" font-size="0.004957" fill="hsl(180.0,100%,20%)">ddorwin</text>
<text x="1.861" y="0.912" font-size="0.007010" fill="hsl(180.0,100%,20%)">jshin</text>
<text x="1.842" y="0.799" font-size="0.004957" fill="hsl(180.0,100%,20%)">kmarshall</text>
<text x="0.202" y="0.789" font-size="0.013115" fill="hsl(0.0,100%,20%)">saelo</text>
<text x="0.827" y="1.028" font-size="0.023250" fill="hsl(0.0,100%,20%)">sroettger</text>
<text x="1.012" y="0.660" font-size="0.012142" fill="hsl(0.0,100%,20%)">stha09</text>
<text x="0.619" y="0.747" font-size="0.004957" fill="hsl(0.0,100%,20%)">tikuta</text>
<text x="1.160" y="0.680" font-size="0.004957" fill="hsl(0.0,100%,20%)">estaab</text>
<text x="1.545" y="0.610" font-size="0.004957" fill="hsl(0.0,100%,20%)">dgozman</text>
<text x="1.716" y="0.440" font-size="0.004957" fill="hsl(0.0,100%,20%)">jamiewalch</text>
<text x="0.996" y="0.689" font-size="0.009914" fill="hsl(180.0,100%,20%)">wangqing-hf</text>
<text x="0.705" y="0.593" font-size="0.004957" fill="hsl(0.0,100%,20%)">joenotcharles</text>
<text x="1.023" y="0.474" font-size="0.004957" fill="hsl(0.0,100%,20%)">rockot</text>
<text x="0.690" y="0.599" font-size="0.004957" fill="hsl(0.0,100%,20%)">mamir</text>
<text x="1.174" y="0.484" font-size="0.004957" fill="hsl(0.0,100%,20%)">meacer</text>
<text x="1.148" y="0.384" font-size="0.004957" fill="hsl(0.0,100%,20%)">victortan</text>
</svg>
