<svg width="4000" height="2000" viewBox="-0.025 -0.025 2.05 1.05" xmlns="http://www.w3.org/2000/svg">
  <style>
    path {
      fill: none;
      stroke-linecap: round;
      stroke-opacity: 0.4;
    }

    text {
      text-anchor: middle;
      alignment-baseline: hanging;
    }
  </style>
  <g opacity="0.4">
<path d="M1.888 0.224 Q1.672 0.167 1.511 0.259" stroke="hsl(0.0,100%,35%)" stroke-width="0.04023"></path>
<path d="M1.888 0.224 Q1.254 0.135 0.940 0.424" stroke="hsl(0.0,100%,35%)" stroke-width="0.03017"></path>
<path d="M1.888 0.224 Q1.040 0.473 1.339 0.941" stroke="hsl(0.0,100%,35%)" stroke-width="0.03017"></path>
<path d="M0.940 0.424 Q0.890 0.486 1.000 0.524" stroke="hsl(0.0,100%,35%)" stroke-width="0.01006"></path>
<path d="M0.940 0.424 Q1.234 0.319 1.094 0.153" stroke="hsl(0.0,100%,35%)" stroke-width="0.02011"></path>
<path d="M0.940 0.424 Q0.846 0.349 0.680 0.379" stroke="hsl(0.0,100%,35%)" stroke-width="0.03017"></path>
<path d="M0.940 0.424 Q1.144 0.502 1.340 0.419" stroke="hsl(0.0,100%,35%)" stroke-width="0.01006"></path>
<path d="M0.940 0.424 Q1.021 0.553 1.291 0.542" stroke="hsl(0.0,100%,35%)" stroke-width="0.01006"></path>
<path d="M1.339 0.941 Q1.473 0.839 1.304 0.750" stroke="hsl(0.0,100%,35%)" stroke-width="0.01006"></path>
<path d="M1.339 0.941 Q1.459 0.528 0.680 0.379" stroke="hsl(0.0,100%,35%)" stroke-width="0.02011"></path>
<path d="M1.339 0.941 Q1.847 0.498 1.094 0.153" stroke="hsl(0.0,100%,35%)" stroke-width="0.01006"></path>
<path d="M1.339 0.941 Q1.351 0.770 1.021 0.727" stroke="hsl(0.0,100%,35%)" stroke-width="0.01006"></path>
<path d="M1.094 0.153 Q0.706 0.183 0.680 0.379" stroke="hsl(0.0,100%,35%)" stroke-width="0.03017"></path>
<path d="M1.094 0.153 Q0.800 0.258 0.940 0.424" stroke="hsl(0.0,100%,35%)" stroke-width="0.01006"></path>
<path d="M1.094 0.153 Q0.586 0.596 1.339 0.941" stroke="hsl(0.0,100%,35%)" stroke-width="0.02011"></path>
<path d="M1.094 0.153 Q0.785 0.090 0.595 0.227" stroke="hsl(0.0,100%,35%)" stroke-width="0.01006"></path>
<path d="M1.058 0.299 Q1.193 0.233 1.094 0.153" stroke="hsl(180.0,100%,35%)" stroke-width="0.02011"></path>
<path d="M1.058 0.299 Q0.338 0.442 0.460 0.825" stroke="hsl(180.0,100%,35%)" stroke-width="0.01006"></path>
<path d="M1.058 0.299 Q1.316 0.370 1.511 0.259" stroke="hsl(180.0,100%,35%)" stroke-width="0.01006"></path>
<path d="M0.481 0.530 Q0.235 0.673 0.460 0.825" stroke="hsl(180.0,100%,35%)" stroke-width="0.04023"></path>
<path d="M0.481 0.530 Q0.526 0.612 0.696 0.608" stroke="hsl(180.0,100%,35%)" stroke-width="0.01006"></path>
<path d="M0.481 0.530 Q0.745 0.631 1.000 0.524" stroke="hsl(180.0,100%,35%)" stroke-width="0.01006"></path>
<path d="M0.481 0.530 Q0.205 0.522 0.130 0.655" stroke="hsl(180.0,100%,35%)" stroke-width="0.01006"></path>
</g>
<text x="1.888" y="0.190" font-size="0.069843" fill="hsl(0.0,100%,20%)">adarom</text>
<text x="1.511" y="0.234" font-size="0.049386" fill="hsl(0.0,100%,20%)">tasak</text>
<text x="0.940" y="0.386" font-size="0.076509" fill="hsl(0.0,100%,20%)">mikt</text>
<text x="1.339" y="0.906" font-size="0.069843" fill="hsl(0.0,100%,20%)">kdlee</text>
<text x="1.094" y="0.114" font-size="0.076509" fill="hsl(0.0,100%,20%)">bartekn</text>
<text x="0.680" y="0.348" font-size="0.062470" fill="hsl(0.0,100%,20%)">keishi</text>
<text x="0.595" y="0.216" font-size="0.022086" fill="hsl(0.0,100%,20%)">glazunov</text>
<text x="1.058" y="0.276" font-size="0.044173" fill="hsl(180.0,100%,20%)">justincohen</text>
<text x="0.460" y="0.800" font-size="0.049386" fill="hsl(180.0,100%,20%)">lizeb</text>
<text x="1.304" y="0.739" font-size="0.022086" fill="hsl(0.0,100%,20%)">bikineev</text>
<text x="1.021" y="0.716" font-size="0.022086" fill="hsl(0.0,100%,20%)">yukishiino</text>
<text x="1.000" y="0.508" font-size="0.031235" fill="hsl(180.0,100%,20%)">dcheng</text>
<text x="1.340" y="0.408" font-size="0.022086" fill="hsl(0.0,100%,20%)">danakj</text>
<text x="1.291" y="0.531" font-size="0.022086" fill="hsl(0.0,100%,20%)">arthursonzogni</text>
<text x="0.481" y="0.501" font-size="0.058435" fill="hsl(180.0,100%,20%)">sky</text>
<text x="0.696" y="0.597" font-size="0.022086" fill="hsl(180.0,100%,20%)">jam</text>
<text x="0.130" y="0.644" font-size="0.022086" fill="hsl(180.0,100%,20%)">ffred</text>
</svg>
