<svg width="4000" height="2000" viewBox="-0.025 -0.025 2.05 1.05" xmlns="http://www.w3.org/2000/svg">
  <style>
    path {
      fill: none;
      stroke-linecap: round;
      stroke-opacity: 0.4;
    }

    text {
      text-anchor: middle;
      alignment-baseline: hanging;
    }
  </style>
  <g opacity="0.4">
<path d="M1.823 0.458 Q1.861 0.480 1.911 0.466" stroke="hsl(0.0,100%,35%)" stroke-width="0.00114"></path>
<path d="M1.823 0.458 Q1.211 0.077 0.334 0.293" stroke="hsl(0.0,100%,35%)" stroke-width="0.00114"></path>
<path d="M1.823 0.458 Q1.972 0.418 1.927 0.336" stroke="hsl(0.0,100%,35%)" stroke-width="0.00114"></path>
<path d="M0.978 0.989 Q0.955 0.967 0.907 0.973" stroke="hsl(0.0,100%,35%)" stroke-width="0.00114"></path>
<path d="M0.978 0.989 Q0.870 0.885 0.643 0.915" stroke="hsl(0.0,100%,35%)" stroke-width="0.00114"></path>
<path d="M0.978 0.989 Q1.234 0.737 0.798 0.557" stroke="hsl(0.0,100%,35%)" stroke-width="0.00114"></path>
<path d="M0.978 0.989 Q1.215 0.799 0.897 0.642" stroke="hsl(0.0,100%,35%)" stroke-width="0.00228"></path>
<path d="M0.978 0.989 Q1.213 0.512 0.334 0.293" stroke="hsl(0.0,100%,35%)" stroke-width="0.00114"></path>
<path d="M0.978 0.989 Q1.593 0.780 1.320 0.434" stroke="hsl(0.0,100%,35%)" stroke-width="0.00114"></path>
<path d="M0.978 0.989 Q1.072 0.829 0.782 0.748" stroke="hsl(0.0,100%,35%)" stroke-width="0.00114"></path>
<path d="M1.320 0.434 Q0.942 0.453 0.897 0.642" stroke="hsl(180.0,100%,35%)" stroke-width="0.00342"></path>
<path d="M1.320 0.434 Q1.478 0.470 1.582 0.401" stroke="hsl(180.0,100%,35%)" stroke-width="0.00684"></path>
<path d="M1.320 0.434 Q1.448 0.380 1.372 0.306" stroke="hsl(180.0,100%,35%)" stroke-width="0.00228"></path>
<path d="M1.320 0.434 Q1.195 0.436 1.173 0.498" stroke="hsl(180.0,100%,35%)" stroke-width="0.00114"></path>
<path d="M1.320 0.434 Q0.655 0.459 0.558 0.789" stroke="hsl(180.0,100%,35%)" stroke-width="0.00114"></path>
<path d="M1.320 0.434 Q0.698 0.221 0.146 0.477" stroke="hsl(180.0,100%,35%)" stroke-width="0.00114"></path>
<path d="M1.320 0.434 Q0.799 0.484 0.782 0.748" stroke="hsl(180.0,100%,35%)" stroke-width="0.00228"></path>
<path d="M0.782 0.748 Q0.637 0.724 0.558 0.789" stroke="hsl(180.0,100%,35%)" stroke-width="0.06958"></path>
<path d="M0.782 0.748 Q0.359 0.754 0.277 0.962" stroke="hsl(180.0,100%,35%)" stroke-width="0.00228"></path>
<path d="M0.782 0.748 Q1.020 0.774 1.122 0.664" stroke="hsl(180.0,100%,35%)" stroke-width="0.02624"></path>
<path d="M0.782 0.748 Q0.923 0.431 0.334 0.293" stroke="hsl(180.0,100%,35%)" stroke-width="0.00114"></path>
<path d="M0.782 0.748 Q0.924 0.718 0.897 0.642" stroke="hsl(180.0,100%,35%)" stroke-width="0.06958"></path>
<path d="M0.782 0.748 Q0.877 0.838 1.073 0.812" stroke="hsl(180.0,100%,35%)" stroke-width="0.00114"></path>
<path d="M0.782 0.748 Q0.788 0.632 0.563 0.603" stroke="hsl(180.0,100%,35%)" stroke-width="0.00684"></path>
<path d="M0.782 0.748 Q1.012 0.861 1.282 0.773" stroke="hsl(180.0,100%,35%)" stroke-width="0.00798"></path>
<path d="M0.782 0.748 Q1.460 0.734 1.582 0.401" stroke="hsl(180.0,100%,35%)" stroke-width="0.02395"></path>
<path d="M0.782 0.748 Q1.073 0.537 0.725 0.349" stroke="hsl(180.0,100%,35%)" stroke-width="0.00114"></path>
<path d="M0.782 0.748 Q0.625 0.617 0.335 0.665" stroke="hsl(180.0,100%,35%)" stroke-width="0.00114"></path>
<path d="M0.782 0.748 Q0.797 0.861 1.019 0.878" stroke="hsl(180.0,100%,35%)" stroke-width="0.00456"></path>
<path d="M0.782 0.748 Q0.617 0.762 0.607 0.846" stroke="hsl(180.0,100%,35%)" stroke-width="0.00570"></path>
<path d="M0.782 0.748 Q0.852 0.701 0.774 0.657" stroke="hsl(180.0,100%,35%)" stroke-width="0.00228"></path>
<path d="M0.782 0.748 Q0.654 0.827 0.780 0.907" stroke="hsl(180.0,100%,35%)" stroke-width="0.01483"></path>
<path d="M0.782 0.748 Q1.303 0.699 1.320 0.434" stroke="hsl(180.0,100%,35%)" stroke-width="0.00228"></path>
<path d="M0.782 0.748 Q0.744 0.810 0.856 0.841" stroke="hsl(180.0,100%,35%)" stroke-width="0.00228"></path>
<path d="M0.782 0.748 Q0.649 0.755 0.633 0.821" stroke="hsl(180.0,100%,35%)" stroke-width="0.00228"></path>
<path d="M0.782 0.748 Q0.919 0.504 0.472 0.384" stroke="hsl(180.0,100%,35%)" stroke-width="0.00114"></path>
<path d="M0.782 0.748 Q1.795 0.671 1.865 0.160" stroke="hsl(180.0,100%,35%)" stroke-width="0.00114"></path>
<path d="M0.782 0.748 Q0.903 0.819 1.067 0.775" stroke="hsl(180.0,100%,35%)" stroke-width="0.00114"></path>
<path d="M0.782 0.748 Q1.483 0.621 1.388 0.251" stroke="hsl(180.0,100%,35%)" stroke-width="0.00114"></path>
<path d="M0.782 0.748 Q0.710 0.817 0.828 0.867" stroke="hsl(180.0,100%,35%)" stroke-width="0.00228"></path>
<path d="M0.782 0.748 Q0.579 0.804 0.643 0.915" stroke="hsl(180.0,100%,35%)" stroke-width="0.00228"></path>
<path d="M0.782 0.748 Q0.874 0.686 0.773 0.628" stroke="hsl(180.0,100%,35%)" stroke-width="0.00228"></path>
<path d="M0.782 0.748 Q0.898 0.841 1.104 0.804" stroke="hsl(180.0,100%,35%)" stroke-width="0.00114"></path>
<path d="M0.782 0.748 Q0.924 0.308 0.097 0.142" stroke="hsl(180.0,100%,35%)" stroke-width="0.00114"></path>
<path d="M0.782 0.748 Q1.205 0.540 0.892 0.288" stroke="hsl(180.0,100%,35%)" stroke-width="0.00228"></path>
<path d="M0.782 0.748 Q0.695 0.783 0.743 0.832" stroke="hsl(180.0,100%,35%)" stroke-width="0.00228"></path>
<path d="M0.782 0.748 Q0.835 0.828 1.002 0.819" stroke="hsl(180.0,100%,35%)" stroke-width="0.00228"></path>
<path d="M0.782 0.748 Q0.955 0.721 0.939 0.630" stroke="hsl(180.0,100%,35%)" stroke-width="0.00228"></path>
<path d="M0.782 0.748 Q0.711 0.893 0.977 0.959" stroke="hsl(180.0,100%,35%)" stroke-width="0.00114"></path>
<path d="M0.782 0.748 Q0.793 0.833 0.962 0.847" stroke="hsl(180.0,100%,35%)" stroke-width="0.00228"></path>
<path d="M0.782 0.748 Q0.810 0.851 1.015 0.860" stroke="hsl(180.0,100%,35%)" stroke-width="0.00114"></path>
<path d="M0.782 0.748 Q0.855 0.696 0.770 0.649" stroke="hsl(180.0,100%,35%)" stroke-width="0.00114"></path>
<path d="M0.782 0.748 Q0.858 0.693 0.766 0.644" stroke="hsl(180.0,100%,35%)" stroke-width="0.00114"></path>
<path d="M0.782 0.748 Q1.055 0.761 1.141 0.631" stroke="hsl(180.0,100%,35%)" stroke-width="0.00114"></path>
<path d="M0.782 0.748 Q0.911 0.718 0.881 0.649" stroke="hsl(180.0,100%,35%)" stroke-width="0.00114"></path>
<path d="M0.782 0.748 Q0.831 0.593 0.538 0.535" stroke="hsl(180.0,100%,35%)" stroke-width="0.00114"></path>
<path d="M0.782 0.748 Q0.832 0.808 0.960 0.797" stroke="hsl(180.0,100%,35%)" stroke-width="0.00228"></path>
<path d="M0.782 0.748 Q0.721 0.806 0.820 0.848" stroke="hsl(180.0,100%,35%)" stroke-width="0.00114"></path>
<path d="M0.725 0.349 Q0.857 0.352 0.892 0.288" stroke="hsl(0.0,100%,35%)" stroke-width="0.00342"></path>
<path d="M0.725 0.349 Q0.231 0.616 0.643 0.915" stroke="hsl(0.0,100%,35%)" stroke-width="0.00114"></path>
<path d="M0.725 0.349 Q0.664 0.672 1.282 0.773" stroke="hsl(0.0,100%,35%)" stroke-width="0.00114"></path>
<path d="M0.558 0.789 Q0.703 0.814 0.782 0.748" stroke="hsl(180.0,100%,35%)" stroke-width="0.07186"></path>
<path d="M0.558 0.789 Q0.845 0.783 0.897 0.642" stroke="hsl(180.0,100%,35%)" stroke-width="0.06958"></path>
<path d="M0.558 0.789 Q0.902 0.668 0.741 0.474" stroke="hsl(180.0,100%,35%)" stroke-width="0.00342"></path>
<path d="M0.558 0.789 Q0.567 0.809 0.607 0.809" stroke="hsl(180.0,100%,35%)" stroke-width="0.00456"></path>
<path d="M0.558 0.789 Q0.709 0.697 0.563 0.603" stroke="hsl(180.0,100%,35%)" stroke-width="0.03194"></path>
<path d="M0.558 0.789 Q0.940 0.839 1.122 0.664" stroke="hsl(180.0,100%,35%)" stroke-width="0.00114"></path>
<path d="M0.558 0.789 Q0.606 0.681 0.405 0.633" stroke="hsl(180.0,100%,35%)" stroke-width="0.00114"></path>
<path d="M0.558 0.789 Q0.573 0.659 0.322 0.623" stroke="hsl(180.0,100%,35%)" stroke-width="0.00228"></path>
<path d="M0.558 0.789 Q0.933 0.926 1.282 0.773" stroke="hsl(180.0,100%,35%)" stroke-width="0.00684"></path>
<path d="M0.558 0.789 Q1.381 0.800 1.582 0.401" stroke="hsl(180.0,100%,35%)" stroke-width="0.00456"></path>
<path d="M0.558 0.789 Q0.575 0.892 0.780 0.907" stroke="hsl(180.0,100%,35%)" stroke-width="0.00228"></path>
<path d="M0.558 0.789 Q0.566 0.822 0.633 0.826" stroke="hsl(180.0,100%,35%)" stroke-width="0.00114"></path>
<path d="M0.558 0.789 Q1.715 0.736 1.865 0.160" stroke="hsl(180.0,100%,35%)" stroke-width="0.00114"></path>
<path d="M0.558 0.789 Q0.754 0.647 0.520 0.520" stroke="hsl(180.0,100%,35%)" stroke-width="0.00114"></path>
<path d="M0.558 0.789 Q0.545 0.683 0.335 0.665" stroke="hsl(180.0,100%,35%)" stroke-width="0.00456"></path>
<path d="M0.558 0.789 Q0.864 0.721 0.798 0.557" stroke="hsl(180.0,100%,35%)" stroke-width="0.00228"></path>
<path d="M0.558 0.789 Q0.732 0.675 0.547 0.565" stroke="hsl(180.0,100%,35%)" stroke-width="0.00114"></path>
<path d="M0.558 0.789 Q0.761 0.745 0.720 0.637" stroke="hsl(180.0,100%,35%)" stroke-width="0.00228"></path>
<path d="M0.558 0.789 Q1.356 0.490 0.947 0.035" stroke="hsl(180.0,100%,35%)" stroke-width="0.00114"></path>
<path d="M0.558 0.789 Q0.710 0.732 0.633 0.646" stroke="hsl(180.0,100%,35%)" stroke-width="0.00114"></path>
<path d="M0.558 0.789 Q0.497 0.668 0.248 0.672" stroke="hsl(180.0,100%,35%)" stroke-width="0.00114"></path>
<path d="M0.558 0.789 Q0.739 0.741 0.685 0.642" stroke="hsl(180.0,100%,35%)" stroke-width="0.00114"></path>
<path d="M0.558 0.789 Q0.751 0.658 0.538 0.535" stroke="hsl(180.0,100%,35%)" stroke-width="0.00456"></path>
<path d="M0.558 0.789 Q0.650 0.720 0.535 0.660" stroke="hsl(180.0,100%,35%)" stroke-width="0.00114"></path>
<path d="M0.558 0.789 Q0.674 0.945 1.004 0.923" stroke="hsl(180.0,100%,35%)" stroke-width="0.00114"></path>
<path d="M0.558 0.789 Q0.420 0.752 0.318 0.811" stroke="hsl(180.0,100%,35%)" stroke-width="0.00114"></path>
<path d="M0.558 0.789 Q0.500 0.869 0.643 0.915" stroke="hsl(180.0,100%,35%)" stroke-width="0.00114"></path>
<path d="M0.558 0.789 Q0.843 0.496 0.334 0.293" stroke="hsl(180.0,100%,35%)" stroke-width="0.00114"></path>
<path d="M0.558 0.789 Q0.492 0.782 0.463 0.812" stroke="hsl(180.0,100%,35%)" stroke-width="0.00114"></path>
<path d="M0.277 0.962 Q0.843 0.926 0.897 0.642" stroke="hsl(180.0,100%,35%)" stroke-width="0.00456"></path>
<path d="M0.277 0.962 Q0.700 0.956 0.782 0.748" stroke="hsl(180.0,100%,35%)" stroke-width="0.00342"></path>
<path d="M0.277 0.962 Q0.930 1.068 1.282 0.773" stroke="hsl(180.0,100%,35%)" stroke-width="0.00114"></path>
<path d="M0.277 0.962 Q0.556 0.932 0.558 0.789" stroke="hsl(180.0,100%,35%)" stroke-width="0.00114"></path>
<path d="M0.277 0.962 Q0.422 0.930 0.391 0.852" stroke="hsl(180.0,100%,35%)" stroke-width="0.00342"></path>
<path d="M1.122 0.664 Q0.891 0.522 0.563 0.603" stroke="hsl(180.0,100%,35%)" stroke-width="0.00114"></path>
<path d="M1.122 0.664 Q0.884 0.638 0.782 0.748" stroke="hsl(180.0,100%,35%)" stroke-width="0.01825"></path>
<path d="M1.122 0.664 Q0.740 0.614 0.558 0.789" stroke="hsl(180.0,100%,35%)" stroke-width="0.00570"></path>
<path d="M1.122 0.664 Q0.756 0.717 0.780 0.907" stroke="hsl(180.0,100%,35%)" stroke-width="0.00114"></path>
<path d="M1.122 0.664 Q1.562 0.624 1.582 0.401" stroke="hsl(180.0,100%,35%)" stroke-width="0.00114"></path>
<path d="M1.122 0.664 Q1.026 0.608 0.897 0.642" stroke="hsl(180.0,100%,35%)" stroke-width="0.01483"></path>
<path d="M1.122 0.664 Q1.405 0.588 1.320 0.434" stroke="hsl(180.0,100%,35%)" stroke-width="0.00228"></path>
<path d="M1.122 0.664 Q1.114 0.750 1.282 0.773" stroke="hsl(180.0,100%,35%)" stroke-width="0.00228"></path>
<path d="M0.563 0.603 Q0.412 0.695 0.558 0.789" stroke="hsl(180.0,100%,35%)" stroke-width="0.02852"></path>
<path d="M0.563 0.603 Q0.556 0.720 0.782 0.748" stroke="hsl(180.0,100%,35%)" stroke-width="0.02738"></path>
<path d="M0.563 0.603 Q0.698 0.690 0.897 0.642" stroke="hsl(180.0,100%,35%)" stroke-width="0.00798"></path>
<path d="M0.563 0.603 Q0.794 0.745 1.122 0.664" stroke="hsl(180.0,100%,35%)" stroke-width="0.00684"></path>
<path d="M0.563 0.603 Q0.786 0.832 1.282 0.773" stroke="hsl(180.0,100%,35%)" stroke-width="0.00228"></path>
<path d="M0.563 0.603 Q1.234 0.706 1.582 0.401" stroke="hsl(180.0,100%,35%)" stroke-width="0.00114"></path>
<path d="M0.563 0.603 Q1.097 0.461 0.937 0.169" stroke="hsl(180.0,100%,35%)" stroke-width="0.00114"></path>
<path d="M1.582 0.401 Q1.424 0.365 1.320 0.434" stroke="hsl(180.0,100%,35%)" stroke-width="0.09354"></path>
<path d="M1.582 0.401 Q1.046 0.384 0.897 0.642" stroke="hsl(180.0,100%,35%)" stroke-width="0.05133"></path>
<path d="M1.582 0.401 Q0.904 0.414 0.782 0.748" stroke="hsl(180.0,100%,35%)" stroke-width="0.02966"></path>
<path d="M1.582 0.401 Q1.134 0.527 1.282 0.773" stroke="hsl(180.0,100%,35%)" stroke-width="0.00228"></path>
<path d="M1.582 0.401 Q0.759 0.390 0.558 0.789" stroke="hsl(180.0,100%,35%)" stroke-width="0.00342"></path>
<path d="M1.582 0.401 Q1.550 0.313 1.374 0.310" stroke="hsl(180.0,100%,35%)" stroke-width="0.00114"></path>
<path d="M1.582 0.401 Q1.756 0.261 1.522 0.146" stroke="hsl(180.0,100%,35%)" stroke-width="0.00114"></path>
<path d="M1.582 0.401 Q1.707 0.296 1.531 0.212" stroke="hsl(180.0,100%,35%)" stroke-width="0.00228"></path>
<path d="M1.582 0.401 Q0.973 0.367 0.774 0.657" stroke="hsl(180.0,100%,35%)" stroke-width="0.00114"></path>
<path d="M1.582 0.401 Q1.605 0.287 1.388 0.251" stroke="hsl(180.0,100%,35%)" stroke-width="0.00570"></path>
<path d="M1.582 0.401 Q0.875 0.546 1.004 0.923" stroke="hsl(180.0,100%,35%)" stroke-width="0.00114"></path>
<path d="M1.582 0.401 Q0.866 0.476 0.856 0.841" stroke="hsl(180.0,100%,35%)" stroke-width="0.00114"></path>
<path d="M1.582 0.401 Q1.603 0.302 1.414 0.270" stroke="hsl(180.0,100%,35%)" stroke-width="0.00114"></path>
<path d="M1.582 0.401 Q1.299 0.367 1.173 0.498" stroke="hsl(180.0,100%,35%)" stroke-width="0.00114"></path>
<path d="M0.607 0.846 Q0.772 0.832 0.782 0.748" stroke="hsl(180.0,100%,35%)" stroke-width="0.00456"></path>
<path d="M0.607 0.846 Q0.628 0.808 0.558 0.789" stroke="hsl(180.0,100%,35%)" stroke-width="0.00228"></path>
<path d="M0.607 0.846 Q0.915 0.802 0.897 0.642" stroke="hsl(180.0,100%,35%)" stroke-width="0.00228"></path>
<path d="M0.780 0.907 Q0.908 0.828 0.782 0.748" stroke="hsl(180.0,100%,35%)" stroke-width="0.01027"></path>
<path d="M0.780 0.907 Q0.751 0.697 0.335 0.665" stroke="hsl(180.0,100%,35%)" stroke-width="0.00228"></path>
<path d="M0.780 0.907 Q0.837 0.972 0.977 0.959" stroke="hsl(180.0,100%,35%)" stroke-width="0.00114"></path>
<path d="M0.780 0.907 Q1.050 0.798 0.897 0.642" stroke="hsl(180.0,100%,35%)" stroke-width="0.00342"></path>
<path d="M0.780 0.907 Q0.763 0.804 0.558 0.789" stroke="hsl(180.0,100%,35%)" stroke-width="0.00570"></path>
<path d="M0.780 0.907 Q1.586 0.814 1.582 0.401" stroke="hsl(180.0,100%,35%)" stroke-width="0.00228"></path>
<path d="M0.780 0.907 Q0.919 0.913 0.962 0.847" stroke="hsl(180.0,100%,35%)" stroke-width="0.00114"></path>
<path d="M0.780 0.907 Q0.922 0.940 1.019 0.878" stroke="hsl(180.0,100%,35%)" stroke-width="0.00114"></path>
<path d="M0.780 0.907 Q0.879 0.960 1.004 0.923" stroke="hsl(180.0,100%,35%)" stroke-width="0.00114"></path>
<path d="M0.780 0.907 Q1.146 0.854 1.122 0.664" stroke="hsl(180.0,100%,35%)" stroke-width="0.00114"></path>
<path d="M0.472 0.384 Q0.579 0.348 0.534 0.288" stroke="hsl(0.0,100%,35%)" stroke-width="0.00114"></path>
<path d="M0.472 0.384 Q0.759 0.420 0.892 0.288" stroke="hsl(0.0,100%,35%)" stroke-width="0.00114"></path>
<path d="M0.472 0.384 Q0.384 0.472 0.538 0.535" stroke="hsl(0.0,100%,35%)" stroke-width="0.00342"></path>
<path d="M0.472 0.384 Q0.627 0.417 0.725 0.349" stroke="hsl(0.0,100%,35%)" stroke-width="0.00228"></path>
<path d="M0.472 0.384 Q0.476 0.310 0.334 0.293" stroke="hsl(0.0,100%,35%)" stroke-width="0.00114"></path>
<path d="M1.865 0.160 Q1.835 0.212 1.930 0.239" stroke="hsl(180.0,100%,35%)" stroke-width="0.00114"></path>
<path d="M1.865 0.160 Q1.768 0.173 1.773 0.224" stroke="hsl(180.0,100%,35%)" stroke-width="0.00114"></path>
<path d="M1.865 0.160 Q0.708 0.213 0.558 0.789" stroke="hsl(180.0,100%,35%)" stroke-width="0.00114"></path>
<path d="M0.538 0.535 Q1.391 0.713 1.927 0.336" stroke="hsl(0.0,100%,35%)" stroke-width="0.00114"></path>
<path d="M0.538 0.535 Q0.631 0.660 0.897 0.642" stroke="hsl(0.0,100%,35%)" stroke-width="0.00228"></path>
<path d="M0.538 0.535 Q0.489 0.690 0.782 0.748" stroke="hsl(0.0,100%,35%)" stroke-width="0.00228"></path>
<path d="M0.538 0.535 Q0.344 0.666 0.558 0.789" stroke="hsl(0.0,100%,35%)" stroke-width="0.00114"></path>
<path d="M0.538 0.535 Q0.626 0.446 0.472 0.384" stroke="hsl(0.0,100%,35%)" stroke-width="0.00114"></path>
<path d="M0.181 0.372 Q0.323 0.650 0.897 0.642" stroke="hsl(0.0,100%,35%)" stroke-width="0.00114"></path>
<path d="M0.181 0.372 Q0.378 0.370 0.417 0.273" stroke="hsl(0.0,100%,35%)" stroke-width="0.00114"></path>
<path d="M0.181 0.372 Q0.117 0.357 0.073 0.385" stroke="hsl(0.0,100%,35%)" stroke-width="0.00114"></path>
<path d="M0.181 0.372 Q0.110 0.441 0.229 0.490" stroke="hsl(0.0,100%,35%)" stroke-width="0.00114"></path>
<path d="M0.181 0.372 Q0.075 0.379 0.065 0.432" stroke="hsl(0.0,100%,35%)" stroke-width="0.00114"></path>
<path d="M0.181 0.372 Q0.217 0.301 0.086 0.268" stroke="hsl(0.0,100%,35%)" stroke-width="0.00114"></path>
<path d="M0.181 0.372 Q0.039 0.408 0.078 0.484" stroke="hsl(0.0,100%,35%)" stroke-width="0.00114"></path>
<path d="M0.181 0.372 Q0.079 0.418 0.146 0.477" stroke="hsl(0.0,100%,35%)" stroke-width="0.00114"></path>
<path d="M0.181 0.372 Q0.194 0.448 0.344 0.458" stroke="hsl(0.0,100%,35%)" stroke-width="0.00114"></path>
<path d="M0.181 0.372 Q0.342 0.588 0.798 0.557" stroke="hsl(0.0,100%,35%)" stroke-width="0.00114"></path>
<path d="M0.181 0.372 Q0.111 0.477 0.299 0.534" stroke="hsl(0.0,100%,35%)" stroke-width="0.00114"></path>
<path d="M0.181 0.372 Q0.193 0.416 0.280 0.419" stroke="hsl(0.0,100%,35%)" stroke-width="0.00114"></path>
<path d="M0.806 0.487 Q0.815 0.725 1.282 0.773" stroke="hsl(0.0,100%,35%)" stroke-width="0.00114"></path>
<path d="M0.806 0.487 Q0.441 0.589 0.558 0.789" stroke="hsl(0.0,100%,35%)" stroke-width="0.00114"></path>
<path d="M0.806 0.487 Q0.746 0.521 0.798 0.557" stroke="hsl(0.0,100%,35%)" stroke-width="0.00114"></path>
<path d="M1.372 0.306 Q1.401 0.396 1.582 0.401" stroke="hsl(180.0,100%,35%)" stroke-width="0.00228"></path>
<path d="M1.372 0.306 Q1.244 0.360 1.320 0.434" stroke="hsl(180.0,100%,35%)" stroke-width="0.00228"></path>
<path d="M1.372 0.306 Q0.865 0.379 0.897 0.642" stroke="hsl(180.0,100%,35%)" stroke-width="0.00114"></path>
<path d="M0.716 0.234 Q0.567 0.617 1.282 0.773" stroke="hsl(0.0,100%,35%)" stroke-width="0.00114"></path>
<path d="M0.716 0.234 Q0.760 0.296 0.892 0.288" stroke="hsl(0.0,100%,35%)" stroke-width="0.00114"></path>
<path d="M0.716 0.234 Q0.337 0.504 0.782 0.748" stroke="hsl(0.0,100%,35%)" stroke-width="0.00114"></path>
<path d="M1.287 0.118 Q1.198 0.131 1.204 0.177" stroke="hsl(180.0,100%,35%)" stroke-width="0.00114"></path>
<path d="M1.287 0.118 Q1.380 0.087 1.340 0.034" stroke="hsl(180.0,100%,35%)" stroke-width="0.00114"></path>
<path d="M1.287 0.118 Q0.672 0.302 0.897 0.642" stroke="hsl(180.0,100%,35%)" stroke-width="0.00114"></path>
<path d="M1.723 0.510 Q0.917 0.417 0.558 0.789" stroke="hsl(180.0,100%,35%)" stroke-width="0.00342"></path>
<path d="M1.723 0.510 Q1.852 0.526 1.911 0.466" stroke="hsl(180.0,100%,35%)" stroke-width="0.00228"></path>
<path d="M1.723 0.510 Q1.712 0.574 1.835 0.594" stroke="hsl(180.0,100%,35%)" stroke-width="0.00228"></path>
<path d="M0.552 0.937 Q0.516 0.951 0.536 0.972" stroke="hsl(180.0,100%,35%)" stroke-width="0.00114"></path>
<path d="M0.552 0.937 Q0.960 0.859 0.897 0.642" stroke="hsl(180.0,100%,35%)" stroke-width="0.00114"></path>
<path d="M0.741 0.474 Q0.684 0.589 0.897 0.642" stroke="hsl(180.0,100%,35%)" stroke-width="0.00570"></path>
<path d="M0.741 0.474 Q0.397 0.595 0.558 0.789" stroke="hsl(180.0,100%,35%)" stroke-width="0.00684"></path>
<path d="M0.741 0.474 Q0.902 0.513 1.015 0.443" stroke="hsl(180.0,100%,35%)" stroke-width="0.00228"></path>
<path d="M0.741 0.474 Q0.384 0.488 0.335 0.665" stroke="hsl(180.0,100%,35%)" stroke-width="0.00228"></path>
<path d="M0.741 0.474 Q0.631 0.426 0.514 0.469" stroke="hsl(180.0,100%,35%)" stroke-width="0.00114"></path>
<path d="M0.947 0.035 Q0.585 0.147 0.725 0.349" stroke="hsl(0.0,100%,35%)" stroke-width="0.00114"></path>
<path d="M0.947 0.035 Q0.629 0.011 0.511 0.161" stroke="hsl(0.0,100%,35%)" stroke-width="0.00228"></path>
<path d="M0.947 0.035 Q0.835 0.100 0.937 0.169" stroke="hsl(0.0,100%,35%)" stroke-width="0.00114"></path>
<path d="M0.947 0.035 Q0.972 0.345 1.582 0.401" stroke="hsl(0.0,100%,35%)" stroke-width="0.00114"></path>
<path d="M0.947 0.035 Q0.331 0.286 0.685 0.642" stroke="hsl(0.0,100%,35%)" stroke-width="0.00114"></path>
<path d="M0.947 0.035 Q0.871 0.093 0.968 0.143" stroke="hsl(0.0,100%,35%)" stroke-width="0.00114"></path>
<path d="M0.947 0.035 Q0.436 0.329 0.897 0.642" stroke="hsl(0.0,100%,35%)" stroke-width="0.00114"></path>
<path d="M0.947 0.035 Q0.435 0.041 0.334 0.293" stroke="hsl(0.0,100%,35%)" stroke-width="0.00114"></path>
<path d="M0.947 0.035 Q0.823 -0.008 0.712 0.044" stroke="hsl(0.0,100%,35%)" stroke-width="0.00114"></path>
<path d="M0.947 0.035 Q0.893 0.079 0.966 0.115" stroke="hsl(0.0,100%,35%)" stroke-width="0.00114"></path>
<path d="M0.947 0.035 Q0.455 0.266 0.798 0.557" stroke="hsl(0.0,100%,35%)" stroke-width="0.00228"></path>
<path d="M0.947 0.035 Q0.786 0.037 0.753 0.116" stroke="hsl(0.0,100%,35%)" stroke-width="0.00342"></path>
<path d="M0.947 0.035 Q1.196 0.382 1.927 0.336" stroke="hsl(0.0,100%,35%)" stroke-width="0.00114"></path>
<path d="M0.947 0.035 Q0.778 0.107 0.882 0.206" stroke="hsl(0.0,100%,35%)" stroke-width="0.00114"></path>
<path d="M0.511 0.161 Q0.191 0.621 1.019 0.878" stroke="hsl(0.0,100%,35%)" stroke-width="0.00114"></path>
<path d="M0.511 0.161 Q0.317 0.191 0.334 0.293" stroke="hsl(0.0,100%,35%)" stroke-width="0.00114"></path>
<path d="M0.511 0.161 Q0.668 0.187 0.753 0.116" stroke="hsl(0.0,100%,35%)" stroke-width="0.00228"></path>
<path d="M0.511 0.161 Q0.139 0.570 0.856 0.841" stroke="hsl(0.0,100%,35%)" stroke-width="0.00114"></path>
<path d="M0.511 0.161 Q0.319 0.479 0.897 0.642" stroke="hsl(0.0,100%,35%)" stroke-width="0.00114"></path>
<path d="M0.511 0.161 Q0.246 0.461 0.774 0.657" stroke="hsl(0.0,100%,35%)" stroke-width="0.00114"></path>
<path d="M0.511 0.161 Q0.319 0.068 0.097 0.142" stroke="hsl(0.0,100%,35%)" stroke-width="0.00114"></path>
<path d="M0.511 0.161 Q0.600 0.301 0.892 0.288" stroke="hsl(0.0,100%,35%)" stroke-width="0.00228"></path>
<path d="M0.511 0.161 Q0.148 0.640 1.004 0.923" stroke="hsl(0.0,100%,35%)" stroke-width="0.00114"></path>
<path d="M0.511 0.161 Q0.506 0.077 0.341 0.061" stroke="hsl(0.0,100%,35%)" stroke-width="0.00114"></path>
<path d="M0.511 0.161 Q0.456 0.099 0.323 0.112" stroke="hsl(0.0,100%,35%)" stroke-width="0.00114"></path>
<path d="M0.511 0.161 Q0.358 0.100 0.206 0.161" stroke="hsl(0.0,100%,35%)" stroke-width="0.00114"></path>
<path d="M0.511 0.161 Q0.372 0.132 0.284 0.193" stroke="hsl(0.0,100%,35%)" stroke-width="0.00114"></path>
<path d="M0.511 0.161 Q0.827 0.642 1.835 0.594" stroke="hsl(0.0,100%,35%)" stroke-width="0.00114"></path>
<path d="M0.511 0.161 Q0.347 0.145 0.280 0.222" stroke="hsl(0.0,100%,35%)" stroke-width="0.00114"></path>
<path d="M0.511 0.161 Q0.587 0.104 0.493 0.055" stroke="hsl(0.0,100%,35%)" stroke-width="0.00114"></path>
<path d="M1.244 0.813 Q0.920 0.664 0.558 0.789" stroke="hsl(180.0,100%,35%)" stroke-width="0.00456"></path>
<path d="M1.244 0.813 Q1.189 0.786 1.124 0.807" stroke="hsl(180.0,100%,35%)" stroke-width="0.00114"></path>
<path d="M1.244 0.813 Q1.065 0.688 0.782 0.748" stroke="hsl(180.0,100%,35%)" stroke-width="0.00456"></path>
<path d="M1.244 0.813 Q0.992 0.757 0.828 0.867" stroke="hsl(180.0,100%,35%)" stroke-width="0.00114"></path>
<path d="M1.244 0.813 Q1.743 0.674 1.582 0.401" stroke="hsl(180.0,100%,35%)" stroke-width="0.00114"></path>
<path d="M1.244 0.813 Q1.079 0.800 1.019 0.878" stroke="hsl(180.0,100%,35%)" stroke-width="0.00114"></path>
<path d="M1.244 0.813 Q1.207 0.658 0.897 0.642" stroke="hsl(180.0,100%,35%)" stroke-width="0.00228"></path>
<path d="M1.244 0.813 Q1.585 0.638 1.320 0.434" stroke="hsl(180.0,100%,35%)" stroke-width="0.00114"></path>
<path d="M1.244 0.813 Q1.302 0.714 1.122 0.664" stroke="hsl(180.0,100%,35%)" stroke-width="0.00114"></path>
<path d="M1.570 0.037 Q0.837 0.347 1.282 0.773" stroke="hsl(0.0,100%,35%)" stroke-width="0.00114"></path>
<path d="M1.570 0.037 Q0.660 0.315 1.002 0.819" stroke="hsl(0.0,100%,35%)" stroke-width="0.00114"></path>
<path d="M1.570 0.037 Q1.545 0.086 1.636 0.109" stroke="hsl(0.0,100%,35%)" stroke-width="0.00114"></path>
<path d="M1.311 0.285 Q0.676 0.411 0.782 0.748" stroke="hsl(180.0,100%,35%)" stroke-width="0.00228"></path>
<path d="M1.311 0.285 Q1.354 0.397 1.582 0.401" stroke="hsl(180.0,100%,35%)" stroke-width="0.00342"></path>
<path d="M1.311 0.285 Q1.196 0.361 1.320 0.434" stroke="hsl(180.0,100%,35%)" stroke-width="0.00114"></path>
<path d="M1.311 0.285 Q0.818 0.381 0.897 0.642" stroke="hsl(180.0,100%,35%)" stroke-width="0.00114"></path>
</g>
<text x="1.823" y="0.454" font-size="0.008006" fill="hsl(0.0,100%,20%)">abarth</text>
<text x="1.911" y="0.462" font-size="0.008006" fill="hsl(0.0,100%,20%)">ddorwin</text>
<text x="0.334" y="0.287" font-size="0.012230" fill="hsl(0.0,100%,20%)">wez</text>
<text x="1.927" y="0.332" font-size="0.008006" fill="hsl(180.0,100%,20%)">tsepez</text>
<text x="0.978" y="0.982" font-size="0.013074" fill="hsl(0.0,100%,20%)">andre.kempe</text>
<text x="0.907" y="0.971" font-size="0.004623" fill="hsl(0.0,100%,20%)">mfoltz</text>
<text x="0.643" y="0.910" font-size="0.010336" fill="hsl(0.0,100%,20%)">agrieve</text>
<text x="0.798" y="0.551" font-size="0.012230" fill="hsl(0.0,100%,20%)">thakis</text>
<text x="0.897" y="0.608" font-size="0.068094" fill="hsl(180.0,100%,20%)">haraken</text>
<text x="1.320" y="0.410" font-size="0.047816" fill="hsl(180.0,100%,20%)">mlippautz</text>
<text x="0.782" y="0.702" font-size="0.092911" fill="hsl(180.0,100%,20%)">bartekn</text>
<text x="0.725" y="0.342" font-size="0.013868" fill="hsl(0.0,100%,20%)">avi</text>
<text x="0.892" y="0.281" font-size="0.013868" fill="hsl(0.0,100%,20%)">danakj</text>
<text x="1.282" y="0.762" font-size="0.022646" fill="hsl(0.0,100%,20%)">dcheng</text>
<text x="0.558" y="0.748" font-size="0.082690" fill="hsl(180.0,100%,20%)">lizeb</text>
<text x="0.277" y="0.953" font-size="0.017296" fill="hsl(180.0,100%,20%)">richard.townsend</text>
<text x="1.122" y="0.644" font-size="0.039495" fill="hsl(180.0,100%,20%)">tasak</text>
<text x="1.073" y="0.809" font-size="0.004623" fill="hsl(180.0,100%,20%)">ajuma</text>
<text x="0.563" y="0.580" font-size="0.046456" fill="hsl(180.0,100%,20%)">yukishiino</text>
<text x="1.582" y="0.367" font-size="0.067621" fill="hsl(180.0,100%,20%)">bikineev</text>
<text x="0.335" y="0.658" font-size="0.013868" fill="hsl(180.0,100%,20%)">ssid</text>
<text x="1.019" y="0.872" font-size="0.012230" fill="hsl(180.0,100%,20%)">mpdenton</text>
<text x="0.607" y="0.837" font-size="0.016667" fill="hsl(180.0,100%,20%)">glazunov</text>
<text x="0.774" y="0.652" font-size="0.009245" fill="hsl(180.0,100%,20%)">lukasza</text>
<text x="0.780" y="0.892" font-size="0.029957" fill="hsl(180.0,100%,20%)">keishi</text>
<text x="0.856" y="0.837" font-size="0.009245" fill="hsl(0.0,100%,20%)">gab</text>
<text x="0.633" y="0.818" font-size="0.006537" fill="hsl(180.0,100%,20%)">bgeffon</text>
<text x="0.472" y="0.376" font-size="0.014618" fill="hsl(0.0,100%,20%)">brucedawson</text>
<text x="1.865" y="0.154" font-size="0.010336" fill="hsl(180.0,100%,20%)">ellyjones</text>
<text x="1.067" y="0.773" font-size="0.004623" fill="hsl(180.0,100%,20%)">gbeaty</text>
<text x="1.388" y="0.245" font-size="0.011323" fill="hsl(180.0,100%,20%)">wfh</text>
<text x="0.828" y="0.863" font-size="0.008006" fill="hsl(180.0,100%,20%)">erikchen</text>
<text x="0.773" y="0.624" font-size="0.006537" fill="hsl(180.0,100%,20%)">agl</text>
<text x="1.104" y="0.802" font-size="0.004623" fill="hsl(180.0,100%,20%)">yukiy</text>
<text x="0.097" y="0.139" font-size="0.006537" fill="hsl(180.0,100%,20%)">kinuko</text>
<text x="0.743" y="0.829" font-size="0.006537" fill="hsl(180.0,100%,20%)">tikuta</text>
<text x="1.002" y="0.815" font-size="0.008006" fill="hsl(180.0,100%,20%)">mark</text>
<text x="0.939" y="0.627" font-size="0.006537" fill="hsl(180.0,100%,20%)">sebmarchand</text>
<text x="0.977" y="0.956" font-size="0.006537" fill="hsl(180.0,100%,20%)">sweilun</text>
<text x="0.962" y="0.843" font-size="0.008006" fill="hsl(180.0,100%,20%)">isherman</text>
<text x="1.015" y="0.857" font-size="0.004623" fill="hsl(180.0,100%,20%)">jbroman</text>
<text x="0.770" y="0.647" font-size="0.004623" fill="hsl(180.0,100%,20%)">robertshield</text>
<text x="0.766" y="0.641" font-size="0.004623" fill="hsl(180.0,100%,20%)">grt</text>
<text x="1.141" y="0.629" font-size="0.004623" fill="hsl(180.0,100%,20%)">asvitkine</text>
<text x="0.881" y="0.646" font-size="0.004623" fill="hsl(180.0,100%,20%)">ydago</text>
<text x="0.538" y="0.526" font-size="0.017903" fill="hsl(0.0,100%,20%)">palmer</text>
<text x="0.960" y="0.793" font-size="0.006537" fill="hsl(180.0,100%,20%)">yutak</text>
<text x="0.820" y="0.846" font-size="0.004623" fill="hsl(180.0,100%,20%)">primiano</text>
<text x="1.374" y="0.307" font-size="0.004623" fill="hsl(180.0,100%,20%)">oysteine</text>
<text x="1.522" y="0.144" font-size="0.004623" fill="hsl(180.0,100%,20%)">altimin</text>
<text x="1.531" y="0.209" font-size="0.006537" fill="hsl(180.0,100%,20%)">creis</text>
<text x="1.004" y="0.918" font-size="0.009245" fill="hsl(180.0,100%,20%)">fdoray</text>
<text x="1.414" y="0.267" font-size="0.004623" fill="hsl(180.0,100%,20%)">holte</text>
<text x="1.173" y="0.495" font-size="0.006537" fill="hsl(180.0,100%,20%)">ulan</text>
<text x="0.534" y="0.286" font-size="0.004623" fill="hsl(0.0,100%,20%)">cassew</text>
<text x="0.181" y="0.364" font-size="0.016013" fill="hsl(0.0,100%,20%)">dsanders11</text>
<text x="0.417" y="0.271" font-size="0.004623" fill="hsl(0.0,100%,20%)">acourbot</text>
<text x="0.073" y="0.383" font-size="0.004623" fill="hsl(0.0,100%,20%)">tguilbert</text>
<text x="0.229" y="0.488" font-size="0.004623" fill="hsl(0.0,100%,20%)">tbansal</text>
<text x="0.065" y="0.430" font-size="0.004623" fill="hsl(0.0,100%,20%)">michaeldo</text>
<text x="0.086" y="0.265" font-size="0.004623" fill="hsl(0.0,100%,20%)">austinct</text>
<text x="0.078" y="0.482" font-size="0.004623" fill="hsl(0.0,100%,20%)">olivierrobin</text>
<text x="0.146" y="0.474" font-size="0.006537" fill="hsl(0.0,100%,20%)">eseckler</text>
<text x="0.344" y="0.455" font-size="0.004623" fill="hsl(0.0,100%,20%)">mmoskvitin</text>
<text x="0.299" y="0.532" font-size="0.004623" fill="hsl(0.0,100%,20%)">jamiewalch</text>
<text x="0.280" y="0.417" font-size="0.004623" fill="hsl(0.0,100%,20%)">aleventhal</text>
<text x="1.930" y="0.236" font-size="0.004623" fill="hsl(180.0,100%,20%)">elainechien</text>
<text x="1.773" y="0.222" font-size="0.004623" fill="hsl(180.0,100%,20%)">tkent</text>
<text x="0.806" y="0.483" font-size="0.008006" fill="hsl(0.0,100%,20%)">gabor.kertesz</text>
<text x="1.372" y="0.300" font-size="0.012230" fill="hsl(180.0,100%,20%)">hpayer</text>
<text x="0.716" y="0.230" font-size="0.008006" fill="hsl(0.0,100%,20%)">jannh</text>
<text x="1.287" y="0.114" font-size="0.008006" fill="hsl(180.0,100%,20%)">kbr</text>
<text x="1.204" y="0.175" font-size="0.004623" fill="hsl(180.0,100%,20%)">martiniss</text>
<text x="1.340" y="0.032" font-size="0.004623" fill="hsl(180.0,100%,20%)">ccameron</text>
<text x="1.723" y="0.504" font-size="0.012230" fill="hsl(180.0,100%,20%)">kmarshall</text>
<text x="1.835" y="0.590" font-size="0.008006" fill="hsl(180.0,100%,20%)">kylechar</text>
<text x="0.552" y="0.934" font-size="0.006537" fill="hsl(180.0,100%,20%)">kolos</text>
<text x="0.536" y="0.969" font-size="0.004623" fill="hsl(180.0,100%,20%)">lgrey</text>
<text x="0.741" y="0.464" font-size="0.020149" fill="hsl(180.0,100%,20%)">thiabaud</text>
<text x="0.607" y="0.804" font-size="0.009245" fill="hsl(180.0,100%,20%)">pasko</text>
<text x="0.405" y="0.631" font-size="0.004623" fill="hsl(180.0,100%,20%)">msramek</text>
<text x="0.322" y="0.620" font-size="0.006537" fill="hsl(180.0,100%,20%)">alexilin</text>
<text x="0.633" y="0.823" font-size="0.004623" fill="hsl(180.0,100%,20%)">mamir</text>
<text x="0.520" y="0.518" font-size="0.004623" fill="hsl(180.0,100%,20%)">amraboelkher</text>
<text x="0.547" y="0.562" font-size="0.004623" fill="hsl(180.0,100%,20%)">skyostil</text>
<text x="0.720" y="0.633" font-size="0.006537" fill="hsl(180.0,100%,20%)">arthursonzogni</text>
<text x="0.947" y="0.025" font-size="0.020149" fill="hsl(0.0,100%,20%)">thestig</text>
<text x="0.633" y="0.644" font-size="0.004623" fill="hsl(180.0,100%,20%)">asully</text>
<text x="0.248" y="0.669" font-size="0.004623" fill="hsl(180.0,100%,20%)">etiennep</text>
<text x="0.685" y="0.638" font-size="0.006537" fill="hsl(0.0,100%,20%)">rsesek</text>
<text x="0.535" y="0.658" font-size="0.004623" fill="hsl(180.0,100%,20%)">caitlinfischer</text>
<text x="0.318" y="0.809" font-size="0.004623" fill="hsl(180.0,100%,20%)">sinansahin</text>
<text x="0.463" y="0.810" font-size="0.004623" fill="hsl(180.0,100%,20%)">hendrich</text>
<text x="0.511" y="0.150" font-size="0.020672" fill="hsl(0.0,100%,20%)">pkasting</text>
<text x="0.753" y="0.111" font-size="0.010336" fill="hsl(180.0,100%,20%)">pbos</text>
<text x="0.341" y="0.059" font-size="0.004623" fill="hsl(180.0,100%,20%)">renjietang</text>
<text x="0.323" y="0.110" font-size="0.004623" fill="hsl(180.0,100%,20%)">sandersd</text>
<text x="0.206" y="0.159" font-size="0.004623" fill="hsl(0.0,100%,20%)">droger</text>
<text x="0.284" y="0.191" font-size="0.004623" fill="hsl(180.0,100%,20%)">sadrul</text>
<text x="0.280" y="0.219" font-size="0.004623" fill="hsl(180.0,100%,20%)">bajones</text>
<text x="0.493" y="0.053" font-size="0.004623" fill="hsl(0.0,100%,20%)">abigailbklein</text>
<text x="0.391" y="0.848" font-size="0.008006" fill="hsl(180.0,100%,20%)">ajwong</text>
<text x="1.244" y="0.803" font-size="0.018490" fill="hsl(180.0,100%,20%)">saelo</text>
<text x="1.124" y="0.804" font-size="0.004623" fill="hsl(180.0,100%,20%)">cbruni</text>
<text x="1.570" y="0.033" font-size="0.008006" fill="hsl(0.0,100%,20%)">ssyed</text>
<text x="1.636" y="0.107" font-size="0.004623" fill="hsl(180.0,100%,20%)">abhijeet</text>
<text x="1.311" y="0.279" font-size="0.012230" fill="hsl(180.0,100%,20%)">stha09</text>
<text x="0.937" y="0.166" font-size="0.006537" fill="hsl(0.0,100%,20%)">dpranke</text>
<text x="0.968" y="0.141" font-size="0.004623" fill="hsl(0.0,100%,20%)">sunnyps</text>
<text x="0.712" y="0.041" font-size="0.004623" fill="hsl(0.0,100%,20%)">sammc</text>
<text x="0.966" y="0.113" font-size="0.004623" fill="hsl(0.0,100%,20%)">sdefresne</text>
<text x="0.882" y="0.203" font-size="0.004623" fill="hsl(0.0,100%,20%)">ajgo</text>
<text x="1.015" y="0.440" font-size="0.006537" fill="hsl(180.0,100%,20%)">rkaplow</text>
<text x="0.514" y="0.467" font-size="0.004623" fill="hsl(180.0,100%,20%)">chanli</text>
</svg>
