<svg width="4000" height="2000" viewBox="-0.025 -0.025 2.05 1.05" xmlns="http://www.w3.org/2000/svg">
  <style>
    path {
      fill: none;
      stroke-linecap: round;
      stroke-opacity: 0.4;
    }

    text {
      text-anchor: middle;
      alignment-baseline: hanging;
    }
  </style>
  <g opacity="0.4">
<path d="M1.199 0.581 Q1.015 0.489 0.795 0.558" stroke="hsl(0.0,100%,35%)" stroke-width="0.00120"></path>
<path d="M1.199 0.581 Q0.629 0.579 0.500 0.857" stroke="hsl(0.0,100%,35%)" stroke-width="0.00360"></path>
<path d="M1.199 0.581 Q1.034 0.560 0.958 0.636" stroke="hsl(0.0,100%,35%)" stroke-width="0.00120"></path>
<path d="M0.500 0.857 Q0.707 0.843 0.726 0.739" stroke="hsl(0.0,100%,35%)" stroke-width="0.00720"></path>
<path d="M0.500 0.857 Q0.408 0.749 0.177 0.771" stroke="hsl(0.0,100%,35%)" stroke-width="0.00360"></path>
<path d="M0.500 0.857 Q0.572 0.776 0.430 0.724" stroke="hsl(0.0,100%,35%)" stroke-width="0.03480"></path>
<path d="M0.500 0.857 Q0.452 0.915 0.555 0.951" stroke="hsl(0.0,100%,35%)" stroke-width="0.00360"></path>
<path d="M0.500 0.857 Q0.508 0.801 0.400 0.785" stroke="hsl(0.0,100%,35%)" stroke-width="0.02040"></path>
<path d="M0.500 0.857 Q1.117 0.975 1.484 0.701" stroke="hsl(0.0,100%,35%)" stroke-width="0.00120"></path>
<path d="M0.500 0.857 Q0.473 0.895 0.542 0.917" stroke="hsl(0.0,100%,35%)" stroke-width="0.00240"></path>
<path d="M0.500 0.857 Q0.913 0.987 1.258 0.814" stroke="hsl(0.0,100%,35%)" stroke-width="0.00480"></path>
<path d="M0.500 0.857 Q0.623 0.931 0.795 0.888" stroke="hsl(0.0,100%,35%)" stroke-width="0.01800"></path>
<path d="M0.500 0.857 Q0.785 0.759 0.656 0.598" stroke="hsl(0.0,100%,35%)" stroke-width="0.00360"></path>
<path d="M0.500 0.857 Q0.455 0.901 0.531 0.933" stroke="hsl(0.0,100%,35%)" stroke-width="0.00360"></path>
<path d="M0.500 0.857 Q0.498 0.680 0.153 0.642" stroke="hsl(0.0,100%,35%)" stroke-width="0.00120"></path>
<path d="M0.500 0.857 Q0.804 0.924 1.002 0.791" stroke="hsl(0.0,100%,35%)" stroke-width="0.01080"></path>
<path d="M0.500 0.857 Q0.493 0.898 0.571 0.910" stroke="hsl(0.0,100%,35%)" stroke-width="0.00360"></path>
<path d="M0.500 0.857 Q0.487 0.682 0.142 0.649" stroke="hsl(0.0,100%,35%)" stroke-width="0.00240"></path>
<path d="M0.500 0.857 Q0.512 0.685 0.179 0.642" stroke="hsl(0.0,100%,35%)" stroke-width="0.00240"></path>
<path d="M0.500 0.857 Q0.523 0.908 0.629 0.908" stroke="hsl(0.0,100%,35%)" stroke-width="0.00240"></path>
<path d="M0.500 0.857 Q0.847 0.444 0.118 0.184" stroke="hsl(0.0,100%,35%)" stroke-width="0.00120"></path>
<path d="M0.500 0.857 Q0.906 0.838 0.958 0.636" stroke="hsl(0.0,100%,35%)" stroke-width="0.00600"></path>
<path d="M0.500 0.857 Q1.071 0.858 1.199 0.581" stroke="hsl(0.0,100%,35%)" stroke-width="0.00120"></path>
<path d="M0.500 0.857 Q0.512 0.887 0.573 0.888" stroke="hsl(0.0,100%,35%)" stroke-width="0.00120"></path>
<path d="M0.500 0.857 Q0.437 0.718 0.151 0.718" stroke="hsl(0.0,100%,35%)" stroke-width="0.00120"></path>
<path d="M0.958 0.636 Q0.675 0.729 0.795 0.888" stroke="hsl(0.0,100%,35%)" stroke-width="0.00960"></path>
<path d="M0.958 0.636 Q1.133 0.646 1.191 0.563" stroke="hsl(0.0,100%,35%)" stroke-width="0.00120"></path>
<path d="M0.958 0.636 Q1.101 0.602 1.066 0.524" stroke="hsl(0.0,100%,35%)" stroke-width="0.00240"></path>
<path d="M0.958 0.636 Q0.624 0.574 0.430 0.724" stroke="hsl(0.0,100%,35%)" stroke-width="0.01200"></path>
<path d="M0.958 0.636 Q0.856 0.722 1.002 0.791" stroke="hsl(0.0,100%,35%)" stroke-width="0.02640"></path>
<path d="M0.958 0.636 Q0.759 0.641 0.726 0.739" stroke="hsl(0.0,100%,35%)" stroke-width="0.00960"></path>
<path d="M0.958 0.636 Q1.205 0.392 0.782 0.218" stroke="hsl(0.0,100%,35%)" stroke-width="0.00120"></path>
<path d="M0.958 0.636 Q0.965 0.785 1.258 0.814" stroke="hsl(0.0,100%,35%)" stroke-width="0.00120"></path>
<path d="M0.958 0.636 Q1.104 0.656 1.174 0.588" stroke="hsl(0.0,100%,35%)" stroke-width="0.00120"></path>
<path d="M0.958 0.636 Q1.172 0.675 1.294 0.579" stroke="hsl(0.0,100%,35%)" stroke-width="0.00120"></path>
<path d="M0.958 0.636 Q1.177 0.673 1.298 0.574" stroke="hsl(0.0,100%,35%)" stroke-width="0.00120"></path>
<path d="M0.958 0.636 Q1.342 0.686 1.523 0.509" stroke="hsl(0.0,100%,35%)" stroke-width="0.00120"></path>
<path d="M0.958 0.636 Q0.552 0.655 0.500 0.857" stroke="hsl(0.0,100%,35%)" stroke-width="0.01920"></path>
<path d="M0.958 0.636 Q1.153 0.608 1.142 0.507" stroke="hsl(0.0,100%,35%)" stroke-width="0.00120"></path>
<path d="M0.958 0.636 Q0.944 0.531 0.737 0.514" stroke="hsl(0.0,100%,35%)" stroke-width="0.00120"></path>
<path d="M0.177 0.771 Q1.190 0.797 1.464 0.309" stroke="hsl(0.0,100%,35%)" stroke-width="0.00120"></path>
<path d="M0.177 0.771 Q0.270 0.878 0.500 0.857" stroke="hsl(0.0,100%,35%)" stroke-width="0.01440"></path>
<path d="M0.177 0.771 Q0.555 0.780 0.656 0.598" stroke="hsl(0.0,100%,35%)" stroke-width="0.00240"></path>
<path d="M0.177 0.771 Q0.281 0.707 0.179 0.642" stroke="hsl(0.0,100%,35%)" stroke-width="0.00360"></path>
<path d="M0.177 0.771 Q0.392 0.953 0.795 0.888" stroke="hsl(0.0,100%,35%)" stroke-width="0.00240"></path>
<path d="M0.177 0.771 Q0.477 0.865 0.726 0.739" stroke="hsl(0.0,100%,35%)" stroke-width="0.00360"></path>
<path d="M1.464 0.309 Q0.544 0.390 0.500 0.857" stroke="hsl(180.0,100%,35%)" stroke-width="0.00120"></path>
<path d="M1.464 0.309 Q0.957 0.520 1.258 0.814" stroke="hsl(180.0,100%,35%)" stroke-width="0.00120"></path>
<path d="M1.464 0.309 Q1.260 0.219 1.040 0.299" stroke="hsl(180.0,100%,35%)" stroke-width="0.00120"></path>
<path d="M1.464 0.309 Q1.567 0.241 1.458 0.176" stroke="hsl(180.0,100%,35%)" stroke-width="0.00120"></path>
<path d="M0.656 0.598 Q0.371 0.696 0.500 0.857" stroke="hsl(0.0,100%,35%)" stroke-width="0.01200"></path>
<path d="M0.656 0.598 Q0.936 0.582 0.966 0.442" stroke="hsl(0.0,100%,35%)" stroke-width="0.00120"></path>
<path d="M0.656 0.598 Q0.279 0.589 0.177 0.771" stroke="hsl(0.0,100%,35%)" stroke-width="0.00120"></path>
<path d="M0.656 0.598 Q0.578 0.683 0.726 0.739" stroke="hsl(0.0,100%,35%)" stroke-width="0.00240"></path>
<path d="M0.656 0.598 Q0.326 0.740 0.531 0.933" stroke="hsl(0.0,100%,35%)" stroke-width="0.00120"></path>
<path d="M0.656 0.598 Q0.707 0.538 0.601 0.500" stroke="hsl(0.0,100%,35%)" stroke-width="0.00120"></path>
<path d="M0.656 0.598 Q0.750 0.517 0.611 0.453" stroke="hsl(0.0,100%,35%)" stroke-width="0.00120"></path>
<path d="M0.656 0.598 Q0.699 0.540 0.595 0.507" stroke="hsl(0.0,100%,35%)" stroke-width="0.00120"></path>
<path d="M0.656 0.598 Q0.443 0.616 0.430 0.724" stroke="hsl(0.0,100%,35%)" stroke-width="0.00120"></path>
<path d="M0.656 0.598 Q0.893 0.554 0.859 0.429" stroke="hsl(0.0,100%,35%)" stroke-width="0.00360"></path>
<path d="M0.656 0.598 Q0.494 0.771 0.795 0.888" stroke="hsl(0.0,100%,35%)" stroke-width="0.00360"></path>
<path d="M0.656 0.598 Q0.920 0.643 1.066 0.524" stroke="hsl(0.0,100%,35%)" stroke-width="0.00120"></path>
<path d="M0.656 0.598 Q0.785 0.826 1.258 0.814" stroke="hsl(0.0,100%,35%)" stroke-width="0.00120"></path>
<path d="M0.179 0.642 Q0.239 0.733 0.430 0.724" stroke="hsl(0.0,100%,35%)" stroke-width="0.00120"></path>
<path d="M0.179 0.642 Q0.452 0.716 0.656 0.598" stroke="hsl(0.0,100%,35%)" stroke-width="0.00240"></path>
<path d="M0.179 0.642 Q0.168 0.814 0.500 0.857" stroke="hsl(0.0,100%,35%)" stroke-width="0.00720"></path>
<path d="M0.179 0.642 Q0.717 0.760 1.066 0.524" stroke="hsl(0.0,100%,35%)" stroke-width="0.00120"></path>
<path d="M0.179 0.642 Q0.290 0.888 0.795 0.888" stroke="hsl(0.0,100%,35%)" stroke-width="0.00120"></path>
<path d="M0.795 0.888 Q0.672 0.813 0.500 0.857" stroke="hsl(0.0,100%,35%)" stroke-width="0.01800"></path>
<path d="M0.795 0.888 Q0.957 0.715 0.656 0.598" stroke="hsl(0.0,100%,35%)" stroke-width="0.00120"></path>
<path d="M0.795 0.888 Q1.078 0.795 0.958 0.636" stroke="hsl(0.0,100%,35%)" stroke-width="0.00600"></path>
<path d="M0.795 0.888 Q0.860 0.830 0.762 0.786" stroke="hsl(0.0,100%,35%)" stroke-width="0.00240"></path>
<path d="M0.795 0.888 Q0.683 0.642 0.179 0.642" stroke="hsl(0.0,100%,35%)" stroke-width="0.00120"></path>
<path d="M0.795 0.888 Q0.879 0.800 0.726 0.739" stroke="hsl(0.0,100%,35%)" stroke-width="0.00840"></path>
<path d="M0.795 0.888 Q0.844 0.980 1.034 0.977" stroke="hsl(0.0,100%,35%)" stroke-width="0.00960"></path>
<path d="M0.795 0.888 Q1.265 0.602 0.810 0.310" stroke="hsl(0.0,100%,35%)" stroke-width="0.00240"></path>
<path d="M0.617 0.342 Q0.560 0.706 1.258 0.814" stroke="hsl(180.0,100%,35%)" stroke-width="0.00120"></path>
<path d="M0.617 0.342 Q0.102 0.620 0.531 0.933" stroke="hsl(180.0,100%,35%)" stroke-width="0.00240"></path>
<path d="M0.617 0.342 Q0.270 0.651 0.795 0.888" stroke="hsl(180.0,100%,35%)" stroke-width="0.00120"></path>
<path d="M0.617 0.342 Q0.671 0.408 0.810 0.396" stroke="hsl(180.0,100%,35%)" stroke-width="0.00120"></path>
<path d="M0.617 0.342 Q0.740 0.365 0.810 0.310" stroke="hsl(180.0,100%,35%)" stroke-width="0.00120"></path>
<path d="M0.617 0.342 Q0.712 0.292 0.634 0.235" stroke="hsl(180.0,100%,35%)" stroke-width="0.00120"></path>
<path d="M0.617 0.342 Q0.498 0.341 0.469 0.398" stroke="hsl(180.0,100%,35%)" stroke-width="0.00120"></path>
<path d="M0.617 0.342 Q0.760 0.274 0.659 0.190" stroke="hsl(180.0,100%,35%)" stroke-width="0.00120"></path>
<path d="M0.617 0.342 Q0.615 0.256 0.447 0.239" stroke="hsl(180.0,100%,35%)" stroke-width="0.00120"></path>
<path d="M0.617 0.342 Q0.800 0.313 0.782 0.218" stroke="hsl(180.0,100%,35%)" stroke-width="0.00120"></path>
<path d="M0.617 0.342 Q1.067 0.495 1.464 0.309" stroke="hsl(180.0,100%,35%)" stroke-width="0.00120"></path>
<path d="M0.430 0.724 Q0.643 0.706 0.656 0.598" stroke="hsl(0.0,100%,35%)" stroke-width="0.02040"></path>
<path d="M0.430 0.724 Q0.662 0.872 1.002 0.791" stroke="hsl(0.0,100%,35%)" stroke-width="0.05400"></path>
<path d="M0.430 0.724 Q0.680 0.689 0.667 0.559" stroke="hsl(0.0,100%,35%)" stroke-width="0.00120"></path>
<path d="M0.430 0.724 Q0.546 0.821 0.762 0.786" stroke="hsl(0.0,100%,35%)" stroke-width="0.00240"></path>
<path d="M0.430 0.724 Q1.279 0.723 1.464 0.309" stroke="hsl(0.0,100%,35%)" stroke-width="0.00360"></path>
<path d="M0.430 0.724 Q0.358 0.804 0.500 0.857" stroke="hsl(0.0,100%,35%)" stroke-width="0.10439"></path>
<path d="M0.430 0.724 Q0.745 0.714 0.795 0.558" stroke="hsl(0.0,100%,35%)" stroke-width="0.00240"></path>
<path d="M0.430 0.724 Q0.959 0.758 1.142 0.507" stroke="hsl(0.0,100%,35%)" stroke-width="0.00120"></path>
<path d="M0.430 0.724 Q0.369 0.633 0.179 0.642" stroke="hsl(0.0,100%,35%)" stroke-width="0.00120"></path>
<path d="M0.430 0.724 Q0.367 0.704 0.314 0.730" stroke="hsl(0.0,100%,35%)" stroke-width="0.00120"></path>
<path d="M0.430 0.724 Q1.577 0.755 1.892 0.203" stroke="hsl(0.0,100%,35%)" stroke-width="0.00120"></path>
<path d="M0.430 0.724 Q0.907 0.751 1.066 0.524" stroke="hsl(0.0,100%,35%)" stroke-width="0.00360"></path>
<path d="M0.430 0.724 Q0.481 0.879 0.795 0.888" stroke="hsl(0.0,100%,35%)" stroke-width="0.00720"></path>
<path d="M0.430 0.724 Q0.764 0.785 0.958 0.636" stroke="hsl(0.0,100%,35%)" stroke-width="0.04200"></path>
<path d="M0.430 0.724 Q0.771 0.934 1.258 0.814" stroke="hsl(0.0,100%,35%)" stroke-width="0.00480"></path>
<path d="M0.430 0.724 Q0.725 0.687 0.719 0.535" stroke="hsl(0.0,100%,35%)" stroke-width="0.00240"></path>
<path d="M0.430 0.724 Q0.750 0.680 0.737 0.514" stroke="hsl(0.0,100%,35%)" stroke-width="0.00480"></path>
<path d="M0.430 0.724 Q0.923 0.690 0.966 0.442" stroke="hsl(0.0,100%,35%)" stroke-width="0.00240"></path>
<path d="M0.430 0.724 Q0.345 0.629 0.142 0.649" stroke="hsl(0.0,100%,35%)" stroke-width="0.00120"></path>
<path d="M0.430 0.724 Q0.366 0.748 0.400 0.785" stroke="hsl(0.0,100%,35%)" stroke-width="0.00240"></path>
<path d="M0.430 0.724 Q0.565 0.791 0.726 0.739" stroke="hsl(0.0,100%,35%)" stroke-width="0.02400"></path>
<path d="M0.430 0.724 Q0.548 0.630 0.392 0.552" stroke="hsl(0.0,100%,35%)" stroke-width="0.00240"></path>
<path d="M0.430 0.724 Q0.331 0.843 0.542 0.917" stroke="hsl(0.0,100%,35%)" stroke-width="0.00480"></path>
<path d="M0.430 0.724 Q0.382 0.916 0.746 0.981" stroke="hsl(0.0,100%,35%)" stroke-width="0.00120"></path>
<path d="M0.430 0.724 Q0.310 0.862 0.555 0.951" stroke="hsl(0.0,100%,35%)" stroke-width="0.00120"></path>
<path d="M0.430 0.724 Q0.601 0.634 0.465 0.531" stroke="hsl(0.0,100%,35%)" stroke-width="0.00120"></path>
<path d="M0.430 0.724 Q0.782 0.653 0.722 0.466" stroke="hsl(0.0,100%,35%)" stroke-width="0.00120"></path>
<path d="M0.430 0.724 Q0.586 0.617 0.411 0.517" stroke="hsl(0.0,100%,35%)" stroke-width="0.00120"></path>
<path d="M0.430 0.724 Q0.705 0.392 0.118 0.184" stroke="hsl(0.0,100%,35%)" stroke-width="0.00240"></path>
<path d="M0.430 0.724 Q0.710 0.691 0.707 0.547" stroke="hsl(0.0,100%,35%)" stroke-width="0.00120"></path>
<path d="M0.430 0.724 Q0.642 0.632 0.509 0.508" stroke="hsl(0.0,100%,35%)" stroke-width="0.00120"></path>
<path d="M1.484 0.701 Q1.280 0.712 1.258 0.814" stroke="hsl(180.0,100%,35%)" stroke-width="0.00120"></path>
<path d="M1.484 0.701 Q0.867 0.582 0.500 0.857" stroke="hsl(180.0,100%,35%)" stroke-width="0.00120"></path>
<path d="M1.484 0.701 Q2.023 0.576 1.898 0.286" stroke="hsl(180.0,100%,35%)" stroke-width="0.00120"></path>
<path d="M1.002 0.791 Q0.698 0.724 0.500 0.857" stroke="hsl(0.0,100%,35%)" stroke-width="0.02640"></path>
<path d="M1.002 0.791 Q0.905 0.710 0.726 0.739" stroke="hsl(0.0,100%,35%)" stroke-width="0.01560"></path>
<path d="M1.002 0.791 Q0.769 0.643 0.430 0.724" stroke="hsl(0.0,100%,35%)" stroke-width="0.00600"></path>
<path d="M1.002 0.791 Q1.104 0.705 0.958 0.636" stroke="hsl(0.0,100%,35%)" stroke-width="0.02280"></path>
<path d="M1.002 0.791 Q0.781 0.814 0.776 0.926" stroke="hsl(0.0,100%,35%)" stroke-width="0.00120"></path>
<path d="M1.002 0.791 Q0.706 0.668 0.400 0.785" stroke="hsl(0.0,100%,35%)" stroke-width="0.00120"></path>
<path d="M1.002 0.791 Q0.821 0.798 0.795 0.888" stroke="hsl(0.0,100%,35%)" stroke-width="0.00480"></path>
<path d="M1.002 0.791 Q1.111 0.854 1.258 0.814" stroke="hsl(0.0,100%,35%)" stroke-width="0.00120"></path>
<path d="M1.002 0.791 Q1.132 0.632 0.851 0.534" stroke="hsl(0.0,100%,35%)" stroke-width="0.00120"></path>
<path d="M0.629 0.908 Q0.605 0.857 0.500 0.857" stroke="hsl(0.0,100%,35%)" stroke-width="0.00600"></path>
<path d="M0.629 0.908 Q0.812 0.843 0.726 0.739" stroke="hsl(0.0,100%,35%)" stroke-width="0.00240"></path>
<path d="M0.629 0.908 Q0.728 0.931 0.795 0.888" stroke="hsl(0.0,100%,35%)" stroke-width="0.00120"></path>
<path d="M0.629 0.908 Q0.613 0.801 0.400 0.785" stroke="hsl(0.0,100%,35%)" stroke-width="0.00120"></path>
<path d="M1.040 0.299 Q1.196 0.281 1.197 0.201" stroke="hsl(180.0,100%,35%)" stroke-width="0.00120"></path>
<path d="M1.040 0.299 Q1.244 0.389 1.464 0.309" stroke="hsl(180.0,100%,35%)" stroke-width="0.01200"></path>
<path d="M1.040 0.299 Q1.130 0.344 1.238 0.309" stroke="hsl(180.0,100%,35%)" stroke-width="0.00120"></path>
<path d="M1.040 0.299 Q0.446 0.544 0.795 0.888" stroke="hsl(180.0,100%,35%)" stroke-width="0.00120"></path>
<path d="M1.040 0.299 Q0.323 0.470 0.500 0.857" stroke="hsl(180.0,100%,35%)" stroke-width="0.00120"></path>
<path d="M1.040 0.299 Q0.737 0.600 1.258 0.814" stroke="hsl(180.0,100%,35%)" stroke-width="0.00240"></path>
<path d="M1.040 0.299 Q1.304 0.267 1.300 0.131" stroke="hsl(180.0,100%,35%)" stroke-width="0.00240"></path>
<path d="M1.040 0.299 Q1.005 0.380 1.156 0.415" stroke="hsl(180.0,100%,35%)" stroke-width="0.00240"></path>
<path d="M1.649 0.779 Q1.629 0.707 1.484 0.701" stroke="hsl(180.0,100%,35%)" stroke-width="0.00240"></path>
<path d="M1.649 0.779 Q1.219 0.575 0.726 0.739" stroke="hsl(180.0,100%,35%)" stroke-width="0.00120"></path>
<path d="M1.649 0.779 Q1.135 0.663 0.795 0.888" stroke="hsl(180.0,100%,35%)" stroke-width="0.00120"></path>
<path d="M0.717 0.948 Q0.803 0.933 0.795 0.888" stroke="hsl(180.0,100%,35%)" stroke-width="0.00120"></path>
<path d="M0.717 0.948 Q0.681 0.859 0.500 0.857" stroke="hsl(180.0,100%,35%)" stroke-width="0.00120"></path>
<path d="M0.717 0.948 Q1.028 0.446 0.118 0.184" stroke="hsl(180.0,100%,35%)" stroke-width="0.00120"></path>
<path d="M1.572 0.068 Q1.484 0.023 1.376 0.056" stroke="hsl(180.0,100%,35%)" stroke-width="0.00120"></path>
<path d="M1.572 0.068 Q1.643 0.087 1.694 0.056" stroke="hsl(180.0,100%,35%)" stroke-width="0.00120"></path>
<path d="M1.572 0.068 Q0.997 0.037 0.810 0.310" stroke="hsl(180.0,100%,35%)" stroke-width="0.00120"></path>
<path d="M1.572 0.068 Q1.514 0.148 1.657 0.194" stroke="hsl(180.0,100%,35%)" stroke-width="0.00120"></path>
<path d="M1.572 0.068 Q0.612 0.235 0.726 0.739" stroke="hsl(180.0,100%,35%)" stroke-width="0.00120"></path>
<path d="M1.892 0.203 Q0.795 0.326 0.795 0.888" stroke="hsl(0.0,100%,35%)" stroke-width="0.00120"></path>
<path d="M1.892 0.203 Q1.828 0.245 1.898 0.286" stroke="hsl(0.0,100%,35%)" stroke-width="0.00360"></path>
<path d="M1.892 0.203 Q0.680 0.195 0.400 0.785" stroke="hsl(0.0,100%,35%)" stroke-width="0.00120"></path>
<path d="M1.892 0.203 Q1.065 0.127 0.737 0.514" stroke="hsl(0.0,100%,35%)" stroke-width="0.00120"></path>
<path d="M1.892 0.203 Q1.704 0.244 1.744 0.345" stroke="hsl(0.0,100%,35%)" stroke-width="0.00120"></path>
<path d="M1.226 0.074 Q1.316 0.095 1.376 0.056" stroke="hsl(180.0,100%,35%)" stroke-width="0.00120"></path>
<path d="M1.226 0.074 Q0.444 0.307 0.726 0.739" stroke="hsl(180.0,100%,35%)" stroke-width="0.00120"></path>
<path d="M1.226 0.074 Q0.408 0.487 1.034 0.977" stroke="hsl(180.0,100%,35%)" stroke-width="0.00120"></path>
<path d="M1.034 0.977 Q0.986 0.884 0.795 0.888" stroke="hsl(0.0,100%,35%)" stroke-width="0.01560"></path>
<path d="M1.034 0.977 Q1.070 0.796 0.726 0.739" stroke="hsl(0.0,100%,35%)" stroke-width="0.00120"></path>
<path d="M1.034 0.977 Q2.019 0.804 1.898 0.286" stroke="hsl(0.0,100%,35%)" stroke-width="0.00120"></path>
<path d="M1.034 0.977 Q0.953 0.952 0.888 0.987" stroke="hsl(0.0,100%,35%)" stroke-width="0.00120"></path>
<path d="M1.034 0.977 Q1.072 0.937 1.003 0.910" stroke="hsl(0.0,100%,35%)" stroke-width="0.00120"></path>
<path d="M1.128 0.748 Q0.727 0.677 0.500 0.857" stroke="hsl(0.0,100%,35%)" stroke-width="0.00720"></path>
<path d="M1.128 0.748 Q1.030 0.744 1.002 0.791" stroke="hsl(0.0,100%,35%)" stroke-width="0.01800"></path>
<path d="M1.128 0.748 Q0.798 0.596 0.430 0.724" stroke="hsl(0.0,100%,35%)" stroke-width="0.01080"></path>
<path d="M1.494 0.897 Q1.535 0.855 1.461 0.826" stroke="hsl(180.0,100%,35%)" stroke-width="0.00120"></path>
<path d="M1.494 0.897 Q1.030 0.678 0.500 0.857" stroke="hsl(180.0,100%,35%)" stroke-width="0.00240"></path>
<path d="M1.494 0.897 Q1.746 0.507 1.040 0.299" stroke="hsl(180.0,100%,35%)" stroke-width="0.00120"></path>
<path d="M1.505 0.410 Q0.552 0.325 0.177 0.771" stroke="hsl(180.0,100%,35%)" stroke-width="0.00240"></path>
<path d="M1.505 0.410 Q1.565 0.351 1.464 0.309" stroke="hsl(180.0,100%,35%)" stroke-width="0.00240"></path>
<path d="M1.505 0.410 Q1.058 0.563 1.258 0.814" stroke="hsl(180.0,100%,35%)" stroke-width="0.00240"></path>
<path d="M1.505 0.410 Q0.852 0.419 0.726 0.739" stroke="hsl(180.0,100%,35%)" stroke-width="0.00240"></path>
<path d="M1.505 0.410 Q0.656 0.261 0.179 0.642" stroke="hsl(180.0,100%,35%)" stroke-width="0.00120"></path>
<path d="M1.545 0.607 Q1.743 0.442 1.464 0.309" stroke="hsl(0.0,100%,35%)" stroke-width="0.00120"></path>
<path d="M1.545 0.607 Q1.439 0.641 1.484 0.701" stroke="hsl(0.0,100%,35%)" stroke-width="0.00240"></path>
<path d="M1.545 0.607 Q1.030 0.509 0.726 0.739" stroke="hsl(0.0,100%,35%)" stroke-width="0.00120"></path>
<path d="M0.724 0.415 Q0.466 0.578 0.726 0.739" stroke="hsl(0.0,100%,35%)" stroke-width="0.00240"></path>
<path d="M0.724 0.415 Q0.562 0.659 1.002 0.791" stroke="hsl(0.0,100%,35%)" stroke-width="0.00120"></path>
<path d="M0.724 0.415 Q0.381 0.666 0.795 0.888" stroke="hsl(0.0,100%,35%)" stroke-width="0.00120"></path>
<path d="M0.240 0.163 Q0.467 0.171 0.533 0.062" stroke="hsl(180.0,100%,35%)" stroke-width="0.00360"></path>
<path d="M0.240 0.163 Q0.350 0.117 0.283 0.053" stroke="hsl(180.0,100%,35%)" stroke-width="0.00120"></path>
<path d="M0.240 0.163 Q0.182 0.445 0.719 0.535" stroke="hsl(180.0,100%,35%)" stroke-width="0.00120"></path>
<path d="M0.240 0.163 Q0.074 0.211 0.130 0.302" stroke="hsl(180.0,100%,35%)" stroke-width="0.00120"></path>
<path d="M0.240 0.163 Q0.162 0.149 0.118 0.184" stroke="hsl(180.0,100%,35%)" stroke-width="0.00240"></path>
<path d="M0.240 0.163 Q0.532 0.391 1.040 0.299" stroke="hsl(180.0,100%,35%)" stroke-width="0.00240"></path>
<path d="M0.240 0.163 Q0.219 0.234 0.352 0.259" stroke="hsl(180.0,100%,35%)" stroke-width="0.00240"></path>
<path d="M0.240 0.163 Q0.355 0.188 0.429 0.138" stroke="hsl(180.0,100%,35%)" stroke-width="0.00120"></path>
<path d="M1.322 0.905 Q0.950 0.717 0.500 0.857" stroke="hsl(180.0,100%,35%)" stroke-width="0.00360"></path>
<path d="M1.322 0.905 Q1.363 0.847 1.258 0.814" stroke="hsl(180.0,100%,35%)" stroke-width="0.00360"></path>
<path d="M1.322 0.905 Q0.961 0.545 0.179 0.642" stroke="hsl(180.0,100%,35%)" stroke-width="0.00120"></path>
<path d="M0.238 0.750 Q0.284 0.856 0.500 0.857" stroke="hsl(0.0,100%,35%)" stroke-width="0.01920"></path>
<path d="M0.238 0.750 Q0.697 0.986 1.258 0.814" stroke="hsl(0.0,100%,35%)" stroke-width="0.00120"></path>
<path d="M0.238 0.750 Q0.293 0.755 0.314 0.730" stroke="hsl(0.0,100%,35%)" stroke-width="0.00240"></path>
<path d="M0.238 0.750 Q0.806 0.714 0.859 0.429" stroke="hsl(0.0,100%,35%)" stroke-width="0.00120"></path>
<path d="M0.238 0.750 Q0.407 0.930 0.795 0.888" stroke="hsl(0.0,100%,35%)" stroke-width="0.00120"></path>
<path d="M0.238 0.750 Q0.491 0.843 0.726 0.739" stroke="hsl(0.0,100%,35%)" stroke-width="0.00120"></path>
<path d="M0.662 0.935 Q0.850 0.850 0.726 0.739" stroke="hsl(0.0,100%,35%)" stroke-width="0.00360"></path>
<path d="M0.662 0.935 Q0.766 0.938 0.795 0.888" stroke="hsl(0.0,100%,35%)" stroke-width="0.00240"></path>
<path d="M0.662 0.935 Q0.643 0.863 0.500 0.857" stroke="hsl(0.0,100%,35%)" stroke-width="0.00120"></path>
<path d="M0.621 0.566 Q0.328 0.687 0.500 0.857" stroke="hsl(180.0,100%,35%)" stroke-width="0.00120"></path>
<path d="M0.621 0.566 Q0.451 0.762 0.795 0.888" stroke="hsl(180.0,100%,35%)" stroke-width="0.00120"></path>
<path d="M0.621 0.566 Q1.248 0.606 1.464 0.309" stroke="hsl(180.0,100%,35%)" stroke-width="0.00120"></path>
<path d="M0.621 0.566 Q0.535 0.674 0.726 0.739" stroke="hsl(180.0,100%,35%)" stroke-width="0.00120"></path>
</g>
<text x="1.199" y="0.574" font-size="0.012187" fill="hsl(0.0,100%,20%)">ajuma</text>
<text x="0.795" y="0.554" font-size="0.008617" fill="hsl(0.0,100%,20%)">gab</text>
<text x="0.500" y="0.812" font-size="0.089415" fill="hsl(0.0,100%,20%)">bartekn</text>
<text x="0.958" y="0.607" font-size="0.058867" fill="hsl(0.0,100%,20%)">yukishiino</text>
<text x="0.177" y="0.757" font-size="0.026792" fill="hsl(0.0,100%,20%)">arthursonzogni</text>
<text x="1.464" y="0.297" font-size="0.023860" fill="hsl(180.0,100%,20%)">danakj</text>
<text x="0.656" y="0.580" font-size="0.035877" fill="hsl(0.0,100%,20%)">keishi</text>
<text x="0.179" y="0.631" font-size="0.022250" fill="hsl(0.0,100%,20%)">glazunov</text>
<text x="0.795" y="0.862" font-size="0.050737" fill="hsl(0.0,100%,20%)">lizeb</text>
<text x="0.726" y="0.718" font-size="0.043086" fill="hsl(0.0,100%,20%)">haraken</text>
<text x="0.617" y="0.334" font-size="0.017235" fill="hsl(180.0,100%,20%)">avi</text>
<text x="1.258" y="0.802" font-size="0.023336" fill="hsl(180.0,100%,20%)">dcheng</text>
<text x="0.531" y="0.927" font-size="0.012187" fill="hsl(180.0,100%,20%)">mark</text>
<text x="0.810" y="0.393" font-size="0.004975" fill="hsl(180.0,100%,20%)">tedchoc</text>
<text x="0.810" y="0.305" font-size="0.009950" fill="hsl(0.0,100%,20%)">rsesek</text>
<text x="0.634" y="0.232" font-size="0.004975" fill="hsl(180.0,100%,20%)">vovoy</text>
<text x="0.469" y="0.396" font-size="0.004975" fill="hsl(180.0,100%,20%)">garykac</text>
<text x="0.659" y="0.187" font-size="0.004975" fill="hsl(180.0,100%,20%)">khorimoto</text>
<text x="0.447" y="0.236" font-size="0.004975" fill="hsl(180.0,100%,20%)">mbonadei</text>
<text x="0.782" y="0.214" font-size="0.007036" fill="hsl(180.0,100%,20%)">rohitrao</text>
<text x="0.430" y="0.680" font-size="0.087597" fill="hsl(0.0,100%,20%)">kdlee</text>
<text x="0.555" y="0.946" font-size="0.009950" fill="hsl(0.0,100%,20%)">altimin</text>
<text x="0.400" y="0.773" font-size="0.023336" fill="hsl(0.0,100%,20%)">bikineev</text>
<text x="1.484" y="0.694" font-size="0.014072" fill="hsl(180.0,100%,20%)">thestig</text>
<text x="0.542" y="0.911" font-size="0.012187" fill="hsl(0.0,100%,20%)">bgeffon</text>
<text x="0.153" y="0.640" font-size="0.004975" fill="hsl(0.0,100%,20%)">tsepez</text>
<text x="1.002" y="0.760" font-size="0.062735" fill="hsl(0.0,100%,20%)">tasak</text>
<text x="0.571" y="0.906" font-size="0.008617" fill="hsl(0.0,100%,20%)">gbeaty</text>
<text x="0.142" y="0.645" font-size="0.008617" fill="hsl(0.0,100%,20%)">jochen</text>
<text x="0.629" y="0.900" font-size="0.016501" fill="hsl(0.0,100%,20%)">richard.townsend</text>
<text x="0.118" y="0.178" font-size="0.012187" fill="hsl(180.0,100%,20%)">wfh</text>
<text x="0.573" y="0.885" font-size="0.004975" fill="hsl(0.0,100%,20%)">asully</text>
<text x="0.151" y="0.716" font-size="0.004975" fill="hsl(0.0,100%,20%)">hypan</text>
<text x="1.040" y="0.286" font-size="0.024373" fill="hsl(180.0,100%,20%)">pkasting</text>
<text x="1.458" y="0.174" font-size="0.004975" fill="hsl(180.0,100%,20%)">lukasza</text>
<text x="1.649" y="0.774" font-size="0.009950" fill="hsl(180.0,100%,20%)">dsanders11</text>
<text x="0.717" y="0.943" font-size="0.008617" fill="hsl(180.0,100%,20%)">floresa</text>
<text x="1.066" y="0.517" font-size="0.013163" fill="hsl(0.0,100%,20%)">mpdenton</text>
<text x="1.572" y="0.063" font-size="0.011125" fill="hsl(180.0,100%,20%)">guochengwei</text>
<text x="1.376" y="0.052" font-size="0.007036" fill="hsl(180.0,100%,20%)">kimstephanie</text>
<text x="1.694" y="0.053" font-size="0.004975" fill="hsl(180.0,100%,20%)">smaier</text>
<text x="1.657" y="0.191" font-size="0.004975" fill="hsl(180.0,100%,20%)">dnicoara</text>
<text x="1.892" y="0.195" font-size="0.014072" fill="hsl(0.0,100%,20%)">hans</text>
<text x="1.898" y="0.280" font-size="0.011125" fill="hsl(180.0,100%,20%)">thakis</text>
<text x="0.737" y="0.508" font-size="0.012187" fill="hsl(0.0,100%,20%)">mlippautz</text>
<text x="1.744" y="0.342" font-size="0.004975" fill="hsl(0.0,100%,20%)">aeubanks</text>
<text x="1.226" y="0.070" font-size="0.008617" fill="hsl(180.0,100%,20%)">hnakashima</text>
<text x="1.034" y="0.964" font-size="0.025369" fill="hsl(0.0,100%,20%)">thiabaud</text>
<text x="1.128" y="0.734" font-size="0.027250" fill="hsl(0.0,100%,20%)">honokaanada</text>
<text x="0.667" y="0.556" font-size="0.004975" fill="hsl(0.0,100%,20%)">danilchap</text>
<text x="0.762" y="0.781" font-size="0.009950" fill="hsl(180.0,100%,20%)">fdoray</text>
<text x="1.142" y="0.503" font-size="0.007036" fill="hsl(0.0,100%,20%)">sdefresne</text>
<text x="0.314" y="0.726" font-size="0.008617" fill="hsl(0.0,100%,20%)">leszeks</text>
<text x="0.719" y="0.531" font-size="0.008617" fill="hsl(0.0,100%,20%)">kylechar</text>
<text x="0.966" y="0.438" font-size="0.008617" fill="hsl(0.0,100%,20%)">tkent</text>
<text x="0.392" y="0.548" font-size="0.007036" fill="hsl(0.0,100%,20%)">metzman</text>
<text x="0.746" y="0.978" font-size="0.004975" fill="hsl(0.0,100%,20%)">etienneb</text>
<text x="0.465" y="0.529" font-size="0.004975" fill="hsl(0.0,100%,20%)">erikchen</text>
<text x="0.722" y="0.463" font-size="0.004975" fill="hsl(0.0,100%,20%)">ayui</text>
<text x="0.411" y="0.515" font-size="0.004975" fill="hsl(0.0,100%,20%)">primiano</text>
<text x="0.707" y="0.544" font-size="0.004975" fill="hsl(0.0,100%,20%)">wez</text>
<text x="0.509" y="0.505" font-size="0.004975" fill="hsl(0.0,100%,20%)">battre</text>
<text x="0.601" y="0.498" font-size="0.004975" fill="hsl(0.0,100%,20%)">ccameron</text>
<text x="0.611" y="0.450" font-size="0.004975" fill="hsl(0.0,100%,20%)">rakina</text>
<text x="0.595" y="0.504" font-size="0.004975" fill="hsl(0.0,100%,20%)">wrong</text>
<text x="0.859" y="0.424" font-size="0.009950" fill="hsl(0.0,100%,20%)">ssid</text>
<text x="1.494" y="0.892" font-size="0.009950" fill="hsl(180.0,100%,20%)">marshall</text>
<text x="1.461" y="0.823" font-size="0.004975" fill="hsl(180.0,100%,20%)">perrier</text>
<text x="1.505" y="0.403" font-size="0.014926" fill="hsl(180.0,100%,20%)">paulsemel</text>
<text x="1.545" y="0.602" font-size="0.009950" fill="hsl(0.0,100%,20%)">pbos</text>
<text x="1.197" y="0.199" font-size="0.004975" fill="hsl(180.0,100%,20%)">agrieve</text>
<text x="1.238" y="0.307" font-size="0.004975" fill="hsl(180.0,100%,20%)">wittman</text>
<text x="1.300" y="0.128" font-size="0.007036" fill="hsl(180.0,100%,20%)">nicolaso</text>
<text x="1.156" y="0.411" font-size="0.007036" fill="hsl(180.0,100%,20%)">behdadb</text>
<text x="0.724" y="0.410" font-size="0.009950" fill="hsl(0.0,100%,20%)">qitiezheng</text>
<text x="0.240" y="0.154" font-size="0.017938" fill="hsl(180.0,100%,20%)">rwkeane</text>
<text x="0.533" y="0.058" font-size="0.008617" fill="hsl(180.0,100%,20%)">ajgo</text>
<text x="0.283" y="0.050" font-size="0.004975" fill="hsl(180.0,100%,20%)">mfoltz</text>
<text x="0.130" y="0.299" font-size="0.004975" fill="hsl(180.0,100%,20%)">ddorwin</text>
<text x="0.352" y="0.256" font-size="0.007036" fill="hsl(180.0,100%,20%)">jshin</text>
<text x="0.429" y="0.135" font-size="0.004975" fill="hsl(180.0,100%,20%)">kmarshall</text>
<text x="1.322" y="0.899" font-size="0.013163" fill="hsl(180.0,100%,20%)">saelo</text>
<text x="0.238" y="0.739" font-size="0.023336" fill="hsl(0.0,100%,20%)">sroettger</text>
<text x="0.662" y="0.928" font-size="0.012187" fill="hsl(0.0,100%,20%)">stha09</text>
<text x="0.776" y="0.924" font-size="0.004975" fill="hsl(0.0,100%,20%)">tikuta</text>
<text x="0.851" y="0.532" font-size="0.004975" fill="hsl(0.0,100%,20%)">estaab</text>
<text x="0.888" y="0.984" font-size="0.004975" fill="hsl(0.0,100%,20%)">dgozman</text>
<text x="1.003" y="0.908" font-size="0.004975" fill="hsl(0.0,100%,20%)">jamiewalch</text>
<text x="0.621" y="0.561" font-size="0.009950" fill="hsl(180.0,100%,20%)">wangqing-hf</text>
<text x="1.191" y="0.560" font-size="0.004975" fill="hsl(0.0,100%,20%)">joenotcharles</text>
<text x="1.174" y="0.586" font-size="0.004975" fill="hsl(0.0,100%,20%)">rockot</text>
<text x="1.294" y="0.577" font-size="0.004975" fill="hsl(0.0,100%,20%)">mamir</text>
<text x="1.298" y="0.572" font-size="0.004975" fill="hsl(0.0,100%,20%)">meacer</text>
<text x="1.523" y="0.506" font-size="0.004975" fill="hsl(0.0,100%,20%)">victortan</text>
</svg>
