<svg width="4000" height="2000" viewBox="-0.025 -0.025 2.05 1.05" xmlns="http://www.w3.org/2000/svg">
  <style>
    path {
      fill: none;
      stroke-linecap: round;
      stroke-opacity: 0.4;
    }

    text {
      text-anchor: middle;
      alignment-baseline: hanging;
    }
  </style>
  <g opacity="0.4">
<path d="M1.087 0.389 Q0.998 0.346 0.895 0.380" stroke="hsl(0.0,100%,35%)" stroke-width="0.00141"></path>
<path d="M1.087 0.389 Q1.305 0.199 0.982 0.051" stroke="hsl(0.0,100%,35%)" stroke-width="0.00141"></path>
<path d="M1.087 0.389 Q1.129 0.193 0.756 0.130" stroke="hsl(0.0,100%,35%)" stroke-width="0.00141"></path>
<path d="M0.895 0.380 Q0.697 0.516 0.918 0.642" stroke="hsl(0.0,100%,35%)" stroke-width="0.01977"></path>
<path d="M0.895 0.380 Q0.590 0.637 1.024 0.842" stroke="hsl(0.0,100%,35%)" stroke-width="0.00282"></path>
<path d="M0.895 0.380 Q1.026 0.227 0.756 0.130" stroke="hsl(0.0,100%,35%)" stroke-width="0.02824"></path>
<path d="M0.895 0.380 Q1.202 0.233 0.982 0.051" stroke="hsl(0.0,100%,35%)" stroke-width="0.01412"></path>
<path d="M0.895 0.380 Q0.926 0.514 1.194 0.528" stroke="hsl(0.0,100%,35%)" stroke-width="0.01694"></path>
<path d="M0.895 0.380 Q0.628 0.456 0.718 0.603" stroke="hsl(0.0,100%,35%)" stroke-width="0.00141"></path>
<path d="M0.895 0.380 Q1.067 0.310 0.968 0.210" stroke="hsl(0.0,100%,35%)" stroke-width="0.00141"></path>
<path d="M0.895 0.380 Q1.016 0.384 1.052 0.326" stroke="hsl(0.0,100%,35%)" stroke-width="0.00141"></path>
<path d="M0.895 0.380 Q1.123 0.444 1.298 0.347" stroke="hsl(0.0,100%,35%)" stroke-width="0.00141"></path>
<path d="M0.895 0.380 Q1.178 0.507 1.487 0.397" stroke="hsl(0.0,100%,35%)" stroke-width="0.00141"></path>
<path d="M0.895 0.380 Q1.038 0.401 1.110 0.335" stroke="hsl(0.0,100%,35%)" stroke-width="0.00141"></path>
<path d="M0.895 0.380 Q1.099 0.376 1.135 0.275" stroke="hsl(0.0,100%,35%)" stroke-width="0.00141"></path>
<path d="M0.895 0.380 Q0.862 0.664 1.409 0.742" stroke="hsl(0.0,100%,35%)" stroke-width="0.00141"></path>
<path d="M0.982 0.051 Q0.807 0.045 0.756 0.130" stroke="hsl(0.0,100%,35%)" stroke-width="0.04094"></path>
<path d="M0.982 0.051 Q0.707 0.332 1.194 0.528" stroke="hsl(0.0,100%,35%)" stroke-width="0.01835"></path>
<path d="M0.982 0.051 Q0.409 0.274 0.718 0.603" stroke="hsl(0.0,100%,35%)" stroke-width="0.00565"></path>
<path d="M0.982 0.051 Q1.040 0.073 1.096 0.051" stroke="hsl(0.0,100%,35%)" stroke-width="0.00141"></path>
<path d="M0.982 0.051 Q0.838 -0.009 0.690 0.049" stroke="hsl(0.0,100%,35%)" stroke-width="0.00141"></path>
<path d="M0.982 0.051 Q0.976 -0.009 0.856 -0.019" stroke="hsl(0.0,100%,35%)" stroke-width="0.00141"></path>
<path d="M0.982 0.051 Q0.903 0.262 1.298 0.347" stroke="hsl(0.0,100%,35%)" stroke-width="0.00565"></path>
<path d="M0.982 0.051 Q0.797 0.203 1.052 0.326" stroke="hsl(0.0,100%,35%)" stroke-width="0.00141"></path>
<path d="M0.982 0.051 Q0.892 -0.033 0.708 -0.008" stroke="hsl(0.0,100%,35%)" stroke-width="0.00141"></path>
<path d="M0.982 0.051 Q0.544 0.302 0.938 0.572" stroke="hsl(0.0,100%,35%)" stroke-width="0.00141"></path>
<path d="M0.982 0.051 Q0.581 0.619 1.601 0.940" stroke="hsl(0.0,100%,35%)" stroke-width="0.00141"></path>
<path d="M0.982 0.051 Q0.773 0.117 0.857 0.234" stroke="hsl(0.0,100%,35%)" stroke-width="0.00141"></path>
<path d="M0.756 0.130 Q0.932 0.136 0.982 0.051" stroke="hsl(0.0,100%,35%)" stroke-width="0.03953"></path>
<path d="M0.756 0.130 Q0.471 0.366 0.870 0.558" stroke="hsl(0.0,100%,35%)" stroke-width="0.00141"></path>
<path d="M0.756 0.130 Q0.657 0.416 1.194 0.528" stroke="hsl(0.0,100%,35%)" stroke-width="0.01553"></path>
<path d="M0.756 0.130 Q0.853 0.347 1.298 0.347" stroke="hsl(0.0,100%,35%)" stroke-width="0.00565"></path>
<path d="M0.756 0.130 Q0.605 0.169 0.648 0.251" stroke="hsl(0.0,100%,35%)" stroke-width="0.00706"></path>
<path d="M0.756 0.130 Q0.723 0.202 0.857 0.234" stroke="hsl(0.0,100%,35%)" stroke-width="0.00141"></path>
<path d="M0.756 0.130 Q0.359 0.359 0.718 0.603" stroke="hsl(0.0,100%,35%)" stroke-width="0.00282"></path>
<path d="M0.756 0.130 Q0.758 0.201 0.896 0.215" stroke="hsl(0.0,100%,35%)" stroke-width="0.00141"></path>
<path d="M0.756 0.130 Q0.625 0.282 0.895 0.380" stroke="hsl(0.0,100%,35%)" stroke-width="0.00706"></path>
<path d="M0.756 0.130 Q0.944 0.619 1.940 0.635" stroke="hsl(0.0,100%,35%)" stroke-width="0.00141"></path>
<path d="M0.756 0.130 Q0.785 0.204 0.937 0.206" stroke="hsl(0.0,100%,35%)" stroke-width="0.00282"></path>
<path d="M0.756 0.130 Q0.494 0.387 0.938 0.572" stroke="hsl(0.0,100%,35%)" stroke-width="0.00141"></path>
<path d="M0.756 0.130 Q1.164 0.317 1.619 0.159" stroke="hsl(0.0,100%,35%)" stroke-width="0.00141"></path>
<path d="M1.944 0.204 Q1.053 0.276 0.997 0.726" stroke="hsl(0.0,100%,35%)" stroke-width="0.00141"></path>
<path d="M1.944 0.204 Q1.507 0.146 1.298 0.347" stroke="hsl(0.0,100%,35%)" stroke-width="0.00141"></path>
<path d="M1.944 0.204 Q1.962 0.181 1.921 0.168" stroke="hsl(0.0,100%,35%)" stroke-width="0.00141"></path>
<path d="M0.997 0.726 Q1.254 0.666 1.194 0.528" stroke="hsl(0.0,100%,35%)" stroke-width="0.00141"></path>
<path d="M0.997 0.726 Q1.025 0.668 0.918 0.642" stroke="hsl(0.0,100%,35%)" stroke-width="0.00565"></path>
<path d="M0.997 0.726 Q1.202 0.750 1.295 0.656" stroke="hsl(0.0,100%,35%)" stroke-width="0.00141"></path>
<path d="M1.298 0.347 Q0.858 0.366 0.798 0.585" stroke="hsl(0.0,100%,35%)" stroke-width="0.00282"></path>
<path d="M1.298 0.347 Q1.609 0.317 1.619 0.159" stroke="hsl(0.0,100%,35%)" stroke-width="0.00141"></path>
<path d="M1.298 0.347 Q0.872 0.419 0.918 0.642" stroke="hsl(0.0,100%,35%)" stroke-width="0.00141"></path>
<path d="M1.298 0.347 Q1.353 0.410 1.487 0.397" stroke="hsl(0.0,100%,35%)" stroke-width="0.00141"></path>
<path d="M1.298 0.347 Q1.101 0.417 1.194 0.528" stroke="hsl(0.0,100%,35%)" stroke-width="0.00141"></path>
<path d="M0.430 0.437 Q0.740 0.635 1.194 0.528" stroke="hsl(180.0,100%,35%)" stroke-width="0.00847"></path>
<path d="M0.430 0.437 Q1.027 0.838 1.940 0.635" stroke="hsl(180.0,100%,35%)" stroke-width="0.00282"></path>
<path d="M0.430 0.437 Q0.403 0.759 1.024 0.842" stroke="hsl(180.0,100%,35%)" stroke-width="0.00282"></path>
<path d="M0.430 0.437 Q0.544 0.354 0.405 0.280" stroke="hsl(180.0,100%,35%)" stroke-width="0.00141"></path>
<path d="M1.194 0.528 Q1.481 0.730 1.940 0.635" stroke="hsl(0.0,100%,35%)" stroke-width="0.00565"></path>
<path d="M1.194 0.528 Q0.965 0.530 0.918 0.642" stroke="hsl(0.0,100%,35%)" stroke-width="0.02259"></path>
<path d="M1.194 0.528 Q1.008 0.478 0.870 0.558" stroke="hsl(0.0,100%,35%)" stroke-width="0.01412"></path>
<path d="M1.194 0.528 Q0.823 0.743 1.163 0.972" stroke="hsl(0.0,100%,35%)" stroke-width="0.01129"></path>
<path d="M1.194 0.528 Q1.315 0.486 1.260 0.418" stroke="hsl(0.0,100%,35%)" stroke-width="0.00282"></path>
<path d="M1.194 0.528 Q0.857 0.651 1.024 0.842" stroke="hsl(0.0,100%,35%)" stroke-width="0.00988"></path>
<path d="M1.194 0.528 Q1.142 0.612 1.295 0.656" stroke="hsl(0.0,100%,35%)" stroke-width="0.02118"></path>
<path d="M1.194 0.528 Q1.691 0.354 1.461 0.074" stroke="hsl(0.0,100%,35%)" stroke-width="0.00141"></path>
<path d="M1.194 0.528 Q1.470 0.247 0.982 0.051" stroke="hsl(0.0,100%,35%)" stroke-width="0.01129"></path>
<path d="M1.194 0.528 Q1.101 0.560 1.144 0.612" stroke="hsl(0.0,100%,35%)" stroke-width="0.01553"></path>
<path d="M1.194 0.528 Q1.295 0.312 0.896 0.215" stroke="hsl(0.0,100%,35%)" stroke-width="0.00141"></path>
<path d="M1.194 0.528 Q1.068 0.815 1.601 0.940" stroke="hsl(0.0,100%,35%)" stroke-width="0.00424"></path>
<path d="M1.194 0.528 Q1.350 0.593 1.512 0.531" stroke="hsl(0.0,100%,35%)" stroke-width="0.00141"></path>
<path d="M1.194 0.528 Q1.139 0.425 0.927 0.430" stroke="hsl(0.0,100%,35%)" stroke-width="0.00424"></path>
<path d="M1.194 0.528 Q1.390 0.458 1.298 0.347" stroke="hsl(0.0,100%,35%)" stroke-width="0.01271"></path>
<path d="M1.194 0.528 Q1.355 0.351 1.047 0.234" stroke="hsl(0.0,100%,35%)" stroke-width="0.00282"></path>
<path d="M1.194 0.528 Q0.822 0.495 0.676 0.669" stroke="hsl(0.0,100%,35%)" stroke-width="0.00282"></path>
<path d="M1.194 0.528 Q1.294 0.241 0.756 0.130" stroke="hsl(0.0,100%,35%)" stroke-width="0.01271"></path>
<path d="M1.194 0.528 Q1.163 0.394 0.895 0.380" stroke="hsl(0.0,100%,35%)" stroke-width="0.02824"></path>
<path d="M1.194 0.528 Q1.031 0.498 0.938 0.572" stroke="hsl(0.0,100%,35%)" stroke-width="0.00565"></path>
<path d="M1.194 0.528 Q1.284 0.398 1.052 0.326" stroke="hsl(0.0,100%,35%)" stroke-width="0.00141"></path>
<path d="M1.194 0.528 Q1.074 0.468 0.932 0.514" stroke="hsl(0.0,100%,35%)" stroke-width="0.00141"></path>
<path d="M1.194 0.528 Q1.593 0.478 1.583 0.273" stroke="hsl(0.0,100%,35%)" stroke-width="0.00282"></path>
<path d="M1.194 0.528 Q1.260 0.313 0.857 0.234" stroke="hsl(0.0,100%,35%)" stroke-width="0.00141"></path>
<path d="M1.194 0.528 Q1.143 0.280 0.648 0.251" stroke="hsl(0.0,100%,35%)" stroke-width="0.00141"></path>
<path d="M1.194 0.528 Q0.896 0.470 0.718 0.603" stroke="hsl(0.0,100%,35%)" stroke-width="0.00282"></path>
<path d="M1.194 0.528 Q0.950 0.477 0.798 0.585" stroke="hsl(0.0,100%,35%)" stroke-width="0.00141"></path>
<path d="M1.024 0.842 Q0.990 0.935 1.163 0.972" stroke="hsl(0.0,100%,35%)" stroke-width="0.03106"></path>
<path d="M1.024 0.842 Q1.361 0.719 1.194 0.528" stroke="hsl(0.0,100%,35%)" stroke-width="0.02682"></path>
<path d="M1.024 0.842 Q1.461 0.432 0.756 0.130" stroke="hsl(0.0,100%,35%)" stroke-width="0.00706"></path>
<path d="M1.024 0.842 Q1.268 0.751 1.144 0.612" stroke="hsl(0.0,100%,35%)" stroke-width="0.00141"></path>
<path d="M1.024 0.842 Q1.157 0.858 1.217 0.797" stroke="hsl(0.0,100%,35%)" stroke-width="0.00141"></path>
<path d="M1.024 0.842 Q1.636 0.438 0.982 0.051" stroke="hsl(0.0,100%,35%)" stroke-width="0.00141"></path>
<path d="M1.024 0.842 Q0.882 0.864 0.893 0.938" stroke="hsl(0.0,100%,35%)" stroke-width="0.00141"></path>
<path d="M1.024 0.842 Q1.132 0.721 0.918 0.642" stroke="hsl(0.0,100%,35%)" stroke-width="0.00141"></path>
<path d="M0.110 0.627 Q0.605 1.082 1.601 0.940" stroke="hsl(180.0,100%,35%)" stroke-width="0.00424"></path>
<path d="M0.110 0.627 Q0.176 0.700 0.332 0.684" stroke="hsl(180.0,100%,35%)" stroke-width="0.00424"></path>
<path d="M0.110 0.627 Q0.215 0.543 0.074 0.474" stroke="hsl(180.0,100%,35%)" stroke-width="0.00141"></path>
<path d="M0.332 0.684 Q1.084 0.708 1.298 0.347" stroke="hsl(180.0,100%,35%)" stroke-width="0.00141"></path>
<path d="M0.332 0.684 Q0.762 1.066 1.601 0.940" stroke="hsl(180.0,100%,35%)" stroke-width="0.00141"></path>
<path d="M0.332 0.684 Q1.395 0.679 1.619 0.159" stroke="hsl(180.0,100%,35%)" stroke-width="0.00141"></path>
<path d="M0.332 0.684 Q0.227 0.690 0.216 0.743" stroke="hsl(180.0,100%,35%)" stroke-width="0.00141"></path>
<path d="M1.512 0.531 Q1.127 0.468 0.918 0.642" stroke="hsl(180.0,100%,35%)" stroke-width="0.00141"></path>
<path d="M1.512 0.531 Q1.304 0.218 0.648 0.251" stroke="hsl(180.0,100%,35%)" stroke-width="0.00141"></path>
<path d="M1.512 0.531 Q1.754 0.416 1.583 0.273" stroke="hsl(180.0,100%,35%)" stroke-width="0.00141"></path>
<path d="M1.512 0.531 Q1.356 0.466 1.194 0.528" stroke="hsl(180.0,100%,35%)" stroke-width="0.00141"></path>
<path d="M1.512 0.531 Q1.304 0.550 1.295 0.656" stroke="hsl(180.0,100%,35%)" stroke-width="0.00141"></path>
<path d="M1.512 0.531 Q1.382 0.615 1.517 0.697" stroke="hsl(180.0,100%,35%)" stroke-width="0.00141"></path>
<path d="M1.512 0.531 Q1.058 0.408 0.718 0.603" stroke="hsl(180.0,100%,35%)" stroke-width="0.00141"></path>
<path d="M1.512 0.531 Q1.643 0.668 1.940 0.635" stroke="hsl(180.0,100%,35%)" stroke-width="0.00141"></path>
<path d="M0.918 0.642 Q1.148 0.640 1.194 0.528" stroke="hsl(0.0,100%,35%)" stroke-width="0.01835"></path>
<path d="M0.918 0.642 Q0.999 0.744 1.216 0.727" stroke="hsl(0.0,100%,35%)" stroke-width="0.00141"></path>
<path d="M0.918 0.642 Q1.562 0.447 1.323 0.091" stroke="hsl(0.0,100%,35%)" stroke-width="0.00141"></path>
<path d="M0.918 0.642 Q1.247 0.353 0.756 0.130" stroke="hsl(0.0,100%,35%)" stroke-width="0.00141"></path>
<path d="M0.918 0.642 Q1.344 0.570 1.298 0.347" stroke="hsl(0.0,100%,35%)" stroke-width="0.00141"></path>
<path d="M0.918 0.642 Q1.055 0.672 1.144 0.612" stroke="hsl(0.0,100%,35%)" stroke-width="0.00141"></path>
<path d="M1.295 0.656 Q1.347 0.571 1.194 0.528" stroke="hsl(0.0,100%,35%)" stroke-width="0.00424"></path>
<path d="M1.295 0.656 Q1.552 0.528 1.360 0.375" stroke="hsl(0.0,100%,35%)" stroke-width="0.00141"></path>
<path d="M1.295 0.656 Q1.508 0.395 1.047 0.234" stroke="hsl(0.0,100%,35%)" stroke-width="0.00141"></path>
<path d="M1.295 0.656 Q1.118 0.573 0.918 0.642" stroke="hsl(0.0,100%,35%)" stroke-width="0.00141"></path>
<path d="M1.295 0.656 Q1.543 0.502 1.298 0.347" stroke="hsl(0.0,100%,35%)" stroke-width="0.00141"></path>
<path d="M0.718 0.603 Q0.680 0.784 1.024 0.842" stroke="hsl(0.0,100%,35%)" stroke-width="0.00282"></path>
<path d="M0.718 0.603 Q0.644 0.627 0.676 0.669" stroke="hsl(0.0,100%,35%)" stroke-width="0.00141"></path>
<path d="M0.718 0.603 Q1.017 0.660 1.194 0.528" stroke="hsl(0.0,100%,35%)" stroke-width="0.00141"></path>
<path d="M0.718 0.603 Q1.116 0.374 0.756 0.130" stroke="hsl(0.0,100%,35%)" stroke-width="0.00424"></path>
<path d="M0.718 0.603 Q0.864 0.791 1.262 0.761" stroke="hsl(0.0,100%,35%)" stroke-width="0.00141"></path>
<path d="M0.718 0.603 Q0.787 0.662 0.918 0.642" stroke="hsl(0.0,100%,35%)" stroke-width="0.00141"></path>
<path d="M1.163 0.972 Q1.197 0.879 1.024 0.842" stroke="hsl(0.0,100%,35%)" stroke-width="0.00282"></path>
<path d="M1.163 0.972 Q1.305 0.758 0.918 0.642" stroke="hsl(0.0,100%,35%)" stroke-width="0.00141"></path>
<path d="M1.163 0.972 Q0.979 0.836 0.674 0.896" stroke="hsl(0.0,100%,35%)" stroke-width="0.00141"></path>
<path d="M1.163 0.972 Q1.534 0.756 1.194 0.528" stroke="hsl(0.0,100%,35%)" stroke-width="0.00141"></path>
<path d="M1.144 0.612 Q1.206 0.446 0.895 0.380" stroke="hsl(0.0,100%,35%)" stroke-width="0.00141"></path>
<path d="M1.144 0.612 Q1.336 0.294 0.756 0.130" stroke="hsl(0.0,100%,35%)" stroke-width="0.00424"></path>
<path d="M1.144 0.612 Q1.008 0.582 0.918 0.642" stroke="hsl(0.0,100%,35%)" stroke-width="0.02682"></path>
<path d="M1.144 0.612 Q1.237 0.580 1.194 0.528" stroke="hsl(0.0,100%,35%)" stroke-width="0.02824"></path>
<path d="M1.144 0.612 Q0.939 0.523 0.718 0.603" stroke="hsl(0.0,100%,35%)" stroke-width="0.00847"></path>
<path d="M1.144 0.612 Q1.254 0.709 1.466 0.677" stroke="hsl(0.0,100%,35%)" stroke-width="0.00141"></path>
<path d="M1.144 0.612 Q1.524 0.783 1.940 0.635" stroke="hsl(0.0,100%,35%)" stroke-width="0.00282"></path>
<path d="M1.144 0.612 Q0.993 0.530 0.798 0.585" stroke="hsl(0.0,100%,35%)" stroke-width="0.00141"></path>
<path d="M1.144 0.612 Q1.512 0.299 0.982 0.051" stroke="hsl(0.0,100%,35%)" stroke-width="0.00424"></path>
<path d="M1.144 0.612 Q0.865 0.547 0.676 0.669" stroke="hsl(0.0,100%,35%)" stroke-width="0.00424"></path>
<path d="M1.144 0.612 Q1.636 0.530 1.583 0.273" stroke="hsl(0.0,100%,35%)" stroke-width="0.00141"></path>
<path d="M1.144 0.612 Q1.066 0.705 1.229 0.763" stroke="hsl(0.0,100%,35%)" stroke-width="0.00141"></path>
<path d="M1.144 0.612 Q1.185 0.333 0.648 0.251" stroke="hsl(0.0,100%,35%)" stroke-width="0.00282"></path>
<path d="M1.144 0.612 Q1.234 0.657 1.341 0.623" stroke="hsl(0.0,100%,35%)" stroke-width="0.00141"></path>
<path d="M0.893 0.938 Q1.001 1.009 1.163 0.972" stroke="hsl(0.0,100%,35%)" stroke-width="0.00282"></path>
<path d="M0.893 0.938 Q1.035 0.917 1.024 0.842" stroke="hsl(0.0,100%,35%)" stroke-width="0.00282"></path>
<path d="M0.893 0.938 Q1.372 0.793 1.194 0.528" stroke="hsl(0.0,100%,35%)" stroke-width="0.00282"></path>
<path d="M0.893 0.938 Q1.143 0.795 0.918 0.642" stroke="hsl(0.0,100%,35%)" stroke-width="0.00141"></path>
<path d="M1.735 0.862 Q2.019 0.789 1.940 0.635" stroke="hsl(180.0,100%,35%)" stroke-width="0.00988"></path>
<path d="M1.735 0.862 Q1.831 0.300 0.756 0.130" stroke="hsl(180.0,100%,35%)" stroke-width="0.00141"></path>
<path d="M1.735 0.862 Q1.502 0.588 0.918 0.642" stroke="hsl(180.0,100%,35%)" stroke-width="0.00141"></path>
<path d="M1.735 0.862 Q1.605 0.874 1.601 0.940" stroke="hsl(180.0,100%,35%)" stroke-width="0.02118"></path>
<path d="M1.735 0.862 Q1.867 0.780 1.737 0.697" stroke="hsl(180.0,100%,35%)" stroke-width="0.00282"></path>
<path d="M1.735 0.862 Q2.146 0.394 1.323 0.091" stroke="hsl(180.0,100%,35%)" stroke-width="0.00141"></path>
<path d="M1.735 0.862 Q1.860 0.755 1.678 0.670" stroke="hsl(180.0,100%,35%)" stroke-width="0.00141"></path>
<path d="M1.735 0.862 Q1.807 0.772 1.647 0.717" stroke="hsl(180.0,100%,35%)" stroke-width="0.00141"></path>
<path d="M1.735 0.862 Q1.665 0.780 1.491 0.797" stroke="hsl(180.0,100%,35%)" stroke-width="0.00141"></path>
<path d="M1.735 0.862 Q1.732 0.586 1.194 0.528" stroke="hsl(180.0,100%,35%)" stroke-width="0.00141"></path>
<path d="M0.870 0.558 Q0.719 0.731 1.024 0.842" stroke="hsl(0.0,100%,35%)" stroke-width="0.00141"></path>
<path d="M0.870 0.558 Q1.056 0.607 1.194 0.528" stroke="hsl(0.0,100%,35%)" stroke-width="0.02400"></path>
<path d="M0.870 0.558 Q0.758 0.550 0.718 0.603" stroke="hsl(0.0,100%,35%)" stroke-width="0.00847"></path>
<path d="M0.870 0.558 Q1.025 0.474 0.895 0.380" stroke="hsl(0.0,100%,35%)" stroke-width="0.00565"></path>
<path d="M0.870 0.558 Q1.331 0.327 0.982 0.051" stroke="hsl(0.0,100%,35%)" stroke-width="0.00282"></path>
<path d="M0.870 0.558 Q0.685 0.823 1.163 0.972" stroke="hsl(0.0,100%,35%)" stroke-width="0.00706"></path>
<path d="M1.047 0.234 Q1.082 0.341 1.298 0.347" stroke="hsl(0.0,100%,35%)" stroke-width="0.00141"></path>
<path d="M1.047 0.234 Q0.854 0.277 0.895 0.380" stroke="hsl(0.0,100%,35%)" stroke-width="0.00565"></path>
<path d="M1.047 0.234 Q0.656 0.412 0.918 0.642" stroke="hsl(0.0,100%,35%)" stroke-width="0.00141"></path>
<path d="M1.047 0.234 Q0.985 0.124 0.756 0.130" stroke="hsl(0.0,100%,35%)" stroke-width="0.00424"></path>
<path d="M1.047 0.234 Q1.053 0.264 1.113 0.268" stroke="hsl(0.0,100%,35%)" stroke-width="0.00141"></path>
<path d="M1.047 0.234 Q0.886 0.410 1.194 0.528" stroke="hsl(0.0,100%,35%)" stroke-width="0.00141"></path>
<path d="M0.798 0.585 Q0.705 0.759 1.024 0.842" stroke="hsl(0.0,100%,35%)" stroke-width="0.00141"></path>
<path d="M0.798 0.585 Q1.042 0.635 1.194 0.528" stroke="hsl(0.0,100%,35%)" stroke-width="0.00282"></path>
<path d="M0.798 0.585 Q0.744 0.578 0.718 0.603" stroke="hsl(0.0,100%,35%)" stroke-width="0.00141"></path>
<path d="M0.908 1.008 Q1.273 0.796 0.938 0.572" stroke="hsl(0.0,100%,35%)" stroke-width="0.00141"></path>
<path d="M0.908 1.008 Q1.207 0.827 0.918 0.642" stroke="hsl(0.0,100%,35%)" stroke-width="0.00141"></path>
<path d="M0.908 1.008 Q1.065 1.041 1.163 0.972" stroke="hsl(0.0,100%,35%)" stroke-width="0.00141"></path>
<path d="M1.262 0.761 Q1.288 0.919 1.601 0.940" stroke="hsl(180.0,100%,35%)" stroke-width="0.00141"></path>
<path d="M1.262 0.761 Q1.117 0.573 0.718 0.603" stroke="hsl(180.0,100%,35%)" stroke-width="0.00282"></path>
<path d="M1.262 0.761 Q1.315 0.770 1.344 0.746" stroke="hsl(180.0,100%,35%)" stroke-width="0.00141"></path>
<path d="M1.262 0.761 Q1.252 0.602 0.938 0.572" stroke="hsl(180.0,100%,35%)" stroke-width="0.00141"></path>
<path d="M1.262 0.761 Q1.351 0.781 1.409 0.742" stroke="hsl(180.0,100%,35%)" stroke-width="0.00141"></path>
<path d="M1.262 0.761 Q1.702 0.833 1.940 0.635" stroke="hsl(180.0,100%,35%)" stroke-width="0.00282"></path>
<path d="M1.619 0.159 Q1.273 0.082 1.047 0.234" stroke="hsl(0.0,100%,35%)" stroke-width="0.00141"></path>
<path d="M1.619 0.159 Q1.609 0.085 1.461 0.074" stroke="hsl(0.0,100%,35%)" stroke-width="0.00141"></path>
<path d="M1.619 0.159 Q1.526 0.066 1.323 0.091" stroke="hsl(0.0,100%,35%)" stroke-width="0.00141"></path>
<path d="M1.463 0.717 Q1.446 0.756 1.517 0.772" stroke="hsl(180.0,100%,35%)" stroke-width="0.00141"></path>
<path d="M1.463 0.717 Q1.182 0.511 0.718 0.603" stroke="hsl(180.0,100%,35%)" stroke-width="0.00141"></path>
<path d="M1.463 0.717 Q1.327 0.699 1.262 0.761" stroke="hsl(180.0,100%,35%)" stroke-width="0.00141"></path>
<path d="M1.880 0.495 Q1.798 0.576 1.940 0.635" stroke="hsl(180.0,100%,35%)" stroke-width="0.00424"></path>
<path d="M1.880 0.495 Q1.610 0.087 0.756 0.130" stroke="hsl(180.0,100%,35%)" stroke-width="0.00141"></path>
<path d="M1.880 0.495 Q1.511 0.374 1.194 0.528" stroke="hsl(180.0,100%,35%)" stroke-width="0.00141"></path>
<path d="M1.880 0.495 Q1.282 0.376 0.918 0.642" stroke="hsl(180.0,100%,35%)" stroke-width="0.00141"></path>
<path d="M1.880 0.495 Q1.174 0.497 1.024 0.842" stroke="hsl(180.0,100%,35%)" stroke-width="0.00141"></path>
<path d="M1.806 0.078 Q1.814 0.100 1.857 0.100" stroke="hsl(0.0,100%,35%)" stroke-width="0.00141"></path>
<path d="M1.806 0.078 Q1.785 0.053 1.732 0.057" stroke="hsl(0.0,100%,35%)" stroke-width="0.00141"></path>
<path d="M1.806 0.078 Q0.842 0.123 0.718 0.603" stroke="hsl(0.0,100%,35%)" stroke-width="0.00141"></path>
<path d="M1.766 0.276 Q1.786 0.188 1.619 0.159" stroke="hsl(180.0,100%,35%)" stroke-width="0.00282"></path>
<path d="M1.766 0.276 Q1.843 0.252 1.813 0.209" stroke="hsl(180.0,100%,35%)" stroke-width="0.00141"></path>
<path d="M1.766 0.276 Q1.677 0.238 1.583 0.273" stroke="hsl(180.0,100%,35%)" stroke-width="0.00282"></path>
<path d="M0.437 0.565 Q0.372 0.545 0.318 0.572" stroke="hsl(0.0,100%,35%)" stroke-width="0.00141"></path>
<path d="M0.437 0.565 Q0.420 0.599 0.483 0.615" stroke="hsl(0.0,100%,35%)" stroke-width="0.00141"></path>
<path d="M0.437 0.565 Q0.846 0.698 1.194 0.528" stroke="hsl(0.0,100%,35%)" stroke-width="0.00141"></path>
<path d="M0.931 0.690 Q1.480 0.864 1.940 0.635" stroke="hsl(180.0,100%,35%)" stroke-width="0.00141"></path>
<path d="M0.931 0.690 Q0.963 0.663 0.918 0.642" stroke="hsl(180.0,100%,35%)" stroke-width="0.00141"></path>
<path d="M0.931 0.690 Q0.935 0.721 0.997 0.726" stroke="hsl(180.0,100%,35%)" stroke-width="0.00141"></path>
<path d="M1.226 0.882 Q1.493 0.698 1.194 0.528" stroke="hsl(0.0,100%,35%)" stroke-width="0.00141"></path>
<path d="M1.226 0.882 Q1.157 0.822 1.024 0.842" stroke="hsl(0.0,100%,35%)" stroke-width="0.00282"></path>
<path d="M1.226 0.882 Q1.195 0.641 0.718 0.603" stroke="hsl(0.0,100%,35%)" stroke-width="0.00141"></path>
<path d="M1.838 0.392 Q1.940 0.377 1.931 0.324" stroke="hsl(0.0,100%,35%)" stroke-width="0.00424"></path>
<path d="M1.838 0.392 Q1.704 0.379 1.648 0.442" stroke="hsl(0.0,100%,35%)" stroke-width="0.00141"></path>
<path d="M1.838 0.392 Q0.696 0.321 0.306 0.862" stroke="hsl(0.0,100%,35%)" stroke-width="0.00141"></path>
<path d="M1.931 0.324 Q2.033 0.267 1.944 0.204" stroke="hsl(0.0,100%,35%)" stroke-width="0.00141"></path>
<path d="M1.931 0.324 Q1.400 0.278 1.194 0.528" stroke="hsl(0.0,100%,35%)" stroke-width="0.00141"></path>
<path d="M1.931 0.324 Q1.788 0.278 1.668 0.338" stroke="hsl(0.0,100%,35%)" stroke-width="0.00141"></path>
<path d="M1.931 0.324 Q1.520 0.237 1.260 0.418" stroke="hsl(0.0,100%,35%)" stroke-width="0.00141"></path>
<path d="M0.306 0.862 Q1.214 0.803 1.298 0.347" stroke="hsl(0.0,100%,35%)" stroke-width="0.00282"></path>
<path d="M0.306 0.862 Q0.473 0.880 0.543 0.802" stroke="hsl(0.0,100%,35%)" stroke-width="0.00141"></path>
<path d="M0.306 0.862 Q0.681 0.996 1.024 0.842" stroke="hsl(0.0,100%,35%)" stroke-width="0.00141"></path>
<path d="M0.306 0.862 Q0.269 0.778 0.095 0.778" stroke="hsl(0.0,100%,35%)" stroke-width="0.00141"></path>
<path d="M0.306 0.862 Q0.323 0.913 0.425 0.916" stroke="hsl(0.0,100%,35%)" stroke-width="0.00141"></path>
<path d="M0.475 0.334 Q0.876 0.505 1.298 0.347" stroke="hsl(0.0,100%,35%)" stroke-width="0.00141"></path>
<path d="M0.475 0.334 Q0.483 0.293 0.405 0.280" stroke="hsl(0.0,100%,35%)" stroke-width="0.00141"></path>
<path d="M0.475 0.334 Q0.450 0.577 0.918 0.642" stroke="hsl(0.0,100%,35%)" stroke-width="0.00141"></path>
<path d="M0.475 0.334 Q0.779 0.288 0.756 0.130" stroke="hsl(0.0,100%,35%)" stroke-width="0.00141"></path>
<path d="M0.475 0.334 Q0.680 0.575 1.194 0.528" stroke="hsl(0.0,100%,35%)" stroke-width="0.00141"></path>
<path d="M1.708 0.560 Q1.673 0.371 1.298 0.347" stroke="hsl(180.0,100%,35%)" stroke-width="0.00141"></path>
<path d="M1.708 0.560 Q1.973 0.267 1.461 0.074" stroke="hsl(180.0,100%,35%)" stroke-width="0.00141"></path>
<path d="M1.708 0.560 Q1.750 0.547 1.734 0.524" stroke="hsl(180.0,100%,35%)" stroke-width="0.00141"></path>
<path d="M1.922 0.770 Q1.659 0.536 1.144 0.612" stroke="hsl(180.0,100%,35%)" stroke-width="0.00141"></path>
<path d="M1.922 0.770 Q2.040 0.706 1.940 0.635" stroke="hsl(180.0,100%,35%)" stroke-width="0.00141"></path>
<path d="M1.922 0.770 Q1.626 0.791 1.601 0.940" stroke="hsl(180.0,100%,35%)" stroke-width="0.00141"></path>
<path d="M1.219 0.135 Q1.249 0.209 1.401 0.211" stroke="hsl(180.0,100%,35%)" stroke-width="0.00141"></path>
<path d="M1.219 0.135 Q1.028 0.520 1.737 0.697" stroke="hsl(180.0,100%,35%)" stroke-width="0.00141"></path>
<path d="M1.219 0.135 Q1.173 0.186 1.262 0.220" stroke="hsl(180.0,100%,35%)" stroke-width="0.00141"></path>
<path d="M1.219 0.135 Q0.522 0.542 1.163 0.972" stroke="hsl(180.0,100%,35%)" stroke-width="0.00141"></path>
</g>
<text x="1.087" y="0.384" font-size="0.009298" fill="hsl(0.0,100%,20%)">adarom</text>
<text x="0.895" y="0.353" font-size="0.053951" fill="hsl(0.0,100%,20%)">kdlee</text>
<text x="0.982" y="0.023" font-size="0.056558" fill="hsl(0.0,100%,20%)">yukishiino</text>
<text x="0.756" y="0.098" font-size="0.063518" fill="hsl(0.0,100%,20%)">tasak</text>
<text x="1.944" y="0.199" font-size="0.010737" fill="hsl(0.0,100%,20%)">agrieve</text>
<text x="0.997" y="0.719" font-size="0.015184" fill="hsl(0.0,100%,20%)">richard.townsend</text>
<text x="1.298" y="0.332" font-size="0.030838" fill="hsl(0.0,100%,20%)">lizeb</text>
<text x="1.921" y="0.165" font-size="0.005368" fill="hsl(0.0,100%,20%)">wnwen</text>
<text x="0.430" y="0.428" font-size="0.017805" fill="hsl(180.0,100%,20%)">ahijazi</text>
<text x="1.194" y="0.483" font-size="0.089023" fill="hsl(0.0,100%,20%)">bartekn</text>
<text x="1.940" y="0.621" font-size="0.026299" fill="hsl(180.0,100%,20%)">haraken</text>
<text x="1.024" y="0.819" font-size="0.046180" fill="hsl(0.0,100%,20%)">arthursonzogni</text>
<text x="0.405" y="0.276" font-size="0.007592" fill="hsl(0.0,100%,20%)">nuskos</text>
<text x="0.110" y="0.620" font-size="0.014203" fill="hsl(180.0,100%,20%)">ajuma</text>
<text x="1.601" y="0.927" font-size="0.026841" fill="hsl(180.0,100%,20%)">mark</text>
<text x="0.332" y="0.677" font-size="0.014203" fill="hsl(180.0,100%,20%)">vollick</text>
<text x="0.074" y="0.471" font-size="0.005368" fill="hsl(180.0,100%,20%)">anthonyvd</text>
<text x="1.512" y="0.523" font-size="0.016105" fill="hsl(180.0,100%,20%)">andre.kempe</text>
<text x="0.918" y="0.617" font-size="0.049201" fill="hsl(0.0,100%,20%)">keishi</text>
<text x="0.648" y="0.243" font-size="0.016105" fill="hsl(0.0,100%,20%)">wfh</text>
<text x="1.583" y="0.266" font-size="0.013150" fill="hsl(180.0,100%,20%)">mpdenton</text>
<text x="1.295" y="0.642" font-size="0.026299" fill="hsl(0.0,100%,20%)">glazunov</text>
<text x="1.517" y="0.694" font-size="0.005368" fill="hsl(180.0,100%,20%)">joenotcharles</text>
<text x="0.718" y="0.587" font-size="0.032654" fill="hsl(0.0,100%,20%)">dcheng</text>
<text x="1.163" y="0.954" font-size="0.035609" fill="hsl(0.0,100%,20%)">danakj</text>
<text x="1.144" y="0.589" font-size="0.047411" fill="hsl(0.0,100%,20%)">mikt</text>
<text x="1.217" y="0.794" font-size="0.005368" fill="hsl(0.0,100%,20%)">jam</text>
<text x="0.893" y="0.931" font-size="0.015184" fill="hsl(0.0,100%,20%)">pmeuleman</text>
<text x="1.735" y="0.847" font-size="0.029889" fill="hsl(180.0,100%,20%)">avi</text>
<text x="1.737" y="0.693" font-size="0.009298" fill="hsl(180.0,100%,20%)">sdefresne</text>
<text x="1.323" y="0.086" font-size="0.009298" fill="hsl(0.0,100%,20%)">rsesek</text>
<text x="1.678" y="0.668" font-size="0.005368" fill="hsl(180.0,100%,20%)">robertogden</text>
<text x="1.647" y="0.714" font-size="0.005368" fill="hsl(180.0,100%,20%)">senorblanco</text>
<text x="1.491" y="0.794" font-size="0.005368" fill="hsl(180.0,100%,20%)">zmo</text>
<text x="0.870" y="0.539" font-size="0.036409" fill="hsl(0.0,100%,20%)">tsepez</text>
<text x="1.260" y="0.414" font-size="0.009298" fill="hsl(0.0,100%,20%)">lukasza</text>
<text x="1.461" y="0.069" font-size="0.009298" fill="hsl(0.0,100%,20%)">brucedawson</text>
<text x="0.896" y="0.212" font-size="0.007592" fill="hsl(0.0,100%,20%)">blundell</text>
<text x="0.927" y="0.425" font-size="0.009298" fill="hsl(0.0,100%,20%)">ssid</text>
<text x="1.047" y="0.224" font-size="0.020791" fill="hsl(0.0,100%,20%)">thestig</text>
<text x="0.676" y="0.663" font-size="0.013150" fill="hsl(0.0,100%,20%)">mlippautz</text>
<text x="0.938" y="0.564" font-size="0.015184" fill="hsl(180.0,100%,20%)">bikineev</text>
<text x="1.052" y="0.322" font-size="0.009298" fill="hsl(0.0,100%,20%)">thiabaud</text>
<text x="0.932" y="0.511" font-size="0.005368" fill="hsl(0.0,100%,20%)">junov</text>
<text x="0.857" y="0.229" font-size="0.009298" fill="hsl(0.0,100%,20%)">erikchen</text>
<text x="0.798" y="0.577" font-size="0.015184" fill="hsl(0.0,100%,20%)">paulsemel</text>
<text x="0.674" y="0.893" font-size="0.005368" fill="hsl(0.0,100%,20%)">janagrill</text>
<text x="0.908" y="1.003" font-size="0.009298" fill="hsl(0.0,100%,20%)">davidben</text>
<text x="1.262" y="0.753" font-size="0.016976" fill="hsl(180.0,100%,20%)">pkasting</text>
<text x="1.619" y="0.152" font-size="0.015184" fill="hsl(0.0,100%,20%)">fdoray</text>
<text x="1.360" y="0.372" font-size="0.005368" fill="hsl(0.0,100%,20%)">hashimoto</text>
<text x="1.463" y="0.713" font-size="0.009298" fill="hsl(180.0,100%,20%)">jbroman</text>
<text x="1.517" y="0.770" font-size="0.005368" fill="hsl(0.0,100%,20%)">sky</text>
<text x="1.880" y="0.488" font-size="0.014203" fill="hsl(180.0,100%,20%)">jdapena</text>
<text x="1.806" y="0.074" font-size="0.009298" fill="hsl(0.0,100%,20%)">jeffyoon</text>
<text x="1.857" y="0.098" font-size="0.005368" fill="hsl(0.0,100%,20%)">davidbienvenu</text>
<text x="1.732" y="0.055" font-size="0.005368" fill="hsl(0.0,100%,20%)">skyostil</text>
<text x="1.766" y="0.270" font-size="0.012004" fill="hsl(180.0,100%,20%)">jkoshy</text>
<text x="1.813" y="0.206" font-size="0.005368" fill="hsl(0.0,100%,20%)">anasalazar</text>
<text x="0.968" y="0.207" font-size="0.005368" fill="hsl(0.0,100%,20%)">leszeks</text>
<text x="1.487" y="0.393" font-size="0.007592" fill="hsl(0.0,100%,20%)">pasko</text>
<text x="1.110" y="0.333" font-size="0.005368" fill="hsl(0.0,100%,20%)">rogerm</text>
<text x="1.135" y="0.273" font-size="0.005368" fill="hsl(0.0,100%,20%)">tkent</text>
<text x="1.409" y="0.738" font-size="0.007592" fill="hsl(180.0,100%,20%)">kylechar</text>
<text x="1.216" y="0.725" font-size="0.005368" fill="hsl(0.0,100%,20%)">elkurin</text>
<text x="0.437" y="0.561" font-size="0.009298" fill="hsl(0.0,100%,20%)">leimy</text>
<text x="0.318" y="0.569" font-size="0.005368" fill="hsl(0.0,100%,20%)">chikamune</text>
<text x="0.483" y="0.612" font-size="0.005368" fill="hsl(0.0,100%,20%)">kouhei</text>
<text x="1.466" y="0.674" font-size="0.005368" fill="hsl(0.0,100%,20%)">liviutinta</text>
<text x="1.229" y="0.760" font-size="0.005368" fill="hsl(0.0,100%,20%)">caitkp</text>
<text x="1.341" y="0.621" font-size="0.005368" fill="hsl(0.0,100%,20%)">yoavweiss</text>
<text x="0.931" y="0.685" font-size="0.009298" fill="hsl(180.0,100%,20%)">nathan.teodosio</text>
<text x="1.226" y="0.876" font-size="0.010737" fill="hsl(0.0,100%,20%)">piotr.tworek</text>
<text x="1.344" y="0.743" font-size="0.005368" fill="hsl(180.0,100%,20%)">gab</text>
<text x="1.838" y="0.386" font-size="0.012004" fill="hsl(0.0,100%,20%)">prashanthsw</text>
<text x="1.931" y="0.317" font-size="0.014203" fill="hsl(0.0,100%,20%)">thakis</text>
<text x="1.648" y="0.440" font-size="0.005368" fill="hsl(0.0,100%,20%)">ntfschr</text>
<text x="0.306" y="0.855" font-size="0.014203" fill="hsl(0.0,100%,20%)">wez</text>
<text x="0.475" y="0.328" font-size="0.012004" fill="hsl(0.0,100%,20%)">stha09</text>
<text x="0.937" y="0.202" font-size="0.007592" fill="hsl(0.0,100%,20%)">boliu</text>
<text x="1.668" y="0.335" font-size="0.005368" fill="hsl(0.0,100%,20%)">hans</text>
<text x="1.113" y="0.266" font-size="0.005368" fill="hsl(180.0,100%,20%)">olivierli</text>
<text x="1.708" y="0.555" font-size="0.009298" fill="hsl(180.0,100%,20%)">titouan</text>
<text x="1.734" y="0.521" font-size="0.005368" fill="hsl(180.0,100%,20%)">isaboori</text>
<text x="1.922" y="0.766" font-size="0.009298" fill="hsl(180.0,100%,20%)">uioptt24</text>
<text x="0.216" y="0.740" font-size="0.005368" fill="hsl(180.0,100%,20%)">dtapuska</text>
<text x="0.543" y="0.800" font-size="0.005368" fill="hsl(0.0,100%,20%)">iclelland</text>
<text x="0.095" y="0.775" font-size="0.005368" fill="hsl(0.0,100%,20%)">cbruni</text>
<text x="0.425" y="0.913" font-size="0.005368" fill="hsl(0.0,100%,20%)">ddorwin</text>
<text x="1.096" y="0.048" font-size="0.005368" fill="hsl(0.0,100%,20%)">msw</text>
<text x="0.690" y="0.046" font-size="0.005368" fill="hsl(0.0,100%,20%)">nektar</text>
<text x="0.856" y="-0.022" font-size="0.005368" fill="hsl(0.0,100%,20%)">dfried</text>
<text x="0.708" y="-0.010" font-size="0.005368" fill="hsl(0.0,100%,20%)">khokhlov</text>
<text x="1.219" y="0.130" font-size="0.010737" fill="hsl(180.0,100%,20%)">zhaojiazhong-hf</text>
<text x="1.401" y="0.208" font-size="0.005368" fill="hsl(180.0,100%,20%)">cwallez</text>
<text x="1.262" y="0.217" font-size="0.005368" fill="hsl(180.0,100%,20%)">kbr</text>
</svg>
