<svg width="4000" height="2000" viewBox="-0.025 -0.025 2.05 1.05" xmlns="http://www.w3.org/2000/svg">
  <style>
    path {
      fill: none;
      stroke-linecap: round;
      stroke-opacity: 0.4;
    }

    text {
      text-anchor: middle;
      alignment-baseline: hanging;
    }
  </style>
  <g opacity="0.4">
<path d="M1.403 0.673 Q1.253 0.904 1.670 1.028" stroke="hsl(0.0,100%,35%)" stroke-width="0.00122"></path>
<path d="M1.403 0.673 Q1.072 0.724 1.099 0.896" stroke="hsl(0.0,100%,35%)" stroke-width="0.00365"></path>
<path d="M1.403 0.673 Q1.238 0.648 1.153 0.724" stroke="hsl(0.0,100%,35%)" stroke-width="0.00122"></path>
<path d="M1.099 0.896 Q1.295 0.837 1.222 0.728" stroke="hsl(0.0,100%,35%)" stroke-width="0.00243"></path>
<path d="M1.099 0.896 Q1.311 0.885 1.334 0.779" stroke="hsl(0.0,100%,35%)" stroke-width="0.00729"></path>
<path d="M1.099 0.896 Q1.135 0.823 0.999 0.789" stroke="hsl(0.0,100%,35%)" stroke-width="0.00365"></path>
<path d="M1.099 0.896 Q1.090 0.968 1.228 0.989" stroke="hsl(0.0,100%,35%)" stroke-width="0.03524"></path>
<path d="M1.099 0.896 Q1.271 0.773 1.068 0.662" stroke="hsl(0.0,100%,35%)" stroke-width="0.00365"></path>
<path d="M1.099 0.896 Q1.310 0.840 1.246 0.725" stroke="hsl(0.0,100%,35%)" stroke-width="0.02066"></path>
<path d="M1.099 0.896 Q1.239 0.443 0.385 0.276" stroke="hsl(0.0,100%,35%)" stroke-width="0.00122"></path>
<path d="M1.099 0.896 Q1.159 1.014 1.402 1.010" stroke="hsl(0.0,100%,35%)" stroke-width="0.00243"></path>
<path d="M1.099 0.896 Q0.715 0.621 0.093 0.747" stroke="hsl(0.0,100%,35%)" stroke-width="0.00486"></path>
<path d="M1.099 0.896 Q1.227 0.974 1.406 0.929" stroke="hsl(0.0,100%,35%)" stroke-width="0.01823"></path>
<path d="M1.099 0.896 Q1.320 0.870 1.317 0.756" stroke="hsl(0.0,100%,35%)" stroke-width="0.00365"></path>
<path d="M1.099 0.896 Q1.465 0.750 1.261 0.540" stroke="hsl(0.0,100%,35%)" stroke-width="0.00365"></path>
<path d="M1.099 0.896 Q1.352 0.945 1.503 0.832" stroke="hsl(0.0,100%,35%)" stroke-width="0.01094"></path>
<path d="M1.099 0.896 Q1.206 0.681 0.809 0.581" stroke="hsl(0.0,100%,35%)" stroke-width="0.00365"></path>
<path d="M1.099 0.896 Q1.350 0.806 1.229 0.664" stroke="hsl(0.0,100%,35%)" stroke-width="0.00243"></path>
<path d="M1.099 0.896 Q1.017 0.870 0.947 0.904" stroke="hsl(0.0,100%,35%)" stroke-width="0.00243"></path>
<path d="M1.099 0.896 Q0.962 0.928 0.993 1.002" stroke="hsl(0.0,100%,35%)" stroke-width="0.00243"></path>
<path d="M1.099 0.896 Q1.292 0.671 0.894 0.527" stroke="hsl(0.0,100%,35%)" stroke-width="0.00122"></path>
<path d="M1.099 0.896 Q1.264 0.821 1.153 0.724" stroke="hsl(0.0,100%,35%)" stroke-width="0.00608"></path>
<path d="M1.099 0.896 Q1.430 0.845 1.403 0.673" stroke="hsl(0.0,100%,35%)" stroke-width="0.00122"></path>
<path d="M1.099 0.896 Q0.888 0.962 0.969 1.079" stroke="hsl(0.0,100%,35%)" stroke-width="0.00122"></path>
<path d="M1.099 0.896 Q1.316 0.665 0.913 0.509" stroke="hsl(0.0,100%,35%)" stroke-width="0.00122"></path>
<path d="M1.153 0.724 Q1.116 0.877 1.406 0.929" stroke="hsl(0.0,100%,35%)" stroke-width="0.00972"></path>
<path d="M1.153 0.724 Q1.163 0.666 1.053 0.649" stroke="hsl(0.0,100%,35%)" stroke-width="0.00122"></path>
<path d="M1.153 0.724 Q1.238 0.726 1.261 0.685" stroke="hsl(0.0,100%,35%)" stroke-width="0.00243"></path>
<path d="M1.153 0.724 Q0.979 0.871 1.228 0.989" stroke="hsl(0.0,100%,35%)" stroke-width="0.01215"></path>
<path d="M1.153 0.724 Q1.241 0.848 1.503 0.832" stroke="hsl(0.0,100%,35%)" stroke-width="0.02674"></path>
<path d="M1.153 0.724 Q1.200 0.788 1.334 0.779" stroke="hsl(0.0,100%,35%)" stroke-width="0.00972"></path>
<path d="M1.153 0.724 Q1.560 0.535 1.280 0.295" stroke="hsl(0.0,100%,35%)" stroke-width="0.00122"></path>
<path d="M1.153 0.724 Q0.604 0.524 0.093 0.747" stroke="hsl(0.0,100%,35%)" stroke-width="0.00122"></path>
<path d="M1.153 0.724 Q0.991 0.683 0.876 0.754" stroke="hsl(0.0,100%,35%)" stroke-width="0.00122"></path>
<path d="M1.153 0.724 Q1.227 0.683 1.163 0.638" stroke="hsl(0.0,100%,35%)" stroke-width="0.00122"></path>
<path d="M1.153 0.724 Q1.203 0.685 1.138 0.653" stroke="hsl(0.0,100%,35%)" stroke-width="0.00122"></path>
<path d="M1.153 0.724 Q1.093 0.653 0.943 0.667" stroke="hsl(0.0,100%,35%)" stroke-width="0.00122"></path>
<path d="M1.153 0.724 Q0.988 0.799 1.099 0.896" stroke="hsl(0.0,100%,35%)" stroke-width="0.01944"></path>
<path d="M1.153 0.724 Q1.401 0.749 1.506 0.634" stroke="hsl(0.0,100%,35%)" stroke-width="0.00122"></path>
<path d="M1.153 0.724 Q1.269 0.776 1.396 0.731" stroke="hsl(0.0,100%,35%)" stroke-width="0.00122"></path>
<path d="M0.999 0.789 Q1.208 0.353 0.402 0.155" stroke="hsl(0.0,100%,35%)" stroke-width="0.00122"></path>
<path d="M0.999 0.789 Q0.963 0.863 1.099 0.896" stroke="hsl(0.0,100%,35%)" stroke-width="0.01458"></path>
<path d="M0.999 0.789 Q1.184 0.836 1.317 0.756" stroke="hsl(0.0,100%,35%)" stroke-width="0.00243"></path>
<path d="M0.999 0.789 Q0.881 0.836 0.947 0.904" stroke="hsl(0.0,100%,35%)" stroke-width="0.00365"></path>
<path d="M0.999 0.789 Q1.091 0.940 1.406 0.929" stroke="hsl(0.0,100%,35%)" stroke-width="0.00243"></path>
<path d="M0.999 0.789 Q1.175 0.851 1.334 0.779" stroke="hsl(0.0,100%,35%)" stroke-width="0.00365"></path>
<path d="M0.402 0.155 Q0.158 0.665 1.099 0.896" stroke="hsl(0.0,100%,35%)" stroke-width="0.00122"></path>
<path d="M0.402 0.155 Q-0.226 0.389 0.093 0.747" stroke="hsl(0.0,100%,35%)" stroke-width="0.00122"></path>
<path d="M0.402 0.155 Q0.547 0.121 0.511 0.043" stroke="hsl(0.0,100%,35%)" stroke-width="0.00122"></path>
<path d="M0.402 0.155 Q0.412 0.174 0.452 0.174" stroke="hsl(0.0,100%,35%)" stroke-width="0.00122"></path>
<path d="M1.317 0.756 Q1.095 0.783 1.099 0.896" stroke="hsl(0.0,100%,35%)" stroke-width="0.01215"></path>
<path d="M1.317 0.756 Q1.480 0.718 1.442 0.630" stroke="hsl(0.0,100%,35%)" stroke-width="0.00122"></path>
<path d="M1.317 0.756 Q1.132 0.709 0.999 0.789" stroke="hsl(0.0,100%,35%)" stroke-width="0.00122"></path>
<path d="M1.317 0.756 Q1.307 0.771 1.334 0.779" stroke="hsl(0.0,100%,35%)" stroke-width="0.00243"></path>
<path d="M1.317 0.756 Q1.462 0.637 1.261 0.540" stroke="hsl(0.0,100%,35%)" stroke-width="0.00122"></path>
<path d="M1.317 0.756 Q1.382 0.675 1.238 0.625" stroke="hsl(0.0,100%,35%)" stroke-width="0.00122"></path>
<path d="M1.317 0.756 Q1.531 0.808 1.680 0.715" stroke="hsl(0.0,100%,35%)" stroke-width="0.00122"></path>
<path d="M1.317 0.756 Q1.460 0.663 1.310 0.573" stroke="hsl(0.0,100%,35%)" stroke-width="0.00122"></path>
<path d="M1.317 0.756 Q1.086 0.855 1.228 0.989" stroke="hsl(0.0,100%,35%)" stroke-width="0.00122"></path>
<path d="M1.317 0.756 Q1.467 0.803 1.591 0.740" stroke="hsl(0.0,100%,35%)" stroke-width="0.00365"></path>
<path d="M1.317 0.756 Q1.223 0.860 1.406 0.929" stroke="hsl(0.0,100%,35%)" stroke-width="0.00365"></path>
<path d="M1.317 0.756 Q1.346 0.709 1.261 0.685" stroke="hsl(0.0,100%,35%)" stroke-width="0.00122"></path>
<path d="M1.317 0.756 Q0.712 0.507 0.093 0.747" stroke="hsl(0.0,100%,35%)" stroke-width="0.00122"></path>
<path d="M0.947 0.904 Q1.020 1.003 1.228 0.989" stroke="hsl(0.0,100%,35%)" stroke-width="0.00122"></path>
<path d="M0.947 0.904 Q1.251 0.904 1.317 0.756" stroke="hsl(0.0,100%,35%)" stroke-width="0.00243"></path>
<path d="M0.947 0.904 Q1.029 0.931 1.099 0.896" stroke="hsl(0.0,100%,35%)" stroke-width="0.00729"></path>
<path d="M0.947 0.904 Q1.280 0.857 1.261 0.685" stroke="hsl(0.0,100%,35%)" stroke-width="0.00122"></path>
<path d="M0.947 0.904 Q1.157 1.008 1.406 0.929" stroke="hsl(0.0,100%,35%)" stroke-width="0.00122"></path>
<path d="M1.406 0.929 Q1.278 0.851 1.099 0.896" stroke="hsl(0.0,100%,35%)" stroke-width="0.01823"></path>
<path d="M1.406 0.929 Q1.500 0.824 1.317 0.756" stroke="hsl(0.0,100%,35%)" stroke-width="0.00122"></path>
<path d="M1.406 0.929 Q1.444 0.776 1.153 0.724" stroke="hsl(0.0,100%,35%)" stroke-width="0.00608"></path>
<path d="M1.406 0.929 Q1.971 0.632 1.517 0.292" stroke="hsl(0.0,100%,35%)" stroke-width="0.00122"></path>
<path d="M1.406 0.929 Q1.196 0.825 0.947 0.904" stroke="hsl(0.0,100%,35%)" stroke-width="0.00122"></path>
<path d="M1.406 0.929 Q1.490 0.840 1.334 0.779" stroke="hsl(0.0,100%,35%)" stroke-width="0.00851"></path>
<path d="M1.406 0.929 Q1.460 1.026 1.661 1.021" stroke="hsl(0.0,100%,35%)" stroke-width="0.00972"></path>
<path d="M1.406 0.929 Q1.412 1.019 1.589 1.036" stroke="hsl(0.0,100%,35%)" stroke-width="0.00243"></path>
<path d="M1.254 0.437 Q0.425 0.360 0.093 0.747" stroke="hsl(0.0,100%,35%)" stroke-width="0.00122"></path>
<path d="M1.254 0.437 Q1.176 0.490 1.261 0.540" stroke="hsl(0.0,100%,35%)" stroke-width="0.00243"></path>
<path d="M1.254 0.437 Q0.937 0.713 1.406 0.929" stroke="hsl(0.0,100%,35%)" stroke-width="0.00122"></path>
<path d="M1.254 0.437 Q1.151 0.381 1.019 0.419" stroke="hsl(0.0,100%,35%)" stroke-width="0.00122"></path>
<path d="M1.254 0.437 Q0.942 0.804 1.589 1.036" stroke="hsl(0.0,100%,35%)" stroke-width="0.00122"></path>
<path d="M1.254 0.437 Q1.415 0.378 1.335 0.286" stroke="hsl(0.0,100%,35%)" stroke-width="0.00122"></path>
<path d="M1.254 0.437 Q1.326 0.481 1.426 0.455" stroke="hsl(0.0,100%,35%)" stroke-width="0.00122"></path>
<path d="M1.254 0.437 Q1.406 0.439 1.443 0.365" stroke="hsl(0.0,100%,35%)" stroke-width="0.00122"></path>
<path d="M1.254 0.437 Q1.281 0.370 1.155 0.342" stroke="hsl(0.0,100%,35%)" stroke-width="0.00122"></path>
<path d="M1.254 0.437 Q1.381 0.371 1.280 0.295" stroke="hsl(0.0,100%,35%)" stroke-width="0.00122"></path>
<path d="M1.254 0.437 Q1.054 0.126 0.402 0.155" stroke="hsl(0.0,100%,35%)" stroke-width="0.00122"></path>
<path d="M1.228 0.989 Q1.458 0.890 1.317 0.756" stroke="hsl(0.0,100%,35%)" stroke-width="0.02066"></path>
<path d="M1.228 0.989 Q1.490 0.965 1.503 0.832" stroke="hsl(0.0,100%,35%)" stroke-width="0.05469"></path>
<path d="M1.228 0.989 Q1.528 0.826 1.276 0.643" stroke="hsl(0.0,100%,35%)" stroke-width="0.00122"></path>
<path d="M1.228 0.989 Q1.930 0.698 1.517 0.292" stroke="hsl(0.0,100%,35%)" stroke-width="0.00243"></path>
<path d="M1.228 0.989 Q1.482 0.407 0.402 0.155" stroke="hsl(0.0,100%,35%)" stroke-width="0.00365"></path>
<path d="M1.228 0.989 Q1.237 0.917 1.099 0.896" stroke="hsl(0.0,100%,35%)" stroke-width="0.10573"></path>
<path d="M1.228 0.989 Q1.417 1.097 1.670 1.028" stroke="hsl(0.0,100%,35%)" stroke-width="0.00243"></path>
<path d="M1.228 0.989 Q1.651 0.867 1.506 0.634" stroke="hsl(0.0,100%,35%)" stroke-width="0.00122"></path>
<path d="M1.228 0.989 Q1.155 0.890 0.947 0.904" stroke="hsl(0.0,100%,35%)" stroke-width="0.00122"></path>
<path d="M1.228 0.989 Q1.573 0.862 1.402 0.666" stroke="hsl(0.0,100%,35%)" stroke-width="0.00122"></path>
<path d="M1.228 0.989 Q1.680 0.594 1.009 0.287" stroke="hsl(0.0,100%,35%)" stroke-width="0.00122"></path>
<path d="M1.228 0.989 Q1.487 0.843 1.261 0.685" stroke="hsl(0.0,100%,35%)" stroke-width="0.00365"></path>
<path d="M1.228 0.989 Q1.365 0.994 1.406 0.929" stroke="hsl(0.0,100%,35%)" stroke-width="0.00729"></path>
<path d="M1.228 0.989 Q1.402 0.841 1.153 0.724" stroke="hsl(0.0,100%,35%)" stroke-width="0.04254"></path>
<path d="M1.228 0.989 Q0.853 0.641 0.093 0.747" stroke="hsl(0.0,100%,35%)" stroke-width="0.00486"></path>
<path d="M1.228 0.989 Q1.594 0.878 1.459 0.675" stroke="hsl(0.0,100%,35%)" stroke-width="0.00243"></path>
<path d="M1.228 0.989 Q1.518 0.893 1.396 0.731" stroke="hsl(0.0,100%,35%)" stroke-width="0.00486"></path>
<path d="M1.228 0.989 Q1.622 0.852 1.442 0.630" stroke="hsl(0.0,100%,35%)" stroke-width="0.00243"></path>
<path d="M1.228 0.989 Q1.488 0.826 1.229 0.664" stroke="hsl(0.0,100%,35%)" stroke-width="0.00122"></path>
<path d="M1.228 0.989 Q1.448 0.860 1.246 0.725" stroke="hsl(0.0,100%,35%)" stroke-width="0.00243"></path>
<path d="M1.228 0.989 Q1.449 0.905 1.334 0.779" stroke="hsl(0.0,100%,35%)" stroke-width="0.02431"></path>
<path d="M1.228 0.989 Q1.521 0.847 1.309 0.673" stroke="hsl(0.0,100%,35%)" stroke-width="0.00243"></path>
<path d="M1.228 0.989 Q1.297 1.034 1.402 1.010" stroke="hsl(0.0,100%,35%)" stroke-width="0.00486"></path>
<path d="M1.228 0.989 Q1.429 1.150 1.789 1.087" stroke="hsl(0.0,100%,35%)" stroke-width="0.00122"></path>
<path d="M1.228 0.989 Q1.409 0.793 1.068 0.662" stroke="hsl(0.0,100%,35%)" stroke-width="0.00122"></path>
<path d="M1.228 0.989 Q0.722 1.462 1.535 1.812" stroke="hsl(0.0,100%,35%)" stroke-width="0.00122"></path>
<path d="M1.228 0.989 Q1.595 0.858 1.420 0.650" stroke="hsl(0.0,100%,35%)" stroke-width="0.00122"></path>
<path d="M1.228 0.989 Q1.189 1.095 1.389 1.138" stroke="hsl(0.0,100%,35%)" stroke-width="0.00122"></path>
<path d="M1.228 0.989 Q1.430 0.691 0.894 0.527" stroke="hsl(0.0,100%,35%)" stroke-width="0.00243"></path>
<path d="M1.228 0.989 Q1.566 0.840 1.351 0.643" stroke="hsl(0.0,100%,35%)" stroke-width="0.00122"></path>
<path d="M0.385 0.276 Q-0.138 0.453 0.093 0.747" stroke="hsl(0.0,100%,35%)" stroke-width="0.00122"></path>
<path d="M0.385 0.276 Q0.245 0.729 1.099 0.896" stroke="hsl(0.0,100%,35%)" stroke-width="0.00122"></path>
<path d="M0.385 0.276 Q0.827 0.414 1.194 0.229" stroke="hsl(0.0,100%,35%)" stroke-width="0.00122"></path>
<path d="M1.503 0.832 Q1.286 0.710 0.999 0.789" stroke="hsl(0.0,100%,35%)" stroke-width="0.00122"></path>
<path d="M1.503 0.832 Q1.250 0.784 1.099 0.896" stroke="hsl(0.0,100%,35%)" stroke-width="0.02917"></path>
<path d="M1.503 0.832 Q0.866 0.508 0.093 0.747" stroke="hsl(0.0,100%,35%)" stroke-width="0.00243"></path>
<path d="M1.503 0.832 Q1.442 1.017 1.789 1.087" stroke="hsl(0.0,100%,35%)" stroke-width="0.00122"></path>
<path d="M1.503 0.832 Q1.461 0.772 1.334 0.779" stroke="hsl(0.0,100%,35%)" stroke-width="0.01580"></path>
<path d="M1.503 0.832 Q1.240 0.856 1.228 0.989" stroke="hsl(0.0,100%,35%)" stroke-width="0.00608"></path>
<path d="M1.503 0.832 Q1.415 0.708 1.153 0.724" stroke="hsl(0.0,100%,35%)" stroke-width="0.02309"></path>
<path d="M1.503 0.832 Q1.654 0.742 1.511 0.648" stroke="hsl(0.0,100%,35%)" stroke-width="0.00122"></path>
<path d="M1.503 0.832 Q1.460 0.727 1.246 0.725" stroke="hsl(0.0,100%,35%)" stroke-width="0.00122"></path>
<path d="M1.503 0.832 Q1.377 0.861 1.406 0.929" stroke="hsl(0.0,100%,35%)" stroke-width="0.00486"></path>
<path d="M1.503 0.832 Q1.671 0.789 1.625 0.698" stroke="hsl(0.0,100%,35%)" stroke-width="0.00122"></path>
<path d="M0.993 1.002 Q1.258 1.048 1.406 0.929" stroke="hsl(0.0,100%,35%)" stroke-width="0.00243"></path>
<path d="M0.993 1.002 Q1.130 0.970 1.099 0.896" stroke="hsl(0.0,100%,35%)" stroke-width="0.00608"></path>
<path d="M0.993 1.002 Q1.342 0.958 1.334 0.779" stroke="hsl(0.0,100%,35%)" stroke-width="0.00243"></path>
<path d="M0.993 1.002 Q1.341 0.914 1.246 0.725" stroke="hsl(0.0,100%,35%)" stroke-width="0.00122"></path>
<path d="M0.511 0.043 Q0.630 0.126 0.818 0.087" stroke="hsl(0.0,100%,35%)" stroke-width="0.00122"></path>
<path d="M0.511 0.043 Q0.367 0.077 0.402 0.155" stroke="hsl(0.0,100%,35%)" stroke-width="0.01215"></path>
<path d="M0.511 0.043 Q0.655 0.143 0.882 0.095" stroke="hsl(0.0,100%,35%)" stroke-width="0.00122"></path>
<path d="M0.511 0.043 Q0.250 0.665 1.406 0.929" stroke="hsl(0.0,100%,35%)" stroke-width="0.00122"></path>
<path d="M0.511 0.043 Q0.122 0.587 1.099 0.896" stroke="hsl(0.0,100%,35%)" stroke-width="0.00122"></path>
<path d="M0.511 0.043 Q-0.261 0.311 0.093 0.747" stroke="hsl(0.0,100%,35%)" stroke-width="0.00243"></path>
<path d="M0.511 0.043 Q0.473 0.127 0.629 0.164" stroke="hsl(0.0,100%,35%)" stroke-width="0.00243"></path>
<path d="M0.511 0.043 Q0.597 0.059 0.648 0.021" stroke="hsl(0.0,100%,35%)" stroke-width="0.00243"></path>
<path d="M0.587 0.264 Q0.477 0.230 0.385 0.276" stroke="hsl(0.0,100%,35%)" stroke-width="0.00243"></path>
<path d="M0.587 0.264 Q0.549 0.671 1.334 0.779" stroke="hsl(0.0,100%,35%)" stroke-width="0.00122"></path>
<path d="M0.587 0.264 Q0.465 0.760 1.406 0.929" stroke="hsl(0.0,100%,35%)" stroke-width="0.00122"></path>
<path d="M1.594 1.027 Q1.579 0.940 1.406 0.929" stroke="hsl(0.0,100%,35%)" stroke-width="0.00122"></path>
<path d="M1.594 1.027 Q1.451 0.863 1.099 0.896" stroke="hsl(0.0,100%,35%)" stroke-width="0.00122"></path>
<path d="M1.594 1.027 Q1.644 0.637 0.894 0.527" stroke="hsl(0.0,100%,35%)" stroke-width="0.00122"></path>
<path d="M0.051 0.469 Q0.625 0.498 0.808 0.224" stroke="hsl(0.0,100%,35%)" stroke-width="0.00122"></path>
<path d="M0.051 0.469 Q0.211 0.494 0.296 0.422" stroke="hsl(0.0,100%,35%)" stroke-width="0.00122"></path>
<path d="M0.051 0.469 Q0.366 1.060 1.589 1.036" stroke="hsl(0.0,100%,35%)" stroke-width="0.00122"></path>
<path d="M0.051 0.469 Q0.206 0.379 0.066 0.284" stroke="hsl(0.0,100%,35%)" stroke-width="0.00122"></path>
<path d="M0.051 0.469 Q0.444 0.881 1.334 0.779" stroke="hsl(0.0,100%,35%)" stroke-width="0.00122"></path>
<path d="M1.009 0.287 Q0.694 0.687 1.406 0.929" stroke="hsl(0.0,100%,35%)" stroke-width="0.00122"></path>
<path d="M1.009 0.287 Q1.148 0.295 1.194 0.229" stroke="hsl(0.0,100%,35%)" stroke-width="0.00365"></path>
<path d="M1.009 0.287 Q0.777 0.553 1.246 0.725" stroke="hsl(0.0,100%,35%)" stroke-width="0.00122"></path>
<path d="M1.009 0.287 Q0.848 0.586 1.396 0.731" stroke="hsl(0.0,100%,35%)" stroke-width="0.00122"></path>
<path d="M1.009 0.287 Q1.112 0.232 1.028 0.170" stroke="hsl(0.0,100%,35%)" stroke-width="0.00122"></path>
<path d="M0.816 0.142 Q0.747 0.181 0.808 0.224" stroke="hsl(0.0,100%,35%)" stroke-width="0.00122"></path>
<path d="M0.816 0.142 Q0.565 0.564 1.334 0.779" stroke="hsl(0.0,100%,35%)" stroke-width="0.00122"></path>
<path d="M0.816 0.142 Q0.535 0.751 1.661 1.021" stroke="hsl(0.0,100%,35%)" stroke-width="0.00122"></path>
<path d="M1.613 0.900 Q1.359 0.795 1.099 0.896" stroke="hsl(0.0,100%,35%)" stroke-width="0.00729"></path>
<path d="M1.613 0.900 Q1.612 0.844 1.503 0.832" stroke="hsl(0.0,100%,35%)" stroke-width="0.01823"></path>
<path d="M1.613 0.900 Q1.349 0.867 1.228 0.989" stroke="hsl(0.0,100%,35%)" stroke-width="0.01094"></path>
<path d="M0.571 0.803 Q0.495 0.748 0.371 0.774" stroke="hsl(0.0,100%,35%)" stroke-width="0.00122"></path>
<path d="M0.571 0.803 Q0.761 0.955 1.099 0.896" stroke="hsl(0.0,100%,35%)" stroke-width="0.00243"></path>
<path d="M0.571 0.803 Q1.150 0.411 0.511 0.043" stroke="hsl(0.0,100%,35%)" stroke-width="0.00122"></path>
<path d="M0.194 0.614 Q0.457 0.863 0.999 0.789" stroke="hsl(0.0,100%,35%)" stroke-width="0.00243"></path>
<path d="M0.194 0.614 Q0.666 0.426 0.402 0.155" stroke="hsl(0.0,100%,35%)" stroke-width="0.00243"></path>
<path d="M0.194 0.614 Q0.037 0.661 0.093 0.747" stroke="hsl(0.0,100%,35%)" stroke-width="0.00243"></path>
<path d="M0.194 0.614 Q0.632 0.925 1.334 0.779" stroke="hsl(0.0,100%,35%)" stroke-width="0.00243"></path>
<path d="M0.194 0.614 Q0.339 0.910 0.947 0.904" stroke="hsl(0.0,100%,35%)" stroke-width="0.00122"></path>
<path d="M0.164 0.247 Q0.357 0.249 0.402 0.155" stroke="hsl(0.0,100%,35%)" stroke-width="0.00122"></path>
<path d="M0.164 0.247 Q0.252 0.306 0.385 0.276" stroke="hsl(0.0,100%,35%)" stroke-width="0.00243"></path>
<path d="M0.164 0.247 Q0.324 0.747 1.334 0.779" stroke="hsl(0.0,100%,35%)" stroke-width="0.00122"></path>
<path d="M1.082 0.645 Q1.101 0.763 1.334 0.779" stroke="hsl(0.0,100%,35%)" stroke-width="0.00243"></path>
<path d="M1.082 0.645 Q1.142 0.823 1.503 0.832" stroke="hsl(0.0,100%,35%)" stroke-width="0.00122"></path>
<path d="M1.082 0.645 Q1.017 0.852 1.406 0.929" stroke="hsl(0.0,100%,35%)" stroke-width="0.00122"></path>
<path d="M0.739 0.452 Q0.890 0.464 0.947 0.392" stroke="hsl(0.0,100%,35%)" stroke-width="0.00365"></path>
<path d="M0.739 0.452 Q0.859 0.397 0.779 0.327" stroke="hsl(0.0,100%,35%)" stroke-width="0.00122"></path>
<path d="M0.739 0.452 Q0.921 0.707 1.459 0.675" stroke="hsl(0.0,100%,35%)" stroke-width="0.00122"></path>
<path d="M0.739 0.452 Q0.699 0.378 0.546 0.382" stroke="hsl(0.0,100%,35%)" stroke-width="0.00122"></path>
<path d="M0.739 0.452 Q0.756 0.521 0.894 0.527" stroke="hsl(0.0,100%,35%)" stroke-width="0.00243"></path>
<path d="M0.739 0.452 Q0.953 0.202 0.511 0.043" stroke="hsl(0.0,100%,35%)" stroke-width="0.00243"></path>
<path d="M0.739 0.452 Q0.598 0.422 0.508 0.484" stroke="hsl(0.0,100%,35%)" stroke-width="0.00243"></path>
<path d="M0.739 0.452 Q0.885 0.411 0.837 0.331" stroke="hsl(0.0,100%,35%)" stroke-width="0.00122"></path>
<path d="M0.270 0.908 Q0.694 1.068 1.099 0.896" stroke="hsl(0.0,100%,35%)" stroke-width="0.00365"></path>
<path d="M0.270 0.908 Q0.310 0.792 0.093 0.747" stroke="hsl(0.0,100%,35%)" stroke-width="0.00365"></path>
<path d="M0.270 0.908 Q0.611 1.042 0.947 0.904" stroke="hsl(0.0,100%,35%)" stroke-width="0.00122"></path>
<path d="M1.026 0.737 Q0.935 0.831 1.099 0.896" stroke="hsl(0.0,100%,35%)" stroke-width="0.01944"></path>
<path d="M1.026 0.737 Q0.551 0.556 0.093 0.747" stroke="hsl(0.0,100%,35%)" stroke-width="0.00122"></path>
<path d="M1.026 0.737 Q1.271 0.777 1.402 0.666" stroke="hsl(0.0,100%,35%)" stroke-width="0.00243"></path>
<path d="M1.026 0.737 Q1.306 0.851 1.591 0.740" stroke="hsl(0.0,100%,35%)" stroke-width="0.00122"></path>
<path d="M1.026 0.737 Q1.063 0.909 1.406 0.929" stroke="hsl(0.0,100%,35%)" stroke-width="0.00122"></path>
<path d="M1.026 0.737 Q1.146 0.820 1.334 0.779" stroke="hsl(0.0,100%,35%)" stroke-width="0.00122"></path>
<path d="M1.141 0.673 Q1.152 0.765 1.334 0.779" stroke="hsl(0.0,100%,35%)" stroke-width="0.00365"></path>
<path d="M1.141 0.673 Q1.068 0.854 1.406 0.929" stroke="hsl(0.0,100%,35%)" stroke-width="0.00243"></path>
<path d="M1.141 0.673 Q0.941 0.776 1.099 0.896" stroke="hsl(0.0,100%,35%)" stroke-width="0.00122"></path>
<path d="M1.653 0.358 Q1.311 0.370 1.261 0.540" stroke="hsl(0.0,100%,35%)" stroke-width="0.00122"></path>
<path d="M1.653 0.358 Q1.638 0.297 1.517 0.292" stroke="hsl(0.0,100%,35%)" stroke-width="0.00243"></path>
<path d="M1.653 0.358 Q1.828 0.308 1.769 0.212" stroke="hsl(0.0,100%,35%)" stroke-width="0.00122"></path>
<path d="M1.653 0.358 Q1.705 0.463 1.922 0.460" stroke="hsl(0.0,100%,35%)" stroke-width="0.00122"></path>
<path d="M1.554 0.686 Q1.159 0.700 1.099 0.896" stroke="hsl(0.0,100%,35%)" stroke-width="0.00122"></path>
<path d="M1.554 0.686 Q1.286 0.778 1.406 0.929" stroke="hsl(0.0,100%,35%)" stroke-width="0.00122"></path>
<path d="M1.554 0.686 Q1.404 0.190 0.402 0.155" stroke="hsl(0.0,100%,35%)" stroke-width="0.00122"></path>
<path d="M1.554 0.686 Q1.370 0.689 1.334 0.779" stroke="hsl(0.0,100%,35%)" stroke-width="0.00122"></path>
</g>
<text x="1.403" y="0.667" font-size="0.012232" fill="hsl(0.0,100%,20%)">ajuma</text>
<text x="1.670" y="1.023" font-size="0.008649" fill="hsl(0.0,100%,20%)">gab</text>
<text x="1.099" y="0.851" font-size="0.090165" fill="hsl(0.0,100%,20%)">bartekn</text>
<text x="1.153" y="0.694" font-size="0.059087" fill="hsl(0.0,100%,20%)">yukishiino</text>
<text x="0.999" y="0.775" font-size="0.027352" fill="hsl(0.0,100%,20%)">arthursonzogni</text>
<text x="0.402" y="0.143" font-size="0.023949" fill="hsl(0.0,100%,20%)">danakj</text>
<text x="1.317" y="0.738" font-size="0.036011" fill="hsl(0.0,100%,20%)">keishi</text>
<text x="0.947" y="0.893" font-size="0.022333" fill="hsl(0.0,100%,20%)">glazunov</text>
<text x="1.406" y="0.905" font-size="0.047637" fill="hsl(0.0,100%,20%)">lizeb</text>
<text x="1.334" y="0.758" font-size="0.042958" fill="hsl(0.0,100%,20%)">haraken</text>
<text x="1.254" y="0.429" font-size="0.017299" fill="hsl(0.0,100%,20%)">avi</text>
<text x="0.093" y="0.735" font-size="0.023949" fill="hsl(0.0,100%,20%)">dcheng</text>
<text x="1.261" y="0.533" font-size="0.013212" fill="hsl(0.0,100%,20%)">mark</text>
<text x="1.019" y="0.417" font-size="0.004994" fill="hsl(0.0,100%,20%)">tedchoc</text>
<text x="1.589" y="1.031" font-size="0.009988" fill="hsl(0.0,100%,20%)">rsesek</text>
<text x="1.335" y="0.284" font-size="0.004994" fill="hsl(0.0,100%,20%)">vovoy</text>
<text x="1.426" y="0.453" font-size="0.004994" fill="hsl(0.0,100%,20%)">garykac</text>
<text x="1.443" y="0.363" font-size="0.004994" fill="hsl(0.0,100%,20%)">khorimoto</text>
<text x="1.155" y="0.339" font-size="0.004994" fill="hsl(0.0,100%,20%)">mbonadei</text>
<text x="1.280" y="0.291" font-size="0.007062" fill="hsl(0.0,100%,20%)">rohitrao</text>
<text x="1.222" y="0.725" font-size="0.007062" fill="hsl(0.0,100%,20%)">tsepez</text>
<text x="1.228" y="0.945" font-size="0.087924" fill="hsl(0.0,100%,20%)">kdlee</text>
<text x="1.068" y="0.657" font-size="0.009988" fill="hsl(0.0,100%,20%)">altimin</text>
<text x="1.246" y="0.713" font-size="0.023423" fill="hsl(0.0,100%,20%)">bikineev</text>
<text x="0.385" y="0.269" font-size="0.014124" fill="hsl(0.0,100%,20%)">thestig</text>
<text x="1.402" y="1.004" font-size="0.012232" fill="hsl(0.0,100%,20%)">bgeffon</text>
<text x="1.503" y="0.800" font-size="0.063951" fill="hsl(0.0,100%,20%)">tasak</text>
<text x="0.809" y="0.577" font-size="0.008649" fill="hsl(0.0,100%,20%)">gbeaty</text>
<text x="1.229" y="0.659" font-size="0.008649" fill="hsl(0.0,100%,20%)">jochen</text>
<text x="0.993" y="0.993" font-size="0.017299" fill="hsl(0.0,100%,20%)">richard.townsend</text>
<text x="0.894" y="0.521" font-size="0.012232" fill="hsl(0.0,100%,20%)">wfh</text>
<text x="0.969" y="1.076" font-size="0.004994" fill="hsl(0.0,100%,20%)">asully</text>
<text x="0.913" y="0.506" font-size="0.004994" fill="hsl(0.0,100%,20%)">hypan</text>
<text x="0.511" y="0.031" font-size="0.024464" fill="hsl(0.0,100%,20%)">pkasting</text>
<text x="0.452" y="0.172" font-size="0.004994" fill="hsl(0.0,100%,20%)">lukasza</text>
<text x="0.587" y="0.259" font-size="0.009988" fill="hsl(0.0,100%,20%)">dsanders11</text>
<text x="1.594" y="1.023" font-size="0.008649" fill="hsl(0.0,100%,20%)">floresa</text>
<text x="1.261" y="0.678" font-size="0.013212" fill="hsl(0.0,100%,20%)">mpdenton</text>
<text x="0.051" y="0.463" font-size="0.011166" fill="hsl(0.0,100%,20%)">guochengwei</text>
<text x="0.808" y="0.220" font-size="0.007062" fill="hsl(0.0,100%,20%)">kimstephanie</text>
<text x="0.296" y="0.420" font-size="0.004994" fill="hsl(0.0,100%,20%)">smaier</text>
<text x="0.066" y="0.282" font-size="0.004994" fill="hsl(0.0,100%,20%)">dnicoara</text>
<text x="1.009" y="0.280" font-size="0.014124" fill="hsl(0.0,100%,20%)">hans</text>
<text x="1.194" y="0.224" font-size="0.009988" fill="hsl(0.0,100%,20%)">thakis</text>
<text x="1.396" y="0.725" font-size="0.012232" fill="hsl(0.0,100%,20%)">mlippautz</text>
<text x="1.028" y="0.168" font-size="0.004994" fill="hsl(0.0,100%,20%)">aeubanks</text>
<text x="0.816" y="0.138" font-size="0.008649" fill="hsl(0.0,100%,20%)">hnakashima</text>
<text x="1.661" y="1.014" font-size="0.014981" fill="hsl(0.0,100%,20%)">thiabaud</text>
<text x="1.613" y="0.886" font-size="0.027352" fill="hsl(0.0,100%,20%)">honokaanada</text>
<text x="1.276" y="0.641" font-size="0.004994" fill="hsl(0.0,100%,20%)">danilchap</text>
<text x="1.517" y="0.286" font-size="0.011166" fill="hsl(0.0,100%,20%)">fdoray</text>
<text x="1.506" y="0.630" font-size="0.007062" fill="hsl(0.0,100%,20%)">sdefresne</text>
<text x="1.402" y="0.662" font-size="0.008649" fill="hsl(0.0,100%,20%)">leszeks</text>
<text x="1.459" y="0.670" font-size="0.008649" fill="hsl(0.0,100%,20%)">kylechar</text>
<text x="1.442" y="0.626" font-size="0.008649" fill="hsl(0.0,100%,20%)">tkent</text>
<text x="1.309" y="0.669" font-size="0.007062" fill="hsl(0.0,100%,20%)">metzman</text>
<text x="1.789" y="1.084" font-size="0.007062" fill="hsl(0.0,100%,20%)">etienneb</text>
<text x="1.535" y="1.810" font-size="0.004994" fill="hsl(0.0,100%,20%)">erikchen</text>
<text x="1.420" y="0.648" font-size="0.004994" fill="hsl(0.0,100%,20%)">ayui</text>
<text x="1.389" y="1.135" font-size="0.004994" fill="hsl(0.0,100%,20%)">primiano</text>
<text x="1.351" y="0.640" font-size="0.004994" fill="hsl(0.0,100%,20%)">wez</text>
<text x="1.393" y="4.499" font-size="0.004994" fill="hsl(0.0,100%,20%)">battre</text>
<text x="1.238" y="0.622" font-size="0.004994" fill="hsl(0.0,100%,20%)">ccameron</text>
<text x="1.680" y="0.713" font-size="0.004994" fill="hsl(0.0,100%,20%)">rakina</text>
<text x="1.310" y="0.571" font-size="0.004994" fill="hsl(0.0,100%,20%)">wrong</text>
<text x="1.591" y="0.735" font-size="0.009988" fill="hsl(0.0,100%,20%)">ssid</text>
<text x="0.571" y="0.798" font-size="0.009988" fill="hsl(0.0,100%,20%)">marshall</text>
<text x="0.371" y="0.771" font-size="0.004994" fill="hsl(0.0,100%,20%)">perrier</text>
<text x="0.194" y="0.607" font-size="0.014981" fill="hsl(0.0,100%,20%)">paulsemel</text>
<text x="0.164" y="0.242" font-size="0.009988" fill="hsl(0.0,100%,20%)">pbos</text>
<text x="0.818" y="0.084" font-size="0.004994" fill="hsl(0.0,100%,20%)">agrieve</text>
<text x="0.882" y="0.093" font-size="0.004994" fill="hsl(0.0,100%,20%)">wittman</text>
<text x="0.629" y="0.161" font-size="0.007062" fill="hsl(0.0,100%,20%)">nicolaso</text>
<text x="0.648" y="0.018" font-size="0.007062" fill="hsl(0.0,100%,20%)">behdadb</text>
<text x="1.082" y="0.640" font-size="0.009988" fill="hsl(0.0,100%,20%)">qitiezheng</text>
<text x="0.739" y="0.443" font-size="0.018005" fill="hsl(0.0,100%,20%)">rwkeane</text>
<text x="0.947" y="0.388" font-size="0.008649" fill="hsl(0.0,100%,20%)">ajgo</text>
<text x="0.779" y="0.324" font-size="0.004994" fill="hsl(0.0,100%,20%)">mfoltz</text>
<text x="0.546" y="0.379" font-size="0.004994" fill="hsl(0.0,100%,20%)">ddorwin</text>
<text x="0.508" y="0.481" font-size="0.007062" fill="hsl(0.0,100%,20%)">jshin</text>
<text x="0.837" y="0.329" font-size="0.004994" fill="hsl(0.0,100%,20%)">kmarshall</text>
<text x="0.270" y="0.902" font-size="0.013212" fill="hsl(0.0,100%,20%)">saelo</text>
<text x="1.026" y="0.725" font-size="0.023423" fill="hsl(0.0,100%,20%)">sroettger</text>
<text x="1.141" y="0.666" font-size="0.012232" fill="hsl(0.0,100%,20%)">stha09</text>
<text x="1.511" y="0.646" font-size="0.004994" fill="hsl(0.0,100%,20%)">tikuta</text>
<text x="1.625" y="0.695" font-size="0.004994" fill="hsl(0.0,100%,20%)">estaab</text>
<text x="1.653" y="0.352" font-size="0.011166" fill="hsl(0.0,100%,20%)">vollick</text>
<text x="1.769" y="0.209" font-size="0.004994" fill="hsl(0.0,100%,20%)">dtapuska</text>
<text x="1.922" y="0.458" font-size="0.004994" fill="hsl(0.0,100%,20%)">anthonyvd</text>
<text x="1.554" y="0.681" font-size="0.009988" fill="hsl(0.0,100%,20%)">wangqing-hf</text>
<text x="1.053" y="0.646" font-size="0.004994" fill="hsl(0.0,100%,20%)">joenotcharles</text>
<text x="0.876" y="0.751" font-size="0.004994" fill="hsl(0.0,100%,20%)">rockot</text>
<text x="1.163" y="0.635" font-size="0.004994" fill="hsl(0.0,100%,20%)">mamir</text>
<text x="1.138" y="0.650" font-size="0.004994" fill="hsl(0.0,100%,20%)">meacer</text>
<text x="0.943" y="0.664" font-size="0.004994" fill="hsl(0.0,100%,20%)">victortan</text>
</svg>
