<svg width="4000" height="2000" viewBox="-0.025 -0.025 2.05 1.05" xmlns="http://www.w3.org/2000/svg">
  <style>
    path {
      fill: none;
      stroke-linecap: round;
      stroke-opacity: 0.4;
    }

    text {
      text-anchor: middle;
      alignment-baseline: hanging;
    }
  </style>
  <g opacity="0.4">
<path d="M1.586 0.188 Q1.536 0.266 1.679 0.308" stroke="hsl(0.0,100%,35%)" stroke-width="0.00103"></path>
<path d="M1.586 0.188 Q1.048 0.237 1.026 0.510" stroke="hsl(0.0,100%,35%)" stroke-width="0.00103"></path>
<path d="M1.586 0.188 Q1.221 0.541 1.830 0.796" stroke="hsl(0.0,100%,35%)" stroke-width="0.00103"></path>
<path d="M1.586 0.188 Q1.738 0.150 1.698 0.068" stroke="hsl(0.0,100%,35%)" stroke-width="0.00103"></path>
<path d="M0.774 0.959 Q1.541 1.008 1.806 0.645" stroke="hsl(180.0,100%,35%)" stroke-width="0.00103"></path>
<path d="M0.774 0.959 Q1.434 0.953 1.568 0.629" stroke="hsl(180.0,100%,35%)" stroke-width="0.00103"></path>
<path d="M0.774 0.959 Q0.781 0.884 0.637 0.865" stroke="hsl(180.0,100%,35%)" stroke-width="0.00103"></path>
<path d="M1.806 0.645 Q1.699 0.590 1.568 0.629" stroke="hsl(180.0,100%,35%)" stroke-width="0.00205"></path>
<path d="M1.806 0.645 Q1.311 0.608 1.129 0.841" stroke="hsl(180.0,100%,35%)" stroke-width="0.00205"></path>
<path d="M1.806 0.645 Q1.114 0.293 0.274 0.552" stroke="hsl(180.0,100%,35%)" stroke-width="0.00205"></path>
<path d="M1.806 0.645 Q1.179 0.207 0.187 0.417" stroke="hsl(180.0,100%,35%)" stroke-width="0.00103"></path>
<path d="M1.806 0.645 Q0.840 0.358 0.069 0.767" stroke="hsl(180.0,100%,35%)" stroke-width="0.00103"></path>
<path d="M0.640 0.594 Q0.901 0.486 0.746 0.334" stroke="hsl(0.0,100%,35%)" stroke-width="0.00411"></path>
<path d="M0.640 0.594 Q0.555 0.415 0.187 0.417" stroke="hsl(0.0,100%,35%)" stroke-width="0.08012"></path>
<path d="M0.640 0.594 Q0.630 0.515 0.474 0.503" stroke="hsl(0.0,100%,35%)" stroke-width="0.00308"></path>
<path d="M0.640 0.594 Q0.491 0.500 0.274 0.552" stroke="hsl(0.0,100%,35%)" stroke-width="0.02979"></path>
<path d="M0.640 0.594 Q0.824 0.421 0.526 0.293" stroke="hsl(0.0,100%,35%)" stroke-width="0.01233"></path>
<path d="M0.640 0.594 Q0.852 0.610 0.930 0.510" stroke="hsl(0.0,100%,35%)" stroke-width="0.00103"></path>
<path d="M0.640 0.594 Q0.612 0.501 0.423 0.495" stroke="hsl(0.0,100%,35%)" stroke-width="0.00925"></path>
<path d="M0.640 0.594 Q0.901 0.610 0.989 0.486" stroke="hsl(0.0,100%,35%)" stroke-width="0.00719"></path>
<path d="M0.640 0.594 Q0.728 0.561 0.684 0.511" stroke="hsl(0.0,100%,35%)" stroke-width="0.00205"></path>
<path d="M0.640 0.594 Q0.834 0.611 0.908 0.520" stroke="hsl(0.0,100%,35%)" stroke-width="0.00205"></path>
<path d="M0.640 0.594 Q0.660 0.311 0.112 0.240" stroke="hsl(0.0,100%,35%)" stroke-width="0.00411"></path>
<path d="M0.640 0.594 Q0.863 0.692 1.104 0.605" stroke="hsl(0.0,100%,35%)" stroke-width="0.00308"></path>
<path d="M0.640 0.594 Q0.999 0.381 0.661 0.160" stroke="hsl(0.0,100%,35%)" stroke-width="0.00411"></path>
<path d="M0.640 0.594 Q0.879 0.352 0.458 0.182" stroke="hsl(0.0,100%,35%)" stroke-width="0.00103"></path>
<path d="M0.640 0.594 Q0.217 0.566 0.069 0.767" stroke="hsl(0.0,100%,35%)" stroke-width="0.00308"></path>
<path d="M0.640 0.594 Q0.900 0.629 1.026 0.510" stroke="hsl(0.0,100%,35%)" stroke-width="0.00205"></path>
<path d="M0.640 0.594 Q0.860 0.446 0.618 0.306" stroke="hsl(0.0,100%,35%)" stroke-width="0.00103"></path>
<path d="M0.640 0.594 Q0.413 0.662 0.494 0.788" stroke="hsl(0.0,100%,35%)" stroke-width="0.00103"></path>
<path d="M0.640 0.594 Q0.850 0.590 0.886 0.487" stroke="hsl(0.0,100%,35%)" stroke-width="0.00205"></path>
<path d="M0.640 0.594 Q0.609 0.356 0.137 0.320" stroke="hsl(0.0,100%,35%)" stroke-width="0.00103"></path>
<path d="M0.640 0.594 Q0.731 0.574 0.711 0.525" stroke="hsl(0.0,100%,35%)" stroke-width="0.00103"></path>
<path d="M0.640 0.594 Q1.079 0.550 1.088 0.326" stroke="hsl(0.0,100%,35%)" stroke-width="0.00103"></path>
<path d="M0.640 0.594 Q0.482 0.597 0.451 0.675" stroke="hsl(0.0,100%,35%)" stroke-width="0.00103"></path>
<path d="M0.640 0.594 Q1.073 0.933 1.830 0.796" stroke="hsl(0.0,100%,35%)" stroke-width="0.00205"></path>
<path d="M0.474 0.503 Q0.484 0.582 0.640 0.594" stroke="hsl(0.0,100%,35%)" stroke-width="0.00103"></path>
<path d="M0.474 0.503 Q0.335 0.488 0.274 0.552" stroke="hsl(0.0,100%,35%)" stroke-width="0.00205"></path>
<path d="M0.474 0.503 Q0.399 0.403 0.187 0.417" stroke="hsl(0.0,100%,35%)" stroke-width="0.00103"></path>
<path d="M0.274 0.552 Q0.424 0.647 0.640 0.594" stroke="hsl(0.0,100%,35%)" stroke-width="0.04109"></path>
<path d="M0.274 0.552 Q0.339 0.467 0.187 0.417" stroke="hsl(0.0,100%,35%)" stroke-width="0.10375"></path>
<path d="M0.274 0.552 Q0.515 0.626 0.711 0.525" stroke="hsl(0.0,100%,35%)" stroke-width="0.00411"></path>
<path d="M0.274 0.552 Q0.189 0.640 0.340 0.700" stroke="hsl(0.0,100%,35%)" stroke-width="0.00205"></path>
<path d="M0.274 0.552 Q0.364 0.631 0.537 0.604" stroke="hsl(0.0,100%,35%)" stroke-width="0.00103"></path>
<path d="M0.274 0.552 Q0.684 0.682 1.026 0.510" stroke="hsl(0.0,100%,35%)" stroke-width="0.00205"></path>
<path d="M0.274 0.552 Q0.464 0.722 0.836 0.667" stroke="hsl(0.0,100%,35%)" stroke-width="0.00103"></path>
<path d="M0.274 0.552 Q0.000 0.618 0.069 0.767" stroke="hsl(0.0,100%,35%)" stroke-width="0.01541"></path>
<path d="M0.274 0.552 Q0.685 0.662 0.989 0.486" stroke="hsl(0.0,100%,35%)" stroke-width="0.00103"></path>
<path d="M0.274 0.552 Q0.521 0.346 0.172 0.180" stroke="hsl(0.0,100%,35%)" stroke-width="0.00103"></path>
<path d="M0.274 0.552 Q0.170 0.670 0.377 0.747" stroke="hsl(0.0,100%,35%)" stroke-width="0.00103"></path>
<path d="M0.274 0.552 Q0.196 0.714 0.494 0.788" stroke="hsl(0.0,100%,35%)" stroke-width="0.00103"></path>
<path d="M0.274 0.552 Q0.110 0.565 0.098 0.648" stroke="hsl(0.0,100%,35%)" stroke-width="0.00103"></path>
<path d="M0.274 0.552 Q0.395 0.553 0.423 0.495" stroke="hsl(0.0,100%,35%)" stroke-width="0.00514"></path>
<path d="M0.274 0.552 Q0.453 0.672 0.726 0.611" stroke="hsl(0.0,100%,35%)" stroke-width="0.00103"></path>
<path d="M0.274 0.552 Q0.265 0.649 0.451 0.675" stroke="hsl(0.0,100%,35%)" stroke-width="0.00616"></path>
<path d="M0.274 0.552 Q0.414 0.568 0.474 0.503" stroke="hsl(0.0,100%,35%)" stroke-width="0.01644"></path>
<path d="M0.274 0.552 Q0.443 0.364 0.112 0.240" stroke="hsl(0.0,100%,35%)" stroke-width="0.00308"></path>
<path d="M0.274 0.552 Q0.262 0.661 0.471 0.691" stroke="hsl(0.0,100%,35%)" stroke-width="0.00103"></path>
<path d="M0.274 0.552 Q0.857 0.986 1.830 0.796" stroke="hsl(0.0,100%,35%)" stroke-width="0.00103"></path>
<path d="M0.526 0.293 Q0.701 0.253 0.661 0.160" stroke="hsl(0.0,100%,35%)" stroke-width="0.03801"></path>
<path d="M0.526 0.293 Q0.257 0.287 0.187 0.417" stroke="hsl(0.0,100%,35%)" stroke-width="0.05033"></path>
<path d="M0.526 0.293 Q1.039 0.360 1.281 0.124" stroke="hsl(0.0,100%,35%)" stroke-width="0.00103"></path>
<path d="M0.526 0.293 Q0.362 0.184 0.112 0.240" stroke="hsl(0.0,100%,35%)" stroke-width="0.00411"></path>
<path d="M0.526 0.293 Q0.581 0.224 0.458 0.182" stroke="hsl(0.0,100%,35%)" stroke-width="0.00103"></path>
<path d="M0.526 0.293 Q0.264 0.543 0.694 0.726" stroke="hsl(0.0,100%,35%)" stroke-width="0.00103"></path>
<path d="M0.526 0.293 Q0.193 0.373 0.274 0.552" stroke="hsl(0.0,100%,35%)" stroke-width="0.00925"></path>
<path d="M0.526 0.293 Q0.342 0.467 0.640 0.594" stroke="hsl(0.0,100%,35%)" stroke-width="0.01541"></path>
<path d="M0.526 0.293 Q0.311 0.229 0.137 0.320" stroke="hsl(0.0,100%,35%)" stroke-width="0.00103"></path>
<path d="M0.526 0.293 Q0.314 0.373 0.423 0.495" stroke="hsl(0.0,100%,35%)" stroke-width="0.00103"></path>
<path d="M0.423 0.495 Q0.452 0.588 0.640 0.594" stroke="hsl(0.0,100%,35%)" stroke-width="0.02568"></path>
<path d="M0.423 0.495 Q0.367 0.409 0.187 0.417" stroke="hsl(0.0,100%,35%)" stroke-width="0.02671"></path>
<path d="M0.423 0.495 Q0.713 0.479 0.746 0.334" stroke="hsl(0.0,100%,35%)" stroke-width="0.00103"></path>
<path d="M0.423 0.495 Q0.442 0.509 0.474 0.503" stroke="hsl(0.0,100%,35%)" stroke-width="0.00308"></path>
<path d="M0.423 0.495 Q0.303 0.494 0.274 0.552" stroke="hsl(0.0,100%,35%)" stroke-width="0.00925"></path>
<path d="M0.989 0.486 Q0.729 0.471 0.640 0.594" stroke="hsl(0.0,100%,35%)" stroke-width="0.00925"></path>
<path d="M0.989 0.486 Q0.579 0.376 0.274 0.552" stroke="hsl(0.0,100%,35%)" stroke-width="0.00514"></path>
<path d="M0.989 0.486 Q0.700 0.377 0.423 0.495" stroke="hsl(0.0,100%,35%)" stroke-width="0.00308"></path>
<path d="M0.989 0.486 Q0.644 0.291 0.187 0.417" stroke="hsl(0.0,100%,35%)" stroke-width="0.00719"></path>
<path d="M0.989 0.486 Q0.989 0.362 0.746 0.334" stroke="hsl(0.0,100%,35%)" stroke-width="0.00205"></path>
<path d="M0.989 0.486 Q0.718 0.392 0.474 0.503" stroke="hsl(0.0,100%,35%)" stroke-width="0.00308"></path>
<path d="M0.661 0.160 Q0.218 0.194 0.187 0.417" stroke="hsl(0.0,100%,35%)" stroke-width="0.00411"></path>
<path d="M0.661 0.160 Q0.303 0.373 0.640 0.594" stroke="hsl(0.0,100%,35%)" stroke-width="0.00514"></path>
<path d="M0.661 0.160 Q0.487 0.199 0.526 0.293" stroke="hsl(0.0,100%,35%)" stroke-width="0.00205"></path>
<path d="M0.069 0.767 Q0.407 0.616 0.187 0.417" stroke="hsl(0.0,100%,35%)" stroke-width="0.00822"></path>
<path d="M0.069 0.767 Q0.752 0.830 1.026 0.510" stroke="hsl(0.0,100%,35%)" stroke-width="0.00103"></path>
<path d="M0.069 0.767 Q0.343 0.701 0.274 0.552" stroke="hsl(0.0,100%,35%)" stroke-width="0.00205"></path>
<path d="M0.069 0.767 Q0.512 0.512 0.112 0.240" stroke="hsl(0.0,100%,35%)" stroke-width="0.00103"></path>
<path d="M0.069 0.767 Q0.925 1.134 1.830 0.796" stroke="hsl(0.0,100%,35%)" stroke-width="0.00103"></path>
<path d="M0.069 0.767 Q0.385 1.000 0.909 0.896" stroke="hsl(0.0,100%,35%)" stroke-width="0.00103"></path>
<path d="M0.069 0.767 Q0.492 0.795 0.640 0.594" stroke="hsl(0.0,100%,35%)" stroke-width="0.00103"></path>
<path d="M0.137 0.320 Q0.353 0.384 0.526 0.293" stroke="hsl(0.0,100%,35%)" stroke-width="0.00103"></path>
<path d="M0.137 0.320 Q0.527 0.344 0.661 0.160" stroke="hsl(0.0,100%,35%)" stroke-width="0.00103"></path>
<path d="M0.137 0.320 Q0.084 0.378 0.187 0.417" stroke="hsl(0.0,100%,35%)" stroke-width="0.00103"></path>
<path d="M0.694 0.726 Q1.206 0.988 1.830 0.796" stroke="hsl(0.0,100%,35%)" stroke-width="0.00103"></path>
<path d="M0.694 0.726 Q0.623 0.555 0.274 0.552" stroke="hsl(0.0,100%,35%)" stroke-width="0.00103"></path>
<path d="M0.694 0.726 Q0.741 0.411 0.137 0.320" stroke="hsl(0.0,100%,35%)" stroke-width="0.00103"></path>
<path d="M0.694 0.726 Q0.349 0.621 0.069 0.767" stroke="hsl(0.0,100%,35%)" stroke-width="0.00103"></path>
<path d="M0.694 0.726 Q0.688 0.470 0.187 0.417" stroke="hsl(0.0,100%,35%)" stroke-width="0.00103"></path>
<path d="M0.172 0.180 Q-0.011 0.302 0.187 0.417" stroke="hsl(0.0,100%,35%)" stroke-width="0.00205"></path>
<path d="M0.172 0.180 Q0.121 0.702 1.129 0.841" stroke="hsl(0.0,100%,35%)" stroke-width="0.00103"></path>
<path d="M0.172 0.180 Q0.258 0.307 0.526 0.293" stroke="hsl(0.0,100%,35%)" stroke-width="0.00205"></path>
<path d="M0.172 0.180 Q0.094 0.198 0.112 0.240" stroke="hsl(0.0,100%,35%)" stroke-width="0.00205"></path>
<path d="M0.172 0.180 Q0.074 0.481 0.640 0.594" stroke="hsl(0.0,100%,35%)" stroke-width="0.00103"></path>
<path d="M1.604 0.853 Q1.180 0.437 0.274 0.552" stroke="hsl(0.0,100%,35%)" stroke-width="0.00103"></path>
<path d="M1.604 0.853 Q0.906 0.503 0.069 0.767" stroke="hsl(0.0,100%,35%)" stroke-width="0.00103"></path>
<path d="M1.604 0.853 Q1.763 0.870 1.830 0.796" stroke="hsl(0.0,100%,35%)" stroke-width="0.00205"></path>
<path d="M1.604 0.853 Q1.330 0.531 0.640 0.594" stroke="hsl(0.0,100%,35%)" stroke-width="0.00103"></path>
<path d="M1.168 0.045 Q1.161 0.107 1.281 0.124" stroke="hsl(0.0,100%,35%)" stroke-width="0.00103"></path>
<path d="M1.168 0.045 Q0.725 0.105 0.746 0.334" stroke="hsl(0.0,100%,35%)" stroke-width="0.00103"></path>
<path d="M1.168 0.045 Q1.067 -0.007 0.943 0.031" stroke="hsl(0.0,100%,35%)" stroke-width="0.00103"></path>
<path d="M0.643 0.455 Q0.530 0.524 0.640 0.594" stroke="hsl(0.0,100%,35%)" stroke-width="0.01130"></path>
<path d="M0.643 0.455 Q0.445 0.345 0.187 0.417" stroke="hsl(0.0,100%,35%)" stroke-width="0.01130"></path>
<path d="M0.643 0.455 Q0.791 0.415 0.746 0.334" stroke="hsl(0.0,100%,35%)" stroke-width="0.00103"></path>
<path d="M0.643 0.455 Q0.549 0.241 0.112 0.240" stroke="hsl(0.0,100%,35%)" stroke-width="0.00103"></path>
<path d="M0.643 0.455 Q0.381 0.430 0.274 0.552" stroke="hsl(0.0,100%,35%)" stroke-width="0.00616"></path>
<path d="M0.643 0.455 Q0.753 0.622 1.104 0.605" stroke="hsl(0.0,100%,35%)" stroke-width="0.00103"></path>
<path d="M1.109 0.959 Q1.213 0.904 1.129 0.841" stroke="hsl(0.0,100%,35%)" stroke-width="0.00205"></path>
<path d="M1.109 0.959 Q1.251 1.007 1.377 0.948" stroke="hsl(0.0,100%,35%)" stroke-width="0.00103"></path>
<path d="M1.109 0.959 Q1.059 0.888 0.909 0.896" stroke="hsl(0.0,100%,35%)" stroke-width="0.00103"></path>
<path d="M0.063 0.617 Q0.630 0.612 0.746 0.334" stroke="hsl(180.0,100%,35%)" stroke-width="0.00103"></path>
<path d="M0.063 0.617 Q0.056 0.639 0.098 0.648" stroke="hsl(180.0,100%,35%)" stroke-width="0.00103"></path>
<path d="M0.063 0.617 Q0.370 0.721 0.640 0.594" stroke="hsl(180.0,100%,35%)" stroke-width="0.00103"></path>
<path d="M0.662 0.190 Q0.511 0.214 0.526 0.293" stroke="hsl(0.0,100%,35%)" stroke-width="0.00103"></path>
<path d="M0.662 0.190 Q0.327 0.388 0.640 0.594" stroke="hsl(0.0,100%,35%)" stroke-width="0.00103"></path>
<path d="M0.662 0.190 Q0.760 0.727 1.830 0.796" stroke="hsl(0.0,100%,35%)" stroke-width="0.00103"></path>
<path d="M0.662 0.190 Q0.243 0.208 0.187 0.417" stroke="hsl(0.0,100%,35%)" stroke-width="0.00205"></path>
</g>
<text x="1.586" y="0.182" font-size="0.010675" fill="hsl(0.0,100%,20%)">abarth</text>
<text x="1.679" y="0.305" font-size="0.005338" fill="hsl(0.0,100%,20%)">ddorwin</text>
<text x="1.026" y="0.504" font-size="0.013074" fill="hsl(0.0,100%,20%)">wez</text>
<text x="1.830" y="0.788" font-size="0.016013" fill="hsl(0.0,100%,20%)">tsepez</text>
<text x="1.698" y="0.066" font-size="0.005338" fill="hsl(0.0,100%,20%)">kmarshall</text>
<text x="0.774" y="0.954" font-size="0.009245" fill="hsl(180.0,100%,20%)">avi</text>
<text x="1.806" y="0.637" font-size="0.016013" fill="hsl(180.0,100%,20%)">mark</text>
<text x="1.568" y="0.625" font-size="0.009245" fill="hsl(180.0,100%,20%)">rsesek</text>
<text x="0.637" y="0.862" font-size="0.005338" fill="hsl(180.0,100%,20%)">asvitkine</text>
<text x="0.640" y="0.549" font-size="0.090109" fill="hsl(0.0,100%,20%)">bartekn</text>
<text x="0.746" y="0.326" font-size="0.016879" fill="hsl(0.0,100%,20%)">dcheng</text>
<text x="0.187" y="0.372" font-size="0.091209" fill="hsl(0.0,100%,20%)">haraken</text>
<text x="0.474" y="0.489" font-size="0.028744" fill="hsl(0.0,100%,20%)">yukishiino</text>
<text x="0.274" y="0.509" font-size="0.087706" fill="hsl(0.0,100%,20%)">lizeb</text>
<text x="0.526" y="0.262" font-size="0.062475" fill="hsl(0.0,100%,20%)">bikineev</text>
<text x="0.930" y="0.507" font-size="0.005338" fill="hsl(0.0,100%,20%)">primiano</text>
<text x="0.423" y="0.470" font-size="0.048334" fill="hsl(0.0,100%,20%)">tasak</text>
<text x="0.989" y="0.470" font-size="0.032467" fill="hsl(0.0,100%,20%)">keishi</text>
<text x="0.684" y="0.508" font-size="0.007549" fill="hsl(0.0,100%,20%)">sebmarchand</text>
<text x="0.908" y="0.516" font-size="0.007549" fill="hsl(0.0,100%,20%)">isherman</text>
<text x="0.112" y="0.229" font-size="0.020672" fill="hsl(0.0,100%,20%)">wfh</text>
<text x="1.104" y="0.600" font-size="0.010675" fill="hsl(0.0,100%,20%)">rockot</text>
<text x="0.661" y="0.140" font-size="0.038858" fill="hsl(0.0,100%,20%)">mlippautz</text>
<text x="0.458" y="0.179" font-size="0.007549" fill="hsl(0.0,100%,20%)">holte</text>
<text x="0.069" y="0.751" font-size="0.032026" fill="hsl(0.0,100%,20%)">palmer</text>
<text x="0.618" y="0.303" font-size="0.005338" fill="hsl(0.0,100%,20%)">erikchen</text>
<text x="0.494" y="0.784" font-size="0.007549" fill="hsl(0.0,100%,20%)">ajwong</text>
<text x="0.886" y="0.483" font-size="0.007549" fill="hsl(0.0,100%,20%)">rmcilroy</text>
<text x="0.137" y="0.313" font-size="0.013074" fill="hsl(0.0,100%,20%)">hpayer</text>
<text x="0.711" y="0.519" font-size="0.011935" fill="hsl(0.0,100%,20%)">ssid</text>
<text x="1.088" y="0.324" font-size="0.005338" fill="hsl(0.0,100%,20%)">tkent</text>
<text x="0.451" y="0.667" font-size="0.014122" fill="hsl(0.0,100%,20%)">pasko</text>
<text x="1.281" y="0.120" font-size="0.007549" fill="hsl(0.0,100%,20%)">gab</text>
<text x="0.694" y="0.719" font-size="0.013074" fill="hsl(0.0,100%,20%)">ulan</text>
<text x="0.172" y="0.172" font-size="0.016013" fill="hsl(0.0,100%,20%)">brucedawson</text>
<text x="1.129" y="0.835" font-size="0.011935" fill="hsl(180.0,100%,20%)">thakis</text>
<text x="1.604" y="0.847" font-size="0.011935" fill="hsl(0.0,100%,20%)">ellyjones</text>
<text x="1.168" y="0.040" font-size="0.009245" fill="hsl(0.0,100%,20%)">eseckler</text>
<text x="0.943" y="0.028" font-size="0.005338" fill="hsl(0.0,100%,20%)">skyostil</text>
<text x="0.643" y="0.440" font-size="0.029719" fill="hsl(0.0,100%,20%)">glazunov</text>
<text x="1.109" y="0.954" font-size="0.010675" fill="hsl(0.0,100%,20%)">hans</text>
<text x="1.377" y="0.946" font-size="0.005338" fill="hsl(0.0,100%,20%)">kylechar</text>
<text x="0.909" y="0.893" font-size="0.007549" fill="hsl(0.0,100%,20%)">mpdenton</text>
<text x="0.063" y="0.612" font-size="0.009245" fill="hsl(180.0,100%,20%)">jannh</text>
<text x="0.098" y="0.644" font-size="0.007549" fill="hsl(180.0,100%,20%)">danakj</text>
<text x="0.340" y="0.697" font-size="0.007549" fill="hsl(0.0,100%,20%)">arthursonzogni</text>
<text x="0.537" y="0.602" font-size="0.005338" fill="hsl(0.0,100%,20%)">agrieve</text>
<text x="0.836" y="0.664" font-size="0.005338" fill="hsl(0.0,100%,20%)">hendrich</text>
<text x="0.377" y="0.744" font-size="0.005338" fill="hsl(0.0,100%,20%)">grt</text>
<text x="0.726" y="0.608" font-size="0.005338" fill="hsl(0.0,100%,20%)">jwd</text>
<text x="0.471" y="0.689" font-size="0.005338" fill="hsl(0.0,100%,20%)">alexilin</text>
<text x="0.662" y="0.184" font-size="0.011935" fill="hsl(0.0,100%,20%)">ptworek</text>
</svg>
