<svg width="4000" height="2000" viewBox="-0.025 -0.025 2.05 1.05" xmlns="http://www.w3.org/2000/svg">
  <style>
    path {
      fill: none;
      stroke-linecap: round;
      stroke-opacity: 0.4;
    }

    text {
      text-anchor: middle;
      alignment-baseline: hanging;
    }
  </style>
  <g opacity="0.4">
<path d="M1.097 0.103 Q1.227 0.183 1.412 0.137" stroke="hsl(0.0,100%,35%)" stroke-width="0.00430"></path>
<path d="M1.097 0.103 Q1.062 0.190 1.224 0.225" stroke="hsl(0.0,100%,35%)" stroke-width="0.00430"></path>
<path d="M1.097 0.103 Q1.293 0.286 1.692 0.231" stroke="hsl(0.0,100%,35%)" stroke-width="0.00430"></path>
<path d="M1.412 0.137 Q0.514 0.166 0.372 0.610" stroke="hsl(0.0,100%,35%)" stroke-width="0.00430"></path>
<path d="M1.412 0.137 Q0.549 0.277 0.631 0.729" stroke="hsl(0.0,100%,35%)" stroke-width="0.00430"></path>
<path d="M1.412 0.137 Q1.478 0.240 1.692 0.231" stroke="hsl(0.0,100%,35%)" stroke-width="0.02151"></path>
<path d="M1.412 0.137 Q1.247 0.144 1.224 0.225" stroke="hsl(0.0,100%,35%)" stroke-width="0.00430"></path>
<path d="M1.692 0.231 Q1.462 0.134 1.224 0.225" stroke="hsl(0.0,100%,35%)" stroke-width="0.01291"></path>
<path d="M1.692 0.231 Q0.971 0.076 0.511 0.394" stroke="hsl(0.0,100%,35%)" stroke-width="0.00430"></path>
<path d="M1.692 0.231 Q1.051 0.197 0.844 0.502" stroke="hsl(0.0,100%,35%)" stroke-width="0.00430"></path>
<path d="M1.692 0.231 Q1.355 0.352 1.518 0.543" stroke="hsl(0.0,100%,35%)" stroke-width="0.00430"></path>
<path d="M1.692 0.231 Q1.731 0.301 1.876 0.297" stroke="hsl(0.0,100%,35%)" stroke-width="0.00860"></path>
<path d="M1.692 0.231 Q1.601 0.152 1.427 0.179" stroke="hsl(0.0,100%,35%)" stroke-width="0.00430"></path>
<path d="M1.692 0.231 Q0.670 0.052 0.096 0.511" stroke="hsl(0.0,100%,35%)" stroke-width="0.00430"></path>
<path d="M1.662 0.794 Q1.782 0.739 1.701 0.669" stroke="hsl(0.0,100%,35%)" stroke-width="0.00430"></path>
<path d="M1.662 0.794 Q1.791 0.640 1.518 0.543" stroke="hsl(0.0,100%,35%)" stroke-width="0.00430"></path>
<path d="M1.662 0.794 Q1.565 0.829 1.613 0.884" stroke="hsl(0.0,100%,35%)" stroke-width="0.00430"></path>
<path d="M1.303 0.862 Q1.361 0.590 0.844 0.502" stroke="hsl(180.0,100%,35%)" stroke-width="0.02151"></path>
<path d="M1.303 0.862 Q1.078 0.871 1.046 0.983" stroke="hsl(180.0,100%,35%)" stroke-width="0.00860"></path>
<path d="M1.303 0.862 Q1.074 0.661 0.631 0.729" stroke="hsl(180.0,100%,35%)" stroke-width="0.00860"></path>
<path d="M1.303 0.862 Q1.760 0.653 1.453 0.384" stroke="hsl(180.0,100%,35%)" stroke-width="0.00430"></path>
<path d="M0.844 0.502 Q0.560 0.783 1.046 0.983" stroke="hsl(180.0,100%,35%)" stroke-width="0.00430"></path>
<path d="M0.844 0.502 Q0.521 0.462 0.372 0.610" stroke="hsl(180.0,100%,35%)" stroke-width="0.01291"></path>
<path d="M0.844 0.502 Q0.764 0.382 0.511 0.394" stroke="hsl(180.0,100%,35%)" stroke-width="0.03012"></path>
<path d="M0.844 0.502 Q0.491 0.633 0.669 0.835" stroke="hsl(180.0,100%,35%)" stroke-width="0.00860"></path>
<path d="M0.844 0.502 Q0.989 0.405 0.832 0.313" stroke="hsl(180.0,100%,35%)" stroke-width="0.00860"></path>
<path d="M0.844 0.502 Q0.556 0.573 0.631 0.729" stroke="hsl(180.0,100%,35%)" stroke-width="0.00860"></path>
<path d="M0.844 0.502 Q0.939 0.562 1.075 0.529" stroke="hsl(180.0,100%,35%)" stroke-width="0.01721"></path>
<path d="M0.844 0.502 Q1.026 0.332 0.733 0.205" stroke="hsl(180.0,100%,35%)" stroke-width="0.00430"></path>
<path d="M0.844 0.502 Q1.255 0.440 1.224 0.225" stroke="hsl(180.0,100%,35%)" stroke-width="0.01291"></path>
<path d="M0.844 0.502 Q0.350 0.447 0.133 0.675" stroke="hsl(180.0,100%,35%)" stroke-width="0.04302"></path>
<path d="M0.844 0.502 Q0.664 0.431 0.485 0.503" stroke="hsl(180.0,100%,35%)" stroke-width="0.00430"></path>
<path d="M0.844 0.502 Q0.775 0.528 0.810 0.567" stroke="hsl(180.0,100%,35%)" stroke-width="0.00430"></path>
<path d="M0.844 0.502 Q1.126 0.342 0.876 0.170" stroke="hsl(180.0,100%,35%)" stroke-width="0.00430"></path>
<path d="M0.844 0.502 Q0.697 0.460 0.582 0.523" stroke="hsl(180.0,100%,35%)" stroke-width="0.00430"></path>
<path d="M0.844 0.502 Q1.148 0.658 1.518 0.543" stroke="hsl(180.0,100%,35%)" stroke-width="0.00430"></path>
<path d="M0.844 0.502 Q0.951 0.579 1.123 0.543" stroke="hsl(180.0,100%,35%)" stroke-width="0.00430"></path>
<path d="M0.844 0.502 Q0.624 0.353 0.284 0.428" stroke="hsl(180.0,100%,35%)" stroke-width="0.00430"></path>
<path d="M0.844 0.502 Q1.485 0.536 1.692 0.231" stroke="hsl(180.0,100%,35%)" stroke-width="0.00860"></path>
<path d="M0.631 0.729 Q0.565 0.789 0.669 0.835" stroke="hsl(180.0,100%,35%)" stroke-width="0.05163"></path>
<path d="M0.631 0.729 Q0.919 0.658 0.844 0.502" stroke="hsl(180.0,100%,35%)" stroke-width="0.05163"></path>
<path d="M0.631 0.729 Q1.560 0.692 1.692 0.231" stroke="hsl(180.0,100%,35%)" stroke-width="0.00430"></path>
<path d="M0.631 0.729 Q0.425 0.602 0.133 0.675" stroke="hsl(180.0,100%,35%)" stroke-width="0.00430"></path>
<path d="M0.133 0.675 Q1.203 0.662 1.412 0.137" stroke="hsl(180.0,100%,35%)" stroke-width="0.00430"></path>
<path d="M0.133 0.675 Q1.268 0.765 1.692 0.231" stroke="hsl(180.0,100%,35%)" stroke-width="0.00430"></path>
<path d="M0.133 0.675 Q0.304 0.691 0.372 0.610" stroke="hsl(180.0,100%,35%)" stroke-width="0.05163"></path>
<path d="M0.133 0.675 Q0.627 0.731 0.844 0.502" stroke="hsl(180.0,100%,35%)" stroke-width="0.02151"></path>
<path d="M0.133 0.675 Q0.246 0.586 0.096 0.511" stroke="hsl(180.0,100%,35%)" stroke-width="0.00860"></path>
<path d="M0.133 0.675 Q0.294 0.742 0.460 0.678" stroke="hsl(180.0,100%,35%)" stroke-width="0.00430"></path>
<path d="M0.133 0.675 Q0.343 1.012 1.046 0.983" stroke="hsl(180.0,100%,35%)" stroke-width="0.00430"></path>
<path d="M0.133 0.675 Q0.021 0.792 0.223 0.872" stroke="hsl(180.0,100%,35%)" stroke-width="0.00430"></path>
<path d="M0.096 0.511 Q0.189 0.727 0.631 0.729" stroke="hsl(180.0,100%,35%)" stroke-width="0.00860"></path>
<path d="M0.096 0.511 Q0.257 0.507 0.284 0.428" stroke="hsl(180.0,100%,35%)" stroke-width="0.00430"></path>
<path d="M0.096 0.511 Q0.477 0.656 0.844 0.502" stroke="hsl(180.0,100%,35%)" stroke-width="0.00430"></path>
<path d="M0.096 0.511 Q1.119 0.690 1.692 0.231" stroke="hsl(180.0,100%,35%)" stroke-width="0.00430"></path>
<path d="M1.022 0.679 Q1.210 0.716 1.323 0.632" stroke="hsl(180.0,100%,35%)" stroke-width="0.00430"></path>
<path d="M1.022 0.679 Q0.694 0.410 0.096 0.511" stroke="hsl(180.0,100%,35%)" stroke-width="0.00430"></path>
<path d="M1.022 0.679 Q1.099 0.750 1.253 0.728" stroke="hsl(180.0,100%,35%)" stroke-width="0.00430"></path>
<path d="M0.360 0.854 Q0.523 0.995 0.833 0.946" stroke="hsl(180.0,100%,35%)" stroke-width="0.00430"></path>
<path d="M0.360 0.854 Q0.435 0.946 0.632 0.930" stroke="hsl(180.0,100%,35%)" stroke-width="0.00430"></path>
<path d="M0.360 0.854 Q0.502 0.630 0.096 0.511" stroke="hsl(180.0,100%,35%)" stroke-width="0.00430"></path>
<path d="M1.776 0.424 Q1.552 0.432 1.518 0.543" stroke="hsl(0.0,100%,35%)" stroke-width="0.00430"></path>
<path d="M1.776 0.424 Q1.646 0.340 1.453 0.384" stroke="hsl(0.0,100%,35%)" stroke-width="0.00430"></path>
<path d="M1.776 0.424 Q0.925 0.236 0.372 0.610" stroke="hsl(0.0,100%,35%)" stroke-width="0.00430"></path>
<path d="M1.776 0.424 Q1.889 0.311 1.692 0.231" stroke="hsl(0.0,100%,35%)" stroke-width="0.00430"></path>
<path d="M0.293 0.114 Q0.433 0.728 1.662 0.794" stroke="hsl(0.0,100%,35%)" stroke-width="0.00430"></path>
<path d="M0.293 0.114 Q0.258 0.418 0.844 0.502" stroke="hsl(0.0,100%,35%)" stroke-width="0.00430"></path>
<path d="M0.293 0.114 Q0.100 0.150 0.128 0.252" stroke="hsl(0.0,100%,35%)" stroke-width="0.00430"></path>
<path d="M0.293 0.114 Q0.403 0.321 0.832 0.313" stroke="hsl(0.0,100%,35%)" stroke-width="0.00430"></path>
</g>
<text x="1.097" y="0.093" font-size="0.020203" fill="hsl(0.0,100%,20%)">adarom</text>
<text x="1.412" y="0.119" font-size="0.036886" fill="hsl(0.0,100%,20%)">kdlee</text>
<text x="1.224" y="0.209" font-size="0.032991" fill="hsl(0.0,100%,20%)">yukishiino</text>
<text x="1.692" y="0.203" font-size="0.054710" fill="hsl(0.0,100%,20%)">tasak</text>
<text x="1.662" y="0.782" font-size="0.023328" fill="hsl(0.0,100%,20%)">agrieve</text>
<text x="1.701" y="0.663" font-size="0.011664" fill="hsl(0.0,100%,20%)">richard.townsend</text>
<text x="1.518" y="0.531" font-size="0.023328" fill="hsl(0.0,100%,20%)">lizeb</text>
<text x="1.613" y="0.878" font-size="0.011664" fill="hsl(0.0,100%,20%)">wnwen</text>
<text x="1.303" y="0.844" font-size="0.036886" fill="hsl(180.0,100%,20%)">ahijazi</text>
<text x="0.844" y="0.454" font-size="0.096890" fill="hsl(180.0,100%,20%)">bartekn</text>
<text x="1.046" y="0.972" font-size="0.023328" fill="hsl(180.0,100%,20%)">haraken</text>
<text x="0.631" y="0.695" font-size="0.067006" fill="hsl(180.0,100%,20%)">arthursonzogni</text>
<text x="1.453" y="0.376" font-size="0.016496" fill="hsl(0.0,100%,20%)">nuskos</text>
<text x="0.669" y="0.813" font-size="0.043644" fill="hsl(180.0,100%,20%)">danakj</text>
<text x="0.133" y="0.641" font-size="0.069007" fill="hsl(180.0,100%,20%)">mikt</text>
<text x="0.372" y="0.586" font-size="0.048093" fill="hsl(180.0,100%,20%)">keishi</text>
<text x="0.511" y="0.378" font-size="0.032991" fill="hsl(180.0,100%,20%)">tsepez</text>
<text x="0.832" y="0.303" font-size="0.020203" fill="hsl(0.0,100%,20%)">lukasza</text>
<text x="1.075" y="0.517" font-size="0.023328" fill="hsl(180.0,100%,20%)">glazunov</text>
<text x="0.733" y="0.199" font-size="0.011664" fill="hsl(180.0,100%,20%)">brucedawson</text>
<text x="0.485" y="0.497" font-size="0.011664" fill="hsl(180.0,100%,20%)">blundell</text>
<text x="0.810" y="0.562" font-size="0.011664" fill="hsl(180.0,100%,20%)">mark</text>
<text x="0.876" y="0.164" font-size="0.011664" fill="hsl(180.0,100%,20%)">andre.kempe</text>
<text x="0.582" y="0.517" font-size="0.011664" fill="hsl(180.0,100%,20%)">ssid</text>
<text x="1.123" y="0.537" font-size="0.011664" fill="hsl(180.0,100%,20%)">thestig</text>
<text x="0.284" y="0.419" font-size="0.016496" fill="hsl(180.0,100%,20%)">mlippautz</text>
<text x="0.096" y="0.493" font-size="0.036886" fill="hsl(180.0,100%,20%)">dcheng</text>
<text x="1.022" y="0.669" font-size="0.020203" fill="hsl(180.0,100%,20%)">jbroman</text>
<text x="1.323" y="0.626" font-size="0.011664" fill="hsl(180.0,100%,20%)">sky</text>
<text x="1.253" y="0.722" font-size="0.011664" fill="hsl(180.0,100%,20%)">pkasting</text>
<text x="0.360" y="0.844" font-size="0.020203" fill="hsl(180.0,100%,20%)">jeffyoon</text>
<text x="0.833" y="0.940" font-size="0.011664" fill="hsl(180.0,100%,20%)">davidbienvenu</text>
<text x="0.632" y="0.924" font-size="0.011664" fill="hsl(180.0,100%,20%)">skyostil</text>
<text x="0.460" y="0.672" font-size="0.011664" fill="hsl(180.0,100%,20%)">liviutinta</text>
<text x="0.223" y="0.866" font-size="0.011664" fill="hsl(180.0,100%,20%)">paulsemel</text>
<text x="1.776" y="0.412" font-size="0.023328" fill="hsl(0.0,100%,20%)">stha09</text>
<text x="1.876" y="0.289" font-size="0.016496" fill="hsl(0.0,100%,20%)">wfh</text>
<text x="1.427" y="0.173" font-size="0.011664" fill="hsl(0.0,100%,20%)">erikchen</text>
<text x="0.293" y="0.102" font-size="0.023328" fill="hsl(0.0,100%,20%)">thakis</text>
<text x="0.128" y="0.246" font-size="0.011664" fill="hsl(0.0,100%,20%)">hans</text>
</svg>
