<svg width="4000" height="2000" viewBox="-0.025 -0.025 2.05 1.05" xmlns="http://www.w3.org/2000/svg">
  <style>
    path {
      fill: none;
      stroke-linecap: round;
      stroke-opacity: 0.4;
    }

    text {
      text-anchor: middle;
      alignment-baseline: hanging;
    }
  </style>
  <g opacity="0.4">
<path d="M0.615 0.279 Q0.669 0.471 1.056 0.486" stroke="hsl(0.0,100%,35%)" stroke-width="0.00577"></path>
<path d="M0.615 0.279 Q0.842 0.605 1.528 0.566" stroke="hsl(0.0,100%,35%)" stroke-width="0.00115"></path>
<path d="M0.615 0.279 Q0.861 0.268 0.894 0.146" stroke="hsl(0.0,100%,35%)" stroke-width="0.00029"></path>
<path d="M1.056 0.486 Q1.229 0.621 1.528 0.566" stroke="hsl(0.0,100%,35%)" stroke-width="0.16496"></path>
<path d="M1.056 0.486 Q0.901 0.572 1.033 0.666" stroke="hsl(0.0,100%,35%)" stroke-width="0.01817"></path>
<path d="M1.056 0.486 Q0.944 0.698 1.331 0.799" stroke="hsl(0.0,100%,35%)" stroke-width="0.00461"></path>
<path d="M1.056 0.486 Q0.857 0.477 0.794 0.572" stroke="hsl(0.0,100%,35%)" stroke-width="0.00202"></path>
<path d="M1.056 0.486 Q0.766 0.402 0.536 0.525" stroke="hsl(0.0,100%,35%)" stroke-width="0.00721"></path>
<path d="M1.056 0.486 Q1.527 0.558 1.769 0.344" stroke="hsl(0.0,100%,35%)" stroke-width="0.01384"></path>
<path d="M1.056 0.486 Q1.266 0.443 1.227 0.331" stroke="hsl(0.0,100%,35%)" stroke-width="0.00029"></path>
<path d="M1.056 0.486 Q0.306 0.540 0.246 0.918" stroke="hsl(0.0,100%,35%)" stroke-width="0.00029"></path>
<path d="M1.056 0.486 Q1.247 0.284 0.894 0.146" stroke="hsl(0.0,100%,35%)" stroke-width="0.00058"></path>
<path d="M1.056 0.486 Q0.760 0.539 0.798 0.695" stroke="hsl(0.0,100%,35%)" stroke-width="0.00029"></path>
<path d="M1.056 0.486 Q1.299 0.363 1.111 0.217" stroke="hsl(0.0,100%,35%)" stroke-width="0.00087"></path>
<path d="M1.056 0.486 Q1.120 0.273 0.719 0.195" stroke="hsl(0.0,100%,35%)" stroke-width="0.00202"></path>
<path d="M1.056 0.486 Q1.063 0.616 1.317 0.641" stroke="hsl(0.0,100%,35%)" stroke-width="0.00058"></path>
<path d="M1.528 0.566 Q1.356 0.432 1.056 0.486" stroke="hsl(0.0,100%,35%)" stroke-width="0.16351"></path>
<path d="M1.528 0.566 Q1.826 0.503 1.769 0.344" stroke="hsl(0.0,100%,35%)" stroke-width="0.00029"></path>
<path d="M1.528 0.566 Q1.201 0.517 1.033 0.666" stroke="hsl(0.0,100%,35%)" stroke-width="0.00058"></path>
</g>
<text x="0.615" y="0.269" font-size="0.019295" fill="hsl(0.0,100%,20%)">dhoss</text>
<text x="1.056" y="0.416" font-size="0.141000" fill="hsl(0.0,100%,20%)">thestig</text>
<text x="1.528" y="0.500" font-size="0.130638" fill="hsl(0.0,100%,20%)">tsepez</text>
<text x="0.894" y="0.143" font-size="0.006684" fill="hsl(0.0,100%,20%)">thomasanderson</text>
<text x="1.033" y="0.650" font-size="0.031112" fill="hsl(0.0,100%,20%)">hnakashima</text>
<text x="1.331" y="0.791" font-size="0.015436" fill="hsl(0.0,100%,20%)">reed</text>
<text x="0.794" y="0.567" font-size="0.010210" fill="hsl(0.0,100%,20%)">palmer</text>
<text x="0.536" y="0.515" font-size="0.019295" fill="hsl(0.0,100%,20%)">npm</text>
<text x="1.769" y="0.330" font-size="0.027013" fill="hsl(0.0,100%,20%)">dsinclair</text>
<text x="1.227" y="0.329" font-size="0.003859" fill="hsl(0.0,100%,20%)">bungeman</text>
<text x="0.246" y="0.916" font-size="0.003859" fill="hsl(0.0,100%,20%)">halcanary</text>
<text x="0.798" y="0.693" font-size="0.003859" fill="hsl(0.0,100%,20%)">jbudorick</text>
<text x="1.111" y="0.214" font-size="0.006684" fill="hsl(0.0,100%,20%)">thakis</text>
<text x="0.719" y="0.190" font-size="0.010210" fill="hsl(0.0,100%,20%)">weili</text>
<text x="1.317" y="0.639" font-size="0.005457" fill="hsl(0.0,100%,20%)">brucedawson</text>
</svg>
