<svg width="4000" height="2000" viewBox="-0.025 -0.025 2.05 1.05" xmlns="http://www.w3.org/2000/svg">
  <style>
    path {
      fill: none;
      stroke-linecap: round;
      stroke-opacity: 0.4;
    }

    text {
      text-anchor: middle;
      alignment-baseline: hanging;
    }
  </style>
  <g opacity="0.4">
<path d="M1.171 0.507 Q0.595 0.699 0.844 1.023" stroke="hsl(0.0,100%,35%)" stroke-width="0.01816"></path>
<path d="M1.171 0.507 Q0.977 0.750 1.409 0.898" stroke="hsl(0.0,100%,35%)" stroke-width="0.00086"></path>
<path d="M1.171 0.507 Q0.830 0.586 0.909 0.770" stroke="hsl(0.0,100%,35%)" stroke-width="0.00086"></path>
<path d="M0.844 1.023 Q1.226 1.073 1.409 0.898" stroke="hsl(0.0,100%,35%)" stroke-width="0.12282"></path>
<path d="M0.844 1.023 Q0.828 0.928 0.639 0.915" stroke="hsl(0.0,100%,35%)" stroke-width="0.01989"></path>
<path d="M0.844 1.023 Q1.078 0.909 0.909 0.770" stroke="hsl(0.0,100%,35%)" stroke-width="0.07958"></path>
<path d="M0.844 1.023 Q1.182 0.953 1.120 0.773" stroke="hsl(0.0,100%,35%)" stroke-width="0.00086"></path>
<path d="M0.844 1.023 Q0.764 0.845 0.400 0.845" stroke="hsl(0.0,100%,35%)" stroke-width="0.00086"></path>
<path d="M1.409 0.898 Q1.027 0.848 0.844 1.023" stroke="hsl(0.0,100%,35%)" stroke-width="0.03719"></path>
<path d="M1.409 0.898 Q1.408 0.640 0.904 0.584" stroke="hsl(0.0,100%,35%)" stroke-width="0.00086"></path>
<path d="M1.409 0.898 Q1.261 0.734 0.909 0.770" stroke="hsl(0.0,100%,35%)" stroke-width="0.00086"></path>
</g>
<text x="1.171" y="0.488" font-size="0.037506" fill="hsl(0.0,100%,20%)">awscreen</text>
<text x="0.844" y="0.952" font-size="0.140554" fill="hsl(0.0,100%,20%)">thestig</text>
<text x="1.409" y="0.845" font-size="0.107231" fill="hsl(0.0,100%,20%)">tsepez</text>
<text x="0.909" y="0.732" font-size="0.075824" fill="hsl(0.0,100%,20%)">nigi</text>
<text x="0.639" y="0.896" font-size="0.037506" fill="hsl(0.0,100%,20%)">drott</text>
<text x="1.120" y="0.769" font-size="0.007821" fill="hsl(0.0,100%,20%)">bungeman</text>
<text x="0.400" y="0.841" font-size="0.007821" fill="hsl(0.0,100%,20%)">kmoon</text>
<text x="0.904" y="0.580" font-size="0.007821" fill="hsl(0.0,100%,20%)">thakis</text>
</svg>
