<svg width="4000" height="2000" viewBox="-0.025 -0.025 2.05 1.05" xmlns="http://www.w3.org/2000/svg">
  <style>
    path {
      fill: none;
      stroke-linecap: round;
      stroke-opacity: 0.4;
    }

    text {
      text-anchor: middle;
      alignment-baseline: hanging;
    }
  </style>
  <g opacity="0.4">
<path d="M0.240 0.665 Q0.341 0.782 0.591 0.759" stroke="hsl(0.0,100%,35%)" stroke-width="0.00438"></path>
<path d="M0.240 0.665 Q0.633 0.560 0.515 0.346" stroke="hsl(0.0,100%,35%)" stroke-width="0.00067"></path>
<path d="M0.240 0.665 Q0.461 0.621 0.424 0.503" stroke="hsl(0.0,100%,35%)" stroke-width="0.00236"></path>
<path d="M0.591 0.759 Q1.002 0.412 0.417 0.136" stroke="hsl(0.0,100%,35%)" stroke-width="0.00067"></path>
<path d="M0.591 0.759 Q0.712 0.598 0.424 0.503" stroke="hsl(0.0,100%,35%)" stroke-width="0.00573"></path>
<path d="M0.591 0.759 Q1.043 0.757 1.138 0.535" stroke="hsl(0.0,100%,35%)" stroke-width="0.00034"></path>
<path d="M0.591 0.759 Q0.884 0.537 0.515 0.346" stroke="hsl(0.0,100%,35%)" stroke-width="0.04013"></path>
<path d="M0.591 0.759 Q0.459 0.805 0.520 0.880" stroke="hsl(0.0,100%,35%)" stroke-width="0.00034"></path>
<path d="M0.515 0.346 Q0.634 0.221 0.417 0.136" stroke="hsl(0.0,100%,35%)" stroke-width="0.12310"></path>
<path d="M0.515 0.346 Q0.222 0.567 0.591 0.759" stroke="hsl(0.0,100%,35%)" stroke-width="0.01653"></path>
<path d="M0.515 0.346 Q0.343 0.406 0.424 0.503" stroke="hsl(0.0,100%,35%)" stroke-width="0.02530"></path>
<path d="M0.515 0.346 Q0.685 0.282 0.598 0.185" stroke="hsl(0.0,100%,35%)" stroke-width="0.00135"></path>
<path d="M0.515 0.346 Q0.251 0.341 0.184 0.469" stroke="hsl(0.0,100%,35%)" stroke-width="0.00169"></path>
<path d="M0.515 0.346 Q0.480 0.525 0.823 0.582" stroke="hsl(0.0,100%,35%)" stroke-width="0.00034"></path>
<path d="M0.515 0.346 Q0.143 0.416 0.198 0.613" stroke="hsl(0.0,100%,35%)" stroke-width="0.00034"></path>
<path d="M0.515 0.346 Q0.571 0.470 0.826 0.469" stroke="hsl(0.0,100%,35%)" stroke-width="0.00067"></path>
<path d="M0.515 0.346 Q0.480 0.234 0.254 0.226" stroke="hsl(0.0,100%,35%)" stroke-width="0.00034"></path>
<path d="M0.515 0.346 Q0.307 0.282 0.138 0.370" stroke="hsl(0.0,100%,35%)" stroke-width="0.00067"></path>
<path d="M0.515 0.346 Q0.675 0.565 1.138 0.535" stroke="hsl(0.0,100%,35%)" stroke-width="0.00135"></path>
<path d="M0.515 0.346 Q0.090 0.614 0.520 0.880" stroke="hsl(0.0,100%,35%)" stroke-width="0.00034"></path>
<path d="M0.424 0.503 Q0.303 0.665 0.591 0.759" stroke="hsl(0.0,100%,35%)" stroke-width="0.00067"></path>
<path d="M0.424 0.503 Q0.714 0.318 0.417 0.136" stroke="hsl(0.0,100%,35%)" stroke-width="0.00101"></path>
<path d="M0.424 0.503 Q0.596 0.443 0.515 0.346" stroke="hsl(0.0,100%,35%)" stroke-width="0.01012"></path>
<path d="M0.417 0.136 Q0.126 0.321 0.424 0.503" stroke="hsl(0.0,100%,35%)" stroke-width="0.01956"></path>
<path d="M0.417 0.136 Q0.005 0.482 0.591 0.759" stroke="hsl(0.0,100%,35%)" stroke-width="0.00607"></path>
<path d="M0.417 0.136 Q0.298 0.260 0.515 0.346" stroke="hsl(0.0,100%,35%)" stroke-width="0.11535"></path>
<path d="M1.138 0.535 Q0.978 0.316 0.515 0.346" stroke="hsl(0.0,100%,35%)" stroke-width="0.00067"></path>
<path d="M1.138 0.535 Q1.097 0.191 0.417 0.136" stroke="hsl(0.0,100%,35%)" stroke-width="0.00034"></path>
<path d="M0.894 0.576 Q0.596 0.607 0.591 0.759" stroke="hsl(0.0,100%,35%)" stroke-width="0.00135"></path>
<path d="M0.894 0.576 Q0.717 0.446 0.424 0.503" stroke="hsl(0.0,100%,35%)" stroke-width="0.00135"></path>
<path d="M0.894 0.576 Q1.008 0.260 0.417 0.136" stroke="hsl(0.0,100%,35%)" stroke-width="0.00034"></path>
<path d="M0.894 0.576 Q0.889 0.385 0.515 0.346" stroke="hsl(0.0,100%,35%)" stroke-width="0.00911"></path>
<path d="M1.063 0.391 Q0.653 0.319 0.424 0.503" stroke="hsl(0.0,100%,35%)" stroke-width="0.00034"></path>
<path d="M1.063 0.391 Q0.944 0.134 0.417 0.136" stroke="hsl(0.0,100%,35%)" stroke-width="0.00438"></path>
<path d="M1.063 0.391 Q0.825 0.258 0.515 0.346" stroke="hsl(0.0,100%,35%)" stroke-width="0.00270"></path>
</g>
<text x="0.240" y="0.656" font-size="0.019261" fill="hsl(0.0,100%,20%)">awscreen</text>
<text x="0.591" y="0.728" font-size="0.061734" fill="hsl(0.0,100%,20%)">nigi</text>
<text x="0.515" y="0.279" font-size="0.132431" fill="hsl(0.0,100%,20%)">thestig</text>
<text x="0.424" y="0.475" font-size="0.057638" fill="hsl(0.0,100%,20%)">dhoss</text>
<text x="0.417" y="0.077" font-size="0.116367" fill="hsl(0.0,100%,20%)">tsepez</text>
<text x="1.138" y="0.530" font-size="0.011615" fill="hsl(0.0,100%,20%)">dsinclair</text>
<text x="0.894" y="0.564" font-size="0.024639" fill="hsl(0.0,100%,20%)">kmoon</text>
<text x="0.520" y="0.877" font-size="0.005807" fill="hsl(0.0,100%,20%)">reed</text>
<text x="0.598" y="0.181" font-size="0.008213" fill="hsl(0.0,100%,20%)">bungeman</text>
<text x="0.184" y="0.464" font-size="0.009182" fill="hsl(0.0,100%,20%)">thakis</text>
<text x="0.823" y="0.580" font-size="0.004107" fill="hsl(0.0,100%,20%)">brucedawson</text>
<text x="0.198" y="0.611" font-size="0.004107" fill="hsl(0.0,100%,20%)">drott</text>
<text x="0.826" y="0.466" font-size="0.005807" fill="hsl(0.0,100%,20%)">rbpotter</text>
<text x="0.254" y="0.224" font-size="0.004107" fill="hsl(0.0,100%,20%)">rharrison</text>
<text x="0.138" y="0.367" font-size="0.005807" fill="hsl(0.0,100%,20%)">hnakashima</text>
<text x="1.063" y="0.381" font-size="0.019261" fill="hsl(0.0,100%,20%)">vmiklos</text>
</svg>
