<svg width="4000" height="2000" viewBox="-0.025 -0.025 2.05 1.05" xmlns="http://www.w3.org/2000/svg">
  <style>
    path {
      fill: none;
      stroke-linecap: round;
      stroke-opacity: 0.4;
    }

    text {
      text-anchor: middle;
      alignment-baseline: hanging;
    }
  </style>
  <g opacity="0.4">
<path d="M0.179 0.387 Q0.362 0.553 0.726 0.500" stroke="hsl(0.0,100%,35%)" stroke-width="0.00443"></path>
<path d="M0.179 0.387 Q0.195 0.890 1.181 0.993" stroke="hsl(0.0,100%,35%)" stroke-width="0.00068"></path>
<path d="M0.179 0.387 Q-0.126 0.639 0.300 0.844" stroke="hsl(0.0,100%,35%)" stroke-width="0.00238"></path>
<path d="M0.726 0.500 Q0.662 0.772 1.178 0.862" stroke="hsl(0.0,100%,35%)" stroke-width="0.00068"></path>
<path d="M0.726 0.500 Q0.238 0.587 0.300 0.844" stroke="hsl(0.0,100%,35%)" stroke-width="0.00579"></path>
<path d="M0.726 0.500 Q0.976 0.913 1.837 0.881" stroke="hsl(0.0,100%,35%)" stroke-width="0.00034"></path>
<path d="M0.726 0.500 Q0.559 0.838 1.181 0.993" stroke="hsl(0.0,100%,35%)" stroke-width="0.03881"></path>
<path d="M0.726 0.500 Q0.933 0.507 0.993 0.408" stroke="hsl(0.0,100%,35%)" stroke-width="0.00034"></path>
<path d="M1.181 0.993 Q1.284 0.927 1.178 0.862" stroke="hsl(0.0,100%,35%)" stroke-width="0.12255"></path>
<path d="M1.181 0.993 Q1.348 0.655 0.726 0.500" stroke="hsl(0.0,100%,35%)" stroke-width="0.01668"></path>
<path d="M1.181 0.993 Q0.860 0.742 0.300 0.844" stroke="hsl(0.0,100%,35%)" stroke-width="0.02553"></path>
<path d="M1.181 0.993 Q1.361 1.050 1.512 0.975" stroke="hsl(0.0,100%,35%)" stroke-width="0.00136"></path>
<path d="M1.181 0.993 Q1.094 0.860 0.817 0.874" stroke="hsl(0.0,100%,35%)" stroke-width="0.00170"></path>
<path d="M1.181 0.993 Q2.315 0.594 1.785 -0.047" stroke="hsl(0.0,100%,35%)" stroke-width="0.00034"></path>
<path d="M1.181 0.993 Q1.503 0.831 1.258 0.639" stroke="hsl(0.0,100%,35%)" stroke-width="0.00034"></path>
<path d="M1.181 0.993 Q1.303 1.026 1.394 0.974" stroke="hsl(0.0,100%,35%)" stroke-width="0.00068"></path>
<path d="M1.181 0.993 Q1.252 0.832 0.953 0.762" stroke="hsl(0.0,100%,35%)" stroke-width="0.00034"></path>
<path d="M1.181 0.993 Q1.348 1.076 1.546 1.013" stroke="hsl(0.0,100%,35%)" stroke-width="0.00068"></path>
<path d="M1.181 0.993 Q1.599 1.068 1.837 0.881" stroke="hsl(0.0,100%,35%)" stroke-width="0.00136"></path>
<path d="M1.181 0.993 Q1.555 0.663 0.993 0.408" stroke="hsl(0.0,100%,35%)" stroke-width="0.00034"></path>
<path d="M0.300 0.844 Q0.788 0.757 0.726 0.500" stroke="hsl(0.0,100%,35%)" stroke-width="0.00068"></path>
<path d="M0.300 0.844 Q0.724 1.029 1.178 0.862" stroke="hsl(0.0,100%,35%)" stroke-width="0.00102"></path>
<path d="M0.300 0.844 Q0.621 1.095 1.181 0.993" stroke="hsl(0.0,100%,35%)" stroke-width="0.01021"></path>
<path d="M1.178 0.862 Q0.754 0.678 0.300 0.844" stroke="hsl(0.0,100%,35%)" stroke-width="0.01974"></path>
<path d="M1.178 0.862 Q1.241 0.591 0.726 0.500" stroke="hsl(0.0,100%,35%)" stroke-width="0.00613"></path>
<path d="M1.178 0.862 Q1.075 0.928 1.181 0.993" stroke="hsl(0.0,100%,35%)" stroke-width="0.11609"></path>
<path d="M1.837 0.881 Q1.420 0.806 1.181 0.993" stroke="hsl(0.0,100%,35%)" stroke-width="0.00068"></path>
<path d="M1.837 0.881 Q1.522 0.740 1.178 0.862" stroke="hsl(0.0,100%,35%)" stroke-width="0.00034"></path>
<path d="M1.642 0.871 Q1.480 0.502 0.726 0.500" stroke="hsl(0.0,100%,35%)" stroke-width="0.00136"></path>
<path d="M1.642 0.871 Q0.993 0.589 0.300 0.844" stroke="hsl(0.0,100%,35%)" stroke-width="0.00136"></path>
<path d="M1.642 0.871 Q1.416 0.774 1.178 0.862" stroke="hsl(0.0,100%,35%)" stroke-width="0.00034"></path>
<path d="M1.642 0.871 Q1.314 0.840 1.181 0.993" stroke="hsl(0.0,100%,35%)" stroke-width="0.00919"></path>
<path d="M0.703 0.863 Q0.517 0.773 0.300 0.844" stroke="hsl(0.0,100%,35%)" stroke-width="0.00034"></path>
<path d="M0.703 0.863 Q0.941 0.957 1.178 0.862" stroke="hsl(0.0,100%,35%)" stroke-width="0.00443"></path>
<path d="M0.703 0.863 Q0.838 1.024 1.181 0.993" stroke="hsl(0.0,100%,35%)" stroke-width="0.00272"></path>
</g>
<text x="0.179" y="0.377" font-size="0.019351" fill="hsl(0.0,100%,20%)">awscreen</text>
<text x="0.726" y="0.469" font-size="0.061333" fill="hsl(0.0,100%,20%)">nigi</text>
<text x="1.181" y="0.927" font-size="0.132344" fill="hsl(0.0,100%,20%)">thestig</text>
<text x="0.300" y="0.815" font-size="0.057907" fill="hsl(0.0,100%,20%)">dhoss</text>
<text x="1.178" y="0.804" font-size="0.116473" fill="hsl(0.0,100%,20%)">tsepez</text>
<text x="1.837" y="0.875" font-size="0.011669" fill="hsl(0.0,100%,20%)">dsinclair</text>
<text x="1.642" y="0.858" font-size="0.024754" fill="hsl(0.0,100%,20%)">kmoon</text>
<text x="0.993" y="0.405" font-size="0.005835" fill="hsl(0.0,100%,20%)">reed</text>
<text x="1.512" y="0.971" font-size="0.008251" fill="hsl(0.0,100%,20%)">bungeman</text>
<text x="0.817" y="0.869" font-size="0.009225" fill="hsl(0.0,100%,20%)">thakis</text>
<text x="1.785" y="-0.049" font-size="0.004126" fill="hsl(0.0,100%,20%)">brucedawson</text>
<text x="1.258" y="0.637" font-size="0.004126" fill="hsl(0.0,100%,20%)">drott</text>
<text x="1.394" y="0.971" font-size="0.005835" fill="hsl(0.0,100%,20%)">rbpotter</text>
<text x="0.953" y="0.760" font-size="0.004126" fill="hsl(0.0,100%,20%)">rharrison</text>
<text x="1.546" y="1.010" font-size="0.005835" fill="hsl(0.0,100%,20%)">hnakashima</text>
<text x="0.703" y="0.853" font-size="0.019351" fill="hsl(0.0,100%,20%)">vmiklos</text>
</svg>
