<svg width="4000" height="2000" viewBox="-0.025 -0.025 2.05 1.05" xmlns="http://www.w3.org/2000/svg">
  <style>
    path {
      fill: none;
      stroke-linecap: round;
      stroke-opacity: 0.4;
    }

    text {
      text-anchor: middle;
      alignment-baseline: hanging;
    }
  </style>
  <g opacity="0.4">
<path d="M0.501 0.756 Q0.340 0.873 0.532 0.977" stroke="hsl(0.0,100%,35%)" stroke-width="0.00740"></path>
<path d="M0.501 0.756 Q1.150 0.693 1.169 0.363" stroke="hsl(0.0,100%,35%)" stroke-width="0.00857"></path>
<path d="M0.501 0.756 Q1.515 0.729 1.685 0.228" stroke="hsl(0.0,100%,35%)" stroke-width="0.00039"></path>
<path d="M0.532 0.977 Q1.342 0.797 1.169 0.363" stroke="hsl(0.0,100%,35%)" stroke-width="0.01715"></path>
<path d="M0.532 0.977 Q0.453 0.850 0.189 0.861" stroke="hsl(0.0,100%,35%)" stroke-width="0.00974"></path>
<path d="M0.532 0.977 Q1.708 0.833 1.685 0.228" stroke="hsl(0.0,100%,35%)" stroke-width="0.00039"></path>
<path d="M1.169 0.363 Q0.359 0.542 0.532 0.977" stroke="hsl(0.0,100%,35%)" stroke-width="0.06898"></path>
<path d="M1.169 0.363 Q1.535 0.398 1.685 0.228" stroke="hsl(0.0,100%,35%)" stroke-width="0.09159"></path>
<path d="M1.169 0.363 Q0.280 0.416 0.189 0.861" stroke="hsl(0.0,100%,35%)" stroke-width="0.01481"></path>
<path d="M1.169 0.363 Q1.302 0.518 1.634 0.487" stroke="hsl(0.0,100%,35%)" stroke-width="0.00974"></path>
<path d="M1.169 0.363 Q1.324 0.568 1.760 0.538" stroke="hsl(0.0,100%,35%)" stroke-width="0.00039"></path>
<path d="M1.169 0.363 Q2.026 -0.098 1.315 -0.618" stroke="hsl(0.0,100%,35%)" stroke-width="0.00039"></path>
<path d="M1.685 0.228 Q1.319 0.192 1.169 0.363" stroke="hsl(0.0,100%,35%)" stroke-width="0.04950"></path>
<path d="M1.685 0.228 Q0.430 0.245 0.189 0.861" stroke="hsl(0.0,100%,35%)" stroke-width="0.00078"></path>
<path d="M1.685 0.228 Q0.509 0.372 0.532 0.977" stroke="hsl(0.0,100%,35%)" stroke-width="0.00234"></path>
<path d="M1.685 0.228 Q1.072 0.202 0.887 0.495" stroke="hsl(0.0,100%,35%)" stroke-width="0.00039"></path>
<path d="M0.761 0.829 Q1.338 0.677 1.169 0.363" stroke="hsl(0.0,100%,35%)" stroke-width="0.00117"></path>
<path d="M0.761 0.829 Q0.528 0.857 0.532 0.977" stroke="hsl(0.0,100%,35%)" stroke-width="0.00078"></path>
<path d="M0.761 0.829 Q0.449 0.730 0.189 0.861" stroke="hsl(0.0,100%,35%)" stroke-width="0.00078"></path>
<path d="M0.189 0.861 Q1.077 0.808 1.169 0.363" stroke="hsl(0.0,100%,35%)" stroke-width="0.00896"></path>
<path d="M0.189 0.861 Q1.443 0.843 1.685 0.228" stroke="hsl(0.0,100%,35%)" stroke-width="0.00273"></path>
<path d="M0.189 0.861 Q0.268 0.987 0.532 0.977" stroke="hsl(0.0,100%,35%)" stroke-width="0.02962"></path>
<path d="M1.463 0.359 Q1.313 0.302 1.169 0.363" stroke="hsl(0.0,100%,35%)" stroke-width="0.00312"></path>
<path d="M1.463 0.359 Q1.679 0.338 1.685 0.228" stroke="hsl(0.0,100%,35%)" stroke-width="0.00039"></path>
<path d="M1.463 0.359 Q0.503 0.482 0.532 0.977" stroke="hsl(0.0,100%,35%)" stroke-width="0.00117"></path>
<path d="M1.463 0.359 Q2.170 -0.159 1.315 -0.618" stroke="hsl(0.0,100%,35%)" stroke-width="0.00039"></path>
</g>
<text x="0.501" y="0.740" font-size="0.031418" fill="hsl(0.0,100%,20%)">awscreen</text>
<text x="0.532" y="0.931" font-size="0.091083" fill="hsl(0.0,100%,20%)">nigi</text>
<text x="1.169" y="0.298" font-size="0.128628" fill="hsl(0.0,100%,20%)">thestig</text>
<text x="1.685" y="0.180" font-size="0.094626" fill="hsl(0.0,100%,20%)">tsepez</text>
<text x="0.761" y="0.822" font-size="0.012826" fill="hsl(0.0,100%,20%)">brianosman</text>
<text x="0.189" y="0.829" font-size="0.063764" fill="hsl(0.0,100%,20%)">kmoon</text>
<text x="1.463" y="0.350" font-size="0.017479" fill="hsl(0.0,100%,20%)">kjlubick</text>
<text x="1.315" y="-0.621" font-size="0.006856" fill="hsl(0.0,100%,20%)">bungeman</text>
<text x="1.634" y="0.474" font-size="0.024239" fill="hsl(0.0,100%,20%)">drott</text>
<text x="1.760" y="0.535" font-size="0.004848" fill="hsl(0.0,100%,20%)">thomasanderson</text>
<text x="0.887" y="0.492" font-size="0.004848" fill="hsl(0.0,100%,20%)">thakis</text>
</svg>
