<svg width="4000" height="2000" viewBox="-0.025 -0.025 2.05 1.05" xmlns="http://www.w3.org/2000/svg">
  <style>
    path {
      fill: none;
      stroke-linecap: round;
      stroke-opacity: 0.4;
    }

    text {
      text-anchor: middle;
      alignment-baseline: hanging;
    }
  </style>
  <g opacity="0.4">
<path d="M1.729 0.970 Q1.426 0.685 0.804 0.770" stroke="hsl(0.0,100%,35%)" stroke-width="0.00053"></path>
<path d="M1.729 0.970 Q1.827 0.667 1.258 0.553" stroke="hsl(0.0,100%,35%)" stroke-width="0.00026"></path>
<path d="M1.729 0.970 Q1.488 0.500 0.520 0.515" stroke="hsl(0.0,100%,35%)" stroke-width="0.00210"></path>
<path d="M1.729 0.970 Q1.700 0.787 1.337 0.761" stroke="hsl(0.0,100%,35%)" stroke-width="0.00026"></path>
<path d="M0.804 0.770 Q0.866 0.586 0.520 0.515" stroke="hsl(0.0,100%,35%)" stroke-width="0.03259"></path>
<path d="M0.804 0.770 Q0.951 0.639 0.727 0.539" stroke="hsl(0.0,100%,35%)" stroke-width="0.00394"></path>
<path d="M0.804 0.770 Q1.205 0.753 1.258 0.553" stroke="hsl(0.0,100%,35%)" stroke-width="0.00026"></path>
<path d="M0.520 0.515 Q0.604 0.568 0.727 0.539" stroke="hsl(0.0,100%,35%)" stroke-width="0.00762"></path>
<path d="M0.520 0.515 Q0.289 0.506 0.220 0.617" stroke="hsl(0.0,100%,35%)" stroke-width="0.07727"></path>
<path d="M0.520 0.515 Q0.458 0.699 0.804 0.770" stroke="hsl(0.0,100%,35%)" stroke-width="0.05441"></path>
<path d="M0.520 0.515 Q0.307 0.734 0.688 0.887" stroke="hsl(0.0,100%,35%)" stroke-width="0.00053"></path>
<path d="M0.520 0.515 Q0.238 0.514 0.174 0.652" stroke="hsl(0.0,100%,35%)" stroke-width="0.00026"></path>
<path d="M0.520 0.515 Q0.866 0.445 0.807 0.261" stroke="hsl(0.0,100%,35%)" stroke-width="0.00026"></path>
<path d="M0.520 0.515 Q0.144 0.627 0.280 0.835" stroke="hsl(0.0,100%,35%)" stroke-width="0.00079"></path>
<path d="M0.727 0.539 Q0.642 0.485 0.520 0.515" stroke="hsl(0.0,100%,35%)" stroke-width="0.01262"></path>
<path d="M0.727 0.539 Q0.580 0.670 0.804 0.770" stroke="hsl(0.0,100%,35%)" stroke-width="0.01603"></path>
<path d="M0.727 0.539 Q0.981 0.652 1.258 0.553" stroke="hsl(0.0,100%,35%)" stroke-width="0.00079"></path>
<path d="M0.727 0.539 Q0.411 0.476 0.220 0.617" stroke="hsl(0.0,100%,35%)" stroke-width="0.00158"></path>
<path d="M0.220 0.617 Q0.451 0.626 0.520 0.515" stroke="hsl(0.0,100%,35%)" stroke-width="0.13194"></path>
<path d="M0.220 0.617 Q0.535 0.679 0.727 0.539" stroke="hsl(0.0,100%,35%)" stroke-width="0.00026"></path>
<path d="M0.220 0.617 Q0.539 0.486 0.356 0.302" stroke="hsl(0.0,100%,35%)" stroke-width="0.00026"></path>
<path d="M0.220 0.617 Q0.389 0.810 0.804 0.770" stroke="hsl(0.0,100%,35%)" stroke-width="0.00184"></path>
</g>
<text x="1.729" y="0.963" font-size="0.013494" fill="hsl(0.0,100%,20%)">kjlubick</text>
<text x="0.804" y="0.730" font-size="0.079547" fill="hsl(0.0,100%,20%)">nigi</text>
<text x="1.258" y="0.549" font-size="0.008710" fill="hsl(0.0,100%,20%)">bungeman</text>
<text x="0.520" y="0.447" font-size="0.136006" fill="hsl(0.0,100%,20%)">thestig</text>
<text x="1.337" y="0.759" font-size="0.003895" fill="hsl(0.0,100%,20%)">npm</text>
<text x="0.727" y="0.514" font-size="0.049734" fill="hsl(0.0,100%,20%)">kmoon</text>
<text x="0.220" y="0.561" font-size="0.110935" fill="hsl(0.0,100%,20%)">tsepez</text>
<text x="0.688" y="0.884" font-size="0.005509" fill="hsl(0.0,100%,20%)">thomasanderson</text>
<text x="0.174" y="0.650" font-size="0.003895" fill="hsl(0.0,100%,20%)">drott</text>
<text x="0.807" y="0.259" font-size="0.003895" fill="hsl(0.0,100%,20%)">thakis</text>
<text x="0.280" y="0.831" font-size="0.006747" fill="hsl(0.0,100%,20%)">dhoss</text>
<text x="0.356" y="0.300" font-size="0.003895" fill="hsl(0.0,100%,20%)">dcheng</text>
</svg>
