<svg width="4000" height="2000" viewBox="-0.025 -0.025 2.05 1.05" xmlns="http://www.w3.org/2000/svg">
  <style>
    path {
      fill: none;
      stroke-linecap: round;
      stroke-opacity: 0.4;
    }

    text {
      text-anchor: middle;
      alignment-baseline: hanging;
    }
  </style>
  <g opacity="0.4">
<path d="M1.218 0.085 Q0.839 0.014 0.616 0.184" stroke="hsl(0.0,100%,35%)" stroke-width="0.01631"></path>
<path d="M1.218 0.085 Q0.969 0.238 1.211 0.392" stroke="hsl(0.0,100%,35%)" stroke-width="0.00060"></path>
<path d="M1.218 0.085 Q0.823 0.281 1.119 0.517" stroke="hsl(0.0,100%,35%)" stroke-width="0.00060"></path>
<path d="M0.616 0.184 Q0.747 0.407 1.211 0.392" stroke="hsl(0.0,100%,35%)" stroke-width="0.12746"></path>
<path d="M0.616 0.184 Q0.514 0.338 0.791 0.421" stroke="hsl(0.0,100%,35%)" stroke-width="0.01450"></path>
<path d="M0.616 0.184 Q0.601 0.451 1.119 0.517" stroke="hsl(0.0,100%,35%)" stroke-width="0.04289"></path>
<path d="M0.616 0.184 Q0.381 0.296 0.547 0.435" stroke="hsl(0.0,100%,35%)" stroke-width="0.00181"></path>
<path d="M1.211 0.392 Q1.081 0.169 0.616 0.184" stroke="hsl(0.0,100%,35%)" stroke-width="0.05980"></path>
<path d="M1.211 0.392 Q1.340 0.312 1.211 0.231" stroke="hsl(0.0,100%,35%)" stroke-width="0.00060"></path>
</g>
<text x="1.218" y="0.067" font-size="0.036390" fill="hsl(0.0,100%,20%)">awscreen</text>
<text x="0.616" y="0.113" font-size="0.140936" fill="hsl(0.0,100%,20%)">thestig</text>
<text x="1.211" y="0.333" font-size="0.119359" fill="hsl(0.0,100%,20%)">tsepez</text>
<text x="1.119" y="0.488" font-size="0.057338" fill="hsl(0.0,100%,20%)">nigi</text>
<text x="0.791" y="0.405" font-size="0.033104" fill="hsl(0.0,100%,20%)">drott</text>
<text x="0.547" y="0.430" font-size="0.011704" fill="hsl(0.0,100%,20%)">bungeman</text>
<text x="1.211" y="0.228" font-size="0.006757" fill="hsl(0.0,100%,20%)">thakis</text>
</svg>
