<svg width="4000" height="2000" viewBox="-0.025 -0.025 2.05 1.05" xmlns="http://www.w3.org/2000/svg">
  <style>
    path {
      fill: none;
      stroke-linecap: round;
      stroke-opacity: 0.4;
    }

    text {
      text-anchor: middle;
      alignment-baseline: hanging;
    }
  </style>
  <g opacity="0.4">
<path d="M1.785 0.904 Q1.538 0.898 1.473 1.017" stroke="hsl(0.0,100%,35%)" stroke-width="0.01746"></path>
<path d="M1.785 0.904 Q1.543 0.800 1.287 0.895" stroke="hsl(0.0,100%,35%)" stroke-width="0.00087"></path>
<path d="M1.785 0.904 Q1.837 0.706 1.461 0.637" stroke="hsl(0.0,100%,35%)" stroke-width="0.00087"></path>
<path d="M1.473 1.017 Q1.478 0.919 1.287 0.895" stroke="hsl(0.0,100%,35%)" stroke-width="0.12396"></path>
<path d="M1.473 1.017 Q1.612 0.991 1.592 0.917" stroke="hsl(0.0,100%,35%)" stroke-width="0.02008"></path>
<path d="M1.473 1.017 Q1.772 0.825 1.461 0.637" stroke="hsl(0.0,100%,35%)" stroke-width="0.08119"></path>
<path d="M1.473 1.017 Q1.852 0.916 1.737 0.709" stroke="hsl(0.0,100%,35%)" stroke-width="0.00087"></path>
<path d="M1.473 1.017 Q0.727 1.134 0.791 1.523" stroke="hsl(0.0,100%,35%)" stroke-width="0.00087"></path>
<path d="M1.287 0.895 Q1.283 0.993 1.473 1.017" stroke="hsl(0.0,100%,35%)" stroke-width="0.03492"></path>
<path d="M1.287 0.895 Q1.560 0.680 1.199 0.499" stroke="hsl(0.0,100%,35%)" stroke-width="0.00087"></path>
<path d="M1.287 0.895 Q1.581 0.801 1.461 0.637" stroke="hsl(0.0,100%,35%)" stroke-width="0.00087"></path>
</g>
<text x="1.785" y="0.885" font-size="0.036851" fill="hsl(0.0,100%,20%)">awscreen</text>
<text x="1.473" y="0.947" font-size="0.140546" fill="hsl(0.0,100%,20%)">thestig</text>
<text x="1.287" y="0.842" font-size="0.106863" fill="hsl(0.0,100%,20%)">tsepez</text>
<text x="1.461" y="0.598" font-size="0.076578" fill="hsl(0.0,100%,20%)">nigi</text>
<text x="1.592" y="0.899" font-size="0.037680" fill="hsl(0.0,100%,20%)">drott</text>
<text x="1.737" y="0.705" font-size="0.007857" fill="hsl(0.0,100%,20%)">bungeman</text>
<text x="0.791" y="1.519" font-size="0.007857" fill="hsl(0.0,100%,20%)">kmoon</text>
<text x="1.199" y="0.495" font-size="0.007857" fill="hsl(0.0,100%,20%)">thakis</text>
</svg>
