<svg width="4000" height="2000" viewBox="-0.025 -0.025 2.05 1.05" xmlns="http://www.w3.org/2000/svg">
  <style>
    path {
      fill: none;
      stroke-linecap: round;
      stroke-opacity: 0.4;
    }

    text {
      text-anchor: middle;
      alignment-baseline: hanging;
    }
  </style>
  <g opacity="0.4">
<path d="M0.163 0.657 Q0.063 0.715 0.154 0.776" stroke="hsl(0.0,100%,35%)" stroke-width="0.00442"></path>
<path d="M0.163 0.657 Q0.774 1.131 1.833 0.937" stroke="hsl(0.0,100%,35%)" stroke-width="0.00068"></path>
<path d="M0.163 0.657 Q0.922 1.012 1.780 0.719" stroke="hsl(0.0,100%,35%)" stroke-width="0.00238"></path>
<path d="M0.154 0.776 Q1.013 1.073 1.780 0.719" stroke="hsl(0.0,100%,35%)" stroke-width="0.00646"></path>
<path d="M0.154 0.776 Q0.801 1.088 1.552 0.841" stroke="hsl(0.0,100%,35%)" stroke-width="0.00068"></path>
<path d="M0.154 0.776 Q1.155 1.080 1.968 0.659" stroke="hsl(0.0,100%,35%)" stroke-width="0.00034"></path>
<path d="M0.154 0.776 Q0.865 1.192 1.833 0.937" stroke="hsl(0.0,100%,35%)" stroke-width="0.03874"></path>
<path d="M0.154 0.776 Q0.400 0.768 0.439 0.647" stroke="hsl(0.0,100%,35%)" stroke-width="0.00034"></path>
<path d="M1.833 0.937 Q1.769 0.833 1.552 0.841" stroke="hsl(0.0,100%,35%)" stroke-width="0.12234"></path>
<path d="M1.833 0.937 Q1.122 0.521 0.154 0.776" stroke="hsl(0.0,100%,35%)" stroke-width="0.01665"></path>
<path d="M1.833 0.937 Q1.981 0.817 1.780 0.719" stroke="hsl(0.0,100%,35%)" stroke-width="0.02549"></path>
<path d="M1.833 0.937 Q1.942 0.699 1.501 0.593" stroke="hsl(0.0,100%,35%)" stroke-width="0.00136"></path>
<path d="M1.833 0.937 Q1.879 0.726 1.478 0.658" stroke="hsl(0.0,100%,35%)" stroke-width="0.00170"></path>
<path d="M1.833 0.937 Q2.044 0.838 1.898 0.713" stroke="hsl(0.0,100%,35%)" stroke-width="0.00034"></path>
<path d="M1.833 0.937 Q1.818 0.676 1.305 0.626" stroke="hsl(0.0,100%,35%)" stroke-width="0.00034"></path>
<path d="M1.833 0.937 Q1.922 0.759 1.595 0.677" stroke="hsl(0.0,100%,35%)" stroke-width="0.00068"></path>
<path d="M1.833 0.937 Q1.757 0.663 1.206 0.640" stroke="hsl(0.0,100%,35%)" stroke-width="0.00034"></path>
<path d="M1.833 0.937 Q1.622 0.885 1.473 0.976" stroke="hsl(0.0,100%,35%)" stroke-width="0.00068"></path>
<path d="M1.833 0.937 Q2.123 0.825 1.968 0.659" stroke="hsl(0.0,100%,35%)" stroke-width="0.00136"></path>
<path d="M1.833 0.937 Q1.368 0.513 0.439 0.647" stroke="hsl(0.0,100%,35%)" stroke-width="0.00034"></path>
<path d="M1.780 0.719 Q0.921 0.422 0.154 0.776" stroke="hsl(0.0,100%,35%)" stroke-width="0.00068"></path>
<path d="M1.780 0.719 Q1.569 0.734 1.552 0.841" stroke="hsl(0.0,100%,35%)" stroke-width="0.00102"></path>
<path d="M1.780 0.719 Q1.632 0.838 1.833 0.937" stroke="hsl(0.0,100%,35%)" stroke-width="0.01020"></path>
<path d="M1.552 0.841 Q1.764 0.826 1.780 0.719" stroke="hsl(0.0,100%,35%)" stroke-width="0.01971"></path>
<path d="M1.552 0.841 Q0.905 0.529 0.154 0.776" stroke="hsl(0.0,100%,35%)" stroke-width="0.00612"></path>
<path d="M1.552 0.841 Q1.616 0.945 1.833 0.937" stroke="hsl(0.0,100%,35%)" stroke-width="0.11589"></path>
<path d="M1.968 0.659 Q1.678 0.771 1.833 0.937" stroke="hsl(0.0,100%,35%)" stroke-width="0.00068"></path>
<path d="M1.968 0.659 Q1.614 0.667 1.552 0.841" stroke="hsl(0.0,100%,35%)" stroke-width="0.00034"></path>
<path d="M1.796 0.979 Q1.137 0.550 0.154 0.776" stroke="hsl(0.0,100%,35%)" stroke-width="0.00136"></path>
<path d="M1.796 0.979 Q1.996 0.846 1.780 0.719" stroke="hsl(0.0,100%,35%)" stroke-width="0.00136"></path>
<path d="M1.796 0.979 Q1.785 0.861 1.552 0.841" stroke="hsl(0.0,100%,35%)" stroke-width="0.00034"></path>
<path d="M1.796 0.979 Q1.848 0.966 1.833 0.937" stroke="hsl(0.0,100%,35%)" stroke-width="0.00918"></path>
<path d="M1.608 0.951 Q1.879 0.869 1.780 0.719" stroke="hsl(0.0,100%,35%)" stroke-width="0.00034"></path>
<path d="M1.608 0.951 Q1.668 0.885 1.552 0.841" stroke="hsl(0.0,100%,35%)" stroke-width="0.00442"></path>
<path d="M1.608 0.951 Q1.731 0.989 1.833 0.937" stroke="hsl(0.0,100%,35%)" stroke-width="0.00272"></path>
</g>
<text x="0.163" y="0.648" font-size="0.019335" fill="hsl(0.0,100%,20%)">awscreen</text>
<text x="0.154" y="0.746" font-size="0.061557" fill="hsl(0.0,100%,20%)">nigi</text>
<text x="1.833" y="0.871" font-size="0.132231" fill="hsl(0.0,100%,20%)">thestig</text>
<text x="1.780" y="0.690" font-size="0.058150" fill="hsl(0.0,100%,20%)">dhoss</text>
<text x="1.552" y="0.783" font-size="0.116374" fill="hsl(0.0,100%,20%)">tsepez</text>
<text x="1.968" y="0.653" font-size="0.011659" fill="hsl(0.0,100%,20%)">dsinclair</text>
<text x="1.796" y="0.967" font-size="0.024733" fill="hsl(0.0,100%,20%)">kmoon</text>
<text x="0.439" y="0.644" font-size="0.005830" fill="hsl(0.0,100%,20%)">reed</text>
<text x="1.501" y="0.589" font-size="0.008244" fill="hsl(0.0,100%,20%)">bungeman</text>
<text x="1.478" y="0.653" font-size="0.009217" fill="hsl(0.0,100%,20%)">thakis</text>
<text x="1.898" y="0.711" font-size="0.004122" fill="hsl(0.0,100%,20%)">brucedawson</text>
<text x="1.305" y="0.624" font-size="0.004122" fill="hsl(0.0,100%,20%)">drott</text>
<text x="1.595" y="0.674" font-size="0.005830" fill="hsl(0.0,100%,20%)">rbpotter</text>
<text x="1.206" y="0.638" font-size="0.004122" fill="hsl(0.0,100%,20%)">rharrison</text>
<text x="1.473" y="0.973" font-size="0.005830" fill="hsl(0.0,100%,20%)">hnakashima</text>
<text x="1.608" y="0.941" font-size="0.019335" fill="hsl(0.0,100%,20%)">vmiklos</text>
</svg>
