<svg width="4000" height="2000" viewBox="-0.025 -0.025 2.05 1.05" xmlns="http://www.w3.org/2000/svg">
  <style>
    path {
      fill: none;
      stroke-linecap: round;
      stroke-opacity: 0.4;
    }

    text {
      text-anchor: middle;
      alignment-baseline: hanging;
    }
  </style>
  <g opacity="0.4">
<path d="M1.558 0.364 Q0.584 0.513 0.662 1.021" stroke="hsl(0.0,100%,35%)" stroke-width="0.00245"></path>
<path d="M1.558 0.364 Q0.708 0.593 0.970 1.059" stroke="hsl(0.0,100%,35%)" stroke-width="0.00082"></path>
<path d="M1.558 0.364 Q0.820 0.180 0.300 0.500" stroke="hsl(0.0,100%,35%)" stroke-width="0.00027"></path>
<path d="M1.558 0.364 Q1.612 0.246 1.395 0.195" stroke="hsl(0.0,100%,35%)" stroke-width="0.00027"></path>
<path d="M0.662 1.021 Q0.786 1.101 0.970 1.059" stroke="hsl(0.0,100%,35%)" stroke-width="0.05279"></path>
<path d="M0.662 1.021 Q0.712 0.810 0.311 0.739" stroke="hsl(0.0,100%,35%)" stroke-width="0.00844"></path>
<path d="M0.662 1.021 Q0.695 0.914 0.494 0.875" stroke="hsl(0.0,100%,35%)" stroke-width="0.07211"></path>
<path d="M0.662 1.021 Q0.708 1.151 0.971 1.157" stroke="hsl(0.0,100%,35%)" stroke-width="0.00054"></path>
<path d="M0.662 1.021 Q1.150 0.880 0.981 0.611" stroke="hsl(0.0,100%,35%)" stroke-width="0.00027"></path>
<path d="M0.662 1.021 Q0.997 1.047 1.120 0.889" stroke="hsl(0.0,100%,35%)" stroke-width="0.00082"></path>
<path d="M0.970 1.059 Q0.846 0.978 0.662 1.021" stroke="hsl(0.0,100%,35%)" stroke-width="0.03510"></path>
<path d="M0.970 1.059 Q0.896 0.767 0.311 0.739" stroke="hsl(0.0,100%,35%)" stroke-width="0.00517"></path>
<path d="M0.970 1.059 Q1.082 0.645 0.300 0.500" stroke="hsl(0.0,100%,35%)" stroke-width="0.00027"></path>
<path d="M0.311 0.739 Q0.384 1.030 0.970 1.059" stroke="hsl(0.0,100%,35%)" stroke-width="0.01959"></path>
<path d="M0.311 0.739 Q0.261 0.950 0.662 1.021" stroke="hsl(0.0,100%,35%)" stroke-width="0.01333"></path>
<path d="M0.311 0.739 Q0.497 0.617 0.300 0.500" stroke="hsl(0.0,100%,35%)" stroke-width="0.00082"></path>
<path d="M0.311 0.739 Q0.293 0.843 0.494 0.875" stroke="hsl(0.0,100%,35%)" stroke-width="0.00163"></path>
<path d="M0.494 0.875 Q0.461 0.982 0.662 1.021" stroke="hsl(0.0,100%,35%)" stroke-width="0.12899"></path>
<path d="M0.494 0.875 Q0.512 0.770 0.311 0.739" stroke="hsl(0.0,100%,35%)" stroke-width="0.00027"></path>
<path d="M0.494 0.875 Q0.371 0.735 0.071 0.764" stroke="hsl(0.0,100%,35%)" stroke-width="0.00027"></path>
<path d="M0.494 0.875 Q0.585 1.062 0.970 1.059" stroke="hsl(0.0,100%,35%)" stroke-width="0.00190"></path>
</g>
<text x="1.558" y="0.356" font-size="0.014831" fill="hsl(0.0,100%,20%)">kjlubick</text>
<text x="0.662" y="0.954" font-size="0.134882" fill="hsl(0.0,100%,20%)">thestig</text>
<text x="0.970" y="1.018" font-size="0.081714" fill="hsl(0.0,100%,20%)">nigi</text>
<text x="0.300" y="0.495" font-size="0.008863" fill="hsl(0.0,100%,20%)">bungeman</text>
<text x="1.395" y="0.193" font-size="0.003964" fill="hsl(0.0,100%,20%)">npm</text>
<text x="0.311" y="0.712" font-size="0.053326" fill="hsl(0.0,100%,20%)">kmoon</text>
<text x="0.494" y="0.821" font-size="0.108839" fill="hsl(0.0,100%,20%)">tsepez</text>
<text x="0.971" y="1.154" font-size="0.005606" fill="hsl(0.0,100%,20%)">thomasanderson</text>
<text x="0.381" y="9.368" font-size="0.003964" fill="hsl(0.0,100%,20%)">drott</text>
<text x="0.981" y="0.609" font-size="0.003964" fill="hsl(0.0,100%,20%)">thakis</text>
<text x="1.120" y="0.886" font-size="0.006865" fill="hsl(0.0,100%,20%)">dhoss</text>
<text x="0.071" y="0.762" font-size="0.003964" fill="hsl(0.0,100%,20%)">dcheng</text>
</svg>
