<svg width="4000" height="2000" viewBox="-0.025 -0.025 2.05 1.05" xmlns="http://www.w3.org/2000/svg">
  <style>
    path {
      fill: none;
      stroke-linecap: round;
      stroke-opacity: 0.4;
    }

    text {
      text-anchor: middle;
      alignment-baseline: hanging;
    }
  </style>
  <g opacity="0.4">
<path d="M1.668 0.639 Q1.755 0.717 1.927 0.692" stroke="hsl(0.0,100%,35%)" stroke-width="0.01376"></path>
<path d="M1.668 0.639 Q1.769 0.427 1.378 0.332" stroke="hsl(0.0,100%,35%)" stroke-width="0.01151"></path>
<path d="M1.668 0.639 Q2.077 0.471 1.839 0.234" stroke="hsl(0.0,100%,35%)" stroke-width="0.00150"></path>
<path d="M1.668 0.639 Q1.319 0.631 1.227 0.800" stroke="hsl(0.0,100%,35%)" stroke-width="0.00075"></path>
<path d="M1.927 0.692 Q1.840 0.613 1.668 0.639" stroke="hsl(0.0,100%,35%)" stroke-width="0.00350"></path>
<path d="M1.927 0.692 Q1.940 0.402 1.378 0.332" stroke="hsl(0.0,100%,35%)" stroke-width="0.03527"></path>
<path d="M1.927 0.692 Q1.490 0.606 1.227 0.800" stroke="hsl(0.0,100%,35%)" stroke-width="0.00025"></path>
<path d="M1.378 0.332 Q1.365 0.621 1.927 0.692" stroke="hsl(0.0,100%,35%)" stroke-width="0.04927"></path>
<path d="M1.378 0.332 Q1.687 0.375 1.839 0.234" stroke="hsl(0.0,100%,35%)" stroke-width="0.07529"></path>
<path d="M1.378 0.332 Q1.278 0.543 1.668 0.639" stroke="hsl(0.0,100%,35%)" stroke-width="0.00650"></path>
<path d="M1.378 0.332 Q1.505 0.501 1.862 0.476" stroke="hsl(0.0,100%,35%)" stroke-width="0.00050"></path>
<path d="M1.378 0.332 Q1.358 0.333 1.355 0.343" stroke="hsl(0.0,100%,35%)" stroke-width="0.00025"></path>
<path d="M1.378 0.332 Q1.068 0.333 1.002 0.484" stroke="hsl(0.0,100%,35%)" stroke-width="0.00025"></path>
<path d="M1.378 0.332 Q1.553 0.415 1.753 0.348" stroke="hsl(0.0,100%,35%)" stroke-width="0.00075"></path>
<path d="M1.378 0.332 Q1.383 0.435 1.586 0.456" stroke="hsl(0.0,100%,35%)" stroke-width="0.00025"></path>
<path d="M1.839 0.234 Q1.530 0.191 1.378 0.332" stroke="hsl(0.0,100%,35%)" stroke-width="0.12981"></path>
<path d="M1.839 0.234 Q1.430 0.402 1.668 0.639" stroke="hsl(0.0,100%,35%)" stroke-width="0.00025"></path>
<path d="M1.839 0.234 Q1.322 0.321 1.379 0.593" stroke="hsl(0.0,100%,35%)" stroke-width="0.00025"></path>
<path d="M1.839 0.234 Q1.517 0.480 1.927 0.692" stroke="hsl(0.0,100%,35%)" stroke-width="0.00175"></path>
</g>
<text x="1.668" y="0.615" font-size="0.047723" fill="hsl(0.0,100%,20%)">kmoon</text>
<text x="1.927" y="0.652" font-size="0.079117" fill="hsl(0.0,100%,20%)">nigi</text>
<text x="1.378" y="0.264" font-size="0.136648" fill="hsl(0.0,100%,20%)">thestig</text>
<text x="1.839" y="0.178" font-size="0.112224" fill="hsl(0.0,100%,20%)">tsepez</text>
<text x="1.227" y="0.796" font-size="0.007767" fill="hsl(0.0,100%,20%)">bungeman</text>
<text x="1.862" y="0.473" font-size="0.005492" fill="hsl(0.0,100%,20%)">thomasanderson</text>
<text x="1.355" y="0.341" font-size="0.003884" fill="hsl(0.0,100%,20%)">drott</text>
<text x="1.002" y="0.482" font-size="0.003884" fill="hsl(0.0,100%,20%)">thakis</text>
<text x="1.753" y="0.344" font-size="0.006727" fill="hsl(0.0,100%,20%)">dhoss</text>
<text x="1.586" y="0.454" font-size="0.003884" fill="hsl(0.0,100%,20%)">weili</text>
<text x="1.379" y="0.591" font-size="0.003884" fill="hsl(0.0,100%,20%)">dcheng</text>
</svg>
