<svg width="4000" height="2000" viewBox="-0.025 -0.025 2.05 1.05" xmlns="http://www.w3.org/2000/svg">
  <style>
    path {
      fill: none;
      stroke-linecap: round;
      stroke-opacity: 0.4;
    }

    text {
      text-anchor: middle;
      alignment-baseline: hanging;
    }
  </style>
  <g opacity="0.4">
<path d="M0.909 0.341 Q0.586 0.247 0.333 0.384" stroke="hsl(0.0,100%,35%)" stroke-width="0.00738"></path>
<path d="M0.909 0.341 Q0.962 0.565 1.412 0.588" stroke="hsl(0.0,100%,35%)" stroke-width="0.00621"></path>
<path d="M0.909 0.341 Q1.124 0.681 1.835 0.651" stroke="hsl(0.0,100%,35%)" stroke-width="0.00039"></path>
<path d="M0.333 0.384 Q0.709 0.702 1.412 0.588" stroke="hsl(0.0,100%,35%)" stroke-width="0.01709"></path>
<path d="M0.333 0.384 Q0.442 0.335 0.369 0.271" stroke="hsl(0.0,100%,35%)" stroke-width="0.00971"></path>
<path d="M0.333 0.384 Q0.871 0.818 1.835 0.651" stroke="hsl(0.0,100%,35%)" stroke-width="0.00039"></path>
<path d="M1.412 0.588 Q1.036 0.271 0.333 0.384" stroke="hsl(0.0,100%,35%)" stroke-width="0.06874"></path>
<path d="M1.412 0.588 Q1.573 0.704 1.835 0.651" stroke="hsl(0.0,100%,35%)" stroke-width="0.08816"></path>
<path d="M1.412 0.588 Q1.144 0.221 0.369 0.271" stroke="hsl(0.0,100%,35%)" stroke-width="0.01476"></path>
<path d="M1.412 0.588 Q1.723 0.548 1.713 0.388" stroke="hsl(0.0,100%,35%)" stroke-width="0.00932"></path>
<path d="M1.412 0.588 Q1.477 0.423 1.170 0.355" stroke="hsl(0.0,100%,35%)" stroke-width="0.00039"></path>
<path d="M1.412 0.588 Q1.487 0.509 1.350 0.455" stroke="hsl(0.0,100%,35%)" stroke-width="0.00039"></path>
<path d="M1.835 0.651 Q1.673 0.535 1.412 0.588" stroke="hsl(0.0,100%,35%)" stroke-width="0.04932"></path>
<path d="M1.835 0.651 Q1.406 0.168 0.369 0.271" stroke="hsl(0.0,100%,35%)" stroke-width="0.00078"></path>
<path d="M1.835 0.651 Q1.297 0.217 0.333 0.384" stroke="hsl(0.0,100%,35%)" stroke-width="0.00233"></path>
<path d="M1.835 0.651 Q1.476 0.545 1.191 0.697" stroke="hsl(0.0,100%,35%)" stroke-width="0.00039"></path>
<path d="M0.223 0.533 Q0.773 0.799 1.412 0.588" stroke="hsl(0.0,100%,35%)" stroke-width="0.00117"></path>
<path d="M0.223 0.533 Q0.397 0.481 0.333 0.384" stroke="hsl(0.0,100%,35%)" stroke-width="0.00078"></path>
<path d="M0.223 0.533 Q0.506 0.432 0.369 0.271" stroke="hsl(0.0,100%,35%)" stroke-width="0.00078"></path>
<path d="M0.369 0.271 Q0.637 0.638 1.412 0.588" stroke="hsl(0.0,100%,35%)" stroke-width="0.01126"></path>
<path d="M0.369 0.271 Q0.798 0.754 1.835 0.651" stroke="hsl(0.0,100%,35%)" stroke-width="0.00272"></path>
<path d="M0.369 0.271 Q0.261 0.321 0.333 0.384" stroke="hsl(0.0,100%,35%)" stroke-width="0.03379"></path>
<path d="M0.369 0.271 Q0.712 0.559 1.350 0.455" stroke="hsl(0.0,100%,35%)" stroke-width="0.00039"></path>
<path d="M1.529 0.699 Q1.559 0.620 1.412 0.588" stroke="hsl(0.0,100%,35%)" stroke-width="0.00311"></path>
<path d="M1.529 0.699 Q1.720 0.736 1.835 0.651" stroke="hsl(0.0,100%,35%)" stroke-width="0.00039"></path>
<path d="M1.529 0.699 Q1.183 0.302 0.333 0.384" stroke="hsl(0.0,100%,35%)" stroke-width="0.00117"></path>
<path d="M1.529 0.699 Q1.634 0.541 1.350 0.455" stroke="hsl(0.0,100%,35%)" stroke-width="0.00039"></path>
</g>
<text x="0.909" y="0.326" font-size="0.029036" fill="hsl(0.0,100%,20%)">awscreen</text>
<text x="0.333" y="0.338" font-size="0.092329" fill="hsl(0.0,100%,20%)">nigi</text>
<text x="1.412" y="0.524" font-size="0.127579" fill="hsl(0.0,100%,20%)">thestig</text>
<text x="1.835" y="0.604" font-size="0.093463" fill="hsl(0.0,100%,20%)">tsepez</text>
<text x="0.223" y="0.527" font-size="0.012804" fill="hsl(0.0,100%,20%)">brianosman</text>
<text x="0.369" y="0.238" font-size="0.066881" fill="hsl(0.0,100%,20%)">kmoon</text>
<text x="1.529" y="0.690" font-size="0.017448" fill="hsl(0.0,100%,20%)">kjlubick</text>
<text x="1.350" y="0.451" font-size="0.008382" fill="hsl(0.0,100%,20%)">bungeman</text>
<text x="1.713" y="0.376" font-size="0.023708" fill="hsl(0.0,100%,20%)">drott</text>
<text x="1.170" y="0.352" font-size="0.004839" fill="hsl(0.0,100%,20%)">thomasanderson</text>
<text x="1.191" y="0.695" font-size="0.004839" fill="hsl(0.0,100%,20%)">thakis</text>
</svg>
