<svg width="4000" height="2000" viewBox="-0.025 -0.025 2.05 1.05" xmlns="http://www.w3.org/2000/svg">
  <style>
    path {
      fill: none;
      stroke-linecap: round;
      stroke-opacity: 0.4;
    }

    text {
      text-anchor: middle;
      alignment-baseline: hanging;
    }
  </style>
  <g opacity="0.4">
<path d="M1.418 0.317 Q1.281 0.235 1.092 0.284" stroke="hsl(0.0,100%,35%)" stroke-width="0.00249"></path>
<path d="M1.418 0.317 Q1.266 0.129 0.866 0.162" stroke="hsl(0.0,100%,35%)" stroke-width="0.00055"></path>
<path d="M1.418 0.317 Q1.498 0.123 1.139 0.042" stroke="hsl(0.0,100%,35%)" stroke-width="0.00028"></path>
<path d="M1.092 0.284 Q1.077 0.178 0.866 0.162" stroke="hsl(0.0,100%,35%)" stroke-width="0.17318"></path>
<path d="M1.092 0.284 Q0.847 0.309 0.841 0.434" stroke="hsl(0.0,100%,35%)" stroke-width="0.01771"></path>
<path d="M1.092 0.284 Q0.797 0.516 1.183 0.710" stroke="hsl(0.0,100%,35%)" stroke-width="0.00470"></path>
<path d="M1.092 0.284 Q1.271 0.411 1.559 0.352" stroke="hsl(0.0,100%,35%)" stroke-width="0.00221"></path>
<path d="M1.092 0.284 Q1.015 0.333 1.093 0.381" stroke="hsl(0.0,100%,35%)" stroke-width="0.00775"></path>
<path d="M1.092 0.284 Q1.152 0.600 1.781 0.640" stroke="hsl(0.0,100%,35%)" stroke-width="0.01328"></path>
<path d="M1.092 0.284 Q1.302 0.534 1.836 0.486" stroke="hsl(0.0,100%,35%)" stroke-width="0.00028"></path>
<path d="M1.092 0.284 Q0.745 0.222 0.548 0.377" stroke="hsl(0.0,100%,35%)" stroke-width="0.00028"></path>
<path d="M1.092 0.284 Q1.309 0.173 1.139 0.042" stroke="hsl(0.0,100%,35%)" stroke-width="0.00055"></path>
<path d="M1.092 0.284 Q1.692 0.201 1.660 -0.110" stroke="hsl(0.0,100%,35%)" stroke-width="0.00028"></path>
<path d="M1.092 0.284 Q1.527 0.190 1.438 -0.044" stroke="hsl(0.0,100%,35%)" stroke-width="0.00111"></path>
<path d="M1.092 0.284 Q1.315 0.282 1.359 0.172" stroke="hsl(0.0,100%,35%)" stroke-width="0.00194"></path>
<path d="M1.092 0.284 Q0.668 0.821 1.622 1.146" stroke="hsl(0.0,100%,35%)" stroke-width="0.00055"></path>
<path d="M0.866 0.162 Q0.881 0.268 1.092 0.284" stroke="hsl(0.0,100%,35%)" stroke-width="0.15962"></path>
<path d="M0.866 0.162 Q0.636 0.293 0.841 0.434" stroke="hsl(0.0,100%,35%)" stroke-width="0.00055"></path>
</g>
<text x="1.418" y="0.310" font-size="0.013093" fill="hsl(0.0,100%,20%)">dhoss</text>
<text x="1.092" y="0.214" font-size="0.141169" fill="hsl(0.0,100%,20%)">thestig</text>
<text x="0.866" y="0.096" font-size="0.131312" fill="hsl(0.0,100%,20%)">tsepez</text>
<text x="1.139" y="0.039" font-size="0.006547" fill="hsl(0.0,100%,20%)">thomasanderson</text>
<text x="0.841" y="0.419" font-size="0.030706" fill="hsl(0.0,100%,20%)">hnakashima</text>
<text x="1.183" y="0.702" font-size="0.015584" fill="hsl(0.0,100%,20%)">reed</text>
<text x="1.559" y="0.346" font-size="0.010690" fill="hsl(0.0,100%,20%)">palmer</text>
<text x="1.093" y="0.371" font-size="0.020000" fill="hsl(0.0,100%,20%)">npm</text>
<text x="1.781" y="0.627" font-size="0.026186" fill="hsl(0.0,100%,20%)">dsinclair</text>
<text x="1.836" y="0.484" font-size="0.003780" fill="hsl(0.0,100%,20%)">bungeman</text>
<text x="0.548" y="0.375" font-size="0.003780" fill="hsl(0.0,100%,20%)">halcanary</text>
<text x="1.660" y="-0.112" font-size="0.003780" fill="hsl(0.0,100%,20%)">jbudorick</text>
<text x="1.438" y="-0.047" font-size="0.007559" fill="hsl(0.0,100%,20%)">thakis</text>
<text x="1.359" y="0.167" font-size="0.010000" fill="hsl(0.0,100%,20%)">weili</text>
<text x="1.622" y="1.143" font-size="0.005345" fill="hsl(0.0,100%,20%)">brucedawson</text>
</svg>
