<svg width="4000" height="2000" viewBox="-0.025 -0.025 2.05 1.05" xmlns="http://www.w3.org/2000/svg">
  <style>
    path {
      fill: none;
      stroke-linecap: round;
      stroke-opacity: 0.4;
    }

    text {
      text-anchor: middle;
      alignment-baseline: hanging;
    }
  </style>
  <g opacity="0.4">
<path d="M1.110 0.364 Q0.415 0.519 0.564 0.891" stroke="hsl(0.0,100%,35%)" stroke-width="0.00160"></path>
<path d="M1.110 0.364 Q0.923 0.400 0.952 0.499" stroke="hsl(0.0,100%,35%)" stroke-width="0.00023"></path>
<path d="M1.110 0.364 Q0.519 0.628 0.905 0.975" stroke="hsl(0.0,100%,35%)" stroke-width="0.00029"></path>
<path d="M1.110 0.364 Q1.389 0.302 1.330 0.153" stroke="hsl(0.0,100%,35%)" stroke-width="0.00498"></path>
<path d="M0.564 0.891 Q0.668 1.001 0.905 0.975" stroke="hsl(0.0,100%,35%)" stroke-width="0.13537"></path>
<path d="M0.564 0.891 Q0.850 0.766 0.668 0.599" stroke="hsl(0.0,100%,35%)" stroke-width="0.00160"></path>
<path d="M0.564 0.891 Q0.861 0.872 0.887 0.723" stroke="hsl(0.0,100%,35%)" stroke-width="0.03104"></path>
<path d="M0.564 0.891 Q0.958 0.967 1.191 0.791" stroke="hsl(0.0,100%,35%)" stroke-width="0.00137"></path>
<path d="M0.564 0.891 Q1.160 0.831 1.173 0.528" stroke="hsl(0.0,100%,35%)" stroke-width="0.00378"></path>
<path d="M0.564 0.891 Q0.900 0.904 0.998 0.742" stroke="hsl(0.0,100%,35%)" stroke-width="0.00034"></path>
<path d="M0.564 0.891 Q0.915 0.783 0.780 0.588" stroke="hsl(0.0,100%,35%)" stroke-width="0.00092"></path>
<path d="M0.564 0.891 Q0.754 0.731 0.482 0.603" stroke="hsl(0.0,100%,35%)" stroke-width="0.00687"></path>
<path d="M0.564 0.891 Q1.082 0.753 0.926 0.471" stroke="hsl(0.0,100%,35%)" stroke-width="0.00057"></path>
<path d="M0.564 0.891 Q0.970 0.875 1.027 0.674" stroke="hsl(0.0,100%,35%)" stroke-width="0.00034"></path>
<path d="M0.564 0.891 Q0.611 0.749 0.343 0.695" stroke="hsl(0.0,100%,35%)" stroke-width="0.00029"></path>
<path d="M0.564 0.891 Q1.444 0.597 1.063 0.103" stroke="hsl(0.0,100%,35%)" stroke-width="0.00819"></path>
<path d="M0.564 0.891 Q1.072 0.773 0.952 0.499" stroke="hsl(0.0,100%,35%)" stroke-width="0.01495"></path>
<path d="M0.564 0.891 Q1.538 0.675 1.330 0.153" stroke="hsl(0.0,100%,35%)" stroke-width="0.01924"></path>
<path d="M0.564 0.891 Q0.751 0.803 0.620 0.693" stroke="hsl(0.0,100%,35%)" stroke-width="0.00103"></path>
<path d="M0.564 0.891 Q0.929 0.948 1.119 0.782" stroke="hsl(0.0,100%,35%)" stroke-width="0.00069"></path>
<path d="M0.564 0.891 Q1.589 0.768 1.574 0.241" stroke="hsl(0.0,100%,35%)" stroke-width="0.00464"></path>
<path d="M0.564 0.891 Q0.976 0.894 1.071 0.693" stroke="hsl(0.0,100%,35%)" stroke-width="0.00046"></path>
<path d="M0.564 0.891 Q1.193 0.666 0.891 0.309" stroke="hsl(0.0,100%,35%)" stroke-width="0.00023"></path>
<path d="M0.564 0.891 Q1.259 0.737 1.110 0.364" stroke="hsl(0.0,100%,35%)" stroke-width="0.00097"></path>
<path d="M0.952 0.499 Q0.444 0.618 0.564 0.891" stroke="hsl(0.0,100%,35%)" stroke-width="0.00527"></path>
<path d="M0.952 0.499 Q1.325 0.323 1.063 0.103" stroke="hsl(0.0,100%,35%)" stroke-width="0.00561"></path>
<path d="M0.952 0.499 Q0.548 0.728 0.905 0.975" stroke="hsl(0.0,100%,35%)" stroke-width="0.00275"></path>
<path d="M0.952 0.499 Q1.418 0.402 1.330 0.153" stroke="hsl(0.0,100%,35%)" stroke-width="0.00584"></path>
<path d="M0.952 0.499 Q1.469 0.495 1.574 0.241" stroke="hsl(0.0,100%,35%)" stroke-width="0.00103"></path>
<path d="M0.905 0.975 Q0.801 0.865 0.564 0.891" stroke="hsl(0.0,100%,35%)" stroke-width="0.16366"></path>
<path d="M0.905 0.975 Q1.098 0.845 0.887 0.723" stroke="hsl(0.0,100%,35%)" stroke-width="0.00292"></path>
<path d="M0.905 0.975 Q1.397 0.805 1.173 0.528" stroke="hsl(0.0,100%,35%)" stroke-width="0.00017"></path>
<path d="M0.905 0.975 Q0.991 0.704 0.482 0.603" stroke="hsl(0.0,100%,35%)" stroke-width="0.00384"></path>
<path d="M0.905 0.975 Q1.775 0.649 1.330 0.153" stroke="hsl(0.0,100%,35%)" stroke-width="0.01695"></path>
<path d="M0.905 0.975 Q1.309 0.746 0.952 0.499" stroke="hsl(0.0,100%,35%)" stroke-width="0.00052"></path>
<path d="M0.905 0.975 Q1.682 0.571 1.063 0.103" stroke="hsl(0.0,100%,35%)" stroke-width="0.00034"></path>
<path d="M0.905 0.975 Q1.826 0.742 1.574 0.241" stroke="hsl(0.0,100%,35%)" stroke-width="0.00074"></path>
<path d="M1.330 0.153 Q0.356 0.369 0.564 0.891" stroke="hsl(0.0,100%,35%)" stroke-width="0.00258"></path>
<path d="M1.330 0.153 Q0.460 0.479 0.905 0.975" stroke="hsl(0.0,100%,35%)" stroke-width="0.02697"></path>
<path d="M1.330 0.153 Q1.237 0.075 1.063 0.103" stroke="hsl(0.0,100%,35%)" stroke-width="0.01397"></path>
<path d="M1.330 0.153 Q0.864 0.250 0.952 0.499" stroke="hsl(0.0,100%,35%)" stroke-width="0.01586"></path>
<path d="M1.330 0.153 Q1.381 0.246 1.574 0.241" stroke="hsl(0.0,100%,35%)" stroke-width="0.01065"></path>
<path d="M1.330 0.153 Q0.985 0.143 0.891 0.309" stroke="hsl(0.0,100%,35%)" stroke-width="0.00029"></path>
<path d="M1.063 0.103 Q0.691 0.279 0.952 0.499" stroke="hsl(0.0,100%,35%)" stroke-width="0.00596"></path>
<path d="M1.063 0.103 Q0.183 0.397 0.564 0.891" stroke="hsl(0.0,100%,35%)" stroke-width="0.00218"></path>
<path d="M1.063 0.103 Q0.287 0.507 0.905 0.975" stroke="hsl(0.0,100%,35%)" stroke-width="0.00424"></path>
<path d="M1.063 0.103 Q1.157 0.181 1.330 0.153" stroke="hsl(0.0,100%,35%)" stroke-width="0.00596"></path>
<path d="M1.063 0.103 Q1.208 0.274 1.574 0.241" stroke="hsl(0.0,100%,35%)" stroke-width="0.00017"></path>
<path d="M0.772 0.594 Q0.430 0.701 0.564 0.891" stroke="hsl(0.0,100%,35%)" stroke-width="0.00235"></path>
<path d="M0.772 0.594 Q0.534 0.811 0.905 0.975" stroke="hsl(0.0,100%,35%)" stroke-width="0.00040"></path>
<path d="M0.772 0.594 Q1.404 0.485 1.330 0.153" stroke="hsl(0.0,100%,35%)" stroke-width="0.00023"></path>
<path d="M0.593 0.709 Q0.433 0.795 0.564 0.891" stroke="hsl(0.0,100%,35%)" stroke-width="0.00544"></path>
<path d="M0.593 0.709 Q0.729 0.775 0.887 0.723" stroke="hsl(0.0,100%,35%)" stroke-width="0.00515"></path>
<path d="M0.593 0.709 Q0.622 0.634 0.482 0.603" stroke="hsl(0.0,100%,35%)" stroke-width="0.00040"></path>
<path d="M0.887 0.723 Q0.590 0.742 0.564 0.891" stroke="hsl(0.0,100%,35%)" stroke-width="0.02147"></path>
<path d="M0.887 0.723 Q1.186 0.682 1.173 0.528" stroke="hsl(0.0,100%,35%)" stroke-width="0.00229"></path>
<path d="M0.887 0.723 Q0.694 0.852 0.905 0.975" stroke="hsl(0.0,100%,35%)" stroke-width="0.00029"></path>
<path d="M0.887 0.723 Q0.780 0.582 0.482 0.603" stroke="hsl(0.0,100%,35%)" stroke-width="0.00229"></path>
<path d="M0.887 0.723 Q1.108 0.604 0.926 0.471" stroke="hsl(0.0,100%,35%)" stroke-width="0.00023"></path>
<path d="M0.482 0.603 Q0.292 0.764 0.564 0.891" stroke="hsl(0.0,100%,35%)" stroke-width="0.00424"></path>
<path d="M0.482 0.603 Q0.396 0.874 0.905 0.975" stroke="hsl(0.0,100%,35%)" stroke-width="0.00074"></path>
<path d="M0.482 0.603 Q0.589 0.744 0.887 0.723" stroke="hsl(0.0,100%,35%)" stroke-width="0.00074"></path>
<path d="M1.389 0.737 Q0.853 0.649 0.564 0.891" stroke="hsl(0.0,100%,35%)" stroke-width="0.00017"></path>
<path d="M1.173 0.528 Q0.577 0.588 0.564 0.891" stroke="hsl(0.0,100%,35%)" stroke-width="0.00641"></path>
<path d="M1.173 0.528 Q0.681 0.698 0.905 0.975" stroke="hsl(0.0,100%,35%)" stroke-width="0.00080"></path>
<path d="M1.173 0.528 Q0.874 0.568 0.887 0.723" stroke="hsl(0.0,100%,35%)" stroke-width="0.01002"></path>
<path d="M1.173 0.528 Q0.971 0.663 1.191 0.791" stroke="hsl(0.0,100%,35%)" stroke-width="0.00023"></path>
<path d="M1.173 0.528 Q0.767 0.427 0.482 0.603" stroke="hsl(0.0,100%,35%)" stroke-width="0.00034"></path>
<path d="M0.620 0.693 Q1.407 0.565 1.330 0.153" stroke="hsl(0.0,100%,35%)" stroke-width="0.00029"></path>
<path d="M1.027 0.674 Q0.621 0.690 0.564 0.891" stroke="hsl(0.0,100%,35%)" stroke-width="0.00017"></path>
<path d="M1.191 0.791 Q0.797 0.716 0.564 0.891" stroke="hsl(0.0,100%,35%)" stroke-width="0.00040"></path>
<path d="M0.891 0.309 Q1.236 0.319 1.330 0.153" stroke="hsl(0.0,100%,35%)" stroke-width="0.00086"></path>
<path d="M0.891 0.309 Q1.287 0.412 1.574 0.241" stroke="hsl(0.0,100%,35%)" stroke-width="0.00040"></path>
<path d="M1.574 0.241 Q0.653 0.474 0.905 0.975" stroke="hsl(0.0,100%,35%)" stroke-width="0.00578"></path>
<path d="M1.574 0.241 Q0.549 0.364 0.564 0.891" stroke="hsl(0.0,100%,35%)" stroke-width="0.00286"></path>
<path d="M1.574 0.241 Q1.056 0.246 0.952 0.499" stroke="hsl(0.0,100%,35%)" stroke-width="0.00069"></path>
<path d="M1.574 0.241 Q1.429 0.070 1.063 0.103" stroke="hsl(0.0,100%,35%)" stroke-width="0.00046"></path>
<path d="M1.574 0.241 Q1.523 0.148 1.330 0.153" stroke="hsl(0.0,100%,35%)" stroke-width="0.00876"></path>
<path d="M1.574 0.241 Q1.178 0.139 0.891 0.309" stroke="hsl(0.0,100%,35%)" stroke-width="0.00017"></path>
<path d="M0.226 0.708 Q0.248 0.867 0.564 0.891" stroke="hsl(0.0,100%,35%)" stroke-width="0.00017"></path>
<path d="M1.071 0.693 Q0.659 0.691 0.564 0.891" stroke="hsl(0.0,100%,35%)" stroke-width="0.00046"></path>
<path d="M1.071 0.693 Q1.167 0.572 0.952 0.499" stroke="hsl(0.0,100%,35%)" stroke-width="0.00017"></path>
<path d="M1.312 0.237 Q1.389 0.199 1.330 0.153" stroke="hsl(0.0,100%,35%)" stroke-width="0.00229"></path>
<path d="M1.312 0.237 Q0.415 0.415 0.564 0.891" stroke="hsl(0.0,100%,35%)" stroke-width="0.00109"></path>
<path d="M1.312 0.237 Q1.440 0.291 1.574 0.241" stroke="hsl(0.0,100%,35%)" stroke-width="0.00017"></path>
<path d="M0.917 0.786 Q0.656 0.768 0.564 0.891" stroke="hsl(0.0,100%,35%)" stroke-width="0.00092"></path>
<path d="M0.917 0.786 Q0.953 0.748 0.887 0.723" stroke="hsl(0.0,100%,35%)" stroke-width="0.00029"></path>
<path d="M0.780 0.588 Q0.533 0.806 0.905 0.975" stroke="hsl(0.0,100%,35%)" stroke-width="0.00040"></path>
<path d="M0.780 0.588 Q0.429 0.696 0.564 0.891" stroke="hsl(0.0,100%,35%)" stroke-width="0.00120"></path>
<path d="M0.780 0.588 Q1.403 0.480 1.330 0.153" stroke="hsl(0.0,100%,35%)" stroke-width="0.00023"></path>
<path d="M0.803 0.564 Q0.422 0.680 0.564 0.891" stroke="hsl(0.0,100%,35%)" stroke-width="0.00143"></path>
<path d="M0.803 0.564 Q0.526 0.790 0.905 0.975" stroke="hsl(0.0,100%,35%)" stroke-width="0.00092"></path>
<path d="M0.803 0.564 Q0.929 0.562 0.952 0.499" stroke="hsl(0.0,100%,35%)" stroke-width="0.00023"></path>
<path d="M0.803 0.564 Q1.447 0.557 1.574 0.241" stroke="hsl(0.0,100%,35%)" stroke-width="0.00040"></path>
<path d="M0.803 0.564 Q1.396 0.464 1.330 0.153" stroke="hsl(0.0,100%,35%)" stroke-width="0.00074"></path>
<path d="M1.457 0.365 Q1.614 0.326 1.574 0.241" stroke="hsl(0.0,100%,35%)" stroke-width="0.00029"></path>
<path d="M1.457 0.365 Q0.589 0.449 0.564 0.891" stroke="hsl(0.0,100%,35%)" stroke-width="0.00017"></path>
</g>
<text x="1.110" y="0.356" font-size="0.016104" fill="hsl(0.0,100%,20%)">art-snake</text>
<text x="0.564" y="0.832" font-size="0.119634" fill="hsl(0.0,100%,20%)">thestig</text>
<text x="0.952" y="0.478" font-size="0.042984" fill="hsl(0.0,100%,20%)">hnakashima</text>
<text x="0.905" y="0.921" font-size="0.107349" fill="hsl(0.0,100%,20%)">tsepez</text>
<text x="1.330" y="0.120" font-size="0.065586" fill="hsl(0.0,100%,20%)">dsinclair</text>
<text x="1.063" y="0.084" font-size="0.038483" fill="hsl(0.0,100%,20%)">rharrison</text>
<text x="0.926" y="0.468" font-size="0.005830" fill="hsl(0.0,100%,20%)">weili</text>
<text x="0.772" y="0.589" font-size="0.009736" fill="hsl(0.0,100%,20%)">asweintraub</text>
<text x="0.593" y="0.700" font-size="0.018628" fill="hsl(0.0,100%,20%)">awscreen</text>
<text x="0.887" y="0.698" font-size="0.049102" fill="hsl(0.0,100%,20%)">nigi</text>
<text x="0.482" y="0.591" font-size="0.024769" fill="hsl(0.0,100%,20%)">dhoss</text>
<text x="0.829" y="2.804" font-size="0.002316" fill="hsl(0.0,100%,20%)">bratell</text>
<text x="1.389" y="0.735" font-size="0.004012" fill="hsl(0.0,100%,20%)">brianosman</text>
<text x="1.173" y="0.514" font-size="0.027473" fill="hsl(0.0,100%,20%)">kmoon</text>
<text x="0.620" y="0.689" font-size="0.006949" fill="hsl(0.0,100%,20%)">reed</text>
<text x="1.027" y="0.671" font-size="0.004822" fill="hsl(0.0,100%,20%)">brucedawson</text>
<text x="1.191" y="0.787" font-size="0.008871" fill="hsl(0.0,100%,20%)">bungeman</text>
<text x="0.891" y="0.305" font-size="0.008244" fill="hsl(0.0,100%,20%)">caryclark</text>
<text x="1.574" y="0.224" font-size="0.034306" fill="hsl(0.0,100%,20%)">npm</text>
<text x="1.468" y="0.482" font-size="0.002316" fill="hsl(0.0,100%,20%)">dalecurtis</text>
<text x="0.998" y="0.741" font-size="0.003538" fill="hsl(0.0,100%,20%)">thomasanderson</text>
<text x="0.668" y="0.595" font-size="0.007798" fill="hsl(0.0,100%,20%)">drott</text>
<text x="1.118" y="0.200" font-size="0.001891" fill="hsl(0.0,100%,20%)">halcanary</text>
<text x="0.343" y="0.693" font-size="0.003276" fill="hsl(0.0,100%,20%)">rbpotter</text>
<text x="0.226" y="0.706" font-size="0.003276" fill="hsl(0.0,100%,20%)">hans</text>
<text x="0.342" y="0.466" font-size="0.001337" fill="hsl(0.0,100%,20%)">hwennborg</text>
<text x="1.071" y="0.690" font-size="0.006129" fill="hsl(0.0,100%,20%)">xlou</text>
<text x="1.312" y="0.232" font-size="0.010699" fill="hsl(0.0,100%,20%)">janeliulwq</text>
<text x="0.917" y="0.783" font-size="0.006687" fill="hsl(0.0,100%,20%)">kjlubick</text>
<text x="0.780" y="0.583" font-size="0.009457" fill="hsl(0.0,100%,20%)">thakis</text>
<text x="0.306" y="3.698" font-size="0.004229" fill="hsl(0.0,100%,20%)">pkasting</text>
<text x="1.119" y="0.780" font-size="0.005350" fill="hsl(0.0,100%,20%)">palmer</text>
<text x="0.885" y="0.211" font-size="0.002316" fill="hsl(0.0,100%,20%)">stephana</text>
<text x="0.526" y="0.090" font-size="0.002316" fill="hsl(0.0,100%,20%)">tandrii</text>
<text x="0.385" y="0.648" font-size="0.001337" fill="hsl(0.0,100%,20%)">jbudorick</text>
<text x="0.202" y="0.750" font-size="0.001337" fill="hsl(0.0,100%,20%)">ochang</text>
<text x="0.670" y="0.536" font-size="0.001891" fill="hsl(0.0,100%,20%)">jochen</text>
<text x="1.210" y="0.958" font-size="0.001891" fill="hsl(0.0,100%,20%)">dcheng</text>
<text x="0.803" y="0.559" font-size="0.010865" fill="hsl(0.0,100%,20%)">vmiklos</text>
<text x="1.226" y="0.280" font-size="0.002675" fill="hsl(0.0,100%,20%)">vtsyrklevich</text>
<text x="1.457" y="0.362" font-size="0.004229" fill="hsl(0.0,100%,20%)">wileyrr</text>
</svg>
