<svg width="4000" height="2000" viewBox="-0.025 -0.025 2.05 1.05" xmlns="http://www.w3.org/2000/svg">
  <style>
    path {
      fill: none;
      stroke-linecap: round;
      stroke-opacity: 0.4;
    }

    text {
      text-anchor: middle;
      alignment-baseline: hanging;
    }
  </style>
  <g opacity="0.4">
<path d="M1.526 0.397 Q1.560 0.585 1.936 0.610" stroke="hsl(0.0,100%,35%)" stroke-width="0.00567"></path>
<path d="M1.526 0.397 Q1.322 0.717 1.902 0.887" stroke="hsl(0.0,100%,35%)" stroke-width="0.00113"></path>
<path d="M1.526 0.397 Q1.324 0.578 1.634 0.717" stroke="hsl(0.0,100%,35%)" stroke-width="0.00028"></path>
<path d="M1.936 0.610 Q1.698 0.741 1.902 0.887" stroke="hsl(0.0,100%,35%)" stroke-width="0.15687"></path>
<path d="M1.936 0.610 Q2.173 0.383 1.782 0.218" stroke="hsl(0.0,100%,35%)" stroke-width="0.01787"></path>
<path d="M1.936 0.610 Q1.802 0.287 1.143 0.281" stroke="hsl(0.0,100%,35%)" stroke-width="0.00454"></path>
<path d="M1.936 0.610 Q2.010 0.352 1.522 0.259" stroke="hsl(0.0,100%,35%)" stroke-width="0.00199"></path>
<path d="M1.936 0.610 Q1.987 0.475 1.734 0.420" stroke="hsl(0.0,100%,35%)" stroke-width="0.00709"></path>
<path d="M1.936 0.610 Q2.119 0.511 1.966 0.401" stroke="hsl(0.0,100%,35%)" stroke-width="0.01362"></path>
<path d="M1.936 0.610 Q1.725 0.414 1.296 0.474" stroke="hsl(0.0,100%,35%)" stroke-width="0.00028"></path>
<path d="M1.936 0.610 Q1.683 0.533 1.477 0.639" stroke="hsl(0.0,100%,35%)" stroke-width="0.00028"></path>
<path d="M1.936 0.610 Q1.700 0.603 1.634 0.717" stroke="hsl(0.0,100%,35%)" stroke-width="0.00057"></path>
<path d="M1.936 0.610 Q2.136 0.423 1.815 0.285" stroke="hsl(0.0,100%,35%)" stroke-width="0.00085"></path>
<path d="M1.936 0.610 Q2.073 0.469 1.828 0.371" stroke="hsl(0.0,100%,35%)" stroke-width="0.00199"></path>
<path d="M1.902 0.887 Q2.141 0.755 1.936 0.610" stroke="hsl(0.0,100%,35%)" stroke-width="0.15999"></path>
<path d="M1.902 0.887 Q2.323 0.656 1.966 0.401" stroke="hsl(0.0,100%,35%)" stroke-width="0.00028"></path>
<path d="M1.902 0.887 Q2.377 0.528 1.782 0.218" stroke="hsl(0.0,100%,35%)" stroke-width="0.00057"></path>
</g>
<text x="1.526" y="0.387" font-size="0.019470" fill="hsl(0.0,100%,20%)">dhoss</text>
<text x="1.936" y="0.539" font-size="0.140992" fill="hsl(0.0,100%,20%)">thestig</text>
<text x="1.902" y="0.821" font-size="0.130550" fill="hsl(0.0,100%,20%)">tsepez</text>
<text x="1.634" y="0.713" font-size="0.006745" fill="hsl(0.0,100%,20%)">thomasanderson</text>
<text x="1.782" y="0.202" font-size="0.031394" fill="hsl(0.0,100%,20%)">hnakashima</text>
<text x="1.143" y="0.274" font-size="0.015576" fill="hsl(0.0,100%,20%)">reed</text>
<text x="1.522" y="0.254" font-size="0.010302" fill="hsl(0.0,100%,20%)">palmer</text>
<text x="1.734" y="0.410" font-size="0.019470" fill="hsl(0.0,100%,20%)">npm</text>
<text x="1.966" y="0.387" font-size="0.027258" fill="hsl(0.0,100%,20%)">dsinclair</text>
<text x="1.296" y="0.472" font-size="0.003894" fill="hsl(0.0,100%,20%)">bungeman</text>
<text x="1.477" y="0.637" font-size="0.003894" fill="hsl(0.0,100%,20%)">halcanary</text>
<text x="1.680" y="-29.114" font-size="0.003894" fill="hsl(0.0,100%,20%)">jbudorick</text>
<text x="1.815" y="0.281" font-size="0.006745" fill="hsl(0.0,100%,20%)">thakis</text>
<text x="1.828" y="0.366" font-size="0.010302" fill="hsl(0.0,100%,20%)">weili</text>
</svg>
