<svg width="4000" height="2000" viewBox="-0.025 -0.025 2.05 1.05" xmlns="http://www.w3.org/2000/svg">
  <style>
    path {
      fill: none;
      stroke-linecap: round;
      stroke-opacity: 0.4;
    }

    text {
      text-anchor: middle;
      alignment-baseline: hanging;
    }
  </style>
  <g opacity="0.4">
<path d="M1.630 0.873 Q1.208 0.666 0.712 0.827" stroke="hsl(0.0,100%,35%)" stroke-width="0.00160"></path>
<path d="M1.630 0.873 Q1.561 0.559 0.934 0.524" stroke="hsl(0.0,100%,35%)" stroke-width="0.00023"></path>
<path d="M1.630 0.873 Q1.393 0.674 0.954 0.746" stroke="hsl(0.0,100%,35%)" stroke-width="0.00029"></path>
<path d="M1.630 0.873 Q1.762 0.717 1.487 0.618" stroke="hsl(0.0,100%,35%)" stroke-width="0.00497"></path>
<path d="M0.712 0.827 Q0.897 0.835 0.954 0.746" stroke="hsl(0.0,100%,35%)" stroke-width="0.13572"></path>
<path d="M0.712 0.827 Q0.967 0.742 0.858 0.600" stroke="hsl(0.0,100%,35%)" stroke-width="0.00160"></path>
<path d="M0.712 0.827 Q0.855 0.660 0.561 0.554" stroke="hsl(0.0,100%,35%)" stroke-width="0.03097"></path>
<path d="M0.712 0.827 Q1.119 0.810 1.176 0.608" stroke="hsl(0.0,100%,35%)" stroke-width="0.00143"></path>
<path d="M0.712 0.827 Q1.030 0.466 0.395 0.232" stroke="hsl(0.0,100%,35%)" stroke-width="0.00377"></path>
<path d="M0.712 0.827 Q1.067 0.785 1.064 0.603" stroke="hsl(0.0,100%,35%)" stroke-width="0.00034"></path>
<path d="M0.712 0.827 Q0.909 0.720 0.744 0.601" stroke="hsl(0.0,100%,35%)" stroke-width="0.00091"></path>
<path d="M0.712 0.827 Q0.914 0.735 0.780 0.616" stroke="hsl(0.0,100%,35%)" stroke-width="0.00686"></path>
<path d="M0.712 0.827 Q1.301 0.766 1.311 0.465" stroke="hsl(0.0,100%,35%)" stroke-width="0.00057"></path>
<path d="M0.712 0.827 Q0.771 0.702 0.541 0.646" stroke="hsl(0.0,100%,35%)" stroke-width="0.00034"></path>
<path d="M0.712 0.827 Q1.048 0.770 1.011 0.594" stroke="hsl(0.0,100%,35%)" stroke-width="0.00029"></path>
<path d="M0.712 0.827 Q1.470 0.986 1.948 0.651" stroke="hsl(0.0,100%,35%)" stroke-width="0.00817"></path>
<path d="M0.712 0.827 Q1.065 0.720 0.934 0.524" stroke="hsl(0.0,100%,35%)" stroke-width="0.01491"></path>
<path d="M0.712 0.827 Q1.266 0.877 1.487 0.618" stroke="hsl(0.0,100%,35%)" stroke-width="0.01920"></path>
<path d="M0.712 0.827 Q0.933 0.726 0.785 0.596" stroke="hsl(0.0,100%,35%)" stroke-width="0.00103"></path>
<path d="M0.712 0.827 Q1.129 0.834 1.234 0.631" stroke="hsl(0.0,100%,35%)" stroke-width="0.00069"></path>
<path d="M0.712 0.827 Q1.036 0.988 1.423 0.866" stroke="hsl(0.0,100%,35%)" stroke-width="0.00463"></path>
<path d="M0.712 0.827 Q1.027 0.755 0.957 0.586" stroke="hsl(0.0,100%,35%)" stroke-width="0.00046"></path>
<path d="M0.712 0.827 Q0.928 0.949 1.214 0.870" stroke="hsl(0.0,100%,35%)" stroke-width="0.00023"></path>
<path d="M0.712 0.827 Q1.134 1.033 1.630 0.873" stroke="hsl(0.0,100%,35%)" stroke-width="0.00097"></path>
<path d="M0.934 0.524 Q0.581 0.631 0.712 0.827" stroke="hsl(0.0,100%,35%)" stroke-width="0.00526"></path>
<path d="M0.934 0.524 Q1.339 0.791 1.948 0.651" stroke="hsl(0.0,100%,35%)" stroke-width="0.00560"></path>
<path d="M0.934 0.524 Q0.766 0.639 0.954 0.746" stroke="hsl(0.0,100%,35%)" stroke-width="0.00274"></path>
<path d="M0.934 0.524 Q1.135 0.682 1.487 0.618" stroke="hsl(0.0,100%,35%)" stroke-width="0.00583"></path>
<path d="M0.934 0.524 Q0.905 0.793 1.423 0.866" stroke="hsl(0.0,100%,35%)" stroke-width="0.00103"></path>
<path d="M0.954 0.746 Q0.768 0.738 0.712 0.827" stroke="hsl(0.0,100%,35%)" stroke-width="0.16395"></path>
<path d="M0.954 0.746 Q0.911 0.572 0.561 0.554" stroke="hsl(0.0,100%,35%)" stroke-width="0.00291"></path>
<path d="M0.954 0.746 Q1.086 0.377 0.395 0.232" stroke="hsl(0.0,100%,35%)" stroke-width="0.00017"></path>
<path d="M0.954 0.746 Q0.971 0.647 0.780 0.616" stroke="hsl(0.0,100%,35%)" stroke-width="0.00383"></path>
<path d="M0.954 0.746 Q1.323 0.789 1.487 0.618" stroke="hsl(0.0,100%,35%)" stroke-width="0.01691"></path>
<path d="M0.954 0.746 Q1.121 0.631 0.934 0.524" stroke="hsl(0.0,100%,35%)" stroke-width="0.00051"></path>
<path d="M0.954 0.746 Q1.527 0.898 1.948 0.651" stroke="hsl(0.0,100%,35%)" stroke-width="0.00034"></path>
<path d="M0.954 0.746 Q1.092 0.900 1.423 0.866" stroke="hsl(0.0,100%,35%)" stroke-width="0.00074"></path>
<path d="M1.487 0.618 Q0.932 0.567 0.712 0.827" stroke="hsl(0.0,100%,35%)" stroke-width="0.00257"></path>
<path d="M1.487 0.618 Q1.118 0.575 0.954 0.746" stroke="hsl(0.0,100%,35%)" stroke-width="0.02692"></path>
<path d="M1.487 0.618 Q1.691 0.727 1.948 0.651" stroke="hsl(0.0,100%,35%)" stroke-width="0.01394"></path>
<path d="M1.487 0.618 Q1.285 0.460 0.934 0.524" stroke="hsl(0.0,100%,35%)" stroke-width="0.01583"></path>
<path d="M1.487 0.618 Q1.256 0.729 1.423 0.866" stroke="hsl(0.0,100%,35%)" stroke-width="0.01063"></path>
<path d="M1.487 0.618 Q1.148 0.690 1.214 0.870" stroke="hsl(0.0,100%,35%)" stroke-width="0.00029"></path>
<path d="M1.948 0.651 Q1.543 0.385 0.934 0.524" stroke="hsl(0.0,100%,35%)" stroke-width="0.00594"></path>
<path d="M1.948 0.651 Q1.190 0.492 0.712 0.827" stroke="hsl(0.0,100%,35%)" stroke-width="0.00217"></path>
<path d="M1.948 0.651 Q1.375 0.500 0.954 0.746" stroke="hsl(0.0,100%,35%)" stroke-width="0.00423"></path>
<path d="M1.948 0.651 Q1.744 0.542 1.487 0.618" stroke="hsl(0.0,100%,35%)" stroke-width="0.00594"></path>
<path d="M1.948 0.651 Q1.514 0.653 1.423 0.866" stroke="hsl(0.0,100%,35%)" stroke-width="0.00017"></path>
<path d="M0.823 0.589 Q0.577 0.686 0.712 0.827" stroke="hsl(0.0,100%,35%)" stroke-width="0.00234"></path>
<path d="M0.823 0.589 Q0.763 0.694 0.954 0.746" stroke="hsl(0.0,100%,35%)" stroke-width="0.00040"></path>
<path d="M0.823 0.589 Q1.132 0.736 1.487 0.618" stroke="hsl(0.0,100%,35%)" stroke-width="0.00023"></path>
<path d="M0.244 0.464 Q0.187 0.739 0.712 0.827" stroke="hsl(0.0,100%,35%)" stroke-width="0.00543"></path>
<path d="M0.244 0.464 Q0.330 0.572 0.561 0.554" stroke="hsl(0.0,100%,35%)" stroke-width="0.00514"></path>
<path d="M0.244 0.464 Q0.389 0.647 0.780 0.616" stroke="hsl(0.0,100%,35%)" stroke-width="0.00040"></path>
<path d="M0.561 0.554 Q0.418 0.721 0.712 0.827" stroke="hsl(0.0,100%,35%)" stroke-width="0.02143"></path>
<path d="M0.561 0.554 Q0.736 0.360 0.395 0.232" stroke="hsl(0.0,100%,35%)" stroke-width="0.00229"></path>
<path d="M0.561 0.554 Q0.604 0.729 0.954 0.746" stroke="hsl(0.0,100%,35%)" stroke-width="0.00029"></path>
<path d="M0.561 0.554 Q0.621 0.629 0.780 0.616" stroke="hsl(0.0,100%,35%)" stroke-width="0.00229"></path>
<path d="M0.561 0.554 Q1.007 0.660 1.311 0.465" stroke="hsl(0.0,100%,35%)" stroke-width="0.00023"></path>
<path d="M0.780 0.616 Q0.578 0.708 0.712 0.827" stroke="hsl(0.0,100%,35%)" stroke-width="0.00423"></path>
<path d="M0.780 0.616 Q0.763 0.716 0.954 0.746" stroke="hsl(0.0,100%,35%)" stroke-width="0.00074"></path>
<path d="M0.780 0.616 Q0.720 0.542 0.561 0.554" stroke="hsl(0.0,100%,35%)" stroke-width="0.00074"></path>
<path d="M0.353 -0.681 Q-0.674 0.144 0.712 0.827" stroke="hsl(0.0,100%,35%)" stroke-width="0.00017"></path>
<path d="M0.395 0.232 Q0.077 0.593 0.712 0.827" stroke="hsl(0.0,100%,35%)" stroke-width="0.00640"></path>
<path d="M0.395 0.232 Q0.263 0.601 0.954 0.746" stroke="hsl(0.0,100%,35%)" stroke-width="0.00080"></path>
<path d="M0.395 0.232 Q0.220 0.426 0.561 0.554" stroke="hsl(0.0,100%,35%)" stroke-width="0.01000"></path>
<path d="M0.395 0.232 Q0.485 0.576 1.176 0.608" stroke="hsl(0.0,100%,35%)" stroke-width="0.00023"></path>
<path d="M0.395 0.232 Q0.280 0.501 0.780 0.616" stroke="hsl(0.0,100%,35%)" stroke-width="0.00034"></path>
<path d="M0.785 0.596 Q1.118 0.748 1.487 0.618" stroke="hsl(0.0,100%,35%)" stroke-width="0.00029"></path>
<path d="M0.541 0.646 Q0.482 0.771 0.712 0.827" stroke="hsl(0.0,100%,35%)" stroke-width="0.00017"></path>
<path d="M1.176 0.608 Q0.769 0.625 0.712 0.827" stroke="hsl(0.0,100%,35%)" stroke-width="0.00040"></path>
<path d="M1.214 0.870 Q1.552 0.799 1.487 0.618" stroke="hsl(0.0,100%,35%)" stroke-width="0.00086"></path>
<path d="M1.214 0.870 Q1.322 0.910 1.423 0.866" stroke="hsl(0.0,100%,35%)" stroke-width="0.00040"></path>
<path d="M1.423 0.866 Q1.284 0.712 0.954 0.746" stroke="hsl(0.0,100%,35%)" stroke-width="0.00577"></path>
<path d="M1.423 0.866 Q1.098 0.704 0.712 0.827" stroke="hsl(0.0,100%,35%)" stroke-width="0.00286"></path>
<path d="M1.423 0.866 Q1.451 0.597 0.934 0.524" stroke="hsl(0.0,100%,35%)" stroke-width="0.00069"></path>
<path d="M1.423 0.866 Q1.857 0.864 1.948 0.651" stroke="hsl(0.0,100%,35%)" stroke-width="0.00046"></path>
<path d="M1.423 0.866 Q1.653 0.755 1.487 0.618" stroke="hsl(0.0,100%,35%)" stroke-width="0.00874"></path>
<path d="M1.423 0.866 Q1.314 0.826 1.214 0.870" stroke="hsl(0.0,100%,35%)" stroke-width="0.00017"></path>
<path d="M0.829 0.189 Q0.261 0.485 0.712 0.827" stroke="hsl(0.0,100%,35%)" stroke-width="0.00017"></path>
<path d="M0.957 0.586 Q0.641 0.657 0.712 0.827" stroke="hsl(0.0,100%,35%)" stroke-width="0.00046"></path>
<path d="M0.957 0.586 Q0.994 0.550 0.934 0.524" stroke="hsl(0.0,100%,35%)" stroke-width="0.00017"></path>
<path d="M1.752 0.607 Q1.610 0.560 1.487 0.618" stroke="hsl(0.0,100%,35%)" stroke-width="0.00229"></path>
<path d="M1.752 0.607 Q1.056 0.509 0.712 0.827" stroke="hsl(0.0,100%,35%)" stroke-width="0.00109"></path>
<path d="M1.752 0.607 Q1.380 0.671 1.423 0.866" stroke="hsl(0.0,100%,35%)" stroke-width="0.00017"></path>
<path d="M0.439 0.394 Q0.230 0.665 0.712 0.827" stroke="hsl(0.0,100%,35%)" stroke-width="0.00091"></path>
<path d="M0.439 0.394 Q0.372 0.499 0.561 0.554" stroke="hsl(0.0,100%,35%)" stroke-width="0.00029"></path>
<path d="M0.744 0.601 Q0.733 0.715 0.954 0.746" stroke="hsl(0.0,100%,35%)" stroke-width="0.00040"></path>
<path d="M0.744 0.601 Q0.547 0.707 0.712 0.827" stroke="hsl(0.0,100%,35%)" stroke-width="0.00120"></path>
<path d="M0.744 0.601 Q1.102 0.758 1.487 0.618" stroke="hsl(0.0,100%,35%)" stroke-width="0.00023"></path>
<path d="M0.587 0.640 Q0.500 0.759 0.712 0.827" stroke="hsl(0.0,100%,35%)" stroke-width="0.00034"></path>
<path d="M1.373 0.392 Q0.694 0.477 0.712 0.827" stroke="hsl(0.0,100%,35%)" stroke-width="0.00143"></path>
<path d="M1.373 0.392 Q0.880 0.485 0.954 0.746" stroke="hsl(0.0,100%,35%)" stroke-width="0.00091"></path>
<path d="M1.373 0.392 Q1.047 0.370 0.934 0.524" stroke="hsl(0.0,100%,35%)" stroke-width="0.00023"></path>
<path d="M1.373 0.392 Q1.019 0.639 1.423 0.866" stroke="hsl(0.0,100%,35%)" stroke-width="0.00040"></path>
<path d="M1.373 0.392 Q1.249 0.528 1.487 0.618" stroke="hsl(0.0,100%,35%)" stroke-width="0.00074"></path>
<path d="M1.001 0.576 Q0.980 0.805 1.423 0.866" stroke="hsl(0.0,100%,35%)" stroke-width="0.00029"></path>
<path d="M1.001 0.576 Q0.656 0.643 0.712 0.827" stroke="hsl(0.0,100%,35%)" stroke-width="0.00017"></path>
</g>
<text x="1.630" y="0.865" font-size="0.016088" fill="hsl(0.0,100%,20%)">art-snake</text>
<text x="0.712" y="0.767" font-size="0.119683" fill="hsl(0.0,100%,20%)">thestig</text>
<text x="0.934" y="0.503" font-size="0.042940" fill="hsl(0.0,100%,20%)">hnakashima</text>
<text x="0.954" y="0.692" font-size="0.107422" fill="hsl(0.0,100%,20%)">tsepez</text>
<text x="1.487" y="0.585" font-size="0.065519" fill="hsl(0.0,100%,20%)">dsinclair</text>
<text x="1.948" y="0.632" font-size="0.038444" fill="hsl(0.0,100%,20%)">rharrison</text>
<text x="1.311" y="0.462" font-size="0.005824" fill="hsl(0.0,100%,20%)">weili</text>
<text x="0.823" y="0.584" font-size="0.009726" fill="hsl(0.0,100%,20%)">asweintraub</text>
<text x="0.244" y="0.454" font-size="0.018608" fill="hsl(0.0,100%,20%)">awscreen</text>
<text x="0.561" y="0.530" font-size="0.049052" fill="hsl(0.0,100%,20%)">nigi</text>
<text x="0.780" y="0.604" font-size="0.024743" fill="hsl(0.0,100%,20%)">dhoss</text>
<text x="1.258" y="0.611" font-size="0.002314" fill="hsl(0.0,100%,20%)">bratell</text>
<text x="0.353" y="-0.683" font-size="0.004008" fill="hsl(0.0,100%,20%)">brianosman</text>
<text x="0.395" y="0.218" font-size="0.027445" fill="hsl(0.0,100%,20%)">kmoon</text>
<text x="0.785" y="0.593" font-size="0.006942" fill="hsl(0.0,100%,20%)">reed</text>
<text x="0.541" y="0.644" font-size="0.004817" fill="hsl(0.0,100%,20%)">brucedawson</text>
<text x="1.176" y="0.603" font-size="0.008962" fill="hsl(0.0,100%,20%)">bungeman</text>
<text x="1.214" y="0.866" font-size="0.008236" fill="hsl(0.0,100%,20%)">caryclark</text>
<text x="1.423" y="0.849" font-size="0.034271" fill="hsl(0.0,100%,20%)">npm</text>
<text x="0.827" y="0.431" font-size="0.002314" fill="hsl(0.0,100%,20%)">dalecurtis</text>
<text x="1.064" y="0.601" font-size="0.003535" fill="hsl(0.0,100%,20%)">thomasanderson</text>
<text x="0.858" y="0.596" font-size="0.007790" fill="hsl(0.0,100%,20%)">drott</text>
<text x="1.711" y="0.472" font-size="0.001889" fill="hsl(0.0,100%,20%)">halcanary</text>
<text x="1.011" y="0.592" font-size="0.003273" fill="hsl(0.0,100%,20%)">rbpotter</text>
<text x="0.829" y="0.188" font-size="0.003273" fill="hsl(0.0,100%,20%)">hans</text>
<text x="1.082" y="0.036" font-size="0.001336" fill="hsl(0.0,100%,20%)">hwennborg</text>
<text x="0.957" y="0.583" font-size="0.006122" fill="hsl(0.0,100%,20%)">xlou</text>
<text x="1.752" y="0.602" font-size="0.010688" fill="hsl(0.0,100%,20%)">janeliulwq</text>
<text x="0.439" y="0.391" font-size="0.006680" fill="hsl(0.0,100%,20%)">kjlubick</text>
<text x="0.744" y="0.596" font-size="0.009447" fill="hsl(0.0,100%,20%)">thakis</text>
<text x="0.587" y="0.638" font-size="0.004225" fill="hsl(0.0,100%,20%)">pkasting</text>
<text x="1.234" y="0.629" font-size="0.005344" fill="hsl(0.0,100%,20%)">palmer</text>
<text x="1.596" y="0.343" font-size="0.002314" fill="hsl(0.0,100%,20%)">stephana</text>
<text x="1.694" y="0.467" font-size="0.002314" fill="hsl(0.0,100%,20%)">tandrii</text>
<text x="0.791" y="0.464" font-size="0.001336" fill="hsl(0.0,100%,20%)">jbudorick</text>
<text x="0.379" y="0.605" font-size="0.001336" fill="hsl(0.0,100%,20%)">ochang</text>
<text x="1.177" y="0.336" font-size="0.001889" fill="hsl(0.0,100%,20%)">jochen</text>
<text x="1.206" y="0.541" font-size="0.001889" fill="hsl(0.0,100%,20%)">dcheng</text>
<text x="1.373" y="0.386" font-size="0.010854" fill="hsl(0.0,100%,20%)">vmiklos</text>
<text x="1.510" y="0.430" font-size="0.002672" fill="hsl(0.0,100%,20%)">vtsyrklevich</text>
<text x="1.001" y="0.574" font-size="0.004225" fill="hsl(0.0,100%,20%)">wileyrr</text>
</svg>
