<svg width="4000" height="2000" viewBox="-0.025 -0.025 2.05 1.05" xmlns="http://www.w3.org/2000/svg">
  <style>
    path {
      fill: none;
      stroke-linecap: round;
      stroke-opacity: 0.4;
    }

    text {
      text-anchor: middle;
      alignment-baseline: hanging;
    }
  </style>
  <g opacity="0.4">
<path d="M1.020 0.678 Q1.050 0.914 1.517 0.951" stroke="hsl(0.0,100%,35%)" stroke-width="0.01904"></path>
<path d="M1.020 0.678 Q1.224 0.907 1.716 0.858" stroke="hsl(0.0,100%,35%)" stroke-width="0.00071"></path>
<path d="M1.020 0.678 Q1.327 0.751 1.536 0.616" stroke="hsl(0.0,100%,35%)" stroke-width="0.00071"></path>
<path d="M1.517 0.951 Q1.691 0.944 1.716 0.858" stroke="hsl(0.0,100%,35%)" stroke-width="0.12978"></path>
<path d="M1.517 0.951 Q1.369 0.711 0.868 0.731" stroke="hsl(0.0,100%,35%)" stroke-width="0.01693"></path>
<path d="M1.517 0.951 Q1.795 0.788 1.536 0.616" stroke="hsl(0.0,100%,35%)" stroke-width="0.06136"></path>
<path d="M1.517 0.951 Q1.374 0.879 1.202 0.933" stroke="hsl(0.0,100%,35%)" stroke-width="0.00071"></path>
<path d="M1.517 0.951 Q1.167 0.811 0.818 0.952" stroke="hsl(0.0,100%,35%)" stroke-width="0.00071"></path>
<path d="M1.716 0.858 Q1.542 0.865 1.517 0.951" stroke="hsl(0.0,100%,35%)" stroke-width="0.05220"></path>
<path d="M1.716 0.858 Q1.617 0.727 1.342 0.747" stroke="hsl(0.0,100%,35%)" stroke-width="0.00071"></path>
</g>
<text x="1.020" y="0.659" font-size="0.038031" fill="hsl(0.0,100%,20%)">awscreen</text>
<text x="1.517" y="0.881" font-size="0.140891" fill="hsl(0.0,100%,20%)">thestig</text>
<text x="1.716" y="0.801" font-size="0.113875" fill="hsl(0.0,100%,20%)">tsepez</text>
<text x="1.536" y="0.583" font-size="0.066250" fill="hsl(0.0,100%,20%)">nigi</text>
<text x="0.868" y="0.714" font-size="0.034598" fill="hsl(0.0,100%,20%)">drott</text>
<text x="1.202" y="0.930" font-size="0.007062" fill="hsl(0.0,100%,20%)">bungeman</text>
<text x="0.818" y="0.948" font-size="0.007062" fill="hsl(0.0,100%,20%)">kmoon</text>
<text x="1.342" y="0.743" font-size="0.007062" fill="hsl(0.0,100%,20%)">thakis</text>
</svg>
