<svg width="4000" height="2000" viewBox="-0.025 -0.025 2.05 1.05" xmlns="http://www.w3.org/2000/svg">
  <style>
    path {
      fill: none;
      stroke-linecap: round;
      stroke-opacity: 0.4;
    }

    text {
      text-anchor: middle;
      alignment-baseline: hanging;
    }
  </style>
  <g opacity="0.4">
<path d="M0.803 -0.055 Q0.993 0.385 1.892 0.389" stroke="hsl(0.0,100%,35%)" stroke-width="0.00158"></path>
<path d="M0.803 -0.055 Q0.725 0.133 1.075 0.212" stroke="hsl(0.0,100%,35%)" stroke-width="0.00023"></path>
<path d="M0.803 -0.055 Q0.922 0.306 1.653 0.327" stroke="hsl(0.0,100%,35%)" stroke-width="0.00028"></path>
<path d="M0.803 -0.055 Q0.887 0.102 1.211 0.096" stroke="hsl(0.0,100%,35%)" stroke-width="0.00490"></path>
<path d="M1.892 0.389 Q1.822 0.310 1.653 0.327" stroke="hsl(0.0,100%,35%)" stroke-width="0.13033"></path>
<path d="M1.892 0.389 Q1.840 0.415 1.880 0.446" stroke="hsl(0.0,100%,35%)" stroke-width="0.00152"></path>
<path d="M1.892 0.389 Q1.459 0.329 1.249 0.528" stroke="hsl(0.0,100%,35%)" stroke-width="0.03053"></path>
<path d="M1.892 0.389 Q1.991 0.223 1.690 0.139" stroke="hsl(0.0,100%,35%)" stroke-width="0.00135"></path>
<path d="M1.892 0.389 Q1.239 0.353 1.027 0.664" stroke="hsl(0.0,100%,35%)" stroke-width="0.00372"></path>
<path d="M1.892 0.389 Q1.728 0.436 1.784 0.526" stroke="hsl(0.0,100%,35%)" stroke-width="0.00034"></path>
<path d="M1.892 0.389 Q1.572 0.317 1.362 0.457" stroke="hsl(0.0,100%,35%)" stroke-width="0.00090"></path>
<path d="M1.892 0.389 Q1.842 0.448 1.948 0.486" stroke="hsl(0.0,100%,35%)" stroke-width="0.00676"></path>
<path d="M1.892 0.389 Q1.643 0.384 1.580 0.505" stroke="hsl(0.0,100%,35%)" stroke-width="0.00056"></path>
<path d="M1.892 0.389 Q2.126 0.027 1.471 -0.167" stroke="hsl(0.0,100%,35%)" stroke-width="0.00034"></path>
<path d="M1.892 0.389 Q1.612 0.399 1.572 0.538" stroke="hsl(0.0,100%,35%)" stroke-width="0.00028"></path>
<path d="M1.892 0.389 Q1.786 0.057 1.115 0.035" stroke="hsl(0.0,100%,35%)" stroke-width="0.00805"></path>
<path d="M1.892 0.389 Q1.624 0.137 1.075 0.212" stroke="hsl(0.0,100%,35%)" stroke-width="0.01470"></path>
<path d="M1.892 0.389 Q1.786 0.106 1.211 0.096" stroke="hsl(0.0,100%,35%)" stroke-width="0.01892"></path>
<path d="M1.892 0.389 Q2.062 0.250 1.828 0.136" stroke="hsl(0.0,100%,35%)" stroke-width="0.00101"></path>
<path d="M1.892 0.389 Q1.600 0.482 1.719 0.645" stroke="hsl(0.0,100%,35%)" stroke-width="0.00068"></path>
<path d="M1.892 0.389 Q1.961 0.194 1.596 0.117" stroke="hsl(0.0,100%,35%)" stroke-width="0.00456"></path>
<path d="M1.892 0.389 Q1.770 0.403 1.771 0.465" stroke="hsl(0.0,100%,35%)" stroke-width="0.00045"></path>
<path d="M1.892 0.389 Q1.608 0.047 0.879 0.111" stroke="hsl(0.0,100%,35%)" stroke-width="0.00023"></path>
<path d="M1.892 0.389 Q1.702 -0.051 0.803 -0.055" stroke="hsl(0.0,100%,35%)" stroke-width="0.00096"></path>
<path d="M1.075 0.212 Q1.342 0.464 1.892 0.389" stroke="hsl(0.0,100%,35%)" stroke-width="0.00518"></path>
<path d="M1.075 0.212 Q1.236 0.132 1.115 0.035" stroke="hsl(0.0,100%,35%)" stroke-width="0.00552"></path>
<path d="M1.075 0.212 Q1.272 0.385 1.653 0.327" stroke="hsl(0.0,100%,35%)" stroke-width="0.00270"></path>
<path d="M1.075 0.212 Q1.236 0.181 1.211 0.096" stroke="hsl(0.0,100%,35%)" stroke-width="0.00574"></path>
<path d="M1.075 0.212 Q1.412 0.269 1.596 0.117" stroke="hsl(0.0,100%,35%)" stroke-width="0.00101"></path>
<path d="M1.653 0.327 Q1.723 0.405 1.892 0.389" stroke="hsl(0.0,100%,35%)" stroke-width="0.15934"></path>
<path d="M1.653 0.327 Q1.290 0.346 1.249 0.528" stroke="hsl(0.0,100%,35%)" stroke-width="0.00287"></path>
<path d="M1.653 0.327 Q1.069 0.370 1.027 0.664" stroke="hsl(0.0,100%,35%)" stroke-width="0.00017"></path>
<path d="M1.653 0.327 Q1.673 0.465 1.948 0.486" stroke="hsl(0.0,100%,35%)" stroke-width="0.00377"></path>
<path d="M1.653 0.327 Q1.617 0.123 1.211 0.096" stroke="hsl(0.0,100%,35%)" stroke-width="0.01667"></path>
<path d="M1.653 0.327 Q1.455 0.154 1.075 0.212" stroke="hsl(0.0,100%,35%)" stroke-width="0.00051"></path>
<path d="M1.653 0.327 Q1.617 0.074 1.115 0.035" stroke="hsl(0.0,100%,35%)" stroke-width="0.00034"></path>
<path d="M1.653 0.327 Q1.792 0.211 1.596 0.117" stroke="hsl(0.0,100%,35%)" stroke-width="0.00073"></path>
<path d="M1.211 0.096 Q1.317 0.378 1.892 0.389" stroke="hsl(0.0,100%,35%)" stroke-width="0.00253"></path>
<path d="M1.211 0.096 Q1.247 0.299 1.653 0.327" stroke="hsl(0.0,100%,35%)" stroke-width="0.02653"></path>
<path d="M1.211 0.096 Q1.211 0.046 1.115 0.035" stroke="hsl(0.0,100%,35%)" stroke-width="0.01374"></path>
<path d="M1.211 0.096 Q1.049 0.127 1.075 0.212" stroke="hsl(0.0,100%,35%)" stroke-width="0.01560"></path>
<path d="M1.211 0.096 Q1.386 0.183 1.596 0.117" stroke="hsl(0.0,100%,35%)" stroke-width="0.01048"></path>
<path d="M1.211 0.096 Q1.033 0.037 0.879 0.111" stroke="hsl(0.0,100%,35%)" stroke-width="0.00028"></path>
<path d="M1.115 0.035 Q0.953 0.116 1.075 0.212" stroke="hsl(0.0,100%,35%)" stroke-width="0.00586"></path>
<path d="M1.115 0.035 Q1.221 0.367 1.892 0.389" stroke="hsl(0.0,100%,35%)" stroke-width="0.00214"></path>
<path d="M1.115 0.035 Q1.151 0.289 1.653 0.327" stroke="hsl(0.0,100%,35%)" stroke-width="0.00417"></path>
<path d="M1.115 0.035 Q1.115 0.085 1.211 0.096" stroke="hsl(0.0,100%,35%)" stroke-width="0.00586"></path>
<path d="M1.115 0.035 Q1.290 0.173 1.596 0.117" stroke="hsl(0.0,100%,35%)" stroke-width="0.00017"></path>
<path d="M1.974 0.374 Q1.922 0.365 1.892 0.389" stroke="hsl(0.0,100%,35%)" stroke-width="0.00231"></path>
<path d="M1.974 0.374 Q1.852 0.286 1.653 0.327" stroke="hsl(0.0,100%,35%)" stroke-width="0.00039"></path>
<path d="M1.974 0.374 Q1.816 0.082 1.211 0.096" stroke="hsl(0.0,100%,35%)" stroke-width="0.00023"></path>
<path d="M1.042 0.531 Q1.581 0.630 1.892 0.389" stroke="hsl(0.0,100%,35%)" stroke-width="0.00501"></path>
<path d="M1.042 0.531 Q1.148 0.571 1.249 0.528" stroke="hsl(0.0,100%,35%)" stroke-width="0.00507"></path>
<path d="M1.042 0.531 Q1.532 0.690 1.948 0.486" stroke="hsl(0.0,100%,35%)" stroke-width="0.00039"></path>
<path d="M1.249 0.528 Q1.682 0.587 1.892 0.389" stroke="hsl(0.0,100%,35%)" stroke-width="0.02112"></path>
<path d="M1.249 0.528 Q1.028 0.552 1.027 0.664" stroke="hsl(0.0,100%,35%)" stroke-width="0.00225"></path>
<path d="M1.249 0.528 Q1.611 0.508 1.653 0.327" stroke="hsl(0.0,100%,35%)" stroke-width="0.00028"></path>
<path d="M1.249 0.528 Q1.632 0.647 1.948 0.486" stroke="hsl(0.0,100%,35%)" stroke-width="0.00225"></path>
<path d="M1.249 0.528 Q1.433 0.582 1.580 0.505" stroke="hsl(0.0,100%,35%)" stroke-width="0.00023"></path>
<path d="M1.948 0.486 Q1.998 0.426 1.892 0.389" stroke="hsl(0.0,100%,35%)" stroke-width="0.00417"></path>
<path d="M1.948 0.486 Q1.928 0.347 1.653 0.327" stroke="hsl(0.0,100%,35%)" stroke-width="0.00073"></path>
<path d="M1.948 0.486 Q1.565 0.367 1.249 0.528" stroke="hsl(0.0,100%,35%)" stroke-width="0.00073"></path>
<path d="M0.704 0.478 Q1.370 0.671 1.892 0.389" stroke="hsl(0.0,100%,35%)" stroke-width="0.00017"></path>
<path d="M1.027 0.664 Q1.680 0.700 1.892 0.389" stroke="hsl(0.0,100%,35%)" stroke-width="0.00631"></path>
<path d="M1.027 0.664 Q1.610 0.621 1.653 0.327" stroke="hsl(0.0,100%,35%)" stroke-width="0.00079"></path>
<path d="M1.027 0.664 Q1.247 0.641 1.249 0.528" stroke="hsl(0.0,100%,35%)" stroke-width="0.00986"></path>
<path d="M1.027 0.664 Q1.779 0.534 1.690 0.139" stroke="hsl(0.0,100%,35%)" stroke-width="0.00023"></path>
<path d="M1.027 0.664 Q1.630 0.759 1.948 0.486" stroke="hsl(0.0,100%,35%)" stroke-width="0.00034"></path>
<path d="M1.828 0.136 Q1.552 -0.008 1.211 0.096" stroke="hsl(0.0,100%,35%)" stroke-width="0.00028"></path>
<path d="M1.471 -0.167 Q1.237 0.195 1.892 0.389" stroke="hsl(0.0,100%,35%)" stroke-width="0.00017"></path>
<path d="M1.690 0.139 Q1.591 0.304 1.892 0.389" stroke="hsl(0.0,100%,35%)" stroke-width="0.00039"></path>
<path d="M0.879 0.111 Q1.058 0.170 1.211 0.096" stroke="hsl(0.0,100%,35%)" stroke-width="0.00084"></path>
<path d="M0.879 0.111 Q1.233 0.257 1.596 0.117" stroke="hsl(0.0,100%,35%)" stroke-width="0.00039"></path>
<path d="M1.596 0.117 Q1.457 0.233 1.653 0.327" stroke="hsl(0.0,100%,35%)" stroke-width="0.00569"></path>
<path d="M1.596 0.117 Q1.527 0.312 1.892 0.389" stroke="hsl(0.0,100%,35%)" stroke-width="0.00282"></path>
<path d="M1.596 0.117 Q1.259 0.060 1.075 0.212" stroke="hsl(0.0,100%,35%)" stroke-width="0.00068"></path>
<path d="M1.596 0.117 Q1.421 -0.020 1.115 0.035" stroke="hsl(0.0,100%,35%)" stroke-width="0.00045"></path>
<path d="M1.596 0.117 Q1.421 0.029 1.211 0.096" stroke="hsl(0.0,100%,35%)" stroke-width="0.00862"></path>
<path d="M1.596 0.117 Q1.243 -0.029 0.879 0.111" stroke="hsl(0.0,100%,35%)" stroke-width="0.00017"></path>
<path d="M1.771 0.465 Q1.893 0.451 1.892 0.389" stroke="hsl(0.0,100%,35%)" stroke-width="0.00045"></path>
<path d="M1.771 0.465 Q1.625 0.200 1.075 0.212" stroke="hsl(0.0,100%,35%)" stroke-width="0.00017"></path>
<path d="M1.331 0.229 Q1.378 0.139 1.211 0.096" stroke="hsl(0.0,100%,35%)" stroke-width="0.00225"></path>
<path d="M1.331 0.229 Q1.484 0.421 1.892 0.389" stroke="hsl(0.0,100%,35%)" stroke-width="0.00107"></path>
<path d="M1.331 0.229 Q1.554 0.226 1.596 0.117" stroke="hsl(0.0,100%,35%)" stroke-width="0.00017"></path>
<path d="M1.997 0.383 Q1.940 0.365 1.892 0.389" stroke="hsl(0.0,100%,35%)" stroke-width="0.00090"></path>
<path d="M1.997 0.383 Q1.507 0.306 1.249 0.528" stroke="hsl(0.0,100%,35%)" stroke-width="0.00028"></path>
<path d="M1.362 0.457 Q1.612 0.450 1.653 0.327" stroke="hsl(0.0,100%,35%)" stroke-width="0.00034"></path>
<path d="M1.362 0.457 Q1.682 0.529 1.892 0.389" stroke="hsl(0.0,100%,35%)" stroke-width="0.00113"></path>
<path d="M1.362 0.457 Q1.576 0.246 1.211 0.096" stroke="hsl(0.0,100%,35%)" stroke-width="0.00023"></path>
<path d="M1.425 -0.103 Q1.266 0.236 1.892 0.389" stroke="hsl(0.0,100%,35%)" stroke-width="0.00034"></path>
<path d="M1.291 0.176 Q1.421 0.403 1.892 0.389" stroke="hsl(0.0,100%,35%)" stroke-width="0.00141"></path>
<path d="M1.291 0.176 Q1.351 0.324 1.653 0.327" stroke="hsl(0.0,100%,35%)" stroke-width="0.00090"></path>
<path d="M1.291 0.176 Q1.154 0.151 1.075 0.212" stroke="hsl(0.0,100%,35%)" stroke-width="0.00023"></path>
<path d="M1.291 0.176 Q1.491 0.208 1.596 0.117" stroke="hsl(0.0,100%,35%)" stroke-width="0.00039"></path>
<path d="M1.291 0.176 Q1.315 0.120 1.211 0.096" stroke="hsl(0.0,100%,35%)" stroke-width="0.00073"></path>
<path d="M0.900 0.151 Q1.275 0.273 1.596 0.117" stroke="hsl(0.0,100%,35%)" stroke-width="0.00028"></path>
<path d="M0.900 0.151 Q1.206 0.468 1.892 0.389" stroke="hsl(0.0,100%,35%)" stroke-width="0.00017"></path>
</g>
<text x="0.803" y="-0.063" font-size="0.016172" fill="hsl(0.0,100%,20%)">art-snake</text>
<text x="1.892" y="0.329" font-size="0.119462" fill="hsl(0.0,100%,20%)">thestig</text>
<text x="1.075" y="0.191" font-size="0.043166" fill="hsl(0.0,100%,20%)">hnakashima</text>
<text x="1.653" y="0.273" font-size="0.107115" fill="hsl(0.0,100%,20%)">tsepez</text>
<text x="1.211" y="0.063" font-size="0.065864" fill="hsl(0.0,100%,20%)">dsinclair</text>
<text x="1.115" y="0.016" font-size="0.038646" fill="hsl(0.0,100%,20%)">rharrison</text>
<text x="1.580" y="0.502" font-size="0.005854" fill="hsl(0.0,100%,20%)">weili</text>
<text x="1.974" y="0.369" font-size="0.009777" fill="hsl(0.0,100%,20%)">asweintraub</text>
<text x="1.042" y="0.522" font-size="0.018415" fill="hsl(0.0,100%,20%)">awscreen</text>
<text x="1.249" y="0.503" font-size="0.049310" fill="hsl(0.0,100%,20%)">nigi</text>
<text x="1.948" y="0.473" font-size="0.024873" fill="hsl(0.0,100%,20%)">dhoss</text>
<text x="1.417" y="0.391" font-size="0.002326" fill="hsl(0.0,100%,20%)">bratell</text>
<text x="0.704" y="0.476" font-size="0.004029" fill="hsl(0.0,100%,20%)">brianosman</text>
<text x="1.027" y="0.651" font-size="0.027590" fill="hsl(0.0,100%,20%)">kmoon</text>
<text x="1.828" y="0.133" font-size="0.006979" fill="hsl(0.0,100%,20%)">reed</text>
<text x="1.471" y="-0.169" font-size="0.004842" fill="hsl(0.0,100%,20%)">brucedawson</text>
<text x="1.690" y="0.134" font-size="0.008909" fill="hsl(0.0,100%,20%)">bungeman</text>
<text x="0.879" y="0.107" font-size="0.008279" fill="hsl(0.0,100%,20%)">caryclark</text>
<text x="1.596" y="0.100" font-size="0.034451" fill="hsl(0.0,100%,20%)">npm</text>
<text x="1.127" y="0.362" font-size="0.002326" fill="hsl(0.0,100%,20%)">dalecurtis</text>
<text x="1.784" y="0.525" font-size="0.003553" fill="hsl(0.0,100%,20%)">thomasanderson</text>
<text x="1.880" y="0.442" font-size="0.007715" fill="hsl(0.0,100%,20%)">drott</text>
<text x="1.377" y="0.175" font-size="0.001899" fill="hsl(0.0,100%,20%)">halcanary</text>
<text x="1.572" y="0.536" font-size="0.003290" fill="hsl(0.0,100%,20%)">rbpotter</text>
<text x="1.771" y="0.462" font-size="0.006155" fill="hsl(0.0,100%,20%)">xlou</text>
<text x="1.331" y="0.224" font-size="0.010744" fill="hsl(0.0,100%,20%)">janeliulwq</text>
<text x="1.997" y="0.380" font-size="0.006715" fill="hsl(0.0,100%,20%)">kjlubick</text>
<text x="1.362" y="0.452" font-size="0.009305" fill="hsl(0.0,100%,20%)">thakis</text>
<text x="1.425" y="-0.105" font-size="0.004247" fill="hsl(0.0,100%,20%)">pkasting</text>
<text x="1.719" y="0.642" font-size="0.005372" fill="hsl(0.0,100%,20%)">palmer</text>
<text x="0.985" y="0.126" font-size="0.002326" fill="hsl(0.0,100%,20%)">stephana</text>
<text x="0.730" y="0.184" font-size="0.002326" fill="hsl(0.0,100%,20%)">tandrii</text>
<text x="1.877" y="0.551" font-size="0.001343" fill="hsl(0.0,100%,20%)">jbudorick</text>
<text x="1.683" y="0.418" font-size="0.001343" fill="hsl(0.0,100%,20%)">ochang</text>
<text x="1.928" y="0.407" font-size="0.001899" fill="hsl(0.0,100%,20%)">jochen</text>
<text x="1.440" y="0.192" font-size="0.001899" fill="hsl(0.0,100%,20%)">dcheng</text>
<text x="1.291" y="0.171" font-size="0.010911" fill="hsl(0.0,100%,20%)">vmiklos</text>
<text x="0.988" y="0.311" font-size="0.002686" fill="hsl(0.0,100%,20%)">vtsyrklevich</text>
<text x="0.900" y="0.149" font-size="0.004247" fill="hsl(0.0,100%,20%)">wileyrr</text>
</svg>
