<svg width="4000" height="2000" viewBox="-0.025 -0.025 2.05 1.05" xmlns="http://www.w3.org/2000/svg">
  <style>
    path {
      fill: none;
      stroke-linecap: round;
      stroke-opacity: 0.4;
    }

    text {
      text-anchor: middle;
      alignment-baseline: hanging;
    }
  </style>
  <g opacity="0.4">
<path d="M0.986 0.661 Q0.992 0.438 0.559 0.386" stroke="hsl(0.0,100%,35%)" stroke-width="0.00710"></path>
<path d="M0.986 0.661 Q1.322 0.500 1.083 0.301" stroke="hsl(0.0,100%,35%)" stroke-width="0.00118"></path>
<path d="M0.986 0.661 Q0.693 0.591 0.493 0.719" stroke="hsl(0.0,100%,35%)" stroke-width="0.00030"></path>
<path d="M0.559 0.386 Q0.889 0.449 1.083 0.301" stroke="hsl(0.0,100%,35%)" stroke-width="0.14949"></path>
<path d="M0.559 0.386 Q0.229 0.455 0.291 0.631" stroke="hsl(0.0,100%,35%)" stroke-width="0.00118"></path>
<path d="M0.559 0.386 Q0.672 0.620 1.154 0.616" stroke="hsl(0.0,100%,35%)" stroke-width="0.00918"></path>
<path d="M0.559 0.386 Q0.481 0.527 0.740 0.596" stroke="hsl(0.0,100%,35%)" stroke-width="0.00474"></path>
<path d="M0.559 0.386 Q0.450 0.392 0.437 0.447" stroke="hsl(0.0,100%,35%)" stroke-width="0.01421"></path>
<path d="M0.559 0.386 Q0.780 0.560 1.169 0.490" stroke="hsl(0.0,100%,35%)" stroke-width="0.00148"></path>
<path d="M0.559 0.386 Q0.469 0.690 1.042 0.801" stroke="hsl(0.0,100%,35%)" stroke-width="0.00414"></path>
<path d="M0.559 0.386 Q0.862 0.570 1.286 0.462" stroke="hsl(0.0,100%,35%)" stroke-width="0.00030"></path>
<path d="M0.559 0.386 Q0.663 0.488 0.885 0.460" stroke="hsl(0.0,100%,35%)" stroke-width="0.00030"></path>
<path d="M0.559 0.386 Q0.260 0.539 0.493 0.719" stroke="hsl(0.0,100%,35%)" stroke-width="0.00059"></path>
<path d="M0.559 0.386 Q0.257 0.367 0.154 0.510" stroke="hsl(0.0,100%,35%)" stroke-width="0.00030"></path>
<path d="M1.083 0.301 Q0.753 0.239 0.559 0.386" stroke="hsl(0.0,100%,35%)" stroke-width="0.16577"></path>
<path d="M1.083 0.301 Q0.867 0.473 1.154 0.616" stroke="hsl(0.0,100%,35%)" stroke-width="0.00030"></path>
</g>
<text x="0.986" y="0.650" font-size="0.021822" fill="hsl(0.0,100%,20%)">dhoss</text>
<text x="0.559" y="0.316" font-size="0.141073" fill="hsl(0.0,100%,20%)">thestig</text>
<text x="1.083" y="0.235" font-size="0.132551" fill="hsl(0.0,100%,20%)">tsepez</text>
<text x="0.493" y="0.715" font-size="0.007019" fill="hsl(0.0,100%,20%)">thomasanderson</text>
<text x="0.291" y="0.627" font-size="0.008104" fill="hsl(0.0,100%,20%)">thakis</text>
<text x="1.154" y="0.605" font-size="0.022923" fill="hsl(0.0,100%,20%)">dsinclair</text>
<text x="0.740" y="0.588" font-size="0.016209" fill="hsl(0.0,100%,20%)">reed</text>
<text x="0.437" y="0.433" font-size="0.028074" fill="hsl(0.0,100%,20%)">hnakashima</text>
<text x="1.169" y="0.486" font-size="0.009061" fill="hsl(0.0,100%,20%)">palmer</text>
<text x="1.042" y="0.793" font-size="0.015162" fill="hsl(0.0,100%,20%)">npm</text>
<text x="1.286" y="0.460" font-size="0.004052" fill="hsl(0.0,100%,20%)">bungeman</text>
<text x="0.885" y="0.458" font-size="0.004052" fill="hsl(0.0,100%,20%)">halcanary</text>
<text x="0.154" y="0.508" font-size="0.004052" fill="hsl(0.0,100%,20%)">jbudorick</text>
</svg>
