<svg width="4000" height="2000" viewBox="-0.025 -0.025 2.05 1.05" xmlns="http://www.w3.org/2000/svg">
  <style>
    path {
      fill: none;
      stroke-linecap: round;
      stroke-opacity: 0.4;
    }

    text {
      text-anchor: middle;
      alignment-baseline: hanging;
    }
  </style>
  <g opacity="0.4">
<path d="M0.951 0.452 Q1.171 0.542 1.395 0.455" stroke="hsl(0.0,100%,35%)" stroke-width="0.01782"></path>
<path d="M0.951 0.452 Q1.403 0.565 1.722 0.369" stroke="hsl(0.0,100%,35%)" stroke-width="0.00074"></path>
<path d="M0.951 0.452 Q1.213 0.387 1.144 0.245" stroke="hsl(0.0,100%,35%)" stroke-width="0.00074"></path>
<path d="M1.395 0.455 Q1.627 0.477 1.722 0.369" stroke="hsl(0.0,100%,35%)" stroke-width="0.12917"></path>
<path d="M1.395 0.455 Q1.448 0.563 1.671 0.562" stroke="hsl(0.0,100%,35%)" stroke-width="0.01782"></path>
<path d="M1.395 0.455 Q1.437 0.300 1.144 0.245" stroke="hsl(0.0,100%,35%)" stroke-width="0.06607"></path>
<path d="M1.395 0.455 Q1.425 0.631 1.775 0.655" stroke="hsl(0.0,100%,35%)" stroke-width="0.00074"></path>
<path d="M1.395 0.455 Q1.018 0.420 0.868 0.597" stroke="hsl(0.0,100%,35%)" stroke-width="0.00074"></path>
<path d="M1.722 0.369 Q1.490 0.347 1.395 0.455" stroke="hsl(0.0,100%,35%)" stroke-width="0.04751"></path>
<path d="M1.722 0.369 Q1.605 0.110 1.073 0.110" stroke="hsl(0.0,100%,35%)" stroke-width="0.00074"></path>
<path d="M1.722 0.369 Q1.532 0.192 1.144 0.245" stroke="hsl(0.0,100%,35%)" stroke-width="0.00074"></path>
</g>
<text x="0.951" y="0.433" font-size="0.036944" fill="hsl(0.0,100%,20%)">awscreen</text>
<text x="1.395" y="0.384" font-size="0.140677" fill="hsl(0.0,100%,20%)">thestig</text>
<text x="1.722" y="0.313" font-size="0.112476" fill="hsl(0.0,100%,20%)">tsepez</text>
<text x="1.144" y="0.211" font-size="0.069115" fill="hsl(0.0,100%,20%)">nigi</text>
<text x="1.671" y="0.544" font-size="0.035494" fill="hsl(0.0,100%,20%)">drott</text>
<text x="1.775" y="0.651" font-size="0.007245" fill="hsl(0.0,100%,20%)">bungeman</text>
<text x="0.868" y="0.593" font-size="0.007245" fill="hsl(0.0,100%,20%)">kmoon</text>
<text x="1.073" y="0.106" font-size="0.007245" fill="hsl(0.0,100%,20%)">thakis</text>
</svg>
