<svg width="4000" height="2000" viewBox="-0.025 -0.025 2.05 1.05" xmlns="http://www.w3.org/2000/svg">
  <style>
    path {
      fill: none;
      stroke-linecap: round;
      stroke-opacity: 0.4;
    }

    text {
      text-anchor: middle;
      alignment-baseline: hanging;
    }
  </style>
  <g opacity="0.4">
<path d="M1.058 0.378 Q0.355 0.570 0.575 0.955" stroke="hsl(0.0,100%,35%)" stroke-width="0.00242"></path>
<path d="M1.058 0.378 Q0.488 0.551 0.699 0.867" stroke="hsl(0.0,100%,35%)" stroke-width="0.00081"></path>
<path d="M1.058 0.378 Q1.034 0.470 1.209 0.502" stroke="hsl(0.0,100%,35%)" stroke-width="0.00027"></path>
<path d="M1.058 0.378 Q0.849 0.224 0.502 0.293" stroke="hsl(0.0,100%,35%)" stroke-width="0.00027"></path>
<path d="M0.575 0.955 Q0.708 0.936 0.699 0.867" stroke="hsl(0.0,100%,35%)" stroke-width="0.05509"></path>
<path d="M0.575 0.955 Q0.911 0.906 0.889 0.731" stroke="hsl(0.0,100%,35%)" stroke-width="0.00833"></path>
<path d="M0.575 0.955 Q0.725 1.065 0.973 1.016" stroke="hsl(0.0,100%,35%)" stroke-width="0.07256"></path>
<path d="M0.575 0.955 Q0.598 0.745 0.192 0.687" stroke="hsl(0.0,100%,35%)" stroke-width="0.00054"></path>
<path d="M0.575 0.955 Q0.559 0.818 0.288 0.796" stroke="hsl(0.0,100%,35%)" stroke-width="0.00027"></path>
<path d="M0.575 0.955 Q0.860 0.780 0.582 0.603" stroke="hsl(0.0,100%,35%)" stroke-width="0.00027"></path>
<path d="M0.575 0.955 Q0.227 1.016 0.269 1.198" stroke="hsl(0.0,100%,35%)" stroke-width="0.00081"></path>
<path d="M0.699 0.867 Q0.567 0.886 0.575 0.955" stroke="hsl(0.0,100%,35%)" stroke-width="0.03440"></path>
<path d="M0.699 0.867 Q0.903 0.837 0.889 0.731" stroke="hsl(0.0,100%,35%)" stroke-width="0.00511"></path>
<path d="M0.699 0.867 Q1.246 0.787 1.209 0.502" stroke="hsl(0.0,100%,35%)" stroke-width="0.00027"></path>
<path d="M0.889 0.731 Q0.685 0.761 0.699 0.867" stroke="hsl(0.0,100%,35%)" stroke-width="0.01908"></path>
<path d="M0.889 0.731 Q0.553 0.780 0.575 0.955" stroke="hsl(0.0,100%,35%)" stroke-width="0.01317"></path>
<path d="M0.889 0.731 Q1.232 0.681 1.209 0.502" stroke="hsl(0.0,100%,35%)" stroke-width="0.00081"></path>
<path d="M0.889 0.731 Q0.703 0.890 0.973 1.016" stroke="hsl(0.0,100%,35%)" stroke-width="0.00161"></path>
<path d="M0.973 1.016 Q0.823 0.906 0.575 0.955" stroke="hsl(0.0,100%,35%)" stroke-width="0.12792"></path>
<path d="M0.973 1.016 Q1.159 0.857 0.889 0.731" stroke="hsl(0.0,100%,35%)" stroke-width="0.00027"></path>
<path d="M0.973 1.016 Q0.955 0.887 0.699 0.867" stroke="hsl(0.0,100%,35%)" stroke-width="0.00188"></path>
</g>
<text x="1.058" y="0.371" font-size="0.014738" fill="hsl(0.0,100%,20%)">kjlubick</text>
<text x="0.575" y="0.888" font-size="0.135023" fill="hsl(0.0,100%,20%)">thestig</text>
<text x="0.699" y="0.826" font-size="0.082060" fill="hsl(0.0,100%,20%)">nigi</text>
<text x="1.209" y="0.498" font-size="0.008808" fill="hsl(0.0,100%,20%)">bungeman</text>
<text x="0.502" y="0.291" font-size="0.003939" fill="hsl(0.0,100%,20%)">npm</text>
<text x="0.889" y="0.704" font-size="0.052848" fill="hsl(0.0,100%,20%)">kmoon</text>
<text x="0.973" y="0.962" font-size="0.108663" fill="hsl(0.0,100%,20%)">tsepez</text>
<text x="0.192" y="0.684" font-size="0.005571" fill="hsl(0.0,100%,20%)">thomasanderson</text>
<text x="0.288" y="0.794" font-size="0.003939" fill="hsl(0.0,100%,20%)">drott</text>
<text x="0.582" y="0.601" font-size="0.003939" fill="hsl(0.0,100%,20%)">thakis</text>
<text x="0.269" y="1.195" font-size="0.006823" fill="hsl(0.0,100%,20%)">dhoss</text>
<text x="1.251" y="-10.413" font-size="0.003939" fill="hsl(0.0,100%,20%)">dcheng</text>
</svg>
