<svg width="4000" height="2000" viewBox="-0.025 -0.025 2.05 1.05" xmlns="http://www.w3.org/2000/svg">
  <style>
    path {
      fill: none;
      stroke-linecap: round;
      stroke-opacity: 0.4;
    }

    text {
      text-anchor: middle;
      alignment-baseline: hanging;
    }
  </style>
  <g opacity="0.4">
<path d="M1.343 0.663 Q1.387 0.387 0.858 0.306" stroke="hsl(0.0,100%,35%)" stroke-width="0.00160"></path>
<path d="M1.343 0.663 Q1.595 0.679 1.681 0.560" stroke="hsl(0.0,100%,35%)" stroke-width="0.00023"></path>
<path d="M1.343 0.663 Q1.272 0.491 0.921 0.488" stroke="hsl(0.0,100%,35%)" stroke-width="0.00029"></path>
<path d="M1.343 0.663 Q1.321 0.782 1.549 0.819" stroke="hsl(0.0,100%,35%)" stroke-width="0.00496"></path>
<path d="M0.858 0.306 Q0.744 0.409 0.921 0.488" stroke="hsl(0.0,100%,35%)" stroke-width="0.13625"></path>
<path d="M0.858 0.306 Q0.708 0.267 0.599 0.332" stroke="hsl(0.0,100%,35%)" stroke-width="0.00160"></path>
<path d="M0.858 0.306 Q0.539 0.238 0.338 0.379" stroke="hsl(0.0,100%,35%)" stroke-width="0.03090"></path>
<path d="M0.858 0.306 Q1.015 0.380 1.195 0.320" stroke="hsl(0.0,100%,35%)" stroke-width="0.00148"></path>
<path d="M0.858 0.306 Q0.471 0.183 0.148 0.345" stroke="hsl(0.0,100%,35%)" stroke-width="0.00376"></path>
<path d="M0.858 0.306 Q-0.900 1.469 0.984 2.582" stroke="hsl(0.0,100%,35%)" stroke-width="0.00034"></path>
<path d="M0.858 0.306 Q0.926 0.155 0.647 0.089" stroke="hsl(0.0,100%,35%)" stroke-width="0.00091"></path>
<path d="M0.858 0.306 Q0.793 0.192 0.556 0.199" stroke="hsl(0.0,100%,35%)" stroke-width="0.00684"></path>
<path d="M0.858 0.306 Q0.369 0.292 0.234 0.527" stroke="hsl(0.0,100%,35%)" stroke-width="0.00057"></path>
<path d="M0.858 0.306 Q0.091 0.614 0.524 1.055" stroke="hsl(0.0,100%,35%)" stroke-width="0.00034"></path>
<path d="M0.858 0.306 Q-0.917 1.534 1.089 2.669" stroke="hsl(0.0,100%,35%)" stroke-width="0.00029"></path>
<path d="M0.858 0.306 Q1.010 0.753 1.917 0.777" stroke="hsl(0.0,100%,35%)" stroke-width="0.00815"></path>
<path d="M0.858 0.306 Q1.066 0.597 1.681 0.560" stroke="hsl(0.0,100%,35%)" stroke-width="0.01488"></path>
<path d="M0.858 0.306 Q0.793 0.701 1.549 0.819" stroke="hsl(0.0,100%,35%)" stroke-width="0.01915"></path>
<path d="M0.858 0.306 Q0.480 0.309 0.404 0.494" stroke="hsl(0.0,100%,35%)" stroke-width="0.00103"></path>
<path d="M0.858 0.306 Q0.741 0.256 0.618 0.302" stroke="hsl(0.0,100%,35%)" stroke-width="0.00068"></path>
<path d="M0.858 0.306 Q0.905 0.630 1.548 0.678" stroke="hsl(0.0,100%,35%)" stroke-width="0.00462"></path>
<path d="M0.858 0.306 Q-0.005 0.979 1.119 1.548" stroke="hsl(0.0,100%,35%)" stroke-width="0.00046"></path>
<path d="M0.858 0.306 Q0.499 0.697 1.183 0.958" stroke="hsl(0.0,100%,35%)" stroke-width="0.00023"></path>
<path d="M0.858 0.306 Q0.815 0.581 1.343 0.663" stroke="hsl(0.0,100%,35%)" stroke-width="0.00097"></path>
<path d="M1.681 0.560 Q1.473 0.268 0.858 0.306" stroke="hsl(0.0,100%,35%)" stroke-width="0.00524"></path>
<path d="M1.681 0.560 Q1.625 0.716 1.917 0.777" stroke="hsl(0.0,100%,35%)" stroke-width="0.00559"></path>
<path d="M1.681 0.560 Q1.359 0.372 0.921 0.488" stroke="hsl(0.0,100%,35%)" stroke-width="0.00274"></path>
<path d="M1.681 0.560 Q1.408 0.663 1.549 0.819" stroke="hsl(0.0,100%,35%)" stroke-width="0.00581"></path>
<path d="M1.681 0.560 Q1.520 0.592 1.548 0.678" stroke="hsl(0.0,100%,35%)" stroke-width="0.00103"></path>
<path d="M0.921 0.488 Q1.035 0.384 0.858 0.306" stroke="hsl(0.0,100%,35%)" stroke-width="0.16418"></path>
<path d="M0.921 0.488 Q0.717 0.317 0.338 0.379" stroke="hsl(0.0,100%,35%)" stroke-width="0.00291"></path>
<path d="M0.921 0.488 Q0.648 0.262 0.148 0.345" stroke="hsl(0.0,100%,35%)" stroke-width="0.00017"></path>
<path d="M0.921 0.488 Q0.970 0.270 0.556 0.199" stroke="hsl(0.0,100%,35%)" stroke-width="0.00382"></path>
<path d="M0.921 0.488 Q0.970 0.779 1.549 0.819" stroke="hsl(0.0,100%,35%)" stroke-width="0.01687"></path>
<path d="M0.921 0.488 Q1.244 0.676 1.681 0.560" stroke="hsl(0.0,100%,35%)" stroke-width="0.00051"></path>
<path d="M0.921 0.488 Q1.188 0.832 1.917 0.777" stroke="hsl(0.0,100%,35%)" stroke-width="0.00034"></path>
<path d="M0.921 0.488 Q1.083 0.708 1.548 0.678" stroke="hsl(0.0,100%,35%)" stroke-width="0.00074"></path>
<path d="M1.549 0.819 Q1.614 0.424 0.858 0.306" stroke="hsl(0.0,100%,35%)" stroke-width="0.00257"></path>
<path d="M1.549 0.819 Q1.500 0.528 0.921 0.488" stroke="hsl(0.0,100%,35%)" stroke-width="0.02685"></path>
<path d="M1.549 0.819 Q1.767 0.872 1.917 0.777" stroke="hsl(0.0,100%,35%)" stroke-width="0.01391"></path>
<path d="M1.549 0.819 Q1.823 0.716 1.681 0.560" stroke="hsl(0.0,100%,35%)" stroke-width="0.01579"></path>
<path d="M1.549 0.819 Q1.661 0.748 1.548 0.678" stroke="hsl(0.0,100%,35%)" stroke-width="0.01060"></path>
<path d="M1.549 0.819 Q1.255 0.815 1.183 0.958" stroke="hsl(0.0,100%,35%)" stroke-width="0.00029"></path>
<path d="M1.917 0.777 Q1.973 0.621 1.681 0.560" stroke="hsl(0.0,100%,35%)" stroke-width="0.00593"></path>
<path d="M1.917 0.777 Q1.765 0.330 0.858 0.306" stroke="hsl(0.0,100%,35%)" stroke-width="0.00217"></path>
<path d="M1.917 0.777 Q1.650 0.433 0.921 0.488" stroke="hsl(0.0,100%,35%)" stroke-width="0.00422"></path>
<path d="M1.917 0.777 Q1.700 0.724 1.549 0.819" stroke="hsl(0.0,100%,35%)" stroke-width="0.00593"></path>
<path d="M1.917 0.777 Q1.812 0.654 1.548 0.678" stroke="hsl(0.0,100%,35%)" stroke-width="0.00017"></path>
<path d="M0.915 0.125 Q0.742 0.204 0.858 0.306" stroke="hsl(0.0,100%,35%)" stroke-width="0.00234"></path>
<path d="M0.915 0.125 Q0.628 0.308 0.921 0.488" stroke="hsl(0.0,100%,35%)" stroke-width="0.00040"></path>
<path d="M0.915 0.125 Q0.677 0.599 1.549 0.819" stroke="hsl(0.0,100%,35%)" stroke-width="0.00023"></path>
<path d="M1.014 0.339 Q0.962 0.291 0.858 0.306" stroke="hsl(0.0,100%,35%)" stroke-width="0.00542"></path>
<path d="M1.014 0.339 Q0.644 0.224 0.338 0.379" stroke="hsl(0.0,100%,35%)" stroke-width="0.00513"></path>
<path d="M1.014 0.339 Q0.897 0.177 0.556 0.199" stroke="hsl(0.0,100%,35%)" stroke-width="0.00040"></path>
<path d="M0.338 0.379 Q0.657 0.446 0.858 0.306" stroke="hsl(0.0,100%,35%)" stroke-width="0.02138"></path>
<path d="M0.338 0.379 Q0.270 0.324 0.148 0.345" stroke="hsl(0.0,100%,35%)" stroke-width="0.00228"></path>
<path d="M0.338 0.379 Q0.542 0.550 0.921 0.488" stroke="hsl(0.0,100%,35%)" stroke-width="0.00029"></path>
<path d="M0.338 0.379 Q0.591 0.332 0.556 0.199" stroke="hsl(0.0,100%,35%)" stroke-width="0.00228"></path>
<path d="M0.338 0.379 Q0.167 0.432 0.234 0.527" stroke="hsl(0.0,100%,35%)" stroke-width="0.00023"></path>
<path d="M0.556 0.199 Q0.621 0.313 0.858 0.306" stroke="hsl(0.0,100%,35%)" stroke-width="0.00422"></path>
<path d="M0.556 0.199 Q0.507 0.416 0.921 0.488" stroke="hsl(0.0,100%,35%)" stroke-width="0.00074"></path>
<path d="M0.556 0.199 Q0.302 0.245 0.338 0.379" stroke="hsl(0.0,100%,35%)" stroke-width="0.00074"></path>
<path d="M0.588 0.622 Q0.976 0.518 0.858 0.306" stroke="hsl(0.0,100%,35%)" stroke-width="0.00017"></path>
<path d="M0.148 0.345 Q0.535 0.468 0.858 0.306" stroke="hsl(0.0,100%,35%)" stroke-width="0.00638"></path>
<path d="M0.148 0.345 Q0.420 0.571 0.921 0.488" stroke="hsl(0.0,100%,35%)" stroke-width="0.00080"></path>
<path d="M0.148 0.345 Q0.216 0.400 0.338 0.379" stroke="hsl(0.0,100%,35%)" stroke-width="0.00998"></path>
<path d="M0.148 0.345 Q0.692 0.542 1.195 0.320" stroke="hsl(0.0,100%,35%)" stroke-width="0.00023"></path>
<path d="M0.148 0.345 Q0.469 0.354 0.556 0.199" stroke="hsl(0.0,100%,35%)" stroke-width="0.00034"></path>
<path d="M0.404 0.494 Q0.717 0.886 1.549 0.819" stroke="hsl(0.0,100%,35%)" stroke-width="0.00029"></path>
<path d="M0.524 1.055 Q1.291 0.747 0.858 0.306" stroke="hsl(0.0,100%,35%)" stroke-width="0.00017"></path>
<path d="M1.195 0.320 Q1.038 0.245 0.858 0.306" stroke="hsl(0.0,100%,35%)" stroke-width="0.00040"></path>
<path d="M1.183 0.958 Q1.477 0.962 1.549 0.819" stroke="hsl(0.0,100%,35%)" stroke-width="0.00086"></path>
<path d="M1.183 0.958 Q1.590 0.891 1.548 0.678" stroke="hsl(0.0,100%,35%)" stroke-width="0.00040"></path>
<path d="M1.548 0.678 Q1.386 0.458 0.921 0.488" stroke="hsl(0.0,100%,35%)" stroke-width="0.00576"></path>
<path d="M1.548 0.678 Q1.501 0.354 0.858 0.306" stroke="hsl(0.0,100%,35%)" stroke-width="0.00285"></path>
<path d="M1.548 0.678 Q1.709 0.646 1.681 0.560" stroke="hsl(0.0,100%,35%)" stroke-width="0.00068"></path>
<path d="M1.548 0.678 Q1.653 0.801 1.917 0.777" stroke="hsl(0.0,100%,35%)" stroke-width="0.00046"></path>
<path d="M1.548 0.678 Q1.436 0.749 1.549 0.819" stroke="hsl(0.0,100%,35%)" stroke-width="0.00872"></path>
<path d="M1.548 0.678 Q1.141 0.745 1.183 0.958" stroke="hsl(0.0,100%,35%)" stroke-width="0.00017"></path>
<path d="M1.461 0.300 Q1.155 0.182 0.858 0.306" stroke="hsl(0.0,100%,35%)" stroke-width="0.00017"></path>
<path d="M1.119 1.548 Q1.983 0.875 0.858 0.306" stroke="hsl(0.0,100%,35%)" stroke-width="0.00046"></path>
<path d="M1.119 1.548 Q2.191 1.167 1.681 0.560" stroke="hsl(0.0,100%,35%)" stroke-width="0.00017"></path>
<path d="M1.289 0.825 Q1.424 0.874 1.549 0.819" stroke="hsl(0.0,100%,35%)" stroke-width="0.00228"></path>
<path d="M1.289 0.825 Q1.489 0.479 0.858 0.306" stroke="hsl(0.0,100%,35%)" stroke-width="0.00108"></path>
<path d="M1.289 0.825 Q1.536 0.803 1.548 0.678" stroke="hsl(0.0,100%,35%)" stroke-width="0.00017"></path>
<path d="M0.642 0.539 Q0.936 0.466 0.858 0.306" stroke="hsl(0.0,100%,35%)" stroke-width="0.00091"></path>
<path d="M0.642 0.539 Q0.618 0.398 0.338 0.379" stroke="hsl(0.0,100%,35%)" stroke-width="0.00029"></path>
<path d="M0.647 0.089 Q0.465 0.343 0.921 0.488" stroke="hsl(0.0,100%,35%)" stroke-width="0.00040"></path>
<path d="M0.647 0.089 Q0.579 0.240 0.858 0.306" stroke="hsl(0.0,100%,35%)" stroke-width="0.00120"></path>
<path d="M0.647 0.089 Q0.514 0.635 1.549 0.819" stroke="hsl(0.0,100%,35%)" stroke-width="0.00023"></path>
<path d="M0.536 0.176 Q0.593 0.305 0.858 0.306" stroke="hsl(0.0,100%,35%)" stroke-width="0.00034"></path>
<path d="M0.583 0.509 Q0.883 0.463 0.858 0.306" stroke="hsl(0.0,100%,35%)" stroke-width="0.00143"></path>
<path d="M0.583 0.509 Q0.769 0.566 0.921 0.488" stroke="hsl(0.0,100%,35%)" stroke-width="0.00091"></path>
<path d="M0.583 0.509 Q1.092 0.754 1.681 0.560" stroke="hsl(0.0,100%,35%)" stroke-width="0.00023"></path>
<path d="M0.583 0.509 Q0.930 0.787 1.548 0.678" stroke="hsl(0.0,100%,35%)" stroke-width="0.00040"></path>
<path d="M0.583 0.509 Q0.818 0.857 1.549 0.819" stroke="hsl(0.0,100%,35%)" stroke-width="0.00074"></path>
<path d="M1.355 0.552 Q1.351 0.654 1.548 0.678" stroke="hsl(0.0,100%,35%)" stroke-width="0.00029"></path>
<path d="M1.355 0.552 Q1.304 0.330 0.858 0.306" stroke="hsl(0.0,100%,35%)" stroke-width="0.00017"></path>
</g>
<text x="1.343" y="0.655" font-size="0.016068" fill="hsl(0.0,100%,20%)">art-snake</text>
<text x="0.858" y="0.246" font-size="0.119740" fill="hsl(0.0,100%,20%)">thestig</text>
<text x="1.681" y="0.538" font-size="0.042888" fill="hsl(0.0,100%,20%)">hnakashima</text>
<text x="0.921" y="0.434" font-size="0.107508" fill="hsl(0.0,100%,20%)">tsepez</text>
<text x="1.549" y="0.786" font-size="0.065440" fill="hsl(0.0,100%,20%)">dsinclair</text>
<text x="1.917" y="0.758" font-size="0.038397" fill="hsl(0.0,100%,20%)">rharrison</text>
<text x="0.234" y="0.524" font-size="0.005817" fill="hsl(0.0,100%,20%)">weili</text>
<text x="0.915" y="0.120" font-size="0.009715" fill="hsl(0.0,100%,20%)">asweintraub</text>
<text x="1.014" y="0.329" font-size="0.018586" fill="hsl(0.0,100%,20%)">awscreen</text>
<text x="0.338" y="0.354" font-size="0.048993" fill="hsl(0.0,100%,20%)">nigi</text>
<text x="0.556" y="0.186" font-size="0.024713" fill="hsl(0.0,100%,20%)">dhoss</text>
<text x="0.894" y="0.628" font-size="0.002311" fill="hsl(0.0,100%,20%)">bratell</text>
<text x="0.588" y="0.620" font-size="0.004003" fill="hsl(0.0,100%,20%)">brianosman</text>
<text x="0.148" y="0.332" font-size="0.027412" fill="hsl(0.0,100%,20%)">kmoon</text>
<text x="0.404" y="0.491" font-size="0.006934" fill="hsl(0.0,100%,20%)">reed</text>
<text x="0.524" y="1.053" font-size="0.004811" fill="hsl(0.0,100%,20%)">brucedawson</text>
<text x="1.195" y="0.316" font-size="0.009050" fill="hsl(0.0,100%,20%)">bungeman</text>
<text x="1.183" y="0.954" font-size="0.008226" fill="hsl(0.0,100%,20%)">caryclark</text>
<text x="1.548" y="0.661" font-size="0.034229" fill="hsl(0.0,100%,20%)">npm</text>
<text x="1.894" y="0.624" font-size="0.002311" fill="hsl(0.0,100%,20%)">dalecurtis</text>
<text x="0.984" y="2.580" font-size="0.003530" fill="hsl(0.0,100%,20%)">thomasanderson</text>
<text x="0.599" y="0.328" font-size="0.007781" fill="hsl(0.0,100%,20%)">drott</text>
<text x="1.241" y="0.745" font-size="0.001887" fill="hsl(0.0,100%,20%)">halcanary</text>
<text x="1.089" y="2.667" font-size="0.003269" fill="hsl(0.0,100%,20%)">rbpotter</text>
<text x="1.461" y="0.298" font-size="0.003269" fill="hsl(0.0,100%,20%)">hans</text>
<text x="1.389" y="0.037" font-size="0.001334" fill="hsl(0.0,100%,20%)">hwennborg</text>
<text x="1.119" y="1.545" font-size="0.006115" fill="hsl(0.0,100%,20%)">xlou</text>
<text x="1.289" y="0.819" font-size="0.010675" fill="hsl(0.0,100%,20%)">janeliulwq</text>
<text x="0.642" y="0.535" font-size="0.006672" fill="hsl(0.0,100%,20%)">kjlubick</text>
<text x="0.647" y="0.085" font-size="0.009436" fill="hsl(0.0,100%,20%)">thakis</text>
<text x="0.536" y="0.174" font-size="0.004220" fill="hsl(0.0,100%,20%)">pkasting</text>
<text x="0.618" y="0.299" font-size="0.005338" fill="hsl(0.0,100%,20%)">palmer</text>
<text x="1.151" y="0.602" font-size="0.002311" fill="hsl(0.0,100%,20%)">stephana</text>
<text x="0.252" y="89.843" font-size="0.002311" fill="hsl(0.0,100%,20%)">tandrii</text>
<text x="0.623" y="0.125" font-size="0.001334" fill="hsl(0.0,100%,20%)">jbudorick</text>
<text x="0.406" y="0.387" font-size="0.001334" fill="hsl(0.0,100%,20%)">ochang</text>
<text x="1.153" y="0.131" font-size="0.001887" fill="hsl(0.0,100%,20%)">jochen</text>
<text x="1.115" y="0.333" font-size="0.001887" fill="hsl(0.0,100%,20%)">dcheng</text>
<text x="0.583" y="0.504" font-size="0.010841" fill="hsl(0.0,100%,20%)">vmiklos</text>
<text x="1.731" y="0.808" font-size="0.002669" fill="hsl(0.0,100%,20%)">vtsyrklevich</text>
<text x="1.355" y="0.550" font-size="0.004220" fill="hsl(0.0,100%,20%)">wileyrr</text>
</svg>
