<svg width="4000" height="2000" viewBox="-0.025 -0.025 2.05 1.05" xmlns="http://www.w3.org/2000/svg">
  <style>
    path {
      fill: none;
      stroke-linecap: round;
      stroke-opacity: 0.4;
    }

    text {
      text-anchor: middle;
      alignment-baseline: hanging;
    }
  </style>
  <g opacity="0.4">
<path d="M0.862 0.513 Q0.853 0.346 0.525 0.314" stroke="hsl(0.0,100%,35%)" stroke-width="0.00462"></path>
<path d="M0.862 0.513 Q1.495 0.432 1.477 0.106" stroke="hsl(0.0,100%,35%)" stroke-width="0.00071"></path>
<path d="M0.862 0.513 Q1.058 0.672 1.412 0.612" stroke="hsl(0.0,100%,35%)" stroke-width="0.00249"></path>
<path d="M0.525 0.314 Q1.167 0.400 1.477 0.106" stroke="hsl(0.0,100%,35%)" stroke-width="0.03623"></path>
<path d="M0.525 0.314 Q0.730 0.640 1.412 0.612" stroke="hsl(0.0,100%,35%)" stroke-width="0.01030"></path>
<path d="M0.525 0.314 Q0.235 0.404 0.349 0.566" stroke="hsl(0.0,100%,35%)" stroke-width="0.00142"></path>
<path d="M0.525 0.314 Q1.210 0.476 1.676 0.177" stroke="hsl(0.0,100%,35%)" stroke-width="0.00142"></path>
<path d="M0.525 0.314 Q1.128 0.537 1.696 0.292" stroke="hsl(0.0,100%,35%)" stroke-width="0.00036"></path>
<path d="M1.477 0.106 Q1.519 0.181 1.676 0.177" stroke="hsl(0.0,100%,35%)" stroke-width="0.12185"></path>
<path d="M1.477 0.106 Q0.835 0.019 0.525 0.314" stroke="hsl(0.0,100%,35%)" stroke-width="0.01741"></path>
<path d="M1.477 0.106 Q1.040 0.346 1.412 0.612" stroke="hsl(0.0,100%,35%)" stroke-width="0.02664"></path>
<path d="M1.477 0.106 Q1.120 0.252 1.326 0.458" stroke="hsl(0.0,100%,35%)" stroke-width="0.00142"></path>
<path d="M1.477 0.106 Q1.655 0.242 1.960 0.184" stroke="hsl(0.0,100%,35%)" stroke-width="0.00107"></path>
<path d="M1.477 0.106 Q1.273 0.187 1.386 0.304" stroke="hsl(0.0,100%,35%)" stroke-width="0.00036"></path>
<path d="M1.477 0.106 Q1.287 0.115 1.264 0.210" stroke="hsl(0.0,100%,35%)" stroke-width="0.00036"></path>
<path d="M1.477 0.106 Q1.370 0.300 1.726 0.394" stroke="hsl(0.0,100%,35%)" stroke-width="0.00071"></path>
<path d="M1.477 0.106 Q1.005 0.082 0.856 0.307" stroke="hsl(0.0,100%,35%)" stroke-width="0.00036"></path>
<path d="M1.477 0.106 Q1.326 0.106 1.293 0.179" stroke="hsl(0.0,100%,35%)" stroke-width="0.00071"></path>
<path d="M1.412 0.612 Q1.207 0.285 0.525 0.314" stroke="hsl(0.0,100%,35%)" stroke-width="0.00178"></path>
<path d="M1.412 0.612 Q1.492 0.517 1.326 0.458" stroke="hsl(0.0,100%,35%)" stroke-width="0.00036"></path>
<path d="M1.412 0.612 Q1.892 0.447 1.676 0.177" stroke="hsl(0.0,100%,35%)" stroke-width="0.00142"></path>
<path d="M1.412 0.612 Q1.849 0.371 1.477 0.106" stroke="hsl(0.0,100%,35%)" stroke-width="0.00959"></path>
<path d="M1.676 0.177 Q1.197 0.341 1.412 0.612" stroke="hsl(0.0,100%,35%)" stroke-width="0.02202"></path>
<path d="M1.676 0.177 Q0.992 0.015 0.525 0.314" stroke="hsl(0.0,100%,35%)" stroke-width="0.00675"></path>
<path d="M1.676 0.177 Q1.634 0.101 1.477 0.106" stroke="hsl(0.0,100%,35%)" stroke-width="0.10799"></path>
<path d="M1.696 0.292 Q1.735 0.155 1.477 0.106" stroke="hsl(0.0,100%,35%)" stroke-width="0.00071"></path>
<path d="M1.696 0.292 Q1.778 0.231 1.676 0.177" stroke="hsl(0.0,100%,35%)" stroke-width="0.00036"></path>
<path d="M1.561 0.265 Q1.004 0.082 0.525 0.314" stroke="hsl(0.0,100%,35%)" stroke-width="0.00142"></path>
<path d="M1.561 0.265 Q1.209 0.408 1.412 0.612" stroke="hsl(0.0,100%,35%)" stroke-width="0.00142"></path>
<path d="M1.561 0.265 Q1.689 0.244 1.676 0.177" stroke="hsl(0.0,100%,35%)" stroke-width="0.00036"></path>
<path d="M1.561 0.265 Q1.646 0.168 1.477 0.106" stroke="hsl(0.0,100%,35%)" stroke-width="0.00959"></path>
<path d="M1.906 0.289 Q1.401 0.352 1.412 0.612" stroke="hsl(0.0,100%,35%)" stroke-width="0.00036"></path>
<path d="M1.906 0.289 Q1.881 0.187 1.676 0.177" stroke="hsl(0.0,100%,35%)" stroke-width="0.00462"></path>
<path d="M1.906 0.289 Q1.838 0.112 1.477 0.106" stroke="hsl(0.0,100%,35%)" stroke-width="0.00284"></path>
</g>
<text x="0.862" y="0.503" font-size="0.019768" fill="hsl(0.0,100%,20%)">awscreen</text>
<text x="0.525" y="0.282" font-size="0.063916" fill="hsl(0.0,100%,20%)">nigi</text>
<text x="1.477" y="0.041" font-size="0.130104" fill="hsl(0.0,100%,20%)">thestig</text>
<text x="1.412" y="0.581" font-size="0.061797" fill="hsl(0.0,100%,20%)">dhoss</text>
<text x="1.326" y="0.453" font-size="0.009424" fill="hsl(0.0,100%,20%)">bungeman</text>
<text x="1.676" y="0.119" font-size="0.115496" fill="hsl(0.0,100%,20%)">tsepez</text>
<text x="1.696" y="0.288" font-size="0.008429" fill="hsl(0.0,100%,20%)">dsinclair</text>
<text x="1.561" y="0.252" font-size="0.025287" fill="hsl(0.0,100%,20%)">kmoon</text>
<text x="0.349" y="0.562" font-size="0.008429" fill="hsl(0.0,100%,20%)">weili</text>
<text x="1.960" y="0.181" font-size="0.007300" fill="hsl(0.0,100%,20%)">thakis</text>
<text x="1.386" y="0.301" font-size="0.004214" fill="hsl(0.0,100%,20%)">brucedawson</text>
<text x="1.264" y="0.207" font-size="0.004214" fill="hsl(0.0,100%,20%)">drott</text>
<text x="1.726" y="0.391" font-size="0.005960" fill="hsl(0.0,100%,20%)">rbpotter</text>
<text x="0.856" y="0.305" font-size="0.004214" fill="hsl(0.0,100%,20%)">rharrison</text>
<text x="1.293" y="0.176" font-size="0.005960" fill="hsl(0.0,100%,20%)">hnakashima</text>
<text x="1.906" y="0.279" font-size="0.019768" fill="hsl(0.0,100%,20%)">vmiklos</text>
</svg>
