<svg width="4000" height="2000" viewBox="-0.025 -0.025 2.05 1.05" xmlns="http://www.w3.org/2000/svg">
  <style>
    path {
      fill: none;
      stroke-linecap: round;
      stroke-opacity: 0.4;
    }

    text {
      text-anchor: middle;
      alignment-baseline: hanging;
    }
  </style>
  <g opacity="0.4">
<path d="M1.095 0.811 Q1.327 0.866 1.485 0.766" stroke="hsl(0.0,100%,35%)" stroke-width="0.00593"></path>
<path d="M1.095 0.811 Q1.249 0.760 1.183 0.674" stroke="hsl(0.0,100%,35%)" stroke-width="0.00148"></path>
<path d="M1.095 0.811 Q1.762 0.695 1.683 0.345" stroke="hsl(0.0,100%,35%)" stroke-width="0.00272"></path>
<path d="M1.485 0.766 Q1.407 0.660 1.183 0.674" stroke="hsl(0.0,100%,35%)" stroke-width="0.06596"></path>
<path d="M1.485 0.766 Q1.921 0.595 1.683 0.345" stroke="hsl(0.0,100%,35%)" stroke-width="0.02718"></path>
<path d="M1.485 0.766 Q1.439 0.970 1.827 1.036" stroke="hsl(0.0,100%,35%)" stroke-width="0.00025"></path>
<path d="M1.485 0.766 Q1.253 0.711 1.095 0.811" stroke="hsl(0.0,100%,35%)" stroke-width="0.01038"></path>
<path d="M1.485 0.766 Q1.404 0.835 1.522 0.890" stroke="hsl(0.0,100%,35%)" stroke-width="0.00049"></path>
<path d="M1.485 0.766 Q1.502 0.798 1.570 0.797" stroke="hsl(0.0,100%,35%)" stroke-width="0.00025"></path>
<path d="M1.183 0.674 Q1.261 0.780 1.485 0.766" stroke="hsl(0.0,100%,35%)" stroke-width="0.15984"></path>
<path d="M1.183 0.674 Q1.697 0.609 1.683 0.345" stroke="hsl(0.0,100%,35%)" stroke-width="0.00494"></path>
<path d="M1.183 0.674 Q1.030 0.725 1.095 0.811" stroke="hsl(0.0,100%,35%)" stroke-width="0.00222"></path>
<path d="M1.683 0.345 Q1.247 0.515 1.485 0.766" stroke="hsl(0.0,100%,35%)" stroke-width="0.01408"></path>
<path d="M1.683 0.345 Q1.016 0.460 1.095 0.811" stroke="hsl(0.0,100%,35%)" stroke-width="0.00494"></path>
<path d="M1.683 0.345 Q1.201 0.719 1.827 1.036" stroke="hsl(0.0,100%,35%)" stroke-width="0.00099"></path>
<path d="M1.683 0.345 Q1.169 0.410 1.183 0.674" stroke="hsl(0.0,100%,35%)" stroke-width="0.00049"></path>
<path d="M1.359 0.527 Q1.667 0.500 1.683 0.345" stroke="hsl(0.0,100%,35%)" stroke-width="0.00840"></path>
<path d="M1.359 0.527 Q1.231 0.671 1.485 0.766" stroke="hsl(0.0,100%,35%)" stroke-width="0.00296"></path>
<path d="M1.359 0.527 Q0.999 0.616 1.095 0.811" stroke="hsl(0.0,100%,35%)" stroke-width="0.00049"></path>
<path d="M1.522 0.890 Q1.603 0.820 1.485 0.766" stroke="hsl(0.0,100%,35%)" stroke-width="0.00099"></path>
<path d="M1.522 0.890 Q1.089 0.744 0.710 0.923" stroke="hsl(0.0,100%,35%)" stroke-width="0.00025"></path>
<path d="M1.522 0.890 Q1.525 0.714 1.183 0.674" stroke="hsl(0.0,100%,35%)" stroke-width="0.00025"></path>
</g>
<text x="1.095" y="0.790" font-size="0.042390" fill="hsl(0.0,100%,20%)">dhoss</text>
<text x="1.485" y="0.698" font-size="0.135035" fill="hsl(0.0,100%,20%)">thestig</text>
<text x="1.183" y="0.613" font-size="0.121963" fill="hsl(0.0,100%,20%)">tsepez</text>
<text x="1.683" y="0.313" font-size="0.063615" fill="hsl(0.0,100%,20%)">nigi</text>
<text x="0.689" y="19.762" font-size="0.006847" fill="hsl(0.0,100%,20%)">bungeman</text>
<text x="1.359" y="0.513" font-size="0.027670" fill="hsl(0.0,100%,20%)">kmoon</text>
<text x="1.827" y="1.032" font-size="0.008839" fill="hsl(0.0,100%,20%)">weili</text>
<text x="1.522" y="0.884" font-size="0.011180" fill="hsl(0.0,100%,20%)">pkasting</text>
<text x="0.710" y="0.921" font-size="0.003953" fill="hsl(0.0,100%,20%)">npm</text>
<text x="1.570" y="0.795" font-size="0.003953" fill="hsl(0.0,100%,20%)">thomasanderson</text>
</svg>
