<svg width="4000" height="2000" viewBox="-0.025 -0.025 2.05 1.05" xmlns="http://www.w3.org/2000/svg">
  <style>
    path {
      fill: none;
      stroke-linecap: round;
      stroke-opacity: 0.4;
    }

    text {
      text-anchor: middle;
      alignment-baseline: hanging;
    }
  </style>
  <g opacity="0.4">
<path d="M1.473 0.684 Q1.354 0.543 1.053 0.570" stroke="hsl(0.0,100%,35%)" stroke-width="0.00158"></path>
<path d="M1.473 0.684 Q1.845 0.552 1.670 0.342" stroke="hsl(0.0,100%,35%)" stroke-width="0.00023"></path>
<path d="M1.473 0.684 Q1.048 0.638 0.865 0.836" stroke="hsl(0.0,100%,35%)" stroke-width="0.00028"></path>
<path d="M1.473 0.684 Q1.408 0.841 1.700 0.907" stroke="hsl(0.0,100%,35%)" stroke-width="0.00489"></path>
<path d="M1.053 0.570 Q0.780 0.539 0.660 0.666" stroke="hsl(0.0,100%,35%)" stroke-width="0.03049"></path>
<path d="M1.053 0.570 Q0.747 0.665 0.865 0.836" stroke="hsl(0.0,100%,35%)" stroke-width="0.13131"></path>
<path d="M1.053 0.570 Q0.623 0.618 0.622 0.838" stroke="hsl(0.0,100%,35%)" stroke-width="0.00371"></path>
<path d="M1.053 0.570 Q1.193 0.621 1.325 0.564" stroke="hsl(0.0,100%,35%)" stroke-width="0.00152"></path>
<path d="M1.053 0.570 Q1.327 0.583 1.412 0.452" stroke="hsl(0.0,100%,35%)" stroke-width="0.00034"></path>
<path d="M1.053 0.570 Q0.715 0.658 0.813 0.843" stroke="hsl(0.0,100%,35%)" stroke-width="0.00090"></path>
<path d="M1.053 0.570 Q0.968 0.415 0.647 0.422" stroke="hsl(0.0,100%,35%)" stroke-width="0.00675"></path>
<path d="M1.053 0.570 Q0.930 0.330 0.436 0.338" stroke="hsl(0.0,100%,35%)" stroke-width="0.00056"></path>
<path d="M1.053 0.570 Q1.442 0.448 1.289 0.231" stroke="hsl(0.0,100%,35%)" stroke-width="0.00135"></path>
<path d="M1.053 0.570 Q1.345 0.274 0.833 0.067" stroke="hsl(0.0,100%,35%)" stroke-width="0.00034"></path>
<path d="M1.053 0.570 Q0.937 0.643 1.054 0.716" stroke="hsl(0.0,100%,35%)" stroke-width="0.00028"></path>
<path d="M1.053 0.570 Q1.356 0.814 1.898 0.719" stroke="hsl(0.0,100%,35%)" stroke-width="0.00805"></path>
<path d="M1.053 0.570 Q1.544 0.579 1.670 0.342" stroke="hsl(0.0,100%,35%)" stroke-width="0.01468"></path>
<path d="M1.053 0.570 Q1.107 0.868 1.700 0.907" stroke="hsl(0.0,100%,35%)" stroke-width="0.01890"></path>
<path d="M1.053 0.570 Q1.143 0.641 1.301 0.612" stroke="hsl(0.0,100%,35%)" stroke-width="0.00101"></path>
<path d="M1.053 0.570 Q0.849 0.905 1.458 1.078" stroke="hsl(0.0,100%,35%)" stroke-width="0.00068"></path>
<path d="M1.053 0.570 Q1.061 0.802 1.515 0.849" stroke="hsl(0.0,100%,35%)" stroke-width="0.00456"></path>
<path d="M1.053 0.570 Q1.365 0.520 1.338 0.357" stroke="hsl(0.0,100%,35%)" stroke-width="0.00045"></path>
<path d="M1.053 0.570 Q0.972 0.816 1.435 0.910" stroke="hsl(0.0,100%,35%)" stroke-width="0.00023"></path>
<path d="M1.053 0.570 Q1.172 0.711 1.473 0.684" stroke="hsl(0.0,100%,35%)" stroke-width="0.00096"></path>
<path d="M1.670 0.342 Q1.179 0.333 1.053 0.570" stroke="hsl(0.0,100%,35%)" stroke-width="0.00518"></path>
<path d="M1.670 0.342 Q1.482 0.576 1.898 0.719" stroke="hsl(0.0,100%,35%)" stroke-width="0.00551"></path>
<path d="M1.670 0.342 Q0.873 0.428 0.865 0.836" stroke="hsl(0.0,100%,35%)" stroke-width="0.00270"></path>
<path d="M1.670 0.342 Q1.233 0.631 1.700 0.907" stroke="hsl(0.0,100%,35%)" stroke-width="0.00574"></path>
<path d="M1.670 0.342 Q1.187 0.564 1.515 0.849" stroke="hsl(0.0,100%,35%)" stroke-width="0.00101"></path>
<path d="M0.865 0.836 Q1.172 0.740 1.053 0.570" stroke="hsl(0.0,100%,35%)" stroke-width="0.15871"></path>
<path d="M0.865 0.836 Q0.742 0.788 0.622 0.838" stroke="hsl(0.0,100%,35%)" stroke-width="0.00017"></path>
<path d="M0.865 0.836 Q0.899 0.710 0.660 0.666" stroke="hsl(0.0,100%,35%)" stroke-width="0.00287"></path>
<path d="M0.865 0.836 Q1.087 0.585 0.647 0.422" stroke="hsl(0.0,100%,35%)" stroke-width="0.00377"></path>
<path d="M0.865 0.836 Q1.226 1.038 1.700 0.907" stroke="hsl(0.0,100%,35%)" stroke-width="0.01665"></path>
<path d="M0.865 0.836 Q1.662 0.750 1.670 0.342" stroke="hsl(0.0,100%,35%)" stroke-width="0.00051"></path>
<path d="M0.865 0.836 Q1.474 0.984 1.898 0.719" stroke="hsl(0.0,100%,35%)" stroke-width="0.00034"></path>
<path d="M0.865 0.836 Q1.179 0.972 1.515 0.849" stroke="hsl(0.0,100%,35%)" stroke-width="0.00073"></path>
<path d="M1.700 0.907 Q1.646 0.609 1.053 0.570" stroke="hsl(0.0,100%,35%)" stroke-width="0.00253"></path>
<path d="M1.700 0.907 Q1.340 0.704 0.865 0.836" stroke="hsl(0.0,100%,35%)" stroke-width="0.02650"></path>
<path d="M1.700 0.907 Q1.949 0.853 1.898 0.719" stroke="hsl(0.0,100%,35%)" stroke-width="0.01373"></path>
<path d="M1.700 0.907 Q2.137 0.619 1.670 0.342" stroke="hsl(0.0,100%,35%)" stroke-width="0.01558"></path>
<path d="M1.700 0.907 Q1.654 0.841 1.515 0.849" stroke="hsl(0.0,100%,35%)" stroke-width="0.01046"></path>
<path d="M1.700 0.907 Q1.565 0.855 1.435 0.910" stroke="hsl(0.0,100%,35%)" stroke-width="0.00028"></path>
<path d="M1.898 0.719 Q2.085 0.485 1.670 0.342" stroke="hsl(0.0,100%,35%)" stroke-width="0.00585"></path>
<path d="M1.898 0.719 Q1.595 0.476 1.053 0.570" stroke="hsl(0.0,100%,35%)" stroke-width="0.00214"></path>
<path d="M1.898 0.719 Q1.289 0.571 0.865 0.836" stroke="hsl(0.0,100%,35%)" stroke-width="0.00416"></path>
<path d="M1.898 0.719 Q1.649 0.774 1.700 0.907" stroke="hsl(0.0,100%,35%)" stroke-width="0.00585"></path>
<path d="M1.898 0.719 Q1.603 0.708 1.515 0.849" stroke="hsl(0.0,100%,35%)" stroke-width="0.00017"></path>
<path d="M1.298 0.432 Q1.065 0.452 1.053 0.570" stroke="hsl(0.0,100%,35%)" stroke-width="0.00231"></path>
<path d="M1.298 0.432 Q0.759 0.547 0.865 0.836" stroke="hsl(0.0,100%,35%)" stroke-width="0.00039"></path>
<path d="M1.298 0.432 Q1.119 0.750 1.700 0.907" stroke="hsl(0.0,100%,35%)" stroke-width="0.00023"></path>
<path d="M0.498 0.310 Q0.294 0.520 0.660 0.666" stroke="hsl(0.0,100%,35%)" stroke-width="0.00506"></path>
<path d="M0.498 0.310 Q0.568 0.551 1.053 0.570" stroke="hsl(0.0,100%,35%)" stroke-width="0.00495"></path>
<path d="M0.498 0.310 Q0.483 0.396 0.647 0.422" stroke="hsl(0.0,100%,35%)" stroke-width="0.00039"></path>
<path d="M0.660 0.666 Q0.933 0.696 1.053 0.570" stroke="hsl(0.0,100%,35%)" stroke-width="0.02110"></path>
<path d="M0.660 0.666 Q0.503 0.744 0.622 0.838" stroke="hsl(0.0,100%,35%)" stroke-width="0.00225"></path>
<path d="M0.660 0.666 Q0.627 0.792 0.865 0.836" stroke="hsl(0.0,100%,35%)" stroke-width="0.00028"></path>
<path d="M0.660 0.666 Q0.849 0.541 0.647 0.422" stroke="hsl(0.0,100%,35%)" stroke-width="0.00225"></path>
<path d="M0.660 0.666 Q0.810 0.457 0.436 0.338" stroke="hsl(0.0,100%,35%)" stroke-width="0.00023"></path>
<path d="M0.647 0.422 Q0.732 0.577 1.053 0.570" stroke="hsl(0.0,100%,35%)" stroke-width="0.00416"></path>
<path d="M0.647 0.422 Q0.426 0.672 0.865 0.836" stroke="hsl(0.0,100%,35%)" stroke-width="0.00073"></path>
<path d="M0.647 0.422 Q0.459 0.547 0.660 0.666" stroke="hsl(0.0,100%,35%)" stroke-width="0.00073"></path>
<path d="M1.279 0.680 Q1.254 0.580 1.053 0.570" stroke="hsl(0.0,100%,35%)" stroke-width="0.00017"></path>
<path d="M0.622 0.838 Q1.052 0.790 1.053 0.570" stroke="hsl(0.0,100%,35%)" stroke-width="0.00630"></path>
<path d="M0.622 0.838 Q0.746 0.886 0.865 0.836" stroke="hsl(0.0,100%,35%)" stroke-width="0.00079"></path>
<path d="M0.622 0.838 Q0.779 0.760 0.660 0.666" stroke="hsl(0.0,100%,35%)" stroke-width="0.00985"></path>
<path d="M0.622 0.838 Q1.441 0.668 1.289 0.231" stroke="hsl(0.0,100%,35%)" stroke-width="0.00028"></path>
<path d="M0.622 0.838 Q0.967 0.635 0.647 0.422" stroke="hsl(0.0,100%,35%)" stroke-width="0.00034"></path>
<path d="M1.301 0.612 Q1.265 0.840 1.700 0.907" stroke="hsl(0.0,100%,35%)" stroke-width="0.00028"></path>
<path d="M0.833 0.067 Q0.541 0.363 1.053 0.570" stroke="hsl(0.0,100%,35%)" stroke-width="0.00017"></path>
<path d="M1.289 0.231 Q0.900 0.353 1.053 0.570" stroke="hsl(0.0,100%,35%)" stroke-width="0.00039"></path>
<path d="M1.515 0.849 Q1.201 0.712 0.865 0.836" stroke="hsl(0.0,100%,35%)" stroke-width="0.00568"></path>
<path d="M1.515 0.849 Q1.507 0.617 1.053 0.570" stroke="hsl(0.0,100%,35%)" stroke-width="0.00281"></path>
<path d="M1.515 0.849 Q1.998 0.627 1.670 0.342" stroke="hsl(0.0,100%,35%)" stroke-width="0.00068"></path>
<path d="M1.515 0.849 Q1.810 0.861 1.898 0.719" stroke="hsl(0.0,100%,35%)" stroke-width="0.00045"></path>
<path d="M1.515 0.849 Q1.561 0.915 1.700 0.907" stroke="hsl(0.0,100%,35%)" stroke-width="0.00861"></path>
<path d="M1.515 0.849 Q1.426 0.863 1.435 0.910" stroke="hsl(0.0,100%,35%)" stroke-width="0.00017"></path>
<path d="M1.435 0.910 Q1.569 0.961 1.700 0.907" stroke="hsl(0.0,100%,35%)" stroke-width="0.00084"></path>
<path d="M1.435 0.910 Q1.523 0.895 1.515 0.849" stroke="hsl(0.0,100%,35%)" stroke-width="0.00039"></path>
<path d="M1.338 0.357 Q1.025 0.407 1.053 0.570" stroke="hsl(0.0,100%,35%)" stroke-width="0.00045"></path>
<path d="M1.338 0.357 Q1.516 0.416 1.670 0.342" stroke="hsl(0.0,100%,35%)" stroke-width="0.00017"></path>
<path d="M1.661 0.649 Q1.474 0.786 1.700 0.907" stroke="hsl(0.0,100%,35%)" stroke-width="0.00225"></path>
<path d="M1.661 0.649 Q1.420 0.488 1.053 0.570" stroke="hsl(0.0,100%,35%)" stroke-width="0.00107"></path>
<path d="M1.661 0.649 Q1.428 0.720 1.515 0.849" stroke="hsl(0.0,100%,35%)" stroke-width="0.00017"></path>
<path d="M1.643 0.681 Q1.437 0.508 1.053 0.570" stroke="hsl(0.0,100%,35%)" stroke-width="0.00090"></path>
<path d="M1.643 0.681 Q1.164 0.477 0.660 0.666" stroke="hsl(0.0,100%,35%)" stroke-width="0.00028"></path>
<path d="M0.813 0.843 Q1.151 0.754 1.053 0.570" stroke="hsl(0.0,100%,35%)" stroke-width="0.00113"></path>
<path d="M0.813 0.843 Q0.845 0.850 0.865 0.836" stroke="hsl(0.0,100%,35%)" stroke-width="0.00034"></path>
<path d="M0.813 0.843 Q1.205 1.052 1.700 0.907" stroke="hsl(0.0,100%,35%)" stroke-width="0.00023"></path>
<path d="M1.032 0.331 Q0.851 0.454 1.053 0.570" stroke="hsl(0.0,100%,35%)" stroke-width="0.00034"></path>
<path d="M1.318 0.621 Q1.227 0.543 1.053 0.570" stroke="hsl(0.0,100%,35%)" stroke-width="0.00141"></path>
<path d="M1.318 0.621 Q0.920 0.638 0.865 0.836" stroke="hsl(0.0,100%,35%)" stroke-width="0.00090"></path>
<path d="M1.318 0.621 Q1.717 0.552 1.670 0.342" stroke="hsl(0.0,100%,35%)" stroke-width="0.00023"></path>
<path d="M1.318 0.621 Q1.234 0.775 1.515 0.849" stroke="hsl(0.0,100%,35%)" stroke-width="0.00039"></path>
<path d="M1.318 0.621 Q1.280 0.841 1.700 0.907" stroke="hsl(0.0,100%,35%)" stroke-width="0.00073"></path>
<path d="M1.718 0.598 Q1.416 0.682 1.515 0.849" stroke="hsl(0.0,100%,35%)" stroke-width="0.00028"></path>
<path d="M1.718 0.598 Q1.408 0.451 1.053 0.570" stroke="hsl(0.0,100%,35%)" stroke-width="0.00017"></path>
</g>
<text x="1.473" y="0.676" font-size="0.016164" fill="hsl(0.0,100%,20%)">art-snake</text>
<text x="1.053" y="0.510" font-size="0.119481" fill="hsl(0.0,100%,20%)">thestig</text>
<text x="1.670" y="0.321" font-size="0.043142" fill="hsl(0.0,100%,20%)">hnakashima</text>
<text x="0.865" y="0.782" font-size="0.107158" fill="hsl(0.0,100%,20%)">tsepez</text>
<text x="1.700" y="0.874" font-size="0.065828" fill="hsl(0.0,100%,20%)">dsinclair</text>
<text x="1.898" y="0.700" font-size="0.038625" fill="hsl(0.0,100%,20%)">rharrison</text>
<text x="0.436" y="0.335" font-size="0.005851" fill="hsl(0.0,100%,20%)">weili</text>
<text x="1.298" y="0.427" font-size="0.009772" fill="hsl(0.0,100%,20%)">asweintraub</text>
<text x="0.498" y="0.301" font-size="0.018356" fill="hsl(0.0,100%,20%)">awscreen</text>
<text x="0.660" y="0.641" font-size="0.049283" fill="hsl(0.0,100%,20%)">nigi</text>
<text x="0.647" y="0.410" font-size="0.024860" fill="hsl(0.0,100%,20%)">dhoss</text>
<text x="0.875" y="0.654" font-size="0.002325" fill="hsl(0.0,100%,20%)">bratell</text>
<text x="1.279" y="0.678" font-size="0.004027" fill="hsl(0.0,100%,20%)">brianosman</text>
<text x="0.622" y="0.824" font-size="0.027607" fill="hsl(0.0,100%,20%)">kmoon</text>
<text x="1.301" y="0.609" font-size="0.006975" fill="hsl(0.0,100%,20%)">reed</text>
<text x="0.833" y="0.065" font-size="0.004840" fill="hsl(0.0,100%,20%)">brucedawson</text>
<text x="1.289" y="0.227" font-size="0.009005" fill="hsl(0.0,100%,20%)">bungeman</text>
<text x="1.515" y="0.832" font-size="0.034432" fill="hsl(0.0,100%,20%)">npm</text>
<text x="1.435" y="0.905" font-size="0.008275" fill="hsl(0.0,100%,20%)">caryclark</text>
<text x="1.133" y="0.692" font-size="0.002325" fill="hsl(0.0,100%,20%)">dalecurtis</text>
<text x="1.412" y="0.450" font-size="0.003551" fill="hsl(0.0,100%,20%)">thomasanderson</text>
<text x="1.325" y="0.560" font-size="0.007711" fill="hsl(0.0,100%,20%)">drott</text>
<text x="1.977" y="0.684" font-size="0.001898" fill="hsl(0.0,100%,20%)">halcanary</text>
<text x="1.054" y="0.714" font-size="0.003288" fill="hsl(0.0,100%,20%)">rbpotter</text>
<text x="1.338" y="0.354" font-size="0.006151" fill="hsl(0.0,100%,20%)">xlou</text>
<text x="1.661" y="0.644" font-size="0.010738" fill="hsl(0.0,100%,20%)">janeliulwq</text>
<text x="1.643" y="0.678" font-size="0.006712" fill="hsl(0.0,100%,20%)">kjlubick</text>
<text x="0.813" y="0.838" font-size="0.009300" fill="hsl(0.0,100%,20%)">thakis</text>
<text x="1.032" y="0.328" font-size="0.004245" fill="hsl(0.0,100%,20%)">pkasting</text>
<text x="1.458" y="1.076" font-size="0.005369" fill="hsl(0.0,100%,20%)">palmer</text>
<text x="1.585" y="0.546" font-size="0.002325" fill="hsl(0.0,100%,20%)">stephana</text>
<text x="0.339" y="-0.749" font-size="0.002325" fill="hsl(0.0,100%,20%)">tandrii</text>
<text x="1.597" y="-45.202" font-size="0.001342" fill="hsl(0.0,100%,20%)">jbudorick</text>
<text x="1.111" y="0.644" font-size="0.001342" fill="hsl(0.0,100%,20%)">ochang</text>
<text x="1.050" y="0.633" font-size="0.001898" fill="hsl(0.0,100%,20%)">jochen</text>
<text x="1.301" y="0.630" font-size="0.001898" fill="hsl(0.0,100%,20%)">dcheng</text>
<text x="1.318" y="0.616" font-size="0.010905" fill="hsl(0.0,100%,20%)">vmiklos</text>
<text x="1.881" y="0.660" font-size="0.002685" fill="hsl(0.0,100%,20%)">vtsyrklevich</text>
<text x="1.718" y="0.595" font-size="0.004245" fill="hsl(0.0,100%,20%)">wileyrr</text>
</svg>
