<svg width="4000" height="2000" viewBox="-0.025 -0.025 2.05 1.05" xmlns="http://www.w3.org/2000/svg">
  <style>
    path {
      fill: none;
      stroke-linecap: round;
      stroke-opacity: 0.4;
    }

    text {
      text-anchor: middle;
      alignment-baseline: hanging;
    }
  </style>
  <g opacity="0.4">
<path d="M0.982 0.486 Q0.855 0.361 0.584 0.396" stroke="hsl(0.0,100%,35%)" stroke-width="0.00422"></path>
<path d="M0.982 0.486 Q1.258 0.396 1.144 0.242" stroke="hsl(0.0,100%,35%)" stroke-width="0.00065"></path>
<path d="M0.982 0.486 Q1.050 0.345 0.791 0.281" stroke="hsl(0.0,100%,35%)" stroke-width="0.00227"></path>
<path d="M0.584 0.396 Q0.779 0.380 0.791 0.281" stroke="hsl(0.0,100%,35%)" stroke-width="0.00519"></path>
<path d="M0.584 0.396 Q1.121 0.612 1.662 0.397" stroke="hsl(0.0,100%,35%)" stroke-width="0.00032"></path>
<path d="M0.584 0.396 Q0.987 0.431 1.144 0.242" stroke="hsl(0.0,100%,35%)" stroke-width="0.03864"></path>
<path d="M0.584 0.396 Q1.085 0.369 1.143 0.118" stroke="hsl(0.0,100%,35%)" stroke-width="0.00032"></path>
<path d="M0.584 0.396 Q0.300 0.552 0.543 0.725" stroke="hsl(0.0,100%,35%)" stroke-width="0.00032"></path>
<path d="M1.144 0.242 Q1.243 0.180 1.143 0.118" stroke="hsl(0.0,100%,35%)" stroke-width="0.12500"></path>
<path d="M1.144 0.242 Q0.741 0.207 0.584 0.396" stroke="hsl(0.0,100%,35%)" stroke-width="0.01591"></path>
<path d="M1.144 0.242 Q0.937 0.191 0.791 0.281" stroke="hsl(0.0,100%,35%)" stroke-width="0.02435"></path>
<path d="M1.144 0.242 Q1.295 0.317 1.474 0.260" stroke="hsl(0.0,100%,35%)" stroke-width="0.00130"></path>
<path d="M1.144 0.242 Q1.097 0.118 0.845 0.114" stroke="hsl(0.0,100%,35%)" stroke-width="0.00162"></path>
<path d="M1.144 0.242 Q0.999 0.242 0.966 0.313" stroke="hsl(0.0,100%,35%)" stroke-width="0.00032"></path>
<path d="M1.144 0.242 Q0.766 0.275 0.748 0.467" stroke="hsl(0.0,100%,35%)" stroke-width="0.00032"></path>
<path d="M1.144 0.242 Q1.218 0.314 1.374 0.293" stroke="hsl(0.0,100%,35%)" stroke-width="0.00065"></path>
<path d="M1.144 0.242 Q1.119 0.114 0.862 0.098" stroke="hsl(0.0,100%,35%)" stroke-width="0.00032"></path>
<path d="M1.144 0.242 Q1.136 0.289 1.226 0.304" stroke="hsl(0.0,100%,35%)" stroke-width="0.00065"></path>
<path d="M1.144 0.242 Q1.279 0.423 1.662 0.397" stroke="hsl(0.0,100%,35%)" stroke-width="0.00130"></path>
<path d="M1.144 0.242 Q0.457 0.363 0.543 0.725" stroke="hsl(0.0,100%,35%)" stroke-width="0.00032"></path>
<path d="M0.791 0.281 Q0.595 0.297 0.584 0.396" stroke="hsl(0.0,100%,35%)" stroke-width="0.00065"></path>
<path d="M0.791 0.281 Q1.097 0.270 1.143 0.118" stroke="hsl(0.0,100%,35%)" stroke-width="0.00097"></path>
<path d="M0.791 0.281 Q0.998 0.332 1.144 0.242" stroke="hsl(0.0,100%,35%)" stroke-width="0.01039"></path>
<path d="M1.143 0.118 Q0.837 0.129 0.791 0.281" stroke="hsl(0.0,100%,35%)" stroke-width="0.01818"></path>
<path d="M1.143 0.118 Q0.641 0.145 0.584 0.396" stroke="hsl(0.0,100%,35%)" stroke-width="0.00584"></path>
<path d="M1.143 0.118 Q1.045 0.180 1.144 0.242" stroke="hsl(0.0,100%,35%)" stroke-width="0.12013"></path>
<path d="M1.662 0.397 Q1.527 0.216 1.144 0.242" stroke="hsl(0.0,100%,35%)" stroke-width="0.00065"></path>
<path d="M1.662 0.397 Q1.626 0.154 1.143 0.118" stroke="hsl(0.0,100%,35%)" stroke-width="0.00032"></path>
<path d="M0.434 0.297 Q0.430 0.376 0.584 0.396" stroke="hsl(0.0,100%,35%)" stroke-width="0.00130"></path>
<path d="M0.434 0.297 Q0.625 0.360 0.791 0.281" stroke="hsl(0.0,100%,35%)" stroke-width="0.00130"></path>
<path d="M0.434 0.297 Q0.931 0.349 1.143 0.118" stroke="hsl(0.0,100%,35%)" stroke-width="0.00032"></path>
<path d="M0.434 0.297 Q0.833 0.412 1.144 0.242" stroke="hsl(0.0,100%,35%)" stroke-width="0.00877"></path>
<path d="M1.952 0.239 Q1.338 0.028 0.791 0.281" stroke="hsl(0.0,100%,35%)" stroke-width="0.00032"></path>
<path d="M1.952 0.239 Q1.644 0.017 1.143 0.118" stroke="hsl(0.0,100%,35%)" stroke-width="0.00422"></path>
<path d="M1.952 0.239 Q1.545 0.079 1.144 0.242" stroke="hsl(0.0,100%,35%)" stroke-width="0.00260"></path>
</g>
<text x="0.982" y="0.476" font-size="0.018898" fill="hsl(0.0,100%,20%)">awscreen</text>
<text x="0.584" y="0.366" font-size="0.060302" fill="hsl(0.0,100%,20%)">nigi</text>
<text x="1.144" y="0.176" font-size="0.133022" fill="hsl(0.0,100%,20%)">thestig</text>
<text x="0.791" y="0.252" font-size="0.056408" fill="hsl(0.0,100%,20%)">dhoss</text>
<text x="1.143" y="0.060" font-size="0.117330" fill="hsl(0.0,100%,20%)">tsepez</text>
<text x="1.662" y="0.392" font-size="0.011396" fill="hsl(0.0,100%,20%)">dsinclair</text>
<text x="0.434" y="0.285" font-size="0.024175" fill="hsl(0.0,100%,20%)">kmoon</text>
<text x="0.543" y="0.722" font-size="0.005698" fill="hsl(0.0,100%,20%)">reed</text>
<text x="1.474" y="0.256" font-size="0.008058" fill="hsl(0.0,100%,20%)">bungeman</text>
<text x="0.845" y="0.110" font-size="0.009009" fill="hsl(0.0,100%,20%)">thakis</text>
<text x="0.966" y="0.311" font-size="0.004029" fill="hsl(0.0,100%,20%)">brucedawson</text>
<text x="0.748" y="0.465" font-size="0.004029" fill="hsl(0.0,100%,20%)">drott</text>
<text x="1.374" y="0.291" font-size="0.005698" fill="hsl(0.0,100%,20%)">rbpotter</text>
<text x="0.862" y="0.096" font-size="0.004029" fill="hsl(0.0,100%,20%)">rharrison</text>
<text x="1.226" y="0.301" font-size="0.005698" fill="hsl(0.0,100%,20%)">hnakashima</text>
<text x="1.952" y="0.230" font-size="0.018898" fill="hsl(0.0,100%,20%)">vmiklos</text>
</svg>
