<svg width="4000" height="2000" viewBox="-0.025 -0.025 2.05 1.05" xmlns="http://www.w3.org/2000/svg">
  <style>
    path {
      fill: none;
      stroke-linecap: round;
      stroke-opacity: 0.4;
    }

    text {
      text-anchor: middle;
      alignment-baseline: hanging;
    }
  </style>
  <g opacity="0.4">
<path d="M1.591 0.918 Q1.729 0.686 1.305 0.567" stroke="hsl(0.0,100%,35%)" stroke-width="0.00161"></path>
<path d="M1.591 0.918 Q1.887 0.677 1.480 0.479" stroke="hsl(0.0,100%,35%)" stroke-width="0.00023"></path>
<path d="M1.591 0.918 Q1.772 0.761 1.505 0.639" stroke="hsl(0.0,100%,35%)" stroke-width="0.00029"></path>
<path d="M1.591 0.918 Q1.826 0.853 1.750 0.724" stroke="hsl(0.0,100%,35%)" stroke-width="0.00499"></path>
<path d="M1.305 0.567 Q1.348 0.643 1.505 0.639" stroke="hsl(0.0,100%,35%)" stroke-width="0.13471"></path>
<path d="M1.305 0.567 Q1.277 0.445 1.033 0.432" stroke="hsl(0.0,100%,35%)" stroke-width="0.00161"></path>
<path d="M1.305 0.567 Q0.964 0.519 0.795 0.674" stroke="hsl(0.0,100%,35%)" stroke-width="0.03109"></path>
<path d="M1.305 0.567 Q1.559 0.547 1.576 0.419" stroke="hsl(0.0,100%,35%)" stroke-width="0.00138"></path>
<path d="M1.305 0.567 Q0.945 0.346 0.435 0.472" stroke="hsl(0.0,100%,35%)" stroke-width="0.00379"></path>
<path d="M1.305 0.567 Q1.075 0.569 1.029 0.682" stroke="hsl(0.0,100%,35%)" stroke-width="0.00034"></path>
<path d="M1.305 0.567 Q1.643 0.481 1.549 0.297" stroke="hsl(0.0,100%,35%)" stroke-width="0.00092"></path>
<path d="M1.305 0.567 Q1.254 0.347 0.813 0.323" stroke="hsl(0.0,100%,35%)" stroke-width="0.00688"></path>
<path d="M1.305 0.567 Q1.120 0.561 1.068 0.650" stroke="hsl(0.0,100%,35%)" stroke-width="0.00057"></path>
<path d="M1.305 0.567 Q1.251 0.199 0.521 0.145" stroke="hsl(0.0,100%,35%)" stroke-width="0.00034"></path>
<path d="M1.305 0.567 Q1.394 0.484 1.250 0.422" stroke="hsl(0.0,100%,35%)" stroke-width="0.00029"></path>
<path d="M1.305 0.567 Q1.177 0.720 1.448 0.816" stroke="hsl(0.0,100%,35%)" stroke-width="0.00820"></path>
<path d="M1.305 0.567 Q1.463 0.558 1.480 0.479" stroke="hsl(0.0,100%,35%)" stroke-width="0.01497"></path>
<path d="M1.305 0.567 Q1.402 0.735 1.750 0.724" stroke="hsl(0.0,100%,35%)" stroke-width="0.01928"></path>
<path d="M1.305 0.567 Q1.307 0.416 1.012 0.382" stroke="hsl(0.0,100%,35%)" stroke-width="0.00103"></path>
<path d="M1.305 0.567 Q1.244 0.461 1.023 0.467" stroke="hsl(0.0,100%,35%)" stroke-width="0.00069"></path>
<path d="M1.305 0.567 Q1.553 0.732 1.929 0.647" stroke="hsl(0.0,100%,35%)" stroke-width="0.00465"></path>
<path d="M1.305 0.567 Q1.528 0.442 1.333 0.306" stroke="hsl(0.0,100%,35%)" stroke-width="0.00046"></path>
<path d="M1.305 0.567 Q1.074 0.784 1.446 0.944" stroke="hsl(0.0,100%,35%)" stroke-width="0.00023"></path>
<path d="M1.305 0.567 Q1.167 0.800 1.591 0.918" stroke="hsl(0.0,100%,35%)" stroke-width="0.00098"></path>
<path d="M1.480 0.479 Q1.322 0.488 1.305 0.567" stroke="hsl(0.0,100%,35%)" stroke-width="0.00528"></path>
<path d="M1.480 0.479 Q1.194 0.641 1.448 0.816" stroke="hsl(0.0,100%,35%)" stroke-width="0.00562"></path>
<path d="M1.480 0.479 Q1.365 0.564 1.505 0.639" stroke="hsl(0.0,100%,35%)" stroke-width="0.00275"></path>
<path d="M1.480 0.479 Q1.419 0.656 1.750 0.724" stroke="hsl(0.0,100%,35%)" stroke-width="0.00585"></path>
<path d="M1.480 0.479 Q1.570 0.653 1.929 0.647" stroke="hsl(0.0,100%,35%)" stroke-width="0.00103"></path>
<path d="M1.505 0.639 Q1.462 0.563 1.305 0.567" stroke="hsl(0.0,100%,35%)" stroke-width="0.16374"></path>
<path d="M1.505 0.639 Q1.121 0.514 0.795 0.674" stroke="hsl(0.0,100%,35%)" stroke-width="0.00293"></path>
<path d="M1.505 0.639 Q1.103 0.342 0.435 0.472" stroke="hsl(0.0,100%,35%)" stroke-width="0.00017"></path>
<path d="M1.505 0.639 Q1.411 0.342 0.813 0.323" stroke="hsl(0.0,100%,35%)" stroke-width="0.00384"></path>
<path d="M1.505 0.639 Q1.559 0.731 1.750 0.724" stroke="hsl(0.0,100%,35%)" stroke-width="0.01698"></path>
<path d="M1.505 0.639 Q1.620 0.554 1.480 0.479" stroke="hsl(0.0,100%,35%)" stroke-width="0.00052"></path>
<path d="M1.505 0.639 Q1.334 0.716 1.448 0.816" stroke="hsl(0.0,100%,35%)" stroke-width="0.00034"></path>
<path d="M1.505 0.639 Q1.710 0.728 1.929 0.647" stroke="hsl(0.0,100%,35%)" stroke-width="0.00075"></path>
<path d="M1.750 0.724 Q1.653 0.557 1.305 0.567" stroke="hsl(0.0,100%,35%)" stroke-width="0.00258"></path>
<path d="M1.750 0.724 Q1.696 0.632 1.505 0.639" stroke="hsl(0.0,100%,35%)" stroke-width="0.02702"></path>
<path d="M1.750 0.724 Q1.525 0.710 1.448 0.816" stroke="hsl(0.0,100%,35%)" stroke-width="0.01400"></path>
<path d="M1.750 0.724 Q1.811 0.548 1.480 0.479" stroke="hsl(0.0,100%,35%)" stroke-width="0.01589"></path>
<path d="M1.750 0.724 Q1.901 0.721 1.929 0.647" stroke="hsl(0.0,100%,35%)" stroke-width="0.01067"></path>
<path d="M1.750 0.724 Q1.423 0.773 1.446 0.944" stroke="hsl(0.0,100%,35%)" stroke-width="0.00029"></path>
<path d="M1.448 0.816 Q1.734 0.654 1.480 0.479" stroke="hsl(0.0,100%,35%)" stroke-width="0.00597"></path>
<path d="M1.448 0.816 Q1.576 0.663 1.305 0.567" stroke="hsl(0.0,100%,35%)" stroke-width="0.00218"></path>
<path d="M1.448 0.816 Q1.619 0.739 1.505 0.639" stroke="hsl(0.0,100%,35%)" stroke-width="0.00425"></path>
<path d="M1.448 0.816 Q1.673 0.831 1.750 0.724" stroke="hsl(0.0,100%,35%)" stroke-width="0.00597"></path>
<path d="M1.448 0.816 Q1.824 0.828 1.929 0.647" stroke="hsl(0.0,100%,35%)" stroke-width="0.00017"></path>
<path d="M1.319 0.268 Q1.072 0.415 1.305 0.567" stroke="hsl(0.0,100%,35%)" stroke-width="0.00235"></path>
<path d="M1.319 0.268 Q1.115 0.491 1.505 0.639" stroke="hsl(0.0,100%,35%)" stroke-width="0.00040"></path>
<path d="M1.319 0.268 Q1.169 0.582 1.750 0.724" stroke="hsl(0.0,100%,35%)" stroke-width="0.00023"></path>
<path d="M0.548 0.685 Q1.021 0.777 1.305 0.567" stroke="hsl(0.0,100%,35%)" stroke-width="0.00539"></path>
<path d="M0.548 0.685 Q0.680 0.729 0.795 0.674" stroke="hsl(0.0,100%,35%)" stroke-width="0.00516"></path>
<path d="M0.548 0.685 Q0.970 0.557 0.813 0.323" stroke="hsl(0.0,100%,35%)" stroke-width="0.00040"></path>
<path d="M0.795 0.674 Q1.135 0.723 1.305 0.567" stroke="hsl(0.0,100%,35%)" stroke-width="0.02151"></path>
<path d="M0.795 0.674 Q0.776 0.501 0.435 0.472" stroke="hsl(0.0,100%,35%)" stroke-width="0.00229"></path>
<path d="M0.795 0.674 Q1.178 0.799 1.505 0.639" stroke="hsl(0.0,100%,35%)" stroke-width="0.00029"></path>
<path d="M0.795 0.674 Q1.085 0.502 0.813 0.323" stroke="hsl(0.0,100%,35%)" stroke-width="0.00229"></path>
<path d="M0.795 0.674 Q0.951 0.717 1.068 0.650" stroke="hsl(0.0,100%,35%)" stroke-width="0.00023"></path>
<path d="M0.813 0.323 Q0.863 0.543 1.305 0.567" stroke="hsl(0.0,100%,35%)" stroke-width="0.00425"></path>
<path d="M0.813 0.323 Q0.906 0.619 1.505 0.639" stroke="hsl(0.0,100%,35%)" stroke-width="0.00075"></path>
<path d="M0.813 0.323 Q0.523 0.495 0.795 0.674" stroke="hsl(0.0,100%,35%)" stroke-width="0.00075"></path>
<path d="M1.141 0.866 Q1.462 0.749 1.305 0.567" stroke="hsl(0.0,100%,35%)" stroke-width="0.00017"></path>
<path d="M0.435 0.472 Q0.794 0.694 1.305 0.567" stroke="hsl(0.0,100%,35%)" stroke-width="0.00643"></path>
<path d="M0.435 0.472 Q0.837 0.770 1.505 0.639" stroke="hsl(0.0,100%,35%)" stroke-width="0.00080"></path>
<path d="M0.435 0.472 Q0.453 0.645 0.795 0.674" stroke="hsl(0.0,100%,35%)" stroke-width="0.01004"></path>
<path d="M0.435 0.472 Q1.048 0.674 1.576 0.419" stroke="hsl(0.0,100%,35%)" stroke-width="0.00023"></path>
<path d="M0.435 0.472 Q0.743 0.473 0.813 0.323" stroke="hsl(0.0,100%,35%)" stroke-width="0.00034"></path>
<path d="M1.012 0.382 Q1.107 0.700 1.750 0.724" stroke="hsl(0.0,100%,35%)" stroke-width="0.00029"></path>
<path d="M0.521 0.145 Q0.575 0.513 1.305 0.567" stroke="hsl(0.0,100%,35%)" stroke-width="0.00017"></path>
<path d="M1.576 0.419 Q1.322 0.439 1.305 0.567" stroke="hsl(0.0,100%,35%)" stroke-width="0.00040"></path>
<path d="M1.446 0.944 Q1.774 0.895 1.750 0.724" stroke="hsl(0.0,100%,35%)" stroke-width="0.00086"></path>
<path d="M1.446 0.944 Q1.925 0.892 1.929 0.647" stroke="hsl(0.0,100%,35%)" stroke-width="0.00040"></path>
<path d="M1.929 0.647 Q1.724 0.558 1.505 0.639" stroke="hsl(0.0,100%,35%)" stroke-width="0.00579"></path>
<path d="M1.929 0.647 Q1.681 0.482 1.305 0.567" stroke="hsl(0.0,100%,35%)" stroke-width="0.00287"></path>
<path d="M1.929 0.647 Q1.839 0.473 1.480 0.479" stroke="hsl(0.0,100%,35%)" stroke-width="0.00069"></path>
<path d="M1.929 0.647 Q1.553 0.636 1.448 0.816" stroke="hsl(0.0,100%,35%)" stroke-width="0.00046"></path>
<path d="M1.929 0.647 Q1.778 0.650 1.750 0.724" stroke="hsl(0.0,100%,35%)" stroke-width="0.00878"></path>
<path d="M1.929 0.647 Q1.450 0.699 1.446 0.944" stroke="hsl(0.0,100%,35%)" stroke-width="0.00017"></path>
<path d="M1.063 0.410 Q1.058 0.537 1.305 0.567" stroke="hsl(0.0,100%,35%)" stroke-width="0.00017"></path>
<path d="M1.333 0.306 Q1.111 0.431 1.305 0.567" stroke="hsl(0.0,100%,35%)" stroke-width="0.00046"></path>
<path d="M1.333 0.306 Q1.269 0.422 1.480 0.479" stroke="hsl(0.0,100%,35%)" stroke-width="0.00017"></path>
<path d="M1.898 0.819 Q1.900 0.742 1.750 0.724" stroke="hsl(0.0,100%,35%)" stroke-width="0.00229"></path>
<path d="M1.898 0.819 Q1.803 0.575 1.305 0.567" stroke="hsl(0.0,100%,35%)" stroke-width="0.00109"></path>
<path d="M1.898 0.819 Q2.051 0.739 1.929 0.647" stroke="hsl(0.0,100%,35%)" stroke-width="0.00017"></path>
<path d="M0.699 0.702 Q1.110 0.756 1.305 0.567" stroke="hsl(0.0,100%,35%)" stroke-width="0.00092"></path>
<path d="M0.699 0.702 Q0.769 0.707 0.795 0.674" stroke="hsl(0.0,100%,35%)" stroke-width="0.00029"></path>
<path d="M1.549 0.297 Q1.254 0.459 1.505 0.639" stroke="hsl(0.0,100%,35%)" stroke-width="0.00040"></path>
<path d="M1.549 0.297 Q1.211 0.383 1.305 0.567" stroke="hsl(0.0,100%,35%)" stroke-width="0.00120"></path>
<path d="M1.549 0.297 Q1.308 0.551 1.750 0.724" stroke="hsl(0.0,100%,35%)" stroke-width="0.00023"></path>
<path d="M1.002 0.439 Q1.051 0.563 1.305 0.567" stroke="hsl(0.0,100%,35%)" stroke-width="0.00034"></path>
<path d="M1.146 0.677 Q1.313 0.654 1.305 0.567" stroke="hsl(0.0,100%,35%)" stroke-width="0.00143"></path>
<path d="M1.146 0.677 Q1.356 0.729 1.505 0.639" stroke="hsl(0.0,100%,35%)" stroke-width="0.00092"></path>
<path d="M1.146 0.677 Q1.471 0.645 1.480 0.479" stroke="hsl(0.0,100%,35%)" stroke-width="0.00023"></path>
<path d="M1.146 0.677 Q1.561 0.819 1.929 0.647" stroke="hsl(0.0,100%,35%)" stroke-width="0.00040"></path>
<path d="M1.146 0.677 Q1.410 0.821 1.750 0.724" stroke="hsl(0.0,100%,35%)" stroke-width="0.00075"></path>
</g>
<text x="1.591" y="0.910" font-size="0.016119" fill="hsl(0.0,100%,20%)">art-snake</text>
<text x="1.305" y="0.507" font-size="0.119589" fill="hsl(0.0,100%,20%)">thestig</text>
<text x="1.480" y="0.458" font-size="0.043024" fill="hsl(0.0,100%,20%)">hnakashima</text>
<text x="1.505" y="0.585" font-size="0.107283" fill="hsl(0.0,100%,20%)">tsepez</text>
<text x="1.750" y="0.691" font-size="0.065648" fill="hsl(0.0,100%,20%)">dsinclair</text>
<text x="1.448" y="0.797" font-size="0.038519" fill="hsl(0.0,100%,20%)">rharrison</text>
<text x="1.068" y="0.647" font-size="0.005835" fill="hsl(0.0,100%,20%)">weili</text>
<text x="1.319" y="0.263" font-size="0.009745" fill="hsl(0.0,100%,20%)">asweintraub</text>
<text x="0.548" y="0.676" font-size="0.018597" fill="hsl(0.0,100%,20%)">awscreen</text>
<text x="0.795" y="0.650" font-size="0.049148" fill="hsl(0.0,100%,20%)">nigi</text>
<text x="0.813" y="0.310" font-size="0.024792" fill="hsl(0.0,100%,20%)">dhoss</text>
<text x="0.624" y="0.425" font-size="0.002319" fill="hsl(0.0,100%,20%)">bratell</text>
<text x="1.141" y="0.864" font-size="0.004016" fill="hsl(0.0,100%,20%)">brianosman</text>
<text x="0.435" y="0.459" font-size="0.027499" fill="hsl(0.0,100%,20%)">kmoon</text>
<text x="1.012" y="0.378" font-size="0.006956" fill="hsl(0.0,100%,20%)">reed</text>
<text x="0.521" y="0.143" font-size="0.004827" fill="hsl(0.0,100%,20%)">brucedawson</text>
<text x="1.576" y="0.414" font-size="0.008880" fill="hsl(0.0,100%,20%)">bungeman</text>
<text x="1.446" y="0.940" font-size="0.008252" fill="hsl(0.0,100%,20%)">caryclark</text>
<text x="1.929" y="0.630" font-size="0.034338" fill="hsl(0.0,100%,20%)">npm</text>
<text x="0.264" y="0.145" font-size="0.002319" fill="hsl(0.0,100%,20%)">dalecurtis</text>
<text x="1.029" y="0.680" font-size="0.003542" fill="hsl(0.0,100%,20%)">thomasanderson</text>
<text x="1.033" y="0.428" font-size="0.007806" fill="hsl(0.0,100%,20%)">drott</text>
<text x="1.598" y="0.785" font-size="0.001893" fill="hsl(0.0,100%,20%)">halcanary</text>
<text x="1.250" y="0.420" font-size="0.003279" fill="hsl(0.0,100%,20%)">rbpotter</text>
<text x="1.063" y="0.409" font-size="0.003279" fill="hsl(0.0,100%,20%)">hans</text>
<text x="1.229" y="0.069" font-size="0.001339" fill="hsl(0.0,100%,20%)">hwennborg</text>
<text x="1.333" y="0.303" font-size="0.006134" fill="hsl(0.0,100%,20%)">xlou</text>
<text x="1.898" y="0.814" font-size="0.010709" fill="hsl(0.0,100%,20%)">janeliulwq</text>
<text x="0.699" y="0.699" font-size="0.006693" fill="hsl(0.0,100%,20%)">kjlubick</text>
<text x="1.549" y="0.292" font-size="0.009466" fill="hsl(0.0,100%,20%)">thakis</text>
<text x="1.002" y="0.437" font-size="0.004233" fill="hsl(0.0,100%,20%)">pkasting</text>
<text x="1.023" y="0.464" font-size="0.005355" fill="hsl(0.0,100%,20%)">palmer</text>
<text x="1.389" y="0.235" font-size="0.002319" fill="hsl(0.0,100%,20%)">stephana</text>
<text x="0.966" y="0.730" font-size="0.002319" fill="hsl(0.0,100%,20%)">tandrii</text>
<text x="1.234" y="0.358" font-size="0.001339" fill="hsl(0.0,100%,20%)">jbudorick</text>
<text x="0.834" y="0.389" font-size="0.001339" fill="hsl(0.0,100%,20%)">ochang</text>
<text x="1.659" y="0.239" font-size="0.001893" fill="hsl(0.0,100%,20%)">jochen</text>
<text x="1.559" y="0.381" font-size="0.001893" fill="hsl(0.0,100%,20%)">dcheng</text>
<text x="1.146" y="0.671" font-size="0.010875" fill="hsl(0.0,100%,20%)">vmiklos</text>
<text x="1.769" y="0.842" font-size="0.002677" fill="hsl(0.0,100%,20%)">vtsyrklevich</text>
<text x="1.831" y="-5.221" font-size="0.004233" fill="hsl(0.0,100%,20%)">wileyrr</text>
</svg>
