<svg width="4000" height="2000" viewBox="-0.025 -0.025 2.05 1.05" xmlns="http://www.w3.org/2000/svg">
  <style>
    path {
      fill: none;
      stroke-linecap: round;
      stroke-opacity: 0.4;
    }

    text {
      text-anchor: middle;
      alignment-baseline: hanging;
    }
  </style>
  <g opacity="0.4">
<path d="M1.505 0.767 Q1.626 0.802 1.719 0.750" stroke="hsl(0.0,100%,35%)" stroke-width="0.00633"></path>
<path d="M1.505 0.767 Q1.440 0.906 1.696 0.968" stroke="hsl(0.0,100%,35%)" stroke-width="0.00165"></path>
<path d="M1.505 0.767 Q1.796 0.720 1.767 0.567" stroke="hsl(0.0,100%,35%)" stroke-width="0.00358"></path>
<path d="M1.505 0.767 Q1.494 0.543 1.054 0.499" stroke="hsl(0.0,100%,35%)" stroke-width="0.00028"></path>
<path d="M1.719 0.750 Q1.598 0.716 1.505 0.767" stroke="hsl(0.0,100%,35%)" stroke-width="0.01156"></path>
<path d="M1.719 0.750 Q1.534 0.854 1.696 0.968" stroke="hsl(0.0,100%,35%)" stroke-width="0.06798"></path>
<path d="M1.719 0.750 Q1.890 0.668 1.767 0.567" stroke="hsl(0.0,100%,35%)" stroke-width="0.02752"></path>
<path d="M1.719 0.750 Q1.006 0.616 0.587 0.934" stroke="hsl(0.0,100%,35%)" stroke-width="0.00055"></path>
<path d="M1.719 0.750 Q1.641 0.770 1.662 0.812" stroke="hsl(0.0,100%,35%)" stroke-width="0.00028"></path>
<path d="M1.696 0.968 Q1.882 0.864 1.719 0.750" stroke="hsl(0.0,100%,35%)" stroke-width="0.16624"></path>
<path d="M1.696 0.968 Q2.052 0.782 1.767 0.567" stroke="hsl(0.0,100%,35%)" stroke-width="0.00688"></path>
<path d="M1.696 0.968 Q1.761 0.829 1.505 0.767" stroke="hsl(0.0,100%,35%)" stroke-width="0.00716"></path>
<path d="M1.767 0.567 Q1.597 0.649 1.719 0.750" stroke="hsl(0.0,100%,35%)" stroke-width="0.00991"></path>
<path d="M1.767 0.567 Q1.465 0.390 1.054 0.499" stroke="hsl(0.0,100%,35%)" stroke-width="0.00028"></path>
<path d="M1.767 0.567 Q1.476 0.615 1.505 0.767" stroke="hsl(0.0,100%,35%)" stroke-width="0.00661"></path>
<path d="M1.767 0.567 Q1.191 0.529 0.990 0.802" stroke="hsl(0.0,100%,35%)" stroke-width="0.00110"></path>
<path d="M1.767 0.567 Q1.411 0.753 1.696 0.968" stroke="hsl(0.0,100%,35%)" stroke-width="0.00083"></path>
<path d="M1.198 0.564 Q1.310 0.761 1.719 0.750" stroke="hsl(0.0,100%,35%)" stroke-width="0.00138"></path>
<path d="M1.198 0.564 Q1.480 0.679 1.767 0.567" stroke="hsl(0.0,100%,35%)" stroke-width="0.00688"></path>
<path d="M1.198 0.564 Q1.189 0.727 1.505 0.767" stroke="hsl(0.0,100%,35%)" stroke-width="0.00055"></path>
<path d="M1.198 0.564 Q1.178 0.503 1.054 0.499" stroke="hsl(0.0,100%,35%)" stroke-width="0.00028"></path>
<path d="M0.587 0.934 Q1.300 1.069 1.719 0.750" stroke="hsl(0.0,100%,35%)" stroke-width="0.00110"></path>
<path d="M0.587 0.934 Q0.648 0.835 0.468 0.783" stroke="hsl(0.0,100%,35%)" stroke-width="0.00028"></path>
<path d="M0.587 0.934 Q1.115 1.173 1.696 0.968" stroke="hsl(0.0,100%,35%)" stroke-width="0.00028"></path>
<path d="M1.319 0.819 Q1.574 0.865 1.719 0.750" stroke="hsl(0.0,100%,35%)" stroke-width="0.00138"></path>
<path d="M1.319 0.819 Q1.388 0.969 1.696 0.968" stroke="hsl(0.0,100%,35%)" stroke-width="0.00055"></path>
<path d="M1.319 0.819 Q1.453 0.830 1.505 0.767" stroke="hsl(0.0,100%,35%)" stroke-width="0.00028"></path>
</g>
<text x="1.505" y="0.743" font-size="0.047859" fill="hsl(0.0,100%,20%)">dhoss</text>
<text x="1.719" y="0.684" font-size="0.133202" fill="hsl(0.0,100%,20%)">thestig</text>
<text x="1.696" y="0.906" font-size="0.123167" fill="hsl(0.0,100%,20%)">tsepez</text>
<text x="1.767" y="0.536" font-size="0.061920" fill="hsl(0.0,100%,20%)">nigi</text>
<text x="1.054" y="0.496" font-size="0.007056" fill="hsl(0.0,100%,20%)">bungeman</text>
<text x="1.198" y="0.552" font-size="0.023403" fill="hsl(0.0,100%,20%)">kmoon</text>
<text x="0.990" y="0.797" font-size="0.008148" fill="hsl(0.0,100%,20%)">weili</text>
<text x="0.587" y="0.929" font-size="0.011523" fill="hsl(0.0,100%,20%)">pkasting</text>
<text x="0.468" y="0.781" font-size="0.004074" fill="hsl(0.0,100%,20%)">npm</text>
<text x="1.662" y="0.810" font-size="0.004074" fill="hsl(0.0,100%,20%)">thomasanderson</text>
<text x="1.319" y="0.813" font-size="0.011523" fill="hsl(0.0,100%,20%)">vmiklos</text>
</svg>
