<svg width="4000" height="2000" viewBox="-0.025 -0.025 2.05 1.05" xmlns="http://www.w3.org/2000/svg">
  <style>
    path {
      fill: none;
      stroke-linecap: round;
      stroke-opacity: 0.4;
    }

    text {
      text-anchor: middle;
      alignment-baseline: hanging;
    }
  </style>
  <g opacity="0.4">
<path d="M1.054 0.616 Q0.511 0.776 0.704 1.076" stroke="hsl(0.0,100%,35%)" stroke-width="0.00150"></path>
<path d="M1.054 0.616 Q0.696 0.793 0.962 1.006" stroke="hsl(0.0,100%,35%)" stroke-width="0.01166"></path>
<path d="M0.704 1.076 Q1.262 1.035 1.303 0.754" stroke="hsl(0.0,100%,35%)" stroke-width="0.00479"></path>
<path d="M0.704 1.076 Q1.248 0.916 1.054 0.616" stroke="hsl(0.0,100%,35%)" stroke-width="0.01256"></path>
<path d="M0.704 1.076 Q0.889 1.093 0.962 1.006" stroke="hsl(0.0,100%,35%)" stroke-width="0.11814"></path>
<path d="M0.704 1.076 Q1.098 1.037 1.108 0.836" stroke="hsl(0.0,100%,35%)" stroke-width="0.00030"></path>
<path d="M0.962 1.006 Q0.777 0.990 0.704 1.076" stroke="hsl(0.0,100%,35%)" stroke-width="0.12771"></path>
<path d="M0.962 1.006 Q1.334 0.949 1.303 0.754" stroke="hsl(0.0,100%,35%)" stroke-width="0.01466"></path>
<path d="M0.962 1.006 Q1.320 0.830 1.054 0.616" stroke="hsl(0.0,100%,35%)" stroke-width="0.02243"></path>
<path d="M0.962 1.006 Q1.030 0.800 0.643 0.722" stroke="hsl(0.0,100%,35%)" stroke-width="0.00120"></path>
<path d="M0.962 1.006 Q1.411 1.075 1.644 0.872" stroke="hsl(0.0,100%,35%)" stroke-width="0.00150"></path>
<path d="M0.962 1.006 Q1.035 0.884 0.812 0.822" stroke="hsl(0.0,100%,35%)" stroke-width="0.00030"></path>
<path d="M0.962 1.006 Q1.105 0.955 1.037 0.875" stroke="hsl(0.0,100%,35%)" stroke-width="0.00030"></path>
<path d="M0.962 1.006 Q1.222 0.977 1.223 0.844" stroke="hsl(0.0,100%,35%)" stroke-width="0.00060"></path>
<path d="M0.962 1.006 Q1.261 0.893 1.105 0.722" stroke="hsl(0.0,100%,35%)" stroke-width="0.00030"></path>
<path d="M0.962 1.006 Q1.096 0.912 0.942 0.826" stroke="hsl(0.0,100%,35%)" stroke-width="0.00060"></path>
<path d="M0.962 1.006 Q1.171 0.950 1.108 0.836" stroke="hsl(0.0,100%,35%)" stroke-width="0.00120"></path>
<path d="M0.962 1.006 Q1.467 0.883 1.337 0.609" stroke="hsl(0.0,100%,35%)" stroke-width="0.00030"></path>
<path d="M1.108 0.836 Q0.899 0.892 0.962 1.006" stroke="hsl(0.0,100%,35%)" stroke-width="0.00060"></path>
<path d="M1.108 0.836 Q0.714 0.875 0.704 1.076" stroke="hsl(0.0,100%,35%)" stroke-width="0.00030"></path>
<path d="M1.421 0.901 Q1.480 0.804 1.303 0.754" stroke="hsl(0.0,100%,35%)" stroke-width="0.00120"></path>
<path d="M1.421 0.901 Q1.466 0.685 1.054 0.616" stroke="hsl(0.0,100%,35%)" stroke-width="0.00120"></path>
<path d="M1.421 0.901 Q0.922 0.845 0.704 1.076" stroke="hsl(0.0,100%,35%)" stroke-width="0.00030"></path>
<path d="M1.421 0.901 Q1.107 0.862 0.962 1.006" stroke="hsl(0.0,100%,35%)" stroke-width="0.00808"></path>
<path d="M1.303 0.754 Q1.289 0.635 1.054 0.616" stroke="hsl(0.0,100%,35%)" stroke-width="0.00479"></path>
<path d="M1.303 0.754 Q1.140 0.756 1.108 0.836" stroke="hsl(0.0,100%,35%)" stroke-width="0.00030"></path>
<path d="M1.303 0.754 Q0.931 0.812 0.962 1.006" stroke="hsl(0.0,100%,35%)" stroke-width="0.03679"></path>
<path d="M1.303 0.754 Q0.746 0.795 0.704 1.076" stroke="hsl(0.0,100%,35%)" stroke-width="0.00030"></path>
<path d="M1.303 0.754 Q1.436 0.689 1.337 0.609" stroke="hsl(0.0,100%,35%)" stroke-width="0.00030"></path>
</g>
<text x="1.054" y="0.589" font-size="0.053793" fill="hsl(0.0,100%,20%)">dhoss</text>
<text x="0.704" y="1.017" font-size="0.119217" fill="hsl(0.0,100%,20%)">tsepez</text>
<text x="0.962" y="0.938" font-size="0.136063" fill="hsl(0.0,100%,20%)">thestig</text>
<text x="1.108" y="0.830" font-size="0.011995" fill="hsl(0.0,100%,20%)">dsinclair</text>
<text x="1.421" y="0.889" font-size="0.023990" fill="hsl(0.0,100%,20%)">kmoon</text>
<text x="1.303" y="0.725" font-size="0.058080" fill="hsl(0.0,100%,20%)">nigi</text>
<text x="1.337" y="0.607" font-size="0.005655" fill="hsl(0.0,100%,20%)">reed</text>
<text x="0.643" y="0.718" font-size="0.007997" fill="hsl(0.0,100%,20%)">bungeman</text>
<text x="1.644" y="0.867" font-size="0.008941" fill="hsl(0.0,100%,20%)">thakis</text>
<text x="0.812" y="0.820" font-size="0.003998" fill="hsl(0.0,100%,20%)">brucedawson</text>
<text x="1.037" y="0.873" font-size="0.003998" fill="hsl(0.0,100%,20%)">drott</text>
<text x="1.223" y="0.841" font-size="0.005655" fill="hsl(0.0,100%,20%)">rbpotter</text>
<text x="1.105" y="0.720" font-size="0.003998" fill="hsl(0.0,100%,20%)">rharrison</text>
<text x="0.942" y="0.823" font-size="0.005655" fill="hsl(0.0,100%,20%)">hnakashima</text>
</svg>
