<svg width="4000" height="2000" viewBox="-0.025 -0.025 2.05 1.05" xmlns="http://www.w3.org/2000/svg">
  <style>
    path {
      fill: none;
      stroke-linecap: round;
      stroke-opacity: 0.4;
    }

    text {
      text-anchor: middle;
      alignment-baseline: hanging;
    }
  </style>
  <g opacity="0.4">
<path d="M1.804 0.507 Q1.707 0.606 1.879 0.676" stroke="hsl(0.0,100%,35%)" stroke-width="0.00437"></path>
<path d="M1.804 0.507 Q1.279 0.511 1.172 0.768" stroke="hsl(0.0,100%,35%)" stroke-width="0.00067"></path>
<path d="M1.804 0.507 Q1.473 0.436 1.262 0.582" stroke="hsl(0.0,100%,35%)" stroke-width="0.00235"></path>
<path d="M1.879 0.676 Q1.388 0.481 0.901 0.678" stroke="hsl(0.0,100%,35%)" stroke-width="0.00067"></path>
<path d="M1.879 0.676 Q1.646 0.505 1.262 0.582" stroke="hsl(0.0,100%,35%)" stroke-width="0.00572"></path>
<path d="M1.879 0.676 Q1.584 0.731 1.627 0.887" stroke="hsl(0.0,100%,35%)" stroke-width="0.00034"></path>
<path d="M1.879 0.676 Q1.451 0.580 1.172 0.768" stroke="hsl(0.0,100%,35%)" stroke-width="0.04003"></path>
<path d="M1.879 0.676 Q1.903 0.467 1.501 0.410" stroke="hsl(0.0,100%,35%)" stroke-width="0.00034"></path>
<path d="M1.172 0.768 Q1.108 0.669 0.901 0.678" stroke="hsl(0.0,100%,35%)" stroke-width="0.12279"></path>
<path d="M1.172 0.768 Q1.599 0.863 1.879 0.676" stroke="hsl(0.0,100%,35%)" stroke-width="0.01648"></path>
<path d="M1.172 0.768 Q1.366 0.693 1.262 0.582" stroke="hsl(0.0,100%,35%)" stroke-width="0.02523"></path>
<path d="M1.172 0.768 Q1.785 0.627 1.644 0.297" stroke="hsl(0.0,100%,35%)" stroke-width="0.00168"></path>
<path d="M1.172 0.768 Q1.091 0.853 1.240 0.912" stroke="hsl(0.0,100%,35%)" stroke-width="0.00034"></path>
<path d="M1.172 0.768 Q1.405 0.911 1.734 0.828" stroke="hsl(0.0,100%,35%)" stroke-width="0.00034"></path>
<path d="M1.172 0.768 Q1.247 0.948 1.615 0.951" stroke="hsl(0.0,100%,35%)" stroke-width="0.00067"></path>
<path d="M1.172 0.768 Q1.780 0.737 1.854 0.434" stroke="hsl(0.0,100%,35%)" stroke-width="0.00034"></path>
<path d="M1.172 0.768 Q1.367 0.856 1.581 0.780" stroke="hsl(0.0,100%,35%)" stroke-width="0.00067"></path>
<path d="M1.172 0.768 Q1.304 0.919 1.627 0.887" stroke="hsl(0.0,100%,35%)" stroke-width="0.00135"></path>
<path d="M1.172 0.768 Q1.623 0.655 1.501 0.410" stroke="hsl(0.0,100%,35%)" stroke-width="0.00034"></path>
<path d="M1.262 0.582 Q1.495 0.752 1.879 0.676" stroke="hsl(0.0,100%,35%)" stroke-width="0.00067"></path>
<path d="M1.262 0.582 Q1.004 0.558 0.901 0.678" stroke="hsl(0.0,100%,35%)" stroke-width="0.00101"></path>
<path d="M1.262 0.582 Q1.067 0.657 1.172 0.768" stroke="hsl(0.0,100%,35%)" stroke-width="0.01009"></path>
<path d="M0.901 0.678 Q1.159 0.702 1.262 0.582" stroke="hsl(0.0,100%,35%)" stroke-width="0.01951"></path>
<path d="M0.901 0.678 Q1.392 0.873 1.879 0.676" stroke="hsl(0.0,100%,35%)" stroke-width="0.00606"></path>
<path d="M0.901 0.678 Q0.964 0.777 1.172 0.768" stroke="hsl(0.0,100%,35%)" stroke-width="0.11606"></path>
<path d="M1.627 0.887 Q1.494 0.737 1.172 0.768" stroke="hsl(0.0,100%,35%)" stroke-width="0.00067"></path>
<path d="M1.627 0.887 Q1.431 0.637 0.901 0.678" stroke="hsl(0.0,100%,35%)" stroke-width="0.00034"></path>
<path d="M1.326 0.856 Q1.747 0.877 1.879 0.676" stroke="hsl(0.0,100%,35%)" stroke-width="0.00135"></path>
<path d="M1.326 0.856 Q1.513 0.706 1.262 0.582" stroke="hsl(0.0,100%,35%)" stroke-width="0.00135"></path>
<path d="M1.326 0.856 Q1.256 0.682 0.901 0.678" stroke="hsl(0.0,100%,35%)" stroke-width="0.00034"></path>
<path d="M1.326 0.856 Q1.319 0.781 1.172 0.768" stroke="hsl(0.0,100%,35%)" stroke-width="0.00908"></path>
<path d="M0.849 0.819 Q1.245 0.783 1.262 0.582" stroke="hsl(0.0,100%,35%)" stroke-width="0.00034"></path>
<path d="M0.849 0.819 Q0.988 0.759 0.901 0.678" stroke="hsl(0.0,100%,35%)" stroke-width="0.00437"></path>
<path d="M0.849 0.819 Q1.051 0.858 1.172 0.768" stroke="hsl(0.0,100%,35%)" stroke-width="0.00269"></path>
</g>
<text x="1.804" y="0.497" font-size="0.019237" fill="hsl(0.0,100%,20%)">awscreen</text>
<text x="1.879" y="0.645" font-size="0.061656" fill="hsl(0.0,100%,20%)">nigi</text>
<text x="1.172" y="0.702" font-size="0.132454" fill="hsl(0.0,100%,20%)">thestig</text>
<text x="1.262" y="0.553" font-size="0.057565" fill="hsl(0.0,100%,20%)">dhoss</text>
<text x="0.901" y="0.620" font-size="0.116437" fill="hsl(0.0,100%,20%)">tsepez</text>
<text x="1.627" y="0.881" font-size="0.011600" fill="hsl(0.0,100%,20%)">dsinclair</text>
<text x="1.326" y="0.844" font-size="0.024608" fill="hsl(0.0,100%,20%)">kmoon</text>
<text x="1.501" y="0.407" font-size="0.005800" fill="hsl(0.0,100%,20%)">reed</text>
<text x="1.466" y="12.555" font-size="0.008203" fill="hsl(0.0,100%,20%)">bungeman</text>
<text x="1.644" y="0.292" font-size="0.009171" fill="hsl(0.0,100%,20%)">thakis</text>
<text x="1.240" y="0.909" font-size="0.004101" fill="hsl(0.0,100%,20%)">brucedawson</text>
<text x="1.734" y="0.826" font-size="0.004101" fill="hsl(0.0,100%,20%)">drott</text>
<text x="1.615" y="0.948" font-size="0.005800" fill="hsl(0.0,100%,20%)">rbpotter</text>
<text x="1.854" y="0.432" font-size="0.004101" fill="hsl(0.0,100%,20%)">rharrison</text>
<text x="1.581" y="0.777" font-size="0.005800" fill="hsl(0.0,100%,20%)">hnakashima</text>
<text x="0.849" y="0.809" font-size="0.019237" fill="hsl(0.0,100%,20%)">vmiklos</text>
</svg>
