<svg width="4000" height="2000" viewBox="-0.025 -0.025 2.05 1.05" xmlns="http://www.w3.org/2000/svg">
  <style>
    path {
      fill: none;
      stroke-linecap: round;
      stroke-opacity: 0.4;
    }

    text {
      text-anchor: middle;
      alignment-baseline: hanging;
    }
  </style>
  <g opacity="0.4">
<path d="M1.027 0.504 Q0.642 0.646 0.835 0.864" stroke="hsl(0.0,100%,35%)" stroke-width="0.00027"></path>
<path d="M1.027 0.504 Q1.019 0.895 1.781 0.985" stroke="hsl(0.0,100%,35%)" stroke-width="0.00216"></path>
<path d="M1.027 0.504 Q0.824 0.424 0.624 0.506" stroke="hsl(0.0,100%,35%)" stroke-width="0.00027"></path>
<path d="M0.835 0.864 Q0.651 0.852 0.586 0.939" stroke="hsl(0.0,100%,35%)" stroke-width="0.00406"></path>
<path d="M0.835 0.864 Q1.212 1.114 1.781 0.985" stroke="hsl(0.0,100%,35%)" stroke-width="0.03462"></path>
<path d="M0.835 0.864 Q0.789 0.643 0.345 0.617" stroke="hsl(0.0,100%,35%)" stroke-width="0.00027"></path>
<path d="M1.781 0.985 Q1.405 0.736 0.835 0.864" stroke="hsl(0.0,100%,35%)" stroke-width="0.05545"></path>
<path d="M1.781 0.985 Q1.220 0.723 0.586 0.939" stroke="hsl(0.0,100%,35%)" stroke-width="0.00730"></path>
<path d="M1.781 0.985 Q1.859 0.771 1.459 0.686" stroke="hsl(0.0,100%,35%)" stroke-width="0.08087"></path>
<path d="M1.781 0.985 Q1.502 0.864 1.204 0.973" stroke="hsl(0.0,100%,35%)" stroke-width="0.00027"></path>
<path d="M1.781 0.985 Q1.793 0.812 1.459 0.769" stroke="hsl(0.0,100%,35%)" stroke-width="0.00027"></path>
<path d="M1.781 0.985 Q1.515 0.986 1.459 1.116" stroke="hsl(0.0,100%,35%)" stroke-width="0.00081"></path>
<path d="M1.781 0.985 Q1.673 0.782 1.254 0.790" stroke="hsl(0.0,100%,35%)" stroke-width="0.00027"></path>
<path d="M0.586 0.939 Q0.771 0.952 0.835 0.864" stroke="hsl(0.0,100%,35%)" stroke-width="0.01569"></path>
<path d="M0.586 0.939 Q1.147 1.201 1.781 0.985" stroke="hsl(0.0,100%,35%)" stroke-width="0.01298"></path>
<path d="M0.586 0.939 Q1.225 0.987 1.459 0.686" stroke="hsl(0.0,100%,35%)" stroke-width="0.00162"></path>
<path d="M0.586 0.939 Q0.724 0.730 0.345 0.617" stroke="hsl(0.0,100%,35%)" stroke-width="0.00081"></path>
<path d="M1.459 0.686 Q1.381 0.900 1.781 0.985" stroke="hsl(0.0,100%,35%)" stroke-width="0.13957"></path>
<path d="M1.459 0.686 Q0.820 0.638 0.586 0.939" stroke="hsl(0.0,100%,35%)" stroke-width="0.00027"></path>
<path d="M1.459 0.686 Q1.627 0.761 1.810 0.695" stroke="hsl(0.0,100%,35%)" stroke-width="0.00027"></path>
<path d="M1.459 0.686 Q1.004 0.651 0.835 0.864" stroke="hsl(0.0,100%,35%)" stroke-width="0.00189"></path>
</g>
<text x="1.027" y="0.497" font-size="0.012249" fill="hsl(0.0,100%,20%)">kjlubick</text>
<text x="0.835" y="0.825" font-size="0.078909" fill="hsl(0.0,100%,20%)">nigi</text>
<text x="1.781" y="0.917" font-size="0.136344" fill="hsl(0.0,100%,20%)">thestig</text>
<text x="0.624" y="0.504" font-size="0.003873" fill="hsl(0.0,100%,20%)">npm</text>
<text x="0.586" y="0.915" font-size="0.048689" fill="hsl(0.0,100%,20%)">kmoon</text>
<text x="1.459" y="0.630" font-size="0.111594" fill="hsl(0.0,100%,20%)">tsepez</text>
<text x="0.345" y="0.613" font-size="0.007747" fill="hsl(0.0,100%,20%)">bungeman</text>
<text x="1.243" y="-14.727" font-size="0.005478" fill="hsl(0.0,100%,20%)">thomasanderson</text>
<text x="1.204" y="0.971" font-size="0.003873" fill="hsl(0.0,100%,20%)">drott</text>
<text x="1.459" y="0.767" font-size="0.003873" fill="hsl(0.0,100%,20%)">thakis</text>
<text x="1.459" y="1.113" font-size="0.006709" fill="hsl(0.0,100%,20%)">dhoss</text>
<text x="1.254" y="0.788" font-size="0.003873" fill="hsl(0.0,100%,20%)">weili</text>
<text x="1.810" y="0.693" font-size="0.003873" fill="hsl(0.0,100%,20%)">dcheng</text>
</svg>
