<svg width="4000" height="2000" viewBox="-0.025 -0.025 2.05 1.05" xmlns="http://www.w3.org/2000/svg">
  <style>
    path {
      fill: none;
      stroke-linecap: round;
      stroke-opacity: 0.4;
    }

    text {
      text-anchor: middle;
      alignment-baseline: hanging;
    }
  </style>
  <g opacity="0.4">
<path d="M1.081 -4.350 Q-3.006 -2.195 0.301 0.272" stroke="hsl(0.0,100%,35%)" stroke-width="0.00481"></path>
<path d="M1.081 -4.350 Q-2.356 -1.861 1.745 0.362" stroke="hsl(0.0,100%,35%)" stroke-width="0.00074"></path>
<path d="M1.081 -4.350 Q-2.517 -1.894 1.485 0.399" stroke="hsl(0.0,100%,35%)" stroke-width="0.00259"></path>
<path d="M0.301 0.272 Q0.791 0.572 1.485 0.399" stroke="hsl(0.0,100%,35%)" stroke-width="0.01148"></path>
<path d="M0.301 0.272 Q0.951 0.605 1.745 0.362" stroke="hsl(0.0,100%,35%)" stroke-width="0.03704"></path>
<path d="M0.301 0.272 Q0.021 0.423 0.254 0.593" stroke="hsl(0.0,100%,35%)" stroke-width="0.00148"></path>
<path d="M0.301 0.272 Q0.857 0.666 1.749 0.482" stroke="hsl(0.0,100%,35%)" stroke-width="0.00148"></path>
<path d="M0.301 0.272 Q0.709 0.812 1.854 0.732" stroke="hsl(0.0,100%,35%)" stroke-width="0.00037"></path>
<path d="M1.745 0.362 Q1.651 0.422 1.749 0.482" stroke="hsl(0.0,100%,35%)" stroke-width="0.11630"></path>
<path d="M1.745 0.362 Q1.095 0.028 0.301 0.272" stroke="hsl(0.0,100%,35%)" stroke-width="0.01815"></path>
<path d="M1.745 0.362 Q1.585 0.328 1.485 0.399" stroke="hsl(0.0,100%,35%)" stroke-width="0.02778"></path>
<path d="M1.745 0.362 Q1.822 -0.033 1.070 -0.157" stroke="hsl(0.0,100%,35%)" stroke-width="0.00148"></path>
<path d="M1.745 0.362 Q1.836 0.413 1.958 0.380" stroke="hsl(0.0,100%,35%)" stroke-width="0.00111"></path>
<path d="M1.745 0.362 Q1.881 0.315 1.819 0.238" stroke="hsl(0.0,100%,35%)" stroke-width="0.00037"></path>
<path d="M1.745 0.362 Q1.892 0.239 1.686 0.141" stroke="hsl(0.0,100%,35%)" stroke-width="0.00037"></path>
<path d="M1.745 0.362 Q1.507 0.043 0.832 0.089" stroke="hsl(0.0,100%,35%)" stroke-width="0.00074"></path>
<path d="M1.745 0.362 Q1.666 0.222 1.375 0.230" stroke="hsl(0.0,100%,35%)" stroke-width="0.00037"></path>
<path d="M1.745 0.362 Q1.782 0.143 1.363 0.077" stroke="hsl(0.0,100%,35%)" stroke-width="0.00074"></path>
<path d="M1.485 0.399 Q0.995 0.099 0.301 0.272" stroke="hsl(0.0,100%,35%)" stroke-width="0.00185"></path>
<path d="M1.485 0.399 Q1.723 0.038 1.070 -0.157" stroke="hsl(0.0,100%,35%)" stroke-width="0.00037"></path>
<path d="M1.485 0.399 Q1.551 0.493 1.749 0.482" stroke="hsl(0.0,100%,35%)" stroke-width="0.00148"></path>
<path d="M1.485 0.399 Q1.645 0.433 1.745 0.362" stroke="hsl(0.0,100%,35%)" stroke-width="0.00963"></path>
<path d="M1.749 0.482 Q1.843 0.421 1.745 0.362" stroke="hsl(0.0,100%,35%)" stroke-width="0.10889"></path>
<path d="M1.749 0.482 Q1.193 0.087 0.301 0.272" stroke="hsl(0.0,100%,35%)" stroke-width="0.00741"></path>
<path d="M1.749 0.482 Q1.683 0.388 1.485 0.399" stroke="hsl(0.0,100%,35%)" stroke-width="0.02444"></path>
<path d="M1.854 0.732 Q2.096 0.525 1.745 0.362" stroke="hsl(0.0,100%,35%)" stroke-width="0.00074"></path>
<path d="M1.854 0.732 Q2.002 0.586 1.749 0.482" stroke="hsl(0.0,100%,35%)" stroke-width="0.00037"></path>
<path d="M0.594 0.214 Q0.401 0.184 0.301 0.272" stroke="hsl(0.0,100%,35%)" stroke-width="0.00148"></path>
<path d="M0.594 0.214 Q0.891 0.485 1.485 0.399" stroke="hsl(0.0,100%,35%)" stroke-width="0.00148"></path>
<path d="M0.594 0.214 Q0.957 0.579 1.749 0.482" stroke="hsl(0.0,100%,35%)" stroke-width="0.00037"></path>
<path d="M0.594 0.214 Q1.052 0.518 1.745 0.362" stroke="hsl(0.0,100%,35%)" stroke-width="0.00593"></path>
<path d="M1.691 0.580 Q1.732 0.449 1.485 0.399" stroke="hsl(0.0,100%,35%)" stroke-width="0.00037"></path>
<path d="M1.691 0.580 Q1.798 0.542 1.749 0.482" stroke="hsl(0.0,100%,35%)" stroke-width="0.00481"></path>
<path d="M1.691 0.580 Q1.893 0.482 1.745 0.362" stroke="hsl(0.0,100%,35%)" stroke-width="0.00296"></path>
</g>
<text x="1.081" y="-4.360" font-size="0.020184" fill="hsl(0.0,100%,20%)">awscreen</text>
<text x="0.301" y="0.239" font-size="0.065405" fill="hsl(0.0,100%,20%)">nigi</text>
<text x="1.745" y="0.297" font-size="0.129099" fill="hsl(0.0,100%,20%)">thestig</text>
<text x="1.485" y="0.368" font-size="0.063828" fill="hsl(0.0,100%,20%)">dhoss</text>
<text x="1.070" y="-0.162" font-size="0.009623" fill="hsl(0.0,100%,20%)">bungeman</text>
<text x="1.749" y="0.424" font-size="0.115229" fill="hsl(0.0,100%,20%)">tsepez</text>
<text x="1.854" y="0.728" font-size="0.008607" fill="hsl(0.0,100%,20%)">dsinclair</text>
<text x="0.594" y="0.203" font-size="0.021517" fill="hsl(0.0,100%,20%)">kmoon</text>
<text x="0.254" y="0.588" font-size="0.008607" fill="hsl(0.0,100%,20%)">weili</text>
<text x="1.958" y="0.377" font-size="0.007454" fill="hsl(0.0,100%,20%)">thakis</text>
<text x="1.819" y="0.236" font-size="0.004303" fill="hsl(0.0,100%,20%)">brucedawson</text>
<text x="1.686" y="0.139" font-size="0.004303" fill="hsl(0.0,100%,20%)">drott</text>
<text x="0.832" y="0.086" font-size="0.006086" fill="hsl(0.0,100%,20%)">rbpotter</text>
<text x="1.375" y="0.228" font-size="0.004303" fill="hsl(0.0,100%,20%)">rharrison</text>
<text x="1.363" y="0.074" font-size="0.006086" fill="hsl(0.0,100%,20%)">hnakashima</text>
<text x="1.691" y="0.570" font-size="0.020184" fill="hsl(0.0,100%,20%)">vmiklos</text>
</svg>
