<svg width="4000" height="2000" viewBox="-0.025 -0.025 2.05 1.05" xmlns="http://www.w3.org/2000/svg">
  <style>
    path {
      fill: none;
      stroke-linecap: round;
      stroke-opacity: 0.4;
    }

    text {
      text-anchor: middle;
      alignment-baseline: hanging;
    }
  </style>
  <g opacity="0.4">
<path d="M1.315 0.179 Q1.010 0.237 1.055 0.398" stroke="hsl(0.0,100%,35%)" stroke-width="0.01598"></path>
<path d="M1.315 0.179 Q1.054 0.322 1.275 0.480" stroke="hsl(0.0,100%,35%)" stroke-width="0.00080"></path>
<path d="M1.315 0.179 Q1.119 0.179 1.074 0.274" stroke="hsl(0.0,100%,35%)" stroke-width="0.00080"></path>
<path d="M1.055 0.398 Q1.099 0.483 1.275 0.480" stroke="hsl(0.0,100%,35%)" stroke-width="0.07590"></path>
<path d="M1.055 0.398 Q1.164 0.340 1.074 0.274" stroke="hsl(0.0,100%,35%)" stroke-width="0.13583"></path>
<path d="M1.055 0.398 Q1.081 0.176 0.654 0.115" stroke="hsl(0.0,100%,35%)" stroke-width="0.00080"></path>
<path d="M1.055 0.398 Q0.855 0.850 1.693 1.047" stroke="hsl(0.0,100%,35%)" stroke-width="0.00080"></path>
<path d="M1.055 0.398 Q0.972 0.279 0.722 0.293" stroke="hsl(0.0,100%,35%)" stroke-width="0.01838"></path>
<path d="M1.074 0.274 Q0.966 0.332 1.055 0.398" stroke="hsl(0.0,100%,35%)" stroke-width="0.03196"></path>
<path d="M1.074 0.274 Q1.010 0.417 1.275 0.480" stroke="hsl(0.0,100%,35%)" stroke-width="0.00080"></path>
<path d="M1.074 0.274 Q0.395 0.472 0.632 0.846" stroke="hsl(0.0,100%,35%)" stroke-width="0.00080"></path>
</g>
<text x="1.315" y="0.162" font-size="0.035255" fill="hsl(0.0,100%,20%)">awscreen</text>
<text x="1.055" y="0.328" font-size="0.140620" fill="hsl(0.0,100%,20%)">thestig</text>
<text x="1.275" y="0.443" font-size="0.074029" fill="hsl(0.0,100%,20%)">nigi</text>
<text x="1.074" y="0.220" font-size="0.109699" fill="hsl(0.0,100%,20%)">tsepez</text>
<text x="0.654" y="0.111" font-size="0.007516" fill="hsl(0.0,100%,20%)">kmoon</text>
<text x="1.693" y="1.043" font-size="0.007516" fill="hsl(0.0,100%,20%)">bungeman</text>
<text x="0.722" y="0.275" font-size="0.036048" fill="hsl(0.0,100%,20%)">drott</text>
<text x="0.632" y="0.843" font-size="0.007516" fill="hsl(0.0,100%,20%)">thakis</text>
</svg>
