<svg width="4000" height="2000" viewBox="-0.025 -0.025 2.05 1.05" xmlns="http://www.w3.org/2000/svg">
  <style>
    path {
      fill: none;
      stroke-linecap: round;
      stroke-opacity: 0.4;
    }

    text {
      text-anchor: middle;
      alignment-baseline: hanging;
    }
  </style>
  <g opacity="0.4">
<path d="M0.749 0.426 Q1.335 0.598 1.798 0.349" stroke="hsl(0.0,100%,35%)" stroke-width="0.00559"></path>
<path d="M0.749 0.426 Q1.281 0.504 1.551 0.262" stroke="hsl(0.0,100%,35%)" stroke-width="0.00117"></path>
<path d="M0.749 0.426 Q1.292 0.679 1.904 0.470" stroke="hsl(0.0,100%,35%)" stroke-width="0.00186"></path>
<path d="M1.798 0.349 Q1.745 0.256 1.551 0.262" stroke="hsl(0.0,100%,35%)" stroke-width="0.07131"></path>
<path d="M1.798 0.349 Q1.755 0.431 1.904 0.470" stroke="hsl(0.0,100%,35%)" stroke-width="0.03216"></path>
<path d="M1.798 0.349 Q1.254 0.281 1.002 0.532" stroke="hsl(0.0,100%,35%)" stroke-width="0.00023"></path>
<path d="M1.798 0.349 Q1.212 0.178 0.749 0.426" stroke="hsl(0.0,100%,35%)" stroke-width="0.00979"></path>
<path d="M1.798 0.349 Q1.698 0.357 1.691 0.408" stroke="hsl(0.0,100%,35%)" stroke-width="0.00047"></path>
<path d="M1.798 0.349 Q1.659 0.420 1.765 0.504" stroke="hsl(0.0,100%,35%)" stroke-width="0.00023"></path>
<path d="M1.551 0.262 Q1.604 0.355 1.798 0.349" stroke="hsl(0.0,100%,35%)" stroke-width="0.16103"></path>
<path d="M1.551 0.262 Q1.561 0.436 1.904 0.470" stroke="hsl(0.0,100%,35%)" stroke-width="0.00443"></path>
<path d="M1.551 0.262 Q1.018 0.184 0.749 0.426" stroke="hsl(0.0,100%,35%)" stroke-width="0.00023"></path>
<path d="M1.904 0.470 Q1.947 0.388 1.798 0.349" stroke="hsl(0.0,100%,35%)" stroke-width="0.01258"></path>
<path d="M1.904 0.470 Q2.201 -0.064 1.225 -0.326" stroke="hsl(0.0,100%,35%)" stroke-width="0.00023"></path>
<path d="M1.904 0.470 Q1.361 0.217 0.749 0.426" stroke="hsl(0.0,100%,35%)" stroke-width="0.00210"></path>
<path d="M1.320 0.075 Q1.297 0.389 1.904 0.470" stroke="hsl(0.0,100%,35%)" stroke-width="0.00792"></path>
<path d="M1.320 0.075 Q1.340 0.308 1.798 0.349" stroke="hsl(0.0,100%,35%)" stroke-width="0.00280"></path>
<path d="M1.320 0.075 Q0.753 0.136 0.749 0.426" stroke="hsl(0.0,100%,35%)" stroke-width="0.00047"></path>
<path d="M1.320 0.075 Q1.593 -0.144 1.225 -0.326" stroke="hsl(0.0,100%,35%)" stroke-width="0.00023"></path>
<path d="M1.691 0.408 Q1.791 0.400 1.798 0.349" stroke="hsl(0.0,100%,35%)" stroke-width="0.00093"></path>
<path d="M1.691 0.408 Q1.521 0.556 1.773 0.672" stroke="hsl(0.0,100%,35%)" stroke-width="0.00023"></path>
<path d="M1.691 0.408 Q1.738 0.307 1.551 0.262" stroke="hsl(0.0,100%,35%)" stroke-width="0.00023"></path>
</g>
<text x="0.749" y="0.408" font-size="0.036622" fill="hsl(0.0,100%,20%)">dhoss</text>
<text x="1.798" y="0.281" font-size="0.137082" fill="hsl(0.0,100%,20%)">thestig</text>
<text x="1.551" y="0.200" font-size="0.122790" fill="hsl(0.0,100%,20%)">tsepez</text>
<text x="1.904" y="0.438" font-size="0.062259" fill="hsl(0.0,100%,20%)">nigi</text>
<text x="1.320" y="0.062" font-size="0.026873" fill="hsl(0.0,100%,20%)">kmoon</text>
<text x="1.225" y="-0.328" font-size="0.005429" fill="hsl(0.0,100%,20%)">bungeman</text>
<text x="1.691" y="0.402" font-size="0.010859" fill="hsl(0.0,100%,20%)">pkasting</text>
<text x="1.773" y="0.670" font-size="0.003839" fill="hsl(0.0,100%,20%)">npm</text>
<text x="1.002" y="0.530" font-size="0.003839" fill="hsl(0.0,100%,20%)">weili</text>
<text x="1.765" y="0.502" font-size="0.003839" fill="hsl(0.0,100%,20%)">thomasanderson</text>
</svg>
