<svg width="4000" height="2000" viewBox="-0.025 -0.025 2.05 1.05" xmlns="http://www.w3.org/2000/svg">
  <style>
    path {
      fill: none;
      stroke-linecap: round;
      stroke-opacity: 0.4;
    }

    text {
      text-anchor: middle;
      alignment-baseline: hanging;
    }
  </style>
  <g opacity="0.4">
<path d="M0.253 0.911 Q0.564 0.872 0.557 0.712" stroke="hsl(0.0,100%,35%)" stroke-width="0.00567"></path>
<path d="M0.253 0.911 Q0.754 0.879 0.801 0.627" stroke="hsl(0.0,100%,35%)" stroke-width="0.00113"></path>
<path d="M0.253 0.911 Q0.735 0.727 0.481 0.451" stroke="hsl(0.0,100%,35%)" stroke-width="0.00028"></path>
<path d="M0.557 0.712 Q0.747 0.719 0.801 0.627" stroke="hsl(0.0,100%,35%)" stroke-width="0.16825"></path>
<path d="M0.557 0.712 Q0.497 0.813 0.682 0.864" stroke="hsl(0.0,100%,35%)" stroke-width="0.01788"></path>
<path d="M0.557 0.712 Q0.456 0.738 0.483 0.793" stroke="hsl(0.0,100%,35%)" stroke-width="0.00454"></path>
<path d="M0.557 0.712 Q0.637 0.749 0.727 0.718" stroke="hsl(0.0,100%,35%)" stroke-width="0.00199"></path>
<path d="M0.557 0.712 Q0.420 0.673 0.315 0.731" stroke="hsl(0.0,100%,35%)" stroke-width="0.00709"></path>
<path d="M0.557 0.712 Q0.705 0.909 1.121 0.879" stroke="hsl(0.0,100%,35%)" stroke-width="0.01362"></path>
<path d="M0.557 0.712 Q0.837 0.970 1.400 0.890" stroke="hsl(0.0,100%,35%)" stroke-width="0.00028"></path>
<path d="M0.557 0.712 Q0.301 0.667 0.158 0.782" stroke="hsl(0.0,100%,35%)" stroke-width="0.00028"></path>
<path d="M0.557 0.712 Q0.728 0.566 0.481 0.451" stroke="hsl(0.0,100%,35%)" stroke-width="0.00057"></path>
<path d="M0.557 0.712 Q0.315 0.815 0.463 0.955" stroke="hsl(0.0,100%,35%)" stroke-width="0.00028"></path>
<path d="M0.557 0.712 Q0.645 0.556 0.360 0.478" stroke="hsl(0.0,100%,35%)" stroke-width="0.00085"></path>
<path d="M0.557 0.712 Q0.568 0.551 0.255 0.510" stroke="hsl(0.0,100%,35%)" stroke-width="0.00199"></path>
<path d="M0.557 0.712 Q0.800 0.846 1.114 0.756" stroke="hsl(0.0,100%,35%)" stroke-width="0.00057"></path>
<path d="M0.801 0.627 Q0.611 0.621 0.557 0.712" stroke="hsl(0.0,100%,35%)" stroke-width="0.16116"></path>
<path d="M0.801 0.627 Q0.759 0.817 1.121 0.879" stroke="hsl(0.0,100%,35%)" stroke-width="0.00028"></path>
<path d="M0.801 0.627 Q0.552 0.722 0.682 0.864" stroke="hsl(0.0,100%,35%)" stroke-width="0.00057"></path>
</g>
<text x="0.253" y="0.901" font-size="0.019139" fill="hsl(0.0,100%,20%)">dhoss</text>
<text x="0.557" y="0.642" font-size="0.141006" fill="hsl(0.0,100%,20%)">thestig</text>
<text x="0.801" y="0.562" font-size="0.130819" fill="hsl(0.0,100%,20%)">tsepez</text>
<text x="0.481" y="0.448" font-size="0.006630" fill="hsl(0.0,100%,20%)">thomasanderson</text>
<text x="0.682" y="0.849" font-size="0.030861" fill="hsl(0.0,100%,20%)">hnakashima</text>
<text x="0.483" y="0.785" font-size="0.015311" fill="hsl(0.0,100%,20%)">reed</text>
<text x="0.727" y="0.713" font-size="0.010127" fill="hsl(0.0,100%,20%)">palmer</text>
<text x="0.315" y="0.722" font-size="0.019139" fill="hsl(0.0,100%,20%)">npm</text>
<text x="1.121" y="0.866" font-size="0.026795" fill="hsl(0.0,100%,20%)">dsinclair</text>
<text x="1.400" y="0.888" font-size="0.003828" fill="hsl(0.0,100%,20%)">bungeman</text>
<text x="0.158" y="0.780" font-size="0.003828" fill="hsl(0.0,100%,20%)">halcanary</text>
<text x="0.463" y="0.953" font-size="0.003828" fill="hsl(0.0,100%,20%)">jbudorick</text>
<text x="0.360" y="0.475" font-size="0.006630" fill="hsl(0.0,100%,20%)">thakis</text>
<text x="0.255" y="0.505" font-size="0.010127" fill="hsl(0.0,100%,20%)">weili</text>
<text x="1.114" y="0.754" font-size="0.005413" fill="hsl(0.0,100%,20%)">brucedawson</text>
</svg>
