<svg width="4000" height="2000" viewBox="-0.025 -0.025 2.05 1.05" xmlns="http://www.w3.org/2000/svg">
  <style>
    path {
      fill: none;
      stroke-linecap: round;
      stroke-opacity: 0.4;
    }

    text {
      text-anchor: middle;
      alignment-baseline: hanging;
    }
  </style>
  <g opacity="0.4">
<path d="M1.398 0.528 Q0.849 0.707 1.078 1.014" stroke="hsl(0.0,100%,35%)" stroke-width="0.00090"></path>
<path d="M1.398 0.528 Q1.158 0.575 1.196 0.702" stroke="hsl(0.0,100%,35%)" stroke-width="0.00090"></path>
<path d="M1.398 0.528 Q1.499 0.415 1.300 0.341" stroke="hsl(0.0,100%,35%)" stroke-width="0.00090"></path>
<path d="M1.398 0.528 Q0.858 0.404 0.496 0.640" stroke="hsl(0.0,100%,35%)" stroke-width="0.00090"></path>
<path d="M1.078 1.014 Q1.195 1.004 1.202 0.945" stroke="hsl(180.0,100%,35%)" stroke-width="0.06326"></path>
<path d="M1.078 1.014 Q1.189 0.946 1.081 0.877" stroke="hsl(180.0,100%,35%)" stroke-width="0.00452"></path>
<path d="M1.078 1.014 Q1.775 0.915 1.735 0.553" stroke="hsl(180.0,100%,35%)" stroke-width="0.00271"></path>
<path d="M1.078 1.014 Q1.626 0.835 1.398 0.528" stroke="hsl(180.0,100%,35%)" stroke-width="0.00271"></path>
<path d="M1.078 1.014 Q1.256 0.634 0.555 0.463" stroke="hsl(180.0,100%,35%)" stroke-width="0.00181"></path>
<path d="M1.078 1.014 Q1.386 0.882 1.196 0.702" stroke="hsl(180.0,100%,35%)" stroke-width="0.01084"></path>
<path d="M1.078 1.014 Q0.945 0.591 0.091 0.563" stroke="hsl(180.0,100%,35%)" stroke-width="0.00181"></path>
<path d="M1.078 1.014 Q1.086 0.711 0.496 0.640" stroke="hsl(180.0,100%,35%)" stroke-width="0.00542"></path>
<path d="M1.078 1.014 Q1.548 0.957 1.540 0.714" stroke="hsl(180.0,100%,35%)" stroke-width="0.00090"></path>
<path d="M1.078 1.014 Q0.937 0.773 0.437 0.789" stroke="hsl(180.0,100%,35%)" stroke-width="0.00271"></path>
<path d="M1.078 1.014 Q1.727 0.722 1.300 0.341" stroke="hsl(180.0,100%,35%)" stroke-width="0.00633"></path>
<path d="M1.078 1.014 Q1.078 0.887 0.830 0.859" stroke="hsl(180.0,100%,35%)" stroke-width="0.00181"></path>
<path d="M1.078 1.014 Q1.174 0.800 0.778 0.707" stroke="hsl(180.0,100%,35%)" stroke-width="0.00271"></path>
<path d="M1.078 1.014 Q1.319 0.984 1.315 0.860" stroke="hsl(180.0,100%,35%)" stroke-width="0.00090"></path>
<path d="M1.078 1.014 Q1.549 0.670 0.982 0.364" stroke="hsl(180.0,100%,35%)" stroke-width="0.00633"></path>
<path d="M1.078 1.014 Q1.364 0.724 0.862 0.521" stroke="hsl(180.0,100%,35%)" stroke-width="0.00090"></path>
<path d="M1.196 0.702 Q0.896 0.531 0.496 0.640" stroke="hsl(0.0,100%,35%)" stroke-width="0.00181"></path>
<path d="M1.196 0.702 Q1.358 0.777 1.540 0.714" stroke="hsl(0.0,100%,35%)" stroke-width="0.00633"></path>
<path d="M1.196 0.702 Q1.585 0.735 1.735 0.553" stroke="hsl(0.0,100%,35%)" stroke-width="0.01175"></path>
<path d="M1.196 0.702 Q1.436 0.656 1.398 0.528" stroke="hsl(0.0,100%,35%)" stroke-width="0.00271"></path>
<path d="M1.196 0.702 Q1.005 0.825 1.202 0.945" stroke="hsl(0.0,100%,35%)" stroke-width="0.01175"></path>
<path d="M1.196 0.702 Q0.887 0.834 1.078 1.014" stroke="hsl(0.0,100%,35%)" stroke-width="0.00723"></path>
<path d="M1.196 0.702 Q0.747 0.594 0.437 0.789" stroke="hsl(0.0,100%,35%)" stroke-width="0.01175"></path>
<path d="M1.196 0.702 Q1.537 0.543 1.300 0.341" stroke="hsl(0.0,100%,35%)" stroke-width="0.00271"></path>
<path d="M1.300 0.341 Q0.659 0.330 0.496 0.640" stroke="hsl(0.0,100%,35%)" stroke-width="0.00994"></path>
<path d="M1.300 0.341 Q0.651 0.633 1.078 1.014" stroke="hsl(0.0,100%,35%)" stroke-width="0.00090"></path>
<path d="M1.300 0.341 Q1.123 0.289 0.982 0.364" stroke="hsl(0.0,100%,35%)" stroke-width="0.00090"></path>
<path d="M1.300 0.341 Q1.348 0.534 1.735 0.553" stroke="hsl(0.0,100%,35%)" stroke-width="0.00090"></path>
<path d="M1.300 0.341 Q1.122 0.576 1.540 0.714" stroke="hsl(0.0,100%,35%)" stroke-width="0.00271"></path>
<path d="M1.300 0.341 Q0.769 0.624 1.202 0.945" stroke="hsl(0.0,100%,35%)" stroke-width="0.00090"></path>
<path d="M1.300 0.341 Q0.511 0.393 0.437 0.789" stroke="hsl(0.0,100%,35%)" stroke-width="0.00090"></path>
<path d="M1.300 0.341 Q0.747 0.420 0.778 0.707" stroke="hsl(0.0,100%,35%)" stroke-width="0.00090"></path>
<path d="M0.496 0.640 Q0.488 0.943 1.078 1.014" stroke="hsl(0.0,100%,35%)" stroke-width="0.00090"></path>
<path d="M0.496 0.640 Q1.137 0.651 1.300 0.341" stroke="hsl(0.0,100%,35%)" stroke-width="0.00633"></path>
<path d="M0.496 0.640 Q0.605 0.934 1.202 0.945" stroke="hsl(0.0,100%,35%)" stroke-width="0.00181"></path>
<path d="M0.496 0.640 Q0.796 0.811 1.196 0.702" stroke="hsl(0.0,100%,35%)" stroke-width="0.00633"></path>
<path d="M0.496 0.640 Q0.347 0.703 0.437 0.789" stroke="hsl(0.0,100%,35%)" stroke-width="0.00090"></path>
<path d="M0.496 0.640 Q0.584 0.730 0.778 0.707" stroke="hsl(0.0,100%,35%)" stroke-width="0.00090"></path>
<path d="M1.202 0.945 Q1.557 0.611 0.982 0.364" stroke="hsl(180.0,100%,35%)" stroke-width="0.00271"></path>
<path d="M1.202 0.945 Q1.085 0.954 1.078 1.014" stroke="hsl(180.0,100%,35%)" stroke-width="0.01988"></path>
<path d="M1.202 0.945 Q1.424 0.920 1.424 0.806" stroke="hsl(180.0,100%,35%)" stroke-width="0.00090"></path>
<path d="M1.202 0.945 Q1.394 0.822 1.196 0.702" stroke="hsl(180.0,100%,35%)" stroke-width="0.00271"></path>
<path d="M1.202 0.945 Q1.264 0.575 0.555 0.463" stroke="hsl(180.0,100%,35%)" stroke-width="0.00271"></path>
<path d="M1.202 0.945 Q1.196 0.887 1.081 0.877" stroke="hsl(180.0,100%,35%)" stroke-width="0.00090"></path>
<path d="M0.982 0.364 Q0.607 0.495 0.778 0.707" stroke="hsl(180.0,100%,35%)" stroke-width="0.00271"></path>
<path d="M0.982 0.364 Q0.689 0.328 0.555 0.463" stroke="hsl(180.0,100%,35%)" stroke-width="0.02711"></path>
<path d="M0.982 0.364 Q0.378 0.285 0.091 0.563" stroke="hsl(180.0,100%,35%)" stroke-width="0.00542"></path>
<path d="M0.982 0.364 Q0.740 0.223 0.412 0.310" stroke="hsl(180.0,100%,35%)" stroke-width="0.00633"></path>
<path d="M0.982 0.364 Q1.207 0.609 1.735 0.553" stroke="hsl(180.0,100%,35%)" stroke-width="0.00271"></path>
<path d="M0.982 0.364 Q0.797 0.419 0.862 0.521" stroke="hsl(180.0,100%,35%)" stroke-width="0.00090"></path>
<path d="M0.982 0.364 Q0.628 0.699 1.202 0.945" stroke="hsl(180.0,100%,35%)" stroke-width="0.01265"></path>
<path d="M0.982 0.364 Q0.519 0.405 0.496 0.640" stroke="hsl(180.0,100%,35%)" stroke-width="0.00723"></path>
<path d="M0.982 0.364 Q0.621 0.641 1.081 0.877" stroke="hsl(180.0,100%,35%)" stroke-width="0.00090"></path>
<path d="M0.982 0.364 Q1.160 0.417 1.300 0.341" stroke="hsl(180.0,100%,35%)" stroke-width="0.00452"></path>
<path d="M0.982 0.364 Q0.510 0.708 1.078 1.014" stroke="hsl(180.0,100%,35%)" stroke-width="0.00271"></path>
<path d="M0.982 0.364 Q0.981 0.651 1.540 0.714" stroke="hsl(180.0,100%,35%)" stroke-width="0.00090"></path>
<path d="M0.982 0.364 Q0.933 0.214 0.628 0.205" stroke="hsl(180.0,100%,35%)" stroke-width="0.00271"></path>
<path d="M0.982 0.364 Q0.864 0.139 0.399 0.147" stroke="hsl(180.0,100%,35%)" stroke-width="0.00090"></path>
<path d="M0.555 0.463 Q0.493 0.834 1.202 0.945" stroke="hsl(180.0,100%,35%)" stroke-width="0.01265"></path>
<path d="M0.555 0.463 Q0.487 0.776 1.081 0.877" stroke="hsl(180.0,100%,35%)" stroke-width="0.00271"></path>
<path d="M0.555 0.463 Q0.846 0.786 1.540 0.714" stroke="hsl(180.0,100%,35%)" stroke-width="0.00090"></path>
<path d="M0.555 0.463 Q0.798 0.349 0.628 0.205" stroke="hsl(180.0,100%,35%)" stroke-width="0.00181"></path>
<path d="M0.555 0.463 Q0.471 0.343 0.217 0.357" stroke="hsl(180.0,100%,35%)" stroke-width="0.00090"></path>
<path d="M0.555 0.463 Q0.847 0.499 0.982 0.364" stroke="hsl(180.0,100%,35%)" stroke-width="0.00542"></path>
<path d="M0.555 0.463 Q0.376 0.843 1.078 1.014" stroke="hsl(180.0,100%,35%)" stroke-width="0.00181"></path>
<path d="M0.555 0.463 Q0.662 0.554 0.862 0.521" stroke="hsl(180.0,100%,35%)" stroke-width="0.00090"></path>
<path d="M0.555 0.463 Q0.713 0.363 0.551 0.263" stroke="hsl(180.0,100%,35%)" stroke-width="0.00090"></path>
<path d="M0.555 0.463 Q0.384 0.540 0.496 0.640" stroke="hsl(180.0,100%,35%)" stroke-width="0.00090"></path>
<path d="M1.081 0.877 Q1.087 0.935 1.202 0.945" stroke="hsl(180.0,100%,35%)" stroke-width="0.01084"></path>
<path d="M1.081 0.877 Q0.970 0.945 1.078 1.014" stroke="hsl(180.0,100%,35%)" stroke-width="0.00361"></path>
<path d="M1.081 0.877 Q1.441 0.888 1.540 0.714" stroke="hsl(180.0,100%,35%)" stroke-width="0.00181"></path>
<path d="M1.081 0.877 Q1.442 0.601 0.982 0.364" stroke="hsl(180.0,100%,35%)" stroke-width="0.00090"></path>
<path d="M1.081 0.877 Q1.149 0.565 0.555 0.463" stroke="hsl(180.0,100%,35%)" stroke-width="0.00090"></path>
<path d="M0.084 0.722 Q0.355 0.763 0.496 0.640" stroke="hsl(0.0,100%,35%)" stroke-width="0.00904"></path>
<path d="M0.084 0.722 Q1.044 0.968 1.735 0.553" stroke="hsl(0.0,100%,35%)" stroke-width="0.00090"></path>
<path d="M0.084 0.722 Q0.207 0.826 0.437 0.789" stroke="hsl(0.0,100%,35%)" stroke-width="0.00090"></path>
<path d="M1.735 0.553 Q1.346 0.520 1.196 0.702" stroke="hsl(0.0,100%,35%)" stroke-width="0.00090"></path>
<path d="M1.735 0.553 Q1.046 0.349 0.496 0.640" stroke="hsl(0.0,100%,35%)" stroke-width="0.00542"></path>
<path d="M1.735 0.553 Q1.687 0.360 1.300 0.341" stroke="hsl(0.0,100%,35%)" stroke-width="0.02530"></path>
<path d="M1.735 0.553 Q1.509 0.308 0.982 0.364" stroke="hsl(0.0,100%,35%)" stroke-width="0.00181"></path>
<path d="M1.735 0.553 Q1.155 0.643 1.202 0.945" stroke="hsl(0.0,100%,35%)" stroke-width="0.00090"></path>
<path d="M0.437 0.789 Q0.886 0.897 1.196 0.702" stroke="hsl(0.0,100%,35%)" stroke-width="0.00633"></path>
<path d="M0.437 0.789 Q0.586 0.726 0.496 0.640" stroke="hsl(0.0,100%,35%)" stroke-width="0.00090"></path>
<path d="M0.437 0.789 Q0.695 1.020 1.202 0.945" stroke="hsl(0.0,100%,35%)" stroke-width="0.00181"></path>
<path d="M0.437 0.789 Q0.578 1.030 1.078 1.014" stroke="hsl(0.0,100%,35%)" stroke-width="0.00090"></path>
<path d="M0.437 0.789 Q1.048 0.972 1.540 0.714" stroke="hsl(0.0,100%,35%)" stroke-width="0.00090"></path>
<path d="M1.540 0.714 Q1.378 0.639 1.196 0.702" stroke="hsl(0.0,100%,35%)" stroke-width="0.01446"></path>
<path d="M1.540 0.714 Q1.618 0.593 1.398 0.528" stroke="hsl(0.0,100%,35%)" stroke-width="0.00181"></path>
<path d="M1.540 0.714 Q1.078 0.468 0.496 0.640" stroke="hsl(0.0,100%,35%)" stroke-width="0.00452"></path>
<path d="M1.540 0.714 Q1.187 0.762 1.202 0.945" stroke="hsl(0.0,100%,35%)" stroke-width="0.00633"></path>
<path d="M1.540 0.714 Q1.491 0.278 0.628 0.205" stroke="hsl(0.0,100%,35%)" stroke-width="0.00090"></path>
<path d="M1.540 0.714 Q1.248 0.392 0.555 0.463" stroke="hsl(0.0,100%,35%)" stroke-width="0.00181"></path>
<path d="M1.540 0.714 Q1.069 0.772 1.078 1.014" stroke="hsl(0.0,100%,35%)" stroke-width="0.00452"></path>
<path d="M1.540 0.714 Q1.180 0.704 1.081 0.877" stroke="hsl(0.0,100%,35%)" stroke-width="0.00181"></path>
<path d="M1.540 0.714 Q1.766 0.673 1.735 0.553" stroke="hsl(0.0,100%,35%)" stroke-width="0.00181"></path>
<path d="M1.540 0.714 Q0.929 0.531 0.437 0.789" stroke="hsl(0.0,100%,35%)" stroke-width="0.00542"></path>
<path d="M1.540 0.714 Q1.356 0.482 0.862 0.521" stroke="hsl(0.0,100%,35%)" stroke-width="0.00090"></path>
<path d="M1.540 0.714 Q1.719 0.480 1.300 0.341" stroke="hsl(0.0,100%,35%)" stroke-width="0.00181"></path>
<path d="M1.540 0.714 Q1.541 0.428 0.982 0.364" stroke="hsl(0.0,100%,35%)" stroke-width="0.00090"></path>
<path d="M0.217 0.357 Q0.300 0.478 0.555 0.463" stroke="hsl(180.0,100%,35%)" stroke-width="0.01717"></path>
<path d="M0.217 0.357 Q0.544 0.363 0.628 0.205" stroke="hsl(180.0,100%,35%)" stroke-width="0.00090"></path>
<path d="M0.217 0.357 Q0.593 0.514 0.982 0.364" stroke="hsl(180.0,100%,35%)" stroke-width="0.00090"></path>
<path d="M0.217 0.357 Q0.239 0.848 1.202 0.945" stroke="hsl(180.0,100%,35%)" stroke-width="0.00271"></path>
<path d="M0.217 0.357 Q0.130 0.554 0.496 0.640" stroke="hsl(180.0,100%,35%)" stroke-width="0.00090"></path>
<path d="M0.778 0.707 Q0.691 0.617 0.496 0.640" stroke="hsl(180.0,100%,35%)" stroke-width="0.00271"></path>
<path d="M0.778 0.707 Q1.154 0.576 0.982 0.364" stroke="hsl(180.0,100%,35%)" stroke-width="0.00090"></path>
<path d="M0.778 0.707 Q0.682 0.920 1.078 1.014" stroke="hsl(180.0,100%,35%)" stroke-width="0.00090"></path>
<path d="M0.778 0.707 Q0.969 0.631 0.862 0.521" stroke="hsl(180.0,100%,35%)" stroke-width="0.00181"></path>
<path d="M0.778 0.707 Q1.379 0.821 1.735 0.553" stroke="hsl(180.0,100%,35%)" stroke-width="0.00090"></path>
<path d="M0.091 0.563 Q0.215 0.585 0.285 0.529" stroke="hsl(180.0,100%,35%)" stroke-width="0.00090"></path>
<path d="M0.091 0.563 Q0.402 0.606 0.555 0.463" stroke="hsl(180.0,100%,35%)" stroke-width="0.00271"></path>
<path d="M0.091 0.563 Q0.695 0.642 0.982 0.364" stroke="hsl(180.0,100%,35%)" stroke-width="0.00090"></path>
<path d="M0.091 0.563 Q0.223 0.986 1.078 1.014" stroke="hsl(180.0,100%,35%)" stroke-width="0.00090"></path>
<path d="M0.091 0.563 Q0.223 0.859 0.830 0.859" stroke="hsl(180.0,100%,35%)" stroke-width="0.00090"></path>
<path d="M0.133 0.679 Q0.205 0.613 0.091 0.563" stroke="hsl(180.0,100%,35%)" stroke-width="0.00542"></path>
<path d="M0.133 0.679 Q0.516 0.656 0.555 0.463" stroke="hsl(180.0,100%,35%)" stroke-width="0.00361"></path>
<path d="M0.133 0.679 Q0.455 1.026 1.202 0.945" stroke="hsl(180.0,100%,35%)" stroke-width="0.00271"></path>
<path d="M1.714 0.829 Q1.556 0.662 1.196 0.702" stroke="hsl(0.0,100%,35%)" stroke-width="0.00181"></path>
<path d="M1.714 0.829 Q1.256 0.491 0.496 0.640" stroke="hsl(0.0,100%,35%)" stroke-width="0.00090"></path>
<path d="M1.714 0.829 Q1.945 0.695 1.735 0.553" stroke="hsl(0.0,100%,35%)" stroke-width="0.00090"></path>
</g>
<text x="1.398" y="0.518" font-size="0.020430" fill="hsl(0.0,100%,20%)">armansito</text>
<text x="1.078" y="0.975" font-size="0.078685" fill="hsl(180.0,100%,20%)">johnstiles</text>
<text x="1.196" y="0.671" font-size="0.062136" fill="hsl(0.0,100%,20%)">michaelludwig</text>
<text x="1.300" y="0.316" font-size="0.050390" fill="hsl(0.0,100%,20%)">nicolettep</text>
<text x="0.496" y="0.614" font-size="0.051075" fill="hsl(0.0,100%,20%)">egdaniel</text>
<text x="1.202" y="0.906" font-size="0.078019" fill="hsl(180.0,100%,20%)">brianosman</text>
<text x="0.982" y="0.334" font-size="0.061855" fill="hsl(180.0,100%,20%)">kjlubick</text>
<text x="1.424" y="0.803" font-size="0.005898" fill="hsl(180.0,100%,20%)">borenet</text>
<text x="0.555" y="0.435" font-size="0.057785" fill="hsl(180.0,100%,20%)">bungeman</text>
<text x="1.081" y="0.861" font-size="0.033362" fill="hsl(180.0,100%,20%)">herb</text>
<text x="0.084" y="0.712" font-size="0.020430" fill="hsl(0.0,100%,20%)">briansalomon</text>
<text x="1.735" y="0.530" font-size="0.046811" fill="hsl(0.0,100%,20%)">robertphillips</text>
<text x="0.437" y="0.771" font-size="0.035874" fill="hsl(0.0,100%,20%)">jamesgk</text>
<text x="1.540" y="0.690" font-size="0.048634" fill="hsl(0.0,100%,20%)">jvanverth</text>
<text x="0.628" y="0.198" font-size="0.015604" fill="hsl(180.0,100%,20%)">jlavrova</text>
<text x="0.217" y="0.342" font-size="0.030072" fill="hsl(180.0,100%,20%)">drott</text>
<text x="0.862" y="0.514" font-size="0.014446" fill="hsl(180.0,100%,20%)">scroggo</text>
<text x="0.551" y="0.260" font-size="0.005898" fill="hsl(180.0,100%,20%)">jreck</text>
<text x="0.778" y="0.695" font-size="0.023591" fill="hsl(180.0,100%,20%)">nscobie</text>
<text x="0.091" y="0.549" font-size="0.027027" fill="hsl(180.0,100%,20%)">fmalita</text>
<text x="0.285" y="0.526" font-size="0.005898" fill="hsl(180.0,100%,20%)">sharaks</text>
<text x="0.830" y="0.854" font-size="0.010215" fill="hsl(180.0,100%,20%)">jmbetancourt</text>
<text x="1.315" y="0.857" font-size="0.005898" fill="hsl(180.0,100%,20%)">rmistry</text>
<text x="0.412" y="0.303" font-size="0.015604" fill="hsl(180.0,100%,20%)">lovisolo</text>
<text x="0.399" y="0.144" font-size="0.005898" fill="hsl(180.0,100%,20%)">jcgregorio</text>
<text x="0.133" y="0.669" font-size="0.021264" fill="hsl(180.0,100%,20%)">mike</text>
<text x="1.714" y="0.823" font-size="0.011795" fill="hsl(0.0,100%,20%)">penghuang</text>
</svg>
