<svg width="4000" height="2000" viewBox="-0.025 -0.025 2.05 1.05" xmlns="http://www.w3.org/2000/svg">
  <style>
    path {
      fill: none;
      stroke-linecap: round;
      stroke-opacity: 0.4;
    }

    text {
      text-anchor: middle;
      alignment-baseline: hanging;
    }
  </style>
  <g opacity="0.4">
<path d="M1.056 0.548 Q0.914 0.642 1.066 0.731" stroke="hsl(0.0,100%,35%)" stroke-width="0.00252"></path>
<path d="M1.056 0.548 Q1.328 0.728 1.739 0.635" stroke="hsl(0.0,100%,35%)" stroke-width="0.00252"></path>
<path d="M1.056 0.548 Q0.549 0.415 0.178 0.633" stroke="hsl(0.0,100%,35%)" stroke-width="0.00252"></path>
<path d="M1.056 0.548 Q0.685 0.299 0.118 0.425" stroke="hsl(0.0,100%,35%)" stroke-width="0.00252"></path>
<path d="M1.066 0.731 Q1.215 0.838 1.456 0.789" stroke="hsl(180.0,100%,35%)" stroke-width="0.06310"></path>
<path d="M1.066 0.731 Q1.002 0.791 1.104 0.836" stroke="hsl(180.0,100%,35%)" stroke-width="0.00505"></path>
<path d="M1.066 0.731 Q0.901 0.619 0.645 0.675" stroke="hsl(180.0,100%,35%)" stroke-width="0.00757"></path>
<path d="M1.066 0.731 Q1.208 0.638 1.056 0.548" stroke="hsl(180.0,100%,35%)" stroke-width="0.00505"></path>
<path d="M1.066 0.731 Q0.770 0.765 0.770 0.917" stroke="hsl(180.0,100%,35%)" stroke-width="0.00252"></path>
<path d="M1.066 0.731 Q1.480 0.818 1.739 0.635" stroke="hsl(180.0,100%,35%)" stroke-width="0.00757"></path>
<path d="M1.066 0.731 Q1.453 0.619 1.319 0.406" stroke="hsl(180.0,100%,35%)" stroke-width="0.00252"></path>
<path d="M1.066 0.731 Q0.837 0.388 0.118 0.425" stroke="hsl(180.0,100%,35%)" stroke-width="0.00757"></path>
<path d="M1.066 0.731 Q1.532 0.734 1.639 0.507" stroke="hsl(180.0,100%,35%)" stroke-width="0.00252"></path>
<path d="M1.066 0.731 Q0.859 0.695 0.741 0.788" stroke="hsl(180.0,100%,35%)" stroke-width="0.00757"></path>
<path d="M1.739 0.635 Q1.097 0.206 0.118 0.425" stroke="hsl(0.0,100%,35%)" stroke-width="0.00252"></path>
<path d="M1.739 0.635 Q1.791 0.551 1.639 0.507" stroke="hsl(0.0,100%,35%)" stroke-width="0.01010"></path>
<path d="M1.739 0.635 Q1.160 0.436 0.645 0.675" stroke="hsl(0.0,100%,35%)" stroke-width="0.00252"></path>
<path d="M1.739 0.635 Q1.467 0.455 1.056 0.548" stroke="hsl(0.0,100%,35%)" stroke-width="0.00252"></path>
<path d="M1.739 0.635 Q1.475 0.656 1.456 0.789" stroke="hsl(0.0,100%,35%)" stroke-width="0.00252"></path>
<path d="M1.739 0.635 Q1.326 0.549 1.066 0.731" stroke="hsl(0.0,100%,35%)" stroke-width="0.00757"></path>
<path d="M0.178 0.633 Q0.315 0.517 0.118 0.425" stroke="hsl(0.0,100%,35%)" stroke-width="0.00505"></path>
<path d="M0.178 0.633 Q0.544 0.860 1.066 0.731" stroke="hsl(0.0,100%,35%)" stroke-width="0.00252"></path>
<path d="M0.178 0.633 Q1.369 0.747 1.852 0.192" stroke="hsl(0.0,100%,35%)" stroke-width="0.00252"></path>
<path d="M0.178 0.633 Q0.378 0.747 0.645 0.675" stroke="hsl(0.0,100%,35%)" stroke-width="0.00252"></path>
<path d="M0.178 0.633 Q1.009 0.862 1.639 0.507" stroke="hsl(0.0,100%,35%)" stroke-width="0.00252"></path>
<path d="M1.456 0.789 Q2.133 0.570 1.852 0.192" stroke="hsl(180.0,100%,35%)" stroke-width="0.00505"></path>
<path d="M1.456 0.789 Q1.308 0.682 1.066 0.731" stroke="hsl(180.0,100%,35%)" stroke-width="0.03281"></path>
<path d="M1.456 0.789 Q1.344 0.826 1.391 0.890" stroke="hsl(180.0,100%,35%)" stroke-width="0.00252"></path>
<path d="M1.456 0.789 Q1.721 0.769 1.739 0.635" stroke="hsl(180.0,100%,35%)" stroke-width="0.00252"></path>
<path d="M1.456 0.789 Q1.011 0.716 0.770 0.917" stroke="hsl(180.0,100%,35%)" stroke-width="0.00252"></path>
<path d="M1.852 0.192 Q1.613 0.053 1.289 0.139" stroke="hsl(0.0,100%,35%)" stroke-width="0.00505"></path>
<path d="M1.852 0.192 Q0.731 0.338 0.770 0.917" stroke="hsl(0.0,100%,35%)" stroke-width="0.02019"></path>
<path d="M1.852 0.192 Q1.414 0.192 1.319 0.406" stroke="hsl(0.0,100%,35%)" stroke-width="0.00757"></path>
<path d="M1.852 0.192 Q1.669 0.160 1.567 0.243" stroke="hsl(0.0,100%,35%)" stroke-width="0.01262"></path>
<path d="M1.852 0.192 Q0.862 0.192 0.645 0.675" stroke="hsl(0.0,100%,35%)" stroke-width="0.00505"></path>
<path d="M1.852 0.192 Q1.743 0.263 1.859 0.332" stroke="hsl(0.0,100%,35%)" stroke-width="0.00252"></path>
<path d="M1.852 0.192 Q1.176 0.411 1.456 0.789" stroke="hsl(0.0,100%,35%)" stroke-width="0.01262"></path>
<path d="M1.852 0.192 Q0.798 -0.039 0.118 0.425" stroke="hsl(0.0,100%,35%)" stroke-width="0.01262"></path>
<path d="M1.852 0.192 Q0.963 0.364 1.104 0.836" stroke="hsl(0.0,100%,35%)" stroke-width="0.00252"></path>
<path d="M1.852 0.192 Q0.662 0.078 0.178 0.633" stroke="hsl(0.0,100%,35%)" stroke-width="0.00252"></path>
<path d="M1.852 0.192 Q1.027 0.304 1.066 0.731" stroke="hsl(0.0,100%,35%)" stroke-width="0.00252"></path>
<path d="M1.852 0.192 Q1.493 0.307 1.639 0.507" stroke="hsl(0.0,100%,35%)" stroke-width="0.00252"></path>
<path d="M1.852 0.192 Q0.897 0.410 1.113 0.924" stroke="hsl(0.0,100%,35%)" stroke-width="0.00252"></path>
<path d="M0.770 0.917 Q1.215 0.990 1.456 0.789" stroke="hsl(0.0,100%,35%)" stroke-width="0.02019"></path>
<path d="M0.770 0.917 Q1.002 0.943 1.104 0.836" stroke="hsl(0.0,100%,35%)" stroke-width="0.00252"></path>
<path d="M0.770 0.917 Q1.532 0.886 1.639 0.507" stroke="hsl(0.0,100%,35%)" stroke-width="0.00252"></path>
<path d="M0.770 0.917 Q0.935 0.989 1.113 0.924" stroke="hsl(0.0,100%,35%)" stroke-width="0.00505"></path>
<path d="M1.104 0.836 Q1.317 0.883 1.456 0.789" stroke="hsl(180.0,100%,35%)" stroke-width="0.01767"></path>
<path d="M1.104 0.836 Q1.169 0.776 1.066 0.731" stroke="hsl(180.0,100%,35%)" stroke-width="0.01010"></path>
<path d="M1.104 0.836 Q1.634 0.779 1.639 0.507" stroke="hsl(180.0,100%,35%)" stroke-width="0.00252"></path>
<path d="M1.639 0.507 Q1.587 0.591 1.739 0.635" stroke="hsl(0.0,100%,35%)" stroke-width="0.02019"></path>
<path d="M1.639 0.507 Q1.315 0.411 1.056 0.548" stroke="hsl(0.0,100%,35%)" stroke-width="0.00252"></path>
<path d="M1.639 0.507 Q0.944 0.162 0.118 0.425" stroke="hsl(0.0,100%,35%)" stroke-width="0.00505"></path>
<path d="M1.639 0.507 Q1.322 0.612 1.456 0.789" stroke="hsl(0.0,100%,35%)" stroke-width="0.00757"></path>
<path d="M1.639 0.507 Q1.042 0.611 1.113 0.924" stroke="hsl(0.0,100%,35%)" stroke-width="0.00252"></path>
<path d="M1.639 0.507 Q0.877 0.538 0.770 0.917" stroke="hsl(0.0,100%,35%)" stroke-width="0.00252"></path>
<path d="M1.639 0.507 Q1.173 0.505 1.066 0.731" stroke="hsl(0.0,100%,35%)" stroke-width="0.00252"></path>
<path d="M1.016 0.964 Q0.931 0.891 0.770 0.917" stroke="hsl(0.0,100%,35%)" stroke-width="0.01767"></path>
<path d="M1.016 0.964 Q1.096 0.963 1.113 0.924" stroke="hsl(0.0,100%,35%)" stroke-width="0.00252"></path>
<path d="M1.016 0.964 Q2.052 0.745 1.852 0.192" stroke="hsl(0.0,100%,35%)" stroke-width="0.00252"></path>
<path d="M1.016 0.964 Q1.376 0.965 1.456 0.789" stroke="hsl(0.0,100%,35%)" stroke-width="0.00252"></path>
<path d="M1.016 0.964 Q0.998 0.515 0.118 0.425" stroke="hsl(0.0,100%,35%)" stroke-width="0.00252"></path>
<path d="M1.319 0.406 Q1.256 0.239 0.915 0.232" stroke="hsl(0.0,100%,35%)" stroke-width="0.00252"></path>
<path d="M1.319 0.406 Q0.636 0.552 0.770 0.917" stroke="hsl(0.0,100%,35%)" stroke-width="0.00505"></path>
<path d="M1.319 0.406 Q1.757 0.406 1.852 0.192" stroke="hsl(0.0,100%,35%)" stroke-width="0.00252"></path>
<path d="M1.319 0.406 Q0.932 0.518 1.066 0.731" stroke="hsl(0.0,100%,35%)" stroke-width="0.00252"></path>
<path d="M1.319 0.406 Q1.028 0.309 0.774 0.429" stroke="hsl(0.0,100%,35%)" stroke-width="0.00505"></path>
<path d="M1.319 0.406 Q1.433 0.244 1.141 0.152" stroke="hsl(0.0,100%,35%)" stroke-width="0.00252"></path>
<path d="M0.645 0.675 Q1.223 0.874 1.739 0.635" stroke="hsl(0.0,100%,35%)" stroke-width="0.00252"></path>
<path d="M0.645 0.675 Q0.581 0.444 0.118 0.425" stroke="hsl(0.0,100%,35%)" stroke-width="0.00505"></path>
<path d="M0.645 0.675 Q0.445 0.561 0.178 0.633" stroke="hsl(0.0,100%,35%)" stroke-width="0.00757"></path>
<path d="M0.645 0.675 Q1.276 0.790 1.639 0.507" stroke="hsl(0.0,100%,35%)" stroke-width="0.00252"></path>
<path d="M0.525 0.352 Q0.905 0.736 1.739 0.635" stroke="hsl(0.0,100%,35%)" stroke-width="0.00505"></path>
<path d="M0.525 0.352 Q0.263 0.307 0.118 0.425" stroke="hsl(0.0,100%,35%)" stroke-width="0.00252"></path>
<path d="M0.525 0.352 Q0.326 0.537 0.645 0.675" stroke="hsl(0.0,100%,35%)" stroke-width="0.00252"></path>
</g>
<text x="1.056" y="0.534" font-size="0.029019" fill="hsl(0.0,100%,20%)">armansito</text>
<text x="1.066" y="0.689" font-size="0.085224" fill="hsl(180.0,100%,20%)">johnstiles</text>
<text x="1.739" y="0.609" font-size="0.053311" fill="hsl(0.0,100%,20%)">michaelludwig</text>
<text x="0.178" y="0.616" font-size="0.034028" fill="hsl(0.0,100%,20%)">nicolettep</text>
<text x="0.118" y="0.403" font-size="0.043529" fill="hsl(0.0,100%,20%)">egdaniel</text>
<text x="1.456" y="0.747" font-size="0.084604" fill="hsl(180.0,100%,20%)">brianosman</text>
<text x="1.852" y="0.159" font-size="0.065695" fill="hsl(0.0,100%,20%)">kjlubick</text>
<text x="1.391" y="0.884" font-size="0.010260" fill="hsl(180.0,100%,20%)">borenet</text>
<text x="0.770" y="0.888" font-size="0.058038" fill="hsl(0.0,100%,20%)">bungeman</text>
<text x="1.104" y="0.815" font-size="0.041039" fill="hsl(180.0,100%,20%)">herb</text>
<text x="1.639" y="0.481" font-size="0.053311" fill="hsl(0.0,100%,20%)">jvanverth</text>
<text x="1.113" y="0.913" font-size="0.022942" fill="hsl(0.0,100%,20%)">jlavrova</text>
<text x="1.016" y="0.947" font-size="0.034028" fill="hsl(0.0,100%,20%)">drott</text>
<text x="1.319" y="0.388" font-size="0.035541" fill="hsl(0.0,100%,20%)">fmalita</text>
<text x="0.915" y="0.227" font-size="0.010260" fill="hsl(0.0,100%,20%)">sharaks</text>
<text x="0.774" y="0.422" font-size="0.014510" fill="hsl(0.0,100%,20%)">jmbetancourt</text>
<text x="1.141" y="0.147" font-size="0.010260" fill="hsl(0.0,100%,20%)">bwils</text>
<text x="0.645" y="0.655" font-size="0.039736" fill="hsl(0.0,100%,20%)">robertphillips</text>
<text x="0.741" y="0.779" font-size="0.017770" fill="hsl(180.0,100%,20%)">jamesgk</text>
<text x="1.289" y="0.132" font-size="0.014510" fill="hsl(0.0,100%,20%)">nscobie</text>
<text x="1.567" y="0.231" font-size="0.022942" fill="hsl(0.0,100%,20%)">lovisolo</text>
<text x="1.859" y="0.327" font-size="0.010260" fill="hsl(0.0,100%,20%)">scroggo</text>
<text x="0.525" y="0.342" font-size="0.020520" fill="hsl(0.0,100%,20%)">penghuang</text>
</svg>
