<svg width="4000" height="2000" viewBox="-0.025 -0.025 2.05 1.05" xmlns="http://www.w3.org/2000/svg">
  <style>
    path {
      fill: none;
      stroke-linecap: round;
      stroke-opacity: 0.4;
    }

    text {
      text-anchor: middle;
      alignment-baseline: hanging;
    }
  </style>
  <g opacity="0.4">
<path d="M0.983 0.217 Q0.544 0.145 0.308 0.343" stroke="hsl(0.0,100%,35%)" stroke-width="0.00088"></path>
<path d="M0.983 0.217 Q1.103 0.325 1.340 0.290" stroke="hsl(0.0,100%,35%)" stroke-width="0.00265"></path>
<path d="M0.983 0.217 Q0.832 0.417 1.189 0.534" stroke="hsl(0.0,100%,35%)" stroke-width="0.00177"></path>
<path d="M0.983 0.217 Q0.678 0.454 1.074 0.655" stroke="hsl(0.0,100%,35%)" stroke-width="0.00088"></path>
<path d="M0.983 0.217 Q1.055 0.446 1.517 0.461" stroke="hsl(0.0,100%,35%)" stroke-width="0.00177"></path>
<path d="M0.308 0.343 Q0.143 0.422 0.259 0.519" stroke="hsl(180.0,100%,35%)" stroke-width="0.05479"></path>
<path d="M0.308 0.343 Q0.089 0.504 0.355 0.646" stroke="hsl(180.0,100%,35%)" stroke-width="0.00353"></path>
<path d="M0.308 0.343 Q0.637 0.533 1.079 0.414" stroke="hsl(180.0,100%,35%)" stroke-width="0.00442"></path>
<path d="M0.308 0.343 Q0.747 0.415 0.983 0.217" stroke="hsl(180.0,100%,35%)" stroke-width="0.00177"></path>
<path d="M0.308 0.343 Q0.500 0.819 1.470 0.831" stroke="hsl(180.0,100%,35%)" stroke-width="0.00177"></path>
<path d="M0.308 0.343 Q0.867 0.523 1.340 0.290" stroke="hsl(180.0,100%,35%)" stroke-width="0.00707"></path>
<path d="M0.308 0.343 Q-0.209 0.628 0.233 0.943" stroke="hsl(180.0,100%,35%)" stroke-width="0.00088"></path>
<path d="M0.308 0.343 Q0.442 0.652 1.074 0.655" stroke="hsl(180.0,100%,35%)" stroke-width="0.00442"></path>
<path d="M0.308 0.343 Q0.819 0.644 1.517 0.461" stroke="hsl(180.0,100%,35%)" stroke-width="0.00177"></path>
<path d="M0.308 0.343 Q0.914 0.449 1.251 0.176" stroke="hsl(180.0,100%,35%)" stroke-width="0.00265"></path>
<path d="M0.308 0.343 Q0.596 0.615 1.189 0.534" stroke="hsl(180.0,100%,35%)" stroke-width="0.00530"></path>
<path d="M0.308 0.343 Q-0.094 0.578 0.275 0.826" stroke="hsl(180.0,100%,35%)" stroke-width="0.00177"></path>
<path d="M0.308 0.343 Q0.265 0.674 0.899 0.767" stroke="hsl(180.0,100%,35%)" stroke-width="0.00177"></path>
<path d="M0.308 0.343 Q0.164 0.649 0.728 0.787" stroke="hsl(180.0,100%,35%)" stroke-width="0.00088"></path>
<path d="M0.308 0.343 Q0.837 0.336 0.938 0.076" stroke="hsl(180.0,100%,35%)" stroke-width="0.00795"></path>
<path d="M0.308 0.343 Q1.105 0.661 1.899 0.342" stroke="hsl(180.0,100%,35%)" stroke-width="0.00088"></path>
<path d="M1.340 0.290 Q0.915 0.419 1.074 0.655" stroke="hsl(0.0,100%,35%)" stroke-width="0.00177"></path>
<path d="M1.340 0.290 Q1.291 0.411 1.517 0.461" stroke="hsl(0.0,100%,35%)" stroke-width="0.00530"></path>
<path d="M1.340 0.290 Q1.110 0.300 1.079 0.414" stroke="hsl(0.0,100%,35%)" stroke-width="0.00972"></path>
<path d="M1.340 0.290 Q1.220 0.182 0.983 0.217" stroke="hsl(0.0,100%,35%)" stroke-width="0.00265"></path>
<path d="M1.340 0.290 Q0.616 0.188 0.259 0.519" stroke="hsl(0.0,100%,35%)" stroke-width="0.01414"></path>
<path d="M1.340 0.290 Q0.781 0.110 0.308 0.343" stroke="hsl(0.0,100%,35%)" stroke-width="0.00707"></path>
<path d="M1.340 0.290 Q1.386 0.215 1.251 0.176" stroke="hsl(0.0,100%,35%)" stroke-width="0.01414"></path>
<path d="M1.340 0.290 Q1.069 0.382 1.189 0.534" stroke="hsl(0.0,100%,35%)" stroke-width="0.00088"></path>
<path d="M1.189 0.534 Q1.035 0.571 1.074 0.655" stroke="hsl(0.0,100%,35%)" stroke-width="0.00707"></path>
<path d="M1.189 0.534 Q0.901 0.263 0.308 0.343" stroke="hsl(0.0,100%,35%)" stroke-width="0.00088"></path>
<path d="M1.189 0.534 Q1.430 0.255 0.938 0.076" stroke="hsl(0.0,100%,35%)" stroke-width="0.00088"></path>
<path d="M1.189 0.534 Q1.230 0.452 1.079 0.414" stroke="hsl(0.0,100%,35%)" stroke-width="0.00088"></path>
<path d="M1.189 0.534 Q1.411 0.563 1.517 0.461" stroke="hsl(0.0,100%,35%)" stroke-width="0.00265"></path>
<path d="M1.189 0.534 Q0.736 0.341 0.259 0.519" stroke="hsl(0.0,100%,35%)" stroke-width="0.00088"></path>
<path d="M1.189 0.534 Q1.506 0.368 1.251 0.176" stroke="hsl(0.0,100%,35%)" stroke-width="0.00088"></path>
<path d="M1.074 0.655 Q0.940 0.346 0.308 0.343" stroke="hsl(0.0,100%,35%)" stroke-width="0.00088"></path>
<path d="M1.074 0.655 Q1.227 0.617 1.189 0.534" stroke="hsl(0.0,100%,35%)" stroke-width="0.00442"></path>
<path d="M1.074 0.655 Q0.774 0.424 0.259 0.519" stroke="hsl(0.0,100%,35%)" stroke-width="0.00088"></path>
<path d="M1.074 0.655 Q1.498 0.525 1.340 0.290" stroke="hsl(0.0,100%,35%)" stroke-width="0.00442"></path>
<path d="M1.074 0.655 Q1.545 0.451 1.251 0.176" stroke="hsl(0.0,100%,35%)" stroke-width="0.00088"></path>
<path d="M1.517 0.461 Q1.565 0.340 1.340 0.290" stroke="hsl(0.0,100%,35%)" stroke-width="0.01856"></path>
<path d="M1.517 0.461 Q1.445 0.232 0.983 0.217" stroke="hsl(0.0,100%,35%)" stroke-width="0.00265"></path>
<path d="M1.517 0.461 Q1.140 0.469 1.074 0.655" stroke="hsl(0.0,100%,35%)" stroke-width="0.00442"></path>
<path d="M1.517 0.461 Q0.841 0.239 0.259 0.519" stroke="hsl(0.0,100%,35%)" stroke-width="0.00265"></path>
<path d="M1.517 0.461 Q1.111 0.539 1.175 0.754" stroke="hsl(0.0,100%,35%)" stroke-width="0.00088"></path>
<path d="M1.517 0.461 Q1.198 0.636 1.470 0.831" stroke="hsl(0.0,100%,35%)" stroke-width="0.00177"></path>
<path d="M1.517 0.461 Q1.007 0.160 0.308 0.343" stroke="hsl(0.0,100%,35%)" stroke-width="0.00353"></path>
<path d="M1.517 0.461 Q0.788 0.321 0.355 0.646" stroke="hsl(0.0,100%,35%)" stroke-width="0.00088"></path>
<path d="M1.517 0.461 Q1.335 0.350 1.079 0.414" stroke="hsl(0.0,100%,35%)" stroke-width="0.00265"></path>
<path d="M1.517 0.461 Q1.612 0.266 1.251 0.176" stroke="hsl(0.0,100%,35%)" stroke-width="0.00530"></path>
<path d="M1.517 0.461 Q1.803 0.478 1.899 0.342" stroke="hsl(0.0,100%,35%)" stroke-width="0.00088"></path>
<path d="M1.517 0.461 Q1.294 0.432 1.189 0.534" stroke="hsl(0.0,100%,35%)" stroke-width="0.00177"></path>
<path d="M1.517 0.461 Q1.535 0.153 0.938 0.076" stroke="hsl(0.0,100%,35%)" stroke-width="0.00088"></path>
<path d="M0.888 0.864 Q0.870 0.793 0.728 0.787" stroke="hsl(180.0,100%,35%)" stroke-width="0.00265"></path>
<path d="M0.888 0.864 Q1.525 0.788 1.517 0.461" stroke="hsl(180.0,100%,35%)" stroke-width="0.00088"></path>
<path d="M0.888 0.864 Q1.543 0.480 0.938 0.076" stroke="hsl(180.0,100%,35%)" stroke-width="0.00177"></path>
<path d="M0.938 0.076 Q0.366 0.414 0.899 0.767" stroke="hsl(180.0,100%,35%)" stroke-width="0.00353"></path>
<path d="M0.938 0.076 Q0.600 0.560 1.470 0.831" stroke="hsl(180.0,100%,35%)" stroke-width="0.02209"></path>
<path d="M0.938 0.076 Q-0.108 0.369 0.233 0.943" stroke="hsl(180.0,100%,35%)" stroke-width="0.00530"></path>
<path d="M0.938 0.076 Q1.204 0.190 1.484 0.085" stroke="hsl(180.0,100%,35%)" stroke-width="0.00795"></path>
<path d="M0.938 0.076 Q0.738 0.273 1.079 0.414" stroke="hsl(180.0,100%,35%)" stroke-width="0.00442"></path>
<path d="M0.938 0.076 Q1.206 0.401 1.899 0.342" stroke="hsl(180.0,100%,35%)" stroke-width="0.00177"></path>
<path d="M0.938 0.076 Q0.244 0.162 0.259 0.519" stroke="hsl(180.0,100%,35%)" stroke-width="0.01326"></path>
<path d="M0.938 0.076 Q0.543 0.392 1.074 0.655" stroke="hsl(180.0,100%,35%)" stroke-width="0.00795"></path>
<path d="M0.938 0.076 Q0.190 0.245 0.355 0.646" stroke="hsl(180.0,100%,35%)" stroke-width="0.00088"></path>
<path d="M0.938 0.076 Q0.697 0.355 1.189 0.534" stroke="hsl(180.0,100%,35%)" stroke-width="0.00530"></path>
<path d="M0.938 0.076 Q0.409 0.084 0.308 0.343" stroke="hsl(180.0,100%,35%)" stroke-width="0.00265"></path>
<path d="M0.938 0.076 Q0.920 0.384 1.517 0.461" stroke="hsl(180.0,100%,35%)" stroke-width="0.00177"></path>
<path d="M0.938 0.076 Q0.514 0.463 1.175 0.754" stroke="hsl(180.0,100%,35%)" stroke-width="0.00088"></path>
<path d="M0.938 0.076 Q0.968 0.263 1.340 0.290" stroke="hsl(180.0,100%,35%)" stroke-width="0.00177"></path>
<path d="M0.938 0.076 Q0.283 0.460 0.888 0.864" stroke="hsl(180.0,100%,35%)" stroke-width="0.00088"></path>
<path d="M0.259 0.519 Q0.953 0.434 0.938 0.076" stroke="hsl(180.0,100%,35%)" stroke-width="0.00265"></path>
<path d="M0.259 0.519 Q0.424 0.441 0.308 0.343" stroke="hsl(180.0,100%,35%)" stroke-width="0.01856"></path>
<path d="M0.259 0.519 Q0.298 0.817 0.888 0.864" stroke="hsl(180.0,100%,35%)" stroke-width="0.00088"></path>
<path d="M0.259 0.519 Q0.983 0.621 1.340 0.290" stroke="hsl(180.0,100%,35%)" stroke-width="0.00353"></path>
<path d="M0.259 0.519 Q0.616 0.917 1.470 0.831" stroke="hsl(180.0,100%,35%)" stroke-width="0.00265"></path>
<path d="M0.259 0.519 Q0.205 0.602 0.355 0.646" stroke="hsl(180.0,100%,35%)" stroke-width="0.00088"></path>
<path d="M0.259 0.519 Q0.935 0.742 1.517 0.461" stroke="hsl(180.0,100%,35%)" stroke-width="0.00088"></path>
<path d="M1.470 0.831 Q1.114 0.433 0.259 0.519" stroke="hsl(180.0,100%,35%)" stroke-width="0.01237"></path>
<path d="M1.470 0.831 Q1.060 0.515 0.355 0.646" stroke="hsl(180.0,100%,35%)" stroke-width="0.00177"></path>
<path d="M1.470 0.831 Q1.789 0.655 1.517 0.461" stroke="hsl(180.0,100%,35%)" stroke-width="0.00088"></path>
<path d="M1.470 0.831 Q1.384 0.733 1.175 0.754" stroke="hsl(180.0,100%,35%)" stroke-width="0.00265"></path>
<path d="M1.470 0.831 Q1.545 0.750 1.404 0.696" stroke="hsl(180.0,100%,35%)" stroke-width="0.00088"></path>
<path d="M1.470 0.831 Q1.808 0.347 0.938 0.076" stroke="hsl(180.0,100%,35%)" stroke-width="0.00530"></path>
<path d="M1.470 0.831 Q1.279 0.355 0.308 0.343" stroke="hsl(180.0,100%,35%)" stroke-width="0.00088"></path>
<path d="M1.470 0.831 Q0.761 0.639 0.233 0.943" stroke="hsl(180.0,100%,35%)" stroke-width="0.00088"></path>
<path d="M0.355 0.646 Q0.408 0.564 0.259 0.519" stroke="hsl(180.0,100%,35%)" stroke-width="0.01502"></path>
<path d="M0.355 0.646 Q0.574 0.486 0.308 0.343" stroke="hsl(180.0,100%,35%)" stroke-width="0.00530"></path>
<path d="M0.355 0.646 Q1.084 0.786 1.517 0.461" stroke="hsl(180.0,100%,35%)" stroke-width="0.00088"></path>
<path d="M0.355 0.646 Q1.102 0.478 0.938 0.076" stroke="hsl(180.0,100%,35%)" stroke-width="0.00088"></path>
<path d="M1.277 0.673 Q1.190 0.623 1.074 0.655" stroke="hsl(0.0,100%,35%)" stroke-width="0.00884"></path>
<path d="M1.277 0.673 Q1.385 0.504 1.079 0.414" stroke="hsl(0.0,100%,35%)" stroke-width="0.00088"></path>
<path d="M1.277 0.673 Q1.661 0.420 1.251 0.176" stroke="hsl(0.0,100%,35%)" stroke-width="0.00088"></path>
<path d="M1.277 0.673 Q1.567 0.615 1.517 0.461" stroke="hsl(0.0,100%,35%)" stroke-width="0.00088"></path>
<path d="M1.079 0.414 Q1.309 0.404 1.340 0.290" stroke="hsl(0.0,100%,35%)" stroke-width="0.00088"></path>
<path d="M1.079 0.414 Q0.884 0.533 1.074 0.655" stroke="hsl(0.0,100%,35%)" stroke-width="0.00265"></path>
<path d="M1.079 0.414 Q1.038 0.496 1.189 0.534" stroke="hsl(0.0,100%,35%)" stroke-width="0.00972"></path>
<path d="M1.079 0.414 Q1.279 0.217 0.938 0.076" stroke="hsl(0.0,100%,35%)" stroke-width="0.00177"></path>
<path d="M1.079 0.414 Q0.585 0.303 0.259 0.519" stroke="hsl(0.0,100%,35%)" stroke-width="0.00088"></path>
<path d="M1.079 0.414 Q1.261 0.525 1.517 0.461" stroke="hsl(0.0,100%,35%)" stroke-width="0.00177"></path>
<path d="M1.251 0.176 Q1.205 0.251 1.340 0.290" stroke="hsl(0.0,100%,35%)" stroke-width="0.00619"></path>
<path d="M1.251 0.176 Q0.780 0.380 1.074 0.655" stroke="hsl(0.0,100%,35%)" stroke-width="0.00088"></path>
<path d="M1.251 0.176 Q0.481 0.149 0.259 0.519" stroke="hsl(0.0,100%,35%)" stroke-width="0.00177"></path>
<path d="M1.251 0.176 Q0.646 0.071 0.308 0.343" stroke="hsl(0.0,100%,35%)" stroke-width="0.00088"></path>
<path d="M1.404 0.696 Q1.329 0.776 1.470 0.831" stroke="hsl(180.0,100%,35%)" stroke-width="0.01679"></path>
<path d="M1.404 0.696 Q1.243 0.679 1.175 0.754" stroke="hsl(180.0,100%,35%)" stroke-width="0.00088"></path>
<path d="M1.404 0.696 Q1.667 0.293 0.938 0.076" stroke="hsl(180.0,100%,35%)" stroke-width="0.00177"></path>
<path d="M1.404 0.696 Q0.973 0.378 0.259 0.519" stroke="hsl(180.0,100%,35%)" stroke-width="0.00265"></path>
<path d="M1.404 0.696 Q1.272 0.609 1.074 0.655" stroke="hsl(180.0,100%,35%)" stroke-width="0.00088"></path>
<path d="M1.404 0.696 Q1.935 0.618 1.899 0.342" stroke="hsl(180.0,100%,35%)" stroke-width="0.00088"></path>
<path d="M0.233 0.943 Q0.354 0.814 0.128 0.726" stroke="hsl(180.0,100%,35%)" stroke-width="0.00088"></path>
<path d="M0.233 0.943 Q0.941 1.135 1.470 0.831" stroke="hsl(180.0,100%,35%)" stroke-width="0.00265"></path>
<path d="M0.233 0.943 Q1.279 0.651 0.938 0.076" stroke="hsl(180.0,100%,35%)" stroke-width="0.00177"></path>
<path d="M0.233 0.943 Q0.750 0.659 0.308 0.343" stroke="hsl(180.0,100%,35%)" stroke-width="0.00088"></path>
<path d="M0.233 0.943 Q0.348 0.893 0.275 0.826" stroke="hsl(180.0,100%,35%)" stroke-width="0.00177"></path>
<path d="M0.233 0.943 Q0.479 0.894 0.436 0.763" stroke="hsl(180.0,100%,35%)" stroke-width="0.00088"></path>
<path d="M1.899 0.342 Q0.937 0.103 0.259 0.519" stroke="hsl(180.0,100%,35%)" stroke-width="0.00088"></path>
<path d="M1.899 0.342 Q1.753 0.459 1.949 0.556" stroke="hsl(180.0,100%,35%)" stroke-width="0.00088"></path>
<path d="M1.899 0.342 Q1.294 0.501 1.470 0.831" stroke="hsl(180.0,100%,35%)" stroke-width="0.00177"></path>
<path d="M1.899 0.342 Q1.103 0.025 0.308 0.343" stroke="hsl(180.0,100%,35%)" stroke-width="0.00088"></path>
<path d="M0.899 0.767 Q1.077 0.746 1.074 0.655" stroke="hsl(180.0,100%,35%)" stroke-width="0.00265"></path>
<path d="M0.899 0.767 Q1.472 0.429 0.938 0.076" stroke="hsl(180.0,100%,35%)" stroke-width="0.00088"></path>
<path d="M0.899 0.767 Q0.943 0.437 0.308 0.343" stroke="hsl(180.0,100%,35%)" stroke-width="0.00088"></path>
<path d="M0.899 0.767 Q1.740 0.755 1.899 0.342" stroke="hsl(180.0,100%,35%)" stroke-width="0.00088"></path>
<path d="M1.484 0.085 Q1.218 -0.028 0.938 0.076" stroke="hsl(180.0,100%,35%)" stroke-width="0.01856"></path>
<path d="M1.484 0.085 Q0.690 -0.021 0.308 0.343" stroke="hsl(180.0,100%,35%)" stroke-width="0.00177"></path>
<path d="M1.484 0.085 Q0.524 0.057 0.259 0.519" stroke="hsl(180.0,100%,35%)" stroke-width="0.00177"></path>
<path d="M1.484 0.085 Q0.881 0.455 1.470 0.831" stroke="hsl(180.0,100%,35%)" stroke-width="0.00088"></path>
<path d="M0.481 0.881 Q0.307 0.862 0.233 0.943" stroke="hsl(180.0,100%,35%)" stroke-width="0.00530"></path>
<path d="M0.481 0.881 Q1.016 1.054 1.470 0.831" stroke="hsl(180.0,100%,35%)" stroke-width="0.00353"></path>
<path d="M0.481 0.881 Q0.659 0.656 0.259 0.519" stroke="hsl(180.0,100%,35%)" stroke-width="0.00177"></path>
<path d="M0.690 0.553 Q1.225 0.551 1.340 0.290" stroke="hsl(0.0,100%,35%)" stroke-width="0.00177"></path>
<path d="M0.690 0.553 Q0.800 0.680 1.074 0.655" stroke="hsl(0.0,100%,35%)" stroke-width="0.00088"></path>
<path d="M0.690 0.553 Q0.995 0.561 1.079 0.414" stroke="hsl(0.0,100%,35%)" stroke-width="0.00088"></path>
</g>
<text x="0.983" y="0.205" font-size="0.024046" fill="hsl(0.0,100%,20%)">armansito</text>
<text x="0.308" y="0.306" font-size="0.075368" fill="hsl(180.0,100%,20%)">johnstiles</text>
<text x="1.340" y="0.258" font-size="0.062814" fill="hsl(0.0,100%,20%)">michaelludwig</text>
<text x="1.189" y="0.514" font-size="0.040825" fill="hsl(0.0,100%,20%)">nicolettep</text>
<text x="1.074" y="0.632" font-size="0.045922" fill="hsl(0.0,100%,20%)">egdaniel</text>
<text x="1.517" y="0.436" font-size="0.050508" fill="hsl(0.0,100%,20%)">jvanverth</text>
<text x="0.888" y="0.856" font-size="0.016496" fill="hsl(180.0,100%,20%)">borenet</text>
<text x="0.728" y="0.781" font-size="0.011664" fill="hsl(180.0,100%,20%)">rmistry</text>
<text x="0.938" y="0.041" font-size="0.069498" fill="hsl(180.0,100%,20%)">kjlubick</text>
<text x="0.259" y="0.481" font-size="0.076931" fill="hsl(180.0,100%,20%)">brianosman</text>
<text x="1.470" y="0.803" font-size="0.055328" fill="hsl(180.0,100%,20%)">bungeman</text>
<text x="0.355" y="0.629" font-size="0.034007" fill="hsl(180.0,100%,20%)">herb</text>
<text x="1.277" y="0.663" font-size="0.021028" fill="hsl(0.0,100%,20%)">briansalomon</text>
<text x="1.079" y="0.394" font-size="0.039983" fill="hsl(0.0,100%,20%)">robertphillips</text>
<text x="1.251" y="0.158" font-size="0.036422" fill="hsl(0.0,100%,20%)">jamesgk</text>
<text x="1.175" y="0.747" font-size="0.014286" fill="hsl(180.0,100%,20%)">jlavrova</text>
<text x="1.404" y="0.680" font-size="0.030861" fill="hsl(180.0,100%,20%)">drott</text>
<text x="0.233" y="0.929" font-size="0.028571" fill="hsl(180.0,100%,20%)">fmalita</text>
<text x="1.899" y="0.332" font-size="0.019343" fill="hsl(180.0,100%,20%)">scroggo</text>
<text x="0.128" y="0.723" font-size="0.005832" fill="hsl(180.0,100%,20%)">sharaks</text>
<text x="0.275" y="0.820" font-size="0.011664" fill="hsl(180.0,100%,20%)">jmbetancourt</text>
<text x="0.436" y="0.760" font-size="0.005832" fill="hsl(180.0,100%,20%)">bwils</text>
<text x="0.899" y="0.757" font-size="0.020203" fill="hsl(180.0,100%,20%)">nscobie</text>
<text x="1.484" y="0.068" font-size="0.034503" fill="hsl(180.0,100%,20%)">lovisolo</text>
<text x="0.481" y="0.871" font-size="0.020203" fill="hsl(180.0,100%,20%)">mike</text>
<text x="0.690" y="0.547" font-size="0.011664" fill="hsl(0.0,100%,20%)">penghuang</text>
<text x="1.949" y="0.553" font-size="0.005832" fill="hsl(180.0,100%,20%)">jreck</text>
</svg>
