<svg width="4000" height="2000" viewBox="-0.025 -0.025 2.05 1.05" xmlns="http://www.w3.org/2000/svg">
  <style>
    path {
      fill: none;
      stroke-linecap: round;
      stroke-opacity: 0.4;
    }

    text {
      text-anchor: middle;
      alignment-baseline: hanging;
    }
  </style>
  <g opacity="0.4">
<path d="M0.658 0.178 Q0.719 0.629 1.612 0.698" stroke="hsl(0.0,100%,35%)" stroke-width="0.00125"></path>
<path d="M0.658 0.178 Q0.983 0.389 1.465 0.277" stroke="hsl(0.0,100%,35%)" stroke-width="0.00107"></path>
<path d="M0.658 0.178 Q-0.092 0.362 0.100 0.768" stroke="hsl(0.0,100%,35%)" stroke-width="0.00107"></path>
<path d="M0.658 0.178 Q0.851 0.146 0.830 0.044" stroke="hsl(0.0,100%,35%)" stroke-width="0.00695"></path>
<path d="M0.658 0.178 Q0.850 0.484 1.488 0.457" stroke="hsl(0.0,100%,35%)" stroke-width="0.00071"></path>
<path d="M0.658 0.178 Q0.452 0.113 0.279 0.198" stroke="hsl(0.0,100%,35%)" stroke-width="0.00410"></path>
<path d="M0.658 0.178 Q0.907 0.278 1.155 0.178" stroke="hsl(0.0,100%,35%)" stroke-width="0.00036"></path>
<path d="M0.658 0.178 Q-0.160 0.410 0.113 0.860" stroke="hsl(0.0,100%,35%)" stroke-width="0.00018"></path>
<path d="M0.658 0.178 Q0.454 0.264 0.576 0.383" stroke="hsl(0.0,100%,35%)" stroke-width="0.00018"></path>
<path d="M0.658 0.178 Q0.682 0.294 0.912 0.307" stroke="hsl(0.0,100%,35%)" stroke-width="0.00036"></path>
<path d="M0.658 0.178 Q0.849 0.730 1.967 0.758" stroke="hsl(0.0,100%,35%)" stroke-width="0.00053"></path>
<path d="M0.658 0.178 Q0.677 0.447 1.206 0.497" stroke="hsl(0.0,100%,35%)" stroke-width="0.00018"></path>
<path d="M0.658 0.178 Q0.723 0.108 0.601 0.061" stroke="hsl(0.0,100%,35%)" stroke-width="0.00036"></path>
<path d="M1.612 0.698 Q1.550 0.247 0.658 0.178" stroke="hsl(0.0,100%,35%)" stroke-width="0.00232"></path>
<path d="M1.612 0.698 Q1.346 0.333 0.576 0.383" stroke="hsl(0.0,100%,35%)" stroke-width="0.01639"></path>
<path d="M1.612 0.698 Q1.799 0.347 1.155 0.178" stroke="hsl(0.0,100%,35%)" stroke-width="0.02245"></path>
<path d="M1.612 0.698 Q1.162 0.312 0.310 0.447" stroke="hsl(0.0,100%,35%)" stroke-width="0.00339"></path>
<path d="M1.612 0.698 Q1.345 0.181 0.279 0.198" stroke="hsl(0.0,100%,35%)" stroke-width="0.00071"></path>
<path d="M1.612 0.698 Q1.569 0.516 1.206 0.497" stroke="hsl(0.0,100%,35%)" stroke-width="0.00766"></path>
<path d="M1.612 0.698 Q1.575 0.362 0.912 0.307" stroke="hsl(0.0,100%,35%)" stroke-width="0.00249"></path>
<path d="M1.612 0.698 Q1.741 0.799 1.967 0.758" stroke="hsl(0.0,100%,35%)" stroke-width="0.02904"></path>
<path d="M1.612 0.698 Q1.743 0.214 0.830 0.044" stroke="hsl(0.0,100%,35%)" stroke-width="0.00089"></path>
<path d="M1.612 0.698 Q0.800 0.430 0.100 0.768" stroke="hsl(0.0,100%,35%)" stroke-width="0.00053"></path>
<path d="M1.612 0.698 Q1.562 0.587 1.335 0.586" stroke="hsl(0.0,100%,35%)" stroke-width="0.00036"></path>
<path d="M1.612 0.698 Q1.742 0.553 1.488 0.457" stroke="hsl(0.0,100%,35%)" stroke-width="0.00018"></path>
<path d="M1.612 0.698 Q1.871 0.694 1.922 0.567" stroke="hsl(0.0,100%,35%)" stroke-width="0.00178"></path>
<path d="M1.612 0.698 Q1.209 0.167 0.087 0.247" stroke="hsl(0.0,100%,35%)" stroke-width="0.00214"></path>
<path d="M1.612 0.698 Q1.701 0.447 1.231 0.348" stroke="hsl(0.0,100%,35%)" stroke-width="0.00018"></path>
<path d="M1.612 0.698 Q1.529 0.739 1.592 0.789" stroke="hsl(0.0,100%,35%)" stroke-width="0.00018"></path>
<path d="M1.612 0.698 Q1.875 0.458 1.465 0.277" stroke="hsl(0.0,100%,35%)" stroke-width="0.00089"></path>
<path d="M1.612 0.698 Q1.563 0.420 1.010 0.383" stroke="hsl(0.0,100%,35%)" stroke-width="0.00071"></path>
<path d="M1.612 0.698 Q1.991 0.594 1.872 0.387" stroke="hsl(0.0,100%,35%)" stroke-width="0.00249"></path>
<path d="M1.612 0.698 Q1.385 0.645 1.233 0.744" stroke="hsl(0.0,100%,35%)" stroke-width="0.00018"></path>
<path d="M1.612 0.698 Q1.427 0.637 1.268 0.714" stroke="hsl(0.0,100%,35%)" stroke-width="0.00018"></path>
<path d="M1.612 0.698 Q0.919 0.558 0.494 0.865" stroke="hsl(0.0,100%,35%)" stroke-width="0.00018"></path>
<path d="M1.612 0.698 Q1.607 0.308 0.846 0.225" stroke="hsl(0.0,100%,35%)" stroke-width="0.00036"></path>
<path d="M1.612 0.698 Q1.409 0.721 1.410 0.825" stroke="hsl(0.0,100%,35%)" stroke-width="0.00018"></path>
<path d="M1.612 0.698 Q1.615 0.177 0.601 0.061" stroke="hsl(0.0,100%,35%)" stroke-width="0.00036"></path>
<path d="M1.612 0.698 Q1.448 0.130 0.305 0.086" stroke="hsl(0.0,100%,35%)" stroke-width="0.00018"></path>
<path d="M1.612 0.698 Q1.547 0.845 1.821 0.909" stroke="hsl(0.0,100%,35%)" stroke-width="0.00018"></path>
<path d="M1.612 0.698 Q1.373 0.699 1.324 0.816" stroke="hsl(0.0,100%,35%)" stroke-width="0.00018"></path>
<path d="M1.465 0.277 Q1.331 0.618 1.967 0.758" stroke="hsl(180.0,100%,35%)" stroke-width="0.00428"></path>
<path d="M1.465 0.277 Q1.159 0.335 1.206 0.497" stroke="hsl(180.0,100%,35%)" stroke-width="0.01675"></path>
<path d="M1.465 0.277 Q1.291 0.266 1.231 0.348" stroke="hsl(180.0,100%,35%)" stroke-width="0.01194"></path>
<path d="M1.465 0.277 Q1.580 0.413 1.872 0.387" stroke="hsl(180.0,100%,35%)" stroke-width="0.00178"></path>
<path d="M1.465 0.277 Q1.332 0.372 1.488 0.457" stroke="hsl(180.0,100%,35%)" stroke-width="0.00463"></path>
<path d="M1.465 0.277 Q1.152 0.405 1.335 0.586" stroke="hsl(180.0,100%,35%)" stroke-width="0.00143"></path>
<path d="M1.465 0.277 Q1.461 0.513 1.922 0.567" stroke="hsl(180.0,100%,35%)" stroke-width="0.00018"></path>
<path d="M1.465 0.277 Q0.934 0.000 0.279 0.198" stroke="hsl(180.0,100%,35%)" stroke-width="0.00018"></path>
<path d="M1.465 0.277 Q1.140 0.066 0.658 0.178" stroke="hsl(180.0,100%,35%)" stroke-width="0.00036"></path>
<path d="M1.465 0.277 Q1.165 0.181 0.912 0.307" stroke="hsl(180.0,100%,35%)" stroke-width="0.00018"></path>
<path d="M1.465 0.277 Q1.152 0.239 1.010 0.383" stroke="hsl(180.0,100%,35%)" stroke-width="0.00018"></path>
<path d="M1.465 0.277 Q1.389 0.165 1.155 0.178" stroke="hsl(180.0,100%,35%)" stroke-width="0.00018"></path>
<path d="M1.465 0.277 Q1.202 0.516 1.612 0.698" stroke="hsl(180.0,100%,35%)" stroke-width="0.00036"></path>
<path d="M1.465 0.277 Q1.038 -0.051 0.305 0.086" stroke="hsl(180.0,100%,35%)" stroke-width="0.00036"></path>
<path d="M0.100 0.768 Q1.044 0.552 0.830 0.044" stroke="hsl(0.0,100%,35%)" stroke-width="0.00641"></path>
<path d="M0.100 0.768 Q0.645 0.519 0.279 0.198" stroke="hsl(0.0,100%,35%)" stroke-width="0.00036"></path>
<path d="M0.100 0.768 Q0.033 0.816 0.113 0.860" stroke="hsl(0.0,100%,35%)" stroke-width="0.00356"></path>
<path d="M0.100 0.768 Q0.851 0.585 0.658 0.178" stroke="hsl(0.0,100%,35%)" stroke-width="0.00143"></path>
<path d="M0.100 0.768 Q0.646 0.670 0.576 0.383" stroke="hsl(0.0,100%,35%)" stroke-width="0.00018"></path>
<path d="M0.100 0.768 Q0.462 0.649 0.310 0.447" stroke="hsl(0.0,100%,35%)" stroke-width="0.00089"></path>
<path d="M0.100 0.768 Q0.219 0.895 0.494 0.865" stroke="hsl(0.0,100%,35%)" stroke-width="0.00018"></path>
<path d="M0.100 0.768 Q1.099 0.684 1.155 0.178" stroke="hsl(0.0,100%,35%)" stroke-width="0.00018"></path>
<path d="M0.100 0.768 Q1.001 0.784 1.231 0.348" stroke="hsl(0.0,100%,35%)" stroke-width="0.00036"></path>
<path d="M0.830 0.044 Q-0.114 0.260 0.100 0.768" stroke="hsl(0.0,100%,35%)" stroke-width="0.00410"></path>
<path d="M0.830 0.044 Q0.661 0.192 0.912 0.307" stroke="hsl(0.0,100%,35%)" stroke-width="0.00018"></path>
<path d="M0.830 0.044 Q0.431 0.011 0.279 0.198" stroke="hsl(0.0,100%,35%)" stroke-width="0.00214"></path>
<path d="M0.830 0.044 Q0.885 0.176 1.155 0.178" stroke="hsl(0.0,100%,35%)" stroke-width="0.00036"></path>
<path d="M0.830 0.044 Q0.636 0.077 0.658 0.178" stroke="hsl(0.0,100%,35%)" stroke-width="0.00356"></path>
<path d="M0.830 0.044 Q0.005 0.387 0.494 0.865" stroke="hsl(0.0,100%,35%)" stroke-width="0.00053"></path>
<path d="M0.830 0.044 Q-0.181 0.309 0.113 0.860" stroke="hsl(0.0,100%,35%)" stroke-width="0.00071"></path>
<path d="M0.830 0.044 Q0.787 0.277 1.231 0.348" stroke="hsl(0.0,100%,35%)" stroke-width="0.00018"></path>
<path d="M0.830 0.044 Q0.745 0.004 0.649 0.037" stroke="hsl(0.0,100%,35%)" stroke-width="0.00053"></path>
<path d="M0.830 0.044 Q0.698 0.527 1.612 0.698" stroke="hsl(0.0,100%,35%)" stroke-width="0.00036"></path>
<path d="M0.830 0.044 Q0.921 0.072 0.996 0.034" stroke="hsl(0.0,100%,35%)" stroke-width="0.00018"></path>
<path d="M0.830 0.044 Q0.702 0.007 0.601 0.061" stroke="hsl(0.0,100%,35%)" stroke-width="0.00018"></path>
<path d="M1.488 0.457 Q1.316 0.421 1.206 0.497" stroke="hsl(180.0,100%,35%)" stroke-width="0.00535"></path>
<path d="M1.488 0.457 Q0.665 0.462 0.494 0.865" stroke="hsl(180.0,100%,35%)" stroke-width="0.00036"></path>
<path d="M1.488 0.457 Q1.133 0.452 1.044 0.624" stroke="hsl(180.0,100%,35%)" stroke-width="0.00018"></path>
<path d="M1.488 0.457 Q1.487 0.703 1.967 0.758" stroke="hsl(180.0,100%,35%)" stroke-width="0.00552"></path>
<path d="M1.488 0.457 Q1.545 0.251 1.155 0.178" stroke="hsl(180.0,100%,35%)" stroke-width="0.00071"></path>
<path d="M1.488 0.457 Q1.308 0.491 1.335 0.586" stroke="hsl(180.0,100%,35%)" stroke-width="0.00053"></path>
<path d="M1.488 0.457 Q1.447 0.351 1.231 0.348" stroke="hsl(180.0,100%,35%)" stroke-width="0.00428"></path>
<path d="M1.488 0.457 Q1.092 0.238 0.576 0.383" stroke="hsl(180.0,100%,35%)" stroke-width="0.00089"></path>
<path d="M1.488 0.457 Q1.621 0.362 1.465 0.277" stroke="hsl(180.0,100%,35%)" stroke-width="0.00927"></path>
<path d="M1.488 0.457 Q1.737 0.499 1.872 0.387" stroke="hsl(180.0,100%,35%)" stroke-width="0.00036"></path>
<path d="M1.488 0.457 Q1.321 0.267 0.912 0.307" stroke="hsl(180.0,100%,35%)" stroke-width="0.00018"></path>
<path d="M1.488 0.457 Q1.353 0.213 0.846 0.225" stroke="hsl(180.0,100%,35%)" stroke-width="0.00089"></path>
<path d="M1.488 0.457 Q1.490 0.119 0.830 0.044" stroke="hsl(180.0,100%,35%)" stroke-width="0.00071"></path>
<path d="M1.488 0.457 Q1.296 0.152 0.658 0.178" stroke="hsl(180.0,100%,35%)" stroke-width="0.00053"></path>
<path d="M1.488 0.457 Q1.309 0.324 1.010 0.383" stroke="hsl(180.0,100%,35%)" stroke-width="0.00018"></path>
<path d="M1.488 0.457 Q1.673 0.325 1.455 0.206" stroke="hsl(180.0,100%,35%)" stroke-width="0.00036"></path>
<path d="M1.488 0.457 Q1.202 0.403 1.033 0.531" stroke="hsl(180.0,100%,35%)" stroke-width="0.00018"></path>
<path d="M1.488 0.457 Q1.091 0.086 0.279 0.198" stroke="hsl(180.0,100%,35%)" stroke-width="0.00071"></path>
<path d="M1.488 0.457 Q1.358 0.602 1.612 0.698" stroke="hsl(180.0,100%,35%)" stroke-width="0.00036"></path>
<path d="M1.488 0.457 Q1.362 0.082 0.601 0.061" stroke="hsl(180.0,100%,35%)" stroke-width="0.00018"></path>
<path d="M1.488 0.457 Q1.617 0.599 1.922 0.567" stroke="hsl(180.0,100%,35%)" stroke-width="0.00036"></path>
<path d="M0.279 0.198 Q0.415 0.199 0.446 0.133" stroke="hsl(0.0,100%,35%)" stroke-width="0.00089"></path>
<path d="M0.279 0.198 Q0.675 0.816 1.967 0.758" stroke="hsl(0.0,100%,35%)" stroke-width="0.00214"></path>
<path d="M0.279 0.198 Q0.280 0.350 0.576 0.383" stroke="hsl(0.0,100%,35%)" stroke-width="0.00267"></path>
<path d="M0.279 0.198 Q0.509 0.379 0.912 0.307" stroke="hsl(0.0,100%,35%)" stroke-width="0.00249"></path>
<path d="M0.279 0.198 Q0.678 0.231 0.830 0.044" stroke="hsl(0.0,100%,35%)" stroke-width="0.00143"></path>
<path d="M0.279 0.198 Q0.504 0.533 1.206 0.497" stroke="hsl(0.0,100%,35%)" stroke-width="0.00196"></path>
<path d="M0.279 0.198 Q-0.333 0.496 0.113 0.860" stroke="hsl(0.0,100%,35%)" stroke-width="0.00143"></path>
<path d="M0.279 0.198 Q0.143 0.185 0.087 0.247" stroke="hsl(0.0,100%,35%)" stroke-width="0.00036"></path>
<path d="M0.279 0.198 Q0.541 0.325 0.846 0.225" stroke="hsl(0.0,100%,35%)" stroke-width="0.00053"></path>
<path d="M0.279 0.198 Q0.598 0.324 0.913 0.196" stroke="hsl(0.0,100%,35%)" stroke-width="0.00143"></path>
<path d="M0.279 0.198 Q0.096 0.329 0.310 0.447" stroke="hsl(0.0,100%,35%)" stroke-width="0.00178"></path>
<path d="M0.279 0.198 Q0.809 0.475 1.465 0.277" stroke="hsl(0.0,100%,35%)" stroke-width="0.00018"></path>
<path d="M0.279 0.198 Q0.733 0.364 1.155 0.178" stroke="hsl(0.0,100%,35%)" stroke-width="0.00036"></path>
<path d="M0.279 0.198 Q0.484 0.264 0.658 0.178" stroke="hsl(0.0,100%,35%)" stroke-width="0.00160"></path>
<path d="M0.279 0.198 Q-0.266 0.447 0.100 0.768" stroke="hsl(0.0,100%,35%)" stroke-width="0.00089"></path>
<path d="M0.279 0.198 Q0.296 0.242 0.385 0.243" stroke="hsl(0.0,100%,35%)" stroke-width="0.00036"></path>
<path d="M0.279 0.198 Q0.925 0.611 1.872 0.387" stroke="hsl(0.0,100%,35%)" stroke-width="0.00036"></path>
<path d="M0.279 0.198 Q0.635 0.464 1.231 0.348" stroke="hsl(0.0,100%,35%)" stroke-width="0.00036"></path>
<path d="M0.279 0.198 Q0.546 0.715 1.612 0.698" stroke="hsl(0.0,100%,35%)" stroke-width="0.00089"></path>
<path d="M0.279 0.198 Q0.676 0.570 1.488 0.457" stroke="hsl(0.0,100%,35%)" stroke-width="0.00018"></path>
<path d="M0.279 0.198 Q0.550 0.194 0.601 0.061" stroke="hsl(0.0,100%,35%)" stroke-width="0.00036"></path>
<path d="M0.279 0.198 Q0.382 0.147 0.305 0.086" stroke="hsl(0.0,100%,35%)" stroke-width="0.00053"></path>
<path d="M0.279 0.198 Q0.805 0.711 1.922 0.567" stroke="hsl(0.0,100%,35%)" stroke-width="0.00053"></path>
<path d="M0.279 0.198 Q-0.147 0.575 0.494 0.865" stroke="hsl(0.0,100%,35%)" stroke-width="0.00018"></path>
<path d="M1.155 0.178 Q0.968 0.529 1.612 0.698" stroke="hsl(0.0,100%,35%)" stroke-width="0.01889"></path>
<path d="M1.155 0.178 Q0.812 0.330 1.033 0.531" stroke="hsl(0.0,100%,35%)" stroke-width="0.00267"></path>
<path d="M1.155 0.178 Q0.931 0.194 0.912 0.307" stroke="hsl(0.0,100%,35%)" stroke-width="0.02049"></path>
<path d="M1.155 0.178 Q1.098 0.384 1.488 0.457" stroke="hsl(0.0,100%,35%)" stroke-width="0.00285"></path>
<path d="M1.155 0.178 Q0.926 0.348 1.206 0.497" stroke="hsl(0.0,100%,35%)" stroke-width="0.00160"></path>
<path d="M1.155 0.178 Q1.097 0.630 1.967 0.758" stroke="hsl(0.0,100%,35%)" stroke-width="0.00196"></path>
<path d="M1.155 0.178 Q0.701 0.013 0.279 0.198" stroke="hsl(0.0,100%,35%)" stroke-width="0.00036"></path>
<path d="M1.155 0.178 Q0.702 0.165 0.576 0.383" stroke="hsl(0.0,100%,35%)" stroke-width="0.00036"></path>
<path d="M1.155 0.178 Q1.057 0.278 1.231 0.348" stroke="hsl(0.0,100%,35%)" stroke-width="0.00036"></path>
<path d="M1.155 0.178 Q0.518 0.143 0.310 0.447" stroke="hsl(0.0,100%,35%)" stroke-width="0.00018"></path>
<path d="M1.155 0.178 Q0.963 0.140 0.846 0.225" stroke="hsl(0.0,100%,35%)" stroke-width="0.00089"></path>
<path d="M1.155 0.178 Q1.020 0.138 0.913 0.196" stroke="hsl(0.0,100%,35%)" stroke-width="0.00036"></path>
<path d="M1.155 0.178 Q0.919 0.251 1.010 0.383" stroke="hsl(0.0,100%,35%)" stroke-width="0.00018"></path>
<path d="M0.113 0.860 Q0.180 0.811 0.100 0.768" stroke="hsl(0.0,100%,35%)" stroke-width="0.00071"></path>
<path d="M0.113 0.860 Q0.299 0.938 0.494 0.865" stroke="hsl(0.0,100%,35%)" stroke-width="0.00053"></path>
<path d="M0.113 0.860 Q1.124 0.595 0.830 0.044" stroke="hsl(0.0,100%,35%)" stroke-width="0.00071"></path>
<path d="M0.113 0.860 Q1.039 0.556 0.649 0.037" stroke="hsl(0.0,100%,35%)" stroke-width="0.00018"></path>
<path d="M0.113 0.860 Q0.861 0.563 0.446 0.133" stroke="hsl(0.0,100%,35%)" stroke-width="0.00018"></path>
<path d="M0.113 0.860 Q0.725 0.562 0.279 0.198" stroke="hsl(0.0,100%,35%)" stroke-width="0.00018"></path>
<path d="M0.113 0.860 Q1.121 1.180 1.967 0.758" stroke="hsl(0.0,100%,35%)" stroke-width="0.00018"></path>
<path d="M0.576 0.383 Q0.842 0.747 1.612 0.698" stroke="hsl(0.0,100%,35%)" stroke-width="0.00820"></path>
<path d="M0.576 0.383 Q0.805 0.412 0.912 0.307" stroke="hsl(0.0,100%,35%)" stroke-width="0.00089"></path>
<path d="M0.576 0.383 Q0.392 0.361 0.310 0.447" stroke="hsl(0.0,100%,35%)" stroke-width="0.00855"></path>
<path d="M0.576 0.383 Q1.221 0.644 1.872 0.387" stroke="hsl(0.0,100%,35%)" stroke-width="0.00089"></path>
<path d="M0.576 0.383 Q0.972 0.602 1.488 0.457" stroke="hsl(0.0,100%,35%)" stroke-width="0.00071"></path>
<path d="M0.576 0.383 Q0.800 0.566 1.206 0.497" stroke="hsl(0.0,100%,35%)" stroke-width="0.00214"></path>
<path d="M0.576 0.383 Q0.971 0.848 1.967 0.758" stroke="hsl(0.0,100%,35%)" stroke-width="0.00463"></path>
<path d="M0.576 0.383 Q1.105 0.507 1.465 0.277" stroke="hsl(0.0,100%,35%)" stroke-width="0.00053"></path>
<path d="M0.576 0.383 Q0.931 0.496 1.231 0.348" stroke="hsl(0.0,100%,35%)" stroke-width="0.00267"></path>
<path d="M0.576 0.383 Q0.837 0.358 0.846 0.225" stroke="hsl(0.0,100%,35%)" stroke-width="0.00018"></path>
<path d="M0.576 0.383 Q0.575 0.231 0.279 0.198" stroke="hsl(0.0,100%,35%)" stroke-width="0.00089"></path>
<path d="M0.576 0.383 Q1.029 0.396 1.155 0.178" stroke="hsl(0.0,100%,35%)" stroke-width="0.00071"></path>
<path d="M0.576 0.383 Q0.974 0.264 0.830 0.044" stroke="hsl(0.0,100%,35%)" stroke-width="0.00036"></path>
<path d="M0.576 0.383 Q0.792 0.636 1.335 0.586" stroke="hsl(0.0,100%,35%)" stroke-width="0.00018"></path>
<path d="M0.576 0.383 Q0.894 0.356 0.913 0.196" stroke="hsl(0.0,100%,35%)" stroke-width="0.00018"></path>
<path d="M0.576 0.383 Q1.101 0.744 1.922 0.567" stroke="hsl(0.0,100%,35%)" stroke-width="0.00036"></path>
<path d="M0.576 0.383 Q0.711 0.232 0.446 0.133" stroke="hsl(0.0,100%,35%)" stroke-width="0.00018"></path>
<path d="M0.576 0.383 Q0.793 0.469 1.010 0.383" stroke="hsl(0.0,100%,35%)" stroke-width="0.00018"></path>
<path d="M0.576 0.383 Q0.846 0.227 0.601 0.061" stroke="hsl(0.0,100%,35%)" stroke-width="0.00018"></path>
<path d="M0.576 0.383 Q0.344 0.274 0.081 0.363" stroke="hsl(0.0,100%,35%)" stroke-width="0.00018"></path>
<path d="M0.912 0.307 Q0.949 0.642 1.612 0.698" stroke="hsl(0.0,100%,35%)" stroke-width="0.00356"></path>
<path d="M0.912 0.307 Q1.137 0.291 1.155 0.178" stroke="hsl(0.0,100%,35%)" stroke-width="0.00802"></path>
<path d="M0.912 0.307 Q1.017 0.280 0.987 0.223" stroke="hsl(0.0,100%,35%)" stroke-width="0.00125"></path>
<path d="M0.912 0.307 Q1.002 0.251 0.913 0.196" stroke="hsl(0.0,100%,35%)" stroke-width="0.00125"></path>
<path d="M0.912 0.307 Q0.945 0.253 0.846 0.225" stroke="hsl(0.0,100%,35%)" stroke-width="0.00481"></path>
<path d="M0.912 0.307 Q0.116 0.791 0.886 1.286" stroke="hsl(0.0,100%,35%)" stroke-width="0.00018"></path>
<path d="M0.912 0.307 Q0.500 0.256 0.310 0.447" stroke="hsl(0.0,100%,35%)" stroke-width="0.00143"></path>
<path d="M0.912 0.307 Q0.684 0.277 0.576 0.383" stroke="hsl(0.0,100%,35%)" stroke-width="0.00249"></path>
<path d="M0.912 0.307 Q1.039 0.391 1.231 0.348" stroke="hsl(0.0,100%,35%)" stroke-width="0.00018"></path>
<path d="M0.912 0.307 Q1.079 0.743 1.967 0.758" stroke="hsl(0.0,100%,35%)" stroke-width="0.00160"></path>
<path d="M0.912 0.307 Q0.907 0.461 1.206 0.497" stroke="hsl(0.0,100%,35%)" stroke-width="0.00071"></path>
<path d="M0.912 0.307 Q0.682 0.126 0.279 0.198" stroke="hsl(0.0,100%,35%)" stroke-width="0.00036"></path>
<path d="M0.912 0.307 Q1.213 0.402 1.465 0.277" stroke="hsl(0.0,100%,35%)" stroke-width="0.00018"></path>
<path d="M0.912 0.307 Q1.080 0.497 1.488 0.457" stroke="hsl(0.0,100%,35%)" stroke-width="0.00018"></path>
<path d="M0.912 0.307 Q0.953 0.122 0.601 0.061" stroke="hsl(0.0,100%,35%)" stroke-width="0.00018"></path>
<path d="M1.967 0.758 Q2.097 0.654 1.922 0.567" stroke="hsl(0.0,100%,35%)" stroke-width="0.00927"></path>
<path d="M1.967 0.758 Q1.795 0.476 1.206 0.497" stroke="hsl(0.0,100%,35%)" stroke-width="0.01782"></path>
<path d="M1.967 0.758 Q1.838 0.657 1.612 0.698" stroke="hsl(0.0,100%,35%)" stroke-width="0.01568"></path>
<path d="M1.967 0.758 Q1.572 0.292 0.576 0.383" stroke="hsl(0.0,100%,35%)" stroke-width="0.00463"></path>
<path d="M1.967 0.758 Q1.968 0.512 1.488 0.457" stroke="hsl(0.0,100%,35%)" stroke-width="0.00089"></path>
<path d="M1.967 0.758 Q2.216 0.553 1.872 0.387" stroke="hsl(0.0,100%,35%)" stroke-width="0.00178"></path>
<path d="M1.967 0.758 Q1.927 0.406 1.231 0.348" stroke="hsl(0.0,100%,35%)" stroke-width="0.00499"></path>
<path d="M1.967 0.758 Q1.570 0.141 0.279 0.198" stroke="hsl(0.0,100%,35%)" stroke-width="0.00303"></path>
<path d="M1.967 0.758 Q1.388 0.271 0.310 0.447" stroke="hsl(0.0,100%,35%)" stroke-width="0.00107"></path>
<path d="M1.967 0.758 Q1.801 0.322 0.912 0.307" stroke="hsl(0.0,100%,35%)" stroke-width="0.00125"></path>
<path d="M1.967 0.758 Q2.101 0.417 1.465 0.277" stroke="hsl(0.0,100%,35%)" stroke-width="0.00160"></path>
<path d="M1.967 0.758 Q1.026 0.390 0.100 0.768" stroke="hsl(0.0,100%,35%)" stroke-width="0.00071"></path>
<path d="M1.967 0.758 Q1.969 0.174 0.830 0.044" stroke="hsl(0.0,100%,35%)" stroke-width="0.00089"></path>
<path d="M1.967 0.758 Q1.833 0.268 0.846 0.225" stroke="hsl(0.0,100%,35%)" stroke-width="0.00018"></path>
<path d="M1.967 0.758 Q1.776 0.207 0.658 0.178" stroke="hsl(0.0,100%,35%)" stroke-width="0.00071"></path>
<path d="M1.967 0.758 Q2.025 0.306 1.155 0.178" stroke="hsl(0.0,100%,35%)" stroke-width="0.00053"></path>
<path d="M1.967 0.758 Q1.788 0.546 1.335 0.586" stroke="hsl(0.0,100%,35%)" stroke-width="0.00018"></path>
<path d="M1.206 0.497 Q1.628 0.575 1.872 0.387" stroke="hsl(180.0,100%,35%)" stroke-width="0.00677"></path>
<path d="M1.206 0.497 Q1.512 0.439 1.465 0.277" stroke="hsl(180.0,100%,35%)" stroke-width="0.01746"></path>
<path d="M1.206 0.497 Q1.378 0.780 1.967 0.758" stroke="hsl(180.0,100%,35%)" stroke-width="0.01051"></path>
<path d="M1.206 0.497 Q1.338 0.428 1.231 0.348" stroke="hsl(180.0,100%,35%)" stroke-width="0.01621"></path>
<path d="M1.206 0.497 Q1.379 0.534 1.488 0.457" stroke="hsl(180.0,100%,35%)" stroke-width="0.00249"></path>
<path d="M1.206 0.497 Q1.249 0.678 1.612 0.698" stroke="hsl(180.0,100%,35%)" stroke-width="0.00232"></path>
<path d="M1.206 0.497 Q1.508 0.675 1.922 0.567" stroke="hsl(180.0,100%,35%)" stroke-width="0.00089"></path>
<path d="M1.206 0.497 Q1.212 0.343 0.912 0.307" stroke="hsl(180.0,100%,35%)" stroke-width="0.00036"></path>
<path d="M1.206 0.497 Q1.436 0.327 1.155 0.178" stroke="hsl(180.0,100%,35%)" stroke-width="0.00018"></path>
<path d="M1.206 0.497 Q0.983 0.314 0.576 0.383" stroke="hsl(180.0,100%,35%)" stroke-width="0.00036"></path>
<path d="M1.206 0.497 Q1.199 0.567 1.335 0.586" stroke="hsl(180.0,100%,35%)" stroke-width="0.00053"></path>
<path d="M1.206 0.497 Q1.187 0.228 0.658 0.178" stroke="hsl(180.0,100%,35%)" stroke-width="0.00018"></path>
<path d="M0.601 0.061 Q0.729 0.098 0.830 0.044" stroke="hsl(0.0,100%,35%)" stroke-width="0.00036"></path>
<path d="M0.601 0.061 Q0.860 0.342 1.465 0.277" stroke="hsl(0.0,100%,35%)" stroke-width="0.00018"></path>
<path d="M0.494 0.865 Q0.307 0.786 0.113 0.860" stroke="hsl(0.0,100%,35%)" stroke-width="0.00107"></path>
<path d="M0.494 0.865 Q1.182 0.615 0.846 0.225" stroke="hsl(0.0,100%,35%)" stroke-width="0.00036"></path>
<path d="M0.494 0.865 Q0.375 0.738 0.100 0.768" stroke="hsl(0.0,100%,35%)" stroke-width="0.00018"></path>
<path d="M1.231 0.348 Q1.405 0.359 1.465 0.277" stroke="hsl(180.0,100%,35%)" stroke-width="0.02708"></path>
<path d="M1.231 0.348 Q1.271 0.700 1.967 0.758" stroke="hsl(180.0,100%,35%)" stroke-width="0.00249"></path>
<path d="M1.231 0.348 Q0.876 0.234 0.576 0.383" stroke="hsl(180.0,100%,35%)" stroke-width="0.00107"></path>
<path d="M1.231 0.348 Q1.100 0.418 1.206 0.497" stroke="hsl(180.0,100%,35%)" stroke-width="0.01835"></path>
<path d="M1.231 0.348 Q1.272 0.454 1.488 0.457" stroke="hsl(180.0,100%,35%)" stroke-width="0.00249"></path>
<path d="M1.231 0.348 Q0.330 0.332 0.100 0.768" stroke="hsl(180.0,100%,35%)" stroke-width="0.00018"></path>
<path d="M1.231 0.348 Q1.274 0.116 0.830 0.044" stroke="hsl(180.0,100%,35%)" stroke-width="0.00214"></path>
<path d="M1.231 0.348 Q1.521 0.495 1.872 0.387" stroke="hsl(180.0,100%,35%)" stroke-width="0.00570"></path>
<path d="M1.231 0.348 Q1.401 0.596 1.922 0.567" stroke="hsl(180.0,100%,35%)" stroke-width="0.00018"></path>
<path d="M1.231 0.348 Q1.336 0.403 1.465 0.363" stroke="hsl(180.0,100%,35%)" stroke-width="0.00018"></path>
<path d="M1.231 0.348 Q1.142 0.599 1.612 0.698" stroke="hsl(180.0,100%,35%)" stroke-width="0.00053"></path>
<path d="M1.231 0.348 Q0.875 0.083 0.279 0.198" stroke="hsl(180.0,100%,35%)" stroke-width="0.00018"></path>
<path d="M1.231 0.348 Q1.092 0.488 1.335 0.586" stroke="hsl(180.0,100%,35%)" stroke-width="0.00018"></path>
<path d="M1.922 0.567 Q1.791 0.672 1.967 0.758" stroke="hsl(0.0,100%,35%)" stroke-width="0.00802"></path>
<path d="M1.922 0.567 Q1.620 0.389 1.206 0.497" stroke="hsl(0.0,100%,35%)" stroke-width="0.00303"></path>
<path d="M1.922 0.567 Q1.926 0.331 1.465 0.277" stroke="hsl(0.0,100%,35%)" stroke-width="0.00392"></path>
<path d="M1.922 0.567 Q1.395 0.054 0.279 0.198" stroke="hsl(0.0,100%,35%)" stroke-width="0.00160"></path>
<path d="M1.922 0.567 Q1.793 0.426 1.488 0.457" stroke="hsl(0.0,100%,35%)" stroke-width="0.00053"></path>
<path d="M1.922 0.567 Q1.613 0.459 1.335 0.586" stroke="hsl(0.0,100%,35%)" stroke-width="0.00071"></path>
<path d="M1.922 0.567 Q1.662 0.570 1.612 0.698" stroke="hsl(0.0,100%,35%)" stroke-width="0.00053"></path>
<path d="M1.922 0.567 Q1.752 0.320 1.231 0.348" stroke="hsl(0.0,100%,35%)" stroke-width="0.00036"></path>
<path d="M1.922 0.567 Q1.397 0.206 0.576 0.383" stroke="hsl(0.0,100%,35%)" stroke-width="0.00143"></path>
<path d="M1.922 0.567 Q2.041 0.467 1.872 0.387" stroke="hsl(0.0,100%,35%)" stroke-width="0.00018"></path>
<path d="M1.922 0.567 Q1.843 0.569 1.829 0.608" stroke="hsl(0.0,100%,35%)" stroke-width="0.00018"></path>
<path d="M1.922 0.567 Q1.212 0.185 0.310 0.447" stroke="hsl(0.0,100%,35%)" stroke-width="0.00018"></path>
<path d="M1.872 0.387 Q1.582 0.239 1.231 0.348" stroke="hsl(180.0,100%,35%)" stroke-width="0.01158"></path>
<path d="M1.872 0.387 Q1.451 0.309 1.206 0.497" stroke="hsl(180.0,100%,35%)" stroke-width="0.01283"></path>
<path d="M1.872 0.387 Q1.623 0.345 1.488 0.457" stroke="hsl(180.0,100%,35%)" stroke-width="0.00036"></path>
<path d="M1.872 0.387 Q1.443 0.379 1.335 0.586" stroke="hsl(180.0,100%,35%)" stroke-width="0.00071"></path>
<path d="M1.872 0.387 Q1.622 0.591 1.967 0.758" stroke="hsl(180.0,100%,35%)" stroke-width="0.00178"></path>
<path d="M1.872 0.387 Q1.756 0.250 1.465 0.277" stroke="hsl(180.0,100%,35%)" stroke-width="0.00071"></path>
<path d="M1.872 0.387 Q1.493 0.490 1.612 0.698" stroke="hsl(180.0,100%,35%)" stroke-width="0.00053"></path>
<path d="M1.872 0.387 Q0.614 0.271 0.113 0.860" stroke="hsl(180.0,100%,35%)" stroke-width="0.00018"></path>
<path d="M1.872 0.387 Q1.227 0.125 0.576 0.383" stroke="hsl(180.0,100%,35%)" stroke-width="0.00125"></path>
<path d="M1.872 0.387 Q1.043 0.104 0.310 0.447" stroke="hsl(180.0,100%,35%)" stroke-width="0.00018"></path>
<path d="M1.872 0.387 Q1.488 0.101 0.846 0.225" stroke="hsl(180.0,100%,35%)" stroke-width="0.00036"></path>
<path d="M1.872 0.387 Q1.431 0.040 0.658 0.178" stroke="hsl(180.0,100%,35%)" stroke-width="0.00036"></path>
<path d="M0.310 0.447 Q0.494 0.468 0.576 0.383" stroke="hsl(0.0,100%,35%)" stroke-width="0.01461"></path>
<path d="M0.310 0.447 Q0.889 0.934 1.967 0.758" stroke="hsl(0.0,100%,35%)" stroke-width="0.00071"></path>
<path d="M0.310 0.447 Q0.760 0.832 1.612 0.698" stroke="hsl(0.0,100%,35%)" stroke-width="0.00445"></path>
<path d="M0.310 0.447 Q0.723 0.497 0.912 0.307" stroke="hsl(0.0,100%,35%)" stroke-width="0.00552"></path>
<path d="M0.310 0.447 Q0.192 0.456 0.184 0.516" stroke="hsl(0.0,100%,35%)" stroke-width="0.00053"></path>
<path d="M0.310 0.447 Q0.493 0.316 0.279 0.198" stroke="hsl(0.0,100%,35%)" stroke-width="0.00196"></path>
<path d="M0.310 0.447 Q0.892 0.349 0.830 0.044" stroke="hsl(0.0,100%,35%)" stroke-width="0.00036"></path>
<path d="M0.310 0.447 Q0.711 0.555 1.010 0.383" stroke="hsl(0.0,100%,35%)" stroke-width="0.00018"></path>
<path d="M0.310 0.447 Q0.313 0.401 0.225 0.389" stroke="hsl(0.0,100%,35%)" stroke-width="0.00071"></path>
<path d="M0.310 0.447 Q0.718 0.651 1.206 0.497" stroke="hsl(0.0,100%,35%)" stroke-width="0.00071"></path>
<path d="M0.310 0.447 Q0.849 0.582 1.231 0.348" stroke="hsl(0.0,100%,35%)" stroke-width="0.00018"></path>
<path d="M0.310 0.447 Q-0.119 0.614 0.113 0.860" stroke="hsl(0.0,100%,35%)" stroke-width="0.00018"></path>
<path d="M0.310 0.447 Q0.699 0.382 0.658 0.178" stroke="hsl(0.0,100%,35%)" stroke-width="0.00071"></path>
<path d="M0.310 0.447 Q-0.052 0.565 0.100 0.768" stroke="hsl(0.0,100%,35%)" stroke-width="0.00071"></path>
<path d="M0.310 0.447 Q1.019 0.829 1.922 0.567" stroke="hsl(0.0,100%,35%)" stroke-width="0.00018"></path>
<path d="M0.846 0.225 Q-0.028 0.396 0.113 0.860" stroke="hsl(0.0,100%,35%)" stroke-width="0.00107"></path>
<path d="M0.846 0.225 Q0.851 0.614 1.612 0.698" stroke="hsl(0.0,100%,35%)" stroke-width="0.00339"></path>
<path d="M0.846 0.225 Q0.814 0.279 0.912 0.307" stroke="hsl(0.0,100%,35%)" stroke-width="0.01675"></path>
<path d="M0.846 0.225 Q0.981 0.470 1.488 0.457" stroke="hsl(0.0,100%,35%)" stroke-width="0.00178"></path>
<path d="M0.846 0.225 Q0.789 0.164 0.658 0.178" stroke="hsl(0.0,100%,35%)" stroke-width="0.00071"></path>
<path d="M0.846 0.225 Q0.980 0.716 1.967 0.758" stroke="hsl(0.0,100%,35%)" stroke-width="0.00249"></path>
<path d="M0.846 0.225 Q0.983 0.131 0.830 0.044" stroke="hsl(0.0,100%,35%)" stroke-width="0.00036"></path>
<path d="M0.846 0.225 Q0.802 0.337 1.010 0.383" stroke="hsl(0.0,100%,35%)" stroke-width="0.00125"></path>
<path d="M0.846 0.225 Q1.230 0.511 1.872 0.387" stroke="hsl(0.0,100%,35%)" stroke-width="0.00036"></path>
<path d="M0.846 0.225 Q0.158 0.474 0.494 0.865" stroke="hsl(0.0,100%,35%)" stroke-width="0.00071"></path>
<path d="M0.846 0.225 Q0.039 0.347 0.100 0.768" stroke="hsl(0.0,100%,35%)" stroke-width="0.00036"></path>
<path d="M0.846 0.225 Q0.940 0.364 1.231 0.348" stroke="hsl(0.0,100%,35%)" stroke-width="0.00018"></path>
<path d="M0.846 0.225 Q0.448 0.084 0.087 0.247" stroke="hsl(0.0,100%,35%)" stroke-width="0.00107"></path>
<path d="M0.846 0.225 Q0.584 0.098 0.279 0.198" stroke="hsl(0.0,100%,35%)" stroke-width="0.00143"></path>
<path d="M0.846 0.225 Q1.038 0.263 1.155 0.178" stroke="hsl(0.0,100%,35%)" stroke-width="0.00160"></path>
<path d="M0.846 0.225 Q0.401 0.229 0.310 0.447" stroke="hsl(0.0,100%,35%)" stroke-width="0.00053"></path>
<path d="M0.846 0.225 Q0.809 0.433 1.206 0.497" stroke="hsl(0.0,100%,35%)" stroke-width="0.00018"></path>
<path d="M0.846 0.225 Q0.903 0.224 0.913 0.196" stroke="hsl(0.0,100%,35%)" stroke-width="0.00036"></path>
<path d="M0.846 0.225 Q1.114 0.375 1.465 0.277" stroke="hsl(0.0,100%,35%)" stroke-width="0.00036"></path>
<path d="M0.846 0.225 Q0.585 0.250 0.576 0.383" stroke="hsl(0.0,100%,35%)" stroke-width="0.00018"></path>
<path d="M1.335 0.586 Q1.596 0.613 1.706 0.492" stroke="hsl(180.0,100%,35%)" stroke-width="0.00018"></path>
<path d="M1.335 0.586 Q1.342 0.516 1.206 0.497" stroke="hsl(180.0,100%,35%)" stroke-width="0.00909"></path>
<path d="M1.335 0.586 Q1.763 0.594 1.872 0.387" stroke="hsl(180.0,100%,35%)" stroke-width="0.00214"></path>
<path d="M1.335 0.586 Q1.648 0.458 1.465 0.277" stroke="hsl(180.0,100%,35%)" stroke-width="0.00570"></path>
<path d="M1.335 0.586 Q1.579 0.501 1.465 0.363" stroke="hsl(180.0,100%,35%)" stroke-width="0.00071"></path>
<path d="M1.335 0.586 Q1.253 0.182 0.446 0.133" stroke="hsl(180.0,100%,35%)" stroke-width="0.00036"></path>
<path d="M1.335 0.586 Q1.516 0.214 0.830 0.044" stroke="hsl(180.0,100%,35%)" stroke-width="0.00053"></path>
<path d="M1.335 0.586 Q1.513 0.799 1.967 0.758" stroke="hsl(180.0,100%,35%)" stroke-width="0.00107"></path>
<path d="M1.335 0.586 Q1.474 0.447 1.231 0.348" stroke="hsl(180.0,100%,35%)" stroke-width="0.00748"></path>
<path d="M1.335 0.586 Q1.515 0.553 1.488 0.457" stroke="hsl(180.0,100%,35%)" stroke-width="0.00036"></path>
<path d="M1.335 0.586 Q1.643 0.694 1.922 0.567" stroke="hsl(180.0,100%,35%)" stroke-width="0.00143"></path>
<path d="M1.335 0.586 Q1.117 0.181 0.279 0.198" stroke="hsl(180.0,100%,35%)" stroke-width="0.00018"></path>
<path d="M1.335 0.586 Q0.934 0.312 0.310 0.447" stroke="hsl(180.0,100%,35%)" stroke-width="0.00018"></path>
<path d="M1.335 0.586 Q1.384 0.697 1.612 0.698" stroke="hsl(180.0,100%,35%)" stroke-width="0.00036"></path>
<path d="M0.913 0.196 Q0.824 0.251 0.912 0.307" stroke="hsl(0.0,100%,35%)" stroke-width="0.00766"></path>
<path d="M0.913 0.196 Q0.593 0.070 0.279 0.198" stroke="hsl(0.0,100%,35%)" stroke-width="0.00018"></path>
<path d="M0.913 0.196 Q0.856 0.197 0.846 0.225" stroke="hsl(0.0,100%,35%)" stroke-width="0.00018"></path>
<path d="M0.913 0.196 Q0.812 0.309 1.010 0.383" stroke="hsl(0.0,100%,35%)" stroke-width="0.00018"></path>
<path d="M0.913 0.196 Q0.992 0.103 0.830 0.044" stroke="hsl(0.0,100%,35%)" stroke-width="0.00018"></path>
<path d="M0.913 0.196 Q1.048 0.235 1.155 0.178" stroke="hsl(0.0,100%,35%)" stroke-width="0.00036"></path>
<path d="M0.913 0.196 Q0.595 0.222 0.576 0.383" stroke="hsl(0.0,100%,35%)" stroke-width="0.00018"></path>
<path d="M0.913 0.196 Q0.861 0.586 1.612 0.698" stroke="hsl(0.0,100%,35%)" stroke-width="0.00018"></path>
<path d="M0.913 0.196 Q0.799 0.136 0.658 0.178" stroke="hsl(0.0,100%,35%)" stroke-width="0.00018"></path>
<path d="M1.455 0.206 Q1.403 0.243 1.465 0.277" stroke="hsl(180.0,100%,35%)" stroke-width="0.00018"></path>
<path d="M1.455 0.206 Q1.270 0.338 1.488 0.457" stroke="hsl(180.0,100%,35%)" stroke-width="0.00018"></path>
<path d="M1.455 0.206 Q1.229 0.232 1.231 0.348" stroke="hsl(180.0,100%,35%)" stroke-width="0.00018"></path>
<path d="M1.592 0.789 Q1.805 0.602 1.488 0.457" stroke="hsl(0.0,100%,35%)" stroke-width="0.00018"></path>
<path d="M1.592 0.789 Q1.670 0.358 0.846 0.225" stroke="hsl(0.0,100%,35%)" stroke-width="0.00018"></path>
<path d="M1.592 0.789 Q1.675 0.747 1.612 0.698" stroke="hsl(0.0,100%,35%)" stroke-width="0.00018"></path>
<path d="M1.592 0.789 Q1.804 0.848 1.967 0.758" stroke="hsl(0.0,100%,35%)" stroke-width="0.00018"></path>
<path d="M1.465 0.363 Q1.535 0.320 1.465 0.277" stroke="hsl(180.0,100%,35%)" stroke-width="0.00606"></path>
<path d="M1.465 0.363 Q1.229 0.378 1.206 0.497" stroke="hsl(180.0,100%,35%)" stroke-width="0.00196"></path>
<path d="M1.465 0.363 Q1.005 0.195 0.576 0.383" stroke="hsl(180.0,100%,35%)" stroke-width="0.00036"></path>
<path d="M1.465 0.363 Q1.360 0.309 1.231 0.348" stroke="hsl(180.0,100%,35%)" stroke-width="0.00445"></path>
<path d="M1.465 0.363 Q1.271 0.560 1.612 0.698" stroke="hsl(180.0,100%,35%)" stroke-width="0.00089"></path>
<path d="M1.465 0.363 Q1.210 0.109 0.658 0.178" stroke="hsl(180.0,100%,35%)" stroke-width="0.00018"></path>
<path d="M1.465 0.363 Q1.298 0.417 1.366 0.511" stroke="hsl(180.0,100%,35%)" stroke-width="0.00018"></path>
<path d="M1.465 0.363 Q1.234 0.224 0.912 0.307" stroke="hsl(180.0,100%,35%)" stroke-width="0.00018"></path>
<path d="M1.465 0.363 Q1.530 0.556 1.922 0.567" stroke="hsl(180.0,100%,35%)" stroke-width="0.00071"></path>
<path d="M1.465 0.363 Q1.402 0.415 1.488 0.457" stroke="hsl(180.0,100%,35%)" stroke-width="0.00018"></path>
<path d="M0.446 0.133 Q0.310 0.132 0.279 0.198" stroke="hsl(0.0,100%,35%)" stroke-width="0.00499"></path>
<path d="M0.446 0.133 Q-0.302 0.430 0.113 0.860" stroke="hsl(0.0,100%,35%)" stroke-width="0.00036"></path>
<path d="M0.446 0.133 Q0.708 0.504 1.488 0.457" stroke="hsl(0.0,100%,35%)" stroke-width="0.00036"></path>
<path d="M0.446 0.133 Q0.577 0.648 1.612 0.698" stroke="hsl(0.0,100%,35%)" stroke-width="0.00036"></path>
<path d="M0.446 0.133 Q0.841 0.409 1.465 0.277" stroke="hsl(0.0,100%,35%)" stroke-width="0.00018"></path>
<path d="M0.446 0.133 Q0.528 0.537 1.335 0.586" stroke="hsl(0.0,100%,35%)" stroke-width="0.00053"></path>
<path d="M0.446 0.133 Q0.528 0.371 1.010 0.383" stroke="hsl(0.0,100%,35%)" stroke-width="0.00089"></path>
<path d="M0.446 0.133 Q0.532 0.108 0.502 0.061" stroke="hsl(0.0,100%,35%)" stroke-width="0.00018"></path>
<path d="M0.446 0.133 Q0.516 0.198 0.658 0.178" stroke="hsl(0.0,100%,35%)" stroke-width="0.00018"></path>
<path d="M0.446 0.133 Q0.709 0.165 0.830 0.044" stroke="hsl(0.0,100%,35%)" stroke-width="0.00036"></path>
<path d="M1.010 0.383 Q1.322 0.421 1.465 0.277" stroke="hsl(0.0,100%,35%)" stroke-width="0.00036"></path>
<path d="M1.010 0.383 Q0.928 0.145 0.446 0.133" stroke="hsl(0.0,100%,35%)" stroke-width="0.00018"></path>
<path d="M0.305 0.086 Q0.598 0.754 1.967 0.758" stroke="hsl(0.0,100%,35%)" stroke-width="0.00018"></path>
<path d="M0.305 0.086 Q0.420 0.375 1.010 0.383" stroke="hsl(0.0,100%,35%)" stroke-width="0.00036"></path>
<path d="M0.305 0.086 Q0.728 0.650 1.922 0.567" stroke="hsl(0.0,100%,35%)" stroke-width="0.00018"></path>
<path d="M0.305 0.086 Q0.732 0.413 1.465 0.277" stroke="hsl(0.0,100%,35%)" stroke-width="0.00053"></path>
<path d="M0.305 0.086 Q0.203 0.288 0.576 0.383" stroke="hsl(0.0,100%,35%)" stroke-width="0.00036"></path>
<path d="M0.305 0.086 Q0.019 0.267 0.310 0.447" stroke="hsl(0.0,100%,35%)" stroke-width="0.00018"></path>
<path d="M0.305 0.086 Q0.599 0.508 1.488 0.457" stroke="hsl(0.0,100%,35%)" stroke-width="0.00018"></path>
<path d="M1.821 0.909 Q1.886 0.762 1.612 0.698" stroke="hsl(0.0,100%,35%)" stroke-width="0.00125"></path>
<path d="M1.821 0.909 Q1.730 0.563 1.033 0.531" stroke="hsl(0.0,100%,35%)" stroke-width="0.00036"></path>
<path d="M1.821 0.909 Q1.843 0.580 1.206 0.497" stroke="hsl(0.0,100%,35%)" stroke-width="0.00018"></path>
<path d="M1.033 0.531 Q1.146 0.549 1.206 0.497" stroke="hsl(0.0,100%,35%)" stroke-width="0.00053"></path>
<path d="M1.033 0.531 Q1.376 0.379 1.155 0.178" stroke="hsl(0.0,100%,35%)" stroke-width="0.00053"></path>
<path d="M1.033 0.531 Q1.189 0.730 1.612 0.698" stroke="hsl(0.0,100%,35%)" stroke-width="0.00071"></path>
<path d="M1.324 0.816 Q1.520 0.633 1.206 0.497" stroke="hsl(0.0,100%,35%)" stroke-width="0.00018"></path>
<path d="M1.324 0.816 Q1.563 0.814 1.612 0.698" stroke="hsl(0.0,100%,35%)" stroke-width="0.00232"></path>
<path d="M1.324 0.816 Q1.941 0.711 1.872 0.387" stroke="hsl(0.0,100%,35%)" stroke-width="0.00018"></path>
<path d="M0.087 0.247 Q0.489 0.778 1.612 0.698" stroke="hsl(0.0,100%,35%)" stroke-width="0.00107"></path>
<path d="M0.087 0.247 Q0.618 0.879 1.967 0.758" stroke="hsl(0.0,100%,35%)" stroke-width="0.00018"></path>
<path d="M0.087 0.247 Q-0.323 0.510 0.100 0.768" stroke="hsl(0.0,100%,35%)" stroke-width="0.00018"></path>
<path d="M0.087 0.247 Q0.440 0.500 1.010 0.383" stroke="hsl(0.0,100%,35%)" stroke-width="0.00125"></path>
<path d="M0.087 0.247 Q0.223 0.413 0.576 0.383" stroke="hsl(0.0,100%,35%)" stroke-width="0.00036"></path>
<path d="M0.087 0.247 Q0.676 0.427 1.155 0.178" stroke="hsl(0.0,100%,35%)" stroke-width="0.00018"></path>
<path d="M0.087 0.247 Q0.621 0.294 0.830 0.044" stroke="hsl(0.0,100%,35%)" stroke-width="0.00018"></path>
<path d="M0.087 0.247 Q0.428 0.327 0.658 0.178" stroke="hsl(0.0,100%,35%)" stroke-width="0.00053"></path>
<path d="M0.087 0.247 Q0.274 0.186 0.195 0.081" stroke="hsl(0.0,100%,35%)" stroke-width="0.00036"></path>
<path d="M0.087 0.247 Q-0.009 0.304 0.081 0.363" stroke="hsl(0.0,100%,35%)" stroke-width="0.00125"></path>
<path d="M0.087 0.247 Q0.222 0.261 0.279 0.198" stroke="hsl(0.0,100%,35%)" stroke-width="0.00036"></path>
<path d="M0.087 0.247 Q0.452 0.442 0.912 0.307" stroke="hsl(0.0,100%,35%)" stroke-width="0.00018"></path>
<path d="M0.087 0.247 Q0.259 0.184 0.172 0.086" stroke="hsl(0.0,100%,35%)" stroke-width="0.00018"></path>
<path d="M1.044 0.624 Q1.269 0.774 1.612 0.698" stroke="hsl(180.0,100%,35%)" stroke-width="0.00018"></path>
<path d="M1.044 0.624 Q1.220 0.497 1.010 0.383" stroke="hsl(180.0,100%,35%)" stroke-width="0.00018"></path>
<path d="M1.014 0.076 Q1.194 0.403 1.872 0.387" stroke="hsl(180.0,100%,35%)" stroke-width="0.00018"></path>
<path d="M1.014 0.076 Q0.815 0.506 1.612 0.698" stroke="hsl(180.0,100%,35%)" stroke-width="0.00018"></path>
<path d="M1.014 0.076 Q0.773 0.325 1.206 0.497" stroke="hsl(180.0,100%,35%)" stroke-width="0.00018"></path>
<path d="M1.044 0.640 Q1.245 0.447 0.912 0.307" stroke="hsl(180.0,100%,35%)" stroke-width="0.00018"></path>
<path d="M1.044 0.640 Q1.412 0.638 1.488 0.457" stroke="hsl(180.0,100%,35%)" stroke-width="0.00036"></path>
<path d="M1.044 0.640 Q1.282 0.783 1.612 0.698" stroke="hsl(180.0,100%,35%)" stroke-width="0.00018"></path>
<path d="M0.081 0.363 Q0.177 0.306 0.087 0.247" stroke="hsl(0.0,100%,35%)" stroke-width="0.00552"></path>
<path d="M0.081 0.363 Q0.579 0.837 1.612 0.698" stroke="hsl(0.0,100%,35%)" stroke-width="0.00018"></path>
<path d="M0.081 0.363 Q0.530 0.559 1.010 0.383" stroke="hsl(0.0,100%,35%)" stroke-width="0.00018"></path>
<path d="M1.286 0.768 Q1.505 0.798 1.612 0.698" stroke="hsl(0.0,100%,35%)" stroke-width="0.00053"></path>
<path d="M1.286 0.768 Q0.813 0.658 0.494 0.865" stroke="hsl(0.0,100%,35%)" stroke-width="0.00018"></path>
<path d="M1.286 0.768 Q1.055 0.412 0.310 0.447" stroke="hsl(0.0,100%,35%)" stroke-width="0.00018"></path>
<path d="M1.286 0.768 Q1.238 0.282 0.279 0.198" stroke="hsl(0.0,100%,35%)" stroke-width="0.00018"></path>
<path d="M1.286 0.768 Q1.468 0.463 0.912 0.307" stroke="hsl(0.0,100%,35%)" stroke-width="0.00018"></path>
<path d="M1.369 0.708 Q1.456 0.570 1.206 0.497" stroke="hsl(0.0,100%,35%)" stroke-width="0.00125"></path>
<path d="M1.369 0.708 Q1.499 0.752 1.612 0.698" stroke="hsl(0.0,100%,35%)" stroke-width="0.00143"></path>
<path d="M1.554 0.086 Q1.224 0.259 1.488 0.457" stroke="hsl(180.0,100%,35%)" stroke-width="0.00018"></path>
<path d="M1.554 0.086 Q1.183 0.153 1.231 0.348" stroke="hsl(180.0,100%,35%)" stroke-width="0.00018"></path>
<path d="M1.554 0.086 Q1.357 0.164 1.465 0.277" stroke="hsl(180.0,100%,35%)" stroke-width="0.00036"></path>
<path d="M0.983 0.412 Q1.158 0.430 1.231 0.348" stroke="hsl(180.0,100%,35%)" stroke-width="0.00018"></path>
<path d="M0.983 0.412 Q1.027 0.499 1.206 0.497" stroke="hsl(180.0,100%,35%)" stroke-width="0.00018"></path>
<path d="M0.983 0.412 Q1.032 0.345 0.912 0.307" stroke="hsl(180.0,100%,35%)" stroke-width="0.00018"></path>
</g>
<text x="0.658" y="0.164" font-size="0.028702" fill="hsl(0.0,100%,20%)">benjaminwagner</text>
<text x="1.612" y="0.664" font-size="0.067011" fill="hsl(0.0,100%,20%)">mtklein</text>
<text x="1.465" y="0.248" font-size="0.056526" fill="hsl(180.0,100%,20%)">egdaniel</text>
<text x="0.100" y="0.755" font-size="0.024881" fill="hsl(0.0,100%,20%)">rmistry</text>
<text x="0.830" y="0.029" font-size="0.030938" fill="hsl(0.0,100%,20%)">borenet</text>
<text x="1.488" y="0.439" font-size="0.037289" fill="hsl(180.0,100%,20%)">jvanverth</text>
<text x="0.279" y="0.181" font-size="0.035790" fill="hsl(0.0,100%,20%)">kjlubick</text>
<text x="1.155" y="0.154" font-size="0.048452" fill="hsl(0.0,100%,20%)">herb</text>
<text x="0.113" y="0.851" font-size="0.017457" fill="hsl(0.0,100%,20%)">jcgregorio</text>
<text x="0.576" y="0.359" font-size="0.046445" fill="hsl(0.0,100%,20%)">reed</text>
<text x="0.912" y="0.283" font-size="0.047958" fill="hsl(0.0,100%,20%)">bungeman</text>
<text x="1.967" y="0.727" font-size="0.061760" fill="hsl(0.0,100%,20%)">brianosman</text>
<text x="1.206" y="0.464" font-size="0.065611" fill="hsl(180.0,100%,20%)">bsalomon</text>
<text x="0.601" y="0.057" font-size="0.007868" fill="hsl(0.0,100%,20%)">stephana</text>
<text x="0.494" y="0.859" font-size="0.010911" fill="hsl(0.0,100%,20%)">hcm</text>
<text x="1.231" y="0.319" font-size="0.058310" fill="hsl(180.0,100%,20%)">robertphillips</text>
<text x="0.649" y="0.035" font-size="0.004364" fill="hsl(0.0,100%,20%)">iannucci</text>
<text x="0.996" y="0.033" font-size="0.002182" fill="hsl(0.0,100%,20%)">ehmaldonado</text>
<text x="1.922" y="0.552" font-size="0.031320" fill="hsl(0.0,100%,20%)">ethannicholas</text>
<text x="1.872" y="0.368" font-size="0.037985" fill="hsl(180.0,100%,20%)">michaelludwig</text>
<text x="0.310" y="0.428" font-size="0.036710" fill="hsl(0.0,100%,20%)">fmalita</text>
<text x="0.846" y="0.208" font-size="0.034296" fill="hsl(0.0,100%,20%)">halcanary</text>
<text x="1.335" y="0.571" font-size="0.030628" fill="hsl(180.0,100%,20%)">csmartdalton</text>
<text x="0.987" y="0.220" font-size="0.005774" fill="hsl(0.0,100%,20%)">drott</text>
<text x="0.913" y="0.186" font-size="0.018516" fill="hsl(0.0,100%,20%)">jlavrova</text>
<text x="0.886" y="1.285" font-size="0.002182" fill="hsl(0.0,100%,20%)">etienneb</text>
<text x="1.455" y="0.204" font-size="0.004880" fill="hsl(180.0,100%,20%)">ccameron</text>
<text x="1.592" y="0.786" font-size="0.004880" fill="hsl(0.0,100%,20%)">chinmaygarde</text>
<text x="1.706" y="0.491" font-size="0.002182" fill="hsl(180.0,100%,20%)">mjk</text>
<text x="1.465" y="0.353" font-size="0.020702" fill="hsl(180.0,100%,20%)">senorblanco</text>
<text x="0.446" y="0.125" font-size="0.016475" fill="hsl(0.0,100%,20%)">nifong</text>
<text x="1.010" y="0.376" font-size="0.013093" fill="hsl(0.0,100%,20%)">djsollen</text>
<text x="0.305" y="0.081" font-size="0.008997" fill="hsl(0.0,100%,20%)">stani</text>
<text x="1.821" y="0.906" font-size="0.007237" fill="hsl(0.0,100%,20%)">enne</text>
<text x="1.033" y="0.525" font-size="0.011547" fill="hsl(0.0,100%,20%)">khushalsagar</text>
<text x="1.829" y="0.606" font-size="0.002182" fill="hsl(0.0,100%,20%)">backer</text>
<text x="0.184" y="0.514" font-size="0.003780" fill="hsl(0.0,100%,20%)">isabelren</text>
<text x="0.225" y="0.387" font-size="0.004364" fill="hsl(0.0,100%,20%)">aparchur</text>
<text x="1.324" y="0.812" font-size="0.008729" fill="hsl(0.0,100%,20%)">gkaiser</text>
<text x="0.087" y="0.237" font-size="0.020237" fill="hsl(0.0,100%,20%)">scroggo</text>
<text x="1.044" y="0.622" font-size="0.003780" fill="hsl(180.0,100%,20%)">tdenniston</text>
<text x="0.385" y="0.242" font-size="0.003086" fill="hsl(0.0,100%,20%)">lovisolo</text>
<text x="1.014" y="0.074" font-size="0.003780" fill="hsl(180.0,100%,20%)">liyuqian</text>
<text x="1.044" y="0.638" font-size="0.004364" fill="hsl(180.0,100%,20%)">martin</text>
<text x="1.233" y="0.743" font-size="0.002182" fill="hsl(0.0,100%,20%)">thakis</text>
<text x="1.268" y="0.713" font-size="0.002182" fill="hsl(0.0,100%,20%)">jimbankoski</text>
<text x="1.410" y="0.824" font-size="0.002182" fill="hsl(0.0,100%,20%)">lsalzman</text>
<text x="0.502" y="0.060" font-size="0.002182" fill="hsl(0.0,100%,20%)">pirama</text>
<text x="0.081" y="0.356" font-size="0.013973" fill="hsl(0.0,100%,20%)">nigeltao</text>
<text x="1.286" y="0.765" font-size="0.005774" fill="hsl(0.0,100%,20%)">nihohit</text>
<text x="1.369" y="0.704" font-size="0.008452" fill="hsl(0.0,100%,20%)">rosasco</text>
<text x="0.195" y="0.080" font-size="0.003086" fill="hsl(0.0,100%,20%)">chz</text>
<text x="0.172" y="0.085" font-size="0.002182" fill="hsl(0.0,100%,20%)">jgaillard</text>
<text x="1.366" y="0.510" font-size="0.002182" fill="hsl(180.0,100%,20%)">cwallez</text>
<text x="1.554" y="0.084" font-size="0.004364" fill="hsl(180.0,100%,20%)">sergeyu</text>
<text x="0.983" y="0.410" font-size="0.003780" fill="hsl(180.0,100%,20%)">thomasanderson</text>
</svg>
