<svg width="4000" height="2000" viewBox="-0.025 -0.025 2.05 1.05" xmlns="http://www.w3.org/2000/svg">
  <style>
    path {
      fill: none;
      stroke-linecap: round;
      stroke-opacity: 0.4;
    }

    text {
      text-anchor: middle;
      alignment-baseline: hanging;
    }
  </style>
  <g opacity="0.4">
<path d="M1.088 0.998 Q1.742 0.697 1.297 0.311" stroke="hsl(0.0,100%,35%)" stroke-width="0.00259"></path>
<path d="M1.088 0.998 Q1.065 0.901 0.870 0.891" stroke="hsl(0.0,100%,35%)" stroke-width="0.00185"></path>
<path d="M1.088 0.998 Q1.236 0.542 0.378 0.369" stroke="hsl(0.0,100%,35%)" stroke-width="0.00111"></path>
<path d="M1.088 0.998 Q1.336 1.091 1.572 0.990" stroke="hsl(0.0,100%,35%)" stroke-width="0.00111"></path>
<path d="M1.088 0.998 Q1.417 0.710 0.927 0.486" stroke="hsl(0.0,100%,35%)" stroke-width="0.00407"></path>
<path d="M1.088 0.998 Q1.558 0.531 0.749 0.199" stroke="hsl(0.0,100%,35%)" stroke-width="0.00074"></path>
<path d="M1.088 0.998 Q1.204 1.003 1.238 0.947" stroke="hsl(0.0,100%,35%)" stroke-width="0.00037"></path>
<path d="M1.088 0.998 Q1.513 0.641 0.909 0.355" stroke="hsl(0.0,100%,35%)" stroke-width="0.00111"></path>
<path d="M1.297 0.311 Q0.759 0.617 1.238 0.947" stroke="hsl(0.0,100%,35%)" stroke-width="0.01333"></path>
<path d="M1.297 0.311 Q1.140 0.344 1.171 0.428" stroke="hsl(0.0,100%,35%)" stroke-width="0.01962"></path>
<path d="M1.297 0.311 Q0.791 0.156 0.378 0.369" stroke="hsl(0.0,100%,35%)" stroke-width="0.00259"></path>
<path d="M1.297 0.311 Q1.113 0.146 0.749 0.199" stroke="hsl(0.0,100%,35%)" stroke-width="0.00333"></path>
<path d="M1.297 0.311 Q0.813 0.511 1.096 0.791" stroke="hsl(0.0,100%,35%)" stroke-width="0.00222"></path>
<path d="M1.297 0.311 Q0.892 0.706 1.572 0.990" stroke="hsl(0.0,100%,35%)" stroke-width="0.00037"></path>
<path d="M1.297 0.311 Q1.022 0.572 1.469 0.763" stroke="hsl(0.0,100%,35%)" stroke-width="0.00037"></path>
<path d="M1.297 0.311 Q0.620 0.516 0.870 0.891" stroke="hsl(0.0,100%,35%)" stroke-width="0.00370"></path>
<path d="M1.297 0.311 Q0.972 0.325 0.927 0.486" stroke="hsl(0.0,100%,35%)" stroke-width="0.00370"></path>
<path d="M1.297 0.311 Q1.068 0.256 0.909 0.355" stroke="hsl(0.0,100%,35%)" stroke-width="0.00592"></path>
<path d="M1.297 0.311 Q0.643 0.613 1.088 0.998" stroke="hsl(0.0,100%,35%)" stroke-width="0.00185"></path>
<path d="M0.870 0.891 Q1.142 1.080 1.572 0.990" stroke="hsl(0.0,100%,35%)" stroke-width="0.01148"></path>
<path d="M0.870 0.891 Q1.009 0.992 1.238 0.947" stroke="hsl(0.0,100%,35%)" stroke-width="0.06072"></path>
<path d="M0.870 0.891 Q1.222 0.700 0.927 0.486" stroke="hsl(0.0,100%,35%)" stroke-width="0.00518"></path>
<path d="M0.870 0.891 Q1.318 0.631 0.909 0.355" stroke="hsl(0.0,100%,35%)" stroke-width="0.00666"></path>
<path d="M0.870 0.891 Q1.042 0.531 0.378 0.369" stroke="hsl(0.0,100%,35%)" stroke-width="0.01000"></path>
<path d="M0.870 0.891 Q1.547 0.686 1.297 0.311" stroke="hsl(0.0,100%,35%)" stroke-width="0.01111"></path>
<path d="M0.870 0.891 Q1.363 0.520 0.749 0.199" stroke="hsl(0.0,100%,35%)" stroke-width="0.00926"></path>
<path d="M0.870 0.891 Q1.063 0.886 1.096 0.791" stroke="hsl(0.0,100%,35%)" stroke-width="0.00481"></path>
<path d="M0.870 0.891 Q1.272 0.947 1.469 0.763" stroke="hsl(0.0,100%,35%)" stroke-width="0.00222"></path>
<path d="M0.870 0.891 Q0.893 0.988 1.088 0.998" stroke="hsl(0.0,100%,35%)" stroke-width="0.01259"></path>
<path d="M0.870 0.891 Q1.391 0.719 1.171 0.428" stroke="hsl(0.0,100%,35%)" stroke-width="0.00444"></path>
<path d="M0.870 0.891 Q1.050 0.791 0.896 0.682" stroke="hsl(0.0,100%,35%)" stroke-width="0.00185"></path>
<path d="M0.870 0.891 Q0.773 0.754 0.487 0.772" stroke="hsl(0.0,100%,35%)" stroke-width="0.00037"></path>
<path d="M0.870 0.891 Q0.977 0.690 0.610 0.594" stroke="hsl(0.0,100%,35%)" stroke-width="0.00148"></path>
<path d="M0.870 0.891 Q0.678 0.671 0.207 0.717" stroke="hsl(0.0,100%,35%)" stroke-width="0.00037"></path>
<path d="M0.870 0.891 Q1.456 0.888 1.579 0.601" stroke="hsl(0.0,100%,35%)" stroke-width="0.00037"></path>
<path d="M0.870 0.891 Q1.474 0.448 0.743 0.056" stroke="hsl(0.0,100%,35%)" stroke-width="0.00111"></path>
<path d="M0.870 0.891 Q0.760 0.595 0.158 0.584" stroke="hsl(0.0,100%,35%)" stroke-width="0.00037"></path>
<path d="M0.870 0.891 Q1.472 0.966 1.752 0.689" stroke="hsl(0.0,100%,35%)" stroke-width="0.00037"></path>
<path d="M0.870 0.891 Q1.577 0.507 0.984 0.079" stroke="hsl(0.0,100%,35%)" stroke-width="0.00074"></path>
<path d="M0.378 0.369 Q0.727 0.557 1.171 0.428" stroke="hsl(0.0,100%,35%)" stroke-width="0.00370"></path>
<path d="M0.378 0.369 Q0.654 0.468 0.909 0.355" stroke="hsl(0.0,100%,35%)" stroke-width="0.00111"></path>
<path d="M0.378 0.369 Q0.883 0.524 1.297 0.311" stroke="hsl(0.0,100%,35%)" stroke-width="0.00370"></path>
<path d="M0.378 0.369 Q0.197 0.368 0.155 0.456" stroke="hsl(0.0,100%,35%)" stroke-width="0.00037"></path>
<path d="M0.378 0.369 Q0.207 0.728 0.870 0.891" stroke="hsl(0.0,100%,35%)" stroke-width="0.00111"></path>
<path d="M0.378 0.369 Q0.699 0.358 0.749 0.199" stroke="hsl(0.0,100%,35%)" stroke-width="0.00518"></path>
<path d="M0.378 0.369 Q0.345 0.830 1.238 0.947" stroke="hsl(0.0,100%,35%)" stroke-width="0.00111"></path>
<path d="M0.378 0.369 Q0.558 0.537 0.927 0.486" stroke="hsl(0.0,100%,35%)" stroke-width="0.00111"></path>
<path d="M0.378 0.369 Q0.478 0.918 1.572 0.990" stroke="hsl(0.0,100%,35%)" stroke-width="0.00037"></path>
<path d="M0.378 0.369 Q0.314 0.528 0.610 0.594" stroke="hsl(0.0,100%,35%)" stroke-width="0.00037"></path>
<path d="M1.572 0.990 Q1.823 0.965 1.831 0.837" stroke="hsl(180.0,100%,35%)" stroke-width="0.00222"></path>
<path d="M1.572 0.990 Q1.970 0.935 1.951 0.729" stroke="hsl(180.0,100%,35%)" stroke-width="0.00926"></path>
<path d="M1.572 0.990 Q1.439 0.902 1.238 0.947" stroke="hsl(180.0,100%,35%)" stroke-width="0.01851"></path>
<path d="M1.572 0.990 Q1.702 0.856 1.469 0.763" stroke="hsl(180.0,100%,35%)" stroke-width="0.02184"></path>
<path d="M1.572 0.990 Q1.480 0.701 0.896 0.682" stroke="hsl(180.0,100%,35%)" stroke-width="0.00111"></path>
<path d="M1.572 0.990 Q1.472 0.440 0.378 0.369" stroke="hsl(180.0,100%,35%)" stroke-width="0.00703"></path>
<path d="M1.572 0.990 Q2.007 0.417 0.984 0.079" stroke="hsl(180.0,100%,35%)" stroke-width="0.00111"></path>
<path d="M1.572 0.990 Q1.301 0.800 0.870 0.891" stroke="hsl(180.0,100%,35%)" stroke-width="0.00703"></path>
<path d="M1.572 0.990 Q1.652 0.609 0.927 0.486" stroke="hsl(180.0,100%,35%)" stroke-width="0.00185"></path>
<path d="M1.572 0.990 Q1.190 0.504 0.158 0.584" stroke="hsl(180.0,100%,35%)" stroke-width="0.00074"></path>
<path d="M1.572 0.990 Q1.493 0.795 1.096 0.791" stroke="hsl(180.0,100%,35%)" stroke-width="0.00111"></path>
<path d="M1.572 0.990 Q1.977 0.596 1.297 0.311" stroke="hsl(180.0,100%,35%)" stroke-width="0.00037"></path>
<path d="M1.572 0.990 Q1.323 0.897 1.088 0.998" stroke="hsl(180.0,100%,35%)" stroke-width="0.00037"></path>
<path d="M1.572 0.990 Q1.775 0.906 1.655 0.788" stroke="hsl(180.0,100%,35%)" stroke-width="0.00074"></path>
<path d="M1.572 0.990 Q1.821 0.629 1.171 0.428" stroke="hsl(180.0,100%,35%)" stroke-width="0.00111"></path>
<path d="M1.572 0.990 Q1.204 0.664 0.487 0.772" stroke="hsl(180.0,100%,35%)" stroke-width="0.00037"></path>
<path d="M1.572 0.990 Q1.973 0.843 1.776 0.615" stroke="hsl(180.0,100%,35%)" stroke-width="0.00185"></path>
<path d="M1.572 0.990 Q1.904 0.357 0.743 0.056" stroke="hsl(180.0,100%,35%)" stroke-width="0.00185"></path>
<path d="M1.572 0.990 Q1.793 0.430 0.749 0.199" stroke="hsl(180.0,100%,35%)" stroke-width="0.00185"></path>
<path d="M1.572 0.990 Q1.886 0.797 1.579 0.601" stroke="hsl(180.0,100%,35%)" stroke-width="0.00037"></path>
<path d="M1.572 0.990 Q1.408 0.599 0.610 0.594" stroke="hsl(180.0,100%,35%)" stroke-width="0.00037"></path>
<path d="M0.927 0.486 Q0.714 0.779 1.238 0.947" stroke="hsl(0.0,100%,35%)" stroke-width="0.00666"></path>
<path d="M0.927 0.486 Q0.746 0.318 0.378 0.369" stroke="hsl(0.0,100%,35%)" stroke-width="0.00444"></path>
<path d="M0.927 0.486 Q1.095 0.506 1.171 0.428" stroke="hsl(0.0,100%,35%)" stroke-width="0.00296"></path>
<path d="M0.927 0.486 Q1.252 0.473 1.297 0.311" stroke="hsl(0.0,100%,35%)" stroke-width="0.01259"></path>
<path d="M0.927 0.486 Q1.248 0.721 1.776 0.615" stroke="hsl(0.0,100%,35%)" stroke-width="0.00074"></path>
<path d="M0.927 0.486 Q0.597 0.774 1.088 0.998" stroke="hsl(0.0,100%,35%)" stroke-width="0.00740"></path>
<path d="M0.927 0.486 Q0.977 0.733 1.469 0.763" stroke="hsl(0.0,100%,35%)" stroke-width="0.00148"></path>
<path d="M0.927 0.486 Q0.575 0.677 0.870 0.891" stroke="hsl(0.0,100%,35%)" stroke-width="0.00222"></path>
<path d="M0.927 0.486 Q0.846 0.867 1.572 0.990" stroke="hsl(0.0,100%,35%)" stroke-width="0.00111"></path>
<path d="M0.927 0.486 Q1.068 0.307 0.749 0.199" stroke="hsl(0.0,100%,35%)" stroke-width="0.00296"></path>
<path d="M0.927 0.486 Q1.023 0.417 0.909 0.355" stroke="hsl(0.0,100%,35%)" stroke-width="0.00296"></path>
<path d="M0.927 0.486 Q0.768 0.672 1.096 0.791" stroke="hsl(0.0,100%,35%)" stroke-width="0.00074"></path>
<path d="M0.927 0.486 Q0.464 0.381 0.158 0.584" stroke="hsl(0.0,100%,35%)" stroke-width="0.00037"></path>
<path d="M0.749 0.199 Q0.428 0.210 0.378 0.369" stroke="hsl(0.0,100%,35%)" stroke-width="0.00777"></path>
<path d="M0.749 0.199 Q0.608 0.378 0.927 0.486" stroke="hsl(0.0,100%,35%)" stroke-width="0.00185"></path>
<path d="M0.749 0.199 Q0.449 0.564 1.096 0.791" stroke="hsl(0.0,100%,35%)" stroke-width="0.00037"></path>
<path d="M0.749 0.199 Q0.777 0.398 1.171 0.428" stroke="hsl(0.0,100%,35%)" stroke-width="0.00111"></path>
<path d="M0.749 0.199 Q0.528 0.759 1.572 0.990" stroke="hsl(0.0,100%,35%)" stroke-width="0.00111"></path>
<path d="M0.749 0.199 Q0.933 0.365 1.297 0.311" stroke="hsl(0.0,100%,35%)" stroke-width="0.00037"></path>
<path d="M0.749 0.199 Q0.363 0.369 0.610 0.594" stroke="hsl(0.0,100%,35%)" stroke-width="0.00037"></path>
<path d="M0.749 0.199 Q0.395 0.671 1.238 0.947" stroke="hsl(0.0,100%,35%)" stroke-width="0.00037"></path>
<path d="M0.749 0.199 Q0.704 0.309 0.909 0.355" stroke="hsl(0.0,100%,35%)" stroke-width="0.00037"></path>
<path d="M0.749 0.199 Q0.257 0.569 0.870 0.891" stroke="hsl(0.0,100%,35%)" stroke-width="0.00037"></path>
<path d="M1.238 0.947 Q1.371 1.035 1.572 0.990" stroke="hsl(0.0,100%,35%)" stroke-width="0.00481"></path>
<path d="M1.238 0.947 Q1.270 0.486 0.378 0.369" stroke="hsl(0.0,100%,35%)" stroke-width="0.00333"></path>
<path d="M1.238 0.947 Q1.451 0.654 0.927 0.486" stroke="hsl(0.0,100%,35%)" stroke-width="0.00148"></path>
<path d="M1.238 0.947 Q1.501 0.901 1.469 0.763" stroke="hsl(0.0,100%,35%)" stroke-width="0.00185"></path>
<path d="M1.238 0.947 Q1.099 0.845 0.870 0.891" stroke="hsl(0.0,100%,35%)" stroke-width="0.01370"></path>
<path d="M1.238 0.947 Q1.089 0.485 0.155 0.456" stroke="hsl(0.0,100%,35%)" stroke-width="0.00037"></path>
<path d="M1.238 0.947 Q1.592 0.475 0.749 0.199" stroke="hsl(0.0,100%,35%)" stroke-width="0.00037"></path>
<path d="M1.238 0.947 Q1.776 0.641 1.297 0.311" stroke="hsl(0.0,100%,35%)" stroke-width="0.00407"></path>
<path d="M1.238 0.947 Q1.620 0.674 1.171 0.428" stroke="hsl(0.0,100%,35%)" stroke-width="0.00148"></path>
<path d="M1.238 0.947 Q1.703 0.403 0.743 0.056" stroke="hsl(0.0,100%,35%)" stroke-width="0.00037"></path>
<path d="M1.238 0.947 Q1.292 0.841 1.096 0.791" stroke="hsl(0.0,100%,35%)" stroke-width="0.00037"></path>
<path d="M0.909 0.355 Q1.138 0.411 1.297 0.311" stroke="hsl(0.0,100%,35%)" stroke-width="0.00555"></path>
<path d="M0.909 0.355 Q0.813 0.424 0.927 0.486" stroke="hsl(0.0,100%,35%)" stroke-width="0.00259"></path>
<path d="M0.909 0.355 Q0.461 0.615 0.870 0.891" stroke="hsl(0.0,100%,35%)" stroke-width="0.00259"></path>
<path d="M0.909 0.355 Q0.733 0.805 1.572 0.990" stroke="hsl(0.0,100%,35%)" stroke-width="0.00037"></path>
<path d="M0.909 0.355 Q0.633 0.256 0.378 0.369" stroke="hsl(0.0,100%,35%)" stroke-width="0.00222"></path>
<path d="M0.909 0.355 Q0.982 0.444 1.171 0.428" stroke="hsl(0.0,100%,35%)" stroke-width="0.00185"></path>
<path d="M0.909 0.355 Q0.600 0.717 1.238 0.947" stroke="hsl(0.0,100%,35%)" stroke-width="0.00074"></path>
<path d="M1.469 0.763 Q1.206 0.809 1.238 0.947" stroke="hsl(180.0,100%,35%)" stroke-width="0.01037"></path>
<path d="M1.469 0.763 Q1.339 0.897 1.572 0.990" stroke="hsl(180.0,100%,35%)" stroke-width="0.00518"></path>
<path d="M1.469 0.763 Q1.068 0.707 0.870 0.891" stroke="hsl(180.0,100%,35%)" stroke-width="0.00185"></path>
<path d="M1.469 0.763 Q1.741 0.750 1.776 0.615" stroke="hsl(180.0,100%,35%)" stroke-width="0.00296"></path>
<path d="M1.469 0.763 Q1.261 0.702 1.096 0.791" stroke="hsl(180.0,100%,35%)" stroke-width="0.00074"></path>
<path d="M1.469 0.763 Q0.957 0.411 0.158 0.584" stroke="hsl(180.0,100%,35%)" stroke-width="0.00037"></path>
<path d="M1.469 0.763 Q1.058 0.347 0.155 0.456" stroke="hsl(180.0,100%,35%)" stroke-width="0.00037"></path>
<path d="M1.469 0.763 Q1.239 0.347 0.378 0.369" stroke="hsl(180.0,100%,35%)" stroke-width="0.00037"></path>
<path d="M1.469 0.763 Q1.591 0.872 1.831 0.837" stroke="hsl(180.0,100%,35%)" stroke-width="0.00037"></path>
<path d="M1.469 0.763 Q1.419 0.516 0.927 0.486" stroke="hsl(180.0,100%,35%)" stroke-width="0.00037"></path>
<path d="M1.171 0.428 Q0.789 0.701 1.238 0.947" stroke="hsl(0.0,100%,35%)" stroke-width="0.00185"></path>
<path d="M1.171 0.428 Q0.540 0.303 0.158 0.584" stroke="hsl(0.0,100%,35%)" stroke-width="0.00037"></path>
<path d="M1.171 0.428 Q1.002 0.408 0.927 0.486" stroke="hsl(0.0,100%,35%)" stroke-width="0.00185"></path>
<path d="M1.171 0.428 Q0.821 0.240 0.378 0.369" stroke="hsl(0.0,100%,35%)" stroke-width="0.00629"></path>
<path d="M1.171 0.428 Q1.327 0.395 1.297 0.311" stroke="hsl(0.0,100%,35%)" stroke-width="0.01259"></path>
<path d="M1.171 0.428 Q1.143 0.229 0.749 0.199" stroke="hsl(0.0,100%,35%)" stroke-width="0.01407"></path>
<path d="M1.171 0.428 Q0.922 0.789 1.572 0.990" stroke="hsl(0.0,100%,35%)" stroke-width="0.00074"></path>
<path d="M0.743 0.056 Q0.845 0.116 0.984 0.079" stroke="hsl(180.0,100%,35%)" stroke-width="0.00296"></path>
<path d="M0.743 0.056 Q0.410 0.689 1.572 0.990" stroke="hsl(180.0,100%,35%)" stroke-width="0.00296"></path>
<path d="M0.743 0.056 Q0.278 0.601 1.238 0.947" stroke="hsl(180.0,100%,35%)" stroke-width="0.00074"></path>
<path d="M0.743 0.056 Q0.659 0.328 1.171 0.428" stroke="hsl(180.0,100%,35%)" stroke-width="0.00037"></path>
<path d="M0.743 0.056 Q0.541 0.555 1.469 0.763" stroke="hsl(180.0,100%,35%)" stroke-width="0.00185"></path>
<path d="M0.743 0.056 Q0.139 0.499 0.870 0.891" stroke="hsl(180.0,100%,35%)" stroke-width="0.00037"></path>
<path d="M0.743 0.056 Q-0.126 0.338 0.233 0.824" stroke="hsl(180.0,100%,35%)" stroke-width="0.00037"></path>
<path d="M1.096 0.791 Q1.042 0.897 1.238 0.947" stroke="hsl(0.0,100%,35%)" stroke-width="0.00740"></path>
<path d="M1.096 0.791 Q1.175 0.985 1.572 0.990" stroke="hsl(0.0,100%,35%)" stroke-width="0.00111"></path>
<path d="M1.096 0.791 Q1.255 0.604 0.927 0.486" stroke="hsl(0.0,100%,35%)" stroke-width="0.00296"></path>
<path d="M1.096 0.791 Q1.424 0.624 1.171 0.428" stroke="hsl(0.0,100%,35%)" stroke-width="0.00037"></path>
<path d="M1.096 0.791 Q1.305 0.852 1.469 0.763" stroke="hsl(0.0,100%,35%)" stroke-width="0.00074"></path>
<path d="M1.096 0.791 Q0.904 0.795 0.870 0.891" stroke="hsl(0.0,100%,35%)" stroke-width="0.00148"></path>
<path d="M0.576 0.506 Q0.416 0.757 0.870 0.891" stroke="hsl(0.0,100%,35%)" stroke-width="0.00037"></path>
<path d="M0.576 0.506 Q0.587 0.398 0.378 0.369" stroke="hsl(0.0,100%,35%)" stroke-width="0.00444"></path>
<path d="M0.576 0.506 Q0.864 0.497 0.909 0.355" stroke="hsl(0.0,100%,35%)" stroke-width="0.00037"></path>
<path d="M0.576 0.506 Q0.936 0.586 1.171 0.428" stroke="hsl(0.0,100%,35%)" stroke-width="0.00037"></path>
<path d="M1.776 0.615 Q1.241 0.674 1.238 0.947" stroke="hsl(180.0,100%,35%)" stroke-width="0.00037"></path>
<path d="M1.776 0.615 Q1.374 0.762 1.572 0.990" stroke="hsl(180.0,100%,35%)" stroke-width="0.00074"></path>
<path d="M1.776 0.615 Q1.504 0.628 1.469 0.763" stroke="hsl(180.0,100%,35%)" stroke-width="0.00185"></path>
<path d="M0.158 0.584 Q0.376 0.679 0.610 0.594" stroke="hsl(0.0,100%,35%)" stroke-width="0.00074"></path>
<path d="M0.158 0.584 Q0.076 0.660 0.207 0.717" stroke="hsl(0.0,100%,35%)" stroke-width="0.00111"></path>
<path d="M0.158 0.584 Q0.540 1.070 1.572 0.990" stroke="hsl(0.0,100%,35%)" stroke-width="0.00074"></path>
<path d="M0.158 0.584 Q0.269 0.880 0.870 0.891" stroke="hsl(0.0,100%,35%)" stroke-width="0.00111"></path>
<path d="M0.158 0.584 Q0.945 0.675 1.297 0.311" stroke="hsl(0.0,100%,35%)" stroke-width="0.00074"></path>
<path d="M0.158 0.584 Q0.670 0.936 1.469 0.763" stroke="hsl(0.0,100%,35%)" stroke-width="0.00037"></path>
<path d="M1.831 0.837 Q1.579 0.862 1.572 0.990" stroke="hsl(180.0,100%,35%)" stroke-width="0.00444"></path>
<path d="M1.831 0.837 Q1.710 0.728 1.469 0.763" stroke="hsl(180.0,100%,35%)" stroke-width="0.00852"></path>
<path d="M1.831 0.837 Q1.447 0.774 1.238 0.947" stroke="hsl(180.0,100%,35%)" stroke-width="0.00111"></path>
<path d="M1.831 0.837 Q1.479 0.312 0.378 0.369" stroke="hsl(180.0,100%,35%)" stroke-width="0.00037"></path>
<path d="M1.831 0.837 Q1.981 0.715 1.776 0.615" stroke="hsl(180.0,100%,35%)" stroke-width="0.00037"></path>
<path d="M0.610 0.594 Q1.023 0.623 1.171 0.428" stroke="hsl(0.0,100%,35%)" stroke-width="0.00148"></path>
<path d="M0.610 0.594 Q0.503 0.794 0.870 0.891" stroke="hsl(0.0,100%,35%)" stroke-width="0.00148"></path>
<path d="M0.610 0.594 Q0.674 0.435 0.378 0.369" stroke="hsl(0.0,100%,35%)" stroke-width="0.00148"></path>
<path d="M0.610 0.594 Q0.392 0.498 0.158 0.584" stroke="hsl(0.0,100%,35%)" stroke-width="0.00148"></path>
<path d="M0.610 0.594 Q0.995 0.424 0.749 0.199" stroke="hsl(0.0,100%,35%)" stroke-width="0.00037"></path>
<path d="M0.610 0.594 Q0.774 0.984 1.572 0.990" stroke="hsl(0.0,100%,35%)" stroke-width="0.00037"></path>
<path d="M0.984 0.079 Q0.955 0.258 1.297 0.311" stroke="hsl(180.0,100%,35%)" stroke-width="0.00037"></path>
<path d="M0.984 0.079 Q0.882 0.019 0.743 0.056" stroke="hsl(180.0,100%,35%)" stroke-width="0.00185"></path>
<path d="M0.984 0.079 Q0.549 0.652 1.572 0.990" stroke="hsl(180.0,100%,35%)" stroke-width="0.00185"></path>
<path d="M0.233 0.824 Q0.679 0.886 0.896 0.682" stroke="hsl(180.0,100%,35%)" stroke-width="0.00111"></path>
<path d="M0.233 0.824 Q0.328 0.822 0.344 0.775" stroke="hsl(180.0,100%,35%)" stroke-width="0.00333"></path>
<path d="M0.233 0.824 Q0.770 1.175 1.572 0.990" stroke="hsl(180.0,100%,35%)" stroke-width="0.00037"></path>
<path d="M0.233 0.824 Q0.402 0.849 0.487 0.772" stroke="hsl(180.0,100%,35%)" stroke-width="0.00074"></path>
<path d="M0.623 0.313 Q0.456 0.292 0.378 0.369" stroke="hsl(0.0,100%,35%)" stroke-width="0.00111"></path>
<path d="M0.623 0.313 Q0.961 0.447 1.297 0.311" stroke="hsl(0.0,100%,35%)" stroke-width="0.00037"></path>
<path d="M0.623 0.313 Q0.732 0.391 0.909 0.355" stroke="hsl(0.0,100%,35%)" stroke-width="0.00037"></path>
<path d="M1.752 0.689 Q1.736 0.611 1.579 0.601" stroke="hsl(180.0,100%,35%)" stroke-width="0.00037"></path>
<path d="M1.752 0.689 Q1.422 0.804 1.572 0.990" stroke="hsl(180.0,100%,35%)" stroke-width="0.00037"></path>
<path d="M1.752 0.689 Q1.671 0.442 1.171 0.428" stroke="hsl(180.0,100%,35%)" stroke-width="0.00037"></path>
<path d="M1.951 0.729 Q1.420 0.695 1.238 0.947" stroke="hsl(180.0,100%,35%)" stroke-width="0.00111"></path>
<path d="M1.951 0.729 Q1.553 0.783 1.572 0.990" stroke="hsl(180.0,100%,35%)" stroke-width="0.01740"></path>
<path d="M1.951 0.729 Q1.281 0.593 0.870 0.891" stroke="hsl(180.0,100%,35%)" stroke-width="0.00259"></path>
<path d="M1.951 0.729 Q1.461 0.494 0.896 0.682" stroke="hsl(180.0,100%,35%)" stroke-width="0.00037"></path>
<path d="M1.951 0.729 Q1.633 0.403 0.927 0.486" stroke="hsl(180.0,100%,35%)" stroke-width="0.00037"></path>
<path d="M1.951 0.729 Q1.184 0.457 0.487 0.772" stroke="hsl(180.0,100%,35%)" stroke-width="0.00037"></path>
<path d="M1.152 0.546 Q1.007 0.852 1.572 0.990" stroke="hsl(0.0,100%,35%)" stroke-width="0.00037"></path>
<path d="M1.152 0.546 Q1.412 0.458 1.297 0.311" stroke="hsl(0.0,100%,35%)" stroke-width="0.00074"></path>
<path d="M1.152 0.546 Q0.874 0.764 1.238 0.947" stroke="hsl(0.0,100%,35%)" stroke-width="0.00037"></path>
<path d="M0.522 0.219 Q0.298 0.726 1.238 0.947" stroke="hsl(180.0,100%,35%)" stroke-width="0.00185"></path>
<path d="M0.522 0.219 Q0.763 0.182 0.743 0.056" stroke="hsl(180.0,100%,35%)" stroke-width="0.00259"></path>
<path d="M0.522 0.219 Q0.561 0.680 1.469 0.763" stroke="hsl(180.0,100%,35%)" stroke-width="0.00148"></path>
<path d="M1.295 0.722 Q0.837 0.425 0.158 0.584" stroke="hsl(0.0,100%,35%)" stroke-width="0.00074"></path>
<path d="M1.295 0.722 Q1.087 0.823 1.238 0.947" stroke="hsl(0.0,100%,35%)" stroke-width="0.00037"></path>
<path d="M1.295 0.722 Q1.141 0.717 1.096 0.791" stroke="hsl(0.0,100%,35%)" stroke-width="0.00037"></path>
<path d="M0.369 0.456 Q0.443 0.414 0.378 0.369" stroke="hsl(0.0,100%,35%)" stroke-width="0.00185"></path>
<path d="M0.369 0.456 Q0.948 0.569 1.297 0.311" stroke="hsl(0.0,100%,35%)" stroke-width="0.00111"></path>
<path d="M0.369 0.456 Q0.792 0.602 1.171 0.428" stroke="hsl(0.0,100%,35%)" stroke-width="0.00037"></path>
<path d="M1.340 0.528 Q1.167 0.425 0.927 0.486" stroke="hsl(0.0,100%,35%)" stroke-width="0.00037"></path>
<path d="M1.340 0.528 Q0.987 0.256 0.378 0.369" stroke="hsl(0.0,100%,35%)" stroke-width="0.00037"></path>
<path d="M1.340 0.528 Q1.492 0.411 1.297 0.311" stroke="hsl(0.0,100%,35%)" stroke-width="0.00111"></path>
</g>
<text x="1.088" y="0.981" font-size="0.034482" fill="hsl(0.0,100%,20%)">armansito</text>
<text x="1.297" y="0.280" font-size="0.062188" fill="hsl(0.0,100%,20%)">michaelludwig</text>
<text x="0.870" y="0.851" font-size="0.079580" fill="hsl(0.0,100%,20%)">johnstiles</text>
<text x="0.378" y="0.344" font-size="0.049655" fill="hsl(0.0,100%,20%)">egdaniel</text>
<text x="1.572" y="0.956" font-size="0.068417" fill="hsl(180.0,100%,20%)">kjlubick</text>
<text x="0.927" y="0.461" font-size="0.050156" fill="hsl(0.0,100%,20%)">jvanverth</text>
<text x="0.749" y="0.178" font-size="0.042008" fill="hsl(0.0,100%,20%)">nicolettep</text>
<text x="1.238" y="0.910" font-size="0.073446" fill="hsl(0.0,100%,20%)">brianosman</text>
<text x="0.909" y="0.338" font-size="0.034300" fill="hsl(0.0,100%,20%)">jamesgk</text>
<text x="1.469" y="0.740" font-size="0.047067" fill="hsl(180.0,100%,20%)">bungeman</text>
<text x="0.155" y="0.453" font-size="0.006128" fill="hsl(0.0,100%,20%)">jreck</text>
<text x="1.171" y="0.402" font-size="0.051145" fill="hsl(0.0,100%,20%)">robertphillips</text>
<text x="0.743" y="0.044" font-size="0.024254" fill="hsl(180.0,100%,20%)">fmalita</text>
<text x="1.096" y="0.776" font-size="0.028958" fill="hsl(0.0,100%,20%)">herb</text>
<text x="0.576" y="0.499" font-size="0.013702" fill="hsl(0.0,100%,20%)">briansalomon</text>
<text x="1.776" y="0.607" font-size="0.017331" fill="hsl(180.0,100%,20%)">jlavrova</text>
<text x="0.158" y="0.575" font-size="0.017689" fill="hsl(0.0,100%,20%)">scroggo</text>
<text x="1.831" y="0.825" font-size="0.024254" fill="hsl(180.0,100%,20%)">drott</text>
<text x="0.610" y="0.585" font-size="0.018383" fill="hsl(0.0,100%,20%)">nscobie</text>
<text x="0.984" y="0.070" font-size="0.017331" fill="hsl(180.0,100%,20%)">jmbetancourt</text>
<text x="0.233" y="0.817" font-size="0.014151" fill="hsl(180.0,100%,20%)">sharaks</text>
<text x="0.623" y="0.309" font-size="0.007911" fill="hsl(0.0,100%,20%)">hitawala</text>
<text x="0.896" y="0.676" font-size="0.012255" fill="hsl(180.0,100%,20%)">cmumford</text>
<text x="0.487" y="0.768" font-size="0.007911" fill="hsl(180.0,100%,20%)">borenet</text>
<text x="0.207" y="0.713" font-size="0.007075" fill="hsl(0.0,100%,20%)">djsollen</text>
<text x="1.579" y="0.598" font-size="0.006128" fill="hsl(180.0,100%,20%)">jcgregorio</text>
<text x="1.752" y="0.686" font-size="0.007075" fill="hsl(180.0,100%,20%)">rmistry</text>
<text x="1.951" y="0.712" font-size="0.032616" fill="hsl(180.0,100%,20%)">lovisolo</text>
<text x="1.655" y="0.785" font-size="0.005003" fill="hsl(180.0,100%,20%)">tdenniston</text>
<text x="1.152" y="0.543" font-size="0.007075" fill="hsl(0.0,100%,20%)">lokokung</text>
<text x="0.522" y="0.212" font-size="0.014151" fill="hsl(180.0,100%,20%)">mike</text>
<text x="1.295" y="0.719" font-size="0.007075" fill="hsl(0.0,100%,20%)">nigeltao</text>
<text x="0.369" y="0.450" font-size="0.010613" fill="hsl(0.0,100%,20%)">penghuang</text>
<text x="0.344" y="0.770" font-size="0.010613" fill="hsl(180.0,100%,20%)">hcm</text>
<text x="1.340" y="0.524" font-size="0.007911" fill="hsl(0.0,100%,20%)">sunnyps</text>
</svg>
