<svg width="4000" height="2000" viewBox="-0.025 -0.025 2.05 1.05" xmlns="http://www.w3.org/2000/svg">
  <style>
    path {
      fill: none;
      stroke-linecap: round;
      stroke-opacity: 0.4;
    }

    text {
      text-anchor: middle;
      alignment-baseline: hanging;
    }
  </style>
  <g opacity="0.4">
<path d="M0.700 0.856 Q0.948 0.784 0.861 0.647" stroke="hsl(0.0,100%,35%)" stroke-width="0.00201"></path>
<path d="M0.700 0.856 Q0.809 0.996 1.107 0.974" stroke="hsl(0.0,100%,35%)" stroke-width="0.00928"></path>
<path d="M0.700 0.856 Q0.853 0.862 0.899 0.789" stroke="hsl(0.0,100%,35%)" stroke-width="0.00046"></path>
<path d="M0.700 0.856 Q1.112 0.571 0.646 0.308" stroke="hsl(0.0,100%,35%)" stroke-width="0.00062"></path>
<path d="M0.700 0.856 Q1.013 0.503 0.392 0.273" stroke="hsl(0.0,100%,35%)" stroke-width="0.00031"></path>
<path d="M0.700 0.856 Q1.347 0.921 1.615 0.619" stroke="hsl(0.0,100%,35%)" stroke-width="0.00031"></path>
<path d="M0.700 0.856 Q0.693 0.659 0.306 0.619" stroke="hsl(0.0,100%,35%)" stroke-width="0.00046"></path>
<path d="M0.700 0.856 Q0.980 0.625 0.590 0.438" stroke="hsl(0.0,100%,35%)" stroke-width="0.00015"></path>
<path d="M0.700 0.856 Q1.237 0.841 1.326 0.576" stroke="hsl(0.0,100%,35%)" stroke-width="0.00015"></path>
<path d="M0.700 0.856 Q1.481 0.960 1.856 0.602" stroke="hsl(0.0,100%,35%)" stroke-width="0.00031"></path>
<path d="M0.700 0.856 Q0.901 0.927 1.083 0.844" stroke="hsl(0.0,100%,35%)" stroke-width="0.00015"></path>
<path d="M0.700 0.856 Q1.696 0.691 1.592 0.168" stroke="hsl(0.0,100%,35%)" stroke-width="0.00015"></path>
<path d="M0.700 0.856 Q0.554 0.724 0.265 0.767" stroke="hsl(0.0,100%,35%)" stroke-width="0.00031"></path>
<path d="M0.861 0.647 Q0.467 0.588 0.265 0.767" stroke="hsl(0.0,100%,35%)" stroke-width="0.00588"></path>
<path d="M0.861 0.647 Q1.150 0.704 1.326 0.576" stroke="hsl(0.0,100%,35%)" stroke-width="0.00557"></path>
<path d="M0.861 0.647 Q1.610 0.554 1.592 0.168" stroke="hsl(0.0,100%,35%)" stroke-width="0.00046"></path>
<path d="M0.861 0.647 Q0.546 0.815 0.805 1.006" stroke="hsl(0.0,100%,35%)" stroke-width="0.00789"></path>
<path d="M0.861 0.647 Q1.025 0.766 1.294 0.713" stroke="hsl(0.0,100%,35%)" stroke-width="0.00124"></path>
<path d="M0.861 0.647 Q0.723 0.860 1.107 0.974" stroke="hsl(0.0,100%,35%)" stroke-width="0.00696"></path>
<path d="M0.861 0.647 Q1.314 0.452 1.034 0.188" stroke="hsl(0.0,100%,35%)" stroke-width="0.00015"></path>
<path d="M0.861 0.647 Q0.656 0.403 0.135 0.449" stroke="hsl(0.0,100%,35%)" stroke-width="0.00031"></path>
<path d="M0.861 0.647 Q0.814 0.790 1.083 0.844" stroke="hsl(0.0,100%,35%)" stroke-width="0.00031"></path>
<path d="M0.861 0.647 Q0.766 0.725 0.899 0.789" stroke="hsl(0.0,100%,35%)" stroke-width="0.00124"></path>
<path d="M0.861 0.647 Q0.606 0.522 0.306 0.619" stroke="hsl(0.0,100%,35%)" stroke-width="0.00278"></path>
<path d="M0.861 0.647 Q1.124 0.623 1.135 0.490" stroke="hsl(0.0,100%,35%)" stroke-width="0.00046"></path>
<path d="M0.861 0.647 Q0.893 0.488 0.590 0.438" stroke="hsl(0.0,100%,35%)" stroke-width="0.00031"></path>
<path d="M0.861 0.647 Q0.613 0.719 0.700 0.856" stroke="hsl(0.0,100%,35%)" stroke-width="0.00062"></path>
<path d="M0.861 0.647 Q1.010 0.503 0.761 0.398" stroke="hsl(0.0,100%,35%)" stroke-width="0.00015"></path>
<path d="M0.861 0.647 Q1.192 0.888 1.735 0.779" stroke="hsl(0.0,100%,35%)" stroke-width="0.00031"></path>
<path d="M0.861 0.647 Q1.261 0.784 1.615 0.619" stroke="hsl(0.0,100%,35%)" stroke-width="0.00031"></path>
<path d="M0.861 0.647 Q0.926 0.366 0.392 0.273" stroke="hsl(0.0,100%,35%)" stroke-width="0.00015"></path>
<path d="M1.107 0.974 Q0.991 0.636 0.306 0.619" stroke="hsl(0.0,100%,35%)" stroke-width="0.00294"></path>
<path d="M1.107 0.974 Q0.930 0.929 0.805 1.006" stroke="hsl(0.0,100%,35%)" stroke-width="0.01748"></path>
<path d="M1.107 0.974 Q1.310 0.480 0.392 0.273" stroke="hsl(0.0,100%,35%)" stroke-width="0.00108"></path>
<path d="M1.107 0.974 Q1.535 0.819 1.326 0.576" stroke="hsl(0.0,100%,35%)" stroke-width="0.00170"></path>
<path d="M1.107 0.974 Q0.851 0.702 0.265 0.767" stroke="hsl(0.0,100%,35%)" stroke-width="0.00464"></path>
<path d="M1.107 0.974 Q1.151 0.840 0.899 0.789" stroke="hsl(0.0,100%,35%)" stroke-width="0.00139"></path>
<path d="M1.107 0.974 Q1.245 0.761 0.861 0.647" stroke="hsl(0.0,100%,35%)" stroke-width="0.00449"></path>
<path d="M1.107 0.974 Q1.779 0.938 1.856 0.602" stroke="hsl(0.0,100%,35%)" stroke-width="0.00031"></path>
<path d="M1.107 0.974 Q1.410 0.881 1.294 0.713" stroke="hsl(0.0,100%,35%)" stroke-width="0.00015"></path>
<path d="M1.107 0.974 Q1.473 0.618 0.858 0.361" stroke="hsl(0.0,100%,35%)" stroke-width="0.00062"></path>
<path d="M1.107 0.974 Q1.887 0.611 1.351 0.151" stroke="hsl(0.0,100%,35%)" stroke-width="0.00015"></path>
<path d="M1.107 0.974 Q1.994 0.668 1.592 0.168" stroke="hsl(0.0,100%,35%)" stroke-width="0.00031"></path>
<path d="M1.107 0.974 Q1.277 0.602 0.590 0.438" stroke="hsl(0.0,100%,35%)" stroke-width="0.00031"></path>
<path d="M1.107 0.974 Q0.997 0.834 0.700 0.856" stroke="hsl(0.0,100%,35%)" stroke-width="0.00108"></path>
<path d="M1.107 0.974 Q1.441 0.384 0.364 0.092" stroke="hsl(0.0,100%,35%)" stroke-width="0.00015"></path>
<path d="M1.107 0.974 Q1.699 0.567 1.034 0.188" stroke="hsl(0.0,100%,35%)" stroke-width="0.00015"></path>
<path d="M0.899 0.789 Q0.599 0.651 0.265 0.767" stroke="hsl(0.0,100%,35%)" stroke-width="0.00805"></path>
<path d="M0.899 0.789 Q0.739 0.585 0.306 0.619" stroke="hsl(0.0,100%,35%)" stroke-width="0.00248"></path>
<path d="M0.899 0.789 Q0.678 0.878 0.805 1.006" stroke="hsl(0.0,100%,35%)" stroke-width="0.01037"></path>
<path d="M0.899 0.789 Q1.068 0.479 0.500 0.328" stroke="hsl(0.0,100%,35%)" stroke-width="0.00015"></path>
<path d="M0.899 0.789 Q0.855 0.923 1.107 0.974" stroke="hsl(0.0,100%,35%)" stroke-width="0.00650"></path>
<path d="M0.899 0.789 Q1.283 0.768 1.326 0.576" stroke="hsl(0.0,100%,35%)" stroke-width="0.00371"></path>
<path d="M0.899 0.789 Q0.946 0.853 1.083 0.844" stroke="hsl(0.0,100%,35%)" stroke-width="0.00077"></path>
<path d="M0.899 0.789 Q0.993 0.710 0.861 0.647" stroke="hsl(0.0,100%,35%)" stroke-width="0.01346"></path>
<path d="M0.899 0.789 Q1.157 0.830 1.294 0.713" stroke="hsl(0.0,100%,35%)" stroke-width="0.00263"></path>
<path d="M0.899 0.789 Q1.742 0.617 1.592 0.168" stroke="hsl(0.0,100%,35%)" stroke-width="0.00015"></path>
<path d="M0.899 0.789 Q0.836 0.711 0.670 0.724" stroke="hsl(0.0,100%,35%)" stroke-width="0.00031"></path>
<path d="M0.899 0.789 Q1.304 0.471 0.774 0.204" stroke="hsl(0.0,100%,35%)" stroke-width="0.00015"></path>
<path d="M0.899 0.789 Q1.527 0.887 1.856 0.602" stroke="hsl(0.0,100%,35%)" stroke-width="0.00108"></path>
<path d="M0.899 0.789 Q0.745 0.783 0.700 0.856" stroke="hsl(0.0,100%,35%)" stroke-width="0.00232"></path>
<path d="M0.899 0.789 Q1.025 0.552 0.590 0.438" stroke="hsl(0.0,100%,35%)" stroke-width="0.00046"></path>
<path d="M0.899 0.789 Q1.131 0.592 0.799 0.436" stroke="hsl(0.0,100%,35%)" stroke-width="0.00139"></path>
<path d="M0.899 0.789 Q0.947 0.409 0.217 0.303" stroke="hsl(0.0,100%,35%)" stroke-width="0.00015"></path>
<path d="M0.899 0.789 Q1.393 0.847 1.615 0.619" stroke="hsl(0.0,100%,35%)" stroke-width="0.00015"></path>
<path d="M0.899 0.789 Q1.058 0.429 0.392 0.273" stroke="hsl(0.0,100%,35%)" stroke-width="0.00015"></path>
<path d="M0.646 0.308 Q1.016 0.697 1.856 0.602" stroke="hsl(120.0,100%,35%)" stroke-width="0.00077"></path>
<path d="M0.646 0.308 Q0.793 0.281 0.774 0.204" stroke="hsl(120.0,100%,35%)" stroke-width="0.00186"></path>
<path d="M0.646 0.308 Q0.937 0.760 1.884 0.718" stroke="hsl(120.0,100%,35%)" stroke-width="0.00015"></path>
<path d="M0.646 0.308 Q0.771 0.578 1.326 0.576" stroke="hsl(120.0,100%,35%)" stroke-width="0.00015"></path>
<path d="M0.646 0.308 Q0.343 0.733 1.107 0.974" stroke="hsl(120.0,100%,35%)" stroke-width="0.00108"></path>
<path d="M0.646 0.308 Q0.547 0.239 0.392 0.273" stroke="hsl(120.0,100%,35%)" stroke-width="0.00325"></path>
<path d="M0.646 0.308 Q0.935 0.326 1.034 0.188" stroke="hsl(120.0,100%,35%)" stroke-width="0.00015"></path>
<path d="M0.646 0.308 Q1.230 0.427 1.592 0.168" stroke="hsl(120.0,100%,35%)" stroke-width="0.00015"></path>
<path d="M0.646 0.308 Q0.387 0.599 0.899 0.789" stroke="hsl(120.0,100%,35%)" stroke-width="0.00046"></path>
<path d="M0.392 0.273 Q0.491 0.341 0.646 0.308" stroke="hsl(120.0,100%,35%)" stroke-width="0.00387"></path>
<path d="M0.392 0.273 Q0.638 0.315 0.774 0.204" stroke="hsl(120.0,100%,35%)" stroke-width="0.00046"></path>
<path d="M0.392 0.273 Q0.491 0.673 1.294 0.713" stroke="hsl(120.0,100%,35%)" stroke-width="0.00031"></path>
<path d="M0.392 0.273 Q0.776 0.261 0.837 0.072" stroke="hsl(120.0,100%,35%)" stroke-width="0.00031"></path>
<path d="M0.392 0.273 Q0.012 0.722 0.805 1.006" stroke="hsl(120.0,100%,35%)" stroke-width="0.00015"></path>
<path d="M0.392 0.273 Q0.281 0.253 0.217 0.303" stroke="hsl(120.0,100%,35%)" stroke-width="0.00015"></path>
<path d="M0.392 0.273 Q0.590 0.530 1.135 0.490" stroke="hsl(120.0,100%,35%)" stroke-width="0.00015"></path>
<path d="M0.392 0.273 Q0.327 0.554 0.861 0.647" stroke="hsl(120.0,100%,35%)" stroke-width="0.00015"></path>
<path d="M0.392 0.273 Q-0.067 0.494 0.265 0.767" stroke="hsl(120.0,100%,35%)" stroke-width="0.00015"></path>
<path d="M0.392 0.273 Q0.861 0.730 1.856 0.602" stroke="hsl(120.0,100%,35%)" stroke-width="0.00031"></path>
<path d="M0.392 0.273 Q0.523 0.177 0.364 0.092" stroke="hsl(120.0,100%,35%)" stroke-width="0.00093"></path>
<path d="M1.615 0.619 Q1.505 0.540 1.326 0.576" stroke="hsl(240.0,100%,35%)" stroke-width="0.00418"></path>
<path d="M1.615 0.619 Q1.248 0.323 0.590 0.438" stroke="hsl(240.0,100%,35%)" stroke-width="0.00108"></path>
<path d="M1.615 0.619 Q1.216 0.482 0.861 0.647" stroke="hsl(240.0,100%,35%)" stroke-width="0.00015"></path>
<path d="M1.615 0.619 Q1.121 0.561 0.899 0.789" stroke="hsl(240.0,100%,35%)" stroke-width="0.00015"></path>
<path d="M1.615 0.619 Q1.281 0.201 0.392 0.273" stroke="hsl(240.0,100%,35%)" stroke-width="0.00170"></path>
<path d="M1.615 0.619 Q1.443 0.339 0.858 0.361" stroke="hsl(240.0,100%,35%)" stroke-width="0.00015"></path>
<path d="M1.615 0.619 Q1.411 0.105 0.364 0.092" stroke="hsl(240.0,100%,35%)" stroke-width="0.00015"></path>
<path d="M1.615 0.619 Q0.961 0.357 0.306 0.619" stroke="hsl(240.0,100%,35%)" stroke-width="0.00015"></path>
<path d="M1.615 0.619 Q0.968 0.555 0.700 0.856" stroke="hsl(240.0,100%,35%)" stroke-width="0.00046"></path>
<path d="M1.615 0.619 Q1.169 0.625 1.083 0.844" stroke="hsl(240.0,100%,35%)" stroke-width="0.00046"></path>
<path d="M0.306 0.619 Q0.167 0.684 0.265 0.767" stroke="hsl(0.0,100%,35%)" stroke-width="0.01269"></path>
<path d="M0.306 0.619 Q0.246 0.912 0.805 1.006" stroke="hsl(0.0,100%,35%)" stroke-width="0.00356"></path>
<path d="M0.306 0.619 Q0.725 0.863 1.294 0.713" stroke="hsl(0.0,100%,35%)" stroke-width="0.00201"></path>
<path d="M0.306 0.619 Q0.422 0.956 1.107 0.974" stroke="hsl(0.0,100%,35%)" stroke-width="0.00371"></path>
<path d="M0.306 0.619 Q1.095 0.920 1.856 0.602" stroke="hsl(0.0,100%,35%)" stroke-width="0.00031"></path>
<path d="M0.306 0.619 Q0.850 0.801 1.326 0.576" stroke="hsl(0.0,100%,35%)" stroke-width="0.00356"></path>
<path d="M0.306 0.619 Q0.466 0.822 0.899 0.789" stroke="hsl(0.0,100%,35%)" stroke-width="0.00062"></path>
<path d="M0.306 0.619 Q0.824 0.720 1.135 0.490" stroke="hsl(0.0,100%,35%)" stroke-width="0.00015"></path>
<path d="M0.306 0.619 Q0.561 0.744 0.861 0.647" stroke="hsl(0.0,100%,35%)" stroke-width="0.00278"></path>
<path d="M0.306 0.619 Q1.009 0.451 0.837 0.072" stroke="hsl(0.0,100%,35%)" stroke-width="0.00015"></path>
<path d="M0.306 0.619 Q1.310 0.651 1.592 0.168" stroke="hsl(0.0,100%,35%)" stroke-width="0.00015"></path>
<path d="M0.306 0.619 Q0.313 0.816 0.700 0.856" stroke="hsl(0.0,100%,35%)" stroke-width="0.00046"></path>
<path d="M0.306 0.619 Q0.626 0.463 0.392 0.273" stroke="hsl(0.0,100%,35%)" stroke-width="0.00015"></path>
<path d="M0.306 0.619 Q0.593 0.585 0.590 0.438" stroke="hsl(0.0,100%,35%)" stroke-width="0.00015"></path>
<path d="M0.306 0.619 Q0.756 0.367 0.364 0.092" stroke="hsl(0.0,100%,35%)" stroke-width="0.00015"></path>
<path d="M0.306 0.619 Q0.514 0.443 0.217 0.303" stroke="hsl(0.0,100%,35%)" stroke-width="0.00015"></path>
<path d="M0.590 0.438 Q1.011 0.402 1.034 0.188" stroke="hsl(120.0,100%,35%)" stroke-width="0.00015"></path>
<path d="M0.590 0.438 Q0.511 0.740 1.083 0.844" stroke="hsl(120.0,100%,35%)" stroke-width="0.00124"></path>
<path d="M0.590 0.438 Q0.785 0.453 0.858 0.361" stroke="hsl(120.0,100%,35%)" stroke-width="0.00402"></path>
<path d="M0.590 0.438 Q0.558 0.597 0.861 0.647" stroke="hsl(120.0,100%,35%)" stroke-width="0.00077"></path>
<path d="M0.590 0.438 Q0.459 0.394 0.345 0.448" stroke="hsl(120.0,100%,35%)" stroke-width="0.00015"></path>
<path d="M0.590 0.438 Q0.696 0.478 0.799 0.436" stroke="hsl(120.0,100%,35%)" stroke-width="0.00046"></path>
<path d="M0.590 0.438 Q0.847 0.654 1.326 0.576" stroke="hsl(120.0,100%,35%)" stroke-width="0.00217"></path>
<path d="M0.590 0.438 Q0.722 0.716 1.294 0.713" stroke="hsl(120.0,100%,35%)" stroke-width="0.00046"></path>
<path d="M0.590 0.438 Q0.243 0.765 0.805 1.006" stroke="hsl(120.0,100%,35%)" stroke-width="0.00031"></path>
<path d="M0.590 0.438 Q1.092 0.773 1.856 0.602" stroke="hsl(120.0,100%,35%)" stroke-width="0.00248"></path>
<path d="M0.590 0.438 Q1.307 0.504 1.592 0.168" stroke="hsl(120.0,100%,35%)" stroke-width="0.00077"></path>
<path d="M0.590 0.438 Q0.493 0.408 0.412 0.448" stroke="hsl(120.0,100%,35%)" stroke-width="0.00124"></path>
<path d="M0.590 0.438 Q0.575 0.484 0.661 0.501" stroke="hsl(120.0,100%,35%)" stroke-width="0.00015"></path>
<path d="M0.590 0.438 Q0.463 0.675 0.899 0.789" stroke="hsl(120.0,100%,35%)" stroke-width="0.00015"></path>
<path d="M0.590 0.438 Q1.200 0.447 1.351 0.151" stroke="hsl(120.0,100%,35%)" stroke-width="0.00186"></path>
<path d="M0.590 0.438 Q0.353 0.353 0.135 0.449" stroke="hsl(120.0,100%,35%)" stroke-width="0.00015"></path>
<path d="M0.590 0.438 Q0.957 0.733 1.615 0.619" stroke="hsl(120.0,100%,35%)" stroke-width="0.00062"></path>
<path d="M1.326 0.576 Q1.201 0.638 1.294 0.713" stroke="hsl(240.0,100%,35%)" stroke-width="0.02212"></path>
<path d="M1.326 0.576 Q0.990 0.662 1.083 0.844" stroke="hsl(240.0,100%,35%)" stroke-width="0.00201"></path>
<path d="M1.326 0.576 Q1.785 0.425 1.592 0.168" stroke="hsl(240.0,100%,35%)" stroke-width="0.00031"></path>
<path d="M1.326 0.576 Q0.722 0.686 0.805 1.006" stroke="hsl(240.0,100%,35%)" stroke-width="0.00696"></path>
<path d="M1.326 0.576 Q0.643 0.459 0.265 0.767" stroke="hsl(240.0,100%,35%)" stroke-width="0.00139"></path>
<path d="M1.326 0.576 Q1.037 0.519 0.861 0.647" stroke="hsl(240.0,100%,35%)" stroke-width="0.01160"></path>
<path d="M1.326 0.576 Q1.347 0.279 0.774 0.204" stroke="hsl(240.0,100%,35%)" stroke-width="0.00077"></path>
<path d="M1.326 0.576 Q1.490 0.324 1.034 0.188" stroke="hsl(240.0,100%,35%)" stroke-width="0.00031"></path>
<path d="M1.326 0.576 Q0.832 0.275 0.135 0.449" stroke="hsl(240.0,100%,35%)" stroke-width="0.00124"></path>
<path d="M1.326 0.576 Q1.570 0.695 1.856 0.602" stroke="hsl(240.0,100%,35%)" stroke-width="0.00248"></path>
<path d="M1.326 0.576 Q0.990 0.217 0.217 0.303" stroke="hsl(240.0,100%,35%)" stroke-width="0.00031"></path>
<path d="M1.326 0.576 Q0.898 0.731 1.107 0.974" stroke="hsl(240.0,100%,35%)" stroke-width="0.00124"></path>
<path d="M1.326 0.576 Q1.300 0.495 1.135 0.490" stroke="hsl(240.0,100%,35%)" stroke-width="0.00433"></path>
<path d="M1.326 0.576 Q1.679 0.369 1.351 0.151" stroke="hsl(240.0,100%,35%)" stroke-width="0.00015"></path>
<path d="M1.326 0.576 Q1.200 0.306 0.646 0.308" stroke="hsl(240.0,100%,35%)" stroke-width="0.00031"></path>
<path d="M1.326 0.576 Q0.942 0.597 0.899 0.789" stroke="hsl(240.0,100%,35%)" stroke-width="0.00077"></path>
<path d="M1.326 0.576 Q0.782 0.393 0.306 0.619" stroke="hsl(240.0,100%,35%)" stroke-width="0.00046"></path>
<path d="M1.326 0.576 Q1.102 0.238 0.392 0.273" stroke="hsl(240.0,100%,35%)" stroke-width="0.00108"></path>
<path d="M1.326 0.576 Q1.069 0.360 0.590 0.438" stroke="hsl(240.0,100%,35%)" stroke-width="0.00278"></path>
<path d="M1.326 0.576 Q1.264 0.375 0.858 0.361" stroke="hsl(240.0,100%,35%)" stroke-width="0.00077"></path>
<path d="M1.326 0.576 Q1.112 0.287 0.500 0.328" stroke="hsl(240.0,100%,35%)" stroke-width="0.00031"></path>
<path d="M1.326 0.576 Q1.436 0.655 1.615 0.619" stroke="hsl(240.0,100%,35%)" stroke-width="0.00248"></path>
<path d="M1.856 0.602 Q1.612 0.483 1.326 0.576" stroke="hsl(120.0,100%,35%)" stroke-width="0.00371"></path>
<path d="M1.856 0.602 Q2.071 0.332 1.592 0.168" stroke="hsl(120.0,100%,35%)" stroke-width="0.00480"></path>
<path d="M1.856 0.602 Q1.398 0.194 0.500 0.328" stroke="hsl(120.0,100%,35%)" stroke-width="0.00046"></path>
<path d="M1.856 0.602 Q1.550 0.282 0.858 0.361" stroke="hsl(120.0,100%,35%)" stroke-width="0.00046"></path>
<path d="M1.856 0.602 Q1.633 0.186 0.774 0.204" stroke="hsl(120.0,100%,35%)" stroke-width="0.00217"></path>
<path d="M1.856 0.602 Q1.653 0.666 1.735 0.779" stroke="hsl(120.0,100%,35%)" stroke-width="0.00294"></path>
<path d="M1.856 0.602 Q1.487 0.545 1.294 0.713" stroke="hsl(120.0,100%,35%)" stroke-width="0.00170"></path>
<path d="M1.856 0.602 Q1.388 0.144 0.392 0.273" stroke="hsl(120.0,100%,35%)" stroke-width="0.00278"></path>
<path d="M1.856 0.602 Q1.008 0.593 0.805 1.006" stroke="hsl(120.0,100%,35%)" stroke-width="0.00062"></path>
<path d="M1.856 0.602 Q1.184 0.638 1.107 0.974" stroke="hsl(120.0,100%,35%)" stroke-width="0.00062"></path>
<path d="M1.856 0.602 Q1.276 0.568 1.083 0.844" stroke="hsl(120.0,100%,35%)" stroke-width="0.00046"></path>
<path d="M1.856 0.602 Q1.778 0.665 1.884 0.718" stroke="hsl(120.0,100%,35%)" stroke-width="0.00402"></path>
<path d="M1.856 0.602 Q1.323 0.425 0.861 0.647" stroke="hsl(120.0,100%,35%)" stroke-width="0.00170"></path>
<path d="M1.856 0.602 Q1.486 0.213 0.646 0.308" stroke="hsl(120.0,100%,35%)" stroke-width="0.00217"></path>
<path d="M1.856 0.602 Q1.257 0.236 0.412 0.448" stroke="hsl(120.0,100%,35%)" stroke-width="0.00015"></path>
<path d="M1.856 0.602 Q0.928 0.366 0.265 0.767" stroke="hsl(120.0,100%,35%)" stroke-width="0.00062"></path>
<path d="M1.856 0.602 Q1.276 0.124 0.217 0.303" stroke="hsl(120.0,100%,35%)" stroke-width="0.00046"></path>
<path d="M1.856 0.602 Q1.771 0.133 0.837 0.072" stroke="hsl(120.0,100%,35%)" stroke-width="0.00031"></path>
<path d="M1.856 0.602 Q1.354 0.266 0.590 0.438" stroke="hsl(120.0,100%,35%)" stroke-width="0.00108"></path>
<path d="M1.856 0.602 Q1.228 0.504 0.899 0.789" stroke="hsl(120.0,100%,35%)" stroke-width="0.00015"></path>
<path d="M1.856 0.602 Q1.461 0.307 0.799 0.436" stroke="hsl(120.0,100%,35%)" stroke-width="0.00015"></path>
<path d="M1.856 0.602 Q1.118 0.181 0.135 0.449" stroke="hsl(120.0,100%,35%)" stroke-width="0.00015"></path>
<path d="M1.856 0.602 Q1.068 0.300 0.306 0.619" stroke="hsl(120.0,100%,35%)" stroke-width="0.00015"></path>
<path d="M1.856 0.602 Q1.965 0.275 1.351 0.151" stroke="hsl(120.0,100%,35%)" stroke-width="0.00031"></path>
<path d="M1.856 0.602 Q1.518 0.049 0.364 0.092" stroke="hsl(120.0,100%,35%)" stroke-width="0.00015"></path>
<path d="M1.083 0.844 Q0.991 0.914 1.107 0.974" stroke="hsl(120.0,100%,35%)" stroke-width="0.01222"></path>
<path d="M1.083 0.844 Q1.878 0.608 1.592 0.168" stroke="hsl(120.0,100%,35%)" stroke-width="0.00511"></path>
<path d="M1.083 0.844 Q0.736 0.642 0.265 0.767" stroke="hsl(120.0,100%,35%)" stroke-width="0.00031"></path>
<path d="M1.083 0.844 Q0.815 0.869 0.805 1.006" stroke="hsl(120.0,100%,35%)" stroke-width="0.00062"></path>
<path d="M1.083 0.844 Q1.419 0.759 1.326 0.576" stroke="hsl(120.0,100%,35%)" stroke-width="0.00696"></path>
<path d="M1.083 0.844 Q1.130 0.701 0.861 0.647" stroke="hsl(120.0,100%,35%)" stroke-width="0.00093"></path>
<path d="M1.083 0.844 Q1.393 0.677 1.135 0.490" stroke="hsl(120.0,100%,35%)" stroke-width="0.00015"></path>
<path d="M1.083 0.844 Q1.162 0.542 0.590 0.438" stroke="hsl(120.0,100%,35%)" stroke-width="0.00232"></path>
<path d="M1.083 0.844 Q1.035 0.780 0.899 0.789" stroke="hsl(120.0,100%,35%)" stroke-width="0.00062"></path>
<path d="M1.083 0.844 Q1.294 0.821 1.294 0.713" stroke="hsl(120.0,100%,35%)" stroke-width="0.00046"></path>
<path d="M1.083 0.844 Q0.946 0.798 0.827 0.855" stroke="hsl(120.0,100%,35%)" stroke-width="0.00015"></path>
<path d="M1.083 0.844 Q1.664 0.878 1.856 0.602" stroke="hsl(120.0,100%,35%)" stroke-width="0.00015"></path>
<path d="M1.083 0.844 Q0.882 0.774 0.700 0.856" stroke="hsl(120.0,100%,35%)" stroke-width="0.00031"></path>
<path d="M1.083 0.844 Q1.772 0.551 1.351 0.151" stroke="hsl(120.0,100%,35%)" stroke-width="0.00062"></path>
<path d="M1.592 0.168 Q0.639 0.018 0.135 0.449" stroke="hsl(120.0,100%,35%)" stroke-width="0.00062"></path>
<path d="M1.592 0.168 Q0.797 0.405 1.083 0.844" stroke="hsl(120.0,100%,35%)" stroke-width="0.00665"></path>
<path d="M1.592 0.168 Q0.705 0.474 1.107 0.974" stroke="hsl(120.0,100%,35%)" stroke-width="0.00062"></path>
<path d="M1.592 0.168 Q1.133 0.319 1.326 0.576" stroke="hsl(120.0,100%,35%)" stroke-width="0.00093"></path>
<path d="M1.592 0.168 Q0.529 0.429 0.805 1.006" stroke="hsl(120.0,100%,35%)" stroke-width="0.00031"></path>
<path d="M1.592 0.168 Q1.378 0.438 1.856 0.602" stroke="hsl(120.0,100%,35%)" stroke-width="0.00046"></path>
<path d="M1.592 0.168 Q1.486 0.112 1.351 0.151" stroke="hsl(120.0,100%,35%)" stroke-width="0.00046"></path>
<path d="M1.592 0.168 Q1.008 0.381 1.294 0.713" stroke="hsl(120.0,100%,35%)" stroke-width="0.00062"></path>
<path d="M1.592 0.168 Q0.450 0.202 0.265 0.767" stroke="hsl(120.0,100%,35%)" stroke-width="0.00062"></path>
<path d="M1.592 0.168 Q1.297 0.067 1.034 0.188" stroke="hsl(120.0,100%,35%)" stroke-width="0.00046"></path>
<path d="M1.592 0.168 Q0.876 0.103 0.590 0.438" stroke="hsl(120.0,100%,35%)" stroke-width="0.00186"></path>
<path d="M1.592 0.168 Q1.569 0.239 1.702 0.266" stroke="hsl(120.0,100%,35%)" stroke-width="0.00015"></path>
<path d="M1.592 0.168 Q1.071 0.118 0.858 0.361" stroke="hsl(120.0,100%,35%)" stroke-width="0.00077"></path>
<path d="M1.592 0.168 Q1.463 0.209 1.515 0.282" stroke="hsl(120.0,100%,35%)" stroke-width="0.00077"></path>
<path d="M1.592 0.168 Q1.243 0.398 1.615 0.619" stroke="hsl(120.0,100%,35%)" stroke-width="0.00108"></path>
<path d="M1.592 0.168 Q0.797 -0.040 0.217 0.303" stroke="hsl(120.0,100%,35%)" stroke-width="0.00015"></path>
<path d="M0.265 0.767 Q0.520 1.039 1.107 0.974" stroke="hsl(0.0,100%,35%)" stroke-width="0.00480"></path>
<path d="M0.265 0.767 Q0.344 0.994 0.805 1.006" stroke="hsl(0.0,100%,35%)" stroke-width="0.00248"></path>
<path d="M0.265 0.767 Q0.404 0.701 0.306 0.619" stroke="hsl(0.0,100%,35%)" stroke-width="0.00897"></path>
<path d="M0.265 0.767 Q0.564 0.905 0.899 0.789" stroke="hsl(0.0,100%,35%)" stroke-width="0.00201"></path>
<path d="M0.265 0.767 Q0.659 0.826 0.861 0.647" stroke="hsl(0.0,100%,35%)" stroke-width="0.00526"></path>
<path d="M0.265 0.767 Q0.948 0.884 1.326 0.576" stroke="hsl(0.0,100%,35%)" stroke-width="0.00015"></path>
<path d="M0.265 0.767 Q1.407 0.733 1.592 0.168" stroke="hsl(0.0,100%,35%)" stroke-width="0.00031"></path>
<path d="M0.265 0.767 Q1.193 1.003 1.856 0.602" stroke="hsl(0.0,100%,35%)" stroke-width="0.00015"></path>
<path d="M0.265 0.767 Q0.922 0.802 1.135 0.490" stroke="hsl(0.0,100%,35%)" stroke-width="0.00015"></path>
<path d="M0.265 0.767 Q0.724 0.545 0.392 0.273" stroke="hsl(0.0,100%,35%)" stroke-width="0.00015"></path>
<path d="M0.265 0.767 Q0.454 0.582 0.135 0.449" stroke="hsl(0.0,100%,35%)" stroke-width="0.00015"></path>
<path d="M0.265 0.767 Q0.691 0.667 0.590 0.438" stroke="hsl(0.0,100%,35%)" stroke-width="0.00015"></path>
<path d="M0.265 0.767 Q0.612 0.525 0.217 0.303" stroke="hsl(0.0,100%,35%)" stroke-width="0.00015"></path>
<path d="M1.122 0.509 Q1.045 0.645 1.294 0.713" stroke="hsl(240.0,100%,35%)" stroke-width="0.00046"></path>
<path d="M1.122 0.509 Q1.170 0.583 1.326 0.576" stroke="hsl(240.0,100%,35%)" stroke-width="0.00015"></path>
<path d="M1.122 0.509 Q0.946 0.245 0.392 0.273" stroke="hsl(240.0,100%,35%)" stroke-width="0.00015"></path>
<path d="M1.294 0.713 Q1.420 0.651 1.326 0.576" stroke="hsl(240.0,100%,35%)" stroke-width="0.10320"></path>
<path d="M1.294 0.713 Q1.879 0.500 1.592 0.168" stroke="hsl(240.0,100%,35%)" stroke-width="0.00232"></path>
<path d="M1.294 0.713 Q0.815 0.761 0.805 1.006" stroke="hsl(240.0,100%,35%)" stroke-width="0.00217"></path>
<path d="M1.294 0.713 Q1.393 0.569 1.135 0.490" stroke="hsl(240.0,100%,35%)" stroke-width="0.03914"></path>
<path d="M1.294 0.713 Q1.083 0.736 1.083 0.844" stroke="hsl(240.0,100%,35%)" stroke-width="0.00139"></path>
<path d="M1.294 0.713 Q1.579 0.301 0.837 0.072" stroke="hsl(240.0,100%,35%)" stroke-width="0.00031"></path>
<path d="M1.294 0.713 Q1.664 0.770 1.856 0.602" stroke="hsl(240.0,100%,35%)" stroke-width="0.00139"></path>
<path d="M1.294 0.713 Q1.036 0.672 0.899 0.789" stroke="hsl(240.0,100%,35%)" stroke-width="0.00062"></path>
<path d="M1.294 0.713 Q1.441 0.354 0.774 0.204" stroke="hsl(240.0,100%,35%)" stroke-width="0.00077"></path>
<path d="M1.294 0.713 Q0.992 0.806 1.107 0.974" stroke="hsl(240.0,100%,35%)" stroke-width="0.00170"></path>
<path d="M1.294 0.713 Q1.357 0.450 0.858 0.361" stroke="hsl(240.0,100%,35%)" stroke-width="0.00046"></path>
<path d="M1.294 0.713 Q1.205 0.361 0.500 0.328" stroke="hsl(240.0,100%,35%)" stroke-width="0.00031"></path>
<path d="M1.294 0.713 Q1.772 0.443 1.351 0.151" stroke="hsl(240.0,100%,35%)" stroke-width="0.00108"></path>
<path d="M1.294 0.713 Q0.736 0.534 0.265 0.767" stroke="hsl(240.0,100%,35%)" stroke-width="0.00217"></path>
<path d="M1.294 0.713 Q0.876 0.468 0.306 0.619" stroke="hsl(240.0,100%,35%)" stroke-width="0.00170"></path>
<path d="M1.294 0.713 Q1.084 0.292 0.217 0.303" stroke="hsl(240.0,100%,35%)" stroke-width="0.00062"></path>
<path d="M1.294 0.713 Q1.130 0.593 0.861 0.647" stroke="hsl(240.0,100%,35%)" stroke-width="0.00464"></path>
<path d="M1.294 0.713 Q1.294 0.380 0.646 0.308" stroke="hsl(240.0,100%,35%)" stroke-width="0.00046"></path>
<path d="M1.294 0.713 Q1.162 0.434 0.590 0.438" stroke="hsl(240.0,100%,35%)" stroke-width="0.00201"></path>
<path d="M1.294 0.713 Q1.268 0.475 0.799 0.436" stroke="hsl(240.0,100%,35%)" stroke-width="0.00015"></path>
<path d="M1.294 0.713 Q0.926 0.349 0.135 0.449" stroke="hsl(240.0,100%,35%)" stroke-width="0.00046"></path>
<path d="M1.294 0.713 Q1.530 0.730 1.615 0.619" stroke="hsl(240.0,100%,35%)" stroke-width="0.00031"></path>
<path d="M0.774 0.204 Q0.069 0.384 0.265 0.767" stroke="hsl(120.0,100%,35%)" stroke-width="0.00031"></path>
<path d="M0.774 0.204 Q0.627 0.230 0.646 0.308" stroke="hsl(120.0,100%,35%)" stroke-width="0.00077"></path>
<path d="M0.774 0.204 Q0.911 0.151 0.837 0.072" stroke="hsl(120.0,100%,35%)" stroke-width="0.00015"></path>
<path d="M0.774 0.204 Q1.211 0.350 1.592 0.168" stroke="hsl(120.0,100%,35%)" stroke-width="0.00062"></path>
<path d="M0.774 0.204 Q0.528 0.162 0.392 0.273" stroke="hsl(120.0,100%,35%)" stroke-width="0.00217"></path>
<path d="M0.774 0.204 Q0.752 0.500 1.326 0.576" stroke="hsl(120.0,100%,35%)" stroke-width="0.00015"></path>
<path d="M0.774 0.204 Q0.627 0.563 1.294 0.713" stroke="hsl(120.0,100%,35%)" stroke-width="0.00015"></path>
<path d="M0.774 0.204 Q0.463 0.443 0.861 0.647" stroke="hsl(120.0,100%,35%)" stroke-width="0.00015"></path>
<path d="M0.774 0.204 Q0.862 0.580 1.615 0.619" stroke="hsl(120.0,100%,35%)" stroke-width="0.00015"></path>
<path d="M0.774 0.204 Q0.215 0.515 0.700 0.856" stroke="hsl(120.0,100%,35%)" stroke-width="0.00015"></path>
<path d="M0.774 0.204 Q0.368 0.521 0.899 0.789" stroke="hsl(120.0,100%,35%)" stroke-width="0.00015"></path>
<path d="M0.774 0.204 Q0.916 0.248 1.034 0.188" stroke="hsl(120.0,100%,35%)" stroke-width="0.00046"></path>
<path d="M0.837 0.072 Q1.138 0.271 1.592 0.168" stroke="hsl(120.0,100%,35%)" stroke-width="0.00031"></path>
<path d="M0.837 0.072 Q0.844 0.604 1.884 0.718" stroke="hsl(120.0,100%,35%)" stroke-width="0.00031"></path>
<path d="M0.837 0.072 Q0.700 0.125 0.774 0.204" stroke="hsl(120.0,100%,35%)" stroke-width="0.00031"></path>
<path d="M0.837 0.072 Q0.553 0.151 0.646 0.308" stroke="hsl(120.0,100%,35%)" stroke-width="0.00015"></path>
<path d="M0.837 0.072 Q0.454 0.083 0.392 0.273" stroke="hsl(120.0,100%,35%)" stroke-width="0.00015"></path>
<path d="M0.805 1.006 Q1.025 0.916 0.899 0.789" stroke="hsl(0.0,100%,35%)" stroke-width="0.00309"></path>
<path d="M0.805 1.006 Q0.981 1.050 1.107 0.974" stroke="hsl(0.0,100%,35%)" stroke-width="0.01114"></path>
<path d="M0.805 1.006 Q1.284 0.957 1.294 0.713" stroke="hsl(0.0,100%,35%)" stroke-width="0.00031"></path>
<path d="M0.805 1.006 Q0.726 0.778 0.265 0.767" stroke="hsl(0.0,100%,35%)" stroke-width="0.00263"></path>
<path d="M0.805 1.006 Q1.409 0.895 1.326 0.576" stroke="hsl(0.0,100%,35%)" stroke-width="0.00155"></path>
<path d="M0.805 1.006 Q0.865 0.712 0.306 0.619" stroke="hsl(0.0,100%,35%)" stroke-width="0.00356"></path>
<path d="M0.805 1.006 Q1.120 0.838 0.861 0.647" stroke="hsl(0.0,100%,35%)" stroke-width="0.00340"></path>
<path d="M0.805 1.006 Q1.654 1.014 1.856 0.602" stroke="hsl(0.0,100%,35%)" stroke-width="0.00015"></path>
<path d="M0.805 1.006 Q1.073 0.981 1.083 0.844" stroke="hsl(0.0,100%,35%)" stroke-width="0.00062"></path>
<path d="M0.805 1.006 Q1.152 0.679 0.590 0.438" stroke="hsl(0.0,100%,35%)" stroke-width="0.00217"></path>
<path d="M0.805 1.006 Q1.347 0.694 0.858 0.361" stroke="hsl(0.0,100%,35%)" stroke-width="0.00062"></path>
<path d="M0.805 1.006 Q0.915 0.594 0.135 0.449" stroke="hsl(0.0,100%,35%)" stroke-width="0.00031"></path>
<path d="M0.217 0.303 Q0.059 0.360 0.135 0.449" stroke="hsl(120.0,100%,35%)" stroke-width="0.00170"></path>
<path d="M0.217 0.303 Q0.717 0.409 1.034 0.188" stroke="hsl(120.0,100%,35%)" stroke-width="0.00015"></path>
<path d="M0.217 0.303 Q0.553 0.661 1.326 0.576" stroke="hsl(120.0,100%,35%)" stroke-width="0.00031"></path>
<path d="M0.217 0.303 Q-0.131 0.544 0.265 0.767" stroke="hsl(120.0,100%,35%)" stroke-width="0.00046"></path>
<path d="M0.217 0.303 Q0.797 0.780 1.856 0.602" stroke="hsl(120.0,100%,35%)" stroke-width="0.00062"></path>
<path d="M0.217 0.303 Q0.329 0.323 0.392 0.273" stroke="hsl(120.0,100%,35%)" stroke-width="0.00015"></path>
<path d="M0.217 0.303 Q0.427 0.391 0.646 0.308" stroke="hsl(120.0,100%,35%)" stroke-width="0.00015"></path>
<path d="M0.217 0.303 Q0.260 0.228 0.123 0.190" stroke="hsl(120.0,100%,35%)" stroke-width="0.00031"></path>
<path d="M0.217 0.303 Q0.574 0.365 0.774 0.204" stroke="hsl(120.0,100%,35%)" stroke-width="0.00015"></path>
<path d="M1.135 0.490 Q1.036 0.633 1.294 0.713" stroke="hsl(240.0,100%,35%)" stroke-width="0.03110"></path>
<path d="M1.135 0.490 Q1.162 0.571 1.326 0.576" stroke="hsl(240.0,100%,35%)" stroke-width="0.00975"></path>
<path d="M1.135 0.490 Q0.872 0.513 0.861 0.647" stroke="hsl(240.0,100%,35%)" stroke-width="0.00031"></path>
<path d="M0.364 0.092 Q0.702 0.645 1.856 0.602" stroke="hsl(120.0,100%,35%)" stroke-width="0.00077"></path>
<path d="M0.364 0.092 Q0.234 0.188 0.392 0.273" stroke="hsl(120.0,100%,35%)" stroke-width="0.00139"></path>
<path d="M0.364 0.092 Q0.624 0.709 1.884 0.718" stroke="hsl(120.0,100%,35%)" stroke-width="0.00015"></path>
<path d="M1.034 0.188 Q0.646 0.102 0.392 0.273" stroke="hsl(120.0,100%,35%)" stroke-width="0.00062"></path>
<path d="M1.034 0.188 Q0.891 0.144 0.774 0.204" stroke="hsl(120.0,100%,35%)" stroke-width="0.00046"></path>
<path d="M0.135 0.449 Q0.671 0.934 1.735 0.779" stroke="hsl(120.0,100%,35%)" stroke-width="0.00015"></path>
<path d="M0.135 0.449 Q0.294 0.392 0.217 0.303" stroke="hsl(120.0,100%,35%)" stroke-width="0.00062"></path>
<path d="M0.135 0.449 Q-0.054 0.634 0.265 0.767" stroke="hsl(120.0,100%,35%)" stroke-width="0.00031"></path>
<path d="M0.135 0.449 Q0.629 0.751 1.326 0.576" stroke="hsl(120.0,100%,35%)" stroke-width="0.00031"></path>
<path d="M0.135 0.449 Q0.025 0.861 0.805 1.006" stroke="hsl(120.0,100%,35%)" stroke-width="0.00015"></path>
<path d="M0.135 0.449 Q0.793 0.499 1.034 0.188" stroke="hsl(120.0,100%,35%)" stroke-width="0.00015"></path>
<path d="M0.135 0.449 Q0.340 0.693 0.861 0.647" stroke="hsl(120.0,100%,35%)" stroke-width="0.00015"></path>
<path d="M1.351 0.151 Q0.662 0.444 1.083 0.844" stroke="hsl(120.0,100%,35%)" stroke-width="0.00031"></path>
<path d="M1.351 0.151 Q1.458 0.208 1.592 0.168" stroke="hsl(120.0,100%,35%)" stroke-width="0.00433"></path>
<path d="M1.351 0.151 Q0.505 0.057 0.135 0.449" stroke="hsl(120.0,100%,35%)" stroke-width="0.00015"></path>
<path d="M1.351 0.151 Q0.874 0.420 1.294 0.713" stroke="hsl(120.0,100%,35%)" stroke-width="0.00232"></path>
<path d="M1.351 0.151 Q0.999 0.358 1.326 0.576" stroke="hsl(120.0,100%,35%)" stroke-width="0.00031"></path>
<path d="M1.351 0.151 Q0.784 0.069 0.500 0.328" stroke="hsl(120.0,100%,35%)" stroke-width="0.00015"></path>
<path d="M1.351 0.151 Q0.741 0.142 0.590 0.438" stroke="hsl(120.0,100%,35%)" stroke-width="0.00108"></path>
<path d="M1.351 0.151 Q1.243 0.477 1.856 0.602" stroke="hsl(120.0,100%,35%)" stroke-width="0.00046"></path>
<path d="M1.351 0.151 Q0.937 0.158 0.858 0.361" stroke="hsl(120.0,100%,35%)" stroke-width="0.00031"></path>
<path d="M0.858 0.361 Q0.706 0.273 0.500 0.328" stroke="hsl(120.0,100%,35%)" stroke-width="0.00634"></path>
<path d="M0.858 0.361 Q0.426 0.261 0.135 0.449" stroke="hsl(120.0,100%,35%)" stroke-width="0.00093"></path>
<path d="M0.858 0.361 Q1.165 0.681 1.856 0.602" stroke="hsl(120.0,100%,35%)" stroke-width="0.00077"></path>
<path d="M0.858 0.361 Q0.920 0.562 1.326 0.576" stroke="hsl(120.0,100%,35%)" stroke-width="0.00170"></path>
<path d="M0.858 0.361 Q0.316 0.673 0.805 1.006" stroke="hsl(120.0,100%,35%)" stroke-width="0.00015"></path>
<path d="M0.858 0.361 Q0.769 0.387 0.799 0.436" stroke="hsl(120.0,100%,35%)" stroke-width="0.00108"></path>
<path d="M0.858 0.361 Q0.631 0.505 0.861 0.647" stroke="hsl(120.0,100%,35%)" stroke-width="0.00046"></path>
<path d="M0.858 0.361 Q1.380 0.412 1.592 0.168" stroke="hsl(120.0,100%,35%)" stroke-width="0.00124"></path>
<path d="M0.858 0.361 Q0.663 0.346 0.590 0.438" stroke="hsl(120.0,100%,35%)" stroke-width="0.00155"></path>
<path d="M0.858 0.361 Q0.795 0.624 1.294 0.713" stroke="hsl(120.0,100%,35%)" stroke-width="0.00015"></path>
<path d="M0.858 0.361 Q1.031 0.642 1.615 0.619" stroke="hsl(120.0,100%,35%)" stroke-width="0.00031"></path>
<path d="M0.500 0.328 Q1.174 0.467 1.592 0.168" stroke="hsl(120.0,100%,35%)" stroke-width="0.00031"></path>
<path d="M0.500 0.328 Q0.652 0.416 0.858 0.361" stroke="hsl(120.0,100%,35%)" stroke-width="0.00758"></path>
<path d="M0.500 0.328 Q0.457 0.401 0.590 0.438" stroke="hsl(120.0,100%,35%)" stroke-width="0.00015"></path>
<path d="M0.500 0.328 Q0.574 0.415 0.761 0.398" stroke="hsl(120.0,100%,35%)" stroke-width="0.00015"></path>
<path d="M0.500 0.328 Q0.959 0.736 1.856 0.602" stroke="hsl(120.0,100%,35%)" stroke-width="0.00015"></path>
<path d="M1.735 0.779 Q1.199 0.295 0.135 0.449" stroke="hsl(120.0,100%,35%)" stroke-width="0.00031"></path>
<path d="M1.735 0.779 Q1.404 0.539 0.861 0.647" stroke="hsl(120.0,100%,35%)" stroke-width="0.00031"></path>
<path d="M1.735 0.779 Q1.357 0.238 0.217 0.303" stroke="hsl(120.0,100%,35%)" stroke-width="0.00031"></path>
<path d="M1.735 0.779 Q1.938 0.715 1.856 0.602" stroke="hsl(120.0,100%,35%)" stroke-width="0.00015"></path>
<path d="M1.735 0.779 Q1.803 0.675 1.615 0.619" stroke="hsl(120.0,100%,35%)" stroke-width="0.00015"></path>
<path d="M1.735 0.779 Q1.309 0.617 0.899 0.789" stroke="hsl(120.0,100%,35%)" stroke-width="0.00015"></path>
<path d="M1.515 0.282 Q1.644 0.241 1.592 0.168" stroke="hsl(120.0,100%,35%)" stroke-width="0.00526"></path>
<path d="M1.515 0.282 Q0.691 0.090 0.135 0.449" stroke="hsl(120.0,100%,35%)" stroke-width="0.00015"></path>
<path d="M1.515 0.282 Q0.848 0.477 1.083 0.844" stroke="hsl(120.0,100%,35%)" stroke-width="0.00015"></path>
<path d="M1.515 0.282 Q1.123 0.190 0.858 0.361" stroke="hsl(120.0,100%,35%)" stroke-width="0.00031"></path>
<path d="M0.799 0.436 Q0.693 0.395 0.590 0.438" stroke="hsl(120.0,100%,35%)" stroke-width="0.00062"></path>
<path d="M0.799 0.436 Q0.888 0.410 0.858 0.361" stroke="hsl(120.0,100%,35%)" stroke-width="0.00201"></path>
<path d="M0.799 0.436 Q0.566 0.632 0.899 0.789" stroke="hsl(120.0,100%,35%)" stroke-width="0.00031"></path>
<path d="M1.386 0.391 Q1.415 0.370 1.379 0.351" stroke="hsl(120.0,100%,35%)" stroke-width="0.00077"></path>
<path d="M1.386 0.391 Q1.208 0.472 1.326 0.576" stroke="hsl(120.0,100%,35%)" stroke-width="0.00031"></path>
<path d="M1.386 0.391 Q0.984 0.133 0.392 0.273" stroke="hsl(120.0,100%,35%)" stroke-width="0.00046"></path>
<path d="M1.379 0.351 Q0.489 0.336 0.265 0.767" stroke="hsl(120.0,100%,35%)" stroke-width="0.00046"></path>
<path d="M1.379 0.351 Q1.350 0.373 1.386 0.391" stroke="hsl(120.0,100%,35%)" stroke-width="0.00046"></path>
<path d="M1.379 0.351 Q1.602 0.399 1.744 0.300" stroke="hsl(120.0,100%,35%)" stroke-width="0.00015"></path>
<path d="M0.669 0.864 Q1.103 0.913 1.294 0.713" stroke="hsl(0.0,100%,35%)" stroke-width="0.00015"></path>
<path d="M0.669 0.864 Q0.545 0.735 0.265 0.767" stroke="hsl(0.0,100%,35%)" stroke-width="0.00015"></path>
<path d="M0.669 0.864 Q0.800 1.006 1.107 0.974" stroke="hsl(0.0,100%,35%)" stroke-width="0.00015"></path>
<path d="M0.669 0.864 Q0.939 0.794 0.861 0.647" stroke="hsl(0.0,100%,35%)" stroke-width="0.00015"></path>
<path d="M0.669 0.864 Q0.892 0.937 1.083 0.844" stroke="hsl(0.0,100%,35%)" stroke-width="0.00015"></path>
<path d="M1.884 0.718 Q1.494 0.197 0.392 0.273" stroke="hsl(120.0,100%,35%)" stroke-width="0.00015"></path>
<path d="M1.884 0.718 Q1.719 0.535 1.326 0.576" stroke="hsl(120.0,100%,35%)" stroke-width="0.00015"></path>
<path d="M1.884 0.718 Q1.225 0.234 0.135 0.449" stroke="hsl(120.0,100%,35%)" stroke-width="0.00015"></path>
<path d="M1.884 0.718 Q1.740 0.239 0.774 0.204" stroke="hsl(120.0,100%,35%)" stroke-width="0.00031"></path>
<path d="M1.884 0.718 Q2.178 0.385 1.592 0.168" stroke="hsl(120.0,100%,35%)" stroke-width="0.00015"></path>
<path d="M1.884 0.718 Q1.963 0.654 1.856 0.602" stroke="hsl(120.0,100%,35%)" stroke-width="0.00015"></path>
<path d="M1.933 0.340 Q1.551 0.416 1.615 0.619" stroke="hsl(120.0,100%,35%)" stroke-width="0.00015"></path>
<path d="M1.933 0.340 Q1.900 0.186 1.592 0.168" stroke="hsl(120.0,100%,35%)" stroke-width="0.00031"></path>
<path d="M1.933 0.340 Q1.862 0.394 1.952 0.440" stroke="hsl(120.0,100%,35%)" stroke-width="0.00015"></path>
<path d="M1.776 0.358 Q1.621 0.496 1.856 0.602" stroke="hsl(120.0,100%,35%)" stroke-width="0.00015"></path>
<path d="M1.776 0.358 Q1.836 0.226 1.592 0.168" stroke="hsl(120.0,100%,35%)" stroke-width="0.00015"></path>
<path d="M1.776 0.358 Q1.119 0.160 0.590 0.438" stroke="hsl(120.0,100%,35%)" stroke-width="0.00015"></path>
<path d="M1.880 0.176 Q0.789 -0.036 0.135 0.449" stroke="hsl(120.0,100%,35%)" stroke-width="0.00015"></path>
<path d="M1.880 0.176 Q1.742 0.115 1.592 0.168" stroke="hsl(120.0,100%,35%)" stroke-width="0.00031"></path>
<path d="M1.880 0.176 Q0.946 0.351 1.083 0.844" stroke="hsl(120.0,100%,35%)" stroke-width="0.00015"></path>
</g>
<text x="0.700" y="0.844" font-size="0.024223" fill="hsl(0.0,100%,20%)">adlai</text>
<text x="0.861" y="0.622" font-size="0.050678" fill="hsl(0.0,100%,20%)">bsalomon</text>
<text x="1.107" y="0.947" font-size="0.053198" fill="hsl(0.0,100%,20%)">robertphillips</text>
<text x="0.899" y="0.767" font-size="0.044158" fill="hsl(0.0,100%,20%)">csmartdalton</text>
<text x="0.646" y="0.297" font-size="0.021976" fill="hsl(120.0,100%,20%)">rmistry</text>
<text x="0.392" y="0.260" font-size="0.025933" fill="hsl(120.0,100%,20%)">borenet</text>
<text x="1.615" y="0.609" font-size="0.020707" fill="hsl(240.0,100%,20%)">mtklein</text>
<text x="0.306" y="0.599" font-size="0.039860" fill="hsl(0.0,100%,20%)">jvanverth</text>
<text x="0.590" y="0.422" font-size="0.032220" fill="hsl(120.0,100%,20%)">reed</text>
<text x="1.326" y="0.536" font-size="0.079208" fill="hsl(240.0,100%,20%)">brianosman</text>
<text x="1.856" y="0.584" font-size="0.036614" fill="hsl(120.0,100%,20%)">kjlubick</text>
<text x="1.083" y="0.826" font-size="0.036552" fill="hsl(120.0,100%,20%)">herb</text>
<text x="1.592" y="0.150" font-size="0.036055" fill="hsl(120.0,100%,20%)">bungeman</text>
<text x="0.265" y="0.745" font-size="0.043901" fill="hsl(0.0,100%,20%)">egdaniel</text>
<text x="1.122" y="0.507" font-size="0.004751" fill="hsl(240.0,100%,20%)">bajones</text>
<text x="1.294" y="0.671" font-size="0.082584" fill="hsl(240.0,100%,20%)">johnstiles</text>
<text x="0.774" y="0.194" font-size="0.019355" fill="hsl(120.0,100%,20%)">jcgregorio</text>
<text x="0.837" y="0.067" font-size="0.008498" fill="hsl(120.0,100%,20%)">erikrose</text>
<text x="0.805" y="0.981" font-size="0.049141" fill="hsl(0.0,100%,20%)">michaelludwig</text>
<text x="0.217" y="0.295" font-size="0.014409" fill="hsl(120.0,100%,20%)">scroggo</text>
<text x="1.135" y="0.465" font-size="0.050006" fill="hsl(240.0,100%,20%)">ethannicholas</text>
<text x="0.364" y="0.087" font-size="0.010623" fill="hsl(120.0,100%,20%)">westont</text>
<text x="1.034" y="0.184" font-size="0.009736" fill="hsl(120.0,100%,20%)">hcm</text>
<text x="0.135" y="0.441" font-size="0.016040" fill="hsl(120.0,100%,20%)">djsollen</text>
<text x="1.351" y="0.141" font-size="0.020267" fill="hsl(120.0,100%,20%)">jlavrova</text>
<text x="0.858" y="0.346" font-size="0.030934" fill="hsl(120.0,100%,20%)">fmalita</text>
<text x="0.500" y="0.317" font-size="0.021666" fill="hsl(120.0,100%,20%)">jmbetancourt</text>
<text x="0.761" y="0.397" font-size="0.003005" fill="hsl(120.0,100%,20%)">stani</text>
<text x="1.735" y="0.774" font-size="0.011829" fill="hsl(120.0,100%,20%)">nifong</text>
<text x="1.702" y="0.265" font-size="0.002125" fill="hsl(120.0,100%,20%)">grieger</text>
<text x="1.515" y="0.275" font-size="0.013932" fill="hsl(120.0,100%,20%)">drott</text>
<text x="0.670" y="0.723" font-size="0.003005" fill="hsl(0.0,100%,20%)">junov</text>
<text x="0.799" y="0.429" font-size="0.013437" fill="hsl(120.0,100%,20%)">tdenniston</text>
<text x="1.386" y="0.387" font-size="0.007660" fill="hsl(120.0,100%,20%)">cwallez</text>
<text x="1.379" y="0.347" font-size="0.007360" fill="hsl(120.0,100%,20%)">senorblanco</text>
<text x="0.669" y="0.862" font-size="0.004751" fill="hsl(0.0,100%,20%)">emaxx</text>
<text x="1.884" y="0.711" font-size="0.012923" fill="hsl(120.0,100%,20%)">lovisolo</text>
<text x="0.827" y="0.854" font-size="0.002125" fill="hsl(120.0,100%,20%)">jiulongw</text>
<text x="1.933" y="0.338" font-size="0.004249" fill="hsl(120.0,100%,20%)">james</text>
<text x="1.952" y="0.439" font-size="0.002125" fill="hsl(120.0,100%,20%)">cbracken</text>
<text x="0.412" y="0.445" font-size="0.006374" fill="hsl(120.0,100%,20%)">yjbanov</text>
<text x="1.776" y="0.356" font-size="0.003680" fill="hsl(120.0,100%,20%)">pkasting</text>
<text x="0.345" y="0.447" font-size="0.002125" fill="hsl(120.0,100%,20%)">whesse</text>
<text x="0.661" y="0.500" font-size="0.002125" fill="hsl(120.0,100%,20%)">mdebbar</text>
<text x="0.123" y="0.189" font-size="0.003005" fill="hsl(120.0,100%,20%)">nigeltao</text>
<text x="1.744" y="0.299" font-size="0.002125" fill="hsl(120.0,100%,20%)">enga</text>
<text x="1.880" y="0.173" font-size="0.004249" fill="hsl(120.0,100%,20%)">thestig</text>
</svg>
