<svg width="4000" height="2000" viewBox="-0.025 -0.025 2.05 1.05" xmlns="http://www.w3.org/2000/svg">
  <style>
    path {
      fill: none;
      stroke-linecap: round;
      stroke-opacity: 0.4;
    }

    text {
      text-anchor: middle;
      alignment-baseline: hanging;
    }
  </style>
  <g opacity="0.4">
<path d="M0.988 0.816 Q0.777 0.791 0.681 0.889" stroke="hsl(0.0,100%,35%)" stroke-width="0.00858"></path>
<path d="M0.988 0.816 Q1.419 0.616 1.123 0.362" stroke="hsl(0.0,100%,35%)" stroke-width="0.00233"></path>
<path d="M0.988 0.816 Q1.270 0.315 0.353 0.068" stroke="hsl(0.0,100%,35%)" stroke-width="0.00204"></path>
<path d="M0.988 0.816 Q1.272 0.415 0.551 0.189" stroke="hsl(0.0,100%,35%)" stroke-width="0.00175"></path>
<path d="M0.988 0.816 Q0.882 0.720 0.670 0.750" stroke="hsl(0.0,100%,35%)" stroke-width="0.00306"></path>
<path d="M0.988 0.816 Q1.557 0.553 1.169 0.218" stroke="hsl(0.0,100%,35%)" stroke-width="0.00015"></path>
<path d="M0.988 0.816 Q1.084 0.355 0.204 0.206" stroke="hsl(0.0,100%,35%)" stroke-width="0.00175"></path>
<path d="M0.988 0.816 Q1.457 0.458 0.862 0.151" stroke="hsl(0.0,100%,35%)" stroke-width="0.00058"></path>
<path d="M0.988 0.816 Q1.074 0.739 0.942 0.680" stroke="hsl(0.0,100%,35%)" stroke-width="0.00145"></path>
<path d="M0.988 0.816 Q1.478 0.686 1.331 0.418" stroke="hsl(0.0,100%,35%)" stroke-width="0.00015"></path>
<path d="M0.988 0.816 Q0.982 0.524 0.409 0.462" stroke="hsl(0.0,100%,35%)" stroke-width="0.00015"></path>
<path d="M0.988 0.816 Q1.797 0.537 1.430 0.082" stroke="hsl(0.0,100%,35%)" stroke-width="0.00015"></path>
<path d="M0.988 0.816 Q0.640 0.748 0.430 0.902" stroke="hsl(0.0,100%,35%)" stroke-width="0.00015"></path>
<path d="M0.681 0.889 Q0.893 0.914 0.988 0.816" stroke="hsl(0.0,100%,35%)" stroke-width="0.02270"></path>
<path d="M0.681 0.889 Q1.176 0.513 0.551 0.189" stroke="hsl(0.0,100%,35%)" stroke-width="0.00495"></path>
<path d="M0.681 0.889 Q1.174 0.413 0.353 0.068" stroke="hsl(0.0,100%,35%)" stroke-width="0.00393"></path>
<path d="M0.681 0.889 Q0.786 0.817 0.670 0.750" stroke="hsl(0.0,100%,35%)" stroke-width="0.09079"></path>
<path d="M0.681 0.889 Q1.305 0.870 1.404 0.561" stroke="hsl(0.0,100%,35%)" stroke-width="0.00495"></path>
<path d="M0.681 0.889 Q1.701 0.635 1.430 0.082" stroke="hsl(0.0,100%,35%)" stroke-width="0.00087"></path>
<path d="M0.681 0.889 Q0.546 0.654 0.058 0.668" stroke="hsl(0.0,100%,35%)" stroke-width="0.00015"></path>
<path d="M0.681 0.889 Q1.324 0.714 1.123 0.362" stroke="hsl(0.0,100%,35%)" stroke-width="0.00655"></path>
<path d="M0.681 0.889 Q0.881 0.563 0.290 0.394" stroke="hsl(0.0,100%,35%)" stroke-width="0.00087"></path>
<path d="M0.681 0.889 Q0.979 0.837 0.942 0.680" stroke="hsl(0.0,100%,35%)" stroke-width="0.00247"></path>
<path d="M0.681 0.889 Q1.368 0.990 1.716 0.678" stroke="hsl(0.0,100%,35%)" stroke-width="0.00087"></path>
<path d="M0.681 0.889 Q0.887 0.621 0.409 0.462" stroke="hsl(0.0,100%,35%)" stroke-width="0.00015"></path>
<path d="M0.681 0.889 Q1.097 0.591 0.606 0.323" stroke="hsl(0.0,100%,35%)" stroke-width="0.00015"></path>
<path d="M0.681 0.889 Q1.362 0.556 0.862 0.151" stroke="hsl(0.0,100%,35%)" stroke-width="0.00189"></path>
<path d="M0.681 0.889 Q1.045 0.668 0.694 0.442" stroke="hsl(0.0,100%,35%)" stroke-width="0.00015"></path>
<path d="M0.681 0.889 Q0.958 0.713 0.675 0.539" stroke="hsl(0.0,100%,35%)" stroke-width="0.00029"></path>
<path d="M0.681 0.889 Q1.461 0.651 1.169 0.218" stroke="hsl(0.0,100%,35%)" stroke-width="0.00131"></path>
<path d="M0.681 0.889 Q1.375 0.929 1.606 0.599" stroke="hsl(0.0,100%,35%)" stroke-width="0.00917"></path>
<path d="M0.681 0.889 Q1.411 0.500 0.813 0.059" stroke="hsl(0.0,100%,35%)" stroke-width="0.00015"></path>
<path d="M0.681 0.889 Q1.049 0.654 0.671 0.423" stroke="hsl(0.0,100%,35%)" stroke-width="0.00029"></path>
<path d="M0.681 0.889 Q1.181 0.999 1.505 0.780" stroke="hsl(0.0,100%,35%)" stroke-width="0.00029"></path>
<path d="M0.681 0.889 Q0.988 0.452 0.204 0.206" stroke="hsl(0.0,100%,35%)" stroke-width="0.00233"></path>
<path d="M0.681 0.889 Q1.382 0.784 1.331 0.418" stroke="hsl(0.0,100%,35%)" stroke-width="0.00087"></path>
<path d="M0.681 0.889 Q0.545 0.845 0.430 0.902" stroke="hsl(0.0,100%,35%)" stroke-width="0.00495"></path>
<path d="M0.681 0.889 Q1.444 0.492 0.837 0.032" stroke="hsl(0.0,100%,35%)" stroke-width="0.00073"></path>
<path d="M0.681 0.889 Q0.683 0.605 0.129 0.541" stroke="hsl(0.0,100%,35%)" stroke-width="0.00145"></path>
<path d="M1.123 0.362 Q1.174 0.577 1.606 0.599" stroke="hsl(120.0,100%,35%)" stroke-width="0.00844"></path>
<path d="M1.123 0.362 Q0.692 0.562 0.988 0.816" stroke="hsl(120.0,100%,35%)" stroke-width="0.00058"></path>
<path d="M1.123 0.362 Q0.973 0.061 0.353 0.068" stroke="hsl(120.0,100%,35%)" stroke-width="0.00844"></path>
<path d="M1.123 0.362 Q1.182 0.432 1.331 0.418" stroke="hsl(120.0,100%,35%)" stroke-width="0.00087"></path>
<path d="M1.123 0.362 Q0.585 0.465 0.670 0.750" stroke="hsl(120.0,100%,35%)" stroke-width="0.00407"></path>
<path d="M1.123 0.362 Q1.261 0.299 1.169 0.218" stroke="hsl(120.0,100%,35%)" stroke-width="0.00145"></path>
<path d="M1.123 0.362 Q0.976 0.161 0.551 0.189" stroke="hsl(120.0,100%,35%)" stroke-width="0.00189"></path>
<path d="M1.123 0.362 Q0.788 0.100 0.204 0.206" stroke="hsl(120.0,100%,35%)" stroke-width="0.00524"></path>
<path d="M1.123 0.362 Q0.778 0.485 0.942 0.680" stroke="hsl(120.0,100%,35%)" stroke-width="0.00160"></path>
<path d="M1.123 0.362 Q0.480 0.537 0.681 0.889" stroke="hsl(120.0,100%,35%)" stroke-width="0.00087"></path>
<path d="M1.123 0.362 Q1.167 0.639 1.716 0.678" stroke="hsl(120.0,100%,35%)" stroke-width="0.00015"></path>
<path d="M1.123 0.362 Q0.483 0.253 0.129 0.541" stroke="hsl(120.0,100%,35%)" stroke-width="0.00015"></path>
<path d="M1.123 0.362 Q1.104 0.518 1.404 0.561" stroke="hsl(120.0,100%,35%)" stroke-width="0.00058"></path>
<path d="M1.123 0.362 Q0.686 0.269 0.409 0.462" stroke="hsl(120.0,100%,35%)" stroke-width="0.00015"></path>
<path d="M1.123 0.362 Q0.980 0.647 1.505 0.780" stroke="hsl(120.0,100%,35%)" stroke-width="0.00015"></path>
<path d="M1.123 0.362 Q1.161 0.204 0.862 0.151" stroke="hsl(120.0,100%,35%)" stroke-width="0.00015"></path>
<path d="M1.123 0.362 Q0.998 0.405 1.054 0.475" stroke="hsl(120.0,100%,35%)" stroke-width="0.00015"></path>
<path d="M0.353 0.068 Q0.484 0.525 1.404 0.561" stroke="hsl(120.0,100%,35%)" stroke-width="0.00466"></path>
<path d="M0.353 0.068 Q0.554 0.584 1.606 0.599" stroke="hsl(120.0,100%,35%)" stroke-width="0.00582"></path>
<path d="M0.353 0.068 Q0.561 0.439 1.331 0.418" stroke="hsl(120.0,100%,35%)" stroke-width="0.00058"></path>
<path d="M0.353 0.068 Q-0.035 0.472 0.670 0.750" stroke="hsl(120.0,100%,35%)" stroke-width="0.00189"></path>
<path d="M0.353 0.068 Q0.640 0.306 1.169 0.218" stroke="hsl(120.0,100%,35%)" stroke-width="0.00087"></path>
<path d="M0.353 0.068 Q0.355 0.168 0.551 0.189" stroke="hsl(120.0,100%,35%)" stroke-width="0.00116"></path>
<path d="M0.353 0.068 Q0.137 0.368 0.675 0.539" stroke="hsl(120.0,100%,35%)" stroke-width="0.00029"></path>
<path d="M0.353 0.068 Q0.502 0.369 1.123 0.362" stroke="hsl(120.0,100%,35%)" stroke-width="0.00582"></path>
<path d="M0.353 0.068 Q-0.140 0.544 0.681 0.889" stroke="hsl(120.0,100%,35%)" stroke-width="0.00131"></path>
<path d="M0.353 0.068 Q0.547 0.645 1.716 0.678" stroke="hsl(120.0,100%,35%)" stroke-width="0.00015"></path>
<path d="M0.353 0.068 Q-0.275 0.309 0.058 0.668" stroke="hsl(120.0,100%,35%)" stroke-width="0.00015"></path>
<path d="M0.353 0.068 Q0.158 0.492 0.942 0.680" stroke="hsl(120.0,100%,35%)" stroke-width="0.00204"></path>
<path d="M0.353 0.068 Q0.167 0.107 0.204 0.206" stroke="hsl(120.0,100%,35%)" stroke-width="0.00800"></path>
<path d="M0.353 0.068 Q0.066 0.276 0.409 0.462" stroke="hsl(120.0,100%,35%)" stroke-width="0.00015"></path>
<path d="M0.353 0.068 Q0.072 0.569 0.988 0.816" stroke="hsl(120.0,100%,35%)" stroke-width="0.00029"></path>
<path d="M0.353 0.068 Q0.623 0.147 0.837 0.032" stroke="hsl(120.0,100%,35%)" stroke-width="0.00015"></path>
<path d="M0.353 0.068 Q0.541 0.211 0.862 0.151" stroke="hsl(120.0,100%,35%)" stroke-width="0.00029"></path>
<path d="M0.353 0.068 Q0.172 0.146 0.284 0.251" stroke="hsl(120.0,100%,35%)" stroke-width="0.00029"></path>
<path d="M0.551 0.189 Q0.056 0.565 0.681 0.889" stroke="hsl(240.0,100%,35%)" stroke-width="0.00757"></path>
<path d="M0.551 0.189 Q0.549 0.088 0.353 0.068" stroke="hsl(240.0,100%,35%)" stroke-width="0.00131"></path>
<path d="M0.551 0.189 Q0.363 0.128 0.204 0.206" stroke="hsl(240.0,100%,35%)" stroke-width="0.00291"></path>
<path d="M0.551 0.189 Q0.836 0.327 1.169 0.218" stroke="hsl(240.0,100%,35%)" stroke-width="0.00058"></path>
<path d="M0.551 0.189 Q0.058 0.280 0.129 0.541" stroke="hsl(240.0,100%,35%)" stroke-width="0.00233"></path>
<path d="M0.551 0.189 Q0.262 0.297 0.409 0.462" stroke="hsl(240.0,100%,35%)" stroke-width="0.00684"></path>
<path d="M0.551 0.189 Q0.698 0.390 1.123 0.362" stroke="hsl(240.0,100%,35%)" stroke-width="0.00669"></path>
<path d="M0.551 0.189 Q0.161 0.493 0.670 0.750" stroke="hsl(240.0,100%,35%)" stroke-width="0.01222"></path>
<path d="M0.551 0.189 Q0.680 0.546 1.404 0.561" stroke="hsl(240.0,100%,35%)" stroke-width="0.00451"></path>
<path d="M0.551 0.189 Q0.737 0.232 0.862 0.151" stroke="hsl(240.0,100%,35%)" stroke-width="0.02022"></path>
<path d="M0.551 0.189 Q0.743 0.666 1.716 0.678" stroke="hsl(240.0,100%,35%)" stroke-width="0.00233"></path>
<path d="M0.551 0.189 Q0.268 0.590 0.988 0.816" stroke="hsl(240.0,100%,35%)" stroke-width="0.00102"></path>
<path d="M0.551 0.189 Q0.256 0.239 0.290 0.394" stroke="hsl(240.0,100%,35%)" stroke-width="0.00553"></path>
<path d="M0.551 0.189 Q0.420 0.344 0.694 0.442" stroke="hsl(240.0,100%,35%)" stroke-width="0.00058"></path>
<path d="M0.551 0.189 Q0.786 0.176 0.813 0.059" stroke="hsl(240.0,100%,35%)" stroke-width="0.00058"></path>
<path d="M0.551 0.189 Q0.354 0.513 0.942 0.680" stroke="hsl(240.0,100%,35%)" stroke-width="0.00306"></path>
<path d="M0.551 0.189 Q0.626 0.285 0.831 0.270" stroke="hsl(240.0,100%,35%)" stroke-width="0.00451"></path>
<path d="M0.551 0.189 Q1.076 0.311 1.430 0.082" stroke="hsl(240.0,100%,35%)" stroke-width="0.00116"></path>
<path d="M0.551 0.189 Q0.278 0.669 1.155 0.908" stroke="hsl(240.0,100%,35%)" stroke-width="0.00015"></path>
<path d="M0.551 0.189 Q0.471 0.267 0.606 0.323" stroke="hsl(240.0,100%,35%)" stroke-width="0.00145"></path>
<path d="M0.551 0.189 Q0.750 0.605 1.606 0.599" stroke="hsl(240.0,100%,35%)" stroke-width="0.00160"></path>
<path d="M0.551 0.189 Q0.333 0.389 0.675 0.539" stroke="hsl(240.0,100%,35%)" stroke-width="0.00480"></path>
<path d="M0.551 0.189 Q0.819 0.167 0.837 0.032" stroke="hsl(240.0,100%,35%)" stroke-width="0.00058"></path>
<path d="M0.551 0.189 Q0.424 0.330 0.671 0.423" stroke="hsl(240.0,100%,35%)" stroke-width="0.00044"></path>
<path d="M0.551 0.189 Q0.556 0.675 1.505 0.780" stroke="hsl(240.0,100%,35%)" stroke-width="0.00349"></path>
<path d="M0.551 0.189 Q0.368 0.167 0.284 0.251" stroke="hsl(240.0,100%,35%)" stroke-width="0.00044"></path>
<path d="M0.551 0.189 Q-0.079 0.329 0.058 0.668" stroke="hsl(240.0,100%,35%)" stroke-width="0.00044"></path>
<path d="M0.551 0.189 Q0.863 0.219 0.990 0.073" stroke="hsl(240.0,100%,35%)" stroke-width="0.00015"></path>
<path d="M0.670 0.750 Q1.188 0.803 1.404 0.561" stroke="hsl(0.0,100%,35%)" stroke-width="0.00422"></path>
<path d="M0.670 0.750 Q1.060 0.446 0.551 0.189" stroke="hsl(0.0,100%,35%)" stroke-width="0.00262"></path>
<path d="M0.670 0.750 Q1.245 0.489 0.862 0.151" stroke="hsl(0.0,100%,35%)" stroke-width="0.00247"></path>
<path d="M0.670 0.750 Q0.565 0.822 0.681 0.889" stroke="hsl(0.0,100%,35%)" stroke-width="0.00946"></path>
<path d="M0.670 0.750 Q0.567 0.538 0.129 0.541" stroke="hsl(0.0,100%,35%)" stroke-width="0.00044"></path>
<path d="M0.670 0.750 Q0.962 0.874 1.268 0.759" stroke="hsl(0.0,100%,35%)" stroke-width="0.00015"></path>
<path d="M0.670 0.750 Q1.258 0.862 1.606 0.599" stroke="hsl(0.0,100%,35%)" stroke-width="0.00175"></path>
<path d="M0.670 0.750 Q1.057 0.346 0.353 0.068" stroke="hsl(0.0,100%,35%)" stroke-width="0.00087"></path>
<path d="M0.670 0.750 Q1.207 0.647 1.123 0.362" stroke="hsl(0.0,100%,35%)" stroke-width="0.00422"></path>
<path d="M0.670 0.750 Q0.765 0.496 0.290 0.394" stroke="hsl(0.0,100%,35%)" stroke-width="0.00015"></path>
<path d="M0.670 0.750 Q0.862 0.770 0.942 0.680" stroke="hsl(0.0,100%,35%)" stroke-width="0.00306"></path>
<path d="M0.670 0.750 Q0.787 0.926 1.155 0.908" stroke="hsl(0.0,100%,35%)" stroke-width="0.00029"></path>
<path d="M0.670 0.750 Q0.872 0.385 0.204 0.206" stroke="hsl(0.0,100%,35%)" stroke-width="0.00116"></path>
<path d="M0.670 0.750 Q1.251 0.923 1.716 0.678" stroke="hsl(0.0,100%,35%)" stroke-width="0.00015"></path>
<path d="M0.670 0.750 Q1.585 0.568 1.430 0.082" stroke="hsl(0.0,100%,35%)" stroke-width="0.00029"></path>
<path d="M0.670 0.750 Q0.776 0.847 0.988 0.816" stroke="hsl(0.0,100%,35%)" stroke-width="0.00073"></path>
<path d="M0.670 0.750 Q0.841 0.646 0.675 0.539" stroke="hsl(0.0,100%,35%)" stroke-width="0.00073"></path>
<path d="M0.670 0.750 Q1.064 0.932 1.505 0.780" stroke="hsl(0.0,100%,35%)" stroke-width="0.00015"></path>
<path d="M0.670 0.750 Q0.428 0.778 0.430 0.902" stroke="hsl(0.0,100%,35%)" stroke-width="0.00015"></path>
<path d="M1.169 0.218 Q1.082 0.496 1.606 0.599" stroke="hsl(120.0,100%,35%)" stroke-width="0.00087"></path>
<path d="M1.169 0.218 Q0.881 -0.020 0.353 0.068" stroke="hsl(120.0,100%,35%)" stroke-width="0.00102"></path>
<path d="M1.169 0.218 Q0.388 0.456 0.681 0.889" stroke="hsl(120.0,100%,35%)" stroke-width="0.00102"></path>
<path d="M1.169 0.218 Q0.752 0.235 0.694 0.442" stroke="hsl(120.0,100%,35%)" stroke-width="0.00015"></path>
<path d="M1.169 0.218 Q0.696 0.019 0.204 0.206" stroke="hsl(120.0,100%,35%)" stroke-width="0.00175"></path>
<path d="M1.169 0.218 Q0.594 0.188 0.409 0.462" stroke="hsl(120.0,100%,35%)" stroke-width="0.00015"></path>
<path d="M1.169 0.218 Q1.031 0.281 1.123 0.362" stroke="hsl(120.0,100%,35%)" stroke-width="0.00160"></path>
<path d="M1.169 0.218 Q0.493 0.384 0.670 0.750" stroke="hsl(120.0,100%,35%)" stroke-width="0.00015"></path>
<path d="M1.169 0.218 Q0.884 0.080 0.551 0.189" stroke="hsl(120.0,100%,35%)" stroke-width="0.00044"></path>
<path d="M1.169 0.218 Q0.888 0.566 1.505 0.780" stroke="hsl(120.0,100%,35%)" stroke-width="0.00015"></path>
<path d="M0.204 0.206 Q0.590 0.683 1.606 0.599" stroke="hsl(120.0,100%,35%)" stroke-width="0.00276"></path>
<path d="M0.204 0.206 Q0.389 0.167 0.353 0.068" stroke="hsl(120.0,100%,35%)" stroke-width="0.00495"></path>
<path d="M0.204 0.206 Q0.677 0.405 1.169 0.218" stroke="hsl(120.0,100%,35%)" stroke-width="0.00262"></path>
<path d="M0.204 0.206 Q0.598 0.538 1.331 0.418" stroke="hsl(120.0,100%,35%)" stroke-width="0.00044"></path>
<path d="M0.204 0.206 Q0.194 0.591 0.942 0.680" stroke="hsl(120.0,100%,35%)" stroke-width="0.00233"></path>
<path d="M0.204 0.206 Q0.002 0.572 0.670 0.750" stroke="hsl(120.0,100%,35%)" stroke-width="0.00044"></path>
<path d="M0.204 0.206 Q0.539 0.468 1.123 0.362" stroke="hsl(120.0,100%,35%)" stroke-width="0.00320"></path>
<path d="M0.204 0.206 Q-0.103 0.643 0.681 0.889" stroke="hsl(120.0,100%,35%)" stroke-width="0.00015"></path>
<path d="M0.204 0.206 Q0.520 0.624 1.404 0.561" stroke="hsl(120.0,100%,35%)" stroke-width="0.00015"></path>
<path d="M0.204 0.206 Q0.173 0.467 0.675 0.539" stroke="hsl(120.0,100%,35%)" stroke-width="0.00015"></path>
<path d="M0.204 0.206 Q0.392 0.267 0.551 0.189" stroke="hsl(120.0,100%,35%)" stroke-width="0.00073"></path>
<path d="M0.204 0.206 Q0.097 0.317 0.290 0.394" stroke="hsl(120.0,100%,35%)" stroke-width="0.00029"></path>
<path d="M0.204 0.206 Q0.660 0.246 0.837 0.032" stroke="hsl(120.0,100%,35%)" stroke-width="0.00015"></path>
<path d="M0.204 0.206 Q0.102 0.375 0.409 0.462" stroke="hsl(120.0,100%,35%)" stroke-width="0.00015"></path>
<path d="M0.204 0.206 Q-0.101 0.359 0.129 0.541" stroke="hsl(120.0,100%,35%)" stroke-width="0.00015"></path>
<path d="M0.862 0.151 Q0.286 0.412 0.670 0.750" stroke="hsl(240.0,100%,35%)" stroke-width="0.00262"></path>
<path d="M0.862 0.151 Q1.013 0.170 1.083 0.100" stroke="hsl(240.0,100%,35%)" stroke-width="0.00015"></path>
<path d="M0.862 0.151 Q0.805 0.465 1.404 0.561" stroke="hsl(240.0,100%,35%)" stroke-width="0.00800"></path>
<path d="M0.862 0.151 Q0.181 0.484 0.681 0.889" stroke="hsl(240.0,100%,35%)" stroke-width="0.00044"></path>
<path d="M0.862 0.151 Q1.201 0.230 1.430 0.082" stroke="hsl(240.0,100%,35%)" stroke-width="0.00015"></path>
<path d="M0.862 0.151 Q0.676 0.108 0.551 0.189" stroke="hsl(240.0,100%,35%)" stroke-width="0.00262"></path>
<path d="M0.862 0.151 Q0.479 0.432 0.942 0.680" stroke="hsl(240.0,100%,35%)" stroke-width="0.00015"></path>
<path d="M0.862 0.151 Q0.868 0.585 1.716 0.678" stroke="hsl(240.0,100%,35%)" stroke-width="0.00145"></path>
<path d="M0.862 0.151 Q0.386 0.216 0.409 0.462" stroke="hsl(240.0,100%,35%)" stroke-width="0.00029"></path>
<path d="M0.862 0.151 Q0.488 0.047 0.204 0.206" stroke="hsl(240.0,100%,35%)" stroke-width="0.00044"></path>
<path d="M0.862 0.151 Q0.875 0.524 1.606 0.599" stroke="hsl(240.0,100%,35%)" stroke-width="0.00029"></path>
<path d="M0.862 0.151 Q0.823 0.309 1.123 0.362" stroke="hsl(240.0,100%,35%)" stroke-width="0.00015"></path>
<path d="M0.862 0.151 Q0.944 0.087 0.837 0.032" stroke="hsl(240.0,100%,35%)" stroke-width="0.00073"></path>
<path d="M0.862 0.151 Q0.381 0.158 0.290 0.394" stroke="hsl(240.0,100%,35%)" stroke-width="0.00015"></path>
<path d="M0.862 0.151 Q0.674 0.008 0.353 0.068" stroke="hsl(240.0,100%,35%)" stroke-width="0.00015"></path>
<path d="M0.942 0.680 Q1.331 0.834 1.716 0.678" stroke="hsl(0.0,100%,35%)" stroke-width="0.00175"></path>
<path d="M0.942 0.680 Q0.750 0.661 0.670 0.750" stroke="hsl(0.0,100%,35%)" stroke-width="0.00757"></path>
<path d="M0.942 0.680 Q0.645 0.732 0.681 0.889" stroke="hsl(0.0,100%,35%)" stroke-width="0.00116"></path>
<path d="M0.942 0.680 Q1.287 0.557 1.123 0.362" stroke="hsl(0.0,100%,35%)" stroke-width="0.00218"></path>
<path d="M0.942 0.680 Q1.268 0.713 1.404 0.561" stroke="hsl(0.0,100%,35%)" stroke-width="0.00145"></path>
<path d="M0.942 0.680 Q1.339 0.772 1.606 0.599" stroke="hsl(0.0,100%,35%)" stroke-width="0.00364"></path>
<path d="M0.942 0.680 Q0.647 0.448 0.129 0.541" stroke="hsl(0.0,100%,35%)" stroke-width="0.00044"></path>
<path d="M0.942 0.680 Q0.952 0.296 0.204 0.206" stroke="hsl(0.0,100%,35%)" stroke-width="0.00509"></path>
<path d="M0.942 0.680 Q1.137 0.256 0.353 0.068" stroke="hsl(0.0,100%,35%)" stroke-width="0.00131"></path>
<path d="M0.942 0.680 Q1.140 0.356 0.551 0.189" stroke="hsl(0.0,100%,35%)" stroke-width="0.00029"></path>
<path d="M0.942 0.680 Q0.856 0.757 0.988 0.816" stroke="hsl(0.0,100%,35%)" stroke-width="0.00029"></path>
<path d="M0.942 0.680 Q1.325 0.399 0.862 0.151" stroke="hsl(0.0,100%,35%)" stroke-width="0.00015"></path>
<path d="M0.942 0.680 Q0.922 0.556 0.675 0.539" stroke="hsl(0.0,100%,35%)" stroke-width="0.00015"></path>
<path d="M1.331 0.418 Q1.272 0.348 1.123 0.362" stroke="hsl(120.0,100%,35%)" stroke-width="0.00175"></path>
<path d="M1.331 0.418 Q1.123 0.047 0.353 0.068" stroke="hsl(120.0,100%,35%)" stroke-width="0.00087"></path>
<path d="M1.331 0.418 Q0.735 0.452 0.670 0.750" stroke="hsl(120.0,100%,35%)" stroke-width="0.00029"></path>
<path d="M1.331 0.418 Q1.125 0.148 0.551 0.189" stroke="hsl(120.0,100%,35%)" stroke-width="0.00102"></path>
<path d="M1.331 0.418 Q1.324 0.564 1.606 0.599" stroke="hsl(120.0,100%,35%)" stroke-width="0.00233"></path>
<path d="M1.331 0.418 Q0.937 0.087 0.204 0.206" stroke="hsl(120.0,100%,35%)" stroke-width="0.00145"></path>
<path d="M1.331 0.418 Q0.830 0.198 0.290 0.394" stroke="hsl(120.0,100%,35%)" stroke-width="0.00015"></path>
<path d="M1.331 0.418 Q0.630 0.524 0.681 0.889" stroke="hsl(120.0,100%,35%)" stroke-width="0.00073"></path>
<path d="M0.409 0.462 Q0.404 0.404 0.290 0.394" stroke="hsl(240.0,100%,35%)" stroke-width="0.00058"></path>
<path d="M0.409 0.462 Q0.699 0.354 0.551 0.189" stroke="hsl(240.0,100%,35%)" stroke-width="0.00058"></path>
<path d="M0.409 0.462 Q0.481 0.554 0.675 0.539" stroke="hsl(240.0,100%,35%)" stroke-width="0.00058"></path>
<path d="M0.409 0.462 Q0.828 0.711 1.404 0.561" stroke="hsl(240.0,100%,35%)" stroke-width="0.00015"></path>
<path d="M0.409 0.462 Q0.502 0.678 0.942 0.680" stroke="hsl(240.0,100%,35%)" stroke-width="0.00015"></path>
<path d="M0.409 0.462 Q0.898 0.770 1.606 0.599" stroke="hsl(240.0,100%,35%)" stroke-width="0.00015"></path>
<path d="M0.409 0.462 Q0.846 0.555 1.123 0.362" stroke="hsl(240.0,100%,35%)" stroke-width="0.00015"></path>
<path d="M1.430 0.082 Q1.091 0.003 0.862 0.151" stroke="hsl(240.0,100%,35%)" stroke-width="0.00480"></path>
<path d="M1.430 0.082 Q0.905 -0.040 0.551 0.189" stroke="hsl(240.0,100%,35%)" stroke-width="0.00073"></path>
<path d="M1.430 0.082 Q0.515 0.264 0.670 0.750" stroke="hsl(240.0,100%,35%)" stroke-width="0.00058"></path>
<path d="M1.430 0.082 Q1.104 0.376 1.606 0.599" stroke="hsl(240.0,100%,35%)" stroke-width="0.00029"></path>
<path d="M1.430 0.082 Q0.903 -0.141 0.353 0.068" stroke="hsl(240.0,100%,35%)" stroke-width="0.00015"></path>
<path d="M1.430 0.082 Q1.033 0.316 1.404 0.561" stroke="hsl(240.0,100%,35%)" stroke-width="0.00015"></path>
<path d="M0.430 0.902 Q0.566 0.946 0.681 0.889" stroke="hsl(0.0,100%,35%)" stroke-width="0.00436"></path>
<path d="M0.430 0.902 Q0.778 0.971 0.988 0.816" stroke="hsl(0.0,100%,35%)" stroke-width="0.00029"></path>
<path d="M0.430 0.902 Q0.671 0.874 0.670 0.750" stroke="hsl(0.0,100%,35%)" stroke-width="0.00335"></path>
<path d="M0.430 0.902 Q0.864 0.894 0.942 0.680" stroke="hsl(0.0,100%,35%)" stroke-width="0.00029"></path>
<path d="M0.675 0.539 Q0.503 0.644 0.670 0.750" stroke="hsl(240.0,100%,35%)" stroke-width="0.00029"></path>
<path d="M0.675 0.539 Q0.598 0.389 0.290 0.394" stroke="hsl(240.0,100%,35%)" stroke-width="0.00102"></path>
<path d="M0.675 0.539 Q0.893 0.339 0.551 0.189" stroke="hsl(240.0,100%,35%)" stroke-width="0.00058"></path>
<path d="M0.675 0.539 Q0.604 0.447 0.409 0.462" stroke="hsl(240.0,100%,35%)" stroke-width="0.00044"></path>
<path d="M0.675 0.539 Q0.263 0.480 0.058 0.668" stroke="hsl(240.0,100%,35%)" stroke-width="0.00015"></path>
<path d="M0.675 0.539 Q1.161 0.318 0.837 0.032" stroke="hsl(240.0,100%,35%)" stroke-width="0.00015"></path>
<path d="M0.290 0.394 Q0.659 0.440 0.831 0.270" stroke="hsl(240.0,100%,35%)" stroke-width="0.00015"></path>
<path d="M0.290 0.394 Q0.366 0.543 0.675 0.539" stroke="hsl(240.0,100%,35%)" stroke-width="0.00145"></path>
<path d="M0.290 0.394 Q0.295 0.452 0.409 0.462" stroke="hsl(240.0,100%,35%)" stroke-width="0.00189"></path>
<path d="M0.290 0.394 Q0.397 0.283 0.204 0.206" stroke="hsl(240.0,100%,35%)" stroke-width="0.00073"></path>
<path d="M0.290 0.394 Q0.585 0.344 0.551 0.189" stroke="hsl(240.0,100%,35%)" stroke-width="0.00058"></path>
<path d="M0.290 0.394 Q0.089 0.720 0.681 0.889" stroke="hsl(240.0,100%,35%)" stroke-width="0.00029"></path>
<path d="M0.290 0.394 Q0.194 0.648 0.670 0.750" stroke="hsl(240.0,100%,35%)" stroke-width="0.00015"></path>
<path d="M0.058 0.668 Q0.123 0.789 0.374 0.784" stroke="hsl(240.0,100%,35%)" stroke-width="0.00015"></path>
<path d="M0.058 0.668 Q0.469 0.727 0.675 0.539" stroke="hsl(240.0,100%,35%)" stroke-width="0.00015"></path>
<path d="M0.058 0.668 Q0.688 0.527 0.551 0.189" stroke="hsl(240.0,100%,35%)" stroke-width="0.00015"></path>
<path d="M0.837 0.032 Q0.381 -0.007 0.204 0.206" stroke="hsl(240.0,100%,35%)" stroke-width="0.00015"></path>
<path d="M0.837 0.032 Q0.076 0.145 0.129 0.541" stroke="hsl(240.0,100%,35%)" stroke-width="0.00102"></path>
<path d="M0.837 0.032 Q0.179 0.358 0.670 0.750" stroke="hsl(240.0,100%,35%)" stroke-width="0.00015"></path>
<path d="M0.837 0.032 Q0.074 0.429 0.681 0.889" stroke="hsl(240.0,100%,35%)" stroke-width="0.00015"></path>
<path d="M1.404 0.561 Q1.474 0.621 1.606 0.599" stroke="hsl(120.0,100%,35%)" stroke-width="0.02663"></path>
<path d="M1.404 0.561 Q0.781 0.580 0.681 0.889" stroke="hsl(120.0,100%,35%)" stroke-width="0.01077"></path>
<path d="M1.404 0.561 Q1.273 0.104 0.353 0.068" stroke="hsl(120.0,100%,35%)" stroke-width="0.00407"></path>
<path d="M1.404 0.561 Q0.886 0.509 0.670 0.750" stroke="hsl(120.0,100%,35%)" stroke-width="0.00727"></path>
<path d="M1.404 0.561 Q1.276 0.204 0.551 0.189" stroke="hsl(120.0,100%,35%)" stroke-width="0.00160"></path>
<path d="M1.404 0.561 Q1.078 0.528 0.942 0.680" stroke="hsl(120.0,100%,35%)" stroke-width="0.00058"></path>
<path d="M1.404 0.561 Q1.461 0.248 0.862 0.151" stroke="hsl(120.0,100%,35%)" stroke-width="0.00393"></path>
<path d="M1.404 0.561 Q1.057 0.404 0.675 0.539" stroke="hsl(120.0,100%,35%)" stroke-width="0.00029"></path>
<path d="M1.404 0.561 Q1.088 0.144 0.204 0.206" stroke="hsl(120.0,100%,35%)" stroke-width="0.00131"></path>
<path d="M1.404 0.561 Q1.423 0.405 1.123 0.362" stroke="hsl(120.0,100%,35%)" stroke-width="0.00073"></path>
<path d="M1.404 0.561 Q1.467 0.682 1.716 0.678" stroke="hsl(120.0,100%,35%)" stroke-width="0.00029"></path>
<path d="M1.404 0.561 Q0.992 0.606 0.988 0.816" stroke="hsl(120.0,100%,35%)" stroke-width="0.00015"></path>
<path d="M0.129 0.541 Q0.491 0.605 0.694 0.442" stroke="hsl(240.0,100%,35%)" stroke-width="0.00029"></path>
<path d="M0.129 0.541 Q0.890 0.428 0.837 0.032" stroke="hsl(240.0,100%,35%)" stroke-width="0.00073"></path>
<path d="M0.129 0.541 Q0.127 0.825 0.681 0.889" stroke="hsl(240.0,100%,35%)" stroke-width="0.00029"></path>
<path d="M0.129 0.541 Q0.821 0.865 1.606 0.599" stroke="hsl(240.0,100%,35%)" stroke-width="0.00015"></path>
<path d="M0.129 0.541 Q0.434 0.389 0.204 0.206" stroke="hsl(240.0,100%,35%)" stroke-width="0.00044"></path>
<path d="M0.129 0.541 Q0.332 0.558 0.409 0.462" stroke="hsl(240.0,100%,35%)" stroke-width="0.00044"></path>
<path d="M0.129 0.541 Q0.232 0.754 0.670 0.750" stroke="hsl(240.0,100%,35%)" stroke-width="0.00029"></path>
<path d="M0.129 0.541 Q0.751 0.806 1.404 0.561" stroke="hsl(240.0,100%,35%)" stroke-width="0.00015"></path>
<path d="M0.129 0.541 Q0.425 0.773 0.942 0.680" stroke="hsl(240.0,100%,35%)" stroke-width="0.00015"></path>
<path d="M1.268 0.759 Q0.975 0.635 0.670 0.750" stroke="hsl(0.0,100%,35%)" stroke-width="0.00029"></path>
<path d="M1.268 0.759 Q1.092 0.811 1.155 0.908" stroke="hsl(0.0,100%,35%)" stroke-width="0.00015"></path>
<path d="M1.606 0.599 Q1.405 0.083 0.353 0.068" stroke="hsl(120.0,100%,35%)" stroke-width="0.00538"></path>
<path d="M1.606 0.599 Q1.692 0.321 1.169 0.218" stroke="hsl(120.0,100%,35%)" stroke-width="0.00044"></path>
<path d="M1.606 0.599 Q0.912 0.559 0.681 0.889" stroke="hsl(120.0,100%,35%)" stroke-width="0.00189"></path>
<path d="M1.606 0.599 Q1.613 0.454 1.331 0.418" stroke="hsl(120.0,100%,35%)" stroke-width="0.00349"></path>
<path d="M1.606 0.599 Q1.017 0.488 0.670 0.750" stroke="hsl(120.0,100%,35%)" stroke-width="0.00218"></path>
<path d="M1.606 0.599 Q1.189 0.383 0.675 0.539" stroke="hsl(120.0,100%,35%)" stroke-width="0.00175"></path>
<path d="M1.606 0.599 Q1.554 0.384 1.123 0.362" stroke="hsl(120.0,100%,35%)" stroke-width="0.01411"></path>
<path d="M1.606 0.599 Q1.209 0.507 0.942 0.680" stroke="hsl(120.0,100%,35%)" stroke-width="0.00044"></path>
<path d="M1.606 0.599 Q1.598 0.661 1.716 0.678" stroke="hsl(120.0,100%,35%)" stroke-width="0.00029"></path>
<path d="M1.606 0.599 Q1.407 0.183 0.551 0.189" stroke="hsl(120.0,100%,35%)" stroke-width="0.00058"></path>
<path d="M1.606 0.599 Q1.535 0.540 1.404 0.561" stroke="hsl(120.0,100%,35%)" stroke-width="0.00087"></path>
<path d="M1.606 0.599 Q1.219 0.123 0.204 0.206" stroke="hsl(120.0,100%,35%)" stroke-width="0.01164"></path>
<path d="M1.606 0.599 Q1.642 0.171 0.813 0.059" stroke="hsl(120.0,100%,35%)" stroke-width="0.00015"></path>
<path d="M1.606 0.599 Q1.117 0.292 0.409 0.462" stroke="hsl(120.0,100%,35%)" stroke-width="0.00029"></path>
<path d="M1.155 0.908 Q1.038 0.732 0.670 0.750" stroke="hsl(0.0,100%,35%)" stroke-width="0.00626"></path>
<path d="M1.155 0.908 Q1.331 0.856 1.268 0.759" stroke="hsl(0.0,100%,35%)" stroke-width="0.00015"></path>
<path d="M1.155 0.908 Q0.933 0.803 0.681 0.889" stroke="hsl(0.0,100%,35%)" stroke-width="0.00015"></path>
<path d="M1.155 0.908 Q0.935 0.519 0.129 0.541" stroke="hsl(0.0,100%,35%)" stroke-width="0.00015"></path>
<path d="M1.155 0.908 Q1.557 0.784 1.404 0.561" stroke="hsl(0.0,100%,35%)" stroke-width="0.00015"></path>
<path d="M1.716 0.678 Q1.529 0.687 1.505 0.780" stroke="hsl(240.0,100%,35%)" stroke-width="0.00436"></path>
<path d="M1.716 0.678 Q1.710 0.243 0.862 0.151" stroke="hsl(240.0,100%,35%)" stroke-width="0.00262"></path>
<path d="M1.716 0.678 Q1.328 0.524 0.942 0.680" stroke="hsl(240.0,100%,35%)" stroke-width="0.00087"></path>
<path d="M1.716 0.678 Q1.525 0.200 0.551 0.189" stroke="hsl(240.0,100%,35%)" stroke-width="0.00102"></path>
<path d="M1.716 0.678 Q1.230 0.250 0.290 0.394" stroke="hsl(240.0,100%,35%)" stroke-width="0.00015"></path>
<path d="M1.716 0.678 Q1.393 0.356 0.694 0.442" stroke="hsl(240.0,100%,35%)" stroke-width="0.00015"></path>
<path d="M1.716 0.678 Q2.050 0.322 1.430 0.082" stroke="hsl(240.0,100%,35%)" stroke-width="0.00029"></path>
<path d="M1.716 0.678 Q1.653 0.557 1.404 0.561" stroke="hsl(240.0,100%,35%)" stroke-width="0.00044"></path>
<path d="M1.716 0.678 Q1.724 0.616 1.606 0.599" stroke="hsl(240.0,100%,35%)" stroke-width="0.00015"></path>
<path d="M1.716 0.678 Q1.672 0.401 1.123 0.362" stroke="hsl(240.0,100%,35%)" stroke-width="0.00015"></path>
<path d="M1.716 0.678 Q1.731 0.471 1.331 0.418" stroke="hsl(240.0,100%,35%)" stroke-width="0.00015"></path>
<path d="M1.716 0.678 Q1.135 0.505 0.670 0.750" stroke="hsl(240.0,100%,35%)" stroke-width="0.00087"></path>
<path d="M1.716 0.678 Q1.030 0.576 0.681 0.889" stroke="hsl(240.0,100%,35%)" stroke-width="0.00015"></path>
<path d="M1.716 0.678 Q1.337 0.140 0.204 0.206" stroke="hsl(240.0,100%,35%)" stroke-width="0.00015"></path>
<path d="M1.505 0.780 Q1.501 0.293 0.551 0.189" stroke="hsl(240.0,100%,35%)" stroke-width="0.00160"></path>
<path d="M1.505 0.780 Q1.693 0.771 1.716 0.678" stroke="hsl(240.0,100%,35%)" stroke-width="0.00262"></path>
<path d="M1.505 0.780 Q1.421 0.371 0.606 0.323" stroke="hsl(240.0,100%,35%)" stroke-width="0.00015"></path>
<path d="M1.505 0.780 Q1.008 0.385 0.129 0.541" stroke="hsl(240.0,100%,35%)" stroke-width="0.00087"></path>
<path d="M1.505 0.780 Q1.769 0.272 0.837 0.032" stroke="hsl(240.0,100%,35%)" stroke-width="0.00015"></path>
<path d="M1.505 0.780 Q1.687 0.337 0.862 0.151" stroke="hsl(240.0,100%,35%)" stroke-width="0.00015"></path>
<path d="M1.505 0.780 Q1.006 0.669 0.681 0.889" stroke="hsl(240.0,100%,35%)" stroke-width="0.00029"></path>
<path d="M1.505 0.780 Q1.111 0.598 0.670 0.750" stroke="hsl(240.0,100%,35%)" stroke-width="0.00029"></path>
<path d="M1.505 0.780 Q1.304 0.617 0.942 0.680" stroke="hsl(240.0,100%,35%)" stroke-width="0.00029"></path>
<path d="M1.083 0.100 Q0.931 0.081 0.862 0.151" stroke="hsl(240.0,100%,35%)" stroke-width="0.00349"></path>
<path d="M1.083 0.100 Q0.746 0.038 0.551 0.189" stroke="hsl(240.0,100%,35%)" stroke-width="0.00044"></path>
<path d="M1.083 0.100 Q0.937 0.515 1.716 0.678" stroke="hsl(240.0,100%,35%)" stroke-width="0.00087"></path>
<path d="M1.083 0.100 Q0.548 0.362 0.942 0.680" stroke="hsl(240.0,100%,35%)" stroke-width="0.00029"></path>
<path d="M1.083 0.100 Q0.945 0.454 1.606 0.599" stroke="hsl(240.0,100%,35%)" stroke-width="0.00015"></path>
<path d="M0.606 0.323 Q0.686 0.245 0.551 0.189" stroke="hsl(240.0,100%,35%)" stroke-width="0.00873"></path>
<path d="M0.606 0.323 Q0.690 0.731 1.505 0.780" stroke="hsl(240.0,100%,35%)" stroke-width="0.00029"></path>
<path d="M0.606 0.323 Q0.191 0.621 0.681 0.889" stroke="hsl(240.0,100%,35%)" stroke-width="0.00029"></path>
<path d="M0.606 0.323 Q0.885 0.661 1.606 0.599" stroke="hsl(240.0,100%,35%)" stroke-width="0.00015"></path>
<path d="M0.606 0.323 Q0.833 0.446 1.123 0.362" stroke="hsl(240.0,100%,35%)" stroke-width="0.00015"></path>
<path d="M0.606 0.323 Q0.684 0.145 0.353 0.068" stroke="hsl(240.0,100%,35%)" stroke-width="0.00015"></path>
<path d="M0.606 0.323 Q0.498 0.184 0.204 0.206" stroke="hsl(240.0,100%,35%)" stroke-width="0.00015"></path>
<path d="M0.606 0.323 Q0.396 0.353 0.409 0.462" stroke="hsl(240.0,100%,35%)" stroke-width="0.00029"></path>
<path d="M0.606 0.323 Q0.468 0.445 0.675 0.539" stroke="hsl(240.0,100%,35%)" stroke-width="0.00015"></path>
<path d="M0.282 0.288 Q0.681 0.335 0.862 0.151" stroke="hsl(240.0,100%,35%)" stroke-width="0.00015"></path>
<path d="M0.282 0.288 Q0.308 0.231 0.204 0.206" stroke="hsl(240.0,100%,35%)" stroke-width="0.00015"></path>
<path d="M0.282 0.288 Q0.496 0.292 0.551 0.189" stroke="hsl(240.0,100%,35%)" stroke-width="0.00015"></path>
<path d="M0.282 0.288 Q0.687 0.770 1.716 0.678" stroke="hsl(240.0,100%,35%)" stroke-width="0.00015"></path>
<path d="M0.284 0.251 Q0.653 0.317 0.862 0.151" stroke="hsl(240.0,100%,35%)" stroke-width="0.00044"></path>
<path d="M0.284 0.251 Q0.468 0.273 0.551 0.189" stroke="hsl(240.0,100%,35%)" stroke-width="0.00044"></path>
<path d="M0.284 0.251 Q0.466 0.173 0.353 0.068" stroke="hsl(240.0,100%,35%)" stroke-width="0.00044"></path>
<path d="M0.284 0.251 Q0.280 0.213 0.204 0.206" stroke="hsl(240.0,100%,35%)" stroke-width="0.00015"></path>
<path d="M0.284 0.251 Q-0.162 0.414 0.058 0.668" stroke="hsl(240.0,100%,35%)" stroke-width="0.00015"></path>
<path d="M0.284 0.251 Q0.178 0.382 0.409 0.462" stroke="hsl(240.0,100%,35%)" stroke-width="0.00029"></path>
<path d="M0.694 0.442 Q0.435 0.591 0.670 0.750" stroke="hsl(240.0,100%,35%)" stroke-width="0.00058"></path>
<path d="M0.694 0.442 Q0.728 0.715 1.268 0.759" stroke="hsl(240.0,100%,35%)" stroke-width="0.00015"></path>
<path d="M0.694 0.442 Q1.111 0.425 1.169 0.218" stroke="hsl(240.0,100%,35%)" stroke-width="0.00015"></path>
<path d="M0.694 0.442 Q0.332 0.379 0.129 0.541" stroke="hsl(240.0,100%,35%)" stroke-width="0.00029"></path>
<path d="M0.374 0.784 Q0.309 0.662 0.058 0.668" stroke="hsl(240.0,100%,35%)" stroke-width="0.00073"></path>
<path d="M0.374 0.784 Q0.741 0.845 0.942 0.680" stroke="hsl(240.0,100%,35%)" stroke-width="0.00015"></path>
<path d="M0.374 0.784 Q0.720 0.721 0.675 0.539" stroke="hsl(240.0,100%,35%)" stroke-width="0.00015"></path>
<path d="M0.374 0.784 Q0.939 0.522 0.551 0.189" stroke="hsl(240.0,100%,35%)" stroke-width="0.00015"></path>
<path d="M0.692 0.602 Q0.562 0.672 0.670 0.750" stroke="hsl(0.0,100%,35%)" stroke-width="0.00044"></path>
<path d="M0.692 0.602 Q1.137 0.410 0.862 0.151" stroke="hsl(0.0,100%,35%)" stroke-width="0.00015"></path>
<path d="M0.692 0.602 Q0.952 0.367 0.551 0.189" stroke="hsl(0.0,100%,35%)" stroke-width="0.00015"></path>
<path d="M0.831 0.270 Q0.461 0.224 0.290 0.394" stroke="hsl(240.0,100%,35%)" stroke-width="0.00116"></path>
<path d="M0.831 0.270 Q0.538 0.373 0.675 0.539" stroke="hsl(240.0,100%,35%)" stroke-width="0.00015"></path>
<path d="M0.831 0.270 Q0.904 0.374 1.123 0.362" stroke="hsl(240.0,100%,35%)" stroke-width="0.00015"></path>
<path d="M0.831 0.270 Q0.756 0.174 0.551 0.189" stroke="hsl(240.0,100%,35%)" stroke-width="0.00087"></path>
<path d="M1.679 0.104 Q0.850 0.245 0.942 0.680" stroke="hsl(240.0,100%,35%)" stroke-width="0.00015"></path>
<path d="M1.679 0.104 Q1.572 0.043 1.430 0.082" stroke="hsl(240.0,100%,35%)" stroke-width="0.00291"></path>
<path d="M1.679 0.104 Q1.047 -0.079 0.551 0.189" stroke="hsl(240.0,100%,35%)" stroke-width="0.00044"></path>
<path d="M1.679 0.104 Q0.552 0.297 0.681 0.889" stroke="hsl(240.0,100%,35%)" stroke-width="0.00015"></path>
<path d="M1.679 0.104 Q1.232 -0.036 0.862 0.151" stroke="hsl(240.0,100%,35%)" stroke-width="0.00044"></path>
<path d="M0.990 0.073 Q0.678 0.043 0.551 0.189" stroke="hsl(240.0,100%,35%)" stroke-width="0.00044"></path>
<path d="M0.990 0.073 Q0.946 0.022 0.837 0.032" stroke="hsl(240.0,100%,35%)" stroke-width="0.00058"></path>
<path d="M0.990 0.073 Q0.288 0.348 0.670 0.750" stroke="hsl(240.0,100%,35%)" stroke-width="0.00015"></path>
<path d="M0.534 0.544 Q0.437 0.675 0.670 0.750" stroke="hsl(0.0,100%,35%)" stroke-width="0.00116"></path>
<path d="M0.534 0.544 Q0.729 0.798 1.268 0.759" stroke="hsl(0.0,100%,35%)" stroke-width="0.00015"></path>
<path d="M0.534 0.544 Q0.334 0.462 0.129 0.541" stroke="hsl(0.0,100%,35%)" stroke-width="0.00015"></path>
<path d="M0.820 0.395 Q1.136 0.376 1.169 0.218" stroke="hsl(120.0,100%,35%)" stroke-width="0.00087"></path>
<path d="M0.820 0.395 Q0.998 0.439 1.123 0.362" stroke="hsl(120.0,100%,35%)" stroke-width="0.00087"></path>
<path d="M0.820 0.395 Q0.663 0.177 0.204 0.206" stroke="hsl(120.0,100%,35%)" stroke-width="0.00015"></path>
<path d="M0.556 0.010 Q0.223 0.038 0.204 0.206" stroke="hsl(120.0,100%,35%)" stroke-width="0.00015"></path>
<path d="M0.556 0.010 Q0.408 -0.002 0.353 0.068" stroke="hsl(120.0,100%,35%)" stroke-width="0.00015"></path>
<path d="M0.556 0.010 Q-0.084 0.475 0.681 0.889" stroke="hsl(120.0,100%,35%)" stroke-width="0.00015"></path>
<path d="M0.642 0.074 Q0.652 0.314 1.123 0.362" stroke="hsl(120.0,100%,35%)" stroke-width="0.00058"></path>
<path d="M0.642 0.074 Q0.317 0.053 0.204 0.206" stroke="hsl(120.0,100%,35%)" stroke-width="0.00204"></path>
<path d="M0.642 0.074 Q0.503 0.013 0.353 0.068" stroke="hsl(120.0,100%,35%)" stroke-width="0.00087"></path>
<path d="M0.642 0.074 Q0.115 0.418 0.670 0.750" stroke="hsl(120.0,100%,35%)" stroke-width="0.00015"></path>
<path d="M0.642 0.074 Q0.221 0.515 0.988 0.816" stroke="hsl(120.0,100%,35%)" stroke-width="0.00015"></path>
<path d="M0.642 0.074 Q0.633 0.470 1.404 0.561" stroke="hsl(120.0,100%,35%)" stroke-width="0.00015"></path>
<path d="M0.895 0.210 Q0.552 0.070 0.204 0.206" stroke="hsl(120.0,100%,35%)" stroke-width="0.00029"></path>
<path d="M0.895 0.210 Q0.451 0.239 0.409 0.462" stroke="hsl(120.0,100%,35%)" stroke-width="0.00015"></path>
<path d="M0.895 0.210 Q0.815 0.227 0.831 0.270" stroke="hsl(120.0,100%,35%)" stroke-width="0.00015"></path>
</g>
<text x="0.988" y="0.797" font-size="0.038441" fill="hsl(0.0,100%,20%)">armansito</text>
<text x="0.681" y="0.849" font-size="0.080684" fill="hsl(0.0,100%,20%)">johnstiles</text>
<text x="1.123" y="0.336" font-size="0.051298" fill="hsl(120.0,100%,20%)">michaelludwig</text>
<text x="0.353" y="0.045" font-size="0.046200" fill="hsl(120.0,100%,20%)">jvanverth</text>
<text x="0.551" y="0.157" font-size="0.063964" fill="hsl(240.0,100%,20%)">kjlubick</text>
<text x="0.670" y="0.713" font-size="0.074209" fill="hsl(0.0,100%,20%)">brianosman</text>
<text x="1.169" y="0.207" font-size="0.021892" fill="hsl(120.0,100%,20%)">nicolettep</text>
<text x="0.204" y="0.184" font-size="0.044934" fill="hsl(120.0,100%,20%)">egdaniel</text>
<text x="0.862" y="0.130" font-size="0.042654" fill="hsl(240.0,100%,20%)">bungeman</text>
<text x="0.942" y="0.661" font-size="0.037030" fill="hsl(0.0,100%,20%)">bsalomon</text>
<text x="1.331" y="0.408" font-size="0.021483" fill="hsl(120.0,100%,20%)">jamesgk</text>
<text x="0.409" y="0.452" font-size="0.020747" fill="hsl(240.0,100%,20%)">rmistry</text>
<text x="1.430" y="0.072" font-size="0.019535" fill="hsl(240.0,100%,20%)">jlavrova</text>
<text x="0.430" y="0.892" font-size="0.020315" fill="hsl(0.0,100%,20%)">ethannicholas</text>
<text x="0.675" y="0.529" font-size="0.020424" fill="hsl(240.0,100%,20%)">borenet</text>
<text x="0.290" y="0.383" font-size="0.021586" fill="hsl(240.0,100%,20%)">jcgregorio</text>
<text x="0.058" y="0.664" font-size="0.008159" fill="hsl(240.0,100%,20%)">hcm</text>
<text x="0.837" y="0.026" font-size="0.012814" fill="hsl(240.0,100%,20%)">djsollen</text>
<text x="1.404" y="0.535" font-size="0.051857" fill="hsl(120.0,100%,20%)">herb</text>
<text x="0.129" y="0.532" font-size="0.017750" fill="hsl(240.0,100%,20%)">scroggo</text>
<text x="1.268" y="0.756" font-size="0.005573" fill="hsl(0.0,100%,20%)">jreck</text>
<text x="1.606" y="0.571" font-size="0.057343" fill="hsl(120.0,100%,20%)">robertphillips</text>
<text x="1.155" y="0.900" font-size="0.015044" fill="hsl(0.0,100%,20%)">ccameron</text>
<text x="1.716" y="0.665" font-size="0.026226" fill="hsl(240.0,100%,20%)">fmalita</text>
<text x="1.505" y="0.769" font-size="0.021586" fill="hsl(240.0,100%,20%)">jmbetancourt</text>
<text x="1.083" y="0.093" font-size="0.012814" fill="hsl(240.0,100%,20%)">drott</text>
<text x="0.606" y="0.313" font-size="0.019192" fill="hsl(240.0,100%,20%)">cmumford</text>
<text x="0.282" y="0.286" font-size="0.004213" fill="hsl(240.0,100%,20%)">dnfield</text>
<text x="0.284" y="0.247" font-size="0.008937" fill="hsl(240.0,100%,20%)">erikrose</text>
<text x="0.694" y="0.438" font-size="0.008686" fill="hsl(240.0,100%,20%)">nscobie</text>
<text x="0.374" y="0.780" font-size="0.006320" fill="hsl(240.0,100%,20%)">sharaks</text>
<text x="0.692" y="0.599" font-size="0.004710" fill="hsl(0.0,100%,20%)">iapres</text>
<text x="0.831" y="0.263" font-size="0.014746" fill="hsl(240.0,100%,20%)">lovisolo</text>
<text x="0.813" y="0.056" font-size="0.005160" fill="hsl(240.0,100%,20%)">tdenniston</text>
<text x="0.671" y="0.420" font-size="0.004710" fill="hsl(240.0,100%,20%)">wrightgeorge</text>
<text x="1.679" y="0.098" font-size="0.011147" fill="hsl(240.0,100%,20%)">jsimmons</text>
<text x="0.990" y="0.070" font-size="0.006320" fill="hsl(240.0,100%,20%)">nifong</text>
<text x="0.534" y="0.541" font-size="0.006661" fill="hsl(0.0,100%,20%)">kyslov</text>
<text x="0.820" y="0.391" font-size="0.007595" fill="hsl(120.0,100%,20%)">lehoangquyen</text>
<text x="1.054" y="0.474" font-size="0.002107" fill="hsl(120.0,100%,20%)">csmartdalton</text>
<text x="0.556" y="0.009" font-size="0.003649" fill="hsl(120.0,100%,20%)">nathbappai</text>
<text x="0.642" y="0.069" font-size="0.010946" fill="hsl(120.0,100%,20%)">penghuang</text>
<text x="0.895" y="0.208" font-size="0.004213" fill="hsl(120.0,100%,20%)">shuangshuang.zhou</text>
</svg>
