<svg width="4000" height="2000" viewBox="-0.025 -0.025 2.05 1.05" xmlns="http://www.w3.org/2000/svg">
  <style>
    path {
      fill: none;
      stroke-linecap: round;
      stroke-opacity: 0.4;
    }

    text {
      text-anchor: middle;
      alignment-baseline: hanging;
    }
  </style>
  <g opacity="0.4">
<path d="M1.421 0.262 Q1.569 0.345 1.763 0.291" stroke="hsl(0.0,100%,35%)" stroke-width="0.00774"></path>
<path d="M1.421 0.262 Q1.729 0.268 1.808 0.119" stroke="hsl(0.0,100%,35%)" stroke-width="0.00516"></path>
<path d="M1.421 0.262 Q0.678 0.201 0.397 0.550" stroke="hsl(0.0,100%,35%)" stroke-width="0.00258"></path>
<path d="M1.763 0.291 Q1.923 0.214 1.808 0.119" stroke="hsl(0.0,100%,35%)" stroke-width="0.00774"></path>
<path d="M1.763 0.291 Q1.512 0.536 1.935 0.713" stroke="hsl(0.0,100%,35%)" stroke-width="0.00516"></path>
<path d="M1.763 0.291 Q1.523 0.056 1.011 0.122" stroke="hsl(0.0,100%,35%)" stroke-width="0.00258"></path>
<path d="M1.808 0.119 Q1.098 0.002 0.715 0.323" stroke="hsl(0.0,100%,35%)" stroke-width="0.00258"></path>
<path d="M1.808 0.119 Q1.647 0.196 1.763 0.291" stroke="hsl(0.0,100%,35%)" stroke-width="0.00774"></path>
<path d="M1.808 0.119 Q0.757 0.052 0.397 0.550" stroke="hsl(0.0,100%,35%)" stroke-width="0.00258"></path>
<path d="M1.808 0.119 Q0.756 -0.057 0.182 0.417" stroke="hsl(0.0,100%,35%)" stroke-width="0.00258"></path>
<path d="M0.397 0.550 Q0.396 0.441 0.182 0.417" stroke="hsl(0.0,100%,35%)" stroke-width="0.03868"></path>
<path d="M0.397 0.550 Q1.287 0.694 1.763 0.291" stroke="hsl(0.0,100%,35%)" stroke-width="0.00774"></path>
<path d="M0.397 0.550 Q0.535 0.544 0.554 0.476" stroke="hsl(0.0,100%,35%)" stroke-width="0.00516"></path>
<path d="M0.397 0.550 Q0.578 0.986 1.468 0.993" stroke="hsl(0.0,100%,35%)" stroke-width="0.00516"></path>
<path d="M0.397 0.550 Q1.047 0.459 1.011 0.122" stroke="hsl(0.0,100%,35%)" stroke-width="0.00258"></path>
<path d="M0.397 0.550 Q1.267 0.576 1.510 0.158" stroke="hsl(0.0,100%,35%)" stroke-width="0.00258"></path>
<path d="M0.397 0.550 Q1.448 0.616 1.808 0.119" stroke="hsl(0.0,100%,35%)" stroke-width="0.00258"></path>
<path d="M1.468 0.993 Q1.366 0.915 1.191 0.947" stroke="hsl(180.0,100%,35%)" stroke-width="0.02063"></path>
<path d="M1.468 0.993 Q1.670 0.438 0.633 0.218" stroke="hsl(180.0,100%,35%)" stroke-width="0.00258"></path>
<path d="M1.468 0.993 Q1.285 0.448 0.182 0.417" stroke="hsl(180.0,100%,35%)" stroke-width="0.00258"></path>
<path d="M1.468 0.993 Q1.401 0.811 1.031 0.803" stroke="hsl(180.0,100%,35%)" stroke-width="0.00258"></path>
<path d="M1.468 0.993 Q2.177 0.701 1.763 0.291" stroke="hsl(180.0,100%,35%)" stroke-width="0.00516"></path>
<path d="M1.468 0.993 Q1.287 0.557 0.397 0.550" stroke="hsl(180.0,100%,35%)" stroke-width="0.00258"></path>
<path d="M1.191 0.947 Q1.293 1.025 1.468 0.993" stroke="hsl(180.0,100%,35%)" stroke-width="0.02836"></path>
<path d="M1.191 0.947 Q1.226 0.843 1.031 0.803" stroke="hsl(180.0,100%,35%)" stroke-width="0.00774"></path>
<path d="M1.191 0.947 Q0.960 0.901 0.819 1.003" stroke="hsl(180.0,100%,35%)" stroke-width="0.00258"></path>
<path d="M0.633 0.218 Q1.120 0.363 1.510 0.158" stroke="hsl(0.0,100%,35%)" stroke-width="0.00258"></path>
<path d="M0.633 0.218 Q0.568 0.139 0.399 0.153" stroke="hsl(0.0,100%,35%)" stroke-width="0.00516"></path>
<path d="M0.633 0.218 Q1.300 0.403 1.808 0.119" stroke="hsl(0.0,100%,35%)" stroke-width="0.00774"></path>
<path d="M0.633 0.218 Q0.590 0.287 0.715 0.323" stroke="hsl(0.0,100%,35%)" stroke-width="0.00774"></path>
<path d="M0.633 0.218 Q0.681 0.298 0.847 0.292" stroke="hsl(0.0,100%,35%)" stroke-width="0.00258"></path>
<path d="M0.633 0.218 Q0.387 0.331 0.554 0.476" stroke="hsl(0.0,100%,35%)" stroke-width="0.00258"></path>
<path d="M0.633 0.218 Q0.924 0.644 1.820 0.596" stroke="hsl(0.0,100%,35%)" stroke-width="0.00258"></path>
<path d="M0.633 0.218 Q0.328 0.694 1.191 0.947" stroke="hsl(0.0,100%,35%)" stroke-width="0.00774"></path>
<path d="M0.633 0.218 Q0.248 0.228 0.182 0.417" stroke="hsl(0.0,100%,35%)" stroke-width="0.00516"></path>
<path d="M0.633 0.218 Q0.249 0.337 0.397 0.550" stroke="hsl(0.0,100%,35%)" stroke-width="0.00258"></path>
<path d="M0.633 0.218 Q0.430 0.772 1.468 0.993" stroke="hsl(0.0,100%,35%)" stroke-width="0.00258"></path>
<path d="M0.182 0.417 Q0.322 0.521 0.554 0.476" stroke="hsl(0.0,100%,35%)" stroke-width="0.04125"></path>
<path d="M0.182 0.417 Q1.074 0.670 1.763 0.291" stroke="hsl(0.0,100%,35%)" stroke-width="0.01805"></path>
<path d="M0.182 0.417 Q0.184 0.527 0.397 0.550" stroke="hsl(0.0,100%,35%)" stroke-width="0.00774"></path>
<path d="M0.182 0.417 Q0.263 0.884 1.191 0.947" stroke="hsl(0.0,100%,35%)" stroke-width="0.00258"></path>
<path d="M0.819 1.003 Q1.050 1.049 1.191 0.947" stroke="hsl(180.0,100%,35%)" stroke-width="0.01547"></path>
<path d="M0.819 1.003 Q1.354 0.573 0.633 0.218" stroke="hsl(180.0,100%,35%)" stroke-width="0.00258"></path>
<path d="M1.577 0.839 Q1.625 0.632 1.231 0.563" stroke="hsl(180.0,100%,35%)" stroke-width="0.00258"></path>
<path d="M1.577 0.839 Q1.399 0.894 1.468 0.993" stroke="hsl(180.0,100%,35%)" stroke-width="0.01031"></path>
<path d="M1.935 0.713 Q1.680 0.205 0.633 0.218" stroke="hsl(0.0,100%,35%)" stroke-width="0.00774"></path>
<path d="M1.935 0.713 Q1.295 0.215 0.182 0.417" stroke="hsl(0.0,100%,35%)" stroke-width="0.00516"></path>
<path d="M1.935 0.713 Q1.839 0.645 1.684 0.677" stroke="hsl(0.0,100%,35%)" stroke-width="0.00258"></path>
<path d="M1.935 0.713 Q1.859 0.573 1.569 0.579" stroke="hsl(0.0,100%,35%)" stroke-width="0.00516"></path>
<path d="M1.935 0.713 Q2.186 0.468 1.763 0.291" stroke="hsl(0.0,100%,35%)" stroke-width="0.00258"></path>
<path d="M1.935 0.713 Q1.702 0.497 1.231 0.563" stroke="hsl(0.0,100%,35%)" stroke-width="0.00258"></path>
<path d="M1.935 0.713 Q1.946 0.233 1.011 0.122" stroke="hsl(0.0,100%,35%)" stroke-width="0.00258"></path>
<path d="M1.935 0.713 Q1.296 0.324 0.397 0.550" stroke="hsl(0.0,100%,35%)" stroke-width="0.00516"></path>
<path d="M1.935 0.713 Q1.477 0.759 1.468 0.993" stroke="hsl(0.0,100%,35%)" stroke-width="0.00516"></path>
<path d="M1.569 0.579 Q1.325 0.132 0.399 0.153" stroke="hsl(0.0,100%,35%)" stroke-width="0.00258"></path>
<path d="M1.569 0.579 Q1.680 0.638 1.820 0.596" stroke="hsl(0.0,100%,35%)" stroke-width="0.00258"></path>
<path d="M1.569 0.579 Q1.390 0.211 0.633 0.218" stroke="hsl(0.0,100%,35%)" stroke-width="0.00258"></path>
<path d="M0.554 0.476 Q0.415 0.372 0.182 0.417" stroke="hsl(0.0,100%,35%)" stroke-width="0.01805"></path>
<path d="M0.554 0.476 Q0.597 0.917 1.468 0.993" stroke="hsl(0.0,100%,35%)" stroke-width="0.01289"></path>
<path d="M0.554 0.476 Q0.416 0.481 0.397 0.550" stroke="hsl(0.0,100%,35%)" stroke-width="0.01547"></path>
<path d="M1.510 0.158 Q1.023 0.012 0.633 0.218" stroke="hsl(0.0,100%,35%)" stroke-width="0.00258"></path>
<path d="M1.510 0.158 Q0.640 0.131 0.397 0.550" stroke="hsl(0.0,100%,35%)" stroke-width="0.02063"></path>
<path d="M1.510 0.158 Q1.278 0.520 1.935 0.713" stroke="hsl(0.0,100%,35%)" stroke-width="0.00258"></path>
<path d="M1.510 0.158 Q1.289 0.040 1.011 0.122" stroke="hsl(0.0,100%,35%)" stroke-width="0.01547"></path>
<path d="M1.510 0.158 Q1.182 0.452 1.684 0.677" stroke="hsl(0.0,100%,35%)" stroke-width="0.00258"></path>
<path d="M0.581 0.309 Q0.297 0.393 0.397 0.550" stroke="hsl(0.0,100%,35%)" stroke-width="0.00258"></path>
<path d="M0.581 0.309 Q0.478 0.829 1.468 0.993" stroke="hsl(0.0,100%,35%)" stroke-width="0.00258"></path>
<path d="M0.581 0.309 Q0.435 0.387 0.554 0.476" stroke="hsl(0.0,100%,35%)" stroke-width="0.00258"></path>
</g>
<text x="1.421" y="0.249" font-size="0.025400" fill="hsl(0.0,100%,20%)">blundell</text>
<text x="1.763" y="0.265" font-size="0.051848" fill="hsl(0.0,100%,20%)">egdaniel</text>
<text x="1.808" y="0.098" font-size="0.040161" fill="hsl(0.0,100%,20%)">nicolettep</text>
<text x="0.397" y="0.514" font-size="0.072587" fill="hsl(0.0,100%,20%)">michaelludwig</text>
<text x="1.468" y="0.960" font-size="0.065583" fill="hsl(180.0,100%,20%)">brianosman</text>
<text x="1.191" y="0.917" font-size="0.059568" fill="hsl(180.0,100%,20%)">bungeman</text>
<text x="0.633" y="0.192" font-size="0.052874" fill="hsl(0.0,100%,20%)">kjlubick</text>
<text x="0.182" y="0.379" font-size="0.076902" fill="hsl(0.0,100%,20%)">robertphillips</text>
<text x="1.031" y="0.793" font-size="0.020739" fill="hsl(180.0,100%,20%)">borenet</text>
<text x="0.819" y="0.988" font-size="0.029329" fill="hsl(180.0,100%,20%)">drott</text>
<text x="1.577" y="0.827" font-size="0.023187" fill="hsl(180.0,100%,20%)">ccameron</text>
<text x="1.231" y="0.556" font-size="0.014665" fill="hsl(180.0,100%,20%)">scroggo</text>
<text x="1.935" y="0.691" font-size="0.043994" fill="hsl(0.0,100%,20%)">johnstiles</text>
<text x="1.011" y="0.106" font-size="0.031109" fill="hsl(0.0,100%,20%)">jamesgk</text>
<text x="1.569" y="0.567" font-size="0.023187" fill="hsl(0.0,100%,20%)">fmalita</text>
<text x="0.399" y="0.144" font-size="0.017961" fill="hsl(0.0,100%,20%)">bwils</text>
<text x="1.820" y="0.589" font-size="0.014665" fill="hsl(0.0,100%,20%)">jmbetancourt</text>
<text x="1.684" y="0.669" font-size="0.014665" fill="hsl(0.0,100%,20%)">armansito</text>
<text x="0.554" y="0.444" font-size="0.063922" fill="hsl(0.0,100%,20%)">jvanverth</text>
<text x="1.510" y="0.135" font-size="0.045200" fill="hsl(0.0,100%,20%)">nathanasanchez</text>
<text x="0.715" y="0.313" font-size="0.020739" fill="hsl(0.0,100%,20%)">nscobie</text>
<text x="0.847" y="0.287" font-size="0.010370" fill="hsl(0.0,100%,20%)">rmistry</text>
<text x="0.581" y="0.301" font-size="0.017961" fill="hsl(0.0,100%,20%)">sky</text>
</svg>
