<svg width="4000" height="2000" viewBox="-0.025 -0.025 2.05 1.05" xmlns="http://www.w3.org/2000/svg">
  <style>
    path {
      fill: none;
      stroke-linecap: round;
      stroke-opacity: 0.4;
    }

    text {
      text-anchor: middle;
      alignment-baseline: hanging;
    }
  </style>
  <g opacity="0.4">
<path d="M1.722 0.119 Q0.881 0.325 1.098 0.780" stroke="hsl(0.0,100%,35%)" stroke-width="0.00152"></path>
<path d="M1.722 0.119 Q1.541 0.198 1.656 0.303" stroke="hsl(0.0,100%,35%)" stroke-width="0.00869"></path>
<path d="M1.722 0.119 Q0.728 0.397 1.053 0.943" stroke="hsl(0.0,100%,35%)" stroke-width="0.00046"></path>
<path d="M1.722 0.119 Q1.325 0.173 1.343 0.378" stroke="hsl(0.0,100%,35%)" stroke-width="0.00061"></path>
<path d="M1.722 0.119 Q1.374 0.240 1.534 0.436" stroke="hsl(0.0,100%,35%)" stroke-width="0.00030"></path>
<path d="M1.722 0.119 Q1.322 0.288 1.563 0.520" stroke="hsl(0.0,100%,35%)" stroke-width="0.00030"></path>
<path d="M1.722 0.119 Q1.187 0.095 1.022 0.350" stroke="hsl(0.0,100%,35%)" stroke-width="0.00046"></path>
<path d="M1.722 0.119 Q0.813 0.207 0.786 0.669" stroke="hsl(0.0,100%,35%)" stroke-width="0.00015"></path>
<path d="M1.722 0.119 Q1.476 0.323 1.820 0.488" stroke="hsl(0.0,100%,35%)" stroke-width="0.00015"></path>
<path d="M1.722 0.119 Q0.640 -0.026 0.121 0.470" stroke="hsl(0.0,100%,35%)" stroke-width="0.00030"></path>
<path d="M1.722 0.119 Q1.495 0.075 1.358 0.176" stroke="hsl(0.0,100%,35%)" stroke-width="0.00015"></path>
<path d="M1.722 0.119 Q0.488 0.112 0.204 0.713" stroke="hsl(0.0,100%,35%)" stroke-width="0.00015"></path>
<path d="M1.722 0.119 Q1.108 -0.026 0.690 0.241" stroke="hsl(0.0,100%,35%)" stroke-width="0.00015"></path>
<path d="M1.098 0.780 Q1.325 0.429 0.690 0.241" stroke="hsl(0.0,100%,35%)" stroke-width="0.00579"></path>
<path d="M1.098 0.780 Q1.693 0.778 1.820 0.488" stroke="hsl(0.0,100%,35%)" stroke-width="0.00549"></path>
<path d="M1.098 0.780 Q0.704 0.568 0.204 0.713" stroke="hsl(0.0,100%,35%)" stroke-width="0.00046"></path>
<path d="M1.098 0.780 Q1.661 0.588 1.410 0.271" stroke="hsl(0.0,100%,35%)" stroke-width="0.00762"></path>
<path d="M1.098 0.780 Q1.608 0.852 1.862 0.620" stroke="hsl(0.0,100%,35%)" stroke-width="0.00122"></path>
<path d="M1.098 0.780 Q1.758 0.653 1.656 0.303" stroke="hsl(0.0,100%,35%)" stroke-width="0.00655"></path>
<path d="M1.098 0.780 Q1.270 0.748 1.246 0.658" stroke="hsl(0.0,100%,35%)" stroke-width="0.00015"></path>
<path d="M1.098 0.780 Q1.555 0.442 0.997 0.146" stroke="hsl(0.0,100%,35%)" stroke-width="0.00030"></path>
<path d="M1.098 0.780 Q1.711 0.530 1.358 0.176" stroke="hsl(0.0,100%,35%)" stroke-width="0.00030"></path>
<path d="M1.098 0.780 Q0.945 0.852 1.053 0.943" stroke="hsl(0.0,100%,35%)" stroke-width="0.00122"></path>
<path d="M1.098 0.780 Q1.404 0.550 1.022 0.350" stroke="hsl(0.0,100%,35%)" stroke-width="0.00274"></path>
<path d="M1.098 0.780 Q1.473 0.865 1.722 0.701" stroke="hsl(0.0,100%,35%)" stroke-width="0.00046"></path>
<path d="M1.098 0.780 Q1.030 0.662 0.786 0.669" stroke="hsl(0.0,100%,35%)" stroke-width="0.00030"></path>
<path d="M1.098 0.780 Q1.938 0.574 1.722 0.119" stroke="hsl(0.0,100%,35%)" stroke-width="0.00061"></path>
<path d="M1.098 0.780 Q1.206 0.825 1.318 0.782" stroke="hsl(0.0,100%,35%)" stroke-width="0.00015"></path>
<path d="M1.098 0.780 Q1.000 0.490 0.412 0.474" stroke="hsl(0.0,100%,35%)" stroke-width="0.00030"></path>
<path d="M1.098 0.780 Q1.538 0.743 1.563 0.520" stroke="hsl(0.0,100%,35%)" stroke-width="0.00030"></path>
<path d="M1.098 0.780 Q1.591 0.695 1.534 0.436" stroke="hsl(0.0,100%,35%)" stroke-width="0.00015"></path>
<path d="M1.656 0.303 Q1.301 0.200 1.022 0.350" stroke="hsl(0.0,100%,35%)" stroke-width="0.00320"></path>
<path d="M1.656 0.303 Q1.559 0.238 1.410 0.271" stroke="hsl(0.0,100%,35%)" stroke-width="0.01768"></path>
<path d="M1.656 0.303 Q1.488 0.345 1.534 0.436" stroke="hsl(0.0,100%,35%)" stroke-width="0.00107"></path>
<path d="M1.656 0.303 Q1.590 0.428 1.820 0.488" stroke="hsl(0.0,100%,35%)" stroke-width="0.00168"></path>
<path d="M1.656 0.303 Q1.222 0.079 0.690 0.241" stroke="hsl(0.0,100%,35%)" stroke-width="0.00442"></path>
<path d="M1.656 0.303 Q0.842 0.503 1.053 0.943" stroke="hsl(0.0,100%,35%)" stroke-width="0.00137"></path>
<path d="M1.656 0.303 Q0.996 0.430 1.098 0.780" stroke="hsl(0.0,100%,35%)" stroke-width="0.00427"></path>
<path d="M1.656 0.303 Q0.755 0.080 0.121 0.470" stroke="hsl(0.0,100%,35%)" stroke-width="0.00030"></path>
<path d="M1.656 0.303 Q1.506 0.503 1.862 0.620" stroke="hsl(0.0,100%,35%)" stroke-width="0.00015"></path>
<path d="M1.656 0.303 Q0.800 0.370 0.743 0.802" stroke="hsl(0.0,100%,35%)" stroke-width="0.00061"></path>
<path d="M1.656 0.303 Q0.628 0.278 0.353 0.774" stroke="hsl(0.0,100%,35%)" stroke-width="0.00015"></path>
<path d="M1.656 0.303 Q0.602 0.218 0.204 0.713" stroke="hsl(0.0,100%,35%)" stroke-width="0.00030"></path>
<path d="M1.656 0.303 Q0.928 0.312 0.786 0.669" stroke="hsl(0.0,100%,35%)" stroke-width="0.00015"></path>
<path d="M1.656 0.303 Q1.836 0.224 1.722 0.119" stroke="hsl(0.0,100%,35%)" stroke-width="0.00107"></path>
<path d="M1.656 0.303 Q1.385 0.265 1.250 0.388" stroke="hsl(0.0,100%,35%)" stroke-width="0.00015"></path>
<path d="M1.053 0.943 Q1.433 0.519 0.690 0.241" stroke="hsl(0.0,100%,35%)" stroke-width="0.00777"></path>
<path d="M1.053 0.943 Q1.512 0.640 1.022 0.350" stroke="hsl(0.0,100%,35%)" stroke-width="0.00229"></path>
<path d="M1.053 0.943 Q1.769 0.679 1.410 0.271" stroke="hsl(0.0,100%,35%)" stroke-width="0.00991"></path>
<path d="M1.053 0.943 Q0.837 0.826 0.562 0.906" stroke="hsl(0.0,100%,35%)" stroke-width="0.00015"></path>
<path d="M1.053 0.943 Q1.866 0.744 1.656 0.303" stroke="hsl(0.0,100%,35%)" stroke-width="0.00610"></path>
<path d="M1.053 0.943 Q1.801 0.869 1.820 0.488" stroke="hsl(0.0,100%,35%)" stroke-width="0.00335"></path>
<path d="M1.053 0.943 Q1.820 0.620 1.358 0.176" stroke="hsl(0.0,100%,35%)" stroke-width="0.00076"></path>
<path d="M1.053 0.943 Q1.206 0.870 1.098 0.780" stroke="hsl(0.0,100%,35%)" stroke-width="0.01311"></path>
<path d="M1.053 0.943 Q1.717 0.943 1.862 0.620" stroke="hsl(0.0,100%,35%)" stroke-width="0.00259"></path>
<path d="M1.053 0.943 Q0.813 0.658 0.204 0.713" stroke="hsl(0.0,100%,35%)" stroke-width="0.00015"></path>
<path d="M1.053 0.943 Q1.016 0.866 0.858 0.868" stroke="hsl(0.0,100%,35%)" stroke-width="0.00030"></path>
<path d="M1.053 0.943 Q1.521 0.801 1.346 0.542" stroke="hsl(0.0,100%,35%)" stroke-width="0.00015"></path>
<path d="M1.053 0.943 Q0.966 0.520 0.121 0.470" stroke="hsl(0.0,100%,35%)" stroke-width="0.00107"></path>
<path d="M1.053 0.943 Q2.047 0.665 1.722 0.119" stroke="hsl(0.0,100%,35%)" stroke-width="0.00229"></path>
<path d="M1.053 0.943 Q1.138 0.753 0.786 0.669" stroke="hsl(0.0,100%,35%)" stroke-width="0.00046"></path>
<path d="M1.053 0.943 Q1.273 0.788 1.019 0.647" stroke="hsl(0.0,100%,35%)" stroke-width="0.00137"></path>
<path d="M1.053 0.943 Q1.628 0.475 0.840 0.092" stroke="hsl(0.0,100%,35%)" stroke-width="0.00015"></path>
<path d="M1.053 0.943 Q1.647 0.833 1.563 0.520" stroke="hsl(0.0,100%,35%)" stroke-width="0.00015"></path>
<path d="M1.053 0.943 Q1.699 0.785 1.534 0.436" stroke="hsl(0.0,100%,35%)" stroke-width="0.00015"></path>
<path d="M1.343 0.378 Q0.658 0.180 0.121 0.470" stroke="hsl(120.0,100%,35%)" stroke-width="0.00076"></path>
<path d="M1.343 0.378 Q1.213 0.460 1.346 0.542" stroke="hsl(120.0,100%,35%)" stroke-width="0.00183"></path>
<path d="M1.343 0.378 Q0.633 0.229 0.187 0.543" stroke="hsl(120.0,100%,35%)" stroke-width="0.00015"></path>
<path d="M1.343 0.378 Q1.493 0.528 1.820 0.488" stroke="hsl(120.0,100%,35%)" stroke-width="0.00015"></path>
<path d="M1.343 0.378 Q1.559 0.403 1.656 0.303" stroke="hsl(120.0,100%,35%)" stroke-width="0.00107"></path>
<path d="M1.343 0.378 Q1.392 0.445 1.534 0.436" stroke="hsl(120.0,100%,35%)" stroke-width="0.00320"></path>
<path d="M1.343 0.378 Q1.070 0.499 1.246 0.658" stroke="hsl(120.0,100%,35%)" stroke-width="0.00015"></path>
<path d="M1.343 0.378 Q0.505 0.318 0.204 0.713" stroke="hsl(120.0,100%,35%)" stroke-width="0.00015"></path>
<path d="M1.343 0.378 Q0.746 0.603 1.053 0.943" stroke="hsl(120.0,100%,35%)" stroke-width="0.00046"></path>
<path d="M1.534 0.436 Q1.484 0.369 1.343 0.378" stroke="hsl(120.0,100%,35%)" stroke-width="0.00381"></path>
<path d="M1.534 0.436 Q1.355 0.451 1.346 0.542" stroke="hsl(120.0,100%,35%)" stroke-width="0.00046"></path>
<path d="M1.534 0.436 Q1.551 0.593 1.862 0.620" stroke="hsl(120.0,100%,35%)" stroke-width="0.00030"></path>
<path d="M1.534 0.436 Q0.827 0.270 0.348 0.579" stroke="hsl(120.0,100%,35%)" stroke-width="0.00030"></path>
<path d="M1.534 0.436 Q1.604 0.329 1.410 0.271" stroke="hsl(120.0,100%,35%)" stroke-width="0.00015"></path>
<path d="M1.534 0.436 Q1.462 0.125 0.840 0.092" stroke="hsl(120.0,100%,35%)" stroke-width="0.00015"></path>
<path d="M1.534 0.436 Q1.416 0.606 1.722 0.701" stroke="hsl(120.0,100%,35%)" stroke-width="0.00015"></path>
<path d="M1.534 0.436 Q1.041 0.521 1.098 0.780" stroke="hsl(120.0,100%,35%)" stroke-width="0.00015"></path>
<path d="M1.534 0.436 Q1.267 0.170 0.690 0.241" stroke="hsl(120.0,100%,35%)" stroke-width="0.00015"></path>
<path d="M1.534 0.436 Q0.800 0.170 0.121 0.470" stroke="hsl(120.0,100%,35%)" stroke-width="0.00030"></path>
<path d="M1.534 0.436 Q1.430 0.355 1.250 0.388" stroke="hsl(120.0,100%,35%)" stroke-width="0.00091"></path>
<path d="M1.563 0.520 Q1.717 0.555 1.820 0.488" stroke="hsl(120.0,100%,35%)" stroke-width="0.00335"></path>
<path d="M1.563 0.520 Q1.055 0.439 0.786 0.669" stroke="hsl(120.0,100%,35%)" stroke-width="0.00046"></path>
<path d="M1.563 0.520 Q1.123 0.557 1.098 0.780" stroke="hsl(120.0,100%,35%)" stroke-width="0.00015"></path>
<path d="M1.563 0.520 Q0.970 0.630 1.053 0.943" stroke="hsl(120.0,100%,35%)" stroke-width="0.00015"></path>
<path d="M1.563 0.520 Q1.616 0.472 1.534 0.436" stroke="hsl(120.0,100%,35%)" stroke-width="0.00168"></path>
<path d="M1.563 0.520 Q0.928 0.497 0.743 0.802" stroke="hsl(120.0,100%,35%)" stroke-width="0.00015"></path>
<path d="M1.563 0.520 Q1.512 0.392 1.250 0.388" stroke="hsl(120.0,100%,35%)" stroke-width="0.00015"></path>
<path d="M1.563 0.520 Q1.429 0.327 1.022 0.350" stroke="hsl(120.0,100%,35%)" stroke-width="0.00015"></path>
<path d="M1.563 0.520 Q1.963 0.351 1.722 0.119" stroke="hsl(120.0,100%,35%)" stroke-width="0.00046"></path>
<path d="M1.022 0.350 Q0.943 0.229 0.690 0.241" stroke="hsl(0.0,100%,35%)" stroke-width="0.01265"></path>
<path d="M1.022 0.350 Q1.279 0.388 1.410 0.271" stroke="hsl(0.0,100%,35%)" stroke-width="0.00366"></path>
<path d="M1.022 0.350 Q1.227 0.653 1.862 0.620" stroke="hsl(0.0,100%,35%)" stroke-width="0.00198"></path>
<path d="M1.022 0.350 Q1.376 0.453 1.656 0.303" stroke="hsl(0.0,100%,35%)" stroke-width="0.00366"></path>
<path d="M1.022 0.350 Q0.476 0.230 0.121 0.470" stroke="hsl(0.0,100%,35%)" stroke-width="0.00030"></path>
<path d="M1.022 0.350 Q1.311 0.578 1.820 0.488" stroke="hsl(0.0,100%,35%)" stroke-width="0.00350"></path>
<path d="M1.022 0.350 Q0.563 0.653 1.053 0.943" stroke="hsl(0.0,100%,35%)" stroke-width="0.00046"></path>
<path d="M1.022 0.350 Q1.092 0.665 1.722 0.701" stroke="hsl(0.0,100%,35%)" stroke-width="0.00015"></path>
<path d="M1.022 0.350 Q0.716 0.580 1.098 0.780" stroke="hsl(0.0,100%,35%)" stroke-width="0.00259"></path>
<path d="M1.022 0.350 Q0.502 0.329 0.348 0.579" stroke="hsl(0.0,100%,35%)" stroke-width="0.00015"></path>
<path d="M1.022 0.350 Q0.323 0.368 0.204 0.713" stroke="hsl(0.0,100%,35%)" stroke-width="0.00015"></path>
<path d="M1.022 0.350 Q1.557 0.374 1.722 0.119" stroke="hsl(0.0,100%,35%)" stroke-width="0.00046"></path>
<path d="M1.022 0.350 Q1.209 0.495 1.534 0.436" stroke="hsl(0.0,100%,35%)" stroke-width="0.00015"></path>
<path d="M1.022 0.350 Q0.648 0.462 0.786 0.669" stroke="hsl(0.0,100%,35%)" stroke-width="0.00015"></path>
<path d="M1.022 0.350 Q1.106 0.415 1.250 0.388" stroke="hsl(0.0,100%,35%)" stroke-width="0.00015"></path>
<path d="M1.022 0.350 Q1.138 0.185 0.840 0.092" stroke="hsl(0.0,100%,35%)" stroke-width="0.00015"></path>
<path d="M0.786 0.669 Q1.025 0.756 1.246 0.658" stroke="hsl(120.0,100%,35%)" stroke-width="0.00015"></path>
<path d="M0.786 0.669 Q1.467 0.537 1.358 0.176" stroke="hsl(120.0,100%,35%)" stroke-width="0.00122"></path>
<path d="M0.786 0.669 Q0.658 0.727 0.743 0.802" stroke="hsl(120.0,100%,35%)" stroke-width="0.00366"></path>
<path d="M0.786 0.669 Q0.854 0.787 1.098 0.780" stroke="hsl(120.0,100%,35%)" stroke-width="0.00061"></path>
<path d="M0.786 0.669 Q0.945 0.544 0.736 0.439" stroke="hsl(120.0,100%,35%)" stroke-width="0.00015"></path>
<path d="M0.786 0.669 Q0.920 0.705 1.019 0.647" stroke="hsl(120.0,100%,35%)" stroke-width="0.00046"></path>
<path d="M0.786 0.669 Q1.448 0.786 1.820 0.488" stroke="hsl(120.0,100%,35%)" stroke-width="0.00213"></path>
<path d="M0.786 0.669 Q1.364 0.860 1.862 0.620" stroke="hsl(120.0,100%,35%)" stroke-width="0.00046"></path>
<path d="M0.786 0.669 Q1.417 0.595 1.410 0.271" stroke="hsl(120.0,100%,35%)" stroke-width="0.00030"></path>
<path d="M0.786 0.669 Q0.613 0.437 0.121 0.470" stroke="hsl(120.0,100%,35%)" stroke-width="0.00244"></path>
<path d="M0.786 0.669 Q0.460 0.575 0.204 0.713" stroke="hsl(120.0,100%,35%)" stroke-width="0.00076"></path>
<path d="M0.786 0.669 Q0.861 0.595 0.733 0.542" stroke="hsl(120.0,100%,35%)" stroke-width="0.00122"></path>
<path d="M0.786 0.669 Q0.742 0.544 0.487 0.537" stroke="hsl(120.0,100%,35%)" stroke-width="0.00015"></path>
<path d="M0.786 0.669 Q0.701 0.860 1.053 0.943" stroke="hsl(120.0,100%,35%)" stroke-width="0.00015"></path>
<path d="M0.786 0.669 Q0.486 0.635 0.353 0.774" stroke="hsl(120.0,100%,35%)" stroke-width="0.00183"></path>
<path d="M0.786 0.669 Q1.311 0.450 0.997 0.146" stroke="hsl(120.0,100%,35%)" stroke-width="0.00015"></path>
<path d="M0.786 0.669 Q1.294 0.750 1.563 0.520" stroke="hsl(120.0,100%,35%)" stroke-width="0.00030"></path>
<path d="M1.820 0.488 Q1.789 0.297 1.410 0.271" stroke="hsl(240.0,100%,35%)" stroke-width="0.00701"></path>
<path d="M1.820 0.488 Q1.736 0.562 1.862 0.620" stroke="hsl(240.0,100%,35%)" stroke-width="0.02118"></path>
<path d="M1.820 0.488 Q1.452 0.138 0.690 0.241" stroke="hsl(240.0,100%,35%)" stroke-width="0.00137"></path>
<path d="M1.820 0.488 Q0.985 0.139 0.121 0.470" stroke="hsl(240.0,100%,35%)" stroke-width="0.00259"></path>
<path d="M1.820 0.488 Q1.839 0.239 1.358 0.176" stroke="hsl(240.0,100%,35%)" stroke-width="0.00198"></path>
<path d="M1.820 0.488 Q0.832 0.277 0.204 0.713" stroke="hsl(240.0,100%,35%)" stroke-width="0.00030"></path>
<path d="M1.820 0.488 Q1.226 0.489 1.098 0.780" stroke="hsl(240.0,100%,35%)" stroke-width="0.01128"></path>
<path d="M1.820 0.488 Q1.540 0.420 1.346 0.542" stroke="hsl(240.0,100%,35%)" stroke-width="0.00076"></path>
<path d="M1.820 0.488 Q1.397 0.458 1.246 0.658" stroke="hsl(240.0,100%,35%)" stroke-width="0.00030"></path>
<path d="M1.820 0.488 Q1.683 0.152 0.997 0.146" stroke="hsl(240.0,100%,35%)" stroke-width="0.00122"></path>
<path d="M1.820 0.488 Q1.647 0.094 0.840 0.092" stroke="hsl(240.0,100%,35%)" stroke-width="0.00030"></path>
<path d="M1.820 0.488 Q1.886 0.363 1.656 0.303" stroke="hsl(240.0,100%,35%)" stroke-width="0.00122"></path>
<path d="M1.820 0.488 Q1.601 0.575 1.722 0.701" stroke="hsl(240.0,100%,35%)" stroke-width="0.00427"></path>
<path d="M1.820 0.488 Q0.858 0.337 0.353 0.774" stroke="hsl(240.0,100%,35%)" stroke-width="0.00015"></path>
<path d="M1.820 0.488 Q1.669 0.337 1.343 0.378" stroke="hsl(240.0,100%,35%)" stroke-width="0.00030"></path>
<path d="M1.820 0.488 Q1.072 0.562 1.053 0.943" stroke="hsl(240.0,100%,35%)" stroke-width="0.00076"></path>
<path d="M1.820 0.488 Q1.532 0.259 1.022 0.350" stroke="hsl(240.0,100%,35%)" stroke-width="0.00046"></path>
<path d="M1.820 0.488 Q1.719 0.404 1.534 0.436" stroke="hsl(240.0,100%,35%)" stroke-width="0.00107"></path>
<path d="M1.820 0.488 Q1.158 0.372 0.786 0.669" stroke="hsl(240.0,100%,35%)" stroke-width="0.00274"></path>
<path d="M1.820 0.488 Q1.030 0.429 0.743 0.802" stroke="hsl(240.0,100%,35%)" stroke-width="0.00076"></path>
<path d="M1.820 0.488 Q0.856 0.445 0.562 0.906" stroke="hsl(240.0,100%,35%)" stroke-width="0.00030"></path>
<path d="M1.820 0.488 Q1.666 0.452 1.563 0.520" stroke="hsl(240.0,100%,35%)" stroke-width="0.00244"></path>
<path d="M0.121 0.470 Q0.956 0.819 1.820 0.488" stroke="hsl(120.0,100%,35%)" stroke-width="0.00442"></path>
<path d="M0.121 0.470 Q0.975 0.570 1.358 0.176" stroke="hsl(120.0,100%,35%)" stroke-width="0.00076"></path>
<path d="M0.121 0.470 Q-0.032 0.608 0.204 0.713" stroke="hsl(120.0,100%,35%)" stroke-width="0.00488"></path>
<path d="M0.121 0.470 Q0.263 0.530 0.412 0.474" stroke="hsl(120.0,100%,35%)" stroke-width="0.00305"></path>
<path d="M0.121 0.470 Q-0.008 0.776 0.562 0.906" stroke="hsl(120.0,100%,35%)" stroke-width="0.00046"></path>
<path d="M0.121 0.470 Q0.167 0.760 0.743 0.802" stroke="hsl(120.0,100%,35%)" stroke-width="0.00046"></path>
<path d="M0.121 0.470 Q0.676 0.751 1.346 0.542" stroke="hsl(120.0,100%,35%)" stroke-width="0.00213"></path>
<path d="M0.121 0.470 Q0.872 0.893 1.862 0.620" stroke="hsl(120.0,100%,35%)" stroke-width="0.00168"></path>
<path d="M0.121 0.470 Q0.855 0.735 1.534 0.436" stroke="hsl(120.0,100%,35%)" stroke-width="0.00259"></path>
<path d="M0.121 0.470 Q0.925 0.628 1.410 0.271" stroke="hsl(120.0,100%,35%)" stroke-width="0.00061"></path>
<path d="M0.121 0.470 Q1.022 0.694 1.656 0.303" stroke="hsl(120.0,100%,35%)" stroke-width="0.00061"></path>
<path d="M0.121 0.470 Q0.096 0.520 0.187 0.543" stroke="hsl(120.0,100%,35%)" stroke-width="0.00396"></path>
<path d="M0.121 0.470 Q0.362 0.820 1.098 0.780" stroke="hsl(120.0,100%,35%)" stroke-width="0.00168"></path>
<path d="M0.121 0.470 Q0.806 0.668 1.343 0.378" stroke="hsl(120.0,100%,35%)" stroke-width="0.00213"></path>
<path d="M0.121 0.470 Q0.369 0.628 0.733 0.542" stroke="hsl(120.0,100%,35%)" stroke-width="0.00015"></path>
<path d="M0.121 0.470 Q0.588 0.469 0.690 0.241" stroke="hsl(120.0,100%,35%)" stroke-width="0.00061"></path>
<path d="M0.121 0.470 Q0.783 0.425 0.840 0.092" stroke="hsl(120.0,100%,35%)" stroke-width="0.00046"></path>
<path d="M0.121 0.470 Q0.148 0.570 0.348 0.579" stroke="hsl(120.0,100%,35%)" stroke-width="0.00030"></path>
<path d="M0.121 0.470 Q0.294 0.703 0.786 0.669" stroke="hsl(120.0,100%,35%)" stroke-width="0.00107"></path>
<path d="M0.121 0.470 Q0.209 0.893 1.053 0.943" stroke="hsl(120.0,100%,35%)" stroke-width="0.00015"></path>
<path d="M0.121 0.470 Q0.428 0.738 1.019 0.647" stroke="hsl(120.0,100%,35%)" stroke-width="0.00015"></path>
<path d="M0.121 0.470 Q0.819 0.483 0.997 0.146" stroke="hsl(120.0,100%,35%)" stroke-width="0.00015"></path>
<path d="M0.121 0.470 Q0.668 0.590 1.022 0.350" stroke="hsl(120.0,100%,35%)" stroke-width="0.00015"></path>
<path d="M0.121 0.470 Q-0.006 0.668 0.353 0.774" stroke="hsl(120.0,100%,35%)" stroke-width="0.00030"></path>
<path d="M0.121 0.470 Q0.751 0.655 1.250 0.388" stroke="hsl(120.0,100%,35%)" stroke-width="0.00015"></path>
<path d="M1.358 0.176 Q1.405 0.299 1.656 0.303" stroke="hsl(120.0,100%,35%)" stroke-width="0.01280"></path>
<path d="M1.358 0.176 Q0.351 0.214 0.204 0.713" stroke="hsl(120.0,100%,35%)" stroke-width="0.00533"></path>
<path d="M1.358 0.176 Q0.504 0.075 0.121 0.470" stroke="hsl(120.0,100%,35%)" stroke-width="0.00030"></path>
<path d="M1.358 0.176 Q1.340 0.424 1.820 0.488" stroke="hsl(120.0,100%,35%)" stroke-width="0.00701"></path>
<path d="M1.358 0.176 Q0.972 0.075 0.690 0.241" stroke="hsl(120.0,100%,35%)" stroke-width="0.00030"></path>
<path d="M1.358 0.176 Q1.308 0.234 1.410 0.271" stroke="hsl(120.0,100%,35%)" stroke-width="0.00061"></path>
<path d="M1.358 0.176 Q0.745 0.426 1.098 0.780" stroke="hsl(120.0,100%,35%)" stroke-width="0.00091"></path>
<path d="M1.358 0.176 Q1.120 0.511 1.722 0.701" stroke="hsl(120.0,100%,35%)" stroke-width="0.00015"></path>
<path d="M1.358 0.176 Q0.677 0.308 0.786 0.669" stroke="hsl(120.0,100%,35%)" stroke-width="0.00229"></path>
<path d="M1.358 0.176 Q0.592 0.498 1.053 0.943" stroke="hsl(120.0,100%,35%)" stroke-width="0.00061"></path>
<path d="M1.358 0.176 Q1.255 0.498 1.862 0.620" stroke="hsl(120.0,100%,35%)" stroke-width="0.00046"></path>
<path d="M1.358 0.176 Q1.242 0.141 1.148 0.190" stroke="hsl(120.0,100%,35%)" stroke-width="0.00015"></path>
<path d="M1.358 0.176 Q1.586 0.220 1.722 0.119" stroke="hsl(120.0,100%,35%)" stroke-width="0.00030"></path>
<path d="M1.358 0.176 Q0.377 0.274 0.353 0.774" stroke="hsl(120.0,100%,35%)" stroke-width="0.00061"></path>
<path d="M0.204 0.713 Q1.211 0.675 1.358 0.176" stroke="hsl(120.0,100%,35%)" stroke-width="0.00686"></path>
<path d="M0.204 0.713 Q0.357 0.575 0.121 0.470" stroke="hsl(120.0,100%,35%)" stroke-width="0.00061"></path>
<path d="M0.204 0.713 Q1.108 0.998 1.862 0.620" stroke="hsl(120.0,100%,35%)" stroke-width="0.00076"></path>
<path d="M0.204 0.713 Q1.055 0.588 0.997 0.146" stroke="hsl(120.0,100%,35%)" stroke-width="0.00061"></path>
<path d="M0.204 0.713 Q1.258 0.798 1.656 0.303" stroke="hsl(120.0,100%,35%)" stroke-width="0.00061"></path>
<path d="M0.204 0.713 Q1.192 0.924 1.820 0.488" stroke="hsl(120.0,100%,35%)" stroke-width="0.00091"></path>
<path d="M0.204 0.713 Q1.161 0.733 1.410 0.271" stroke="hsl(120.0,100%,35%)" stroke-width="0.00030"></path>
<path d="M0.204 0.713 Q0.230 0.773 0.353 0.774" stroke="hsl(120.0,100%,35%)" stroke-width="0.00046"></path>
<path d="M0.204 0.713 Q0.824 0.574 0.690 0.241" stroke="hsl(120.0,100%,35%)" stroke-width="0.00061"></path>
<path d="M0.204 0.713 Q0.769 0.894 1.246 0.658" stroke="hsl(120.0,100%,35%)" stroke-width="0.00046"></path>
<path d="M0.204 0.713 Q0.530 0.808 0.786 0.669" stroke="hsl(120.0,100%,35%)" stroke-width="0.00183"></path>
<path d="M0.204 0.713 Q0.353 0.702 0.364 0.627" stroke="hsl(120.0,100%,35%)" stroke-width="0.00015"></path>
<path d="M0.204 0.713 Q0.403 0.865 0.743 0.802" stroke="hsl(120.0,100%,35%)" stroke-width="0.00076"></path>
<path d="M0.204 0.713 Q0.147 0.784 0.274 0.828" stroke="hsl(120.0,100%,35%)" stroke-width="0.00076"></path>
<path d="M0.204 0.713 Q1.038 0.888 1.563 0.520" stroke="hsl(120.0,100%,35%)" stroke-width="0.00107"></path>
<path d="M0.204 0.713 Q1.019 0.530 0.840 0.092" stroke="hsl(120.0,100%,35%)" stroke-width="0.00015"></path>
<path d="M0.690 0.241 Q0.769 0.362 1.022 0.350" stroke="hsl(0.0,100%,35%)" stroke-width="0.00823"></path>
<path d="M0.690 0.241 Q1.026 0.400 1.410 0.271" stroke="hsl(0.0,100%,35%)" stroke-width="0.00259"></path>
<path d="M0.690 0.241 Q1.123 0.465 1.656 0.303" stroke="hsl(0.0,100%,35%)" stroke-width="0.00472"></path>
<path d="M0.690 0.241 Q0.310 0.665 1.053 0.943" stroke="hsl(0.0,100%,35%)" stroke-width="0.00198"></path>
<path d="M0.690 0.241 Q0.463 0.592 1.098 0.780" stroke="hsl(0.0,100%,35%)" stroke-width="0.00472"></path>
<path d="M0.690 0.241 Q1.058 0.591 1.820 0.488" stroke="hsl(0.0,100%,35%)" stroke-width="0.00015"></path>
<path d="M0.690 0.241 Q0.069 0.380 0.204 0.713" stroke="hsl(0.0,100%,35%)" stroke-width="0.00030"></path>
<path d="M0.690 0.241 Q0.222 0.242 0.121 0.470" stroke="hsl(0.0,100%,35%)" stroke-width="0.00015"></path>
<path d="M0.690 0.241 Q0.838 0.677 1.722 0.701" stroke="hsl(0.0,100%,35%)" stroke-width="0.00015"></path>
<path d="M0.690 0.241 Q0.956 0.507 1.534 0.436" stroke="hsl(0.0,100%,35%)" stroke-width="0.00015"></path>
<path d="M0.690 0.241 Q0.920 0.255 0.997 0.146" stroke="hsl(0.0,100%,35%)" stroke-width="0.00015"></path>
<path d="M0.690 0.241 Q0.395 0.475 0.786 0.669" stroke="hsl(0.0,100%,35%)" stroke-width="0.00015"></path>
<path d="M0.690 0.241 Q0.884 0.197 0.840 0.092" stroke="hsl(0.0,100%,35%)" stroke-width="0.00015"></path>
<path d="M1.408 0.499 Q1.539 0.650 1.862 0.620" stroke="hsl(240.0,100%,35%)" stroke-width="0.00046"></path>
<path d="M1.408 0.499 Q1.624 0.576 1.820 0.488" stroke="hsl(240.0,100%,35%)" stroke-width="0.00015"></path>
<path d="M1.408 0.499 Q1.522 0.493 1.534 0.436" stroke="hsl(240.0,100%,35%)" stroke-width="0.00015"></path>
<path d="M1.862 0.620 Q0.958 0.335 0.204 0.713" stroke="hsl(240.0,100%,35%)" stroke-width="0.00274"></path>
<path d="M1.862 0.620 Q1.947 0.545 1.820 0.488" stroke="hsl(240.0,100%,35%)" stroke-width="0.10286"></path>
<path d="M1.862 0.620 Q1.579 0.196 0.690 0.241" stroke="hsl(240.0,100%,35%)" stroke-width="0.00244"></path>
<path d="M1.862 0.620 Q1.199 0.620 1.053 0.943" stroke="hsl(240.0,100%,35%)" stroke-width="0.00076"></path>
<path d="M1.862 0.620 Q1.727 0.632 1.722 0.701" stroke="hsl(240.0,100%,35%)" stroke-width="0.03855"></path>
<path d="M1.862 0.620 Q2.012 0.420 1.656 0.303" stroke="hsl(240.0,100%,35%)" stroke-width="0.00183"></path>
<path d="M1.862 0.620 Q1.524 0.516 1.246 0.658" stroke="hsl(240.0,100%,35%)" stroke-width="0.00015"></path>
<path d="M1.862 0.620 Q1.915 0.355 1.410 0.271" stroke="hsl(240.0,100%,35%)" stroke-width="0.00213"></path>
<path d="M1.862 0.620 Q1.966 0.297 1.358 0.176" stroke="hsl(240.0,100%,35%)" stroke-width="0.00137"></path>
<path d="M1.862 0.620 Q1.138 0.296 0.348 0.579" stroke="hsl(240.0,100%,35%)" stroke-width="0.00030"></path>
<path d="M1.862 0.620 Q1.111 0.197 0.121 0.470" stroke="hsl(240.0,100%,35%)" stroke-width="0.00137"></path>
<path d="M1.862 0.620 Q1.667 0.477 1.346 0.542" stroke="hsl(240.0,100%,35%)" stroke-width="0.00076"></path>
<path d="M1.862 0.620 Q1.157 0.487 0.743 0.802" stroke="hsl(240.0,100%,35%)" stroke-width="0.00046"></path>
<path d="M1.862 0.620 Q0.983 0.503 0.562 0.906" stroke="hsl(240.0,100%,35%)" stroke-width="0.00030"></path>
<path d="M1.862 0.620 Q0.984 0.395 0.353 0.774" stroke="hsl(240.0,100%,35%)" stroke-width="0.00107"></path>
<path d="M1.862 0.620 Q1.658 0.317 1.022 0.350" stroke="hsl(240.0,100%,35%)" stroke-width="0.00168"></path>
<path d="M1.862 0.620 Q1.773 0.151 0.840 0.092" stroke="hsl(240.0,100%,35%)" stroke-width="0.00061"></path>
<path d="M1.862 0.620 Q1.352 0.547 1.098 0.780" stroke="hsl(240.0,100%,35%)" stroke-width="0.00457"></path>
<path d="M1.862 0.620 Q1.796 0.395 1.343 0.378" stroke="hsl(240.0,100%,35%)" stroke-width="0.00046"></path>
<path d="M1.862 0.620 Q1.284 0.429 0.786 0.669" stroke="hsl(240.0,100%,35%)" stroke-width="0.00198"></path>
<path d="M1.862 0.620 Q1.419 0.465 1.019 0.647" stroke="hsl(240.0,100%,35%)" stroke-width="0.00015"></path>
<path d="M1.862 0.620 Q1.809 0.210 0.997 0.146" stroke="hsl(240.0,100%,35%)" stroke-width="0.00046"></path>
<path d="M1.862 0.620 Q1.793 0.510 1.563 0.520" stroke="hsl(240.0,100%,35%)" stroke-width="0.00030"></path>
<path d="M1.346 0.542 Q1.258 0.260 0.690 0.241" stroke="hsl(120.0,100%,35%)" stroke-width="0.00030"></path>
<path d="M1.346 0.542 Q1.475 0.459 1.343 0.378" stroke="hsl(120.0,100%,35%)" stroke-width="0.00076"></path>
<path d="M1.346 0.542 Q0.818 0.360 0.348 0.579" stroke="hsl(120.0,100%,35%)" stroke-width="0.00015"></path>
<path d="M1.346 0.542 Q0.638 0.399 0.204 0.713" stroke="hsl(120.0,100%,35%)" stroke-width="0.00061"></path>
<path d="M1.346 0.542 Q1.524 0.526 1.534 0.436" stroke="hsl(120.0,100%,35%)" stroke-width="0.00213"></path>
<path d="M1.346 0.542 Q1.626 0.609 1.820 0.488" stroke="hsl(120.0,100%,35%)" stroke-width="0.00015"></path>
<path d="M1.346 0.542 Q1.542 0.684 1.862 0.620" stroke="hsl(120.0,100%,35%)" stroke-width="0.00015"></path>
<path d="M1.346 0.542 Q1.032 0.611 1.098 0.780" stroke="hsl(120.0,100%,35%)" stroke-width="0.00015"></path>
<path d="M1.346 0.542 Q1.472 0.574 1.563 0.520" stroke="hsl(120.0,100%,35%)" stroke-width="0.00015"></path>
<path d="M1.346 0.542 Q1.872 0.405 1.722 0.119" stroke="hsl(120.0,100%,35%)" stroke-width="0.00015"></path>
<path d="M1.346 0.542 Q0.878 0.684 1.053 0.943" stroke="hsl(120.0,100%,35%)" stroke-width="0.00015"></path>
<path d="M1.346 0.542 Q1.203 0.580 1.246 0.658" stroke="hsl(120.0,100%,35%)" stroke-width="0.00046"></path>
<path d="M0.348 0.579 Q0.169 0.617 0.204 0.713" stroke="hsl(120.0,100%,35%)" stroke-width="0.00046"></path>
<path d="M0.348 0.579 Q0.868 0.599 1.022 0.350" stroke="hsl(120.0,100%,35%)" stroke-width="0.00015"></path>
<path d="M0.348 0.579 Q0.297 0.528 0.187 0.543" stroke="hsl(120.0,100%,35%)" stroke-width="0.00030"></path>
<path d="M0.348 0.579 Q0.877 0.760 1.346 0.542" stroke="hsl(120.0,100%,35%)" stroke-width="0.00030"></path>
<path d="M0.348 0.579 Q1.006 0.677 1.343 0.378" stroke="hsl(120.0,100%,35%)" stroke-width="0.00015"></path>
<path d="M0.348 0.579 Q1.055 0.744 1.534 0.436" stroke="hsl(120.0,100%,35%)" stroke-width="0.00015"></path>
<path d="M1.410 0.271 Q0.694 0.536 1.053 0.943" stroke="hsl(0.0,100%,35%)" stroke-width="0.00320"></path>
<path d="M1.410 0.271 Q1.507 0.336 1.656 0.303" stroke="hsl(0.0,100%,35%)" stroke-width="0.00960"></path>
<path d="M1.410 0.271 Q1.358 0.536 1.862 0.620" stroke="hsl(0.0,100%,35%)" stroke-width="0.00030"></path>
<path d="M1.410 0.271 Q1.074 0.112 0.690 0.241" stroke="hsl(0.0,100%,35%)" stroke-width="0.00259"></path>
<path d="M1.410 0.271 Q1.442 0.461 1.820 0.488" stroke="hsl(0.0,100%,35%)" stroke-width="0.00152"></path>
<path d="M1.410 0.271 Q1.153 0.233 1.022 0.350" stroke="hsl(0.0,100%,35%)" stroke-width="0.00350"></path>
<path d="M1.410 0.271 Q0.847 0.463 1.098 0.780" stroke="hsl(0.0,100%,35%)" stroke-width="0.00274"></path>
<path d="M1.410 0.271 Q0.607 0.113 0.121 0.470" stroke="hsl(0.0,100%,35%)" stroke-width="0.00015"></path>
<path d="M1.410 0.271 Q1.461 0.213 1.358 0.176" stroke="hsl(0.0,100%,35%)" stroke-width="0.00061"></path>
<path d="M1.410 0.271 Q0.779 0.345 0.786 0.669" stroke="hsl(0.0,100%,35%)" stroke-width="0.00213"></path>
<path d="M1.410 0.271 Q0.652 0.403 0.743 0.802" stroke="hsl(0.0,100%,35%)" stroke-width="0.00061"></path>
<path d="M1.410 0.271 Q1.304 0.126 0.997 0.146" stroke="hsl(0.0,100%,35%)" stroke-width="0.00030"></path>
<path d="M0.840 0.092 Q0.876 0.150 0.997 0.146" stroke="hsl(120.0,100%,35%)" stroke-width="0.00183"></path>
<path d="M0.840 0.092 Q0.591 0.456 1.246 0.658" stroke="hsl(120.0,100%,35%)" stroke-width="0.00015"></path>
<path d="M0.840 0.092 Q1.014 0.486 1.820 0.488" stroke="hsl(120.0,100%,35%)" stroke-width="0.00030"></path>
<path d="M0.840 0.092 Q0.646 0.136 0.690 0.241" stroke="hsl(120.0,100%,35%)" stroke-width="0.00046"></path>
<path d="M0.840 0.092 Q0.178 0.137 0.121 0.470" stroke="hsl(120.0,100%,35%)" stroke-width="0.00061"></path>
<path d="M0.840 0.092 Q0.912 0.403 1.534 0.436" stroke="hsl(120.0,100%,35%)" stroke-width="0.00015"></path>
<path d="M0.840 0.092 Q0.863 0.335 1.343 0.378" stroke="hsl(120.0,100%,35%)" stroke-width="0.00015"></path>
<path d="M0.840 0.092 Q0.917 0.081 0.913 0.041" stroke="hsl(120.0,100%,35%)" stroke-width="0.00030"></path>
<path d="M0.840 0.092 Q0.734 0.418 1.346 0.542" stroke="hsl(120.0,100%,35%)" stroke-width="0.00015"></path>
<path d="M1.722 0.701 Q1.857 0.688 1.862 0.620" stroke="hsl(240.0,100%,35%)" stroke-width="0.03063"></path>
<path d="M1.722 0.701 Q1.941 0.614 1.820 0.488" stroke="hsl(240.0,100%,35%)" stroke-width="0.00960"></path>
<path d="M1.722 0.701 Q1.347 0.615 1.098 0.780" stroke="hsl(240.0,100%,35%)" stroke-width="0.00030"></path>
<path d="M1.250 0.388 Q0.620 0.203 0.121 0.470" stroke="hsl(120.0,100%,35%)" stroke-width="0.00061"></path>
<path d="M1.250 0.388 Q1.354 0.469 1.534 0.436" stroke="hsl(120.0,100%,35%)" stroke-width="0.00137"></path>
<path d="M1.250 0.388 Q0.595 0.253 0.187 0.543" stroke="hsl(120.0,100%,35%)" stroke-width="0.00015"></path>
<path d="M1.246 0.658 Q1.568 0.604 1.534 0.436" stroke="hsl(120.0,100%,35%)" stroke-width="0.00061"></path>
<path d="M1.246 0.658 Q1.389 0.620 1.346 0.542" stroke="hsl(120.0,100%,35%)" stroke-width="0.00046"></path>
<path d="M0.997 0.146 Q0.442 0.193 0.412 0.474" stroke="hsl(120.0,100%,35%)" stroke-width="0.00030"></path>
<path d="M0.997 0.146 Q0.962 0.087 0.840 0.092" stroke="hsl(120.0,100%,35%)" stroke-width="0.00061"></path>
<path d="M0.997 0.146 Q0.767 0.132 0.690 0.241" stroke="hsl(120.0,100%,35%)" stroke-width="0.00030"></path>
<path d="M0.997 0.146 Q1.135 0.481 1.820 0.488" stroke="hsl(120.0,100%,35%)" stroke-width="0.00030"></path>
<path d="M0.997 0.146 Q1.103 0.291 1.410 0.271" stroke="hsl(120.0,100%,35%)" stroke-width="0.00015"></path>
<path d="M0.997 0.146 Q0.712 0.452 1.246 0.658" stroke="hsl(120.0,100%,35%)" stroke-width="0.00015"></path>
<path d="M0.997 0.146 Q0.541 0.483 1.098 0.780" stroke="hsl(120.0,100%,35%)" stroke-width="0.00015"></path>
<path d="M0.353 0.774 Q1.334 0.676 1.358 0.176" stroke="hsl(120.0,100%,35%)" stroke-width="0.00046"></path>
<path d="M0.353 0.774 Q0.327 0.714 0.204 0.713" stroke="hsl(120.0,100%,35%)" stroke-width="0.00381"></path>
<path d="M0.353 0.774 Q1.178 0.589 0.997 0.146" stroke="hsl(120.0,100%,35%)" stroke-width="0.00015"></path>
<path d="M0.353 0.774 Q1.231 0.999 1.862 0.620" stroke="hsl(120.0,100%,35%)" stroke-width="0.00229"></path>
<path d="M0.353 0.774 Q1.315 0.924 1.820 0.488" stroke="hsl(120.0,100%,35%)" stroke-width="0.00030"></path>
<path d="M0.353 0.774 Q0.351 0.882 0.562 0.906" stroke="hsl(120.0,100%,35%)" stroke-width="0.00015"></path>
<path d="M0.353 0.774 Q0.653 0.808 0.786 0.669" stroke="hsl(120.0,100%,35%)" stroke-width="0.00107"></path>
<path d="M0.353 0.774 Q0.480 0.576 0.121 0.470" stroke="hsl(120.0,100%,35%)" stroke-width="0.00046"></path>
<path d="M0.353 0.774 Q0.526 0.866 0.743 0.802" stroke="hsl(120.0,100%,35%)" stroke-width="0.00030"></path>
<path d="M0.743 0.802 Q0.544 0.650 0.204 0.713" stroke="hsl(120.0,100%,35%)" stroke-width="0.00137"></path>
<path d="M0.743 0.802 Q0.568 0.818 0.562 0.906" stroke="hsl(120.0,100%,35%)" stroke-width="0.00640"></path>
<path d="M0.743 0.802 Q1.395 0.525 0.997 0.146" stroke="hsl(120.0,100%,35%)" stroke-width="0.00091"></path>
<path d="M0.743 0.802 Q0.697 0.511 0.121 0.470" stroke="hsl(120.0,100%,35%)" stroke-width="0.00076"></path>
<path d="M0.743 0.802 Q1.533 0.860 1.820 0.488" stroke="hsl(120.0,100%,35%)" stroke-width="0.00152"></path>
<path d="M0.743 0.802 Q1.501 0.670 1.410 0.271" stroke="hsl(120.0,100%,35%)" stroke-width="0.00015"></path>
<path d="M0.743 0.802 Q1.005 0.780 1.019 0.647" stroke="hsl(120.0,100%,35%)" stroke-width="0.00107"></path>
<path d="M0.743 0.802 Q0.938 0.862 1.098 0.780" stroke="hsl(120.0,100%,35%)" stroke-width="0.00046"></path>
<path d="M0.743 0.802 Q0.870 0.744 0.786 0.669" stroke="hsl(120.0,100%,35%)" stroke-width="0.00137"></path>
<path d="M0.743 0.802 Q1.448 0.935 1.862 0.620" stroke="hsl(120.0,100%,35%)" stroke-width="0.00015"></path>
<path d="M0.743 0.802 Q1.378 0.825 1.563 0.520" stroke="hsl(120.0,100%,35%)" stroke-width="0.00015"></path>
<path d="M0.743 0.802 Q1.359 0.466 0.840 0.092" stroke="hsl(120.0,100%,35%)" stroke-width="0.00015"></path>
<path d="M0.562 0.906 Q0.736 0.890 0.743 0.802" stroke="hsl(120.0,100%,35%)" stroke-width="0.00731"></path>
<path d="M0.562 0.906 Q0.537 0.738 0.204 0.713" stroke="hsl(120.0,100%,35%)" stroke-width="0.00030"></path>
<path d="M0.562 0.906 Q0.863 0.833 0.786 0.669" stroke="hsl(120.0,100%,35%)" stroke-width="0.00015"></path>
<path d="M0.562 0.906 Q1.039 0.996 1.318 0.782" stroke="hsl(120.0,100%,35%)" stroke-width="0.00015"></path>
<path d="M0.412 0.474 Q0.967 0.427 0.997 0.146" stroke="hsl(120.0,100%,35%)" stroke-width="0.00046"></path>
<path d="M0.412 0.474 Q0.511 0.764 1.098 0.780" stroke="hsl(120.0,100%,35%)" stroke-width="0.00030"></path>
<path d="M0.412 0.474 Q0.932 0.369 0.840 0.092" stroke="hsl(120.0,100%,35%)" stroke-width="0.00030"></path>
<path d="M0.412 0.474 Q0.270 0.414 0.121 0.470" stroke="hsl(120.0,100%,35%)" stroke-width="0.00015"></path>
<path d="M0.412 0.474 Q0.951 0.727 1.563 0.520" stroke="hsl(120.0,100%,35%)" stroke-width="0.00015"></path>
<path d="M0.274 0.828 Q0.331 0.756 0.204 0.713" stroke="hsl(120.0,100%,35%)" stroke-width="0.00518"></path>
<path d="M0.274 0.828 Q1.181 0.631 0.997 0.146" stroke="hsl(120.0,100%,35%)" stroke-width="0.00015"></path>
<path d="M0.274 0.828 Q1.338 0.719 1.358 0.176" stroke="hsl(120.0,100%,35%)" stroke-width="0.00015"></path>
<path d="M0.274 0.828 Q0.529 0.908 0.743 0.802" stroke="hsl(120.0,100%,35%)" stroke-width="0.00030"></path>
<path d="M1.019 0.647 Q0.884 0.612 0.786 0.669" stroke="hsl(120.0,100%,35%)" stroke-width="0.00061"></path>
<path d="M1.019 0.647 Q0.757 0.669 0.743 0.802" stroke="hsl(120.0,100%,35%)" stroke-width="0.00152"></path>
<path d="M0.427 0.865 Q0.341 0.844 0.282 0.882" stroke="hsl(0.0,100%,35%)" stroke-width="0.00076"></path>
<path d="M0.427 0.865 Q1.425 0.955 1.820 0.488" stroke="hsl(0.0,100%,35%)" stroke-width="0.00030"></path>
<path d="M0.427 0.865 Q1.323 0.871 1.534 0.436" stroke="hsl(0.0,100%,35%)" stroke-width="0.00046"></path>
<path d="M0.282 0.882 Q0.998 0.643 0.690 0.241" stroke="hsl(0.0,100%,35%)" stroke-width="0.00046"></path>
<path d="M0.282 0.882 Q0.368 0.902 0.427 0.865" stroke="hsl(0.0,100%,35%)" stroke-width="0.00046"></path>
<path d="M0.282 0.882 Q0.564 0.805 0.476 0.651" stroke="hsl(0.0,100%,35%)" stroke-width="0.00015"></path>
<path d="M1.780 0.069 Q1.381 0.361 1.862 0.620" stroke="hsl(0.0,100%,35%)" stroke-width="0.00015"></path>
<path d="M1.780 0.069 Q1.097 -0.063 0.690 0.241" stroke="hsl(0.0,100%,35%)" stroke-width="0.00015"></path>
<path d="M1.780 0.069 Q1.531 0.161 1.656 0.303" stroke="hsl(0.0,100%,35%)" stroke-width="0.00015"></path>
<path d="M1.780 0.069 Q0.871 0.288 1.098 0.780" stroke="hsl(0.0,100%,35%)" stroke-width="0.00015"></path>
<path d="M1.780 0.069 Q1.484 0.038 1.358 0.176" stroke="hsl(0.0,100%,35%)" stroke-width="0.00015"></path>
<path d="M0.187 0.543 Q0.946 0.758 1.534 0.436" stroke="hsl(120.0,100%,35%)" stroke-width="0.00015"></path>
<path d="M0.187 0.543 Q1.048 0.842 1.820 0.488" stroke="hsl(120.0,100%,35%)" stroke-width="0.00015"></path>
<path d="M0.187 0.543 Q0.910 0.506 0.997 0.146" stroke="hsl(120.0,100%,35%)" stroke-width="0.00015"></path>
<path d="M0.187 0.543 Q0.768 0.774 1.346 0.542" stroke="hsl(120.0,100%,35%)" stroke-width="0.00030"></path>
<path d="M0.187 0.543 Q0.059 0.631 0.204 0.713" stroke="hsl(120.0,100%,35%)" stroke-width="0.00015"></path>
<path d="M0.187 0.543 Q0.212 0.493 0.121 0.470" stroke="hsl(120.0,100%,35%)" stroke-width="0.00015"></path>
<path d="M0.147 0.332 Q0.023 0.396 0.121 0.470" stroke="hsl(120.0,100%,35%)" stroke-width="0.00015"></path>
<path d="M0.147 0.332 Q-0.130 0.534 0.204 0.713" stroke="hsl(120.0,100%,35%)" stroke-width="0.00015"></path>
<path d="M0.147 0.332 Q0.196 0.628 0.786 0.669" stroke="hsl(120.0,100%,35%)" stroke-width="0.00015"></path>
<path d="M0.078 0.759 Q1.029 0.636 0.997 0.146" stroke="hsl(120.0,100%,35%)" stroke-width="0.00015"></path>
<path d="M0.078 0.759 Q0.178 0.761 0.204 0.713" stroke="hsl(120.0,100%,35%)" stroke-width="0.00030"></path>
<path d="M0.078 0.759 Q1.185 0.723 1.358 0.176" stroke="hsl(120.0,100%,35%)" stroke-width="0.00015"></path>
</g>
<text x="1.722" y="0.107" font-size="0.023640" fill="hsl(0.0,100%,20%)">adlai</text>
<text x="1.098" y="0.755" font-size="0.050034" fill="hsl(0.0,100%,20%)">bsalomon</text>
<text x="1.656" y="0.277" font-size="0.052989" fill="hsl(0.0,100%,20%)">robertphillips</text>
<text x="1.053" y="0.921" font-size="0.043735" fill="hsl(0.0,100%,20%)">csmartdalton</text>
<text x="1.343" y="0.367" font-size="0.022049" fill="hsl(120.0,100%,20%)">rmistry</text>
<text x="1.534" y="0.423" font-size="0.025931" fill="hsl(120.0,100%,20%)">borenet</text>
<text x="1.563" y="0.510" font-size="0.018945" fill="hsl(120.0,100%,20%)">mtklein</text>
<text x="1.022" y="0.330" font-size="0.039877" fill="hsl(0.0,100%,20%)">jvanverth</text>
<text x="0.786" y="0.654" font-size="0.031544" fill="hsl(120.0,100%,20%)">reed</text>
<text x="1.820" y="0.448" font-size="0.079555" fill="hsl(240.0,100%,20%)">brianosman</text>
<text x="0.121" y="0.451" font-size="0.037286" fill="hsl(120.0,100%,20%)">kjlubick</text>
<text x="1.358" y="0.157" font-size="0.037347" fill="hsl(120.0,100%,20%)">herb</text>
<text x="0.204" y="0.695" font-size="0.036610" fill="hsl(120.0,100%,20%)">bungeman</text>
<text x="0.690" y="0.219" font-size="0.043735" fill="hsl(0.0,100%,20%)">egdaniel</text>
<text x="1.408" y="0.497" font-size="0.004766" fill="hsl(240.0,100%,20%)">bajones</text>
<text x="1.862" y="0.578" font-size="0.083211" fill="hsl(240.0,100%,20%)">johnstiles</text>
<text x="1.346" y="0.532" font-size="0.019419" fill="hsl(120.0,100%,20%)">jcgregorio</text>
<text x="0.348" y="0.574" font-size="0.009043" fill="hsl(120.0,100%,20%)">erikrose</text>
<text x="1.410" y="0.247" font-size="0.048886" fill="hsl(0.0,100%,20%)">michaelludwig</text>
<text x="0.840" y="0.085" font-size="0.014768" fill="hsl(120.0,100%,20%)">scroggo</text>
<text x="1.722" y="0.676" font-size="0.050170" fill="hsl(240.0,100%,20%)">ethannicholas</text>
<text x="1.250" y="0.383" font-size="0.010442" fill="hsl(120.0,100%,20%)">westont</text>
<text x="1.246" y="0.653" font-size="0.009768" fill="hsl(120.0,100%,20%)">hcm</text>
<text x="0.997" y="0.137" font-size="0.016511" fill="hsl(120.0,100%,20%)">djsollen</text>
<text x="0.353" y="0.764" font-size="0.020109" fill="hsl(120.0,100%,20%)">jlavrova</text>
<text x="0.743" y="0.786" font-size="0.030593" fill="hsl(120.0,100%,20%)">fmalita</text>
<text x="0.562" y="0.896" font-size="0.021633" fill="hsl(120.0,100%,20%)">jmbetancourt</text>
<text x="1.318" y="0.781" font-size="0.003014" fill="hsl(120.0,100%,20%)">stani</text>
<text x="0.412" y="0.468" font-size="0.012245" fill="hsl(120.0,100%,20%)">nifong</text>
<text x="0.364" y="0.626" font-size="0.002132" fill="hsl(120.0,100%,20%)">grieger</text>
<text x="0.274" y="0.821" font-size="0.013977" fill="hsl(120.0,100%,20%)">drott</text>
<text x="0.858" y="0.866" font-size="0.003014" fill="hsl(0.0,100%,20%)">junov</text>
<text x="1.019" y="0.641" font-size="0.012610" fill="hsl(120.0,100%,20%)">tdenniston</text>
<text x="0.427" y="0.861" font-size="0.007685" fill="hsl(0.0,100%,20%)">cwallez</text>
<text x="0.282" y="0.878" font-size="0.007384" fill="hsl(0.0,100%,20%)">senorblanco</text>
<text x="1.780" y="0.067" font-size="0.004766" fill="hsl(0.0,100%,20%)">emaxx</text>
<text x="0.187" y="0.536" font-size="0.012966" fill="hsl(120.0,100%,20%)">lovisolo</text>
<text x="1.148" y="0.189" font-size="0.002132" fill="hsl(120.0,100%,20%)">jiulongw</text>
<text x="0.733" y="0.539" font-size="0.006395" fill="hsl(120.0,100%,20%)">yjbanov</text>
<text x="0.147" y="0.330" font-size="0.003692" fill="hsl(120.0,100%,20%)">pkasting</text>
<text x="0.736" y="0.438" font-size="0.002132" fill="hsl(120.0,100%,20%)">whesse</text>
<text x="0.487" y="0.536" font-size="0.002132" fill="hsl(120.0,100%,20%)">mdebbar</text>
<text x="0.913" y="0.040" font-size="0.003014" fill="hsl(120.0,100%,20%)">nigeltao</text>
<text x="0.476" y="0.650" font-size="0.002132" fill="hsl(0.0,100%,20%)">enga</text>
<text x="0.078" y="0.757" font-size="0.004263" fill="hsl(120.0,100%,20%)">thestig</text>
</svg>
