<svg width="4000" height="2000" viewBox="-0.025 -0.025 2.05 1.05" xmlns="http://www.w3.org/2000/svg">
  <style>
    path {
      fill: none;
      stroke-linecap: round;
      stroke-opacity: 0.4;
    }

    text {
      text-anchor: middle;
      alignment-baseline: hanging;
    }
  </style>
  <g opacity="0.4">
<path d="M1.637 0.642 Q1.178 0.317 0.443 0.469" stroke="hsl(0.0,100%,35%)" stroke-width="0.00440"></path>
<path d="M1.637 0.642 Q1.883 0.629 1.912 0.507" stroke="hsl(0.0,100%,35%)" stroke-width="0.00440"></path>
<path d="M1.637 0.642 Q1.958 0.433 1.620 0.231" stroke="hsl(0.0,100%,35%)" stroke-width="0.00440"></path>
<path d="M1.637 0.642 Q1.016 0.628 0.853 0.928" stroke="hsl(0.0,100%,35%)" stroke-width="0.00440"></path>
<path d="M0.443 0.469 Q0.902 0.795 1.637 0.642" stroke="hsl(0.0,100%,35%)" stroke-width="0.01760"></path>
<path d="M0.443 0.469 Q1.147 0.782 1.912 0.507" stroke="hsl(0.0,100%,35%)" stroke-width="0.00440"></path>
<path d="M0.443 0.469 Q0.581 0.676 1.015 0.654" stroke="hsl(0.0,100%,35%)" stroke-width="0.00440"></path>
<path d="M0.443 0.469 Q0.863 0.552 1.115 0.365" stroke="hsl(0.0,100%,35%)" stroke-width="0.03081"></path>
<path d="M0.443 0.469 Q0.947 0.363 0.850 0.093" stroke="hsl(0.0,100%,35%)" stroke-width="0.00880"></path>
<path d="M1.912 0.507 Q1.666 0.520 1.637 0.642" stroke="hsl(0.0,100%,35%)" stroke-width="0.05721"></path>
<path d="M1.912 0.507 Q1.627 0.277 1.115 0.365" stroke="hsl(0.0,100%,35%)" stroke-width="0.00440"></path>
<path d="M1.912 0.507 Q1.207 0.194 0.443 0.469" stroke="hsl(0.0,100%,35%)" stroke-width="0.02201"></path>
<path d="M1.912 0.507 Q1.045 0.506 0.853 0.928" stroke="hsl(0.0,100%,35%)" stroke-width="0.00880"></path>
<path d="M1.912 0.507 Q2.056 0.411 1.902 0.320" stroke="hsl(0.0,100%,35%)" stroke-width="0.00440"></path>
<path d="M1.912 0.507 Q0.905 0.232 0.148 0.663" stroke="hsl(0.0,100%,35%)" stroke-width="0.00880"></path>
<path d="M1.912 0.507 Q1.987 0.311 1.620 0.231" stroke="hsl(0.0,100%,35%)" stroke-width="0.00880"></path>
<path d="M0.853 0.928 Q1.474 0.942 1.637 0.642" stroke="hsl(180.0,100%,35%)" stroke-width="0.00880"></path>
<path d="M0.853 0.928 Q0.713 0.736 0.307 0.762" stroke="hsl(180.0,100%,35%)" stroke-width="0.02201"></path>
<path d="M0.853 0.928 Q0.712 0.655 0.148 0.663" stroke="hsl(180.0,100%,35%)" stroke-width="0.00440"></path>
<path d="M0.853 0.928 Q0.769 0.854 0.606 0.878" stroke="hsl(180.0,100%,35%)" stroke-width="0.02641"></path>
<path d="M1.220 0.834 Q0.878 0.733 0.606 0.878" stroke="hsl(180.0,100%,35%)" stroke-width="0.01320"></path>
<path d="M1.220 0.834 Q0.822 0.615 0.307 0.762" stroke="hsl(180.0,100%,35%)" stroke-width="0.00880"></path>
<path d="M1.220 0.834 Q1.160 0.760 1.002 0.773" stroke="hsl(180.0,100%,35%)" stroke-width="0.00440"></path>
<path d="M1.220 0.834 Q0.962 0.808 0.853 0.928" stroke="hsl(180.0,100%,35%)" stroke-width="0.02201"></path>
<path d="M1.220 0.834 Q1.262 0.703 1.015 0.654" stroke="hsl(180.0,100%,35%)" stroke-width="0.01320"></path>
<path d="M1.220 0.834 Q1.828 0.809 1.912 0.507" stroke="hsl(180.0,100%,35%)" stroke-width="0.00880"></path>
<path d="M1.220 0.834 Q1.027 0.692 0.706 0.755" stroke="hsl(180.0,100%,35%)" stroke-width="0.00440"></path>
<path d="M1.220 0.834 Q1.543 0.579 1.115 0.365" stroke="hsl(180.0,100%,35%)" stroke-width="0.00440"></path>
<path d="M1.220 0.834 Q1.903 0.613 1.620 0.231" stroke="hsl(180.0,100%,35%)" stroke-width="0.00440"></path>
<path d="M0.307 0.762 Q1.068 0.968 1.637 0.642" stroke="hsl(180.0,100%,35%)" stroke-width="0.00440"></path>
<path d="M0.307 0.762 Q0.307 0.681 0.148 0.663" stroke="hsl(180.0,100%,35%)" stroke-width="0.02641"></path>
<path d="M0.307 0.762 Q0.609 0.643 0.443 0.469" stroke="hsl(180.0,100%,35%)" stroke-width="0.00880"></path>
<path d="M0.307 0.762 Q0.747 0.849 1.015 0.654" stroke="hsl(180.0,100%,35%)" stroke-width="0.00440"></path>
</g>
<text x="1.637" y="0.605" font-size="0.073855" fill="hsl(0.0,100%,20%)">brianosman</text>
<text x="0.443" y="0.433" font-size="0.072300" fill="hsl(0.0,100%,20%)">kjlubick</text>
<text x="1.912" y="0.466" font-size="0.082572" fill="hsl(0.0,100%,20%)">johnstiles</text>
<text x="1.620" y="0.216" font-size="0.030151" fill="hsl(0.0,100%,20%)">herb</text>
<text x="0.853" y="0.893" font-size="0.070711" fill="hsl(180.0,100%,20%)">michaelludwig</text>
<text x="1.115" y="0.342" font-size="0.045227" fill="hsl(0.0,100%,20%)">bungeman</text>
<text x="1.902" y="0.312" font-size="0.015076" fill="hsl(0.0,100%,20%)">rmistry</text>
<text x="0.148" y="0.640" font-size="0.045227" fill="hsl(180.0,100%,20%)">nicolettep</text>
<text x="1.220" y="0.801" font-size="0.065713" fill="hsl(180.0,100%,20%)">jvanverth</text>
<text x="0.606" y="0.855" font-size="0.045227" fill="hsl(180.0,100%,20%)">jamesgk</text>
<text x="0.307" y="0.731" font-size="0.062158" fill="hsl(180.0,100%,20%)">robertphillips</text>
<text x="1.002" y="0.766" font-size="0.015076" fill="hsl(180.0,100%,20%)">armansito</text>
<text x="1.015" y="0.637" font-size="0.033710" fill="hsl(180.0,100%,20%)">egdaniel</text>
<text x="0.706" y="0.747" font-size="0.015076" fill="hsl(180.0,100%,20%)">scroggo</text>
<text x="0.850" y="0.082" font-size="0.021320" fill="hsl(0.0,100%,20%)">lovisolo</text>
</svg>
