<svg width="4000" height="2000" viewBox="-0.025 -0.025 2.05 1.05" xmlns="http://www.w3.org/2000/svg">
  <style>
    path {
      fill: none;
      stroke-linecap: round;
      stroke-opacity: 0.4;
    }

    text {
      text-anchor: middle;
      alignment-baseline: hanging;
    }
  </style>
  <g opacity="0.4">
<path d="M0.374 0.720 Q0.659 0.601 0.489 0.436" stroke="hsl(0.0,100%,35%)" stroke-width="0.00871"></path>
<path d="M0.374 0.720 Q1.055 0.780 1.322 0.462" stroke="hsl(0.0,100%,35%)" stroke-width="0.00135"></path>
<path d="M0.374 0.720 Q0.922 0.846 1.288 0.607" stroke="hsl(0.0,100%,35%)" stroke-width="0.00135"></path>
<path d="M0.374 0.720 Q0.601 0.683 0.577 0.564" stroke="hsl(0.0,100%,35%)" stroke-width="0.00315"></path>
<path d="M0.374 0.720 Q1.149 0.720 1.319 0.343" stroke="hsl(0.0,100%,35%)" stroke-width="0.00015"></path>
<path d="M0.374 0.720 Q1.009 0.692 1.094 0.376" stroke="hsl(0.0,100%,35%)" stroke-width="0.00180"></path>
<path d="M0.374 0.720 Q0.535 0.845 0.814 0.795" stroke="hsl(0.0,100%,35%)" stroke-width="0.00060"></path>
<path d="M0.374 0.720 Q0.880 0.742 1.033 0.500" stroke="hsl(0.0,100%,35%)" stroke-width="0.00150"></path>
<path d="M0.374 0.720 Q1.062 0.644 1.065 0.292" stroke="hsl(0.0,100%,35%)" stroke-width="0.00015"></path>
<path d="M0.374 0.720 Q0.397 0.944 0.840 0.982" stroke="hsl(0.0,100%,35%)" stroke-width="0.00165"></path>
<path d="M0.374 0.720 Q0.340 0.801 0.489 0.835" stroke="hsl(0.0,100%,35%)" stroke-width="0.00015"></path>
<path d="M0.374 0.720 Q0.773 1.067 1.537 0.949" stroke="hsl(0.0,100%,35%)" stroke-width="0.00015"></path>
<path d="M0.374 0.720 Q0.569 0.500 0.181 0.356" stroke="hsl(0.0,100%,35%)" stroke-width="0.00015"></path>
<path d="M0.489 0.436 Q0.752 0.682 1.288 0.607" stroke="hsl(0.0,100%,35%)" stroke-width="0.00586"></path>
<path d="M0.489 0.436 Q0.204 0.555 0.374 0.720" stroke="hsl(0.0,100%,35%)" stroke-width="0.02012"></path>
<path d="M0.489 0.436 Q0.431 0.518 0.577 0.564" stroke="hsl(0.0,100%,35%)" stroke-width="0.09324"></path>
<path d="M0.489 0.436 Q0.710 0.577 1.033 0.500" stroke="hsl(0.0,100%,35%)" stroke-width="0.00255"></path>
<path d="M0.489 0.436 Q0.709 0.427 0.740 0.318" stroke="hsl(0.0,100%,35%)" stroke-width="0.00090"></path>
<path d="M0.489 0.436 Q0.227 0.780 0.840 0.982" stroke="hsl(0.0,100%,35%)" stroke-width="0.00465"></path>
<path d="M0.489 0.436 Q0.964 0.498 1.190 0.280" stroke="hsl(0.0,100%,35%)" stroke-width="0.00330"></path>
<path d="M0.489 0.436 Q0.170 0.636 0.489 0.835" stroke="hsl(0.0,100%,35%)" stroke-width="0.00015"></path>
<path d="M0.489 0.436 Q0.505 0.755 1.131 0.818" stroke="hsl(0.0,100%,35%)" stroke-width="0.00015"></path>
<path d="M0.489 0.436 Q0.365 0.680 0.814 0.795" stroke="hsl(0.0,100%,35%)" stroke-width="0.00240"></path>
<path d="M0.489 0.436 Q0.495 0.841 1.286 0.926" stroke="hsl(0.0,100%,35%)" stroke-width="0.00060"></path>
<path d="M0.489 0.436 Q0.359 0.602 0.653 0.701" stroke="hsl(0.0,100%,35%)" stroke-width="0.00015"></path>
<path d="M0.489 0.436 Q0.575 0.679 1.069 0.691" stroke="hsl(0.0,100%,35%)" stroke-width="0.00030"></path>
<path d="M0.489 0.436 Q0.979 0.556 1.319 0.343" stroke="hsl(0.0,100%,35%)" stroke-width="0.00135"></path>
<path d="M0.489 0.436 Q0.885 0.616 1.322 0.462" stroke="hsl(0.0,100%,35%)" stroke-width="0.00285"></path>
<path d="M0.489 0.436 Q1.227 0.536 1.583 0.198" stroke="hsl(0.0,100%,35%)" stroke-width="0.00961"></path>
<path d="M0.489 0.436 Q0.410 0.806 1.113 0.925" stroke="hsl(0.0,100%,35%)" stroke-width="0.00015"></path>
<path d="M0.489 0.436 Q0.574 0.809 1.320 0.849" stroke="hsl(0.0,100%,35%)" stroke-width="0.00030"></path>
<path d="M0.489 0.436 Q0.694 0.351 0.572 0.232" stroke="hsl(0.0,100%,35%)" stroke-width="0.00030"></path>
<path d="M0.489 0.436 Q0.839 0.527 1.094 0.376" stroke="hsl(0.0,100%,35%)" stroke-width="0.00270"></path>
<path d="M0.489 0.436 Q0.603 0.902 1.537 0.949" stroke="hsl(0.0,100%,35%)" stroke-width="0.00060"></path>
<path d="M0.489 0.436 Q0.892 0.479 1.065 0.292" stroke="hsl(0.0,100%,35%)" stroke-width="0.00090"></path>
<path d="M0.489 0.436 Q0.399 0.335 0.181 0.356" stroke="hsl(0.0,100%,35%)" stroke-width="0.00616"></path>
<path d="M0.489 0.436 Q0.527 0.588 0.832 0.602" stroke="hsl(0.0,100%,35%)" stroke-width="0.00075"></path>
<path d="M0.489 0.436 Q0.238 0.710 0.717 0.893" stroke="hsl(0.0,100%,35%)" stroke-width="0.00150"></path>
<path d="M0.489 0.436 Q0.913 0.784 1.686 0.654" stroke="hsl(0.0,100%,35%)" stroke-width="0.00015"></path>
<path d="M0.489 0.436 Q0.692 0.237 0.348 0.094" stroke="hsl(0.0,100%,35%)" stroke-width="0.00015"></path>
<path d="M1.322 0.462 Q0.926 0.282 0.489 0.436" stroke="hsl(180.0,100%,35%)" stroke-width="0.00135"></path>
<path d="M1.322 0.462 Q1.189 0.528 1.288 0.607" stroke="hsl(180.0,100%,35%)" stroke-width="0.00661"></path>
<path d="M1.322 0.462 Q1.664 0.382 1.583 0.198" stroke="hsl(180.0,100%,35%)" stroke-width="0.00525"></path>
<path d="M1.322 0.462 Q1.146 0.273 0.740 0.318" stroke="hsl(180.0,100%,35%)" stroke-width="0.00015"></path>
<path d="M1.322 0.462 Q1.401 0.344 1.190 0.280" stroke="hsl(180.0,100%,35%)" stroke-width="0.00450"></path>
<path d="M1.322 0.462 Q1.129 0.083 0.348 0.094" stroke="hsl(180.0,100%,35%)" stroke-width="0.00015"></path>
<path d="M1.322 0.462 Q0.868 0.364 0.577 0.564" stroke="hsl(180.0,100%,35%)" stroke-width="0.00150"></path>
<path d="M1.322 0.462 Q1.147 0.423 1.033 0.500" stroke="hsl(180.0,100%,35%)" stroke-width="0.00210"></path>
<path d="M1.322 0.462 Q0.664 0.626 0.840 0.982" stroke="hsl(180.0,100%,35%)" stroke-width="0.00120"></path>
<path d="M1.322 0.462 Q1.276 0.374 1.094 0.376" stroke="hsl(180.0,100%,35%)" stroke-width="0.00901"></path>
<path d="M1.322 0.462 Q1.329 0.326 1.065 0.292" stroke="hsl(180.0,100%,35%)" stroke-width="0.00015"></path>
<path d="M1.322 0.462 Q0.607 0.482 0.489 0.835" stroke="hsl(180.0,100%,35%)" stroke-width="0.00015"></path>
<path d="M1.322 0.462 Q0.641 0.401 0.374 0.720" stroke="hsl(180.0,100%,35%)" stroke-width="0.00030"></path>
<path d="M1.322 0.462 Q1.416 0.402 1.319 0.343" stroke="hsl(180.0,100%,35%)" stroke-width="0.00015"></path>
<path d="M1.322 0.462 Q0.964 0.434 0.832 0.602" stroke="hsl(180.0,100%,35%)" stroke-width="0.00015"></path>
<path d="M1.322 0.462 Q0.802 0.527 0.814 0.795" stroke="hsl(180.0,100%,35%)" stroke-width="0.00030"></path>
<path d="M1.322 0.462 Q0.711 0.461 0.576 0.759" stroke="hsl(180.0,100%,35%)" stroke-width="0.00030"></path>
<path d="M1.288 0.607 Q1.421 0.541 1.322 0.462" stroke="hsl(180.0,100%,35%)" stroke-width="0.00811"></path>
<path d="M1.288 0.607 Q0.967 0.443 0.577 0.564" stroke="hsl(180.0,100%,35%)" stroke-width="0.00495"></path>
<path d="M1.288 0.607 Q1.376 0.453 1.094 0.376" stroke="hsl(180.0,100%,35%)" stroke-width="0.00556"></path>
<path d="M1.288 0.607 Q1.515 0.481 1.319 0.343" stroke="hsl(180.0,100%,35%)" stroke-width="0.00135"></path>
<path d="M1.288 0.607 Q1.763 0.462 1.583 0.198" stroke="hsl(180.0,100%,35%)" stroke-width="0.00886"></path>
<path d="M1.288 0.607 Q0.764 0.705 0.840 0.982" stroke="hsl(180.0,100%,35%)" stroke-width="0.00180"></path>
<path d="M1.288 0.607 Q1.246 0.503 1.033 0.500" stroke="hsl(180.0,100%,35%)" stroke-width="0.00165"></path>
<path d="M1.288 0.607 Q1.429 0.405 1.065 0.292" stroke="hsl(180.0,100%,35%)" stroke-width="0.00075"></path>
<path d="M1.288 0.607 Q1.025 0.362 0.489 0.436" stroke="hsl(180.0,100%,35%)" stroke-width="0.00090"></path>
<path d="M1.288 0.607 Q1.246 0.353 0.740 0.318" stroke="hsl(180.0,100%,35%)" stroke-width="0.00015"></path>
<path d="M1.288 0.607 Q0.774 0.636 0.717 0.893" stroke="hsl(180.0,100%,35%)" stroke-width="0.00015"></path>
<path d="M1.288 0.607 Q1.501 0.424 1.190 0.280" stroke="hsl(180.0,100%,35%)" stroke-width="0.00060"></path>
<path d="M1.288 0.607 Q0.706 0.561 0.489 0.835" stroke="hsl(180.0,100%,35%)" stroke-width="0.00015"></path>
<path d="M1.288 0.607 Q1.230 0.276 0.572 0.232" stroke="hsl(180.0,100%,35%)" stroke-width="0.00015"></path>
<path d="M1.288 0.607 Q0.901 0.606 0.814 0.795" stroke="hsl(180.0,100%,35%)" stroke-width="0.00030"></path>
<path d="M1.288 0.607 Q1.450 0.710 1.686 0.654" stroke="hsl(180.0,100%,35%)" stroke-width="0.00045"></path>
<path d="M0.577 0.564 Q0.856 0.623 1.033 0.500" stroke="hsl(0.0,100%,35%)" stroke-width="0.00315"></path>
<path d="M0.577 0.564 Q0.635 0.482 0.489 0.436" stroke="hsl(0.0,100%,35%)" stroke-width="0.00946"></path>
<path d="M0.577 0.564 Q0.437 0.516 0.312 0.574" stroke="hsl(0.0,100%,35%)" stroke-width="0.00030"></path>
<path d="M0.577 0.564 Q0.511 0.727 0.814 0.795" stroke="hsl(0.0,100%,35%)" stroke-width="0.00210"></path>
<path d="M0.577 0.564 Q0.374 0.826 0.840 0.982" stroke="hsl(0.0,100%,35%)" stroke-width="0.00270"></path>
<path d="M0.577 0.564 Q1.373 0.582 1.583 0.198" stroke="hsl(0.0,100%,35%)" stroke-width="0.00120"></path>
<path d="M0.577 0.564 Q0.898 0.728 1.288 0.607" stroke="hsl(0.0,100%,35%)" stroke-width="0.00420"></path>
<path d="M0.577 0.564 Q0.986 0.574 1.094 0.376" stroke="hsl(0.0,100%,35%)" stroke-width="0.00150"></path>
<path d="M0.577 0.564 Q1.111 0.544 1.190 0.280" stroke="hsl(0.0,100%,35%)" stroke-width="0.00405"></path>
<path d="M0.577 0.564 Q1.031 0.662 1.322 0.462" stroke="hsl(0.0,100%,35%)" stroke-width="0.00075"></path>
<path d="M0.577 0.564 Q0.856 0.473 0.740 0.318" stroke="hsl(0.0,100%,35%)" stroke-width="0.00015"></path>
<path d="M0.577 0.564 Q0.749 0.949 1.537 0.949" stroke="hsl(0.0,100%,35%)" stroke-width="0.00030"></path>
<path d="M0.577 0.564 Q0.384 0.756 0.717 0.893" stroke="hsl(0.0,100%,35%)" stroke-width="0.00030"></path>
<path d="M0.577 0.564 Q0.351 0.601 0.374 0.720" stroke="hsl(0.0,100%,35%)" stroke-width="0.00075"></path>
<path d="M0.577 0.564 Q0.721 0.726 1.069 0.691" stroke="hsl(0.0,100%,35%)" stroke-width="0.00075"></path>
<path d="M0.577 0.564 Q0.840 0.397 0.572 0.232" stroke="hsl(0.0,100%,35%)" stroke-width="0.00015"></path>
<path d="M0.577 0.564 Q0.545 0.381 0.181 0.356" stroke="hsl(0.0,100%,35%)" stroke-width="0.00015"></path>
<path d="M0.577 0.564 Q0.793 0.548 0.809 0.439" stroke="hsl(0.0,100%,35%)" stroke-width="0.00015"></path>
<path d="M1.319 0.343 Q0.829 0.223 0.489 0.436" stroke="hsl(180.0,100%,35%)" stroke-width="0.00105"></path>
<path d="M1.319 0.343 Q0.700 0.389 0.653 0.701" stroke="hsl(180.0,100%,35%)" stroke-width="0.00015"></path>
<path d="M1.319 0.343 Q1.567 0.323 1.583 0.198" stroke="hsl(180.0,100%,35%)" stroke-width="0.00075"></path>
<path d="M1.319 0.343 Q1.225 0.403 1.322 0.462" stroke="hsl(180.0,100%,35%)" stroke-width="0.00015"></path>
<path d="M1.319 0.343 Q1.180 0.315 1.094 0.376" stroke="hsl(180.0,100%,35%)" stroke-width="0.00180"></path>
<path d="M1.319 0.343 Q0.510 0.423 0.489 0.835" stroke="hsl(180.0,100%,35%)" stroke-width="0.00015"></path>
<path d="M1.319 0.343 Q1.092 0.469 1.288 0.607" stroke="hsl(180.0,100%,35%)" stroke-width="0.00165"></path>
<path d="M1.319 0.343 Q0.771 0.305 0.577 0.564" stroke="hsl(180.0,100%,35%)" stroke-width="0.00015"></path>
<path d="M1.319 0.343 Q0.568 0.567 0.840 0.982" stroke="hsl(180.0,100%,35%)" stroke-width="0.00045"></path>
<path d="M1.319 0.343 Q1.034 0.138 0.572 0.232" stroke="hsl(180.0,100%,35%)" stroke-width="0.00015"></path>
<path d="M1.094 0.376 Q1.482 0.385 1.583 0.198" stroke="hsl(180.0,100%,35%)" stroke-width="0.00300"></path>
<path d="M1.094 0.376 Q1.140 0.465 1.322 0.462" stroke="hsl(180.0,100%,35%)" stroke-width="0.00541"></path>
<path d="M1.094 0.376 Q1.234 0.405 1.319 0.343" stroke="hsl(180.0,100%,35%)" stroke-width="0.00270"></path>
<path d="M1.094 0.376 Q1.147 0.328 1.065 0.292" stroke="hsl(180.0,100%,35%)" stroke-width="0.00045"></path>
<path d="M1.094 0.376 Q0.965 0.426 1.033 0.500" stroke="hsl(180.0,100%,35%)" stroke-width="0.00240"></path>
<path d="M1.094 0.376 Q0.686 0.367 0.577 0.564" stroke="hsl(180.0,100%,35%)" stroke-width="0.00045"></path>
<path d="M1.094 0.376 Q1.007 0.531 1.288 0.607" stroke="hsl(180.0,100%,35%)" stroke-width="0.00375"></path>
<path d="M1.094 0.376 Q0.744 0.285 0.489 0.436" stroke="hsl(180.0,100%,35%)" stroke-width="0.00015"></path>
<path d="M1.094 0.376 Q1.219 0.347 1.190 0.280" stroke="hsl(180.0,100%,35%)" stroke-width="0.00015"></path>
<path d="M1.094 0.376 Q0.830 0.528 1.069 0.691" stroke="hsl(180.0,100%,35%)" stroke-width="0.00015"></path>
<path d="M1.094 0.376 Q0.482 0.629 0.840 0.982" stroke="hsl(180.0,100%,35%)" stroke-width="0.00075"></path>
<path d="M1.094 0.376 Q0.750 0.690 1.286 0.926" stroke="hsl(180.0,100%,35%)" stroke-width="0.00030"></path>
<path d="M1.094 0.376 Q0.782 0.437 0.832 0.602" stroke="hsl(180.0,100%,35%)" stroke-width="0.00015"></path>
<path d="M1.094 0.376 Q0.425 0.485 0.489 0.835" stroke="hsl(180.0,100%,35%)" stroke-width="0.00015"></path>
<path d="M1.094 0.376 Q0.493 0.559 0.717 0.893" stroke="hsl(180.0,100%,35%)" stroke-width="0.00015"></path>
<path d="M0.814 0.795 Q1.414 0.612 1.190 0.280" stroke="hsl(180.0,100%,35%)" stroke-width="0.01096"></path>
<path d="M0.814 0.795 Q0.938 0.550 0.489 0.436" stroke="hsl(180.0,100%,35%)" stroke-width="0.00060"></path>
<path d="M0.814 0.795 Q1.052 1.017 1.537 0.949" stroke="hsl(180.0,100%,35%)" stroke-width="0.00015"></path>
<path d="M0.814 0.795 Q0.677 0.894 0.840 0.982" stroke="hsl(180.0,100%,35%)" stroke-width="0.00285"></path>
<path d="M0.814 0.795 Q1.159 0.691 1.033 0.500" stroke="hsl(180.0,100%,35%)" stroke-width="0.00015"></path>
<path d="M0.814 0.795 Q1.159 0.541 0.740 0.318" stroke="hsl(180.0,100%,35%)" stroke-width="0.00150"></path>
<path d="M0.814 0.795 Q0.880 0.632 0.577 0.564" stroke="hsl(180.0,100%,35%)" stroke-width="0.00225"></path>
<path d="M0.814 0.795 Q0.619 0.750 0.489 0.835" stroke="hsl(180.0,100%,35%)" stroke-width="0.00030"></path>
<path d="M0.814 0.795 Q1.289 0.642 1.094 0.376" stroke="hsl(180.0,100%,35%)" stroke-width="0.00045"></path>
<path d="M0.814 0.795 Q1.676 0.650 1.583 0.198" stroke="hsl(180.0,100%,35%)" stroke-width="0.00030"></path>
<path d="M0.814 0.795 Q1.201 0.796 1.288 0.607" stroke="hsl(180.0,100%,35%)" stroke-width="0.00015"></path>
<path d="M0.814 0.795 Q0.977 0.702 0.832 0.602" stroke="hsl(180.0,100%,35%)" stroke-width="0.00075"></path>
<path d="M0.814 0.795 Q0.945 0.955 1.286 0.926" stroke="hsl(180.0,100%,35%)" stroke-width="0.00015"></path>
<path d="M0.814 0.795 Q1.334 0.730 1.322 0.462" stroke="hsl(180.0,100%,35%)" stroke-width="0.00015"></path>
<path d="M0.814 0.795 Q0.957 0.739 0.881 0.657" stroke="hsl(180.0,100%,35%)" stroke-width="0.00030"></path>
<path d="M0.814 0.795 Q0.687 0.824 0.717 0.893" stroke="hsl(180.0,100%,35%)" stroke-width="0.00015"></path>
<path d="M1.033 0.500 Q0.754 0.441 0.577 0.564" stroke="hsl(180.0,100%,35%)" stroke-width="0.00766"></path>
<path d="M1.033 0.500 Q0.812 0.359 0.489 0.436" stroke="hsl(180.0,100%,35%)" stroke-width="0.00120"></path>
<path d="M1.033 0.500 Q1.075 0.605 1.288 0.607" stroke="hsl(180.0,100%,35%)" stroke-width="0.00225"></path>
<path d="M1.033 0.500 Q1.033 0.350 0.740 0.318" stroke="hsl(180.0,100%,35%)" stroke-width="0.00165"></path>
<path d="M1.033 0.500 Q1.288 0.421 1.190 0.280" stroke="hsl(180.0,100%,35%)" stroke-width="0.00150"></path>
<path d="M1.033 0.500 Q1.550 0.459 1.583 0.198" stroke="hsl(180.0,100%,35%)" stroke-width="0.00375"></path>
<path d="M1.033 0.500 Q0.561 0.633 0.717 0.893" stroke="hsl(180.0,100%,35%)" stroke-width="0.00045"></path>
<path d="M1.033 0.500 Q1.163 0.451 1.094 0.376" stroke="hsl(180.0,100%,35%)" stroke-width="0.00525"></path>
<path d="M1.033 0.500 Q1.209 0.539 1.322 0.462" stroke="hsl(180.0,100%,35%)" stroke-width="0.00135"></path>
<path d="M1.033 0.500 Q0.551 0.703 0.840 0.982" stroke="hsl(180.0,100%,35%)" stroke-width="0.00030"></path>
<path d="M1.033 0.500 Q0.528 0.478 0.374 0.720" stroke="hsl(180.0,100%,35%)" stroke-width="0.00030"></path>
<path d="M1.033 0.500 Q0.688 0.604 0.814 0.795" stroke="hsl(180.0,100%,35%)" stroke-width="0.00015"></path>
<path d="M1.033 0.500 Q0.899 0.603 1.069 0.691" stroke="hsl(180.0,100%,35%)" stroke-width="0.00015"></path>
<path d="M1.065 0.292 Q0.400 0.592 0.840 0.982" stroke="hsl(180.0,100%,35%)" stroke-width="0.00105"></path>
<path d="M1.065 0.292 Q0.604 0.330 0.577 0.564" stroke="hsl(180.0,100%,35%)" stroke-width="0.00015"></path>
<path d="M1.065 0.292 Q1.400 0.349 1.583 0.198" stroke="hsl(180.0,100%,35%)" stroke-width="0.00240"></path>
<path d="M1.065 0.292 Q1.012 0.340 1.094 0.376" stroke="hsl(180.0,100%,35%)" stroke-width="0.00150"></path>
<path d="M1.065 0.292 Q0.925 0.494 1.288 0.607" stroke="hsl(180.0,100%,35%)" stroke-width="0.00105"></path>
<path d="M1.065 0.292 Q0.668 0.653 1.286 0.926" stroke="hsl(180.0,100%,35%)" stroke-width="0.00015"></path>
<path d="M1.065 0.292 Q1.058 0.428 1.322 0.462" stroke="hsl(180.0,100%,35%)" stroke-width="0.00060"></path>
<path d="M1.065 0.292 Q0.662 0.249 0.489 0.436" stroke="hsl(180.0,100%,35%)" stroke-width="0.00075"></path>
<path d="M0.840 0.982 Q1.043 0.721 0.577 0.564" stroke="hsl(180.0,100%,35%)" stroke-width="0.01231"></path>
<path d="M0.840 0.982 Q1.108 1.043 1.286 0.926" stroke="hsl(180.0,100%,35%)" stroke-width="0.00571"></path>
<path d="M0.840 0.982 Q1.101 0.639 0.489 0.436" stroke="hsl(180.0,100%,35%)" stroke-width="0.00736"></path>
<path d="M0.840 0.982 Q0.972 0.804 0.653 0.701" stroke="hsl(180.0,100%,35%)" stroke-width="0.00060"></path>
<path d="M0.840 0.982 Q1.364 0.884 1.288 0.607" stroke="hsl(180.0,100%,35%)" stroke-width="0.00631"></path>
<path d="M0.840 0.982 Q0.977 0.883 0.814 0.795" stroke="hsl(180.0,100%,35%)" stroke-width="0.02042"></path>
<path d="M0.840 0.982 Q1.498 0.818 1.322 0.462" stroke="hsl(180.0,100%,35%)" stroke-width="0.00105"></path>
<path d="M0.840 0.982 Q1.322 0.630 0.740 0.318" stroke="hsl(180.0,100%,35%)" stroke-width="0.00240"></path>
<path d="M0.840 0.982 Q1.022 1.008 1.113 0.925" stroke="hsl(180.0,100%,35%)" stroke-width="0.00060"></path>
<path d="M0.840 0.982 Q1.577 0.701 1.190 0.280" stroke="hsl(180.0,100%,35%)" stroke-width="0.00465"></path>
<path d="M0.840 0.982 Q1.322 0.780 1.033 0.500" stroke="hsl(180.0,100%,35%)" stroke-width="0.00315"></path>
<path d="M0.840 0.982 Q0.782 0.839 0.489 0.835" stroke="hsl(180.0,100%,35%)" stroke-width="0.00646"></path>
<path d="M0.840 0.982 Q0.960 1.040 1.098 0.994" stroke="hsl(180.0,100%,35%)" stroke-width="0.00495"></path>
<path d="M0.840 0.982 Q1.215 1.105 1.537 0.949" stroke="hsl(180.0,100%,35%)" stroke-width="0.00120"></path>
<path d="M0.840 0.982 Q0.903 0.673 0.312 0.574" stroke="hsl(180.0,100%,35%)" stroke-width="0.00015"></path>
<path d="M0.840 0.982 Q1.117 0.958 1.131 0.818" stroke="hsl(180.0,100%,35%)" stroke-width="0.00150"></path>
<path d="M0.840 0.982 Q1.839 0.739 1.583 0.198" stroke="hsl(180.0,100%,35%)" stroke-width="0.00210"></path>
<path d="M0.840 0.982 Q1.452 0.730 1.094 0.376" stroke="hsl(180.0,100%,35%)" stroke-width="0.00285"></path>
<path d="M0.840 0.982 Q0.850 0.913 0.717 0.893" stroke="hsl(180.0,100%,35%)" stroke-width="0.00210"></path>
<path d="M0.840 0.982 Q1.188 0.882 1.069 0.691" stroke="hsl(180.0,100%,35%)" stroke-width="0.00495"></path>
<path d="M0.840 0.982 Q1.140 0.791 0.832 0.602" stroke="hsl(180.0,100%,35%)" stroke-width="0.00060"></path>
<path d="M0.840 0.982 Q0.817 0.758 0.374 0.720" stroke="hsl(180.0,100%,35%)" stroke-width="0.00090"></path>
<path d="M0.840 0.982 Q1.187 1.012 1.320 0.849" stroke="hsl(180.0,100%,35%)" stroke-width="0.00045"></path>
<path d="M0.840 0.982 Q1.306 0.554 0.572 0.232" stroke="hsl(180.0,100%,35%)" stroke-width="0.00375"></path>
<path d="M0.840 0.982 Q0.887 0.818 0.576 0.759" stroke="hsl(180.0,100%,35%)" stroke-width="0.00060"></path>
<path d="M0.840 0.982 Q1.592 0.758 1.319 0.343" stroke="hsl(180.0,100%,35%)" stroke-width="0.00015"></path>
<path d="M0.840 0.982 Q1.305 0.440 0.348 0.094" stroke="hsl(180.0,100%,35%)" stroke-width="0.00045"></path>
<path d="M0.840 0.982 Q1.259 0.705 0.809 0.439" stroke="hsl(180.0,100%,35%)" stroke-width="0.00045"></path>
<path d="M0.840 0.982 Q1.027 0.947 0.998 0.848" stroke="hsl(180.0,100%,35%)" stroke-width="0.00015"></path>
<path d="M0.489 0.835 Q0.815 1.040 1.286 0.926" stroke="hsl(180.0,100%,35%)" stroke-width="0.00060"></path>
<path d="M0.489 0.835 Q0.547 0.979 0.840 0.982" stroke="hsl(180.0,100%,35%)" stroke-width="0.00060"></path>
<path d="M0.489 0.835 Q0.895 0.879 1.069 0.691" stroke="hsl(180.0,100%,35%)" stroke-width="0.00060"></path>
<path d="M0.489 0.835 Q1.284 0.698 1.190 0.280" stroke="hsl(180.0,100%,35%)" stroke-width="0.00015"></path>
<path d="M0.489 0.835 Q1.029 0.777 1.033 0.500" stroke="hsl(180.0,100%,35%)" stroke-width="0.00015"></path>
<path d="M0.489 0.835 Q1.546 0.735 1.583 0.198" stroke="hsl(180.0,100%,35%)" stroke-width="0.00015"></path>
<path d="M0.489 0.835 Q1.071 0.881 1.288 0.607" stroke="hsl(180.0,100%,35%)" stroke-width="0.00015"></path>
<path d="M1.537 0.949 Q1.299 0.727 0.814 0.795" stroke="hsl(180.0,100%,35%)" stroke-width="0.00495"></path>
<path d="M1.537 0.949 Q1.162 0.826 0.840 0.982" stroke="hsl(180.0,100%,35%)" stroke-width="0.00075"></path>
<path d="M1.537 0.949 Q1.365 0.564 0.577 0.564" stroke="hsl(180.0,100%,35%)" stroke-width="0.00075"></path>
<path d="M1.537 0.949 Q2.161 0.583 1.583 0.198" stroke="hsl(180.0,100%,35%)" stroke-width="0.00030"></path>
<path d="M1.537 0.949 Q1.820 0.662 1.322 0.462" stroke="hsl(180.0,100%,35%)" stroke-width="0.00015"></path>
<path d="M1.537 0.949 Q1.899 0.545 1.190 0.280" stroke="hsl(180.0,100%,35%)" stroke-width="0.00030"></path>
<path d="M0.181 0.356 Q0.271 0.458 0.489 0.436" stroke="hsl(0.0,100%,35%)" stroke-width="0.00495"></path>
<path d="M0.181 0.356 Q-0.013 0.577 0.374 0.720" stroke="hsl(0.0,100%,35%)" stroke-width="0.00030"></path>
<path d="M0.181 0.356 Q0.213 0.539 0.577 0.564" stroke="hsl(0.0,100%,35%)" stroke-width="0.00360"></path>
<path d="M0.181 0.356 Q0.492 0.599 1.033 0.500" stroke="hsl(0.0,100%,35%)" stroke-width="0.00030"></path>
<path d="M1.069 0.691 Q0.924 0.529 0.577 0.564" stroke="hsl(180.0,100%,35%)" stroke-width="0.00030"></path>
<path d="M1.069 0.691 Q0.989 0.852 1.286 0.926" stroke="hsl(180.0,100%,35%)" stroke-width="0.00105"></path>
<path d="M1.069 0.691 Q0.721 0.791 0.840 0.982" stroke="hsl(180.0,100%,35%)" stroke-width="0.00060"></path>
<path d="M1.069 0.691 Q0.663 0.647 0.489 0.835" stroke="hsl(180.0,100%,35%)" stroke-width="0.00045"></path>
<path d="M1.069 0.691 Q1.186 0.248 0.348 0.094" stroke="hsl(180.0,100%,35%)" stroke-width="0.00015"></path>
<path d="M1.069 0.691 Q1.021 0.599 0.832 0.602" stroke="hsl(180.0,100%,35%)" stroke-width="0.00015"></path>
<path d="M1.286 0.926 Q1.366 0.765 1.069 0.691" stroke="hsl(180.0,100%,35%)" stroke-width="0.00150"></path>
<path d="M1.286 0.926 Q0.960 0.721 0.489 0.835" stroke="hsl(180.0,100%,35%)" stroke-width="0.00195"></path>
<path d="M1.286 0.926 Q1.630 0.613 1.094 0.376" stroke="hsl(180.0,100%,35%)" stroke-width="0.00075"></path>
<path d="M1.286 0.926 Q1.018 0.865 0.840 0.982" stroke="hsl(180.0,100%,35%)" stroke-width="0.00060"></path>
<path d="M1.286 0.926 Q1.279 0.522 0.489 0.436" stroke="hsl(180.0,100%,35%)" stroke-width="0.00030"></path>
<path d="M1.286 0.926 Q1.221 0.603 0.577 0.564" stroke="hsl(180.0,100%,35%)" stroke-width="0.00015"></path>
<path d="M0.348 0.094 Q0.478 0.111 0.539 0.051" stroke="hsl(180.0,100%,35%)" stroke-width="0.00015"></path>
<path d="M0.348 0.094 Q0.231 0.536 1.069 0.691" stroke="hsl(180.0,100%,35%)" stroke-width="0.00030"></path>
<path d="M0.348 0.094 Q-0.116 0.637 0.840 0.982" stroke="hsl(180.0,100%,35%)" stroke-width="0.00015"></path>
<path d="M0.832 0.602 Q1.144 0.542 1.094 0.376" stroke="hsl(180.0,100%,35%)" stroke-width="0.00015"></path>
<path d="M0.832 0.602 Q0.542 0.725 0.717 0.893" stroke="hsl(180.0,100%,35%)" stroke-width="0.00120"></path>
<path d="M0.832 0.602 Q0.735 0.532 0.577 0.564" stroke="hsl(180.0,100%,35%)" stroke-width="0.00015"></path>
<path d="M0.832 0.602 Q0.793 0.451 0.489 0.436" stroke="hsl(180.0,100%,35%)" stroke-width="0.00015"></path>
<path d="M0.832 0.602 Q0.951 0.516 0.809 0.439" stroke="hsl(180.0,100%,35%)" stroke-width="0.00030"></path>
<path d="M0.312 0.574 Q0.453 0.622 0.577 0.564" stroke="hsl(0.0,100%,35%)" stroke-width="0.00420"></path>
<path d="M0.312 0.574 Q0.511 0.540 0.489 0.436" stroke="hsl(0.0,100%,35%)" stroke-width="0.00015"></path>
<path d="M0.312 0.574 Q0.260 0.814 0.717 0.893" stroke="hsl(0.0,100%,35%)" stroke-width="0.00015"></path>
<path d="M0.312 0.574 Q0.986 0.602 1.190 0.280" stroke="hsl(0.0,100%,35%)" stroke-width="0.00015"></path>
<path d="M1.583 0.198 Q0.932 0.341 1.069 0.691" stroke="hsl(180.0,100%,35%)" stroke-width="0.00105"></path>
<path d="M1.583 0.198 Q1.249 0.141 1.065 0.292" stroke="hsl(180.0,100%,35%)" stroke-width="0.00285"></path>
<path d="M1.583 0.198 Q0.787 0.180 0.577 0.564" stroke="hsl(180.0,100%,35%)" stroke-width="0.00225"></path>
<path d="M1.583 0.198 Q1.108 0.344 1.288 0.607" stroke="hsl(180.0,100%,35%)" stroke-width="0.01576"></path>
<path d="M1.583 0.198 Q1.066 0.239 1.033 0.500" stroke="hsl(180.0,100%,35%)" stroke-width="0.00045"></path>
<path d="M1.583 0.198 Q1.066 0.089 0.740 0.318" stroke="hsl(180.0,100%,35%)" stroke-width="0.00030"></path>
<path d="M1.583 0.198 Q0.584 0.442 0.840 0.982" stroke="hsl(180.0,100%,35%)" stroke-width="0.00060"></path>
<path d="M1.583 0.198 Q1.321 0.160 1.190 0.280" stroke="hsl(180.0,100%,35%)" stroke-width="0.00090"></path>
<path d="M1.583 0.198 Q1.196 0.189 1.094 0.376" stroke="hsl(180.0,100%,35%)" stroke-width="0.01201"></path>
<path d="M1.583 0.198 Q0.766 0.468 1.113 0.925" stroke="hsl(180.0,100%,35%)" stroke-width="0.00015"></path>
<path d="M1.583 0.198 Q0.845 0.098 0.489 0.436" stroke="hsl(180.0,100%,35%)" stroke-width="0.00180"></path>
<path d="M1.583 0.198 Q1.242 0.278 1.322 0.462" stroke="hsl(180.0,100%,35%)" stroke-width="0.00556"></path>
<path d="M1.583 0.198 Q1.336 0.218 1.319 0.343" stroke="hsl(180.0,100%,35%)" stroke-width="0.00015"></path>
<path d="M1.583 0.198 Q0.526 0.298 0.489 0.835" stroke="hsl(180.0,100%,35%)" stroke-width="0.00030"></path>
<path d="M1.190 0.280 Q1.452 0.318 1.583 0.198" stroke="hsl(180.0,100%,35%)" stroke-width="0.02808"></path>
<path d="M1.190 0.280 Q1.110 0.397 1.322 0.462" stroke="hsl(180.0,100%,35%)" stroke-width="0.00375"></path>
<path d="M1.190 0.280 Q0.453 0.561 0.840 0.982" stroke="hsl(180.0,100%,35%)" stroke-width="0.00180"></path>
<path d="M1.190 0.280 Q0.656 0.299 0.577 0.564" stroke="hsl(180.0,100%,35%)" stroke-width="0.00781"></path>
<path d="M1.190 0.280 Q0.935 0.359 1.033 0.500" stroke="hsl(180.0,100%,35%)" stroke-width="0.00060"></path>
<path d="M1.190 0.280 Q0.714 0.218 0.489 0.436" stroke="hsl(180.0,100%,35%)" stroke-width="0.01081"></path>
<path d="M1.190 0.280 Q0.590 0.462 0.814 0.795" stroke="hsl(180.0,100%,35%)" stroke-width="0.00510"></path>
<path d="M1.190 0.280 Q0.800 0.461 1.069 0.691" stroke="hsl(180.0,100%,35%)" stroke-width="0.00030"></path>
<path d="M1.190 0.280 Q1.065 0.309 1.094 0.376" stroke="hsl(180.0,100%,35%)" stroke-width="0.00150"></path>
<path d="M1.190 0.280 Q0.977 0.463 1.288 0.607" stroke="hsl(180.0,100%,35%)" stroke-width="0.00075"></path>
<path d="M1.190 0.280 Q0.934 0.209 0.740 0.318" stroke="hsl(180.0,100%,35%)" stroke-width="0.00030"></path>
<path d="M1.190 0.280 Q0.430 0.337 0.374 0.720" stroke="hsl(180.0,100%,35%)" stroke-width="0.00015"></path>
<path d="M0.740 0.318 Q0.741 0.468 1.033 0.500" stroke="hsl(180.0,100%,35%)" stroke-width="0.00090"></path>
<path d="M0.740 0.318 Q0.725 0.241 0.572 0.232" stroke="hsl(180.0,100%,35%)" stroke-width="0.00390"></path>
<path d="M0.740 0.318 Q0.258 0.670 0.840 0.982" stroke="hsl(180.0,100%,35%)" stroke-width="0.00105"></path>
<path d="M0.740 0.318 Q0.526 0.731 1.286 0.926" stroke="hsl(180.0,100%,35%)" stroke-width="0.00015"></path>
<path d="M0.740 0.318 Q0.390 0.492 0.653 0.701" stroke="hsl(180.0,100%,35%)" stroke-width="0.00015"></path>
<path d="M0.740 0.318 Q0.634 0.793 1.537 0.949" stroke="hsl(180.0,100%,35%)" stroke-width="0.00030"></path>
<path d="M0.740 0.318 Q0.995 0.389 1.190 0.280" stroke="hsl(180.0,100%,35%)" stroke-width="0.00045"></path>
<path d="M0.740 0.318 Q0.396 0.571 0.814 0.795" stroke="hsl(180.0,100%,35%)" stroke-width="0.00270"></path>
<path d="M0.740 0.318 Q1.258 0.426 1.583 0.198" stroke="hsl(180.0,100%,35%)" stroke-width="0.00015"></path>
<path d="M0.740 0.318 Q0.783 0.572 1.288 0.607" stroke="hsl(180.0,100%,35%)" stroke-width="0.00015"></path>
<path d="M0.740 0.318 Q0.923 0.370 1.065 0.292" stroke="hsl(180.0,100%,35%)" stroke-width="0.00015"></path>
<path d="M0.740 0.318 Q0.462 0.408 0.577 0.564" stroke="hsl(180.0,100%,35%)" stroke-width="0.00090"></path>
<path d="M0.740 0.318 Q0.520 0.327 0.489 0.436" stroke="hsl(180.0,100%,35%)" stroke-width="0.00015"></path>
<path d="M0.740 0.318 Q0.870 0.418 1.094 0.376" stroke="hsl(180.0,100%,35%)" stroke-width="0.00015"></path>
<path d="M0.740 0.318 Q0.269 0.601 0.717 0.893" stroke="hsl(180.0,100%,35%)" stroke-width="0.00015"></path>
<path d="M0.717 0.893 Q1.706 0.719 1.583 0.198" stroke="hsl(180.0,100%,35%)" stroke-width="0.00015"></path>
<path d="M0.717 0.893 Q1.007 0.771 0.832 0.602" stroke="hsl(180.0,100%,35%)" stroke-width="0.00075"></path>
<path d="M0.717 0.893 Q1.319 0.710 1.094 0.376" stroke="hsl(180.0,100%,35%)" stroke-width="0.00045"></path>
<path d="M0.717 0.893 Q0.649 0.818 0.489 0.835" stroke="hsl(180.0,100%,35%)" stroke-width="0.00045"></path>
<path d="M0.717 0.893 Q0.910 0.700 0.577 0.564" stroke="hsl(180.0,100%,35%)" stroke-width="0.00030"></path>
<path d="M0.717 0.893 Q1.444 0.681 1.190 0.280" stroke="hsl(180.0,100%,35%)" stroke-width="0.00015"></path>
<path d="M0.717 0.893 Q0.968 0.619 0.489 0.436" stroke="hsl(180.0,100%,35%)" stroke-width="0.00015"></path>
<path d="M0.717 0.893 Q1.189 0.760 1.033 0.500" stroke="hsl(180.0,100%,35%)" stroke-width="0.00015"></path>
<path d="M0.572 0.232 Q0.383 0.637 1.131 0.818" stroke="hsl(180.0,100%,35%)" stroke-width="0.00015"></path>
<path d="M0.572 0.232 Q0.106 0.661 0.840 0.982" stroke="hsl(180.0,100%,35%)" stroke-width="0.00135"></path>
<path d="M0.572 0.232 Q0.116 0.591 0.717 0.893" stroke="hsl(180.0,100%,35%)" stroke-width="0.00090"></path>
<path d="M0.572 0.232 Q0.587 0.308 0.740 0.318" stroke="hsl(180.0,100%,35%)" stroke-width="0.00255"></path>
<path d="M0.572 0.232 Q0.406 0.469 0.832 0.602" stroke="hsl(180.0,100%,35%)" stroke-width="0.00015"></path>
<path d="M0.572 0.232 Q0.243 0.562 0.814 0.795" stroke="hsl(180.0,100%,35%)" stroke-width="0.00015"></path>
<path d="M0.572 0.232 Q0.367 0.317 0.489 0.436" stroke="hsl(180.0,100%,35%)" stroke-width="0.00030"></path>
<path d="M0.572 0.232 Q0.309 0.399 0.577 0.564" stroke="hsl(180.0,100%,35%)" stroke-width="0.00030"></path>
<path d="M0.572 0.232 Q0.588 0.458 1.033 0.500" stroke="hsl(180.0,100%,35%)" stroke-width="0.00030"></path>
<path d="M0.809 0.439 Q0.390 0.717 0.840 0.982" stroke="hsl(180.0,100%,35%)" stroke-width="0.00060"></path>
<path d="M0.809 0.439 Q0.690 0.526 0.832 0.602" stroke="hsl(180.0,100%,35%)" stroke-width="0.00105"></path>
<path d="M0.809 0.439 Q0.593 0.455 0.577 0.564" stroke="hsl(180.0,100%,35%)" stroke-width="0.00015"></path>
<path d="M0.809 0.439 Q0.400 0.648 0.717 0.893" stroke="hsl(180.0,100%,35%)" stroke-width="0.00030"></path>
<path d="M0.881 0.657 Q0.738 0.712 0.814 0.795" stroke="hsl(180.0,100%,35%)" stroke-width="0.00375"></path>
<path d="M0.881 0.657 Q0.600 0.812 0.840 0.982" stroke="hsl(180.0,100%,35%)" stroke-width="0.00045"></path>
<path d="M0.881 0.657 Q1.082 0.459 0.740 0.318" stroke="hsl(180.0,100%,35%)" stroke-width="0.00090"></path>
<path d="M0.881 0.657 Q1.083 0.609 1.033 0.500" stroke="hsl(180.0,100%,35%)" stroke-width="0.00030"></path>
<path d="M0.881 0.657 Q1.600 0.568 1.583 0.198" stroke="hsl(180.0,100%,35%)" stroke-width="0.00015"></path>
<path d="M0.881 0.657 Q0.900 0.620 0.832 0.602" stroke="hsl(180.0,100%,35%)" stroke-width="0.00015"></path>
<path d="M1.131 0.818 Q0.854 0.842 0.840 0.982" stroke="hsl(180.0,100%,35%)" stroke-width="0.00901"></path>
<path d="M1.131 0.818 Q1.320 0.413 0.572 0.232" stroke="hsl(180.0,100%,35%)" stroke-width="0.00030"></path>
<path d="M1.131 0.818 Q1.115 0.498 0.489 0.436" stroke="hsl(180.0,100%,35%)" stroke-width="0.00030"></path>
<path d="M1.131 0.818 Q1.853 0.598 1.583 0.198" stroke="hsl(180.0,100%,35%)" stroke-width="0.00015"></path>
<path d="M1.131 0.818 Q1.378 0.744 1.288 0.607" stroke="hsl(180.0,100%,35%)" stroke-width="0.00015"></path>
<path d="M1.131 0.818 Q1.511 0.678 1.322 0.462" stroke="hsl(180.0,100%,35%)" stroke-width="0.00015"></path>
<path d="M1.131 0.818 Q1.466 0.590 1.094 0.376" stroke="hsl(180.0,100%,35%)" stroke-width="0.00015"></path>
<path d="M1.131 0.818 Q0.796 0.698 0.489 0.835" stroke="hsl(180.0,100%,35%)" stroke-width="0.00030"></path>
<path d="M1.131 0.818 Q1.201 0.742 1.069 0.691" stroke="hsl(180.0,100%,35%)" stroke-width="0.00015"></path>
<path d="M0.767 1.108 Q1.041 0.961 0.814 0.795" stroke="hsl(180.0,100%,35%)" stroke-width="0.00015"></path>
<path d="M0.767 1.108 Q1.516 0.808 1.094 0.376" stroke="hsl(180.0,100%,35%)" stroke-width="0.00015"></path>
<path d="M0.767 1.108 Q0.904 1.060 0.840 0.982" stroke="hsl(180.0,100%,35%)" stroke-width="0.00015"></path>
<path d="M0.767 1.108 Q1.386 0.708 0.740 0.318" stroke="hsl(180.0,100%,35%)" stroke-width="0.00015"></path>
<path d="M0.576 0.759 Q0.666 0.824 0.814 0.795" stroke="hsl(180.0,100%,35%)" stroke-width="0.00105"></path>
<path d="M0.576 0.759 Q0.529 0.923 0.840 0.982" stroke="hsl(180.0,100%,35%)" stroke-width="0.00045"></path>
<path d="M0.576 0.759 Q1.187 0.759 1.322 0.462" stroke="hsl(180.0,100%,35%)" stroke-width="0.00060"></path>
<path d="M0.576 0.759 Q1.141 0.671 1.094 0.376" stroke="hsl(180.0,100%,35%)" stroke-width="0.00015"></path>
<path d="M0.576 0.759 Q0.994 0.381 0.348 0.094" stroke="hsl(180.0,100%,35%)" stroke-width="0.00015"></path>
<path d="M0.576 0.759 Q0.471 0.780 0.489 0.835" stroke="hsl(180.0,100%,35%)" stroke-width="0.00030"></path>
<path d="M0.653 0.701 Q0.725 0.617 0.577 0.564" stroke="hsl(180.0,100%,35%)" stroke-width="0.00060"></path>
<path d="M0.653 0.701 Q0.484 0.525 0.102 0.569" stroke="hsl(180.0,100%,35%)" stroke-width="0.00015"></path>
<path d="M0.653 0.701 Q1.273 0.655 1.319 0.343" stroke="hsl(180.0,100%,35%)" stroke-width="0.00015"></path>
<path d="M0.653 0.701 Q0.532 0.810 0.717 0.893" stroke="hsl(180.0,100%,35%)" stroke-width="0.00030"></path>
<path d="M0.539 0.051 Q0.426 0.374 1.033 0.500" stroke="hsl(180.0,100%,35%)" stroke-width="0.00015"></path>
<path d="M0.539 0.051 Q0.292 0.477 1.069 0.691" stroke="hsl(180.0,100%,35%)" stroke-width="0.00015"></path>
<path d="M0.539 0.051 Q0.409 0.034 0.348 0.094" stroke="hsl(180.0,100%,35%)" stroke-width="0.00060"></path>
<path d="M0.539 0.051 Q-0.056 0.577 0.840 0.982" stroke="hsl(180.0,100%,35%)" stroke-width="0.00015"></path>
<path d="M0.106 0.702 Q0.452 0.727 0.577 0.564" stroke="hsl(180.0,100%,35%)" stroke-width="0.00045"></path>
<path d="M0.106 0.702 Q0.386 0.890 0.814 0.795" stroke="hsl(180.0,100%,35%)" stroke-width="0.00015"></path>
<path d="M0.106 0.702 Q0.249 0.989 0.840 0.982" stroke="hsl(180.0,100%,35%)" stroke-width="0.00015"></path>
<path d="M0.102 0.569 Q0.344 0.661 0.577 0.564" stroke="hsl(180.0,100%,35%)" stroke-width="0.00030"></path>
<path d="M0.102 0.569 Q0.203 0.613 0.312 0.574" stroke="hsl(180.0,100%,35%)" stroke-width="0.00015"></path>
<path d="M1.681 0.833 Q1.624 0.537 1.033 0.500" stroke="hsl(180.0,100%,35%)" stroke-width="0.00015"></path>
<path d="M1.681 0.833 Q1.516 0.863 1.537 0.949" stroke="hsl(180.0,100%,35%)" stroke-width="0.00300"></path>
<path d="M1.681 0.833 Q1.141 0.740 0.840 0.982" stroke="hsl(180.0,100%,35%)" stroke-width="0.00045"></path>
<path d="M1.681 0.833 Q1.403 0.396 0.489 0.436" stroke="hsl(180.0,100%,35%)" stroke-width="0.00015"></path>
<path d="M1.681 0.833 Q1.278 0.641 0.814 0.795" stroke="hsl(180.0,100%,35%)" stroke-width="0.00060"></path>
<path d="M1.098 0.994 Q1.502 0.838 1.288 0.607" stroke="hsl(180.0,100%,35%)" stroke-width="0.00030"></path>
<path d="M1.098 0.994 Q1.246 0.998 1.286 0.926" stroke="hsl(180.0,100%,35%)" stroke-width="0.00090"></path>
<path d="M1.098 0.994 Q0.978 0.937 0.840 0.982" stroke="hsl(180.0,100%,35%)" stroke-width="0.00120"></path>
<path d="M1.098 0.994 Q1.326 0.836 1.069 0.691" stroke="hsl(180.0,100%,35%)" stroke-width="0.00015"></path>
<path d="M0.371 0.490 Q0.415 0.568 0.577 0.564" stroke="hsl(0.0,100%,35%)" stroke-width="0.00120"></path>
<path d="M0.371 0.490 Q0.174 0.476 0.102 0.569" stroke="hsl(0.0,100%,35%)" stroke-width="0.00015"></path>
<path d="M0.371 0.490 Q0.222 0.761 0.717 0.893" stroke="hsl(0.0,100%,35%)" stroke-width="0.00015"></path>
<path d="M1.657 0.347 Q1.491 0.277 1.319 0.343" stroke="hsl(180.0,100%,35%)" stroke-width="0.00060"></path>
<path d="M1.657 0.347 Q1.264 0.403 1.288 0.607" stroke="hsl(180.0,100%,35%)" stroke-width="0.00060"></path>
<path d="M1.657 0.347 Q1.352 0.249 1.094 0.376" stroke="hsl(180.0,100%,35%)" stroke-width="0.00015"></path>
<path d="M0.933 0.243 Q0.819 0.496 1.288 0.607" stroke="hsl(180.0,100%,35%)" stroke-width="0.00060"></path>
<path d="M0.933 0.243 Q0.907 0.342 1.094 0.376" stroke="hsl(180.0,100%,35%)" stroke-width="0.00210"></path>
<path d="M0.933 0.243 Q0.952 0.430 1.322 0.462" stroke="hsl(180.0,100%,35%)" stroke-width="0.00090"></path>
<path d="M0.933 0.243 Q0.498 0.332 0.577 0.564" stroke="hsl(180.0,100%,35%)" stroke-width="0.00015"></path>
<path d="M0.933 0.243 Q0.272 0.370 0.374 0.720" stroke="hsl(180.0,100%,35%)" stroke-width="0.00015"></path>
<path d="M0.933 0.243 Q1.032 0.313 1.190 0.280" stroke="hsl(180.0,100%,35%)" stroke-width="0.00015"></path>
<path d="M0.759 0.191 Q0.778 0.351 1.094 0.376" stroke="hsl(180.0,100%,35%)" stroke-width="0.00060"></path>
<path d="M0.759 0.191 Q0.109 0.459 0.489 0.835" stroke="hsl(180.0,100%,35%)" stroke-width="0.00015"></path>
<path d="M0.759 0.191 Q0.286 0.660 1.098 0.994" stroke="hsl(180.0,100%,35%)" stroke-width="0.00015"></path>
</g>
<text x="0.374" y="0.702" font-size="0.036357" fill="hsl(0.0,100%,20%)">armansito</text>
<text x="0.489" y="0.396" font-size="0.080092" fill="hsl(0.0,100%,20%)">johnstiles</text>
<text x="1.322" y="0.439" font-size="0.044731" fill="hsl(180.0,100%,20%)">jvanverth</text>
<text x="1.288" y="0.581" font-size="0.051373" fill="hsl(180.0,100%,20%)">michaelludwig</text>
<text x="0.577" y="0.527" font-size="0.073980" fill="hsl(0.0,100%,20%)">brianosman</text>
<text x="1.319" y="0.333" font-size="0.019959" fill="hsl(180.0,100%,20%)">nicolettep</text>
<text x="1.094" y="0.353" font-size="0.046274" fill="hsl(180.0,100%,20%)">egdaniel</text>
<text x="0.814" y="0.772" font-size="0.044630" fill="hsl(180.0,100%,20%)">bungeman</text>
<text x="1.033" y="0.482" font-size="0.037280" fill="hsl(180.0,100%,20%)">bsalomon</text>
<text x="1.065" y="0.282" font-size="0.019845" fill="hsl(180.0,100%,20%)">jamesgk</text>
<text x="0.840" y="0.950" font-size="0.064007" fill="hsl(180.0,100%,20%)">kjlubick</text>
<text x="0.489" y="0.825" font-size="0.020518" fill="hsl(180.0,100%,20%)">rmistry</text>
<text x="1.537" y="0.939" font-size="0.019731" fill="hsl(180.0,100%,20%)">jlavrova</text>
<text x="0.181" y="0.346" font-size="0.021698" fill="hsl(0.0,100%,20%)">ethannicholas</text>
<text x="1.069" y="0.681" font-size="0.019959" fill="hsl(180.0,100%,20%)">borenet</text>
<text x="1.286" y="0.916" font-size="0.021170" fill="hsl(180.0,100%,20%)">jcgregorio</text>
<text x="0.348" y="0.090" font-size="0.008240" fill="hsl(180.0,100%,20%)">hcm</text>
<text x="0.832" y="0.595" font-size="0.014113" fill="hsl(180.0,100%,20%)">djsollen</text>
<text x="0.312" y="0.568" font-size="0.012587" fill="hsl(0.0,100%,20%)">ccameron</text>
<text x="1.583" y="0.169" font-size="0.057722" fill="hsl(180.0,100%,20%)">robertphillips</text>
<text x="1.190" y="0.253" font-size="0.052936" fill="hsl(180.0,100%,20%)">herb</text>
<text x="0.740" y="0.305" font-size="0.026058" fill="hsl(180.0,100%,20%)">fmalita</text>
<text x="0.717" y="0.884" font-size="0.017801" fill="hsl(180.0,100%,20%)">scroggo</text>
<text x="0.572" y="0.221" font-size="0.021170" fill="hsl(180.0,100%,20%)">jmbetancourt</text>
<text x="0.809" y="0.434" font-size="0.009515" fill="hsl(180.0,100%,20%)">nifong</text>
<text x="0.881" y="0.651" font-size="0.013457" fill="hsl(180.0,100%,20%)">drott</text>
<text x="1.131" y="0.808" font-size="0.019384" fill="hsl(180.0,100%,20%)">cmumford</text>
<text x="0.767" y="1.106" font-size="0.004255" fill="hsl(180.0,100%,20%)">dnfield</text>
<text x="0.576" y="0.754" font-size="0.010423" fill="hsl(180.0,100%,20%)">erikrose</text>
<text x="0.653" y="0.697" font-size="0.008240" fill="hsl(180.0,100%,20%)">nscobie</text>
<text x="0.539" y="0.048" font-size="0.006018" fill="hsl(180.0,100%,20%)">sharaks</text>
<text x="0.106" y="0.700" font-size="0.004758" fill="hsl(180.0,100%,20%)">iapres</text>
<text x="1.113" y="0.923" font-size="0.005212" fill="hsl(180.0,100%,20%)">tdenniston</text>
<text x="1.320" y="0.846" font-size="0.004758" fill="hsl(180.0,100%,20%)">wrightgeorge</text>
<text x="1.686" y="0.652" font-size="0.004255" fill="hsl(180.0,100%,20%)">csmartdalton</text>
<text x="0.102" y="0.567" font-size="0.004758" fill="hsl(180.0,100%,20%)">jreck</text>
<text x="1.681" y="0.828" font-size="0.011458" fill="hsl(180.0,100%,20%)">jsimmons</text>
<text x="1.098" y="0.986" font-size="0.015195" fill="hsl(180.0,100%,20%)">lovisolo</text>
<text x="0.998" y="0.847" font-size="0.002128" fill="hsl(180.0,100%,20%)">yjbanov</text>
<text x="0.371" y="0.487" font-size="0.006728" fill="hsl(0.0,100%,20%)">kyslov</text>
<text x="1.657" y="0.343" font-size="0.006383" fill="hsl(180.0,100%,20%)">lehoangquyen</text>
<text x="0.982" y="3.225" font-size="0.003685" fill="hsl(180.0,100%,20%)">nathbappai</text>
<text x="0.933" y="0.237" font-size="0.011056" fill="hsl(180.0,100%,20%)">penghuang</text>
<text x="0.759" y="0.189" font-size="0.005212" fill="hsl(180.0,100%,20%)">shuangshuang.zhou</text>
</svg>
