<svg width="4000" height="2000" viewBox="-0.025 -0.025 2.05 1.05" xmlns="http://www.w3.org/2000/svg">
  <style>
    path {
      fill: none;
      stroke-linecap: round;
      stroke-opacity: 0.4;
    }

    text {
      text-anchor: middle;
      alignment-baseline: hanging;
    }
  </style>
  <g opacity="0.4">
<path d="M0.853 0.795 Q0.731 0.897 0.903 0.978" stroke="hsl(0.0,100%,35%)" stroke-width="0.00251"></path>
<path d="M0.853 0.795 Q1.138 0.509 0.643 0.308" stroke="hsl(0.0,100%,35%)" stroke-width="0.00251"></path>
<path d="M0.853 0.795 Q1.143 0.695 1.010 0.531" stroke="hsl(0.0,100%,35%)" stroke-width="0.00251"></path>
<path d="M0.853 0.795 Q0.582 0.854 0.637 0.999" stroke="hsl(0.0,100%,35%)" stroke-width="0.00251"></path>
<path d="M0.903 0.978 Q1.098 0.996 1.174 0.904" stroke="hsl(0.0,100%,35%)" stroke-width="0.06521"></path>
<path d="M0.903 0.978 Q1.286 1.014 1.439 0.835" stroke="hsl(0.0,100%,35%)" stroke-width="0.00502"></path>
<path d="M0.903 0.978 Q1.383 0.970 1.471 0.733" stroke="hsl(0.0,100%,35%)" stroke-width="0.00752"></path>
<path d="M0.903 0.978 Q1.025 0.877 0.853 0.795" stroke="hsl(0.0,100%,35%)" stroke-width="0.00502"></path>
<path d="M0.903 0.978 Q1.159 0.698 0.668 0.512" stroke="hsl(0.0,100%,35%)" stroke-width="0.00251"></path>
<path d="M0.903 0.978 Q1.310 0.591 0.643 0.308" stroke="hsl(0.0,100%,35%)" stroke-width="0.01003"></path>
<path d="M0.903 0.978 Q1.608 0.537 0.901 0.097" stroke="hsl(0.0,100%,35%)" stroke-width="0.00251"></path>
<path d="M0.903 0.978 Q0.753 0.936 0.637 0.999" stroke="hsl(0.0,100%,35%)" stroke-width="0.00752"></path>
<path d="M0.903 0.978 Q1.250 0.456 0.307 0.172" stroke="hsl(0.0,100%,35%)" stroke-width="0.00251"></path>
<path d="M0.903 0.978 Q1.265 0.863 1.118 0.661" stroke="hsl(0.0,100%,35%)" stroke-width="0.00752"></path>
<path d="M0.903 0.978 Q1.314 0.776 1.010 0.531" stroke="hsl(0.0,100%,35%)" stroke-width="0.00502"></path>
<path d="M0.643 0.308 Q0.087 0.652 0.637 0.999" stroke="hsl(0.0,100%,35%)" stroke-width="0.00251"></path>
<path d="M0.643 0.308 Q0.584 0.172 0.307 0.172" stroke="hsl(0.0,100%,35%)" stroke-width="0.01003"></path>
<path d="M0.643 0.308 Q0.717 0.686 1.471 0.733" stroke="hsl(0.0,100%,35%)" stroke-width="0.00251"></path>
<path d="M0.643 0.308 Q0.358 0.593 0.853 0.795" stroke="hsl(0.0,100%,35%)" stroke-width="0.00251"></path>
<path d="M0.643 0.308 Q0.431 0.712 1.174 0.904" stroke="hsl(0.0,100%,35%)" stroke-width="0.00251"></path>
<path d="M0.643 0.308 Q0.236 0.695 0.903 0.978" stroke="hsl(0.0,100%,35%)" stroke-width="0.00752"></path>
<path d="M1.010 0.531 Q0.449 0.691 0.637 0.999" stroke="hsl(180.0,100%,35%)" stroke-width="0.00502"></path>
<path d="M1.010 0.531 Q0.599 0.734 0.903 0.978" stroke="hsl(180.0,100%,35%)" stroke-width="0.00251"></path>
<path d="M1.010 0.531 Q0.580 0.608 0.635 0.834" stroke="hsl(180.0,100%,35%)" stroke-width="0.00251"></path>
<path d="M1.010 0.531 Q1.079 0.725 1.471 0.733" stroke="hsl(180.0,100%,35%)" stroke-width="0.00251"></path>
<path d="M1.010 0.531 Q0.946 0.211 0.307 0.172" stroke="hsl(180.0,100%,35%)" stroke-width="0.00251"></path>
<path d="M1.174 0.904 Q0.960 0.761 0.635 0.834" stroke="hsl(0.0,100%,35%)" stroke-width="0.00502"></path>
<path d="M1.174 0.904 Q0.979 0.887 0.903 0.978" stroke="hsl(0.0,100%,35%)" stroke-width="0.03261"></path>
<path d="M1.174 0.904 Q1.287 0.819 1.145 0.745" stroke="hsl(0.0,100%,35%)" stroke-width="0.00251"></path>
<path d="M1.174 0.904 Q1.386 0.500 0.643 0.308" stroke="hsl(0.0,100%,35%)" stroke-width="0.00251"></path>
<path d="M1.174 0.904 Q1.235 0.607 0.668 0.512" stroke="hsl(0.0,100%,35%)" stroke-width="0.00251"></path>
<path d="M0.635 0.834 Q0.525 0.750 0.336 0.785" stroke="hsl(180.0,100%,35%)" stroke-width="0.00502"></path>
<path d="M0.635 0.834 Q0.909 0.680 0.668 0.512" stroke="hsl(180.0,100%,35%)" stroke-width="0.01756"></path>
<path d="M0.635 0.834 Q1.358 0.519 0.901 0.097" stroke="hsl(180.0,100%,35%)" stroke-width="0.00502"></path>
<path d="M0.635 0.834 Q0.696 0.742 0.529 0.691" stroke="hsl(180.0,100%,35%)" stroke-width="0.01003"></path>
<path d="M0.635 0.834 Q1.134 0.951 1.471 0.733" stroke="hsl(180.0,100%,35%)" stroke-width="0.00502"></path>
<path d="M0.635 0.834 Q0.472 0.695 0.164 0.744" stroke="hsl(180.0,100%,35%)" stroke-width="0.00251"></path>
<path d="M0.635 0.834 Q0.848 0.977 1.174 0.904" stroke="hsl(180.0,100%,35%)" stroke-width="0.01003"></path>
<path d="M0.635 0.834 Q0.504 0.917 0.637 0.999" stroke="hsl(180.0,100%,35%)" stroke-width="0.01254"></path>
<path d="M0.635 0.834 Q1.036 0.995 1.439 0.835" stroke="hsl(180.0,100%,35%)" stroke-width="0.00251"></path>
<path d="M0.635 0.834 Q1.064 0.758 1.010 0.531" stroke="hsl(180.0,100%,35%)" stroke-width="0.00251"></path>
<path d="M0.635 0.834 Q0.653 0.960 0.903 0.978" stroke="hsl(180.0,100%,35%)" stroke-width="0.00251"></path>
<path d="M0.635 0.834 Q1.001 0.438 0.307 0.172" stroke="hsl(180.0,100%,35%)" stroke-width="0.00251"></path>
<path d="M0.635 0.834 Q0.690 0.691 0.424 0.633" stroke="hsl(180.0,100%,35%)" stroke-width="0.00251"></path>
<path d="M0.668 0.512 Q0.607 0.809 1.174 0.904" stroke="hsl(180.0,100%,35%)" stroke-width="0.02007"></path>
<path d="M0.668 0.512 Q0.795 0.828 1.439 0.835" stroke="hsl(180.0,100%,35%)" stroke-width="0.00251"></path>
<path d="M0.668 0.512 Q0.760 0.270 0.307 0.172" stroke="hsl(180.0,100%,35%)" stroke-width="0.00251"></path>
<path d="M0.668 0.512 Q0.449 0.524 0.424 0.633" stroke="hsl(180.0,100%,35%)" stroke-width="0.00502"></path>
<path d="M1.439 0.835 Q1.251 0.817 1.174 0.904" stroke="hsl(0.0,100%,35%)" stroke-width="0.01756"></path>
<path d="M1.439 0.835 Q1.056 0.800 0.903 0.978" stroke="hsl(0.0,100%,35%)" stroke-width="0.01003"></path>
<path d="M1.439 0.835 Q1.404 0.277 0.307 0.172" stroke="hsl(0.0,100%,35%)" stroke-width="0.00251"></path>
<path d="M0.307 0.172 Q0.367 0.307 0.643 0.308" stroke="hsl(0.0,100%,35%)" stroke-width="0.02007"></path>
<path d="M0.307 0.172 Q0.081 0.593 0.853 0.795" stroke="hsl(0.0,100%,35%)" stroke-width="0.00251"></path>
<path d="M0.307 0.172 Q-0.190 0.652 0.637 0.999" stroke="hsl(0.0,100%,35%)" stroke-width="0.00502"></path>
<path d="M0.307 0.172 Q0.154 0.711 1.174 0.904" stroke="hsl(0.0,100%,35%)" stroke-width="0.00752"></path>
<path d="M0.307 0.172 Q-0.003 0.426 0.424 0.633" stroke="hsl(0.0,100%,35%)" stroke-width="0.00251"></path>
<path d="M0.307 0.172 Q0.215 0.414 0.668 0.512" stroke="hsl(0.0,100%,35%)" stroke-width="0.00251"></path>
<path d="M0.307 0.172 Q-0.040 0.694 0.903 0.978" stroke="hsl(0.0,100%,35%)" stroke-width="0.00251"></path>
<path d="M0.815 0.636 Q0.841 0.545 0.668 0.512" stroke="hsl(180.0,100%,35%)" stroke-width="0.01756"></path>
<path d="M0.815 0.636 Q0.622 0.556 0.424 0.633" stroke="hsl(180.0,100%,35%)" stroke-width="0.00251"></path>
<path d="M0.815 0.636 Q0.566 0.699 0.635 0.834" stroke="hsl(180.0,100%,35%)" stroke-width="0.00251"></path>
<path d="M0.815 0.636 Q0.780 0.842 1.174 0.904" stroke="hsl(180.0,100%,35%)" stroke-width="0.00251"></path>
<path d="M0.815 0.636 Q0.436 0.782 0.637 0.999" stroke="hsl(180.0,100%,35%)" stroke-width="0.00251"></path>
<path d="M0.901 0.097 Q1.042 0.245 1.362 0.208" stroke="hsl(180.0,100%,35%)" stroke-width="0.00251"></path>
<path d="M0.901 0.097 Q0.452 0.258 0.668 0.512" stroke="hsl(180.0,100%,35%)" stroke-width="0.00502"></path>
<path d="M0.901 0.097 Q0.178 0.412 0.635 0.834" stroke="hsl(180.0,100%,35%)" stroke-width="0.00251"></path>
<path d="M0.901 0.097 Q0.196 0.538 0.903 0.978" stroke="hsl(180.0,100%,35%)" stroke-width="0.00251"></path>
<path d="M0.901 0.097 Q0.898 0.176 1.052 0.195" stroke="hsl(180.0,100%,35%)" stroke-width="0.00251"></path>
<path d="M1.471 0.733 Q1.398 0.355 0.643 0.308" stroke="hsl(180.0,100%,35%)" stroke-width="0.00251"></path>
<path d="M1.471 0.733 Q0.842 0.699 0.637 0.999" stroke="hsl(180.0,100%,35%)" stroke-width="0.00502"></path>
<path d="M1.471 0.733 Q1.402 0.540 1.010 0.531" stroke="hsl(180.0,100%,35%)" stroke-width="0.00752"></path>
<path d="M0.519 0.390 Q0.647 0.374 0.643 0.308" stroke="hsl(180.0,100%,35%)" stroke-width="0.00502"></path>
<path d="M0.519 0.390 Q0.091 0.718 0.637 0.999" stroke="hsl(180.0,100%,35%)" stroke-width="0.00251"></path>
<path d="M0.519 0.390 Q0.720 0.752 1.471 0.733" stroke="hsl(180.0,100%,35%)" stroke-width="0.00251"></path>
</g>
<text x="0.853" y="0.781" font-size="0.029251" fill="hsl(0.0,100%,20%)">armansito</text>
<text x="0.903" y="0.934" font-size="0.088360" fill="hsl(0.0,100%,20%)">johnstiles</text>
<text x="0.643" y="0.280" font-size="0.054723" fill="hsl(0.0,100%,20%)">michaelludwig</text>
<text x="1.010" y="0.513" font-size="0.037288" fill="hsl(180.0,100%,20%)">nicolettep</text>
<text x="0.637" y="0.977" font-size="0.043876" fill="hsl(180.0,100%,20%)">egdaniel</text>
<text x="1.174" y="0.862" font-size="0.085280" fill="hsl(0.0,100%,20%)">brianosman</text>
<text x="0.635" y="0.803" font-size="0.062906" fill="hsl(180.0,100%,20%)">kjlubick</text>
<text x="1.145" y="0.740" font-size="0.010342" fill="hsl(0.0,100%,20%)">borenet</text>
<text x="0.668" y="0.483" font-size="0.057580" fill="hsl(180.0,100%,20%)">bungeman</text>
<text x="1.439" y="0.814" font-size="0.041367" fill="hsl(0.0,100%,20%)">herb</text>
<text x="0.307" y="0.145" font-size="0.052733" fill="hsl(0.0,100%,20%)">jvanverth</text>
<text x="0.424" y="0.621" font-size="0.023125" fill="hsl(180.0,100%,20%)">jlavrova</text>
<text x="0.815" y="0.619" font-size="0.034300" fill="hsl(180.0,100%,20%)">drott</text>
<text x="0.901" y="0.081" font-size="0.031025" fill="hsl(180.0,100%,20%)">fmalita</text>
<text x="1.362" y="0.203" font-size="0.010342" fill="hsl(180.0,100%,20%)">sharaks</text>
<text x="1.052" y="0.190" font-size="0.010342" fill="hsl(180.0,100%,20%)">jmbetancourt</text>
<text x="1.471" y="0.714" font-size="0.038695" fill="hsl(180.0,100%,20%)">robertphillips</text>
<text x="1.118" y="0.652" font-size="0.017912" fill="hsl(0.0,100%,20%)">jamesgk</text>
<text x="0.336" y="0.778" font-size="0.014625" fill="hsl(180.0,100%,20%)">nscobie</text>
<text x="0.529" y="0.681" font-size="0.020684" fill="hsl(180.0,100%,20%)">lovisolo</text>
<text x="0.164" y="0.739" font-size="0.010342" fill="hsl(180.0,100%,20%)">scroggo</text>
<text x="0.519" y="0.380" font-size="0.020684" fill="hsl(180.0,100%,20%)">penghuang</text>
</svg>
