<svg width="4000" height="2000" viewBox="-0.025 -0.025 2.05 1.05" xmlns="http://www.w3.org/2000/svg">
  <style>
    path {
      fill: none;
      stroke-linecap: round;
      stroke-opacity: 0.4;
    }

    text {
      text-anchor: middle;
      alignment-baseline: hanging;
    }
  </style>
  <g opacity="0.4">
<path d="M1.678 0.611 Q1.735 0.215 0.976 0.101" stroke="hsl(0.0,100%,35%)" stroke-width="0.00819"></path>
<path d="M1.678 0.611 Q1.908 0.585 1.908 0.467" stroke="hsl(0.0,100%,35%)" stroke-width="0.00583"></path>
<path d="M1.678 0.611 Q1.592 0.117 0.610 0.051" stroke="hsl(0.0,100%,35%)" stroke-width="0.00583"></path>
<path d="M1.678 0.611 Q1.933 0.491 1.756 0.340" stroke="hsl(0.0,100%,35%)" stroke-width="0.00173"></path>
<path d="M1.678 0.611 Q1.056 0.334 0.380 0.577" stroke="hsl(0.0,100%,35%)" stroke-width="0.00126"></path>
<path d="M1.678 0.611 Q1.192 0.207 0.299 0.356" stroke="hsl(0.0,100%,35%)" stroke-width="0.00016"></path>
<path d="M1.678 0.611 Q1.377 0.301 0.706 0.380" stroke="hsl(0.0,100%,35%)" stroke-width="0.00047"></path>
<path d="M1.678 0.611 Q1.723 0.534 1.582 0.495" stroke="hsl(0.0,100%,35%)" stroke-width="0.00016"></path>
<path d="M1.678 0.611 Q1.447 0.073 0.346 0.067" stroke="hsl(0.0,100%,35%)" stroke-width="0.00016"></path>
<path d="M1.678 0.611 Q1.878 0.297 1.310 0.131" stroke="hsl(0.0,100%,35%)" stroke-width="0.00047"></path>
<path d="M0.976 0.101 Q1.174 0.376 1.756 0.340" stroke="hsl(180.0,100%,35%)" stroke-width="0.01339"></path>
<path d="M0.976 0.101 Q0.863 0.154 0.942 0.221" stroke="hsl(180.0,100%,35%)" stroke-width="0.01812"></path>
<path d="M0.976 0.101 Q1.119 0.182 1.310 0.131" stroke="hsl(180.0,100%,35%)" stroke-width="0.00299"></path>
<path d="M0.976 0.101 Q0.688 -0.042 0.346 0.067" stroke="hsl(180.0,100%,35%)" stroke-width="0.00205"></path>
<path d="M0.976 0.101 Q0.297 0.220 0.380 0.577" stroke="hsl(180.0,100%,35%)" stroke-width="0.00063"></path>
<path d="M0.976 0.101 Q0.919 0.496 1.678 0.611" stroke="hsl(180.0,100%,35%)" stroke-width="0.00189"></path>
<path d="M0.976 0.101 Q1.262 0.277 1.669 0.176" stroke="hsl(180.0,100%,35%)" stroke-width="0.00032"></path>
<path d="M0.976 0.101 Q1.149 0.470 1.908 0.467" stroke="hsl(180.0,100%,35%)" stroke-width="0.00221"></path>
<path d="M0.976 0.101 Q0.833 0.002 0.610 0.051" stroke="hsl(180.0,100%,35%)" stroke-width="0.00378"></path>
<path d="M0.976 0.101 Q0.964 0.419 1.582 0.495" stroke="hsl(180.0,100%,35%)" stroke-width="0.00110"></path>
<path d="M0.976 0.101 Q0.618 0.187 0.706 0.380" stroke="hsl(180.0,100%,35%)" stroke-width="0.00110"></path>
<path d="M0.976 0.101 Q0.272 0.519 0.935 0.955" stroke="hsl(180.0,100%,35%)" stroke-width="0.00016"></path>
<path d="M1.908 0.467 Q1.056 0.217 0.380 0.577" stroke="hsl(0.0,100%,35%)" stroke-width="0.01103"></path>
<path d="M1.908 0.467 Q1.934 0.373 1.756 0.340" stroke="hsl(0.0,100%,35%)" stroke-width="0.06932"></path>
<path d="M1.908 0.467 Q1.593 -0.001 0.610 0.051" stroke="hsl(0.0,100%,35%)" stroke-width="0.00567"></path>
<path d="M1.908 0.467 Q1.879 0.179 1.310 0.131" stroke="hsl(0.0,100%,35%)" stroke-width="0.00425"></path>
<path d="M1.908 0.467 Q1.377 0.183 0.706 0.380" stroke="hsl(0.0,100%,35%)" stroke-width="0.00441"></path>
<path d="M1.908 0.467 Q1.736 0.098 0.976 0.101" stroke="hsl(0.0,100%,35%)" stroke-width="0.01245"></path>
<path d="M1.908 0.467 Q1.448 -0.045 0.346 0.067" stroke="hsl(0.0,100%,35%)" stroke-width="0.00756"></path>
<path d="M1.908 0.467 Q1.723 0.416 1.582 0.495" stroke="hsl(0.0,100%,35%)" stroke-width="0.01071"></path>
<path d="M1.908 0.467 Q1.032 0.516 0.935 0.955" stroke="hsl(0.0,100%,35%)" stroke-width="0.00126"></path>
<path d="M1.908 0.467 Q1.679 0.493 1.678 0.611" stroke="hsl(0.0,100%,35%)" stroke-width="0.03246"></path>
<path d="M1.908 0.467 Q1.007 0.139 0.168 0.507" stroke="hsl(0.0,100%,35%)" stroke-width="0.00095"></path>
<path d="M1.908 0.467 Q1.622 0.151 0.942 0.221" stroke="hsl(0.0,100%,35%)" stroke-width="0.00236"></path>
<path d="M1.908 0.467 Q1.722 0.234 1.226 0.273" stroke="hsl(0.0,100%,35%)" stroke-width="0.00032"></path>
<path d="M1.908 0.467 Q1.182 0.263 0.624 0.573" stroke="hsl(0.0,100%,35%)" stroke-width="0.00158"></path>
<path d="M1.908 0.467 Q2.021 0.274 1.669 0.176" stroke="hsl(0.0,100%,35%)" stroke-width="0.00110"></path>
<path d="M1.908 0.467 Q0.970 0.261 0.362 0.673" stroke="hsl(0.0,100%,35%)" stroke-width="0.00047"></path>
<path d="M1.908 0.467 Q1.027 0.331 0.569 0.732" stroke="hsl(0.0,100%,35%)" stroke-width="0.00047"></path>
<path d="M1.908 0.467 Q1.604 0.283 1.178 0.391" stroke="hsl(0.0,100%,35%)" stroke-width="0.00110"></path>
<path d="M1.908 0.467 Q1.193 0.090 0.299 0.356" stroke="hsl(0.0,100%,35%)" stroke-width="0.00016"></path>
<path d="M1.908 0.467 Q2.092 0.244 1.697 0.106" stroke="hsl(0.0,100%,35%)" stroke-width="0.00047"></path>
<path d="M1.908 0.467 Q1.310 0.413 1.072 0.692" stroke="hsl(0.0,100%,35%)" stroke-width="0.00047"></path>
<path d="M1.908 0.467 Q1.039 0.073 0.079 0.411" stroke="hsl(0.0,100%,35%)" stroke-width="0.00016"></path>
<path d="M1.908 0.467 Q1.833 0.523 1.926 0.572" stroke="hsl(0.0,100%,35%)" stroke-width="0.00095"></path>
<path d="M1.908 0.467 Q1.595 0.353 1.305 0.481" stroke="hsl(0.0,100%,35%)" stroke-width="0.00016"></path>
<path d="M0.610 0.051 Q0.951 0.425 1.756 0.340" stroke="hsl(180.0,100%,35%)" stroke-width="0.00583"></path>
<path d="M0.610 0.051 Q0.395 0.235 0.706 0.380" stroke="hsl(180.0,100%,35%)" stroke-width="0.00441"></path>
<path d="M0.610 0.051 Q0.640 0.202 0.942 0.221" stroke="hsl(180.0,100%,35%)" stroke-width="0.00804"></path>
<path d="M0.610 0.051 Q0.896 0.231 1.310 0.131" stroke="hsl(180.0,100%,35%)" stroke-width="0.00362"></path>
<path d="M0.610 0.051 Q0.753 0.149 0.976 0.101" stroke="hsl(180.0,100%,35%)" stroke-width="0.00851"></path>
<path d="M0.610 0.051 Q0.465 0.006 0.346 0.067" stroke="hsl(180.0,100%,35%)" stroke-width="0.00677"></path>
<path d="M0.610 0.051 Q0.926 0.519 1.908 0.467" stroke="hsl(180.0,100%,35%)" stroke-width="0.00173"></path>
<path d="M0.610 0.051 Q0.696 0.544 1.678 0.611" stroke="hsl(180.0,100%,35%)" stroke-width="0.00347"></path>
<path d="M0.610 0.051 Q1.039 0.325 1.669 0.176" stroke="hsl(180.0,100%,35%)" stroke-width="0.00079"></path>
<path d="M0.610 0.051 Q0.741 0.467 1.582 0.495" stroke="hsl(180.0,100%,35%)" stroke-width="0.00158"></path>
<path d="M0.610 0.051 Q0.074 0.268 0.380 0.577" stroke="hsl(180.0,100%,35%)" stroke-width="0.00095"></path>
<path d="M0.610 0.051 Q0.045 0.383 0.569 0.732" stroke="hsl(180.0,100%,35%)" stroke-width="0.00032"></path>
<path d="M0.610 0.051 Q0.056 0.125 0.079 0.411" stroke="hsl(180.0,100%,35%)" stroke-width="0.00016"></path>
<path d="M0.610 0.051 Q0.851 0.575 1.926 0.572" stroke="hsl(180.0,100%,35%)" stroke-width="0.00032"></path>
<path d="M0.610 0.051 Q0.328 0.464 1.072 0.692" stroke="hsl(180.0,100%,35%)" stroke-width="0.00016"></path>
<path d="M0.610 0.051 Q0.049 0.568 0.935 0.955" stroke="hsl(180.0,100%,35%)" stroke-width="0.00047"></path>
<path d="M0.610 0.051 Q0.740 0.285 1.226 0.273" stroke="hsl(180.0,100%,35%)" stroke-width="0.00016"></path>
<path d="M1.756 0.340 Q0.878 0.184 0.380 0.577" stroke="hsl(0.0,100%,35%)" stroke-width="0.00709"></path>
<path d="M1.756 0.340 Q1.199 0.150 0.706 0.380" stroke="hsl(0.0,100%,35%)" stroke-width="0.00158"></path>
<path d="M1.756 0.340 Q1.415 -0.034 0.610 0.051" stroke="hsl(0.0,100%,35%)" stroke-width="0.00268"></path>
<path d="M1.756 0.340 Q0.854 0.483 0.935 0.955" stroke="hsl(0.0,100%,35%)" stroke-width="0.00236"></path>
<path d="M1.756 0.340 Q1.731 0.434 1.908 0.467" stroke="hsl(0.0,100%,35%)" stroke-width="0.01071"></path>
<path d="M1.756 0.340 Q1.545 0.383 1.582 0.495" stroke="hsl(0.0,100%,35%)" stroke-width="0.00378"></path>
<path d="M1.756 0.340 Q1.015 0.057 0.299 0.356" stroke="hsl(0.0,100%,35%)" stroke-width="0.00016"></path>
<path d="M1.756 0.340 Q1.445 0.118 0.942 0.221" stroke="hsl(0.0,100%,35%)" stroke-width="0.00284"></path>
<path d="M1.756 0.340 Q1.558 0.065 0.976 0.101" stroke="hsl(0.0,100%,35%)" stroke-width="0.00331"></path>
<path d="M1.756 0.340 Q1.270 -0.078 0.346 0.067" stroke="hsl(0.0,100%,35%)" stroke-width="0.00032"></path>
<path d="M1.756 0.340 Q1.426 0.250 1.178 0.391" stroke="hsl(0.0,100%,35%)" stroke-width="0.00032"></path>
<path d="M1.756 0.340 Q1.132 0.380 1.072 0.692" stroke="hsl(0.0,100%,35%)" stroke-width="0.00016"></path>
<path d="M1.756 0.340 Q1.701 0.146 1.310 0.131" stroke="hsl(0.0,100%,35%)" stroke-width="0.00016"></path>
<path d="M1.756 0.340 Q1.914 0.211 1.697 0.106" stroke="hsl(0.0,100%,35%)" stroke-width="0.00016"></path>
<path d="M1.756 0.340 Q1.843 0.241 1.669 0.176" stroke="hsl(0.0,100%,35%)" stroke-width="0.00032"></path>
<path d="M1.756 0.340 Q1.346 0.308 1.193 0.500" stroke="hsl(0.0,100%,35%)" stroke-width="0.00063"></path>
<path d="M1.756 0.340 Q1.544 0.201 1.226 0.273" stroke="hsl(0.0,100%,35%)" stroke-width="0.00016"></path>
<path d="M1.756 0.340 Q0.829 0.106 0.168 0.507" stroke="hsl(0.0,100%,35%)" stroke-width="0.00016"></path>
<path d="M1.756 0.340 Q1.655 0.490 1.926 0.572" stroke="hsl(0.0,100%,35%)" stroke-width="0.00016"></path>
<path d="M1.756 0.340 Q1.933 0.316 1.925 0.225" stroke="hsl(0.0,100%,35%)" stroke-width="0.00032"></path>
<path d="M0.380 0.577 Q0.425 0.777 0.824 0.799" stroke="hsl(0.0,100%,35%)" stroke-width="0.00142"></path>
<path d="M0.380 0.577 Q0.516 0.450 0.299 0.356" stroke="hsl(0.0,100%,35%)" stroke-width="0.00378"></path>
<path d="M0.380 0.577 Q1.257 0.734 1.756 0.340" stroke="hsl(0.0,100%,35%)" stroke-width="0.02064"></path>
<path d="M0.380 0.577 Q0.356 0.877 0.935 0.955" stroke="hsl(0.0,100%,35%)" stroke-width="0.01654"></path>
<path d="M0.380 0.577 Q1.047 0.777 1.582 0.495" stroke="hsl(0.0,100%,35%)" stroke-width="0.00662"></path>
<path d="M0.380 0.577 Q0.506 0.624 0.624 0.573" stroke="hsl(0.0,100%,35%)" stroke-width="0.00063"></path>
<path d="M0.380 0.577 Q0.701 0.544 0.706 0.380" stroke="hsl(0.0,100%,35%)" stroke-width="0.00331"></path>
<path d="M0.380 0.577 Q0.916 0.360 0.610 0.051" stroke="hsl(0.0,100%,35%)" stroke-width="0.00284"></path>
<path d="M0.380 0.577 Q1.059 0.458 0.976 0.101" stroke="hsl(0.0,100%,35%)" stroke-width="0.00867"></path>
<path d="M0.380 0.577 Q1.046 0.594 1.226 0.273" stroke="hsl(0.0,100%,35%)" stroke-width="0.00394"></path>
<path d="M0.380 0.577 Q1.002 0.854 1.678 0.611" stroke="hsl(0.0,100%,35%)" stroke-width="0.00079"></path>
<path d="M0.380 0.577 Q1.415 0.605 1.697 0.106" stroke="hsl(0.0,100%,35%)" stroke-width="0.00063"></path>
<path d="M0.380 0.577 Q0.351 0.692 0.569 0.732" stroke="hsl(0.0,100%,35%)" stroke-width="0.00110"></path>
<path d="M0.380 0.577 Q0.634 0.773 1.072 0.692" stroke="hsl(0.0,100%,35%)" stroke-width="0.00158"></path>
<path d="M0.380 0.577 Q1.232 0.828 1.908 0.467" stroke="hsl(0.0,100%,35%)" stroke-width="0.00646"></path>
<path d="M0.380 0.577 Q0.771 0.316 0.346 0.067" stroke="hsl(0.0,100%,35%)" stroke-width="0.00173"></path>
<path d="M0.380 0.577 Q1.345 0.635 1.669 0.176" stroke="hsl(0.0,100%,35%)" stroke-width="0.00221"></path>
<path d="M0.380 0.577 Q0.946 0.512 0.942 0.221" stroke="hsl(0.0,100%,35%)" stroke-width="0.00110"></path>
<path d="M0.380 0.577 Q0.330 0.500 0.168 0.507" stroke="hsl(0.0,100%,35%)" stroke-width="0.00095"></path>
<path d="M0.380 0.577 Q1.434 0.710 1.925 0.225" stroke="hsl(0.0,100%,35%)" stroke-width="0.00047"></path>
<path d="M0.380 0.577 Q0.294 0.622 0.362 0.673" stroke="hsl(0.0,100%,35%)" stroke-width="0.00173"></path>
<path d="M0.380 0.577 Q0.927 0.644 1.178 0.391" stroke="hsl(0.0,100%,35%)" stroke-width="0.00095"></path>
<path d="M0.380 0.577 Q1.202 0.540 1.310 0.131" stroke="hsl(0.0,100%,35%)" stroke-width="0.00016"></path>
<path d="M0.380 0.577 Q0.146 0.599 0.137 0.718" stroke="hsl(0.0,100%,35%)" stroke-width="0.00047"></path>
<path d="M0.380 0.577 Q1.157 0.884 1.926 0.572" stroke="hsl(0.0,100%,35%)" stroke-width="0.00047"></path>
<path d="M0.299 0.356 Q1.039 0.639 1.756 0.340" stroke="hsl(0.0,100%,35%)" stroke-width="0.00047"></path>
<path d="M0.299 0.356 Q0.162 0.483 0.380 0.577" stroke="hsl(0.0,100%,35%)" stroke-width="0.01355"></path>
<path d="M0.299 0.356 Q1.014 0.733 1.908 0.467" stroke="hsl(0.0,100%,35%)" stroke-width="0.00126"></path>
<path d="M0.299 0.356 Q0.985 0.446 1.310 0.131" stroke="hsl(0.0,100%,35%)" stroke-width="0.00016"></path>
<path d="M0.299 0.356 Q0.113 0.405 0.168 0.507" stroke="hsl(0.0,100%,35%)" stroke-width="0.00110"></path>
<path d="M0.299 0.356 Q0.076 0.527 0.362 0.673" stroke="hsl(0.0,100%,35%)" stroke-width="0.00016"></path>
<path d="M0.299 0.356 Q0.133 0.598 0.569 0.732" stroke="hsl(0.0,100%,35%)" stroke-width="0.00032"></path>
<path d="M0.299 0.356 Q0.841 0.364 0.976 0.101" stroke="hsl(0.0,100%,35%)" stroke-width="0.00016"></path>
<path d="M0.299 0.356 Q0.288 0.529 0.624 0.573" stroke="hsl(0.0,100%,35%)" stroke-width="0.00016"></path>
<path d="M0.299 0.356 Q0.698 0.265 0.610 0.051" stroke="hsl(0.0,100%,35%)" stroke-width="0.00016"></path>
<path d="M0.706 0.380 Q1.263 0.570 1.756 0.340" stroke="hsl(180.0,100%,35%)" stroke-width="0.00079"></path>
<path d="M0.706 0.380 Q0.952 0.348 0.942 0.221" stroke="hsl(180.0,100%,35%)" stroke-width="0.00221"></path>
<path d="M0.706 0.380 Q0.777 0.152 0.346 0.067" stroke="hsl(180.0,100%,35%)" stroke-width="0.00189"></path>
<path d="M0.706 0.380 Q0.922 0.196 0.610 0.051" stroke="hsl(180.0,100%,35%)" stroke-width="0.00173"></path>
<path d="M0.706 0.380 Q0.385 0.413 0.380 0.577" stroke="hsl(180.0,100%,35%)" stroke-width="0.00032"></path>
<path d="M0.706 0.380 Q1.208 0.376 1.310 0.131" stroke="hsl(180.0,100%,35%)" stroke-width="0.00063"></path>
<path d="M0.706 0.380 Q0.854 0.538 1.193 0.500" stroke="hsl(180.0,100%,35%)" stroke-width="0.00032"></path>
<path d="M0.706 0.380 Q1.065 0.294 0.976 0.101" stroke="hsl(180.0,100%,35%)" stroke-width="0.00158"></path>
<path d="M0.706 0.380 Q1.238 0.664 1.908 0.467" stroke="hsl(180.0,100%,35%)" stroke-width="0.00032"></path>
<path d="M0.706 0.380 Q0.933 0.480 1.178 0.391" stroke="hsl(180.0,100%,35%)" stroke-width="0.00016"></path>
<path d="M1.582 0.495 Q1.793 0.452 1.756 0.340" stroke="hsl(180.0,100%,35%)" stroke-width="0.00741"></path>
<path d="M1.582 0.495 Q0.915 0.296 0.380 0.577" stroke="hsl(180.0,100%,35%)" stroke-width="0.00504"></path>
<path d="M1.582 0.495 Q1.768 0.546 1.908 0.467" stroke="hsl(180.0,100%,35%)" stroke-width="0.00158"></path>
<path d="M1.582 0.495 Q1.595 0.177 0.976 0.101" stroke="hsl(180.0,100%,35%)" stroke-width="0.00047"></path>
<path d="M1.582 0.495 Q1.452 0.078 0.610 0.051" stroke="hsl(180.0,100%,35%)" stroke-width="0.00394"></path>
<path d="M1.582 0.495 Q1.880 0.353 1.669 0.176" stroke="hsl(180.0,100%,35%)" stroke-width="0.00016"></path>
<path d="M1.582 0.495 Q1.482 0.230 0.942 0.221" stroke="hsl(180.0,100%,35%)" stroke-width="0.01386"></path>
<path d="M1.582 0.495 Q0.891 0.595 0.935 0.955" stroke="hsl(180.0,100%,35%)" stroke-width="0.00079"></path>
<path d="M1.582 0.495 Q1.951 0.323 1.697 0.106" stroke="hsl(180.0,100%,35%)" stroke-width="0.00016"></path>
<path d="M1.582 0.495 Q1.692 0.602 1.926 0.572" stroke="hsl(180.0,100%,35%)" stroke-width="0.00016"></path>
<path d="M0.346 0.067 Q0.276 0.296 0.706 0.380" stroke="hsl(180.0,100%,35%)" stroke-width="0.00315"></path>
<path d="M0.346 0.067 Q0.491 0.112 0.610 0.051" stroke="hsl(180.0,100%,35%)" stroke-width="0.00551"></path>
<path d="M0.346 0.067 Q0.622 0.528 1.582 0.495" stroke="hsl(180.0,100%,35%)" stroke-width="0.00016"></path>
<path d="M0.346 0.067 Q0.778 0.292 1.310 0.131" stroke="hsl(180.0,100%,35%)" stroke-width="0.00032"></path>
<path d="M0.346 0.067 Q0.990 0.357 1.697 0.106" stroke="hsl(180.0,100%,35%)" stroke-width="0.00016"></path>
<path d="M0.346 0.067 Q0.807 0.580 1.908 0.467" stroke="hsl(180.0,100%,35%)" stroke-width="0.00047"></path>
<path d="M0.346 0.067 Q-0.045 0.329 0.380 0.577" stroke="hsl(180.0,100%,35%)" stroke-width="0.00079"></path>
<path d="M0.346 0.067 Q0.634 0.210 0.976 0.101" stroke="hsl(180.0,100%,35%)" stroke-width="0.00047"></path>
<path d="M0.346 0.067 Q0.521 0.263 0.942 0.221" stroke="hsl(180.0,100%,35%)" stroke-width="0.00110"></path>
<path d="M0.346 0.067 Q0.503 0.395 1.178 0.391" stroke="hsl(180.0,100%,35%)" stroke-width="0.00032"></path>
<path d="M0.346 0.067 Q0.832 0.486 1.756 0.340" stroke="hsl(180.0,100%,35%)" stroke-width="0.00016"></path>
<path d="M1.310 0.131 Q1.167 0.049 0.976 0.101" stroke="hsl(180.0,100%,35%)" stroke-width="0.00488"></path>
<path d="M1.310 0.131 Q1.024 -0.049 0.610 0.051" stroke="hsl(180.0,100%,35%)" stroke-width="0.00205"></path>
<path d="M1.310 0.131 Q1.340 0.419 1.908 0.467" stroke="hsl(180.0,100%,35%)" stroke-width="0.00236"></path>
<path d="M1.310 0.131 Q0.488 0.168 0.380 0.577" stroke="hsl(180.0,100%,35%)" stroke-width="0.00079"></path>
<path d="M1.310 0.131 Q1.365 0.325 1.756 0.340" stroke="hsl(180.0,100%,35%)" stroke-width="0.00110"></path>
<path d="M1.310 0.131 Q0.614 0.214 0.624 0.573" stroke="hsl(180.0,100%,35%)" stroke-width="0.00016"></path>
<path d="M1.310 0.131 Q1.054 0.102 0.942 0.221" stroke="hsl(180.0,100%,35%)" stroke-width="0.00189"></path>
<path d="M1.310 0.131 Q0.879 -0.094 0.346 0.067" stroke="hsl(180.0,100%,35%)" stroke-width="0.00063"></path>
<path d="M1.310 0.131 Q1.154 0.185 1.226 0.273" stroke="hsl(180.0,100%,35%)" stroke-width="0.00016"></path>
<path d="M1.310 0.131 Q0.809 0.135 0.706 0.380" stroke="hsl(180.0,100%,35%)" stroke-width="0.00189"></path>
<path d="M1.310 0.131 Q0.463 0.468 0.935 0.955" stroke="hsl(180.0,100%,35%)" stroke-width="0.00016"></path>
<path d="M1.553 0.704 Q1.747 0.287 0.976 0.101" stroke="hsl(0.0,100%,35%)" stroke-width="0.00016"></path>
<path d="M1.553 0.704 Q1.067 0.406 0.380 0.577" stroke="hsl(0.0,100%,35%)" stroke-width="0.00016"></path>
<path d="M1.553 0.704 Q1.735 0.605 1.582 0.495" stroke="hsl(0.0,100%,35%)" stroke-width="0.00032"></path>
<path d="M1.278 0.336 Q1.172 0.060 0.610 0.051" stroke="hsl(180.0,100%,35%)" stroke-width="0.00032"></path>
<path d="M1.278 0.336 Q1.202 0.211 0.942 0.221" stroke="hsl(180.0,100%,35%)" stroke-width="0.00016"></path>
<path d="M1.278 0.336 Q0.957 0.244 0.706 0.380" stroke="hsl(180.0,100%,35%)" stroke-width="0.00016"></path>
<path d="M0.942 0.221 Q1.253 0.443 1.756 0.340" stroke="hsl(180.0,100%,35%)" stroke-width="0.00252"></path>
<path d="M0.942 0.221 Q1.042 0.304 1.226 0.273" stroke="hsl(180.0,100%,35%)" stroke-width="0.00047"></path>
<path d="M0.942 0.221 Q0.912 0.069 0.610 0.051" stroke="hsl(180.0,100%,35%)" stroke-width="0.01040"></path>
<path d="M0.942 0.221 Q0.697 0.253 0.706 0.380" stroke="hsl(180.0,100%,35%)" stroke-width="0.00599"></path>
<path d="M0.942 0.221 Q0.376 0.287 0.380 0.577" stroke="hsl(180.0,100%,35%)" stroke-width="0.00095"></path>
<path d="M0.942 0.221 Q1.055 0.168 0.976 0.101" stroke="hsl(180.0,100%,35%)" stroke-width="0.00819"></path>
<path d="M0.942 0.221 Q0.844 0.411 1.193 0.500" stroke="hsl(180.0,100%,35%)" stroke-width="0.00016"></path>
<path d="M0.942 0.221 Q1.341 0.344 1.669 0.176" stroke="hsl(180.0,100%,35%)" stroke-width="0.00047"></path>
<path d="M0.942 0.221 Q1.043 0.486 1.582 0.495" stroke="hsl(180.0,100%,35%)" stroke-width="0.00032"></path>
<path d="M0.942 0.221 Q1.228 0.537 1.908 0.467" stroke="hsl(180.0,100%,35%)" stroke-width="0.00079"></path>
<path d="M0.942 0.221 Q1.199 0.249 1.310 0.131" stroke="hsl(180.0,100%,35%)" stroke-width="0.00268"></path>
<path d="M0.942 0.221 Q0.767 0.025 0.346 0.067" stroke="hsl(180.0,100%,35%)" stroke-width="0.00583"></path>
<path d="M0.942 0.221 Q0.347 0.402 0.569 0.732" stroke="hsl(180.0,100%,35%)" stroke-width="0.00126"></path>
<path d="M0.942 0.221 Q1.153 0.593 1.926 0.572" stroke="hsl(180.0,100%,35%)" stroke-width="0.00047"></path>
<path d="M0.935 0.955 Q1.837 0.812 1.756 0.340" stroke="hsl(0.0,100%,35%)" stroke-width="0.00504"></path>
<path d="M0.935 0.955 Q1.214 0.851 1.072 0.692" stroke="hsl(0.0,100%,35%)" stroke-width="0.00158"></path>
<path d="M0.935 0.955 Q0.959 0.655 0.380 0.577" stroke="hsl(0.0,100%,35%)" stroke-width="0.00394"></path>
<path d="M0.935 0.955 Q1.096 0.528 0.299 0.356" stroke="hsl(0.0,100%,35%)" stroke-width="0.00016"></path>
<path d="M0.935 0.955 Q1.627 0.854 1.582 0.495" stroke="hsl(0.0,100%,35%)" stroke-width="0.00268"></path>
<path d="M0.935 0.955 Q1.812 0.906 1.908 0.467" stroke="hsl(0.0,100%,35%)" stroke-width="0.00189"></path>
<path d="M0.935 0.955 Q1.004 0.855 0.824 0.799" stroke="hsl(0.0,100%,35%)" stroke-width="0.00063"></path>
<path d="M0.935 0.955 Q1.925 0.712 1.669 0.176" stroke="hsl(0.0,100%,35%)" stroke-width="0.00032"></path>
<path d="M0.935 0.955 Q1.736 0.962 1.926 0.572" stroke="hsl(0.0,100%,35%)" stroke-width="0.00016"></path>
<path d="M0.935 0.955 Q1.625 0.672 1.226 0.273" stroke="hsl(0.0,100%,35%)" stroke-width="0.00016"></path>
<path d="M0.935 0.955 Q1.428 0.779 1.193 0.500" stroke="hsl(0.0,100%,35%)" stroke-width="0.00016"></path>
<path d="M0.935 0.955 Q1.280 0.622 0.706 0.380" stroke="hsl(0.0,100%,35%)" stroke-width="0.00016"></path>
<path d="M1.178 0.391 Q1.169 0.462 1.305 0.481" stroke="hsl(0.0,100%,35%)" stroke-width="0.00016"></path>
<path d="M1.178 0.391 Q1.482 0.575 1.908 0.467" stroke="hsl(0.0,100%,35%)" stroke-width="0.00079"></path>
<path d="M1.178 0.391 Q1.296 0.342 1.226 0.273" stroke="hsl(0.0,100%,35%)" stroke-width="0.00126"></path>
<path d="M1.178 0.391 Q1.507 0.481 1.756 0.340" stroke="hsl(0.0,100%,35%)" stroke-width="0.00063"></path>
<path d="M1.178 0.391 Q0.606 0.625 0.935 0.955" stroke="hsl(0.0,100%,35%)" stroke-width="0.00016"></path>
<path d="M1.178 0.391 Q1.098 0.449 1.193 0.500" stroke="hsl(0.0,100%,35%)" stroke-width="0.00016"></path>
<path d="M1.178 0.391 Q1.021 0.063 0.346 0.067" stroke="hsl(0.0,100%,35%)" stroke-width="0.00032"></path>
<path d="M1.178 0.391 Q1.196 0.259 0.942 0.221" stroke="hsl(0.0,100%,35%)" stroke-width="0.00063"></path>
<path d="M1.178 0.391 Q0.951 0.292 0.706 0.380" stroke="hsl(0.0,100%,35%)" stroke-width="0.00016"></path>
<path d="M1.072 0.692 Q0.794 0.796 0.935 0.955" stroke="hsl(0.0,100%,35%)" stroke-width="0.00362"></path>
<path d="M1.072 0.692 Q0.818 0.496 0.380 0.577" stroke="hsl(0.0,100%,35%)" stroke-width="0.00110"></path>
<path d="M1.072 0.692 Q1.696 0.653 1.756 0.340" stroke="hsl(0.0,100%,35%)" stroke-width="0.00047"></path>
<path d="M1.072 0.692 Q1.210 0.234 0.346 0.067" stroke="hsl(0.0,100%,35%)" stroke-width="0.00016"></path>
<path d="M1.072 0.692 Q0.955 0.369 0.299 0.356" stroke="hsl(0.0,100%,35%)" stroke-width="0.00016"></path>
<path d="M1.072 0.692 Q1.498 0.377 0.976 0.101" stroke="hsl(0.0,100%,35%)" stroke-width="0.00016"></path>
<path d="M1.697 0.106 Q1.341 -0.041 0.976 0.101" stroke="hsl(0.0,100%,35%)" stroke-width="0.00016"></path>
<path d="M1.697 0.106 Q1.626 0.136 1.669 0.176" stroke="hsl(0.0,100%,35%)" stroke-width="0.00551"></path>
<path d="M1.697 0.106 Q0.661 0.078 0.380 0.577" stroke="hsl(0.0,100%,35%)" stroke-width="0.00189"></path>
<path d="M1.697 0.106 Q1.228 0.013 0.942 0.221" stroke="hsl(0.0,100%,35%)" stroke-width="0.00016"></path>
<path d="M1.697 0.106 Q0.787 0.125 0.624 0.573" stroke="hsl(0.0,100%,35%)" stroke-width="0.00016"></path>
<path d="M1.697 0.106 Q1.327 0.095 1.226 0.273" stroke="hsl(0.0,100%,35%)" stroke-width="0.00016"></path>
<path d="M1.669 0.176 Q1.581 0.276 1.756 0.340" stroke="hsl(0.0,100%,35%)" stroke-width="0.00110"></path>
<path d="M1.669 0.176 Q1.240 -0.098 0.610 0.051" stroke="hsl(0.0,100%,35%)" stroke-width="0.00016"></path>
<path d="M1.669 0.176 Q1.739 0.147 1.697 0.106" stroke="hsl(0.0,100%,35%)" stroke-width="0.00425"></path>
<path d="M1.669 0.176 Q0.679 0.419 0.935 0.955" stroke="hsl(0.0,100%,35%)" stroke-width="0.00142"></path>
<path d="M1.669 0.176 Q0.704 0.119 0.380 0.577" stroke="hsl(0.0,100%,35%)" stroke-width="0.00189"></path>
<path d="M1.669 0.176 Q1.370 0.136 1.226 0.273" stroke="hsl(0.0,100%,35%)" stroke-width="0.00016"></path>
<path d="M1.669 0.176 Q1.371 0.318 1.582 0.495" stroke="hsl(0.0,100%,35%)" stroke-width="0.00016"></path>
<path d="M1.669 0.176 Q1.556 0.370 1.908 0.467" stroke="hsl(0.0,100%,35%)" stroke-width="0.00016"></path>
<path d="M1.669 0.176 Q1.481 0.426 1.926 0.572" stroke="hsl(0.0,100%,35%)" stroke-width="0.00016"></path>
<path d="M1.669 0.176 Q0.654 0.041 0.168 0.507" stroke="hsl(0.0,100%,35%)" stroke-width="0.00016"></path>
<path d="M1.669 0.176 Q1.251 0.186 1.178 0.391" stroke="hsl(0.0,100%,35%)" stroke-width="0.00016"></path>
<path d="M1.669 0.176 Q1.270 0.053 0.942 0.221" stroke="hsl(0.0,100%,35%)" stroke-width="0.00016"></path>
<path d="M1.193 0.500 Q1.602 0.533 1.756 0.340" stroke="hsl(0.0,100%,35%)" stroke-width="0.00063"></path>
<path d="M1.193 0.500 Q1.779 0.509 1.925 0.225" stroke="hsl(0.0,100%,35%)" stroke-width="0.00016"></path>
<path d="M1.226 0.273 Q1.107 0.323 1.178 0.391" stroke="hsl(0.0,100%,35%)" stroke-width="0.00079"></path>
<path d="M1.226 0.273 Q1.099 0.393 1.305 0.481" stroke="hsl(0.0,100%,35%)" stroke-width="0.00079"></path>
<path d="M1.226 0.273 Q0.559 0.256 0.380 0.577" stroke="hsl(0.0,100%,35%)" stroke-width="0.00047"></path>
<path d="M1.226 0.273 Q1.412 0.507 1.908 0.467" stroke="hsl(0.0,100%,35%)" stroke-width="0.00079"></path>
<path d="M1.226 0.273 Q1.437 0.413 1.756 0.340" stroke="hsl(0.0,100%,35%)" stroke-width="0.00016"></path>
<path d="M1.226 0.273 Q0.535 0.556 0.935 0.955" stroke="hsl(0.0,100%,35%)" stroke-width="0.00032"></path>
<path d="M1.226 0.273 Q1.239 0.137 0.976 0.101" stroke="hsl(0.0,100%,35%)" stroke-width="0.00032"></path>
<path d="M0.168 0.507 Q0.193 0.884 0.935 0.955" stroke="hsl(0.0,100%,35%)" stroke-width="0.00016"></path>
<path d="M0.168 0.507 Q0.354 0.457 0.299 0.356" stroke="hsl(0.0,100%,35%)" stroke-width="0.00016"></path>
<path d="M0.168 0.507 Q0.188 0.699 0.569 0.732" stroke="hsl(0.0,100%,35%)" stroke-width="0.00032"></path>
<path d="M1.926 0.572 Q2.114 0.323 1.669 0.176" stroke="hsl(0.0,100%,35%)" stroke-width="0.00016"></path>
<path d="M1.926 0.572 Q2.026 0.422 1.756 0.340" stroke="hsl(0.0,100%,35%)" stroke-width="0.00126"></path>
<path d="M1.926 0.572 Q2.001 0.516 1.908 0.467" stroke="hsl(0.0,100%,35%)" stroke-width="0.00063"></path>
<path d="M1.926 0.572 Q1.828 0.147 0.976 0.101" stroke="hsl(0.0,100%,35%)" stroke-width="0.00016"></path>
<path d="M1.925 0.225 Q1.748 0.249 1.756 0.340" stroke="hsl(0.0,100%,35%)" stroke-width="0.00772"></path>
<path d="M1.925 0.225 Q1.536 0.109 1.226 0.273" stroke="hsl(0.0,100%,35%)" stroke-width="0.00079"></path>
<path d="M1.925 0.225 Q1.338 0.216 1.193 0.500" stroke="hsl(0.0,100%,35%)" stroke-width="0.00032"></path>
<path d="M1.925 0.225 Q1.723 0.343 1.908 0.467" stroke="hsl(0.0,100%,35%)" stroke-width="0.00016"></path>
<path d="M1.925 0.225 Q1.538 0.291 1.582 0.495" stroke="hsl(0.0,100%,35%)" stroke-width="0.00016"></path>
<path d="M0.519 0.396 Q1.182 0.616 1.756 0.340" stroke="hsl(180.0,100%,35%)" stroke-width="0.00016"></path>
<path d="M0.519 0.396 Q0.841 0.242 0.610 0.051" stroke="hsl(180.0,100%,35%)" stroke-width="0.00016"></path>
<path d="M0.519 0.396 Q0.305 0.459 0.380 0.577" stroke="hsl(180.0,100%,35%)" stroke-width="0.00047"></path>
<path d="M0.519 0.396 Q1.157 0.710 1.908 0.467" stroke="hsl(180.0,100%,35%)" stroke-width="0.00016"></path>
<path d="M0.519 0.396 Q0.626 0.426 0.706 0.380" stroke="hsl(180.0,100%,35%)" stroke-width="0.00173"></path>
<path d="M0.519 0.396 Q1.127 0.422 1.310 0.131" stroke="hsl(180.0,100%,35%)" stroke-width="0.00016"></path>
<path d="M0.824 0.799 Q0.779 0.599 0.380 0.577" stroke="hsl(0.0,100%,35%)" stroke-width="0.00362"></path>
<path d="M0.824 0.799 Q1.744 0.657 1.669 0.176" stroke="hsl(0.0,100%,35%)" stroke-width="0.00016"></path>
<path d="M0.824 0.799 Q0.755 0.899 0.935 0.955" stroke="hsl(0.0,100%,35%)" stroke-width="0.00583"></path>
<path d="M0.824 0.799 Q1.318 0.736 1.305 0.481" stroke="hsl(0.0,100%,35%)" stroke-width="0.00016"></path>
<path d="M0.824 0.799 Q1.657 0.756 1.756 0.340" stroke="hsl(0.0,100%,35%)" stroke-width="0.00032"></path>
<path d="M0.624 0.573 Q0.498 0.526 0.380 0.577" stroke="hsl(0.0,100%,35%)" stroke-width="0.00457"></path>
<path d="M0.624 0.573 Q0.635 0.399 0.299 0.356" stroke="hsl(0.0,100%,35%)" stroke-width="0.00047"></path>
<path d="M0.624 0.573 Q0.449 0.448 0.168 0.507" stroke="hsl(0.0,100%,35%)" stroke-width="0.00032"></path>
<path d="M0.624 0.573 Q1.035 0.309 0.610 0.051" stroke="hsl(0.0,100%,35%)" stroke-width="0.00063"></path>
<path d="M0.624 0.573 Q0.474 0.826 0.935 0.955" stroke="hsl(0.0,100%,35%)" stroke-width="0.00016"></path>
<path d="M0.624 0.573 Q0.604 0.330 0.127 0.287" stroke="hsl(0.0,100%,35%)" stroke-width="0.00032"></path>
<path d="M0.624 0.573 Q0.481 0.383 0.079 0.411" stroke="hsl(0.0,100%,35%)" stroke-width="0.00016"></path>
<path d="M0.624 0.573 Q1.351 0.777 1.908 0.467" stroke="hsl(0.0,100%,35%)" stroke-width="0.00079"></path>
<path d="M0.624 0.573 Q0.413 0.570 0.362 0.673" stroke="hsl(0.0,100%,35%)" stroke-width="0.00032"></path>
<path d="M0.624 0.573 Q0.469 0.641 0.569 0.732" stroke="hsl(0.0,100%,35%)" stroke-width="0.00016"></path>
<path d="M0.624 0.573 Q1.376 0.683 1.756 0.340" stroke="hsl(0.0,100%,35%)" stroke-width="0.00032"></path>
<path d="M0.624 0.573 Q1.534 0.554 1.697 0.106" stroke="hsl(0.0,100%,35%)" stroke-width="0.00032"></path>
<path d="M0.127 0.287 Q0.147 0.529 0.624 0.573" stroke="hsl(0.0,100%,35%)" stroke-width="0.00095"></path>
<path d="M0.127 0.287 Q0.004 0.339 0.079 0.411" stroke="hsl(0.0,100%,35%)" stroke-width="0.00173"></path>
<path d="M0.127 0.287 Q0.587 0.417 0.942 0.221" stroke="hsl(0.0,100%,35%)" stroke-width="0.00016"></path>
<path d="M0.127 0.287 Q-0.008 0.598 0.569 0.732" stroke="hsl(0.0,100%,35%)" stroke-width="0.00032"></path>
<path d="M0.127 0.287 Q0.798 0.789 1.926 0.572" stroke="hsl(0.0,100%,35%)" stroke-width="0.00016"></path>
<path d="M0.127 0.287 Q0.021 0.483 0.380 0.577" stroke="hsl(0.0,100%,35%)" stroke-width="0.00016"></path>
<path d="M0.362 0.673 Q0.584 0.502 0.299 0.356" stroke="hsl(0.0,100%,35%)" stroke-width="0.00016"></path>
<path d="M0.362 0.673 Q0.447 0.629 0.380 0.577" stroke="hsl(0.0,100%,35%)" stroke-width="0.00032"></path>
<path d="M0.362 0.673 Q0.418 0.744 0.569 0.732" stroke="hsl(0.0,100%,35%)" stroke-width="0.00016"></path>
<path d="M0.362 0.673 Q0.398 0.551 0.168 0.507" stroke="hsl(0.0,100%,35%)" stroke-width="0.00032"></path>
<path d="M0.362 0.673 Q1.014 0.563 0.942 0.221" stroke="hsl(0.0,100%,35%)" stroke-width="0.00016"></path>
<path d="M0.788 0.448 Q1.358 0.588 1.756 0.340" stroke="hsl(180.0,100%,35%)" stroke-width="0.00016"></path>
<path d="M0.788 0.448 Q1.160 0.312 0.976 0.101" stroke="hsl(180.0,100%,35%)" stroke-width="0.00032"></path>
<path d="M0.788 0.448 Q1.017 0.214 0.610 0.051" stroke="hsl(180.0,100%,35%)" stroke-width="0.00016"></path>
<path d="M0.788 0.448 Q0.801 0.398 0.706 0.380" stroke="hsl(180.0,100%,35%)" stroke-width="0.00047"></path>
<path d="M0.788 0.448 Q1.303 0.394 1.310 0.131" stroke="hsl(180.0,100%,35%)" stroke-width="0.00016"></path>
<path d="M1.560 0.244 Q0.957 0.370 1.072 0.692" stroke="hsl(0.0,100%,35%)" stroke-width="0.00016"></path>
<path d="M1.560 0.244 Q0.703 0.174 0.380 0.577" stroke="hsl(0.0,100%,35%)" stroke-width="0.00016"></path>
<path d="M1.560 0.244 Q1.580 0.331 1.756 0.340" stroke="hsl(0.0,100%,35%)" stroke-width="0.00016"></path>
<path d="M0.778 0.627 Q0.873 0.719 1.072 0.692" stroke="hsl(0.0,100%,35%)" stroke-width="0.00016"></path>
<path d="M0.778 0.627 Q0.619 0.523 0.380 0.577" stroke="hsl(0.0,100%,35%)" stroke-width="0.00047"></path>
<path d="M0.778 0.627 Q1.396 0.829 1.926 0.572" stroke="hsl(0.0,100%,35%)" stroke-width="0.00016"></path>
<path d="M0.953 0.382 Q1.189 0.246 0.976 0.101" stroke="hsl(180.0,100%,35%)" stroke-width="0.00284"></path>
<path d="M0.953 0.382 Q0.831 0.332 0.706 0.380" stroke="hsl(180.0,100%,35%)" stroke-width="0.00205"></path>
<path d="M0.953 0.382 Q1.046 0.148 0.610 0.051" stroke="hsl(180.0,100%,35%)" stroke-width="0.00016"></path>
<path d="M0.953 0.382 Q0.901 0.103 0.346 0.067" stroke="hsl(180.0,100%,35%)" stroke-width="0.00079"></path>
<path d="M0.688 0.167 Q0.206 0.311 0.380 0.577" stroke="hsl(180.0,100%,35%)" stroke-width="0.00016"></path>
<path d="M0.688 0.167 Q0.742 0.093 0.610 0.051" stroke="hsl(180.0,100%,35%)" stroke-width="0.00032"></path>
<path d="M0.688 0.167 Q0.885 0.192 0.976 0.101" stroke="hsl(180.0,100%,35%)" stroke-width="0.00032"></path>
<path d="M1.507 0.198 Q0.616 0.462 0.935 0.955" stroke="hsl(0.0,100%,35%)" stroke-width="0.00079"></path>
<path d="M1.507 0.198 Q1.517 0.319 1.756 0.340" stroke="hsl(0.0,100%,35%)" stroke-width="0.00158"></path>
<path d="M1.507 0.198 Q1.605 0.220 1.669 0.176" stroke="hsl(0.0,100%,35%)" stroke-width="0.00142"></path>
<path d="M1.507 0.198 Q0.640 0.162 0.380 0.577" stroke="hsl(0.0,100%,35%)" stroke-width="0.00016"></path>
<path d="M1.507 0.198 Q0.961 0.129 0.706 0.380" stroke="hsl(0.0,100%,35%)" stroke-width="0.00016"></path>
<path d="M1.426 0.135 Q1.215 0.164 1.226 0.273" stroke="hsl(0.0,100%,35%)" stroke-width="0.00079"></path>
<path d="M1.426 0.135 Q1.427 0.304 1.756 0.340" stroke="hsl(0.0,100%,35%)" stroke-width="0.00016"></path>
<path d="M1.426 0.135 Q1.217 0.346 1.582 0.495" stroke="hsl(0.0,100%,35%)" stroke-width="0.00016"></path>
<path d="M0.926 0.365 Q0.804 0.329 0.706 0.380" stroke="hsl(180.0,100%,35%)" stroke-width="0.00063"></path>
<path d="M0.926 0.365 Q1.162 0.243 0.976 0.101" stroke="hsl(180.0,100%,35%)" stroke-width="0.00079"></path>
<path d="M0.926 0.365 Q1.360 0.519 1.756 0.340" stroke="hsl(180.0,100%,35%)" stroke-width="0.00047"></path>
<path d="M1.499 0.609 Q1.817 0.620 1.908 0.467" stroke="hsl(0.0,100%,35%)" stroke-width="0.00016"></path>
<path d="M1.499 0.609 Q1.842 0.526 1.756 0.340" stroke="hsl(0.0,100%,35%)" stroke-width="0.00032"></path>
<path d="M1.499 0.609 Q1.632 0.569 1.582 0.495" stroke="hsl(0.0,100%,35%)" stroke-width="0.00032"></path>
<path d="M1.265 0.032 Q0.922 -0.090 0.610 0.051" stroke="hsl(180.0,100%,35%)" stroke-width="0.00079"></path>
<path d="M1.265 0.032 Q1.263 0.284 1.756 0.340" stroke="hsl(180.0,100%,35%)" stroke-width="0.00047"></path>
<path d="M1.265 0.032 Q1.065 0.009 0.976 0.101" stroke="hsl(180.0,100%,35%)" stroke-width="0.00158"></path>
<path d="M1.265 0.032 Q1.053 0.327 1.582 0.495" stroke="hsl(180.0,100%,35%)" stroke-width="0.00016"></path>
<path d="M1.265 0.032 Q0.386 0.128 0.380 0.577" stroke="hsl(180.0,100%,35%)" stroke-width="0.00047"></path>
<path d="M1.265 0.032 Q0.707 0.094 0.706 0.380" stroke="hsl(180.0,100%,35%)" stroke-width="0.00095"></path>
<path d="M1.265 0.032 Q0.778 -0.134 0.346 0.067" stroke="hsl(180.0,100%,35%)" stroke-width="0.00016"></path>
</g>
<text x="1.678" y="0.589" font-size="0.043788" fill="hsl(0.0,100%,20%)">armansito</text>
<text x="0.976" y="0.072" font-size="0.058287" fill="hsl(180.0,100%,20%)">michaelludwig</text>
<text x="1.908" y="0.427" font-size="0.079855" fill="hsl(0.0,100%,20%)">johnstiles</text>
<text x="0.610" y="0.024" font-size="0.053696" fill="hsl(180.0,100%,20%)">jvanverth</text>
<text x="1.756" y="0.303" font-size="0.074468" fill="hsl(0.0,100%,20%)">brianosman</text>
<text x="0.380" y="0.543" font-size="0.067991" fill="hsl(0.0,100%,20%)">kjlubick</text>
<text x="0.299" y="0.343" font-size="0.026397" fill="hsl(0.0,100%,20%)">lovisolo</text>
<text x="0.706" y="0.362" font-size="0.036087" fill="hsl(180.0,100%,20%)">egdaniel</text>
<text x="1.582" y="0.473" font-size="0.043457" fill="hsl(180.0,100%,20%)">herb</text>
<text x="0.346" y="0.049" font-size="0.035347" fill="hsl(180.0,100%,20%)">nicolettep</text>
<text x="1.310" y="0.115" font-size="0.031156" fill="hsl(180.0,100%,20%)">jamesgk</text>
<text x="1.553" y="0.702" font-size="0.004384" fill="hsl(0.0,100%,20%)">ayzhao</text>
<text x="1.278" y="0.334" font-size="0.004384" fill="hsl(180.0,100%,20%)">blundell</text>
<text x="0.942" y="0.194" font-size="0.053382" fill="hsl(180.0,100%,20%)">robertphillips</text>
<text x="0.935" y="0.935" font-size="0.039458" fill="hsl(0.0,100%,20%)">bungeman</text>
<text x="1.178" y="0.384" font-size="0.015655" fill="hsl(0.0,100%,20%)">nscobie</text>
<text x="1.072" y="0.684" font-size="0.017399" fill="hsl(0.0,100%,20%)">jlavrova</text>
<text x="1.697" y="0.096" font-size="0.020796" fill="hsl(0.0,100%,20%)">jmbetancourt</text>
<text x="1.669" y="0.163" font-size="0.026397" fill="hsl(0.0,100%,20%)">fmalita</text>
<text x="1.193" y="0.496" font-size="0.008768" fill="hsl(0.0,100%,20%)">jreck</text>
<text x="1.226" y="0.264" font-size="0.019236" fill="hsl(0.0,100%,20%)">scroggo</text>
<text x="0.168" y="0.501" font-size="0.011805" fill="hsl(0.0,100%,20%)">jcgregorio</text>
<text x="1.926" y="0.566" font-size="0.012782" fill="hsl(0.0,100%,20%)">bsalomon</text>
<text x="1.925" y="0.216" font-size="0.017537" fill="hsl(0.0,100%,20%)">ccameron</text>
<text x="0.519" y="0.392" font-size="0.009300" fill="hsl(180.0,100%,20%)">briansalomon</text>
<text x="0.824" y="0.789" font-size="0.019236" fill="hsl(0.0,100%,20%)">drott</text>
<text x="0.624" y="0.563" font-size="0.019236" fill="hsl(0.0,100%,20%)">cmumford</text>
<text x="0.127" y="0.282" font-size="0.010739" fill="hsl(0.0,100%,20%)">sharaks</text>
<text x="0.079" y="0.407" font-size="0.008202" fill="hsl(0.0,100%,20%)">hcm</text>
<text x="0.362" y="0.668" font-size="0.010739" fill="hsl(0.0,100%,20%)">rmistry</text>
<text x="0.569" y="0.726" font-size="0.011600" fill="hsl(180.0,100%,20%)">borenet</text>
<text x="1.305" y="0.478" font-size="0.006200" fill="hsl(0.0,100%,20%)">djsollen</text>
<text x="0.788" y="0.445" font-size="0.006200" fill="hsl(180.0,100%,20%)">hitawala</text>
<text x="1.560" y="0.242" font-size="0.003797" fill="hsl(0.0,100%,20%)">jacksongardner</text>
<text x="0.778" y="0.625" font-size="0.004902" fill="hsl(0.0,100%,20%)">jsimmons</text>
<text x="0.137" y="0.716" font-size="0.003797" fill="hsl(0.0,100%,20%)">tdenniston</text>
<text x="0.953" y="0.375" font-size="0.013334" fill="hsl(180.0,100%,20%)">lehoangquyen</text>
<text x="0.688" y="0.165" font-size="0.004902" fill="hsl(180.0,100%,20%)">lokokung</text>
<text x="1.507" y="0.192" font-size="0.011178" fill="hsl(0.0,100%,20%)">mike</text>
<text x="1.426" y="0.132" font-size="0.005800" fill="hsl(0.0,100%,20%)">nigeltao</text>
<text x="0.926" y="0.361" font-size="0.007594" fill="hsl(180.0,100%,20%)">penghuang</text>
<text x="1.499" y="0.607" font-size="0.004902" fill="hsl(0.0,100%,20%)">sky</text>
<text x="1.265" y="0.026" font-size="0.011805" fill="hsl(180.0,100%,20%)">sunnyps</text>
</svg>
