<svg width="4000" height="2000" viewBox="-0.025 -0.025 2.05 1.05" xmlns="http://www.w3.org/2000/svg">
  <style>
    path {
      fill: none;
      stroke-linecap: round;
      stroke-opacity: 0.4;
    }

    text {
      text-anchor: middle;
      alignment-baseline: hanging;
    }
  </style>
  <g opacity="0.4">
<path d="M0.317 0.794 Q0.658 1.000 1.134 0.878" stroke="hsl(0.0,100%,35%)" stroke-width="0.00171"></path>
<path d="M0.317 0.794 Q0.418 0.884 0.616 0.855" stroke="hsl(0.0,100%,35%)" stroke-width="0.00931"></path>
<path d="M0.317 0.794 Q0.555 1.054 1.113 0.995" stroke="hsl(0.0,100%,35%)" stroke-width="0.00047"></path>
<path d="M0.317 0.794 Q1.294 0.573 1.077 0.048" stroke="hsl(0.0,100%,35%)" stroke-width="0.00062"></path>
<path d="M0.317 0.794 Q1.336 0.665 1.306 0.139" stroke="hsl(0.0,100%,35%)" stroke-width="0.00031"></path>
<path d="M0.317 0.794 Q0.756 0.555 0.386 0.288" stroke="hsl(0.0,100%,35%)" stroke-width="0.00031"></path>
<path d="M0.317 0.794 Q0.616 0.748 0.592 0.592" stroke="hsl(0.0,100%,35%)" stroke-width="0.00047"></path>
<path d="M0.317 0.794 Q0.936 0.980 1.434 0.719" stroke="hsl(0.0,100%,35%)" stroke-width="0.00016"></path>
<path d="M0.317 0.794 Q0.498 0.546 0.054 0.404" stroke="hsl(0.0,100%,35%)" stroke-width="0.00016"></path>
<path d="M0.317 0.794 Q1.284 0.918 1.738 0.473" stroke="hsl(0.0,100%,35%)" stroke-width="0.00031"></path>
<path d="M0.317 0.794 Q0.830 0.923 1.193 0.701" stroke="hsl(0.0,100%,35%)" stroke-width="0.00016"></path>
<path d="M0.317 0.794 Q0.622 0.867 0.831 0.734" stroke="hsl(0.0,100%,35%)" stroke-width="0.00016"></path>
<path d="M0.317 0.794 Q0.408 0.738 0.318 0.681" stroke="hsl(0.0,100%,35%)" stroke-width="0.00031"></path>
<path d="M1.134 0.878 Q0.884 0.616 0.318 0.681" stroke="hsl(0.0,100%,35%)" stroke-width="0.00590"></path>
<path d="M1.134 0.878 Q0.974 0.425 0.054 0.404" stroke="hsl(0.0,100%,35%)" stroke-width="0.00559"></path>
<path d="M1.134 0.878 Q1.098 0.746 0.831 0.734" stroke="hsl(0.0,100%,35%)" stroke-width="0.00047"></path>
<path d="M1.134 0.878 Q0.900 0.861 0.816 0.972" stroke="hsl(0.0,100%,35%)" stroke-width="0.00792"></path>
<path d="M1.134 0.878 Q1.127 0.386 0.165 0.282" stroke="hsl(0.0,100%,35%)" stroke-width="0.00124"></path>
<path d="M1.134 0.878 Q0.894 0.763 0.616 0.855" stroke="hsl(0.0,100%,35%)" stroke-width="0.00698"></path>
<path d="M1.134 0.878 Q1.637 0.532 1.072 0.211" stroke="hsl(0.0,100%,35%)" stroke-width="0.00016"></path>
<path d="M1.134 0.878 Q1.446 0.658 1.085 0.458" stroke="hsl(0.0,100%,35%)" stroke-width="0.00031"></path>
<path d="M1.134 0.878 Q1.306 0.801 1.193 0.701" stroke="hsl(0.0,100%,35%)" stroke-width="0.00031"></path>
<path d="M1.134 0.878 Q1.030 0.932 1.113 0.995" stroke="hsl(0.0,100%,35%)" stroke-width="0.00124"></path>
<path d="M1.134 0.878 Q1.092 0.627 0.592 0.592" stroke="hsl(0.0,100%,35%)" stroke-width="0.00279"></path>
<path d="M1.134 0.878 Q1.334 0.338 0.322 0.122" stroke="hsl(0.0,100%,35%)" stroke-width="0.00047"></path>
<path d="M1.134 0.878 Q1.411 0.859 1.434 0.719" stroke="hsl(0.0,100%,35%)" stroke-width="0.00031"></path>
<path d="M1.134 0.878 Q0.793 0.673 0.317 0.794" stroke="hsl(0.0,100%,35%)" stroke-width="0.00062"></path>
<path d="M1.134 0.878 Q1.741 0.596 1.323 0.237" stroke="hsl(0.0,100%,35%)" stroke-width="0.00016"></path>
<path d="M1.134 0.878 Q1.629 0.790 1.565 0.528" stroke="hsl(0.0,100%,35%)" stroke-width="0.00031"></path>
<path d="M1.134 0.878 Q1.232 0.434 0.386 0.288" stroke="hsl(0.0,100%,35%)" stroke-width="0.00031"></path>
<path d="M1.134 0.878 Q1.812 0.543 1.306 0.139" stroke="hsl(0.0,100%,35%)" stroke-width="0.00016"></path>
<path d="M0.616 0.855 Q0.814 0.719 0.592 0.592" stroke="hsl(0.0,100%,35%)" stroke-width="0.00295"></path>
<path d="M0.616 0.855 Q0.622 0.953 0.816 0.972" stroke="hsl(0.0,100%,35%)" stroke-width="0.01754"></path>
<path d="M0.616 0.855 Q1.534 0.635 1.306 0.139" stroke="hsl(0.0,100%,35%)" stroke-width="0.00109"></path>
<path d="M0.616 0.855 Q0.696 0.517 0.054 0.404" stroke="hsl(0.0,100%,35%)" stroke-width="0.00171"></path>
<path d="M0.616 0.855 Q0.606 0.708 0.318 0.681" stroke="hsl(0.0,100%,35%)" stroke-width="0.00466"></path>
<path d="M0.616 0.855 Q0.752 1.024 1.113 0.995" stroke="hsl(0.0,100%,35%)" stroke-width="0.00140"></path>
<path d="M0.616 0.855 Q0.856 0.970 1.134 0.878" stroke="hsl(0.0,100%,35%)" stroke-width="0.00450"></path>
<path d="M0.616 0.855 Q1.482 0.888 1.738 0.473" stroke="hsl(0.0,100%,35%)" stroke-width="0.00031"></path>
<path d="M0.616 0.855 Q0.848 0.478 0.165 0.282" stroke="hsl(0.0,100%,35%)" stroke-width="0.00016"></path>
<path d="M0.616 0.855 Q1.606 0.824 1.763 0.334" stroke="hsl(0.0,100%,35%)" stroke-width="0.00062"></path>
<path d="M0.616 0.855 Q1.095 0.825 1.143 0.585" stroke="hsl(0.0,100%,35%)" stroke-width="0.00016"></path>
<path d="M0.616 0.855 Q0.820 0.837 0.831 0.734" stroke="hsl(0.0,100%,35%)" stroke-width="0.00031"></path>
<path d="M0.616 0.855 Q1.133 0.950 1.434 0.719" stroke="hsl(0.0,100%,35%)" stroke-width="0.00031"></path>
<path d="M0.616 0.855 Q0.515 0.765 0.317 0.794" stroke="hsl(0.0,100%,35%)" stroke-width="0.00109"></path>
<path d="M0.616 0.855 Q1.755 0.697 1.697 0.107" stroke="hsl(0.0,100%,35%)" stroke-width="0.00016"></path>
<path d="M1.113 0.995 Q0.967 0.679 0.318 0.681" stroke="hsl(0.0,100%,35%)" stroke-width="0.00807"></path>
<path d="M1.113 0.995 Q1.175 0.689 0.592 0.592" stroke="hsl(0.0,100%,35%)" stroke-width="0.00248"></path>
<path d="M1.113 0.995 Q0.983 0.924 0.816 0.972" stroke="hsl(0.0,100%,35%)" stroke-width="0.01024"></path>
<path d="M1.113 0.995 Q1.962 0.701 1.575 0.222" stroke="hsl(0.0,100%,35%)" stroke-width="0.00016"></path>
<path d="M1.113 0.995 Q0.977 0.825 0.616 0.855" stroke="hsl(0.0,100%,35%)" stroke-width="0.00636"></path>
<path d="M1.113 0.995 Q1.056 0.487 0.054 0.404" stroke="hsl(0.0,100%,35%)" stroke-width="0.00373"></path>
<path d="M1.113 0.995 Q1.388 0.864 1.193 0.701" stroke="hsl(0.0,100%,35%)" stroke-width="0.00078"></path>
<path d="M1.113 0.995 Q1.217 0.941 1.134 0.878" stroke="hsl(0.0,100%,35%)" stroke-width="0.01350"></path>
<path d="M1.113 0.995 Q1.209 0.449 0.165 0.282" stroke="hsl(0.0,100%,35%)" stroke-width="0.00264"></path>
<path d="M1.113 0.995 Q1.180 0.808 0.831 0.734" stroke="hsl(0.0,100%,35%)" stroke-width="0.00016"></path>
<path d="M1.113 0.995 Q1.273 0.987 1.294 0.908" stroke="hsl(0.0,100%,35%)" stroke-width="0.00031"></path>
<path d="M1.113 0.995 Q1.597 0.549 0.834 0.214" stroke="hsl(0.0,100%,35%)" stroke-width="0.00016"></path>
<path d="M1.113 0.995 Q1.843 0.859 1.738 0.473" stroke="hsl(0.0,100%,35%)" stroke-width="0.00109"></path>
<path d="M1.113 0.995 Q0.875 0.735 0.317 0.794" stroke="hsl(0.0,100%,35%)" stroke-width="0.00233"></path>
<path d="M1.113 0.995 Q1.494 0.921 1.434 0.719" stroke="hsl(0.0,100%,35%)" stroke-width="0.00047"></path>
<path d="M1.113 0.995 Q1.782 0.713 1.380 0.325" stroke="hsl(0.0,100%,35%)" stroke-width="0.00140"></path>
<path d="M1.113 0.995 Q1.435 0.689 0.910 0.465" stroke="hsl(0.0,100%,35%)" stroke-width="0.00016"></path>
<path d="M1.113 0.995 Q1.315 0.496 0.386 0.288" stroke="hsl(0.0,100%,35%)" stroke-width="0.00016"></path>
<path d="M1.113 0.995 Q1.894 0.606 1.306 0.139" stroke="hsl(0.0,100%,35%)" stroke-width="0.00016"></path>
<path d="M1.077 0.048 Q1.067 0.393 1.738 0.473" stroke="hsl(120.0,100%,35%)" stroke-width="0.00078"></path>
<path d="M1.077 0.048 Q0.822 0.082 0.834 0.214" stroke="hsl(120.0,100%,35%)" stroke-width="0.00186"></path>
<path d="M1.077 0.048 Q0.903 0.320 1.395 0.464" stroke="hsl(120.0,100%,35%)" stroke-width="0.00016"></path>
<path d="M1.077 0.048 Q0.281 0.021 0.054 0.404" stroke="hsl(120.0,100%,35%)" stroke-width="0.00016"></path>
<path d="M1.077 0.048 Q0.201 0.359 0.616 0.855" stroke="hsl(120.0,100%,35%)" stroke-width="0.00109"></path>
<path d="M1.077 0.048 Q1.119 0.139 1.306 0.139" stroke="hsl(120.0,100%,35%)" stroke-width="0.00326"></path>
<path d="M1.077 0.048 Q0.944 0.129 1.072 0.211" stroke="hsl(120.0,100%,35%)" stroke-width="0.00016"></path>
<path d="M1.077 0.048 Q0.405 0.342 0.831 0.734" stroke="hsl(120.0,100%,35%)" stroke-width="0.00016"></path>
<path d="M1.077 0.048 Q0.337 0.528 1.113 0.995" stroke="hsl(120.0,100%,35%)" stroke-width="0.00047"></path>
<path d="M1.306 0.139 Q1.264 0.048 1.077 0.048" stroke="hsl(120.0,100%,35%)" stroke-width="0.00388"></path>
<path d="M1.306 0.139 Q1.009 0.082 0.834 0.214" stroke="hsl(120.0,100%,35%)" stroke-width="0.00047"></path>
<path d="M1.306 0.139 Q0.621 -0.018 0.165 0.282" stroke="hsl(120.0,100%,35%)" stroke-width="0.00031"></path>
<path d="M1.306 0.139 Q1.051 0.157 1.029 0.285" stroke="hsl(120.0,100%,35%)" stroke-width="0.00031"></path>
<path d="M1.306 0.139 Q0.395 0.457 0.816 0.972" stroke="hsl(120.0,100%,35%)" stroke-width="0.00016"></path>
<path d="M1.306 0.139 Q0.847 0.223 0.910 0.465" stroke="hsl(120.0,100%,35%)" stroke-width="0.00016"></path>
<path d="M1.306 0.139 Q0.828 -0.067 0.322 0.122" stroke="hsl(120.0,100%,35%)" stroke-width="0.00016"></path>
<path d="M1.306 0.139 Q0.628 0.474 1.134 0.878" stroke="hsl(120.0,100%,35%)" stroke-width="0.00016"></path>
<path d="M1.306 0.139 Q0.378 0.212 0.318 0.681" stroke="hsl(120.0,100%,35%)" stroke-width="0.00016"></path>
<path d="M1.306 0.139 Q1.254 0.392 1.738 0.473" stroke="hsl(120.0,100%,35%)" stroke-width="0.00031"></path>
<path d="M1.306 0.139 Q1.527 0.201 1.697 0.107" stroke="hsl(120.0,100%,35%)" stroke-width="0.00093"></path>
<path d="M0.386 0.288 Q0.128 0.280 0.054 0.404" stroke="hsl(240.0,100%,35%)" stroke-width="0.00419"></path>
<path d="M0.386 0.288 Q0.565 0.713 1.434 0.719" stroke="hsl(240.0,100%,35%)" stroke-width="0.00109"></path>
<path d="M0.386 0.288 Q0.288 0.733 1.134 0.878" stroke="hsl(240.0,100%,35%)" stroke-width="0.00016"></path>
<path d="M0.386 0.288 Q0.184 0.787 1.113 0.995" stroke="hsl(240.0,100%,35%)" stroke-width="0.00016"></path>
<path d="M0.386 0.288 Q0.966 0.398 1.306 0.139" stroke="hsl(240.0,100%,35%)" stroke-width="0.00171"></path>
<path d="M0.386 0.288 Q1.038 0.587 1.763 0.334" stroke="hsl(240.0,100%,35%)" stroke-width="0.00016"></path>
<path d="M0.386 0.288 Q1.187 0.460 1.697 0.107" stroke="hsl(240.0,100%,35%)" stroke-width="0.00016"></path>
<path d="M0.386 0.288 Q0.246 0.482 0.592 0.592" stroke="hsl(240.0,100%,35%)" stroke-width="0.00016"></path>
<path d="M0.386 0.288 Q-0.053 0.528 0.317 0.794" stroke="hsl(240.0,100%,35%)" stroke-width="0.00047"></path>
<path d="M0.386 0.288 Q0.459 0.656 1.193 0.701" stroke="hsl(240.0,100%,35%)" stroke-width="0.00047"></path>
<path d="M0.592 0.592 Q0.384 0.581 0.318 0.681" stroke="hsl(0.0,100%,35%)" stroke-width="0.01273"></path>
<path d="M0.592 0.592 Q0.400 0.827 0.816 0.972" stroke="hsl(0.0,100%,35%)" stroke-width="0.00357"></path>
<path d="M0.592 0.592 Q0.627 0.352 0.165 0.282" stroke="hsl(0.0,100%,35%)" stroke-width="0.00202"></path>
<path d="M0.592 0.592 Q0.394 0.728 0.616 0.855" stroke="hsl(0.0,100%,35%)" stroke-width="0.00373"></path>
<path d="M0.592 0.592 Q1.260 0.762 1.738 0.473" stroke="hsl(0.0,100%,35%)" stroke-width="0.00031"></path>
<path d="M0.592 0.592 Q0.474 0.390 0.054 0.404" stroke="hsl(0.0,100%,35%)" stroke-width="0.00357"></path>
<path d="M0.592 0.592 Q0.530 0.898 1.113 0.995" stroke="hsl(0.0,100%,35%)" stroke-width="0.00062"></path>
<path d="M0.592 0.592 Q0.834 0.303 0.322 0.122" stroke="hsl(0.0,100%,35%)" stroke-width="0.00016"></path>
<path d="M0.592 0.592 Q0.634 0.844 1.134 0.878" stroke="hsl(0.0,100%,35%)" stroke-width="0.00279"></path>
<path d="M0.592 0.592 Q1.056 0.526 1.029 0.285" stroke="hsl(0.0,100%,35%)" stroke-width="0.00016"></path>
<path d="M0.592 0.592 Q0.598 0.711 0.831 0.734" stroke="hsl(0.0,100%,35%)" stroke-width="0.00016"></path>
<path d="M0.592 0.592 Q0.293 0.638 0.317 0.794" stroke="hsl(0.0,100%,35%)" stroke-width="0.00047"></path>
<path d="M0.592 0.592 Q1.312 0.508 1.306 0.139" stroke="hsl(0.0,100%,35%)" stroke-width="0.00016"></path>
<path d="M0.592 0.592 Q0.911 0.824 1.434 0.719" stroke="hsl(0.0,100%,35%)" stroke-width="0.00016"></path>
<path d="M0.592 0.592 Q1.533 0.571 1.697 0.107" stroke="hsl(0.0,100%,35%)" stroke-width="0.00016"></path>
<path d="M0.592 0.592 Q0.853 0.592 0.910 0.465" stroke="hsl(0.0,100%,35%)" stroke-width="0.00016"></path>
<path d="M1.434 0.719 Q1.660 0.393 1.072 0.211" stroke="hsl(120.0,100%,35%)" stroke-width="0.00016"></path>
<path d="M1.434 0.719 Q1.328 0.662 1.193 0.701" stroke="hsl(120.0,100%,35%)" stroke-width="0.00124"></path>
<path d="M1.434 0.719 Q1.906 0.592 1.763 0.334" stroke="hsl(120.0,100%,35%)" stroke-width="0.00388"></path>
<path d="M1.434 0.719 Q1.157 0.739 1.134 0.878" stroke="hsl(120.0,100%,35%)" stroke-width="0.00078"></path>
<path d="M1.434 0.719 Q1.593 0.708 1.607 0.629" stroke="hsl(120.0,100%,35%)" stroke-width="0.00016"></path>
<path d="M1.434 0.719 Q1.722 0.511 1.380 0.325" stroke="hsl(120.0,100%,35%)" stroke-width="0.00047"></path>
<path d="M1.434 0.719 Q0.996 0.285 0.054 0.404" stroke="hsl(120.0,100%,35%)" stroke-width="0.00217"></path>
<path d="M1.434 0.719 Q1.149 0.247 0.165 0.282" stroke="hsl(120.0,100%,35%)" stroke-width="0.00047"></path>
<path d="M1.434 0.719 Q0.923 0.722 0.816 0.972" stroke="hsl(120.0,100%,35%)" stroke-width="0.00031"></path>
<path d="M1.434 0.719 Q1.783 0.657 1.738 0.473" stroke="hsl(120.0,100%,35%)" stroke-width="0.00248"></path>
<path d="M1.434 0.719 Q1.120 0.606 0.831 0.734" stroke="hsl(120.0,100%,35%)" stroke-width="0.00078"></path>
<path d="M1.434 0.719 Q1.468 0.643 1.326 0.610" stroke="hsl(120.0,100%,35%)" stroke-width="0.00124"></path>
<path d="M1.434 0.719 Q1.590 0.808 1.798 0.751" stroke="hsl(120.0,100%,35%)" stroke-width="0.00016"></path>
<path d="M1.434 0.719 Q1.053 0.793 1.113 0.995" stroke="hsl(120.0,100%,35%)" stroke-width="0.00016"></path>
<path d="M1.434 0.719 Q1.396 0.594 1.143 0.585" stroke="hsl(120.0,100%,35%)" stroke-width="0.00186"></path>
<path d="M1.434 0.719 Q1.469 0.519 1.085 0.458" stroke="hsl(120.0,100%,35%)" stroke-width="0.00016"></path>
<path d="M1.434 0.719 Q1.255 0.294 0.386 0.288" stroke="hsl(120.0,100%,35%)" stroke-width="0.00047"></path>
<path d="M0.054 0.404 Q0.207 0.365 0.165 0.282" stroke="hsl(240.0,100%,35%)" stroke-width="0.02188"></path>
<path d="M0.054 0.404 Q0.386 0.780 1.193 0.701" stroke="hsl(240.0,100%,35%)" stroke-width="0.00202"></path>
<path d="M0.054 0.404 Q0.178 0.724 0.831 0.734" stroke="hsl(240.0,100%,35%)" stroke-width="0.00031"></path>
<path d="M0.054 0.404 Q-0.020 0.840 0.816 0.972" stroke="hsl(240.0,100%,35%)" stroke-width="0.00698"></path>
<path d="M0.054 0.404 Q-0.036 0.595 0.318 0.681" stroke="hsl(240.0,100%,35%)" stroke-width="0.00140"></path>
<path d="M0.054 0.404 Q0.214 0.857 1.134 0.878" stroke="hsl(240.0,100%,35%)" stroke-width="0.01164"></path>
<path d="M0.054 0.404 Q0.595 0.465 0.834 0.214" stroke="hsl(240.0,100%,35%)" stroke-width="0.00078"></path>
<path d="M0.054 0.404 Q0.717 0.511 1.072 0.211" stroke="hsl(240.0,100%,35%)" stroke-width="0.00031"></path>
<path d="M0.054 0.404 Q0.527 0.637 1.085 0.458" stroke="hsl(240.0,100%,35%)" stroke-width="0.00124"></path>
<path d="M0.054 0.404 Q0.840 0.775 1.738 0.473" stroke="hsl(240.0,100%,35%)" stroke-width="0.00248"></path>
<path d="M0.054 0.404 Q0.433 0.606 0.910 0.465" stroke="hsl(240.0,100%,35%)" stroke-width="0.00031"></path>
<path d="M0.054 0.404 Q-0.026 0.741 0.616 0.855" stroke="hsl(240.0,100%,35%)" stroke-width="0.00124"></path>
<path d="M0.054 0.404 Q0.414 0.316 0.322 0.122" stroke="hsl(240.0,100%,35%)" stroke-width="0.00435"></path>
<path d="M0.054 0.404 Q0.453 0.712 1.143 0.585" stroke="hsl(240.0,100%,35%)" stroke-width="0.00016"></path>
<path d="M0.054 0.404 Q0.850 0.430 1.077 0.048" stroke="hsl(240.0,100%,35%)" stroke-width="0.00031"></path>
<path d="M0.054 0.404 Q0.110 0.911 1.113 0.995" stroke="hsl(240.0,100%,35%)" stroke-width="0.00078"></path>
<path d="M0.054 0.404 Q0.172 0.606 0.592 0.592" stroke="hsl(240.0,100%,35%)" stroke-width="0.00047"></path>
<path d="M0.054 0.404 Q0.892 0.522 1.306 0.139" stroke="hsl(240.0,100%,35%)" stroke-width="0.00109"></path>
<path d="M0.054 0.404 Q0.491 0.837 1.434 0.719" stroke="hsl(240.0,100%,35%)" stroke-width="0.00279"></path>
<path d="M0.054 0.404 Q0.964 0.711 1.763 0.334" stroke="hsl(240.0,100%,35%)" stroke-width="0.00078"></path>
<path d="M0.054 0.404 Q0.960 0.617 1.575 0.222" stroke="hsl(240.0,100%,35%)" stroke-width="0.00031"></path>
<path d="M0.054 0.404 Q0.312 0.412 0.386 0.288" stroke="hsl(240.0,100%,35%)" stroke-width="0.00248"></path>
<path d="M1.738 0.473 Q0.952 0.102 0.054 0.404" stroke="hsl(120.0,100%,35%)" stroke-width="0.00373"></path>
<path d="M1.738 0.473 Q1.075 0.422 0.831 0.734" stroke="hsl(120.0,100%,35%)" stroke-width="0.00481"></path>
<path d="M1.738 0.473 Q1.857 0.315 1.575 0.222" stroke="hsl(120.0,100%,35%)" stroke-width="0.00047"></path>
<path d="M1.738 0.473 Q1.862 0.409 1.763 0.334" stroke="hsl(120.0,100%,35%)" stroke-width="0.00047"></path>
<path d="M1.738 0.473 Q1.493 0.163 0.834 0.214" stroke="hsl(120.0,100%,35%)" stroke-width="0.00217"></path>
<path d="M1.738 0.473 Q1.607 0.466 1.565 0.528" stroke="hsl(120.0,100%,35%)" stroke-width="0.00295"></path>
<path d="M1.738 0.473 Q1.104 0.063 0.165 0.282" stroke="hsl(120.0,100%,35%)" stroke-width="0.00171"></path>
<path d="M1.738 0.473 Q1.789 0.220 1.306 0.139" stroke="hsl(120.0,100%,35%)" stroke-width="0.00279"></path>
<path d="M1.738 0.473 Q0.878 0.538 0.816 0.972" stroke="hsl(120.0,100%,35%)" stroke-width="0.00062"></path>
<path d="M1.738 0.473 Q0.872 0.440 0.616 0.855" stroke="hsl(120.0,100%,35%)" stroke-width="0.00062"></path>
<path d="M1.738 0.473 Q1.283 0.478 1.193 0.701" stroke="hsl(120.0,100%,35%)" stroke-width="0.00047"></path>
<path d="M1.738 0.473 Q1.573 0.400 1.395 0.464" stroke="hsl(120.0,100%,35%)" stroke-width="0.00404"></path>
<path d="M1.738 0.473 Q1.112 0.555 1.134 0.878" stroke="hsl(120.0,100%,35%)" stroke-width="0.00171"></path>
<path d="M1.738 0.473 Q1.748 0.128 1.077 0.048" stroke="hsl(120.0,100%,35%)" stroke-width="0.00217"></path>
<path d="M1.738 0.473 Q1.423 0.459 1.326 0.610" stroke="hsl(120.0,100%,35%)" stroke-width="0.00016"></path>
<path d="M1.738 0.473 Q0.862 0.293 0.318 0.681" stroke="hsl(120.0,100%,35%)" stroke-width="0.00062"></path>
<path d="M1.738 0.473 Q1.330 0.304 0.910 0.465" stroke="hsl(120.0,100%,35%)" stroke-width="0.00047"></path>
<path d="M1.738 0.473 Q1.534 0.238 1.029 0.285" stroke="hsl(120.0,100%,35%)" stroke-width="0.00031"></path>
<path d="M1.738 0.473 Q1.389 0.535 1.434 0.719" stroke="hsl(120.0,100%,35%)" stroke-width="0.00109"></path>
<path d="M1.738 0.473 Q1.008 0.609 1.113 0.995" stroke="hsl(120.0,100%,35%)" stroke-width="0.00016"></path>
<path d="M1.738 0.473 Q1.677 0.328 1.380 0.325" stroke="hsl(120.0,100%,35%)" stroke-width="0.00016"></path>
<path d="M1.738 0.473 Q1.424 0.335 1.085 0.458" stroke="hsl(120.0,100%,35%)" stroke-width="0.00016"></path>
<path d="M1.738 0.473 Q1.070 0.304 0.592 0.592" stroke="hsl(120.0,100%,35%)" stroke-width="0.00016"></path>
<path d="M1.738 0.473 Q1.351 0.410 1.143 0.585" stroke="hsl(120.0,100%,35%)" stroke-width="0.00031"></path>
<path d="M1.738 0.473 Q2.011 0.282 1.697 0.107" stroke="hsl(120.0,100%,35%)" stroke-width="0.00016"></path>
<path d="M1.193 0.701 Q0.781 0.662 0.616 0.855" stroke="hsl(120.0,100%,35%)" stroke-width="0.01211"></path>
<path d="M1.193 0.701 Q0.985 0.645 0.831 0.734" stroke="hsl(120.0,100%,35%)" stroke-width="0.00512"></path>
<path d="M1.193 0.701 Q0.771 0.516 0.318 0.681" stroke="hsl(120.0,100%,35%)" stroke-width="0.00031"></path>
<path d="M1.193 0.701 Q0.788 0.761 0.816 0.972" stroke="hsl(120.0,100%,35%)" stroke-width="0.00062"></path>
<path d="M1.193 0.701 Q0.861 0.324 0.054 0.404" stroke="hsl(120.0,100%,35%)" stroke-width="0.00698"></path>
<path d="M1.193 0.701 Q1.021 0.778 1.134 0.878" stroke="hsl(120.0,100%,35%)" stroke-width="0.00093"></path>
<path d="M1.193 0.701 Q1.221 0.237 0.322 0.122" stroke="hsl(120.0,100%,35%)" stroke-width="0.00016"></path>
<path d="M1.193 0.701 Q1.299 0.758 1.434 0.719" stroke="hsl(120.0,100%,35%)" stroke-width="0.00233"></path>
<path d="M1.193 0.701 Q0.918 0.832 1.113 0.995" stroke="hsl(120.0,100%,35%)" stroke-width="0.00062"></path>
<path d="M1.193 0.701 Q1.014 0.286 0.165 0.282" stroke="hsl(120.0,100%,35%)" stroke-width="0.00047"></path>
<path d="M1.193 0.701 Q1.237 0.590 1.031 0.544" stroke="hsl(120.0,100%,35%)" stroke-width="0.00016"></path>
<path d="M1.193 0.701 Q1.647 0.696 1.738 0.473" stroke="hsl(120.0,100%,35%)" stroke-width="0.00016"></path>
<path d="M1.193 0.701 Q0.680 0.572 0.317 0.794" stroke="hsl(120.0,100%,35%)" stroke-width="0.00031"></path>
<path d="M1.193 0.701 Q1.261 0.633 1.143 0.585" stroke="hsl(120.0,100%,35%)" stroke-width="0.00062"></path>
<path d="M0.831 0.734 Q1.179 0.647 1.085 0.458" stroke="hsl(120.0,100%,35%)" stroke-width="0.00062"></path>
<path d="M0.831 0.734 Q1.038 0.790 1.193 0.701" stroke="hsl(120.0,100%,35%)" stroke-width="0.00667"></path>
<path d="M0.831 0.734 Q0.627 0.751 0.616 0.855" stroke="hsl(120.0,100%,35%)" stroke-width="0.00062"></path>
<path d="M0.831 0.734 Q0.707 0.414 0.054 0.404" stroke="hsl(120.0,100%,35%)" stroke-width="0.00093"></path>
<path d="M0.831 0.734 Q0.633 0.850 0.816 0.972" stroke="hsl(120.0,100%,35%)" stroke-width="0.00031"></path>
<path d="M0.831 0.734 Q1.493 0.785 1.738 0.473" stroke="hsl(120.0,100%,35%)" stroke-width="0.00047"></path>
<path d="M0.831 0.734 Q1.106 0.722 1.143 0.585" stroke="hsl(120.0,100%,35%)" stroke-width="0.00047"></path>
<path d="M0.831 0.734 Q0.859 0.375 0.165 0.282" stroke="hsl(120.0,100%,35%)" stroke-width="0.00062"></path>
<path d="M0.831 0.734 Q0.617 0.605 0.318 0.681" stroke="hsl(120.0,100%,35%)" stroke-width="0.00062"></path>
<path d="M0.831 0.734 Q1.370 0.521 1.072 0.211" stroke="hsl(120.0,100%,35%)" stroke-width="0.00047"></path>
<path d="M0.831 0.734 Q1.144 0.847 1.434 0.719" stroke="hsl(120.0,100%,35%)" stroke-width="0.00186"></path>
<path d="M0.831 0.734 Q0.938 0.656 0.809 0.586" stroke="hsl(120.0,100%,35%)" stroke-width="0.00016"></path>
<path d="M0.831 0.734 Q1.617 0.721 1.763 0.334" stroke="hsl(120.0,100%,35%)" stroke-width="0.00078"></path>
<path d="M0.831 0.734 Q0.988 0.731 1.016 0.653" stroke="hsl(120.0,100%,35%)" stroke-width="0.00078"></path>
<path d="M0.831 0.734 Q0.965 0.422 0.386 0.288" stroke="hsl(120.0,100%,35%)" stroke-width="0.00109"></path>
<path d="M0.831 0.734 Q1.086 0.615 0.910 0.465" stroke="hsl(120.0,100%,35%)" stroke-width="0.00016"></path>
<path d="M0.318 0.681 Q0.328 0.827 0.616 0.855" stroke="hsl(0.0,100%,35%)" stroke-width="0.00481"></path>
<path d="M0.318 0.681 Q0.334 0.926 0.816 0.972" stroke="hsl(0.0,100%,35%)" stroke-width="0.00248"></path>
<path d="M0.318 0.681 Q0.526 0.691 0.592 0.592" stroke="hsl(0.0,100%,35%)" stroke-width="0.00885"></path>
<path d="M0.318 0.681 Q0.464 0.997 1.113 0.995" stroke="hsl(0.0,100%,35%)" stroke-width="0.00202"></path>
<path d="M0.318 0.681 Q0.568 0.943 1.134 0.878" stroke="hsl(0.0,100%,35%)" stroke-width="0.00528"></path>
<path d="M0.318 0.681 Q0.407 0.489 0.054 0.404" stroke="hsl(0.0,100%,35%)" stroke-width="0.00016"></path>
<path d="M0.318 0.681 Q0.531 0.810 0.831 0.734" stroke="hsl(0.0,100%,35%)" stroke-width="0.00031"></path>
<path d="M0.318 0.681 Q1.194 0.861 1.738 0.473" stroke="hsl(0.0,100%,35%)" stroke-width="0.00016"></path>
<path d="M0.318 0.681 Q0.767 0.402 0.322 0.122" stroke="hsl(0.0,100%,35%)" stroke-width="0.00016"></path>
<path d="M0.318 0.681 Q1.245 0.607 1.306 0.139" stroke="hsl(0.0,100%,35%)" stroke-width="0.00016"></path>
<path d="M0.318 0.681 Q0.880 0.723 1.085 0.458" stroke="hsl(0.0,100%,35%)" stroke-width="0.00016"></path>
<path d="M0.318 0.681 Q0.845 0.923 1.434 0.719" stroke="hsl(0.0,100%,35%)" stroke-width="0.00016"></path>
<path d="M0.318 0.681 Q0.786 0.691 0.910 0.465" stroke="hsl(0.0,100%,35%)" stroke-width="0.00016"></path>
<path d="M0.278 0.189 Q0.147 0.213 0.165 0.282" stroke="hsl(240.0,100%,35%)" stroke-width="0.00047"></path>
<path d="M0.278 0.189 Q-0.006 0.252 0.054 0.404" stroke="hsl(240.0,100%,35%)" stroke-width="0.00016"></path>
<path d="M0.278 0.189 Q0.832 0.370 1.306 0.139" stroke="hsl(240.0,100%,35%)" stroke-width="0.00016"></path>
<path d="M0.165 0.282 Q0.012 0.321 0.054 0.404" stroke="hsl(240.0,100%,35%)" stroke-width="0.10353"></path>
<path d="M0.165 0.282 Q0.136 0.641 0.831 0.734" stroke="hsl(240.0,100%,35%)" stroke-width="0.00233"></path>
<path d="M0.165 0.282 Q-0.061 0.757 0.816 0.972" stroke="hsl(240.0,100%,35%)" stroke-width="0.00217"></path>
<path d="M0.165 0.282 Q0.372 0.233 0.322 0.122" stroke="hsl(240.0,100%,35%)" stroke-width="0.03911"></path>
<path d="M0.165 0.282 Q0.344 0.697 1.193 0.701" stroke="hsl(240.0,100%,35%)" stroke-width="0.00140"></path>
<path d="M0.165 0.282 Q0.595 0.457 1.029 0.285" stroke="hsl(240.0,100%,35%)" stroke-width="0.00031"></path>
<path d="M0.165 0.282 Q0.798 0.692 1.738 0.473" stroke="hsl(240.0,100%,35%)" stroke-width="0.00140"></path>
<path d="M0.165 0.282 Q0.069 0.828 1.113 0.995" stroke="hsl(240.0,100%,35%)" stroke-width="0.00062"></path>
<path d="M0.165 0.282 Q0.553 0.382 0.834 0.214" stroke="hsl(240.0,100%,35%)" stroke-width="0.00078"></path>
<path d="M0.165 0.282 Q-0.067 0.659 0.616 0.855" stroke="hsl(240.0,100%,35%)" stroke-width="0.00171"></path>
<path d="M0.165 0.282 Q0.922 0.628 1.763 0.334" stroke="hsl(240.0,100%,35%)" stroke-width="0.00047"></path>
<path d="M0.165 0.282 Q0.918 0.534 1.575 0.222" stroke="hsl(240.0,100%,35%)" stroke-width="0.00031"></path>
<path d="M0.165 0.282 Q0.412 0.629 1.143 0.585" stroke="hsl(240.0,100%,35%)" stroke-width="0.00109"></path>
<path d="M0.165 0.282 Q-0.078 0.512 0.318 0.681" stroke="hsl(240.0,100%,35%)" stroke-width="0.00217"></path>
<path d="M0.165 0.282 Q0.131 0.523 0.592 0.592" stroke="hsl(240.0,100%,35%)" stroke-width="0.00171"></path>
<path d="M0.165 0.282 Q0.391 0.523 0.910 0.465" stroke="hsl(240.0,100%,35%)" stroke-width="0.00062"></path>
<path d="M0.165 0.282 Q0.172 0.774 1.134 0.878" stroke="hsl(240.0,100%,35%)" stroke-width="0.00466"></path>
<path d="M0.165 0.282 Q0.808 0.347 1.077 0.048" stroke="hsl(240.0,100%,35%)" stroke-width="0.00047"></path>
<path d="M0.165 0.282 Q0.450 0.754 1.434 0.719" stroke="hsl(240.0,100%,35%)" stroke-width="0.00202"></path>
<path d="M0.165 0.282 Q0.738 0.547 1.380 0.325" stroke="hsl(240.0,100%,35%)" stroke-width="0.00016"></path>
<path d="M0.165 0.282 Q0.485 0.554 1.085 0.458" stroke="hsl(240.0,100%,35%)" stroke-width="0.00047"></path>
<path d="M0.165 0.282 Q0.270 0.329 0.386 0.288" stroke="hsl(240.0,100%,35%)" stroke-width="0.00031"></path>
<path d="M0.834 0.214 Q0.203 0.344 0.318 0.681" stroke="hsl(120.0,100%,35%)" stroke-width="0.00031"></path>
<path d="M0.834 0.214 Q1.089 0.180 1.077 0.048" stroke="hsl(120.0,100%,35%)" stroke-width="0.00078"></path>
<path d="M0.834 0.214 Q0.875 0.289 1.029 0.285" stroke="hsl(120.0,100%,35%)" stroke-width="0.00016"></path>
<path d="M0.834 0.214 Q0.416 0.474 0.831 0.734" stroke="hsl(120.0,100%,35%)" stroke-width="0.00062"></path>
<path d="M0.834 0.214 Q1.130 0.271 1.306 0.139" stroke="hsl(120.0,100%,35%)" stroke-width="0.00217"></path>
<path d="M0.834 0.214 Q0.293 0.153 0.054 0.404" stroke="hsl(120.0,100%,35%)" stroke-width="0.00016"></path>
<path d="M0.834 0.214 Q0.445 0.115 0.165 0.282" stroke="hsl(120.0,100%,35%)" stroke-width="0.00016"></path>
<path d="M0.834 0.214 Q0.453 0.607 1.134 0.878" stroke="hsl(120.0,100%,35%)" stroke-width="0.00016"></path>
<path d="M0.834 0.214 Q0.551 0.162 0.386 0.288" stroke="hsl(120.0,100%,35%)" stroke-width="0.00016"></path>
<path d="M0.834 0.214 Q0.111 0.401 0.317 0.794" stroke="hsl(120.0,100%,35%)" stroke-width="0.00016"></path>
<path d="M0.834 0.214 Q0.349 0.661 1.113 0.995" stroke="hsl(120.0,100%,35%)" stroke-width="0.00016"></path>
<path d="M0.834 0.214 Q0.956 0.261 1.072 0.211" stroke="hsl(120.0,100%,35%)" stroke-width="0.00047"></path>
<path d="M1.029 0.285 Q0.571 0.470 0.831 0.734" stroke="hsl(120.0,100%,35%)" stroke-width="0.00031"></path>
<path d="M1.029 0.285 Q1.069 0.448 1.395 0.464" stroke="hsl(120.0,100%,35%)" stroke-width="0.00031"></path>
<path d="M1.029 0.285 Q0.988 0.211 0.834 0.214" stroke="hsl(120.0,100%,35%)" stroke-width="0.00031"></path>
<path d="M1.029 0.285 Q1.243 0.176 1.077 0.048" stroke="hsl(120.0,100%,35%)" stroke-width="0.00016"></path>
<path d="M1.029 0.285 Q1.285 0.267 1.306 0.139" stroke="hsl(120.0,100%,35%)" stroke-width="0.00016"></path>
<path d="M0.816 0.972 Q0.946 1.043 1.113 0.995" stroke="hsl(0.0,100%,35%)" stroke-width="0.00310"></path>
<path d="M0.816 0.972 Q0.809 0.873 0.616 0.855" stroke="hsl(0.0,100%,35%)" stroke-width="0.01118"></path>
<path d="M0.816 0.972 Q1.042 0.497 0.165 0.282" stroke="hsl(0.0,100%,35%)" stroke-width="0.00031"></path>
<path d="M0.816 0.972 Q0.799 0.726 0.318 0.681" stroke="hsl(0.0,100%,35%)" stroke-width="0.00264"></path>
<path d="M0.816 0.972 Q0.889 0.535 0.054 0.404" stroke="hsl(0.0,100%,35%)" stroke-width="0.00155"></path>
<path d="M0.816 0.972 Q1.008 0.737 0.592 0.592" stroke="hsl(0.0,100%,35%)" stroke-width="0.00357"></path>
<path d="M0.816 0.972 Q1.049 0.989 1.134 0.878" stroke="hsl(0.0,100%,35%)" stroke-width="0.00341"></path>
<path d="M0.816 0.972 Q1.675 0.907 1.738 0.473" stroke="hsl(0.0,100%,35%)" stroke-width="0.00016"></path>
<path d="M0.816 0.972 Q1.221 0.912 1.193 0.701" stroke="hsl(0.0,100%,35%)" stroke-width="0.00062"></path>
<path d="M0.816 0.972 Q1.327 0.969 1.434 0.719" stroke="hsl(0.0,100%,35%)" stroke-width="0.00217"></path>
<path d="M0.816 0.972 Q1.799 0.842 1.763 0.334" stroke="hsl(0.0,100%,35%)" stroke-width="0.00062"></path>
<path d="M0.816 0.972 Q1.362 0.769 1.085 0.458" stroke="hsl(0.0,100%,35%)" stroke-width="0.00031"></path>
<path d="M0.910 0.465 Q1.004 0.496 1.085 0.458" stroke="hsl(120.0,100%,35%)" stroke-width="0.00171"></path>
<path d="M0.910 0.465 Q1.194 0.371 1.072 0.211" stroke="hsl(120.0,100%,35%)" stroke-width="0.00016"></path>
<path d="M0.910 0.465 Q0.531 0.263 0.054 0.404" stroke="hsl(120.0,100%,35%)" stroke-width="0.00031"></path>
<path d="M0.910 0.465 Q0.441 0.454 0.318 0.681" stroke="hsl(120.0,100%,35%)" stroke-width="0.00047"></path>
<path d="M0.910 0.465 Q1.317 0.635 1.738 0.473" stroke="hsl(120.0,100%,35%)" stroke-width="0.00062"></path>
<path d="M0.910 0.465 Q1.369 0.381 1.306 0.139" stroke="hsl(120.0,100%,35%)" stroke-width="0.00016"></path>
<path d="M0.910 0.465 Q1.327 0.290 1.077 0.048" stroke="hsl(120.0,100%,35%)" stroke-width="0.00016"></path>
<path d="M0.910 0.465 Q0.816 0.430 0.727 0.468" stroke="hsl(120.0,100%,35%)" stroke-width="0.00031"></path>
<path d="M0.910 0.465 Q1.072 0.324 0.834 0.214" stroke="hsl(120.0,100%,35%)" stroke-width="0.00016"></path>
<path d="M0.322 0.122 Q0.115 0.170 0.165 0.282" stroke="hsl(240.0,100%,35%)" stroke-width="0.03089"></path>
<path d="M0.322 0.122 Q-0.037 0.209 0.054 0.404" stroke="hsl(240.0,100%,35%)" stroke-width="0.00978"></path>
<path d="M0.322 0.122 Q0.123 0.662 1.134 0.878" stroke="hsl(240.0,100%,35%)" stroke-width="0.00031"></path>
<path d="M1.697 0.107 Q1.424 0.298 1.738 0.473" stroke="hsl(120.0,100%,35%)" stroke-width="0.00078"></path>
<path d="M1.697 0.107 Q1.476 0.045 1.306 0.139" stroke="hsl(120.0,100%,35%)" stroke-width="0.00140"></path>
<path d="M1.697 0.107 Q1.260 0.225 1.395 0.464" stroke="hsl(120.0,100%,35%)" stroke-width="0.00016"></path>
<path d="M1.072 0.211 Q1.247 0.222 1.306 0.139" stroke="hsl(120.0,100%,35%)" stroke-width="0.00062"></path>
<path d="M1.072 0.211 Q0.950 0.165 0.834 0.214" stroke="hsl(120.0,100%,35%)" stroke-width="0.00047"></path>
<path d="M1.085 0.458 Q1.268 0.589 1.565 0.528" stroke="hsl(120.0,100%,35%)" stroke-width="0.00016"></path>
<path d="M1.085 0.458 Q0.992 0.426 0.910 0.465" stroke="hsl(120.0,100%,35%)" stroke-width="0.00062"></path>
<path d="M1.085 0.458 Q0.523 0.416 0.318 0.681" stroke="hsl(120.0,100%,35%)" stroke-width="0.00031"></path>
<path d="M1.085 0.458 Q0.613 0.224 0.054 0.404" stroke="hsl(120.0,100%,35%)" stroke-width="0.00031"></path>
<path d="M1.085 0.458 Q0.539 0.661 0.816 0.972" stroke="hsl(120.0,100%,35%)" stroke-width="0.00016"></path>
<path d="M1.085 0.458 Q1.276 0.332 1.072 0.211" stroke="hsl(120.0,100%,35%)" stroke-width="0.00016"></path>
<path d="M1.085 0.458 Q0.773 0.678 1.134 0.878" stroke="hsl(120.0,100%,35%)" stroke-width="0.00016"></path>
<path d="M1.143 0.585 Q1.075 0.653 1.193 0.701" stroke="hsl(120.0,100%,35%)" stroke-width="0.00031"></path>
<path d="M1.143 0.585 Q0.868 0.597 0.831 0.734" stroke="hsl(120.0,100%,35%)" stroke-width="0.00435"></path>
<path d="M1.143 0.585 Q1.216 0.510 1.085 0.458" stroke="hsl(120.0,100%,35%)" stroke-width="0.00016"></path>
<path d="M1.143 0.585 Q0.897 0.238 0.165 0.282" stroke="hsl(120.0,100%,35%)" stroke-width="0.00233"></path>
<path d="M1.143 0.585 Q0.744 0.276 0.054 0.404" stroke="hsl(120.0,100%,35%)" stroke-width="0.00031"></path>
<path d="M1.143 0.585 Q1.650 0.490 1.575 0.222" stroke="hsl(120.0,100%,35%)" stroke-width="0.00016"></path>
<path d="M1.143 0.585 Q1.181 0.710 1.434 0.719" stroke="hsl(120.0,100%,35%)" stroke-width="0.00109"></path>
<path d="M1.143 0.585 Q1.530 0.648 1.738 0.473" stroke="hsl(120.0,100%,35%)" stroke-width="0.00047"></path>
<path d="M1.143 0.585 Q1.654 0.584 1.763 0.334" stroke="hsl(120.0,100%,35%)" stroke-width="0.00031"></path>
<path d="M1.763 0.334 Q1.759 0.240 1.575 0.222" stroke="hsl(120.0,100%,35%)" stroke-width="0.00636"></path>
<path d="M1.763 0.334 Q1.325 0.260 1.085 0.458" stroke="hsl(120.0,100%,35%)" stroke-width="0.00093"></path>
<path d="M1.763 0.334 Q1.639 0.399 1.738 0.473" stroke="hsl(120.0,100%,35%)" stroke-width="0.00078"></path>
<path d="M1.763 0.334 Q0.853 0.027 0.054 0.404" stroke="hsl(120.0,100%,35%)" stroke-width="0.00171"></path>
<path d="M1.763 0.334 Q0.779 0.463 0.816 0.972" stroke="hsl(120.0,100%,35%)" stroke-width="0.00016"></path>
<path d="M1.763 0.334 Q1.578 0.253 1.380 0.325" stroke="hsl(120.0,100%,35%)" stroke-width="0.00109"></path>
<path d="M1.763 0.334 Q1.013 0.481 1.134 0.878" stroke="hsl(120.0,100%,35%)" stroke-width="0.00047"></path>
<path d="M1.763 0.334 Q0.977 0.348 0.831 0.734" stroke="hsl(120.0,100%,35%)" stroke-width="0.00124"></path>
<path d="M1.763 0.334 Q1.290 0.461 1.434 0.719" stroke="hsl(120.0,100%,35%)" stroke-width="0.00155"></path>
<path d="M1.763 0.334 Q1.006 -0.011 0.165 0.282" stroke="hsl(120.0,100%,35%)" stroke-width="0.00016"></path>
<path d="M1.763 0.334 Q1.111 0.036 0.386 0.288" stroke="hsl(120.0,100%,35%)" stroke-width="0.00031"></path>
<path d="M1.575 0.222 Q0.793 0.329 0.831 0.734" stroke="hsl(120.0,100%,35%)" stroke-width="0.00031"></path>
<path d="M1.575 0.222 Q1.579 0.316 1.763 0.334" stroke="hsl(120.0,100%,35%)" stroke-width="0.00761"></path>
<path d="M1.575 0.222 Q1.106 0.442 1.434 0.719" stroke="hsl(120.0,100%,35%)" stroke-width="0.00016"></path>
<path d="M1.575 0.222 Q1.436 0.179 1.323 0.237" stroke="hsl(120.0,100%,35%)" stroke-width="0.00016"></path>
<path d="M1.575 0.222 Q1.455 0.380 1.738 0.473" stroke="hsl(120.0,100%,35%)" stroke-width="0.00016"></path>
<path d="M1.565 0.528 Q1.382 0.397 1.085 0.458" stroke="hsl(120.0,100%,35%)" stroke-width="0.00031"></path>
<path d="M1.565 0.528 Q1.069 0.617 1.134 0.878" stroke="hsl(120.0,100%,35%)" stroke-width="0.00031"></path>
<path d="M1.565 0.528 Q1.288 0.366 0.910 0.465" stroke="hsl(120.0,100%,35%)" stroke-width="0.00031"></path>
<path d="M1.565 0.528 Q1.695 0.535 1.738 0.473" stroke="hsl(120.0,100%,35%)" stroke-width="0.00016"></path>
<path d="M1.565 0.528 Q1.167 0.173 0.386 0.288" stroke="hsl(120.0,100%,35%)" stroke-width="0.00016"></path>
<path d="M1.565 0.528 Q0.966 0.671 1.113 0.995" stroke="hsl(120.0,100%,35%)" stroke-width="0.00016"></path>
<path d="M1.016 0.653 Q0.859 0.656 0.831 0.734" stroke="hsl(120.0,100%,35%)" stroke-width="0.00528"></path>
<path d="M1.016 0.653 Q1.207 0.569 1.085 0.458" stroke="hsl(120.0,100%,35%)" stroke-width="0.00016"></path>
<path d="M1.016 0.653 Q1.066 0.712 1.193 0.701" stroke="hsl(120.0,100%,35%)" stroke-width="0.00016"></path>
<path d="M1.016 0.653 Q1.645 0.643 1.763 0.334" stroke="hsl(120.0,100%,35%)" stroke-width="0.00031"></path>
<path d="M1.380 0.325 Q1.092 0.533 1.434 0.719" stroke="hsl(120.0,100%,35%)" stroke-width="0.00062"></path>
<path d="M1.380 0.325 Q1.564 0.406 1.763 0.334" stroke="hsl(120.0,100%,35%)" stroke-width="0.00202"></path>
<path d="M1.380 0.325 Q0.711 0.607 1.113 0.995" stroke="hsl(120.0,100%,35%)" stroke-width="0.00031"></path>
<path d="M0.293 0.434 Q0.240 0.472 0.303 0.506" stroke="hsl(120.0,100%,35%)" stroke-width="0.00078"></path>
<path d="M0.293 0.434 Q0.198 0.371 0.054 0.404" stroke="hsl(120.0,100%,35%)" stroke-width="0.00031"></path>
<path d="M0.293 0.434 Q1.036 0.489 1.306 0.139" stroke="hsl(120.0,100%,35%)" stroke-width="0.00047"></path>
<path d="M0.303 0.506 Q0.170 0.596 0.318 0.681" stroke="hsl(120.0,100%,35%)" stroke-width="0.00047"></path>
<path d="M0.303 0.506 Q0.355 0.468 0.293 0.434" stroke="hsl(120.0,100%,35%)" stroke-width="0.00047"></path>
<path d="M0.303 0.506 Q0.427 0.501 0.445 0.439" stroke="hsl(120.0,100%,35%)" stroke-width="0.00016"></path>
<path d="M1.419 0.826 Q1.227 0.303 0.165 0.282" stroke="hsl(0.0,100%,35%)" stroke-width="0.00016"></path>
<path d="M1.419 0.826 Q0.984 0.533 0.318 0.681" stroke="hsl(0.0,100%,35%)" stroke-width="0.00016"></path>
<path d="M1.419 0.826 Q0.994 0.680 0.616 0.855" stroke="hsl(0.0,100%,35%)" stroke-width="0.00016"></path>
<path d="M1.419 0.826 Q1.234 0.795 1.134 0.878" stroke="hsl(0.0,100%,35%)" stroke-width="0.00016"></path>
<path d="M1.419 0.826 Q1.406 0.718 1.193 0.701" stroke="hsl(0.0,100%,35%)" stroke-width="0.00016"></path>
<path d="M1.395 0.464 Q1.611 0.284 1.306 0.139" stroke="hsl(120.0,100%,35%)" stroke-width="0.00016"></path>
<path d="M1.395 0.464 Q0.773 0.166 0.054 0.404" stroke="hsl(120.0,100%,35%)" stroke-width="0.00016"></path>
<path d="M1.395 0.464 Q1.246 0.399 1.085 0.458" stroke="hsl(120.0,100%,35%)" stroke-width="0.00016"></path>
<path d="M1.395 0.464 Q1.314 0.227 0.834 0.214" stroke="hsl(120.0,100%,35%)" stroke-width="0.00031"></path>
<path d="M1.395 0.464 Q0.897 0.486 0.831 0.734" stroke="hsl(120.0,100%,35%)" stroke-width="0.00016"></path>
<path d="M1.395 0.464 Q1.559 0.537 1.738 0.473" stroke="hsl(120.0,100%,35%)" stroke-width="0.00016"></path>
<path d="M0.590 0.306 Q0.502 0.256 0.386 0.288" stroke="hsl(120.0,100%,35%)" stroke-width="0.00016"></path>
<path d="M0.590 0.306 Q0.368 0.568 0.831 0.734" stroke="hsl(120.0,100%,35%)" stroke-width="0.00031"></path>
<path d="M0.590 0.306 Q0.661 0.361 0.783 0.338" stroke="hsl(120.0,100%,35%)" stroke-width="0.00016"></path>
<path d="M1.742 0.896 Q2.078 0.684 1.738 0.473" stroke="hsl(120.0,100%,35%)" stroke-width="0.00016"></path>
<path d="M1.742 0.896 Q1.416 0.633 0.831 0.734" stroke="hsl(120.0,100%,35%)" stroke-width="0.00016"></path>
<path d="M1.742 0.896 Q1.729 0.746 1.434 0.719" stroke="hsl(120.0,100%,35%)" stroke-width="0.00016"></path>
<path d="M1.105 0.594 Q1.204 0.522 1.085 0.458" stroke="hsl(120.0,100%,35%)" stroke-width="0.00016"></path>
<path d="M1.105 0.594 Q0.855 0.609 0.831 0.734" stroke="hsl(120.0,100%,35%)" stroke-width="0.00031"></path>
<path d="M1.105 0.594 Q1.063 0.665 1.193 0.701" stroke="hsl(120.0,100%,35%)" stroke-width="0.00016"></path>
</g>
<text x="0.317" y="0.782" font-size="0.024074" fill="hsl(0.0,100%,20%)">adlai</text>
<text x="1.134" y="0.853" font-size="0.050669" fill="hsl(0.0,100%,20%)">bsalomon</text>
<text x="0.616" y="0.828" font-size="0.053155" fill="hsl(0.0,100%,20%)">robertphillips</text>
<text x="1.113" y="0.973" font-size="0.044125" fill="hsl(0.0,100%,20%)">csmartdalton</text>
<text x="1.077" y="0.037" font-size="0.022011" fill="hsl(120.0,100%,20%)">rmistry</text>
<text x="1.306" y="0.126" font-size="0.025974" fill="hsl(120.0,100%,20%)">borenet</text>
<text x="0.386" y="0.278" font-size="0.020631" fill="hsl(240.0,100%,20%)">mtklein</text>
<text x="0.592" y="0.572" font-size="0.039866" fill="hsl(0.0,100%,20%)">jvanverth</text>
<text x="1.434" y="0.703" font-size="0.032131" fill="hsl(120.0,100%,20%)">reed</text>
<text x="0.054" y="0.364" font-size="0.079277" fill="hsl(240.0,100%,20%)">brianosman</text>
<text x="1.738" y="0.455" font-size="0.036672" fill="hsl(120.0,100%,20%)">kjlubick</text>
<text x="1.193" y="0.683" font-size="0.036548" fill="hsl(120.0,100%,20%)">herb</text>
<text x="0.831" y="0.716" font-size="0.036112" fill="hsl(120.0,100%,20%)">bungeman</text>
<text x="0.318" y="0.659" font-size="0.043919" fill="hsl(0.0,100%,20%)">egdaniel</text>
<text x="0.278" y="0.187" font-size="0.004758" fill="hsl(240.0,100%,20%)">bajones</text>
<text x="0.165" y="0.241" font-size="0.082578" fill="hsl(240.0,100%,20%)">johnstiles</text>
<text x="0.834" y="0.205" font-size="0.019386" fill="hsl(120.0,100%,20%)">jcgregorio</text>
<text x="1.029" y="0.281" font-size="0.008512" fill="hsl(120.0,100%,20%)">erikrose</text>
<text x="0.816" y="0.947" font-size="0.049172" fill="hsl(0.0,100%,20%)">michaelludwig</text>
<text x="0.910" y="0.458" font-size="0.014432" fill="hsl(120.0,100%,20%)">scroggo</text>
<text x="0.322" y="0.097" font-size="0.049949" fill="hsl(240.0,100%,20%)">ethannicholas</text>
<text x="1.697" y="0.102" font-size="0.010640" fill="hsl(120.0,100%,20%)">westont</text>
<text x="1.072" y="0.206" font-size="0.009516" fill="hsl(120.0,100%,20%)">hcm</text>
<text x="1.085" y="0.450" font-size="0.016065" fill="hsl(120.0,100%,20%)">djsollen</text>
<text x="1.143" y="0.575" font-size="0.020299" fill="hsl(120.0,100%,20%)">jlavrova</text>
<text x="1.763" y="0.319" font-size="0.030910" fill="hsl(120.0,100%,20%)">fmalita</text>
<text x="1.575" y="0.211" font-size="0.021700" fill="hsl(120.0,100%,20%)">jmbetancourt</text>
<text x="1.323" y="0.236" font-size="0.003009" fill="hsl(120.0,100%,20%)">stani</text>
<text x="1.565" y="0.522" font-size="0.011848" fill="hsl(120.0,100%,20%)">nifong</text>
<text x="0.809" y="0.585" font-size="0.002128" fill="hsl(120.0,100%,20%)">grieger</text>
<text x="1.016" y="0.646" font-size="0.013954" fill="hsl(120.0,100%,20%)">drott</text>
<text x="1.294" y="0.906" font-size="0.003009" fill="hsl(0.0,100%,20%)">junov</text>
<text x="1.380" y="0.319" font-size="0.013458" fill="hsl(120.0,100%,20%)">tdenniston</text>
<text x="0.293" y="0.430" font-size="0.007672" fill="hsl(120.0,100%,20%)">cwallez</text>
<text x="0.303" y="0.502" font-size="0.007371" fill="hsl(120.0,100%,20%)">senorblanco</text>
<text x="1.419" y="0.823" font-size="0.004758" fill="hsl(0.0,100%,20%)">emaxx</text>
<text x="1.395" y="0.458" font-size="0.012944" fill="hsl(120.0,100%,20%)">lovisolo</text>
<text x="1.031" y="0.543" font-size="0.002128" fill="hsl(120.0,100%,20%)">jiulongw</text>
<text x="0.590" y="0.304" font-size="0.004256" fill="hsl(120.0,100%,20%)">james</text>
<text x="0.783" y="0.337" font-size="0.002128" fill="hsl(120.0,100%,20%)">cbracken</text>
<text x="1.326" y="0.606" font-size="0.006384" fill="hsl(120.0,100%,20%)">yjbanov</text>
<text x="1.742" y="0.894" font-size="0.003686" fill="hsl(120.0,100%,20%)">pkasting</text>
<text x="1.607" y="0.627" font-size="0.002128" fill="hsl(120.0,100%,20%)">whesse</text>
<text x="1.798" y="0.750" font-size="0.002128" fill="hsl(120.0,100%,20%)">mdebbar</text>
<text x="0.727" y="0.467" font-size="0.003009" fill="hsl(120.0,100%,20%)">nigeltao</text>
<text x="0.445" y="0.438" font-size="0.002128" fill="hsl(120.0,100%,20%)">enga</text>
<text x="1.105" y="0.591" font-size="0.004256" fill="hsl(120.0,100%,20%)">thestig</text>
</svg>
