<svg width="4000" height="2000" viewBox="-0.025 -0.025 2.05 1.05" xmlns="http://www.w3.org/2000/svg">
  <style>
    path {
      fill: none;
      stroke-linecap: round;
      stroke-opacity: 0.4;
    }

    text {
      text-anchor: middle;
      alignment-baseline: hanging;
    }
  </style>
  <g opacity="0.4">
<path d="M1.414 0.050 Q1.227 -0.024 1.040 0.050" stroke="hsl(0.0,100%,35%)" stroke-width="0.00086"></path>
<path d="M1.414 0.050 Q0.536 0.123 0.485 0.567" stroke="hsl(0.0,100%,35%)" stroke-width="0.00086"></path>
<path d="M1.414 0.050 Q0.653 -0.091 0.211 0.249" stroke="hsl(0.0,100%,35%)" stroke-width="0.00086"></path>
<path d="M1.040 0.050 Q0.350 0.198 0.485 0.567" stroke="hsl(0.0,100%,35%)" stroke-width="0.00086"></path>
<path d="M1.040 0.050 Q1.102 0.061 1.137 0.033" stroke="hsl(0.0,100%,35%)" stroke-width="0.00086"></path>
<path d="M1.040 0.050 Q0.467 -0.016 0.211 0.249" stroke="hsl(0.0,100%,35%)" stroke-width="0.00171"></path>
<path d="M1.040 0.050 Q0.277 0.261 0.521 0.680" stroke="hsl(0.0,100%,35%)" stroke-width="0.00086"></path>
<path d="M1.040 0.050 Q0.048 0.343 0.401 0.891" stroke="hsl(0.0,100%,35%)" stroke-width="0.00086"></path>
<path d="M0.485 0.567 Q0.843 0.429 0.652 0.224" stroke="hsl(180.0,100%,35%)" stroke-width="0.00257"></path>
<path d="M0.485 0.567 Q0.413 0.631 0.521 0.680" stroke="hsl(180.0,100%,35%)" stroke-width="0.01798"></path>
<path d="M0.485 0.567 Q0.476 0.413 0.173 0.384" stroke="hsl(180.0,100%,35%)" stroke-width="0.00086"></path>
<path d="M0.485 0.567 Q1.106 0.772 1.644 0.515" stroke="hsl(180.0,100%,35%)" stroke-width="0.00599"></path>
<path d="M0.485 0.567 Q0.603 0.353 0.211 0.249" stroke="hsl(180.0,100%,35%)" stroke-width="0.00428"></path>
<path d="M0.485 0.567 Q0.277 0.592 0.281 0.700" stroke="hsl(180.0,100%,35%)" stroke-width="0.00086"></path>
<path d="M0.485 0.567 Q1.049 0.650 1.334 0.393" stroke="hsl(180.0,100%,35%)" stroke-width="0.00171"></path>
<path d="M0.485 0.567 Q1.222 0.826 1.890 0.524" stroke="hsl(180.0,100%,35%)" stroke-width="0.00086"></path>
<path d="M0.211 0.249 Q0.094 0.463 0.485 0.567" stroke="hsl(0.0,100%,35%)" stroke-width="0.01113"></path>
<path d="M0.211 0.249 Q-0.115 0.488 0.281 0.700" stroke="hsl(0.0,100%,35%)" stroke-width="0.00171"></path>
<path d="M0.211 0.249 Q0.657 0.546 1.334 0.393" stroke="hsl(0.0,100%,35%)" stroke-width="0.00086"></path>
<path d="M0.211 0.249 Q0.390 0.207 0.347 0.110" stroke="hsl(0.0,100%,35%)" stroke-width="0.00257"></path>
<path d="M0.211 0.249 Q0.277 0.188 0.172 0.142" stroke="hsl(0.0,100%,35%)" stroke-width="0.00086"></path>
<path d="M0.211 0.249 Q0.451 0.325 0.652 0.224" stroke="hsl(0.0,100%,35%)" stroke-width="0.00257"></path>
<path d="M0.211 0.249 Q0.614 0.271 0.745 0.079" stroke="hsl(0.0,100%,35%)" stroke-width="0.00086"></path>
<path d="M0.211 0.249 Q0.021 0.527 0.521 0.680" stroke="hsl(0.0,100%,35%)" stroke-width="0.00086"></path>
<path d="M1.921 0.322 Q0.934 0.221 0.521 0.680" stroke="hsl(180.0,100%,35%)" stroke-width="0.00086"></path>
<path d="M1.921 0.322 Q1.628 0.363 1.644 0.515" stroke="hsl(180.0,100%,35%)" stroke-width="0.00257"></path>
<path d="M1.921 0.322 Q0.906 0.327 0.692 0.822" stroke="hsl(180.0,100%,35%)" stroke-width="0.00171"></path>
<path d="M1.921 0.322 Q0.706 0.302 0.401 0.891" stroke="hsl(180.0,100%,35%)" stroke-width="0.00086"></path>
<path d="M1.921 0.322 Q1.571 0.240 1.334 0.393" stroke="hsl(180.0,100%,35%)" stroke-width="0.00171"></path>
<path d="M1.921 0.322 Q1.365 0.019 0.652 0.224" stroke="hsl(180.0,100%,35%)" stroke-width="0.00171"></path>
<path d="M0.521 0.680 Q0.594 0.616 0.485 0.567" stroke="hsl(180.0,100%,35%)" stroke-width="0.05908"></path>
<path d="M0.521 0.680 Q0.385 0.642 0.281 0.700" stroke="hsl(180.0,100%,35%)" stroke-width="0.00342"></path>
<path d="M0.521 0.680 Q1.330 0.876 1.890 0.524" stroke="hsl(180.0,100%,35%)" stroke-width="0.00685"></path>
<path d="M0.521 0.680 Q1.507 0.781 1.921 0.322" stroke="hsl(180.0,100%,35%)" stroke-width="0.00171"></path>
<path d="M0.521 0.680 Q0.711 0.403 0.211 0.249" stroke="hsl(180.0,100%,35%)" stroke-width="0.00171"></path>
<path d="M0.521 0.680 Q1.215 0.822 1.644 0.515" stroke="hsl(180.0,100%,35%)" stroke-width="0.01113"></path>
<path d="M0.521 0.680 Q1.114 0.424 0.745 0.079" stroke="hsl(180.0,100%,35%)" stroke-width="0.00086"></path>
<path d="M0.521 0.680 Q0.292 0.761 0.401 0.891" stroke="hsl(180.0,100%,35%)" stroke-width="0.00428"></path>
<path d="M0.521 0.680 Q1.157 0.699 1.334 0.393" stroke="hsl(180.0,100%,35%)" stroke-width="0.00171"></path>
<path d="M0.521 0.680 Q1.079 0.838 1.509 0.600" stroke="hsl(180.0,100%,35%)" stroke-width="0.00257"></path>
<path d="M0.521 0.680 Q0.493 0.786 0.692 0.822" stroke="hsl(180.0,100%,35%)" stroke-width="0.00514"></path>
<path d="M0.521 0.680 Q0.704 0.694 0.770 0.608" stroke="hsl(180.0,100%,35%)" stroke-width="0.00171"></path>
<path d="M0.521 0.680 Q0.265 0.667 0.182 0.788" stroke="hsl(180.0,100%,35%)" stroke-width="0.00171"></path>
<path d="M0.521 0.680 Q0.657 0.518 0.371 0.416" stroke="hsl(180.0,100%,35%)" stroke-width="0.00086"></path>
<path d="M0.521 0.680 Q0.951 0.478 0.652 0.224" stroke="hsl(180.0,100%,35%)" stroke-width="0.00856"></path>
<path d="M1.644 0.515 Q0.721 0.454 0.401 0.891" stroke="hsl(180.0,100%,35%)" stroke-width="0.00086"></path>
<path d="M1.644 0.515 Q1.586 0.392 1.334 0.393" stroke="hsl(180.0,100%,35%)" stroke-width="0.00342"></path>
<path d="M1.644 0.515 Q1.759 0.569 1.890 0.524" stroke="hsl(180.0,100%,35%)" stroke-width="0.01027"></path>
<path d="M1.644 0.515 Q1.936 0.474 1.921 0.322" stroke="hsl(180.0,100%,35%)" stroke-width="0.00086"></path>
<path d="M1.644 0.515 Q1.023 0.309 0.485 0.567" stroke="hsl(180.0,100%,35%)" stroke-width="0.01370"></path>
<path d="M1.644 0.515 Q0.950 0.373 0.521 0.680" stroke="hsl(180.0,100%,35%)" stroke-width="0.00771"></path>
<path d="M1.644 0.515 Q1.508 0.531 1.509 0.600" stroke="hsl(180.0,100%,35%)" stroke-width="0.01370"></path>
<path d="M1.644 0.515 Q0.922 0.478 0.692 0.822" stroke="hsl(180.0,100%,35%)" stroke-width="0.00086"></path>
<path d="M1.644 0.515 Q1.140 0.095 0.211 0.249" stroke="hsl(180.0,100%,35%)" stroke-width="0.00086"></path>
<path d="M0.692 0.822 Q0.492 0.798 0.401 0.891" stroke="hsl(180.0,100%,35%)" stroke-width="0.00514"></path>
<path d="M0.692 0.822 Q0.720 0.717 0.521 0.680" stroke="hsl(180.0,100%,35%)" stroke-width="0.00086"></path>
<path d="M0.692 0.822 Q1.151 0.515 0.652 0.224" stroke="hsl(180.0,100%,35%)" stroke-width="0.00086"></path>
<path d="M0.692 0.822 Q1.530 0.913 1.890 0.524" stroke="hsl(180.0,100%,35%)" stroke-width="0.00086"></path>
<path d="M0.692 0.822 Q1.357 0.736 1.334 0.393" stroke="hsl(180.0,100%,35%)" stroke-width="0.00171"></path>
<path d="M0.401 0.891 Q0.629 0.810 0.521 0.680" stroke="hsl(180.0,100%,35%)" stroke-width="0.00086"></path>
<path d="M0.401 0.891 Q0.601 0.915 0.692 0.822" stroke="hsl(180.0,100%,35%)" stroke-width="0.00428"></path>
<path d="M0.401 0.891 Q0.702 0.746 0.485 0.567" stroke="hsl(180.0,100%,35%)" stroke-width="0.00086"></path>
<path d="M0.401 0.891 Q1.323 0.951 1.644 0.515" stroke="hsl(180.0,100%,35%)" stroke-width="0.00428"></path>
<path d="M0.401 0.891 Q1.187 0.967 1.509 0.600" stroke="hsl(180.0,100%,35%)" stroke-width="0.00086"></path>
<path d="M1.334 0.393 Q1.392 0.516 1.644 0.515" stroke="hsl(180.0,100%,35%)" stroke-width="0.01969"></path>
<path d="M1.334 0.393 Q1.684 0.475 1.921 0.322" stroke="hsl(180.0,100%,35%)" stroke-width="0.00428"></path>
<path d="M1.334 0.393 Q0.469 0.455 0.401 0.891" stroke="hsl(180.0,100%,35%)" stroke-width="0.00428"></path>
<path d="M1.334 0.393 Q0.771 0.310 0.485 0.567" stroke="hsl(180.0,100%,35%)" stroke-width="0.00257"></path>
<path d="M1.334 0.393 Q1.067 0.054 0.347 0.110" stroke="hsl(180.0,100%,35%)" stroke-width="0.00086"></path>
<path d="M1.334 0.393 Q0.888 0.096 0.211 0.249" stroke="hsl(180.0,100%,35%)" stroke-width="0.00171"></path>
<path d="M1.334 0.393 Q0.698 0.374 0.521 0.680" stroke="hsl(180.0,100%,35%)" stroke-width="0.00342"></path>
<path d="M1.334 0.393 Q0.562 0.336 0.281 0.700" stroke="hsl(180.0,100%,35%)" stroke-width="0.00257"></path>
<path d="M1.334 0.393 Q1.507 0.570 1.890 0.524" stroke="hsl(180.0,100%,35%)" stroke-width="0.00514"></path>
<path d="M1.334 0.393 Q1.256 0.532 1.509 0.600" stroke="hsl(180.0,100%,35%)" stroke-width="0.00428"></path>
<path d="M1.334 0.393 Q1.462 0.163 1.040 0.050" stroke="hsl(180.0,100%,35%)" stroke-width="0.00086"></path>
<path d="M1.334 0.393 Q1.128 0.172 0.652 0.224" stroke="hsl(180.0,100%,35%)" stroke-width="0.00086"></path>
<path d="M0.652 0.224 Q-0.035 0.412 0.182 0.788" stroke="hsl(0.0,100%,35%)" stroke-width="0.00257"></path>
<path d="M0.652 0.224 Q0.411 0.148 0.211 0.249" stroke="hsl(0.0,100%,35%)" stroke-width="0.01798"></path>
<path d="M0.652 0.224 Q0.814 0.170 0.745 0.079" stroke="hsl(0.0,100%,35%)" stroke-width="0.00942"></path>
<path d="M0.652 0.224 Q0.759 0.310 0.950 0.276" stroke="hsl(0.0,100%,35%)" stroke-width="0.00942"></path>
<path d="M0.652 0.224 Q1.031 0.622 1.890 0.524" stroke="hsl(0.0,100%,35%)" stroke-width="0.00428"></path>
<path d="M0.652 0.224 Q0.985 0.215 1.040 0.050" stroke="hsl(0.0,100%,35%)" stroke-width="0.00171"></path>
<path d="M0.652 0.224 Q0.294 0.362 0.485 0.567" stroke="hsl(0.0,100%,35%)" stroke-width="0.00856"></path>
<path d="M0.652 0.224 Q-0.007 0.507 0.401 0.891" stroke="hsl(0.0,100%,35%)" stroke-width="0.00771"></path>
<path d="M0.652 0.224 Q0.086 0.388 0.281 0.700" stroke="hsl(0.0,100%,35%)" stroke-width="0.00171"></path>
<path d="M0.652 0.224 Q0.193 0.531 0.692 0.822" stroke="hsl(0.0,100%,35%)" stroke-width="0.00856"></path>
<path d="M0.652 0.224 Q0.221 0.426 0.521 0.680" stroke="hsl(0.0,100%,35%)" stroke-width="0.00257"></path>
<path d="M0.652 0.224 Q0.858 0.445 1.334 0.393" stroke="hsl(0.0,100%,35%)" stroke-width="0.00171"></path>
<path d="M0.652 0.224 Q0.591 0.106 0.347 0.110" stroke="hsl(0.0,100%,35%)" stroke-width="0.00086"></path>
<path d="M0.652 0.224 Q0.915 0.568 1.644 0.515" stroke="hsl(0.0,100%,35%)" stroke-width="0.00171"></path>
<path d="M0.652 0.224 Q0.285 0.208 0.173 0.384" stroke="hsl(0.0,100%,35%)" stroke-width="0.00086"></path>
<path d="M0.173 0.384 Q0.246 0.439 0.371 0.416" stroke="hsl(0.0,100%,35%)" stroke-width="0.00257"></path>
<path d="M0.173 0.384 Q0.746 0.621 1.334 0.393" stroke="hsl(0.0,100%,35%)" stroke-width="0.00086"></path>
<path d="M0.173 0.384 Q0.540 0.400 0.652 0.224" stroke="hsl(0.0,100%,35%)" stroke-width="0.00171"></path>
<path d="M0.281 0.700 Q0.489 0.674 0.485 0.567" stroke="hsl(180.0,100%,35%)" stroke-width="0.01798"></path>
<path d="M0.281 0.700 Q0.416 0.738 0.521 0.680" stroke="hsl(180.0,100%,35%)" stroke-width="0.00599"></path>
<path d="M0.281 0.700 Q1.053 0.757 1.334 0.393" stroke="hsl(180.0,100%,35%)" stroke-width="0.00086"></path>
<path d="M0.281 0.700 Q0.847 0.536 0.652 0.224" stroke="hsl(180.0,100%,35%)" stroke-width="0.00086"></path>
<path d="M1.890 0.524 Q1.774 0.470 1.644 0.515" stroke="hsl(180.0,100%,35%)" stroke-width="0.00086"></path>
<path d="M1.890 0.524 Q0.852 0.410 0.401 0.891" stroke="hsl(180.0,100%,35%)" stroke-width="0.00257"></path>
<path d="M1.890 0.524 Q1.052 0.434 0.692 0.822" stroke="hsl(180.0,100%,35%)" stroke-width="0.00771"></path>
<path d="M1.890 0.524 Q1.511 0.126 0.652 0.224" stroke="hsl(180.0,100%,35%)" stroke-width="0.00171"></path>
<path d="M1.890 0.524 Q1.153 0.265 0.485 0.567" stroke="hsl(180.0,100%,35%)" stroke-width="0.00086"></path>
<path d="M1.890 0.524 Q1.717 0.348 1.334 0.393" stroke="hsl(180.0,100%,35%)" stroke-width="0.00257"></path>
<path d="M1.890 0.524 Q1.080 0.328 0.521 0.680" stroke="hsl(180.0,100%,35%)" stroke-width="0.00171"></path>
<path d="M0.505 0.769 Q0.356 0.809 0.401 0.891" stroke="hsl(180.0,100%,35%)" stroke-width="0.00685"></path>
<path d="M0.505 0.769 Q1.393 0.923 1.890 0.524" stroke="hsl(180.0,100%,35%)" stroke-width="0.00086"></path>
<path d="M0.505 0.769 Q1.220 0.747 1.334 0.393" stroke="hsl(180.0,100%,35%)" stroke-width="0.00086"></path>
<path d="M0.347 0.110 Q0.168 0.152 0.211 0.249" stroke="hsl(0.0,100%,35%)" stroke-width="0.00428"></path>
<path d="M0.347 0.110 Q0.571 0.174 0.745 0.079" stroke="hsl(0.0,100%,35%)" stroke-width="0.00086"></path>
<path d="M0.347 0.110 Q0.234 0.091 0.172 0.142" stroke="hsl(0.0,100%,35%)" stroke-width="0.00086"></path>
<path d="M0.172 0.142 Q0.106 0.203 0.211 0.249" stroke="hsl(0.0,100%,35%)" stroke-width="0.01627"></path>
<path d="M0.172 0.142 Q0.286 0.161 0.347 0.110" stroke="hsl(0.0,100%,35%)" stroke-width="0.00086"></path>
<path d="M0.172 0.142 Q0.347 0.279 0.652 0.224" stroke="hsl(0.0,100%,35%)" stroke-width="0.00171"></path>
<path d="M0.172 0.142 Q-0.011 0.417 0.485 0.567" stroke="hsl(0.0,100%,35%)" stroke-width="0.00257"></path>
<path d="M0.172 0.142 Q-0.312 0.562 0.401 0.891" stroke="hsl(0.0,100%,35%)" stroke-width="0.00086"></path>
<path d="M0.172 0.142 Q0.680 0.270 1.040 0.050" stroke="hsl(0.0,100%,35%)" stroke-width="0.00086"></path>
<path d="M0.745 0.079 Q0.943 0.191 1.206 0.119" stroke="hsl(0.0,100%,35%)" stroke-width="0.00086"></path>
<path d="M0.745 0.079 Q0.342 0.057 0.211 0.249" stroke="hsl(0.0,100%,35%)" stroke-width="0.00171"></path>
<path d="M0.745 0.079 Q0.582 0.133 0.652 0.224" stroke="hsl(0.0,100%,35%)" stroke-width="0.00171"></path>
<path d="M0.745 0.079 Q0.152 0.335 0.521 0.680" stroke="hsl(0.0,100%,35%)" stroke-width="0.00086"></path>
<path d="M0.745 0.079 Q0.335 0.348 0.770 0.608" stroke="hsl(0.0,100%,35%)" stroke-width="0.00171"></path>
<path d="M0.745 0.079 Q0.833 0.168 1.026 0.144" stroke="hsl(0.0,100%,35%)" stroke-width="0.00086"></path>
<path d="M0.182 0.788 Q0.209 0.883 0.401 0.891" stroke="hsl(180.0,100%,35%)" stroke-width="0.00257"></path>
<path d="M0.182 0.788 Q0.869 0.600 0.652 0.224" stroke="hsl(180.0,100%,35%)" stroke-width="0.00086"></path>
<path d="M0.182 0.788 Q0.438 0.802 0.521 0.680" stroke="hsl(180.0,100%,35%)" stroke-width="0.00086"></path>
<path d="M0.182 0.788 Q1.247 0.998 1.890 0.524" stroke="hsl(180.0,100%,35%)" stroke-width="0.00086"></path>
<path d="M0.182 0.788 Q1.202 0.591 1.040 0.050" stroke="hsl(180.0,100%,35%)" stroke-width="0.00171"></path>
<path d="M0.182 0.788 Q0.410 0.907 0.692 0.822" stroke="hsl(180.0,100%,35%)" stroke-width="0.00086"></path>
<path d="M0.950 0.276 Q0.842 0.190 0.652 0.224" stroke="hsl(0.0,100%,35%)" stroke-width="0.02141"></path>
<path d="M0.950 0.276 Q0.412 0.392 0.521 0.680" stroke="hsl(0.0,100%,35%)" stroke-width="0.00171"></path>
<path d="M0.950 0.276 Q0.485 0.329 0.485 0.567" stroke="hsl(0.0,100%,35%)" stroke-width="0.00171"></path>
<path d="M0.950 0.276 Q0.602 0.115 0.211 0.249" stroke="hsl(0.0,100%,35%)" stroke-width="0.00086"></path>
<path d="M1.188 0.238 Q1.094 0.070 0.745 0.079" stroke="hsl(0.0,100%,35%)" stroke-width="0.00514"></path>
<path d="M1.188 0.238 Q0.691 0.048 0.211 0.249" stroke="hsl(0.0,100%,35%)" stroke-width="0.00342"></path>
<path d="M1.188 0.238 Q0.574 0.262 0.485 0.567" stroke="hsl(0.0,100%,35%)" stroke-width="0.00171"></path>
<path d="M1.843 0.735 Q1.919 0.585 1.644 0.515" stroke="hsl(180.0,100%,35%)" stroke-width="0.00171"></path>
<path d="M1.843 0.735 Q0.997 0.524 0.401 0.891" stroke="hsl(180.0,100%,35%)" stroke-width="0.00086"></path>
<path d="M1.843 0.735 Q2.035 0.639 1.890 0.524" stroke="hsl(180.0,100%,35%)" stroke-width="0.00086"></path>
</g>
<text x="1.414" y="0.045" font-size="0.009853" fill="hsl(0.0,100%,20%)">aperez</text>
<text x="1.040" y="0.040" font-size="0.020511" fill="hsl(0.0,100%,20%)">scroggo</text>
<text x="0.485" y="0.528" font-size="0.077167" fill="hsl(180.0,100%,20%)">brianosman</text>
<text x="0.211" y="0.222" font-size="0.053969" fill="hsl(0.0,100%,20%)">bungeman</text>
<text x="1.921" y="0.310" font-size="0.024797" fill="hsl(180.0,100%,20%)">armansito</text>
<text x="0.521" y="0.641" font-size="0.077376" fill="hsl(180.0,100%,20%)">johnstiles</text>
<text x="1.644" y="0.484" font-size="0.061534" fill="hsl(180.0,100%,20%)">michaelludwig</text>
<text x="0.692" y="0.803" font-size="0.038162" fill="hsl(180.0,100%,20%)">nicolettep</text>
<text x="0.401" y="0.869" font-size="0.042950" fill="hsl(180.0,100%,20%)">egdaniel</text>
<text x="1.334" y="0.368" font-size="0.050882" fill="hsl(180.0,100%,20%)">jvanverth</text>
<text x="0.652" y="0.189" font-size="0.069207" fill="hsl(0.0,100%,20%)">kjlubick</text>
<text x="0.173" y="0.376" font-size="0.016090" fill="hsl(0.0,100%,20%)">borenet</text>
<text x="0.371" y="0.410" font-size="0.011378" fill="hsl(0.0,100%,20%)">rmistry</text>
<text x="0.281" y="0.681" font-size="0.036868" fill="hsl(180.0,100%,20%)">herb</text>
<text x="1.890" y="0.503" font-size="0.042950" fill="hsl(180.0,100%,20%)">robertphillips</text>
<text x="0.505" y="0.760" font-size="0.017990" fill="hsl(180.0,100%,20%)">briansalomon</text>
<text x="0.347" y="0.100" font-size="0.020511" fill="hsl(0.0,100%,20%)">jlavrova</text>
<text x="0.172" y="0.127" font-size="0.030635" fill="hsl(0.0,100%,20%)">drott</text>
<text x="0.745" y="0.064" font-size="0.030635" fill="hsl(0.0,100%,20%)">fmalita</text>
<text x="1.509" y="0.586" font-size="0.028444" fill="hsl(180.0,100%,20%)">jamesgk</text>
<text x="1.206" y="0.116" font-size="0.005689" fill="hsl(0.0,100%,20%)">sharaks</text>
<text x="0.770" y="0.602" font-size="0.011378" fill="hsl(0.0,100%,20%)">jmbetancourt</text>
<text x="1.026" y="0.141" font-size="0.005689" fill="hsl(0.0,100%,20%)">bwils</text>
<text x="0.182" y="0.778" font-size="0.021286" fill="hsl(180.0,100%,20%)">nscobie</text>
<text x="0.950" y="0.258" font-size="0.036426" fill="hsl(0.0,100%,20%)">lovisolo</text>
<text x="1.188" y="0.228" font-size="0.019707" fill="hsl(0.0,100%,20%)">mike</text>
<text x="1.843" y="0.729" font-size="0.011378" fill="hsl(180.0,100%,20%)">penghuang</text>
<text x="1.137" y="0.030" font-size="0.005689" fill="hsl(0.0,100%,20%)">jreck</text>
</svg>
