<svg width="4000" height="2000" viewBox="-0.025 -0.025 2.05 1.05" xmlns="http://www.w3.org/2000/svg">
  <style>
    path {
      fill: none;
      stroke-linecap: round;
      stroke-opacity: 0.4;
    }

    text {
      text-anchor: middle;
      alignment-baseline: hanging;
    }
  </style>
  <g opacity="0.4">
<path d="M1.164 0.376 Q0.774 0.597 1.120 0.836" stroke="hsl(0.0,100%,35%)" stroke-width="0.00213"></path>
<path d="M1.164 0.376 Q1.188 0.312 1.069 0.287" stroke="hsl(0.0,100%,35%)" stroke-width="0.01064"></path>
<path d="M1.164 0.376 Q0.743 0.484 0.861 0.713" stroke="hsl(0.0,100%,35%)" stroke-width="0.00046"></path>
<path d="M1.164 0.376 Q0.564 0.620 0.908 0.966" stroke="hsl(0.0,100%,35%)" stroke-width="0.00061"></path>
<path d="M1.164 0.376 Q0.418 0.580 0.653 0.988" stroke="hsl(0.0,100%,35%)" stroke-width="0.00046"></path>
<path d="M1.164 0.376 Q0.815 0.157 0.313 0.280" stroke="hsl(0.0,100%,35%)" stroke-width="0.00046"></path>
<path d="M1.164 0.376 Q0.981 0.698 1.570 0.858" stroke="hsl(0.0,100%,35%)" stroke-width="0.00046"></path>
<path d="M1.164 0.376 Q1.246 0.459 1.426 0.437" stroke="hsl(0.0,100%,35%)" stroke-width="0.00015"></path>
<path d="M1.164 0.376 Q0.554 0.199 0.075 0.458" stroke="hsl(0.0,100%,35%)" stroke-width="0.00015"></path>
<path d="M1.164 0.376 Q1.092 0.411 1.145 0.454" stroke="hsl(0.0,100%,35%)" stroke-width="0.00030"></path>
<path d="M1.164 0.376 Q1.025 0.204 0.659 0.234" stroke="hsl(0.0,100%,35%)" stroke-width="0.00030"></path>
<path d="M1.164 0.376 Q0.914 0.259 0.632 0.356" stroke="hsl(0.0,100%,35%)" stroke-width="0.00015"></path>
<path d="M1.164 0.376 Q0.880 0.749 1.547 0.970" stroke="hsl(0.0,100%,35%)" stroke-width="0.00030"></path>
<path d="M1.120 0.836 Q0.900 0.438 0.075 0.458" stroke="hsl(0.0,100%,35%)" stroke-width="0.00593"></path>
<path d="M1.120 0.836 Q1.227 0.988 1.547 0.970" stroke="hsl(0.0,100%,35%)" stroke-width="0.00699"></path>
<path d="M1.120 0.836 Q1.260 0.498 0.632 0.356" stroke="hsl(0.0,100%,35%)" stroke-width="0.00046"></path>
<path d="M1.120 0.836 Q1.652 0.613 1.334 0.304" stroke="hsl(0.0,100%,35%)" stroke-width="0.00806"></path>
<path d="M1.120 0.836 Q1.025 0.582 0.509 0.573" stroke="hsl(0.0,100%,35%)" stroke-width="0.00122"></path>
<path d="M1.120 0.836 Q1.534 0.551 1.069 0.287" stroke="hsl(0.0,100%,35%)" stroke-width="0.00851"></path>
<path d="M1.120 0.836 Q0.831 0.647 0.399 0.747" stroke="hsl(0.0,100%,35%)" stroke-width="0.00015"></path>
<path d="M1.120 0.836 Q1.521 0.395 0.747 0.102" stroke="hsl(0.0,100%,35%)" stroke-width="0.00046"></path>
<path d="M1.120 0.836 Q1.371 0.443 0.659 0.234" stroke="hsl(0.0,100%,35%)" stroke-width="0.00030"></path>
<path d="M1.120 0.836 Q1.089 0.723 0.861 0.713" stroke="hsl(0.0,100%,35%)" stroke-width="0.00122"></path>
<path d="M1.120 0.836 Q1.327 0.937 1.570 0.858" stroke="hsl(0.0,100%,35%)" stroke-width="0.00350"></path>
<path d="M1.120 0.836 Q0.961 0.499 0.269 0.503" stroke="hsl(0.0,100%,35%)" stroke-width="0.00046"></path>
<path d="M1.120 0.836 Q1.592 0.698 1.426 0.437" stroke="hsl(0.0,100%,35%)" stroke-width="0.00076"></path>
<path d="M1.120 0.836 Q1.510 0.615 1.164 0.376" stroke="hsl(0.0,100%,35%)" stroke-width="0.00122"></path>
<path d="M1.120 0.836 Q1.305 0.815 1.306 0.721" stroke="hsl(0.0,100%,35%)" stroke-width="0.00015"></path>
<path d="M1.120 0.836 Q1.373 0.748 1.257 0.605" stroke="hsl(0.0,100%,35%)" stroke-width="0.00030"></path>
<path d="M1.120 0.836 Q1.161 0.397 0.313 0.280" stroke="hsl(0.0,100%,35%)" stroke-width="0.00046"></path>
<path d="M1.120 0.836 Q0.764 0.819 0.653 0.988" stroke="hsl(0.0,100%,35%)" stroke-width="0.00015"></path>
<path d="M1.120 0.836 Q1.438 0.650 1.145 0.454" stroke="hsl(0.0,100%,35%)" stroke-width="0.00030"></path>
<path d="M1.069 0.287 Q1.187 0.348 1.334 0.304" stroke="hsl(0.0,100%,35%)" stroke-width="0.01444"></path>
<path d="M1.069 0.287 Q0.862 0.673 1.570 0.858" stroke="hsl(0.0,100%,35%)" stroke-width="0.00274"></path>
<path d="M1.069 0.287 Q0.624 0.458 0.861 0.713" stroke="hsl(0.0,100%,35%)" stroke-width="0.00137"></path>
<path d="M1.069 0.287 Q0.655 0.572 1.120 0.836" stroke="hsl(0.0,100%,35%)" stroke-width="0.00456"></path>
<path d="M1.069 0.287 Q0.299 0.554 0.653 0.988" stroke="hsl(0.0,100%,35%)" stroke-width="0.00091"></path>
<path d="M1.069 0.287 Q0.761 0.724 1.547 0.970" stroke="hsl(0.0,100%,35%)" stroke-width="0.00532"></path>
<path d="M1.069 0.287 Q0.973 0.386 1.145 0.454" stroke="hsl(0.0,100%,35%)" stroke-width="0.00030"></path>
<path d="M1.069 0.287 Q0.435 0.174 0.075 0.458" stroke="hsl(0.0,100%,35%)" stroke-width="0.00076"></path>
<path d="M1.069 0.287 Q0.559 0.318 0.509 0.573" stroke="hsl(0.0,100%,35%)" stroke-width="0.00015"></path>
<path d="M1.069 0.287 Q1.055 0.722 1.902 0.825" stroke="hsl(0.0,100%,35%)" stroke-width="0.00061"></path>
<path d="M1.069 0.287 Q0.715 0.229 0.526 0.389" stroke="hsl(0.0,100%,35%)" stroke-width="0.00015"></path>
<path d="M1.069 0.287 Q0.795 0.234 0.632 0.356" stroke="hsl(0.0,100%,35%)" stroke-width="0.00030"></path>
<path d="M1.069 0.287 Q1.127 0.433 1.426 0.437" stroke="hsl(0.0,100%,35%)" stroke-width="0.00030"></path>
<path d="M1.069 0.287 Q1.045 0.350 1.164 0.376" stroke="hsl(0.0,100%,35%)" stroke-width="0.00182"></path>
<path d="M1.069 0.287 Q0.440 0.530 0.777 0.890" stroke="hsl(0.0,100%,35%)" stroke-width="0.00015"></path>
<path d="M1.069 0.287 Q0.366 0.383 0.399 0.747" stroke="hsl(0.0,100%,35%)" stroke-width="0.00015"></path>
<path d="M0.861 0.713 Q1.100 0.928 1.570 0.858" stroke="hsl(0.0,100%,35%)" stroke-width="0.00441"></path>
<path d="M0.861 0.713 Q1.425 0.603 1.334 0.304" stroke="hsl(0.0,100%,35%)" stroke-width="0.01079"></path>
<path d="M0.861 0.713 Q0.999 0.979 1.547 0.970" stroke="hsl(0.0,100%,35%)" stroke-width="0.00806"></path>
<path d="M0.861 0.713 Q1.403 0.881 1.849 0.654" stroke="hsl(0.0,100%,35%)" stroke-width="0.00015"></path>
<path d="M0.861 0.713 Q1.306 0.541 1.069 0.287" stroke="hsl(0.0,100%,35%)" stroke-width="0.00760"></path>
<path d="M0.861 0.713 Q0.672 0.428 0.075 0.458" stroke="hsl(0.0,100%,35%)" stroke-width="0.00380"></path>
<path d="M0.861 0.713 Q1.144 0.433 0.659 0.234" stroke="hsl(0.0,100%,35%)" stroke-width="0.00076"></path>
<path d="M0.861 0.713 Q0.892 0.826 1.120 0.836" stroke="hsl(0.0,100%,35%)" stroke-width="0.01505"></path>
<path d="M0.861 0.713 Q0.797 0.573 0.509 0.573" stroke="hsl(0.0,100%,35%)" stroke-width="0.00258"></path>
<path d="M0.861 0.713 Q1.033 0.489 0.632 0.356" stroke="hsl(0.0,100%,35%)" stroke-width="0.00015"></path>
<path d="M0.861 0.713 Q1.015 0.747 1.114 0.679" stroke="hsl(0.0,100%,35%)" stroke-width="0.00030"></path>
<path d="M0.861 0.713 Q0.618 0.728 0.593 0.850" stroke="hsl(0.0,100%,35%)" stroke-width="0.00015"></path>
<path d="M0.861 0.713 Q1.211 0.640 1.145 0.454" stroke="hsl(0.0,100%,35%)" stroke-width="0.00106"></path>
<path d="M0.861 0.713 Q1.283 0.605 1.164 0.376" stroke="hsl(0.0,100%,35%)" stroke-width="0.00228"></path>
<path d="M0.861 0.713 Q1.364 0.688 1.426 0.437" stroke="hsl(0.0,100%,35%)" stroke-width="0.00046"></path>
<path d="M0.861 0.713 Q1.218 0.882 1.626 0.745" stroke="hsl(0.0,100%,35%)" stroke-width="0.00137"></path>
<path d="M0.861 0.713 Q1.418 0.406 0.942 0.067" stroke="hsl(0.0,100%,35%)" stroke-width="0.00015"></path>
<path d="M0.861 0.713 Q0.934 0.387 0.313 0.280" stroke="hsl(0.0,100%,35%)" stroke-width="0.00015"></path>
<path d="M0.861 0.713 Q0.537 0.809 0.653 0.988" stroke="hsl(0.0,100%,35%)" stroke-width="0.00015"></path>
<path d="M0.908 0.966 Q0.843 0.845 0.593 0.850" stroke="hsl(120.0,100%,35%)" stroke-width="0.00137"></path>
<path d="M0.908 0.966 Q1.436 0.758 1.145 0.454" stroke="hsl(120.0,100%,35%)" stroke-width="0.00046"></path>
<path d="M0.908 0.966 Q1.532 0.659 1.069 0.287" stroke="hsl(120.0,100%,35%)" stroke-width="0.00137"></path>
<path d="M0.908 0.966 Q0.762 0.926 0.653 0.988" stroke="hsl(120.0,100%,35%)" stroke-width="0.00319"></path>
<path d="M0.908 0.966 Q0.829 0.755 0.399 0.747" stroke="hsl(120.0,100%,35%)" stroke-width="0.00015"></path>
<path d="M0.908 0.966 Q1.258 0.606 0.632 0.356" stroke="hsl(120.0,100%,35%)" stroke-width="0.00015"></path>
<path d="M0.908 0.966 Q1.087 0.830 0.861 0.713" stroke="hsl(120.0,100%,35%)" stroke-width="0.00061"></path>
<path d="M0.653 0.988 Q0.798 1.028 0.908 0.966" stroke="hsl(120.0,100%,35%)" stroke-width="0.00380"></path>
<path d="M0.653 0.988 Q0.734 0.907 0.593 0.850" stroke="hsl(120.0,100%,35%)" stroke-width="0.00046"></path>
<path d="M0.653 0.988 Q0.913 0.752 0.509 0.573" stroke="hsl(120.0,100%,35%)" stroke-width="0.00030"></path>
<path d="M0.653 0.988 Q0.562 0.795 0.165 0.797" stroke="hsl(120.0,100%,35%)" stroke-width="0.00030"></path>
<path d="M0.653 0.988 Q1.540 0.783 1.334 0.304" stroke="hsl(120.0,100%,35%)" stroke-width="0.00015"></path>
<path d="M0.653 0.988 Q1.534 0.586 0.942 0.067" stroke="hsl(120.0,100%,35%)" stroke-width="0.00015"></path>
<path d="M0.653 0.988 Q0.849 0.669 0.269 0.503" stroke="hsl(120.0,100%,35%)" stroke-width="0.00015"></path>
<path d="M0.653 0.988 Q1.008 1.006 1.120 0.836" stroke="hsl(120.0,100%,35%)" stroke-width="0.00015"></path>
<path d="M0.653 0.988 Q1.115 1.158 1.547 0.970" stroke="hsl(120.0,100%,35%)" stroke-width="0.00015"></path>
<path d="M0.653 0.988 Q1.326 0.820 1.145 0.454" stroke="hsl(120.0,100%,35%)" stroke-width="0.00046"></path>
<path d="M0.653 0.988 Q0.793 0.964 0.777 0.890" stroke="hsl(120.0,100%,35%)" stroke-width="0.00091"></path>
<path d="M0.653 0.988 Q1.049 0.566 0.313 0.280" stroke="hsl(120.0,100%,35%)" stroke-width="0.00015"></path>
<path d="M0.313 0.280 Q0.051 0.322 0.075 0.458" stroke="hsl(240.0,100%,35%)" stroke-width="0.00745"></path>
<path d="M0.313 0.280 Q0.743 0.581 1.426 0.437" stroke="hsl(240.0,100%,35%)" stroke-width="0.00152"></path>
<path d="M0.313 0.280 Q0.271 0.719 1.120 0.836" stroke="hsl(240.0,100%,35%)" stroke-width="0.00046"></path>
<path d="M0.313 0.280 Q0.240 0.606 0.861 0.713" stroke="hsl(240.0,100%,35%)" stroke-width="0.00015"></path>
<path d="M0.313 0.280 Q-0.084 0.702 0.653 0.988" stroke="hsl(240.0,100%,35%)" stroke-width="0.00350"></path>
<path d="M0.313 0.280 Q0.671 0.870 1.902 0.825" stroke="hsl(240.0,100%,35%)" stroke-width="0.00030"></path>
<path d="M0.313 0.280 Q0.057 0.678 0.777 0.890" stroke="hsl(240.0,100%,35%)" stroke-width="0.00030"></path>
<path d="M0.313 0.280 Q0.479 0.821 1.570 0.858" stroke="hsl(240.0,100%,35%)" stroke-width="0.00015"></path>
<path d="M0.313 0.280 Q0.662 0.498 1.164 0.376" stroke="hsl(240.0,100%,35%)" stroke-width="0.00046"></path>
<path d="M0.313 0.280 Q0.523 0.326 0.659 0.234" stroke="hsl(240.0,100%,35%)" stroke-width="0.00258"></path>
<path d="M0.313 0.280 Q0.176 0.466 0.509 0.573" stroke="hsl(240.0,100%,35%)" stroke-width="0.00015"></path>
<path d="M0.313 0.280 Q0.113 0.383 0.269 0.503" stroke="hsl(240.0,100%,35%)" stroke-width="0.00015"></path>
<path d="M1.570 0.858 Q1.470 0.909 1.547 0.970" stroke="hsl(0.0,100%,35%)" stroke-width="0.01247"></path>
<path d="M1.570 0.858 Q1.777 0.472 1.069 0.287" stroke="hsl(0.0,100%,35%)" stroke-width="0.00350"></path>
<path d="M1.570 0.858 Q1.268 0.503 0.509 0.573" stroke="hsl(0.0,100%,35%)" stroke-width="0.00198"></path>
<path d="M1.570 0.858 Q1.143 0.359 0.075 0.458" stroke="hsl(0.0,100%,35%)" stroke-width="0.00365"></path>
<path d="M1.570 0.858 Q1.895 0.534 1.334 0.304" stroke="hsl(0.0,100%,35%)" stroke-width="0.00243"></path>
<path d="M1.570 0.858 Q1.332 0.644 0.861 0.713" stroke="hsl(0.0,100%,35%)" stroke-width="0.00061"></path>
<path d="M1.570 0.858 Q1.204 0.420 0.269 0.503" stroke="hsl(0.0,100%,35%)" stroke-width="0.00015"></path>
<path d="M1.570 0.858 Q1.363 0.757 1.120 0.836" stroke="hsl(0.0,100%,35%)" stroke-width="0.00289"></path>
<path d="M1.570 0.858 Q0.917 0.547 0.165 0.797" stroke="hsl(0.0,100%,35%)" stroke-width="0.00015"></path>
<path d="M1.570 0.858 Q1.503 0.420 0.632 0.356" stroke="hsl(0.0,100%,35%)" stroke-width="0.00015"></path>
<path d="M1.570 0.858 Q1.753 0.536 1.164 0.376" stroke="hsl(0.0,100%,35%)" stroke-width="0.00046"></path>
<path d="M1.570 0.858 Q1.007 0.740 0.653 0.988" stroke="hsl(0.0,100%,35%)" stroke-width="0.00015"></path>
<path d="M1.570 0.858 Q1.835 0.619 1.426 0.437" stroke="hsl(0.0,100%,35%)" stroke-width="0.00015"></path>
<path d="M1.570 0.858 Q1.681 0.571 1.145 0.454" stroke="hsl(0.0,100%,35%)" stroke-width="0.00015"></path>
<path d="M1.570 0.858 Q1.148 0.716 0.777 0.890" stroke="hsl(0.0,100%,35%)" stroke-width="0.00015"></path>
<path d="M1.570 0.858 Q1.889 0.337 0.942 0.067" stroke="hsl(0.0,100%,35%)" stroke-width="0.00015"></path>
<path d="M1.570 0.858 Q1.770 0.544 1.201 0.378" stroke="hsl(0.0,100%,35%)" stroke-width="0.00015"></path>
<path d="M1.426 0.437 Q0.664 0.386 0.399 0.747" stroke="hsl(120.0,100%,35%)" stroke-width="0.00015"></path>
<path d="M1.426 0.437 Q1.205 0.182 0.659 0.234" stroke="hsl(120.0,100%,35%)" stroke-width="0.00122"></path>
<path d="M1.426 0.437 Q1.354 0.726 1.902 0.825" stroke="hsl(120.0,100%,35%)" stroke-width="0.00563"></path>
<path d="M1.426 0.437 Q0.954 0.576 1.120 0.836" stroke="hsl(120.0,100%,35%)" stroke-width="0.00167"></path>
<path d="M1.426 0.437 Q1.659 0.385 1.607 0.259" stroke="hsl(120.0,100%,35%)" stroke-width="0.00015"></path>
<path d="M1.426 0.437 Q1.280 0.631 1.626 0.745" stroke="hsl(120.0,100%,35%)" stroke-width="0.00046"></path>
<path d="M1.426 0.437 Q0.733 0.178 0.075 0.458" stroke="hsl(120.0,100%,35%)" stroke-width="0.00228"></path>
<path d="M1.426 0.437 Q0.858 0.322 0.509 0.573" stroke="hsl(120.0,100%,35%)" stroke-width="0.00046"></path>
<path d="M1.426 0.437 Q1.486 0.352 1.334 0.304" stroke="hsl(120.0,100%,35%)" stroke-width="0.00091"></path>
<path d="M1.426 0.437 Q1.272 0.390 1.145 0.454" stroke="hsl(120.0,100%,35%)" stroke-width="0.00258"></path>
<path d="M1.426 0.437 Q1.094 0.238 0.632 0.356" stroke="hsl(120.0,100%,35%)" stroke-width="0.00091"></path>
<path d="M1.426 0.437 Q1.361 0.363 1.201 0.378" stroke="hsl(120.0,100%,35%)" stroke-width="0.00122"></path>
<path d="M1.426 0.437 Q1.664 0.414 1.671 0.292" stroke="hsl(120.0,100%,35%)" stroke-width="0.00015"></path>
<path d="M1.426 0.437 Q0.923 0.462 0.861 0.713" stroke="hsl(120.0,100%,35%)" stroke-width="0.00015"></path>
<path d="M1.426 0.437 Q1.014 0.233 0.526 0.389" stroke="hsl(120.0,100%,35%)" stroke-width="0.00182"></path>
<path d="M1.426 0.437 Q1.354 0.134 0.747 0.102" stroke="hsl(120.0,100%,35%)" stroke-width="0.00015"></path>
<path d="M1.426 0.437 Q0.995 0.136 0.313 0.280" stroke="hsl(120.0,100%,35%)" stroke-width="0.00076"></path>
<path d="M1.426 0.437 Q1.480 0.155 0.942 0.067" stroke="hsl(120.0,100%,35%)" stroke-width="0.00015"></path>
<path d="M0.075 0.458 Q0.828 0.633 1.334 0.304" stroke="hsl(240.0,100%,35%)" stroke-width="0.00639"></path>
<path d="M0.075 0.458 Q0.696 0.415 0.747 0.102" stroke="hsl(240.0,100%,35%)" stroke-width="0.00122"></path>
<path d="M0.075 0.458 Q0.200 0.602 0.509 0.573" stroke="hsl(240.0,100%,35%)" stroke-width="0.02509"></path>
<path d="M0.075 0.458 Q0.614 0.670 1.145 0.454" stroke="hsl(240.0,100%,35%)" stroke-width="0.00289"></path>
<path d="M0.075 0.458 Q0.021 0.758 0.593 0.850" stroke="hsl(240.0,100%,35%)" stroke-width="0.00076"></path>
<path d="M0.075 0.458 Q0.295 0.856 1.120 0.836" stroke="hsl(240.0,100%,35%)" stroke-width="0.01155"></path>
<path d="M0.075 0.458 Q0.821 0.436 0.942 0.067" stroke="hsl(240.0,100%,35%)" stroke-width="0.00030"></path>
<path d="M0.075 0.458 Q0.709 0.571 1.069 0.287" stroke="hsl(240.0,100%,35%)" stroke-width="0.00122"></path>
<path d="M0.075 0.458 Q0.402 1.008 1.547 0.970" stroke="hsl(240.0,100%,35%)" stroke-width="0.00122"></path>
<path d="M0.075 0.458 Q0.137 0.519 0.269 0.503" stroke="hsl(240.0,100%,35%)" stroke-width="0.00456"></path>
<path d="M0.075 0.458 Q0.547 0.463 0.659 0.234" stroke="hsl(240.0,100%,35%)" stroke-width="0.00122"></path>
<path d="M0.075 0.458 Q0.356 0.514 0.526 0.389" stroke="hsl(240.0,100%,35%)" stroke-width="0.00015"></path>
<path d="M0.075 0.458 Q0.085 0.879 0.908 0.966" stroke="hsl(240.0,100%,35%)" stroke-width="0.00030"></path>
<path d="M0.075 0.458 Q0.264 0.743 0.861 0.713" stroke="hsl(240.0,100%,35%)" stroke-width="0.00076"></path>
<path d="M0.075 0.458 Q0.502 0.957 1.570 0.858" stroke="hsl(240.0,100%,35%)" stroke-width="0.00046"></path>
<path d="M0.075 0.458 Q-0.060 0.839 0.653 0.988" stroke="hsl(240.0,100%,35%)" stroke-width="0.00122"></path>
<path d="M0.075 0.458 Q0.767 0.718 1.426 0.437" stroke="hsl(240.0,100%,35%)" stroke-width="0.00289"></path>
<path d="M0.075 0.458 Q0.695 1.007 1.902 0.825" stroke="hsl(240.0,100%,35%)" stroke-width="0.00076"></path>
<path d="M0.075 0.458 Q0.436 0.518 0.632 0.356" stroke="hsl(240.0,100%,35%)" stroke-width="0.00015"></path>
<path d="M0.075 0.458 Q0.806 0.911 1.849 0.654" stroke="hsl(240.0,100%,35%)" stroke-width="0.00030"></path>
<path d="M0.075 0.458 Q0.337 0.417 0.313 0.280" stroke="hsl(240.0,100%,35%)" stroke-width="0.00593"></path>
<path d="M0.075 0.458 Q0.006 0.667 0.399 0.747" stroke="hsl(240.0,100%,35%)" stroke-width="0.00015"></path>
<path d="M1.145 0.454 Q0.617 0.663 0.908 0.966" stroke="hsl(120.0,100%,35%)" stroke-width="0.00198"></path>
<path d="M1.145 0.454 Q0.552 0.542 0.593 0.850" stroke="hsl(120.0,100%,35%)" stroke-width="0.00213"></path>
<path d="M1.145 0.454 Q0.607 0.242 0.075 0.458" stroke="hsl(120.0,100%,35%)" stroke-width="0.00350"></path>
<path d="M1.145 0.454 Q0.471 0.623 0.653 0.988" stroke="hsl(120.0,100%,35%)" stroke-width="0.00274"></path>
<path d="M1.145 0.454 Q1.234 0.427 1.201 0.378" stroke="hsl(120.0,100%,35%)" stroke-width="0.00046"></path>
<path d="M1.145 0.454 Q1.080 0.552 1.257 0.605" stroke="hsl(120.0,100%,35%)" stroke-width="0.00243"></path>
<path d="M1.145 0.454 Q0.987 0.507 1.056 0.596" stroke="hsl(120.0,100%,35%)" stroke-width="0.00380"></path>
<path d="M1.145 0.454 Q1.359 0.417 1.334 0.304" stroke="hsl(120.0,100%,35%)" stroke-width="0.00030"></path>
<path d="M1.145 0.454 Q0.967 0.302 0.632 0.356" stroke="hsl(120.0,100%,35%)" stroke-width="0.00365"></path>
<path d="M1.145 0.454 Q0.827 0.640 1.120 0.836" stroke="hsl(120.0,100%,35%)" stroke-width="0.00137"></path>
<path d="M1.145 0.454 Q0.934 0.792 1.547 0.970" stroke="hsl(120.0,100%,35%)" stroke-width="0.00061"></path>
<path d="M1.145 0.454 Q1.353 0.220 0.942 0.067" stroke="hsl(120.0,100%,35%)" stroke-width="0.00061"></path>
<path d="M1.145 0.454 Q1.241 0.355 1.069 0.287" stroke="hsl(120.0,100%,35%)" stroke-width="0.00046"></path>
<path d="M1.145 0.454 Q0.732 0.386 0.509 0.573" stroke="hsl(120.0,100%,35%)" stroke-width="0.00091"></path>
<path d="M1.145 0.454 Q0.381 0.430 0.165 0.797" stroke="hsl(120.0,100%,35%)" stroke-width="0.00030"></path>
<path d="M1.145 0.454 Q1.227 0.791 1.902 0.825" stroke="hsl(120.0,100%,35%)" stroke-width="0.00030"></path>
<path d="M1.145 0.454 Q1.299 0.502 1.426 0.437" stroke="hsl(120.0,100%,35%)" stroke-width="0.00106"></path>
<path d="M1.145 0.454 Q0.796 0.527 0.861 0.713" stroke="hsl(120.0,100%,35%)" stroke-width="0.00015"></path>
<path d="M1.145 0.454 Q1.338 0.695 1.849 0.654" stroke="hsl(120.0,100%,35%)" stroke-width="0.00030"></path>
<path d="M1.145 0.454 Q1.153 0.695 1.626 0.745" stroke="hsl(120.0,100%,35%)" stroke-width="0.00015"></path>
<path d="M1.145 0.454 Q1.078 0.247 0.659 0.234" stroke="hsl(120.0,100%,35%)" stroke-width="0.00030"></path>
<path d="M1.145 0.454 Q1.228 0.198 0.747 0.102" stroke="hsl(120.0,100%,35%)" stroke-width="0.00015"></path>
<path d="M1.145 0.454 Q1.034 0.741 1.570 0.858" stroke="hsl(120.0,100%,35%)" stroke-width="0.00030"></path>
<path d="M1.145 0.454 Q0.888 0.298 0.526 0.389" stroke="hsl(120.0,100%,35%)" stroke-width="0.00030"></path>
<path d="M1.145 0.454 Q0.612 0.598 0.777 0.890" stroke="hsl(120.0,100%,35%)" stroke-width="0.00015"></path>
<path d="M1.145 0.454 Q0.538 0.451 0.399 0.747" stroke="hsl(120.0,100%,35%)" stroke-width="0.00015"></path>
<path d="M0.659 0.234 Q0.548 0.290 0.632 0.356" stroke="hsl(120.0,100%,35%)" stroke-width="0.00502"></path>
<path d="M0.659 0.234 Q0.188 0.229 0.075 0.458" stroke="hsl(120.0,100%,35%)" stroke-width="0.00684"></path>
<path d="M0.659 0.234 Q0.822 0.342 1.069 0.287" stroke="hsl(120.0,100%,35%)" stroke-width="0.00882"></path>
<path d="M0.659 0.234 Q0.408 0.627 1.120 0.836" stroke="hsl(120.0,100%,35%)" stroke-width="0.00091"></path>
<path d="M0.659 0.234 Q0.249 0.290 0.269 0.503" stroke="hsl(120.0,100%,35%)" stroke-width="0.00015"></path>
<path d="M0.659 0.234 Q0.880 0.489 1.426 0.437" stroke="hsl(120.0,100%,35%)" stroke-width="0.00228"></path>
<path d="M0.659 0.234 Q0.377 0.514 0.861 0.713" stroke="hsl(120.0,100%,35%)" stroke-width="0.00076"></path>
<path d="M0.659 0.234 Q0.313 0.373 0.509 0.573" stroke="hsl(120.0,100%,35%)" stroke-width="0.00046"></path>
<path d="M0.659 0.234 Q0.668 0.301 0.800 0.311" stroke="hsl(120.0,100%,35%)" stroke-width="0.00015"></path>
<path d="M0.659 0.234 Q0.726 0.441 1.145 0.454" stroke="hsl(120.0,100%,35%)" stroke-width="0.00015"></path>
<path d="M0.659 0.234 Q0.798 0.406 1.164 0.376" stroke="hsl(120.0,100%,35%)" stroke-width="0.00030"></path>
<path d="M0.659 0.234 Q0.469 0.285 0.526 0.389" stroke="hsl(120.0,100%,35%)" stroke-width="0.00061"></path>
<path d="M0.659 0.234 Q0.940 0.404 1.334 0.304" stroke="hsl(120.0,100%,35%)" stroke-width="0.00076"></path>
<path d="M0.632 0.356 Q0.893 0.252 0.747 0.102" stroke="hsl(120.0,100%,35%)" stroke-width="0.00046"></path>
<path d="M0.632 0.356 Q0.743 0.300 0.659 0.234" stroke="hsl(120.0,100%,35%)" stroke-width="0.00517"></path>
<path d="M0.632 0.356 Q1.024 0.470 1.334 0.304" stroke="hsl(120.0,100%,35%)" stroke-width="0.00030"></path>
<path d="M0.632 0.356 Q0.810 0.508 1.145 0.454" stroke="hsl(120.0,100%,35%)" stroke-width="0.00061"></path>
<path d="M0.632 0.356 Q0.553 0.351 0.526 0.389" stroke="hsl(120.0,100%,35%)" stroke-width="0.00106"></path>
<path d="M0.632 0.356 Q0.272 0.296 0.075 0.458" stroke="hsl(120.0,100%,35%)" stroke-width="0.00106"></path>
<path d="M0.632 0.356 Q0.397 0.440 0.509 0.573" stroke="hsl(120.0,100%,35%)" stroke-width="0.00061"></path>
<path d="M0.632 0.356 Q0.599 0.846 1.547 0.970" stroke="hsl(120.0,100%,35%)" stroke-width="0.00061"></path>
<path d="M0.632 0.356 Q0.203 0.504 0.399 0.747" stroke="hsl(120.0,100%,35%)" stroke-width="0.00046"></path>
<path d="M0.632 0.356 Q0.964 0.555 1.426 0.437" stroke="hsl(120.0,100%,35%)" stroke-width="0.00213"></path>
<path d="M0.632 0.356 Q0.906 0.408 1.069 0.287" stroke="hsl(120.0,100%,35%)" stroke-width="0.00046"></path>
<path d="M0.632 0.356 Q0.716 0.413 0.844 0.384" stroke="hsl(120.0,100%,35%)" stroke-width="0.00015"></path>
<path d="M0.632 0.356 Q0.892 0.844 1.902 0.825" stroke="hsl(120.0,100%,35%)" stroke-width="0.00106"></path>
<path d="M0.632 0.356 Q0.600 0.425 0.729 0.457" stroke="hsl(120.0,100%,35%)" stroke-width="0.00076"></path>
<path d="M0.632 0.356 Q0.533 0.254 0.313 0.280" stroke="hsl(120.0,100%,35%)" stroke-width="0.00122"></path>
<path d="M0.632 0.356 Q1.018 0.273 0.942 0.067" stroke="hsl(120.0,100%,35%)" stroke-width="0.00015"></path>
<path d="M0.632 0.356 Q0.699 0.795 1.570 0.858" stroke="hsl(120.0,100%,35%)" stroke-width="0.00015"></path>
<path d="M1.547 0.970 Q1.973 0.594 1.334 0.304" stroke="hsl(0.0,100%,35%)" stroke-width="0.00152"></path>
<path d="M1.547 0.970 Q1.440 0.817 1.120 0.836" stroke="hsl(0.0,100%,35%)" stroke-width="0.00608"></path>
<path d="M1.547 0.970 Q1.854 0.532 1.069 0.287" stroke="hsl(0.0,100%,35%)" stroke-width="0.00350"></path>
<path d="M1.547 0.970 Q1.648 0.919 1.570 0.858" stroke="hsl(0.0,100%,35%)" stroke-width="0.00897"></path>
<path d="M1.547 0.970 Q1.409 0.704 0.861 0.713" stroke="hsl(0.0,100%,35%)" stroke-width="0.00258"></path>
<path d="M1.547 0.970 Q1.581 0.480 0.632 0.356" stroke="hsl(0.0,100%,35%)" stroke-width="0.00030"></path>
<path d="M1.547 0.970 Q1.759 0.631 1.145 0.454" stroke="hsl(0.0,100%,35%)" stroke-width="0.00015"></path>
<path d="M1.547 0.970 Q1.282 0.481 0.269 0.503" stroke="hsl(0.0,100%,35%)" stroke-width="0.00015"></path>
<path d="M1.547 0.970 Q1.085 0.800 0.653 0.988" stroke="hsl(0.0,100%,35%)" stroke-width="0.00015"></path>
<path d="M1.547 0.970 Q1.841 0.376 0.747 0.102" stroke="hsl(0.0,100%,35%)" stroke-width="0.00015"></path>
<path d="M1.547 0.970 Q1.912 0.679 1.426 0.437" stroke="hsl(0.0,100%,35%)" stroke-width="0.00015"></path>
<path d="M1.547 0.970 Q1.966 0.397 0.942 0.067" stroke="hsl(0.0,100%,35%)" stroke-width="0.00015"></path>
<path d="M1.547 0.970 Q1.220 0.420 0.075 0.458" stroke="hsl(0.0,100%,35%)" stroke-width="0.00046"></path>
<path d="M0.293 0.389 Q0.129 0.380 0.075 0.458" stroke="hsl(240.0,100%,35%)" stroke-width="0.00015"></path>
<path d="M0.293 0.389 Q-0.006 0.761 0.653 0.988" stroke="hsl(240.0,100%,35%)" stroke-width="0.00015"></path>
<path d="M0.293 0.389 Q0.254 0.524 0.509 0.573" stroke="hsl(240.0,100%,35%)" stroke-width="0.00046"></path>
<path d="M0.509 0.573 Q0.384 0.429 0.075 0.458" stroke="hsl(240.0,100%,35%)" stroke-width="0.10688"></path>
<path d="M0.509 0.573 Q0.445 0.490 0.269 0.503" stroke="hsl(240.0,100%,35%)" stroke-width="0.04181"></path>
<path d="M0.509 0.573 Q1.115 0.881 1.849 0.654" stroke="hsl(240.0,100%,35%)" stroke-width="0.00030"></path>
<path d="M0.509 0.573 Q0.744 0.489 0.632 0.356" stroke="hsl(240.0,100%,35%)" stroke-width="0.00061"></path>
<path d="M0.509 0.573 Q0.665 0.485 0.526 0.389" stroke="hsl(240.0,100%,35%)" stroke-width="0.00106"></path>
<path d="M0.509 0.573 Q0.855 0.434 0.659 0.234" stroke="hsl(240.0,100%,35%)" stroke-width="0.00106"></path>
<path d="M0.509 0.573 Q0.573 0.714 0.861 0.713" stroke="hsl(240.0,100%,35%)" stroke-width="0.00046"></path>
<path d="M0.509 0.573 Q0.711 0.979 1.547 0.970" stroke="hsl(240.0,100%,35%)" stroke-width="0.00213"></path>
<path d="M0.509 0.573 Q0.811 0.928 1.570 0.858" stroke="hsl(240.0,100%,35%)" stroke-width="0.00167"></path>
<path d="M0.509 0.573 Q0.158 0.617 0.165 0.797" stroke="hsl(240.0,100%,35%)" stroke-width="0.00015"></path>
<path d="M0.509 0.573 Q0.922 0.641 1.145 0.454" stroke="hsl(240.0,100%,35%)" stroke-width="0.00091"></path>
<path d="M0.509 0.573 Q1.004 0.978 1.902 0.825" stroke="hsl(240.0,100%,35%)" stroke-width="0.00030"></path>
<path d="M0.509 0.573 Q1.130 0.407 0.942 0.067" stroke="hsl(240.0,100%,35%)" stroke-width="0.00061"></path>
<path d="M0.509 0.573 Q1.136 0.604 1.334 0.304" stroke="hsl(240.0,100%,35%)" stroke-width="0.00167"></path>
<path d="M0.509 0.573 Q0.604 0.827 1.120 0.836" stroke="hsl(240.0,100%,35%)" stroke-width="0.00471"></path>
<path d="M0.509 0.573 Q0.394 0.849 0.908 0.966" stroke="hsl(240.0,100%,35%)" stroke-width="0.00046"></path>
<path d="M0.509 0.573 Q1.076 0.688 1.426 0.437" stroke="hsl(240.0,100%,35%)" stroke-width="0.00198"></path>
<path d="M0.509 0.573 Q1.018 0.542 1.069 0.287" stroke="hsl(240.0,100%,35%)" stroke-width="0.00137"></path>
<path d="M0.509 0.573 Q0.930 0.882 1.626 0.745" stroke="hsl(240.0,100%,35%)" stroke-width="0.00015"></path>
<path d="M0.509 0.573 Q1.005 0.385 0.747 0.102" stroke="hsl(240.0,100%,35%)" stroke-width="0.00046"></path>
<path d="M0.509 0.573 Q0.329 0.729 0.593 0.850" stroke="hsl(240.0,100%,35%)" stroke-width="0.00015"></path>
<path d="M0.509 0.573 Q0.645 0.387 0.313 0.280" stroke="hsl(240.0,100%,35%)" stroke-width="0.00076"></path>
<path d="M0.509 0.573 Q0.994 0.605 1.164 0.376" stroke="hsl(240.0,100%,35%)" stroke-width="0.00015"></path>
<path d="M0.593 0.850 Q0.658 0.971 0.908 0.966" stroke="hsl(120.0,100%,35%)" stroke-width="0.00061"></path>
<path d="M0.593 0.850 Q0.422 0.738 0.165 0.797" stroke="hsl(120.0,100%,35%)" stroke-width="0.00015"></path>
<path d="M0.593 0.850 Q1.008 0.611 0.632 0.356" stroke="hsl(120.0,100%,35%)" stroke-width="0.00061"></path>
<path d="M0.593 0.850 Q0.512 0.931 0.653 0.988" stroke="hsl(120.0,100%,35%)" stroke-width="0.00228"></path>
<path d="M0.593 0.850 Q0.975 1.101 1.547 0.970" stroke="hsl(120.0,100%,35%)" stroke-width="0.00015"></path>
<path d="M0.593 0.850 Q0.648 0.551 0.075 0.458" stroke="hsl(120.0,100%,35%)" stroke-width="0.00015"></path>
<path d="M0.593 0.850 Q0.773 0.695 0.509 0.573" stroke="hsl(120.0,100%,35%)" stroke-width="0.00030"></path>
<path d="M0.593 0.850 Q0.868 0.948 1.120 0.836" stroke="hsl(120.0,100%,35%)" stroke-width="0.00015"></path>
<path d="M0.593 0.850 Q0.909 0.509 0.313 0.280" stroke="hsl(120.0,100%,35%)" stroke-width="0.00015"></path>
<path d="M0.593 0.850 Q1.258 0.727 1.164 0.376" stroke="hsl(120.0,100%,35%)" stroke-width="0.00015"></path>
<path d="M0.593 0.850 Q0.837 0.835 0.861 0.713" stroke="hsl(120.0,100%,35%)" stroke-width="0.00015"></path>
<path d="M0.593 0.850 Q0.579 0.759 0.399 0.747" stroke="hsl(120.0,100%,35%)" stroke-width="0.00046"></path>
<path d="M0.593 0.850 Q1.186 0.762 1.145 0.454" stroke="hsl(120.0,100%,35%)" stroke-width="0.00015"></path>
<path d="M0.593 0.850 Q1.268 1.099 1.902 0.825" stroke="hsl(120.0,100%,35%)" stroke-width="0.00015"></path>
<path d="M0.165 0.797 Q0.772 0.875 1.056 0.596" stroke="hsl(120.0,100%,35%)" stroke-width="0.00030"></path>
<path d="M0.165 0.797 Q0.337 0.909 0.593 0.850" stroke="hsl(120.0,100%,35%)" stroke-width="0.00030"></path>
<path d="M0.165 0.797 Q0.402 1.030 0.908 0.966" stroke="hsl(120.0,100%,35%)" stroke-width="0.00015"></path>
<path d="M0.165 0.797 Q0.256 0.990 0.653 0.988" stroke="hsl(120.0,100%,35%)" stroke-width="0.00015"></path>
<path d="M1.334 0.304 Q0.908 0.680 1.547 0.970" stroke="hsl(0.0,100%,35%)" stroke-width="0.00228"></path>
<path d="M1.334 0.304 Q1.216 0.242 1.069 0.287" stroke="hsl(0.0,100%,35%)" stroke-width="0.00958"></path>
<path d="M1.334 0.304 Q1.120 0.341 1.145 0.454" stroke="hsl(0.0,100%,35%)" stroke-width="0.00015"></path>
<path d="M1.334 0.304 Q1.009 0.629 1.570 0.858" stroke="hsl(0.0,100%,35%)" stroke-width="0.00319"></path>
<path d="M1.334 0.304 Q0.581 0.130 0.075 0.458" stroke="hsl(0.0,100%,35%)" stroke-width="0.00137"></path>
<path d="M1.334 0.304 Q1.053 0.134 0.659 0.234" stroke="hsl(0.0,100%,35%)" stroke-width="0.00061"></path>
<path d="M1.334 0.304 Q0.771 0.414 0.861 0.713" stroke="hsl(0.0,100%,35%)" stroke-width="0.00213"></path>
<path d="M1.334 0.304 Q0.801 0.527 1.120 0.836" stroke="hsl(0.0,100%,35%)" stroke-width="0.00304"></path>
<path d="M1.334 0.304 Q1.273 0.389 1.426 0.437" stroke="hsl(0.0,100%,35%)" stroke-width="0.00258"></path>
<path d="M1.334 0.304 Q1.202 0.678 1.902 0.825" stroke="hsl(0.0,100%,35%)" stroke-width="0.00091"></path>
<path d="M1.334 0.304 Q1.202 0.086 0.747 0.102" stroke="hsl(0.0,100%,35%)" stroke-width="0.00030"></path>
<path d="M1.334 0.304 Q0.706 0.274 0.509 0.573" stroke="hsl(0.0,100%,35%)" stroke-width="0.00015"></path>
<path d="M1.334 0.304 Q1.565 0.354 1.713 0.252" stroke="hsl(0.0,100%,35%)" stroke-width="0.00015"></path>
<path d="M1.334 0.304 Q1.127 0.583 1.626 0.745" stroke="hsl(0.0,100%,35%)" stroke-width="0.00015"></path>
<path d="M0.942 0.067 Q0.817 0.046 0.747 0.102" stroke="hsl(120.0,100%,35%)" stroke-width="0.00182"></path>
<path d="M0.942 0.067 Q0.523 0.640 1.547 0.970" stroke="hsl(120.0,100%,35%)" stroke-width="0.00046"></path>
<path d="M0.942 0.067 Q0.734 0.301 1.145 0.454" stroke="hsl(120.0,100%,35%)" stroke-width="0.00061"></path>
<path d="M0.942 0.067 Q0.060 0.470 0.653 0.988" stroke="hsl(120.0,100%,35%)" stroke-width="0.00015"></path>
<path d="M0.942 0.067 Q0.206 0.510 0.908 0.966" stroke="hsl(120.0,100%,35%)" stroke-width="0.00015"></path>
<path d="M0.942 0.067 Q1.057 0.111 1.169 0.065" stroke="hsl(120.0,100%,35%)" stroke-width="0.00030"></path>
<path d="M0.942 0.067 Q0.141 0.389 0.593 0.850" stroke="hsl(120.0,100%,35%)" stroke-width="0.00015"></path>
<path d="M0.942 0.067 Q0.196 0.089 0.075 0.458" stroke="hsl(120.0,100%,35%)" stroke-width="0.00015"></path>
<path d="M0.269 0.503 Q0.332 0.586 0.509 0.573" stroke="hsl(240.0,100%,35%)" stroke-width="0.03010"></path>
<path d="M0.269 0.503 Q0.208 0.442 0.075 0.458" stroke="hsl(240.0,100%,35%)" stroke-width="0.01003"></path>
<path d="M0.269 0.503 Q0.428 0.840 1.120 0.836" stroke="hsl(240.0,100%,35%)" stroke-width="0.00030"></path>
<path d="M0.777 0.890 Q1.310 0.746 1.145 0.454" stroke="hsl(120.0,100%,35%)" stroke-width="0.00091"></path>
<path d="M0.777 0.890 Q0.636 0.914 0.653 0.988" stroke="hsl(120.0,100%,35%)" stroke-width="0.00198"></path>
<path d="M0.777 0.890 Q1.152 0.799 1.056 0.596" stroke="hsl(120.0,100%,35%)" stroke-width="0.00015"></path>
<path d="M0.777 0.890 Q1.033 0.492 0.313 0.280" stroke="hsl(120.0,100%,35%)" stroke-width="0.00015"></path>
<path d="M0.777 0.890 Q1.406 0.647 1.069 0.287" stroke="hsl(120.0,100%,35%)" stroke-width="0.00015"></path>
<path d="M0.747 0.102 Q0.872 0.124 0.942 0.067" stroke="hsl(120.0,100%,35%)" stroke-width="0.00015"></path>
<path d="M0.747 0.102 Q0.453 0.696 1.547 0.970" stroke="hsl(120.0,100%,35%)" stroke-width="0.00030"></path>
<path d="M0.747 0.102 Q0.126 0.146 0.075 0.458" stroke="hsl(120.0,100%,35%)" stroke-width="0.00046"></path>
<path d="M0.747 0.102 Q0.879 0.321 1.334 0.304" stroke="hsl(120.0,100%,35%)" stroke-width="0.00015"></path>
<path d="M0.747 0.102 Q0.057 0.355 0.399 0.747" stroke="hsl(120.0,100%,35%)" stroke-width="0.00015"></path>
<path d="M0.747 0.102 Q0.346 0.544 1.120 0.836" stroke="hsl(120.0,100%,35%)" stroke-width="0.00015"></path>
<path d="M0.747 0.102 Q0.388 0.104 0.313 0.280" stroke="hsl(120.0,100%,35%)" stroke-width="0.00015"></path>
<path d="M0.526 0.389 Q0.245 0.333 0.075 0.458" stroke="hsl(120.0,100%,35%)" stroke-width="0.00030"></path>
<path d="M0.526 0.389 Q0.370 0.478 0.509 0.573" stroke="hsl(120.0,100%,35%)" stroke-width="0.00122"></path>
<path d="M0.526 0.389 Q0.606 0.394 0.632 0.356" stroke="hsl(120.0,100%,35%)" stroke-width="0.00502"></path>
<path d="M0.526 0.389 Q0.976 0.786 1.849 0.654" stroke="hsl(120.0,100%,35%)" stroke-width="0.00015"></path>
<path d="M0.526 0.389 Q0.938 0.593 1.426 0.437" stroke="hsl(120.0,100%,35%)" stroke-width="0.00106"></path>
<path d="M0.526 0.389 Q0.784 0.545 1.145 0.454" stroke="hsl(120.0,100%,35%)" stroke-width="0.00046"></path>
<path d="M0.526 0.389 Q0.866 0.882 1.902 0.825" stroke="hsl(120.0,100%,35%)" stroke-width="0.00030"></path>
<path d="M0.526 0.389 Q0.717 0.338 0.659 0.234" stroke="hsl(120.0,100%,35%)" stroke-width="0.00015"></path>
<path d="M1.902 0.825 Q1.282 0.276 0.075 0.458" stroke="hsl(120.0,100%,35%)" stroke-width="0.00167"></path>
<path d="M1.902 0.825 Q2.035 0.451 1.334 0.304" stroke="hsl(120.0,100%,35%)" stroke-width="0.00015"></path>
<path d="M1.902 0.825 Q2.013 0.729 1.849 0.654" stroke="hsl(120.0,100%,35%)" stroke-width="0.00593"></path>
<path d="M1.902 0.825 Q1.828 0.729 1.626 0.745" stroke="hsl(120.0,100%,35%)" stroke-width="0.00410"></path>
<path d="M1.902 0.825 Q1.502 0.674 1.120 0.836" stroke="hsl(120.0,100%,35%)" stroke-width="0.00046"></path>
<path d="M1.902 0.825 Q1.643 0.336 0.632 0.356" stroke="hsl(120.0,100%,35%)" stroke-width="0.00137"></path>
<path d="M1.902 0.825 Q1.974 0.536 1.426 0.437" stroke="hsl(120.0,100%,35%)" stroke-width="0.00198"></path>
<path d="M1.902 0.825 Q1.407 0.420 0.509 0.573" stroke="hsl(120.0,100%,35%)" stroke-width="0.00015"></path>
<path d="M1.902 0.825 Q1.821 0.488 1.145 0.454" stroke="hsl(120.0,100%,35%)" stroke-width="0.00046"></path>
<path d="M1.902 0.825 Q1.903 0.233 0.747 0.102" stroke="hsl(120.0,100%,35%)" stroke-width="0.00076"></path>
<path d="M1.902 0.825 Q1.544 0.234 0.313 0.280" stroke="hsl(120.0,100%,35%)" stroke-width="0.00061"></path>
<path d="M1.849 0.654 Q1.739 0.750 1.902 0.825" stroke="hsl(120.0,100%,35%)" stroke-width="0.00730"></path>
<path d="M1.849 0.654 Q1.811 0.461 1.426 0.437" stroke="hsl(120.0,100%,35%)" stroke-width="0.00015"></path>
<path d="M1.849 0.654 Q1.524 0.578 1.306 0.721" stroke="hsl(120.0,100%,35%)" stroke-width="0.00015"></path>
<path d="M1.849 0.654 Q1.657 0.413 1.145 0.454" stroke="hsl(120.0,100%,35%)" stroke-width="0.00015"></path>
<path d="M1.849 0.654 Q1.916 0.559 1.747 0.506" stroke="hsl(120.0,100%,35%)" stroke-width="0.00015"></path>
<path d="M0.399 0.747 Q0.332 0.918 0.653 0.988" stroke="hsl(120.0,100%,35%)" stroke-width="0.00046"></path>
<path d="M0.399 0.747 Q0.413 0.837 0.593 0.850" stroke="hsl(120.0,100%,35%)" stroke-width="0.00046"></path>
<path d="M1.257 0.605 Q1.004 0.693 1.120 0.836" stroke="hsl(120.0,100%,35%)" stroke-width="0.00046"></path>
<path d="M1.257 0.605 Q1.530 0.273 0.942 0.067" stroke="hsl(120.0,100%,35%)" stroke-width="0.00046"></path>
<path d="M1.257 0.605 Q1.322 0.507 1.145 0.454" stroke="hsl(120.0,100%,35%)" stroke-width="0.00061"></path>
<path d="M1.257 0.605 Q1.045 0.254 0.313 0.280" stroke="hsl(120.0,100%,35%)" stroke-width="0.00015"></path>
<path d="M1.257 0.605 Q0.973 0.580 0.861 0.713" stroke="hsl(120.0,100%,35%)" stroke-width="0.00030"></path>
<path d="M1.257 0.605 Q0.729 0.595 0.593 0.850" stroke="hsl(120.0,100%,35%)" stroke-width="0.00015"></path>
<path d="M1.257 0.605 Q1.404 0.252 0.747 0.102" stroke="hsl(120.0,100%,35%)" stroke-width="0.00015"></path>
<path d="M1.257 0.605 Q1.376 0.666 1.521 0.621" stroke="hsl(120.0,100%,35%)" stroke-width="0.00015"></path>
<path d="M0.729 0.457 Q0.761 0.387 0.632 0.356" stroke="hsl(120.0,100%,35%)" stroke-width="0.00456"></path>
<path d="M0.729 0.457 Q1.022 0.283 0.747 0.102" stroke="hsl(120.0,100%,35%)" stroke-width="0.00015"></path>
<path d="M0.729 0.457 Q0.872 0.331 0.659 0.234" stroke="hsl(120.0,100%,35%)" stroke-width="0.00015"></path>
<path d="M0.729 0.457 Q1.021 0.875 1.902 0.825" stroke="hsl(120.0,100%,35%)" stroke-width="0.00030"></path>
<path d="M1.626 0.745 Q1.772 0.551 1.426 0.437" stroke="hsl(120.0,100%,35%)" stroke-width="0.00061"></path>
<path d="M1.626 0.745 Q1.700 0.840 1.902 0.825" stroke="hsl(120.0,100%,35%)" stroke-width="0.00563"></path>
<path d="M1.626 0.745 Q1.269 0.576 0.861 0.713" stroke="hsl(120.0,100%,35%)" stroke-width="0.00046"></path>
<path d="M1.626 0.745 Q1.618 0.503 1.145 0.454" stroke="hsl(120.0,100%,35%)" stroke-width="0.00030"></path>
<path d="M1.842 0.401 Q2.006 0.323 1.891 0.226" stroke="hsl(0.0,100%,35%)" stroke-width="0.00061"></path>
<path d="M1.842 0.401 Q0.913 0.076 0.075 0.458" stroke="hsl(0.0,100%,35%)" stroke-width="0.00030"></path>
<path d="M1.842 0.401 Q0.777 0.457 0.653 0.988" stroke="hsl(0.0,100%,35%)" stroke-width="0.00046"></path>
<path d="M1.891 0.226 Q1.881 0.109 1.651 0.089" stroke="hsl(0.0,100%,35%)" stroke-width="0.00015"></path>
<path d="M1.891 0.226 Q1.726 0.304 1.842 0.401" stroke="hsl(0.0,100%,35%)" stroke-width="0.00046"></path>
<path d="M1.891 0.226 Q1.124 0.529 1.547 0.970" stroke="hsl(0.0,100%,35%)" stroke-width="0.00046"></path>
<path d="M1.891 0.226 Q1.058 -0.063 0.313 0.280" stroke="hsl(0.0,100%,35%)" stroke-width="0.00015"></path>
<path d="M0.951 0.359 Q0.559 0.377 0.509 0.573" stroke="hsl(120.0,100%,35%)" stroke-width="0.00015"></path>
<path d="M0.951 0.359 Q0.761 0.783 1.547 0.970" stroke="hsl(120.0,100%,35%)" stroke-width="0.00015"></path>
<path d="M0.951 0.359 Q1.068 0.346 1.069 0.287" stroke="hsl(120.0,100%,35%)" stroke-width="0.00015"></path>
<path d="M0.951 0.359 Q0.654 0.631 1.120 0.836" stroke="hsl(120.0,100%,35%)" stroke-width="0.00015"></path>
<path d="M0.951 0.359 Q0.905 0.238 0.659 0.234" stroke="hsl(120.0,100%,35%)" stroke-width="0.00015"></path>
<path d="M1.056 0.596 Q0.541 0.712 0.653 0.988" stroke="hsl(120.0,100%,35%)" stroke-width="0.00015"></path>
<path d="M1.056 0.596 Q0.676 0.331 0.075 0.458" stroke="hsl(120.0,100%,35%)" stroke-width="0.00015"></path>
<path d="M1.056 0.596 Q1.297 0.288 0.747 0.102" stroke="hsl(120.0,100%,35%)" stroke-width="0.00015"></path>
<path d="M1.056 0.596 Q0.622 0.631 0.593 0.850" stroke="hsl(120.0,100%,35%)" stroke-width="0.00030"></path>
<path d="M1.056 0.596 Q1.037 0.391 0.632 0.356" stroke="hsl(120.0,100%,35%)" stroke-width="0.00015"></path>
<path d="M1.056 0.596 Q1.215 0.543 1.145 0.454" stroke="hsl(120.0,100%,35%)" stroke-width="0.00015"></path>
<path d="M0.898 0.279 Q0.605 0.163 0.313 0.280" stroke="hsl(120.0,100%,35%)" stroke-width="0.00015"></path>
<path d="M0.898 0.279 Q0.704 0.265 0.632 0.356" stroke="hsl(120.0,100%,35%)" stroke-width="0.00030"></path>
<path d="M0.898 0.279 Q0.508 0.420 0.697 0.641" stroke="hsl(120.0,100%,35%)" stroke-width="0.00015"></path>
<path d="M0.794 0.568 Q1.061 0.581 1.145 0.454" stroke="hsl(120.0,100%,35%)" stroke-width="0.00015"></path>
<path d="M0.794 0.568 Q0.883 0.430 0.632 0.356" stroke="hsl(120.0,100%,35%)" stroke-width="0.00015"></path>
<path d="M0.794 0.568 Q1.214 0.629 1.426 0.437" stroke="hsl(120.0,100%,35%)" stroke-width="0.00015"></path>
<path d="M0.837 0.354 Q0.993 0.210 0.747 0.102" stroke="hsl(120.0,100%,35%)" stroke-width="0.00015"></path>
<path d="M0.837 0.354 Q0.733 0.314 0.632 0.356" stroke="hsl(120.0,100%,35%)" stroke-width="0.00030"></path>
<path d="M0.837 0.354 Q0.844 0.258 0.659 0.234" stroke="hsl(120.0,100%,35%)" stroke-width="0.00015"></path>
</g>
<text x="1.164" y="0.363" font-size="0.025734" fill="hsl(0.0,100%,20%)">adlai</text>
<text x="1.120" y="0.810" font-size="0.052337" fill="hsl(0.0,100%,20%)">bsalomon</text>
<text x="1.069" y="0.261" font-size="0.050837" fill="hsl(0.0,100%,20%)">robertphillips</text>
<text x="0.861" y="0.691" font-size="0.045052" fill="hsl(0.0,100%,20%)">csmartdalton</text>
<text x="0.908" y="0.956" font-size="0.020840" fill="hsl(120.0,100%,20%)">rmistry</text>
<text x="0.653" y="0.975" font-size="0.026878" fill="hsl(120.0,100%,20%)">borenet</text>
<text x="0.313" y="0.266" font-size="0.028433" fill="hsl(240.0,100%,20%)">mtklein</text>
<text x="1.570" y="0.839" font-size="0.039563" fill="hsl(0.0,100%,20%)">jvanverth</text>
<text x="1.426" y="0.420" font-size="0.034137" fill="hsl(120.0,100%,20%)">reed</text>
<text x="0.075" y="0.418" font-size="0.080126" fill="hsl(240.0,100%,20%)">brianosman</text>
<text x="1.145" y="0.437" font-size="0.034885" fill="hsl(120.0,100%,20%)">kjlubick</text>
<text x="0.659" y="0.217" font-size="0.034200" fill="hsl(120.0,100%,20%)">herb</text>
<text x="0.632" y="0.339" font-size="0.034011" fill="hsl(120.0,100%,20%)">bungeman</text>
<text x="1.547" y="0.948" font-size="0.043200" fill="hsl(0.0,100%,20%)">egdaniel</text>
<text x="0.293" y="0.387" font-size="0.004637" fill="hsl(240.0,100%,20%)">bajones</text>
<text x="0.509" y="0.532" font-size="0.081746" fill="hsl(240.0,100%,20%)">johnstiles</text>
<text x="0.593" y="0.841" font-size="0.018431" fill="hsl(120.0,100%,20%)">jcgregorio</text>
<text x="0.165" y="0.794" font-size="0.007477" fill="hsl(120.0,100%,20%)">erikrose</text>
<text x="1.334" y="0.281" font-size="0.045950" fill="hsl(0.0,100%,20%)">michaelludwig</text>
<text x="0.942" y="0.060" font-size="0.013911" fill="hsl(120.0,100%,20%)">scroggo</text>
<text x="0.269" y="0.478" font-size="0.049898" fill="hsl(240.0,100%,20%)">ethannicholas</text>
<text x="0.777" y="0.884" font-size="0.011912" fill="hsl(120.0,100%,20%)">westont</text>
<text x="0.747" y="0.095" font-size="0.015097" fill="hsl(120.0,100%,20%)">djsollen</text>
<text x="0.526" y="0.379" font-size="0.019782" fill="hsl(120.0,100%,20%)">jlavrova</text>
<text x="1.902" y="0.808" font-size="0.034137" fill="hsl(120.0,100%,20%)">fmalita</text>
<text x="1.849" y="0.643" font-size="0.020633" fill="hsl(120.0,100%,20%)">jmbetancourt</text>
<text x="0.399" y="0.742" font-size="0.009039" fill="hsl(120.0,100%,20%)">hcm</text>
<text x="1.306" y="0.719" font-size="0.002933" fill="hsl(120.0,100%,20%)">stani</text>
<text x="1.257" y="0.599" font-size="0.012092" fill="hsl(120.0,100%,20%)">nifong</text>
<text x="0.844" y="0.383" font-size="0.002074" fill="hsl(120.0,100%,20%)">grieger</text>
<text x="0.729" y="0.450" font-size="0.012950" fill="hsl(120.0,100%,20%)">drott</text>
<text x="1.114" y="0.678" font-size="0.002933" fill="hsl(0.0,100%,20%)">junov</text>
<text x="1.626" y="0.735" font-size="0.019453" fill="hsl(120.0,100%,20%)">tdenniston</text>
<text x="1.842" y="0.397" font-size="0.007183" fill="hsl(0.0,100%,20%)">cwallez</text>
<text x="1.891" y="0.222" font-size="0.007183" fill="hsl(0.0,100%,20%)">senorblanco</text>
<text x="0.951" y="0.357" font-size="0.004637" fill="hsl(120.0,100%,20%)">emaxx</text>
<text x="1.056" y="0.590" font-size="0.012268" fill="hsl(120.0,100%,20%)">lovisolo</text>
<text x="0.800" y="0.310" font-size="0.002074" fill="hsl(120.0,100%,20%)">jiulongw</text>
<text x="0.898" y="0.277" font-size="0.004147" fill="hsl(120.0,100%,20%)">james</text>
<text x="0.697" y="0.640" font-size="0.002074" fill="hsl(120.0,100%,20%)">cbracken</text>
<text x="1.747" y="0.505" font-size="0.002074" fill="hsl(120.0,100%,20%)">fuego</text>
<text x="1.201" y="0.374" font-size="0.007183" fill="hsl(120.0,100%,20%)">yjbanov</text>
<text x="1.713" y="0.251" font-size="0.002074" fill="hsl(0.0,100%,20%)">fs</text>
<text x="1.521" y="0.620" font-size="0.002074" fill="hsl(120.0,100%,20%)">alecmouri</text>
<text x="0.794" y="0.566" font-size="0.003592" fill="hsl(120.0,100%,20%)">pkasting</text>
<text x="1.607" y="0.258" font-size="0.002074" fill="hsl(120.0,100%,20%)">whesse</text>
<text x="1.671" y="0.291" font-size="0.002074" fill="hsl(120.0,100%,20%)">mdebbar</text>
<text x="1.169" y="0.063" font-size="0.002933" fill="hsl(120.0,100%,20%)">nigeltao</text>
<text x="1.651" y="0.088" font-size="0.002074" fill="hsl(0.0,100%,20%)">enga</text>
<text x="0.837" y="0.351" font-size="0.004147" fill="hsl(120.0,100%,20%)">thestig</text>
</svg>
