<svg width="4000" height="2000" viewBox="-0.025 -0.025 2.05 1.05" xmlns="http://www.w3.org/2000/svg">
  <style>
    path {
      fill: none;
      stroke-linecap: round;
      stroke-opacity: 0.4;
    }

    text {
      text-anchor: middle;
      alignment-baseline: hanging;
    }
  </style>
  <g opacity="0.4">
<path d="M0.386 0.170 Q0.633 0.217 0.779 0.106" stroke="hsl(0.0,100%,35%)" stroke-width="0.00909"></path>
<path d="M0.386 0.170 Q0.350 0.439 0.868 0.516" stroke="hsl(0.0,100%,35%)" stroke-width="0.00238"></path>
<path d="M0.386 0.170 Q0.060 0.553 0.735 0.796" stroke="hsl(0.0,100%,35%)" stroke-width="0.00209"></path>
<path d="M0.386 0.170 Q0.807 0.591 1.722 0.478" stroke="hsl(0.0,100%,35%)" stroke-width="0.00179"></path>
<path d="M0.386 0.170 Q0.476 0.280 0.711 0.260" stroke="hsl(0.0,100%,35%)" stroke-width="0.00313"></path>
<path d="M0.386 0.170 Q0.225 0.523 0.879 0.679" stroke="hsl(0.0,100%,35%)" stroke-width="0.00015"></path>
<path d="M0.386 0.170 Q-0.025 0.450 0.431 0.712" stroke="hsl(0.0,100%,35%)" stroke-width="0.00179"></path>
<path d="M0.386 0.170 Q0.955 0.615 1.950 0.436" stroke="hsl(0.0,100%,35%)" stroke-width="0.00060"></path>
<path d="M0.386 0.170 Q0.171 0.271 0.322 0.398" stroke="hsl(0.0,100%,35%)" stroke-width="0.00149"></path>
<path d="M0.386 0.170 Q0.220 0.469 0.768 0.616" stroke="hsl(0.0,100%,35%)" stroke-width="0.00015"></path>
<path d="M0.386 0.170 Q0.792 0.450 1.428 0.313" stroke="hsl(0.0,100%,35%)" stroke-width="0.00015"></path>
<path d="M0.386 0.170 Q0.348 0.663 1.303 0.790" stroke="hsl(0.0,100%,35%)" stroke-width="0.00015"></path>
<path d="M0.386 0.170 Q0.377 0.123 0.283 0.117" stroke="hsl(0.0,100%,35%)" stroke-width="0.00015"></path>
<path d="M0.779 0.106 Q0.622 0.170 0.711 0.260" stroke="hsl(0.0,100%,35%)" stroke-width="0.09208"></path>
<path d="M0.779 0.106 Q0.532 0.059 0.386 0.170" stroke="hsl(0.0,100%,35%)" stroke-width="0.02235"></path>
<path d="M0.779 0.106 Q0.496 0.329 0.868 0.516" stroke="hsl(0.0,100%,35%)" stroke-width="0.00641"></path>
<path d="M0.779 0.106 Q0.206 0.442 0.735 0.796" stroke="hsl(0.0,100%,35%)" stroke-width="0.00358"></path>
<path d="M0.779 0.106 Q0.422 0.239 0.603 0.443" stroke="hsl(0.0,100%,35%)" stroke-width="0.00402"></path>
<path d="M0.779 0.106 Q0.953 0.481 1.722 0.478" stroke="hsl(0.0,100%,35%)" stroke-width="0.00492"></path>
<path d="M0.779 0.106 Q0.808 0.450 1.485 0.511" stroke="hsl(0.0,100%,35%)" stroke-width="0.00089"></path>
<path d="M0.779 0.106 Q0.494 0.553 1.303 0.790" stroke="hsl(0.0,100%,35%)" stroke-width="0.00074"></path>
<path d="M0.779 0.106 Q0.317 0.161 0.322 0.398" stroke="hsl(0.0,100%,35%)" stroke-width="0.00253"></path>
<path d="M0.779 0.106 Q1.109 0.269 1.500 0.144" stroke="hsl(0.0,100%,35%)" stroke-width="0.00089"></path>
<path d="M0.779 0.106 Q0.938 0.340 1.428 0.313" stroke="hsl(0.0,100%,35%)" stroke-width="0.00015"></path>
<path d="M0.779 0.106 Q0.683 0.415 1.264 0.529" stroke="hsl(0.0,100%,35%)" stroke-width="0.00015"></path>
<path d="M0.779 0.106 Q1.101 0.505 1.950 0.436" stroke="hsl(0.0,100%,35%)" stroke-width="0.00194"></path>
<path d="M0.779 0.106 Q0.925 0.211 1.161 0.163" stroke="hsl(0.0,100%,35%)" stroke-width="0.00015"></path>
<path d="M0.779 0.106 Q0.776 0.493 1.529 0.578" stroke="hsl(0.0,100%,35%)" stroke-width="0.00030"></path>
<path d="M0.779 0.106 Q0.371 0.413 0.879 0.679" stroke="hsl(0.0,100%,35%)" stroke-width="0.00134"></path>
<path d="M0.779 0.106 Q0.247 0.279 0.466 0.576" stroke="hsl(0.0,100%,35%)" stroke-width="0.00939"></path>
<path d="M0.779 0.106 Q0.921 0.562 1.840 0.592" stroke="hsl(0.0,100%,35%)" stroke-width="0.00015"></path>
<path d="M0.779 0.106 Q0.769 0.323 1.191 0.376" stroke="hsl(0.0,100%,35%)" stroke-width="0.00030"></path>
<path d="M0.779 0.106 Q1.188 0.344 1.742 0.197" stroke="hsl(0.0,100%,35%)" stroke-width="0.00030"></path>
<path d="M0.779 0.106 Q0.121 0.340 0.431 0.712" stroke="hsl(0.0,100%,35%)" stroke-width="0.00238"></path>
<path d="M0.779 0.106 Q0.366 0.359 0.768 0.616" stroke="hsl(0.0,100%,35%)" stroke-width="0.00089"></path>
<path d="M0.779 0.106 Q0.522 0.013 0.283 0.117" stroke="hsl(0.0,100%,35%)" stroke-width="0.00521"></path>
<path d="M0.779 0.106 Q0.205 0.553 0.950 0.930" stroke="hsl(0.0,100%,35%)" stroke-width="0.00074"></path>
<path d="M0.779 0.106 Q0.750 0.463 1.439 0.555" stroke="hsl(0.0,100%,35%)" stroke-width="0.00149"></path>
<path d="M0.868 0.516 Q0.578 0.629 0.735 0.796" stroke="hsl(0.0,100%,35%)" stroke-width="0.00834"></path>
<path d="M0.868 0.516 Q0.904 0.246 0.386 0.170" stroke="hsl(0.0,100%,35%)" stroke-width="0.00045"></path>
<path d="M0.868 0.516 Q0.994 0.357 0.711 0.260" stroke="hsl(0.0,100%,35%)" stroke-width="0.00402"></path>
<path d="M0.868 0.516 Q0.493 0.527 0.431 0.712" stroke="hsl(0.0,100%,35%)" stroke-width="0.00536"></path>
<path d="M0.868 0.516 Q0.744 0.600 0.879 0.679" stroke="hsl(0.0,100%,35%)" stroke-width="0.00134"></path>
<path d="M0.868 0.516 Q0.619 0.466 0.466 0.576" stroke="hsl(0.0,100%,35%)" stroke-width="0.00849"></path>
<path d="M0.868 0.516 Q1.325 0.668 1.722 0.478" stroke="hsl(0.0,100%,35%)" stroke-width="0.00179"></path>
<path d="M0.868 0.516 Q0.689 0.348 0.322 0.398" stroke="hsl(0.0,100%,35%)" stroke-width="0.00164"></path>
<path d="M0.868 0.516 Q0.738 0.546 0.768 0.616" stroke="hsl(0.0,100%,35%)" stroke-width="0.00074"></path>
<path d="M0.868 0.516 Q1.151 0.293 0.779 0.106" stroke="hsl(0.0,100%,35%)" stroke-width="0.00089"></path>
<path d="M0.868 0.516 Q1.482 0.456 1.500 0.144" stroke="hsl(0.0,100%,35%)" stroke-width="0.00015"></path>
<path d="M0.868 0.516 Q1.122 0.650 1.439 0.555" stroke="hsl(0.0,100%,35%)" stroke-width="0.00015"></path>
<path d="M0.868 0.516 Q0.794 0.426 0.603 0.443" stroke="hsl(0.0,100%,35%)" stroke-width="0.00060"></path>
<path d="M0.868 0.516 Q1.310 0.527 1.428 0.313" stroke="hsl(0.0,100%,35%)" stroke-width="0.00015"></path>
<path d="M0.868 0.516 Q1.560 0.531 1.742 0.197" stroke="hsl(0.0,100%,35%)" stroke-width="0.00015"></path>
<path d="M0.868 0.516 Q1.473 0.692 1.950 0.436" stroke="hsl(0.0,100%,35%)" stroke-width="0.00015"></path>
<path d="M0.868 0.516 Q0.967 0.636 1.223 0.615" stroke="hsl(0.0,100%,35%)" stroke-width="0.00015"></path>
<path d="M0.735 0.796 Q0.901 0.766 0.879 0.679" stroke="hsl(0.0,100%,35%)" stroke-width="0.00089"></path>
<path d="M0.735 0.796 Q0.777 0.632 0.466 0.576" stroke="hsl(0.0,100%,35%)" stroke-width="0.00536"></path>
<path d="M0.735 0.796 Q1.152 0.523 0.711 0.260" stroke="hsl(0.0,100%,35%)" stroke-width="0.00179"></path>
<path d="M0.735 0.796 Q1.483 0.834 1.722 0.478" stroke="hsl(0.0,100%,35%)" stroke-width="0.00119"></path>
<path d="M0.735 0.796 Q1.306 0.846 1.529 0.578" stroke="hsl(0.0,100%,35%)" stroke-width="0.00030"></path>
<path d="M0.735 0.796 Q1.025 0.682 0.868 0.516" stroke="hsl(0.0,100%,35%)" stroke-width="0.00611"></path>
<path d="M0.735 0.796 Q1.308 0.460 0.779 0.106" stroke="hsl(0.0,100%,35%)" stroke-width="0.00134"></path>
<path d="M0.735 0.796 Q1.639 0.622 1.500 0.144" stroke="hsl(0.0,100%,35%)" stroke-width="0.00015"></path>
<path d="M0.735 0.796 Q0.952 0.593 0.603 0.443" stroke="hsl(0.0,100%,35%)" stroke-width="0.00447"></path>
<path d="M0.735 0.796 Q1.337 0.980 1.828 0.727" stroke="hsl(0.0,100%,35%)" stroke-width="0.00015"></path>
<path d="M0.735 0.796 Q0.847 0.514 0.322 0.398" stroke="hsl(0.0,100%,35%)" stroke-width="0.00209"></path>
<path d="M0.735 0.796 Q0.650 0.693 0.431 0.712" stroke="hsl(0.0,100%,35%)" stroke-width="0.00819"></path>
<path d="M0.735 0.796 Q0.895 0.712 0.768 0.616" stroke="hsl(0.0,100%,35%)" stroke-width="0.00015"></path>
<path d="M0.735 0.796 Q1.468 0.693 1.428 0.313" stroke="hsl(0.0,100%,35%)" stroke-width="0.00015"></path>
<path d="M0.735 0.796 Q1.061 0.413 0.386 0.170" stroke="hsl(0.0,100%,35%)" stroke-width="0.00030"></path>
<path d="M0.735 0.796 Q0.735 0.906 0.950 0.930" stroke="hsl(0.0,100%,35%)" stroke-width="0.00015"></path>
<path d="M0.735 0.796 Q1.630 0.859 1.950 0.436" stroke="hsl(0.0,100%,35%)" stroke-width="0.00030"></path>
<path d="M0.735 0.796 Q1.502 0.677 1.440 0.277" stroke="hsl(0.0,100%,35%)" stroke-width="0.00030"></path>
<path d="M1.722 0.478 Q1.870 0.502 1.950 0.436" stroke="hsl(180.0,100%,35%)" stroke-width="0.02041"></path>
<path d="M1.722 0.478 Q1.519 0.460 1.439 0.555" stroke="hsl(180.0,100%,35%)" stroke-width="0.00223"></path>
<path d="M1.722 0.478 Q1.391 0.167 0.711 0.260" stroke="hsl(180.0,100%,35%)" stroke-width="0.01237"></path>
<path d="M1.722 0.478 Q1.191 0.237 0.603 0.443" stroke="hsl(180.0,100%,35%)" stroke-width="0.00447"></path>
<path d="M1.722 0.478 Q1.548 0.104 0.779 0.106" stroke="hsl(180.0,100%,35%)" stroke-width="0.00745"></path>
<path d="M1.722 0.478 Q1.878 0.266 1.500 0.144" stroke="hsl(180.0,100%,35%)" stroke-width="0.00238"></path>
<path d="M1.722 0.478 Q1.707 0.337 1.428 0.313" stroke="hsl(180.0,100%,35%)" stroke-width="0.00656"></path>
<path d="M1.722 0.478 Q0.975 0.440 0.735 0.796" stroke="hsl(180.0,100%,35%)" stroke-width="0.00119"></path>
<path d="M1.722 0.478 Q1.265 0.326 0.868 0.516" stroke="hsl(180.0,100%,35%)" stroke-width="0.00700"></path>
<path d="M1.722 0.478 Q1.140 0.410 0.879 0.679" stroke="hsl(180.0,100%,35%)" stroke-width="0.00030"></path>
<path d="M1.722 0.478 Q1.301 0.057 0.386 0.170" stroke="hsl(180.0,100%,35%)" stroke-width="0.00104"></path>
<path d="M1.722 0.478 Q1.577 0.447 1.485 0.511" stroke="hsl(180.0,100%,35%)" stroke-width="0.00566"></path>
<path d="M1.722 0.478 Q1.694 0.208 1.161 0.163" stroke="hsl(180.0,100%,35%)" stroke-width="0.00060"></path>
<path d="M1.722 0.478 Q1.690 0.559 1.840 0.592" stroke="hsl(180.0,100%,35%)" stroke-width="0.00060"></path>
<path d="M1.722 0.478 Q1.086 0.158 0.322 0.398" stroke="hsl(180.0,100%,35%)" stroke-width="0.00313"></path>
<path d="M1.722 0.478 Q1.810 0.558 1.987 0.533" stroke="hsl(180.0,100%,35%)" stroke-width="0.00492"></path>
<path d="M1.722 0.478 Q1.263 0.550 1.303 0.790" stroke="hsl(180.0,100%,35%)" stroke-width="0.00119"></path>
<path d="M1.722 0.478 Q1.469 0.237 0.942 0.307" stroke="hsl(180.0,100%,35%)" stroke-width="0.00015"></path>
<path d="M1.722 0.478 Q1.452 0.412 1.264 0.529" stroke="hsl(180.0,100%,35%)" stroke-width="0.00149"></path>
<path d="M1.722 0.478 Q1.016 0.276 0.466 0.576" stroke="hsl(180.0,100%,35%)" stroke-width="0.00209"></path>
<path d="M1.722 0.478 Q0.890 0.337 0.431 0.712" stroke="hsl(180.0,100%,35%)" stroke-width="0.00283"></path>
<path d="M1.722 0.478 Q1.545 0.490 1.529 0.578" stroke="hsl(180.0,100%,35%)" stroke-width="0.00492"></path>
<path d="M1.722 0.478 Q0.974 0.550 0.950 0.930" stroke="hsl(180.0,100%,35%)" stroke-width="0.00060"></path>
<path d="M1.722 0.478 Q1.538 0.321 1.191 0.376" stroke="hsl(180.0,100%,35%)" stroke-width="0.00045"></path>
<path d="M1.722 0.478 Q1.957 0.341 1.742 0.197" stroke="hsl(180.0,100%,35%)" stroke-width="0.00358"></path>
<path d="M1.722 0.478 Q1.741 0.321 1.440 0.277" stroke="hsl(180.0,100%,35%)" stroke-width="0.00060"></path>
<path d="M1.722 0.478 Q1.576 0.624 1.828 0.727" stroke="hsl(180.0,100%,35%)" stroke-width="0.00045"></path>
<path d="M1.722 0.478 Q1.129 0.505 1.052 0.800" stroke="hsl(180.0,100%,35%)" stroke-width="0.00015"></path>
<path d="M1.722 0.478 Q1.772 0.365 1.561 0.315" stroke="hsl(180.0,100%,35%)" stroke-width="0.00015"></path>
<path d="M0.711 0.260 Q1.042 0.571 1.722 0.478" stroke="hsl(0.0,100%,35%)" stroke-width="0.00268"></path>
<path d="M0.711 0.260 Q0.868 0.197 0.779 0.106" stroke="hsl(0.0,100%,35%)" stroke-width="0.00939"></path>
<path d="M0.711 0.260 Q0.336 0.369 0.466 0.576" stroke="hsl(0.0,100%,35%)" stroke-width="0.00179"></path>
<path d="M0.711 0.260 Q0.295 0.533 0.735 0.796" stroke="hsl(0.0,100%,35%)" stroke-width="0.00089"></path>
<path d="M0.711 0.260 Q1.190 0.596 1.950 0.436" stroke="hsl(0.0,100%,35%)" stroke-width="0.00238"></path>
<path d="M0.711 0.260 Q0.585 0.419 0.868 0.516" stroke="hsl(0.0,100%,35%)" stroke-width="0.00432"></path>
<path d="M0.711 0.260 Q0.897 0.541 1.485 0.511" stroke="hsl(0.0,100%,35%)" stroke-width="0.00015"></path>
<path d="M0.711 0.260 Q0.511 0.330 0.603 0.443" stroke="hsl(0.0,100%,35%)" stroke-width="0.00402"></path>
<path d="M0.711 0.260 Q0.406 0.251 0.322 0.398" stroke="hsl(0.0,100%,35%)" stroke-width="0.00313"></path>
<path d="M0.711 0.260 Q0.789 0.330 0.942 0.307" stroke="hsl(0.0,100%,35%)" stroke-width="0.00030"></path>
<path d="M0.711 0.260 Q0.210 0.430 0.431 0.712" stroke="hsl(0.0,100%,35%)" stroke-width="0.00119"></path>
<path d="M0.711 0.260 Q1.198 0.359 1.500 0.144" stroke="hsl(0.0,100%,35%)" stroke-width="0.00015"></path>
<path d="M0.711 0.260 Q0.583 0.643 1.303 0.790" stroke="hsl(0.0,100%,35%)" stroke-width="0.00030"></path>
<path d="M0.711 0.260 Q0.839 0.553 1.439 0.555" stroke="hsl(0.0,100%,35%)" stroke-width="0.00030"></path>
<path d="M0.711 0.260 Q0.621 0.150 0.386 0.170" stroke="hsl(0.0,100%,35%)" stroke-width="0.00074"></path>
<path d="M0.711 0.260 Q0.866 0.583 1.529 0.578" stroke="hsl(0.0,100%,35%)" stroke-width="0.00074"></path>
<path d="M0.711 0.260 Q1.277 0.435 1.742 0.197" stroke="hsl(0.0,100%,35%)" stroke-width="0.00015"></path>
<path d="M0.711 0.260 Q0.612 0.103 0.283 0.117" stroke="hsl(0.0,100%,35%)" stroke-width="0.00015"></path>
<path d="M0.711 0.260 Q0.449 0.598 1.052 0.800" stroke="hsl(0.0,100%,35%)" stroke-width="0.00015"></path>
<path d="M0.879 0.679 Q0.714 0.708 0.735 0.796" stroke="hsl(0.0,100%,35%)" stroke-width="0.00089"></path>
<path d="M0.879 0.679 Q1.287 0.372 0.779 0.106" stroke="hsl(0.0,100%,35%)" stroke-width="0.00104"></path>
<path d="M0.879 0.679 Q1.433 0.477 1.161 0.163" stroke="hsl(0.0,100%,35%)" stroke-width="0.00015"></path>
<path d="M0.879 0.679 Q0.755 0.545 0.466 0.576" stroke="hsl(0.0,100%,35%)" stroke-width="0.00074"></path>
<path d="M0.879 0.679 Q0.629 0.606 0.431 0.712" stroke="hsl(0.0,100%,35%)" stroke-width="0.00179"></path>
<path d="M0.879 0.679 Q1.446 0.606 1.428 0.313" stroke="hsl(0.0,100%,35%)" stroke-width="0.00015"></path>
<path d="M0.879 0.679 Q1.004 0.595 0.868 0.516" stroke="hsl(0.0,100%,35%)" stroke-width="0.00164"></path>
<path d="M0.879 0.679 Q1.130 0.436 0.711 0.260" stroke="hsl(0.0,100%,35%)" stroke-width="0.00015"></path>
<path d="M0.879 0.679 Q1.461 0.747 1.722 0.478" stroke="hsl(0.0,100%,35%)" stroke-width="0.00045"></path>
<path d="M0.879 0.679 Q1.696 0.610 1.742 0.197" stroke="hsl(0.0,100%,35%)" stroke-width="0.00015"></path>
<path d="M0.431 0.712 Q0.558 0.651 0.466 0.576" stroke="hsl(0.0,100%,35%)" stroke-width="0.00283"></path>
<path d="M0.431 0.712 Q0.517 0.815 0.735 0.796" stroke="hsl(0.0,100%,35%)" stroke-width="0.00521"></path>
<path d="M0.431 0.712 Q0.682 0.785 0.879 0.679" stroke="hsl(0.0,100%,35%)" stroke-width="0.00268"></path>
<path d="M0.431 0.712 Q0.676 0.731 0.768 0.616" stroke="hsl(0.0,100%,35%)" stroke-width="0.00045"></path>
<path d="M0.431 0.712 Q0.628 0.533 0.322 0.398" stroke="hsl(0.0,100%,35%)" stroke-width="0.00238"></path>
<path d="M0.431 0.712 Q0.933 0.542 0.711 0.260" stroke="hsl(0.0,100%,35%)" stroke-width="0.00045"></path>
<path d="M0.431 0.712 Q0.807 0.701 0.868 0.516" stroke="hsl(0.0,100%,35%)" stroke-width="0.00358"></path>
<path d="M0.431 0.712 Q1.090 0.479 0.779 0.106" stroke="hsl(0.0,100%,35%)" stroke-width="0.00015"></path>
<path d="M0.431 0.712 Q0.733 0.612 0.603 0.443" stroke="hsl(0.0,100%,35%)" stroke-width="0.00015"></path>
<path d="M0.431 0.712 Q1.087 0.865 1.529 0.578" stroke="hsl(0.0,100%,35%)" stroke-width="0.00015"></path>
<path d="M0.431 0.712 Q1.264 0.853 1.722 0.478" stroke="hsl(0.0,100%,35%)" stroke-width="0.00074"></path>
<path d="M0.431 0.712 Q1.119 0.822 1.485 0.511" stroke="hsl(0.0,100%,35%)" stroke-width="0.00030"></path>
<path d="M0.431 0.712 Q0.516 0.925 0.950 0.930" stroke="hsl(0.0,100%,35%)" stroke-width="0.00015"></path>
<path d="M0.431 0.712 Q1.249 0.712 1.428 0.313" stroke="hsl(0.0,100%,35%)" stroke-width="0.00015"></path>
<path d="M0.431 0.712 Q1.061 0.835 1.439 0.555" stroke="hsl(0.0,100%,35%)" stroke-width="0.00015"></path>
<path d="M1.950 0.436 Q1.471 0.100 0.711 0.260" stroke="hsl(180.0,100%,35%)" stroke-width="0.00268"></path>
<path d="M1.950 0.436 Q1.982 0.414 1.947 0.394" stroke="hsl(180.0,100%,35%)" stroke-width="0.00045"></path>
<path d="M1.950 0.436 Q1.271 0.170 0.603 0.443" stroke="hsl(180.0,100%,35%)" stroke-width="0.00909"></path>
<path d="M1.950 0.436 Q1.628 0.037 0.779 0.106" stroke="hsl(180.0,100%,35%)" stroke-width="0.00045"></path>
<path d="M1.950 0.436 Q1.343 0.484 1.303 0.790" stroke="hsl(180.0,100%,35%)" stroke-width="0.00015"></path>
<path d="M1.950 0.436 Q1.802 0.411 1.722 0.478" stroke="hsl(180.0,100%,35%)" stroke-width="0.00268"></path>
<path d="M1.950 0.436 Q1.166 0.091 0.322 0.398" stroke="hsl(180.0,100%,35%)" stroke-width="0.00015"></path>
<path d="M1.950 0.436 Q1.958 0.200 1.500 0.144" stroke="hsl(180.0,100%,35%)" stroke-width="0.00149"></path>
<path d="M1.950 0.436 Q1.787 0.270 1.428 0.313" stroke="hsl(180.0,100%,35%)" stroke-width="0.00030"></path>
<path d="M1.950 0.436 Q0.970 0.270 0.431 0.712" stroke="hsl(180.0,100%,35%)" stroke-width="0.00045"></path>
<path d="M1.950 0.436 Q1.096 0.209 0.466 0.576" stroke="hsl(180.0,100%,35%)" stroke-width="0.00030"></path>
<path d="M1.950 0.436 Q1.345 0.260 0.868 0.516" stroke="hsl(180.0,100%,35%)" stroke-width="0.00015"></path>
<path d="M1.950 0.436 Q1.054 0.483 0.950 0.930" stroke="hsl(180.0,100%,35%)" stroke-width="0.00074"></path>
<path d="M1.950 0.436 Q1.657 0.381 1.485 0.511" stroke="hsl(180.0,100%,35%)" stroke-width="0.00015"></path>
<path d="M1.950 0.436 Q1.055 0.373 0.735 0.796" stroke="hsl(180.0,100%,35%)" stroke-width="0.00015"></path>
<path d="M0.322 0.398 Q1.114 0.506 1.500 0.144" stroke="hsl(0.0,100%,35%)" stroke-width="0.00179"></path>
<path d="M0.322 0.398 Q0.627 0.407 0.711 0.260" stroke="hsl(0.0,100%,35%)" stroke-width="0.00775"></path>
<path d="M0.322 0.398 Q0.784 0.344 0.779 0.106" stroke="hsl(0.0,100%,35%)" stroke-width="0.00119"></path>
<path d="M0.322 0.398 Q0.501 0.566 0.868 0.516" stroke="hsl(0.0,100%,35%)" stroke-width="0.00223"></path>
<path d="M0.322 0.398 Q0.427 0.477 0.603 0.443" stroke="hsl(0.0,100%,35%)" stroke-width="0.00149"></path>
<path d="M0.322 0.398 Q0.252 0.516 0.466 0.576" stroke="hsl(0.0,100%,35%)" stroke-width="0.00372"></path>
<path d="M0.322 0.398 Q0.755 0.700 1.439 0.555" stroke="hsl(0.0,100%,35%)" stroke-width="0.00045"></path>
<path d="M0.322 0.398 Q0.126 0.577 0.431 0.712" stroke="hsl(0.0,100%,35%)" stroke-width="0.00521"></path>
<path d="M0.322 0.398 Q0.211 0.680 0.735 0.796" stroke="hsl(0.0,100%,35%)" stroke-width="0.00134"></path>
<path d="M0.322 0.398 Q0.958 0.718 1.722 0.478" stroke="hsl(0.0,100%,35%)" stroke-width="0.00030"></path>
<path d="M0.322 0.398 Q0.537 0.297 0.386 0.170" stroke="hsl(0.0,100%,35%)" stroke-width="0.00030"></path>
<path d="M0.322 0.398 Q1.106 0.742 1.950 0.436" stroke="hsl(0.0,100%,35%)" stroke-width="0.00015"></path>
<path d="M0.322 0.398 Q0.782 0.730 1.529 0.578" stroke="hsl(0.0,100%,35%)" stroke-width="0.00015"></path>
<path d="M0.768 0.616 Q0.608 0.699 0.735 0.796" stroke="hsl(0.0,100%,35%)" stroke-width="0.00074"></path>
<path d="M0.768 0.616 Q1.024 0.427 0.711 0.260" stroke="hsl(0.0,100%,35%)" stroke-width="0.00030"></path>
<path d="M0.768 0.616 Q0.898 0.586 0.868 0.516" stroke="hsl(0.0,100%,35%)" stroke-width="0.00134"></path>
<path d="M0.768 0.616 Q1.355 0.738 1.722 0.478" stroke="hsl(0.0,100%,35%)" stroke-width="0.00104"></path>
<path d="M0.768 0.616 Q0.649 0.536 0.466 0.576" stroke="hsl(0.0,100%,35%)" stroke-width="0.00238"></path>
<path d="M0.768 0.616 Q0.523 0.597 0.431 0.712" stroke="hsl(0.0,100%,35%)" stroke-width="0.00149"></path>
<path d="M0.768 0.616 Q1.210 0.707 1.485 0.511" stroke="hsl(0.0,100%,35%)" stroke-width="0.00015"></path>
<path d="M0.768 0.616 Q1.181 0.363 0.779 0.106" stroke="hsl(0.0,100%,35%)" stroke-width="0.00074"></path>
<path d="M1.428 0.313 Q1.298 0.424 1.485 0.511" stroke="hsl(180.0,100%,35%)" stroke-width="0.00060"></path>
<path d="M1.428 0.313 Q1.443 0.455 1.722 0.478" stroke="hsl(180.0,100%,35%)" stroke-width="0.00060"></path>
<path d="M1.428 0.313 Q1.267 0.466 1.529 0.578" stroke="hsl(180.0,100%,35%)" stroke-width="0.00060"></path>
<path d="M1.428 0.313 Q0.912 0.213 0.603 0.443" stroke="hsl(180.0,100%,35%)" stroke-width="0.00015"></path>
<path d="M1.428 0.313 Q0.807 0.135 0.322 0.398" stroke="hsl(180.0,100%,35%)" stroke-width="0.00015"></path>
<path d="M1.428 0.313 Q0.737 0.252 0.466 0.576" stroke="hsl(180.0,100%,35%)" stroke-width="0.00015"></path>
<path d="M1.428 0.313 Q0.986 0.303 0.868 0.516" stroke="hsl(180.0,100%,35%)" stroke-width="0.00015"></path>
<path d="M1.303 0.790 Q1.910 0.742 1.950 0.436" stroke="hsl(180.0,100%,35%)" stroke-width="0.00492"></path>
<path d="M1.303 0.790 Q1.762 0.718 1.722 0.478" stroke="hsl(180.0,100%,35%)" stroke-width="0.00074"></path>
<path d="M1.303 0.790 Q1.431 0.407 0.711 0.260" stroke="hsl(180.0,100%,35%)" stroke-width="0.00060"></path>
<path d="M1.303 0.790 Q1.056 0.516 0.466 0.576" stroke="hsl(180.0,100%,35%)" stroke-width="0.00030"></path>
<path d="M1.303 0.790 Q1.015 0.679 0.735 0.796" stroke="hsl(180.0,100%,35%)" stroke-width="0.00015"></path>
<path d="M1.303 0.790 Q1.231 0.477 0.603 0.443" stroke="hsl(180.0,100%,35%)" stroke-width="0.00015"></path>
<path d="M0.283 0.117 Q0.539 0.211 0.779 0.106" stroke="hsl(0.0,100%,35%)" stroke-width="0.00447"></path>
<path d="M0.283 0.117 Q0.292 0.164 0.386 0.170" stroke="hsl(0.0,100%,35%)" stroke-width="0.00030"></path>
<path d="M0.283 0.117 Q0.383 0.274 0.711 0.260" stroke="hsl(0.0,100%,35%)" stroke-width="0.00343"></path>
<path d="M0.283 0.117 Q0.078 0.265 0.322 0.398" stroke="hsl(0.0,100%,35%)" stroke-width="0.00030"></path>
<path d="M1.529 0.578 Q1.375 0.255 0.711 0.260" stroke="hsl(180.0,100%,35%)" stroke-width="0.00030"></path>
<path d="M1.529 0.578 Q1.561 0.536 1.485 0.511" stroke="hsl(180.0,100%,35%)" stroke-width="0.00104"></path>
<path d="M1.529 0.578 Q1.706 0.567 1.722 0.478" stroke="hsl(180.0,100%,35%)" stroke-width="0.00060"></path>
<path d="M1.529 0.578 Q1.691 0.425 1.428 0.313" stroke="hsl(180.0,100%,35%)" stroke-width="0.00045"></path>
<path d="M1.529 0.578 Q1.560 0.712 1.828 0.727" stroke="hsl(180.0,100%,35%)" stroke-width="0.00015"></path>
<path d="M1.529 0.578 Q0.958 0.638 0.950 0.930" stroke="hsl(180.0,100%,35%)" stroke-width="0.00015"></path>
<path d="M1.485 0.511 Q1.719 0.622 1.987 0.533" stroke="hsl(180.0,100%,35%)" stroke-width="0.00015"></path>
<path d="M1.485 0.511 Q1.454 0.554 1.529 0.578" stroke="hsl(180.0,100%,35%)" stroke-width="0.00149"></path>
<path d="M1.485 0.511 Q1.615 0.401 1.428 0.313" stroke="hsl(180.0,100%,35%)" stroke-width="0.00194"></path>
<path d="M1.485 0.511 Q0.798 0.401 0.431 0.712" stroke="hsl(180.0,100%,35%)" stroke-width="0.00074"></path>
<path d="M1.485 0.511 Q1.630 0.542 1.722 0.478" stroke="hsl(180.0,100%,35%)" stroke-width="0.00060"></path>
<path d="M1.485 0.511 Q1.456 0.168 0.779 0.106" stroke="hsl(180.0,100%,35%)" stroke-width="0.00030"></path>
<path d="M1.485 0.511 Q1.299 0.231 0.711 0.260" stroke="hsl(180.0,100%,35%)" stroke-width="0.00015"></path>
<path d="M1.828 0.727 Q1.698 0.669 1.555 0.719" stroke="hsl(180.0,100%,35%)" stroke-width="0.00015"></path>
<path d="M1.828 0.727 Q1.798 0.593 1.529 0.578" stroke="hsl(180.0,100%,35%)" stroke-width="0.00030"></path>
<path d="M1.828 0.727 Q1.974 0.581 1.722 0.478" stroke="hsl(180.0,100%,35%)" stroke-width="0.00015"></path>
<path d="M0.950 0.930 Q0.865 0.718 0.431 0.712" stroke="hsl(180.0,100%,35%)" stroke-width="0.00015"></path>
<path d="M0.950 0.930 Q1.494 0.840 1.439 0.555" stroke="hsl(180.0,100%,35%)" stroke-width="0.00104"></path>
<path d="M0.950 0.930 Q1.367 0.547 0.711 0.260" stroke="hsl(180.0,100%,35%)" stroke-width="0.00015"></path>
<path d="M0.950 0.930 Q1.523 0.484 0.779 0.106" stroke="hsl(180.0,100%,35%)" stroke-width="0.00015"></path>
<path d="M0.466 0.576 Q0.998 0.404 0.779 0.106" stroke="hsl(0.0,100%,35%)" stroke-width="0.00194"></path>
<path d="M0.466 0.576 Q0.585 0.656 0.768 0.616" stroke="hsl(0.0,100%,35%)" stroke-width="0.00358"></path>
<path d="M0.466 0.576 Q0.841 0.467 0.711 0.260" stroke="hsl(0.0,100%,35%)" stroke-width="0.00223"></path>
<path d="M0.466 0.576 Q0.996 0.790 1.529 0.578" stroke="hsl(0.0,100%,35%)" stroke-width="0.00179"></path>
<path d="M0.466 0.576 Q0.715 0.626 0.868 0.516" stroke="hsl(0.0,100%,35%)" stroke-width="0.01505"></path>
<path d="M0.466 0.576 Q0.536 0.458 0.322 0.398" stroke="hsl(0.0,100%,35%)" stroke-width="0.00045"></path>
<path d="M0.466 0.576 Q1.329 0.566 1.500 0.144" stroke="hsl(0.0,100%,35%)" stroke-width="0.00030"></path>
<path d="M0.466 0.576 Q1.172 0.778 1.722 0.478" stroke="hsl(0.0,100%,35%)" stroke-width="0.00060"></path>
<path d="M0.466 0.576 Q0.641 0.537 0.603 0.443" stroke="hsl(0.0,100%,35%)" stroke-width="0.00089"></path>
<path d="M0.466 0.576 Q0.340 0.637 0.431 0.712" stroke="hsl(0.0,100%,35%)" stroke-width="0.01192"></path>
<path d="M0.466 0.576 Q1.141 0.859 1.840 0.592" stroke="hsl(0.0,100%,35%)" stroke-width="0.00015"></path>
<path d="M0.466 0.576 Q0.425 0.740 0.735 0.796" stroke="hsl(0.0,100%,35%)" stroke-width="0.00507"></path>
<path d="M0.466 0.576 Q0.591 0.710 0.879 0.679" stroke="hsl(0.0,100%,35%)" stroke-width="0.00015"></path>
<path d="M0.466 0.576 Q1.157 0.637 1.428 0.313" stroke="hsl(0.0,100%,35%)" stroke-width="0.00030"></path>
<path d="M0.603 0.443 Q0.428 0.482 0.466 0.576" stroke="hsl(0.0,100%,35%)" stroke-width="0.02697"></path>
<path d="M0.603 0.443 Q0.387 0.646 0.735 0.796" stroke="hsl(0.0,100%,35%)" stroke-width="0.00417"></path>
<path d="M0.603 0.443 Q0.803 0.373 0.711 0.260" stroke="hsl(0.0,100%,35%)" stroke-width="0.00760"></path>
<path d="M0.603 0.443 Q1.134 0.684 1.722 0.478" stroke="hsl(0.0,100%,35%)" stroke-width="0.00164"></path>
<path d="M0.603 0.443 Q0.498 0.364 0.322 0.398" stroke="hsl(0.0,100%,35%)" stroke-width="0.00060"></path>
<path d="M0.603 0.443 Q0.960 0.310 0.779 0.106" stroke="hsl(0.0,100%,35%)" stroke-width="0.01073"></path>
<path d="M0.603 0.443 Q1.282 0.708 1.950 0.436" stroke="hsl(0.0,100%,35%)" stroke-width="0.00447"></path>
<path d="M0.603 0.443 Q0.958 0.696 1.529 0.578" stroke="hsl(0.0,100%,35%)" stroke-width="0.00030"></path>
<path d="M0.603 0.443 Q0.302 0.543 0.431 0.712" stroke="hsl(0.0,100%,35%)" stroke-width="0.00149"></path>
<path d="M0.603 0.443 Q0.677 0.532 0.868 0.516" stroke="hsl(0.0,100%,35%)" stroke-width="0.00074"></path>
<path d="M0.603 0.443 Q1.291 0.472 1.500 0.144" stroke="hsl(0.0,100%,35%)" stroke-width="0.00030"></path>
<path d="M0.603 0.443 Q0.713 0.263 0.386 0.170" stroke="hsl(0.0,100%,35%)" stroke-width="0.00015"></path>
<path d="M0.942 0.307 Q0.864 0.237 0.711 0.260" stroke="hsl(0.0,100%,35%)" stroke-width="0.00581"></path>
<path d="M0.942 0.307 Q1.071 0.324 1.134 0.265" stroke="hsl(0.0,100%,35%)" stroke-width="0.00015"></path>
<path d="M0.942 0.307 Q1.021 0.174 0.779 0.106" stroke="hsl(0.0,100%,35%)" stroke-width="0.00015"></path>
<path d="M0.942 0.307 Q0.992 0.530 1.439 0.555" stroke="hsl(0.0,100%,35%)" stroke-width="0.00015"></path>
<path d="M0.942 0.307 Q0.664 0.307 0.603 0.443" stroke="hsl(0.0,100%,35%)" stroke-width="0.00015"></path>
<path d="M1.500 0.144 Q1.578 0.219 1.742 0.197" stroke="hsl(180.0,100%,35%)" stroke-width="0.00402"></path>
<path d="M1.500 0.144 Q1.491 0.380 1.950 0.436" stroke="hsl(180.0,100%,35%)" stroke-width="0.00268"></path>
<path d="M1.500 0.144 Q0.707 0.035 0.322 0.398" stroke="hsl(180.0,100%,35%)" stroke-width="0.00089"></path>
<path d="M1.500 0.144 Q1.343 0.355 1.722 0.478" stroke="hsl(180.0,100%,35%)" stroke-width="0.00104"></path>
<path d="M1.500 0.144 Q1.198 0.325 1.485 0.511" stroke="hsl(180.0,100%,35%)" stroke-width="0.00015"></path>
<path d="M1.500 0.144 Q1.315 0.086 1.161 0.163" stroke="hsl(180.0,100%,35%)" stroke-width="0.00015"></path>
<path d="M1.500 0.144 Q0.884 0.427 1.303 0.790" stroke="hsl(180.0,100%,35%)" stroke-width="0.00030"></path>
<path d="M1.500 0.144 Q0.812 0.114 0.603 0.443" stroke="hsl(180.0,100%,35%)" stroke-width="0.00045"></path>
<path d="M1.500 0.144 Q0.637 0.153 0.466 0.576" stroke="hsl(180.0,100%,35%)" stroke-width="0.00015"></path>
<path d="M1.500 0.144 Q0.886 0.204 0.868 0.516" stroke="hsl(180.0,100%,35%)" stroke-width="0.00015"></path>
<path d="M1.500 0.144 Q0.756 0.234 0.768 0.616" stroke="hsl(180.0,100%,35%)" stroke-width="0.00015"></path>
<path d="M1.500 0.144 Q1.012 0.044 0.711 0.260" stroke="hsl(180.0,100%,35%)" stroke-width="0.00089"></path>
<path d="M1.500 0.144 Q1.169 -0.019 0.779 0.106" stroke="hsl(180.0,100%,35%)" stroke-width="0.00015"></path>
<path d="M1.500 0.144 Q0.511 0.214 0.431 0.712" stroke="hsl(180.0,100%,35%)" stroke-width="0.00015"></path>
<path d="M1.439 0.555 Q0.935 0.371 0.466 0.576" stroke="hsl(180.0,100%,35%)" stroke-width="0.00015"></path>
<path d="M1.439 0.555 Q0.894 0.645 0.950 0.930" stroke="hsl(180.0,100%,35%)" stroke-width="0.00060"></path>
<path d="M1.439 0.555 Q0.809 0.432 0.431 0.712" stroke="hsl(180.0,100%,35%)" stroke-width="0.00045"></path>
<path d="M1.439 0.555 Q1.626 0.432 1.428 0.313" stroke="hsl(180.0,100%,35%)" stroke-width="0.00045"></path>
<path d="M1.439 0.555 Q1.311 0.262 0.711 0.260" stroke="hsl(180.0,100%,35%)" stroke-width="0.00030"></path>
<path d="M1.439 0.555 Q1.111 0.332 0.603 0.443" stroke="hsl(180.0,100%,35%)" stroke-width="0.00015"></path>
<path d="M1.439 0.555 Q1.467 0.199 0.779 0.106" stroke="hsl(180.0,100%,35%)" stroke-width="0.00015"></path>
<path d="M1.439 0.555 Q1.006 0.253 0.322 0.398" stroke="hsl(180.0,100%,35%)" stroke-width="0.00015"></path>
<path d="M1.742 0.197 Q1.507 0.333 1.722 0.478" stroke="hsl(180.0,100%,35%)" stroke-width="0.00149"></path>
<path d="M1.742 0.197 Q1.663 0.122 1.500 0.144" stroke="hsl(180.0,100%,35%)" stroke-width="0.00253"></path>
<path d="M1.742 0.197 Q1.237 0.267 1.264 0.529" stroke="hsl(180.0,100%,35%)" stroke-width="0.00015"></path>
<path d="M1.742 0.197 Q1.304 0.315 1.439 0.555" stroke="hsl(180.0,100%,35%)" stroke-width="0.00089"></path>
<path d="M1.742 0.197 Q0.759 0.405 0.950 0.930" stroke="hsl(180.0,100%,35%)" stroke-width="0.00015"></path>
<path d="M1.742 0.197 Q1.655 0.358 1.950 0.436" stroke="hsl(180.0,100%,35%)" stroke-width="0.00015"></path>
<path d="M1.742 0.197 Q1.333 -0.041 0.779 0.106" stroke="hsl(180.0,100%,35%)" stroke-width="0.00030"></path>
<path d="M1.742 0.197 Q1.176 0.022 0.711 0.260" stroke="hsl(180.0,100%,35%)" stroke-width="0.00030"></path>
<path d="M1.742 0.197 Q0.871 0.013 0.322 0.398" stroke="hsl(180.0,100%,35%)" stroke-width="0.00030"></path>
<path d="M1.052 0.800 Q1.645 0.773 1.722 0.478" stroke="hsl(180.0,100%,35%)" stroke-width="0.00060"></path>
<path d="M1.052 0.800 Q0.897 0.845 0.950 0.930" stroke="hsl(180.0,100%,35%)" stroke-width="0.00089"></path>
<path d="M1.052 0.800 Q1.314 0.462 0.711 0.260" stroke="hsl(180.0,100%,35%)" stroke-width="0.00015"></path>
<path d="M1.052 0.800 Q1.442 0.755 1.439 0.555" stroke="hsl(180.0,100%,35%)" stroke-width="0.00030"></path>
<path d="M1.947 0.394 Q1.915 0.415 1.950 0.436" stroke="hsl(180.0,100%,35%)" stroke-width="0.00358"></path>
<path d="M1.947 0.394 Q1.767 0.391 1.722 0.478" stroke="hsl(180.0,100%,35%)" stroke-width="0.00045"></path>
<path d="M1.947 0.394 Q1.923 0.179 1.500 0.144" stroke="hsl(180.0,100%,35%)" stroke-width="0.00089"></path>
<path d="M1.947 0.394 Q1.131 0.071 0.322 0.398" stroke="hsl(180.0,100%,35%)" stroke-width="0.00030"></path>
<path d="M1.947 0.394 Q1.061 0.189 0.466 0.576" stroke="hsl(180.0,100%,35%)" stroke-width="0.00015"></path>
<path d="M1.134 0.265 Q0.926 0.178 0.711 0.260" stroke="hsl(180.0,100%,35%)" stroke-width="0.00030"></path>
<path d="M1.134 0.265 Q1.004 0.248 0.942 0.307" stroke="hsl(180.0,100%,35%)" stroke-width="0.00015"></path>
<path d="M1.264 0.529 Q1.533 0.595 1.722 0.478" stroke="hsl(180.0,100%,35%)" stroke-width="0.00894"></path>
<path d="M1.264 0.529 Q1.768 0.458 1.742 0.197" stroke="hsl(180.0,100%,35%)" stroke-width="0.00030"></path>
<path d="M1.264 0.529 Q1.359 0.221 0.779 0.106" stroke="hsl(180.0,100%,35%)" stroke-width="0.00030"></path>
<path d="M1.264 0.529 Q0.827 0.393 0.466 0.576" stroke="hsl(180.0,100%,35%)" stroke-width="0.00015"></path>
<path d="M1.264 0.529 Q1.076 0.443 0.868 0.516" stroke="hsl(180.0,100%,35%)" stroke-width="0.00015"></path>
<path d="M1.264 0.529 Q0.786 0.557 0.735 0.796" stroke="hsl(180.0,100%,35%)" stroke-width="0.00015"></path>
<path d="M1.264 0.529 Q0.701 0.454 0.431 0.712" stroke="hsl(180.0,100%,35%)" stroke-width="0.00015"></path>
<path d="M1.264 0.529 Q1.518 0.454 1.428 0.313" stroke="hsl(180.0,100%,35%)" stroke-width="0.00030"></path>
<path d="M1.264 0.529 Q1.357 0.607 1.529 0.578" stroke="hsl(180.0,100%,35%)" stroke-width="0.00015"></path>
<path d="M1.608 0.331 Q1.695 0.452 1.950 0.436" stroke="hsl(180.0,100%,35%)" stroke-width="0.00015"></path>
<path d="M1.608 0.331 Q0.715 0.286 0.431 0.712" stroke="hsl(180.0,100%,35%)" stroke-width="0.00015"></path>
<path d="M1.608 0.331 Q1.548 0.427 1.722 0.478" stroke="hsl(180.0,100%,35%)" stroke-width="0.00015"></path>
<path d="M1.608 0.331 Q1.704 0.216 1.500 0.144" stroke="hsl(180.0,100%,35%)" stroke-width="0.00015"></path>
<path d="M1.440 0.277 Q1.568 0.459 1.950 0.436" stroke="hsl(180.0,100%,35%)" stroke-width="0.00045"></path>
<path d="M1.440 0.277 Q1.420 0.434 1.722 0.478" stroke="hsl(180.0,100%,35%)" stroke-width="0.00045"></path>
<path d="M1.440 0.277 Q0.673 0.396 0.735 0.796" stroke="hsl(180.0,100%,35%)" stroke-width="0.00045"></path>
<path d="M1.440 0.277 Q0.588 0.293 0.431 0.712" stroke="hsl(180.0,100%,35%)" stroke-width="0.00015"></path>
<path d="M1.440 0.277 Q1.274 0.580 1.828 0.727" stroke="hsl(180.0,100%,35%)" stroke-width="0.00015"></path>
<path d="M1.440 0.277 Q1.405 0.293 1.428 0.313" stroke="hsl(180.0,100%,35%)" stroke-width="0.00030"></path>
<path d="M1.161 0.163 Q0.858 0.121 0.711 0.260" stroke="hsl(180.0,100%,35%)" stroke-width="0.00060"></path>
<path d="M1.161 0.163 Q1.066 0.208 1.134 0.265" stroke="hsl(180.0,100%,35%)" stroke-width="0.00015"></path>
<path d="M1.161 0.163 Q0.608 0.365 0.879 0.679" stroke="hsl(180.0,100%,35%)" stroke-width="0.00015"></path>
<path d="M1.161 0.163 Q0.986 0.414 1.439 0.555" stroke="hsl(180.0,100%,35%)" stroke-width="0.00030"></path>
<path d="M1.555 0.719 Q1.196 0.312 0.322 0.398" stroke="hsl(180.0,100%,35%)" stroke-width="0.00015"></path>
<path d="M1.555 0.719 Q1.655 0.644 1.529 0.578" stroke="hsl(180.0,100%,35%)" stroke-width="0.00015"></path>
<path d="M1.555 0.719 Q1.685 0.778 1.828 0.727" stroke="hsl(180.0,100%,35%)" stroke-width="0.00060"></path>
<path d="M1.555 0.719 Q1.832 0.632 1.722 0.478" stroke="hsl(180.0,100%,35%)" stroke-width="0.00015"></path>
<path d="M0.787 0.351 Q0.822 0.290 0.711 0.260" stroke="hsl(180.0,100%,35%)" stroke-width="0.00045"></path>
<path d="M0.787 0.351 Q1.301 0.626 1.950 0.436" stroke="hsl(180.0,100%,35%)" stroke-width="0.00015"></path>
<path d="M0.787 0.351 Q1.153 0.602 1.722 0.478" stroke="hsl(180.0,100%,35%)" stroke-width="0.00015"></path>
<path d="M1.987 0.533 Q1.753 0.422 1.485 0.511" stroke="hsl(180.0,100%,35%)" stroke-width="0.00119"></path>
<path d="M1.987 0.533 Q1.722 0.464 1.529 0.578" stroke="hsl(180.0,100%,35%)" stroke-width="0.00015"></path>
<path d="M1.987 0.533 Q1.441 0.301 0.868 0.516" stroke="hsl(180.0,100%,35%)" stroke-width="0.00030"></path>
<path d="M1.987 0.533 Q1.898 0.452 1.722 0.478" stroke="hsl(180.0,100%,35%)" stroke-width="0.00089"></path>
<path d="M1.438 0.866 Q1.254 0.409 0.322 0.398" stroke="hsl(180.0,100%,35%)" stroke-width="0.00015"></path>
<path d="M1.438 0.866 Q1.431 0.801 1.303 0.790" stroke="hsl(180.0,100%,35%)" stroke-width="0.00298"></path>
<path d="M1.438 0.866 Q1.890 0.729 1.722 0.478" stroke="hsl(180.0,100%,35%)" stroke-width="0.00045"></path>
<path d="M1.438 0.866 Q1.715 0.354 0.779 0.106" stroke="hsl(180.0,100%,35%)" stroke-width="0.00015"></path>
<path d="M1.438 0.866 Q2.038 0.753 1.950 0.436" stroke="hsl(180.0,100%,35%)" stroke-width="0.00045"></path>
<path d="M0.738 0.374 Q0.816 0.312 0.711 0.260" stroke="hsl(180.0,100%,35%)" stroke-width="0.00119"></path>
<path d="M0.738 0.374 Q1.023 0.399 1.134 0.265" stroke="hsl(180.0,100%,35%)" stroke-width="0.00015"></path>
<path d="M0.738 0.374 Q0.944 0.605 1.439 0.555" stroke="hsl(180.0,100%,35%)" stroke-width="0.00015"></path>
<path d="M1.128 0.638 Q0.971 0.608 0.879 0.679" stroke="hsl(0.0,100%,35%)" stroke-width="0.00089"></path>
<path d="M1.128 0.638 Q1.096 0.525 0.868 0.516" stroke="hsl(0.0,100%,35%)" stroke-width="0.00089"></path>
<path d="M1.128 0.638 Q0.720 0.536 0.431 0.712" stroke="hsl(0.0,100%,35%)" stroke-width="0.00015"></path>
<path d="M0.235 0.804 Q0.407 0.797 0.431 0.712" stroke="hsl(0.0,100%,35%)" stroke-width="0.00015"></path>
<path d="M0.235 0.804 Q0.492 0.900 0.735 0.796" stroke="hsl(0.0,100%,35%)" stroke-width="0.00015"></path>
<path d="M0.235 0.804 Q1.065 0.564 0.779 0.106" stroke="hsl(0.0,100%,35%)" stroke-width="0.00015"></path>
<path d="M0.153 0.638 Q0.608 0.720 0.868 0.516" stroke="hsl(0.0,100%,35%)" stroke-width="0.00060"></path>
<path d="M0.153 0.638 Q0.233 0.731 0.431 0.712" stroke="hsl(0.0,100%,35%)" stroke-width="0.00209"></path>
<path d="M0.153 0.638 Q0.318 0.833 0.735 0.796" stroke="hsl(0.0,100%,35%)" stroke-width="0.00089"></path>
<path d="M0.153 0.638 Q0.735 0.561 0.711 0.260" stroke="hsl(0.0,100%,35%)" stroke-width="0.00015"></path>
<path d="M0.153 0.638 Q0.644 0.450 0.386 0.170" stroke="hsl(0.0,100%,35%)" stroke-width="0.00015"></path>
<path d="M0.153 0.638 Q0.535 0.630 0.603 0.443" stroke="hsl(0.0,100%,35%)" stroke-width="0.00015"></path>
<path d="M0.190 0.752 Q0.343 0.780 0.431 0.712" stroke="hsl(0.0,100%,35%)" stroke-width="0.00030"></path>
<path d="M0.190 0.752 Q1.160 0.780 1.428 0.313" stroke="hsl(0.0,100%,35%)" stroke-width="0.00015"></path>
<path d="M0.190 0.752 Q1.264 1.002 1.987 0.533" stroke="hsl(0.0,100%,35%)" stroke-width="0.00015"></path>
</g>
<text x="0.386" y="0.150" font-size="0.038386" fill="hsl(0.0,100%,20%)">armansito</text>
<text x="0.779" y="0.066" font-size="0.080318" fill="hsl(0.0,100%,20%)">johnstiles</text>
<text x="0.868" y="0.490" font-size="0.051439" fill="hsl(0.0,100%,20%)">michaelludwig</text>
<text x="0.735" y="0.773" font-size="0.045557" fill="hsl(0.0,100%,20%)">jvanverth</text>
<text x="1.722" y="0.446" font-size="0.064078" fill="hsl(180.0,100%,20%)">kjlubick</text>
<text x="0.711" y="0.223" font-size="0.074123" fill="hsl(0.0,100%,20%)">brianosman</text>
<text x="0.879" y="0.668" font-size="0.021301" fill="hsl(0.0,100%,20%)">nicolettep</text>
<text x="0.431" y="0.689" font-size="0.045360" fill="hsl(0.0,100%,20%)">egdaniel</text>
<text x="1.950" y="0.414" font-size="0.043334" fill="hsl(180.0,100%,20%)">bungeman</text>
<text x="0.322" y="0.379" font-size="0.037258" fill="hsl(0.0,100%,20%)">bsalomon</text>
<text x="0.768" y="0.606" font-size="0.020767" fill="hsl(0.0,100%,20%)">jamesgk</text>
<text x="1.428" y="0.303" font-size="0.020550" fill="hsl(180.0,100%,20%)">rmistry</text>
<text x="1.303" y="0.780" font-size="0.019541" fill="hsl(180.0,100%,20%)">jlavrova</text>
<text x="0.283" y="0.107" font-size="0.020550" fill="hsl(0.0,100%,20%)">ethannicholas</text>
<text x="1.529" y="0.568" font-size="0.020659" fill="hsl(180.0,100%,20%)">borenet</text>
<text x="1.485" y="0.501" font-size="0.021719" fill="hsl(180.0,100%,20%)">jcgregorio</text>
<text x="1.828" y="0.723" font-size="0.007931" fill="hsl(180.0,100%,20%)">hcm</text>
<text x="0.950" y="0.924" font-size="0.013066" fill="hsl(180.0,100%,20%)">djsollen</text>
<text x="0.466" y="0.547" font-size="0.057462" fill="hsl(0.0,100%,20%)">robertphillips</text>
<text x="0.603" y="0.417" font-size="0.051961" fill="hsl(0.0,100%,20%)">herb</text>
<text x="0.942" y="0.300" font-size="0.014531" fill="hsl(0.0,100%,20%)">ccameron</text>
<text x="1.500" y="0.131" font-size="0.026045" fill="hsl(180.0,100%,20%)">fmalita</text>
<text x="1.439" y="0.546" font-size="0.017349" fill="hsl(180.0,100%,20%)">scroggo</text>
<text x="1.742" y="0.186" font-size="0.021195" fill="hsl(180.0,100%,20%)">jmbetancourt</text>
<text x="1.052" y="0.796" font-size="0.008209" fill="hsl(180.0,100%,20%)">nifong</text>
<text x="1.947" y="0.387" font-size="0.013236" fill="hsl(180.0,100%,20%)">drott</text>
<text x="1.134" y="0.262" font-size="0.005192" fill="hsl(180.0,100%,20%)">jreck</text>
<text x="1.264" y="0.519" font-size="0.019310" fill="hsl(180.0,100%,20%)">cmumford</text>
<text x="1.608" y="0.329" font-size="0.004239" fill="hsl(180.0,100%,20%)">dnfield</text>
<text x="1.440" y="0.273" font-size="0.009239" fill="hsl(180.0,100%,20%)">erikrose</text>
<text x="1.161" y="0.159" font-size="0.008209" fill="hsl(180.0,100%,20%)">nscobie</text>
<text x="1.555" y="0.716" font-size="0.005995" fill="hsl(180.0,100%,20%)">sharaks</text>
<text x="0.787" y="0.349" font-size="0.004739" fill="hsl(180.0,100%,20%)">iapres</text>
<text x="1.987" y="0.525" font-size="0.015284" fill="hsl(180.0,100%,20%)">lovisolo</text>
<text x="1.840" y="0.589" font-size="0.005192" fill="hsl(180.0,100%,20%)">tdenniston</text>
<text x="1.191" y="0.373" font-size="0.004739" fill="hsl(180.0,100%,20%)">wrightgeorge</text>
<text x="1.438" y="0.860" font-size="0.011215" fill="hsl(180.0,100%,20%)">jsimmons</text>
<text x="1.561" y="0.314" font-size="0.002120" fill="hsl(180.0,100%,20%)">yjbanov</text>
<text x="0.738" y="0.371" font-size="0.006703" fill="hsl(180.0,100%,20%)">kyslov</text>
<text x="1.128" y="0.634" font-size="0.007642" fill="hsl(0.0,100%,20%)">lehoangquyen</text>
<text x="1.223" y="0.614" font-size="0.002120" fill="hsl(0.0,100%,20%)">csmartdalton</text>
<text x="0.235" y="0.802" font-size="0.003671" fill="hsl(0.0,100%,20%)">nathbappai</text>
<text x="0.153" y="0.633" font-size="0.011013" fill="hsl(0.0,100%,20%)">penghuang</text>
<text x="0.190" y="0.750" font-size="0.004239" fill="hsl(0.0,100%,20%)">shuangshuang.zhou</text>
</svg>
