<svg width="4000" height="2000" viewBox="-0.025 -0.025 2.05 1.05" xmlns="http://www.w3.org/2000/svg">
  <style>
    path {
      fill: none;
      stroke-linecap: round;
      stroke-opacity: 0.4;
    }

    text {
      text-anchor: middle;
      alignment-baseline: hanging;
    }
  </style>
  <g opacity="0.4">
<path d="M1.533 0.631 Q1.619 0.707 1.785 0.682" stroke="hsl(0.0,100%,35%)" stroke-width="0.00192"></path>
<path d="M1.533 0.631 Q0.924 0.352 0.245 0.588" stroke="hsl(0.0,100%,35%)" stroke-width="0.00268"></path>
<path d="M1.533 0.631 Q1.297 0.391 0.776 0.454" stroke="hsl(0.0,100%,35%)" stroke-width="0.00077"></path>
<path d="M1.533 0.631 Q1.039 0.481 0.637 0.689" stroke="hsl(0.0,100%,35%)" stroke-width="0.00115"></path>
<path d="M1.533 0.631 Q1.213 0.297 0.490 0.380" stroke="hsl(0.0,100%,35%)" stroke-width="0.00115"></path>
<path d="M1.533 0.631 Q1.415 0.567 1.262 0.610" stroke="hsl(0.0,100%,35%)" stroke-width="0.00422"></path>
<path d="M1.533 0.631 Q1.178 0.658 1.153 0.838" stroke="hsl(0.0,100%,35%)" stroke-width="0.00115"></path>
<path d="M1.533 0.631 Q1.574 0.783 1.878 0.796" stroke="hsl(0.0,100%,35%)" stroke-width="0.00038"></path>
<path d="M1.785 0.682 Q1.740 0.758 1.878 0.796" stroke="hsl(0.0,100%,35%)" stroke-width="0.05904"></path>
<path d="M1.785 0.682 Q1.940 0.679 1.969 0.602" stroke="hsl(0.0,100%,35%)" stroke-width="0.00498"></path>
<path d="M1.785 0.682 Q1.273 0.360 0.534 0.539" stroke="hsl(0.0,100%,35%)" stroke-width="0.00460"></path>
<path d="M1.785 0.682 Q1.699 0.606 1.533 0.631" stroke="hsl(0.0,100%,35%)" stroke-width="0.01265"></path>
<path d="M1.785 0.682 Q1.221 0.708 1.150 0.989" stroke="hsl(0.0,100%,35%)" stroke-width="0.00192"></path>
<path d="M1.785 0.682 Q1.090 0.327 0.245 0.588" stroke="hsl(0.0,100%,35%)" stroke-width="0.01150"></path>
<path d="M1.785 0.682 Q1.108 0.230 0.079 0.461" stroke="hsl(0.0,100%,35%)" stroke-width="0.00115"></path>
<path d="M1.785 0.682 Q1.205 0.456 0.637 0.689" stroke="hsl(0.0,100%,35%)" stroke-width="0.01035"></path>
<path d="M1.785 0.682 Q1.581 0.541 1.262 0.610" stroke="hsl(0.0,100%,35%)" stroke-width="0.00422"></path>
<path d="M1.785 0.682 Q1.379 0.272 0.490 0.380" stroke="hsl(0.0,100%,35%)" stroke-width="0.00690"></path>
<path d="M1.785 0.682 Q1.463 0.366 0.776 0.454" stroke="hsl(0.0,100%,35%)" stroke-width="0.00920"></path>
<path d="M1.785 0.682 Q1.204 0.172 0.082 0.343" stroke="hsl(0.0,100%,35%)" stroke-width="0.00077"></path>
<path d="M1.785 0.682 Q0.989 0.510 0.479 0.860" stroke="hsl(0.0,100%,35%)" stroke-width="0.00153"></path>
<path d="M1.785 0.682 Q1.514 0.586 1.267 0.697" stroke="hsl(0.0,100%,35%)" stroke-width="0.00038"></path>
<path d="M1.785 0.682 Q1.344 0.633 1.153 0.838" stroke="hsl(0.0,100%,35%)" stroke-width="0.00958"></path>
<path d="M1.785 0.682 Q1.033 0.377 0.273 0.677" stroke="hsl(0.0,100%,35%)" stroke-width="0.00038"></path>
<path d="M1.785 0.682 Q0.872 0.446 0.212 0.840" stroke="hsl(0.0,100%,35%)" stroke-width="0.00038"></path>
<path d="M1.785 0.682 Q1.428 0.485 0.967 0.617" stroke="hsl(0.0,100%,35%)" stroke-width="0.00038"></path>
<path d="M1.785 0.682 Q1.588 0.652 1.487 0.741" stroke="hsl(0.0,100%,35%)" stroke-width="0.00192"></path>
<path d="M1.785 0.682 Q1.481 0.737 1.522 0.897" stroke="hsl(0.0,100%,35%)" stroke-width="0.00038"></path>
<path d="M0.245 0.588 Q0.360 0.716 0.637 0.689" stroke="hsl(0.0,100%,35%)" stroke-width="0.00268"></path>
<path d="M0.245 0.588 Q0.736 0.802 1.262 0.610" stroke="hsl(0.0,100%,35%)" stroke-width="0.00383"></path>
<path d="M0.245 0.588 Q0.428 0.621 0.534 0.539" stroke="hsl(0.0,100%,35%)" stroke-width="0.02032"></path>
<path d="M0.245 0.588 Q0.854 0.867 1.533 0.631" stroke="hsl(0.0,100%,35%)" stroke-width="0.00192"></path>
<path d="M0.245 0.588 Q0.895 1.019 1.878 0.796" stroke="hsl(0.0,100%,35%)" stroke-width="0.01380"></path>
<path d="M0.245 0.588 Q0.940 0.943 1.785 0.682" stroke="hsl(0.0,100%,35%)" stroke-width="0.00383"></path>
<path d="M0.245 0.588 Q0.534 0.533 0.490 0.380" stroke="hsl(0.0,100%,35%)" stroke-width="0.00613"></path>
<path d="M0.245 0.588 Q0.618 0.627 0.776 0.454" stroke="hsl(0.0,100%,35%)" stroke-width="0.00345"></path>
<path d="M0.245 0.588 Q1.095 0.940 1.969 0.602" stroke="hsl(0.0,100%,35%)" stroke-width="0.00230"></path>
<path d="M0.245 0.588 Q0.499 0.894 1.153 0.838" stroke="hsl(0.0,100%,35%)" stroke-width="0.00038"></path>
<path d="M0.245 0.588 Q0.377 0.969 1.150 0.989" stroke="hsl(0.0,100%,35%)" stroke-width="0.00038"></path>
<path d="M0.776 0.454 Q0.519 0.543 0.637 0.689" stroke="hsl(0.0,100%,35%)" stroke-width="0.00805"></path>
<path d="M0.776 0.454 Q1.098 0.769 1.785 0.682" stroke="hsl(0.0,100%,35%)" stroke-width="0.00038"></path>
<path d="M0.776 0.454 Q0.657 0.721 1.153 0.838" stroke="hsl(0.0,100%,35%)" stroke-width="0.00115"></path>
<path d="M0.776 0.454 Q0.587 0.448 0.534 0.539" stroke="hsl(0.0,100%,35%)" stroke-width="0.00115"></path>
<path d="M0.776 0.454 Q0.894 0.629 1.262 0.610" stroke="hsl(0.0,100%,35%)" stroke-width="0.00153"></path>
<path d="M0.776 0.454 Q1.053 0.845 1.878 0.796" stroke="hsl(0.0,100%,35%)" stroke-width="0.00038"></path>
<path d="M0.776 0.454 Q0.692 0.359 0.490 0.380" stroke="hsl(0.0,100%,35%)" stroke-width="0.00038"></path>
<path d="M0.776 0.454 Q0.303 0.597 0.479 0.860" stroke="hsl(0.0,100%,35%)" stroke-width="0.00038"></path>
<path d="M0.776 0.454 Q0.404 0.414 0.245 0.588" stroke="hsl(0.0,100%,35%)" stroke-width="0.00038"></path>
<path d="M0.637 0.689 Q1.216 0.915 1.785 0.682" stroke="hsl(0.0,100%,35%)" stroke-width="0.00115"></path>
<path d="M0.637 0.689 Q0.894 0.599 0.776 0.454" stroke="hsl(0.0,100%,35%)" stroke-width="0.00537"></path>
<path d="M0.637 0.689 Q1.171 0.991 1.878 0.796" stroke="hsl(0.0,100%,35%)" stroke-width="0.00115"></path>
<path d="M0.637 0.689 Q0.522 0.560 0.245 0.588" stroke="hsl(0.0,100%,35%)" stroke-width="0.00383"></path>
<path d="M0.637 0.689 Q0.810 0.505 0.490 0.380" stroke="hsl(0.0,100%,35%)" stroke-width="0.00115"></path>
<path d="M0.637 0.689 Q0.421 0.743 0.479 0.860" stroke="hsl(0.0,100%,35%)" stroke-width="0.00038"></path>
<path d="M0.637 0.689 Q1.012 0.774 1.262 0.610" stroke="hsl(0.0,100%,35%)" stroke-width="0.00115"></path>
<path d="M0.637 0.689 Q0.705 0.593 0.534 0.539" stroke="hsl(0.0,100%,35%)" stroke-width="0.00383"></path>
<path d="M0.637 0.689 Q0.775 0.866 1.153 0.838" stroke="hsl(0.0,100%,35%)" stroke-width="0.00038"></path>
<path d="M0.637 0.689 Q0.558 0.846 0.848 0.919" stroke="hsl(0.0,100%,35%)" stroke-width="0.00038"></path>
<path d="M0.490 0.380 Q0.201 0.435 0.245 0.588" stroke="hsl(0.0,100%,35%)" stroke-width="0.00613"></path>
<path d="M0.490 0.380 Q0.316 0.564 0.637 0.689" stroke="hsl(0.0,100%,35%)" stroke-width="0.00230"></path>
<path d="M0.490 0.380 Q0.851 0.866 1.878 0.796" stroke="hsl(0.0,100%,35%)" stroke-width="0.00077"></path>
<path d="M0.490 0.380 Q0.896 0.790 1.785 0.682" stroke="hsl(0.0,100%,35%)" stroke-width="0.00192"></path>
<path d="M0.490 0.380 Q0.692 0.649 1.262 0.610" stroke="hsl(0.0,100%,35%)" stroke-width="0.00268"></path>
<path d="M0.490 0.380 Q0.384 0.468 0.534 0.539" stroke="hsl(0.0,100%,35%)" stroke-width="0.00192"></path>
<path d="M1.262 0.610 Q0.771 0.396 0.245 0.588" stroke="hsl(0.0,100%,35%)" stroke-width="0.01304"></path>
<path d="M1.262 0.610 Q1.380 0.675 1.533 0.631" stroke="hsl(0.0,100%,35%)" stroke-width="0.00767"></path>
<path d="M1.262 0.610 Q0.886 0.524 0.637 0.689" stroke="hsl(0.0,100%,35%)" stroke-width="0.00460"></path>
<path d="M1.262 0.610 Q1.421 0.826 1.878 0.796" stroke="hsl(0.0,100%,35%)" stroke-width="0.00690"></path>
<path d="M1.262 0.610 Q0.773 0.734 0.907 1.000" stroke="hsl(0.0,100%,35%)" stroke-width="0.00077"></path>
<path d="M1.262 0.610 Q0.903 0.777 1.150 0.989" stroke="hsl(0.0,100%,35%)" stroke-width="0.00153"></path>
<path d="M1.262 0.610 Q1.466 0.750 1.785 0.682" stroke="hsl(0.0,100%,35%)" stroke-width="0.00230"></path>
<path d="M1.262 0.610 Q1.622 0.747 1.969 0.602" stroke="hsl(0.0,100%,35%)" stroke-width="0.00077"></path>
<path d="M1.262 0.610 Q0.955 0.429 0.534 0.539" stroke="hsl(0.0,100%,35%)" stroke-width="0.00307"></path>
<path d="M1.262 0.610 Q1.060 0.341 0.490 0.380" stroke="hsl(0.0,100%,35%)" stroke-width="0.00307"></path>
<path d="M1.262 0.610 Q0.714 0.446 0.273 0.677" stroke="hsl(0.0,100%,35%)" stroke-width="0.00038"></path>
<path d="M1.262 0.610 Q1.144 0.435 0.776 0.454" stroke="hsl(0.0,100%,35%)" stroke-width="0.00307"></path>
<path d="M1.262 0.610 Q1.025 0.702 1.153 0.838" stroke="hsl(0.0,100%,35%)" stroke-width="0.00115"></path>
<path d="M1.153 0.838 Q0.798 0.714 0.479 0.860" stroke="hsl(180.0,100%,35%)" stroke-width="0.00115"></path>
<path d="M1.153 0.838 Q1.030 0.913 1.150 0.989" stroke="hsl(180.0,100%,35%)" stroke-width="0.02339"></path>
<path d="M1.153 0.838 Q0.917 0.435 0.079 0.461" stroke="hsl(180.0,100%,35%)" stroke-width="0.00307"></path>
<path d="M1.153 0.838 Q1.282 0.924 1.478 0.880" stroke="hsl(180.0,100%,35%)" stroke-width="0.00997"></path>
<path d="M1.153 0.838 Q1.082 0.565 0.534 0.539" stroke="hsl(180.0,100%,35%)" stroke-width="0.00153"></path>
<path d="M1.153 0.838 Q0.842 0.581 0.273 0.677" stroke="hsl(180.0,100%,35%)" stroke-width="0.00115"></path>
<path d="M1.153 0.838 Q1.549 0.962 1.878 0.796" stroke="hsl(180.0,100%,35%)" stroke-width="0.01917"></path>
<path d="M1.153 0.838 Q1.014 0.660 0.637 0.689" stroke="hsl(180.0,100%,35%)" stroke-width="0.00728"></path>
<path d="M1.153 0.838 Q1.749 0.883 1.969 0.602" stroke="hsl(180.0,100%,35%)" stroke-width="0.00115"></path>
<path d="M1.153 0.838 Q1.272 0.570 0.776 0.454" stroke="hsl(180.0,100%,35%)" stroke-width="0.00192"></path>
<path d="M1.153 0.838 Q1.594 0.886 1.785 0.682" stroke="hsl(180.0,100%,35%)" stroke-width="0.00728"></path>
<path d="M1.153 0.838 Q1.389 0.746 1.262 0.610" stroke="hsl(180.0,100%,35%)" stroke-width="0.00192"></path>
<path d="M1.153 0.838 Q0.900 0.870 0.907 1.000" stroke="hsl(180.0,100%,35%)" stroke-width="0.00192"></path>
<path d="M1.153 0.838 Q1.237 0.690 0.967 0.617" stroke="hsl(180.0,100%,35%)" stroke-width="0.00038"></path>
<path d="M1.153 0.838 Q1.290 0.941 1.522 0.897" stroke="hsl(180.0,100%,35%)" stroke-width="0.00038"></path>
<path d="M1.153 0.838 Q1.013 0.376 0.082 0.343" stroke="hsl(180.0,100%,35%)" stroke-width="0.00115"></path>
<path d="M1.153 0.838 Q1.139 0.891 1.239 0.909" stroke="hsl(180.0,100%,35%)" stroke-width="0.00153"></path>
<path d="M1.153 0.838 Q1.019 0.797 0.910 0.853" stroke="hsl(180.0,100%,35%)" stroke-width="0.00077"></path>
<path d="M1.153 0.838 Q1.397 0.856 1.487 0.741" stroke="hsl(180.0,100%,35%)" stroke-width="0.00077"></path>
<path d="M1.153 0.838 Q0.899 0.531 0.245 0.588" stroke="hsl(180.0,100%,35%)" stroke-width="0.00038"></path>
<path d="M1.153 0.838 Q1.508 0.811 1.533 0.631" stroke="hsl(180.0,100%,35%)" stroke-width="0.00038"></path>
<path d="M1.878 0.796 Q1.482 0.672 1.153 0.838" stroke="hsl(0.0,100%,35%)" stroke-width="0.00422"></path>
<path d="M1.878 0.796 Q1.923 0.720 1.785 0.682" stroke="hsl(0.0,100%,35%)" stroke-width="0.01342"></path>
<path d="M1.878 0.796 Q1.619 0.776 1.522 0.897" stroke="hsl(0.0,100%,35%)" stroke-width="0.00038"></path>
<path d="M1.878 0.796 Q1.229 0.365 0.245 0.588" stroke="hsl(0.0,100%,35%)" stroke-width="0.00460"></path>
<path d="M1.878 0.796 Q1.360 0.747 1.150 0.989" stroke="hsl(0.0,100%,35%)" stroke-width="0.00153"></path>
<path d="M1.878 0.796 Q2.079 0.717 1.969 0.602" stroke="hsl(0.0,100%,35%)" stroke-width="0.00038"></path>
<path d="M1.878 0.796 Q1.247 0.269 0.079 0.461" stroke="hsl(0.0,100%,35%)" stroke-width="0.00038"></path>
<path d="M1.878 0.796 Q1.412 0.399 0.534 0.539" stroke="hsl(0.0,100%,35%)" stroke-width="0.00153"></path>
<path d="M1.878 0.796 Q1.601 0.405 0.776 0.454" stroke="hsl(0.0,100%,35%)" stroke-width="0.00038"></path>
<path d="M1.878 0.796 Q1.719 0.580 1.262 0.610" stroke="hsl(0.0,100%,35%)" stroke-width="0.00153"></path>
<path d="M1.878 0.796 Q1.265 0.652 0.848 0.919" stroke="hsl(0.0,100%,35%)" stroke-width="0.00038"></path>
<path d="M1.878 0.796 Q1.344 0.494 0.637 0.689" stroke="hsl(0.0,100%,35%)" stroke-width="0.00345"></path>
<path d="M1.150 0.989 Q1.668 1.038 1.878 0.796" stroke="hsl(180.0,100%,35%)" stroke-width="0.01188"></path>
<path d="M1.150 0.989 Q1.869 0.959 1.969 0.602" stroke="hsl(180.0,100%,35%)" stroke-width="0.00115"></path>
<path d="M1.150 0.989 Q1.509 0.822 1.262 0.610" stroke="hsl(180.0,100%,35%)" stroke-width="0.00038"></path>
<path d="M1.150 0.989 Q1.020 0.946 0.907 1.000" stroke="hsl(180.0,100%,35%)" stroke-width="0.00307"></path>
<path d="M1.150 0.989 Q1.258 0.967 1.239 0.909" stroke="hsl(180.0,100%,35%)" stroke-width="0.00038"></path>
<path d="M1.150 0.989 Q1.272 0.914 1.153 0.838" stroke="hsl(180.0,100%,35%)" stroke-width="0.00498"></path>
<path d="M1.150 0.989 Q1.713 0.962 1.785 0.682" stroke="hsl(180.0,100%,35%)" stroke-width="0.00192"></path>
<path d="M1.150 0.989 Q0.961 0.658 0.273 0.677" stroke="hsl(180.0,100%,35%)" stroke-width="0.00038"></path>
<path d="M1.150 0.989 Q1.055 0.893 0.848 0.919" stroke="hsl(180.0,100%,35%)" stroke-width="0.00038"></path>
<path d="M1.150 0.989 Q1.133 0.736 0.637 0.689" stroke="hsl(180.0,100%,35%)" stroke-width="0.00038"></path>
<path d="M1.969 0.602 Q1.768 0.681 1.878 0.796" stroke="hsl(0.0,100%,35%)" stroke-width="0.00805"></path>
<path d="M1.969 0.602 Q1.813 0.605 1.785 0.682" stroke="hsl(0.0,100%,35%)" stroke-width="0.00153"></path>
<path d="M1.969 0.602 Q1.609 0.465 1.262 0.610" stroke="hsl(0.0,100%,35%)" stroke-width="0.00307"></path>
<path d="M1.969 0.602 Q1.372 0.557 1.153 0.838" stroke="hsl(0.0,100%,35%)" stroke-width="0.00077"></path>
<path d="M1.969 0.602 Q1.250 0.632 1.150 0.989" stroke="hsl(0.0,100%,35%)" stroke-width="0.00038"></path>
<path d="M1.969 0.602 Q1.302 0.284 0.534 0.539" stroke="hsl(0.0,100%,35%)" stroke-width="0.00038"></path>
<path d="M0.079 0.461 Q0.503 1.019 1.685 0.934" stroke="hsl(180.0,100%,35%)" stroke-width="0.00038"></path>
<path d="M0.079 0.461 Q0.192 0.939 1.150 0.989" stroke="hsl(180.0,100%,35%)" stroke-width="0.00192"></path>
<path d="M0.079 0.461 Q0.314 0.864 1.153 0.838" stroke="hsl(180.0,100%,35%)" stroke-width="0.00307"></path>
<path d="M0.079 0.461 Q0.755 0.913 1.785 0.682" stroke="hsl(180.0,100%,35%)" stroke-width="0.00038"></path>
<path d="M0.079 0.461 Q0.175 0.403 0.082 0.343" stroke="hsl(180.0,100%,35%)" stroke-width="0.00345"></path>
<path d="M0.079 0.461 Q0.710 0.989 1.878 0.796" stroke="hsl(180.0,100%,35%)" stroke-width="0.00077"></path>
<path d="M0.079 0.461 Q0.244 0.591 0.534 0.539" stroke="hsl(180.0,100%,35%)" stroke-width="0.00038"></path>
<path d="M0.079 0.461 Q-0.186 0.626 0.078 0.791" stroke="hsl(180.0,100%,35%)" stroke-width="0.00038"></path>
<path d="M0.534 0.539 Q0.351 0.506 0.245 0.588" stroke="hsl(0.0,100%,35%)" stroke-width="0.01342"></path>
<path d="M0.534 0.539 Q0.466 0.634 0.637 0.689" stroke="hsl(0.0,100%,35%)" stroke-width="0.00652"></path>
<path d="M0.534 0.539 Q0.723 0.545 0.776 0.454" stroke="hsl(0.0,100%,35%)" stroke-width="0.01457"></path>
<path d="M0.534 0.539 Q0.604 0.812 1.153 0.838" stroke="hsl(0.0,100%,35%)" stroke-width="0.00077"></path>
<path d="M0.534 0.539 Q1.000 0.937 1.878 0.796" stroke="hsl(0.0,100%,35%)" stroke-width="0.00153"></path>
<path d="M0.534 0.539 Q0.841 0.720 1.262 0.610" stroke="hsl(0.0,100%,35%)" stroke-width="0.00077"></path>
<path d="M0.781 0.620 Q0.654 0.625 0.637 0.689" stroke="hsl(0.0,100%,35%)" stroke-width="0.00460"></path>
<path d="M0.781 0.620 Q0.722 0.530 0.534 0.539" stroke="hsl(0.0,100%,35%)" stroke-width="0.00038"></path>
<path d="M0.781 0.620 Q0.827 0.442 0.490 0.380" stroke="hsl(0.0,100%,35%)" stroke-width="0.00038"></path>
<path d="M0.781 0.620 Q1.233 0.851 1.785 0.682" stroke="hsl(0.0,100%,35%)" stroke-width="0.00038"></path>
<path d="M0.907 1.000 Q1.037 1.043 1.150 0.989" stroke="hsl(180.0,100%,35%)" stroke-width="0.00230"></path>
<path d="M0.907 1.000 Q1.160 0.968 1.153 0.838" stroke="hsl(180.0,100%,35%)" stroke-width="0.00077"></path>
<path d="M0.907 1.000 Q1.556 1.092 1.878 0.796" stroke="hsl(180.0,100%,35%)" stroke-width="0.00038"></path>
<path d="M1.239 0.909 Q1.131 0.931 1.150 0.989" stroke="hsl(180.0,100%,35%)" stroke-width="0.00920"></path>
<path d="M1.239 0.909 Q1.001 0.888 0.907 1.000" stroke="hsl(180.0,100%,35%)" stroke-width="0.00038"></path>
<path d="M1.239 0.909 Q1.253 0.856 1.153 0.838" stroke="hsl(180.0,100%,35%)" stroke-width="0.00345"></path>
<path d="M1.239 0.909 Q1.649 0.981 1.878 0.796" stroke="hsl(180.0,100%,35%)" stroke-width="0.00115"></path>
<path d="M1.239 0.909 Q1.114 0.678 0.637 0.689" stroke="hsl(180.0,100%,35%)" stroke-width="0.00038"></path>
<path d="M0.273 0.677 Q0.230 0.809 0.479 0.860" stroke="hsl(0.0,100%,35%)" stroke-width="0.00077"></path>
<path d="M0.273 0.677 Q0.462 1.008 1.150 0.989" stroke="hsl(0.0,100%,35%)" stroke-width="0.00038"></path>
<path d="M0.273 0.677 Q1.025 0.982 1.785 0.682" stroke="hsl(0.0,100%,35%)" stroke-width="0.00115"></path>
<path d="M0.273 0.677 Q0.331 0.627 0.245 0.588" stroke="hsl(0.0,100%,35%)" stroke-width="0.00077"></path>
<path d="M0.273 0.677 Q0.112 0.746 0.212 0.840" stroke="hsl(0.0,100%,35%)" stroke-width="0.00115"></path>
<path d="M0.273 0.677 Q0.584 0.933 1.153 0.838" stroke="hsl(0.0,100%,35%)" stroke-width="0.00077"></path>
<path d="M0.479 0.860 Q0.695 0.806 0.637 0.689" stroke="hsl(0.0,100%,35%)" stroke-width="0.00153"></path>
<path d="M0.479 0.860 Q0.833 0.983 1.153 0.838" stroke="hsl(0.0,100%,35%)" stroke-width="0.00038"></path>
<path d="M0.479 0.860 Q1.274 1.032 1.785 0.682" stroke="hsl(0.0,100%,35%)" stroke-width="0.00153"></path>
<path d="M0.479 0.860 Q0.522 0.727 0.273 0.677" stroke="hsl(0.0,100%,35%)" stroke-width="0.00153"></path>
<path d="M0.479 0.860 Q0.763 0.710 0.534 0.539" stroke="hsl(0.0,100%,35%)" stroke-width="0.00153"></path>
<path d="M0.479 0.860 Q0.952 0.716 0.776 0.454" stroke="hsl(0.0,100%,35%)" stroke-width="0.00038"></path>
<path d="M1.685 0.934 Q1.633 0.883 1.522 0.897" stroke="hsl(180.0,100%,35%)" stroke-width="0.00077"></path>
<path d="M1.685 0.934 Q1.780 0.950 1.831 0.907" stroke="hsl(180.0,100%,35%)" stroke-width="0.00307"></path>
<path d="M1.685 0.934 Q1.496 0.779 1.153 0.838" stroke="hsl(180.0,100%,35%)" stroke-width="0.00038"></path>
<path d="M1.685 0.934 Q1.740 0.798 1.487 0.741" stroke="hsl(180.0,100%,35%)" stroke-width="0.00077"></path>
<path d="M0.082 0.343 Q0.221 0.804 1.153 0.838" stroke="hsl(180.0,100%,35%)" stroke-width="0.00153"></path>
<path d="M0.082 0.343 Q-0.014 0.401 0.079 0.461" stroke="hsl(180.0,100%,35%)" stroke-width="0.00153"></path>
<path d="M0.082 0.343 Q-0.033 0.498 0.245 0.588" stroke="hsl(180.0,100%,35%)" stroke-width="0.00038"></path>
<path d="M0.754 0.913 Q0.875 0.778 0.637 0.689" stroke="hsl(0.0,100%,35%)" stroke-width="0.00115"></path>
<path d="M0.754 0.913 Q1.048 0.594 0.490 0.380" stroke="hsl(0.0,100%,35%)" stroke-width="0.00038"></path>
<path d="M0.754 0.913 Q0.760 0.649 0.245 0.588" stroke="hsl(0.0,100%,35%)" stroke-width="0.00038"></path>
<path d="M1.267 0.697 Q1.027 0.471 0.534 0.539" stroke="hsl(180.0,100%,35%)" stroke-width="0.00038"></path>
<path d="M1.267 0.697 Q1.097 0.744 1.153 0.838" stroke="hsl(180.0,100%,35%)" stroke-width="0.00038"></path>
<path d="M1.267 0.697 Q1.181 0.597 0.967 0.617" stroke="hsl(180.0,100%,35%)" stroke-width="0.00038"></path>
<path d="M1.478 0.880 Q1.349 0.794 1.153 0.838" stroke="hsl(180.0,100%,35%)" stroke-width="0.01649"></path>
<path d="M1.478 0.880 Q1.790 0.842 1.785 0.682" stroke="hsl(180.0,100%,35%)" stroke-width="0.00230"></path>
<path d="M1.478 0.880 Q1.486 0.897 1.522 0.897" stroke="hsl(180.0,100%,35%)" stroke-width="0.00038"></path>
<path d="M1.478 0.880 Q1.586 0.702 1.262 0.610" stroke="hsl(180.0,100%,35%)" stroke-width="0.00038"></path>
<path d="M1.478 0.880 Q1.593 0.812 1.487 0.741" stroke="hsl(180.0,100%,35%)" stroke-width="0.00038"></path>
<path d="M1.478 0.880 Q1.745 0.918 1.878 0.796" stroke="hsl(180.0,100%,35%)" stroke-width="0.00077"></path>
<path d="M0.186 0.290 Q0.627 0.882 1.878 0.796" stroke="hsl(0.0,100%,35%)" stroke-width="0.00038"></path>
<path d="M0.186 0.290 Q-0.023 0.451 0.245 0.588" stroke="hsl(0.0,100%,35%)" stroke-width="0.00077"></path>
<path d="M0.186 0.290 Q0.092 0.579 0.637 0.689" stroke="hsl(0.0,100%,35%)" stroke-width="0.00038"></path>
<path d="M0.185 0.410 Q0.091 0.414 0.079 0.461" stroke="hsl(180.0,100%,35%)" stroke-width="0.00268"></path>
<path d="M0.185 0.410 Q0.204 0.892 1.150 0.989" stroke="hsl(180.0,100%,35%)" stroke-width="0.00153"></path>
<path d="M0.185 0.410 Q0.723 0.942 1.878 0.796" stroke="hsl(180.0,100%,35%)" stroke-width="0.00192"></path>
<path d="M0.138 0.754 Q0.267 0.743 0.273 0.677" stroke="hsl(0.0,100%,35%)" stroke-width="0.00077"></path>
<path d="M0.138 0.754 Q0.975 1.123 1.878 0.796" stroke="hsl(0.0,100%,35%)" stroke-width="0.00038"></path>
<path d="M0.138 0.754 Q1.175 1.044 1.969 0.602" stroke="hsl(0.0,100%,35%)" stroke-width="0.00038"></path>
<path d="M0.446 0.725 Q0.455 0.616 0.245 0.588" stroke="hsl(0.0,100%,35%)" stroke-width="0.00115"></path>
<path d="M0.446 0.725 Q0.570 0.745 0.637 0.689" stroke="hsl(0.0,100%,35%)" stroke-width="0.00192"></path>
<path d="M0.446 0.725 Q0.639 0.650 0.534 0.539" stroke="hsl(0.0,100%,35%)" stroke-width="0.00038"></path>
<path d="M0.032 0.636 Q0.177 0.655 0.245 0.588" stroke="hsl(0.0,100%,35%)" stroke-width="0.00115"></path>
<path d="M0.032 0.636 Q0.292 0.783 0.637 0.689" stroke="hsl(0.0,100%,35%)" stroke-width="0.00038"></path>
<path d="M0.032 0.636 Q0.668 0.869 1.262 0.610" stroke="hsl(0.0,100%,35%)" stroke-width="0.00038"></path>
</g>
<text x="1.533" y="0.614" font-size="0.034659" fill="hsl(0.0,100%,20%)">armansito</text>
<text x="1.785" y="0.642" font-size="0.078239" fill="hsl(0.0,100%,20%)">johnstiles</text>
<text x="0.245" y="0.556" font-size="0.063144" fill="hsl(0.0,100%,20%)">michaelludwig</text>
<text x="0.776" y="0.433" font-size="0.041995" fill="hsl(0.0,100%,20%)">nicolettep</text>
<text x="0.637" y="0.664" font-size="0.050303" fill="hsl(0.0,100%,20%)">egdaniel</text>
<text x="0.490" y="0.363" font-size="0.034289" fill="hsl(0.0,100%,20%)">jamesgk</text>
<text x="1.262" y="0.585" font-size="0.049792" fill="hsl(0.0,100%,20%)">jvanverth</text>
<text x="1.153" y="0.804" font-size="0.067922" fill="hsl(180.0,100%,20%)">kjlubick</text>
<text x="1.878" y="0.760" font-size="0.073263" fill="hsl(0.0,100%,20%)">brianosman</text>
<text x="1.522" y="0.893" font-size="0.008757" fill="hsl(180.0,100%,20%)">borenet</text>
<text x="1.150" y="0.965" font-size="0.048095" fill="hsl(180.0,100%,20%)">bungeman</text>
<text x="1.969" y="0.588" font-size="0.029042" fill="hsl(0.0,100%,20%)">herb</text>
<text x="0.079" y="0.448" font-size="0.025530" fill="hsl(180.0,100%,20%)">fmalita</text>
<text x="0.534" y="0.513" font-size="0.051309" fill="hsl(0.0,100%,20%)">robertphillips</text>
<text x="0.848" y="0.916" font-size="0.006192" fill="hsl(0.0,100%,20%)">jreck</text>
<text x="0.781" y="0.613" font-size="0.013845" fill="hsl(0.0,100%,20%)">briansalomon</text>
<text x="0.907" y="0.991" font-size="0.017874" fill="hsl(180.0,100%,20%)">jlavrova</text>
<text x="1.239" y="0.898" font-size="0.023442" fill="hsl(180.0,100%,20%)">drott</text>
<text x="0.273" y="0.668" font-size="0.017874" fill="hsl(0.0,100%,20%)">scroggo</text>
<text x="0.479" y="0.850" font-size="0.019251" fill="hsl(0.0,100%,20%)">nscobie</text>
<text x="1.685" y="0.927" font-size="0.013376" fill="hsl(180.0,100%,20%)">sharaks</text>
<text x="0.082" y="0.334" font-size="0.017144" fill="hsl(180.0,100%,20%)">jmbetancourt</text>
<text x="0.078" y="0.790" font-size="0.003575" fill="hsl(180.0,100%,20%)">bwils</text>
<text x="0.754" y="0.909" font-size="0.007994" fill="hsl(0.0,100%,20%)">hitawala</text>
<text x="1.267" y="0.693" font-size="0.007150" fill="hsl(180.0,100%,20%)">rmistry</text>
<text x="0.212" y="0.836" font-size="0.007150" fill="hsl(0.0,100%,20%)">djsollen</text>
<text x="0.967" y="0.613" font-size="0.006192" fill="hsl(180.0,100%,20%)">jcgregorio</text>
<text x="1.487" y="0.735" font-size="0.011305" fill="hsl(180.0,100%,20%)">cmumford</text>
<text x="1.478" y="0.864" font-size="0.031974" fill="hsl(180.0,100%,20%)">lovisolo</text>
<text x="0.910" y="0.851" font-size="0.005056" fill="hsl(180.0,100%,20%)">tdenniston</text>
<text x="0.186" y="0.286" font-size="0.007150" fill="hsl(0.0,100%,20%)">lokokung</text>
<text x="0.185" y="0.403" font-size="0.014299" fill="hsl(180.0,100%,20%)">mike</text>
<text x="0.138" y="0.751" font-size="0.007150" fill="hsl(0.0,100%,20%)">nigeltao</text>
<text x="0.446" y="0.720" font-size="0.010725" fill="hsl(0.0,100%,20%)">penghuang</text>
<text x="1.831" y="0.902" font-size="0.010111" fill="hsl(180.0,100%,20%)">hcm</text>
<text x="0.032" y="0.632" font-size="0.007994" fill="hsl(0.0,100%,20%)">sunnyps</text>
</svg>
