<svg width="4000" height="2000" viewBox="-0.025 -0.025 2.05 1.05" xmlns="http://www.w3.org/2000/svg">
  <style>
    path {
      fill: none;
      stroke-linecap: round;
      stroke-opacity: 0.4;
    }

    text {
      text-anchor: middle;
      alignment-baseline: hanging;
    }
  </style>
  <g opacity="0.4">
<path d="M0.415 0.370 Q0.191 0.612 0.613 0.774" stroke="hsl(0.0,100%,35%)" stroke-width="0.00338"></path>
<path d="M0.415 0.370 Q0.844 0.550 1.290 0.380" stroke="hsl(0.0,100%,35%)" stroke-width="0.00743"></path>
<path d="M0.415 0.370 Q0.167 0.452 0.272 0.591" stroke="hsl(0.0,100%,35%)" stroke-width="0.00051"></path>
<path d="M0.415 0.370 Q0.905 0.314 0.902 0.062" stroke="hsl(0.0,100%,35%)" stroke-width="0.00068"></path>
<path d="M0.415 0.370 Q1.034 0.540 1.500 0.275" stroke="hsl(0.0,100%,35%)" stroke-width="0.00051"></path>
<path d="M0.415 0.370 Q0.865 0.441 1.102 0.237" stroke="hsl(0.0,100%,35%)" stroke-width="0.00541"></path>
<path d="M0.415 0.370 Q-0.028 0.704 0.525 0.993" stroke="hsl(0.0,100%,35%)" stroke-width="0.00118"></path>
<path d="M0.415 0.370 Q0.295 0.551 0.620 0.649" stroke="hsl(0.0,100%,35%)" stroke-width="0.00169"></path>
<path d="M0.415 0.370 Q0.043 0.632 0.472 0.870" stroke="hsl(0.0,100%,35%)" stroke-width="0.00017"></path>
<path d="M0.415 0.370 Q0.523 0.663 1.119 0.675" stroke="hsl(0.0,100%,35%)" stroke-width="0.00017"></path>
<path d="M0.613 0.774 Q0.717 0.713 0.620 0.649" stroke="hsl(0.0,100%,35%)" stroke-width="0.06454"></path>
<path d="M0.613 0.774 Q0.945 0.826 1.119 0.675" stroke="hsl(0.0,100%,35%)" stroke-width="0.00980"></path>
<path d="M0.613 0.774 Q1.079 0.574 0.790 0.302" stroke="hsl(0.0,100%,35%)" stroke-width="0.00338"></path>
<path d="M0.613 0.774 Q0.837 0.533 0.415 0.370" stroke="hsl(0.0,100%,35%)" stroke-width="0.02720"></path>
<path d="M0.613 0.774 Q0.688 0.871 0.892 0.855" stroke="hsl(0.0,100%,35%)" stroke-width="0.00135"></path>
<path d="M0.613 0.774 Q1.266 0.713 1.290 0.380" stroke="hsl(0.0,100%,35%)" stroke-width="0.01267"></path>
<path d="M0.613 0.774 Q1.320 0.856 1.635 0.529" stroke="hsl(0.0,100%,35%)" stroke-width="0.00084"></path>
<path d="M0.613 0.774 Q1.327 0.476 0.902 0.062" stroke="hsl(0.0,100%,35%)" stroke-width="0.00524"></path>
<path d="M0.613 0.774 Q1.287 0.603 1.102 0.237" stroke="hsl(0.0,100%,35%)" stroke-width="0.00558"></path>
<path d="M0.613 0.774 Q1.456 0.702 1.500 0.275" stroke="hsl(0.0,100%,35%)" stroke-width="0.00507"></path>
<path d="M0.613 0.774 Q0.589 0.614 0.272 0.591" stroke="hsl(0.0,100%,35%)" stroke-width="0.00845"></path>
<path d="M0.613 0.774 Q1.481 0.898 1.913 0.501" stroke="hsl(0.0,100%,35%)" stroke-width="0.00051"></path>
<path d="M0.613 0.774 Q0.473 0.658 0.216 0.700" stroke="hsl(0.0,100%,35%)" stroke-width="0.00118"></path>
<path d="M0.613 0.774 Q0.573 0.869 0.749 0.909" stroke="hsl(0.0,100%,35%)" stroke-width="0.00034"></path>
<path d="M0.613 0.774 Q0.394 0.866 0.525 0.993" stroke="hsl(0.0,100%,35%)" stroke-width="0.01132"></path>
<path d="M0.613 0.774 Q0.602 0.910 0.865 0.945" stroke="hsl(0.0,100%,35%)" stroke-width="0.00034"></path>
<path d="M0.613 0.774 Q0.731 0.981 1.160 0.968" stroke="hsl(0.0,100%,35%)" stroke-width="0.00017"></path>
<path d="M0.613 0.774 Q0.988 0.626 0.782 0.411" stroke="hsl(0.0,100%,35%)" stroke-width="0.00051"></path>
<path d="M0.613 0.774 Q0.570 0.941 0.887 0.999" stroke="hsl(0.0,100%,35%)" stroke-width="0.00152"></path>
<path d="M0.613 0.774 Q0.573 0.877 0.766 0.919" stroke="hsl(0.0,100%,35%)" stroke-width="0.00051"></path>
<path d="M0.613 0.774 Q0.466 0.794 0.472 0.870" stroke="hsl(0.0,100%,35%)" stroke-width="0.00017"></path>
<path d="M0.613 0.774 Q0.447 0.733 0.332 0.805" stroke="hsl(0.0,100%,35%)" stroke-width="0.00034"></path>
<path d="M0.613 0.774 Q0.343 0.673 0.085 0.782" stroke="hsl(0.0,100%,35%)" stroke-width="0.00017"></path>
<path d="M1.290 0.380 Q1.350 0.144 0.902 0.062" stroke="hsl(180.0,100%,35%)" stroke-width="0.00135"></path>
<path d="M1.290 0.380 Q1.311 0.271 1.102 0.237" stroke="hsl(180.0,100%,35%)" stroke-width="0.00355"></path>
<path d="M1.290 0.380 Q1.102 0.241 0.790 0.302" stroke="hsl(180.0,100%,35%)" stroke-width="0.02011"></path>
<path d="M1.290 0.380 Q0.860 0.200 0.415 0.370" stroke="hsl(180.0,100%,35%)" stroke-width="0.00169"></path>
<path d="M1.290 0.380 Q0.740 0.381 0.620 0.649" stroke="hsl(180.0,100%,35%)" stroke-width="0.01538"></path>
<path d="M1.290 0.380 Q0.636 0.442 0.613 0.774" stroke="hsl(180.0,100%,35%)" stroke-width="0.00287"></path>
<path d="M1.290 0.380 Q1.479 0.369 1.500 0.275" stroke="hsl(180.0,100%,35%)" stroke-width="0.00389"></path>
<path d="M1.290 0.380 Q0.612 0.282 0.272 0.591" stroke="hsl(180.0,100%,35%)" stroke-width="0.00220"></path>
<path d="M1.290 0.380 Q0.968 0.493 1.119 0.675" stroke="hsl(180.0,100%,35%)" stroke-width="0.00118"></path>
<path d="M1.290 0.380 Q0.417 0.534 0.525 0.993" stroke="hsl(180.0,100%,35%)" stroke-width="0.00068"></path>
<path d="M1.290 0.380 Q0.711 0.538 0.892 0.855" stroke="hsl(180.0,100%,35%)" stroke-width="0.00017"></path>
<path d="M1.290 0.380 Q1.343 0.524 1.635 0.529" stroke="hsl(180.0,100%,35%)" stroke-width="0.00034"></path>
<path d="M0.272 0.591 Q1.009 0.453 0.902 0.062" stroke="hsl(180.0,100%,35%)" stroke-width="0.00389"></path>
<path d="M0.272 0.591 Q0.295 0.751 0.613 0.774" stroke="hsl(180.0,100%,35%)" stroke-width="0.00051"></path>
<path d="M0.272 0.591 Q0.077 0.843 0.525 0.993" stroke="hsl(180.0,100%,35%)" stroke-width="0.00101"></path>
<path d="M0.272 0.591 Q0.762 0.550 0.790 0.302" stroke="hsl(180.0,100%,35%)" stroke-width="0.00101"></path>
<path d="M0.272 0.591 Q0.970 0.580 1.102 0.237" stroke="hsl(180.0,100%,35%)" stroke-width="0.00524"></path>
<path d="M0.272 0.591 Q0.399 0.690 0.620 0.649" stroke="hsl(180.0,100%,35%)" stroke-width="0.00017"></path>
<path d="M0.272 0.591 Q1.138 0.678 1.500 0.275" stroke="hsl(180.0,100%,35%)" stroke-width="0.00034"></path>
<path d="M0.272 0.591 Q0.156 0.634 0.216 0.700" stroke="hsl(180.0,100%,35%)" stroke-width="0.00017"></path>
<path d="M0.272 0.591 Q0.949 0.689 1.290 0.380" stroke="hsl(180.0,100%,35%)" stroke-width="0.00051"></path>
<path d="M0.272 0.591 Q0.628 0.802 1.119 0.675" stroke="hsl(180.0,100%,35%)" stroke-width="0.00017"></path>
<path d="M0.272 0.591 Q1.164 0.874 1.913 0.501" stroke="hsl(180.0,100%,35%)" stroke-width="0.00017"></path>
<path d="M0.902 0.062 Q0.188 0.360 0.613 0.774" stroke="hsl(180.0,100%,35%)" stroke-width="0.00051"></path>
<path d="M0.902 0.062 Q0.164 0.201 0.272 0.591" stroke="hsl(180.0,100%,35%)" stroke-width="0.00253"></path>
<path d="M0.902 0.062 Q0.292 0.299 0.620 0.649" stroke="hsl(180.0,100%,35%)" stroke-width="0.00084"></path>
<path d="M0.902 0.062 Q0.842 0.299 1.290 0.380" stroke="hsl(180.0,100%,35%)" stroke-width="0.00169"></path>
<path d="M0.902 0.062 Q1.031 0.288 1.500 0.275" stroke="hsl(180.0,100%,35%)" stroke-width="0.00068"></path>
<path d="M0.902 0.062 Q0.049 0.244 0.216 0.700" stroke="hsl(180.0,100%,35%)" stroke-width="0.00017"></path>
<path d="M0.902 0.062 Q0.863 0.190 1.102 0.237" stroke="hsl(180.0,100%,35%)" stroke-width="0.00186"></path>
<path d="M0.902 0.062 Q0.654 0.160 0.790 0.302" stroke="hsl(180.0,100%,35%)" stroke-width="0.00237"></path>
<path d="M0.902 0.062 Q-0.031 0.452 0.525 0.993" stroke="hsl(180.0,100%,35%)" stroke-width="0.00034"></path>
<path d="M0.902 0.062 Q0.495 0.222 0.717 0.456" stroke="hsl(180.0,100%,35%)" stroke-width="0.00034"></path>
<path d="M1.500 0.275 Q1.311 0.286 1.290 0.380" stroke="hsl(180.0,100%,35%)" stroke-width="0.00524"></path>
<path d="M1.500 0.275 Q1.371 0.049 0.902 0.062" stroke="hsl(180.0,100%,35%)" stroke-width="0.00220"></path>
<path d="M1.500 0.275 Q0.761 0.286 0.620 0.649" stroke="hsl(180.0,100%,35%)" stroke-width="0.00084"></path>
<path d="M1.500 0.275 Q0.657 0.347 0.613 0.774" stroke="hsl(180.0,100%,35%)" stroke-width="0.00253"></path>
<path d="M1.500 0.275 Q1.331 0.176 1.102 0.237" stroke="hsl(180.0,100%,35%)" stroke-width="0.00203"></path>
<path d="M1.500 0.275 Q1.123 0.147 0.790 0.302" stroke="hsl(180.0,100%,35%)" stroke-width="0.00203"></path>
<path d="M1.500 0.275 Q0.438 0.439 0.525 0.993" stroke="hsl(180.0,100%,35%)" stroke-width="0.00017"></path>
<path d="M1.500 0.275 Q0.614 0.514 0.887 0.999" stroke="hsl(180.0,100%,35%)" stroke-width="0.00017"></path>
<path d="M1.500 0.275 Q0.633 0.187 0.272 0.591" stroke="hsl(180.0,100%,35%)" stroke-width="0.00068"></path>
<path d="M1.500 0.275 Q0.646 0.483 0.865 0.945" stroke="hsl(180.0,100%,35%)" stroke-width="0.00017"></path>
<path d="M1.500 0.275 Q0.732 0.444 0.892 0.855" stroke="hsl(180.0,100%,35%)" stroke-width="0.00017"></path>
<path d="M1.102 0.237 Q1.081 0.346 1.290 0.380" stroke="hsl(180.0,100%,35%)" stroke-width="0.01031"></path>
<path d="M1.102 0.237 Q0.652 0.166 0.415 0.370" stroke="hsl(180.0,100%,35%)" stroke-width="0.00406"></path>
<path d="M1.102 0.237 Q1.141 0.110 0.902 0.062" stroke="hsl(180.0,100%,35%)" stroke-width="0.00507"></path>
<path d="M1.102 0.237 Q0.532 0.346 0.620 0.649" stroke="hsl(180.0,100%,35%)" stroke-width="0.00608"></path>
<path d="M1.102 0.237 Q0.262 0.367 0.332 0.805" stroke="hsl(180.0,100%,35%)" stroke-width="0.00034"></path>
<path d="M1.102 0.237 Q0.502 0.504 0.892 0.855" stroke="hsl(180.0,100%,35%)" stroke-width="0.00068"></path>
<path d="M1.102 0.237 Q0.427 0.408 0.613 0.774" stroke="hsl(180.0,100%,35%)" stroke-width="0.00169"></path>
<path d="M1.102 0.237 Q0.760 0.459 1.119 0.675" stroke="hsl(180.0,100%,35%)" stroke-width="0.00135"></path>
<path d="M1.102 0.237 Q0.894 0.207 0.790 0.302" stroke="hsl(180.0,100%,35%)" stroke-width="0.00727"></path>
<path d="M1.102 0.237 Q1.270 0.335 1.500 0.275" stroke="hsl(180.0,100%,35%)" stroke-width="0.00406"></path>
<path d="M1.102 0.237 Q0.417 0.543 0.865 0.945" stroke="hsl(180.0,100%,35%)" stroke-width="0.00017"></path>
<path d="M1.102 0.237 Q0.404 0.248 0.272 0.591" stroke="hsl(180.0,100%,35%)" stroke-width="0.00642"></path>
<path d="M1.102 0.237 Q0.209 0.500 0.525 0.993" stroke="hsl(180.0,100%,35%)" stroke-width="0.00084"></path>
<path d="M1.102 0.237 Q1.135 0.490 1.635 0.529" stroke="hsl(180.0,100%,35%)" stroke-width="0.00068"></path>
<path d="M0.525 0.993 Q0.605 0.785 0.216 0.700" stroke="hsl(0.0,100%,35%)" stroke-width="0.00101"></path>
<path d="M0.525 0.993 Q0.819 0.998 0.892 0.855" stroke="hsl(0.0,100%,35%)" stroke-width="0.01656"></path>
<path d="M0.525 0.993 Q1.451 0.983 1.635 0.529" stroke="hsl(0.0,100%,35%)" stroke-width="0.00253"></path>
<path d="M0.525 0.993 Q0.597 0.921 0.472 0.870" stroke="hsl(0.0,100%,35%)" stroke-width="0.00507"></path>
<path d="M0.525 0.993 Q1.210 0.701 0.790 0.302" stroke="hsl(0.0,100%,35%)" stroke-width="0.00186"></path>
<path d="M0.525 0.993 Q0.734 1.037 0.865 0.945" stroke="hsl(0.0,100%,35%)" stroke-width="0.00422"></path>
<path d="M0.525 0.993 Q0.848 0.840 0.620 0.649" stroke="hsl(0.0,100%,35%)" stroke-width="0.02112"></path>
<path d="M0.525 0.993 Q1.458 0.603 0.902 0.062" stroke="hsl(0.0,100%,35%)" stroke-width="0.00473"></path>
<path d="M0.525 0.993 Q1.076 0.953 1.119 0.675" stroke="hsl(0.0,100%,35%)" stroke-width="0.00591"></path>
<path d="M0.525 0.993 Q0.720 0.741 0.272 0.591" stroke="hsl(0.0,100%,35%)" stroke-width="0.00253"></path>
<path d="M0.525 0.993 Q0.744 0.901 0.613 0.774" stroke="hsl(0.0,100%,35%)" stroke-width="0.00625"></path>
<path d="M0.525 0.993 Q1.419 0.730 1.102 0.237" stroke="hsl(0.0,100%,35%)" stroke-width="0.00270"></path>
<path d="M0.525 0.993 Q0.579 0.860 0.332 0.805" stroke="hsl(0.0,100%,35%)" stroke-width="0.00169"></path>
<path d="M0.525 0.993 Q1.120 0.753 0.782 0.411" stroke="hsl(0.0,100%,35%)" stroke-width="0.00051"></path>
<path d="M0.525 0.993 Q0.705 1.004 0.766 0.919" stroke="hsl(0.0,100%,35%)" stroke-width="0.00135"></path>
<path d="M0.525 0.993 Q1.613 1.025 1.913 0.501" stroke="hsl(0.0,100%,35%)" stroke-width="0.00068"></path>
<path d="M0.525 0.993 Q0.435 0.891 0.216 0.913" stroke="hsl(0.0,100%,35%)" stroke-width="0.00152"></path>
<path d="M0.525 0.993 Q0.506 0.928 0.375 0.924" stroke="hsl(0.0,100%,35%)" stroke-width="0.00034"></path>
<path d="M0.525 0.993 Q0.702 1.068 0.887 0.999" stroke="hsl(0.0,100%,35%)" stroke-width="0.00051"></path>
<path d="M0.525 0.993 Q1.398 0.840 1.290 0.380" stroke="hsl(0.0,100%,35%)" stroke-width="0.00693"></path>
<path d="M0.525 0.993 Q0.968 0.660 0.415 0.370" stroke="hsl(0.0,100%,35%)" stroke-width="0.00068"></path>
<path d="M0.525 0.993 Q0.844 0.750 0.440 0.541" stroke="hsl(0.0,100%,35%)" stroke-width="0.00034"></path>
<path d="M0.525 0.993 Q0.704 0.996 0.749 0.909" stroke="hsl(0.0,100%,35%)" stroke-width="0.00135"></path>
<path d="M0.525 0.993 Q1.587 0.829 1.500 0.275" stroke="hsl(0.0,100%,35%)" stroke-width="0.00017"></path>
<path d="M0.620 0.649 Q0.297 0.802 0.525 0.993" stroke="hsl(0.0,100%,35%)" stroke-width="0.00760"></path>
<path d="M0.620 0.649 Q0.516 0.710 0.613 0.774" stroke="hsl(0.0,100%,35%)" stroke-width="0.01301"></path>
<path d="M0.620 0.649 Q0.477 0.813 0.766 0.919" stroke="hsl(0.0,100%,35%)" stroke-width="0.00017"></path>
<path d="M0.620 0.649 Q1.170 0.648 1.290 0.380" stroke="hsl(0.0,100%,35%)" stroke-width="0.00338"></path>
<path d="M0.620 0.649 Q0.591 0.806 0.892 0.855" stroke="hsl(0.0,100%,35%)" stroke-width="0.00253"></path>
<path d="M0.620 0.649 Q0.848 0.762 1.119 0.675" stroke="hsl(0.0,100%,35%)" stroke-width="0.00389"></path>
<path d="M0.620 0.649 Q1.224 0.792 1.635 0.529" stroke="hsl(0.0,100%,35%)" stroke-width="0.00034"></path>
<path d="M0.620 0.649 Q0.982 0.509 0.790 0.302" stroke="hsl(0.0,100%,35%)" stroke-width="0.00237"></path>
<path d="M0.620 0.649 Q0.493 0.550 0.272 0.591" stroke="hsl(0.0,100%,35%)" stroke-width="0.00034"></path>
<path d="M0.620 0.649 Q1.191 0.539 1.102 0.237" stroke="hsl(0.0,100%,35%)" stroke-width="0.00270"></path>
<path d="M0.620 0.649 Q0.823 0.572 0.717 0.456" stroke="hsl(0.0,100%,35%)" stroke-width="0.00068"></path>
<path d="M0.620 0.649 Q1.230 0.412 0.902 0.062" stroke="hsl(0.0,100%,35%)" stroke-width="0.00169"></path>
<path d="M0.620 0.649 Q0.369 0.730 0.472 0.870" stroke="hsl(0.0,100%,35%)" stroke-width="0.00017"></path>
<path d="M0.620 0.649 Q0.377 0.594 0.216 0.700" stroke="hsl(0.0,100%,35%)" stroke-width="0.00034"></path>
<path d="M0.620 0.649 Q0.351 0.669 0.332 0.805" stroke="hsl(0.0,100%,35%)" stroke-width="0.00017"></path>
<path d="M0.620 0.649 Q1.359 0.638 1.500 0.275" stroke="hsl(0.0,100%,35%)" stroke-width="0.00017"></path>
<path d="M0.620 0.649 Q1.385 0.833 1.913 0.501" stroke="hsl(0.0,100%,35%)" stroke-width="0.00017"></path>
<path d="M0.620 0.649 Q0.506 0.846 0.865 0.945" stroke="hsl(0.0,100%,35%)" stroke-width="0.00017"></path>
<path d="M0.472 0.870 Q0.400 0.942 0.525 0.993" stroke="hsl(0.0,100%,35%)" stroke-width="0.01723"></path>
<path d="M0.472 0.870 Q0.619 0.850 0.613 0.774" stroke="hsl(0.0,100%,35%)" stroke-width="0.00169"></path>
<path d="M0.472 0.870 Q0.579 0.953 0.766 0.919" stroke="hsl(0.0,100%,35%)" stroke-width="0.00017"></path>
<path d="M0.472 0.870 Q1.293 0.679 1.102 0.237" stroke="hsl(0.0,100%,35%)" stroke-width="0.00017"></path>
<path d="M0.472 0.870 Q0.577 1.017 0.887 0.999" stroke="hsl(0.0,100%,35%)" stroke-width="0.00017"></path>
<path d="M0.472 0.870 Q0.723 0.789 0.620 0.649" stroke="hsl(0.0,100%,35%)" stroke-width="0.00084"></path>
<path d="M0.472 0.870 Q1.462 0.778 1.500 0.275" stroke="hsl(0.0,100%,35%)" stroke-width="0.00017"></path>
<path d="M0.472 0.870 Q0.994 0.702 0.782 0.411" stroke="hsl(0.0,100%,35%)" stroke-width="0.00051"></path>
<path d="M0.472 0.870 Q0.579 0.945 0.749 0.909" stroke="hsl(0.0,100%,35%)" stroke-width="0.00017"></path>
<path d="M0.472 0.870 Q0.694 0.947 0.892 0.855" stroke="hsl(0.0,100%,35%)" stroke-width="0.00017"></path>
<path d="M1.119 0.675 Q0.890 0.562 0.620 0.649" stroke="hsl(0.0,100%,35%)" stroke-width="0.00997"></path>
<path d="M1.119 0.675 Q0.786 0.623 0.613 0.774" stroke="hsl(0.0,100%,35%)" stroke-width="0.00253"></path>
<path d="M1.119 0.675 Q1.461 0.453 1.102 0.237" stroke="hsl(0.0,100%,35%)" stroke-width="0.00355"></path>
<path d="M1.119 0.675 Q0.568 0.715 0.525 0.993" stroke="hsl(0.0,100%,35%)" stroke-width="0.00439"></path>
<path d="M1.119 0.675 Q0.861 0.720 0.892 0.855" stroke="hsl(0.0,100%,35%)" stroke-width="0.00068"></path>
<path d="M1.119 0.675 Q1.253 0.423 0.790 0.302" stroke="hsl(0.0,100%,35%)" stroke-width="0.00760"></path>
<path d="M1.119 0.675 Q1.440 0.562 1.290 0.380" stroke="hsl(0.0,100%,35%)" stroke-width="0.00051"></path>
<path d="M1.119 0.675 Q1.494 0.706 1.635 0.529" stroke="hsl(0.0,100%,35%)" stroke-width="0.00017"></path>
<path d="M1.119 0.675 Q1.655 0.747 1.913 0.501" stroke="hsl(0.0,100%,35%)" stroke-width="0.00017"></path>
<path d="M1.035 0.400 Q1.179 0.441 1.290 0.380" stroke="hsl(0.0,100%,35%)" stroke-width="0.00017"></path>
<path d="M1.035 0.400 Q0.306 0.595 0.525 0.993" stroke="hsl(0.0,100%,35%)" stroke-width="0.00017"></path>
<path d="M1.035 0.400 Q0.857 0.554 1.119 0.675" stroke="hsl(0.0,100%,35%)" stroke-width="0.00034"></path>
<path d="M1.024 0.312 Q0.915 0.260 0.790 0.302" stroke="hsl(180.0,100%,35%)" stroke-width="0.00017"></path>
<path d="M1.024 0.312 Q1.162 0.163 0.902 0.062" stroke="hsl(180.0,100%,35%)" stroke-width="0.00017"></path>
<path d="M1.024 0.312 Q1.123 0.290 1.102 0.237" stroke="hsl(180.0,100%,35%)" stroke-width="0.00034"></path>
<path d="M0.790 0.302 Q0.977 0.441 1.290 0.380" stroke="hsl(180.0,100%,35%)" stroke-width="0.00845"></path>
<path d="M0.790 0.302 Q1.038 0.205 0.902 0.062" stroke="hsl(180.0,100%,35%)" stroke-width="0.00693"></path>
<path d="M0.790 0.302 Q0.300 0.343 0.272 0.591" stroke="hsl(180.0,100%,35%)" stroke-width="0.00676"></path>
<path d="M0.790 0.302 Q0.105 0.595 0.525 0.993" stroke="hsl(180.0,100%,35%)" stroke-width="0.00084"></path>
<path d="M0.790 0.302 Q0.428 0.442 0.620 0.649" stroke="hsl(180.0,100%,35%)" stroke-width="0.00237"></path>
<path d="M0.790 0.302 Q0.998 0.332 1.102 0.237" stroke="hsl(180.0,100%,35%)" stroke-width="0.01149"></path>
<path d="M0.790 0.302 Q0.313 0.639 0.865 0.945" stroke="hsl(180.0,100%,35%)" stroke-width="0.00051"></path>
<path d="M0.790 0.302 Q0.631 0.364 0.717 0.456" stroke="hsl(180.0,100%,35%)" stroke-width="0.00017"></path>
<path d="M0.790 0.302 Q1.031 0.585 1.635 0.529" stroke="hsl(180.0,100%,35%)" stroke-width="0.00017"></path>
<path d="M0.790 0.302 Q0.656 0.554 1.119 0.675" stroke="hsl(180.0,100%,35%)" stroke-width="0.00017"></path>
<path d="M0.790 0.302 Q0.324 0.503 0.613 0.774" stroke="hsl(180.0,100%,35%)" stroke-width="0.00068"></path>
<path d="M0.790 0.302 Q1.167 0.430 1.500 0.275" stroke="hsl(180.0,100%,35%)" stroke-width="0.00017"></path>
<path d="M0.766 0.919 Q0.765 0.911 0.749 0.909" stroke="hsl(0.0,100%,35%)" stroke-width="0.00051"></path>
<path d="M0.766 0.919 Q0.658 0.836 0.472 0.870" stroke="hsl(0.0,100%,35%)" stroke-width="0.00017"></path>
<path d="M0.766 0.919 Q0.586 0.908 0.525 0.993" stroke="hsl(0.0,100%,35%)" stroke-width="0.00051"></path>
<path d="M0.766 0.919 Q1.480 0.645 1.102 0.237" stroke="hsl(0.0,100%,35%)" stroke-width="0.00017"></path>
<path d="M0.749 0.909 Q1.255 0.614 0.790 0.302" stroke="hsl(0.0,100%,35%)" stroke-width="0.00017"></path>
<path d="M0.749 0.909 Q0.570 0.907 0.525 0.993" stroke="hsl(0.0,100%,35%)" stroke-width="0.00034"></path>
<path d="M0.749 0.909 Q1.164 0.667 0.782 0.411" stroke="hsl(0.0,100%,35%)" stroke-width="0.00017"></path>
<path d="M0.749 0.909 Q0.642 0.834 0.472 0.870" stroke="hsl(0.0,100%,35%)" stroke-width="0.00017"></path>
<path d="M0.749 0.909 Q0.750 0.918 0.766 0.919" stroke="hsl(0.0,100%,35%)" stroke-width="0.00017"></path>
<path d="M0.892 0.855 Q0.921 0.698 0.620 0.649" stroke="hsl(0.0,100%,35%)" stroke-width="0.00625"></path>
<path d="M0.892 0.855 Q1.150 0.810 1.119 0.675" stroke="hsl(0.0,100%,35%)" stroke-width="0.00220"></path>
<path d="M0.892 0.855 Q1.492 0.588 1.102 0.237" stroke="hsl(0.0,100%,35%)" stroke-width="0.00017"></path>
<path d="M0.892 0.855 Q0.652 0.718 0.332 0.805" stroke="hsl(0.0,100%,35%)" stroke-width="0.00203"></path>
<path d="M0.892 0.855 Q0.508 0.749 0.216 0.913" stroke="hsl(0.0,100%,35%)" stroke-width="0.00051"></path>
<path d="M0.892 0.855 Q0.599 0.851 0.525 0.993" stroke="hsl(0.0,100%,35%)" stroke-width="0.00389"></path>
<path d="M0.892 0.855 Q0.817 0.759 0.613 0.774" stroke="hsl(0.0,100%,35%)" stroke-width="0.00169"></path>
<path d="M0.892 0.855 Q0.807 0.895 0.865 0.945" stroke="hsl(0.0,100%,35%)" stroke-width="0.00017"></path>
<path d="M0.892 0.855 Q1.124 0.621 0.717 0.456" stroke="hsl(0.0,100%,35%)" stroke-width="0.00017"></path>
<path d="M0.892 0.855 Q1.531 0.461 0.902 0.062" stroke="hsl(0.0,100%,35%)" stroke-width="0.00017"></path>
<path d="M0.892 0.855 Q0.670 0.779 0.472 0.870" stroke="hsl(0.0,100%,35%)" stroke-width="0.00017"></path>
<path d="M0.892 0.855 Q1.525 0.841 1.635 0.529" stroke="hsl(0.0,100%,35%)" stroke-width="0.00034"></path>
<path d="M1.635 0.529 Q0.639 0.385 0.140 0.840" stroke="hsl(0.0,100%,35%)" stroke-width="0.00017"></path>
<path d="M1.635 0.529 Q1.003 0.544 0.892 0.855" stroke="hsl(0.0,100%,35%)" stroke-width="0.00169"></path>
<path d="M1.635 0.529 Q0.709 0.539 0.525 0.993" stroke="hsl(0.0,100%,35%)" stroke-width="0.00203"></path>
<path d="M1.635 0.529 Q0.928 0.447 0.613 0.774" stroke="hsl(0.0,100%,35%)" stroke-width="0.00034"></path>
<path d="M1.635 0.529 Q1.797 0.571 1.913 0.501" stroke="hsl(0.0,100%,35%)" stroke-width="0.00389"></path>
<path d="M1.635 0.529 Q1.032 0.386 0.620 0.649" stroke="hsl(0.0,100%,35%)" stroke-width="0.00118"></path>
<path d="M1.635 0.529 Q1.394 0.247 0.790 0.302" stroke="hsl(0.0,100%,35%)" stroke-width="0.00017"></path>
<path d="M1.635 0.529 Q1.603 0.276 1.102 0.237" stroke="hsl(0.0,100%,35%)" stroke-width="0.00017"></path>
<path d="M1.635 0.529 Q0.918 0.583 0.865 0.945" stroke="hsl(0.0,100%,35%)" stroke-width="0.00017"></path>
<path d="M1.635 0.529 Q1.260 0.499 1.119 0.675" stroke="hsl(0.0,100%,35%)" stroke-width="0.00017"></path>
<path d="M0.216 0.700 Q1.069 0.519 0.902 0.062" stroke="hsl(0.0,100%,35%)" stroke-width="0.00068"></path>
<path d="M0.216 0.700 Q0.137 0.909 0.525 0.993" stroke="hsl(0.0,100%,35%)" stroke-width="0.00017"></path>
<path d="M0.216 0.700 Q0.355 0.817 0.613 0.774" stroke="hsl(0.0,100%,35%)" stroke-width="0.00084"></path>
<path d="M0.216 0.700 Q0.345 0.952 0.865 0.945" stroke="hsl(0.0,100%,35%)" stroke-width="0.00118"></path>
<path d="M0.216 0.700 Q0.822 0.616 0.790 0.302" stroke="hsl(0.0,100%,35%)" stroke-width="0.00068"></path>
<path d="M0.216 0.700 Q0.332 0.657 0.272 0.591" stroke="hsl(0.0,100%,35%)" stroke-width="0.00017"></path>
<path d="M0.216 0.700 Q0.474 1.023 1.160 0.968" stroke="hsl(0.0,100%,35%)" stroke-width="0.00017"></path>
<path d="M0.216 0.700 Q0.459 0.756 0.620 0.649" stroke="hsl(0.0,100%,35%)" stroke-width="0.00017"></path>
<path d="M0.216 0.700 Q0.430 0.913 0.892 0.855" stroke="hsl(0.0,100%,35%)" stroke-width="0.00017"></path>
<path d="M0.332 0.805 Q0.572 0.942 0.892 0.855" stroke="hsl(0.0,100%,35%)" stroke-width="0.00406"></path>
<path d="M0.332 0.805 Q0.278 0.938 0.525 0.993" stroke="hsl(0.0,100%,35%)" stroke-width="0.00084"></path>
<path d="M0.332 0.805 Q0.601 0.785 0.620 0.649" stroke="hsl(0.0,100%,35%)" stroke-width="0.00051"></path>
<path d="M0.332 0.805 Q0.473 0.686 0.272 0.591" stroke="hsl(0.0,100%,35%)" stroke-width="0.00017"></path>
<path d="M0.332 0.805 Q0.350 0.866 0.472 0.870" stroke="hsl(0.0,100%,35%)" stroke-width="0.00017"></path>
<path d="M0.332 0.805 Q1.151 0.784 1.290 0.380" stroke="hsl(0.0,100%,35%)" stroke-width="0.00017"></path>
<path d="M1.913 0.501 Q0.825 0.470 0.525 0.993" stroke="hsl(0.0,100%,35%)" stroke-width="0.00152"></path>
<path d="M1.913 0.501 Q1.752 0.460 1.635 0.529" stroke="hsl(0.0,100%,35%)" stroke-width="0.00574"></path>
<path d="M1.913 0.501 Q1.698 0.316 1.290 0.380" stroke="hsl(0.0,100%,35%)" stroke-width="0.00017"></path>
<path d="M1.913 0.501 Q1.510 0.177 0.790 0.302" stroke="hsl(0.0,100%,35%)" stroke-width="0.00017"></path>
<path d="M0.865 0.945 Q0.736 0.693 0.216 0.700" stroke="hsl(0.0,100%,35%)" stroke-width="0.00084"></path>
<path d="M0.865 0.945 Q0.950 0.906 0.892 0.855" stroke="hsl(0.0,100%,35%)" stroke-width="0.00068"></path>
<path d="M0.865 0.945 Q0.875 0.809 0.613 0.774" stroke="hsl(0.0,100%,35%)" stroke-width="0.00101"></path>
<path d="M0.865 0.945 Q1.529 0.748 1.290 0.380" stroke="hsl(0.0,100%,35%)" stroke-width="0.00034"></path>
<path d="M0.865 0.945 Q0.994 1.016 1.160 0.968" stroke="hsl(0.0,100%,35%)" stroke-width="0.00084"></path>
<path d="M0.865 0.945 Q0.656 0.901 0.525 0.993" stroke="hsl(0.0,100%,35%)" stroke-width="0.00051"></path>
<path d="M0.865 0.945 Q0.979 0.748 0.620 0.649" stroke="hsl(0.0,100%,35%)" stroke-width="0.00034"></path>
<path d="M0.865 0.945 Q1.182 0.671 0.717 0.456" stroke="hsl(0.0,100%,35%)" stroke-width="0.00017"></path>
<path d="M1.408 0.058 Q1.151 -0.041 0.902 0.062" stroke="hsl(180.0,100%,35%)" stroke-width="0.00220"></path>
<path d="M1.408 0.058 Q0.903 0.056 0.790 0.302" stroke="hsl(180.0,100%,35%)" stroke-width="0.00017"></path>
<path d="M1.408 0.058 Q1.280 0.185 1.500 0.275" stroke="hsl(180.0,100%,35%)" stroke-width="0.00017"></path>
<path d="M1.408 0.058 Q0.437 0.257 0.613 0.774" stroke="hsl(180.0,100%,35%)" stroke-width="0.00017"></path>
<path d="M1.408 0.058 Q0.541 0.196 0.620 0.649" stroke="hsl(180.0,100%,35%)" stroke-width="0.00017"></path>
<path d="M1.408 0.058 Q1.111 0.086 1.102 0.237" stroke="hsl(180.0,100%,35%)" stroke-width="0.00034"></path>
<path d="M1.408 0.058 Q0.218 0.349 0.525 0.993" stroke="hsl(180.0,100%,35%)" stroke-width="0.00051"></path>
<path d="M0.216 0.913 Q0.601 1.019 0.892 0.855" stroke="hsl(0.0,100%,35%)" stroke-width="0.00743"></path>
<path d="M0.216 0.913 Q0.360 0.882 0.332 0.805" stroke="hsl(0.0,100%,35%)" stroke-width="0.00017"></path>
<path d="M0.216 0.913 Q0.307 1.015 0.525 0.993" stroke="hsl(0.0,100%,35%)" stroke-width="0.00422"></path>
<path d="M0.216 0.913 Q0.630 0.862 0.620 0.649" stroke="hsl(0.0,100%,35%)" stroke-width="0.00051"></path>
<path d="M0.216 0.913 Q1.240 0.625 0.902 0.062" stroke="hsl(0.0,100%,35%)" stroke-width="0.00017"></path>
<path d="M0.216 0.913 Q1.233 1.005 1.635 0.529" stroke="hsl(0.0,100%,35%)" stroke-width="0.00017"></path>
<path d="M0.216 0.913 Q0.644 1.130 1.160 0.968" stroke="hsl(0.0,100%,35%)" stroke-width="0.00017"></path>
<path d="M0.216 0.913 Q0.515 1.059 0.865 0.945" stroke="hsl(0.0,100%,35%)" stroke-width="0.00017"></path>
<path d="M0.440 0.541 Q0.444 0.631 0.620 0.649" stroke="hsl(0.0,100%,35%)" stroke-width="0.00270"></path>
<path d="M0.440 0.541 Q0.329 0.828 0.865 0.945" stroke="hsl(0.0,100%,35%)" stroke-width="0.00068"></path>
<path d="M0.440 0.541 Q0.647 0.554 0.717 0.456" stroke="hsl(0.0,100%,35%)" stroke-width="0.00017"></path>
<path d="M0.887 0.999 Q0.711 0.923 0.525 0.993" stroke="hsl(0.0,100%,35%)" stroke-width="0.00456"></path>
<path d="M0.887 0.999 Q0.782 0.851 0.472 0.870" stroke="hsl(0.0,100%,35%)" stroke-width="0.00051"></path>
<path d="M0.887 0.999 Q1.305 0.684 0.782 0.411" stroke="hsl(0.0,100%,35%)" stroke-width="0.00034"></path>
<path d="M0.887 0.999 Q1.604 0.661 1.102 0.237" stroke="hsl(0.0,100%,35%)" stroke-width="0.00068"></path>
<path d="M0.887 0.999 Q1.004 0.928 0.892 0.855" stroke="hsl(0.0,100%,35%)" stroke-width="0.00017"></path>
<path d="M0.887 0.999 Q0.641 0.770 0.140 0.840" stroke="hsl(0.0,100%,35%)" stroke-width="0.00034"></path>
<path d="M0.887 0.999 Q0.660 0.730 0.085 0.782" stroke="hsl(0.0,100%,35%)" stroke-width="0.00017"></path>
<path d="M0.887 0.999 Q0.930 0.831 0.613 0.774" stroke="hsl(0.0,100%,35%)" stroke-width="0.00068"></path>
<path d="M0.887 0.999 Q0.889 0.926 0.749 0.909" stroke="hsl(0.0,100%,35%)" stroke-width="0.00034"></path>
<path d="M0.887 0.999 Q0.890 0.935 0.766 0.919" stroke="hsl(0.0,100%,35%)" stroke-width="0.00017"></path>
<path d="M0.887 0.999 Q1.034 0.770 0.620 0.649" stroke="hsl(0.0,100%,35%)" stroke-width="0.00034"></path>
<path d="M0.140 0.840 Q0.389 1.004 0.766 0.919" stroke="hsl(0.0,100%,35%)" stroke-width="0.00051"></path>
<path d="M0.140 0.840 Q0.159 0.800 0.085 0.782" stroke="hsl(0.0,100%,35%)" stroke-width="0.00220"></path>
<path d="M0.140 0.840 Q0.210 0.993 0.525 0.993" stroke="hsl(0.0,100%,35%)" stroke-width="0.00017"></path>
<path d="M0.140 0.840 Q0.386 1.069 0.887 0.999" stroke="hsl(0.0,100%,35%)" stroke-width="0.00101"></path>
<path d="M0.140 0.840 Q0.895 0.701 0.790 0.302" stroke="hsl(0.0,100%,35%)" stroke-width="0.00017"></path>
<path d="M1.133 0.097 Q1.045 0.034 0.902 0.062" stroke="hsl(180.0,100%,35%)" stroke-width="0.00051"></path>
<path d="M1.133 0.097 Q1.174 0.259 1.500 0.275" stroke="hsl(180.0,100%,35%)" stroke-width="0.00017"></path>
<path d="M1.133 0.097 Q0.985 0.270 1.290 0.380" stroke="hsl(180.0,100%,35%)" stroke-width="0.00034"></path>
<path d="M1.133 0.097 Q0.435 0.270 0.620 0.649" stroke="hsl(180.0,100%,35%)" stroke-width="0.00017"></path>
<path d="M1.133 0.097 Q1.005 0.161 1.102 0.237" stroke="hsl(180.0,100%,35%)" stroke-width="0.00017"></path>
<path d="M0.570 0.870 Q0.502 0.790 0.332 0.805" stroke="hsl(0.0,100%,35%)" stroke-width="0.00017"></path>
<path d="M0.570 0.870 Q0.449 0.922 0.525 0.993" stroke="hsl(0.0,100%,35%)" stroke-width="0.00017"></path>
<path d="M0.570 0.870 Q0.772 0.769 0.620 0.649" stroke="hsl(0.0,100%,35%)" stroke-width="0.00017"></path>
<path d="M0.849 0.548 Q0.654 0.553 0.620 0.649" stroke="hsl(0.0,100%,35%)" stroke-width="0.00034"></path>
<path d="M0.849 0.548 Q1.257 0.696 1.635 0.529" stroke="hsl(0.0,100%,35%)" stroke-width="0.00017"></path>
<path d="M0.849 0.548 Q0.625 0.711 0.892 0.855" stroke="hsl(0.0,100%,35%)" stroke-width="0.00017"></path>
<path d="M1.046 0.069 Q0.979 0.037 0.902 0.062" stroke="hsl(180.0,100%,35%)" stroke-width="0.00220"></path>
<path d="M1.046 0.069 Q0.919 0.273 1.290 0.380" stroke="hsl(180.0,100%,35%)" stroke-width="0.00203"></path>
<path d="M1.046 0.069 Q0.940 0.164 1.102 0.237" stroke="hsl(180.0,100%,35%)" stroke-width="0.00017"></path>
<path d="M1.333 0.238 Q0.648 0.301 0.620 0.649" stroke="hsl(180.0,100%,35%)" stroke-width="0.00017"></path>
<path d="M1.333 0.238 Q1.197 0.300 1.290 0.380" stroke="hsl(180.0,100%,35%)" stroke-width="0.00034"></path>
<path d="M1.333 0.238 Q0.325 0.454 0.525 0.993" stroke="hsl(180.0,100%,35%)" stroke-width="0.00017"></path>
<path d="M1.333 0.238 Q1.218 0.191 1.102 0.237" stroke="hsl(180.0,100%,35%)" stroke-width="0.00034"></path>
<path d="M1.333 0.238 Q1.258 0.064 0.902 0.062" stroke="hsl(180.0,100%,35%)" stroke-width="0.00017"></path>
<path d="M1.689 0.702 Q1.801 0.605 1.635 0.529" stroke="hsl(0.0,100%,35%)" stroke-width="0.00220"></path>
<path d="M1.689 0.702 Q1.168 0.620 0.892 0.855" stroke="hsl(0.0,100%,35%)" stroke-width="0.00152"></path>
<path d="M1.689 0.702 Q1.197 0.462 0.620 0.649" stroke="hsl(0.0,100%,35%)" stroke-width="0.00169"></path>
<path d="M1.689 0.702 Q0.875 0.615 0.525 0.993" stroke="hsl(0.0,100%,35%)" stroke-width="0.00017"></path>
<path d="M1.689 0.702 Q1.807 0.225 0.902 0.062" stroke="hsl(0.0,100%,35%)" stroke-width="0.00017"></path>
<path d="M1.077 0.807 Q0.860 0.833 0.865 0.945" stroke="hsl(0.0,100%,35%)" stroke-width="0.00084"></path>
<path d="M1.077 0.807 Q0.975 0.637 0.620 0.649" stroke="hsl(0.0,100%,35%)" stroke-width="0.00017"></path>
<path d="M1.077 0.807 Q1.203 0.749 1.119 0.675" stroke="hsl(0.0,100%,35%)" stroke-width="0.00017"></path>
<path d="M1.260 0.470 Q1.347 0.431 1.290 0.380" stroke="hsl(180.0,100%,35%)" stroke-width="0.00118"></path>
<path d="M1.260 0.470 Q1.407 0.194 0.902 0.062" stroke="hsl(180.0,100%,35%)" stroke-width="0.00084"></path>
<path d="M1.260 0.470 Q1.159 0.292 0.790 0.302" stroke="hsl(180.0,100%,35%)" stroke-width="0.00017"></path>
<path d="M1.260 0.470 Q0.797 0.431 0.620 0.649" stroke="hsl(180.0,100%,35%)" stroke-width="0.00051"></path>
<path d="M0.936 0.670 Q0.795 0.596 0.620 0.649" stroke="hsl(0.0,100%,35%)" stroke-width="0.00051"></path>
<path d="M0.936 0.670 Q1.023 0.709 1.119 0.675" stroke="hsl(0.0,100%,35%)" stroke-width="0.00034"></path>
<path d="M0.936 0.670 Q0.691 0.657 0.613 0.774" stroke="hsl(0.0,100%,35%)" stroke-width="0.00017"></path>
<path d="M1.477 0.381 Q1.384 0.343 1.290 0.380" stroke="hsl(180.0,100%,35%)" stroke-width="0.00169"></path>
<path d="M1.477 0.381 Q1.444 0.107 0.902 0.062" stroke="hsl(180.0,100%,35%)" stroke-width="0.00101"></path>
<path d="M1.477 0.381 Q1.404 0.234 1.102 0.237" stroke="hsl(180.0,100%,35%)" stroke-width="0.00084"></path>
<path d="M1.477 0.381 Q0.834 0.343 0.620 0.649" stroke="hsl(180.0,100%,35%)" stroke-width="0.00051"></path>
<path d="M1.477 0.381 Q1.062 0.456 1.119 0.675" stroke="hsl(180.0,100%,35%)" stroke-width="0.00017"></path>
<path d="M1.477 0.381 Q0.511 0.497 0.525 0.993" stroke="hsl(180.0,100%,35%)" stroke-width="0.00051"></path>
<path d="M1.477 0.381 Q0.706 0.245 0.272 0.591" stroke="hsl(180.0,100%,35%)" stroke-width="0.00017"></path>
</g>
<text x="0.415" y="0.350" font-size="0.040862" fill="hsl(0.0,100%,20%)">armansito</text>
<text x="0.613" y="0.735" font-size="0.078441" fill="hsl(0.0,100%,20%)">johnstiles</text>
<text x="1.290" y="0.350" font-size="0.059717" fill="hsl(180.0,100%,20%)">michaelludwig</text>
<text x="0.272" y="0.572" font-size="0.036674" fill="hsl(180.0,100%,20%)">nicolettep</text>
<text x="0.902" y="0.043" font-size="0.039580" fill="hsl(180.0,100%,20%)">egdaniel</text>
<text x="1.500" y="0.259" font-size="0.031126" fill="hsl(180.0,100%,20%)">jamesgk</text>
<text x="1.102" y="0.210" font-size="0.054293" fill="hsl(180.0,100%,20%)">jvanverth</text>
<text x="0.525" y="0.959" font-size="0.069117" fill="hsl(0.0,100%,20%)">kjlubick</text>
<text x="0.620" y="0.612" font-size="0.074118" fill="hsl(0.0,100%,20%)">brianosman</text>
<text x="0.472" y="0.855" font-size="0.029248" fill="hsl(0.0,100%,20%)">lovisolo</text>
<text x="1.119" y="0.655" font-size="0.041176" fill="hsl(0.0,100%,20%)">herb</text>
<text x="1.035" y="0.398" font-size="0.004540" fill="hsl(0.0,100%,20%)">ayzhao</text>
<text x="1.024" y="0.310" font-size="0.004540" fill="hsl(180.0,100%,20%)">blundell</text>
<text x="0.790" y="0.276" font-size="0.051965" fill="hsl(180.0,100%,20%)">robertphillips</text>
<text x="0.766" y="0.913" font-size="0.011575" fill="hsl(0.0,100%,20%)">borenet</text>
<text x="0.749" y="0.904" font-size="0.010648" fill="hsl(0.0,100%,20%)">rmistry</text>
<text x="0.892" y="0.835" font-size="0.041301" fill="hsl(0.0,100%,20%)">bungeman</text>
<text x="1.635" y="0.516" font-size="0.026956" fill="hsl(0.0,100%,20%)">fmalita</text>
<text x="0.717" y="0.452" font-size="0.007179" fill="hsl(0.0,100%,20%)">jreck</text>
<text x="0.216" y="0.693" font-size="0.015563" fill="hsl(0.0,100%,20%)">nscobie</text>
<text x="0.332" y="0.796" font-size="0.018161" fill="hsl(0.0,100%,20%)">jlavrova</text>
<text x="1.913" y="0.491" font-size="0.020049" fill="hsl(0.0,100%,20%)">jmbetancourt</text>
<text x="0.865" y="0.935" font-size="0.020304" fill="hsl(0.0,100%,20%)">scroggo</text>
<text x="1.408" y="0.052" font-size="0.010648" fill="hsl(180.0,100%,20%)">briansalomon</text>
<text x="0.216" y="0.902" font-size="0.021416" fill="hsl(0.0,100%,20%)">drott</text>
<text x="0.440" y="0.536" font-size="0.010887" fill="hsl(0.0,100%,20%)">ccameron</text>
<text x="0.887" y="0.989" font-size="0.018857" fill="hsl(0.0,100%,20%)">cmumford</text>
<text x="0.782" y="0.407" font-size="0.007864" fill="hsl(0.0,100%,20%)">jcgregorio</text>
<text x="0.140" y="0.834" font-size="0.011796" fill="hsl(0.0,100%,20%)">sharaks</text>
<text x="0.085" y="0.778" font-size="0.008792" fill="hsl(0.0,100%,20%)">hcm</text>
<text x="1.160" y="0.965" font-size="0.006421" fill="hsl(0.0,100%,20%)">djsollen</text>
<text x="1.381" y="2.550" font-size="0.002270" fill="hsl(0.0,100%,20%)">bwils</text>
<text x="1.133" y="0.094" font-size="0.006421" fill="hsl(180.0,100%,20%)">hitawala</text>
<text x="0.570" y="0.868" font-size="0.003932" fill="hsl(0.0,100%,20%)">jacksongardner</text>
<text x="0.375" y="0.922" font-size="0.003210" fill="hsl(0.0,100%,20%)">tdenniston</text>
<text x="0.849" y="0.546" font-size="0.004540" fill="hsl(0.0,100%,20%)">kschmi</text>
<text x="1.046" y="0.063" font-size="0.011575" fill="hsl(180.0,100%,20%)">lehoangquyen</text>
<text x="1.333" y="0.235" font-size="0.006006" fill="hsl(180.0,100%,20%)">lokokung</text>
<text x="1.689" y="0.696" font-size="0.013237" fill="hsl(0.0,100%,20%)">mike</text>
<text x="1.077" y="0.804" font-size="0.006006" fill="hsl(0.0,100%,20%)">nigeltao</text>
<text x="1.260" y="0.465" font-size="0.009080" fill="hsl(180.0,100%,20%)">penghuang</text>
<text x="0.936" y="0.667" font-size="0.005561" fill="hsl(0.0,100%,20%)">sky</text>
<text x="1.477" y="0.374" font-size="0.012225" fill="hsl(180.0,100%,20%)">sunnyps</text>
</svg>
