<svg width="4000" height="2000" viewBox="-0.025 -0.025 2.05 1.05" xmlns="http://www.w3.org/2000/svg">
  <style>
    path {
      fill: none;
      stroke-linecap: round;
      stroke-opacity: 0.4;
    }

    text {
      text-anchor: middle;
      alignment-baseline: hanging;
    }
  </style>
  <g opacity="0.4">
<path d="M1.533 0.631 Q1.619 0.707 1.785 0.682" stroke="hsl(0.0,100%,35%)" stroke-width="0.00192"></path>
<path d="M1.533 0.631 Q0.927 0.350 0.245 0.585" stroke="hsl(0.0,100%,35%)" stroke-width="0.00268"></path>
<path d="M1.533 0.631 Q1.297 0.391 0.776 0.454" stroke="hsl(0.0,100%,35%)" stroke-width="0.00077"></path>
<path d="M1.533 0.631 Q1.039 0.481 0.637 0.689" stroke="hsl(0.0,100%,35%)" stroke-width="0.00115"></path>
<path d="M1.533 0.631 Q1.213 0.297 0.490 0.380" stroke="hsl(0.0,100%,35%)" stroke-width="0.00115"></path>
<path d="M1.533 0.631 Q1.415 0.567 1.262 0.610" stroke="hsl(0.0,100%,35%)" stroke-width="0.00422"></path>
<path d="M1.533 0.631 Q1.178 0.658 1.153 0.838" stroke="hsl(0.0,100%,35%)" stroke-width="0.00115"></path>
<path d="M1.533 0.631 Q1.574 0.783 1.878 0.796" stroke="hsl(0.0,100%,35%)" stroke-width="0.00038"></path>
<path d="M1.785 0.682 Q1.740 0.758 1.878 0.796" stroke="hsl(0.0,100%,35%)" stroke-width="0.05904"></path>
<path d="M1.785 0.682 Q1.932 0.684 1.969 0.612" stroke="hsl(0.0,100%,35%)" stroke-width="0.00498"></path>
<path d="M1.785 0.682 Q1.274 0.360 0.534 0.538" stroke="hsl(0.0,100%,35%)" stroke-width="0.00460"></path>
<path d="M1.785 0.682 Q1.699 0.606 1.533 0.631" stroke="hsl(0.0,100%,35%)" stroke-width="0.01265"></path>
<path d="M1.785 0.682 Q1.223 0.708 1.150 0.987" stroke="hsl(0.0,100%,35%)" stroke-width="0.00192"></path>
<path d="M1.785 0.682 Q1.093 0.325 0.245 0.585" stroke="hsl(0.0,100%,35%)" stroke-width="0.01150"></path>
<path d="M1.785 0.682 Q1.108 0.230 0.079 0.461" stroke="hsl(0.0,100%,35%)" stroke-width="0.00115"></path>
<path d="M1.785 0.682 Q1.205 0.456 0.637 0.689" stroke="hsl(0.0,100%,35%)" stroke-width="0.01035"></path>
<path d="M1.785 0.682 Q1.581 0.541 1.262 0.610" stroke="hsl(0.0,100%,35%)" stroke-width="0.00422"></path>
<path d="M1.785 0.682 Q1.379 0.272 0.490 0.380" stroke="hsl(0.0,100%,35%)" stroke-width="0.00690"></path>
<path d="M1.785 0.682 Q1.463 0.366 0.776 0.454" stroke="hsl(0.0,100%,35%)" stroke-width="0.00920"></path>
<path d="M1.785 0.682 Q1.204 0.172 0.082 0.343" stroke="hsl(0.0,100%,35%)" stroke-width="0.00077"></path>
<path d="M1.785 0.682 Q0.989 0.510 0.479 0.860" stroke="hsl(0.0,100%,35%)" stroke-width="0.00153"></path>
<path d="M1.785 0.682 Q1.514 0.586 1.267 0.697" stroke="hsl(0.0,100%,35%)" stroke-width="0.00038"></path>
<path d="M1.785 0.682 Q1.344 0.633 1.153 0.838" stroke="hsl(0.0,100%,35%)" stroke-width="0.00958"></path>
<path d="M1.785 0.682 Q1.033 0.377 0.273 0.677" stroke="hsl(0.0,100%,35%)" stroke-width="0.00038"></path>
<path d="M1.785 0.682 Q0.872 0.446 0.212 0.840" stroke="hsl(0.0,100%,35%)" stroke-width="0.00038"></path>
<path d="M1.785 0.682 Q1.428 0.485 0.967 0.617" stroke="hsl(0.0,100%,35%)" stroke-width="0.00038"></path>
<path d="M1.785 0.682 Q1.588 0.652 1.487 0.741" stroke="hsl(0.0,100%,35%)" stroke-width="0.00192"></path>
<path d="M1.785 0.682 Q1.471 0.743 1.522 0.909" stroke="hsl(0.0,100%,35%)" stroke-width="0.00038"></path>
<path d="M0.245 0.585 Q0.358 0.715 0.637 0.689" stroke="hsl(0.0,100%,35%)" stroke-width="0.00268"></path>
<path d="M0.245 0.585 Q0.733 0.801 1.262 0.610" stroke="hsl(0.0,100%,35%)" stroke-width="0.00383"></path>
<path d="M0.245 0.585 Q0.426 0.619 0.534 0.538" stroke="hsl(0.0,100%,35%)" stroke-width="0.02032"></path>
<path d="M0.245 0.585 Q0.852 0.866 1.533 0.631" stroke="hsl(0.0,100%,35%)" stroke-width="0.00192"></path>
<path d="M0.245 0.585 Q0.892 1.017 1.878 0.796" stroke="hsl(0.0,100%,35%)" stroke-width="0.01380"></path>
<path d="M0.245 0.585 Q0.937 0.941 1.785 0.682" stroke="hsl(0.0,100%,35%)" stroke-width="0.00383"></path>
<path d="M0.245 0.585 Q0.531 0.531 0.490 0.380" stroke="hsl(0.0,100%,35%)" stroke-width="0.00613"></path>
<path d="M0.245 0.585 Q0.615 0.625 0.776 0.454" stroke="hsl(0.0,100%,35%)" stroke-width="0.00345"></path>
<path d="M0.245 0.585 Q1.085 0.943 1.969 0.612" stroke="hsl(0.0,100%,35%)" stroke-width="0.00230"></path>
<path d="M0.245 0.585 Q0.496 0.893 1.153 0.838" stroke="hsl(0.0,100%,35%)" stroke-width="0.00038"></path>
<path d="M0.245 0.585 Q0.375 0.967 1.150 0.987" stroke="hsl(0.0,100%,35%)" stroke-width="0.00038"></path>
<path d="M0.776 0.454 Q0.519 0.543 0.637 0.689" stroke="hsl(0.0,100%,35%)" stroke-width="0.00805"></path>
<path d="M0.776 0.454 Q1.098 0.769 1.785 0.682" stroke="hsl(0.0,100%,35%)" stroke-width="0.00038"></path>
<path d="M0.776 0.454 Q0.657 0.721 1.153 0.838" stroke="hsl(0.0,100%,35%)" stroke-width="0.00115"></path>
<path d="M0.776 0.454 Q0.587 0.448 0.534 0.538" stroke="hsl(0.0,100%,35%)" stroke-width="0.00115"></path>
<path d="M0.776 0.454 Q0.894 0.629 1.262 0.610" stroke="hsl(0.0,100%,35%)" stroke-width="0.00153"></path>
<path d="M0.776 0.454 Q1.053 0.845 1.878 0.796" stroke="hsl(0.0,100%,35%)" stroke-width="0.00038"></path>
<path d="M0.776 0.454 Q0.692 0.359 0.490 0.380" stroke="hsl(0.0,100%,35%)" stroke-width="0.00038"></path>
<path d="M0.776 0.454 Q0.303 0.597 0.479 0.860" stroke="hsl(0.0,100%,35%)" stroke-width="0.00038"></path>
<path d="M0.776 0.454 Q0.406 0.413 0.245 0.585" stroke="hsl(0.0,100%,35%)" stroke-width="0.00038"></path>
<path d="M0.637 0.689 Q1.216 0.915 1.785 0.682" stroke="hsl(0.0,100%,35%)" stroke-width="0.00115"></path>
<path d="M0.637 0.689 Q0.894 0.599 0.776 0.454" stroke="hsl(0.0,100%,35%)" stroke-width="0.00537"></path>
<path d="M0.637 0.689 Q1.171 0.991 1.878 0.796" stroke="hsl(0.0,100%,35%)" stroke-width="0.00115"></path>
<path d="M0.637 0.689 Q0.524 0.558 0.245 0.585" stroke="hsl(0.0,100%,35%)" stroke-width="0.00383"></path>
<path d="M0.637 0.689 Q0.810 0.505 0.490 0.380" stroke="hsl(0.0,100%,35%)" stroke-width="0.00115"></path>
<path d="M0.637 0.689 Q0.421 0.743 0.479 0.860" stroke="hsl(0.0,100%,35%)" stroke-width="0.00038"></path>
<path d="M0.637 0.689 Q1.012 0.774 1.262 0.610" stroke="hsl(0.0,100%,35%)" stroke-width="0.00115"></path>
<path d="M0.637 0.689 Q0.705 0.593 0.534 0.538" stroke="hsl(0.0,100%,35%)" stroke-width="0.00383"></path>
<path d="M0.637 0.689 Q0.775 0.866 1.153 0.838" stroke="hsl(0.0,100%,35%)" stroke-width="0.00038"></path>
<path d="M0.637 0.689 Q0.558 0.846 0.848 0.919" stroke="hsl(0.0,100%,35%)" stroke-width="0.00038"></path>
<path d="M0.490 0.380 Q0.204 0.433 0.245 0.585" stroke="hsl(0.0,100%,35%)" stroke-width="0.00613"></path>
<path d="M0.490 0.380 Q0.316 0.564 0.637 0.689" stroke="hsl(0.0,100%,35%)" stroke-width="0.00230"></path>
<path d="M0.490 0.380 Q0.851 0.866 1.878 0.796" stroke="hsl(0.0,100%,35%)" stroke-width="0.00077"></path>
<path d="M0.490 0.380 Q0.896 0.790 1.785 0.682" stroke="hsl(0.0,100%,35%)" stroke-width="0.00192"></path>
<path d="M0.490 0.380 Q0.692 0.649 1.262 0.610" stroke="hsl(0.0,100%,35%)" stroke-width="0.00268"></path>
<path d="M0.490 0.380 Q0.385 0.468 0.534 0.538" stroke="hsl(0.0,100%,35%)" stroke-width="0.00192"></path>
<path d="M1.262 0.610 Q0.774 0.394 0.245 0.585" stroke="hsl(0.0,100%,35%)" stroke-width="0.01304"></path>
<path d="M1.262 0.610 Q1.380 0.675 1.533 0.631" stroke="hsl(0.0,100%,35%)" stroke-width="0.00767"></path>
<path d="M1.262 0.610 Q0.886 0.524 0.637 0.689" stroke="hsl(0.0,100%,35%)" stroke-width="0.00460"></path>
<path d="M1.262 0.610 Q1.421 0.826 1.878 0.796" stroke="hsl(0.0,100%,35%)" stroke-width="0.00690"></path>
<path d="M1.262 0.610 Q0.763 0.740 0.907 1.013" stroke="hsl(0.0,100%,35%)" stroke-width="0.00077"></path>
<path d="M1.262 0.610 Q0.904 0.776 1.150 0.987" stroke="hsl(0.0,100%,35%)" stroke-width="0.00153"></path>
<path d="M1.262 0.610 Q1.466 0.750 1.785 0.682" stroke="hsl(0.0,100%,35%)" stroke-width="0.00230"></path>
<path d="M1.262 0.610 Q1.614 0.753 1.969 0.612" stroke="hsl(0.0,100%,35%)" stroke-width="0.00077"></path>
<path d="M1.262 0.610 Q0.955 0.429 0.534 0.538" stroke="hsl(0.0,100%,35%)" stroke-width="0.00307"></path>
<path d="M1.262 0.610 Q1.060 0.341 0.490 0.380" stroke="hsl(0.0,100%,35%)" stroke-width="0.00307"></path>
<path d="M1.262 0.610 Q0.714 0.446 0.273 0.677" stroke="hsl(0.0,100%,35%)" stroke-width="0.00038"></path>
<path d="M1.262 0.610 Q1.144 0.435 0.776 0.454" stroke="hsl(0.0,100%,35%)" stroke-width="0.00307"></path>
<path d="M1.262 0.610 Q1.025 0.702 1.153 0.838" stroke="hsl(0.0,100%,35%)" stroke-width="0.00115"></path>
<path d="M1.153 0.838 Q0.798 0.714 0.479 0.860" stroke="hsl(180.0,100%,35%)" stroke-width="0.00115"></path>
<path d="M1.153 0.838 Q1.031 0.912 1.150 0.987" stroke="hsl(180.0,100%,35%)" stroke-width="0.02339"></path>
<path d="M1.153 0.838 Q0.917 0.435 0.079 0.461" stroke="hsl(180.0,100%,35%)" stroke-width="0.00307"></path>
<path d="M1.153 0.838 Q1.282 0.924 1.478 0.880" stroke="hsl(180.0,100%,35%)" stroke-width="0.00997"></path>
<path d="M1.153 0.838 Q1.083 0.564 0.534 0.538" stroke="hsl(180.0,100%,35%)" stroke-width="0.00153"></path>
<path d="M1.153 0.838 Q0.842 0.581 0.273 0.677" stroke="hsl(180.0,100%,35%)" stroke-width="0.00115"></path>
<path d="M1.153 0.838 Q1.549 0.962 1.878 0.796" stroke="hsl(180.0,100%,35%)" stroke-width="0.01917"></path>
<path d="M1.153 0.838 Q1.014 0.660 0.637 0.689" stroke="hsl(180.0,100%,35%)" stroke-width="0.00728"></path>
<path d="M1.153 0.838 Q1.741 0.888 1.969 0.612" stroke="hsl(180.0,100%,35%)" stroke-width="0.00115"></path>
<path d="M1.153 0.838 Q1.272 0.570 0.776 0.454" stroke="hsl(180.0,100%,35%)" stroke-width="0.00192"></path>
<path d="M1.153 0.838 Q1.594 0.886 1.785 0.682" stroke="hsl(180.0,100%,35%)" stroke-width="0.00728"></path>
<path d="M1.153 0.838 Q1.389 0.746 1.262 0.610" stroke="hsl(180.0,100%,35%)" stroke-width="0.00192"></path>
<path d="M1.153 0.838 Q0.890 0.876 0.907 1.013" stroke="hsl(180.0,100%,35%)" stroke-width="0.00192"></path>
<path d="M1.153 0.838 Q1.237 0.690 0.967 0.617" stroke="hsl(180.0,100%,35%)" stroke-width="0.00038"></path>
<path d="M1.153 0.838 Q1.280 0.947 1.522 0.909" stroke="hsl(180.0,100%,35%)" stroke-width="0.00038"></path>
<path d="M1.153 0.838 Q1.013 0.376 0.082 0.343" stroke="hsl(180.0,100%,35%)" stroke-width="0.00115"></path>
<path d="M1.153 0.838 Q1.139 0.891 1.239 0.909" stroke="hsl(180.0,100%,35%)" stroke-width="0.00153"></path>
<path d="M1.153 0.838 Q0.991 0.814 0.910 0.888" stroke="hsl(180.0,100%,35%)" stroke-width="0.00077"></path>
<path d="M1.153 0.838 Q1.397 0.856 1.487 0.741" stroke="hsl(180.0,100%,35%)" stroke-width="0.00077"></path>
<path d="M1.153 0.838 Q0.901 0.530 0.245 0.585" stroke="hsl(180.0,100%,35%)" stroke-width="0.00038"></path>
<path d="M1.153 0.838 Q1.508 0.811 1.533 0.631" stroke="hsl(180.0,100%,35%)" stroke-width="0.00038"></path>
<path d="M1.878 0.796 Q1.482 0.672 1.153 0.838" stroke="hsl(0.0,100%,35%)" stroke-width="0.00422"></path>
<path d="M1.878 0.796 Q1.923 0.720 1.785 0.682" stroke="hsl(0.0,100%,35%)" stroke-width="0.01342"></path>
<path d="M1.878 0.796 Q1.610 0.781 1.522 0.909" stroke="hsl(0.0,100%,35%)" stroke-width="0.00038"></path>
<path d="M1.878 0.796 Q1.231 0.364 0.245 0.585" stroke="hsl(0.0,100%,35%)" stroke-width="0.00460"></path>
<path d="M1.878 0.796 Q1.361 0.746 1.150 0.987" stroke="hsl(0.0,100%,35%)" stroke-width="0.00153"></path>
<path d="M1.878 0.796 Q2.071 0.722 1.969 0.612" stroke="hsl(0.0,100%,35%)" stroke-width="0.00038"></path>
<path d="M1.878 0.796 Q1.247 0.269 0.079 0.461" stroke="hsl(0.0,100%,35%)" stroke-width="0.00038"></path>
<path d="M1.878 0.796 Q1.412 0.399 0.534 0.538" stroke="hsl(0.0,100%,35%)" stroke-width="0.00153"></path>
<path d="M1.878 0.796 Q1.601 0.405 0.776 0.454" stroke="hsl(0.0,100%,35%)" stroke-width="0.00038"></path>
<path d="M1.878 0.796 Q1.719 0.580 1.262 0.610" stroke="hsl(0.0,100%,35%)" stroke-width="0.00153"></path>
<path d="M1.878 0.796 Q1.265 0.652 0.848 0.919" stroke="hsl(0.0,100%,35%)" stroke-width="0.00038"></path>
<path d="M1.878 0.796 Q1.344 0.494 0.637 0.689" stroke="hsl(0.0,100%,35%)" stroke-width="0.00345"></path>
<path d="M1.150 0.987 Q1.667 1.038 1.878 0.796" stroke="hsl(180.0,100%,35%)" stroke-width="0.01188"></path>
<path d="M1.150 0.987 Q1.859 0.964 1.969 0.612" stroke="hsl(180.0,100%,35%)" stroke-width="0.00115"></path>
<path d="M1.150 0.987 Q1.508 0.821 1.262 0.610" stroke="hsl(180.0,100%,35%)" stroke-width="0.00038"></path>
<path d="M1.150 0.987 Q1.008 0.952 0.907 1.013" stroke="hsl(180.0,100%,35%)" stroke-width="0.00307"></path>
<path d="M1.150 0.987 Q1.257 0.966 1.239 0.909" stroke="hsl(180.0,100%,35%)" stroke-width="0.00038"></path>
<path d="M1.150 0.987 Q1.271 0.913 1.153 0.838" stroke="hsl(180.0,100%,35%)" stroke-width="0.00498"></path>
<path d="M1.150 0.987 Q1.712 0.961 1.785 0.682" stroke="hsl(180.0,100%,35%)" stroke-width="0.00192"></path>
<path d="M1.150 0.987 Q0.960 0.657 0.273 0.677" stroke="hsl(180.0,100%,35%)" stroke-width="0.00038"></path>
<path d="M1.150 0.987 Q1.054 0.893 0.848 0.919" stroke="hsl(180.0,100%,35%)" stroke-width="0.00038"></path>
<path d="M1.150 0.987 Q1.132 0.735 0.637 0.689" stroke="hsl(180.0,100%,35%)" stroke-width="0.00038"></path>
<path d="M1.969 0.612 Q1.776 0.686 1.878 0.796" stroke="hsl(0.0,100%,35%)" stroke-width="0.00805"></path>
<path d="M1.969 0.612 Q1.821 0.610 1.785 0.682" stroke="hsl(0.0,100%,35%)" stroke-width="0.00153"></path>
<path d="M1.969 0.612 Q1.617 0.470 1.262 0.610" stroke="hsl(0.0,100%,35%)" stroke-width="0.00307"></path>
<path d="M1.969 0.612 Q1.380 0.562 1.153 0.838" stroke="hsl(0.0,100%,35%)" stroke-width="0.00077"></path>
<path d="M1.969 0.612 Q1.259 0.636 1.150 0.987" stroke="hsl(0.0,100%,35%)" stroke-width="0.00038"></path>
<path d="M1.969 0.612 Q1.310 0.288 0.534 0.538" stroke="hsl(0.0,100%,35%)" stroke-width="0.00038"></path>
<path d="M0.079 0.461 Q0.503 1.019 1.685 0.934" stroke="hsl(180.0,100%,35%)" stroke-width="0.00038"></path>
<path d="M0.079 0.461 Q0.193 0.938 1.150 0.987" stroke="hsl(180.0,100%,35%)" stroke-width="0.00192"></path>
<path d="M0.079 0.461 Q0.314 0.864 1.153 0.838" stroke="hsl(180.0,100%,35%)" stroke-width="0.00307"></path>
<path d="M0.079 0.461 Q0.755 0.913 1.785 0.682" stroke="hsl(180.0,100%,35%)" stroke-width="0.00038"></path>
<path d="M0.079 0.461 Q0.175 0.403 0.082 0.343" stroke="hsl(180.0,100%,35%)" stroke-width="0.00345"></path>
<path d="M0.079 0.461 Q0.710 0.989 1.878 0.796" stroke="hsl(180.0,100%,35%)" stroke-width="0.00077"></path>
<path d="M0.079 0.461 Q0.244 0.591 0.534 0.538" stroke="hsl(180.0,100%,35%)" stroke-width="0.00038"></path>
<path d="M0.079 0.461 Q0.054 0.476 0.078 0.491" stroke="hsl(180.0,100%,35%)" stroke-width="0.00038"></path>
<path d="M0.534 0.538 Q0.353 0.504 0.245 0.585" stroke="hsl(0.0,100%,35%)" stroke-width="0.01342"></path>
<path d="M0.534 0.538 Q0.465 0.634 0.637 0.689" stroke="hsl(0.0,100%,35%)" stroke-width="0.00652"></path>
<path d="M0.534 0.538 Q0.723 0.545 0.776 0.454" stroke="hsl(0.0,100%,35%)" stroke-width="0.01457"></path>
<path d="M0.534 0.538 Q0.604 0.812 1.153 0.838" stroke="hsl(0.0,100%,35%)" stroke-width="0.00077"></path>
<path d="M0.534 0.538 Q1.000 0.936 1.878 0.796" stroke="hsl(0.0,100%,35%)" stroke-width="0.00153"></path>
<path d="M0.534 0.538 Q0.841 0.720 1.262 0.610" stroke="hsl(0.0,100%,35%)" stroke-width="0.00077"></path>
<path d="M0.781 0.641 Q0.671 0.636 0.637 0.689" stroke="hsl(0.0,100%,35%)" stroke-width="0.00460"></path>
<path d="M0.781 0.641 Q0.740 0.541 0.534 0.538" stroke="hsl(0.0,100%,35%)" stroke-width="0.00038"></path>
<path d="M0.781 0.641 Q0.845 0.452 0.490 0.380" stroke="hsl(0.0,100%,35%)" stroke-width="0.00038"></path>
<path d="M0.781 0.641 Q1.251 0.862 1.785 0.682" stroke="hsl(0.0,100%,35%)" stroke-width="0.00038"></path>
<path d="M0.907 1.013 Q1.049 1.049 1.150 0.987" stroke="hsl(180.0,100%,35%)" stroke-width="0.00230"></path>
<path d="M0.907 1.013 Q1.170 0.974 1.153 0.838" stroke="hsl(180.0,100%,35%)" stroke-width="0.00077"></path>
<path d="M0.907 1.013 Q1.566 1.099 1.878 0.796" stroke="hsl(180.0,100%,35%)" stroke-width="0.00038"></path>
<path d="M1.239 0.909 Q1.132 0.931 1.150 0.987" stroke="hsl(180.0,100%,35%)" stroke-width="0.00920"></path>
<path d="M1.239 0.909 Q0.990 0.895 0.907 1.013" stroke="hsl(180.0,100%,35%)" stroke-width="0.00038"></path>
<path d="M1.239 0.909 Q1.253 0.856 1.153 0.838" stroke="hsl(180.0,100%,35%)" stroke-width="0.00345"></path>
<path d="M1.239 0.909 Q1.649 0.981 1.878 0.796" stroke="hsl(180.0,100%,35%)" stroke-width="0.00115"></path>
<path d="M1.239 0.909 Q1.114 0.678 0.637 0.689" stroke="hsl(180.0,100%,35%)" stroke-width="0.00038"></path>
<path d="M0.273 0.677 Q0.230 0.809 0.479 0.860" stroke="hsl(0.0,100%,35%)" stroke-width="0.00077"></path>
<path d="M0.273 0.677 Q0.463 1.008 1.150 0.987" stroke="hsl(0.0,100%,35%)" stroke-width="0.00038"></path>
<path d="M0.273 0.677 Q1.025 0.982 1.785 0.682" stroke="hsl(0.0,100%,35%)" stroke-width="0.00115"></path>
<path d="M0.273 0.677 Q0.333 0.625 0.245 0.585" stroke="hsl(0.0,100%,35%)" stroke-width="0.00077"></path>
<path d="M0.273 0.677 Q0.112 0.746 0.212 0.840" stroke="hsl(0.0,100%,35%)" stroke-width="0.00115"></path>
<path d="M0.273 0.677 Q0.584 0.933 1.153 0.838" stroke="hsl(0.0,100%,35%)" stroke-width="0.00077"></path>
<path d="M0.479 0.860 Q0.695 0.806 0.637 0.689" stroke="hsl(0.0,100%,35%)" stroke-width="0.00153"></path>
<path d="M0.479 0.860 Q0.833 0.983 1.153 0.838" stroke="hsl(0.0,100%,35%)" stroke-width="0.00038"></path>
<path d="M0.479 0.860 Q1.274 1.032 1.785 0.682" stroke="hsl(0.0,100%,35%)" stroke-width="0.00153"></path>
<path d="M0.479 0.860 Q0.522 0.727 0.273 0.677" stroke="hsl(0.0,100%,35%)" stroke-width="0.00153"></path>
<path d="M0.479 0.860 Q0.763 0.710 0.534 0.538" stroke="hsl(0.0,100%,35%)" stroke-width="0.00153"></path>
<path d="M0.479 0.860 Q0.952 0.716 0.776 0.454" stroke="hsl(0.0,100%,35%)" stroke-width="0.00038"></path>
<path d="M1.685 0.934 Q1.624 0.889 1.522 0.909" stroke="hsl(180.0,100%,35%)" stroke-width="0.00077"></path>
<path d="M1.685 0.934 Q1.777 0.952 1.831 0.911" stroke="hsl(180.0,100%,35%)" stroke-width="0.00307"></path>
<path d="M1.685 0.934 Q1.496 0.779 1.153 0.838" stroke="hsl(180.0,100%,35%)" stroke-width="0.00038"></path>
<path d="M1.685 0.934 Q1.740 0.798 1.487 0.741" stroke="hsl(180.0,100%,35%)" stroke-width="0.00077"></path>
<path d="M0.082 0.343 Q0.221 0.804 1.153 0.838" stroke="hsl(180.0,100%,35%)" stroke-width="0.00153"></path>
<path d="M0.082 0.343 Q-0.014 0.401 0.079 0.461" stroke="hsl(180.0,100%,35%)" stroke-width="0.00153"></path>
<path d="M0.082 0.343 Q-0.030 0.496 0.245 0.585" stroke="hsl(180.0,100%,35%)" stroke-width="0.00038"></path>
<path d="M0.754 1.026 Q0.965 0.834 0.637 0.689" stroke="hsl(0.0,100%,35%)" stroke-width="0.00115"></path>
<path d="M0.754 1.026 Q1.139 0.650 0.490 0.380" stroke="hsl(0.0,100%,35%)" stroke-width="0.00038"></path>
<path d="M0.754 1.026 Q0.853 0.704 0.245 0.585" stroke="hsl(0.0,100%,35%)" stroke-width="0.00038"></path>
<path d="M1.267 0.697 Q1.027 0.471 0.534 0.538" stroke="hsl(180.0,100%,35%)" stroke-width="0.00038"></path>
<path d="M1.267 0.697 Q1.097 0.744 1.153 0.838" stroke="hsl(180.0,100%,35%)" stroke-width="0.00038"></path>
<path d="M1.267 0.697 Q1.181 0.597 0.967 0.617" stroke="hsl(180.0,100%,35%)" stroke-width="0.00038"></path>
<path d="M1.478 0.880 Q1.349 0.794 1.153 0.838" stroke="hsl(180.0,100%,35%)" stroke-width="0.01649"></path>
<path d="M1.478 0.880 Q1.790 0.842 1.785 0.682" stroke="hsl(180.0,100%,35%)" stroke-width="0.00230"></path>
<path d="M1.478 0.880 Q1.477 0.903 1.522 0.909" stroke="hsl(180.0,100%,35%)" stroke-width="0.00038"></path>
<path d="M1.478 0.880 Q1.586 0.702 1.262 0.610" stroke="hsl(180.0,100%,35%)" stroke-width="0.00038"></path>
<path d="M1.478 0.880 Q1.593 0.812 1.487 0.741" stroke="hsl(180.0,100%,35%)" stroke-width="0.00038"></path>
<path d="M1.478 0.880 Q1.745 0.918 1.878 0.796" stroke="hsl(180.0,100%,35%)" stroke-width="0.00077"></path>
<path d="M0.186 0.290 Q0.627 0.882 1.878 0.796" stroke="hsl(0.0,100%,35%)" stroke-width="0.00038"></path>
<path d="M0.186 0.290 Q-0.020 0.449 0.245 0.585" stroke="hsl(0.0,100%,35%)" stroke-width="0.00077"></path>
<path d="M0.186 0.290 Q0.092 0.579 0.637 0.689" stroke="hsl(0.0,100%,35%)" stroke-width="0.00038"></path>
<path d="M0.185 0.410 Q0.091 0.414 0.079 0.461" stroke="hsl(180.0,100%,35%)" stroke-width="0.00268"></path>
<path d="M0.185 0.410 Q0.205 0.892 1.150 0.987" stroke="hsl(180.0,100%,35%)" stroke-width="0.00153"></path>
<path d="M0.185 0.410 Q0.723 0.942 1.878 0.796" stroke="hsl(180.0,100%,35%)" stroke-width="0.00192"></path>
<path d="M0.138 0.755 Q0.268 0.743 0.273 0.677" stroke="hsl(0.0,100%,35%)" stroke-width="0.00077"></path>
<path d="M0.138 0.755 Q0.975 1.123 1.878 0.796" stroke="hsl(0.0,100%,35%)" stroke-width="0.00038"></path>
<path d="M0.138 0.755 Q1.167 1.050 1.969 0.612" stroke="hsl(0.0,100%,35%)" stroke-width="0.00038"></path>
<path d="M0.446 0.725 Q0.458 0.615 0.245 0.585" stroke="hsl(0.0,100%,35%)" stroke-width="0.00115"></path>
<path d="M0.446 0.725 Q0.570 0.745 0.637 0.689" stroke="hsl(0.0,100%,35%)" stroke-width="0.00192"></path>
<path d="M0.446 0.725 Q0.639 0.649 0.534 0.538" stroke="hsl(0.0,100%,35%)" stroke-width="0.00038"></path>
<path d="M0.032 0.710 Q0.239 0.690 0.245 0.585" stroke="hsl(0.0,100%,35%)" stroke-width="0.00115"></path>
<path d="M0.032 0.710 Q0.351 0.820 0.637 0.689" stroke="hsl(0.0,100%,35%)" stroke-width="0.00038"></path>
<path d="M0.032 0.710 Q0.727 0.906 1.262 0.610" stroke="hsl(0.0,100%,35%)" stroke-width="0.00038"></path>
</g>
<text x="1.533" y="0.614" font-size="0.034659" fill="hsl(0.0,100%,20%)">armansito</text>
<text x="1.785" y="0.642" font-size="0.078239" fill="hsl(0.0,100%,20%)">johnstiles</text>
<text x="0.245" y="0.553" font-size="0.063144" fill="hsl(0.0,100%,20%)">michaelludwig</text>
<text x="0.776" y="0.433" font-size="0.041995" fill="hsl(0.0,100%,20%)">nicolettep</text>
<text x="0.637" y="0.664" font-size="0.050303" fill="hsl(0.0,100%,20%)">egdaniel</text>
<text x="0.490" y="0.363" font-size="0.034289" fill="hsl(0.0,100%,20%)">jamesgk</text>
<text x="1.262" y="0.585" font-size="0.049792" fill="hsl(0.0,100%,20%)">jvanverth</text>
<text x="1.153" y="0.804" font-size="0.067922" fill="hsl(180.0,100%,20%)">kjlubick</text>
<text x="1.878" y="0.760" font-size="0.073263" fill="hsl(0.0,100%,20%)">brianosman</text>
<text x="1.522" y="0.905" font-size="0.008757" fill="hsl(180.0,100%,20%)">borenet</text>
<text x="1.150" y="0.963" font-size="0.048095" fill="hsl(180.0,100%,20%)">bungeman</text>
<text x="1.969" y="0.598" font-size="0.029042" fill="hsl(0.0,100%,20%)">herb</text>
<text x="0.079" y="0.448" font-size="0.025530" fill="hsl(180.0,100%,20%)">fmalita</text>
<text x="0.534" y="0.513" font-size="0.051309" fill="hsl(0.0,100%,20%)">robertphillips</text>
<text x="0.848" y="0.916" font-size="0.006192" fill="hsl(0.0,100%,20%)">jreck</text>
<text x="0.781" y="0.635" font-size="0.013845" fill="hsl(0.0,100%,20%)">briansalomon</text>
<text x="0.907" y="1.004" font-size="0.017874" fill="hsl(180.0,100%,20%)">jlavrova</text>
<text x="1.239" y="0.898" font-size="0.023442" fill="hsl(180.0,100%,20%)">drott</text>
<text x="0.273" y="0.668" font-size="0.017874" fill="hsl(0.0,100%,20%)">scroggo</text>
<text x="0.479" y="0.850" font-size="0.019251" fill="hsl(0.0,100%,20%)">nscobie</text>
<text x="1.685" y="0.927" font-size="0.013376" fill="hsl(180.0,100%,20%)">sharaks</text>
<text x="0.082" y="0.334" font-size="0.017144" fill="hsl(180.0,100%,20%)">jmbetancourt</text>
<text x="0.078" y="0.490" font-size="0.003575" fill="hsl(180.0,100%,20%)">bwils</text>
<text x="0.754" y="1.022" font-size="0.007994" fill="hsl(0.0,100%,20%)">hitawala</text>
<text x="1.267" y="0.693" font-size="0.007150" fill="hsl(180.0,100%,20%)">rmistry</text>
<text x="0.212" y="0.836" font-size="0.007150" fill="hsl(0.0,100%,20%)">djsollen</text>
<text x="0.967" y="0.613" font-size="0.006192" fill="hsl(180.0,100%,20%)">jcgregorio</text>
<text x="1.487" y="0.735" font-size="0.011305" fill="hsl(180.0,100%,20%)">cmumford</text>
<text x="1.478" y="0.864" font-size="0.031974" fill="hsl(180.0,100%,20%)">lovisolo</text>
<text x="0.910" y="0.885" font-size="0.005056" fill="hsl(180.0,100%,20%)">tdenniston</text>
<text x="0.186" y="0.286" font-size="0.007150" fill="hsl(0.0,100%,20%)">lokokung</text>
<text x="0.185" y="0.403" font-size="0.014299" fill="hsl(180.0,100%,20%)">mike</text>
<text x="0.138" y="0.751" font-size="0.007150" fill="hsl(0.0,100%,20%)">nigeltao</text>
<text x="0.446" y="0.720" font-size="0.010725" fill="hsl(0.0,100%,20%)">penghuang</text>
<text x="1.831" y="0.905" font-size="0.010111" fill="hsl(180.0,100%,20%)">hcm</text>
<text x="0.032" y="0.706" font-size="0.007994" fill="hsl(0.0,100%,20%)">sunnyps</text>
</svg>
