<svg width="4000" height="2000" viewBox="-0.025 -0.025 2.05 1.05" xmlns="http://www.w3.org/2000/svg">
  <style>
    path {
      fill: none;
      stroke-linecap: round;
      stroke-opacity: 0.4;
    }

    text {
      text-anchor: middle;
      alignment-baseline: hanging;
    }
  </style>
  <g opacity="0.4">
<path d="M0.530 0.131 Q0.335 0.164 0.355 0.266" stroke="hsl(0.0,100%,35%)" stroke-width="0.00086"></path>
<path d="M0.530 0.131 Q-0.124 0.564 0.577 0.978" stroke="hsl(0.0,100%,35%)" stroke-width="0.00086"></path>
<path d="M0.530 0.131 Q0.804 0.175 0.949 0.050" stroke="hsl(0.0,100%,35%)" stroke-width="0.00086"></path>
<path d="M0.355 0.266 Q-0.103 0.666 0.577 0.978" stroke="hsl(0.0,100%,35%)" stroke-width="0.00086"></path>
<path d="M0.355 0.266 Q0.245 0.334 0.354 0.403" stroke="hsl(0.0,100%,35%)" stroke-width="0.00086"></path>
<path d="M0.355 0.266 Q0.824 0.277 0.949 0.050" stroke="hsl(0.0,100%,35%)" stroke-width="0.00171"></path>
<path d="M0.355 0.266 Q0.225 0.647 0.940 0.794" stroke="hsl(0.0,100%,35%)" stroke-width="0.00086"></path>
<path d="M0.577 0.978 Q1.725 0.907 1.841 0.332" stroke="hsl(180.0,100%,35%)" stroke-width="0.00257"></path>
<path d="M0.577 0.978 Q0.906 0.958 0.940 0.794" stroke="hsl(180.0,100%,35%)" stroke-width="0.01798"></path>
<path d="M0.577 0.978 Q0.827 1.080 1.082 0.980" stroke="hsl(180.0,100%,35%)" stroke-width="0.00086"></path>
<path d="M0.577 0.978 Q1.353 0.795 1.167 0.377" stroke="hsl(180.0,100%,35%)" stroke-width="0.00514"></path>
<path d="M0.577 0.978 Q1.505 0.588 0.949 0.050" stroke="hsl(180.0,100%,35%)" stroke-width="0.00428"></path>
<path d="M0.577 0.978 Q0.615 0.874 0.421 0.833" stroke="hsl(180.0,100%,35%)" stroke-width="0.00086"></path>
<path d="M0.577 0.978 Q1.412 0.692 1.039 0.222" stroke="hsl(180.0,100%,35%)" stroke-width="0.00086"></path>
<path d="M0.577 0.978 Q1.254 0.971 1.389 0.639" stroke="hsl(180.0,100%,35%)" stroke-width="0.00086"></path>
<path d="M0.949 0.050 Q0.021 0.440 0.577 0.978" stroke="hsl(0.0,100%,35%)" stroke-width="0.01284"></path>
<path d="M0.949 0.050 Q0.059 0.336 0.421 0.833" stroke="hsl(0.0,100%,35%)" stroke-width="0.00171"></path>
<path d="M0.949 0.050 Q0.856 0.154 1.039 0.222" stroke="hsl(0.0,100%,35%)" stroke-width="0.00086"></path>
<path d="M0.949 0.050 Q0.717 0.072 0.707 0.189" stroke="hsl(0.0,100%,35%)" stroke-width="0.00257"></path>
<path d="M0.949 0.050 Q0.819 0.020 0.731 0.077" stroke="hsl(0.0,100%,35%)" stroke-width="0.00086"></path>
<path d="M0.949 0.050 Q1.170 0.369 1.841 0.332" stroke="hsl(0.0,100%,35%)" stroke-width="0.00428"></path>
<path d="M0.949 0.050 Q0.350 0.420 0.940 0.794" stroke="hsl(0.0,100%,35%)" stroke-width="0.00086"></path>
<path d="M0.949 0.050 Q0.722 0.357 1.270 0.534" stroke="hsl(0.0,100%,35%)" stroke-width="0.00086"></path>
<path d="M0.910 0.406 Q0.614 0.606 0.940 0.794" stroke="hsl(180.0,100%,35%)" stroke-width="0.00086"></path>
<path d="M0.910 0.406 Q1.061 0.443 1.167 0.377" stroke="hsl(180.0,100%,35%)" stroke-width="0.00257"></path>
<path d="M0.910 0.406 Q0.886 0.475 1.016 0.502" stroke="hsl(180.0,100%,35%)" stroke-width="0.00171"></path>
<path d="M0.910 0.406 Q0.729 0.469 0.813 0.571" stroke="hsl(180.0,100%,35%)" stroke-width="0.00086"></path>
<path d="M0.910 0.406 Q1.121 0.340 1.039 0.222" stroke="hsl(180.0,100%,35%)" stroke-width="0.00171"></path>
<path d="M0.910 0.406 Q1.434 0.555 1.841 0.332" stroke="hsl(180.0,100%,35%)" stroke-width="0.00171"></path>
<path d="M0.940 0.794 Q0.611 0.813 0.577 0.978" stroke="hsl(180.0,100%,35%)" stroke-width="0.05394"></path>
<path d="M0.940 0.794 Q0.649 0.710 0.421 0.833" stroke="hsl(180.0,100%,35%)" stroke-width="0.00342"></path>
<path d="M0.940 0.794 Q1.289 0.806 1.389 0.639" stroke="hsl(180.0,100%,35%)" stroke-width="0.00599"></path>
<path d="M0.940 0.794 Q1.235 0.594 0.910 0.406" stroke="hsl(180.0,100%,35%)" stroke-width="0.00171"></path>
<path d="M0.940 0.794 Q1.539 0.424 0.949 0.050" stroke="hsl(180.0,100%,35%)" stroke-width="0.00171"></path>
<path d="M0.940 0.794 Q1.387 0.631 1.167 0.377" stroke="hsl(180.0,100%,35%)" stroke-width="0.01027"></path>
<path d="M0.940 0.794 Q1.312 0.730 1.270 0.534" stroke="hsl(180.0,100%,35%)" stroke-width="0.00086"></path>
<path d="M0.940 0.794 Q1.055 0.657 0.813 0.571" stroke="hsl(180.0,100%,35%)" stroke-width="0.00428"></path>
<path d="M0.940 0.794 Q1.447 0.528 1.039 0.222" stroke="hsl(180.0,100%,35%)" stroke-width="0.00171"></path>
<path d="M0.940 0.794 Q1.508 0.685 1.421 0.384" stroke="hsl(180.0,100%,35%)" stroke-width="0.00257"></path>
<path d="M0.940 0.794 Q1.211 0.663 1.016 0.502" stroke="hsl(180.0,100%,35%)" stroke-width="0.00514"></path>
<path d="M0.940 0.794 Q0.893 0.678 0.657 0.676" stroke="hsl(180.0,100%,35%)" stroke-width="0.00171"></path>
<path d="M0.940 0.794 Q0.961 0.356 0.112 0.250" stroke="hsl(180.0,100%,35%)" stroke-width="0.00171"></path>
<path d="M0.940 0.794 Q1.061 0.887 1.268 0.848" stroke="hsl(180.0,100%,35%)" stroke-width="0.00086"></path>
<path d="M0.940 0.794 Q1.760 0.743 1.841 0.332" stroke="hsl(180.0,100%,35%)" stroke-width="0.00856"></path>
<path d="M1.167 0.377 Q0.835 0.403 0.813 0.571" stroke="hsl(180.0,100%,35%)" stroke-width="0.00171"></path>
<path d="M1.167 0.377 Q1.227 0.274 1.039 0.222" stroke="hsl(180.0,100%,35%)" stroke-width="0.00514"></path>
<path d="M1.167 0.377 Q1.069 0.552 1.389 0.639" stroke="hsl(180.0,100%,35%)" stroke-width="0.01199"></path>
<path d="M1.167 0.377 Q1.016 0.340 0.910 0.406" stroke="hsl(180.0,100%,35%)" stroke-width="0.00257"></path>
<path d="M1.167 0.377 Q0.392 0.559 0.577 0.978" stroke="hsl(180.0,100%,35%)" stroke-width="0.01370"></path>
<path d="M1.167 0.377 Q0.720 0.540 0.940 0.794" stroke="hsl(180.0,100%,35%)" stroke-width="0.00685"></path>
<path d="M1.167 0.377 Q1.289 0.431 1.421 0.384" stroke="hsl(180.0,100%,35%)" stroke-width="0.01627"></path>
<path d="M1.167 0.377 Q0.992 0.409 1.016 0.502" stroke="hsl(180.0,100%,35%)" stroke-width="0.00086"></path>
<path d="M1.016 0.502 Q0.860 0.496 0.813 0.571" stroke="hsl(180.0,100%,35%)" stroke-width="0.00514"></path>
<path d="M1.016 0.502 Q0.745 0.633 0.940 0.794" stroke="hsl(180.0,100%,35%)" stroke-width="0.00086"></path>
<path d="M1.016 0.502 Q1.565 0.582 1.841 0.332" stroke="hsl(180.0,100%,35%)" stroke-width="0.00086"></path>
<path d="M1.016 0.502 Q1.094 0.645 1.389 0.639" stroke="hsl(180.0,100%,35%)" stroke-width="0.00086"></path>
<path d="M1.016 0.502 Q1.252 0.367 1.039 0.222" stroke="hsl(180.0,100%,35%)" stroke-width="0.00171"></path>
<path d="M1.016 0.502 Q0.416 0.652 0.577 0.978" stroke="hsl(180.0,100%,35%)" stroke-width="0.00086"></path>
<path d="M0.813 0.571 Q0.699 0.708 0.940 0.794" stroke="hsl(180.0,100%,35%)" stroke-width="0.00086"></path>
<path d="M0.813 0.571 Q0.970 0.577 1.016 0.502" stroke="hsl(180.0,100%,35%)" stroke-width="0.00428"></path>
<path d="M0.813 0.571 Q0.370 0.727 0.577 0.978" stroke="hsl(180.0,100%,35%)" stroke-width="0.00086"></path>
<path d="M0.813 0.571 Q1.146 0.545 1.167 0.377" stroke="hsl(180.0,100%,35%)" stroke-width="0.00428"></path>
<path d="M0.813 0.571 Q1.267 0.599 1.421 0.384" stroke="hsl(180.0,100%,35%)" stroke-width="0.00086"></path>
<path d="M1.039 0.222 Q0.980 0.325 1.167 0.377" stroke="hsl(180.0,100%,35%)" stroke-width="0.01627"></path>
<path d="M1.039 0.222 Q0.828 0.288 0.910 0.406" stroke="hsl(180.0,100%,35%)" stroke-width="0.00342"></path>
<path d="M1.039 0.222 Q0.647 0.352 0.813 0.571" stroke="hsl(180.0,100%,35%)" stroke-width="0.00428"></path>
<path d="M1.039 0.222 Q0.204 0.508 0.577 0.978" stroke="hsl(180.0,100%,35%)" stroke-width="0.00257"></path>
<path d="M1.039 0.222 Q0.900 0.139 0.707 0.189" stroke="hsl(180.0,100%,35%)" stroke-width="0.00086"></path>
<path d="M1.039 0.222 Q1.132 0.118 0.949 0.050" stroke="hsl(180.0,100%,35%)" stroke-width="0.00171"></path>
<path d="M1.039 0.222 Q0.533 0.488 0.940 0.794" stroke="hsl(180.0,100%,35%)" stroke-width="0.00342"></path>
<path d="M1.039 0.222 Q0.242 0.404 0.421 0.833" stroke="hsl(180.0,100%,35%)" stroke-width="0.00086"></path>
<path d="M1.039 0.222 Q0.881 0.501 1.389 0.639" stroke="hsl(180.0,100%,35%)" stroke-width="0.00342"></path>
<path d="M1.039 0.222 Q1.101 0.380 1.421 0.384" stroke="hsl(180.0,100%,35%)" stroke-width="0.00428"></path>
<path d="M1.039 0.222 Q0.663 0.107 0.355 0.266" stroke="hsl(180.0,100%,35%)" stroke-width="0.00086"></path>
<path d="M1.039 0.222 Q1.352 0.437 1.841 0.332" stroke="hsl(180.0,100%,35%)" stroke-width="0.00086"></path>
<path d="M1.841 0.332 Q1.041 -0.055 0.112 0.250" stroke="hsl(0.0,100%,35%)" stroke-width="0.00257"></path>
<path d="M1.841 0.332 Q1.620 0.013 0.949 0.050" stroke="hsl(0.0,100%,35%)" stroke-width="0.01798"></path>
<path d="M1.841 0.332 Q1.393 0.319 1.270 0.534" stroke="hsl(0.0,100%,35%)" stroke-width="0.00771"></path>
<path d="M1.841 0.332 Q1.641 0.341 1.615 0.440" stroke="hsl(0.0,100%,35%)" stroke-width="0.00942"></path>
<path d="M1.841 0.332 Q1.369 0.395 1.389 0.639" stroke="hsl(0.0,100%,35%)" stroke-width="0.00428"></path>
<path d="M1.841 0.332 Q1.151 0.002 0.355 0.266" stroke="hsl(0.0,100%,35%)" stroke-width="0.00171"></path>
<path d="M1.841 0.332 Q0.692 0.402 0.577 0.978" stroke="hsl(0.0,100%,35%)" stroke-width="0.01027"></path>
<path d="M1.841 0.332 Q1.135 0.246 0.813 0.571" stroke="hsl(0.0,100%,35%)" stroke-width="0.00856"></path>
<path d="M1.841 0.332 Q0.730 0.299 0.421 0.833" stroke="hsl(0.0,100%,35%)" stroke-width="0.00086"></path>
<path d="M1.841 0.332 Q1.292 0.252 1.016 0.502" stroke="hsl(0.0,100%,35%)" stroke-width="0.00771"></path>
<path d="M1.841 0.332 Q1.021 0.383 0.940 0.794" stroke="hsl(0.0,100%,35%)" stroke-width="0.00257"></path>
<path d="M1.841 0.332 Q1.527 0.117 1.039 0.222" stroke="hsl(0.0,100%,35%)" stroke-width="0.00171"></path>
<path d="M1.841 0.332 Q1.388 0.034 0.707 0.189" stroke="hsl(0.0,100%,35%)" stroke-width="0.00086"></path>
<path d="M1.841 0.332 Q1.468 0.220 1.167 0.377" stroke="hsl(0.0,100%,35%)" stroke-width="0.00171"></path>
<path d="M1.841 0.332 Q0.942 0.504 1.082 0.980" stroke="hsl(0.0,100%,35%)" stroke-width="0.00086"></path>
<path d="M1.082 0.980 Q1.281 0.951 1.268 0.848" stroke="hsl(0.0,100%,35%)" stroke-width="0.00257"></path>
<path d="M1.082 0.980 Q1.667 0.593 1.039 0.222" stroke="hsl(0.0,100%,35%)" stroke-width="0.00086"></path>
<path d="M1.082 0.980 Q1.980 0.808 1.841 0.332" stroke="hsl(0.0,100%,35%)" stroke-width="0.00171"></path>
<path d="M0.421 0.833 Q0.384 0.936 0.577 0.978" stroke="hsl(180.0,100%,35%)" stroke-width="0.01541"></path>
<path d="M0.421 0.833 Q0.712 0.917 0.940 0.794" stroke="hsl(180.0,100%,35%)" stroke-width="0.00514"></path>
<path d="M0.421 0.833 Q1.219 0.651 1.039 0.222" stroke="hsl(180.0,100%,35%)" stroke-width="0.00086"></path>
<path d="M0.421 0.833 Q1.532 0.866 1.841 0.332" stroke="hsl(180.0,100%,35%)" stroke-width="0.00086"></path>
<path d="M1.389 0.639 Q1.488 0.463 1.167 0.377" stroke="hsl(180.0,100%,35%)" stroke-width="0.00086"></path>
<path d="M1.389 0.639 Q1.155 0.490 0.813 0.571" stroke="hsl(180.0,100%,35%)" stroke-width="0.00257"></path>
<path d="M1.389 0.639 Q1.312 0.496 1.016 0.502" stroke="hsl(180.0,100%,35%)" stroke-width="0.00942"></path>
<path d="M1.389 0.639 Q1.861 0.575 1.841 0.332" stroke="hsl(180.0,100%,35%)" stroke-width="0.00171"></path>
<path d="M1.389 0.639 Q0.712 0.646 0.577 0.978" stroke="hsl(180.0,100%,35%)" stroke-width="0.00086"></path>
<path d="M1.389 0.639 Q1.547 0.361 1.039 0.222" stroke="hsl(180.0,100%,35%)" stroke-width="0.00257"></path>
<path d="M1.389 0.639 Q1.041 0.626 0.940 0.794" stroke="hsl(180.0,100%,35%)" stroke-width="0.00086"></path>
<path d="M0.673 0.384 Q0.593 0.506 0.813 0.571" stroke="hsl(180.0,100%,35%)" stroke-width="0.00685"></path>
<path d="M0.673 0.384 Q0.827 0.655 1.389 0.639" stroke="hsl(180.0,100%,35%)" stroke-width="0.00086"></path>
<path d="M0.673 0.384 Q0.985 0.376 1.039 0.222" stroke="hsl(180.0,100%,35%)" stroke-width="0.00086"></path>
<path d="M0.707 0.189 Q0.939 0.168 0.949 0.050" stroke="hsl(0.0,100%,35%)" stroke-width="0.00514"></path>
<path d="M0.707 0.189 Q0.809 0.138 0.731 0.077" stroke="hsl(0.0,100%,35%)" stroke-width="0.00086"></path>
<path d="M0.707 0.189 Q0.712 0.474 1.270 0.534" stroke="hsl(0.0,100%,35%)" stroke-width="0.00086"></path>
<path d="M0.731 0.077 Q0.861 0.107 0.949 0.050" stroke="hsl(0.0,100%,35%)" stroke-width="0.01627"></path>
<path d="M0.731 0.077 Q0.629 0.128 0.707 0.189" stroke="hsl(0.0,100%,35%)" stroke-width="0.00086"></path>
<path d="M0.731 0.077 Q1.082 0.426 1.841 0.332" stroke="hsl(0.0,100%,35%)" stroke-width="0.00171"></path>
<path d="M0.731 0.077 Q-0.066 0.496 0.577 0.978" stroke="hsl(0.0,100%,35%)" stroke-width="0.00257"></path>
<path d="M0.731 0.077 Q0.377 0.340 0.813 0.571" stroke="hsl(0.0,100%,35%)" stroke-width="0.00086"></path>
<path d="M0.731 0.077 Q0.392 0.096 0.355 0.266" stroke="hsl(0.0,100%,35%)" stroke-width="0.00086"></path>
<path d="M1.270 0.534 Q1.432 0.617 1.629 0.556" stroke="hsl(0.0,100%,35%)" stroke-width="0.00086"></path>
<path d="M1.270 0.534 Q1.496 0.228 0.949 0.050" stroke="hsl(0.0,100%,35%)" stroke-width="0.00257"></path>
<path d="M1.270 0.534 Q1.717 0.547 1.841 0.332" stroke="hsl(0.0,100%,35%)" stroke-width="0.00171"></path>
<path d="M1.270 0.534 Q0.897 0.598 0.940 0.794" stroke="hsl(0.0,100%,35%)" stroke-width="0.00086"></path>
<path d="M1.270 0.534 Q0.851 0.483 0.657 0.676" stroke="hsl(0.0,100%,35%)" stroke-width="0.00171"></path>
<path d="M1.270 0.534 Q1.224 0.735 1.605 0.802" stroke="hsl(0.0,100%,35%)" stroke-width="0.00086"></path>
<path d="M1.421 0.384 Q1.300 0.330 1.167 0.377" stroke="hsl(180.0,100%,35%)" stroke-width="0.00599"></path>
<path d="M1.421 0.384 Q0.967 0.356 0.813 0.571" stroke="hsl(180.0,100%,35%)" stroke-width="0.00086"></path>
<path d="M1.421 0.384 Q0.524 0.512 0.577 0.978" stroke="hsl(180.0,100%,35%)" stroke-width="0.00086"></path>
<path d="M0.112 0.250 Q0.206 0.551 0.813 0.571" stroke="hsl(0.0,100%,35%)" stroke-width="0.00257"></path>
<path d="M0.112 0.250 Q0.911 0.637 1.841 0.332" stroke="hsl(0.0,100%,35%)" stroke-width="0.00086"></path>
<path d="M0.112 0.250 Q0.091 0.688 0.940 0.794" stroke="hsl(0.0,100%,35%)" stroke-width="0.00086"></path>
<path d="M0.112 0.250 Q0.221 0.307 0.355 0.266" stroke="hsl(0.0,100%,35%)" stroke-width="0.00086"></path>
<path d="M1.615 0.440 Q1.815 0.431 1.841 0.332" stroke="hsl(0.0,100%,35%)" stroke-width="0.02397"></path>
<path d="M1.615 0.440 Q0.995 0.482 0.940 0.794" stroke="hsl(0.0,100%,35%)" stroke-width="0.00171"></path>
<path d="M1.615 0.440 Q0.666 0.501 0.577 0.978" stroke="hsl(0.0,100%,35%)" stroke-width="0.00171"></path>
<path d="M1.615 0.440 Q1.594 0.112 0.949 0.050" stroke="hsl(0.0,100%,35%)" stroke-width="0.00086"></path>
<path d="M1.296 0.706 Q1.420 0.615 1.270 0.534" stroke="hsl(0.0,100%,35%)" stroke-width="0.00514"></path>
<path d="M1.296 0.706 Q1.647 0.309 0.949 0.050" stroke="hsl(0.0,100%,35%)" stroke-width="0.00342"></path>
<path d="M1.296 0.706 Q0.719 0.698 0.577 0.978" stroke="hsl(0.0,100%,35%)" stroke-width="0.00171"></path>
<path d="M1.793 0.168 Q1.313 0.147 1.167 0.377" stroke="hsl(180.0,100%,35%)" stroke-width="0.00171"></path>
<path d="M1.793 0.168 Q0.980 0.174 0.813 0.571" stroke="hsl(180.0,100%,35%)" stroke-width="0.00086"></path>
<path d="M1.793 0.168 Q1.214 0.323 1.389 0.639" stroke="hsl(180.0,100%,35%)" stroke-width="0.00086"></path>
</g>
<text x="0.530" y="0.126" font-size="0.009853" fill="hsl(0.0,100%,20%)">aperez</text>
<text x="0.355" y="0.256" font-size="0.018868" fill="hsl(0.0,100%,20%)">scroggo</text>
<text x="0.577" y="0.939" font-size="0.076111" fill="hsl(180.0,100%,20%)">brianosman</text>
<text x="0.949" y="0.023" font-size="0.055448" fill="hsl(0.0,100%,20%)">bungeman</text>
<text x="0.910" y="0.393" font-size="0.025441" fill="hsl(180.0,100%,20%)">armansito</text>
<text x="0.940" y="0.756" font-size="0.075040" fill="hsl(180.0,100%,20%)">johnstiles</text>
<text x="1.167" y="0.345" font-size="0.063857" fill="hsl(180.0,100%,20%)">michaelludwig</text>
<text x="1.016" y="0.483" font-size="0.038583" fill="hsl(180.0,100%,20%)">nicolettep</text>
<text x="0.813" y="0.549" font-size="0.043697" fill="hsl(180.0,100%,20%)">egdaniel</text>
<text x="1.039" y="0.198" font-size="0.048271" fill="hsl(180.0,100%,20%)">jvanverth</text>
<text x="1.841" y="0.297" font-size="0.070136" fill="hsl(0.0,100%,20%)">kjlubick</text>
<text x="1.082" y="0.972" font-size="0.016090" fill="hsl(0.0,100%,20%)">borenet</text>
<text x="1.268" y="0.842" font-size="0.011378" fill="hsl(0.0,100%,20%)">rmistry</text>
<text x="0.421" y="0.816" font-size="0.033655" fill="hsl(180.0,100%,20%)">herb</text>
<text x="1.389" y="0.617" font-size="0.042571" fill="hsl(180.0,100%,20%)">robertphillips</text>
<text x="0.673" y="0.375" font-size="0.017990" fill="hsl(180.0,100%,20%)">briansalomon</text>
<text x="0.707" y="0.179" font-size="0.021286" fill="hsl(0.0,100%,20%)">jlavrova</text>
<text x="0.731" y="0.061" font-size="0.030635" fill="hsl(0.0,100%,20%)">drott</text>
<text x="1.270" y="0.519" font-size="0.030102" fill="hsl(0.0,100%,20%)">fmalita</text>
<text x="1.421" y="0.367" font-size="0.034604" fill="hsl(180.0,100%,20%)">jamesgk</text>
<text x="1.629" y="0.553" font-size="0.005689" fill="hsl(0.0,100%,20%)">sharaks</text>
<text x="0.657" y="0.670" font-size="0.011378" fill="hsl(0.0,100%,20%)">jmbetancourt</text>
<text x="1.605" y="0.799" font-size="0.005689" fill="hsl(0.0,100%,20%)">bwils</text>
<text x="0.112" y="0.241" font-size="0.018868" fill="hsl(0.0,100%,20%)">nscobie</text>
<text x="1.615" y="0.421" font-size="0.037735" fill="hsl(0.0,100%,20%)">lovisolo</text>
<text x="1.296" y="0.696" font-size="0.019707" fill="hsl(0.0,100%,20%)">mike</text>
<text x="1.793" y="0.162" font-size="0.011378" fill="hsl(180.0,100%,20%)">penghuang</text>
<text x="0.354" y="0.400" font-size="0.005689" fill="hsl(0.0,100%,20%)">jreck</text>
</svg>
