<svg width="4000" height="2000" viewBox="-0.025 -0.025 2.05 1.05" xmlns="http://www.w3.org/2000/svg">
  <style>
    path {
      fill: none;
      stroke-linecap: round;
      stroke-opacity: 0.4;
    }

    text {
      text-anchor: middle;
      alignment-baseline: hanging;
    }
  </style>
  <g opacity="0.4">
<path d="M0.904 0.701 Q1.596 0.592 1.534 0.231" stroke="hsl(0.0,100%,35%)" stroke-width="0.00220"></path>
<path d="M0.904 0.701 Q0.688 0.516 0.279 0.580" stroke="hsl(0.0,100%,35%)" stroke-width="0.00220"></path>
<path d="M0.904 0.701 Q1.569 0.429 1.183 0.045" stroke="hsl(0.0,100%,35%)" stroke-width="0.00220"></path>
<path d="M0.904 0.701 Q0.655 0.795 0.784 0.938" stroke="hsl(0.0,100%,35%)" stroke-width="0.00220"></path>
<path d="M1.534 0.231 Q0.593 0.434 0.784 0.938" stroke="hsl(0.0,100%,35%)" stroke-width="0.01102"></path>
<path d="M1.534 0.231 Q1.631 0.402 1.987 0.393" stroke="hsl(0.0,100%,35%)" stroke-width="0.07490"></path>
<path d="M1.534 0.231 Q1.236 0.292 1.291 0.451" stroke="hsl(0.0,100%,35%)" stroke-width="0.00441"></path>
<path d="M1.534 0.231 Q1.450 0.137 1.248 0.157" stroke="hsl(0.0,100%,35%)" stroke-width="0.00441"></path>
<path d="M1.534 0.231 Q1.507 0.068 1.183 0.045" stroke="hsl(0.0,100%,35%)" stroke-width="0.00881"></path>
<path d="M1.534 0.231 Q0.627 0.155 0.279 0.580" stroke="hsl(0.0,100%,35%)" stroke-width="0.01102"></path>
<path d="M1.534 0.231 Q1.549 0.298 1.684 0.305" stroke="hsl(0.0,100%,35%)" stroke-width="0.00661"></path>
<path d="M1.534 0.231 Q1.380 0.057 1.007 0.094" stroke="hsl(0.0,100%,35%)" stroke-width="0.00661"></path>
<path d="M1.534 0.231 Q0.733 0.060 0.224 0.413" stroke="hsl(0.0,100%,35%)" stroke-width="0.00220"></path>
<path d="M1.534 0.231 Q1.710 0.233 1.754 0.148" stroke="hsl(0.0,100%,35%)" stroke-width="0.00220"></path>
<path d="M1.534 0.231 Q0.843 0.340 0.904 0.701" stroke="hsl(0.0,100%,35%)" stroke-width="0.00441"></path>
<path d="M1.534 0.231 Q0.549 0.309 0.486 0.807" stroke="hsl(0.0,100%,35%)" stroke-width="0.00220"></path>
<path d="M1.534 0.231 Q1.151 0.402 1.400 0.626" stroke="hsl(0.0,100%,35%)" stroke-width="0.00220"></path>
<path d="M0.279 0.580 Q1.283 0.828 1.987 0.393" stroke="hsl(0.0,100%,35%)" stroke-width="0.01542"></path>
<path d="M0.279 0.580 Q1.186 0.657 1.534 0.231" stroke="hsl(0.0,100%,35%)" stroke-width="0.01102"></path>
<path d="M0.279 0.580 Q1.202 0.724 1.684 0.305" stroke="hsl(0.0,100%,35%)" stroke-width="0.00220"></path>
<path d="M0.279 0.580 Q1.032 0.483 1.007 0.094" stroke="hsl(0.0,100%,35%)" stroke-width="0.00220"></path>
<path d="M0.279 0.580 Q0.495 0.766 0.904 0.701" stroke="hsl(0.0,100%,35%)" stroke-width="0.00220"></path>
<path d="M0.279 0.580 Q0.385 0.486 0.224 0.413" stroke="hsl(0.0,100%,35%)" stroke-width="0.00881"></path>
<path d="M0.279 0.580 Q0.246 0.860 0.784 0.938" stroke="hsl(0.0,100%,35%)" stroke-width="0.00220"></path>
<path d="M1.183 0.045 Q0.269 0.412 0.784 0.938" stroke="hsl(0.0,100%,35%)" stroke-width="0.00661"></path>
<path d="M1.183 0.045 Q1.210 0.208 1.534 0.231" stroke="hsl(0.0,100%,35%)" stroke-width="0.00220"></path>
<path d="M1.183 0.045 Q0.672 0.347 1.149 0.663" stroke="hsl(0.0,100%,35%)" stroke-width="0.00220"></path>
<path d="M1.183 0.045 Q1.056 0.034 1.007 0.094" stroke="hsl(0.0,100%,35%)" stroke-width="0.00220"></path>
<path d="M1.183 0.045 Q0.409 0.037 0.224 0.413" stroke="hsl(0.0,100%,35%)" stroke-width="0.00220"></path>
<path d="M0.784 0.938 Q1.698 0.571 1.183 0.045" stroke="hsl(0.0,100%,35%)" stroke-width="0.00881"></path>
<path d="M0.784 0.938 Q0.817 0.658 0.279 0.580" stroke="hsl(0.0,100%,35%)" stroke-width="0.00220"></path>
<path d="M0.784 0.938 Q1.725 0.734 1.534 0.231" stroke="hsl(0.0,100%,35%)" stroke-width="0.00220"></path>
<path d="M1.987 0.393 Q1.890 0.221 1.534 0.231" stroke="hsl(0.0,100%,35%)" stroke-width="0.03084"></path>
<path d="M1.987 0.393 Q0.905 0.300 0.486 0.807" stroke="hsl(0.0,100%,35%)" stroke-width="0.00220"></path>
<path d="M1.987 0.393 Q0.983 0.145 0.279 0.580" stroke="hsl(0.0,100%,35%)" stroke-width="0.00220"></path>
<path d="M1.987 0.393 Q1.352 0.360 1.149 0.663" stroke="hsl(0.0,100%,35%)" stroke-width="0.00220"></path>
<path d="M0.486 0.807 Q0.327 0.765 0.210 0.833" stroke="hsl(0.0,100%,35%)" stroke-width="0.00220"></path>
<path d="M0.486 0.807 Q1.568 0.900 1.987 0.393" stroke="hsl(0.0,100%,35%)" stroke-width="0.01102"></path>
<path d="M0.486 0.807 Q1.046 0.790 1.136 0.513" stroke="hsl(0.0,100%,35%)" stroke-width="0.00441"></path>
<path d="M0.486 0.807 Q0.670 0.558 0.224 0.413" stroke="hsl(0.0,100%,35%)" stroke-width="0.00220"></path>
<path d="M1.149 0.663 Q1.095 0.757 1.268 0.804" stroke="hsl(0.0,100%,35%)" stroke-width="0.00661"></path>
<path d="M1.149 0.663 Q0.702 0.602 0.486 0.807" stroke="hsl(0.0,100%,35%)" stroke-width="0.01102"></path>
<path d="M1.149 0.663 Q0.746 0.727 0.784 0.938" stroke="hsl(0.0,100%,35%)" stroke-width="0.01102"></path>
<path d="M1.149 0.663 Q1.687 0.524 1.534 0.231" stroke="hsl(0.0,100%,35%)" stroke-width="0.00220"></path>
<path d="M1.149 0.663 Q1.784 0.695 1.987 0.393" stroke="hsl(0.0,100%,35%)" stroke-width="0.00661"></path>
<path d="M1.149 0.663 Q0.886 0.353 0.224 0.413" stroke="hsl(0.0,100%,35%)" stroke-width="0.00220"></path>
<path d="M1.149 0.663 Q1.262 0.585 1.136 0.513" stroke="hsl(0.0,100%,35%)" stroke-width="0.00220"></path>
<path d="M1.149 0.663 Q1.660 0.361 1.183 0.045" stroke="hsl(0.0,100%,35%)" stroke-width="0.00220"></path>
<path d="M1.149 0.663 Q1.533 0.350 1.007 0.094" stroke="hsl(0.0,100%,35%)" stroke-width="0.00220"></path>
<path d="M1.149 0.663 Q1.863 0.526 1.754 0.148" stroke="hsl(0.0,100%,35%)" stroke-width="0.00220"></path>
<path d="M0.210 0.833 Q0.369 0.875 0.486 0.807" stroke="hsl(0.0,100%,35%)" stroke-width="0.02203"></path>
<path d="M0.210 0.833 Q1.451 0.968 1.987 0.393" stroke="hsl(0.0,100%,35%)" stroke-width="0.00441"></path>
<path d="M0.210 0.833 Q0.414 1.000 0.784 0.938" stroke="hsl(0.0,100%,35%)" stroke-width="0.00220"></path>
<path d="M0.210 0.833 Q0.816 0.936 1.149 0.663" stroke="hsl(0.0,100%,35%)" stroke-width="0.00220"></path>
<path d="M0.210 0.833 Q0.929 0.859 1.136 0.513" stroke="hsl(0.0,100%,35%)" stroke-width="0.00220"></path>
<path d="M0.224 0.413 Q1.025 0.584 1.534 0.231" stroke="hsl(0.0,100%,35%)" stroke-width="0.00220"></path>
<path d="M0.224 0.413 Q0.118 0.508 0.279 0.580" stroke="hsl(0.0,100%,35%)" stroke-width="0.01762"></path>
<path d="M0.224 0.413 Q0.084 0.787 0.784 0.938" stroke="hsl(0.0,100%,35%)" stroke-width="0.00441"></path>
<path d="M0.224 0.413 Q1.122 0.755 1.987 0.393" stroke="hsl(0.0,100%,35%)" stroke-width="0.00661"></path>
<path d="M0.224 0.413 Q0.600 0.646 1.136 0.513" stroke="hsl(0.0,100%,35%)" stroke-width="0.00220"></path>
<path d="M0.224 0.413 Q0.040 0.662 0.486 0.807" stroke="hsl(0.0,100%,35%)" stroke-width="0.00220"></path>
<path d="M0.224 0.413 Q0.334 0.693 0.904 0.701" stroke="hsl(0.0,100%,35%)" stroke-width="0.00220"></path>
<path d="M1.400 0.626 Q0.798 0.534 0.486 0.807" stroke="hsl(0.0,100%,35%)" stroke-width="0.00441"></path>
<path d="M1.400 0.626 Q1.485 0.517 1.291 0.451" stroke="hsl(0.0,100%,35%)" stroke-width="0.00220"></path>
<path d="M1.400 0.626 Q1.245 0.594 1.149 0.663" stroke="hsl(0.0,100%,35%)" stroke-width="0.00220"></path>
<path d="M1.400 0.626 Q1.783 0.455 1.534 0.231" stroke="hsl(0.0,100%,35%)" stroke-width="0.00220"></path>
<path d="M1.400 0.626 Q1.650 0.649 1.751 0.533" stroke="hsl(0.0,100%,35%)" stroke-width="0.00220"></path>
<path d="M1.754 0.148 Q1.675 0.317 1.987 0.393" stroke="hsl(0.0,100%,35%)" stroke-width="0.01542"></path>
<path d="M1.754 0.148 Q0.777 -0.025 0.224 0.413" stroke="hsl(0.0,100%,35%)" stroke-width="0.00220"></path>
<path d="M1.754 0.148 Q1.578 0.145 1.534 0.231" stroke="hsl(0.0,100%,35%)" stroke-width="0.00881"></path>
<path d="M0.598 0.669 Q0.510 0.561 0.279 0.580" stroke="hsl(0.0,100%,35%)" stroke-width="0.00441"></path>
<path d="M0.598 0.669 Q1.263 0.463 1.007 0.094" stroke="hsl(0.0,100%,35%)" stroke-width="0.00220"></path>
<path d="M0.598 0.669 Q0.477 0.841 0.784 0.938" stroke="hsl(0.0,100%,35%)" stroke-width="0.00220"></path>
</g>
<text x="0.904" y="0.687" font-size="0.028074" fill="hsl(0.0,100%,20%)">armansito</text>
<text x="1.534" y="0.183" font-size="0.095721" fill="hsl(0.0,100%,20%)">johnstiles</text>
<text x="0.279" y="0.550" font-size="0.061187" fill="hsl(0.0,100%,20%)">michaelludwig</text>
<text x="1.183" y="0.025" font-size="0.040925" fill="hsl(0.0,100%,20%)">nicolettep</text>
<text x="0.784" y="0.913" font-size="0.049629" fill="hsl(0.0,100%,20%)">egdaniel</text>
<text x="1.987" y="0.349" font-size="0.087663" fill="hsl(0.0,100%,20%)">brianosman</text>
<text x="0.486" y="0.780" font-size="0.053452" fill="hsl(0.0,100%,20%)">bungeman</text>
<text x="1.149" y="0.637" font-size="0.050612" fill="hsl(0.0,100%,20%)">kjlubick</text>
<text x="0.210" y="0.814" font-size="0.039703" fill="hsl(0.0,100%,20%)">drott</text>
<text x="1.136" y="0.502" font-size="0.022195" fill="hsl(0.0,100%,20%)">jlavrova</text>
<text x="0.224" y="0.388" font-size="0.050612" fill="hsl(0.0,100%,20%)">jvanverth</text>
<text x="1.400" y="0.613" font-size="0.026261" fill="hsl(0.0,100%,20%)">fmalita</text>
<text x="1.291" y="0.442" font-size="0.017192" fill="hsl(0.0,100%,20%)">jmbetancourt</text>
<text x="1.751" y="0.528" font-size="0.009926" fill="hsl(0.0,100%,20%)">sharaks</text>
<text x="1.754" y="0.130" font-size="0.037139" fill="hsl(0.0,100%,20%)">herb</text>
<text x="1.248" y="0.150" font-size="0.014037" fill="hsl(0.0,100%,20%)">nscobie</text>
<text x="1.684" y="0.295" font-size="0.019852" fill="hsl(0.0,100%,20%)">jamesgk</text>
<text x="1.007" y="0.081" font-size="0.026261" fill="hsl(0.0,100%,20%)">robertphillips</text>
<text x="1.268" y="0.796" font-size="0.017192" fill="hsl(0.0,100%,20%)">lovisolo</text>
<text x="0.598" y="0.660" font-size="0.019852" fill="hsl(0.0,100%,20%)">penghuang</text>
</svg>
