<svg width="4000" height="2000" viewBox="-0.025 -0.025 2.05 1.05" xmlns="http://www.w3.org/2000/svg">
  <style>
    path {
      fill: none;
      stroke-linecap: round;
      stroke-opacity: 0.4;
    }

    text {
      text-anchor: middle;
      alignment-baseline: hanging;
    }
  </style>
  <g opacity="0.4">
<path d="M0.833 0.681 Q1.132 0.607 1.053 0.445" stroke="hsl(0.0,100%,35%)" stroke-width="0.00081"></path>
<path d="M0.833 0.681 Q0.669 0.647 0.567 0.720" stroke="hsl(0.0,100%,35%)" stroke-width="0.00564"></path>
<path d="M0.833 0.681 Q1.449 0.579 1.386 0.256" stroke="hsl(0.0,100%,35%)" stroke-width="0.00032"></path>
<path d="M0.833 0.681 Q0.631 0.439 0.115 0.485" stroke="hsl(0.0,100%,35%)" stroke-width="0.00064"></path>
<path d="M0.833 0.681 Q0.672 0.479 0.243 0.514" stroke="hsl(0.0,100%,35%)" stroke-width="0.00016"></path>
<path d="M0.833 0.681 Q1.591 0.654 1.703 0.278" stroke="hsl(0.0,100%,35%)" stroke-width="0.00016"></path>
<path d="M0.833 0.681 Q0.426 0.567 0.115 0.741" stroke="hsl(0.0,100%,35%)" stroke-width="0.00016"></path>
<path d="M1.053 0.445 Q0.338 0.548 0.384 0.920" stroke="hsl(0.0,100%,35%)" stroke-width="0.00709"></path>
<path d="M1.053 0.445 Q0.470 0.361 0.179 0.626" stroke="hsl(0.0,100%,35%)" stroke-width="0.00580"></path>
<path d="M1.053 0.445 Q0.590 0.485 0.567 0.720" stroke="hsl(0.0,100%,35%)" stroke-width="0.00612"></path>
<path d="M1.053 0.445 Q0.348 0.405 0.115 0.741" stroke="hsl(0.0,100%,35%)" stroke-width="0.00290"></path>
<path d="M1.053 0.445 Q1.193 0.570 1.469 0.530" stroke="hsl(0.0,100%,35%)" stroke-width="0.00516"></path>
<path d="M1.053 0.445 Q0.453 0.659 0.739 0.999" stroke="hsl(0.0,100%,35%)" stroke-width="0.00048"></path>
<path d="M1.053 0.445 Q1.333 0.675 1.843 0.589" stroke="hsl(0.0,100%,35%)" stroke-width="0.00097"></path>
<path d="M1.053 0.445 Q0.831 0.148 0.204 0.191" stroke="hsl(0.0,100%,35%)" stroke-width="0.00016"></path>
<path d="M1.053 0.445 Q0.905 0.524 1.026 0.613" stroke="hsl(0.0,100%,35%)" stroke-width="0.00032"></path>
<path d="M1.053 0.445 Q0.643 0.636 0.926 0.879" stroke="hsl(0.0,100%,35%)" stroke-width="0.00032"></path>
<path d="M1.053 0.445 Q1.370 0.417 1.386 0.256" stroke="hsl(0.0,100%,35%)" stroke-width="0.00129"></path>
<path d="M1.053 0.445 Q1.407 0.567 1.722 0.421" stroke="hsl(0.0,100%,35%)" stroke-width="0.00048"></path>
<path d="M1.053 0.445 Q1.566 0.329 1.452 0.053" stroke="hsl(0.0,100%,35%)" stroke-width="0.00016"></path>
<path d="M1.053 0.445 Q0.754 0.519 0.833 0.681" stroke="hsl(0.0,100%,35%)" stroke-width="0.00048"></path>
<path d="M1.053 0.445 Q0.974 0.362 0.794 0.382" stroke="hsl(0.0,100%,35%)" stroke-width="0.00016"></path>
<path d="M1.053 0.445 Q1.027 0.264 0.669 0.237" stroke="hsl(0.0,100%,35%)" stroke-width="0.00032"></path>
<path d="M1.053 0.445 Q1.512 0.491 1.703 0.278" stroke="hsl(0.0,100%,35%)" stroke-width="0.00032"></path>
<path d="M1.053 0.445 Q0.593 0.317 0.243 0.514" stroke="hsl(0.0,100%,35%)" stroke-width="0.00016"></path>
<path d="M0.567 0.720 Q0.325 0.640 0.115 0.741" stroke="hsl(0.0,100%,35%)" stroke-width="0.00516"></path>
<path d="M0.567 0.720 Q0.315 0.783 0.384 0.920" stroke="hsl(0.0,100%,35%)" stroke-width="0.02127"></path>
<path d="M0.567 0.720 Q0.448 0.595 0.179 0.626" stroke="hsl(0.0,100%,35%)" stroke-width="0.00467"></path>
<path d="M0.567 0.720 Q1.170 0.805 1.469 0.530" stroke="hsl(0.0,100%,35%)" stroke-width="0.00161"></path>
<path d="M0.567 0.720 Q0.570 0.552 0.243 0.514" stroke="hsl(0.0,100%,35%)" stroke-width="0.00097"></path>
<path d="M0.567 0.720 Q1.347 0.652 1.386 0.256" stroke="hsl(0.0,100%,35%)" stroke-width="0.00097"></path>
<path d="M0.567 0.720 Q1.030 0.679 1.053 0.445" stroke="hsl(0.0,100%,35%)" stroke-width="0.00306"></path>
<path d="M0.567 0.720 Q1.080 0.401 0.569 0.081" stroke="hsl(0.0,100%,35%)" stroke-width="0.00032"></path>
<path d="M0.567 0.720 Q1.310 0.909 1.843 0.589" stroke="hsl(0.0,100%,35%)" stroke-width="0.00016"></path>
<path d="M0.567 0.720 Q0.523 0.810 0.690 0.852" stroke="hsl(0.0,100%,35%)" stroke-width="0.00064"></path>
<path d="M0.567 0.720 Q1.489 0.850 1.946 0.430" stroke="hsl(0.0,100%,35%)" stroke-width="0.00016"></path>
<path d="M0.567 0.720 Q0.430 0.894 0.739 0.999" stroke="hsl(0.0,100%,35%)" stroke-width="0.00032"></path>
<path d="M0.567 0.720 Q1.543 0.563 1.452 0.053" stroke="hsl(0.0,100%,35%)" stroke-width="0.00016"></path>
<path d="M0.567 0.720 Q0.731 0.754 0.833 0.681" stroke="hsl(0.0,100%,35%)" stroke-width="0.00032"></path>
<path d="M1.386 0.256 Q0.354 0.388 0.384 0.920" stroke="hsl(0.0,100%,35%)" stroke-width="0.00967"></path>
<path d="M1.386 0.256 Q0.486 0.200 0.179 0.626" stroke="hsl(0.0,100%,35%)" stroke-width="0.00709"></path>
<path d="M1.386 0.256 Q0.363 0.244 0.115 0.741" stroke="hsl(0.0,100%,35%)" stroke-width="0.00242"></path>
<path d="M1.386 0.256 Q0.467 0.440 0.623 0.928" stroke="hsl(0.0,100%,35%)" stroke-width="0.00016"></path>
<path d="M1.386 0.256 Q0.606 0.324 0.567 0.720" stroke="hsl(0.0,100%,35%)" stroke-width="0.00532"></path>
<path d="M1.386 0.256 Q1.209 0.409 1.469 0.530" stroke="hsl(0.0,100%,35%)" stroke-width="0.00274"></path>
<path d="M1.386 0.256 Q0.658 0.475 0.926 0.879" stroke="hsl(0.0,100%,35%)" stroke-width="0.00064"></path>
<path d="M1.386 0.256 Q1.069 0.284 1.053 0.445" stroke="hsl(0.0,100%,35%)" stroke-width="0.01224"></path>
<path d="M1.386 0.256 Q1.349 0.514 1.843 0.589" stroke="hsl(0.0,100%,35%)" stroke-width="0.00113"></path>
<path d="M1.386 0.256 Q0.469 0.498 0.739 0.999" stroke="hsl(0.0,100%,35%)" stroke-width="0.00016"></path>
<path d="M1.386 0.256 Q1.236 0.244 1.178 0.315" stroke="hsl(0.0,100%,35%)" stroke-width="0.00032"></path>
<path d="M1.386 0.256 Q0.701 0.067 0.181 0.359" stroke="hsl(0.0,100%,35%)" stroke-width="0.00016"></path>
<path d="M1.386 0.256 Q1.118 0.005 0.569 0.081" stroke="hsl(0.0,100%,35%)" stroke-width="0.00097"></path>
<path d="M1.386 0.256 Q0.770 0.358 0.833 0.681" stroke="hsl(0.0,100%,35%)" stroke-width="0.00145"></path>
<path d="M1.386 0.256 Q1.581 0.168 1.452 0.053" stroke="hsl(0.0,100%,35%)" stroke-width="0.00048"></path>
<path d="M1.386 0.256 Q0.424 0.446 0.584 0.957" stroke="hsl(0.0,100%,35%)" stroke-width="0.00129"></path>
<path d="M1.386 0.256 Q0.933 0.247 0.816 0.466" stroke="hsl(0.0,100%,35%)" stroke-width="0.00016"></path>
<path d="M1.386 0.256 Q1.527 0.331 1.703 0.278" stroke="hsl(0.0,100%,35%)" stroke-width="0.00016"></path>
<path d="M1.386 0.256 Q0.609 0.156 0.243 0.514" stroke="hsl(0.0,100%,35%)" stroke-width="0.00016"></path>
<path d="M0.115 0.485 Q-0.099 0.756 0.384 0.920" stroke="hsl(120.0,100%,35%)" stroke-width="0.00016"></path>
<path d="M0.115 0.485 Q0.248 0.435 0.181 0.359" stroke="hsl(120.0,100%,35%)" stroke-width="0.00193"></path>
<path d="M0.115 0.485 Q0.665 0.373 0.569 0.081" stroke="hsl(120.0,100%,35%)" stroke-width="0.00048"></path>
<path d="M0.115 0.485 Q0.570 0.414 0.533 0.176" stroke="hsl(120.0,100%,35%)" stroke-width="0.00016"></path>
<path d="M0.115 0.485 Q0.756 0.778 1.469 0.530" stroke="hsl(120.0,100%,35%)" stroke-width="0.00016"></path>
<path d="M0.115 0.485 Q0.153 0.693 0.567 0.720" stroke="hsl(120.0,100%,35%)" stroke-width="0.00097"></path>
<path d="M0.115 0.485 Q0.156 0.525 0.243 0.514" stroke="hsl(120.0,100%,35%)" stroke-width="0.00338"></path>
<path d="M0.115 0.485 Q0.394 0.356 0.204 0.191" stroke="hsl(120.0,100%,35%)" stroke-width="0.00016"></path>
<path d="M0.115 0.485 Q0.016 0.867 0.739 0.999" stroke="hsl(120.0,100%,35%)" stroke-width="0.00016"></path>
<path d="M0.115 0.485 Q0.933 0.625 1.386 0.256" stroke="hsl(120.0,100%,35%)" stroke-width="0.00048"></path>
<path d="M0.243 0.514 Q0.202 0.473 0.115 0.485" stroke="hsl(120.0,100%,35%)" stroke-width="0.00354"></path>
<path d="M0.243 0.514 Q0.336 0.424 0.181 0.359" stroke="hsl(120.0,100%,35%)" stroke-width="0.00048"></path>
<path d="M0.243 0.514 Q0.983 0.871 1.843 0.589" stroke="hsl(120.0,100%,35%)" stroke-width="0.00032"></path>
<path d="M0.243 0.514 Q0.308 0.923 1.121 0.981" stroke="hsl(120.0,100%,35%)" stroke-width="0.00032"></path>
<path d="M0.243 0.514 Q-0.012 0.745 0.384 0.920" stroke="hsl(120.0,100%,35%)" stroke-width="0.00016"></path>
<path d="M0.243 0.514 Q0.568 0.604 0.816 0.466" stroke="hsl(120.0,100%,35%)" stroke-width="0.00016"></path>
<path d="M0.243 0.514 Q1.057 0.763 1.722 0.421" stroke="hsl(120.0,100%,35%)" stroke-width="0.00016"></path>
<path d="M0.243 0.514 Q0.703 0.641 1.053 0.445" stroke="hsl(120.0,100%,35%)" stroke-width="0.00016"></path>
<path d="M0.243 0.514 Q0.120 0.557 0.179 0.626" stroke="hsl(120.0,100%,35%)" stroke-width="0.00016"></path>
<path d="M0.243 0.514 Q0.753 0.362 0.569 0.081" stroke="hsl(120.0,100%,35%)" stroke-width="0.00032"></path>
<path d="M1.703 0.278 Q1.385 0.357 1.469 0.530" stroke="hsl(240.0,100%,35%)" stroke-width="0.00032"></path>
<path d="M1.703 0.278 Q1.757 0.115 1.452 0.053" stroke="hsl(240.0,100%,35%)" stroke-width="0.00016"></path>
<path d="M1.703 0.278 Q1.245 0.231 1.053 0.445" stroke="hsl(240.0,100%,35%)" stroke-width="0.00016"></path>
<path d="M1.703 0.278 Q1.562 0.204 1.386 0.256" stroke="hsl(240.0,100%,35%)" stroke-width="0.00016"></path>
<path d="M1.703 0.278 Q0.785 0.104 0.243 0.514" stroke="hsl(240.0,100%,35%)" stroke-width="0.00016"></path>
<path d="M0.115 0.741 Q0.358 0.821 0.567 0.720" stroke="hsl(0.0,100%,35%)" stroke-width="0.00483"></path>
<path d="M0.115 0.741 Q0.238 0.696 0.179 0.626" stroke="hsl(0.0,100%,35%)" stroke-width="0.01482"></path>
<path d="M0.115 0.741 Q0.106 0.884 0.384 0.920" stroke="hsl(0.0,100%,35%)" stroke-width="0.00483"></path>
<path d="M0.115 0.741 Q0.821 0.780 1.053 0.445" stroke="hsl(0.0,100%,35%)" stroke-width="0.00258"></path>
<path d="M0.115 0.741 Q0.425 1.062 1.121 0.981" stroke="hsl(0.0,100%,35%)" stroke-width="0.00048"></path>
<path d="M0.115 0.741 Q1.101 1.010 1.843 0.589" stroke="hsl(0.0,100%,35%)" stroke-width="0.00177"></path>
<path d="M0.115 0.741 Q0.870 0.501 0.569 0.081" stroke="hsl(0.0,100%,35%)" stroke-width="0.00048"></path>
<path d="M0.115 0.741 Q0.961 0.906 1.469 0.530" stroke="hsl(0.0,100%,35%)" stroke-width="0.00226"></path>
<path d="M0.115 0.741 Q1.138 0.753 1.386 0.256" stroke="hsl(0.0,100%,35%)" stroke-width="0.00048"></path>
<path d="M0.115 0.741 Q1.175 0.902 1.722 0.421" stroke="hsl(0.0,100%,35%)" stroke-width="0.00016"></path>
<path d="M0.115 0.741 Q0.221 0.995 0.739 0.999" stroke="hsl(0.0,100%,35%)" stroke-width="0.00016"></path>
<path d="M0.115 0.741 Q0.522 0.854 0.833 0.681" stroke="hsl(0.0,100%,35%)" stroke-width="0.00016"></path>
<path d="M0.115 0.741 Q0.361 0.653 0.243 0.514" stroke="hsl(0.0,100%,35%)" stroke-width="0.00016"></path>
<path d="M0.115 0.741 Q1.333 0.664 1.452 0.053" stroke="hsl(0.0,100%,35%)" stroke-width="0.00016"></path>
<path d="M1.604 0.658 Q1.779 0.671 1.843 0.589" stroke="hsl(240.0,100%,35%)" stroke-width="0.00048"></path>
<path d="M1.604 0.658 Q1.639 0.567 1.469 0.530" stroke="hsl(240.0,100%,35%)" stroke-width="0.00016"></path>
<path d="M1.604 0.658 Q1.039 0.314 0.243 0.514" stroke="hsl(240.0,100%,35%)" stroke-width="0.00016"></path>
<path d="M1.843 0.589 Q2.021 0.437 1.764 0.317" stroke="hsl(240.0,100%,35%)" stroke-width="0.00338"></path>
<path d="M1.843 0.589 Q1.917 0.481 1.722 0.421" stroke="hsl(240.0,100%,35%)" stroke-width="0.03464"></path>
<path d="M1.843 0.589 Q1.428 0.322 0.816 0.466" stroke="hsl(240.0,100%,35%)" stroke-width="0.00226"></path>
<path d="M1.843 0.589 Q1.612 0.080 0.569 0.081" stroke="hsl(240.0,100%,35%)" stroke-width="0.00242"></path>
<path d="M1.843 0.589 Q0.848 0.462 0.384 0.920" stroke="hsl(240.0,100%,35%)" stroke-width="0.00242"></path>
<path d="M1.843 0.589 Q1.703 0.484 1.469 0.530" stroke="hsl(240.0,100%,35%)" stroke-width="0.09602"></path>
<path d="M1.843 0.589 Q0.963 0.573 0.739 0.999" stroke="hsl(240.0,100%,35%)" stroke-width="0.00354"></path>
<path d="M1.843 0.589 Q1.415 0.438 1.026 0.613" stroke="hsl(240.0,100%,35%)" stroke-width="0.00097"></path>
<path d="M1.843 0.589 Q0.857 0.319 0.115 0.741" stroke="hsl(240.0,100%,35%)" stroke-width="0.00193"></path>
<path d="M1.843 0.589 Q0.980 0.275 0.179 0.626" stroke="hsl(240.0,100%,35%)" stroke-width="0.00258"></path>
<path d="M1.843 0.589 Q1.153 0.550 0.926 0.879" stroke="hsl(240.0,100%,35%)" stroke-width="0.00161"></path>
<path d="M1.843 0.589 Q1.880 0.331 1.386 0.256" stroke="hsl(240.0,100%,35%)" stroke-width="0.00048"></path>
<path d="M1.843 0.589 Q1.100 0.399 0.567 0.720" stroke="hsl(240.0,100%,35%)" stroke-width="0.00193"></path>
<path d="M1.843 0.589 Q1.341 0.062 0.204 0.191" stroke="hsl(240.0,100%,35%)" stroke-width="0.00016"></path>
<path d="M1.843 0.589 Q1.167 0.641 1.121 0.981" stroke="hsl(240.0,100%,35%)" stroke-width="0.00032"></path>
<path d="M1.843 0.589 Q1.196 0.142 0.181 0.359" stroke="hsl(240.0,100%,35%)" stroke-width="0.00081"></path>
<path d="M1.843 0.589 Q1.056 0.489 0.690 0.852" stroke="hsl(240.0,100%,35%)" stroke-width="0.00048"></path>
<path d="M1.843 0.589 Q0.961 0.514 0.623 0.928" stroke="hsl(240.0,100%,35%)" stroke-width="0.00032"></path>
<path d="M1.843 0.589 Q2.022 0.530 1.946 0.430" stroke="hsl(240.0,100%,35%)" stroke-width="0.00113"></path>
<path d="M1.843 0.589 Q1.563 0.359 1.053 0.445" stroke="hsl(240.0,100%,35%)" stroke-width="0.00435"></path>
<path d="M1.843 0.589 Q1.062 0.191 0.115 0.485" stroke="hsl(240.0,100%,35%)" stroke-width="0.00048"></path>
<path d="M1.843 0.589 Q2.076 0.243 1.452 0.053" stroke="hsl(240.0,100%,35%)" stroke-width="0.00209"></path>
<path d="M1.843 0.589 Q0.918 0.521 0.584 0.957" stroke="hsl(240.0,100%,35%)" stroke-width="0.00016"></path>
<path d="M1.843 0.589 Q2.022 0.405 1.703 0.278" stroke="hsl(240.0,100%,35%)" stroke-width="0.00032"></path>
<path d="M1.469 0.530 Q0.918 0.596 0.926 0.879" stroke="hsl(240.0,100%,35%)" stroke-width="0.00242"></path>
<path d="M1.469 0.530 Q0.866 0.444 0.567 0.720" stroke="hsl(240.0,100%,35%)" stroke-width="0.00129"></path>
<path d="M1.469 0.530 Q1.329 0.404 1.053 0.445" stroke="hsl(240.0,100%,35%)" stroke-width="0.00950"></path>
<path d="M1.469 0.530 Q1.609 0.634 1.843 0.589" stroke="hsl(240.0,100%,35%)" stroke-width="0.01804"></path>
<path d="M1.469 0.530 Q1.378 0.125 0.569 0.081" stroke="hsl(240.0,100%,35%)" stroke-width="0.00290"></path>
<path d="M1.469 0.530 Q0.614 0.508 0.384 0.920" stroke="hsl(240.0,100%,35%)" stroke-width="0.00757"></path>
<path d="M1.469 0.530 Q1.303 0.223 0.669 0.237" stroke="hsl(240.0,100%,35%)" stroke-width="0.00016"></path>
<path d="M1.469 0.530 Q0.623 0.365 0.115 0.741" stroke="hsl(240.0,100%,35%)" stroke-width="0.00064"></path>
<path d="M1.469 0.530 Q0.746 0.320 0.179 0.626" stroke="hsl(240.0,100%,35%)" stroke-width="0.00161"></path>
<path d="M1.469 0.530 Q0.729 0.618 0.739 0.999" stroke="hsl(240.0,100%,35%)" stroke-width="0.00032"></path>
<path d="M1.469 0.530 Q0.961 0.187 0.181 0.359" stroke="hsl(240.0,100%,35%)" stroke-width="0.00081"></path>
<path d="M1.469 0.530 Q1.107 0.107 0.204 0.191" stroke="hsl(240.0,100%,35%)" stroke-width="0.00032"></path>
<path d="M1.469 0.530 Q1.181 0.483 1.026 0.613" stroke="hsl(240.0,100%,35%)" stroke-width="0.00113"></path>
<path d="M1.469 0.530 Q1.193 0.367 0.816 0.466" stroke="hsl(240.0,100%,35%)" stroke-width="0.00032"></path>
<path d="M1.469 0.530 Q1.683 0.526 1.722 0.421" stroke="hsl(240.0,100%,35%)" stroke-width="0.00258"></path>
<path d="M1.469 0.530 Q1.787 0.575 1.946 0.430" stroke="hsl(240.0,100%,35%)" stroke-width="0.00016"></path>
<path d="M1.469 0.530 Q0.828 0.236 0.115 0.485" stroke="hsl(240.0,100%,35%)" stroke-width="0.00032"></path>
<path d="M1.469 0.530 Q1.646 0.376 1.386 0.256" stroke="hsl(240.0,100%,35%)" stroke-width="0.00064"></path>
<path d="M1.469 0.530 Q0.869 0.276 0.243 0.514" stroke="hsl(240.0,100%,35%)" stroke-width="0.00097"></path>
<path d="M1.469 0.530 Q1.841 0.288 1.452 0.053" stroke="hsl(240.0,100%,35%)" stroke-width="0.00226"></path>
<path d="M1.469 0.530 Q0.822 0.535 0.690 0.852" stroke="hsl(240.0,100%,35%)" stroke-width="0.00064"></path>
<path d="M1.469 0.530 Q0.727 0.560 0.623 0.928" stroke="hsl(240.0,100%,35%)" stroke-width="0.00032"></path>
<path d="M1.469 0.530 Q1.787 0.451 1.703 0.278" stroke="hsl(240.0,100%,35%)" stroke-width="0.00145"></path>
<path d="M0.181 0.359 Q0.089 0.449 0.243 0.514" stroke="hsl(120.0,100%,35%)" stroke-width="0.00242"></path>
<path d="M0.181 0.359 Q0.048 0.409 0.115 0.485" stroke="hsl(120.0,100%,35%)" stroke-width="0.00097"></path>
<path d="M0.181 0.359 Q-0.034 0.492 0.179 0.626" stroke="hsl(120.0,100%,35%)" stroke-width="0.00032"></path>
<path d="M0.181 0.359 Q0.153 0.858 1.121 0.981" stroke="hsl(120.0,100%,35%)" stroke-width="0.00016"></path>
<path d="M0.181 0.359 Q-0.051 0.791 0.739 0.999" stroke="hsl(120.0,100%,35%)" stroke-width="0.00064"></path>
<path d="M0.181 0.359 Q0.689 0.702 1.469 0.530" stroke="hsl(120.0,100%,35%)" stroke-width="0.00016"></path>
<path d="M0.181 0.359 Q0.829 0.806 1.843 0.589" stroke="hsl(120.0,100%,35%)" stroke-width="0.00016"></path>
<path d="M0.181 0.359 Q0.549 0.576 1.053 0.445" stroke="hsl(120.0,100%,35%)" stroke-width="0.00016"></path>
<path d="M0.181 0.359 Q1.008 0.623 1.703 0.278" stroke="hsl(120.0,100%,35%)" stroke-width="0.00016"></path>
<path d="M0.181 0.359 Q0.250 0.650 0.833 0.681" stroke="hsl(120.0,100%,35%)" stroke-width="0.00016"></path>
<path d="M0.181 0.359 Q0.866 0.549 1.386 0.256" stroke="hsl(120.0,100%,35%)" stroke-width="0.00016"></path>
<path d="M0.181 0.359 Q0.327 0.280 0.204 0.191" stroke="hsl(120.0,100%,35%)" stroke-width="0.00048"></path>
<path d="M1.121 0.981 Q0.811 0.660 0.115 0.741" stroke="hsl(120.0,100%,35%)" stroke-width="0.00032"></path>
<path d="M1.121 0.981 Q0.916 0.914 0.739 0.999" stroke="hsl(120.0,100%,35%)" stroke-width="0.00097"></path>
<path d="M1.121 0.981 Q1.471 0.461 0.533 0.176" stroke="hsl(120.0,100%,35%)" stroke-width="0.00032"></path>
<path d="M1.121 0.981 Q1.149 0.483 0.181 0.359" stroke="hsl(120.0,100%,35%)" stroke-width="0.00032"></path>
<path d="M1.121 0.981 Q1.015 0.532 0.115 0.485" stroke="hsl(120.0,100%,35%)" stroke-width="0.00016"></path>
<path d="M1.121 0.981 Q1.056 0.572 0.243 0.514" stroke="hsl(120.0,100%,35%)" stroke-width="0.00016"></path>
<path d="M0.384 0.920 Q0.393 0.777 0.115 0.741" stroke="hsl(0.0,100%,35%)" stroke-width="0.00499"></path>
<path d="M0.384 0.920 Q0.636 0.857 0.567 0.720" stroke="hsl(0.0,100%,35%)" stroke-width="0.01128"></path>
<path d="M0.384 0.920 Q0.498 1.031 0.739 0.999" stroke="hsl(0.0,100%,35%)" stroke-width="0.00032"></path>
<path d="M0.384 0.920 Q0.516 0.732 0.179 0.626" stroke="hsl(0.0,100%,35%)" stroke-width="0.00419"></path>
<path d="M0.384 0.920 Q1.378 1.046 1.843 0.589" stroke="hsl(0.0,100%,35%)" stroke-width="0.00048"></path>
<path d="M0.384 0.920 Q1.416 0.789 1.386 0.256" stroke="hsl(0.0,100%,35%)" stroke-width="0.00371"></path>
<path d="M0.384 0.920 Q1.238 0.942 1.469 0.530" stroke="hsl(0.0,100%,35%)" stroke-width="0.00258"></path>
<path d="M0.384 0.920 Q1.099 0.816 1.053 0.445" stroke="hsl(0.0,100%,35%)" stroke-width="0.00258"></path>
<path d="M0.384 0.920 Q1.148 0.537 0.569 0.081" stroke="hsl(0.0,100%,35%)" stroke-width="0.00016"></path>
<path d="M0.384 0.920 Q0.688 1.008 0.926 0.879" stroke="hsl(0.0,100%,35%)" stroke-width="0.00048"></path>
<path d="M0.384 0.920 Q1.611 0.700 1.452 0.053" stroke="hsl(0.0,100%,35%)" stroke-width="0.00209"></path>
<path d="M0.384 0.920 Q0.591 0.947 0.690 0.852" stroke="hsl(0.0,100%,35%)" stroke-width="0.00064"></path>
<path d="M0.384 0.920 Q0.950 0.895 1.026 0.613" stroke="hsl(0.0,100%,35%)" stroke-width="0.00032"></path>
<path d="M0.816 0.466 Q0.803 0.582 1.026 0.613" stroke="hsl(120.0,100%,35%)" stroke-width="0.00177"></path>
<path d="M0.816 0.466 Q1.231 0.733 1.843 0.589" stroke="hsl(120.0,100%,35%)" stroke-width="0.00016"></path>
<path d="M0.816 0.466 Q0.951 0.503 1.053 0.445" stroke="hsl(120.0,100%,35%)" stroke-width="0.00016"></path>
<path d="M0.816 0.466 Q0.450 0.335 0.115 0.485" stroke="hsl(120.0,100%,35%)" stroke-width="0.00048"></path>
<path d="M0.816 0.466 Q0.369 0.419 0.179 0.626" stroke="hsl(120.0,100%,35%)" stroke-width="0.00081"></path>
<path d="M0.816 0.466 Q0.729 0.206 0.204 0.191" stroke="hsl(120.0,100%,35%)" stroke-width="0.00016"></path>
<path d="M0.816 0.466 Q1.091 0.628 1.469 0.530" stroke="hsl(120.0,100%,35%)" stroke-width="0.00016"></path>
<path d="M0.816 0.466 Q1.001 0.224 0.569 0.081" stroke="hsl(120.0,100%,35%)" stroke-width="0.00064"></path>
<path d="M0.816 0.466 Q0.491 0.375 0.243 0.514" stroke="hsl(120.0,100%,35%)" stroke-width="0.00016"></path>
<path d="M0.816 0.466 Q0.724 0.393 0.562 0.422" stroke="hsl(120.0,100%,35%)" stroke-width="0.00016"></path>
<path d="M1.722 0.421 Q1.649 0.529 1.843 0.589" stroke="hsl(240.0,100%,35%)" stroke-width="0.02964"></path>
<path d="M1.722 0.421 Q1.369 0.299 1.053 0.445" stroke="hsl(240.0,100%,35%)" stroke-width="0.00048"></path>
<path d="M1.722 0.421 Q1.509 0.425 1.469 0.530" stroke="hsl(240.0,100%,35%)" stroke-width="0.00967"></path>
<path d="M0.179 0.626 Q0.056 0.671 0.115 0.741" stroke="hsl(0.0,100%,35%)" stroke-width="0.00934"></path>
<path d="M0.179 0.626 Q0.046 0.814 0.384 0.920" stroke="hsl(0.0,100%,35%)" stroke-width="0.00371"></path>
<path d="M0.179 0.626 Q0.761 0.710 1.053 0.445" stroke="hsl(0.0,100%,35%)" stroke-width="0.00467"></path>
<path d="M0.179 0.626 Q0.298 0.751 0.567 0.720" stroke="hsl(0.0,100%,35%)" stroke-width="0.00532"></path>
<path d="M0.179 0.626 Q1.079 0.683 1.386 0.256" stroke="hsl(0.0,100%,35%)" stroke-width="0.00209"></path>
<path d="M0.179 0.626 Q0.901 0.836 1.469 0.530" stroke="hsl(0.0,100%,35%)" stroke-width="0.00016"></path>
<path d="M0.179 0.626 Q0.161 0.925 0.739 0.999" stroke="hsl(0.0,100%,35%)" stroke-width="0.00032"></path>
<path d="M0.179 0.626 Q0.811 0.432 0.569 0.081" stroke="hsl(0.0,100%,35%)" stroke-width="0.00016"></path>
<path d="M0.179 0.626 Q1.115 0.832 1.722 0.421" stroke="hsl(0.0,100%,35%)" stroke-width="0.00016"></path>
<path d="M0.179 0.626 Q0.301 0.583 0.243 0.514" stroke="hsl(0.0,100%,35%)" stroke-width="0.00016"></path>
<path d="M0.179 0.626 Q0.613 0.789 1.026 0.613" stroke="hsl(0.0,100%,35%)" stroke-width="0.00016"></path>
<path d="M0.179 0.626 Q1.274 0.595 1.452 0.053" stroke="hsl(0.0,100%,35%)" stroke-width="0.00016"></path>
<path d="M0.179 0.626 Q0.626 0.674 0.816 0.466" stroke="hsl(0.0,100%,35%)" stroke-width="0.00016"></path>
<path d="M0.569 0.081 Q0.109 0.551 0.926 0.879" stroke="hsl(120.0,100%,35%)" stroke-width="0.00113"></path>
<path d="M0.569 0.081 Q0.520 0.359 1.053 0.445" stroke="hsl(120.0,100%,35%)" stroke-width="0.00226"></path>
<path d="M0.569 0.081 Q0.060 0.232 0.243 0.514" stroke="hsl(120.0,100%,35%)" stroke-width="0.00322"></path>
<path d="M0.569 0.081 Q-0.080 0.574 0.739 0.999" stroke="hsl(120.0,100%,35%)" stroke-width="0.00644"></path>
<path d="M0.569 0.081 Q-0.063 0.275 0.179 0.626" stroke="hsl(120.0,100%,35%)" stroke-width="0.00145"></path>
<path d="M0.569 0.081 Q0.152 0.142 0.181 0.359" stroke="hsl(120.0,100%,35%)" stroke-width="0.00290"></path>
<path d="M0.569 0.081 Q0.800 0.589 1.843 0.589" stroke="hsl(120.0,100%,35%)" stroke-width="0.00193"></path>
<path d="M0.569 0.081 Q0.057 0.400 0.567 0.720" stroke="hsl(120.0,100%,35%)" stroke-width="0.00161"></path>
<path d="M0.569 0.081 Q0.474 0.121 0.533 0.176" stroke="hsl(120.0,100%,35%)" stroke-width="0.00499"></path>
<path d="M0.569 0.081 Q0.660 0.485 1.469 0.530" stroke="hsl(120.0,100%,35%)" stroke-width="0.00580"></path>
<path d="M0.569 0.081 Q0.384 0.322 0.816 0.466" stroke="hsl(120.0,100%,35%)" stroke-width="0.00097"></path>
<path d="M0.569 0.081 Q0.013 0.490 0.690 0.852" stroke="hsl(120.0,100%,35%)" stroke-width="0.00081"></path>
<path d="M0.569 0.081 Q0.494 0.179 0.669 0.237" stroke="hsl(120.0,100%,35%)" stroke-width="0.00306"></path>
<path d="M0.569 0.081 Q-0.195 0.463 0.384 0.920" stroke="hsl(120.0,100%,35%)" stroke-width="0.00097"></path>
<path d="M0.569 0.081 Q0.851 0.185 1.118 0.071" stroke="hsl(120.0,100%,35%)" stroke-width="0.00032"></path>
<path d="M0.569 0.081 Q0.124 0.641 1.121 0.981" stroke="hsl(120.0,100%,35%)" stroke-width="0.00048"></path>
<path d="M0.569 0.081 Q-0.082 0.515 0.623 0.928" stroke="hsl(120.0,100%,35%)" stroke-width="0.00064"></path>
<path d="M0.569 0.081 Q0.019 0.192 0.115 0.485" stroke="hsl(120.0,100%,35%)" stroke-width="0.00226"></path>
<path d="M0.569 0.081 Q1.032 0.243 1.452 0.053" stroke="hsl(120.0,100%,35%)" stroke-width="0.00097"></path>
<path d="M0.569 0.081 Q0.837 0.332 1.386 0.256" stroke="hsl(120.0,100%,35%)" stroke-width="0.00016"></path>
<path d="M0.569 0.081 Q-0.125 0.522 0.584 0.957" stroke="hsl(120.0,100%,35%)" stroke-width="0.00016"></path>
<path d="M0.569 0.081 Q0.372 0.438 1.026 0.613" stroke="hsl(120.0,100%,35%)" stroke-width="0.00016"></path>
<path d="M0.569 0.081 Q-0.186 0.320 0.115 0.741" stroke="hsl(120.0,100%,35%)" stroke-width="0.00016"></path>
<path d="M0.569 0.081 Q0.978 0.530 1.946 0.430" stroke="hsl(120.0,100%,35%)" stroke-width="0.00032"></path>
<path d="M0.569 0.081 Q0.336 0.148 0.416 0.277" stroke="hsl(120.0,100%,35%)" stroke-width="0.00016"></path>
<path d="M0.926 0.879 Q0.874 0.727 0.567 0.720" stroke="hsl(120.0,100%,35%)" stroke-width="0.01563"></path>
<path d="M0.926 0.879 Q0.736 0.901 0.739 0.999" stroke="hsl(120.0,100%,35%)" stroke-width="0.00612"></path>
<path d="M0.926 0.879 Q0.754 0.603 0.179 0.626" stroke="hsl(120.0,100%,35%)" stroke-width="0.00129"></path>
<path d="M0.926 0.879 Q1.477 0.813 1.469 0.530" stroke="hsl(120.0,100%,35%)" stroke-width="0.00741"></path>
<path d="M0.926 0.879 Q1.386 0.408 0.569 0.081" stroke="hsl(120.0,100%,35%)" stroke-width="0.00032"></path>
<path d="M0.926 0.879 Q0.622 0.791 0.384 0.920" stroke="hsl(120.0,100%,35%)" stroke-width="0.00016"></path>
<path d="M0.926 0.879 Q1.337 0.687 1.053 0.445" stroke="hsl(120.0,100%,35%)" stroke-width="0.00064"></path>
<path d="M0.926 0.879 Q1.690 0.809 1.722 0.421" stroke="hsl(120.0,100%,35%)" stroke-width="0.00016"></path>
<path d="M0.926 0.879 Q1.849 0.571 1.452 0.053" stroke="hsl(120.0,100%,35%)" stroke-width="0.00226"></path>
<path d="M0.926 0.879 Q1.654 0.659 1.386 0.256" stroke="hsl(120.0,100%,35%)" stroke-width="0.00048"></path>
<path d="M0.926 0.879 Q1.617 0.917 1.843 0.589" stroke="hsl(120.0,100%,35%)" stroke-width="0.00048"></path>
<path d="M0.926 0.879 Q1.074 0.810 0.973 0.723" stroke="hsl(120.0,100%,35%)" stroke-width="0.00016"></path>
<path d="M0.926 0.879 Q1.038 0.761 0.833 0.681" stroke="hsl(120.0,100%,35%)" stroke-width="0.00032"></path>
<path d="M0.669 0.237 Q0.744 0.139 0.569 0.081" stroke="hsl(120.0,100%,35%)" stroke-width="0.00081"></path>
<path d="M0.669 0.237 Q0.546 0.497 1.026 0.613" stroke="hsl(120.0,100%,35%)" stroke-width="0.00145"></path>
<path d="M0.669 0.237 Q0.834 0.543 1.469 0.530" stroke="hsl(120.0,100%,35%)" stroke-width="0.00016"></path>
<path d="M0.669 0.237 Q0.559 0.381 0.816 0.466" stroke="hsl(120.0,100%,35%)" stroke-width="0.00064"></path>
<path d="M0.669 0.237 Q0.695 0.418 1.053 0.445" stroke="hsl(120.0,100%,35%)" stroke-width="0.00032"></path>
<path d="M0.739 0.999 Q0.929 0.976 0.926 0.879" stroke="hsl(120.0,100%,35%)" stroke-width="0.00983"></path>
<path d="M0.739 0.999 Q0.876 0.825 0.567 0.720" stroke="hsl(120.0,100%,35%)" stroke-width="0.00081"></path>
<path d="M0.739 0.999 Q0.634 0.745 0.115 0.741" stroke="hsl(120.0,100%,35%)" stroke-width="0.00016"></path>
<path d="M0.739 0.999 Q0.832 0.915 0.690 0.852" stroke="hsl(120.0,100%,35%)" stroke-width="0.00097"></path>
<path d="M0.739 0.999 Q1.479 0.910 1.469 0.530" stroke="hsl(120.0,100%,35%)" stroke-width="0.00193"></path>
<path d="M0.739 0.999 Q1.389 0.506 0.569 0.081" stroke="hsl(120.0,100%,35%)" stroke-width="0.00081"></path>
<path d="M0.739 0.999 Q0.756 0.911 0.588 0.883" stroke="hsl(120.0,100%,35%)" stroke-width="0.00048"></path>
<path d="M0.739 0.999 Q1.204 0.748 0.816 0.466" stroke="hsl(120.0,100%,35%)" stroke-width="0.00016"></path>
<path d="M0.739 0.999 Q1.619 1.014 1.843 0.589" stroke="hsl(120.0,100%,35%)" stroke-width="0.00064"></path>
<path d="M0.739 0.999 Q1.191 0.863 1.026 0.613" stroke="hsl(120.0,100%,35%)" stroke-width="0.00064"></path>
<path d="M0.739 0.999 Q0.624 0.888 0.384 0.920" stroke="hsl(120.0,100%,35%)" stroke-width="0.00032"></path>
<path d="M0.739 0.999 Q1.798 0.956 1.946 0.430" stroke="hsl(120.0,100%,35%)" stroke-width="0.00032"></path>
<path d="M0.739 0.999 Q0.757 0.701 0.179 0.626" stroke="hsl(120.0,100%,35%)" stroke-width="0.00064"></path>
<path d="M0.739 0.999 Q1.117 0.488 0.204 0.191" stroke="hsl(120.0,100%,35%)" stroke-width="0.00048"></path>
<path d="M0.739 0.999 Q1.852 0.669 1.452 0.053" stroke="hsl(120.0,100%,35%)" stroke-width="0.00145"></path>
<path d="M0.739 0.999 Q1.060 1.085 1.298 0.947" stroke="hsl(120.0,100%,35%)" stroke-width="0.00016"></path>
<path d="M0.739 0.999 Q1.798 0.831 1.703 0.278" stroke="hsl(120.0,100%,35%)" stroke-width="0.00016"></path>
<path d="M0.204 0.191 Q0.475 0.209 0.569 0.081" stroke="hsl(120.0,100%,35%)" stroke-width="0.00016"></path>
<path d="M0.204 0.191 Q-0.035 0.360 0.243 0.514" stroke="hsl(120.0,100%,35%)" stroke-width="0.00081"></path>
<path d="M0.204 0.191 Q0.058 0.271 0.181 0.359" stroke="hsl(120.0,100%,35%)" stroke-width="0.00032"></path>
<path d="M1.026 0.613 Q1.039 0.497 0.816 0.466" stroke="hsl(120.0,100%,35%)" stroke-width="0.00081"></path>
<path d="M1.026 0.613 Q1.148 0.353 0.669 0.237" stroke="hsl(120.0,100%,35%)" stroke-width="0.00048"></path>
<path d="M1.026 0.613 Q0.592 0.450 0.179 0.626" stroke="hsl(120.0,100%,35%)" stroke-width="0.00032"></path>
<path d="M1.026 0.613 Q1.314 0.660 1.469 0.530" stroke="hsl(120.0,100%,35%)" stroke-width="0.00032"></path>
<path d="M1.026 0.613 Q0.460 0.638 0.384 0.920" stroke="hsl(120.0,100%,35%)" stroke-width="0.00016"></path>
<path d="M1.026 0.613 Q0.952 0.238 0.204 0.191" stroke="hsl(120.0,100%,35%)" stroke-width="0.00016"></path>
<path d="M1.026 0.613 Q1.175 0.534 1.053 0.445" stroke="hsl(120.0,100%,35%)" stroke-width="0.00016"></path>
<path d="M1.946 0.430 Q0.887 0.473 0.739 0.999" stroke="hsl(120.0,100%,35%)" stroke-width="0.00354"></path>
<path d="M1.946 0.430 Q1.627 0.384 1.469 0.530" stroke="hsl(120.0,100%,35%)" stroke-width="0.00081"></path>
<path d="M1.946 0.430 Q1.077 0.450 0.926 0.879" stroke="hsl(120.0,100%,35%)" stroke-width="0.00032"></path>
<path d="M1.946 0.430 Q1.339 0.337 1.026 0.613" stroke="hsl(120.0,100%,35%)" stroke-width="0.00016"></path>
<path d="M1.946 0.430 Q1.767 0.488 1.843 0.589" stroke="hsl(120.0,100%,35%)" stroke-width="0.00242"></path>
<path d="M1.946 0.430 Q0.886 0.414 0.623 0.928" stroke="hsl(120.0,100%,35%)" stroke-width="0.00016"></path>
<path d="M1.946 0.430 Q2.000 0.143 1.452 0.053" stroke="hsl(120.0,100%,35%)" stroke-width="0.00097"></path>
<path d="M1.946 0.430 Q1.537 -0.020 0.569 0.081" stroke="hsl(120.0,100%,35%)" stroke-width="0.00048"></path>
<path d="M1.946 0.430 Q0.980 0.389 0.690 0.852" stroke="hsl(120.0,100%,35%)" stroke-width="0.00032"></path>
<path d="M1.452 0.053 Q0.717 -0.127 0.204 0.191" stroke="hsl(120.0,100%,35%)" stroke-width="0.00016"></path>
<path d="M1.452 0.053 Q0.529 0.361 0.926 0.879" stroke="hsl(120.0,100%,35%)" stroke-width="0.00129"></path>
<path d="M1.452 0.053 Q0.432 0.300 0.690 0.852" stroke="hsl(120.0,100%,35%)" stroke-width="0.00338"></path>
<path d="M1.452 0.053 Q0.940 0.169 1.053 0.445" stroke="hsl(120.0,100%,35%)" stroke-width="0.00016"></path>
<path d="M1.452 0.053 Q1.259 0.054 1.219 0.148" stroke="hsl(120.0,100%,35%)" stroke-width="0.00016"></path>
<path d="M1.452 0.053 Q0.295 0.332 0.584 0.957" stroke="hsl(120.0,100%,35%)" stroke-width="0.00048"></path>
<path d="M1.452 0.053 Q1.079 0.295 1.469 0.530" stroke="hsl(120.0,100%,35%)" stroke-width="0.00161"></path>
<path d="M1.452 0.053 Q1.219 0.399 1.843 0.589" stroke="hsl(120.0,100%,35%)" stroke-width="0.00032"></path>
<path d="M1.452 0.053 Q0.224 0.273 0.384 0.920" stroke="hsl(120.0,100%,35%)" stroke-width="0.00016"></path>
<path d="M1.452 0.053 Q0.989 -0.110 0.569 0.081" stroke="hsl(120.0,100%,35%)" stroke-width="0.00242"></path>
<path d="M1.452 0.053 Q0.339 0.384 0.739 0.999" stroke="hsl(120.0,100%,35%)" stroke-width="0.00081"></path>
<path d="M1.452 0.053 Q1.271 -0.005 1.118 0.071" stroke="hsl(120.0,100%,35%)" stroke-width="0.00129"></path>
<path d="M1.452 0.053 Q1.101 -0.008 0.904 0.150" stroke="hsl(120.0,100%,35%)" stroke-width="0.00016"></path>
<path d="M1.452 0.053 Q1.257 0.142 1.386 0.256" stroke="hsl(120.0,100%,35%)" stroke-width="0.00016"></path>
<path d="M1.452 0.053 Q1.398 0.340 1.946 0.430" stroke="hsl(120.0,100%,35%)" stroke-width="0.00145"></path>
<path d="M1.452 0.053 Q0.791 0.248 1.026 0.613" stroke="hsl(120.0,100%,35%)" stroke-width="0.00016"></path>
<path d="M0.690 0.852 Q0.595 0.877 0.623 0.928" stroke="hsl(120.0,100%,35%)" stroke-width="0.00677"></path>
<path d="M0.690 0.852 Q0.597 0.935 0.739 0.999" stroke="hsl(120.0,100%,35%)" stroke-width="0.00209"></path>
<path d="M0.690 0.852 Q1.246 0.442 0.569 0.081" stroke="hsl(120.0,100%,35%)" stroke-width="0.00081"></path>
<path d="M0.690 0.852 Q1.049 0.800 1.026 0.613" stroke="hsl(120.0,100%,35%)" stroke-width="0.00097"></path>
<path d="M0.690 0.852 Q1.337 0.846 1.469 0.530" stroke="hsl(120.0,100%,35%)" stroke-width="0.00113"></path>
<path d="M0.690 0.852 Q0.482 0.825 0.384 0.920" stroke="hsl(120.0,100%,35%)" stroke-width="0.00016"></path>
<path d="M0.690 0.852 Q0.552 0.883 0.584 0.957" stroke="hsl(120.0,100%,35%)" stroke-width="0.00113"></path>
<path d="M0.690 0.852 Q1.197 0.721 1.053 0.445" stroke="hsl(120.0,100%,35%)" stroke-width="0.00048"></path>
<path d="M0.690 0.852 Q1.709 0.605 1.452 0.053" stroke="hsl(120.0,100%,35%)" stroke-width="0.00145"></path>
<path d="M0.690 0.852 Q1.477 0.951 1.843 0.589" stroke="hsl(120.0,100%,35%)" stroke-width="0.00016"></path>
<path d="M0.690 0.852 Q1.061 0.684 0.816 0.466" stroke="hsl(120.0,100%,35%)" stroke-width="0.00016"></path>
<path d="M0.623 0.928 Q1.274 0.494 0.569 0.081" stroke="hsl(120.0,100%,35%)" stroke-width="0.00032"></path>
<path d="M0.623 0.928 Q0.717 0.903 0.690 0.852" stroke="hsl(120.0,100%,35%)" stroke-width="0.00806"></path>
<path d="M0.623 0.928 Q0.624 0.987 0.739 0.999" stroke="hsl(120.0,100%,35%)" stroke-width="0.00032"></path>
<path d="M0.623 0.928 Q1.737 0.657 1.452 0.053" stroke="hsl(120.0,100%,35%)" stroke-width="0.00016"></path>
<path d="M0.588 0.883 Q0.571 0.971 0.739 0.999" stroke="hsl(120.0,100%,35%)" stroke-width="0.00532"></path>
<path d="M0.588 0.883 Q1.023 0.836 1.026 0.613" stroke="hsl(120.0,100%,35%)" stroke-width="0.00032"></path>
<path d="M0.588 0.883 Q0.761 0.949 0.926 0.879" stroke="hsl(120.0,100%,35%)" stroke-width="0.00016"></path>
<path d="M0.588 0.883 Q0.664 0.888 0.690 0.852" stroke="hsl(120.0,100%,35%)" stroke-width="0.00032"></path>
<path d="M0.584 0.957 Q1.741 0.679 1.452 0.053" stroke="hsl(120.0,100%,35%)" stroke-width="0.00064"></path>
<path d="M0.584 0.957 Q0.721 0.926 0.690 0.852" stroke="hsl(120.0,100%,35%)" stroke-width="0.00129"></path>
<path d="M0.566 0.576 Q1.194 0.838 1.843 0.589" stroke="hsl(0.0,100%,35%)" stroke-width="0.00016"></path>
<path d="M0.566 0.576 Q0.332 0.524 0.179 0.626" stroke="hsl(0.0,100%,35%)" stroke-width="0.00016"></path>
<path d="M0.566 0.576 Q0.452 0.648 0.567 0.720" stroke="hsl(0.0,100%,35%)" stroke-width="0.00016"></path>
<path d="M0.566 0.576 Q0.915 0.608 1.053 0.445" stroke="hsl(0.0,100%,35%)" stroke-width="0.00016"></path>
<path d="M0.566 0.576 Q0.504 0.799 0.926 0.879" stroke="hsl(0.0,100%,35%)" stroke-width="0.00016"></path>
<path d="M0.533 0.176 Q0.211 0.198 0.181 0.359" stroke="hsl(120.0,100%,35%)" stroke-width="0.00064"></path>
<path d="M0.533 0.176 Q-0.137 0.518 0.384 0.920" stroke="hsl(120.0,100%,35%)" stroke-width="0.00016"></path>
<path d="M0.533 0.176 Q0.627 0.136 0.569 0.081" stroke="hsl(120.0,100%,35%)" stroke-width="0.00032"></path>
<path d="M0.533 0.176 Q0.118 0.287 0.243 0.514" stroke="hsl(120.0,100%,35%)" stroke-width="0.00032"></path>
<path d="M0.533 0.176 Q0.718 0.540 1.469 0.530" stroke="hsl(120.0,100%,35%)" stroke-width="0.00016"></path>
<path d="M0.533 0.176 Q0.430 0.493 1.026 0.613" stroke="hsl(120.0,100%,35%)" stroke-width="0.00016"></path>
<path d="M0.533 0.176 Q-0.022 0.629 0.739 0.999" stroke="hsl(120.0,100%,35%)" stroke-width="0.00016"></path>
<path d="M0.416 0.277 Q0.650 0.209 0.569 0.081" stroke="hsl(120.0,100%,35%)" stroke-width="0.00064"></path>
<path d="M0.416 0.277 Q0.140 0.361 0.243 0.514" stroke="hsl(120.0,100%,35%)" stroke-width="0.00064"></path>
<path d="M0.416 0.277 Q0.555 0.250 0.533 0.176" stroke="hsl(120.0,100%,35%)" stroke-width="0.00016"></path>
<path d="M0.828 0.037 Q0.664 0.007 0.569 0.081" stroke="hsl(120.0,100%,35%)" stroke-width="0.00016"></path>
<path d="M0.828 0.037 Q0.014 0.500 0.739 0.999" stroke="hsl(120.0,100%,35%)" stroke-width="0.00016"></path>
<path d="M0.828 0.037 Q1.127 0.170 1.452 0.053" stroke="hsl(120.0,100%,35%)" stroke-width="0.00016"></path>
<path d="M1.303 0.816 Q0.893 0.496 0.179 0.626" stroke="hsl(0.0,100%,35%)" stroke-width="0.00048"></path>
<path d="M1.303 0.816 Q1.401 0.765 1.323 0.706" stroke="hsl(0.0,100%,35%)" stroke-width="0.00048"></path>
<path d="M1.303 0.816 Q1.444 0.678 1.206 0.579" stroke="hsl(0.0,100%,35%)" stroke-width="0.00016"></path>
<path d="M1.004 1.002 Q1.326 0.812 1.026 0.613" stroke="hsl(120.0,100%,35%)" stroke-width="0.00016"></path>
<path d="M1.004 1.002 Q0.874 0.947 0.739 0.999" stroke="hsl(120.0,100%,35%)" stroke-width="0.00032"></path>
<path d="M1.004 1.002 Q1.064 0.924 0.926 0.879" stroke="hsl(120.0,100%,35%)" stroke-width="0.00016"></path>
</g>
<text x="0.833" y="0.672" font-size="0.017841" fill="hsl(0.0,100%,20%)">adlai</text>
<text x="1.053" y="0.421" font-size="0.047901" fill="hsl(0.0,100%,20%)">bsalomon</text>
<text x="0.567" y="0.693" font-size="0.054490" fill="hsl(0.0,100%,20%)">robertphillips</text>
<text x="1.386" y="0.236" font-size="0.041469" fill="hsl(0.0,100%,20%)">csmartdalton</text>
<text x="0.115" y="0.473" font-size="0.022334" fill="hsl(120.0,100%,20%)">rmistry</text>
<text x="0.243" y="0.501" font-size="0.024271" fill="hsl(120.0,100%,20%)">borenet</text>
<text x="1.703" y="0.273" font-size="0.010453" fill="hsl(240.0,100%,20%)">mtklein</text>
<text x="0.115" y="0.719" font-size="0.042600" fill="hsl(0.0,100%,20%)">jvanverth</text>
<text x="1.604" y="0.655" font-size="0.004874" fill="hsl(240.0,100%,20%)">bajones</text>
<text x="1.843" y="0.548" font-size="0.081319" fill="hsl(240.0,100%,20%)">johnstiles</text>
<text x="1.469" y="0.492" font-size="0.076192" fill="hsl(240.0,100%,20%)">brianosman</text>
<text x="0.181" y="0.349" font-size="0.020562" fill="hsl(120.0,100%,20%)">jcgregorio</text>
<text x="1.121" y="0.976" font-size="0.010898" fill="hsl(120.0,100%,20%)">erikrose</text>
<text x="0.384" y="0.894" font-size="0.052310" fill="hsl(0.0,100%,20%)">michaelludwig</text>
<text x="0.816" y="0.457" font-size="0.017572" fill="hsl(120.0,100%,20%)">scroggo</text>
<text x="1.722" y="0.397" font-size="0.048000" fill="hsl(240.0,100%,20%)">ethannicholas</text>
<text x="0.179" y="0.603" font-size="0.046390" fill="hsl(0.0,100%,20%)">egdaniel</text>
<text x="0.569" y="0.060" font-size="0.041868" fill="hsl(120.0,100%,20%)">kjlubick</text>
<text x="0.926" y="0.859" font-size="0.039893" fill="hsl(120.0,100%,20%)">herb</text>
<text x="0.669" y="0.229" font-size="0.014783" fill="hsl(120.0,100%,20%)">nifong</text>
<text x="0.739" y="0.979" font-size="0.039414" fill="hsl(120.0,100%,20%)">bungeman</text>
<text x="0.204" y="0.186" font-size="0.010223" fill="hsl(120.0,100%,20%)">hcm</text>
<text x="1.026" y="0.604" font-size="0.018236" fill="hsl(120.0,100%,20%)">djsollen</text>
<text x="1.946" y="0.420" font-size="0.019373" fill="hsl(120.0,100%,20%)">jlavrova</text>
<text x="1.452" y="0.039" font-size="0.029726" fill="hsl(120.0,100%,20%)">reed</text>
<text x="0.690" y="0.836" font-size="0.031131" fill="hsl(120.0,100%,20%)">fmalita</text>
<text x="0.623" y="0.917" font-size="0.022546" fill="hsl(120.0,100%,20%)">jmbetancourt</text>
<text x="0.794" y="0.381" font-size="0.002180" fill="hsl(0.0,100%,20%)">stani</text>
<text x="0.588" y="0.876" font-size="0.013956" fill="hsl(120.0,100%,20%)">drott</text>
<text x="1.298" y="0.946" font-size="0.002180" fill="hsl(120.0,100%,20%)">grieger</text>
<text x="1.178" y="0.313" font-size="0.003082" fill="hsl(0.0,100%,20%)">junov</text>
<text x="0.584" y="0.951" font-size="0.012330" fill="hsl(120.0,100%,20%)">tdenniston</text>
<text x="0.566" y="0.573" font-size="0.004874" fill="hsl(0.0,100%,20%)">emaxx</text>
<text x="0.533" y="0.169" font-size="0.014942" fill="hsl(120.0,100%,20%)">lovisolo</text>
<text x="0.973" y="0.722" font-size="0.002180" fill="hsl(120.0,100%,20%)">jiulongw</text>
<text x="1.764" y="0.312" font-size="0.009988" fill="hsl(240.0,100%,20%)">armansito</text>
<text x="1.118" y="0.067" font-size="0.006892" fill="hsl(120.0,100%,20%)">yjbanov</text>
<text x="0.416" y="0.274" font-size="0.006892" fill="hsl(120.0,100%,20%)">westont</text>
<text x="0.828" y="0.035" font-size="0.003775" fill="hsl(120.0,100%,20%)">pkasting</text>
<text x="1.219" y="0.147" font-size="0.002180" fill="hsl(120.0,100%,20%)">whesse</text>
<text x="0.904" y="0.149" font-size="0.002180" fill="hsl(120.0,100%,20%)">mdebbar</text>
<text x="0.562" y="0.420" font-size="0.002180" fill="hsl(120.0,100%,20%)">nigeltao</text>
<text x="1.303" y="0.813" font-size="0.005767" fill="hsl(0.0,100%,20%)">senorblanco</text>
<text x="1.323" y="0.704" font-size="0.003775" fill="hsl(0.0,100%,20%)">cwallez</text>
<text x="1.206" y="0.578" font-size="0.002180" fill="hsl(0.0,100%,20%)">enga</text>
<text x="1.004" y="1.000" font-size="0.004359" fill="hsl(120.0,100%,20%)">thestig</text>
</svg>
