<svg width="4000" height="2000" viewBox="-0.025 -0.025 2.05 1.05" xmlns="http://www.w3.org/2000/svg">
  <style>
    path {
      fill: none;
      stroke-linecap: round;
      stroke-opacity: 0.4;
    }

    text {
      text-anchor: middle;
      alignment-baseline: hanging;
    }
  </style>
  <g opacity="0.4">
<path d="M1.919 0.435 Q1.505 0.429 1.401 0.629" stroke="hsl(0.0,100%,35%)" stroke-width="0.00226"></path>
<path d="M1.919 0.435 Q1.999 0.377 1.903 0.326" stroke="hsl(0.0,100%,35%)" stroke-width="0.01056"></path>
<path d="M1.919 0.435 Q1.384 0.367 1.133 0.613" stroke="hsl(0.0,100%,35%)" stroke-width="0.00045"></path>
<path d="M1.919 0.435 Q1.163 0.320 0.771 0.664" stroke="hsl(0.0,100%,35%)" stroke-width="0.00060"></path>
<path d="M1.919 0.435 Q1.006 0.292 0.526 0.705" stroke="hsl(0.0,100%,35%)" stroke-width="0.00045"></path>
<path d="M1.919 0.435 Q1.324 -0.014 0.316 0.177" stroke="hsl(0.0,100%,35%)" stroke-width="0.00045"></path>
<path d="M1.919 0.435 Q1.021 0.138 0.243 0.510" stroke="hsl(0.0,100%,35%)" stroke-width="0.00045"></path>
<path d="M1.919 0.435 Q1.429 0.577 1.597 0.847" stroke="hsl(0.0,100%,35%)" stroke-width="0.00015"></path>
<path d="M1.919 0.435 Q1.060 0.055 0.131 0.391" stroke="hsl(0.0,100%,35%)" stroke-width="0.00015"></path>
<path d="M1.919 0.435 Q1.615 0.293 1.270 0.409" stroke="hsl(0.0,100%,35%)" stroke-width="0.00030"></path>
<path d="M1.919 0.435 Q1.803 0.322 1.555 0.353" stroke="hsl(0.0,100%,35%)" stroke-width="0.00030"></path>
<path d="M1.919 0.435 Q0.734 0.390 0.385 0.958" stroke="hsl(0.0,100%,35%)" stroke-width="0.00015"></path>
<path d="M1.919 0.435 Q0.937 0.198 0.258 0.625" stroke="hsl(0.0,100%,35%)" stroke-width="0.00030"></path>
<path d="M1.401 0.629 Q0.957 0.256 0.131 0.391" stroke="hsl(0.0,100%,35%)" stroke-width="0.00573"></path>
<path d="M1.401 0.629 Q0.833 0.399 0.258 0.625" stroke="hsl(0.0,100%,35%)" stroke-width="0.00739"></path>
<path d="M1.401 0.629 Q0.630 0.590 0.385 0.958" stroke="hsl(0.0,100%,35%)" stroke-width="0.00045"></path>
<path d="M1.401 0.629 Q1.865 0.512 1.738 0.260" stroke="hsl(0.0,100%,35%)" stroke-width="0.00799"></path>
<path d="M1.401 0.629 Q1.066 0.378 0.501 0.486" stroke="hsl(0.0,100%,35%)" stroke-width="0.00121"></path>
<path d="M1.401 0.629 Q1.895 0.578 1.903 0.326" stroke="hsl(0.0,100%,35%)" stroke-width="0.00845"></path>
<path d="M1.401 0.629 Q0.857 0.489 0.463 0.724" stroke="hsl(0.0,100%,35%)" stroke-width="0.00015"></path>
<path d="M1.401 0.629 Q1.824 0.344 1.362 0.075" stroke="hsl(0.0,100%,35%)" stroke-width="0.00045"></path>
<path d="M1.401 0.629 Q1.699 0.522 1.555 0.353" stroke="hsl(0.0,100%,35%)" stroke-width="0.00030"></path>
<path d="M1.401 0.629 Q1.280 0.567 1.133 0.613" stroke="hsl(0.0,100%,35%)" stroke-width="0.00121"></path>
<path d="M1.401 0.629 Q0.918 0.338 0.243 0.510" stroke="hsl(0.0,100%,35%)" stroke-width="0.00347"></path>
<path d="M1.401 0.629 Q1.148 0.279 0.409 0.326" stroke="hsl(0.0,100%,35%)" stroke-width="0.00045"></path>
<path d="M1.401 0.629 Q1.325 0.777 1.597 0.847" stroke="hsl(0.0,100%,35%)" stroke-width="0.00075"></path>
<path d="M1.401 0.629 Q1.815 0.636 1.919 0.435" stroke="hsl(0.0,100%,35%)" stroke-width="0.00121"></path>
<path d="M1.401 0.629 Q1.486 0.719 1.680 0.697" stroke="hsl(0.0,100%,35%)" stroke-width="0.00015"></path>
<path d="M1.401 0.629 Q1.653 0.532 1.519 0.388" stroke="hsl(0.0,100%,35%)" stroke-width="0.00030"></path>
<path d="M1.401 0.629 Q1.220 0.186 0.316 0.177" stroke="hsl(0.0,100%,35%)" stroke-width="0.00045"></path>
<path d="M1.401 0.629 Q0.902 0.492 0.526 0.705" stroke="hsl(0.0,100%,35%)" stroke-width="0.00015"></path>
<path d="M1.401 0.629 Q1.511 0.493 1.270 0.409" stroke="hsl(0.0,100%,35%)" stroke-width="0.00030"></path>
<path d="M1.903 0.326 Q1.873 0.260 1.738 0.260" stroke="hsl(0.0,100%,35%)" stroke-width="0.01433"></path>
<path d="M1.903 0.326 Q0.926 0.086 0.243 0.510" stroke="hsl(0.0,100%,35%)" stroke-width="0.00272"></path>
<path d="M1.903 0.326 Q1.289 0.315 1.133 0.613" stroke="hsl(0.0,100%,35%)" stroke-width="0.00136"></path>
<path d="M1.903 0.326 Q1.409 0.377 1.401 0.629" stroke="hsl(0.0,100%,35%)" stroke-width="0.00453"></path>
<path d="M1.903 0.326 Q0.911 0.240 0.526 0.705" stroke="hsl(0.0,100%,35%)" stroke-width="0.00091"></path>
<path d="M1.903 0.326 Q0.841 0.146 0.258 0.625" stroke="hsl(0.0,100%,35%)" stroke-width="0.00528"></path>
<path d="M1.903 0.326 Q1.520 0.241 1.270 0.409" stroke="hsl(0.0,100%,35%)" stroke-width="0.00030"></path>
<path d="M1.903 0.326 Q0.965 0.004 0.131 0.391" stroke="hsl(0.0,100%,35%)" stroke-width="0.00075"></path>
<path d="M1.903 0.326 Q1.074 0.125 0.501 0.486" stroke="hsl(0.0,100%,35%)" stroke-width="0.00015"></path>
<path d="M1.903 0.326 Q1.446 0.604 1.889 0.888" stroke="hsl(0.0,100%,35%)" stroke-width="0.00060"></path>
<path d="M1.903 0.326 Q0.736 0.292 0.415 0.854" stroke="hsl(0.0,100%,35%)" stroke-width="0.00015"></path>
<path d="M1.903 0.326 Q0.638 0.338 0.385 0.958" stroke="hsl(0.0,100%,35%)" stroke-width="0.00030"></path>
<path d="M1.903 0.326 Q1.333 0.525 1.597 0.847" stroke="hsl(0.0,100%,35%)" stroke-width="0.00030"></path>
<path d="M1.903 0.326 Q1.823 0.384 1.919 0.435" stroke="hsl(0.0,100%,35%)" stroke-width="0.00181"></path>
<path d="M1.903 0.326 Q0.716 0.188 0.187 0.737" stroke="hsl(0.0,100%,35%)" stroke-width="0.00015"></path>
<path d="M1.903 0.326 Q0.865 0.237 0.463 0.724" stroke="hsl(0.0,100%,35%)" stroke-width="0.00015"></path>
<path d="M1.133 0.613 Q0.770 0.383 0.243 0.510" stroke="hsl(0.0,100%,35%)" stroke-width="0.00437"></path>
<path d="M1.133 0.613 Q1.717 0.557 1.738 0.260" stroke="hsl(0.0,100%,35%)" stroke-width="0.01071"></path>
<path d="M1.133 0.613 Q0.686 0.444 0.258 0.625" stroke="hsl(0.0,100%,35%)" stroke-width="0.00799"></path>
<path d="M1.133 0.613 Q1.394 0.823 1.861 0.741" stroke="hsl(0.0,100%,35%)" stroke-width="0.00015"></path>
<path d="M1.133 0.613 Q1.748 0.623 1.903 0.326" stroke="hsl(0.0,100%,35%)" stroke-width="0.00754"></path>
<path d="M1.133 0.613 Q0.809 0.301 0.131 0.391" stroke="hsl(0.0,100%,35%)" stroke-width="0.00377"></path>
<path d="M1.133 0.613 Q1.552 0.567 1.555 0.353" stroke="hsl(0.0,100%,35%)" stroke-width="0.00075"></path>
<path d="M1.133 0.613 Q1.254 0.674 1.401 0.629" stroke="hsl(0.0,100%,35%)" stroke-width="0.01523"></path>
<path d="M1.133 0.613 Q0.918 0.423 0.501 0.486" stroke="hsl(0.0,100%,35%)" stroke-width="0.00256"></path>
<path d="M1.133 0.613 Q0.483 0.636 0.385 0.958" stroke="hsl(0.0,100%,35%)" stroke-width="0.00015"></path>
<path d="M1.133 0.613 Q0.993 0.651 1.037 0.727" stroke="hsl(0.0,100%,35%)" stroke-width="0.00030"></path>
<path d="M1.133 0.613 Q0.877 0.499 0.600 0.599" stroke="hsl(0.0,100%,35%)" stroke-width="0.00015"></path>
<path d="M1.133 0.613 Q1.364 0.538 1.270 0.409" stroke="hsl(0.0,100%,35%)" stroke-width="0.00106"></path>
<path d="M1.133 0.613 Q1.668 0.681 1.919 0.435" stroke="hsl(0.0,100%,35%)" stroke-width="0.00226"></path>
<path d="M1.133 0.613 Q1.178 0.822 1.597 0.847" stroke="hsl(0.0,100%,35%)" stroke-width="0.00045"></path>
<path d="M1.133 0.613 Q1.213 0.896 1.783 0.919" stroke="hsl(0.0,100%,35%)" stroke-width="0.00136"></path>
<path d="M1.133 0.613 Q1.772 0.410 1.517 0.054" stroke="hsl(0.0,100%,35%)" stroke-width="0.00015"></path>
<path d="M1.133 0.613 Q1.073 0.232 0.316 0.177" stroke="hsl(0.0,100%,35%)" stroke-width="0.00015"></path>
<path d="M1.133 0.613 Q0.755 0.538 0.526 0.705" stroke="hsl(0.0,100%,35%)" stroke-width="0.00015"></path>
<path d="M0.771 0.664 Q0.737 0.597 0.600 0.599" stroke="hsl(120.0,100%,35%)" stroke-width="0.00181"></path>
<path d="M0.771 0.664 Q1.224 0.636 1.270 0.409" stroke="hsl(120.0,100%,35%)" stroke-width="0.00045"></path>
<path d="M0.771 0.664 Q1.608 0.721 1.903 0.326" stroke="hsl(120.0,100%,35%)" stroke-width="0.00136"></path>
<path d="M0.771 0.664 Q0.615 0.635 0.526 0.705" stroke="hsl(120.0,100%,35%)" stroke-width="0.00317"></path>
<path d="M0.771 0.664 Q0.569 0.632 0.463 0.724" stroke="hsl(120.0,100%,35%)" stroke-width="0.00015"></path>
<path d="M0.771 0.664 Q0.343 0.733 0.385 0.958" stroke="hsl(120.0,100%,35%)" stroke-width="0.00015"></path>
<path d="M0.771 0.664 Q0.993 0.710 1.133 0.613" stroke="hsl(120.0,100%,35%)" stroke-width="0.00060"></path>
<path d="M0.771 0.664 Q1.114 0.772 1.401 0.629" stroke="hsl(120.0,100%,35%)" stroke-width="0.00015"></path>
<path d="M0.771 0.664 Q1.537 0.487 1.362 0.075" stroke="hsl(120.0,100%,35%)" stroke-width="0.00015"></path>
<path d="M0.526 0.705 Q0.682 0.734 0.771 0.664" stroke="hsl(120.0,100%,35%)" stroke-width="0.00377"></path>
<path d="M0.526 0.705 Q0.648 0.667 0.600 0.599" stroke="hsl(120.0,100%,35%)" stroke-width="0.00045"></path>
<path d="M0.526 0.705 Q0.689 0.591 0.501 0.486" stroke="hsl(120.0,100%,35%)" stroke-width="0.00030"></path>
<path d="M0.526 0.705 Q0.581 0.665 0.514 0.629" stroke="hsl(120.0,100%,35%)" stroke-width="0.00030"></path>
<path d="M0.526 0.705 Q1.488 0.725 1.738 0.260" stroke="hsl(120.0,100%,35%)" stroke-width="0.00015"></path>
<path d="M0.526 0.705 Q1.543 0.578 1.517 0.054" stroke="hsl(120.0,100%,35%)" stroke-width="0.00015"></path>
<path d="M0.526 0.705 Q0.771 0.492 0.409 0.326" stroke="hsl(120.0,100%,35%)" stroke-width="0.00015"></path>
<path d="M0.526 0.705 Q1.024 0.842 1.401 0.629" stroke="hsl(120.0,100%,35%)" stroke-width="0.00015"></path>
<path d="M0.526 0.705 Q0.456 0.612 0.258 0.625" stroke="hsl(120.0,100%,35%)" stroke-width="0.00015"></path>
<path d="M0.526 0.705 Q1.135 0.706 1.270 0.409" stroke="hsl(120.0,100%,35%)" stroke-width="0.00045"></path>
<path d="M0.526 0.705 Q0.332 0.653 0.187 0.737" stroke="hsl(120.0,100%,35%)" stroke-width="0.00091"></path>
<path d="M0.526 0.705 Q0.843 0.400 0.316 0.177" stroke="hsl(120.0,100%,35%)" stroke-width="0.00015"></path>
<path d="M0.316 0.177 Q0.053 0.247 0.131 0.391" stroke="hsl(120.0,100%,35%)" stroke-width="0.00739"></path>
<path d="M0.316 0.177 Q0.421 0.768 1.597 0.847" stroke="hsl(120.0,100%,35%)" stroke-width="0.00151"></path>
<path d="M0.316 0.177 Q0.497 0.620 1.401 0.629" stroke="hsl(120.0,100%,35%)" stroke-width="0.00045"></path>
<path d="M0.316 0.177 Q0.377 0.558 1.133 0.613" stroke="hsl(120.0,100%,35%)" stroke-width="0.00015"></path>
<path d="M0.316 0.177 Q-0.001 0.483 0.526 0.705" stroke="hsl(120.0,100%,35%)" stroke-width="0.00347"></path>
<path d="M0.316 0.177 Q0.534 0.847 1.889 0.888" stroke="hsl(120.0,100%,35%)" stroke-width="0.00030"></path>
<path d="M0.316 0.177 Q-0.196 0.431 0.187 0.737" stroke="hsl(120.0,100%,35%)" stroke-width="0.00030"></path>
<path d="M0.316 0.177 Q0.014 0.329 0.243 0.510" stroke="hsl(120.0,100%,35%)" stroke-width="0.00015"></path>
<path d="M0.316 0.177 Q0.911 0.627 1.919 0.435" stroke="hsl(120.0,100%,35%)" stroke-width="0.00045"></path>
<path d="M0.316 0.177 Q0.795 0.513 1.555 0.353" stroke="hsl(120.0,100%,35%)" stroke-width="0.00256"></path>
<path d="M0.316 0.177 Q0.162 0.369 0.501 0.486" stroke="hsl(120.0,100%,35%)" stroke-width="0.00015"></path>
<path d="M0.316 0.177 Q0.244 0.270 0.409 0.326" stroke="hsl(120.0,100%,35%)" stroke-width="0.00015"></path>
<path d="M0.243 0.510 Q0.159 0.570 0.258 0.625" stroke="hsl(0.0,100%,35%)" stroke-width="0.01237"></path>
<path d="M0.243 0.510 Q1.221 0.750 1.903 0.326" stroke="hsl(0.0,100%,35%)" stroke-width="0.00347"></path>
<path d="M0.243 0.510 Q0.392 0.549 0.501 0.486" stroke="hsl(0.0,100%,35%)" stroke-width="0.00196"></path>
<path d="M0.243 0.510 Q0.282 0.428 0.131 0.391" stroke="hsl(0.0,100%,35%)" stroke-width="0.00362"></path>
<path d="M0.243 0.510 Q1.190 0.684 1.738 0.260" stroke="hsl(0.0,100%,35%)" stroke-width="0.00241"></path>
<path d="M0.243 0.510 Q0.606 0.739 1.133 0.613" stroke="hsl(0.0,100%,35%)" stroke-width="0.00060"></path>
<path d="M0.243 0.510 Q0.474 0.451 0.409 0.326" stroke="hsl(0.0,100%,35%)" stroke-width="0.00015"></path>
<path d="M0.243 0.510 Q0.727 0.801 1.401 0.629" stroke="hsl(0.0,100%,35%)" stroke-width="0.00287"></path>
<path d="M0.243 0.510 Q0.283 0.623 0.514 0.629" stroke="hsl(0.0,100%,35%)" stroke-width="0.00015"></path>
<path d="M0.243 0.510 Q-0.044 0.762 0.385 0.958" stroke="hsl(0.0,100%,35%)" stroke-width="0.00015"></path>
<path d="M0.243 0.510 Q1.141 0.808 1.919 0.435" stroke="hsl(0.0,100%,35%)" stroke-width="0.00045"></path>
<path d="M0.243 0.510 Q0.228 0.664 0.526 0.705" stroke="hsl(0.0,100%,35%)" stroke-width="0.00015"></path>
<path d="M0.243 0.510 Q0.651 0.949 1.597 0.847" stroke="hsl(0.0,100%,35%)" stroke-width="0.00015"></path>
<path d="M0.243 0.510 Q0.837 0.665 1.270 0.409" stroke="hsl(0.0,100%,35%)" stroke-width="0.00015"></path>
<path d="M0.243 0.510 Q0.034 0.612 0.187 0.737" stroke="hsl(0.0,100%,35%)" stroke-width="0.00015"></path>
<path d="M0.243 0.510 Q1.245 0.537 1.517 0.054" stroke="hsl(0.0,100%,35%)" stroke-width="0.00015"></path>
<path d="M0.243 0.510 Q0.541 0.853 1.276 0.783" stroke="hsl(0.0,100%,35%)" stroke-width="0.00015"></path>
<path d="M1.597 0.847 Q1.129 0.558 0.463 0.724" stroke="hsl(120.0,100%,35%)" stroke-width="0.00015"></path>
<path d="M1.597 0.847 Q1.971 0.592 1.555 0.353" stroke="hsl(120.0,100%,35%)" stroke-width="0.00121"></path>
<path d="M1.597 0.847 Q1.710 0.926 1.889 0.888" stroke="hsl(120.0,100%,35%)" stroke-width="0.00573"></path>
<path d="M1.597 0.847 Q1.673 0.699 1.401 0.629" stroke="hsl(120.0,100%,35%)" stroke-width="0.00226"></path>
<path d="M1.597 0.847 Q1.715 0.781 1.613 0.709" stroke="hsl(120.0,100%,35%)" stroke-width="0.00015"></path>
<path d="M1.597 0.847 Q1.632 0.920 1.783 0.919" stroke="hsl(120.0,100%,35%)" stroke-width="0.00045"></path>
<path d="M1.597 0.847 Q1.229 0.325 0.131 0.391" stroke="hsl(120.0,100%,35%)" stroke-width="0.00226"></path>
<path d="M1.597 0.847 Q1.338 0.447 0.501 0.486" stroke="hsl(120.0,100%,35%)" stroke-width="0.00045"></path>
<path d="M1.597 0.847 Q2.137 0.582 1.738 0.260" stroke="hsl(120.0,100%,35%)" stroke-width="0.00091"></path>
<path d="M1.597 0.847 Q1.784 0.563 1.270 0.409" stroke="hsl(120.0,100%,35%)" stroke-width="0.00256"></path>
<path d="M1.597 0.847 Q0.902 0.660 0.385 0.958" stroke="hsl(120.0,100%,35%)" stroke-width="0.00091"></path>
<path d="M1.597 0.847 Q1.488 0.750 1.276 0.783" stroke="hsl(120.0,100%,35%)" stroke-width="0.00121"></path>
<path d="M1.597 0.847 Q1.485 0.873 1.511 0.933" stroke="hsl(120.0,100%,35%)" stroke-width="0.00015"></path>
<path d="M1.597 0.847 Q1.553 0.637 1.133 0.613" stroke="hsl(120.0,100%,35%)" stroke-width="0.00015"></path>
<path d="M1.597 0.847 Q1.000 0.614 0.415 0.854" stroke="hsl(120.0,100%,35%)" stroke-width="0.00181"></path>
<path d="M1.597 0.847 Q2.097 0.414 1.362 0.075" stroke="hsl(120.0,100%,35%)" stroke-width="0.00015"></path>
<path d="M1.597 0.847 Q1.492 0.256 0.316 0.177" stroke="hsl(120.0,100%,35%)" stroke-width="0.00075"></path>
<path d="M1.597 0.847 Q2.191 0.434 1.517 0.054" stroke="hsl(120.0,100%,35%)" stroke-width="0.00015"></path>
<path d="M0.131 0.391 Q1.039 0.647 1.738 0.260" stroke="hsl(240.0,100%,35%)" stroke-width="0.00618"></path>
<path d="M0.131 0.391 Q0.240 0.512 0.501 0.486" stroke="hsl(240.0,100%,35%)" stroke-width="0.02579"></path>
<path d="M0.131 0.391 Q0.685 0.628 1.270 0.409" stroke="hsl(240.0,100%,35%)" stroke-width="0.00302"></path>
<path d="M0.131 0.391 Q0.199 0.589 0.600 0.599" stroke="hsl(240.0,100%,35%)" stroke-width="0.00075"></path>
<path d="M0.131 0.391 Q0.999 0.479 1.362 0.075" stroke="hsl(240.0,100%,35%)" stroke-width="0.00106"></path>
<path d="M0.131 0.391 Q0.575 0.764 1.401 0.629" stroke="hsl(240.0,100%,35%)" stroke-width="0.01146"></path>
<path d="M0.131 0.391 Q1.093 0.500 1.517 0.054" stroke="hsl(240.0,100%,35%)" stroke-width="0.00030"></path>
<path d="M0.131 0.391 Q1.069 0.713 1.903 0.326" stroke="hsl(240.0,100%,35%)" stroke-width="0.00121"></path>
<path d="M0.131 0.391 Q0.007 0.533 0.258 0.625" stroke="hsl(240.0,100%,35%)" stroke-width="0.00121"></path>
<path d="M0.131 0.391 Q0.322 0.414 0.409 0.326" stroke="hsl(240.0,100%,35%)" stroke-width="0.00453"></path>
<path d="M0.131 0.391 Q0.873 0.657 1.555 0.353" stroke="hsl(240.0,100%,35%)" stroke-width="0.00121"></path>
<path d="M0.131 0.391 Q-0.098 0.679 0.415 0.854" stroke="hsl(240.0,100%,35%)" stroke-width="0.00015"></path>
<path d="M0.131 0.391 Q0.233 0.655 0.771 0.664" stroke="hsl(240.0,100%,35%)" stroke-width="0.00030"></path>
<path d="M0.131 0.391 Q0.454 0.702 1.133 0.613" stroke="hsl(240.0,100%,35%)" stroke-width="0.00075"></path>
<path d="M0.131 0.391 Q0.092 0.473 0.243 0.510" stroke="hsl(240.0,100%,35%)" stroke-width="0.00045"></path>
<path d="M0.131 0.391 Q0.076 0.627 0.526 0.705" stroke="hsl(240.0,100%,35%)" stroke-width="0.00136"></path>
<path d="M0.131 0.391 Q0.499 0.912 1.597 0.847" stroke="hsl(240.0,100%,35%)" stroke-width="0.00287"></path>
<path d="M0.131 0.391 Q0.612 0.991 1.889 0.888" stroke="hsl(240.0,100%,35%)" stroke-width="0.00075"></path>
<path d="M0.131 0.391 Q-0.196 0.725 0.385 0.958" stroke="hsl(240.0,100%,35%)" stroke-width="0.00015"></path>
<path d="M0.131 0.391 Q0.715 0.912 1.861 0.741" stroke="hsl(240.0,100%,35%)" stroke-width="0.00030"></path>
<path d="M0.131 0.391 Q0.394 0.321 0.316 0.177" stroke="hsl(240.0,100%,35%)" stroke-width="0.00618"></path>
<path d="M0.131 0.391 Q0.031 0.624 0.463 0.724" stroke="hsl(240.0,100%,35%)" stroke-width="0.00015"></path>
<path d="M1.270 0.409 Q0.817 0.437 0.771 0.664" stroke="hsl(120.0,100%,35%)" stroke-width="0.00196"></path>
<path d="M1.270 0.409 Q0.783 0.370 0.600 0.599" stroke="hsl(120.0,100%,35%)" stroke-width="0.00211"></path>
<path d="M1.270 0.409 Q0.715 0.172 0.131 0.391" stroke="hsl(120.0,100%,35%)" stroke-width="0.00347"></path>
<path d="M1.270 0.409 Q0.661 0.409 0.526 0.705" stroke="hsl(120.0,100%,35%)" stroke-width="0.00272"></path>
<path d="M1.270 0.409 Q0.974 0.597 1.276 0.783" stroke="hsl(120.0,100%,35%)" stroke-width="0.00045"></path>
<path d="M1.270 0.409 Q1.412 0.448 1.519 0.388" stroke="hsl(120.0,100%,35%)" stroke-width="0.00256"></path>
<path d="M1.270 0.409 Q1.283 0.479 1.423 0.488" stroke="hsl(120.0,100%,35%)" stroke-width="0.00377"></path>
<path d="M1.270 0.409 Q1.623 0.428 1.738 0.260" stroke="hsl(120.0,100%,35%)" stroke-width="0.00030"></path>
<path d="M1.270 0.409 Q0.389 0.507 0.385 0.958" stroke="hsl(120.0,100%,35%)" stroke-width="0.00362"></path>
<path d="M1.270 0.409 Q1.160 0.545 1.401 0.629" stroke="hsl(120.0,100%,35%)" stroke-width="0.00136"></path>
<path d="M1.270 0.409 Q0.592 0.315 0.258 0.625" stroke="hsl(120.0,100%,35%)" stroke-width="0.00060"></path>
<path d="M1.270 0.409 Q1.678 0.281 1.517 0.054" stroke="hsl(120.0,100%,35%)" stroke-width="0.00060"></path>
<path d="M1.270 0.409 Q1.654 0.494 1.903 0.326" stroke="hsl(120.0,100%,35%)" stroke-width="0.00045"></path>
<path d="M1.270 0.409 Q0.825 0.294 0.501 0.486" stroke="hsl(120.0,100%,35%)" stroke-width="0.00091"></path>
<path d="M1.270 0.409 Q0.716 0.368 0.514 0.629" stroke="hsl(120.0,100%,35%)" stroke-width="0.00030"></path>
<path d="M1.270 0.409 Q1.197 0.772 1.889 0.888" stroke="hsl(120.0,100%,35%)" stroke-width="0.00030"></path>
<path d="M1.270 0.409 Q1.084 0.693 1.597 0.847" stroke="hsl(120.0,100%,35%)" stroke-width="0.00106"></path>
<path d="M1.270 0.409 Q1.039 0.484 1.133 0.613" stroke="hsl(120.0,100%,35%)" stroke-width="0.00015"></path>
<path d="M1.270 0.409 Q1.300 0.694 1.861 0.741" stroke="hsl(120.0,100%,35%)" stroke-width="0.00030"></path>
<path d="M1.270 0.409 Q1.119 0.767 1.783 0.919" stroke="hsl(120.0,100%,35%)" stroke-width="0.00015"></path>
<path d="M1.270 0.409 Q1.458 0.438 1.555 0.353" stroke="hsl(120.0,100%,35%)" stroke-width="0.00030"></path>
<path d="M1.270 0.409 Q1.583 0.261 1.362 0.075" stroke="hsl(120.0,100%,35%)" stroke-width="0.00015"></path>
<path d="M1.270 0.409 Q0.676 0.254 0.243 0.510" stroke="hsl(120.0,100%,35%)" stroke-width="0.00030"></path>
<path d="M1.270 0.409 Q0.487 0.461 0.415 0.854" stroke="hsl(120.0,100%,35%)" stroke-width="0.00030"></path>
<path d="M1.270 0.409 Q0.467 0.356 0.187 0.737" stroke="hsl(120.0,100%,35%)" stroke-width="0.00015"></path>
<path d="M1.270 0.409 Q0.615 0.405 0.463 0.724" stroke="hsl(120.0,100%,35%)" stroke-width="0.00015"></path>
<path d="M1.555 0.353 Q0.486 0.422 0.385 0.958" stroke="hsl(120.0,100%,35%)" stroke-width="0.00498"></path>
<path d="M1.555 0.353 Q0.813 0.087 0.131 0.391" stroke="hsl(120.0,100%,35%)" stroke-width="0.00679"></path>
<path d="M1.555 0.353 Q1.751 0.409 1.903 0.326" stroke="hsl(120.0,100%,35%)" stroke-width="0.00875"></path>
<path d="M1.555 0.353 Q1.257 0.460 1.401 0.629" stroke="hsl(120.0,100%,35%)" stroke-width="0.00091"></path>
<path d="M1.555 0.353 Q1.004 0.110 0.409 0.326" stroke="hsl(120.0,100%,35%)" stroke-width="0.00015"></path>
<path d="M1.555 0.353 Q1.182 0.608 1.597 0.847" stroke="hsl(120.0,100%,35%)" stroke-width="0.00226"></path>
<path d="M1.555 0.353 Q1.137 0.398 1.133 0.613" stroke="hsl(120.0,100%,35%)" stroke-width="0.00075"></path>
<path d="M1.555 0.353 Q0.922 0.209 0.501 0.486" stroke="hsl(120.0,100%,35%)" stroke-width="0.00045"></path>
<path d="M1.555 0.353 Q1.543 0.470 1.769 0.502" stroke="hsl(120.0,100%,35%)" stroke-width="0.00015"></path>
<path d="M1.555 0.353 Q1.368 0.324 1.270 0.409" stroke="hsl(120.0,100%,35%)" stroke-width="0.00015"></path>
<path d="M1.555 0.353 Q1.671 0.467 1.919 0.435" stroke="hsl(120.0,100%,35%)" stroke-width="0.00030"></path>
<path d="M1.555 0.353 Q0.584 0.376 0.415 0.854" stroke="hsl(120.0,100%,35%)" stroke-width="0.00060"></path>
<path d="M1.555 0.353 Q1.721 0.343 1.738 0.260" stroke="hsl(120.0,100%,35%)" stroke-width="0.00075"></path>
<path d="M0.385 0.958 Q1.580 0.712 1.362 0.075" stroke="hsl(120.0,100%,35%)" stroke-width="0.00045"></path>
<path d="M0.385 0.958 Q1.454 0.890 1.555 0.353" stroke="hsl(120.0,100%,35%)" stroke-width="0.00543"></path>
<path d="M0.385 0.958 Q1.620 0.880 1.738 0.260" stroke="hsl(120.0,100%,35%)" stroke-width="0.00030"></path>
<path d="M0.385 0.958 Q1.266 0.861 1.270 0.409" stroke="hsl(120.0,100%,35%)" stroke-width="0.00060"></path>
<path d="M0.385 0.958 Q0.483 0.912 0.415 0.854" stroke="hsl(120.0,100%,35%)" stroke-width="0.00106"></path>
<path d="M0.385 0.958 Q0.712 0.623 0.131 0.391" stroke="hsl(120.0,100%,35%)" stroke-width="0.00106"></path>
<path d="M0.385 0.958 Q0.821 0.745 0.501 0.486" stroke="hsl(120.0,100%,35%)" stroke-width="0.00060"></path>
<path d="M0.385 0.958 Q0.588 0.766 0.258 0.625" stroke="hsl(120.0,100%,35%)" stroke-width="0.00060"></path>
<path d="M0.385 0.958 Q0.612 0.856 0.463 0.724" stroke="hsl(120.0,100%,35%)" stroke-width="0.00045"></path>
<path d="M0.385 0.958 Q1.080 1.145 1.597 0.847" stroke="hsl(120.0,100%,35%)" stroke-width="0.00211"></path>
<path d="M0.385 0.958 Q1.650 0.945 1.903 0.326" stroke="hsl(120.0,100%,35%)" stroke-width="0.00045"></path>
<path d="M0.385 0.958 Q0.626 0.991 0.742 0.880" stroke="hsl(120.0,100%,35%)" stroke-width="0.00015"></path>
<path d="M0.385 0.958 Q1.193 1.224 1.889 0.888" stroke="hsl(120.0,100%,35%)" stroke-width="0.00106"></path>
<path d="M0.385 0.958 Q0.461 1.000 0.560 0.973" stroke="hsl(120.0,100%,35%)" stroke-width="0.00075"></path>
<path d="M0.385 0.958 Q0.975 0.554 0.316 0.177" stroke="hsl(120.0,100%,35%)" stroke-width="0.00121"></path>
<path d="M0.385 0.958 Q1.674 0.733 1.517 0.054" stroke="hsl(120.0,100%,35%)" stroke-width="0.00015"></path>
<path d="M0.385 0.958 Q0.673 0.706 0.243 0.510" stroke="hsl(120.0,100%,35%)" stroke-width="0.00015"></path>
<path d="M0.258 0.625 Q1.290 0.738 1.738 0.260" stroke="hsl(0.0,100%,35%)" stroke-width="0.00151"></path>
<path d="M0.258 0.625 Q0.826 0.856 1.401 0.629" stroke="hsl(0.0,100%,35%)" stroke-width="0.00664"></path>
<path d="M0.258 0.625 Q1.320 0.804 1.903 0.326" stroke="hsl(0.0,100%,35%)" stroke-width="0.00347"></path>
<path d="M0.258 0.625 Q0.343 0.564 0.243 0.510" stroke="hsl(0.0,100%,35%)" stroke-width="0.00890"></path>
<path d="M0.258 0.625 Q0.706 0.794 1.133 0.613" stroke="hsl(0.0,100%,35%)" stroke-width="0.00256"></path>
<path d="M0.258 0.625 Q0.055 0.817 0.385 0.958" stroke="hsl(0.0,100%,35%)" stroke-width="0.00030"></path>
<path d="M0.258 0.625 Q0.937 0.720 1.270 0.409" stroke="hsl(0.0,100%,35%)" stroke-width="0.00030"></path>
<path d="M0.258 0.625 Q0.573 0.506 0.409 0.326" stroke="hsl(0.0,100%,35%)" stroke-width="0.00015"></path>
<path d="M0.258 0.625 Q0.328 0.719 0.526 0.705" stroke="hsl(0.0,100%,35%)" stroke-width="0.00015"></path>
<path d="M0.258 0.625 Q1.250 0.571 1.362 0.075" stroke="hsl(0.0,100%,35%)" stroke-width="0.00015"></path>
<path d="M0.258 0.625 Q0.751 1.004 1.597 0.847" stroke="hsl(0.0,100%,35%)" stroke-width="0.00015"></path>
<path d="M0.258 0.625 Q1.345 0.591 1.517 0.054" stroke="hsl(0.0,100%,35%)" stroke-width="0.00015"></path>
<path d="M0.258 0.625 Q0.382 0.482 0.131 0.391" stroke="hsl(0.0,100%,35%)" stroke-width="0.00045"></path>
<path d="M0.408 0.270 Q0.172 0.275 0.131 0.391" stroke="hsl(120.0,100%,35%)" stroke-width="0.00015"></path>
<path d="M0.408 0.270 Q0.118 0.511 0.526 0.705" stroke="hsl(120.0,100%,35%)" stroke-width="0.00015"></path>
<path d="M0.408 0.270 Q0.281 0.397 0.501 0.486" stroke="hsl(120.0,100%,35%)" stroke-width="0.00045"></path>
<path d="M0.501 0.486 Q0.392 0.364 0.131 0.391" stroke="hsl(240.0,100%,35%)" stroke-width="0.10649"></path>
<path d="M0.501 0.486 Q0.583 0.387 0.409 0.326" stroke="hsl(240.0,100%,35%)" stroke-width="0.04148"></path>
<path d="M0.501 0.486 Q0.977 0.886 1.861 0.741" stroke="hsl(240.0,100%,35%)" stroke-width="0.00030"></path>
<path d="M0.501 0.486 Q0.066 0.699 0.385 0.958" stroke="hsl(240.0,100%,35%)" stroke-width="0.00060"></path>
<path d="M0.501 0.486 Q0.164 0.653 0.415 0.854" stroke="hsl(240.0,100%,35%)" stroke-width="0.00106"></path>
<path d="M0.501 0.486 Q1.134 0.630 1.555 0.353" stroke="hsl(240.0,100%,35%)" stroke-width="0.00106"></path>
<path d="M0.501 0.486 Q0.716 0.676 1.133 0.613" stroke="hsl(240.0,100%,35%)" stroke-width="0.00045"></path>
<path d="M0.501 0.486 Q0.269 0.507 0.258 0.625" stroke="hsl(240.0,100%,35%)" stroke-width="0.00211"></path>
<path d="M0.501 0.486 Q0.353 0.446 0.243 0.510" stroke="hsl(240.0,100%,35%)" stroke-width="0.00166"></path>
<path d="M0.501 0.486 Q0.393 0.560 0.514 0.629" stroke="hsl(240.0,100%,35%)" stroke-width="0.00015"></path>
<path d="M0.501 0.486 Q0.947 0.601 1.270 0.409" stroke="hsl(240.0,100%,35%)" stroke-width="0.00091"></path>
<path d="M0.501 0.486 Q0.874 0.964 1.889 0.888" stroke="hsl(240.0,100%,35%)" stroke-width="0.00030"></path>
<path d="M0.501 0.486 Q1.355 0.473 1.517 0.054" stroke="hsl(240.0,100%,35%)" stroke-width="0.00060"></path>
<path d="M0.501 0.486 Q1.300 0.620 1.738 0.260" stroke="hsl(240.0,100%,35%)" stroke-width="0.00166"></path>
<path d="M0.501 0.486 Q0.837 0.737 1.401 0.629" stroke="hsl(240.0,100%,35%)" stroke-width="0.00468"></path>
<path d="M0.501 0.486 Q0.494 0.629 0.771 0.664" stroke="hsl(240.0,100%,35%)" stroke-width="0.00045"></path>
<path d="M0.501 0.486 Q0.761 0.885 1.597 0.847" stroke="hsl(240.0,100%,35%)" stroke-width="0.00196"></path>
<path d="M0.501 0.486 Q1.331 0.686 1.903 0.326" stroke="hsl(240.0,100%,35%)" stroke-width="0.00136"></path>
<path d="M0.501 0.486 Q0.796 0.959 1.783 0.919" stroke="hsl(240.0,100%,35%)" stroke-width="0.00015"></path>
<path d="M0.501 0.486 Q1.260 0.453 1.362 0.075" stroke="hsl(240.0,100%,35%)" stroke-width="0.00045"></path>
<path d="M0.501 0.486 Q0.460 0.562 0.600 0.599" stroke="hsl(240.0,100%,35%)" stroke-width="0.00015"></path>
<path d="M0.501 0.486 Q0.656 0.295 0.316 0.177" stroke="hsl(240.0,100%,35%)" stroke-width="0.00075"></path>
<path d="M0.501 0.486 Q1.251 0.744 1.919 0.435" stroke="hsl(240.0,100%,35%)" stroke-width="0.00015"></path>
<path d="M0.600 0.599 Q0.634 0.666 0.771 0.664" stroke="hsl(120.0,100%,35%)" stroke-width="0.00075"></path>
<path d="M0.600 0.599 Q0.533 0.597 0.514 0.629" stroke="hsl(120.0,100%,35%)" stroke-width="0.00015"></path>
<path d="M0.600 0.599 Q0.205 0.735 0.385 0.958" stroke="hsl(120.0,100%,35%)" stroke-width="0.00060"></path>
<path d="M0.600 0.599 Q0.477 0.637 0.526 0.705" stroke="hsl(120.0,100%,35%)" stroke-width="0.00226"></path>
<path d="M0.600 0.599 Q0.408 0.544 0.258 0.625" stroke="hsl(120.0,100%,35%)" stroke-width="0.00015"></path>
<path d="M0.600 0.599 Q0.532 0.401 0.131 0.391" stroke="hsl(120.0,100%,35%)" stroke-width="0.00015"></path>
<path d="M0.600 0.599 Q0.641 0.523 0.501 0.486" stroke="hsl(120.0,100%,35%)" stroke-width="0.00030"></path>
<path d="M0.600 0.599 Q0.976 0.774 1.401 0.629" stroke="hsl(120.0,100%,35%)" stroke-width="0.00030"></path>
<path d="M0.600 0.599 Q0.795 0.331 0.316 0.177" stroke="hsl(120.0,100%,35%)" stroke-width="0.00030"></path>
<path d="M0.600 0.599 Q1.390 0.781 1.919 0.435" stroke="hsl(120.0,100%,35%)" stroke-width="0.00015"></path>
<path d="M0.600 0.599 Q0.855 0.712 1.133 0.613" stroke="hsl(120.0,100%,35%)" stroke-width="0.00015"></path>
<path d="M0.600 0.599 Q0.432 0.634 0.463 0.724" stroke="hsl(120.0,100%,35%)" stroke-width="0.00045"></path>
<path d="M0.600 0.599 Q1.087 0.638 1.270 0.409" stroke="hsl(120.0,100%,35%)" stroke-width="0.00015"></path>
<path d="M0.600 0.599 Q1.013 1.001 1.889 0.888" stroke="hsl(120.0,100%,35%)" stroke-width="0.00030"></path>
<path d="M0.514 0.629 Q1.081 0.740 1.423 0.488" stroke="hsl(120.0,100%,35%)" stroke-width="0.00030"></path>
<path d="M0.514 0.629 Q0.581 0.631 0.600 0.599" stroke="hsl(120.0,100%,35%)" stroke-width="0.00030"></path>
<path d="M0.514 0.629 Q0.615 0.698 0.771 0.664" stroke="hsl(120.0,100%,35%)" stroke-width="0.00015"></path>
<path d="M0.514 0.629 Q0.458 0.670 0.526 0.705" stroke="hsl(120.0,100%,35%)" stroke-width="0.00015"></path>
<path d="M1.738 0.260 Q0.706 0.147 0.258 0.625" stroke="hsl(0.0,100%,35%)" stroke-width="0.00226"></path>
<path d="M1.738 0.260 Q1.768 0.326 1.903 0.326" stroke="hsl(0.0,100%,35%)" stroke-width="0.00950"></path>
<path d="M1.738 0.260 Q1.385 0.241 1.270 0.409" stroke="hsl(0.0,100%,35%)" stroke-width="0.00015"></path>
<path d="M1.738 0.260 Q0.791 0.086 0.243 0.510" stroke="hsl(0.0,100%,35%)" stroke-width="0.00317"></path>
<path d="M1.738 0.260 Q0.830 0.004 0.131 0.391" stroke="hsl(0.0,100%,35%)" stroke-width="0.00136"></path>
<path d="M1.738 0.260 Q1.572 0.270 1.555 0.353" stroke="hsl(0.0,100%,35%)" stroke-width="0.00060"></path>
<path d="M1.738 0.260 Q1.153 0.315 1.133 0.613" stroke="hsl(0.0,100%,35%)" stroke-width="0.00211"></path>
<path d="M1.738 0.260 Q1.274 0.377 1.401 0.629" stroke="hsl(0.0,100%,35%)" stroke-width="0.00302"></path>
<path d="M1.738 0.260 Q1.198 0.525 1.597 0.847" stroke="hsl(0.0,100%,35%)" stroke-width="0.00256"></path>
<path d="M1.738 0.260 Q1.311 0.604 1.889 0.888" stroke="hsl(0.0,100%,35%)" stroke-width="0.00091"></path>
<path d="M1.738 0.260 Q1.698 0.092 1.362 0.075" stroke="hsl(0.0,100%,35%)" stroke-width="0.00030"></path>
<path d="M1.738 0.260 Q0.939 0.126 0.501 0.486" stroke="hsl(0.0,100%,35%)" stroke-width="0.00015"></path>
<path d="M1.738 0.260 Q1.875 0.161 1.712 0.072" stroke="hsl(0.0,100%,35%)" stroke-width="0.00015"></path>
<path d="M1.738 0.260 Q1.233 0.599 1.783 0.919" stroke="hsl(0.0,100%,35%)" stroke-width="0.00015"></path>
<path d="M1.517 0.054 Q1.423 0.034 1.362 0.075" stroke="hsl(120.0,100%,35%)" stroke-width="0.00166"></path>
<path d="M1.517 0.054 Q1.110 0.182 1.270 0.409" stroke="hsl(120.0,100%,35%)" stroke-width="0.00060"></path>
<path d="M1.517 0.054 Q0.431 0.088 0.258 0.625" stroke="hsl(120.0,100%,35%)" stroke-width="0.00030"></path>
<path d="M1.517 0.054 Q0.501 0.182 0.526 0.705" stroke="hsl(120.0,100%,35%)" stroke-width="0.00015"></path>
<path d="M1.517 0.054 Q0.657 0.210 0.771 0.664" stroke="hsl(120.0,100%,35%)" stroke-width="0.00015"></path>
<path d="M1.517 0.054 Q1.348 0.097 1.394 0.189" stroke="hsl(120.0,100%,35%)" stroke-width="0.00030"></path>
<path d="M1.517 0.054 Q0.623 0.143 0.600 0.599" stroke="hsl(120.0,100%,35%)" stroke-width="0.00015"></path>
<path d="M1.517 0.054 Q0.555 -0.055 0.131 0.391" stroke="hsl(120.0,100%,35%)" stroke-width="0.00015"></path>
<path d="M0.409 0.326 Q0.327 0.424 0.501 0.486" stroke="hsl(240.0,100%,35%)" stroke-width="0.02971"></path>
<path d="M0.409 0.326 Q0.218 0.303 0.131 0.391" stroke="hsl(240.0,100%,35%)" stroke-width="0.00980"></path>
<path d="M0.409 0.326 Q0.662 0.676 1.401 0.629" stroke="hsl(240.0,100%,35%)" stroke-width="0.00030"></path>
<path d="M0.187 0.737 Q0.990 0.790 1.270 0.409" stroke="hsl(120.0,100%,35%)" stroke-width="0.00106"></path>
<path d="M0.187 0.737 Q0.381 0.789 0.526 0.705" stroke="hsl(120.0,100%,35%)" stroke-width="0.00196"></path>
<path d="M0.187 0.737 Q1.003 0.859 1.423 0.488" stroke="hsl(120.0,100%,35%)" stroke-width="0.00015"></path>
<path d="M0.187 0.737 Q0.699 0.483 0.316 0.177" stroke="hsl(120.0,100%,35%)" stroke-width="0.00015"></path>
<path d="M0.187 0.737 Q1.374 0.874 1.903 0.326" stroke="hsl(120.0,100%,35%)" stroke-width="0.00015"></path>
<path d="M1.362 0.075 Q1.456 0.096 1.517 0.054" stroke="hsl(120.0,100%,35%)" stroke-width="0.00015"></path>
<path d="M1.362 0.075 Q0.370 0.129 0.258 0.625" stroke="hsl(120.0,100%,35%)" stroke-width="0.00030"></path>
<path d="M1.362 0.075 Q0.494 -0.013 0.131 0.391" stroke="hsl(120.0,100%,35%)" stroke-width="0.00045"></path>
<path d="M1.362 0.075 Q1.402 0.243 1.738 0.260" stroke="hsl(120.0,100%,35%)" stroke-width="0.00015"></path>
<path d="M1.362 0.075 Q0.394 0.220 0.463 0.724" stroke="hsl(120.0,100%,35%)" stroke-width="0.00015"></path>
<path d="M1.362 0.075 Q0.938 0.360 1.401 0.629" stroke="hsl(120.0,100%,35%)" stroke-width="0.00015"></path>
<path d="M1.362 0.075 Q0.757 -0.083 0.316 0.177" stroke="hsl(120.0,100%,35%)" stroke-width="0.00015"></path>
<path d="M0.415 0.854 Q0.644 0.566 0.131 0.391" stroke="hsl(120.0,100%,35%)" stroke-width="0.00030"></path>
<path d="M0.415 0.854 Q0.753 0.687 0.501 0.486" stroke="hsl(120.0,100%,35%)" stroke-width="0.00121"></path>
<path d="M0.415 0.854 Q0.317 0.900 0.385 0.958" stroke="hsl(120.0,100%,35%)" stroke-width="0.00498"></path>
<path d="M0.415 0.854 Q1.228 1.087 1.861 0.741" stroke="hsl(120.0,100%,35%)" stroke-width="0.00015"></path>
<path d="M0.415 0.854 Q1.012 1.087 1.597 0.847" stroke="hsl(120.0,100%,35%)" stroke-width="0.00106"></path>
<path d="M0.415 0.854 Q1.199 0.803 1.270 0.409" stroke="hsl(120.0,100%,35%)" stroke-width="0.00045"></path>
<path d="M0.415 0.854 Q1.125 1.166 1.889 0.888" stroke="hsl(120.0,100%,35%)" stroke-width="0.00030"></path>
<path d="M0.415 0.854 Q1.386 0.832 1.555 0.353" stroke="hsl(120.0,100%,35%)" stroke-width="0.00015"></path>
<path d="M1.889 0.888 Q1.408 0.288 0.131 0.391" stroke="hsl(120.0,100%,35%)" stroke-width="0.00166"></path>
<path d="M1.889 0.888 Q2.316 0.544 1.738 0.260" stroke="hsl(120.0,100%,35%)" stroke-width="0.00015"></path>
<path d="M1.889 0.888 Q1.992 0.809 1.861 0.741" stroke="hsl(120.0,100%,35%)" stroke-width="0.00588"></path>
<path d="M1.889 0.888 Q1.811 0.882 1.783 0.919" stroke="hsl(120.0,100%,35%)" stroke-width="0.00407"></path>
<path d="M1.889 0.888 Q1.852 0.661 1.401 0.629" stroke="hsl(120.0,100%,35%)" stroke-width="0.00045"></path>
<path d="M1.889 0.888 Q1.081 0.622 0.385 0.958" stroke="hsl(120.0,100%,35%)" stroke-width="0.00136"></path>
<path d="M1.889 0.888 Q1.776 0.809 1.597 0.847" stroke="hsl(120.0,100%,35%)" stroke-width="0.00211"></path>
<path d="M1.889 0.888 Q1.517 0.409 0.501 0.486" stroke="hsl(120.0,100%,35%)" stroke-width="0.00015"></path>
<path d="M1.889 0.888 Q1.962 0.525 1.270 0.409" stroke="hsl(120.0,100%,35%)" stroke-width="0.00045"></path>
<path d="M1.889 0.888 Q2.275 0.376 1.362 0.075" stroke="hsl(120.0,100%,35%)" stroke-width="0.00075"></path>
<path d="M1.889 0.888 Q1.671 0.218 0.316 0.177" stroke="hsl(120.0,100%,35%)" stroke-width="0.00060"></path>
<path d="M1.889 0.888 Q1.476 0.485 0.600 0.599" stroke="hsl(120.0,100%,35%)" stroke-width="0.00015"></path>
<path d="M1.861 0.741 Q1.758 0.820 1.889 0.888" stroke="hsl(120.0,100%,35%)" stroke-width="0.00724"></path>
<path d="M1.861 0.741 Q1.645 0.741 1.597 0.847" stroke="hsl(120.0,100%,35%)" stroke-width="0.00015"></path>
<path d="M1.861 0.741 Q1.806 0.683 1.680 0.697" stroke="hsl(120.0,100%,35%)" stroke-width="0.00015"></path>
<path d="M1.861 0.741 Q1.831 0.457 1.270 0.409" stroke="hsl(120.0,100%,35%)" stroke-width="0.00015"></path>
<path d="M1.861 0.741 Q1.933 0.644 1.759 0.587" stroke="hsl(120.0,100%,35%)" stroke-width="0.00015"></path>
<path d="M0.463 0.724 Q0.509 0.727 0.526 0.705" stroke="hsl(120.0,100%,35%)" stroke-width="0.00045"></path>
<path d="M0.463 0.724 Q0.631 0.688 0.600 0.599" stroke="hsl(120.0,100%,35%)" stroke-width="0.00045"></path>
<path d="M1.519 0.388 Q1.267 0.485 1.401 0.629" stroke="hsl(120.0,100%,35%)" stroke-width="0.00045"></path>
<path d="M1.519 0.388 Q1.785 0.221 1.517 0.054" stroke="hsl(120.0,100%,35%)" stroke-width="0.00045"></path>
<path d="M1.519 0.388 Q1.377 0.349 1.270 0.409" stroke="hsl(120.0,100%,35%)" stroke-width="0.00060"></path>
<path d="M1.519 0.388 Q1.086 0.042 0.316 0.177" stroke="hsl(120.0,100%,35%)" stroke-width="0.00015"></path>
<path d="M1.519 0.388 Q1.146 0.423 1.133 0.613" stroke="hsl(120.0,100%,35%)" stroke-width="0.00030"></path>
<path d="M1.519 0.388 Q0.890 0.310 0.600 0.599" stroke="hsl(120.0,100%,35%)" stroke-width="0.00015"></path>
<path d="M1.519 0.388 Q1.690 0.200 1.362 0.075" stroke="hsl(120.0,100%,35%)" stroke-width="0.00015"></path>
<path d="M1.519 0.388 Q1.499 0.474 1.662 0.502" stroke="hsl(120.0,100%,35%)" stroke-width="0.00015"></path>
<path d="M0.560 0.973 Q0.484 0.930 0.385 0.958" stroke="hsl(120.0,100%,35%)" stroke-width="0.00453"></path>
<path d="M0.560 0.973 Q1.679 0.684 1.362 0.075" stroke="hsl(120.0,100%,35%)" stroke-width="0.00015"></path>
<path d="M0.560 0.973 Q1.553 0.862 1.555 0.353" stroke="hsl(120.0,100%,35%)" stroke-width="0.00015"></path>
<path d="M0.560 0.973 Q1.292 1.196 1.889 0.888" stroke="hsl(120.0,100%,35%)" stroke-width="0.00030"></path>
<path d="M1.783 0.919 Q1.748 0.846 1.597 0.847" stroke="hsl(120.0,100%,35%)" stroke-width="0.00060"></path>
<path d="M1.783 0.919 Q1.861 0.925 1.889 0.888" stroke="hsl(120.0,100%,35%)" stroke-width="0.00558"></path>
<path d="M1.783 0.919 Q1.704 0.636 1.133 0.613" stroke="hsl(120.0,100%,35%)" stroke-width="0.00045"></path>
<path d="M1.783 0.919 Q1.935 0.562 1.270 0.409" stroke="hsl(120.0,100%,35%)" stroke-width="0.00030"></path>
<path d="M1.166 0.846 Q1.125 0.923 1.267 0.960" stroke="hsl(0.0,100%,35%)" stroke-width="0.00060"></path>
<path d="M1.166 0.846 Q1.013 0.411 0.131 0.391" stroke="hsl(0.0,100%,35%)" stroke-width="0.00030"></path>
<path d="M1.166 0.846 Q0.958 0.648 0.526 0.705" stroke="hsl(0.0,100%,35%)" stroke-width="0.00045"></path>
<path d="M1.267 0.960 Q1.222 0.914 1.122 0.926" stroke="hsl(0.0,100%,35%)" stroke-width="0.00015"></path>
<path d="M1.267 0.960 Q1.308 0.883 1.166 0.846" stroke="hsl(0.0,100%,35%)" stroke-width="0.00045"></path>
<path d="M1.267 0.960 Q1.031 0.591 0.258 0.625" stroke="hsl(0.0,100%,35%)" stroke-width="0.00045"></path>
<path d="M1.267 0.960 Q1.418 0.379 0.316 0.177" stroke="hsl(0.0,100%,35%)" stroke-width="0.00015"></path>
<path d="M1.423 0.488 Q0.800 0.417 0.526 0.705" stroke="hsl(120.0,100%,35%)" stroke-width="0.00015"></path>
<path d="M1.423 0.488 Q0.855 0.181 0.131 0.391" stroke="hsl(120.0,100%,35%)" stroke-width="0.00015"></path>
<path d="M1.423 0.488 Q1.723 0.269 1.362 0.075" stroke="hsl(120.0,100%,35%)" stroke-width="0.00015"></path>
<path d="M1.423 0.488 Q0.923 0.379 0.600 0.599" stroke="hsl(120.0,100%,35%)" stroke-width="0.00030"></path>
<path d="M1.423 0.488 Q0.528 0.516 0.385 0.958" stroke="hsl(120.0,100%,35%)" stroke-width="0.00015"></path>
<path d="M1.423 0.488 Q1.409 0.418 1.270 0.409" stroke="hsl(120.0,100%,35%)" stroke-width="0.00015"></path>
<path d="M0.867 0.781 Q1.075 0.369 0.316 0.177" stroke="hsl(120.0,100%,35%)" stroke-width="0.00015"></path>
<path d="M0.867 0.781 Q0.485 0.773 0.385 0.958" stroke="hsl(120.0,100%,35%)" stroke-width="0.00030"></path>
<path d="M0.867 0.781 Q0.807 0.760 0.752 0.786" stroke="hsl(120.0,100%,35%)" stroke-width="0.00015"></path>
<path d="M1.020 0.248 Q1.016 0.379 1.270 0.409" stroke="hsl(120.0,100%,35%)" stroke-width="0.00015"></path>
<path d="M1.020 0.248 Q0.135 0.476 0.385 0.958" stroke="hsl(120.0,100%,35%)" stroke-width="0.00015"></path>
<path d="M1.020 0.248 Q0.830 0.663 1.597 0.847" stroke="hsl(120.0,100%,35%)" stroke-width="0.00015"></path>
<path d="M0.798 0.976 Q1.800 0.638 1.362 0.075" stroke="hsl(120.0,100%,35%)" stroke-width="0.00015"></path>
<path d="M0.798 0.976 Q0.606 0.884 0.385 0.958" stroke="hsl(120.0,100%,35%)" stroke-width="0.00030"></path>
<path d="M0.798 0.976 Q1.675 0.816 1.555 0.353" stroke="hsl(120.0,100%,35%)" stroke-width="0.00015"></path>
</g>
<text x="1.919" y="0.422" font-size="0.025715" fill="hsl(0.0,100%,20%)">adlai</text>
<text x="1.401" y="0.603" font-size="0.052741" fill="hsl(0.0,100%,20%)">bsalomon</text>
<text x="1.903" y="0.300" font-size="0.050636" fill="hsl(0.0,100%,20%)">robertphillips</text>
<text x="1.133" y="0.590" font-size="0.044969" fill="hsl(0.0,100%,20%)">csmartdalton</text>
<text x="0.771" y="0.653" font-size="0.021366" fill="hsl(120.0,100%,20%)">rmistry</text>
<text x="0.526" y="0.692" font-size="0.026851" fill="hsl(120.0,100%,20%)">borenet</text>
<text x="0.316" y="0.163" font-size="0.028546" fill="hsl(120.0,100%,20%)">mtklein</text>
<text x="0.243" y="0.490" font-size="0.039407" fill="hsl(0.0,100%,20%)">jvanverth</text>
<text x="1.597" y="0.830" font-size="0.034376" fill="hsl(120.0,100%,20%)">reed</text>
<text x="0.131" y="0.351" font-size="0.080049" fill="hsl(240.0,100%,20%)">brianosman</text>
<text x="1.270" y="0.392" font-size="0.034991" fill="hsl(120.0,100%,20%)">kjlubick</text>
<text x="1.555" y="0.336" font-size="0.034190" fill="hsl(120.0,100%,20%)">herb</text>
<text x="0.385" y="0.941" font-size="0.034002" fill="hsl(120.0,100%,20%)">bungeman</text>
<text x="0.258" y="0.603" font-size="0.043375" fill="hsl(0.0,100%,20%)">egdaniel</text>
<text x="0.408" y="0.267" font-size="0.004619" fill="hsl(120.0,100%,20%)">bajones</text>
<text x="0.501" y="0.445" font-size="0.081632" fill="hsl(240.0,100%,20%)">johnstiles</text>
<text x="0.600" y="0.589" font-size="0.019266" fill="hsl(120.0,100%,20%)">jcgregorio</text>
<text x="0.514" y="0.625" font-size="0.007447" fill="hsl(120.0,100%,20%)">erikrose</text>
<text x="1.738" y="0.237" font-size="0.045721" fill="hsl(0.0,100%,20%)">michaelludwig</text>
<text x="1.517" y="0.047" font-size="0.013544" fill="hsl(120.0,100%,20%)">scroggo</text>
<text x="0.409" y="0.301" font-size="0.049615" fill="hsl(240.0,100%,20%)">ethannicholas</text>
<text x="0.187" y="0.730" font-size="0.012044" fill="hsl(120.0,100%,20%)">westont</text>
<text x="1.362" y="0.068" font-size="0.014894" fill="hsl(120.0,100%,20%)">djsollen</text>
<text x="0.415" y="0.844" font-size="0.019703" fill="hsl(120.0,100%,20%)">jlavrova</text>
<text x="1.889" y="0.871" font-size="0.034252" fill="hsl(120.0,100%,20%)">fmalita</text>
<text x="1.861" y="0.731" font-size="0.020551" fill="hsl(120.0,100%,20%)">jmbetancourt</text>
<text x="0.463" y="0.719" font-size="0.009003" fill="hsl(120.0,100%,20%)">hcm</text>
<text x="1.680" y="0.695" font-size="0.002921" fill="hsl(120.0,100%,20%)">stani</text>
<text x="1.519" y="0.382" font-size="0.012220" fill="hsl(120.0,100%,20%)">nifong</text>
<text x="0.742" y="0.879" font-size="0.002065" fill="hsl(120.0,100%,20%)">grieger</text>
<text x="0.560" y="0.966" font-size="0.012899" fill="hsl(120.0,100%,20%)">drott</text>
<text x="1.037" y="0.726" font-size="0.002921" fill="hsl(0.0,100%,20%)">junov</text>
<text x="1.783" y="0.909" font-size="0.019376" fill="hsl(120.0,100%,20%)">tdenniston</text>
<text x="1.166" y="0.843" font-size="0.007155" fill="hsl(0.0,100%,20%)">cwallez</text>
<text x="1.267" y="0.957" font-size="0.007155" fill="hsl(0.0,100%,20%)">senorblanco</text>
<text x="1.622" y="3.791" font-size="0.004619" fill="hsl(0.0,100%,20%)">emaxx</text>
<text x="1.423" y="0.482" font-size="0.012220" fill="hsl(120.0,100%,20%)">lovisolo</text>
<text x="1.769" y="0.501" font-size="0.002065" fill="hsl(120.0,100%,20%)">jiulongw</text>
<text x="0.867" y="0.779" font-size="0.004131" fill="hsl(120.0,100%,20%)">james</text>
<text x="0.752" y="0.785" font-size="0.002065" fill="hsl(120.0,100%,20%)">cbracken</text>
<text x="1.759" y="0.586" font-size="0.002065" fill="hsl(120.0,100%,20%)">fuego</text>
<text x="1.276" y="0.779" font-size="0.007155" fill="hsl(120.0,100%,20%)">yjbanov</text>
<text x="1.712" y="0.071" font-size="0.002065" fill="hsl(0.0,100%,20%)">fs</text>
<text x="1.662" y="0.501" font-size="0.002065" fill="hsl(120.0,100%,20%)">alecmouri</text>
<text x="1.020" y="0.246" font-size="0.003578" fill="hsl(120.0,100%,20%)">pkasting</text>
<text x="1.613" y="0.708" font-size="0.002065" fill="hsl(120.0,100%,20%)">whesse</text>
<text x="1.511" y="0.932" font-size="0.002065" fill="hsl(120.0,100%,20%)">mdebbar</text>
<text x="1.394" y="0.187" font-size="0.002921" fill="hsl(120.0,100%,20%)">nigeltao</text>
<text x="1.122" y="0.925" font-size="0.002065" fill="hsl(0.0,100%,20%)">enga</text>
<text x="0.798" y="0.974" font-size="0.004131" fill="hsl(120.0,100%,20%)">thestig</text>
</svg>
