<svg width="4000" height="2000" viewBox="-0.025 -0.025 2.05 1.05" xmlns="http://www.w3.org/2000/svg">
  <style>
    path {
      fill: none;
      stroke-linecap: round;
      stroke-opacity: 0.4;
    }

    text {
      text-anchor: middle;
      alignment-baseline: hanging;
    }
  </style>
  <g opacity="0.4">
<path d="M0.746 0.599 Q0.271 0.710 0.383 0.966" stroke="hsl(0.0,100%,35%)" stroke-width="0.00199"></path>
<path d="M0.746 0.599 Q0.647 0.530 0.490 0.564" stroke="hsl(0.0,100%,35%)" stroke-width="0.01058"></path>
<path d="M0.746 0.599 Q0.322 0.567 0.165 0.766" stroke="hsl(0.0,100%,35%)" stroke-width="0.00046"></path>
<path d="M0.746 0.599 Q1.338 0.488 1.251 0.175" stroke="hsl(0.0,100%,35%)" stroke-width="0.00061"></path>
<path d="M0.746 0.599 Q1.526 0.474 1.452 0.066" stroke="hsl(0.0,100%,35%)" stroke-width="0.00046"></path>
<path d="M0.746 0.599 Q1.249 0.759 1.671 0.549" stroke="hsl(0.0,100%,35%)" stroke-width="0.00046"></path>
<path d="M0.746 0.599 Q0.790 0.278 0.174 0.187" stroke="hsl(0.0,100%,35%)" stroke-width="0.00046"></path>
<path d="M0.746 0.599 Q1.459 0.687 1.786 0.358" stroke="hsl(0.0,100%,35%)" stroke-width="0.00015"></path>
<path d="M0.746 0.599 Q1.271 0.707 1.597 0.474" stroke="hsl(0.0,100%,35%)" stroke-width="0.00015"></path>
<path d="M0.746 0.599 Q0.854 0.460 0.606 0.377" stroke="hsl(0.0,100%,35%)" stroke-width="0.00031"></path>
<path d="M0.746 0.599 Q0.540 0.585 0.466 0.682" stroke="hsl(0.0,100%,35%)" stroke-width="0.00031"></path>
<path d="M0.746 0.599 Q0.906 0.923 1.572 0.915" stroke="hsl(0.0,100%,35%)" stroke-width="0.00015"></path>
<path d="M0.746 0.599 Q0.963 0.292 0.411 0.119" stroke="hsl(0.0,100%,35%)" stroke-width="0.00031"></path>
<path d="M0.383 0.966 Q1.075 0.548 0.411 0.119" stroke="hsl(0.0,100%,35%)" stroke-width="0.00690"></path>
<path d="M0.383 0.966 Q1.383 0.963 1.597 0.474" stroke="hsl(0.0,100%,35%)" stroke-width="0.00582"></path>
<path d="M0.383 0.966 Q1.018 1.179 1.572 0.915" stroke="hsl(0.0,100%,35%)" stroke-width="0.00046"></path>
<path d="M0.383 0.966 Q0.747 0.620 0.151 0.366" stroke="hsl(0.0,100%,35%)" stroke-width="0.00812"></path>
<path d="M0.383 0.966 Q1.265 1.079 1.679 0.674" stroke="hsl(0.0,100%,35%)" stroke-width="0.00123"></path>
<path d="M0.383 0.966 Q0.759 0.786 0.490 0.564" stroke="hsl(0.0,100%,35%)" stroke-width="0.00828"></path>
<path d="M0.383 0.966 Q1.300 0.694 0.970 0.187" stroke="hsl(0.0,100%,35%)" stroke-width="0.00015"></path>
<path d="M0.383 0.966 Q1.193 0.722 0.894 0.273" stroke="hsl(0.0,100%,35%)" stroke-width="0.00046"></path>
<path d="M0.383 0.966 Q0.652 0.841 0.466 0.682" stroke="hsl(0.0,100%,35%)" stroke-width="0.00031"></path>
<path d="M0.383 0.966 Q0.434 0.823 0.165 0.766" stroke="hsl(0.0,100%,35%)" stroke-width="0.00123"></path>
<path d="M0.383 0.966 Q0.902 0.535 0.174 0.187" stroke="hsl(0.0,100%,35%)" stroke-width="0.00322"></path>
<path d="M0.383 0.966 Q1.198 0.936 1.318 0.532" stroke="hsl(0.0,100%,35%)" stroke-width="0.00046"></path>
<path d="M0.383 0.966 Q1.571 0.943 1.786 0.358" stroke="hsl(0.0,100%,35%)" stroke-width="0.00077"></path>
<path d="M0.383 0.966 Q0.858 0.856 0.746 0.599" stroke="hsl(0.0,100%,35%)" stroke-width="0.00123"></path>
<path d="M0.383 0.966 Q1.334 0.797 1.213 0.296" stroke="hsl(0.0,100%,35%)" stroke-width="0.00015"></path>
<path d="M0.383 0.966 Q0.944 0.800 0.742 0.490" stroke="hsl(0.0,100%,35%)" stroke-width="0.00031"></path>
<path d="M0.383 0.966 Q1.361 1.015 1.671 0.549" stroke="hsl(0.0,100%,35%)" stroke-width="0.00046"></path>
<path d="M0.383 0.966 Q1.638 0.730 1.452 0.066" stroke="hsl(0.0,100%,35%)" stroke-width="0.00015"></path>
<path d="M0.490 0.564 Q1.115 0.740 1.597 0.474" stroke="hsl(0.0,100%,35%)" stroke-width="0.00123"></path>
<path d="M0.490 0.564 Q0.478 0.397 0.151 0.366" stroke="hsl(0.0,100%,35%)" stroke-width="0.01517"></path>
<path d="M0.490 0.564 Q0.634 0.312 0.174 0.187" stroke="hsl(0.0,100%,35%)" stroke-width="0.00276"></path>
<path d="M0.490 0.564 Q0.166 0.600 0.165 0.766" stroke="hsl(0.0,100%,35%)" stroke-width="0.00138"></path>
<path d="M0.490 0.564 Q0.114 0.744 0.383 0.966" stroke="hsl(0.0,100%,35%)" stroke-width="0.00460"></path>
<path d="M0.490 0.564 Q1.369 0.507 1.452 0.066" stroke="hsl(0.0,100%,35%)" stroke-width="0.00092"></path>
<path d="M0.490 0.564 Q0.806 0.325 0.411 0.119" stroke="hsl(0.0,100%,35%)" stroke-width="0.00490"></path>
<path d="M0.490 0.564 Q0.698 0.493 0.606 0.377" stroke="hsl(0.0,100%,35%)" stroke-width="0.00031"></path>
<path d="M0.490 0.564 Q0.996 0.856 1.679 0.674" stroke="hsl(0.0,100%,35%)" stroke-width="0.00015"></path>
<path d="M0.490 0.564 Q1.232 0.624 1.513 0.275" stroke="hsl(0.0,100%,35%)" stroke-width="0.00061"></path>
<path d="M0.490 0.564 Q0.533 0.904 1.206 0.957" stroke="hsl(0.0,100%,35%)" stroke-width="0.00015"></path>
<path d="M0.490 0.564 Q0.750 0.956 1.572 0.915" stroke="hsl(0.0,100%,35%)" stroke-width="0.00031"></path>
<path d="M0.490 0.564 Q1.303 0.720 1.786 0.358" stroke="hsl(0.0,100%,35%)" stroke-width="0.00031"></path>
<path d="M0.490 0.564 Q0.589 0.633 0.746 0.599" stroke="hsl(0.0,100%,35%)" stroke-width="0.00107"></path>
<path d="M0.490 0.564 Q1.236 0.434 1.147 0.042" stroke="hsl(0.0,100%,35%)" stroke-width="0.00015"></path>
<path d="M0.490 0.564 Q1.032 0.471 0.970 0.187" stroke="hsl(0.0,100%,35%)" stroke-width="0.00015"></path>
<path d="M0.165 0.766 Q0.633 0.478 0.174 0.187" stroke="hsl(0.0,100%,35%)" stroke-width="0.00291"></path>
<path d="M0.165 0.766 Q0.478 0.563 0.151 0.366" stroke="hsl(0.0,100%,35%)" stroke-width="0.01088"></path>
<path d="M0.165 0.766 Q0.806 0.492 0.411 0.119" stroke="hsl(0.0,100%,35%)" stroke-width="0.00812"></path>
<path d="M0.165 0.766 Q1.295 0.747 1.506 0.192" stroke="hsl(0.0,100%,35%)" stroke-width="0.00015"></path>
<path d="M0.165 0.766 Q0.490 0.730 0.490 0.564" stroke="hsl(0.0,100%,35%)" stroke-width="0.00736"></path>
<path d="M0.165 0.766 Q1.114 0.906 1.597 0.474" stroke="hsl(0.0,100%,35%)" stroke-width="0.00368"></path>
<path d="M0.165 0.766 Q0.383 0.784 0.466 0.682" stroke="hsl(0.0,100%,35%)" stroke-width="0.00077"></path>
<path d="M0.165 0.766 Q0.114 0.910 0.383 0.966" stroke="hsl(0.0,100%,35%)" stroke-width="0.01487"></path>
<path d="M0.165 0.766 Q0.996 1.023 1.679 0.674" stroke="hsl(0.0,100%,35%)" stroke-width="0.00261"></path>
<path d="M0.165 0.766 Q0.749 1.122 1.572 0.915" stroke="hsl(0.0,100%,35%)" stroke-width="0.00015"></path>
<path d="M0.165 0.766 Q0.310 0.864 0.533 0.815" stroke="hsl(0.0,100%,35%)" stroke-width="0.00031"></path>
<path d="M0.165 0.766 Q1.083 0.588 0.936 0.101" stroke="hsl(0.0,100%,35%)" stroke-width="0.00015"></path>
<path d="M0.165 0.766 Q0.697 0.659 0.606 0.377" stroke="hsl(0.0,100%,35%)" stroke-width="0.00107"></path>
<path d="M0.165 0.766 Q0.589 0.799 0.746 0.599" stroke="hsl(0.0,100%,35%)" stroke-width="0.00230"></path>
<path d="M0.165 0.766 Q1.302 0.886 1.786 0.358" stroke="hsl(0.0,100%,35%)" stroke-width="0.00046"></path>
<path d="M0.165 0.766 Q1.086 0.802 1.359 0.361" stroke="hsl(0.0,100%,35%)" stroke-width="0.00138"></path>
<path d="M0.165 0.766 Q0.937 0.585 0.754 0.169" stroke="hsl(0.0,100%,35%)" stroke-width="0.00015"></path>
<path d="M0.165 0.766 Q1.092 0.959 1.671 0.549" stroke="hsl(0.0,100%,35%)" stroke-width="0.00015"></path>
<path d="M0.165 0.766 Q1.369 0.673 1.452 0.066" stroke="hsl(0.0,100%,35%)" stroke-width="0.00015"></path>
<path d="M1.251 0.175 Q0.767 0.147 0.606 0.377" stroke="hsl(120.0,100%,35%)" stroke-width="0.00077"></path>
<path d="M1.251 0.175 Q1.153 0.075 0.936 0.101" stroke="hsl(120.0,100%,35%)" stroke-width="0.00184"></path>
<path d="M1.251 0.175 Q0.871 0.211 0.858 0.405" stroke="hsl(120.0,100%,35%)" stroke-width="0.00015"></path>
<path d="M1.251 0.175 Q1.185 0.394 1.597 0.474" stroke="hsl(120.0,100%,35%)" stroke-width="0.00015"></path>
<path d="M1.251 0.175 Q0.560 0.217 0.490 0.564" stroke="hsl(120.0,100%,35%)" stroke-width="0.00138"></path>
<path d="M1.251 0.175 Q1.439 0.161 1.452 0.066" stroke="hsl(120.0,100%,35%)" stroke-width="0.00322"></path>
<path d="M1.251 0.175 Q1.101 0.125 0.970 0.187" stroke="hsl(120.0,100%,35%)" stroke-width="0.00015"></path>
<path d="M1.251 0.175 Q0.819 0.609 1.572 0.915" stroke="hsl(120.0,100%,35%)" stroke-width="0.00015"></path>
<path d="M1.251 0.175 Q0.235 0.253 0.165 0.766" stroke="hsl(120.0,100%,35%)" stroke-width="0.00061"></path>
<path d="M1.452 0.066 Q1.264 0.080 1.251 0.175" stroke="hsl(120.0,100%,35%)" stroke-width="0.00383"></path>
<path d="M1.452 0.066 Q1.166 -0.020 0.936 0.101" stroke="hsl(120.0,100%,35%)" stroke-width="0.00046"></path>
<path d="M1.452 0.066 Q1.079 0.415 1.679 0.674" stroke="hsl(120.0,100%,35%)" stroke-width="0.00031"></path>
<path d="M1.452 0.066 Q1.070 0.111 1.074 0.307" stroke="hsl(120.0,100%,35%)" stroke-width="0.00031"></path>
<path d="M1.452 0.066 Q0.561 -0.044 0.151 0.366" stroke="hsl(120.0,100%,35%)" stroke-width="0.00015"></path>
<path d="M1.452 0.066 Q1.021 -0.022 0.754 0.169" stroke="hsl(120.0,100%,35%)" stroke-width="0.00015"></path>
<path d="M1.452 0.066 Q1.012 0.272 1.318 0.532" stroke="hsl(120.0,100%,35%)" stroke-width="0.00015"></path>
<path d="M1.452 0.066 Q0.197 0.302 0.383 0.966" stroke="hsl(120.0,100%,35%)" stroke-width="0.00015"></path>
<path d="M1.452 0.066 Q0.889 -0.116 0.411 0.119" stroke="hsl(120.0,100%,35%)" stroke-width="0.00015"></path>
<path d="M1.452 0.066 Q0.781 0.052 0.606 0.377" stroke="hsl(120.0,100%,35%)" stroke-width="0.00031"></path>
<path d="M1.452 0.066 Q1.319 -0.007 1.147 0.042" stroke="hsl(120.0,100%,35%)" stroke-width="0.00092"></path>
<path d="M1.671 0.549 Q1.694 0.497 1.597 0.474" stroke="hsl(120.0,100%,35%)" stroke-width="0.00567"></path>
<path d="M1.671 0.549 Q1.882 0.476 1.786 0.358" stroke="hsl(120.0,100%,35%)" stroke-width="0.00138"></path>
<path d="M1.671 0.549 Q0.693 0.500 0.383 0.966" stroke="hsl(120.0,100%,35%)" stroke-width="0.00046"></path>
<path d="M1.671 0.549 Q0.745 0.356 0.165 0.766" stroke="hsl(120.0,100%,35%)" stroke-width="0.00015"></path>
<path d="M1.671 0.549 Q1.949 0.264 1.452 0.066" stroke="hsl(120.0,100%,35%)" stroke-width="0.00353"></path>
<path d="M1.671 0.549 Q1.812 0.380 1.513 0.275" stroke="hsl(120.0,100%,35%)" stroke-width="0.00031"></path>
<path d="M1.671 0.549 Q1.815 0.191 1.147 0.042" stroke="hsl(120.0,100%,35%)" stroke-width="0.00031"></path>
<path d="M1.671 0.549 Q1.213 0.068 0.174 0.187" stroke="hsl(120.0,100%,35%)" stroke-width="0.00015"></path>
<path d="M1.671 0.549 Q1.169 0.389 0.746 0.599" stroke="hsl(120.0,100%,35%)" stroke-width="0.00046"></path>
<path d="M1.671 0.549 Q0.962 0.375 0.466 0.682" stroke="hsl(120.0,100%,35%)" stroke-width="0.00230"></path>
<path d="M1.671 0.549 Q1.575 0.613 1.679 0.674" stroke="hsl(120.0,100%,35%)" stroke-width="0.00015"></path>
<path d="M0.174 0.187 Q0.018 0.272 0.151 0.366" stroke="hsl(0.0,100%,35%)" stroke-width="0.00291"></path>
<path d="M0.174 0.187 Q0.030 0.438 0.490 0.564" stroke="hsl(0.0,100%,35%)" stroke-width="0.00368"></path>
<path d="M0.174 0.187 Q0.238 0.368 0.606 0.377" stroke="hsl(0.0,100%,35%)" stroke-width="0.00031"></path>
<path d="M0.174 0.187 Q0.346 0.200 0.411 0.119" stroke="hsl(0.0,100%,35%)" stroke-width="0.01226"></path>
<path d="M0.174 0.187 Q0.536 0.731 1.679 0.674" stroke="hsl(0.0,100%,35%)" stroke-width="0.00199"></path>
<path d="M0.174 0.187 Q0.655 0.615 1.597 0.474" stroke="hsl(0.0,100%,35%)" stroke-width="0.00368"></path>
<path d="M0.174 0.187 Q-0.294 0.475 0.165 0.766" stroke="hsl(0.0,100%,35%)" stroke-width="0.00061"></path>
<path d="M0.174 0.187 Q0.469 0.588 1.318 0.532" stroke="hsl(0.0,100%,35%)" stroke-width="0.00015"></path>
<path d="M0.174 0.187 Q-0.345 0.618 0.383 0.966" stroke="hsl(0.0,100%,35%)" stroke-width="0.00276"></path>
<path d="M0.174 0.187 Q0.527 0.427 1.074 0.307" stroke="hsl(0.0,100%,35%)" stroke-width="0.00015"></path>
<path d="M0.174 0.187 Q0.290 0.831 1.572 0.915" stroke="hsl(0.0,100%,35%)" stroke-width="0.00015"></path>
<path d="M0.174 0.187 Q0.130 0.507 0.746 0.599" stroke="hsl(0.0,100%,35%)" stroke-width="0.00046"></path>
<path d="M0.174 0.187 Q0.910 0.382 1.452 0.066" stroke="hsl(0.0,100%,35%)" stroke-width="0.00015"></path>
<path d="M0.174 0.187 Q0.843 0.595 1.786 0.358" stroke="hsl(0.0,100%,35%)" stroke-width="0.00015"></path>
<path d="M0.174 0.187 Q0.776 0.309 1.147 0.042" stroke="hsl(0.0,100%,35%)" stroke-width="0.00015"></path>
<path d="M0.174 0.187 Q0.478 0.294 0.754 0.169" stroke="hsl(0.0,100%,35%)" stroke-width="0.00015"></path>
<path d="M1.786 0.358 Q1.515 0.109 0.970 0.187" stroke="hsl(120.0,100%,35%)" stroke-width="0.00015"></path>
<path d="M1.786 0.358 Q0.867 0.256 0.466 0.682" stroke="hsl(120.0,100%,35%)" stroke-width="0.00123"></path>
<path d="M1.786 0.358 Q1.716 0.262 1.513 0.275" stroke="hsl(120.0,100%,35%)" stroke-width="0.00506"></path>
<path d="M1.786 0.358 Q0.598 0.382 0.383 0.966" stroke="hsl(120.0,100%,35%)" stroke-width="0.00107"></path>
<path d="M1.786 0.358 Q2.017 0.282 1.920 0.153" stroke="hsl(120.0,100%,35%)" stroke-width="0.00015"></path>
<path d="M1.786 0.358 Q1.570 0.274 1.359 0.361" stroke="hsl(120.0,100%,35%)" stroke-width="0.00046"></path>
<path d="M1.786 0.358 Q1.598 0.378 1.597 0.474" stroke="hsl(120.0,100%,35%)" stroke-width="0.00230"></path>
<path d="M1.786 0.358 Q1.479 0.494 1.679 0.674" stroke="hsl(120.0,100%,35%)" stroke-width="0.00046"></path>
<path d="M1.786 0.358 Q0.961 0.035 0.151 0.366" stroke="hsl(120.0,100%,35%)" stroke-width="0.00077"></path>
<path d="M1.786 0.358 Q1.181 0.131 0.606 0.377" stroke="hsl(120.0,100%,35%)" stroke-width="0.00261"></path>
<path d="M1.786 0.358 Q1.233 0.594 1.572 0.915" stroke="hsl(120.0,100%,35%)" stroke-width="0.00077"></path>
<path d="M1.786 0.358 Q1.922 0.332 1.900 0.260" stroke="hsl(120.0,100%,35%)" stroke-width="0.00123"></path>
<path d="M1.786 0.358 Q1.881 0.286 1.761 0.223" stroke="hsl(120.0,100%,35%)" stroke-width="0.00015"></path>
<path d="M1.786 0.358 Q0.649 0.238 0.165 0.766" stroke="hsl(120.0,100%,35%)" stroke-width="0.00015"></path>
<path d="M1.786 0.358 Q1.016 0.542 1.206 0.957" stroke="hsl(120.0,100%,35%)" stroke-width="0.00184"></path>
<path d="M1.786 0.358 Q1.408 0.137 0.894 0.273" stroke="hsl(120.0,100%,35%)" stroke-width="0.00015"></path>
<path d="M1.786 0.358 Q1.575 0.431 1.671 0.549" stroke="hsl(120.0,100%,35%)" stroke-width="0.00061"></path>
<path d="M1.786 0.358 Q1.421 0.057 0.754 0.169" stroke="hsl(120.0,100%,35%)" stroke-width="0.00015"></path>
<path d="M1.597 0.474 Q0.596 0.478 0.383 0.966" stroke="hsl(240.0,100%,35%)" stroke-width="0.01180"></path>
<path d="M1.597 0.474 Q0.960 0.131 0.151 0.366" stroke="hsl(240.0,100%,35%)" stroke-width="0.00659"></path>
<path d="M1.597 0.474 Q1.565 0.155 0.936 0.101" stroke="hsl(240.0,100%,35%)" stroke-width="0.00107"></path>
<path d="M1.597 0.474 Q1.513 0.205 0.970 0.187" stroke="hsl(240.0,100%,35%)" stroke-width="0.00031"></path>
<path d="M1.597 0.474 Q1.406 0.233 0.894 0.273" stroke="hsl(240.0,100%,35%)" stroke-width="0.00123"></path>
<path d="M1.597 0.474 Q1.478 0.590 1.679 0.674" stroke="hsl(240.0,100%,35%)" stroke-width="0.02468"></path>
<path d="M1.597 0.474 Q1.179 0.227 0.606 0.377" stroke="hsl(240.0,100%,35%)" stroke-width="0.00276"></path>
<path d="M1.597 0.474 Q1.420 0.153 0.754 0.169" stroke="hsl(240.0,100%,35%)" stroke-width="0.00031"></path>
<path d="M1.597 0.474 Q0.972 0.298 0.490 0.564" stroke="hsl(240.0,100%,35%)" stroke-width="0.00123"></path>
<path d="M1.597 0.474 Q1.288 0.060 0.411 0.119" stroke="hsl(240.0,100%,35%)" stroke-width="0.00123"></path>
<path d="M1.597 0.474 Q1.411 0.448 1.318 0.532" stroke="hsl(240.0,100%,35%)" stroke-width="0.00460"></path>
<path d="M1.597 0.474 Q0.865 0.352 0.466 0.682" stroke="hsl(240.0,100%,35%)" stroke-width="0.00123"></path>
<path d="M1.597 0.474 Q1.015 0.638 1.206 0.957" stroke="hsl(240.0,100%,35%)" stroke-width="0.00015"></path>
<path d="M1.597 0.474 Q1.663 0.256 1.251 0.175" stroke="hsl(240.0,100%,35%)" stroke-width="0.00031"></path>
<path d="M1.597 0.474 Q0.647 0.334 0.165 0.766" stroke="hsl(240.0,100%,35%)" stroke-width="0.00077"></path>
<path d="M1.597 0.474 Q1.115 0.046 0.174 0.187" stroke="hsl(240.0,100%,35%)" stroke-width="0.00046"></path>
<path d="M1.597 0.474 Q1.851 0.241 1.452 0.066" stroke="hsl(240.0,100%,35%)" stroke-width="0.00107"></path>
<path d="M1.597 0.474 Q1.784 0.454 1.786 0.358" stroke="hsl(240.0,100%,35%)" stroke-width="0.00291"></path>
<path d="M1.597 0.474 Q1.714 0.358 1.513 0.275" stroke="hsl(240.0,100%,35%)" stroke-width="0.00077"></path>
<path d="M1.597 0.474 Q1.231 0.690 1.572 0.915" stroke="hsl(240.0,100%,35%)" stroke-width="0.00015"></path>
<path d="M1.597 0.474 Q1.777 0.315 1.506 0.192" stroke="hsl(240.0,100%,35%)" stroke-width="0.00031"></path>
<path d="M1.597 0.474 Q1.574 0.527 1.671 0.549" stroke="hsl(240.0,100%,35%)" stroke-width="0.00399"></path>
<path d="M0.606 0.377 Q0.992 0.305 0.936 0.101" stroke="hsl(120.0,100%,35%)" stroke-width="0.00230"></path>
<path d="M0.606 0.377 Q0.658 0.839 1.572 0.915" stroke="hsl(120.0,100%,35%)" stroke-width="0.00414"></path>
<path d="M0.606 0.377 Q0.292 0.501 0.466 0.682" stroke="hsl(120.0,100%,35%)" stroke-width="0.00046"></path>
<path d="M0.606 0.377 Q0.709 0.441 0.858 0.405" stroke="hsl(120.0,100%,35%)" stroke-width="0.00399"></path>
<path d="M0.606 0.377 Q0.023 0.627 0.383 0.966" stroke="hsl(120.0,100%,35%)" stroke-width="0.00169"></path>
<path d="M0.606 0.377 Q1.090 0.405 1.251 0.175" stroke="hsl(120.0,100%,35%)" stroke-width="0.00215"></path>
<path d="M0.606 0.377 Q1.023 0.624 1.597 0.474" stroke="hsl(120.0,100%,35%)" stroke-width="0.00353"></path>
<path d="M0.606 0.377 Q1.278 0.391 1.452 0.066" stroke="hsl(120.0,100%,35%)" stroke-width="0.00276"></path>
<path d="M0.606 0.377 Q1.347 0.577 1.900 0.260" stroke="hsl(120.0,100%,35%)" stroke-width="0.00015"></path>
<path d="M0.606 0.377 Q0.583 0.460 0.742 0.490" stroke="hsl(120.0,100%,35%)" stroke-width="0.00245"></path>
<path d="M0.606 0.377 Q0.387 0.280 0.151 0.366" stroke="hsl(120.0,100%,35%)" stroke-width="0.00031"></path>
<path d="M0.606 0.377 Q0.715 0.209 0.411 0.119" stroke="hsl(120.0,100%,35%)" stroke-width="0.00061"></path>
<path d="M0.606 0.377 Q0.846 0.302 0.754 0.169" stroke="hsl(120.0,100%,35%)" stroke-width="0.00061"></path>
<path d="M0.606 0.377 Q0.399 0.447 0.490 0.564" stroke="hsl(120.0,100%,35%)" stroke-width="0.00046"></path>
<path d="M0.606 0.377 Q0.905 0.740 1.679 0.674" stroke="hsl(120.0,100%,35%)" stroke-width="0.00092"></path>
<path d="M0.606 0.377 Q0.895 0.436 1.074 0.307" stroke="hsl(120.0,100%,35%)" stroke-width="0.00031"></path>
<path d="M0.606 0.377 Q1.141 0.507 1.513 0.275" stroke="hsl(120.0,100%,35%)" stroke-width="0.00031"></path>
<path d="M0.606 0.377 Q1.211 0.603 1.786 0.358" stroke="hsl(120.0,100%,35%)" stroke-width="0.00107"></path>
<path d="M0.606 0.377 Q0.074 0.483 0.165 0.766" stroke="hsl(120.0,100%,35%)" stroke-width="0.00015"></path>
<path d="M0.606 0.377 Q1.204 0.464 1.506 0.192" stroke="hsl(120.0,100%,35%)" stroke-width="0.00031"></path>
<path d="M0.606 0.377 Q0.995 0.519 1.359 0.361" stroke="hsl(120.0,100%,35%)" stroke-width="0.00015"></path>
<path d="M0.606 0.377 Q0.833 0.382 0.894 0.273" stroke="hsl(120.0,100%,35%)" stroke-width="0.00015"></path>
<path d="M0.606 0.377 Q0.542 0.195 0.174 0.187" stroke="hsl(120.0,100%,35%)" stroke-width="0.00015"></path>
<path d="M0.606 0.377 Q0.441 0.787 1.206 0.957" stroke="hsl(120.0,100%,35%)" stroke-width="0.00031"></path>
<path d="M0.606 0.377 Q1.145 0.317 1.147 0.042" stroke="hsl(120.0,100%,35%)" stroke-width="0.00015"></path>
<path d="M0.466 0.682 Q0.573 0.628 0.490 0.564" stroke="hsl(0.0,100%,35%)" stroke-width="0.00996"></path>
<path d="M0.466 0.682 Q0.833 1.020 1.572 0.915" stroke="hsl(0.0,100%,35%)" stroke-width="0.00506"></path>
<path d="M0.466 0.682 Q1.198 0.804 1.597 0.474" stroke="hsl(0.0,100%,35%)" stroke-width="0.00690"></path>
<path d="M0.466 0.682 Q0.197 0.808 0.383 0.966" stroke="hsl(0.0,100%,35%)" stroke-width="0.00092"></path>
<path d="M0.466 0.682 Q1.012 0.778 1.318 0.532" stroke="hsl(0.0,100%,35%)" stroke-width="0.00015"></path>
<path d="M0.466 0.682 Q1.386 0.784 1.786 0.358" stroke="hsl(0.0,100%,35%)" stroke-width="0.00230"></path>
<path d="M0.466 0.682 Q0.249 0.664 0.165 0.766" stroke="hsl(0.0,100%,35%)" stroke-width="0.00077"></path>
<path d="M0.466 0.682 Q1.079 0.920 1.679 0.674" stroke="hsl(0.0,100%,35%)" stroke-width="0.00046"></path>
<path d="M0.466 0.682 Q0.404 0.740 0.502 0.783" stroke="hsl(0.0,100%,35%)" stroke-width="0.00015"></path>
<path d="M0.466 0.682 Q0.781 0.557 0.606 0.377" stroke="hsl(0.0,100%,35%)" stroke-width="0.00015"></path>
<path d="M0.466 0.682 Q0.672 0.697 0.746 0.599" stroke="hsl(0.0,100%,35%)" stroke-width="0.00031"></path>
<path d="M0.466 0.682 Q0.616 0.968 1.206 0.957" stroke="hsl(0.0,100%,35%)" stroke-width="0.00061"></path>
<path d="M0.466 0.682 Q0.561 0.461 0.151 0.366" stroke="hsl(0.0,100%,35%)" stroke-width="0.00077"></path>
<path d="M1.572 0.915 Q1.747 0.458 0.894 0.273" stroke="hsl(120.0,100%,35%)" stroke-width="0.00046"></path>
<path d="M1.572 0.915 Q1.206 0.578 0.466 0.682" stroke="hsl(120.0,100%,35%)" stroke-width="0.00552"></path>
<path d="M1.572 0.915 Q1.301 0.357 0.151 0.366" stroke="hsl(120.0,100%,35%)" stroke-width="0.00031"></path>
<path d="M1.572 0.915 Q1.520 0.453 0.606 0.377" stroke="hsl(120.0,100%,35%)" stroke-width="0.00061"></path>
<path d="M1.572 0.915 Q1.355 0.863 1.206 0.957" stroke="hsl(120.0,100%,35%)" stroke-width="0.00107"></path>
<path d="M1.572 0.915 Q1.937 0.700 1.597 0.474" stroke="hsl(120.0,100%,35%)" stroke-width="0.00107"></path>
<path d="M1.572 0.915 Q1.819 0.816 1.679 0.674" stroke="hsl(120.0,100%,35%)" stroke-width="0.00061"></path>
<path d="M1.572 0.915 Q1.629 0.285 0.411 0.119" stroke="hsl(120.0,100%,35%)" stroke-width="0.00061"></path>
<path d="M1.572 0.915 Q1.854 0.431 0.970 0.187" stroke="hsl(120.0,100%,35%)" stroke-width="0.00046"></path>
<path d="M1.572 0.915 Q2.125 0.679 1.786 0.358" stroke="hsl(120.0,100%,35%)" stroke-width="0.00184"></path>
<path d="M1.572 0.915 Q1.313 0.523 0.490 0.564" stroke="hsl(120.0,100%,35%)" stroke-width="0.00046"></path>
<path d="M1.572 0.915 Q1.600 0.823 1.425 0.789" stroke="hsl(120.0,100%,35%)" stroke-width="0.00015"></path>
<path d="M1.572 0.915 Q2.055 0.583 1.513 0.275" stroke="hsl(120.0,100%,35%)" stroke-width="0.00092"></path>
<path d="M1.572 0.915 Q1.467 0.917 1.446 0.969" stroke="hsl(120.0,100%,35%)" stroke-width="0.00077"></path>
<path d="M1.572 0.915 Q1.915 0.752 1.671 0.549" stroke="hsl(120.0,100%,35%)" stroke-width="0.00123"></path>
<path d="M1.572 0.915 Q1.760 0.379 0.754 0.169" stroke="hsl(120.0,100%,35%)" stroke-width="0.00015"></path>
<path d="M1.572 0.915 Q1.456 0.271 0.174 0.187" stroke="hsl(120.0,100%,35%)" stroke-width="0.00015"></path>
<path d="M0.411 0.119 Q0.095 0.357 0.490 0.564" stroke="hsl(0.0,100%,35%)" stroke-width="0.00414"></path>
<path d="M0.411 0.119 Q0.083 0.191 0.151 0.366" stroke="hsl(0.0,100%,35%)" stroke-width="0.00215"></path>
<path d="M0.411 0.119 Q-0.230 0.393 0.165 0.766" stroke="hsl(0.0,100%,35%)" stroke-width="0.00245"></path>
<path d="M0.411 0.119 Q0.238 0.105 0.174 0.187" stroke="hsl(0.0,100%,35%)" stroke-width="0.00904"></path>
<path d="M0.411 0.119 Q-0.281 0.537 0.383 0.966" stroke="hsl(0.0,100%,35%)" stroke-width="0.00567"></path>
<path d="M0.411 0.119 Q0.720 0.534 1.597 0.474" stroke="hsl(0.0,100%,35%)" stroke-width="0.00061"></path>
<path d="M0.411 0.119 Q0.354 0.749 1.572 0.915" stroke="hsl(0.0,100%,35%)" stroke-width="0.00031"></path>
<path d="M0.411 0.119 Q0.302 0.287 0.606 0.377" stroke="hsl(0.0,100%,35%)" stroke-width="0.00015"></path>
<path d="M0.411 0.119 Q0.534 0.507 1.318 0.532" stroke="hsl(0.0,100%,35%)" stroke-width="0.00015"></path>
<path d="M0.411 0.119 Q0.974 0.301 1.452 0.066" stroke="hsl(0.0,100%,35%)" stroke-width="0.00015"></path>
<path d="M0.411 0.119 Q0.529 0.292 0.894 0.273" stroke="hsl(0.0,100%,35%)" stroke-width="0.00015"></path>
<path d="M0.411 0.119 Q0.907 0.513 1.786 0.358" stroke="hsl(0.0,100%,35%)" stroke-width="0.00015"></path>
<path d="M0.411 0.119 Q0.543 0.213 0.754 0.169" stroke="hsl(0.0,100%,35%)" stroke-width="0.00015"></path>
<path d="M1.254 0.993 Q1.840 0.802 1.597 0.474" stroke="hsl(240.0,100%,35%)" stroke-width="0.00015"></path>
<path d="M1.254 0.993 Q2.095 0.569 1.452 0.066" stroke="hsl(240.0,100%,35%)" stroke-width="0.00015"></path>
<path d="M1.254 0.993 Q1.722 0.918 1.679 0.674" stroke="hsl(240.0,100%,35%)" stroke-width="0.00046"></path>
<path d="M1.679 0.674 Q1.161 0.214 0.151 0.366" stroke="hsl(240.0,100%,35%)" stroke-width="0.00184"></path>
<path d="M1.679 0.674 Q1.766 0.239 0.936 0.101" stroke="hsl(240.0,100%,35%)" stroke-width="0.00031"></path>
<path d="M1.679 0.674 Q1.380 0.311 0.606 0.377" stroke="hsl(240.0,100%,35%)" stroke-width="0.00107"></path>
<path d="M1.679 0.674 Q1.797 0.558 1.597 0.474" stroke="hsl(240.0,100%,35%)" stroke-width="0.10361"></path>
<path d="M1.679 0.674 Q1.612 0.531 1.318 0.532" stroke="hsl(240.0,100%,35%)" stroke-width="0.04077"></path>
<path d="M1.679 0.674 Q1.978 0.398 1.506 0.192" stroke="hsl(240.0,100%,35%)" stroke-width="0.00031"></path>
<path d="M1.679 0.674 Q1.432 0.773 1.572 0.915" stroke="hsl(240.0,100%,35%)" stroke-width="0.00061"></path>
<path d="M1.679 0.674 Q1.215 0.721 1.206 0.957" stroke="hsl(240.0,100%,35%)" stroke-width="0.00107"></path>
<path d="M1.679 0.674 Q1.066 0.436 0.466 0.682" stroke="hsl(240.0,100%,35%)" stroke-width="0.00107"></path>
<path d="M1.679 0.674 Q0.848 0.417 0.165 0.766" stroke="hsl(240.0,100%,35%)" stroke-width="0.00046"></path>
<path d="M1.679 0.674 Q1.489 0.143 0.411 0.119" stroke="hsl(240.0,100%,35%)" stroke-width="0.00215"></path>
<path d="M1.679 0.674 Q1.316 0.129 0.174 0.187" stroke="hsl(240.0,100%,35%)" stroke-width="0.00169"></path>
<path d="M1.679 0.674 Q1.669 0.370 1.074 0.307" stroke="hsl(240.0,100%,35%)" stroke-width="0.00015"></path>
<path d="M1.679 0.674 Q1.915 0.441 1.513 0.275" stroke="hsl(240.0,100%,35%)" stroke-width="0.00031"></path>
<path d="M1.679 0.674 Q1.620 0.236 0.754 0.169" stroke="hsl(240.0,100%,35%)" stroke-width="0.00061"></path>
<path d="M1.679 0.674 Q0.797 0.561 0.383 0.966" stroke="hsl(240.0,100%,35%)" stroke-width="0.00475"></path>
<path d="M1.679 0.674 Q1.864 0.339 1.251 0.175" stroke="hsl(240.0,100%,35%)" stroke-width="0.00046"></path>
<path d="M1.679 0.674 Q1.985 0.537 1.786 0.358" stroke="hsl(240.0,100%,35%)" stroke-width="0.00199"></path>
<path d="M1.679 0.674 Q1.173 0.381 0.490 0.564" stroke="hsl(240.0,100%,35%)" stroke-width="0.00138"></path>
<path d="M1.679 0.674 Q1.769 0.453 1.359 0.361" stroke="hsl(240.0,100%,35%)" stroke-width="0.00015"></path>
<path d="M1.679 0.674 Q1.607 0.316 0.894 0.273" stroke="hsl(240.0,100%,35%)" stroke-width="0.00046"></path>
<path d="M1.679 0.674 Q1.775 0.610 1.671 0.549" stroke="hsl(240.0,100%,35%)" stroke-width="0.00061"></path>
<path d="M1.679 0.674 Q1.272 0.450 0.746 0.599" stroke="hsl(240.0,100%,35%)" stroke-width="0.00015"></path>
<path d="M0.936 0.101 Q1.034 0.201 1.251 0.175" stroke="hsl(120.0,100%,35%)" stroke-width="0.00061"></path>
<path d="M0.936 0.101 Q0.840 0.232 1.074 0.307" stroke="hsl(120.0,100%,35%)" stroke-width="0.00015"></path>
<path d="M0.936 0.101 Q0.602 0.635 1.572 0.915" stroke="hsl(120.0,100%,35%)" stroke-width="0.00061"></path>
<path d="M0.936 0.101 Q1.222 0.187 1.452 0.066" stroke="hsl(120.0,100%,35%)" stroke-width="0.00230"></path>
<path d="M0.936 0.101 Q0.659 0.005 0.411 0.119" stroke="hsl(120.0,100%,35%)" stroke-width="0.00015"></path>
<path d="M0.936 0.101 Q0.968 0.420 1.597 0.474" stroke="hsl(120.0,100%,35%)" stroke-width="0.00015"></path>
<path d="M0.936 0.101 Q0.849 0.536 1.679 0.674" stroke="hsl(120.0,100%,35%)" stroke-width="0.00031"></path>
<path d="M0.936 0.101 Q-0.033 0.423 0.383 0.966" stroke="hsl(120.0,100%,35%)" stroke-width="0.00015"></path>
<path d="M0.936 0.101 Q0.945 0.472 1.671 0.549" stroke="hsl(120.0,100%,35%)" stroke-width="0.00015"></path>
<path d="M0.936 0.101 Q0.442 0.312 0.746 0.599" stroke="hsl(120.0,100%,35%)" stroke-width="0.00015"></path>
<path d="M0.936 0.101 Q0.018 0.279 0.165 0.766" stroke="hsl(120.0,100%,35%)" stroke-width="0.00015"></path>
<path d="M0.936 0.101 Q0.884 0.151 0.970 0.187" stroke="hsl(120.0,100%,35%)" stroke-width="0.00046"></path>
<path d="M0.936 0.101 Q0.550 0.173 0.606 0.377" stroke="hsl(120.0,100%,35%)" stroke-width="0.00015"></path>
<path d="M1.074 0.307 Q0.888 0.313 0.858 0.405" stroke="hsl(120.0,100%,35%)" stroke-width="0.00031"></path>
<path d="M1.074 0.307 Q1.170 0.177 0.936 0.101" stroke="hsl(120.0,100%,35%)" stroke-width="0.00031"></path>
<path d="M1.074 0.307 Q1.268 0.277 1.251 0.175" stroke="hsl(120.0,100%,35%)" stroke-width="0.00015"></path>
<path d="M1.074 0.307 Q1.456 0.262 1.452 0.066" stroke="hsl(120.0,100%,35%)" stroke-width="0.00015"></path>
<path d="M0.151 0.366 Q0.306 0.281 0.174 0.187" stroke="hsl(0.0,100%,35%)" stroke-width="0.00353"></path>
<path d="M0.151 0.366 Q0.163 0.533 0.490 0.564" stroke="hsl(0.0,100%,35%)" stroke-width="0.00981"></path>
<path d="M0.151 0.366 Q0.479 0.295 0.411 0.119" stroke="hsl(0.0,100%,35%)" stroke-width="0.00245"></path>
<path d="M0.151 0.366 Q-0.213 0.713 0.383 0.966" stroke="hsl(0.0,100%,35%)" stroke-width="0.00337"></path>
<path d="M0.151 0.366 Q0.370 0.462 0.606 0.377" stroke="hsl(0.0,100%,35%)" stroke-width="0.00015"></path>
<path d="M0.151 0.366 Q0.787 0.709 1.597 0.474" stroke="hsl(0.0,100%,35%)" stroke-width="0.00138"></path>
<path d="M0.151 0.366 Q0.056 0.587 0.466 0.682" stroke="hsl(0.0,100%,35%)" stroke-width="0.00061"></path>
<path d="M0.151 0.366 Q-0.162 0.569 0.165 0.766" stroke="hsl(0.0,100%,35%)" stroke-width="0.00215"></path>
<path d="M0.151 0.366 Q0.975 0.689 1.786 0.358" stroke="hsl(0.0,100%,35%)" stroke-width="0.00261"></path>
<path d="M0.151 0.366 Q0.905 0.593 1.513 0.275" stroke="hsl(0.0,100%,35%)" stroke-width="0.00092"></path>
<path d="M0.151 0.366 Q0.597 0.468 0.894 0.273" stroke="hsl(0.0,100%,35%)" stroke-width="0.00031"></path>
<path d="M0.151 0.366 Q0.669 0.826 1.679 0.674" stroke="hsl(0.0,100%,35%)" stroke-width="0.00015"></path>
<path d="M0.151 0.366 Q0.015 0.424 0.099 0.503" stroke="hsl(0.0,100%,35%)" stroke-width="0.00015"></path>
<path d="M0.151 0.366 Q0.759 0.605 1.359 0.361" stroke="hsl(0.0,100%,35%)" stroke-width="0.00015"></path>
<path d="M0.754 0.169 Q0.741 0.249 0.894 0.273" stroke="hsl(120.0,100%,35%)" stroke-width="0.00169"></path>
<path d="M0.754 0.169 Q0.622 0.075 0.411 0.119" stroke="hsl(120.0,100%,35%)" stroke-width="0.00046"></path>
<path d="M0.754 0.169 Q0.514 0.243 0.606 0.377" stroke="hsl(120.0,100%,35%)" stroke-width="0.00061"></path>
<path d="M0.754 0.169 Q1.186 0.257 1.452 0.066" stroke="hsl(120.0,100%,35%)" stroke-width="0.00015"></path>
<path d="M0.754 0.169 Q0.998 0.271 1.251 0.175" stroke="hsl(120.0,100%,35%)" stroke-width="0.00015"></path>
<path d="M0.754 0.169 Q0.762 0.128 0.685 0.116" stroke="hsl(120.0,100%,35%)" stroke-width="0.00031"></path>
<path d="M0.754 0.169 Q0.899 0.171 0.936 0.101" stroke="hsl(120.0,100%,35%)" stroke-width="0.00015"></path>
<path d="M0.754 0.169 Q0.931 0.490 1.597 0.474" stroke="hsl(120.0,100%,35%)" stroke-width="0.00015"></path>
<path d="M1.318 0.532 Q1.385 0.675 1.679 0.674" stroke="hsl(240.0,100%,35%)" stroke-width="0.03004"></path>
<path d="M1.318 0.532 Q1.504 0.559 1.597 0.474" stroke="hsl(240.0,100%,35%)" stroke-width="0.01012"></path>
<path d="M1.318 0.532 Q0.503 0.562 0.383 0.966" stroke="hsl(240.0,100%,35%)" stroke-width="0.00031"></path>
<path d="M1.147 0.042 Q0.609 0.101 0.606 0.377" stroke="hsl(120.0,100%,35%)" stroke-width="0.00092"></path>
<path d="M1.147 0.042 Q1.281 0.115 1.452 0.066" stroke="hsl(120.0,100%,35%)" stroke-width="0.00153"></path>
<path d="M1.147 0.042 Q0.712 0.165 0.858 0.405" stroke="hsl(120.0,100%,35%)" stroke-width="0.00015"></path>
<path d="M1.147 0.042 Q1.003 0.400 1.671 0.549" stroke="hsl(120.0,100%,35%)" stroke-width="0.00015"></path>
<path d="M1.147 0.042 Q0.401 0.171 0.490 0.564" stroke="hsl(120.0,100%,35%)" stroke-width="0.00015"></path>
<path d="M0.970 0.187 Q1.308 0.223 1.452 0.066" stroke="hsl(120.0,100%,35%)" stroke-width="0.00046"></path>
<path d="M0.970 0.187 Q1.022 0.137 0.936 0.101" stroke="hsl(120.0,100%,35%)" stroke-width="0.00046"></path>
<path d="M0.894 0.273 Q0.644 0.351 0.742 0.490" stroke="hsl(120.0,100%,35%)" stroke-width="0.00015"></path>
<path d="M0.894 0.273 Q0.907 0.193 0.754 0.169" stroke="hsl(120.0,100%,35%)" stroke-width="0.00061"></path>
<path d="M0.894 0.273 Q0.775 0.099 0.411 0.119" stroke="hsl(120.0,100%,35%)" stroke-width="0.00031"></path>
<path d="M0.894 0.273 Q1.084 0.514 1.597 0.474" stroke="hsl(120.0,100%,35%)" stroke-width="0.00046"></path>
<path d="M0.894 0.273 Q0.447 0.171 0.151 0.366" stroke="hsl(120.0,100%,35%)" stroke-width="0.00015"></path>
<path d="M0.894 0.273 Q1.001 0.245 0.970 0.187" stroke="hsl(120.0,100%,35%)" stroke-width="0.00015"></path>
<path d="M0.894 0.273 Q0.083 0.517 0.383 0.966" stroke="hsl(120.0,100%,35%)" stroke-width="0.00015"></path>
<path d="M0.894 0.273 Q1.061 0.566 1.671 0.549" stroke="hsl(120.0,100%,35%)" stroke-width="0.00015"></path>
<path d="M1.206 0.957 Q1.669 0.910 1.679 0.674" stroke="hsl(120.0,100%,35%)" stroke-width="0.00230"></path>
<path d="M1.206 0.957 Q1.422 1.010 1.572 0.915" stroke="hsl(120.0,100%,35%)" stroke-width="0.00475"></path>
<path d="M1.206 0.957 Q1.788 0.794 1.597 0.474" stroke="hsl(120.0,100%,35%)" stroke-width="0.00031"></path>
<path d="M1.206 0.957 Q1.969 0.635 1.506 0.192" stroke="hsl(120.0,100%,35%)" stroke-width="0.00015"></path>
<path d="M1.206 0.957 Q1.975 0.774 1.786 0.358" stroke="hsl(120.0,100%,35%)" stroke-width="0.00107"></path>
<path d="M1.206 0.957 Q1.370 0.547 0.606 0.377" stroke="hsl(120.0,100%,35%)" stroke-width="0.00046"></path>
<path d="M1.206 0.957 Q1.905 0.678 1.513 0.275" stroke="hsl(120.0,100%,35%)" stroke-width="0.00031"></path>
<path d="M1.206 0.957 Q1.056 0.672 0.466 0.682" stroke="hsl(120.0,100%,35%)" stroke-width="0.00015"></path>
<path d="M1.513 0.275 Q0.978 0.144 0.606 0.377" stroke="hsl(120.0,100%,35%)" stroke-width="0.00077"></path>
<path d="M1.513 0.275 Q1.395 0.391 1.597 0.474" stroke="hsl(120.0,100%,35%)" stroke-width="0.00169"></path>
<path d="M1.513 0.275 Q0.759 0.048 0.151 0.366" stroke="hsl(120.0,100%,35%)" stroke-width="0.00015"></path>
<path d="M1.513 0.275 Q1.576 0.232 1.506 0.192" stroke="hsl(120.0,100%,35%)" stroke-width="0.00598"></path>
<path d="M1.513 0.275 Q1.367 0.287 1.359 0.361" stroke="hsl(120.0,100%,35%)" stroke-width="0.00337"></path>
<path d="M1.513 0.275 Q0.395 0.395 0.383 0.966" stroke="hsl(120.0,100%,35%)" stroke-width="0.00046"></path>
<path d="M1.513 0.275 Q1.030 0.607 1.572 0.915" stroke="hsl(120.0,100%,35%)" stroke-width="0.00123"></path>
<path d="M1.513 0.275 Q1.583 0.371 1.786 0.358" stroke="hsl(120.0,100%,35%)" stroke-width="0.00184"></path>
<path d="M1.513 0.275 Q1.276 0.507 1.679 0.674" stroke="hsl(120.0,100%,35%)" stroke-width="0.00015"></path>
<path d="M1.513 0.275 Q1.205 0.150 0.894 0.273" stroke="hsl(120.0,100%,35%)" stroke-width="0.00077"></path>
<path d="M1.513 0.275 Q1.372 0.444 1.671 0.549" stroke="hsl(120.0,100%,35%)" stroke-width="0.00061"></path>
<path d="M1.506 0.192 Q1.443 0.234 1.513 0.275" stroke="hsl(120.0,100%,35%)" stroke-width="0.00736"></path>
<path d="M1.506 0.192 Q1.513 0.331 1.786 0.358" stroke="hsl(120.0,100%,35%)" stroke-width="0.00015"></path>
<path d="M1.506 0.192 Q1.276 0.185 1.213 0.296" stroke="hsl(120.0,100%,35%)" stroke-width="0.00015"></path>
<path d="M1.506 0.192 Q0.908 0.104 0.606 0.377" stroke="hsl(120.0,100%,35%)" stroke-width="0.00015"></path>
<path d="M1.506 0.192 Q1.355 0.143 1.228 0.206" stroke="hsl(120.0,100%,35%)" stroke-width="0.00015"></path>
<path d="M0.742 0.490 Q0.181 0.656 0.383 0.966" stroke="hsl(120.0,100%,35%)" stroke-width="0.00046"></path>
<path d="M0.742 0.490 Q1.004 0.332 0.754 0.169" stroke="hsl(120.0,100%,35%)" stroke-width="0.00046"></path>
<path d="M0.742 0.490 Q0.764 0.406 0.606 0.377" stroke="hsl(120.0,100%,35%)" stroke-width="0.00031"></path>
<path d="M0.742 0.490 Q1.159 0.705 1.671 0.549" stroke="hsl(120.0,100%,35%)" stroke-width="0.00015"></path>
<path d="M0.742 0.490 Q0.232 0.512 0.165 0.766" stroke="hsl(120.0,100%,35%)" stroke-width="0.00031"></path>
<path d="M0.742 0.490 Q1.150 0.334 0.936 0.101" stroke="hsl(120.0,100%,35%)" stroke-width="0.00015"></path>
<path d="M1.446 0.969 Q1.552 0.967 1.572 0.915" stroke="hsl(120.0,100%,35%)" stroke-width="0.00475"></path>
<path d="M1.446 0.969 Q1.727 0.510 0.894 0.273" stroke="hsl(120.0,100%,35%)" stroke-width="0.00015"></path>
<path d="M1.446 0.969 Q1.185 0.629 0.466 0.682" stroke="hsl(120.0,100%,35%)" stroke-width="0.00015"></path>
<path d="M1.446 0.969 Q2.034 0.635 1.513 0.275" stroke="hsl(120.0,100%,35%)" stroke-width="0.00031"></path>
<path d="M1.359 0.361 Q1.574 0.445 1.786 0.358" stroke="hsl(120.0,100%,35%)" stroke-width="0.00061"></path>
<path d="M1.359 0.361 Q1.504 0.349 1.513 0.275" stroke="hsl(120.0,100%,35%)" stroke-width="0.00490"></path>
<path d="M1.359 0.361 Q0.438 0.325 0.165 0.766" stroke="hsl(120.0,100%,35%)" stroke-width="0.00046"></path>
<path d="M1.359 0.361 Q0.970 0.218 0.606 0.377" stroke="hsl(120.0,100%,35%)" stroke-width="0.00031"></path>
<path d="M1.114 0.300 Q0.823 0.408 0.970 0.574" stroke="hsl(0.0,100%,35%)" stroke-width="0.00077"></path>
<path d="M1.114 0.300 Q1.216 0.484 1.597 0.474" stroke="hsl(0.0,100%,35%)" stroke-width="0.00031"></path>
<path d="M1.114 0.300 Q1.471 0.251 1.452 0.066" stroke="hsl(0.0,100%,35%)" stroke-width="0.00046"></path>
<path d="M0.970 0.574 Q1.261 0.466 1.114 0.300" stroke="hsl(0.0,100%,35%)" stroke-width="0.00046"></path>
<path d="M0.970 0.574 Q1.055 0.235 0.411 0.119" stroke="hsl(0.0,100%,35%)" stroke-width="0.00046"></path>
<path d="M0.774 0.709 Q1.255 0.873 1.679 0.674" stroke="hsl(0.0,100%,35%)" stroke-width="0.00015"></path>
<path d="M0.774 0.709 Q1.065 0.342 0.411 0.119" stroke="hsl(0.0,100%,35%)" stroke-width="0.00015"></path>
<path d="M0.774 0.709 Q0.749 0.580 0.490 0.564" stroke="hsl(0.0,100%,35%)" stroke-width="0.00015"></path>
<path d="M0.774 0.709 Q0.373 0.760 0.383 0.966" stroke="hsl(0.0,100%,35%)" stroke-width="0.00015"></path>
<path d="M0.774 0.709 Q0.642 0.634 0.466 0.682" stroke="hsl(0.0,100%,35%)" stroke-width="0.00015"></path>
<path d="M0.858 0.405 Q1.426 0.354 1.452 0.066" stroke="hsl(120.0,100%,35%)" stroke-width="0.00015"></path>
<path d="M0.858 0.405 Q1.171 0.587 1.597 0.474" stroke="hsl(120.0,100%,35%)" stroke-width="0.00015"></path>
<path d="M0.858 0.405 Q0.981 0.346 0.894 0.273" stroke="hsl(120.0,100%,35%)" stroke-width="0.00015"></path>
<path d="M0.858 0.405 Q1.140 0.268 0.936 0.101" stroke="hsl(120.0,100%,35%)" stroke-width="0.00031"></path>
<path d="M0.858 0.405 Q0.806 0.803 1.572 0.915" stroke="hsl(120.0,100%,35%)" stroke-width="0.00015"></path>
<path d="M0.858 0.405 Q0.754 0.340 0.606 0.377" stroke="hsl(120.0,100%,35%)" stroke-width="0.00015"></path>
<path d="M0.938 0.878 Q1.568 0.860 1.671 0.549" stroke="hsl(120.0,100%,35%)" stroke-width="0.00015"></path>
<path d="M0.938 0.878 Q1.225 1.024 1.572 0.915" stroke="hsl(120.0,100%,35%)" stroke-width="0.00031"></path>
<path d="M0.938 0.878 Q0.994 0.813 0.880 0.772" stroke="hsl(120.0,100%,35%)" stroke-width="0.00015"></path>
<path d="M0.905 0.492 Q0.848 0.374 0.606 0.377" stroke="hsl(120.0,100%,35%)" stroke-width="0.00015"></path>
<path d="M0.905 0.492 Q0.900 0.837 1.572 0.915" stroke="hsl(120.0,100%,35%)" stroke-width="0.00015"></path>
<path d="M0.905 0.492 Q1.453 0.601 1.786 0.358" stroke="hsl(120.0,100%,35%)" stroke-width="0.00015"></path>
<path d="M1.140 0.799 Q1.438 0.486 0.894 0.273" stroke="hsl(120.0,100%,35%)" stroke-width="0.00015"></path>
<path d="M1.140 0.799 Q1.263 0.943 1.572 0.915" stroke="hsl(120.0,100%,35%)" stroke-width="0.00031"></path>
<path d="M1.140 0.799 Q0.896 0.606 0.466 0.682" stroke="hsl(120.0,100%,35%)" stroke-width="0.00015"></path>
</g>
<text x="0.746" y="0.587" font-size="0.025372" fill="hsl(0.0,100%,20%)">adlai</text>
<text x="0.383" y="0.940" font-size="0.052233" fill="hsl(0.0,100%,20%)">bsalomon</text>
<text x="0.490" y="0.538" font-size="0.051600" fill="hsl(0.0,100%,20%)">robertphillips</text>
<text x="0.165" y="0.744" font-size="0.044687" fill="hsl(0.0,100%,20%)">csmartdalton</text>
<text x="1.251" y="0.164" font-size="0.021848" fill="hsl(120.0,100%,20%)">rmistry</text>
<text x="1.452" y="0.053" font-size="0.026635" fill="hsl(120.0,100%,20%)">borenet</text>
<text x="1.671" y="0.536" font-size="0.026053" fill="hsl(120.0,100%,20%)">mtklein</text>
<text x="0.174" y="0.167" font-size="0.039373" fill="hsl(0.0,100%,20%)">jvanverth</text>
<text x="1.786" y="0.341" font-size="0.033483" fill="hsl(120.0,100%,20%)">reed</text>
<text x="1.597" y="0.435" font-size="0.079494" fill="hsl(240.0,100%,20%)">brianosman</text>
<text x="0.606" y="0.359" font-size="0.035514" fill="hsl(120.0,100%,20%)">kjlubick</text>
<text x="0.466" y="0.665" font-size="0.035017" fill="hsl(0.0,100%,20%)">herb</text>
<text x="1.572" y="0.898" font-size="0.034258" fill="hsl(120.0,100%,20%)">bungeman</text>
<text x="0.411" y="0.097" font-size="0.043596" fill="hsl(0.0,100%,20%)">egdaniel</text>
<text x="1.254" y="0.990" font-size="0.004679" fill="hsl(240.0,100%,20%)">bajones</text>
<text x="1.679" y="0.633" font-size="0.081614" fill="hsl(240.0,100%,20%)">johnstiles</text>
<text x="0.936" y="0.091" font-size="0.019293" fill="hsl(120.0,100%,20%)">jcgregorio</text>
<text x="1.074" y="0.304" font-size="0.007545" fill="hsl(120.0,100%,20%)">erikrose</text>
<text x="0.151" y="0.343" font-size="0.047213" fill="hsl(0.0,100%,20%)">michaelludwig</text>
<text x="0.754" y="0.162" font-size="0.014347" fill="hsl(120.0,100%,20%)">scroggo</text>
<text x="1.318" y="0.507" font-size="0.049830" fill="hsl(240.0,100%,20%)">ethannicholas</text>
<text x="1.147" y="0.036" font-size="0.011462" fill="hsl(120.0,100%,20%)">westont</text>
<text x="0.970" y="0.182" font-size="0.009122" fill="hsl(120.0,100%,20%)">hcm</text>
<text x="0.894" y="0.265" font-size="0.015520" fill="hsl(120.0,100%,20%)">djsollen</text>
<text x="1.206" y="0.947" font-size="0.020504" fill="hsl(120.0,100%,20%)">jlavrova</text>
<text x="1.513" y="0.258" font-size="0.033417" fill="hsl(120.0,100%,20%)">fmalita</text>
<text x="1.506" y="0.181" font-size="0.020822" fill="hsl(120.0,100%,20%)">jmbetancourt</text>
<text x="1.213" y="0.294" font-size="0.002959" fill="hsl(120.0,100%,20%)">stani</text>
<text x="0.742" y="0.484" font-size="0.011651" fill="hsl(120.0,100%,20%)">nifong</text>
<text x="1.425" y="0.788" font-size="0.002093" fill="hsl(120.0,100%,20%)">grieger</text>
<text x="1.446" y="0.962" font-size="0.013235" fill="hsl(120.0,100%,20%)">drott</text>
<text x="0.533" y="0.814" font-size="0.002959" fill="hsl(0.0,100%,20%)">junov</text>
<text x="1.359" y="0.351" font-size="0.018482" fill="hsl(120.0,100%,20%)">tdenniston</text>
<text x="1.114" y="0.296" font-size="0.007545" fill="hsl(0.0,100%,20%)">cwallez</text>
<text x="0.970" y="0.570" font-size="0.007249" fill="hsl(0.0,100%,20%)">senorblanco</text>
<text x="0.774" y="0.707" font-size="0.004679" fill="hsl(0.0,100%,20%)">emaxx</text>
<text x="0.858" y="0.398" font-size="0.012729" fill="hsl(120.0,100%,20%)">lovisolo</text>
<text x="0.502" y="0.781" font-size="0.002093" fill="hsl(0.0,100%,20%)">jiulongw</text>
<text x="0.938" y="0.876" font-size="0.004185" fill="hsl(120.0,100%,20%)">james</text>
<text x="0.880" y="0.771" font-size="0.002093" fill="hsl(120.0,100%,20%)">cbracken</text>
<text x="1.228" y="0.205" font-size="0.002093" fill="hsl(120.0,100%,20%)">fuego</text>
<text x="1.900" y="0.257" font-size="0.006278" fill="hsl(120.0,100%,20%)">yjbanov</text>
<text x="0.099" y="0.502" font-size="0.002093" fill="hsl(0.0,100%,20%)">fs</text>
<text x="0.905" y="0.490" font-size="0.003625" fill="hsl(120.0,100%,20%)">pkasting</text>
<text x="1.920" y="0.152" font-size="0.002093" fill="hsl(120.0,100%,20%)">whesse</text>
<text x="1.761" y="0.222" font-size="0.002093" fill="hsl(120.0,100%,20%)">mdebbar</text>
<text x="0.685" y="0.114" font-size="0.002959" fill="hsl(120.0,100%,20%)">nigeltao</text>
<text x="1.043" y="-1.472" font-size="0.002093" fill="hsl(0.0,100%,20%)">enga</text>
<text x="1.140" y="0.797" font-size="0.004185" fill="hsl(120.0,100%,20%)">thestig</text>
</svg>
