<svg width="4000" height="2000" viewBox="-0.025 -0.025 2.05 1.05" xmlns="http://www.w3.org/2000/svg">
  <style>
    path {
      fill: none;
      stroke-linecap: round;
      stroke-opacity: 0.4;
    }

    text {
      text-anchor: middle;
      alignment-baseline: hanging;
    }
  </style>
  <g opacity="0.4">
<path d="M0.295 0.810 Q0.261 0.739 0.115 0.740" stroke="hsl(0.0,100%,35%)" stroke-width="0.00037"></path>
<path d="M0.295 0.810 Q0.382 0.904 0.584 0.881" stroke="hsl(0.0,100%,35%)" stroke-width="0.00748"></path>
<path d="M0.295 0.810 Q1.099 0.979 1.605 0.623" stroke="hsl(0.0,100%,35%)" stroke-width="0.00187"></path>
<path d="M0.295 0.810 Q1.038 0.575 0.742 0.160" stroke="hsl(0.0,100%,35%)" stroke-width="0.00112"></path>
<path d="M0.295 0.810 Q0.561 0.883 0.761 0.768" stroke="hsl(0.0,100%,35%)" stroke-width="0.00112"></path>
<path d="M0.295 0.810 Q1.174 0.535 0.830 0.045" stroke="hsl(0.0,100%,35%)" stroke-width="0.00075"></path>
<path d="M0.295 0.810 Q0.595 0.805 0.650 0.657" stroke="hsl(0.0,100%,35%)" stroke-width="0.00393"></path>
<path d="M0.295 0.810 Q1.147 1.073 1.846 0.715" stroke="hsl(0.0,100%,35%)" stroke-width="0.00037"></path>
<path d="M0.295 0.810 Q0.428 0.842 0.519 0.784" stroke="hsl(0.0,100%,35%)" stroke-width="0.00019"></path>
<path d="M0.295 0.810 Q1.251 0.780 1.403 0.307" stroke="hsl(0.0,100%,35%)" stroke-width="0.00019"></path>
<path d="M0.295 0.810 Q0.726 1.019 1.228 0.854" stroke="hsl(0.0,100%,35%)" stroke-width="0.00037"></path>
<path d="M0.295 0.810 Q0.971 0.759 1.020 0.419" stroke="hsl(0.0,100%,35%)" stroke-width="0.00056"></path>
<path d="M0.295 0.810 Q0.842 0.622 0.596 0.314" stroke="hsl(0.0,100%,35%)" stroke-width="0.00019"></path>
<path d="M0.295 0.810 Q0.251 0.911 0.439 0.955" stroke="hsl(0.0,100%,35%)" stroke-width="0.00019"></path>
<path d="M0.115 0.740 Q0.237 0.905 0.584 0.881" stroke="hsl(0.0,100%,35%)" stroke-width="0.00019"></path>
<path d="M0.115 0.740 Q0.149 0.811 0.295 0.810" stroke="hsl(0.0,100%,35%)" stroke-width="0.00075"></path>
<path d="M0.584 0.881 Q0.763 0.860 0.761 0.768" stroke="hsl(0.0,100%,35%)" stroke-width="0.00449"></path>
<path d="M0.584 0.881 Q0.928 0.996 1.228 0.854" stroke="hsl(0.0,100%,35%)" stroke-width="0.00019"></path>
<path d="M0.584 0.881 Q0.796 0.783 0.650 0.657" stroke="hsl(0.0,100%,35%)" stroke-width="0.00224"></path>
<path d="M0.584 0.881 Q1.348 1.050 1.846 0.715" stroke="hsl(0.0,100%,35%)" stroke-width="0.00037"></path>
<path d="M0.584 0.881 Q0.497 0.788 0.295 0.810" stroke="hsl(0.0,100%,35%)" stroke-width="0.00374"></path>
<path d="M0.584 0.881 Q0.730 0.955 0.906 0.900" stroke="hsl(0.0,100%,35%)" stroke-width="0.00056"></path>
<path d="M0.584 0.881 Q0.630 0.820 0.519 0.784" stroke="hsl(0.0,100%,35%)" stroke-width="0.00075"></path>
<path d="M0.584 0.881 Q1.366 0.627 1.042 0.190" stroke="hsl(0.0,100%,35%)" stroke-width="0.00019"></path>
<path d="M0.584 0.881 Q0.734 0.824 0.655 0.738" stroke="hsl(0.0,100%,35%)" stroke-width="0.00056"></path>
<path d="M0.584 0.881 Q1.301 0.956 1.605 0.623" stroke="hsl(0.0,100%,35%)" stroke-width="0.00019"></path>
<path d="M0.584 0.881 Q0.439 0.845 0.335 0.908" stroke="hsl(0.0,100%,35%)" stroke-width="0.00019"></path>
<path d="M0.584 0.881 Q0.453 0.889 0.439 0.955" stroke="hsl(0.0,100%,35%)" stroke-width="0.00019"></path>
<path d="M1.605 0.623 Q1.347 0.267 0.596 0.314" stroke="hsl(0.0,100%,35%)" stroke-width="0.00842"></path>
<path d="M1.605 0.623 Q0.800 0.455 0.295 0.810" stroke="hsl(0.0,100%,35%)" stroke-width="0.00299"></path>
<path d="M1.605 0.623 Q1.232 0.663 1.228 0.854" stroke="hsl(0.0,100%,35%)" stroke-width="0.00318"></path>
<path d="M1.605 0.623 Q1.652 0.717 1.846 0.715" stroke="hsl(0.0,100%,35%)" stroke-width="0.02451"></path>
<path d="M1.605 0.623 Q1.757 0.425 1.403 0.307" stroke="hsl(0.0,100%,35%)" stroke-width="0.01777"></path>
<path d="M1.605 0.623 Q0.767 0.384 0.115 0.740" stroke="hsl(0.0,100%,35%)" stroke-width="0.00019"></path>
<path d="M1.605 0.623 Q1.624 0.475 1.338 0.433" stroke="hsl(0.0,100%,35%)" stroke-width="0.00355"></path>
<path d="M1.605 0.623 Q1.100 0.449 0.650 0.657" stroke="hsl(0.0,100%,35%)" stroke-width="0.00075"></path>
<path d="M1.605 0.623 Q1.476 0.404 1.020 0.419" stroke="hsl(0.0,100%,35%)" stroke-width="0.02900"></path>
<path d="M1.605 0.623 Q0.888 0.548 0.584 0.881" stroke="hsl(0.0,100%,35%)" stroke-width="0.00094"></path>
<path d="M1.605 0.623 Q1.067 0.527 0.761 0.768" stroke="hsl(0.0,100%,35%)" stroke-width="0.00056"></path>
<path d="M1.605 0.623 Q1.240 0.226 0.385 0.317" stroke="hsl(0.0,100%,35%)" stroke-width="0.00037"></path>
<path d="M1.605 0.623 Q1.680 0.179 0.830 0.045" stroke="hsl(0.0,100%,35%)" stroke-width="0.00019"></path>
<path d="M1.605 0.623 Q1.379 0.333 0.762 0.379" stroke="hsl(0.0,100%,35%)" stroke-width="0.00187"></path>
<path d="M1.605 0.623 Q1.083 0.191 0.124 0.351" stroke="hsl(0.0,100%,35%)" stroke-width="0.00150"></path>
<path d="M1.605 0.623 Q1.670 0.294 1.042 0.190" stroke="hsl(0.0,100%,35%)" stroke-width="0.00019"></path>
<path d="M1.605 0.623 Q1.384 0.545 1.183 0.636" stroke="hsl(0.0,100%,35%)" stroke-width="0.00019"></path>
<path d="M1.605 0.623 Q1.544 0.219 0.742 0.160" stroke="hsl(0.0,100%,35%)" stroke-width="0.00094"></path>
<path d="M1.605 0.623 Q1.000 0.265 0.169 0.482" stroke="hsl(0.0,100%,35%)" stroke-width="0.00075"></path>
<path d="M1.605 0.623 Q1.527 0.311 0.900 0.280" stroke="hsl(0.0,100%,35%)" stroke-width="0.00262"></path>
<path d="M1.605 0.623 Q1.309 0.482 0.968 0.595" stroke="hsl(0.0,100%,35%)" stroke-width="0.00019"></path>
<path d="M1.605 0.623 Q1.541 0.537 1.358 0.549" stroke="hsl(0.0,100%,35%)" stroke-width="0.00019"></path>
<path d="M1.605 0.623 Q1.034 0.622 0.906 0.900" stroke="hsl(0.0,100%,35%)" stroke-width="0.00019"></path>
<path d="M1.605 0.623 Q1.129 0.728 1.230 0.983" stroke="hsl(0.0,100%,35%)" stroke-width="0.00037"></path>
<path d="M1.605 0.623 Q1.826 0.516 1.666 0.385" stroke="hsl(0.0,100%,35%)" stroke-width="0.00019"></path>
<path d="M1.605 0.623 Q0.757 0.556 0.439 0.955" stroke="hsl(0.0,100%,35%)" stroke-width="0.00019"></path>
<path d="M1.605 0.623 Q1.056 0.364 0.430 0.575" stroke="hsl(0.0,100%,35%)" stroke-width="0.00019"></path>
<path d="M1.605 0.623 Q1.962 0.468 1.739 0.260" stroke="hsl(0.0,100%,35%)" stroke-width="0.00019"></path>
<path d="M0.742 0.160 Q0.546 0.208 0.596 0.314" stroke="hsl(180.0,100%,35%)" stroke-width="0.01833"></path>
<path d="M0.742 0.160 Q0.868 0.235 1.042 0.190" stroke="hsl(180.0,100%,35%)" stroke-width="0.01291"></path>
<path d="M0.742 0.160 Q0.438 0.167 0.385 0.317" stroke="hsl(180.0,100%,35%)" stroke-width="0.00206"></path>
<path d="M0.742 0.160 Q0.725 0.252 0.900 0.280" stroke="hsl(180.0,100%,35%)" stroke-width="0.00224"></path>
<path d="M0.742 0.160 Q0.878 0.120 0.830 0.045" stroke="hsl(180.0,100%,35%)" stroke-width="0.00505"></path>
<path d="M0.742 0.160 Q0.674 0.345 1.020 0.419" stroke="hsl(180.0,100%,35%)" stroke-width="0.00468"></path>
<path d="M0.742 0.160 Q0.577 0.274 0.762 0.379" stroke="hsl(180.0,100%,35%)" stroke-width="0.00019"></path>
<path d="M0.742 0.160 Q0.298 0.391 0.650 0.657" stroke="hsl(180.0,100%,35%)" stroke-width="0.00019"></path>
<path d="M0.742 0.160 Q-0.002 0.396 0.295 0.810" stroke="hsl(180.0,100%,35%)" stroke-width="0.00037"></path>
<path d="M0.742 0.160 Q0.430 0.604 1.228 0.854" stroke="hsl(180.0,100%,35%)" stroke-width="0.00019"></path>
<path d="M0.742 0.160 Q0.198 0.207 0.169 0.482" stroke="hsl(180.0,100%,35%)" stroke-width="0.00019"></path>
<path d="M0.742 0.160 Q0.850 0.658 1.846 0.715" stroke="hsl(180.0,100%,35%)" stroke-width="0.00019"></path>
<path d="M0.742 0.160 Q0.803 0.564 1.605 0.623" stroke="hsl(180.0,100%,35%)" stroke-width="0.00037"></path>
<path d="M0.742 0.160 Q0.254 0.305 0.430 0.575" stroke="hsl(180.0,100%,35%)" stroke-width="0.00019"></path>
<path d="M0.761 0.768 Q0.582 0.789 0.584 0.881" stroke="hsl(0.0,100%,35%)" stroke-width="0.00655"></path>
<path d="M0.761 0.768 Q0.795 0.691 0.650 0.657" stroke="hsl(0.0,100%,35%)" stroke-width="0.00037"></path>
<path d="M0.761 0.768 Q0.628 0.728 0.519 0.784" stroke="hsl(0.0,100%,35%)" stroke-width="0.00374"></path>
<path d="M0.761 0.768 Q0.495 0.696 0.295 0.810" stroke="hsl(0.0,100%,35%)" stroke-width="0.00112"></path>
<path d="M0.761 0.768 Q1.451 0.666 1.403 0.307" stroke="hsl(0.0,100%,35%)" stroke-width="0.00019"></path>
<path d="M0.761 0.768 Q1.318 0.716 1.338 0.433" stroke="hsl(0.0,100%,35%)" stroke-width="0.00094"></path>
<path d="M0.761 0.768 Q0.729 0.863 0.906 0.900" stroke="hsl(0.0,100%,35%)" stroke-width="0.00019"></path>
<path d="M0.761 0.768 Q1.347 0.958 1.846 0.715" stroke="hsl(0.0,100%,35%)" stroke-width="0.00019"></path>
<path d="M0.761 0.768 Q1.364 0.535 1.042 0.190" stroke="hsl(0.0,100%,35%)" stroke-width="0.00037"></path>
<path d="M0.830 0.045 Q0.694 0.085 0.742 0.160" stroke="hsl(180.0,100%,35%)" stroke-width="0.00954"></path>
<path d="M0.830 0.045 Q0.498 0.133 0.596 0.314" stroke="hsl(180.0,100%,35%)" stroke-width="0.00599"></path>
<path d="M0.830 0.045 Q0.185 0.488 0.906 0.900" stroke="hsl(180.0,100%,35%)" stroke-width="0.00037"></path>
<path d="M0.830 0.045 Q0.635 0.440 1.362 0.622" stroke="hsl(180.0,100%,35%)" stroke-width="0.00019"></path>
<path d="M0.830 0.045 Q0.627 0.270 1.020 0.419" stroke="hsl(180.0,100%,35%)" stroke-width="0.00524"></path>
<path d="M0.830 0.045 Q0.803 0.583 1.846 0.715" stroke="hsl(180.0,100%,35%)" stroke-width="0.00075"></path>
<path d="M0.830 0.045 Q0.390 0.092 0.385 0.317" stroke="hsl(180.0,100%,35%)" stroke-width="0.00056"></path>
<path d="M0.830 0.045 Q0.820 0.160 1.042 0.190" stroke="hsl(180.0,100%,35%)" stroke-width="0.00449"></path>
<path d="M0.830 0.045 Q0.907 0.291 1.403 0.307" stroke="hsl(180.0,100%,35%)" stroke-width="0.00094"></path>
<path d="M0.830 0.045 Q0.678 0.177 0.900 0.280" stroke="hsl(180.0,100%,35%)" stroke-width="0.00037"></path>
<path d="M0.830 0.045 Q0.382 0.529 1.228 0.854" stroke="hsl(180.0,100%,35%)" stroke-width="0.00019"></path>
<path d="M0.830 0.045 Q0.280 0.594 1.230 0.983" stroke="hsl(180.0,100%,35%)" stroke-width="0.00094"></path>
<path d="M0.830 0.045 Q0.038 0.414 0.584 0.881" stroke="hsl(180.0,100%,35%)" stroke-width="0.00075"></path>
<path d="M0.830 0.045 Q-0.049 0.321 0.295 0.810" stroke="hsl(180.0,100%,35%)" stroke-width="0.00056"></path>
<path d="M0.830 0.045 Q0.150 0.131 0.169 0.482" stroke="hsl(180.0,100%,35%)" stroke-width="0.00019"></path>
<path d="M0.830 0.045 Q1.005 0.142 1.232 0.078" stroke="hsl(180.0,100%,35%)" stroke-width="0.00037"></path>
<path d="M0.830 0.045 Q0.664 0.527 1.568 0.714" stroke="hsl(180.0,100%,35%)" stroke-width="0.00019"></path>
<path d="M0.830 0.045 Q0.251 0.316 0.650 0.657" stroke="hsl(180.0,100%,35%)" stroke-width="0.00075"></path>
<path d="M0.830 0.045 Q0.755 0.489 1.605 0.623" stroke="hsl(180.0,100%,35%)" stroke-width="0.00037"></path>
<path d="M0.830 0.045 Q-0.093 0.422 0.439 0.955" stroke="hsl(180.0,100%,35%)" stroke-width="0.00019"></path>
<path d="M0.830 0.045 Q0.529 0.199 0.762 0.379" stroke="hsl(180.0,100%,35%)" stroke-width="0.00019"></path>
<path d="M0.650 0.657 Q0.438 0.756 0.584 0.881" stroke="hsl(0.0,100%,35%)" stroke-width="0.00150"></path>
<path d="M0.650 0.657 Q0.510 0.582 0.332 0.634" stroke="hsl(0.0,100%,35%)" stroke-width="0.00094"></path>
<path d="M0.650 0.657 Q1.026 0.612 1.020 0.419" stroke="hsl(0.0,100%,35%)" stroke-width="0.00224"></path>
<path d="M0.650 0.657 Q1.307 0.633 1.403 0.307" stroke="hsl(0.0,100%,35%)" stroke-width="0.00262"></path>
<path d="M0.650 0.657 Q0.782 0.871 1.228 0.854" stroke="hsl(0.0,100%,35%)" stroke-width="0.00262"></path>
<path d="M0.650 0.657 Q0.898 0.475 0.596 0.314" stroke="hsl(0.0,100%,35%)" stroke-width="0.00206"></path>
<path d="M0.650 0.657 Q0.484 0.695 0.519 0.784" stroke="hsl(0.0,100%,35%)" stroke-width="0.00131"></path>
<path d="M0.650 0.657 Q0.633 0.399 0.124 0.351" stroke="hsl(0.0,100%,35%)" stroke-width="0.00037"></path>
<path d="M0.650 0.657 Q0.680 0.936 1.230 0.983" stroke="hsl(0.0,100%,35%)" stroke-width="0.00056"></path>
<path d="M0.650 0.657 Q0.808 0.960 1.433 0.949" stroke="hsl(0.0,100%,35%)" stroke-width="0.00150"></path>
<path d="M0.650 0.657 Q1.174 0.683 1.338 0.433" stroke="hsl(0.0,100%,35%)" stroke-width="0.00187"></path>
<path d="M0.650 0.657 Q1.094 0.427 0.742 0.160" stroke="hsl(0.0,100%,35%)" stroke-width="0.00019"></path>
<path d="M0.650 0.657 Q1.202 0.925 1.846 0.715" stroke="hsl(0.0,100%,35%)" stroke-width="0.00037"></path>
<path d="M0.650 0.657 Q0.350 0.663 0.295 0.810" stroke="hsl(0.0,100%,35%)" stroke-width="0.00168"></path>
<path d="M0.650 0.657 Q0.617 0.735 0.761 0.768" stroke="hsl(0.0,100%,35%)" stroke-width="0.00094"></path>
<path d="M0.650 0.657 Q0.772 0.591 0.670 0.517" stroke="hsl(0.0,100%,35%)" stroke-width="0.00037"></path>
<path d="M0.650 0.657 Q1.077 0.519 0.900 0.280" stroke="hsl(0.0,100%,35%)" stroke-width="0.00037"></path>
<path d="M0.650 0.657 Q1.220 0.502 1.042 0.190" stroke="hsl(0.0,100%,35%)" stroke-width="0.00037"></path>
<path d="M0.650 0.657 Q1.155 0.831 1.605 0.623" stroke="hsl(0.0,100%,35%)" stroke-width="0.00075"></path>
<path d="M0.650 0.657 Q1.230 0.387 0.830 0.045" stroke="hsl(0.0,100%,35%)" stroke-width="0.00019"></path>
<path d="M0.650 0.657 Q0.307 0.764 0.439 0.955" stroke="hsl(0.0,100%,35%)" stroke-width="0.00037"></path>
<path d="M0.650 0.657 Q0.606 0.572 0.430 0.575" stroke="hsl(0.0,100%,35%)" stroke-width="0.00056"></path>
<path d="M0.650 0.657 Q0.929 0.541 0.762 0.379" stroke="hsl(0.0,100%,35%)" stroke-width="0.00056"></path>
<path d="M0.650 0.657 Q0.584 0.830 0.906 0.900" stroke="hsl(0.0,100%,35%)" stroke-width="0.00019"></path>
<path d="M1.846 0.715 Q1.425 0.661 1.228 0.854" stroke="hsl(0.0,100%,35%)" stroke-width="0.02170"></path>
<path d="M1.846 0.715 Q1.798 0.621 1.605 0.623" stroke="hsl(0.0,100%,35%)" stroke-width="0.01777"></path>
<path d="M1.846 0.715 Q1.707 0.659 1.568 0.714" stroke="hsl(0.0,100%,35%)" stroke-width="0.00224"></path>
<path d="M1.846 0.715 Q1.873 0.177 0.830 0.045" stroke="hsl(0.0,100%,35%)" stroke-width="0.00281"></path>
<path d="M1.846 0.715 Q1.541 0.264 0.596 0.314" stroke="hsl(0.0,100%,35%)" stroke-width="0.00168"></path>
<path d="M1.846 0.715 Q1.670 0.401 1.020 0.419" stroke="hsl(0.0,100%,35%)" stroke-width="0.00206"></path>
<path d="M1.846 0.715 Q1.294 0.447 0.650 0.657" stroke="hsl(0.0,100%,35%)" stroke-width="0.00037"></path>
<path d="M1.846 0.715 Q1.950 0.422 1.403 0.307" stroke="hsl(0.0,100%,35%)" stroke-width="0.00037"></path>
<path d="M1.846 0.715 Q1.863 0.292 1.042 0.190" stroke="hsl(0.0,100%,35%)" stroke-width="0.00037"></path>
<path d="M1.846 0.715 Q1.817 0.472 1.338 0.433" stroke="hsl(0.0,100%,35%)" stroke-width="0.00019"></path>
<path d="M1.846 0.715 Q1.323 0.726 1.230 0.983" stroke="hsl(0.0,100%,35%)" stroke-width="0.00094"></path>
<path d="M1.846 0.715 Q1.451 0.749 1.433 0.949" stroke="hsl(0.0,100%,35%)" stroke-width="0.00037"></path>
<path d="M1.846 0.715 Q1.193 0.263 0.169 0.482" stroke="hsl(0.0,100%,35%)" stroke-width="0.00019"></path>
<path d="M0.519 0.784 Q0.620 0.919 0.906 0.900" stroke="hsl(0.0,100%,35%)" stroke-width="0.00094"></path>
<path d="M0.519 0.784 Q1.130 0.517 0.742 0.160" stroke="hsl(0.0,100%,35%)" stroke-width="0.00019"></path>
<path d="M0.519 0.784 Q0.653 0.825 0.761 0.768" stroke="hsl(0.0,100%,35%)" stroke-width="0.00056"></path>
<path d="M0.519 0.784 Q0.474 0.846 0.584 0.881" stroke="hsl(0.0,100%,35%)" stroke-width="0.00075"></path>
<path d="M0.519 0.784 Q0.624 0.788 0.655 0.738" stroke="hsl(0.0,100%,35%)" stroke-width="0.00019"></path>
<path d="M0.519 0.784 Q0.546 0.671 0.332 0.634" stroke="hsl(0.0,100%,35%)" stroke-width="0.00019"></path>
<path d="M0.519 0.784 Q0.686 0.747 0.650 0.657" stroke="hsl(0.0,100%,35%)" stroke-width="0.00019"></path>
<path d="M0.519 0.784 Q1.062 0.701 1.020 0.419" stroke="hsl(0.0,100%,35%)" stroke-width="0.00019"></path>
<path d="M1.403 0.307 Q1.270 0.357 1.338 0.433" stroke="hsl(0.0,100%,35%)" stroke-width="0.00879"></path>
<path d="M1.403 0.307 Q1.123 0.286 1.020 0.419" stroke="hsl(0.0,100%,35%)" stroke-width="0.00486"></path>
<path d="M1.403 0.307 Q0.878 0.546 1.228 0.854" stroke="hsl(0.0,100%,35%)" stroke-width="0.00112"></path>
<path d="M1.403 0.307 Q0.747 0.332 0.650 0.657" stroke="hsl(0.0,100%,35%)" stroke-width="0.00094"></path>
<path d="M1.403 0.307 Q1.190 0.102 0.742 0.160" stroke="hsl(0.0,100%,35%)" stroke-width="0.00075"></path>
<path d="M1.403 0.307 Q1.251 0.506 1.605 0.623" stroke="hsl(0.0,100%,35%)" stroke-width="0.00879"></path>
<path d="M1.403 0.307 Q1.174 0.193 0.900 0.280" stroke="hsl(0.0,100%,35%)" stroke-width="0.00094"></path>
<path d="M1.403 0.307 Q1.326 0.062 0.830 0.045" stroke="hsl(0.0,100%,35%)" stroke-width="0.00075"></path>
<path d="M1.403 0.307 Q0.994 0.149 0.596 0.314" stroke="hsl(0.0,100%,35%)" stroke-width="0.00206"></path>
<path d="M1.403 0.307 Q1.316 0.177 1.042 0.190" stroke="hsl(0.0,100%,35%)" stroke-width="0.00243"></path>
<path d="M1.403 0.307 Q0.776 0.611 1.230 0.983" stroke="hsl(0.0,100%,35%)" stroke-width="0.00019"></path>
<path d="M1.403 0.307 Q1.299 0.599 1.846 0.715" stroke="hsl(0.0,100%,35%)" stroke-width="0.00056"></path>
<path d="M1.403 0.307 Q0.535 0.431 0.584 0.881" stroke="hsl(0.0,100%,35%)" stroke-width="0.00037"></path>
<path d="M1.403 0.307 Q0.886 0.109 0.385 0.317" stroke="hsl(0.0,100%,35%)" stroke-width="0.00019"></path>
<path d="M1.403 0.307 Q0.904 0.634 1.433 0.949" stroke="hsl(0.0,100%,35%)" stroke-width="0.00019"></path>
<path d="M1.403 0.307 Q1.025 0.215 0.762 0.379" stroke="hsl(0.0,100%,35%)" stroke-width="0.00037"></path>
<path d="M1.403 0.307 Q0.607 0.256 0.332 0.634" stroke="hsl(0.0,100%,35%)" stroke-width="0.00019"></path>
<path d="M1.403 0.307 Q0.646 0.148 0.169 0.482" stroke="hsl(0.0,100%,35%)" stroke-width="0.00019"></path>
<path d="M1.403 0.307 Q0.404 0.438 0.439 0.955" stroke="hsl(0.0,100%,35%)" stroke-width="0.00019"></path>
<path d="M1.228 0.854 Q1.601 0.814 1.605 0.623" stroke="hsl(0.0,100%,35%)" stroke-width="0.00374"></path>
<path d="M1.228 0.854 Q1.648 0.908 1.846 0.715" stroke="hsl(0.0,100%,35%)" stroke-width="0.00823"></path>
<path d="M1.228 0.854 Q1.433 0.897 1.562 0.807" stroke="hsl(0.0,100%,35%)" stroke-width="0.00131"></path>
<path d="M1.228 0.854 Q1.254 0.943 1.433 0.949" stroke="hsl(0.0,100%,35%)" stroke-width="0.00131"></path>
<path d="M1.228 0.854 Q1.126 0.919 1.230 0.983" stroke="hsl(0.0,100%,35%)" stroke-width="0.00318"></path>
<path d="M1.228 0.854 Q1.407 0.863 1.463 0.777" stroke="hsl(0.0,100%,35%)" stroke-width="0.00019"></path>
<path d="M1.228 0.854 Q1.620 0.666 1.338 0.433" stroke="hsl(0.0,100%,35%)" stroke-width="0.00131"></path>
<path d="M1.228 0.854 Q1.753 0.616 1.403 0.307" stroke="hsl(0.0,100%,35%)" stroke-width="0.00262"></path>
<path d="M1.228 0.854 Q1.666 0.485 1.042 0.190" stroke="hsl(0.0,100%,35%)" stroke-width="0.00019"></path>
<path d="M1.228 0.854 Q1.472 0.595 1.020 0.419" stroke="hsl(0.0,100%,35%)" stroke-width="0.00150"></path>
<path d="M1.228 0.854 Q1.344 0.458 0.596 0.314" stroke="hsl(0.0,100%,35%)" stroke-width="0.00056"></path>
<path d="M1.228 0.854 Q1.096 0.640 0.650 0.657" stroke="hsl(0.0,100%,35%)" stroke-width="0.00037"></path>
<path d="M1.228 0.854 Q1.540 0.410 0.742 0.160" stroke="hsl(0.0,100%,35%)" stroke-width="0.00019"></path>
<path d="M1.228 0.854 Q1.676 0.370 0.830 0.045" stroke="hsl(0.0,100%,35%)" stroke-width="0.00019"></path>
<path d="M1.020 0.419 Q1.071 0.325 0.900 0.280" stroke="hsl(0.0,100%,35%)" stroke-width="0.00187"></path>
<path d="M1.020 0.419 Q1.301 0.440 1.403 0.307" stroke="hsl(0.0,100%,35%)" stroke-width="0.00580"></path>
<path d="M1.020 0.419 Q1.224 0.194 0.830 0.045" stroke="hsl(0.0,100%,35%)" stroke-width="0.00094"></path>
<path d="M1.020 0.419 Q0.891 0.282 0.596 0.314" stroke="hsl(0.0,100%,35%)" stroke-width="0.01927"></path>
<path d="M1.020 0.419 Q1.149 0.638 1.605 0.623" stroke="hsl(0.0,100%,35%)" stroke-width="0.01721"></path>
<path d="M1.020 0.419 Q0.881 0.442 0.895 0.515" stroke="hsl(0.0,100%,35%)" stroke-width="0.00019"></path>
<path d="M1.020 0.419 Q0.644 0.464 0.650 0.657" stroke="hsl(0.0,100%,35%)" stroke-width="0.00337"></path>
<path d="M1.020 0.419 Q0.923 0.347 0.762 0.379" stroke="hsl(0.0,100%,35%)" stroke-width="0.00991"></path>
<path d="M1.020 0.419 Q1.214 0.309 1.042 0.190" stroke="hsl(0.0,100%,35%)" stroke-width="0.00505"></path>
<path d="M1.020 0.419 Q1.168 0.489 1.338 0.433" stroke="hsl(0.0,100%,35%)" stroke-width="0.00112"></path>
<path d="M1.020 0.419 Q0.776 0.678 1.228 0.854" stroke="hsl(0.0,100%,35%)" stroke-width="0.00075"></path>
<path d="M1.020 0.419 Q1.088 0.234 0.742 0.160" stroke="hsl(0.0,100%,35%)" stroke-width="0.00168"></path>
<path d="M1.020 0.419 Q0.611 0.542 0.761 0.768" stroke="hsl(0.0,100%,35%)" stroke-width="0.00075"></path>
<path d="M1.020 0.419 Q0.432 0.563 0.584 0.881" stroke="hsl(0.0,100%,35%)" stroke-width="0.00094"></path>
<path d="M1.020 0.419 Q0.673 0.743 1.230 0.983" stroke="hsl(0.0,100%,35%)" stroke-width="0.00019"></path>
<path d="M1.020 0.419 Q0.344 0.469 0.295 0.810" stroke="hsl(0.0,100%,35%)" stroke-width="0.00075"></path>
<path d="M1.020 0.419 Q1.196 0.732 1.846 0.715" stroke="hsl(0.0,100%,35%)" stroke-width="0.00056"></path>
<path d="M0.596 0.314 Q0.792 0.267 0.742 0.160" stroke="hsl(180.0,100%,35%)" stroke-width="0.01871"></path>
<path d="M0.596 0.314 Q0.775 0.358 0.900 0.280" stroke="hsl(180.0,100%,35%)" stroke-width="0.00823"></path>
<path d="M0.596 0.314 Q0.182 0.534 0.519 0.784" stroke="hsl(180.0,100%,35%)" stroke-width="0.00019"></path>
<path d="M0.596 0.314 Q0.724 0.451 1.020 0.419" stroke="hsl(180.0,100%,35%)" stroke-width="0.01048"></path>
<path d="M0.596 0.314 Q0.918 0.342 1.042 0.190" stroke="hsl(180.0,100%,35%)" stroke-width="0.01628"></path>
<path d="M0.596 0.314 Q0.928 0.227 0.830 0.045" stroke="hsl(180.0,100%,35%)" stroke-width="0.00262"></path>
<path d="M0.596 0.314 Q0.853 0.671 1.605 0.623" stroke="hsl(180.0,100%,35%)" stroke-width="0.00243"></path>
<path d="M0.596 0.314 Q0.627 0.380 0.762 0.379" stroke="hsl(180.0,100%,35%)" stroke-width="0.00075"></path>
<path d="M0.596 0.314 Q0.480 0.711 1.228 0.854" stroke="hsl(180.0,100%,35%)" stroke-width="0.00037"></path>
<path d="M0.596 0.314 Q0.900 0.764 1.846 0.715" stroke="hsl(180.0,100%,35%)" stroke-width="0.00019"></path>
<path d="M0.596 0.314 Q1.005 0.472 1.403 0.307" stroke="hsl(180.0,100%,35%)" stroke-width="0.00037"></path>
<path d="M0.596 0.314 Q0.488 0.274 0.385 0.317" stroke="hsl(180.0,100%,35%)" stroke-width="0.00056"></path>
<path d="M0.596 0.314 Q0.048 0.502 0.295 0.810" stroke="hsl(180.0,100%,35%)" stroke-width="0.00019"></path>
<path d="M0.439 0.955 Q0.570 0.947 0.584 0.881" stroke="hsl(0.0,100%,35%)" stroke-width="0.00037"></path>
<path d="M0.439 0.955 Q1.226 0.618 0.742 0.160" stroke="hsl(0.0,100%,35%)" stroke-width="0.00019"></path>
<path d="M0.906 0.900 Q0.806 0.765 0.519 0.784" stroke="hsl(0.0,100%,35%)" stroke-width="0.00112"></path>
<path d="M0.906 0.900 Q1.002 1.006 1.230 0.983" stroke="hsl(0.0,100%,35%)" stroke-width="0.00037"></path>
<path d="M0.906 0.900 Q0.939 0.805 0.761 0.768" stroke="hsl(0.0,100%,35%)" stroke-width="0.00019"></path>
<path d="M1.042 0.190 Q0.916 0.115 0.742 0.160" stroke="hsl(180.0,100%,35%)" stroke-width="0.02806"></path>
<path d="M1.042 0.190 Q0.720 0.163 0.596 0.314" stroke="hsl(180.0,100%,35%)" stroke-width="0.01740"></path>
<path d="M1.042 0.190 Q0.849 0.300 1.020 0.419" stroke="hsl(180.0,100%,35%)" stroke-width="0.00262"></path>
<path d="M1.042 0.190 Q1.129 0.321 1.403 0.307" stroke="hsl(180.0,100%,35%)" stroke-width="0.00112"></path>
<path d="M1.042 0.190 Q1.052 0.075 0.830 0.045" stroke="hsl(180.0,100%,35%)" stroke-width="0.00243"></path>
<path d="M1.042 0.190 Q0.439 0.423 0.761 0.768" stroke="hsl(180.0,100%,35%)" stroke-width="0.00019"></path>
<path d="M1.042 0.190 Q0.260 0.444 0.584 0.881" stroke="hsl(180.0,100%,35%)" stroke-width="0.00224"></path>
<path d="M1.042 0.190 Q0.900 0.207 0.900 0.280" stroke="hsl(180.0,100%,35%)" stroke-width="0.00599"></path>
<path d="M1.042 0.190 Q0.751 0.229 0.762 0.379" stroke="hsl(180.0,100%,35%)" stroke-width="0.00019"></path>
<path d="M1.042 0.190 Q0.960 0.217 0.994 0.263" stroke="hsl(180.0,100%,35%)" stroke-width="0.00019"></path>
<path d="M1.042 0.190 Q0.977 0.519 1.605 0.623" stroke="hsl(180.0,100%,35%)" stroke-width="0.00056"></path>
<path d="M1.042 0.190 Q0.472 0.345 0.650 0.657" stroke="hsl(180.0,100%,35%)" stroke-width="0.00019"></path>
<path d="M1.042 0.190 Q0.612 0.122 0.385 0.317" stroke="hsl(180.0,100%,35%)" stroke-width="0.00019"></path>
<path d="M0.900 0.280 Q1.129 0.394 1.403 0.307" stroke="hsl(180.0,100%,35%)" stroke-width="0.00150"></path>
<path d="M0.900 0.280 Q0.720 0.236 0.596 0.314" stroke="hsl(180.0,100%,35%)" stroke-width="0.01310"></path>
<path d="M0.900 0.280 Q0.849 0.373 1.020 0.419" stroke="hsl(180.0,100%,35%)" stroke-width="0.00206"></path>
<path d="M0.900 0.280 Q1.043 0.263 1.042 0.190" stroke="hsl(180.0,100%,35%)" stroke-width="0.01216"></path>
<path d="M0.900 0.280 Q1.052 0.149 0.830 0.045" stroke="hsl(180.0,100%,35%)" stroke-width="0.00037"></path>
<path d="M0.900 0.280 Q0.613 0.195 0.385 0.317" stroke="hsl(180.0,100%,35%)" stroke-width="0.00056"></path>
<path d="M0.900 0.280 Q0.916 0.188 0.742 0.160" stroke="hsl(180.0,100%,35%)" stroke-width="0.00075"></path>
<path d="M0.900 0.280 Q0.978 0.593 1.605 0.623" stroke="hsl(180.0,100%,35%)" stroke-width="0.00056"></path>
<path d="M0.900 0.280 Q0.306 0.456 0.519 0.784" stroke="hsl(180.0,100%,35%)" stroke-width="0.00019"></path>
<path d="M0.900 0.280 Q0.996 0.444 1.338 0.433" stroke="hsl(180.0,100%,35%)" stroke-width="0.00019"></path>
<path d="M0.900 0.280 Q0.502 0.698 1.230 0.983" stroke="hsl(180.0,100%,35%)" stroke-width="0.00037"></path>
<path d="M0.900 0.280 Q0.173 0.424 0.295 0.810" stroke="hsl(180.0,100%,35%)" stroke-width="0.00037"></path>
<path d="M0.762 0.379 Q0.731 0.314 0.596 0.314" stroke="hsl(0.0,100%,35%)" stroke-width="0.00337"></path>
<path d="M0.762 0.379 Q0.860 0.451 1.020 0.419" stroke="hsl(0.0,100%,35%)" stroke-width="0.00842"></path>
<path d="M0.762 0.379 Q0.927 0.266 0.742 0.160" stroke="hsl(0.0,100%,35%)" stroke-width="0.00393"></path>
<path d="M0.762 0.379 Q0.484 0.496 0.650 0.657" stroke="hsl(0.0,100%,35%)" stroke-width="0.00168"></path>
<path d="M0.762 0.379 Q1.063 0.226 0.830 0.045" stroke="hsl(0.0,100%,35%)" stroke-width="0.00037"></path>
<path d="M0.762 0.379 Q0.623 0.273 0.385 0.317" stroke="hsl(0.0,100%,35%)" stroke-width="0.00075"></path>
<path d="M0.762 0.379 Q0.989 0.670 1.605 0.623" stroke="hsl(0.0,100%,35%)" stroke-width="0.00056"></path>
<path d="M0.762 0.379 Q1.054 0.341 1.042 0.190" stroke="hsl(0.0,100%,35%)" stroke-width="0.00037"></path>
<path d="M0.762 0.379 Q1.140 0.472 1.403 0.307" stroke="hsl(0.0,100%,35%)" stroke-width="0.00150"></path>
<path d="M0.762 0.379 Q0.911 0.357 0.900 0.280" stroke="hsl(0.0,100%,35%)" stroke-width="0.00019"></path>
<path d="M0.762 0.379 Q0.762 0.404 0.811 0.410" stroke="hsl(0.0,100%,35%)" stroke-width="0.00019"></path>
<path d="M0.762 0.379 Q1.007 0.521 1.338 0.433" stroke="hsl(0.0,100%,35%)" stroke-width="0.00019"></path>
<path d="M1.338 0.433 Q0.946 0.621 1.228 0.854" stroke="hsl(0.0,100%,35%)" stroke-width="0.00580"></path>
<path d="M1.338 0.433 Q1.319 0.582 1.605 0.623" stroke="hsl(0.0,100%,35%)" stroke-width="0.00543"></path>
<path d="M1.338 0.433 Q1.191 0.362 1.020 0.419" stroke="hsl(0.0,100%,35%)" stroke-width="0.00094"></path>
<path d="M1.338 0.433 Q1.471 0.383 1.403 0.307" stroke="hsl(0.0,100%,35%)" stroke-width="0.01440"></path>
<path d="M1.338 0.433 Q1.390 0.318 1.178 0.268" stroke="hsl(0.0,100%,35%)" stroke-width="0.00056"></path>
<path d="M1.338 0.433 Q0.815 0.408 0.650 0.657" stroke="hsl(0.0,100%,35%)" stroke-width="0.00206"></path>
<path d="M1.338 0.433 Q0.603 0.506 0.584 0.881" stroke="hsl(0.0,100%,35%)" stroke-width="0.00037"></path>
<path d="M1.338 0.433 Q0.714 0.224 0.169 0.482" stroke="hsl(0.0,100%,35%)" stroke-width="0.00019"></path>
<path d="M1.338 0.433 Q1.184 0.436 1.157 0.512" stroke="hsl(0.0,100%,35%)" stroke-width="0.00075"></path>
<path d="M1.338 0.433 Q1.062 0.225 0.596 0.314" stroke="hsl(0.0,100%,35%)" stroke-width="0.00075"></path>
<path d="M1.338 0.433 Q1.384 0.252 1.042 0.190" stroke="hsl(0.0,100%,35%)" stroke-width="0.00019"></path>
<path d="M1.338 0.433 Q0.648 0.445 0.519 0.784" stroke="hsl(0.0,100%,35%)" stroke-width="0.00019"></path>
<path d="M1.338 0.433 Q0.515 0.413 0.295 0.810" stroke="hsl(0.0,100%,35%)" stroke-width="0.00075"></path>
<path d="M1.338 0.433 Q0.781 0.485 0.761 0.768" stroke="hsl(0.0,100%,35%)" stroke-width="0.00075"></path>
<path d="M1.338 0.433 Q1.093 0.291 0.762 0.379" stroke="hsl(0.0,100%,35%)" stroke-width="0.00019"></path>
<path d="M1.230 0.983 Q1.034 0.741 0.519 0.784" stroke="hsl(0.0,100%,35%)" stroke-width="0.00112"></path>
<path d="M1.230 0.983 Q1.705 0.878 1.605 0.623" stroke="hsl(0.0,100%,35%)" stroke-width="0.00318"></path>
<path d="M1.230 0.983 Q1.332 0.918 1.228 0.854" stroke="hsl(0.0,100%,35%)" stroke-width="0.01702"></path>
<path d="M1.230 0.983 Q1.780 0.434 0.830 0.045" stroke="hsl(0.0,100%,35%)" stroke-width="0.00187"></path>
<path d="M1.230 0.983 Q0.901 0.710 0.295 0.810" stroke="hsl(0.0,100%,35%)" stroke-width="0.00075"></path>
<path d="M1.230 0.983 Q1.577 0.659 1.020 0.419" stroke="hsl(0.0,100%,35%)" stroke-width="0.00262"></path>
<path d="M1.230 0.983 Q0.989 0.803 0.584 0.881" stroke="hsl(0.0,100%,35%)" stroke-width="0.00037"></path>
<path d="M1.230 0.983 Q1.101 0.520 0.169 0.482" stroke="hsl(0.0,100%,35%)" stroke-width="0.00094"></path>
<path d="M1.230 0.983 Q1.628 0.565 0.900 0.280" stroke="hsl(0.0,100%,35%)" stroke-width="0.00037"></path>
<path d="M1.230 0.983 Q1.135 0.877 0.906 0.900" stroke="hsl(0.0,100%,35%)" stroke-width="0.00075"></path>
<path d="M1.230 0.983 Q1.168 0.782 0.761 0.768" stroke="hsl(0.0,100%,35%)" stroke-width="0.00019"></path>
<path d="M1.230 0.983 Q1.771 0.549 1.042 0.190" stroke="hsl(0.0,100%,35%)" stroke-width="0.00019"></path>
<path d="M1.230 0.983 Q1.183 0.446 0.124 0.351" stroke="hsl(0.0,100%,35%)" stroke-width="0.00112"></path>
<path d="M1.230 0.983 Q1.201 0.704 0.650 0.657" stroke="hsl(0.0,100%,35%)" stroke-width="0.00131"></path>
<path d="M1.230 0.983 Q1.753 0.972 1.846 0.715" stroke="hsl(0.0,100%,35%)" stroke-width="0.00168"></path>
<path d="M1.230 0.983 Q1.724 0.730 1.338 0.433" stroke="hsl(0.0,100%,35%)" stroke-width="0.00056"></path>
<path d="M1.230 0.983 Q1.448 0.522 0.596 0.314" stroke="hsl(0.0,100%,35%)" stroke-width="0.00019"></path>
<path d="M1.230 0.983 Q1.359 1.007 1.433 0.949" stroke="hsl(0.0,100%,35%)" stroke-width="0.00037"></path>
<path d="M1.230 0.983 Q1.644 0.474 0.742 0.160" stroke="hsl(0.0,100%,35%)" stroke-width="0.00019"></path>
<path d="M1.230 0.983 Q1.857 0.680 1.403 0.307" stroke="hsl(0.0,100%,35%)" stroke-width="0.00019"></path>
<path d="M0.276 0.528 Q0.865 0.842 1.605 0.623" stroke="hsl(0.0,100%,35%)" stroke-width="0.00019"></path>
<path d="M0.276 0.528 Q0.360 0.668 0.650 0.657" stroke="hsl(0.0,100%,35%)" stroke-width="0.00037"></path>
<path d="M0.276 0.528 Q0.736 0.622 1.020 0.419" stroke="hsl(0.0,100%,35%)" stroke-width="0.00019"></path>
<path d="M0.385 0.317 Q0.492 0.358 0.596 0.314" stroke="hsl(180.0,100%,35%)" stroke-width="0.01048"></path>
<path d="M0.385 0.317 Q0.621 0.495 1.020 0.419" stroke="hsl(180.0,100%,35%)" stroke-width="0.00131"></path>
<path d="M0.385 0.317 Q0.689 0.310 0.742 0.160" stroke="hsl(180.0,100%,35%)" stroke-width="0.00636"></path>
<path d="M0.385 0.317 Q0.672 0.401 0.900 0.280" stroke="hsl(180.0,100%,35%)" stroke-width="0.00243"></path>
<path d="M0.385 0.317 Q0.750 0.714 1.605 0.623" stroke="hsl(180.0,100%,35%)" stroke-width="0.00037"></path>
<path d="M0.385 0.317 Q0.387 0.224 0.206 0.202" stroke="hsl(180.0,100%,35%)" stroke-width="0.00019"></path>
<path d="M0.385 0.317 Q0.733 0.412 0.994 0.263" stroke="hsl(180.0,100%,35%)" stroke-width="0.00075"></path>
<path d="M0.385 0.317 Q0.105 0.465 0.332 0.634" stroke="hsl(180.0,100%,35%)" stroke-width="0.00037"></path>
<path d="M0.385 0.317 Q0.033 0.639 0.584 0.881" stroke="hsl(180.0,100%,35%)" stroke-width="0.00056"></path>
<path d="M0.385 0.317 Q0.815 0.385 1.042 0.190" stroke="hsl(180.0,100%,35%)" stroke-width="0.00786"></path>
<path d="M0.385 0.317 Q0.825 0.270 0.830 0.045" stroke="hsl(180.0,100%,35%)" stroke-width="0.00037"></path>
<path d="M0.385 0.317 Q0.524 0.424 0.762 0.379" stroke="hsl(180.0,100%,35%)" stroke-width="0.00131"></path>
<path d="M0.385 0.317 Q0.245 0.540 0.650 0.657" stroke="hsl(180.0,100%,35%)" stroke-width="0.00019"></path>
<path d="M0.385 0.317 Q0.769 0.566 1.338 0.433" stroke="hsl(180.0,100%,35%)" stroke-width="0.00019"></path>
<path d="M1.433 0.949 Q1.407 0.861 1.228 0.854" stroke="hsl(0.0,100%,35%)" stroke-width="0.00861"></path>
<path d="M1.433 0.949 Q1.275 0.647 0.650 0.657" stroke="hsl(0.0,100%,35%)" stroke-width="0.00019"></path>
<path d="M1.433 0.949 Q1.304 0.926 1.230 0.983" stroke="hsl(0.0,100%,35%)" stroke-width="0.00019"></path>
<path d="M1.433 0.949 Q1.175 0.463 0.169 0.482" stroke="hsl(0.0,100%,35%)" stroke-width="0.00019"></path>
<path d="M1.433 0.949 Q1.063 0.746 0.584 0.881" stroke="hsl(0.0,100%,35%)" stroke-width="0.00019"></path>
<path d="M1.433 0.949 Q1.827 0.915 1.846 0.715" stroke="hsl(0.0,100%,35%)" stroke-width="0.00037"></path>
<path d="M1.433 0.949 Q1.932 0.622 1.403 0.307" stroke="hsl(0.0,100%,35%)" stroke-width="0.00019"></path>
<path d="M1.433 0.949 Q1.780 0.821 1.605 0.623" stroke="hsl(0.0,100%,35%)" stroke-width="0.00019"></path>
<path d="M1.433 0.949 Q0.975 0.652 0.295 0.810" stroke="hsl(0.0,100%,35%)" stroke-width="0.00019"></path>
<path d="M1.232 0.078 Q0.921 0.021 0.742 0.160" stroke="hsl(180.0,100%,35%)" stroke-width="0.00019"></path>
<path d="M1.232 0.078 Q1.057 -0.019 0.830 0.045" stroke="hsl(180.0,100%,35%)" stroke-width="0.00019"></path>
<path d="M1.232 0.078 Q1.047 0.096 1.042 0.190" stroke="hsl(180.0,100%,35%)" stroke-width="0.00019"></path>
<path d="M1.183 0.636 Q1.479 0.270 0.830 0.045" stroke="hsl(0.0,100%,35%)" stroke-width="0.00019"></path>
<path d="M1.183 0.636 Q0.929 0.819 1.230 0.983" stroke="hsl(0.0,100%,35%)" stroke-width="0.00019"></path>
<path d="M1.183 0.636 Q1.404 0.714 1.605 0.623" stroke="hsl(0.0,100%,35%)" stroke-width="0.00019"></path>
<path d="M1.183 0.636 Q1.275 0.495 1.020 0.419" stroke="hsl(0.0,100%,35%)" stroke-width="0.00019"></path>
<path d="M0.994 0.263 Q0.646 0.168 0.385 0.317" stroke="hsl(180.0,100%,35%)" stroke-width="0.00019"></path>
<path d="M0.994 0.263 Q0.753 0.209 0.596 0.314" stroke="hsl(180.0,100%,35%)" stroke-width="0.00224"></path>
<path d="M0.994 0.263 Q0.950 0.161 0.742 0.160" stroke="hsl(180.0,100%,35%)" stroke-width="0.00636"></path>
<path d="M0.994 0.263 Q1.163 0.367 1.403 0.307" stroke="hsl(180.0,100%,35%)" stroke-width="0.00037"></path>
<path d="M0.994 0.263 Q1.076 0.236 1.042 0.190" stroke="hsl(180.0,100%,35%)" stroke-width="0.00468"></path>
<path d="M0.994 0.263 Q1.011 0.565 1.605 0.623" stroke="hsl(180.0,100%,35%)" stroke-width="0.00094"></path>
<path d="M0.994 0.263 Q0.206 0.397 0.295 0.810" stroke="hsl(180.0,100%,35%)" stroke-width="0.00019"></path>
<path d="M0.994 0.263 Q0.590 0.642 1.241 0.922" stroke="hsl(180.0,100%,35%)" stroke-width="0.00019"></path>
<path d="M0.994 0.263 Q0.638 0.605 1.228 0.854" stroke="hsl(180.0,100%,35%)" stroke-width="0.00019"></path>
<path d="M0.994 0.263 Q0.785 0.275 0.762 0.379" stroke="hsl(180.0,100%,35%)" stroke-width="0.00075"></path>
<path d="M0.994 0.263 Q1.086 0.121 0.830 0.045" stroke="hsl(180.0,100%,35%)" stroke-width="0.00019"></path>
<path d="M0.332 0.634 Q0.848 0.664 1.020 0.419" stroke="hsl(0.0,100%,35%)" stroke-width="0.00019"></path>
<path d="M0.332 0.634 Q0.472 0.709 0.650 0.657" stroke="hsl(0.0,100%,35%)" stroke-width="0.00524"></path>
<path d="M0.332 0.634 Q0.306 0.746 0.519 0.784" stroke="hsl(0.0,100%,35%)" stroke-width="0.00037"></path>
<path d="M0.332 0.634 Q1.052 0.439 0.830 0.045" stroke="hsl(0.0,100%,35%)" stroke-width="0.00037"></path>
<path d="M0.332 0.634 Q0.977 0.883 1.605 0.623" stroke="hsl(0.0,100%,35%)" stroke-width="0.00037"></path>
<path d="M0.332 0.634 Q0.916 0.479 0.742 0.160" stroke="hsl(0.0,100%,35%)" stroke-width="0.00019"></path>
<path d="M0.332 0.634 Q0.612 0.486 0.385 0.317" stroke="hsl(0.0,100%,35%)" stroke-width="0.00056"></path>
<path d="M0.332 0.634 Q0.372 0.525 0.169 0.482" stroke="hsl(0.0,100%,35%)" stroke-width="0.00094"></path>
<path d="M0.332 0.634 Q0.214 0.611 0.144 0.664" stroke="hsl(0.0,100%,35%)" stroke-width="0.00019"></path>
<path d="M0.332 0.634 Q0.172 0.714 0.295 0.810" stroke="hsl(0.0,100%,35%)" stroke-width="0.00019"></path>
<path d="M0.332 0.634 Q0.260 0.808 0.584 0.881" stroke="hsl(0.0,100%,35%)" stroke-width="0.00037"></path>
<path d="M0.169 0.482 Q0.713 0.436 0.742 0.160" stroke="hsl(0.0,100%,35%)" stroke-width="0.00037"></path>
<path d="M0.169 0.482 Q0.129 0.591 0.332 0.634" stroke="hsl(0.0,100%,35%)" stroke-width="0.00019"></path>
<path d="M0.430 0.575 Q0.850 0.615 1.020 0.419" stroke="hsl(0.0,100%,35%)" stroke-width="0.00019"></path>
<path d="M0.430 0.575 Q0.374 0.476 0.169 0.482" stroke="hsl(0.0,100%,35%)" stroke-width="0.00037"></path>
<path d="M0.430 0.575 Q0.753 0.544 0.762 0.379" stroke="hsl(0.0,100%,35%)" stroke-width="0.00019"></path>
<path d="M0.430 0.575 Q0.918 0.430 0.742 0.160" stroke="hsl(0.0,100%,35%)" stroke-width="0.00056"></path>
<path d="M0.430 0.575 Q1.131 0.636 1.403 0.307" stroke="hsl(0.0,100%,35%)" stroke-width="0.00037"></path>
<path d="M0.430 0.575 Q0.998 0.686 1.338 0.433" stroke="hsl(0.0,100%,35%)" stroke-width="0.00019"></path>
<path d="M0.430 0.575 Q1.054 0.390 0.830 0.045" stroke="hsl(0.0,100%,35%)" stroke-width="0.00019"></path>
<path d="M1.048 0.689 Q0.931 0.732 0.988 0.798" stroke="hsl(180.0,100%,35%)" stroke-width="0.00019"></path>
<path d="M1.048 0.689 Q1.362 0.465 0.994 0.263" stroke="hsl(180.0,100%,35%)" stroke-width="0.00019"></path>
<path d="M1.739 0.260 Q1.381 0.415 1.605 0.623" stroke="hsl(0.0,100%,35%)" stroke-width="0.00131"></path>
<path d="M1.739 0.260 Q1.290 0.453 1.568 0.714" stroke="hsl(0.0,100%,35%)" stroke-width="0.00037"></path>
<path d="M1.739 0.260 Q1.124 0.059 0.596 0.314" stroke="hsl(0.0,100%,35%)" stroke-width="0.00019"></path>
<path d="M1.568 0.714 Q1.401 0.320 0.596 0.314" stroke="hsl(0.0,100%,35%)" stroke-width="0.00056"></path>
<path d="M1.568 0.714 Q1.706 0.770 1.846 0.715" stroke="hsl(0.0,100%,35%)" stroke-width="0.00056"></path>
<path d="M1.568 0.714 Q1.659 0.676 1.605 0.623" stroke="hsl(0.0,100%,35%)" stroke-width="0.00075"></path>
<path d="M0.507 -0.494 Q-0.095 -0.072 0.596 0.314" stroke="hsl(180.0,100%,35%)" stroke-width="0.00019"></path>
<path d="M0.507 -0.494 Q0.162 0.284 1.605 0.623" stroke="hsl(180.0,100%,35%)" stroke-width="0.00019"></path>
<path d="M0.507 -0.494 Q0.085 -0.028 0.900 0.280" stroke="hsl(180.0,100%,35%)" stroke-width="0.00019"></path>
<path d="M0.124 0.351 Q0.100 0.405 0.200 0.429" stroke="hsl(0.0,100%,35%)" stroke-width="0.00037"></path>
<path d="M0.124 0.351 Q0.042 0.425 0.169 0.482" stroke="hsl(0.0,100%,35%)" stroke-width="0.00168"></path>
<path d="M0.124 0.351 Q0.647 0.783 1.605 0.623" stroke="hsl(0.0,100%,35%)" stroke-width="0.00094"></path>
<path d="M0.124 0.351 Q0.518 0.564 1.020 0.419" stroke="hsl(0.0,100%,35%)" stroke-width="0.00019"></path>
<path d="M0.124 0.351 Q0.109 0.687 0.761 0.768" stroke="hsl(0.0,100%,35%)" stroke-width="0.00019"></path>
<path d="M0.124 0.351 Q0.799 0.585 1.403 0.307" stroke="hsl(0.0,100%,35%)" stroke-width="0.00037"></path>
<path d="M0.124 0.351 Q0.694 0.877 1.846 0.715" stroke="hsl(0.0,100%,35%)" stroke-width="0.00019"></path>
<path d="M0.124 0.351 Q-0.070 0.708 0.584 0.881" stroke="hsl(0.0,100%,35%)" stroke-width="0.00019"></path>
<path d="M0.124 0.351 Q-0.158 0.615 0.295 0.810" stroke="hsl(0.0,100%,35%)" stroke-width="0.00056"></path>
<path d="M0.124 0.351 Q0.359 0.308 0.327 0.184" stroke="hsl(0.0,100%,35%)" stroke-width="0.00037"></path>
<path d="M0.124 0.351 Q0.156 0.415 0.288 0.414" stroke="hsl(0.0,100%,35%)" stroke-width="0.00075"></path>
<path d="M0.124 0.351 Q0.142 0.609 0.650 0.657" stroke="hsl(0.0,100%,35%)" stroke-width="0.00037"></path>
<path d="M0.124 0.351 Q0.274 0.823 1.228 0.854" stroke="hsl(0.0,100%,35%)" stroke-width="0.00019"></path>
<path d="M1.362 0.622 Q1.482 0.671 1.605 0.623" stroke="hsl(0.0,100%,35%)" stroke-width="0.00019"></path>
<path d="M1.362 0.622 Q0.877 0.313 0.169 0.482" stroke="hsl(0.0,100%,35%)" stroke-width="0.00019"></path>
<path d="M0.625 0.496 Q0.936 0.443 0.900 0.280" stroke="hsl(180.0,100%,35%)" stroke-width="0.00019"></path>
<path d="M0.625 0.496 Q1.013 0.756 1.605 0.623" stroke="hsl(180.0,100%,35%)" stroke-width="0.00019"></path>
<path d="M0.625 0.496 Q0.756 0.400 0.596 0.314" stroke="hsl(180.0,100%,35%)" stroke-width="0.00019"></path>
<path d="M1.418 0.046 Q0.677 0.412 1.228 0.854" stroke="hsl(180.0,100%,35%)" stroke-width="0.00019"></path>
<path d="M1.418 0.046 Q1.125 -0.072 0.830 0.045" stroke="hsl(180.0,100%,35%)" stroke-width="0.00037"></path>
<path d="M1.418 0.046 Q1.050 0.372 1.605 0.623" stroke="hsl(180.0,100%,35%)" stroke-width="0.00019"></path>
<path d="M0.288 0.414 Q0.257 0.350 0.124 0.351" stroke="hsl(0.0,100%,35%)" stroke-width="0.00505"></path>
<path d="M0.288 0.414 Q0.779 0.782 1.605 0.623" stroke="hsl(0.0,100%,35%)" stroke-width="0.00019"></path>
<path d="M0.288 0.414 Q0.174 0.424 0.169 0.482" stroke="hsl(0.0,100%,35%)" stroke-width="0.00019"></path>
<path d="M1.473 0.475 Q1.439 0.427 1.338 0.433" stroke="hsl(0.0,100%,35%)" stroke-width="0.00037"></path>
<path d="M1.473 0.475 Q1.420 0.575 1.605 0.623" stroke="hsl(0.0,100%,35%)" stroke-width="0.00056"></path>
<path d="M1.473 0.475 Q0.850 0.574 0.906 0.900" stroke="hsl(0.0,100%,35%)" stroke-width="0.00019"></path>
<path d="M1.473 0.475 Q0.916 0.402 0.650 0.657" stroke="hsl(0.0,100%,35%)" stroke-width="0.00019"></path>
<path d="M1.473 0.475 Q1.047 0.615 1.228 0.854" stroke="hsl(0.0,100%,35%)" stroke-width="0.00019"></path>
<path d="M0.636 0.436 Q0.714 0.367 0.596 0.314" stroke="hsl(180.0,100%,35%)" stroke-width="0.00150"></path>
<path d="M0.636 0.436 Q0.971 0.724 1.605 0.623" stroke="hsl(180.0,100%,35%)" stroke-width="0.00150"></path>
<path d="M0.815 0.210 Q0.954 0.130 0.830 0.045" stroke="hsl(180.0,100%,35%)" stroke-width="0.00019"></path>
<path d="M0.815 0.210 Q0.944 0.245 1.042 0.190" stroke="hsl(180.0,100%,35%)" stroke-width="0.00019"></path>
<path d="M0.815 0.210 Q0.818 0.170 0.742 0.160" stroke="hsl(180.0,100%,35%)" stroke-width="0.00037"></path>
<path d="M0.580 0.343 Q0.933 0.359 1.042 0.190" stroke="hsl(0.0,100%,35%)" stroke-width="0.00019"></path>
<path d="M0.580 0.343 Q0.610 0.332 0.596 0.314" stroke="hsl(0.0,100%,35%)" stroke-width="0.00019"></path>
<path d="M0.580 0.343 Q0.495 0.728 1.228 0.854" stroke="hsl(0.0,100%,35%)" stroke-width="0.00019"></path>
</g>
<text x="0.295" y="0.795" font-size="0.029446" fill="hsl(0.0,100%,20%)">benjaminwagner</text>
<text x="0.115" y="0.737" font-size="0.006191" fill="hsl(0.0,100%,20%)">westont</text>
<text x="0.584" y="0.866" font-size="0.031107" fill="hsl(0.0,100%,20%)">borenet</text>
<text x="1.605" y="0.590" font-size="0.066782" fill="hsl(0.0,100%,20%)">mtklein</text>
<text x="0.742" y="0.132" font-size="0.057242" fill="hsl(180.0,100%,20%)">egdaniel</text>
<text x="0.761" y="0.756" font-size="0.024568" fill="hsl(0.0,100%,20%)">rmistry</text>
<text x="0.830" y="0.027" font-size="0.037079" fill="hsl(180.0,100%,20%)">jvanverth</text>
<text x="0.650" y="0.640" font-size="0.035697" fill="hsl(0.0,100%,20%)">kjlubick</text>
<text x="1.846" y="0.691" font-size="0.048052" fill="hsl(0.0,100%,20%)">herb</text>
<text x="0.519" y="0.775" font-size="0.017781" fill="hsl(0.0,100%,20%)">jcgregorio</text>
<text x="1.403" y="0.284" font-size="0.046584" fill="hsl(0.0,100%,20%)">reed</text>
<text x="1.228" y="0.830" font-size="0.047450" fill="hsl(0.0,100%,20%)">bungeman</text>
<text x="1.020" y="0.388" font-size="0.061983" fill="hsl(0.0,100%,20%)">brianosman</text>
<text x="0.596" y="0.281" font-size="0.066025" fill="hsl(180.0,100%,20%)">bsalomon</text>
<text x="0.439" y="0.951" font-size="0.006921" fill="hsl(0.0,100%,20%)">stephana</text>
<text x="0.906" y="0.894" font-size="0.011373" fill="hsl(0.0,100%,20%)">hcm</text>
<text x="1.042" y="0.161" font-size="0.057742" fill="hsl(180.0,100%,20%)">robertphillips</text>
<text x="0.655" y="0.736" font-size="0.004377" fill="hsl(0.0,100%,20%)">iannucci</text>
<text x="0.335" y="0.907" font-size="0.002189" fill="hsl(0.0,100%,20%)">ehmaldonado</text>
<text x="0.900" y="0.260" font-size="0.038598" fill="hsl(180.0,100%,20%)">michaelludwig</text>
<text x="0.895" y="0.514" font-size="0.002189" fill="hsl(0.0,100%,20%)">elsenorblanco</text>
<text x="0.762" y="0.364" font-size="0.031184" fill="hsl(0.0,100%,20%)">ethannicholas</text>
<text x="1.338" y="0.415" font-size="0.036755" fill="hsl(0.0,100%,20%)">fmalita</text>
<text x="1.230" y="0.967" font-size="0.032976" fill="hsl(0.0,100%,20%)">halcanary</text>
<text x="0.276" y="0.526" font-size="0.004377" fill="hsl(0.0,100%,20%)">bryct</text>
<text x="0.385" y="0.301" font-size="0.031490" fill="hsl(180.0,100%,20%)">csmartdalton</text>
<text x="1.562" y="0.804" font-size="0.005791" fill="hsl(0.0,100%,20%)">drott</text>
<text x="1.433" y="0.940" font-size="0.018955" fill="hsl(0.0,100%,20%)">jlavrova</text>
<text x="1.463" y="0.776" font-size="0.002189" fill="hsl(0.0,100%,20%)">etienneb</text>
<text x="1.232" y="0.075" font-size="0.004894" fill="hsl(180.0,100%,20%)">ccameron</text>
<text x="1.183" y="0.633" font-size="0.004894" fill="hsl(0.0,100%,20%)">chinmaygarde</text>
<text x="0.206" y="0.201" font-size="0.002189" fill="hsl(180.0,100%,20%)">mjk</text>
<text x="0.994" y="0.252" font-size="0.021107" fill="hsl(180.0,100%,20%)">senorblanco</text>
<text x="0.332" y="0.625" font-size="0.016669" fill="hsl(0.0,100%,20%)">nifong</text>
<text x="0.169" y="0.475" font-size="0.013132" fill="hsl(0.0,100%,20%)">djsollen</text>
<text x="0.430" y="0.571" font-size="0.008755" fill="hsl(0.0,100%,20%)">stani</text>
<text x="1.048" y="0.688" font-size="0.003095" fill="hsl(180.0,100%,20%)">enga</text>
<text x="0.988" y="0.797" font-size="0.002189" fill="hsl(180.0,100%,20%)">kbr</text>
<text x="1.739" y="0.256" font-size="0.007259" fill="hsl(0.0,100%,20%)">enne</text>
<text x="1.568" y="0.708" font-size="0.010944" fill="hsl(0.0,100%,20%)">khushalsagar</text>
<text x="0.811" y="0.409" font-size="0.002189" fill="hsl(0.0,100%,20%)">backer</text>
<text x="1.178" y="0.266" font-size="0.003791" fill="hsl(0.0,100%,20%)">isabelren</text>
<text x="1.157" y="0.510" font-size="0.004377" fill="hsl(0.0,100%,20%)">aparchur</text>
<text x="0.507" y="-0.496" font-size="0.003791" fill="hsl(180.0,100%,20%)">gkaiser</text>
<text x="0.124" y="0.341" font-size="0.019206" fill="hsl(0.0,100%,20%)">scroggo</text>
<text x="1.362" y="0.620" font-size="0.003791" fill="hsl(0.0,100%,20%)">tdenniston</text>
<text x="0.670" y="0.516" font-size="0.003095" fill="hsl(0.0,100%,20%)">lovisolo</text>
<text x="0.625" y="0.494" font-size="0.003791" fill="hsl(180.0,100%,20%)">liyuqian</text>
<text x="1.418" y="0.044" font-size="0.004377" fill="hsl(180.0,100%,20%)">martin</text>
<text x="0.968" y="0.594" font-size="0.002189" fill="hsl(0.0,100%,20%)">thakis</text>
<text x="1.358" y="0.548" font-size="0.002189" fill="hsl(0.0,100%,20%)">jimbankoski</text>
<text x="1.666" y="0.384" font-size="0.002189" fill="hsl(0.0,100%,20%)">lsalzman</text>
<text x="0.144" y="0.663" font-size="0.002189" fill="hsl(0.0,100%,20%)">pirama</text>
<text x="0.288" y="0.408" font-size="0.012573" fill="hsl(0.0,100%,20%)">nigeltao</text>
<text x="1.473" y="0.472" font-size="0.006191" fill="hsl(0.0,100%,20%)">nihohit</text>
<text x="0.636" y="0.432" font-size="0.008755" fill="hsl(180.0,100%,20%)">rosasco</text>
<text x="0.200" y="0.427" font-size="0.003095" fill="hsl(0.0,100%,20%)">jgaillard</text>
<text x="0.327" y="0.183" font-size="0.003095" fill="hsl(0.0,100%,20%)">chz</text>
<text x="1.241" y="0.920" font-size="0.002189" fill="hsl(180.0,100%,20%)">cwallez</text>
<text x="0.815" y="0.208" font-size="0.004377" fill="hsl(180.0,100%,20%)">sergeyu</text>
<text x="0.580" y="0.341" font-size="0.003791" fill="hsl(0.0,100%,20%)">thomasanderson</text>
</svg>
