<svg width="4000" height="2000" viewBox="-0.025 -0.025 2.05 1.05" xmlns="http://www.w3.org/2000/svg">
  <style>
    path {
      fill: none;
      stroke-linecap: round;
      stroke-opacity: 0.4;
    }

    text {
      text-anchor: middle;
      alignment-baseline: hanging;
    }
  </style>
  <g opacity="0.4">
<path d="M1.668 0.179 Q1.231 0.216 1.208 0.437" stroke="hsl(0.0,100%,35%)" stroke-width="0.00096"></path>
<path d="M1.668 0.179 Q1.791 0.182 1.824 0.123" stroke="hsl(0.0,100%,35%)" stroke-width="0.00780"></path>
<path d="M1.668 0.179 Q1.390 0.176 1.325 0.311" stroke="hsl(0.0,100%,35%)" stroke-width="0.00048"></path>
<path d="M1.668 0.179 Q0.720 0.187 0.529 0.651" stroke="hsl(0.0,100%,35%)" stroke-width="0.00064"></path>
<path d="M1.668 0.179 Q0.805 0.153 0.564 0.568" stroke="hsl(0.0,100%,35%)" stroke-width="0.00016"></path>
<path d="M1.668 0.179 Q1.314 0.287 1.446 0.483" stroke="hsl(0.0,100%,35%)" stroke-width="0.00016"></path>
<path d="M1.668 0.179 Q1.187 0.017 0.766 0.215" stroke="hsl(0.0,100%,35%)" stroke-width="0.00048"></path>
<path d="M1.668 0.179 Q0.373 0.210 0.150 0.848" stroke="hsl(0.0,100%,35%)" stroke-width="0.00016"></path>
<path d="M1.668 0.179 Q1.087 0.319 1.233 0.633" stroke="hsl(0.0,100%,35%)" stroke-width="0.00016"></path>
<path d="M1.668 0.179 Q1.558 0.269 1.711 0.342" stroke="hsl(0.0,100%,35%)" stroke-width="0.00016"></path>
<path d="M1.208 0.437 Q1.152 0.353 0.977 0.362" stroke="hsl(0.0,100%,35%)" stroke-width="0.00557"></path>
<path d="M1.208 0.437 Q1.064 0.540 1.233 0.633" stroke="hsl(0.0,100%,35%)" stroke-width="0.00557"></path>
<path d="M1.208 0.437 Q1.036 0.103 0.347 0.114" stroke="hsl(0.0,100%,35%)" stroke-width="0.00048"></path>
<path d="M1.208 0.437 Q1.685 0.338 1.597 0.084" stroke="hsl(0.0,100%,35%)" stroke-width="0.00716"></path>
<path d="M1.208 0.437 Q1.059 0.631 1.404 0.746" stroke="hsl(0.0,100%,35%)" stroke-width="0.00096"></path>
<path d="M1.208 0.437 Q1.767 0.403 1.824 0.123" stroke="hsl(0.0,100%,35%)" stroke-width="0.00605"></path>
<path d="M1.208 0.437 Q0.812 0.544 0.934 0.761" stroke="hsl(0.0,100%,35%)" stroke-width="0.00016"></path>
<path d="M1.208 0.437 Q0.850 0.483 0.862 0.668" stroke="hsl(0.0,100%,35%)" stroke-width="0.00032"></path>
<path d="M1.208 0.437 Q1.001 0.207 0.508 0.258" stroke="hsl(0.0,100%,35%)" stroke-width="0.00032"></path>
<path d="M1.208 0.437 Q1.367 0.397 1.325 0.311" stroke="hsl(0.0,100%,35%)" stroke-width="0.00127"></path>
<path d="M1.208 0.437 Q1.164 0.238 0.766 0.215" stroke="hsl(0.0,100%,35%)" stroke-width="0.00271"></path>
<path d="M1.208 0.437 Q0.838 0.634 1.141 0.857" stroke="hsl(0.0,100%,35%)" stroke-width="0.00048"></path>
<path d="M1.208 0.437 Q0.350 0.431 0.150 0.848" stroke="hsl(0.0,100%,35%)" stroke-width="0.00032"></path>
<path d="M1.208 0.437 Q1.644 0.400 1.668 0.179" stroke="hsl(0.0,100%,35%)" stroke-width="0.00048"></path>
<path d="M1.208 0.437 Q0.979 0.335 0.730 0.424" stroke="hsl(0.0,100%,35%)" stroke-width="0.00016"></path>
<path d="M1.208 0.437 Q0.822 0.311 0.492 0.472" stroke="hsl(0.0,100%,35%)" stroke-width="0.00032"></path>
<path d="M1.208 0.437 Q1.290 0.508 1.446 0.483" stroke="hsl(0.0,100%,35%)" stroke-width="0.00032"></path>
<path d="M1.208 0.437 Q0.782 0.374 0.564 0.568" stroke="hsl(0.0,100%,35%)" stroke-width="0.00016"></path>
<path d="M1.824 0.123 Q1.742 0.058 1.597 0.084" stroke="hsl(0.0,100%,35%)" stroke-width="0.01974"></path>
<path d="M1.824 0.123 Q1.209 0.073 0.977 0.362" stroke="hsl(0.0,100%,35%)" stroke-width="0.00478"></path>
<path d="M1.824 0.123 Q1.221 -0.043 0.766 0.215" stroke="hsl(0.0,100%,35%)" stroke-width="0.00366"></path>
<path d="M1.824 0.123 Q1.120 0.260 1.233 0.633" stroke="hsl(0.0,100%,35%)" stroke-width="0.00191"></path>
<path d="M1.824 0.123 Q0.838 0.093 0.564 0.568" stroke="hsl(0.0,100%,35%)" stroke-width="0.00111"></path>
<path d="M1.824 0.123 Q1.424 0.117 1.325 0.311" stroke="hsl(0.0,100%,35%)" stroke-width="0.00143"></path>
<path d="M1.824 0.123 Q1.265 0.157 1.208 0.437" stroke="hsl(0.0,100%,35%)" stroke-width="0.00430"></path>
<path d="M1.824 0.123 Q1.592 0.210 1.711 0.342" stroke="hsl(0.0,100%,35%)" stroke-width="0.00032"></path>
<path d="M1.824 0.123 Q1.115 0.350 1.404 0.746" stroke="hsl(0.0,100%,35%)" stroke-width="0.00016"></path>
<path d="M1.824 0.123 Q0.618 0.186 0.476 0.788" stroke="hsl(0.0,100%,35%)" stroke-width="0.00064"></path>
<path d="M1.824 0.123 Q0.982 -0.201 0.165 0.139" stroke="hsl(0.0,100%,35%)" stroke-width="0.00016"></path>
<path d="M1.824 0.123 Q1.093 -0.177 0.347 0.114" stroke="hsl(0.0,100%,35%)" stroke-width="0.00032"></path>
<path d="M1.824 0.123 Q0.407 0.151 0.150 0.848" stroke="hsl(0.0,100%,35%)" stroke-width="0.00016"></path>
<path d="M1.824 0.123 Q1.701 0.119 1.668 0.179" stroke="hsl(0.0,100%,35%)" stroke-width="0.00032"></path>
<path d="M1.325 0.311 Q1.643 0.252 1.597 0.084" stroke="hsl(0.0,100%,35%)" stroke-width="0.01035"></path>
<path d="M1.325 0.311 Q1.109 0.267 0.977 0.362" stroke="hsl(0.0,100%,35%)" stroke-width="0.00748"></path>
<path d="M1.325 0.311 Q1.121 0.151 0.766 0.215" stroke="hsl(0.0,100%,35%)" stroke-width="0.00239"></path>
<path d="M1.325 0.311 Q0.661 0.460 0.806 0.816" stroke="hsl(0.0,100%,35%)" stroke-width="0.00016"></path>
<path d="M1.325 0.311 Q1.725 0.317 1.824 0.123" stroke="hsl(0.0,100%,35%)" stroke-width="0.00637"></path>
<path d="M1.325 0.311 Q1.021 0.454 1.233 0.633" stroke="hsl(0.0,100%,35%)" stroke-width="0.00334"></path>
<path d="M1.325 0.311 Q0.958 0.121 0.508 0.258" stroke="hsl(0.0,100%,35%)" stroke-width="0.00064"></path>
<path d="M1.325 0.311 Q1.165 0.351 1.208 0.437" stroke="hsl(0.0,100%,35%)" stroke-width="0.01273"></path>
<path d="M1.325 0.311 Q1.016 0.544 1.404 0.746" stroke="hsl(0.0,100%,35%)" stroke-width="0.00127"></path>
<path d="M1.325 0.311 Q0.994 0.017 0.347 0.114" stroke="hsl(0.0,100%,35%)" stroke-width="0.00016"></path>
<path d="M1.325 0.311 Q1.393 0.200 1.191 0.142" stroke="hsl(0.0,100%,35%)" stroke-width="0.00032"></path>
<path d="M1.325 0.311 Q0.538 0.294 0.333 0.674" stroke="hsl(0.0,100%,35%)" stroke-width="0.00016"></path>
<path d="M1.325 0.311 Q1.492 0.404 1.711 0.342" stroke="hsl(0.0,100%,35%)" stroke-width="0.00111"></path>
<path d="M1.325 0.311 Q1.602 0.313 1.668 0.179" stroke="hsl(0.0,100%,35%)" stroke-width="0.00239"></path>
<path d="M1.325 0.311 Q0.307 0.345 0.150 0.848" stroke="hsl(0.0,100%,35%)" stroke-width="0.00048"></path>
<path d="M1.325 0.311 Q0.459 0.498 0.635 0.961" stroke="hsl(0.0,100%,35%)" stroke-width="0.00143"></path>
<path d="M1.325 0.311 Q0.913 0.306 0.814 0.506" stroke="hsl(0.0,100%,35%)" stroke-width="0.00016"></path>
<path d="M1.325 0.311 Q1.248 0.421 1.446 0.483" stroke="hsl(0.0,100%,35%)" stroke-width="0.00016"></path>
<path d="M1.325 0.311 Q0.739 0.287 0.564 0.568" stroke="hsl(0.0,100%,35%)" stroke-width="0.00016"></path>
<path d="M0.529 0.651 Q1.367 0.733 1.711 0.342" stroke="hsl(0.0,100%,35%)" stroke-width="0.00080"></path>
<path d="M0.529 0.651 Q0.412 0.623 0.333 0.674" stroke="hsl(0.0,100%,35%)" stroke-width="0.00175"></path>
<path d="M0.529 0.651 Q1.176 0.825 1.658 0.548" stroke="hsl(0.0,100%,35%)" stroke-width="0.00016"></path>
<path d="M0.529 0.651 Q0.895 0.783 1.233 0.633" stroke="hsl(0.0,100%,35%)" stroke-width="0.00016"></path>
<path d="M0.529 0.651 Q1.599 0.646 1.824 0.123" stroke="hsl(0.0,100%,35%)" stroke-width="0.00111"></path>
<path d="M0.529 0.651 Q0.613 0.616 0.564 0.568" stroke="hsl(0.0,100%,35%)" stroke-width="0.00334"></path>
<path d="M0.529 0.651 Q0.644 0.787 0.934 0.761" stroke="hsl(0.0,100%,35%)" stroke-width="0.00016"></path>
<path d="M0.529 0.651 Q0.868 0.346 0.347 0.114" stroke="hsl(0.0,100%,35%)" stroke-width="0.00016"></path>
<path d="M0.529 0.651 Q1.199 0.640 1.325 0.311" stroke="hsl(0.0,100%,35%)" stroke-width="0.00048"></path>
<path d="M0.564 0.568 Q0.480 0.602 0.529 0.651" stroke="hsl(0.0,100%,35%)" stroke-width="0.00366"></path>
<path d="M0.564 0.568 Q0.363 0.575 0.333 0.674" stroke="hsl(0.0,100%,35%)" stroke-width="0.00048"></path>
<path d="M0.564 0.568 Q0.842 0.825 1.404 0.746" stroke="hsl(0.0,100%,35%)" stroke-width="0.00032"></path>
<path d="M0.564 0.568 Q0.984 0.323 0.599 0.065" stroke="hsl(0.0,100%,35%)" stroke-width="0.00032"></path>
<path d="M0.564 0.568 Q1.468 0.532 1.597 0.084" stroke="hsl(0.0,100%,35%)" stroke-width="0.00016"></path>
<path d="M0.564 0.568 Q0.739 0.587 0.814 0.506" stroke="hsl(0.0,100%,35%)" stroke-width="0.00016"></path>
<path d="M0.564 0.568 Q0.621 0.828 1.141 0.857" stroke="hsl(0.0,100%,35%)" stroke-width="0.00016"></path>
<path d="M0.564 0.568 Q0.991 0.631 1.208 0.437" stroke="hsl(0.0,100%,35%)" stroke-width="0.00016"></path>
<path d="M0.564 0.568 Q0.935 0.547 0.977 0.362" stroke="hsl(0.0,100%,35%)" stroke-width="0.00016"></path>
<path d="M0.564 0.568 Q1.318 0.684 1.711 0.342" stroke="hsl(0.0,100%,35%)" stroke-width="0.00032"></path>
<path d="M1.446 0.483 Q1.219 0.515 1.233 0.633" stroke="hsl(180.0,100%,35%)" stroke-width="0.00080"></path>
<path d="M1.446 0.483 Q0.506 0.406 0.150 0.848" stroke="hsl(180.0,100%,35%)" stroke-width="0.00016"></path>
<path d="M1.446 0.483 Q1.364 0.412 1.208 0.437" stroke="hsl(180.0,100%,35%)" stroke-width="0.00016"></path>
<path d="M1.446 0.483 Q1.523 0.372 1.325 0.311" stroke="hsl(180.0,100%,35%)" stroke-width="0.00016"></path>
<path d="M1.446 0.483 Q0.937 0.349 0.564 0.568" stroke="hsl(180.0,100%,35%)" stroke-width="0.00064"></path>
<path d="M1.446 0.483 Q0.717 0.442 0.476 0.788" stroke="hsl(180.0,100%,35%)" stroke-width="0.00016"></path>
<path d="M1.446 0.483 Q0.692 0.250 0.073 0.567" stroke="hsl(180.0,100%,35%)" stroke-width="0.00016"></path>
<path d="M0.766 0.215 Q0.803 0.107 0.599 0.065" stroke="hsl(0.0,100%,35%)" stroke-width="0.00032"></path>
<path d="M0.766 0.215 Q1.287 0.316 1.597 0.084" stroke="hsl(0.0,100%,35%)" stroke-width="0.00446"></path>
<path d="M0.766 0.215 Q0.754 0.331 0.977 0.362" stroke="hsl(0.0,100%,35%)" stroke-width="0.01369"></path>
<path d="M0.766 0.215 Q1.369 0.381 1.824 0.123" stroke="hsl(0.0,100%,35%)" stroke-width="0.00414"></path>
<path d="M0.766 0.215 Q1.137 0.468 1.711 0.342" stroke="hsl(0.0,100%,35%)" stroke-width="0.00048"></path>
<path d="M0.766 0.215 Q0.660 0.608 1.404 0.746" stroke="hsl(0.0,100%,35%)" stroke-width="0.00191"></path>
<path d="M0.766 0.215 Q0.665 0.518 1.233 0.633" stroke="hsl(0.0,100%,35%)" stroke-width="0.00334"></path>
<path d="M0.766 0.215 Q0.969 0.375 1.325 0.311" stroke="hsl(0.0,100%,35%)" stroke-width="0.00048"></path>
<path d="M0.766 0.215 Q0.440 0.611 1.141 0.857" stroke="hsl(0.0,100%,35%)" stroke-width="0.00016"></path>
<path d="M0.766 0.215 Q0.810 0.415 1.208 0.437" stroke="hsl(0.0,100%,35%)" stroke-width="0.00239"></path>
<path d="M0.766 0.215 Q0.638 0.081 0.347 0.114" stroke="hsl(0.0,100%,35%)" stroke-width="0.00016"></path>
<path d="M0.766 0.215 Q1.246 0.377 1.668 0.179" stroke="hsl(0.0,100%,35%)" stroke-width="0.00016"></path>
<path d="M0.766 0.215 Q0.383 0.351 0.564 0.568" stroke="hsl(0.0,100%,35%)" stroke-width="0.00016"></path>
<path d="M0.766 0.215 Q-0.048 0.409 0.150 0.848" stroke="hsl(0.0,100%,35%)" stroke-width="0.00016"></path>
<path d="M0.766 0.215 Q0.138 0.253 0.073 0.567" stroke="hsl(0.0,100%,35%)" stroke-width="0.00016"></path>
<path d="M0.766 0.215 Q0.557 0.370 0.814 0.506" stroke="hsl(0.0,100%,35%)" stroke-width="0.00016"></path>
<path d="M0.150 0.848 Q0.612 0.961 0.934 0.761" stroke="hsl(0.0,100%,35%)" stroke-width="0.00016"></path>
<path d="M0.150 0.848 Q0.801 0.625 0.508 0.258" stroke="hsl(0.0,100%,35%)" stroke-width="0.00127"></path>
<path d="M0.150 0.848 Q0.361 0.884 0.476 0.788" stroke="hsl(0.0,100%,35%)" stroke-width="0.00382"></path>
<path d="M0.150 0.848 Q1.008 0.854 1.208 0.437" stroke="hsl(0.0,100%,35%)" stroke-width="0.00048"></path>
<path d="M0.150 0.848 Q0.218 0.899 0.331 0.877" stroke="hsl(0.0,100%,35%)" stroke-width="0.00016"></path>
<path d="M0.150 0.848 Q0.302 1.002 0.635 0.961" stroke="hsl(0.0,100%,35%)" stroke-width="0.00048"></path>
<path d="M0.150 0.848 Q0.864 0.957 1.233 0.633" stroke="hsl(0.0,100%,35%)" stroke-width="0.00207"></path>
<path d="M0.150 0.848 Q0.859 1.048 1.404 0.746" stroke="hsl(0.0,100%,35%)" stroke-width="0.00048"></path>
<path d="M0.150 0.848 Q1.486 0.755 1.597 0.084" stroke="hsl(0.0,100%,35%)" stroke-width="0.00032"></path>
<path d="M0.150 0.848 Q1.335 0.907 1.711 0.342" stroke="hsl(0.0,100%,35%)" stroke-width="0.00255"></path>
<path d="M0.150 0.848 Q0.837 0.520 0.347 0.114" stroke="hsl(0.0,100%,35%)" stroke-width="0.00080"></path>
<path d="M0.150 0.848 Q0.122 0.917 0.250 0.946" stroke="hsl(0.0,100%,35%)" stroke-width="0.00127"></path>
<path d="M0.150 0.848 Q0.199 0.940 0.388 0.936" stroke="hsl(0.0,100%,35%)" stroke-width="0.00016"></path>
<path d="M0.150 0.848 Q1.168 0.814 1.325 0.311" stroke="hsl(0.0,100%,35%)" stroke-width="0.00016"></path>
<path d="M0.150 0.848 Q0.725 0.496 0.165 0.139" stroke="hsl(0.0,100%,35%)" stroke-width="0.00191"></path>
<path d="M0.150 0.848 Q0.651 0.900 0.862 0.668" stroke="hsl(0.0,100%,35%)" stroke-width="0.00016"></path>
<path d="M0.150 0.848 Q1.091 0.925 1.446 0.483" stroke="hsl(0.0,100%,35%)" stroke-width="0.00032"></path>
<path d="M1.233 0.633 Q1.228 0.724 1.404 0.746" stroke="hsl(180.0,100%,35%)" stroke-width="0.01926"></path>
<path d="M1.233 0.633 Q1.704 0.583 1.711 0.342" stroke="hsl(180.0,100%,35%)" stroke-width="0.00302"></path>
<path d="M1.233 0.633 Q0.991 0.404 0.492 0.472" stroke="hsl(180.0,100%,35%)" stroke-width="0.00016"></path>
<path d="M1.233 0.633 Q1.334 0.331 0.766 0.215" stroke="hsl(180.0,100%,35%)" stroke-width="0.00064"></path>
<path d="M1.233 0.633 Q1.855 0.431 1.597 0.084" stroke="hsl(180.0,100%,35%)" stroke-width="0.00732"></path>
<path d="M1.233 0.633 Q1.170 0.300 0.508 0.258" stroke="hsl(180.0,100%,35%)" stroke-width="0.00223"></path>
<path d="M1.233 0.633 Q1.322 0.446 0.977 0.362" stroke="hsl(180.0,100%,35%)" stroke-width="0.00159"></path>
<path d="M1.233 0.633 Q1.206 0.196 0.347 0.114" stroke="hsl(180.0,100%,35%)" stroke-width="0.00032"></path>
<path d="M1.233 0.633 Q1.377 0.530 1.208 0.437" stroke="hsl(180.0,100%,35%)" stroke-width="0.01051"></path>
<path d="M1.233 0.633 Q0.750 0.474 0.333 0.674" stroke="hsl(180.0,100%,35%)" stroke-width="0.00080"></path>
<path d="M1.233 0.633 Q0.981 0.637 0.934 0.761" stroke="hsl(180.0,100%,35%)" stroke-width="0.00032"></path>
<path d="M1.233 0.633 Q1.020 0.576 0.862 0.668" stroke="hsl(180.0,100%,35%)" stroke-width="0.00111"></path>
<path d="M1.233 0.633 Q1.125 0.486 0.814 0.506" stroke="hsl(180.0,100%,35%)" stroke-width="0.00032"></path>
<path d="M1.233 0.633 Q1.937 0.496 1.824 0.123" stroke="hsl(180.0,100%,35%)" stroke-width="0.00127"></path>
<path d="M1.233 0.633 Q1.008 0.727 1.141 0.857" stroke="hsl(180.0,100%,35%)" stroke-width="0.00287"></path>
<path d="M1.233 0.633 Q1.095 0.172 0.165 0.139" stroke="hsl(180.0,100%,35%)" stroke-width="0.00016"></path>
<path d="M1.233 0.633 Q0.867 0.501 0.529 0.651" stroke="hsl(180.0,100%,35%)" stroke-width="0.00032"></path>
<path d="M1.233 0.633 Q1.537 0.490 1.325 0.311" stroke="hsl(180.0,100%,35%)" stroke-width="0.00064"></path>
<path d="M1.233 0.633 Q0.951 0.467 0.564 0.568" stroke="hsl(180.0,100%,35%)" stroke-width="0.00096"></path>
<path d="M1.233 0.633 Q0.519 0.524 0.150 0.848" stroke="hsl(180.0,100%,35%)" stroke-width="0.00287"></path>
<path d="M1.233 0.633 Q0.730 0.559 0.476 0.788" stroke="hsl(180.0,100%,35%)" stroke-width="0.00064"></path>
<path d="M1.233 0.633 Q0.873 0.639 0.806 0.816" stroke="hsl(180.0,100%,35%)" stroke-width="0.00032"></path>
<path d="M1.233 0.633 Q1.460 0.601 1.446 0.483" stroke="hsl(180.0,100%,35%)" stroke-width="0.00159"></path>
<path d="M1.711 0.342 Q1.943 0.255 1.824 0.123" stroke="hsl(0.0,100%,35%)" stroke-width="0.00111"></path>
<path d="M1.711 0.342 Q1.239 0.392 1.233 0.633" stroke="hsl(0.0,100%,35%)" stroke-width="0.00509"></path>
<path d="M1.711 0.342 Q1.131 0.245 0.814 0.506" stroke="hsl(0.0,100%,35%)" stroke-width="0.00080"></path>
<path d="M1.711 0.342 Q0.756 0.233 0.333 0.674" stroke="hsl(0.0,100%,35%)" stroke-width="0.00239"></path>
<path d="M1.711 0.342 Q1.177 0.060 0.508 0.258" stroke="hsl(0.0,100%,35%)" stroke-width="0.00096"></path>
<path d="M1.711 0.342 Q1.519 0.435 1.658 0.548" stroke="hsl(0.0,100%,35%)" stroke-width="0.00478"></path>
<path d="M1.711 0.342 Q1.212 -0.045 0.347 0.114" stroke="hsl(0.0,100%,35%)" stroke-width="0.00557"></path>
<path d="M1.711 0.342 Q1.861 0.190 1.597 0.084" stroke="hsl(0.0,100%,35%)" stroke-width="0.00096"></path>
<path d="M1.711 0.342 Q0.497 0.352 0.250 0.946" stroke="hsl(0.0,100%,35%)" stroke-width="0.00032"></path>
<path d="M1.711 0.342 Q1.377 -0.019 0.599 0.065" stroke="hsl(0.0,100%,35%)" stroke-width="0.00048"></path>
<path d="M1.711 0.342 Q0.997 0.164 0.492 0.472" stroke="hsl(0.0,100%,35%)" stroke-width="0.00287"></path>
<path d="M1.711 0.342 Q0.737 0.319 0.476 0.788" stroke="hsl(0.0,100%,35%)" stroke-width="0.00064"></path>
<path d="M1.711 0.342 Q0.879 0.399 0.806 0.816" stroke="hsl(0.0,100%,35%)" stroke-width="0.00064"></path>
<path d="M1.711 0.342 Q1.234 0.483 1.404 0.746" stroke="hsl(0.0,100%,35%)" stroke-width="0.00175"></path>
<path d="M1.711 0.342 Q0.957 0.226 0.564 0.568" stroke="hsl(0.0,100%,35%)" stroke-width="0.00271"></path>
<path d="M1.711 0.342 Q1.384 0.289 1.208 0.437" stroke="hsl(0.0,100%,35%)" stroke-width="0.00175"></path>
<path d="M1.711 0.342 Q0.873 0.260 0.529 0.651" stroke="hsl(0.0,100%,35%)" stroke-width="0.00223"></path>
<path d="M1.711 0.342 Q1.328 0.206 0.977 0.362" stroke="hsl(0.0,100%,35%)" stroke-width="0.00064"></path>
<path d="M1.711 0.342 Q0.526 0.283 0.150 0.848" stroke="hsl(0.0,100%,35%)" stroke-width="0.00111"></path>
<path d="M1.711 0.342 Q1.543 0.249 1.325 0.311" stroke="hsl(0.0,100%,35%)" stroke-width="0.00016"></path>
<path d="M1.711 0.342 Q0.677 0.437 0.635 0.961" stroke="hsl(0.0,100%,35%)" stroke-width="0.00016"></path>
<path d="M1.711 0.342 Q1.026 0.335 0.862 0.668" stroke="hsl(0.0,100%,35%)" stroke-width="0.00016"></path>
<path d="M1.711 0.342 Q1.340 0.090 0.766 0.215" stroke="hsl(0.0,100%,35%)" stroke-width="0.00016"></path>
<path d="M1.711 0.342 Q1.101 -0.069 0.165 0.139" stroke="hsl(0.0,100%,35%)" stroke-width="0.00032"></path>
<path d="M1.711 0.342 Q0.712 0.127 0.073 0.567" stroke="hsl(0.0,100%,35%)" stroke-width="0.00016"></path>
<path d="M1.473 0.780 Q1.466 0.749 1.404 0.746" stroke="hsl(0.0,100%,35%)" stroke-width="0.00048"></path>
<path d="M1.473 0.780 Q1.471 0.659 1.233 0.633" stroke="hsl(0.0,100%,35%)" stroke-width="0.00016"></path>
<path d="M1.473 0.780 Q1.189 0.492 0.564 0.568" stroke="hsl(0.0,100%,35%)" stroke-width="0.00016"></path>
<path d="M1.404 0.746 Q1.140 0.584 0.766 0.677" stroke="hsl(180.0,100%,35%)" stroke-width="0.00064"></path>
<path d="M1.404 0.746 Q1.409 0.655 1.233 0.633" stroke="hsl(180.0,100%,35%)" stroke-width="0.10171"></path>
<path d="M1.404 0.746 Q1.183 0.749 1.141 0.857" stroke="hsl(180.0,100%,35%)" stroke-width="0.03741"></path>
<path d="M1.404 0.746 Q1.509 0.353 0.766 0.215" stroke="hsl(180.0,100%,35%)" stroke-width="0.00191"></path>
<path d="M1.404 0.746 Q1.381 0.218 0.347 0.114" stroke="hsl(180.0,100%,35%)" stroke-width="0.00287"></path>
<path d="M1.404 0.746 Q1.880 0.605 1.711 0.342" stroke="hsl(180.0,100%,35%)" stroke-width="0.00175"></path>
<path d="M1.404 0.746 Q1.497 0.469 0.977 0.362" stroke="hsl(180.0,100%,35%)" stroke-width="0.00255"></path>
<path d="M1.404 0.746 Q1.346 0.323 0.508 0.258" stroke="hsl(180.0,100%,35%)" stroke-width="0.00159"></path>
<path d="M1.404 0.746 Q1.712 0.512 1.325 0.311" stroke="hsl(180.0,100%,35%)" stroke-width="0.00080"></path>
<path d="M1.404 0.746 Q2.112 0.518 1.824 0.123" stroke="hsl(180.0,100%,35%)" stroke-width="0.00191"></path>
<path d="M1.404 0.746 Q1.157 0.659 0.934 0.761" stroke="hsl(180.0,100%,35%)" stroke-width="0.00016"></path>
<path d="M1.404 0.746 Q2.030 0.453 1.597 0.084" stroke="hsl(180.0,100%,35%)" stroke-width="0.00223"></path>
<path d="M1.404 0.746 Q1.546 0.244 0.599 0.065" stroke="hsl(180.0,100%,35%)" stroke-width="0.00032"></path>
<path d="M1.404 0.746 Q0.926 0.496 0.333 0.674" stroke="hsl(180.0,100%,35%)" stroke-width="0.00080"></path>
<path d="M1.404 0.746 Q0.906 0.582 0.476 0.788" stroke="hsl(180.0,100%,35%)" stroke-width="0.00048"></path>
<path d="M1.404 0.746 Q1.049 0.662 0.806 0.816" stroke="hsl(180.0,100%,35%)" stroke-width="0.00032"></path>
<path d="M1.404 0.746 Q1.270 0.194 0.165 0.139" stroke="hsl(180.0,100%,35%)" stroke-width="0.00111"></path>
<path d="M1.404 0.746 Q1.301 0.508 0.814 0.506" stroke="hsl(180.0,100%,35%)" stroke-width="0.00064"></path>
<path d="M1.404 0.746 Q1.553 0.552 1.208 0.437" stroke="hsl(180.0,100%,35%)" stroke-width="0.00462"></path>
<path d="M1.404 0.746 Q1.042 0.523 0.529 0.651" stroke="hsl(180.0,100%,35%)" stroke-width="0.00048"></path>
<path d="M1.404 0.746 Q0.695 0.546 0.150 0.848" stroke="hsl(180.0,100%,35%)" stroke-width="0.00207"></path>
<path d="M1.404 0.746 Q0.847 0.700 0.635 0.961" stroke="hsl(180.0,100%,35%)" stroke-width="0.00016"></path>
<path d="M1.404 0.746 Q1.195 0.598 0.862 0.668" stroke="hsl(180.0,100%,35%)" stroke-width="0.00032"></path>
<path d="M1.404 0.746 Q1.636 0.623 1.446 0.483" stroke="hsl(180.0,100%,35%)" stroke-width="0.00032"></path>
<path d="M0.333 0.674 Q0.904 0.647 0.977 0.362" stroke="hsl(0.0,100%,35%)" stroke-width="0.00032"></path>
<path d="M0.333 0.674 Q0.449 0.702 0.529 0.651" stroke="hsl(0.0,100%,35%)" stroke-width="0.00080"></path>
<path d="M0.333 0.674 Q0.953 0.423 0.599 0.065" stroke="hsl(0.0,100%,35%)" stroke-width="0.00016"></path>
<path d="M0.333 0.674 Q0.788 0.397 0.347 0.114" stroke="hsl(0.0,100%,35%)" stroke-width="0.00064"></path>
<path d="M0.333 0.674 Q0.534 0.667 0.564 0.568" stroke="hsl(0.0,100%,35%)" stroke-width="0.00223"></path>
<path d="M0.333 0.674 Q0.816 0.834 1.233 0.633" stroke="hsl(0.0,100%,35%)" stroke-width="0.00016"></path>
<path d="M0.333 0.674 Q0.811 0.924 1.404 0.746" stroke="hsl(0.0,100%,35%)" stroke-width="0.00016"></path>
<path d="M0.333 0.674 Q0.960 0.731 1.208 0.437" stroke="hsl(0.0,100%,35%)" stroke-width="0.00016"></path>
<path d="M0.333 0.674 Q1.043 0.801 1.446 0.483" stroke="hsl(0.0,100%,35%)" stroke-width="0.00016"></path>
<path d="M0.333 0.674 Q1.397 0.693 1.668 0.179" stroke="hsl(0.0,100%,35%)" stroke-width="0.00016"></path>
<path d="M0.333 0.674 Q1.119 0.691 1.325 0.311" stroke="hsl(0.0,100%,35%)" stroke-width="0.00016"></path>
<path d="M0.333 0.674 Q0.564 0.838 0.934 0.761" stroke="hsl(0.0,100%,35%)" stroke-width="0.00048"></path>
<path d="M0.599 0.065 Q0.562 0.174 0.766 0.215" stroke="hsl(0.0,100%,35%)" stroke-width="0.00032"></path>
<path d="M0.599 0.065 Q0.434 0.039 0.347 0.114" stroke="hsl(0.0,100%,35%)" stroke-width="0.00096"></path>
<path d="M0.599 0.065 Q0.742 0.518 1.658 0.548" stroke="hsl(0.0,100%,35%)" stroke-width="0.00032"></path>
<path d="M0.599 0.065 Q-0.022 0.316 0.333 0.674" stroke="hsl(0.0,100%,35%)" stroke-width="0.00032"></path>
<path d="M0.599 0.065 Q0.095 0.344 0.529 0.651" stroke="hsl(0.0,100%,35%)" stroke-width="0.00016"></path>
<path d="M0.599 0.065 Q0.180 0.310 0.564 0.568" stroke="hsl(0.0,100%,35%)" stroke-width="0.00016"></path>
<path d="M1.597 0.084 Q1.279 0.143 1.325 0.311" stroke="hsl(0.0,100%,35%)" stroke-width="0.00350"></path>
<path d="M1.597 0.084 Q1.679 0.148 1.824 0.123" stroke="hsl(0.0,100%,35%)" stroke-width="0.00875"></path>
<path d="M1.597 0.084 Q0.948 -0.151 0.347 0.114" stroke="hsl(0.0,100%,35%)" stroke-width="0.00016"></path>
<path d="M1.597 0.084 Q0.976 0.285 1.233 0.633" stroke="hsl(0.0,100%,35%)" stroke-width="0.00255"></path>
<path d="M1.597 0.084 Q1.076 -0.017 0.766 0.215" stroke="hsl(0.0,100%,35%)" stroke-width="0.00382"></path>
<path d="M1.597 0.084 Q1.064 0.099 0.977 0.362" stroke="hsl(0.0,100%,35%)" stroke-width="0.00287"></path>
<path d="M1.597 0.084 Q0.971 0.376 1.404 0.746" stroke="hsl(0.0,100%,35%)" stroke-width="0.00032"></path>
<path d="M1.597 0.084 Q1.120 0.182 1.208 0.437" stroke="hsl(0.0,100%,35%)" stroke-width="0.00271"></path>
<path d="M1.597 0.084 Q1.447 0.236 1.711 0.342" stroke="hsl(0.0,100%,35%)" stroke-width="0.00016"></path>
<path d="M1.597 0.084 Q0.913 -0.047 0.508 0.258" stroke="hsl(0.0,100%,35%)" stroke-width="0.00064"></path>
<path d="M1.597 0.084 Q0.262 0.177 0.150 0.848" stroke="hsl(0.0,100%,35%)" stroke-width="0.00223"></path>
<path d="M1.597 0.084 Q0.473 0.212 0.476 0.788" stroke="hsl(0.0,100%,35%)" stroke-width="0.00064"></path>
<path d="M1.597 0.084 Q0.762 0.229 0.862 0.668" stroke="hsl(0.0,100%,35%)" stroke-width="0.00032"></path>
<path d="M0.814 0.506 Q0.709 0.596 0.862 0.668" stroke="hsl(0.0,100%,35%)" stroke-width="0.00175"></path>
<path d="M0.814 0.506 Q0.670 0.657 0.934 0.761" stroke="hsl(0.0,100%,35%)" stroke-width="0.00016"></path>
<path d="M0.814 0.506 Q0.922 0.653 1.233 0.633" stroke="hsl(0.0,100%,35%)" stroke-width="0.00016"></path>
<path d="M0.814 0.506 Q1.010 0.467 0.977 0.362" stroke="hsl(0.0,100%,35%)" stroke-width="0.00048"></path>
<path d="M0.814 0.506 Q1.393 0.603 1.711 0.342" stroke="hsl(0.0,100%,35%)" stroke-width="0.00064"></path>
<path d="M0.814 0.506 Q0.640 0.487 0.564 0.568" stroke="hsl(0.0,100%,35%)" stroke-width="0.00016"></path>
<path d="M0.814 0.506 Q0.555 0.522 0.529 0.651" stroke="hsl(0.0,100%,35%)" stroke-width="0.00016"></path>
<path d="M0.814 0.506 Q0.859 0.546 0.947 0.534" stroke="hsl(0.0,100%,35%)" stroke-width="0.00032"></path>
<path d="M0.814 0.506 Q0.439 0.494 0.333 0.674" stroke="hsl(0.0,100%,35%)" stroke-width="0.00016"></path>
<path d="M1.141 0.857 Q1.362 0.854 1.404 0.746" stroke="hsl(180.0,100%,35%)" stroke-width="0.02977"></path>
<path d="M1.141 0.857 Q1.367 0.764 1.233 0.633" stroke="hsl(180.0,100%,35%)" stroke-width="0.00955"></path>
<path d="M1.141 0.857 Q1.511 0.661 1.208 0.437" stroke="hsl(180.0,100%,35%)" stroke-width="0.00032"></path>
<path d="M0.977 0.362 Q0.989 0.247 0.766 0.215" stroke="hsl(0.0,100%,35%)" stroke-width="0.00860"></path>
<path d="M0.977 0.362 Q1.510 0.347 1.597 0.084" stroke="hsl(0.0,100%,35%)" stroke-width="0.00302"></path>
<path d="M0.977 0.362 Q1.592 0.412 1.824 0.123" stroke="hsl(0.0,100%,35%)" stroke-width="0.00509"></path>
<path d="M0.977 0.362 Q1.192 0.406 1.325 0.311" stroke="hsl(0.0,100%,35%)" stroke-width="0.00207"></path>
<path d="M0.977 0.362 Q1.033 0.446 1.208 0.437" stroke="hsl(0.0,100%,35%)" stroke-width="0.00478"></path>
<path d="M0.977 0.362 Q0.888 0.549 1.233 0.633" stroke="hsl(0.0,100%,35%)" stroke-width="0.00016"></path>
<path d="M0.977 0.362 Q0.861 0.112 0.347 0.114" stroke="hsl(0.0,100%,35%)" stroke-width="0.00032"></path>
<path d="M0.977 0.362 Q1.360 0.499 1.711 0.342" stroke="hsl(0.0,100%,35%)" stroke-width="0.00016"></path>
<path d="M0.977 0.362 Q0.663 0.643 1.141 0.857" stroke="hsl(0.0,100%,35%)" stroke-width="0.00016"></path>
<path d="M0.977 0.362 Q0.606 0.383 0.564 0.568" stroke="hsl(0.0,100%,35%)" stroke-width="0.00016"></path>
<path d="M0.977 0.362 Q0.675 0.492 0.862 0.668" stroke="hsl(0.0,100%,35%)" stroke-width="0.00016"></path>
<path d="M0.977 0.362 Q0.175 0.440 0.150 0.848" stroke="hsl(0.0,100%,35%)" stroke-width="0.00016"></path>
<path d="M0.977 0.362 Q0.780 0.402 0.814 0.506" stroke="hsl(0.0,100%,35%)" stroke-width="0.00016"></path>
<path d="M0.492 0.472 Q0.521 0.644 0.862 0.668" stroke="hsl(0.0,100%,35%)" stroke-width="0.00111"></path>
<path d="M0.492 0.472 Q1.205 0.651 1.711 0.342" stroke="hsl(0.0,100%,35%)" stroke-width="0.00032"></path>
<path d="M0.492 0.472 Q0.626 0.553 0.814 0.506" stroke="hsl(0.0,100%,35%)" stroke-width="0.00064"></path>
<path d="M0.492 0.472 Q0.878 0.598 1.208 0.437" stroke="hsl(0.0,100%,35%)" stroke-width="0.00032"></path>
<path d="M0.508 0.258 Q1.274 0.454 1.824 0.123" stroke="hsl(0.0,100%,35%)" stroke-width="0.01528"></path>
<path d="M0.508 0.258 Q0.659 0.404 0.977 0.362" stroke="hsl(0.0,100%,35%)" stroke-width="0.00048"></path>
<path d="M0.508 0.258 Q0.543 0.154 0.347 0.114" stroke="hsl(0.0,100%,35%)" stroke-width="0.00621"></path>
<path d="M0.508 0.258 Q0.570 0.591 1.233 0.633" stroke="hsl(0.0,100%,35%)" stroke-width="0.00764"></path>
<path d="M0.508 0.258 Q1.041 0.541 1.711 0.342" stroke="hsl(0.0,100%,35%)" stroke-width="0.00032"></path>
<path d="M0.508 0.258 Q1.192 0.389 1.597 0.084" stroke="hsl(0.0,100%,35%)" stroke-width="0.00048"></path>
<path d="M0.508 0.258 Q0.715 0.488 1.208 0.437" stroke="hsl(0.0,100%,35%)" stroke-width="0.00080"></path>
<path d="M0.508 0.258 Q0.345 0.684 1.141 0.857" stroke="hsl(0.0,100%,35%)" stroke-width="0.00016"></path>
<path d="M0.508 0.258 Q-0.143 0.482 0.150 0.848" stroke="hsl(0.0,100%,35%)" stroke-width="0.00239"></path>
<path d="M0.508 0.258 Q0.874 0.448 1.325 0.311" stroke="hsl(0.0,100%,35%)" stroke-width="0.00064"></path>
<path d="M0.508 0.258 Q0.565 0.681 1.404 0.746" stroke="hsl(0.0,100%,35%)" stroke-width="0.00048"></path>
<path d="M0.508 0.258 Q0.421 0.308 0.499 0.361" stroke="hsl(0.0,100%,35%)" stroke-width="0.00016"></path>
<path d="M0.508 0.258 Q1.151 0.450 1.668 0.179" stroke="hsl(0.0,100%,35%)" stroke-width="0.00032"></path>
<path d="M0.508 0.258 Q0.432 0.130 0.165 0.139" stroke="hsl(0.0,100%,35%)" stroke-width="0.00064"></path>
<path d="M0.347 0.114 Q0.312 0.218 0.508 0.258" stroke="hsl(0.0,100%,35%)" stroke-width="0.00907"></path>
<path d="M0.347 0.114 Q0.177 0.193 0.295 0.294" stroke="hsl(0.0,100%,35%)" stroke-width="0.00064"></path>
<path d="M0.347 0.114 Q0.267 0.403 0.814 0.506" stroke="hsl(0.0,100%,35%)" stroke-width="0.00032"></path>
<path d="M0.347 0.114 Q0.846 0.501 1.711 0.342" stroke="hsl(0.0,100%,35%)" stroke-width="0.00064"></path>
<path d="M0.347 0.114 Q0.370 0.641 1.404 0.746" stroke="hsl(0.0,100%,35%)" stroke-width="0.00080"></path>
<path d="M0.347 0.114 Q0.161 0.494 0.862 0.668" stroke="hsl(0.0,100%,35%)" stroke-width="0.00064"></path>
<path d="M0.347 0.114 Q1.078 0.414 1.824 0.123" stroke="hsl(0.0,100%,35%)" stroke-width="0.00064"></path>
<path d="M0.347 0.114 Q0.375 0.551 1.233 0.633" stroke="hsl(0.0,100%,35%)" stroke-width="0.00096"></path>
<path d="M0.347 0.114 Q0.996 0.349 1.597 0.084" stroke="hsl(0.0,100%,35%)" stroke-width="0.00032"></path>
<path d="M0.347 0.114 Q0.236 0.090 0.165 0.139" stroke="hsl(0.0,100%,35%)" stroke-width="0.00048"></path>
<path d="M0.347 0.114 Q0.463 0.364 0.977 0.362" stroke="hsl(0.0,100%,35%)" stroke-width="0.00064"></path>
<path d="M0.347 0.114 Q0.123 0.554 0.934 0.761" stroke="hsl(0.0,100%,35%)" stroke-width="0.00048"></path>
<path d="M0.347 0.114 Q-0.339 0.442 0.150 0.848" stroke="hsl(0.0,100%,35%)" stroke-width="0.00175"></path>
<path d="M0.347 0.114 Q0.199 0.163 0.262 0.246" stroke="hsl(0.0,100%,35%)" stroke-width="0.00016"></path>
<path d="M0.347 0.114 Q-0.128 0.477 0.476 0.788" stroke="hsl(0.0,100%,35%)" stroke-width="0.00080"></path>
<path d="M0.347 0.114 Q0.602 0.518 1.446 0.483" stroke="hsl(0.0,100%,35%)" stroke-width="0.00032"></path>
<path d="M0.934 0.761 Q0.903 0.590 0.564 0.568" stroke="hsl(0.0,100%,35%)" stroke-width="0.00080"></path>
<path d="M0.934 0.761 Q0.702 0.597 0.333 0.674" stroke="hsl(0.0,100%,35%)" stroke-width="0.00032"></path>
<path d="M0.862 0.668 Q0.967 0.577 0.814 0.506" stroke="hsl(0.0,100%,35%)" stroke-width="0.00080"></path>
<path d="M0.862 0.668 Q0.833 0.496 0.492 0.472" stroke="hsl(0.0,100%,35%)" stroke-width="0.00048"></path>
<path d="M0.862 0.668 Q1.164 0.538 0.977 0.362" stroke="hsl(0.0,100%,35%)" stroke-width="0.00032"></path>
<path d="M0.862 0.668 Q1.075 0.725 1.233 0.633" stroke="hsl(0.0,100%,35%)" stroke-width="0.00032"></path>
<path d="M0.862 0.668 Q1.697 0.523 1.597 0.084" stroke="hsl(0.0,100%,35%)" stroke-width="0.00016"></path>
<path d="M0.862 0.668 Q0.823 0.728 0.934 0.761" stroke="hsl(0.0,100%,35%)" stroke-width="0.00016"></path>
<path d="M0.862 0.668 Q1.220 0.621 1.208 0.437" stroke="hsl(0.0,100%,35%)" stroke-width="0.00016"></path>
<path d="M0.165 0.139 Q0.276 0.163 0.347 0.114" stroke="hsl(0.0,100%,35%)" stroke-width="0.00414"></path>
<path d="M0.165 0.139 Q0.304 0.599 1.233 0.633" stroke="hsl(0.0,100%,35%)" stroke-width="0.00048"></path>
<path d="M0.165 0.139 Q0.241 0.267 0.508 0.258" stroke="hsl(0.0,100%,35%)" stroke-width="0.00048"></path>
<path d="M0.165 0.139 Q0.090 0.543 0.862 0.668" stroke="hsl(0.0,100%,35%)" stroke-width="0.00016"></path>
<path d="M0.165 0.139 Q0.299 0.690 1.404 0.746" stroke="hsl(0.0,100%,35%)" stroke-width="0.00239"></path>
<path d="M0.165 0.139 Q-0.057 0.606 0.806 0.816" stroke="hsl(0.0,100%,35%)" stroke-width="0.00016"></path>
<path d="M0.165 0.139 Q-0.410 0.491 0.150 0.848" stroke="hsl(0.0,100%,35%)" stroke-width="0.00096"></path>
<path d="M0.165 0.139 Q0.775 0.550 1.711 0.342" stroke="hsl(0.0,100%,35%)" stroke-width="0.00048"></path>
<path d="M0.165 0.139 Q-0.199 0.526 0.476 0.788" stroke="hsl(0.0,100%,35%)" stroke-width="0.00032"></path>
<path d="M0.476 0.788 Q1.450 0.812 1.711 0.342" stroke="hsl(0.0,100%,35%)" stroke-width="0.00080"></path>
<path d="M0.476 0.788 Q0.952 0.425 0.347 0.114" stroke="hsl(0.0,100%,35%)" stroke-width="0.00143"></path>
<path d="M0.476 0.788 Q0.619 0.868 0.806 0.816" stroke="hsl(0.0,100%,35%)" stroke-width="0.00653"></path>
<path d="M0.476 0.788 Q0.766 0.805 0.862 0.668" stroke="hsl(0.0,100%,35%)" stroke-width="0.00096"></path>
<path d="M0.476 0.788 Q0.979 0.862 1.233 0.633" stroke="hsl(0.0,100%,35%)" stroke-width="0.00111"></path>
<path d="M0.476 0.788 Q1.601 0.660 1.597 0.084" stroke="hsl(0.0,100%,35%)" stroke-width="0.00016"></path>
<path d="M0.476 0.788 Q0.417 0.907 0.635 0.961" stroke="hsl(0.0,100%,35%)" stroke-width="0.00111"></path>
<path d="M0.476 0.788 Q1.123 0.759 1.208 0.437" stroke="hsl(0.0,100%,35%)" stroke-width="0.00048"></path>
<path d="M0.476 0.788 Q0.265 0.753 0.150 0.848" stroke="hsl(0.0,100%,35%)" stroke-width="0.00143"></path>
<path d="M0.476 0.788 Q0.974 0.953 1.404 0.746" stroke="hsl(0.0,100%,35%)" stroke-width="0.00016"></path>
<path d="M0.476 0.788 Q0.871 0.715 0.814 0.506" stroke="hsl(0.0,100%,35%)" stroke-width="0.00016"></path>
<path d="M0.806 0.816 Q0.664 0.736 0.476 0.788" stroke="hsl(0.0,100%,35%)" stroke-width="0.00780"></path>
<path d="M0.806 0.816 Q1.638 0.760 1.711 0.342" stroke="hsl(0.0,100%,35%)" stroke-width="0.00016"></path>
<path d="M0.806 0.816 Q1.139 0.373 0.347 0.114" stroke="hsl(0.0,100%,35%)" stroke-width="0.00032"></path>
<path d="M0.806 0.816 Q0.453 0.701 0.150 0.848" stroke="hsl(0.0,100%,35%)" stroke-width="0.00016"></path>
<path d="M0.295 0.294 Q0.465 0.214 0.347 0.114" stroke="hsl(0.0,100%,35%)" stroke-width="0.00509"></path>
<path d="M0.295 0.294 Q0.280 0.594 0.862 0.668" stroke="hsl(0.0,100%,35%)" stroke-width="0.00032"></path>
<path d="M0.295 0.294 Q0.430 0.318 0.508 0.258" stroke="hsl(0.0,100%,35%)" stroke-width="0.00016"></path>
<path d="M0.295 0.294 Q-0.010 0.577 0.476 0.788" stroke="hsl(0.0,100%,35%)" stroke-width="0.00032"></path>
<path d="M0.635 0.961 Q0.483 0.808 0.150 0.848" stroke="hsl(0.0,100%,35%)" stroke-width="0.00064"></path>
<path d="M0.635 0.961 Q0.694 0.843 0.476 0.788" stroke="hsl(0.0,100%,35%)" stroke-width="0.00159"></path>
<path d="M1.732 0.859 Q1.868 0.826 1.834 0.752" stroke="hsl(0.0,100%,35%)" stroke-width="0.00080"></path>
<path d="M1.732 0.859 Q1.663 0.646 1.233 0.633" stroke="hsl(0.0,100%,35%)" stroke-width="0.00032"></path>
<path d="M1.732 0.859 Q1.381 0.480 0.564 0.568" stroke="hsl(0.0,100%,35%)" stroke-width="0.00048"></path>
<path d="M1.834 0.752 Q1.717 0.386 0.977 0.362" stroke="hsl(0.0,100%,35%)" stroke-width="0.00048"></path>
<path d="M1.834 0.752 Q1.698 0.785 1.732 0.859" stroke="hsl(0.0,100%,35%)" stroke-width="0.00048"></path>
<path d="M1.834 0.752 Q1.275 1.158 1.943 1.520" stroke="hsl(0.0,100%,35%)" stroke-width="0.00016"></path>
<path d="M1.012 0.300 Q0.851 0.601 1.404 0.746" stroke="hsl(0.0,100%,35%)" stroke-width="0.00016"></path>
<path d="M1.012 0.300 Q0.944 0.324 0.977 0.362" stroke="hsl(0.0,100%,35%)" stroke-width="0.00016"></path>
<path d="M1.012 0.300 Q1.560 0.374 1.824 0.123" stroke="hsl(0.0,100%,35%)" stroke-width="0.00016"></path>
<path d="M1.012 0.300 Q1.000 0.408 1.208 0.437" stroke="hsl(0.0,100%,35%)" stroke-width="0.00016"></path>
<path d="M1.012 0.300 Q0.793 0.178 0.508 0.258" stroke="hsl(0.0,100%,35%)" stroke-width="0.00016"></path>
<path d="M1.658 0.548 Q1.999 0.304 1.597 0.084" stroke="hsl(0.0,100%,35%)" stroke-width="0.00016"></path>
<path d="M1.658 0.548 Q1.849 0.456 1.711 0.342" stroke="hsl(0.0,100%,35%)" stroke-width="0.00032"></path>
<path d="M1.658 0.548 Q1.095 0.339 0.564 0.568" stroke="hsl(0.0,100%,35%)" stroke-width="0.00032"></path>
<path d="M1.658 0.548 Q1.377 0.506 1.233 0.633" stroke="hsl(0.0,100%,35%)" stroke-width="0.00016"></path>
<path d="M1.658 0.548 Q1.164 0.449 0.862 0.668" stroke="hsl(0.0,100%,35%)" stroke-width="0.00016"></path>
<path d="M1.658 0.548 Q0.894 0.346 0.333 0.674" stroke="hsl(0.0,100%,35%)" stroke-width="0.00032"></path>
<path d="M1.658 0.548 Q1.350 0.069 0.347 0.114" stroke="hsl(0.0,100%,35%)" stroke-width="0.00016"></path>
<path d="M0.073 0.567 Q1.072 0.782 1.711 0.342" stroke="hsl(0.0,100%,35%)" stroke-width="0.00064"></path>
<path d="M0.073 0.567 Q0.318 0.666 0.564 0.568" stroke="hsl(0.0,100%,35%)" stroke-width="0.00096"></path>
<path d="M0.073 0.567 Q0.881 0.875 1.658 0.548" stroke="hsl(0.0,100%,35%)" stroke-width="0.00016"></path>
<path d="M1.567 0.439 Q1.716 0.420 1.711 0.342" stroke="hsl(0.0,100%,35%)" stroke-width="0.00016"></path>
<path d="M1.567 0.439 Q1.217 0.033 0.347 0.114" stroke="hsl(0.0,100%,35%)" stroke-width="0.00016"></path>
<path d="M1.567 0.439 Q0.531 0.361 0.150 0.848" stroke="hsl(0.0,100%,35%)" stroke-width="0.00016"></path>
<path d="M0.096 0.238 Q0.135 0.606 0.862 0.668" stroke="hsl(0.0,100%,35%)" stroke-width="0.00016"></path>
<path d="M0.096 0.238 Q0.321 0.226 0.347 0.114" stroke="hsl(0.0,100%,35%)" stroke-width="0.00032"></path>
<path d="M0.096 0.238 Q0.286 0.330 0.508 0.258" stroke="hsl(0.0,100%,35%)" stroke-width="0.00016"></path>
</g>
<text x="1.668" y="0.168" font-size="0.021005" fill="hsl(0.0,100%,20%)">adlai</text>
<text x="1.208" y="0.413" font-size="0.048782" fill="hsl(0.0,100%,20%)">bsalomon</text>
<text x="1.824" y="0.096" font-size="0.053945" fill="hsl(0.0,100%,20%)">robertphillips</text>
<text x="1.325" y="0.289" font-size="0.043330" fill="hsl(0.0,100%,20%)">csmartdalton</text>
<text x="0.529" y="0.640" font-size="0.022094" fill="hsl(0.0,100%,20%)">rmistry</text>
<text x="0.564" y="0.555" font-size="0.024702" fill="hsl(0.0,100%,20%)">borenet</text>
<text x="1.446" y="0.476" font-size="0.012817" fill="hsl(180.0,100%,20%)">mtklein</text>
<text x="0.766" y="0.195" font-size="0.040992" fill="hsl(0.0,100%,20%)">jvanverth</text>
<text x="0.150" y="0.833" font-size="0.031619" fill="hsl(0.0,100%,20%)">reed</text>
<text x="1.233" y="0.594" font-size="0.078144" fill="hsl(180.0,100%,20%)">brianosman</text>
<text x="1.711" y="0.323" font-size="0.039594" fill="hsl(0.0,100%,20%)">kjlubick</text>
<text x="1.473" y="0.778" font-size="0.004844" fill="hsl(0.0,100%,20%)">bajones</text>
<text x="1.404" y="0.705" font-size="0.081984" fill="hsl(180.0,100%,20%)">johnstiles</text>
<text x="0.333" y="0.664" font-size="0.019619" fill="hsl(0.0,100%,20%)">jcgregorio</text>
<text x="0.599" y="0.060" font-size="0.010614" fill="hsl(0.0,100%,20%)">erikrose</text>
<text x="1.597" y="0.058" font-size="0.050252" fill="hsl(0.0,100%,20%)">michaelludwig</text>
<text x="0.814" y="0.498" font-size="0.015623" fill="hsl(0.0,100%,20%)">scroggo</text>
<text x="1.141" y="0.833" font-size="0.048879" fill="hsl(180.0,100%,20%)">ethannicholas</text>
<text x="0.977" y="0.340" font-size="0.044506" fill="hsl(0.0,100%,20%)">egdaniel</text>
<text x="0.492" y="0.465" font-size="0.013530" fill="hsl(0.0,100%,20%)">nifong</text>
<text x="0.508" y="0.238" font-size="0.039772" fill="hsl(0.0,100%,20%)">herb</text>
<text x="0.347" y="0.095" font-size="0.038145" fill="hsl(0.0,100%,20%)">bungeman</text>
<text x="0.934" y="0.756" font-size="0.009928" fill="hsl(0.0,100%,20%)">hcm</text>
<text x="0.862" y="0.659" font-size="0.017332" fill="hsl(0.0,100%,20%)">djsollen</text>
<text x="0.165" y="0.128" font-size="0.020553" fill="hsl(0.0,100%,20%)">jlavrova</text>
<text x="0.476" y="0.773" font-size="0.030792" fill="hsl(0.0,100%,20%)">fmalita</text>
<text x="0.806" y="0.805" font-size="0.022094" fill="hsl(0.0,100%,20%)">jmbetancourt</text>
<text x="0.730" y="0.423" font-size="0.002167" fill="hsl(0.0,100%,20%)">stani</text>
<text x="0.295" y="0.287" font-size="0.013872" fill="hsl(0.0,100%,20%)">drott</text>
<text x="0.262" y="0.245" font-size="0.002167" fill="hsl(0.0,100%,20%)">grieger</text>
<text x="1.191" y="0.141" font-size="0.003064" fill="hsl(0.0,100%,20%)">junov</text>
<text x="0.635" y="0.955" font-size="0.012817" fill="hsl(0.0,100%,20%)">tdenniston</text>
<text x="1.732" y="0.855" font-size="0.007811" fill="hsl(0.0,100%,20%)">cwallez</text>
<text x="1.834" y="0.749" font-size="0.007505" fill="hsl(0.0,100%,20%)">senorblanco</text>
<text x="1.012" y="0.297" font-size="0.004844" fill="hsl(0.0,100%,20%)">emaxx</text>
<text x="1.658" y="0.541" font-size="0.014371" fill="hsl(0.0,100%,20%)">lovisolo</text>
<text x="0.499" y="0.360" font-size="0.002167" fill="hsl(0.0,100%,20%)">jiulongw</text>
<text x="0.766" y="0.674" font-size="0.004333" fill="hsl(180.0,100%,20%)">armansito</text>
<text x="0.073" y="0.563" font-size="0.008106" fill="hsl(0.0,100%,20%)">westont</text>
<text x="0.250" y="0.943" font-size="0.006851" fill="hsl(0.0,100%,20%)">yjbanov</text>
<text x="1.567" y="0.437" font-size="0.003752" fill="hsl(0.0,100%,20%)">pkasting</text>
<text x="0.331" y="0.876" font-size="0.002167" fill="hsl(0.0,100%,20%)">whesse</text>
<text x="0.388" y="0.935" font-size="0.002167" fill="hsl(0.0,100%,20%)">mdebbar</text>
<text x="0.947" y="0.532" font-size="0.003064" fill="hsl(0.0,100%,20%)">nigeltao</text>
<text x="1.943" y="1.518" font-size="0.002167" fill="hsl(0.0,100%,20%)">enga</text>
<text x="0.096" y="0.236" font-size="0.004333" fill="hsl(0.0,100%,20%)">thestig</text>
</svg>
