<svg width="4000" height="2000" viewBox="-0.025 -0.025 2.05 1.05" xmlns="http://www.w3.org/2000/svg">
  <style>
    path {
      fill: none;
      stroke-linecap: round;
      stroke-opacity: 0.4;
    }

    text {
      text-anchor: middle;
      alignment-baseline: hanging;
    }
  </style>
  <g opacity="0.4">
<path d="M1.722 0.917 Q1.323 0.620 0.657 0.750" stroke="hsl(0.0,100%,35%)" stroke-width="0.00017"></path>
<path d="M1.722 0.917 Q1.500 0.431 0.504 0.433" stroke="hsl(0.0,100%,35%)" stroke-width="0.00017"></path>
<path d="M1.722 0.917 Q1.921 0.838 1.812 0.724" stroke="hsl(0.0,100%,35%)" stroke-width="0.00017"></path>
<path d="M0.657 0.750 Q0.618 0.555 0.229 0.531" stroke="hsl(0.0,100%,35%)" stroke-width="0.00052"></path>
<path d="M0.657 0.750 Q1.255 0.968 1.812 0.724" stroke="hsl(0.0,100%,35%)" stroke-width="0.00069"></path>
<path d="M0.657 0.750 Q1.108 0.536 0.789 0.269" stroke="hsl(0.0,100%,35%)" stroke-width="0.00086"></path>
<path d="M0.657 0.750 Q1.423 0.830 1.747 0.474" stroke="hsl(0.0,100%,35%)" stroke-width="0.00035"></path>
<path d="M0.657 0.750 Q0.865 0.671 0.755 0.551" stroke="hsl(0.0,100%,35%)" stroke-width="0.00069"></path>
<path d="M0.657 0.750 Q0.403 0.838 0.519 0.981" stroke="hsl(0.0,100%,35%)" stroke-width="0.00052"></path>
<path d="M0.657 0.750 Q0.834 0.561 0.504 0.433" stroke="hsl(0.0,100%,35%)" stroke-width="0.00035"></path>
<path d="M0.657 0.750 Q0.881 0.456 0.356 0.282" stroke="hsl(0.0,100%,35%)" stroke-width="0.00017"></path>
<path d="M0.504 0.433 Q0.073 0.710 0.519 0.981" stroke="hsl(180.0,100%,35%)" stroke-width="0.00742"></path>
<path d="M0.504 0.433 Q0.778 0.408 0.789 0.269" stroke="hsl(180.0,100%,35%)" stroke-width="0.01277"></path>
<path d="M0.504 0.433 Q0.174 0.615 0.456 0.816" stroke="hsl(180.0,100%,35%)" stroke-width="0.00017"></path>
<path d="M0.504 0.433 Q1.093 0.702 1.747 0.474" stroke="hsl(180.0,100%,35%)" stroke-width="0.00380"></path>
<path d="M0.504 0.433 Q0.925 0.840 1.812 0.724" stroke="hsl(180.0,100%,35%)" stroke-width="0.00276"></path>
<path d="M0.504 0.433 Q0.400 0.350 0.215 0.382" stroke="hsl(180.0,100%,35%)" stroke-width="0.00362"></path>
<path d="M0.504 0.433 Q1.098 0.466 1.292 0.184" stroke="hsl(180.0,100%,35%)" stroke-width="0.00035"></path>
<path d="M0.504 0.433 Q1.255 0.625 1.793 0.300" stroke="hsl(180.0,100%,35%)" stroke-width="0.00259"></path>
<path d="M0.504 0.433 Q0.530 0.730 1.115 0.783" stroke="hsl(180.0,100%,35%)" stroke-width="0.00035"></path>
<path d="M0.504 0.433 Q0.945 0.722 1.605 0.571" stroke="hsl(180.0,100%,35%)" stroke-width="0.00293"></path>
<path d="M0.504 0.433 Q0.551 0.328 0.356 0.282" stroke="hsl(180.0,100%,35%)" stroke-width="0.00052"></path>
<path d="M0.504 0.433 Q0.451 0.827 1.208 0.939" stroke="hsl(180.0,100%,35%)" stroke-width="0.00173"></path>
<path d="M0.504 0.433 Q0.255 0.724 0.768 0.909" stroke="hsl(180.0,100%,35%)" stroke-width="0.00017"></path>
<path d="M0.504 0.433 Q0.288 0.427 0.229 0.531" stroke="hsl(180.0,100%,35%)" stroke-width="0.00035"></path>
<path d="M0.504 0.433 Q0.695 0.733 1.323 0.706" stroke="hsl(180.0,100%,35%)" stroke-width="0.00017"></path>
<path d="M0.504 0.433 Q0.933 0.650 1.451 0.489" stroke="hsl(180.0,100%,35%)" stroke-width="0.00017"></path>
<path d="M0.504 0.433 Q1.053 0.419 1.146 0.148" stroke="hsl(180.0,100%,35%)" stroke-width="0.00017"></path>
<path d="M1.812 0.724 Q1.391 0.317 0.504 0.433" stroke="hsl(0.0,100%,35%)" stroke-width="0.00656"></path>
<path d="M1.812 0.724 Q1.287 0.234 0.215 0.382" stroke="hsl(0.0,100%,35%)" stroke-width="0.00224"></path>
<path d="M1.812 0.724 Q1.831 0.606 1.605 0.571" stroke="hsl(0.0,100%,35%)" stroke-width="0.00017"></path>
<path d="M1.812 0.724 Q1.582 0.617 1.323 0.706" stroke="hsl(0.0,100%,35%)" stroke-width="0.00207"></path>
<path d="M1.812 0.724 Q1.735 0.795 1.856 0.847" stroke="hsl(0.0,100%,35%)" stroke-width="0.00052"></path>
<path d="M1.812 0.724 Q0.960 0.594 0.519 0.981" stroke="hsl(0.0,100%,35%)" stroke-width="0.00397"></path>
<path d="M1.812 0.724 Q1.665 0.292 0.789 0.269" stroke="hsl(0.0,100%,35%)" stroke-width="0.00173"></path>
<path d="M1.812 0.724 Q1.213 0.506 0.657 0.750" stroke="hsl(0.0,100%,35%)" stroke-width="0.00017"></path>
<path d="M1.812 0.724 Q1.438 0.212 0.356 0.282" stroke="hsl(0.0,100%,35%)" stroke-width="0.00017"></path>
<path d="M1.812 0.724 Q1.338 0.711 1.208 0.939" stroke="hsl(0.0,100%,35%)" stroke-width="0.00017"></path>
<path d="M1.812 0.724 Q1.142 0.608 0.768 0.909" stroke="hsl(0.0,100%,35%)" stroke-width="0.00017"></path>
<path d="M1.812 0.724 Q1.984 0.350 1.292 0.184" stroke="hsl(0.0,100%,35%)" stroke-width="0.00035"></path>
<path d="M1.058 0.365 Q1.001 0.263 0.789 0.269" stroke="hsl(180.0,100%,35%)" stroke-width="0.00345"></path>
<path d="M1.058 0.365 Q1.316 0.557 1.747 0.474" stroke="hsl(180.0,100%,35%)" stroke-width="0.00759"></path>
<path d="M1.058 0.365 Q0.752 0.585 1.115 0.783" stroke="hsl(180.0,100%,35%)" stroke-width="0.00052"></path>
<path d="M1.058 0.365 Q0.674 0.682 1.208 0.939" stroke="hsl(180.0,100%,35%)" stroke-width="0.00069"></path>
<path d="M1.058 0.365 Q1.156 0.505 1.451 0.489" stroke="hsl(180.0,100%,35%)" stroke-width="0.00052"></path>
<path d="M1.058 0.365 Q1.167 0.577 1.605 0.571" stroke="hsl(180.0,100%,35%)" stroke-width="0.00552"></path>
<path d="M1.058 0.365 Q0.296 0.565 0.519 0.981" stroke="hsl(180.0,100%,35%)" stroke-width="0.00155"></path>
<path d="M1.058 0.365 Q0.727 0.288 0.504 0.433" stroke="hsl(180.0,100%,35%)" stroke-width="0.00173"></path>
<path d="M1.058 0.365 Q0.478 0.579 0.768 0.909" stroke="hsl(180.0,100%,35%)" stroke-width="0.00017"></path>
<path d="M1.058 0.365 Q0.623 0.205 0.215 0.382" stroke="hsl(180.0,100%,35%)" stroke-width="0.00017"></path>
<path d="M0.789 0.269 Q0.515 0.294 0.504 0.433" stroke="hsl(180.0,100%,35%)" stroke-width="0.06609"></path>
<path d="M0.789 0.269 Q0.411 0.211 0.215 0.382" stroke="hsl(180.0,100%,35%)" stroke-width="0.00880"></path>
<path d="M0.789 0.269 Q1.266 0.485 1.793 0.300" stroke="hsl(180.0,100%,35%)" stroke-width="0.00397"></path>
<path d="M0.789 0.269 Q0.846 0.371 1.058 0.365" stroke="hsl(180.0,100%,35%)" stroke-width="0.02675"></path>
<path d="M0.789 0.269 Q0.936 0.701 1.812 0.724" stroke="hsl(180.0,100%,35%)" stroke-width="0.00138"></path>
<path d="M0.789 0.269 Q1.103 0.563 1.747 0.474" stroke="hsl(180.0,100%,35%)" stroke-width="0.01346"></path>
<path d="M0.789 0.269 Q1.108 0.327 1.292 0.184" stroke="hsl(180.0,100%,35%)" stroke-width="0.00086"></path>
<path d="M0.789 0.269 Q0.462 0.688 1.208 0.939" stroke="hsl(180.0,100%,35%)" stroke-width="0.00535"></path>
<path d="M0.789 0.269 Q0.955 0.583 1.605 0.571" stroke="hsl(180.0,100%,35%)" stroke-width="0.00500"></path>
<path d="M0.789 0.269 Q0.944 0.511 1.451 0.489" stroke="hsl(180.0,100%,35%)" stroke-width="0.00518"></path>
<path d="M0.789 0.269 Q0.540 0.591 1.115 0.783" stroke="hsl(180.0,100%,35%)" stroke-width="0.00863"></path>
<path d="M0.789 0.269 Q1.064 0.280 1.146 0.148" stroke="hsl(180.0,100%,35%)" stroke-width="0.00052"></path>
<path d="M0.789 0.269 Q0.299 0.288 0.229 0.531" stroke="hsl(180.0,100%,35%)" stroke-width="0.00121"></path>
<path d="M0.789 0.269 Q0.251 0.548 0.678 0.872" stroke="hsl(180.0,100%,35%)" stroke-width="0.00035"></path>
<path d="M0.789 0.269 Q0.083 0.571 0.519 0.981" stroke="hsl(180.0,100%,35%)" stroke-width="0.01139"></path>
<path d="M0.789 0.269 Q0.337 0.483 0.657 0.750" stroke="hsl(180.0,100%,35%)" stroke-width="0.00035"></path>
<path d="M0.789 0.269 Q0.546 0.403 0.755 0.551" stroke="hsl(180.0,100%,35%)" stroke-width="0.00017"></path>
<path d="M0.789 0.269 Q-0.011 0.463 0.192 0.896" stroke="hsl(180.0,100%,35%)" stroke-width="0.00052"></path>
<path d="M0.789 0.269 Q0.232 0.377 0.321 0.672" stroke="hsl(180.0,100%,35%)" stroke-width="0.00155"></path>
<path d="M0.789 0.269 Q0.184 0.476 0.456 0.816" stroke="hsl(180.0,100%,35%)" stroke-width="0.00052"></path>
<path d="M0.789 0.269 Q0.266 0.585 0.768 0.909" stroke="hsl(180.0,100%,35%)" stroke-width="0.00017"></path>
<path d="M0.789 0.269 Q0.706 0.594 1.323 0.706" stroke="hsl(180.0,100%,35%)" stroke-width="0.00017"></path>
<path d="M1.747 0.474 Q1.105 0.599 1.208 0.939" stroke="hsl(180.0,100%,35%)" stroke-width="0.00138"></path>
<path d="M1.747 0.474 Q1.599 0.494 1.605 0.571" stroke="hsl(180.0,100%,35%)" stroke-width="0.00328"></path>
<path d="M1.747 0.474 Q1.909 0.396 1.793 0.300" stroke="hsl(180.0,100%,35%)" stroke-width="0.02088"></path>
<path d="M1.747 0.474 Q1.490 0.282 1.058 0.365" stroke="hsl(180.0,100%,35%)" stroke-width="0.00155"></path>
<path d="M1.747 0.474 Q1.158 0.205 0.504 0.433" stroke="hsl(180.0,100%,35%)" stroke-width="0.01588"></path>
<path d="M1.747 0.474 Q1.432 0.180 0.789 0.269" stroke="hsl(180.0,100%,35%)" stroke-width="0.00311"></path>
<path d="M1.747 0.474 Q1.587 0.422 1.451 0.489" stroke="hsl(180.0,100%,35%)" stroke-width="0.00431"></path>
<path d="M1.747 0.474 Q1.184 0.502 1.115 0.783" stroke="hsl(180.0,100%,35%)" stroke-width="0.00207"></path>
<path d="M1.747 0.474 Q1.055 0.122 0.215 0.382" stroke="hsl(180.0,100%,35%)" stroke-width="0.00121"></path>
<path d="M1.747 0.474 Q0.727 0.482 0.519 0.981" stroke="hsl(180.0,100%,35%)" stroke-width="0.00052"></path>
<path d="M1.747 0.474 Q1.580 0.612 1.812 0.724" stroke="hsl(180.0,100%,35%)" stroke-width="0.00035"></path>
<path d="M1.747 0.474 Q1.752 0.238 1.292 0.184" stroke="hsl(180.0,100%,35%)" stroke-width="0.00035"></path>
<path d="M1.115 0.783 Q1.036 0.880 1.208 0.939" stroke="hsl(180.0,100%,35%)" stroke-width="0.00397"></path>
<path d="M1.115 0.783 Q1.363 0.461 0.789 0.269" stroke="hsl(180.0,100%,35%)" stroke-width="0.00052"></path>
<path d="M1.115 0.783 Q0.658 0.763 0.519 0.981" stroke="hsl(180.0,100%,35%)" stroke-width="0.00104"></path>
<path d="M1.115 0.783 Q1.840 0.677 1.793 0.300" stroke="hsl(180.0,100%,35%)" stroke-width="0.00086"></path>
<path d="M1.115 0.783 Q1.530 0.775 1.605 0.571" stroke="hsl(180.0,100%,35%)" stroke-width="0.00518"></path>
<path d="M1.115 0.783 Q1.089 0.486 0.504 0.433" stroke="hsl(180.0,100%,35%)" stroke-width="0.00017"></path>
<path d="M1.115 0.783 Q1.518 0.703 1.451 0.489" stroke="hsl(180.0,100%,35%)" stroke-width="0.00035"></path>
<path d="M1.115 0.783 Q0.873 0.480 0.229 0.531" stroke="hsl(180.0,100%,35%)" stroke-width="0.00017"></path>
<path d="M1.115 0.783 Q1.678 0.755 1.747 0.474" stroke="hsl(180.0,100%,35%)" stroke-width="0.00052"></path>
<path d="M1.115 0.783 Q0.985 0.403 0.215 0.382" stroke="hsl(180.0,100%,35%)" stroke-width="0.00017"></path>
<path d="M1.115 0.783 Q1.638 0.471 1.146 0.148" stroke="hsl(180.0,100%,35%)" stroke-width="0.00017"></path>
<path d="M1.208 0.939 Q1.535 0.520 0.789 0.269" stroke="hsl(180.0,100%,35%)" stroke-width="0.00052"></path>
<path d="M1.208 0.939 Q1.287 0.843 1.115 0.783" stroke="hsl(180.0,100%,35%)" stroke-width="0.00259"></path>
<path d="M1.208 0.939 Q1.261 0.546 0.504 0.433" stroke="hsl(180.0,100%,35%)" stroke-width="0.00086"></path>
<path d="M1.208 0.939 Q1.850 0.815 1.747 0.474" stroke="hsl(180.0,100%,35%)" stroke-width="0.00173"></path>
<path d="M1.208 0.939 Q1.690 0.763 1.451 0.489" stroke="hsl(180.0,100%,35%)" stroke-width="0.00069"></path>
<path d="M1.208 0.939 Q1.045 0.539 0.229 0.531" stroke="hsl(180.0,100%,35%)" stroke-width="0.00017"></path>
<path d="M1.208 0.939 Q1.701 0.834 1.605 0.571" stroke="hsl(180.0,100%,35%)" stroke-width="0.00190"></path>
<path d="M1.208 0.939 Q2.012 0.737 1.793 0.300" stroke="hsl(180.0,100%,35%)" stroke-width="0.00242"></path>
<path d="M1.208 0.939 Q0.830 0.823 0.519 0.981" stroke="hsl(180.0,100%,35%)" stroke-width="0.00035"></path>
<path d="M1.208 0.939 Q1.308 0.440 0.356 0.282" stroke="hsl(180.0,100%,35%)" stroke-width="0.00035"></path>
<path d="M1.451 0.489 Q1.611 0.541 1.747 0.474" stroke="hsl(180.0,100%,35%)" stroke-width="0.00483"></path>
<path d="M1.451 0.489 Q0.969 0.665 1.208 0.939" stroke="hsl(180.0,100%,35%)" stroke-width="0.00224"></path>
<path d="M1.451 0.489 Q1.022 0.272 0.504 0.433" stroke="hsl(180.0,100%,35%)" stroke-width="0.00086"></path>
<path d="M1.451 0.489 Q1.296 0.246 0.789 0.269" stroke="hsl(180.0,100%,35%)" stroke-width="0.00259"></path>
<path d="M1.451 0.489 Q1.462 0.560 1.605 0.571" stroke="hsl(180.0,100%,35%)" stroke-width="0.00190"></path>
<path d="M1.451 0.489 Q1.773 0.463 1.793 0.300" stroke="hsl(180.0,100%,35%)" stroke-width="0.00207"></path>
<path d="M1.451 0.489 Q0.591 0.549 0.519 0.981" stroke="hsl(180.0,100%,35%)" stroke-width="0.00017"></path>
<path d="M1.451 0.489 Q0.739 0.354 0.321 0.672" stroke="hsl(180.0,100%,35%)" stroke-width="0.00017"></path>
<path d="M1.451 0.489 Q1.047 0.569 1.115 0.783" stroke="hsl(180.0,100%,35%)" stroke-width="0.00069"></path>
<path d="M1.451 0.489 Q0.844 0.461 0.657 0.750" stroke="hsl(180.0,100%,35%)" stroke-width="0.00017"></path>
<path d="M1.451 0.489 Q1.443 0.679 1.812 0.724" stroke="hsl(180.0,100%,35%)" stroke-width="0.00017"></path>
<path d="M1.605 0.571 Q1.753 0.551 1.747 0.474" stroke="hsl(180.0,100%,35%)" stroke-width="0.01087"></path>
<path d="M1.605 0.571 Q1.496 0.359 1.058 0.365" stroke="hsl(180.0,100%,35%)" stroke-width="0.00449"></path>
<path d="M1.605 0.571 Q1.111 0.676 1.208 0.939" stroke="hsl(180.0,100%,35%)" stroke-width="0.00518"></path>
<path d="M1.605 0.571 Q1.164 0.282 0.504 0.433" stroke="hsl(180.0,100%,35%)" stroke-width="0.00604"></path>
<path d="M1.605 0.571 Q1.356 0.582 1.323 0.706" stroke="hsl(180.0,100%,35%)" stroke-width="0.00035"></path>
<path d="M1.605 0.571 Q1.586 0.689 1.812 0.724" stroke="hsl(180.0,100%,35%)" stroke-width="0.00069"></path>
<path d="M1.605 0.571 Q1.438 0.256 0.789 0.269" stroke="hsl(180.0,100%,35%)" stroke-width="0.00173"></path>
<path d="M1.605 0.571 Q1.061 0.198 0.215 0.382" stroke="hsl(180.0,100%,35%)" stroke-width="0.00121"></path>
<path d="M1.605 0.571 Q1.915 0.473 1.793 0.300" stroke="hsl(180.0,100%,35%)" stroke-width="0.00725"></path>
<path d="M1.605 0.571 Q1.593 0.499 1.451 0.489" stroke="hsl(180.0,100%,35%)" stroke-width="0.00380"></path>
<path d="M1.605 0.571 Q0.987 0.471 0.657 0.750" stroke="hsl(180.0,100%,35%)" stroke-width="0.00017"></path>
<path d="M1.605 0.571 Q1.190 0.579 1.115 0.783" stroke="hsl(180.0,100%,35%)" stroke-width="0.00656"></path>
<path d="M1.605 0.571 Q0.733 0.559 0.519 0.981" stroke="hsl(180.0,100%,35%)" stroke-width="0.00086"></path>
<path d="M1.605 0.571 Q1.758 0.314 1.292 0.184" stroke="hsl(180.0,100%,35%)" stroke-width="0.00069"></path>
<path d="M0.519 0.981 Q0.734 0.698 0.229 0.531" stroke="hsl(0.0,100%,35%)" stroke-width="0.00104"></path>
<path d="M0.519 0.981 Q1.371 1.111 1.812 0.724" stroke="hsl(0.0,100%,35%)" stroke-width="0.01691"></path>
<path d="M0.519 0.981 Q1.543 0.737 1.292 0.184" stroke="hsl(0.0,100%,35%)" stroke-width="0.00345"></path>
<path d="M0.519 0.981 Q0.701 0.995 0.768 0.909" stroke="hsl(0.0,100%,35%)" stroke-width="0.00552"></path>
<path d="M0.519 0.981 Q1.701 0.896 1.793 0.300" stroke="hsl(0.0,100%,35%)" stroke-width="0.00190"></path>
<path d="M0.519 0.981 Q0.772 0.893 0.657 0.750" stroke="hsl(0.0,100%,35%)" stroke-width="0.00414"></path>
<path d="M0.519 0.981 Q0.950 0.704 0.504 0.433" stroke="hsl(0.0,100%,35%)" stroke-width="0.02140"></path>
<path d="M0.519 0.981 Q0.897 1.098 1.208 0.939" stroke="hsl(0.0,100%,35%)" stroke-width="0.00483"></path>
<path d="M0.519 0.981 Q0.846 0.621 0.215 0.382" stroke="hsl(0.0,100%,35%)" stroke-width="0.00587"></path>
<path d="M0.519 0.981 Q0.975 1.001 1.115 0.783" stroke="hsl(0.0,100%,35%)" stroke-width="0.00311"></path>
<path d="M0.519 0.981 Q1.224 0.679 0.789 0.269" stroke="hsl(0.0,100%,35%)" stroke-width="0.00604"></path>
<path d="M0.519 0.981 Q1.390 0.993 1.605 0.571" stroke="hsl(0.0,100%,35%)" stroke-width="0.00259"></path>
<path d="M0.519 0.981 Q1.141 1.004 1.323 0.706" stroke="hsl(0.0,100%,35%)" stroke-width="0.00173"></path>
<path d="M0.519 0.981 Q0.424 0.873 0.192 0.896" stroke="hsl(0.0,100%,35%)" stroke-width="0.00052"></path>
<path d="M0.519 0.981 Q0.619 0.886 0.456 0.816" stroke="hsl(0.0,100%,35%)" stroke-width="0.00138"></path>
<path d="M0.519 0.981 Q1.499 0.690 1.146 0.148" stroke="hsl(0.0,100%,35%)" stroke-width="0.00069"></path>
<path d="M0.519 0.981 Q1.294 1.182 1.856 0.847" stroke="hsl(0.0,100%,35%)" stroke-width="0.00155"></path>
<path d="M0.519 0.981 Q0.781 0.924 0.727 0.784" stroke="hsl(0.0,100%,35%)" stroke-width="0.00035"></path>
<path d="M0.519 0.981 Q0.667 0.787 0.321 0.672" stroke="hsl(0.0,100%,35%)" stroke-width="0.00052"></path>
<path d="M0.519 0.981 Q1.539 0.973 1.747 0.474" stroke="hsl(0.0,100%,35%)" stroke-width="0.00690"></path>
<path d="M0.519 0.981 Q1.281 0.781 1.058 0.365" stroke="hsl(0.0,100%,35%)" stroke-width="0.00069"></path>
<path d="M0.519 0.981 Q1.051 0.630 0.484 0.293" stroke="hsl(0.0,100%,35%)" stroke-width="0.00035"></path>
<path d="M0.519 0.981 Q0.686 0.958 0.678 0.872" stroke="hsl(0.0,100%,35%)" stroke-width="0.00086"></path>
<path d="M0.519 0.981 Q1.379 0.921 1.451 0.489" stroke="hsl(0.0,100%,35%)" stroke-width="0.00017"></path>
<path d="M0.768 0.909 Q0.586 0.896 0.519 0.981" stroke="hsl(0.0,100%,35%)" stroke-width="0.01898"></path>
<path d="M0.768 0.909 Q1.291 0.593 0.789 0.269" stroke="hsl(0.0,100%,35%)" stroke-width="0.00173"></path>
<path d="M0.768 0.909 Q0.686 0.801 0.456 0.816" stroke="hsl(0.0,100%,35%)" stroke-width="0.00017"></path>
<path d="M0.768 0.909 Q1.457 0.907 1.605 0.571" stroke="hsl(0.0,100%,35%)" stroke-width="0.00017"></path>
<path d="M0.768 0.909 Q0.734 0.701 0.321 0.672" stroke="hsl(0.0,100%,35%)" stroke-width="0.00017"></path>
<path d="M0.768 0.909 Q1.017 0.619 0.504 0.433" stroke="hsl(0.0,100%,35%)" stroke-width="0.00086"></path>
<path d="M0.768 0.909 Q1.446 0.836 1.451 0.489" stroke="hsl(0.0,100%,35%)" stroke-width="0.00017"></path>
<path d="M0.768 0.909 Q0.491 0.787 0.192 0.896" stroke="hsl(0.0,100%,35%)" stroke-width="0.00052"></path>
<path d="M0.768 0.909 Q0.753 0.873 0.678 0.872" stroke="hsl(0.0,100%,35%)" stroke-width="0.00017"></path>
<path d="M0.768 0.909 Q1.438 1.026 1.812 0.724" stroke="hsl(0.0,100%,35%)" stroke-width="0.00017"></path>
<path d="M0.215 0.382 Q0.319 0.466 0.504 0.433" stroke="hsl(180.0,100%,35%)" stroke-width="0.01053"></path>
<path d="M0.215 0.382 Q0.593 0.440 0.789 0.269" stroke="hsl(180.0,100%,35%)" stroke-width="0.00242"></path>
<path d="M0.215 0.382 Q0.759 0.754 1.605 0.571" stroke="hsl(180.0,100%,35%)" stroke-width="0.00362"></path>
<path d="M0.215 0.382 Q-0.113 0.742 0.519 0.981" stroke="hsl(180.0,100%,35%)" stroke-width="0.00449"></path>
<path d="M0.215 0.382 Q0.740 0.873 1.812 0.724" stroke="hsl(180.0,100%,35%)" stroke-width="0.00069"></path>
<path d="M0.215 0.382 Q1.070 0.657 1.793 0.300" stroke="hsl(180.0,100%,35%)" stroke-width="0.00535"></path>
<path d="M0.215 0.382 Q0.907 0.735 1.747 0.474" stroke="hsl(180.0,100%,35%)" stroke-width="0.00052"></path>
<path d="M0.215 0.382 Q0.912 0.498 1.292 0.184" stroke="hsl(180.0,100%,35%)" stroke-width="0.00017"></path>
<path d="M0.215 0.382 Q0.868 0.451 1.146 0.148" stroke="hsl(180.0,100%,35%)" stroke-width="0.00017"></path>
<path d="M0.174 0.787 Q1.211 0.945 1.747 0.474" stroke="hsl(0.0,100%,35%)" stroke-width="0.00017"></path>
<path d="M0.174 0.787 Q0.191 0.953 0.519 0.981" stroke="hsl(0.0,100%,35%)" stroke-width="0.00017"></path>
<path d="M0.174 0.787 Q0.519 0.593 0.215 0.382" stroke="hsl(0.0,100%,35%)" stroke-width="0.00017"></path>
<path d="M1.352 0.571 Q1.789 0.524 1.793 0.300" stroke="hsl(180.0,100%,35%)" stroke-width="0.00017"></path>
<path d="M1.352 0.571 Q0.985 0.726 1.208 0.939" stroke="hsl(180.0,100%,35%)" stroke-width="0.00017"></path>
<path d="M1.352 0.571 Q1.479 0.621 1.605 0.571" stroke="hsl(180.0,100%,35%)" stroke-width="0.00035"></path>
<path d="M1.793 0.300 Q1.631 0.378 1.747 0.474" stroke="hsl(180.0,100%,35%)" stroke-width="0.00863"></path>
<path d="M1.793 0.300 Q0.989 0.503 1.208 0.939" stroke="hsl(180.0,100%,35%)" stroke-width="0.00708"></path>
<path d="M1.793 0.300 Q1.068 0.406 1.115 0.783" stroke="hsl(180.0,100%,35%)" stroke-width="0.00656"></path>
<path d="M1.793 0.300 Q0.611 0.386 0.519 0.981" stroke="hsl(180.0,100%,35%)" stroke-width="0.00086"></path>
<path d="M1.793 0.300 Q1.042 0.109 0.504 0.433" stroke="hsl(180.0,100%,35%)" stroke-width="0.00242"></path>
<path d="M1.793 0.300 Q1.483 0.398 1.605 0.571" stroke="hsl(180.0,100%,35%)" stroke-width="0.01122"></path>
<path d="M1.793 0.300 Q0.865 0.298 0.657 0.750" stroke="hsl(180.0,100%,35%)" stroke-width="0.00052"></path>
<path d="M1.793 0.300 Q1.090 0.003 0.356 0.282" stroke="hsl(180.0,100%,35%)" stroke-width="0.00017"></path>
<path d="M1.793 0.300 Q1.636 0.142 1.292 0.184" stroke="hsl(180.0,100%,35%)" stroke-width="0.00017"></path>
<path d="M1.793 0.300 Q0.939 0.025 0.215 0.382" stroke="hsl(180.0,100%,35%)" stroke-width="0.00017"></path>
<path d="M1.793 0.300 Q1.316 0.083 0.789 0.269" stroke="hsl(180.0,100%,35%)" stroke-width="0.00086"></path>
<path d="M1.793 0.300 Q1.472 0.326 1.451 0.489" stroke="hsl(180.0,100%,35%)" stroke-width="0.00017"></path>
<path d="M0.456 0.816 Q0.523 0.888 0.678 0.872" stroke="hsl(0.0,100%,35%)" stroke-width="0.00052"></path>
<path d="M0.456 0.816 Q0.537 0.925 0.768 0.909" stroke="hsl(0.0,100%,35%)" stroke-width="0.00017"></path>
<path d="M0.456 0.816 Q0.355 0.911 0.519 0.981" stroke="hsl(0.0,100%,35%)" stroke-width="0.00052"></path>
<path d="M0.456 0.816 Q1.227 0.923 1.605 0.571" stroke="hsl(0.0,100%,35%)" stroke-width="0.00017"></path>
<path d="M0.678 0.872 Q1.693 0.809 1.793 0.300" stroke="hsl(0.0,100%,35%)" stroke-width="0.00017"></path>
<path d="M0.678 0.872 Q0.511 0.895 0.519 0.981" stroke="hsl(0.0,100%,35%)" stroke-width="0.00035"></path>
<path d="M0.678 0.872 Q0.416 0.787 0.192 0.896" stroke="hsl(0.0,100%,35%)" stroke-width="0.00017"></path>
<path d="M0.678 0.872 Q0.693 0.908 0.768 0.909" stroke="hsl(0.0,100%,35%)" stroke-width="0.00017"></path>
<path d="M0.678 0.872 Q0.611 0.800 0.456 0.816" stroke="hsl(0.0,100%,35%)" stroke-width="0.00017"></path>
<path d="M1.292 0.184 Q1.496 0.218 1.607 0.126" stroke="hsl(0.0,100%,35%)" stroke-width="0.00017"></path>
<path d="M1.292 0.184 Q1.119 0.558 1.812 0.724" stroke="hsl(0.0,100%,35%)" stroke-width="0.00173"></path>
<path d="M1.292 0.184 Q0.267 0.428 0.519 0.981" stroke="hsl(0.0,100%,35%)" stroke-width="0.00207"></path>
<path d="M1.292 0.184 Q0.972 0.125 0.789 0.269" stroke="hsl(0.0,100%,35%)" stroke-width="0.00035"></path>
<path d="M1.292 0.184 Q1.247 0.136 1.146 0.148" stroke="hsl(0.0,100%,35%)" stroke-width="0.00345"></path>
<path d="M1.292 0.184 Q0.698 0.151 0.504 0.433" stroke="hsl(0.0,100%,35%)" stroke-width="0.00121"></path>
<path d="M1.292 0.184 Q1.449 0.342 1.793 0.300" stroke="hsl(0.0,100%,35%)" stroke-width="0.00017"></path>
<path d="M1.292 0.184 Q1.139 0.440 1.605 0.571" stroke="hsl(0.0,100%,35%)" stroke-width="0.00017"></path>
<path d="M1.292 0.184 Q0.521 0.340 0.657 0.750" stroke="hsl(0.0,100%,35%)" stroke-width="0.00017"></path>
<path d="M1.292 0.184 Q0.594 0.067 0.215 0.382" stroke="hsl(0.0,100%,35%)" stroke-width="0.00017"></path>
<path d="M1.292 0.184 Q1.323 0.117 1.200 0.088" stroke="hsl(0.0,100%,35%)" stroke-width="0.00017"></path>
<path d="M0.229 0.531 Q0.392 0.931 1.208 0.939" stroke="hsl(0.0,100%,35%)" stroke-width="0.00069"></path>
<path d="M0.229 0.531 Q0.014 0.814 0.519 0.981" stroke="hsl(0.0,100%,35%)" stroke-width="0.00017"></path>
<path d="M0.229 0.531 Q0.719 0.512 0.789 0.269" stroke="hsl(0.0,100%,35%)" stroke-width="0.00086"></path>
<path d="M0.229 0.531 Q0.267 0.726 0.657 0.750" stroke="hsl(0.0,100%,35%)" stroke-width="0.00121"></path>
<path d="M0.229 0.531 Q1.196 0.729 1.793 0.300" stroke="hsl(0.0,100%,35%)" stroke-width="0.00069"></path>
<path d="M0.229 0.531 Q0.470 0.834 1.115 0.783" stroke="hsl(0.0,100%,35%)" stroke-width="0.00017"></path>
<path d="M0.229 0.531 Q0.476 0.647 0.755 0.551" stroke="hsl(0.0,100%,35%)" stroke-width="0.00017"></path>
<path d="M0.229 0.531 Q0.445 0.537 0.504 0.433" stroke="hsl(0.0,100%,35%)" stroke-width="0.00017"></path>
<path d="M0.229 0.531 Q0.866 0.944 1.812 0.724" stroke="hsl(0.0,100%,35%)" stroke-width="0.00017"></path>
<path d="M1.323 0.706 Q1.553 0.813 1.812 0.724" stroke="hsl(0.0,100%,35%)" stroke-width="0.00414"></path>
<path d="M1.323 0.706 Q0.700 0.683 0.519 0.981" stroke="hsl(0.0,100%,35%)" stroke-width="0.00086"></path>
<path d="M1.323 0.706 Q1.131 0.406 0.504 0.433" stroke="hsl(0.0,100%,35%)" stroke-width="0.00052"></path>
<path d="M1.323 0.706 Q1.157 0.703 1.115 0.783" stroke="hsl(0.0,100%,35%)" stroke-width="0.00017"></path>
<path d="M1.323 0.706 Q0.882 0.697 0.768 0.909" stroke="hsl(0.0,100%,35%)" stroke-width="0.00017"></path>
<path d="M1.323 0.706 Q1.720 0.675 1.747 0.474" stroke="hsl(0.0,100%,35%)" stroke-width="0.00017"></path>
<path d="M1.323 0.706 Q1.725 0.438 1.292 0.184" stroke="hsl(0.0,100%,35%)" stroke-width="0.00017"></path>
<path d="M1.323 0.706 Q1.476 0.883 1.856 0.847" stroke="hsl(0.0,100%,35%)" stroke-width="0.00017"></path>
<path d="M1.146 0.148 Q0.165 0.439 0.519 0.981" stroke="hsl(0.0,100%,35%)" stroke-width="0.00121"></path>
<path d="M1.146 0.148 Q1.190 0.195 1.292 0.184" stroke="hsl(0.0,100%,35%)" stroke-width="0.00569"></path>
<path d="M1.146 0.148 Q1.185 0.431 1.747 0.474" stroke="hsl(0.0,100%,35%)" stroke-width="0.00017"></path>
<path d="M1.146 0.148 Q1.348 0.354 1.793 0.300" stroke="hsl(0.0,100%,35%)" stroke-width="0.00017"></path>
<path d="M1.445 0.794 Q1.210 0.819 1.208 0.939" stroke="hsl(180.0,100%,35%)" stroke-width="0.00224"></path>
<path d="M1.445 0.794 Q2.014 0.617 1.793 0.300" stroke="hsl(180.0,100%,35%)" stroke-width="0.00017"></path>
<path d="M1.445 0.794 Q1.692 0.642 1.451 0.489" stroke="hsl(180.0,100%,35%)" stroke-width="0.00017"></path>
<path d="M1.445 0.794 Q1.537 0.400 0.789 0.269" stroke="hsl(180.0,100%,35%)" stroke-width="0.00017"></path>
<path d="M1.445 0.794 Q1.263 0.425 0.504 0.433" stroke="hsl(180.0,100%,35%)" stroke-width="0.00017"></path>
<path d="M1.445 0.794 Q1.704 0.714 1.605 0.571" stroke="hsl(180.0,100%,35%)" stroke-width="0.00035"></path>
<path d="M1.445 0.794 Q0.832 0.702 0.519 0.981" stroke="hsl(180.0,100%,35%)" stroke-width="0.00052"></path>
<path d="M1.856 0.847 Q1.933 0.777 1.812 0.724" stroke="hsl(0.0,100%,35%)" stroke-width="0.00759"></path>
<path d="M1.856 0.847 Q1.703 0.670 1.323 0.706" stroke="hsl(0.0,100%,35%)" stroke-width="0.00017"></path>
<path d="M1.856 0.847 Q1.080 0.647 0.519 0.981" stroke="hsl(0.0,100%,35%)" stroke-width="0.00431"></path>
<path d="M1.856 0.847 Q1.511 0.370 0.504 0.433" stroke="hsl(0.0,100%,35%)" stroke-width="0.00052"></path>
<path d="M1.856 0.847 Q1.458 0.764 1.208 0.939" stroke="hsl(0.0,100%,35%)" stroke-width="0.00017"></path>
<path d="M1.856 0.847 Q2.105 0.403 1.292 0.184" stroke="hsl(0.0,100%,35%)" stroke-width="0.00017"></path>
<path d="M1.856 0.847 Q1.542 0.479 0.755 0.551" stroke="hsl(0.0,100%,35%)" stroke-width="0.00017"></path>
<path d="M1.856 0.847 Q1.334 0.559 0.657 0.750" stroke="hsl(0.0,100%,35%)" stroke-width="0.00017"></path>
<path d="M0.484 0.293 Q0.382 0.367 0.504 0.433" stroke="hsl(0.0,100%,35%)" stroke-width="0.00207"></path>
<path d="M0.484 0.293 Q0.205 0.556 0.657 0.750" stroke="hsl(0.0,100%,35%)" stroke-width="0.00069"></path>
<path d="M0.484 0.293 Q0.429 0.262 0.356 0.282" stroke="hsl(0.0,100%,35%)" stroke-width="0.00017"></path>
<path d="M0.321 0.672 Q0.173 0.866 0.519 0.981" stroke="hsl(0.0,100%,35%)" stroke-width="0.00466"></path>
<path d="M0.321 0.672 Q0.355 0.880 0.768 0.909" stroke="hsl(0.0,100%,35%)" stroke-width="0.00052"></path>
<path d="M0.321 0.672 Q0.078 0.758 0.192 0.896" stroke="hsl(0.0,100%,35%)" stroke-width="0.00035"></path>
<path d="M0.321 0.672 Q1.044 0.878 1.605 0.571" stroke="hsl(0.0,100%,35%)" stroke-width="0.00069"></path>
<path d="M0.321 0.672 Q1.025 0.996 1.812 0.724" stroke="hsl(0.0,100%,35%)" stroke-width="0.00017"></path>
<path d="M0.321 0.672 Q1.402 0.656 1.607 0.126" stroke="hsl(0.0,100%,35%)" stroke-width="0.00035"></path>
<path d="M0.321 0.672 Q1.502 0.634 1.686 0.050" stroke="hsl(0.0,100%,35%)" stroke-width="0.00017"></path>
<path d="M0.321 0.672 Q0.878 0.564 0.789 0.269" stroke="hsl(0.0,100%,35%)" stroke-width="0.00069"></path>
<path d="M0.321 0.672 Q0.340 0.843 0.678 0.872" stroke="hsl(0.0,100%,35%)" stroke-width="0.00035"></path>
<path d="M0.321 0.672 Q0.273 0.771 0.456 0.816" stroke="hsl(0.0,100%,35%)" stroke-width="0.00017"></path>
<path d="M0.321 0.672 Q0.604 0.589 0.504 0.433" stroke="hsl(0.0,100%,35%)" stroke-width="0.00035"></path>
<path d="M1.607 0.126 Q0.479 0.241 0.456 0.816" stroke="hsl(0.0,100%,35%)" stroke-width="0.00052"></path>
<path d="M1.607 0.126 Q1.707 0.103 1.686 0.050" stroke="hsl(0.0,100%,35%)" stroke-width="0.00242"></path>
<path d="M1.607 0.126 Q0.378 0.336 0.519 0.981" stroke="hsl(0.0,100%,35%)" stroke-width="0.00017"></path>
<path d="M1.607 0.126 Q0.527 0.142 0.321 0.672" stroke="hsl(0.0,100%,35%)" stroke-width="0.00104"></path>
<path d="M1.607 0.126 Q1.561 0.250 1.793 0.300" stroke="hsl(0.0,100%,35%)" stroke-width="0.00017"></path>
<path d="M1.526 0.880 Q1.320 0.846 1.208 0.939" stroke="hsl(180.0,100%,35%)" stroke-width="0.00052"></path>
<path d="M1.526 0.880 Q1.802 0.669 1.451 0.489" stroke="hsl(180.0,100%,35%)" stroke-width="0.00017"></path>
<path d="M1.526 0.880 Q1.961 0.721 1.747 0.474" stroke="hsl(180.0,100%,35%)" stroke-width="0.00035"></path>
<path d="M1.526 0.880 Q1.373 0.452 0.504 0.433" stroke="hsl(180.0,100%,35%)" stroke-width="0.00017"></path>
<path d="M1.526 0.880 Q1.813 0.741 1.605 0.571" stroke="hsl(180.0,100%,35%)" stroke-width="0.00017"></path>
<path d="M1.336 0.654 Q1.288 0.677 1.323 0.706" stroke="hsl(0.0,100%,35%)" stroke-width="0.00017"></path>
<path d="M1.336 0.654 Q0.665 0.654 0.519 0.981" stroke="hsl(0.0,100%,35%)" stroke-width="0.00017"></path>
<path d="M1.336 0.654 Q1.097 0.377 0.504 0.433" stroke="hsl(0.0,100%,35%)" stroke-width="0.00017"></path>
<path d="M1.589 0.721 Q1.277 0.360 0.504 0.433" stroke="hsl(0.0,100%,35%)" stroke-width="0.00035"></path>
<path d="M1.589 0.721 Q1.870 0.393 1.292 0.184" stroke="hsl(0.0,100%,35%)" stroke-width="0.00017"></path>
<path d="M1.589 0.721 Q1.698 0.767 1.812 0.724" stroke="hsl(0.0,100%,35%)" stroke-width="0.00017"></path>
<path d="M1.299 0.984 Q1.289 0.943 1.208 0.939" stroke="hsl(180.0,100%,35%)" stroke-width="0.00224"></path>
<path d="M1.299 0.984 Q1.931 0.818 1.747 0.474" stroke="hsl(180.0,100%,35%)" stroke-width="0.00207"></path>
<path d="M1.299 0.984 Q1.782 0.838 1.605 0.571" stroke="hsl(180.0,100%,35%)" stroke-width="0.00017"></path>
<path d="M1.465 0.365 Q0.930 0.207 0.504 0.433" stroke="hsl(180.0,100%,35%)" stroke-width="0.00017"></path>
<path d="M1.465 0.365 Q1.518 0.476 1.747 0.474" stroke="hsl(180.0,100%,35%)" stroke-width="0.00035"></path>
<path d="M1.465 0.365 Q0.498 0.484 0.519 0.981" stroke="hsl(180.0,100%,35%)" stroke-width="0.00017"></path>
<path d="M1.465 0.365 Q1.370 0.496 1.605 0.571" stroke="hsl(180.0,100%,35%)" stroke-width="0.00035"></path>
<path d="M1.465 0.365 Q0.876 0.601 1.208 0.939" stroke="hsl(180.0,100%,35%)" stroke-width="0.00017"></path>
<path d="M0.564 0.116 Q0.874 0.295 1.292 0.184" stroke="hsl(0.0,100%,35%)" stroke-width="0.00224"></path>
<path d="M0.564 0.116 Q0.701 0.670 1.812 0.724" stroke="hsl(0.0,100%,35%)" stroke-width="0.00155"></path>
<path d="M0.564 0.116 Q0.280 0.263 0.504 0.433" stroke="hsl(0.0,100%,35%)" stroke-width="0.00173"></path>
<path d="M0.564 0.116 Q-0.151 0.539 0.519 0.981" stroke="hsl(0.0,100%,35%)" stroke-width="0.00017"></path>
<path d="M0.564 0.116 Q0.227 0.656 1.208 0.939" stroke="hsl(0.0,100%,35%)" stroke-width="0.00017"></path>
<path d="M0.835 0.679 Q0.688 0.679 0.657 0.750" stroke="hsl(0.0,100%,35%)" stroke-width="0.00086"></path>
<path d="M0.835 0.679 Q0.866 0.490 0.504 0.433" stroke="hsl(0.0,100%,35%)" stroke-width="0.00017"></path>
<path d="M0.835 0.679 Q0.762 0.406 0.215 0.382" stroke="hsl(0.0,100%,35%)" stroke-width="0.00017"></path>
<path d="M1.882 0.508 Q1.842 0.464 1.747 0.474" stroke="hsl(180.0,100%,35%)" stroke-width="0.00121"></path>
<path d="M1.882 0.508 Q1.200 0.589 1.208 0.939" stroke="hsl(180.0,100%,35%)" stroke-width="0.00086"></path>
<path d="M1.882 0.508 Q2.004 0.386 1.793 0.300" stroke="hsl(180.0,100%,35%)" stroke-width="0.00017"></path>
<path d="M1.882 0.508 Q1.253 0.195 0.504 0.433" stroke="hsl(180.0,100%,35%)" stroke-width="0.00052"></path>
<path d="M0.247 0.291 Q0.262 0.414 0.504 0.433" stroke="hsl(180.0,100%,35%)" stroke-width="0.00052"></path>
<path d="M0.247 0.291 Q0.158 0.330 0.215 0.382" stroke="hsl(180.0,100%,35%)" stroke-width="0.00035"></path>
<path d="M0.247 0.291 Q0.536 0.388 0.789 0.269" stroke="hsl(180.0,100%,35%)" stroke-width="0.00017"></path>
<path d="M1.379 0.331 Q1.449 0.476 1.747 0.474" stroke="hsl(180.0,100%,35%)" stroke-width="0.00173"></path>
<path d="M1.379 0.331 Q0.807 0.601 1.208 0.939" stroke="hsl(180.0,100%,35%)" stroke-width="0.00104"></path>
<path d="M1.379 0.331 Q1.300 0.496 1.605 0.571" stroke="hsl(180.0,100%,35%)" stroke-width="0.00086"></path>
<path d="M1.379 0.331 Q0.860 0.207 0.504 0.433" stroke="hsl(180.0,100%,35%)" stroke-width="0.00052"></path>
<path d="M1.379 0.331 Q0.756 0.124 0.215 0.382" stroke="hsl(180.0,100%,35%)" stroke-width="0.00017"></path>
<path d="M1.379 0.331 Q0.429 0.484 0.519 0.981" stroke="hsl(180.0,100%,35%)" stroke-width="0.00052"></path>
<path d="M1.379 0.331 Q0.885 0.504 1.115 0.783" stroke="hsl(180.0,100%,35%)" stroke-width="0.00017"></path>
</g>
<text x="1.722" y="0.915" font-size="0.003951" fill="hsl(0.0,100%,20%)">aperez</text>
<text x="0.657" y="0.740" font-size="0.019754" fill="hsl(0.0,100%,20%)">scroggo</text>
<text x="0.504" y="0.396" font-size="0.074334" fill="hsl(180.0,100%,20%)">brianosman</text>
<text x="1.812" y="0.703" font-size="0.041749" fill="hsl(0.0,100%,20%)">bungeman</text>
<text x="1.058" y="0.345" font-size="0.040867" fill="hsl(180.0,100%,20%)">armansito</text>
<text x="0.789" y="0.229" font-size="0.078222" fill="hsl(180.0,100%,20%)">johnstiles</text>
<text x="1.747" y="0.444" font-size="0.060220" fill="hsl(180.0,100%,20%)">michaelludwig</text>
<text x="1.115" y="0.765" font-size="0.036709" fill="hsl(180.0,100%,20%)">nicolettep</text>
<text x="1.208" y="0.920" font-size="0.039770" fill="hsl(180.0,100%,20%)">egdaniel</text>
<text x="1.451" y="0.473" font-size="0.030941" fill="hsl(180.0,100%,20%)">jamesgk</text>
<text x="1.605" y="0.544" font-size="0.053978" fill="hsl(180.0,100%,20%)">jvanverth</text>
<text x="0.519" y="0.947" font-size="0.069598" fill="hsl(0.0,100%,20%)">kjlubick</text>
<text x="0.768" y="0.894" font-size="0.030261" fill="hsl(0.0,100%,20%)">lovisolo</text>
<text x="0.215" y="0.362" font-size="0.039770" fill="hsl(180.0,100%,20%)">herb</text>
<text x="0.174" y="0.785" font-size="0.003951" fill="hsl(0.0,100%,20%)">ayzhao</text>
<text x="1.352" y="0.569" font-size="0.004562" fill="hsl(180.0,100%,20%)">blundell</text>
<text x="1.793" y="0.275" font-size="0.051512" fill="hsl(180.0,100%,20%)">robertphillips</text>
<text x="0.456" y="0.811" font-size="0.011631" fill="hsl(0.0,100%,20%)">borenet</text>
<text x="0.678" y="0.867" font-size="0.009943" fill="hsl(0.0,100%,20%)">rmistry</text>
<text x="1.292" y="0.170" font-size="0.027277" fill="hsl(0.0,100%,20%)">fmalita</text>
<text x="0.356" y="0.278" font-size="0.006843" fill="hsl(0.0,100%,20%)">jreck</text>
<text x="0.229" y="0.524" font-size="0.015301" fill="hsl(0.0,100%,20%)">nscobie</text>
<text x="1.323" y="0.697" font-size="0.018390" fill="hsl(0.0,100%,20%)">jlavrova</text>
<text x="1.146" y="0.138" font-size="0.019355" fill="hsl(0.0,100%,20%)">jmbetancourt</text>
<text x="1.445" y="0.789" font-size="0.010699" fill="hsl(180.0,100%,20%)">briansalomon</text>
<text x="1.856" y="0.837" font-size="0.021639" fill="hsl(0.0,100%,20%)">drott</text>
<text x="0.484" y="0.288" font-size="0.009943" fill="hsl(0.0,100%,20%)">ccameron</text>
<text x="0.321" y="0.663" font-size="0.018947" fill="hsl(0.0,100%,20%)">cmumford</text>
<text x="0.192" y="0.892" font-size="0.007902" fill="hsl(0.0,100%,20%)">jcgregorio</text>
<text x="1.607" y="0.120" font-size="0.012070" fill="hsl(0.0,100%,20%)">sharaks</text>
<text x="1.686" y="0.045" font-size="0.008834" fill="hsl(0.0,100%,20%)">hcm</text>
<text x="0.755" y="0.548" font-size="0.006035" fill="hsl(0.0,100%,20%)">djsollen</text>
<text x="1.200" y="0.087" font-size="0.002281" fill="hsl(0.0,100%,20%)">bwils</text>
<text x="1.526" y="0.877" font-size="0.006452" fill="hsl(180.0,100%,20%)">hitawala</text>
<text x="1.336" y="0.652" font-size="0.003951" fill="hsl(0.0,100%,20%)">jacksongardner</text>
<text x="0.727" y="0.782" font-size="0.003226" fill="hsl(0.0,100%,20%)">tdenniston</text>
<text x="1.589" y="0.719" font-size="0.004562" fill="hsl(0.0,100%,20%)">kschmi</text>
<text x="1.299" y="0.978" font-size="0.011631" fill="hsl(180.0,100%,20%)">lehoangquyen</text>
<text x="1.465" y="0.362" font-size="0.006035" fill="hsl(180.0,100%,20%)">lokokung</text>
<text x="0.564" y="0.109" font-size="0.013300" fill="hsl(0.0,100%,20%)">mike</text>
<text x="0.835" y="0.676" font-size="0.006035" fill="hsl(0.0,100%,20%)">nigeltao</text>
<text x="1.882" y="0.503" font-size="0.009124" fill="hsl(180.0,100%,20%)">penghuang</text>
<text x="0.247" y="0.289" font-size="0.005587" fill="hsl(180.0,100%,20%)">sky</text>
<text x="1.379" y="0.325" font-size="0.012284" fill="hsl(180.0,100%,20%)">sunnyps</text>
</svg>
