<svg width="4000" height="2000" viewBox="-0.025 -0.025 2.05 1.05" xmlns="http://www.w3.org/2000/svg">
  <style>
    path {
      fill: none;
      stroke-linecap: round;
      stroke-opacity: 0.4;
    }

    text {
      text-anchor: middle;
      alignment-baseline: hanging;
    }
  </style>
  <g opacity="0.4">
<path d="M1.314 0.374 Q0.396 0.437 0.317 0.898" stroke="hsl(0.0,100%,35%)" stroke-width="0.00043"></path>
<path d="M1.314 0.374 Q1.069 0.129 0.538 0.195" stroke="hsl(0.0,100%,35%)" stroke-width="0.00043"></path>
<path d="M1.314 0.374 Q1.435 0.326 1.368 0.256" stroke="hsl(0.0,100%,35%)" stroke-width="0.00043"></path>
<path d="M1.314 0.374 Q0.696 0.321 0.456 0.611" stroke="hsl(0.0,100%,35%)" stroke-width="0.00043"></path>
<path d="M1.314 0.374 Q1.245 0.326 1.137 0.349" stroke="hsl(0.0,100%,35%)" stroke-width="0.00043"></path>
<path d="M0.317 0.898 Q0.276 0.947 0.362 0.978" stroke="hsl(0.0,100%,35%)" stroke-width="0.00086"></path>
<path d="M0.317 0.898 Q0.990 0.591 0.538 0.195" stroke="hsl(0.0,100%,35%)" stroke-width="0.00043"></path>
<path d="M0.317 0.898 Q0.488 0.885 0.501 0.799" stroke="hsl(0.0,100%,35%)" stroke-width="0.00043"></path>
<path d="M0.317 0.898 Q1.356 0.787 1.368 0.256" stroke="hsl(0.0,100%,35%)" stroke-width="0.00086"></path>
<path d="M0.317 0.898 Q0.980 0.526 0.399 0.121" stroke="hsl(0.0,100%,35%)" stroke-width="0.00043"></path>
<path d="M0.317 0.898 Q0.616 0.782 0.456 0.611" stroke="hsl(0.0,100%,35%)" stroke-width="0.00043"></path>
<path d="M0.538 0.195 Q0.714 0.392 1.137 0.349" stroke="hsl(180.0,100%,35%)" stroke-width="0.00171"></path>
<path d="M0.538 0.195 Q0.527 0.130 0.399 0.121" stroke="hsl(180.0,100%,35%)" stroke-width="0.01285"></path>
<path d="M0.538 0.195 Q0.246 0.297 0.382 0.463" stroke="hsl(180.0,100%,35%)" stroke-width="0.00043"></path>
<path d="M0.538 0.195 Q0.528 0.614 1.343 0.711" stroke="hsl(180.0,100%,35%)" stroke-width="0.00514"></path>
<path d="M0.538 0.195 Q0.904 0.391 1.368 0.256" stroke="hsl(180.0,100%,35%)" stroke-width="0.00257"></path>
<path d="M0.538 0.195 Q0.688 0.215 0.760 0.146" stroke="hsl(180.0,100%,35%)" stroke-width="0.00214"></path>
<path d="M0.538 0.195 Q0.276 0.152 0.135 0.271" stroke="hsl(180.0,100%,35%)" stroke-width="0.00043"></path>
<path d="M0.538 0.195 Q0.414 0.582 1.141 0.727" stroke="hsl(180.0,100%,35%)" stroke-width="0.00086"></path>
<path d="M0.538 0.195 Q0.412 0.698 1.367 0.870" stroke="hsl(180.0,100%,35%)" stroke-width="0.00086"></path>
<path d="M1.368 0.256 Q1.002 0.059 0.538 0.195" stroke="hsl(0.0,100%,35%)" stroke-width="0.01285"></path>
<path d="M1.368 0.256 Q1.153 0.079 0.760 0.146" stroke="hsl(0.0,100%,35%)" stroke-width="0.00171"></path>
<path d="M1.368 0.256 Q0.876 0.563 1.367 0.870" stroke="hsl(0.0,100%,35%)" stroke-width="0.00043"></path>
<path d="M1.368 0.256 Q1.408 0.309 1.520 0.302" stroke="hsl(0.0,100%,35%)" stroke-width="0.00129"></path>
<path d="M1.368 0.256 Q1.297 0.190 1.151 0.210" stroke="hsl(0.0,100%,35%)" stroke-width="0.00214"></path>
<path d="M1.368 0.256 Q1.178 0.257 1.137 0.349" stroke="hsl(0.0,100%,35%)" stroke-width="0.00300"></path>
<path d="M1.368 0.256 Q0.991 -0.005 0.399 0.121" stroke="hsl(0.0,100%,35%)" stroke-width="0.00214"></path>
<path d="M1.368 0.256 Q0.329 0.367 0.317 0.898" stroke="hsl(0.0,100%,35%)" stroke-width="0.00043"></path>
<path d="M1.368 0.256 Q0.500 0.354 0.501 0.799" stroke="hsl(0.0,100%,35%)" stroke-width="0.00043"></path>
<path d="M1.368 0.256 Q0.628 0.251 0.456 0.611" stroke="hsl(0.0,100%,35%)" stroke-width="0.00043"></path>
<path d="M1.368 0.256 Q0.740 0.017 0.135 0.271" stroke="hsl(0.0,100%,35%)" stroke-width="0.00043"></path>
<path d="M1.368 0.256 Q0.934 0.327 0.976 0.554" stroke="hsl(0.0,100%,35%)" stroke-width="0.00043"></path>
<path d="M0.456 0.611 Q0.819 0.354 0.399 0.121" stroke="hsl(180.0,100%,35%)" stroke-width="0.00086"></path>
<path d="M0.456 0.611 Q0.762 0.687 0.976 0.554" stroke="hsl(180.0,100%,35%)" stroke-width="0.00600"></path>
<path d="M0.456 0.611 Q0.830 0.419 0.538 0.195" stroke="hsl(180.0,100%,35%)" stroke-width="0.00086"></path>
<path d="M0.456 0.611 Q0.820 0.838 1.343 0.711" stroke="hsl(180.0,100%,35%)" stroke-width="0.00343"></path>
<path d="M0.456 0.611 Q1.016 0.850 1.604 0.629" stroke="hsl(180.0,100%,35%)" stroke-width="0.00086"></path>
<path d="M0.456 0.611 Q0.116 0.775 0.362 0.978" stroke="hsl(180.0,100%,35%)" stroke-width="0.00043"></path>
<path d="M0.456 0.611 Q0.704 0.923 1.367 0.870" stroke="hsl(180.0,100%,35%)" stroke-width="0.00171"></path>
<path d="M0.456 0.611 Q0.706 0.806 1.141 0.727" stroke="hsl(180.0,100%,35%)" stroke-width="0.00129"></path>
<path d="M0.456 0.611 Q1.006 0.616 1.137 0.349" stroke="hsl(180.0,100%,35%)" stroke-width="0.00043"></path>
<path d="M1.137 0.349 Q0.247 0.508 0.362 0.978" stroke="hsl(0.0,100%,35%)" stroke-width="0.00171"></path>
<path d="M1.137 0.349 Q1.327 0.349 1.368 0.256" stroke="hsl(0.0,100%,35%)" stroke-width="0.02827"></path>
<path d="M1.137 0.349 Q0.699 0.110 0.135 0.271" stroke="hsl(0.0,100%,35%)" stroke-width="0.00728"></path>
<path d="M1.137 0.349 Q1.257 0.472 1.523 0.441" stroke="hsl(0.0,100%,35%)" stroke-width="0.01071"></path>
<path d="M1.137 0.349 Q0.837 0.539 1.141 0.727" stroke="hsl(0.0,100%,35%)" stroke-width="0.00386"></path>
<path d="M1.137 0.349 Q0.288 0.460 0.317 0.898" stroke="hsl(0.0,100%,35%)" stroke-width="0.00129"></path>
<path d="M1.137 0.349 Q0.961 0.152 0.538 0.195" stroke="hsl(0.0,100%,35%)" stroke-width="0.01542"></path>
<path d="M1.137 0.349 Q0.587 0.344 0.456 0.611" stroke="hsl(0.0,100%,35%)" stroke-width="0.00771"></path>
<path d="M1.137 0.349 Q1.112 0.172 0.760 0.146" stroke="hsl(0.0,100%,35%)" stroke-width="0.00129"></path>
<path d="M1.137 0.349 Q0.893 0.420 0.976 0.554" stroke="hsl(0.0,100%,35%)" stroke-width="0.00857"></path>
<path d="M1.137 0.349 Q0.950 0.087 0.399 0.121" stroke="hsl(0.0,100%,35%)" stroke-width="0.00557"></path>
<path d="M1.137 0.349 Q0.835 0.656 1.367 0.870" stroke="hsl(0.0,100%,35%)" stroke-width="0.00214"></path>
<path d="M1.137 0.349 Q1.367 0.402 1.520 0.302" stroke="hsl(0.0,100%,35%)" stroke-width="0.00214"></path>
<path d="M1.137 0.349 Q1.050 0.246 0.830 0.266" stroke="hsl(0.0,100%,35%)" stroke-width="0.00043"></path>
<path d="M1.137 0.349 Q0.669 0.255 0.382 0.463" stroke="hsl(0.0,100%,35%)" stroke-width="0.00129"></path>
<path d="M1.137 0.349 Q0.800 0.217 0.467 0.352" stroke="hsl(0.0,100%,35%)" stroke-width="0.00086"></path>
<path d="M1.137 0.349 Q0.951 0.571 1.343 0.711" stroke="hsl(0.0,100%,35%)" stroke-width="0.00129"></path>
<path d="M1.103 0.967 Q1.428 0.403 0.399 0.121" stroke="hsl(180.0,100%,35%)" stroke-width="0.00086"></path>
<path d="M1.103 0.967 Q1.428 0.887 1.343 0.711" stroke="hsl(180.0,100%,35%)" stroke-width="0.00257"></path>
<path d="M1.103 0.967 Q1.370 0.735 0.976 0.554" stroke="hsl(180.0,100%,35%)" stroke-width="0.00129"></path>
<path d="M1.103 0.967 Q1.065 0.660 0.456 0.611" stroke="hsl(180.0,100%,35%)" stroke-width="0.00043"></path>
<path d="M1.103 0.967 Q1.624 0.898 1.604 0.629" stroke="hsl(180.0,100%,35%)" stroke-width="0.00129"></path>
<path d="M1.103 0.967 Q1.312 0.971 1.367 0.870" stroke="hsl(180.0,100%,35%)" stroke-width="0.00343"></path>
<path d="M1.103 0.967 Q1.614 0.665 1.137 0.349" stroke="hsl(180.0,100%,35%)" stroke-width="0.00171"></path>
<path d="M1.103 0.967 Q1.438 0.468 0.538 0.195" stroke="hsl(180.0,100%,35%)" stroke-width="0.00043"></path>
<path d="M0.399 0.121 Q0.409 0.186 0.538 0.195" stroke="hsl(180.0,100%,35%)" stroke-width="0.04841"></path>
<path d="M0.399 0.121 Q0.560 0.206 0.760 0.146" stroke="hsl(180.0,100%,35%)" stroke-width="0.00600"></path>
<path d="M0.399 0.121 Q0.285 0.573 1.141 0.727" stroke="hsl(180.0,100%,35%)" stroke-width="0.00471"></path>
<path d="M0.399 0.121 Q0.074 0.685 1.103 0.967" stroke="hsl(180.0,100%,35%)" stroke-width="0.00300"></path>
<path d="M0.399 0.121 Q0.775 0.382 1.368 0.256" stroke="hsl(180.0,100%,35%)" stroke-width="0.00214"></path>
<path d="M0.399 0.121 Q0.399 0.605 1.343 0.711" stroke="hsl(180.0,100%,35%)" stroke-width="0.01071"></path>
<path d="M0.399 0.121 Q0.147 0.143 0.135 0.271" stroke="hsl(180.0,100%,35%)" stroke-width="0.00129"></path>
<path d="M0.399 0.121 Q0.036 0.377 0.456 0.611" stroke="hsl(180.0,100%,35%)" stroke-width="0.00514"></path>
<path d="M0.399 0.121 Q0.283 0.689 1.367 0.870" stroke="hsl(180.0,100%,35%)" stroke-width="0.00257"></path>
<path d="M0.399 0.121 Q0.595 0.616 1.604 0.629" stroke="hsl(180.0,100%,35%)" stroke-width="0.00300"></path>
<path d="M0.399 0.121 Q0.341 0.453 0.976 0.554" stroke="hsl(180.0,100%,35%)" stroke-width="0.00557"></path>
<path d="M0.399 0.121 Q0.248 0.250 0.467 0.352" stroke="hsl(180.0,100%,35%)" stroke-width="0.00086"></path>
<path d="M0.399 0.121 Q-0.305 0.542 0.362 0.978" stroke="hsl(180.0,100%,35%)" stroke-width="0.00171"></path>
<path d="M0.399 0.121 Q-0.012 0.290 0.228 0.528" stroke="hsl(180.0,100%,35%)" stroke-width="0.00043"></path>
<path d="M0.399 0.121 Q0.585 0.383 1.137 0.349" stroke="hsl(180.0,100%,35%)" stroke-width="0.00857"></path>
<path d="M0.399 0.121 Q-0.264 0.493 0.317 0.898" stroke="hsl(180.0,100%,35%)" stroke-width="0.00043"></path>
<path d="M0.399 0.121 Q-0.496 0.944 0.914 1.561" stroke="hsl(180.0,100%,35%)" stroke-width="0.00043"></path>
<path d="M0.399 0.121 Q0.498 0.280 0.830 0.266" stroke="hsl(180.0,100%,35%)" stroke-width="0.00043"></path>
<path d="M1.343 0.711 Q0.979 0.483 0.456 0.611" stroke="hsl(180.0,100%,35%)" stroke-width="0.00086"></path>
<path d="M1.343 0.711 Q1.227 0.795 1.367 0.870" stroke="hsl(180.0,100%,35%)" stroke-width="0.00471"></path>
<path d="M1.343 0.711 Q1.229 0.679 1.141 0.727" stroke="hsl(180.0,100%,35%)" stroke-width="0.01542"></path>
<path d="M1.343 0.711 Q1.018 0.791 1.103 0.967" stroke="hsl(180.0,100%,35%)" stroke-width="0.00214"></path>
<path d="M1.343 0.711 Q1.353 0.292 0.538 0.195" stroke="hsl(180.0,100%,35%)" stroke-width="0.01199"></path>
<path d="M1.343 0.711 Q1.343 0.227 0.399 0.121" stroke="hsl(180.0,100%,35%)" stroke-width="0.00514"></path>
<path d="M1.343 0.711 Q1.539 0.722 1.604 0.629" stroke="hsl(180.0,100%,35%)" stroke-width="0.01114"></path>
<path d="M1.343 0.711 Q1.285 0.559 0.976 0.554" stroke="hsl(180.0,100%,35%)" stroke-width="0.00300"></path>
<path d="M1.343 0.711 Q1.719 0.488 1.368 0.256" stroke="hsl(180.0,100%,35%)" stroke-width="0.00043"></path>
<path d="M1.343 0.711 Q1.529 0.489 1.137 0.349" stroke="hsl(180.0,100%,35%)" stroke-width="0.00043"></path>
<path d="M0.976 0.554 Q0.671 0.479 0.456 0.611" stroke="hsl(180.0,100%,35%)" stroke-width="0.00728"></path>
<path d="M0.976 0.554 Q1.034 0.222 0.399 0.121" stroke="hsl(180.0,100%,35%)" stroke-width="0.00043"></path>
<path d="M0.976 0.554 Q1.221 0.484 1.137 0.349" stroke="hsl(180.0,100%,35%)" stroke-width="0.00171"></path>
<path d="M0.976 0.554 Q0.920 0.674 1.141 0.727" stroke="hsl(180.0,100%,35%)" stroke-width="0.00129"></path>
<path d="M0.976 0.554 Q0.918 0.790 1.367 0.870" stroke="hsl(180.0,100%,35%)" stroke-width="0.00129"></path>
<path d="M0.976 0.554 Q1.045 0.287 0.538 0.195" stroke="hsl(180.0,100%,35%)" stroke-width="0.00043"></path>
<path d="M0.976 0.554 Q1.230 0.717 1.604 0.629" stroke="hsl(180.0,100%,35%)" stroke-width="0.00043"></path>
<path d="M0.976 0.554 Q0.330 0.643 0.362 0.978" stroke="hsl(180.0,100%,35%)" stroke-width="0.00043"></path>
<path d="M0.976 0.554 Q1.035 0.706 1.343 0.711" stroke="hsl(180.0,100%,35%)" stroke-width="0.00086"></path>
<path d="M1.604 0.629 Q1.409 0.618 1.343 0.711" stroke="hsl(180.0,100%,35%)" stroke-width="0.00471"></path>
<path d="M1.604 0.629 Q1.045 0.390 0.456 0.611" stroke="hsl(180.0,100%,35%)" stroke-width="0.00129"></path>
<path d="M1.604 0.629 Q1.419 0.199 0.538 0.195" stroke="hsl(180.0,100%,35%)" stroke-width="0.00086"></path>
<path d="M1.604 0.629 Q1.408 0.134 0.399 0.121" stroke="hsl(180.0,100%,35%)" stroke-width="0.00043"></path>
<path d="M1.604 0.629 Q1.293 0.702 1.367 0.870" stroke="hsl(180.0,100%,35%)" stroke-width="0.00043"></path>
<path d="M1.604 0.629 Q1.294 0.586 1.141 0.727" stroke="hsl(180.0,100%,35%)" stroke-width="0.00129"></path>
<path d="M1.367 0.870 Q1.483 0.786 1.343 0.711" stroke="hsl(180.0,100%,35%)" stroke-width="0.01799"></path>
<path d="M1.367 0.870 Q1.158 0.866 1.103 0.967" stroke="hsl(180.0,100%,35%)" stroke-width="0.00942"></path>
<path d="M1.367 0.870 Q1.119 0.559 0.456 0.611" stroke="hsl(180.0,100%,35%)" stroke-width="0.00343"></path>
<path d="M1.367 0.870 Q1.493 0.367 0.538 0.195" stroke="hsl(180.0,100%,35%)" stroke-width="0.00386"></path>
<path d="M1.367 0.870 Q1.899 0.617 1.520 0.302" stroke="hsl(180.0,100%,35%)" stroke-width="0.00043"></path>
<path d="M1.367 0.870 Q1.859 0.564 1.368 0.256" stroke="hsl(180.0,100%,35%)" stroke-width="0.00086"></path>
<path d="M1.367 0.870 Q1.482 0.302 0.399 0.121" stroke="hsl(180.0,100%,35%)" stroke-width="0.00343"></path>
<path d="M1.367 0.870 Q1.643 0.387 0.760 0.146" stroke="hsl(180.0,100%,35%)" stroke-width="0.00171"></path>
<path d="M1.367 0.870 Q1.369 0.754 1.141 0.727" stroke="hsl(180.0,100%,35%)" stroke-width="0.00386"></path>
<path d="M1.367 0.870 Q1.679 0.797 1.604 0.629" stroke="hsl(180.0,100%,35%)" stroke-width="0.00471"></path>
<path d="M1.367 0.870 Q0.820 0.674 0.317 0.898" stroke="hsl(180.0,100%,35%)" stroke-width="0.00043"></path>
<path d="M1.367 0.870 Q1.424 0.634 0.976 0.554" stroke="hsl(180.0,100%,35%)" stroke-width="0.00471"></path>
<path d="M1.367 0.870 Q1.669 0.564 1.137 0.349" stroke="hsl(180.0,100%,35%)" stroke-width="0.00214"></path>
<path d="M0.382 0.463 Q0.253 0.464 0.228 0.528" stroke="hsl(0.0,100%,35%)" stroke-width="0.00129"></path>
<path d="M0.382 0.463 Q0.970 0.680 1.523 0.441" stroke="hsl(0.0,100%,35%)" stroke-width="0.00043"></path>
<path d="M0.382 0.463 Q0.548 0.864 1.367 0.870" stroke="hsl(0.0,100%,35%)" stroke-width="0.00043"></path>
<path d="M0.382 0.463 Q0.850 0.557 1.137 0.349" stroke="hsl(0.0,100%,35%)" stroke-width="0.00129"></path>
<path d="M1.523 0.441 Q1.403 0.318 1.137 0.349" stroke="hsl(0.0,100%,35%)" stroke-width="0.02270"></path>
<path d="M1.523 0.441 Q1.217 0.056 0.399 0.121" stroke="hsl(0.0,100%,35%)" stroke-width="0.00171"></path>
<path d="M1.523 0.441 Q0.935 0.223 0.382 0.463" stroke="hsl(0.0,100%,35%)" stroke-width="0.00043"></path>
<path d="M1.523 0.441 Q1.227 0.121 0.538 0.195" stroke="hsl(0.0,100%,35%)" stroke-width="0.00086"></path>
<path d="M1.523 0.441 Q1.593 0.317 1.368 0.256" stroke="hsl(0.0,100%,35%)" stroke-width="0.00043"></path>
<path d="M1.523 0.441 Q1.522 0.251 1.151 0.210" stroke="hsl(0.0,100%,35%)" stroke-width="0.00043"></path>
<path d="M0.760 0.146 Q0.610 0.126 0.538 0.195" stroke="hsl(180.0,100%,35%)" stroke-width="0.01114"></path>
<path d="M0.760 0.146 Q0.599 0.061 0.399 0.121" stroke="hsl(180.0,100%,35%)" stroke-width="0.00343"></path>
<path d="M0.760 0.146 Q0.484 0.629 1.367 0.870" stroke="hsl(180.0,100%,35%)" stroke-width="0.00214"></path>
<path d="M0.760 0.146 Q0.786 0.323 1.137 0.349" stroke="hsl(180.0,100%,35%)" stroke-width="0.00086"></path>
<path d="M0.760 0.146 Q0.976 0.322 1.368 0.256" stroke="hsl(180.0,100%,35%)" stroke-width="0.00043"></path>
<path d="M0.760 0.146 Q0.486 0.513 1.141 0.727" stroke="hsl(180.0,100%,35%)" stroke-width="0.00043"></path>
<path d="M0.135 0.271 Q-0.279 0.520 0.116 0.776" stroke="hsl(0.0,100%,35%)" stroke-width="0.00043"></path>
<path d="M0.135 0.271 Q0.763 0.510 1.368 0.256" stroke="hsl(0.0,100%,35%)" stroke-width="0.00214"></path>
<path d="M0.135 0.271 Q0.573 0.510 1.137 0.349" stroke="hsl(0.0,100%,35%)" stroke-width="0.00257"></path>
<path d="M0.135 0.271 Q0.387 0.249 0.399 0.121" stroke="hsl(0.0,100%,35%)" stroke-width="0.00043"></path>
<path d="M0.135 0.271 Q0.236 0.378 0.467 0.352" stroke="hsl(0.0,100%,35%)" stroke-width="0.00214"></path>
<path d="M0.135 0.271 Q0.397 0.313 0.538 0.195" stroke="hsl(0.0,100%,35%)" stroke-width="0.00171"></path>
<path d="M0.135 0.271 Q0.273 0.700 1.141 0.727" stroke="hsl(0.0,100%,35%)" stroke-width="0.00086"></path>
<path d="M0.135 0.271 Q0.120 0.302 0.178 0.316" stroke="hsl(0.0,100%,35%)" stroke-width="0.00043"></path>
<path d="M1.141 0.727 Q1.256 0.759 1.343 0.711" stroke="hsl(180.0,100%,35%)" stroke-width="0.00514"></path>
<path d="M1.141 0.727 Q0.892 0.532 0.456 0.611" stroke="hsl(180.0,100%,35%)" stroke-width="0.00428"></path>
<path d="M1.141 0.727 Q1.197 0.608 0.976 0.554" stroke="hsl(180.0,100%,35%)" stroke-width="0.01628"></path>
<path d="M1.141 0.727 Q1.442 0.537 1.137 0.349" stroke="hsl(180.0,100%,35%)" stroke-width="0.00086"></path>
<path d="M1.141 0.727 Q1.266 0.340 0.538 0.195" stroke="hsl(180.0,100%,35%)" stroke-width="0.00086"></path>
<path d="M1.141 0.727 Q1.139 0.844 1.367 0.870" stroke="hsl(180.0,100%,35%)" stroke-width="0.00600"></path>
<path d="M1.141 0.727 Q1.255 0.276 0.399 0.121" stroke="hsl(180.0,100%,35%)" stroke-width="0.00343"></path>
<path d="M1.141 0.727 Q1.003 0.298 0.135 0.271" stroke="hsl(180.0,100%,35%)" stroke-width="0.00086"></path>
<path d="M0.346 0.730 Q0.496 0.692 0.456 0.611" stroke="hsl(180.0,100%,35%)" stroke-width="0.00728"></path>
<path d="M0.346 0.730 Q0.746 0.888 1.141 0.727" stroke="hsl(180.0,100%,35%)" stroke-width="0.00214"></path>
<path d="M0.346 0.730 Q1.056 0.931 1.604 0.629" stroke="hsl(180.0,100%,35%)" stroke-width="0.00043"></path>
<path d="M0.346 0.730 Q0.744 1.004 1.367 0.870" stroke="hsl(180.0,100%,35%)" stroke-width="0.00129"></path>
<path d="M1.520 0.302 Q1.481 0.248 1.368 0.256" stroke="hsl(0.0,100%,35%)" stroke-width="0.00557"></path>
<path d="M1.520 0.302 Q1.291 0.249 1.137 0.349" stroke="hsl(0.0,100%,35%)" stroke-width="0.00086"></path>
<path d="M1.520 0.302 Q0.853 0.009 0.135 0.271" stroke="hsl(0.0,100%,35%)" stroke-width="0.00043"></path>
<path d="M1.520 0.302 Q1.410 0.182 1.151 0.210" stroke="hsl(0.0,100%,35%)" stroke-width="0.00043"></path>
<path d="M1.151 0.210 Q1.222 0.276 1.368 0.256" stroke="hsl(0.0,100%,35%)" stroke-width="0.01585"></path>
<path d="M1.151 0.210 Q1.262 0.330 1.520 0.302" stroke="hsl(0.0,100%,35%)" stroke-width="0.00086"></path>
<path d="M1.151 0.210 Q1.032 0.277 1.137 0.349" stroke="hsl(0.0,100%,35%)" stroke-width="0.00214"></path>
<path d="M1.151 0.210 Q0.857 0.080 0.538 0.195" stroke="hsl(0.0,100%,35%)" stroke-width="0.00171"></path>
<path d="M1.151 0.210 Q0.483 0.271 0.456 0.611" stroke="hsl(0.0,100%,35%)" stroke-width="0.00043"></path>
<path d="M1.151 0.210 Q0.184 0.387 0.317 0.898" stroke="hsl(0.0,100%,35%)" stroke-width="0.00043"></path>
<path d="M0.362 0.978 Q0.702 0.813 0.456 0.611" stroke="hsl(0.0,100%,35%)" stroke-width="0.00171"></path>
<path d="M0.362 0.978 Q1.252 0.819 1.137 0.349" stroke="hsl(0.0,100%,35%)" stroke-width="0.00043"></path>
<path d="M0.362 0.978 Q1.066 0.557 0.399 0.121" stroke="hsl(0.0,100%,35%)" stroke-width="0.00129"></path>
<path d="M0.362 0.978 Q0.403 0.929 0.317 0.898" stroke="hsl(0.0,100%,35%)" stroke-width="0.00428"></path>
<path d="M0.362 0.978 Q0.952 1.008 1.141 0.727" stroke="hsl(0.0,100%,35%)" stroke-width="0.00171"></path>
<path d="M0.362 0.978 Q1.008 0.889 0.976 0.554" stroke="hsl(0.0,100%,35%)" stroke-width="0.00129"></path>
<path d="M0.116 0.776 Q0.500 0.672 0.382 0.463" stroke="hsl(0.0,100%,35%)" stroke-width="0.00086"></path>
<path d="M0.116 0.776 Q0.199 0.741 0.149 0.693" stroke="hsl(0.0,100%,35%)" stroke-width="0.00471"></path>
<path d="M0.116 0.776 Q0.968 0.767 1.137 0.349" stroke="hsl(0.0,100%,35%)" stroke-width="0.00043"></path>
<path d="M0.694 0.504 Q0.490 0.510 0.456 0.611" stroke="hsl(180.0,100%,35%)" stroke-width="0.00129"></path>
<path d="M0.694 0.504 Q1.049 0.749 1.604 0.629" stroke="hsl(180.0,100%,35%)" stroke-width="0.00043"></path>
<path d="M0.694 0.504 Q0.853 0.737 1.343 0.711" stroke="hsl(180.0,100%,35%)" stroke-width="0.00043"></path>
<path d="M0.694 0.504 Q0.863 0.318 0.538 0.195" stroke="hsl(180.0,100%,35%)" stroke-width="0.00043"></path>
<path d="M0.561 0.860 Q1.258 0.720 1.137 0.349" stroke="hsl(0.0,100%,35%)" stroke-width="0.00043"></path>
<path d="M0.561 0.860 Q1.082 0.523 0.538 0.195" stroke="hsl(0.0,100%,35%)" stroke-width="0.00043"></path>
<path d="M0.561 0.860 Q0.409 0.830 0.317 0.898" stroke="hsl(0.0,100%,35%)" stroke-width="0.00043"></path>
<path d="M0.810 0.283 Q0.744 0.184 0.538 0.195" stroke="hsl(0.0,100%,35%)" stroke-width="0.00129"></path>
<path d="M0.810 0.283 Q0.482 0.142 0.135 0.271" stroke="hsl(0.0,100%,35%)" stroke-width="0.00043"></path>
<path d="M0.810 0.283 Q1.110 0.381 1.368 0.256" stroke="hsl(0.0,100%,35%)" stroke-width="0.00086"></path>
<path d="M1.668 0.512 Q1.356 0.127 0.538 0.195" stroke="hsl(180.0,100%,35%)" stroke-width="0.00043"></path>
<path d="M1.668 0.512 Q1.346 0.546 1.343 0.711" stroke="hsl(180.0,100%,35%)" stroke-width="0.00086"></path>
<path d="M1.668 0.512 Q0.983 0.319 0.456 0.611" stroke="hsl(180.0,100%,35%)" stroke-width="0.00043"></path>
<path d="M1.640 0.121 Q0.768 -0.105 0.135 0.271" stroke="hsl(0.0,100%,35%)" stroke-width="0.00428"></path>
<path d="M1.640 0.121 Q1.396 0.134 1.368 0.256" stroke="hsl(0.0,100%,35%)" stroke-width="0.00257"></path>
<path d="M1.640 0.121 Q1.030 -0.063 0.538 0.195" stroke="hsl(0.0,100%,35%)" stroke-width="0.00300"></path>
<path d="M1.640 0.121 Q0.906 0.324 1.141 0.727" stroke="hsl(0.0,100%,35%)" stroke-width="0.00043"></path>
<path d="M0.179 0.827 Q0.192 0.890 0.317 0.898" stroke="hsl(0.0,100%,35%)" stroke-width="0.00086"></path>
<path d="M0.179 0.827 Q0.865 0.583 0.538 0.195" stroke="hsl(0.0,100%,35%)" stroke-width="0.00043"></path>
<path d="M0.179 0.827 Q1.015 0.603 0.760 0.146" stroke="hsl(0.0,100%,35%)" stroke-width="0.00043"></path>
<path d="M1.266 0.740 Q1.328 0.741 1.343 0.711" stroke="hsl(180.0,100%,35%)" stroke-width="0.00300"></path>
<path d="M1.266 0.740 Q0.965 0.514 0.456 0.611" stroke="hsl(180.0,100%,35%)" stroke-width="0.00086"></path>
<path d="M1.266 0.740 Q1.214 0.709 1.141 0.727" stroke="hsl(180.0,100%,35%)" stroke-width="0.00043"></path>
<path d="M1.266 0.740 Q0.624 0.678 0.362 0.978" stroke="hsl(180.0,100%,35%)" stroke-width="0.00043"></path>
<path d="M1.266 0.740 Q1.489 0.342 0.760 0.146" stroke="hsl(180.0,100%,35%)" stroke-width="0.00043"></path>
<path d="M1.266 0.740 Q1.704 0.519 1.368 0.256" stroke="hsl(180.0,100%,35%)" stroke-width="0.00043"></path>
<path d="M0.283 0.121 Q0.351 0.209 0.538 0.195" stroke="hsl(180.0,100%,35%)" stroke-width="0.00129"></path>
<path d="M0.283 0.121 Q0.502 0.229 0.760 0.146" stroke="hsl(180.0,100%,35%)" stroke-width="0.00043"></path>
<path d="M0.283 0.121 Q0.225 0.712 1.367 0.870" stroke="hsl(180.0,100%,35%)" stroke-width="0.00086"></path>
</g>
<text x="1.314" y="0.370" font-size="0.008392" fill="hsl(0.0,100%,20%)">aperez</text>
<text x="0.317" y="0.888" font-size="0.020210" fill="hsl(0.0,100%,20%)">scroggo</text>
<text x="0.538" y="0.160" font-size="0.069404" fill="hsl(180.0,100%,20%)">brianosman</text>
<text x="1.368" y="0.229" font-size="0.054256" fill="hsl(0.0,100%,20%)">bungeman</text>
<text x="0.456" y="0.589" font-size="0.044246" fill="hsl(180.0,100%,20%)">egdaniel</text>
<text x="1.137" y="0.314" font-size="0.070810" fill="hsl(0.0,100%,20%)">kjlubick</text>
<text x="1.103" y="0.952" font-size="0.029551" fill="hsl(180.0,100%,20%)">armansito</text>
<text x="0.399" y="0.086" font-size="0.069708" fill="hsl(180.0,100%,20%)">johnstiles</text>
<text x="1.343" y="0.680" font-size="0.060514" fill="hsl(180.0,100%,20%)">michaelludwig</text>
<text x="0.976" y="0.532" font-size="0.044879" fill="hsl(180.0,100%,20%)">nicolettep</text>
<text x="1.604" y="0.613" font-size="0.032065" fill="hsl(180.0,100%,20%)">jamesgk</text>
<text x="1.367" y="0.844" font-size="0.052942" fill="hsl(180.0,100%,20%)">jvanverth</text>
<text x="0.382" y="0.455" font-size="0.014535" fill="hsl(0.0,100%,20%)">borenet</text>
<text x="0.228" y="0.524" font-size="0.007506" fill="hsl(0.0,100%,20%)">rmistry</text>
<text x="1.523" y="0.423" font-size="0.035206" fill="hsl(0.0,100%,20%)">lovisolo</text>
<text x="0.760" y="0.129" font-size="0.032717" fill="hsl(180.0,100%,20%)">herb</text>
<text x="0.135" y="0.256" font-size="0.029311" fill="hsl(0.0,100%,20%)">fmalita</text>
<text x="1.141" y="0.702" font-size="0.050070" fill="hsl(180.0,100%,20%)">robertphillips</text>
<text x="0.346" y="0.720" font-size="0.019136" fill="hsl(180.0,100%,20%)">briansalomon</text>
<text x="1.520" y="0.292" font-size="0.019859" fill="hsl(0.0,100%,20%)">jlavrova</text>
<text x="1.151" y="0.195" font-size="0.028334" fill="hsl(0.0,100%,20%)">drott</text>
<text x="0.501" y="0.796" font-size="0.005307" fill="hsl(0.0,100%,20%)">jreck</text>
<text x="0.362" y="0.966" font-size="0.023135" fill="hsl(0.0,100%,20%)">nscobie</text>
<text x="0.116" y="0.769" font-size="0.014535" fill="hsl(0.0,100%,20%)">sharaks</text>
<text x="0.467" y="0.347" font-size="0.011259" fill="hsl(0.0,100%,20%)">jmbetancourt</text>
<text x="0.178" y="0.314" font-size="0.003753" fill="hsl(0.0,100%,20%)">bwils</text>
<text x="0.694" y="0.500" font-size="0.009193" fill="hsl(180.0,100%,20%)">hitawala</text>
<text x="0.561" y="0.857" font-size="0.006500" fill="hsl(0.0,100%,20%)">jgaillard</text>
<text x="0.914" y="1.559" font-size="0.003753" fill="hsl(180.0,100%,20%)">djsollen</text>
<text x="0.830" y="0.263" font-size="0.005307" fill="hsl(0.0,100%,20%)">jcgregorio</text>
<text x="0.810" y="0.278" font-size="0.009193" fill="hsl(0.0,100%,20%)">kschmi</text>
<text x="1.668" y="0.508" font-size="0.007506" fill="hsl(180.0,100%,20%)">lokokung</text>
<text x="1.640" y="0.112" font-size="0.018386" fill="hsl(0.0,100%,20%)">mike</text>
<text x="0.179" y="0.824" font-size="0.007506" fill="hsl(0.0,100%,20%)">nigeltao</text>
<text x="1.266" y="0.733" font-size="0.013531" fill="hsl(180.0,100%,20%)">penghuang</text>
<text x="0.149" y="0.687" font-size="0.012447" fill="hsl(0.0,100%,20%)">hcm</text>
<text x="0.283" y="0.116" font-size="0.009193" fill="hsl(180.0,100%,20%)">sky</text>
</svg>
