<svg width="4000" height="2000" viewBox="-0.025 -0.025 2.05 1.05" xmlns="http://www.w3.org/2000/svg">
  <style>
    path {
      fill: none;
      stroke-linecap: round;
      stroke-opacity: 0.4;
    }

    text {
      text-anchor: middle;
      alignment-baseline: hanging;
    }
  </style>
  <g opacity="0.4">
<path d="M1.720 0.916 Q1.539 0.891 1.451 0.973" stroke="hsl(0.0,100%,35%)" stroke-width="0.00375"></path>
<path d="M1.720 0.916 Q1.701 0.700 1.277 0.662" stroke="hsl(0.0,100%,35%)" stroke-width="0.00799"></path>
<path d="M1.720 0.916 Q1.548 0.329 0.367 0.284" stroke="hsl(0.0,100%,35%)" stroke-width="0.00033"></path>
<path d="M1.720 0.916 Q2.169 0.667 1.782 0.393" stroke="hsl(0.0,100%,35%)" stroke-width="0.00065"></path>
<path d="M1.720 0.916 Q1.520 0.731 1.116 0.789" stroke="hsl(0.0,100%,35%)" stroke-width="0.00049"></path>
<path d="M1.720 0.916 Q1.413 0.378 0.297 0.410" stroke="hsl(0.0,100%,35%)" stroke-width="0.00571"></path>
<path d="M1.720 0.916 Q1.053 0.595 0.282 0.850" stroke="hsl(0.0,100%,35%)" stroke-width="0.00131"></path>
<path d="M1.720 0.916 Q1.517 0.816 1.278 0.892" stroke="hsl(0.0,100%,35%)" stroke-width="0.00163"></path>
<path d="M1.720 0.916 Q1.269 0.727 0.803 0.906" stroke="hsl(0.0,100%,35%)" stroke-width="0.00016"></path>
<path d="M1.720 0.916 Q1.841 0.812 1.665 0.730" stroke="hsl(0.0,100%,35%)" stroke-width="0.00016"></path>
<path d="M1.451 0.973 Q1.429 0.898 1.278 0.892" stroke="hsl(0.0,100%,35%)" stroke-width="0.06477"></path>
<path d="M1.451 0.973 Q1.753 0.895 1.665 0.730" stroke="hsl(0.0,100%,35%)" stroke-width="0.01044"></path>
<path d="M1.451 0.973 Q1.568 0.694 1.047 0.575" stroke="hsl(0.0,100%,35%)" stroke-width="0.00294"></path>
<path d="M1.451 0.973 Q1.632 0.998 1.720 0.916" stroke="hsl(0.0,100%,35%)" stroke-width="0.02937"></path>
<path d="M1.451 0.973 Q1.045 0.512 0.056 0.609" stroke="hsl(0.0,100%,35%)" stroke-width="0.00131"></path>
<path d="M1.451 0.973 Q1.613 0.783 1.277 0.662" stroke="hsl(0.0,100%,35%)" stroke-width="0.01289"></path>
<path d="M1.451 0.973 Q1.275 0.756 0.811 0.794" stroke="hsl(0.0,100%,35%)" stroke-width="0.00082"></path>
<path d="M1.451 0.973 Q2.081 0.749 1.782 0.393" stroke="hsl(0.0,100%,35%)" stroke-width="0.00506"></path>
<path d="M1.451 0.973 Q1.325 0.461 0.297 0.410" stroke="hsl(0.0,100%,35%)" stroke-width="0.00604"></path>
<path d="M1.451 0.973 Q1.432 0.814 1.116 0.789" stroke="hsl(0.0,100%,35%)" stroke-width="0.00489"></path>
<path d="M1.451 0.973 Q1.460 0.412 0.367 0.284" stroke="hsl(0.0,100%,35%)" stroke-width="0.00816"></path>
<path d="M1.451 0.973 Q1.384 0.707 0.850 0.681" stroke="hsl(0.0,100%,35%)" stroke-width="0.00049"></path>
<path d="M1.451 0.973 Q1.488 0.843 1.241 0.796" stroke="hsl(0.0,100%,35%)" stroke-width="0.00114"></path>
<path d="M1.451 0.973 Q1.151 0.687 0.526 0.771" stroke="hsl(0.0,100%,35%)" stroke-width="0.00033"></path>
<path d="M1.451 0.973 Q0.965 0.678 0.282 0.850" stroke="hsl(0.0,100%,35%)" stroke-width="0.01077"></path>
<path d="M1.451 0.973 Q1.809 0.536 1.034 0.265" stroke="hsl(0.0,100%,35%)" stroke-width="0.00033"></path>
<path d="M1.451 0.973 Q1.649 0.584 0.933 0.403" stroke="hsl(0.0,100%,35%)" stroke-width="0.00016"></path>
<path d="M1.451 0.973 Q1.209 0.689 0.601 0.745" stroke="hsl(0.0,100%,35%)" stroke-width="0.00082"></path>
<path d="M1.451 0.973 Q0.879 0.725 0.268 0.949" stroke="hsl(0.0,100%,35%)" stroke-width="0.00147"></path>
<path d="M1.451 0.973 Q1.355 0.635 0.673 0.607" stroke="hsl(0.0,100%,35%)" stroke-width="0.00049"></path>
<path d="M1.451 0.973 Q1.181 0.810 0.803 0.906" stroke="hsl(0.0,100%,35%)" stroke-width="0.00016"></path>
<path d="M1.451 0.973 Q1.322 0.559 0.484 0.530" stroke="hsl(0.0,100%,35%)" stroke-width="0.00049"></path>
<path d="M1.451 0.973 Q2.225 0.549 1.567 0.078" stroke="hsl(0.0,100%,35%)" stroke-width="0.00016"></path>
<path d="M1.277 0.662 Q1.745 0.628 1.782 0.393" stroke="hsl(0.0,100%,35%)" stroke-width="0.00131"></path>
<path d="M1.277 0.662 Q0.989 0.340 0.297 0.410" stroke="hsl(0.0,100%,35%)" stroke-width="0.00392"></path>
<path d="M1.277 0.662 Q1.232 0.573 1.047 0.575" stroke="hsl(0.0,100%,35%)" stroke-width="0.01893"></path>
<path d="M1.277 0.662 Q1.296 0.877 1.720 0.916" stroke="hsl(0.0,100%,35%)" stroke-width="0.00212"></path>
<path d="M1.277 0.662 Q1.093 0.777 1.278 0.892" stroke="hsl(0.0,100%,35%)" stroke-width="0.01403"></path>
<path d="M1.277 0.662 Q1.115 0.853 1.451 0.973" stroke="hsl(0.0,100%,35%)" stroke-width="0.00277"></path>
<path d="M1.277 0.662 Q1.095 0.693 1.116 0.789" stroke="hsl(0.0,100%,35%)" stroke-width="0.00310"></path>
<path d="M1.277 0.662 Q1.124 0.291 0.367 0.284" stroke="hsl(0.0,100%,35%)" stroke-width="0.00212"></path>
<path d="M1.277 0.662 Q1.417 0.774 1.665 0.730" stroke="hsl(0.0,100%,35%)" stroke-width="0.00114"></path>
<path d="M1.277 0.662 Q0.629 0.557 0.282 0.850" stroke="hsl(0.0,100%,35%)" stroke-width="0.00065"></path>
<path d="M1.277 0.662 Q0.709 0.391 0.056 0.609" stroke="hsl(0.0,100%,35%)" stroke-width="0.00016"></path>
<path d="M1.277 0.662 Q0.939 0.635 0.811 0.794" stroke="hsl(0.0,100%,35%)" stroke-width="0.00033"></path>
<path d="M0.367 0.284 Q0.988 0.622 1.782 0.393" stroke="hsl(0.0,100%,35%)" stroke-width="0.00359"></path>
<path d="M0.367 0.284 Q0.358 0.846 1.451 0.973" stroke="hsl(0.0,100%,35%)" stroke-width="0.00049"></path>
<path d="M0.367 0.284 Q-0.128 0.550 0.282 0.850" stroke="hsl(0.0,100%,35%)" stroke-width="0.00098"></path>
<path d="M0.367 0.284 Q0.474 0.566 1.047 0.575" stroke="hsl(0.0,100%,35%)" stroke-width="0.00098"></path>
<path d="M0.367 0.284 Q0.231 0.333 0.297 0.410" stroke="hsl(0.0,100%,35%)" stroke-width="0.00587"></path>
<path d="M0.367 0.284 Q0.336 0.771 1.278 0.892" stroke="hsl(0.0,100%,35%)" stroke-width="0.00016"></path>
<path d="M0.367 0.284 Q0.338 0.686 1.116 0.789" stroke="hsl(0.0,100%,35%)" stroke-width="0.00033"></path>
<path d="M0.367 0.284 Q0.395 0.715 1.241 0.796" stroke="hsl(0.0,100%,35%)" stroke-width="0.00016"></path>
<path d="M0.367 0.284 Q0.520 0.655 1.277 0.662" stroke="hsl(0.0,100%,35%)" stroke-width="0.00049"></path>
<path d="M0.367 0.284 Q0.659 0.767 1.665 0.730" stroke="hsl(0.0,100%,35%)" stroke-width="0.00016"></path>
<path d="M0.367 0.284 Q0.291 0.579 0.850 0.681" stroke="hsl(0.0,100%,35%)" stroke-width="0.00016"></path>
<path d="M1.782 0.393 Q1.152 0.617 1.451 0.973" stroke="hsl(0.0,100%,35%)" stroke-width="0.00049"></path>
<path d="M1.782 0.393 Q1.161 0.055 0.367 0.284" stroke="hsl(0.0,100%,35%)" stroke-width="0.00245"></path>
<path d="M1.782 0.393 Q1.130 0.542 1.278 0.892" stroke="hsl(0.0,100%,35%)" stroke-width="0.00082"></path>
<path d="M1.782 0.393 Q1.314 0.426 1.277 0.662" stroke="hsl(0.0,100%,35%)" stroke-width="0.00163"></path>
<path d="M1.782 0.393 Q1.132 0.457 1.116 0.789" stroke="hsl(0.0,100%,35%)" stroke-width="0.00065"></path>
<path d="M1.782 0.393 Q1.189 0.486 1.241 0.796" stroke="hsl(0.0,100%,35%)" stroke-width="0.00016"></path>
<path d="M1.782 0.393 Q1.026 0.104 0.297 0.410" stroke="hsl(0.0,100%,35%)" stroke-width="0.00179"></path>
<path d="M1.782 0.393 Q1.269 0.337 1.047 0.575" stroke="hsl(0.0,100%,35%)" stroke-width="0.00228"></path>
<path d="M1.782 0.393 Q0.666 0.321 0.282 0.850" stroke="hsl(0.0,100%,35%)" stroke-width="0.00033"></path>
<path d="M1.782 0.393 Q1.295 0.511 1.419 0.774" stroke="hsl(0.0,100%,35%)" stroke-width="0.00033"></path>
<path d="M1.116 0.789 Q1.298 0.757 1.277 0.662" stroke="hsl(0.0,100%,35%)" stroke-width="0.00538"></path>
<path d="M1.116 0.789 Q1.766 0.724 1.782 0.393" stroke="hsl(0.0,100%,35%)" stroke-width="0.00212"></path>
<path d="M1.116 0.789 Q1.114 0.873 1.278 0.892" stroke="hsl(0.0,100%,35%)" stroke-width="0.00098"></path>
<path d="M1.116 0.789 Q1.136 0.948 1.451 0.973" stroke="hsl(0.0,100%,35%)" stroke-width="0.00245"></path>
<path d="M1.116 0.789 Q1.009 0.435 0.297 0.410" stroke="hsl(0.0,100%,35%)" stroke-width="0.00212"></path>
<path d="M1.116 0.789 Q1.252 0.668 1.047 0.575" stroke="hsl(0.0,100%,35%)" stroke-width="0.00196"></path>
<path d="M1.116 0.789 Q0.650 0.652 0.282 0.850" stroke="hsl(0.0,100%,35%)" stroke-width="0.00016"></path>
<path d="M1.116 0.789 Q0.564 0.699 0.268 0.949" stroke="hsl(0.0,100%,35%)" stroke-width="0.00016"></path>
<path d="M1.116 0.789 Q1.145 0.387 0.367 0.284" stroke="hsl(0.0,100%,35%)" stroke-width="0.00065"></path>
<path d="M1.116 0.789 Q1.494 0.510 1.034 0.265" stroke="hsl(0.0,100%,35%)" stroke-width="0.00016"></path>
<path d="M1.116 0.789 Q0.730 0.486 0.056 0.609" stroke="hsl(0.0,100%,35%)" stroke-width="0.00016"></path>
<path d="M0.297 0.410 Q0.585 0.732 1.277 0.662" stroke="hsl(0.0,100%,35%)" stroke-width="0.00914"></path>
<path d="M0.297 0.410 Q0.604 0.947 1.720 0.916" stroke="hsl(0.0,100%,35%)" stroke-width="0.00375"></path>
<path d="M0.297 0.410 Q1.054 0.698 1.782 0.393" stroke="hsl(0.0,100%,35%)" stroke-width="0.00489"></path>
<path d="M0.297 0.410 Q0.401 0.847 1.278 0.892" stroke="hsl(0.0,100%,35%)" stroke-width="0.00620"></path>
<path d="M0.297 0.410 Q0.294 0.508 0.484 0.530" stroke="hsl(0.0,100%,35%)" stroke-width="0.00033"></path>
<path d="M0.297 0.410 Q0.017 0.461 0.056 0.609" stroke="hsl(0.0,100%,35%)" stroke-width="0.00065"></path>
<path d="M0.297 0.410 Q0.423 0.923 1.451 0.973" stroke="hsl(0.0,100%,35%)" stroke-width="0.00147"></path>
<path d="M0.297 0.410 Q0.725 0.844 1.665 0.730" stroke="hsl(0.0,100%,35%)" stroke-width="0.00131"></path>
<path d="M0.297 0.410 Q0.540 0.643 1.047 0.575" stroke="hsl(0.0,100%,35%)" stroke-width="0.00734"></path>
<path d="M0.297 0.410 Q0.404 0.763 1.116 0.789" stroke="hsl(0.0,100%,35%)" stroke-width="0.00375"></path>
<path d="M0.297 0.410 Q0.782 0.485 1.034 0.265" stroke="hsl(0.0,100%,35%)" stroke-width="0.00016"></path>
<path d="M0.297 0.410 Q0.432 0.361 0.367 0.284" stroke="hsl(0.0,100%,35%)" stroke-width="0.00702"></path>
<path d="M0.297 0.410 Q-0.063 0.627 0.282 0.850" stroke="hsl(0.0,100%,35%)" stroke-width="0.00082"></path>
<path d="M0.297 0.410 Q0.247 0.705 0.811 0.794" stroke="hsl(0.0,100%,35%)" stroke-width="0.00065"></path>
<path d="M0.297 0.410 Q0.327 0.584 0.673 0.607" stroke="hsl(0.0,100%,35%)" stroke-width="0.00033"></path>
<path d="M0.282 0.850 Q0.805 1.015 1.241 0.796" stroke="hsl(0.0,100%,35%)" stroke-width="0.00082"></path>
<path d="M0.282 0.850 Q0.362 0.684 0.056 0.609" stroke="hsl(0.0,100%,35%)" stroke-width="0.01632"></path>
<path d="M0.282 0.850 Q0.592 0.928 0.811 0.794" stroke="hsl(0.0,100%,35%)" stroke-width="0.00228"></path>
<path d="M0.282 0.850 Q0.498 0.982 0.803 0.906" stroke="hsl(0.0,100%,35%)" stroke-width="0.00457"></path>
<path d="M0.282 0.850 Q0.885 0.866 1.047 0.575" stroke="hsl(0.0,100%,35%)" stroke-width="0.00147"></path>
<path d="M0.282 0.850 Q1.126 0.708 1.034 0.265" stroke="hsl(0.0,100%,35%)" stroke-width="0.00424"></path>
<path d="M0.282 0.850 Q0.746 1.070 1.278 0.892" stroke="hsl(0.0,100%,35%)" stroke-width="0.02137"></path>
<path d="M0.282 0.850 Q1.398 0.921 1.782 0.393" stroke="hsl(0.0,100%,35%)" stroke-width="0.00424"></path>
<path d="M0.282 0.850 Q1.070 1.067 1.665 0.730" stroke="hsl(0.0,100%,35%)" stroke-width="0.00587"></path>
<path d="M0.282 0.850 Q0.777 0.584 0.367 0.284" stroke="hsl(0.0,100%,35%)" stroke-width="0.00196"></path>
<path d="M0.282 0.850 Q0.768 1.146 1.451 0.973" stroke="hsl(0.0,100%,35%)" stroke-width="0.00604"></path>
<path d="M0.282 0.850 Q0.642 0.633 0.297 0.410" stroke="hsl(0.0,100%,35%)" stroke-width="0.00261"></path>
<path d="M0.282 0.850 Q0.639 0.731 0.484 0.530" stroke="hsl(0.0,100%,35%)" stroke-width="0.00163"></path>
<path d="M0.282 0.850 Q0.525 0.861 0.601 0.745" stroke="hsl(0.0,100%,35%)" stroke-width="0.00049"></path>
<path d="M0.282 0.850 Q0.672 0.807 0.673 0.607" stroke="hsl(0.0,100%,35%)" stroke-width="0.00114"></path>
<path d="M0.282 0.850 Q0.701 0.879 0.850 0.681" stroke="hsl(0.0,100%,35%)" stroke-width="0.00065"></path>
<path d="M0.282 0.850 Q0.344 0.777 0.215 0.730" stroke="hsl(0.0,100%,35%)" stroke-width="0.00147"></path>
<path d="M0.282 0.850 Q0.475 0.877 0.570 0.789" stroke="hsl(0.0,100%,35%)" stroke-width="0.00033"></path>
<path d="M0.282 0.850 Q0.196 0.897 0.268 0.949" stroke="hsl(0.0,100%,35%)" stroke-width="0.00049"></path>
<path d="M0.282 0.850 Q0.930 0.955 1.277 0.662" stroke="hsl(0.0,100%,35%)" stroke-width="0.00718"></path>
<path d="M0.282 0.850 Q0.948 1.170 1.720 0.916" stroke="hsl(0.0,100%,35%)" stroke-width="0.00082"></path>
<path d="M0.282 0.850 Q0.662 1.168 1.366 1.053" stroke="hsl(0.0,100%,35%)" stroke-width="0.00033"></path>
<path d="M0.282 0.850 Q0.468 0.859 0.526 0.771" stroke="hsl(0.0,100%,35%)" stroke-width="0.00147"></path>
<path d="M0.282 0.850 Q0.748 0.986 1.116 0.789" stroke="hsl(0.0,100%,35%)" stroke-width="0.00016"></path>
<path d="M1.278 0.892 Q0.814 0.672 0.282 0.850" stroke="hsl(0.0,100%,35%)" stroke-width="0.00751"></path>
<path d="M1.278 0.892 Q1.300 0.968 1.451 0.973" stroke="hsl(0.0,100%,35%)" stroke-width="0.01289"></path>
<path d="M1.278 0.892 Q1.203 0.629 0.673 0.607" stroke="hsl(0.0,100%,35%)" stroke-width="0.00016"></path>
<path d="M1.278 0.892 Q1.462 0.777 1.277 0.662" stroke="hsl(0.0,100%,35%)" stroke-width="0.00359"></path>
<path d="M1.278 0.892 Q0.894 0.506 0.056 0.609" stroke="hsl(0.0,100%,35%)" stroke-width="0.00261"></path>
<path d="M1.278 0.892 Q1.601 0.889 1.665 0.730" stroke="hsl(0.0,100%,35%)" stroke-width="0.00392"></path>
<path d="M1.278 0.892 Q1.124 0.750 0.811 0.794" stroke="hsl(0.0,100%,35%)" stroke-width="0.00033"></path>
<path d="M1.278 0.892 Q1.416 0.688 1.047 0.575" stroke="hsl(0.0,100%,35%)" stroke-width="0.00294"></path>
<path d="M1.278 0.892 Q1.309 0.406 0.367 0.284" stroke="hsl(0.0,100%,35%)" stroke-width="0.00033"></path>
<path d="M1.278 0.892 Q1.173 0.455 0.297 0.410" stroke="hsl(0.0,100%,35%)" stroke-width="0.00277"></path>
<path d="M1.278 0.892 Q1.443 0.862 1.419 0.774" stroke="hsl(0.0,100%,35%)" stroke-width="0.00065"></path>
<path d="M1.278 0.892 Q1.930 0.743 1.782 0.393" stroke="hsl(0.0,100%,35%)" stroke-width="0.00163"></path>
<path d="M1.278 0.892 Q1.030 0.804 0.803 0.906" stroke="hsl(0.0,100%,35%)" stroke-width="0.00016"></path>
<path d="M1.278 0.892 Q1.337 0.837 1.241 0.796" stroke="hsl(0.0,100%,35%)" stroke-width="0.00033"></path>
<path d="M1.278 0.892 Q1.171 0.553 0.484 0.530" stroke="hsl(0.0,100%,35%)" stroke-width="0.00016"></path>
<path d="M1.278 0.892 Q1.280 0.808 1.116 0.789" stroke="hsl(0.0,100%,35%)" stroke-width="0.00016"></path>
<path d="M1.278 0.892 Q1.233 0.701 0.850 0.681" stroke="hsl(0.0,100%,35%)" stroke-width="0.00016"></path>
<path d="M1.278 0.892 Q1.658 0.530 1.034 0.265" stroke="hsl(0.0,100%,35%)" stroke-width="0.00016"></path>
<path d="M1.278 0.892 Q1.057 0.683 0.601 0.745" stroke="hsl(0.0,100%,35%)" stroke-width="0.00016"></path>
<path d="M0.803 0.906 Q0.587 0.774 0.282 0.850" stroke="hsl(0.0,100%,35%)" stroke-width="0.01436"></path>
<path d="M0.803 0.906 Q1.073 1.069 1.451 0.973" stroke="hsl(0.0,100%,35%)" stroke-width="0.00163"></path>
<path d="M0.803 0.906 Q0.977 0.731 0.673 0.607" stroke="hsl(0.0,100%,35%)" stroke-width="0.00033"></path>
<path d="M0.803 0.906 Q0.947 0.557 0.297 0.410" stroke="hsl(0.0,100%,35%)" stroke-width="0.00016"></path>
<path d="M0.803 0.906 Q0.501 0.820 0.268 0.949" stroke="hsl(0.0,100%,35%)" stroke-width="0.00016"></path>
<path d="M0.803 0.906 Q1.051 0.994 1.278 0.892" stroke="hsl(0.0,100%,35%)" stroke-width="0.00049"></path>
<path d="M0.803 0.906 Q1.054 0.910 1.116 0.789" stroke="hsl(0.0,100%,35%)" stroke-width="0.00016"></path>
<path d="M0.803 0.906 Q0.831 0.785 0.601 0.745" stroke="hsl(0.0,100%,35%)" stroke-width="0.00082"></path>
<path d="M0.803 0.906 Q0.773 0.783 0.526 0.771" stroke="hsl(0.0,100%,35%)" stroke-width="0.00016"></path>
<path d="M1.665 0.730 Q1.342 0.734 1.278 0.892" stroke="hsl(0.0,100%,35%)" stroke-width="0.00897"></path>
<path d="M1.665 0.730 Q1.363 0.809 1.451 0.973" stroke="hsl(0.0,100%,35%)" stroke-width="0.00212"></path>
<path d="M1.665 0.730 Q1.237 0.296 0.297 0.410" stroke="hsl(0.0,100%,35%)" stroke-width="0.00392"></path>
<path d="M1.665 0.730 Q0.878 0.513 0.282 0.850" stroke="hsl(0.0,100%,35%)" stroke-width="0.00424"></path>
<path d="M1.665 0.730 Q0.958 0.347 0.056 0.609" stroke="hsl(0.0,100%,35%)" stroke-width="0.00065"></path>
<path d="M1.665 0.730 Q1.480 0.529 1.047 0.575" stroke="hsl(0.0,100%,35%)" stroke-width="0.00946"></path>
<path d="M1.665 0.730 Q1.526 0.618 1.277 0.662" stroke="hsl(0.0,100%,35%)" stroke-width="0.00049"></path>
<path d="M1.665 0.730 Q1.187 0.591 0.811 0.794" stroke="hsl(0.0,100%,35%)" stroke-width="0.00016"></path>
<path d="M1.665 0.730 Q1.297 0.543 0.850 0.681" stroke="hsl(0.0,100%,35%)" stroke-width="0.00016"></path>
<path d="M1.624 0.616 Q1.413 0.570 1.277 0.662" stroke="hsl(0.0,100%,35%)" stroke-width="0.00016"></path>
<path d="M1.624 0.616 Q0.766 0.465 0.282 0.850" stroke="hsl(0.0,100%,35%)" stroke-width="0.00016"></path>
<path d="M1.624 0.616 Q1.553 0.681 1.665 0.730" stroke="hsl(0.0,100%,35%)" stroke-width="0.00033"></path>
<path d="M0.870 0.114 Q0.589 0.380 1.047 0.575" stroke="hsl(0.0,100%,35%)" stroke-width="0.00016"></path>
<path d="M0.870 0.114 Q1.103 0.435 1.782 0.393" stroke="hsl(0.0,100%,35%)" stroke-width="0.00016"></path>
<path d="M0.870 0.114 Q0.346 0.147 0.297 0.410" stroke="hsl(0.0,100%,35%)" stroke-width="0.00033"></path>
<path d="M1.047 0.575 Q1.093 0.665 1.277 0.662" stroke="hsl(0.0,100%,35%)" stroke-width="0.00848"></path>
<path d="M1.047 0.575 Q1.561 0.631 1.782 0.393" stroke="hsl(0.0,100%,35%)" stroke-width="0.00669"></path>
<path d="M1.047 0.575 Q0.940 0.294 0.367 0.284" stroke="hsl(0.0,100%,35%)" stroke-width="0.00653"></path>
<path d="M1.047 0.575 Q0.445 0.560 0.282 0.850" stroke="hsl(0.0,100%,35%)" stroke-width="0.00082"></path>
<path d="M1.047 0.575 Q0.909 0.780 1.278 0.892" stroke="hsl(0.0,100%,35%)" stroke-width="0.00245"></path>
<path d="M1.047 0.575 Q0.804 0.343 0.297 0.410" stroke="hsl(0.0,100%,35%)" stroke-width="0.01093"></path>
<path d="M1.047 0.575 Q1.289 0.417 1.034 0.265" stroke="hsl(0.0,100%,35%)" stroke-width="0.00049"></path>
<path d="M1.047 0.575 Q1.074 0.749 1.419 0.774" stroke="hsl(0.0,100%,35%)" stroke-width="0.00016"></path>
<path d="M1.047 0.575 Q0.755 0.637 0.811 0.794" stroke="hsl(0.0,100%,35%)" stroke-width="0.00016"></path>
<path d="M1.047 0.575 Q1.232 0.776 1.665 0.730" stroke="hsl(0.0,100%,35%)" stroke-width="0.00016"></path>
<path d="M1.047 0.575 Q0.931 0.855 1.451 0.973" stroke="hsl(0.0,100%,35%)" stroke-width="0.00082"></path>
<path d="M1.047 0.575 Q0.911 0.696 1.116 0.789" stroke="hsl(0.0,100%,35%)" stroke-width="0.00098"></path>
<path d="M1.047 0.575 Q0.834 0.516 0.673 0.607" stroke="hsl(0.0,100%,35%)" stroke-width="0.00082"></path>
<path d="M0.673 0.607 Q0.469 0.660 0.526 0.771" stroke="hsl(0.0,100%,35%)" stroke-width="0.00033"></path>
<path d="M0.673 0.607 Q0.499 0.783 0.803 0.906" stroke="hsl(0.0,100%,35%)" stroke-width="0.00016"></path>
<path d="M0.673 0.607 Q0.283 0.651 0.282 0.850" stroke="hsl(0.0,100%,35%)" stroke-width="0.00016"></path>
<path d="M0.526 0.771 Q0.943 0.777 1.047 0.575" stroke="hsl(0.0,100%,35%)" stroke-width="0.00016"></path>
<path d="M0.526 0.771 Q0.340 0.762 0.282 0.850" stroke="hsl(0.0,100%,35%)" stroke-width="0.00033"></path>
<path d="M0.526 0.771 Q0.584 0.773 0.601 0.745" stroke="hsl(0.0,100%,35%)" stroke-width="0.00016"></path>
<path d="M0.526 0.771 Q0.556 0.894 0.803 0.906" stroke="hsl(0.0,100%,35%)" stroke-width="0.00016"></path>
<path d="M0.526 0.771 Q0.730 0.718 0.673 0.607" stroke="hsl(0.0,100%,35%)" stroke-width="0.00016"></path>
<path d="M0.056 0.609 Q0.440 0.995 1.278 0.892" stroke="hsl(0.0,100%,35%)" stroke-width="0.00636"></path>
<path d="M0.056 0.609 Q0.763 0.991 1.665 0.730" stroke="hsl(0.0,100%,35%)" stroke-width="0.00228"></path>
<path d="M0.056 0.609 Q0.335 0.558 0.297 0.410" stroke="hsl(0.0,100%,35%)" stroke-width="0.00016"></path>
<path d="M0.056 0.609 Q0.332 0.655 0.484 0.530" stroke="hsl(0.0,100%,35%)" stroke-width="0.00179"></path>
<path d="M0.056 0.609 Q0.038 0.701 0.215 0.730" stroke="hsl(0.0,100%,35%)" stroke-width="0.00065"></path>
<path d="M0.056 0.609 Q-0.024 0.775 0.282 0.850" stroke="hsl(0.0,100%,35%)" stroke-width="0.00359"></path>
<path d="M0.056 0.609 Q0.461 1.070 1.451 0.973" stroke="hsl(0.0,100%,35%)" stroke-width="0.00163"></path>
<path d="M0.056 0.609 Q0.820 0.632 1.034 0.265" stroke="hsl(0.0,100%,35%)" stroke-width="0.00016"></path>
<path d="M0.056 0.609 Q0.605 0.964 1.419 0.774" stroke="hsl(0.0,100%,35%)" stroke-width="0.00016"></path>
<path d="M0.056 0.609 Q1.092 0.846 1.782 0.393" stroke="hsl(0.0,100%,35%)" stroke-width="0.00016"></path>
<path d="M0.056 0.609 Q0.191 0.907 0.803 0.906" stroke="hsl(0.0,100%,35%)" stroke-width="0.00016"></path>
<path d="M0.056 0.609 Q0.285 0.852 0.811 0.794" stroke="hsl(0.0,100%,35%)" stroke-width="0.00016"></path>
<path d="M0.811 0.794 Q1.597 0.560 1.314 0.126" stroke="hsl(0.0,100%,35%)" stroke-width="0.00016"></path>
<path d="M0.811 0.794 Q0.582 0.550 0.056 0.609" stroke="hsl(0.0,100%,35%)" stroke-width="0.00179"></path>
<path d="M0.811 0.794 Q0.502 0.716 0.282 0.850" stroke="hsl(0.0,100%,35%)" stroke-width="0.00179"></path>
<path d="M0.811 0.794 Q0.988 1.012 1.451 0.973" stroke="hsl(0.0,100%,35%)" stroke-width="0.00033"></path>
<path d="M0.811 0.794 Q0.921 0.745 0.850 0.681" stroke="hsl(0.0,100%,35%)" stroke-width="0.00408"></path>
<path d="M0.811 0.794 Q0.966 0.936 1.278 0.892" stroke="hsl(0.0,100%,35%)" stroke-width="0.00114"></path>
<path d="M0.811 0.794 Q1.104 0.732 1.047 0.575" stroke="hsl(0.0,100%,35%)" stroke-width="0.00016"></path>
<path d="M0.811 0.794 Q0.861 0.499 0.297 0.410" stroke="hsl(0.0,100%,35%)" stroke-width="0.00016"></path>
<path d="M0.811 0.794 Q1.346 0.574 1.034 0.265" stroke="hsl(0.0,100%,35%)" stroke-width="0.00016"></path>
<path d="M0.811 0.794 Q1.289 0.933 1.665 0.730" stroke="hsl(0.0,100%,35%)" stroke-width="0.00016"></path>
<path d="M0.811 0.794 Q0.786 0.748 0.691 0.751" stroke="hsl(0.0,100%,35%)" stroke-width="0.00016"></path>
<path d="M1.241 0.796 Q1.834 0.702 1.782 0.393" stroke="hsl(0.0,100%,35%)" stroke-width="0.00065"></path>
<path d="M1.241 0.796 Q0.718 0.631 0.282 0.850" stroke="hsl(0.0,100%,35%)" stroke-width="0.00016"></path>
<path d="M1.241 0.796 Q1.204 0.927 1.451 0.973" stroke="hsl(0.0,100%,35%)" stroke-width="0.00082"></path>
<path d="M1.241 0.796 Q1.563 0.489 1.034 0.265" stroke="hsl(0.0,100%,35%)" stroke-width="0.00114"></path>
<path d="M1.241 0.796 Q1.321 0.647 1.047 0.575" stroke="hsl(0.0,100%,35%)" stroke-width="0.00065"></path>
<path d="M1.241 0.796 Q1.213 0.365 0.367 0.284" stroke="hsl(0.0,100%,35%)" stroke-width="0.00016"></path>
<path d="M1.241 0.796 Q1.402 0.538 0.933 0.403" stroke="hsl(0.0,100%,35%)" stroke-width="0.00016"></path>
<path d="M1.241 0.796 Q1.182 0.852 1.278 0.892" stroke="hsl(0.0,100%,35%)" stroke-width="0.00016"></path>
<path d="M1.241 0.796 Q0.798 0.465 0.056 0.609" stroke="hsl(0.0,100%,35%)" stroke-width="0.00016"></path>
<path d="M0.484 0.530 Q0.207 0.484 0.056 0.609" stroke="hsl(0.0,100%,35%)" stroke-width="0.00375"></path>
<path d="M0.484 0.530 Q0.127 0.650 0.282 0.850" stroke="hsl(0.0,100%,35%)" stroke-width="0.00082"></path>
<path d="M0.484 0.530 Q0.591 0.870 1.278 0.892" stroke="hsl(0.0,100%,35%)" stroke-width="0.00049"></path>
<path d="M0.484 0.530 Q0.622 0.384 0.367 0.284" stroke="hsl(0.0,100%,35%)" stroke-width="0.00016"></path>
<path d="M0.484 0.530 Q0.343 0.782 0.803 0.906" stroke="hsl(0.0,100%,35%)" stroke-width="0.00016"></path>
<path d="M0.484 0.530 Q0.775 0.755 1.277 0.662" stroke="hsl(0.0,100%,35%)" stroke-width="0.00016"></path>
<path d="M0.850 0.681 Q0.431 0.652 0.282 0.850" stroke="hsl(0.0,100%,35%)" stroke-width="0.00163"></path>
<path d="M0.850 0.681 Q0.741 0.730 0.811 0.794" stroke="hsl(0.0,100%,35%)" stroke-width="0.00571"></path>
<path d="M0.850 0.681 Q1.079 0.757 1.277 0.662" stroke="hsl(0.0,100%,35%)" stroke-width="0.00016"></path>
<path d="M0.850 0.681 Q1.033 0.668 1.047 0.575" stroke="hsl(0.0,100%,35%)" stroke-width="0.00016"></path>
<path d="M1.034 0.265 Q0.712 0.572 1.241 0.796" stroke="hsl(0.0,100%,35%)" stroke-width="0.00082"></path>
<path d="M1.034 0.265 Q0.270 0.241 0.056 0.609" stroke="hsl(0.0,100%,35%)" stroke-width="0.00033"></path>
<path d="M1.034 0.265 Q0.675 0.703 1.451 0.973" stroke="hsl(0.0,100%,35%)" stroke-width="0.00082"></path>
<path d="M1.034 0.265 Q0.837 0.512 1.277 0.662" stroke="hsl(0.0,100%,35%)" stroke-width="0.00033"></path>
<path d="M1.034 0.265 Q0.873 0.313 0.933 0.403" stroke="hsl(0.0,100%,35%)" stroke-width="0.00082"></path>
<path d="M1.034 0.265 Q0.190 0.407 0.282 0.850" stroke="hsl(0.0,100%,35%)" stroke-width="0.00049"></path>
<path d="M1.034 0.265 Q0.654 0.627 1.278 0.892" stroke="hsl(0.0,100%,35%)" stroke-width="0.00016"></path>
<path d="M1.757 0.492 Q1.849 0.447 1.782 0.393" stroke="hsl(0.0,100%,35%)" stroke-width="0.00196"></path>
<path d="M1.757 0.492 Q1.335 0.392 1.047 0.575" stroke="hsl(0.0,100%,35%)" stroke-width="0.00016"></path>
<path d="M1.757 0.492 Q1.199 0.512 1.116 0.789" stroke="hsl(0.0,100%,35%)" stroke-width="0.00016"></path>
<path d="M1.757 0.492 Q1.219 0.672 1.451 0.973" stroke="hsl(0.0,100%,35%)" stroke-width="0.00016"></path>
<path d="M1.757 0.492 Q1.197 0.596 1.278 0.892" stroke="hsl(0.0,100%,35%)" stroke-width="0.00016"></path>
<path d="M1.757 0.492 Q1.092 0.159 0.297 0.410" stroke="hsl(0.0,100%,35%)" stroke-width="0.00016"></path>
<path d="M1.757 0.492 Q0.733 0.376 0.282 0.850" stroke="hsl(0.0,100%,35%)" stroke-width="0.00049"></path>
<path d="M0.215 0.730 Q0.232 0.637 0.056 0.609" stroke="hsl(0.0,100%,35%)" stroke-width="0.00718"></path>
<path d="M0.215 0.730 Q0.509 0.684 0.484 0.530" stroke="hsl(0.0,100%,35%)" stroke-width="0.00016"></path>
<path d="M0.215 0.730 Q0.152 0.804 0.282 0.850" stroke="hsl(0.0,100%,35%)" stroke-width="0.00392"></path>
<path d="M0.215 0.730 Q0.616 1.024 1.278 0.892" stroke="hsl(0.0,100%,35%)" stroke-width="0.00049"></path>
<path d="M0.215 0.730 Q1.268 0.875 1.782 0.393" stroke="hsl(0.0,100%,35%)" stroke-width="0.00016"></path>
<path d="M0.215 0.730 Q0.462 0.881 0.811 0.794" stroke="hsl(0.0,100%,35%)" stroke-width="0.00016"></path>
<path d="M0.215 0.730 Q0.836 0.710 0.933 0.403" stroke="hsl(0.0,100%,35%)" stroke-width="0.00016"></path>
<path d="M1.366 1.053 Q1.450 0.955 1.278 0.892" stroke="hsl(0.0,100%,35%)" stroke-width="0.00441"></path>
<path d="M1.366 1.053 Q1.830 0.592 1.034 0.265" stroke="hsl(0.0,100%,35%)" stroke-width="0.00065"></path>
<path d="M1.366 1.053 Q1.615 0.924 1.419 0.774" stroke="hsl(0.0,100%,35%)" stroke-width="0.00033"></path>
<path d="M0.268 0.949 Q0.354 0.902 0.282 0.850" stroke="hsl(0.0,100%,35%)" stroke-width="0.00441"></path>
<path d="M0.268 0.949 Q0.570 1.034 0.803 0.906" stroke="hsl(0.0,100%,35%)" stroke-width="0.00049"></path>
<path d="M0.268 0.949 Q0.597 0.914 0.601 0.745" stroke="hsl(0.0,100%,35%)" stroke-width="0.00033"></path>
<path d="M0.268 0.949 Q0.713 0.685 0.297 0.410" stroke="hsl(0.0,100%,35%)" stroke-width="0.00065"></path>
<path d="M0.268 0.949 Q0.434 0.736 0.056 0.609" stroke="hsl(0.0,100%,35%)" stroke-width="0.00016"></path>
<path d="M0.268 0.949 Q1.449 0.746 1.314 0.126" stroke="hsl(0.0,100%,35%)" stroke-width="0.00033"></path>
<path d="M0.268 0.949 Q1.614 0.773 1.567 0.078" stroke="hsl(0.0,100%,35%)" stroke-width="0.00016"></path>
<path d="M0.268 0.949 Q0.840 1.198 1.451 0.973" stroke="hsl(0.0,100%,35%)" stroke-width="0.00065"></path>
<path d="M0.268 0.949 Q0.539 0.911 0.526 0.771" stroke="hsl(0.0,100%,35%)" stroke-width="0.00033"></path>
<path d="M0.268 0.949 Q0.744 0.859 0.673 0.607" stroke="hsl(0.0,100%,35%)" stroke-width="0.00016"></path>
<path d="M0.268 0.949 Q0.818 1.123 1.278 0.892" stroke="hsl(0.0,100%,35%)" stroke-width="0.00033"></path>
<path d="M1.314 0.126 Q0.608 0.238 0.673 0.607" stroke="hsl(0.0,100%,35%)" stroke-width="0.00049"></path>
<path d="M1.314 0.126 Q1.478 0.153 1.567 0.078" stroke="hsl(0.0,100%,35%)" stroke-width="0.00212"></path>
<path d="M1.314 0.126 Q0.218 0.282 0.282 0.850" stroke="hsl(0.0,100%,35%)" stroke-width="0.00016"></path>
<path d="M1.314 0.126 Q0.132 0.328 0.268 0.949" stroke="hsl(0.0,100%,35%)" stroke-width="0.00098"></path>
<path d="M1.314 0.126 Q0.821 0.297 1.047 0.575" stroke="hsl(0.0,100%,35%)" stroke-width="0.00016"></path>
<path d="M1.325 0.497 Q1.637 0.536 1.782 0.393" stroke="hsl(0.0,100%,35%)" stroke-width="0.00049"></path>
<path d="M1.325 0.497 Q0.987 0.601 1.116 0.789" stroke="hsl(0.0,100%,35%)" stroke-width="0.00016"></path>
<path d="M1.325 0.497 Q1.169 0.570 1.277 0.662" stroke="hsl(0.0,100%,35%)" stroke-width="0.00033"></path>
<path d="M1.325 0.497 Q0.985 0.685 1.278 0.892" stroke="hsl(0.0,100%,35%)" stroke-width="0.00016"></path>
<path d="M1.325 0.497 Q0.881 0.248 0.297 0.410" stroke="hsl(0.0,100%,35%)" stroke-width="0.00016"></path>
<path d="M0.339 0.618 Q0.482 0.603 0.484 0.530" stroke="hsl(0.0,100%,35%)" stroke-width="0.00016"></path>
<path d="M0.339 0.618 Q0.125 0.722 0.282 0.850" stroke="hsl(0.0,100%,35%)" stroke-width="0.00016"></path>
<path d="M0.339 0.618 Q0.589 0.943 1.278 0.892" stroke="hsl(0.0,100%,35%)" stroke-width="0.00016"></path>
<path d="M1.418 0.361 Q1.575 0.449 1.782 0.393" stroke="hsl(0.0,100%,35%)" stroke-width="0.00212"></path>
<path d="M1.418 0.361 Q1.107 0.483 1.277 0.662" stroke="hsl(0.0,100%,35%)" stroke-width="0.00228"></path>
<path d="M1.418 0.361 Q0.818 0.161 0.297 0.410" stroke="hsl(0.0,100%,35%)" stroke-width="0.00016"></path>
<path d="M1.418 0.361 Q0.954 0.112 0.367 0.284" stroke="hsl(0.0,100%,35%)" stroke-width="0.00033"></path>
<path d="M1.098 0.694 Q1.029 0.829 1.278 0.892" stroke="hsl(0.0,100%,35%)" stroke-width="0.00016"></path>
<path d="M1.098 0.694 Q1.213 0.714 1.277 0.662" stroke="hsl(0.0,100%,35%)" stroke-width="0.00033"></path>
<path d="M1.098 0.694 Q0.565 0.609 0.282 0.850" stroke="hsl(0.0,100%,35%)" stroke-width="0.00016"></path>
<path d="M1.098 0.694 Q0.925 0.392 0.297 0.410" stroke="hsl(0.0,100%,35%)" stroke-width="0.00033"></path>
<path d="M1.002 0.987 Q1.062 0.852 0.811 0.794" stroke="hsl(0.0,100%,35%)" stroke-width="0.00212"></path>
<path d="M1.002 0.987 Q0.832 0.609 0.056 0.609" stroke="hsl(0.0,100%,35%)" stroke-width="0.00147"></path>
<path d="M1.002 0.987 Q1.216 0.995 1.278 0.892" stroke="hsl(0.0,100%,35%)" stroke-width="0.00163"></path>
<path d="M1.002 0.987 Q0.752 0.775 0.282 0.850" stroke="hsl(0.0,100%,35%)" stroke-width="0.00016"></path>
<path d="M1.002 0.987 Q1.868 0.846 1.782 0.393" stroke="hsl(0.0,100%,35%)" stroke-width="0.00016"></path>
<path d="M1.099 0.383 Q1.161 0.311 1.034 0.265" stroke="hsl(0.0,100%,35%)" stroke-width="0.00082"></path>
<path d="M1.099 0.383 Q0.781 0.674 1.278 0.892" stroke="hsl(0.0,100%,35%)" stroke-width="0.00016"></path>
<path d="M1.099 0.383 Q1.104 0.670 1.665 0.730" stroke="hsl(0.0,100%,35%)" stroke-width="0.00016"></path>
<path d="M0.719 0.005 Q0.472 0.445 1.277 0.662" stroke="hsl(0.0,100%,35%)" stroke-width="0.00114"></path>
<path d="M0.719 0.005 Q0.940 0.411 1.782 0.393" stroke="hsl(0.0,100%,35%)" stroke-width="0.00082"></path>
<path d="M0.719 0.005 Q0.427 0.356 1.047 0.575" stroke="hsl(0.0,100%,35%)" stroke-width="0.00016"></path>
<path d="M0.719 0.005 Q0.288 0.560 1.278 0.892" stroke="hsl(0.0,100%,35%)" stroke-width="0.00049"></path>
<path d="M1.324 0.971 Q1.364 0.922 1.278 0.892" stroke="hsl(0.0,100%,35%)" stroke-width="0.00049"></path>
<path d="M1.324 0.971 Q1.687 0.919 1.665 0.730" stroke="hsl(0.0,100%,35%)" stroke-width="0.00033"></path>
<path d="M1.324 0.971 Q1.386 0.998 1.451 0.973" stroke="hsl(0.0,100%,35%)" stroke-width="0.00016"></path>
<path d="M1.108 0.990 Q1.454 0.860 1.277 0.662" stroke="hsl(0.0,100%,35%)" stroke-width="0.00163"></path>
<path d="M1.108 0.990 Q1.923 0.826 1.782 0.393" stroke="hsl(0.0,100%,35%)" stroke-width="0.00098"></path>
<path d="M1.108 0.990 Q1.166 0.538 0.297 0.410" stroke="hsl(0.0,100%,35%)" stroke-width="0.00082"></path>
<path d="M1.108 0.990 Q1.271 0.975 1.278 0.892" stroke="hsl(0.0,100%,35%)" stroke-width="0.00049"></path>
<path d="M1.108 0.990 Q1.594 0.971 1.665 0.730" stroke="hsl(0.0,100%,35%)" stroke-width="0.00016"></path>
<path d="M1.108 0.990 Q0.807 0.755 0.282 0.850" stroke="hsl(0.0,100%,35%)" stroke-width="0.00049"></path>
<path d="M1.108 0.990 Q1.302 0.489 0.367 0.284" stroke="hsl(0.0,100%,35%)" stroke-width="0.00016"></path>
</g>
<text x="1.720" y="0.894" font-size="0.042398" fill="hsl(0.0,100%,20%)">armansito</text>
<text x="1.451" y="0.934" font-size="0.079144" fill="hsl(0.0,100%,20%)">johnstiles</text>
<text x="1.277" y="0.632" font-size="0.059411" fill="hsl(0.0,100%,20%)">michaelludwig</text>
<text x="0.367" y="0.266" font-size="0.036735" fill="hsl(0.0,100%,20%)">nicolettep</text>
<text x="1.782" y="0.373" font-size="0.038801" fill="hsl(0.0,100%,20%)">egdaniel</text>
<text x="1.116" y="0.773" font-size="0.031093" fill="hsl(0.0,100%,20%)">jamesgk</text>
<text x="0.297" y="0.383" font-size="0.054597" fill="hsl(0.0,100%,20%)">jvanverth</text>
<text x="0.282" y="0.816" font-size="0.067803" fill="hsl(0.0,100%,20%)">kjlubick</text>
<text x="1.278" y="0.855" font-size="0.074524" fill="hsl(0.0,100%,20%)">brianosman</text>
<text x="0.803" y="0.892" font-size="0.027482" fill="hsl(0.0,100%,20%)">lovisolo</text>
<text x="1.665" y="0.709" font-size="0.041860" fill="hsl(0.0,100%,20%)">herb</text>
<text x="1.624" y="0.614" font-size="0.004488" fill="hsl(0.0,100%,20%)">ayzhao</text>
<text x="0.870" y="0.111" font-size="0.004488" fill="hsl(0.0,100%,20%)">blundell</text>
<text x="1.047" y="0.549" font-size="0.052577" fill="hsl(0.0,100%,20%)">robertphillips</text>
<text x="0.673" y="0.601" font-size="0.012084" fill="hsl(0.0,100%,20%)">borenet</text>
<text x="0.526" y="0.765" font-size="0.010525" fill="hsl(0.0,100%,20%)">rmistry</text>
<text x="0.056" y="0.588" font-size="0.040825" fill="hsl(0.0,100%,20%)">bungeman</text>
<text x="0.811" y="0.781" font-size="0.026645" fill="hsl(0.0,100%,20%)">fmalita</text>
<text x="1.419" y="0.771" font-size="0.007096" fill="hsl(0.0,100%,20%)">jreck</text>
<text x="1.241" y="0.788" font-size="0.015219" fill="hsl(0.0,100%,20%)">nscobie</text>
<text x="0.484" y="0.521" font-size="0.017811" fill="hsl(0.0,100%,20%)">jlavrova</text>
<text x="0.850" y="0.671" font-size="0.020320" fill="hsl(0.0,100%,20%)">jmbetancourt</text>
<text x="1.034" y="0.255" font-size="0.019433" fill="hsl(0.0,100%,20%)">scroggo</text>
<text x="0.601" y="0.741" font-size="0.009252" fill="hsl(0.0,100%,20%)">jcgregorio</text>
<text x="1.757" y="0.487" font-size="0.010035" fill="hsl(0.0,100%,20%)">briansalomon</text>
<text x="0.215" y="0.720" font-size="0.021050" fill="hsl(0.0,100%,20%)">drott</text>
<text x="1.366" y="1.046" font-size="0.013275" fill="hsl(0.0,100%,20%)">ccameron</text>
<text x="0.268" y="0.940" font-size="0.018640" fill="hsl(0.0,100%,20%)">cmumford</text>
<text x="1.314" y="0.120" font-size="0.011660" fill="hsl(0.0,100%,20%)">sharaks</text>
<text x="1.567" y="0.074" font-size="0.008691" fill="hsl(0.0,100%,20%)">hcm</text>
<text x="0.933" y="0.399" font-size="0.006347" fill="hsl(0.0,100%,20%)">djsollen</text>
<text x="0.691" y="0.750" font-size="0.002244" fill="hsl(0.0,100%,20%)">bwils</text>
<text x="1.325" y="0.494" font-size="0.006347" fill="hsl(0.0,100%,20%)">hitawala</text>
<text x="0.339" y="0.616" font-size="0.003887" fill="hsl(0.0,100%,20%)">jacksongardner</text>
<text x="0.570" y="0.787" font-size="0.003173" fill="hsl(0.0,100%,20%)">tdenniston</text>
<text x="1.418" y="0.355" font-size="0.012291" fill="hsl(0.0,100%,20%)">lehoangquyen</text>
<text x="1.098" y="0.691" font-size="0.005496" fill="hsl(0.0,100%,20%)">lokokung</text>
<text x="1.002" y="0.981" font-size="0.013084" fill="hsl(0.0,100%,20%)">mike</text>
<text x="1.099" y="0.380" font-size="0.005937" fill="hsl(0.0,100%,20%)">nigeltao</text>
<text x="0.719" y="0.000" font-size="0.008976" fill="hsl(0.0,100%,20%)">penghuang</text>
<text x="1.324" y="0.968" font-size="0.005496" fill="hsl(0.0,100%,20%)">sky</text>
<text x="1.108" y="0.984" font-size="0.012084" fill="hsl(0.0,100%,20%)">sunnyps</text>
</svg>
