<svg width="4000" height="2000" viewBox="-0.025 -0.025 2.05 1.05" xmlns="http://www.w3.org/2000/svg">
  <style>
    path {
      fill: none;
      stroke-linecap: round;
      stroke-opacity: 0.4;
    }

    text {
      text-anchor: middle;
      alignment-baseline: hanging;
    }
  </style>
  <g opacity="0.4">
<path d="M1.443 0.736 Q1.306 0.737 1.278 0.804" stroke="hsl(0.0,100%,35%)" stroke-width="0.00193"></path>
<path d="M1.443 0.736 Q1.343 0.832 1.508 0.902" stroke="hsl(0.0,100%,35%)" stroke-width="0.00270"></path>
<path d="M1.443 0.736 Q0.837 0.450 0.147 0.684" stroke="hsl(0.0,100%,35%)" stroke-width="0.00116"></path>
<path d="M1.443 0.736 Q1.020 0.488 0.443 0.640" stroke="hsl(0.0,100%,35%)" stroke-width="0.00116"></path>
<path d="M1.443 0.736 Q1.634 0.757 1.717 0.669" stroke="hsl(0.0,100%,35%)" stroke-width="0.00116"></path>
<path d="M1.443 0.736 Q1.228 0.617 0.947 0.696" stroke="hsl(0.0,100%,35%)" stroke-width="0.00502"></path>
<path d="M1.443 0.736 Q1.604 0.501 1.181 0.371" stroke="hsl(0.0,100%,35%)" stroke-width="0.00116"></path>
<path d="M1.443 0.736 Q1.519 0.696 1.457 0.651" stroke="hsl(0.0,100%,35%)" stroke-width="0.00039"></path>
<path d="M1.278 0.804 Q1.490 0.763 1.457 0.651" stroke="hsl(0.0,100%,35%)" stroke-width="0.05328"></path>
<path d="M1.278 0.804 Q1.003 0.854 1.039 0.999" stroke="hsl(0.0,100%,35%)" stroke-width="0.00502"></path>
<path d="M1.278 0.804 Q1.505 0.927 1.795 0.843" stroke="hsl(0.0,100%,35%)" stroke-width="0.00541"></path>
<path d="M1.278 0.804 Q1.415 0.803 1.443 0.736" stroke="hsl(0.0,100%,35%)" stroke-width="0.01274"></path>
<path d="M1.278 0.804 Q1.362 0.592 0.965 0.504" stroke="hsl(0.0,100%,35%)" stroke-width="0.00193"></path>
<path d="M1.278 0.804 Q1.314 0.899 1.508 0.902" stroke="hsl(0.0,100%,35%)" stroke-width="0.01042"></path>
<path d="M1.278 0.804 Q0.846 0.793 0.729 1.001" stroke="hsl(0.0,100%,35%)" stroke-width="0.00116"></path>
<path d="M1.278 0.804 Q0.992 0.555 0.443 0.640" stroke="hsl(0.0,100%,35%)" stroke-width="0.00927"></path>
<path d="M1.278 0.804 Q1.199 0.684 0.947 0.696" stroke="hsl(0.0,100%,35%)" stroke-width="0.00347"></path>
<path d="M1.278 0.804 Q1.606 0.824 1.717 0.669" stroke="hsl(0.0,100%,35%)" stroke-width="0.00541"></path>
<path d="M1.278 0.804 Q0.809 0.518 0.147 0.684" stroke="hsl(0.0,100%,35%)" stroke-width="0.00849"></path>
<path d="M1.278 0.804 Q0.856 0.727 0.613 0.916" stroke="hsl(0.0,100%,35%)" stroke-width="0.00077"></path>
<path d="M1.278 0.804 Q0.996 0.785 0.897 0.919" stroke="hsl(0.0,100%,35%)" stroke-width="0.00154"></path>
<path d="M1.278 0.804 Q1.767 0.518 1.315 0.216" stroke="hsl(0.0,100%,35%)" stroke-width="0.00039"></path>
<path d="M1.278 0.804 Q1.576 0.568 1.181 0.371" stroke="hsl(0.0,100%,35%)" stroke-width="0.01004"></path>
<path d="M1.278 0.804 Q0.749 0.706 0.441 0.942" stroke="hsl(0.0,100%,35%)" stroke-width="0.00039"></path>
<path d="M1.278 0.804 Q1.218 0.730 1.060 0.743" stroke="hsl(0.0,100%,35%)" stroke-width="0.00039"></path>
<path d="M1.278 0.804 Q1.295 0.504 0.712 0.429" stroke="hsl(0.0,100%,35%)" stroke-width="0.00039"></path>
<path d="M1.278 0.804 Q1.200 0.861 1.293 0.912" stroke="hsl(0.0,100%,35%)" stroke-width="0.00193"></path>
<path d="M1.278 0.804 Q1.756 0.377 1.028 0.050" stroke="hsl(0.0,100%,35%)" stroke-width="0.00039"></path>
<path d="M1.508 0.902 Q1.185 0.558 0.443 0.640" stroke="hsl(0.0,100%,35%)" stroke-width="0.00270"></path>
<path d="M1.508 0.902 Q1.392 0.687 0.947 0.696" stroke="hsl(0.0,100%,35%)" stroke-width="0.00386"></path>
<path d="M1.508 0.902 Q1.699 0.930 1.795 0.843" stroke="hsl(0.0,100%,35%)" stroke-width="0.02085"></path>
<path d="M1.508 0.902 Q1.608 0.806 1.443 0.736" stroke="hsl(0.0,100%,35%)" stroke-width="0.00193"></path>
<path d="M1.508 0.902 Q1.683 0.766 1.457 0.651" stroke="hsl(0.0,100%,35%)" stroke-width="0.01544"></path>
<path d="M1.508 0.902 Q1.471 0.807 1.278 0.804" stroke="hsl(0.0,100%,35%)" stroke-width="0.00386"></path>
<path d="M1.508 0.902 Q1.799 0.827 1.717 0.669" stroke="hsl(0.0,100%,35%)" stroke-width="0.00772"></path>
<path d="M1.508 0.902 Q1.002 0.521 0.147 0.684" stroke="hsl(0.0,100%,35%)" stroke-width="0.00347"></path>
<path d="M1.508 0.902 Q1.196 0.857 1.039 0.999" stroke="hsl(0.0,100%,35%)" stroke-width="0.00232"></path>
<path d="M1.508 0.902 Q1.769 0.571 1.181 0.371" stroke="hsl(0.0,100%,35%)" stroke-width="0.00039"></path>
<path d="M1.508 0.902 Q1.555 0.595 0.965 0.504" stroke="hsl(0.0,100%,35%)" stroke-width="0.00039"></path>
<path d="M0.147 0.684 Q0.330 0.721 0.443 0.640" stroke="hsl(0.0,100%,35%)" stroke-width="0.00811"></path>
<path d="M0.147 0.684 Q0.616 0.970 1.278 0.804" stroke="hsl(0.0,100%,35%)" stroke-width="0.00039"></path>
<path d="M0.147 0.684 Q0.914 0.734 1.181 0.371" stroke="hsl(0.0,100%,35%)" stroke-width="0.00116"></path>
<path d="M0.147 0.684 Q0.843 1.093 1.795 0.843" stroke="hsl(0.0,100%,35%)" stroke-width="0.00116"></path>
<path d="M0.147 0.684 Q0.537 0.850 0.947 0.696" stroke="hsl(0.0,100%,35%)" stroke-width="0.00154"></path>
<path d="M0.147 0.684 Q0.828 0.929 1.457 0.651" stroke="hsl(0.0,100%,35%)" stroke-width="0.00039"></path>
<path d="M0.147 0.684 Q0.944 0.990 1.717 0.669" stroke="hsl(0.0,100%,35%)" stroke-width="0.00039"></path>
<path d="M0.147 0.684 Q0.334 0.951 0.897 0.919" stroke="hsl(0.0,100%,35%)" stroke-width="0.00039"></path>
<path d="M0.147 0.684 Q0.652 1.065 1.508 0.902" stroke="hsl(0.0,100%,35%)" stroke-width="0.00039"></path>
<path d="M0.443 0.640 Q0.730 0.889 1.278 0.804" stroke="hsl(0.0,100%,35%)" stroke-width="0.00116"></path>
<path d="M0.443 0.640 Q0.261 0.603 0.147 0.684" stroke="hsl(0.0,100%,35%)" stroke-width="0.00541"></path>
<path d="M0.443 0.640 Q0.942 0.848 1.457 0.651" stroke="hsl(0.0,100%,35%)" stroke-width="0.00116"></path>
<path d="M0.443 0.640 Q0.766 0.984 1.508 0.902" stroke="hsl(0.0,100%,35%)" stroke-width="0.00309"></path>
<path d="M0.443 0.640 Q1.058 0.909 1.717 0.669" stroke="hsl(0.0,100%,35%)" stroke-width="0.00077"></path>
<path d="M0.443 0.640 Q0.448 0.870 0.897 0.919" stroke="hsl(0.0,100%,35%)" stroke-width="0.00039"></path>
<path d="M0.443 0.640 Q0.651 0.769 0.947 0.696" stroke="hsl(0.0,100%,35%)" stroke-width="0.00116"></path>
<path d="M0.443 0.640 Q0.957 1.012 1.795 0.843" stroke="hsl(0.0,100%,35%)" stroke-width="0.00386"></path>
<path d="M0.443 0.640 Q1.028 0.653 1.181 0.371" stroke="hsl(0.0,100%,35%)" stroke-width="0.00039"></path>
<path d="M0.443 0.640 Q0.311 0.697 0.392 0.773" stroke="hsl(0.0,100%,35%)" stroke-width="0.00039"></path>
<path d="M1.717 0.669 Q1.425 0.743 1.508 0.902" stroke="hsl(0.0,100%,35%)" stroke-width="0.00502"></path>
<path d="M1.717 0.669 Q1.103 0.400 0.443 0.640" stroke="hsl(0.0,100%,35%)" stroke-width="0.00232"></path>
<path d="M1.717 0.669 Q1.601 0.607 1.457 0.651" stroke="hsl(0.0,100%,35%)" stroke-width="0.00077"></path>
<path d="M1.717 0.669 Q1.389 0.649 1.278 0.804" stroke="hsl(0.0,100%,35%)" stroke-width="0.00116"></path>
<path d="M1.717 0.669 Q1.310 0.528 0.947 0.696" stroke="hsl(0.0,100%,35%)" stroke-width="0.00077"></path>
<path d="M1.717 0.669 Q1.616 0.772 1.795 0.843" stroke="hsl(0.0,100%,35%)" stroke-width="0.00193"></path>
<path d="M0.947 0.696 Q1.062 0.911 1.508 0.902" stroke="hsl(0.0,100%,35%)" stroke-width="0.01544"></path>
<path d="M0.947 0.696 Q1.163 0.815 1.443 0.736" stroke="hsl(0.0,100%,35%)" stroke-width="0.00811"></path>
<path d="M0.947 0.696 Q0.739 0.567 0.443 0.640" stroke="hsl(0.0,100%,35%)" stroke-width="0.00347"></path>
<path d="M0.947 0.696 Q1.238 0.775 1.457 0.651" stroke="hsl(0.0,100%,35%)" stroke-width="0.00541"></path>
<path d="M0.947 0.696 Q1.565 0.677 1.664 0.371" stroke="hsl(0.0,100%,35%)" stroke-width="0.00077"></path>
<path d="M0.947 0.696 Q1.109 0.604 0.965 0.504" stroke="hsl(0.0,100%,35%)" stroke-width="0.00154"></path>
<path d="M0.947 0.696 Q1.026 0.816 1.278 0.804" stroke="hsl(0.0,100%,35%)" stroke-width="0.00270"></path>
<path d="M0.947 0.696 Q0.751 0.866 1.039 0.999" stroke="hsl(0.0,100%,35%)" stroke-width="0.00077"></path>
<path d="M0.947 0.696 Q1.253 0.939 1.795 0.843" stroke="hsl(0.0,100%,35%)" stroke-width="0.00270"></path>
<path d="M0.947 0.696 Q1.354 0.836 1.717 0.669" stroke="hsl(0.0,100%,35%)" stroke-width="0.00347"></path>
<path d="M0.947 0.696 Q0.497 0.718 0.441 0.942" stroke="hsl(0.0,100%,35%)" stroke-width="0.00039"></path>
<path d="M0.947 0.696 Q0.557 0.530 0.147 0.684" stroke="hsl(0.0,100%,35%)" stroke-width="0.00309"></path>
<path d="M0.947 0.696 Q1.324 0.580 1.181 0.371" stroke="hsl(0.0,100%,35%)" stroke-width="0.00154"></path>
<path d="M1.181 0.371 Q0.601 0.588 0.897 0.919" stroke="hsl(180.0,100%,35%)" stroke-width="0.00154"></path>
<path d="M1.181 0.371 Q0.967 0.395 0.965 0.504" stroke="hsl(180.0,100%,35%)" stroke-width="0.02471"></path>
<path d="M1.181 0.371 Q0.451 0.596 0.729 1.001" stroke="hsl(180.0,100%,35%)" stroke-width="0.00386"></path>
<path d="M1.181 0.371 Q1.118 0.306 0.977 0.322" stroke="hsl(180.0,100%,35%)" stroke-width="0.01004"></path>
<path d="M1.181 0.371 Q1.110 0.730 1.795 0.843" stroke="hsl(180.0,100%,35%)" stroke-width="0.00232"></path>
<path d="M1.181 0.371 Q0.354 0.509 0.441 0.942" stroke="hsl(180.0,100%,35%)" stroke-width="0.00154"></path>
<path d="M1.181 0.371 Q1.095 0.566 1.457 0.651" stroke="hsl(180.0,100%,35%)" stroke-width="0.01892"></path>
<path d="M1.181 0.371 Q0.597 0.358 0.443 0.640" stroke="hsl(180.0,100%,35%)" stroke-width="0.00772"></path>
<path d="M1.181 0.371 Q0.608 0.657 1.039 0.999" stroke="hsl(180.0,100%,35%)" stroke-width="0.00116"></path>
<path d="M1.181 0.371 Q0.414 0.320 0.147 0.684" stroke="hsl(180.0,100%,35%)" stroke-width="0.00347"></path>
<path d="M1.181 0.371 Q0.883 0.607 1.278 0.804" stroke="hsl(180.0,100%,35%)" stroke-width="0.00772"></path>
<path d="M1.181 0.371 Q0.804 0.487 0.947 0.696" stroke="hsl(180.0,100%,35%)" stroke-width="0.00232"></path>
<path d="M1.181 0.371 Q1.423 0.468 1.664 0.371" stroke="hsl(180.0,100%,35%)" stroke-width="0.00193"></path>
<path d="M1.181 0.371 Q0.900 0.306 0.712 0.429" stroke="hsl(180.0,100%,35%)" stroke-width="0.00039"></path>
<path d="M1.181 0.371 Q1.361 0.180 1.028 0.050" stroke="hsl(180.0,100%,35%)" stroke-width="0.00077"></path>
<path d="M1.181 0.371 Q0.461 0.530 0.613 0.916" stroke="hsl(180.0,100%,35%)" stroke-width="0.00077"></path>
<path d="M1.181 0.371 Q0.839 0.387 0.795 0.557" stroke="hsl(180.0,100%,35%)" stroke-width="0.00116"></path>
<path d="M1.181 0.371 Q1.078 0.174 0.671 0.181" stroke="hsl(180.0,100%,35%)" stroke-width="0.00077"></path>
<path d="M1.181 0.371 Q0.805 0.664 1.293 0.912" stroke="hsl(180.0,100%,35%)" stroke-width="0.00039"></path>
<path d="M1.181 0.371 Q0.920 0.702 1.508 0.902" stroke="hsl(180.0,100%,35%)" stroke-width="0.00116"></path>
<path d="M1.181 0.371 Q1.020 0.606 1.443 0.736" stroke="hsl(180.0,100%,35%)" stroke-width="0.00039"></path>
<path d="M1.457 0.651 Q1.543 0.456 1.181 0.371" stroke="hsl(0.0,100%,35%)" stroke-width="0.00232"></path>
<path d="M1.457 0.651 Q1.244 0.692 1.278 0.804" stroke="hsl(0.0,100%,35%)" stroke-width="0.01429"></path>
<path d="M1.457 0.651 Q1.723 0.264 1.028 0.050" stroke="hsl(0.0,100%,35%)" stroke-width="0.00039"></path>
<path d="M1.457 0.651 Q1.281 0.786 1.508 0.902" stroke="hsl(0.0,100%,35%)" stroke-width="0.00463"></path>
<path d="M1.457 0.651 Q1.328 0.479 0.965 0.504" stroke="hsl(0.0,100%,35%)" stroke-width="0.00193"></path>
<path d="M1.457 0.651 Q0.969 0.741 1.039 0.999" stroke="hsl(0.0,100%,35%)" stroke-width="0.00039"></path>
<path d="M1.457 0.651 Q0.812 0.680 0.729 1.001" stroke="hsl(0.0,100%,35%)" stroke-width="0.00039"></path>
<path d="M1.457 0.651 Q1.472 0.815 1.795 0.843" stroke="hsl(0.0,100%,35%)" stroke-width="0.00154"></path>
<path d="M1.457 0.651 Q0.775 0.405 0.147 0.684" stroke="hsl(0.0,100%,35%)" stroke-width="0.00039"></path>
<path d="M1.457 0.651 Q1.166 0.571 0.947 0.696" stroke="hsl(0.0,100%,35%)" stroke-width="0.00116"></path>
<path d="M1.457 0.651 Q0.826 0.499 0.392 0.773" stroke="hsl(0.0,100%,35%)" stroke-width="0.00039"></path>
<path d="M1.457 0.651 Q0.958 0.443 0.443 0.640" stroke="hsl(0.0,100%,35%)" stroke-width="0.00154"></path>
<path d="M1.028 0.050 Q1.039 0.190 1.315 0.216" stroke="hsl(180.0,100%,35%)" stroke-width="0.00116"></path>
<path d="M1.028 0.050 Q0.785 0.176 0.977 0.322" stroke="hsl(180.0,100%,35%)" stroke-width="0.00039"></path>
<path d="M1.028 0.050 Q0.471 0.357 0.947 0.696" stroke="hsl(180.0,100%,35%)" stroke-width="0.00039"></path>
<path d="M1.028 0.050 Q0.848 0.241 1.181 0.371" stroke="hsl(180.0,100%,35%)" stroke-width="0.00077"></path>
<path d="M1.315 0.216 Q1.053 0.626 1.795 0.843" stroke="hsl(180.0,100%,35%)" stroke-width="0.00039"></path>
<path d="M1.315 0.216 Q1.124 0.267 1.181 0.371" stroke="hsl(180.0,100%,35%)" stroke-width="0.00039"></path>
<path d="M1.315 0.216 Q0.843 0.202 0.712 0.429" stroke="hsl(180.0,100%,35%)" stroke-width="0.00039"></path>
<path d="M0.977 0.322 Q1.040 0.387 1.181 0.371" stroke="hsl(180.0,100%,35%)" stroke-width="0.01969"></path>
<path d="M0.977 0.322 Q0.741 0.623 1.278 0.804" stroke="hsl(180.0,100%,35%)" stroke-width="0.00232"></path>
<path d="M0.977 0.322 Q1.220 0.196 1.028 0.050" stroke="hsl(180.0,100%,35%)" stroke-width="0.00039"></path>
<path d="M0.977 0.322 Q0.663 0.503 0.947 0.696" stroke="hsl(180.0,100%,35%)" stroke-width="0.00039"></path>
<path d="M0.977 0.322 Q0.954 0.582 1.457 0.651" stroke="hsl(180.0,100%,35%)" stroke-width="0.00077"></path>
<path d="M0.977 0.322 Q0.825 0.411 0.965 0.504" stroke="hsl(180.0,100%,35%)" stroke-width="0.00039"></path>
<path d="M0.965 0.504 Q1.094 0.676 1.457 0.651" stroke="hsl(180.0,100%,35%)" stroke-width="0.01120"></path>
<path d="M0.965 0.504 Q0.607 0.766 1.039 0.999" stroke="hsl(180.0,100%,35%)" stroke-width="0.00154"></path>
<path d="M0.965 0.504 Q0.803 0.596 0.947 0.696" stroke="hsl(180.0,100%,35%)" stroke-width="0.00039"></path>
<path d="M0.965 0.504 Q1.421 0.577 1.664 0.371" stroke="hsl(180.0,100%,35%)" stroke-width="0.00347"></path>
<path d="M0.965 0.504 Q0.838 0.497 0.795 0.557" stroke="hsl(180.0,100%,35%)" stroke-width="0.00039"></path>
<path d="M0.965 0.504 Q1.180 0.481 1.181 0.371" stroke="hsl(180.0,100%,35%)" stroke-width="0.00541"></path>
<path d="M0.965 0.504 Q0.882 0.717 1.278 0.804" stroke="hsl(180.0,100%,35%)" stroke-width="0.00193"></path>
<path d="M0.965 0.504 Q0.353 0.618 0.441 0.942" stroke="hsl(180.0,100%,35%)" stroke-width="0.00039"></path>
<path d="M0.965 0.504 Q0.464 0.524 0.392 0.773" stroke="hsl(180.0,100%,35%)" stroke-width="0.00039"></path>
<path d="M0.965 0.504 Q0.596 0.468 0.443 0.640" stroke="hsl(180.0,100%,35%)" stroke-width="0.00039"></path>
<path d="M0.965 0.504 Q0.450 0.705 0.729 1.001" stroke="hsl(180.0,100%,35%)" stroke-width="0.00039"></path>
<path d="M1.039 0.999 Q1.527 0.908 1.457 0.651" stroke="hsl(0.0,100%,35%)" stroke-width="0.00927"></path>
<path d="M1.039 0.999 Q1.314 0.949 1.278 0.804" stroke="hsl(0.0,100%,35%)" stroke-width="0.00232"></path>
<path d="M1.039 0.999 Q1.236 0.829 0.947 0.696" stroke="hsl(0.0,100%,35%)" stroke-width="0.00309"></path>
<path d="M1.039 0.999 Q1.612 0.713 1.181 0.371" stroke="hsl(0.0,100%,35%)" stroke-width="0.00077"></path>
<path d="M1.039 0.999 Q1.398 0.737 0.965 0.504" stroke="hsl(0.0,100%,35%)" stroke-width="0.00039"></path>
<path d="M1.039 0.999 Q1.542 1.072 1.795 0.843" stroke="hsl(0.0,100%,35%)" stroke-width="0.00039"></path>
<path d="M0.729 1.001 Q1.348 0.565 0.632 0.167" stroke="hsl(180.0,100%,35%)" stroke-width="0.00039"></path>
<path d="M0.729 1.001 Q1.245 0.800 0.965 0.504" stroke="hsl(180.0,100%,35%)" stroke-width="0.00193"></path>
<path d="M0.729 1.001 Q1.459 0.777 1.181 0.371" stroke="hsl(180.0,100%,35%)" stroke-width="0.00347"></path>
<path d="M0.729 1.001 Q1.161 1.013 1.278 0.804" stroke="hsl(180.0,100%,35%)" stroke-width="0.00039"></path>
<path d="M0.729 1.001 Q0.739 0.935 0.613 0.916" stroke="hsl(180.0,100%,35%)" stroke-width="0.00309"></path>
<path d="M0.729 1.001 Q1.373 0.972 1.457 0.651" stroke="hsl(180.0,100%,35%)" stroke-width="0.00077"></path>
<path d="M0.729 1.001 Q1.388 1.136 1.795 0.843" stroke="hsl(180.0,100%,35%)" stroke-width="0.00039"></path>
<path d="M0.729 1.001 Q0.939 1.050 1.080 0.958" stroke="hsl(180.0,100%,35%)" stroke-width="0.00039"></path>
<path d="M1.795 0.843 Q1.604 0.815 1.508 0.902" stroke="hsl(0.0,100%,35%)" stroke-width="0.01351"></path>
<path d="M1.795 0.843 Q1.282 0.471 0.443 0.640" stroke="hsl(0.0,100%,35%)" stroke-width="0.00656"></path>
<path d="M1.795 0.843 Q1.099 0.434 0.147 0.684" stroke="hsl(0.0,100%,35%)" stroke-width="0.01467"></path>
<path d="M1.795 0.843 Q1.866 0.484 1.181 0.371" stroke="hsl(0.0,100%,35%)" stroke-width="0.00077"></path>
<path d="M1.795 0.843 Q1.780 0.679 1.457 0.651" stroke="hsl(0.0,100%,35%)" stroke-width="0.00116"></path>
<path d="M1.795 0.843 Q1.489 0.600 0.947 0.696" stroke="hsl(0.0,100%,35%)" stroke-width="0.00116"></path>
<path d="M0.642 0.718 Q0.605 0.639 0.443 0.640" stroke="hsl(0.0,100%,35%)" stroke-width="0.00502"></path>
<path d="M0.642 0.718 Q1.119 1.011 1.795 0.843" stroke="hsl(0.0,100%,35%)" stroke-width="0.00039"></path>
<path d="M0.642 0.718 Q1.219 0.908 1.717 0.669" stroke="hsl(0.0,100%,35%)" stroke-width="0.00039"></path>
<path d="M0.642 0.718 Q0.891 0.888 1.278 0.804" stroke="hsl(0.0,100%,35%)" stroke-width="0.00039"></path>
<path d="M0.642 0.718 Q0.813 0.768 0.947 0.696" stroke="hsl(0.0,100%,35%)" stroke-width="0.00039"></path>
<path d="M1.664 0.371 Q1.208 0.298 0.965 0.504" stroke="hsl(180.0,100%,35%)" stroke-width="0.00309"></path>
<path d="M1.664 0.371 Q1.423 0.274 1.181 0.371" stroke="hsl(180.0,100%,35%)" stroke-width="0.00077"></path>
<path d="M1.664 0.371 Q1.337 0.469 1.457 0.651" stroke="hsl(180.0,100%,35%)" stroke-width="0.00039"></path>
<path d="M0.795 0.557 Q0.922 0.565 0.965 0.504" stroke="hsl(180.0,100%,35%)" stroke-width="0.00927"></path>
<path d="M0.795 0.557 Q1.378 0.638 1.664 0.371" stroke="hsl(180.0,100%,35%)" stroke-width="0.00039"></path>
<path d="M0.795 0.557 Q1.137 0.541 1.181 0.371" stroke="hsl(180.0,100%,35%)" stroke-width="0.00309"></path>
<path d="M0.795 0.557 Q1.051 0.736 1.457 0.651" stroke="hsl(180.0,100%,35%)" stroke-width="0.00116"></path>
<path d="M0.795 0.557 Q0.553 0.529 0.443 0.640" stroke="hsl(180.0,100%,35%)" stroke-width="0.00039"></path>
<path d="M0.795 0.557 Q0.310 0.679 0.441 0.942" stroke="hsl(180.0,100%,35%)" stroke-width="0.00039"></path>
<path d="M0.441 0.942 Q0.688 1.022 0.897 0.919" stroke="hsl(0.0,100%,35%)" stroke-width="0.00039"></path>
<path d="M0.441 0.942 Q1.054 0.828 0.965 0.504" stroke="hsl(0.0,100%,35%)" stroke-width="0.00116"></path>
<path d="M0.441 0.942 Q1.182 0.999 1.457 0.651" stroke="hsl(0.0,100%,35%)" stroke-width="0.00039"></path>
<path d="M0.441 0.942 Q0.552 0.848 0.392 0.773" stroke="hsl(0.0,100%,35%)" stroke-width="0.00039"></path>
<path d="M0.441 0.942 Q0.970 1.041 1.278 0.804" stroke="hsl(0.0,100%,35%)" stroke-width="0.00039"></path>
<path d="M0.897 0.919 Q0.893 0.689 0.443 0.640" stroke="hsl(0.0,100%,35%)" stroke-width="0.00154"></path>
<path d="M0.897 0.919 Q1.477 0.702 1.181 0.371" stroke="hsl(0.0,100%,35%)" stroke-width="0.00039"></path>
<path d="M0.897 0.919 Q1.179 0.938 1.278 0.804" stroke="hsl(0.0,100%,35%)" stroke-width="0.00154"></path>
<path d="M0.897 0.919 Q0.650 0.839 0.441 0.942" stroke="hsl(0.0,100%,35%)" stroke-width="0.00116"></path>
<path d="M0.897 0.919 Q1.407 1.061 1.795 0.843" stroke="hsl(0.0,100%,35%)" stroke-width="0.00154"></path>
<path d="M0.897 0.919 Q0.710 0.651 0.147 0.684" stroke="hsl(0.0,100%,35%)" stroke-width="0.00039"></path>
<path d="M0.632 0.167 Q0.924 0.188 1.028 0.050" stroke="hsl(180.0,100%,35%)" stroke-width="0.00077"></path>
<path d="M0.632 0.167 Q0.484 0.128 0.376 0.192" stroke="hsl(180.0,100%,35%)" stroke-width="0.00309"></path>
<path d="M0.632 0.167 Q0.744 0.379 1.181 0.371" stroke="hsl(180.0,100%,35%)" stroke-width="0.00039"></path>
<path d="M0.632 0.167 Q0.367 0.671 1.293 0.912" stroke="hsl(180.0,100%,35%)" stroke-width="0.00077"></path>
<path d="M0.283 0.499 Q0.250 0.602 0.443 0.640" stroke="hsl(0.0,100%,35%)" stroke-width="0.00116"></path>
<path d="M0.283 0.499 Q0.865 0.871 1.717 0.669" stroke="hsl(0.0,100%,35%)" stroke-width="0.00039"></path>
<path d="M0.283 0.499 Q0.573 0.945 1.508 0.902" stroke="hsl(0.0,100%,35%)" stroke-width="0.00039"></path>
<path d="M1.192 0.559 Q1.251 0.658 1.457 0.651" stroke="hsl(0.0,100%,35%)" stroke-width="0.00077"></path>
<path d="M1.192 0.559 Q0.606 0.687 0.729 1.001" stroke="hsl(0.0,100%,35%)" stroke-width="0.00039"></path>
<path d="M1.192 0.559 Q1.122 0.486 0.965 0.504" stroke="hsl(0.0,100%,35%)" stroke-width="0.00039"></path>
<path d="M1.541 0.966 Q1.751 0.791 1.457 0.651" stroke="hsl(0.0,100%,35%)" stroke-width="0.00039"></path>
<path d="M1.541 0.966 Q1.575 0.927 1.508 0.902" stroke="hsl(0.0,100%,35%)" stroke-width="0.00077"></path>
<path d="M1.541 0.966 Q1.253 0.584 0.443 0.640" stroke="hsl(0.0,100%,35%)" stroke-width="0.00039"></path>
<path d="M0.719 0.956 Q0.688 0.981 0.729 1.001" stroke="hsl(0.0,100%,35%)" stroke-width="0.00270"></path>
<path d="M0.719 0.956 Q1.204 0.779 0.965 0.504" stroke="hsl(0.0,100%,35%)" stroke-width="0.00154"></path>
<path d="M0.719 0.956 Q1.332 0.951 1.457 0.651" stroke="hsl(0.0,100%,35%)" stroke-width="0.00193"></path>
<path d="M0.166 0.904 Q0.273 0.978 0.441 0.942" stroke="hsl(180.0,100%,35%)" stroke-width="0.00077"></path>
<path d="M0.166 0.904 Q1.014 1.035 1.457 0.651" stroke="hsl(180.0,100%,35%)" stroke-width="0.00039"></path>
<path d="M0.166 0.904 Q0.527 1.126 1.039 0.999" stroke="hsl(180.0,100%,35%)" stroke-width="0.00039"></path>
<path d="M0.450 0.452 Q0.619 0.888 1.508 0.902" stroke="hsl(0.0,100%,35%)" stroke-width="0.00116"></path>
<path d="M0.450 0.452 Q0.296 0.545 0.443 0.640" stroke="hsl(0.0,100%,35%)" stroke-width="0.00154"></path>
<path d="M0.450 0.452 Q0.810 0.917 1.795 0.843" stroke="hsl(0.0,100%,35%)" stroke-width="0.00039"></path>
</g>
<text x="1.443" y="0.718" font-size="0.035514" fill="hsl(0.0,100%,20%)">armansito</text>
<text x="1.278" y="0.766" font-size="0.076439" fill="hsl(0.0,100%,20%)">johnstiles</text>
<text x="1.508" y="0.870" font-size="0.063671" fill="hsl(0.0,100%,20%)">michaelludwig</text>
<text x="0.147" y="0.662" font-size="0.042599" fill="hsl(0.0,100%,20%)">nicolettep</text>
<text x="0.443" y="0.616" font-size="0.048663" fill="hsl(0.0,100%,20%)">egdaniel</text>
<text x="1.717" y="0.652" font-size="0.032486" fill="hsl(0.0,100%,20%)">jamesgk</text>
<text x="0.947" y="0.671" font-size="0.049839" fill="hsl(0.0,100%,20%)">jvanverth</text>
<text x="1.181" y="0.336" font-size="0.069749" fill="hsl(180.0,100%,20%)">kjlubick</text>
<text x="1.457" y="0.615" font-size="0.071570" fill="hsl(0.0,100%,20%)">brianosman</text>
<text x="1.028" y="0.043" font-size="0.013423" fill="hsl(180.0,100%,20%)">borenet</text>
<text x="1.315" y="0.211" font-size="0.009492" fill="hsl(180.0,100%,20%)">rmistry</text>
<text x="0.977" y="0.305" font-size="0.033844" fill="hsl(180.0,100%,20%)">lovisolo</text>
<text x="0.965" y="0.479" font-size="0.049839" fill="hsl(180.0,100%,20%)">bungeman</text>
<text x="1.039" y="0.984" font-size="0.030441" fill="hsl(0.0,100%,20%)">herb</text>
<text x="0.729" y="0.988" font-size="0.025620" fill="hsl(180.0,100%,20%)">fmalita</text>
<text x="1.795" y="0.817" font-size="0.051988" fill="hsl(0.0,100%,20%)">robertphillips</text>
<text x="0.392" y="0.770" font-size="0.007175" fill="hsl(180.0,100%,20%)">jreck</text>
<text x="0.642" y="0.711" font-size="0.014792" fill="hsl(0.0,100%,20%)">briansalomon</text>
<text x="1.664" y="0.362" font-size="0.018983" fill="hsl(180.0,100%,20%)">jlavrova</text>
<text x="0.795" y="0.546" font-size="0.023250" fill="hsl(180.0,100%,20%)">drott</text>
<text x="0.441" y="0.934" font-size="0.016044" fill="hsl(0.0,100%,20%)">scroggo</text>
<text x="0.897" y="0.909" font-size="0.018983" fill="hsl(0.0,100%,20%)">nscobie</text>
<text x="0.632" y="0.160" font-size="0.013423" fill="hsl(180.0,100%,20%)">sharaks</text>
<text x="0.613" y="0.909" font-size="0.012427" fill="hsl(180.0,100%,20%)">jmbetancourt</text>
<text x="1.080" y="0.956" font-size="0.003587" fill="hsl(180.0,100%,20%)">bwils</text>
<text x="0.283" y="0.495" font-size="0.008022" fill="hsl(0.0,100%,20%)">hitawala</text>
<text x="1.060" y="0.742" font-size="0.003587" fill="hsl(0.0,100%,20%)">djsollen</text>
<text x="0.712" y="0.426" font-size="0.006214" fill="hsl(0.0,100%,20%)">jcgregorio</text>
<text x="1.293" y="0.906" font-size="0.010147" fill="hsl(0.0,100%,20%)">cmumford</text>
<text x="0.671" y="0.178" font-size="0.005073" fill="hsl(180.0,100%,20%)">tdenniston</text>
<text x="1.192" y="0.555" font-size="0.007175" fill="hsl(0.0,100%,20%)">kschmi</text>
<text x="1.541" y="0.962" font-size="0.007175" fill="hsl(0.0,100%,20%)">lokokung</text>
<text x="0.719" y="0.949" font-size="0.014350" fill="hsl(0.0,100%,20%)">mike</text>
<text x="0.166" y="0.900" font-size="0.007175" fill="hsl(180.0,100%,20%)">nigeltao</text>
<text x="0.450" y="0.447" font-size="0.010147" fill="hsl(0.0,100%,20%)">penghuang</text>
<text x="0.376" y="0.186" font-size="0.010147" fill="hsl(180.0,100%,20%)">hcm</text>
</svg>
