<svg width="4000" height="2000" viewBox="-0.025 -0.025 2.05 1.05" xmlns="http://www.w3.org/2000/svg">
  <style>
    path {
      fill: none;
      stroke-linecap: round;
      stroke-opacity: 0.4;
    }

    text {
      text-anchor: middle;
      alignment-baseline: hanging;
    }
  </style>
  <g opacity="0.4">
<path d="M0.640 0.713 Q0.796 0.602 0.615 0.502" stroke="hsl(0.0,100%,35%)" stroke-width="0.00911"></path>
<path d="M0.640 0.713 Q0.807 0.766 0.949 0.697" stroke="hsl(0.0,100%,35%)" stroke-width="0.00239"></path>
<path d="M0.640 0.713 Q0.657 0.789 0.809 0.797" stroke="hsl(0.0,100%,35%)" stroke-width="0.00209"></path>
<path d="M0.640 0.713 Q1.081 1.045 1.827 0.903" stroke="hsl(0.0,100%,35%)" stroke-width="0.00179"></path>
<path d="M0.640 0.713 Q0.950 0.565 0.730 0.381" stroke="hsl(0.0,100%,35%)" stroke-width="0.00314"></path>
<path d="M0.640 0.713 Q0.841 0.819 1.092 0.744" stroke="hsl(0.0,100%,35%)" stroke-width="0.00015"></path>
<path d="M0.640 0.713 Q0.513 0.813 0.681 0.897" stroke="hsl(0.0,100%,35%)" stroke-width="0.00179"></path>
<path d="M0.640 0.713 Q1.089 0.949 1.650 0.782" stroke="hsl(0.0,100%,35%)" stroke-width="0.00060"></path>
<path d="M0.640 0.713 Q1.073 0.557 0.863 0.311" stroke="hsl(0.0,100%,35%)" stroke-width="0.00149"></path>
<path d="M0.640 0.713 Q1.094 0.715 1.198 0.494" stroke="hsl(0.0,100%,35%)" stroke-width="0.00015"></path>
<path d="M0.640 0.713 Q0.935 1.000 1.560 0.919" stroke="hsl(0.0,100%,35%)" stroke-width="0.00015"></path>
<path d="M0.640 0.713 Q0.777 0.878 1.130 0.848" stroke="hsl(0.0,100%,35%)" stroke-width="0.00015"></path>
<path d="M0.640 0.713 Q0.716 0.502 0.321 0.418" stroke="hsl(0.0,100%,35%)" stroke-width="0.00015"></path>
<path d="M0.615 0.502 Q0.769 0.465 0.730 0.381" stroke="hsl(0.0,100%,35%)" stroke-width="0.09241"></path>
<path d="M0.615 0.502 Q0.459 0.612 0.640 0.713" stroke="hsl(0.0,100%,35%)" stroke-width="0.02254"></path>
<path d="M0.615 0.502 Q0.626 0.666 0.949 0.697" stroke="hsl(0.0,100%,35%)" stroke-width="0.00642"></path>
<path d="M0.615 0.502 Q0.476 0.688 0.809 0.797" stroke="hsl(0.0,100%,35%)" stroke-width="0.00358"></path>
<path d="M0.615 0.502 Q0.920 0.755 1.481 0.662" stroke="hsl(0.0,100%,35%)" stroke-width="0.00403"></path>
<path d="M0.615 0.502 Q0.900 0.945 1.827 0.903" stroke="hsl(0.0,100%,35%)" stroke-width="0.00493"></path>
<path d="M0.615 0.502 Q0.762 0.829 1.432 0.828" stroke="hsl(0.0,100%,35%)" stroke-width="0.00090"></path>
<path d="M0.615 0.502 Q0.596 0.778 1.130 0.848" stroke="hsl(0.0,100%,35%)" stroke-width="0.00075"></path>
<path d="M0.615 0.502 Q0.892 0.456 0.863 0.311" stroke="hsl(0.0,100%,35%)" stroke-width="0.00254"></path>
<path d="M0.615 0.502 Q0.698 0.250 0.224 0.154" stroke="hsl(0.0,100%,35%)" stroke-width="0.00090"></path>
<path d="M0.615 0.502 Q0.754 0.899 1.560 0.919" stroke="hsl(0.0,100%,35%)" stroke-width="0.00015"></path>
<path d="M0.615 0.502 Q1.151 0.781 1.814 0.581" stroke="hsl(0.0,100%,35%)" stroke-width="0.00015"></path>
<path d="M0.615 0.502 Q0.908 0.849 1.650 0.782" stroke="hsl(0.0,100%,35%)" stroke-width="0.00194"></path>
<path d="M0.615 0.502 Q1.013 0.554 1.203 0.371" stroke="hsl(0.0,100%,35%)" stroke-width="0.00015"></path>
<path d="M0.615 0.502 Q0.897 0.777 1.496 0.700" stroke="hsl(0.0,100%,35%)" stroke-width="0.00030"></path>
<path d="M0.615 0.502 Q0.660 0.719 1.092 0.744" stroke="hsl(0.0,100%,35%)" stroke-width="0.00134"></path>
<path d="M0.615 0.502 Q0.819 0.684 1.219 0.625" stroke="hsl(0.0,100%,35%)" stroke-width="0.00941"></path>
<path d="M0.615 0.502 Q1.012 0.903 1.880 0.797" stroke="hsl(0.0,100%,35%)" stroke-width="0.00015"></path>
<path d="M0.615 0.502 Q1.096 0.807 1.795 0.639" stroke="hsl(0.0,100%,35%)" stroke-width="0.00030"></path>
<path d="M0.615 0.502 Q0.989 0.293 0.662 0.064" stroke="hsl(0.0,100%,35%)" stroke-width="0.00030"></path>
<path d="M0.615 0.502 Q0.332 0.713 0.681 0.897" stroke="hsl(0.0,100%,35%)" stroke-width="0.00239"></path>
<path d="M0.615 0.502 Q0.913 0.615 1.198 0.494" stroke="hsl(0.0,100%,35%)" stroke-width="0.00090"></path>
<path d="M0.615 0.502 Q0.535 0.401 0.321 0.418" stroke="hsl(0.0,100%,35%)" stroke-width="0.00523"></path>
<path d="M0.615 0.502 Q0.240 0.517 0.187 0.703" stroke="hsl(0.0,100%,35%)" stroke-width="0.00075"></path>
<path d="M0.615 0.502 Q1.097 0.870 1.921 0.716" stroke="hsl(0.0,100%,35%)" stroke-width="0.00149"></path>
<path d="M0.949 0.697 Q0.798 0.719 0.809 0.797" stroke="hsl(0.0,100%,35%)" stroke-width="0.00836"></path>
<path d="M0.949 0.697 Q0.782 0.643 0.640 0.713" stroke="hsl(0.0,100%,35%)" stroke-width="0.00045"></path>
<path d="M0.949 0.697 Q1.092 0.495 0.730 0.381" stroke="hsl(0.0,100%,35%)" stroke-width="0.00403"></path>
<path d="M0.949 0.697 Q0.654 0.743 0.681 0.897" stroke="hsl(0.0,100%,35%)" stroke-width="0.00537"></path>
<path d="M0.949 0.697 Q0.983 0.749 1.092 0.744" stroke="hsl(0.0,100%,35%)" stroke-width="0.00134"></path>
<path d="M0.949 0.697 Q1.142 0.715 1.219 0.625" stroke="hsl(0.0,100%,35%)" stroke-width="0.00851"></path>
<path d="M0.949 0.697 Q1.223 0.975 1.827 0.903" stroke="hsl(0.0,100%,35%)" stroke-width="0.00179"></path>
<path d="M0.949 0.697 Q1.214 0.487 0.863 0.311" stroke="hsl(0.0,100%,35%)" stroke-width="0.00164"></path>
<path d="M0.949 0.697 Q1.236 0.645 1.198 0.494" stroke="hsl(0.0,100%,35%)" stroke-width="0.00075"></path>
<path d="M0.949 0.697 Q0.937 0.533 0.615 0.502" stroke="hsl(0.0,100%,35%)" stroke-width="0.00090"></path>
<path d="M0.949 0.697 Q1.020 0.280 0.224 0.154" stroke="hsl(0.0,100%,35%)" stroke-width="0.00015"></path>
<path d="M0.949 0.697 Q1.419 0.901 1.921 0.716" stroke="hsl(0.0,100%,35%)" stroke-width="0.00015"></path>
<path d="M0.949 0.697 Q1.242 0.786 1.481 0.662" stroke="hsl(0.0,100%,35%)" stroke-width="0.00060"></path>
<path d="M0.949 0.697 Q1.077 0.930 1.560 0.919" stroke="hsl(0.0,100%,35%)" stroke-width="0.00015"></path>
<path d="M0.949 0.697 Q1.311 0.323 0.662 0.064" stroke="hsl(0.0,100%,35%)" stroke-width="0.00015"></path>
<path d="M0.949 0.697 Q1.231 0.880 1.650 0.782" stroke="hsl(0.0,100%,35%)" stroke-width="0.00015"></path>
<path d="M0.949 0.697 Q1.067 0.595 0.894 0.515" stroke="hsl(0.0,100%,35%)" stroke-width="0.00015"></path>
<path d="M0.809 0.797 Q0.993 0.828 1.092 0.744" stroke="hsl(0.0,100%,35%)" stroke-width="0.00090"></path>
<path d="M0.809 0.797 Q1.152 0.793 1.219 0.625" stroke="hsl(0.0,100%,35%)" stroke-width="0.00537"></path>
<path d="M0.809 0.797 Q1.102 0.573 0.730 0.381" stroke="hsl(0.0,100%,35%)" stroke-width="0.00179"></path>
<path d="M0.809 0.797 Q1.233 1.054 1.827 0.903" stroke="hsl(0.0,100%,35%)" stroke-width="0.00119"></path>
<path d="M0.809 0.797 Q1.230 0.886 1.496 0.700" stroke="hsl(0.0,100%,35%)" stroke-width="0.00030"></path>
<path d="M0.809 0.797 Q0.959 0.775 0.949 0.697" stroke="hsl(0.0,100%,35%)" stroke-width="0.00612"></path>
<path d="M0.809 0.797 Q0.948 0.611 0.615 0.502" stroke="hsl(0.0,100%,35%)" stroke-width="0.00134"></path>
<path d="M0.809 0.797 Q1.031 0.359 0.224 0.154" stroke="hsl(0.0,100%,35%)" stroke-width="0.00015"></path>
<path d="M0.809 0.797 Q1.252 0.864 1.481 0.662" stroke="hsl(0.0,100%,35%)" stroke-width="0.00448"></path>
<path d="M0.809 0.797 Q1.689 0.760 1.809 0.322" stroke="hsl(0.0,100%,35%)" stroke-width="0.00015"></path>
<path d="M0.809 0.797 Q1.225 0.565 0.863 0.311" stroke="hsl(0.0,100%,35%)" stroke-width="0.00209"></path>
<path d="M0.809 0.797 Q0.665 0.822 0.681 0.897" stroke="hsl(0.0,100%,35%)" stroke-width="0.00821"></path>
<path d="M0.809 0.797 Q1.246 0.724 1.198 0.494" stroke="hsl(0.0,100%,35%)" stroke-width="0.00015"></path>
<path d="M0.809 0.797 Q1.087 1.008 1.560 0.919" stroke="hsl(0.0,100%,35%)" stroke-width="0.00015"></path>
<path d="M0.809 0.797 Q0.792 0.721 0.640 0.713" stroke="hsl(0.0,100%,35%)" stroke-width="0.00030"></path>
<path d="M0.809 0.797 Q0.573 0.626 0.187 0.703" stroke="hsl(0.0,100%,35%)" stroke-width="0.00015"></path>
<path d="M0.809 0.797 Q1.241 0.958 1.650 0.782" stroke="hsl(0.0,100%,35%)" stroke-width="0.00030"></path>
<path d="M0.809 0.797 Q0.995 1.025 1.481 0.984" stroke="hsl(0.0,100%,35%)" stroke-width="0.00030"></path>
<path d="M1.827 0.903 Q1.835 0.807 1.650 0.782" stroke="hsl(180.0,100%,35%)" stroke-width="0.02045"></path>
<path d="M1.827 0.903 Q2.023 0.828 1.921 0.716" stroke="hsl(180.0,100%,35%)" stroke-width="0.00224"></path>
<path d="M1.827 0.903 Q1.696 0.422 0.730 0.381" stroke="hsl(180.0,100%,35%)" stroke-width="0.01239"></path>
<path d="M1.827 0.903 Q1.846 0.713 1.481 0.662" stroke="hsl(180.0,100%,35%)" stroke-width="0.00448"></path>
<path d="M1.827 0.903 Q1.541 0.460 0.615 0.502" stroke="hsl(180.0,100%,35%)" stroke-width="0.00746"></path>
<path d="M1.827 0.903 Q1.624 0.208 0.224 0.154" stroke="hsl(180.0,100%,35%)" stroke-width="0.00239"></path>
<path d="M1.827 0.903 Q1.680 0.857 1.560 0.919" stroke="hsl(180.0,100%,35%)" stroke-width="0.00657"></path>
<path d="M1.827 0.903 Q1.402 0.646 0.809 0.797" stroke="hsl(180.0,100%,35%)" stroke-width="0.00119"></path>
<path d="M1.827 0.903 Q1.553 0.624 0.949 0.697" stroke="hsl(180.0,100%,35%)" stroke-width="0.00702"></path>
<path d="M1.827 0.903 Q1.586 0.677 1.092 0.744" stroke="hsl(180.0,100%,35%)" stroke-width="0.00030"></path>
<path d="M1.827 0.903 Q1.386 0.570 0.640 0.713" stroke="hsl(180.0,100%,35%)" stroke-width="0.00105"></path>
<path d="M1.827 0.903 Q1.689 0.787 1.432 0.828" stroke="hsl(180.0,100%,35%)" stroke-width="0.00567"></path>
<path d="M1.827 0.903 Q1.940 0.512 1.203 0.371" stroke="hsl(180.0,100%,35%)" stroke-width="0.00060"></path>
<path d="M1.827 0.903 Q1.938 0.861 1.880 0.797" stroke="hsl(180.0,100%,35%)" stroke-width="0.00060"></path>
<path d="M1.827 0.903 Q1.818 0.414 0.863 0.311" stroke="hsl(180.0,100%,35%)" stroke-width="0.00314"></path>
<path d="M1.827 0.903 Q1.722 0.899 1.691 0.949" stroke="hsl(180.0,100%,35%)" stroke-width="0.00493"></path>
<path d="M1.827 0.903 Q1.523 0.736 1.130 0.848" stroke="hsl(180.0,100%,35%)" stroke-width="0.00119"></path>
<path d="M1.827 0.903 Q1.893 0.355 0.838 0.202" stroke="hsl(180.0,100%,35%)" stroke-width="0.00015"></path>
<path d="M1.827 0.903 Q2.078 0.739 1.814 0.581" stroke="hsl(180.0,100%,35%)" stroke-width="0.00149"></path>
<path d="M1.827 0.903 Q1.746 0.642 1.219 0.625" stroke="hsl(180.0,100%,35%)" stroke-width="0.00209"></path>
<path d="M1.827 0.903 Q1.258 0.671 0.681 0.897" stroke="hsl(180.0,100%,35%)" stroke-width="0.00284"></path>
<path d="M1.827 0.903 Q1.824 0.735 1.496 0.700" stroke="hsl(180.0,100%,35%)" stroke-width="0.00493"></path>
<path d="M1.827 0.903 Q1.167 0.475 0.187 0.703" stroke="hsl(180.0,100%,35%)" stroke-width="0.00060"></path>
<path d="M1.827 0.903 Q2.022 0.764 1.795 0.639" stroke="hsl(180.0,100%,35%)" stroke-width="0.00045"></path>
<path d="M1.827 0.903 Q1.915 0.251 0.662 0.064" stroke="hsl(180.0,100%,35%)" stroke-width="0.00358"></path>
<path d="M1.827 0.903 Q1.589 0.874 1.481 0.984" stroke="hsl(180.0,100%,35%)" stroke-width="0.00060"></path>
<path d="M1.827 0.903 Q2.283 0.609 1.809 0.322" stroke="hsl(180.0,100%,35%)" stroke-width="0.00045"></path>
<path d="M1.827 0.903 Q1.266 0.378 0.117 0.536" stroke="hsl(180.0,100%,35%)" stroke-width="0.00015"></path>
<path d="M1.827 0.903 Q1.922 0.807 1.756 0.740" stroke="hsl(180.0,100%,35%)" stroke-width="0.00015"></path>
<path d="M0.730 0.381 Q0.861 0.861 1.827 0.903" stroke="hsl(0.0,100%,35%)" stroke-width="0.00269"></path>
<path d="M0.730 0.381 Q0.575 0.419 0.615 0.502" stroke="hsl(0.0,100%,35%)" stroke-width="0.00941"></path>
<path d="M0.730 0.381 Q0.779 0.601 1.219 0.625" stroke="hsl(0.0,100%,35%)" stroke-width="0.00179"></path>
<path d="M0.730 0.381 Q0.436 0.605 0.809 0.797" stroke="hsl(0.0,100%,35%)" stroke-width="0.00090"></path>
<path d="M0.730 0.381 Q0.869 0.766 1.650 0.782" stroke="hsl(0.0,100%,35%)" stroke-width="0.00239"></path>
<path d="M0.730 0.381 Q0.587 0.583 0.949 0.697" stroke="hsl(0.0,100%,35%)" stroke-width="0.00433"></path>
<path d="M0.730 0.381 Q0.723 0.745 1.432 0.828" stroke="hsl(0.0,100%,35%)" stroke-width="0.00015"></path>
<path d="M0.730 0.381 Q0.880 0.672 1.481 0.662" stroke="hsl(0.0,100%,35%)" stroke-width="0.00403"></path>
<path d="M0.730 0.381 Q0.852 0.373 0.863 0.311" stroke="hsl(0.0,100%,35%)" stroke-width="0.00314"></path>
<path d="M0.730 0.381 Q0.927 0.313 0.838 0.202" stroke="hsl(0.0,100%,35%)" stroke-width="0.00030"></path>
<path d="M0.730 0.381 Q0.292 0.629 0.681 0.897" stroke="hsl(0.0,100%,35%)" stroke-width="0.00119"></path>
<path d="M0.730 0.381 Q0.658 0.166 0.224 0.154" stroke="hsl(0.0,100%,35%)" stroke-width="0.00015"></path>
<path d="M0.730 0.381 Q0.557 0.694 1.130 0.848" stroke="hsl(0.0,100%,35%)" stroke-width="0.00030"></path>
<path d="M0.730 0.381 Q1.057 0.787 1.921 0.716" stroke="hsl(0.0,100%,35%)" stroke-width="0.00030"></path>
<path d="M0.730 0.381 Q0.419 0.529 0.640 0.713" stroke="hsl(0.0,100%,35%)" stroke-width="0.00075"></path>
<path d="M0.730 0.381 Q0.858 0.694 1.496 0.700" stroke="hsl(0.0,100%,35%)" stroke-width="0.00075"></path>
<path d="M0.730 0.381 Q0.949 0.209 0.662 0.064" stroke="hsl(0.0,100%,35%)" stroke-width="0.00015"></path>
<path d="M0.730 0.381 Q0.496 0.318 0.321 0.418" stroke="hsl(0.0,100%,35%)" stroke-width="0.00015"></path>
<path d="M0.730 0.381 Q0.299 0.336 0.117 0.536" stroke="hsl(0.0,100%,35%)" stroke-width="0.00015"></path>
<path d="M1.092 0.744 Q0.908 0.714 0.809 0.797" stroke="hsl(0.0,100%,35%)" stroke-width="0.00090"></path>
<path d="M1.092 0.744 Q1.047 0.528 0.615 0.502" stroke="hsl(0.0,100%,35%)" stroke-width="0.00105"></path>
<path d="M1.092 0.744 Q1.446 0.580 1.203 0.371" stroke="hsl(0.0,100%,35%)" stroke-width="0.00015"></path>
<path d="M1.092 0.744 Q1.252 0.710 1.219 0.625" stroke="hsl(0.0,100%,35%)" stroke-width="0.00075"></path>
<path d="M1.092 0.744 Q0.764 0.739 0.681 0.897" stroke="hsl(0.0,100%,35%)" stroke-width="0.00179"></path>
<path d="M1.092 0.744 Q1.187 0.925 1.560 0.919" stroke="hsl(0.0,100%,35%)" stroke-width="0.00015"></path>
<path d="M1.092 0.744 Q1.059 0.692 0.949 0.697" stroke="hsl(0.0,100%,35%)" stroke-width="0.00164"></path>
<path d="M1.092 0.744 Q1.202 0.490 0.730 0.381" stroke="hsl(0.0,100%,35%)" stroke-width="0.00015"></path>
<path d="M1.092 0.744 Q1.333 0.970 1.827 0.903" stroke="hsl(0.0,100%,35%)" stroke-width="0.00045"></path>
<path d="M1.092 0.744 Q1.421 0.318 0.662 0.064" stroke="hsl(0.0,100%,35%)" stroke-width="0.00015"></path>
<path d="M0.681 0.897 Q1.168 0.869 1.219 0.625" stroke="hsl(0.0,100%,35%)" stroke-width="0.00284"></path>
<path d="M0.681 0.897 Q0.825 0.873 0.809 0.797" stroke="hsl(0.0,100%,35%)" stroke-width="0.00523"></path>
<path d="M0.681 0.897 Q1.009 0.903 1.092 0.744" stroke="hsl(0.0,100%,35%)" stroke-width="0.00269"></path>
<path d="M0.681 0.897 Q1.262 0.799 1.198 0.494" stroke="hsl(0.0,100%,35%)" stroke-width="0.00045"></path>
<path d="M0.681 0.897 Q1.241 0.641 0.863 0.311" stroke="hsl(0.0,100%,35%)" stroke-width="0.00239"></path>
<path d="M0.681 0.897 Q1.118 0.649 0.730 0.381" stroke="hsl(0.0,100%,35%)" stroke-width="0.00045"></path>
<path d="M0.681 0.897 Q0.975 0.851 0.949 0.697" stroke="hsl(0.0,100%,35%)" stroke-width="0.00343"></path>
<path d="M0.681 0.897 Q0.964 0.686 0.615 0.502" stroke="hsl(0.0,100%,35%)" stroke-width="0.00015"></path>
<path d="M0.681 0.897 Q1.269 0.940 1.481 0.662" stroke="hsl(0.0,100%,35%)" stroke-width="0.00015"></path>
<path d="M0.681 0.897 Q1.246 0.962 1.496 0.700" stroke="hsl(0.0,100%,35%)" stroke-width="0.00015"></path>
<path d="M0.681 0.897 Q1.250 1.129 1.827 0.903" stroke="hsl(0.0,100%,35%)" stroke-width="0.00075"></path>
<path d="M0.681 0.897 Q1.112 1.013 1.432 0.828" stroke="hsl(0.0,100%,35%)" stroke-width="0.00030"></path>
<path d="M0.681 0.897 Q0.589 0.701 0.187 0.703" stroke="hsl(0.0,100%,35%)" stroke-width="0.00015"></path>
<path d="M0.681 0.897 Q1.103 1.084 1.560 0.919" stroke="hsl(0.0,100%,35%)" stroke-width="0.00015"></path>
<path d="M0.681 0.897 Q1.446 1.055 1.921 0.716" stroke="hsl(0.0,100%,35%)" stroke-width="0.00015"></path>
<path d="M1.650 0.782 Q1.511 0.397 0.730 0.381" stroke="hsl(180.0,100%,35%)" stroke-width="0.00269"></path>
<path d="M1.650 0.782 Q1.473 0.862 1.590 0.966" stroke="hsl(180.0,100%,35%)" stroke-width="0.00030"></path>
<path d="M1.650 0.782 Q1.661 0.688 1.481 0.662" stroke="hsl(180.0,100%,35%)" stroke-width="0.00881"></path>
<path d="M1.650 0.782 Q1.357 0.435 0.615 0.502" stroke="hsl(180.0,100%,35%)" stroke-width="0.00045"></path>
<path d="M1.650 0.782 Q1.338 0.711 1.130 0.848" stroke="hsl(180.0,100%,35%)" stroke-width="0.00015"></path>
<path d="M1.650 0.782 Q1.642 0.878 1.827 0.903" stroke="hsl(180.0,100%,35%)" stroke-width="0.00269"></path>
<path d="M1.650 0.782 Q1.634 0.389 0.863 0.311" stroke="hsl(180.0,100%,35%)" stroke-width="0.00015"></path>
<path d="M1.650 0.782 Q1.440 0.183 0.224 0.154" stroke="hsl(180.0,100%,35%)" stroke-width="0.00149"></path>
<path d="M1.650 0.782 Q1.496 0.832 1.560 0.919" stroke="hsl(180.0,100%,35%)" stroke-width="0.00030"></path>
<path d="M1.650 0.782 Q1.074 0.646 0.681 0.897" stroke="hsl(180.0,100%,35%)" stroke-width="0.00045"></path>
<path d="M1.650 0.782 Q1.561 0.617 1.219 0.625" stroke="hsl(180.0,100%,35%)" stroke-width="0.00030"></path>
<path d="M1.650 0.782 Q1.368 0.599 0.949 0.697" stroke="hsl(180.0,100%,35%)" stroke-width="0.00015"></path>
<path d="M1.650 0.782 Q0.982 0.450 0.187 0.703" stroke="hsl(180.0,100%,35%)" stroke-width="0.00075"></path>
<path d="M1.650 0.782 Q1.504 0.762 1.432 0.828" stroke="hsl(180.0,100%,35%)" stroke-width="0.00015"></path>
<path d="M1.650 0.782 Q1.218 0.621 0.809 0.797" stroke="hsl(180.0,100%,35%)" stroke-width="0.00015"></path>
<path d="M0.863 0.311 Q0.669 0.105 0.224 0.154" stroke="hsl(0.0,100%,35%)" stroke-width="0.00179"></path>
<path d="M0.863 0.311 Q0.741 0.319 0.730 0.381" stroke="hsl(0.0,100%,35%)" stroke-width="0.00776"></path>
<path d="M0.863 0.311 Q0.586 0.357 0.615 0.502" stroke="hsl(0.0,100%,35%)" stroke-width="0.00119"></path>
<path d="M0.863 0.311 Q0.598 0.521 0.949 0.697" stroke="hsl(0.0,100%,35%)" stroke-width="0.00224"></path>
<path d="M0.863 0.311 Q0.891 0.610 1.481 0.662" stroke="hsl(0.0,100%,35%)" stroke-width="0.00149"></path>
<path d="M0.863 0.311 Q0.791 0.539 1.219 0.625" stroke="hsl(0.0,100%,35%)" stroke-width="0.00373"></path>
<path d="M0.863 0.311 Q1.068 0.725 1.921 0.716" stroke="hsl(0.0,100%,35%)" stroke-width="0.00045"></path>
<path d="M0.863 0.311 Q0.303 0.568 0.681 0.897" stroke="hsl(0.0,100%,35%)" stroke-width="0.00523"></path>
<path d="M0.863 0.311 Q0.447 0.543 0.809 0.797" stroke="hsl(0.0,100%,35%)" stroke-width="0.00134"></path>
<path d="M0.863 0.311 Q0.872 0.800 1.827 0.903" stroke="hsl(0.0,100%,35%)" stroke-width="0.00030"></path>
<path d="M0.863 0.311 Q0.431 0.467 0.640 0.713" stroke="hsl(0.0,100%,35%)" stroke-width="0.00030"></path>
<path d="M0.863 0.311 Q0.880 0.704 1.650 0.782" stroke="hsl(0.0,100%,35%)" stroke-width="0.00015"></path>
<path d="M0.863 0.311 Q0.869 0.632 1.496 0.700" stroke="hsl(0.0,100%,35%)" stroke-width="0.00015"></path>
<path d="M1.198 0.494 Q0.761 0.568 0.809 0.797" stroke="hsl(0.0,100%,35%)" stroke-width="0.00075"></path>
<path d="M1.198 0.494 Q1.054 0.344 0.730 0.381" stroke="hsl(0.0,100%,35%)" stroke-width="0.00030"></path>
<path d="M1.198 0.494 Q0.911 0.546 0.949 0.697" stroke="hsl(0.0,100%,35%)" stroke-width="0.00134"></path>
<path d="M1.198 0.494 Q1.186 0.824 1.827 0.903" stroke="hsl(0.0,100%,35%)" stroke-width="0.00105"></path>
<path d="M1.198 0.494 Q1.104 0.563 1.219 0.625" stroke="hsl(0.0,100%,35%)" stroke-width="0.00239"></path>
<path d="M1.198 0.494 Q0.617 0.592 0.681 0.897" stroke="hsl(0.0,100%,35%)" stroke-width="0.00149"></path>
<path d="M1.198 0.494 Q1.048 0.708 1.432 0.828" stroke="hsl(0.0,100%,35%)" stroke-width="0.00015"></path>
<path d="M1.198 0.494 Q0.900 0.381 0.615 0.502" stroke="hsl(0.0,100%,35%)" stroke-width="0.00075"></path>
<path d="M1.560 0.919 Q1.568 0.848 1.432 0.828" stroke="hsl(180.0,100%,35%)" stroke-width="0.00060"></path>
<path d="M1.560 0.919 Q1.706 0.964 1.827 0.903" stroke="hsl(180.0,100%,35%)" stroke-width="0.00060"></path>
<path d="M1.560 0.919 Q1.703 0.797 1.496 0.700" stroke="hsl(180.0,100%,35%)" stroke-width="0.00060"></path>
<path d="M1.560 0.919 Q1.725 0.775 1.481 0.662" stroke="hsl(180.0,100%,35%)" stroke-width="0.00015"></path>
<path d="M1.560 0.919 Q1.697 0.476 0.863 0.311" stroke="hsl(180.0,100%,35%)" stroke-width="0.00015"></path>
<path d="M1.560 0.919 Q1.625 0.704 1.219 0.625" stroke="hsl(180.0,100%,35%)" stroke-width="0.00015"></path>
<path d="M1.560 0.919 Q1.432 0.686 0.949 0.697" stroke="hsl(180.0,100%,35%)" stroke-width="0.00015"></path>
<path d="M1.130 0.848 Q1.443 0.919 1.650 0.782" stroke="hsl(180.0,100%,35%)" stroke-width="0.00478"></path>
<path d="M1.130 0.848 Q1.434 1.015 1.827 0.903" stroke="hsl(180.0,100%,35%)" stroke-width="0.00075"></path>
<path d="M1.130 0.848 Q1.303 0.534 0.730 0.381" stroke="hsl(180.0,100%,35%)" stroke-width="0.00060"></path>
<path d="M1.130 0.848 Q1.353 0.754 1.219 0.625" stroke="hsl(180.0,100%,35%)" stroke-width="0.00030"></path>
<path d="M1.130 0.848 Q1.010 0.758 0.809 0.797" stroke="hsl(180.0,100%,35%)" stroke-width="0.00015"></path>
<path d="M1.130 0.848 Q1.454 0.825 1.481 0.662" stroke="hsl(180.0,100%,35%)" stroke-width="0.00015"></path>
<path d="M0.321 0.418 Q0.401 0.519 0.615 0.502" stroke="hsl(0.0,100%,35%)" stroke-width="0.00448"></path>
<path d="M0.321 0.418 Q0.245 0.629 0.640 0.713" stroke="hsl(0.0,100%,35%)" stroke-width="0.00030"></path>
<path d="M0.321 0.418 Q0.555 0.481 0.730 0.381" stroke="hsl(0.0,100%,35%)" stroke-width="0.00343"></path>
<path d="M0.321 0.418 Q0.678 0.473 0.863 0.311" stroke="hsl(0.0,100%,35%)" stroke-width="0.00030"></path>
<path d="M1.496 0.700 Q1.368 0.387 0.730 0.381" stroke="hsl(180.0,100%,35%)" stroke-width="0.00030"></path>
<path d="M1.496 0.700 Q1.361 0.751 1.432 0.828" stroke="hsl(180.0,100%,35%)" stroke-width="0.00105"></path>
<path d="M1.496 0.700 Q1.499 0.868 1.827 0.903" stroke="hsl(180.0,100%,35%)" stroke-width="0.00060"></path>
<path d="M1.496 0.700 Q1.353 0.822 1.560 0.919" stroke="hsl(180.0,100%,35%)" stroke-width="0.00045"></path>
<path d="M1.496 0.700 Q1.955 0.574 1.809 0.322" stroke="hsl(180.0,100%,35%)" stroke-width="0.00015"></path>
<path d="M1.496 0.700 Q0.839 0.440 0.187 0.703" stroke="hsl(180.0,100%,35%)" stroke-width="0.00015"></path>
<path d="M1.432 0.828 Q1.465 0.941 1.691 0.949" stroke="hsl(180.0,100%,35%)" stroke-width="0.00015"></path>
<path d="M1.432 0.828 Q1.566 0.777 1.496 0.700" stroke="hsl(180.0,100%,35%)" stroke-width="0.00149"></path>
<path d="M1.432 0.828 Q1.423 0.899 1.560 0.919" stroke="hsl(180.0,100%,35%)" stroke-width="0.00194"></path>
<path d="M1.432 0.828 Q1.001 0.713 0.681 0.897" stroke="hsl(180.0,100%,35%)" stroke-width="0.00075"></path>
<path d="M1.432 0.828 Q1.570 0.945 1.827 0.903" stroke="hsl(180.0,100%,35%)" stroke-width="0.00060"></path>
<path d="M1.432 0.828 Q1.284 0.502 0.615 0.502" stroke="hsl(180.0,100%,35%)" stroke-width="0.00030"></path>
<path d="M1.432 0.828 Q1.439 0.464 0.730 0.381" stroke="hsl(180.0,100%,35%)" stroke-width="0.00015"></path>
<path d="M1.809 0.322 Q1.572 0.305 1.488 0.417" stroke="hsl(180.0,100%,35%)" stroke-width="0.00015"></path>
<path d="M1.809 0.322 Q1.350 0.448 1.496 0.700" stroke="hsl(180.0,100%,35%)" stroke-width="0.00015"></path>
<path d="M1.809 0.322 Q1.353 0.616 1.827 0.903" stroke="hsl(180.0,100%,35%)" stroke-width="0.00015"></path>
<path d="M0.187 0.703 Q0.279 0.899 0.681 0.897" stroke="hsl(180.0,100%,35%)" stroke-width="0.00015"></path>
<path d="M0.187 0.703 Q1.043 1.056 1.921 0.716" stroke="hsl(180.0,100%,35%)" stroke-width="0.00105"></path>
<path d="M0.187 0.703 Q0.716 0.650 0.730 0.381" stroke="hsl(180.0,100%,35%)" stroke-width="0.00015"></path>
<path d="M0.187 0.703 Q0.562 0.688 0.615 0.502" stroke="hsl(180.0,100%,35%)" stroke-width="0.00015"></path>
<path d="M1.219 0.625 Q1.015 0.442 0.615 0.502" stroke="hsl(0.0,100%,35%)" stroke-width="0.00194"></path>
<path d="M1.219 0.625 Q1.313 0.555 1.198 0.494" stroke="hsl(0.0,100%,35%)" stroke-width="0.00358"></path>
<path d="M1.219 0.625 Q1.169 0.405 0.730 0.381" stroke="hsl(0.0,100%,35%)" stroke-width="0.00224"></path>
<path d="M1.219 0.625 Q1.297 0.718 1.496 0.700" stroke="hsl(0.0,100%,35%)" stroke-width="0.00179"></path>
<path d="M1.219 0.625 Q1.026 0.607 0.949 0.697" stroke="hsl(0.0,100%,35%)" stroke-width="0.01493"></path>
<path d="M1.219 0.625 Q1.292 0.397 0.863 0.311" stroke="hsl(0.0,100%,35%)" stroke-width="0.00045"></path>
<path d="M1.219 0.625 Q1.098 0.190 0.224 0.154" stroke="hsl(0.0,100%,35%)" stroke-width="0.00030"></path>
<path d="M1.219 0.625 Q1.300 0.885 1.827 0.903" stroke="hsl(0.0,100%,35%)" stroke-width="0.00060"></path>
<path d="M1.219 0.625 Q1.320 0.696 1.481 0.662" stroke="hsl(0.0,100%,35%)" stroke-width="0.00090"></path>
<path d="M1.219 0.625 Q0.732 0.653 0.681 0.897" stroke="hsl(0.0,100%,35%)" stroke-width="0.01194"></path>
<path d="M1.219 0.625 Q1.412 0.843 1.880 0.797" stroke="hsl(0.0,100%,35%)" stroke-width="0.00015"></path>
<path d="M1.219 0.625 Q0.876 0.629 0.809 0.797" stroke="hsl(0.0,100%,35%)" stroke-width="0.00508"></path>
<path d="M1.219 0.625 Q1.060 0.659 1.092 0.744" stroke="hsl(0.0,100%,35%)" stroke-width="0.00015"></path>
<path d="M1.219 0.625 Q1.154 0.840 1.560 0.919" stroke="hsl(0.0,100%,35%)" stroke-width="0.00030"></path>
<path d="M1.481 0.662 Q1.380 0.591 1.219 0.625" stroke="hsl(0.0,100%,35%)" stroke-width="0.02672"></path>
<path d="M1.481 0.662 Q1.037 0.595 0.809 0.797" stroke="hsl(0.0,100%,35%)" stroke-width="0.00418"></path>
<path d="M1.481 0.662 Q1.330 0.371 0.730 0.381" stroke="hsl(0.0,100%,35%)" stroke-width="0.00761"></path>
<path d="M1.481 0.662 Q1.461 0.852 1.827 0.903" stroke="hsl(0.0,100%,35%)" stroke-width="0.00164"></path>
<path d="M1.481 0.662 Q1.453 0.363 0.863 0.311" stroke="hsl(0.0,100%,35%)" stroke-width="0.00060"></path>
<path d="M1.481 0.662 Q1.176 0.409 0.615 0.502" stroke="hsl(0.0,100%,35%)" stroke-width="0.01075"></path>
<path d="M1.481 0.662 Q1.470 0.756 1.650 0.782" stroke="hsl(0.0,100%,35%)" stroke-width="0.00448"></path>
<path d="M1.481 0.662 Q1.458 0.684 1.496 0.700" stroke="hsl(0.0,100%,35%)" stroke-width="0.00030"></path>
<path d="M1.481 0.662 Q0.893 0.620 0.681 0.897" stroke="hsl(0.0,100%,35%)" stroke-width="0.00134"></path>
<path d="M1.481 0.662 Q1.187 0.573 0.949 0.697" stroke="hsl(0.0,100%,35%)" stroke-width="0.00075"></path>
<path d="M1.481 0.662 Q1.259 0.157 0.224 0.154" stroke="hsl(0.0,100%,35%)" stroke-width="0.00030"></path>
<path d="M1.481 0.662 Q1.020 0.519 0.640 0.713" stroke="hsl(0.0,100%,35%)" stroke-width="0.00015"></path>
<path d="M0.838 0.202 Q0.641 0.270 0.730 0.381" stroke="hsl(0.0,100%,35%)" stroke-width="0.00582"></path>
<path d="M0.838 0.202 Q0.922 0.291 1.115 0.269" stroke="hsl(0.0,100%,35%)" stroke-width="0.00015"></path>
<path d="M0.838 0.202 Q0.486 0.308 0.615 0.502" stroke="hsl(0.0,100%,35%)" stroke-width="0.00015"></path>
<path d="M0.838 0.202 Q0.968 0.676 1.921 0.716" stroke="hsl(0.0,100%,35%)" stroke-width="0.00015"></path>
<path d="M0.838 0.202 Q0.791 0.561 1.481 0.662" stroke="hsl(0.0,100%,35%)" stroke-width="0.00015"></path>
<path d="M0.224 0.154 Q0.515 0.197 0.662 0.064" stroke="hsl(180.0,100%,35%)" stroke-width="0.00403"></path>
<path d="M0.224 0.154 Q0.434 0.753 1.650 0.782" stroke="hsl(180.0,100%,35%)" stroke-width="0.00269"></path>
<path d="M0.224 0.154 Q0.418 0.361 0.863 0.311" stroke="hsl(180.0,100%,35%)" stroke-width="0.00090"></path>
<path d="M0.224 0.154 Q0.426 0.849 1.827 0.903" stroke="hsl(180.0,100%,35%)" stroke-width="0.00105"></path>
<path d="M0.224 0.154 Q0.288 0.733 1.432 0.828" stroke="hsl(180.0,100%,35%)" stroke-width="0.00015"></path>
<path d="M0.224 0.154 Q0.539 0.458 1.203 0.371" stroke="hsl(180.0,100%,35%)" stroke-width="0.00015"></path>
<path d="M0.224 0.154 Q0.122 0.682 1.130 0.848" stroke="hsl(180.0,100%,35%)" stroke-width="0.00030"></path>
<path d="M0.224 0.154 Q0.445 0.660 1.481 0.662" stroke="hsl(180.0,100%,35%)" stroke-width="0.00045"></path>
<path d="M0.224 0.154 Q0.345 0.588 1.219 0.625" stroke="hsl(180.0,100%,35%)" stroke-width="0.00015"></path>
<path d="M0.224 0.154 Q0.152 0.570 0.949 0.697" stroke="hsl(180.0,100%,35%)" stroke-width="0.00015"></path>
<path d="M0.224 0.154 Q0.439 0.519 1.198 0.494" stroke="hsl(180.0,100%,35%)" stroke-width="0.00015"></path>
<path d="M0.224 0.154 Q0.295 0.369 0.730 0.381" stroke="hsl(180.0,100%,35%)" stroke-width="0.00090"></path>
<path d="M0.224 0.154 Q0.141 0.406 0.615 0.502" stroke="hsl(180.0,100%,35%)" stroke-width="0.00015"></path>
<path d="M0.224 0.154 Q-0.142 0.617 0.681 0.897" stroke="hsl(180.0,100%,35%)" stroke-width="0.00015"></path>
<path d="M1.921 0.716 Q1.643 0.530 1.219 0.625" stroke="hsl(180.0,100%,35%)" stroke-width="0.00015"></path>
<path d="M1.921 0.716 Q1.064 0.363 0.187 0.703" stroke="hsl(180.0,100%,35%)" stroke-width="0.00060"></path>
<path d="M1.921 0.716 Q1.156 0.559 0.681 0.897" stroke="hsl(180.0,100%,35%)" stroke-width="0.00045"></path>
<path d="M1.921 0.716 Q1.578 0.745 1.560 0.919" stroke="hsl(180.0,100%,35%)" stroke-width="0.00045"></path>
<path d="M1.921 0.716 Q1.593 0.310 0.730 0.381" stroke="hsl(180.0,100%,35%)" stroke-width="0.00030"></path>
<path d="M1.921 0.716 Q1.744 0.601 1.481 0.662" stroke="hsl(180.0,100%,35%)" stroke-width="0.00015"></path>
<path d="M1.921 0.716 Q1.439 0.348 0.615 0.502" stroke="hsl(180.0,100%,35%)" stroke-width="0.00015"></path>
<path d="M1.921 0.716 Q1.716 0.302 0.863 0.311" stroke="hsl(180.0,100%,35%)" stroke-width="0.00015"></path>
<path d="M0.662 0.064 Q0.574 0.717 1.827 0.903" stroke="hsl(180.0,100%,35%)" stroke-width="0.00149"></path>
<path d="M0.662 0.064 Q0.371 0.022 0.224 0.154" stroke="hsl(180.0,100%,35%)" stroke-width="0.00254"></path>
<path d="M0.662 0.064 Q0.825 0.553 1.814 0.581" stroke="hsl(180.0,100%,35%)" stroke-width="0.00015"></path>
<path d="M0.662 0.064 Q0.770 0.642 1.921 0.716" stroke="hsl(180.0,100%,35%)" stroke-width="0.00090"></path>
<path d="M0.662 0.064 Q-0.086 0.289 0.187 0.703" stroke="hsl(180.0,100%,35%)" stroke-width="0.00015"></path>
<path d="M0.662 0.064 Q0.582 0.621 1.650 0.782" stroke="hsl(180.0,100%,35%)" stroke-width="0.00015"></path>
<path d="M0.662 0.064 Q0.288 0.274 0.615 0.502" stroke="hsl(180.0,100%,35%)" stroke-width="0.00030"></path>
<path d="M0.662 0.064 Q0.443 0.236 0.730 0.381" stroke="hsl(180.0,100%,35%)" stroke-width="0.00030"></path>
<path d="M0.662 0.064 Q0.565 0.228 0.863 0.311" stroke="hsl(180.0,100%,35%)" stroke-width="0.00030"></path>
<path d="M0.117 0.536 Q0.679 1.061 1.827 0.903" stroke="hsl(180.0,100%,35%)" stroke-width="0.00060"></path>
<path d="M0.117 0.536 Q0.019 0.633 0.187 0.703" stroke="hsl(180.0,100%,35%)" stroke-width="0.00075"></path>
<path d="M0.117 0.536 Q0.548 0.581 0.730 0.381" stroke="hsl(180.0,100%,35%)" stroke-width="0.00015"></path>
<path d="M0.117 0.536 Q0.875 0.987 1.921 0.716" stroke="hsl(180.0,100%,35%)" stroke-width="0.00030"></path>
<path d="M1.590 0.966 Q1.767 0.886 1.650 0.782" stroke="hsl(180.0,100%,35%)" stroke-width="0.00358"></path>
<path d="M1.590 0.966 Q1.759 0.982 1.827 0.903" stroke="hsl(180.0,100%,35%)" stroke-width="0.00045"></path>
<path d="M1.590 0.966 Q1.556 0.287 0.224 0.154" stroke="hsl(180.0,100%,35%)" stroke-width="0.00090"></path>
<path d="M1.590 0.966 Q1.750 0.493 0.863 0.311" stroke="hsl(180.0,100%,35%)" stroke-width="0.00030"></path>
<path d="M1.590 0.966 Q1.678 0.721 1.219 0.625" stroke="hsl(180.0,100%,35%)" stroke-width="0.00015"></path>
<path d="M1.115 0.269 Q0.833 0.248 0.730 0.381" stroke="hsl(0.0,100%,35%)" stroke-width="0.00030"></path>
<path d="M1.115 0.269 Q1.030 0.180 0.838 0.202" stroke="hsl(0.0,100%,35%)" stroke-width="0.00015"></path>
<path d="M1.814 0.581 Q1.563 0.744 1.827 0.903" stroke="hsl(180.0,100%,35%)" stroke-width="0.00896"></path>
<path d="M1.814 0.581 Q1.651 0.092 0.662 0.064" stroke="hsl(180.0,100%,35%)" stroke-width="0.00030"></path>
<path d="M1.814 0.581 Q1.277 0.302 0.615 0.502" stroke="hsl(180.0,100%,35%)" stroke-width="0.00030"></path>
<path d="M1.814 0.581 Q1.481 0.484 1.219 0.625" stroke="hsl(180.0,100%,35%)" stroke-width="0.00015"></path>
<path d="M1.814 0.581 Q1.288 0.466 0.949 0.697" stroke="hsl(180.0,100%,35%)" stroke-width="0.00015"></path>
<path d="M1.814 0.581 Q1.138 0.488 0.809 0.797" stroke="hsl(180.0,100%,35%)" stroke-width="0.00015"></path>
<path d="M1.814 0.581 Q0.994 0.512 0.681 0.897" stroke="hsl(180.0,100%,35%)" stroke-width="0.00015"></path>
<path d="M1.814 0.581 Q1.416 0.699 1.560 0.919" stroke="hsl(180.0,100%,35%)" stroke-width="0.00030"></path>
<path d="M1.814 0.581 Q1.559 0.577 1.496 0.700" stroke="hsl(180.0,100%,35%)" stroke-width="0.00015"></path>
<path d="M1.344 0.963 Q1.642 0.934 1.650 0.782" stroke="hsl(180.0,100%,35%)" stroke-width="0.00015"></path>
<path d="M1.344 0.963 Q1.065 0.798 0.681 0.897" stroke="hsl(180.0,100%,35%)" stroke-width="0.00015"></path>
<path d="M1.344 0.963 Q1.634 1.030 1.827 0.903" stroke="hsl(180.0,100%,35%)" stroke-width="0.00015"></path>
<path d="M1.344 0.963 Q1.431 0.335 0.224 0.154" stroke="hsl(180.0,100%,35%)" stroke-width="0.00015"></path>
<path d="M1.481 0.984 Q1.727 0.917 1.650 0.782" stroke="hsl(180.0,100%,35%)" stroke-width="0.00045"></path>
<path d="M1.481 0.984 Q1.719 1.013 1.827 0.903" stroke="hsl(180.0,100%,35%)" stroke-width="0.00045"></path>
<path d="M1.481 0.984 Q1.294 0.756 0.809 0.797" stroke="hsl(180.0,100%,35%)" stroke-width="0.00045"></path>
<path d="M1.481 0.984 Q1.150 0.781 0.681 0.897" stroke="hsl(180.0,100%,35%)" stroke-width="0.00015"></path>
<path d="M1.481 0.984 Q2.175 0.719 1.809 0.322" stroke="hsl(180.0,100%,35%)" stroke-width="0.00015"></path>
<path d="M1.481 0.984 Q1.572 0.967 1.560 0.919" stroke="hsl(180.0,100%,35%)" stroke-width="0.00030"></path>
<path d="M1.203 0.371 Q0.958 0.281 0.730 0.381" stroke="hsl(180.0,100%,35%)" stroke-width="0.00060"></path>
<path d="M1.203 0.371 Q1.240 0.303 1.115 0.269" stroke="hsl(180.0,100%,35%)" stroke-width="0.00015"></path>
<path d="M1.203 0.371 Q0.849 0.536 1.092 0.744" stroke="hsl(180.0,100%,35%)" stroke-width="0.00015"></path>
<path d="M1.203 0.371 Q1.286 0.687 1.921 0.716" stroke="hsl(180.0,100%,35%)" stroke-width="0.00030"></path>
<path d="M1.488 0.417 Q1.260 0.239 0.863 0.311" stroke="hsl(180.0,100%,35%)" stroke-width="0.00015"></path>
<path d="M1.488 0.417 Q1.265 0.560 1.496 0.700" stroke="hsl(180.0,100%,35%)" stroke-width="0.00015"></path>
<path d="M1.488 0.417 Q1.724 0.434 1.809 0.322" stroke="hsl(180.0,100%,35%)" stroke-width="0.00060"></path>
<path d="M1.488 0.417 Q1.268 0.728 1.827 0.903" stroke="hsl(180.0,100%,35%)" stroke-width="0.00015"></path>
<path d="M0.827 0.216 Q0.646 0.279 0.730 0.381" stroke="hsl(0.0,100%,35%)" stroke-width="0.00045"></path>
<path d="M0.827 0.216 Q0.785 0.664 1.650 0.782" stroke="hsl(0.0,100%,35%)" stroke-width="0.00015"></path>
<path d="M0.827 0.216 Q0.777 0.759 1.827 0.903" stroke="hsl(0.0,100%,35%)" stroke-width="0.00015"></path>
<path d="M1.691 0.949 Q1.658 0.837 1.432 0.828" stroke="hsl(180.0,100%,35%)" stroke-width="0.00119"></path>
<path d="M1.691 0.949 Q1.793 0.786 1.496 0.700" stroke="hsl(180.0,100%,35%)" stroke-width="0.00015"></path>
<path d="M1.691 0.949 Q1.522 0.675 0.949 0.697" stroke="hsl(180.0,100%,35%)" stroke-width="0.00030"></path>
<path d="M1.691 0.949 Q1.796 0.953 1.827 0.903" stroke="hsl(180.0,100%,35%)" stroke-width="0.00090"></path>
<path d="M1.071 0.912 Q1.448 0.570 0.863 0.311" stroke="hsl(180.0,100%,35%)" stroke-width="0.00015"></path>
<path d="M1.071 0.912 Q1.152 0.892 1.130 0.848" stroke="hsl(180.0,100%,35%)" stroke-width="0.00299"></path>
<path d="M1.071 0.912 Q1.456 1.059 1.827 0.903" stroke="hsl(180.0,100%,35%)" stroke-width="0.00045"></path>
<path d="M1.071 0.912 Q1.171 0.616 0.615 0.502" stroke="hsl(180.0,100%,35%)" stroke-width="0.00015"></path>
<path d="M1.071 0.912 Q1.465 0.963 1.650 0.782" stroke="hsl(180.0,100%,35%)" stroke-width="0.00045"></path>
<path d="M0.510 0.181 Q0.460 0.325 0.730 0.381" stroke="hsl(0.0,100%,35%)" stroke-width="0.00119"></path>
<path d="M0.510 0.181 Q0.742 0.346 1.115 0.269" stroke="hsl(0.0,100%,35%)" stroke-width="0.00015"></path>
<path d="M0.510 0.181 Q0.787 0.731 1.921 0.716" stroke="hsl(0.0,100%,35%)" stroke-width="0.00015"></path>
<path d="M1.254 0.702 Q1.140 0.691 1.092 0.744" stroke="hsl(0.0,100%,35%)" stroke-width="0.00090"></path>
<path d="M1.254 0.702 Q1.106 0.638 0.949 0.697" stroke="hsl(0.0,100%,35%)" stroke-width="0.00090"></path>
<path d="M1.254 0.702 Q0.812 0.685 0.681 0.897" stroke="hsl(0.0,100%,35%)" stroke-width="0.00015"></path>
<path d="M0.353 0.922 Q0.537 0.976 0.681 0.897" stroke="hsl(0.0,100%,35%)" stroke-width="0.00015"></path>
<path d="M0.353 0.922 Q0.681 0.951 0.809 0.797" stroke="hsl(0.0,100%,35%)" stroke-width="0.00015"></path>
<path d="M0.353 0.922 Q0.820 0.765 0.615 0.502" stroke="hsl(0.0,100%,35%)" stroke-width="0.00015"></path>
<path d="M0.505 0.833 Q0.836 0.854 0.949 0.697" stroke="hsl(0.0,100%,35%)" stroke-width="0.00060"></path>
<path d="M0.505 0.833 Q0.542 0.901 0.681 0.897" stroke="hsl(0.0,100%,35%)" stroke-width="0.00209"></path>
<path d="M0.505 0.833 Q0.686 0.876 0.809 0.797" stroke="hsl(0.0,100%,35%)" stroke-width="0.00090"></path>
<path d="M0.505 0.833 Q0.979 0.652 0.730 0.381" stroke="hsl(0.0,100%,35%)" stroke-width="0.00015"></path>
<path d="M0.505 0.833 Q0.669 0.800 0.640 0.713" stroke="hsl(0.0,100%,35%)" stroke-width="0.00015"></path>
<path d="M0.505 0.833 Q1.130 0.943 1.481 0.662" stroke="hsl(0.0,100%,35%)" stroke-width="0.00015"></path>
<path d="M0.495 0.906 Q0.595 0.939 0.681 0.897" stroke="hsl(0.0,100%,35%)" stroke-width="0.00030"></path>
<path d="M0.495 0.906 Q1.018 1.125 1.560 0.919" stroke="hsl(0.0,100%,35%)" stroke-width="0.00015"></path>
<path d="M0.495 0.906 Q1.059 1.167 1.691 0.949" stroke="hsl(0.0,100%,35%)" stroke-width="0.00015"></path>
</g>
<text x="0.640" y="0.693" font-size="0.038484" fill="hsl(0.0,100%,20%)">armansito</text>
<text x="0.615" y="0.462" font-size="0.080456" fill="hsl(0.0,100%,20%)">johnstiles</text>
<text x="0.949" y="0.671" font-size="0.051404" fill="hsl(0.0,100%,20%)">michaelludwig</text>
<text x="0.809" y="0.774" font-size="0.045603" fill="hsl(0.0,100%,20%)">jvanverth</text>
<text x="1.827" y="0.871" font-size="0.064143" fill="hsl(180.0,100%,20%)">kjlubick</text>
<text x="0.730" y="0.344" font-size="0.074228" fill="hsl(0.0,100%,20%)">brianosman</text>
<text x="1.092" y="0.734" font-size="0.021322" fill="hsl(0.0,100%,20%)">nicolettep</text>
<text x="0.681" y="0.875" font-size="0.045306" fill="hsl(0.0,100%,20%)">egdaniel</text>
<text x="1.650" y="0.761" font-size="0.043169" fill="hsl(180.0,100%,20%)">bungeman</text>
<text x="0.863" y="0.293" font-size="0.037295" fill="hsl(0.0,100%,20%)">bsalomon</text>
<text x="1.198" y="0.484" font-size="0.020788" fill="hsl(0.0,100%,20%)">jamesgk</text>
<text x="1.560" y="0.908" font-size="0.020570" fill="hsl(180.0,100%,20%)">rmistry</text>
<text x="1.130" y="0.838" font-size="0.019445" fill="hsl(180.0,100%,20%)">jlavrova</text>
<text x="0.321" y="0.408" font-size="0.020570" fill="hsl(0.0,100%,20%)">ethannicholas</text>
<text x="1.496" y="0.690" font-size="0.020570" fill="hsl(180.0,100%,20%)">borenet</text>
<text x="1.432" y="0.817" font-size="0.021741" fill="hsl(180.0,100%,20%)">jcgregorio</text>
<text x="1.809" y="0.318" font-size="0.007650" fill="hsl(180.0,100%,20%)">hcm</text>
<text x="0.187" y="0.697" font-size="0.012906" fill="hsl(180.0,100%,20%)">djsollen</text>
<text x="1.219" y="0.596" font-size="0.057403" fill="hsl(0.0,100%,20%)">robertphillips</text>
<text x="1.481" y="0.637" font-size="0.051796" fill="hsl(0.0,100%,20%)">herb</text>
<text x="0.838" y="0.195" font-size="0.014545" fill="hsl(0.0,100%,20%)">ccameron</text>
<text x="0.224" y="0.141" font-size="0.026071" fill="hsl(180.0,100%,20%)">fmalita</text>
<text x="1.921" y="0.707" font-size="0.017367" fill="hsl(180.0,100%,20%)">scroggo</text>
<text x="0.662" y="0.054" font-size="0.021217" fill="hsl(180.0,100%,20%)">jmbetancourt</text>
<text x="0.117" y="0.532" font-size="0.007939" fill="hsl(180.0,100%,20%)">nifong</text>
<text x="1.590" y="0.959" font-size="0.013079" fill="hsl(180.0,100%,20%)">drott</text>
<text x="1.115" y="0.267" font-size="0.005197" fill="hsl(0.0,100%,20%)">jreck</text>
<text x="1.814" y="0.571" font-size="0.019329" fill="hsl(180.0,100%,20%)">cmumford</text>
<text x="1.344" y="0.961" font-size="0.004243" fill="hsl(180.0,100%,20%)">dnfield</text>
<text x="1.481" y="0.979" font-size="0.009248" fill="hsl(180.0,100%,20%)">erikrose</text>
<text x="1.203" y="0.367" font-size="0.008217" fill="hsl(180.0,100%,20%)">nscobie</text>
<text x="1.488" y="0.414" font-size="0.006001" fill="hsl(180.0,100%,20%)">sharaks</text>
<text x="0.827" y="0.213" font-size="0.004744" fill="hsl(0.0,100%,20%)">iapres</text>
<text x="1.691" y="0.942" font-size="0.015300" fill="hsl(180.0,100%,20%)">lovisolo</text>
<text x="1.880" y="0.794" font-size="0.005197" fill="hsl(180.0,100%,20%)">tdenniston</text>
<text x="1.795" y="0.636" font-size="0.004744" fill="hsl(180.0,100%,20%)">wrightgeorge</text>
<text x="1.071" y="0.907" font-size="0.011227" fill="hsl(180.0,100%,20%)">jsimmons</text>
<text x="1.756" y="0.739" font-size="0.002122" fill="hsl(180.0,100%,20%)">yjbanov</text>
<text x="0.510" y="0.178" font-size="0.006709" fill="hsl(0.0,100%,20%)">kyslov</text>
<text x="1.254" y="0.698" font-size="0.007650" fill="hsl(0.0,100%,20%)">lehoangquyen</text>
<text x="0.894" y="0.514" font-size="0.002122" fill="hsl(0.0,100%,20%)">csmartdalton</text>
<text x="0.353" y="0.921" font-size="0.003675" fill="hsl(0.0,100%,20%)">nathbappai</text>
<text x="0.505" y="0.828" font-size="0.011024" fill="hsl(0.0,100%,20%)">penghuang</text>
<text x="0.495" y="0.904" font-size="0.004243" fill="hsl(0.0,100%,20%)">shuangshuang.zhou</text>
</svg>
