<svg width="4000" height="2000" viewBox="-0.025 -0.025 2.05 1.05" xmlns="http://www.w3.org/2000/svg">
  <style>
    path {
      fill: none;
      stroke-linecap: round;
      stroke-opacity: 0.4;
    }

    text {
      text-anchor: middle;
      alignment-baseline: hanging;
    }
  </style>
  <g opacity="0.4">
<path d="M1.557 0.709 Q1.501 0.646 1.365 0.659" stroke="hsl(0.0,100%,35%)" stroke-width="0.00397"></path>
<path d="M1.557 0.709 Q1.847 0.558 1.615 0.383" stroke="hsl(0.0,100%,35%)" stroke-width="0.00079"></path>
<path d="M1.557 0.709 Q1.754 0.299 0.997 0.114" stroke="hsl(0.0,100%,35%)" stroke-width="0.00159"></path>
<path d="M1.557 0.709 Q1.315 0.224 0.315 0.236" stroke="hsl(0.0,100%,35%)" stroke-width="0.00079"></path>
<path d="M1.557 0.709 Q2.068 0.512 1.795 0.219" stroke="hsl(0.0,100%,35%)" stroke-width="0.00238"></path>
<path d="M1.365 0.659 Q1.617 0.313 0.997 0.114" stroke="hsl(0.0,100%,35%)" stroke-width="0.00238"></path>
<path d="M1.365 0.659 Q1.421 0.723 1.557 0.709" stroke="hsl(0.0,100%,35%)" stroke-width="0.01032"></path>
<path d="M1.365 0.659 Q1.049 0.606 0.877 0.748" stroke="hsl(0.0,100%,35%)" stroke-width="0.00635"></path>
<path d="M1.365 0.659 Q1.932 0.525 1.795 0.219" stroke="hsl(0.0,100%,35%)" stroke-width="0.00635"></path>
<path d="M1.365 0.659 Q0.980 0.528 0.640 0.688" stroke="hsl(0.0,100%,35%)" stroke-width="0.00317"></path>
<path d="M1.365 0.659 Q0.794 0.531 0.418 0.780" stroke="hsl(0.0,100%,35%)" stroke-width="0.00397"></path>
<path d="M1.365 0.659 Q1.711 0.571 1.615 0.383" stroke="hsl(0.0,100%,35%)" stroke-width="0.01349"></path>
<path d="M1.365 0.659 Q1.347 0.325 0.691 0.260" stroke="hsl(0.0,100%,35%)" stroke-width="0.00397"></path>
<path d="M1.365 0.659 Q1.222 0.369 0.625 0.375" stroke="hsl(0.0,100%,35%)" stroke-width="0.00159"></path>
<path d="M1.365 0.659 Q1.178 0.238 0.315 0.236" stroke="hsl(0.0,100%,35%)" stroke-width="0.00317"></path>
<path d="M1.365 0.659 Q0.841 0.723 0.849 0.992" stroke="hsl(0.0,100%,35%)" stroke-width="0.00079"></path>
<path d="M1.365 0.659 Q1.459 0.291 0.761 0.165" stroke="hsl(0.0,100%,35%)" stroke-width="0.00079"></path>
<path d="M1.615 0.383 Q0.884 0.340 0.640 0.688" stroke="hsl(0.0,100%,35%)" stroke-width="0.01746"></path>
<path d="M1.615 0.383 Q0.953 0.418 0.877 0.748" stroke="hsl(0.0,100%,35%)" stroke-width="0.00556"></path>
<path d="M1.615 0.383 Q1.269 0.471 1.365 0.659" stroke="hsl(0.0,100%,35%)" stroke-width="0.00476"></path>
<path d="M1.615 0.383 Q1.836 0.337 1.795 0.219" stroke="hsl(0.0,100%,35%)" stroke-width="0.01032"></path>
<path d="M1.615 0.383 Q1.082 0.050 0.315 0.236" stroke="hsl(0.0,100%,35%)" stroke-width="0.00079"></path>
<path d="M1.615 0.383 Q1.251 0.137 0.691 0.260" stroke="hsl(0.0,100%,35%)" stroke-width="0.00794"></path>
<path d="M1.615 0.383 Q1.325 0.535 1.557 0.709" stroke="hsl(0.0,100%,35%)" stroke-width="0.00317"></path>
<path d="M1.615 0.383 Q0.698 0.342 0.418 0.780" stroke="hsl(0.0,100%,35%)" stroke-width="0.00079"></path>
<path d="M0.997 0.114 Q0.727 0.126 0.691 0.260" stroke="hsl(180.0,100%,35%)" stroke-width="0.01825"></path>
<path d="M0.997 0.114 Q0.838 0.092 0.761 0.165" stroke="hsl(180.0,100%,35%)" stroke-width="0.03492"></path>
<path d="M0.997 0.114 Q0.831 0.202 0.967 0.302" stroke="hsl(180.0,100%,35%)" stroke-width="0.01032"></path>
<path d="M0.997 0.114 Q0.558 0.038 0.315 0.236" stroke="hsl(180.0,100%,35%)" stroke-width="0.00714"></path>
<path d="M0.997 0.114 Q0.174 0.331 0.418 0.780" stroke="hsl(180.0,100%,35%)" stroke-width="0.00714"></path>
<path d="M0.997 0.114 Q0.752 0.361 1.182 0.535" stroke="hsl(180.0,100%,35%)" stroke-width="0.00159"></path>
<path d="M0.997 0.114 Q1.053 0.255 1.342 0.259" stroke="hsl(180.0,100%,35%)" stroke-width="0.00079"></path>
<path d="M0.997 0.114 Q1.211 0.079 1.190 -0.034" stroke="hsl(180.0,100%,35%)" stroke-width="0.00317"></path>
<path d="M0.997 0.114 Q0.866 0.372 1.342 0.493" stroke="hsl(180.0,100%,35%)" stroke-width="0.00397"></path>
<path d="M0.997 0.114 Q0.220 0.523 0.849 0.992" stroke="hsl(180.0,100%,35%)" stroke-width="0.00079"></path>
<path d="M0.997 0.114 Q0.602 0.170 0.625 0.375" stroke="hsl(180.0,100%,35%)" stroke-width="0.00079"></path>
<path d="M0.997 0.114 Q0.429 0.407 0.877 0.748" stroke="hsl(180.0,100%,35%)" stroke-width="0.00317"></path>
<path d="M0.997 0.114 Q0.391 0.009 0.055 0.282" stroke="hsl(180.0,100%,35%)" stroke-width="0.00079"></path>
<path d="M0.997 0.114 Q0.336 0.485 0.915 0.888" stroke="hsl(180.0,100%,35%)" stroke-width="0.00079"></path>
<path d="M0.997 0.114 Q0.359 0.329 0.640 0.688" stroke="hsl(180.0,100%,35%)" stroke-width="0.00079"></path>
<path d="M0.315 0.236 Q0.483 0.324 0.691 0.260" stroke="hsl(180.0,100%,35%)" stroke-width="0.03810"></path>
<path d="M0.315 0.236 Q0.186 0.605 0.877 0.748" stroke="hsl(180.0,100%,35%)" stroke-width="0.00714"></path>
<path d="M0.315 0.236 Q0.093 0.682 0.915 0.888" stroke="hsl(180.0,100%,35%)" stroke-width="0.00159"></path>
<path d="M0.315 0.236 Q0.847 0.570 1.615 0.383" stroke="hsl(180.0,100%,35%)" stroke-width="0.01032"></path>
<path d="M0.315 0.236 Q-0.069 0.529 0.418 0.780" stroke="hsl(180.0,100%,35%)" stroke-width="0.00476"></path>
<path d="M0.315 0.236 Q0.501 0.658 1.365 0.659" stroke="hsl(180.0,100%,35%)" stroke-width="0.00317"></path>
<path d="M0.315 0.236 Q0.116 0.527 0.640 0.688" stroke="hsl(180.0,100%,35%)" stroke-width="0.00159"></path>
<path d="M0.315 0.236 Q1.069 0.524 1.795 0.219" stroke="hsl(180.0,100%,35%)" stroke-width="0.00238"></path>
<path d="M0.315 0.236 Q0.754 0.311 0.997 0.114" stroke="hsl(180.0,100%,35%)" stroke-width="0.01111"></path>
<path d="M0.315 0.236 Q0.557 0.721 1.557 0.709" stroke="hsl(180.0,100%,35%)" stroke-width="0.00397"></path>
<path d="M0.315 0.236 Q0.172 0.264 0.196 0.340" stroke="hsl(180.0,100%,35%)" stroke-width="0.00079"></path>
<path d="M0.315 0.236 Q0.595 0.289 0.761 0.165" stroke="hsl(180.0,100%,35%)" stroke-width="0.00317"></path>
<path d="M0.315 0.236 Q0.148 0.207 0.055 0.282" stroke="hsl(180.0,100%,35%)" stroke-width="0.00079"></path>
<path d="M0.315 0.236 Q0.358 0.368 0.625 0.375" stroke="hsl(180.0,100%,35%)" stroke-width="0.00794"></path>
<path d="M0.315 0.236 Q0.623 0.570 1.342 0.493" stroke="hsl(180.0,100%,35%)" stroke-width="0.00159"></path>
<path d="M0.315 0.236 Q-0.023 0.721 0.849 0.992" stroke="hsl(180.0,100%,35%)" stroke-width="0.00079"></path>
<path d="M0.315 0.236 Q0.269 0.258 0.302 0.285" stroke="hsl(180.0,100%,35%)" stroke-width="0.00079"></path>
<path d="M1.795 0.219 Q1.574 0.265 1.615 0.383" stroke="hsl(0.0,100%,35%)" stroke-width="0.00714"></path>
<path d="M1.795 0.219 Q0.842 0.222 0.640 0.688" stroke="hsl(0.0,100%,35%)" stroke-width="0.00238"></path>
<path d="M1.795 0.219 Q0.657 0.224 0.418 0.780" stroke="hsl(0.0,100%,35%)" stroke-width="0.00159"></path>
<path d="M1.795 0.219 Q1.228 0.353 1.365 0.659" stroke="hsl(0.0,100%,35%)" stroke-width="0.00079"></path>
<path d="M1.795 0.219 Q1.041 -0.069 0.315 0.236" stroke="hsl(0.0,100%,35%)" stroke-width="0.00079"></path>
<path d="M1.795 0.219 Q1.210 0.019 0.691 0.260" stroke="hsl(0.0,100%,35%)" stroke-width="0.00159"></path>
<path d="M0.691 0.260 Q0.522 0.173 0.315 0.236" stroke="hsl(180.0,100%,35%)" stroke-width="0.00714"></path>
<path d="M0.691 0.260 Q0.324 0.464 0.640 0.688" stroke="hsl(180.0,100%,35%)" stroke-width="0.00079"></path>
<path d="M0.691 0.260 Q1.055 0.506 1.615 0.383" stroke="hsl(180.0,100%,35%)" stroke-width="0.00476"></path>
<path d="M0.691 0.260 Q0.830 0.507 1.342 0.493" stroke="hsl(180.0,100%,35%)" stroke-width="0.00079"></path>
<path d="M0.691 0.260 Q0.803 0.226 0.761 0.165" stroke="hsl(180.0,100%,35%)" stroke-width="0.00079"></path>
<path d="M0.691 0.260 Q0.961 0.248 0.997 0.114" stroke="hsl(180.0,100%,35%)" stroke-width="0.00079"></path>
<path d="M0.691 0.260 Q0.566 0.305 0.625 0.375" stroke="hsl(180.0,100%,35%)" stroke-width="0.00079"></path>
<path d="M0.640 0.688 Q0.710 0.765 0.877 0.748" stroke="hsl(0.0,100%,35%)" stroke-width="0.02778"></path>
<path d="M0.640 0.688 Q1.371 0.730 1.615 0.383" stroke="hsl(0.0,100%,35%)" stroke-width="0.00635"></path>
<path d="M0.640 0.688 Q0.455 0.690 0.418 0.780" stroke="hsl(0.0,100%,35%)" stroke-width="0.00476"></path>
<path d="M0.640 0.688 Q1.007 0.484 0.691 0.260" stroke="hsl(0.0,100%,35%)" stroke-width="0.00079"></path>
<path d="M0.640 0.688 Q1.278 0.472 0.997 0.114" stroke="hsl(0.0,100%,35%)" stroke-width="0.00159"></path>
<path d="M1.342 0.493 Q0.835 0.450 0.640 0.688" stroke="hsl(180.0,100%,35%)" stroke-width="0.00079"></path>
<path d="M1.342 0.493 Q1.228 0.482 1.182 0.535" stroke="hsl(180.0,100%,35%)" stroke-width="0.00238"></path>
<path d="M1.342 0.493 Q1.473 0.234 0.997 0.114" stroke="hsl(180.0,100%,35%)" stroke-width="0.00079"></path>
<path d="M1.342 0.493 Q1.314 0.212 0.761 0.165" stroke="hsl(180.0,100%,35%)" stroke-width="0.00238"></path>
<path d="M1.342 0.493 Q1.203 0.247 0.691 0.260" stroke="hsl(180.0,100%,35%)" stroke-width="0.00079"></path>
<path d="M0.761 0.165 Q0.649 0.199 0.691 0.260" stroke="hsl(180.0,100%,35%)" stroke-width="0.00873"></path>
<path d="M0.761 0.165 Q0.480 0.111 0.315 0.236" stroke="hsl(180.0,100%,35%)" stroke-width="0.00317"></path>
<path d="M0.761 0.165 Q0.524 0.243 0.625 0.375" stroke="hsl(180.0,100%,35%)" stroke-width="0.00159"></path>
<path d="M0.761 0.165 Q0.919 0.186 0.997 0.114" stroke="hsl(180.0,100%,35%)" stroke-width="0.00476"></path>
<path d="M0.761 0.165 Q0.143 0.596 0.849 0.992" stroke="hsl(180.0,100%,35%)" stroke-width="0.00079"></path>
<path d="M0.761 0.165 Q0.585 0.162 0.542 0.248" stroke="hsl(180.0,100%,35%)" stroke-width="0.00079"></path>
<path d="M0.761 0.165 Q0.097 0.404 0.418 0.780" stroke="hsl(180.0,100%,35%)" stroke-width="0.00079"></path>
<path d="M0.625 0.375 Q0.750 0.331 0.691 0.260" stroke="hsl(180.0,100%,35%)" stroke-width="0.00635"></path>
<path d="M0.625 0.375 Q0.768 0.665 1.365 0.659" stroke="hsl(180.0,100%,35%)" stroke-width="0.00317"></path>
<path d="M0.625 0.375 Q1.020 0.319 0.997 0.114" stroke="hsl(180.0,100%,35%)" stroke-width="0.00159"></path>
<path d="M0.625 0.375 Q0.862 0.297 0.761 0.165" stroke="hsl(180.0,100%,35%)" stroke-width="0.00079"></path>
<path d="M0.418 0.780 Q0.603 0.778 0.640 0.688" stroke="hsl(0.0,100%,35%)" stroke-width="0.00238"></path>
<path d="M0.418 0.780 Q1.556 0.775 1.795 0.219" stroke="hsl(0.0,100%,35%)" stroke-width="0.00159"></path>
<path d="M0.418 0.780 Q0.673 0.856 0.877 0.748" stroke="hsl(0.0,100%,35%)" stroke-width="0.00635"></path>
<path d="M0.418 0.780 Q0.802 0.488 0.315 0.236" stroke="hsl(0.0,100%,35%)" stroke-width="0.00079"></path>
<path d="M0.418 0.780 Q0.988 0.909 1.365 0.659" stroke="hsl(0.0,100%,35%)" stroke-width="0.00238"></path>
<path d="M0.418 0.780 Q1.334 0.821 1.615 0.383" stroke="hsl(0.0,100%,35%)" stroke-width="0.00556"></path>
<path d="M0.418 0.780 Q1.241 0.563 0.997 0.114" stroke="hsl(0.0,100%,35%)" stroke-width="0.00079"></path>
<path d="M0.418 0.780 Q0.580 0.934 0.915 0.888" stroke="hsl(0.0,100%,35%)" stroke-width="0.00079"></path>
<path d="M0.418 0.780 Q0.971 0.575 0.691 0.260" stroke="hsl(0.0,100%,35%)" stroke-width="0.00079"></path>
<path d="M0.877 0.748 Q0.622 0.673 0.418 0.780" stroke="hsl(0.0,100%,35%)" stroke-width="0.00952"></path>
<path d="M0.877 0.748 Q0.807 0.671 0.640 0.688" stroke="hsl(0.0,100%,35%)" stroke-width="0.00159"></path>
<path d="M0.877 0.748 Q1.444 0.455 0.997 0.114" stroke="hsl(0.0,100%,35%)" stroke-width="0.00159"></path>
<path d="M0.877 0.748 Q1.538 0.713 1.615 0.383" stroke="hsl(0.0,100%,35%)" stroke-width="0.00079"></path>
<path d="M0.877 0.748 Q0.784 0.826 0.915 0.888" stroke="hsl(0.0,100%,35%)" stroke-width="0.00079"></path>
<path d="M0.877 0.748 Q1.174 0.467 0.691 0.260" stroke="hsl(0.0,100%,35%)" stroke-width="0.00079"></path>
<path d="M0.877 0.748 Q1.759 0.667 1.795 0.219" stroke="hsl(0.0,100%,35%)" stroke-width="0.00079"></path>
<path d="M0.877 0.748 Q1.192 0.801 1.365 0.659" stroke="hsl(0.0,100%,35%)" stroke-width="0.00159"></path>
<path d="M0.915 0.888 Q1.137 0.442 0.315 0.236" stroke="hsl(180.0,100%,35%)" stroke-width="0.00238"></path>
<path d="M0.915 0.888 Q0.799 0.927 0.849 0.992" stroke="hsl(180.0,100%,35%)" stroke-width="0.00238"></path>
<path d="M0.915 0.888 Q1.008 0.811 0.877 0.748" stroke="hsl(180.0,100%,35%)" stroke-width="0.00079"></path>
<path d="M0.915 0.888 Q0.938 0.733 0.640 0.688" stroke="hsl(180.0,100%,35%)" stroke-width="0.00238"></path>
<path d="M0.592 0.869 Q0.576 0.790 0.418 0.780" stroke="hsl(0.0,100%,35%)" stroke-width="0.00238"></path>
<path d="M0.592 0.869 Q1.492 0.831 1.615 0.383" stroke="hsl(0.0,100%,35%)" stroke-width="0.00079"></path>
<path d="M0.592 0.869 Q1.714 0.785 1.795 0.219" stroke="hsl(0.0,100%,35%)" stroke-width="0.00079"></path>
<path d="M0.967 0.302 Q1.133 0.214 0.997 0.114" stroke="hsl(180.0,100%,35%)" stroke-width="0.02143"></path>
<path d="M0.967 0.302 Q0.694 0.139 0.315 0.236" stroke="hsl(180.0,100%,35%)" stroke-width="0.00159"></path>
<path d="M0.967 0.302 Q1.189 0.356 1.342 0.259" stroke="hsl(180.0,100%,35%)" stroke-width="0.00079"></path>
<path d="M0.634 0.973 Q0.726 1.026 0.849 0.992" stroke="hsl(180.0,100%,35%)" stroke-width="0.00159"></path>
<path d="M0.634 0.973 Q1.232 0.628 0.691 0.260" stroke="hsl(180.0,100%,35%)" stroke-width="0.00079"></path>
<path d="M0.634 0.973 Q1.107 0.672 0.625 0.375" stroke="hsl(180.0,100%,35%)" stroke-width="0.00079"></path>
</g>
<text x="1.557" y="0.693" font-size="0.032854" fill="hsl(0.0,100%,20%)">armansito</text>
<text x="1.365" y="0.632" font-size="0.055205" fill="hsl(0.0,100%,20%)">jvanverth</text>
<text x="1.615" y="0.351" font-size="0.063496" fill="hsl(0.0,100%,20%)">michaelludwig</text>
<text x="0.997" y="0.076" font-size="0.075593" fill="hsl(180.0,100%,20%)">kjlubick</text>
<text x="0.315" y="0.200" font-size="0.071492" fill="hsl(180.0,100%,20%)">johnstiles</text>
<text x="1.795" y="0.199" font-size="0.039441" fill="hsl(0.0,100%,20%)">jamesgk</text>
<text x="0.691" y="0.228" font-size="0.064734" fill="hsl(180.0,100%,20%)">brianosman</text>
<text x="0.640" y="0.660" font-size="0.054627" fill="hsl(0.0,100%,20%)">robertphillips</text>
<text x="1.342" y="0.481" font-size="0.023231" fill="hsl(180.0,100%,20%)">fmalita</text>
<text x="0.761" y="0.139" font-size="0.050395" fill="hsl(180.0,100%,20%)">bungeman</text>
<text x="0.625" y="0.359" font-size="0.031873" fill="hsl(180.0,100%,20%)">herb</text>
<text x="0.849" y="0.984" font-size="0.016903" fill="hsl(180.0,100%,20%)">scroggo</text>
<text x="0.542" y="0.245" font-size="0.005634" fill="hsl(180.0,100%,20%)">jreck</text>
<text x="0.418" y="0.757" font-size="0.047809" fill="hsl(0.0,100%,20%)">egdaniel</text>
<text x="0.877" y="0.721" font-size="0.054627" fill="hsl(0.0,100%,20%)">nicolettep</text>
<text x="0.915" y="0.877" font-size="0.021822" fill="hsl(180.0,100%,20%)">nscobie</text>
<text x="1.182" y="0.528" font-size="0.012599" fill="hsl(180.0,100%,20%)">jmbetancourt</text>
<text x="0.592" y="0.863" font-size="0.012599" fill="hsl(0.0,100%,20%)">hitawala</text>
<text x="0.196" y="0.338" font-size="0.005634" fill="hsl(180.0,100%,20%)">djsollen</text>
<text x="0.055" y="0.278" font-size="0.007968" fill="hsl(180.0,100%,20%)">jcgregorio</text>
<text x="0.302" y="0.282" font-size="0.005634" fill="hsl(180.0,100%,20%)">rmistry</text>
<text x="0.967" y="0.284" font-size="0.036947" fill="hsl(180.0,100%,20%)">lovisolo</text>
<text x="1.342" y="0.255" font-size="0.007968" fill="hsl(180.0,100%,20%)">borenet</text>
<text x="1.190" y="-0.039" font-size="0.011269" fill="hsl(180.0,100%,20%)">jlavrova</text>
<text x="0.634" y="0.967" font-size="0.011269" fill="hsl(180.0,100%,20%)">nigeltao</text>
</svg>
