<svg width="4000" height="2000" viewBox="-0.025 -0.025 2.05 1.05" xmlns="http://www.w3.org/2000/svg">
  <style>
    path {
      fill: none;
      stroke-linecap: round;
      stroke-opacity: 0.4;
    }

    text {
      text-anchor: middle;
      alignment-baseline: hanging;
    }
  </style>
  <g opacity="0.4">
<path d="M1.166 0.462 Q0.646 0.673 0.944 0.973" stroke="hsl(0.0,100%,35%)" stroke-width="0.00018"></path>
<path d="M1.166 0.462 Q1.181 0.705 1.658 0.751" stroke="hsl(0.0,100%,35%)" stroke-width="0.00018"></path>
<path d="M1.166 0.462 Q0.727 0.537 0.776 0.767" stroke="hsl(0.0,100%,35%)" stroke-width="0.00018"></path>
<path d="M1.166 0.462 Q0.921 0.366 0.680 0.465" stroke="hsl(0.0,100%,35%)" stroke-width="0.00018"></path>
<path d="M1.166 0.462 Q0.887 0.490 0.880 0.632" stroke="hsl(0.0,100%,35%)" stroke-width="0.00018"></path>
<path d="M0.944 0.973 Q1.065 0.964 1.073 0.903" stroke="hsl(0.0,100%,35%)" stroke-width="0.00053"></path>
<path d="M0.944 0.973 Q1.025 0.837 0.776 0.767" stroke="hsl(0.0,100%,35%)" stroke-width="0.00053"></path>
<path d="M0.944 0.973 Q1.460 1.110 1.839 0.888" stroke="hsl(0.0,100%,35%)" stroke-width="0.00088"></path>
<path d="M0.944 0.973 Q1.627 0.670 1.185 0.271" stroke="hsl(0.0,100%,35%)" stroke-width="0.00035"></path>
<path d="M0.944 0.973 Q1.104 1.024 1.239 0.957" stroke="hsl(0.0,100%,35%)" stroke-width="0.00070"></path>
<path d="M0.944 0.973 Q1.186 0.790 0.880 0.632" stroke="hsl(0.0,100%,35%)" stroke-width="0.00053"></path>
<path d="M0.944 0.973 Q1.479 1.005 1.658 0.751" stroke="hsl(0.0,100%,35%)" stroke-width="0.00035"></path>
<path d="M0.944 0.973 Q0.807 0.918 0.669 0.973" stroke="hsl(0.0,100%,35%)" stroke-width="0.00018"></path>
<path d="M0.944 0.973 Q1.219 0.666 0.680 0.465" stroke="hsl(0.0,100%,35%)" stroke-width="0.00018"></path>
<path d="M1.658 0.751 Q1.365 0.536 0.880 0.632" stroke="hsl(0.0,100%,35%)" stroke-width="0.00756"></path>
<path d="M1.658 0.751 Q1.639 0.856 1.839 0.888" stroke="hsl(0.0,100%,35%)" stroke-width="0.01214"></path>
<path d="M1.658 0.751 Q1.567 0.541 1.137 0.540" stroke="hsl(0.0,100%,35%)" stroke-width="0.00018"></path>
<path d="M1.658 0.751 Q1.806 0.416 1.185 0.271" stroke="hsl(0.0,100%,35%)" stroke-width="0.00405"></path>
<path d="M1.658 0.751 Q1.204 0.583 0.776 0.767" stroke="hsl(0.0,100%,35%)" stroke-width="0.00281"></path>
<path d="M1.658 0.751 Q1.509 0.745 1.464 0.816" stroke="hsl(0.0,100%,35%)" stroke-width="0.00369"></path>
<path d="M1.658 0.751 Q1.959 0.643 1.814 0.472" stroke="hsl(0.0,100%,35%)" stroke-width="0.00035"></path>
<path d="M1.658 0.751 Q1.899 0.525 1.511 0.358" stroke="hsl(0.0,100%,35%)" stroke-width="0.00246"></path>
<path d="M1.658 0.751 Q1.757 0.517 1.323 0.418" stroke="hsl(0.0,100%,35%)" stroke-width="0.00035"></path>
<path d="M1.658 0.751 Q1.650 0.458 1.077 0.397" stroke="hsl(0.0,100%,35%)" stroke-width="0.00264"></path>
<path d="M1.658 0.751 Q0.986 0.664 0.669 0.973" stroke="hsl(0.0,100%,35%)" stroke-width="0.00018"></path>
<path d="M1.658 0.751 Q1.398 0.413 0.680 0.465" stroke="hsl(0.0,100%,35%)" stroke-width="0.00176"></path>
<path d="M1.658 0.751 Q1.199 0.474 0.559 0.637" stroke="hsl(0.0,100%,35%)" stroke-width="0.00018"></path>
<path d="M1.658 0.751 Q1.244 0.710 1.073 0.903" stroke="hsl(0.0,100%,35%)" stroke-width="0.00035"></path>
<path d="M1.658 0.751 Q1.059 0.501 0.440 0.738" stroke="hsl(0.0,100%,35%)" stroke-width="0.00018"></path>
<path d="M1.658 0.751 Q1.605 0.385 0.878 0.330" stroke="hsl(0.0,100%,35%)" stroke-width="0.00018"></path>
<path d="M1.658 0.751 Q1.857 0.685 1.771 0.573" stroke="hsl(0.0,100%,35%)" stroke-width="0.00018"></path>
<path d="M0.776 0.767 Q1.230 0.935 1.658 0.751" stroke="hsl(0.0,100%,35%)" stroke-width="0.00791"></path>
<path d="M0.776 0.767 Q1.081 0.929 1.464 0.816" stroke="hsl(0.0,100%,35%)" stroke-width="0.00211"></path>
<path d="M0.776 0.767 Q1.222 0.642 1.077 0.397" stroke="hsl(0.0,100%,35%)" stroke-width="0.00018"></path>
<path d="M0.776 0.767 Q0.631 0.685 0.440 0.738" stroke="hsl(0.0,100%,35%)" stroke-width="0.00211"></path>
<path d="M0.776 0.767 Q1.048 0.806 1.183 0.682" stroke="hsl(0.0,100%,35%)" stroke-width="0.00070"></path>
<path d="M0.776 0.767 Q0.937 0.720 0.880 0.632" stroke="hsl(0.0,100%,35%)" stroke-width="0.00352"></path>
<path d="M0.776 0.767 Q1.211 1.040 1.839 0.888" stroke="hsl(0.0,100%,35%)" stroke-width="0.00193"></path>
<path d="M0.776 0.767 Q0.695 0.904 0.944 0.973" stroke="hsl(0.0,100%,35%)" stroke-width="0.00018"></path>
<path d="M0.776 0.767 Q0.558 0.849 0.669 0.973" stroke="hsl(0.0,100%,35%)" stroke-width="0.00018"></path>
<path d="M0.776 0.767 Q0.970 0.597 0.680 0.465" stroke="hsl(0.0,100%,35%)" stroke-width="0.00018"></path>
<path d="M0.776 0.767 Q0.771 0.659 0.559 0.637" stroke="hsl(0.0,100%,35%)" stroke-width="0.00018"></path>
<path d="M0.776 0.767 Q1.531 0.827 1.814 0.472" stroke="hsl(0.0,100%,35%)" stroke-width="0.00035"></path>
<path d="M0.680 0.465 Q0.921 0.908 1.839 0.888" stroke="hsl(0.0,100%,35%)" stroke-width="0.00053"></path>
<path d="M0.680 0.465 Q1.039 0.570 1.323 0.418" stroke="hsl(0.0,100%,35%)" stroke-width="0.00281"></path>
<path d="M0.680 0.465 Q0.940 0.804 1.658 0.751" stroke="hsl(0.0,100%,35%)" stroke-width="0.00088"></path>
<path d="M0.680 0.465 Q1.088 0.469 1.185 0.271" stroke="hsl(0.0,100%,35%)" stroke-width="0.00176"></path>
<path d="M0.680 0.465 Q0.887 0.437 0.878 0.330" stroke="hsl(0.0,100%,35%)" stroke-width="0.00053"></path>
<path d="M0.680 0.465 Q0.526 0.763 1.073 0.903" stroke="hsl(0.0,100%,35%)" stroke-width="0.00018"></path>
<path d="M0.680 0.465 Q0.933 0.511 1.077 0.397" stroke="hsl(0.0,100%,35%)" stroke-width="0.00070"></path>
<path d="M0.680 0.465 Q1.181 0.578 1.511 0.358" stroke="hsl(0.0,100%,35%)" stroke-width="0.00229"></path>
<path d="M0.680 0.465 Q0.647 0.588 0.880 0.632" stroke="hsl(0.0,100%,35%)" stroke-width="0.00035"></path>
<path d="M0.680 0.465 Q0.268 0.717 0.669 0.973" stroke="hsl(0.0,100%,35%)" stroke-width="0.00018"></path>
<path d="M0.880 0.632 Q0.759 0.806 1.073 0.903" stroke="hsl(0.0,100%,35%)" stroke-width="0.00088"></path>
<path d="M0.880 0.632 Q0.720 0.679 0.776 0.767" stroke="hsl(0.0,100%,35%)" stroke-width="0.01741"></path>
<path d="M0.880 0.632 Q1.475 0.739 1.814 0.472" stroke="hsl(0.0,100%,35%)" stroke-width="0.00387"></path>
<path d="M0.880 0.632 Q0.715 0.570 0.559 0.637" stroke="hsl(0.0,100%,35%)" stroke-width="0.00598"></path>
<path d="M0.880 0.632 Q1.414 0.621 1.511 0.358" stroke="hsl(0.0,100%,35%)" stroke-width="0.00229"></path>
<path d="M0.880 0.632 Q0.639 0.815 0.944 0.973" stroke="hsl(0.0,100%,35%)" stroke-width="0.00405"></path>
<path d="M0.880 0.632 Q1.173 0.847 1.658 0.751" stroke="hsl(0.0,100%,35%)" stroke-width="0.02075"></path>
<path d="M0.880 0.632 Q0.913 0.508 0.680 0.465" stroke="hsl(0.0,100%,35%)" stroke-width="0.00475"></path>
<path d="M0.880 0.632 Q1.024 0.841 1.464 0.816" stroke="hsl(0.0,100%,35%)" stroke-width="0.00598"></path>
<path d="M0.880 0.632 Q1.272 0.613 1.323 0.418" stroke="hsl(0.0,100%,35%)" stroke-width="0.00369"></path>
<path d="M0.880 0.632 Q1.155 0.952 1.839 0.888" stroke="hsl(0.0,100%,35%)" stroke-width="0.00598"></path>
<path d="M0.880 0.632 Q1.166 0.554 1.077 0.397" stroke="hsl(0.0,100%,35%)" stroke-width="0.00281"></path>
<path d="M0.880 0.632 Q0.574 0.597 0.440 0.738" stroke="hsl(0.0,100%,35%)" stroke-width="0.00176"></path>
<path d="M0.880 0.632 Q0.960 0.774 1.255 0.767" stroke="hsl(0.0,100%,35%)" stroke-width="0.00053"></path>
<path d="M0.880 0.632 Q1.082 0.637 1.137 0.540" stroke="hsl(0.0,100%,35%)" stroke-width="0.00158"></path>
<path d="M0.880 0.632 Q1.373 0.780 1.771 0.573" stroke="hsl(0.0,100%,35%)" stroke-width="0.00070"></path>
<path d="M0.880 0.632 Q0.991 0.718 1.183 0.682" stroke="hsl(0.0,100%,35%)" stroke-width="0.00158"></path>
<path d="M0.880 0.632 Q0.353 1.037 1.028 1.384" stroke="hsl(0.0,100%,35%)" stroke-width="0.00035"></path>
<path d="M0.880 0.632 Q1.081 0.619 1.100 0.518" stroke="hsl(0.0,100%,35%)" stroke-width="0.00053"></path>
<path d="M0.880 0.632 Q1.322 0.512 1.185 0.271" stroke="hsl(0.0,100%,35%)" stroke-width="0.00704"></path>
<path d="M0.880 0.632 Q0.934 0.947 1.561 0.990" stroke="hsl(0.0,100%,35%)" stroke-width="0.00070"></path>
<path d="M0.880 0.632 Q1.112 0.715 1.326 0.621" stroke="hsl(0.0,100%,35%)" stroke-width="0.00035"></path>
<path d="M0.880 0.632 Q0.884 0.681 0.982 0.690" stroke="hsl(0.0,100%,35%)" stroke-width="0.00053"></path>
<path d="M1.561 0.990 Q1.782 0.995 1.839 0.888" stroke="hsl(0.0,100%,35%)" stroke-width="0.00334"></path>
<path d="M1.561 0.990 Q1.949 0.555 1.185 0.271" stroke="hsl(0.0,100%,35%)" stroke-width="0.00756"></path>
<path d="M1.561 0.990 Q1.900 0.656 1.323 0.418" stroke="hsl(0.0,100%,35%)" stroke-width="0.00053"></path>
<path d="M1.561 0.990 Q1.541 0.552 0.680 0.465" stroke="hsl(0.0,100%,35%)" stroke-width="0.00070"></path>
<path d="M1.561 0.990 Q1.748 0.524 0.878 0.330" stroke="hsl(0.0,100%,35%)" stroke-width="0.00053"></path>
<path d="M1.561 0.990 Q1.793 0.597 1.077 0.397" stroke="hsl(0.0,100%,35%)" stroke-width="0.00545"></path>
<path d="M1.561 0.990 Q1.507 0.675 0.880 0.632" stroke="hsl(0.0,100%,35%)" stroke-width="0.00158"></path>
<path d="M1.561 0.990 Q1.801 0.890 1.658 0.751" stroke="hsl(0.0,100%,35%)" stroke-width="0.00158"></path>
<path d="M1.561 0.990 Q1.342 0.613 0.559 0.637" stroke="hsl(0.0,100%,35%)" stroke-width="0.00018"></path>
<path d="M1.561 0.990 Q1.652 0.884 1.464 0.816" stroke="hsl(0.0,100%,35%)" stroke-width="0.00018"></path>
<path d="M1.839 0.888 Q1.858 0.783 1.658 0.751" stroke="hsl(0.0,100%,35%)" stroke-width="0.06578"></path>
<path d="M1.839 0.888 Q1.709 0.777 1.464 0.816" stroke="hsl(0.0,100%,35%)" stroke-width="0.00844"></path>
<path d="M1.839 0.888 Q2.099 0.558 1.511 0.358" stroke="hsl(0.0,100%,35%)" stroke-width="0.00405"></path>
<path d="M1.839 0.888 Q1.618 0.883 1.561 0.990" stroke="hsl(0.0,100%,35%)" stroke-width="0.02621"></path>
<path d="M1.839 0.888 Q1.405 0.615 0.776 0.767" stroke="hsl(0.0,100%,35%)" stroke-width="0.00141"></path>
<path d="M1.839 0.888 Q2.006 0.449 1.185 0.271" stroke="hsl(0.0,100%,35%)" stroke-width="0.01372"></path>
<path d="M1.839 0.888 Q2.160 0.675 1.814 0.472" stroke="hsl(0.0,100%,35%)" stroke-width="0.00088"></path>
<path d="M1.839 0.888 Q1.598 0.445 0.680 0.465" stroke="hsl(0.0,100%,35%)" stroke-width="0.00528"></path>
<path d="M1.839 0.888 Q1.851 0.490 1.077 0.397" stroke="hsl(0.0,100%,35%)" stroke-width="0.00422"></path>
<path d="M1.839 0.888 Q1.805 0.417 0.878 0.330" stroke="hsl(0.0,100%,35%)" stroke-width="0.00528"></path>
<path d="M1.839 0.888 Q1.957 0.550 1.323 0.418" stroke="hsl(0.0,100%,35%)" stroke-width="0.00879"></path>
<path d="M1.839 0.888 Q2.057 0.717 1.771 0.573" stroke="hsl(0.0,100%,35%)" stroke-width="0.00053"></path>
<path d="M1.839 0.888 Q1.444 0.742 1.073 0.903" stroke="hsl(0.0,100%,35%)" stroke-width="0.00123"></path>
<path d="M1.839 0.888 Q1.569 0.618 0.982 0.690" stroke="hsl(0.0,100%,35%)" stroke-width="0.00035"></path>
<path d="M1.839 0.888 Q1.565 0.568 0.880 0.632" stroke="hsl(0.0,100%,35%)" stroke-width="0.01161"></path>
<path d="M1.839 0.888 Q1.324 0.752 0.944 0.973" stroke="hsl(0.0,100%,35%)" stroke-width="0.00035"></path>
<path d="M1.839 0.888 Q1.484 0.802 1.239 0.957" stroke="hsl(0.0,100%,35%)" stroke-width="0.00018"></path>
<path d="M1.839 0.888 Q1.644 0.711 1.255 0.767" stroke="hsl(0.0,100%,35%)" stroke-width="0.00053"></path>
<path d="M1.839 0.888 Q1.765 0.555 1.100 0.518" stroke="hsl(0.0,100%,35%)" stroke-width="0.00158"></path>
<path d="M1.839 0.888 Q1.767 0.573 1.137 0.540" stroke="hsl(0.0,100%,35%)" stroke-width="0.00053"></path>
<path d="M1.839 0.888 Q1.399 0.507 0.559 0.637" stroke="hsl(0.0,100%,35%)" stroke-width="0.00018"></path>
<path d="M1.839 0.888 Q1.259 0.533 0.440 0.738" stroke="hsl(0.0,100%,35%)" stroke-width="0.00018"></path>
<path d="M1.185 0.271 Q0.777 0.267 0.680 0.465" stroke="hsl(0.0,100%,35%)" stroke-width="0.00141"></path>
<path d="M1.185 0.271 Q1.030 0.312 1.077 0.397" stroke="hsl(0.0,100%,35%)" stroke-width="0.00264"></path>
<path d="M1.185 0.271 Q1.278 0.380 1.511 0.358" stroke="hsl(0.0,100%,35%)" stroke-width="0.02163"></path>
<path d="M1.185 0.271 Q0.798 0.706 1.561 0.990" stroke="hsl(0.0,100%,35%)" stroke-width="0.00158"></path>
<path d="M1.185 0.271 Q1.037 0.605 1.658 0.751" stroke="hsl(0.0,100%,35%)" stroke-width="0.01601"></path>
<path d="M1.185 0.271 Q1.018 0.710 1.839 0.888" stroke="hsl(0.0,100%,35%)" stroke-width="0.00334"></path>
<path d="M1.185 0.271 Q0.984 0.239 0.878 0.330" stroke="hsl(0.0,100%,35%)" stroke-width="0.00492"></path>
<path d="M1.185 0.271 Q1.136 0.372 1.323 0.418" stroke="hsl(0.0,100%,35%)" stroke-width="0.00211"></path>
<path d="M1.185 0.271 Q0.888 0.599 1.464 0.816" stroke="hsl(0.0,100%,35%)" stroke-width="0.00123"></path>
<path d="M1.185 0.271 Q0.744 0.390 0.880 0.632" stroke="hsl(0.0,100%,35%)" stroke-width="0.00070"></path>
<path d="M1.185 0.271 Q0.584 0.437 0.776 0.767" stroke="hsl(0.0,100%,35%)" stroke-width="0.00035"></path>
<path d="M1.185 0.271 Q1.339 0.497 1.814 0.472" stroke="hsl(0.0,100%,35%)" stroke-width="0.00035"></path>
<path d="M1.323 0.418 Q0.964 0.313 0.680 0.465" stroke="hsl(0.0,100%,35%)" stroke-width="0.00387"></path>
<path d="M1.323 0.418 Q1.205 0.756 1.839 0.888" stroke="hsl(0.0,100%,35%)" stroke-width="0.00053"></path>
<path d="M1.323 0.418 Q0.930 0.436 0.880 0.632" stroke="hsl(0.0,100%,35%)" stroke-width="0.00106"></path>
<path d="M1.323 0.418 Q1.465 0.426 1.511 0.358" stroke="hsl(0.0,100%,35%)" stroke-width="0.00070"></path>
<path d="M1.323 0.418 Q1.216 0.358 1.077 0.397" stroke="hsl(0.0,100%,35%)" stroke-width="0.00528"></path>
<path d="M1.323 0.418 Q1.224 0.652 1.658 0.751" stroke="hsl(0.0,100%,35%)" stroke-width="0.00018"></path>
<path d="M1.323 0.418 Q1.171 0.285 0.878 0.330" stroke="hsl(0.0,100%,35%)" stroke-width="0.00035"></path>
<path d="M1.323 0.418 Q0.810 0.611 1.073 0.903" stroke="hsl(0.0,100%,35%)" stroke-width="0.00018"></path>
<path d="M1.323 0.418 Q1.372 0.317 1.185 0.271" stroke="hsl(0.0,100%,35%)" stroke-width="0.00053"></path>
<path d="M1.323 0.418 Q1.075 0.645 1.464 0.816" stroke="hsl(0.0,100%,35%)" stroke-width="0.00018"></path>
<path d="M1.323 0.418 Q1.423 0.585 1.771 0.573" stroke="hsl(0.0,100%,35%)" stroke-width="0.00018"></path>
<path d="M0.878 0.330 Q1.080 0.362 1.185 0.271" stroke="hsl(0.0,100%,35%)" stroke-width="0.00475"></path>
<path d="M0.878 0.330 Q0.672 0.358 0.680 0.465" stroke="hsl(0.0,100%,35%)" stroke-width="0.00158"></path>
<path d="M0.878 0.330 Q0.932 0.697 1.658 0.751" stroke="hsl(0.0,100%,35%)" stroke-width="0.00088"></path>
<path d="M0.878 0.330 Q0.913 0.801 1.839 0.888" stroke="hsl(0.0,100%,35%)" stroke-width="0.00246"></path>
<path d="M0.878 0.330 Q0.924 0.403 1.077 0.397" stroke="hsl(0.0,100%,35%)" stroke-width="0.00193"></path>
<path d="M0.878 0.330 Q1.173 0.471 1.511 0.358" stroke="hsl(0.0,100%,35%)" stroke-width="0.00193"></path>
<path d="M0.878 0.330 Q0.638 0.481 0.880 0.632" stroke="hsl(0.0,100%,35%)" stroke-width="0.00018"></path>
<path d="M0.878 0.330 Q0.839 0.468 1.100 0.518" stroke="hsl(0.0,100%,35%)" stroke-width="0.00018"></path>
<path d="M0.878 0.330 Q1.031 0.463 1.323 0.418" stroke="hsl(0.0,100%,35%)" stroke-width="0.00035"></path>
<path d="M0.878 0.330 Q0.397 0.665 0.944 0.973" stroke="hsl(0.0,100%,35%)" stroke-width="0.00018"></path>
<path d="M1.077 0.397 Q1.232 0.356 1.185 0.271" stroke="hsl(0.0,100%,35%)" stroke-width="0.01249"></path>
<path d="M1.077 0.397 Q0.844 0.791 1.561 0.990" stroke="hsl(0.0,100%,35%)" stroke-width="0.00545"></path>
<path d="M1.077 0.397 Q0.824 0.352 0.680 0.465" stroke="hsl(0.0,100%,35%)" stroke-width="0.00387"></path>
<path d="M1.077 0.397 Q1.084 0.690 1.658 0.751" stroke="hsl(0.0,100%,35%)" stroke-width="0.00598"></path>
<path d="M1.077 0.397 Q0.485 0.440 0.440 0.738" stroke="hsl(0.0,100%,35%)" stroke-width="0.00035"></path>
<path d="M1.077 0.397 Q0.631 0.522 0.776 0.767" stroke="hsl(0.0,100%,35%)" stroke-width="0.00070"></path>
<path d="M1.077 0.397 Q1.065 0.795 1.839 0.888" stroke="hsl(0.0,100%,35%)" stroke-width="0.00176"></path>
<path d="M1.077 0.397 Q0.935 0.684 1.464 0.816" stroke="hsl(0.0,100%,35%)" stroke-width="0.00141"></path>
<path d="M1.077 0.397 Q1.325 0.465 1.511 0.358" stroke="hsl(0.0,100%,35%)" stroke-width="0.00686"></path>
<path d="M1.077 0.397 Q1.031 0.324 0.878 0.330" stroke="hsl(0.0,100%,35%)" stroke-width="0.00405"></path>
<path d="M1.077 0.397 Q0.550 0.659 0.944 0.973" stroke="hsl(0.0,100%,35%)" stroke-width="0.00018"></path>
<path d="M1.077 0.397 Q1.183 0.457 1.323 0.418" stroke="hsl(0.0,100%,35%)" stroke-width="0.00686"></path>
<path d="M1.077 0.397 Q0.791 0.475 0.880 0.632" stroke="hsl(0.0,100%,35%)" stroke-width="0.00088"></path>
<path d="M1.077 0.397 Q1.386 0.582 1.814 0.472" stroke="hsl(0.0,100%,35%)" stroke-width="0.00053"></path>
<path d="M0.559 0.637 Q0.724 0.699 0.880 0.632" stroke="hsl(0.0,100%,35%)" stroke-width="0.01952"></path>
<path d="M0.559 0.637 Q0.999 1.019 1.839 0.888" stroke="hsl(0.0,100%,35%)" stroke-width="0.00176"></path>
<path d="M0.559 0.637 Q0.926 0.704 1.137 0.540" stroke="hsl(0.0,100%,35%)" stroke-width="0.00018"></path>
<path d="M0.559 0.637 Q1.010 0.621 1.077 0.397" stroke="hsl(0.0,100%,35%)" stroke-width="0.00018"></path>
<path d="M0.559 0.637 Q0.925 0.686 1.100 0.518" stroke="hsl(0.0,100%,35%)" stroke-width="0.00018"></path>
<path d="M0.559 0.637 Q1.017 0.914 1.658 0.751" stroke="hsl(0.0,100%,35%)" stroke-width="0.00088"></path>
<path d="M0.559 0.637 Q0.964 0.548 0.878 0.330" stroke="hsl(0.0,100%,35%)" stroke-width="0.00018"></path>
<path d="M0.559 0.637 Q0.803 0.841 1.255 0.767" stroke="hsl(0.0,100%,35%)" stroke-width="0.00053"></path>
<path d="M0.559 0.637 Q0.564 0.746 0.776 0.767" stroke="hsl(0.0,100%,35%)" stroke-width="0.00018"></path>
<path d="M0.559 0.637 Q0.835 0.785 1.183 0.682" stroke="hsl(0.0,100%,35%)" stroke-width="0.00018"></path>
<path d="M1.464 0.816 Q1.613 0.822 1.658 0.751" stroke="hsl(0.0,100%,35%)" stroke-width="0.01055"></path>
<path d="M1.464 0.816 Q1.594 0.927 1.839 0.888" stroke="hsl(0.0,100%,35%)" stroke-width="0.00246"></path>
<path d="M1.464 0.816 Q1.606 0.529 1.077 0.397" stroke="hsl(0.0,100%,35%)" stroke-width="0.00369"></path>
<path d="M1.464 0.816 Q1.320 0.607 0.880 0.632" stroke="hsl(0.0,100%,35%)" stroke-width="0.00457"></path>
<path d="M1.464 0.816 Q1.160 0.654 0.776 0.767" stroke="hsl(0.0,100%,35%)" stroke-width="0.00018"></path>
<path d="M1.464 0.816 Q1.854 0.597 1.511 0.358" stroke="hsl(0.0,100%,35%)" stroke-width="0.00141"></path>
<path d="M1.464 0.816 Q1.761 0.488 1.185 0.271" stroke="hsl(0.0,100%,35%)" stroke-width="0.00053"></path>
<path d="M1.464 0.816 Q1.915 0.714 1.814 0.472" stroke="hsl(0.0,100%,35%)" stroke-width="0.00018"></path>
<path d="M1.200 0.113 Q1.066 0.189 1.185 0.271" stroke="hsl(0.0,100%,35%)" stroke-width="0.00018"></path>
<path d="M1.200 0.113 Q0.625 0.308 0.880 0.632" stroke="hsl(0.0,100%,35%)" stroke-width="0.00018"></path>
<path d="M1.200 0.113 Q0.769 0.517 1.464 0.816" stroke="hsl(0.0,100%,35%)" stroke-width="0.00018"></path>
<path d="M0.994 0.454 Q1.329 0.509 1.511 0.358" stroke="hsl(0.0,100%,35%)" stroke-width="0.00018"></path>
<path d="M0.994 0.454 Q0.828 0.397 0.680 0.465" stroke="hsl(0.0,100%,35%)" stroke-width="0.00018"></path>
<path d="M0.994 0.454 Q1.080 0.442 1.077 0.397" stroke="hsl(0.0,100%,35%)" stroke-width="0.00035"></path>
<path d="M1.511 0.358 Q1.418 0.249 1.185 0.271" stroke="hsl(0.0,100%,35%)" stroke-width="0.00879"></path>
<path d="M1.511 0.358 Q1.010 0.245 0.680 0.465" stroke="hsl(0.0,100%,35%)" stroke-width="0.00616"></path>
<path d="M1.511 0.358 Q1.369 0.350 1.323 0.418" stroke="hsl(0.0,100%,35%)" stroke-width="0.00668"></path>
<path d="M1.511 0.358 Q0.977 0.369 0.880 0.632" stroke="hsl(0.0,100%,35%)" stroke-width="0.00088"></path>
<path d="M1.511 0.358 Q1.270 0.584 1.658 0.751" stroke="hsl(0.0,100%,35%)" stroke-width="0.00264"></path>
<path d="M1.511 0.358 Q1.263 0.291 1.077 0.397" stroke="hsl(0.0,100%,35%)" stroke-width="0.01266"></path>
<path d="M1.511 0.358 Q0.736 0.552 0.944 0.973" stroke="hsl(0.0,100%,35%)" stroke-width="0.00053"></path>
<path d="M1.511 0.358 Q0.599 0.497 0.669 0.973" stroke="hsl(0.0,100%,35%)" stroke-width="0.00018"></path>
<path d="M1.511 0.358 Q1.572 0.476 1.814 0.472" stroke="hsl(0.0,100%,35%)" stroke-width="0.00053"></path>
<path d="M1.511 0.358 Q1.121 0.578 1.464 0.816" stroke="hsl(0.0,100%,35%)" stroke-width="0.00018"></path>
<path d="M1.511 0.358 Q1.251 0.689 1.839 0.888" stroke="hsl(0.0,100%,35%)" stroke-width="0.00211"></path>
<path d="M1.137 0.540 Q0.939 0.584 0.982 0.690" stroke="hsl(0.0,100%,35%)" stroke-width="0.00053"></path>
<path d="M1.137 0.540 Q0.770 0.473 0.559 0.637" stroke="hsl(0.0,100%,35%)" stroke-width="0.00018"></path>
<path d="M1.137 0.540 Q0.935 0.534 0.880 0.632" stroke="hsl(0.0,100%,35%)" stroke-width="0.00053"></path>
<path d="M1.137 0.540 Q1.221 0.456 1.077 0.397" stroke="hsl(0.0,100%,35%)" stroke-width="0.00018"></path>
<path d="M0.982 0.690 Q1.512 0.630 1.511 0.358" stroke="hsl(0.0,100%,35%)" stroke-width="0.00018"></path>
<path d="M0.982 0.690 Q0.978 0.640 0.880 0.632" stroke="hsl(0.0,100%,35%)" stroke-width="0.00035"></path>
<path d="M0.982 0.690 Q1.057 0.783 1.255 0.767" stroke="hsl(0.0,100%,35%)" stroke-width="0.00018"></path>
<path d="M0.982 0.690 Q0.812 0.579 0.559 0.637" stroke="hsl(0.0,100%,35%)" stroke-width="0.00018"></path>
<path d="M0.982 0.690 Q1.180 0.646 1.137 0.540" stroke="hsl(0.0,100%,35%)" stroke-width="0.00018"></path>
<path d="M1.814 0.472 Q0.818 0.192 0.053 0.617" stroke="hsl(0.0,100%,35%)" stroke-width="0.00018"></path>
<path d="M1.814 0.472 Q1.059 0.412 0.776 0.767" stroke="hsl(0.0,100%,35%)" stroke-width="0.00106"></path>
<path d="M1.814 0.472 Q1.219 0.365 0.880 0.632" stroke="hsl(0.0,100%,35%)" stroke-width="0.00264"></path>
<path d="M1.814 0.472 Q1.494 0.685 1.839 0.888" stroke="hsl(0.0,100%,35%)" stroke-width="0.00018"></path>
<path d="M1.814 0.472 Q1.712 0.514 1.771 0.573" stroke="hsl(0.0,100%,35%)" stroke-width="0.00334"></path>
<path d="M1.814 0.472 Q1.513 0.580 1.658 0.751" stroke="hsl(0.0,100%,35%)" stroke-width="0.00141"></path>
<path d="M1.814 0.472 Q1.754 0.355 1.511 0.358" stroke="hsl(0.0,100%,35%)" stroke-width="0.00035"></path>
<path d="M1.814 0.472 Q1.505 0.287 1.077 0.397" stroke="hsl(0.0,100%,35%)" stroke-width="0.00018"></path>
<path d="M1.814 0.472 Q0.978 0.549 0.944 0.973" stroke="hsl(0.0,100%,35%)" stroke-width="0.00018"></path>
<path d="M1.814 0.472 Q1.613 0.441 1.508 0.532" stroke="hsl(0.0,100%,35%)" stroke-width="0.00018"></path>
<path d="M1.073 0.903 Q1.227 0.606 0.680 0.465" stroke="hsl(0.0,100%,35%)" stroke-width="0.00070"></path>
<path d="M1.073 0.903 Q1.194 0.729 0.880 0.632" stroke="hsl(0.0,100%,35%)" stroke-width="0.00018"></path>
<path d="M1.073 0.903 Q1.468 1.049 1.839 0.888" stroke="hsl(0.0,100%,35%)" stroke-width="0.00088"></path>
<path d="M1.073 0.903 Q0.953 0.912 0.944 0.973" stroke="hsl(0.0,100%,35%)" stroke-width="0.00246"></path>
<path d="M1.073 0.903 Q1.728 0.718 1.511 0.358" stroke="hsl(0.0,100%,35%)" stroke-width="0.00088"></path>
<path d="M1.073 0.903 Q1.586 0.710 1.323 0.418" stroke="hsl(0.0,100%,35%)" stroke-width="0.00035"></path>
<path d="M1.073 0.903 Q1.113 0.963 1.239 0.957" stroke="hsl(0.0,100%,35%)" stroke-width="0.00018"></path>
<path d="M1.073 0.903 Q1.487 0.944 1.658 0.751" stroke="hsl(0.0,100%,35%)" stroke-width="0.00018"></path>
<path d="M1.073 0.903 Q1.033 0.776 0.776 0.767" stroke="hsl(0.0,100%,35%)" stroke-width="0.00018"></path>
<path d="M0.440 0.738 Q0.585 0.820 0.776 0.767" stroke="hsl(0.0,100%,35%)" stroke-width="0.00475"></path>
<path d="M0.440 0.738 Q0.745 0.773 0.880 0.632" stroke="hsl(0.0,100%,35%)" stroke-width="0.00088"></path>
<path d="M0.440 0.738 Q1.039 0.988 1.658 0.751" stroke="hsl(0.0,100%,35%)" stroke-width="0.00053"></path>
<path d="M0.440 0.738 Q1.138 0.755 1.323 0.418" stroke="hsl(0.0,100%,35%)" stroke-width="0.00018"></path>
<path d="M0.440 0.738 Q0.580 0.712 0.559 0.637" stroke="hsl(0.0,100%,35%)" stroke-width="0.00018"></path>
<path d="M0.440 0.738 Q1.187 0.654 1.185 0.271" stroke="hsl(0.0,100%,35%)" stroke-width="0.00018"></path>
<path d="M0.440 0.738 Q1.340 0.880 1.814 0.472" stroke="hsl(0.0,100%,35%)" stroke-width="0.00018"></path>
<path d="M0.440 0.738 Q0.857 0.859 1.183 0.682" stroke="hsl(0.0,100%,35%)" stroke-width="0.00018"></path>
<path d="M1.771 0.573 Q1.278 0.424 0.880 0.632" stroke="hsl(0.0,100%,35%)" stroke-width="0.00106"></path>
<path d="M1.771 0.573 Q1.873 0.531 1.814 0.472" stroke="hsl(0.0,100%,35%)" stroke-width="0.00545"></path>
<path d="M1.771 0.573 Q1.720 0.305 1.185 0.271" stroke="hsl(0.0,100%,35%)" stroke-width="0.00018"></path>
<path d="M1.771 0.573 Q1.813 0.414 1.511 0.358" stroke="hsl(0.0,100%,35%)" stroke-width="0.00018"></path>
<path d="M0.641 0.578 Q0.751 0.529 0.680 0.465" stroke="hsl(0.0,100%,35%)" stroke-width="0.00264"></path>
<path d="M0.641 0.578 Q1.252 0.642 1.511 0.358" stroke="hsl(0.0,100%,35%)" stroke-width="0.00053"></path>
<path d="M0.641 0.578 Q0.958 0.502 0.878 0.330" stroke="hsl(0.0,100%,35%)" stroke-width="0.00018"></path>
<path d="M0.641 0.578 Q0.992 0.973 1.839 0.888" stroke="hsl(0.0,100%,35%)" stroke-width="0.00018"></path>
<path d="M0.641 0.578 Q1.011 0.868 1.658 0.751" stroke="hsl(0.0,100%,35%)" stroke-width="0.00018"></path>
<path d="M0.641 0.578 Q1.003 0.575 1.077 0.397" stroke="hsl(0.0,100%,35%)" stroke-width="0.00070"></path>
<path d="M0.641 0.578 Q0.718 0.653 0.880 0.632" stroke="hsl(0.0,100%,35%)" stroke-width="0.00053"></path>
<path d="M1.183 0.682 Q0.912 0.643 0.776 0.767" stroke="hsl(0.0,100%,35%)" stroke-width="0.00827"></path>
<path d="M1.183 0.682 Q0.766 0.561 0.440 0.738" stroke="hsl(0.0,100%,35%)" stroke-width="0.00035"></path>
<path d="M1.183 0.682 Q1.072 0.596 0.880 0.632" stroke="hsl(0.0,100%,35%)" stroke-width="0.00422"></path>
<path d="M1.183 0.682 Q1.365 0.811 1.658 0.751" stroke="hsl(0.0,100%,35%)" stroke-width="0.00070"></path>
<path d="M1.183 0.682 Q1.105 0.473 0.680 0.465" stroke="hsl(0.0,100%,35%)" stroke-width="0.00018"></path>
<path d="M1.183 0.682 Q1.667 0.703 1.814 0.472" stroke="hsl(0.0,100%,35%)" stroke-width="0.00018"></path>
<path d="M1.183 0.682 Q0.991 0.831 1.239 0.957" stroke="hsl(0.0,100%,35%)" stroke-width="0.00018"></path>
<path d="M1.183 0.682 Q0.831 0.780 0.944 0.973" stroke="hsl(0.0,100%,35%)" stroke-width="0.00018"></path>
<path d="M1.326 0.621 Q1.388 0.752 1.658 0.751" stroke="hsl(0.0,100%,35%)" stroke-width="0.00211"></path>
<path d="M1.326 0.621 Q0.853 0.721 0.944 0.973" stroke="hsl(0.0,100%,35%)" stroke-width="0.00070"></path>
<path d="M1.326 0.621 Q0.716 0.665 0.669 0.973" stroke="hsl(0.0,100%,35%)" stroke-width="0.00018"></path>
<path d="M1.100 0.518 Q0.899 0.531 0.880 0.632" stroke="hsl(0.0,100%,35%)" stroke-width="0.00475"></path>
<path d="M1.100 0.518 Q0.734 0.470 0.559 0.637" stroke="hsl(0.0,100%,35%)" stroke-width="0.00053"></path>
<path d="M1.100 0.518 Q0.978 0.673 1.255 0.767" stroke="hsl(0.0,100%,35%)" stroke-width="0.00035"></path>
<path d="M1.100 0.518 Q1.185 0.453 1.077 0.397" stroke="hsl(0.0,100%,35%)" stroke-width="0.00070"></path>
<path d="M1.100 0.518 Q0.739 0.578 0.776 0.767" stroke="hsl(0.0,100%,35%)" stroke-width="0.00018"></path>
<path d="M1.100 0.518 Q0.497 0.358 0.053 0.617" stroke="hsl(0.0,100%,35%)" stroke-width="0.00035"></path>
<path d="M1.100 0.518 Q0.419 0.497 0.229 0.825" stroke="hsl(0.0,100%,35%)" stroke-width="0.00018"></path>
<path d="M1.100 0.518 Q1.173 0.851 1.839 0.888" stroke="hsl(0.0,100%,35%)" stroke-width="0.00070"></path>
<path d="M1.100 0.518 Q0.903 0.580 0.982 0.690" stroke="hsl(0.0,100%,35%)" stroke-width="0.00035"></path>
<path d="M1.100 0.518 Q1.101 0.536 1.137 0.540" stroke="hsl(0.0,100%,35%)" stroke-width="0.00018"></path>
<path d="M1.100 0.518 Q1.192 0.746 1.658 0.751" stroke="hsl(0.0,100%,35%)" stroke-width="0.00035"></path>
<path d="M0.053 0.617 Q0.657 0.795 1.137 0.540" stroke="hsl(0.0,100%,35%)" stroke-width="0.00053"></path>
<path d="M0.053 0.617 Q-0.025 0.756 0.229 0.825" stroke="hsl(0.0,100%,35%)" stroke-width="0.00246"></path>
<path d="M0.053 0.617 Q0.455 0.790 0.880 0.632" stroke="hsl(0.0,100%,35%)" stroke-width="0.00018"></path>
<path d="M0.053 0.617 Q0.655 0.777 1.100 0.518" stroke="hsl(0.0,100%,35%)" stroke-width="0.00106"></path>
<path d="M0.053 0.617 Q0.989 0.779 1.511 0.358" stroke="hsl(0.0,100%,35%)" stroke-width="0.00018"></path>
<path d="M0.395 0.431 Q0.510 0.505 0.680 0.465" stroke="hsl(0.0,100%,35%)" stroke-width="0.00053"></path>
<path d="M0.395 0.431 Q0.717 0.477 0.878 0.330" stroke="hsl(0.0,100%,35%)" stroke-width="0.00018"></path>
<path d="M0.395 0.431 Q0.918 0.509 1.185 0.271" stroke="hsl(0.0,100%,35%)" stroke-width="0.00035"></path>
<path d="M0.395 0.431 Q0.770 0.843 1.658 0.751" stroke="hsl(0.0,100%,35%)" stroke-width="0.00018"></path>
<path d="M0.395 0.431 Q0.763 0.550 1.077 0.397" stroke="hsl(0.0,100%,35%)" stroke-width="0.00018"></path>
<path d="M0.167 0.695 Q0.268 0.771 0.440 0.738" stroke="hsl(0.0,100%,35%)" stroke-width="0.00018"></path>
<path d="M0.167 0.695 Q0.574 0.806 0.880 0.632" stroke="hsl(0.0,100%,35%)" stroke-width="0.00018"></path>
<path d="M0.167 0.695 Q0.867 1.021 1.658 0.751" stroke="hsl(0.0,100%,35%)" stroke-width="0.00018"></path>
<path d="M1.358 0.658 Q1.141 0.549 0.880 0.632" stroke="hsl(0.0,100%,35%)" stroke-width="0.00018"></path>
<path d="M1.358 0.658 Q1.434 0.765 1.658 0.751" stroke="hsl(0.0,100%,35%)" stroke-width="0.00018"></path>
<path d="M1.358 0.658 Q0.899 0.733 0.944 0.973" stroke="hsl(0.0,100%,35%)" stroke-width="0.00018"></path>
<path d="M1.627 0.415 Q1.373 0.589 1.658 0.751" stroke="hsl(0.0,100%,35%)" stroke-width="0.00053"></path>
<path d="M1.627 0.415 Q1.674 0.481 1.814 0.472" stroke="hsl(0.0,100%,35%)" stroke-width="0.00018"></path>
<path d="M1.627 0.415 Q0.919 0.421 0.776 0.767" stroke="hsl(0.0,100%,35%)" stroke-width="0.00035"></path>
<path d="M0.805 0.436 Q0.720 0.426 0.680 0.465" stroke="hsl(0.0,100%,35%)" stroke-width="0.00246"></path>
<path d="M0.805 0.436 Q1.128 0.430 1.185 0.271" stroke="hsl(0.0,100%,35%)" stroke-width="0.00229"></path>
<path d="M0.805 0.436 Q0.972 0.471 1.077 0.397" stroke="hsl(0.0,100%,35%)" stroke-width="0.00018"></path>
<path d="M0.787 0.141 Q0.735 0.620 1.658 0.751" stroke="hsl(0.0,100%,35%)" stroke-width="0.00018"></path>
<path d="M0.787 0.141 Q0.883 0.286 1.185 0.271" stroke="hsl(0.0,100%,35%)" stroke-width="0.00035"></path>
<path d="M0.787 0.141 Q0.441 0.405 0.880 0.632" stroke="hsl(0.0,100%,35%)" stroke-width="0.00018"></path>
<path d="M0.787 0.141 Q0.727 0.327 1.077 0.397" stroke="hsl(0.0,100%,35%)" stroke-width="0.00035"></path>
<path d="M0.787 0.141 Q0.475 0.282 0.680 0.465" stroke="hsl(0.0,100%,35%)" stroke-width="0.00018"></path>
<path d="M1.580 0.502 Q1.721 0.534 1.814 0.472" stroke="hsl(0.0,100%,35%)" stroke-width="0.00229"></path>
<path d="M1.580 0.502 Q0.966 0.474 0.776 0.767" stroke="hsl(0.0,100%,35%)" stroke-width="0.00193"></path>
<path d="M1.580 0.502 Q1.420 0.642 1.658 0.751" stroke="hsl(0.0,100%,35%)" stroke-width="0.00193"></path>
<path d="M1.580 0.502 Q1.661 0.416 1.511 0.358" stroke="hsl(0.0,100%,35%)" stroke-width="0.00018"></path>
<path d="M0.758 0.853 Q0.755 0.950 0.944 0.973" stroke="hsl(0.0,100%,35%)" stroke-width="0.00088"></path>
<path d="M0.758 0.853 Q1.289 0.982 1.658 0.751" stroke="hsl(0.0,100%,35%)" stroke-width="0.00018"></path>
<path d="M0.758 0.853 Q1.140 0.976 1.464 0.816" stroke="hsl(0.0,100%,35%)" stroke-width="0.00018"></path>
<path d="M0.917 0.109 Q0.922 0.244 1.185 0.271" stroke="hsl(0.0,100%,35%)" stroke-width="0.00193"></path>
<path d="M0.917 0.109 Q0.514 0.240 0.680 0.465" stroke="hsl(0.0,100%,35%)" stroke-width="0.00106"></path>
<path d="M0.917 0.109 Q1.015 0.353 1.511 0.358" stroke="hsl(0.0,100%,35%)" stroke-width="0.00018"></path>
<path d="M0.917 0.109 Q0.774 0.578 1.658 0.751" stroke="hsl(0.0,100%,35%)" stroke-width="0.00053"></path>
<path d="M0.917 0.109 Q0.360 0.537 1.073 0.903" stroke="hsl(0.0,100%,35%)" stroke-width="0.00018"></path>
<path d="M0.917 0.109 Q0.625 0.572 1.464 0.816" stroke="hsl(0.0,100%,35%)" stroke-width="0.00018"></path>
<path d="M0.917 0.109 Q0.320 0.410 0.776 0.767" stroke="hsl(0.0,100%,35%)" stroke-width="0.00018"></path>
<path d="M1.961 0.611 Q1.698 0.621 1.658 0.751" stroke="hsl(0.0,100%,35%)" stroke-width="0.00053"></path>
<path d="M1.961 0.611 Q1.549 0.615 1.464 0.816" stroke="hsl(0.0,100%,35%)" stroke-width="0.00035"></path>
<path d="M1.961 0.611 Q1.679 0.725 1.839 0.888" stroke="hsl(0.0,100%,35%)" stroke-width="0.00018"></path>
<path d="M1.563 0.180 Q1.302 0.150 1.185 0.271" stroke="hsl(0.0,100%,35%)" stroke-width="0.00176"></path>
<path d="M1.563 0.180 Q0.894 0.146 0.680 0.465" stroke="hsl(0.0,100%,35%)" stroke-width="0.00106"></path>
<path d="M1.563 0.180 Q1.146 0.192 1.077 0.397" stroke="hsl(0.0,100%,35%)" stroke-width="0.00088"></path>
<path d="M1.563 0.180 Q1.154 0.485 1.658 0.751" stroke="hsl(0.0,100%,35%)" stroke-width="0.00053"></path>
<path d="M1.563 0.180 Q1.005 0.479 1.464 0.816" stroke="hsl(0.0,100%,35%)" stroke-width="0.00018"></path>
<path d="M1.563 0.180 Q0.861 0.269 0.880 0.632" stroke="hsl(0.0,100%,35%)" stroke-width="0.00053"></path>
<path d="M1.563 0.180 Q1.253 0.251 1.323 0.418" stroke="hsl(0.0,100%,35%)" stroke-width="0.00018"></path>
</g>
<text x="1.166" y="0.459" font-size="0.005120" fill="hsl(0.0,100%,20%)">aperez</text>
<text x="0.944" y="0.963" font-size="0.020736" fill="hsl(0.0,100%,20%)">scroggo</text>
<text x="1.658" y="0.714" font-size="0.074097" fill="hsl(0.0,100%,20%)">brianosman</text>
<text x="0.776" y="0.746" font-size="0.042348" fill="hsl(0.0,100%,20%)">bungeman</text>
<text x="0.680" y="0.446" font-size="0.038250" fill="hsl(0.0,100%,20%)">egdaniel</text>
<text x="0.880" y="0.597" font-size="0.069871" fill="hsl(0.0,100%,20%)">kjlubick</text>
<text x="1.561" y="0.970" font-size="0.040707" fill="hsl(0.0,100%,20%)">armansito</text>
<text x="1.839" y="0.849" font-size="0.077723" fill="hsl(0.0,100%,20%)">johnstiles</text>
<text x="1.185" y="0.240" font-size="0.061060" fill="hsl(0.0,100%,20%)">michaelludwig</text>
<text x="1.323" y="0.399" font-size="0.036995" fill="hsl(0.0,100%,20%)">nicolettep</text>
<text x="0.878" y="0.315" font-size="0.030293" fill="hsl(0.0,100%,20%)">jamesgk</text>
<text x="1.077" y="0.370" font-size="0.053899" fill="hsl(0.0,100%,20%)">jvanverth</text>
<text x="0.559" y="0.622" font-size="0.030637" fill="hsl(0.0,100%,20%)">lovisolo</text>
<text x="1.464" y="0.797" font-size="0.037836" fill="hsl(0.0,100%,20%)">herb</text>
<text x="1.200" y="0.111" font-size="0.003966" fill="hsl(0.0,100%,20%)">ayzhao</text>
<text x="0.994" y="0.451" font-size="0.004580" fill="hsl(0.0,100%,20%)">blundell</text>
<text x="1.511" y="0.333" font-size="0.051153" fill="hsl(0.0,100%,20%)">robertphillips</text>
<text x="1.137" y="0.534" font-size="0.011899" fill="hsl(0.0,100%,20%)">borenet</text>
<text x="0.982" y="0.685" font-size="0.009160" fill="hsl(0.0,100%,20%)">rmistry</text>
<text x="1.814" y="0.458" font-size="0.027288" fill="hsl(0.0,100%,20%)">fmalita</text>
<text x="0.669" y="0.970" font-size="0.005609" fill="hsl(0.0,100%,20%)">jreck</text>
<text x="1.073" y="0.895" font-size="0.016828" fill="hsl(0.0,100%,20%)">nscobie</text>
<text x="0.440" y="0.729" font-size="0.019022" fill="hsl(0.0,100%,20%)">jlavrova</text>
<text x="1.771" y="0.563" font-size="0.018744" fill="hsl(0.0,100%,20%)">jmbetancourt</text>
<text x="0.641" y="0.572" font-size="0.012117" fill="hsl(0.0,100%,20%)">briansalomon</text>
<text x="1.183" y="0.671" font-size="0.022437" fill="hsl(0.0,100%,20%)">drott</text>
<text x="1.326" y="0.616" font-size="0.009982" fill="hsl(0.0,100%,20%)">ccameron</text>
<text x="1.100" y="0.508" font-size="0.019022" fill="hsl(0.0,100%,20%)">cmumford</text>
<text x="1.255" y="0.763" font-size="0.007933" fill="hsl(0.0,100%,20%)">jcgregorio</text>
<text x="0.053" y="0.611" font-size="0.012117" fill="hsl(0.0,100%,20%)">sharaks</text>
<text x="0.229" y="0.820" font-size="0.008869" fill="hsl(0.0,100%,20%)">hcm</text>
<text x="1.239" y="0.954" font-size="0.006059" fill="hsl(0.0,100%,20%)">djsollen</text>
<text x="1.508" y="0.530" font-size="0.002290" fill="hsl(0.0,100%,20%)">bwils</text>
<text x="0.395" y="0.427" font-size="0.006477" fill="hsl(0.0,100%,20%)">hitawala</text>
<text x="0.167" y="0.693" font-size="0.003966" fill="hsl(0.0,100%,20%)">jacksongardner</text>
<text x="1.358" y="0.656" font-size="0.003966" fill="hsl(0.0,100%,20%)">jgaillard</text>
<text x="1.028" y="1.382" font-size="0.003238" fill="hsl(0.0,100%,20%)">tdenniston</text>
<text x="1.627" y="0.412" font-size="0.005609" fill="hsl(0.0,100%,20%)">kschmi</text>
<text x="0.805" y="0.430" font-size="0.012117" fill="hsl(0.0,100%,20%)">lehoangquyen</text>
<text x="0.787" y="0.138" font-size="0.006059" fill="hsl(0.0,100%,20%)">lokokung</text>
<text x="1.580" y="0.495" font-size="0.013740" fill="hsl(0.0,100%,20%)">mike</text>
<text x="0.758" y="0.850" font-size="0.006059" fill="hsl(0.0,100%,20%)">nigeltao</text>
<text x="0.917" y="0.104" font-size="0.011218" fill="hsl(0.0,100%,20%)">penghuang</text>
<text x="1.961" y="0.609" font-size="0.005609" fill="hsl(0.0,100%,20%)">sky</text>
<text x="1.563" y="0.174" font-size="0.012332" fill="hsl(0.0,100%,20%)">sunnyps</text>
</svg>
