<svg width="4000" height="2000" viewBox="-0.025 -0.025 2.05 1.05" xmlns="http://www.w3.org/2000/svg">
  <style>
    path {
      fill: none;
      stroke-linecap: round;
      stroke-opacity: 0.4;
    }

    text {
      text-anchor: middle;
      alignment-baseline: hanging;
    }
  </style>
  <g opacity="0.4">
<path d="M0.546 0.069 Q0.457 0.551 1.378 0.701" stroke="hsl(0.0,100%,35%)" stroke-width="0.00198"></path>
<path d="M0.546 0.069 Q0.755 0.266 1.185 0.207" stroke="hsl(0.0,100%,35%)" stroke-width="0.00198"></path>
<path d="M0.546 0.069 Q0.115 0.147 0.173 0.375" stroke="hsl(0.0,100%,35%)" stroke-width="0.00198"></path>
<path d="M0.546 0.069 Q0.501 0.087 0.526 0.113" stroke="hsl(0.0,100%,35%)" stroke-width="0.00198"></path>
<path d="M0.546 0.069 Q0.304 0.201 0.509 0.349" stroke="hsl(0.0,100%,35%)" stroke-width="0.00198"></path>
<path d="M1.185 0.207 Q0.545 0.089 0.173 0.375" stroke="hsl(0.0,100%,35%)" stroke-width="0.00595"></path>
<path d="M1.185 0.207 Q1.067 0.309 1.241 0.389" stroke="hsl(0.0,100%,35%)" stroke-width="0.00397"></path>
<path d="M1.185 0.207 Q0.499 0.272 0.474 0.620" stroke="hsl(0.0,100%,35%)" stroke-width="0.00198"></path>
<path d="M1.185 0.207 Q0.611 0.365 0.793 0.680" stroke="hsl(0.0,100%,35%)" stroke-width="0.00793"></path>
<path d="M1.185 0.207 Q0.364 0.161 0.094 0.551" stroke="hsl(0.0,100%,35%)" stroke-width="0.00198"></path>
<path d="M1.185 0.207 Q0.734 0.143 0.509 0.349" stroke="hsl(0.0,100%,35%)" stroke-width="0.00198"></path>
<path d="M1.185 0.207 Q1.339 0.230 1.418 0.160" stroke="hsl(0.0,100%,35%)" stroke-width="0.00793"></path>
<path d="M0.173 0.375 Q-0.258 0.655 0.196 0.927" stroke="hsl(0.0,100%,35%)" stroke-width="0.00198"></path>
<path d="M0.173 0.375 Q0.450 0.316 0.396 0.168" stroke="hsl(0.0,100%,35%)" stroke-width="0.00198"></path>
<path d="M0.173 0.375 Q0.813 0.493 1.185 0.207" stroke="hsl(0.0,100%,35%)" stroke-width="0.01587"></path>
<path d="M0.173 0.375 Q0.695 0.596 1.241 0.389" stroke="hsl(0.0,100%,35%)" stroke-width="0.00198"></path>
<path d="M0.173 0.375 Q0.258 0.303 0.137 0.246" stroke="hsl(0.0,100%,35%)" stroke-width="0.00198"></path>
<path d="M0.509 0.349 Q0.725 0.329 0.735 0.219" stroke="hsl(0.0,100%,35%)" stroke-width="0.02182"></path>
<path d="M0.509 0.349 Q0.274 0.478 0.474 0.620" stroke="hsl(0.0,100%,35%)" stroke-width="0.00595"></path>
<path d="M0.509 0.349 Q0.320 0.295 0.173 0.375" stroke="hsl(0.0,100%,35%)" stroke-width="0.01388"></path>
<path d="M0.509 0.349 Q-0.110 0.575 0.196 0.927" stroke="hsl(0.0,100%,35%)" stroke-width="0.01388"></path>
<path d="M0.509 0.349 Q0.532 0.425 0.686 0.430" stroke="hsl(0.0,100%,35%)" stroke-width="0.00793"></path>
<path d="M0.509 0.349 Q0.706 0.234 0.526 0.113" stroke="hsl(0.0,100%,35%)" stroke-width="0.00397"></path>
<path d="M0.509 0.349 Q0.960 0.413 1.185 0.207" stroke="hsl(0.0,100%,35%)" stroke-width="0.00793"></path>
<path d="M0.509 0.349 Q1.114 0.436 1.418 0.160" stroke="hsl(0.0,100%,35%)" stroke-width="0.00198"></path>
<path d="M0.509 0.349 Q0.386 0.571 0.793 0.680" stroke="hsl(0.0,100%,35%)" stroke-width="0.00198"></path>
<path d="M0.509 0.349 Q0.635 0.503 0.964 0.475" stroke="hsl(0.0,100%,35%)" stroke-width="0.00198"></path>
<path d="M0.509 0.349 Q0.140 0.367 0.094 0.551" stroke="hsl(0.0,100%,35%)" stroke-width="0.00397"></path>
<path d="M1.241 0.389 Q1.359 0.287 1.185 0.207" stroke="hsl(180.0,100%,35%)" stroke-width="0.04363"></path>
<path d="M1.241 0.389 Q0.785 0.445 0.793 0.680" stroke="hsl(180.0,100%,35%)" stroke-width="0.01388"></path>
<path d="M1.241 0.389 Q0.673 0.352 0.474 0.620" stroke="hsl(180.0,100%,35%)" stroke-width="0.00595"></path>
<path d="M1.241 0.389 Q0.907 0.223 0.509 0.349" stroke="hsl(180.0,100%,35%)" stroke-width="0.00397"></path>
<path d="M1.241 0.389 Q1.513 0.310 1.418 0.160" stroke="hsl(180.0,100%,35%)" stroke-width="0.00397"></path>
<path d="M0.474 0.620 Q1.043 0.658 1.241 0.389" stroke="hsl(180.0,100%,35%)" stroke-width="0.01587"></path>
<path d="M0.474 0.620 Q0.340 0.510 0.094 0.551" stroke="hsl(180.0,100%,35%)" stroke-width="0.01587"></path>
<path d="M0.474 0.620 Q0.586 0.714 0.793 0.680" stroke="hsl(180.0,100%,35%)" stroke-width="0.00397"></path>
<path d="M0.474 0.620 Q1.160 0.556 1.185 0.207" stroke="hsl(180.0,100%,35%)" stroke-width="0.00198"></path>
<path d="M0.474 0.620 Q0.090 0.718 0.196 0.927" stroke="hsl(180.0,100%,35%)" stroke-width="0.00397"></path>
<path d="M0.793 0.680 Q0.681 0.586 0.474 0.620" stroke="hsl(180.0,100%,35%)" stroke-width="0.01587"></path>
<path d="M0.793 0.680 Q0.666 0.803 0.878 0.892" stroke="hsl(180.0,100%,35%)" stroke-width="0.01190"></path>
<path d="M0.793 0.680 Q1.249 0.624 1.241 0.389" stroke="hsl(180.0,100%,35%)" stroke-width="0.00397"></path>
<path d="M0.793 0.680 Q1.367 0.522 1.185 0.207" stroke="hsl(180.0,100%,35%)" stroke-width="0.00595"></path>
<path d="M0.793 0.680 Q0.727 0.403 0.173 0.375" stroke="hsl(180.0,100%,35%)" stroke-width="0.00198"></path>
<path d="M0.793 0.680 Q0.916 0.457 0.509 0.349" stroke="hsl(180.0,100%,35%)" stroke-width="0.00198"></path>
<path d="M0.094 0.551 Q0.341 0.755 0.793 0.680" stroke="hsl(180.0,100%,35%)" stroke-width="0.02380"></path>
<path d="M0.094 0.551 Q0.026 0.590 0.086 0.632" stroke="hsl(180.0,100%,35%)" stroke-width="0.01388"></path>
<path d="M0.094 0.551 Q0.229 0.662 0.474 0.620" stroke="hsl(180.0,100%,35%)" stroke-width="0.00793"></path>
<path d="M0.094 0.551 Q0.214 0.878 0.878 0.892" stroke="hsl(180.0,100%,35%)" stroke-width="0.00397"></path>
<path d="M0.094 0.551 Q1.069 0.620 1.418 0.160" stroke="hsl(180.0,100%,35%)" stroke-width="0.00397"></path>
<path d="M0.094 0.551 Q0.915 0.597 1.185 0.207" stroke="hsl(180.0,100%,35%)" stroke-width="0.00198"></path>
<path d="M0.094 0.551 Q0.680 0.513 0.735 0.219" stroke="hsl(180.0,100%,35%)" stroke-width="0.00198"></path>
<path d="M0.308 0.133 Q0.001 0.410 0.474 0.620" stroke="hsl(180.0,100%,35%)" stroke-width="0.00397"></path>
<path d="M0.308 0.133 Q0.433 0.166 0.526 0.113" stroke="hsl(180.0,100%,35%)" stroke-width="0.00397"></path>
<path d="M0.308 0.133 Q-0.134 0.299 0.094 0.551" stroke="hsl(180.0,100%,35%)" stroke-width="0.00397"></path>
<path d="M0.196 0.927 Q1.266 0.765 1.185 0.207" stroke="hsl(0.0,100%,35%)" stroke-width="0.00198"></path>
<path d="M0.196 0.927 Q0.815 0.701 0.509 0.349" stroke="hsl(0.0,100%,35%)" stroke-width="0.00595"></path>
<path d="M0.196 0.927 Q0.580 0.829 0.474 0.620" stroke="hsl(0.0,100%,35%)" stroke-width="0.00198"></path>
<path d="M0.137 0.246 Q0.052 0.318 0.173 0.375" stroke="hsl(0.0,100%,35%)" stroke-width="0.01388"></path>
<path d="M0.137 0.246 Q0.692 0.436 1.185 0.207" stroke="hsl(0.0,100%,35%)" stroke-width="0.00198"></path>
<path d="M0.137 0.246 Q0.329 0.259 0.396 0.168" stroke="hsl(0.0,100%,35%)" stroke-width="0.00198"></path>
<path d="M0.491 0.476 Q0.602 0.416 0.509 0.349" stroke="hsl(0.0,100%,35%)" stroke-width="0.00198"></path>
<path d="M0.491 0.476 Q1.053 0.481 1.185 0.207" stroke="hsl(0.0,100%,35%)" stroke-width="0.00198"></path>
<path d="M0.491 0.476 Q0.755 0.766 1.378 0.701" stroke="hsl(0.0,100%,35%)" stroke-width="0.00198"></path>
<path d="M0.686 0.430 Q1.114 0.419 1.185 0.207" stroke="hsl(0.0,100%,35%)" stroke-width="0.00198"></path>
<path d="M0.686 0.430 Q0.663 0.354 0.509 0.349" stroke="hsl(0.0,100%,35%)" stroke-width="0.02777"></path>
<path d="M0.686 0.430 Q0.559 0.228 0.137 0.246" stroke="hsl(0.0,100%,35%)" stroke-width="0.00198"></path>
<path d="M0.322 0.787 Q1.217 0.669 1.185 0.207" stroke="hsl(0.0,100%,35%)" stroke-width="0.00397"></path>
<path d="M0.322 0.787 Q0.577 0.551 0.173 0.375" stroke="hsl(0.0,100%,35%)" stroke-width="0.00397"></path>
<path d="M0.322 0.787 Q0.531 0.734 0.474 0.620" stroke="hsl(0.0,100%,35%)" stroke-width="0.00198"></path>
<path d="M0.322 0.787 Q0.147 0.831 0.196 0.927" stroke="hsl(0.0,100%,35%)" stroke-width="0.00595"></path>
<path d="M1.695 0.723 Q1.167 0.428 0.474 0.620" stroke="hsl(0.0,100%,35%)" stroke-width="0.00198"></path>
<path d="M1.695 0.723 Q1.555 0.649 1.378 0.701" stroke="hsl(0.0,100%,35%)" stroke-width="0.01388"></path>
<path d="M1.695 0.723 Q1.618 0.279 0.735 0.219" stroke="hsl(0.0,100%,35%)" stroke-width="0.00198"></path>
<path d="M1.204 0.642 Q0.969 0.579 0.793 0.680" stroke="hsl(180.0,100%,35%)" stroke-width="0.00793"></path>
<path d="M1.204 0.642 Q1.384 0.781 1.695 0.723" stroke="hsl(180.0,100%,35%)" stroke-width="0.00198"></path>
<path d="M1.204 0.642 Q1.697 0.444 1.418 0.160" stroke="hsl(180.0,100%,35%)" stroke-width="0.00198"></path>
<path d="M1.204 0.642 Q0.902 0.302 0.173 0.375" stroke="hsl(180.0,100%,35%)" stroke-width="0.00198"></path>
<path d="M1.204 0.642 Q1.288 0.242 0.526 0.113" stroke="hsl(180.0,100%,35%)" stroke-width="0.00198"></path>
</g>
<text x="0.546" y="0.059" font-size="0.020121" fill="hsl(0.0,100%,20%)">aperez</text>
<text x="1.378" y="0.687" font-size="0.026995" fill="hsl(0.0,100%,20%)">scroggo</text>
<text x="1.185" y="0.172" font-size="0.070854" fill="hsl(0.0,100%,20%)">brianosman</text>
<text x="0.173" y="0.349" font-size="0.052469" fill="hsl(0.0,100%,20%)">bungeman</text>
<text x="0.526" y="0.102" font-size="0.022042" fill="hsl(0.0,100%,20%)">egdaniel</text>
<text x="0.509" y="0.312" font-size="0.073104" fill="hsl(0.0,100%,20%)">kjlubick</text>
<text x="1.241" y="0.358" font-size="0.062989" fill="hsl(180.0,100%,20%)">johnstiles</text>
<text x="0.474" y="0.590" font-size="0.060363" fill="hsl(180.0,100%,20%)">robertphillips</text>
<text x="0.793" y="0.648" font-size="0.064262" fill="hsl(180.0,100%,20%)">michaelludwig</text>
<text x="0.094" y="0.522" font-size="0.058316" fill="hsl(180.0,100%,20%)">jvanverth</text>
<text x="1.418" y="0.146" font-size="0.028456" fill="hsl(180.0,100%,20%)">herb</text>
<text x="0.308" y="0.122" font-size="0.022042" fill="hsl(180.0,100%,20%)">briansalomon</text>
<text x="0.196" y="0.908" font-size="0.038177" fill="hsl(0.0,100%,20%)">fmalita</text>
<text x="0.396" y="0.161" font-size="0.012726" fill="hsl(0.0,100%,20%)">jlavrova</text>
<text x="0.137" y="0.231" font-size="0.029844" fill="hsl(0.0,100%,20%)">drott</text>
<text x="0.491" y="0.469" font-size="0.015586" fill="hsl(0.0,100%,20%)">jgaillard</text>
<text x="0.086" y="0.620" font-size="0.023808" fill="hsl(180.0,100%,20%)">armansito</text>
<text x="0.878" y="0.879" font-size="0.025451" fill="hsl(180.0,100%,20%)">jamesgk</text>
<text x="0.735" y="0.203" font-size="0.032444" fill="hsl(0.0,100%,20%)">nicolettep</text>
<text x="0.686" y="0.410" font-size="0.040242" fill="hsl(0.0,100%,20%)">lovisolo</text>
<text x="0.964" y="0.471" font-size="0.008998" fill="hsl(0.0,100%,20%)">borenet</text>
<text x="0.322" y="0.774" font-size="0.025451" fill="hsl(0.0,100%,20%)">mike</text>
<text x="1.695" y="0.709" font-size="0.028456" fill="hsl(0.0,100%,20%)">nscobie</text>
<text x="1.204" y="0.630" font-size="0.025451" fill="hsl(180.0,100%,20%)">penghuang</text>
</svg>
