<svg width="4000" height="2000" viewBox="-0.025 -0.025 2.05 1.05" xmlns="http://www.w3.org/2000/svg">
  <style>
    path {
      fill: none;
      stroke-linecap: round;
      stroke-opacity: 0.4;
    }

    text {
      text-anchor: middle;
      alignment-baseline: hanging;
    }
  </style>
  <g opacity="0.4">
<path d="M1.324 0.495 Q0.909 0.279 0.396 0.434" stroke="hsl(0.0,100%,35%)" stroke-width="0.00235"></path>
<path d="M1.324 0.495 Q1.520 0.490 1.553 0.393" stroke="hsl(0.0,100%,35%)" stroke-width="0.00235"></path>
<path d="M1.324 0.495 Q1.379 0.295 1.001 0.225" stroke="hsl(0.0,100%,35%)" stroke-width="0.00235"></path>
<path d="M0.396 0.434 Q0.866 0.450 1.001 0.225" stroke="hsl(0.0,100%,35%)" stroke-width="0.00470"></path>
<path d="M0.396 0.434 Q0.870 0.669 1.434 0.490" stroke="hsl(0.0,100%,35%)" stroke-width="0.00235"></path>
<path d="M0.396 0.434 Q0.973 0.519 1.266 0.256" stroke="hsl(0.0,100%,35%)" stroke-width="0.00235"></path>
<path d="M1.553 0.393 Q0.829 0.393 0.670 0.747" stroke="hsl(180.0,100%,35%)" stroke-width="0.01175"></path>
<path d="M1.553 0.393 Q1.412 0.198 1.001 0.225" stroke="hsl(180.0,100%,35%)" stroke-width="0.00705"></path>
<path d="M1.553 0.393 Q1.416 0.418 1.434 0.490" stroke="hsl(180.0,100%,35%)" stroke-width="0.00470"></path>
<path d="M1.553 0.393 Q0.721 0.443 0.636 0.860" stroke="hsl(180.0,100%,35%)" stroke-width="0.00470"></path>
<path d="M1.553 0.393 Q1.130 0.437 1.123 0.653" stroke="hsl(180.0,100%,35%)" stroke-width="0.00235"></path>
<path d="M1.001 0.225 Q1.142 0.419 1.553 0.393" stroke="hsl(0.0,100%,35%)" stroke-width="0.00705"></path>
<path d="M1.001 0.225 Q0.967 0.282 1.072 0.312" stroke="hsl(0.0,100%,35%)" stroke-width="0.00235"></path>
<path d="M1.001 0.225 Q1.124 0.128 0.962 0.047" stroke="hsl(0.0,100%,35%)" stroke-width="0.00235"></path>
<path d="M1.001 0.225 Q1.248 0.315 1.480 0.215" stroke="hsl(0.0,100%,35%)" stroke-width="0.00235"></path>
<path d="M1.001 0.225 Q0.601 0.509 1.068 0.767" stroke="hsl(0.0,100%,35%)" stroke-width="0.00235"></path>
<path d="M1.001 0.225 Q1.005 0.444 1.434 0.490" stroke="hsl(0.0,100%,35%)" stroke-width="0.00235"></path>
<path d="M0.667 0.298 Q0.202 0.573 0.636 0.860" stroke="hsl(0.0,100%,35%)" stroke-width="0.00235"></path>
<path d="M0.667 0.298 Q1.140 0.419 1.480 0.215" stroke="hsl(0.0,100%,35%)" stroke-width="0.00470"></path>
<path d="M0.667 0.298 Q0.610 0.202 0.410 0.208" stroke="hsl(0.0,100%,35%)" stroke-width="0.00235"></path>
<path d="M0.636 0.860 Q1.574 0.706 1.480 0.215" stroke="hsl(180.0,100%,35%)" stroke-width="0.00235"></path>
<path d="M0.636 0.860 Q0.744 0.810 0.670 0.747" stroke="hsl(180.0,100%,35%)" stroke-width="0.02350"></path>
<path d="M0.636 0.860 Q1.045 0.854 1.123 0.653" stroke="hsl(180.0,100%,35%)" stroke-width="0.00940"></path>
<path d="M0.636 0.860 Q1.331 0.835 1.434 0.490" stroke="hsl(180.0,100%,35%)" stroke-width="0.00235"></path>
<path d="M0.636 0.860 Q0.894 0.717 0.671 0.559" stroke="hsl(180.0,100%,35%)" stroke-width="0.00470"></path>
<path d="M0.636 0.860 Q1.042 0.658 0.737 0.415" stroke="hsl(180.0,100%,35%)" stroke-width="0.00705"></path>
<path d="M0.636 0.860 Q0.926 0.900 1.068 0.767" stroke="hsl(180.0,100%,35%)" stroke-width="0.00470"></path>
<path d="M1.480 0.215 Q0.774 0.040 0.278 0.345" stroke="hsl(0.0,100%,35%)" stroke-width="0.00705"></path>
<path d="M1.480 0.215 Q1.233 0.124 1.001 0.225" stroke="hsl(0.0,100%,35%)" stroke-width="0.01880"></path>
<path d="M1.480 0.215 Q1.198 0.182 1.072 0.312" stroke="hsl(0.0,100%,35%)" stroke-width="0.02585"></path>
<path d="M1.480 0.215 Q1.374 0.319 1.553 0.393" stroke="hsl(0.0,100%,35%)" stroke-width="0.00470"></path>
<path d="M1.480 0.215 Q1.508 0.128 1.343 0.095" stroke="hsl(0.0,100%,35%)" stroke-width="0.01175"></path>
<path d="M1.480 0.215 Q0.951 0.363 1.123 0.653" stroke="hsl(0.0,100%,35%)" stroke-width="0.00705"></path>
<path d="M1.480 0.215 Q0.763 0.108 0.396 0.434" stroke="hsl(0.0,100%,35%)" stroke-width="0.00235"></path>
<path d="M1.480 0.215 Q1.340 0.193 1.266 0.256" stroke="hsl(0.0,100%,35%)" stroke-width="0.00705"></path>
<path d="M1.480 0.215 Q1.304 0.239 1.312 0.330" stroke="hsl(0.0,100%,35%)" stroke-width="0.02115"></path>
<path d="M1.480 0.215 Q0.542 0.369 0.636 0.860" stroke="hsl(0.0,100%,35%)" stroke-width="0.00235"></path>
<path d="M1.480 0.215 Q0.649 0.319 0.670 0.747" stroke="hsl(0.0,100%,35%)" stroke-width="0.00470"></path>
<path d="M1.480 0.215 Q1.007 0.094 0.667 0.298" stroke="hsl(0.0,100%,35%)" stroke-width="0.00235"></path>
<path d="M1.480 0.215 Q1.237 0.343 1.434 0.490" stroke="hsl(0.0,100%,35%)" stroke-width="0.00235"></path>
<path d="M1.480 0.215 Q0.832 0.409 1.068 0.767" stroke="hsl(0.0,100%,35%)" stroke-width="0.00235"></path>
<path d="M0.670 0.747 Q0.972 0.790 1.123 0.653" stroke="hsl(180.0,100%,35%)" stroke-width="0.01410"></path>
<path d="M0.670 0.747 Q0.821 0.653 0.671 0.559" stroke="hsl(180.0,100%,35%)" stroke-width="0.01645"></path>
<path d="M0.670 0.747 Q1.395 0.747 1.553 0.393" stroke="hsl(180.0,100%,35%)" stroke-width="0.01645"></path>
<path d="M0.670 0.747 Q1.258 0.771 1.434 0.490" stroke="hsl(180.0,100%,35%)" stroke-width="0.00235"></path>
<path d="M0.670 0.747 Q1.254 0.552 1.001 0.225" stroke="hsl(180.0,100%,35%)" stroke-width="0.00235"></path>
<path d="M1.434 0.490 Q1.571 0.466 1.553 0.393" stroke="hsl(180.0,100%,35%)" stroke-width="0.04230"></path>
<path d="M1.434 0.490 Q1.677 0.362 1.480 0.215" stroke="hsl(180.0,100%,35%)" stroke-width="0.01175"></path>
<path d="M1.434 0.490 Q0.739 0.515 0.636 0.860" stroke="hsl(180.0,100%,35%)" stroke-width="0.00235"></path>
<path d="M1.434 0.490 Q1.148 0.509 1.123 0.653" stroke="hsl(180.0,100%,35%)" stroke-width="0.01175"></path>
<path d="M1.434 0.490 Q0.847 0.466 0.670 0.747" stroke="hsl(180.0,100%,35%)" stroke-width="0.01410"></path>
<path d="M0.709 0.183 Q0.821 0.262 1.001 0.225" stroke="hsl(0.0,100%,35%)" stroke-width="0.00235"></path>
<path d="M0.709 0.183 Q1.068 0.353 1.480 0.215" stroke="hsl(0.0,100%,35%)" stroke-width="0.00235"></path>
<path d="M0.709 0.183 Q0.352 0.246 0.396 0.434" stroke="hsl(0.0,100%,35%)" stroke-width="0.00235"></path>
<path d="M0.278 0.345 Q0.454 0.668 1.123 0.653" stroke="hsl(0.0,100%,35%)" stroke-width="0.00235"></path>
<path d="M0.278 0.345 Q0.266 0.413 0.396 0.434" stroke="hsl(0.0,100%,35%)" stroke-width="0.00470"></path>
<path d="M0.278 0.345 Q0.807 0.544 1.312 0.330" stroke="hsl(0.0,100%,35%)" stroke-width="0.00235"></path>
<path d="M1.343 0.095 Q1.315 0.182 1.480 0.215" stroke="hsl(0.0,100%,35%)" stroke-width="0.05170"></path>
<path d="M1.343 0.095 Q1.210 0.286 1.553 0.393" stroke="hsl(0.0,100%,35%)" stroke-width="0.00470"></path>
<path d="M1.343 0.095 Q1.069 0.091 1.001 0.225" stroke="hsl(0.0,100%,35%)" stroke-width="0.00235"></path>
</g>
<text x="1.324" y="0.487" font-size="0.017541" fill="hsl(0.0,100%,20%)">aperez</text>
<text x="0.396" y="0.419" font-size="0.030382" fill="hsl(0.0,100%,20%)">scroggo</text>
<text x="1.553" y="0.359" font-size="0.068687" fill="hsl(180.0,100%,20%)">brianosman</text>
<text x="1.001" y="0.199" font-size="0.050637" fill="hsl(0.0,100%,20%)">bungeman</text>
<text x="0.667" y="0.287" font-size="0.022646" fill="hsl(0.0,100%,20%)">borenet</text>
<text x="0.636" y="0.833" font-size="0.053589" fill="hsl(180.0,100%,20%)">jvanverth</text>
<text x="1.480" y="0.169" font-size="0.092265" fill="hsl(0.0,100%,20%)">kjlubick</text>
<text x="0.410" y="0.203" font-size="0.010127" fill="hsl(0.0,100%,20%)">rmistry</text>
<text x="0.670" y="0.713" font-size="0.067937" fill="hsl(180.0,100%,20%)">michaelludwig</text>
<text x="1.434" y="0.457" font-size="0.065633" fill="hsl(180.0,100%,20%)">johnstiles</text>
<text x="1.123" y="0.630" font-size="0.045291" fill="hsl(180.0,100%,20%)">robertphillips</text>
<text x="1.072" y="0.294" font-size="0.035082" fill="hsl(0.0,100%,20%)">fmalita</text>
<text x="0.962" y="0.042" font-size="0.010127" fill="hsl(0.0,100%,20%)">jlavrova</text>
<text x="1.068" y="0.757" font-size="0.020255" fill="hsl(0.0,100%,20%)">herb</text>
<text x="0.709" y="0.174" font-size="0.017541" fill="hsl(0.0,100%,20%)">drott</text>
<text x="0.671" y="0.544" font-size="0.030382" fill="hsl(180.0,100%,20%)">jamesgk</text>
<text x="0.737" y="0.407" font-size="0.017541" fill="hsl(180.0,100%,20%)">armansito</text>
<text x="0.278" y="0.332" font-size="0.026795" fill="hsl(0.0,100%,20%)">nscobie</text>
<text x="1.343" y="0.067" font-size="0.055470" fill="hsl(0.0,100%,20%)">lovisolo</text>
<text x="1.266" y="0.245" font-size="0.020255" fill="hsl(0.0,100%,20%)">egdaniel</text>
<text x="1.312" y="0.314" font-size="0.032026" fill="hsl(0.0,100%,20%)">nicolettep</text>
</svg>
