<svg width="4000" height="2000" viewBox="-0.025 -0.025 2.05 1.05" xmlns="http://www.w3.org/2000/svg">
  <style>
    path {
      fill: none;
      stroke-linecap: round;
      stroke-opacity: 0.4;
    }

    text {
      text-anchor: middle;
      alignment-baseline: hanging;
    }
  </style>
  <g opacity="0.4">
<path d="M0.607 0.827 Q0.818 0.705 0.626 0.575" stroke="hsl(0.0,100%,35%)" stroke-width="0.00148"></path>
<path d="M0.607 0.827 Q1.263 0.662 1.086 0.306" stroke="hsl(0.0,100%,35%)" stroke-width="0.00111"></path>
<path d="M0.607 0.827 Q0.536 0.775 0.419 0.799" stroke="hsl(0.0,100%,35%)" stroke-width="0.00111"></path>
<path d="M0.607 0.827 Q0.689 0.791 0.636 0.743" stroke="hsl(0.0,100%,35%)" stroke-width="0.00721"></path>
<path d="M0.607 0.827 Q1.027 0.603 0.682 0.350" stroke="hsl(0.0,100%,35%)" stroke-width="0.00074"></path>
<path d="M0.607 0.827 Q1.570 0.859 1.845 0.397" stroke="hsl(0.0,100%,35%)" stroke-width="0.00407"></path>
<path d="M0.607 0.827 Q0.835 0.905 1.037 0.811" stroke="hsl(0.0,100%,35%)" stroke-width="0.00037"></path>
<path d="M0.607 0.827 Q0.584 0.669 0.271 0.646" stroke="hsl(0.0,100%,35%)" stroke-width="0.00018"></path>
<path d="M0.607 0.827 Q0.949 0.843 1.055 0.679" stroke="hsl(0.0,100%,35%)" stroke-width="0.00018"></path>
<path d="M0.607 0.827 Q1.006 1.016 1.462 0.863" stroke="hsl(0.0,100%,35%)" stroke-width="0.00037"></path>
<path d="M0.607 0.827 Q0.739 0.480 0.090 0.339" stroke="hsl(0.0,100%,35%)" stroke-width="0.00055"></path>
<path d="M0.607 0.827 Q1.778 0.723 1.831 0.129" stroke="hsl(0.0,100%,35%)" stroke-width="0.00018"></path>
<path d="M0.607 0.827 Q0.679 0.737 0.519 0.683" stroke="hsl(0.0,100%,35%)" stroke-width="0.00018"></path>
<path d="M0.626 0.575 Q1.585 0.593 1.831 0.129" stroke="hsl(0.0,100%,35%)" stroke-width="0.00795"></path>
<path d="M0.626 0.575 Q0.757 0.713 1.055 0.679" stroke="hsl(0.0,100%,35%)" stroke-width="0.01701"></path>
<path d="M0.626 0.575 Q0.813 0.886 1.462 0.863" stroke="hsl(0.0,100%,35%)" stroke-width="0.00277"></path>
<path d="M0.626 0.575 Q0.406 0.576 0.359 0.684" stroke="hsl(0.0,100%,35%)" stroke-width="0.00018"></path>
<path d="M0.626 0.575 Q0.642 0.775 1.037 0.811" stroke="hsl(0.0,100%,35%)" stroke-width="0.02385"></path>
<path d="M0.626 0.575 Q0.415 0.697 0.607 0.827" stroke="hsl(0.0,100%,35%)" stroke-width="0.00240"></path>
<path d="M0.626 0.575 Q0.860 0.646 1.050 0.547" stroke="hsl(0.0,100%,35%)" stroke-width="0.00351"></path>
<path d="M0.626 0.575 Q1.378 0.729 1.845 0.397" stroke="hsl(0.0,100%,35%)" stroke-width="0.00074"></path>
<path d="M0.626 0.575 Q0.546 0.350 0.090 0.339" stroke="hsl(0.0,100%,35%)" stroke-width="0.02922"></path>
<path d="M0.626 0.575 Q0.497 0.661 0.636 0.743" stroke="hsl(0.0,100%,35%)" stroke-width="0.00092"></path>
<path d="M0.626 0.575 Q0.343 0.645 0.419 0.799" stroke="hsl(0.0,100%,35%)" stroke-width="0.00055"></path>
<path d="M0.626 0.575 Q1.463 0.486 1.474 0.059" stroke="hsl(0.0,100%,35%)" stroke-width="0.00037"></path>
<path d="M0.626 0.575 Q0.834 0.473 0.682 0.350" stroke="hsl(0.0,100%,35%)" stroke-width="0.00018"></path>
<path d="M0.626 0.575 Q0.709 0.326 0.241 0.230" stroke="hsl(0.0,100%,35%)" stroke-width="0.00185"></path>
<path d="M0.626 0.575 Q0.187 0.563 0.068 0.774" stroke="hsl(0.0,100%,35%)" stroke-width="0.00185"></path>
<path d="M0.626 0.575 Q1.206 0.471 1.131 0.166" stroke="hsl(0.0,100%,35%)" stroke-width="0.00018"></path>
<path d="M0.626 0.575 Q0.701 0.479 0.530 0.421" stroke="hsl(0.0,100%,35%)" stroke-width="0.00018"></path>
<path d="M0.626 0.575 Q1.071 0.533 1.086 0.306" stroke="hsl(0.0,100%,35%)" stroke-width="0.00092"></path>
<path d="M0.626 0.575 Q0.159 0.627 0.159 0.867" stroke="hsl(0.0,100%,35%)" stroke-width="0.00074"></path>
<path d="M0.626 0.575 Q1.367 0.553 1.487 0.186" stroke="hsl(0.0,100%,35%)" stroke-width="0.00259"></path>
<path d="M0.626 0.575 Q0.844 0.541 0.826 0.427" stroke="hsl(0.0,100%,35%)" stroke-width="0.00018"></path>
<path d="M0.626 0.575 Q0.456 0.548 0.367 0.625" stroke="hsl(0.0,100%,35%)" stroke-width="0.00018"></path>
<path d="M0.626 0.575 Q0.276 0.579 0.207 0.750" stroke="hsl(0.0,100%,35%)" stroke-width="0.00018"></path>
<path d="M0.626 0.575 Q0.584 0.851 1.113 0.932" stroke="hsl(0.0,100%,35%)" stroke-width="0.00037"></path>
<path d="M0.626 0.575 Q0.563 0.492 0.389 0.505" stroke="hsl(0.0,100%,35%)" stroke-width="0.00018"></path>
<path d="M0.626 0.575 Q0.486 0.607 0.519 0.683" stroke="hsl(0.0,100%,35%)" stroke-width="0.00037"></path>
<path d="M0.626 0.575 Q0.960 0.397 0.686 0.195" stroke="hsl(0.0,100%,35%)" stroke-width="0.00018"></path>
<path d="M0.626 0.575 Q0.554 0.463 0.319 0.473" stroke="hsl(0.0,100%,35%)" stroke-width="0.00018"></path>
<path d="M0.626 0.575 Q0.538 0.459 0.292 0.476" stroke="hsl(0.0,100%,35%)" stroke-width="0.00018"></path>
<path d="M1.086 0.306 Q1.601 0.367 1.831 0.129" stroke="hsl(180.0,100%,35%)" stroke-width="0.01775"></path>
<path d="M1.086 0.306 Q1.221 0.245 1.131 0.166" stroke="hsl(180.0,100%,35%)" stroke-width="0.01257"></path>
<path d="M1.086 0.306 Q1.478 0.260 1.474 0.059" stroke="hsl(180.0,100%,35%)" stroke-width="0.00185"></path>
<path d="M1.086 0.306 Q0.850 0.247 0.682 0.350" stroke="hsl(180.0,100%,35%)" stroke-width="0.00499"></path>
<path d="M1.086 0.306 Q0.562 0.123 0.090 0.339" stroke="hsl(180.0,100%,35%)" stroke-width="0.00462"></path>
<path d="M1.086 0.306 Q1.383 0.327 1.487 0.186" stroke="hsl(180.0,100%,35%)" stroke-width="0.00203"></path>
<path d="M1.086 0.306 Q0.724 0.099 0.241 0.230" stroke="hsl(180.0,100%,35%)" stroke-width="0.00018"></path>
<path d="M1.086 0.306 Q1.393 0.503 1.845 0.397" stroke="hsl(180.0,100%,35%)" stroke-width="0.00018"></path>
<path d="M1.086 0.306 Q0.430 0.471 0.607 0.827" stroke="hsl(180.0,100%,35%)" stroke-width="0.00037"></path>
<path d="M1.086 0.306 Q0.829 0.660 1.462 0.863" stroke="hsl(180.0,100%,35%)" stroke-width="0.00018"></path>
<path d="M1.086 0.306 Q0.174 0.401 0.159 0.867" stroke="hsl(180.0,100%,35%)" stroke-width="0.00018"></path>
<path d="M1.086 0.306 Q0.658 0.549 1.037 0.811" stroke="hsl(180.0,100%,35%)" stroke-width="0.00018"></path>
<path d="M1.086 0.306 Q0.641 0.348 0.626 0.575" stroke="hsl(180.0,100%,35%)" stroke-width="0.00037"></path>
<path d="M1.086 0.306 Q0.975 0.171 0.686 0.195" stroke="hsl(180.0,100%,35%)" stroke-width="0.00037"></path>
<path d="M0.419 0.799 Q0.572 0.814 0.636 0.743" stroke="hsl(0.0,100%,35%)" stroke-width="0.00666"></path>
<path d="M0.419 0.799 Q1.453 0.883 1.845 0.397" stroke="hsl(0.0,100%,35%)" stroke-width="0.00037"></path>
<path d="M0.419 0.799 Q0.467 0.693 0.271 0.646" stroke="hsl(0.0,100%,35%)" stroke-width="0.00370"></path>
<path d="M0.419 0.799 Q0.491 0.851 0.607 0.827" stroke="hsl(0.0,100%,35%)" stroke-width="0.00111"></path>
<path d="M0.419 0.799 Q0.832 0.866 1.055 0.679" stroke="hsl(0.0,100%,35%)" stroke-width="0.00018"></path>
<path d="M0.419 0.799 Q0.936 0.799 1.050 0.547" stroke="hsl(0.0,100%,35%)" stroke-width="0.00092"></path>
<path d="M0.419 0.799 Q0.352 0.732 0.207 0.750" stroke="hsl(0.0,100%,35%)" stroke-width="0.00018"></path>
<path d="M0.419 0.799 Q0.718 0.929 1.037 0.811" stroke="hsl(0.0,100%,35%)" stroke-width="0.00018"></path>
<path d="M0.419 0.799 Q1.281 0.625 1.131 0.166" stroke="hsl(0.0,100%,35%)" stroke-width="0.00037"></path>
<path d="M0.636 0.743 Q0.483 0.727 0.419 0.799" stroke="hsl(0.0,100%,35%)" stroke-width="0.00444"></path>
<path d="M0.636 0.743 Q0.953 0.968 1.462 0.863" stroke="hsl(0.0,100%,35%)" stroke-width="0.00018"></path>
<path d="M0.636 0.743 Q1.517 0.811 1.845 0.397" stroke="hsl(0.0,100%,35%)" stroke-width="0.00222"></path>
<path d="M0.636 0.743 Q0.782 0.857 1.037 0.811" stroke="hsl(0.0,100%,35%)" stroke-width="0.00037"></path>
<path d="M0.636 0.743 Q0.555 0.779 0.607 0.827" stroke="hsl(0.0,100%,35%)" stroke-width="0.00370"></path>
<path d="M0.636 0.743 Q0.416 0.661 0.207 0.750" stroke="hsl(0.0,100%,35%)" stroke-width="0.00055"></path>
<path d="M0.636 0.743 Q0.531 0.621 0.271 0.646" stroke="hsl(0.0,100%,35%)" stroke-width="0.00074"></path>
<path d="M0.636 0.743 Q1.345 0.553 1.131 0.166" stroke="hsl(0.0,100%,35%)" stroke-width="0.00018"></path>
<path d="M0.636 0.743 Q0.587 0.612 0.322 0.607" stroke="hsl(0.0,100%,35%)" stroke-width="0.00055"></path>
<path d="M0.636 0.743 Q0.766 0.657 0.626 0.575" stroke="hsl(0.0,100%,35%)" stroke-width="0.00018"></path>
<path d="M0.636 0.743 Q0.400 0.783 0.426 0.907" stroke="hsl(0.0,100%,35%)" stroke-width="0.00018"></path>
<path d="M0.636 0.743 Q0.626 0.689 0.519 0.683" stroke="hsl(0.0,100%,35%)" stroke-width="0.00018"></path>
<path d="M0.682 0.350 Q1.433 0.469 1.831 0.129" stroke="hsl(180.0,100%,35%)" stroke-width="0.00573"></path>
<path d="M0.682 0.350 Q0.124 0.455 0.207 0.750" stroke="hsl(180.0,100%,35%)" stroke-width="0.00037"></path>
<path d="M0.682 0.350 Q0.021 0.565 0.296 0.935" stroke="hsl(180.0,100%,35%)" stroke-width="0.00018"></path>
<path d="M0.682 0.350 Q0.394 0.226 0.090 0.339" stroke="hsl(180.0,100%,35%)" stroke-width="0.00536"></path>
<path d="M0.682 0.350 Q0.490 0.651 1.037 0.811" stroke="hsl(180.0,100%,35%)" stroke-width="0.00074"></path>
<path d="M0.682 0.350 Q1.311 0.362 1.474 0.059" stroke="hsl(180.0,100%,35%)" stroke-width="0.00055"></path>
<path d="M0.682 0.350 Q1.053 0.348 1.131 0.166" stroke="hsl(180.0,100%,35%)" stroke-width="0.00444"></path>
<path d="M0.682 0.350 Q0.604 0.589 1.055 0.679" stroke="hsl(180.0,100%,35%)" stroke-width="0.00092"></path>
<path d="M0.682 0.350 Q0.919 0.409 1.086 0.306" stroke="hsl(180.0,100%,35%)" stroke-width="0.00925"></path>
<path d="M0.682 0.350 Q1.215 0.429 1.487 0.186" stroke="hsl(180.0,100%,35%)" stroke-width="0.00037"></path>
<path d="M0.682 0.350 Q0.661 0.762 1.462 0.863" stroke="hsl(180.0,100%,35%)" stroke-width="0.00018"></path>
<path d="M0.682 0.350 Q0.432 0.727 1.113 0.932" stroke="hsl(180.0,100%,35%)" stroke-width="0.00092"></path>
<path d="M0.682 0.350 Q0.345 0.537 0.636 0.743" stroke="hsl(180.0,100%,35%)" stroke-width="0.00074"></path>
<path d="M0.682 0.350 Q0.263 0.573 0.607 0.827" stroke="hsl(180.0,100%,35%)" stroke-width="0.00055"></path>
<path d="M0.682 0.350 Q0.007 0.503 0.159 0.867" stroke="hsl(180.0,100%,35%)" stroke-width="0.00018"></path>
<path d="M0.682 0.350 Q0.742 0.289 0.637 0.247" stroke="hsl(180.0,100%,35%)" stroke-width="0.00037"></path>
<path d="M0.682 0.350 Q0.717 0.636 1.283 0.682" stroke="hsl(180.0,100%,35%)" stroke-width="0.00018"></path>
<path d="M0.682 0.350 Q1.226 0.606 1.845 0.397" stroke="hsl(180.0,100%,35%)" stroke-width="0.00074"></path>
<path d="M0.682 0.350 Q0.474 0.451 0.626 0.575" stroke="hsl(180.0,100%,35%)" stroke-width="0.00037"></path>
<path d="M0.682 0.350 Q0.334 0.484 0.519 0.683" stroke="hsl(180.0,100%,35%)" stroke-width="0.00018"></path>
<path d="M0.682 0.350 Q0.557 0.202 0.241 0.230" stroke="hsl(180.0,100%,35%)" stroke-width="0.00018"></path>
<path d="M1.845 0.397 Q1.694 0.429 1.723 0.509" stroke="hsl(0.0,100%,35%)" stroke-width="0.00092"></path>
<path d="M1.845 0.397 Q1.013 0.017 0.090 0.339" stroke="hsl(0.0,100%,35%)" stroke-width="0.00222"></path>
<path d="M1.845 0.397 Q1.223 0.380 1.055 0.679" stroke="hsl(0.0,100%,35%)" stroke-width="0.00259"></path>
<path d="M1.845 0.397 Q1.280 0.553 1.462 0.863" stroke="hsl(0.0,100%,35%)" stroke-width="0.00259"></path>
<path d="M1.845 0.397 Q0.964 0.328 0.636 0.743" stroke="hsl(0.0,100%,35%)" stroke-width="0.00148"></path>
<path d="M1.845 0.397 Q2.052 0.260 1.831 0.129" stroke="hsl(0.0,100%,35%)" stroke-width="0.00203"></path>
<path d="M1.845 0.397 Q0.858 0.207 0.271 0.646" stroke="hsl(0.0,100%,35%)" stroke-width="0.00129"></path>
<path d="M1.845 0.397 Q0.654 0.230 0.068 0.774" stroke="hsl(0.0,100%,35%)" stroke-width="0.00037"></path>
<path d="M1.845 0.397 Q1.051 0.518 1.113 0.932" stroke="hsl(0.0,100%,35%)" stroke-width="0.00055"></path>
<path d="M1.845 0.397 Q1.215 0.617 1.508 0.973" stroke="hsl(0.0,100%,35%)" stroke-width="0.00148"></path>
<path d="M1.845 0.397 Q1.327 0.313 1.050 0.547" stroke="hsl(0.0,100%,35%)" stroke-width="0.00185"></path>
<path d="M1.845 0.397 Q1.538 0.200 1.086 0.306" stroke="hsl(0.0,100%,35%)" stroke-width="0.00018"></path>
<path d="M1.845 0.397 Q1.109 0.443 1.037 0.811" stroke="hsl(0.0,100%,35%)" stroke-width="0.00037"></path>
<path d="M1.845 0.397 Q0.882 0.364 0.607 0.827" stroke="hsl(0.0,100%,35%)" stroke-width="0.00166"></path>
<path d="M1.845 0.397 Q0.810 0.313 0.419 0.799" stroke="hsl(0.0,100%,35%)" stroke-width="0.00092"></path>
<path d="M1.845 0.397 Q1.640 0.453 1.705 0.564" stroke="hsl(0.0,100%,35%)" stroke-width="0.00037"></path>
<path d="M1.845 0.397 Q1.834 0.220 1.487 0.186" stroke="hsl(0.0,100%,35%)" stroke-width="0.00037"></path>
<path d="M1.845 0.397 Q1.672 0.139 1.131 0.166" stroke="hsl(0.0,100%,35%)" stroke-width="0.00037"></path>
<path d="M1.845 0.397 Q1.093 0.242 0.626 0.575" stroke="hsl(0.0,100%,35%)" stroke-width="0.00074"></path>
<path d="M1.845 0.397 Q1.301 0.141 0.682 0.350" stroke="hsl(0.0,100%,35%)" stroke-width="0.00018"></path>
<path d="M1.845 0.397 Q0.953 0.275 0.519 0.683" stroke="hsl(0.0,100%,35%)" stroke-width="0.00037"></path>
<path d="M1.845 0.397 Q1.427 0.064 0.686 0.195" stroke="hsl(0.0,100%,35%)" stroke-width="0.00055"></path>
<path d="M1.845 0.397 Q1.176 -0.007 0.241 0.230" stroke="hsl(0.0,100%,35%)" stroke-width="0.00055"></path>
<path d="M1.845 0.397 Q0.743 0.246 0.207 0.750" stroke="hsl(0.0,100%,35%)" stroke-width="0.00018"></path>
<path d="M1.037 0.811 Q1.208 0.922 1.462 0.863" stroke="hsl(0.0,100%,35%)" stroke-width="0.02163"></path>
<path d="M1.037 0.811 Q1.021 0.611 0.626 0.575" stroke="hsl(0.0,100%,35%)" stroke-width="0.01831"></path>
<path d="M1.037 0.811 Q1.264 0.796 1.283 0.682" stroke="hsl(0.0,100%,35%)" stroke-width="0.00222"></path>
<path d="M1.037 0.811 Q1.229 0.509 0.682 0.350" stroke="hsl(0.0,100%,35%)" stroke-width="0.00296"></path>
<path d="M1.037 0.811 Q1.980 0.629 1.831 0.129" stroke="hsl(0.0,100%,35%)" stroke-width="0.00166"></path>
<path d="M1.037 0.811 Q0.941 0.386 0.090 0.339" stroke="hsl(0.0,100%,35%)" stroke-width="0.00203"></path>
<path d="M1.037 0.811 Q1.773 0.766 1.845 0.397" stroke="hsl(0.0,100%,35%)" stroke-width="0.00037"></path>
<path d="M1.037 0.811 Q1.151 0.749 1.055 0.679" stroke="hsl(0.0,100%,35%)" stroke-width="0.00037"></path>
<path d="M1.037 0.811 Q1.600 0.508 1.131 0.166" stroke="hsl(0.0,100%,35%)" stroke-width="0.00037"></path>
<path d="M1.037 0.811 Q1.255 0.682 1.050 0.547" stroke="hsl(0.0,100%,35%)" stroke-width="0.00018"></path>
<path d="M1.037 0.811 Q0.979 0.887 1.113 0.932" stroke="hsl(0.0,100%,35%)" stroke-width="0.00092"></path>
<path d="M1.037 0.811 Q1.143 0.986 1.508 0.973" stroke="hsl(0.0,100%,35%)" stroke-width="0.00037"></path>
<path d="M1.037 0.811 Q0.554 0.663 0.159 0.867" stroke="hsl(0.0,100%,35%)" stroke-width="0.00018"></path>
<path d="M0.271 0.646 Q0.156 0.685 0.207 0.750" stroke="hsl(0.0,100%,35%)" stroke-width="0.00092"></path>
<path d="M0.271 0.646 Q0.951 0.639 1.086 0.306" stroke="hsl(0.0,100%,35%)" stroke-width="0.00018"></path>
<path d="M0.271 0.646 Q0.223 0.752 0.419 0.799" stroke="hsl(0.0,100%,35%)" stroke-width="0.00055"></path>
<path d="M0.271 0.646 Q0.376 0.768 0.636 0.743" stroke="hsl(0.0,100%,35%)" stroke-width="0.00074"></path>
<path d="M0.271 0.646 Q0.327 0.637 0.322 0.607" stroke="hsl(0.0,100%,35%)" stroke-width="0.00018"></path>
<path d="M0.271 0.646 Q1.107 0.868 1.723 0.509" stroke="hsl(0.0,100%,35%)" stroke-width="0.00018"></path>
<path d="M0.271 0.646 Q1.257 0.836 1.845 0.397" stroke="hsl(0.0,100%,35%)" stroke-width="0.00018"></path>
<path d="M0.271 0.646 Q0.426 0.457 0.090 0.339" stroke="hsl(0.0,100%,35%)" stroke-width="0.00018"></path>
<path d="M1.055 0.679 Q1.369 0.499 1.086 0.306" stroke="hsl(0.0,100%,35%)" stroke-width="0.00074"></path>
<path d="M1.055 0.679 Q0.924 0.541 0.626 0.575" stroke="hsl(0.0,100%,35%)" stroke-width="0.00869"></path>
<path d="M1.055 0.679 Q1.111 0.853 1.462 0.863" stroke="hsl(0.0,100%,35%)" stroke-width="0.00092"></path>
<path d="M1.055 0.679 Q1.158 0.613 1.050 0.547" stroke="hsl(0.0,100%,35%)" stroke-width="0.00888"></path>
<path d="M1.055 0.679 Q1.665 0.519 1.487 0.186" stroke="hsl(0.0,100%,35%)" stroke-width="0.00092"></path>
<path d="M1.055 0.679 Q1.132 0.440 0.682 0.350" stroke="hsl(0.0,100%,35%)" stroke-width="0.00074"></path>
<path d="M1.055 0.679 Q1.884 0.560 1.831 0.129" stroke="hsl(0.0,100%,35%)" stroke-width="0.00222"></path>
<path d="M1.055 0.679 Q0.844 0.316 0.090 0.339" stroke="hsl(0.0,100%,35%)" stroke-width="0.00481"></path>
<path d="M1.055 0.679 Q1.504 0.438 1.131 0.166" stroke="hsl(0.0,100%,35%)" stroke-width="0.00277"></path>
<path d="M1.055 0.679 Q0.882 0.817 1.113 0.932" stroke="hsl(0.0,100%,35%)" stroke-width="0.00018"></path>
<path d="M1.055 0.679 Q1.676 0.696 1.845 0.397" stroke="hsl(0.0,100%,35%)" stroke-width="0.00092"></path>
<path d="M1.055 0.679 Q0.940 0.742 1.037 0.811" stroke="hsl(0.0,100%,35%)" stroke-width="0.00074"></path>
<path d="M1.055 0.679 Q0.795 0.627 0.636 0.743" stroke="hsl(0.0,100%,35%)" stroke-width="0.00037"></path>
<path d="M1.055 0.679 Q1.761 0.453 1.474 0.059" stroke="hsl(0.0,100%,35%)" stroke-width="0.00018"></path>
<path d="M1.055 0.679 Q1.047 0.917 1.508 0.973" stroke="hsl(0.0,100%,35%)" stroke-width="0.00018"></path>
<path d="M1.055 0.679 Q1.007 0.292 0.241 0.230" stroke="hsl(0.0,100%,35%)" stroke-width="0.00037"></path>
<path d="M1.055 0.679 Q1.525 0.728 1.723 0.509" stroke="hsl(0.0,100%,35%)" stroke-width="0.00018"></path>
<path d="M1.055 0.679 Q0.457 0.594 0.159 0.867" stroke="hsl(0.0,100%,35%)" stroke-width="0.00018"></path>
<path d="M1.055 0.679 Q0.784 0.574 0.519 0.683" stroke="hsl(0.0,100%,35%)" stroke-width="0.00018"></path>
<path d="M1.055 0.679 Q0.529 0.495 0.055 0.711" stroke="hsl(0.0,100%,35%)" stroke-width="0.00018"></path>
<path d="M1.462 0.863 Q1.275 0.552 0.626 0.575" stroke="hsl(0.0,100%,35%)" stroke-width="0.00370"></path>
<path d="M1.462 0.863 Q1.291 0.752 1.037 0.811" stroke="hsl(0.0,100%,35%)" stroke-width="0.00814"></path>
<path d="M1.462 0.863 Q1.487 0.781 1.332 0.751" stroke="hsl(0.0,100%,35%)" stroke-width="0.00129"></path>
<path d="M1.462 0.863 Q1.397 0.927 1.508 0.973" stroke="hsl(0.0,100%,35%)" stroke-width="0.00129"></path>
<path d="M1.462 0.863 Q1.233 0.828 1.113 0.932" stroke="hsl(0.0,100%,35%)" stroke-width="0.00462"></path>
<path d="M1.462 0.863 Q1.666 0.859 1.703 0.758" stroke="hsl(0.0,100%,35%)" stroke-width="0.00018"></path>
<path d="M1.462 0.863 Q1.509 0.623 1.050 0.547" stroke="hsl(0.0,100%,35%)" stroke-width="0.00129"></path>
<path d="M1.462 0.863 Q1.405 0.690 1.055 0.679" stroke="hsl(0.0,100%,35%)" stroke-width="0.00259"></path>
<path d="M1.462 0.863 Q1.854 0.449 1.131 0.166" stroke="hsl(0.0,100%,35%)" stroke-width="0.00018"></path>
<path d="M1.462 0.863 Q1.195 0.327 0.090 0.339" stroke="hsl(0.0,100%,35%)" stroke-width="0.00166"></path>
<path d="M1.462 0.863 Q2.234 0.570 1.831 0.129" stroke="hsl(0.0,100%,35%)" stroke-width="0.00055"></path>
<path d="M1.462 0.863 Q2.026 0.706 1.845 0.397" stroke="hsl(0.0,100%,35%)" stroke-width="0.00037"></path>
<path d="M1.462 0.863 Q1.720 0.510 1.086 0.306" stroke="hsl(0.0,100%,35%)" stroke-width="0.00018"></path>
<path d="M1.462 0.863 Q1.483 0.450 0.682 0.350" stroke="hsl(0.0,100%,35%)" stroke-width="0.00018"></path>
<path d="M1.462 0.863 Q1.135 0.584 0.519 0.683" stroke="hsl(0.0,100%,35%)" stroke-width="0.00018"></path>
<path d="M0.090 0.339 Q0.911 0.542 1.487 0.186" stroke="hsl(0.0,100%,35%)" stroke-width="0.00203"></path>
<path d="M0.090 0.339 Q0.300 0.702 1.055 0.679" stroke="hsl(0.0,100%,35%)" stroke-width="0.00555"></path>
<path d="M0.090 0.339 Q0.252 0.315 0.241 0.230" stroke="hsl(0.0,100%,35%)" stroke-width="0.00980"></path>
<path d="M0.090 0.339 Q1.129 0.582 1.831 0.129" stroke="hsl(0.0,100%,35%)" stroke-width="0.01886"></path>
<path d="M0.090 0.339 Q0.169 0.564 0.626 0.575" stroke="hsl(0.0,100%,35%)" stroke-width="0.01664"></path>
<path d="M0.090 0.339 Q0.378 0.463 0.682 0.350" stroke="hsl(0.0,100%,35%)" stroke-width="0.00074"></path>
<path d="M0.090 0.339 Q0.749 0.461 1.131 0.166" stroke="hsl(0.0,100%,35%)" stroke-width="0.00499"></path>
<path d="M0.090 0.339 Q0.921 0.719 1.845 0.397" stroke="hsl(0.0,100%,35%)" stroke-width="0.00314"></path>
<path d="M0.090 0.339 Q0.404 0.635 1.050 0.547" stroke="hsl(0.0,100%,35%)" stroke-width="0.00111"></path>
<path d="M0.090 0.339 Q0.357 0.876 1.462 0.863" stroke="hsl(0.0,100%,35%)" stroke-width="0.00074"></path>
<path d="M0.090 0.339 Q0.615 0.522 1.086 0.306" stroke="hsl(0.0,100%,35%)" stroke-width="0.00166"></path>
<path d="M0.090 0.339 Q-0.113 0.635 0.419 0.799" stroke="hsl(0.0,100%,35%)" stroke-width="0.00074"></path>
<path d="M0.090 0.339 Q0.040 0.650 0.636 0.743" stroke="hsl(0.0,100%,35%)" stroke-width="0.00092"></path>
<path d="M0.090 0.339 Q0.127 0.840 1.113 0.932" stroke="hsl(0.0,100%,35%)" stroke-width="0.00018"></path>
<path d="M0.090 0.339 Q-0.042 0.687 0.607 0.827" stroke="hsl(0.0,100%,35%)" stroke-width="0.00074"></path>
<path d="M0.090 0.339 Q0.186 0.765 1.037 0.811" stroke="hsl(0.0,100%,35%)" stroke-width="0.00055"></path>
<path d="M0.090 0.339 Q1.007 0.476 1.474 0.059" stroke="hsl(0.0,100%,35%)" stroke-width="0.00018"></path>
<path d="M1.831 0.129 Q1.613 0.089 1.487 0.186" stroke="hsl(180.0,100%,35%)" stroke-width="0.00721"></path>
<path d="M1.831 0.129 Q0.637 0.075 0.271 0.646" stroke="hsl(180.0,100%,35%)" stroke-width="0.00018"></path>
<path d="M1.831 0.129 Q1.317 0.069 1.086 0.306" stroke="hsl(180.0,100%,35%)" stroke-width="0.01831"></path>
<path d="M1.831 0.129 Q0.792 -0.114 0.090 0.339" stroke="hsl(180.0,100%,35%)" stroke-width="0.01054"></path>
<path d="M1.831 0.129 Q1.452 0.007 1.131 0.166" stroke="hsl(180.0,100%,35%)" stroke-width="0.01627"></path>
<path d="M1.831 0.129 Q1.080 0.009 0.682 0.350" stroke="hsl(180.0,100%,35%)" stroke-width="0.00259"></path>
<path d="M1.831 0.129 Q0.872 0.111 0.626 0.575" stroke="hsl(180.0,100%,35%)" stroke-width="0.00240"></path>
<path d="M1.831 0.129 Q0.955 -0.138 0.241 0.230" stroke="hsl(180.0,100%,35%)" stroke-width="0.00092"></path>
<path d="M1.831 0.129 Q1.059 0.422 1.462 0.863" stroke="hsl(180.0,100%,35%)" stroke-width="0.00037"></path>
<path d="M1.831 0.129 Q0.888 0.311 1.037 0.811" stroke="hsl(180.0,100%,35%)" stroke-width="0.00018"></path>
<path d="M1.831 0.129 Q1.003 0.249 1.055 0.679" stroke="hsl(180.0,100%,35%)" stroke-width="0.00037"></path>
<path d="M1.831 0.129 Q1.709 0.022 1.474 0.059" stroke="hsl(180.0,100%,35%)" stroke-width="0.00055"></path>
<path d="M1.831 0.129 Q0.661 0.233 0.607 0.827" stroke="hsl(180.0,100%,35%)" stroke-width="0.00018"></path>
<path d="M0.519 0.683 Q0.530 0.736 0.636 0.743" stroke="hsl(0.0,100%,35%)" stroke-width="0.00037"></path>
<path d="M0.519 0.683 Q1.104 0.608 1.086 0.306" stroke="hsl(0.0,100%,35%)" stroke-width="0.00018"></path>
<path d="M0.207 0.750 Q0.322 0.711 0.271 0.646" stroke="hsl(0.0,100%,35%)" stroke-width="0.00111"></path>
<path d="M0.207 0.750 Q0.515 1.022 1.113 0.932" stroke="hsl(0.0,100%,35%)" stroke-width="0.00037"></path>
<path d="M0.207 0.750 Q0.274 0.817 0.419 0.799" stroke="hsl(0.0,100%,35%)" stroke-width="0.00018"></path>
<path d="M1.131 0.166 Q0.997 0.227 1.086 0.306" stroke="hsl(180.0,100%,35%)" stroke-width="0.02811"></path>
<path d="M1.131 0.166 Q0.472 0.044 0.090 0.339" stroke="hsl(180.0,100%,35%)" stroke-width="0.00259"></path>
<path d="M1.131 0.166 Q0.682 0.407 1.055 0.679" stroke="hsl(180.0,100%,35%)" stroke-width="0.00111"></path>
<path d="M1.131 0.166 Q1.511 0.288 1.831 0.129" stroke="hsl(180.0,100%,35%)" stroke-width="0.01775"></path>
<path d="M1.131 0.166 Q0.760 0.168 0.682 0.350" stroke="hsl(180.0,100%,35%)" stroke-width="0.00240"></path>
<path d="M1.131 0.166 Q0.269 0.340 0.419 0.799" stroke="hsl(180.0,100%,35%)" stroke-width="0.00018"></path>
<path d="M1.131 0.166 Q0.422 0.355 0.636 0.743" stroke="hsl(180.0,100%,35%)" stroke-width="0.00222"></path>
<path d="M1.131 0.166 Q1.293 0.247 1.487 0.186" stroke="hsl(180.0,100%,35%)" stroke-width="0.00592"></path>
<path d="M1.131 0.166 Q0.635 0.020 0.241 0.230" stroke="hsl(180.0,100%,35%)" stroke-width="0.00018"></path>
<path d="M1.131 0.166 Q0.901 0.153 0.825 0.263" stroke="hsl(180.0,100%,35%)" stroke-width="0.00018"></path>
<path d="M1.131 0.166 Q0.552 0.269 0.626 0.575" stroke="hsl(180.0,100%,35%)" stroke-width="0.00055"></path>
<path d="M1.131 0.166 Q1.303 0.424 1.845 0.397" stroke="hsl(180.0,100%,35%)" stroke-width="0.00018"></path>
<path d="M1.131 0.166 Q1.389 0.181 1.474 0.059" stroke="hsl(180.0,100%,35%)" stroke-width="0.00018"></path>
<path d="M1.487 0.186 Q1.705 0.226 1.831 0.129" stroke="hsl(180.0,100%,35%)" stroke-width="0.01405"></path>
<path d="M1.487 0.186 Q0.666 -0.017 0.090 0.339" stroke="hsl(180.0,100%,35%)" stroke-width="0.00203"></path>
<path d="M1.487 0.186 Q1.326 0.105 1.131 0.166" stroke="hsl(180.0,100%,35%)" stroke-width="0.01202"></path>
<path d="M1.487 0.186 Q0.954 0.107 0.682 0.350" stroke="hsl(180.0,100%,35%)" stroke-width="0.00037"></path>
<path d="M1.487 0.186 Q1.583 0.120 1.474 0.059" stroke="hsl(180.0,100%,35%)" stroke-width="0.00074"></path>
<path d="M1.487 0.186 Q1.191 0.166 1.086 0.306" stroke="hsl(180.0,100%,35%)" stroke-width="0.00074"></path>
<path d="M1.487 0.186 Q0.746 0.208 0.626 0.575" stroke="hsl(180.0,100%,35%)" stroke-width="0.00055"></path>
<path d="M1.487 0.186 Q0.511 0.173 0.271 0.646" stroke="hsl(180.0,100%,35%)" stroke-width="0.00018"></path>
<path d="M1.487 0.186 Q0.877 0.346 1.055 0.679" stroke="hsl(180.0,100%,35%)" stroke-width="0.00129"></path>
<path d="M1.487 0.186 Q0.980 0.279 1.050 0.547" stroke="hsl(180.0,100%,35%)" stroke-width="0.00018"></path>
<path d="M1.487 0.186 Q0.704 0.484 1.113 0.932" stroke="hsl(180.0,100%,35%)" stroke-width="0.00037"></path>
<path d="M1.487 0.186 Q0.535 0.331 0.607 0.827" stroke="hsl(180.0,100%,35%)" stroke-width="0.00037"></path>
<path d="M0.241 0.230 Q0.078 0.255 0.090 0.339" stroke="hsl(0.0,100%,35%)" stroke-width="0.00832"></path>
<path d="M0.241 0.230 Q1.117 0.498 1.831 0.129" stroke="hsl(0.0,100%,35%)" stroke-width="0.00314"></path>
<path d="M0.241 0.230 Q0.603 0.437 1.086 0.306" stroke="hsl(0.0,100%,35%)" stroke-width="0.00407"></path>
<path d="M0.241 0.230 Q0.910 0.634 1.845 0.397" stroke="hsl(0.0,100%,35%)" stroke-width="0.00166"></path>
<path d="M0.241 0.230 Q0.366 0.378 0.682 0.350" stroke="hsl(0.0,100%,35%)" stroke-width="0.00037"></path>
<path d="M0.241 0.230 Q0.995 0.391 1.474 0.059" stroke="hsl(0.0,100%,35%)" stroke-width="0.00074"></path>
<path d="M0.241 0.230 Q0.158 0.480 0.626 0.575" stroke="hsl(0.0,100%,35%)" stroke-width="0.00055"></path>
<path d="M0.241 0.230 Q0.737 0.376 1.131 0.166" stroke="hsl(0.0,100%,35%)" stroke-width="0.00037"></path>
<path d="M0.241 0.230 Q0.288 0.618 1.055 0.679" stroke="hsl(0.0,100%,35%)" stroke-width="0.00148"></path>
<path d="M0.241 0.230 Q0.899 0.458 1.487 0.186" stroke="hsl(0.0,100%,35%)" stroke-width="0.00018"></path>
<path d="M0.241 0.230 Q0.327 0.271 0.425 0.238" stroke="hsl(0.0,100%,35%)" stroke-width="0.00018"></path>
<path d="M0.241 0.230 Q0.392 0.551 1.050 0.547" stroke="hsl(0.0,100%,35%)" stroke-width="0.00018"></path>
<path d="M1.050 0.547 Q0.816 0.476 0.626 0.575" stroke="hsl(0.0,100%,35%)" stroke-width="0.00481"></path>
<path d="M1.050 0.547 Q0.947 0.614 1.055 0.679" stroke="hsl(0.0,100%,35%)" stroke-width="0.01479"></path>
<path d="M1.050 0.547 Q0.737 0.251 0.090 0.339" stroke="hsl(0.0,100%,35%)" stroke-width="0.00074"></path>
<path d="M1.050 0.547 Q1.003 0.788 1.462 0.863" stroke="hsl(0.0,100%,35%)" stroke-width="0.00555"></path>
<path d="M1.050 0.547 Q1.195 0.480 1.096 0.395" stroke="hsl(0.0,100%,35%)" stroke-width="0.00055"></path>
<path d="M1.050 0.547 Q1.568 0.631 1.845 0.397" stroke="hsl(0.0,100%,35%)" stroke-width="0.00203"></path>
<path d="M1.050 0.547 Q0.687 0.562 0.636 0.743" stroke="hsl(0.0,100%,35%)" stroke-width="0.00037"></path>
<path d="M1.050 0.547 Q0.349 0.529 0.159 0.867" stroke="hsl(0.0,100%,35%)" stroke-width="0.00018"></path>
<path d="M1.050 0.547 Q1.050 0.483 0.924 0.469" stroke="hsl(0.0,100%,35%)" stroke-width="0.00074"></path>
<path d="M1.050 0.547 Q1.776 0.494 1.831 0.129" stroke="hsl(0.0,100%,35%)" stroke-width="0.00074"></path>
<path d="M1.050 0.547 Q1.396 0.373 1.131 0.166" stroke="hsl(0.0,100%,35%)" stroke-width="0.00018"></path>
<path d="M1.050 0.547 Q0.582 0.441 0.271 0.646" stroke="hsl(0.0,100%,35%)" stroke-width="0.00018"></path>
<path d="M1.050 0.547 Q0.605 0.598 0.607 0.827" stroke="hsl(0.0,100%,35%)" stroke-width="0.00074"></path>
<path d="M1.050 0.547 Q0.533 0.547 0.419 0.799" stroke="hsl(0.0,100%,35%)" stroke-width="0.00074"></path>
<path d="M1.050 0.547 Q0.899 0.227 0.241 0.230" stroke="hsl(0.0,100%,35%)" stroke-width="0.00018"></path>
<path d="M1.113 0.932 Q0.920 0.620 0.271 0.646" stroke="hsl(0.0,100%,35%)" stroke-width="0.00111"></path>
<path d="M1.113 0.932 Q1.155 0.656 0.626 0.575" stroke="hsl(0.0,100%,35%)" stroke-width="0.00351"></path>
<path d="M1.113 0.932 Q1.342 0.967 1.462 0.863" stroke="hsl(0.0,100%,35%)" stroke-width="0.01720"></path>
<path d="M1.113 0.932 Q1.363 0.554 0.682 0.350" stroke="hsl(0.0,100%,35%)" stroke-width="0.00185"></path>
<path d="M1.113 0.932 Q0.944 0.778 0.607 0.827" stroke="hsl(0.0,100%,35%)" stroke-width="0.00074"></path>
<path d="M1.113 0.932 Q1.075 0.431 0.090 0.339" stroke="hsl(0.0,100%,35%)" stroke-width="0.00259"></path>
<path d="M1.113 0.932 Q1.026 0.742 0.636 0.743" stroke="hsl(0.0,100%,35%)" stroke-width="0.00037"></path>
<path d="M1.113 0.932 Q0.688 0.708 0.159 0.867" stroke="hsl(0.0,100%,35%)" stroke-width="0.00111"></path>
<path d="M1.113 0.932 Q1.896 0.634 1.487 0.186" stroke="hsl(0.0,100%,35%)" stroke-width="0.00037"></path>
<path d="M1.113 0.932 Q0.805 0.660 0.207 0.750" stroke="hsl(0.0,100%,35%)" stroke-width="0.00074"></path>
<path d="M1.113 0.932 Q0.872 0.726 0.419 0.799" stroke="hsl(0.0,100%,35%)" stroke-width="0.00037"></path>
<path d="M1.113 0.932 Q1.734 0.553 1.131 0.166" stroke="hsl(0.0,100%,35%)" stroke-width="0.00018"></path>
<path d="M1.113 0.932 Q0.716 0.644 0.068 0.774" stroke="hsl(0.0,100%,35%)" stroke-width="0.00111"></path>
<path d="M1.113 0.932 Q1.907 0.810 1.845 0.397" stroke="hsl(0.0,100%,35%)" stroke-width="0.00148"></path>
<path d="M1.113 0.932 Q1.171 0.856 1.037 0.811" stroke="hsl(0.0,100%,35%)" stroke-width="0.00166"></path>
<path d="M1.113 0.932 Q1.389 0.727 1.050 0.547" stroke="hsl(0.0,100%,35%)" stroke-width="0.00055"></path>
<path d="M1.113 0.932 Q2.114 0.674 1.831 0.129" stroke="hsl(0.0,100%,35%)" stroke-width="0.00018"></path>
<path d="M1.113 0.932 Q1.277 1.031 1.508 0.973" stroke="hsl(0.0,100%,35%)" stroke-width="0.00037"></path>
<path d="M1.113 0.932 Q1.600 0.614 1.086 0.306" stroke="hsl(0.0,100%,35%)" stroke-width="0.00018"></path>
<path d="M1.113 0.932 Q1.285 0.794 1.055 0.679" stroke="hsl(0.0,100%,35%)" stroke-width="0.00018"></path>
<path d="M1.474 0.059 Q1.082 0.105 1.086 0.306" stroke="hsl(180.0,100%,35%)" stroke-width="0.00629"></path>
<path d="M1.474 0.059 Q1.379 0.125 1.487 0.186" stroke="hsl(180.0,100%,35%)" stroke-width="0.00240"></path>
<path d="M1.474 0.059 Q1.597 0.165 1.831 0.129" stroke="hsl(180.0,100%,35%)" stroke-width="0.00999"></path>
<path d="M1.474 0.059 Q0.637 0.147 0.626 0.575" stroke="hsl(180.0,100%,35%)" stroke-width="0.00037"></path>
<path d="M1.474 0.059 Q1.445 0.021 1.367 0.027" stroke="hsl(180.0,100%,35%)" stroke-width="0.00018"></path>
<path d="M1.474 0.059 Q0.986 0.031 0.825 0.263" stroke="hsl(180.0,100%,35%)" stroke-width="0.00074"></path>
<path d="M1.474 0.059 Q1.238 0.334 1.723 0.509" stroke="hsl(180.0,100%,35%)" stroke-width="0.00037"></path>
<path d="M1.474 0.059 Q0.508 0.233 0.636 0.743" stroke="hsl(180.0,100%,35%)" stroke-width="0.00055"></path>
<path d="M1.474 0.059 Q0.558 -0.078 0.090 0.339" stroke="hsl(180.0,100%,35%)" stroke-width="0.00111"></path>
<path d="M1.474 0.059 Q1.217 0.044 1.131 0.166" stroke="hsl(180.0,100%,35%)" stroke-width="0.00777"></path>
<path d="M1.474 0.059 Q0.845 0.046 0.682 0.350" stroke="hsl(180.0,100%,35%)" stroke-width="0.00037"></path>
<path d="M1.474 0.059 Q0.720 -0.102 0.241 0.230" stroke="hsl(180.0,100%,35%)" stroke-width="0.00148"></path>
<path d="M1.474 0.059 Q1.389 0.302 1.845 0.397" stroke="hsl(180.0,100%,35%)" stroke-width="0.00018"></path>
<path d="M1.474 0.059 Q0.871 0.218 1.050 0.547" stroke="hsl(180.0,100%,35%)" stroke-width="0.00018"></path>
<path d="M1.966 0.544 Q1.271 0.292 0.626 0.575" stroke="hsl(0.0,100%,35%)" stroke-width="0.00018"></path>
<path d="M1.966 0.544 Q2.023 0.446 1.845 0.397" stroke="hsl(0.0,100%,35%)" stroke-width="0.00037"></path>
<path d="M1.966 0.544 Q1.192 0.067 0.090 0.339" stroke="hsl(0.0,100%,35%)" stroke-width="0.00018"></path>
<path d="M1.508 0.973 Q1.572 0.909 1.462 0.863" stroke="hsl(0.0,100%,35%)" stroke-width="0.00795"></path>
<path d="M1.508 0.973 Q2.137 0.752 1.845 0.397" stroke="hsl(0.0,100%,35%)" stroke-width="0.00018"></path>
<path d="M1.508 0.973 Q1.343 0.873 1.113 0.932" stroke="hsl(0.0,100%,35%)" stroke-width="0.00018"></path>
<path d="M1.508 0.973 Q0.918 0.650 0.159 0.867" stroke="hsl(0.0,100%,35%)" stroke-width="0.00018"></path>
<path d="M1.508 0.973 Q1.256 0.684 0.636 0.743" stroke="hsl(0.0,100%,35%)" stroke-width="0.00018"></path>
<path d="M1.508 0.973 Q1.401 0.798 1.037 0.811" stroke="hsl(0.0,100%,35%)" stroke-width="0.00037"></path>
<path d="M1.508 0.973 Q1.516 0.736 1.055 0.679" stroke="hsl(0.0,100%,35%)" stroke-width="0.00018"></path>
<path d="M1.508 0.973 Q1.385 0.597 0.626 0.575" stroke="hsl(0.0,100%,35%)" stroke-width="0.00018"></path>
<path d="M1.508 0.973 Q1.174 0.720 0.607 0.827" stroke="hsl(0.0,100%,35%)" stroke-width="0.00018"></path>
<path d="M0.637 0.247 Q0.814 0.366 1.086 0.306" stroke="hsl(180.0,100%,35%)" stroke-width="0.00018"></path>
<path d="M0.637 0.247 Q0.577 0.307 0.682 0.350" stroke="hsl(180.0,100%,35%)" stroke-width="0.00018"></path>
<path d="M0.637 0.247 Q0.948 0.305 1.131 0.166" stroke="hsl(180.0,100%,35%)" stroke-width="0.00018"></path>
<path d="M0.530 0.421 Q0.663 0.416 0.682 0.350" stroke="hsl(0.0,100%,35%)" stroke-width="0.00018"></path>
<path d="M0.530 0.421 Q0.413 0.793 1.113 0.932" stroke="hsl(0.0,100%,35%)" stroke-width="0.00018"></path>
<path d="M0.530 0.421 Q0.455 0.517 0.626 0.575" stroke="hsl(0.0,100%,35%)" stroke-width="0.00018"></path>
<path d="M0.530 0.421 Q0.375 0.292 0.090 0.339" stroke="hsl(0.0,100%,35%)" stroke-width="0.00018"></path>
<path d="M0.825 0.263 Q1.313 0.291 1.474 0.059" stroke="hsl(180.0,100%,35%)" stroke-width="0.00018"></path>
<path d="M0.825 0.263 Q1.435 0.397 1.831 0.129" stroke="hsl(180.0,100%,35%)" stroke-width="0.00222"></path>
<path d="M0.825 0.263 Q0.921 0.337 1.086 0.306" stroke="hsl(180.0,100%,35%)" stroke-width="0.00629"></path>
<path d="M0.825 0.263 Q0.607 0.517 1.055 0.679" stroke="hsl(180.0,100%,35%)" stroke-width="0.00037"></path>
<path d="M0.825 0.263 Q1.056 0.276 1.131 0.166" stroke="hsl(180.0,100%,35%)" stroke-width="0.00462"></path>
<path d="M0.825 0.263 Q0.476 0.379 0.626 0.575" stroke="hsl(180.0,100%,35%)" stroke-width="0.00092"></path>
<path d="M0.825 0.263 Q0.265 0.501 0.607 0.827" stroke="hsl(180.0,100%,35%)" stroke-width="0.00018"></path>
<path d="M0.825 0.263 Q0.723 0.341 0.854 0.408" stroke="hsl(180.0,100%,35%)" stroke-width="0.00018"></path>
<path d="M0.825 0.263 Q0.663 0.690 1.462 0.863" stroke="hsl(180.0,100%,35%)" stroke-width="0.00018"></path>
<path d="M0.825 0.263 Q0.559 0.130 0.241 0.230" stroke="hsl(180.0,100%,35%)" stroke-width="0.00074"></path>
<path d="M0.825 0.263 Q0.684 0.278 0.682 0.350" stroke="hsl(180.0,100%,35%)" stroke-width="0.00018"></path>
<path d="M1.723 0.509 Q1.042 0.097 0.090 0.339" stroke="hsl(0.0,100%,35%)" stroke-width="0.00018"></path>
<path d="M1.723 0.509 Q1.874 0.477 1.845 0.397" stroke="hsl(0.0,100%,35%)" stroke-width="0.00518"></path>
<path d="M1.723 0.509 Q0.887 0.287 0.271 0.646" stroke="hsl(0.0,100%,35%)" stroke-width="0.00037"></path>
<path d="M1.723 0.509 Q1.330 0.221 0.682 0.350" stroke="hsl(0.0,100%,35%)" stroke-width="0.00037"></path>
<path d="M1.723 0.509 Q1.122 0.322 0.626 0.575" stroke="hsl(0.0,100%,35%)" stroke-width="0.00037"></path>
<path d="M1.723 0.509 Q1.567 0.280 1.086 0.306" stroke="hsl(0.0,100%,35%)" stroke-width="0.00018"></path>
<path d="M1.723 0.509 Q1.959 0.234 1.474 0.059" stroke="hsl(0.0,100%,35%)" stroke-width="0.00055"></path>
<path d="M1.723 0.509 Q0.655 0.375 0.159 0.867" stroke="hsl(0.0,100%,35%)" stroke-width="0.00092"></path>
<path d="M1.723 0.509 Q1.704 0.407 1.500 0.394" stroke="hsl(0.0,100%,35%)" stroke-width="0.00018"></path>
<path d="M1.723 0.509 Q0.911 0.445 0.607 0.827" stroke="hsl(0.0,100%,35%)" stroke-width="0.00018"></path>
<path d="M1.723 0.509 Q0.993 0.409 0.636 0.743" stroke="hsl(0.0,100%,35%)" stroke-width="0.00037"></path>
<path d="M0.159 0.867 Q1.071 0.772 1.086 0.306" stroke="hsl(0.0,100%,35%)" stroke-width="0.00037"></path>
<path d="M0.159 0.867 Q1.227 1.001 1.723 0.509" stroke="hsl(0.0,100%,35%)" stroke-width="0.00018"></path>
<path d="M0.686 0.195 Q0.273 0.148 0.090 0.339" stroke="hsl(180.0,100%,35%)" stroke-width="0.00018"></path>
<path d="M0.686 0.195 Q-0.115 0.425 0.159 0.867" stroke="hsl(180.0,100%,35%)" stroke-width="0.00037"></path>
<path d="M0.686 0.195 Q0.435 0.124 0.241 0.230" stroke="hsl(180.0,100%,35%)" stroke-width="0.00018"></path>
<path d="M0.686 0.195 Q0.797 0.331 1.086 0.306" stroke="hsl(180.0,100%,35%)" stroke-width="0.00055"></path>
<path d="M0.686 0.195 Q0.483 0.511 1.055 0.679" stroke="hsl(180.0,100%,35%)" stroke-width="0.00037"></path>
<path d="M0.686 0.195 Q0.587 0.444 1.050 0.547" stroke="hsl(180.0,100%,35%)" stroke-width="0.00018"></path>
<path d="M0.686 0.195 Q0.561 0.271 0.682 0.350" stroke="hsl(180.0,100%,35%)" stroke-width="0.00018"></path>
<path d="M1.801 0.871 Q1.905 0.846 1.879 0.790" stroke="hsl(180.0,100%,35%)" stroke-width="0.00018"></path>
<path d="M1.801 0.871 Q1.800 0.372 0.825 0.263" stroke="hsl(180.0,100%,35%)" stroke-width="0.00018"></path>
<path d="M0.319 0.473 Q0.391 0.585 0.626 0.575" stroke="hsl(0.0,100%,35%)" stroke-width="0.00129"></path>
<path d="M0.319 0.473 Q0.634 0.770 1.283 0.682" stroke="hsl(0.0,100%,35%)" stroke-width="0.00037"></path>
<path d="M0.319 0.473 Q1.351 0.604 1.831 0.129" stroke="hsl(0.0,100%,35%)" stroke-width="0.00018"></path>
<path d="M1.283 0.682 Q2.000 0.515 1.831 0.129" stroke="hsl(0.0,100%,35%)" stroke-width="0.00055"></path>
<path d="M1.283 0.682 Q1.057 0.697 1.037 0.811" stroke="hsl(0.0,100%,35%)" stroke-width="0.00055"></path>
<path d="M1.283 0.682 Q1.040 0.497 0.626 0.575" stroke="hsl(0.0,100%,35%)" stroke-width="0.00074"></path>
<path d="M0.292 0.476 Q1.340 0.610 1.831 0.129" stroke="hsl(180.0,100%,35%)" stroke-width="0.00018"></path>
<path d="M0.292 0.476 Q0.380 0.592 0.626 0.575" stroke="hsl(180.0,100%,35%)" stroke-width="0.00018"></path>
<path d="M0.292 0.476 Q1.121 0.570 1.487 0.186" stroke="hsl(180.0,100%,35%)" stroke-width="0.00018"></path>
<path d="M0.068 0.774 Q0.040 0.839 0.159 0.867" stroke="hsl(0.0,100%,35%)" stroke-width="0.00148"></path>
<path d="M0.068 0.774 Q0.507 0.786 0.626 0.575" stroke="hsl(0.0,100%,35%)" stroke-width="0.00111"></path>
<path d="M0.068 0.774 Q0.427 0.561 0.090 0.339" stroke="hsl(0.0,100%,35%)" stroke-width="0.00018"></path>
<path d="M0.068 0.774 Q0.224 0.857 0.419 0.799" stroke="hsl(0.0,100%,35%)" stroke-width="0.00018"></path>
<path d="M0.068 0.774 Q0.637 0.924 1.055 0.679" stroke="hsl(0.0,100%,35%)" stroke-width="0.00037"></path>
<path d="M0.068 0.774 Q0.523 0.987 1.037 0.811" stroke="hsl(0.0,100%,35%)" stroke-width="0.00018"></path>
<path d="M0.068 0.774 Q0.377 0.872 0.636 0.743" stroke="hsl(0.0,100%,35%)" stroke-width="0.00018"></path>
<path d="M0.068 0.774 Q0.296 0.909 0.607 0.827" stroke="hsl(0.0,100%,35%)" stroke-width="0.00055"></path>
<path d="M0.068 0.774 Q0.196 0.782 0.240 0.721" stroke="hsl(0.0,100%,35%)" stroke-width="0.00037"></path>
<path d="M0.068 0.774 Q0.112 0.740 0.055 0.711" stroke="hsl(0.0,100%,35%)" stroke-width="0.00111"></path>
<path d="M0.068 0.774 Q1.258 0.941 1.845 0.397" stroke="hsl(0.0,100%,35%)" stroke-width="0.00037"></path>
<path d="M0.068 0.774 Q0.694 1.098 1.462 0.863" stroke="hsl(0.0,100%,35%)" stroke-width="0.00018"></path>
<path d="M0.068 0.774 Q0.170 0.716 0.079 0.654" stroke="hsl(0.0,100%,35%)" stroke-width="0.00018"></path>
<path d="M0.296 0.935 Q0.749 0.821 0.626 0.575" stroke="hsl(0.0,100%,35%)" stroke-width="0.00018"></path>
<path d="M0.296 0.935 Q0.282 0.873 0.159 0.867" stroke="hsl(0.0,100%,35%)" stroke-width="0.00018"></path>
<path d="M1.303 0.206 Q1.411 0.233 1.487 0.186" stroke="hsl(180.0,100%,35%)" stroke-width="0.00018"></path>
<path d="M1.303 0.206 Q0.669 0.255 0.626 0.575" stroke="hsl(180.0,100%,35%)" stroke-width="0.00018"></path>
<path d="M1.303 0.206 Q1.629 0.273 1.831 0.129" stroke="hsl(180.0,100%,35%)" stroke-width="0.00018"></path>
<path d="M0.525 0.028 Q0.325 0.633 1.462 0.863" stroke="hsl(180.0,100%,35%)" stroke-width="0.00018"></path>
<path d="M0.525 0.028 Q0.346 0.220 0.682 0.350" stroke="hsl(180.0,100%,35%)" stroke-width="0.00037"></path>
<path d="M0.525 0.028 Q0.138 0.321 0.626 0.575" stroke="hsl(180.0,100%,35%)" stroke-width="0.00018"></path>
<path d="M0.359 0.684 Q0.450 0.769 0.636 0.743" stroke="hsl(0.0,100%,35%)" stroke-width="0.00018"></path>
<path d="M0.359 0.684 Q0.369 0.805 0.607 0.827" stroke="hsl(0.0,100%,35%)" stroke-width="0.00074"></path>
<path d="M0.055 0.711 Q0.011 0.745 0.068 0.774" stroke="hsl(0.0,100%,35%)" stroke-width="0.00536"></path>
<path d="M0.055 0.711 Q0.449 0.757 0.626 0.575" stroke="hsl(0.0,100%,35%)" stroke-width="0.00018"></path>
<path d="M0.055 0.711 Q-0.018 0.810 0.159 0.867" stroke="hsl(0.0,100%,35%)" stroke-width="0.00018"></path>
<path d="M0.438 0.366 Q0.599 0.579 1.050 0.547" stroke="hsl(0.0,100%,35%)" stroke-width="0.00037"></path>
<path d="M0.438 0.366 Q0.365 0.508 0.626 0.575" stroke="hsl(0.0,100%,35%)" stroke-width="0.00055"></path>
<path d="M0.438 0.366 Q0.015 0.512 0.207 0.750" stroke="hsl(0.0,100%,35%)" stroke-width="0.00018"></path>
<path d="M0.438 0.366 Q1.117 0.663 1.845 0.397" stroke="hsl(0.0,100%,35%)" stroke-width="0.00018"></path>
<path d="M0.438 0.366 Q0.552 0.820 1.462 0.863" stroke="hsl(0.0,100%,35%)" stroke-width="0.00018"></path>
<path d="M0.212 0.514 Q1.330 0.646 1.831 0.129" stroke="hsl(0.0,100%,35%)" stroke-width="0.00148"></path>
<path d="M0.212 0.514 Q0.371 0.627 0.626 0.575" stroke="hsl(0.0,100%,35%)" stroke-width="0.00148"></path>
<path d="M0.776 0.208 Q0.615 0.260 0.682 0.350" stroke="hsl(180.0,100%,35%)" stroke-width="0.00018"></path>
<path d="M0.776 0.208 Q0.987 0.258 1.131 0.166" stroke="hsl(180.0,100%,35%)" stroke-width="0.00018"></path>
<path d="M0.776 0.208 Q0.852 0.319 1.086 0.306" stroke="hsl(180.0,100%,35%)" stroke-width="0.00037"></path>
<path d="M1.699 0.261 Q1.491 0.100 1.131 0.166" stroke="hsl(180.0,100%,35%)" stroke-width="0.00018"></path>
<path d="M1.699 0.261 Q1.871 0.221 1.831 0.129" stroke="hsl(180.0,100%,35%)" stroke-width="0.00018"></path>
<path d="M1.699 0.261 Q1.099 0.515 1.462 0.863" stroke="hsl(180.0,100%,35%)" stroke-width="0.00018"></path>
</g>
<text x="0.607" y="0.813" font-size="0.028823" fill="hsl(0.0,100%,20%)">benjaminwagner</text>
<text x="0.626" y="0.542" font-size="0.066491" fill="hsl(0.0,100%,20%)">mtklein</text>
<text x="1.086" y="0.278" font-size="0.057021" fill="hsl(180.0,100%,20%)">egdaniel</text>
<text x="0.419" y="0.786" font-size="0.024721" fill="hsl(0.0,100%,20%)">rmistry</text>
<text x="0.636" y="0.727" font-size="0.031055" fill="hsl(0.0,100%,20%)">borenet</text>
<text x="0.682" y="0.331" font-size="0.036952" fill="hsl(180.0,100%,20%)">jvanverth</text>
<text x="1.845" y="0.379" font-size="0.035704" fill="hsl(0.0,100%,20%)">kjlubick</text>
<text x="1.037" y="0.787" font-size="0.048220" fill="hsl(0.0,100%,20%)">herb</text>
<text x="0.271" y="0.637" font-size="0.017751" fill="hsl(0.0,100%,20%)">jcgregorio</text>
<text x="1.055" y="0.656" font-size="0.046660" fill="hsl(0.0,100%,20%)">reed</text>
<text x="1.462" y="0.839" font-size="0.047672" fill="hsl(0.0,100%,20%)">bungeman</text>
<text x="0.090" y="0.308" font-size="0.061841" fill="hsl(0.0,100%,20%)">brianosman</text>
<text x="1.831" y="0.096" font-size="0.065842" fill="hsl(180.0,100%,20%)">bsalomon</text>
<text x="0.519" y="0.679" font-size="0.007569" fill="hsl(0.0,100%,20%)">stephana</text>
<text x="0.207" y="0.745" font-size="0.011354" fill="hsl(0.0,100%,20%)">hcm</text>
<text x="1.131" y="0.137" font-size="0.057935" fill="hsl(180.0,100%,20%)">robertphillips</text>
<text x="0.322" y="0.605" font-size="0.004370" fill="hsl(0.0,100%,20%)">iannucci</text>
<text x="0.426" y="0.906" font-size="0.002185" fill="hsl(0.0,100%,20%)">ehmaldonado</text>
<text x="1.487" y="0.167" font-size="0.038596" fill="hsl(180.0,100%,20%)">michaelludwig</text>
<text x="0.241" y="0.215" font-size="0.031285" fill="hsl(0.0,100%,20%)">ethannicholas</text>
<text x="1.050" y="0.529" font-size="0.036628" fill="hsl(0.0,100%,20%)">fmalita</text>
<text x="1.113" y="0.915" font-size="0.033991" fill="hsl(0.0,100%,20%)">halcanary</text>
<text x="1.474" y="0.043" font-size="0.031361" fill="hsl(180.0,100%,20%)">csmartdalton</text>
<text x="1.966" y="0.542" font-size="0.004370" fill="hsl(0.0,100%,20%)">bryct</text>
<text x="1.332" y="0.748" font-size="0.005781" fill="hsl(0.0,100%,20%)">drott</text>
<text x="1.508" y="0.963" font-size="0.018541" fill="hsl(0.0,100%,20%)">jlavrova</text>
<text x="1.703" y="0.757" font-size="0.002185" fill="hsl(0.0,100%,20%)">etienneb</text>
<text x="0.637" y="0.244" font-size="0.004886" fill="hsl(180.0,100%,20%)">ccameron</text>
<text x="0.530" y="0.418" font-size="0.004886" fill="hsl(0.0,100%,20%)">chinmaygarde</text>
<text x="1.367" y="0.026" font-size="0.002185" fill="hsl(180.0,100%,20%)">mjk</text>
<text x="0.825" y="0.252" font-size="0.021072" fill="hsl(180.0,100%,20%)">senorblanco</text>
<text x="1.723" y="0.501" font-size="0.016641" fill="hsl(0.0,100%,20%)">nifong</text>
<text x="0.159" y="0.860" font-size="0.013110" fill="hsl(0.0,100%,20%)">djsollen</text>
<text x="0.686" y="0.191" font-size="0.009009" fill="hsl(180.0,100%,20%)">stani</text>
<text x="1.801" y="0.870" font-size="0.003090" fill="hsl(180.0,100%,20%)">enga</text>
<text x="1.879" y="0.789" font-size="0.002185" fill="hsl(180.0,100%,20%)">kbr</text>
<text x="0.319" y="0.470" font-size="0.007247" fill="hsl(0.0,100%,20%)">enne</text>
<text x="1.283" y="0.676" font-size="0.010925" fill="hsl(0.0,100%,20%)">khushalsagar</text>
<text x="0.425" y="0.237" font-size="0.002185" fill="hsl(0.0,100%,20%)">backer</text>
<text x="1.096" y="0.393" font-size="0.003785" fill="hsl(0.0,100%,20%)">isabelren</text>
<text x="0.924" y="0.466" font-size="0.004370" fill="hsl(0.0,100%,20%)">aparchur</text>
<text x="0.292" y="0.474" font-size="0.004370" fill="hsl(180.0,100%,20%)">gkaiser</text>
<text x="0.068" y="0.764" font-size="0.019786" fill="hsl(0.0,100%,20%)">scroggo</text>
<text x="0.296" y="0.933" font-size="0.003785" fill="hsl(0.0,100%,20%)">tdenniston</text>
<text x="1.705" y="0.563" font-size="0.003090" fill="hsl(0.0,100%,20%)">lovisolo</text>
<text x="1.303" y="0.204" font-size="0.003785" fill="hsl(180.0,100%,20%)">liyuqian</text>
<text x="0.525" y="0.026" font-size="0.004370" fill="hsl(180.0,100%,20%)">martin</text>
<text x="0.359" y="0.681" font-size="0.005352" fill="hsl(0.0,100%,20%)">westont</text>
<text x="0.826" y="0.426" font-size="0.002185" fill="hsl(0.0,100%,20%)">thakis</text>
<text x="0.367" y="0.624" font-size="0.002185" fill="hsl(0.0,100%,20%)">jimbankoski</text>
<text x="0.389" y="0.504" font-size="0.002185" fill="hsl(0.0,100%,20%)">lsalzman</text>
<text x="1.500" y="0.393" font-size="0.002185" fill="hsl(0.0,100%,20%)">pirama</text>
<text x="0.055" y="0.704" font-size="0.013470" fill="hsl(0.0,100%,20%)">nigeltao</text>
<text x="0.438" y="0.363" font-size="0.006180" fill="hsl(0.0,100%,20%)">nihohit</text>
<text x="0.212" y="0.510" font-size="0.008740" fill="hsl(0.0,100%,20%)">rosasco</text>
<text x="0.240" y="0.720" font-size="0.003090" fill="hsl(0.0,100%,20%)">chz</text>
<text x="0.079" y="0.653" font-size="0.002185" fill="hsl(0.0,100%,20%)">jgaillard</text>
<text x="0.854" y="0.407" font-size="0.002185" fill="hsl(180.0,100%,20%)">cwallez</text>
<text x="0.776" y="0.205" font-size="0.004370" fill="hsl(180.0,100%,20%)">sergeyu</text>
<text x="1.699" y="0.259" font-size="0.003785" fill="hsl(180.0,100%,20%)">thomasanderson</text>
</svg>
