<svg width="4000" height="2000" viewBox="-0.025 -0.025 2.05 1.05" xmlns="http://www.w3.org/2000/svg">
  <style>
    path {
      fill: none;
      stroke-linecap: round;
      stroke-opacity: 0.4;
    }

    text {
      text-anchor: middle;
      alignment-baseline: hanging;
    }
  </style>
  <g opacity="0.4">
<path d="M0.233 0.845 Q0.724 0.703 0.555 0.432" stroke="hsl(0.0,100%,35%)" stroke-width="0.00086"></path>
<path d="M0.233 0.845 Q0.263 0.776 0.135 0.746" stroke="hsl(0.0,100%,35%)" stroke-width="0.00086"></path>
<path d="M0.233 0.845 Q1.537 0.904 1.939 0.281" stroke="hsl(0.0,100%,35%)" stroke-width="0.00086"></path>
<path d="M0.233 0.845 Q1.466 0.736 1.524 0.110" stroke="hsl(0.0,100%,35%)" stroke-width="0.00086"></path>
<path d="M0.555 0.432 Q0.684 0.601 1.041 0.575" stroke="hsl(180.0,100%,35%)" stroke-width="0.00513"></path>
<path d="M0.555 0.432 Q0.494 0.571 0.751 0.631" stroke="hsl(180.0,100%,35%)" stroke-width="0.05818"></path>
<path d="M0.555 0.432 Q0.094 0.505 0.135 0.746" stroke="hsl(180.0,100%,35%)" stroke-width="0.01198"></path>
<path d="M0.555 0.432 Q1.297 0.465 1.524 0.110" stroke="hsl(180.0,100%,35%)" stroke-width="0.00513"></path>
<path d="M0.555 0.432 Q0.724 0.890 1.654 0.909" stroke="hsl(180.0,100%,35%)" stroke-width="0.00257"></path>
<path d="M0.555 0.432 Q0.740 0.355 0.629 0.248" stroke="hsl(180.0,100%,35%)" stroke-width="0.00684"></path>
<path d="M0.555 0.432 Q0.991 0.727 1.662 0.579" stroke="hsl(180.0,100%,35%)" stroke-width="0.00257"></path>
<path d="M0.555 0.432 Q0.064 0.574 0.233 0.845" stroke="hsl(180.0,100%,35%)" stroke-width="0.00257"></path>
<path d="M0.555 0.432 Q1.369 0.633 1.939 0.281" stroke="hsl(180.0,100%,35%)" stroke-width="0.00599"></path>
<path d="M0.555 0.432 Q0.802 0.704 1.385 0.643" stroke="hsl(180.0,100%,35%)" stroke-width="0.00086"></path>
<path d="M0.555 0.432 Q0.586 0.325 0.383 0.286" stroke="hsl(180.0,100%,35%)" stroke-width="0.00171"></path>
<path d="M0.555 0.432 Q0.787 0.454 0.879 0.345" stroke="hsl(180.0,100%,35%)" stroke-width="0.00086"></path>
<path d="M0.555 0.432 Q0.620 0.481 0.728 0.460" stroke="hsl(180.0,100%,35%)" stroke-width="0.00171"></path>
<path d="M0.555 0.432 Q0.326 0.629 0.659 0.784" stroke="hsl(180.0,100%,35%)" stroke-width="0.00257"></path>
<path d="M0.555 0.432 Q1.140 0.772 1.930 0.561" stroke="hsl(180.0,100%,35%)" stroke-width="0.00086"></path>
<path d="M0.555 0.432 Q0.219 0.416 0.113 0.577" stroke="hsl(180.0,100%,35%)" stroke-width="0.00086"></path>
<path d="M0.135 0.746 Q0.535 0.812 0.751 0.631" stroke="hsl(0.0,100%,35%)" stroke-width="0.01198"></path>
<path d="M0.135 0.746 Q0.367 0.870 0.659 0.784" stroke="hsl(0.0,100%,35%)" stroke-width="0.01198"></path>
<path d="M0.135 0.746 Q1.181 1.013 1.930 0.561" stroke="hsl(0.0,100%,35%)" stroke-width="0.01112"></path>
<path d="M0.135 0.746 Q1.410 0.874 1.939 0.281" stroke="hsl(0.0,100%,35%)" stroke-width="0.00257"></path>
<path d="M0.135 0.746 Q0.260 0.657 0.113 0.577" stroke="hsl(0.0,100%,35%)" stroke-width="0.00428"></path>
<path d="M0.135 0.746 Q0.105 0.815 0.233 0.845" stroke="hsl(0.0,100%,35%)" stroke-width="0.00257"></path>
<path d="M0.135 0.746 Q1.338 0.706 1.524 0.110" stroke="hsl(0.0,100%,35%)" stroke-width="0.00086"></path>
<path d="M0.135 0.746 Q0.596 0.673 0.555 0.432" stroke="hsl(0.0,100%,35%)" stroke-width="0.00684"></path>
<path d="M1.939 0.281 Q0.665 0.153 0.135 0.746" stroke="hsl(0.0,100%,35%)" stroke-width="0.00086"></path>
<path d="M1.939 0.281 Q1.310 0.002 0.629 0.248" stroke="hsl(0.0,100%,35%)" stroke-width="0.00171"></path>
<path d="M1.939 0.281 Q1.868 0.112 1.524 0.110" stroke="hsl(0.0,100%,35%)" stroke-width="0.00856"></path>
<path d="M1.939 0.281 Q1.562 0.374 1.662 0.579" stroke="hsl(0.0,100%,35%)" stroke-width="0.00086"></path>
<path d="M1.939 0.281 Q1.065 0.218 0.751 0.631" stroke="hsl(0.0,100%,35%)" stroke-width="0.00086"></path>
<path d="M1.939 0.281 Q0.897 0.276 0.659 0.784" stroke="hsl(0.0,100%,35%)" stroke-width="0.00086"></path>
<path d="M1.939 0.281 Q0.790 0.063 0.113 0.577" stroke="hsl(0.0,100%,35%)" stroke-width="0.00257"></path>
<path d="M1.939 0.281 Q1.126 0.080 0.555 0.432" stroke="hsl(0.0,100%,35%)" stroke-width="0.00086"></path>
<path d="M1.939 0.281 Q1.711 0.419 1.930 0.561" stroke="hsl(0.0,100%,35%)" stroke-width="0.00086"></path>
<path d="M1.524 0.110 Q1.595 0.279 1.939 0.281" stroke="hsl(0.0,100%,35%)" stroke-width="0.00770"></path>
<path d="M1.524 0.110 Q0.321 0.151 0.135 0.746" stroke="hsl(0.0,100%,35%)" stroke-width="0.00684"></path>
<path d="M1.524 0.110 Q0.966 0.000 0.629 0.248" stroke="hsl(0.0,100%,35%)" stroke-width="0.00086"></path>
<path d="M1.524 0.110 Q1.218 0.372 1.662 0.579" stroke="hsl(0.0,100%,35%)" stroke-width="0.00086"></path>
<path d="M1.524 0.110 Q0.446 0.061 0.113 0.577" stroke="hsl(0.0,100%,35%)" stroke-width="0.00086"></path>
<path d="M1.524 0.110 Q1.367 0.417 1.930 0.561" stroke="hsl(0.0,100%,35%)" stroke-width="0.00086"></path>
<path d="M1.524 0.110 Q0.721 0.216 0.751 0.631" stroke="hsl(0.0,100%,35%)" stroke-width="0.00171"></path>
<path d="M1.524 0.110 Q0.553 0.274 0.659 0.784" stroke="hsl(0.0,100%,35%)" stroke-width="0.00086"></path>
<path d="M0.751 0.631 Q0.812 0.493 0.555 0.432" stroke="hsl(180.0,100%,35%)" stroke-width="0.01968"></path>
<path d="M0.751 0.631 Q0.980 0.951 1.654 0.909" stroke="hsl(180.0,100%,35%)" stroke-width="0.00086"></path>
<path d="M0.751 0.631 Q0.843 0.385 0.383 0.286" stroke="hsl(180.0,100%,35%)" stroke-width="0.00257"></path>
<path d="M0.751 0.631 Q0.996 0.415 0.629 0.248" stroke="hsl(180.0,100%,35%)" stroke-width="0.00086"></path>
<path d="M0.751 0.631 Q0.941 0.661 1.041 0.575" stroke="hsl(180.0,100%,35%)" stroke-width="0.00086"></path>
<path d="M0.751 0.631 Q0.351 0.566 0.135 0.746" stroke="hsl(180.0,100%,35%)" stroke-width="0.00171"></path>
<path d="M1.654 0.909 Q1.516 0.343 0.383 0.286" stroke="hsl(180.0,100%,35%)" stroke-width="0.00342"></path>
<path d="M1.654 0.909 Q1.550 0.499 0.728 0.460" stroke="hsl(180.0,100%,35%)" stroke-width="0.00086"></path>
<path d="M1.654 0.909 Q1.670 0.373 0.629 0.248" stroke="hsl(180.0,100%,35%)" stroke-width="0.00086"></path>
<path d="M1.654 0.909 Q1.486 0.451 0.555 0.432" stroke="hsl(180.0,100%,35%)" stroke-width="0.00086"></path>
<path d="M0.383 0.286 Q0.291 0.532 0.751 0.631" stroke="hsl(180.0,100%,35%)" stroke-width="0.01027"></path>
<path d="M0.383 0.286 Q0.481 0.562 1.041 0.575" stroke="hsl(180.0,100%,35%)" stroke-width="0.00171"></path>
<path d="M0.383 0.286 Q0.536 0.316 0.629 0.248" stroke="hsl(180.0,100%,35%)" stroke-width="0.00513"></path>
<path d="M0.383 0.286 Q0.599 0.665 1.385 0.643" stroke="hsl(180.0,100%,35%)" stroke-width="0.00086"></path>
<path d="M0.383 0.286 Q0.217 0.351 0.308 0.446" stroke="hsl(180.0,100%,35%)" stroke-width="0.00086"></path>
<path d="M0.383 0.286 Q0.352 0.394 0.555 0.432" stroke="hsl(180.0,100%,35%)" stroke-width="0.00171"></path>
<path d="M0.383 0.286 Q1.094 0.426 1.524 0.110" stroke="hsl(180.0,100%,35%)" stroke-width="0.00086"></path>
<path d="M0.383 0.286 Q0.329 0.191 0.132 0.197" stroke="hsl(180.0,100%,35%)" stroke-width="0.00086"></path>
<path d="M0.383 0.286 Q0.749 0.274 0.806 0.092" stroke="hsl(180.0,100%,35%)" stroke-width="0.00171"></path>
<path d="M0.629 0.248 Q0.475 0.218 0.383 0.286" stroke="hsl(180.0,100%,35%)" stroke-width="0.02909"></path>
<path d="M0.629 0.248 Q0.383 0.464 0.751 0.631" stroke="hsl(180.0,100%,35%)" stroke-width="0.01540"></path>
<path d="M0.629 0.248 Q0.613 0.783 1.654 0.909" stroke="hsl(180.0,100%,35%)" stroke-width="0.00428"></path>
<path d="M0.629 0.248 Q0.842 0.205 0.806 0.092" stroke="hsl(180.0,100%,35%)" stroke-width="0.00342"></path>
<path d="M0.629 0.248 Q0.691 0.597 1.385 0.643" stroke="hsl(180.0,100%,35%)" stroke-width="0.00086"></path>
<path d="M0.629 0.248 Q0.574 0.494 1.041 0.575" stroke="hsl(180.0,100%,35%)" stroke-width="0.00086"></path>
<path d="M0.629 0.248 Q1.186 0.358 1.524 0.110" stroke="hsl(180.0,100%,35%)" stroke-width="0.00599"></path>
<path d="M0.629 0.248 Q0.444 0.325 0.555 0.432" stroke="hsl(180.0,100%,35%)" stroke-width="0.00257"></path>
<path d="M0.629 0.248 Q1.258 0.526 1.939 0.281" stroke="hsl(180.0,100%,35%)" stroke-width="0.00428"></path>
<path d="M0.629 0.248 Q-0.015 0.566 0.464 0.949" stroke="hsl(180.0,100%,35%)" stroke-width="0.00428"></path>
<path d="M0.629 0.248 Q0.840 0.344 1.074 0.262" stroke="hsl(180.0,100%,35%)" stroke-width="0.00086"></path>
<path d="M0.629 0.248 Q0.880 0.620 1.662 0.579" stroke="hsl(180.0,100%,35%)" stroke-width="0.00086"></path>
<path d="M0.629 0.248 Q1.029 0.665 1.930 0.561" stroke="hsl(180.0,100%,35%)" stroke-width="0.00171"></path>
<path d="M0.629 0.248 Q0.108 0.309 0.113 0.577" stroke="hsl(180.0,100%,35%)" stroke-width="0.00086"></path>
<path d="M1.041 0.575 Q0.576 0.390 0.113 0.577" stroke="hsl(180.0,100%,35%)" stroke-width="0.00257"></path>
<path d="M1.041 0.575 Q0.851 0.545 0.751 0.631" stroke="hsl(180.0,100%,35%)" stroke-width="0.01027"></path>
<path d="M1.041 0.575 Q0.943 0.299 0.383 0.286" stroke="hsl(180.0,100%,35%)" stroke-width="0.00171"></path>
<path d="M1.041 0.575 Q1.096 0.329 0.629 0.248" stroke="hsl(180.0,100%,35%)" stroke-width="0.00086"></path>
<path d="M1.041 0.575 Q0.912 0.406 0.555 0.432" stroke="hsl(180.0,100%,35%)" stroke-width="0.00342"></path>
<path d="M1.194 0.127 Q1.372 0.185 1.524 0.110" stroke="hsl(0.0,100%,35%)" stroke-width="0.00941"></path>
<path d="M1.194 0.127 Q0.401 0.349 0.659 0.784" stroke="hsl(0.0,100%,35%)" stroke-width="0.00086"></path>
<path d="M1.194 0.127 Q1.215 0.491 1.930 0.561" stroke="hsl(0.0,100%,35%)" stroke-width="0.00086"></path>
<path d="M0.659 0.784 Q0.428 0.660 0.135 0.746" stroke="hsl(0.0,100%,35%)" stroke-width="0.00599"></path>
<path d="M0.659 0.784 Q0.553 0.571 0.113 0.577" stroke="hsl(0.0,100%,35%)" stroke-width="0.00086"></path>
<path d="M0.659 0.784 Q1.631 0.620 1.524 0.110" stroke="hsl(0.0,100%,35%)" stroke-width="0.00171"></path>
<path d="M0.659 0.784 Q0.889 0.587 0.555 0.432" stroke="hsl(0.0,100%,35%)" stroke-width="0.00086"></path>
<path d="M0.659 0.784 Q0.827 0.726 0.751 0.631" stroke="hsl(0.0,100%,35%)" stroke-width="0.00171"></path>
<path d="M1.930 0.561 Q2.159 0.423 1.939 0.281" stroke="hsl(0.0,100%,35%)" stroke-width="0.02481"></path>
<path d="M1.930 0.561 Q2.087 0.254 1.524 0.110" stroke="hsl(0.0,100%,35%)" stroke-width="0.00513"></path>
<path d="M1.930 0.561 Q1.284 0.360 0.751 0.631" stroke="hsl(0.0,100%,35%)" stroke-width="0.00086"></path>
<path d="M1.930 0.561 Q1.530 0.144 0.629 0.248" stroke="hsl(0.0,100%,35%)" stroke-width="0.00171"></path>
<path d="M0.132 0.197 Q0.339 0.322 0.629 0.248" stroke="hsl(180.0,100%,35%)" stroke-width="0.00171"></path>
<path d="M0.132 0.197 Q0.186 0.292 0.383 0.286" stroke="hsl(180.0,100%,35%)" stroke-width="0.01369"></path>
<path d="M0.132 0.197 Q0.093 0.538 0.751 0.631" stroke="hsl(180.0,100%,35%)" stroke-width="0.00257"></path>
<path d="M0.132 0.197 Q0.897 0.432 1.524 0.110" stroke="hsl(180.0,100%,35%)" stroke-width="0.00086"></path>
<path d="M1.662 0.579 Q1.811 0.624 1.930 0.561" stroke="hsl(0.0,100%,35%)" stroke-width="0.00086"></path>
<path d="M1.662 0.579 Q1.473 0.556 1.385 0.643" stroke="hsl(0.0,100%,35%)" stroke-width="0.00171"></path>
<path d="M1.662 0.579 Q1.226 0.284 0.555 0.432" stroke="hsl(0.0,100%,35%)" stroke-width="0.00086"></path>
<path d="M1.662 0.579 Q1.968 0.317 1.524 0.110" stroke="hsl(0.0,100%,35%)" stroke-width="0.00257"></path>
<path d="M1.662 0.579 Q1.411 0.207 0.629 0.248" stroke="hsl(0.0,100%,35%)" stroke-width="0.00086"></path>
<path d="M0.113 0.577 Q-0.012 0.666 0.135 0.746" stroke="hsl(0.0,100%,35%)" stroke-width="0.01454"></path>
<path d="M0.113 0.577 Q-0.041 0.734 0.233 0.845" stroke="hsl(0.0,100%,35%)" stroke-width="0.00342"></path>
<path d="M0.113 0.577 Q1.192 0.626 1.524 0.110" stroke="hsl(0.0,100%,35%)" stroke-width="0.00513"></path>
<path d="M0.113 0.577 Q0.388 0.731 0.751 0.631" stroke="hsl(0.0,100%,35%)" stroke-width="0.00599"></path>
<path d="M0.113 0.577 Q0.579 0.761 1.041 0.575" stroke="hsl(0.0,100%,35%)" stroke-width="0.00171"></path>
<path d="M0.113 0.577 Q0.450 0.593 0.555 0.432" stroke="hsl(0.0,100%,35%)" stroke-width="0.00428"></path>
<path d="M0.113 0.577 Q0.220 0.790 0.659 0.784" stroke="hsl(0.0,100%,35%)" stroke-width="0.00513"></path>
<path d="M0.113 0.577 Q0.634 0.515 0.629 0.248" stroke="hsl(0.0,100%,35%)" stroke-width="0.00086"></path>
<path d="M0.113 0.577 Q1.263 0.794 1.939 0.281" stroke="hsl(0.0,100%,35%)" stroke-width="0.00171"></path>
<path d="M0.113 0.577 Q1.034 0.932 1.930 0.561" stroke="hsl(0.0,100%,35%)" stroke-width="0.00171"></path>
<path d="M0.113 0.577 Q0.696 0.864 1.385 0.643" stroke="hsl(0.0,100%,35%)" stroke-width="0.00086"></path>
<path d="M0.113 0.577 Q0.480 0.485 0.383 0.286" stroke="hsl(0.0,100%,35%)" stroke-width="0.00171"></path>
<path d="M0.113 0.577 Q0.847 0.473 0.806 0.092" stroke="hsl(0.0,100%,35%)" stroke-width="0.00086"></path>
<path d="M1.233 0.523 Q1.709 0.375 1.524 0.110" stroke="hsl(0.0,100%,35%)" stroke-width="0.00257"></path>
<path d="M1.233 0.523 Q0.505 0.415 0.135 0.746" stroke="hsl(0.0,100%,35%)" stroke-width="0.00086"></path>
<path d="M1.233 0.523 Q0.737 0.539 0.659 0.784" stroke="hsl(0.0,100%,35%)" stroke-width="0.00086"></path>
<path d="M0.464 0.949 Q0.614 1.031 0.805 0.975" stroke="hsl(180.0,100%,35%)" stroke-width="0.00086"></path>
<path d="M0.464 0.949 Q1.107 0.632 0.629 0.248" stroke="hsl(180.0,100%,35%)" stroke-width="0.01027"></path>
<path d="M0.464 0.949 Q0.923 0.709 0.555 0.432" stroke="hsl(180.0,100%,35%)" stroke-width="0.00171"></path>
<path d="M1.359 0.921 Q1.287 0.654 0.751 0.631" stroke="hsl(180.0,100%,35%)" stroke-width="0.00342"></path>
<path d="M1.359 0.921 Q1.516 0.974 1.654 0.909" stroke="hsl(180.0,100%,35%)" stroke-width="0.00428"></path>
<path d="M1.359 0.921 Q1.379 0.408 0.383 0.286" stroke="hsl(180.0,100%,35%)" stroke-width="0.00171"></path>
</g>
<text x="0.233" y="0.834" font-size="0.021675" fill="hsl(0.0,100%,20%)">armansito</text>
<text x="0.555" y="0.393" font-size="0.077935" fill="hsl(180.0,100%,20%)">johnstiles</text>
<text x="0.135" y="0.716" font-size="0.061306" fill="hsl(0.0,100%,20%)">michaelludwig</text>
<text x="1.939" y="0.255" font-size="0.050832" fill="hsl(0.0,100%,20%)">nicolettep</text>
<text x="1.524" y="0.084" font-size="0.052456" fill="hsl(0.0,100%,20%)">egdaniel</text>
<text x="0.751" y="0.593" font-size="0.076632" fill="hsl(180.0,100%,20%)">brianosman</text>
<text x="1.654" y="0.895" font-size="0.026546" fill="hsl(180.0,100%,20%)">fmalita</text>
<text x="0.383" y="0.258" font-size="0.055864" fill="hsl(180.0,100%,20%)">bungeman</text>
<text x="0.629" y="0.215" font-size="0.065025" fill="hsl(180.0,100%,20%)">kjlubick</text>
<text x="1.041" y="0.558" font-size="0.033778" fill="hsl(180.0,100%,20%)">herb</text>
<text x="1.194" y="0.117" font-size="0.020886" fill="hsl(0.0,100%,20%)">briansalomon</text>
<text x="0.659" y="0.766" font-size="0.036637" fill="hsl(0.0,100%,20%)">jamesgk</text>
<text x="1.930" y="0.538" font-size="0.044871" fill="hsl(0.0,100%,20%)">robertphillips</text>
<text x="1.385" y="0.636" font-size="0.014190" fill="hsl(0.0,100%,20%)">scroggo</text>
<text x="0.308" y="0.443" font-size="0.005793" fill="hsl(180.0,100%,20%)">jreck</text>
<text x="0.132" y="0.183" font-size="0.027782" fill="hsl(180.0,100%,20%)">drott</text>
<text x="0.806" y="0.085" font-size="0.015326" fill="hsl(180.0,100%,20%)">jlavrova</text>
<text x="1.662" y="0.568" font-size="0.021675" fill="hsl(0.0,100%,20%)">nscobie</text>
<text x="0.113" y="0.552" font-size="0.048811" fill="hsl(0.0,100%,20%)">jvanverth</text>
<text x="0.728" y="0.455" font-size="0.010034" fill="hsl(180.0,100%,20%)">jmbetancourt</text>
<text x="1.233" y="0.517" font-size="0.012953" fill="hsl(0.0,100%,20%)">hitawala</text>
<text x="0.879" y="0.342" font-size="0.005793" fill="hsl(180.0,100%,20%)">rmistry</text>
<text x="0.464" y="0.936" font-size="0.025906" fill="hsl(180.0,100%,20%)">lovisolo</text>
<text x="1.074" y="0.259" font-size="0.005793" fill="hsl(180.0,100%,20%)">jcgregorio</text>
<text x="0.805" y="0.972" font-size="0.005793" fill="hsl(180.0,100%,20%)">borenet</text>
<text x="1.359" y="0.911" font-size="0.019213" fill="hsl(180.0,100%,20%)">mike</text>
</svg>
