<svg width="4000" height="2000" viewBox="-0.025 -0.025 2.05 1.05" xmlns="http://www.w3.org/2000/svg">
  <style>
    path {
      fill: none;
      stroke-linecap: round;
      stroke-opacity: 0.4;
    }

    text {
      text-anchor: middle;
      alignment-baseline: hanging;
    }
  </style>
  <g opacity="0.4">
<path d="M0.487 0.240 Q0.682 0.183 0.612 0.075" stroke="hsl(0.0,100%,35%)" stroke-width="0.00115"></path>
<path d="M0.487 0.240 Q0.364 0.125 0.112 0.160" stroke="hsl(0.0,100%,35%)" stroke-width="0.00672"></path>
<path d="M0.487 0.240 Q0.245 0.376 0.457 0.524" stroke="hsl(0.0,100%,35%)" stroke-width="0.00403"></path>
<path d="M0.487 0.240 Q1.142 0.420 1.636 0.140" stroke="hsl(0.0,100%,35%)" stroke-width="0.00096"></path>
<path d="M0.487 0.240 Q0.416 0.630 1.162 0.750" stroke="hsl(0.0,100%,35%)" stroke-width="0.00192"></path>
<path d="M0.487 0.240 Q0.899 0.483 1.464 0.336" stroke="hsl(0.0,100%,35%)" stroke-width="0.00115"></path>
<path d="M0.487 0.240 Q0.467 0.428 0.830 0.479" stroke="hsl(0.0,100%,35%)" stroke-width="0.00115"></path>
<path d="M0.487 0.240 Q0.735 0.598 1.488 0.556" stroke="hsl(0.0,100%,35%)" stroke-width="0.00038"></path>
<path d="M0.487 0.240 Q0.328 0.423 0.651 0.541" stroke="hsl(0.0,100%,35%)" stroke-width="0.00019"></path>
<path d="M0.487 0.240 Q0.343 0.722 1.251 0.898" stroke="hsl(0.0,100%,35%)" stroke-width="0.00019"></path>
<path d="M0.487 0.240 Q0.646 0.291 0.780 0.225" stroke="hsl(0.0,100%,35%)" stroke-width="0.00038"></path>
<path d="M0.487 0.240 Q0.424 0.541 0.997 0.638" stroke="hsl(0.0,100%,35%)" stroke-width="0.00058"></path>
<path d="M0.612 0.075 Q0.830 0.376 1.464 0.336" stroke="hsl(0.0,100%,35%)" stroke-width="0.00019"></path>
<path d="M0.612 0.075 Q1.075 0.401 1.812 0.247" stroke="hsl(0.0,100%,35%)" stroke-width="0.00019"></path>
<path d="M0.612 0.075 Q0.418 0.133 0.487 0.240" stroke="hsl(0.0,100%,35%)" stroke-width="0.00096"></path>
<path d="M0.612 0.075 Q0.295 0.017 0.112 0.160" stroke="hsl(0.0,100%,35%)" stroke-width="0.00058"></path>
<path d="M0.612 0.075 Q0.770 0.316 1.275 0.292" stroke="hsl(0.0,100%,35%)" stroke-width="0.00019"></path>
<path d="M0.112 0.160 Q-0.007 0.411 0.457 0.524" stroke="hsl(0.0,100%,35%)" stroke-width="0.00365"></path>
<path d="M0.112 0.160 Q0.215 0.463 0.830 0.479" stroke="hsl(0.0,100%,35%)" stroke-width="0.00537"></path>
<path d="M0.112 0.160 Q0.235 0.275 0.487 0.240" stroke="hsl(0.0,100%,35%)" stroke-width="0.00633"></path>
<path d="M0.112 0.160 Q0.024 0.512 0.692 0.632" stroke="hsl(0.0,100%,35%)" stroke-width="0.00077"></path>
<path d="M0.112 0.160 Q0.394 0.326 0.780 0.225" stroke="hsl(0.0,100%,35%)" stroke-width="0.00019"></path>
<path d="M0.112 0.160 Q0.483 0.633 1.488 0.556" stroke="hsl(0.0,100%,35%)" stroke-width="0.00038"></path>
<path d="M0.112 0.160 Q0.076 0.458 0.651 0.541" stroke="hsl(0.0,100%,35%)" stroke-width="0.00077"></path>
<path d="M0.112 0.160 Q0.587 0.458 1.275 0.292" stroke="hsl(0.0,100%,35%)" stroke-width="0.00019"></path>
<path d="M0.112 0.160 Q0.006 0.231 0.121 0.298" stroke="hsl(0.0,100%,35%)" stroke-width="0.00038"></path>
<path d="M0.112 0.160 Q0.164 0.665 1.162 0.750" stroke="hsl(0.0,100%,35%)" stroke-width="0.00019"></path>
<path d="M0.112 0.160 Q0.276 0.187 0.367 0.113" stroke="hsl(0.0,100%,35%)" stroke-width="0.00019"></path>
<path d="M0.457 0.524 Q0.628 0.778 1.162 0.750" stroke="hsl(0.0,100%,35%)" stroke-width="0.00077"></path>
<path d="M0.457 0.524 Q0.376 0.627 0.559 0.688" stroke="hsl(0.0,100%,35%)" stroke-width="0.00211"></path>
<path d="M0.457 0.524 Q0.554 0.870 1.251 0.898" stroke="hsl(0.0,100%,35%)" stroke-width="0.00230"></path>
<path d="M0.457 0.524 Q1.214 0.531 1.395 0.163" stroke="hsl(0.0,100%,35%)" stroke-width="0.00058"></path>
<path d="M0.457 0.524 Q0.332 0.478 0.214 0.528" stroke="hsl(0.0,100%,35%)" stroke-width="0.00019"></path>
<path d="M0.457 0.524 Q0.335 0.799 0.846 0.919" stroke="hsl(0.0,100%,35%)" stroke-width="0.00115"></path>
<path d="M0.457 0.524 Q0.575 0.273 0.112 0.160" stroke="hsl(0.0,100%,35%)" stroke-width="0.00173"></path>
<path d="M0.457 0.524 Q0.635 0.689 0.997 0.638" stroke="hsl(0.0,100%,35%)" stroke-width="0.00192"></path>
<path d="M0.457 0.524 Q0.857 0.439 0.780 0.225" stroke="hsl(0.0,100%,35%)" stroke-width="0.00192"></path>
<path d="M0.457 0.524 Q1.355 0.656 1.812 0.247" stroke="hsl(0.0,100%,35%)" stroke-width="0.00134"></path>
<path d="M0.457 0.524 Q0.540 0.571 0.651 0.541" stroke="hsl(0.0,100%,35%)" stroke-width="0.00058"></path>
<path d="M0.457 0.524 Q0.915 0.902 1.754 0.761" stroke="hsl(0.0,100%,35%)" stroke-width="0.00038"></path>
<path d="M0.457 0.524 Q1.024 0.380 0.867 0.071" stroke="hsl(0.0,100%,35%)" stroke-width="0.00058"></path>
<path d="M0.457 0.524 Q0.725 0.496 0.729 0.359" stroke="hsl(0.0,100%,35%)" stroke-width="0.00154"></path>
<path d="M0.457 0.524 Q1.111 0.631 1.464 0.336" stroke="hsl(0.0,100%,35%)" stroke-width="0.00019"></path>
<path d="M0.457 0.524 Q0.947 0.746 1.488 0.556" stroke="hsl(0.0,100%,35%)" stroke-width="0.00038"></path>
<path d="M0.457 0.524 Q0.699 0.388 0.487 0.240" stroke="hsl(0.0,100%,35%)" stroke-width="0.00096"></path>
<path d="M0.457 0.524 Q0.679 0.576 0.830 0.479" stroke="hsl(0.0,100%,35%)" stroke-width="0.00096"></path>
<path d="M0.457 0.524 Q0.518 0.446 0.380 0.399" stroke="hsl(0.0,100%,35%)" stroke-width="0.00038"></path>
<path d="M0.457 0.524 Q1.051 0.571 1.275 0.292" stroke="hsl(0.0,100%,35%)" stroke-width="0.00038"></path>
<path d="M0.457 0.524 Q1.353 0.568 1.636 0.140" stroke="hsl(0.0,100%,35%)" stroke-width="0.00019"></path>
<path d="M0.457 0.524 Q1.126 0.671 1.561 0.377" stroke="hsl(0.0,100%,35%)" stroke-width="0.00019"></path>
<path d="M0.457 0.524 Q0.391 0.429 0.192 0.441" stroke="hsl(0.0,100%,35%)" stroke-width="0.00058"></path>
<path d="M1.636 0.140 Q1.230 0.318 1.488 0.556" stroke="hsl(180.0,100%,35%)" stroke-width="0.00115"></path>
<path d="M1.636 0.140 Q1.394 0.204 1.464 0.336" stroke="hsl(180.0,100%,35%)" stroke-width="0.01037"></path>
<path d="M1.636 0.140 Q1.638 0.229 1.812 0.247" stroke="hsl(180.0,100%,35%)" stroke-width="0.00557"></path>
<path d="M1.636 0.140 Q0.858 -0.155 0.112 0.160" stroke="hsl(180.0,100%,35%)" stroke-width="0.00096"></path>
<path d="M1.636 0.140 Q0.982 -0.040 0.487 0.240" stroke="hsl(180.0,100%,35%)" stroke-width="0.00096"></path>
<path d="M1.636 0.140 Q0.771 0.197 0.692 0.632" stroke="hsl(180.0,100%,35%)" stroke-width="0.00038"></path>
<path d="M1.636 0.140 Q1.437 0.344 1.791 0.486" stroke="hsl(180.0,100%,35%)" stroke-width="0.00019"></path>
<path d="M1.636 0.140 Q0.918 0.261 0.997 0.638" stroke="hsl(180.0,100%,35%)" stroke-width="0.00461"></path>
<path d="M1.636 0.140 Q1.563 0.154 1.574 0.192" stroke="hsl(180.0,100%,35%)" stroke-width="0.00058"></path>
<path d="M1.636 0.140 Q1.334 0.144 1.275 0.292" stroke="hsl(180.0,100%,35%)" stroke-width="0.00403"></path>
<path d="M1.636 0.140 Q0.837 0.442 1.251 0.898" stroke="hsl(180.0,100%,35%)" stroke-width="0.00096"></path>
<path d="M1.636 0.140 Q1.497 0.103 1.395 0.163" stroke="hsl(180.0,100%,35%)" stroke-width="0.00038"></path>
<path d="M1.636 0.140 Q1.140 0.011 0.780 0.225" stroke="hsl(180.0,100%,35%)" stroke-width="0.00019"></path>
<path d="M1.636 0.140 Q1.307 -0.048 0.867 0.071" stroke="hsl(180.0,100%,35%)" stroke-width="0.00096"></path>
<path d="M1.636 0.140 Q1.383 0.448 1.928 0.639" stroke="hsl(180.0,100%,35%)" stroke-width="0.00019"></path>
<path d="M1.636 0.140 Q2.352 -0.269 1.711 -0.708" stroke="hsl(180.0,100%,35%)" stroke-width="0.00038"></path>
<path d="M1.636 0.140 Q1.102 0.276 1.250 0.566" stroke="hsl(180.0,100%,35%)" stroke-width="0.00019"></path>
<path d="M1.636 0.140 Q0.740 0.096 0.457 0.524" stroke="hsl(180.0,100%,35%)" stroke-width="0.00019"></path>
<path d="M1.636 0.140 Q0.911 0.350 1.162 0.750" stroke="hsl(180.0,100%,35%)" stroke-width="0.00038"></path>
<path d="M1.636 0.140 Q1.409 0.244 1.561 0.377" stroke="hsl(180.0,100%,35%)" stroke-width="0.00019"></path>
<path d="M1.162 0.750 Q1.088 0.842 1.251 0.898" stroke="hsl(180.0,100%,35%)" stroke-width="0.01939"></path>
<path d="M1.162 0.750 Q1.481 0.718 1.488 0.556" stroke="hsl(180.0,100%,35%)" stroke-width="0.03417"></path>
<path d="M1.162 0.750 Q1.585 0.544 1.275 0.292" stroke="hsl(180.0,100%,35%)" stroke-width="0.00038"></path>
<path d="M1.162 0.750 Q1.169 0.661 0.997 0.638" stroke="hsl(180.0,100%,35%)" stroke-width="0.02265"></path>
<path d="M1.162 0.750 Q1.748 0.503 1.395 0.163" stroke="hsl(180.0,100%,35%)" stroke-width="0.00211"></path>
<path d="M1.162 0.750 Q1.391 0.411 0.780 0.225" stroke="hsl(180.0,100%,35%)" stroke-width="0.00326"></path>
<path d="M1.162 0.750 Q1.016 0.783 1.049 0.862" stroke="hsl(180.0,100%,35%)" stroke-width="0.00019"></path>
<path d="M1.162 0.750 Q1.889 0.629 1.812 0.247" stroke="hsl(180.0,100%,35%)" stroke-width="0.00768"></path>
<path d="M1.162 0.750 Q1.233 0.360 0.487 0.240" stroke="hsl(180.0,100%,35%)" stroke-width="0.00307"></path>
<path d="M1.162 0.750 Q1.427 0.303 0.612 0.075" stroke="hsl(180.0,100%,35%)" stroke-width="0.00019"></path>
<path d="M1.162 0.750 Q0.869 0.771 0.846 0.919" stroke="hsl(180.0,100%,35%)" stroke-width="0.00365"></path>
<path d="M1.162 0.750 Q0.991 0.496 0.457 0.524" stroke="hsl(180.0,100%,35%)" stroke-width="0.00077"></path>
<path d="M1.162 0.750 Q1.109 0.245 0.112 0.160" stroke="hsl(180.0,100%,35%)" stroke-width="0.00096"></path>
<path d="M1.162 0.750 Q1.213 0.548 0.830 0.479" stroke="hsl(180.0,100%,35%)" stroke-width="0.00058"></path>
<path d="M1.162 0.750 Q1.814 0.554 1.574 0.192" stroke="hsl(180.0,100%,35%)" stroke-width="0.00038"></path>
<path d="M1.162 0.750 Q1.887 0.540 1.636 0.140" stroke="hsl(180.0,100%,35%)" stroke-width="0.00019"></path>
<path d="M1.162 0.750 Q1.008 0.711 0.897 0.777" stroke="hsl(180.0,100%,35%)" stroke-width="0.00192"></path>
<path d="M1.162 0.750 Q1.449 0.874 1.754 0.761" stroke="hsl(180.0,100%,35%)" stroke-width="0.00154"></path>
<path d="M1.162 0.750 Q1.816 0.721 1.902 0.395" stroke="hsl(180.0,100%,35%)" stroke-width="0.00019"></path>
<path d="M1.162 0.750 Q1.645 0.604 1.464 0.336" stroke="hsl(180.0,100%,35%)" stroke-width="0.00077"></path>
<path d="M1.162 0.750 Q1.634 0.848 1.928 0.639" stroke="hsl(180.0,100%,35%)" stroke-width="0.00077"></path>
<path d="M1.162 0.750 Q1.308 0.674 1.192 0.586" stroke="hsl(180.0,100%,35%)" stroke-width="0.00019"></path>
<path d="M1.162 0.750 Q0.240 1.409 1.323 2.003" stroke="hsl(180.0,100%,35%)" stroke-width="0.00019"></path>
<path d="M1.162 0.750 Q1.022 0.597 0.692 0.632" stroke="hsl(180.0,100%,35%)" stroke-width="0.00019"></path>
<path d="M1.162 0.750 Q1.558 0.352 0.867 0.071" stroke="hsl(180.0,100%,35%)" stroke-width="0.00038"></path>
<path d="M1.162 0.750 Q1.362 0.648 1.207 0.528" stroke="hsl(180.0,100%,35%)" stroke-width="0.00019"></path>
<path d="M1.162 0.750 Q0.925 0.402 0.192 0.441" stroke="hsl(180.0,100%,35%)" stroke-width="0.00019"></path>
<path d="M1.464 0.336 Q1.707 0.272 1.636 0.140" stroke="hsl(180.0,100%,35%)" stroke-width="0.00576"></path>
<path d="M1.464 0.336 Q1.568 0.236 1.395 0.163" stroke="hsl(180.0,100%,35%)" stroke-width="0.00250"></path>
<path d="M1.464 0.336 Q1.405 0.276 1.275 0.292" stroke="hsl(180.0,100%,35%)" stroke-width="0.01286"></path>
<path d="M1.464 0.336 Q0.908 0.574 1.251 0.898" stroke="hsl(180.0,100%,35%)" stroke-width="0.00019"></path>
<path d="M1.464 0.336 Q1.709 0.361 1.812 0.247" stroke="hsl(180.0,100%,35%)" stroke-width="0.01824"></path>
<path d="M1.464 0.336 Q1.634 0.286 1.574 0.192" stroke="hsl(180.0,100%,35%)" stroke-width="0.00230"></path>
<path d="M1.464 0.336 Q0.989 0.393 0.997 0.638" stroke="hsl(180.0,100%,35%)" stroke-width="0.00461"></path>
<path d="M1.464 0.336 Q0.828 0.443 0.897 0.777" stroke="hsl(180.0,100%,35%)" stroke-width="0.00019"></path>
<path d="M1.464 0.336 Q0.810 0.228 0.457 0.524" stroke="hsl(180.0,100%,35%)" stroke-width="0.00019"></path>
<path d="M1.464 0.336 Q1.053 0.093 0.487 0.240" stroke="hsl(180.0,100%,35%)" stroke-width="0.00038"></path>
<path d="M1.464 0.336 Q1.211 0.144 0.780 0.225" stroke="hsl(180.0,100%,35%)" stroke-width="0.00019"></path>
<path d="M1.464 0.336 Q1.454 0.580 1.928 0.639" stroke="hsl(180.0,100%,35%)" stroke-width="0.00019"></path>
<path d="M1.464 0.336 Q1.300 0.451 1.488 0.556" stroke="hsl(180.0,100%,35%)" stroke-width="0.00019"></path>
<path d="M1.464 0.336 Q0.982 0.483 1.162 0.750" stroke="hsl(180.0,100%,35%)" stroke-width="0.00038"></path>
<path d="M0.830 0.479 Q0.726 0.176 0.112 0.160" stroke="hsl(0.0,100%,35%)" stroke-width="0.00557"></path>
<path d="M0.830 0.479 Q0.608 0.427 0.457 0.524" stroke="hsl(0.0,100%,35%)" stroke-width="0.00038"></path>
<path d="M0.830 0.479 Q0.691 0.474 0.651 0.541" stroke="hsl(0.0,100%,35%)" stroke-width="0.00384"></path>
<path d="M0.830 0.479 Q0.850 0.291 0.487 0.240" stroke="hsl(0.0,100%,35%)" stroke-width="0.00115"></path>
<path d="M0.830 0.479 Q0.705 0.773 1.251 0.898" stroke="hsl(0.0,100%,35%)" stroke-width="0.00019"></path>
<path d="M0.830 0.479 Q0.486 0.702 0.846 0.919" stroke="hsl(0.0,100%,35%)" stroke-width="0.00096"></path>
<path d="M0.830 0.479 Q0.639 0.528 0.692 0.632" stroke="hsl(0.0,100%,35%)" stroke-width="0.00019"></path>
<path d="M0.830 0.479 Q1.098 0.649 1.488 0.556" stroke="hsl(0.0,100%,35%)" stroke-width="0.00019"></path>
<path d="M0.830 0.479 Q1.202 0.475 1.275 0.292" stroke="hsl(0.0,100%,35%)" stroke-width="0.00038"></path>
<path d="M1.488 0.556 Q1.169 0.588 1.162 0.750" stroke="hsl(0.0,100%,35%)" stroke-width="0.01843"></path>
<path d="M1.488 0.556 Q1.399 0.249 0.780 0.225" stroke="hsl(0.0,100%,35%)" stroke-width="0.02150"></path>
<path d="M1.488 0.556 Q1.361 0.513 1.250 0.566" stroke="hsl(0.0,100%,35%)" stroke-width="0.00230"></path>
<path d="M1.488 0.556 Q1.895 0.378 1.636 0.140" stroke="hsl(0.0,100%,35%)" stroke-width="0.00288"></path>
<path d="M1.488 0.556 Q1.897 0.466 1.812 0.247" stroke="hsl(0.0,100%,35%)" stroke-width="0.00173"></path>
<path d="M1.488 0.556 Q1.177 0.498 0.997 0.638" stroke="hsl(0.0,100%,35%)" stroke-width="0.00211"></path>
<path d="M1.488 0.556 Q0.998 0.333 0.457 0.524" stroke="hsl(0.0,100%,35%)" stroke-width="0.00038"></path>
<path d="M1.488 0.556 Q1.096 0.679 1.251 0.898" stroke="hsl(0.0,100%,35%)" stroke-width="0.00038"></path>
<path d="M1.488 0.556 Q1.593 0.381 1.275 0.292" stroke="hsl(0.0,100%,35%)" stroke-width="0.00038"></path>
<path d="M1.488 0.556 Q0.877 0.609 0.846 0.919" stroke="hsl(0.0,100%,35%)" stroke-width="0.00019"></path>
<path d="M1.488 0.556 Q1.565 0.189 0.867 0.071" stroke="hsl(0.0,100%,35%)" stroke-width="0.00096"></path>
<path d="M1.488 0.556 Q1.266 0.306 0.729 0.359" stroke="hsl(0.0,100%,35%)" stroke-width="0.00038"></path>
<path d="M1.488 0.556 Q1.641 0.685 1.928 0.639" stroke="hsl(0.0,100%,35%)" stroke-width="0.00019"></path>
<path d="M0.651 0.541 Q0.687 0.243 0.112 0.160" stroke="hsl(0.0,100%,35%)" stroke-width="0.00096"></path>
<path d="M0.651 0.541 Q0.599 0.595 0.692 0.632" stroke="hsl(0.0,100%,35%)" stroke-width="0.00077"></path>
<path d="M0.651 0.541 Q1.222 0.601 1.464 0.336" stroke="hsl(0.0,100%,35%)" stroke-width="0.00019"></path>
<path d="M0.651 0.541 Q0.790 0.546 0.830 0.479" stroke="hsl(0.0,100%,35%)" stroke-width="0.00058"></path>
<path d="M0.651 0.541 Q0.581 0.313 0.121 0.298" stroke="hsl(0.0,100%,35%)" stroke-width="0.00019"></path>
<path d="M0.651 0.541 Q0.487 0.596 0.559 0.688" stroke="hsl(0.0,100%,35%)" stroke-width="0.00019"></path>
<path d="M1.251 0.898 Q1.324 0.806 1.162 0.750" stroke="hsl(180.0,100%,35%)" stroke-width="0.00941"></path>
<path d="M1.251 0.898 Q1.032 0.827 0.846 0.919" stroke="hsl(180.0,100%,35%)" stroke-width="0.01094"></path>
<path d="M1.251 0.898 Q1.332 0.717 0.997 0.638" stroke="hsl(180.0,100%,35%)" stroke-width="0.00422"></path>
<path d="M1.251 0.898 Q1.153 0.552 0.457 0.524" stroke="hsl(180.0,100%,35%)" stroke-width="0.00134"></path>
<path d="M1.251 0.898 Q2.052 0.685 1.812 0.247" stroke="hsl(180.0,100%,35%)" stroke-width="0.00230"></path>
<path d="M1.251 0.898 Q1.554 0.467 0.780 0.225" stroke="hsl(180.0,100%,35%)" stroke-width="0.00115"></path>
<path d="M1.251 0.898 Q1.807 0.660 1.464 0.336" stroke="hsl(180.0,100%,35%)" stroke-width="0.00058"></path>
<path d="M1.251 0.898 Q1.911 0.559 1.395 0.163" stroke="hsl(180.0,100%,35%)" stroke-width="0.00096"></path>
<path d="M1.251 0.898 Q2.050 0.596 1.636 0.140" stroke="hsl(180.0,100%,35%)" stroke-width="0.00077"></path>
<path d="M1.251 0.898 Q1.748 0.600 1.275 0.292" stroke="hsl(180.0,100%,35%)" stroke-width="0.00154"></path>
<path d="M1.251 0.898 Q1.720 0.408 0.867 0.071" stroke="hsl(180.0,100%,35%)" stroke-width="0.00019"></path>
<path d="M1.251 0.898 Q1.643 0.774 1.488 0.556" stroke="hsl(180.0,100%,35%)" stroke-width="0.00058"></path>
<path d="M1.251 0.898 Q1.272 0.301 0.112 0.160" stroke="hsl(180.0,100%,35%)" stroke-width="0.00038"></path>
<path d="M1.251 0.898 Q1.977 0.610 1.574 0.192" stroke="hsl(180.0,100%,35%)" stroke-width="0.00019"></path>
<path d="M1.251 0.898 Q1.421 0.524 0.729 0.359" stroke="hsl(180.0,100%,35%)" stroke-width="0.00019"></path>
<path d="M1.251 0.898 Q1.170 0.767 0.897 0.777" stroke="hsl(180.0,100%,35%)" stroke-width="0.00038"></path>
<path d="M1.251 0.898 Q1.073 0.655 0.559 0.688" stroke="hsl(180.0,100%,35%)" stroke-width="0.00019"></path>
<path d="M1.251 0.898 Q1.797 0.904 1.928 0.639" stroke="hsl(180.0,100%,35%)" stroke-width="0.00019"></path>
<path d="M0.780 0.225 Q0.551 0.564 1.162 0.750" stroke="hsl(0.0,100%,35%)" stroke-width="0.00384"></path>
<path d="M0.780 0.225 Q0.477 0.656 1.251 0.898" stroke="hsl(0.0,100%,35%)" stroke-width="0.00192"></path>
<path d="M0.780 0.225 Q1.278 0.442 1.812 0.247" stroke="hsl(0.0,100%,35%)" stroke-width="0.00077"></path>
<path d="M0.780 0.225 Q0.258 0.585 0.846 0.919" stroke="hsl(0.0,100%,35%)" stroke-width="0.00154"></path>
<path d="M0.780 0.225 Q0.869 0.532 1.488 0.556" stroke="hsl(0.0,100%,35%)" stroke-width="0.00787"></path>
<path d="M0.780 0.225 Q0.578 0.235 0.554 0.336" stroke="hsl(0.0,100%,35%)" stroke-width="0.00134"></path>
<path d="M0.780 0.225 Q0.647 0.282 0.729 0.359" stroke="hsl(0.0,100%,35%)" stroke-width="0.00134"></path>
<path d="M0.780 0.225 Q0.946 0.166 0.867 0.071" stroke="hsl(0.0,100%,35%)" stroke-width="0.00307"></path>
<path d="M0.780 0.225 Q0.742 0.138 0.563 0.138" stroke="hsl(0.0,100%,35%)" stroke-width="0.00019"></path>
<path d="M0.780 0.225 Q0.974 0.357 1.275 0.292" stroke="hsl(0.0,100%,35%)" stroke-width="0.00019"></path>
<path d="M0.780 0.225 Q0.558 0.475 0.997 0.638" stroke="hsl(0.0,100%,35%)" stroke-width="0.00058"></path>
<path d="M0.780 0.225 Q0.379 0.310 0.457 0.524" stroke="hsl(0.0,100%,35%)" stroke-width="0.00019"></path>
<path d="M0.780 0.225 Q1.033 0.417 1.464 0.336" stroke="hsl(0.0,100%,35%)" stroke-width="0.00019"></path>
<path d="M0.997 0.638 Q1.717 0.605 1.812 0.247" stroke="hsl(180.0,100%,35%)" stroke-width="0.01977"></path>
<path d="M0.997 0.638 Q1.576 0.480 1.395 0.163" stroke="hsl(180.0,100%,35%)" stroke-width="0.00230"></path>
<path d="M0.997 0.638 Q0.916 0.819 1.251 0.898" stroke="hsl(180.0,100%,35%)" stroke-width="0.00557"></path>
<path d="M0.997 0.638 Q1.472 0.580 1.464 0.336" stroke="hsl(180.0,100%,35%)" stroke-width="0.00192"></path>
<path d="M0.997 0.638 Q0.989 0.727 1.162 0.750" stroke="hsl(180.0,100%,35%)" stroke-width="0.01459"></path>
<path d="M0.997 0.638 Q0.835 0.687 0.897 0.777" stroke="hsl(180.0,100%,35%)" stroke-width="0.01113"></path>
<path d="M0.997 0.638 Q1.412 0.520 1.275 0.292" stroke="hsl(180.0,100%,35%)" stroke-width="0.00518"></path>
<path d="M0.997 0.638 Q1.641 0.530 1.574 0.192" stroke="hsl(180.0,100%,35%)" stroke-width="0.00019"></path>
<path d="M0.997 0.638 Q1.068 0.437 0.693 0.359" stroke="hsl(180.0,100%,35%)" stroke-width="0.00019"></path>
<path d="M0.997 0.638 Q1.515 0.721 1.791 0.486" stroke="hsl(180.0,100%,35%)" stroke-width="0.00019"></path>
<path d="M0.997 0.638 Q1.714 0.517 1.636 0.140" stroke="hsl(180.0,100%,35%)" stroke-width="0.00096"></path>
<path d="M0.997 0.638 Q1.155 0.563 1.045 0.469" stroke="hsl(180.0,100%,35%)" stroke-width="0.00019"></path>
<path d="M0.997 0.638 Q0.818 0.473 0.457 0.524" stroke="hsl(180.0,100%,35%)" stroke-width="0.00346"></path>
<path d="M0.997 0.638 Q0.697 0.748 0.846 0.919" stroke="hsl(180.0,100%,35%)" stroke-width="0.00115"></path>
<path d="M0.997 0.638 Q1.219 0.388 0.780 0.225" stroke="hsl(180.0,100%,35%)" stroke-width="0.00077"></path>
<path d="M0.997 0.638 Q1.040 0.525 0.830 0.479" stroke="hsl(180.0,100%,35%)" stroke-width="0.00077"></path>
<path d="M0.997 0.638 Q0.937 0.222 0.112 0.160" stroke="hsl(180.0,100%,35%)" stroke-width="0.00096"></path>
<path d="M0.997 0.638 Q1.385 0.329 0.867 0.071" stroke="hsl(180.0,100%,35%)" stroke-width="0.00019"></path>
<path d="M0.997 0.638 Q1.060 0.337 0.487 0.240" stroke="hsl(180.0,100%,35%)" stroke-width="0.00077"></path>
<path d="M0.997 0.638 Q1.308 0.695 1.488 0.556" stroke="hsl(180.0,100%,35%)" stroke-width="0.00058"></path>
<path d="M0.692 0.632 Q0.744 0.578 0.651 0.541" stroke="hsl(180.0,100%,35%)" stroke-width="0.00115"></path>
<path d="M0.692 0.632 Q0.780 0.280 0.112 0.160" stroke="hsl(180.0,100%,35%)" stroke-width="0.00019"></path>
<path d="M0.692 0.632 Q1.228 0.387 0.867 0.071" stroke="hsl(180.0,100%,35%)" stroke-width="0.00038"></path>
<path d="M0.692 0.632 Q0.883 0.583 0.830 0.479" stroke="hsl(180.0,100%,35%)" stroke-width="0.00019"></path>
<path d="M1.275 0.292 Q1.334 0.352 1.464 0.336" stroke="hsl(180.0,100%,35%)" stroke-width="0.03321"></path>
<path d="M1.275 0.292 Q0.799 -0.007 0.112 0.160" stroke="hsl(180.0,100%,35%)" stroke-width="0.00250"></path>
<path d="M1.275 0.292 Q1.117 0.051 0.612 0.075" stroke="hsl(180.0,100%,35%)" stroke-width="0.00019"></path>
<path d="M1.275 0.292 Q1.579 0.377 1.812 0.247" stroke="hsl(180.0,100%,35%)" stroke-width="0.01747"></path>
<path d="M1.275 0.292 Q1.270 0.350 1.382 0.365" stroke="hsl(180.0,100%,35%)" stroke-width="0.00019"></path>
<path d="M1.275 0.292 Q0.859 0.409 0.997 0.638" stroke="hsl(180.0,100%,35%)" stroke-width="0.00211"></path>
<path d="M1.275 0.292 Q0.778 0.590 1.251 0.898" stroke="hsl(180.0,100%,35%)" stroke-width="0.00115"></path>
<path d="M1.275 0.292 Q1.577 0.288 1.636 0.140" stroke="hsl(180.0,100%,35%)" stroke-width="0.00192"></path>
<path d="M1.275 0.292 Q0.903 0.297 0.830 0.479" stroke="hsl(180.0,100%,35%)" stroke-width="0.00019"></path>
<path d="M1.275 0.292 Q1.438 0.251 1.395 0.163" stroke="hsl(180.0,100%,35%)" stroke-width="0.00614"></path>
<path d="M1.275 0.292 Q0.697 0.459 0.897 0.777" stroke="hsl(180.0,100%,35%)" stroke-width="0.00019"></path>
<path d="M1.275 0.292 Q1.114 0.274 1.043 0.348" stroke="hsl(180.0,100%,35%)" stroke-width="0.00019"></path>
<path d="M1.275 0.292 Q0.852 0.499 1.162 0.750" stroke="hsl(180.0,100%,35%)" stroke-width="0.00058"></path>
<path d="M1.275 0.292 Q0.680 0.244 0.457 0.524" stroke="hsl(180.0,100%,35%)" stroke-width="0.00019"></path>
<path d="M1.812 0.247 Q1.567 0.222 1.464 0.336" stroke="hsl(180.0,100%,35%)" stroke-width="0.02035"></path>
<path d="M1.812 0.247 Q1.507 0.162 1.275 0.292" stroke="hsl(180.0,100%,35%)" stroke-width="0.01555"></path>
<path d="M1.812 0.247 Q0.930 0.329 0.897 0.777" stroke="hsl(180.0,100%,35%)" stroke-width="0.00115"></path>
<path d="M1.812 0.247 Q1.671 0.122 1.395 0.163" stroke="hsl(180.0,100%,35%)" stroke-width="0.00806"></path>
<path d="M1.812 0.247 Q1.092 0.279 0.997 0.638" stroke="hsl(180.0,100%,35%)" stroke-width="0.01440"></path>
<path d="M1.812 0.247 Q1.809 0.158 1.636 0.140" stroke="hsl(180.0,100%,35%)" stroke-width="0.00288"></path>
<path d="M1.812 0.247 Q1.181 0.087 0.729 0.359" stroke="hsl(180.0,100%,35%)" stroke-width="0.00019"></path>
<path d="M1.812 0.247 Q0.996 0.162 0.651 0.541" stroke="hsl(180.0,100%,35%)" stroke-width="0.00019"></path>
<path d="M1.812 0.247 Q1.084 0.369 1.162 0.750" stroke="hsl(180.0,100%,35%)" stroke-width="0.00230"></path>
<path d="M1.812 0.247 Q1.313 0.030 0.780 0.225" stroke="hsl(180.0,100%,35%)" stroke-width="0.00038"></path>
<path d="M1.812 0.247 Q1.403 0.337 1.488 0.556" stroke="hsl(180.0,100%,35%)" stroke-width="0.00019"></path>
<path d="M1.812 0.247 Q1.011 0.460 1.251 0.898" stroke="hsl(180.0,100%,35%)" stroke-width="0.00019"></path>
<path d="M1.812 0.247 Q1.736 0.172 1.574 0.192" stroke="hsl(180.0,100%,35%)" stroke-width="0.00058"></path>
<path d="M1.395 0.163 Q1.231 0.203 1.275 0.292" stroke="hsl(180.0,100%,35%)" stroke-width="0.01267"></path>
<path d="M1.395 0.163 Q0.808 0.410 1.162 0.750" stroke="hsl(180.0,100%,35%)" stroke-width="0.00058"></path>
<path d="M1.395 0.163 Q1.291 0.263 1.464 0.336" stroke="hsl(180.0,100%,35%)" stroke-width="0.00115"></path>
<path d="M1.395 0.163 Q0.735 0.502 1.251 0.898" stroke="hsl(180.0,100%,35%)" stroke-width="0.00211"></path>
<path d="M1.395 0.163 Q1.536 0.288 1.812 0.247" stroke="hsl(180.0,100%,35%)" stroke-width="0.01133"></path>
<path d="M1.395 0.163 Q0.816 0.321 0.997 0.638" stroke="hsl(180.0,100%,35%)" stroke-width="0.00211"></path>
<path d="M1.395 0.163 Q1.533 0.200 1.636 0.140" stroke="hsl(180.0,100%,35%)" stroke-width="0.00038"></path>
<path d="M1.395 0.163 Q1.460 0.213 1.574 0.192" stroke="hsl(180.0,100%,35%)" stroke-width="0.00038"></path>
<path d="M1.395 0.163 Q0.720 0.203 0.651 0.541" stroke="hsl(180.0,100%,35%)" stroke-width="0.00019"></path>
<path d="M1.395 0.163 Q0.516 0.431 0.846 0.919" stroke="hsl(180.0,100%,35%)" stroke-width="0.00019"></path>
<path d="M1.395 0.163 Q1.204 0.012 0.867 0.071" stroke="hsl(180.0,100%,35%)" stroke-width="0.00038"></path>
<path d="M1.395 0.163 Q0.879 0.020 0.487 0.240" stroke="hsl(180.0,100%,35%)" stroke-width="0.00019"></path>
<path d="M0.897 0.777 Q1.778 0.695 1.812 0.247" stroke="hsl(180.0,100%,35%)" stroke-width="0.00269"></path>
<path d="M0.897 0.777 Q1.058 0.728 0.997 0.638" stroke="hsl(180.0,100%,35%)" stroke-width="0.00845"></path>
<path d="M0.897 0.777 Q1.533 0.670 1.464 0.336" stroke="hsl(180.0,100%,35%)" stroke-width="0.00230"></path>
<path d="M0.897 0.777 Q0.880 0.562 0.457 0.524" stroke="hsl(180.0,100%,35%)" stroke-width="0.00173"></path>
<path d="M0.897 0.777 Q1.776 0.607 1.636 0.140" stroke="hsl(180.0,100%,35%)" stroke-width="0.00038"></path>
<path d="M0.897 0.777 Q1.703 0.620 1.574 0.192" stroke="hsl(180.0,100%,35%)" stroke-width="0.00058"></path>
<path d="M0.897 0.777 Q1.051 0.817 1.162 0.750" stroke="hsl(180.0,100%,35%)" stroke-width="0.00058"></path>
<path d="M0.897 0.777 Q1.474 0.610 1.275 0.292" stroke="hsl(180.0,100%,35%)" stroke-width="0.00019"></path>
<path d="M0.897 0.777 Q0.977 0.909 1.251 0.898" stroke="hsl(180.0,100%,35%)" stroke-width="0.00154"></path>
<path d="M0.897 0.777 Q1.637 0.570 1.395 0.163" stroke="hsl(180.0,100%,35%)" stroke-width="0.00019"></path>
<path d="M0.897 0.777 Q0.764 0.732 0.647 0.787" stroke="hsl(180.0,100%,35%)" stroke-width="0.00019"></path>
<path d="M1.574 0.192 Q1.647 0.179 1.636 0.140" stroke="hsl(180.0,100%,35%)" stroke-width="0.00115"></path>
<path d="M1.574 0.192 Q0.750 0.135 0.457 0.524" stroke="hsl(180.0,100%,35%)" stroke-width="0.00038"></path>
<path d="M1.574 0.192 Q1.649 0.267 1.812 0.247" stroke="hsl(180.0,100%,35%)" stroke-width="0.01075"></path>
<path d="M1.574 0.192 Q1.508 0.142 1.395 0.163" stroke="hsl(180.0,100%,35%)" stroke-width="0.00269"></path>
<path d="M1.574 0.192 Q1.345 0.183 1.275 0.292" stroke="hsl(180.0,100%,35%)" stroke-width="0.00998"></path>
<path d="M1.574 0.192 Q1.404 0.242 1.464 0.336" stroke="hsl(180.0,100%,35%)" stroke-width="0.00691"></path>
<path d="M1.574 0.192 Q0.929 0.300 0.997 0.638" stroke="hsl(180.0,100%,35%)" stroke-width="0.00134"></path>
<path d="M1.574 0.192 Q0.921 0.389 1.162 0.750" stroke="hsl(180.0,100%,35%)" stroke-width="0.00038"></path>
<path d="M1.574 0.192 Q1.662 0.102 1.504 0.039" stroke="hsl(180.0,100%,35%)" stroke-width="0.00019"></path>
<path d="M1.574 0.192 Q1.184 0.164 1.043 0.348" stroke="hsl(180.0,100%,35%)" stroke-width="0.00077"></path>
<path d="M1.574 0.192 Q0.670 0.238 0.559 0.688" stroke="hsl(180.0,100%,35%)" stroke-width="0.00038"></path>
<path d="M1.574 0.192 Q0.869 -0.116 0.112 0.160" stroke="hsl(180.0,100%,35%)" stroke-width="0.00058"></path>
<path d="M1.574 0.192 Q0.767 0.349 0.897 0.777" stroke="hsl(180.0,100%,35%)" stroke-width="0.00077"></path>
<path d="M1.574 0.192 Q0.629 0.410 0.846 0.919" stroke="hsl(180.0,100%,35%)" stroke-width="0.00019"></path>
<path d="M1.791 0.486 Q1.737 0.590 1.928 0.639" stroke="hsl(180.0,100%,35%)" stroke-width="0.00038"></path>
<path d="M1.791 0.486 Q1.097 0.491 0.955 0.831" stroke="hsl(180.0,100%,35%)" stroke-width="0.00019"></path>
<path d="M1.791 0.486 Q1.265 0.492 1.162 0.750" stroke="hsl(180.0,100%,35%)" stroke-width="0.00019"></path>
<path d="M0.846 0.919 Q1.139 0.898 1.162 0.750" stroke="hsl(180.0,100%,35%)" stroke-width="0.00576"></path>
<path d="M0.846 0.919 Q1.458 0.866 1.488 0.556" stroke="hsl(180.0,100%,35%)" stroke-width="0.00019"></path>
<path d="M0.846 0.919 Q1.065 0.989 1.251 0.898" stroke="hsl(180.0,100%,35%)" stroke-width="0.01363"></path>
<path d="M0.846 0.919 Q1.725 0.650 1.395 0.163" stroke="hsl(180.0,100%,35%)" stroke-width="0.00038"></path>
<path d="M0.846 0.919 Q0.865 0.987 1.002 0.993" stroke="hsl(180.0,100%,35%)" stroke-width="0.00096"></path>
<path d="M0.846 0.919 Q1.368 0.559 0.780 0.225" stroke="hsl(180.0,100%,35%)" stroke-width="0.00653"></path>
<path d="M0.846 0.919 Q1.146 0.808 0.997 0.638" stroke="hsl(180.0,100%,35%)" stroke-width="0.00096"></path>
<path d="M0.846 0.919 Q0.906 0.981 1.040 0.965" stroke="hsl(180.0,100%,35%)" stroke-width="0.00058"></path>
<path d="M0.846 0.919 Q0.968 0.643 0.457 0.524" stroke="hsl(180.0,100%,35%)" stroke-width="0.00154"></path>
<path d="M0.846 0.919 Q1.086 0.392 0.112 0.160" stroke="hsl(180.0,100%,35%)" stroke-width="0.00038"></path>
<path d="M0.846 0.919 Q1.611 0.995 1.928 0.639" stroke="hsl(180.0,100%,35%)" stroke-width="0.00019"></path>
<path d="M0.846 0.919 Q1.866 0.776 1.812 0.247" stroke="hsl(180.0,100%,35%)" stroke-width="0.00058"></path>
<path d="M0.846 0.919 Q1.562 0.691 1.275 0.292" stroke="hsl(180.0,100%,35%)" stroke-width="0.00019"></path>
<path d="M0.846 0.919 Q1.051 0.691 0.651 0.541" stroke="hsl(180.0,100%,35%)" stroke-width="0.00019"></path>
<path d="M0.846 0.919 Q1.210 0.508 0.487 0.240" stroke="hsl(180.0,100%,35%)" stroke-width="0.00077"></path>
<path d="M0.846 0.919 Q1.190 0.696 0.830 0.479" stroke="hsl(180.0,100%,35%)" stroke-width="0.00077"></path>
<path d="M0.867 0.071 Q0.383 0.263 0.651 0.541" stroke="hsl(0.0,100%,35%)" stroke-width="0.00077"></path>
<path d="M0.867 0.071 Q0.471 0.470 1.162 0.750" stroke="hsl(0.0,100%,35%)" stroke-width="0.00326"></path>
<path d="M0.867 0.071 Q0.701 0.131 0.780 0.225" stroke="hsl(0.0,100%,35%)" stroke-width="0.01632"></path>
<path d="M0.867 0.071 Q1.197 0.260 1.636 0.140" stroke="hsl(0.0,100%,35%)" stroke-width="0.00192"></path>
<path d="M0.867 0.071 Q0.543 0.080 0.487 0.240" stroke="hsl(0.0,100%,35%)" stroke-width="0.00077"></path>
<path d="M0.867 0.071 Q0.479 0.381 0.997 0.638" stroke="hsl(0.0,100%,35%)" stroke-width="0.00250"></path>
<path d="M0.867 0.071 Q0.419 -0.035 0.112 0.160" stroke="hsl(0.0,100%,35%)" stroke-width="0.00038"></path>
<path d="M0.867 0.071 Q0.943 0.567 1.928 0.639" stroke="hsl(0.0,100%,35%)" stroke-width="0.00096"></path>
<path d="M0.867 0.071 Q1.058 0.223 1.395 0.163" stroke="hsl(0.0,100%,35%)" stroke-width="0.00038"></path>
<path d="M0.867 0.071 Q0.331 0.317 0.692 0.632" stroke="hsl(0.0,100%,35%)" stroke-width="0.00077"></path>
<path d="M0.867 0.071 Q0.522 0.268 0.830 0.479" stroke="hsl(0.0,100%,35%)" stroke-width="0.00019"></path>
<path d="M0.867 0.071 Q0.895 0.263 1.275 0.292" stroke="hsl(0.0,100%,35%)" stroke-width="0.00019"></path>
<path d="M0.867 0.071 Q0.759 0.594 1.754 0.761" stroke="hsl(0.0,100%,35%)" stroke-width="0.00096"></path>
<path d="M0.867 0.071 Q0.300 0.215 0.457 0.524" stroke="hsl(0.0,100%,35%)" stroke-width="0.00096"></path>
<path d="M0.867 0.071 Q0.790 0.438 1.488 0.556" stroke="hsl(0.0,100%,35%)" stroke-width="0.00173"></path>
<path d="M0.867 0.071 Q0.179 0.491 0.846 0.919" stroke="hsl(0.0,100%,35%)" stroke-width="0.00058"></path>
<path d="M0.867 0.071 Q1.199 0.348 1.812 0.247" stroke="hsl(0.0,100%,35%)" stroke-width="0.00019"></path>
<path d="M0.867 0.071 Q0.568 0.188 0.729 0.359" stroke="hsl(0.0,100%,35%)" stroke-width="0.00038"></path>
<path d="M0.867 0.071 Q0.954 0.323 1.464 0.336" stroke="hsl(0.0,100%,35%)" stroke-width="0.00019"></path>
<path d="M0.867 0.071 Q0.398 0.561 1.251 0.898" stroke="hsl(0.0,100%,35%)" stroke-width="0.00019"></path>
<path d="M0.125 0.624 Q0.250 0.916 0.846 0.919" stroke="hsl(180.0,100%,35%)" stroke-width="0.00019"></path>
<path d="M0.125 0.624 Q0.542 0.894 1.162 0.750" stroke="hsl(180.0,100%,35%)" stroke-width="0.00019"></path>
<path d="M0.125 0.624 Q0.371 0.640 0.457 0.524" stroke="hsl(180.0,100%,35%)" stroke-width="0.00038"></path>
<path d="M0.125 0.624 Q0.550 0.805 0.997 0.638" stroke="hsl(180.0,100%,35%)" stroke-width="0.00019"></path>
<path d="M0.729 0.359 Q0.862 0.302 0.780 0.225" stroke="hsl(0.0,100%,35%)" stroke-width="0.01075"></path>
<path d="M0.729 0.359 Q0.461 0.387 0.457 0.524" stroke="hsl(0.0,100%,35%)" stroke-width="0.00019"></path>
<path d="M0.729 0.359 Q1.028 0.243 0.867 0.071" stroke="hsl(0.0,100%,35%)" stroke-width="0.00019"></path>
<path d="M0.729 0.359 Q1.105 0.739 1.928 0.639" stroke="hsl(0.0,100%,35%)" stroke-width="0.00019"></path>
<path d="M0.729 0.359 Q0.580 0.136 0.112 0.160" stroke="hsl(0.0,100%,35%)" stroke-width="0.00019"></path>
<path d="M0.729 0.359 Q0.951 0.609 1.488 0.556" stroke="hsl(0.0,100%,35%)" stroke-width="0.00038"></path>
<path d="M0.729 0.359 Q0.559 0.733 1.251 0.898" stroke="hsl(0.0,100%,35%)" stroke-width="0.00019"></path>
<path d="M0.729 0.359 Q0.632 0.641 1.162 0.750" stroke="hsl(0.0,100%,35%)" stroke-width="0.00019"></path>
<path d="M0.729 0.359 Q0.704 0.251 0.487 0.240" stroke="hsl(0.0,100%,35%)" stroke-width="0.00019"></path>
<path d="M1.711 -0.708 Q0.752 -0.235 1.464 0.336" stroke="hsl(180.0,100%,35%)" stroke-width="0.00019"></path>
<path d="M1.711 -0.708 Q0.994 -0.299 1.636 0.140" stroke="hsl(180.0,100%,35%)" stroke-width="0.00019"></path>
<path d="M1.711 -0.708 Q0.692 -0.295 1.275 0.292" stroke="hsl(180.0,100%,35%)" stroke-width="0.00019"></path>
<path d="M1.902 0.395 Q1.975 0.303 1.812 0.247" stroke="hsl(180.0,100%,35%)" stroke-width="0.00038"></path>
<path d="M1.902 0.395 Q1.973 0.214 1.636 0.140" stroke="hsl(180.0,100%,35%)" stroke-width="0.00038"></path>
<path d="M1.902 0.395 Q1.730 0.278 1.464 0.336" stroke="hsl(180.0,100%,35%)" stroke-width="0.00019"></path>
<path d="M1.902 0.395 Q1.644 0.026 0.867 0.071" stroke="hsl(180.0,100%,35%)" stroke-width="0.00019"></path>
<path d="M1.902 0.395 Q1.248 0.425 1.162 0.750" stroke="hsl(180.0,100%,35%)" stroke-width="0.00019"></path>
<path d="M1.902 0.395 Q1.255 0.335 0.997 0.638" stroke="hsl(180.0,100%,35%)" stroke-width="0.00019"></path>
<path d="M1.043 0.348 Q1.263 0.426 1.464 0.336" stroke="hsl(180.0,100%,35%)" stroke-width="0.00729"></path>
<path d="M1.043 0.348 Q1.508 0.451 1.812 0.247" stroke="hsl(180.0,100%,35%)" stroke-width="0.00250"></path>
<path d="M1.043 0.348 Q1.433 0.376 1.574 0.192" stroke="hsl(180.0,100%,35%)" stroke-width="0.00038"></path>
<path d="M1.043 0.348 Q0.707 0.665 1.251 0.898" stroke="hsl(180.0,100%,35%)" stroke-width="0.00038"></path>
<path d="M1.043 0.348 Q1.204 0.366 1.275 0.292" stroke="hsl(180.0,100%,35%)" stroke-width="0.00480"></path>
<path d="M1.043 0.348 Q0.780 0.573 1.162 0.750" stroke="hsl(180.0,100%,35%)" stroke-width="0.00096"></path>
<path d="M1.043 0.348 Q0.852 0.183 0.487 0.240" stroke="hsl(180.0,100%,35%)" stroke-width="0.00019"></path>
<path d="M1.043 0.348 Q0.971 0.333 0.925 0.364" stroke="hsl(180.0,100%,35%)" stroke-width="0.00019"></path>
<path d="M1.043 0.348 Q1.010 0.234 0.780 0.225" stroke="hsl(180.0,100%,35%)" stroke-width="0.00019"></path>
<path d="M1.043 0.348 Q0.626 0.533 0.897 0.777" stroke="hsl(180.0,100%,35%)" stroke-width="0.00077"></path>
<path d="M1.043 0.348 Q1.506 0.363 1.636 0.140" stroke="hsl(180.0,100%,35%)" stroke-width="0.00019"></path>
<path d="M0.559 0.688 Q0.640 0.585 0.457 0.524" stroke="hsl(0.0,100%,35%)" stroke-width="0.00729"></path>
<path d="M0.559 0.688 Q0.882 0.450 0.487 0.240" stroke="hsl(0.0,100%,35%)" stroke-width="0.00038"></path>
<path d="M0.559 0.688 Q0.519 0.861 0.846 0.919" stroke="hsl(0.0,100%,35%)" stroke-width="0.00038"></path>
<path d="M0.559 0.688 Q0.819 0.751 0.997 0.638" stroke="hsl(0.0,100%,35%)" stroke-width="0.00019"></path>
<path d="M0.559 0.688 Q0.723 0.633 0.651 0.541" stroke="hsl(0.0,100%,35%)" stroke-width="0.00038"></path>
<path d="M0.559 0.688 Q1.536 0.630 1.636 0.140" stroke="hsl(0.0,100%,35%)" stroke-width="0.00038"></path>
<path d="M0.559 0.688 Q0.811 0.840 1.162 0.750" stroke="hsl(0.0,100%,35%)" stroke-width="0.00038"></path>
<path d="M0.559 0.688 Q1.294 0.693 1.464 0.336" stroke="hsl(0.0,100%,35%)" stroke-width="0.00019"></path>
<path d="M0.559 0.688 Q1.463 0.643 1.574 0.192" stroke="hsl(0.0,100%,35%)" stroke-width="0.00058"></path>
<path d="M0.559 0.688 Q1.283 0.938 1.928 0.639" stroke="hsl(0.0,100%,35%)" stroke-width="0.00096"></path>
<path d="M0.559 0.688 Q0.614 0.660 0.570 0.626" stroke="hsl(0.0,100%,35%)" stroke-width="0.00019"></path>
<path d="M0.559 0.688 Q0.759 0.335 0.112 0.160" stroke="hsl(0.0,100%,35%)" stroke-width="0.00038"></path>
<path d="M1.928 0.639 Q1.743 0.665 1.754 0.761" stroke="hsl(0.0,100%,35%)" stroke-width="0.00019"></path>
<path d="M1.928 0.639 Q1.939 0.395 1.464 0.336" stroke="hsl(0.0,100%,35%)" stroke-width="0.00038"></path>
<path d="M1.928 0.639 Q1.204 0.390 0.559 0.688" stroke="hsl(0.0,100%,35%)" stroke-width="0.00019"></path>
<path d="M1.754 0.761 Q1.938 0.735 1.928 0.639" stroke="hsl(0.0,100%,35%)" stroke-width="0.00192"></path>
<path d="M1.754 0.761 Q1.393 0.729 1.251 0.898" stroke="hsl(0.0,100%,35%)" stroke-width="0.00058"></path>
<path d="M1.754 0.761 Q1.295 0.383 0.457 0.524" stroke="hsl(0.0,100%,35%)" stroke-width="0.00058"></path>
<path d="M1.754 0.761 Q1.215 0.486 0.559 0.688" stroke="hsl(0.0,100%,35%)" stroke-width="0.00019"></path>
<path d="M1.754 0.761 Q1.474 0.548 0.997 0.638" stroke="hsl(0.0,100%,35%)" stroke-width="0.00038"></path>
<path d="M1.754 0.761 Q1.600 0.745 1.534 0.816" stroke="hsl(0.0,100%,35%)" stroke-width="0.00019"></path>
<path d="M1.754 0.761 Q1.466 0.637 1.162 0.750" stroke="hsl(0.0,100%,35%)" stroke-width="0.00096"></path>
<path d="M1.754 0.761 Q1.517 0.435 0.830 0.479" stroke="hsl(0.0,100%,35%)" stroke-width="0.00019"></path>
<path d="M1.754 0.761 Q1.785 0.605 1.488 0.556" stroke="hsl(0.0,100%,35%)" stroke-width="0.00019"></path>
<path d="M1.754 0.761 Q1.414 0.132 0.112 0.160" stroke="hsl(0.0,100%,35%)" stroke-width="0.00019"></path>
<path d="M1.754 0.761 Q1.537 0.247 0.487 0.240" stroke="hsl(0.0,100%,35%)" stroke-width="0.00038"></path>
<path d="M1.754 0.761 Q1.678 0.794 1.726 0.838" stroke="hsl(0.0,100%,35%)" stroke-width="0.00038"></path>
<path d="M1.754 0.761 Q1.718 0.780 1.749 0.802" stroke="hsl(0.0,100%,35%)" stroke-width="0.00058"></path>
<path d="M1.505 0.871 Q1.902 0.840 1.928 0.639" stroke="hsl(0.0,100%,35%)" stroke-width="0.00038"></path>
<path d="M1.505 0.871 Q1.659 0.403 0.780 0.225" stroke="hsl(0.0,100%,35%)" stroke-width="0.00038"></path>
<path d="M1.505 0.871 Q1.357 0.834 1.251 0.898" stroke="hsl(0.0,100%,35%)" stroke-width="0.00058"></path>
<path d="M1.712 0.616 Q1.533 0.601 1.465 0.686" stroke="hsl(180.0,100%,35%)" stroke-width="0.00019"></path>
<path d="M1.712 0.616 Q1.592 0.348 1.043 0.348" stroke="hsl(180.0,100%,35%)" stroke-width="0.00019"></path>
<path d="M1.296 0.639 Q1.140 0.668 1.162 0.750" stroke="hsl(180.0,100%,35%)" stroke-width="0.00038"></path>
<path d="M1.296 0.639 Q1.332 0.593 1.250 0.566" stroke="hsl(180.0,100%,35%)" stroke-width="0.00019"></path>
<path d="M1.296 0.639 Q1.868 0.546 1.812 0.247" stroke="hsl(180.0,100%,35%)" stroke-width="0.00019"></path>
<path d="M1.250 0.566 Q1.786 0.519 1.812 0.247" stroke="hsl(180.0,100%,35%)" stroke-width="0.00058"></path>
<path d="M1.250 0.566 Q1.378 0.609 1.488 0.556" stroke="hsl(180.0,100%,35%)" stroke-width="0.00058"></path>
<path d="M1.250 0.566 Q1.059 0.641 1.162 0.750" stroke="hsl(180.0,100%,35%)" stroke-width="0.00019"></path>
<path d="M0.192 0.441 Q0.437 0.700 0.997 0.638" stroke="hsl(180.0,100%,35%)" stroke-width="0.00019"></path>
<path d="M0.192 0.441 Q0.902 0.887 1.928 0.639" stroke="hsl(180.0,100%,35%)" stroke-width="0.00019"></path>
<path d="M0.192 0.441 Q0.275 0.750 0.897 0.777" stroke="hsl(180.0,100%,35%)" stroke-width="0.00019"></path>
<path d="M0.192 0.441 Q0.912 0.643 1.464 0.336" stroke="hsl(180.0,100%,35%)" stroke-width="0.00038"></path>
<path d="M0.192 0.441 Q0.356 0.881 1.251 0.898" stroke="hsl(180.0,100%,35%)" stroke-width="0.00038"></path>
<path d="M0.192 0.441 Q0.137 0.811 0.846 0.919" stroke="hsl(180.0,100%,35%)" stroke-width="0.00019"></path>
<path d="M1.377 0.045 Q1.292 0.108 1.395 0.163" stroke="hsl(180.0,100%,35%)" stroke-width="0.00019"></path>
<path d="M1.377 0.045 Q0.705 0.355 1.162 0.750" stroke="hsl(180.0,100%,35%)" stroke-width="0.00019"></path>
<path d="M1.377 0.045 Q1.433 0.233 1.812 0.247" stroke="hsl(180.0,100%,35%)" stroke-width="0.00019"></path>
<path d="M1.515 0.649 Q1.265 0.540 0.997 0.638" stroke="hsl(180.0,100%,35%)" stroke-width="0.00019"></path>
<path d="M1.515 0.649 Q1.257 0.629 1.162 0.750" stroke="hsl(180.0,100%,35%)" stroke-width="0.00077"></path>
<path d="M1.515 0.649 Q1.486 0.290 0.780 0.225" stroke="hsl(180.0,100%,35%)" stroke-width="0.00019"></path>
<path d="M1.515 0.649 Q1.982 0.419 1.636 0.140" stroke="hsl(180.0,100%,35%)" stroke-width="0.00019"></path>
<path d="M1.749 0.802 Q1.784 0.783 1.754 0.761" stroke="hsl(0.0,100%,35%)" stroke-width="0.00442"></path>
<path d="M1.749 0.802 Q1.496 0.659 1.162 0.750" stroke="hsl(0.0,100%,35%)" stroke-width="0.00019"></path>
<path d="M1.749 0.802 Q1.969 0.756 1.928 0.639" stroke="hsl(0.0,100%,35%)" stroke-width="0.00019"></path>
<path d="M0.980 0.811 Q1.847 0.695 1.812 0.247" stroke="hsl(0.0,100%,35%)" stroke-width="0.00019"></path>
<path d="M0.980 0.811 Q0.827 0.838 0.846 0.919" stroke="hsl(0.0,100%,35%)" stroke-width="0.00038"></path>
<path d="M0.980 0.811 Q1.119 0.817 1.162 0.750" stroke="hsl(0.0,100%,35%)" stroke-width="0.00058"></path>
<path d="M0.980 0.811 Q0.979 0.664 0.692 0.632" stroke="hsl(0.0,100%,35%)" stroke-width="0.00019"></path>
<path d="M0.980 0.811 Q0.948 0.563 0.457 0.524" stroke="hsl(0.0,100%,35%)" stroke-width="0.00019"></path>
<path d="M0.980 0.811 Q1.349 0.478 0.780 0.225" stroke="hsl(0.0,100%,35%)" stroke-width="0.00019"></path>
<path d="M0.955 0.831 Q1.850 0.710 1.812 0.247" stroke="hsl(180.0,100%,35%)" stroke-width="0.00154"></path>
<path d="M0.955 0.831 Q1.123 0.832 1.162 0.750" stroke="hsl(180.0,100%,35%)" stroke-width="0.00154"></path>
<path d="M1.304 0.401 Q1.679 0.337 1.636 0.140" stroke="hsl(180.0,100%,35%)" stroke-width="0.00019"></path>
<path d="M1.304 0.401 Q1.377 0.341 1.275 0.292" stroke="hsl(180.0,100%,35%)" stroke-width="0.00019"></path>
<path d="M1.304 0.401 Q1.436 0.401 1.464 0.336" stroke="hsl(180.0,100%,35%)" stroke-width="0.00038"></path>
<path d="M0.963 0.378 Q1.027 0.379 1.043 0.348" stroke="hsl(180.0,100%,35%)" stroke-width="0.00115"></path>
<path d="M0.963 0.378 Q1.417 0.407 1.574 0.192" stroke="hsl(180.0,100%,35%)" stroke-width="0.00019"></path>
<path d="M0.963 0.378 Q1.188 0.397 1.275 0.292" stroke="hsl(180.0,100%,35%)" stroke-width="0.00019"></path>
<path d="M0.963 0.378 Q0.765 0.604 1.162 0.750" stroke="hsl(180.0,100%,35%)" stroke-width="0.00019"></path>
</g>
<text x="0.487" y="0.225" font-size="0.030000" fill="hsl(0.0,100%,20%)">benjaminwagner</text>
<text x="0.612" y="0.070" font-size="0.009512" fill="hsl(0.0,100%,20%)">westont</text>
<text x="0.112" y="0.144" font-size="0.032293" fill="hsl(0.0,100%,20%)">borenet</text>
<text x="0.457" y="0.506" font-size="0.034983" fill="hsl(0.0,100%,20%)">kjlubick</text>
<text x="1.636" y="0.122" font-size="0.036839" fill="hsl(180.0,100%,20%)">jvanverth</text>
<text x="1.162" y="0.717" font-size="0.066189" fill="hsl(180.0,100%,20%)">mtklein</text>
<text x="1.464" y="0.307" font-size="0.058269" fill="hsl(180.0,100%,20%)">egdaniel</text>
<text x="0.830" y="0.467" font-size="0.024300" fill="hsl(0.0,100%,20%)">rmistry</text>
<text x="1.488" y="0.531" font-size="0.050048" fill="hsl(0.0,100%,20%)">herb</text>
<text x="0.651" y="0.533" font-size="0.016619" fill="hsl(0.0,100%,20%)">jcgregorio</text>
<text x="1.251" y="0.875" font-size="0.046599" fill="hsl(180.0,100%,20%)">reed</text>
<text x="0.780" y="0.202" font-size="0.046599" fill="hsl(0.0,100%,20%)">bungeman</text>
<text x="0.997" y="0.608" font-size="0.060040" fill="hsl(180.0,100%,20%)">brianosman</text>
<text x="0.692" y="0.626" font-size="0.011339" fill="hsl(180.0,100%,20%)">hcm</text>
<text x="1.275" y="0.263" font-size="0.058105" fill="hsl(180.0,100%,20%)">robertphillips</text>
<text x="0.121" y="0.296" font-size="0.003780" fill="hsl(0.0,100%,20%)">iannucci</text>
<text x="0.367" y="0.112" font-size="0.002182" fill="hsl(0.0,100%,20%)">ehmaldonado</text>
<text x="1.812" y="0.214" font-size="0.065429" fill="hsl(180.0,100%,20%)">bsalomon</text>
<text x="1.395" y="0.144" font-size="0.038110" fill="hsl(180.0,100%,20%)">michaelludwig</text>
<text x="0.897" y="0.762" font-size="0.029681" fill="hsl(180.0,100%,20%)">ethannicholas</text>
<text x="1.574" y="0.176" font-size="0.032587" fill="hsl(180.0,100%,20%)">csmartdalton</text>
<text x="0.693" y="0.357" font-size="0.002182" fill="hsl(180.0,100%,20%)">geofflang</text>
<text x="1.791" y="0.483" font-size="0.005345" fill="hsl(180.0,100%,20%)">tdenniston</text>
<text x="1.045" y="0.468" font-size="0.002182" fill="hsl(180.0,100%,20%)">elsenorblanco</text>
<text x="0.846" y="0.900" font-size="0.037033" fill="hsl(180.0,100%,20%)">fmalita</text>
<text x="0.867" y="0.055" font-size="0.031923" fill="hsl(0.0,100%,20%)">halcanary</text>
<text x="0.125" y="0.621" font-size="0.004880" fill="hsl(180.0,100%,20%)">bryct</text>
<text x="0.729" y="0.349" font-size="0.020237" fill="hsl(0.0,100%,20%)">jlavrova</text>
<text x="0.554" y="0.333" font-size="0.005774" fill="hsl(180.0,100%,20%)">drott</text>
<text x="0.563" y="0.137" font-size="0.002182" fill="hsl(0.0,100%,20%)">etienneb</text>
<text x="1.711" y="-0.711" font-size="0.004880" fill="hsl(180.0,100%,20%)">ccameron</text>
<text x="1.902" y="0.392" font-size="0.006547" fill="hsl(180.0,100%,20%)">chinmaygarde</text>
<text x="1.504" y="0.037" font-size="0.002182" fill="hsl(180.0,100%,20%)">mjk</text>
<text x="1.043" y="0.337" font-size="0.022361" fill="hsl(180.0,100%,20%)">senorblanco</text>
<text x="0.559" y="0.679" font-size="0.019272" fill="hsl(0.0,100%,20%)">nifong</text>
<text x="1.928" y="0.632" font-size="0.013801" fill="hsl(0.0,100%,20%)">djsollen</text>
<text x="1.754" y="0.752" font-size="0.018772" fill="hsl(0.0,100%,20%)">scroggo</text>
<text x="1.505" y="0.868" font-size="0.005774" fill="hsl(0.0,100%,20%)">dmazzoni</text>
<text x="1.712" y="0.614" font-size="0.003086" fill="hsl(180.0,100%,20%)">enga</text>
<text x="1.465" y="0.684" font-size="0.002182" fill="hsl(180.0,100%,20%)">kbr</text>
<text x="1.296" y="0.637" font-size="0.004364" fill="hsl(180.0,100%,20%)">enne</text>
<text x="1.250" y="0.561" font-size="0.010000" fill="hsl(180.0,100%,20%)">khushalsagar</text>
<text x="0.647" y="0.786" font-size="0.002182" fill="hsl(180.0,100%,20%)">backer</text>
<text x="1.002" y="0.990" font-size="0.004880" fill="hsl(180.0,100%,20%)">aparchur</text>
<text x="1.040" y="0.963" font-size="0.003780" fill="hsl(180.0,100%,20%)">isabelren</text>
<text x="1.561" y="0.375" font-size="0.003086" fill="hsl(180.0,100%,20%)">stephana</text>
<text x="0.214" y="0.527" font-size="0.002182" fill="hsl(0.0,100%,20%)">dnfield</text>
<text x="0.380" y="0.397" font-size="0.003086" fill="hsl(0.0,100%,20%)">lovisolo</text>
<text x="0.192" y="0.437" font-size="0.007559" fill="hsl(180.0,100%,20%)">stani</text>
<text x="1.377" y="0.043" font-size="0.003780" fill="hsl(180.0,100%,20%)">liyuqian</text>
<text x="1.515" y="0.646" font-size="0.005774" fill="hsl(180.0,100%,20%)">martin</text>
<text x="1.049" y="0.861" font-size="0.002182" fill="hsl(180.0,100%,20%)">egarciad</text>
<text x="1.192" y="0.585" font-size="0.002182" fill="hsl(180.0,100%,20%)">thakis</text>
<text x="1.323" y="2.002" font-size="0.002182" fill="hsl(180.0,100%,20%)">jimbankoski</text>
<text x="1.207" y="0.527" font-size="0.002182" fill="hsl(180.0,100%,20%)">lsalzman</text>
<text x="0.570" y="0.625" font-size="0.002182" fill="hsl(0.0,100%,20%)">pirama</text>
<text x="1.749" y="0.796" font-size="0.011547" fill="hsl(0.0,100%,20%)">nigeltao</text>
<text x="0.980" y="0.808" font-size="0.006547" fill="hsl(0.0,100%,20%)">nihohit</text>
<text x="1.382" y="0.364" font-size="0.002182" fill="hsl(180.0,100%,20%)">penghuang</text>
<text x="0.955" y="0.826" font-size="0.008997" fill="hsl(180.0,100%,20%)">rosasco</text>
<text x="1.534" y="0.815" font-size="0.002182" fill="hsl(0.0,100%,20%)">jgaillard</text>
<text x="1.726" y="0.836" font-size="0.003086" fill="hsl(0.0,100%,20%)">chz</text>
<text x="0.925" y="0.363" font-size="0.002182" fill="hsl(180.0,100%,20%)">cwallez</text>
<text x="1.304" y="0.399" font-size="0.004364" fill="hsl(180.0,100%,20%)">sergeyu</text>
<text x="0.963" y="0.375" font-size="0.006547" fill="hsl(180.0,100%,20%)">sgilhuly</text>
</svg>
