<svg width="4000" height="2000" viewBox="-0.025 -0.025 2.05 1.05" xmlns="http://www.w3.org/2000/svg">
  <style>
    path {
      fill: none;
      stroke-linecap: round;
      stroke-opacity: 0.4;
    }

    text {
      text-anchor: middle;
      alignment-baseline: hanging;
    }
  </style>
  <g opacity="0.4">
<path d="M0.795 0.458 Q1.549 0.524 1.842 0.170" stroke="hsl(0.0,100%,35%)" stroke-width="0.00189"></path>
<path d="M0.795 0.458 Q0.626 0.736 1.131 0.880" stroke="hsl(0.0,100%,35%)" stroke-width="0.00264"></path>
<path d="M0.795 0.458 Q1.266 0.719 1.879 0.547" stroke="hsl(0.0,100%,35%)" stroke-width="0.00076"></path>
<path d="M0.795 0.458 Q1.153 0.640 1.587 0.506" stroke="hsl(0.0,100%,35%)" stroke-width="0.00113"></path>
<path d="M0.795 0.458 Q0.919 0.691 1.400 0.682" stroke="hsl(0.0,100%,35%)" stroke-width="0.00113"></path>
<path d="M0.795 0.458 Q0.694 0.520 0.792 0.583" stroke="hsl(0.0,100%,35%)" stroke-width="0.00415"></path>
<path d="M0.795 0.458 Q0.403 0.445 0.291 0.633" stroke="hsl(0.0,100%,35%)" stroke-width="0.00113"></path>
<path d="M0.795 0.458 Q1.406 0.418 1.462 0.111" stroke="hsl(0.0,100%,35%)" stroke-width="0.00038"></path>
<path d="M1.842 0.170 Q1.699 0.065 1.462 0.111" stroke="hsl(180.0,100%,35%)" stroke-width="0.05852"></path>
<path d="M1.842 0.170 Q1.616 0.135 1.498 0.237" stroke="hsl(180.0,100%,35%)" stroke-width="0.00491"></path>
<path d="M1.842 0.170 Q0.902 0.281 0.911 0.764" stroke="hsl(180.0,100%,35%)" stroke-width="0.00453"></path>
<path d="M1.842 0.170 Q1.088 0.105 0.795 0.458" stroke="hsl(180.0,100%,35%)" stroke-width="0.01246"></path>
<path d="M1.842 0.170 Q0.977 0.018 0.490 0.407" stroke="hsl(180.0,100%,35%)" stroke-width="0.00189"></path>
<path d="M1.842 0.170 Q0.919 0.383 1.131 0.880" stroke="hsl(180.0,100%,35%)" stroke-width="0.01133"></path>
<path d="M1.842 0.170 Q0.989 -0.172 0.134 0.169" stroke="hsl(180.0,100%,35%)" stroke-width="0.00113"></path>
<path d="M1.842 0.170 Q1.446 0.287 1.587 0.506" stroke="hsl(180.0,100%,35%)" stroke-width="0.01019"></path>
<path d="M1.842 0.170 Q0.987 0.167 0.792 0.583" stroke="hsl(180.0,100%,35%)" stroke-width="0.00415"></path>
<path d="M1.842 0.170 Q1.212 0.338 1.400 0.682" stroke="hsl(180.0,100%,35%)" stroke-width="0.00680"></path>
<path d="M1.842 0.170 Q1.559 0.366 1.879 0.547" stroke="hsl(180.0,100%,35%)" stroke-width="0.00944"></path>
<path d="M1.842 0.170 Q1.258 -0.087 0.627 0.141" stroke="hsl(180.0,100%,35%)" stroke-width="0.00076"></path>
<path d="M1.842 0.170 Q1.222 0.465 1.661 0.833" stroke="hsl(180.0,100%,35%)" stroke-width="0.00151"></path>
<path d="M1.842 0.170 Q0.594 0.172 0.323 0.780" stroke="hsl(180.0,100%,35%)" stroke-width="0.00038"></path>
<path d="M1.842 0.170 Q0.696 0.091 0.291 0.633" stroke="hsl(180.0,100%,35%)" stroke-width="0.00982"></path>
<path d="M1.842 0.170 Q0.970 0.457 1.338 0.945" stroke="hsl(180.0,100%,35%)" stroke-width="0.00038"></path>
<path d="M1.842 0.170 Q0.820 0.437 1.117 0.994" stroke="hsl(180.0,100%,35%)" stroke-width="0.00038"></path>
<path d="M1.842 0.170 Q1.554 0.185 1.519 0.329" stroke="hsl(180.0,100%,35%)" stroke-width="0.00038"></path>
<path d="M1.842 0.170 Q1.749 0.204 1.795 0.257" stroke="hsl(180.0,100%,35%)" stroke-width="0.00189"></path>
<path d="M1.842 0.170 Q0.655 0.206 0.465 0.793" stroke="hsl(180.0,100%,35%)" stroke-width="0.00038"></path>
<path d="M1.131 0.880 Q1.658 0.784 1.587 0.506" stroke="hsl(0.0,100%,35%)" stroke-width="0.00264"></path>
<path d="M1.131 0.880 Q1.199 0.664 0.792 0.583" stroke="hsl(0.0,100%,35%)" stroke-width="0.00378"></path>
<path d="M1.131 0.880 Q1.114 0.778 0.911 0.764" stroke="hsl(0.0,100%,35%)" stroke-width="0.02001"></path>
<path d="M1.131 0.880 Q1.300 0.602 0.795 0.458" stroke="hsl(0.0,100%,35%)" stroke-width="0.00189"></path>
<path d="M1.131 0.880 Q1.911 0.562 1.462 0.111" stroke="hsl(0.0,100%,35%)" stroke-width="0.01359"></path>
<path d="M1.131 0.880 Q2.054 0.667 1.842 0.170" stroke="hsl(0.0,100%,35%)" stroke-width="0.00378"></path>
<path d="M1.131 0.880 Q1.424 0.835 1.400 0.682" stroke="hsl(0.0,100%,35%)" stroke-width="0.00604"></path>
<path d="M1.131 0.880 Q1.771 0.863 1.879 0.547" stroke="hsl(0.0,100%,35%)" stroke-width="0.00340"></path>
<path d="M1.131 0.880 Q1.829 0.632 1.498 0.237" stroke="hsl(0.0,100%,35%)" stroke-width="0.00227"></path>
<path d="M1.131 0.880 Q0.908 0.588 0.291 0.633" stroke="hsl(0.0,100%,35%)" stroke-width="0.00038"></path>
<path d="M1.131 0.880 Q1.189 0.515 0.490 0.407" stroke="hsl(0.0,100%,35%)" stroke-width="0.00038"></path>
<path d="M1.879 0.547 Q1.766 0.468 1.587 0.506" stroke="hsl(0.0,100%,35%)" stroke-width="0.00793"></path>
<path d="M1.879 0.547 Q2.162 0.351 1.842 0.170" stroke="hsl(0.0,100%,35%)" stroke-width="0.00038"></path>
<path d="M1.879 0.547 Q1.016 0.272 0.291 0.633" stroke="hsl(0.0,100%,35%)" stroke-width="0.00113"></path>
<path d="M1.879 0.547 Q1.222 0.462 0.911 0.764" stroke="hsl(0.0,100%,35%)" stroke-width="0.00113"></path>
<path d="M1.879 0.547 Q1.307 0.348 0.792 0.583" stroke="hsl(0.0,100%,35%)" stroke-width="0.00151"></path>
<path d="M1.879 0.547 Q2.019 0.246 1.462 0.111" stroke="hsl(0.0,100%,35%)" stroke-width="0.00038"></path>
<path d="M1.879 0.547 Q1.532 0.519 1.400 0.682" stroke="hsl(0.0,100%,35%)" stroke-width="0.00038"></path>
<path d="M1.879 0.547 Q1.542 0.646 1.661 0.833" stroke="hsl(0.0,100%,35%)" stroke-width="0.00038"></path>
<path d="M1.879 0.547 Q1.239 0.564 1.131 0.880" stroke="hsl(0.0,100%,35%)" stroke-width="0.00038"></path>
<path d="M1.587 0.506 Q1.983 0.389 1.842 0.170" stroke="hsl(0.0,100%,35%)" stroke-width="0.00113"></path>
<path d="M1.587 0.506 Q1.700 0.585 1.879 0.547" stroke="hsl(0.0,100%,35%)" stroke-width="0.00529"></path>
<path d="M1.587 0.506 Q1.839 0.283 1.462 0.111" stroke="hsl(0.0,100%,35%)" stroke-width="0.00113"></path>
<path d="M1.587 0.506 Q1.059 0.602 1.131 0.880" stroke="hsl(0.0,100%,35%)" stroke-width="0.00378"></path>
<path d="M1.587 0.506 Q1.353 0.556 1.400 0.682" stroke="hsl(0.0,100%,35%)" stroke-width="0.00113"></path>
<path d="M1.587 0.506 Q1.362 0.684 1.661 0.833" stroke="hsl(0.0,100%,35%)" stroke-width="0.00038"></path>
<path d="M1.587 0.506 Q1.127 0.385 0.792 0.583" stroke="hsl(0.0,100%,35%)" stroke-width="0.00113"></path>
<path d="M1.587 0.506 Q1.042 0.500 0.911 0.764" stroke="hsl(0.0,100%,35%)" stroke-width="0.00378"></path>
<path d="M1.587 0.506 Q0.837 0.310 0.291 0.633" stroke="hsl(0.0,100%,35%)" stroke-width="0.00038"></path>
<path d="M1.587 0.506 Q0.982 0.243 0.336 0.480" stroke="hsl(0.0,100%,35%)" stroke-width="0.00038"></path>
<path d="M1.400 0.682 Q1.107 0.727 1.131 0.880" stroke="hsl(0.0,100%,35%)" stroke-width="0.00604"></path>
<path d="M1.400 0.682 Q1.634 0.631 1.587 0.506" stroke="hsl(0.0,100%,35%)" stroke-width="0.00227"></path>
<path d="M1.400 0.682 Q1.887 0.409 1.462 0.111" stroke="hsl(0.0,100%,35%)" stroke-width="0.00076"></path>
<path d="M1.400 0.682 Q2.030 0.514 1.842 0.170" stroke="hsl(0.0,100%,35%)" stroke-width="0.00264"></path>
<path d="M1.400 0.682 Q1.175 0.511 0.792 0.583" stroke="hsl(0.0,100%,35%)" stroke-width="0.00264"></path>
<path d="M1.400 0.682 Q1.090 0.625 0.911 0.764" stroke="hsl(0.0,100%,35%)" stroke-width="0.00189"></path>
<path d="M1.400 0.682 Q0.885 0.435 0.291 0.633" stroke="hsl(0.0,100%,35%)" stroke-width="0.00038"></path>
<path d="M0.792 0.583 Q0.724 0.799 1.131 0.880" stroke="hsl(0.0,100%,35%)" stroke-width="0.01284"></path>
<path d="M0.792 0.583 Q0.894 0.521 0.795 0.458" stroke="hsl(0.0,100%,35%)" stroke-width="0.00755"></path>
<path d="M0.792 0.583 Q1.252 0.703 1.587 0.506" stroke="hsl(0.0,100%,35%)" stroke-width="0.00453"></path>
<path d="M0.792 0.583 Q1.504 0.481 1.462 0.111" stroke="hsl(0.0,100%,35%)" stroke-width="0.00680"></path>
<path d="M0.792 0.583 Q0.527 0.383 0.079 0.469" stroke="hsl(0.0,100%,35%)" stroke-width="0.00076"></path>
<path d="M0.792 0.583 Q0.782 0.434 0.490 0.407" stroke="hsl(0.0,100%,35%)" stroke-width="0.00151"></path>
<path d="M0.792 0.583 Q1.647 0.587 1.842 0.170" stroke="hsl(0.0,100%,35%)" stroke-width="0.00227"></path>
<path d="M0.792 0.583 Q1.422 0.551 1.498 0.237" stroke="hsl(0.0,100%,35%)" stroke-width="0.00076"></path>
<path d="M0.792 0.583 Q0.707 0.697 0.911 0.764" stroke="hsl(0.0,100%,35%)" stroke-width="0.00302"></path>
<path d="M0.792 0.583 Q1.017 0.754 1.400 0.682" stroke="hsl(0.0,100%,35%)" stroke-width="0.00302"></path>
<path d="M0.792 0.583 Q0.775 0.873 1.338 0.945" stroke="hsl(0.0,100%,35%)" stroke-width="0.00038"></path>
<path d="M0.792 0.583 Q1.365 0.782 1.879 0.547" stroke="hsl(0.0,100%,35%)" stroke-width="0.00302"></path>
<path d="M0.792 0.583 Q0.502 0.508 0.291 0.633" stroke="hsl(0.0,100%,35%)" stroke-width="0.00113"></path>
<path d="M0.291 0.633 Q0.816 1.007 1.661 0.833" stroke="hsl(180.0,100%,35%)" stroke-width="0.00113"></path>
<path d="M0.291 0.633 Q0.571 0.560 0.490 0.407" stroke="hsl(180.0,100%,35%)" stroke-width="0.02265"></path>
<path d="M0.291 0.633 Q0.583 0.369 0.134 0.169" stroke="hsl(180.0,100%,35%)" stroke-width="0.00264"></path>
<path d="M0.291 0.633 Q0.476 0.633 0.516 0.542" stroke="hsl(180.0,100%,35%)" stroke-width="0.00944"></path>
<path d="M0.291 0.633 Q0.496 0.823 0.911 0.764" stroke="hsl(180.0,100%,35%)" stroke-width="0.00151"></path>
<path d="M0.291 0.633 Q0.564 0.998 1.338 0.945" stroke="hsl(180.0,100%,35%)" stroke-width="0.00113"></path>
<path d="M0.291 0.633 Q1.293 0.606 1.462 0.111" stroke="hsl(180.0,100%,35%)" stroke-width="0.01850"></path>
<path d="M0.291 0.633 Q1.040 0.828 1.587 0.506" stroke="hsl(180.0,100%,35%)" stroke-width="0.00717"></path>
<path d="M0.291 0.633 Q1.211 0.676 1.498 0.237" stroke="hsl(180.0,100%,35%)" stroke-width="0.00113"></path>
<path d="M0.291 0.633 Q1.154 0.908 1.879 0.547" stroke="hsl(180.0,100%,35%)" stroke-width="0.00189"></path>
<path d="M0.291 0.633 Q1.436 0.712 1.842 0.170" stroke="hsl(180.0,100%,35%)" stroke-width="0.00717"></path>
<path d="M0.291 0.633 Q0.581 0.708 0.792 0.583" stroke="hsl(180.0,100%,35%)" stroke-width="0.00189"></path>
<path d="M0.291 0.633 Q0.316 0.508 0.079 0.469" stroke="hsl(180.0,100%,35%)" stroke-width="0.00189"></path>
<path d="M0.291 0.633 Q1.148 0.726 1.519 0.329" stroke="hsl(180.0,100%,35%)" stroke-width="0.00038"></path>
<path d="M0.291 0.633 Q0.250 0.748 0.465 0.793" stroke="hsl(180.0,100%,35%)" stroke-width="0.00038"></path>
<path d="M0.291 0.633 Q0.852 0.454 0.627 0.141" stroke="hsl(180.0,100%,35%)" stroke-width="0.00113"></path>
<path d="M0.291 0.633 Q0.549 0.469 0.287 0.308" stroke="hsl(180.0,100%,35%)" stroke-width="0.00151"></path>
<path d="M0.291 0.633 Q0.185 0.616 0.129 0.664" stroke="hsl(180.0,100%,35%)" stroke-width="0.00076"></path>
<path d="M0.291 0.633 Q1.343 0.746 1.795 0.257" stroke="hsl(180.0,100%,35%)" stroke-width="0.00076"></path>
<path d="M0.291 0.633 Q0.513 0.924 1.131 0.880" stroke="hsl(180.0,100%,35%)" stroke-width="0.00038"></path>
<path d="M0.291 0.633 Q0.683 0.646 0.795 0.458" stroke="hsl(180.0,100%,35%)" stroke-width="0.00038"></path>
<path d="M1.462 0.111 Q0.459 0.138 0.291 0.633" stroke="hsl(180.0,100%,35%)" stroke-width="0.00453"></path>
<path d="M1.462 0.111 Q1.605 0.217 1.842 0.170" stroke="hsl(180.0,100%,35%)" stroke-width="0.01321"></path>
<path d="M1.462 0.111 Q0.418 0.253 0.465 0.793" stroke="hsl(180.0,100%,35%)" stroke-width="0.00038"></path>
<path d="M1.462 0.111 Q0.682 0.429 1.131 0.880" stroke="hsl(180.0,100%,35%)" stroke-width="0.00415"></path>
<path d="M1.462 0.111 Q0.740 0.065 0.490 0.407" stroke="hsl(180.0,100%,35%)" stroke-width="0.00151"></path>
<path d="M1.462 0.111 Q1.379 0.181 1.498 0.237" stroke="hsl(180.0,100%,35%)" stroke-width="0.00038"></path>
<path d="M1.462 0.111 Q0.752 -0.125 0.134 0.169" stroke="hsl(180.0,100%,35%)" stroke-width="0.00038"></path>
<path d="M1.462 0.111 Q0.665 0.328 0.911 0.764" stroke="hsl(180.0,100%,35%)" stroke-width="0.00151"></path>
<path d="M1.462 0.111 Q1.322 0.413 1.879 0.547" stroke="hsl(180.0,100%,35%)" stroke-width="0.00038"></path>
<path d="M1.462 0.111 Q0.750 0.213 0.792 0.583" stroke="hsl(180.0,100%,35%)" stroke-width="0.00151"></path>
<path d="M1.462 0.111 Q0.604 0.071 0.336 0.480" stroke="hsl(180.0,100%,35%)" stroke-width="0.00038"></path>
<path d="M1.462 0.111 Q1.209 0.333 1.587 0.506" stroke="hsl(180.0,100%,35%)" stroke-width="0.00340"></path>
<path d="M0.490 0.407 Q1.212 0.453 1.462 0.111" stroke="hsl(180.0,100%,35%)" stroke-width="0.01170"></path>
<path d="M0.490 0.407 Q1.129 0.523 1.498 0.237" stroke="hsl(180.0,100%,35%)" stroke-width="0.00113"></path>
<path d="M0.490 0.407 Q0.500 0.555 0.792 0.583" stroke="hsl(180.0,100%,35%)" stroke-width="0.00038"></path>
<path d="M0.490 0.407 Q0.235 0.356 0.079 0.469" stroke="hsl(180.0,100%,35%)" stroke-width="0.00302"></path>
<path d="M0.490 0.407 Q0.467 0.316 0.287 0.308" stroke="hsl(180.0,100%,35%)" stroke-width="0.00038"></path>
<path d="M0.490 0.407 Q0.209 0.480 0.291 0.633" stroke="hsl(180.0,100%,35%)" stroke-width="0.00491"></path>
<path d="M0.490 0.407 Q1.355 0.559 1.842 0.170" stroke="hsl(180.0,100%,35%)" stroke-width="0.00189"></path>
<path d="M0.490 0.407 Q0.483 0.845 1.338 0.945" stroke="hsl(180.0,100%,35%)" stroke-width="0.00038"></path>
<path d="M0.490 0.407 Q0.354 0.413 0.336 0.480" stroke="hsl(180.0,100%,35%)" stroke-width="0.00038"></path>
<path d="M0.490 0.407 Q0.959 0.675 1.587 0.506" stroke="hsl(180.0,100%,35%)" stroke-width="0.00038"></path>
<path d="M1.498 0.237 Q1.580 0.167 1.462 0.111" stroke="hsl(180.0,100%,35%)" stroke-width="0.00793"></path>
<path d="M1.498 0.237 Q1.723 0.272 1.842 0.170" stroke="hsl(180.0,100%,35%)" stroke-width="0.00151"></path>
<path d="M1.498 0.237 Q0.868 0.269 0.792 0.583" stroke="hsl(180.0,100%,35%)" stroke-width="0.00302"></path>
<path d="M1.498 0.237 Q0.578 0.193 0.291 0.633" stroke="hsl(180.0,100%,35%)" stroke-width="0.00076"></path>
<path d="M1.498 0.237 Q0.858 0.120 0.490 0.407" stroke="hsl(180.0,100%,35%)" stroke-width="0.00038"></path>
<path d="M1.498 0.237 Q0.783 0.383 0.911 0.764" stroke="hsl(180.0,100%,35%)" stroke-width="0.00038"></path>
<path d="M0.134 0.169 Q-0.378 0.567 0.287 0.904" stroke="hsl(180.0,100%,35%)" stroke-width="0.00038"></path>
<path d="M0.134 0.169 Q0.121 0.359 0.490 0.407" stroke="hsl(180.0,100%,35%)" stroke-width="0.00189"></path>
<path d="M0.134 0.169 Q-0.159 0.432 0.291 0.633" stroke="hsl(180.0,100%,35%)" stroke-width="0.00302"></path>
<path d="M0.134 0.169 Q0.987 0.511 1.842 0.170" stroke="hsl(180.0,100%,35%)" stroke-width="0.00038"></path>
<path d="M0.134 0.169 Q0.402 0.254 0.627 0.141" stroke="hsl(180.0,100%,35%)" stroke-width="0.00302"></path>
<path d="M0.134 0.169 Q0.843 0.406 1.462 0.111" stroke="hsl(180.0,100%,35%)" stroke-width="0.00076"></path>
<path d="M0.134 0.169 Q0.046 0.622 0.911 0.764" stroke="hsl(180.0,100%,35%)" stroke-width="0.00038"></path>
<path d="M0.911 0.764 Q0.928 0.866 1.131 0.880" stroke="hsl(0.0,100%,35%)" stroke-width="0.01321"></path>
<path d="M0.911 0.764 Q1.456 0.770 1.587 0.506" stroke="hsl(0.0,100%,35%)" stroke-width="0.00642"></path>
<path d="M0.911 0.764 Q1.569 0.849 1.879 0.547" stroke="hsl(0.0,100%,35%)" stroke-width="0.01435"></path>
<path d="M0.911 0.764 Q0.706 0.574 0.291 0.633" stroke="hsl(0.0,100%,35%)" stroke-width="0.00076"></path>
<path d="M0.911 0.764 Q1.708 0.548 1.462 0.111" stroke="hsl(0.0,100%,35%)" stroke-width="0.00151"></path>
<path d="M0.911 0.764 Q0.996 0.650 0.792 0.583" stroke="hsl(0.0,100%,35%)" stroke-width="0.00113"></path>
<path d="M0.911 0.764 Q0.980 0.940 1.338 0.945" stroke="hsl(0.0,100%,35%)" stroke-width="0.00038"></path>
<path d="M1.675 0.586 Q1.695 0.528 1.587 0.506" stroke="hsl(0.0,100%,35%)" stroke-width="0.00453"></path>
<path d="M1.675 0.586 Q1.151 0.522 0.911 0.764" stroke="hsl(0.0,100%,35%)" stroke-width="0.00038"></path>
<path d="M1.675 0.586 Q1.461 0.579 1.400 0.682" stroke="hsl(0.0,100%,35%)" stroke-width="0.00038"></path>
<path d="M1.675 0.586 Q2.091 0.411 1.842 0.170" stroke="hsl(0.0,100%,35%)" stroke-width="0.00038"></path>
<path d="M0.079 0.469 Q0.334 0.520 0.490 0.407" stroke="hsl(180.0,100%,35%)" stroke-width="0.00227"></path>
<path d="M0.079 0.469 Q0.054 0.593 0.291 0.633" stroke="hsl(180.0,100%,35%)" stroke-width="0.00076"></path>
<path d="M0.079 0.469 Q1.056 0.567 1.462 0.111" stroke="hsl(180.0,100%,35%)" stroke-width="0.00038"></path>
<path d="M0.287 0.308 Q0.309 0.398 0.490 0.407" stroke="hsl(180.0,100%,35%)" stroke-width="0.00906"></path>
<path d="M0.287 0.308 Q0.054 0.347 0.079 0.469" stroke="hsl(180.0,100%,35%)" stroke-width="0.00038"></path>
<path d="M0.287 0.308 Q0.029 0.471 0.291 0.633" stroke="hsl(180.0,100%,35%)" stroke-width="0.00340"></path>
<path d="M0.287 0.308 Q1.031 0.445 1.462 0.111" stroke="hsl(180.0,100%,35%)" stroke-width="0.00113"></path>
<path d="M0.287 0.308 Q0.778 0.667 1.587 0.506" stroke="hsl(180.0,100%,35%)" stroke-width="0.00038"></path>
<path d="M1.338 0.945 Q1.589 0.954 1.661 0.833" stroke="hsl(0.0,100%,35%)" stroke-width="0.00076"></path>
<path d="M1.338 0.945 Q1.345 0.506 0.490 0.407" stroke="hsl(0.0,100%,35%)" stroke-width="0.00038"></path>
<path d="M1.338 0.945 Q2.210 0.658 1.842 0.170" stroke="hsl(0.0,100%,35%)" stroke-width="0.00113"></path>
<path d="M1.338 0.945 Q1.287 0.871 1.131 0.880" stroke="hsl(0.0,100%,35%)" stroke-width="0.00076"></path>
<path d="M1.338 0.945 Q1.188 0.925 1.117 0.994" stroke="hsl(0.0,100%,35%)" stroke-width="0.00113"></path>
<path d="M1.338 0.945 Q1.064 0.579 0.291 0.633" stroke="hsl(0.0,100%,35%)" stroke-width="0.00076"></path>
<path d="M1.661 0.833 Q1.886 0.654 1.587 0.506" stroke="hsl(0.0,100%,35%)" stroke-width="0.00151"></path>
<path d="M1.661 0.833 Q1.136 0.459 0.291 0.633" stroke="hsl(0.0,100%,35%)" stroke-width="0.00038"></path>
<path d="M1.661 0.833 Q2.282 0.538 1.842 0.170" stroke="hsl(0.0,100%,35%)" stroke-width="0.00151"></path>
<path d="M1.661 0.833 Q1.409 0.824 1.338 0.945" stroke="hsl(0.0,100%,35%)" stroke-width="0.00151"></path>
<path d="M1.661 0.833 Q1.341 0.648 0.911 0.764" stroke="hsl(0.0,100%,35%)" stroke-width="0.00151"></path>
<path d="M1.661 0.833 Q1.999 0.733 1.879 0.547" stroke="hsl(0.0,100%,35%)" stroke-width="0.00038"></path>
<path d="M0.287 0.904 Q0.465 0.884 0.465 0.793" stroke="hsl(180.0,100%,35%)" stroke-width="0.00076"></path>
<path d="M0.287 0.904 Q0.437 0.973 0.605 0.915" stroke="hsl(180.0,100%,35%)" stroke-width="0.00302"></path>
<path d="M0.287 0.904 Q0.506 0.769 0.291 0.633" stroke="hsl(180.0,100%,35%)" stroke-width="0.00038"></path>
<path d="M0.287 0.904 Q1.558 0.882 1.795 0.257" stroke="hsl(180.0,100%,35%)" stroke-width="0.00076"></path>
<path d="M0.627 0.141 Q0.066 0.320 0.291 0.633" stroke="hsl(180.0,100%,35%)" stroke-width="0.00151"></path>
<path d="M0.627 0.141 Q0.358 0.056 0.134 0.169" stroke="hsl(180.0,100%,35%)" stroke-width="0.00151"></path>
<path d="M0.627 0.141 Q0.288 0.611 1.131 0.880" stroke="hsl(180.0,100%,35%)" stroke-width="0.00038"></path>
<path d="M1.835 0.399 Q1.626 0.403 1.587 0.506" stroke="hsl(0.0,100%,35%)" stroke-width="0.00113"></path>
<path d="M1.835 0.399 Q1.392 0.454 1.400 0.682" stroke="hsl(0.0,100%,35%)" stroke-width="0.00038"></path>
<path d="M1.835 0.399 Q1.098 0.499 1.131 0.880" stroke="hsl(0.0,100%,35%)" stroke-width="0.00038"></path>
<path d="M0.323 0.780 Q0.630 0.890 0.911 0.764" stroke="hsl(180.0,100%,35%)" stroke-width="0.00038"></path>
<path d="M0.323 0.780 Q0.425 0.700 0.291 0.633" stroke="hsl(180.0,100%,35%)" stroke-width="0.00038"></path>
<path d="M0.323 0.780 Q1.283 0.794 1.519 0.329" stroke="hsl(180.0,100%,35%)" stroke-width="0.00038"></path>
<path d="M0.516 0.542 Q0.331 0.542 0.291 0.633" stroke="hsl(180.0,100%,35%)" stroke-width="0.01623"></path>
<path d="M0.516 0.542 Q1.477 0.621 1.842 0.170" stroke="hsl(180.0,100%,35%)" stroke-width="0.00227"></path>
<path d="M0.516 0.542 Q0.290 0.658 0.465 0.793" stroke="hsl(180.0,100%,35%)" stroke-width="0.00038"></path>
<path d="M0.516 0.542 Q0.621 0.618 0.792 0.583" stroke="hsl(180.0,100%,35%)" stroke-width="0.00038"></path>
<path d="M0.516 0.542 Q1.383 0.655 1.795 0.257" stroke="hsl(180.0,100%,35%)" stroke-width="0.00038"></path>
<path d="M0.516 0.542 Q1.333 0.516 1.462 0.111" stroke="hsl(180.0,100%,35%)" stroke-width="0.00076"></path>
<path d="M0.743 0.689 Q1.564 0.544 1.462 0.111" stroke="hsl(0.0,100%,35%)" stroke-width="0.00038"></path>
<path d="M0.743 0.689 Q0.784 0.862 1.131 0.880" stroke="hsl(0.0,100%,35%)" stroke-width="0.00076"></path>
<path d="M0.743 0.689 Q0.561 0.570 0.291 0.633" stroke="hsl(0.0,100%,35%)" stroke-width="0.00038"></path>
<path d="M0.304 0.099 Q0.163 0.100 0.134 0.169" stroke="hsl(180.0,100%,35%)" stroke-width="0.00264"></path>
<path d="M0.304 0.099 Q0.151 0.290 0.490 0.407" stroke="hsl(180.0,100%,35%)" stroke-width="0.00151"></path>
<path d="M0.304 0.099 Q0.873 0.337 1.462 0.111" stroke="hsl(180.0,100%,35%)" stroke-width="0.00189"></path>
<path d="M1.462 0.794 Q1.279 0.845 1.338 0.945" stroke="hsl(0.0,100%,35%)" stroke-width="0.00076"></path>
<path d="M1.462 0.794 Q2.008 0.453 1.462 0.111" stroke="hsl(0.0,100%,35%)" stroke-width="0.00038"></path>
<path d="M1.462 0.794 Q1.926 0.523 1.498 0.237" stroke="hsl(0.0,100%,35%)" stroke-width="0.00038"></path>
<path d="M1.387 0.532 Q0.981 0.655 1.131 0.880" stroke="hsl(0.0,100%,35%)" stroke-width="0.00113"></path>
<path d="M1.387 0.532 Q1.508 0.559 1.587 0.506" stroke="hsl(0.0,100%,35%)" stroke-width="0.00189"></path>
<path d="M1.387 0.532 Q0.964 0.553 0.911 0.764" stroke="hsl(0.0,100%,35%)" stroke-width="0.00038"></path>
<path d="M1.182 0.592 Q0.926 0.726 1.131 0.880" stroke="hsl(0.0,100%,35%)" stroke-width="0.00113"></path>
<path d="M1.182 0.592 Q1.454 0.630 1.587 0.506" stroke="hsl(0.0,100%,35%)" stroke-width="0.00038"></path>
<path d="M1.182 0.592 Q0.994 0.509 0.792 0.583" stroke="hsl(0.0,100%,35%)" stroke-width="0.00038"></path>
</g>
<text x="0.795" y="0.441" font-size="0.034637" fill="hsl(0.0,100%,20%)">armansito</text>
<text x="1.842" y="0.131" font-size="0.078596" fill="hsl(180.0,100%,20%)">johnstiles</text>
<text x="1.131" y="0.848" font-size="0.063003" fill="hsl(0.0,100%,20%)">michaelludwig</text>
<text x="1.879" y="0.526" font-size="0.042120" fill="hsl(0.0,100%,20%)">nicolettep</text>
<text x="1.587" y="0.480" font-size="0.050143" fill="hsl(0.0,100%,20%)">egdaniel</text>
<text x="1.400" y="0.664" font-size="0.034821" fill="hsl(0.0,100%,20%)">jamesgk</text>
<text x="0.792" y="0.558" font-size="0.049888" fill="hsl(0.0,100%,20%)">jvanverth</text>
<text x="0.291" y="0.599" font-size="0.067879" fill="hsl(180.0,100%,20%)">kjlubick</text>
<text x="1.462" y="0.075" font-size="0.073216" fill="hsl(180.0,100%,20%)">brianosman</text>
<text x="0.465" y="0.789" font-size="0.008751" fill="hsl(180.0,100%,20%)">borenet</text>
<text x="0.490" y="0.383" font-size="0.047931" fill="hsl(180.0,100%,20%)">bungeman</text>
<text x="1.498" y="0.223" font-size="0.029024" fill="hsl(180.0,100%,20%)">herb</text>
<text x="0.134" y="0.156" font-size="0.024751" fill="hsl(180.0,100%,20%)">fmalita</text>
<text x="0.911" y="0.738" font-size="0.051524" fill="hsl(0.0,100%,20%)">robertphillips</text>
<text x="0.336" y="0.477" font-size="0.006188" fill="hsl(180.0,100%,20%)">jreck</text>
<text x="1.675" y="0.579" font-size="0.013836" fill="hsl(0.0,100%,20%)">briansalomon</text>
<text x="0.079" y="0.460" font-size="0.017863" fill="hsl(180.0,100%,20%)">jlavrova</text>
<text x="0.287" y="0.296" font-size="0.023427" fill="hsl(180.0,100%,20%)">drott</text>
<text x="1.338" y="0.936" font-size="0.018217" fill="hsl(0.0,100%,20%)">scroggo</text>
<text x="1.661" y="0.823" font-size="0.019239" fill="hsl(0.0,100%,20%)">nscobie</text>
<text x="0.287" y="0.897" font-size="0.013367" fill="hsl(180.0,100%,20%)">sharaks</text>
<text x="0.627" y="0.133" font-size="0.016757" fill="hsl(180.0,100%,20%)">jmbetancourt</text>
<text x="1.835" y="0.395" font-size="0.007989" fill="hsl(0.0,100%,20%)">hitawala</text>
<text x="0.323" y="0.777" font-size="0.007145" fill="hsl(180.0,100%,20%)">rmistry</text>
<text x="1.117" y="0.991" font-size="0.007145" fill="hsl(0.0,100%,20%)">djsollen</text>
<text x="1.519" y="0.326" font-size="0.006188" fill="hsl(180.0,100%,20%)">jcgregorio</text>
<text x="1.795" y="0.251" font-size="0.011297" fill="hsl(180.0,100%,20%)">cmumford</text>
<text x="0.516" y="0.526" font-size="0.031754" fill="hsl(180.0,100%,20%)">lovisolo</text>
<text x="0.129" y="0.662" font-size="0.005052" fill="hsl(180.0,100%,20%)">tdenniston</text>
<text x="0.743" y="0.685" font-size="0.007145" fill="hsl(0.0,100%,20%)">lokokung</text>
<text x="0.304" y="0.092" font-size="0.014290" fill="hsl(180.0,100%,20%)">mike</text>
<text x="1.462" y="0.791" font-size="0.007145" fill="hsl(0.0,100%,20%)">nigeltao</text>
<text x="1.387" y="0.527" font-size="0.010718" fill="hsl(0.0,100%,20%)">penghuang</text>
<text x="0.605" y="0.910" font-size="0.010105" fill="hsl(180.0,100%,20%)">hcm</text>
<text x="1.182" y="0.588" font-size="0.007989" fill="hsl(0.0,100%,20%)">sunnyps</text>
</svg>
