<svg width="4000" height="2000" viewBox="-0.025 -0.025 2.05 1.05" xmlns="http://www.w3.org/2000/svg">
  <style>
    path {
      fill: none;
      stroke-linecap: round;
      stroke-opacity: 0.4;
    }

    text {
      text-anchor: middle;
      alignment-baseline: hanging;
    }
  </style>
  <g opacity="0.4">
<path d="M0.648 0.393 Q0.647 0.611 1.071 0.659" stroke="hsl(0.0,100%,35%)" stroke-width="0.00368"></path>
<path d="M0.648 0.393 Q1.388 0.485 1.729 0.145" stroke="hsl(0.0,100%,35%)" stroke-width="0.00754"></path>
<path d="M0.648 0.393 Q0.703 0.448 0.822 0.434" stroke="hsl(0.0,100%,35%)" stroke-width="0.00033"></path>
<path d="M0.648 0.393 Q0.347 0.768 1.011 0.998" stroke="hsl(0.0,100%,35%)" stroke-width="0.00067"></path>
<path d="M0.648 0.393 Q1.243 0.567 1.712 0.316" stroke="hsl(0.0,100%,35%)" stroke-width="0.00050"></path>
<path d="M0.648 0.393 Q1.130 0.520 1.483 0.313" stroke="hsl(0.0,100%,35%)" stroke-width="0.00553"></path>
<path d="M0.648 0.393 Q0.270 0.419 0.237 0.609" stroke="hsl(0.0,100%,35%)" stroke-width="0.00117"></path>
<path d="M0.648 0.393 Q0.753 0.538 1.058 0.519" stroke="hsl(0.0,100%,35%)" stroke-width="0.00167"></path>
<path d="M0.648 0.393 Q0.438 0.436 0.474 0.548" stroke="hsl(0.0,100%,35%)" stroke-width="0.00017"></path>
<path d="M0.648 0.393 Q0.991 0.493 1.259 0.347" stroke="hsl(0.0,100%,35%)" stroke-width="0.00017"></path>
<path d="M1.071 0.659 Q1.176 0.586 1.058 0.519" stroke="hsl(0.0,100%,35%)" stroke-width="0.06497"></path>
<path d="M1.071 0.659 Q1.414 0.541 1.259 0.347" stroke="hsl(0.0,100%,35%)" stroke-width="0.01055"></path>
<path d="M1.071 0.659 Q1.730 0.473 1.511 0.110" stroke="hsl(0.0,100%,35%)" stroke-width="0.00301"></path>
<path d="M1.071 0.659 Q1.072 0.442 0.648 0.393" stroke="hsl(0.0,100%,35%)" stroke-width="0.02830"></path>
<path d="M1.071 0.659 Q0.518 0.536 0.158 0.779" stroke="hsl(0.0,100%,35%)" stroke-width="0.00134"></path>
<path d="M1.071 0.659 Q1.811 0.533 1.729 0.145" stroke="hsl(0.0,100%,35%)" stroke-width="0.01306"></path>
<path d="M1.071 0.659 Q1.808 0.640 1.934 0.277" stroke="hsl(0.0,100%,35%)" stroke-width="0.00084"></path>
<path d="M1.071 0.659 Q0.770 0.816 1.011 0.998" stroke="hsl(0.0,100%,35%)" stroke-width="0.00519"></path>
<path d="M1.071 0.659 Q1.554 0.568 1.483 0.313" stroke="hsl(0.0,100%,35%)" stroke-width="0.00586"></path>
<path d="M1.071 0.659 Q1.666 0.615 1.712 0.316" stroke="hsl(0.0,100%,35%)" stroke-width="0.00502"></path>
<path d="M1.071 0.659 Q1.127 0.497 0.822 0.434" stroke="hsl(0.0,100%,35%)" stroke-width="0.00837"></path>
<path d="M1.071 0.659 Q1.861 0.592 1.904 0.192" stroke="hsl(0.0,100%,35%)" stroke-width="0.00050"></path>
<path d="M1.071 0.659 Q0.670 0.552 0.374 0.724" stroke="hsl(0.0,100%,35%)" stroke-width="0.00117"></path>
<path d="M1.071 0.659 Q0.636 0.507 0.244 0.686" stroke="hsl(0.0,100%,35%)" stroke-width="0.00033"></path>
<path d="M1.071 0.659 Q0.694 0.467 0.237 0.609" stroke="hsl(0.0,100%,35%)" stroke-width="0.01139"></path>
<path d="M1.071 0.659 Q0.844 0.641 0.761 0.748" stroke="hsl(0.0,100%,35%)" stroke-width="0.00033"></path>
<path d="M1.071 0.659 Q0.939 0.680 0.952 0.749" stroke="hsl(0.0,100%,35%)" stroke-width="0.00017"></path>
<path d="M1.071 0.659 Q1.245 0.664 1.295 0.581" stroke="hsl(0.0,100%,35%)" stroke-width="0.00084"></path>
<path d="M1.071 0.659 Q0.805 0.382 0.206 0.451" stroke="hsl(0.0,100%,35%)" stroke-width="0.00151"></path>
<path d="M1.071 0.659 Q0.700 0.620 0.543 0.793" stroke="hsl(0.0,100%,35%)" stroke-width="0.00050"></path>
<path d="M1.071 0.659 Q0.861 0.484 0.474 0.548" stroke="hsl(0.0,100%,35%)" stroke-width="0.00017"></path>
<path d="M1.071 0.659 Q0.525 0.633 0.356 0.894" stroke="hsl(0.0,100%,35%)" stroke-width="0.00033"></path>
<path d="M1.071 0.659 Q1.225 0.759 1.456 0.706" stroke="hsl(0.0,100%,35%)" stroke-width="0.00017"></path>
<path d="M1.729 0.145 Q0.688 0.428 1.011 0.998" stroke="hsl(180.0,100%,35%)" stroke-width="0.00134"></path>
<path d="M1.729 0.145 Q1.472 0.180 1.483 0.313" stroke="hsl(180.0,100%,35%)" stroke-width="0.00385"></path>
<path d="M1.729 0.145 Q1.648 0.084 1.511 0.110" stroke="hsl(180.0,100%,35%)" stroke-width="0.01959"></path>
<path d="M1.729 0.145 Q0.990 0.053 0.648 0.393" stroke="hsl(180.0,100%,35%)" stroke-width="0.00167"></path>
<path d="M1.729 0.145 Q1.094 0.198 1.058 0.519" stroke="hsl(180.0,100%,35%)" stroke-width="0.01440"></path>
<path d="M1.729 0.145 Q0.989 0.270 1.071 0.659" stroke="hsl(180.0,100%,35%)" stroke-width="0.00285"></path>
<path d="M1.729 0.145 Q1.584 0.227 1.712 0.316" stroke="hsl(180.0,100%,35%)" stroke-width="0.00318"></path>
<path d="M1.729 0.145 Q1.045 0.108 0.822 0.434" stroke="hsl(180.0,100%,35%)" stroke-width="0.00218"></path>
<path d="M1.729 0.145 Q1.332 0.152 1.259 0.347" stroke="hsl(180.0,100%,35%)" stroke-width="0.00117"></path>
<path d="M1.729 0.145 Q0.612 0.079 0.237 0.609" stroke="hsl(180.0,100%,35%)" stroke-width="0.00067"></path>
<path d="M1.729 0.145 Q0.436 0.148 0.158 0.779" stroke="hsl(180.0,100%,35%)" stroke-width="0.00017"></path>
<path d="M1.729 0.145 Q1.727 0.252 1.934 0.277" stroke="hsl(180.0,100%,35%)" stroke-width="0.00033"></path>
<path d="M0.822 0.434 Q0.466 0.753 1.011 0.998" stroke="hsl(180.0,100%,35%)" stroke-width="0.00368"></path>
<path d="M0.822 0.434 Q0.767 0.596 1.071 0.659" stroke="hsl(180.0,100%,35%)" stroke-width="0.00050"></path>
<path d="M0.822 0.434 Q0.390 0.404 0.237 0.609" stroke="hsl(180.0,100%,35%)" stroke-width="0.00100"></path>
<path d="M0.822 0.434 Q1.426 0.410 1.511 0.110" stroke="hsl(180.0,100%,35%)" stroke-width="0.00100"></path>
<path d="M0.822 0.434 Q1.249 0.506 1.483 0.313" stroke="hsl(180.0,100%,35%)" stroke-width="0.00536"></path>
<path d="M0.822 0.434 Q0.872 0.524 1.058 0.519" stroke="hsl(180.0,100%,35%)" stroke-width="0.00017"></path>
<path d="M0.822 0.434 Q1.362 0.553 1.712 0.316" stroke="hsl(180.0,100%,35%)" stroke-width="0.00033"></path>
<path d="M0.822 0.434 Q0.366 0.489 0.374 0.724" stroke="hsl(180.0,100%,35%)" stroke-width="0.00017"></path>
<path d="M0.822 0.434 Q1.507 0.471 1.729 0.145" stroke="hsl(180.0,100%,35%)" stroke-width="0.00050"></path>
<path d="M0.822 0.434 Q1.110 0.478 1.259 0.347" stroke="hsl(180.0,100%,35%)" stroke-width="0.00017"></path>
<path d="M0.822 0.434 Q1.556 0.529 1.904 0.192" stroke="hsl(180.0,100%,35%)" stroke-width="0.00017"></path>
<path d="M1.011 0.998 Q1.312 0.840 1.071 0.659" stroke="hsl(180.0,100%,35%)" stroke-width="0.00050"></path>
<path d="M1.011 0.998 Q1.368 0.678 0.822 0.434" stroke="hsl(180.0,100%,35%)" stroke-width="0.00251"></path>
<path d="M1.011 0.998 Q1.417 0.768 1.058 0.519" stroke="hsl(180.0,100%,35%)" stroke-width="0.00084"></path>
<path d="M1.011 0.998 Q2.052 0.715 1.729 0.145" stroke="hsl(180.0,100%,35%)" stroke-width="0.00167"></path>
<path d="M1.011 0.998 Q1.907 0.797 1.712 0.316" stroke="hsl(180.0,100%,35%)" stroke-width="0.00067"></path>
<path d="M1.011 0.998 Q0.911 0.733 0.374 0.724" stroke="hsl(180.0,100%,35%)" stroke-width="0.00017"></path>
<path d="M1.011 0.998 Q1.795 0.750 1.483 0.313" stroke="hsl(180.0,100%,35%)" stroke-width="0.00184"></path>
<path d="M1.011 0.998 Q1.971 0.654 1.511 0.110" stroke="hsl(180.0,100%,35%)" stroke-width="0.00234"></path>
<path d="M1.011 0.998 Q0.935 0.648 0.237 0.609" stroke="hsl(180.0,100%,35%)" stroke-width="0.00033"></path>
<path d="M1.011 0.998 Q1.526 0.633 0.928 0.302" stroke="hsl(180.0,100%,35%)" stroke-width="0.00033"></path>
<path d="M1.712 0.316 Q1.857 0.234 1.729 0.145" stroke="hsl(180.0,100%,35%)" stroke-width="0.00519"></path>
<path d="M1.712 0.316 Q0.816 0.516 1.011 0.998" stroke="hsl(180.0,100%,35%)" stroke-width="0.00218"></path>
<path d="M1.712 0.316 Q1.222 0.287 1.058 0.519" stroke="hsl(180.0,100%,35%)" stroke-width="0.00084"></path>
<path d="M1.712 0.316 Q1.117 0.359 1.071 0.659" stroke="hsl(180.0,100%,35%)" stroke-width="0.00251"></path>
<path d="M1.712 0.316 Q1.600 0.268 1.483 0.313" stroke="hsl(180.0,100%,35%)" stroke-width="0.00218"></path>
<path d="M1.712 0.316 Q1.776 0.173 1.511 0.110" stroke="hsl(180.0,100%,35%)" stroke-width="0.00201"></path>
<path d="M1.712 0.316 Q0.740 0.167 0.237 0.609" stroke="hsl(180.0,100%,35%)" stroke-width="0.00017"></path>
<path d="M1.712 0.316 Q0.851 0.082 0.206 0.451" stroke="hsl(180.0,100%,35%)" stroke-width="0.00017"></path>
<path d="M1.712 0.316 Q1.173 0.197 0.822 0.434" stroke="hsl(180.0,100%,35%)" stroke-width="0.00067"></path>
<path d="M1.712 0.316 Q0.890 0.342 0.761 0.748" stroke="hsl(180.0,100%,35%)" stroke-width="0.00017"></path>
<path d="M1.712 0.316 Q0.564 0.237 0.158 0.779" stroke="hsl(180.0,100%,35%)" stroke-width="0.00017"></path>
<path d="M1.483 0.313 Q1.741 0.278 1.729 0.145" stroke="hsl(180.0,100%,35%)" stroke-width="0.00954"></path>
<path d="M1.483 0.313 Q1.001 0.186 0.648 0.393" stroke="hsl(180.0,100%,35%)" stroke-width="0.00385"></path>
<path d="M1.483 0.313 Q0.700 0.561 1.011 0.998" stroke="hsl(180.0,100%,35%)" stroke-width="0.00502"></path>
<path d="M1.483 0.313 Q1.106 0.331 1.058 0.519" stroke="hsl(180.0,100%,35%)" stroke-width="0.00636"></path>
<path d="M1.483 0.313 Q0.455 0.378 0.356 0.894" stroke="hsl(180.0,100%,35%)" stroke-width="0.00033"></path>
<path d="M1.483 0.313 Q0.448 0.281 0.158 0.779" stroke="hsl(180.0,100%,35%)" stroke-width="0.00067"></path>
<path d="M1.483 0.313 Q1.001 0.403 1.071 0.659" stroke="hsl(180.0,100%,35%)" stroke-width="0.00151"></path>
<path d="M1.483 0.313 Q1.344 0.285 1.259 0.347" stroke="hsl(180.0,100%,35%)" stroke-width="0.00134"></path>
<path d="M1.483 0.313 Q1.659 0.217 1.511 0.110" stroke="hsl(180.0,100%,35%)" stroke-width="0.00737"></path>
<path d="M1.483 0.313 Q1.596 0.360 1.712 0.316" stroke="hsl(180.0,100%,35%)" stroke-width="0.00385"></path>
<path d="M1.483 0.313 Q0.774 0.386 0.761 0.748" stroke="hsl(180.0,100%,35%)" stroke-width="0.00017"></path>
<path d="M1.483 0.313 Q1.056 0.241 0.822 0.434" stroke="hsl(180.0,100%,35%)" stroke-width="0.00687"></path>
<path d="M1.483 0.313 Q0.623 0.212 0.237 0.609" stroke="hsl(180.0,100%,35%)" stroke-width="0.00100"></path>
<path d="M1.483 0.313 Q1.738 0.385 1.934 0.277" stroke="hsl(180.0,100%,35%)" stroke-width="0.00067"></path>
<path d="M1.483 0.313 Q0.629 0.365 0.543 0.793" stroke="hsl(180.0,100%,35%)" stroke-width="0.00017"></path>
<path d="M0.237 0.609 Q0.214 0.694 0.374 0.724" stroke="hsl(0.0,100%,35%)" stroke-width="0.00084"></path>
<path d="M0.237 0.609 Q0.061 0.678 0.158 0.779" stroke="hsl(0.0,100%,35%)" stroke-width="0.01708"></path>
<path d="M0.237 0.609 Q1.352 0.782 1.934 0.277" stroke="hsl(0.0,100%,35%)" stroke-width="0.00251"></path>
<path d="M0.237 0.609 Q0.405 0.626 0.474 0.548" stroke="hsl(0.0,100%,35%)" stroke-width="0.00502"></path>
<path d="M0.237 0.609 Q1.273 0.615 1.511 0.110" stroke="hsl(0.0,100%,35%)" stroke-width="0.00167"></path>
<path d="M0.237 0.609 Q0.388 0.783 0.761 0.748" stroke="hsl(0.0,100%,35%)" stroke-width="0.00452"></path>
<path d="M0.237 0.609 Q0.719 0.728 1.058 0.519" stroke="hsl(0.0,100%,35%)" stroke-width="0.02177"></path>
<path d="M0.237 0.609 Q0.313 0.958 1.011 0.998" stroke="hsl(0.0,100%,35%)" stroke-width="0.00452"></path>
<path d="M0.237 0.609 Q0.958 0.683 1.259 0.347" stroke="hsl(0.0,100%,35%)" stroke-width="0.00603"></path>
<path d="M0.237 0.609 Q0.670 0.639 0.822 0.434" stroke="hsl(0.0,100%,35%)" stroke-width="0.00184"></path>
<path d="M0.237 0.609 Q0.614 0.801 1.071 0.659" stroke="hsl(0.0,100%,35%)" stroke-width="0.00620"></path>
<path d="M0.237 0.609 Q1.097 0.710 1.483 0.313" stroke="hsl(0.0,100%,35%)" stroke-width="0.00268"></path>
<path d="M0.237 0.609 Q0.069 0.775 0.356 0.894" stroke="hsl(0.0,100%,35%)" stroke-width="0.00167"></path>
<path d="M0.237 0.609 Q0.789 0.806 1.295 0.581" stroke="hsl(0.0,100%,35%)" stroke-width="0.00050"></path>
<path d="M0.237 0.609 Q0.243 0.762 0.543 0.793" stroke="hsl(0.0,100%,35%)" stroke-width="0.00117"></path>
<path d="M0.237 0.609 Q1.404 0.734 1.904 0.192" stroke="hsl(0.0,100%,35%)" stroke-width="0.00067"></path>
<path d="M0.237 0.609 Q0.167 0.744 0.415 0.808" stroke="hsl(0.0,100%,35%)" stroke-width="0.00151"></path>
<path d="M0.237 0.609 Q0.224 0.680 0.359 0.701" stroke="hsl(0.0,100%,35%)" stroke-width="0.00033"></path>
<path d="M0.237 0.609 Q0.348 0.524 0.206 0.451" stroke="hsl(0.0,100%,35%)" stroke-width="0.00050"></path>
<path d="M0.237 0.609 Q1.354 0.675 1.729 0.145" stroke="hsl(0.0,100%,35%)" stroke-width="0.00653"></path>
<path d="M0.237 0.609 Q0.615 0.584 0.648 0.393" stroke="hsl(0.0,100%,35%)" stroke-width="0.00067"></path>
<path d="M0.237 0.609 Q0.809 0.660 1.035 0.392" stroke="hsl(0.0,100%,35%)" stroke-width="0.00033"></path>
<path d="M0.237 0.609 Q0.179 0.649 0.244 0.686" stroke="hsl(0.0,100%,35%)" stroke-width="0.00151"></path>
<path d="M0.237 0.609 Q1.210 0.757 1.712 0.316" stroke="hsl(0.0,100%,35%)" stroke-width="0.00017"></path>
<path d="M1.058 0.519 Q0.576 0.400 0.237 0.609" stroke="hsl(0.0,100%,35%)" stroke-width="0.00770"></path>
<path d="M1.058 0.519 Q0.953 0.592 1.071 0.659" stroke="hsl(0.0,100%,35%)" stroke-width="0.01289"></path>
<path d="M1.058 0.519 Q0.582 0.553 0.543 0.793" stroke="hsl(0.0,100%,35%)" stroke-width="0.00017"></path>
<path d="M1.058 0.519 Q1.693 0.466 1.729 0.145" stroke="hsl(0.0,100%,35%)" stroke-width="0.00368"></path>
<path d="M1.058 0.519 Q0.400 0.469 0.158 0.779" stroke="hsl(0.0,100%,35%)" stroke-width="0.00268"></path>
<path d="M1.058 0.519 Q1.296 0.473 1.259 0.347" stroke="hsl(0.0,100%,35%)" stroke-width="0.00385"></path>
<path d="M1.058 0.519 Q1.690 0.573 1.934 0.277" stroke="hsl(0.0,100%,35%)" stroke-width="0.00033"></path>
<path d="M1.058 0.519 Q1.612 0.405 1.511 0.110" stroke="hsl(0.0,100%,35%)" stroke-width="0.00301"></path>
<path d="M1.058 0.519 Q1.009 0.429 0.822 0.434" stroke="hsl(0.0,100%,35%)" stroke-width="0.00033"></path>
<path d="M1.058 0.519 Q1.436 0.501 1.483 0.313" stroke="hsl(0.0,100%,35%)" stroke-width="0.00285"></path>
<path d="M1.058 0.519 Q1.167 0.385 0.928 0.302" stroke="hsl(0.0,100%,35%)" stroke-width="0.00067"></path>
<path d="M1.058 0.519 Q0.652 0.749 1.011 0.998" stroke="hsl(0.0,100%,35%)" stroke-width="0.00167"></path>
<path d="M1.058 0.519 Q0.743 0.417 0.474 0.548" stroke="hsl(0.0,100%,35%)" stroke-width="0.00017"></path>
<path d="M1.058 0.519 Q0.552 0.485 0.374 0.724" stroke="hsl(0.0,100%,35%)" stroke-width="0.00033"></path>
<path d="M1.058 0.519 Q0.407 0.566 0.356 0.894" stroke="hsl(0.0,100%,35%)" stroke-width="0.00017"></path>
<path d="M1.058 0.519 Q1.548 0.548 1.712 0.316" stroke="hsl(0.0,100%,35%)" stroke-width="0.00017"></path>
<path d="M1.058 0.519 Q1.743 0.525 1.904 0.192" stroke="hsl(0.0,100%,35%)" stroke-width="0.00017"></path>
<path d="M1.058 0.519 Q0.726 0.574 0.761 0.748" stroke="hsl(0.0,100%,35%)" stroke-width="0.00017"></path>
<path d="M1.058 0.519 Q1.127 0.597 1.295 0.581" stroke="hsl(0.0,100%,35%)" stroke-width="0.00017"></path>
<path d="M0.474 0.548 Q0.306 0.531 0.237 0.609" stroke="hsl(0.0,100%,35%)" stroke-width="0.01591"></path>
<path d="M0.474 0.548 Q0.684 0.723 1.071 0.659" stroke="hsl(0.0,100%,35%)" stroke-width="0.00167"></path>
<path d="M0.474 0.548 Q0.313 0.684 0.543 0.793" stroke="hsl(0.0,100%,35%)" stroke-width="0.00033"></path>
<path d="M0.474 0.548 Q1.166 0.632 1.483 0.313" stroke="hsl(0.0,100%,35%)" stroke-width="0.00017"></path>
<path d="M0.474 0.548 Q0.418 0.446 0.206 0.451" stroke="hsl(0.0,100%,35%)" stroke-width="0.00017"></path>
<path d="M0.474 0.548 Q0.789 0.650 1.058 0.519" stroke="hsl(0.0,100%,35%)" stroke-width="0.00067"></path>
<path d="M0.474 0.548 Q1.279 0.679 1.712 0.316" stroke="hsl(0.0,100%,35%)" stroke-width="0.00017"></path>
<path d="M0.474 0.548 Q0.858 0.728 1.295 0.581" stroke="hsl(0.0,100%,35%)" stroke-width="0.00084"></path>
<path d="M0.474 0.548 Q0.249 0.571 0.244 0.686" stroke="hsl(0.0,100%,35%)" stroke-width="0.00017"></path>
<path d="M0.474 0.548 Q0.131 0.600 0.158 0.779" stroke="hsl(0.0,100%,35%)" stroke-width="0.00017"></path>
<path d="M1.259 0.347 Q1.021 0.393 1.058 0.519" stroke="hsl(0.0,100%,35%)" stroke-width="0.00954"></path>
<path d="M1.259 0.347 Q0.916 0.465 1.071 0.659" stroke="hsl(0.0,100%,35%)" stroke-width="0.00218"></path>
<path d="M1.259 0.347 Q1.399 0.375 1.483 0.313" stroke="hsl(0.0,100%,35%)" stroke-width="0.00368"></path>
<path d="M1.259 0.347 Q0.539 0.274 0.237 0.609" stroke="hsl(0.0,100%,35%)" stroke-width="0.00435"></path>
<path d="M1.259 0.347 Q0.363 0.343 0.158 0.779" stroke="hsl(0.0,100%,35%)" stroke-width="0.00067"></path>
<path d="M1.259 0.347 Q1.575 0.279 1.511 0.110" stroke="hsl(0.0,100%,35%)" stroke-width="0.00837"></path>
<path d="M1.259 0.347 Q1.656 0.340 1.729 0.145" stroke="hsl(0.0,100%,35%)" stroke-width="0.00050"></path>
<path d="M1.259 0.347 Q1.653 0.447 1.934 0.277" stroke="hsl(0.0,100%,35%)" stroke-width="0.00017"></path>
<path d="M1.259 0.347 Q1.706 0.399 1.904 0.192" stroke="hsl(0.0,100%,35%)" stroke-width="0.00017"></path>
<path d="M1.019 0.153 Q1.381 0.291 1.729 0.145" stroke="hsl(0.0,100%,35%)" stroke-width="0.00017"></path>
<path d="M1.019 0.153 Q0.263 0.225 0.237 0.609" stroke="hsl(0.0,100%,35%)" stroke-width="0.00017"></path>
<path d="M1.019 0.153 Q0.984 0.298 1.259 0.347" stroke="hsl(0.0,100%,35%)" stroke-width="0.00033"></path>
<path d="M1.895 0.197 Q1.772 0.077 1.511 0.110" stroke="hsl(180.0,100%,35%)" stroke-width="0.00017"></path>
<path d="M1.895 0.197 Q0.812 0.420 1.011 0.998" stroke="hsl(180.0,100%,35%)" stroke-width="0.00017"></path>
<path d="M1.895 0.197 Q1.596 0.173 1.483 0.313" stroke="hsl(180.0,100%,35%)" stroke-width="0.00033"></path>
<path d="M1.511 0.110 Q1.593 0.171 1.729 0.145" stroke="hsl(180.0,100%,35%)" stroke-width="0.00854"></path>
<path d="M1.511 0.110 Q0.552 0.454 1.011 0.998" stroke="hsl(180.0,100%,35%)" stroke-width="0.00687"></path>
<path d="M1.511 0.110 Q0.908 0.134 0.822 0.434" stroke="hsl(180.0,100%,35%)" stroke-width="0.00670"></path>
<path d="M1.511 0.110 Q0.475 0.105 0.237 0.609" stroke="hsl(180.0,100%,35%)" stroke-width="0.00084"></path>
<path d="M1.511 0.110 Q0.958 0.224 1.058 0.519" stroke="hsl(180.0,100%,35%)" stroke-width="0.00251"></path>
<path d="M1.511 0.110 Q1.335 0.206 1.483 0.313" stroke="hsl(180.0,100%,35%)" stroke-width="0.01122"></path>
<path d="M1.511 0.110 Q0.626 0.279 0.761 0.748" stroke="hsl(180.0,100%,35%)" stroke-width="0.00050"></path>
<path d="M1.511 0.110 Q1.067 0.090 0.928 0.302" stroke="hsl(180.0,100%,35%)" stroke-width="0.00017"></path>
<path d="M1.511 0.110 Q1.590 0.278 1.934 0.277" stroke="hsl(180.0,100%,35%)" stroke-width="0.00017"></path>
<path d="M1.511 0.110 Q1.196 0.178 1.259 0.347" stroke="hsl(180.0,100%,35%)" stroke-width="0.00017"></path>
<path d="M1.511 0.110 Q0.853 0.296 1.071 0.659" stroke="hsl(180.0,100%,35%)" stroke-width="0.00084"></path>
<path d="M1.511 0.110 Q1.448 0.253 1.712 0.316" stroke="hsl(180.0,100%,35%)" stroke-width="0.00033"></path>
<path d="M1.511 0.110 Q0.481 0.258 0.543 0.793" stroke="hsl(180.0,100%,35%)" stroke-width="0.00017"></path>
<path d="M0.543 0.793 Q0.479 0.679 0.244 0.686" stroke="hsl(0.0,100%,35%)" stroke-width="0.00050"></path>
<path d="M0.543 0.793 Q0.705 0.656 0.474 0.548" stroke="hsl(0.0,100%,35%)" stroke-width="0.00017"></path>
<path d="M0.543 0.793 Q0.537 0.640 0.237 0.609" stroke="hsl(0.0,100%,35%)" stroke-width="0.00033"></path>
<path d="M0.543 0.793 Q1.397 0.741 1.483 0.313" stroke="hsl(0.0,100%,35%)" stroke-width="0.00017"></path>
<path d="M0.244 0.686 Q1.338 0.652 1.511 0.110" stroke="hsl(0.0,100%,35%)" stroke-width="0.00017"></path>
<path d="M0.244 0.686 Q0.302 0.646 0.237 0.609" stroke="hsl(0.0,100%,35%)" stroke-width="0.00033"></path>
<path d="M0.244 0.686 Q0.854 0.843 1.295 0.581" stroke="hsl(0.0,100%,35%)" stroke-width="0.00017"></path>
<path d="M0.244 0.686 Q0.469 0.663 0.474 0.548" stroke="hsl(0.0,100%,35%)" stroke-width="0.00017"></path>
<path d="M0.244 0.686 Q0.308 0.799 0.543 0.793" stroke="hsl(0.0,100%,35%)" stroke-width="0.00017"></path>
<path d="M0.158 0.779 Q0.816 0.829 1.058 0.519" stroke="hsl(0.0,100%,35%)" stroke-width="0.00620"></path>
<path d="M0.158 0.779 Q1.054 0.783 1.259 0.347" stroke="hsl(0.0,100%,35%)" stroke-width="0.00201"></path>
<path d="M0.158 0.779 Q1.193 0.811 1.483 0.313" stroke="hsl(0.0,100%,35%)" stroke-width="0.00017"></path>
<path d="M0.158 0.779 Q0.165 0.876 0.356 0.894" stroke="hsl(0.0,100%,35%)" stroke-width="0.00184"></path>
<path d="M0.158 0.779 Q0.264 0.845 0.415 0.808" stroke="hsl(0.0,100%,35%)" stroke-width="0.00050"></path>
<path d="M0.158 0.779 Q0.334 0.710 0.237 0.609" stroke="hsl(0.0,100%,35%)" stroke-width="0.00368"></path>
<path d="M0.158 0.779 Q0.711 0.902 1.071 0.659" stroke="hsl(0.0,100%,35%)" stroke-width="0.00167"></path>
<path d="M0.158 0.779 Q0.484 0.884 0.761 0.748" stroke="hsl(0.0,100%,35%)" stroke-width="0.00017"></path>
<path d="M0.158 0.779 Q0.925 0.695 0.928 0.302" stroke="hsl(0.0,100%,35%)" stroke-width="0.00017"></path>
<path d="M0.158 0.779 Q0.410 1.059 1.011 0.998" stroke="hsl(0.0,100%,35%)" stroke-width="0.00017"></path>
<path d="M0.158 0.779 Q0.501 0.727 0.474 0.548" stroke="hsl(0.0,100%,35%)" stroke-width="0.00017"></path>
<path d="M0.158 0.779 Q1.448 0.883 1.934 0.277" stroke="hsl(0.0,100%,35%)" stroke-width="0.00017"></path>
<path d="M1.934 0.277 Q1.197 0.497 1.464 0.905" stroke="hsl(0.0,100%,35%)" stroke-width="0.00017"></path>
<path d="M1.934 0.277 Q0.644 0.173 0.158 0.779" stroke="hsl(0.0,100%,35%)" stroke-width="0.00167"></path>
<path d="M1.934 0.277 Q0.820 0.103 0.237 0.609" stroke="hsl(0.0,100%,35%)" stroke-width="0.00184"></path>
<path d="M1.934 0.277 Q1.197 0.295 1.071 0.659" stroke="hsl(0.0,100%,35%)" stroke-width="0.00033"></path>
<path d="M1.934 0.277 Q1.987 0.228 1.904 0.192" stroke="hsl(0.0,100%,35%)" stroke-width="0.00402"></path>
<path d="M1.934 0.277 Q1.302 0.223 1.058 0.519" stroke="hsl(0.0,100%,35%)" stroke-width="0.00117"></path>
<path d="M1.934 0.277 Q1.856 0.109 1.511 0.110" stroke="hsl(0.0,100%,35%)" stroke-width="0.00017"></path>
<path d="M1.934 0.277 Q1.680 0.205 1.483 0.313" stroke="hsl(0.0,100%,35%)" stroke-width="0.00017"></path>
<path d="M1.934 0.277 Q0.970 0.278 0.761 0.748" stroke="hsl(0.0,100%,35%)" stroke-width="0.00017"></path>
<path d="M1.934 0.277 Q1.540 0.177 1.259 0.347" stroke="hsl(0.0,100%,35%)" stroke-width="0.00017"></path>
<path d="M1.934 0.277 Q1.803 0.331 1.881 0.407" stroke="hsl(0.0,100%,35%)" stroke-width="0.00017"></path>
<path d="M0.374 0.724 Q0.473 0.988 1.011 0.998" stroke="hsl(0.0,100%,35%)" stroke-width="0.00067"></path>
<path d="M0.374 0.724 Q0.397 0.639 0.237 0.609" stroke="hsl(0.0,100%,35%)" stroke-width="0.00017"></path>
<path d="M0.374 0.724 Q0.774 0.831 1.071 0.659" stroke="hsl(0.0,100%,35%)" stroke-width="0.00084"></path>
<path d="M0.374 0.724 Q0.548 0.813 0.761 0.748" stroke="hsl(0.0,100%,35%)" stroke-width="0.00117"></path>
<path d="M0.374 0.724 Q1.433 0.645 1.511 0.110" stroke="hsl(0.0,100%,35%)" stroke-width="0.00067"></path>
<path d="M0.374 0.724 Q0.830 0.669 0.822 0.434" stroke="hsl(0.0,100%,35%)" stroke-width="0.00017"></path>
<path d="M0.374 0.724 Q0.643 0.852 0.952 0.749" stroke="hsl(0.0,100%,35%)" stroke-width="0.00017"></path>
<path d="M0.374 0.724 Q0.880 0.758 1.058 0.519" stroke="hsl(0.0,100%,35%)" stroke-width="0.00017"></path>
<path d="M0.374 0.724 Q0.221 0.708 0.158 0.779" stroke="hsl(0.0,100%,35%)" stroke-width="0.00017"></path>
<path d="M0.356 0.894 Q0.349 0.797 0.158 0.779" stroke="hsl(0.0,100%,35%)" stroke-width="0.00385"></path>
<path d="M0.356 0.894 Q0.525 0.728 0.237 0.609" stroke="hsl(0.0,100%,35%)" stroke-width="0.00084"></path>
<path d="M0.356 0.894 Q1.007 0.847 1.058 0.519" stroke="hsl(0.0,100%,35%)" stroke-width="0.00050"></path>
<path d="M0.356 0.894 Q0.957 0.757 0.822 0.434" stroke="hsl(0.0,100%,35%)" stroke-width="0.00017"></path>
<path d="M0.356 0.894 Q0.692 0.744 0.474 0.548" stroke="hsl(0.0,100%,35%)" stroke-width="0.00017"></path>
<path d="M0.356 0.894 Q1.642 0.794 1.729 0.145" stroke="hsl(0.0,100%,35%)" stroke-width="0.00017"></path>
<path d="M1.904 0.192 Q0.737 0.067 0.237 0.609" stroke="hsl(0.0,100%,35%)" stroke-width="0.00167"></path>
<path d="M1.904 0.192 Q1.851 0.240 1.934 0.277" stroke="hsl(0.0,100%,35%)" stroke-width="0.00586"></path>
<path d="M1.904 0.192 Q1.854 0.134 1.729 0.145" stroke="hsl(0.0,100%,35%)" stroke-width="0.00017"></path>
<path d="M1.904 0.192 Q1.773 0.073 1.511 0.110" stroke="hsl(0.0,100%,35%)" stroke-width="0.00017"></path>
<path d="M0.761 0.748 Q0.587 0.659 0.374 0.724" stroke="hsl(0.0,100%,35%)" stroke-width="0.00084"></path>
<path d="M0.761 0.748 Q0.435 0.643 0.158 0.779" stroke="hsl(0.0,100%,35%)" stroke-width="0.00033"></path>
<path d="M0.761 0.748 Q0.987 0.766 1.071 0.659" stroke="hsl(0.0,100%,35%)" stroke-width="0.00084"></path>
<path d="M0.761 0.748 Q1.728 0.640 1.729 0.145" stroke="hsl(0.0,100%,35%)" stroke-width="0.00033"></path>
<path d="M0.761 0.748 Q0.856 0.787 0.952 0.749" stroke="hsl(0.0,100%,35%)" stroke-width="0.00084"></path>
<path d="M0.761 0.748 Q0.610 0.574 0.237 0.609" stroke="hsl(0.0,100%,35%)" stroke-width="0.00050"></path>
<path d="M0.761 0.748 Q1.093 0.693 1.058 0.519" stroke="hsl(0.0,100%,35%)" stroke-width="0.00017"></path>
<path d="M1.190 0.884 Q1.010 0.905 1.011 0.998" stroke="hsl(180.0,100%,35%)" stroke-width="0.00201"></path>
<path d="M1.190 0.884 Q1.969 0.561 1.511 0.110" stroke="hsl(180.0,100%,35%)" stroke-width="0.00017"></path>
<path d="M1.190 0.884 Q1.906 0.704 1.712 0.316" stroke="hsl(180.0,100%,35%)" stroke-width="0.00017"></path>
<path d="M1.190 0.884 Q1.311 0.747 1.071 0.659" stroke="hsl(180.0,100%,35%)" stroke-width="0.00017"></path>
<path d="M1.190 0.884 Q1.416 0.675 1.058 0.519" stroke="hsl(180.0,100%,35%)" stroke-width="0.00017"></path>
<path d="M1.190 0.884 Q1.793 0.657 1.483 0.313" stroke="hsl(180.0,100%,35%)" stroke-width="0.00017"></path>
<path d="M1.190 0.884 Q0.933 0.556 0.237 0.609" stroke="hsl(180.0,100%,35%)" stroke-width="0.00050"></path>
<path d="M0.415 0.808 Q0.310 0.742 0.158 0.779" stroke="hsl(0.0,100%,35%)" stroke-width="0.00737"></path>
<path d="M0.415 0.808 Q0.317 0.839 0.356 0.894" stroke="hsl(0.0,100%,35%)" stroke-width="0.00017"></path>
<path d="M0.415 0.808 Q0.485 0.673 0.237 0.609" stroke="hsl(0.0,100%,35%)" stroke-width="0.00402"></path>
<path d="M0.415 0.808 Q0.968 0.792 1.058 0.519" stroke="hsl(0.0,100%,35%)" stroke-width="0.00050"></path>
<path d="M0.415 0.808 Q0.562 1.022 1.011 0.998" stroke="hsl(0.0,100%,35%)" stroke-width="0.00017"></path>
<path d="M0.415 0.808 Q1.600 0.846 1.934 0.277" stroke="hsl(0.0,100%,35%)" stroke-width="0.00017"></path>
<path d="M0.415 0.808 Q0.731 0.886 0.952 0.749" stroke="hsl(0.0,100%,35%)" stroke-width="0.00017"></path>
<path d="M1.035 0.392 Q0.945 0.461 1.058 0.519" stroke="hsl(0.0,100%,35%)" stroke-width="0.00435"></path>
<path d="M1.035 0.392 Q0.613 0.516 0.761 0.748" stroke="hsl(0.0,100%,35%)" stroke-width="0.00067"></path>
<path d="M1.035 0.392 Q1.054 0.326 0.928 0.302" stroke="hsl(0.0,100%,35%)" stroke-width="0.00033"></path>
<path d="M0.206 0.451 Q0.095 0.536 0.237 0.609" stroke="hsl(0.0,100%,35%)" stroke-width="0.00452"></path>
<path d="M0.206 0.451 Q0.263 0.553 0.474 0.548" stroke="hsl(0.0,100%,35%)" stroke-width="0.00050"></path>
<path d="M0.206 0.451 Q0.647 0.734 1.295 0.581" stroke="hsl(0.0,100%,35%)" stroke-width="0.00033"></path>
<path d="M0.206 0.451 Q0.955 0.637 1.483 0.313" stroke="hsl(0.0,100%,35%)" stroke-width="0.00067"></path>
<path d="M0.206 0.451 Q-0.081 0.605 0.158 0.779" stroke="hsl(0.0,100%,35%)" stroke-width="0.00017"></path>
<path d="M0.206 0.451 Q0.472 0.929 1.464 0.905" stroke="hsl(0.0,100%,35%)" stroke-width="0.00033"></path>
<path d="M0.206 0.451 Q0.627 0.828 1.456 0.706" stroke="hsl(0.0,100%,35%)" stroke-width="0.00017"></path>
<path d="M0.206 0.451 Q0.472 0.728 1.071 0.659" stroke="hsl(0.0,100%,35%)" stroke-width="0.00067"></path>
<path d="M0.206 0.451 Q0.037 0.576 0.244 0.686" stroke="hsl(0.0,100%,35%)" stroke-width="0.00033"></path>
<path d="M0.206 0.451 Q0.101 0.689 0.543 0.793" stroke="hsl(0.0,100%,35%)" stroke-width="0.00017"></path>
<path d="M0.206 0.451 Q0.577 0.655 1.058 0.519" stroke="hsl(0.0,100%,35%)" stroke-width="0.00033"></path>
<path d="M1.464 0.905 Q1.093 0.665 0.543 0.793" stroke="hsl(0.0,100%,35%)" stroke-width="0.00050"></path>
<path d="M1.464 0.905 Q1.619 0.804 1.456 0.706" stroke="hsl(0.0,100%,35%)" stroke-width="0.00218"></path>
<path d="M1.464 0.905 Q1.087 0.511 0.237 0.609" stroke="hsl(0.0,100%,35%)" stroke-width="0.00017"></path>
<path d="M1.464 0.905 Q1.198 0.426 0.206 0.451" stroke="hsl(0.0,100%,35%)" stroke-width="0.00100"></path>
<path d="M1.464 0.905 Q2.123 0.517 1.511 0.110" stroke="hsl(0.0,100%,35%)" stroke-width="0.00017"></path>
<path d="M0.688 0.894 Q0.767 1.010 1.011 0.998" stroke="hsl(180.0,100%,35%)" stroke-width="0.00050"></path>
<path d="M0.688 0.894 Q1.663 0.810 1.712 0.316" stroke="hsl(180.0,100%,35%)" stroke-width="0.00017"></path>
<path d="M0.688 0.894 Q1.808 0.728 1.729 0.145" stroke="hsl(180.0,100%,35%)" stroke-width="0.00033"></path>
<path d="M0.688 0.894 Q1.173 0.781 1.058 0.519" stroke="hsl(180.0,100%,35%)" stroke-width="0.00017"></path>
<path d="M0.688 0.894 Q1.550 0.763 1.483 0.313" stroke="hsl(180.0,100%,35%)" stroke-width="0.00017"></path>
<path d="M0.582 0.652 Q0.276 0.728 0.356 0.894" stroke="hsl(0.0,100%,35%)" stroke-width="0.00017"></path>
<path d="M0.582 0.652 Q0.444 0.562 0.237 0.609" stroke="hsl(0.0,100%,35%)" stroke-width="0.00017"></path>
<path d="M0.582 0.652 Q0.926 0.681 1.058 0.519" stroke="hsl(0.0,100%,35%)" stroke-width="0.00017"></path>
<path d="M1.446 0.562 Q1.286 0.463 1.058 0.519" stroke="hsl(0.0,100%,35%)" stroke-width="0.00033"></path>
<path d="M1.446 0.562 Q1.918 0.517 1.934 0.277" stroke="hsl(0.0,100%,35%)" stroke-width="0.00017"></path>
<path d="M1.446 0.562 Q0.628 0.413 0.158 0.779" stroke="hsl(0.0,100%,35%)" stroke-width="0.00017"></path>
<path d="M0.967 0.847 Q0.868 0.931 1.011 0.998" stroke="hsl(180.0,100%,35%)" stroke-width="0.00218"></path>
<path d="M0.967 0.847 Q1.909 0.648 1.729 0.145" stroke="hsl(180.0,100%,35%)" stroke-width="0.00218"></path>
<path d="M0.967 0.847 Q1.652 0.683 1.483 0.313" stroke="hsl(180.0,100%,35%)" stroke-width="0.00017"></path>
<path d="M0.967 0.847 Q1.225 0.611 0.822 0.434" stroke="hsl(180.0,100%,35%)" stroke-width="0.00017"></path>
<path d="M1.600 0.392 Q1.228 0.347 1.058 0.519" stroke="hsl(180.0,100%,35%)" stroke-width="0.00017"></path>
<path d="M1.600 0.392 Q1.862 0.294 1.729 0.145" stroke="hsl(180.0,100%,35%)" stroke-width="0.00033"></path>
<path d="M1.600 0.392 Q0.745 0.228 0.237 0.609" stroke="hsl(180.0,100%,35%)" stroke-width="0.00017"></path>
<path d="M1.600 0.392 Q1.605 0.329 1.483 0.313" stroke="hsl(180.0,100%,35%)" stroke-width="0.00033"></path>
<path d="M1.600 0.392 Q0.821 0.577 1.011 0.998" stroke="hsl(180.0,100%,35%)" stroke-width="0.00017"></path>
<path d="M1.817 0.939 Q2.406 0.632 1.934 0.277" stroke="hsl(0.0,100%,35%)" stroke-width="0.00218"></path>
<path d="M1.817 0.939 Q1.115 0.528 0.158 0.779" stroke="hsl(0.0,100%,35%)" stroke-width="0.00151"></path>
<path d="M1.817 0.939 Q1.773 0.578 1.058 0.519" stroke="hsl(0.0,100%,35%)" stroke-width="0.00167"></path>
<path d="M1.817 0.939 Q1.291 0.458 0.237 0.609" stroke="hsl(0.0,100%,35%)" stroke-width="0.00017"></path>
<path d="M1.817 0.939 Q1.367 0.807 1.011 0.998" stroke="hsl(0.0,100%,35%)" stroke-width="0.00017"></path>
<path d="M0.708 0.813 Q0.786 0.791 0.761 0.748" stroke="hsl(0.0,100%,35%)" stroke-width="0.00084"></path>
<path d="M0.708 0.813 Q1.118 0.736 1.058 0.519" stroke="hsl(0.0,100%,35%)" stroke-width="0.00017"></path>
<path d="M0.708 0.813 Q1.356 0.690 1.259 0.347" stroke="hsl(0.0,100%,35%)" stroke-width="0.00017"></path>
<path d="M1.248 0.169 Q1.508 0.253 1.729 0.145" stroke="hsl(180.0,100%,35%)" stroke-width="0.00117"></path>
<path d="M1.248 0.169 Q0.467 0.536 1.011 0.998" stroke="hsl(180.0,100%,35%)" stroke-width="0.00084"></path>
<path d="M1.248 0.169 Q1.426 0.192 1.511 0.110" stroke="hsl(180.0,100%,35%)" stroke-width="0.00017"></path>
<path d="M1.248 0.169 Q0.873 0.306 1.058 0.519" stroke="hsl(180.0,100%,35%)" stroke-width="0.00050"></path>
<path d="M1.107 0.280 Q0.892 0.390 1.058 0.519" stroke="hsl(0.0,100%,35%)" stroke-width="0.00050"></path>
<path d="M1.107 0.280 Q1.130 0.344 1.259 0.347" stroke="hsl(0.0,100%,35%)" stroke-width="0.00033"></path>
<path d="M1.107 0.280 Q0.787 0.462 1.071 0.659" stroke="hsl(0.0,100%,35%)" stroke-width="0.00017"></path>
<path d="M1.060 0.795 Q1.915 0.604 1.729 0.145" stroke="hsl(180.0,100%,35%)" stroke-width="0.00167"></path>
<path d="M1.060 0.795 Q0.874 0.887 1.011 0.998" stroke="hsl(180.0,100%,35%)" stroke-width="0.00100"></path>
<path d="M1.060 0.795 Q1.657 0.639 1.483 0.313" stroke="hsl(180.0,100%,35%)" stroke-width="0.00084"></path>
<path d="M1.060 0.795 Q1.280 0.657 1.058 0.519" stroke="hsl(180.0,100%,35%)" stroke-width="0.00050"></path>
<path d="M1.060 0.795 Q1.518 0.611 1.259 0.347" stroke="hsl(180.0,100%,35%)" stroke-width="0.00017"></path>
<path d="M1.060 0.795 Q0.797 0.538 0.237 0.609" stroke="hsl(180.0,100%,35%)" stroke-width="0.00050"></path>
<path d="M1.060 0.795 Q1.230 0.567 0.822 0.434" stroke="hsl(180.0,100%,35%)" stroke-width="0.00017"></path>
</g>
<text x="0.648" y="0.373" font-size="0.041302" fill="hsl(0.0,100%,20%)">armansito</text>
<text x="1.071" y="0.619" font-size="0.078871" fill="hsl(0.0,100%,20%)">johnstiles</text>
<text x="1.729" y="0.115" font-size="0.059148" fill="hsl(180.0,100%,20%)">michaelludwig</text>
<text x="0.822" y="0.416" font-size="0.036440" fill="hsl(180.0,100%,20%)">nicolettep</text>
<text x="1.011" y="0.978" font-size="0.039208" fill="hsl(180.0,100%,20%)">egdaniel</text>
<text x="1.712" y="0.300" font-size="0.030738" fill="hsl(180.0,100%,20%)">jamesgk</text>
<text x="1.483" y="0.286" font-size="0.054426" fill="hsl(180.0,100%,20%)">jvanverth</text>
<text x="0.237" y="0.575" font-size="0.068659" fill="hsl(0.0,100%,20%)">kjlubick</text>
<text x="1.058" y="0.482" font-size="0.074646" fill="hsl(0.0,100%,20%)">brianosman</text>
<text x="0.474" y="0.533" font-size="0.028675" fill="hsl(0.0,100%,20%)">lovisolo</text>
<text x="1.259" y="0.327" font-size="0.041425" fill="hsl(0.0,100%,20%)">herb</text>
<text x="1.019" y="0.151" font-size="0.004520" fill="hsl(0.0,100%,20%)">ayzhao</text>
<text x="1.895" y="0.195" font-size="0.004520" fill="hsl(180.0,100%,20%)">blundell</text>
<text x="1.511" y="0.084" font-size="0.052174" fill="hsl(180.0,100%,20%)">robertphillips</text>
<text x="0.543" y="0.787" font-size="0.011743" fill="hsl(0.0,100%,20%)">borenet</text>
<text x="0.244" y="0.680" font-size="0.010838" fill="hsl(0.0,100%,20%)">rmistry</text>
<text x="0.158" y="0.759" font-size="0.040991" fill="hsl(0.0,100%,20%)">bungeman</text>
<text x="1.934" y="0.263" font-size="0.026835" fill="hsl(0.0,100%,20%)">fmalita</text>
<text x="0.928" y="0.298" font-size="0.007147" fill="hsl(0.0,100%,20%)">jreck</text>
<text x="0.374" y="0.716" font-size="0.015328" fill="hsl(0.0,100%,20%)">nscobie</text>
<text x="0.356" y="0.885" font-size="0.017795" fill="hsl(0.0,100%,20%)">jlavrova</text>
<text x="1.904" y="0.182" font-size="0.020339" fill="hsl(0.0,100%,20%)">jmbetancourt</text>
<text x="0.761" y="0.738" font-size="0.019702" fill="hsl(0.0,100%,20%)">scroggo</text>
<text x="1.295" y="0.576" font-size="0.009318" fill="hsl(0.0,100%,20%)">jcgregorio</text>
<text x="1.190" y="0.879" font-size="0.010107" fill="hsl(180.0,100%,20%)">briansalomon</text>
<text x="0.415" y="0.798" font-size="0.021079" fill="hsl(0.0,100%,20%)">drott</text>
<text x="1.035" y="0.386" font-size="0.013178" fill="hsl(0.0,100%,20%)">ccameron</text>
<text x="0.206" y="0.442" font-size="0.018772" fill="hsl(0.0,100%,20%)">cmumford</text>
<text x="1.464" y="0.899" font-size="0.011743" fill="hsl(0.0,100%,20%)">sharaks</text>
<text x="1.456" y="0.702" font-size="0.008753" fill="hsl(0.0,100%,20%)">hcm</text>
<text x="0.952" y="0.746" font-size="0.006392" fill="hsl(0.0,100%,20%)">djsollen</text>
<text x="1.881" y="0.406" font-size="0.002260" fill="hsl(0.0,100%,20%)">bwils</text>
<text x="0.688" y="0.891" font-size="0.006392" fill="hsl(180.0,100%,20%)">hitawala</text>
<text x="0.582" y="0.650" font-size="0.003914" fill="hsl(0.0,100%,20%)">jacksongardner</text>
<text x="0.359" y="0.700" font-size="0.003196" fill="hsl(0.0,100%,20%)">tdenniston</text>
<text x="1.446" y="0.559" font-size="0.004520" fill="hsl(0.0,100%,20%)">kschmi</text>
<text x="0.967" y="0.841" font-size="0.011958" fill="hsl(180.0,100%,20%)">lehoangquyen</text>
<text x="1.600" y="0.389" font-size="0.005979" fill="hsl(180.0,100%,20%)">lokokung</text>
<text x="1.817" y="0.933" font-size="0.013178" fill="hsl(0.0,100%,20%)">mike</text>
<text x="0.708" y="0.810" font-size="0.005979" fill="hsl(0.0,100%,20%)">nigeltao</text>
<text x="1.248" y="0.164" font-size="0.009040" fill="hsl(180.0,100%,20%)">penghuang</text>
<text x="1.107" y="0.278" font-size="0.005536" fill="hsl(0.0,100%,20%)">sky</text>
<text x="1.060" y="0.789" font-size="0.012170" fill="hsl(180.0,100%,20%)">sunnyps</text>
</svg>
