<svg width="4000" height="2000" viewBox="-0.025 -0.025 2.05 1.05" xmlns="http://www.w3.org/2000/svg">
  <style>
    path {
      fill: none;
      stroke-linecap: round;
      stroke-opacity: 0.4;
    }

    text {
      text-anchor: middle;
      alignment-baseline: hanging;
    }
  </style>
  <g opacity="0.4">
<path d="M0.297 0.692 Q0.618 0.472 0.258 0.267" stroke="hsl(0.0,100%,35%)" stroke-width="0.02487"></path>
<path d="M0.297 0.692 Q0.397 0.762 0.555 0.728" stroke="hsl(0.0,100%,35%)" stroke-width="0.01243"></path>
<path d="M0.297 0.692 Q0.875 1.062 1.722 0.861" stroke="hsl(0.0,100%,35%)" stroke-width="0.01243"></path>
<path d="M1.722 0.861 Q2.011 0.795 1.946 0.640" stroke="hsl(180.0,100%,35%)" stroke-width="0.02487"></path>
<path d="M1.722 0.861 Q1.438 0.798 1.254 0.923" stroke="hsl(180.0,100%,35%)" stroke-width="0.04973"></path>
<path d="M1.722 0.861 Q1.590 0.752 1.349 0.792" stroke="hsl(180.0,100%,35%)" stroke-width="0.03730"></path>
<path d="M1.722 0.861 Q1.846 0.761 1.679 0.679" stroke="hsl(180.0,100%,35%)" stroke-width="0.02487"></path>
<path d="M1.722 0.861 Q1.542 0.608 1.010 0.640" stroke="hsl(180.0,100%,35%)" stroke-width="0.02487"></path>
<path d="M1.722 0.861 Q1.736 0.692 1.411 0.649" stroke="hsl(180.0,100%,35%)" stroke-width="0.01243"></path>
<path d="M1.010 0.640 Q1.190 0.893 1.722 0.861" stroke="hsl(0.0,100%,35%)" stroke-width="0.01243"></path>
<path d="M1.010 0.640 Q1.101 0.426 0.703 0.335" stroke="hsl(0.0,100%,35%)" stroke-width="0.01243"></path>
<path d="M1.010 0.640 Q0.612 0.524 0.297 0.692" stroke="hsl(0.0,100%,35%)" stroke-width="0.01243"></path>
<path d="M1.010 0.640 Q1.434 0.616 1.479 0.404" stroke="hsl(0.0,100%,35%)" stroke-width="0.01243"></path>
<path d="M0.703 0.335 Q0.612 0.549 1.010 0.640" stroke="hsl(0.0,100%,35%)" stroke-width="0.03730"></path>
<path d="M0.703 0.335 Q0.887 0.428 1.110 0.358" stroke="hsl(0.0,100%,35%)" stroke-width="0.01243"></path>
<path d="M0.703 0.335 Q0.792 0.802 1.722 0.861" stroke="hsl(0.0,100%,35%)" stroke-width="0.02487"></path>
<path d="M0.703 0.335 Q0.314 0.502 0.555 0.728" stroke="hsl(0.0,100%,35%)" stroke-width="0.01243"></path>
</g>
<text x="0.297" y="0.663" font-size="0.058722" fill="hsl(0.0,100%,20%)">borenet</text>
<text x="0.258" y="0.249" font-size="0.037139" fill="hsl(0.0,100%,20%)">rmistry</text>
<text x="0.555" y="0.710" font-size="0.037139" fill="hsl(0.0,100%,20%)">jvanverth</text>
<text x="1.722" y="0.805" font-size="0.111417" fill="hsl(180.0,100%,20%)">kjlubick</text>
<text x="1.010" y="0.601" font-size="0.078784" fill="hsl(0.0,100%,20%)">brianosman</text>
<text x="0.703" y="0.298" font-size="0.074278" fill="hsl(0.0,100%,20%)">johnstiles</text>
<text x="1.479" y="0.391" font-size="0.026261" fill="hsl(0.0,100%,20%)">michaelludwig</text>
<text x="1.110" y="0.345" font-size="0.026261" fill="hsl(0.0,100%,20%)">herb</text>
<text x="1.946" y="0.621" font-size="0.037139" fill="hsl(180.0,100%,20%)">nscobie</text>
<text x="1.254" y="0.897" font-size="0.052523" fill="hsl(180.0,100%,20%)">bungeman</text>
<text x="1.349" y="0.769" font-size="0.045486" fill="hsl(180.0,100%,20%)">fmalita</text>
<text x="1.679" y="0.660" font-size="0.037139" fill="hsl(180.0,100%,20%)">lovisolo</text>
<text x="1.411" y="0.636" font-size="0.026261" fill="hsl(180.0,100%,20%)">robertphillips</text>
</svg>
