<svg width="4000" height="2000" viewBox="-0.025 -0.025 2.05 1.05" xmlns="http://www.w3.org/2000/svg">
  <style>
    path {
      fill: none;
      stroke-linecap: round;
      stroke-opacity: 0.4;
    }

    text {
      text-anchor: middle;
      alignment-baseline: hanging;
    }
  </style>
  <g opacity="0.4">
<path d="M0.960 0.734 Q1.794 0.550 1.617 0.103" stroke="hsl(0.0,100%,35%)" stroke-width="0.00227"></path>
<path d="M0.960 0.734 Q1.086 0.681 1.010 0.609" stroke="hsl(0.0,100%,35%)" stroke-width="0.01058"></path>
<path d="M0.960 0.734 Q1.710 0.487 1.392 0.067" stroke="hsl(0.0,100%,35%)" stroke-width="0.00045"></path>
<path d="M0.960 0.734 Q0.586 0.731 0.497 0.913" stroke="hsl(0.0,100%,35%)" stroke-width="0.00060"></path>
<path d="M0.960 0.734 Q0.409 0.679 0.179 0.935" stroke="hsl(0.0,100%,35%)" stroke-width="0.00045"></path>
<path d="M0.960 0.734 Q0.914 0.494 0.435 0.464" stroke="hsl(0.0,100%,35%)" stroke-width="0.00045"></path>
<path d="M0.960 0.734 Q0.780 0.526 0.333 0.568" stroke="hsl(0.0,100%,35%)" stroke-width="0.00045"></path>
<path d="M0.960 0.734 Q1.148 0.974 1.656 0.935" stroke="hsl(0.0,100%,35%)" stroke-width="0.00015"></path>
<path d="M0.960 0.734 Q0.770 0.404 0.084 0.425" stroke="hsl(0.0,100%,35%)" stroke-width="0.00015"></path>
<path d="M0.960 0.734 Q0.678 0.822 0.786 0.979" stroke="hsl(0.0,100%,35%)" stroke-width="0.00030"></path>
<path d="M0.960 0.734 Q0.996 0.592 0.726 0.543" stroke="hsl(0.0,100%,35%)" stroke-width="0.00030"></path>
<path d="M0.960 0.734 Q1.226 0.755 1.323 0.629" stroke="hsl(0.0,100%,35%)" stroke-width="0.00015"></path>
<path d="M0.960 0.734 Q0.855 0.608 0.584 0.631" stroke="hsl(0.0,100%,35%)" stroke-width="0.00030"></path>
<path d="M1.617 0.103 Q0.594 -0.043 0.084 0.425" stroke="hsl(0.0,100%,35%)" stroke-width="0.00575"></path>
<path d="M1.617 0.103 Q0.678 0.161 0.584 0.631" stroke="hsl(0.0,100%,35%)" stroke-width="0.00726"></path>
<path d="M1.617 0.103 Q1.049 0.308 1.323 0.629" stroke="hsl(0.0,100%,35%)" stroke-width="0.00045"></path>
<path d="M1.617 0.103 Q0.982 0.185 1.002 0.513" stroke="hsl(0.0,100%,35%)" stroke-width="0.00801"></path>
<path d="M1.617 0.103 Q0.888 0.009 0.544 0.343" stroke="hsl(0.0,100%,35%)" stroke-width="0.00121"></path>
<path d="M1.617 0.103 Q0.910 0.235 1.010 0.609" stroke="hsl(0.0,100%,35%)" stroke-width="0.00847"></path>
<path d="M1.617 0.103 Q0.438 0.128 0.228 0.709" stroke="hsl(0.0,100%,35%)" stroke-width="0.00015"></path>
<path d="M1.617 0.103 Q1.446 0.329 1.849 0.462" stroke="hsl(0.0,100%,35%)" stroke-width="0.00045"></path>
<path d="M1.617 0.103 Q0.820 0.145 0.726 0.543" stroke="hsl(0.0,100%,35%)" stroke-width="0.00030"></path>
<path d="M1.617 0.103 Q1.533 0.040 1.392 0.067" stroke="hsl(0.0,100%,35%)" stroke-width="0.00121"></path>
<path d="M1.617 0.103 Q0.604 0.079 0.333 0.568" stroke="hsl(0.0,100%,35%)" stroke-width="0.00348"></path>
<path d="M1.617 0.103 Q0.765 -0.118 0.145 0.249" stroke="hsl(0.0,100%,35%)" stroke-width="0.00045"></path>
<path d="M1.617 0.103 Q0.972 0.527 1.656 0.935" stroke="hsl(0.0,100%,35%)" stroke-width="0.00076"></path>
<path d="M1.617 0.103 Q0.784 0.288 0.960 0.734" stroke="hsl(0.0,100%,35%)" stroke-width="0.00121"></path>
<path d="M1.617 0.103 Q1.268 0.368 1.707 0.596" stroke="hsl(0.0,100%,35%)" stroke-width="0.00015"></path>
<path d="M1.617 0.103 Q0.638 0.330 0.864 0.857" stroke="hsl(0.0,100%,35%)" stroke-width="0.00030"></path>
<path d="M1.617 0.103 Q0.738 0.047 0.435 0.464" stroke="hsl(0.0,100%,35%)" stroke-width="0.00045"></path>
<path d="M1.617 0.103 Q0.233 0.232 0.179 0.935" stroke="hsl(0.0,100%,35%)" stroke-width="0.00015"></path>
<path d="M1.617 0.103 Q0.501 0.375 0.786 0.979" stroke="hsl(0.0,100%,35%)" stroke-width="0.00030"></path>
<path d="M1.010 0.609 Q1.083 0.559 1.002 0.513" stroke="hsl(0.0,100%,35%)" stroke-width="0.01436"></path>
<path d="M1.010 0.609 Q0.704 0.453 0.333 0.568" stroke="hsl(0.0,100%,35%)" stroke-width="0.00272"></path>
<path d="M1.010 0.609 Q1.634 0.414 1.392 0.067" stroke="hsl(0.0,100%,35%)" stroke-width="0.00136"></path>
<path d="M1.010 0.609 Q1.718 0.477 1.617 0.103" stroke="hsl(0.0,100%,35%)" stroke-width="0.00454"></path>
<path d="M1.010 0.609 Q0.333 0.606 0.179 0.935" stroke="hsl(0.0,100%,35%)" stroke-width="0.00091"></path>
<path d="M1.010 0.609 Q0.779 0.535 0.584 0.631" stroke="hsl(0.0,100%,35%)" stroke-width="0.00529"></path>
<path d="M1.010 0.609 Q0.602 0.749 0.786 0.979" stroke="hsl(0.0,100%,35%)" stroke-width="0.00030"></path>
<path d="M1.010 0.609 Q0.694 0.331 0.084 0.425" stroke="hsl(0.0,100%,35%)" stroke-width="0.00076"></path>
<path d="M1.010 0.609 Q0.989 0.383 0.544 0.343" stroke="hsl(0.0,100%,35%)" stroke-width="0.00015"></path>
<path d="M1.010 0.609 Q1.324 0.877 1.917 0.783" stroke="hsl(0.0,100%,35%)" stroke-width="0.00060"></path>
<path d="M1.010 0.609 Q0.973 0.730 1.202 0.775" stroke="hsl(0.0,100%,35%)" stroke-width="0.00015"></path>
<path d="M1.010 0.609 Q1.150 0.682 1.323 0.629" stroke="hsl(0.0,100%,35%)" stroke-width="0.00030"></path>
<path d="M1.010 0.609 Q1.072 0.901 1.656 0.935" stroke="hsl(0.0,100%,35%)" stroke-width="0.00030"></path>
<path d="M1.010 0.609 Q0.885 0.662 0.960 0.734" stroke="hsl(0.0,100%,35%)" stroke-width="0.00181"></path>
<path d="M1.010 0.609 Q0.398 0.515 0.082 0.793" stroke="hsl(0.0,100%,35%)" stroke-width="0.00015"></path>
<path d="M1.010 0.609 Q0.539 0.502 0.228 0.709" stroke="hsl(0.0,100%,35%)" stroke-width="0.00015"></path>
<path d="M1.392 0.067 Q0.462 0.106 0.333 0.568" stroke="hsl(0.0,100%,35%)" stroke-width="0.00438"></path>
<path d="M1.392 0.067 Q0.841 0.212 1.002 0.513" stroke="hsl(0.0,100%,35%)" stroke-width="0.01073"></path>
<path d="M1.392 0.067 Q0.537 0.188 0.584 0.631" stroke="hsl(0.0,100%,35%)" stroke-width="0.00801"></path>
<path d="M1.392 0.067 Q1.165 0.451 1.864 0.646" stroke="hsl(0.0,100%,35%)" stroke-width="0.00015"></path>
<path d="M1.392 0.067 Q0.768 0.262 1.010 0.609" stroke="hsl(0.0,100%,35%)" stroke-width="0.00756"></path>
<path d="M1.392 0.067 Q0.452 -0.015 0.084 0.425" stroke="hsl(0.0,100%,35%)" stroke-width="0.00378"></path>
<path d="M1.392 0.067 Q0.678 0.172 0.726 0.543" stroke="hsl(0.0,100%,35%)" stroke-width="0.00076"></path>
<path d="M1.392 0.067 Q1.476 0.131 1.617 0.103" stroke="hsl(0.0,100%,35%)" stroke-width="0.01512"></path>
<path d="M1.392 0.067 Q0.747 0.036 0.544 0.343" stroke="hsl(0.0,100%,35%)" stroke-width="0.00257"></path>
<path d="M1.392 0.067 Q0.908 0.335 1.323 0.629" stroke="hsl(0.0,100%,35%)" stroke-width="0.00015"></path>
<path d="M1.392 0.067 Q1.215 0.078 1.198 0.167" stroke="hsl(0.0,100%,35%)" stroke-width="0.00030"></path>
<path d="M1.392 0.067 Q0.207 0.315 0.430 0.947" stroke="hsl(0.0,100%,35%)" stroke-width="0.00015"></path>
<path d="M1.392 0.067 Q0.360 0.402 0.786 0.979" stroke="hsl(0.0,100%,35%)" stroke-width="0.00106"></path>
<path d="M1.392 0.067 Q0.643 0.315 0.960 0.734" stroke="hsl(0.0,100%,35%)" stroke-width="0.00227"></path>
<path d="M1.392 0.067 Q0.830 0.554 1.656 0.935" stroke="hsl(0.0,100%,35%)" stroke-width="0.00045"></path>
<path d="M1.392 0.067 Q1.057 0.441 1.713 0.686" stroke="hsl(0.0,100%,35%)" stroke-width="0.00136"></path>
<path d="M1.392 0.067 Q1.435 0.333 1.964 0.371" stroke="hsl(0.0,100%,35%)" stroke-width="0.00015"></path>
<path d="M1.392 0.067 Q0.596 0.074 0.435 0.464" stroke="hsl(0.0,100%,35%)" stroke-width="0.00015"></path>
<path d="M1.392 0.067 Q0.091 0.259 0.179 0.935" stroke="hsl(0.0,100%,35%)" stroke-width="0.00015"></path>
<path d="M0.497 0.913 Q0.436 0.917 0.430 0.947" stroke="hsl(120.0,100%,35%)" stroke-width="0.00136"></path>
<path d="M0.497 0.913 Q0.588 1.004 0.786 0.979" stroke="hsl(120.0,100%,35%)" stroke-width="0.00045"></path>
<path d="M0.497 0.913 Q0.997 0.863 1.010 0.609" stroke="hsl(120.0,100%,35%)" stroke-width="0.00136"></path>
<path d="M0.497 0.913 Q0.320 0.860 0.179 0.935" stroke="hsl(120.0,100%,35%)" stroke-width="0.00317"></path>
<path d="M0.497 0.913 Q0.525 0.757 0.228 0.709" stroke="hsl(120.0,100%,35%)" stroke-width="0.00015"></path>
<path d="M0.497 0.913 Q1.137 0.936 1.323 0.629" stroke="hsl(120.0,100%,35%)" stroke-width="0.00015"></path>
<path d="M0.497 0.913 Q1.621 0.669 1.392 0.067" stroke="hsl(120.0,100%,35%)" stroke-width="0.00060"></path>
<path d="M0.179 0.935 Q0.356 0.988 0.497 0.913" stroke="hsl(120.0,100%,35%)" stroke-width="0.00378"></path>
<path d="M0.179 0.935 Q0.295 0.992 0.430 0.947" stroke="hsl(120.0,100%,35%)" stroke-width="0.00045"></path>
<path d="M0.179 0.935 Q0.835 0.712 0.544 0.343" stroke="hsl(120.0,100%,35%)" stroke-width="0.00030"></path>
<path d="M0.179 0.935 Q0.339 0.928 0.360 0.849" stroke="hsl(120.0,100%,35%)" stroke-width="0.00030"></path>
<path d="M0.179 0.935 Q0.929 0.889 1.002 0.513" stroke="hsl(120.0,100%,35%)" stroke-width="0.00015"></path>
<path d="M0.179 0.935 Q1.523 1.010 1.964 0.371" stroke="hsl(120.0,100%,35%)" stroke-width="0.00015"></path>
<path d="M0.179 0.935 Q0.711 0.585 0.145 0.249" stroke="hsl(120.0,100%,35%)" stroke-width="0.00015"></path>
<path d="M0.179 0.935 Q1.563 0.807 1.617 0.103" stroke="hsl(120.0,100%,35%)" stroke-width="0.00015"></path>
<path d="M0.179 0.935 Q0.625 0.864 0.584 0.631" stroke="hsl(120.0,100%,35%)" stroke-width="0.00015"></path>
<path d="M0.179 0.935 Q0.447 1.079 0.786 0.979" stroke="hsl(120.0,100%,35%)" stroke-width="0.00045"></path>
<path d="M0.179 0.935 Q0.244 0.845 0.082 0.793" stroke="hsl(120.0,100%,35%)" stroke-width="0.00091"></path>
<path d="M0.179 0.935 Q0.684 0.751 0.435 0.464" stroke="hsl(120.0,100%,35%)" stroke-width="0.00015"></path>
<path d="M0.435 0.464 Q0.291 0.374 0.084 0.425" stroke="hsl(120.0,100%,35%)" stroke-width="0.00741"></path>
<path d="M0.435 0.464 Q0.669 0.944 1.656 0.935" stroke="hsl(120.0,100%,35%)" stroke-width="0.00151"></path>
<path d="M0.435 0.464 Q1.314 0.520 1.617 0.103" stroke="hsl(120.0,100%,35%)" stroke-width="0.00045"></path>
<path d="M0.435 0.464 Q1.230 0.457 1.392 0.067" stroke="hsl(120.0,100%,35%)" stroke-width="0.00015"></path>
<path d="M0.435 0.464 Q-0.070 0.648 0.179 0.935" stroke="hsl(120.0,100%,35%)" stroke-width="0.00348"></path>
<path d="M0.435 0.464 Q0.921 0.920 1.917 0.783" stroke="hsl(120.0,100%,35%)" stroke-width="0.00030"></path>
<path d="M0.435 0.464 Q-0.005 0.558 0.082 0.793" stroke="hsl(120.0,100%,35%)" stroke-width="0.00030"></path>
<path d="M0.435 0.464 Q0.301 0.495 0.333 0.568" stroke="hsl(120.0,100%,35%)" stroke-width="0.00015"></path>
<path d="M0.435 0.464 Q0.481 0.704 0.960 0.734" stroke="hsl(120.0,100%,35%)" stroke-width="0.00045"></path>
<path d="M0.435 0.464 Q0.517 0.562 0.726 0.543" stroke="hsl(120.0,100%,35%)" stroke-width="0.00257"></path>
<path d="M0.435 0.464 Q0.585 0.425 0.544 0.343" stroke="hsl(120.0,100%,35%)" stroke-width="0.00015"></path>
<path d="M0.435 0.464 Q0.462 0.298 0.145 0.249" stroke="hsl(120.0,100%,35%)" stroke-width="0.00015"></path>
<path d="M0.333 0.568 Q0.408 0.650 0.584 0.631" stroke="hsl(0.0,100%,35%)" stroke-width="0.01240"></path>
<path d="M0.333 0.568 Q0.639 0.723 1.010 0.609" stroke="hsl(0.0,100%,35%)" stroke-width="0.00348"></path>
<path d="M0.333 0.568 Q0.618 0.498 0.544 0.343" stroke="hsl(0.0,100%,35%)" stroke-width="0.00197"></path>
<path d="M0.333 0.568 Q0.323 0.446 0.084 0.425" stroke="hsl(0.0,100%,35%)" stroke-width="0.00363"></path>
<path d="M0.333 0.568 Q0.712 0.674 1.002 0.513" stroke="hsl(0.0,100%,35%)" stroke-width="0.00242"></path>
<path d="M0.333 0.568 Q1.262 0.529 1.392 0.067" stroke="hsl(0.0,100%,35%)" stroke-width="0.00060"></path>
<path d="M0.333 0.568 Q0.494 0.371 0.145 0.249" stroke="hsl(0.0,100%,35%)" stroke-width="0.00015"></path>
<path d="M0.333 0.568 Q1.346 0.592 1.617 0.103" stroke="hsl(0.0,100%,35%)" stroke-width="0.00287"></path>
<path d="M0.333 0.568 Q0.122 0.714 0.360 0.849" stroke="hsl(0.0,100%,35%)" stroke-width="0.00015"></path>
<path d="M0.333 0.568 Q0.779 0.797 1.323 0.629" stroke="hsl(0.0,100%,35%)" stroke-width="0.00015"></path>
<path d="M0.333 0.568 Q0.513 0.777 0.960 0.734" stroke="hsl(0.0,100%,35%)" stroke-width="0.00045"></path>
<path d="M0.333 0.568 Q-0.038 0.721 0.179 0.935" stroke="hsl(0.0,100%,35%)" stroke-width="0.00015"></path>
<path d="M0.333 0.568 Q0.701 1.016 1.656 0.935" stroke="hsl(0.0,100%,35%)" stroke-width="0.00015"></path>
<path d="M0.333 0.568 Q0.230 0.864 0.786 0.979" stroke="hsl(0.0,100%,35%)" stroke-width="0.00015"></path>
<path d="M0.333 0.568 Q0.027 0.630 0.082 0.793" stroke="hsl(0.0,100%,35%)" stroke-width="0.00015"></path>
<path d="M0.333 0.568 Q1.306 0.795 1.964 0.371" stroke="hsl(0.0,100%,35%)" stroke-width="0.00015"></path>
<path d="M0.333 0.568 Q0.605 0.958 1.426 0.911" stroke="hsl(0.0,100%,35%)" stroke-width="0.00015"></path>
<path d="M1.656 0.935 Q1.123 0.536 0.228 0.709" stroke="hsl(120.0,100%,35%)" stroke-width="0.00015"></path>
<path d="M1.656 0.935 Q1.504 0.553 0.726 0.543" stroke="hsl(120.0,100%,35%)" stroke-width="0.00121"></path>
<path d="M1.656 0.935 Q1.908 0.911 1.917 0.783" stroke="hsl(120.0,100%,35%)" stroke-width="0.00575"></path>
<path d="M1.656 0.935 Q2.302 0.511 1.617 0.103" stroke="hsl(120.0,100%,35%)" stroke-width="0.00227"></path>
<path d="M1.656 0.935 Q1.744 0.810 1.521 0.740" stroke="hsl(120.0,100%,35%)" stroke-width="0.00015"></path>
<path d="M1.656 0.935 Q1.884 0.822 1.713 0.686" stroke="hsl(120.0,100%,35%)" stroke-width="0.00045"></path>
<path d="M1.656 0.935 Q1.278 0.365 0.084 0.425" stroke="hsl(120.0,100%,35%)" stroke-width="0.00227"></path>
<path d="M1.656 0.935 Q1.573 0.417 0.544 0.343" stroke="hsl(120.0,100%,35%)" stroke-width="0.00045"></path>
<path d="M1.656 0.935 Q1.667 0.593 1.002 0.513" stroke="hsl(120.0,100%,35%)" stroke-width="0.00091"></path>
<path d="M1.656 0.935 Q1.186 0.783 0.786 0.979" stroke="hsl(120.0,100%,35%)" stroke-width="0.00257"></path>
<path d="M1.656 0.935 Q1.734 0.715 1.323 0.629" stroke="hsl(120.0,100%,35%)" stroke-width="0.00091"></path>
<path d="M1.656 0.935 Q1.560 0.877 1.426 0.911" stroke="hsl(120.0,100%,35%)" stroke-width="0.00121"></path>
<path d="M1.656 0.935 Q1.739 0.856 1.604 0.799" stroke="hsl(120.0,100%,35%)" stroke-width="0.00015"></path>
<path d="M1.656 0.935 Q2.218 0.448 1.392 0.067" stroke="hsl(120.0,100%,35%)" stroke-width="0.00015"></path>
<path d="M1.656 0.935 Q1.557 0.764 1.202 0.775" stroke="hsl(120.0,100%,35%)" stroke-width="0.00181"></path>
<path d="M1.656 0.935 Q2.131 0.737 1.849 0.462" stroke="hsl(120.0,100%,35%)" stroke-width="0.00015"></path>
<path d="M1.656 0.935 Q1.423 0.455 0.435 0.464" stroke="hsl(120.0,100%,35%)" stroke-width="0.00076"></path>
<path d="M1.656 0.935 Q2.261 0.714 1.964 0.371" stroke="hsl(120.0,100%,35%)" stroke-width="0.00015"></path>
<path d="M0.084 0.425 Q0.473 0.652 1.002 0.513" stroke="hsl(240.0,100%,35%)" stroke-width="0.00620"></path>
<path d="M0.084 0.425 Q0.379 0.476 0.544 0.343" stroke="hsl(240.0,100%,35%)" stroke-width="0.02585"></path>
<path d="M0.084 0.425 Q-0.008 0.842 0.786 0.979" stroke="hsl(240.0,100%,35%)" stroke-width="0.00302"></path>
<path d="M0.084 0.425 Q-0.161 0.755 0.430 0.947" stroke="hsl(240.0,100%,35%)" stroke-width="0.00076"></path>
<path d="M0.084 0.425 Q0.936 0.796 1.849 0.462" stroke="hsl(240.0,100%,35%)" stroke-width="0.00106"></path>
<path d="M0.084 0.425 Q1.108 0.571 1.617 0.103" stroke="hsl(240.0,100%,35%)" stroke-width="0.01149"></path>
<path d="M0.084 0.425 Q1.067 0.774 1.964 0.371" stroke="hsl(240.0,100%,35%)" stroke-width="0.00030"></path>
<path d="M0.084 0.425 Q0.400 0.702 1.010 0.609" stroke="hsl(240.0,100%,35%)" stroke-width="0.00121"></path>
<path d="M0.084 0.425 Q0.169 0.628 0.584 0.631" stroke="hsl(240.0,100%,35%)" stroke-width="0.00121"></path>
<path d="M0.084 0.425 Q0.255 0.349 0.145 0.249" stroke="hsl(240.0,100%,35%)" stroke-width="0.00454"></path>
<path d="M0.084 0.425 Q0.310 0.612 0.726 0.543" stroke="hsl(240.0,100%,35%)" stroke-width="0.00121"></path>
<path d="M0.084 0.425 Q0.363 0.824 1.202 0.775" stroke="hsl(240.0,100%,35%)" stroke-width="0.00015"></path>
<path d="M0.084 0.425 Q-0.100 0.751 0.497 0.913" stroke="hsl(240.0,100%,35%)" stroke-width="0.00030"></path>
<path d="M0.084 0.425 Q1.024 0.508 1.392 0.067" stroke="hsl(240.0,100%,35%)" stroke-width="0.00076"></path>
<path d="M0.084 0.425 Q0.094 0.546 0.333 0.568" stroke="hsl(240.0,100%,35%)" stroke-width="0.00045"></path>
<path d="M0.084 0.425 Q-0.277 0.699 0.179 0.935" stroke="hsl(240.0,100%,35%)" stroke-width="0.00136"></path>
<path d="M0.084 0.425 Q0.462 0.994 1.656 0.935" stroke="hsl(240.0,100%,35%)" stroke-width="0.00287"></path>
<path d="M0.084 0.425 Q0.714 0.970 1.917 0.783" stroke="hsl(240.0,100%,35%)" stroke-width="0.00076"></path>
<path d="M0.084 0.425 Q0.540 0.775 1.323 0.629" stroke="hsl(240.0,100%,35%)" stroke-width="0.00015"></path>
<path d="M0.084 0.425 Q0.797 0.891 1.864 0.646" stroke="hsl(240.0,100%,35%)" stroke-width="0.00030"></path>
<path d="M0.084 0.425 Q0.228 0.514 0.435 0.464" stroke="hsl(240.0,100%,35%)" stroke-width="0.00605"></path>
<path d="M0.084 0.425 Q-0.071 0.596 0.228 0.709" stroke="hsl(240.0,100%,35%)" stroke-width="0.00015"></path>
<path d="M0.786 0.979 Q0.695 0.888 0.497 0.913" stroke="hsl(120.0,100%,35%)" stroke-width="0.00197"></path>
<path d="M0.786 0.979 Q0.634 0.892 0.430 0.947" stroke="hsl(120.0,100%,35%)" stroke-width="0.00212"></path>
<path d="M0.786 0.979 Q0.879 0.562 0.084 0.425" stroke="hsl(120.0,100%,35%)" stroke-width="0.00348"></path>
<path d="M0.786 0.979 Q0.518 0.836 0.179 0.935" stroke="hsl(120.0,100%,35%)" stroke-width="0.00272"></path>
<path d="M0.786 0.979 Q1.161 1.073 1.426 0.911" stroke="hsl(120.0,100%,35%)" stroke-width="0.00045"></path>
<path d="M0.786 0.979 Q0.923 0.934 0.864 0.857" stroke="hsl(120.0,100%,35%)" stroke-width="0.00242"></path>
<path d="M0.786 0.979 Q0.971 1.032 1.114 0.953" stroke="hsl(120.0,100%,35%)" stroke-width="0.00378"></path>
<path d="M0.786 0.979 Q1.268 0.789 1.002 0.513" stroke="hsl(120.0,100%,35%)" stroke-width="0.00030"></path>
<path d="M0.786 0.979 Q1.335 0.912 1.323 0.629" stroke="hsl(120.0,100%,35%)" stroke-width="0.00363"></path>
<path d="M0.786 0.979 Q1.902 0.708 1.617 0.103" stroke="hsl(120.0,100%,35%)" stroke-width="0.00136"></path>
<path d="M0.786 0.979 Q0.964 0.765 0.584 0.631" stroke="hsl(120.0,100%,35%)" stroke-width="0.00060"></path>
<path d="M0.786 0.979 Q1.862 0.911 1.964 0.371" stroke="hsl(120.0,100%,35%)" stroke-width="0.00060"></path>
<path d="M0.786 0.979 Q1.195 0.839 1.010 0.609" stroke="hsl(120.0,100%,35%)" stroke-width="0.00045"></path>
<path d="M0.786 0.979 Q1.174 0.613 0.544 0.343" stroke="hsl(120.0,100%,35%)" stroke-width="0.00091"></path>
<path d="M0.786 0.979 Q0.678 0.829 0.360 0.849" stroke="hsl(120.0,100%,35%)" stroke-width="0.00030"></path>
<path d="M0.786 0.979 Q1.509 1.107 1.917 0.783" stroke="hsl(120.0,100%,35%)" stroke-width="0.00030"></path>
<path d="M0.786 0.979 Q1.257 1.131 1.656 0.935" stroke="hsl(120.0,100%,35%)" stroke-width="0.00106"></path>
<path d="M0.786 0.979 Q1.819 0.644 1.392 0.067" stroke="hsl(120.0,100%,35%)" stroke-width="0.00015"></path>
<path d="M0.786 0.979 Q1.592 1.028 1.864 0.646" stroke="hsl(120.0,100%,35%)" stroke-width="0.00030"></path>
<path d="M0.786 0.979 Q1.484 1.018 1.713 0.686" stroke="hsl(120.0,100%,35%)" stroke-width="0.00015"></path>
<path d="M0.786 0.979 Q1.105 0.749 0.726 0.543" stroke="hsl(120.0,100%,35%)" stroke-width="0.00030"></path>
<path d="M0.786 0.979 Q1.731 0.933 1.849 0.462" stroke="hsl(120.0,100%,35%)" stroke-width="0.00015"></path>
<path d="M0.786 0.979 Q0.889 0.683 0.333 0.568" stroke="hsl(120.0,100%,35%)" stroke-width="0.00030"></path>
<path d="M0.786 0.979 Q1.158 0.960 1.202 0.775" stroke="hsl(120.0,100%,35%)" stroke-width="0.00030"></path>
<path d="M0.786 0.979 Q0.583 0.745 0.082 0.793" stroke="hsl(120.0,100%,35%)" stroke-width="0.00015"></path>
<path d="M0.786 0.979 Q0.723 0.732 0.228 0.709" stroke="hsl(120.0,100%,35%)" stroke-width="0.00015"></path>
<path d="M0.726 0.543 Q0.956 0.706 1.323 0.629" stroke="hsl(120.0,100%,35%)" stroke-width="0.00499"></path>
<path d="M0.726 0.543 Q0.500 0.356 0.084 0.425" stroke="hsl(120.0,100%,35%)" stroke-width="0.00680"></path>
<path d="M0.726 0.543 Q0.816 0.633 1.010 0.609" stroke="hsl(120.0,100%,35%)" stroke-width="0.00877"></path>
<path d="M0.726 0.543 Q1.523 0.502 1.617 0.103" stroke="hsl(120.0,100%,35%)" stroke-width="0.00091"></path>
<path d="M0.726 0.543 Q0.671 0.280 0.145 0.249" stroke="hsl(120.0,100%,35%)" stroke-width="0.00015"></path>
<path d="M0.726 0.543 Q0.878 0.925 1.656 0.935" stroke="hsl(120.0,100%,35%)" stroke-width="0.00227"></path>
<path d="M0.726 0.543 Q1.440 0.439 1.392 0.067" stroke="hsl(120.0,100%,35%)" stroke-width="0.00076"></path>
<path d="M0.726 0.543 Q0.795 0.407 0.544 0.343" stroke="hsl(120.0,100%,35%)" stroke-width="0.00045"></path>
<path d="M0.726 0.543 Q0.814 0.488 0.725 0.432" stroke="hsl(120.0,100%,35%)" stroke-width="0.00015"></path>
<path d="M0.726 0.543 Q0.407 0.773 0.786 0.979" stroke="hsl(120.0,100%,35%)" stroke-width="0.00015"></path>
<path d="M0.726 0.543 Q0.690 0.686 0.960 0.734" stroke="hsl(120.0,100%,35%)" stroke-width="0.00030"></path>
<path d="M0.726 0.543 Q0.779 0.755 1.202 0.775" stroke="hsl(120.0,100%,35%)" stroke-width="0.00060"></path>
<path d="M0.726 0.543 Q0.889 0.583 1.002 0.513" stroke="hsl(120.0,100%,35%)" stroke-width="0.00076"></path>
<path d="M1.323 0.629 Q1.720 0.651 1.849 0.462" stroke="hsl(120.0,100%,35%)" stroke-width="0.00045"></path>
<path d="M1.323 0.629 Q1.093 0.467 0.726 0.543" stroke="hsl(120.0,100%,35%)" stroke-width="0.00544"></path>
<path d="M1.323 0.629 Q1.256 0.507 1.002 0.513" stroke="hsl(120.0,100%,35%)" stroke-width="0.00030"></path>
<path d="M1.323 0.629 Q0.775 0.697 0.786 0.979" stroke="hsl(120.0,100%,35%)" stroke-width="0.00060"></path>
<path d="M1.323 0.629 Q1.146 0.678 1.202 0.775" stroke="hsl(120.0,100%,35%)" stroke-width="0.00106"></path>
<path d="M1.323 0.629 Q0.868 0.279 0.084 0.425" stroke="hsl(120.0,100%,35%)" stroke-width="0.00106"></path>
<path d="M1.323 0.629 Q1.162 0.331 0.544 0.343" stroke="hsl(120.0,100%,35%)" stroke-width="0.00060"></path>
<path d="M1.323 0.629 Q0.952 0.483 0.584 0.631" stroke="hsl(120.0,100%,35%)" stroke-width="0.00060"></path>
<path d="M1.323 0.629 Q0.712 0.450 0.228 0.709" stroke="hsl(120.0,100%,35%)" stroke-width="0.00045"></path>
<path d="M1.323 0.629 Q1.246 0.849 1.656 0.935" stroke="hsl(120.0,100%,35%)" stroke-width="0.00212"></path>
<path d="M1.323 0.629 Q1.183 0.556 1.010 0.609" stroke="hsl(120.0,100%,35%)" stroke-width="0.00045"></path>
<path d="M1.323 0.629 Q1.484 0.627 1.515 0.548" stroke="hsl(120.0,100%,35%)" stroke-width="0.00015"></path>
<path d="M1.323 0.629 Q1.497 0.825 1.917 0.783" stroke="hsl(120.0,100%,35%)" stroke-width="0.00106"></path>
<path d="M1.323 0.629 Q1.238 0.658 1.275 0.706" stroke="hsl(120.0,100%,35%)" stroke-width="0.00076"></path>
<path d="M1.323 0.629 Q1.012 0.369 0.435 0.464" stroke="hsl(120.0,100%,35%)" stroke-width="0.00121"></path>
<path d="M1.323 0.629 Q1.851 0.628 1.964 0.371" stroke="hsl(120.0,100%,35%)" stroke-width="0.00015"></path>
<path d="M1.323 0.629 Q0.878 0.400 0.333 0.568" stroke="hsl(120.0,100%,35%)" stroke-width="0.00015"></path>
<path d="M0.584 0.631 Q0.888 0.656 1.002 0.513" stroke="hsl(0.0,100%,35%)" stroke-width="0.00151"></path>
<path d="M0.584 0.631 Q1.523 0.574 1.617 0.103" stroke="hsl(0.0,100%,35%)" stroke-width="0.00650"></path>
<path d="M0.584 0.631 Q0.815 0.705 1.010 0.609" stroke="hsl(0.0,100%,35%)" stroke-width="0.00348"></path>
<path d="M0.584 0.631 Q0.510 0.549 0.333 0.568" stroke="hsl(0.0,100%,35%)" stroke-width="0.00892"></path>
<path d="M0.584 0.631 Q1.439 0.511 1.392 0.067" stroke="hsl(0.0,100%,35%)" stroke-width="0.00257"></path>
<path d="M0.584 0.631 Q0.955 0.778 1.323 0.629" stroke="hsl(0.0,100%,35%)" stroke-width="0.00030"></path>
<path d="M0.584 0.631 Q0.407 0.846 0.786 0.979" stroke="hsl(0.0,100%,35%)" stroke-width="0.00030"></path>
<path d="M0.584 0.631 Q0.671 0.352 0.145 0.249" stroke="hsl(0.0,100%,35%)" stroke-width="0.00015"></path>
<path d="M0.584 0.631 Q0.138 0.702 0.179 0.935" stroke="hsl(0.0,100%,35%)" stroke-width="0.00015"></path>
<path d="M0.584 0.631 Q1.352 0.800 1.849 0.462" stroke="hsl(0.0,100%,35%)" stroke-width="0.00015"></path>
<path d="M0.584 0.631 Q0.878 0.997 1.656 0.935" stroke="hsl(0.0,100%,35%)" stroke-width="0.00015"></path>
<path d="M0.584 0.631 Q1.483 0.777 1.964 0.371" stroke="hsl(0.0,100%,35%)" stroke-width="0.00015"></path>
<path d="M0.584 0.631 Q0.500 0.428 0.084 0.425" stroke="hsl(0.0,100%,35%)" stroke-width="0.00045"></path>
<path d="M0.377 0.811 Q0.540 0.559 0.084 0.425" stroke="hsl(120.0,100%,35%)" stroke-width="0.00015"></path>
<path d="M0.377 0.811 Q0.179 0.834 0.179 0.935" stroke="hsl(120.0,100%,35%)" stroke-width="0.00015"></path>
<path d="M0.377 0.811 Q0.835 0.611 0.544 0.343" stroke="hsl(120.0,100%,35%)" stroke-width="0.00045"></path>
<path d="M0.544 0.343 Q0.249 0.292 0.084 0.425" stroke="hsl(240.0,100%,35%)" stroke-width="0.10704"></path>
<path d="M0.544 0.343 Q0.420 0.217 0.145 0.249" stroke="hsl(240.0,100%,35%)" stroke-width="0.04158"></path>
<path d="M0.544 0.343 Q0.962 0.759 1.864 0.646" stroke="hsl(240.0,100%,35%)" stroke-width="0.00030"></path>
<path d="M0.544 0.343 Q0.705 0.642 1.323 0.629" stroke="hsl(240.0,100%,35%)" stroke-width="0.00060"></path>
<path d="M0.544 0.343 Q0.528 0.691 1.202 0.775" stroke="hsl(240.0,100%,35%)" stroke-width="0.00106"></path>
<path d="M0.544 0.343 Q0.475 0.480 0.726 0.543" stroke="hsl(240.0,100%,35%)" stroke-width="0.00106"></path>
<path d="M0.544 0.343 Q1.188 0.375 1.392 0.067" stroke="hsl(240.0,100%,35%)" stroke-width="0.00045"></path>
<path d="M0.544 0.343 Q0.334 0.496 0.584 0.631" stroke="hsl(240.0,100%,35%)" stroke-width="0.00212"></path>
<path d="M0.544 0.343 Q0.259 0.413 0.333 0.568" stroke="hsl(240.0,100%,35%)" stroke-width="0.00166"></path>
<path d="M0.544 0.343 Q0.048 0.559 0.360 0.849" stroke="hsl(240.0,100%,35%)" stroke-width="0.00015"></path>
<path d="M0.544 0.343 Q0.156 0.710 0.786 0.979" stroke="hsl(240.0,100%,35%)" stroke-width="0.00091"></path>
<path d="M0.544 0.343 Q0.879 0.838 1.917 0.783" stroke="hsl(240.0,100%,35%)" stroke-width="0.00030"></path>
<path d="M0.544 0.343 Q1.232 0.641 1.964 0.371" stroke="hsl(240.0,100%,35%)" stroke-width="0.00060"></path>
<path d="M0.544 0.343 Q0.637 0.520 1.002 0.513" stroke="hsl(240.0,100%,35%)" stroke-width="0.00166"></path>
<path d="M0.544 0.343 Q1.272 0.438 1.617 0.103" stroke="hsl(240.0,100%,35%)" stroke-width="0.00469"></path>
<path d="M0.544 0.343 Q0.065 0.619 0.497 0.913" stroke="hsl(240.0,100%,35%)" stroke-width="0.00045"></path>
<path d="M0.544 0.343 Q0.627 0.862 1.656 0.935" stroke="hsl(240.0,100%,35%)" stroke-width="0.00197"></path>
<path d="M0.544 0.343 Q0.565 0.569 1.010 0.609" stroke="hsl(240.0,100%,35%)" stroke-width="0.00136"></path>
<path d="M0.544 0.343 Q0.854 0.749 1.713 0.686" stroke="hsl(240.0,100%,35%)" stroke-width="0.00015"></path>
<path d="M0.544 0.343 Q1.101 0.664 1.849 0.462" stroke="hsl(240.0,100%,35%)" stroke-width="0.00045"></path>
<path d="M0.544 0.343 Q0.004 0.623 0.430 0.947" stroke="hsl(240.0,100%,35%)" stroke-width="0.00015"></path>
<path d="M0.544 0.343 Q0.393 0.382 0.435 0.464" stroke="hsl(240.0,100%,35%)" stroke-width="0.00076"></path>
<path d="M0.544 0.343 Q0.439 0.622 0.960 0.734" stroke="hsl(240.0,100%,35%)" stroke-width="0.00015"></path>
<path d="M0.430 0.947 Q0.491 0.943 0.497 0.913" stroke="hsl(120.0,100%,35%)" stroke-width="0.00060"></path>
<path d="M0.430 0.947 Q0.474 0.884 0.360 0.849" stroke="hsl(120.0,100%,35%)" stroke-width="0.00015"></path>
<path d="M0.430 0.947 Q1.131 0.967 1.323 0.629" stroke="hsl(120.0,100%,35%)" stroke-width="0.00060"></path>
<path d="M0.430 0.947 Q0.314 0.891 0.179 0.935" stroke="hsl(120.0,100%,35%)" stroke-width="0.00227"></path>
<path d="M0.430 0.947 Q0.760 0.820 0.584 0.631" stroke="hsl(120.0,100%,35%)" stroke-width="0.00015"></path>
<path d="M0.430 0.947 Q0.675 0.617 0.084 0.425" stroke="hsl(120.0,100%,35%)" stroke-width="0.00015"></path>
<path d="M0.430 0.947 Q0.970 0.668 0.544 0.343" stroke="hsl(120.0,100%,35%)" stroke-width="0.00030"></path>
<path d="M0.430 0.947 Q1.699 0.763 1.617 0.103" stroke="hsl(120.0,100%,35%)" stroke-width="0.00015"></path>
<path d="M0.430 0.947 Q0.820 0.707 0.435 0.464" stroke="hsl(120.0,100%,35%)" stroke-width="0.00030"></path>
<path d="M0.430 0.947 Q0.866 0.947 0.960 0.734" stroke="hsl(120.0,100%,35%)" stroke-width="0.00015"></path>
<path d="M0.430 0.947 Q1.615 0.700 1.392 0.067" stroke="hsl(120.0,100%,35%)" stroke-width="0.00015"></path>
<path d="M0.430 0.947 Q0.520 0.788 0.228 0.709" stroke="hsl(120.0,100%,35%)" stroke-width="0.00045"></path>
<path d="M0.430 0.947 Q0.583 1.035 0.786 0.979" stroke="hsl(120.0,100%,35%)" stroke-width="0.00015"></path>
<path d="M0.430 0.947 Q1.305 1.163 1.917 0.783" stroke="hsl(120.0,100%,35%)" stroke-width="0.00030"></path>
<path d="M0.360 0.849 Q0.654 1.051 1.114 0.953" stroke="hsl(120.0,100%,35%)" stroke-width="0.00030"></path>
<path d="M0.360 0.849 Q0.316 0.912 0.430 0.947" stroke="hsl(120.0,100%,35%)" stroke-width="0.00030"></path>
<path d="M0.360 0.849 Q0.377 0.908 0.497 0.913" stroke="hsl(120.0,100%,35%)" stroke-width="0.00015"></path>
<path d="M0.360 0.849 Q0.200 0.856 0.179 0.935" stroke="hsl(120.0,100%,35%)" stroke-width="0.00015"></path>
<path d="M1.002 0.513 Q0.699 0.488 0.584 0.631" stroke="hsl(0.0,100%,35%)" stroke-width="0.00227"></path>
<path d="M1.002 0.513 Q0.930 0.562 1.010 0.609" stroke="hsl(0.0,100%,35%)" stroke-width="0.00952"></path>
<path d="M1.002 0.513 Q0.521 0.703 0.786 0.979" stroke="hsl(0.0,100%,35%)" stroke-width="0.00015"></path>
<path d="M1.002 0.513 Q0.624 0.406 0.333 0.568" stroke="hsl(0.0,100%,35%)" stroke-width="0.00317"></path>
<path d="M1.002 0.513 Q0.614 0.285 0.084 0.425" stroke="hsl(0.0,100%,35%)" stroke-width="0.00136"></path>
<path d="M1.002 0.513 Q0.840 0.473 0.726 0.543" stroke="hsl(0.0,100%,35%)" stroke-width="0.00060"></path>
<path d="M1.002 0.513 Q1.553 0.368 1.392 0.067" stroke="hsl(0.0,100%,35%)" stroke-width="0.00212"></path>
<path d="M1.002 0.513 Q1.637 0.431 1.617 0.103" stroke="hsl(0.0,100%,35%)" stroke-width="0.00302"></path>
<path d="M1.002 0.513 Q0.992 0.855 1.656 0.935" stroke="hsl(0.0,100%,35%)" stroke-width="0.00257"></path>
<path d="M1.002 0.513 Q1.244 0.831 1.917 0.783" stroke="hsl(0.0,100%,35%)" stroke-width="0.00091"></path>
<path d="M1.002 0.513 Q1.466 0.657 1.849 0.462" stroke="hsl(0.0,100%,35%)" stroke-width="0.00030"></path>
<path d="M1.002 0.513 Q0.908 0.336 0.544 0.343" stroke="hsl(0.0,100%,35%)" stroke-width="0.00015"></path>
<path d="M1.002 0.513 Q1.166 0.523 1.222 0.445" stroke="hsl(0.0,100%,35%)" stroke-width="0.00015"></path>
<path d="M1.002 0.513 Q1.219 0.742 1.713 0.686" stroke="hsl(0.0,100%,35%)" stroke-width="0.00015"></path>
<path d="M1.964 0.371 Q1.833 0.394 1.849 0.462" stroke="hsl(120.0,100%,35%)" stroke-width="0.00166"></path>
<path d="M1.964 0.371 Q0.888 0.440 0.786 0.979" stroke="hsl(120.0,100%,35%)" stroke-width="0.00060"></path>
<path d="M1.964 0.371 Q1.066 0.225 0.584 0.631" stroke="hsl(120.0,100%,35%)" stroke-width="0.00030"></path>
<path d="M1.964 0.371 Q0.620 0.296 0.179 0.935" stroke="hsl(120.0,100%,35%)" stroke-width="0.00015"></path>
<path d="M1.964 0.371 Q0.797 0.348 0.497 0.913" stroke="hsl(120.0,100%,35%)" stroke-width="0.00015"></path>
<path d="M1.964 0.371 Q1.816 0.306 1.658 0.365" stroke="hsl(120.0,100%,35%)" stroke-width="0.00030"></path>
<path d="M1.964 0.371 Q0.736 0.352 0.430 0.947" stroke="hsl(120.0,100%,35%)" stroke-width="0.00015"></path>
<path d="M1.964 0.371 Q0.981 0.022 0.084 0.425" stroke="hsl(120.0,100%,35%)" stroke-width="0.00015"></path>
<path d="M0.145 0.249 Q0.269 0.376 0.544 0.343" stroke="hsl(240.0,100%,35%)" stroke-width="0.02978"></path>
<path d="M0.145 0.249 Q-0.026 0.325 0.084 0.425" stroke="hsl(240.0,100%,35%)" stroke-width="0.00983"></path>
<path d="M0.145 0.249 Q0.998 0.471 1.617 0.103" stroke="hsl(240.0,100%,35%)" stroke-width="0.00030"></path>
<path d="M0.082 0.793 Q0.285 1.027 0.786 0.979" stroke="hsl(120.0,100%,35%)" stroke-width="0.00106"></path>
<path d="M0.082 0.793 Q0.016 0.884 0.179 0.935" stroke="hsl(120.0,100%,35%)" stroke-width="0.00197"></path>
<path d="M0.082 0.793 Q0.470 1.079 1.114 0.953" stroke="hsl(120.0,100%,35%)" stroke-width="0.00015"></path>
<path d="M0.082 0.793 Q0.522 0.699 0.435 0.464" stroke="hsl(120.0,100%,35%)" stroke-width="0.00015"></path>
<path d="M0.082 0.793 Q0.693 0.886 1.010 0.609" stroke="hsl(120.0,100%,35%)" stroke-width="0.00015"></path>
<path d="M1.849 0.462 Q1.980 0.440 1.964 0.371" stroke="hsl(120.0,100%,35%)" stroke-width="0.00015"></path>
<path d="M1.849 0.462 Q1.082 0.294 0.584 0.631" stroke="hsl(120.0,100%,35%)" stroke-width="0.00030"></path>
<path d="M1.849 0.462 Q0.997 0.091 0.084 0.425" stroke="hsl(120.0,100%,35%)" stroke-width="0.00045"></path>
<path d="M1.849 0.462 Q1.385 0.318 1.002 0.513" stroke="hsl(120.0,100%,35%)" stroke-width="0.00015"></path>
<path d="M1.849 0.462 Q0.841 0.262 0.228 0.709" stroke="hsl(120.0,100%,35%)" stroke-width="0.00015"></path>
<path d="M1.849 0.462 Q2.020 0.237 1.617 0.103" stroke="hsl(120.0,100%,35%)" stroke-width="0.00015"></path>
<path d="M1.849 0.462 Q1.141 0.180 0.435 0.464" stroke="hsl(120.0,100%,35%)" stroke-width="0.00015"></path>
<path d="M1.202 0.775 Q0.924 0.376 0.084 0.425" stroke="hsl(120.0,100%,35%)" stroke-width="0.00030"></path>
<path d="M1.202 0.775 Q1.218 0.428 0.544 0.343" stroke="hsl(120.0,100%,35%)" stroke-width="0.00121"></path>
<path d="M1.202 0.775 Q1.380 0.727 1.323 0.629" stroke="hsl(120.0,100%,35%)" stroke-width="0.00499"></path>
<path d="M1.202 0.775 Q1.637 0.843 1.864 0.646" stroke="hsl(120.0,100%,35%)" stroke-width="0.00015"></path>
<path d="M1.202 0.775 Q1.302 0.946 1.656 0.935" stroke="hsl(120.0,100%,35%)" stroke-width="0.00106"></path>
<path d="M1.202 0.775 Q0.831 0.794 0.786 0.979" stroke="hsl(120.0,100%,35%)" stroke-width="0.00045"></path>
<path d="M1.202 0.775 Q1.553 0.922 1.917 0.783" stroke="hsl(120.0,100%,35%)" stroke-width="0.00030"></path>
<path d="M1.202 0.775 Q1.150 0.564 0.726 0.543" stroke="hsl(120.0,100%,35%)" stroke-width="0.00015"></path>
<path d="M1.917 0.783 Q1.287 0.237 0.084 0.425" stroke="hsl(120.0,100%,35%)" stroke-width="0.00166"></path>
<path d="M1.917 0.783 Q1.676 0.465 1.002 0.513" stroke="hsl(120.0,100%,35%)" stroke-width="0.00015"></path>
<path d="M1.917 0.783 Q2.001 0.704 1.864 0.646" stroke="hsl(120.0,100%,35%)" stroke-width="0.00590"></path>
<path d="M1.917 0.783 Q1.893 0.694 1.713 0.686" stroke="hsl(120.0,100%,35%)" stroke-width="0.00408"></path>
<path d="M1.917 0.783 Q2.311 0.383 1.617 0.103" stroke="hsl(120.0,100%,35%)" stroke-width="0.00045"></path>
<path d="M1.917 0.783 Q1.743 0.588 1.323 0.629" stroke="hsl(120.0,100%,35%)" stroke-width="0.00136"></path>
<path d="M1.917 0.783 Q1.665 0.807 1.656 0.935" stroke="hsl(120.0,100%,35%)" stroke-width="0.00212"></path>
<path d="M1.917 0.783 Q1.582 0.289 0.544 0.343" stroke="hsl(120.0,100%,35%)" stroke-width="0.00015"></path>
<path d="M1.917 0.783 Q1.195 0.655 0.786 0.979" stroke="hsl(120.0,100%,35%)" stroke-width="0.00045"></path>
<path d="M1.917 0.783 Q2.140 0.609 1.849 0.462" stroke="hsl(120.0,100%,35%)" stroke-width="0.00076"></path>
<path d="M1.917 0.783 Q1.431 0.327 0.435 0.464" stroke="hsl(120.0,100%,35%)" stroke-width="0.00060"></path>
<path d="M1.864 0.646 Q1.781 0.725 1.917 0.783" stroke="hsl(120.0,100%,35%)" stroke-width="0.00726"></path>
<path d="M1.864 0.646 Q1.529 0.749 1.656 0.935" stroke="hsl(120.0,100%,35%)" stroke-width="0.00015"></path>
<path d="M1.864 0.646 Q1.825 0.590 1.707 0.596" stroke="hsl(120.0,100%,35%)" stroke-width="0.00015"></path>
<path d="M1.864 0.646 Q1.059 0.597 0.786 0.979" stroke="hsl(120.0,100%,35%)" stroke-width="0.00015"></path>
<path d="M1.864 0.646 Q1.902 0.551 1.726 0.512" stroke="hsl(120.0,100%,35%)" stroke-width="0.00015"></path>
<path d="M0.228 0.709 Q0.022 0.812 0.179 0.935" stroke="hsl(120.0,100%,35%)" stroke-width="0.00045"></path>
<path d="M0.228 0.709 Q0.138 0.869 0.430 0.947" stroke="hsl(120.0,100%,35%)" stroke-width="0.00045"></path>
<path d="M0.864 0.857 Q1.844 0.631 1.617 0.103" stroke="hsl(120.0,100%,35%)" stroke-width="0.00045"></path>
<path d="M0.864 0.857 Q1.803 0.834 1.964 0.371" stroke="hsl(120.0,100%,35%)" stroke-width="0.00045"></path>
<path d="M0.864 0.857 Q0.728 0.903 0.786 0.979" stroke="hsl(120.0,100%,35%)" stroke-width="0.00060"></path>
<path d="M0.864 0.857 Q0.965 0.575 0.435 0.464" stroke="hsl(120.0,100%,35%)" stroke-width="0.00015"></path>
<path d="M0.864 0.857 Q1.760 0.568 1.392 0.067" stroke="hsl(120.0,100%,35%)" stroke-width="0.00030"></path>
<path d="M0.864 0.857 Q0.575 0.816 0.430 0.947" stroke="hsl(120.0,100%,35%)" stroke-width="0.00015"></path>
<path d="M0.864 0.857 Q1.673 0.857 1.849 0.462" stroke="hsl(120.0,100%,35%)" stroke-width="0.00015"></path>
<path d="M0.864 0.857 Q0.908 0.900 1.001 0.889" stroke="hsl(120.0,100%,35%)" stroke-width="0.00015"></path>
<path d="M1.275 0.706 Q1.360 0.677 1.323 0.629" stroke="hsl(120.0,100%,35%)" stroke-width="0.00454"></path>
<path d="M1.275 0.706 Q1.757 0.699 1.849 0.462" stroke="hsl(120.0,100%,35%)" stroke-width="0.00015"></path>
<path d="M1.275 0.706 Q1.130 0.515 0.726 0.543" stroke="hsl(120.0,100%,35%)" stroke-width="0.00015"></path>
<path d="M1.275 0.706 Q1.534 0.873 1.917 0.783" stroke="hsl(120.0,100%,35%)" stroke-width="0.00030"></path>
<path d="M1.713 0.686 Q1.486 0.799 1.656 0.935" stroke="hsl(120.0,100%,35%)" stroke-width="0.00060"></path>
<path d="M1.713 0.686 Q1.737 0.775 1.917 0.783" stroke="hsl(120.0,100%,35%)" stroke-width="0.00559"></path>
<path d="M1.713 0.686 Q2.047 0.313 1.392 0.067" stroke="hsl(120.0,100%,35%)" stroke-width="0.00045"></path>
<path d="M1.713 0.686 Q1.015 0.647 0.786 0.979" stroke="hsl(120.0,100%,35%)" stroke-width="0.00030"></path>
<path d="M0.691 0.762 Q0.631 0.798 0.687 0.835" stroke="hsl(0.0,100%,35%)" stroke-width="0.00060"></path>
<path d="M0.691 0.762 Q0.657 0.472 0.084 0.425" stroke="hsl(0.0,100%,35%)" stroke-width="0.00030"></path>
<path d="M0.691 0.762 Q0.296 0.746 0.179 0.935" stroke="hsl(0.0,100%,35%)" stroke-width="0.00045"></path>
<path d="M0.687 0.835 Q0.827 0.771 0.734 0.689" stroke="hsl(0.0,100%,35%)" stroke-width="0.00015"></path>
<path d="M0.687 0.835 Q0.748 0.799 0.691 0.762" stroke="hsl(0.0,100%,35%)" stroke-width="0.00045"></path>
<path d="M0.687 0.835 Q0.799 0.712 0.584 0.631" stroke="hsl(0.0,100%,35%)" stroke-width="0.00045"></path>
<path d="M0.687 0.835 Q0.858 0.599 0.435 0.464" stroke="hsl(0.0,100%,35%)" stroke-width="0.00015"></path>
<path d="M1.114 0.953 Q0.660 0.757 0.179 0.935" stroke="hsl(120.0,100%,35%)" stroke-width="0.00015"></path>
<path d="M1.114 0.953 Q1.022 0.483 0.084 0.425" stroke="hsl(120.0,100%,35%)" stroke-width="0.00015"></path>
<path d="M1.114 0.953 Q1.874 0.855 1.849 0.462" stroke="hsl(120.0,100%,35%)" stroke-width="0.00015"></path>
<path d="M1.114 0.953 Q0.776 0.813 0.430 0.947" stroke="hsl(120.0,100%,35%)" stroke-width="0.00030"></path>
<path d="M1.114 0.953 Q1.477 0.833 1.323 0.629" stroke="hsl(120.0,100%,35%)" stroke-width="0.00015"></path>
<path d="M1.114 0.953 Q0.929 0.901 0.786 0.979" stroke="hsl(120.0,100%,35%)" stroke-width="0.00015"></path>
<path d="M1.411 0.272 Q0.770 0.173 0.435 0.464" stroke="hsl(120.0,100%,35%)" stroke-width="0.00015"></path>
<path d="M1.411 0.272 Q1.081 0.433 1.323 0.629" stroke="hsl(120.0,100%,35%)" stroke-width="0.00030"></path>
<path d="M1.411 0.272 Q1.309 0.330 1.401 0.393" stroke="hsl(120.0,100%,35%)" stroke-width="0.00015"></path>
<path d="M1.108 0.889 Q0.875 0.870 0.786 0.979" stroke="hsl(120.0,100%,35%)" stroke-width="0.00015"></path>
<path d="M1.108 0.889 Q1.423 0.802 1.323 0.629" stroke="hsl(120.0,100%,35%)" stroke-width="0.00015"></path>
<path d="M1.108 0.889 Q1.346 1.022 1.656 0.935" stroke="hsl(120.0,100%,35%)" stroke-width="0.00015"></path>
<path d="M1.384 0.695 Q1.802 0.672 1.849 0.462" stroke="hsl(120.0,100%,35%)" stroke-width="0.00015"></path>
<path d="M1.384 0.695 Q1.406 0.650 1.323 0.629" stroke="hsl(120.0,100%,35%)" stroke-width="0.00030"></path>
<path d="M1.384 0.695 Q1.176 0.487 0.726 0.543" stroke="hsl(120.0,100%,35%)" stroke-width="0.00015"></path>
</g>
<text x="0.960" y="0.722" font-size="0.025745" fill="hsl(0.0,100%,20%)">adlai</text>
<text x="1.617" y="0.077" font-size="0.052600" fill="hsl(0.0,100%,20%)">bsalomon</text>
<text x="1.010" y="0.583" font-size="0.050695" fill="hsl(0.0,100%,20%)">robertphillips</text>
<text x="1.392" y="0.045" font-size="0.044974" fill="hsl(0.0,100%,20%)">csmartdalton</text>
<text x="0.497" y="0.902" font-size="0.020782" fill="hsl(120.0,100%,20%)">rmistry</text>
<text x="0.179" y="0.922" font-size="0.026883" fill="hsl(120.0,100%,20%)">borenet</text>
<text x="0.435" y="0.450" font-size="0.028504" fill="hsl(120.0,100%,20%)">mtklein</text>
<text x="0.333" y="0.548" font-size="0.039453" fill="hsl(0.0,100%,20%)">jvanverth</text>
<text x="1.656" y="0.918" font-size="0.034417" fill="hsl(120.0,100%,20%)">reed</text>
<text x="0.084" y="0.385" font-size="0.080170" fill="hsl(240.0,100%,20%)">brianosman</text>
<text x="0.786" y="0.962" font-size="0.034972" fill="hsl(120.0,100%,20%)">kjlubick</text>
<text x="0.726" y="0.526" font-size="0.034230" fill="hsl(120.0,100%,20%)">herb</text>
<text x="1.323" y="0.612" font-size="0.034042" fill="hsl(120.0,100%,20%)">bungeman</text>
<text x="0.584" y="0.610" font-size="0.043327" fill="hsl(0.0,100%,20%)">egdaniel</text>
<text x="0.377" y="0.809" font-size="0.004624" fill="hsl(120.0,100%,20%)">bajones</text>
<text x="0.544" y="0.303" font-size="0.081780" fill="hsl(240.0,100%,20%)">johnstiles</text>
<text x="0.430" y="0.938" font-size="0.018611" fill="hsl(120.0,100%,20%)">jcgregorio</text>
<text x="0.360" y="0.845" font-size="0.007456" fill="hsl(120.0,100%,20%)">erikrose</text>
<text x="1.002" y="0.490" font-size="0.045775" fill="hsl(0.0,100%,20%)">michaelludwig</text>
<text x="1.964" y="0.364" font-size="0.013560" fill="hsl(120.0,100%,20%)">scroggo</text>
<text x="0.145" y="0.224" font-size="0.049673" fill="hsl(240.0,100%,20%)">ethannicholas</text>
<text x="0.082" y="0.787" font-size="0.012058" fill="hsl(120.0,100%,20%)">westont</text>
<text x="1.849" y="0.455" font-size="0.014768" fill="hsl(120.0,100%,20%)">djsollen</text>
<text x="1.202" y="0.765" font-size="0.019727" fill="hsl(120.0,100%,20%)">jlavrova</text>
<text x="1.917" y="0.766" font-size="0.034230" fill="hsl(120.0,100%,20%)">fmalita</text>
<text x="1.864" y="0.635" font-size="0.020575" fill="hsl(120.0,100%,20%)">jmbetancourt</text>
<text x="0.228" y="0.704" font-size="0.009014" fill="hsl(120.0,100%,20%)">hcm</text>
<text x="1.707" y="0.595" font-size="0.002924" fill="hsl(120.0,100%,20%)">stani</text>
<text x="0.864" y="0.851" font-size="0.012058" fill="hsl(120.0,100%,20%)">nifong</text>
<text x="1.515" y="0.547" font-size="0.002068" fill="hsl(120.0,100%,20%)">grieger</text>
<text x="1.275" y="0.699" font-size="0.012914" fill="hsl(120.0,100%,20%)">drott</text>
<text x="1.198" y="0.165" font-size="0.002924" fill="hsl(0.0,100%,20%)">junov</text>
<text x="1.713" y="0.676" font-size="0.019399" fill="hsl(120.0,100%,20%)">tdenniston</text>
<text x="0.691" y="0.758" font-size="0.007163" fill="hsl(0.0,100%,20%)">cwallez</text>
<text x="0.687" y="0.831" font-size="0.007163" fill="hsl(0.0,100%,20%)">senorblanco</text>
<text x="0.897" y="-2.342" font-size="0.004624" fill="hsl(0.0,100%,20%)">emaxx</text>
<text x="1.114" y="0.947" font-size="0.012234" fill="hsl(120.0,100%,20%)">lovisolo</text>
<text x="0.725" y="0.431" font-size="0.002068" fill="hsl(120.0,100%,20%)">jiulongw</text>
<text x="1.411" y="0.270" font-size="0.004136" fill="hsl(120.0,100%,20%)">james</text>
<text x="1.401" y="0.392" font-size="0.002068" fill="hsl(120.0,100%,20%)">cbracken</text>
<text x="1.726" y="0.511" font-size="0.002068" fill="hsl(120.0,100%,20%)">fuego</text>
<text x="1.426" y="0.907" font-size="0.007163" fill="hsl(120.0,100%,20%)">yjbanov</text>
<text x="1.222" y="0.444" font-size="0.002068" fill="hsl(0.0,100%,20%)">fs</text>
<text x="1.001" y="0.888" font-size="0.002068" fill="hsl(120.0,100%,20%)">alecmouri</text>
<text x="1.108" y="0.887" font-size="0.003582" fill="hsl(120.0,100%,20%)">pkasting</text>
<text x="1.521" y="0.739" font-size="0.002068" fill="hsl(120.0,100%,20%)">whesse</text>
<text x="1.604" y="0.798" font-size="0.002068" fill="hsl(120.0,100%,20%)">mdebbar</text>
<text x="1.658" y="0.363" font-size="0.002924" fill="hsl(120.0,100%,20%)">nigeltao</text>
<text x="0.734" y="0.688" font-size="0.002068" fill="hsl(0.0,100%,20%)">enga</text>
<text x="1.384" y="0.693" font-size="0.004136" fill="hsl(120.0,100%,20%)">thestig</text>
</svg>
