<svg width="4000" height="2000" viewBox="-0.025 -0.025 2.05 1.05" xmlns="http://www.w3.org/2000/svg">
  <style>
    path {
      fill: none;
      stroke-linecap: round;
      stroke-opacity: 0.4;
    }

    text {
      text-anchor: middle;
      alignment-baseline: hanging;
    }
  </style>
  <g opacity="0.4">
<path d="M1.571 0.945 Q1.382 0.918 1.289 1.005" stroke="hsl(0.0,100%,35%)" stroke-width="0.00371"></path>
<path d="M1.571 0.945 Q1.985 0.763 1.722 0.521" stroke="hsl(0.0,100%,35%)" stroke-width="0.00791"></path>
<path d="M1.571 0.945 Q1.006 0.596 0.201 0.795" stroke="hsl(0.0,100%,35%)" stroke-width="0.00032"></path>
<path d="M1.571 0.945 Q1.233 0.575 0.439 0.659" stroke="hsl(0.0,100%,35%)" stroke-width="0.00065"></path>
<path d="M1.571 0.945 Q1.146 0.514 0.212 0.627" stroke="hsl(0.0,100%,35%)" stroke-width="0.00048"></path>
<path d="M1.571 0.945 Q1.021 0.732 0.486 0.954" stroke="hsl(0.0,100%,35%)" stroke-width="0.00565"></path>
<path d="M1.571 0.945 Q1.871 0.469 1.009 0.218" stroke="hsl(0.0,100%,35%)" stroke-width="0.00129"></path>
<path d="M1.571 0.945 Q1.282 0.795 0.928 0.903" stroke="hsl(0.0,100%,35%)" stroke-width="0.00161"></path>
<path d="M1.571 0.945 Q1.677 0.348 0.536 0.165" stroke="hsl(0.0,100%,35%)" stroke-width="0.00016"></path>
<path d="M1.571 0.945 Q1.618 0.845 1.433 0.800" stroke="hsl(0.0,100%,35%)" stroke-width="0.00016"></path>
<path d="M1.289 1.005 Q1.189 0.882 0.928 0.903" stroke="hsl(0.0,100%,35%)" stroke-width="0.06405"></path>
<path d="M1.289 1.005 Q1.525 0.931 1.433 0.800" stroke="hsl(0.0,100%,35%)" stroke-width="0.01033"></path>
<path d="M1.289 1.005 Q2.133 0.663 1.650 0.176" stroke="hsl(0.0,100%,35%)" stroke-width="0.00290"></path>
<path d="M1.289 1.005 Q1.478 1.031 1.571 0.945" stroke="hsl(0.0,100%,35%)" stroke-width="0.02904"></path>
<path d="M1.289 1.005 Q1.879 0.653 1.322 0.288" stroke="hsl(0.0,100%,35%)" stroke-width="0.00129"></path>
<path d="M1.289 1.005 Q1.892 0.850 1.722 0.521" stroke="hsl(0.0,100%,35%)" stroke-width="0.01274"></path>
<path d="M1.289 1.005 Q1.212 0.464 0.139 0.383" stroke="hsl(0.0,100%,35%)" stroke-width="0.00081"></path>
<path d="M1.289 1.005 Q1.140 0.662 0.439 0.659" stroke="hsl(0.0,100%,35%)" stroke-width="0.00500"></path>
<path d="M1.289 1.005 Q0.928 0.819 0.486 0.954" stroke="hsl(0.0,100%,35%)" stroke-width="0.00597"></path>
<path d="M1.289 1.005 Q1.053 0.600 0.212 0.627" stroke="hsl(0.0,100%,35%)" stroke-width="0.00484"></path>
<path d="M1.289 1.005 Q0.912 0.683 0.201 0.795" stroke="hsl(0.0,100%,35%)" stroke-width="0.00807"></path>
<path d="M1.289 1.005 Q1.299 0.405 0.131 0.268" stroke="hsl(0.0,100%,35%)" stroke-width="0.00048"></path>
<path d="M1.289 1.005 Q1.457 0.712 0.923 0.566" stroke="hsl(0.0,100%,35%)" stroke-width="0.00113"></path>
<path d="M1.289 1.005 Q1.707 0.450 0.715 0.124" stroke="hsl(0.0,100%,35%)" stroke-width="0.00032"></path>
<path d="M1.289 1.005 Q1.778 0.556 1.009 0.218" stroke="hsl(0.0,100%,35%)" stroke-width="0.01065"></path>
<path d="M1.289 1.005 Q1.679 0.604 0.983 0.326" stroke="hsl(0.0,100%,35%)" stroke-width="0.00032"></path>
<path d="M1.289 1.005 Q1.488 0.633 0.806 0.454" stroke="hsl(0.0,100%,35%)" stroke-width="0.00016"></path>
<path d="M1.289 1.005 Q1.596 1.045 1.741 0.904" stroke="hsl(0.0,100%,35%)" stroke-width="0.00081"></path>
<path d="M1.289 1.005 Q1.614 0.516 0.732 0.250" stroke="hsl(0.0,100%,35%)" stroke-width="0.00145"></path>
<path d="M1.289 1.005 Q1.605 0.558 0.803 0.306" stroke="hsl(0.0,100%,35%)" stroke-width="0.00048"></path>
<path d="M1.289 1.005 Q1.584 0.435 0.536 0.165" stroke="hsl(0.0,100%,35%)" stroke-width="0.00016"></path>
<path d="M1.289 1.005 Q1.806 0.640 1.207 0.307" stroke="hsl(0.0,100%,35%)" stroke-width="0.00048"></path>
<path d="M1.289 1.005 Q1.253 0.923 1.085 0.922" stroke="hsl(0.0,100%,35%)" stroke-width="0.00016"></path>
<path d="M1.722 0.521 Q0.970 0.334 0.439 0.659" stroke="hsl(180.0,100%,35%)" stroke-width="0.00129"></path>
<path d="M1.722 0.521 Q0.758 0.491 0.486 0.954" stroke="hsl(180.0,100%,35%)" stroke-width="0.00387"></path>
<path d="M1.722 0.521 Q1.962 0.335 1.650 0.176" stroke="hsl(180.0,100%,35%)" stroke-width="0.01871"></path>
<path d="M1.722 0.521 Q1.308 0.703 1.571 0.945" stroke="hsl(180.0,100%,35%)" stroke-width="0.00210"></path>
<path d="M1.722 0.521 Q1.019 0.554 0.928 0.903" stroke="hsl(180.0,100%,35%)" stroke-width="0.01387"></path>
<path d="M1.722 0.521 Q1.118 0.677 1.289 1.005" stroke="hsl(180.0,100%,35%)" stroke-width="0.00274"></path>
<path d="M1.722 0.521 Q0.882 0.272 0.212 0.627" stroke="hsl(180.0,100%,35%)" stroke-width="0.00307"></path>
<path d="M1.722 0.521 Q0.742 0.354 0.201 0.795" stroke="hsl(180.0,100%,35%)" stroke-width="0.00210"></path>
<path d="M1.722 0.521 Q1.355 0.603 1.433 0.800" stroke="hsl(180.0,100%,35%)" stroke-width="0.00113"></path>
<path d="M1.722 0.521 Q1.608 0.227 1.009 0.218" stroke="hsl(180.0,100%,35%)" stroke-width="0.00065"></path>
<path d="M1.722 0.521 Q1.709 0.325 1.322 0.288" stroke="hsl(180.0,100%,35%)" stroke-width="0.00016"></path>
<path d="M1.722 0.521 Q1.041 0.136 0.139 0.383" stroke="hsl(180.0,100%,35%)" stroke-width="0.00032"></path>
<path d="M0.201 0.795 Q0.429 0.775 0.439 0.659" stroke="hsl(180.0,100%,35%)" stroke-width="0.00355"></path>
<path d="M0.201 0.795 Q0.577 1.118 1.289 1.005" stroke="hsl(180.0,100%,35%)" stroke-width="0.00048"></path>
<path d="M0.201 0.795 Q1.067 0.668 1.009 0.218" stroke="hsl(180.0,100%,35%)" stroke-width="0.00097"></path>
<path d="M0.201 0.795 Q1.421 0.776 1.650 0.176" stroke="hsl(180.0,100%,35%)" stroke-width="0.00097"></path>
<path d="M0.201 0.795 Q0.217 0.932 0.486 0.954" stroke="hsl(180.0,100%,35%)" stroke-width="0.00581"></path>
<path d="M0.201 0.795 Q0.478 0.995 0.928 0.903" stroke="hsl(180.0,100%,35%)" stroke-width="0.00016"></path>
<path d="M0.201 0.795 Q0.341 0.713 0.212 0.627" stroke="hsl(180.0,100%,35%)" stroke-width="0.00032"></path>
<path d="M0.201 0.795 Q0.746 0.825 0.923 0.566" stroke="hsl(180.0,100%,35%)" stroke-width="0.00016"></path>
<path d="M0.201 0.795 Q1.181 0.963 1.722 0.521" stroke="hsl(180.0,100%,35%)" stroke-width="0.00048"></path>
<path d="M0.201 0.795 Q0.814 1.044 1.433 0.800" stroke="hsl(180.0,100%,35%)" stroke-width="0.00016"></path>
<path d="M0.201 0.795 Q0.588 0.518 0.131 0.268" stroke="hsl(180.0,100%,35%)" stroke-width="0.00016"></path>
<path d="M0.439 0.659 Q0.587 1.002 1.289 1.005" stroke="hsl(180.0,100%,35%)" stroke-width="0.00048"></path>
<path d="M0.439 0.659 Q0.211 0.680 0.201 0.795" stroke="hsl(180.0,100%,35%)" stroke-width="0.00242"></path>
<path d="M0.439 0.659 Q0.488 0.879 0.928 0.903" stroke="hsl(180.0,100%,35%)" stroke-width="0.00081"></path>
<path d="M0.439 0.659 Q1.190 0.847 1.722 0.521" stroke="hsl(180.0,100%,35%)" stroke-width="0.00161"></path>
<path d="M0.439 0.659 Q0.351 0.597 0.212 0.627" stroke="hsl(180.0,100%,35%)" stroke-width="0.00065"></path>
<path d="M0.439 0.659 Q0.756 0.709 0.923 0.566" stroke="hsl(180.0,100%,35%)" stroke-width="0.00016"></path>
<path d="M0.439 0.659 Q0.226 0.816 0.486 0.954" stroke="hsl(180.0,100%,35%)" stroke-width="0.00177"></path>
<path d="M0.439 0.659 Q1.431 0.660 1.650 0.176" stroke="hsl(180.0,100%,35%)" stroke-width="0.00226"></path>
<path d="M0.439 0.659 Q1.077 0.553 1.009 0.218" stroke="hsl(180.0,100%,35%)" stroke-width="0.00032"></path>
<path d="M0.439 0.659 Q0.714 0.915 1.274 0.837" stroke="hsl(180.0,100%,35%)" stroke-width="0.00032"></path>
<path d="M0.212 0.627 Q1.051 0.876 1.722 0.521" stroke="hsl(180.0,100%,35%)" stroke-width="0.00532"></path>
<path d="M0.212 0.627 Q0.300 0.688 0.439 0.659" stroke="hsl(180.0,100%,35%)" stroke-width="0.00210"></path>
<path d="M0.212 0.627 Q0.349 0.908 0.928 0.903" stroke="hsl(180.0,100%,35%)" stroke-width="0.00097"></path>
<path d="M0.212 0.627 Q0.448 1.031 1.289 1.005" stroke="hsl(180.0,100%,35%)" stroke-width="0.00242"></path>
<path d="M0.212 0.627 Q0.087 0.845 0.486 0.954" stroke="hsl(180.0,100%,35%)" stroke-width="0.00210"></path>
<path d="M0.212 0.627 Q1.292 0.689 1.650 0.176" stroke="hsl(180.0,100%,35%)" stroke-width="0.00194"></path>
<path d="M0.212 0.627 Q0.937 0.582 1.009 0.218" stroke="hsl(180.0,100%,35%)" stroke-width="0.00016"></path>
<path d="M0.212 0.627 Q0.774 0.543 0.732 0.250" stroke="hsl(180.0,100%,35%)" stroke-width="0.00016"></path>
<path d="M0.212 0.627 Q0.072 0.709 0.201 0.795" stroke="hsl(180.0,100%,35%)" stroke-width="0.00065"></path>
<path d="M0.212 0.627 Q0.838 0.631 0.983 0.326" stroke="hsl(180.0,100%,35%)" stroke-width="0.00016"></path>
<path d="M0.212 0.627 Q1.038 0.679 1.322 0.288" stroke="hsl(180.0,100%,35%)" stroke-width="0.00016"></path>
<path d="M0.486 0.954 Q1.450 0.985 1.722 0.521" stroke="hsl(180.0,100%,35%)" stroke-width="0.00903"></path>
<path d="M0.486 0.954 Q1.036 1.166 1.571 0.945" stroke="hsl(180.0,100%,35%)" stroke-width="0.00371"></path>
<path d="M0.486 0.954 Q0.699 0.797 0.439 0.659" stroke="hsl(180.0,100%,35%)" stroke-width="0.00484"></path>
<path d="M0.486 0.954 Q0.748 1.017 0.928 0.903" stroke="hsl(180.0,100%,35%)" stroke-width="0.00613"></path>
<path d="M0.486 0.954 Q1.364 0.775 1.207 0.307" stroke="hsl(180.0,100%,35%)" stroke-width="0.00032"></path>
<path d="M0.486 0.954 Q1.437 0.788 1.322 0.288" stroke="hsl(180.0,100%,35%)" stroke-width="0.00065"></path>
<path d="M0.486 0.954 Q0.847 1.140 1.289 1.005" stroke="hsl(180.0,100%,35%)" stroke-width="0.00145"></path>
<path d="M0.486 0.954 Q1.083 1.067 1.433 0.800" stroke="hsl(180.0,100%,35%)" stroke-width="0.00129"></path>
<path d="M0.486 0.954 Q1.691 0.798 1.650 0.176" stroke="hsl(180.0,100%,35%)" stroke-width="0.00726"></path>
<path d="M0.486 0.954 Q0.611 0.736 0.212 0.627" stroke="hsl(180.0,100%,35%)" stroke-width="0.00371"></path>
<path d="M0.486 0.954 Q1.237 0.739 0.983 0.326" stroke="hsl(180.0,100%,35%)" stroke-width="0.00016"></path>
<path d="M0.486 0.954 Q0.471 0.818 0.201 0.795" stroke="hsl(180.0,100%,35%)" stroke-width="0.00694"></path>
<path d="M0.486 0.954 Q1.336 0.691 1.009 0.218" stroke="hsl(180.0,100%,35%)" stroke-width="0.00081"></path>
<path d="M0.486 0.954 Q0.770 0.599 0.139 0.383" stroke="hsl(180.0,100%,35%)" stroke-width="0.00065"></path>
<path d="M0.486 0.954 Q1.163 0.694 0.803 0.306" stroke="hsl(180.0,100%,35%)" stroke-width="0.00032"></path>
<path d="M1.009 0.218 Q0.688 0.375 0.923 0.566" stroke="hsl(0.0,100%,35%)" stroke-width="0.00081"></path>
<path d="M1.009 0.218 Q1.110 0.316 1.322 0.288" stroke="hsl(0.0,100%,35%)" stroke-width="0.01613"></path>
<path d="M1.009 0.218 Q0.443 0.127 0.139 0.383" stroke="hsl(0.0,100%,35%)" stroke-width="0.00226"></path>
<path d="M1.009 0.218 Q0.815 0.097 0.536 0.165" stroke="hsl(0.0,100%,35%)" stroke-width="0.00452"></path>
<path d="M1.009 0.218 Q1.364 0.325 1.650 0.176" stroke="hsl(0.0,100%,35%)" stroke-width="0.00145"></path>
<path d="M1.009 0.218 Q0.910 0.267 0.983 0.326" stroke="hsl(0.0,100%,35%)" stroke-width="0.00419"></path>
<path d="M1.009 0.218 Q0.420 0.545 0.928 0.903" stroke="hsl(0.0,100%,35%)" stroke-width="0.02113"></path>
<path d="M1.009 0.218 Q0.371 0.325 0.439 0.659" stroke="hsl(0.0,100%,35%)" stroke-width="0.00419"></path>
<path d="M1.009 0.218 Q0.756 0.594 1.433 0.800" stroke="hsl(0.0,100%,35%)" stroke-width="0.00581"></path>
<path d="M1.009 0.218 Q0.143 0.345 0.201 0.795" stroke="hsl(0.0,100%,35%)" stroke-width="0.00194"></path>
<path d="M1.009 0.218 Q0.520 0.668 1.289 1.005" stroke="hsl(0.0,100%,35%)" stroke-width="0.00597"></path>
<path d="M1.009 0.218 Q0.159 0.482 0.486 0.954" stroke="hsl(0.0,100%,35%)" stroke-width="0.00258"></path>
<path d="M1.009 0.218 Q1.037 0.302 1.207 0.307" stroke="hsl(0.0,100%,35%)" stroke-width="0.00161"></path>
<path d="M1.009 0.218 Q0.827 0.708 1.741 0.904" stroke="hsl(0.0,100%,35%)" stroke-width="0.00048"></path>
<path d="M1.009 0.218 Q0.836 0.221 0.803 0.306" stroke="hsl(0.0,100%,35%)" stroke-width="0.00113"></path>
<path d="M1.009 0.218 Q0.530 0.068 0.131 0.268" stroke="hsl(0.0,100%,35%)" stroke-width="0.00065"></path>
<path d="M1.009 0.218 Q1.204 0.157 1.128 0.048" stroke="hsl(0.0,100%,35%)" stroke-width="0.00145"></path>
<path d="M1.009 0.218 Q0.721 0.197 0.617 0.333" stroke="hsl(0.0,100%,35%)" stroke-width="0.00032"></path>
<path d="M1.009 0.218 Q0.845 0.179 0.732 0.250" stroke="hsl(0.0,100%,35%)" stroke-width="0.00048"></path>
<path d="M1.009 0.218 Q1.123 0.512 1.722 0.521" stroke="hsl(0.0,100%,35%)" stroke-width="0.00710"></path>
<path d="M1.009 0.218 Q0.709 0.694 1.571 0.945" stroke="hsl(0.0,100%,35%)" stroke-width="0.00081"></path>
<path d="M1.009 0.218 Q0.620 0.558 1.198 0.822" stroke="hsl(0.0,100%,35%)" stroke-width="0.00032"></path>
<path d="M1.009 0.218 Q0.938 0.112 0.715 0.124" stroke="hsl(0.0,100%,35%)" stroke-width="0.00145"></path>
<path d="M1.009 0.218 Q0.284 0.263 0.212 0.627" stroke="hsl(0.0,100%,35%)" stroke-width="0.00016"></path>
<path d="M0.928 0.903 Q1.517 0.577 1.009 0.218" stroke="hsl(0.0,100%,35%)" stroke-width="0.00742"></path>
<path d="M0.928 0.903 Q1.027 1.026 1.289 1.005" stroke="hsl(0.0,100%,35%)" stroke-width="0.01274"></path>
<path d="M0.928 0.903 Q1.343 0.580 0.803 0.306" stroke="hsl(0.0,100%,35%)" stroke-width="0.00016"></path>
<path d="M0.928 0.903 Q1.630 0.871 1.722 0.521" stroke="hsl(0.0,100%,35%)" stroke-width="0.00355"></path>
<path d="M0.928 0.903 Q1.617 0.674 1.322 0.288" stroke="hsl(0.0,100%,35%)" stroke-width="0.00258"></path>
<path d="M0.928 0.903 Q1.263 0.953 1.433 0.800" stroke="hsl(0.0,100%,35%)" stroke-width="0.00387"></path>
<path d="M0.928 0.903 Q0.950 0.485 0.139 0.383" stroke="hsl(0.0,100%,35%)" stroke-width="0.00032"></path>
<path d="M0.928 0.903 Q1.871 0.684 1.650 0.176" stroke="hsl(0.0,100%,35%)" stroke-width="0.00290"></path>
<path d="M0.928 0.903 Q0.651 0.704 0.201 0.795" stroke="hsl(0.0,100%,35%)" stroke-width="0.00032"></path>
<path d="M0.928 0.903 Q0.666 0.840 0.486 0.954" stroke="hsl(0.0,100%,35%)" stroke-width="0.00274"></path>
<path d="M0.928 0.903 Q1.154 0.939 1.274 0.837" stroke="hsl(0.0,100%,35%)" stroke-width="0.00065"></path>
<path d="M0.928 0.903 Q0.879 0.683 0.439 0.659" stroke="hsl(0.0,100%,35%)" stroke-width="0.00161"></path>
<path d="M0.928 0.903 Q1.322 0.456 0.536 0.165" stroke="hsl(0.0,100%,35%)" stroke-width="0.00016"></path>
<path d="M0.928 0.903 Q1.195 0.733 0.923 0.566" stroke="hsl(0.0,100%,35%)" stroke-width="0.00032"></path>
<path d="M0.928 0.903 Q1.545 0.661 1.207 0.307" stroke="hsl(0.0,100%,35%)" stroke-width="0.00016"></path>
<path d="M0.928 0.903 Q0.791 0.622 0.212 0.627" stroke="hsl(0.0,100%,35%)" stroke-width="0.00016"></path>
<path d="M0.928 0.903 Q1.038 0.426 0.131 0.268" stroke="hsl(0.0,100%,35%)" stroke-width="0.00016"></path>
<path d="M0.928 0.903 Q1.417 0.626 0.983 0.326" stroke="hsl(0.0,100%,35%)" stroke-width="0.00016"></path>
<path d="M0.928 0.903 Q1.334 1.066 1.741 0.904" stroke="hsl(0.0,100%,35%)" stroke-width="0.00016"></path>
<path d="M0.536 0.165 Q0.730 0.287 1.009 0.218" stroke="hsl(0.0,100%,35%)" stroke-width="0.01420"></path>
<path d="M0.536 0.165 Q0.241 0.736 1.289 1.005" stroke="hsl(0.0,100%,35%)" stroke-width="0.00161"></path>
<path d="M0.536 0.165 Q0.557 0.289 0.803 0.306" stroke="hsl(0.0,100%,35%)" stroke-width="0.00032"></path>
<path d="M0.536 0.165 Q-0.120 0.550 0.486 0.954" stroke="hsl(0.0,100%,35%)" stroke-width="0.00016"></path>
<path d="M0.536 0.165 Q0.566 0.247 0.732 0.250" stroke="hsl(0.0,100%,35%)" stroke-width="0.00016"></path>
<path d="M0.536 0.165 Q0.141 0.613 0.928 0.903" stroke="hsl(0.0,100%,35%)" stroke-width="0.00048"></path>
<path d="M0.536 0.165 Q0.005 0.331 0.212 0.627" stroke="hsl(0.0,100%,35%)" stroke-width="0.00016"></path>
<path d="M0.536 0.165 Q0.547 0.776 1.741 0.904" stroke="hsl(0.0,100%,35%)" stroke-width="0.00081"></path>
<path d="M0.536 0.165 Q0.659 0.181 0.715 0.124" stroke="hsl(0.0,100%,35%)" stroke-width="0.00016"></path>
<path d="M1.433 0.800 Q1.098 0.751 0.928 0.903" stroke="hsl(0.0,100%,35%)" stroke-width="0.00887"></path>
<path d="M1.433 0.800 Q1.197 0.873 1.289 1.005" stroke="hsl(0.0,100%,35%)" stroke-width="0.00210"></path>
<path d="M1.433 0.800 Q0.836 0.688 0.486 0.954" stroke="hsl(0.0,100%,35%)" stroke-width="0.00387"></path>
<path d="M1.433 0.800 Q1.687 0.424 1.009 0.218" stroke="hsl(0.0,100%,35%)" stroke-width="0.00419"></path>
<path d="M1.433 0.800 Q1.787 0.522 1.322 0.288" stroke="hsl(0.0,100%,35%)" stroke-width="0.00065"></path>
<path d="M1.433 0.800 Q2.041 0.531 1.650 0.176" stroke="hsl(0.0,100%,35%)" stroke-width="0.00936"></path>
<path d="M1.433 0.800 Q1.800 0.718 1.722 0.521" stroke="hsl(0.0,100%,35%)" stroke-width="0.00048"></path>
<path d="M1.433 0.800 Q1.120 0.333 0.139 0.383" stroke="hsl(0.0,100%,35%)" stroke-width="0.00016"></path>
<path d="M1.433 0.800 Q1.208 0.273 0.131 0.268" stroke="hsl(0.0,100%,35%)" stroke-width="0.00016"></path>
<path d="M1.139 0.681 Q1.558 0.718 1.722 0.521" stroke="hsl(0.0,100%,35%)" stroke-width="0.00016"></path>
<path d="M1.139 0.681 Q1.444 0.424 1.009 0.218" stroke="hsl(0.0,100%,35%)" stroke-width="0.00016"></path>
<path d="M1.139 0.681 Q1.191 0.799 1.433 0.800" stroke="hsl(0.0,100%,35%)" stroke-width="0.00032"></path>
<path d="M0.602 0.779 Q1.608 0.687 1.650 0.176" stroke="hsl(180.0,100%,35%)" stroke-width="0.00016"></path>
<path d="M0.602 0.779 Q0.616 0.686 0.439 0.659" stroke="hsl(180.0,100%,35%)" stroke-width="0.00016"></path>
<path d="M0.602 0.779 Q0.404 0.843 0.486 0.954" stroke="hsl(180.0,100%,35%)" stroke-width="0.00032"></path>
<path d="M1.650 0.176 Q1.410 0.363 1.722 0.521" stroke="hsl(180.0,100%,35%)" stroke-width="0.00839"></path>
<path d="M1.650 0.176 Q0.658 0.175 0.439 0.659" stroke="hsl(180.0,100%,35%)" stroke-width="0.00661"></path>
<path d="M1.650 0.176 Q0.430 0.196 0.201 0.795" stroke="hsl(180.0,100%,35%)" stroke-width="0.00645"></path>
<path d="M1.650 0.176 Q1.296 0.069 1.009 0.218" stroke="hsl(180.0,100%,35%)" stroke-width="0.00081"></path>
<path d="M1.650 0.176 Q0.707 0.395 0.928 0.903" stroke="hsl(180.0,100%,35%)" stroke-width="0.00242"></path>
<path d="M1.650 0.176 Q0.446 0.332 0.486 0.954" stroke="hsl(180.0,100%,35%)" stroke-width="0.01065"></path>
<path d="M1.650 0.176 Q1.197 0.118 0.983 0.326" stroke="hsl(180.0,100%,35%)" stroke-width="0.00048"></path>
<path d="M1.650 0.176 Q0.934 0.431 1.274 0.837" stroke="hsl(180.0,100%,35%)" stroke-width="0.00016"></path>
<path d="M1.650 0.176 Q0.729 -0.023 0.139 0.383" stroke="hsl(180.0,100%,35%)" stroke-width="0.00016"></path>
<path d="M1.650 0.176 Q1.043 0.445 1.433 0.800" stroke="hsl(180.0,100%,35%)" stroke-width="0.00016"></path>
<path d="M1.650 0.176 Q0.807 0.518 1.289 1.005" stroke="hsl(180.0,100%,35%)" stroke-width="0.00081"></path>
<path d="M1.650 0.176 Q0.570 0.114 0.212 0.627" stroke="hsl(180.0,100%,35%)" stroke-width="0.00097"></path>
<path d="M1.650 0.176 Q1.122 0.072 0.803 0.306" stroke="hsl(180.0,100%,35%)" stroke-width="0.00081"></path>
<path d="M0.803 0.306 Q0.905 0.197 0.715 0.124" stroke="hsl(0.0,100%,35%)" stroke-width="0.00032"></path>
<path d="M0.803 0.306 Q0.782 0.182 0.536 0.165" stroke="hsl(0.0,100%,35%)" stroke-width="0.00016"></path>
<path d="M0.803 0.306 Q0.976 0.304 1.009 0.218" stroke="hsl(0.0,100%,35%)" stroke-width="0.00016"></path>
<path d="M0.715 0.124 Q1.141 0.337 1.650 0.176" stroke="hsl(0.0,100%,35%)" stroke-width="0.00016"></path>
<path d="M0.715 0.124 Q0.787 0.230 1.009 0.218" stroke="hsl(0.0,100%,35%)" stroke-width="0.00032"></path>
<path d="M0.715 0.124 Q0.604 0.719 1.741 0.904" stroke="hsl(0.0,100%,35%)" stroke-width="0.00016"></path>
<path d="M0.715 0.124 Q0.592 0.109 0.536 0.165" stroke="hsl(0.0,100%,35%)" stroke-width="0.00016"></path>
<path d="M0.715 0.124 Q0.613 0.232 0.803 0.306" stroke="hsl(0.0,100%,35%)" stroke-width="0.00016"></path>
<path d="M1.322 0.288 Q0.632 0.517 0.928 0.903" stroke="hsl(0.0,100%,35%)" stroke-width="0.00629"></path>
<path d="M1.322 0.288 Q0.968 0.566 1.433 0.800" stroke="hsl(0.0,100%,35%)" stroke-width="0.00226"></path>
<path d="M1.322 0.288 Q0.371 0.454 0.486 0.954" stroke="hsl(0.0,100%,35%)" stroke-width="0.00016"></path>
<path d="M1.322 0.288 Q1.249 0.274 1.207 0.307" stroke="hsl(0.0,100%,35%)" stroke-width="0.00177"></path>
<path d="M1.322 0.288 Q1.416 0.129 1.128 0.048" stroke="hsl(0.0,100%,35%)" stroke-width="0.00065"></path>
<path d="M1.322 0.288 Q1.221 0.191 1.009 0.218" stroke="hsl(0.0,100%,35%)" stroke-width="0.00355"></path>
<path d="M1.322 0.288 Q0.731 0.640 1.289 1.005" stroke="hsl(0.0,100%,35%)" stroke-width="0.00161"></path>
<path d="M1.322 0.288 Q1.122 0.239 0.983 0.326" stroke="hsl(0.0,100%,35%)" stroke-width="0.00016"></path>
<path d="M1.322 0.288 Q0.859 0.553 1.274 0.837" stroke="hsl(0.0,100%,35%)" stroke-width="0.00016"></path>
<path d="M1.322 0.288 Q0.583 0.297 0.439 0.659" stroke="hsl(0.0,100%,35%)" stroke-width="0.00016"></path>
<path d="M1.322 0.288 Q1.026 0.069 0.536 0.165" stroke="hsl(0.0,100%,35%)" stroke-width="0.00016"></path>
<path d="M1.322 0.288 Q0.654 0.099 0.139 0.383" stroke="hsl(0.0,100%,35%)" stroke-width="0.00016"></path>
<path d="M0.139 0.383 Q0.111 0.889 1.093 1.014" stroke="hsl(0.0,100%,35%)" stroke-width="0.00016"></path>
<path d="M0.139 0.383 Q0.807 0.572 1.322 0.288" stroke="hsl(0.0,100%,35%)" stroke-width="0.00177"></path>
<path d="M0.139 0.383 Q0.706 0.475 1.009 0.218" stroke="hsl(0.0,100%,35%)" stroke-width="0.00177"></path>
<path d="M0.139 0.383 Q0.216 0.924 1.289 1.005" stroke="hsl(0.0,100%,35%)" stroke-width="0.00032"></path>
<path d="M0.139 0.383 Q0.227 0.324 0.131 0.268" stroke="hsl(0.0,100%,35%)" stroke-width="0.00387"></path>
<path d="M0.139 0.383 Q0.117 0.801 0.928 0.903" stroke="hsl(0.0,100%,35%)" stroke-width="0.00113"></path>
<path d="M0.139 0.383 Q1.060 0.582 1.650 0.176" stroke="hsl(0.0,100%,35%)" stroke-width="0.00016"></path>
<path d="M0.139 0.383 Q-0.144 0.738 0.486 0.954" stroke="hsl(0.0,100%,35%)" stroke-width="0.00016"></path>
<path d="M0.139 0.383 Q0.607 0.523 0.983 0.326" stroke="hsl(0.0,100%,35%)" stroke-width="0.00016"></path>
<path d="M0.139 0.383 Q0.453 0.850 1.433 0.800" stroke="hsl(0.0,100%,35%)" stroke-width="0.00016"></path>
<path d="M0.923 0.566 Q0.606 0.516 0.439 0.659" stroke="hsl(0.0,100%,35%)" stroke-width="0.00065"></path>
<path d="M0.923 0.566 Q1.244 0.409 1.009 0.218" stroke="hsl(0.0,100%,35%)" stroke-width="0.00016"></path>
<path d="M0.923 0.566 Q0.754 0.858 1.289 1.005" stroke="hsl(0.0,100%,35%)" stroke-width="0.00081"></path>
<path d="M0.923 0.566 Q1.145 0.458 0.983 0.326" stroke="hsl(0.0,100%,35%)" stroke-width="0.00113"></path>
<path d="M0.923 0.566 Q1.598 0.516 1.650 0.176" stroke="hsl(0.0,100%,35%)" stroke-width="0.00065"></path>
<path d="M0.923 0.566 Q0.378 0.536 0.201 0.795" stroke="hsl(0.0,100%,35%)" stroke-width="0.00016"></path>
<path d="M0.923 0.566 Q0.954 0.486 0.806 0.454" stroke="hsl(0.0,100%,35%)" stroke-width="0.00016"></path>
<path d="M0.923 0.566 Q0.655 0.736 0.928 0.903" stroke="hsl(0.0,100%,35%)" stroke-width="0.00016"></path>
<path d="M0.923 0.566 Q1.344 0.506 1.322 0.288" stroke="hsl(0.0,100%,35%)" stroke-width="0.00016"></path>
<path d="M1.207 0.307 Q1.280 0.320 1.322 0.288" stroke="hsl(0.0,100%,35%)" stroke-width="0.00371"></path>
<path d="M1.207 0.307 Q1.179 0.223 1.009 0.218" stroke="hsl(0.0,100%,35%)" stroke-width="0.00081"></path>
<path d="M1.207 0.307 Q0.590 0.549 0.928 0.903" stroke="hsl(0.0,100%,35%)" stroke-width="0.00048"></path>
<path d="M1.207 0.307 Q0.313 0.350 0.201 0.795" stroke="hsl(0.0,100%,35%)" stroke-width="0.00016"></path>
<path d="M1.207 0.307 Q0.984 0.102 0.536 0.165" stroke="hsl(0.0,100%,35%)" stroke-width="0.00016"></path>
<path d="M1.207 0.307 Q1.293 0.517 1.722 0.521" stroke="hsl(0.0,100%,35%)" stroke-width="0.00016"></path>
<path d="M0.131 0.268 Q0.610 0.419 1.009 0.218" stroke="hsl(0.0,100%,35%)" stroke-width="0.00161"></path>
<path d="M0.131 0.268 Q0.043 0.327 0.139 0.383" stroke="hsl(0.0,100%,35%)" stroke-width="0.00565"></path>
<path d="M0.131 0.268 Q0.723 0.713 1.722 0.521" stroke="hsl(0.0,100%,35%)" stroke-width="0.00016"></path>
<path d="M0.131 0.268 Q0.964 0.526 1.650 0.176" stroke="hsl(0.0,100%,35%)" stroke-width="0.00016"></path>
<path d="M0.983 0.326 Q0.761 0.434 0.923 0.566" stroke="hsl(0.0,100%,35%)" stroke-width="0.00081"></path>
<path d="M0.983 0.326 Q1.183 0.375 1.322 0.288" stroke="hsl(0.0,100%,35%)" stroke-width="0.00032"></path>
<path d="M0.983 0.326 Q0.593 0.727 1.289 1.005" stroke="hsl(0.0,100%,35%)" stroke-width="0.00081"></path>
<path d="M0.983 0.326 Q1.196 0.571 1.722 0.521" stroke="hsl(0.0,100%,35%)" stroke-width="0.00032"></path>
<path d="M0.983 0.326 Q0.792 0.355 0.806 0.454" stroke="hsl(0.0,100%,35%)" stroke-width="0.00081"></path>
<path d="M0.983 0.326 Q1.082 0.277 1.009 0.218" stroke="hsl(0.0,100%,35%)" stroke-width="0.00048"></path>
<path d="M0.983 0.326 Q0.494 0.604 0.928 0.903" stroke="hsl(0.0,100%,35%)" stroke-width="0.00016"></path>
<path d="M0.672 0.675 Q0.568 0.620 0.439 0.659" stroke="hsl(180.0,100%,35%)" stroke-width="0.00194"></path>
<path d="M0.672 0.675 Q1.560 0.621 1.650 0.176" stroke="hsl(180.0,100%,35%)" stroke-width="0.00016"></path>
<path d="M0.672 0.675 Q0.480 0.559 0.212 0.627" stroke="hsl(180.0,100%,35%)" stroke-width="0.00016"></path>
<path d="M0.672 0.675 Q0.716 0.963 1.289 1.005" stroke="hsl(180.0,100%,35%)" stroke-width="0.00016"></path>
<path d="M0.672 0.675 Q0.617 0.840 0.928 0.903" stroke="hsl(180.0,100%,35%)" stroke-width="0.00016"></path>
<path d="M0.672 0.675 Q0.355 0.777 0.486 0.954" stroke="hsl(180.0,100%,35%)" stroke-width="0.00016"></path>
<path d="M0.672 0.675 Q1.206 0.514 1.009 0.218" stroke="hsl(180.0,100%,35%)" stroke-width="0.00048"></path>
<path d="M1.128 0.048 Q1.033 0.207 1.322 0.288" stroke="hsl(0.0,100%,35%)" stroke-width="0.00710"></path>
<path d="M1.128 0.048 Q0.960 0.193 1.207 0.307" stroke="hsl(0.0,100%,35%)" stroke-width="0.00016"></path>
<path d="M1.128 0.048 Q0.932 0.110 1.009 0.218" stroke="hsl(0.0,100%,35%)" stroke-width="0.00387"></path>
<path d="M1.128 0.048 Q0.344 0.436 0.928 0.903" stroke="hsl(0.0,100%,35%)" stroke-width="0.00048"></path>
<path d="M1.128 0.048 Q0.295 0.216 0.439 0.659" stroke="hsl(0.0,100%,35%)" stroke-width="0.00016"></path>
<path d="M1.128 0.048 Q0.366 0.018 0.139 0.383" stroke="hsl(0.0,100%,35%)" stroke-width="0.00016"></path>
<path d="M1.128 0.048 Q0.643 0.187 0.806 0.454" stroke="hsl(0.0,100%,35%)" stroke-width="0.00016"></path>
<path d="M1.198 0.822 Q0.998 0.809 0.928 0.903" stroke="hsl(0.0,100%,35%)" stroke-width="0.00436"></path>
<path d="M1.198 0.822 Q1.488 0.531 0.983 0.326" stroke="hsl(0.0,100%,35%)" stroke-width="0.00065"></path>
<path d="M1.198 0.822 Q1.225 0.845 1.274 0.837" stroke="hsl(0.0,100%,35%)" stroke-width="0.00032"></path>
<path d="M0.732 0.250 Q0.896 0.290 1.009 0.218" stroke="hsl(0.0,100%,35%)" stroke-width="0.00436"></path>
<path d="M0.732 0.250 Q0.702 0.168 0.536 0.165" stroke="hsl(0.0,100%,35%)" stroke-width="0.00048"></path>
<path d="M0.732 0.250 Q0.714 0.779 1.741 0.904" stroke="hsl(0.0,100%,35%)" stroke-width="0.00032"></path>
<path d="M0.732 0.250 Q0.046 0.553 0.486 0.954" stroke="hsl(0.0,100%,35%)" stroke-width="0.00065"></path>
<path d="M0.732 0.250 Q0.997 0.387 1.322 0.288" stroke="hsl(0.0,100%,35%)" stroke-width="0.00016"></path>
<path d="M0.732 0.250 Q0.301 0.704 1.093 1.014" stroke="hsl(0.0,100%,35%)" stroke-width="0.00032"></path>
<path d="M0.732 0.250 Q0.371 0.657 1.085 0.922" stroke="hsl(0.0,100%,35%)" stroke-width="0.00016"></path>
<path d="M0.732 0.250 Q0.407 0.739 1.289 1.005" stroke="hsl(0.0,100%,35%)" stroke-width="0.00065"></path>
<path d="M0.732 0.250 Q0.825 0.183 0.715 0.124" stroke="hsl(0.0,100%,35%)" stroke-width="0.00032"></path>
<path d="M0.732 0.250 Q0.723 0.292 0.803 0.306" stroke="hsl(0.0,100%,35%)" stroke-width="0.00016"></path>
<path d="M0.732 0.250 Q0.307 0.616 0.928 0.903" stroke="hsl(0.0,100%,35%)" stroke-width="0.00032"></path>
<path d="M1.093 1.014 Q1.514 0.602 0.803 0.306" stroke="hsl(0.0,100%,35%)" stroke-width="0.00048"></path>
<path d="M1.093 1.014 Q1.162 0.966 1.085 0.922" stroke="hsl(0.0,100%,35%)" stroke-width="0.00210"></path>
<path d="M1.093 1.014 Q1.687 0.599 1.009 0.218" stroke="hsl(0.0,100%,35%)" stroke-width="0.00016"></path>
<path d="M1.093 1.014 Q1.524 0.560 0.732 0.250" stroke="hsl(0.0,100%,35%)" stroke-width="0.00097"></path>
<path d="M1.093 1.014 Q2.042 0.707 1.650 0.176" stroke="hsl(0.0,100%,35%)" stroke-width="0.00016"></path>
<path d="M0.957 0.684 Q0.718 0.568 0.439 0.659" stroke="hsl(180.0,100%,35%)" stroke-width="0.00048"></path>
<path d="M0.957 0.684 Q0.630 0.506 0.212 0.627" stroke="hsl(180.0,100%,35%)" stroke-width="0.00016"></path>
<path d="M0.957 0.684 Q1.469 0.755 1.722 0.521" stroke="hsl(180.0,100%,35%)" stroke-width="0.00032"></path>
<path d="M0.957 0.684 Q0.767 0.788 0.928 0.903" stroke="hsl(180.0,100%,35%)" stroke-width="0.00016"></path>
<path d="M0.957 0.684 Q0.505 0.725 0.486 0.954" stroke="hsl(180.0,100%,35%)" stroke-width="0.00016"></path>
<path d="M1.461 0.029 Q1.112 0.117 1.207 0.307" stroke="hsl(0.0,100%,35%)" stroke-width="0.00016"></path>
<path d="M1.461 0.029 Q1.084 0.033 1.009 0.218" stroke="hsl(0.0,100%,35%)" stroke-width="0.00016"></path>
<path d="M1.461 0.029 Q0.495 0.360 0.928 0.903" stroke="hsl(0.0,100%,35%)" stroke-width="0.00016"></path>
<path d="M1.678 0.376 Q0.832 0.270 0.439 0.659" stroke="hsl(180.0,100%,35%)" stroke-width="0.00210"></path>
<path d="M1.678 0.376 Q1.583 0.457 1.722 0.521" stroke="hsl(180.0,100%,35%)" stroke-width="0.00226"></path>
<path d="M1.678 0.376 Q0.619 0.427 0.486 0.954" stroke="hsl(180.0,100%,35%)" stroke-width="0.00016"></path>
<path d="M1.678 0.376 Q0.604 0.290 0.201 0.795" stroke="hsl(180.0,100%,35%)" stroke-width="0.00032"></path>
<path d="M0.573 0.761 Q0.636 0.903 0.928 0.903" stroke="hsl(180.0,100%,35%)" stroke-width="0.00016"></path>
<path d="M0.573 0.761 Q1.339 0.871 1.722 0.521" stroke="hsl(180.0,100%,35%)" stroke-width="0.00032"></path>
<path d="M0.573 0.761 Q1.225 0.577 1.009 0.218" stroke="hsl(180.0,100%,35%)" stroke-width="0.00016"></path>
<path d="M0.573 0.761 Q0.375 0.840 0.486 0.954" stroke="hsl(180.0,100%,35%)" stroke-width="0.00032"></path>
<path d="M0.330 0.059 Q-0.024 0.183 0.139 0.383" stroke="hsl(0.0,100%,35%)" stroke-width="0.00210"></path>
<path d="M0.330 0.059 Q0.643 0.372 1.322 0.288" stroke="hsl(0.0,100%,35%)" stroke-width="0.00145"></path>
<path d="M0.330 0.059 Q-0.046 0.601 0.928 0.903" stroke="hsl(0.0,100%,35%)" stroke-width="0.00161"></path>
<path d="M0.330 0.059 Q0.542 0.274 1.009 0.218" stroke="hsl(0.0,100%,35%)" stroke-width="0.00016"></path>
<path d="M0.330 0.059 Q-0.095 0.381 0.439 0.659" stroke="hsl(0.0,100%,35%)" stroke-width="0.00016"></path>
<path d="M1.182 0.474 Q1.201 0.360 0.983 0.326" stroke="hsl(0.0,100%,35%)" stroke-width="0.00081"></path>
<path d="M1.182 0.474 Q0.711 0.638 0.928 0.903" stroke="hsl(0.0,100%,35%)" stroke-width="0.00016"></path>
<path d="M1.182 0.474 Q1.047 0.687 1.433 0.800" stroke="hsl(0.0,100%,35%)" stroke-width="0.00016"></path>
<path d="M1.493 0.581 Q1.655 0.597 1.722 0.521" stroke="hsl(180.0,100%,35%)" stroke-width="0.00113"></path>
<path d="M1.493 0.581 Q0.903 0.409 0.439 0.659" stroke="hsl(180.0,100%,35%)" stroke-width="0.00081"></path>
<path d="M1.493 0.581 Q1.895 0.410 1.650 0.176" stroke="hsl(180.0,100%,35%)" stroke-width="0.00016"></path>
<path d="M1.493 0.581 Q0.952 0.629 0.928 0.903" stroke="hsl(180.0,100%,35%)" stroke-width="0.00048"></path>
<path d="M0.824 0.747 Q0.751 0.846 0.928 0.903" stroke="hsl(0.0,100%,35%)" stroke-width="0.00048"></path>
<path d="M0.824 0.747 Q1.087 0.896 1.433 0.800" stroke="hsl(0.0,100%,35%)" stroke-width="0.00032"></path>
<path d="M0.824 0.747 Q0.851 0.969 1.289 1.005" stroke="hsl(0.0,100%,35%)" stroke-width="0.00016"></path>
<path d="M1.852 0.351 Q1.650 0.410 1.722 0.521" stroke="hsl(180.0,100%,35%)" stroke-width="0.00161"></path>
<path d="M1.852 0.351 Q0.899 0.222 0.439 0.659" stroke="hsl(180.0,100%,35%)" stroke-width="0.00097"></path>
<path d="M1.852 0.351 Q0.686 0.379 0.486 0.954" stroke="hsl(180.0,100%,35%)" stroke-width="0.00081"></path>
<path d="M1.852 0.351 Q0.948 0.442 0.928 0.903" stroke="hsl(180.0,100%,35%)" stroke-width="0.00048"></path>
<path d="M1.852 0.351 Q1.283 0.492 1.433 0.800" stroke="hsl(180.0,100%,35%)" stroke-width="0.00016"></path>
<path d="M1.852 0.351 Q1.537 0.116 1.009 0.218" stroke="hsl(180.0,100%,35%)" stroke-width="0.00048"></path>
<path d="M1.852 0.351 Q0.671 0.243 0.201 0.795" stroke="hsl(180.0,100%,35%)" stroke-width="0.00016"></path>
</g>
<text x="1.571" y="0.923" font-size="0.042414" fill="hsl(0.0,100%,20%)">armansito</text>
<text x="1.289" y="0.965" font-size="0.079174" fill="hsl(0.0,100%,20%)">johnstiles</text>
<text x="1.722" y="0.492" font-size="0.059434" fill="hsl(180.0,100%,20%)">michaelludwig</text>
<text x="0.201" y="0.777" font-size="0.036749" fill="hsl(180.0,100%,20%)">nicolettep</text>
<text x="0.439" y="0.640" font-size="0.038816" fill="hsl(180.0,100%,20%)">egdaniel</text>
<text x="0.212" y="0.611" font-size="0.031105" fill="hsl(180.0,100%,20%)">jamesgk</text>
<text x="0.486" y="0.927" font-size="0.054572" fill="hsl(180.0,100%,20%)">jvanverth</text>
<text x="1.009" y="0.184" font-size="0.067828" fill="hsl(0.0,100%,20%)">kjlubick</text>
<text x="0.928" y="0.866" font-size="0.074552" fill="hsl(0.0,100%,20%)">brianosman</text>
<text x="0.536" y="0.152" font-size="0.027493" fill="hsl(0.0,100%,20%)">lovisolo</text>
<text x="1.433" y="0.779" font-size="0.041876" fill="hsl(0.0,100%,20%)">herb</text>
<text x="1.139" y="0.679" font-size="0.004490" fill="hsl(0.0,100%,20%)">ayzhao</text>
<text x="0.602" y="0.777" font-size="0.004490" fill="hsl(180.0,100%,20%)">blundell</text>
<text x="1.650" y="0.150" font-size="0.052549" fill="hsl(180.0,100%,20%)">robertphillips</text>
<text x="0.803" y="0.300" font-size="0.012089" fill="hsl(0.0,100%,20%)">borenet</text>
<text x="0.715" y="0.118" font-size="0.010529" fill="hsl(0.0,100%,20%)">rmistry</text>
<text x="1.322" y="0.267" font-size="0.040840" fill="hsl(0.0,100%,20%)">bungeman</text>
<text x="0.139" y="0.370" font-size="0.026466" fill="hsl(0.0,100%,20%)">fmalita</text>
<text x="1.274" y="0.833" font-size="0.007099" fill="hsl(0.0,100%,20%)">jreck</text>
<text x="0.923" y="0.558" font-size="0.015225" fill="hsl(0.0,100%,20%)">nscobie</text>
<text x="1.207" y="0.298" font-size="0.017817" fill="hsl(0.0,100%,20%)">jlavrova</text>
<text x="0.131" y="0.258" font-size="0.020203" fill="hsl(0.0,100%,20%)">jmbetancourt</text>
<text x="0.983" y="0.316" font-size="0.019440" fill="hsl(0.0,100%,20%)">scroggo</text>
<text x="1.741" y="0.899" font-size="0.009255" fill="hsl(0.0,100%,20%)">jcgregorio</text>
<text x="0.672" y="0.670" font-size="0.010039" fill="hsl(180.0,100%,20%)">briansalomon</text>
<text x="1.128" y="0.038" font-size="0.021058" fill="hsl(0.0,100%,20%)">drott</text>
<text x="1.198" y="0.816" font-size="0.013280" fill="hsl(0.0,100%,20%)">ccameron</text>
<text x="0.732" y="0.241" font-size="0.018647" fill="hsl(0.0,100%,20%)">cmumford</text>
<text x="1.093" y="1.008" font-size="0.011664" fill="hsl(0.0,100%,20%)">sharaks</text>
<text x="1.085" y="0.918" font-size="0.008694" fill="hsl(0.0,100%,20%)">hcm</text>
<text x="0.806" y="0.451" font-size="0.006349" fill="hsl(0.0,100%,20%)">djsollen</text>
<text x="0.957" y="0.681" font-size="0.006349" fill="hsl(180.0,100%,20%)">hitawala</text>
<text x="1.461" y="0.027" font-size="0.003888" fill="hsl(0.0,100%,20%)">jacksongardner</text>
<text x="0.617" y="0.331" font-size="0.003175" fill="hsl(0.0,100%,20%)">tdenniston</text>
<text x="1.678" y="0.369" font-size="0.012295" fill="hsl(180.0,100%,20%)">lehoangquyen</text>
<text x="0.573" y="0.758" font-size="0.005499" fill="hsl(180.0,100%,20%)">lokokung</text>
<text x="0.330" y="0.053" font-size="0.013089" fill="hsl(0.0,100%,20%)">mike</text>
<text x="1.182" y="0.471" font-size="0.005939" fill="hsl(0.0,100%,20%)">nigeltao</text>
<text x="1.493" y="0.576" font-size="0.008979" fill="hsl(180.0,100%,20%)">penghuang</text>
<text x="0.824" y="0.745" font-size="0.005499" fill="hsl(0.0,100%,20%)">sky</text>
<text x="1.852" y="0.345" font-size="0.012089" fill="hsl(180.0,100%,20%)">sunnyps</text>
</svg>
