<svg width="4000" height="2000" viewBox="-0.025 -0.025 2.05 1.05" xmlns="http://www.w3.org/2000/svg">
  <style>
    path {
      fill: none;
      stroke-linecap: round;
      stroke-opacity: 0.4;
    }

    text {
      text-anchor: middle;
      alignment-baseline: hanging;
    }
  </style>
  <g opacity="0.4">
<path d="M1.832 0.422 Q0.986 0.459 0.873 0.879" stroke="hsl(0.0,100%,35%)" stroke-width="0.00170"></path>
<path d="M1.832 0.422 Q1.817 0.293 1.562 0.272" stroke="hsl(0.0,100%,35%)" stroke-width="0.00898"></path>
<path d="M1.832 0.422 Q0.897 0.517 0.878 0.994" stroke="hsl(0.0,100%,35%)" stroke-width="0.00046"></path>
<path d="M1.832 0.422 Q0.942 0.171 0.257 0.550" stroke="hsl(0.0,100%,35%)" stroke-width="0.00062"></path>
<path d="M1.832 0.422 Q0.917 0.108 0.105 0.486" stroke="hsl(0.0,100%,35%)" stroke-width="0.00031"></path>
<path d="M1.832 0.422 Q1.587 0.170 1.042 0.234" stroke="hsl(0.0,100%,35%)" stroke-width="0.00031"></path>
<path d="M1.832 0.422 Q1.155 0.187 0.548 0.466" stroke="hsl(0.0,100%,35%)" stroke-width="0.00046"></path>
<path d="M1.832 0.422 Q1.378 0.382 1.202 0.595" stroke="hsl(0.0,100%,35%)" stroke-width="0.00015"></path>
<path d="M1.832 0.422 Q1.466 0.118 0.795 0.230" stroke="hsl(0.0,100%,35%)" stroke-width="0.00015"></path>
<path d="M1.832 0.422 Q1.815 0.125 1.232 0.068" stroke="hsl(0.0,100%,35%)" stroke-width="0.00031"></path>
<path d="M1.832 0.422 Q1.636 0.449 1.647 0.551" stroke="hsl(0.0,100%,35%)" stroke-width="0.00015"></path>
<path d="M1.832 0.422 Q1.407 0.544 1.552 0.778" stroke="hsl(0.0,100%,35%)" stroke-width="0.00015"></path>
<path d="M1.832 0.422 Q1.008 0.240 0.473 0.602" stroke="hsl(0.0,100%,35%)" stroke-width="0.00015"></path>
<path d="M0.873 0.879 Q0.895 0.661 0.473 0.602" stroke="hsl(0.0,100%,35%)" stroke-width="0.00589"></path>
<path d="M0.873 0.879 Q1.353 0.539 0.795 0.230" stroke="hsl(0.0,100%,35%)" stroke-width="0.00558"></path>
<path d="M0.873 0.879 Q1.293 0.964 1.552 0.778" stroke="hsl(0.0,100%,35%)" stroke-width="0.00046"></path>
<path d="M0.873 0.879 Q1.605 0.779 1.570 0.400" stroke="hsl(0.0,100%,35%)" stroke-width="0.00790"></path>
<path d="M0.873 0.879 Q1.194 0.561 0.643 0.334" stroke="hsl(0.0,100%,35%)" stroke-width="0.00124"></path>
<path d="M0.873 0.879 Q1.704 0.713 1.562 0.272" stroke="hsl(0.0,100%,35%)" stroke-width="0.00697"></path>
<path d="M0.873 0.879 Q0.716 0.633 0.200 0.655" stroke="hsl(0.0,100%,35%)" stroke-width="0.00015"></path>
<path d="M0.873 0.879 Q0.899 0.458 0.083 0.354" stroke="hsl(0.0,100%,35%)" stroke-width="0.00031"></path>
<path d="M0.873 0.879 Q1.523 0.870 1.647 0.551" stroke="hsl(0.0,100%,35%)" stroke-width="0.00031"></path>
<path d="M0.873 0.879 Q0.784 0.937 0.878 0.994" stroke="hsl(0.0,100%,35%)" stroke-width="0.00124"></path>
<path d="M0.873 0.879 Q1.042 0.607 0.548 0.466" stroke="hsl(0.0,100%,35%)" stroke-width="0.00279"></path>
<path d="M0.873 0.879 Q1.327 0.630 0.940 0.355" stroke="hsl(0.0,100%,35%)" stroke-width="0.00046"></path>
<path d="M0.873 0.879 Q1.265 0.803 1.202 0.595" stroke="hsl(0.0,100%,35%)" stroke-width="0.00031"></path>
<path d="M0.873 0.879 Q1.719 0.842 1.832 0.422" stroke="hsl(0.0,100%,35%)" stroke-width="0.00062"></path>
<path d="M0.873 0.879 Q1.050 0.821 0.976 0.723" stroke="hsl(0.0,100%,35%)" stroke-width="0.00015"></path>
<path d="M0.873 0.879 Q1.698 0.614 1.362 0.154" stroke="hsl(0.0,100%,35%)" stroke-width="0.00031"></path>
<path d="M0.873 0.879 Q1.474 0.590 1.042 0.234" stroke="hsl(0.0,100%,35%)" stroke-width="0.00031"></path>
<path d="M0.873 0.879 Q0.804 0.529 0.105 0.486" stroke="hsl(0.0,100%,35%)" stroke-width="0.00015"></path>
<path d="M1.562 0.272 Q1.464 0.337 1.570 0.400" stroke="hsl(0.0,100%,35%)" stroke-width="0.01797"></path>
<path d="M1.562 0.272 Q0.900 0.166 0.548 0.466" stroke="hsl(0.0,100%,35%)" stroke-width="0.00294"></path>
<path d="M1.562 0.272 Q0.662 0.087 0.105 0.486" stroke="hsl(0.0,100%,35%)" stroke-width="0.00108"></path>
<path d="M1.562 0.272 Q1.211 0.097 0.795 0.230" stroke="hsl(0.0,100%,35%)" stroke-width="0.00170"></path>
<path d="M1.562 0.272 Q0.753 0.219 0.473 0.602" stroke="hsl(0.0,100%,35%)" stroke-width="0.00449"></path>
<path d="M1.562 0.272 Q0.642 0.496 0.878 0.994" stroke="hsl(0.0,100%,35%)" stroke-width="0.00139"></path>
<path d="M1.562 0.272 Q0.731 0.438 0.873 0.879" stroke="hsl(0.0,100%,35%)" stroke-width="0.00449"></path>
<path d="M1.562 0.272 Q1.560 0.104 1.232 0.068" stroke="hsl(0.0,100%,35%)" stroke-width="0.00031"></path>
<path d="M1.562 0.272 Q1.052 0.119 0.643 0.334" stroke="hsl(0.0,100%,35%)" stroke-width="0.00015"></path>
<path d="M1.562 0.272 Q0.959 0.278 0.840 0.574" stroke="hsl(0.0,100%,35%)" stroke-width="0.00062"></path>
<path d="M1.562 0.272 Q1.363 0.515 1.795 0.666" stroke="hsl(0.0,100%,35%)" stroke-width="0.00015"></path>
<path d="M1.562 0.272 Q1.152 0.523 1.552 0.778" stroke="hsl(0.0,100%,35%)" stroke-width="0.00031"></path>
<path d="M1.562 0.272 Q1.123 0.361 1.202 0.595" stroke="hsl(0.0,100%,35%)" stroke-width="0.00031"></path>
<path d="M1.562 0.272 Q1.577 0.401 1.832 0.422" stroke="hsl(0.0,100%,35%)" stroke-width="0.00108"></path>
<path d="M1.562 0.272 Q0.921 0.062 0.372 0.329" stroke="hsl(0.0,100%,35%)" stroke-width="0.00015"></path>
<path d="M0.878 0.994 Q0.989 0.717 0.473 0.602" stroke="hsl(0.0,100%,35%)" stroke-width="0.00790"></path>
<path d="M0.878 0.994 Q1.136 0.664 0.548 0.466" stroke="hsl(0.0,100%,35%)" stroke-width="0.00248"></path>
<path d="M0.878 0.994 Q1.700 0.835 1.570 0.400" stroke="hsl(0.0,100%,35%)" stroke-width="0.01007"></path>
<path d="M0.878 0.994 Q1.253 0.722 0.806 0.480" stroke="hsl(0.0,100%,35%)" stroke-width="0.00015"></path>
<path d="M0.878 0.994 Q1.798 0.769 1.562 0.272" stroke="hsl(0.0,100%,35%)" stroke-width="0.00620"></path>
<path d="M0.878 0.994 Q1.448 0.595 0.795 0.230" stroke="hsl(0.0,100%,35%)" stroke-width="0.00356"></path>
<path d="M0.878 0.994 Q1.617 0.926 1.647 0.551" stroke="hsl(0.0,100%,35%)" stroke-width="0.00077"></path>
<path d="M0.878 0.994 Q0.968 0.936 0.873 0.879" stroke="hsl(0.0,100%,35%)" stroke-width="0.01332"></path>
<path d="M0.878 0.994 Q1.288 0.617 0.643 0.334" stroke="hsl(0.0,100%,35%)" stroke-width="0.00263"></path>
<path d="M0.878 0.994 Q1.388 1.021 1.552 0.778" stroke="hsl(0.0,100%,35%)" stroke-width="0.00015"></path>
<path d="M0.878 0.994 Q1.037 0.998 1.079 0.921" stroke="hsl(0.0,100%,35%)" stroke-width="0.00031"></path>
<path d="M0.878 0.994 Q0.779 0.648 0.083 0.620" stroke="hsl(0.0,100%,35%)" stroke-width="0.00015"></path>
<path d="M0.878 0.994 Q1.796 0.602 1.232 0.068" stroke="hsl(0.0,100%,35%)" stroke-width="0.00108"></path>
<path d="M0.878 0.994 Q1.813 0.898 1.832 0.422" stroke="hsl(0.0,100%,35%)" stroke-width="0.00232"></path>
<path d="M0.878 0.994 Q1.359 0.859 1.202 0.595" stroke="hsl(0.0,100%,35%)" stroke-width="0.00046"></path>
<path d="M0.878 0.994 Q1.221 0.824 0.964 0.619" stroke="hsl(0.0,100%,35%)" stroke-width="0.00139"></path>
<path d="M0.878 0.994 Q1.210 0.502 0.324 0.233" stroke="hsl(0.0,100%,35%)" stroke-width="0.00015"></path>
<path d="M0.878 0.994 Q1.568 0.647 1.042 0.234" stroke="hsl(0.0,100%,35%)" stroke-width="0.00015"></path>
<path d="M0.878 0.994 Q0.898 0.585 0.105 0.486" stroke="hsl(0.0,100%,35%)" stroke-width="0.00015"></path>
<path d="M0.257 0.550 Q1.130 0.504 1.232 0.068" stroke="hsl(120.0,100%,35%)" stroke-width="0.00077"></path>
<path d="M0.257 0.550 Q0.114 0.550 0.083 0.620" stroke="hsl(120.0,100%,35%)" stroke-width="0.00186"></path>
<path d="M0.257 0.550 Q1.230 0.559 1.461 0.086" stroke="hsl(120.0,100%,35%)" stroke-width="0.00015"></path>
<path d="M0.257 0.550 Q0.782 0.497 0.795 0.230" stroke="hsl(120.0,100%,35%)" stroke-width="0.00015"></path>
<path d="M0.257 0.550 Q1.132 0.672 1.562 0.272" stroke="hsl(120.0,100%,35%)" stroke-width="0.00108"></path>
<path d="M0.257 0.550 Q0.232 0.487 0.105 0.486" stroke="hsl(120.0,100%,35%)" stroke-width="0.00325"></path>
<path d="M0.257 0.550 Q0.144 0.591 0.200 0.655" stroke="hsl(120.0,100%,35%)" stroke-width="0.00015"></path>
<path d="M0.257 0.550 Q0.722 0.923 1.552 0.778" stroke="hsl(120.0,100%,35%)" stroke-width="0.00015"></path>
<path d="M0.257 0.550 Q0.212 0.896 0.878 0.994" stroke="hsl(120.0,100%,35%)" stroke-width="0.00046"></path>
<path d="M0.105 0.486 Q0.130 0.548 0.257 0.550" stroke="hsl(120.0,100%,35%)" stroke-width="0.00387"></path>
<path d="M0.105 0.486 Q-0.014 0.549 0.083 0.620" stroke="hsl(120.0,100%,35%)" stroke-width="0.00046"></path>
<path d="M0.105 0.486 Q0.495 0.518 0.643 0.334" stroke="hsl(120.0,100%,35%)" stroke-width="0.00031"></path>
<path d="M0.105 0.486 Q-0.013 0.582 0.149 0.660" stroke="hsl(120.0,100%,35%)" stroke-width="0.00031"></path>
<path d="M0.105 0.486 Q0.906 0.736 1.570 0.400" stroke="hsl(120.0,100%,35%)" stroke-width="0.00015"></path>
<path d="M0.105 0.486 Q0.417 0.403 0.324 0.233" stroke="hsl(120.0,100%,35%)" stroke-width="0.00015"></path>
<path d="M0.105 0.486 Q0.628 0.587 0.940 0.355" stroke="hsl(120.0,100%,35%)" stroke-width="0.00015"></path>
<path d="M0.105 0.486 Q0.174 0.836 0.873 0.879" stroke="hsl(120.0,100%,35%)" stroke-width="0.00015"></path>
<path d="M0.105 0.486 Q0.196 0.618 0.473 0.602" stroke="hsl(120.0,100%,35%)" stroke-width="0.00015"></path>
<path d="M0.105 0.486 Q1.003 0.503 1.232 0.068" stroke="hsl(120.0,100%,35%)" stroke-width="0.00031"></path>
<path d="M0.105 0.486 Q0.364 0.461 0.372 0.329" stroke="hsl(120.0,100%,35%)" stroke-width="0.00093"></path>
<path d="M1.042 0.234 Q0.921 0.182 0.795 0.230" stroke="hsl(120.0,100%,35%)" stroke-width="0.00372"></path>
<path d="M1.042 0.234 Q0.833 0.446 1.202 0.595" stroke="hsl(120.0,100%,35%)" stroke-width="0.00077"></path>
<path d="M1.042 0.234 Q0.441 0.523 0.873 0.879" stroke="hsl(120.0,100%,35%)" stroke-width="0.00015"></path>
<path d="M1.042 0.234 Q0.352 0.581 0.878 0.994" stroke="hsl(120.0,100%,35%)" stroke-width="0.00015"></path>
<path d="M1.042 0.234 Q0.372 0.172 0.105 0.486" stroke="hsl(120.0,100%,35%)" stroke-width="0.00170"></path>
<path d="M1.042 0.234 Q0.669 0.363 0.840 0.574" stroke="hsl(120.0,100%,35%)" stroke-width="0.00015"></path>
<path d="M1.042 0.234 Q0.631 0.147 0.372 0.329" stroke="hsl(120.0,100%,35%)" stroke-width="0.00015"></path>
<path d="M1.042 0.234 Q0.610 0.251 0.548 0.466" stroke="hsl(120.0,100%,35%)" stroke-width="0.00015"></path>
<path d="M1.042 0.234 Q1.287 0.486 1.832 0.422" stroke="hsl(120.0,100%,35%)" stroke-width="0.00046"></path>
<path d="M0.548 0.466 Q1.112 0.637 1.570 0.400" stroke="hsl(0.0,100%,35%)" stroke-width="0.00372"></path>
<path d="M0.548 0.466 Q0.402 0.519 0.473 0.602" stroke="hsl(0.0,100%,35%)" stroke-width="0.01270"></path>
<path d="M0.548 0.466 Q0.700 0.419 0.643 0.334" stroke="hsl(0.0,100%,35%)" stroke-width="0.00201"></path>
<path d="M0.548 0.466 Q1.210 0.571 1.562 0.272" stroke="hsl(0.0,100%,35%)" stroke-width="0.00372"></path>
<path d="M0.548 0.466 Q1.208 0.404 1.232 0.068" stroke="hsl(0.0,100%,35%)" stroke-width="0.00031"></path>
<path d="M0.548 0.466 Q0.860 0.397 0.795 0.230" stroke="hsl(0.0,100%,35%)" stroke-width="0.00356"></path>
<path d="M0.548 0.466 Q0.291 0.796 0.878 0.994" stroke="hsl(0.0,100%,35%)" stroke-width="0.00062"></path>
<path d="M0.548 0.466 Q0.833 0.488 0.940 0.355" stroke="hsl(0.0,100%,35%)" stroke-width="0.00015"></path>
<path d="M0.548 0.466 Q0.380 0.737 0.873 0.879" stroke="hsl(0.0,100%,35%)" stroke-width="0.00279"></path>
<path d="M0.548 0.466 Q0.193 0.483 0.149 0.660" stroke="hsl(0.0,100%,35%)" stroke-width="0.00015"></path>
<path d="M0.548 0.466 Q0.800 0.823 1.552 0.778" stroke="hsl(0.0,100%,35%)" stroke-width="0.00015"></path>
<path d="M0.548 0.466 Q1.225 0.700 1.832 0.422" stroke="hsl(0.0,100%,35%)" stroke-width="0.00046"></path>
<path d="M0.548 0.466 Q0.310 0.387 0.105 0.486" stroke="hsl(0.0,100%,35%)" stroke-width="0.00015"></path>
<path d="M0.548 0.466 Q0.772 0.661 1.202 0.595" stroke="hsl(0.0,100%,35%)" stroke-width="0.00015"></path>
<path d="M0.548 0.466 Q0.570 0.362 0.372 0.329" stroke="hsl(0.0,100%,35%)" stroke-width="0.00015"></path>
<path d="M0.548 0.466 Q0.623 0.304 0.324 0.233" stroke="hsl(0.0,100%,35%)" stroke-width="0.00015"></path>
<path d="M1.202 0.595 Q0.653 0.425 0.200 0.655" stroke="hsl(120.0,100%,35%)" stroke-width="0.00015"></path>
<path d="M1.202 0.595 Q1.460 0.662 1.647 0.551" stroke="hsl(120.0,100%,35%)" stroke-width="0.00124"></path>
<path d="M1.202 0.595 Q1.038 0.512 0.840 0.574" stroke="hsl(120.0,100%,35%)" stroke-width="0.00372"></path>
<path d="M1.202 0.595 Q0.811 0.671 0.873 0.879" stroke="hsl(120.0,100%,35%)" stroke-width="0.00077"></path>
<path d="M1.202 0.595 Q1.135 0.550 1.033 0.573" stroke="hsl(120.0,100%,35%)" stroke-width="0.00015"></path>
<path d="M1.202 0.595 Q1.064 0.559 0.964 0.619" stroke="hsl(120.0,100%,35%)" stroke-width="0.00046"></path>
<path d="M1.202 0.595 Q1.291 0.331 0.795 0.230" stroke="hsl(120.0,100%,35%)" stroke-width="0.00217"></path>
<path d="M1.202 0.595 Q1.131 0.353 0.643 0.334" stroke="hsl(120.0,100%,35%)" stroke-width="0.00046"></path>
<path d="M1.202 0.595 Q1.543 0.571 1.570 0.400" stroke="hsl(120.0,100%,35%)" stroke-width="0.00031"></path>
<path d="M1.202 0.595 Q1.639 0.338 1.232 0.068" stroke="hsl(120.0,100%,35%)" stroke-width="0.00248"></path>
<path d="M1.202 0.595 Q1.231 0.757 1.552 0.778" stroke="hsl(120.0,100%,35%)" stroke-width="0.00077"></path>
<path d="M1.202 0.595 Q1.031 0.694 1.187 0.800" stroke="hsl(120.0,100%,35%)" stroke-width="0.00124"></path>
<path d="M1.202 0.595 Q1.200 0.657 1.321 0.672" stroke="hsl(120.0,100%,35%)" stroke-width="0.00015"></path>
<path d="M1.202 0.595 Q0.721 0.730 0.878 0.994" stroke="hsl(120.0,100%,35%)" stroke-width="0.00015"></path>
<path d="M1.202 0.595 Q1.442 0.749 1.795 0.666" stroke="hsl(120.0,100%,35%)" stroke-width="0.00186"></path>
<path d="M1.202 0.595 Q0.836 0.250 0.083 0.354" stroke="hsl(120.0,100%,35%)" stroke-width="0.00015"></path>
<path d="M1.202 0.595 Q1.411 0.382 1.042 0.234" stroke="hsl(120.0,100%,35%)" stroke-width="0.00031"></path>
<path d="M0.795 0.230 Q1.047 0.470 1.570 0.400" stroke="hsl(240.0,100%,35%)" stroke-width="0.00713"></path>
<path d="M0.795 0.230 Q0.336 0.352 0.473 0.602" stroke="hsl(240.0,100%,35%)" stroke-width="0.00155"></path>
<path d="M0.795 0.230 Q0.635 0.252 0.643 0.334" stroke="hsl(240.0,100%,35%)" stroke-width="0.02169"></path>
<path d="M0.795 0.230 Q0.964 0.561 1.647 0.551" stroke="hsl(240.0,100%,35%)" stroke-width="0.00201"></path>
<path d="M0.795 0.230 Q0.735 0.656 1.552 0.778" stroke="hsl(240.0,100%,35%)" stroke-width="0.00031"></path>
<path d="M0.795 0.230 Q0.315 0.570 0.873 0.879" stroke="hsl(240.0,100%,35%)" stroke-width="0.01162"></path>
<path d="M0.795 0.230 Q0.126 0.283 0.083 0.620" stroke="hsl(240.0,100%,35%)" stroke-width="0.00077"></path>
<path d="M0.795 0.230 Q0.157 0.324 0.200 0.655" stroke="hsl(240.0,100%,35%)" stroke-width="0.00031"></path>
<path d="M0.795 0.230 Q0.340 0.149 0.083 0.354" stroke="hsl(240.0,100%,35%)" stroke-width="0.00124"></path>
<path d="M0.795 0.230 Q1.143 0.237 1.232 0.068" stroke="hsl(240.0,100%,35%)" stroke-width="0.00248"></path>
<path d="M0.795 0.230 Q0.557 0.137 0.324 0.233" stroke="hsl(240.0,100%,35%)" stroke-width="0.00031"></path>
<path d="M0.795 0.230 Q1.145 0.404 1.562 0.272" stroke="hsl(240.0,100%,35%)" stroke-width="0.00124"></path>
<path d="M0.795 0.230 Q0.768 0.321 0.940 0.355" stroke="hsl(240.0,100%,35%)" stroke-width="0.00434"></path>
<path d="M0.795 0.230 Q0.946 0.648 1.795 0.666" stroke="hsl(240.0,100%,35%)" stroke-width="0.00015"></path>
<path d="M0.795 0.230 Q0.270 0.282 0.257 0.550" stroke="hsl(240.0,100%,35%)" stroke-width="0.00031"></path>
<path d="M0.795 0.230 Q0.225 0.629 0.878 0.994" stroke="hsl(240.0,100%,35%)" stroke-width="0.00077"></path>
<path d="M0.795 0.230 Q0.483 0.298 0.548 0.466" stroke="hsl(240.0,100%,35%)" stroke-width="0.00046"></path>
<path d="M0.795 0.230 Q0.245 0.220 0.105 0.486" stroke="hsl(240.0,100%,35%)" stroke-width="0.00108"></path>
<path d="M0.795 0.230 Q0.706 0.494 1.202 0.595" stroke="hsl(240.0,100%,35%)" stroke-width="0.00279"></path>
<path d="M0.795 0.230 Q0.542 0.411 0.840 0.574" stroke="hsl(240.0,100%,35%)" stroke-width="0.00077"></path>
<path d="M0.795 0.230 Q0.600 0.357 0.806 0.480" stroke="hsl(240.0,100%,35%)" stroke-width="0.00031"></path>
<path d="M0.795 0.230 Q0.915 0.281 1.042 0.234" stroke="hsl(240.0,100%,35%)" stroke-width="0.00248"></path>
<path d="M1.232 0.068 Q1.229 0.137 1.362 0.154" stroke="hsl(120.0,100%,35%)" stroke-width="0.00310"></path>
<path d="M1.232 0.068 Q0.884 0.062 0.795 0.230" stroke="hsl(120.0,100%,35%)" stroke-width="0.00418"></path>
<path d="M1.232 0.068 Q1.054 0.393 1.647 0.551" stroke="hsl(120.0,100%,35%)" stroke-width="0.00062"></path>
<path d="M1.232 0.068 Q0.824 0.487 1.552 0.778" stroke="hsl(120.0,100%,35%)" stroke-width="0.00480"></path>
<path d="M1.232 0.068 Q0.690 0.189 0.806 0.480" stroke="hsl(120.0,100%,35%)" stroke-width="0.00046"></path>
<path d="M1.232 0.068 Q0.632 0.243 0.840 0.574" stroke="hsl(120.0,100%,35%)" stroke-width="0.00046"></path>
<path d="M1.232 0.068 Q0.216 0.114 0.083 0.620" stroke="hsl(120.0,100%,35%)" stroke-width="0.00217"></path>
<path d="M1.232 0.068 Q0.725 0.083 0.643 0.334" stroke="hsl(120.0,100%,35%)" stroke-width="0.00170"></path>
<path d="M1.232 0.068 Q0.334 0.052 0.105 0.486" stroke="hsl(120.0,100%,35%)" stroke-width="0.00279"></path>
<path d="M1.232 0.068 Q1.136 0.302 1.570 0.400" stroke="hsl(120.0,100%,35%)" stroke-width="0.00062"></path>
<path d="M1.232 0.068 Q1.234 0.236 1.562 0.272" stroke="hsl(120.0,100%,35%)" stroke-width="0.00062"></path>
<path d="M1.232 0.068 Q1.332 0.123 1.461 0.086" stroke="hsl(120.0,100%,35%)" stroke-width="0.00403"></path>
<path d="M1.232 0.068 Q0.404 0.402 0.873 0.879" stroke="hsl(120.0,100%,35%)" stroke-width="0.00170"></path>
<path d="M1.232 0.068 Q0.360 0.114 0.257 0.550" stroke="hsl(120.0,100%,35%)" stroke-width="0.00217"></path>
<path d="M1.232 0.068 Q0.625 0.425 1.187 0.800" stroke="hsl(120.0,100%,35%)" stroke-width="0.00015"></path>
<path d="M1.232 0.068 Q0.426 0.183 0.473 0.602" stroke="hsl(120.0,100%,35%)" stroke-width="0.00062"></path>
<path d="M1.232 0.068 Q0.647 -0.031 0.324 0.233" stroke="hsl(120.0,100%,35%)" stroke-width="0.00046"></path>
<path d="M1.232 0.068 Q0.217 0.148 0.149 0.660" stroke="hsl(120.0,100%,35%)" stroke-width="0.00031"></path>
<path d="M1.232 0.068 Q0.796 0.326 1.202 0.595" stroke="hsl(120.0,100%,35%)" stroke-width="0.00108"></path>
<path d="M1.232 0.068 Q0.315 0.460 0.878 0.994" stroke="hsl(120.0,100%,35%)" stroke-width="0.00015"></path>
<path d="M1.232 0.068 Q0.658 0.290 0.964 0.619" stroke="hsl(120.0,100%,35%)" stroke-width="0.00015"></path>
<path d="M1.232 0.068 Q0.429 -0.019 0.083 0.354" stroke="hsl(120.0,100%,35%)" stroke-width="0.00015"></path>
<path d="M1.232 0.068 Q0.573 0.130 0.548 0.466" stroke="hsl(120.0,100%,35%)" stroke-width="0.00015"></path>
<path d="M1.232 0.068 Q1.036 0.480 1.795 0.666" stroke="hsl(120.0,100%,35%)" stroke-width="0.00031"></path>
<path d="M1.232 0.068 Q0.594 0.026 0.372 0.329" stroke="hsl(120.0,100%,35%)" stroke-width="0.00015"></path>
<path d="M1.647 0.551 Q1.828 0.394 1.562 0.272" stroke="hsl(120.0,100%,35%)" stroke-width="0.01224"></path>
<path d="M1.647 0.551 Q1.826 0.227 1.232 0.068" stroke="hsl(120.0,100%,35%)" stroke-width="0.00031"></path>
<path d="M1.647 0.551 Q1.418 0.646 1.552 0.778" stroke="hsl(120.0,100%,35%)" stroke-width="0.00542"></path>
<path d="M1.647 0.551 Q1.478 0.220 0.795 0.230" stroke="hsl(120.0,100%,35%)" stroke-width="0.00713"></path>
<path d="M1.647 0.551 Q1.019 0.342 0.473 0.602" stroke="hsl(120.0,100%,35%)" stroke-width="0.00031"></path>
<path d="M1.647 0.551 Q1.730 0.460 1.570 0.400" stroke="hsl(120.0,100%,35%)" stroke-width="0.00062"></path>
<path d="M1.647 0.551 Q0.998 0.560 0.873 0.879" stroke="hsl(120.0,100%,35%)" stroke-width="0.00093"></path>
<path d="M1.647 0.551 Q1.451 0.311 0.940 0.355" stroke="hsl(120.0,100%,35%)" stroke-width="0.00015"></path>
<path d="M1.647 0.551 Q1.390 0.484 1.202 0.595" stroke="hsl(120.0,100%,35%)" stroke-width="0.00232"></path>
<path d="M1.647 0.551 Q0.908 0.619 0.878 0.994" stroke="hsl(120.0,100%,35%)" stroke-width="0.00062"></path>
<path d="M1.647 0.551 Q1.318 0.242 0.643 0.334" stroke="hsl(120.0,100%,35%)" stroke-width="0.00046"></path>
<path d="M1.647 0.551 Q1.562 0.505 1.454 0.536" stroke="hsl(120.0,100%,35%)" stroke-width="0.00015"></path>
<path d="M1.647 0.551 Q1.843 0.523 1.832 0.422" stroke="hsl(120.0,100%,35%)" stroke-width="0.00031"></path>
<path d="M1.647 0.551 Q1.629 0.638 1.795 0.666" stroke="hsl(120.0,100%,35%)" stroke-width="0.00062"></path>
<path d="M1.552 0.778 Q1.781 0.684 1.647 0.551" stroke="hsl(120.0,100%,35%)" stroke-width="0.00682"></path>
<path d="M1.552 0.778 Q1.452 0.374 0.643 0.334" stroke="hsl(120.0,100%,35%)" stroke-width="0.00077"></path>
<path d="M1.552 0.778 Q1.157 0.272 0.083 0.354" stroke="hsl(120.0,100%,35%)" stroke-width="0.00062"></path>
<path d="M1.552 0.778 Q1.962 0.527 1.562 0.272" stroke="hsl(120.0,100%,35%)" stroke-width="0.00062"></path>
<path d="M1.552 0.778 Q1.612 0.353 0.795 0.230" stroke="hsl(120.0,100%,35%)" stroke-width="0.00093"></path>
<path d="M1.552 0.778 Q1.864 0.592 1.570 0.400" stroke="hsl(120.0,100%,35%)" stroke-width="0.00031"></path>
<path d="M1.552 0.778 Q1.960 0.359 1.232 0.068" stroke="hsl(120.0,100%,35%)" stroke-width="0.00046"></path>
<path d="M1.552 0.778 Q1.763 0.771 1.795 0.666" stroke="hsl(120.0,100%,35%)" stroke-width="0.00046"></path>
<path d="M1.552 0.778 Q1.154 0.474 0.473 0.602" stroke="hsl(120.0,100%,35%)" stroke-width="0.00062"></path>
<path d="M1.552 0.778 Q0.974 0.446 0.200 0.655" stroke="hsl(120.0,100%,35%)" stroke-width="0.00046"></path>
<path d="M1.552 0.778 Q1.524 0.617 1.202 0.595" stroke="hsl(120.0,100%,35%)" stroke-width="0.00186"></path>
<path d="M1.552 0.778 Q1.583 0.684 1.406 0.648" stroke="hsl(120.0,100%,35%)" stroke-width="0.00015"></path>
<path d="M1.552 0.778 Q1.360 0.534 0.840 0.574" stroke="hsl(120.0,100%,35%)" stroke-width="0.00077"></path>
<path d="M1.552 0.778 Q1.668 0.718 1.576 0.648" stroke="hsl(120.0,100%,35%)" stroke-width="0.00077"></path>
<path d="M1.552 0.778 Q1.733 0.404 1.042 0.234" stroke="hsl(120.0,100%,35%)" stroke-width="0.00108"></path>
<path d="M1.552 0.778 Q1.375 0.260 0.324 0.233" stroke="hsl(120.0,100%,35%)" stroke-width="0.00015"></path>
<path d="M0.473 0.602 Q1.184 0.720 1.570 0.400" stroke="hsl(0.0,100%,35%)" stroke-width="0.00263"></path>
<path d="M0.473 0.602 Q1.282 0.654 1.562 0.272" stroke="hsl(0.0,100%,35%)" stroke-width="0.00480"></path>
<path d="M0.473 0.602 Q0.620 0.549 0.548 0.466" stroke="hsl(0.0,100%,35%)" stroke-width="0.00836"></path>
<path d="M0.473 0.602 Q0.362 0.879 0.878 0.994" stroke="hsl(0.0,100%,35%)" stroke-width="0.00201"></path>
<path d="M0.473 0.602 Q0.452 0.821 0.873 0.879" stroke="hsl(0.0,100%,35%)" stroke-width="0.00511"></path>
<path d="M0.473 0.602 Q0.932 0.480 0.795 0.230" stroke="hsl(0.0,100%,35%)" stroke-width="0.00015"></path>
<path d="M0.473 0.602 Q0.872 0.906 1.552 0.778" stroke="hsl(0.0,100%,35%)" stroke-width="0.00031"></path>
<path d="M0.473 0.602 Q1.280 0.487 1.232 0.068" stroke="hsl(0.0,100%,35%)" stroke-width="0.00015"></path>
<path d="M0.473 0.602 Q0.905 0.572 0.940 0.355" stroke="hsl(0.0,100%,35%)" stroke-width="0.00015"></path>
<path d="M0.473 0.602 Q0.382 0.470 0.105 0.486" stroke="hsl(0.0,100%,35%)" stroke-width="0.00015"></path>
<path d="M0.473 0.602 Q0.477 0.400 0.083 0.354" stroke="hsl(0.0,100%,35%)" stroke-width="0.00015"></path>
<path d="M0.473 0.602 Q0.843 0.744 1.202 0.595" stroke="hsl(0.0,100%,35%)" stroke-width="0.00015"></path>
<path d="M0.473 0.602 Q0.694 0.387 0.324 0.233" stroke="hsl(0.0,100%,35%)" stroke-width="0.00015"></path>
<path d="M0.543 0.131 Q0.431 0.253 0.643 0.334" stroke="hsl(120.0,100%,35%)" stroke-width="0.00046"></path>
<path d="M0.543 0.131 Q0.590 0.231 0.795 0.230" stroke="hsl(120.0,100%,35%)" stroke-width="0.00015"></path>
<path d="M0.543 0.131 Q0.040 0.221 0.105 0.486" stroke="hsl(120.0,100%,35%)" stroke-width="0.00015"></path>
<path d="M0.643 0.334 Q0.742 0.738 1.552 0.778" stroke="hsl(240.0,100%,35%)" stroke-width="0.00279"></path>
<path d="M0.643 0.334 Q0.802 0.313 0.795 0.230" stroke="hsl(240.0,100%,35%)" stroke-width="0.10502"></path>
<path d="M0.643 0.334 Q1.152 0.487 1.562 0.272" stroke="hsl(240.0,100%,35%)" stroke-width="0.00186"></path>
<path d="M0.643 0.334 Q0.775 0.404 0.940 0.355" stroke="hsl(240.0,100%,35%)" stroke-width="0.03919"></path>
<path d="M0.643 0.334 Q0.165 0.406 0.200 0.655" stroke="hsl(240.0,100%,35%)" stroke-width="0.00015"></path>
<path d="M0.643 0.334 Q1.054 0.552 1.570 0.400" stroke="hsl(240.0,100%,35%)" stroke-width="0.00217"></path>
<path d="M0.643 0.334 Q0.972 0.644 1.647 0.551" stroke="hsl(240.0,100%,35%)" stroke-width="0.00139"></path>
<path d="M0.643 0.334 Q0.135 0.399 0.149 0.660" stroke="hsl(240.0,100%,35%)" stroke-width="0.00031"></path>
<path d="M0.643 0.334 Q1.150 0.319 1.232 0.068" stroke="hsl(240.0,100%,35%)" stroke-width="0.00139"></path>
<path d="M0.643 0.334 Q0.233 0.711 0.878 0.994" stroke="hsl(240.0,100%,35%)" stroke-width="0.00062"></path>
<path d="M0.643 0.334 Q0.134 0.365 0.083 0.620" stroke="hsl(240.0,100%,35%)" stroke-width="0.00077"></path>
<path d="M0.643 0.334 Q0.550 0.494 0.840 0.574" stroke="hsl(240.0,100%,35%)" stroke-width="0.00046"></path>
<path d="M0.643 0.334 Q0.608 0.440 0.806 0.480" stroke="hsl(240.0,100%,35%)" stroke-width="0.00031"></path>
<path d="M0.643 0.334 Q0.954 0.731 1.795 0.666" stroke="hsl(240.0,100%,35%)" stroke-width="0.00108"></path>
<path d="M0.643 0.334 Q0.344 0.434 0.473 0.602" stroke="hsl(240.0,100%,35%)" stroke-width="0.00217"></path>
<path d="M0.643 0.334 Q0.491 0.381 0.548 0.466" stroke="hsl(240.0,100%,35%)" stroke-width="0.00170"></path>
<path d="M0.643 0.334 Q0.565 0.220 0.324 0.233" stroke="hsl(240.0,100%,35%)" stroke-width="0.00062"></path>
<path d="M0.643 0.334 Q0.322 0.653 0.873 0.879" stroke="hsl(240.0,100%,35%)" stroke-width="0.00465"></path>
<path d="M0.643 0.334 Q0.278 0.365 0.257 0.550" stroke="hsl(240.0,100%,35%)" stroke-width="0.00046"></path>
<path d="M0.643 0.334 Q0.714 0.577 1.202 0.595" stroke="hsl(240.0,100%,35%)" stroke-width="0.00201"></path>
<path d="M0.643 0.334 Q0.576 0.541 0.964 0.619" stroke="hsl(240.0,100%,35%)" stroke-width="0.00015"></path>
<path d="M0.643 0.334 Q0.347 0.232 0.083 0.354" stroke="hsl(240.0,100%,35%)" stroke-width="0.00046"></path>
<path d="M0.643 0.334 Q0.923 0.364 1.042 0.234" stroke="hsl(240.0,100%,35%)" stroke-width="0.00031"></path>
<path d="M0.083 0.620 Q0.293 0.689 0.473 0.602" stroke="hsl(120.0,100%,35%)" stroke-width="0.00031"></path>
<path d="M0.083 0.620 Q0.226 0.620 0.257 0.550" stroke="hsl(120.0,100%,35%)" stroke-width="0.00077"></path>
<path d="M0.083 0.620 Q0.084 0.653 0.149 0.660" stroke="hsl(120.0,100%,35%)" stroke-width="0.00015"></path>
<path d="M0.083 0.620 Q0.691 0.993 1.552 0.778" stroke="hsl(120.0,100%,35%)" stroke-width="0.00062"></path>
<path d="M0.083 0.620 Q0.201 0.557 0.105 0.486" stroke="hsl(120.0,100%,35%)" stroke-width="0.00217"></path>
<path d="M0.083 0.620 Q0.751 0.567 0.795 0.230" stroke="hsl(120.0,100%,35%)" stroke-width="0.00015"></path>
<path d="M0.083 0.620 Q0.591 0.589 0.643 0.334" stroke="hsl(120.0,100%,35%)" stroke-width="0.00015"></path>
<path d="M0.083 0.620 Q0.271 0.908 0.873 0.879" stroke="hsl(120.0,100%,35%)" stroke-width="0.00015"></path>
<path d="M0.083 0.620 Q0.872 0.619 1.042 0.234" stroke="hsl(120.0,100%,35%)" stroke-width="0.00015"></path>
<path d="M0.083 0.620 Q1.116 0.871 1.832 0.422" stroke="hsl(120.0,100%,35%)" stroke-width="0.00015"></path>
<path d="M0.083 0.620 Q0.182 0.966 0.878 0.994" stroke="hsl(120.0,100%,35%)" stroke-width="0.00015"></path>
<path d="M0.083 0.620 Q0.113 0.661 0.200 0.655" stroke="hsl(120.0,100%,35%)" stroke-width="0.00046"></path>
<path d="M0.149 0.660 Q0.756 1.000 1.552 0.778" stroke="hsl(120.0,100%,35%)" stroke-width="0.00031"></path>
<path d="M0.149 0.660 Q1.264 0.636 1.461 0.086" stroke="hsl(120.0,100%,35%)" stroke-width="0.00031"></path>
<path d="M0.149 0.660 Q0.148 0.627 0.083 0.620" stroke="hsl(120.0,100%,35%)" stroke-width="0.00031"></path>
<path d="M0.149 0.660 Q0.291 0.627 0.257 0.550" stroke="hsl(120.0,100%,35%)" stroke-width="0.00015"></path>
<path d="M0.149 0.660 Q0.266 0.564 0.105 0.486" stroke="hsl(120.0,100%,35%)" stroke-width="0.00015"></path>
<path d="M1.570 0.400 Q0.749 0.558 0.878 0.994" stroke="hsl(0.0,100%,35%)" stroke-width="0.00310"></path>
<path d="M1.570 0.400 Q1.668 0.334 1.562 0.272" stroke="hsl(0.0,100%,35%)" stroke-width="0.01115"></path>
<path d="M1.570 0.400 Q1.159 0.181 0.643 0.334" stroke="hsl(0.0,100%,35%)" stroke-width="0.00031"></path>
<path d="M1.570 0.400 Q0.860 0.281 0.473 0.602" stroke="hsl(0.0,100%,35%)" stroke-width="0.00263"></path>
<path d="M1.570 0.400 Q1.318 0.160 0.795 0.230" stroke="hsl(0.0,100%,35%)" stroke-width="0.00155"></path>
<path d="M1.570 0.400 Q1.006 0.228 0.548 0.466" stroke="hsl(0.0,100%,35%)" stroke-width="0.00356"></path>
<path d="M1.570 0.400 Q0.838 0.500 0.873 0.879" stroke="hsl(0.0,100%,35%)" stroke-width="0.00341"></path>
<path d="M1.570 0.400 Q1.666 0.166 1.232 0.068" stroke="hsl(0.0,100%,35%)" stroke-width="0.00015"></path>
<path d="M1.570 0.400 Q1.488 0.491 1.647 0.551" stroke="hsl(0.0,100%,35%)" stroke-width="0.00062"></path>
<path d="M1.570 0.400 Q1.230 0.424 1.202 0.595" stroke="hsl(0.0,100%,35%)" stroke-width="0.00217"></path>
<path d="M1.570 0.400 Q1.066 0.341 0.840 0.574" stroke="hsl(0.0,100%,35%)" stroke-width="0.00062"></path>
<path d="M1.570 0.400 Q0.863 0.079 0.083 0.354" stroke="hsl(0.0,100%,35%)" stroke-width="0.00031"></path>
<path d="M0.324 0.233 Q0.107 0.245 0.083 0.354" stroke="hsl(120.0,100%,35%)" stroke-width="0.00186"></path>
<path d="M0.324 0.233 Q-0.076 0.419 0.200 0.655" stroke="hsl(120.0,100%,35%)" stroke-width="0.00015"></path>
<path d="M0.324 0.233 Q0.561 0.325 0.795 0.230" stroke="hsl(120.0,100%,35%)" stroke-width="0.00031"></path>
<path d="M0.324 0.233 Q0.103 0.447 0.473 0.602" stroke="hsl(120.0,100%,35%)" stroke-width="0.00046"></path>
<path d="M0.324 0.233 Q0.910 0.332 1.232 0.068" stroke="hsl(120.0,100%,35%)" stroke-width="0.00062"></path>
<path d="M0.324 0.233 Q0.012 0.315 0.105 0.486" stroke="hsl(120.0,100%,35%)" stroke-width="0.00015"></path>
<path d="M0.324 0.233 Q0.037 0.378 0.257 0.550" stroke="hsl(120.0,100%,35%)" stroke-width="0.00015"></path>
<path d="M0.324 0.233 Q0.374 0.157 0.237 0.116" stroke="hsl(120.0,100%,35%)" stroke-width="0.00031"></path>
<path d="M0.324 0.233 Q-0.107 0.378 0.083 0.620" stroke="hsl(120.0,100%,35%)" stroke-width="0.00015"></path>
<path d="M0.940 0.355 Q0.808 0.285 0.643 0.334" stroke="hsl(240.0,100%,35%)" stroke-width="0.03098"></path>
<path d="M0.940 0.355 Q0.967 0.263 0.795 0.230" stroke="hsl(240.0,100%,35%)" stroke-width="0.00976"></path>
<path d="M0.940 0.355 Q0.487 0.603 0.873 0.879" stroke="hsl(240.0,100%,35%)" stroke-width="0.00031"></path>
<path d="M0.372 0.329 Q1.010 0.371 1.232 0.068" stroke="hsl(120.0,100%,35%)" stroke-width="0.00062"></path>
<path d="M0.372 0.329 Q0.112 0.354 0.105 0.486" stroke="hsl(120.0,100%,35%)" stroke-width="0.00139"></path>
<path d="M0.372 0.329 Q1.110 0.425 1.461 0.086" stroke="hsl(120.0,100%,35%)" stroke-width="0.00015"></path>
<path d="M0.200 0.655 Q0.288 0.552 0.105 0.486" stroke="hsl(120.0,100%,35%)" stroke-width="0.00062"></path>
<path d="M0.200 0.655 Q0.170 0.614 0.083 0.620" stroke="hsl(120.0,100%,35%)" stroke-width="0.00046"></path>
<path d="M0.083 0.354 Q0.882 0.510 1.362 0.154" stroke="hsl(120.0,100%,35%)" stroke-width="0.00015"></path>
<path d="M0.083 0.354 Q0.300 0.341 0.324 0.233" stroke="hsl(120.0,100%,35%)" stroke-width="0.00062"></path>
<path d="M0.083 0.354 Q0.079 0.556 0.473 0.602" stroke="hsl(120.0,100%,35%)" stroke-width="0.00031"></path>
<path d="M0.083 0.354 Q0.538 0.434 0.795 0.230" stroke="hsl(120.0,100%,35%)" stroke-width="0.00031"></path>
<path d="M0.083 0.354 Q0.790 0.674 1.570 0.400" stroke="hsl(120.0,100%,35%)" stroke-width="0.00015"></path>
<path d="M0.083 0.354 Q-0.100 0.528 0.200 0.655" stroke="hsl(120.0,100%,35%)" stroke-width="0.00015"></path>
<path d="M0.083 0.354 Q0.058 0.774 0.873 0.879" stroke="hsl(120.0,100%,35%)" stroke-width="0.00015"></path>
<path d="M1.795 0.666 Q1.813 0.579 1.647 0.551" stroke="hsl(120.0,100%,35%)" stroke-width="0.00031"></path>
<path d="M1.795 0.666 Q1.584 0.673 1.552 0.778" stroke="hsl(120.0,100%,35%)" stroke-width="0.00434"></path>
<path d="M1.795 0.666 Q1.189 0.167 0.083 0.354" stroke="hsl(120.0,100%,35%)" stroke-width="0.00015"></path>
<path d="M1.795 0.666 Q1.484 0.270 0.643 0.334" stroke="hsl(120.0,100%,35%)" stroke-width="0.00232"></path>
<path d="M1.795 0.666 Q1.644 0.248 0.795 0.230" stroke="hsl(120.0,100%,35%)" stroke-width="0.00031"></path>
<path d="M1.795 0.666 Q1.449 0.375 0.806 0.480" stroke="hsl(120.0,100%,35%)" stroke-width="0.00015"></path>
<path d="M1.795 0.666 Q1.556 0.512 1.202 0.595" stroke="hsl(120.0,100%,35%)" stroke-width="0.00108"></path>
<path d="M1.795 0.666 Q1.992 0.255 1.232 0.068" stroke="hsl(120.0,100%,35%)" stroke-width="0.00046"></path>
<path d="M1.795 0.666 Q1.391 0.429 0.840 0.574" stroke="hsl(120.0,100%,35%)" stroke-width="0.00031"></path>
<path d="M0.840 0.574 Q1.032 0.818 1.552 0.778" stroke="hsl(120.0,100%,35%)" stroke-width="0.00139"></path>
<path d="M0.840 0.574 Q0.898 0.520 0.806 0.480" stroke="hsl(120.0,100%,35%)" stroke-width="0.00651"></path>
<path d="M0.840 0.574 Q0.638 0.312 0.083 0.354" stroke="hsl(120.0,100%,35%)" stroke-width="0.00093"></path>
<path d="M0.840 0.574 Q1.440 0.399 1.232 0.068" stroke="hsl(120.0,100%,35%)" stroke-width="0.00077"></path>
<path d="M0.840 0.574 Q1.092 0.393 0.795 0.230" stroke="hsl(120.0,100%,35%)" stroke-width="0.00170"></path>
<path d="M0.840 0.574 Q1.344 0.633 1.570 0.400" stroke="hsl(120.0,100%,35%)" stroke-width="0.00015"></path>
<path d="M0.840 0.574 Q0.866 0.621 0.964 0.619" stroke="hsl(120.0,100%,35%)" stroke-width="0.00108"></path>
<path d="M0.840 0.574 Q0.612 0.733 0.873 0.879" stroke="hsl(120.0,100%,35%)" stroke-width="0.00046"></path>
<path d="M0.840 0.574 Q1.004 0.657 1.202 0.595" stroke="hsl(120.0,100%,35%)" stroke-width="0.00139"></path>
<path d="M0.840 0.574 Q0.933 0.415 0.643 0.334" stroke="hsl(120.0,100%,35%)" stroke-width="0.00015"></path>
<path d="M0.840 0.574 Q1.213 0.444 1.042 0.234" stroke="hsl(120.0,100%,35%)" stroke-width="0.00031"></path>
<path d="M0.806 0.480 Q0.940 0.778 1.552 0.778" stroke="hsl(120.0,100%,35%)" stroke-width="0.00031"></path>
<path d="M0.806 0.480 Q0.748 0.533 0.840 0.574" stroke="hsl(120.0,100%,35%)" stroke-width="0.00759"></path>
<path d="M0.806 0.480 Q0.912 0.617 1.202 0.595" stroke="hsl(120.0,100%,35%)" stroke-width="0.00015"></path>
<path d="M0.806 0.480 Q0.696 0.635 0.976 0.723" stroke="hsl(120.0,100%,35%)" stroke-width="0.00015"></path>
<path d="M0.806 0.480 Q1.348 0.359 1.232 0.068" stroke="hsl(120.0,100%,35%)" stroke-width="0.00015"></path>
<path d="M1.362 0.154 Q0.563 -0.002 0.083 0.354" stroke="hsl(120.0,100%,35%)" stroke-width="0.00031"></path>
<path d="M1.362 0.154 Q0.538 0.419 0.873 0.879" stroke="hsl(120.0,100%,35%)" stroke-width="0.00031"></path>
<path d="M1.362 0.154 Q0.780 -0.014 0.324 0.233" stroke="hsl(120.0,100%,35%)" stroke-width="0.00031"></path>
<path d="M1.362 0.154 Q1.366 0.085 1.232 0.068" stroke="hsl(120.0,100%,35%)" stroke-width="0.00015"></path>
<path d="M1.362 0.154 Q1.138 0.130 1.042 0.234" stroke="hsl(120.0,100%,35%)" stroke-width="0.00015"></path>
<path d="M1.362 0.154 Q0.448 0.477 0.878 0.994" stroke="hsl(120.0,100%,35%)" stroke-width="0.00015"></path>
<path d="M1.576 0.648 Q1.460 0.708 1.552 0.778" stroke="hsl(120.0,100%,35%)" stroke-width="0.00527"></path>
<path d="M1.576 0.648 Q1.065 0.202 0.083 0.354" stroke="hsl(120.0,100%,35%)" stroke-width="0.00015"></path>
<path d="M1.576 0.648 Q1.689 0.614 1.647 0.551" stroke="hsl(120.0,100%,35%)" stroke-width="0.00015"></path>
<path d="M1.576 0.648 Q1.268 0.464 0.840 0.574" stroke="hsl(120.0,100%,35%)" stroke-width="0.00031"></path>
<path d="M0.964 0.619 Q1.102 0.655 1.202 0.595" stroke="hsl(120.0,100%,35%)" stroke-width="0.00062"></path>
<path d="M0.964 0.619 Q0.938 0.572 0.840 0.574" stroke="hsl(120.0,100%,35%)" stroke-width="0.00155"></path>
<path d="M0.317 0.848 Q0.259 0.795 0.142 0.811" stroke="hsl(120.0,100%,35%)" stroke-width="0.00077"></path>
<path d="M0.317 0.848 Q1.050 0.634 0.795 0.230" stroke="hsl(120.0,100%,35%)" stroke-width="0.00031"></path>
<path d="M0.317 0.848 Q0.500 0.624 0.105 0.486" stroke="hsl(120.0,100%,35%)" stroke-width="0.00046"></path>
<path d="M0.142 0.811 Q0.475 0.773 0.473 0.602" stroke="hsl(120.0,100%,35%)" stroke-width="0.00046"></path>
<path d="M0.142 0.811 Q0.200 0.865 0.317 0.848" stroke="hsl(120.0,100%,35%)" stroke-width="0.00046"></path>
<path d="M0.142 0.811 Q0.342 0.799 0.361 0.699" stroke="hsl(120.0,100%,35%)" stroke-width="0.00015"></path>
<path d="M0.601 0.855 Q1.039 0.603 0.643 0.334" stroke="hsl(0.0,100%,35%)" stroke-width="0.00015"></path>
<path d="M0.601 0.855 Q0.740 0.703 0.473 0.602" stroke="hsl(0.0,100%,35%)" stroke-width="0.00015"></path>
<path d="M0.601 0.855 Q1.548 0.756 1.562 0.272" stroke="hsl(0.0,100%,35%)" stroke-width="0.00015"></path>
<path d="M0.601 0.855 Q0.718 0.922 0.873 0.879" stroke="hsl(0.0,100%,35%)" stroke-width="0.00015"></path>
<path d="M0.601 0.855 Q1.368 0.912 1.647 0.551" stroke="hsl(0.0,100%,35%)" stroke-width="0.00015"></path>
<path d="M1.461 0.086 Q0.463 0.015 0.105 0.486" stroke="hsl(120.0,100%,35%)" stroke-width="0.00015"></path>
<path d="M1.461 0.086 Q1.013 0.025 0.795 0.230" stroke="hsl(120.0,100%,35%)" stroke-width="0.00015"></path>
<path d="M1.461 0.086 Q0.558 -0.056 0.083 0.354" stroke="hsl(120.0,100%,35%)" stroke-width="0.00015"></path>
<path d="M1.461 0.086 Q0.345 0.078 0.083 0.620" stroke="hsl(120.0,100%,35%)" stroke-width="0.00031"></path>
<path d="M1.461 0.086 Q0.953 0.451 1.552 0.778" stroke="hsl(120.0,100%,35%)" stroke-width="0.00015"></path>
<path d="M1.461 0.086 Q1.361 0.032 1.232 0.068" stroke="hsl(120.0,100%,35%)" stroke-width="0.00015"></path>
<path d="M1.138 0.444 Q1.258 0.320 1.042 0.234" stroke="hsl(120.0,100%,35%)" stroke-width="0.00015"></path>
<path d="M1.138 0.444 Q1.078 0.694 1.552 0.778" stroke="hsl(120.0,100%,35%)" stroke-width="0.00031"></path>
<path d="M1.138 0.444 Q1.134 0.490 1.223 0.503" stroke="hsl(120.0,100%,35%)" stroke-width="0.00015"></path>
<path d="M1.378 0.494 Q1.646 0.252 1.232 0.068" stroke="hsl(120.0,100%,35%)" stroke-width="0.00015"></path>
<path d="M1.378 0.494 Q1.238 0.671 1.552 0.778" stroke="hsl(120.0,100%,35%)" stroke-width="0.00015"></path>
<path d="M1.378 0.494 Q1.209 0.510 1.202 0.595" stroke="hsl(120.0,100%,35%)" stroke-width="0.00015"></path>
<path d="M1.869 0.553 Q1.136 0.096 0.083 0.354" stroke="hsl(120.0,100%,35%)" stroke-width="0.00015"></path>
<path d="M1.869 0.553 Q1.531 0.602 1.552 0.778" stroke="hsl(120.0,100%,35%)" stroke-width="0.00031"></path>
<path d="M1.869 0.553 Q1.760 0.508 1.647 0.551" stroke="hsl(120.0,100%,35%)" stroke-width="0.00015"></path>
</g>
<text x="1.832" y="0.410" font-size="0.023766" fill="hsl(0.0,100%,20%)">adlai</text>
<text x="0.873" y="0.854" font-size="0.050528" fill="hsl(0.0,100%,20%)">bsalomon</text>
<text x="1.562" y="0.245" font-size="0.053143" fill="hsl(0.0,100%,20%)">robertphillips</text>
<text x="0.878" y="0.972" font-size="0.043720" fill="hsl(0.0,100%,20%)">csmartdalton</text>
<text x="0.257" y="0.539" font-size="0.021989" fill="hsl(120.0,100%,20%)">rmistry</text>
<text x="0.105" y="0.473" font-size="0.025948" fill="hsl(120.0,100%,20%)">borenet</text>
<text x="1.042" y="0.224" font-size="0.019598" fill="hsl(120.0,100%,20%)">mtklein</text>
<text x="0.548" y="0.446" font-size="0.039712" fill="hsl(0.0,100%,20%)">jvanverth</text>
<text x="1.202" y="0.579" font-size="0.031744" fill="hsl(120.0,100%,20%)">reed</text>
<text x="0.795" y="0.190" font-size="0.079538" fill="hsl(240.0,100%,20%)">brianosman</text>
<text x="1.232" y="0.050" font-size="0.036941" fill="hsl(120.0,100%,20%)">kjlubick</text>
<text x="1.647" y="0.533" font-size="0.036757" fill="hsl(120.0,100%,20%)">herb</text>
<text x="1.552" y="0.760" font-size="0.036573" fill="hsl(120.0,100%,20%)">bungeman</text>
<text x="0.473" y="0.580" font-size="0.043616" fill="hsl(0.0,100%,20%)">egdaniel</text>
<text x="0.543" y="0.129" font-size="0.004753" fill="hsl(120.0,100%,20%)">bajones</text>
<text x="0.643" y="0.293" font-size="0.082985" fill="hsl(240.0,100%,20%)">johnstiles</text>
<text x="0.083" y="0.610" font-size="0.019366" fill="hsl(120.0,100%,20%)">jcgregorio</text>
<text x="0.149" y="0.656" font-size="0.008503" fill="hsl(120.0,100%,20%)">erikrose</text>
<text x="1.570" y="0.375" font-size="0.049352" fill="hsl(0.0,100%,20%)">michaelludwig</text>
<text x="0.324" y="0.225" font-size="0.014573" fill="hsl(120.0,100%,20%)">scroggo</text>
<text x="0.940" y="0.330" font-size="0.049989" fill="hsl(240.0,100%,20%)">ethannicholas</text>
<text x="0.372" y="0.323" font-size="0.010414" fill="hsl(120.0,100%,20%)">westont</text>
<text x="0.200" y="0.650" font-size="0.009741" fill="hsl(120.0,100%,20%)">hcm</text>
<text x="0.083" y="0.346" font-size="0.016189" fill="hsl(120.0,100%,20%)">djsollen</text>
<text x="1.795" y="0.656" font-size="0.020278" fill="hsl(120.0,100%,20%)">jlavrova</text>
<text x="0.840" y="0.558" font-size="0.030658" fill="hsl(120.0,100%,20%)">fmalita</text>
<text x="0.806" y="0.469" font-size="0.021782" fill="hsl(120.0,100%,20%)">jmbetancourt</text>
<text x="0.976" y="0.721" font-size="0.003006" fill="hsl(120.0,100%,20%)">stani</text>
<text x="1.362" y="0.148" font-size="0.012025" fill="hsl(120.0,100%,20%)">nifong</text>
<text x="1.406" y="0.647" font-size="0.002126" fill="hsl(120.0,100%,20%)">grieger</text>
<text x="1.576" y="0.641" font-size="0.013939" fill="hsl(120.0,100%,20%)">drott</text>
<text x="1.079" y="0.920" font-size="0.003006" fill="hsl(0.0,100%,20%)">junov</text>
<text x="0.964" y="0.613" font-size="0.012576" fill="hsl(120.0,100%,20%)">tdenniston</text>
<text x="0.317" y="0.844" font-size="0.007664" fill="hsl(120.0,100%,20%)">cwallez</text>
<text x="0.142" y="0.808" font-size="0.007364" fill="hsl(120.0,100%,20%)">senorblanco</text>
<text x="0.601" y="0.853" font-size="0.004753" fill="hsl(0.0,100%,20%)">emaxx</text>
<text x="1.461" y="0.080" font-size="0.012930" fill="hsl(120.0,100%,20%)">lovisolo</text>
<text x="1.454" y="0.535" font-size="0.002126" fill="hsl(120.0,100%,20%)">jiulongw</text>
<text x="1.138" y="0.442" font-size="0.004251" fill="hsl(120.0,100%,20%)">james</text>
<text x="1.223" y="0.502" font-size="0.002126" fill="hsl(120.0,100%,20%)">cbracken</text>
<text x="1.187" y="0.796" font-size="0.006377" fill="hsl(120.0,100%,20%)">yjbanov</text>
<text x="1.378" y="0.492" font-size="0.003682" fill="hsl(120.0,100%,20%)">pkasting</text>
<text x="1.033" y="0.572" font-size="0.002126" fill="hsl(120.0,100%,20%)">whesse</text>
<text x="1.321" y="0.671" font-size="0.002126" fill="hsl(120.0,100%,20%)">mdebbar</text>
<text x="0.237" y="0.114" font-size="0.003006" fill="hsl(120.0,100%,20%)">nigeltao</text>
<text x="0.361" y="0.698" font-size="0.002126" fill="hsl(120.0,100%,20%)">enga</text>
<text x="1.869" y="0.551" font-size="0.004251" fill="hsl(120.0,100%,20%)">thestig</text>
</svg>
