<svg width="4000" height="2000" viewBox="-0.025 -0.025 2.05 1.05" xmlns="http://www.w3.org/2000/svg">
  <style>
    path {
      fill: none;
      stroke-linecap: round;
      stroke-opacity: 0.4;
    }

    text {
      text-anchor: middle;
      alignment-baseline: hanging;
    }
  </style>
  <g opacity="0.4">
<path d="M1.080 0.347 Q1.255 0.177 0.961 0.054" stroke="hsl(0.0,100%,35%)" stroke-width="0.00018"></path>
<path d="M1.080 0.347 Q0.404 0.345 0.252 0.675" stroke="hsl(0.0,100%,35%)" stroke-width="0.00018"></path>
<path d="M1.080 0.347 Q1.013 0.212 0.735 0.215" stroke="hsl(0.0,100%,35%)" stroke-width="0.00018"></path>
<path d="M1.080 0.347 Q0.721 0.241 0.436 0.393" stroke="hsl(0.0,100%,35%)" stroke-width="0.00018"></path>
<path d="M1.080 0.347 Q0.607 0.482 0.766 0.742" stroke="hsl(0.0,100%,35%)" stroke-width="0.00018"></path>
<path d="M0.961 0.054 Q1.070 0.087 1.158 0.041" stroke="hsl(0.0,100%,35%)" stroke-width="0.00071"></path>
<path d="M0.961 0.054 Q0.719 0.089 0.735 0.215" stroke="hsl(0.0,100%,35%)" stroke-width="0.00053"></path>
<path d="M0.961 0.054 Q-0.012 0.321 0.296 0.854" stroke="hsl(0.0,100%,35%)" stroke-width="0.00088"></path>
<path d="M0.961 0.054 Q0.790 0.442 1.510 0.611" stroke="hsl(0.0,100%,35%)" stroke-width="0.00035"></path>
<path d="M0.961 0.054 Q0.836 0.008 0.718 0.059" stroke="hsl(0.0,100%,35%)" stroke-width="0.00071"></path>
<path d="M0.961 0.054 Q0.313 0.359 0.766 0.742" stroke="hsl(0.0,100%,35%)" stroke-width="0.00053"></path>
<path d="M0.961 0.054 Q0.110 0.222 0.252 0.675" stroke="hsl(0.0,100%,35%)" stroke-width="0.00035"></path>
<path d="M0.961 0.054 Q0.877 0.067 0.884 0.112" stroke="hsl(0.0,100%,35%)" stroke-width="0.00018"></path>
<path d="M0.961 0.054 Q0.427 0.118 0.436 0.393" stroke="hsl(0.0,100%,35%)" stroke-width="0.00018"></path>
<path d="M0.252 0.675 Q0.455 0.811 0.766 0.742" stroke="hsl(180.0,100%,35%)" stroke-width="0.00758"></path>
<path d="M0.252 0.675 Q0.130 0.773 0.296 0.854" stroke="hsl(180.0,100%,35%)" stroke-width="0.01199"></path>
<path d="M0.252 0.675 Q0.229 0.866 0.598 0.919" stroke="hsl(180.0,100%,35%)" stroke-width="0.00018"></path>
<path d="M0.252 0.675 Q0.932 0.895 1.510 0.611" stroke="hsl(180.0,100%,35%)" stroke-width="0.00405"></path>
<path d="M0.252 0.675 Q0.861 0.542 0.735 0.215" stroke="hsl(180.0,100%,35%)" stroke-width="0.00282"></path>
<path d="M0.252 0.675 Q0.568 0.872 1.022 0.761" stroke="hsl(180.0,100%,35%)" stroke-width="0.00353"></path>
<path d="M0.252 0.675 Q0.384 0.554 0.177 0.464" stroke="hsl(180.0,100%,35%)" stroke-width="0.00035"></path>
<path d="M0.252 0.675 Q1.035 0.804 1.460 0.451" stroke="hsl(180.0,100%,35%)" stroke-width="0.00247"></path>
<path d="M0.252 0.675 Q0.535 0.704 0.653 0.572" stroke="hsl(180.0,100%,35%)" stroke-width="0.00035"></path>
<path d="M0.252 0.675 Q0.723 0.744 0.961 0.530" stroke="hsl(180.0,100%,35%)" stroke-width="0.00264"></path>
<path d="M0.252 0.675 Q1.019 0.520 0.884 0.112" stroke="hsl(180.0,100%,35%)" stroke-width="0.00018"></path>
<path d="M0.252 0.675 Q0.569 0.571 0.436 0.393" stroke="hsl(180.0,100%,35%)" stroke-width="0.00176"></path>
<path d="M0.252 0.675 Q0.486 0.943 1.060 0.887" stroke="hsl(180.0,100%,35%)" stroke-width="0.00018"></path>
<path d="M0.252 0.675 Q1.212 0.539 1.158 0.041" stroke="hsl(180.0,100%,35%)" stroke-width="0.00035"></path>
<path d="M0.252 0.675 Q1.107 0.640 1.226 0.215" stroke="hsl(180.0,100%,35%)" stroke-width="0.00018"></path>
<path d="M0.252 0.675 Q0.879 1.060 1.767 0.839" stroke="hsl(180.0,100%,35%)" stroke-width="0.00018"></path>
<path d="M0.252 0.675 Q0.473 0.499 0.179 0.353" stroke="hsl(180.0,100%,35%)" stroke-width="0.00018"></path>
<path d="M0.735 0.215 Q0.126 0.349 0.252 0.675" stroke="hsl(0.0,100%,35%)" stroke-width="0.00811"></path>
<path d="M0.735 0.215 Q0.441 0.546 1.022 0.761" stroke="hsl(0.0,100%,35%)" stroke-width="0.00212"></path>
<path d="M0.735 0.215 Q0.596 0.418 0.961 0.530" stroke="hsl(0.0,100%,35%)" stroke-width="0.00018"></path>
<path d="M0.735 0.215 Q0.980 0.313 1.226 0.215" stroke="hsl(0.0,100%,35%)" stroke-width="0.00212"></path>
<path d="M0.735 0.215 Q0.654 0.316 0.833 0.378" stroke="hsl(0.0,100%,35%)" stroke-width="0.00123"></path>
<path d="M0.735 0.215 Q0.329 0.485 0.766 0.742" stroke="hsl(0.0,100%,35%)" stroke-width="0.00353"></path>
<path d="M0.735 0.215 Q0.004 0.447 0.296 0.854" stroke="hsl(0.0,100%,35%)" stroke-width="0.00194"></path>
<path d="M0.735 0.215 Q0.977 0.180 0.961 0.054" stroke="hsl(0.0,100%,35%)" stroke-width="0.00018"></path>
<path d="M0.735 0.215 Q0.893 0.193 0.884 0.112" stroke="hsl(0.0,100%,35%)" stroke-width="0.00018"></path>
<path d="M0.735 0.215 Q0.443 0.245 0.436 0.393" stroke="hsl(0.0,100%,35%)" stroke-width="0.00018"></path>
<path d="M0.735 0.215 Q0.359 0.616 1.060 0.887" stroke="hsl(0.0,100%,35%)" stroke-width="0.00018"></path>
<path d="M0.735 0.215 Q0.257 0.228 0.177 0.464" stroke="hsl(0.0,100%,35%)" stroke-width="0.00035"></path>
<path d="M0.735 0.215 Q0.408 0.377 0.653 0.572" stroke="hsl(0.0,100%,35%)" stroke-width="0.00018"></path>
<path d="M0.436 0.393 Q-0.003 0.596 0.296 0.854" stroke="hsl(180.0,100%,35%)" stroke-width="0.00053"></path>
<path d="M0.436 0.393 Q0.402 0.526 0.653 0.572" stroke="hsl(180.0,100%,35%)" stroke-width="0.00282"></path>
<path d="M0.436 0.393 Q0.119 0.497 0.252 0.675" stroke="hsl(180.0,100%,35%)" stroke-width="0.00088"></path>
<path d="M0.436 0.393 Q0.799 0.717 1.510 0.611" stroke="hsl(180.0,100%,35%)" stroke-width="0.00176"></path>
<path d="M0.436 0.393 Q0.745 0.882 1.767 0.839" stroke="hsl(180.0,100%,35%)" stroke-width="0.00053"></path>
<path d="M0.436 0.393 Q1.079 0.362 1.158 0.041" stroke="hsl(180.0,100%,35%)" stroke-width="0.00018"></path>
<path d="M0.436 0.393 Q0.590 0.567 0.961 0.530" stroke="hsl(180.0,100%,35%)" stroke-width="0.00088"></path>
<path d="M0.436 0.393 Q0.902 0.627 1.460 0.451" stroke="hsl(180.0,100%,35%)" stroke-width="0.00229"></path>
<path d="M0.436 0.393 Q0.322 0.634 0.766 0.742" stroke="hsl(180.0,100%,35%)" stroke-width="0.00035"></path>
<path d="M0.436 0.393 Q0.886 0.342 0.884 0.112" stroke="hsl(180.0,100%,35%)" stroke-width="0.00018"></path>
<path d="M0.766 0.742 Q1.523 0.470 1.158 0.041" stroke="hsl(0.0,100%,35%)" stroke-width="0.00071"></path>
<path d="M0.766 0.742 Q1.172 0.472 0.735 0.215" stroke="hsl(0.0,100%,35%)" stroke-width="0.01639"></path>
<path d="M0.766 0.742 Q0.695 0.485 0.177 0.464" stroke="hsl(0.0,100%,35%)" stroke-width="0.00370"></path>
<path d="M0.766 0.742 Q0.797 0.874 1.060 0.887" stroke="hsl(0.0,100%,35%)" stroke-width="0.00599"></path>
<path d="M0.766 0.742 Q1.346 0.735 1.460 0.451" stroke="hsl(0.0,100%,35%)" stroke-width="0.00247"></path>
<path d="M0.766 0.742 Q1.415 0.437 0.961 0.054" stroke="hsl(0.0,100%,35%)" stroke-width="0.00405"></path>
<path d="M0.766 0.742 Q0.563 0.606 0.252 0.675" stroke="hsl(0.0,100%,35%)" stroke-width="0.02010"></path>
<path d="M0.766 0.742 Q0.880 0.502 0.436 0.393" stroke="hsl(0.0,100%,35%)" stroke-width="0.00458"></path>
<path d="M0.766 0.742 Q0.879 0.803 1.022 0.761" stroke="hsl(0.0,100%,35%)" stroke-width="0.00599"></path>
<path d="M0.766 0.742 Q0.846 0.635 0.653 0.572" stroke="hsl(0.0,100%,35%)" stroke-width="0.00423"></path>
<path d="M0.766 0.742 Q0.441 0.704 0.296 0.854" stroke="hsl(0.0,100%,35%)" stroke-width="0.00599"></path>
<path d="M0.766 0.742 Q1.034 0.675 0.961 0.530" stroke="hsl(0.0,100%,35%)" stroke-width="0.00300"></path>
<path d="M0.766 0.742 Q1.418 0.571 1.226 0.215" stroke="hsl(0.0,100%,35%)" stroke-width="0.00176"></path>
<path d="M0.766 0.742 Q0.936 0.805 1.095 0.735" stroke="hsl(0.0,100%,35%)" stroke-width="0.00053"></path>
<path d="M0.766 0.742 Q0.540 0.797 0.598 0.919" stroke="hsl(0.0,100%,35%)" stroke-width="0.00159"></path>
<path d="M0.766 0.742 Q0.784 0.430 0.179 0.353" stroke="hsl(0.0,100%,35%)" stroke-width="0.00071"></path>
<path d="M0.766 0.742 Q1.091 0.574 0.833 0.378" stroke="hsl(0.0,100%,35%)" stroke-width="0.00159"></path>
<path d="M0.766 0.742 Q0.620 0.831 0.761 0.922" stroke="hsl(0.0,100%,35%)" stroke-width="0.00035"></path>
<path d="M0.766 0.742 Q0.919 0.629 0.733 0.530" stroke="hsl(0.0,100%,35%)" stroke-width="0.00053"></path>
<path d="M0.766 0.742 Q1.243 0.826 1.510 0.611" stroke="hsl(0.0,100%,35%)" stroke-width="0.00670"></path>
<path d="M0.766 0.742 Q0.781 0.561 0.430 0.514" stroke="hsl(0.0,100%,35%)" stroke-width="0.00071"></path>
<path d="M0.766 0.742 Q0.499 0.834 0.619 0.985" stroke="hsl(0.0,100%,35%)" stroke-width="0.00035"></path>
<path d="M0.766 0.742 Q0.615 0.850 0.793 0.948" stroke="hsl(0.0,100%,35%)" stroke-width="0.00053"></path>
<path d="M0.430 0.514 Q0.091 0.657 0.296 0.854" stroke="hsl(180.0,100%,35%)" stroke-width="0.00335"></path>
<path d="M0.430 0.514 Q0.893 0.779 1.510 0.611" stroke="hsl(180.0,100%,35%)" stroke-width="0.00776"></path>
<path d="M0.430 0.514 Q0.495 0.588 0.653 0.572" stroke="hsl(180.0,100%,35%)" stroke-width="0.00071"></path>
<path d="M0.430 0.514 Q0.530 0.455 0.436 0.393" stroke="hsl(180.0,100%,35%)" stroke-width="0.00071"></path>
<path d="M0.430 0.514 Q0.839 0.944 1.767 0.839" stroke="hsl(180.0,100%,35%)" stroke-width="0.00053"></path>
<path d="M0.430 0.514 Q0.683 0.628 0.961 0.530" stroke="hsl(180.0,100%,35%)" stroke-width="0.00546"></path>
<path d="M0.430 0.514 Q0.416 0.695 0.766 0.742" stroke="hsl(180.0,100%,35%)" stroke-width="0.00141"></path>
<path d="M0.430 0.514 Q0.213 0.559 0.252 0.675" stroke="hsl(180.0,100%,35%)" stroke-width="0.00176"></path>
<path d="M0.430 0.514 Q0.446 0.827 1.060 0.887" stroke="hsl(180.0,100%,35%)" stroke-width="0.00018"></path>
<path d="M0.296 0.854 Q0.417 0.756 0.252 0.675" stroke="hsl(180.0,100%,35%)" stroke-width="0.06328"></path>
<path d="M0.296 0.854 Q0.733 0.953 1.022 0.761" stroke="hsl(180.0,100%,35%)" stroke-width="0.00828"></path>
<path d="M0.296 0.854 Q1.201 0.885 1.460 0.451" stroke="hsl(180.0,100%,35%)" stroke-width="0.00388"></path>
<path d="M0.296 0.854 Q0.635 0.711 0.430 0.514" stroke="hsl(180.0,100%,35%)" stroke-width="0.02609"></path>
<path d="M0.296 0.854 Q1.026 0.623 0.735 0.215" stroke="hsl(180.0,100%,35%)" stroke-width="0.00141"></path>
<path d="M0.296 0.854 Q1.097 0.976 1.510 0.611" stroke="hsl(180.0,100%,35%)" stroke-width="0.01375"></path>
<path d="M0.296 0.854 Q0.549 0.635 0.177 0.464" stroke="hsl(180.0,100%,35%)" stroke-width="0.00088"></path>
<path d="M0.296 0.854 Q0.735 0.652 0.436 0.393" stroke="hsl(180.0,100%,35%)" stroke-width="0.00529"></path>
<path d="M0.296 0.854 Q0.888 0.825 0.961 0.530" stroke="hsl(180.0,100%,35%)" stroke-width="0.00423"></path>
<path d="M0.296 0.854 Q1.044 1.141 1.767 0.839" stroke="hsl(180.0,100%,35%)" stroke-width="0.00529"></path>
<path d="M0.296 0.854 Q0.700 0.785 0.653 0.572" stroke="hsl(180.0,100%,35%)" stroke-width="0.00881"></path>
<path d="M0.296 0.854 Q0.638 0.580 0.179 0.353" stroke="hsl(180.0,100%,35%)" stroke-width="0.00053"></path>
<path d="M0.296 0.854 Q1.377 0.620 1.158 0.041" stroke="hsl(180.0,100%,35%)" stroke-width="0.00123"></path>
<path d="M0.296 0.854 Q0.470 1.000 0.793 0.948" stroke="hsl(180.0,100%,35%)" stroke-width="0.00035"></path>
<path d="M0.296 0.854 Q0.620 0.892 0.766 0.742" stroke="hsl(180.0,100%,35%)" stroke-width="0.01111"></path>
<path d="M0.296 0.854 Q1.269 0.587 0.961 0.054" stroke="hsl(180.0,100%,35%)" stroke-width="0.00035"></path>
<path d="M0.296 0.854 Q1.143 0.541 0.718 0.059" stroke="hsl(180.0,100%,35%)" stroke-width="0.00018"></path>
<path d="M0.296 0.854 Q0.791 0.955 1.095 0.735" stroke="hsl(180.0,100%,35%)" stroke-width="0.00053"></path>
<path d="M0.296 0.854 Q0.774 0.779 0.733 0.530" stroke="hsl(180.0,100%,35%)" stroke-width="0.00159"></path>
<path d="M0.296 0.854 Q0.394 0.947 0.598 0.919" stroke="hsl(180.0,100%,35%)" stroke-width="0.00035"></path>
<path d="M0.296 0.854 Q0.651 1.024 1.060 0.887" stroke="hsl(180.0,100%,35%)" stroke-width="0.00018"></path>
<path d="M0.296 0.854 Q1.272 0.721 1.226 0.215" stroke="hsl(180.0,100%,35%)" stroke-width="0.00018"></path>
<path d="M1.510 0.611 Q1.148 0.287 0.436 0.393" stroke="hsl(180.0,100%,35%)" stroke-width="0.00141"></path>
<path d="M1.510 0.611 Q1.301 0.461 0.961 0.530" stroke="hsl(180.0,100%,35%)" stroke-width="0.00282"></path>
<path d="M1.510 0.611 Q1.614 0.521 1.460 0.451" stroke="hsl(180.0,100%,35%)" stroke-width="0.02186"></path>
<path d="M1.510 0.611 Q1.048 0.347 0.430 0.514" stroke="hsl(180.0,100%,35%)" stroke-width="0.00141"></path>
<path d="M1.510 0.611 Q0.831 0.391 0.252 0.675" stroke="hsl(180.0,100%,35%)" stroke-width="0.01622"></path>
<path d="M1.510 0.611 Q0.709 0.490 0.296 0.854" stroke="hsl(180.0,100%,35%)" stroke-width="0.00353"></path>
<path d="M1.510 0.611 Q1.457 0.776 1.767 0.839" stroke="hsl(180.0,100%,35%)" stroke-width="0.00494"></path>
<path d="M1.510 0.611 Q1.113 0.420 0.653 0.572" stroke="hsl(180.0,100%,35%)" stroke-width="0.00212"></path>
<path d="M1.510 0.611 Q1.146 0.589 1.022 0.761" stroke="hsl(180.0,100%,35%)" stroke-width="0.00123"></path>
<path d="M1.510 0.611 Q1.034 0.528 0.766 0.742" stroke="hsl(180.0,100%,35%)" stroke-width="0.00071"></path>
<path d="M1.510 0.611 Q1.440 0.258 0.735 0.215" stroke="hsl(180.0,100%,35%)" stroke-width="0.00035"></path>
<path d="M1.510 0.611 Q0.962 0.271 0.177 0.464" stroke="hsl(180.0,100%,35%)" stroke-width="0.00035"></path>
<path d="M0.653 0.572 Q0.687 0.439 0.436 0.393" stroke="hsl(180.0,100%,35%)" stroke-width="0.00388"></path>
<path d="M0.653 0.572 Q0.249 0.642 0.296 0.854" stroke="hsl(180.0,100%,35%)" stroke-width="0.00035"></path>
<path d="M0.653 0.572 Q0.573 0.680 0.766 0.742" stroke="hsl(180.0,100%,35%)" stroke-width="0.00123"></path>
<path d="M0.653 0.572 Q1.154 0.673 1.460 0.451" stroke="hsl(180.0,100%,35%)" stroke-width="0.00071"></path>
<path d="M0.653 0.572 Q0.841 0.612 0.961 0.530" stroke="hsl(180.0,100%,35%)" stroke-width="0.00529"></path>
<path d="M0.653 0.572 Q0.370 0.543 0.252 0.675" stroke="hsl(180.0,100%,35%)" stroke-width="0.00018"></path>
<path d="M0.653 0.572 Q0.997 0.928 1.767 0.839" stroke="hsl(180.0,100%,35%)" stroke-width="0.00035"></path>
<path d="M0.653 0.572 Q1.330 0.408 1.158 0.041" stroke="hsl(180.0,100%,35%)" stroke-width="0.00018"></path>
<path d="M0.653 0.572 Q1.050 0.763 1.510 0.611" stroke="hsl(180.0,100%,35%)" stroke-width="0.00071"></path>
<path d="M0.653 0.572 Q0.686 0.740 1.022 0.761" stroke="hsl(180.0,100%,35%)" stroke-width="0.00018"></path>
<path d="M0.653 0.572 Q0.591 0.368 0.179 0.353" stroke="hsl(180.0,100%,35%)" stroke-width="0.00018"></path>
<path d="M1.767 0.839 Q1.821 0.674 1.510 0.611" stroke="hsl(180.0,100%,35%)" stroke-width="0.00476"></path>
<path d="M1.767 0.839 Q1.458 0.350 0.436 0.393" stroke="hsl(180.0,100%,35%)" stroke-width="0.00159"></path>
<path d="M1.767 0.839 Q1.141 0.454 0.252 0.675" stroke="hsl(180.0,100%,35%)" stroke-width="0.00088"></path>
<path d="M1.767 0.839 Q1.019 0.552 0.296 0.854" stroke="hsl(180.0,100%,35%)" stroke-width="0.00247"></path>
<path d="M1.767 0.839 Q1.611 0.523 0.961 0.530" stroke="hsl(180.0,100%,35%)" stroke-width="0.00194"></path>
<path d="M1.767 0.839 Q1.924 0.583 1.460 0.451" stroke="hsl(180.0,100%,35%)" stroke-width="0.00194"></path>
<path d="M1.767 0.839 Q1.344 0.590 0.766 0.742" stroke="hsl(180.0,100%,35%)" stroke-width="0.00018"></path>
<path d="M1.767 0.839 Q1.497 0.477 0.733 0.530" stroke="hsl(180.0,100%,35%)" stroke-width="0.00018"></path>
<path d="M1.767 0.839 Q1.423 0.483 0.653 0.572" stroke="hsl(180.0,100%,35%)" stroke-width="0.00035"></path>
<path d="M1.767 0.839 Q1.992 0.285 0.961 0.054" stroke="hsl(180.0,100%,35%)" stroke-width="0.00018"></path>
<path d="M0.961 0.530 Q1.170 0.680 1.510 0.611" stroke="hsl(180.0,100%,35%)" stroke-width="0.01234"></path>
<path d="M0.961 0.530 Q0.708 0.416 0.430 0.514" stroke="hsl(180.0,100%,35%)" stroke-width="0.00546"></path>
<path d="M0.961 0.530 Q0.808 0.357 0.436 0.393" stroke="hsl(180.0,100%,35%)" stroke-width="0.00353"></path>
<path d="M0.961 0.530 Q0.491 0.461 0.252 0.675" stroke="hsl(180.0,100%,35%)" stroke-width="0.00599"></path>
<path d="M0.961 0.530 Q1.345 0.425 1.226 0.215" stroke="hsl(180.0,100%,35%)" stroke-width="0.00035"></path>
<path d="M0.961 0.530 Q1.100 0.327 0.735 0.215" stroke="hsl(180.0,100%,35%)" stroke-width="0.00071"></path>
<path d="M0.961 0.530 Q0.369 0.559 0.296 0.854" stroke="hsl(180.0,100%,35%)" stroke-width="0.00194"></path>
<path d="M0.961 0.530 Q0.806 0.658 1.022 0.761" stroke="hsl(180.0,100%,35%)" stroke-width="0.00141"></path>
<path d="M0.961 0.530 Q1.274 0.590 1.460 0.451" stroke="hsl(180.0,100%,35%)" stroke-width="0.00635"></path>
<path d="M0.961 0.530 Q1.117 0.845 1.767 0.839" stroke="hsl(180.0,100%,35%)" stroke-width="0.00370"></path>
<path d="M0.961 0.530 Q1.342 0.292 0.961 0.054" stroke="hsl(180.0,100%,35%)" stroke-width="0.00018"></path>
<path d="M0.961 0.530 Q0.773 0.489 0.653 0.572" stroke="hsl(180.0,100%,35%)" stroke-width="0.00723"></path>
<path d="M0.961 0.530 Q0.694 0.597 0.766 0.742" stroke="hsl(180.0,100%,35%)" stroke-width="0.00106"></path>
<path d="M0.961 0.530 Q0.622 0.340 0.177 0.464" stroke="hsl(180.0,100%,35%)" stroke-width="0.00053"></path>
<path d="M1.060 0.887 Q1.029 0.756 0.766 0.742" stroke="hsl(0.0,100%,35%)" stroke-width="0.01957"></path>
<path d="M1.060 0.887 Q0.704 0.718 0.296 0.854" stroke="hsl(0.0,100%,35%)" stroke-width="0.00176"></path>
<path d="M1.060 0.887 Q0.803 0.811 0.598 0.919" stroke="hsl(0.0,100%,35%)" stroke-width="0.00018"></path>
<path d="M1.060 0.887 Q1.297 0.689 0.961 0.530" stroke="hsl(0.0,100%,35%)" stroke-width="0.00018"></path>
<path d="M1.060 0.887 Q1.182 0.643 0.733 0.530" stroke="hsl(0.0,100%,35%)" stroke-width="0.00018"></path>
<path d="M1.060 0.887 Q0.826 0.620 0.252 0.675" stroke="hsl(0.0,100%,35%)" stroke-width="0.00088"></path>
<path d="M1.060 0.887 Q1.452 1.005 1.767 0.839" stroke="hsl(0.0,100%,35%)" stroke-width="0.00018"></path>
<path d="M1.060 0.887 Q1.199 0.819 1.095 0.735" stroke="hsl(0.0,100%,35%)" stroke-width="0.00035"></path>
<path d="M1.060 0.887 Q1.435 0.486 0.735 0.215" stroke="hsl(0.0,100%,35%)" stroke-width="0.00018"></path>
<path d="M1.060 0.887 Q1.354 0.588 0.833 0.378" stroke="hsl(0.0,100%,35%)" stroke-width="0.00018"></path>
<path d="M0.959 -0.369 Q0.451 0.232 1.510 0.611" stroke="hsl(180.0,100%,35%)" stroke-width="0.00018"></path>
<path d="M0.959 -0.369 Q-0.026 0.148 0.766 0.742" stroke="hsl(180.0,100%,35%)" stroke-width="0.00018"></path>
<path d="M0.959 -0.369 Q0.087 0.209 1.022 0.761" stroke="hsl(180.0,100%,35%)" stroke-width="0.00018"></path>
<path d="M1.022 0.761 Q0.706 0.564 0.252 0.675" stroke="hsl(180.0,100%,35%)" stroke-width="0.01022"></path>
<path d="M1.022 0.761 Q0.584 0.663 0.296 0.854" stroke="hsl(180.0,100%,35%)" stroke-width="0.00247"></path>
<path d="M1.022 0.761 Q1.177 0.633 0.961 0.530" stroke="hsl(180.0,100%,35%)" stroke-width="0.00370"></path>
<path d="M1.022 0.761 Q0.909 0.701 0.766 0.742" stroke="hsl(180.0,100%,35%)" stroke-width="0.00423"></path>
<path d="M1.022 0.761 Q1.315 0.431 0.735 0.215" stroke="hsl(180.0,100%,35%)" stroke-width="0.00018"></path>
<path d="M1.022 0.761 Q1.490 0.694 1.460 0.451" stroke="hsl(180.0,100%,35%)" stroke-width="0.00035"></path>
<path d="M1.022 0.761 Q1.386 0.784 1.510 0.611" stroke="hsl(180.0,100%,35%)" stroke-width="0.00053"></path>
<path d="M1.022 0.761 Q0.838 0.444 0.177 0.464" stroke="hsl(180.0,100%,35%)" stroke-width="0.00018"></path>
<path d="M1.216 0.550 Q1.417 0.549 1.460 0.451" stroke="hsl(180.0,100%,35%)" stroke-width="0.00018"></path>
<path d="M1.216 0.550 Q0.951 0.316 0.436 0.393" stroke="hsl(180.0,100%,35%)" stroke-width="0.00018"></path>
<path d="M1.216 0.550 Q1.105 0.489 0.961 0.530" stroke="hsl(180.0,100%,35%)" stroke-width="0.00035"></path>
<path d="M1.460 0.451 Q1.356 0.541 1.510 0.611" stroke="hsl(180.0,100%,35%)" stroke-width="0.00899"></path>
<path d="M1.460 0.451 Q0.994 0.217 0.436 0.393" stroke="hsl(180.0,100%,35%)" stroke-width="0.00599"></path>
<path d="M1.460 0.451 Q0.959 0.350 0.653 0.572" stroke="hsl(180.0,100%,35%)" stroke-width="0.00670"></path>
<path d="M1.460 0.451 Q0.880 0.458 0.766 0.742" stroke="hsl(180.0,100%,35%)" stroke-width="0.00088"></path>
<path d="M1.460 0.451 Q0.677 0.321 0.252 0.675" stroke="hsl(180.0,100%,35%)" stroke-width="0.00264"></path>
<path d="M1.460 0.451 Q1.147 0.390 0.961 0.530" stroke="hsl(180.0,100%,35%)" stroke-width="0.01287"></path>
<path d="M1.460 0.451 Q1.528 0.152 0.961 0.054" stroke="hsl(180.0,100%,35%)" stroke-width="0.00053"></path>
<path d="M1.460 0.451 Q1.443 0.166 0.884 0.112" stroke="hsl(180.0,100%,35%)" stroke-width="0.00018"></path>
<path d="M1.460 0.451 Q0.808 0.201 0.177 0.464" stroke="hsl(180.0,100%,35%)" stroke-width="0.00053"></path>
<path d="M1.460 0.451 Q0.992 0.518 1.022 0.761" stroke="hsl(180.0,100%,35%)" stroke-width="0.00018"></path>
<path d="M1.460 0.451 Q0.555 0.420 0.296 0.854" stroke="hsl(180.0,100%,35%)" stroke-width="0.00212"></path>
<path d="M0.598 0.919 Q0.673 0.973 0.793 0.948" stroke="hsl(0.0,100%,35%)" stroke-width="0.00053"></path>
<path d="M0.598 0.919 Q0.854 0.996 1.060 0.887" stroke="hsl(0.0,100%,35%)" stroke-width="0.00018"></path>
<path d="M0.598 0.919 Q0.823 0.865 0.766 0.742" stroke="hsl(0.0,100%,35%)" stroke-width="0.00071"></path>
<path d="M0.598 0.919 Q1.091 0.797 0.961 0.530" stroke="hsl(0.0,100%,35%)" stroke-width="0.00018"></path>
<path d="M0.793 0.948 Q1.524 0.833 1.460 0.451" stroke="hsl(0.0,100%,35%)" stroke-width="0.00018"></path>
<path d="M0.793 0.948 Q0.944 0.840 0.766 0.742" stroke="hsl(0.0,100%,35%)" stroke-width="0.00035"></path>
<path d="M0.793 0.948 Q1.114 0.902 1.095 0.735" stroke="hsl(0.0,100%,35%)" stroke-width="0.00018"></path>
<path d="M0.793 0.948 Q0.974 0.971 1.060 0.887" stroke="hsl(0.0,100%,35%)" stroke-width="0.00018"></path>
<path d="M0.793 0.948 Q0.718 0.894 0.598 0.919" stroke="hsl(0.0,100%,35%)" stroke-width="0.00018"></path>
<path d="M0.177 0.464 Q1.045 0.638 1.575 0.252" stroke="hsl(0.0,100%,35%)" stroke-width="0.00018"></path>
<path d="M0.177 0.464 Q0.655 0.451 0.735 0.215" stroke="hsl(0.0,100%,35%)" stroke-width="0.00106"></path>
<path d="M0.177 0.464 Q0.249 0.721 0.766 0.742" stroke="hsl(0.0,100%,35%)" stroke-width="0.00264"></path>
<path d="M0.177 0.464 Q-0.076 0.683 0.296 0.854" stroke="hsl(0.0,100%,35%)" stroke-width="0.00018"></path>
<path d="M0.177 0.464 Q0.267 0.409 0.179 0.353" stroke="hsl(0.0,100%,35%)" stroke-width="0.00335"></path>
<path d="M0.177 0.464 Q0.046 0.584 0.252 0.675" stroke="hsl(0.0,100%,35%)" stroke-width="0.00176"></path>
<path d="M0.177 0.464 Q0.829 0.714 1.460 0.451" stroke="hsl(0.0,100%,35%)" stroke-width="0.00035"></path>
<path d="M0.177 0.464 Q0.517 0.654 0.961 0.530" stroke="hsl(0.0,100%,35%)" stroke-width="0.00018"></path>
<path d="M0.177 0.464 Q0.898 0.416 0.961 0.054" stroke="hsl(0.0,100%,35%)" stroke-width="0.00018"></path>
<path d="M0.177 0.464 Q0.119 0.451 0.081 0.476" stroke="hsl(0.0,100%,35%)" stroke-width="0.00018"></path>
<path d="M1.158 0.041 Q0.515 0.073 0.436 0.393" stroke="hsl(0.0,100%,35%)" stroke-width="0.00088"></path>
<path d="M1.158 0.041 Q0.401 0.313 0.766 0.742" stroke="hsl(0.0,100%,35%)" stroke-width="0.00018"></path>
<path d="M1.158 0.041 Q0.077 0.275 0.296 0.854" stroke="hsl(0.0,100%,35%)" stroke-width="0.00088"></path>
<path d="M1.158 0.041 Q1.050 0.008 0.961 0.054" stroke="hsl(0.0,100%,35%)" stroke-width="0.00247"></path>
<path d="M1.158 0.041 Q0.982 0.306 1.460 0.451" stroke="hsl(0.0,100%,35%)" stroke-width="0.00088"></path>
<path d="M1.158 0.041 Q0.481 0.206 0.653 0.572" stroke="hsl(0.0,100%,35%)" stroke-width="0.00053"></path>
<path d="M1.158 0.041 Q0.924 -0.038 0.718 0.059" stroke="hsl(0.0,100%,35%)" stroke-width="0.00018"></path>
<path d="M1.158 0.041 Q0.198 0.177 0.252 0.675" stroke="hsl(0.0,100%,35%)" stroke-width="0.00018"></path>
<path d="M1.158 0.041 Q0.807 0.044 0.735 0.215" stroke="hsl(0.0,100%,35%)" stroke-width="0.00018"></path>
<path d="M1.226 0.215 Q0.980 0.117 0.735 0.215" stroke="hsl(0.0,100%,35%)" stroke-width="0.00476"></path>
<path d="M1.226 0.215 Q0.574 0.387 0.766 0.742" stroke="hsl(0.0,100%,35%)" stroke-width="0.00106"></path>
<path d="M1.226 0.215 Q0.371 0.250 0.252 0.675" stroke="hsl(0.0,100%,35%)" stroke-width="0.00053"></path>
<path d="M1.226 0.215 Q0.654 0.279 0.653 0.572" stroke="hsl(0.0,100%,35%)" stroke-width="0.00018"></path>
<path d="M1.226 0.215 Q0.605 0.518 1.060 0.887" stroke="hsl(0.0,100%,35%)" stroke-width="0.00018"></path>
<path d="M1.226 0.215 Q1.051 0.470 1.510 0.611" stroke="hsl(0.0,100%,35%)" stroke-width="0.00018"></path>
<path d="M1.226 0.215 Q0.503 0.130 0.177 0.464" stroke="hsl(0.0,100%,35%)" stroke-width="0.00018"></path>
<path d="M1.226 0.215 Q0.899 0.218 0.833 0.378" stroke="hsl(0.0,100%,35%)" stroke-width="0.00018"></path>
<path d="M0.179 0.353 Q0.161 0.665 0.766 0.742" stroke="hsl(0.0,100%,35%)" stroke-width="0.00106"></path>
<path d="M0.179 0.353 Q0.089 0.408 0.177 0.464" stroke="hsl(0.0,100%,35%)" stroke-width="0.00529"></path>
<path d="M0.179 0.353 Q0.638 0.748 1.510 0.611" stroke="hsl(0.0,100%,35%)" stroke-width="0.00018"></path>
<path d="M0.179 0.353 Q0.741 0.658 1.460 0.451" stroke="hsl(0.0,100%,35%)" stroke-width="0.00018"></path>
<path d="M0.300 0.280 Q0.278 0.364 0.436 0.393" stroke="hsl(180.0,100%,35%)" stroke-width="0.00300"></path>
<path d="M0.300 0.280 Q0.744 0.597 1.460 0.451" stroke="hsl(180.0,100%,35%)" stroke-width="0.00088"></path>
<path d="M0.300 0.280 Q0.587 0.853 1.767 0.839" stroke="hsl(180.0,100%,35%)" stroke-width="0.00018"></path>
<path d="M0.300 0.280 Q-0.161 0.566 0.296 0.854" stroke="hsl(180.0,100%,35%)" stroke-width="0.00018"></path>
<path d="M0.300 0.280 Q-0.040 0.468 0.252 0.675" stroke="hsl(180.0,100%,35%)" stroke-width="0.00018"></path>
<path d="M0.300 0.280 Q0.431 0.537 0.961 0.530" stroke="hsl(180.0,100%,35%)" stroke-width="0.00071"></path>
<path d="M0.300 0.280 Q0.163 0.605 0.766 0.742" stroke="hsl(180.0,100%,35%)" stroke-width="0.00053"></path>
<path d="M0.833 0.378 Q0.914 0.277 0.735 0.215" stroke="hsl(0.0,100%,35%)" stroke-width="0.00952"></path>
<path d="M0.833 0.378 Q1.160 0.375 1.226 0.215" stroke="hsl(0.0,100%,35%)" stroke-width="0.00035"></path>
<path d="M0.833 0.378 Q0.508 0.547 0.766 0.742" stroke="hsl(0.0,100%,35%)" stroke-width="0.00405"></path>
<path d="M0.833 0.378 Q0.305 0.410 0.252 0.675" stroke="hsl(0.0,100%,35%)" stroke-width="0.00071"></path>
<path d="M0.833 0.378 Q0.623 0.306 0.436 0.393" stroke="hsl(0.0,100%,35%)" stroke-width="0.00018"></path>
<path d="M0.833 0.378 Q0.437 0.290 0.177 0.464" stroke="hsl(0.0,100%,35%)" stroke-width="0.00018"></path>
<path d="M0.833 0.378 Q1.031 0.195 0.718 0.059" stroke="hsl(0.0,100%,35%)" stroke-width="0.00018"></path>
<path d="M0.833 0.378 Q1.157 0.242 0.961 0.054" stroke="hsl(0.0,100%,35%)" stroke-width="0.00018"></path>
<path d="M0.619 0.985 Q0.684 0.757 0.252 0.675" stroke="hsl(0.0,100%,35%)" stroke-width="0.00212"></path>
<path d="M0.619 0.985 Q1.535 0.588 0.961 0.054" stroke="hsl(0.0,100%,35%)" stroke-width="0.00071"></path>
<path d="M0.619 0.985 Q1.451 0.601 0.884 0.112" stroke="hsl(0.0,100%,35%)" stroke-width="0.00018"></path>
<path d="M0.733 0.530 Q0.579 0.643 0.766 0.742" stroke="hsl(0.0,100%,35%)" stroke-width="0.00476"></path>
<path d="M0.733 0.530 Q0.610 0.774 1.060 0.887" stroke="hsl(0.0,100%,35%)" stroke-width="0.00053"></path>
<path d="M0.733 0.530 Q0.750 0.705 1.095 0.735" stroke="hsl(0.0,100%,35%)" stroke-width="0.00035"></path>
<path d="M0.733 0.530 Q0.847 0.576 0.961 0.530" stroke="hsl(0.0,100%,35%)" stroke-width="0.00071"></path>
<path d="M0.733 0.530 Q0.985 0.373 0.735 0.215" stroke="hsl(0.0,100%,35%)" stroke-width="0.00018"></path>
<path d="M0.733 0.530 Q1.376 0.560 1.575 0.252" stroke="hsl(0.0,100%,35%)" stroke-width="0.00035"></path>
<path d="M0.733 0.530 Q1.573 0.557 1.809 0.153" stroke="hsl(0.0,100%,35%)" stroke-width="0.00018"></path>
<path d="M0.733 0.530 Q0.255 0.605 0.296 0.854" stroke="hsl(0.0,100%,35%)" stroke-width="0.00071"></path>
<path d="M0.733 0.530 Q0.429 0.751 0.793 0.948" stroke="hsl(0.0,100%,35%)" stroke-width="0.00018"></path>
<path d="M0.733 0.530 Q0.353 0.698 0.598 0.919" stroke="hsl(0.0,100%,35%)" stroke-width="0.00018"></path>
<path d="M0.733 0.530 Q0.376 0.506 0.252 0.675" stroke="hsl(0.0,100%,35%)" stroke-width="0.00035"></path>
<path d="M1.575 0.252 Q0.553 0.390 0.598 0.919" stroke="hsl(0.0,100%,35%)" stroke-width="0.00035"></path>
<path d="M1.575 0.252 Q1.772 0.249 1.809 0.153" stroke="hsl(0.0,100%,35%)" stroke-width="0.00264"></path>
<path d="M1.575 0.252 Q0.779 0.336 0.766 0.742" stroke="hsl(0.0,100%,35%)" stroke-width="0.00018"></path>
<path d="M1.575 0.252 Q0.932 0.223 0.733 0.530" stroke="hsl(0.0,100%,35%)" stroke-width="0.00106"></path>
<path d="M1.575 0.252 Q1.359 0.328 1.460 0.451" stroke="hsl(0.0,100%,35%)" stroke-width="0.00018"></path>
<path d="M0.678 0.466 Q0.615 0.381 0.436 0.393" stroke="hsl(180.0,100%,35%)" stroke-width="0.00053"></path>
<path d="M0.678 0.466 Q0.925 0.870 1.767 0.839" stroke="hsl(180.0,100%,35%)" stroke-width="0.00018"></path>
<path d="M0.678 0.466 Q0.978 0.705 1.510 0.611" stroke="hsl(180.0,100%,35%)" stroke-width="0.00035"></path>
<path d="M0.678 0.466 Q0.298 0.485 0.252 0.675" stroke="hsl(180.0,100%,35%)" stroke-width="0.00035"></path>
<path d="M0.678 0.466 Q0.769 0.555 0.961 0.530" stroke="hsl(180.0,100%,35%)" stroke-width="0.00018"></path>
<path d="M1.150 0.372 Q1.313 0.309 1.226 0.215" stroke="hsl(0.0,100%,35%)" stroke-width="0.00018"></path>
<path d="M1.150 0.372 Q0.662 0.481 0.766 0.742" stroke="hsl(0.0,100%,35%)" stroke-width="0.00018"></path>
<path d="M1.150 0.372 Q0.459 0.344 0.252 0.675" stroke="hsl(0.0,100%,35%)" stroke-width="0.00018"></path>
<path d="M1.372 0.780 Q1.100 0.640 0.766 0.742" stroke="hsl(0.0,100%,35%)" stroke-width="0.00018"></path>
<path d="M1.372 0.780 Q0.897 0.503 0.252 0.675" stroke="hsl(0.0,100%,35%)" stroke-width="0.00018"></path>
<path d="M1.372 0.780 Q1.748 0.335 0.961 0.054" stroke="hsl(0.0,100%,35%)" stroke-width="0.00018"></path>
<path d="M0.489 0.724 Q0.409 0.652 0.252 0.675" stroke="hsl(0.0,100%,35%)" stroke-width="0.00053"></path>
<path d="M0.489 0.724 Q0.541 0.532 0.177 0.464" stroke="hsl(0.0,100%,35%)" stroke-width="0.00018"></path>
<path d="M0.489 0.724 Q1.018 0.519 0.735 0.215" stroke="hsl(0.0,100%,35%)" stroke-width="0.00035"></path>
<path d="M1.156 0.450 Q0.524 0.382 0.252 0.675" stroke="hsl(180.0,100%,35%)" stroke-width="0.00018"></path>
<path d="M1.156 0.450 Q1.204 0.602 1.510 0.611" stroke="hsl(180.0,100%,35%)" stroke-width="0.00035"></path>
<path d="M1.156 0.450 Q0.728 0.518 0.766 0.742" stroke="hsl(180.0,100%,35%)" stroke-width="0.00018"></path>
<path d="M1.156 0.450 Q0.995 0.451 0.961 0.530" stroke="hsl(180.0,100%,35%)" stroke-width="0.00035"></path>
<path d="M1.156 0.450 Q0.842 0.278 0.436 0.393" stroke="hsl(180.0,100%,35%)" stroke-width="0.00018"></path>
<path d="M0.481 0.248 Q0.156 0.295 0.177 0.464" stroke="hsl(0.0,100%,35%)" stroke-width="0.00194"></path>
<path d="M0.481 0.248 Q0.634 0.282 0.735 0.215" stroke="hsl(0.0,100%,35%)" stroke-width="0.00194"></path>
<path d="M0.481 0.248 Q0.025 0.416 0.252 0.675" stroke="hsl(0.0,100%,35%)" stroke-width="0.00141"></path>
<path d="M0.481 0.248 Q0.808 0.545 1.460 0.451" stroke="hsl(0.0,100%,35%)" stroke-width="0.00018"></path>
<path d="M1.327 0.149 Q1.220 0.028 0.961 0.054" stroke="hsl(0.0,100%,35%)" stroke-width="0.00088"></path>
<path d="M1.327 0.149 Q0.369 0.197 0.252 0.675" stroke="hsl(0.0,100%,35%)" stroke-width="0.00018"></path>
<path d="M1.327 0.149 Q0.685 0.394 1.022 0.761" stroke="hsl(0.0,100%,35%)" stroke-width="0.00018"></path>
<path d="M1.522 0.828 Q1.689 0.717 1.510 0.611" stroke="hsl(180.0,100%,35%)" stroke-width="0.00194"></path>
<path d="M1.522 0.828 Q1.327 0.393 0.436 0.393" stroke="hsl(180.0,100%,35%)" stroke-width="0.00106"></path>
<path d="M1.522 0.828 Q1.793 0.627 1.460 0.451" stroke="hsl(180.0,100%,35%)" stroke-width="0.00018"></path>
<path d="M1.522 0.828 Q1.009 0.497 0.252 0.675" stroke="hsl(180.0,100%,35%)" stroke-width="0.00053"></path>
<path d="M1.522 0.828 Q1.969 0.362 1.158 0.041" stroke="hsl(180.0,100%,35%)" stroke-width="0.00018"></path>
<path d="M1.522 0.828 Q1.325 0.694 1.022 0.761" stroke="hsl(180.0,100%,35%)" stroke-width="0.00018"></path>
<path d="M1.522 0.828 Q1.619 0.364 0.735 0.215" stroke="hsl(180.0,100%,35%)" stroke-width="0.00018"></path>
<path d="M0.542 0.603 Q0.340 0.581 0.252 0.675" stroke="hsl(180.0,100%,35%)" stroke-width="0.00088"></path>
<path d="M0.542 0.603 Q0.655 0.778 1.022 0.761" stroke="hsl(180.0,100%,35%)" stroke-width="0.00018"></path>
<path d="M0.542 0.603 Q0.218 0.679 0.296 0.854" stroke="hsl(180.0,100%,35%)" stroke-width="0.00018"></path>
<path d="M0.542 0.603 Q0.810 0.650 0.961 0.530" stroke="hsl(180.0,100%,35%)" stroke-width="0.00035"></path>
<path d="M1.273 0.696 Q1.460 0.701 1.510 0.611" stroke="hsl(180.0,100%,35%)" stroke-width="0.00176"></path>
<path d="M1.273 0.696 Q1.097 0.377 0.436 0.393" stroke="hsl(180.0,100%,35%)" stroke-width="0.00106"></path>
<path d="M1.273 0.696 Q1.251 0.551 0.961 0.530" stroke="hsl(180.0,100%,35%)" stroke-width="0.00088"></path>
<path d="M1.273 0.696 Q0.780 0.481 0.252 0.675" stroke="hsl(180.0,100%,35%)" stroke-width="0.00053"></path>
<path d="M1.273 0.696 Q1.096 0.679 1.022 0.761" stroke="hsl(180.0,100%,35%)" stroke-width="0.00018"></path>
<path d="M1.273 0.696 Q0.983 0.618 0.766 0.742" stroke="hsl(180.0,100%,35%)" stroke-width="0.00053"></path>
<path d="M1.273 0.696 Q1.063 0.510 0.653 0.572" stroke="hsl(180.0,100%,35%)" stroke-width="0.00018"></path>
</g>
<text x="1.080" y="0.344" font-size="0.005155" fill="hsl(0.0,100%,20%)">aperez</text>
<text x="0.961" y="0.043" font-size="0.021003" fill="hsl(0.0,100%,20%)">scroggo</text>
<text x="0.252" y="0.638" font-size="0.073953" fill="hsl(180.0,100%,20%)">brianosman</text>
<text x="0.735" y="0.194" font-size="0.043007" fill="hsl(0.0,100%,20%)">bungeman</text>
<text x="0.436" y="0.375" font-size="0.037529" fill="hsl(180.0,100%,20%)">egdaniel</text>
<text x="0.766" y="0.707" font-size="0.069850" fill="hsl(0.0,100%,20%)">kjlubick</text>
<text x="0.430" y="0.494" font-size="0.040917" fill="hsl(180.0,100%,20%)">armansito</text>
<text x="0.296" y="0.815" font-size="0.077497" fill="hsl(180.0,100%,20%)">johnstiles</text>
<text x="1.510" y="0.581" font-size="0.061039" fill="hsl(180.0,100%,20%)">michaelludwig</text>
<text x="0.653" y="0.553" font-size="0.037882" fill="hsl(180.0,100%,20%)">nicolettep</text>
<text x="1.767" y="0.823" font-size="0.030323" fill="hsl(180.0,100%,20%)">jamesgk</text>
<text x="0.961" y="0.503" font-size="0.054312" fill="hsl(180.0,100%,20%)">jvanverth</text>
<text x="1.060" y="0.872" font-size="0.030758" fill="hsl(0.0,100%,20%)">lovisolo</text>
<text x="0.959" y="-0.371" font-size="0.003993" fill="hsl(180.0,100%,20%)">ayzhao</text>
<text x="1.022" y="0.743" font-size="0.037102" fill="hsl(180.0,100%,20%)">herb</text>
<text x="1.216" y="0.547" font-size="0.004611" fill="hsl(180.0,100%,20%)">blundell</text>
<text x="1.460" y="0.425" font-size="0.051240" fill="hsl(180.0,100%,20%)">robertphillips</text>
<text x="0.598" y="0.913" font-size="0.011755" fill="hsl(0.0,100%,20%)">borenet</text>
<text x="0.793" y="0.943" font-size="0.008929" fill="hsl(0.0,100%,20%)">rmistry</text>
<text x="0.177" y="0.450" font-size="0.027278" fill="hsl(0.0,100%,20%)">fmalita</text>
<text x="0.884" y="0.109" font-size="0.005647" fill="hsl(180.0,100%,20%)">jreck</text>
<text x="1.158" y="0.033" font-size="0.017252" fill="hsl(0.0,100%,20%)">nscobie</text>
<text x="1.226" y="0.205" font-size="0.019288" fill="hsl(0.0,100%,20%)">jlavrova</text>
<text x="0.179" y="0.344" font-size="0.018729" fill="hsl(0.0,100%,20%)">jmbetancourt</text>
<text x="0.300" y="0.274" font-size="0.013041" fill="hsl(180.0,100%,20%)">briansalomon</text>
<text x="0.833" y="0.366" font-size="0.023623" fill="hsl(0.0,100%,20%)">drott</text>
<text x="0.619" y="0.980" font-size="0.010049" fill="hsl(0.0,100%,20%)">ccameron</text>
<text x="0.733" y="0.520" font-size="0.019011" fill="hsl(0.0,100%,20%)">cmumford</text>
<text x="1.095" y="0.732" font-size="0.007646" fill="hsl(0.0,100%,20%)">jcgregorio</text>
<text x="1.575" y="0.246" font-size="0.012199" fill="hsl(0.0,100%,20%)">sharaks</text>
<text x="1.809" y="0.148" font-size="0.009222" fill="hsl(0.0,100%,20%)">hcm</text>
<text x="0.718" y="0.056" font-size="0.006100" fill="hsl(0.0,100%,20%)">djsollen</text>
<text x="0.081" y="0.475" font-size="0.002305" fill="hsl(0.0,100%,20%)">bwils</text>
<text x="0.678" y="0.463" font-size="0.006916" fill="hsl(180.0,100%,20%)">hitawala</text>
<text x="1.150" y="0.370" font-size="0.003993" fill="hsl(0.0,100%,20%)">jacksongardner</text>
<text x="1.372" y="0.778" font-size="0.003993" fill="hsl(0.0,100%,20%)">jgaillard</text>
<text x="0.761" y="0.920" font-size="0.003260" fill="hsl(0.0,100%,20%)">tdenniston</text>
<text x="0.489" y="0.721" font-size="0.005647" fill="hsl(0.0,100%,20%)">kschmi</text>
<text x="1.156" y="0.447" font-size="0.006100" fill="hsl(180.0,100%,20%)">lokokung</text>
<text x="0.481" y="0.241" font-size="0.012836" fill="hsl(0.0,100%,20%)">mike</text>
<text x="1.327" y="0.146" font-size="0.006100" fill="hsl(0.0,100%,20%)">nigeltao</text>
<text x="1.522" y="0.822" font-size="0.011294" fill="hsl(180.0,100%,20%)">penghuang</text>
<text x="0.542" y="0.600" font-size="0.006916" fill="hsl(180.0,100%,20%)">sky</text>
<text x="1.273" y="0.690" font-size="0.012415" fill="hsl(180.0,100%,20%)">sunnyps</text>
</svg>
