<svg width="4000" height="2000" viewBox="-0.025 -0.025 2.05 1.05" xmlns="http://www.w3.org/2000/svg">
  <style>
    path {
      fill: none;
      stroke-linecap: round;
      stroke-opacity: 0.4;
    }

    text {
      text-anchor: middle;
      alignment-baseline: hanging;
    }
  </style>
  <g opacity="0.4">
<path d="M1.125 0.542 Q1.560 0.695 1.956 0.517" stroke="hsl(0.0,100%,35%)" stroke-width="0.00823"></path>
<path d="M1.125 0.542 Q1.382 0.781 1.907 0.708" stroke="hsl(0.0,100%,35%)" stroke-width="0.00371"></path>
<path d="M1.125 0.542 Q1.246 0.611 1.408 0.567" stroke="hsl(0.0,100%,35%)" stroke-width="0.00565"></path>
<path d="M1.125 0.542 Q1.229 0.768 1.693 0.767" stroke="hsl(0.0,100%,35%)" stroke-width="0.00161"></path>
<path d="M1.125 0.542 Q0.774 0.318 0.260 0.440" stroke="hsl(0.0,100%,35%)" stroke-width="0.00129"></path>
<path d="M1.125 0.542 Q0.450 0.433 0.090 0.738" stroke="hsl(0.0,100%,35%)" stroke-width="0.00016"></path>
<path d="M1.125 0.542 Q1.335 0.469 1.239 0.351" stroke="hsl(0.0,100%,35%)" stroke-width="0.00065"></path>
<path d="M1.125 0.542 Q1.222 0.660 1.474 0.639" stroke="hsl(0.0,100%,35%)" stroke-width="0.00016"></path>
<path d="M1.125 0.542 Q1.065 0.607 1.179 0.651" stroke="hsl(0.0,100%,35%)" stroke-width="0.00032"></path>
<path d="M1.125 0.542 Q1.063 0.432 0.835 0.438" stroke="hsl(0.0,100%,35%)" stroke-width="0.00048"></path>
<path d="M1.956 0.517 Q1.624 0.590 1.693 0.767" stroke="hsl(0.0,100%,35%)" stroke-width="0.01387"></path>
<path d="M1.956 0.517 Q2.049 0.465 1.968 0.409" stroke="hsl(0.0,100%,35%)" stroke-width="0.01871"></path>
<path d="M1.956 0.517 Q1.458 0.253 0.835 0.438" stroke="hsl(0.0,100%,35%)" stroke-width="0.00307"></path>
<path d="M1.956 0.517 Q1.460 0.429 1.179 0.651" stroke="hsl(0.0,100%,35%)" stroke-width="0.00210"></path>
<path d="M1.956 0.517 Q1.169 0.140 0.260 0.440" stroke="hsl(0.0,100%,35%)" stroke-width="0.00065"></path>
<path d="M1.956 0.517 Q1.521 0.363 1.125 0.542" stroke="hsl(0.0,100%,35%)" stroke-width="0.00210"></path>
<path d="M1.956 0.517 Q1.192 0.528 1.045 0.903" stroke="hsl(0.0,100%,35%)" stroke-width="0.00032"></path>
<path d="M1.956 0.517 Q1.778 0.603 1.907 0.708" stroke="hsl(0.0,100%,35%)" stroke-width="0.00274"></path>
<path d="M1.956 0.517 Q1.642 0.432 1.408 0.567" stroke="hsl(0.0,100%,35%)" stroke-width="0.00387"></path>
<path d="M1.956 0.517 Q1.618 0.481 1.474 0.639" stroke="hsl(0.0,100%,35%)" stroke-width="0.00113"></path>
<path d="M1.956 0.517 Q1.730 0.290 1.239 0.351" stroke="hsl(0.0,100%,35%)" stroke-width="0.00129"></path>
<path d="M1.956 0.517 Q1.929 0.240 1.382 0.192" stroke="hsl(0.0,100%,35%)" stroke-width="0.00016"></path>
<path d="M1.907 0.708 Q1.298 0.245 0.260 0.440" stroke="hsl(0.0,100%,35%)" stroke-width="0.01065"></path>
<path d="M1.907 0.708 Q1.753 0.695 1.693 0.767" stroke="hsl(0.0,100%,35%)" stroke-width="0.06405"></path>
<path d="M1.907 0.708 Q1.770 0.538 1.408 0.567" stroke="hsl(0.0,100%,35%)" stroke-width="0.00597"></path>
<path d="M1.907 0.708 Q1.587 0.359 0.835 0.438" stroke="hsl(0.0,100%,35%)" stroke-width="0.00484"></path>
<path d="M1.907 0.708 Q1.859 0.396 1.239 0.351" stroke="hsl(0.0,100%,35%)" stroke-width="0.00500"></path>
<path d="M1.907 0.708 Q2.084 0.622 1.956 0.517" stroke="hsl(0.0,100%,35%)" stroke-width="0.01291"></path>
<path d="M1.907 0.708 Q1.589 0.534 1.179 0.651" stroke="hsl(0.0,100%,35%)" stroke-width="0.00807"></path>
<path d="M1.907 0.708 Q1.746 0.587 1.474 0.639" stroke="hsl(0.0,100%,35%)" stroke-width="0.01033"></path>
<path d="M1.907 0.708 Q2.057 0.345 1.382 0.192" stroke="hsl(0.0,100%,35%)" stroke-width="0.00129"></path>
<path d="M1.907 0.708 Q1.649 0.469 1.125 0.542" stroke="hsl(0.0,100%,35%)" stroke-width="0.02904"></path>
<path d="M1.907 0.708 Q1.113 0.266 0.074 0.556" stroke="hsl(0.0,100%,35%)" stroke-width="0.00081"></path>
<path d="M1.907 0.708 Q2.177 0.571 1.968 0.409" stroke="hsl(0.0,100%,35%)" stroke-width="0.00290"></path>
<path d="M1.907 0.708 Q1.802 0.152 0.693 0.081" stroke="hsl(0.0,100%,35%)" stroke-width="0.00032"></path>
<path d="M1.907 0.708 Q1.410 0.149 0.209 0.268" stroke="hsl(0.0,100%,35%)" stroke-width="0.00145"></path>
<path d="M1.907 0.708 Q1.321 0.633 1.045 0.903" stroke="hsl(0.0,100%,35%)" stroke-width="0.00081"></path>
<path d="M1.907 0.708 Q1.496 0.157 0.329 0.236" stroke="hsl(0.0,100%,35%)" stroke-width="0.00032"></path>
<path d="M1.907 0.708 Q2.116 0.439 1.636 0.277" stroke="hsl(0.0,100%,35%)" stroke-width="0.00048"></path>
<path d="M1.907 0.708 Q1.523 0.717 1.456 0.906" stroke="hsl(0.0,100%,35%)" stroke-width="0.00113"></path>
<path d="M1.907 0.708 Q0.975 0.360 0.090 0.738" stroke="hsl(0.0,100%,35%)" stroke-width="0.00016"></path>
<path d="M1.907 0.708 Q1.307 0.568 0.901 0.829" stroke="hsl(0.0,100%,35%)" stroke-width="0.00048"></path>
<path d="M1.907 0.708 Q2.307 0.393 1.780 0.129" stroke="hsl(0.0,100%,35%)" stroke-width="0.00048"></path>
<path d="M1.907 0.708 Q1.428 0.301 0.528 0.445" stroke="hsl(0.0,100%,35%)" stroke-width="0.00016"></path>
<path d="M1.907 0.708 Q1.660 0.176 0.568 0.179" stroke="hsl(0.0,100%,35%)" stroke-width="0.00016"></path>
<path d="M1.408 0.567 Q1.390 0.724 1.693 0.767" stroke="hsl(0.0,100%,35%)" stroke-width="0.00613"></path>
<path d="M1.408 0.567 Q1.496 0.425 1.239 0.351" stroke="hsl(0.0,100%,35%)" stroke-width="0.00484"></path>
<path d="M1.408 0.567 Q1.814 0.600 1.968 0.409" stroke="hsl(0.0,100%,35%)" stroke-width="0.00726"></path>
<path d="M1.408 0.567 Q1.224 0.388 0.835 0.438" stroke="hsl(0.0,100%,35%)" stroke-width="0.00371"></path>
<path d="M1.408 0.567 Q1.722 0.652 1.956 0.517" stroke="hsl(0.0,100%,35%)" stroke-width="0.00903"></path>
<path d="M1.408 0.567 Q1.226 0.563 1.179 0.651" stroke="hsl(0.0,100%,35%)" stroke-width="0.00694"></path>
<path d="M1.408 0.567 Q1.544 0.737 1.907 0.708" stroke="hsl(0.0,100%,35%)" stroke-width="0.00145"></path>
<path d="M1.408 0.567 Q1.287 0.498 1.125 0.542" stroke="hsl(0.0,100%,35%)" stroke-width="0.00371"></path>
<path d="M1.408 0.567 Q0.958 0.662 1.045 0.903" stroke="hsl(0.0,100%,35%)" stroke-width="0.00065"></path>
<path d="M1.408 0.567 Q1.384 0.616 1.474 0.639" stroke="hsl(0.0,100%,35%)" stroke-width="0.00129"></path>
<path d="M1.408 0.567 Q0.935 0.274 0.260 0.440" stroke="hsl(0.0,100%,35%)" stroke-width="0.00081"></path>
<path d="M1.408 0.567 Q1.754 0.468 1.636 0.277" stroke="hsl(0.0,100%,35%)" stroke-width="0.00032"></path>
<path d="M1.408 0.567 Q1.944 0.422 1.780 0.129" stroke="hsl(0.0,100%,35%)" stroke-width="0.00032"></path>
<path d="M1.408 0.567 Q1.695 0.374 1.382 0.192" stroke="hsl(0.0,100%,35%)" stroke-width="0.00065"></path>
<path d="M1.408 0.567 Q1.439 0.181 0.693 0.081" stroke="hsl(0.0,100%,35%)" stroke-width="0.00016"></path>
<path d="M1.693 0.767 Q1.238 0.317 0.260 0.440" stroke="hsl(0.0,100%,35%)" stroke-width="0.00742"></path>
<path d="M1.693 0.767 Q1.800 0.468 1.239 0.351" stroke="hsl(0.0,100%,35%)" stroke-width="0.00161"></path>
<path d="M1.693 0.767 Q1.711 0.610 1.408 0.567" stroke="hsl(0.0,100%,35%)" stroke-width="0.00274"></path>
<path d="M1.693 0.767 Q1.998 0.418 1.382 0.192" stroke="hsl(0.0,100%,35%)" stroke-width="0.00258"></path>
<path d="M1.693 0.767 Q1.847 0.781 1.907 0.708" stroke="hsl(0.0,100%,35%)" stroke-width="0.01274"></path>
<path d="M1.693 0.767 Q1.687 0.659 1.474 0.639" stroke="hsl(0.0,100%,35%)" stroke-width="0.00387"></path>
<path d="M1.693 0.767 Q0.915 0.432 0.090 0.738" stroke="hsl(0.0,100%,35%)" stroke-width="0.00016"></path>
<path d="M1.693 0.767 Q2.118 0.643 1.968 0.409" stroke="hsl(0.0,100%,35%)" stroke-width="0.00290"></path>
<path d="M1.693 0.767 Q2.025 0.695 1.956 0.517" stroke="hsl(0.0,100%,35%)" stroke-width="0.00355"></path>
<path d="M1.693 0.767 Q1.529 0.606 1.179 0.651" stroke="hsl(0.0,100%,35%)" stroke-width="0.00032"></path>
<path d="M1.693 0.767 Q1.464 0.789 1.456 0.906" stroke="hsl(0.0,100%,35%)" stroke-width="0.00032"></path>
<path d="M1.693 0.767 Q2.247 0.465 1.780 0.129" stroke="hsl(0.0,100%,35%)" stroke-width="0.00016"></path>
<path d="M1.693 0.767 Q1.528 0.431 0.835 0.438" stroke="hsl(0.0,100%,35%)" stroke-width="0.00016"></path>
<path d="M1.693 0.767 Q1.248 0.640 0.901 0.829" stroke="hsl(0.0,100%,35%)" stroke-width="0.00016"></path>
<path d="M1.693 0.767 Q1.261 0.705 1.045 0.903" stroke="hsl(0.0,100%,35%)" stroke-width="0.00032"></path>
<path d="M1.693 0.767 Q1.416 0.817 1.452 0.963" stroke="hsl(0.0,100%,35%)" stroke-width="0.00065"></path>
<path d="M1.693 0.767 Q1.742 0.224 0.693 0.081" stroke="hsl(0.0,100%,35%)" stroke-width="0.00016"></path>
<path d="M1.693 0.767 Q1.053 0.338 0.074 0.556" stroke="hsl(0.0,100%,35%)" stroke-width="0.00016"></path>
<path d="M1.693 0.767 Q2.057 0.511 1.636 0.277" stroke="hsl(0.0,100%,35%)" stroke-width="0.00016"></path>
<path d="M0.260 0.440 Q1.072 0.471 1.311 0.082" stroke="hsl(0.0,100%,35%)" stroke-width="0.00145"></path>
<path d="M0.260 0.440 Q-0.063 0.555 0.090 0.738" stroke="hsl(0.0,100%,35%)" stroke-width="0.00436"></path>
<path d="M0.260 0.440 Q0.715 0.890 1.693 0.767" stroke="hsl(0.0,100%,35%)" stroke-width="0.02097"></path>
<path d="M0.260 0.440 Q1.020 0.541 1.382 0.192" stroke="hsl(0.0,100%,35%)" stroke-width="0.01597"></path>
<path d="M0.260 0.440 Q0.709 0.782 1.474 0.639" stroke="hsl(0.0,100%,35%)" stroke-width="0.00581"></path>
<path d="M0.260 0.440 Q0.373 0.344 0.209 0.268" stroke="hsl(0.0,100%,35%)" stroke-width="0.00048"></path>
<path d="M0.260 0.440 Q0.821 0.591 1.239 0.351" stroke="hsl(0.0,100%,35%)" stroke-width="0.00419"></path>
<path d="M0.260 0.440 Q0.733 0.733 1.408 0.567" stroke="hsl(0.0,100%,35%)" stroke-width="0.00258"></path>
<path d="M0.260 0.440 Q1.047 0.818 1.956 0.517" stroke="hsl(0.0,100%,35%)" stroke-width="0.00710"></path>
<path d="M0.260 0.440 Q0.764 0.347 0.693 0.081" stroke="hsl(0.0,100%,35%)" stroke-width="0.00419"></path>
<path d="M0.260 0.440 Q0.612 0.664 1.125 0.542" stroke="hsl(0.0,100%,35%)" stroke-width="0.00081"></path>
<path d="M0.260 0.440 Q0.269 0.763 0.901 0.829" stroke="hsl(0.0,100%,35%)" stroke-width="0.00065"></path>
<path d="M0.260 0.440 Q1.079 0.634 1.636 0.277" stroke="hsl(0.0,100%,35%)" stroke-width="0.00113"></path>
<path d="M0.260 0.440 Q1.269 0.589 1.780 0.129" stroke="hsl(0.0,100%,35%)" stroke-width="0.00161"></path>
<path d="M0.260 0.440 Q0.869 0.904 1.907 0.708" stroke="hsl(0.0,100%,35%)" stroke-width="0.00597"></path>
<path d="M0.260 0.440 Q0.551 0.730 1.179 0.651" stroke="hsl(0.0,100%,35%)" stroke-width="0.00194"></path>
<path d="M0.260 0.440 Q0.283 0.828 1.045 0.903" stroke="hsl(0.0,100%,35%)" stroke-width="0.00210"></path>
<path d="M0.260 0.440 Q1.139 0.766 1.968 0.409" stroke="hsl(0.0,100%,35%)" stroke-width="0.00145"></path>
<path d="M0.260 0.440 Q0.075 0.461 0.074 0.556" stroke="hsl(0.0,100%,35%)" stroke-width="0.00048"></path>
<path d="M0.260 0.440 Q0.590 0.938 1.633 0.886" stroke="hsl(0.0,100%,35%)" stroke-width="0.00032"></path>
<path d="M0.260 0.440 Q0.458 0.352 0.329 0.236" stroke="hsl(0.0,100%,35%)" stroke-width="0.00145"></path>
<path d="M0.260 0.440 Q0.486 0.912 1.456 0.906" stroke="hsl(0.0,100%,35%)" stroke-width="0.00081"></path>
<path d="M0.260 0.440 Q0.549 0.554 0.835 0.438" stroke="hsl(0.0,100%,35%)" stroke-width="0.00016"></path>
<path d="M0.260 0.440 Q0.303 0.345 0.126 0.303" stroke="hsl(0.0,100%,35%)" stroke-width="0.00032"></path>
<path d="M0.090 0.738 Q0.868 1.073 1.693 0.767" stroke="hsl(0.0,100%,35%)" stroke-width="0.00048"></path>
<path d="M0.090 0.738 Q0.414 0.623 0.260 0.440" stroke="hsl(0.0,100%,35%)" stroke-width="0.01420"></path>
<path d="M0.090 0.738 Q1.022 1.087 1.907 0.708" stroke="hsl(0.0,100%,35%)" stroke-width="0.00161"></path>
<path d="M0.090 0.738 Q0.703 0.737 0.835 0.438" stroke="hsl(0.0,100%,35%)" stroke-width="0.00016"></path>
<path d="M0.090 0.738 Q0.228 0.644 0.074 0.556" stroke="hsl(0.0,100%,35%)" stroke-width="0.00081"></path>
<path d="M0.090 0.738 Q0.612 0.535 0.329 0.236" stroke="hsl(0.0,100%,35%)" stroke-width="0.00016"></path>
<path d="M0.090 0.738 Q1.232 0.817 1.636 0.277" stroke="hsl(0.0,100%,35%)" stroke-width="0.00032"></path>
<path d="M0.090 0.738 Q0.526 0.527 0.209 0.268" stroke="hsl(0.0,100%,35%)" stroke-width="0.00016"></path>
<path d="M0.090 0.738 Q0.886 0.916 1.408 0.567" stroke="hsl(0.0,100%,35%)" stroke-width="0.00016"></path>
<path d="M1.239 0.351 Q1.133 0.650 1.693 0.767" stroke="hsl(0.0,100%,35%)" stroke-width="0.00081"></path>
<path d="M1.239 0.351 Q1.557 0.525 1.968 0.409" stroke="hsl(0.0,100%,35%)" stroke-width="0.00226"></path>
<path d="M1.239 0.351 Q0.969 0.489 1.179 0.651" stroke="hsl(0.0,100%,35%)" stroke-width="0.00242"></path>
<path d="M1.239 0.351 Q1.150 0.493 1.408 0.567" stroke="hsl(0.0,100%,35%)" stroke-width="0.00177"></path>
<path d="M1.239 0.351 Q0.678 0.200 0.260 0.440" stroke="hsl(0.0,100%,35%)" stroke-width="0.00032"></path>
<path d="M1.239 0.351 Q0.967 0.314 0.835 0.438" stroke="hsl(0.0,100%,35%)" stroke-width="0.00065"></path>
<path d="M1.239 0.351 Q0.856 0.699 1.452 0.963" stroke="hsl(0.0,100%,35%)" stroke-width="0.00032"></path>
<path d="M1.239 0.351 Q1.464 0.577 1.956 0.517" stroke="hsl(0.0,100%,35%)" stroke-width="0.00161"></path>
<path d="M1.239 0.351 Q1.287 0.663 1.907 0.708" stroke="hsl(0.0,100%,35%)" stroke-width="0.00048"></path>
<path d="M1.239 0.351 Q0.903 0.672 1.456 0.906" stroke="hsl(0.0,100%,35%)" stroke-width="0.00016"></path>
<path d="M1.474 0.639 Q1.481 0.747 1.693 0.767" stroke="hsl(0.0,100%,35%)" stroke-width="0.00871"></path>
<path d="M1.474 0.639 Q1.026 0.297 0.260 0.440" stroke="hsl(0.0,100%,35%)" stroke-width="0.00419"></path>
<path d="M1.474 0.639 Q1.634 0.760 1.907 0.708" stroke="hsl(0.0,100%,35%)" stroke-width="0.00210"></path>
<path d="M1.474 0.639 Q1.812 0.674 1.956 0.517" stroke="hsl(0.0,100%,35%)" stroke-width="0.00048"></path>
<path d="M1.474 0.639 Q1.498 0.589 1.408 0.567" stroke="hsl(0.0,100%,35%)" stroke-width="0.00387"></path>
<path d="M1.474 0.639 Q1.048 0.685 1.045 0.903" stroke="hsl(0.0,100%,35%)" stroke-width="0.00016"></path>
<path d="M1.474 0.639 Q1.905 0.622 1.968 0.409" stroke="hsl(0.0,100%,35%)" stroke-width="0.00936"></path>
<path d="M1.474 0.639 Q1.785 0.397 1.382 0.192" stroke="hsl(0.0,100%,35%)" stroke-width="0.00081"></path>
<path d="M1.474 0.639 Q1.035 0.619 0.901 0.829" stroke="hsl(0.0,100%,35%)" stroke-width="0.00016"></path>
<path d="M1.179 0.651 Q1.450 0.513 1.239 0.351" stroke="hsl(0.0,100%,35%)" stroke-width="0.00355"></path>
<path d="M1.179 0.651 Q1.361 0.655 1.408 0.567" stroke="hsl(0.0,100%,35%)" stroke-width="0.00581"></path>
<path d="M1.179 0.651 Q1.337 0.704 1.474 0.639" stroke="hsl(0.0,100%,35%)" stroke-width="0.00016"></path>
<path d="M1.179 0.651 Q1.178 0.476 0.835 0.438" stroke="hsl(0.0,100%,35%)" stroke-width="0.00032"></path>
<path d="M1.179 0.651 Q0.898 0.685 0.901 0.829" stroke="hsl(0.0,100%,35%)" stroke-width="0.00016"></path>
<path d="M1.179 0.651 Q1.497 0.825 1.907 0.708" stroke="hsl(0.0,100%,35%)" stroke-width="0.00048"></path>
<path d="M1.179 0.651 Q0.888 0.362 0.260 0.440" stroke="hsl(0.0,100%,35%)" stroke-width="0.00097"></path>
<path d="M1.179 0.651 Q1.675 0.739 1.956 0.517" stroke="hsl(0.0,100%,35%)" stroke-width="0.00048"></path>
<path d="M1.179 0.651 Q1.768 0.688 1.968 0.409" stroke="hsl(0.0,100%,35%)" stroke-width="0.00097"></path>
<path d="M1.179 0.651 Q1.114 0.834 1.456 0.906" stroke="hsl(0.0,100%,35%)" stroke-width="0.00016"></path>
<path d="M1.179 0.651 Q1.343 0.812 1.693 0.767" stroke="hsl(0.0,100%,35%)" stroke-width="0.00016"></path>
<path d="M0.835 0.438 Q1.332 0.702 1.956 0.517" stroke="hsl(0.0,100%,35%)" stroke-width="0.00532"></path>
<path d="M0.835 0.438 Q1.018 0.617 1.408 0.567" stroke="hsl(0.0,100%,35%)" stroke-width="0.00210"></path>
<path d="M0.835 0.438 Q1.155 0.788 1.907 0.708" stroke="hsl(0.0,100%,35%)" stroke-width="0.00242"></path>
<path d="M0.835 0.438 Q0.546 0.324 0.260 0.440" stroke="hsl(0.0,100%,35%)" stroke-width="0.00016"></path>
<path d="M0.835 0.438 Q1.001 0.774 1.693 0.767" stroke="hsl(0.0,100%,35%)" stroke-width="0.00097"></path>
<path d="M0.835 0.438 Q0.658 0.228 0.209 0.268" stroke="hsl(0.0,100%,35%)" stroke-width="0.00016"></path>
<path d="M0.835 0.438 Q1.425 0.650 1.968 0.409" stroke="hsl(0.0,100%,35%)" stroke-width="0.00194"></path>
<path d="M0.835 0.438 Q0.837 0.614 1.179 0.651" stroke="hsl(0.0,100%,35%)" stroke-width="0.00065"></path>
<path d="M0.835 0.438 Q1.050 0.231 0.693 0.081" stroke="hsl(0.0,100%,35%)" stroke-width="0.00016"></path>
<path d="M0.835 0.438 Q1.107 0.475 1.239 0.351" stroke="hsl(0.0,100%,35%)" stroke-width="0.00210"></path>
<path d="M0.835 0.438 Q1.306 0.425 1.382 0.192" stroke="hsl(0.0,100%,35%)" stroke-width="0.00016"></path>
<path d="M1.396 0.767 Q1.876 0.754 1.956 0.517" stroke="hsl(0.0,100%,35%)" stroke-width="0.00016"></path>
<path d="M1.396 0.767 Q1.089 0.377 0.260 0.440" stroke="hsl(0.0,100%,35%)" stroke-width="0.00016"></path>
<path d="M1.396 0.767 Q1.538 0.719 1.474 0.639" stroke="hsl(0.0,100%,35%)" stroke-width="0.00032"></path>
<path d="M1.324 0.921 Q1.649 0.761 1.408 0.567" stroke="hsl(0.0,100%,35%)" stroke-width="0.00032"></path>
<path d="M1.324 0.921 Q2.056 0.794 1.968 0.409" stroke="hsl(0.0,100%,35%)" stroke-width="0.00016"></path>
<path d="M1.324 0.921 Q1.738 0.619 1.239 0.351" stroke="hsl(0.0,100%,35%)" stroke-width="0.00016"></path>
<path d="M1.968 0.409 Q1.544 0.533 1.693 0.767" stroke="hsl(0.0,100%,35%)" stroke-width="0.00242"></path>
<path d="M1.968 0.409 Q1.593 -0.010 0.693 0.081" stroke="hsl(0.0,100%,35%)" stroke-width="0.00048"></path>
<path d="M1.968 0.409 Q1.561 0.376 1.408 0.567" stroke="hsl(0.0,100%,35%)" stroke-width="0.01065"></path>
<path d="M1.968 0.409 Q1.650 0.234 1.239 0.351" stroke="hsl(0.0,100%,35%)" stroke-width="0.00661"></path>
<path d="M1.968 0.409 Q1.089 0.083 0.260 0.440" stroke="hsl(0.0,100%,35%)" stroke-width="0.00081"></path>
<path d="M1.968 0.409 Q1.875 0.460 1.956 0.517" stroke="hsl(0.0,100%,35%)" stroke-width="0.00839"></path>
<path d="M1.968 0.409 Q1.267 0.582 1.452 0.963" stroke="hsl(0.0,100%,35%)" stroke-width="0.00016"></path>
<path d="M1.968 0.409 Q1.111 0.471 1.045 0.903" stroke="hsl(0.0,100%,35%)" stroke-width="0.00016"></path>
<path d="M1.968 0.409 Q1.537 0.425 1.474 0.639" stroke="hsl(0.0,100%,35%)" stroke-width="0.00016"></path>
<path d="M1.968 0.409 Q1.697 0.546 1.907 0.708" stroke="hsl(0.0,100%,35%)" stroke-width="0.00081"></path>
<path d="M1.968 0.409 Q1.378 0.197 0.835 0.438" stroke="hsl(0.0,100%,35%)" stroke-width="0.00097"></path>
<path d="M1.968 0.409 Q1.380 0.372 1.179 0.651" stroke="hsl(0.0,100%,35%)" stroke-width="0.00645"></path>
<path d="M1.968 0.409 Q1.907 0.277 1.636 0.277" stroke="hsl(0.0,100%,35%)" stroke-width="0.00081"></path>
<path d="M1.636 0.277 Q0.818 0.084 0.260 0.440" stroke="hsl(0.0,100%,35%)" stroke-width="0.00016"></path>
<path d="M1.636 0.277 Q0.495 0.199 0.090 0.738" stroke="hsl(0.0,100%,35%)" stroke-width="0.00016"></path>
<path d="M1.636 0.277 Q1.016 -0.005 0.329 0.236" stroke="hsl(0.0,100%,35%)" stroke-width="0.00032"></path>
<path d="M0.329 0.236 Q-0.192 0.439 0.090 0.738" stroke="hsl(0.0,100%,35%)" stroke-width="0.00016"></path>
<path d="M0.329 0.236 Q0.131 0.324 0.260 0.440" stroke="hsl(0.0,100%,35%)" stroke-width="0.00032"></path>
<path d="M0.329 0.236 Q0.949 0.518 1.636 0.277" stroke="hsl(0.0,100%,35%)" stroke-width="0.00016"></path>
<path d="M0.329 0.236 Q-0.054 0.345 0.074 0.556" stroke="hsl(0.0,100%,35%)" stroke-width="0.00016"></path>
<path d="M0.329 0.236 Q1.010 0.650 1.968 0.409" stroke="hsl(0.0,100%,35%)" stroke-width="0.00016"></path>
<path d="M1.382 0.192 Q1.078 0.542 1.693 0.767" stroke="hsl(0.0,100%,35%)" stroke-width="0.00629"></path>
<path d="M1.382 0.192 Q1.632 0.240 1.780 0.129" stroke="hsl(0.0,100%,35%)" stroke-width="0.00177"></path>
<path d="M1.382 0.192 Q0.623 0.092 0.260 0.440" stroke="hsl(0.0,100%,35%)" stroke-width="0.00355"></path>
<path d="M1.382 0.192 Q0.299 0.207 0.090 0.738" stroke="hsl(0.0,100%,35%)" stroke-width="0.00016"></path>
<path d="M1.382 0.192 Q1.071 0.434 1.474 0.639" stroke="hsl(0.0,100%,35%)" stroke-width="0.00226"></path>
<path d="M1.382 0.192 Q1.231 0.555 1.907 0.708" stroke="hsl(0.0,100%,35%)" stroke-width="0.00161"></path>
<path d="M1.382 0.192 Q1.435 0.123 1.311 0.082" stroke="hsl(0.0,100%,35%)" stroke-width="0.00065"></path>
<path d="M1.382 0.192 Q0.645 0.480 1.045 0.903" stroke="hsl(0.0,100%,35%)" stroke-width="0.00016"></path>
<path d="M1.382 0.192 Q1.127 -0.001 0.693 0.081" stroke="hsl(0.0,100%,35%)" stroke-width="0.00016"></path>
<path d="M1.382 0.192 Q0.800 0.591 1.452 0.963" stroke="hsl(0.0,100%,35%)" stroke-width="0.00016"></path>
<path d="M1.382 0.192 Q1.184 0.243 1.239 0.351" stroke="hsl(0.0,100%,35%)" stroke-width="0.00016"></path>
<path d="M1.382 0.192 Q1.095 0.385 1.408 0.567" stroke="hsl(0.0,100%,35%)" stroke-width="0.00016"></path>
<path d="M1.456 0.906 Q1.593 0.365 0.568 0.179" stroke="hsl(0.0,100%,35%)" stroke-width="0.00016"></path>
<path d="M1.456 0.906 Q1.839 0.897 1.907 0.708" stroke="hsl(0.0,100%,35%)" stroke-width="0.00081"></path>
<path d="M1.456 0.906 Q1.734 0.341 0.693 0.081" stroke="hsl(0.0,100%,35%)" stroke-width="0.00113"></path>
<path d="M1.456 0.906 Q1.685 0.884 1.693 0.767" stroke="hsl(0.0,100%,35%)" stroke-width="0.00016"></path>
<path d="M1.456 0.906 Q1.990 0.534 1.382 0.192" stroke="hsl(0.0,100%,35%)" stroke-width="0.00016"></path>
<path d="M1.456 0.906 Q2.110 0.760 1.968 0.409" stroke="hsl(0.0,100%,35%)" stroke-width="0.00065"></path>
<path d="M1.456 0.906 Q1.792 0.585 1.239 0.351" stroke="hsl(0.0,100%,35%)" stroke-width="0.00065"></path>
<path d="M1.456 0.906 Q1.521 0.723 1.179 0.651" stroke="hsl(0.0,100%,35%)" stroke-width="0.00016"></path>
<path d="M1.456 0.906 Q1.230 0.434 0.260 0.440" stroke="hsl(0.0,100%,35%)" stroke-width="0.00016"></path>
<path d="M1.780 0.129 Q1.531 0.081 1.382 0.192" stroke="hsl(0.0,100%,35%)" stroke-width="0.00371"></path>
<path d="M1.780 0.129 Q0.771 -0.019 0.260 0.440" stroke="hsl(0.0,100%,35%)" stroke-width="0.00081"></path>
<path d="M1.780 0.129 Q1.226 0.431 1.693 0.767" stroke="hsl(0.0,100%,35%)" stroke-width="0.00048"></path>
<path d="M1.780 0.129 Q1.062 0.270 1.179 0.651" stroke="hsl(0.0,100%,35%)" stroke-width="0.00016"></path>
<path d="M1.780 0.129 Q0.448 0.096 0.090 0.738" stroke="hsl(0.0,100%,35%)" stroke-width="0.00016"></path>
<path d="M1.780 0.129 Q1.557 0.358 1.956 0.517" stroke="hsl(0.0,100%,35%)" stroke-width="0.00016"></path>
<path d="M0.901 0.829 Q1.678 0.884 1.956 0.517" stroke="hsl(0.0,100%,35%)" stroke-width="0.00016"></path>
<path d="M0.901 0.829 Q0.914 0.895 1.045 0.903" stroke="hsl(0.0,100%,35%)" stroke-width="0.00565"></path>
<path d="M0.901 0.829 Q0.892 0.507 0.260 0.440" stroke="hsl(0.0,100%,35%)" stroke-width="0.00161"></path>
<path d="M0.901 0.829 Q1.771 0.832 1.968 0.409" stroke="hsl(0.0,100%,35%)" stroke-width="0.00016"></path>
<path d="M1.045 0.903 Q1.477 0.965 1.693 0.767" stroke="hsl(0.0,100%,35%)" stroke-width="0.00113"></path>
<path d="M1.045 0.903 Q1.495 0.807 1.408 0.567" stroke="hsl(0.0,100%,35%)" stroke-width="0.00016"></path>
<path d="M1.045 0.903 Q1.032 0.837 0.901 0.829" stroke="hsl(0.0,100%,35%)" stroke-width="0.00387"></path>
<path d="M1.045 0.903 Q1.782 0.615 1.382 0.192" stroke="hsl(0.0,100%,35%)" stroke-width="0.00177"></path>
<path d="M1.045 0.903 Q1.022 0.514 0.260 0.440" stroke="hsl(0.0,100%,35%)" stroke-width="0.00177"></path>
<path d="M1.045 0.903 Q1.526 0.421 0.693 0.081" stroke="hsl(0.0,100%,35%)" stroke-width="0.00016"></path>
<path d="M1.045 0.903 Q1.471 0.856 1.474 0.639" stroke="hsl(0.0,100%,35%)" stroke-width="0.00016"></path>
<path d="M1.045 0.903 Q1.631 0.978 1.907 0.708" stroke="hsl(0.0,100%,35%)" stroke-width="0.00032"></path>
<path d="M1.045 0.903 Q1.902 0.840 1.968 0.409" stroke="hsl(0.0,100%,35%)" stroke-width="0.00016"></path>
<path d="M1.045 0.903 Q1.096 0.633 0.581 0.549" stroke="hsl(0.0,100%,35%)" stroke-width="0.00016"></path>
<path d="M0.693 0.081 Q0.415 0.646 1.456 0.906" stroke="hsl(0.0,100%,35%)" stroke-width="0.00081"></path>
<path d="M0.693 0.081 Q0.552 0.105 0.568 0.179" stroke="hsl(0.0,100%,35%)" stroke-width="0.00081"></path>
<path d="M0.693 0.081 Q0.189 0.174 0.260 0.440" stroke="hsl(0.0,100%,35%)" stroke-width="0.00048"></path>
<path d="M0.693 0.081 Q0.798 0.637 1.907 0.708" stroke="hsl(0.0,100%,35%)" stroke-width="0.00081"></path>
<path d="M0.693 0.081 Q0.644 0.624 1.693 0.767" stroke="hsl(0.0,100%,35%)" stroke-width="0.00016"></path>
<path d="M0.693 0.081 Q0.949 0.274 1.382 0.192" stroke="hsl(0.0,100%,35%)" stroke-width="0.00032"></path>
<path d="M0.693 0.081 Q0.976 0.552 1.956 0.517" stroke="hsl(0.0,100%,35%)" stroke-width="0.00032"></path>
<path d="M1.072 0.442 Q1.123 0.729 1.693 0.767" stroke="hsl(0.0,100%,35%)" stroke-width="0.00016"></path>
<path d="M1.072 0.442 Q1.140 0.572 1.408 0.567" stroke="hsl(0.0,100%,35%)" stroke-width="0.00016"></path>
<path d="M1.072 0.442 Q0.668 0.279 0.260 0.440" stroke="hsl(0.0,100%,35%)" stroke-width="0.00048"></path>
<path d="M1.072 0.442 Q1.277 0.742 1.907 0.708" stroke="hsl(0.0,100%,35%)" stroke-width="0.00016"></path>
<path d="M1.072 0.442 Q1.229 0.430 1.239 0.351" stroke="hsl(0.0,100%,35%)" stroke-width="0.00194"></path>
<path d="M1.072 0.442 Q0.957 0.393 0.835 0.438" stroke="hsl(0.0,100%,35%)" stroke-width="0.00016"></path>
<path d="M1.072 0.442 Q1.547 0.605 1.968 0.409" stroke="hsl(0.0,100%,35%)" stroke-width="0.00016"></path>
<path d="M1.311 0.082 Q0.499 0.051 0.260 0.440" stroke="hsl(0.0,100%,35%)" stroke-width="0.00387"></path>
<path d="M1.311 0.082 Q0.521 0.439 1.045 0.903" stroke="hsl(0.0,100%,35%)" stroke-width="0.00016"></path>
<path d="M1.311 0.082 Q1.258 0.151 1.382 0.192" stroke="hsl(0.0,100%,35%)" stroke-width="0.00710"></path>
<path d="M1.311 0.082 Q0.861 -0.018 0.568 0.179" stroke="hsl(0.0,100%,35%)" stroke-width="0.00016"></path>
<path d="M1.311 0.082 Q0.954 0.501 1.693 0.767" stroke="hsl(0.0,100%,35%)" stroke-width="0.00048"></path>
<path d="M1.311 0.082 Q1.060 0.202 1.239 0.351" stroke="hsl(0.0,100%,35%)" stroke-width="0.00016"></path>
<path d="M1.311 0.082 Q1.507 0.199 1.780 0.129" stroke="hsl(0.0,100%,35%)" stroke-width="0.00016"></path>
<path d="M1.633 0.886 Q1.758 0.839 1.693 0.767" stroke="hsl(0.0,100%,35%)" stroke-width="0.00452"></path>
<path d="M1.633 0.886 Q1.807 0.295 0.693 0.081" stroke="hsl(0.0,100%,35%)" stroke-width="0.00065"></path>
<path d="M1.633 0.886 Q1.481 0.888 1.452 0.963" stroke="hsl(0.0,100%,35%)" stroke-width="0.00032"></path>
<path d="M0.209 0.268 Q0.097 0.364 0.260 0.440" stroke="hsl(0.0,100%,35%)" stroke-width="0.00436"></path>
<path d="M0.209 0.268 Q-0.227 0.479 0.090 0.738" stroke="hsl(0.0,100%,35%)" stroke-width="0.00048"></path>
<path d="M0.209 0.268 Q-0.089 0.385 0.074 0.556" stroke="hsl(0.0,100%,35%)" stroke-width="0.00032"></path>
<path d="M0.209 0.268 Q0.569 0.657 1.408 0.567" stroke="hsl(0.0,100%,35%)" stroke-width="0.00065"></path>
<path d="M0.209 0.268 Q0.856 0.465 1.382 0.192" stroke="hsl(0.0,100%,35%)" stroke-width="0.00016"></path>
<path d="M0.209 0.268 Q0.170 0.483 0.581 0.549" stroke="hsl(0.0,100%,35%)" stroke-width="0.00032"></path>
<path d="M0.209 0.268 Q0.227 0.420 0.528 0.445" stroke="hsl(0.0,100%,35%)" stroke-width="0.00016"></path>
<path d="M0.209 0.268 Q0.705 0.828 1.907 0.708" stroke="hsl(0.0,100%,35%)" stroke-width="0.00065"></path>
<path d="M0.209 0.268 Q0.295 0.276 0.329 0.236" stroke="hsl(0.0,100%,35%)" stroke-width="0.00032"></path>
<path d="M0.209 0.268 Q0.915 0.558 1.636 0.277" stroke="hsl(0.0,100%,35%)" stroke-width="0.00016"></path>
<path d="M0.209 0.268 Q0.552 0.814 1.693 0.767" stroke="hsl(0.0,100%,35%)" stroke-width="0.00032"></path>
<path d="M0.581 0.549 Q0.620 0.334 0.209 0.268" stroke="hsl(0.0,100%,35%)" stroke-width="0.00097"></path>
<path d="M0.581 0.549 Q0.638 0.487 0.528 0.445" stroke="hsl(0.0,100%,35%)" stroke-width="0.00210"></path>
<path d="M0.581 0.549 Q1.387 0.756 1.968 0.409" stroke="hsl(0.0,100%,35%)" stroke-width="0.00016"></path>
<path d="M0.581 0.549 Q1.326 0.624 1.636 0.277" stroke="hsl(0.0,100%,35%)" stroke-width="0.00048"></path>
<path d="M0.581 0.549 Q0.507 0.431 0.260 0.440" stroke="hsl(0.0,100%,35%)" stroke-width="0.00016"></path>
<path d="M1.568 0.350 Q1.297 0.584 1.693 0.767" stroke="hsl(0.0,100%,35%)" stroke-width="0.00016"></path>
<path d="M1.568 0.350 Q1.628 0.511 1.956 0.517" stroke="hsl(0.0,100%,35%)" stroke-width="0.00032"></path>
<path d="M1.568 0.350 Q1.314 0.426 1.408 0.567" stroke="hsl(0.0,100%,35%)" stroke-width="0.00016"></path>
<path d="M1.568 0.350 Q1.403 0.285 1.239 0.351" stroke="hsl(0.0,100%,35%)" stroke-width="0.00048"></path>
<path d="M1.568 0.350 Q1.131 0.247 0.835 0.438" stroke="hsl(0.0,100%,35%)" stroke-width="0.00016"></path>
<path d="M0.552 0.310 Q1.311 0.465 1.780 0.129" stroke="hsl(0.0,100%,35%)" stroke-width="0.00016"></path>
<path d="M0.552 0.310 Q0.302 0.317 0.260 0.440" stroke="hsl(0.0,100%,35%)" stroke-width="0.00016"></path>
<path d="M0.552 0.310 Q0.757 0.767 1.693 0.767" stroke="hsl(0.0,100%,35%)" stroke-width="0.00016"></path>
<path d="M1.736 0.449 Q1.792 0.527 1.956 0.517" stroke="hsl(0.0,100%,35%)" stroke-width="0.00226"></path>
<path d="M1.736 0.449 Q1.567 0.301 1.239 0.351" stroke="hsl(0.0,100%,35%)" stroke-width="0.00210"></path>
<path d="M1.736 0.449 Q1.478 0.442 1.408 0.567" stroke="hsl(0.0,100%,35%)" stroke-width="0.00016"></path>
<path d="M1.736 0.449 Q1.296 0.439 1.179 0.651" stroke="hsl(0.0,100%,35%)" stroke-width="0.00032"></path>
<path d="M1.156 0.415 Q0.688 0.249 0.260 0.440" stroke="hsl(0.0,100%,35%)" stroke-width="0.00016"></path>
<path d="M1.156 0.415 Q1.160 0.541 1.408 0.567" stroke="hsl(0.0,100%,35%)" stroke-width="0.00032"></path>
<path d="M1.156 0.415 Q1.474 0.626 1.956 0.517" stroke="hsl(0.0,100%,35%)" stroke-width="0.00032"></path>
<path d="M1.156 0.415 Q1.143 0.699 1.693 0.767" stroke="hsl(0.0,100%,35%)" stroke-width="0.00016"></path>
<path d="M0.886 0.619 Q1.476 0.505 1.382 0.192" stroke="hsl(0.0,100%,35%)" stroke-width="0.00145"></path>
<path d="M0.886 0.619 Q1.171 0.855 1.693 0.767" stroke="hsl(0.0,100%,35%)" stroke-width="0.00161"></path>
<path d="M0.886 0.619 Q0.739 0.793 1.045 0.903" stroke="hsl(0.0,100%,35%)" stroke-width="0.00210"></path>
<path d="M0.886 0.619 Q0.716 0.404 0.260 0.440" stroke="hsl(0.0,100%,35%)" stroke-width="0.00016"></path>
<path d="M0.886 0.619 Q1.277 0.555 1.239 0.351" stroke="hsl(0.0,100%,35%)" stroke-width="0.00016"></path>
<path d="M0.476 0.081 Q0.585 0.125 0.693 0.081" stroke="hsl(0.0,100%,35%)" stroke-width="0.00081"></path>
<path d="M0.476 0.081 Q0.536 0.668 1.693 0.767" stroke="hsl(0.0,100%,35%)" stroke-width="0.00016"></path>
<path d="M0.476 0.081 Q0.529 0.559 1.474 0.639" stroke="hsl(0.0,100%,35%)" stroke-width="0.00016"></path>
<path d="M1.715 0.559 Q1.644 0.360 1.239 0.351" stroke="hsl(0.0,100%,35%)" stroke-width="0.00081"></path>
<path d="M1.715 0.559 Q1.869 0.586 1.956 0.517" stroke="hsl(0.0,100%,35%)" stroke-width="0.00113"></path>
<path d="M1.715 0.559 Q1.538 0.659 1.693 0.767" stroke="hsl(0.0,100%,35%)" stroke-width="0.00048"></path>
<path d="M1.715 0.559 Q1.962 0.534 1.968 0.409" stroke="hsl(0.0,100%,35%)" stroke-width="0.00016"></path>
<path d="M1.773 0.887 Q1.983 0.825 1.907 0.708" stroke="hsl(0.0,100%,35%)" stroke-width="0.00016"></path>
<path d="M1.773 0.887 Q1.829 0.812 1.693 0.767" stroke="hsl(0.0,100%,35%)" stroke-width="0.00048"></path>
<path d="M1.773 0.887 Q1.823 0.703 1.474 0.639" stroke="hsl(0.0,100%,35%)" stroke-width="0.00032"></path>
<path d="M1.383 0.429 Q1.285 0.503 1.408 0.567" stroke="hsl(0.0,100%,35%)" stroke-width="0.00081"></path>
<path d="M1.383 0.429 Q1.268 0.660 1.693 0.767" stroke="hsl(0.0,100%,35%)" stroke-width="0.00048"></path>
<path d="M1.383 0.429 Q1.599 0.588 1.956 0.517" stroke="hsl(0.0,100%,35%)" stroke-width="0.00161"></path>
<path d="M1.383 0.429 Q1.261 0.552 1.474 0.639" stroke="hsl(0.0,100%,35%)" stroke-width="0.00016"></path>
<path d="M1.383 0.429 Q0.813 0.210 0.260 0.440" stroke="hsl(0.0,100%,35%)" stroke-width="0.00048"></path>
<path d="M1.383 0.429 Q1.374 0.361 1.239 0.351" stroke="hsl(0.0,100%,35%)" stroke-width="0.00097"></path>
<path d="M1.383 0.429 Q1.104 0.500 1.179 0.651" stroke="hsl(0.0,100%,35%)" stroke-width="0.00016"></path>
</g>
<text x="1.125" y="0.520" font-size="0.042533" fill="hsl(0.0,100%,20%)">armansito</text>
<text x="1.956" y="0.487" font-size="0.059561" fill="hsl(0.0,100%,20%)">michaelludwig</text>
<text x="1.907" y="0.669" font-size="0.079206" fill="hsl(0.0,100%,20%)">johnstiles</text>
<text x="1.408" y="0.540" font-size="0.054572" fill="hsl(0.0,100%,20%)">jvanverth</text>
<text x="1.693" y="0.730" font-size="0.074519" fill="hsl(0.0,100%,20%)">brianosman</text>
<text x="0.260" y="0.406" font-size="0.067679" fill="hsl(0.0,100%,20%)">kjlubick</text>
<text x="0.090" y="0.725" font-size="0.027401" fill="hsl(0.0,100%,20%)">lovisolo</text>
<text x="1.239" y="0.331" font-size="0.038816" fill="hsl(0.0,100%,20%)">egdaniel</text>
<text x="1.474" y="0.618" font-size="0.041876" fill="hsl(0.0,100%,20%)">herb</text>
<text x="1.179" y="0.633" font-size="0.036749" fill="hsl(0.0,100%,20%)">nicolettep</text>
<text x="0.835" y="0.423" font-size="0.031105" fill="hsl(0.0,100%,20%)">jamesgk</text>
<text x="1.396" y="0.765" font-size="0.004490" fill="hsl(0.0,100%,20%)">ayzhao</text>
<text x="1.324" y="0.919" font-size="0.004490" fill="hsl(0.0,100%,20%)">blundell</text>
<text x="1.968" y="0.382" font-size="0.052549" fill="hsl(0.0,100%,20%)">robertphillips</text>
<text x="1.636" y="0.271" font-size="0.012089" fill="hsl(0.0,100%,20%)">borenet</text>
<text x="0.329" y="0.231" font-size="0.010529" fill="hsl(0.0,100%,20%)">rmistry</text>
<text x="1.382" y="0.172" font-size="0.040840" fill="hsl(0.0,100%,20%)">bungeman</text>
<text x="1.456" y="0.898" font-size="0.015225" fill="hsl(0.0,100%,20%)">nscobie</text>
<text x="1.780" y="0.120" font-size="0.017817" fill="hsl(0.0,100%,20%)">jlavrova</text>
<text x="0.901" y="0.819" font-size="0.020203" fill="hsl(0.0,100%,20%)">jmbetancourt</text>
<text x="1.045" y="0.889" font-size="0.026370" fill="hsl(0.0,100%,20%)">fmalita</text>
<text x="1.452" y="0.959" font-size="0.007099" fill="hsl(0.0,100%,20%)">jreck</text>
<text x="0.693" y="0.071" font-size="0.019440" fill="hsl(0.0,100%,20%)">scroggo</text>
<text x="0.074" y="0.551" font-size="0.009255" fill="hsl(0.0,100%,20%)">jcgregorio</text>
<text x="1.072" y="0.437" font-size="0.010039" fill="hsl(0.0,100%,20%)">briansalomon</text>
<text x="1.311" y="0.071" font-size="0.021058" fill="hsl(0.0,100%,20%)">drott</text>
<text x="1.633" y="0.879" font-size="0.013469" fill="hsl(0.0,100%,20%)">ccameron</text>
<text x="0.209" y="0.258" font-size="0.018647" fill="hsl(0.0,100%,20%)">cmumford</text>
<text x="0.581" y="0.543" font-size="0.011664" fill="hsl(0.0,100%,20%)">sharaks</text>
<text x="0.528" y="0.441" font-size="0.008694" fill="hsl(0.0,100%,20%)">hcm</text>
<text x="0.568" y="0.176" font-size="0.006349" fill="hsl(0.0,100%,20%)">djsollen</text>
<text x="1.568" y="0.347" font-size="0.006349" fill="hsl(0.0,100%,20%)">hitawala</text>
<text x="0.552" y="0.308" font-size="0.003888" fill="hsl(0.0,100%,20%)">jacksongardner</text>
<text x="0.126" y="0.302" font-size="0.003175" fill="hsl(0.0,100%,20%)">tdenniston</text>
<text x="1.736" y="0.443" font-size="0.012295" fill="hsl(0.0,100%,20%)">lehoangquyen</text>
<text x="1.156" y="0.412" font-size="0.005499" fill="hsl(0.0,100%,20%)">lokokung</text>
<text x="0.886" y="0.612" font-size="0.013089" fill="hsl(0.0,100%,20%)">mike</text>
<text x="0.476" y="0.078" font-size="0.005939" fill="hsl(0.0,100%,20%)">nigeltao</text>
<text x="1.715" y="0.555" font-size="0.008979" fill="hsl(0.0,100%,20%)">penghuang</text>
<text x="1.773" y="0.885" font-size="0.005499" fill="hsl(0.0,100%,20%)">sky</text>
<text x="1.383" y="0.423" font-size="0.012089" fill="hsl(0.0,100%,20%)">sunnyps</text>
</svg>
