<svg width="4000" height="2000" viewBox="-0.025 -0.025 2.05 1.05" xmlns="http://www.w3.org/2000/svg">
  <style>
    path {
      fill: none;
      stroke-linecap: round;
      stroke-opacity: 0.4;
    }

    text {
      text-anchor: middle;
      alignment-baseline: hanging;
    }
  </style>
  <g opacity="0.4">
<path d="M0.838 0.961 Q1.464 0.851 1.386 0.522" stroke="hsl(0.0,100%,35%)" stroke-width="0.00212"></path>
<path d="M0.838 0.961 Q0.717 0.895 0.561 0.939" stroke="hsl(0.0,100%,35%)" stroke-width="0.01059"></path>
<path d="M0.838 0.961 Q1.543 0.778 1.339 0.394" stroke="hsl(0.0,100%,35%)" stroke-width="0.00045"></path>
<path d="M0.838 0.961 Q1.337 0.634 0.808 0.319" stroke="hsl(0.0,100%,35%)" stroke-width="0.00061"></path>
<path d="M0.838 0.961 Q1.316 0.712 0.934 0.424" stroke="hsl(0.0,100%,35%)" stroke-width="0.00045"></path>
<path d="M0.838 0.961 Q1.210 0.523 0.435 0.245" stroke="hsl(0.0,100%,35%)" stroke-width="0.00045"></path>
<path d="M0.838 0.961 Q0.998 0.607 0.341 0.451" stroke="hsl(0.0,100%,35%)" stroke-width="0.00045"></path>
<path d="M0.838 0.961 Q0.866 0.660 0.284 0.580" stroke="hsl(0.0,100%,35%)" stroke-width="0.00015"></path>
<path d="M0.838 0.961 Q1.283 0.480 0.442 0.158" stroke="hsl(0.0,100%,35%)" stroke-width="0.00015"></path>
<path d="M0.838 0.961 Q1.091 0.866 0.960 0.722" stroke="hsl(0.0,100%,35%)" stroke-width="0.00030"></path>
<path d="M0.838 0.961 Q1.349 0.927 1.393 0.670" stroke="hsl(0.0,100%,35%)" stroke-width="0.00030"></path>
<path d="M0.838 0.961 Q1.274 0.995 1.435 0.790" stroke="hsl(0.0,100%,35%)" stroke-width="0.00015"></path>
<path d="M0.838 0.961 Q1.162 0.630 0.587 0.399" stroke="hsl(0.0,100%,35%)" stroke-width="0.00030"></path>
<path d="M1.386 0.522 Q1.084 0.300 0.587 0.399" stroke="hsl(0.0,100%,35%)" stroke-width="0.00666"></path>
<path d="M1.386 0.522 Q1.204 0.151 0.442 0.158" stroke="hsl(0.0,100%,35%)" stroke-width="0.00590"></path>
<path d="M1.386 0.522 Q1.196 0.666 1.435 0.790" stroke="hsl(0.0,100%,35%)" stroke-width="0.00045"></path>
<path d="M1.386 0.522 Q0.817 0.567 0.781 0.855" stroke="hsl(0.0,100%,35%)" stroke-width="0.00802"></path>
<path d="M1.386 0.522 Q1.000 0.115 0.122 0.214" stroke="hsl(0.0,100%,35%)" stroke-width="0.00121"></path>
<path d="M1.386 0.522 Q0.639 0.565 0.561 0.939" stroke="hsl(0.0,100%,35%)" stroke-width="0.00847"></path>
<path d="M1.386 0.522 Q1.151 0.493 1.045 0.602" stroke="hsl(0.0,100%,35%)" stroke-width="0.00015"></path>
<path d="M1.386 0.522 Q1.679 0.630 1.956 0.511" stroke="hsl(0.0,100%,35%)" stroke-width="0.00045"></path>
<path d="M1.386 0.522 Q1.270 0.597 1.393 0.670" stroke="hsl(0.0,100%,35%)" stroke-width="0.00030"></path>
<path d="M1.386 0.522 Q1.465 0.448 1.339 0.394" stroke="hsl(0.0,100%,35%)" stroke-width="0.00121"></path>
<path d="M1.386 0.522 Q0.920 0.278 0.341 0.451" stroke="hsl(0.0,100%,35%)" stroke-width="0.00348"></path>
<path d="M1.386 0.522 Q1.255 0.236 0.668 0.237" stroke="hsl(0.0,100%,35%)" stroke-width="0.00045"></path>
<path d="M1.386 0.522 Q0.788 0.331 0.284 0.580" stroke="hsl(0.0,100%,35%)" stroke-width="0.00076"></path>
<path d="M1.386 0.522 Q0.760 0.632 0.838 0.961" stroke="hsl(0.0,100%,35%)" stroke-width="0.00121"></path>
<path d="M1.386 0.522 Q0.871 0.206 0.143 0.388" stroke="hsl(0.0,100%,35%)" stroke-width="0.00015"></path>
<path d="M1.386 0.522 Q0.954 0.454 0.727 0.649" stroke="hsl(0.0,100%,35%)" stroke-width="0.00030"></path>
<path d="M1.386 0.522 Q1.132 0.193 0.435 0.245" stroke="hsl(0.0,100%,35%)" stroke-width="0.00045"></path>
<path d="M1.386 0.522 Q1.238 0.382 0.934 0.424" stroke="hsl(0.0,100%,35%)" stroke-width="0.00015"></path>
<path d="M1.386 0.522 Q1.013 0.536 0.960 0.722" stroke="hsl(0.0,100%,35%)" stroke-width="0.00015"></path>
<path d="M0.561 0.939 Q0.739 0.941 0.781 0.855" stroke="hsl(0.0,100%,35%)" stroke-width="0.01452"></path>
<path d="M0.561 0.939 Q0.841 0.651 0.341 0.451" stroke="hsl(0.0,100%,35%)" stroke-width="0.00272"></path>
<path d="M0.561 0.939 Q1.386 0.822 1.339 0.394" stroke="hsl(0.0,100%,35%)" stroke-width="0.00136"></path>
<path d="M0.561 0.939 Q1.307 0.895 1.386 0.522" stroke="hsl(0.0,100%,35%)" stroke-width="0.00454"></path>
<path d="M0.561 0.939 Q1.160 0.756 0.934 0.424" stroke="hsl(0.0,100%,35%)" stroke-width="0.00091"></path>
<path d="M0.561 0.939 Q1.006 0.674 0.587 0.399" stroke="hsl(0.0,100%,35%)" stroke-width="0.00484"></path>
<path d="M0.561 0.939 Q0.934 0.910 0.960 0.722" stroke="hsl(0.0,100%,35%)" stroke-width="0.00030"></path>
<path d="M0.561 0.939 Q1.126 0.525 0.442 0.158" stroke="hsl(0.0,100%,35%)" stroke-width="0.00076"></path>
<path d="M0.561 0.939 Q0.922 0.489 0.122 0.214" stroke="hsl(0.0,100%,35%)" stroke-width="0.00015"></path>
<path d="M0.561 0.939 Q0.615 0.649 0.061 0.559" stroke="hsl(0.0,100%,35%)" stroke-width="0.00061"></path>
<path d="M0.561 0.939 Q1.106 1.121 1.580 0.895" stroke="hsl(0.0,100%,35%)" stroke-width="0.00015"></path>
<path d="M0.561 0.939 Q1.117 1.040 1.435 0.790" stroke="hsl(0.0,100%,35%)" stroke-width="0.00030"></path>
<path d="M0.561 0.939 Q0.710 0.704 0.284 0.580" stroke="hsl(0.0,100%,35%)" stroke-width="0.00030"></path>
<path d="M0.561 0.939 Q0.682 1.006 0.838 0.961" stroke="hsl(0.0,100%,35%)" stroke-width="0.00182"></path>
<path d="M0.561 0.939 Q1.036 0.817 0.902 0.558" stroke="hsl(0.0,100%,35%)" stroke-width="0.00015"></path>
<path d="M0.561 0.939 Q1.073 0.867 1.045 0.602" stroke="hsl(0.0,100%,35%)" stroke-width="0.00015"></path>
<path d="M1.339 0.394 Q0.794 0.223 0.341 0.451" stroke="hsl(0.0,100%,35%)" stroke-width="0.00393"></path>
<path d="M1.339 0.394 Q0.691 0.513 0.781 0.855" stroke="hsl(0.0,100%,35%)" stroke-width="0.01074"></path>
<path d="M1.339 0.394 Q0.959 0.246 0.587 0.399" stroke="hsl(0.0,100%,35%)" stroke-width="0.00802"></path>
<path d="M1.339 0.394 Q0.658 0.181 0.094 0.467" stroke="hsl(0.0,100%,35%)" stroke-width="0.00015"></path>
<path d="M1.339 0.394 Q0.513 0.511 0.561 0.939" stroke="hsl(0.0,100%,35%)" stroke-width="0.00726"></path>
<path d="M1.339 0.394 Q1.079 0.096 0.442 0.158" stroke="hsl(0.0,100%,35%)" stroke-width="0.00363"></path>
<path d="M1.339 0.394 Q1.145 0.543 1.393 0.670" stroke="hsl(0.0,100%,35%)" stroke-width="0.00076"></path>
<path d="M1.339 0.394 Q1.260 0.467 1.386 0.522" stroke="hsl(0.0,100%,35%)" stroke-width="0.01467"></path>
<path d="M1.339 0.394 Q0.874 0.060 0.122 0.214" stroke="hsl(0.0,100%,35%)" stroke-width="0.00257"></path>
<path d="M1.339 0.394 Q1.070 0.611 1.435 0.790" stroke="hsl(0.0,100%,35%)" stroke-width="0.00015"></path>
<path d="M1.339 0.394 Q1.352 0.282 1.136 0.251" stroke="hsl(0.0,100%,35%)" stroke-width="0.00030"></path>
<path d="M1.339 0.394 Q0.848 0.362 0.678 0.594" stroke="hsl(0.0,100%,35%)" stroke-width="0.00015"></path>
<path d="M1.339 0.394 Q0.887 0.482 0.960 0.722" stroke="hsl(0.0,100%,35%)" stroke-width="0.00106"></path>
<path d="M1.339 0.394 Q0.634 0.577 0.838 0.961" stroke="hsl(0.0,100%,35%)" stroke-width="0.00227"></path>
<path d="M1.339 0.394 Q0.662 0.276 0.284 0.580" stroke="hsl(0.0,100%,35%)" stroke-width="0.00045"></path>
<path d="M1.339 0.394 Q0.480 0.293 0.095 0.690" stroke="hsl(0.0,100%,35%)" stroke-width="0.00136"></path>
<path d="M1.339 0.394 Q1.630 0.468 1.838 0.342" stroke="hsl(0.0,100%,35%)" stroke-width="0.00015"></path>
<path d="M1.339 0.394 Q1.006 0.139 0.435 0.245" stroke="hsl(0.0,100%,35%)" stroke-width="0.00015"></path>
<path d="M1.339 0.394 Q1.112 0.328 0.934 0.424" stroke="hsl(0.0,100%,35%)" stroke-width="0.00015"></path>
<path d="M0.808 0.319 Q0.523 0.430 0.678 0.594" stroke="hsl(120.0,100%,35%)" stroke-width="0.00166"></path>
<path d="M0.808 0.319 Q0.561 0.550 0.960 0.722" stroke="hsl(120.0,100%,35%)" stroke-width="0.00045"></path>
<path d="M0.808 0.319 Q0.188 0.579 0.561 0.939" stroke="hsl(120.0,100%,35%)" stroke-width="0.00136"></path>
<path d="M0.808 0.319 Q0.787 0.396 0.934 0.424" stroke="hsl(120.0,100%,35%)" stroke-width="0.00318"></path>
<path d="M0.808 0.319 Q0.700 0.507 1.045 0.602" stroke="hsl(120.0,100%,35%)" stroke-width="0.00015"></path>
<path d="M0.808 0.319 Q0.744 0.680 1.435 0.790" stroke="hsl(120.0,100%,35%)" stroke-width="0.00015"></path>
<path d="M0.808 0.319 Q1.013 0.462 1.339 0.394" stroke="hsl(120.0,100%,35%)" stroke-width="0.00061"></path>
<path d="M0.934 0.424 Q0.955 0.346 0.808 0.319" stroke="hsl(120.0,100%,35%)" stroke-width="0.00378"></path>
<path d="M0.934 0.424 Q0.670 0.458 0.678 0.594" stroke="hsl(120.0,100%,35%)" stroke-width="0.00045"></path>
<path d="M0.934 0.424 Q0.696 0.156 0.122 0.214" stroke="hsl(120.0,100%,35%)" stroke-width="0.00030"></path>
<path d="M0.934 0.424 Q0.785 0.453 0.809 0.531" stroke="hsl(120.0,100%,35%)" stroke-width="0.00030"></path>
<path d="M0.934 0.424 Q0.513 0.609 0.781 0.855" stroke="hsl(120.0,100%,35%)" stroke-width="0.00015"></path>
<path d="M0.934 0.424 Q1.452 0.564 1.838 0.342" stroke="hsl(120.0,100%,35%)" stroke-width="0.00015"></path>
<path d="M0.934 0.424 Q0.951 0.277 0.668 0.237" stroke="hsl(120.0,100%,35%)" stroke-width="0.00015"></path>
<path d="M0.934 0.424 Q1.082 0.563 1.386 0.522" stroke="hsl(120.0,100%,35%)" stroke-width="0.00015"></path>
<path d="M0.934 0.424 Q0.780 0.342 0.587 0.399" stroke="hsl(120.0,100%,35%)" stroke-width="0.00015"></path>
<path d="M0.934 0.424 Q0.708 0.578 0.960 0.722" stroke="hsl(120.0,100%,35%)" stroke-width="0.00045"></path>
<path d="M0.934 0.424 Q0.810 0.485 0.902 0.558" stroke="hsl(120.0,100%,35%)" stroke-width="0.00091"></path>
<path d="M0.435 0.245 Q0.508 0.203 0.442 0.158" stroke="hsl(120.0,100%,35%)" stroke-width="0.00696"></path>
<path d="M0.435 0.245 Q0.092 0.383 0.284 0.580" stroke="hsl(120.0,100%,35%)" stroke-width="0.00151"></path>
<path d="M0.435 0.245 Q0.690 0.574 1.386 0.522" stroke="hsl(120.0,100%,35%)" stroke-width="0.00045"></path>
<path d="M0.435 0.245 Q0.768 0.500 1.339 0.394" stroke="hsl(120.0,100%,35%)" stroke-width="0.00015"></path>
<path d="M0.435 0.245 Q0.542 0.434 0.934 0.424" stroke="hsl(120.0,100%,35%)" stroke-width="0.00348"></path>
<path d="M0.435 0.245 Q-0.003 0.327 0.061 0.559" stroke="hsl(120.0,100%,35%)" stroke-width="0.00030"></path>
<path d="M0.435 0.245 Q0.418 0.495 0.902 0.558" stroke="hsl(120.0,100%,35%)" stroke-width="0.00030"></path>
<path d="M0.435 0.245 Q0.224 0.329 0.341 0.451" stroke="hsl(120.0,100%,35%)" stroke-width="0.00015"></path>
<path d="M0.435 0.245 Q0.064 0.684 0.838 0.961" stroke="hsl(120.0,100%,35%)" stroke-width="0.00045"></path>
<path d="M0.435 0.245 Q0.574 0.649 1.393 0.670" stroke="hsl(120.0,100%,35%)" stroke-width="0.00242"></path>
<path d="M0.435 0.245 Q0.304 0.167 0.122 0.214" stroke="hsl(120.0,100%,35%)" stroke-width="0.00015"></path>
<path d="M0.435 0.245 Q0.559 0.288 0.668 0.237" stroke="hsl(120.0,100%,35%)" stroke-width="0.00015"></path>
<path d="M0.341 0.451 Q0.506 0.474 0.587 0.399" stroke="hsl(0.0,100%,35%)" stroke-width="0.01240"></path>
<path d="M0.341 0.451 Q0.061 0.739 0.561 0.939" stroke="hsl(0.0,100%,35%)" stroke-width="0.00348"></path>
<path d="M0.341 0.451 Q0.422 0.289 0.122 0.214" stroke="hsl(0.0,100%,35%)" stroke-width="0.00197"></path>
<path d="M0.341 0.451 Q0.626 0.325 0.442 0.158" stroke="hsl(0.0,100%,35%)" stroke-width="0.00363"></path>
<path d="M0.341 0.451 Q0.238 0.741 0.781 0.855" stroke="hsl(0.0,100%,35%)" stroke-width="0.00242"></path>
<path d="M0.341 0.451 Q0.886 0.622 1.339 0.394" stroke="hsl(0.0,100%,35%)" stroke-width="0.00061"></path>
<path d="M0.341 0.451 Q0.676 0.410 0.668 0.237" stroke="hsl(0.0,100%,35%)" stroke-width="0.00015"></path>
<path d="M0.341 0.451 Q0.807 0.695 1.386 0.522" stroke="hsl(0.0,100%,35%)" stroke-width="0.00287"></path>
<path d="M0.341 0.451 Q0.511 0.585 0.809 0.531" stroke="hsl(0.0,100%,35%)" stroke-width="0.00015"></path>
<path d="M0.341 0.451 Q0.617 0.839 1.435 0.790" stroke="hsl(0.0,100%,35%)" stroke-width="0.00015"></path>
<path d="M0.341 0.451 Q0.182 0.806 0.838 0.961" stroke="hsl(0.0,100%,35%)" stroke-width="0.00045"></path>
<path d="M0.341 0.451 Q0.659 0.556 0.934 0.424" stroke="hsl(0.0,100%,35%)" stroke-width="0.00015"></path>
<path d="M0.341 0.451 Q0.209 0.504 0.284 0.580" stroke="hsl(0.0,100%,35%)" stroke-width="0.00015"></path>
<path d="M0.341 0.451 Q0.434 0.710 0.960 0.722" stroke="hsl(0.0,100%,35%)" stroke-width="0.00015"></path>
<path d="M0.341 0.451 Q0.536 0.617 0.902 0.558" stroke="hsl(0.0,100%,35%)" stroke-width="0.00015"></path>
<path d="M0.341 0.451 Q1.177 0.696 1.838 0.342" stroke="hsl(0.0,100%,35%)" stroke-width="0.00015"></path>
<path d="M0.341 0.451 Q0.365 0.531 0.526 0.537" stroke="hsl(0.0,100%,35%)" stroke-width="0.00015"></path>
<path d="M0.284 0.580 Q0.648 0.743 1.045 0.602" stroke="hsl(120.0,100%,35%)" stroke-width="0.00015"></path>
<path d="M0.284 0.580 Q0.767 0.847 1.393 0.670" stroke="hsl(120.0,100%,35%)" stroke-width="0.00121"></path>
<path d="M0.284 0.580 Q0.190 0.525 0.061 0.559" stroke="hsl(120.0,100%,35%)" stroke-width="0.00560"></path>
<path d="M0.284 0.580 Q0.882 0.771 1.386 0.522" stroke="hsl(120.0,100%,35%)" stroke-width="0.00121"></path>
<path d="M0.284 0.580 Q0.561 0.617 0.694 0.491" stroke="hsl(120.0,100%,35%)" stroke-width="0.00015"></path>
<path d="M0.284 0.580 Q0.102 0.597 0.095 0.690" stroke="hsl(120.0,100%,35%)" stroke-width="0.00045"></path>
<path d="M0.284 0.580 Q0.701 0.401 0.442 0.158" stroke="hsl(120.0,100%,35%)" stroke-width="0.00227"></path>
<path d="M0.284 0.580 Q0.497 0.365 0.122 0.214" stroke="hsl(120.0,100%,35%)" stroke-width="0.00045"></path>
<path d="M0.284 0.580 Q0.313 0.817 0.781 0.855" stroke="hsl(120.0,100%,35%)" stroke-width="0.00076"></path>
<path d="M0.284 0.580 Q0.509 0.786 0.960 0.722" stroke="hsl(120.0,100%,35%)" stroke-width="0.00257"></path>
<path d="M0.284 0.580 Q0.692 0.915 1.435 0.790" stroke="hsl(120.0,100%,35%)" stroke-width="0.00076"></path>
<path d="M0.284 0.580 Q0.440 0.607 0.526 0.537" stroke="hsl(120.0,100%,35%)" stroke-width="0.00121"></path>
<path d="M0.284 0.580 Q0.342 0.625 0.443 0.607" stroke="hsl(120.0,100%,35%)" stroke-width="0.00015"></path>
<path d="M0.284 0.580 Q0.961 0.698 1.339 0.394" stroke="hsl(120.0,100%,35%)" stroke-width="0.00015"></path>
<path d="M0.284 0.580 Q0.680 0.997 1.580 0.895" stroke="hsl(120.0,100%,35%)" stroke-width="0.00182"></path>
<path d="M0.284 0.580 Q1.176 0.880 1.956 0.511" stroke="hsl(120.0,100%,35%)" stroke-width="0.00015"></path>
<path d="M0.284 0.580 Q0.628 0.443 0.435 0.245" stroke="hsl(120.0,100%,35%)" stroke-width="0.00076"></path>
<path d="M0.284 0.580 Q1.252 0.772 1.838 0.342" stroke="hsl(120.0,100%,35%)" stroke-width="0.00015"></path>
<path d="M0.442 0.158 Q0.054 0.574 0.781 0.855" stroke="hsl(240.0,100%,35%)" stroke-width="0.00650"></path>
<path d="M0.442 0.158 Q0.212 0.423 0.678 0.594" stroke="hsl(240.0,100%,35%)" stroke-width="0.00106"></path>
<path d="M0.442 0.158 Q0.389 0.500 1.045 0.602" stroke="hsl(240.0,100%,35%)" stroke-width="0.00045"></path>
<path d="M0.442 0.158 Q0.623 0.529 1.386 0.522" stroke="hsl(240.0,100%,35%)" stroke-width="0.01150"></path>
<path d="M0.442 0.158 Q0.917 0.637 1.956 0.511" stroke="hsl(240.0,100%,35%)" stroke-width="0.00121"></path>
<path d="M0.442 0.158 Q0.238 0.122 0.122 0.214" stroke="hsl(240.0,100%,35%)" stroke-width="0.02481"></path>
<path d="M0.442 0.158 Q0.250 0.544 0.960 0.722" stroke="hsl(240.0,100%,35%)" stroke-width="0.00287"></path>
<path d="M0.442 0.158 Q0.993 0.529 1.838 0.342" stroke="hsl(240.0,100%,35%)" stroke-width="0.00030"></path>
<path d="M0.442 0.158 Q-0.124 0.572 0.561 0.939" stroke="hsl(240.0,100%,35%)" stroke-width="0.00121"></path>
<path d="M0.442 0.158 Q0.322 0.308 0.587 0.399" stroke="hsl(240.0,100%,35%)" stroke-width="0.00121"></path>
<path d="M0.442 0.158 Q0.492 0.243 0.668 0.237" stroke="hsl(240.0,100%,35%)" stroke-width="0.00454"></path>
<path d="M0.442 0.158 Q0.508 0.605 1.393 0.670" stroke="hsl(240.0,100%,35%)" stroke-width="0.00121"></path>
<path d="M0.442 0.158 Q0.421 0.754 1.580 0.895" stroke="hsl(240.0,100%,35%)" stroke-width="0.00015"></path>
<path d="M0.442 0.158 Q0.496 0.312 0.808 0.319" stroke="hsl(240.0,100%,35%)" stroke-width="0.00030"></path>
<path d="M0.442 0.158 Q0.702 0.455 1.339 0.394" stroke="hsl(240.0,100%,35%)" stroke-width="0.00076"></path>
<path d="M0.442 0.158 Q0.157 0.285 0.341 0.451" stroke="hsl(240.0,100%,35%)" stroke-width="0.00045"></path>
<path d="M0.442 0.158 Q0.475 0.389 0.934 0.424" stroke="hsl(240.0,100%,35%)" stroke-width="0.00106"></path>
<path d="M0.442 0.158 Q0.025 0.338 0.284 0.580" stroke="hsl(240.0,100%,35%)" stroke-width="0.00287"></path>
<path d="M0.442 0.158 Q-0.070 0.283 0.061 0.559" stroke="hsl(240.0,100%,35%)" stroke-width="0.00076"></path>
<path d="M0.442 0.158 Q0.433 0.673 1.435 0.790" stroke="hsl(240.0,100%,35%)" stroke-width="0.00015"></path>
<path d="M0.442 0.158 Q0.021 0.243 0.094 0.467" stroke="hsl(240.0,100%,35%)" stroke-width="0.00030"></path>
<path d="M0.442 0.158 Q0.369 0.200 0.435 0.245" stroke="hsl(240.0,100%,35%)" stroke-width="0.00560"></path>
<path d="M0.960 0.722 Q1.333 0.707 1.386 0.522" stroke="hsl(120.0,100%,35%)" stroke-width="0.00166"></path>
<path d="M0.960 0.722 Q1.143 0.851 1.435 0.790" stroke="hsl(120.0,100%,35%)" stroke-width="0.00378"></path>
<path d="M0.960 0.722 Q1.206 0.490 0.808 0.319" stroke="hsl(120.0,100%,35%)" stroke-width="0.00212"></path>
<path d="M0.960 0.722 Q0.921 0.601 0.678 0.594" stroke="hsl(120.0,100%,35%)" stroke-width="0.00212"></path>
<path d="M0.960 0.722 Q1.152 0.336 0.442 0.158" stroke="hsl(120.0,100%,35%)" stroke-width="0.00348"></path>
<path d="M0.960 0.722 Q1.185 0.568 0.934 0.424" stroke="hsl(120.0,100%,35%)" stroke-width="0.00272"></path>
<path d="M0.960 0.722 Q0.891 0.543 0.526 0.537" stroke="hsl(120.0,100%,35%)" stroke-width="0.00045"></path>
<path d="M0.960 0.722 Q0.901 0.639 0.727 0.649" stroke="hsl(120.0,100%,35%)" stroke-width="0.00242"></path>
<path d="M0.960 0.722 Q1.097 0.755 1.192 0.695" stroke="hsl(120.0,100%,35%)" stroke-width="0.00378"></path>
<path d="M0.960 0.722 Q0.764 0.752 0.781 0.855" stroke="hsl(120.0,100%,35%)" stroke-width="0.00030"></path>
<path d="M0.960 0.722 Q1.032 0.486 0.587 0.399" stroke="hsl(120.0,100%,35%)" stroke-width="0.00061"></path>
<path d="M0.960 0.722 Q1.703 0.707 1.838 0.342" stroke="hsl(120.0,100%,35%)" stroke-width="0.00061"></path>
<path d="M0.960 0.722 Q0.586 0.751 0.561 0.939" stroke="hsl(120.0,100%,35%)" stroke-width="0.00045"></path>
<path d="M0.960 0.722 Q0.947 0.300 0.122 0.214" stroke="hsl(120.0,100%,35%)" stroke-width="0.00091"></path>
<path d="M0.960 0.722 Q1.037 0.596 0.809 0.531" stroke="hsl(120.0,100%,35%)" stroke-width="0.00030"></path>
<path d="M0.960 0.722 Q0.640 0.461 0.061 0.559" stroke="hsl(120.0,100%,35%)" stroke-width="0.00030"></path>
<path d="M0.960 0.722 Q0.735 0.516 0.284 0.580" stroke="hsl(120.0,100%,35%)" stroke-width="0.00106"></path>
<path d="M0.960 0.722 Q1.412 0.633 1.339 0.394" stroke="hsl(120.0,100%,35%)" stroke-width="0.00015"></path>
<path d="M0.960 0.722 Q0.731 0.421 0.094 0.467" stroke="hsl(120.0,100%,35%)" stroke-width="0.00030"></path>
<path d="M0.960 0.722 Q0.553 0.533 0.095 0.690" stroke="hsl(120.0,100%,35%)" stroke-width="0.00015"></path>
<path d="M0.960 0.722 Q1.218 0.783 1.393 0.670" stroke="hsl(120.0,100%,35%)" stroke-width="0.00030"></path>
<path d="M0.960 0.722 Q1.627 0.815 1.956 0.511" stroke="hsl(120.0,100%,35%)" stroke-width="0.00015"></path>
<path d="M0.960 0.722 Q0.867 0.463 0.341 0.451" stroke="hsl(120.0,100%,35%)" stroke-width="0.00030"></path>
<path d="M0.960 0.722 Q1.131 0.932 1.580 0.895" stroke="hsl(120.0,100%,35%)" stroke-width="0.00030"></path>
<path d="M0.960 0.722 Q1.062 0.628 0.902 0.558" stroke="hsl(120.0,100%,35%)" stroke-width="0.00015"></path>
<path d="M1.393 0.670 Q0.762 0.638 0.561 0.939" stroke="hsl(0.0,100%,35%)" stroke-width="0.00923"></path>
<path d="M1.393 0.670 Q1.318 0.739 1.435 0.790" stroke="hsl(0.0,100%,35%)" stroke-width="0.00499"></path>
<path d="M1.393 0.670 Q1.327 0.224 0.442 0.158" stroke="hsl(0.0,100%,35%)" stroke-width="0.00681"></path>
<path d="M1.393 0.670 Q1.509 0.594 1.386 0.522" stroke="hsl(0.0,100%,35%)" stroke-width="0.00091"></path>
<path d="M1.393 0.670 Q1.378 0.309 0.668 0.237" stroke="hsl(0.0,100%,35%)" stroke-width="0.00015"></path>
<path d="M1.393 0.670 Q0.911 0.404 0.284 0.580" stroke="hsl(0.0,100%,35%)" stroke-width="0.00227"></path>
<path d="M1.393 0.670 Q1.587 0.521 1.339 0.394" stroke="hsl(0.0,100%,35%)" stroke-width="0.00076"></path>
<path d="M1.393 0.670 Q1.123 0.188 0.122 0.214" stroke="hsl(0.0,100%,35%)" stroke-width="0.00045"></path>
<path d="M1.393 0.670 Q1.180 0.702 1.194 0.812" stroke="hsl(0.0,100%,35%)" stroke-width="0.00015"></path>
<path d="M1.393 0.670 Q1.136 0.609 0.960 0.722" stroke="hsl(0.0,100%,35%)" stroke-width="0.00015"></path>
<path d="M1.393 0.670 Q0.883 0.705 0.838 0.961" stroke="hsl(0.0,100%,35%)" stroke-width="0.00030"></path>
<path d="M1.393 0.670 Q1.307 0.820 1.580 0.895" stroke="hsl(0.0,100%,35%)" stroke-width="0.00061"></path>
<path d="M1.393 0.670 Q0.940 0.640 0.781 0.855" stroke="hsl(0.0,100%,35%)" stroke-width="0.00076"></path>
<path d="M1.435 0.790 Q1.919 0.755 1.956 0.511" stroke="hsl(120.0,100%,35%)" stroke-width="0.00045"></path>
<path d="M1.435 0.790 Q1.510 0.722 1.393 0.670" stroke="hsl(120.0,100%,35%)" stroke-width="0.00514"></path>
<path d="M1.435 0.790 Q1.056 0.691 0.781 0.855" stroke="hsl(120.0,100%,35%)" stroke-width="0.00030"></path>
<path d="M1.435 0.790 Q1.252 0.661 0.960 0.722" stroke="hsl(120.0,100%,35%)" stroke-width="0.00061"></path>
<path d="M1.435 0.790 Q1.424 0.872 1.580 0.895" stroke="hsl(120.0,100%,35%)" stroke-width="0.00106"></path>
<path d="M1.435 0.790 Q1.444 0.275 0.442 0.158" stroke="hsl(120.0,100%,35%)" stroke-width="0.00106"></path>
<path d="M1.435 0.790 Q1.240 0.239 0.122 0.214" stroke="hsl(120.0,100%,35%)" stroke-width="0.00061"></path>
<path d="M1.435 0.790 Q1.324 0.425 0.587 0.399" stroke="hsl(120.0,100%,35%)" stroke-width="0.00061"></path>
<path d="M1.435 0.790 Q1.391 0.618 1.045 0.602" stroke="hsl(120.0,100%,35%)" stroke-width="0.00045"></path>
<path d="M1.435 0.790 Q1.027 0.455 0.284 0.580" stroke="hsl(120.0,100%,35%)" stroke-width="0.00212"></path>
<path d="M1.435 0.790 Q0.879 0.690 0.561 0.939" stroke="hsl(120.0,100%,35%)" stroke-width="0.00045"></path>
<path d="M1.435 0.790 Q1.222 0.813 1.219 0.921" stroke="hsl(120.0,100%,35%)" stroke-width="0.00015"></path>
<path d="M1.435 0.790 Q0.933 0.400 0.061 0.559" stroke="hsl(120.0,100%,35%)" stroke-width="0.00106"></path>
<path d="M1.435 0.790 Q1.344 0.828 1.398 0.881" stroke="hsl(120.0,100%,35%)" stroke-width="0.00076"></path>
<path d="M1.435 0.790 Q1.371 0.318 0.435 0.245" stroke="hsl(120.0,100%,35%)" stroke-width="0.00121"></path>
<path d="M1.435 0.790 Q1.995 0.647 1.838 0.342" stroke="hsl(120.0,100%,35%)" stroke-width="0.00015"></path>
<path d="M1.435 0.790 Q1.159 0.402 0.341 0.451" stroke="hsl(120.0,100%,35%)" stroke-width="0.00015"></path>
<path d="M0.587 0.399 Q0.141 0.664 0.561 0.939" stroke="hsl(0.0,100%,35%)" stroke-width="0.00348"></path>
<path d="M0.587 0.399 Q0.707 0.249 0.442 0.158" stroke="hsl(0.0,100%,35%)" stroke-width="0.00061"></path>
<path d="M0.587 0.399 Q0.319 0.665 0.781 0.855" stroke="hsl(0.0,100%,35%)" stroke-width="0.00151"></path>
<path d="M0.587 0.399 Q0.888 0.620 1.386 0.522" stroke="hsl(0.0,100%,35%)" stroke-width="0.00560"></path>
<path d="M0.587 0.399 Q0.422 0.376 0.341 0.451" stroke="hsl(0.0,100%,35%)" stroke-width="0.00877"></path>
<path d="M0.587 0.399 Q0.967 0.547 1.339 0.394" stroke="hsl(0.0,100%,35%)" stroke-width="0.00257"></path>
<path d="M0.587 0.399 Q0.698 0.764 1.435 0.790" stroke="hsl(0.0,100%,35%)" stroke-width="0.00030"></path>
<path d="M0.587 0.399 Q0.515 0.635 0.960 0.722" stroke="hsl(0.0,100%,35%)" stroke-width="0.00015"></path>
<path d="M0.587 0.399 Q0.757 0.334 0.668 0.237" stroke="hsl(0.0,100%,35%)" stroke-width="0.00015"></path>
<path d="M0.587 0.399 Q0.740 0.481 0.934 0.424" stroke="hsl(0.0,100%,35%)" stroke-width="0.00015"></path>
<path d="M0.587 0.399 Q1.182 0.729 1.956 0.511" stroke="hsl(0.0,100%,35%)" stroke-width="0.00015"></path>
<path d="M0.587 0.399 Q0.290 0.429 0.284 0.580" stroke="hsl(0.0,100%,35%)" stroke-width="0.00015"></path>
<path d="M0.587 0.399 Q1.258 0.621 1.838 0.342" stroke="hsl(0.0,100%,35%)" stroke-width="0.00015"></path>
<path d="M0.569 0.039 Q0.409 0.073 0.442 0.158" stroke="hsl(240.0,100%,35%)" stroke-width="0.00015"></path>
<path d="M0.569 0.039 Q0.443 0.304 0.934 0.424" stroke="hsl(240.0,100%,35%)" stroke-width="0.00015"></path>
<path d="M0.569 0.039 Q0.205 0.037 0.122 0.214" stroke="hsl(240.0,100%,35%)" stroke-width="0.00045"></path>
<path d="M0.122 0.214 Q0.377 0.334 0.668 0.237" stroke="hsl(240.0,100%,35%)" stroke-width="0.04175"></path>
<path d="M0.122 0.214 Q0.326 0.250 0.442 0.158" stroke="hsl(240.0,100%,35%)" stroke-width="0.10482"></path>
<path d="M0.122 0.214 Q-0.095 0.334 0.094 0.467" stroke="hsl(240.0,100%,35%)" stroke-width="0.00030"></path>
<path d="M0.122 0.214 Q0.317 0.764 1.435 0.790" stroke="hsl(240.0,100%,35%)" stroke-width="0.00061"></path>
<path d="M0.122 0.214 Q0.306 0.846 1.580 0.895" stroke="hsl(240.0,100%,35%)" stroke-width="0.00106"></path>
<path d="M0.122 0.214 Q0.392 0.696 1.393 0.670" stroke="hsl(240.0,100%,35%)" stroke-width="0.00106"></path>
<path d="M0.122 0.214 Q0.586 0.547 1.339 0.394" stroke="hsl(240.0,100%,35%)" stroke-width="0.00045"></path>
<path d="M0.122 0.214 Q0.206 0.399 0.587 0.399" stroke="hsl(240.0,100%,35%)" stroke-width="0.00212"></path>
<path d="M0.122 0.214 Q0.042 0.376 0.341 0.451" stroke="hsl(240.0,100%,35%)" stroke-width="0.00166"></path>
<path d="M0.122 0.214 Q0.211 0.510 0.809 0.531" stroke="hsl(240.0,100%,35%)" stroke-width="0.00015"></path>
<path d="M0.122 0.214 Q0.134 0.635 0.960 0.722" stroke="hsl(240.0,100%,35%)" stroke-width="0.00091"></path>
<path d="M0.122 0.214 Q-0.185 0.374 0.061 0.559" stroke="hsl(240.0,100%,35%)" stroke-width="0.00030"></path>
<path d="M0.122 0.214 Q0.878 0.621 1.838 0.342" stroke="hsl(240.0,100%,35%)" stroke-width="0.00061"></path>
<path d="M0.122 0.214 Q-0.061 0.666 0.781 0.855" stroke="hsl(240.0,100%,35%)" stroke-width="0.00166"></path>
<path d="M0.122 0.214 Q0.508 0.620 1.386 0.522" stroke="hsl(240.0,100%,35%)" stroke-width="0.00469"></path>
<path d="M0.122 0.214 Q0.381 0.403 0.808 0.319" stroke="hsl(240.0,100%,35%)" stroke-width="0.00045"></path>
<path d="M0.122 0.214 Q-0.090 0.429 0.284 0.580" stroke="hsl(240.0,100%,35%)" stroke-width="0.00197"></path>
<path d="M0.122 0.214 Q-0.239 0.664 0.561 0.939" stroke="hsl(240.0,100%,35%)" stroke-width="0.00136"></path>
<path d="M0.122 0.214 Q-0.273 0.446 0.095 0.690" stroke="hsl(240.0,100%,35%)" stroke-width="0.00015"></path>
<path d="M0.122 0.214 Q0.801 0.729 1.956 0.511" stroke="hsl(240.0,100%,35%)" stroke-width="0.00045"></path>
<path d="M0.122 0.214 Q0.096 0.515 0.678 0.594" stroke="hsl(240.0,100%,35%)" stroke-width="0.00015"></path>
<path d="M0.122 0.214 Q0.253 0.292 0.435 0.245" stroke="hsl(240.0,100%,35%)" stroke-width="0.00061"></path>
<path d="M0.122 0.214 Q-0.118 0.731 0.838 0.961" stroke="hsl(240.0,100%,35%)" stroke-width="0.00015"></path>
<path d="M0.678 0.594 Q0.963 0.482 0.808 0.319" stroke="hsl(120.0,100%,35%)" stroke-width="0.00061"></path>
<path d="M0.678 0.594 Q0.794 0.589 0.809 0.531" stroke="hsl(120.0,100%,35%)" stroke-width="0.00015"></path>
<path d="M0.678 0.594 Q0.900 0.843 1.435 0.790" stroke="hsl(120.0,100%,35%)" stroke-width="0.00061"></path>
<path d="M0.678 0.594 Q0.942 0.560 0.934 0.424" stroke="hsl(120.0,100%,35%)" stroke-width="0.00227"></path>
<path d="M0.678 0.594 Q0.788 0.478 0.587 0.399" stroke="hsl(120.0,100%,35%)" stroke-width="0.00015"></path>
<path d="M0.678 0.594 Q0.909 0.329 0.442 0.158" stroke="hsl(120.0,100%,35%)" stroke-width="0.00015"></path>
<path d="M0.678 0.594 Q0.704 0.292 0.122 0.214" stroke="hsl(120.0,100%,35%)" stroke-width="0.00030"></path>
<path d="M0.678 0.594 Q1.090 0.699 1.386 0.522" stroke="hsl(120.0,100%,35%)" stroke-width="0.00015"></path>
<path d="M0.678 0.594 Q0.836 0.371 0.435 0.245" stroke="hsl(120.0,100%,35%)" stroke-width="0.00015"></path>
<path d="M0.678 0.594 Q0.464 0.809 0.838 0.961" stroke="hsl(120.0,100%,35%)" stroke-width="0.00015"></path>
<path d="M0.678 0.594 Q1.169 0.626 1.339 0.394" stroke="hsl(120.0,100%,35%)" stroke-width="0.00015"></path>
<path d="M0.678 0.594 Q0.855 0.671 1.045 0.602" stroke="hsl(120.0,100%,35%)" stroke-width="0.00045"></path>
<path d="M0.678 0.594 Q0.717 0.714 0.960 0.722" stroke="hsl(120.0,100%,35%)" stroke-width="0.00015"></path>
<path d="M0.809 0.531 Q0.870 0.690 1.192 0.695" stroke="hsl(120.0,100%,35%)" stroke-width="0.00030"></path>
<path d="M0.809 0.531 Q0.694 0.536 0.678 0.594" stroke="hsl(120.0,100%,35%)" stroke-width="0.00030"></path>
<path d="M0.809 0.531 Q0.979 0.425 0.808 0.319" stroke="hsl(120.0,100%,35%)" stroke-width="0.00015"></path>
<path d="M0.809 0.531 Q0.958 0.502 0.934 0.424" stroke="hsl(120.0,100%,35%)" stroke-width="0.00015"></path>
<path d="M0.781 0.855 Q1.350 0.809 1.386 0.522" stroke="hsl(0.0,100%,35%)" stroke-width="0.00318"></path>
<path d="M0.781 0.855 Q1.048 0.588 0.587 0.399" stroke="hsl(0.0,100%,35%)" stroke-width="0.00227"></path>
<path d="M0.781 0.855 Q0.603 0.853 0.561 0.939" stroke="hsl(0.0,100%,35%)" stroke-width="0.00953"></path>
<path d="M0.781 0.855 Q0.977 0.824 0.960 0.722" stroke="hsl(0.0,100%,35%)" stroke-width="0.00015"></path>
<path d="M0.781 0.855 Q0.884 0.565 0.341 0.451" stroke="hsl(0.0,100%,35%)" stroke-width="0.00318"></path>
<path d="M0.781 0.855 Q1.168 0.438 0.442 0.158" stroke="hsl(0.0,100%,35%)" stroke-width="0.00136"></path>
<path d="M0.781 0.855 Q1.234 0.885 1.393 0.670" stroke="hsl(0.0,100%,35%)" stroke-width="0.00061"></path>
<path d="M0.781 0.855 Q1.428 0.736 1.339 0.394" stroke="hsl(0.0,100%,35%)" stroke-width="0.00212"></path>
<path d="M0.781 0.855 Q0.752 0.618 0.284 0.580" stroke="hsl(0.0,100%,35%)" stroke-width="0.00257"></path>
<path d="M0.781 0.855 Q0.657 0.563 0.061 0.559" stroke="hsl(0.0,100%,35%)" stroke-width="0.00091"></path>
<path d="M0.781 0.855 Q1.643 0.918 1.956 0.511" stroke="hsl(0.0,100%,35%)" stroke-width="0.00030"></path>
<path d="M0.781 0.855 Q0.964 0.402 0.122 0.214" stroke="hsl(0.0,100%,35%)" stroke-width="0.00015"></path>
<path d="M0.781 0.855 Q0.628 0.673 0.239 0.707" stroke="hsl(0.0,100%,35%)" stroke-width="0.00015"></path>
<path d="M0.781 0.855 Q0.569 0.635 0.095 0.690" stroke="hsl(0.0,100%,35%)" stroke-width="0.00015"></path>
<path d="M1.838 0.342 Q1.762 0.450 1.956 0.511" stroke="hsl(120.0,100%,35%)" stroke-width="0.00197"></path>
<path d="M1.838 0.342 Q1.167 0.120 0.587 0.399" stroke="hsl(120.0,100%,35%)" stroke-width="0.00045"></path>
<path d="M1.838 0.342 Q1.095 0.356 0.960 0.722" stroke="hsl(120.0,100%,35%)" stroke-width="0.00061"></path>
<path d="M1.838 0.342 Q1.321 0.202 0.934 0.424" stroke="hsl(120.0,100%,35%)" stroke-width="0.00015"></path>
<path d="M1.838 0.342 Q1.342 0.124 0.808 0.319" stroke="hsl(120.0,100%,35%)" stroke-width="0.00015"></path>
<path d="M1.838 0.342 Q1.939 0.161 1.610 0.073" stroke="hsl(120.0,100%,35%)" stroke-width="0.00030"></path>
<path d="M1.838 0.342 Q1.057 0.236 0.678 0.594" stroke="hsl(120.0,100%,35%)" stroke-width="0.00015"></path>
<path d="M1.838 0.342 Q1.287 -0.029 0.442 0.158" stroke="hsl(120.0,100%,35%)" stroke-width="0.00015"></path>
<path d="M0.668 0.237 Q0.618 0.152 0.442 0.158" stroke="hsl(240.0,100%,35%)" stroke-width="0.01013"></path>
<path d="M0.668 0.237 Q0.414 0.116 0.122 0.214" stroke="hsl(240.0,100%,35%)" stroke-width="0.03025"></path>
<path d="M0.668 0.237 Q0.799 0.523 1.386 0.522" stroke="hsl(240.0,100%,35%)" stroke-width="0.00030"></path>
<path d="M0.902 0.558 Q0.800 0.652 0.960 0.722" stroke="hsl(120.0,100%,35%)" stroke-width="0.00091"></path>
<path d="M0.902 0.558 Q1.025 0.497 0.934 0.424" stroke="hsl(120.0,100%,35%)" stroke-width="0.00182"></path>
<path d="M0.902 0.558 Q0.938 0.685 1.192 0.695" stroke="hsl(120.0,100%,35%)" stroke-width="0.00015"></path>
<path d="M0.902 0.558 Q0.919 0.309 0.435 0.245" stroke="hsl(120.0,100%,35%)" stroke-width="0.00015"></path>
<path d="M0.902 0.558 Q0.426 0.681 0.561 0.939" stroke="hsl(120.0,100%,35%)" stroke-width="0.00015"></path>
<path d="M1.045 0.602 Q1.132 0.490 0.934 0.424" stroke="hsl(120.0,100%,35%)" stroke-width="0.00045"></path>
<path d="M1.045 0.602 Q0.868 0.524 0.678 0.594" stroke="hsl(120.0,100%,35%)" stroke-width="0.00045"></path>
<path d="M1.956 0.511 Q2.032 0.403 1.838 0.342" stroke="hsl(120.0,100%,35%)" stroke-width="0.00061"></path>
<path d="M1.956 0.511 Q1.361 0.181 0.587 0.399" stroke="hsl(120.0,100%,35%)" stroke-width="0.00030"></path>
<path d="M1.956 0.511 Q1.481 0.032 0.442 0.158" stroke="hsl(120.0,100%,35%)" stroke-width="0.00045"></path>
<path d="M1.956 0.511 Q1.093 0.448 0.781 0.855" stroke="hsl(120.0,100%,35%)" stroke-width="0.00015"></path>
<path d="M1.956 0.511 Q1.428 0.374 1.045 0.602" stroke="hsl(120.0,100%,35%)" stroke-width="0.00015"></path>
<path d="M1.956 0.511 Q1.662 0.402 1.386 0.522" stroke="hsl(120.0,100%,35%)" stroke-width="0.00015"></path>
<path d="M1.956 0.511 Q1.408 0.074 0.435 0.245" stroke="hsl(120.0,100%,35%)" stroke-width="0.00015"></path>
<path d="M1.580 0.895 Q1.396 0.263 0.122 0.214" stroke="hsl(120.0,100%,35%)" stroke-width="0.00151"></path>
<path d="M1.580 0.895 Q1.591 0.814 1.435 0.790" stroke="hsl(120.0,100%,35%)" stroke-width="0.00514"></path>
<path d="M1.580 0.895 Q1.600 0.299 0.442 0.158" stroke="hsl(120.0,100%,35%)" stroke-width="0.00030"></path>
<path d="M1.580 0.895 Q1.179 0.384 0.094 0.467" stroke="hsl(120.0,100%,35%)" stroke-width="0.00015"></path>
<path d="M1.580 0.895 Q1.184 0.478 0.284 0.580" stroke="hsl(120.0,100%,35%)" stroke-width="0.00106"></path>
<path d="M1.580 0.895 Q1.409 0.684 0.960 0.722" stroke="hsl(120.0,100%,35%)" stroke-width="0.00045"></path>
<path d="M1.580 0.895 Q1.089 0.423 0.061 0.559" stroke="hsl(120.0,100%,35%)" stroke-width="0.00030"></path>
<path d="M1.580 0.895 Q1.666 0.745 1.393 0.670" stroke="hsl(120.0,100%,35%)" stroke-width="0.00015"></path>
<path d="M0.061 0.559 Q0.572 0.435 0.442 0.158" stroke="hsl(120.0,100%,35%)" stroke-width="0.00166"></path>
<path d="M0.061 0.559 Q0.185 0.851 0.781 0.855" stroke="hsl(120.0,100%,35%)" stroke-width="0.00015"></path>
<path d="M0.061 0.559 Q0.151 0.519 0.094 0.467" stroke="hsl(120.0,100%,35%)" stroke-width="0.00590"></path>
<path d="M0.061 0.559 Q-0.027 0.631 0.095 0.690" stroke="hsl(120.0,100%,35%)" stroke-width="0.00378"></path>
<path d="M0.061 0.559 Q0.754 0.805 1.386 0.522" stroke="hsl(120.0,100%,35%)" stroke-width="0.00045"></path>
<path d="M0.061 0.559 Q0.563 0.949 1.435 0.790" stroke="hsl(120.0,100%,35%)" stroke-width="0.00136"></path>
<path d="M0.061 0.559 Q0.156 0.614 0.284 0.580" stroke="hsl(120.0,100%,35%)" stroke-width="0.00182"></path>
<path d="M0.061 0.559 Q0.368 0.399 0.122 0.214" stroke="hsl(120.0,100%,35%)" stroke-width="0.00015"></path>
<path d="M0.061 0.559 Q0.381 0.820 0.960 0.722" stroke="hsl(120.0,100%,35%)" stroke-width="0.00045"></path>
<path d="M0.061 0.559 Q1.047 0.914 1.956 0.511" stroke="hsl(120.0,100%,35%)" stroke-width="0.00076"></path>
<path d="M0.061 0.559 Q0.499 0.477 0.435 0.245" stroke="hsl(120.0,100%,35%)" stroke-width="0.00061"></path>
<path d="M0.094 0.467 Q0.003 0.506 0.061 0.559" stroke="hsl(120.0,100%,35%)" stroke-width="0.00726"></path>
<path d="M0.094 0.467 Q0.098 0.562 0.284 0.580" stroke="hsl(120.0,100%,35%)" stroke-width="0.00015"></path>
<path d="M0.094 0.467 Q0.181 0.437 0.143 0.388" stroke="hsl(120.0,100%,35%)" stroke-width="0.00015"></path>
<path d="M0.094 0.467 Q0.323 0.767 0.960 0.722" stroke="hsl(120.0,100%,35%)" stroke-width="0.00015"></path>
<path d="M0.094 0.467 Q0.157 0.414 0.068 0.372" stroke="hsl(120.0,100%,35%)" stroke-width="0.00015"></path>
<path d="M0.727 0.649 Q1.159 0.717 1.386 0.522" stroke="hsl(120.0,100%,35%)" stroke-width="0.00045"></path>
<path d="M0.727 0.649 Q1.529 0.718 1.838 0.342" stroke="hsl(120.0,100%,35%)" stroke-width="0.00045"></path>
<path d="M0.727 0.649 Q0.786 0.732 0.960 0.722" stroke="hsl(120.0,100%,35%)" stroke-width="0.00061"></path>
<path d="M0.727 0.649 Q0.905 0.389 0.435 0.245" stroke="hsl(120.0,100%,35%)" stroke-width="0.00015"></path>
<path d="M0.727 0.649 Q1.238 0.644 1.339 0.394" stroke="hsl(120.0,100%,35%)" stroke-width="0.00030"></path>
<path d="M0.727 0.649 Q0.748 0.612 0.678 0.594" stroke="hsl(120.0,100%,35%)" stroke-width="0.00015"></path>
<path d="M1.398 0.881 Q1.489 0.843 1.435 0.790" stroke="hsl(120.0,100%,35%)" stroke-width="0.00454"></path>
<path d="M1.398 0.881 Q1.973 0.807 1.956 0.511" stroke="hsl(120.0,100%,35%)" stroke-width="0.00015"></path>
<path d="M1.398 0.881 Q1.564 0.775 1.393 0.670" stroke="hsl(120.0,100%,35%)" stroke-width="0.00015"></path>
<path d="M1.398 0.881 Q0.987 0.453 0.061 0.559" stroke="hsl(120.0,100%,35%)" stroke-width="0.00030"></path>
<path d="M0.095 0.690 Q0.277 0.673 0.284 0.580" stroke="hsl(120.0,100%,35%)" stroke-width="0.00061"></path>
<path d="M0.095 0.690 Q0.183 0.618 0.061 0.559" stroke="hsl(120.0,100%,35%)" stroke-width="0.00560"></path>
<path d="M0.095 0.690 Q0.954 0.791 1.339 0.394" stroke="hsl(120.0,100%,35%)" stroke-width="0.00045"></path>
<path d="M0.095 0.690 Q0.502 0.879 0.960 0.722" stroke="hsl(120.0,100%,35%)" stroke-width="0.00030"></path>
<path d="M1.657 0.692 Q1.616 0.788 1.795 0.829" stroke="hsl(0.0,100%,35%)" stroke-width="0.00061"></path>
<path d="M1.657 0.692 Q1.476 0.182 0.442 0.158" stroke="hsl(0.0,100%,35%)" stroke-width="0.00030"></path>
<path d="M1.657 0.692 Q1.510 0.413 0.934 0.424" stroke="hsl(0.0,100%,35%)" stroke-width="0.00045"></path>
<path d="M1.795 0.829 Q1.918 0.801 1.890 0.735" stroke="hsl(0.0,100%,35%)" stroke-width="0.00015"></path>
<path d="M1.795 0.829 Q1.836 0.733 1.657 0.692" stroke="hsl(0.0,100%,35%)" stroke-width="0.00045"></path>
<path d="M1.795 0.829 Q1.535 0.373 0.587 0.399" stroke="hsl(0.0,100%,35%)" stroke-width="0.00045"></path>
<path d="M1.795 0.829 Q1.582 0.266 0.435 0.245" stroke="hsl(0.0,100%,35%)" stroke-width="0.00015"></path>
<path d="M0.564 0.514 Q0.583 0.275 0.122 0.214" stroke="hsl(0.0,100%,35%)" stroke-width="0.00015"></path>
<path d="M0.564 0.514 Q0.667 0.461 0.587 0.399" stroke="hsl(0.0,100%,35%)" stroke-width="0.00015"></path>
<path d="M0.564 0.514 Q0.222 0.726 0.561 0.939" stroke="hsl(0.0,100%,35%)" stroke-width="0.00015"></path>
<path d="M0.564 0.514 Q0.968 0.682 1.386 0.522" stroke="hsl(0.0,100%,35%)" stroke-width="0.00015"></path>
<path d="M0.564 0.514 Q0.853 0.758 1.393 0.670" stroke="hsl(0.0,100%,35%)" stroke-width="0.00015"></path>
<path d="M1.192 0.695 Q1.280 0.508 0.934 0.424" stroke="hsl(120.0,100%,35%)" stroke-width="0.00015"></path>
<path d="M1.192 0.695 Q1.247 0.276 0.442 0.158" stroke="hsl(120.0,100%,35%)" stroke-width="0.00015"></path>
<path d="M1.192 0.695 Q1.722 0.756 1.956 0.511" stroke="hsl(120.0,100%,35%)" stroke-width="0.00015"></path>
<path d="M1.192 0.695 Q1.017 0.542 0.678 0.594" stroke="hsl(120.0,100%,35%)" stroke-width="0.00030"></path>
<path d="M1.192 0.695 Q1.238 0.791 1.435 0.790" stroke="hsl(120.0,100%,35%)" stroke-width="0.00015"></path>
<path d="M1.192 0.695 Q1.055 0.662 0.960 0.722" stroke="hsl(120.0,100%,35%)" stroke-width="0.00015"></path>
<path d="M1.230 0.956 Q1.401 0.442 0.435 0.245" stroke="hsl(120.0,100%,35%)" stroke-width="0.00015"></path>
<path d="M1.230 0.956 Q1.466 0.914 1.435 0.790" stroke="hsl(120.0,100%,35%)" stroke-width="0.00030"></path>
<path d="M1.230 0.956 Q1.192 0.894 1.061 0.899" stroke="hsl(120.0,100%,35%)" stroke-width="0.00015"></path>
<path d="M0.533 0.683 Q0.715 0.788 0.960 0.722" stroke="hsl(120.0,100%,35%)" stroke-width="0.00015"></path>
<path d="M0.533 0.683 Q0.898 0.917 1.435 0.790" stroke="hsl(120.0,100%,35%)" stroke-width="0.00015"></path>
<path d="M0.533 0.683 Q0.491 0.582 0.284 0.580" stroke="hsl(120.0,100%,35%)" stroke-width="0.00015"></path>
<path d="M1.142 0.659 Q1.667 0.747 1.956 0.511" stroke="hsl(120.0,100%,35%)" stroke-width="0.00015"></path>
<path d="M1.142 0.659 Q1.183 0.783 1.435 0.790" stroke="hsl(120.0,100%,35%)" stroke-width="0.00030"></path>
<path d="M1.142 0.659 Q1.258 0.715 1.393 0.670" stroke="hsl(120.0,100%,35%)" stroke-width="0.00015"></path>
</g>
<text x="0.838" y="0.948" font-size="0.025798" fill="hsl(0.0,100%,20%)">adlai</text>
<text x="1.386" y="0.495" font-size="0.052137" fill="hsl(0.0,100%,20%)">bsalomon</text>
<text x="0.561" y="0.914" font-size="0.050921" fill="hsl(0.0,100%,20%)">robertphillips</text>
<text x="1.339" y="0.371" font-size="0.044779" fill="hsl(0.0,100%,20%)">csmartdalton</text>
<text x="0.808" y="0.308" font-size="0.021200" fill="hsl(120.0,100%,20%)">rmistry</text>
<text x="0.934" y="0.410" font-size="0.026703" fill="hsl(120.0,100%,20%)">borenet</text>
<text x="0.435" y="0.231" font-size="0.027890" fill="hsl(120.0,100%,20%)">mtklein</text>
<text x="0.341" y="0.432" font-size="0.039443" fill="hsl(0.0,100%,20%)">jvanverth</text>
<text x="0.284" y="0.563" font-size="0.033841" fill="hsl(120.0,100%,20%)">reed</text>
<text x="0.442" y="0.118" font-size="0.080028" fill="hsl(240.0,100%,20%)">brianosman</text>
<text x="0.960" y="0.704" font-size="0.035095" fill="hsl(120.0,100%,20%)">kjlubick</text>
<text x="1.393" y="0.653" font-size="0.034411" fill="hsl(0.0,100%,20%)">herb</text>
<text x="1.435" y="0.773" font-size="0.034159" fill="hsl(120.0,100%,20%)">bungeman</text>
<text x="0.587" y="0.377" font-size="0.042907" fill="hsl(0.0,100%,20%)">egdaniel</text>
<text x="0.569" y="0.036" font-size="0.004648" fill="hsl(240.0,100%,20%)">bajones</text>
<text x="0.122" y="0.173" font-size="0.081764" fill="hsl(240.0,100%,20%)">johnstiles</text>
<text x="0.678" y="0.584" font-size="0.018825" fill="hsl(120.0,100%,20%)">jcgregorio</text>
<text x="0.809" y="0.528" font-size="0.007495" fill="hsl(120.0,100%,20%)">erikrose</text>
<text x="0.781" y="0.831" font-size="0.046157" fill="hsl(0.0,100%,20%)">michaelludwig</text>
<text x="1.838" y="0.335" font-size="0.014552" fill="hsl(120.0,100%,20%)">scroggo</text>
<text x="0.668" y="0.212" font-size="0.050194" fill="hsl(240.0,100%,20%)">ethannicholas</text>
<text x="0.902" y="0.552" font-size="0.011760" fill="hsl(120.0,100%,20%)">westont</text>
<text x="1.045" y="0.597" font-size="0.009297" fill="hsl(120.0,100%,20%)">hcm</text>
<text x="1.956" y="0.503" font-size="0.015557" fill="hsl(120.0,100%,20%)">djsollen</text>
<text x="1.580" y="0.885" font-size="0.020155" fill="hsl(120.0,100%,20%)">jlavrova</text>
<text x="0.061" y="0.542" font-size="0.033968" fill="hsl(120.0,100%,20%)">fmalita</text>
<text x="0.094" y="0.456" font-size="0.020684" fill="hsl(120.0,100%,20%)">jmbetancourt</text>
<text x="0.143" y="0.387" font-size="0.002940" fill="hsl(120.0,100%,20%)">stani</text>
<text x="0.727" y="0.644" font-size="0.011760" fill="hsl(120.0,100%,20%)">nifong</text>
<text x="1.219" y="0.920" font-size="0.002079" fill="hsl(120.0,100%,20%)">grieger</text>
<text x="1.398" y="0.874" font-size="0.012982" fill="hsl(120.0,100%,20%)">drott</text>
<text x="1.136" y="0.249" font-size="0.002940" fill="hsl(0.0,100%,20%)">junov</text>
<text x="0.095" y="0.680" font-size="0.019278" fill="hsl(120.0,100%,20%)">tdenniston</text>
<text x="1.657" y="0.689" font-size="0.007201" fill="hsl(0.0,100%,20%)">cwallez</text>
<text x="1.795" y="0.826" font-size="0.007201" fill="hsl(0.0,100%,20%)">senorblanco</text>
<text x="0.564" y="0.511" font-size="0.004648" fill="hsl(0.0,100%,20%)">emaxx</text>
<text x="1.192" y="0.689" font-size="0.012299" fill="hsl(120.0,100%,20%)">lovisolo</text>
<text x="1.194" y="0.811" font-size="0.002079" fill="hsl(0.0,100%,20%)">jiulongw</text>
<text x="1.230" y="0.954" font-size="0.004158" fill="hsl(120.0,100%,20%)">james</text>
<text x="1.061" y="0.898" font-size="0.002079" fill="hsl(120.0,100%,20%)">cbracken</text>
<text x="0.068" y="0.371" font-size="0.002079" fill="hsl(120.0,100%,20%)">fuego</text>
<text x="0.526" y="0.533" font-size="0.007201" fill="hsl(120.0,100%,20%)">yjbanov</text>
<text x="0.239" y="0.706" font-size="0.002079" fill="hsl(0.0,100%,20%)">fs</text>
<text x="0.533" y="0.681" font-size="0.003601" fill="hsl(120.0,100%,20%)">pkasting</text>
<text x="0.694" y="0.489" font-size="0.002079" fill="hsl(120.0,100%,20%)">whesse</text>
<text x="0.443" y="0.606" font-size="0.002079" fill="hsl(120.0,100%,20%)">mdebbar</text>
<text x="1.610" y="0.071" font-size="0.002940" fill="hsl(120.0,100%,20%)">nigeltao</text>
<text x="1.890" y="0.734" font-size="0.002079" fill="hsl(0.0,100%,20%)">enga</text>
<text x="1.142" y="0.656" font-size="0.004158" fill="hsl(120.0,100%,20%)">thestig</text>
</svg>
