<svg width="4000" height="2000" viewBox="-0.025 -0.025 2.05 1.05" xmlns="http://www.w3.org/2000/svg">
  <style>
    path {
      fill: none;
      stroke-linecap: round;
      stroke-opacity: 0.4;
    }

    text {
      text-anchor: middle;
      alignment-baseline: hanging;
    }
  </style>
  <g opacity="0.4">
<path d="M0.514 0.425 Q0.858 0.587 1.251 0.455" stroke="hsl(0.0,100%,35%)" stroke-width="0.00901"></path>
<path d="M0.514 0.425 Q0.761 0.377 0.723 0.246" stroke="hsl(0.0,100%,35%)" stroke-width="0.00901"></path>
<path d="M0.514 0.425 Q0.631 0.286 0.387 0.199" stroke="hsl(0.0,100%,35%)" stroke-width="0.00901"></path>
<path d="M0.514 0.425 Q0.420 0.519 0.583 0.585" stroke="hsl(0.0,100%,35%)" stroke-width="0.01801"></path>
<path d="M0.514 0.425 Q0.268 0.791 0.929 0.991" stroke="hsl(0.0,100%,35%)" stroke-width="0.00901"></path>
<path d="M0.514 0.425 Q0.526 0.751 1.165 0.817" stroke="hsl(0.0,100%,35%)" stroke-width="0.00901"></path>
<path d="M1.251 0.455 Q0.854 0.468 0.792 0.665" stroke="hsl(0.0,100%,35%)" stroke-width="0.00901"></path>
<path d="M1.251 0.455 Q1.486 0.627 1.874 0.551" stroke="hsl(0.0,100%,35%)" stroke-width="0.00901"></path>
<path d="M1.251 0.455 Q0.919 0.619 1.165 0.817" stroke="hsl(0.0,100%,35%)" stroke-width="0.00901"></path>
<path d="M0.929 0.991 Q1.187 0.951 1.165 0.817" stroke="hsl(0.0,100%,35%)" stroke-width="0.01801"></path>
<path d="M0.929 0.991 Q1.519 0.788 1.251 0.455" stroke="hsl(0.0,100%,35%)" stroke-width="0.01801"></path>
<path d="M0.929 0.991 Q1.175 0.625 0.514 0.425" stroke="hsl(0.0,100%,35%)" stroke-width="0.00901"></path>
<path d="M0.290 0.492 Q0.052 0.777 0.555 0.955" stroke="hsl(0.0,100%,35%)" stroke-width="0.01801"></path>
<path d="M0.290 0.492 Q0.468 0.830 1.165 0.817" stroke="hsl(0.0,100%,35%)" stroke-width="0.01801"></path>
<path d="M0.290 0.492 Q0.456 0.503 0.514 0.425" stroke="hsl(0.0,100%,35%)" stroke-width="0.02702"></path>
<path d="M0.290 0.492 Q0.423 0.408 0.287 0.324" stroke="hsl(0.0,100%,35%)" stroke-width="0.00901"></path>
<path d="M0.555 0.955 Q0.793 0.671 0.290 0.492" stroke="hsl(0.0,100%,35%)" stroke-width="0.01801"></path>
<path d="M0.555 0.955 Q0.713 1.048 0.929 0.991" stroke="hsl(0.0,100%,35%)" stroke-width="0.06305"></path>
<path d="M0.555 0.955 Q1.303 0.844 1.251 0.455" stroke="hsl(0.0,100%,35%)" stroke-width="0.01801"></path>
<path d="M0.555 0.955 Q0.766 0.928 0.758 0.819" stroke="hsl(0.0,100%,35%)" stroke-width="0.00901"></path>
<path d="M0.555 0.955 Q0.959 0.682 0.514 0.425" stroke="hsl(0.0,100%,35%)" stroke-width="0.00901"></path>
<path d="M0.555 0.955 Q0.865 0.776 0.583 0.585" stroke="hsl(0.0,100%,35%)" stroke-width="0.02702"></path>
<path d="M0.555 0.955 Q0.906 0.857 0.792 0.665" stroke="hsl(0.0,100%,35%)" stroke-width="0.00901"></path>
<path d="M0.555 0.955 Q0.663 0.750 0.285 0.652" stroke="hsl(0.0,100%,35%)" stroke-width="0.00901"></path>
<path d="M0.555 0.955 Q0.810 0.854 0.667 0.707" stroke="hsl(0.0,100%,35%)" stroke-width="0.01801"></path>
</g>
<text x="0.514" y="0.387" font-size="0.074709" fill="hsl(0.0,100%,20%)">brianosman</text>
<text x="1.251" y="0.425" font-size="0.060999" fill="hsl(0.0,100%,20%)">egdaniel</text>
<text x="0.723" y="0.235" font-size="0.021567" fill="hsl(0.0,100%,20%)">fmalita</text>
<text x="0.387" y="0.188" font-size="0.021567" fill="hsl(0.0,100%,20%)">jvanverth</text>
<text x="0.583" y="0.561" font-size="0.048224" fill="hsl(0.0,100%,20%)">bungeman</text>
<text x="0.929" y="0.952" font-size="0.077759" fill="hsl(0.0,100%,20%)">michaelludwig</text>
<text x="1.165" y="0.790" font-size="0.052827" fill="hsl(0.0,100%,20%)">robertphillips</text>
<text x="0.792" y="0.649" font-size="0.030500" fill="hsl(0.0,100%,20%)">nscobie</text>
<text x="1.874" y="0.540" font-size="0.021567" fill="hsl(0.0,100%,20%)">scroggo</text>
<text x="0.290" y="0.458" font-size="0.068199" fill="hsl(0.0,100%,20%)">johnstiles</text>
<text x="0.555" y="0.905" font-size="0.101156" fill="hsl(0.0,100%,20%)">kjlubick</text>
<text x="0.287" y="0.313" font-size="0.021567" fill="hsl(0.0,100%,20%)">nathanasanchez</text>
<text x="0.758" y="0.809" font-size="0.021567" fill="hsl(0.0,100%,20%)">borenet</text>
<text x="0.285" y="0.641" font-size="0.021567" fill="hsl(0.0,100%,20%)">ashwinpv</text>
<text x="0.667" y="0.692" font-size="0.030500" fill="hsl(0.0,100%,20%)">jmbetancourt</text>
</svg>
