<svg width="4000" height="2000" viewBox="-0.025 -0.025 2.05 1.05" xmlns="http://www.w3.org/2000/svg">
  <style>
    path {
      fill: none;
      stroke-linecap: round;
      stroke-opacity: 0.4;
    }

    text {
      text-anchor: middle;
      alignment-baseline: hanging;
    }
  </style>
  <g opacity="0.4">
<path d="M1.566 0.970 Q1.911 0.933 1.915 0.757" stroke="hsl(0.0,100%,35%)" stroke-width="0.10468"></path>
<path d="M1.566 0.970 Q1.102 0.739 0.549 0.915" stroke="hsl(0.0,100%,35%)" stroke-width="0.01163"></path>
<path d="M1.566 0.970 Q1.415 0.822 1.093 0.863" stroke="hsl(0.0,100%,35%)" stroke-width="0.01163"></path>
<path d="M0.825 1.029 Q0.778 0.917 0.549 0.915" stroke="hsl(180.0,100%,35%)" stroke-width="0.02326"></path>
<path d="M0.825 1.029 Q1.134 0.821 0.797 0.625" stroke="hsl(180.0,100%,35%)" stroke-width="0.02326"></path>
<path d="M0.825 1.029 Q1.091 0.999 1.093 0.863" stroke="hsl(180.0,100%,35%)" stroke-width="0.04652"></path>
<path d="M0.825 1.029 Q0.926 1.061 1.012 1.019" stroke="hsl(180.0,100%,35%)" stroke-width="0.01163"></path>
<path d="M0.284 0.525 Q0.685 0.408 0.546 0.187" stroke="hsl(180.0,100%,35%)" stroke-width="0.01163"></path>
<path d="M0.284 0.525 Q0.487 0.559 0.598 0.468" stroke="hsl(180.0,100%,35%)" stroke-width="0.02326"></path>
<path d="M0.284 0.525 Q0.913 0.967 1.915 0.757" stroke="hsl(180.0,100%,35%)" stroke-width="0.01163"></path>
<path d="M0.284 0.525 Q0.174 0.545 0.189 0.603" stroke="hsl(180.0,100%,35%)" stroke-width="0.01163"></path>
<path d="M0.284 0.525 Q0.104 0.773 0.549 0.915" stroke="hsl(180.0,100%,35%)" stroke-width="0.01163"></path>
<path d="M0.284 0.525 Q0.460 0.678 0.797 0.625" stroke="hsl(180.0,100%,35%)" stroke-width="0.01163"></path>
<path d="M1.312 0.248 Q0.397 0.429 0.549 0.915" stroke="hsl(180.0,100%,35%)" stroke-width="0.01163"></path>
<path d="M1.312 0.248 Q1.154 0.161 0.948 0.218" stroke="hsl(180.0,100%,35%)" stroke-width="0.02326"></path>
<path d="M1.312 0.248 Q0.978 0.065 0.546 0.187" stroke="hsl(180.0,100%,35%)" stroke-width="0.01163"></path>
</g>
<text x="1.566" y="0.928" font-size="0.084242" fill="hsl(0.0,100%,20%)">johnstiles</text>
<text x="1.915" y="0.717" font-size="0.080322" fill="hsl(0.0,100%,20%)">brianosman</text>
<text x="0.549" y="0.887" font-size="0.056796" fill="hsl(180.0,100%,20%)">robertphillips</text>
<text x="1.093" y="0.834" font-size="0.056796" fill="hsl(180.0,100%,20%)">michaelludwig</text>
<text x="0.825" y="0.990" font-size="0.076200" fill="hsl(180.0,100%,20%)">jvanverth</text>
<text x="0.797" y="0.603" font-size="0.043994" fill="hsl(180.0,100%,20%)">herb</text>
<text x="1.012" y="1.007" font-size="0.025400" fill="hsl(180.0,100%,20%)">armansito</text>
<text x="0.284" y="0.491" font-size="0.067202" fill="hsl(180.0,100%,20%)">kjlubick</text>
<text x="0.546" y="0.169" font-size="0.035921" fill="hsl(180.0,100%,20%)">nicolettep</text>
<text x="0.598" y="0.450" font-size="0.035921" fill="hsl(180.0,100%,20%)">fmalita</text>
<text x="0.189" y="0.590" font-size="0.025400" fill="hsl(180.0,100%,20%)">bungeman</text>
<text x="1.312" y="0.223" font-size="0.050800" fill="hsl(180.0,100%,20%)">nscobie</text>
<text x="0.948" y="0.200" font-size="0.035921" fill="hsl(180.0,100%,20%)">scroggo</text>
</svg>
