<svg width="4000" height="2000" viewBox="-0.025 -0.025 2.05 1.05" xmlns="http://www.w3.org/2000/svg">
  <style>
    path {
      fill: none;
      stroke-linecap: round;
      stroke-opacity: 0.4;
    }

    text {
      text-anchor: middle;
      alignment-baseline: hanging;
    }
  </style>
  <g opacity="0.4">
<path d="M0.419 0.293 Q0.678 0.304 0.757 0.181" stroke="hsl(0.0,100%,35%)" stroke-width="0.00366"></path>
<path d="M0.419 0.293 Q1.070 0.633 1.878 0.390" stroke="hsl(0.0,100%,35%)" stroke-width="0.00782"></path>
<path d="M0.419 0.293 Q0.362 0.217 0.200 0.228" stroke="hsl(0.0,100%,35%)" stroke-width="0.00033"></path>
<path d="M0.419 0.293 Q0.162 0.765 1.027 0.994" stroke="hsl(0.0,100%,35%)" stroke-width="0.00067"></path>
<path d="M0.419 0.293 Q1.037 0.689 1.946 0.474" stroke="hsl(0.0,100%,35%)" stroke-width="0.00050"></path>
<path d="M0.419 0.293 Q0.881 0.609 1.599 0.453" stroke="hsl(0.0,100%,35%)" stroke-width="0.00565"></path>
<path d="M0.419 0.293 Q-0.044 0.398 0.059 0.646" stroke="hsl(0.0,100%,35%)" stroke-width="0.00116"></path>
<path d="M0.419 0.293 Q0.552 0.207 0.414 0.124" stroke="hsl(0.0,100%,35%)" stroke-width="0.00166"></path>
<path d="M0.419 0.293 Q0.160 0.382 0.278 0.528" stroke="hsl(0.0,100%,35%)" stroke-width="0.00017"></path>
<path d="M0.419 0.293 Q0.977 0.528 1.557 0.307" stroke="hsl(0.0,100%,35%)" stroke-width="0.00017"></path>
<path d="M0.757 0.181 Q0.631 0.084 0.414 0.124" stroke="hsl(0.0,100%,35%)" stroke-width="0.06469"></path>
<path d="M0.757 0.181 Q1.056 0.404 1.557 0.307" stroke="hsl(0.0,100%,35%)" stroke-width="0.01048"></path>
<path d="M0.757 0.181 Q1.278 0.455 1.928 0.262" stroke="hsl(0.0,100%,35%)" stroke-width="0.00299"></path>
<path d="M0.757 0.181 Q0.498 0.169 0.419 0.293" stroke="hsl(0.0,100%,35%)" stroke-width="0.02877"></path>
<path d="M0.757 0.181 Q0.211 0.178 0.086 0.443" stroke="hsl(0.0,100%,35%)" stroke-width="0.00133"></path>
<path d="M0.757 0.181 Q1.150 0.510 1.878 0.390" stroke="hsl(0.0,100%,35%)" stroke-width="0.01314"></path>
<path d="M0.757 0.181 Q0.657 0.598 1.450 0.739" stroke="hsl(0.0,100%,35%)" stroke-width="0.00083"></path>
<path d="M0.757 0.181 Q0.242 0.641 1.027 0.994" stroke="hsl(0.0,100%,35%)" stroke-width="0.00516"></path>
<path d="M0.757 0.181 Q0.960 0.485 1.599 0.453" stroke="hsl(0.0,100%,35%)" stroke-width="0.00582"></path>
<path d="M0.757 0.181 Q1.117 0.565 1.946 0.474" stroke="hsl(0.0,100%,35%)" stroke-width="0.00499"></path>
<path d="M0.757 0.181 Q0.441 0.093 0.200 0.228" stroke="hsl(0.0,100%,35%)" stroke-width="0.00832"></path>
<path d="M0.757 0.181 Q0.524 0.673 1.433 0.895" stroke="hsl(0.0,100%,35%)" stroke-width="0.00050"></path>
<path d="M0.757 0.181 Q0.379 0.203 0.339 0.392" stroke="hsl(0.0,100%,35%)" stroke-width="0.00116"></path>
<path d="M0.757 0.181 Q-0.009 0.358 0.169 0.770" stroke="hsl(0.0,100%,35%)" stroke-width="0.00033"></path>
<path d="M0.757 0.181 Q0.035 0.274 0.059 0.646" stroke="hsl(0.0,100%,35%)" stroke-width="0.01131"></path>
<path d="M0.757 0.181 Q0.744 0.507 1.377 0.585" stroke="hsl(0.0,100%,35%)" stroke-width="0.00033"></path>
<path d="M0.757 0.181 Q0.806 0.434 1.310 0.465" stroke="hsl(0.0,100%,35%)" stroke-width="0.00017"></path>
<path d="M0.757 0.181 Q0.424 0.334 0.651 0.530" stroke="hsl(0.0,100%,35%)" stroke-width="0.00083"></path>
<path d="M0.757 0.181 Q0.141 0.318 0.275 0.649" stroke="hsl(0.0,100%,35%)" stroke-width="0.00150"></path>
<path d="M0.757 0.181 Q-0.020 0.388 0.214 0.813" stroke="hsl(0.0,100%,35%)" stroke-width="0.00050"></path>
<path d="M0.757 0.181 Q0.239 0.259 0.278 0.528" stroke="hsl(0.0,100%,35%)" stroke-width="0.00017"></path>
<path d="M0.757 0.181 Q0.311 0.111 0.076 0.313" stroke="hsl(0.0,100%,35%)" stroke-width="0.00033"></path>
<path d="M0.757 0.181 Q0.148 0.436 0.513 0.789" stroke="hsl(0.0,100%,35%)" stroke-width="0.00017"></path>
<path d="M1.878 0.390 Q0.970 0.522 1.027 0.994" stroke="hsl(180.0,100%,35%)" stroke-width="0.00133"></path>
<path d="M1.878 0.390 Q1.689 0.366 1.599 0.453" stroke="hsl(180.0,100%,35%)" stroke-width="0.00399"></path>
<path d="M1.878 0.390 Q2.006 0.336 1.928 0.262" stroke="hsl(180.0,100%,35%)" stroke-width="0.01946"></path>
<path d="M1.878 0.390 Q1.226 0.050 0.419 0.293" stroke="hsl(180.0,100%,35%)" stroke-width="0.00216"></path>
<path d="M1.878 0.390 Q1.359 -0.036 0.414 0.124" stroke="hsl(180.0,100%,35%)" stroke-width="0.01430"></path>
<path d="M1.878 0.390 Q1.485 0.061 0.757 0.181" stroke="hsl(180.0,100%,35%)" stroke-width="0.00283"></path>
<path d="M1.878 0.390 Q1.845 0.446 1.946 0.474" stroke="hsl(180.0,100%,35%)" stroke-width="0.00316"></path>
<path d="M1.878 0.390 Q1.169 -0.026 0.200 0.228" stroke="hsl(180.0,100%,35%)" stroke-width="0.00216"></path>
<path d="M1.878 0.390 Q1.784 0.285 1.557 0.307" stroke="hsl(180.0,100%,35%)" stroke-width="0.00116"></path>
<path d="M1.878 0.390 Q0.764 0.155 0.059 0.646" stroke="hsl(180.0,100%,35%)" stroke-width="0.00067"></path>
<path d="M1.878 0.390 Q0.940 0.059 0.086 0.443" stroke="hsl(180.0,100%,35%)" stroke-width="0.00017"></path>
<path d="M1.878 0.390 Q1.385 0.479 1.450 0.739" stroke="hsl(180.0,100%,35%)" stroke-width="0.00033"></path>
<path d="M0.200 0.228 Q0.001 0.776 1.027 0.994" stroke="hsl(180.0,100%,35%)" stroke-width="0.00366"></path>
<path d="M0.200 0.228 Q0.516 0.316 0.757 0.181" stroke="hsl(180.0,100%,35%)" stroke-width="0.00050"></path>
<path d="M0.200 0.228 Q-0.205 0.409 0.059 0.646" stroke="hsl(180.0,100%,35%)" stroke-width="0.00100"></path>
<path d="M0.200 0.228 Q1.037 0.590 1.928 0.262" stroke="hsl(180.0,100%,35%)" stroke-width="0.00100"></path>
<path d="M0.200 0.228 Q0.720 0.620 1.599 0.453" stroke="hsl(180.0,100%,35%)" stroke-width="0.00549"></path>
<path d="M0.200 0.228 Q0.391 0.218 0.414 0.124" stroke="hsl(180.0,100%,35%)" stroke-width="0.00017"></path>
<path d="M0.200 0.228 Q0.876 0.700 1.946 0.474" stroke="hsl(180.0,100%,35%)" stroke-width="0.00033"></path>
<path d="M0.200 0.228 Q0.139 0.338 0.339 0.392" stroke="hsl(180.0,100%,35%)" stroke-width="0.00017"></path>
<path d="M0.200 0.228 Q0.909 0.645 1.878 0.390" stroke="hsl(180.0,100%,35%)" stroke-width="0.00050"></path>
<path d="M0.200 0.228 Q0.816 0.539 1.557 0.307" stroke="hsl(180.0,100%,35%)" stroke-width="0.00017"></path>
<path d="M0.200 0.228 Q0.283 0.808 1.433 0.895" stroke="hsl(180.0,100%,35%)" stroke-width="0.00017"></path>
<path d="M1.027 0.994 Q1.542 0.533 0.757 0.181" stroke="hsl(180.0,100%,35%)" stroke-width="0.00050"></path>
<path d="M1.027 0.994 Q1.226 0.446 0.200 0.228" stroke="hsl(180.0,100%,35%)" stroke-width="0.00249"></path>
<path d="M1.027 0.994 Q1.416 0.436 0.414 0.124" stroke="hsl(180.0,100%,35%)" stroke-width="0.00083"></path>
<path d="M1.027 0.994 Q1.935 0.862 1.878 0.390" stroke="hsl(180.0,100%,35%)" stroke-width="0.00166"></path>
<path d="M1.027 0.994 Q1.902 0.918 1.946 0.474" stroke="hsl(180.0,100%,35%)" stroke-width="0.00067"></path>
<path d="M1.027 0.994 Q1.164 0.555 0.339 0.392" stroke="hsl(180.0,100%,35%)" stroke-width="0.00017"></path>
<path d="M1.027 0.994 Q1.746 0.838 1.599 0.453" stroke="hsl(180.0,100%,35%)" stroke-width="0.00183"></path>
<path d="M1.027 0.994 Q2.063 0.808 1.928 0.262" stroke="hsl(180.0,100%,35%)" stroke-width="0.00233"></path>
<path d="M1.027 0.994 Q0.821 0.627 0.059 0.646" stroke="hsl(180.0,100%,35%)" stroke-width="0.00033"></path>
<path d="M1.027 0.994 Q1.392 0.699 0.899 0.457" stroke="hsl(180.0,100%,35%)" stroke-width="0.00033"></path>
<path d="M1.946 0.474 Q1.979 0.419 1.878 0.390" stroke="hsl(180.0,100%,35%)" stroke-width="0.00532"></path>
<path d="M1.946 0.474 Q1.071 0.550 1.027 0.994" stroke="hsl(180.0,100%,35%)" stroke-width="0.00216"></path>
<path d="M1.946 0.474 Q1.461 -0.008 0.414 0.124" stroke="hsl(180.0,100%,35%)" stroke-width="0.00100"></path>
<path d="M1.946 0.474 Q1.586 0.090 0.757 0.181" stroke="hsl(180.0,100%,35%)" stroke-width="0.00249"></path>
<path d="M1.946 0.474 Q1.790 0.394 1.599 0.453" stroke="hsl(180.0,100%,35%)" stroke-width="0.00216"></path>
<path d="M1.946 0.474 Q2.107 0.364 1.928 0.262" stroke="hsl(180.0,100%,35%)" stroke-width="0.00200"></path>
<path d="M1.946 0.474 Q0.865 0.183 0.059 0.646" stroke="hsl(180.0,100%,35%)" stroke-width="0.00017"></path>
<path d="M1.946 0.474 Q0.971 0.227 0.275 0.649" stroke="hsl(180.0,100%,35%)" stroke-width="0.00017"></path>
<path d="M1.946 0.474 Q1.270 0.002 0.200 0.228" stroke="hsl(180.0,100%,35%)" stroke-width="0.00067"></path>
<path d="M1.946 0.474 Q1.573 0.416 1.377 0.585" stroke="hsl(180.0,100%,35%)" stroke-width="0.00017"></path>
<path d="M1.946 0.474 Q1.041 0.087 0.086 0.443" stroke="hsl(180.0,100%,35%)" stroke-width="0.00017"></path>
<path d="M1.599 0.453 Q1.788 0.477 1.878 0.390" stroke="hsl(180.0,100%,35%)" stroke-width="0.00965"></path>
<path d="M1.599 0.453 Q1.137 0.137 0.419 0.293" stroke="hsl(180.0,100%,35%)" stroke-width="0.00383"></path>
<path d="M1.599 0.453 Q0.880 0.609 1.027 0.994" stroke="hsl(180.0,100%,35%)" stroke-width="0.00499"></path>
<path d="M1.599 0.453 Q1.270 0.051 0.414 0.124" stroke="hsl(180.0,100%,35%)" stroke-width="0.00632"></path>
<path d="M1.599 0.453 Q0.950 0.078 0.076 0.313" stroke="hsl(180.0,100%,35%)" stroke-width="0.00033"></path>
<path d="M1.599 0.453 Q0.850 0.145 0.086 0.443" stroke="hsl(180.0,100%,35%)" stroke-width="0.00067"></path>
<path d="M1.599 0.453 Q1.396 0.148 0.757 0.181" stroke="hsl(180.0,100%,35%)" stroke-width="0.00150"></path>
<path d="M1.599 0.453 Q1.695 0.372 1.557 0.307" stroke="hsl(180.0,100%,35%)" stroke-width="0.00133"></path>
<path d="M1.599 0.453 Q1.917 0.423 1.928 0.262" stroke="hsl(180.0,100%,35%)" stroke-width="0.00732"></path>
<path d="M1.599 0.453 Q1.756 0.533 1.946 0.474" stroke="hsl(180.0,100%,35%)" stroke-width="0.00383"></path>
<path d="M1.599 0.453 Q1.383 0.474 1.377 0.585" stroke="hsl(180.0,100%,35%)" stroke-width="0.00017"></path>
<path d="M1.599 0.453 Q1.080 0.061 0.200 0.228" stroke="hsl(180.0,100%,35%)" stroke-width="0.00698"></path>
<path d="M1.599 0.453 Q0.674 0.242 0.059 0.646" stroke="hsl(180.0,100%,35%)" stroke-width="0.00100"></path>
<path d="M1.599 0.453 Q1.296 0.566 1.450 0.739" stroke="hsl(180.0,100%,35%)" stroke-width="0.00067"></path>
<path d="M1.599 0.453 Q0.619 0.356 0.214 0.813" stroke="hsl(180.0,100%,35%)" stroke-width="0.00033"></path>
<path d="M0.059 0.646 Q0.403 0.575 0.339 0.392" stroke="hsl(0.0,100%,35%)" stroke-width="0.00083"></path>
<path d="M0.059 0.646 Q0.235 0.550 0.086 0.443" stroke="hsl(0.0,100%,35%)" stroke-width="0.01680"></path>
<path d="M0.059 0.646 Q0.681 0.971 1.450 0.739" stroke="hsl(0.0,100%,35%)" stroke-width="0.00249"></path>
<path d="M0.059 0.646 Q0.263 0.631 0.278 0.528" stroke="hsl(0.0,100%,35%)" stroke-width="0.00499"></path>
<path d="M0.059 0.646 Q1.302 0.828 1.928 0.262" stroke="hsl(0.0,100%,35%)" stroke-width="0.00166"></path>
<path d="M0.059 0.646 Q0.768 0.879 1.377 0.585" stroke="hsl(0.0,100%,35%)" stroke-width="0.00449"></path>
<path d="M0.059 0.646 Q0.655 0.456 0.414 0.124" stroke="hsl(0.0,100%,35%)" stroke-width="0.02162"></path>
<path d="M0.059 0.646 Q0.265 1.014 1.027 0.994" stroke="hsl(0.0,100%,35%)" stroke-width="0.00449"></path>
<path d="M0.059 0.646 Q1.080 0.776 1.557 0.307" stroke="hsl(0.0,100%,35%)" stroke-width="0.00599"></path>
<path d="M0.059 0.646 Q0.465 0.465 0.200 0.228" stroke="hsl(0.0,100%,35%)" stroke-width="0.00183"></path>
<path d="M0.059 0.646 Q0.781 0.553 0.757 0.181" stroke="hsl(0.0,100%,35%)" stroke-width="0.00615"></path>
<path d="M0.059 0.646 Q0.984 0.858 1.599 0.453" stroke="hsl(0.0,100%,35%)" stroke-width="0.00266"></path>
<path d="M0.059 0.646 Q0.335 0.483 0.076 0.313" stroke="hsl(0.0,100%,35%)" stroke-width="0.00166"></path>
<path d="M0.059 0.646 Q0.448 0.707 0.651 0.530" stroke="hsl(0.0,100%,35%)" stroke-width="0.00050"></path>
<path d="M0.059 0.646 Q0.004 0.760 0.214 0.813" stroke="hsl(0.0,100%,35%)" stroke-width="0.00116"></path>
<path d="M0.059 0.646 Q0.548 1.045 1.433 0.895" stroke="hsl(0.0,100%,35%)" stroke-width="0.00067"></path>
<path d="M0.059 0.646 Q0.420 0.667 0.539 0.496" stroke="hsl(0.0,100%,35%)" stroke-width="0.00150"></path>
<path d="M0.059 0.646 Q0.276 0.684 0.397 0.587" stroke="hsl(0.0,100%,35%)" stroke-width="0.00033"></path>
<path d="M0.059 0.646 Q0.165 0.691 0.275 0.649" stroke="hsl(0.0,100%,35%)" stroke-width="0.00050"></path>
<path d="M0.059 0.646 Q1.173 0.882 1.878 0.390" stroke="hsl(0.0,100%,35%)" stroke-width="0.00682"></path>
<path d="M0.059 0.646 Q0.522 0.542 0.419 0.293" stroke="hsl(0.0,100%,35%)" stroke-width="0.00067"></path>
<path d="M0.059 0.646 Q0.753 0.604 0.824 0.257" stroke="hsl(0.0,100%,35%)" stroke-width="0.00033"></path>
<path d="M0.059 0.646 Q0.015 0.730 0.169 0.770" stroke="hsl(0.0,100%,35%)" stroke-width="0.00150"></path>
<path d="M0.059 0.646 Q1.140 0.938 1.946 0.474" stroke="hsl(0.0,100%,35%)" stroke-width="0.00017"></path>
<path d="M0.414 0.124 Q-0.182 0.314 0.059 0.646" stroke="hsl(0.0,100%,35%)" stroke-width="0.00765"></path>
<path d="M0.414 0.124 Q0.539 0.221 0.757 0.181" stroke="hsl(0.0,100%,35%)" stroke-width="0.01297"></path>
<path d="M0.414 0.124 Q-0.238 0.428 0.214 0.813" stroke="hsl(0.0,100%,35%)" stroke-width="0.00017"></path>
<path d="M0.414 0.124 Q0.932 0.550 1.878 0.390" stroke="hsl(0.0,100%,35%)" stroke-width="0.00366"></path>
<path d="M0.414 0.124 Q-0.006 0.218 0.086 0.443" stroke="hsl(0.0,100%,35%)" stroke-width="0.00266"></path>
<path d="M0.414 0.124 Q0.839 0.444 1.557 0.307" stroke="hsl(0.0,100%,35%)" stroke-width="0.00399"></path>
<path d="M0.414 0.124 Q0.439 0.638 1.450 0.739" stroke="hsl(0.0,100%,35%)" stroke-width="0.00033"></path>
<path d="M0.414 0.124 Q1.060 0.495 1.928 0.262" stroke="hsl(0.0,100%,35%)" stroke-width="0.00299"></path>
<path d="M0.414 0.124 Q0.223 0.133 0.200 0.228" stroke="hsl(0.0,100%,35%)" stroke-width="0.00033"></path>
<path d="M0.414 0.124 Q0.743 0.525 1.599 0.453" stroke="hsl(0.0,100%,35%)" stroke-width="0.00283"></path>
<path d="M0.414 0.124 Q0.390 0.387 0.899 0.457" stroke="hsl(0.0,100%,35%)" stroke-width="0.00067"></path>
<path d="M0.414 0.124 Q0.024 0.681 1.027 0.994" stroke="hsl(0.0,100%,35%)" stroke-width="0.00166"></path>
<path d="M0.414 0.124 Q0.022 0.299 0.278 0.528" stroke="hsl(0.0,100%,35%)" stroke-width="0.00017"></path>
<path d="M0.414 0.124 Q0.162 0.243 0.339 0.392" stroke="hsl(0.0,100%,35%)" stroke-width="0.00033"></path>
<path d="M0.414 0.124 Q0.094 0.151 0.076 0.313" stroke="hsl(0.0,100%,35%)" stroke-width="0.00017"></path>
<path d="M0.414 0.124 Q0.899 0.606 1.946 0.474" stroke="hsl(0.0,100%,35%)" stroke-width="0.00017"></path>
<path d="M0.414 0.124 Q0.306 0.713 1.433 0.895" stroke="hsl(0.0,100%,35%)" stroke-width="0.00017"></path>
<path d="M0.414 0.124 Q0.526 0.547 1.377 0.585" stroke="hsl(0.0,100%,35%)" stroke-width="0.00017"></path>
<path d="M0.414 0.124 Q0.207 0.374 0.651 0.530" stroke="hsl(0.0,100%,35%)" stroke-width="0.00017"></path>
<path d="M0.278 0.528 Q0.074 0.544 0.059 0.646" stroke="hsl(0.0,100%,35%)" stroke-width="0.01580"></path>
<path d="M0.278 0.528 Q0.795 0.450 0.757 0.181" stroke="hsl(0.0,100%,35%)" stroke-width="0.00166"></path>
<path d="M0.278 0.528 Q0.018 0.658 0.214 0.813" stroke="hsl(0.0,100%,35%)" stroke-width="0.00033"></path>
<path d="M0.278 0.528 Q0.999 0.755 1.599 0.453" stroke="hsl(0.0,100%,35%)" stroke-width="0.00017"></path>
<path d="M0.278 0.528 Q0.180 0.588 0.275 0.649" stroke="hsl(0.0,100%,35%)" stroke-width="0.00017"></path>
<path d="M0.278 0.528 Q0.670 0.353 0.414 0.124" stroke="hsl(0.0,100%,35%)" stroke-width="0.00067"></path>
<path d="M0.278 0.528 Q1.155 0.835 1.946 0.474" stroke="hsl(0.0,100%,35%)" stroke-width="0.00017"></path>
<path d="M0.278 0.528 Q0.463 0.604 0.651 0.530" stroke="hsl(0.0,100%,35%)" stroke-width="0.00083"></path>
<path d="M0.278 0.528 Q0.030 0.628 0.169 0.770" stroke="hsl(0.0,100%,35%)" stroke-width="0.00017"></path>
<path d="M0.278 0.528 Q0.250 0.448 0.086 0.443" stroke="hsl(0.0,100%,35%)" stroke-width="0.00017"></path>
<path d="M1.557 0.307 Q1.132 -0.013 0.414 0.124" stroke="hsl(0.0,100%,35%)" stroke-width="0.00965"></path>
<path d="M1.557 0.307 Q1.258 0.084 0.757 0.181" stroke="hsl(0.0,100%,35%)" stroke-width="0.00216"></path>
<path d="M1.557 0.307 Q1.462 0.388 1.599 0.453" stroke="hsl(0.0,100%,35%)" stroke-width="0.00383"></path>
<path d="M1.557 0.307 Q0.537 0.177 0.059 0.646" stroke="hsl(0.0,100%,35%)" stroke-width="0.00432"></path>
<path d="M1.557 0.307 Q0.713 0.081 0.086 0.443" stroke="hsl(0.0,100%,35%)" stroke-width="0.00067"></path>
<path d="M1.557 0.307 Q1.779 0.358 1.928 0.262" stroke="hsl(0.0,100%,35%)" stroke-width="0.00832"></path>
<path d="M1.557 0.307 Q1.651 0.413 1.878 0.390" stroke="hsl(0.0,100%,35%)" stroke-width="0.00050"></path>
<path d="M1.557 0.307 Q1.158 0.501 1.450 0.739" stroke="hsl(0.0,100%,35%)" stroke-width="0.00017"></path>
<path d="M1.557 0.307 Q1.025 0.576 1.433 0.895" stroke="hsl(0.0,100%,35%)" stroke-width="0.00017"></path>
<path d="M1.572 -0.050 Q1.373 0.231 1.878 0.390" stroke="hsl(0.0,100%,35%)" stroke-width="0.00017"></path>
<path d="M1.572 -0.050 Q0.258 -0.004 0.059 0.646" stroke="hsl(0.0,100%,35%)" stroke-width="0.00017"></path>
<path d="M1.572 -0.050 Q1.279 0.126 1.557 0.307" stroke="hsl(0.0,100%,35%)" stroke-width="0.00033"></path>
<path d="M1.807 0.449 Q2.017 0.379 1.928 0.262" stroke="hsl(180.0,100%,35%)" stroke-width="0.00017"></path>
<path d="M1.807 0.449 Q0.981 0.565 1.027 0.994" stroke="hsl(180.0,100%,35%)" stroke-width="0.00017"></path>
<path d="M1.807 0.449 Q1.700 0.409 1.599 0.453" stroke="hsl(180.0,100%,35%)" stroke-width="0.00033"></path>
<path d="M1.928 0.262 Q1.800 0.316 1.878 0.390" stroke="hsl(180.0,100%,35%)" stroke-width="0.00848"></path>
<path d="M1.928 0.262 Q0.892 0.447 1.027 0.994" stroke="hsl(180.0,100%,35%)" stroke-width="0.00682"></path>
<path d="M1.928 0.262 Q1.091 -0.101 0.200 0.228" stroke="hsl(180.0,100%,35%)" stroke-width="0.00665"></path>
<path d="M1.928 0.262 Q0.686 0.080 0.059 0.646" stroke="hsl(180.0,100%,35%)" stroke-width="0.00083"></path>
<path d="M1.928 0.262 Q1.281 -0.110 0.414 0.124" stroke="hsl(180.0,100%,35%)" stroke-width="0.00249"></path>
<path d="M1.928 0.262 Q1.611 0.291 1.599 0.453" stroke="hsl(180.0,100%,35%)" stroke-width="0.01114"></path>
<path d="M1.928 0.262 Q1.394 0.313 1.377 0.585" stroke="hsl(180.0,100%,35%)" stroke-width="0.00050"></path>
<path d="M1.928 0.262 Q1.257 0.153 0.899 0.457" stroke="hsl(180.0,100%,35%)" stroke-width="0.00017"></path>
<path d="M1.928 0.262 Q1.307 0.405 1.450 0.739" stroke="hsl(180.0,100%,35%)" stroke-width="0.00017"></path>
<path d="M1.928 0.262 Q1.706 0.210 1.557 0.307" stroke="hsl(180.0,100%,35%)" stroke-width="0.00017"></path>
<path d="M1.928 0.262 Q1.407 -0.013 0.757 0.181" stroke="hsl(180.0,100%,35%)" stroke-width="0.00083"></path>
<path d="M1.928 0.262 Q1.767 0.372 1.946 0.474" stroke="hsl(180.0,100%,35%)" stroke-width="0.00033"></path>
<path d="M1.928 0.262 Q0.630 0.194 0.214 0.813" stroke="hsl(180.0,100%,35%)" stroke-width="0.00017"></path>
<path d="M0.214 0.813 Q0.225 0.782 0.169 0.770" stroke="hsl(0.0,100%,35%)" stroke-width="0.00050"></path>
<path d="M0.214 0.813 Q0.473 0.683 0.278 0.528" stroke="hsl(0.0,100%,35%)" stroke-width="0.00017"></path>
<path d="M0.214 0.813 Q0.269 0.699 0.059 0.646" stroke="hsl(0.0,100%,35%)" stroke-width="0.00033"></path>
<path d="M0.214 0.813 Q1.195 0.910 1.599 0.453" stroke="hsl(0.0,100%,35%)" stroke-width="0.00017"></path>
<path d="M0.169 0.770 Q1.455 0.868 1.928 0.262" stroke="hsl(0.0,100%,35%)" stroke-width="0.00017"></path>
<path d="M0.169 0.770 Q0.213 0.687 0.059 0.646" stroke="hsl(0.0,100%,35%)" stroke-width="0.00033"></path>
<path d="M0.169 0.770 Q0.602 0.747 0.651 0.530" stroke="hsl(0.0,100%,35%)" stroke-width="0.00017"></path>
<path d="M0.169 0.770 Q0.417 0.671 0.278 0.528" stroke="hsl(0.0,100%,35%)" stroke-width="0.00017"></path>
<path d="M0.169 0.770 Q0.157 0.801 0.214 0.813" stroke="hsl(0.0,100%,35%)" stroke-width="0.00017"></path>
<path d="M0.086 0.443 Q0.506 0.349 0.414 0.124" stroke="hsl(0.0,100%,35%)" stroke-width="0.00649"></path>
<path d="M0.086 0.443 Q0.931 0.669 1.557 0.307" stroke="hsl(0.0,100%,35%)" stroke-width="0.00200"></path>
<path d="M0.086 0.443 Q0.835 0.751 1.599 0.453" stroke="hsl(0.0,100%,35%)" stroke-width="0.00017"></path>
<path d="M0.086 0.443 Q0.186 0.376 0.076 0.313" stroke="hsl(0.0,100%,35%)" stroke-width="0.00183"></path>
<path d="M0.086 0.443 Q0.271 0.560 0.539 0.496" stroke="hsl(0.0,100%,35%)" stroke-width="0.00067"></path>
<path d="M0.086 0.443 Q-0.090 0.540 0.059 0.646" stroke="hsl(0.0,100%,35%)" stroke-width="0.00366"></path>
<path d="M0.086 0.443 Q0.632 0.446 0.757 0.181" stroke="hsl(0.0,100%,35%)" stroke-width="0.00166"></path>
<path d="M0.086 0.443 Q0.619 0.772 1.377 0.585" stroke="hsl(0.0,100%,35%)" stroke-width="0.00017"></path>
<path d="M0.086 0.443 Q0.482 0.613 0.899 0.457" stroke="hsl(0.0,100%,35%)" stroke-width="0.00017"></path>
<path d="M0.086 0.443 Q0.116 0.907 1.027 0.994" stroke="hsl(0.0,100%,35%)" stroke-width="0.00017"></path>
<path d="M0.086 0.443 Q0.114 0.524 0.278 0.528" stroke="hsl(0.0,100%,35%)" stroke-width="0.00017"></path>
<path d="M0.086 0.443 Q0.532 0.864 1.450 0.739" stroke="hsl(0.0,100%,35%)" stroke-width="0.00017"></path>
<path d="M1.450 0.739 Q0.764 0.613 0.368 0.920" stroke="hsl(0.0,100%,35%)" stroke-width="0.00017"></path>
<path d="M1.450 0.739 Q1.004 0.318 0.086 0.443" stroke="hsl(0.0,100%,35%)" stroke-width="0.00166"></path>
<path d="M1.450 0.739 Q0.828 0.415 0.059 0.646" stroke="hsl(0.0,100%,35%)" stroke-width="0.00183"></path>
<path d="M1.450 0.739 Q1.550 0.321 0.757 0.181" stroke="hsl(0.0,100%,35%)" stroke-width="0.00033"></path>
<path d="M1.450 0.739 Q1.317 0.813 1.433 0.895" stroke="hsl(0.0,100%,35%)" stroke-width="0.00399"></path>
<path d="M1.450 0.739 Q1.424 0.224 0.414 0.124" stroke="hsl(0.0,100%,35%)" stroke-width="0.00116"></path>
<path d="M1.450 0.739 Q2.071 0.596 1.928 0.262" stroke="hsl(0.0,100%,35%)" stroke-width="0.00017"></path>
<path d="M1.450 0.739 Q1.753 0.626 1.599 0.453" stroke="hsl(0.0,100%,35%)" stroke-width="0.00017"></path>
<path d="M1.450 0.739 Q1.537 0.647 1.377 0.585" stroke="hsl(0.0,100%,35%)" stroke-width="0.00017"></path>
<path d="M1.450 0.739 Q1.849 0.544 1.557 0.307" stroke="hsl(0.0,100%,35%)" stroke-width="0.00017"></path>
<path d="M1.450 0.739 Q1.325 0.668 1.159 0.713" stroke="hsl(0.0,100%,35%)" stroke-width="0.00017"></path>
<path d="M0.339 0.392 Q0.202 0.830 1.027 0.994" stroke="hsl(0.0,100%,35%)" stroke-width="0.00067"></path>
<path d="M0.339 0.392 Q-0.004 0.463 0.059 0.646" stroke="hsl(0.0,100%,35%)" stroke-width="0.00017"></path>
<path d="M0.339 0.392 Q0.717 0.370 0.757 0.181" stroke="hsl(0.0,100%,35%)" stroke-width="0.00083"></path>
<path d="M0.339 0.392 Q0.704 0.696 1.377 0.585" stroke="hsl(0.0,100%,35%)" stroke-width="0.00116"></path>
<path d="M0.339 0.392 Q1.238 0.645 1.928 0.262" stroke="hsl(0.0,100%,35%)" stroke-width="0.00067"></path>
<path d="M0.339 0.392 Q0.401 0.282 0.200 0.228" stroke="hsl(0.0,100%,35%)" stroke-width="0.00017"></path>
<path d="M0.339 0.392 Q0.766 0.623 1.310 0.465" stroke="hsl(0.0,100%,35%)" stroke-width="0.00017"></path>
<path d="M0.339 0.392 Q0.591 0.273 0.414 0.124" stroke="hsl(0.0,100%,35%)" stroke-width="0.00017"></path>
<path d="M0.339 0.392 Q0.172 0.367 0.086 0.443" stroke="hsl(0.0,100%,35%)" stroke-width="0.00017"></path>
<path d="M0.076 0.313 Q-0.023 0.380 0.086 0.443" stroke="hsl(0.0,100%,35%)" stroke-width="0.00383"></path>
<path d="M0.076 0.313 Q-0.199 0.476 0.059 0.646" stroke="hsl(0.0,100%,35%)" stroke-width="0.00083"></path>
<path d="M0.076 0.313 Q0.396 0.286 0.414 0.124" stroke="hsl(0.0,100%,35%)" stroke-width="0.00050"></path>
<path d="M0.076 0.313 Q0.206 0.295 0.200 0.228" stroke="hsl(0.0,100%,35%)" stroke-width="0.00017"></path>
<path d="M0.076 0.313 Q0.005 0.461 0.278 0.528" stroke="hsl(0.0,100%,35%)" stroke-width="0.00017"></path>
<path d="M0.076 0.313 Q0.915 0.712 1.878 0.390" stroke="hsl(0.0,100%,35%)" stroke-width="0.00017"></path>
<path d="M1.433 0.895 Q0.945 0.496 0.059 0.646" stroke="hsl(0.0,100%,35%)" stroke-width="0.00166"></path>
<path d="M1.433 0.895 Q1.566 0.820 1.450 0.739" stroke="hsl(0.0,100%,35%)" stroke-width="0.00582"></path>
<path d="M1.433 0.895 Q2.059 0.731 1.878 0.390" stroke="hsl(0.0,100%,35%)" stroke-width="0.00017"></path>
<path d="M1.433 0.895 Q2.187 0.677 1.928 0.262" stroke="hsl(0.0,100%,35%)" stroke-width="0.00017"></path>
<path d="M1.377 0.585 Q1.012 0.281 0.339 0.392" stroke="hsl(0.0,100%,35%)" stroke-width="0.00083"></path>
<path d="M1.377 0.585 Q0.845 0.256 0.086 0.443" stroke="hsl(0.0,100%,35%)" stroke-width="0.00033"></path>
<path d="M1.377 0.585 Q1.390 0.259 0.757 0.181" stroke="hsl(0.0,100%,35%)" stroke-width="0.00083"></path>
<path d="M1.377 0.585 Q1.783 0.588 1.878 0.390" stroke="hsl(0.0,100%,35%)" stroke-width="0.00033"></path>
<path d="M1.377 0.585 Q1.439 0.512 1.310 0.465" stroke="hsl(0.0,100%,35%)" stroke-width="0.00083"></path>
<path d="M1.377 0.585 Q0.669 0.352 0.059 0.646" stroke="hsl(0.0,100%,35%)" stroke-width="0.00050"></path>
<path d="M1.377 0.585 Q1.264 0.161 0.414 0.124" stroke="hsl(0.0,100%,35%)" stroke-width="0.00017"></path>
<path d="M0.630 0.969 Q0.809 1.061 1.027 0.994" stroke="hsl(180.0,100%,35%)" stroke-width="0.00200"></path>
<path d="M0.630 0.969 Q1.845 0.875 1.928 0.262" stroke="hsl(180.0,100%,35%)" stroke-width="0.00017"></path>
<path d="M0.630 0.969 Q1.684 0.985 1.946 0.474" stroke="hsl(180.0,100%,35%)" stroke-width="0.00017"></path>
<path d="M0.630 0.969 Q1.324 0.601 0.757 0.181" stroke="hsl(180.0,100%,35%)" stroke-width="0.00017"></path>
<path d="M0.630 0.969 Q1.198 0.503 0.414 0.124" stroke="hsl(180.0,100%,35%)" stroke-width="0.00017"></path>
<path d="M0.630 0.969 Q1.528 0.905 1.599 0.453" stroke="hsl(180.0,100%,35%)" stroke-width="0.00017"></path>
<path d="M0.630 0.969 Q0.603 0.694 0.059 0.646" stroke="hsl(180.0,100%,35%)" stroke-width="0.00050"></path>
<path d="M0.539 0.496 Q0.355 0.379 0.086 0.443" stroke="hsl(0.0,100%,35%)" stroke-width="0.00732"></path>
<path d="M0.539 0.496 Q0.454 0.312 0.076 0.313" stroke="hsl(0.0,100%,35%)" stroke-width="0.00017"></path>
<path d="M0.539 0.496 Q0.179 0.475 0.059 0.646" stroke="hsl(0.0,100%,35%)" stroke-width="0.00399"></path>
<path d="M0.539 0.496 Q0.774 0.285 0.414 0.124" stroke="hsl(0.0,100%,35%)" stroke-width="0.00050"></path>
<path d="M0.539 0.496 Q0.385 0.842 1.027 0.994" stroke="hsl(0.0,100%,35%)" stroke-width="0.00017"></path>
<path d="M0.539 0.496 Q0.800 0.799 1.450 0.739" stroke="hsl(0.0,100%,35%)" stroke-width="0.00017"></path>
<path d="M0.539 0.496 Q0.949 0.635 1.310 0.465" stroke="hsl(0.0,100%,35%)" stroke-width="0.00017"></path>
<path d="M0.824 0.257 Q0.725 0.108 0.414 0.124" stroke="hsl(0.0,100%,35%)" stroke-width="0.00432"></path>
<path d="M0.824 0.257 Q0.838 0.531 1.377 0.585" stroke="hsl(0.0,100%,35%)" stroke-width="0.00067"></path>
<path d="M0.824 0.257 Q0.701 0.372 0.899 0.457" stroke="hsl(0.0,100%,35%)" stroke-width="0.00033"></path>
<path d="M0.275 0.649 Q0.169 0.605 0.059 0.646" stroke="hsl(0.0,100%,35%)" stroke-width="0.00449"></path>
<path d="M0.275 0.649 Q0.373 0.589 0.278 0.528" stroke="hsl(0.0,100%,35%)" stroke-width="0.00050"></path>
<path d="M0.275 0.649 Q0.558 0.665 0.651 0.530" stroke="hsl(0.0,100%,35%)" stroke-width="0.00033"></path>
<path d="M0.275 0.649 Q1.094 0.816 1.599 0.453" stroke="hsl(0.0,100%,35%)" stroke-width="0.00067"></path>
<path d="M0.275 0.649 Q0.345 0.509 0.086 0.443" stroke="hsl(0.0,100%,35%)" stroke-width="0.00017"></path>
<path d="M0.275 0.649 Q0.105 0.803 0.368 0.920" stroke="hsl(0.0,100%,35%)" stroke-width="0.00033"></path>
<path d="M0.275 0.649 Q0.281 0.767 0.513 0.789" stroke="hsl(0.0,100%,35%)" stroke-width="0.00017"></path>
<path d="M0.275 0.649 Q0.890 0.511 0.757 0.181" stroke="hsl(0.0,100%,35%)" stroke-width="0.00067"></path>
<path d="M0.275 0.649 Q0.125 0.688 0.169 0.770" stroke="hsl(0.0,100%,35%)" stroke-width="0.00033"></path>
<path d="M0.275 0.649 Q0.113 0.719 0.214 0.813" stroke="hsl(0.0,100%,35%)" stroke-width="0.00017"></path>
<path d="M0.275 0.649 Q0.764 0.414 0.414 0.124" stroke="hsl(0.0,100%,35%)" stroke-width="0.00033"></path>
<path d="M0.368 0.920 Q0.376 0.835 0.214 0.813" stroke="hsl(0.0,100%,35%)" stroke-width="0.00050"></path>
<path d="M0.368 0.920 Q0.544 0.883 0.513 0.789" stroke="hsl(0.0,100%,35%)" stroke-width="0.00216"></path>
<path d="M0.368 0.920 Q0.432 0.721 0.059 0.646" stroke="hsl(0.0,100%,35%)" stroke-width="0.00017"></path>
<path d="M0.368 0.920 Q0.538 0.766 0.275 0.649" stroke="hsl(0.0,100%,35%)" stroke-width="0.00100"></path>
<path d="M0.368 0.920 Q1.674 0.903 1.928 0.262" stroke="hsl(0.0,100%,35%)" stroke-width="0.00017"></path>
<path d="M0.788 0.889 Q0.824 0.989 1.027 0.994" stroke="hsl(180.0,100%,35%)" stroke-width="0.00050"></path>
<path d="M0.788 0.889 Q1.699 0.913 1.946 0.474" stroke="hsl(180.0,100%,35%)" stroke-width="0.00017"></path>
<path d="M0.788 0.889 Q1.732 0.858 1.878 0.390" stroke="hsl(180.0,100%,35%)" stroke-width="0.00033"></path>
<path d="M0.788 0.889 Q1.213 0.431 0.414 0.124" stroke="hsl(180.0,100%,35%)" stroke-width="0.00017"></path>
<path d="M0.788 0.889 Q1.543 0.833 1.599 0.453" stroke="hsl(180.0,100%,35%)" stroke-width="0.00017"></path>
<path d="M0.399 -0.241 Q-0.205 -0.029 0.076 0.313" stroke="hsl(0.0,100%,35%)" stroke-width="0.00017"></path>
<path d="M0.399 -0.241 Q-0.481 0.135 0.059 0.646" stroke="hsl(0.0,100%,35%)" stroke-width="0.00017"></path>
<path d="M0.399 -0.241 Q0.115 -0.056 0.414 0.124" stroke="hsl(0.0,100%,35%)" stroke-width="0.00017"></path>
<path d="M0.993 1.737 Q1.994 0.814 0.414 0.124" stroke="hsl(0.0,100%,35%)" stroke-width="0.00033"></path>
<path d="M0.993 1.737 Q2.020 1.329 1.450 0.739" stroke="hsl(0.0,100%,35%)" stroke-width="0.00017"></path>
<path d="M0.993 1.737 Q1.574 0.909 0.086 0.443" stroke="hsl(0.0,100%,35%)" stroke-width="0.00017"></path>
<path d="M0.816 0.787 Q0.757 0.933 1.027 0.994" stroke="hsl(180.0,100%,35%)" stroke-width="0.00216"></path>
<path d="M0.816 0.787 Q1.665 0.801 1.878 0.390" stroke="hsl(180.0,100%,35%)" stroke-width="0.00216"></path>
<path d="M0.816 0.787 Q1.476 0.777 1.599 0.453" stroke="hsl(180.0,100%,35%)" stroke-width="0.00017"></path>
<path d="M0.816 0.787 Q0.956 0.385 0.200 0.228" stroke="hsl(180.0,100%,35%)" stroke-width="0.00017"></path>
<path d="M1.803 0.543 Q1.444 0.055 0.414 0.124" stroke="hsl(180.0,100%,35%)" stroke-width="0.00017"></path>
<path d="M1.803 0.543 Q1.962 0.481 1.878 0.390" stroke="hsl(180.0,100%,35%)" stroke-width="0.00033"></path>
<path d="M1.803 0.543 Q0.848 0.246 0.059 0.646" stroke="hsl(180.0,100%,35%)" stroke-width="0.00017"></path>
<path d="M1.803 0.543 Q1.773 0.457 1.599 0.453" stroke="hsl(180.0,100%,35%)" stroke-width="0.00033"></path>
<path d="M1.803 0.543 Q1.054 0.613 1.027 0.994" stroke="hsl(180.0,100%,35%)" stroke-width="0.00017"></path>
<path d="M0.947 0.628 Q1.110 0.784 1.450 0.739" stroke="hsl(0.0,100%,35%)" stroke-width="0.00216"></path>
<path d="M0.947 0.628 Q0.665 0.363 0.086 0.443" stroke="hsl(0.0,100%,35%)" stroke-width="0.00150"></path>
<path d="M0.947 0.628 Q1.084 0.269 0.414 0.124" stroke="hsl(0.0,100%,35%)" stroke-width="0.00166"></path>
<path d="M0.947 0.628 Q0.489 0.460 0.059 0.646" stroke="hsl(0.0,100%,35%)" stroke-width="0.00017"></path>
<path d="M0.947 0.628 Q0.695 0.827 1.027 0.994" stroke="hsl(0.0,100%,35%)" stroke-width="0.00017"></path>
<path d="M1.117 0.421 Q1.116 0.555 1.377 0.585" stroke="hsl(0.0,100%,35%)" stroke-width="0.00083"></path>
<path d="M1.117 0.421 Q1.003 0.132 0.414 0.124" stroke="hsl(0.0,100%,35%)" stroke-width="0.00017"></path>
<path d="M1.117 0.421 Q1.428 0.452 1.557 0.307" stroke="hsl(0.0,100%,35%)" stroke-width="0.00017"></path>
<path d="M1.071 0.848 Q1.841 0.781 1.878 0.390" stroke="hsl(180.0,100%,35%)" stroke-width="0.00116"></path>
<path d="M1.071 0.848 Q0.933 0.912 1.027 0.994" stroke="hsl(180.0,100%,35%)" stroke-width="0.00083"></path>
<path d="M1.071 0.848 Q1.969 0.726 1.928 0.262" stroke="hsl(180.0,100%,35%)" stroke-width="0.00017"></path>
<path d="M1.071 0.848 Q1.322 0.354 0.414 0.124" stroke="hsl(180.0,100%,35%)" stroke-width="0.00050"></path>
<path d="M0.964 0.225 Q0.770 0.064 0.414 0.124" stroke="hsl(0.0,100%,35%)" stroke-width="0.00050"></path>
<path d="M0.964 0.225 Q1.195 0.385 1.557 0.307" stroke="hsl(0.0,100%,35%)" stroke-width="0.00033"></path>
<path d="M0.964 0.225 Q0.896 0.162 0.757 0.181" stroke="hsl(0.0,100%,35%)" stroke-width="0.00017"></path>
<path d="M1.628 0.343 Q1.715 0.417 1.878 0.390" stroke="hsl(180.0,100%,35%)" stroke-width="0.00166"></path>
<path d="M1.628 0.343 Q0.807 0.548 1.027 0.994" stroke="hsl(180.0,100%,35%)" stroke-width="0.00100"></path>
<path d="M1.628 0.343 Q1.526 0.392 1.599 0.453" stroke="hsl(180.0,100%,35%)" stroke-width="0.00083"></path>
<path d="M1.628 0.343 Q1.196 -0.010 0.414 0.124" stroke="hsl(180.0,100%,35%)" stroke-width="0.00050"></path>
<path d="M1.628 0.343 Q1.622 0.311 1.557 0.307" stroke="hsl(180.0,100%,35%)" stroke-width="0.00017"></path>
<path d="M1.628 0.343 Q0.601 0.181 0.059 0.646" stroke="hsl(180.0,100%,35%)" stroke-width="0.00050"></path>
<path d="M1.628 0.343 Q1.006 -0.000 0.200 0.228" stroke="hsl(180.0,100%,35%)" stroke-width="0.00017"></path>
</g>
<text x="0.419" y="0.272" font-size="0.041772" fill="hsl(0.0,100%,20%)">armansito</text>
<text x="0.757" y="0.141" font-size="0.078826" fill="hsl(0.0,100%,20%)">johnstiles</text>
<text x="1.878" y="0.361" font-size="0.059416" fill="hsl(180.0,100%,20%)">michaelludwig</text>
<text x="0.200" y="0.210" font-size="0.036455" fill="hsl(180.0,100%,20%)">nicolettep</text>
<text x="1.027" y="0.974" font-size="0.039074" fill="hsl(180.0,100%,20%)">egdaniel</text>
<text x="1.946" y="0.459" font-size="0.030798" fill="hsl(180.0,100%,20%)">jamesgk</text>
<text x="1.599" y="0.425" font-size="0.054566" fill="hsl(180.0,100%,20%)">jvanverth</text>
<text x="0.059" y="0.612" font-size="0.068460" fill="hsl(0.0,100%,20%)">kjlubick</text>
<text x="0.414" y="0.086" font-size="0.074628" fill="hsl(0.0,100%,20%)">brianosman</text>
<text x="0.278" y="0.514" font-size="0.028577" fill="hsl(0.0,100%,20%)">lovisolo</text>
<text x="1.557" y="0.286" font-size="0.041467" fill="hsl(0.0,100%,20%)">herb</text>
<text x="1.572" y="-0.052" font-size="0.004504" fill="hsl(0.0,100%,20%)">ayzhao</text>
<text x="1.807" y="0.447" font-size="0.004504" fill="hsl(180.0,100%,20%)">blundell</text>
<text x="1.928" y="0.236" font-size="0.051995" fill="hsl(180.0,100%,20%)">robertphillips</text>
<text x="0.214" y="0.807" font-size="0.011917" fill="hsl(0.0,100%,20%)">borenet</text>
<text x="0.169" y="0.765" font-size="0.010801" fill="hsl(0.0,100%,20%)">rmistry</text>
<text x="0.086" y="0.423" font-size="0.040975" fill="hsl(0.0,100%,20%)">bungeman</text>
<text x="1.450" y="0.725" font-size="0.026743" fill="hsl(0.0,100%,20%)">fmalita</text>
<text x="0.899" y="0.453" font-size="0.007122" fill="hsl(0.0,100%,20%)">jreck</text>
<text x="0.339" y="0.385" font-size="0.015275" fill="hsl(0.0,100%,20%)">nscobie</text>
<text x="0.076" y="0.304" font-size="0.017734" fill="hsl(0.0,100%,20%)">jlavrova</text>
<text x="1.433" y="0.885" font-size="0.020270" fill="hsl(0.0,100%,20%)">jmbetancourt</text>
<text x="1.377" y="0.575" font-size="0.019634" fill="hsl(0.0,100%,20%)">scroggo</text>
<text x="0.651" y="0.526" font-size="0.009286" fill="hsl(0.0,100%,20%)">jcgregorio</text>
<text x="0.630" y="0.964" font-size="0.010072" fill="hsl(180.0,100%,20%)">briansalomon</text>
<text x="0.539" y="0.485" font-size="0.021127" fill="hsl(0.0,100%,20%)">drott</text>
<text x="0.824" y="0.250" font-size="0.013132" fill="hsl(0.0,100%,20%)">ccameron</text>
<text x="0.275" y="0.640" font-size="0.018708" fill="hsl(0.0,100%,20%)">cmumford</text>
<text x="0.368" y="0.914" font-size="0.011703" fill="hsl(0.0,100%,20%)">sharaks</text>
<text x="0.513" y="0.785" font-size="0.008723" fill="hsl(0.0,100%,20%)">hcm</text>
<text x="1.310" y="0.462" font-size="0.006370" fill="hsl(0.0,100%,20%)">djsollen</text>
<text x="1.159" y="0.712" font-size="0.002252" fill="hsl(0.0,100%,20%)">bwils</text>
<text x="0.788" y="0.886" font-size="0.006370" fill="hsl(180.0,100%,20%)">hitawala</text>
<text x="0.399" y="-0.243" font-size="0.003901" fill="hsl(0.0,100%,20%)">jacksongardner</text>
<text x="0.397" y="0.585" font-size="0.003185" fill="hsl(0.0,100%,20%)">tdenniston</text>
<text x="0.993" y="1.734" font-size="0.004504" fill="hsl(0.0,100%,20%)">kschmi</text>
<text x="0.816" y="0.781" font-size="0.011917" fill="hsl(180.0,100%,20%)">lehoangquyen</text>
<text x="1.803" y="0.540" font-size="0.005959" fill="hsl(180.0,100%,20%)">lokokung</text>
<text x="0.947" y="0.621" font-size="0.013132" fill="hsl(0.0,100%,20%)">mike</text>
<text x="1.117" y="0.418" font-size="0.005959" fill="hsl(0.0,100%,20%)">nigeltao</text>
<text x="1.071" y="0.844" font-size="0.009009" fill="hsl(180.0,100%,20%)">penghuang</text>
<text x="0.964" y="0.222" font-size="0.005517" fill="hsl(0.0,100%,20%)">sky</text>
<text x="1.628" y="0.337" font-size="0.012128" fill="hsl(180.0,100%,20%)">sunnyps</text>
</svg>
