<svg width="4000" height="2000" viewBox="-0.025 -0.025 2.05 1.05" xmlns="http://www.w3.org/2000/svg">
  <style>
    path {
      fill: none;
      stroke-linecap: round;
      stroke-opacity: 0.4;
    }

    text {
      text-anchor: middle;
      alignment-baseline: hanging;
    }
  </style>
  <g opacity="0.4">
<path d="M1.835 0.285 Q1.716 0.383 1.883 0.463" stroke="hsl(0.0,100%,35%)" stroke-width="0.01508"></path>
<path d="M1.835 0.285 Q0.876 0.513 1.112 1.031" stroke="hsl(0.0,100%,35%)" stroke-width="0.01508"></path>
<path d="M1.835 0.285 Q1.613 0.317 1.627 0.432" stroke="hsl(0.0,100%,35%)" stroke-width="0.01508"></path>
<path d="M1.112 1.031 Q1.053 0.865 0.715 0.857" stroke="hsl(180.0,100%,35%)" stroke-width="0.04523"></path>
<path d="M1.112 1.031 Q1.309 1.023 1.336 0.926" stroke="hsl(180.0,100%,35%)" stroke-width="0.01508"></path>
<path d="M1.112 1.031 Q1.691 1.028 1.811 0.745" stroke="hsl(180.0,100%,35%)" stroke-width="0.01508"></path>
<path d="M1.112 1.031 Q0.885 0.891 0.561 0.970" stroke="hsl(180.0,100%,35%)" stroke-width="0.03015"></path>
<path d="M1.112 1.031 Q1.190 0.932 1.014 0.873" stroke="hsl(180.0,100%,35%)" stroke-width="0.01508"></path>
<path d="M1.112 1.031 Q1.180 0.947 1.030 0.895" stroke="hsl(180.0,100%,35%)" stroke-width="0.01508"></path>
<path d="M1.112 1.031 Q1.012 0.998 0.926 1.040" stroke="hsl(180.0,100%,35%)" stroke-width="0.01508"></path>
<path d="M0.561 0.970 Q0.788 1.111 1.112 1.031" stroke="hsl(180.0,100%,35%)" stroke-width="0.10553"></path>
<path d="M0.561 0.970 Q0.984 1.103 1.336 0.926" stroke="hsl(180.0,100%,35%)" stroke-width="0.01508"></path>
<path d="M0.561 0.970 Q0.728 0.944 0.715 0.857" stroke="hsl(180.0,100%,35%)" stroke-width="0.01508"></path>
</g>
<text x="1.835" y="0.259" font-size="0.052223" fill="hsl(0.0,100%,20%)">borenet</text>
<text x="1.883" y="0.448" font-size="0.030151" fill="hsl(0.0,100%,20%)">jvanverth</text>
<text x="1.112" y="0.967" font-size="0.127920" fill="hsl(180.0,100%,20%)">kjlubick</text>
<text x="1.627" y="0.417" font-size="0.030151" fill="hsl(0.0,100%,20%)">rmistry</text>
<text x="0.715" y="0.827" font-size="0.060302" fill="hsl(180.0,100%,20%)">bungeman</text>
<text x="1.336" y="0.904" font-size="0.042640" fill="hsl(180.0,100%,20%)">brianosman</text>
<text x="1.811" y="0.729" font-size="0.030151" fill="hsl(180.0,100%,20%)">robertphillips</text>
<text x="0.561" y="0.920" font-size="0.100000" fill="hsl(180.0,100%,20%)">lovisolo</text>
<text x="1.014" y="0.858" font-size="0.030151" fill="hsl(180.0,100%,20%)">fmalita</text>
<text x="1.030" y="0.880" font-size="0.030151" fill="hsl(180.0,100%,20%)">scroggo</text>
<text x="0.926" y="1.025" font-size="0.030151" fill="hsl(180.0,100%,20%)">egdaniel</text>
</svg>
