<svg width="4000" height="2000" viewBox="-0.025 -0.025 2.05 1.05" xmlns="http://www.w3.org/2000/svg">
  <style>
    path {
      fill: none;
      stroke-linecap: round;
      stroke-opacity: 0.4;
    }

    text {
      text-anchor: middle;
      alignment-baseline: hanging;
    }
  </style>
  <g opacity="0.4">
<path d="M1.376 0.804 Q0.936 0.501 0.249 0.650" stroke="hsl(0.0,100%,35%)" stroke-width="0.00305"></path>
<path d="M1.376 0.804 Q1.757 0.810 1.853 0.626" stroke="hsl(0.0,100%,35%)" stroke-width="0.03359"></path>
<path d="M1.376 0.804 Q1.142 0.335 0.176 0.346" stroke="hsl(0.0,100%,35%)" stroke-width="0.00305"></path>
<path d="M0.249 0.650 Q0.690 0.952 1.376 0.804" stroke="hsl(0.0,100%,35%)" stroke-width="0.01832"></path>
<path d="M0.249 0.650 Q1.070 0.959 1.853 0.626" stroke="hsl(0.0,100%,35%)" stroke-width="0.01527"></path>
<path d="M0.249 0.650 Q0.222 0.817 0.542 0.868" stroke="hsl(0.0,100%,35%)" stroke-width="0.00916"></path>
<path d="M1.853 0.626 Q2.029 0.561 1.940 0.461" stroke="hsl(0.0,100%,35%)" stroke-width="0.01527"></path>
<path d="M1.853 0.626 Q1.473 0.620 1.376 0.804" stroke="hsl(0.0,100%,35%)" stroke-width="0.10076"></path>
<path d="M1.853 0.626 Q1.033 0.317 0.249 0.650" stroke="hsl(0.0,100%,35%)" stroke-width="0.01221"></path>
<path d="M1.853 0.626 Q1.568 0.692 1.632 0.845" stroke="hsl(0.0,100%,35%)" stroke-width="0.00305"></path>
<path d="M1.853 0.626 Q1.801 0.519 1.581 0.521" stroke="hsl(0.0,100%,35%)" stroke-width="0.01832"></path>
<path d="M1.853 0.626 Q1.720 0.503 1.451 0.541" stroke="hsl(0.0,100%,35%)" stroke-width="0.00611"></path>
<path d="M1.853 0.626 Q1.391 0.490 1.024 0.686" stroke="hsl(0.0,100%,35%)" stroke-width="0.00916"></path>
<path d="M1.853 0.626 Q1.640 0.706 1.749 0.828" stroke="hsl(0.0,100%,35%)" stroke-width="0.00611"></path>
<path d="M1.853 0.626 Q1.888 0.412 1.478 0.349" stroke="hsl(0.0,100%,35%)" stroke-width="0.00611"></path>
<path d="M1.853 0.626 Q1.005 0.485 0.542 0.868" stroke="hsl(0.0,100%,35%)" stroke-width="0.00611"></path>
<path d="M1.853 0.626 Q1.811 0.702 1.949 0.739" stroke="hsl(0.0,100%,35%)" stroke-width="0.00305"></path>
<path d="M0.176 0.346 Q0.966 0.757 1.940 0.461" stroke="hsl(180.0,100%,35%)" stroke-width="0.00611"></path>
<path d="M0.176 0.346 Q0.410 0.815 1.376 0.804" stroke="hsl(180.0,100%,35%)" stroke-width="0.00916"></path>
<path d="M0.176 0.346 Q0.352 0.355 0.408 0.271" stroke="hsl(180.0,100%,35%)" stroke-width="0.00305"></path>
<path d="M0.176 0.346 Q0.271 0.488 0.570 0.473" stroke="hsl(180.0,100%,35%)" stroke-width="0.00305"></path>
<path d="M0.408 0.271 Q0.232 0.262 0.176 0.346" stroke="hsl(180.0,100%,35%)" stroke-width="0.03664"></path>
<path d="M0.408 0.271 Q0.466 0.731 1.376 0.804" stroke="hsl(180.0,100%,35%)" stroke-width="0.00611"></path>
<path d="M1.024 0.686 Q1.434 0.715 1.581 0.521" stroke="hsl(0.0,100%,35%)" stroke-width="0.00611"></path>
<path d="M1.024 0.686 Q1.106 0.815 1.376 0.804" stroke="hsl(0.0,100%,35%)" stroke-width="0.00305"></path>
<path d="M1.024 0.686 Q0.666 0.513 0.249 0.650" stroke="hsl(0.0,100%,35%)" stroke-width="0.00305"></path>
<path d="M1.451 0.541 Q0.970 0.189 0.176 0.346" stroke="hsl(0.0,100%,35%)" stroke-width="0.00305"></path>
<path d="M1.451 0.541 Q1.204 0.658 1.376 0.804" stroke="hsl(0.0,100%,35%)" stroke-width="0.01527"></path>
<path d="M1.451 0.541 Q0.921 0.478 0.680 0.722" stroke="hsl(0.0,100%,35%)" stroke-width="0.00305"></path>
<path d="M1.451 0.541 Q1.584 0.664 1.853 0.626" stroke="hsl(0.0,100%,35%)" stroke-width="0.00611"></path>
<path d="M0.680 0.722 Q0.522 0.600 0.249 0.650" stroke="hsl(0.0,100%,35%)" stroke-width="0.01221"></path>
<path d="M0.680 0.722 Q0.880 0.773 1.024 0.686" stroke="hsl(0.0,100%,35%)" stroke-width="0.00305"></path>
<path d="M0.680 0.722 Q0.729 0.434 0.176 0.346" stroke="hsl(0.0,100%,35%)" stroke-width="0.00305"></path>
<path d="M0.680 0.722 Q1.210 0.786 1.451 0.541" stroke="hsl(0.0,100%,35%)" stroke-width="0.00305"></path>
<path d="M0.680 0.722 Q1.343 0.909 1.853 0.626" stroke="hsl(0.0,100%,35%)" stroke-width="0.00611"></path>
</g>
<text x="1.376" y="0.755" font-size="0.098073" fill="hsl(0.0,100%,20%)">brianosman</text>
<text x="0.249" y="0.620" font-size="0.060532" fill="hsl(0.0,100%,20%)">michaelludwig</text>
<text x="1.853" y="0.571" font-size="0.111204" fill="hsl(0.0,100%,20%)">johnstiles</text>
<text x="0.176" y="0.317" font-size="0.057955" fill="hsl(180.0,100%,20%)">bungeman</text>
<text x="1.940" y="0.445" font-size="0.032691" fill="hsl(180.0,100%,20%)">kjlubick</text>
<text x="0.408" y="0.247" font-size="0.047855" fill="hsl(180.0,100%,20%)">drott</text>
<text x="0.570" y="0.467" font-size="0.012356" fill="hsl(180.0,100%,20%)">jlavrova</text>
<text x="1.024" y="0.669" font-size="0.034948" fill="hsl(0.0,100%,20%)">egdaniel</text>
<text x="1.581" y="0.504" font-size="0.034948" fill="hsl(0.0,100%,20%)">nicolettep</text>
<text x="1.451" y="0.520" font-size="0.042803" fill="hsl(0.0,100%,20%)">herb</text>
<text x="0.680" y="0.703" font-size="0.039073" fill="hsl(0.0,100%,20%)">jvanverth</text>
<text x="1.632" y="0.839" font-size="0.012356" fill="hsl(0.0,100%,20%)">rmistry</text>
<text x="1.749" y="0.819" font-size="0.017474" fill="hsl(0.0,100%,20%)">jmbetancourt</text>
<text x="1.478" y="0.340" font-size="0.017474" fill="hsl(0.0,100%,20%)">nscobie</text>
<text x="0.542" y="0.854" font-size="0.027629" fill="hsl(0.0,100%,20%)">jamesgk</text>
<text x="1.949" y="0.733" font-size="0.012356" fill="hsl(0.0,100%,20%)">robertphillips</text>
</svg>
