<svg width="4000" height="2000" viewBox="-0.025 -0.025 2.05 1.05" xmlns="http://www.w3.org/2000/svg">
  <style>
    path {
      fill: none;
      stroke-linecap: round;
      stroke-opacity: 0.4;
    }

    text {
      text-anchor: middle;
      alignment-baseline: hanging;
    }
  </style>
  <g opacity="0.4">
<path d="M0.948 0.396 Q0.693 0.231 0.316 0.319" stroke="hsl(0.0,100%,35%)" stroke-width="0.00202"></path>
<path d="M0.948 0.396 Q0.955 0.178 0.532 0.127" stroke="hsl(0.0,100%,35%)" stroke-width="0.00202"></path>
<path d="M0.948 0.396 Q1.468 0.570 1.921 0.354" stroke="hsl(0.0,100%,35%)" stroke-width="0.00202"></path>
<path d="M0.948 0.396 Q0.313 0.562 0.496 0.908" stroke="hsl(0.0,100%,35%)" stroke-width="0.00202"></path>
<path d="M0.948 0.396 Q0.606 0.564 0.858 0.767" stroke="hsl(0.0,100%,35%)" stroke-width="0.00202"></path>
<path d="M0.532 0.127 Q0.621 0.486 1.340 0.521" stroke="hsl(0.0,100%,35%)" stroke-width="0.00202"></path>
<path d="M0.532 0.127 Q0.370 0.463 0.990 0.616" stroke="hsl(0.0,100%,35%)" stroke-width="0.00405"></path>
<path d="M0.532 0.127 Q0.183 0.512 0.858 0.767" stroke="hsl(0.0,100%,35%)" stroke-width="0.00202"></path>
<path d="M0.532 0.127 Q0.760 0.153 0.861 0.048" stroke="hsl(0.0,100%,35%)" stroke-width="0.00810"></path>
<path d="M0.532 0.127 Q0.354 0.115 0.293 0.199" stroke="hsl(0.0,100%,35%)" stroke-width="0.00202"></path>
<path d="M1.921 0.354 Q1.231 -0.049 0.293 0.199" stroke="hsl(0.0,100%,35%)" stroke-width="0.00202"></path>
<path d="M1.921 0.354 Q1.408 -0.037 0.532 0.127" stroke="hsl(0.0,100%,35%)" stroke-width="0.01822"></path>
<path d="M1.921 0.354 Q1.733 0.333 1.652 0.420" stroke="hsl(0.0,100%,35%)" stroke-width="0.00810"></path>
<path d="M1.921 0.354 Q0.924 0.305 0.610 0.781" stroke="hsl(0.0,100%,35%)" stroke-width="0.00202"></path>
<path d="M0.858 0.767 Q0.723 0.724 0.610 0.781" stroke="hsl(0.0,100%,35%)" stroke-width="0.01822"></path>
<path d="M0.858 0.767 Q0.754 0.569 0.344 0.576" stroke="hsl(0.0,100%,35%)" stroke-width="0.01012"></path>
<path d="M0.858 0.767 Q1.207 0.382 0.532 0.127" stroke="hsl(0.0,100%,35%)" stroke-width="0.01012"></path>
<path d="M0.858 0.767 Q1.720 0.773 1.921 0.354" stroke="hsl(0.0,100%,35%)" stroke-width="0.01215"></path>
<path d="M0.858 0.767 Q1.170 0.824 1.351 0.684" stroke="hsl(0.0,100%,35%)" stroke-width="0.00607"></path>
<path d="M0.858 0.767 Q1.435 0.408 0.861 0.048" stroke="hsl(0.0,100%,35%)" stroke-width="0.00202"></path>
<path d="M0.858 0.767 Q1.045 0.718 0.990 0.616" stroke="hsl(0.0,100%,35%)" stroke-width="0.00202"></path>
<path d="M0.858 0.767 Q0.564 0.765 0.496 0.908" stroke="hsl(0.0,100%,35%)" stroke-width="0.00202"></path>
<path d="M0.858 0.767 Q0.943 0.815 1.054 0.783" stroke="hsl(0.0,100%,35%)" stroke-width="0.00202"></path>
<path d="M0.858 0.767 Q0.841 0.909 1.114 0.948" stroke="hsl(0.0,100%,35%)" stroke-width="0.00405"></path>
<path d="M0.858 0.767 Q1.296 0.740 1.340 0.521" stroke="hsl(0.0,100%,35%)" stroke-width="0.00607"></path>
<path d="M0.858 0.767 Q1.030 0.370 0.293 0.199" stroke="hsl(0.0,100%,35%)" stroke-width="0.00202"></path>
<path d="M1.757 0.576 Q1.342 0.443 0.990 0.616" stroke="hsl(180.0,100%,35%)" stroke-width="0.00405"></path>
<path d="M1.757 0.576 Q1.020 0.449 0.610 0.781" stroke="hsl(180.0,100%,35%)" stroke-width="0.00202"></path>
<path d="M1.757 0.576 Q1.593 0.465 1.340 0.521" stroke="hsl(180.0,100%,35%)" stroke-width="0.00202"></path>
<path d="M1.757 0.576 Q1.504 0.107 0.532 0.127" stroke="hsl(180.0,100%,35%)" stroke-width="0.00202"></path>
<path d="M0.990 0.616 Q0.974 0.268 0.293 0.199" stroke="hsl(180.0,100%,35%)" stroke-width="0.00607"></path>
<path d="M0.990 0.616 Q1.152 0.280 0.532 0.127" stroke="hsl(180.0,100%,35%)" stroke-width="0.00810"></path>
<path d="M0.990 0.616 Q1.665 0.671 1.921 0.354" stroke="hsl(180.0,100%,35%)" stroke-width="0.00202"></path>
<path d="M0.990 0.616 Q0.803 0.665 0.858 0.767" stroke="hsl(180.0,100%,35%)" stroke-width="0.00202"></path>
<path d="M0.990 0.616 Q1.142 0.445 0.844 0.334" stroke="hsl(180.0,100%,35%)" stroke-width="0.00607"></path>
<path d="M0.990 0.616 Q1.115 0.722 1.351 0.684" stroke="hsl(180.0,100%,35%)" stroke-width="0.01417"></path>
<path d="M0.990 0.616 Q1.241 0.638 1.340 0.521" stroke="hsl(180.0,100%,35%)" stroke-width="0.00202"></path>
<path d="M1.340 0.521 Q1.214 0.605 1.351 0.684" stroke="hsl(180.0,100%,35%)" stroke-width="0.00810"></path>
<path d="M1.340 0.521 Q1.479 0.188 0.861 0.048" stroke="hsl(180.0,100%,35%)" stroke-width="0.00405"></path>
<path d="M1.340 0.521 Q1.089 0.498 0.990 0.616" stroke="hsl(180.0,100%,35%)" stroke-width="0.02227"></path>
<path d="M1.340 0.521 Q1.504 0.632 1.757 0.576" stroke="hsl(180.0,100%,35%)" stroke-width="0.01215"></path>
<path d="M1.340 0.521 Q1.251 0.162 0.532 0.127" stroke="hsl(180.0,100%,35%)" stroke-width="0.00202"></path>
<path d="M1.340 0.521 Q0.767 0.505 0.610 0.781" stroke="hsl(180.0,100%,35%)" stroke-width="0.00607"></path>
<path d="M1.340 0.521 Q1.242 0.328 0.844 0.334" stroke="hsl(180.0,100%,35%)" stroke-width="0.00202"></path>
<path d="M1.340 0.521 Q0.902 0.548 0.858 0.767" stroke="hsl(180.0,100%,35%)" stroke-width="0.00202"></path>
<path d="M1.340 0.521 Q0.608 0.546 0.496 0.908" stroke="hsl(180.0,100%,35%)" stroke-width="0.00202"></path>
<path d="M1.340 0.521 Q1.074 0.151 0.293 0.199" stroke="hsl(180.0,100%,35%)" stroke-width="0.00405"></path>
<path d="M0.293 0.199 Q0.470 0.211 0.532 0.127" stroke="hsl(180.0,100%,35%)" stroke-width="0.03441"></path>
<path d="M0.293 0.199 Q0.308 0.547 0.990 0.616" stroke="hsl(180.0,100%,35%)" stroke-width="0.00607"></path>
<path d="M0.293 0.199 Q0.433 0.653 1.351 0.684" stroke="hsl(180.0,100%,35%)" stroke-width="0.00607"></path>
<path d="M0.293 0.199 Q0.121 0.596 0.858 0.767" stroke="hsl(180.0,100%,35%)" stroke-width="0.00405"></path>
<path d="M0.293 0.199 Q0.698 0.237 0.861 0.048" stroke="hsl(180.0,100%,35%)" stroke-width="0.00405"></path>
<path d="M0.225 0.866 Q0.933 1.000 1.351 0.684" stroke="hsl(180.0,100%,35%)" stroke-width="0.00810"></path>
<path d="M0.225 0.866 Q0.327 0.941 0.496 0.908" stroke="hsl(180.0,100%,35%)" stroke-width="0.00810"></path>
<path d="M0.225 0.866 Q1.058 0.916 1.340 0.521" stroke="hsl(180.0,100%,35%)" stroke-width="0.00405"></path>
<path d="M1.351 0.684 Q1.210 0.230 0.293 0.199" stroke="hsl(180.0,100%,35%)" stroke-width="0.01619"></path>
<path d="M1.351 0.684 Q1.476 0.601 1.340 0.521" stroke="hsl(180.0,100%,35%)" stroke-width="0.02429"></path>
<path d="M1.351 0.684 Q1.225 0.578 0.990 0.616" stroke="hsl(180.0,100%,35%)" stroke-width="0.00607"></path>
<path d="M1.351 0.684 Q1.387 0.242 0.532 0.127" stroke="hsl(180.0,100%,35%)" stroke-width="0.00202"></path>
<path d="M1.351 0.684 Q0.934 0.429 0.344 0.576" stroke="hsl(180.0,100%,35%)" stroke-width="0.00405"></path>
<path d="M1.351 0.684 Q0.744 0.625 0.496 0.908" stroke="hsl(180.0,100%,35%)" stroke-width="0.00202"></path>
<path d="M1.652 0.420 Q1.839 0.441 1.921 0.354" stroke="hsl(0.0,100%,35%)" stroke-width="0.03037"></path>
<path d="M1.652 0.420 Q1.326 0.050 0.532 0.127" stroke="hsl(0.0,100%,35%)" stroke-width="0.00202"></path>
<path d="M1.652 0.420 Q1.679 0.311 1.472 0.273" stroke="hsl(0.0,100%,35%)" stroke-width="0.00202"></path>
<path d="M0.344 0.576 Q0.797 0.389 0.532 0.127" stroke="hsl(0.0,100%,35%)" stroke-width="0.00607"></path>
<path d="M0.344 0.576 Q0.448 0.774 0.858 0.767" stroke="hsl(0.0,100%,35%)" stroke-width="0.00607"></path>
<path d="M0.344 0.576 Q0.760 0.831 1.351 0.684" stroke="hsl(0.0,100%,35%)" stroke-width="0.00202"></path>
<path d="M0.662 0.215 Q0.318 0.530 0.858 0.767" stroke="hsl(0.0,100%,35%)" stroke-width="0.00202"></path>
<path d="M0.662 0.215 Q0.667 0.145 0.532 0.127" stroke="hsl(0.0,100%,35%)" stroke-width="0.00202"></path>
<path d="M0.662 0.215 Q0.405 0.198 0.316 0.319" stroke="hsl(0.0,100%,35%)" stroke-width="0.00202"></path>
<path d="M0.097 0.465 Q0.585 0.383 0.532 0.127" stroke="hsl(0.0,100%,35%)" stroke-width="0.00405"></path>
<path d="M0.097 0.465 Q1.098 0.774 1.921 0.354" stroke="hsl(0.0,100%,35%)" stroke-width="0.00405"></path>
<path d="M0.097 0.465 Q0.548 0.826 1.351 0.684" stroke="hsl(0.0,100%,35%)" stroke-width="0.00202"></path>
<path d="M0.097 0.465 Q0.132 0.570 0.344 0.576" stroke="hsl(0.0,100%,35%)" stroke-width="0.00607"></path>
<path d="M0.552 0.419 Q0.739 0.712 1.351 0.684" stroke="hsl(0.0,100%,35%)" stroke-width="0.00202"></path>
<path d="M0.552 0.419 Q0.514 0.322 0.316 0.319" stroke="hsl(0.0,100%,35%)" stroke-width="0.01417"></path>
<path d="M0.552 0.419 Q0.292 0.612 0.610 0.781" stroke="hsl(0.0,100%,35%)" stroke-width="0.00405"></path>
<path d="M0.552 0.419 Q0.133 0.653 0.496 0.908" stroke="hsl(0.0,100%,35%)" stroke-width="0.00202"></path>
<path d="M1.031 0.470 Q0.894 0.535 0.990 0.616" stroke="hsl(180.0,100%,35%)" stroke-width="0.00810"></path>
<path d="M1.031 0.470 Q0.832 0.349 0.552 0.419" stroke="hsl(180.0,100%,35%)" stroke-width="0.00202"></path>
<path d="M1.031 0.470 Q1.284 0.225 0.861 0.048" stroke="hsl(180.0,100%,35%)" stroke-width="0.00202"></path>
<path d="M1.031 0.470 Q1.569 0.590 1.921 0.354" stroke="hsl(180.0,100%,35%)" stroke-width="0.00202"></path>
<path d="M1.031 0.470 Q0.413 0.582 0.496 0.908" stroke="hsl(180.0,100%,35%)" stroke-width="0.00202"></path>
</g>
<text x="0.948" y="0.386" font-size="0.020328" fill="hsl(0.0,100%,20%)">aperez</text>
<text x="0.316" y="0.306" font-size="0.027273" fill="hsl(0.0,100%,20%)">scroggo</text>
<text x="0.532" y="0.093" font-size="0.067420" fill="hsl(0.0,100%,20%)">brianosman</text>
<text x="1.921" y="0.325" font-size="0.058210" fill="hsl(0.0,100%,20%)">bungeman</text>
<text x="0.496" y="0.894" font-size="0.028748" fill="hsl(0.0,100%,20%)">egdaniel</text>
<text x="0.858" y="0.736" font-size="0.062984" fill="hsl(0.0,100%,20%)">kjlubick</text>
<text x="1.757" y="0.561" font-size="0.030151" fill="hsl(180.0,100%,20%)">armansito</text>
<text x="0.990" y="0.585" font-size="0.061658" fill="hsl(180.0,100%,20%)">michaelludwig</text>
<text x="0.610" y="0.763" font-size="0.036364" fill="hsl(0.0,100%,20%)">nicolettep</text>
<text x="1.340" y="0.488" font-size="0.065555" fill="hsl(180.0,100%,20%)">jvanverth</text>
<text x="0.861" y="0.033" font-size="0.028748" fill="hsl(180.0,100%,20%)">herb</text>
<text x="0.293" y="0.169" font-size="0.059613" fill="hsl(180.0,100%,20%)">johnstiles</text>
<text x="0.225" y="0.851" font-size="0.028748" fill="hsl(180.0,100%,20%)">briansalomon</text>
<text x="1.351" y="0.652" font-size="0.064922" fill="hsl(180.0,100%,20%)">robertphillips</text>
<text x="1.652" y="0.399" font-size="0.041660" fill="hsl(0.0,100%,20%)">drott</text>
<text x="1.472" y="0.269" font-size="0.009091" fill="hsl(0.0,100%,20%)">jlavrova</text>
<text x="0.344" y="0.557" font-size="0.037483" fill="hsl(0.0,100%,20%)">fmalita</text>
<text x="0.662" y="0.207" font-size="0.015746" fill="hsl(0.0,100%,20%)">jgaillard</text>
<text x="0.844" y="0.325" font-size="0.018182" fill="hsl(180.0,100%,20%)">jamesgk</text>
<text x="1.054" y="0.779" font-size="0.009091" fill="hsl(0.0,100%,20%)">borenet</text>
<text x="1.114" y="0.942" font-size="0.012856" fill="hsl(0.0,100%,20%)">lovisolo</text>
<text x="0.097" y="0.452" font-size="0.025713" fill="hsl(0.0,100%,20%)">mike</text>
<text x="0.552" y="0.404" font-size="0.031492" fill="hsl(0.0,100%,20%)">nscobie</text>
<text x="1.031" y="0.457" font-size="0.025713" fill="hsl(180.0,100%,20%)">penghuang</text>
</svg>
