<svg width="4000" height="2000" viewBox="-0.025 -0.025 2.05 1.05" xmlns="http://www.w3.org/2000/svg">
  <style>
    path {
      fill: none;
      stroke-linecap: round;
      stroke-opacity: 0.4;
    }

    text {
      text-anchor: middle;
      alignment-baseline: hanging;
    }
  </style>
  <g opacity="0.4">
<path d="M1.711 0.390 Q1.581 0.286 1.351 0.327" stroke="hsl(0.0,100%,35%)" stroke-width="0.11094"></path>
<path d="M1.711 0.390 Q1.599 0.437 1.668 0.502" stroke="hsl(0.0,100%,35%)" stroke-width="0.01849"></path>
<path d="M1.711 0.390 Q0.972 0.554 1.130 0.950" stroke="hsl(0.0,100%,35%)" stroke-width="0.00925"></path>
<path d="M1.130 0.950 Q1.868 0.786 1.711 0.390" stroke="hsl(180.0,100%,35%)" stroke-width="0.00925"></path>
<path d="M1.130 0.950 Q1.739 0.682 1.351 0.327" stroke="hsl(180.0,100%,35%)" stroke-width="0.01849"></path>
<path d="M1.130 0.950 Q1.160 0.561 0.407 0.461" stroke="hsl(180.0,100%,35%)" stroke-width="0.00925"></path>
<path d="M1.662 0.991 Q2.056 0.748 1.668 0.502" stroke="hsl(180.0,100%,35%)" stroke-width="0.01849"></path>
<path d="M1.662 0.991 Q1.842 0.916 1.735 0.812" stroke="hsl(180.0,100%,35%)" stroke-width="0.01849"></path>
<path d="M1.662 0.991 Q1.429 0.864 1.130 0.950" stroke="hsl(180.0,100%,35%)" stroke-width="0.03698"></path>
<path d="M1.662 0.991 Q1.617 0.735 1.108 0.701" stroke="hsl(180.0,100%,35%)" stroke-width="0.00925"></path>
<path d="M0.401 0.697 Q0.755 0.690 0.819 0.515" stroke="hsl(180.0,100%,35%)" stroke-width="0.00925"></path>
<path d="M0.401 0.697 Q0.570 0.726 0.663 0.650" stroke="hsl(180.0,100%,35%)" stroke-width="0.01849"></path>
<path d="M0.401 0.697 Q1.172 0.702 1.351 0.327" stroke="hsl(180.0,100%,35%)" stroke-width="0.00925"></path>
<path d="M0.401 0.697 Q0.593 0.580 0.407 0.461" stroke="hsl(180.0,100%,35%)" stroke-width="0.00925"></path>
<path d="M0.401 0.697 Q1.190 0.853 1.668 0.502" stroke="hsl(180.0,100%,35%)" stroke-width="0.00925"></path>
<path d="M0.401 0.697 Q0.976 1.021 1.735 0.812" stroke="hsl(180.0,100%,35%)" stroke-width="0.00925"></path>
<path d="M0.332 0.813 Q1.248 0.925 1.668 0.502" stroke="hsl(180.0,100%,35%)" stroke-width="0.00925"></path>
<path d="M0.332 0.813 Q0.364 0.693 0.137 0.651" stroke="hsl(180.0,100%,35%)" stroke-width="0.01849"></path>
<path d="M0.332 0.813 Q0.814 0.761 0.819 0.515" stroke="hsl(180.0,100%,35%)" stroke-width="0.00925"></path>
</g>
<text x="1.711" y="0.345" font-size="0.090582" fill="hsl(0.0,100%,20%)">johnstiles</text>
<text x="1.351" y="0.283" font-size="0.087706" fill="hsl(0.0,100%,20%)">brianosman</text>
<text x="1.668" y="0.474" font-size="0.055470" fill="hsl(180.0,100%,20%)">robertphillips</text>
<text x="1.130" y="0.916" font-size="0.067937" fill="hsl(180.0,100%,20%)">michaelludwig</text>
<text x="1.662" y="0.957" font-size="0.067937" fill="hsl(180.0,100%,20%)">jvanverth</text>
<text x="1.735" y="0.792" font-size="0.039223" fill="hsl(180.0,100%,20%)">herb</text>
<text x="1.108" y="0.689" font-size="0.022646" fill="hsl(180.0,100%,20%)">armansito</text>
<text x="0.401" y="0.667" font-size="0.059914" fill="hsl(180.0,100%,20%)">kjlubick</text>
<text x="0.819" y="0.499" font-size="0.032026" fill="hsl(180.0,100%,20%)">nicolettep</text>
<text x="0.663" y="0.634" font-size="0.032026" fill="hsl(180.0,100%,20%)">fmalita</text>
<text x="0.407" y="0.445" font-size="0.032026" fill="hsl(180.0,100%,20%)">bungeman</text>
<text x="0.332" y="0.790" font-size="0.045291" fill="hsl(180.0,100%,20%)">nscobie</text>
<text x="0.137" y="0.634" font-size="0.032026" fill="hsl(180.0,100%,20%)">scroggo</text>
</svg>
