<svg width="4000" height="2000" viewBox="-0.025 -0.025 2.05 1.05" xmlns="http://www.w3.org/2000/svg">
  <style>
    path {
      fill: none;
      stroke-linecap: round;
      stroke-opacity: 0.4;
    }

    text {
      text-anchor: middle;
      alignment-baseline: hanging;
    }
  </style>
  <g opacity="0.4">
<path d="M1.595 0.716 Q1.474 0.511 1.048 0.525" stroke="hsl(0.0,100%,35%)" stroke-width="0.00043"></path>
<path d="M1.595 0.716 Q1.166 0.197 0.060 0.293" stroke="hsl(0.0,100%,35%)" stroke-width="0.00043"></path>
<path d="M1.595 0.716 Q1.701 0.757 1.805 0.715" stroke="hsl(0.0,100%,35%)" stroke-width="0.00043"></path>
<path d="M1.595 0.716 Q1.946 0.581 1.760 0.380" stroke="hsl(0.0,100%,35%)" stroke-width="0.00043"></path>
<path d="M1.595 0.716 Q1.645 0.644 1.517 0.605" stroke="hsl(0.0,100%,35%)" stroke-width="0.00043"></path>
<path d="M1.048 0.525 Q1.018 0.445 0.856 0.442" stroke="hsl(0.0,100%,35%)" stroke-width="0.00043"></path>
<path d="M1.048 0.525 Q0.740 0.212 0.060 0.293" stroke="hsl(0.0,100%,35%)" stroke-width="0.00043"></path>
<path d="M1.048 0.525 Q0.846 0.567 0.884 0.675" stroke="hsl(0.0,100%,35%)" stroke-width="0.00043"></path>
<path d="M1.048 0.525 Q1.275 0.772 1.805 0.715" stroke="hsl(0.0,100%,35%)" stroke-width="0.00085"></path>
<path d="M1.048 0.525 Q0.853 0.201 0.177 0.224" stroke="hsl(0.0,100%,35%)" stroke-width="0.00043"></path>
<path d="M1.048 0.525 Q1.520 0.595 1.760 0.380" stroke="hsl(0.0,100%,35%)" stroke-width="0.00043"></path>
<path d="M0.060 0.293 Q0.539 0.740 1.517 0.605" stroke="hsl(180.0,100%,35%)" stroke-width="0.00170"></path>
<path d="M0.060 0.293 Q0.174 0.282 0.177 0.224" stroke="hsl(180.0,100%,35%)" stroke-width="0.01362"></path>
<path d="M0.060 0.293 Q-0.014 0.808 0.975 0.957" stroke="hsl(180.0,100%,35%)" stroke-width="0.00043"></path>
<path d="M0.060 0.293 Q0.625 0.578 1.306 0.365" stroke="hsl(180.0,100%,35%)" stroke-width="0.00639"></path>
<path d="M0.060 0.293 Q0.595 0.853 1.805 0.715" stroke="hsl(180.0,100%,35%)" stroke-width="0.00255"></path>
<path d="M0.060 0.293 Q0.340 0.239 0.296 0.090" stroke="hsl(180.0,100%,35%)" stroke-width="0.00213"></path>
<path d="M0.060 0.293 Q0.230 0.933 1.517 0.991" stroke="hsl(180.0,100%,35%)" stroke-width="0.00043"></path>
<path d="M0.060 0.293 Q0.395 0.454 0.783 0.327" stroke="hsl(180.0,100%,35%)" stroke-width="0.00213"></path>
<path d="M0.060 0.293 Q0.583 0.461 1.027 0.243" stroke="hsl(180.0,100%,35%)" stroke-width="0.00043"></path>
<path d="M0.060 0.293 Q0.821 0.501 1.393 0.176" stroke="hsl(180.0,100%,35%)" stroke-width="0.00128"></path>
<path d="M1.805 0.715 Q1.271 0.155 0.060 0.293" stroke="hsl(180.0,100%,35%)" stroke-width="0.01277"></path>
<path d="M1.805 0.715 Q1.551 0.101 0.296 0.090" stroke="hsl(180.0,100%,35%)" stroke-width="0.00170"></path>
<path d="M1.805 0.715 Q2.031 0.363 1.393 0.176" stroke="hsl(180.0,100%,35%)" stroke-width="0.00043"></path>
<path d="M1.805 0.715 Q1.524 0.694 1.420 0.826" stroke="hsl(180.0,100%,35%)" stroke-width="0.00128"></path>
<path d="M1.805 0.715 Q1.647 0.731 1.642 0.812" stroke="hsl(180.0,100%,35%)" stroke-width="0.00085"></path>
<path d="M1.805 0.715 Q1.750 0.602 1.517 0.605" stroke="hsl(180.0,100%,35%)" stroke-width="0.00298"></path>
<path d="M1.805 0.715 Q1.384 0.144 0.177 0.224" stroke="hsl(180.0,100%,35%)" stroke-width="0.00213"></path>
<path d="M1.805 0.715 Q1.579 0.469 1.048 0.525" stroke="hsl(180.0,100%,35%)" stroke-width="0.00043"></path>
<path d="M1.805 0.715 Q1.377 0.511 0.884 0.675" stroke="hsl(180.0,100%,35%)" stroke-width="0.00043"></path>
<path d="M1.805 0.715 Q2.051 0.539 1.760 0.380" stroke="hsl(180.0,100%,35%)" stroke-width="0.00043"></path>
<path d="M1.805 0.715 Q1.441 0.795 1.517 0.991" stroke="hsl(180.0,100%,35%)" stroke-width="0.00043"></path>
<path d="M1.760 0.380 Q1.093 -0.014 0.177 0.224" stroke="hsl(0.0,100%,35%)" stroke-width="0.00085"></path>
<path d="M1.760 0.380 Q1.503 0.165 1.027 0.243" stroke="hsl(0.0,100%,35%)" stroke-width="0.00596"></path>
<path d="M1.760 0.380 Q0.980 -0.003 0.060 0.293" stroke="hsl(0.0,100%,35%)" stroke-width="0.00085"></path>
<path d="M1.760 0.380 Q1.545 0.282 1.306 0.365" stroke="hsl(0.0,100%,35%)" stroke-width="0.00341"></path>
<path d="M1.760 0.380 Q1.511 0.308 1.314 0.413" stroke="hsl(0.0,100%,35%)" stroke-width="0.00085"></path>
<path d="M1.760 0.380 Q1.258 0.230 0.856 0.442" stroke="hsl(0.0,100%,35%)" stroke-width="0.00043"></path>
<path d="M1.760 0.380 Q1.740 0.205 1.393 0.176" stroke="hsl(0.0,100%,35%)" stroke-width="0.00128"></path>
<path d="M1.760 0.380 Q1.314 0.158 0.783 0.327" stroke="hsl(0.0,100%,35%)" stroke-width="0.00128"></path>
<path d="M1.760 0.380 Q1.459 0.444 1.517 0.605" stroke="hsl(0.0,100%,35%)" stroke-width="0.00043"></path>
<path d="M1.517 0.605 Q1.316 0.391 0.856 0.442" stroke="hsl(180.0,100%,35%)" stroke-width="0.00170"></path>
<path d="M1.517 0.605 Q1.573 0.718 1.805 0.715" stroke="hsl(180.0,100%,35%)" stroke-width="0.02767"></path>
<path d="M1.517 0.605 Q1.208 0.798 1.517 0.991" stroke="hsl(180.0,100%,35%)" stroke-width="0.00724"></path>
<path d="M1.517 0.605 Q1.302 0.639 1.321 0.752" stroke="hsl(180.0,100%,35%)" stroke-width="0.01064"></path>
<path d="M1.517 0.605 Q1.372 0.319 0.783 0.327" stroke="hsl(180.0,100%,35%)" stroke-width="0.00341"></path>
<path d="M1.517 0.605 Q1.346 0.471 1.048 0.525" stroke="hsl(180.0,100%,35%)" stroke-width="0.00128"></path>
<path d="M1.517 0.605 Q1.038 0.157 0.060 0.293" stroke="hsl(180.0,100%,35%)" stroke-width="0.01788"></path>
<path d="M1.517 0.605 Q1.818 0.541 1.760 0.380" stroke="hsl(180.0,100%,35%)" stroke-width="0.00766"></path>
<path d="M1.517 0.605 Q1.318 0.103 0.296 0.090" stroke="hsl(180.0,100%,35%)" stroke-width="0.00128"></path>
<path d="M1.517 0.605 Q1.561 0.326 1.027 0.243" stroke="hsl(180.0,100%,35%)" stroke-width="0.00724"></path>
<path d="M1.517 0.605 Q1.151 0.146 0.177 0.224" stroke="hsl(180.0,100%,35%)" stroke-width="0.00596"></path>
<path d="M1.517 0.605 Q1.798 0.365 1.393 0.176" stroke="hsl(180.0,100%,35%)" stroke-width="0.00255"></path>
<path d="M1.517 0.605 Q1.291 0.696 1.420 0.826" stroke="hsl(180.0,100%,35%)" stroke-width="0.00213"></path>
<path d="M1.517 0.605 Q1.483 0.466 1.205 0.452" stroke="hsl(180.0,100%,35%)" stroke-width="0.00043"></path>
<path d="M1.517 0.605 Q0.964 0.672 0.975 0.957" stroke="hsl(180.0,100%,35%)" stroke-width="0.00128"></path>
<path d="M1.517 0.605 Q1.356 0.825 1.751 0.952" stroke="hsl(180.0,100%,35%)" stroke-width="0.00085"></path>
<path d="M1.517 0.605 Q1.414 0.733 1.642 0.812" stroke="hsl(180.0,100%,35%)" stroke-width="0.00085"></path>
<path d="M1.517 0.605 Q1.386 0.567 1.284 0.622" stroke="hsl(180.0,100%,35%)" stroke-width="0.00085"></path>
<path d="M1.517 0.605 Q1.153 0.290 0.460 0.399" stroke="hsl(180.0,100%,35%)" stroke-width="0.00043"></path>
<path d="M1.517 0.605 Q1.603 0.443 1.306 0.365" stroke="hsl(180.0,100%,35%)" stroke-width="0.00128"></path>
<path d="M1.665 0.146 Q0.859 -0.113 0.177 0.224" stroke="hsl(0.0,100%,35%)" stroke-width="0.00085"></path>
<path d="M1.665 0.146 Q1.310 0.184 1.306 0.365" stroke="hsl(0.0,100%,35%)" stroke-width="0.00298"></path>
<path d="M1.665 0.146 Q1.268 0.067 1.027 0.243" stroke="hsl(0.0,100%,35%)" stroke-width="0.00128"></path>
<path d="M1.665 0.146 Q1.525 0.282 1.760 0.380" stroke="hsl(0.0,100%,35%)" stroke-width="0.00043"></path>
<path d="M1.665 0.146 Q1.276 0.209 1.314 0.413" stroke="hsl(0.0,100%,35%)" stroke-width="0.00128"></path>
<path d="M1.665 0.146 Q1.506 0.106 1.393 0.176" stroke="hsl(0.0,100%,35%)" stroke-width="0.00553"></path>
<path d="M1.665 0.146 Q1.224 0.346 1.517 0.605" stroke="hsl(0.0,100%,35%)" stroke-width="0.00170"></path>
<path d="M1.665 0.146 Q0.746 -0.102 0.060 0.293" stroke="hsl(0.0,100%,35%)" stroke-width="0.00043"></path>
<path d="M0.177 0.224 Q0.064 0.235 0.060 0.293" stroke="hsl(180.0,100%,35%)" stroke-width="0.05577"></path>
<path d="M0.177 0.224 Q0.344 0.181 0.296 0.090" stroke="hsl(180.0,100%,35%)" stroke-width="0.00596"></path>
<path d="M0.177 0.224 Q0.398 0.397 0.783 0.327" stroke="hsl(180.0,100%,35%)" stroke-width="0.00553"></path>
<path d="M0.177 0.224 Q0.984 0.483 1.665 0.146" stroke="hsl(180.0,100%,35%)" stroke-width="0.00383"></path>
<path d="M0.177 0.224 Q0.598 0.795 1.805 0.715" stroke="hsl(180.0,100%,35%)" stroke-width="0.00213"></path>
<path d="M0.177 0.224 Q0.629 0.520 1.306 0.365" stroke="hsl(180.0,100%,35%)" stroke-width="0.01064"></path>
<path d="M0.177 0.224 Q0.233 0.875 1.517 0.991" stroke="hsl(180.0,100%,35%)" stroke-width="0.00128"></path>
<path d="M0.177 0.224 Q0.844 0.619 1.760 0.380" stroke="hsl(180.0,100%,35%)" stroke-width="0.00553"></path>
<path d="M0.177 0.224 Q0.824 0.443 1.393 0.176" stroke="hsl(180.0,100%,35%)" stroke-width="0.00298"></path>
<path d="M0.177 0.224 Q0.594 0.546 1.314 0.413" stroke="hsl(180.0,100%,35%)" stroke-width="0.00383"></path>
<path d="M0.177 0.224 Q0.586 0.404 1.027 0.243" stroke="hsl(180.0,100%,35%)" stroke-width="0.00596"></path>
<path d="M0.177 0.224 Q0.381 0.903 1.751 0.952" stroke="hsl(180.0,100%,35%)" stroke-width="0.00085"></path>
<path d="M0.177 0.224 Q0.342 0.469 0.856 0.442" stroke="hsl(180.0,100%,35%)" stroke-width="0.00170"></path>
<path d="M0.177 0.224 Q-0.133 0.678 0.686 0.929" stroke="hsl(180.0,100%,35%)" stroke-width="0.00043"></path>
<path d="M0.177 0.224 Q0.543 0.682 1.517 0.605" stroke="hsl(180.0,100%,35%)" stroke-width="0.00894"></path>
<path d="M0.177 0.224 Q0.372 0.549 1.048 0.525" stroke="hsl(180.0,100%,35%)" stroke-width="0.00043"></path>
<path d="M0.177 0.224 Q0.117 0.398 0.443 0.466" stroke="hsl(180.0,100%,35%)" stroke-width="0.00043"></path>
<path d="M0.177 0.224 Q0.509 0.544 1.205 0.452" stroke="hsl(180.0,100%,35%)" stroke-width="0.00043"></path>
<path d="M0.177 0.224 Q0.179 0.368 0.460 0.399" stroke="hsl(180.0,100%,35%)" stroke-width="0.00043"></path>
<path d="M1.306 0.365 Q1.521 0.463 1.760 0.380" stroke="hsl(0.0,100%,35%)" stroke-width="0.00085"></path>
<path d="M1.306 0.365 Q1.501 0.288 1.393 0.176" stroke="hsl(0.0,100%,35%)" stroke-width="0.00426"></path>
<path d="M1.306 0.365 Q1.075 0.241 0.783 0.327" stroke="hsl(0.0,100%,35%)" stroke-width="0.01660"></path>
<path d="M1.306 0.365 Q1.661 0.327 1.665 0.146" stroke="hsl(0.0,100%,35%)" stroke-width="0.00213"></path>
<path d="M1.306 0.365 Q0.741 0.080 0.060 0.293" stroke="hsl(0.0,100%,35%)" stroke-width="0.01192"></path>
<path d="M1.306 0.365 Q0.854 0.069 0.177 0.224" stroke="hsl(0.0,100%,35%)" stroke-width="0.00468"></path>
<path d="M1.306 0.365 Q1.271 0.391 1.314 0.413" stroke="hsl(0.0,100%,35%)" stroke-width="0.01107"></path>
<path d="M1.306 0.365 Q1.264 0.248 1.027 0.243" stroke="hsl(0.0,100%,35%)" stroke-width="0.00298"></path>
<path d="M1.306 0.365 Q1.275 0.640 1.805 0.715" stroke="hsl(0.0,100%,35%)" stroke-width="0.00043"></path>
<path d="M1.306 0.365 Q1.220 0.527 1.517 0.605" stroke="hsl(0.0,100%,35%)" stroke-width="0.00043"></path>
<path d="M1.027 0.243 Q1.284 0.458 1.760 0.380" stroke="hsl(0.0,100%,35%)" stroke-width="0.00724"></path>
<path d="M1.027 0.243 Q0.617 0.064 0.177 0.224" stroke="hsl(0.0,100%,35%)" stroke-width="0.00043"></path>
<path d="M1.027 0.243 Q0.983 0.522 1.517 0.605" stroke="hsl(0.0,100%,35%)" stroke-width="0.00128"></path>
<path d="M1.027 0.243 Q0.838 0.236 0.783 0.327" stroke="hsl(0.0,100%,35%)" stroke-width="0.00128"></path>
<path d="M1.027 0.243 Q1.264 0.283 1.393 0.176" stroke="hsl(0.0,100%,35%)" stroke-width="0.00128"></path>
<path d="M1.027 0.243 Q0.504 0.075 0.060 0.293" stroke="hsl(0.0,100%,35%)" stroke-width="0.00043"></path>
<path d="M1.027 0.243 Q1.034 0.386 1.314 0.413" stroke="hsl(0.0,100%,35%)" stroke-width="0.00043"></path>
<path d="M1.027 0.243 Q0.782 0.309 0.856 0.442" stroke="hsl(0.0,100%,35%)" stroke-width="0.00043"></path>
<path d="M1.027 0.243 Q1.069 0.360 1.306 0.365" stroke="hsl(0.0,100%,35%)" stroke-width="0.00043"></path>
<path d="M1.314 0.413 Q1.349 0.388 1.306 0.365" stroke="hsl(0.0,100%,35%)" stroke-width="0.00468"></path>
<path d="M1.314 0.413 Q1.564 0.486 1.760 0.380" stroke="hsl(0.0,100%,35%)" stroke-width="0.00128"></path>
<path d="M1.314 0.413 Q0.784 0.102 0.060 0.293" stroke="hsl(0.0,100%,35%)" stroke-width="0.00085"></path>
<path d="M1.314 0.413 Q0.897 0.091 0.177 0.224" stroke="hsl(0.0,100%,35%)" stroke-width="0.00043"></path>
<path d="M1.314 0.413 Q1.544 0.310 1.393 0.176" stroke="hsl(0.0,100%,35%)" stroke-width="0.00043"></path>
<path d="M1.314 0.413 Q1.118 0.264 0.783 0.327" stroke="hsl(0.0,100%,35%)" stroke-width="0.00170"></path>
<path d="M1.393 0.176 Q1.198 0.253 1.306 0.365" stroke="hsl(0.0,100%,35%)" stroke-width="0.01916"></path>
<path d="M1.393 0.176 Q1.553 0.215 1.665 0.146" stroke="hsl(0.0,100%,35%)" stroke-width="0.01022"></path>
<path d="M1.393 0.176 Q1.413 0.351 1.760 0.380" stroke="hsl(0.0,100%,35%)" stroke-width="0.00341"></path>
<path d="M1.393 0.176 Q0.633 -0.032 0.060 0.293" stroke="hsl(0.0,100%,35%)" stroke-width="0.00426"></path>
<path d="M1.393 0.176 Q0.886 0.506 1.420 0.826" stroke="hsl(0.0,100%,35%)" stroke-width="0.00043"></path>
<path d="M1.393 0.176 Q1.168 0.528 1.805 0.715" stroke="hsl(0.0,100%,35%)" stroke-width="0.00170"></path>
<path d="M1.393 0.176 Q0.746 -0.043 0.177 0.224" stroke="hsl(0.0,100%,35%)" stroke-width="0.00298"></path>
<path d="M1.393 0.176 Q0.913 -0.086 0.296 0.090" stroke="hsl(0.0,100%,35%)" stroke-width="0.00170"></path>
<path d="M1.393 0.176 Q0.967 0.129 0.783 0.327" stroke="hsl(0.0,100%,35%)" stroke-width="0.00426"></path>
<path d="M1.393 0.176 Q1.164 0.279 1.314 0.413" stroke="hsl(0.0,100%,35%)" stroke-width="0.00468"></path>
<path d="M1.393 0.176 Q0.941 0.281 1.048 0.525" stroke="hsl(0.0,100%,35%)" stroke-width="0.00043"></path>
<path d="M1.393 0.176 Q1.156 0.136 1.027 0.243" stroke="hsl(0.0,100%,35%)" stroke-width="0.00383"></path>
<path d="M1.393 0.176 Q1.112 0.415 1.517 0.605" stroke="hsl(0.0,100%,35%)" stroke-width="0.00170"></path>
<path d="M0.975 0.957 Q0.853 0.885 0.686 0.929" stroke="hsl(180.0,100%,35%)" stroke-width="0.00128"></path>
<path d="M0.975 0.957 Q1.312 0.924 1.321 0.752" stroke="hsl(180.0,100%,35%)" stroke-width="0.00043"></path>
<path d="M0.975 0.957 Q1.809 0.650 1.393 0.176" stroke="hsl(180.0,100%,35%)" stroke-width="0.00043"></path>
<path d="M0.975 0.957 Q1.528 0.889 1.517 0.605" stroke="hsl(180.0,100%,35%)" stroke-width="0.00085"></path>
<path d="M1.321 0.752 Q1.537 0.717 1.517 0.605" stroke="hsl(180.0,100%,35%)" stroke-width="0.02256"></path>
<path d="M1.321 0.752 Q1.171 0.259 0.177 0.224" stroke="hsl(180.0,100%,35%)" stroke-width="0.00170"></path>
<path d="M1.321 0.752 Q0.984 0.785 0.975 0.957" stroke="hsl(180.0,100%,35%)" stroke-width="0.00043"></path>
<path d="M1.321 0.752 Q1.058 0.270 0.060 0.293" stroke="hsl(180.0,100%,35%)" stroke-width="0.00085"></path>
<path d="M1.321 0.752 Q1.592 0.830 1.805 0.715" stroke="hsl(180.0,100%,35%)" stroke-width="0.00043"></path>
<path d="M1.321 0.752 Q1.433 0.846 1.642 0.812" stroke="hsl(180.0,100%,35%)" stroke-width="0.00043"></path>
<path d="M0.296 0.090 Q0.016 0.144 0.060 0.293" stroke="hsl(180.0,100%,35%)" stroke-width="0.01107"></path>
<path d="M0.296 0.090 Q0.129 0.133 0.177 0.224" stroke="hsl(180.0,100%,35%)" stroke-width="0.00341"></path>
<path d="M0.296 0.090 Q0.776 0.352 1.393 0.176" stroke="hsl(180.0,100%,35%)" stroke-width="0.00213"></path>
<path d="M0.296 0.090 Q0.495 0.591 1.517 0.605" stroke="hsl(180.0,100%,35%)" stroke-width="0.00085"></path>
<path d="M0.296 0.090 Q0.551 0.705 1.805 0.715" stroke="hsl(180.0,100%,35%)" stroke-width="0.00043"></path>
<path d="M0.296 0.090 Q0.350 0.306 0.783 0.327" stroke="hsl(180.0,100%,35%)" stroke-width="0.00043"></path>
<path d="M1.517 0.991 Q2.059 0.818 1.842 0.516" stroke="hsl(180.0,100%,35%)" stroke-width="0.00043"></path>
<path d="M1.517 0.991 Q1.881 0.911 1.805 0.715" stroke="hsl(180.0,100%,35%)" stroke-width="0.00213"></path>
<path d="M1.517 0.991 Q1.826 0.798 1.517 0.605" stroke="hsl(180.0,100%,35%)" stroke-width="0.00341"></path>
<path d="M1.517 0.991 Q1.460 0.340 0.177 0.224" stroke="hsl(180.0,100%,35%)" stroke-width="0.00043"></path>
<path d="M1.517 0.991 Q1.664 1.018 1.751 0.952" stroke="hsl(180.0,100%,35%)" stroke-width="0.00255"></path>
<path d="M1.517 0.991 Q1.347 0.351 0.060 0.293" stroke="hsl(180.0,100%,35%)" stroke-width="0.00128"></path>
<path d="M1.517 0.991 Q1.681 0.512 0.783 0.327" stroke="hsl(180.0,100%,35%)" stroke-width="0.00085"></path>
<path d="M1.517 0.991 Q1.775 0.992 1.835 0.866" stroke="hsl(180.0,100%,35%)" stroke-width="0.00043"></path>
<path d="M0.783 0.327 Q1.014 0.450 1.306 0.365" stroke="hsl(0.0,100%,35%)" stroke-width="0.00639"></path>
<path d="M0.783 0.327 Q1.229 0.549 1.760 0.380" stroke="hsl(0.0,100%,35%)" stroke-width="0.00383"></path>
<path d="M0.783 0.327 Q0.972 0.334 1.027 0.243" stroke="hsl(0.0,100%,35%)" stroke-width="0.01618"></path>
<path d="M0.783 0.327 Q0.928 0.612 1.517 0.605" stroke="hsl(0.0,100%,35%)" stroke-width="0.00085"></path>
<path d="M0.783 0.327 Q0.449 0.165 0.060 0.293" stroke="hsl(0.0,100%,35%)" stroke-width="0.00085"></path>
<path d="M0.783 0.327 Q1.209 0.373 1.393 0.176" stroke="hsl(0.0,100%,35%)" stroke-width="0.00426"></path>
<path d="M0.783 0.327 Q0.562 0.154 0.177 0.224" stroke="hsl(0.0,100%,35%)" stroke-width="0.00341"></path>
<path d="M0.783 0.327 Q0.619 0.805 1.517 0.991" stroke="hsl(0.0,100%,35%)" stroke-width="0.00085"></path>
<path d="M1.646 0.228 Q1.581 0.327 1.760 0.380" stroke="hsl(0.0,100%,35%)" stroke-width="0.00639"></path>
<path d="M1.646 0.228 Q1.135 0.105 0.783 0.327" stroke="hsl(0.0,100%,35%)" stroke-width="0.00128"></path>
<path d="M1.646 0.228 Q1.331 0.254 1.314 0.413" stroke="hsl(0.0,100%,35%)" stroke-width="0.00043"></path>
<path d="M1.646 0.228 Q1.561 0.151 1.393 0.176" stroke="hsl(0.0,100%,35%)" stroke-width="0.00128"></path>
<path d="M1.420 0.826 Q1.701 0.848 1.805 0.715" stroke="hsl(180.0,100%,35%)" stroke-width="0.00511"></path>
<path d="M1.420 0.826 Q1.646 0.735 1.517 0.605" stroke="hsl(180.0,100%,35%)" stroke-width="0.00043"></path>
<path d="M1.420 0.826 Q1.167 0.288 0.060 0.293" stroke="hsl(180.0,100%,35%)" stroke-width="0.00043"></path>
<path d="M1.420 0.826 Q1.337 0.928 1.517 0.991" stroke="hsl(180.0,100%,35%)" stroke-width="0.00043"></path>
<path d="M1.420 0.826 Q1.543 0.863 1.642 0.812" stroke="hsl(180.0,100%,35%)" stroke-width="0.00043"></path>
<path d="M1.642 0.812 Q1.801 0.796 1.805 0.715" stroke="hsl(180.0,100%,35%)" stroke-width="0.01235"></path>
<path d="M1.642 0.812 Q1.519 0.775 1.420 0.826" stroke="hsl(180.0,100%,35%)" stroke-width="0.00085"></path>
<path d="M1.642 0.812 Q1.745 0.683 1.517 0.605" stroke="hsl(180.0,100%,35%)" stroke-width="0.00255"></path>
<path d="M1.642 0.812 Q1.266 0.236 0.060 0.293" stroke="hsl(180.0,100%,35%)" stroke-width="0.00170"></path>
<path d="M1.642 0.812 Q2.046 0.620 1.760 0.380" stroke="hsl(180.0,100%,35%)" stroke-width="0.00043"></path>
<path d="M1.642 0.812 Q1.574 0.550 1.048 0.525" stroke="hsl(180.0,100%,35%)" stroke-width="0.00043"></path>
<path d="M0.856 0.442 Q1.358 0.592 1.760 0.380" stroke="hsl(0.0,100%,35%)" stroke-width="0.00128"></path>
<path d="M0.856 0.442 Q1.057 0.656 1.517 0.605" stroke="hsl(0.0,100%,35%)" stroke-width="0.00043"></path>
<path d="M0.856 0.442 Q0.691 0.197 0.177 0.224" stroke="hsl(0.0,100%,35%)" stroke-width="0.00128"></path>
<path d="M0.856 0.442 Q0.886 0.522 1.048 0.525" stroke="hsl(0.0,100%,35%)" stroke-width="0.00426"></path>
<path d="M0.856 0.442 Q0.912 0.370 0.783 0.327" stroke="hsl(0.0,100%,35%)" stroke-width="0.00170"></path>
<path d="M0.856 0.442 Q1.101 0.377 1.027 0.243" stroke="hsl(0.0,100%,35%)" stroke-width="0.00085"></path>
<path d="M1.842 0.516 Q1.055 0.563 0.975 0.957" stroke="hsl(180.0,100%,35%)" stroke-width="0.00085"></path>
<path d="M1.842 0.516 Q1.762 0.441 1.598 0.463" stroke="hsl(180.0,100%,35%)" stroke-width="0.00383"></path>
<path d="M1.842 0.516 Q1.608 0.495 1.517 0.605" stroke="hsl(180.0,100%,35%)" stroke-width="0.00043"></path>
<path d="M1.881 0.388 Q1.827 0.360 1.760 0.380" stroke="hsl(0.0,100%,35%)" stroke-width="0.00128"></path>
<path d="M1.881 0.388 Q1.578 0.288 1.314 0.413" stroke="hsl(0.0,100%,35%)" stroke-width="0.00043"></path>
<path d="M1.881 0.388 Q1.612 0.262 1.306 0.365" stroke="hsl(0.0,100%,35%)" stroke-width="0.00043"></path>
<path d="M0.137 0.381 Q0.648 0.768 1.517 0.605" stroke="hsl(0.0,100%,35%)" stroke-width="0.00043"></path>
<path d="M0.137 0.381 Q0.169 0.321 0.060 0.293" stroke="hsl(0.0,100%,35%)" stroke-width="0.00043"></path>
<path d="M0.137 0.381 Q0.477 0.635 1.048 0.525" stroke="hsl(0.0,100%,35%)" stroke-width="0.00043"></path>
<path d="M0.628 0.132 Q0.216 0.099 0.060 0.293" stroke="hsl(180.0,100%,35%)" stroke-width="0.00128"></path>
<path d="M0.628 0.132 Q0.386 0.739 1.517 0.991" stroke="hsl(180.0,100%,35%)" stroke-width="0.00043"></path>
<path d="M0.628 0.132 Q0.750 0.659 1.805 0.715" stroke="hsl(180.0,100%,35%)" stroke-width="0.00085"></path>
<path d="M1.079 0.413 Q0.666 0.149 0.060 0.293" stroke="hsl(0.0,100%,35%)" stroke-width="0.00043"></path>
<path d="M1.079 0.413 Q1.230 0.434 1.306 0.365" stroke="hsl(0.0,100%,35%)" stroke-width="0.00085"></path>
<path d="M1.079 0.413 Q1.445 0.533 1.760 0.380" stroke="hsl(0.0,100%,35%)" stroke-width="0.00043"></path>
<path d="M1.735 0.921 Q1.570 0.912 1.517 0.991" stroke="hsl(180.0,100%,35%)" stroke-width="0.00426"></path>
<path d="M1.735 0.921 Q1.935 0.832 1.805 0.715" stroke="hsl(180.0,100%,35%)" stroke-width="0.00255"></path>
<path d="M1.735 0.921 Q1.400 0.272 0.060 0.293" stroke="hsl(180.0,100%,35%)" stroke-width="0.00298"></path>
<path d="M1.735 0.921 Q1.735 0.434 0.783 0.327" stroke="hsl(180.0,100%,35%)" stroke-width="0.00043"></path>
<path d="M0.636 0.548 Q0.860 0.619 1.048 0.525" stroke="hsl(0.0,100%,35%)" stroke-width="0.00085"></path>
<path d="M0.636 0.548 Q0.552 0.305 0.060 0.293" stroke="hsl(0.0,100%,35%)" stroke-width="0.00043"></path>
<path d="M0.636 0.548 Q0.833 0.251 0.296 0.090" stroke="hsl(0.0,100%,35%)" stroke-width="0.00043"></path>
<path d="M1.021 0.377 Q1.173 0.428 1.306 0.365" stroke="hsl(0.0,100%,35%)" stroke-width="0.00298"></path>
<path d="M1.021 0.377 Q1.388 0.526 1.760 0.380" stroke="hsl(0.0,100%,35%)" stroke-width="0.00085"></path>
<path d="M1.021 0.377 Q0.942 0.304 0.783 0.327" stroke="hsl(0.0,100%,35%)" stroke-width="0.00043"></path>
<path d="M1.021 0.377 Q0.886 0.377 0.856 0.442" stroke="hsl(0.0,100%,35%)" stroke-width="0.00043"></path>
<path d="M1.021 0.377 Q0.888 0.089 0.296 0.090" stroke="hsl(0.0,100%,35%)" stroke-width="0.00043"></path>
<path d="M1.021 0.377 Q1.143 0.703 1.805 0.715" stroke="hsl(0.0,100%,35%)" stroke-width="0.00043"></path>
</g>
<text x="1.595" y="0.711" font-size="0.008310" fill="hsl(0.0,100%,20%)">aperez</text>
<text x="1.048" y="0.515" font-size="0.019666" fill="hsl(0.0,100%,20%)">scroggo</text>
<text x="0.060" y="0.257" font-size="0.071777" fill="hsl(180.0,100%,20%)">brianosman</text>
<text x="1.805" y="0.689" font-size="0.052163" fill="hsl(180.0,100%,20%)">bungeman</text>
<text x="1.760" y="0.359" font-size="0.043181" fill="hsl(0.0,100%,20%)">egdaniel</text>
<text x="1.517" y="0.569" font-size="0.070906" fill="hsl(180.0,100%,20%)">kjlubick</text>
<text x="1.665" y="0.130" font-size="0.031535" fill="hsl(0.0,100%,20%)">armansito</text>
<text x="0.177" y="0.188" font-size="0.071969" fill="hsl(180.0,100%,20%)">johnstiles</text>
<text x="1.306" y="0.335" font-size="0.061068" fill="hsl(0.0,100%,20%)">michaelludwig</text>
<text x="1.027" y="0.222" font-size="0.043341" fill="hsl(0.0,100%,20%)">nicolettep</text>
<text x="1.314" y="0.397" font-size="0.032399" fill="hsl(0.0,100%,20%)">jamesgk</text>
<text x="1.393" y="0.149" font-size="0.053082" fill="hsl(0.0,100%,20%)">jvanverth</text>
<text x="0.975" y="0.950" font-size="0.013906" fill="hsl(180.0,100%,20%)">borenet</text>
<text x="0.686" y="0.925" font-size="0.007433" fill="hsl(180.0,100%,20%)">rmistry</text>
<text x="1.321" y="0.734" font-size="0.034864" fill="hsl(180.0,100%,20%)">lovisolo</text>
<text x="0.296" y="0.074" font-size="0.032186" fill="hsl(180.0,100%,20%)">herb</text>
<text x="1.517" y="0.976" font-size="0.029499" fill="hsl(180.0,100%,20%)">fmalita</text>
<text x="0.783" y="0.302" font-size="0.050275" fill="hsl(0.0,100%,20%)">robertphillips</text>
<text x="1.646" y="0.219" font-size="0.017432" fill="hsl(0.0,100%,20%)">briansalomon</text>
<text x="1.420" y="0.817" font-size="0.019311" fill="hsl(180.0,100%,20%)">jlavrova</text>
<text x="1.642" y="0.799" font-size="0.026015" fill="hsl(180.0,100%,20%)">drott</text>
<text x="0.884" y="0.672" font-size="0.005256" fill="hsl(0.0,100%,20%)">jreck</text>
<text x="0.856" y="0.431" font-size="0.021987" fill="hsl(0.0,100%,20%)">nscobie</text>
<text x="1.842" y="0.509" font-size="0.013400" fill="hsl(180.0,100%,20%)">sharaks</text>
<text x="1.751" y="0.946" font-size="0.011753" fill="hsl(180.0,100%,20%)">jmbetancourt</text>
<text x="1.835" y="0.864" font-size="0.003716" fill="hsl(180.0,100%,20%)">bwils</text>
<text x="1.881" y="0.384" font-size="0.008310" fill="hsl(0.0,100%,20%)">hitawala</text>
<text x="0.137" y="0.377" font-size="0.006437" fill="hsl(0.0,100%,20%)">jgaillard</text>
<text x="0.443" y="0.464" font-size="0.003716" fill="hsl(180.0,100%,20%)">djsollen</text>
<text x="1.205" y="0.450" font-size="0.005256" fill="hsl(180.0,100%,20%)">jcgregorio</text>
<text x="0.460" y="0.396" font-size="0.005256" fill="hsl(180.0,100%,20%)">cmumford</text>
<text x="1.284" y="0.620" font-size="0.005256" fill="hsl(180.0,100%,20%)">tdenniston</text>
<text x="0.628" y="0.128" font-size="0.009103" fill="hsl(180.0,100%,20%)">kschmi</text>
<text x="1.079" y="0.409" font-size="0.007433" fill="hsl(0.0,100%,20%)">lokokung</text>
<text x="1.735" y="0.912" font-size="0.018207" fill="hsl(180.0,100%,20%)">mike</text>
<text x="0.636" y="0.545" font-size="0.007433" fill="hsl(0.0,100%,20%)">nigeltao</text>
<text x="1.021" y="0.370" font-size="0.013400" fill="hsl(0.0,100%,20%)">penghuang</text>
<text x="1.598" y="0.458" font-size="0.011149" fill="hsl(180.0,100%,20%)">hcm</text>
</svg>
