<svg width="4000" height="2000" viewBox="-0.025 -0.025 2.05 1.05" xmlns="http://www.w3.org/2000/svg">
  <style>
    path {
      fill: none;
      stroke-linecap: round;
      stroke-opacity: 0.4;
    }

    text {
      text-anchor: middle;
      alignment-baseline: hanging;
    }
  </style>
  <g opacity="0.4">
<path d="M1.203 0.393 Q0.693 0.259 0.319 0.478" stroke="hsl(0.0,100%,35%)" stroke-width="0.00194"></path>
<path d="M1.203 0.393 Q1.181 0.207 0.812 0.177" stroke="hsl(0.0,100%,35%)" stroke-width="0.00272"></path>
<path d="M1.203 0.393 Q1.609 0.424 1.758 0.234" stroke="hsl(0.0,100%,35%)" stroke-width="0.00078"></path>
<path d="M1.203 0.393 Q1.398 0.461 1.573 0.381" stroke="hsl(0.0,100%,35%)" stroke-width="0.00117"></path>
<path d="M1.203 0.393 Q1.137 0.102 0.555 0.070" stroke="hsl(0.0,100%,35%)" stroke-width="0.00117"></path>
<path d="M1.203 0.393 Q1.115 0.333 0.977 0.362" stroke="hsl(0.0,100%,35%)" stroke-width="0.00427"></path>
<path d="M1.203 0.393 Q0.264 0.464 0.195 0.938" stroke="hsl(0.0,100%,35%)" stroke-width="0.00117"></path>
<path d="M1.203 0.393 Q0.740 0.135 0.133 0.304" stroke="hsl(0.0,100%,35%)" stroke-width="0.00039"></path>
<path d="M0.319 0.478 Q0.366 0.354 0.133 0.304" stroke="hsl(120.0,100%,35%)" stroke-width="0.05865"></path>
<path d="M0.319 0.478 Q0.295 0.398 0.132 0.392" stroke="hsl(120.0,100%,35%)" stroke-width="0.00505"></path>
<path d="M0.319 0.478 Q0.885 0.357 0.772 0.054" stroke="hsl(120.0,100%,35%)" stroke-width="0.00466"></path>
<path d="M0.319 0.478 Q0.829 0.613 1.203 0.393" stroke="hsl(120.0,100%,35%)" stroke-width="0.01282"></path>
<path d="M0.319 0.478 Q0.193 0.560 0.325 0.640" stroke="hsl(120.0,100%,35%)" stroke-width="0.00194"></path>
<path d="M0.319 0.478 Q0.807 0.426 0.812 0.177" stroke="hsl(120.0,100%,35%)" stroke-width="0.01165"></path>
<path d="M0.319 0.478 Q0.240 0.753 0.759 0.852" stroke="hsl(120.0,100%,35%)" stroke-width="0.00117"></path>
<path d="M0.319 0.478 Q1.024 0.680 1.573 0.381" stroke="hsl(120.0,100%,35%)" stroke-width="0.01049"></path>
<path d="M0.319 0.478 Q0.741 0.552 0.977 0.362" stroke="hsl(120.0,100%,35%)" stroke-width="0.00466"></path>
<path d="M0.319 0.478 Q0.763 0.321 0.555 0.070" stroke="hsl(120.0,100%,35%)" stroke-width="0.00660"></path>
<path d="M0.319 0.478 Q1.235 0.644 1.758 0.234" stroke="hsl(120.0,100%,35%)" stroke-width="0.00932"></path>
<path d="M0.319 0.478 Q0.213 0.804 0.825 0.927" stroke="hsl(120.0,100%,35%)" stroke-width="0.00078"></path>
<path d="M0.319 0.478 Q0.503 0.480 0.545 0.390" stroke="hsl(120.0,100%,35%)" stroke-width="0.00155"></path>
<path d="M0.319 0.478 Q0.648 0.558 0.875 0.415" stroke="hsl(120.0,100%,35%)" stroke-width="0.00039"></path>
<path d="M0.319 0.478 Q-0.110 0.683 0.195 0.938" stroke="hsl(120.0,100%,35%)" stroke-width="0.01049"></path>
<path d="M0.319 0.478 Q0.414 0.660 0.789 0.653" stroke="hsl(120.0,100%,35%)" stroke-width="0.00039"></path>
<path d="M0.319 0.478 Q0.556 0.748 1.134 0.693" stroke="hsl(120.0,100%,35%)" stroke-width="0.00039"></path>
<path d="M0.319 0.478 Q0.595 0.375 0.454 0.218" stroke="hsl(120.0,100%,35%)" stroke-width="0.00039"></path>
<path d="M0.319 0.478 Q-0.084 0.753 0.362 1.010" stroke="hsl(120.0,100%,35%)" stroke-width="0.00194"></path>
<path d="M0.319 0.478 Q0.593 0.462 0.621 0.324" stroke="hsl(120.0,100%,35%)" stroke-width="0.00039"></path>
<path d="M0.812 0.177 Q1.029 0.431 1.573 0.381" stroke="hsl(0.0,100%,35%)" stroke-width="0.00272"></path>
<path d="M0.812 0.177 Q0.746 0.303 0.977 0.362" stroke="hsl(0.0,100%,35%)" stroke-width="0.00388"></path>
<path d="M0.812 0.177 Q0.890 0.108 0.772 0.054" stroke="hsl(0.0,100%,35%)" stroke-width="0.02098"></path>
<path d="M0.812 0.177 Q0.834 0.363 1.203 0.393" stroke="hsl(0.0,100%,35%)" stroke-width="0.00194"></path>
<path d="M0.812 0.177 Q0.371 0.105 0.133 0.304" stroke="hsl(0.0,100%,35%)" stroke-width="0.01398"></path>
<path d="M0.812 0.177 Q0.324 0.229 0.319 0.478" stroke="hsl(0.0,100%,35%)" stroke-width="0.00388"></path>
<path d="M0.812 0.177 Q0.768 0.072 0.555 0.070" stroke="hsl(0.0,100%,35%)" stroke-width="0.00621"></path>
<path d="M0.812 0.177 Q1.240 0.394 1.758 0.234" stroke="hsl(0.0,100%,35%)" stroke-width="0.00350"></path>
<path d="M0.812 0.177 Q0.300 0.148 0.132 0.392" stroke="hsl(0.0,100%,35%)" stroke-width="0.00233"></path>
<path d="M0.812 0.177 Q-0.105 0.434 0.195 0.938" stroke="hsl(0.0,100%,35%)" stroke-width="0.00039"></path>
<path d="M0.812 0.177 Q0.198 0.311 0.325 0.640" stroke="hsl(0.0,100%,35%)" stroke-width="0.00039"></path>
<path d="M1.758 0.234 Q1.547 0.270 1.573 0.381" stroke="hsl(0.0,100%,35%)" stroke-width="0.00816"></path>
<path d="M1.758 0.234 Q0.843 0.068 0.319 0.478" stroke="hsl(0.0,100%,35%)" stroke-width="0.00039"></path>
<path d="M1.758 0.234 Q0.413 0.273 0.195 0.938" stroke="hsl(0.0,100%,35%)" stroke-width="0.00117"></path>
<path d="M1.758 0.234 Q1.409 -0.053 0.772 0.054" stroke="hsl(0.0,100%,35%)" stroke-width="0.00117"></path>
<path d="M1.758 0.234 Q1.264 0.142 0.977 0.362" stroke="hsl(0.0,100%,35%)" stroke-width="0.00155"></path>
<path d="M1.758 0.234 Q0.889 -0.056 0.133 0.304" stroke="hsl(0.0,100%,35%)" stroke-width="0.00039"></path>
<path d="M1.758 0.234 Q1.287 -0.089 0.555 0.070" stroke="hsl(0.0,100%,35%)" stroke-width="0.00039"></path>
<path d="M1.758 0.234 Q1.026 0.069 0.545 0.390" stroke="hsl(0.0,100%,35%)" stroke-width="0.00039"></path>
<path d="M1.758 0.234 Q1.330 0.016 0.812 0.177" stroke="hsl(0.0,100%,35%)" stroke-width="0.00039"></path>
<path d="M1.573 0.381 Q0.868 0.179 0.319 0.478" stroke="hsl(0.0,100%,35%)" stroke-width="0.00117"></path>
<path d="M1.573 0.381 Q1.783 0.344 1.758 0.234" stroke="hsl(0.0,100%,35%)" stroke-width="0.00544"></path>
<path d="M1.573 0.381 Q0.915 0.054 0.133 0.304" stroke="hsl(0.0,100%,35%)" stroke-width="0.00117"></path>
<path d="M1.573 0.381 Q1.355 0.127 0.812 0.177" stroke="hsl(0.0,100%,35%)" stroke-width="0.00388"></path>
<path d="M1.573 0.381 Q1.312 0.022 0.555 0.070" stroke="hsl(0.0,100%,35%)" stroke-width="0.00117"></path>
<path d="M1.573 0.381 Q1.051 0.180 0.545 0.390" stroke="hsl(0.0,100%,35%)" stroke-width="0.00039"></path>
<path d="M1.573 0.381 Q1.290 0.253 0.977 0.362" stroke="hsl(0.0,100%,35%)" stroke-width="0.00117"></path>
<path d="M1.573 0.381 Q1.434 0.057 0.772 0.054" stroke="hsl(0.0,100%,35%)" stroke-width="0.00388"></path>
<path d="M1.573 0.381 Q0.439 0.384 0.195 0.938" stroke="hsl(0.0,100%,35%)" stroke-width="0.00039"></path>
<path d="M1.573 0.381 Q1.423 0.408 1.443 0.486" stroke="hsl(0.0,100%,35%)" stroke-width="0.00039"></path>
<path d="M0.555 0.070 Q0.598 0.175 0.812 0.177" stroke="hsl(0.0,100%,35%)" stroke-width="0.00621"></path>
<path d="M0.555 0.070 Q0.815 0.429 1.573 0.381" stroke="hsl(0.0,100%,35%)" stroke-width="0.00233"></path>
<path d="M0.555 0.070 Q0.157 0.103 0.133 0.304" stroke="hsl(0.0,100%,35%)" stroke-width="0.00078"></path>
<path d="M0.555 0.070 Q0.111 0.227 0.319 0.478" stroke="hsl(0.0,100%,35%)" stroke-width="0.00117"></path>
<path d="M0.555 0.070 Q0.532 0.301 0.977 0.362" stroke="hsl(0.0,100%,35%)" stroke-width="0.00272"></path>
<path d="M0.555 0.070 Q0.677 0.106 0.772 0.054" stroke="hsl(0.0,100%,35%)" stroke-width="0.00194"></path>
<path d="M0.977 0.362 Q1.043 0.237 0.812 0.177" stroke="hsl(0.0,100%,35%)" stroke-width="0.01321"></path>
<path d="M0.977 0.362 Q1.065 0.423 1.203 0.393" stroke="hsl(0.0,100%,35%)" stroke-width="0.00777"></path>
<path d="M0.977 0.362 Q1.260 0.491 1.573 0.381" stroke="hsl(0.0,100%,35%)" stroke-width="0.00466"></path>
<path d="M0.977 0.362 Q0.602 0.164 0.133 0.304" stroke="hsl(0.0,100%,35%)" stroke-width="0.00699"></path>
<path d="M0.977 0.362 Q0.449 0.462 0.528 0.741" stroke="hsl(0.0,100%,35%)" stroke-width="0.00078"></path>
<path d="M0.977 0.362 Q0.429 0.371 0.325 0.640" stroke="hsl(0.0,100%,35%)" stroke-width="0.00155"></path>
<path d="M0.977 0.362 Q0.555 0.289 0.319 0.478" stroke="hsl(0.0,100%,35%)" stroke-width="0.00233"></path>
<path d="M0.977 0.362 Q0.531 0.208 0.132 0.392" stroke="hsl(0.0,100%,35%)" stroke-width="0.00078"></path>
<path d="M0.977 0.362 Q1.121 0.167 0.772 0.054" stroke="hsl(0.0,100%,35%)" stroke-width="0.00311"></path>
<path d="M0.977 0.362 Q0.999 0.132 0.555 0.070" stroke="hsl(0.0,100%,35%)" stroke-width="0.00311"></path>
<path d="M0.977 0.362 Q0.650 0.470 0.789 0.653" stroke="hsl(0.0,100%,35%)" stroke-width="0.00039"></path>
<path d="M0.977 0.362 Q1.471 0.454 1.758 0.234" stroke="hsl(0.0,100%,35%)" stroke-width="0.00311"></path>
<path d="M0.977 0.362 Q0.126 0.494 0.195 0.938" stroke="hsl(0.0,100%,35%)" stroke-width="0.00155"></path>
<path d="M0.195 0.938 Q0.808 0.734 0.545 0.390" stroke="hsl(120.0,100%,35%)" stroke-width="0.00117"></path>
<path d="M0.195 0.938 Q0.498 0.815 0.325 0.640" stroke="hsl(120.0,100%,35%)" stroke-width="0.02408"></path>
<path d="M0.195 0.938 Q0.545 1.008 0.759 0.852" stroke="hsl(120.0,100%,35%)" stroke-width="0.00311"></path>
<path d="M0.195 0.938 Q0.347 1.014 0.529 0.957" stroke="hsl(120.0,100%,35%)" stroke-width="0.00932"></path>
<path d="M0.195 0.938 Q1.191 0.611 0.772 0.054" stroke="hsl(120.0,100%,35%)" stroke-width="0.00194"></path>
<path d="M0.195 0.938 Q0.719 0.914 0.789 0.653" stroke="hsl(120.0,100%,35%)" stroke-width="0.00117"></path>
<path d="M0.195 0.938 Q0.671 0.608 0.133 0.304" stroke="hsl(120.0,100%,35%)" stroke-width="0.01942"></path>
<path d="M0.195 0.938 Q1.329 0.935 1.573 0.381" stroke="hsl(120.0,100%,35%)" stroke-width="0.00738"></path>
<path d="M0.195 0.938 Q0.600 0.652 0.132 0.392" stroke="hsl(120.0,100%,35%)" stroke-width="0.00117"></path>
<path d="M0.195 0.938 Q1.540 0.898 1.758 0.234" stroke="hsl(120.0,100%,35%)" stroke-width="0.00194"></path>
<path d="M0.195 0.938 Q0.625 0.733 0.319 0.478" stroke="hsl(120.0,100%,35%)" stroke-width="0.00738"></path>
<path d="M0.195 0.938 Q1.046 0.806 0.977 0.362" stroke="hsl(120.0,100%,35%)" stroke-width="0.00194"></path>
<path d="M0.195 0.938 Q0.519 0.906 0.528 0.741" stroke="hsl(120.0,100%,35%)" stroke-width="0.00194"></path>
<path d="M0.195 0.938 Q0.900 0.630 0.454 0.218" stroke="hsl(120.0,100%,35%)" stroke-width="0.00039"></path>
<path d="M0.195 0.938 Q0.899 0.716 0.621 0.324" stroke="hsl(120.0,100%,35%)" stroke-width="0.00039"></path>
<path d="M0.195 0.938 Q0.519 1.058 0.825 0.927" stroke="hsl(120.0,100%,35%)" stroke-width="0.00117"></path>
<path d="M0.195 0.938 Q0.356 0.833 0.186 0.731" stroke="hsl(120.0,100%,35%)" stroke-width="0.00155"></path>
<path d="M0.195 0.938 Q0.388 0.952 0.457 0.861" stroke="hsl(120.0,100%,35%)" stroke-width="0.00078"></path>
<path d="M0.195 0.938 Q0.221 1.007 0.362 1.010" stroke="hsl(120.0,100%,35%)" stroke-width="0.00078"></path>
<path d="M0.195 0.938 Q1.112 0.681 0.812 0.177" stroke="hsl(120.0,100%,35%)" stroke-width="0.00039"></path>
<path d="M0.195 0.938 Q1.135 0.867 1.203 0.393" stroke="hsl(120.0,100%,35%)" stroke-width="0.00039"></path>
<path d="M0.133 0.304 Q-0.343 0.633 0.195 0.938" stroke="hsl(120.0,100%,35%)" stroke-width="0.00350"></path>
<path d="M0.133 0.304 Q0.086 0.428 0.319 0.478" stroke="hsl(120.0,100%,35%)" stroke-width="0.01359"></path>
<path d="M0.133 0.304 Q0.360 0.412 0.621 0.324" stroke="hsl(120.0,100%,35%)" stroke-width="0.00039"></path>
<path d="M0.133 0.304 Q0.574 0.376 0.812 0.177" stroke="hsl(120.0,100%,35%)" stroke-width="0.00466"></path>
<path d="M0.133 0.304 Q-0.040 0.510 0.325 0.640" stroke="hsl(120.0,100%,35%)" stroke-width="0.00155"></path>
<path d="M0.133 0.304 Q0.062 0.348 0.132 0.392" stroke="hsl(120.0,100%,35%)" stroke-width="0.00039"></path>
<path d="M0.133 0.304 Q0.007 0.703 0.759 0.852" stroke="hsl(120.0,100%,35%)" stroke-width="0.00039"></path>
<path d="M0.133 0.304 Q0.652 0.307 0.772 0.054" stroke="hsl(120.0,100%,35%)" stroke-width="0.00155"></path>
<path d="M0.133 0.304 Q1.002 0.594 1.758 0.234" stroke="hsl(120.0,100%,35%)" stroke-width="0.00039"></path>
<path d="M0.133 0.304 Q0.508 0.502 0.977 0.362" stroke="hsl(120.0,100%,35%)" stroke-width="0.00155"></path>
<path d="M0.133 0.304 Q0.642 0.657 1.443 0.486" stroke="hsl(120.0,100%,35%)" stroke-width="0.00039"></path>
<path d="M0.133 0.304 Q0.791 0.630 1.573 0.381" stroke="hsl(120.0,100%,35%)" stroke-width="0.00350"></path>
<path d="M0.621 0.324 Q0.675 0.421 0.875 0.415" stroke="hsl(240.0,100%,35%)" stroke-width="0.00117"></path>
<path d="M0.621 0.324 Q0.069 0.623 0.529 0.957" stroke="hsl(240.0,100%,35%)" stroke-width="0.00039"></path>
<path d="M0.621 0.324 Q0.768 0.415 0.977 0.362" stroke="hsl(240.0,100%,35%)" stroke-width="0.00039"></path>
<path d="M0.621 0.324 Q-0.083 0.546 0.195 0.938" stroke="hsl(240.0,100%,35%)" stroke-width="0.00039"></path>
<path d="M0.875 0.415 Q1.113 0.214 0.772 0.054" stroke="hsl(240.0,100%,35%)" stroke-width="0.00039"></path>
<path d="M0.875 0.415 Q0.117 0.541 0.195 0.938" stroke="hsl(240.0,100%,35%)" stroke-width="0.00039"></path>
<path d="M0.875 0.415 Q0.822 0.233 0.454 0.218" stroke="hsl(240.0,100%,35%)" stroke-width="0.00039"></path>
<path d="M0.529 0.957 Q0.378 0.881 0.195 0.938" stroke="hsl(120.0,100%,35%)" stroke-width="0.01631"></path>
<path d="M0.529 0.957 Q0.807 0.676 0.319 0.478" stroke="hsl(120.0,100%,35%)" stroke-width="0.00233"></path>
<path d="M0.529 0.957 Q1.081 0.659 0.621 0.324" stroke="hsl(120.0,100%,35%)" stroke-width="0.00039"></path>
<path d="M0.529 0.957 Q1.229 0.749 0.977 0.362" stroke="hsl(120.0,100%,35%)" stroke-width="0.00039"></path>
<path d="M0.529 0.957 Q0.404 0.950 0.362 1.010" stroke="hsl(120.0,100%,35%)" stroke-width="0.00039"></path>
<path d="M0.529 0.957 Q0.854 0.551 0.133 0.304" stroke="hsl(120.0,100%,35%)" stroke-width="0.00078"></path>
<path d="M0.325 0.640 Q0.498 0.433 0.133 0.304" stroke="hsl(120.0,100%,35%)" stroke-width="0.01126"></path>
<path d="M0.325 0.640 Q0.427 0.477 0.132 0.392" stroke="hsl(120.0,100%,35%)" stroke-width="0.00117"></path>
<path d="M0.325 0.640 Q0.873 0.632 0.977 0.362" stroke="hsl(120.0,100%,35%)" stroke-width="0.00039"></path>
<path d="M0.325 0.640 Q0.345 0.731 0.528 0.741" stroke="hsl(120.0,100%,35%)" stroke-width="0.00311"></path>
<path d="M0.325 0.640 Q0.183 0.658 0.186 0.731" stroke="hsl(120.0,100%,35%)" stroke-width="0.00039"></path>
<path d="M0.325 0.640 Q0.022 0.763 0.195 0.938" stroke="hsl(120.0,100%,35%)" stroke-width="0.00505"></path>
<path d="M0.325 0.640 Q0.452 0.558 0.319 0.478" stroke="hsl(120.0,100%,35%)" stroke-width="0.00194"></path>
<path d="M0.325 0.640 Q0.546 0.739 0.789 0.653" stroke="hsl(120.0,100%,35%)" stroke-width="0.00039"></path>
<path d="M0.325 0.640 Q1.007 0.787 1.443 0.486" stroke="hsl(120.0,100%,35%)" stroke-width="0.00039"></path>
<path d="M0.325 0.640 Q1.156 0.760 1.573 0.381" stroke="hsl(120.0,100%,35%)" stroke-width="0.00039"></path>
<path d="M0.132 0.392 Q0.203 0.348 0.133 0.304" stroke="hsl(120.0,100%,35%)" stroke-width="0.00932"></path>
<path d="M0.132 0.392 Q0.156 0.473 0.319 0.478" stroke="hsl(120.0,100%,35%)" stroke-width="0.00155"></path>
<path d="M0.132 0.392 Q0.578 0.546 0.977 0.362" stroke="hsl(120.0,100%,35%)" stroke-width="0.00311"></path>
<path d="M0.132 0.392 Q-0.273 0.677 0.195 0.938" stroke="hsl(120.0,100%,35%)" stroke-width="0.00078"></path>
<path d="M0.132 0.392 Q0.030 0.555 0.325 0.640" stroke="hsl(120.0,100%,35%)" stroke-width="0.00039"></path>
<path d="M0.132 0.392 Q0.722 0.351 0.772 0.054" stroke="hsl(120.0,100%,35%)" stroke-width="0.00039"></path>
<path d="M0.759 0.852 Q1.253 1.084 1.814 0.894" stroke="hsl(120.0,100%,35%)" stroke-width="0.00039"></path>
<path d="M0.759 0.852 Q0.712 0.659 0.325 0.640" stroke="hsl(120.0,100%,35%)" stroke-width="0.00194"></path>
<path d="M0.759 0.852 Q0.409 0.782 0.195 0.938" stroke="hsl(120.0,100%,35%)" stroke-width="0.00311"></path>
<path d="M0.759 0.852 Q0.838 0.577 0.319 0.478" stroke="hsl(120.0,100%,35%)" stroke-width="0.00039"></path>
<path d="M0.759 0.852 Q0.732 0.903 0.825 0.927" stroke="hsl(120.0,100%,35%)" stroke-width="0.00350"></path>
<path d="M0.759 0.852 Q0.885 0.453 0.133 0.304" stroke="hsl(120.0,100%,35%)" stroke-width="0.00078"></path>
<path d="M0.759 0.852 Q1.404 0.456 0.772 0.054" stroke="hsl(120.0,100%,35%)" stroke-width="0.00039"></path>
<path d="M0.759 0.852 Q0.951 0.910 1.106 0.830" stroke="hsl(120.0,100%,35%)" stroke-width="0.00039"></path>
<path d="M0.772 0.054 Q0.694 0.123 0.812 0.177" stroke="hsl(0.0,100%,35%)" stroke-width="0.01359"></path>
<path d="M0.772 0.054 Q0.911 0.378 1.573 0.381" stroke="hsl(0.0,100%,35%)" stroke-width="0.00660"></path>
<path d="M0.772 0.054 Q1.122 0.341 1.758 0.234" stroke="hsl(0.0,100%,35%)" stroke-width="0.01476"></path>
<path d="M0.772 0.054 Q-0.223 0.381 0.195 0.938" stroke="hsl(0.0,100%,35%)" stroke-width="0.00078"></path>
<path d="M0.772 0.054 Q0.253 0.051 0.133 0.304" stroke="hsl(0.0,100%,35%)" stroke-width="0.00117"></path>
<path d="M0.772 0.054 Q0.628 0.249 0.977 0.362" stroke="hsl(0.0,100%,35%)" stroke-width="0.00078"></path>
<path d="M1.375 0.462 Q1.538 0.461 1.573 0.381" stroke="hsl(0.0,100%,35%)" stroke-width="0.00466"></path>
<path d="M1.375 0.462 Q1.400 0.137 0.772 0.054" stroke="hsl(0.0,100%,35%)" stroke-width="0.00039"></path>
<path d="M1.375 0.462 Q1.278 0.102 0.555 0.070" stroke="hsl(0.0,100%,35%)" stroke-width="0.00039"></path>
<path d="M1.375 0.462 Q0.834 0.259 0.319 0.478" stroke="hsl(0.0,100%,35%)" stroke-width="0.00039"></path>
<path d="M0.528 0.741 Q0.508 0.650 0.325 0.640" stroke="hsl(120.0,100%,35%)" stroke-width="0.00233"></path>
<path d="M0.528 0.741 Q0.205 0.773 0.195 0.938" stroke="hsl(120.0,100%,35%)" stroke-width="0.00078"></path>
<path d="M0.528 0.741 Q0.680 0.444 0.133 0.304" stroke="hsl(120.0,100%,35%)" stroke-width="0.00039"></path>
<path d="M0.186 0.731 Q0.329 0.713 0.325 0.640" stroke="hsl(120.0,100%,35%)" stroke-width="0.00932"></path>
<path d="M0.186 0.731 Q0.349 0.805 0.528 0.741" stroke="hsl(120.0,100%,35%)" stroke-width="0.00039"></path>
<path d="M0.186 0.731 Q0.026 0.836 0.195 0.938" stroke="hsl(120.0,100%,35%)" stroke-width="0.00350"></path>
<path d="M0.186 0.731 Q0.502 0.507 0.133 0.304" stroke="hsl(120.0,100%,35%)" stroke-width="0.00117"></path>
<path d="M0.186 0.731 Q1.160 0.833 1.573 0.381" stroke="hsl(120.0,100%,35%)" stroke-width="0.00039"></path>
<path d="M0.789 0.653 Q0.877 0.473 0.545 0.390" stroke="hsl(0.0,100%,35%)" stroke-width="0.00039"></path>
<path d="M0.789 0.653 Q0.568 0.554 0.325 0.640" stroke="hsl(0.0,100%,35%)" stroke-width="0.00039"></path>
<path d="M0.789 0.653 Q0.694 0.472 0.319 0.478" stroke="hsl(0.0,100%,35%)" stroke-width="0.00078"></path>
<path d="M0.789 0.653 Q1.181 0.420 0.812 0.177" stroke="hsl(0.0,100%,35%)" stroke-width="0.00078"></path>
<path d="M0.789 0.653 Q0.930 0.742 1.134 0.693" stroke="hsl(0.0,100%,35%)" stroke-width="0.00078"></path>
<path d="M0.789 0.653 Q0.264 0.677 0.195 0.938" stroke="hsl(0.0,100%,35%)" stroke-width="0.00039"></path>
<path d="M0.545 0.390 Q1.066 0.591 1.573 0.381" stroke="hsl(0.0,100%,35%)" stroke-width="0.00155"></path>
<path d="M0.545 0.390 Q-0.068 0.594 0.195 0.938" stroke="hsl(0.0,100%,35%)" stroke-width="0.00039"></path>
<path d="M0.545 0.390 Q0.362 0.389 0.319 0.478" stroke="hsl(0.0,100%,35%)" stroke-width="0.00155"></path>
<path d="M0.545 0.390 Q0.456 0.571 0.789 0.653" stroke="hsl(0.0,100%,35%)" stroke-width="0.00155"></path>
<path d="M0.545 0.390 Q0.928 0.268 0.772 0.054" stroke="hsl(0.0,100%,35%)" stroke-width="0.00155"></path>
<path d="M0.545 0.390 Q1.277 0.555 1.758 0.234" stroke="hsl(0.0,100%,35%)" stroke-width="0.00039"></path>
<path d="M1.814 0.894 Q1.673 0.371 0.621 0.324" stroke="hsl(240.0,100%,35%)" stroke-width="0.00078"></path>
<path d="M1.814 0.894 Q1.944 0.823 1.834 0.745" stroke="hsl(240.0,100%,35%)" stroke-width="0.00311"></path>
<path d="M1.814 0.894 Q0.970 0.592 0.195 0.938" stroke="hsl(240.0,100%,35%)" stroke-width="0.00039"></path>
<path d="M1.814 0.894 Q0.996 0.662 0.362 1.010" stroke="hsl(240.0,100%,35%)" stroke-width="0.00078"></path>
<path d="M0.825 0.927 Q0.501 0.806 0.195 0.938" stroke="hsl(120.0,100%,35%)" stroke-width="0.00117"></path>
<path d="M0.825 0.927 Q0.852 0.877 0.759 0.852" stroke="hsl(120.0,100%,35%)" stroke-width="0.00155"></path>
<path d="M0.825 0.927 Q1.418 0.549 0.812 0.177" stroke="hsl(120.0,100%,35%)" stroke-width="0.00039"></path>
<path d="M1.696 0.510 Q1.737 0.421 1.573 0.381" stroke="hsl(0.0,100%,35%)" stroke-width="0.00117"></path>
<path d="M1.696 0.510 Q1.477 0.062 0.555 0.070" stroke="hsl(0.0,100%,35%)" stroke-width="0.00039"></path>
<path d="M1.696 0.510 Q1.520 0.166 0.812 0.177" stroke="hsl(0.0,100%,35%)" stroke-width="0.00039"></path>
<path d="M0.205 0.171 Q0.062 0.223 0.133 0.304" stroke="hsl(120.0,100%,35%)" stroke-width="0.00078"></path>
<path d="M0.205 0.171 Q-0.063 0.622 0.759 0.852" stroke="hsl(120.0,100%,35%)" stroke-width="0.00039"></path>
<path d="M0.205 0.171 Q-0.110 0.429 0.325 0.640" stroke="hsl(120.0,100%,35%)" stroke-width="0.00039"></path>
<path d="M1.325 0.069 Q0.541 -0.052 0.133 0.304" stroke="hsl(0.0,100%,35%)" stroke-width="0.00039"></path>
<path d="M1.325 0.069 Q0.982 0.020 0.812 0.177" stroke="hsl(0.0,100%,35%)" stroke-width="0.00078"></path>
<path d="M1.325 0.069 Q1.199 0.275 1.573 0.381" stroke="hsl(0.0,100%,35%)" stroke-width="0.00039"></path>
<path d="M0.075 0.669 Q0.270 0.898 0.759 0.852" stroke="hsl(120.0,100%,35%)" stroke-width="0.00272"></path>
<path d="M0.075 0.669 Q0.223 0.705 0.325 0.640" stroke="hsl(120.0,100%,35%)" stroke-width="0.00155"></path>
<path d="M0.075 0.669 Q0.396 0.498 0.133 0.304" stroke="hsl(120.0,100%,35%)" stroke-width="0.00194"></path>
<path d="M0.727 0.514 Q0.646 0.596 0.789 0.653" stroke="hsl(0.0,100%,35%)" stroke-width="0.00078"></path>
<path d="M0.727 0.514 Q0.598 0.290 0.133 0.304" stroke="hsl(0.0,100%,35%)" stroke-width="0.00039"></path>
<path d="M0.727 0.514 Q0.527 0.334 0.132 0.392" stroke="hsl(0.0,100%,35%)" stroke-width="0.00039"></path>
<path d="M1.367 0.618 Q1.442 0.286 0.812 0.177" stroke="hsl(0.0,100%,35%)" stroke-width="0.00117"></path>
<path d="M1.367 0.618 Q1.660 0.540 1.573 0.381" stroke="hsl(0.0,100%,35%)" stroke-width="0.00194"></path>
<path d="M1.367 0.618 Q1.521 0.217 0.772 0.054" stroke="hsl(0.0,100%,35%)" stroke-width="0.00039"></path>
<path d="M0.757 0.377 Q0.944 0.288 0.812 0.177" stroke="hsl(0.0,100%,35%)" stroke-width="0.00117"></path>
<path d="M0.757 0.377 Q1.162 0.542 1.573 0.381" stroke="hsl(0.0,100%,35%)" stroke-width="0.00039"></path>
<path d="M0.757 0.377 Q0.879 0.414 0.977 0.362" stroke="hsl(0.0,100%,35%)" stroke-width="0.00039"></path>
</g>
<text x="1.203" y="0.376" font-size="0.034648" fill="hsl(0.0,100%,20%)">armansito</text>
<text x="0.319" y="0.440" font-size="0.077887" fill="hsl(120.0,100%,20%)">johnstiles</text>
<text x="0.812" y="0.145" font-size="0.063225" fill="hsl(0.0,100%,20%)">michaelludwig</text>
<text x="1.758" y="0.213" font-size="0.041982" fill="hsl(0.0,100%,20%)">nicolettep</text>
<text x="1.573" y="0.356" font-size="0.050287" fill="hsl(0.0,100%,20%)">egdaniel</text>
<text x="0.555" y="0.054" font-size="0.033714" fill="hsl(0.0,100%,20%)">jamesgk</text>
<text x="0.977" y="0.337" font-size="0.050159" fill="hsl(0.0,100%,20%)">jvanverth</text>
<text x="0.195" y="0.904" font-size="0.067806" fill="hsl(120.0,100%,20%)">kjlubick</text>
<text x="0.133" y="0.267" font-size="0.072977" fill="hsl(120.0,100%,20%)">brianosman</text>
<text x="0.621" y="0.318" font-size="0.012380" fill="hsl(240.0,100%,20%)">borenet</text>
<text x="0.875" y="0.411" font-size="0.009455" fill="hsl(240.0,100%,20%)">rmistry</text>
<text x="0.529" y="0.941" font-size="0.031562" fill="hsl(120.0,100%,20%)">lovisolo</text>
<text x="0.325" y="0.616" font-size="0.048079" fill="hsl(120.0,100%,20%)">bungeman</text>
<text x="0.132" y="0.377" font-size="0.029685" fill="hsl(120.0,100%,20%)">herb</text>
<text x="0.759" y="0.839" font-size="0.025770" fill="hsl(120.0,100%,20%)">fmalita</text>
<text x="0.772" y="0.028" font-size="0.051417" fill="hsl(0.0,100%,20%)">robertphillips</text>
<text x="1.443" y="0.483" font-size="0.006190" fill="hsl(120.0,100%,20%)">jreck</text>
<text x="1.375" y="0.455" font-size="0.013841" fill="hsl(0.0,100%,20%)">briansalomon</text>
<text x="0.528" y="0.732" font-size="0.017869" fill="hsl(120.0,100%,20%)">jlavrova</text>
<text x="0.186" y="0.720" font-size="0.023434" fill="hsl(120.0,100%,20%)">drott</text>
<text x="0.789" y="0.645" font-size="0.016377" fill="hsl(0.0,100%,20%)">scroggo</text>
<text x="0.545" y="0.381" font-size="0.018910" fill="hsl(0.0,100%,20%)">nscobie</text>
<text x="1.814" y="0.887" font-size="0.013372" fill="hsl(240.0,100%,20%)">sharaks</text>
<text x="0.825" y="0.919" font-size="0.016762" fill="hsl(120.0,100%,20%)">jmbetancourt</text>
<text x="1.106" y="0.828" font-size="0.003574" fill="hsl(120.0,100%,20%)">bwils</text>
<text x="1.696" y="0.506" font-size="0.007991" fill="hsl(0.0,100%,20%)">hitawala</text>
<text x="1.134" y="0.689" font-size="0.006190" fill="hsl(0.0,100%,20%)">djsollen</text>
<text x="0.454" y="0.215" font-size="0.006190" fill="hsl(120.0,100%,20%)">jcgregorio</text>
<text x="0.362" y="1.004" font-size="0.011301" fill="hsl(120.0,100%,20%)">cmumford</text>
<text x="0.457" y="0.858" font-size="0.005054" fill="hsl(120.0,100%,20%)">tdenniston</text>
<text x="0.205" y="0.167" font-size="0.007147" fill="hsl(120.0,100%,20%)">kschmi</text>
<text x="1.325" y="0.066" font-size="0.007147" fill="hsl(0.0,100%,20%)">lokokung</text>
<text x="0.075" y="0.662" font-size="0.014295" fill="hsl(120.0,100%,20%)">mike</text>
<text x="0.727" y="0.510" font-size="0.007147" fill="hsl(0.0,100%,20%)">nigeltao</text>
<text x="1.367" y="0.613" font-size="0.010721" fill="hsl(0.0,100%,20%)">penghuang</text>
<text x="1.834" y="0.740" font-size="0.010108" fill="hsl(240.0,100%,20%)">hcm</text>
<text x="0.757" y="0.373" font-size="0.007991" fill="hsl(0.0,100%,20%)">sunnyps</text>
</svg>
