<svg width="4000" height="2000" viewBox="-0.025 -0.025 2.05 1.05" xmlns="http://www.w3.org/2000/svg">
  <style>
    path {
      fill: none;
      stroke-linecap: round;
      stroke-opacity: 0.4;
    }

    text {
      text-anchor: middle;
      alignment-baseline: hanging;
    }
  </style>
  <g opacity="0.4">
<path d="M0.264 0.210 Q0.525 0.562 1.269 0.512" stroke="hsl(0.0,100%,35%)" stroke-width="0.00365"></path>
<path d="M0.264 0.210 Q0.754 0.378 1.188 0.176" stroke="hsl(0.0,100%,35%)" stroke-width="0.00365"></path>
<path d="M0.264 0.210 Q0.619 0.259 0.791 0.096" stroke="hsl(0.0,100%,35%)" stroke-width="0.00365"></path>
<path d="M0.264 0.210 Q0.693 0.718 1.779 0.621" stroke="hsl(0.0,100%,35%)" stroke-width="0.00731"></path>
<path d="M1.269 0.512 Q1.008 0.160 0.264 0.210" stroke="hsl(0.0,100%,35%)" stroke-width="0.02192"></path>
<path d="M1.269 0.512 Q1.277 0.636 1.520 0.659" stroke="hsl(0.0,100%,35%)" stroke-width="0.00365"></path>
<path d="M1.269 0.512 Q1.498 0.328 1.188 0.176" stroke="hsl(0.0,100%,35%)" stroke-width="0.00365"></path>
<path d="M1.269 0.512 Q1.496 0.448 1.421 0.323" stroke="hsl(0.0,100%,35%)" stroke-width="0.00365"></path>
<path d="M1.269 0.512 Q1.307 0.404 1.104 0.362" stroke="hsl(0.0,100%,35%)" stroke-width="0.02558"></path>
<path d="M1.269 0.512 Q1.511 0.522 1.583 0.406" stroke="hsl(0.0,100%,35%)" stroke-width="0.00731"></path>
<path d="M1.188 0.176 Q0.699 0.008 0.264 0.210" stroke="hsl(0.0,100%,35%)" stroke-width="0.06211"></path>
<path d="M1.188 0.176 Q0.997 0.252 1.104 0.362" stroke="hsl(0.0,100%,35%)" stroke-width="0.00365"></path>
<path d="M1.188 0.176 Q0.959 0.360 1.269 0.512" stroke="hsl(0.0,100%,35%)" stroke-width="0.01827"></path>
<path d="M1.188 0.176 Q1.127 0.516 1.779 0.621" stroke="hsl(0.0,100%,35%)" stroke-width="0.00731"></path>
<path d="M1.188 0.176 Q0.879 0.108 0.679 0.244" stroke="hsl(0.0,100%,35%)" stroke-width="0.00365"></path>
<path d="M1.188 0.176 Q0.815 0.436 1.242 0.675" stroke="hsl(0.0,100%,35%)" stroke-width="0.00731"></path>
<path d="M1.188 0.176 Q1.053 0.056 0.791 0.096" stroke="hsl(0.0,100%,35%)" stroke-width="0.00731"></path>
<path d="M1.779 0.621 Q1.350 0.113 0.264 0.210" stroke="hsl(180.0,100%,35%)" stroke-width="0.01462"></path>
<path d="M1.779 0.621 Q2.091 0.500 1.923 0.321" stroke="hsl(180.0,100%,35%)" stroke-width="0.02923"></path>
<path d="M1.779 0.621 Q1.971 0.558 1.891 0.451" stroke="hsl(180.0,100%,35%)" stroke-width="0.00731"></path>
<path d="M1.779 0.621 Q1.619 0.588 1.520 0.659" stroke="hsl(180.0,100%,35%)" stroke-width="0.02558"></path>
<path d="M1.779 0.621 Q1.486 0.366 0.925 0.453" stroke="hsl(180.0,100%,35%)" stroke-width="0.00731"></path>
<path d="M1.779 0.621 Q1.467 0.541 1.242 0.675" stroke="hsl(180.0,100%,35%)" stroke-width="0.00365"></path>
<path d="M0.925 0.453 Q1.530 0.587 1.923 0.321" stroke="hsl(180.0,100%,35%)" stroke-width="0.01096"></path>
<path d="M0.925 0.453 Q1.058 0.675 1.520 0.659" stroke="hsl(180.0,100%,35%)" stroke-width="0.00731"></path>
<path d="M0.925 0.453 Q1.410 0.645 1.891 0.451" stroke="hsl(180.0,100%,35%)" stroke-width="0.00365"></path>
<path d="M0.925 0.453 Q1.218 0.708 1.779 0.621" stroke="hsl(180.0,100%,35%)" stroke-width="0.01827"></path>
<path d="M0.925 0.453 Q1.277 0.487 1.421 0.323" stroke="hsl(180.0,100%,35%)" stroke-width="0.01096"></path>
<path d="M0.925 0.453 Q1.279 0.367 1.188 0.176" stroke="hsl(180.0,100%,35%)" stroke-width="0.00731"></path>
<path d="M0.925 0.453 Q0.808 0.361 0.603 0.398" stroke="hsl(180.0,100%,35%)" stroke-width="0.00365"></path>
<path d="M0.925 0.453 Q1.088 0.443 1.104 0.362" stroke="hsl(180.0,100%,35%)" stroke-width="0.00365"></path>
<path d="M0.925 0.453 Q1.144 0.248 0.791 0.096" stroke="hsl(180.0,100%,35%)" stroke-width="0.00365"></path>
<path d="M1.520 0.659 Q1.251 0.183 0.264 0.210" stroke="hsl(180.0,100%,35%)" stroke-width="0.00365"></path>
<path d="M1.520 0.659 Q1.368 0.611 1.242 0.675" stroke="hsl(180.0,100%,35%)" stroke-width="0.02192"></path>
<path d="M1.520 0.659 Q1.512 0.535 1.269 0.512" stroke="hsl(180.0,100%,35%)" stroke-width="0.00731"></path>
<path d="M1.520 0.659 Q1.740 0.471 1.421 0.323" stroke="hsl(180.0,100%,35%)" stroke-width="0.00365"></path>
</g>
<text x="0.264" y="0.171" font-size="0.078908" fill="hsl(0.0,100%,20%)">brianosman</text>
<text x="1.269" y="0.477" font-size="0.070040" fill="hsl(0.0,100%,20%)">kjlubick</text>
<text x="1.188" y="0.135" font-size="0.080094" fill="hsl(0.0,100%,20%)">johnstiles</text>
<text x="0.791" y="0.082" font-size="0.027472" fill="hsl(0.0,100%,20%)">herb</text>
<text x="1.779" y="0.582" font-size="0.078908" fill="hsl(180.0,100%,20%)">michaelludwig</text>
<text x="1.104" y="0.341" font-size="0.041208" fill="hsl(0.0,100%,20%)">bungeman</text>
<text x="0.679" y="0.237" font-size="0.013736" fill="hsl(0.0,100%,20%)">rmistry</text>
<text x="1.242" y="0.655" font-size="0.041208" fill="hsl(180.0,100%,20%)">nicolettep</text>
<text x="0.925" y="0.422" font-size="0.062947" fill="hsl(180.0,100%,20%)">jvanverth</text>
<text x="1.923" y="0.298" font-size="0.045557" fill="hsl(180.0,100%,20%)">jamesgk</text>
<text x="1.520" y="0.628" font-size="0.061430" fill="hsl(180.0,100%,20%)">robertphillips</text>
<text x="1.891" y="0.439" font-size="0.023792" fill="hsl(180.0,100%,20%)">armansito</text>
<text x="1.421" y="0.307" font-size="0.030715" fill="hsl(180.0,100%,20%)">egdaniel</text>
<text x="0.603" y="0.391" font-size="0.013736" fill="hsl(180.0,100%,20%)">scroggo</text>
<text x="1.583" y="0.396" font-size="0.019426" fill="hsl(0.0,100%,20%)">lovisolo</text>
</svg>
