<svg width="4000" height="2000" viewBox="-0.025 -0.025 2.05 1.05" xmlns="http://www.w3.org/2000/svg">
  <style>
    path {
      fill: none;
      stroke-linecap: round;
      stroke-opacity: 0.4;
    }

    text {
      text-anchor: middle;
      alignment-baseline: hanging;
    }
  </style>
  <g opacity="0.4">
<path d="M1.673 0.255 Q1.621 0.120 1.348 0.116" stroke="hsl(0.0,100%,35%)" stroke-width="0.00822"></path>
<path d="M1.673 0.255 Q1.274 0.198 1.075 0.379" stroke="hsl(0.0,100%,35%)" stroke-width="0.00260"></path>
<path d="M1.673 0.255 Q1.361 -0.038 0.721 0.050" stroke="hsl(0.0,100%,35%)" stroke-width="0.00231"></path>
<path d="M1.673 0.255 Q1.110 0.405 1.280 0.712" stroke="hsl(0.0,100%,35%)" stroke-width="0.00014"></path>
<path d="M1.673 0.255 Q0.952 0.368 1.014 0.744" stroke="hsl(0.0,100%,35%)" stroke-width="0.00187"></path>
<path d="M1.673 0.255 Q1.551 0.166 1.351 0.205" stroke="hsl(0.0,100%,35%)" stroke-width="0.00288"></path>
<path d="M1.673 0.255 Q0.730 0.445 0.895 0.947" stroke="hsl(0.0,100%,35%)" stroke-width="0.00014"></path>
<path d="M1.673 0.255 Q1.205 0.099 0.799 0.293" stroke="hsl(0.0,100%,35%)" stroke-width="0.00173"></path>
<path d="M1.673 0.255 Q0.770 0.314 0.688 0.767" stroke="hsl(0.0,100%,35%)" stroke-width="0.00058"></path>
<path d="M1.673 0.255 Q1.633 0.214 1.545 0.225" stroke="hsl(0.0,100%,35%)" stroke-width="0.00144"></path>
<path d="M1.673 0.255 Q1.347 0.261 1.287 0.421" stroke="hsl(0.0,100%,35%)" stroke-width="0.00014"></path>
<path d="M1.673 0.255 Q1.065 0.257 0.936 0.554" stroke="hsl(0.0,100%,35%)" stroke-width="0.00014"></path>
<path d="M1.673 0.255 Q0.913 0.062 0.370 0.390" stroke="hsl(0.0,100%,35%)" stroke-width="0.00014"></path>
<path d="M1.673 0.255 Q1.734 0.180 1.602 0.134" stroke="hsl(0.0,100%,35%)" stroke-width="0.00014"></path>
<path d="M1.348 0.116 Q1.278 0.161 1.351 0.205" stroke="hsl(0.0,100%,35%)" stroke-width="0.09186"></path>
<path d="M1.348 0.116 Q0.679 0.363 1.014 0.744" stroke="hsl(0.0,100%,35%)" stroke-width="0.00490"></path>
<path d="M1.348 0.116 Q0.573 0.206 0.578 0.603" stroke="hsl(0.0,100%,35%)" stroke-width="0.00043"></path>
<path d="M1.348 0.116 Q0.892 0.331 1.211 0.600" stroke="hsl(0.0,100%,35%)" stroke-width="0.00923"></path>
<path d="M1.348 0.116 Q0.837 0.401 1.280 0.712" stroke="hsl(0.0,100%,35%)" stroke-width="0.00577"></path>
<path d="M1.348 0.116 Q1.400 0.250 1.673 0.255" stroke="hsl(0.0,100%,35%)" stroke-width="0.02091"></path>
<path d="M1.348 0.116 Q1.001 0.193 1.075 0.379" stroke="hsl(0.0,100%,35%)" stroke-width="0.00663"></path>
<path d="M1.348 0.116 Q1.087 -0.043 0.721 0.050" stroke="hsl(0.0,100%,35%)" stroke-width="0.00461"></path>
<path d="M1.348 0.116 Q0.932 0.095 0.799 0.293" stroke="hsl(0.0,100%,35%)" stroke-width="0.00245"></path>
<path d="M1.348 0.116 Q0.640 0.058 0.370 0.390" stroke="hsl(0.0,100%,35%)" stroke-width="0.00087"></path>
<path d="M1.348 0.116 Q0.905 0.585 1.723 0.905" stroke="hsl(0.0,100%,35%)" stroke-width="0.00014"></path>
<path d="M1.348 0.116 Q0.690 0.265 0.837 0.619" stroke="hsl(0.0,100%,35%)" stroke-width="0.00087"></path>
<path d="M1.348 0.116 Q1.360 0.210 1.545 0.225" stroke="hsl(0.0,100%,35%)" stroke-width="0.00245"></path>
<path d="M1.348 0.116 Q0.280 0.181 0.174 0.716" stroke="hsl(0.0,100%,35%)" stroke-width="0.00087"></path>
<path d="M1.348 0.116 Q0.792 0.252 0.936 0.554" stroke="hsl(0.0,100%,35%)" stroke-width="0.00014"></path>
<path d="M1.348 0.116 Q0.468 0.176 0.391 0.618" stroke="hsl(0.0,100%,35%)" stroke-width="0.00014"></path>
<path d="M1.348 0.116 Q0.497 0.309 0.688 0.767" stroke="hsl(0.0,100%,35%)" stroke-width="0.00130"></path>
<path d="M1.348 0.116 Q0.599 0.245 0.686 0.639" stroke="hsl(0.0,100%,35%)" stroke-width="0.00014"></path>
<path d="M1.348 0.116 Q0.457 0.441 0.895 0.947" stroke="hsl(0.0,100%,35%)" stroke-width="0.00130"></path>
<path d="M1.348 0.116 Q0.312 0.321 0.484 0.871" stroke="hsl(0.0,100%,35%)" stroke-width="0.00014"></path>
<path d="M1.348 0.116 Q0.873 0.226 0.982 0.481" stroke="hsl(0.0,100%,35%)" stroke-width="0.00029"></path>
<path d="M1.348 0.116 Q0.304 0.123 0.088 0.633" stroke="hsl(0.0,100%,35%)" stroke-width="0.00029"></path>
<path d="M1.348 0.116 Q1.073 0.256 1.287 0.421" stroke="hsl(0.0,100%,35%)" stroke-width="0.00087"></path>
<path d="M1.348 0.116 Q1.461 0.175 1.602 0.134" stroke="hsl(0.0,100%,35%)" stroke-width="0.00361"></path>
<path d="M1.348 0.116 Q0.461 0.206 0.442 0.659" stroke="hsl(0.0,100%,35%)" stroke-width="0.00014"></path>
<path d="M1.075 0.379 Q1.474 0.436 1.673 0.255" stroke="hsl(180.0,100%,35%)" stroke-width="0.00072"></path>
<path d="M1.075 0.379 Q0.967 0.517 1.211 0.600" stroke="hsl(180.0,100%,35%)" stroke-width="0.00678"></path>
<path d="M1.075 0.379 Q1.162 0.144 0.721 0.050" stroke="hsl(180.0,100%,35%)" stroke-width="0.00793"></path>
<path d="M1.075 0.379 Q1.353 0.347 1.351 0.205" stroke="hsl(180.0,100%,35%)" stroke-width="0.00433"></path>
<path d="M1.075 0.379 Q1.148 0.443 1.287 0.421" stroke="hsl(180.0,100%,35%)" stroke-width="0.00087"></path>
<path d="M1.075 0.379 Q0.531 0.627 0.895 0.947" stroke="hsl(180.0,100%,35%)" stroke-width="0.00144"></path>
<path d="M1.075 0.379 Q0.753 0.550 1.014 0.744" stroke="hsl(180.0,100%,35%)" stroke-width="0.00187"></path>
<path d="M1.075 0.379 Q1.006 0.281 0.799 0.293" stroke="hsl(180.0,100%,35%)" stroke-width="0.00389"></path>
<path d="M1.075 0.379 Q1.434 0.396 1.545 0.225" stroke="hsl(180.0,100%,35%)" stroke-width="0.00159"></path>
<path d="M1.075 0.379 Q1.423 0.302 1.348 0.116" stroke="hsl(180.0,100%,35%)" stroke-width="0.00072"></path>
<path d="M1.075 0.379 Q0.355 0.368 0.174 0.716" stroke="hsl(180.0,100%,35%)" stroke-width="0.00014"></path>
<path d="M1.075 0.379 Q0.710 0.363 0.599 0.538" stroke="hsl(180.0,100%,35%)" stroke-width="0.00014"></path>
<path d="M1.075 0.379 Q0.912 0.587 1.280 0.712" stroke="hsl(180.0,100%,35%)" stroke-width="0.00058"></path>
<path d="M1.075 0.379 Q0.866 0.439 0.936 0.554" stroke="hsl(180.0,100%,35%)" stroke-width="0.00014"></path>
<path d="M1.075 0.379 Q0.379 0.309 0.088 0.633" stroke="hsl(180.0,100%,35%)" stroke-width="0.00014"></path>
<path d="M0.721 0.050 Q0.707 0.349 1.287 0.421" stroke="hsl(180.0,100%,35%)" stroke-width="0.00087"></path>
<path d="M0.721 0.050 Q0.525 0.423 1.211 0.600" stroke="hsl(180.0,100%,35%)" stroke-width="0.00591"></path>
<path d="M0.721 0.050 Q0.565 0.187 0.799 0.293" stroke="hsl(180.0,100%,35%)" stroke-width="0.00865"></path>
<path d="M0.721 0.050 Q0.981 0.208 1.348 0.116" stroke="hsl(180.0,100%,35%)" stroke-width="0.00130"></path>
<path d="M0.721 0.050 Q0.634 0.286 1.075 0.379" stroke="hsl(180.0,100%,35%)" stroke-width="0.00577"></path>
<path d="M0.721 0.050 Q0.911 0.254 1.351 0.205" stroke="hsl(180.0,100%,35%)" stroke-width="0.00216"></path>
<path d="M0.721 0.050 Q-0.086 0.274 0.174 0.716" stroke="hsl(180.0,100%,35%)" stroke-width="0.00029"></path>
<path d="M0.721 0.050 Q0.470 0.493 1.280 0.712" stroke="hsl(180.0,100%,35%)" stroke-width="0.00461"></path>
<path d="M0.721 0.050 Q0.090 0.533 0.895 0.947" stroke="hsl(180.0,100%,35%)" stroke-width="0.00087"></path>
<path d="M0.721 0.050 Q0.312 0.456 1.014 0.744" stroke="hsl(180.0,100%,35%)" stroke-width="0.00115"></path>
<path d="M0.721 0.050 Q0.206 0.298 0.578 0.603" stroke="hsl(180.0,100%,35%)" stroke-width="0.00029"></path>
<path d="M0.721 0.050 Q0.538 0.678 1.723 0.905" stroke="hsl(180.0,100%,35%)" stroke-width="0.00014"></path>
<path d="M0.721 0.050 Q0.993 0.302 1.545 0.225" stroke="hsl(180.0,100%,35%)" stroke-width="0.00187"></path>
<path d="M0.721 0.050 Q0.425 0.345 0.936 0.554" stroke="hsl(180.0,100%,35%)" stroke-width="0.00014"></path>
<path d="M0.721 0.050 Q1.033 0.343 1.673 0.255" stroke="hsl(180.0,100%,35%)" stroke-width="0.00029"></path>
<path d="M0.721 0.050 Q0.094 0.298 0.442 0.659" stroke="hsl(180.0,100%,35%)" stroke-width="0.00014"></path>
<path d="M0.721 0.050 Q0.130 0.402 0.688 0.767" stroke="hsl(180.0,100%,35%)" stroke-width="0.00029"></path>
<path d="M1.280 0.712 Q1.122 0.675 1.014 0.744" stroke="hsl(180.0,100%,35%)" stroke-width="0.00187"></path>
<path d="M1.280 0.712 Q1.721 0.473 1.351 0.205" stroke="hsl(180.0,100%,35%)" stroke-width="0.00793"></path>
<path d="M1.280 0.712 Q1.335 0.642 1.211 0.600" stroke="hsl(180.0,100%,35%)" stroke-width="0.02927"></path>
<path d="M1.280 0.712 Q0.940 0.621 0.688 0.767" stroke="hsl(180.0,100%,35%)" stroke-width="0.00404"></path>
<path d="M1.280 0.712 Q0.747 0.434 0.088 0.633" stroke="hsl(180.0,100%,35%)" stroke-width="0.00014"></path>
<path d="M1.280 0.712 Q1.791 0.428 1.348 0.116" stroke="hsl(180.0,100%,35%)" stroke-width="0.01082"></path>
<path d="M1.280 0.712 Q1.531 0.269 0.721 0.050" stroke="hsl(180.0,100%,35%)" stroke-width="0.00404"></path>
<path d="M1.280 0.712 Q1.803 0.521 1.545 0.225" stroke="hsl(180.0,100%,35%)" stroke-width="0.00058"></path>
<path d="M1.280 0.712 Q1.016 0.517 0.578 0.603" stroke="hsl(180.0,100%,35%)" stroke-width="0.00029"></path>
<path d="M1.280 0.712 Q1.375 0.406 0.799 0.293" stroke="hsl(180.0,100%,35%)" stroke-width="0.00058"></path>
<path d="M1.280 0.712 Q1.444 0.505 1.075 0.379" stroke="hsl(180.0,100%,35%)" stroke-width="0.00072"></path>
<path d="M1.280 0.712 Q0.724 0.493 0.174 0.716" stroke="hsl(180.0,100%,35%)" stroke-width="0.00029"></path>
<path d="M1.280 0.712 Q1.843 0.562 1.673 0.255" stroke="hsl(180.0,100%,35%)" stroke-width="0.00014"></path>
<path d="M1.014 0.744 Q0.833 0.690 0.688 0.767" stroke="hsl(180.0,100%,35%)" stroke-width="0.02077"></path>
<path d="M1.014 0.744 Q1.614 0.542 1.351 0.205" stroke="hsl(180.0,100%,35%)" stroke-width="0.01312"></path>
<path d="M1.014 0.744 Q1.337 0.574 1.075 0.379" stroke="hsl(180.0,100%,35%)" stroke-width="0.00707"></path>
<path d="M1.014 0.744 Q1.267 0.475 0.799 0.293" stroke="hsl(180.0,100%,35%)" stroke-width="0.00260"></path>
<path d="M1.014 0.744 Q1.684 0.497 1.348 0.116" stroke="hsl(180.0,100%,35%)" stroke-width="0.00764"></path>
<path d="M1.014 0.744 Q0.934 0.626 0.686 0.639" stroke="hsl(180.0,100%,35%)" stroke-width="0.00087"></path>
<path d="M1.014 0.744 Q0.616 0.562 0.174 0.716" stroke="hsl(180.0,100%,35%)" stroke-width="0.00231"></path>
<path d="M1.014 0.744 Q1.128 0.633 0.936 0.554" stroke="hsl(180.0,100%,35%)" stroke-width="0.00707"></path>
<path d="M1.014 0.744 Q1.173 0.781 1.280 0.712" stroke="hsl(180.0,100%,35%)" stroke-width="0.00433"></path>
<path d="M1.014 0.744 Q1.423 0.338 0.721 0.050" stroke="hsl(180.0,100%,35%)" stroke-width="0.00144"></path>
<path d="M1.014 0.744 Q1.409 0.637 1.287 0.421" stroke="hsl(180.0,100%,35%)" stroke-width="0.00014"></path>
<path d="M1.014 0.744 Q0.971 0.558 0.599 0.538" stroke="hsl(180.0,100%,35%)" stroke-width="0.00216"></path>
<path d="M1.014 0.744 Q0.793 0.822 0.895 0.947" stroke="hsl(180.0,100%,35%)" stroke-width="0.00058"></path>
<path d="M1.014 0.744 Q1.735 0.631 1.673 0.255" stroke="hsl(180.0,100%,35%)" stroke-width="0.00101"></path>
<path d="M1.014 0.744 Q1.025 0.646 0.837 0.619" stroke="hsl(180.0,100%,35%)" stroke-width="0.00490"></path>
<path d="M1.014 0.744 Q0.648 0.702 0.484 0.871" stroke="hsl(180.0,100%,35%)" stroke-width="0.00058"></path>
<path d="M1.014 0.744 Q1.695 0.591 1.545 0.225" stroke="hsl(180.0,100%,35%)" stroke-width="0.00260"></path>
<path d="M1.014 0.744 Q0.751 0.516 0.248 0.594" stroke="hsl(180.0,100%,35%)" stroke-width="0.00404"></path>
<path d="M1.014 0.744 Q0.975 0.438 0.370 0.390" stroke="hsl(180.0,100%,35%)" stroke-width="0.00115"></path>
<path d="M1.014 0.744 Q1.616 0.616 1.497 0.294" stroke="hsl(180.0,100%,35%)" stroke-width="0.00014"></path>
<path d="M1.014 0.744 Q0.803 0.556 0.391 0.618" stroke="hsl(180.0,100%,35%)" stroke-width="0.00144"></path>
<path d="M1.014 0.744 Q1.228 0.712 1.211 0.600" stroke="hsl(180.0,100%,35%)" stroke-width="0.00115"></path>
<path d="M1.014 0.744 Q0.909 0.587 0.578 0.603" stroke="hsl(180.0,100%,35%)" stroke-width="0.00433"></path>
<path d="M1.014 0.744 Q0.797 0.587 0.442 0.659" stroke="hsl(180.0,100%,35%)" stroke-width="0.00058"></path>
<path d="M1.014 0.744 Q1.208 0.606 0.982 0.481" stroke="hsl(180.0,100%,35%)" stroke-width="0.00043"></path>
<path d="M1.014 0.744 Q0.640 0.504 0.088 0.633" stroke="hsl(180.0,100%,35%)" stroke-width="0.00346"></path>
<path d="M1.014 0.744 Q1.057 0.547 0.681 0.482" stroke="hsl(180.0,100%,35%)" stroke-width="0.00043"></path>
<path d="M1.014 0.744 Q1.240 0.966 1.723 0.905" stroke="hsl(180.0,100%,35%)" stroke-width="0.00043"></path>
<path d="M1.351 0.205 Q0.910 0.445 1.280 0.712" stroke="hsl(0.0,100%,35%)" stroke-width="0.00476"></path>
<path d="M1.351 0.205 Q1.421 0.160 1.348 0.116" stroke="hsl(0.0,100%,35%)" stroke-width="0.01024"></path>
<path d="M1.351 0.205 Q1.160 0.001 0.721 0.050" stroke="hsl(0.0,100%,35%)" stroke-width="0.00115"></path>
<path d="M1.351 0.205 Q1.218 0.154 1.088 0.207" stroke="hsl(0.0,100%,35%)" stroke-width="0.00043"></path>
<path d="M1.351 0.205 Q1.074 0.237 1.075 0.379" stroke="hsl(0.0,100%,35%)" stroke-width="0.00418"></path>
<path d="M1.351 0.205 Q0.965 0.375 1.211 0.600" stroke="hsl(0.0,100%,35%)" stroke-width="0.00173"></path>
<path d="M1.351 0.205 Q0.751 0.407 1.014 0.744" stroke="hsl(0.0,100%,35%)" stroke-width="0.00260"></path>
<path d="M1.351 0.205 Q0.570 0.353 0.688 0.767" stroke="hsl(0.0,100%,35%)" stroke-width="0.00245"></path>
<path d="M1.351 0.205 Q0.709 0.221 0.599 0.538" stroke="hsl(0.0,100%,35%)" stroke-width="0.00043"></path>
<path d="M1.351 0.205 Q0.763 0.309 0.837 0.619" stroke="hsl(0.0,100%,35%)" stroke-width="0.00014"></path>
<path d="M1.351 0.205 Q1.433 0.254 1.545 0.225" stroke="hsl(0.0,100%,35%)" stroke-width="0.00288"></path>
<path d="M1.351 0.205 Q1.353 0.279 1.497 0.294" stroke="hsl(0.0,100%,35%)" stroke-width="0.00029"></path>
<path d="M1.351 0.205 Q1.005 0.139 0.799 0.293" stroke="hsl(0.0,100%,35%)" stroke-width="0.00115"></path>
<path d="M1.351 0.205 Q0.353 0.225 0.174 0.716" stroke="hsl(0.0,100%,35%)" stroke-width="0.00014"></path>
<path d="M1.351 0.205 Q0.713 0.102 0.370 0.390" stroke="hsl(0.0,100%,35%)" stroke-width="0.00029"></path>
<path d="M1.351 0.205 Q1.472 0.294 1.673 0.255" stroke="hsl(0.0,100%,35%)" stroke-width="0.00072"></path>
<path d="M1.351 0.205 Q0.646 0.250 0.578 0.603" stroke="hsl(0.0,100%,35%)" stroke-width="0.00072"></path>
<path d="M1.351 0.205 Q0.377 0.167 0.088 0.633" stroke="hsl(0.0,100%,35%)" stroke-width="0.00014"></path>
<path d="M1.351 0.205 Q1.534 0.220 1.602 0.134" stroke="hsl(0.0,100%,35%)" stroke-width="0.00014"></path>
<path d="M0.895 0.947 Q1.786 0.622 1.348 0.116" stroke="hsl(180.0,100%,35%)" stroke-width="0.00115"></path>
<path d="M0.895 0.947 Q1.330 0.837 1.211 0.600" stroke="hsl(180.0,100%,35%)" stroke-width="0.00101"></path>
<path d="M0.895 0.947 Q1.370 0.601 0.799 0.293" stroke="hsl(180.0,100%,35%)" stroke-width="0.00187"></path>
<path d="M0.895 0.947 Q1.525 0.463 0.721 0.050" stroke="hsl(180.0,100%,35%)" stroke-width="0.00101"></path>
<path d="M0.895 0.947 Q1.036 0.751 0.686 0.639" stroke="hsl(180.0,100%,35%)" stroke-width="0.00014"></path>
<path d="M0.895 0.947 Q1.230 0.758 0.936 0.554" stroke="hsl(180.0,100%,35%)" stroke-width="0.00014"></path>
<path d="M0.895 0.947 Q1.439 0.699 1.075 0.379" stroke="hsl(180.0,100%,35%)" stroke-width="0.00159"></path>
<path d="M0.895 0.947 Q1.716 0.667 1.351 0.205" stroke="hsl(180.0,100%,35%)" stroke-width="0.00014"></path>
<path d="M0.895 0.947 Q1.116 0.869 1.014 0.744" stroke="hsl(180.0,100%,35%)" stroke-width="0.00043"></path>
<path d="M0.895 0.947 Q0.742 0.629 0.088 0.633" stroke="hsl(180.0,100%,35%)" stroke-width="0.00014"></path>
<path d="M0.799 0.293 Q0.954 0.156 0.721 0.050" stroke="hsl(180.0,100%,35%)" stroke-width="0.00461"></path>
<path d="M0.799 0.293 Q0.940 0.455 1.287 0.421" stroke="hsl(180.0,100%,35%)" stroke-width="0.00058"></path>
<path d="M0.799 0.293 Q0.759 0.529 1.211 0.600" stroke="hsl(180.0,100%,35%)" stroke-width="0.00274"></path>
<path d="M0.799 0.293 Q1.012 0.308 1.088 0.207" stroke="hsl(180.0,100%,35%)" stroke-width="0.00014"></path>
<path d="M0.799 0.293 Q0.324 0.639 0.895 0.947" stroke="hsl(180.0,100%,35%)" stroke-width="0.00260"></path>
<path d="M0.799 0.293 Q1.227 0.408 1.545 0.225" stroke="hsl(180.0,100%,35%)" stroke-width="0.00187"></path>
<path d="M0.799 0.293 Q1.145 0.360 1.351 0.205" stroke="hsl(180.0,100%,35%)" stroke-width="0.00043"></path>
<path d="M0.799 0.293 Q0.868 0.392 1.075 0.379" stroke="hsl(180.0,100%,35%)" stroke-width="0.00260"></path>
<path d="M0.799 0.293 Q1.215 0.314 1.348 0.116" stroke="hsl(180.0,100%,35%)" stroke-width="0.00014"></path>
<path d="M0.799 0.293 Q0.704 0.599 1.280 0.712" stroke="hsl(180.0,100%,35%)" stroke-width="0.00014"></path>
<path d="M0.799 0.293 Q0.440 0.404 0.578 0.603" stroke="hsl(180.0,100%,35%)" stroke-width="0.00014"></path>
<path d="M0.799 0.293 Q0.545 0.562 1.014 0.744" stroke="hsl(180.0,100%,35%)" stroke-width="0.00072"></path>
<path d="M0.799 0.293 Q0.557 0.464 0.837 0.619" stroke="hsl(180.0,100%,35%)" stroke-width="0.00029"></path>
<path d="M0.799 0.293 Q0.328 0.404 0.442 0.659" stroke="hsl(180.0,100%,35%)" stroke-width="0.00014"></path>
<path d="M0.799 0.293 Q0.659 0.451 0.936 0.554" stroke="hsl(180.0,100%,35%)" stroke-width="0.00014"></path>
<path d="M0.799 0.293 Q0.503 0.375 0.599 0.538" stroke="hsl(180.0,100%,35%)" stroke-width="0.00014"></path>
<path d="M0.688 0.767 Q1.469 0.619 1.351 0.205" stroke="hsl(180.0,100%,35%)" stroke-width="0.00187"></path>
<path d="M0.688 0.767 Q1.028 0.858 1.280 0.712" stroke="hsl(180.0,100%,35%)" stroke-width="0.00750"></path>
<path d="M0.688 0.767 Q0.869 0.821 1.014 0.744" stroke="hsl(180.0,100%,35%)" stroke-width="0.00274"></path>
<path d="M0.688 0.767 Q1.000 0.635 0.811 0.454" stroke="hsl(180.0,100%,35%)" stroke-width="0.00014"></path>
<path d="M0.688 0.767 Q1.539 0.574 1.348 0.116" stroke="hsl(180.0,100%,35%)" stroke-width="0.00043"></path>
<path d="M0.688 0.767 Q0.830 0.515 0.370 0.390" stroke="hsl(180.0,100%,35%)" stroke-width="0.00014"></path>
<path d="M0.688 0.767 Q1.550 0.667 1.545 0.225" stroke="hsl(180.0,100%,35%)" stroke-width="0.00014"></path>
<path d="M0.688 0.767 Q0.471 0.639 0.174 0.716" stroke="hsl(180.0,100%,35%)" stroke-width="0.00130"></path>
<path d="M0.688 0.767 Q0.983 0.710 0.936 0.554" stroke="hsl(180.0,100%,35%)" stroke-width="0.00029"></path>
<path d="M0.688 0.767 Q1.122 0.552 0.799 0.293" stroke="hsl(180.0,100%,35%)" stroke-width="0.00043"></path>
<path d="M0.688 0.767 Q1.083 0.788 1.211 0.600" stroke="hsl(180.0,100%,35%)" stroke-width="0.00014"></path>
<path d="M0.688 0.767 Q1.192 0.651 1.075 0.379" stroke="hsl(180.0,100%,35%)" stroke-width="0.00014"></path>
<path d="M0.688 0.767 Q0.652 0.664 0.442 0.659" stroke="hsl(180.0,100%,35%)" stroke-width="0.00072"></path>
<path d="M0.688 0.767 Q0.880 0.723 0.837 0.619" stroke="hsl(180.0,100%,35%)" stroke-width="0.00014"></path>
<path d="M1.545 0.225 Q0.466 0.196 0.174 0.716" stroke="hsl(180.0,100%,35%)" stroke-width="0.00173"></path>
<path d="M1.545 0.225 Q1.464 0.176 1.351 0.205" stroke="hsl(180.0,100%,35%)" stroke-width="0.00750"></path>
<path d="M1.545 0.225 Q1.534 0.131 1.348 0.116" stroke="hsl(180.0,100%,35%)" stroke-width="0.00115"></path>
<path d="M1.545 0.225 Q1.187 0.208 1.075 0.379" stroke="hsl(180.0,100%,35%)" stroke-width="0.00187"></path>
<path d="M1.545 0.225 Q1.023 0.415 1.280 0.712" stroke="hsl(180.0,100%,35%)" stroke-width="0.00144"></path>
<path d="M1.545 0.225 Q1.078 0.345 1.211 0.600" stroke="hsl(180.0,100%,35%)" stroke-width="0.00317"></path>
<path d="M1.545 0.225 Q0.821 0.192 0.599 0.538" stroke="hsl(180.0,100%,35%)" stroke-width="0.00043"></path>
<path d="M1.545 0.225 Q1.117 0.109 0.799 0.293" stroke="hsl(180.0,100%,35%)" stroke-width="0.00476"></path>
<path d="M1.545 0.225 Q1.273 -0.028 0.721 0.050" stroke="hsl(180.0,100%,35%)" stroke-width="0.00115"></path>
<path d="M1.545 0.225 Q0.864 0.378 1.014 0.744" stroke="hsl(180.0,100%,35%)" stroke-width="0.00029"></path>
<path d="M1.545 0.225 Q1.585 0.265 1.673 0.255" stroke="hsl(180.0,100%,35%)" stroke-width="0.00029"></path>
<path d="M1.545 0.225 Q0.683 0.324 0.688 0.767" stroke="hsl(180.0,100%,35%)" stroke-width="0.00014"></path>
<path d="M1.545 0.225 Q0.759 0.221 0.578 0.603" stroke="hsl(180.0,100%,35%)" stroke-width="0.00014"></path>
<path d="M1.287 0.421 Q1.215 0.358 1.075 0.379" stroke="hsl(180.0,100%,35%)" stroke-width="0.00187"></path>
<path d="M1.287 0.421 Q1.562 0.281 1.348 0.116" stroke="hsl(180.0,100%,35%)" stroke-width="0.00087"></path>
<path d="M1.287 0.421 Q1.145 0.259 0.799 0.293" stroke="hsl(180.0,100%,35%)" stroke-width="0.00202"></path>
<path d="M1.287 0.421 Q0.671 0.605 0.895 0.947" stroke="hsl(180.0,100%,35%)" stroke-width="0.00029"></path>
<path d="M1.287 0.421 Q0.711 0.474 0.688 0.767" stroke="hsl(180.0,100%,35%)" stroke-width="0.00014"></path>
<path d="M1.287 0.421 Q1.106 0.495 1.211 0.600" stroke="hsl(180.0,100%,35%)" stroke-width="0.00245"></path>
<path d="M1.287 0.421 Q1.301 0.122 0.721 0.050" stroke="hsl(180.0,100%,35%)" stroke-width="0.00087"></path>
<path d="M1.287 0.421 Q1.492 0.326 1.351 0.205" stroke="hsl(180.0,100%,35%)" stroke-width="0.00029"></path>
<path d="M1.287 0.421 Q0.892 0.528 1.014 0.744" stroke="hsl(180.0,100%,35%)" stroke-width="0.00101"></path>
<path d="M1.287 0.421 Q0.903 0.430 0.837 0.619" stroke="hsl(180.0,100%,35%)" stroke-width="0.00014"></path>
<path d="M0.936 0.554 Q0.834 0.567 0.837 0.619" stroke="hsl(180.0,100%,35%)" stroke-width="0.00043"></path>
<path d="M0.936 0.554 Q0.823 0.664 1.014 0.744" stroke="hsl(180.0,100%,35%)" stroke-width="0.00058"></path>
<path d="M0.936 0.554 Q0.717 0.507 0.578 0.603" stroke="hsl(180.0,100%,35%)" stroke-width="0.00058"></path>
<path d="M0.936 0.554 Q0.981 0.702 1.280 0.712" stroke="hsl(180.0,100%,35%)" stroke-width="0.00014"></path>
<path d="M0.936 0.554 Q1.504 0.511 1.545 0.225" stroke="hsl(180.0,100%,35%)" stroke-width="0.00014"></path>
<path d="M0.936 0.554 Q1.036 0.632 1.211 0.600" stroke="hsl(180.0,100%,35%)" stroke-width="0.00014"></path>
<path d="M0.370 0.390 Q0.228 0.642 0.688 0.767" stroke="hsl(180.0,100%,35%)" stroke-width="0.00461"></path>
<path d="M0.370 0.390 Q0.409 0.696 1.014 0.744" stroke="hsl(180.0,100%,35%)" stroke-width="0.00072"></path>
<path d="M0.370 0.390 Q1.009 0.494 1.351 0.205" stroke="hsl(180.0,100%,35%)" stroke-width="0.00029"></path>
<path d="M0.370 0.390 Q0.623 0.663 1.211 0.600" stroke="hsl(180.0,100%,35%)" stroke-width="0.00029"></path>
<path d="M0.370 0.390 Q0.818 0.290 0.721 0.050" stroke="hsl(180.0,100%,35%)" stroke-width="0.00014"></path>
<path d="M0.370 0.390 Q0.568 0.733 1.280 0.712" stroke="hsl(180.0,100%,35%)" stroke-width="0.00014"></path>
<path d="M1.602 0.134 Q1.489 0.074 1.348 0.116" stroke="hsl(0.0,100%,35%)" stroke-width="0.00317"></path>
<path d="M1.602 0.134 Q1.540 0.208 1.673 0.255" stroke="hsl(0.0,100%,35%)" stroke-width="0.00029"></path>
<path d="M1.602 0.134 Q1.419 0.119 1.351 0.205" stroke="hsl(0.0,100%,35%)" stroke-width="0.00260"></path>
<path d="M1.602 0.134 Q1.501 0.168 1.545 0.225" stroke="hsl(0.0,100%,35%)" stroke-width="0.00014"></path>
<path d="M0.578 0.603 Q1.283 0.559 1.351 0.205" stroke="hsl(180.0,100%,35%)" stroke-width="0.00029"></path>
<path d="M0.578 0.603 Q0.695 0.663 0.837 0.619" stroke="hsl(180.0,100%,35%)" stroke-width="0.00101"></path>
<path d="M0.578 0.603 Q0.683 0.761 1.014 0.744" stroke="hsl(180.0,100%,35%)" stroke-width="0.00058"></path>
<path d="M0.578 0.603 Q0.797 0.650 0.936 0.554" stroke="hsl(180.0,100%,35%)" stroke-width="0.00043"></path>
<path d="M0.578 0.603 Q0.910 0.983 1.723 0.905" stroke="hsl(180.0,100%,35%)" stroke-width="0.00014"></path>
<path d="M0.578 0.603 Q0.466 0.604 0.442 0.659" stroke="hsl(180.0,100%,35%)" stroke-width="0.00014"></path>
<path d="M0.837 0.619 Q0.644 0.663 0.688 0.767" stroke="hsl(180.0,100%,35%)" stroke-width="0.00014"></path>
<path d="M0.837 0.619 Q0.563 0.489 0.248 0.594" stroke="hsl(180.0,100%,35%)" stroke-width="0.00014"></path>
<path d="M0.837 0.619 Q0.720 0.560 0.578 0.603" stroke="hsl(180.0,100%,35%)" stroke-width="0.00130"></path>
<path d="M0.837 0.619 Q0.939 0.606 0.936 0.554" stroke="hsl(180.0,100%,35%)" stroke-width="0.00173"></path>
<path d="M0.837 0.619 Q1.079 0.449 0.799 0.293" stroke="hsl(180.0,100%,35%)" stroke-width="0.00072"></path>
<path d="M0.837 0.619 Q0.825 0.717 1.014 0.744" stroke="hsl(180.0,100%,35%)" stroke-width="0.00058"></path>
<path d="M0.837 0.619 Q1.495 0.470 1.348 0.116" stroke="hsl(180.0,100%,35%)" stroke-width="0.00029"></path>
<path d="M0.837 0.619 Q1.425 0.515 1.351 0.205" stroke="hsl(180.0,100%,35%)" stroke-width="0.00014"></path>
<path d="M1.723 0.905 Q1.650 0.918 1.660 0.956" stroke="hsl(180.0,100%,35%)" stroke-width="0.00014"></path>
<path d="M1.723 0.905 Q1.392 0.525 0.578 0.603" stroke="hsl(180.0,100%,35%)" stroke-width="0.00014"></path>
<path d="M0.442 0.659 Q0.913 0.547 0.799 0.293" stroke="hsl(180.0,100%,35%)" stroke-width="0.00014"></path>
<path d="M0.442 0.659 Q0.617 0.630 0.599 0.538" stroke="hsl(180.0,100%,35%)" stroke-width="0.00101"></path>
<path d="M0.442 0.659 Q1.259 0.614 1.351 0.205" stroke="hsl(180.0,100%,35%)" stroke-width="0.00014"></path>
<path d="M0.442 0.659 Q1.329 0.568 1.348 0.116" stroke="hsl(180.0,100%,35%)" stroke-width="0.00014"></path>
<path d="M1.088 0.207 Q1.222 0.259 1.351 0.205" stroke="hsl(0.0,100%,35%)" stroke-width="0.00029"></path>
<path d="M1.088 0.207 Q1.223 0.333 1.497 0.294" stroke="hsl(0.0,100%,35%)" stroke-width="0.00014"></path>
<path d="M1.211 0.600 Q1.406 0.227 0.721 0.050" stroke="hsl(180.0,100%,35%)" stroke-width="0.00433"></path>
<path d="M1.211 0.600 Q1.251 0.364 0.799 0.293" stroke="hsl(180.0,100%,35%)" stroke-width="0.01240"></path>
<path d="M1.211 0.600 Q1.392 0.526 1.287 0.421" stroke="hsl(180.0,100%,35%)" stroke-width="0.00361"></path>
<path d="M1.211 0.600 Q1.320 0.463 1.075 0.379" stroke="hsl(180.0,100%,35%)" stroke-width="0.01269"></path>
<path d="M1.211 0.600 Q0.776 0.710 0.895 0.947" stroke="hsl(180.0,100%,35%)" stroke-width="0.00043"></path>
<path d="M1.211 0.600 Q1.667 0.385 1.348 0.116" stroke="hsl(180.0,100%,35%)" stroke-width="0.00187"></path>
<path d="M1.211 0.600 Q1.597 0.431 1.351 0.205" stroke="hsl(180.0,100%,35%)" stroke-width="0.00216"></path>
<path d="M1.211 0.600 Q0.892 0.475 0.578 0.603" stroke="hsl(180.0,100%,35%)" stroke-width="0.00173"></path>
<path d="M1.211 0.600 Q1.679 0.479 1.545 0.225" stroke="hsl(180.0,100%,35%)" stroke-width="0.00043"></path>
<path d="M1.211 0.600 Q0.599 0.451 0.174 0.716" stroke="hsl(180.0,100%,35%)" stroke-width="0.00029"></path>
<path d="M1.211 0.600 Q0.997 0.633 1.014 0.744" stroke="hsl(180.0,100%,35%)" stroke-width="0.00058"></path>
<path d="M1.211 0.600 Q1.156 0.670 1.280 0.712" stroke="hsl(180.0,100%,35%)" stroke-width="0.00087"></path>
<path d="M1.211 0.600 Q0.631 0.590 0.484 0.871" stroke="hsl(180.0,100%,35%)" stroke-width="0.00014"></path>
<path d="M1.211 0.600 Q1.111 0.522 0.936 0.554" stroke="hsl(180.0,100%,35%)" stroke-width="0.00029"></path>
<path d="M0.599 0.538 Q0.460 0.670 0.688 0.767" stroke="hsl(180.0,100%,35%)" stroke-width="0.00014"></path>
<path d="M0.599 0.538 Q0.561 0.606 0.686 0.639" stroke="hsl(180.0,100%,35%)" stroke-width="0.00029"></path>
<path d="M0.599 0.538 Q0.424 0.567 0.442 0.659" stroke="hsl(180.0,100%,35%)" stroke-width="0.00072"></path>
<path d="M0.599 0.538 Q1.311 0.477 1.348 0.116" stroke="hsl(180.0,100%,35%)" stroke-width="0.00014"></path>
<path d="M0.599 0.538 Q0.855 0.691 1.211 0.600" stroke="hsl(180.0,100%,35%)" stroke-width="0.00014"></path>
<path d="M0.599 0.538 Q0.895 0.455 0.799 0.293" stroke="hsl(180.0,100%,35%)" stroke-width="0.00014"></path>
<path d="M0.599 0.538 Q0.755 0.613 0.936 0.554" stroke="hsl(180.0,100%,35%)" stroke-width="0.00014"></path>
<path d="M0.599 0.538 Q1.241 0.522 1.351 0.205" stroke="hsl(180.0,100%,35%)" stroke-width="0.00029"></path>
<path d="M0.599 0.538 Q0.800 0.761 1.280 0.712" stroke="hsl(180.0,100%,35%)" stroke-width="0.00014"></path>
<path d="M1.497 0.294 Q1.495 0.221 1.351 0.205" stroke="hsl(0.0,100%,35%)" stroke-width="0.00620"></path>
<path d="M1.497 0.294 Q1.362 0.169 1.088 0.207" stroke="hsl(0.0,100%,35%)" stroke-width="0.00014"></path>
<path d="M1.497 0.294 Q1.565 0.175 1.348 0.116" stroke="hsl(0.0,100%,35%)" stroke-width="0.00014"></path>
<path d="M1.497 0.294 Q0.853 0.236 0.599 0.538" stroke="hsl(0.0,100%,35%)" stroke-width="0.00014"></path>
<path d="M1.497 0.294 Q1.054 0.460 1.280 0.712" stroke="hsl(0.0,100%,35%)" stroke-width="0.00014"></path>
<path d="M0.174 0.716 Q0.390 0.845 0.688 0.767" stroke="hsl(180.0,100%,35%)" stroke-width="0.00260"></path>
<path d="M0.174 0.716 Q0.730 0.936 1.280 0.712" stroke="hsl(180.0,100%,35%)" stroke-width="0.00058"></path>
<path d="M0.174 0.716 Q0.197 0.658 0.088 0.633" stroke="hsl(180.0,100%,35%)" stroke-width="0.00404"></path>
<path d="M0.174 0.716 Q1.241 0.651 1.348 0.116" stroke="hsl(180.0,100%,35%)" stroke-width="0.00029"></path>
<path d="M0.174 0.716 Q1.253 0.745 1.545 0.225" stroke="hsl(180.0,100%,35%)" stroke-width="0.00087"></path>
<path d="M0.174 0.716 Q0.572 0.898 1.014 0.744" stroke="hsl(180.0,100%,35%)" stroke-width="0.00072"></path>
<path d="M0.174 0.716 Q0.583 0.801 0.837 0.619" stroke="hsl(180.0,100%,35%)" stroke-width="0.00014"></path>
<path d="M0.174 0.716 Q0.492 0.780 0.686 0.639" stroke="hsl(180.0,100%,35%)" stroke-width="0.00014"></path>
<path d="M0.174 0.716 Q0.533 0.593 0.370 0.390" stroke="hsl(180.0,100%,35%)" stroke-width="0.00029"></path>
<path d="M0.174 0.716 Q0.785 0.866 1.211 0.600" stroke="hsl(180.0,100%,35%)" stroke-width="0.00014"></path>
<path d="M0.174 0.716 Q0.894 0.728 1.075 0.379" stroke="hsl(180.0,100%,35%)" stroke-width="0.00014"></path>
<path d="M0.174 0.716 Q0.967 0.791 1.287 0.421" stroke="hsl(180.0,100%,35%)" stroke-width="0.00014"></path>
<path d="M0.174 0.716 Q1.171 0.696 1.351 0.205" stroke="hsl(180.0,100%,35%)" stroke-width="0.00087"></path>
<path d="M0.174 0.716 Q0.825 0.630 0.799 0.293" stroke="hsl(180.0,100%,35%)" stroke-width="0.00014"></path>
<path d="M0.088 0.633 Q0.064 0.692 0.174 0.716" stroke="hsl(180.0,100%,35%)" stroke-width="0.00260"></path>
<path d="M0.088 0.633 Q0.462 0.874 1.014 0.744" stroke="hsl(180.0,100%,35%)" stroke-width="0.00159"></path>
<path d="M0.088 0.633 Q0.252 0.686 0.391 0.618" stroke="hsl(180.0,100%,35%)" stroke-width="0.00014"></path>
<path d="M0.088 0.633 Q0.420 0.688 0.599 0.538" stroke="hsl(180.0,100%,35%)" stroke-width="0.00087"></path>
<path d="M0.088 0.633 Q0.245 0.717 0.442 0.659" stroke="hsl(180.0,100%,35%)" stroke-width="0.00014"></path>
<path d="M0.088 0.633 Q0.281 0.820 0.688 0.767" stroke="hsl(180.0,100%,35%)" stroke-width="0.00014"></path>
<path d="M0.088 0.633 Q1.132 0.627 1.348 0.116" stroke="hsl(180.0,100%,35%)" stroke-width="0.00029"></path>
<path d="M0.088 0.633 Q1.062 0.672 1.351 0.205" stroke="hsl(180.0,100%,35%)" stroke-width="0.00029"></path>
<path d="M0.088 0.633 Q1.144 0.720 1.545 0.225" stroke="hsl(180.0,100%,35%)" stroke-width="0.00029"></path>
<path d="M0.811 0.454 Q0.499 0.586 0.688 0.767" stroke="hsl(180.0,100%,35%)" stroke-width="0.00404"></path>
<path d="M0.811 0.454 Q0.680 0.640 1.014 0.744" stroke="hsl(180.0,100%,35%)" stroke-width="0.00072"></path>
<path d="M0.811 0.454 Q0.282 0.458 0.174 0.716" stroke="hsl(180.0,100%,35%)" stroke-width="0.00087"></path>
<path d="M0.811 0.454 Q1.361 0.486 1.545 0.225" stroke="hsl(180.0,100%,35%)" stroke-width="0.00029"></path>
<path d="M0.811 0.454 Q0.894 0.607 1.211 0.600" stroke="hsl(180.0,100%,35%)" stroke-width="0.00014"></path>
<path d="M0.391 0.618 Q0.715 0.695 0.936 0.554" stroke="hsl(180.0,100%,35%)" stroke-width="0.00043"></path>
<path d="M0.391 0.618 Q0.602 0.806 1.014 0.744" stroke="hsl(180.0,100%,35%)" stroke-width="0.00865"></path>
<path d="M0.391 0.618 Q0.227 0.565 0.088 0.633" stroke="hsl(180.0,100%,35%)" stroke-width="0.00029"></path>
<path d="M0.391 0.618 Q1.271 0.559 1.348 0.116" stroke="hsl(180.0,100%,35%)" stroke-width="0.00029"></path>
<path d="M0.391 0.618 Q0.815 0.773 1.211 0.600" stroke="hsl(180.0,100%,35%)" stroke-width="0.00014"></path>
<path d="M0.391 0.618 Q0.924 0.636 1.075 0.379" stroke="hsl(180.0,100%,35%)" stroke-width="0.00014"></path>
<path d="M0.391 0.618 Q1.010 0.400 0.721 0.050" stroke="hsl(180.0,100%,35%)" stroke-width="0.00014"></path>
<path d="M0.391 0.618 Q0.855 0.537 0.799 0.293" stroke="hsl(180.0,100%,35%)" stroke-width="0.00014"></path>
<path d="M0.391 0.618 Q0.496 0.648 0.578 0.603" stroke="hsl(180.0,100%,35%)" stroke-width="0.00014"></path>
<path d="M0.620 0.385 Q0.348 0.589 0.688 0.767" stroke="hsl(180.0,100%,35%)" stroke-width="0.00014"></path>
<path d="M0.620 0.385 Q0.783 0.375 0.799 0.293" stroke="hsl(180.0,100%,35%)" stroke-width="0.00014"></path>
<path d="M0.620 0.385 Q0.530 0.643 1.014 0.744" stroke="hsl(180.0,100%,35%)" stroke-width="0.00014"></path>
<path d="M0.681 0.482 Q0.457 0.626 0.688 0.767" stroke="hsl(180.0,100%,35%)" stroke-width="0.00043"></path>
<path d="M0.681 0.482 Q0.638 0.680 1.014 0.744" stroke="hsl(180.0,100%,35%)" stroke-width="0.00043"></path>
<path d="M0.681 0.482 Q1.047 0.274 0.721 0.050" stroke="hsl(180.0,100%,35%)" stroke-width="0.00029"></path>
<path d="M0.681 0.482 Q0.891 0.411 0.799 0.293" stroke="hsl(180.0,100%,35%)" stroke-width="0.00014"></path>
<path d="M0.681 0.482 Q0.864 0.902 1.723 0.905" stroke="hsl(180.0,100%,35%)" stroke-width="0.00014"></path>
<path d="M0.681 0.482 Q0.751 0.569 0.936 0.554" stroke="hsl(180.0,100%,35%)" stroke-width="0.00029"></path>
<path d="M0.686 0.639 Q1.366 0.555 1.351 0.205" stroke="hsl(180.0,100%,35%)" stroke-width="0.00058"></path>
<path d="M0.686 0.639 Q1.232 0.504 1.088 0.207" stroke="hsl(180.0,100%,35%)" stroke-width="0.00014"></path>
<path d="M0.686 0.639 Q0.544 0.835 0.895 0.947" stroke="hsl(180.0,100%,35%)" stroke-width="0.00014"></path>
<path d="M0.686 0.639 Q0.723 0.571 0.599 0.538" stroke="hsl(180.0,100%,35%)" stroke-width="0.00029"></path>
<path d="M1.660 0.956 Q1.733 0.943 1.723 0.905" stroke="hsl(180.0,100%,35%)" stroke-width="0.00087"></path>
<path d="M1.660 0.956 Q1.402 0.563 0.578 0.603" stroke="hsl(180.0,100%,35%)" stroke-width="0.00029"></path>
<path d="M1.660 0.956 Q2.188 0.568 1.545 0.225" stroke="hsl(180.0,100%,35%)" stroke-width="0.00014"></path>
<path d="M1.660 0.956 Q1.507 0.721 1.014 0.744" stroke="hsl(180.0,100%,35%)" stroke-width="0.00014"></path>
<path d="M1.100 0.660 Q1.589 0.483 1.351 0.205" stroke="hsl(0.0,100%,35%)" stroke-width="0.00043"></path>
<path d="M1.100 0.660 Q0.809 0.631 0.688 0.767" stroke="hsl(0.0,100%,35%)" stroke-width="0.00014"></path>
<path d="M1.100 0.660 Q0.990 0.685 1.014 0.744" stroke="hsl(0.0,100%,35%)" stroke-width="0.00014"></path>
<path d="M0.248 0.594 Q0.522 0.724 0.837 0.619" stroke="hsl(180.0,100%,35%)" stroke-width="0.00101"></path>
<path d="M0.248 0.594 Q0.511 0.822 1.014 0.744" stroke="hsl(180.0,100%,35%)" stroke-width="0.00101"></path>
<path d="M0.248 0.594 Q0.624 0.711 0.936 0.554" stroke="hsl(180.0,100%,35%)" stroke-width="0.00014"></path>
<path d="M0.248 0.594 Q0.406 0.665 0.578 0.603" stroke="hsl(180.0,100%,35%)" stroke-width="0.00014"></path>
<path d="M0.248 0.594 Q0.833 0.652 1.075 0.379" stroke="hsl(180.0,100%,35%)" stroke-width="0.00014"></path>
<path d="M0.146 0.335 Q0.253 0.713 1.014 0.744" stroke="hsl(180.0,100%,35%)" stroke-width="0.00087"></path>
<path d="M0.146 0.335 Q0.934 0.560 1.545 0.225" stroke="hsl(180.0,100%,35%)" stroke-width="0.00014"></path>
<path d="M0.146 0.335 Q0.214 0.407 0.370 0.390" stroke="hsl(180.0,100%,35%)" stroke-width="0.00274"></path>
<path d="M0.146 0.335 Q0.922 0.466 1.348 0.116" stroke="hsl(180.0,100%,35%)" stroke-width="0.00014"></path>
<path d="M0.146 0.335 Q0.071 0.659 0.688 0.767" stroke="hsl(180.0,100%,35%)" stroke-width="0.00043"></path>
<path d="M1.294 0.260 Q1.367 0.244 1.351 0.205" stroke="hsl(0.0,100%,35%)" stroke-width="0.00115"></path>
<path d="M1.294 0.260 Q1.233 0.193 1.088 0.207" stroke="hsl(0.0,100%,35%)" stroke-width="0.00014"></path>
<path d="M1.294 0.260 Q0.724 0.260 0.599 0.538" stroke="hsl(0.0,100%,35%)" stroke-width="0.00014"></path>
<path d="M1.378 0.905 Q1.578 0.483 0.799 0.293" stroke="hsl(180.0,100%,35%)" stroke-width="0.00029"></path>
<path d="M1.378 0.905 Q1.733 0.346 0.721 0.050" stroke="hsl(180.0,100%,35%)" stroke-width="0.00014"></path>
<path d="M1.378 0.905 Q1.103 0.829 0.895 0.947" stroke="hsl(180.0,100%,35%)" stroke-width="0.00087"></path>
<path d="M1.378 0.905 Q1.647 0.581 1.075 0.379" stroke="hsl(180.0,100%,35%)" stroke-width="0.00087"></path>
<path d="M0.154 0.849 Q1.267 0.766 1.351 0.205" stroke="hsl(180.0,100%,35%)" stroke-width="0.00058"></path>
<path d="M0.154 0.849 Q0.270 0.786 0.174 0.716" stroke="hsl(180.0,100%,35%)" stroke-width="0.00130"></path>
<path d="M0.154 0.849 Q0.668 0.968 1.014 0.744" stroke="hsl(180.0,100%,35%)" stroke-width="0.00014"></path>
<path d="M0.154 0.849 Q0.921 0.700 0.799 0.293" stroke="hsl(180.0,100%,35%)" stroke-width="0.00014"></path>
<path d="M0.856 0.407 Q0.988 0.437 1.075 0.379" stroke="hsl(180.0,100%,35%)" stroke-width="0.00058"></path>
<path d="M0.856 0.407 Q0.919 0.338 0.799 0.293" stroke="hsl(180.0,100%,35%)" stroke-width="0.00202"></path>
<path d="M0.856 0.407 Q1.074 0.201 0.721 0.050" stroke="hsl(180.0,100%,35%)" stroke-width="0.00087"></path>
<path d="M0.856 0.407 Q1.265 0.405 1.351 0.205" stroke="hsl(180.0,100%,35%)" stroke-width="0.00014"></path>
<path d="M0.856 0.407 Q1.387 0.494 1.673 0.255" stroke="hsl(180.0,100%,35%)" stroke-width="0.00014"></path>
<path d="M0.856 0.407 Q0.824 0.644 1.280 0.712" stroke="hsl(180.0,100%,35%)" stroke-width="0.00014"></path>
<path d="M0.786 0.511 Q0.967 0.405 0.799 0.293" stroke="hsl(180.0,100%,35%)" stroke-width="0.00029"></path>
<path d="M0.786 0.511 Q0.827 0.563 0.936 0.554" stroke="hsl(180.0,100%,35%)" stroke-width="0.00014"></path>
<path d="M0.786 0.511 Q0.451 0.445 0.248 0.594" stroke="hsl(180.0,100%,35%)" stroke-width="0.00014"></path>
</g>
<text x="1.673" y="0.236" font-size="0.038090" fill="hsl(0.0,100%,20%)">armansito</text>
<text x="1.348" y="0.076" font-size="0.080497" fill="hsl(0.0,100%,20%)">johnstiles</text>
<text x="1.075" y="0.354" font-size="0.049967" fill="hsl(180.0,100%,20%)">michaelludwig</text>
<text x="0.721" y="0.026" font-size="0.046459" fill="hsl(180.0,100%,20%)">jvanverth</text>
<text x="1.280" y="0.686" font-size="0.053327" fill="hsl(180.0,100%,20%)">herb</text>
<text x="1.014" y="0.712" font-size="0.064265" fill="hsl(180.0,100%,20%)">kjlubick</text>
<text x="1.351" y="0.168" font-size="0.075268" fill="hsl(0.0,100%,20%)">brianosman</text>
<text x="0.895" y="0.935" font-size="0.022425" fill="hsl(180.0,100%,20%)">nicolettep</text>
<text x="0.799" y="0.271" font-size="0.044602" fill="hsl(180.0,100%,20%)">egdaniel</text>
<text x="0.688" y="0.746" font-size="0.042559" fill="hsl(180.0,100%,20%)">bungeman</text>
<text x="1.545" y="0.207" font-size="0.035987" fill="hsl(180.0,100%,20%)">bsalomon</text>
<text x="1.287" y="0.410" font-size="0.023013" fill="hsl(180.0,100%,20%)">jamesgk</text>
<text x="0.936" y="0.543" font-size="0.020670" fill="hsl(180.0,100%,20%)">rmistry</text>
<text x="0.370" y="0.381" font-size="0.019103" fill="hsl(180.0,100%,20%)">jlavrova</text>
<text x="1.602" y="0.125" font-size="0.017650" fill="hsl(0.0,100%,20%)">ethannicholas</text>
<text x="0.578" y="0.593" font-size="0.020234" fill="hsl(180.0,100%,20%)">borenet</text>
<text x="0.837" y="0.609" font-size="0.020884" fill="hsl(180.0,100%,20%)">jcgregorio</text>
<text x="1.723" y="0.901" font-size="0.008170" fill="hsl(180.0,100%,20%)">hcm</text>
<text x="0.442" y="0.653" font-size="0.011361" fill="hsl(180.0,100%,20%)">djsollen</text>
<text x="1.088" y="0.204" font-size="0.006671" fill="hsl(0.0,100%,20%)">jreck</text>
<text x="1.211" y="0.571" font-size="0.057310" fill="hsl(180.0,100%,20%)">robertphillips</text>
<text x="0.599" y="0.530" font-size="0.015645" fill="hsl(180.0,100%,20%)">scroggo</text>
<text x="1.497" y="0.287" font-size="0.015065" fill="hsl(0.0,100%,20%)">ccameron</text>
<text x="0.174" y="0.703" font-size="0.026768" fill="hsl(180.0,100%,20%)">fmalita</text>
<text x="0.088" y="0.623" font-size="0.021514" fill="hsl(180.0,100%,20%)">jmbetancourt</text>
<text x="0.811" y="0.447" font-size="0.013834" fill="hsl(180.0,100%,20%)">drott</text>
<text x="0.391" y="0.609" font-size="0.019335" fill="hsl(180.0,100%,20%)">cmumford</text>
<text x="0.620" y="0.383" font-size="0.003654" fill="hsl(180.0,100%,20%)">dnfield</text>
<text x="0.681" y="0.478" font-size="0.008170" fill="hsl(180.0,100%,20%)">erikrose</text>
<text x="0.686" y="0.634" font-size="0.009195" fill="hsl(180.0,100%,20%)">nscobie</text>
<text x="1.660" y="0.953" font-size="0.006997" fill="hsl(180.0,100%,20%)">sharaks</text>
<text x="1.100" y="0.658" font-size="0.004717" fill="hsl(0.0,100%,20%)">iapres</text>
<text x="0.248" y="0.587" font-size="0.014463" fill="hsl(180.0,100%,20%)">lovisolo</text>
<text x="0.484" y="0.868" font-size="0.005167" fill="hsl(180.0,100%,20%)">tdenniston</text>
<text x="0.982" y="0.479" font-size="0.004717" fill="hsl(180.0,100%,20%)">wrightgeorge</text>
<text x="0.146" y="0.329" font-size="0.011555" fill="hsl(180.0,100%,20%)">jsimmons</text>
<text x="1.294" y="0.257" font-size="0.006671" fill="hsl(0.0,100%,20%)">kyslov</text>
<text x="1.378" y="0.900" font-size="0.008170" fill="hsl(180.0,100%,20%)">lehoangquyen</text>
<text x="0.154" y="0.845" font-size="0.008170" fill="hsl(180.0,100%,20%)">mike</text>
<text x="0.463" y="1.525" font-size="0.003654" fill="hsl(180.0,100%,20%)">nathbappai</text>
<text x="0.856" y="0.401" font-size="0.010962" fill="hsl(180.0,100%,20%)">penghuang</text>
<text x="0.786" y="0.509" font-size="0.004219" fill="hsl(180.0,100%,20%)">shuangshuang.zhou</text>
</svg>
