<svg width="4000" height="2000" viewBox="-0.025 -0.025 2.05 1.05" xmlns="http://www.w3.org/2000/svg">
  <style>
    path {
      fill: none;
      stroke-linecap: round;
      stroke-opacity: 0.4;
    }

    text {
      text-anchor: middle;
      alignment-baseline: hanging;
    }
  </style>
  <g opacity="0.4">
<path d="M0.402 0.867 Q0.302 0.809 0.167 0.845" stroke="hsl(0.0,100%,35%)" stroke-width="0.00396"></path>
<path d="M0.402 0.867 Q0.498 0.784 0.358 0.719" stroke="hsl(0.0,100%,35%)" stroke-width="0.00079"></path>
<path d="M0.402 0.867 Q1.481 0.652 1.298 0.079" stroke="hsl(0.0,100%,35%)" stroke-width="0.00158"></path>
<path d="M0.402 0.867 Q1.186 1.015 1.647 0.665" stroke="hsl(0.0,100%,35%)" stroke-width="0.00079"></path>
<path d="M0.402 0.867 Q0.677 0.731 0.472 0.567" stroke="hsl(0.0,100%,35%)" stroke-width="0.00237"></path>
<path d="M0.167 0.845 Q1.345 0.688 1.298 0.079" stroke="hsl(0.0,100%,35%)" stroke-width="0.00237"></path>
<path d="M0.167 0.845 Q0.267 0.903 0.402 0.867" stroke="hsl(0.0,100%,35%)" stroke-width="0.01028"></path>
<path d="M0.167 0.845 Q0.362 0.986 0.680 0.921" stroke="hsl(0.0,100%,35%)" stroke-width="0.00633"></path>
<path d="M0.167 0.845 Q0.541 0.767 0.472 0.567" stroke="hsl(0.0,100%,35%)" stroke-width="0.00633"></path>
<path d="M0.167 0.845 Q0.479 1.105 1.054 1.009" stroke="hsl(0.0,100%,35%)" stroke-width="0.00316"></path>
<path d="M0.167 0.845 Q0.909 0.876 1.131 0.520" stroke="hsl(0.0,100%,35%)" stroke-width="0.00396"></path>
<path d="M0.167 0.845 Q0.363 0.820 0.358 0.719" stroke="hsl(0.0,100%,35%)" stroke-width="0.01345"></path>
<path d="M0.167 0.845 Q0.782 1.050 1.316 0.795" stroke="hsl(0.0,100%,35%)" stroke-width="0.00396"></path>
<path d="M0.167 0.845 Q0.906 0.962 1.295 0.627" stroke="hsl(0.0,100%,35%)" stroke-width="0.00158"></path>
<path d="M0.167 0.845 Q1.051 1.051 1.647 0.665" stroke="hsl(0.0,100%,35%)" stroke-width="0.00316"></path>
<path d="M0.167 0.845 Q0.487 0.678 0.231 0.485" stroke="hsl(0.0,100%,35%)" stroke-width="0.00079"></path>
<path d="M0.167 0.845 Q1.075 0.610 0.816 0.116" stroke="hsl(0.0,100%,35%)" stroke-width="0.00079"></path>
<path d="M0.358 0.719 Q0.474 1.004 1.054 1.009" stroke="hsl(0.0,100%,35%)" stroke-width="0.01741"></path>
<path d="M0.358 0.719 Q0.357 0.885 0.680 0.921" stroke="hsl(0.0,100%,35%)" stroke-width="0.00554"></path>
<path d="M0.358 0.719 Q0.162 0.744 0.167 0.845" stroke="hsl(0.0,100%,35%)" stroke-width="0.00475"></path>
<path d="M0.358 0.719 Q0.536 0.666 0.472 0.567" stroke="hsl(0.0,100%,35%)" stroke-width="0.01028"></path>
<path d="M0.358 0.719 Q1.046 0.950 1.647 0.665" stroke="hsl(0.0,100%,35%)" stroke-width="0.00079"></path>
<path d="M0.358 0.719 Q0.777 0.949 1.316 0.795" stroke="hsl(0.0,100%,35%)" stroke-width="0.00791"></path>
<path d="M0.358 0.719 Q0.262 0.802 0.402 0.867" stroke="hsl(0.0,100%,35%)" stroke-width="0.00316"></path>
<path d="M0.358 0.719 Q0.904 0.774 1.131 0.520" stroke="hsl(0.0,100%,35%)" stroke-width="0.00079"></path>
<path d="M1.298 0.079 Q1.003 0.442 1.647 0.665" stroke="hsl(180.0,100%,35%)" stroke-width="0.00791"></path>
<path d="M1.298 0.079 Q0.735 0.441 1.316 0.795" stroke="hsl(180.0,100%,35%)" stroke-width="0.01820"></path>
<path d="M1.298 0.079 Q1.028 0.001 0.816 0.116" stroke="hsl(180.0,100%,35%)" stroke-width="0.03481"></path>
<path d="M1.298 0.079 Q1.173 0.139 1.263 0.214" stroke="hsl(180.0,100%,35%)" stroke-width="0.01028"></path>
<path d="M1.298 0.079 Q0.432 0.495 1.054 1.009" stroke="hsl(180.0,100%,35%)" stroke-width="0.00158"></path>
<path d="M1.298 0.079 Q0.862 0.266 1.131 0.520" stroke="hsl(180.0,100%,35%)" stroke-width="0.00712"></path>
<path d="M1.298 0.079 Q0.659 0.194 0.744 0.531" stroke="hsl(180.0,100%,35%)" stroke-width="0.00158"></path>
<path d="M1.298 0.079 Q1.445 0.271 1.851 0.241" stroke="hsl(180.0,100%,35%)" stroke-width="0.00079"></path>
<path d="M1.298 0.079 Q0.985 0.086 0.931 0.240" stroke="hsl(180.0,100%,35%)" stroke-width="0.00316"></path>
<path d="M1.298 0.079 Q0.878 0.165 0.953 0.389" stroke="hsl(180.0,100%,35%)" stroke-width="0.00396"></path>
<path d="M1.298 0.079 Q0.440 0.069 0.231 0.485" stroke="hsl(180.0,100%,35%)" stroke-width="0.00079"></path>
<path d="M1.298 0.079 Q0.858 0.352 1.295 0.627" stroke="hsl(180.0,100%,35%)" stroke-width="0.00079"></path>
<path d="M1.298 0.079 Q0.315 0.377 0.680 0.921" stroke="hsl(180.0,100%,35%)" stroke-width="0.00316"></path>
<path d="M1.298 0.079 Q1.228 -0.008 1.042 0.007" stroke="hsl(180.0,100%,35%)" stroke-width="0.00079"></path>
<path d="M1.298 0.079 Q0.503 0.288 0.736 0.722" stroke="hsl(180.0,100%,35%)" stroke-width="0.00079"></path>
<path d="M1.647 0.665 Q1.378 0.664 1.316 0.795" stroke="hsl(180.0,100%,35%)" stroke-width="0.03797"></path>
<path d="M1.647 0.665 Q0.959 0.600 0.680 0.921" stroke="hsl(180.0,100%,35%)" stroke-width="0.00712"></path>
<path d="M1.647 0.665 Q1.146 0.512 0.736 0.722" stroke="hsl(180.0,100%,35%)" stroke-width="0.00158"></path>
<path d="M1.647 0.665 Q0.959 0.434 0.358 0.719" stroke="hsl(180.0,100%,35%)" stroke-width="0.01028"></path>
<path d="M1.647 0.665 Q1.505 0.490 1.131 0.520" stroke="hsl(180.0,100%,35%)" stroke-width="0.00475"></path>
<path d="M1.647 0.665 Q0.763 0.459 0.167 0.845" stroke="hsl(180.0,100%,35%)" stroke-width="0.00316"></path>
<path d="M1.647 0.665 Q1.075 0.719 1.054 1.009" stroke="hsl(180.0,100%,35%)" stroke-width="0.00158"></path>
<path d="M1.647 0.665 Q1.138 0.381 0.472 0.567" stroke="hsl(180.0,100%,35%)" stroke-width="0.00237"></path>
<path d="M1.647 0.665 Q1.941 0.302 1.298 0.079" stroke="hsl(180.0,100%,35%)" stroke-width="0.01108"></path>
<path d="M1.647 0.665 Q0.863 0.517 0.402 0.867" stroke="hsl(180.0,100%,35%)" stroke-width="0.00396"></path>
<path d="M1.647 0.665 Q1.816 0.569 1.665 0.466" stroke="hsl(180.0,100%,35%)" stroke-width="0.00079"></path>
<path d="M1.647 0.665 Q1.671 0.224 0.816 0.116" stroke="hsl(180.0,100%,35%)" stroke-width="0.00316"></path>
<path d="M1.647 0.665 Q1.872 0.215 1.042 0.007" stroke="hsl(180.0,100%,35%)" stroke-width="0.00079"></path>
<path d="M1.647 0.665 Q1.502 0.576 1.295 0.627" stroke="hsl(180.0,100%,35%)" stroke-width="0.00791"></path>
<path d="M1.647 0.665 Q1.521 0.388 0.953 0.389" stroke="hsl(180.0,100%,35%)" stroke-width="0.00158"></path>
<path d="M1.647 0.665 Q1.083 0.292 0.231 0.485" stroke="hsl(180.0,100%,35%)" stroke-width="0.00079"></path>
<path d="M1.647 0.665 Q1.829 0.676 1.890 0.590" stroke="hsl(180.0,100%,35%)" stroke-width="0.00079"></path>
<path d="M0.472 0.567 Q0.293 0.620 0.358 0.719" stroke="hsl(0.0,100%,35%)" stroke-width="0.00712"></path>
<path d="M0.472 0.567 Q0.409 0.905 1.054 1.009" stroke="hsl(0.0,100%,35%)" stroke-width="0.00237"></path>
<path d="M0.472 0.567 Q0.839 0.676 1.131 0.520" stroke="hsl(0.0,100%,35%)" stroke-width="0.00158"></path>
<path d="M0.472 0.567 Q0.097 0.645 0.167 0.845" stroke="hsl(0.0,100%,35%)" stroke-width="0.00079"></path>
<path d="M0.472 0.567 Q0.981 0.851 1.647 0.665" stroke="hsl(0.0,100%,35%)" stroke-width="0.00079"></path>
<path d="M0.472 0.567 Q0.712 0.850 1.316 0.795" stroke="hsl(0.0,100%,35%)" stroke-width="0.00158"></path>
<path d="M1.316 0.795 Q1.585 0.796 1.647 0.665" stroke="hsl(180.0,100%,35%)" stroke-width="0.00712"></path>
<path d="M1.316 0.795 Q1.013 0.850 1.054 1.009" stroke="hsl(180.0,100%,35%)" stroke-width="0.00079"></path>
<path d="M1.316 0.795 Q0.897 0.565 0.358 0.719" stroke="hsl(180.0,100%,35%)" stroke-width="0.00475"></path>
<path d="M1.316 0.795 Q1.459 0.519 0.953 0.389" stroke="hsl(180.0,100%,35%)" stroke-width="0.00079"></path>
<path d="M1.316 0.795 Q1.609 0.355 0.816 0.116" stroke="hsl(180.0,100%,35%)" stroke-width="0.00079"></path>
<path d="M1.316 0.795 Q1.880 0.433 1.298 0.079" stroke="hsl(180.0,100%,35%)" stroke-width="0.00079"></path>
<path d="M1.316 0.795 Q1.440 0.707 1.295 0.627" stroke="hsl(180.0,100%,35%)" stroke-width="0.00079"></path>
<path d="M1.054 1.009 Q0.938 0.891 0.680 0.921" stroke="hsl(0.0,100%,35%)" stroke-width="0.02769"></path>
<path d="M1.054 1.009 Q0.938 0.725 0.358 0.719" stroke="hsl(0.0,100%,35%)" stroke-width="0.00633"></path>
<path d="M1.054 1.009 Q1.484 0.780 1.131 0.520" stroke="hsl(0.0,100%,35%)" stroke-width="0.00475"></path>
<path d="M1.054 1.009 Q1.357 0.955 1.316 0.795" stroke="hsl(0.0,100%,35%)" stroke-width="0.00079"></path>
<path d="M1.054 1.009 Q1.920 0.593 1.298 0.079" stroke="hsl(0.0,100%,35%)" stroke-width="0.00158"></path>
<path d="M0.953 0.389 Q0.507 0.719 1.054 1.009" stroke="hsl(180.0,100%,35%)" stroke-width="0.00079"></path>
<path d="M0.953 0.389 Q0.734 0.418 0.744 0.531" stroke="hsl(180.0,100%,35%)" stroke-width="0.00237"></path>
<path d="M0.953 0.389 Q1.373 0.303 1.298 0.079" stroke="hsl(180.0,100%,35%)" stroke-width="0.00079"></path>
<path d="M0.953 0.389 Q1.103 0.225 0.816 0.116" stroke="hsl(180.0,100%,35%)" stroke-width="0.00237"></path>
<path d="M0.953 0.389 Q0.810 0.664 1.316 0.795" stroke="hsl(180.0,100%,35%)" stroke-width="0.00079"></path>
<path d="M0.816 0.116 Q0.523 0.555 1.316 0.795" stroke="hsl(180.0,100%,35%)" stroke-width="0.00870"></path>
<path d="M0.816 0.116 Q0.792 0.557 1.647 0.665" stroke="hsl(180.0,100%,35%)" stroke-width="0.00316"></path>
<path d="M0.816 0.116 Q0.647 0.467 1.295 0.627" stroke="hsl(180.0,100%,35%)" stroke-width="0.00158"></path>
<path d="M0.816 0.116 Q1.086 0.194 1.298 0.079" stroke="hsl(180.0,100%,35%)" stroke-width="0.00475"></path>
<path d="M0.816 0.116 Q0.228 0.183 0.231 0.485" stroke="hsl(180.0,100%,35%)" stroke-width="0.00079"></path>
<path d="M0.816 0.116 Q0.557 0.150 0.567 0.283" stroke="hsl(180.0,100%,35%)" stroke-width="0.00079"></path>
<path d="M0.816 0.116 Q0.650 0.381 1.131 0.520" stroke="hsl(180.0,100%,35%)" stroke-width="0.00079"></path>
<path d="M1.295 0.627 Q1.172 0.715 1.316 0.795" stroke="hsl(180.0,100%,35%)" stroke-width="0.00633"></path>
<path d="M1.295 0.627 Q0.556 0.510 0.167 0.845" stroke="hsl(180.0,100%,35%)" stroke-width="0.00316"></path>
<path d="M1.295 0.627 Q1.735 0.353 1.298 0.079" stroke="hsl(180.0,100%,35%)" stroke-width="0.00158"></path>
<path d="M1.295 0.627 Q1.465 0.275 0.816 0.116" stroke="hsl(180.0,100%,35%)" stroke-width="0.00079"></path>
<path d="M1.131 0.520 Q0.701 0.749 1.054 1.009" stroke="hsl(0.0,100%,35%)" stroke-width="0.00237"></path>
<path d="M1.131 0.520 Q0.764 0.412 0.472 0.567" stroke="hsl(0.0,100%,35%)" stroke-width="0.00158"></path>
<path d="M1.131 0.520 Q0.585 0.630 0.680 0.921" stroke="hsl(0.0,100%,35%)" stroke-width="0.00633"></path>
<path d="M1.131 0.520 Q1.273 0.696 1.647 0.665" stroke="hsl(0.0,100%,35%)" stroke-width="0.00079"></path>
<path d="M1.131 0.520 Q0.389 0.490 0.167 0.845" stroke="hsl(0.0,100%,35%)" stroke-width="0.00237"></path>
<path d="M1.131 0.520 Q0.585 0.465 0.358 0.719" stroke="hsl(0.0,100%,35%)" stroke-width="0.00554"></path>
<path d="M1.131 0.520 Q1.567 0.333 1.298 0.079" stroke="hsl(0.0,100%,35%)" stroke-width="0.00079"></path>
<path d="M1.131 0.520 Q0.772 0.542 0.736 0.722" stroke="hsl(0.0,100%,35%)" stroke-width="0.00079"></path>
<path d="M1.131 0.520 Q1.004 0.694 1.316 0.795" stroke="hsl(0.0,100%,35%)" stroke-width="0.00079"></path>
<path d="M0.680 0.921 Q1.226 0.811 1.131 0.520" stroke="hsl(0.0,100%,35%)" stroke-width="0.00949"></path>
<path d="M0.680 0.921 Q0.796 1.040 1.054 1.009" stroke="hsl(0.0,100%,35%)" stroke-width="0.00158"></path>
<path d="M0.680 0.921 Q1.663 0.624 1.298 0.079" stroke="hsl(0.0,100%,35%)" stroke-width="0.00158"></path>
<path d="M0.680 0.921 Q0.680 0.756 0.358 0.719" stroke="hsl(0.0,100%,35%)" stroke-width="0.00079"></path>
<path d="M0.680 0.921 Q0.867 0.833 0.736 0.722" stroke="hsl(0.0,100%,35%)" stroke-width="0.00079"></path>
<path d="M0.680 0.921 Q1.099 0.985 1.316 0.795" stroke="hsl(0.0,100%,35%)" stroke-width="0.00079"></path>
<path d="M0.680 0.921 Q0.859 0.703 0.472 0.567" stroke="hsl(0.0,100%,35%)" stroke-width="0.00079"></path>
<path d="M0.680 0.921 Q0.484 0.780 0.167 0.845" stroke="hsl(0.0,100%,35%)" stroke-width="0.00158"></path>
<path d="M0.736 0.722 Q1.237 0.876 1.647 0.665" stroke="hsl(180.0,100%,35%)" stroke-width="0.00237"></path>
<path d="M0.736 0.722 Q0.673 0.502 0.231 0.485" stroke="hsl(180.0,100%,35%)" stroke-width="0.00237"></path>
<path d="M0.736 0.722 Q0.549 0.810 0.680 0.921" stroke="hsl(180.0,100%,35%)" stroke-width="0.00079"></path>
<path d="M0.736 0.722 Q0.665 0.929 1.054 1.009" stroke="hsl(180.0,100%,35%)" stroke-width="0.00237"></path>
<path d="M1.383 0.393 Q1.155 0.406 1.131 0.520" stroke="hsl(0.0,100%,35%)" stroke-width="0.00237"></path>
<path d="M1.383 0.393 Q0.609 0.351 0.358 0.719" stroke="hsl(0.0,100%,35%)" stroke-width="0.00079"></path>
<path d="M1.383 0.393 Q0.788 0.298 0.472 0.567" stroke="hsl(0.0,100%,35%)" stroke-width="0.00079"></path>
<path d="M1.263 0.214 Q1.388 0.153 1.298 0.079" stroke="hsl(180.0,100%,35%)" stroke-width="0.02136"></path>
<path d="M1.263 0.214 Q1.094 0.516 1.647 0.665" stroke="hsl(180.0,100%,35%)" stroke-width="0.00158"></path>
<path d="M1.263 0.214 Q1.535 0.345 1.851 0.241" stroke="hsl(180.0,100%,35%)" stroke-width="0.00079"></path>
<path d="M0.292 0.322 Q0.131 0.391 0.231 0.485" stroke="hsl(180.0,100%,35%)" stroke-width="0.00158"></path>
<path d="M0.292 0.322 Q0.426 0.763 1.316 0.795" stroke="hsl(180.0,100%,35%)" stroke-width="0.00079"></path>
<path d="M0.292 0.322 Q0.550 0.675 1.295 0.627" stroke="hsl(180.0,100%,35%)" stroke-width="0.00079"></path>
</g>
<text x="0.402" y="0.851" font-size="0.032802" fill="hsl(0.0,100%,20%)">armansito</text>
<text x="0.167" y="0.817" font-size="0.055118" fill="hsl(0.0,100%,20%)">jvanverth</text>
<text x="0.358" y="0.688" font-size="0.063395" fill="hsl(0.0,100%,20%)">michaelludwig</text>
<text x="1.298" y="0.041" font-size="0.075891" fill="hsl(180.0,100%,20%)">kjlubick</text>
<text x="1.647" y="0.630" font-size="0.071600" fill="hsl(180.0,100%,20%)">johnstiles</text>
<text x="0.472" y="0.548" font-size="0.039378" fill="hsl(0.0,100%,20%)">jamesgk</text>
<text x="1.316" y="0.762" font-size="0.064631" fill="hsl(180.0,100%,20%)">brianosman</text>
<text x="1.054" y="0.982" font-size="0.054830" fill="hsl(0.0,100%,20%)">robertphillips</text>
<text x="0.953" y="0.377" font-size="0.023194" fill="hsl(180.0,100%,20%)">fmalita</text>
<text x="0.816" y="0.090" font-size="0.050315" fill="hsl(180.0,100%,20%)">bungeman</text>
<text x="1.295" y="0.611" font-size="0.031822" fill="hsl(180.0,100%,20%)">herb</text>
<text x="0.231" y="0.477" font-size="0.016876" fill="hsl(180.0,100%,20%)">scroggo</text>
<text x="0.567" y="0.280" font-size="0.005625" fill="hsl(180.0,100%,20%)">jreck</text>
<text x="1.131" y="0.496" font-size="0.047733" fill="hsl(0.0,100%,20%)">egdaniel</text>
<text x="0.680" y="0.894" font-size="0.054541" fill="hsl(0.0,100%,20%)">nicolettep</text>
<text x="0.736" y="0.711" font-size="0.021787" fill="hsl(180.0,100%,20%)">nscobie</text>
<text x="0.744" y="0.525" font-size="0.012579" fill="hsl(180.0,100%,20%)">jmbetancourt</text>
<text x="1.383" y="0.387" font-size="0.012579" fill="hsl(0.0,100%,20%)">hitawala</text>
<text x="1.665" y="0.463" font-size="0.005625" fill="hsl(180.0,100%,20%)">djsollen</text>
<text x="1.042" y="0.003" font-size="0.007956" fill="hsl(180.0,100%,20%)">jcgregorio</text>
<text x="1.890" y="0.587" font-size="0.005625" fill="hsl(180.0,100%,20%)">rmistry</text>
<text x="1.263" y="0.195" font-size="0.036888" fill="hsl(180.0,100%,20%)">lovisolo</text>
<text x="1.851" y="0.237" font-size="0.007956" fill="hsl(180.0,100%,20%)">borenet</text>
<text x="0.931" y="0.235" font-size="0.011251" fill="hsl(180.0,100%,20%)">jlavrova</text>
<text x="0.292" y="0.316" font-size="0.011251" fill="hsl(180.0,100%,20%)">nigeltao</text>
</svg>
