<svg width="4000" height="2000" viewBox="-0.025 -0.025 2.05 1.05" xmlns="http://www.w3.org/2000/svg">
  <style>
    path {
      fill: none;
      stroke-linecap: round;
      stroke-opacity: 0.4;
    }

    text {
      text-anchor: middle;
      alignment-baseline: hanging;
    }
  </style>
  <g opacity="0.4">
<path d="M1.074 0.612 Q1.195 0.654 1.303 0.605" stroke="hsl(0.0,100%,35%)" stroke-width="0.00395"></path>
<path d="M1.074 0.612 Q1.516 0.745 1.872 0.558" stroke="hsl(0.0,100%,35%)" stroke-width="0.00079"></path>
<path d="M1.074 0.612 Q0.784 0.362 0.231 0.449" stroke="hsl(0.0,100%,35%)" stroke-width="0.00158"></path>
<path d="M1.074 0.612 Q1.037 0.711 1.221 0.750" stroke="hsl(0.0,100%,35%)" stroke-width="0.00079"></path>
<path d="M1.074 0.612 Q1.463 0.643 1.607 0.460" stroke="hsl(0.0,100%,35%)" stroke-width="0.00237"></path>
<path d="M1.303 0.605 Q0.892 0.312 0.231 0.449" stroke="hsl(0.0,100%,35%)" stroke-width="0.00237"></path>
<path d="M1.303 0.605 Q1.183 0.563 1.074 0.612" stroke="hsl(0.0,100%,35%)" stroke-width="0.01027"></path>
<path d="M1.303 0.605 Q1.012 0.388 0.525 0.483" stroke="hsl(0.0,100%,35%)" stroke-width="0.00632"></path>
<path d="M1.303 0.605 Q1.572 0.593 1.607 0.460" stroke="hsl(0.0,100%,35%)" stroke-width="0.00632"></path>
<path d="M1.303 0.605 Q1.080 0.320 0.475 0.366" stroke="hsl(0.0,100%,35%)" stroke-width="0.00316"></path>
<path d="M1.303 0.605 Q1.495 0.258 0.860 0.089" stroke="hsl(0.0,100%,35%)" stroke-width="0.00395"></path>
<path d="M1.303 0.605 Q1.625 0.695 1.872 0.558" stroke="hsl(0.0,100%,35%)" stroke-width="0.01343"></path>
<path d="M1.303 0.605 Q1.060 0.722 1.235 0.867" stroke="hsl(0.0,100%,35%)" stroke-width="0.00395"></path>
<path d="M1.303 0.605 Q0.946 0.630 0.917 0.810" stroke="hsl(0.0,100%,35%)" stroke-width="0.00158"></path>
<path d="M1.303 0.605 Q1.146 0.661 1.221 0.750" stroke="hsl(0.0,100%,35%)" stroke-width="0.00316"></path>
<path d="M1.303 0.605 Q0.560 0.575 0.338 0.931" stroke="hsl(0.0,100%,35%)" stroke-width="0.00079"></path>
<path d="M1.303 0.605 Q0.940 0.210 0.090 0.301" stroke="hsl(0.0,100%,35%)" stroke-width="0.00079"></path>
<path d="M1.872 0.558 Q1.327 0.182 0.475 0.366" stroke="hsl(0.0,100%,35%)" stroke-width="0.01738"></path>
<path d="M1.872 0.558 Q1.258 0.251 0.525 0.483" stroke="hsl(0.0,100%,35%)" stroke-width="0.00553"></path>
<path d="M1.872 0.558 Q1.550 0.468 1.303 0.605" stroke="hsl(0.0,100%,35%)" stroke-width="0.00474"></path>
<path d="M1.872 0.558 Q1.818 0.456 1.607 0.460" stroke="hsl(0.0,100%,35%)" stroke-width="0.01027"></path>
<path d="M1.872 0.558 Q1.392 0.524 1.221 0.750" stroke="hsl(0.0,100%,35%)" stroke-width="0.00079"></path>
<path d="M1.872 0.558 Q1.306 0.585 1.235 0.867" stroke="hsl(0.0,100%,35%)" stroke-width="0.00790"></path>
<path d="M1.872 0.558 Q1.429 0.426 1.074 0.612" stroke="hsl(0.0,100%,35%)" stroke-width="0.00316"></path>
<path d="M1.872 0.558 Q1.741 0.121 0.860 0.089" stroke="hsl(0.0,100%,35%)" stroke-width="0.00079"></path>
<path d="M0.231 0.449 Q0.485 0.797 1.221 0.750" stroke="hsl(180.0,100%,35%)" stroke-width="0.00790"></path>
<path d="M0.231 0.449 Q0.399 0.859 1.235 0.867" stroke="hsl(180.0,100%,35%)" stroke-width="0.01817"></path>
<path d="M0.231 0.449 Q0.279 0.346 0.090 0.301" stroke="hsl(180.0,100%,35%)" stroke-width="0.03476"></path>
<path d="M0.231 0.449 Q0.079 0.596 0.333 0.702" stroke="hsl(180.0,100%,35%)" stroke-width="0.01027"></path>
<path d="M0.231 0.449 Q0.419 0.456 0.475 0.366" stroke="hsl(180.0,100%,35%)" stroke-width="0.00158"></path>
<path d="M0.231 0.449 Q0.834 0.394 0.860 0.089" stroke="hsl(180.0,100%,35%)" stroke-width="0.00711"></path>
<path d="M0.231 0.449 Q-0.003 0.782 0.597 0.970" stroke="hsl(180.0,100%,35%)" stroke-width="0.00158"></path>
<path d="M0.231 0.449 Q0.192 0.528 0.339 0.565" stroke="hsl(180.0,100%,35%)" stroke-width="0.00079"></path>
<path d="M0.231 0.449 Q0.050 0.491 0.093 0.588" stroke="hsl(180.0,100%,35%)" stroke-width="0.00316"></path>
<path d="M0.231 0.449 Q0.161 0.720 0.675 0.814" stroke="hsl(180.0,100%,35%)" stroke-width="0.00395"></path>
<path d="M0.231 0.449 Q-0.101 0.711 0.338 0.931" stroke="hsl(180.0,100%,35%)" stroke-width="0.00079"></path>
<path d="M0.231 0.449 Q0.285 0.767 0.917 0.810" stroke="hsl(180.0,100%,35%)" stroke-width="0.00079"></path>
<path d="M0.231 0.449 Q0.351 0.525 0.525 0.483" stroke="hsl(180.0,100%,35%)" stroke-width="0.00316"></path>
<path d="M0.231 0.449 Q0.318 0.370 0.183 0.310" stroke="hsl(180.0,100%,35%)" stroke-width="0.00079"></path>
<path d="M0.231 0.449 Q0.256 0.622 0.600 0.648" stroke="hsl(180.0,100%,35%)" stroke-width="0.00079"></path>
<path d="M1.221 0.750 Q1.135 0.812 1.235 0.867" stroke="hsl(180.0,100%,35%)" stroke-width="0.03791"></path>
<path d="M1.221 0.750 Q1.087 0.478 0.525 0.483" stroke="hsl(180.0,100%,35%)" stroke-width="0.00711"></path>
<path d="M1.221 0.750 Q0.992 0.575 0.600 0.648" stroke="hsl(180.0,100%,35%)" stroke-width="0.00158"></path>
<path d="M1.221 0.750 Q1.700 0.784 1.872 0.558" stroke="hsl(180.0,100%,35%)" stroke-width="0.01027"></path>
<path d="M1.221 0.750 Q1.570 0.347 0.860 0.089" stroke="hsl(180.0,100%,35%)" stroke-width="0.00474"></path>
<path d="M1.221 0.750 Q1.378 0.694 1.303 0.605" stroke="hsl(180.0,100%,35%)" stroke-width="0.00316"></path>
<path d="M1.221 0.750 Q1.155 0.409 0.475 0.366" stroke="hsl(180.0,100%,35%)" stroke-width="0.00237"></path>
<path d="M1.221 0.750 Q1.647 0.682 1.607 0.460" stroke="hsl(180.0,100%,35%)" stroke-width="0.00237"></path>
<path d="M1.221 0.750 Q0.967 0.402 0.231 0.449" stroke="hsl(180.0,100%,35%)" stroke-width="0.01106"></path>
<path d="M1.221 0.750 Q1.258 0.652 1.074 0.612" stroke="hsl(180.0,100%,35%)" stroke-width="0.00395"></path>
<path d="M1.221 0.750 Q1.225 0.849 1.419 0.869" stroke="hsl(180.0,100%,35%)" stroke-width="0.00079"></path>
<path d="M1.221 0.750 Q1.015 0.299 0.090 0.301" stroke="hsl(180.0,100%,35%)" stroke-width="0.00316"></path>
<path d="M1.221 0.750 Q1.054 0.323 0.183 0.310" stroke="hsl(180.0,100%,35%)" stroke-width="0.00079"></path>
<path d="M1.221 0.750 Q1.021 0.720 0.917 0.810" stroke="hsl(180.0,100%,35%)" stroke-width="0.00790"></path>
<path d="M1.221 0.750 Q0.897 0.673 0.675 0.814" stroke="hsl(180.0,100%,35%)" stroke-width="0.00158"></path>
<path d="M1.221 0.750 Q0.635 0.664 0.338 0.931" stroke="hsl(180.0,100%,35%)" stroke-width="0.00079"></path>
<path d="M1.221 0.750 Q1.169 0.657 0.976 0.662" stroke="hsl(180.0,100%,35%)" stroke-width="0.00079"></path>
<path d="M1.607 0.460 Q1.661 0.562 1.872 0.558" stroke="hsl(0.0,100%,35%)" stroke-width="0.00711"></path>
<path d="M1.607 0.460 Q1.116 0.186 0.475 0.366" stroke="hsl(0.0,100%,35%)" stroke-width="0.00237"></path>
<path d="M1.607 0.460 Q1.530 0.125 0.860 0.089" stroke="hsl(0.0,100%,35%)" stroke-width="0.00158"></path>
<path d="M1.607 0.460 Q1.339 0.471 1.303 0.605" stroke="hsl(0.0,100%,35%)" stroke-width="0.00079"></path>
<path d="M1.607 0.460 Q1.181 0.528 1.221 0.750" stroke="hsl(0.0,100%,35%)" stroke-width="0.00079"></path>
<path d="M1.607 0.460 Q1.096 0.589 1.235 0.867" stroke="hsl(0.0,100%,35%)" stroke-width="0.00158"></path>
<path d="M1.235 0.867 Q1.321 0.806 1.221 0.750" stroke="hsl(180.0,100%,35%)" stroke-width="0.00711"></path>
<path d="M1.235 0.867 Q1.256 0.464 0.475 0.366" stroke="hsl(180.0,100%,35%)" stroke-width="0.00079"></path>
<path d="M1.235 0.867 Q1.801 0.840 1.872 0.558" stroke="hsl(180.0,100%,35%)" stroke-width="0.00474"></path>
<path d="M1.235 0.867 Q0.998 0.728 0.675 0.814" stroke="hsl(180.0,100%,35%)" stroke-width="0.00079"></path>
<path d="M1.235 0.867 Q1.115 0.355 0.090 0.301" stroke="hsl(180.0,100%,35%)" stroke-width="0.00079"></path>
<path d="M1.235 0.867 Q1.068 0.457 0.231 0.449" stroke="hsl(180.0,100%,35%)" stroke-width="0.00079"></path>
<path d="M1.235 0.867 Q1.121 0.775 0.917 0.810" stroke="hsl(180.0,100%,35%)" stroke-width="0.00079"></path>
<path d="M0.475 0.366 Q0.406 0.434 0.525 0.483" stroke="hsl(0.0,100%,35%)" stroke-width="0.02765"></path>
<path d="M0.475 0.366 Q1.019 0.741 1.872 0.558" stroke="hsl(0.0,100%,35%)" stroke-width="0.00632"></path>
<path d="M0.475 0.366 Q0.889 0.304 0.860 0.089" stroke="hsl(0.0,100%,35%)" stroke-width="0.00474"></path>
<path d="M0.475 0.366 Q0.454 0.768 1.235 0.867" stroke="hsl(0.0,100%,35%)" stroke-width="0.00079"></path>
<path d="M0.475 0.366 Q0.287 0.359 0.231 0.449" stroke="hsl(0.0,100%,35%)" stroke-width="0.00158"></path>
<path d="M0.675 0.814 Q0.933 0.550 0.475 0.366" stroke="hsl(180.0,100%,35%)" stroke-width="0.00079"></path>
<path d="M0.675 0.814 Q0.511 0.876 0.597 0.970" stroke="hsl(180.0,100%,35%)" stroke-width="0.00237"></path>
<path d="M0.675 0.814 Q0.745 0.542 0.231 0.449" stroke="hsl(180.0,100%,35%)" stroke-width="0.00079"></path>
<path d="M0.675 0.814 Q0.793 0.440 0.090 0.301" stroke="hsl(180.0,100%,35%)" stroke-width="0.00237"></path>
<path d="M0.675 0.814 Q0.913 0.952 1.235 0.867" stroke="hsl(180.0,100%,35%)" stroke-width="0.00079"></path>
<path d="M0.090 0.301 Q0.210 0.813 1.235 0.867" stroke="hsl(180.0,100%,35%)" stroke-width="0.00869"></path>
<path d="M0.090 0.301 Q0.296 0.752 1.221 0.750" stroke="hsl(180.0,100%,35%)" stroke-width="0.00316"></path>
<path d="M0.090 0.301 Q0.096 0.721 0.917 0.810" stroke="hsl(180.0,100%,35%)" stroke-width="0.00158"></path>
<path d="M0.090 0.301 Q0.042 0.403 0.231 0.449" stroke="hsl(180.0,100%,35%)" stroke-width="0.00474"></path>
<path d="M0.090 0.301 Q-0.290 0.665 0.338 0.931" stroke="hsl(180.0,100%,35%)" stroke-width="0.00079"></path>
<path d="M0.090 0.301 Q0.286 0.255 0.239 0.149" stroke="hsl(180.0,100%,35%)" stroke-width="0.00079"></path>
<path d="M0.090 0.301 Q0.645 0.349 0.860 0.089" stroke="hsl(180.0,100%,35%)" stroke-width="0.00079"></path>
<path d="M0.917 0.810 Q1.031 0.902 1.235 0.867" stroke="hsl(180.0,100%,35%)" stroke-width="0.00632"></path>
<path d="M0.917 0.810 Q1.275 0.785 1.303 0.605" stroke="hsl(180.0,100%,35%)" stroke-width="0.00316"></path>
<path d="M0.917 0.810 Q0.863 0.492 0.231 0.449" stroke="hsl(180.0,100%,35%)" stroke-width="0.00158"></path>
<path d="M0.917 0.810 Q0.911 0.390 0.090 0.301" stroke="hsl(180.0,100%,35%)" stroke-width="0.00079"></path>
<path d="M0.860 0.089 Q0.446 0.150 0.475 0.366" stroke="hsl(0.0,100%,35%)" stroke-width="0.00237"></path>
<path d="M0.860 0.089 Q0.937 0.424 1.607 0.460" stroke="hsl(0.0,100%,35%)" stroke-width="0.00158"></path>
<path d="M0.860 0.089 Q0.377 0.219 0.525 0.483" stroke="hsl(0.0,100%,35%)" stroke-width="0.00632"></path>
<path d="M0.860 0.089 Q0.511 0.492 1.221 0.750" stroke="hsl(0.0,100%,35%)" stroke-width="0.00079"></path>
<path d="M0.860 0.089 Q0.669 0.435 1.303 0.605" stroke="hsl(0.0,100%,35%)" stroke-width="0.00237"></path>
<path d="M0.860 0.089 Q0.991 0.526 1.872 0.558" stroke="hsl(0.0,100%,35%)" stroke-width="0.00553"></path>
<path d="M0.860 0.089 Q0.258 0.143 0.231 0.449" stroke="hsl(0.0,100%,35%)" stroke-width="0.00079"></path>
<path d="M0.860 0.089 Q0.282 0.317 0.600 0.648" stroke="hsl(0.0,100%,35%)" stroke-width="0.00079"></path>
<path d="M0.860 0.089 Q0.425 0.553 1.235 0.867" stroke="hsl(0.0,100%,35%)" stroke-width="0.00079"></path>
<path d="M0.525 0.483 Q1.008 0.353 0.860 0.089" stroke="hsl(0.0,100%,35%)" stroke-width="0.00948"></path>
<path d="M0.525 0.483 Q0.594 0.414 0.475 0.366" stroke="hsl(0.0,100%,35%)" stroke-width="0.00158"></path>
<path d="M0.525 0.483 Q0.406 0.407 0.231 0.449" stroke="hsl(0.0,100%,35%)" stroke-width="0.00158"></path>
<path d="M0.525 0.483 Q1.138 0.790 1.872 0.558" stroke="hsl(0.0,100%,35%)" stroke-width="0.00079"></path>
<path d="M0.525 0.483 Q0.430 0.581 0.600 0.648" stroke="hsl(0.0,100%,35%)" stroke-width="0.00079"></path>
<path d="M0.525 0.483 Q0.573 0.817 1.235 0.867" stroke="hsl(0.0,100%,35%)" stroke-width="0.00079"></path>
<path d="M0.525 0.483 Q1.085 0.688 1.607 0.460" stroke="hsl(0.0,100%,35%)" stroke-width="0.00079"></path>
<path d="M0.525 0.483 Q0.817 0.700 1.303 0.605" stroke="hsl(0.0,100%,35%)" stroke-width="0.00158"></path>
<path d="M0.600 0.648 Q0.829 0.823 1.221 0.750" stroke="hsl(180.0,100%,35%)" stroke-width="0.00237"></path>
<path d="M0.600 0.648 Q0.243 0.737 0.338 0.931" stroke="hsl(180.0,100%,35%)" stroke-width="0.00237"></path>
<path d="M0.600 0.648 Q0.695 0.551 0.525 0.483" stroke="hsl(180.0,100%,35%)" stroke-width="0.00079"></path>
<path d="M0.600 0.648 Q0.763 0.482 0.475 0.366" stroke="hsl(180.0,100%,35%)" stroke-width="0.00237"></path>
<path d="M1.098 0.135 Q1.016 0.064 0.860 0.089" stroke="hsl(0.0,100%,35%)" stroke-width="0.00237"></path>
<path d="M1.098 0.135 Q1.147 0.501 1.872 0.558" stroke="hsl(0.0,100%,35%)" stroke-width="0.00079"></path>
<path d="M1.098 0.135 Q1.093 0.399 1.607 0.460" stroke="hsl(0.0,100%,35%)" stroke-width="0.00079"></path>
<path d="M0.333 0.702 Q0.485 0.555 0.231 0.449" stroke="hsl(180.0,100%,35%)" stroke-width="0.02133"></path>
<path d="M0.333 0.702 Q0.738 0.904 1.221 0.750" stroke="hsl(180.0,100%,35%)" stroke-width="0.00158"></path>
<path d="M0.333 0.702 Q0.446 0.635 0.339 0.565" stroke="hsl(180.0,100%,35%)" stroke-width="0.00079"></path>
<path d="M0.280 0.791 Q0.198 0.872 0.338 0.931" stroke="hsl(180.0,100%,35%)" stroke-width="0.00158"></path>
<path d="M0.280 0.791 Q0.697 1.020 1.235 0.867" stroke="hsl(180.0,100%,35%)" stroke-width="0.00079"></path>
<path d="M0.280 0.791 Q0.583 0.928 0.917 0.810" stroke="hsl(180.0,100%,35%)" stroke-width="0.00079"></path>
</g>
<text x="1.074" y="0.596" font-size="0.032776" fill="hsl(0.0,100%,20%)">armansito</text>
<text x="1.303" y="0.577" font-size="0.055074" fill="hsl(0.0,100%,20%)">jvanverth</text>
<text x="1.872" y="0.526" font-size="0.063345" fill="hsl(0.0,100%,20%)">michaelludwig</text>
<text x="0.231" y="0.411" font-size="0.075831" fill="hsl(180.0,100%,20%)">kjlubick</text>
<text x="1.221" y="0.714" font-size="0.071764" fill="hsl(180.0,100%,20%)">johnstiles</text>
<text x="1.607" y="0.440" font-size="0.039347" fill="hsl(0.0,100%,20%)">jamesgk</text>
<text x="1.235" y="0.835" font-size="0.064580" fill="hsl(180.0,100%,20%)">brianosman</text>
<text x="0.475" y="0.338" font-size="0.055074" fill="hsl(0.0,100%,20%)">robertphillips</text>
<text x="0.675" y="0.802" font-size="0.023176" fill="hsl(180.0,100%,20%)">fmalita</text>
<text x="0.090" y="0.276" font-size="0.050276" fill="hsl(180.0,100%,20%)">bungeman</text>
<text x="0.917" y="0.794" font-size="0.031797" fill="hsl(180.0,100%,20%)">herb</text>
<text x="0.338" y="0.922" font-size="0.016863" fill="hsl(180.0,100%,20%)">scroggo</text>
<text x="0.239" y="0.146" font-size="0.005621" fill="hsl(180.0,100%,20%)">jreck</text>
<text x="0.860" y="0.065" font-size="0.047696" fill="hsl(0.0,100%,20%)">egdaniel</text>
<text x="0.525" y="0.456" font-size="0.054498" fill="hsl(0.0,100%,20%)">nicolettep</text>
<text x="0.600" y="0.637" font-size="0.021770" fill="hsl(180.0,100%,20%)">nscobie</text>
<text x="0.597" y="0.964" font-size="0.012569" fill="hsl(180.0,100%,20%)">jmbetancourt</text>
<text x="1.098" y="0.129" font-size="0.012569" fill="hsl(0.0,100%,20%)">hitawala</text>
<text x="1.419" y="0.866" font-size="0.005621" fill="hsl(180.0,100%,20%)">djsollen</text>
<text x="0.183" y="0.306" font-size="0.007949" fill="hsl(180.0,100%,20%)">jcgregorio</text>
<text x="0.976" y="0.659" font-size="0.005621" fill="hsl(180.0,100%,20%)">rmistry</text>
<text x="0.333" y="0.684" font-size="0.036859" fill="hsl(180.0,100%,20%)">lovisolo</text>
<text x="0.339" y="0.561" font-size="0.007949" fill="hsl(180.0,100%,20%)">borenet</text>
<text x="0.093" y="0.583" font-size="0.011242" fill="hsl(180.0,100%,20%)">jlavrova</text>
<text x="0.280" y="0.785" font-size="0.011242" fill="hsl(180.0,100%,20%)">nigeltao</text>
</svg>
