<svg width="4000" height="2000" viewBox="-0.025 -0.025 2.05 1.05" xmlns="http://www.w3.org/2000/svg">
  <style>
    path {
      fill: none;
      stroke-linecap: round;
      stroke-opacity: 0.4;
    }

    text {
      text-anchor: middle;
      alignment-baseline: hanging;
    }
  </style>
  <g opacity="0.4">
<path d="M0.373 0.732 Q1.022 0.677 1.056 0.348" stroke="hsl(0.0,100%,35%)" stroke-width="0.00822"></path>
<path d="M0.373 0.732 Q0.479 0.637 0.317 0.564" stroke="hsl(0.0,100%,35%)" stroke-width="0.00371"></path>
<path d="M0.373 0.732 Q0.807 0.622 0.688 0.386" stroke="hsl(0.0,100%,35%)" stroke-width="0.00580"></path>
<path d="M0.373 0.732 Q0.582 0.575 0.322 0.439" stroke="hsl(0.0,100%,35%)" stroke-width="0.00161"></path>
<path d="M0.373 0.732 Q1.320 0.598 1.267 0.107" stroke="hsl(0.0,100%,35%)" stroke-width="0.00129"></path>
<path d="M0.373 0.732 Q1.443 0.658 1.533 0.120" stroke="hsl(0.0,100%,35%)" stroke-width="0.00016"></path>
<path d="M0.373 0.732 Q0.834 0.684 0.841 0.449" stroke="hsl(0.0,100%,35%)" stroke-width="0.00064"></path>
<path d="M0.373 0.732 Q0.615 0.710 0.626 0.587" stroke="hsl(0.0,100%,35%)" stroke-width="0.00016"></path>
<path d="M0.373 0.732 Q0.878 0.752 1.029 0.511" stroke="hsl(0.0,100%,35%)" stroke-width="0.00032"></path>
<path d="M0.373 0.732 Q1.207 0.761 1.448 0.361" stroke="hsl(0.0,100%,35%)" stroke-width="0.00048"></path>
<path d="M1.056 0.348 Q0.616 0.247 0.322 0.439" stroke="hsl(0.0,100%,35%)" stroke-width="0.01386"></path>
<path d="M1.056 0.348 Q1.215 0.300 1.155 0.212" stroke="hsl(0.0,100%,35%)" stroke-width="0.01869"></path>
<path d="M1.056 0.348 Q1.241 0.433 1.448 0.361" stroke="hsl(0.0,100%,35%)" stroke-width="0.00306"></path>
<path d="M1.056 0.348 Q0.913 0.424 1.029 0.511" stroke="hsl(0.0,100%,35%)" stroke-width="0.00209"></path>
<path d="M1.056 0.348 Q1.355 0.269 1.267 0.107" stroke="hsl(0.0,100%,35%)" stroke-width="0.00064"></path>
<path d="M1.056 0.348 Q0.408 0.403 0.373 0.732" stroke="hsl(0.0,100%,35%)" stroke-width="0.00209"></path>
<path d="M1.056 0.348 Q1.058 0.681 1.708 0.753" stroke="hsl(0.0,100%,35%)" stroke-width="0.00032"></path>
<path d="M1.056 0.348 Q0.514 0.308 0.317 0.564" stroke="hsl(0.0,100%,35%)" stroke-width="0.00274"></path>
<path d="M1.056 0.348 Q0.842 0.293 0.688 0.386" stroke="hsl(0.0,100%,35%)" stroke-width="0.00354"></path>
<path d="M1.056 0.348 Q0.650 0.381 0.626 0.587" stroke="hsl(0.0,100%,35%)" stroke-width="0.00113"></path>
<path d="M1.056 0.348 Q0.868 0.355 0.841 0.449" stroke="hsl(0.0,100%,35%)" stroke-width="0.00113"></path>
<path d="M1.056 0.348 Q1.240 0.185 0.963 0.060" stroke="hsl(0.0,100%,35%)" stroke-width="0.00016"></path>
<path d="M0.317 0.564 Q1.158 0.525 1.267 0.107" stroke="hsl(0.0,100%,35%)" stroke-width="0.01096"></path>
<path d="M0.317 0.564 Q0.419 0.503 0.322 0.439" stroke="hsl(0.0,100%,35%)" stroke-width="0.06639"></path>
<path d="M0.317 0.564 Q0.645 0.549 0.688 0.386" stroke="hsl(0.0,100%,35%)" stroke-width="0.00596"></path>
<path d="M0.317 0.564 Q1.044 0.689 1.448 0.361" stroke="hsl(0.0,100%,35%)" stroke-width="0.00483"></path>
<path d="M0.317 0.564 Q0.671 0.611 0.841 0.449" stroke="hsl(0.0,100%,35%)" stroke-width="0.00500"></path>
<path d="M0.317 0.564 Q0.859 0.604 1.056 0.348" stroke="hsl(0.0,100%,35%)" stroke-width="0.01305"></path>
<path d="M0.317 0.564 Q0.716 0.680 1.029 0.511" stroke="hsl(0.0,100%,35%)" stroke-width="0.00806"></path>
<path d="M0.317 0.564 Q0.453 0.638 0.626 0.587" stroke="hsl(0.0,100%,35%)" stroke-width="0.01047"></path>
<path d="M0.317 0.564 Q1.044 0.441 0.963 0.060" stroke="hsl(0.0,100%,35%)" stroke-width="0.00129"></path>
<path d="M0.317 0.564 Q0.211 0.659 0.373 0.732" stroke="hsl(0.0,100%,35%)" stroke-width="0.02981"></path>
<path d="M0.317 0.564 Q1.334 0.530 1.491 0.026" stroke="hsl(0.0,100%,35%)" stroke-width="0.00081"></path>
<path d="M0.317 0.564 Q1.018 0.556 1.155 0.212" stroke="hsl(0.0,100%,35%)" stroke-width="0.00258"></path>
<path d="M0.317 0.564 Q0.819 0.417 0.643 0.140" stroke="hsl(0.0,100%,35%)" stroke-width="0.00032"></path>
<path d="M0.317 0.564 Q1.172 0.626 1.481 0.223" stroke="hsl(0.0,100%,35%)" stroke-width="0.00145"></path>
<path d="M0.317 0.564 Q0.861 0.937 1.708 0.753" stroke="hsl(0.0,100%,35%)" stroke-width="0.00097"></path>
<path d="M0.317 0.564 Q1.090 0.424 0.988 0.016" stroke="hsl(0.0,100%,35%)" stroke-width="0.00032"></path>
<path d="M0.317 0.564 Q0.954 0.546 1.059 0.232" stroke="hsl(0.0,100%,35%)" stroke-width="0.00048"></path>
<path d="M0.317 0.564 Q0.765 0.340 0.425 0.072" stroke="hsl(0.0,100%,35%)" stroke-width="0.00113"></path>
<path d="M0.317 0.564 Q1.280 0.586 1.533 0.120" stroke="hsl(0.0,100%,35%)" stroke-width="0.00016"></path>
<path d="M0.317 0.564 Q0.697 0.881 1.399 0.765" stroke="hsl(0.0,100%,35%)" stroke-width="0.00048"></path>
<path d="M0.317 0.564 Q0.938 0.489 0.928 0.170" stroke="hsl(0.0,100%,35%)" stroke-width="0.00048"></path>
<path d="M0.317 0.564 Q0.605 1.003 1.525 0.958" stroke="hsl(0.0,100%,35%)" stroke-width="0.00016"></path>
<path d="M0.317 0.564 Q0.479 0.394 0.182 0.278" stroke="hsl(0.0,100%,35%)" stroke-width="0.00048"></path>
<path d="M0.317 0.564 Q0.628 0.406 0.387 0.219" stroke="hsl(0.0,100%,35%)" stroke-width="0.00016"></path>
<path d="M0.688 0.386 Q0.463 0.339 0.322 0.439" stroke="hsl(0.0,100%,35%)" stroke-width="0.00612"></path>
<path d="M0.688 0.386 Q0.715 0.448 0.841 0.449" stroke="hsl(0.0,100%,35%)" stroke-width="0.00483"></path>
<path d="M0.688 0.386 Q1.061 0.392 1.155 0.212" stroke="hsl(0.0,100%,35%)" stroke-width="0.00741"></path>
<path d="M0.688 0.386 Q1.088 0.526 1.448 0.361" stroke="hsl(0.0,100%,35%)" stroke-width="0.00371"></path>
<path d="M0.688 0.386 Q0.903 0.441 1.056 0.348" stroke="hsl(0.0,100%,35%)" stroke-width="0.00870"></path>
<path d="M0.688 0.386 Q0.759 0.517 1.029 0.511" stroke="hsl(0.0,100%,35%)" stroke-width="0.00693"></path>
<path d="M0.688 0.386 Q0.360 0.401 0.317 0.564" stroke="hsl(0.0,100%,35%)" stroke-width="0.00177"></path>
<path d="M0.688 0.386 Q0.254 0.496 0.373 0.732" stroke="hsl(0.0,100%,35%)" stroke-width="0.00371"></path>
<path d="M0.688 0.386 Q0.904 0.773 1.708 0.753" stroke="hsl(0.0,100%,35%)" stroke-width="0.00081"></path>
<path d="M0.688 0.386 Q0.496 0.474 0.626 0.587" stroke="hsl(0.0,100%,35%)" stroke-width="0.00129"></path>
<path d="M0.688 0.386 Q1.201 0.362 1.267 0.107" stroke="hsl(0.0,100%,35%)" stroke-width="0.00081"></path>
<path d="M0.688 0.386 Q0.997 0.383 1.059 0.232" stroke="hsl(0.0,100%,35%)" stroke-width="0.00032"></path>
<path d="M0.688 0.386 Q0.981 0.326 0.928 0.170" stroke="hsl(0.0,100%,35%)" stroke-width="0.00032"></path>
<path d="M0.688 0.386 Q1.087 0.278 0.963 0.060" stroke="hsl(0.0,100%,35%)" stroke-width="0.00064"></path>
<path d="M0.688 0.386 Q0.862 0.254 0.643 0.140" stroke="hsl(0.0,100%,35%)" stroke-width="0.00016"></path>
<path d="M0.322 0.439 Q1.060 0.462 1.267 0.107" stroke="hsl(0.0,100%,35%)" stroke-width="0.00709"></path>
<path d="M0.322 0.439 Q0.574 0.548 0.841 0.449" stroke="hsl(0.0,100%,35%)" stroke-width="0.00161"></path>
<path d="M0.322 0.439 Q0.547 0.486 0.688 0.386" stroke="hsl(0.0,100%,35%)" stroke-width="0.00274"></path>
<path d="M0.322 0.439 Q0.946 0.377 0.963 0.060" stroke="hsl(0.0,100%,35%)" stroke-width="0.00258"></path>
<path d="M0.322 0.439 Q0.219 0.500 0.317 0.564" stroke="hsl(0.0,100%,35%)" stroke-width="0.01273"></path>
<path d="M0.322 0.439 Q0.355 0.574 0.626 0.587" stroke="hsl(0.0,100%,35%)" stroke-width="0.00387"></path>
<path d="M0.322 0.439 Q1.182 0.522 1.533 0.120" stroke="hsl(0.0,100%,35%)" stroke-width="0.00016"></path>
<path d="M0.322 0.439 Q0.920 0.492 1.155 0.212" stroke="hsl(0.0,100%,35%)" stroke-width="0.00290"></path>
<path d="M0.322 0.439 Q0.762 0.540 1.056 0.348" stroke="hsl(0.0,100%,35%)" stroke-width="0.00338"></path>
<path d="M0.322 0.439 Q0.618 0.616 1.029 0.511" stroke="hsl(0.0,100%,35%)" stroke-width="0.00032"></path>
<path d="M0.322 0.439 Q0.667 0.276 0.425 0.072" stroke="hsl(0.0,100%,35%)" stroke-width="0.00032"></path>
<path d="M0.322 0.439 Q0.841 0.426 0.928 0.170" stroke="hsl(0.0,100%,35%)" stroke-width="0.00016"></path>
<path d="M0.322 0.439 Q0.947 0.625 1.448 0.361" stroke="hsl(0.0,100%,35%)" stroke-width="0.00016"></path>
<path d="M0.322 0.439 Q0.600 0.818 1.399 0.765" stroke="hsl(0.0,100%,35%)" stroke-width="0.00016"></path>
<path d="M0.322 0.439 Q0.764 0.873 1.708 0.753" stroke="hsl(0.0,100%,35%)" stroke-width="0.00032"></path>
<path d="M0.322 0.439 Q0.201 0.399 0.097 0.450" stroke="hsl(0.0,100%,35%)" stroke-width="0.00064"></path>
<path d="M0.322 0.439 Q0.722 0.354 0.643 0.140" stroke="hsl(0.0,100%,35%)" stroke-width="0.00016"></path>
<path d="M0.322 0.439 Q1.237 0.466 1.491 0.026" stroke="hsl(0.0,100%,35%)" stroke-width="0.00016"></path>
<path d="M0.322 0.439 Q0.381 0.330 0.182 0.278" stroke="hsl(0.0,100%,35%)" stroke-width="0.00016"></path>
<path d="M1.267 0.107 Q0.875 0.046 0.670 0.224" stroke="hsl(180.0,100%,35%)" stroke-width="0.00145"></path>
<path d="M1.267 0.107 Q1.389 0.167 1.533 0.120" stroke="hsl(180.0,100%,35%)" stroke-width="0.00403"></path>
<path d="M1.267 0.107 Q0.529 0.084 0.322 0.439" stroke="hsl(180.0,100%,35%)" stroke-width="0.02127"></path>
<path d="M1.267 0.107 Q1.153 0.022 0.963 0.060" stroke="hsl(180.0,100%,35%)" stroke-width="0.01563"></path>
<path d="M1.267 0.107 Q0.562 0.219 0.626 0.587" stroke="hsl(180.0,100%,35%)" stroke-width="0.00564"></path>
<path d="M1.267 0.107 Q1.281 0.208 1.481 0.223" stroke="hsl(180.0,100%,35%)" stroke-width="0.00048"></path>
<path d="M1.267 0.107 Q0.781 0.192 0.841 0.449" stroke="hsl(180.0,100%,35%)" stroke-width="0.00387"></path>
<path d="M1.267 0.107 Q0.754 0.131 0.688 0.386" stroke="hsl(180.0,100%,35%)" stroke-width="0.00274"></path>
<path d="M1.267 0.107 Q0.969 0.185 1.056 0.348" stroke="hsl(180.0,100%,35%)" stroke-width="0.00773"></path>
<path d="M1.267 0.107 Q0.928 -0.001 0.643 0.140" stroke="hsl(180.0,100%,35%)" stroke-width="0.00403"></path>
<path d="M1.267 0.107 Q0.320 0.241 0.373 0.732" stroke="hsl(180.0,100%,35%)" stroke-width="0.00081"></path>
<path d="M1.267 0.107 Q0.806 0.462 1.399 0.765" stroke="hsl(180.0,100%,35%)" stroke-width="0.00064"></path>
<path d="M1.267 0.107 Q1.063 0.128 1.059 0.232" stroke="hsl(180.0,100%,35%)" stroke-width="0.00113"></path>
<path d="M1.267 0.107 Q1.047 0.070 0.928 0.170" stroke="hsl(180.0,100%,35%)" stroke-width="0.00161"></path>
<path d="M1.267 0.107 Q0.426 0.145 0.317 0.564" stroke="hsl(180.0,100%,35%)" stroke-width="0.00661"></path>
<path d="M1.267 0.107 Q0.825 0.261 1.029 0.511" stroke="hsl(180.0,100%,35%)" stroke-width="0.00193"></path>
<path d="M1.267 0.107 Q0.970 0.518 1.708 0.753" stroke="hsl(180.0,100%,35%)" stroke-width="0.00193"></path>
<path d="M1.267 0.107 Q1.127 0.137 1.155 0.212" stroke="hsl(180.0,100%,35%)" stroke-width="0.00129"></path>
<path d="M1.267 0.107 Q1.443 0.111 1.491 0.026" stroke="hsl(180.0,100%,35%)" stroke-width="0.00097"></path>
<path d="M1.267 0.107 Q0.312 0.113 0.115 0.579" stroke="hsl(180.0,100%,35%)" stroke-width="0.00032"></path>
<path d="M1.267 0.107 Q1.200 0.006 0.988 0.016" stroke="hsl(180.0,100%,35%)" stroke-width="0.00145"></path>
<path d="M1.267 0.107 Q0.874 -0.079 0.425 0.072" stroke="hsl(180.0,100%,35%)" stroke-width="0.00064"></path>
<path d="M1.267 0.107 Q1.154 0.270 1.448 0.361" stroke="hsl(180.0,100%,35%)" stroke-width="0.00016"></path>
<path d="M1.267 0.107 Q1.095 0.385 1.600 0.530" stroke="hsl(180.0,100%,35%)" stroke-width="0.00032"></path>
<path d="M1.533 0.120 Q0.673 0.037 0.322 0.439" stroke="hsl(180.0,100%,35%)" stroke-width="0.00048"></path>
<path d="M1.533 0.120 Q1.411 0.060 1.267 0.107" stroke="hsl(180.0,100%,35%)" stroke-width="0.01418"></path>
<path d="M1.533 0.120 Q0.570 0.099 0.317 0.564" stroke="hsl(180.0,100%,35%)" stroke-width="0.00161"></path>
<path d="M1.533 0.120 Q1.298 0.224 1.448 0.361" stroke="hsl(180.0,100%,35%)" stroke-width="0.00016"></path>
<path d="M1.533 0.120 Q1.588 0.065 1.491 0.026" stroke="hsl(180.0,100%,35%)" stroke-width="0.00081"></path>
<path d="M1.533 0.120 Q1.344 -0.041 0.988 0.016" stroke="hsl(180.0,100%,35%)" stroke-width="0.00016"></path>
<path d="M1.533 0.120 Q1.207 0.081 1.059 0.232" stroke="hsl(180.0,100%,35%)" stroke-width="0.00032"></path>
<path d="M1.533 0.120 Q1.425 0.161 1.481 0.223" stroke="hsl(180.0,100%,35%)" stroke-width="0.00016"></path>
<path d="M1.533 0.120 Q0.898 0.084 0.688 0.386" stroke="hsl(180.0,100%,35%)" stroke-width="0.00016"></path>
<path d="M0.841 0.449 Q0.589 0.340 0.322 0.439" stroke="hsl(0.0,100%,35%)" stroke-width="0.00081"></path>
<path d="M0.841 0.449 Q1.187 0.393 1.155 0.212" stroke="hsl(0.0,100%,35%)" stroke-width="0.00226"></path>
<path d="M0.841 0.449 Q0.886 0.517 1.029 0.511" stroke="hsl(0.0,100%,35%)" stroke-width="0.00242"></path>
<path d="M0.841 0.449 Q0.815 0.387 0.688 0.386" stroke="hsl(0.0,100%,35%)" stroke-width="0.00177"></path>
<path d="M0.841 0.449 Q1.328 0.363 1.267 0.107" stroke="hsl(0.0,100%,35%)" stroke-width="0.00032"></path>
<path d="M0.841 0.449 Q1.214 0.526 1.448 0.361" stroke="hsl(0.0,100%,35%)" stroke-width="0.00064"></path>
<path d="M0.841 0.449 Q0.468 0.300 0.097 0.450" stroke="hsl(0.0,100%,35%)" stroke-width="0.00032"></path>
<path d="M0.841 0.449 Q1.029 0.441 1.056 0.348" stroke="hsl(0.0,100%,35%)" stroke-width="0.00161"></path>
<path d="M0.841 0.449 Q0.486 0.401 0.317 0.564" stroke="hsl(0.0,100%,35%)" stroke-width="0.00032"></path>
<path d="M0.841 0.449 Q0.935 0.177 0.425 0.072" stroke="hsl(0.0,100%,35%)" stroke-width="0.00016"></path>
<path d="M0.626 0.587 Q0.592 0.452 0.322 0.439" stroke="hsl(0.0,100%,35%)" stroke-width="0.00870"></path>
<path d="M0.626 0.587 Q1.331 0.475 1.267 0.107" stroke="hsl(0.0,100%,35%)" stroke-width="0.00419"></path>
<path d="M0.626 0.587 Q0.490 0.514 0.317 0.564" stroke="hsl(0.0,100%,35%)" stroke-width="0.00209"></path>
<path d="M0.626 0.587 Q1.032 0.554 1.056 0.348" stroke="hsl(0.0,100%,35%)" stroke-width="0.00048"></path>
<path d="M0.626 0.587 Q0.818 0.499 0.688 0.386" stroke="hsl(0.0,100%,35%)" stroke-width="0.00387"></path>
<path d="M0.626 0.587 Q1.034 0.887 1.708 0.753" stroke="hsl(0.0,100%,35%)" stroke-width="0.00016"></path>
<path d="M0.626 0.587 Q1.191 0.506 1.155 0.212" stroke="hsl(0.0,100%,35%)" stroke-width="0.01176"></path>
<path d="M0.626 0.587 Q1.217 0.391 0.963 0.060" stroke="hsl(0.0,100%,35%)" stroke-width="0.00081"></path>
<path d="M0.626 0.587 Q0.870 0.831 1.399 0.765" stroke="hsl(0.0,100%,35%)" stroke-width="0.00016"></path>
<path d="M1.029 0.511 Q0.985 0.442 0.841 0.449" stroke="hsl(0.0,100%,35%)" stroke-width="0.00338"></path>
<path d="M1.029 0.511 Q0.958 0.380 0.688 0.386" stroke="hsl(0.0,100%,35%)" stroke-width="0.00580"></path>
<path d="M1.029 0.511 Q0.766 0.468 0.626 0.587" stroke="hsl(0.0,100%,35%)" stroke-width="0.00016"></path>
<path d="M1.029 0.511 Q1.358 0.520 1.448 0.361" stroke="hsl(0.0,100%,35%)" stroke-width="0.00032"></path>
<path d="M1.029 0.511 Q1.011 0.712 1.399 0.765" stroke="hsl(0.0,100%,35%)" stroke-width="0.00016"></path>
<path d="M1.029 0.511 Q0.630 0.395 0.317 0.564" stroke="hsl(0.0,100%,35%)" stroke-width="0.00048"></path>
<path d="M1.029 0.511 Q1.471 0.356 1.267 0.107" stroke="hsl(0.0,100%,35%)" stroke-width="0.00097"></path>
<path d="M1.029 0.511 Q1.173 0.435 1.056 0.348" stroke="hsl(0.0,100%,35%)" stroke-width="0.00048"></path>
<path d="M1.029 0.511 Q1.331 0.386 1.155 0.212" stroke="hsl(0.0,100%,35%)" stroke-width="0.00097"></path>
<path d="M1.029 0.511 Q1.079 0.170 0.425 0.072" stroke="hsl(0.0,100%,35%)" stroke-width="0.00016"></path>
<path d="M1.029 0.511 Q0.733 0.333 0.322 0.439" stroke="hsl(0.0,100%,35%)" stroke-width="0.00016"></path>
<path d="M1.448 0.361 Q1.263 0.276 1.056 0.348" stroke="hsl(0.0,100%,35%)" stroke-width="0.00516"></path>
<path d="M1.448 0.361 Q1.048 0.222 0.688 0.386" stroke="hsl(0.0,100%,35%)" stroke-width="0.00209"></path>
<path d="M1.448 0.361 Q0.720 0.236 0.317 0.564" stroke="hsl(0.0,100%,35%)" stroke-width="0.00242"></path>
<path d="M1.448 0.361 Q1.561 0.198 1.267 0.107" stroke="hsl(0.0,100%,35%)" stroke-width="0.00081"></path>
<path d="M1.448 0.361 Q0.823 0.175 0.322 0.439" stroke="hsl(0.0,100%,35%)" stroke-width="0.00113"></path>
<path d="M1.448 0.361 Q1.575 0.299 1.481 0.223" stroke="hsl(0.0,100%,35%)" stroke-width="0.00016"></path>
<path d="M1.448 0.361 Q1.421 0.228 1.155 0.212" stroke="hsl(0.0,100%,35%)" stroke-width="0.00193"></path>
<path d="M1.448 0.361 Q1.119 0.352 1.029 0.511" stroke="hsl(0.0,100%,35%)" stroke-width="0.00064"></path>
<path d="M1.448 0.361 Q1.222 0.090 0.643 0.140" stroke="hsl(0.0,100%,35%)" stroke-width="0.00016"></path>
<path d="M1.448 0.361 Q1.075 0.284 0.841 0.449" stroke="hsl(0.0,100%,35%)" stroke-width="0.00209"></path>
<path d="M1.448 0.361 Q1.447 0.113 0.963 0.060" stroke="hsl(0.0,100%,35%)" stroke-width="0.00016"></path>
<path d="M0.465 0.373 Q0.781 0.479 1.056 0.348" stroke="hsl(180.0,100%,35%)" stroke-width="0.00016"></path>
<path d="M0.465 0.373 Q1.079 0.400 1.267 0.107" stroke="hsl(180.0,100%,35%)" stroke-width="0.00016"></path>
<path d="M0.465 0.373 Q0.374 0.512 0.626 0.587" stroke="hsl(180.0,100%,35%)" stroke-width="0.00032"></path>
<path d="M0.826 0.267 Q0.662 0.299 0.688 0.386" stroke="hsl(0.0,100%,35%)" stroke-width="0.00032"></path>
<path d="M0.826 0.267 Q1.035 0.305 1.155 0.212" stroke="hsl(0.0,100%,35%)" stroke-width="0.00016"></path>
<path d="M0.826 0.267 Q0.688 0.361 0.841 0.449" stroke="hsl(0.0,100%,35%)" stroke-width="0.00016"></path>
<path d="M1.155 0.212 Q0.557 0.159 0.322 0.439" stroke="hsl(0.0,100%,35%)" stroke-width="0.00258"></path>
<path d="M1.155 0.212 Q0.957 0.074 0.643 0.140" stroke="hsl(0.0,100%,35%)" stroke-width="0.00048"></path>
<path d="M1.155 0.212 Q0.782 0.206 0.688 0.386" stroke="hsl(0.0,100%,35%)" stroke-width="0.01063"></path>
<path d="M1.155 0.212 Q0.809 0.267 0.841 0.449" stroke="hsl(0.0,100%,35%)" stroke-width="0.00661"></path>
<path d="M1.155 0.212 Q1.295 0.182 1.267 0.107" stroke="hsl(0.0,100%,35%)" stroke-width="0.00081"></path>
<path d="M1.155 0.212 Q0.997 0.260 1.056 0.348" stroke="hsl(0.0,100%,35%)" stroke-width="0.00822"></path>
<path d="M1.155 0.212 Q0.436 0.119 0.097 0.450" stroke="hsl(0.0,100%,35%)" stroke-width="0.00016"></path>
<path d="M1.155 0.212 Q0.999 0.593 1.708 0.753" stroke="hsl(0.0,100%,35%)" stroke-width="0.00016"></path>
<path d="M1.155 0.212 Q0.590 0.294 0.626 0.587" stroke="hsl(0.0,100%,35%)" stroke-width="0.00016"></path>
<path d="M1.155 0.212 Q0.454 0.220 0.317 0.564" stroke="hsl(0.0,100%,35%)" stroke-width="0.00081"></path>
<path d="M1.155 0.212 Q1.182 0.345 1.448 0.361" stroke="hsl(0.0,100%,35%)" stroke-width="0.00113"></path>
<path d="M1.155 0.212 Q0.853 0.336 1.029 0.511" stroke="hsl(0.0,100%,35%)" stroke-width="0.00645"></path>
<path d="M1.155 0.212 Q1.091 0.203 1.059 0.232" stroke="hsl(0.0,100%,35%)" stroke-width="0.00129"></path>
<path d="M0.963 0.060 Q0.339 0.121 0.322 0.439" stroke="hsl(180.0,100%,35%)" stroke-width="0.00580"></path>
<path d="M0.963 0.060 Q0.858 0.108 0.928 0.170" stroke="hsl(180.0,100%,35%)" stroke-width="0.00177"></path>
<path d="M0.963 0.060 Q1.077 0.144 1.267 0.107" stroke="hsl(180.0,100%,35%)" stroke-width="0.00354"></path>
<path d="M0.963 0.060 Q1.199 0.204 1.533 0.120" stroke="hsl(180.0,100%,35%)" stroke-width="0.00016"></path>
<path d="M0.963 0.060 Q0.372 0.256 0.626 0.587" stroke="hsl(180.0,100%,35%)" stroke-width="0.00274"></path>
<path d="M0.963 0.060 Q0.236 0.183 0.317 0.564" stroke="hsl(180.0,100%,35%)" stroke-width="0.00161"></path>
<path d="M0.963 0.060 Q0.685 0.083 0.670 0.224" stroke="hsl(180.0,100%,35%)" stroke-width="0.00064"></path>
<path d="M0.963 0.060 Q0.781 0.555 1.708 0.753" stroke="hsl(180.0,100%,35%)" stroke-width="0.00016"></path>
<path d="M0.963 0.060 Q0.739 0.036 0.643 0.140" stroke="hsl(180.0,100%,35%)" stroke-width="0.00016"></path>
<path d="M0.963 0.060 Q0.218 0.081 0.097 0.450" stroke="hsl(180.0,100%,35%)" stroke-width="0.00016"></path>
<path d="M0.963 0.060 Q0.591 0.230 0.841 0.449" stroke="hsl(180.0,100%,35%)" stroke-width="0.00016"></path>
<path d="M0.425 0.072 Q0.289 0.138 0.387 0.219" stroke="hsl(180.0,100%,35%)" stroke-width="0.00016"></path>
<path d="M0.425 0.072 Q-0.023 0.296 0.317 0.564" stroke="hsl(180.0,100%,35%)" stroke-width="0.00081"></path>
<path d="M0.425 0.072 Q0.480 0.149 0.643 0.140" stroke="hsl(180.0,100%,35%)" stroke-width="0.00113"></path>
<path d="M0.425 0.072 Q0.080 0.235 0.322 0.439" stroke="hsl(180.0,100%,35%)" stroke-width="0.00032"></path>
<path d="M0.425 0.072 Q0.704 0.173 0.963 0.060" stroke="hsl(180.0,100%,35%)" stroke-width="0.00016"></path>
<path d="M0.425 0.072 Q0.678 0.288 1.155 0.212" stroke="hsl(180.0,100%,35%)" stroke-width="0.00064"></path>
<path d="M0.425 0.072 Q0.332 0.343 0.841 0.449" stroke="hsl(180.0,100%,35%)" stroke-width="0.00064"></path>
<path d="M0.425 0.072 Q0.376 0.412 1.029 0.511" stroke="hsl(180.0,100%,35%)" stroke-width="0.00016"></path>
<path d="M0.425 0.072 Q0.818 0.257 1.267 0.107" stroke="hsl(180.0,100%,35%)" stroke-width="0.00016"></path>
<path d="M0.928 0.170 Q1.034 0.122 0.963 0.060" stroke="hsl(180.0,100%,35%)" stroke-width="0.00354"></path>
<path d="M0.928 0.170 Q1.148 0.206 1.267 0.107" stroke="hsl(180.0,100%,35%)" stroke-width="0.00081"></path>
<path d="M0.928 0.170 Q0.410 0.183 0.322 0.439" stroke="hsl(180.0,100%,35%)" stroke-width="0.00048"></path>
<path d="M0.928 0.170 Q0.706 0.360 1.029 0.511" stroke="hsl(180.0,100%,35%)" stroke-width="0.00016"></path>
<path d="M0.928 0.170 Q1.270 0.266 1.533 0.120" stroke="hsl(180.0,100%,35%)" stroke-width="0.00016"></path>
<path d="M0.928 0.170 Q0.850 0.284 1.056 0.348" stroke="hsl(180.0,100%,35%)" stroke-width="0.00016"></path>
<path d="M1.399 0.765 Q1.562 0.488 1.056 0.348" stroke="hsl(180.0,100%,35%)" stroke-width="0.00016"></path>
<path d="M1.399 0.765 Q1.563 0.821 1.708 0.753" stroke="hsl(180.0,100%,35%)" stroke-width="0.00564"></path>
<path d="M1.399 0.765 Q1.860 0.409 1.267 0.107" stroke="hsl(180.0,100%,35%)" stroke-width="0.00161"></path>
<path d="M1.399 0.765 Q1.720 0.440 1.155 0.212" stroke="hsl(180.0,100%,35%)" stroke-width="0.00016"></path>
<path d="M1.708 0.753 Q1.266 0.319 0.322 0.439" stroke="hsl(180.0,100%,35%)" stroke-width="0.00113"></path>
<path d="M1.708 0.753 Q1.491 0.366 0.688 0.386" stroke="hsl(180.0,100%,35%)" stroke-width="0.00016"></path>
<path d="M1.708 0.753 Q1.544 0.697 1.399 0.765" stroke="hsl(180.0,100%,35%)" stroke-width="0.00403"></path>
<path d="M1.708 0.753 Q1.890 0.257 0.963 0.060" stroke="hsl(180.0,100%,35%)" stroke-width="0.00177"></path>
<path d="M1.708 0.753 Q2.004 0.342 1.267 0.107" stroke="hsl(180.0,100%,35%)" stroke-width="0.00193"></path>
<path d="M1.708 0.753 Q1.666 0.234 0.643 0.140" stroke="hsl(180.0,100%,35%)" stroke-width="0.00016"></path>
<path d="M1.708 0.753 Q1.299 0.454 0.626 0.587" stroke="hsl(180.0,100%,35%)" stroke-width="0.00016"></path>
<path d="M1.708 0.753 Q1.163 0.380 0.317 0.564" stroke="hsl(180.0,100%,35%)" stroke-width="0.00032"></path>
<path d="M1.708 0.753 Q1.325 0.210 0.182 0.278" stroke="hsl(180.0,100%,35%)" stroke-width="0.00016"></path>
<path d="M1.708 0.753 Q1.864 0.372 1.155 0.212" stroke="hsl(180.0,100%,35%)" stroke-width="0.00016"></path>
<path d="M0.097 0.450 Q0.218 0.489 0.322 0.439" stroke="hsl(180.0,100%,35%)" stroke-width="0.00064"></path>
<path d="M0.097 0.450 Q0.002 0.518 0.115 0.579" stroke="hsl(180.0,100%,35%)" stroke-width="0.00016"></path>
<path d="M0.643 0.140 Q0.589 0.062 0.425 0.072" stroke="hsl(180.0,100%,35%)" stroke-width="0.00081"></path>
<path d="M0.643 0.140 Q0.452 0.128 0.387 0.219" stroke="hsl(180.0,100%,35%)" stroke-width="0.00081"></path>
<path d="M0.643 0.140 Q0.982 0.248 1.267 0.107" stroke="hsl(180.0,100%,35%)" stroke-width="0.00048"></path>
<path d="M0.643 0.140 Q0.141 0.287 0.317 0.564" stroke="hsl(180.0,100%,35%)" stroke-width="0.00081"></path>
<path d="M0.643 0.140 Q0.243 0.225 0.322 0.439" stroke="hsl(180.0,100%,35%)" stroke-width="0.00016"></path>
<path d="M0.643 0.140 Q0.867 0.164 0.963 0.060" stroke="hsl(180.0,100%,35%)" stroke-width="0.00032"></path>
<path d="M0.643 0.140 Q0.683 0.327 1.056 0.348" stroke="hsl(180.0,100%,35%)" stroke-width="0.00032"></path>
<path d="M0.182 0.278 Q0.564 0.820 1.708 0.753" stroke="hsl(0.0,100%,35%)" stroke-width="0.00016"></path>
<path d="M0.182 0.278 Q0.123 0.386 0.322 0.439" stroke="hsl(0.0,100%,35%)" stroke-width="0.00081"></path>
<path d="M0.182 0.278 Q0.020 0.448 0.317 0.564" stroke="hsl(0.0,100%,35%)" stroke-width="0.00032"></path>
<path d="M0.182 0.278 Q0.563 0.488 1.056 0.348" stroke="hsl(0.0,100%,35%)" stroke-width="0.00016"></path>
<path d="M1.469 0.621 Q1.041 0.300 0.322 0.439" stroke="hsl(0.0,100%,35%)" stroke-width="0.00016"></path>
<path d="M1.469 0.621 Q1.267 0.347 0.688 0.386" stroke="hsl(0.0,100%,35%)" stroke-width="0.00016"></path>
<path d="M1.469 0.621 Q1.780 0.323 1.267 0.107" stroke="hsl(0.0,100%,35%)" stroke-width="0.00048"></path>
<path d="M1.469 0.621 Q0.938 0.362 0.317 0.564" stroke="hsl(0.0,100%,35%)" stroke-width="0.00016"></path>
<path d="M1.469 0.621 Q1.293 0.409 0.841 0.449" stroke="hsl(0.0,100%,35%)" stroke-width="0.00193"></path>
<path d="M1.469 0.621 Q1.666 0.487 1.448 0.361" stroke="hsl(0.0,100%,35%)" stroke-width="0.00016"></path>
<path d="M1.469 0.621 Q1.639 0.354 1.155 0.212" stroke="hsl(0.0,100%,35%)" stroke-width="0.00016"></path>
<path d="M0.670 0.224 Q1.062 0.285 1.267 0.107" stroke="hsl(180.0,100%,35%)" stroke-width="0.00387"></path>
<path d="M0.670 0.224 Q0.766 0.696 1.708 0.753" stroke="hsl(180.0,100%,35%)" stroke-width="0.00016"></path>
<path d="M0.670 0.224 Q0.948 0.200 0.963 0.060" stroke="hsl(180.0,100%,35%)" stroke-width="0.00661"></path>
<path d="M0.670 0.224 Q0.533 0.165 0.387 0.219" stroke="hsl(180.0,100%,35%)" stroke-width="0.00016"></path>
<path d="M0.670 0.224 Q0.324 0.262 0.322 0.439" stroke="hsl(180.0,100%,35%)" stroke-width="0.00048"></path>
<path d="M0.670 0.224 Q0.576 0.370 0.841 0.449" stroke="hsl(180.0,100%,35%)" stroke-width="0.00016"></path>
<path d="M0.115 0.579 Q0.331 0.551 0.322 0.439" stroke="hsl(0.0,100%,35%)" stroke-width="0.00564"></path>
<path d="M0.115 0.579 Q0.731 0.465 0.643 0.140" stroke="hsl(0.0,100%,35%)" stroke-width="0.00064"></path>
<path d="M0.115 0.579 Q0.210 0.511 0.097 0.450" stroke="hsl(0.0,100%,35%)" stroke-width="0.00032"></path>
<path d="M1.481 0.223 Q1.467 0.122 1.267 0.107" stroke="hsl(180.0,100%,35%)" stroke-width="0.00435"></path>
<path d="M1.481 0.223 Q1.589 0.182 1.533 0.120" stroke="hsl(180.0,100%,35%)" stroke-width="0.00048"></path>
<path d="M1.481 0.223 Q1.643 0.127 1.491 0.026" stroke="hsl(180.0,100%,35%)" stroke-width="0.00032"></path>
<path d="M1.481 0.223 Q0.954 0.146 0.688 0.386" stroke="hsl(180.0,100%,35%)" stroke-width="0.00064"></path>
<path d="M1.481 0.223 Q1.353 0.038 0.963 0.060" stroke="hsl(180.0,100%,35%)" stroke-width="0.00016"></path>
<path d="M1.481 0.223 Q0.773 0.547 1.250 0.963" stroke="hsl(180.0,100%,35%)" stroke-width="0.00032"></path>
<path d="M1.481 0.223 Q0.914 0.599 1.525 0.958" stroke="hsl(180.0,100%,35%)" stroke-width="0.00016"></path>
<path d="M1.481 0.223 Q0.626 0.161 0.317 0.564" stroke="hsl(180.0,100%,35%)" stroke-width="0.00064"></path>
<path d="M1.481 0.223 Q1.400 0.021 0.988 0.016" stroke="hsl(180.0,100%,35%)" stroke-width="0.00032"></path>
<path d="M1.481 0.223 Q1.263 0.143 1.059 0.232" stroke="hsl(180.0,100%,35%)" stroke-width="0.00016"></path>
<path d="M1.481 0.223 Q0.729 0.099 0.322 0.439" stroke="hsl(180.0,100%,35%)" stroke-width="0.00032"></path>
<path d="M1.250 0.963 Q1.957 0.639 1.481 0.223" stroke="hsl(180.0,100%,35%)" stroke-width="0.00097"></path>
<path d="M1.250 0.963 Q1.391 1.016 1.525 0.958" stroke="hsl(180.0,100%,35%)" stroke-width="0.00209"></path>
<path d="M1.250 0.963 Q1.803 0.569 1.155 0.212" stroke="hsl(180.0,100%,35%)" stroke-width="0.00016"></path>
<path d="M1.250 0.963 Q1.740 0.559 1.059 0.232" stroke="hsl(180.0,100%,35%)" stroke-width="0.00048"></path>
<path d="M1.250 0.963 Q1.943 0.538 1.267 0.107" stroke="hsl(180.0,100%,35%)" stroke-width="0.00016"></path>
<path d="M0.988 0.016 Q1.177 0.177 1.533 0.120" stroke="hsl(180.0,100%,35%)" stroke-width="0.00016"></path>
<path d="M0.988 0.016 Q1.055 0.117 1.267 0.107" stroke="hsl(180.0,100%,35%)" stroke-width="0.00032"></path>
<path d="M0.988 0.016 Q0.851 0.138 1.059 0.232" stroke="hsl(180.0,100%,35%)" stroke-width="0.00016"></path>
<path d="M0.988 0.016 Q1.231 0.122 1.491 0.026" stroke="hsl(180.0,100%,35%)" stroke-width="0.00016"></path>
<path d="M0.988 0.016 Q0.915 0.148 1.155 0.212" stroke="hsl(180.0,100%,35%)" stroke-width="0.00016"></path>
<path d="M0.820 0.600 Q0.699 0.420 0.322 0.439" stroke="hsl(0.0,100%,35%)" stroke-width="0.00016"></path>
<path d="M0.820 0.600 Q1.139 0.521 1.056 0.348" stroke="hsl(0.0,100%,35%)" stroke-width="0.00032"></path>
<path d="M0.820 0.600 Q0.925 0.466 0.688 0.386" stroke="hsl(0.0,100%,35%)" stroke-width="0.00016"></path>
<path d="M0.820 0.600 Q0.951 0.528 0.841 0.449" stroke="hsl(0.0,100%,35%)" stroke-width="0.00048"></path>
<path d="M0.820 0.600 Q1.324 0.606 1.448 0.361" stroke="hsl(0.0,100%,35%)" stroke-width="0.00016"></path>
<path d="M1.095 0.146 Q0.993 0.125 0.928 0.170" stroke="hsl(180.0,100%,35%)" stroke-width="0.00016"></path>
<path d="M1.095 0.146 Q1.213 0.161 1.267 0.107" stroke="hsl(180.0,100%,35%)" stroke-width="0.00016"></path>
<path d="M1.095 0.146 Q0.475 0.138 0.322 0.439" stroke="hsl(180.0,100%,35%)" stroke-width="0.00016"></path>
<path d="M1.416 0.472 Q1.335 0.338 1.056 0.348" stroke="hsl(0.0,100%,35%)" stroke-width="0.00226"></path>
<path d="M1.416 0.472 Q1.147 0.345 0.841 0.449" stroke="hsl(0.0,100%,35%)" stroke-width="0.00209"></path>
<path d="M1.416 0.472 Q1.120 0.283 0.688 0.386" stroke="hsl(0.0,100%,35%)" stroke-width="0.00016"></path>
<path d="M1.416 0.472 Q1.192 0.414 1.029 0.511" stroke="hsl(0.0,100%,35%)" stroke-width="0.00032"></path>
<path d="M1.224 0.444 Q1.515 0.284 1.267 0.107" stroke="hsl(0.0,100%,35%)" stroke-width="0.00016"></path>
<path d="M1.224 0.444 Q1.002 0.308 0.688 0.386" stroke="hsl(0.0,100%,35%)" stroke-width="0.00032"></path>
<path d="M1.224 0.444 Q1.217 0.363 1.056 0.348" stroke="hsl(0.0,100%,35%)" stroke-width="0.00032"></path>
<path d="M1.018 0.876 Q1.644 0.457 0.963 0.060" stroke="hsl(180.0,100%,35%)" stroke-width="0.00113"></path>
<path d="M1.018 0.876 Q1.020 0.519 0.322 0.439" stroke="hsl(180.0,100%,35%)" stroke-width="0.00161"></path>
<path d="M1.018 0.876 Q1.461 0.953 1.708 0.753" stroke="hsl(180.0,100%,35%)" stroke-width="0.00177"></path>
<path d="M1.018 0.876 Q1.758 0.541 1.267 0.107" stroke="hsl(180.0,100%,35%)" stroke-width="0.00016"></path>
<path d="M1.018 0.876 Q1.272 0.627 0.841 0.449" stroke="hsl(180.0,100%,35%)" stroke-width="0.00016"></path>
<path d="M0.216 0.154 Q0.441 0.232 0.643 0.140" stroke="hsl(180.0,100%,35%)" stroke-width="0.00081"></path>
<path d="M0.216 0.154 Q0.041 0.318 0.322 0.439" stroke="hsl(180.0,100%,35%)" stroke-width="0.00016"></path>
<path d="M0.216 0.154 Q0.075 0.453 0.626 0.587" stroke="hsl(180.0,100%,35%)" stroke-width="0.00016"></path>
<path d="M0.917 0.468 Q0.895 0.443 0.841 0.449" stroke="hsl(0.0,100%,35%)" stroke-width="0.00064"></path>
<path d="M0.917 0.468 Q1.083 0.436 1.056 0.348" stroke="hsl(0.0,100%,35%)" stroke-width="0.00097"></path>
<path d="M0.917 0.468 Q0.643 0.335 0.322 0.439" stroke="hsl(0.0,100%,35%)" stroke-width="0.00048"></path>
<path d="M0.917 0.468 Q1.241 0.388 1.155 0.212" stroke="hsl(0.0,100%,35%)" stroke-width="0.00016"></path>
<path d="M0.703 0.611 Q0.547 0.510 0.317 0.564" stroke="hsl(180.0,100%,35%)" stroke-width="0.00016"></path>
<path d="M0.703 0.611 Q0.650 0.449 0.322 0.439" stroke="hsl(180.0,100%,35%)" stroke-width="0.00032"></path>
<path d="M0.703 0.611 Q0.683 0.583 0.626 0.587" stroke="hsl(180.0,100%,35%)" stroke-width="0.00032"></path>
<path d="M1.022 0.745 Q1.143 0.499 0.688 0.386" stroke="hsl(0.0,100%,35%)" stroke-width="0.00081"></path>
<path d="M1.022 0.745 Q0.917 0.452 0.322 0.439" stroke="hsl(0.0,100%,35%)" stroke-width="0.00048"></path>
<path d="M1.022 0.745 Q1.357 0.553 1.056 0.348" stroke="hsl(0.0,100%,35%)" stroke-width="0.00161"></path>
<path d="M1.022 0.745 Q0.950 0.587 0.626 0.587" stroke="hsl(0.0,100%,35%)" stroke-width="0.00016"></path>
<path d="M1.022 0.745 Q1.656 0.475 1.267 0.107" stroke="hsl(0.0,100%,35%)" stroke-width="0.00048"></path>
<path d="M1.022 0.745 Q1.169 0.561 0.841 0.449" stroke="hsl(0.0,100%,35%)" stroke-width="0.00097"></path>
<path d="M1.022 0.745 Q1.214 0.629 1.029 0.511" stroke="hsl(0.0,100%,35%)" stroke-width="0.00016"></path>
</g>
<text x="0.373" y="0.711" font-size="0.042603" fill="hsl(0.0,100%,20%)">armansito</text>
<text x="1.056" y="0.318" font-size="0.059041" fill="hsl(0.0,100%,20%)">michaelludwig</text>
<text x="0.317" y="0.524" font-size="0.079719" fill="hsl(0.0,100%,20%)">johnstiles</text>
<text x="0.688" y="0.359" font-size="0.054257" fill="hsl(0.0,100%,20%)">jvanverth</text>
<text x="0.322" y="0.401" font-size="0.074961" fill="hsl(0.0,100%,20%)">brianosman</text>
<text x="1.267" y="0.073" font-size="0.067490" fill="hsl(180.0,100%,20%)">kjlubick</text>
<text x="1.533" y="0.107" font-size="0.026945" fill="hsl(180.0,100%,20%)">lovisolo</text>
<text x="0.841" y="0.429" font-size="0.038170" fill="hsl(0.0,100%,20%)">egdaniel</text>
<text x="0.626" y="0.566" font-size="0.042661" fill="hsl(0.0,100%,20%)">herb</text>
<text x="1.029" y="0.492" font-size="0.036438" fill="hsl(0.0,100%,20%)">nicolettep</text>
<text x="1.448" y="0.346" font-size="0.031299" fill="hsl(0.0,100%,20%)">jamesgk</text>
<text x="0.465" y="0.371" font-size="0.004460" fill="hsl(180.0,100%,20%)">ayzhao</text>
<text x="0.826" y="0.265" font-size="0.004460" fill="hsl(0.0,100%,20%)">blundell</text>
<text x="1.155" y="0.186" font-size="0.053005" fill="hsl(0.0,100%,20%)">robertphillips</text>
<text x="0.963" y="0.040" font-size="0.040015" fill="hsl(180.0,100%,20%)">bungeman</text>
<text x="0.425" y="0.064" font-size="0.015124" fill="hsl(180.0,100%,20%)">nscobie</text>
<text x="0.928" y="0.161" font-size="0.017416" fill="hsl(180.0,100%,20%)">jlavrova</text>
<text x="1.399" y="0.755" font-size="0.020193" fill="hsl(180.0,100%,20%)">jmbetancourt</text>
<text x="1.708" y="0.740" font-size="0.026385" fill="hsl(180.0,100%,20%)">fmalita</text>
<text x="0.097" y="0.445" font-size="0.008637" fill="hsl(180.0,100%,20%)">jreck</text>
<text x="0.643" y="0.130" font-size="0.019183" fill="hsl(180.0,100%,20%)">scroggo</text>
<text x="1.491" y="0.021" font-size="0.009973" fill="hsl(180.0,100%,20%)">jcgregorio</text>
<text x="0.182" y="0.273" font-size="0.008344" fill="hsl(0.0,100%,20%)">bsalomon</text>
<text x="1.469" y="0.616" font-size="0.009973" fill="hsl(0.0,100%,20%)">briansalomon</text>
<text x="0.670" y="0.214" font-size="0.020438" fill="hsl(180.0,100%,20%)">drott</text>
<text x="0.115" y="0.572" font-size="0.014792" fill="hsl(0.0,100%,20%)">ccameron</text>
<text x="1.481" y="0.214" font-size="0.018523" fill="hsl(180.0,100%,20%)">cmumford</text>
<text x="1.250" y="0.957" font-size="0.011371" fill="hsl(180.0,100%,20%)">sharaks</text>
<text x="1.525" y="0.954" font-size="0.008637" fill="hsl(180.0,100%,20%)">hcm</text>
<text x="0.988" y="0.011" font-size="0.009973" fill="hsl(180.0,100%,20%)">rmistry</text>
<text x="1.059" y="0.226" font-size="0.011587" fill="hsl(180.0,100%,20%)">borenet</text>
<text x="0.387" y="0.216" font-size="0.006307" fill="hsl(180.0,100%,20%)">djsollen</text>
<text x="0.820" y="0.596" font-size="0.006307" fill="hsl(0.0,100%,20%)">hitawala</text>
<text x="1.095" y="0.144" font-size="0.003862" fill="hsl(180.0,100%,20%)">jacksongardner</text>
<text x="1.600" y="0.528" font-size="0.003154" fill="hsl(180.0,100%,20%)">tdenniston</text>
<text x="1.416" y="0.466" font-size="0.012214" fill="hsl(0.0,100%,20%)">lehoangquyen</text>
<text x="1.224" y="0.442" font-size="0.004986" fill="hsl(0.0,100%,20%)">lokokung</text>
<text x="1.018" y="0.870" font-size="0.012214" fill="hsl(180.0,100%,20%)">mike</text>
<text x="0.216" y="0.151" font-size="0.005900" fill="hsl(180.0,100%,20%)">nigeltao</text>
<text x="0.917" y="0.464" font-size="0.008344" fill="hsl(0.0,100%,20%)">penghuang</text>
<text x="0.703" y="0.608" font-size="0.004986" fill="hsl(180.0,100%,20%)">sky</text>
<text x="1.022" y="0.739" font-size="0.012009" fill="hsl(0.0,100%,20%)">sunnyps</text>
</svg>
