<svg width="4000" height="2000" viewBox="-0.025 -0.025 2.05 1.05" xmlns="http://www.w3.org/2000/svg">
  <style>
    path {
      fill: none;
      stroke-linecap: round;
      stroke-opacity: 0.4;
    }

    text {
      text-anchor: middle;
      alignment-baseline: hanging;
    }
  </style>
  <g opacity="0.4">
<path d="M1.660 0.563 Q1.239 0.458 0.941 0.641" stroke="hsl(0.0,100%,35%)" stroke-width="0.01041"></path>
<path d="M1.660 0.563 Q1.561 0.245 0.919 0.223" stroke="hsl(0.0,100%,35%)" stroke-width="0.00881"></path>
<path d="M1.660 0.563 Q1.410 0.403 1.043 0.490" stroke="hsl(0.0,100%,35%)" stroke-width="0.01014"></path>
<path d="M0.941 0.641 Q1.113 0.586 1.043 0.490" stroke="hsl(0.0,100%,35%)" stroke-width="0.09904"></path>
<path d="M0.941 0.641 Q1.363 0.746 1.660 0.563" stroke="hsl(0.0,100%,35%)" stroke-width="0.01281"></path>
<path d="M0.941 0.641 Q1.264 0.428 0.919 0.223" stroke="hsl(0.0,100%,35%)" stroke-width="0.01709"></path>
<path d="M0.941 0.641 Q1.285 0.600 1.281 0.423" stroke="hsl(0.0,100%,35%)" stroke-width="0.03284"></path>
<path d="M0.941 0.641 Q1.352 0.500 1.167 0.268" stroke="hsl(0.0,100%,35%)" stroke-width="0.00053"></path>
<path d="M0.941 0.641 Q1.187 0.659 1.277 0.543" stroke="hsl(0.0,100%,35%)" stroke-width="0.00027"></path>
<path d="M0.941 0.641 Q1.642 0.449 1.420 0.065" stroke="hsl(0.0,100%,35%)" stroke-width="0.00053"></path>
<path d="M0.919 0.223 Q0.768 0.382 1.043 0.490" stroke="hsl(0.0,100%,35%)" stroke-width="0.02910"></path>
<path d="M0.919 0.223 Q1.017 0.542 1.660 0.563" stroke="hsl(0.0,100%,35%)" stroke-width="0.00587"></path>
<path d="M0.919 0.223 Q0.940 0.396 1.281 0.423" stroke="hsl(0.0,100%,35%)" stroke-width="0.01068"></path>
<path d="M0.919 0.223 Q0.596 0.437 0.941 0.641" stroke="hsl(0.0,100%,35%)" stroke-width="0.00294"></path>
<path d="M0.919 0.223 Q0.935 0.311 1.109 0.323" stroke="hsl(0.0,100%,35%)" stroke-width="0.00027"></path>
<path d="M0.919 0.223 Q0.742 0.236 0.727 0.325" stroke="hsl(0.0,100%,35%)" stroke-width="0.00027"></path>
<path d="M0.653 -0.030 Q0.605 0.322 1.281 0.423" stroke="hsl(0.0,100%,35%)" stroke-width="0.00027"></path>
<path d="M0.653 -0.030 Q0.260 0.363 0.941 0.641" stroke="hsl(0.0,100%,35%)" stroke-width="0.00027"></path>
<path d="M0.653 -0.030 Q0.583 0.150 0.919 0.223" stroke="hsl(0.0,100%,35%)" stroke-width="0.00027"></path>
<path d="M1.281 0.423 Q1.108 0.409 1.043 0.490" stroke="hsl(0.0,100%,35%)" stroke-width="0.05312"></path>
<path d="M1.281 0.423 Q0.936 0.464 0.941 0.641" stroke="hsl(0.0,100%,35%)" stroke-width="0.02189"></path>
<path d="M1.281 0.423 Q1.259 0.251 0.919 0.223" stroke="hsl(0.0,100%,35%)" stroke-width="0.01068"></path>
<path d="M1.281 0.423 Q1.602 0.286 1.405 0.099" stroke="hsl(0.0,100%,35%)" stroke-width="0.00027"></path>
<path d="M1.281 0.423 Q1.773 0.320 1.681 0.058" stroke="hsl(0.0,100%,35%)" stroke-width="0.00027"></path>
<path d="M1.167 0.268 Q0.756 0.409 0.941 0.641" stroke="hsl(0.0,100%,35%)" stroke-width="0.00107"></path>
<path d="M1.167 0.268 Q1.078 0.196 0.919 0.223" stroke="hsl(0.0,100%,35%)" stroke-width="0.00053"></path>
<path d="M1.167 0.268 Q0.927 0.354 1.043 0.490" stroke="hsl(0.0,100%,35%)" stroke-width="0.00027"></path>
<path d="M1.277 0.543 Q1.203 0.470 1.043 0.490" stroke="hsl(0.0,100%,35%)" stroke-width="0.00240"></path>
<path d="M1.277 0.543 Q1.375 0.484 1.281 0.423" stroke="hsl(0.0,100%,35%)" stroke-width="0.00133"></path>
<path d="M1.277 0.543 Q1.031 0.525 0.941 0.641" stroke="hsl(0.0,100%,35%)" stroke-width="0.00347"></path>
<path d="M1.277 0.543 Q1.354 0.312 0.919 0.223" stroke="hsl(0.0,100%,35%)" stroke-width="0.00027"></path>
<path d="M1.420 0.065 Q0.892 0.202 1.043 0.490" stroke="hsl(0.0,100%,35%)" stroke-width="0.00187"></path>
<path d="M1.420 0.065 Q1.043 0.044 0.919 0.223" stroke="hsl(0.0,100%,35%)" stroke-width="0.00187"></path>
<path d="M1.420 0.065 Q1.602 0.165 1.838 0.099" stroke="hsl(0.0,100%,35%)" stroke-width="0.00053"></path>
<path d="M1.420 0.065 Q0.720 0.257 0.941 0.641" stroke="hsl(0.0,100%,35%)" stroke-width="0.00027"></path>
<path d="M1.182 0.131 Q0.976 0.124 0.919 0.223" stroke="hsl(0.0,100%,35%)" stroke-width="0.02349"></path>
<path d="M1.182 0.131 Q1.075 0.443 1.660 0.563" stroke="hsl(0.0,100%,35%)" stroke-width="0.00400"></path>
<path d="M1.182 0.131 Q0.800 0.137 0.727 0.325" stroke="hsl(0.0,100%,35%)" stroke-width="0.00080"></path>
<path d="M1.182 0.131 Q0.825 0.283 1.043 0.490" stroke="hsl(0.0,100%,35%)" stroke-width="0.00133"></path>
<path d="M1.182 0.131 Q0.998 0.296 1.281 0.423" stroke="hsl(0.0,100%,35%)" stroke-width="0.01735"></path>
<path d="M1.182 0.131 Q0.654 0.338 0.941 0.641" stroke="hsl(0.0,100%,35%)" stroke-width="0.02189"></path>
<path d="M1.182 0.131 Q1.188 0.051 1.035 0.031" stroke="hsl(0.0,100%,35%)" stroke-width="0.00027"></path>
<path d="M1.182 0.131 Q0.900 0.356 1.277 0.543" stroke="hsl(0.0,100%,35%)" stroke-width="0.00027"></path>
<path d="M1.182 0.131 Q1.375 0.256 1.663 0.190" stroke="hsl(0.0,100%,35%)" stroke-width="0.00027"></path>
<path d="M1.182 0.131 Q0.992 -0.014 0.668 0.047" stroke="hsl(0.0,100%,35%)" stroke-width="0.00027"></path>
<path d="M0.727 0.325 Q0.753 0.471 1.043 0.490" stroke="hsl(0.0,100%,35%)" stroke-width="0.00294"></path>
<path d="M0.727 0.325 Q0.581 0.526 0.941 0.641" stroke="hsl(0.0,100%,35%)" stroke-width="0.00053"></path>
<path d="M0.727 0.325 Q0.904 0.312 0.919 0.223" stroke="hsl(0.0,100%,35%)" stroke-width="0.00427"></path>
<path d="M1.109 0.323 Q1.093 0.235 0.919 0.223" stroke="hsl(0.0,100%,35%)" stroke-width="0.00133"></path>
<path d="M1.109 0.323 Q1.115 0.407 1.281 0.423" stroke="hsl(0.0,100%,35%)" stroke-width="0.00320"></path>
<path d="M1.109 0.323 Q0.942 0.393 1.043 0.490" stroke="hsl(0.0,100%,35%)" stroke-width="0.00187"></path>
<path d="M1.109 0.323 Q0.770 0.448 0.941 0.641" stroke="hsl(0.0,100%,35%)" stroke-width="0.00027"></path>
<path d="M1.313 0.223 Q1.137 0.317 1.281 0.423" stroke="hsl(0.0,100%,35%)" stroke-width="0.00080"></path>
<path d="M1.313 0.223 Q1.116 0.144 0.919 0.223" stroke="hsl(0.0,100%,35%)" stroke-width="0.00053"></path>
<path d="M1.313 0.223 Q0.793 0.358 0.941 0.641" stroke="hsl(0.0,100%,35%)" stroke-width="0.00027"></path>
<path d="M1.313 0.223 Q0.965 0.303 1.043 0.490" stroke="hsl(0.0,100%,35%)" stroke-width="0.00027"></path>
<path d="M1.369 0.672 Q1.352 0.516 1.043 0.490" stroke="hsl(0.0,100%,35%)" stroke-width="0.00107"></path>
<path d="M1.369 0.672 Q1.503 0.358 0.919 0.223" stroke="hsl(0.0,100%,35%)" stroke-width="0.00027"></path>
<path d="M1.369 0.672 Q1.180 0.571 0.941 0.641" stroke="hsl(0.0,100%,35%)" stroke-width="0.00027"></path>
<path d="M0.436 0.208 Q0.665 0.312 0.919 0.223" stroke="hsl(0.0,100%,35%)" stroke-width="0.00027"></path>
<path d="M0.436 0.208 Q0.488 0.325 0.727 0.325" stroke="hsl(0.0,100%,35%)" stroke-width="0.00027"></path>
<path d="M0.436 0.208 Q0.514 0.471 1.043 0.490" stroke="hsl(0.0,100%,35%)" stroke-width="0.00027"></path>
<path d="M1.539 0.297 Q1.137 0.295 1.043 0.490" stroke="hsl(0.0,100%,35%)" stroke-width="0.00320"></path>
<path d="M1.539 0.297 Q1.386 0.455 1.660 0.563" stroke="hsl(0.0,100%,35%)" stroke-width="0.00053"></path>
<path d="M1.539 0.297 Q1.288 0.137 0.919 0.223" stroke="hsl(0.0,100%,35%)" stroke-width="0.00347"></path>
<path d="M1.539 0.297 Q0.965 0.350 0.941 0.641" stroke="hsl(0.0,100%,35%)" stroke-width="0.01522"></path>
<path d="M1.539 0.297 Q1.631 0.171 1.405 0.099" stroke="hsl(0.0,100%,35%)" stroke-width="0.00053"></path>
<path d="M1.539 0.297 Q1.309 0.309 1.281 0.423" stroke="hsl(0.0,100%,35%)" stroke-width="0.01495"></path>
</g>
<text x="1.660" y="0.540" font-size="0.047355" fill="hsl(0.0,100%,20%)">amaiorano</text>
<text x="0.941" y="0.590" font-size="0.101553" fill="hsl(0.0,100%,20%)">bclayton</text>
<text x="0.919" y="0.187" font-size="0.072204" fill="hsl(0.0,100%,20%)">sugoi</text>
<text x="1.043" y="0.443" font-size="0.093925" fill="hsl(0.0,100%,20%)">nicolascapens</text>
<text x="0.653" y="-0.033" font-size="0.005844" fill="hsl(0.0,100%,20%)">awoloszyn</text>
<text x="1.281" y="0.381" font-size="0.084549" fill="hsl(0.0,100%,20%)">chrisforbes</text>
<text x="1.167" y="0.263" font-size="0.010122" fill="hsl(0.0,100%,20%)">paulthomson</text>
<text x="1.277" y="0.534" font-size="0.018479" fill="hsl(0.0,100%,20%)">digit</text>
<text x="1.420" y="0.057" font-size="0.014706" fill="hsl(0.0,100%,20%)">jmadill</text>
<text x="1.182" y="0.104" font-size="0.054611" fill="hsl(0.0,100%,20%)">capn</text>
<text x="0.727" y="0.315" font-size="0.019673" fill="hsl(0.0,100%,20%)">srisser</text>
<text x="1.035" y="0.029" font-size="0.003374" fill="hsl(0.0,100%,20%)">lfy</text>
<text x="1.663" y="0.188" font-size="0.003374" fill="hsl(0.0,100%,20%)">senorblanco</text>
<text x="0.668" y="0.045" font-size="0.003374" fill="hsl(0.0,100%,20%)">thakis</text>
<text x="1.405" y="0.096" font-size="0.005844" fill="hsl(0.0,100%,20%)">nicolas.capens</text>
<text x="1.681" y="0.056" font-size="0.003374" fill="hsl(0.0,100%,20%)">ghartman</text>
<text x="1.109" y="0.314" font-size="0.017203" fill="hsl(0.0,100%,20%)">hliatis</text>
<text x="1.838" y="0.097" font-size="0.004771" fill="hsl(0.0,100%,20%)">cwallez</text>
<text x="1.313" y="0.219" font-size="0.008926" fill="hsl(0.0,100%,20%)">natsu</text>
<text x="1.369" y="0.668" font-size="0.008264" fill="hsl(0.0,100%,20%)">samans</text>
<text x="0.436" y="0.205" font-size="0.005844" fill="hsl(0.0,100%,20%)">shrekshao</text>
<text x="1.539" y="0.277" font-size="0.040204" fill="hsl(0.0,100%,20%)">swiftshader.regress</text>
</svg>
