<svg width="4000" height="2000" viewBox="-0.025 -0.025 2.05 1.05" xmlns="http://www.w3.org/2000/svg">
  <style>
    path {
      fill: none;
      stroke-linecap: round;
      stroke-opacity: 0.4;
    }

    text {
      text-anchor: middle;
      alignment-baseline: hanging;
    }
  </style>
  <g opacity="0.4">
<path d="M0.811 0.522 Q0.328 0.481 0.141 0.707" stroke="hsl(0.0,100%,35%)" stroke-width="0.01172"></path>
<path d="M0.811 0.522 Q0.508 0.475 0.348 0.612" stroke="hsl(0.0,100%,35%)" stroke-width="0.01344"></path>
<path d="M0.811 0.522 Q0.615 0.548 0.622 0.649" stroke="hsl(0.0,100%,35%)" stroke-width="0.00943"></path>
<path d="M0.141 0.707 Q0.321 0.701 0.348 0.612" stroke="hsl(0.0,100%,35%)" stroke-width="0.09605"></path>
<path d="M0.141 0.707 Q0.624 0.749 0.811 0.522" stroke="hsl(0.0,100%,35%)" stroke-width="0.01601"></path>
<path d="M0.141 0.707 Q0.428 0.774 0.622 0.649" stroke="hsl(0.0,100%,35%)" stroke-width="0.01801"></path>
<path d="M0.141 0.707 Q0.074 0.786 0.213 0.836" stroke="hsl(0.0,100%,35%)" stroke-width="0.00086"></path>
<path d="M0.141 0.707 Q0.462 0.666 0.451 0.500" stroke="hsl(0.0,100%,35%)" stroke-width="0.02945"></path>
<path d="M0.141 0.707 Q0.110 0.749 0.184 0.772" stroke="hsl(0.0,100%,35%)" stroke-width="0.00029"></path>
<path d="M0.141 0.707 Q0.432 0.828 0.732 0.713" stroke="hsl(0.0,100%,35%)" stroke-width="0.00057"></path>
<path d="M0.622 0.649 Q0.515 0.576 0.348 0.612" stroke="hsl(0.0,100%,35%)" stroke-width="0.02687"></path>
<path d="M0.622 0.649 Q0.817 0.624 0.811 0.522" stroke="hsl(0.0,100%,35%)" stroke-width="0.00629"></path>
<path d="M0.622 0.649 Q0.656 0.540 0.451 0.500" stroke="hsl(0.0,100%,35%)" stroke-width="0.00972"></path>
<path d="M0.622 0.649 Q0.334 0.582 0.141 0.707" stroke="hsl(0.0,100%,35%)" stroke-width="0.00286"></path>
<path d="M0.622 0.649 Q1.072 0.597 1.069 0.365" stroke="hsl(0.0,100%,35%)" stroke-width="0.00029"></path>
<path d="M0.622 0.649 Q0.752 0.746 0.970 0.704" stroke="hsl(0.0,100%,35%)" stroke-width="0.00029"></path>
<path d="M0.128 0.280 Q0.114 0.455 0.451 0.500" stroke="hsl(0.0,100%,35%)" stroke-width="0.00029"></path>
<path d="M0.128 0.280 Q-0.208 0.496 0.141 0.707" stroke="hsl(0.0,100%,35%)" stroke-width="0.00029"></path>
<path d="M0.128 0.280 Q0.080 0.563 0.622 0.649" stroke="hsl(0.0,100%,35%)" stroke-width="0.00029"></path>
<path d="M0.451 0.500 Q0.310 0.535 0.348 0.612" stroke="hsl(0.0,100%,35%)" stroke-width="0.04517"></path>
<path d="M0.451 0.500 Q0.130 0.541 0.141 0.707" stroke="hsl(0.0,100%,35%)" stroke-width="0.01915"></path>
<path d="M0.451 0.500 Q0.417 0.608 0.622 0.649" stroke="hsl(0.0,100%,35%)" stroke-width="0.00772"></path>
<path d="M0.451 0.500 Q0.645 0.428 0.548 0.317" stroke="hsl(0.0,100%,35%)" stroke-width="0.00029"></path>
<path d="M0.451 0.500 Q0.775 0.305 0.467 0.105" stroke="hsl(0.0,100%,35%)" stroke-width="0.00029"></path>
<path d="M0.213 0.836 Q0.280 0.757 0.141 0.707" stroke="hsl(0.0,100%,35%)" stroke-width="0.00114"></path>
<path d="M0.213 0.836 Q0.567 0.824 0.622 0.649" stroke="hsl(0.0,100%,35%)" stroke-width="0.00057"></path>
<path d="M0.213 0.836 Q0.460 0.751 0.348 0.612" stroke="hsl(0.0,100%,35%)" stroke-width="0.00029"></path>
<path d="M0.184 0.772 Q0.395 0.725 0.348 0.612" stroke="hsl(0.0,100%,35%)" stroke-width="0.00257"></path>
<path d="M0.184 0.772 Q0.214 0.731 0.141 0.707" stroke="hsl(0.0,100%,35%)" stroke-width="0.00400"></path>
<path d="M0.184 0.772 Q0.536 0.690 0.451 0.500" stroke="hsl(0.0,100%,35%)" stroke-width="0.00143"></path>
<path d="M0.184 0.772 Q0.502 0.798 0.622 0.649" stroke="hsl(0.0,100%,35%)" stroke-width="0.00029"></path>
<path d="M0.732 0.713 Q0.621 0.586 0.348 0.612" stroke="hsl(0.0,100%,35%)" stroke-width="0.00200"></path>
<path d="M0.732 0.713 Q0.728 0.659 0.622 0.649" stroke="hsl(0.0,100%,35%)" stroke-width="0.00200"></path>
<path d="M0.732 0.713 Q0.532 0.703 0.468 0.799" stroke="hsl(0.0,100%,35%)" stroke-width="0.00057"></path>
<path d="M0.732 0.713 Q0.441 0.592 0.141 0.707" stroke="hsl(0.0,100%,35%)" stroke-width="0.00029"></path>
<path d="M0.201 0.445 Q0.248 0.631 0.622 0.649" stroke="hsl(0.0,100%,35%)" stroke-width="0.02258"></path>
<path d="M0.201 0.445 Q0.444 0.606 0.811 0.522" stroke="hsl(0.0,100%,35%)" stroke-width="0.00686"></path>
<path d="M0.201 0.445 Q0.283 0.523 0.451 0.500" stroke="hsl(0.0,100%,35%)" stroke-width="0.01715"></path>
<path d="M0.201 0.445 Q-0.039 0.564 0.141 0.707" stroke="hsl(0.0,100%,35%)" stroke-width="0.02201"></path>
<path d="M0.201 0.445 Q0.540 0.401 0.528 0.226" stroke="hsl(0.0,100%,35%)" stroke-width="0.00029"></path>
<path d="M0.201 0.445 Q0.141 0.558 0.348 0.612" stroke="hsl(0.0,100%,35%)" stroke-width="0.00143"></path>
<path d="M0.201 0.445 Q0.379 0.729 0.970 0.704" stroke="hsl(0.0,100%,35%)" stroke-width="0.00086"></path>
<path d="M0.201 0.445 Q0.156 0.629 0.503 0.691" stroke="hsl(0.0,100%,35%)" stroke-width="0.00029"></path>
<path d="M0.201 0.445 Q-0.069 0.606 0.184 0.772" stroke="hsl(0.0,100%,35%)" stroke-width="0.00029"></path>
<path d="M0.970 0.704 Q0.733 0.534 0.348 0.612" stroke="hsl(0.0,100%,35%)" stroke-width="0.00343"></path>
<path d="M0.970 0.704 Q0.553 0.540 0.141 0.707" stroke="hsl(0.0,100%,35%)" stroke-width="0.00057"></path>
<path d="M0.970 0.704 Q0.840 0.607 0.622 0.649" stroke="hsl(0.0,100%,35%)" stroke-width="0.00457"></path>
<path d="M1.069 0.365 Q0.619 0.417 0.622 0.649" stroke="hsl(0.0,100%,35%)" stroke-width="0.00086"></path>
<path d="M1.069 0.365 Q0.653 0.309 0.451 0.500" stroke="hsl(0.0,100%,35%)" stroke-width="0.00343"></path>
<path d="M1.069 0.365 Q0.512 0.344 0.348 0.612" stroke="hsl(0.0,100%,35%)" stroke-width="0.00143"></path>
<path d="M1.069 0.365 Q0.331 0.351 0.141 0.707" stroke="hsl(0.0,100%,35%)" stroke-width="0.00029"></path>
<path d="M0.333 0.175 Q0.132 0.361 0.451 0.500" stroke="hsl(0.0,100%,35%)" stroke-width="0.00086"></path>
<path d="M0.333 0.175 Q0.098 0.470 0.622 0.649" stroke="hsl(0.0,100%,35%)" stroke-width="0.00057"></path>
<path d="M0.333 0.175 Q-0.189 0.403 0.141 0.707" stroke="hsl(0.0,100%,35%)" stroke-width="0.00029"></path>
<path d="M0.333 0.175 Q-0.009 0.396 0.348 0.612" stroke="hsl(0.0,100%,35%)" stroke-width="0.00029"></path>
<path d="M0.919 0.777 Q0.766 0.580 0.348 0.612" stroke="hsl(0.0,100%,35%)" stroke-width="0.00114"></path>
<path d="M0.919 0.777 Q0.873 0.653 0.622 0.649" stroke="hsl(0.0,100%,35%)" stroke-width="0.00029"></path>
<path d="M0.919 0.777 Q0.586 0.586 0.141 0.707" stroke="hsl(0.0,100%,35%)" stroke-width="0.00029"></path>
<path d="M1.087 0.355 Q0.619 0.409 0.622 0.649" stroke="hsl(0.0,100%,35%)" stroke-width="0.00029"></path>
<path d="M1.087 0.355 Q0.749 0.506 0.970 0.704" stroke="hsl(0.0,100%,35%)" stroke-width="0.00029"></path>
<path d="M1.087 0.355 Q0.512 0.336 0.348 0.612" stroke="hsl(0.0,100%,35%)" stroke-width="0.00029"></path>
<path d="M0.810 0.265 Q0.122 0.353 0.141 0.707" stroke="hsl(0.0,100%,35%)" stroke-width="0.01258"></path>
<path d="M0.810 0.265 Q0.302 0.346 0.348 0.612" stroke="hsl(0.0,100%,35%)" stroke-width="0.00314"></path>
<path d="M0.810 0.265 Q0.443 0.311 0.451 0.500" stroke="hsl(0.0,100%,35%)" stroke-width="0.01601"></path>
<path d="M0.810 0.265 Q0.605 0.394 0.811 0.522" stroke="hsl(0.0,100%,35%)" stroke-width="0.00057"></path>
<path d="M0.810 0.265 Q0.409 0.419 0.622 0.649" stroke="hsl(0.0,100%,35%)" stroke-width="0.00372"></path>
<path d="M0.810 0.265 Q0.637 0.239 0.548 0.317" stroke="hsl(0.0,100%,35%)" stroke-width="0.00057"></path>
</g>
<text x="0.811" y="0.496" font-size="0.052983" fill="hsl(0.0,100%,20%)">amaiorano</text>
<text x="0.141" y="0.657" font-size="0.101640" fill="hsl(0.0,100%,20%)">bclayton</text>
<text x="0.348" y="0.565" font-size="0.092851" fill="hsl(0.0,100%,20%)">nicolascapens</text>
<text x="0.622" y="0.613" font-size="0.071609" fill="hsl(0.0,100%,20%)">sugoi</text>
<text x="0.128" y="0.277" font-size="0.006118" fill="hsl(0.0,100%,20%)">awoloszyn</text>
<text x="0.451" y="0.459" font-size="0.081164" fill="hsl(0.0,100%,20%)">chrisforbes</text>
<text x="0.213" y="0.830" font-size="0.011170" fill="hsl(0.0,100%,20%)">paulthomson</text>
<text x="0.184" y="0.763" font-size="0.019667" fill="hsl(0.0,100%,20%)">digit</text>
<text x="0.732" y="0.705" font-size="0.015397" fill="hsl(0.0,100%,20%)">jmadill</text>
<text x="0.201" y="0.417" font-size="0.055961" fill="hsl(0.0,100%,20%)">capn</text>
<text x="0.528" y="0.224" font-size="0.003532" fill="hsl(0.0,100%,20%)">madesroches</text>
<text x="0.970" y="0.694" font-size="0.020897" fill="hsl(0.0,100%,20%)">srisser</text>
<text x="0.503" y="0.689" font-size="0.003532" fill="hsl(0.0,100%,20%)">lfy</text>
<text x="0.548" y="0.314" font-size="0.006118" fill="hsl(0.0,100%,20%)">nicolas.capens</text>
<text x="0.467" y="0.103" font-size="0.003532" fill="hsl(0.0,100%,20%)">ghartman</text>
<text x="1.069" y="0.357" font-size="0.016568" fill="hsl(0.0,100%,20%)">hliatis</text>
<text x="0.468" y="0.796" font-size="0.004995" fill="hsl(0.0,100%,20%)">cwallez</text>
<text x="0.333" y="0.170" font-size="0.009345" fill="hsl(0.0,100%,20%)">natsu</text>
<text x="0.919" y="0.772" font-size="0.008652" fill="hsl(0.0,100%,20%)">samans</text>
<text x="1.087" y="0.352" font-size="0.006118" fill="hsl(0.0,100%,20%)">shrekshao</text>
<text x="0.810" y="0.245" font-size="0.039963" fill="hsl(0.0,100%,20%)">swiftshader.regress</text>
</svg>
