<svg width="4000" height="2000" viewBox="-0.025 -0.025 2.05 1.05" xmlns="http://www.w3.org/2000/svg">
  <style>
    path {
      fill: none;
      stroke-linecap: round;
      stroke-opacity: 0.4;
    }

    text {
      text-anchor: middle;
      alignment-baseline: hanging;
    }
  </style>
  <g opacity="0.4">
<path d="M1.534 0.786 Q1.759 0.437 1.128 0.251" stroke="hsl(0.0,100%,35%)" stroke-width="0.06711"></path>
<path d="M1.534 0.786 Q1.554 0.672 1.337 0.637" stroke="hsl(0.0,100%,35%)" stroke-width="0.00451"></path>
<path d="M1.534 0.786 Q1.577 0.586 1.196 0.521" stroke="hsl(0.0,100%,35%)" stroke-width="0.01410"></path>
<path d="M1.128 0.251 Q0.903 0.600 1.534 0.786" stroke="hsl(0.0,100%,35%)" stroke-width="0.00226"></path>
<path d="M1.128 0.251 Q0.923 0.486 1.337 0.637" stroke="hsl(0.0,100%,35%)" stroke-width="0.00169"></path>
<path d="M1.337 0.637 Q1.542 0.402 1.128 0.251" stroke="hsl(0.0,100%,35%)" stroke-width="0.02538"></path>
<path d="M1.337 0.637 Q1.317 0.751 1.534 0.786" stroke="hsl(0.0,100%,35%)" stroke-width="0.00113"></path>
<path d="M1.337 0.637 Q1.360 0.551 1.196 0.521" stroke="hsl(0.0,100%,35%)" stroke-width="0.00056"></path>
<path d="M1.337 0.637 Q1.865 0.419 1.554 0.113" stroke="hsl(0.0,100%,35%)" stroke-width="0.00056"></path>
<path d="M1.337 0.637 Q1.120 0.676 1.147 0.790" stroke="hsl(0.0,100%,35%)" stroke-width="0.00226"></path>
<path d="M1.196 0.521 Q1.153 0.721 1.534 0.786" stroke="hsl(0.0,100%,35%)" stroke-width="0.03553"></path>
<path d="M1.196 0.521 Q0.956 0.645 1.147 0.790" stroke="hsl(0.0,100%,35%)" stroke-width="0.00113"></path>
<path d="M1.196 0.521 Q1.378 0.372 1.128 0.251" stroke="hsl(0.0,100%,35%)" stroke-width="0.03553"></path>
<path d="M1.196 0.521 Q1.173 0.607 1.337 0.637" stroke="hsl(0.0,100%,35%)" stroke-width="0.00677"></path>
<path d="M1.196 0.521 Q1.042 0.313 0.604 0.343" stroke="hsl(0.0,100%,35%)" stroke-width="0.00113"></path>
<path d="M1.196 0.521 Q1.082 0.431 0.883 0.467" stroke="hsl(0.0,100%,35%)" stroke-width="0.00056"></path>
<path d="M1.213 0.352 Q1.047 0.520 1.337 0.637" stroke="hsl(0.0,100%,35%)" stroke-width="0.00169"></path>
<path d="M1.213 0.352 Q1.251 0.284 1.128 0.251" stroke="hsl(0.0,100%,35%)" stroke-width="0.00169"></path>
<path d="M1.213 0.352 Q1.026 0.633 1.534 0.786" stroke="hsl(0.0,100%,35%)" stroke-width="0.00056"></path>
<path d="M1.326 0.936 Q1.571 0.789 1.337 0.637" stroke="hsl(0.0,100%,35%)" stroke-width="0.05470"></path>
<path d="M1.326 0.936 Q1.828 0.457 1.003 0.107" stroke="hsl(0.0,100%,35%)" stroke-width="0.00564"></path>
<path d="M1.326 0.936 Q1.775 0.554 1.128 0.251" stroke="hsl(0.0,100%,35%)" stroke-width="0.00564"></path>
<path d="M1.326 0.936 Q1.550 0.903 1.534 0.786" stroke="hsl(0.0,100%,35%)" stroke-width="0.07275"></path>
<path d="M1.326 0.936 Q2.114 0.525 1.484 0.050" stroke="hsl(0.0,100%,35%)" stroke-width="0.00169"></path>
<path d="M1.326 0.936 Q1.354 0.827 1.147 0.790" stroke="hsl(0.0,100%,35%)" stroke-width="0.00451"></path>
<path d="M1.326 0.936 Q1.594 0.702 1.196 0.521" stroke="hsl(0.0,100%,35%)" stroke-width="0.01523"></path>
<path d="M1.326 0.936 Q1.364 0.400 0.327 0.264" stroke="hsl(0.0,100%,35%)" stroke-width="0.00056"></path>
<path d="M1.326 0.936 Q1.154 0.865 0.978 0.934" stroke="hsl(0.0,100%,35%)" stroke-width="0.00056"></path>
<path d="M1.003 0.107 Q0.950 0.204 1.128 0.251" stroke="hsl(0.0,100%,35%)" stroke-width="0.01635"></path>
<path d="M1.003 0.107 Q0.746 0.439 1.337 0.637" stroke="hsl(0.0,100%,35%)" stroke-width="0.00790"></path>
<path d="M1.003 0.107 Q0.725 0.553 1.534 0.786" stroke="hsl(0.0,100%,35%)" stroke-width="0.00056"></path>
<path d="M1.484 0.050 Q1.145 0.079 1.128 0.251" stroke="hsl(0.0,100%,35%)" stroke-width="0.01072"></path>
<path d="M1.484 0.050 Q0.734 -0.074 0.327 0.264" stroke="hsl(0.0,100%,35%)" stroke-width="0.00113"></path>
<path d="M1.484 0.050 Q0.964 0.228 1.196 0.521" stroke="hsl(0.0,100%,35%)" stroke-width="0.00056"></path>
<path d="M0.327 0.264 Q0.738 0.418 1.128 0.251" stroke="hsl(0.0,100%,35%)" stroke-width="0.00113"></path>
<path d="M0.327 0.264 Q0.317 0.691 1.147 0.790" stroke="hsl(0.0,100%,35%)" stroke-width="0.00056"></path>
<path d="M1.528 0.456 Q1.492 0.273 1.128 0.251" stroke="hsl(0.0,100%,35%)" stroke-width="0.00282"></path>
<path d="M1.528 0.456 Q1.267 0.622 1.534 0.786" stroke="hsl(0.0,100%,35%)" stroke-width="0.00056"></path>
<path d="M1.528 0.456 Q1.287 0.508 1.337 0.637" stroke="hsl(0.0,100%,35%)" stroke-width="0.00169"></path>
<path d="M1.554 0.113 Q1.027 0.332 1.337 0.637" stroke="hsl(0.0,100%,35%)" stroke-width="0.00113"></path>
<path d="M1.554 0.113 Q1.231 0.097 1.128 0.251" stroke="hsl(0.0,100%,35%)" stroke-width="0.00169"></path>
<path d="M0.814 0.640 Q1.282 0.508 1.128 0.251" stroke="hsl(0.0,100%,35%)" stroke-width="0.00226"></path>
<path d="M0.814 0.640 Q1.100 0.656 1.196 0.521" stroke="hsl(0.0,100%,35%)" stroke-width="0.00226"></path>
<path d="M0.814 0.640 Q1.057 0.857 1.534 0.786" stroke="hsl(0.0,100%,35%)" stroke-width="0.00113"></path>
<path d="M1.308 0.065 Q1.070 0.122 1.128 0.251" stroke="hsl(0.0,100%,35%)" stroke-width="0.00113"></path>
<path d="M1.308 0.065 Q1.248 0.011 1.127 0.028" stroke="hsl(0.0,100%,35%)" stroke-width="0.00056"></path>
<path d="M1.308 0.065 Q0.648 0.395 1.147 0.790" stroke="hsl(0.0,100%,35%)" stroke-width="0.00056"></path>
<path d="M1.065 0.666 Q1.428 0.471 1.128 0.251" stroke="hsl(0.0,100%,35%)" stroke-width="0.00790"></path>
<path d="M1.065 0.666 Q1.223 0.706 1.337 0.637" stroke="hsl(0.0,100%,35%)" stroke-width="0.00790"></path>
<path d="M1.065 0.666 Q1.480 0.374 1.003 0.107" stroke="hsl(0.0,100%,35%)" stroke-width="0.00282"></path>
<path d="M1.065 0.666 Q1.203 0.820 1.534 0.786" stroke="hsl(0.0,100%,35%)" stroke-width="0.00113"></path>
<path d="M1.065 0.666 Q1.246 0.619 1.196 0.521" stroke="hsl(0.0,100%,35%)" stroke-width="0.00056"></path>
<path d="M1.065 0.666 Q1.007 0.744 1.147 0.790" stroke="hsl(0.0,100%,35%)" stroke-width="0.00056"></path>
<path d="M0.568 0.059 Q0.283 0.113 0.327 0.264" stroke="hsl(0.0,100%,35%)" stroke-width="0.00113"></path>
<path d="M0.568 0.059 Q0.694 0.267 1.128 0.251" stroke="hsl(0.0,100%,35%)" stroke-width="0.00282"></path>
<path d="M0.568 0.059 Q1.032 0.238 1.484 0.050" stroke="hsl(0.0,100%,35%)" stroke-width="0.00056"></path>
<path d="M0.568 0.059 Q0.226 0.398 0.814 0.640" stroke="hsl(0.0,100%,35%)" stroke-width="0.00113"></path>
<path d="M0.568 0.059 Q0.273 0.540 1.147 0.790" stroke="hsl(0.0,100%,35%)" stroke-width="0.00056"></path>
</g>
<text x="1.534" y="0.739" font-size="0.094888" fill="hsl(0.0,100%,20%)">amaiorano</text>
<text x="1.128" y="0.205" font-size="0.091230" fill="hsl(0.0,100%,20%)">nicolascapens</text>
<text x="1.337" y="0.601" font-size="0.072602" fill="hsl(0.0,100%,20%)">sugoi</text>
<text x="1.196" y="0.485" font-size="0.071376" fill="hsl(0.0,100%,20%)">bclayton</text>
<text x="1.147" y="0.779" font-size="0.021307" fill="hsl(0.0,100%,20%)">chrisforbes</text>
<text x="0.604" y="0.339" font-size="0.007102" fill="hsl(0.0,100%,20%)">jaebaek</text>
<text x="0.883" y="0.464" font-size="0.005022" fill="hsl(0.0,100%,20%)">paulthomson</text>
<text x="1.213" y="0.345" font-size="0.013287" fill="hsl(0.0,100%,20%)">caio.oliveira</text>
<text x="1.326" y="0.894" font-size="0.084930" fill="hsl(0.0,100%,20%)">capn</text>
<text x="1.003" y="0.088" font-size="0.038575" fill="hsl(0.0,100%,20%)">srisser</text>
<text x="1.484" y="0.038" font-size="0.025607" fill="hsl(0.0,100%,20%)">natsu</text>
<text x="0.327" y="0.257" font-size="0.014204" fill="hsl(0.0,100%,20%)">vantablack</text>
<text x="0.978" y="0.931" font-size="0.005022" fill="hsl(0.0,100%,20%)">madesroches</text>
<text x="1.528" y="0.448" font-size="0.015066" fill="hsl(0.0,100%,20%)">caramelli.devel</text>
<text x="1.554" y="0.107" font-size="0.012301" fill="hsl(0.0,100%,20%)">cwallez</text>
<text x="0.814" y="0.631" font-size="0.017397" fill="hsl(0.0,100%,20%)">digit</text>
<text x="1.308" y="0.060" font-size="0.010044" fill="hsl(0.0,100%,20%)">pcc</text>
<text x="1.127" y="0.025" font-size="0.005022" fill="hsl(0.0,100%,20%)">lfy</text>
<text x="1.065" y="0.650" font-size="0.030548" fill="hsl(0.0,100%,20%)">swiftshader.regress</text>
<text x="0.568" y="0.050" font-size="0.016656" fill="hsl(0.0,100%,20%)">zzyiwei</text>
</svg>
