<svg width="4000" height="2000" viewBox="-0.025 -0.025 2.05 1.05" xmlns="http://www.w3.org/2000/svg">
  <style>
    path {
      fill: none;
      stroke-linecap: round;
      stroke-opacity: 0.4;
    }

    text {
      text-anchor: middle;
      alignment-baseline: hanging;
    }
  </style>
  <g opacity="0.4">
<path d="M0.502 0.088 Q0.780 0.195 1.050 0.083" stroke="hsl(0.0,100%,35%)" stroke-width="0.00097"></path>
<path d="M0.502 0.088 Q0.482 0.084 0.470 0.092" stroke="hsl(0.0,100%,35%)" stroke-width="0.00097"></path>
<path d="M0.502 0.088 Q0.267 0.079 0.197 0.192" stroke="hsl(0.0,100%,35%)" stroke-width="0.00097"></path>
<path d="M0.502 0.088 Q0.463 0.184 0.641 0.224" stroke="hsl(0.0,100%,35%)" stroke-width="0.00097"></path>
<path d="M0.197 0.192 Q0.393 0.297 0.641 0.224" stroke="hsl(0.0,100%,35%)" stroke-width="0.07378"></path>
<path d="M0.197 0.192 Q0.371 0.535 1.078 0.525" stroke="hsl(0.0,100%,35%)" stroke-width="0.01068"></path>
<path d="M0.197 0.192 Q0.409 0.192 0.454 0.088" stroke="hsl(0.0,100%,35%)" stroke-width="0.00291"></path>
<path d="M0.197 0.192 Q0.433 0.201 0.502 0.088" stroke="hsl(0.0,100%,35%)" stroke-width="0.00582"></path>
<path d="M0.197 0.192 Q0.413 0.197 0.470 0.092" stroke="hsl(0.0,100%,35%)" stroke-width="0.00097"></path>
<path d="M0.197 0.192 Q0.711 0.308 1.050 0.083" stroke="hsl(0.0,100%,35%)" stroke-width="0.01359"></path>
<path d="M0.197 0.192 Q0.523 0.248 0.704 0.101" stroke="hsl(0.0,100%,35%)" stroke-width="0.00388"></path>
<path d="M0.072 0.296 Q0.218 0.269 0.197 0.192" stroke="hsl(0.0,100%,35%)" stroke-width="0.12426"></path>
<path d="M0.072 0.296 Q-0.144 0.443 0.095 0.581" stroke="hsl(0.0,100%,35%)" stroke-width="0.00097"></path>
<path d="M0.072 0.296 Q0.414 0.374 0.641 0.224" stroke="hsl(0.0,100%,35%)" stroke-width="0.00097"></path>
<path d="M0.072 0.296 Q0.392 0.612 1.078 0.525" stroke="hsl(0.0,100%,35%)" stroke-width="0.00194"></path>
<path d="M0.072 0.296 Q0.544 0.325 0.704 0.101" stroke="hsl(0.0,100%,35%)" stroke-width="0.01747"></path>
<path d="M0.072 0.296 Q0.732 0.385 1.050 0.083" stroke="hsl(0.0,100%,35%)" stroke-width="0.00291"></path>
<path d="M0.072 0.296 Q0.164 0.386 0.359 0.361" stroke="hsl(0.0,100%,35%)" stroke-width="0.00097"></path>
<path d="M0.072 0.296 Q0.014 0.372 0.150 0.417" stroke="hsl(0.0,100%,35%)" stroke-width="0.00097"></path>
<path d="M0.072 0.296 Q0.023 0.319 0.058 0.348" stroke="hsl(0.0,100%,35%)" stroke-width="0.00097"></path>
<path d="M1.078 0.525 Q1.066 0.679 1.365 0.719" stroke="hsl(0.0,100%,35%)" stroke-width="0.00194"></path>
<path d="M1.078 0.525 Q0.904 0.182 0.197 0.192" stroke="hsl(0.0,100%,35%)" stroke-width="0.00388"></path>
<path d="M1.078 0.525 Q1.101 0.287 0.641 0.224" stroke="hsl(0.0,100%,35%)" stroke-width="0.01068"></path>
<path d="M0.704 0.101 Q0.892 0.161 1.050 0.083" stroke="hsl(0.0,100%,35%)" stroke-width="0.00097"></path>
<path d="M0.704 0.101 Q0.378 0.045 0.197 0.192" stroke="hsl(0.0,100%,35%)" stroke-width="0.00291"></path>
<path d="M0.704 0.101 Q0.574 0.150 0.641 0.224" stroke="hsl(0.0,100%,35%)" stroke-width="0.01262"></path>
<path d="M1.106 0.741 Q0.994 0.802 1.087 0.870" stroke="hsl(0.0,100%,35%)" stroke-width="0.00097"></path>
<path d="M1.106 0.741 Q1.287 0.390 0.641 0.224" stroke="hsl(0.0,100%,35%)" stroke-width="0.00097"></path>
<path d="M1.106 0.741 Q1.091 0.285 0.197 0.192" stroke="hsl(0.0,100%,35%)" stroke-width="0.00097"></path>
<path d="M0.320 0.329 Q0.368 0.236 0.197 0.192" stroke="hsl(0.0,100%,35%)" stroke-width="0.01262"></path>
<path d="M0.320 0.329 Q0.542 0.579 1.078 0.525" stroke="hsl(0.0,100%,35%)" stroke-width="0.00291"></path>
<path d="M0.320 0.329 Q0.694 0.292 0.704 0.101" stroke="hsl(0.0,100%,35%)" stroke-width="0.00097"></path>
<path d="M0.881 0.244 Q0.580 0.081 0.197 0.192" stroke="hsl(0.0,100%,35%)" stroke-width="0.06310"></path>
<path d="M0.881 0.244 Q0.777 0.186 0.641 0.224" stroke="hsl(0.0,100%,35%)" stroke-width="0.04757"></path>
<path d="M0.881 0.244 Q0.906 0.137 0.704 0.101" stroke="hsl(0.0,100%,35%)" stroke-width="0.00485"></path>
<path d="M0.881 0.244 Q0.956 0.344 1.169 0.330" stroke="hsl(0.0,100%,35%)" stroke-width="0.00097"></path>
</g>
<text x="0.502" y="0.078" font-size="0.021105" fill="hsl(0.0,100%,20%)">bclayton</text>
<text x="1.050" y="0.068" font-size="0.029092" fill="hsl(0.0,100%,20%)">amaiorano</text>
<text x="0.470" y="0.088" font-size="0.009439" fill="hsl(0.0,100%,20%)">geofflang</text>
<text x="0.197" y="0.131" font-size="0.121241" fill="hsl(0.0,100%,20%)">sugoi</text>
<text x="0.641" y="0.183" font-size="0.082284" fill="hsl(0.0,100%,20%)">nicolascapens</text>
<text x="0.072" y="0.254" font-size="0.083359" fill="hsl(0.0,100%,20%)">capn</text>
<text x="0.095" y="0.578" font-size="0.006674" fill="hsl(0.0,100%,20%)">jmadill</text>
<text x="1.078" y="0.506" font-size="0.038340" fill="hsl(0.0,100%,20%)">syoussefi</text>
<text x="0.704" y="0.079" font-size="0.044771" fill="hsl(0.0,100%,20%)">srisser</text>
<text x="0.359" y="0.357" font-size="0.006674" fill="hsl(0.0,100%,20%)">aeubanks</text>
<text x="0.150" y="0.414" font-size="0.006674" fill="hsl(0.0,100%,20%)">mikaelpessa</text>
<text x="0.058" y="0.345" font-size="0.006674" fill="hsl(0.0,100%,20%)">stevenperron</text>
<text x="1.106" y="0.736" font-size="0.011560" fill="hsl(0.0,100%,20%)">ericcurtin17</text>
<text x="1.087" y="0.866" font-size="0.006674" fill="hsl(0.0,100%,20%)">caramelli.devel</text>
<text x="0.320" y="0.315" font-size="0.027518" fill="hsl(0.0,100%,20%)">nicolas.capens</text>
<text x="0.454" y="0.083" font-size="0.011560" fill="hsl(0.0,100%,20%)">jonahr</text>
<text x="0.881" y="0.207" font-size="0.073111" fill="hsl(0.0,100%,20%)">swiftshader.regress</text>
<text x="1.169" y="0.327" font-size="0.006674" fill="hsl(0.0,100%,20%)">natsu</text>
<text x="1.365" y="0.714" font-size="0.009439" fill="hsl(0.0,100%,20%)">chrisforbes</text>
</svg>
