<svg width="4000" height="2000" viewBox="-0.025 -0.025 2.05 1.05" xmlns="http://www.w3.org/2000/svg">
  <style>
    path {
      fill: none;
      stroke-linecap: round;
      stroke-opacity: 0.4;
    }

    text {
      text-anchor: middle;
      alignment-baseline: hanging;
    }
  </style>
  <g opacity="0.4">
<path d="M0.284 0.631 Q0.609 0.563 0.547 0.389" stroke="hsl(0.0,100%,35%)" stroke-width="0.00099"></path>
<path d="M0.284 0.631 Q0.135 0.650 0.140 0.727" stroke="hsl(0.0,100%,35%)" stroke-width="0.00099"></path>
<path d="M0.284 0.631 Q0.527 0.693 0.702 0.588" stroke="hsl(0.0,100%,35%)" stroke-width="0.00099"></path>
<path d="M0.284 0.631 Q1.047 0.993 1.920 0.700" stroke="hsl(0.0,100%,35%)" stroke-width="0.00099"></path>
<path d="M0.702 0.588 Q1.221 0.887 1.920 0.700" stroke="hsl(0.0,100%,35%)" stroke-width="0.07546"></path>
<path d="M0.702 0.588 Q0.946 0.796 1.405 0.722" stroke="hsl(0.0,100%,35%)" stroke-width="0.01092"></path>
<path d="M0.702 0.588 Q0.631 0.381 0.211 0.370" stroke="hsl(0.0,100%,35%)" stroke-width="0.00298"></path>
<path d="M0.702 0.588 Q0.458 0.526 0.284 0.631" stroke="hsl(0.0,100%,35%)" stroke-width="0.00596"></path>
<path d="M0.702 0.588 Q0.309 0.545 0.140 0.727" stroke="hsl(0.0,100%,35%)" stroke-width="0.00099"></path>
<path d="M0.702 0.588 Q0.783 0.458 0.547 0.389" stroke="hsl(0.0,100%,35%)" stroke-width="0.01390"></path>
<path d="M0.702 0.588 Q0.885 0.355 0.471 0.214" stroke="hsl(0.0,100%,35%)" stroke-width="0.00397"></path>
<path d="M0.617 0.388 Q0.499 0.505 0.702 0.588" stroke="hsl(0.0,100%,35%)" stroke-width="0.12511"></path>
<path d="M0.617 0.388 Q0.918 0.418 1.045 0.278" stroke="hsl(0.0,100%,35%)" stroke-width="0.00099"></path>
<path d="M0.617 0.388 Q1.019 0.804 1.920 0.700" stroke="hsl(0.0,100%,35%)" stroke-width="0.00099"></path>
<path d="M0.617 0.388 Q0.743 0.713 1.405 0.722" stroke="hsl(0.0,100%,35%)" stroke-width="0.00199"></path>
<path d="M0.617 0.388 Q0.682 0.272 0.471 0.214" stroke="hsl(0.0,100%,35%)" stroke-width="0.01092"></path>
<path d="M0.617 0.388 Q0.580 0.375 0.547 0.389" stroke="hsl(0.0,100%,35%)" stroke-width="0.00298"></path>
<path d="M0.617 0.388 Q0.715 0.579 1.110 0.573" stroke="hsl(0.0,100%,35%)" stroke-width="0.00099"></path>
<path d="M0.617 0.388 Q0.732 0.333 0.652 0.265" stroke="hsl(0.0,100%,35%)" stroke-width="0.00099"></path>
<path d="M0.617 0.388 Q0.792 0.475 1.000 0.409" stroke="hsl(0.0,100%,35%)" stroke-width="0.00099"></path>
<path d="M1.405 0.722 Q1.605 0.667 1.541 0.557" stroke="hsl(0.0,100%,35%)" stroke-width="0.00199"></path>
<path d="M1.405 0.722 Q1.161 0.515 0.702 0.588" stroke="hsl(0.0,100%,35%)" stroke-width="0.00397"></path>
<path d="M1.405 0.722 Q1.680 0.814 1.920 0.700" stroke="hsl(0.0,100%,35%)" stroke-width="0.01092"></path>
<path d="M0.471 0.214 Q0.369 0.317 0.547 0.389" stroke="hsl(0.0,100%,35%)" stroke-width="0.00099"></path>
<path d="M0.471 0.214 Q0.287 0.447 0.702 0.588" stroke="hsl(0.0,100%,35%)" stroke-width="0.00298"></path>
<path d="M0.471 0.214 Q0.807 0.747 1.920 0.700" stroke="hsl(0.0,100%,35%)" stroke-width="0.01191"></path>
<path d="M1.513 0.347 Q1.625 0.243 1.446 0.165" stroke="hsl(0.0,100%,35%)" stroke-width="0.00099"></path>
<path d="M1.513 0.347 Q1.434 0.604 1.920 0.700" stroke="hsl(0.0,100%,35%)" stroke-width="0.00099"></path>
<path d="M1.513 0.347 Q0.914 0.305 0.702 0.588" stroke="hsl(0.0,100%,35%)" stroke-width="0.00099"></path>
<path d="M0.392 0.610 Q0.565 0.661 0.702 0.588" stroke="hsl(0.0,100%,35%)" stroke-width="0.01291"></path>
<path d="M0.392 0.610 Q0.809 0.869 1.405 0.722" stroke="hsl(0.0,100%,35%)" stroke-width="0.00298"></path>
<path d="M0.392 0.610 Q0.748 0.428 0.471 0.214" stroke="hsl(0.0,100%,35%)" stroke-width="0.00099"></path>
<path d="M1.786 0.816 Q1.427 0.485 0.702 0.588" stroke="hsl(0.0,100%,35%)" stroke-width="0.06454"></path>
<path d="M1.786 0.816 Q1.947 0.785 1.920 0.700" stroke="hsl(0.0,100%,35%)" stroke-width="0.04865"></path>
<path d="M1.786 0.816 Q1.610 0.252 0.471 0.214" stroke="hsl(0.0,100%,35%)" stroke-width="0.00496"></path>
<path d="M1.786 0.816 Q1.679 0.874 1.768 0.939" stroke="hsl(0.0,100%,35%)" stroke-width="0.00099"></path>
</g>
<text x="0.284" y="0.620" font-size="0.021344" fill="hsl(0.0,100%,20%)">bclayton</text>
<text x="0.547" y="0.375" font-size="0.029421" fill="hsl(0.0,100%,20%)">amaiorano</text>
<text x="0.140" y="0.722" font-size="0.009545" fill="hsl(0.0,100%,20%)">geofflang</text>
<text x="0.702" y="0.527" font-size="0.122242" fill="hsl(0.0,100%,20%)">sugoi</text>
<text x="1.920" y="0.658" font-size="0.082941" fill="hsl(0.0,100%,20%)">nicolascapens</text>
<text x="0.617" y="0.347" font-size="0.081835" fill="hsl(0.0,100%,20%)">capn</text>
<text x="1.045" y="0.275" font-size="0.006750" fill="hsl(0.0,100%,20%)">jmadill</text>
<text x="1.405" y="0.703" font-size="0.038774" fill="hsl(0.0,100%,20%)">syoussefi</text>
<text x="0.471" y="0.194" font-size="0.041057" fill="hsl(0.0,100%,20%)">srisser</text>
<text x="1.110" y="0.570" font-size="0.006750" fill="hsl(0.0,100%,20%)">aeubanks</text>
<text x="0.652" y="0.262" font-size="0.006750" fill="hsl(0.0,100%,20%)">mikaelpessa</text>
<text x="1.000" y="0.405" font-size="0.006750" fill="hsl(0.0,100%,20%)">stevenperron</text>
<text x="1.513" y="0.341" font-size="0.011691" fill="hsl(0.0,100%,20%)">ericcurtin17</text>
<text x="1.446" y="0.162" font-size="0.006750" fill="hsl(0.0,100%,20%)">caramelli.devel</text>
<text x="0.392" y="0.596" font-size="0.027830" fill="hsl(0.0,100%,20%)">nicolas.capens</text>
<text x="0.211" y="0.364" font-size="0.011691" fill="hsl(0.0,100%,20%)">jonahr</text>
<text x="1.786" y="0.780" font-size="0.073939" fill="hsl(0.0,100%,20%)">swiftshader.regress</text>
<text x="1.768" y="0.936" font-size="0.006750" fill="hsl(0.0,100%,20%)">natsu</text>
<text x="1.541" y="0.552" font-size="0.009545" fill="hsl(0.0,100%,20%)">chrisforbes</text>
</svg>
