<svg width="4000" height="2000" viewBox="-0.025 -0.025 2.05 1.05" xmlns="http://www.w3.org/2000/svg">
  <style>
    path {
      fill: none;
      stroke-linecap: round;
      stroke-opacity: 0.4;
    }

    text {
      text-anchor: middle;
      alignment-baseline: hanging;
    }
  </style>
  <g opacity="0.4">
<path d="M0.308 0.520 Q0.751 0.429 0.670 0.193" stroke="hsl(0.0,100%,35%)" stroke-width="0.01127"></path>
<path d="M0.308 0.520 Q0.019 0.764 0.431 0.958" stroke="hsl(0.0,100%,35%)" stroke-width="0.02253"></path>
<path d="M0.308 0.520 Q0.274 0.639 0.498 0.682" stroke="hsl(0.0,100%,35%)" stroke-width="0.02253"></path>
<path d="M0.308 0.520 Q0.081 0.667 0.318 0.810" stroke="hsl(0.0,100%,35%)" stroke-width="0.00563"></path>
<path d="M0.308 0.520 Q0.408 0.429 0.253 0.361" stroke="hsl(0.0,100%,35%)" stroke-width="0.02817"></path>
<path d="M0.431 0.958 Q0.630 0.884 0.528 0.770" stroke="hsl(0.0,100%,35%)" stroke-width="0.00563"></path>
<path d="M0.431 0.958 Q0.570 0.767 0.227 0.657" stroke="hsl(0.0,100%,35%)" stroke-width="0.00563"></path>
<path d="M0.431 0.958 Q0.720 0.715 0.308 0.520" stroke="hsl(0.0,100%,35%)" stroke-width="0.03380"></path>
<path d="M0.431 0.958 Q1.054 0.906 1.088 0.590" stroke="hsl(0.0,100%,35%)" stroke-width="0.01127"></path>
<path d="M0.431 0.958 Q1.163 0.623 0.670 0.193" stroke="hsl(0.0,100%,35%)" stroke-width="0.00563"></path>
<path d="M0.656 0.576 Q0.824 0.444 0.602 0.333" stroke="hsl(0.0,100%,35%)" stroke-width="0.00563"></path>
<path d="M0.656 0.576 Q0.527 0.479 0.308 0.520" stroke="hsl(0.0,100%,35%)" stroke-width="0.09577"></path>
<path d="M0.656 0.576 Q0.970 0.387 0.670 0.193" stroke="hsl(0.0,100%,35%)" stroke-width="0.01690"></path>
<path d="M0.602 0.333 Q0.639 0.559 1.088 0.590" stroke="hsl(180.0,100%,35%)" stroke-width="0.01127"></path>
<path d="M0.602 0.333 Q0.305 0.368 0.308 0.520" stroke="hsl(180.0,100%,35%)" stroke-width="0.00563"></path>
<path d="M0.602 0.333 Q0.748 0.276 0.670 0.193" stroke="hsl(180.0,100%,35%)" stroke-width="0.04507"></path>
<path d="M0.602 0.333 Q0.434 0.465 0.656 0.576" stroke="hsl(180.0,100%,35%)" stroke-width="0.01127"></path>
<path d="M0.925 0.887 Q0.864 0.818 0.715 0.832" stroke="hsl(180.0,100%,35%)" stroke-width="0.00563"></path>
<path d="M0.925 0.887 Q1.353 0.489 0.670 0.193" stroke="hsl(180.0,100%,35%)" stroke-width="0.00563"></path>
<path d="M0.925 0.887 Q0.910 0.580 0.308 0.520" stroke="hsl(180.0,100%,35%)" stroke-width="0.00563"></path>
</g>
<text x="0.308" y="0.464" font-size="0.113192" fill="hsl(0.0,100%,20%)">bclayton</text>
<text x="0.670" y="0.158" font-size="0.068465" fill="hsl(180.0,100%,20%)">geofflang</text>
<text x="0.431" y="0.924" font-size="0.068465" fill="hsl(0.0,100%,20%)">syoussefi</text>
<text x="0.498" y="0.664" font-size="0.035355" fill="hsl(0.0,100%,20%)">cwallez</text>
<text x="0.318" y="0.801" font-size="0.017678" fill="hsl(0.0,100%,20%)">dneto</text>
<text x="0.253" y="0.341" font-size="0.039528" fill="hsl(0.0,100%,20%)">amaiorano</text>
<text x="0.656" y="0.534" font-size="0.084779" fill="hsl(0.0,100%,20%)">jif</text>
<text x="0.602" y="0.300" font-size="0.066144" fill="hsl(180.0,100%,20%)">natsu</text>
<text x="1.088" y="0.572" font-size="0.035355" fill="hsl(180.0,100%,20%)">chrisforbes</text>
<text x="0.925" y="0.872" font-size="0.030619" fill="hsl(180.0,100%,20%)">swiftshader.regress</text>
<text x="0.715" y="0.823" font-size="0.017678" fill="hsl(180.0,100%,20%)">ynovikov</text>
<text x="0.528" y="0.761" font-size="0.017678" fill="hsl(0.0,100%,20%)">yuxinhu</text>
<text x="0.227" y="0.648" font-size="0.017678" fill="hsl(0.0,100%,20%)">sugoi</text>
</svg>
