<svg width="4000" height="2000" viewBox="-0.025 -0.025 2.05 1.05" xmlns="http://www.w3.org/2000/svg">
  <style>
    path {
      fill: none;
      stroke-linecap: round;
      stroke-opacity: 0.4;
    }

    text {
      text-anchor: middle;
      alignment-baseline: hanging;
    }
  </style>
  <g opacity="0.4">
<path d="M1.423 0.272 Q1.218 0.372 1.369 0.494" stroke="hsl(0.0,100%,35%)" stroke-width="0.00315"></path>
<path d="M1.423 0.272 Q0.957 0.312 0.934 0.548" stroke="hsl(0.0,100%,35%)" stroke-width="0.00105"></path>
<path d="M1.423 0.272 Q1.323 0.335 1.425 0.398" stroke="hsl(0.0,100%,35%)" stroke-width="0.00210"></path>
<path d="M1.423 0.272 Q1.493 0.207 1.383 0.159" stroke="hsl(0.0,100%,35%)" stroke-width="0.00105"></path>
<path d="M1.423 0.272 Q1.237 0.034 0.732 0.072" stroke="hsl(0.0,100%,35%)" stroke-width="0.00105"></path>
<path d="M0.934 0.548 Q0.889 0.697 1.169 0.752" stroke="hsl(0.0,100%,35%)" stroke-width="0.00210"></path>
<path d="M0.934 0.548 Q1.470 0.443 1.383 0.159" stroke="hsl(0.0,100%,35%)" stroke-width="0.00420"></path>
<path d="M0.934 0.548 Q1.214 0.270 0.732 0.072" stroke="hsl(0.0,100%,35%)" stroke-width="0.01155"></path>
<path d="M1.383 0.159 Q1.127 -0.014 0.732 0.072" stroke="hsl(0.0,100%,35%)" stroke-width="0.07036"></path>
<path d="M1.383 0.159 Q0.848 0.264 0.934 0.548" stroke="hsl(0.0,100%,35%)" stroke-width="0.01155"></path>
<path d="M1.383 0.159 Q1.051 0.225 1.107 0.402" stroke="hsl(0.0,100%,35%)" stroke-width="0.00315"></path>
<path d="M1.383 0.159 Q1.313 0.223 1.423 0.272" stroke="hsl(0.0,100%,35%)" stroke-width="0.00630"></path>
<path d="M1.383 0.159 Q1.213 0.287 1.425 0.398" stroke="hsl(0.0,100%,35%)" stroke-width="0.00105"></path>
<path d="M1.383 0.159 Q1.108 0.324 1.369 0.494" stroke="hsl(0.0,100%,35%)" stroke-width="0.01470"></path>
<path d="M1.383 0.159 Q0.995 0.131 0.854 0.314" stroke="hsl(0.0,100%,35%)" stroke-width="0.00210"></path>
<path d="M1.645 0.246 Q1.584 0.150 1.383 0.159" stroke="hsl(0.0,100%,35%)" stroke-width="0.12077"></path>
<path d="M1.645 0.246 Q1.477 0.118 1.190 0.172" stroke="hsl(0.0,100%,35%)" stroke-width="0.00105"></path>
<path d="M1.645 0.246 Q1.328 -0.023 0.732 0.072" stroke="hsl(0.0,100%,35%)" stroke-width="0.00105"></path>
<path d="M1.645 0.246 Q1.048 0.255 0.934 0.548" stroke="hsl(0.0,100%,35%)" stroke-width="0.00210"></path>
<path d="M1.645 0.246 Q1.195 0.122 0.854 0.314" stroke="hsl(0.0,100%,35%)" stroke-width="0.01050"></path>
<path d="M1.645 0.246 Q1.309 0.315 1.369 0.494" stroke="hsl(0.0,100%,35%)" stroke-width="0.00315"></path>
<path d="M1.645 0.246 Q1.360 0.103 1.019 0.211" stroke="hsl(0.0,100%,35%)" stroke-width="0.00105"></path>
<path d="M1.645 0.246 Q1.302 0.230 1.195 0.394" stroke="hsl(0.0,100%,35%)" stroke-width="0.00105"></path>
<path d="M0.854 0.314 Q0.968 0.507 1.369 0.494" stroke="hsl(0.0,100%,35%)" stroke-width="0.00105"></path>
<path d="M0.854 0.314 Q1.243 0.343 1.383 0.159" stroke="hsl(0.0,100%,35%)" stroke-width="0.00315"></path>
<path d="M0.854 0.314 Q0.987 0.169 0.732 0.072" stroke="hsl(0.0,100%,35%)" stroke-width="0.01050"></path>
<path d="M1.768 0.487 Q1.768 0.310 1.423 0.272" stroke="hsl(0.0,100%,35%)" stroke-width="0.00105"></path>
<path d="M1.768 0.487 Q1.838 0.246 1.383 0.159" stroke="hsl(0.0,100%,35%)" stroke-width="0.00105"></path>
<path d="M1.768 0.487 Q1.582 0.073 0.732 0.072" stroke="hsl(0.0,100%,35%)" stroke-width="0.00105"></path>
<path d="M1.821 0.709 Q1.630 0.675 1.523 0.761" stroke="hsl(0.0,100%,35%)" stroke-width="0.00105"></path>
<path d="M1.821 0.709 Q1.786 0.173 0.732 0.072" stroke="hsl(0.0,100%,35%)" stroke-width="0.00105"></path>
<path d="M1.821 0.709 Q2.042 0.347 1.383 0.159" stroke="hsl(0.0,100%,35%)" stroke-width="0.00105"></path>
<path d="M1.345 0.338 Q1.508 0.256 1.383 0.159" stroke="hsl(0.0,100%,35%)" stroke-width="0.01365"></path>
<path d="M1.345 0.338 Q0.972 0.361 0.934 0.548" stroke="hsl(0.0,100%,35%)" stroke-width="0.00315"></path>
<path d="M1.345 0.338 Q1.119 0.228 0.854 0.314" stroke="hsl(0.0,100%,35%)" stroke-width="0.00105"></path>
<path d="M0.438 0.416 Q1.116 0.476 1.383 0.159" stroke="hsl(0.0,100%,35%)" stroke-width="0.06196"></path>
<path d="M0.438 0.416 Q0.860 0.303 0.732 0.072" stroke="hsl(0.0,100%,35%)" stroke-width="0.04201"></path>
<path d="M0.438 0.416 Q0.727 0.448 0.854 0.314" stroke="hsl(0.0,100%,35%)" stroke-width="0.00525"></path>
</g>
<text x="1.423" y="0.258" font-size="0.027250" fill="hsl(0.0,100%,20%)">bclayton</text>
<text x="1.369" y="0.478" font-size="0.032243" fill="hsl(0.0,100%,20%)">amaiorano</text>
<text x="0.934" y="0.527" font-size="0.041026" fill="hsl(0.0,100%,20%)">syoussefi</text>
<text x="1.425" y="0.392" font-size="0.012187" fill="hsl(0.0,100%,20%)">geofflang</text>
<text x="1.383" y="0.098" font-size="0.122070" fill="hsl(0.0,100%,20%)">sugoi</text>
<text x="0.732" y="0.032" font-size="0.080837" fill="hsl(0.0,100%,20%)">nicolascapens</text>
<text x="1.645" y="0.205" font-size="0.081447" fill="hsl(0.0,100%,20%)">capn</text>
<text x="1.190" y="0.168" font-size="0.007036" fill="hsl(0.0,100%,20%)">jmadill</text>
<text x="0.854" y="0.294" font-size="0.039801" fill="hsl(0.0,100%,20%)">srisser</text>
<text x="1.019" y="0.207" font-size="0.007036" fill="hsl(0.0,100%,20%)">aeubanks</text>
<text x="1.195" y="0.390" font-size="0.007036" fill="hsl(0.0,100%,20%)">mikaelpessa</text>
<text x="1.768" y="0.481" font-size="0.012187" fill="hsl(0.0,100%,20%)">dvet</text>
<text x="1.821" y="0.703" font-size="0.012187" fill="hsl(0.0,100%,20%)">ericcurtin17</text>
<text x="1.523" y="0.758" font-size="0.007036" fill="hsl(0.0,100%,20%)">caramelli.devel</text>
<text x="1.345" y="0.324" font-size="0.029010" fill="hsl(0.0,100%,20%)">nicolas.capens</text>
<text x="1.107" y="0.396" font-size="0.012187" fill="hsl(0.0,100%,20%)">jonahr</text>
<text x="0.438" y="0.380" font-size="0.071753" fill="hsl(0.0,100%,20%)">swiftshader.regress</text>
<text x="1.169" y="0.747" font-size="0.009950" fill="hsl(0.0,100%,20%)">chrisforbes</text>
</svg>
