<svg width="4000" height="2000" viewBox="-0.025 -0.025 2.05 1.05" xmlns="http://www.w3.org/2000/svg">
  <style>
    path {
      fill: none;
      stroke-linecap: round;
      stroke-opacity: 0.4;
    }

    text {
      text-anchor: middle;
      alignment-baseline: hanging;
    }
  </style>
  <g opacity="0.4">
<path d="M1.315 0.612 Q1.263 0.238 0.522 0.181" stroke="hsl(0.0,100%,35%)" stroke-width="0.01206"></path>
<path d="M1.315 0.612 Q1.350 0.322 0.792 0.241" stroke="hsl(0.0,100%,35%)" stroke-width="0.01378"></path>
<path d="M1.315 0.612 Q1.180 0.345 0.628 0.352" stroke="hsl(0.0,100%,35%)" stroke-width="0.00948"></path>
<path d="M0.522 0.181 Q0.608 0.265 0.792 0.241" stroke="hsl(0.0,100%,35%)" stroke-width="0.09676"></path>
<path d="M0.522 0.181 Q0.573 0.555 1.315 0.612" stroke="hsl(0.0,100%,35%)" stroke-width="0.01751"></path>
<path d="M0.522 0.181 Q0.438 0.288 0.628 0.352" stroke="hsl(0.0,100%,35%)" stroke-width="0.01838"></path>
<path d="M0.522 0.181 Q0.268 0.370 0.583 0.536" stroke="hsl(0.0,100%,35%)" stroke-width="0.00086"></path>
<path d="M0.522 0.181 Q0.784 0.383 1.235 0.299" stroke="hsl(0.0,100%,35%)" stroke-width="0.02957"></path>
<path d="M0.522 0.181 Q0.074 0.306 0.218 0.552" stroke="hsl(0.0,100%,35%)" stroke-width="0.00029"></path>
<path d="M0.522 0.181 Q0.207 0.165 0.108 0.315" stroke="hsl(0.0,100%,35%)" stroke-width="0.00057"></path>
<path d="M0.628 0.352 Q0.764 0.620 1.315 0.612" stroke="hsl(0.0,100%,35%)" stroke-width="0.00660"></path>
<path d="M0.628 0.352 Q0.974 0.447 1.235 0.299" stroke="hsl(0.0,100%,35%)" stroke-width="0.01005"></path>
<path d="M0.628 0.352 Q0.799 0.329 0.792 0.241" stroke="hsl(0.0,100%,35%)" stroke-width="0.02642"></path>
<path d="M0.628 0.352 Q0.712 0.245 0.522 0.181" stroke="hsl(0.0,100%,35%)" stroke-width="0.00287"></path>
<path d="M0.628 0.352 Q0.917 0.248 0.777 0.085" stroke="hsl(0.0,100%,35%)" stroke-width="0.00029"></path>
<path d="M0.628 0.352 Q0.330 0.302 0.167 0.437" stroke="hsl(0.0,100%,35%)" stroke-width="0.00029"></path>
<path d="M1.015 0.495 Q1.282 0.441 1.235 0.299" stroke="hsl(0.0,100%,35%)" stroke-width="0.00029"></path>
<path d="M1.015 0.495 Q1.020 0.239 0.522 0.181" stroke="hsl(0.0,100%,35%)" stroke-width="0.00029"></path>
<path d="M1.015 0.495 Q0.936 0.346 0.628 0.352" stroke="hsl(0.0,100%,35%)" stroke-width="0.00029"></path>
<path d="M1.235 0.299 Q1.059 0.181 0.792 0.241" stroke="hsl(0.0,100%,35%)" stroke-width="0.04393"></path>
<path d="M1.235 0.299 Q0.972 0.097 0.522 0.181" stroke="hsl(0.0,100%,35%)" stroke-width="0.01866"></path>
<path d="M1.235 0.299 Q0.889 0.204 0.628 0.352" stroke="hsl(0.0,100%,35%)" stroke-width="0.00775"></path>
<path d="M1.235 0.299 Q1.235 0.376 1.386 0.393" stroke="hsl(0.0,100%,35%)" stroke-width="0.00029"></path>
<path d="M1.235 0.299 Q1.560 0.056 1.157 -0.156" stroke="hsl(0.0,100%,35%)" stroke-width="0.00029"></path>
<path d="M0.583 0.536 Q0.836 0.346 0.522 0.181" stroke="hsl(0.0,100%,35%)" stroke-width="0.00115"></path>
<path d="M0.583 0.536 Q0.752 0.453 0.628 0.352" stroke="hsl(0.0,100%,35%)" stroke-width="0.00057"></path>
<path d="M0.583 0.536 Q0.923 0.430 0.792 0.241" stroke="hsl(0.0,100%,35%)" stroke-width="0.00029"></path>
<path d="M0.218 0.552 Q0.753 0.511 0.792 0.241" stroke="hsl(0.0,100%,35%)" stroke-width="0.00258"></path>
<path d="M0.218 0.552 Q0.666 0.427 0.522 0.181" stroke="hsl(0.0,100%,35%)" stroke-width="0.00402"></path>
<path d="M0.218 0.552 Q0.929 0.628 1.235 0.299" stroke="hsl(0.0,100%,35%)" stroke-width="0.00144"></path>
<path d="M0.218 0.552 Q0.583 0.534 0.628 0.352" stroke="hsl(0.0,100%,35%)" stroke-width="0.00029"></path>
<path d="M0.108 0.315 Q0.509 0.415 0.792 0.241" stroke="hsl(0.0,100%,35%)" stroke-width="0.00201"></path>
<path d="M0.108 0.315 Q0.338 0.438 0.628 0.352" stroke="hsl(0.0,100%,35%)" stroke-width="0.00201"></path>
<path d="M0.108 0.315 Q0.017 0.396 0.155 0.458" stroke="hsl(0.0,100%,35%)" stroke-width="0.00057"></path>
<path d="M0.108 0.315 Q0.422 0.331 0.522 0.181" stroke="hsl(0.0,100%,35%)" stroke-width="0.00029"></path>
<path d="M0.417 0.435 Q0.589 0.436 0.628 0.352" stroke="hsl(0.0,100%,35%)" stroke-width="0.02182"></path>
<path d="M0.417 0.435 Q0.725 0.703 1.315 0.612" stroke="hsl(0.0,100%,35%)" stroke-width="0.00747"></path>
<path d="M0.417 0.435 Q0.291 0.386 0.167 0.437" stroke="hsl(0.0,100%,35%)" stroke-width="0.00115"></path>
<path d="M0.417 0.435 Q0.673 0.329 0.522 0.181" stroke="hsl(0.0,100%,35%)" stroke-width="0.02096"></path>
<path d="M0.417 0.435 Q0.935 0.531 1.235 0.299" stroke="hsl(0.0,100%,35%)" stroke-width="0.01723"></path>
<path d="M0.417 0.435 Q0.495 0.597 0.828 0.595" stroke="hsl(0.0,100%,35%)" stroke-width="0.00029"></path>
<path d="M0.417 0.435 Q0.760 0.413 0.792 0.241" stroke="hsl(0.0,100%,35%)" stroke-width="0.00144"></path>
<path d="M0.417 0.435 Q0.528 0.660 0.991 0.656" stroke="hsl(0.0,100%,35%)" stroke-width="0.00029"></path>
<path d="M0.417 0.435 Q0.225 0.454 0.218 0.552" stroke="hsl(0.0,100%,35%)" stroke-width="0.00029"></path>
<path d="M0.167 0.437 Q0.636 0.464 0.792 0.241" stroke="hsl(0.0,100%,35%)" stroke-width="0.00345"></path>
<path d="M0.167 0.437 Q0.549 0.380 0.522 0.181" stroke="hsl(0.0,100%,35%)" stroke-width="0.00057"></path>
<path d="M0.167 0.437 Q0.465 0.487 0.628 0.352" stroke="hsl(0.0,100%,35%)" stroke-width="0.00459"></path>
<path d="M0.777 0.085 Q0.489 0.189 0.628 0.352" stroke="hsl(0.0,100%,35%)" stroke-width="0.00086"></path>
<path d="M0.777 0.085 Q0.835 0.283 1.235 0.299" stroke="hsl(0.0,100%,35%)" stroke-width="0.00345"></path>
<path d="M0.777 0.085 Q0.660 0.166 0.792 0.241" stroke="hsl(0.0,100%,35%)" stroke-width="0.00144"></path>
<path d="M0.777 0.085 Q0.573 0.082 0.522 0.181" stroke="hsl(0.0,100%,35%)" stroke-width="0.00029"></path>
<path d="M1.292 0.094 Q1.099 0.185 1.235 0.299" stroke="hsl(0.0,100%,35%)" stroke-width="0.00086"></path>
<path d="M1.292 0.094 Q0.753 0.090 0.628 0.352" stroke="hsl(0.0,100%,35%)" stroke-width="0.00057"></path>
<path d="M1.292 0.094 Q0.837 -0.017 0.522 0.181" stroke="hsl(0.0,100%,35%)" stroke-width="0.00029"></path>
<path d="M1.292 0.094 Q0.924 0.068 0.792 0.241" stroke="hsl(0.0,100%,35%)" stroke-width="0.00029"></path>
<path d="M1.067 -0.085 Q0.669 0.023 0.792 0.241" stroke="hsl(0.0,100%,35%)" stroke-width="0.00115"></path>
<path d="M1.067 -0.085 Q0.498 0.046 0.628 0.352" stroke="hsl(0.0,100%,35%)" stroke-width="0.00029"></path>
<path d="M1.067 -0.085 Q0.582 -0.061 0.522 0.181" stroke="hsl(0.0,100%,35%)" stroke-width="0.00029"></path>
<path d="M0.433 0.736 Q0.838 0.583 0.628 0.352" stroke="hsl(0.0,100%,35%)" stroke-width="0.00029"></path>
<path d="M0.433 0.736 Q0.539 0.533 0.167 0.437" stroke="hsl(0.0,100%,35%)" stroke-width="0.00029"></path>
<path d="M0.433 0.736 Q1.008 0.560 0.792 0.241" stroke="hsl(0.0,100%,35%)" stroke-width="0.00029"></path>
<path d="M1.431 0.094 Q0.906 -0.044 0.522 0.181" stroke="hsl(0.0,100%,35%)" stroke-width="0.01177"></path>
<path d="M1.431 0.094 Q0.993 0.040 0.792 0.241" stroke="hsl(0.0,100%,35%)" stroke-width="0.00287"></path>
<path d="M1.431 0.094 Q1.168 0.157 1.235 0.299" stroke="hsl(0.0,100%,35%)" stroke-width="0.01579"></path>
<path d="M1.431 0.094 Q0.958 0.330 1.315 0.612" stroke="hsl(0.0,100%,35%)" stroke-width="0.00057"></path>
<path d="M1.431 0.094 Q0.823 0.063 0.628 0.352" stroke="hsl(0.0,100%,35%)" stroke-width="0.00373"></path>
<path d="M1.431 0.094 Q1.168 0.234 1.386 0.393" stroke="hsl(0.0,100%,35%)" stroke-width="0.00057"></path>
</g>
<text x="1.315" y="0.585" font-size="0.054267" fill="hsl(0.0,100%,20%)">amaiorano</text>
<text x="0.522" y="0.130" font-size="0.101801" fill="hsl(0.0,100%,20%)">bclayton</text>
<text x="0.792" y="0.195" font-size="0.092650" fill="hsl(0.0,100%,20%)">nicolascapens</text>
<text x="0.628" y="0.316" font-size="0.071591" fill="hsl(0.0,100%,20%)">sugoi</text>
<text x="1.015" y="0.492" font-size="0.006131" fill="hsl(0.0,100%,20%)">awoloszyn</text>
<text x="1.235" y="0.259" font-size="0.080801" fill="hsl(0.0,100%,20%)">chrisforbes</text>
<text x="0.583" y="0.530" font-size="0.011194" fill="hsl(0.0,100%,20%)">paulthomson</text>
<text x="0.218" y="0.542" font-size="0.019710" fill="hsl(0.0,100%,20%)">digit</text>
<text x="0.108" y="0.308" font-size="0.015430" fill="hsl(0.0,100%,20%)">jmadill</text>
<text x="0.417" y="0.407" font-size="0.055635" fill="hsl(0.0,100%,20%)">capn</text>
<text x="0.167" y="0.426" font-size="0.021240" fill="hsl(0.0,100%,20%)">srisser</text>
<text x="0.828" y="0.593" font-size="0.003540" fill="hsl(0.0,100%,20%)">madesroches</text>
<text x="0.991" y="0.654" font-size="0.003540" fill="hsl(0.0,100%,20%)">lfy</text>
<text x="1.386" y="0.390" font-size="0.006131" fill="hsl(0.0,100%,20%)">nicolas.capens</text>
<text x="1.157" y="-0.158" font-size="0.003540" fill="hsl(0.0,100%,20%)">ghartman</text>
<text x="0.777" y="0.077" font-size="0.016604" fill="hsl(0.0,100%,20%)">hliatis</text>
<text x="0.155" y="0.455" font-size="0.005006" fill="hsl(0.0,100%,20%)">cwallez</text>
<text x="1.292" y="0.089" font-size="0.009366" fill="hsl(0.0,100%,20%)">natsu</text>
<text x="1.067" y="-0.089" font-size="0.008671" fill="hsl(0.0,100%,20%)">samans</text>
<text x="0.433" y="0.733" font-size="0.006131" fill="hsl(0.0,100%,20%)">shrekshao</text>
<text x="1.431" y="0.074" font-size="0.039260" fill="hsl(0.0,100%,20%)">swiftshader.regress</text>
</svg>
