<svg width="4000" height="2000" viewBox="-0.025 -0.025 2.05 1.05" xmlns="http://www.w3.org/2000/svg">
  <style>
    path {
      fill: none;
      stroke-linecap: round;
      stroke-opacity: 0.4;
    }

    text {
      text-anchor: middle;
      alignment-baseline: hanging;
    }
  </style>
  <g opacity="0.4">
<path d="M0.096 0.623 Q0.256 0.630 0.305 0.554" stroke="hsl(0.0,100%,35%)" stroke-width="0.06373"></path>
<path d="M0.096 0.623 Q0.331 0.561 0.261 0.432" stroke="hsl(0.0,100%,35%)" stroke-width="0.00472"></path>
<path d="M0.096 0.623 Q-0.071 0.739 0.118 0.845" stroke="hsl(0.0,100%,35%)" stroke-width="0.01298"></path>
<path d="M0.305 0.554 Q0.145 0.547 0.096 0.623" stroke="hsl(0.0,100%,35%)" stroke-width="0.00236"></path>
<path d="M0.305 0.554 Q0.380 0.484 0.261 0.432" stroke="hsl(0.0,100%,35%)" stroke-width="0.00177"></path>
<path d="M0.261 0.432 Q0.186 0.502 0.305 0.554" stroke="hsl(0.0,100%,35%)" stroke-width="0.02478"></path>
<path d="M0.261 0.432 Q0.026 0.495 0.096 0.623" stroke="hsl(0.0,100%,35%)" stroke-width="0.00059"></path>
<path d="M0.261 0.432 Q-0.141 0.610 0.118 0.845" stroke="hsl(0.0,100%,35%)" stroke-width="0.00059"></path>
<path d="M0.261 0.432 Q0.227 0.650 0.645 0.715" stroke="hsl(0.0,100%,35%)" stroke-width="0.00059"></path>
<path d="M0.261 0.432 Q0.781 0.358 0.750 0.088" stroke="hsl(0.0,100%,35%)" stroke-width="0.00177"></path>
<path d="M0.118 0.845 Q0.284 0.730 0.096 0.623" stroke="hsl(0.0,100%,35%)" stroke-width="0.02950"></path>
<path d="M0.118 0.845 Q1.039 0.593 0.750 0.088" stroke="hsl(0.0,100%,35%)" stroke-width="0.00118"></path>
<path d="M0.118 0.845 Q0.444 0.737 0.305 0.554" stroke="hsl(0.0,100%,35%)" stroke-width="0.02596"></path>
<path d="M0.118 0.845 Q0.520 0.667 0.261 0.432" stroke="hsl(0.0,100%,35%)" stroke-width="0.00590"></path>
<path d="M0.118 0.845 Q0.204 0.916 0.361 0.889" stroke="hsl(0.0,100%,35%)" stroke-width="0.00118"></path>
<path d="M0.914 0.393 Q0.556 0.282 0.261 0.432" stroke="hsl(0.0,100%,35%)" stroke-width="0.00177"></path>
<path d="M0.914 0.393 Q0.481 0.352 0.305 0.554" stroke="hsl(0.0,100%,35%)" stroke-width="0.00177"></path>
<path d="M0.914 0.393 Q0.321 0.344 0.096 0.623" stroke="hsl(0.0,100%,35%)" stroke-width="0.00059"></path>
<path d="M0.499 0.396 Q0.351 0.366 0.261 0.432" stroke="hsl(0.0,100%,35%)" stroke-width="0.05488"></path>
<path d="M0.499 0.396 Q0.413 0.563 0.720 0.641" stroke="hsl(0.0,100%,35%)" stroke-width="0.00472"></path>
<path d="M0.499 0.396 Q0.275 0.436 0.305 0.554" stroke="hsl(0.0,100%,35%)" stroke-width="0.00531"></path>
<path d="M0.499 0.396 Q0.263 0.505 0.424 0.644" stroke="hsl(0.0,100%,35%)" stroke-width="0.00059"></path>
<path d="M0.499 0.396 Q0.212 0.643 0.633 0.838" stroke="hsl(0.0,100%,35%)" stroke-width="0.00236"></path>
<path d="M0.499 0.396 Q0.870 0.292 0.750 0.088" stroke="hsl(0.0,100%,35%)" stroke-width="0.00413"></path>
<path d="M0.499 0.396 Q0.115 0.429 0.096 0.623" stroke="hsl(0.0,100%,35%)" stroke-width="0.06904"></path>
<path d="M0.499 0.396 Q-0.051 0.544 0.118 0.845" stroke="hsl(0.0,100%,35%)" stroke-width="0.01357"></path>
<path d="M0.499 0.396 Q0.311 0.645 0.756 0.791" stroke="hsl(0.0,100%,35%)" stroke-width="0.00059"></path>
<path d="M0.720 0.641 Q0.583 0.515 0.305 0.554" stroke="hsl(0.0,100%,35%)" stroke-width="0.01888"></path>
<path d="M0.720 0.641 Q0.658 0.445 0.261 0.432" stroke="hsl(0.0,100%,35%)" stroke-width="0.00826"></path>
<path d="M0.720 0.641 Q0.423 0.507 0.096 0.623" stroke="hsl(0.0,100%,35%)" stroke-width="0.00059"></path>
<path d="M0.424 0.644 Q0.436 0.575 0.305 0.554" stroke="hsl(0.0,100%,35%)" stroke-width="0.00236"></path>
<path d="M0.424 0.644 Q0.110 0.683 0.118 0.845" stroke="hsl(0.0,100%,35%)" stroke-width="0.00177"></path>
<path d="M0.424 0.644 Q0.276 0.568 0.096 0.623" stroke="hsl(0.0,100%,35%)" stroke-width="0.00118"></path>
<path d="M0.633 0.838 Q0.696 0.630 0.305 0.554" stroke="hsl(0.0,100%,35%)" stroke-width="0.01239"></path>
<path d="M0.633 0.838 Q0.732 0.839 0.756 0.791" stroke="hsl(0.0,100%,35%)" stroke-width="0.00118"></path>
<path d="M0.633 0.838 Q0.369 0.738 0.118 0.845" stroke="hsl(0.0,100%,35%)" stroke-width="0.00059"></path>
<path d="M0.756 0.791 Q0.720 0.582 0.305 0.554" stroke="hsl(0.0,100%,35%)" stroke-width="0.00118"></path>
<path d="M0.756 0.791 Q1.315 0.438 0.750 0.088" stroke="hsl(0.0,100%,35%)" stroke-width="0.00059"></path>
<path d="M0.704 0.466 Q0.434 0.430 0.305 0.554" stroke="hsl(0.0,100%,35%)" stroke-width="0.00295"></path>
<path d="M0.704 0.466 Q0.274 0.423 0.096 0.623" stroke="hsl(0.0,100%,35%)" stroke-width="0.00059"></path>
<path d="M0.704 0.466 Q0.509 0.360 0.261 0.432" stroke="hsl(0.0,100%,35%)" stroke-width="0.00177"></path>
<path d="M0.645 0.715 Q0.679 0.497 0.261 0.432" stroke="hsl(0.0,100%,35%)" stroke-width="0.00118"></path>
<path d="M0.645 0.715 Q0.604 0.567 0.305 0.554" stroke="hsl(0.0,100%,35%)" stroke-width="0.00118"></path>
<path d="M0.510 0.683 Q0.510 0.577 0.305 0.554" stroke="hsl(0.0,100%,35%)" stroke-width="0.00118"></path>
<path d="M0.510 0.683 Q0.743 0.781 0.986 0.689" stroke="hsl(0.0,100%,35%)" stroke-width="0.00059"></path>
<path d="M0.510 0.683 Q1.105 0.433 0.750 0.088" stroke="hsl(0.0,100%,35%)" stroke-width="0.00059"></path>
<path d="M0.130 0.263 Q-0.015 0.444 0.305 0.554" stroke="hsl(0.0,100%,35%)" stroke-width="0.01003"></path>
<path d="M0.130 0.263 Q0.060 0.374 0.261 0.432" stroke="hsl(0.0,100%,35%)" stroke-width="0.00826"></path>
<path d="M0.130 0.263 Q0.122 0.570 0.720 0.641" stroke="hsl(0.0,100%,35%)" stroke-width="0.00295"></path>
<path d="M0.130 0.263 Q-0.176 0.436 0.096 0.623" stroke="hsl(0.0,100%,35%)" stroke-width="0.00059"></path>
<path d="M0.629 0.436 Q0.408 0.639 0.756 0.791" stroke="hsl(0.0,100%,35%)" stroke-width="0.00118"></path>
<path d="M0.629 0.436 Q0.373 0.430 0.305 0.554" stroke="hsl(0.0,100%,35%)" stroke-width="0.00295"></path>
<path d="M0.629 0.436 Q0.310 0.638 0.633 0.838" stroke="hsl(0.0,100%,35%)" stroke-width="0.00059"></path>
<path d="M0.629 0.436 Q0.360 0.499 0.424 0.644" stroke="hsl(0.0,100%,35%)" stroke-width="0.00118"></path>
<path d="M0.629 0.436 Q0.968 0.286 0.750 0.088" stroke="hsl(0.0,100%,35%)" stroke-width="0.00059"></path>
</g>
<text x="0.096" y="0.576" font-size="0.093755" fill="hsl(0.0,100%,20%)">amaiorano</text>
<text x="0.305" y="0.508" font-size="0.091806" fill="hsl(0.0,100%,20%)">nicolascapens</text>
<text x="0.261" y="0.395" font-size="0.074214" fill="hsl(0.0,100%,20%)">sugoi</text>
<text x="0.118" y="0.812" font-size="0.066295" fill="hsl(0.0,100%,20%)">bclayton</text>
<text x="0.750" y="0.078" font-size="0.020427" fill="hsl(0.0,100%,20%)">chrisforbes</text>
<text x="0.361" y="0.886" font-size="0.007459" fill="hsl(0.0,100%,20%)">jaebaek</text>
<text x="0.914" y="0.386" font-size="0.013954" fill="hsl(0.0,100%,20%)">caio.oliveira</text>
<text x="0.499" y="0.353" font-size="0.085532" fill="hsl(0.0,100%,20%)">capn</text>
<text x="0.720" y="0.621" font-size="0.040853" fill="hsl(0.0,100%,20%)">srisser</text>
<text x="0.424" y="0.635" font-size="0.018270" fill="hsl(0.0,100%,20%)">digit</text>
<text x="0.633" y="0.824" font-size="0.028402" fill="hsl(0.0,100%,20%)">natsu</text>
<text x="0.756" y="0.783" font-size="0.014917" fill="hsl(0.0,100%,20%)">vantablack</text>
<text x="0.704" y="0.458" font-size="0.015822" fill="hsl(0.0,100%,20%)">caramelli.devel</text>
<text x="0.645" y="0.709" font-size="0.011793" fill="hsl(0.0,100%,20%)">cwallez</text>
<text x="0.510" y="0.677" font-size="0.010548" fill="hsl(0.0,100%,20%)">pcc</text>
<text x="0.986" y="0.687" font-size="0.005274" fill="hsl(0.0,100%,20%)">lfy</text>
<text x="0.130" y="0.247" font-size="0.032081" fill="hsl(0.0,100%,20%)">swiftshader.regress</text>
<text x="0.629" y="0.427" font-size="0.017492" fill="hsl(0.0,100%,20%)">zzyiwei</text>
</svg>
