<svg width="4000" height="2000" viewBox="-0.025 -0.025 2.05 1.05" xmlns="http://www.w3.org/2000/svg">
  <style>
    path {
      fill: none;
      stroke-linecap: round;
      stroke-opacity: 0.4;
    }

    text {
      text-anchor: middle;
      alignment-baseline: hanging;
    }
  </style>
  <g opacity="0.4">
<path d="M1.205 0.617 Q1.146 0.384 0.679 0.362" stroke="hsl(0.0,100%,35%)" stroke-width="0.01171"></path>
<path d="M1.205 0.617 Q1.174 0.486 0.912 0.472" stroke="hsl(0.0,100%,35%)" stroke-width="0.01342"></path>
<path d="M1.205 0.617 Q1.332 0.705 1.532 0.663" stroke="hsl(0.0,100%,35%)" stroke-width="0.00942"></path>
<path d="M0.679 0.362 Q0.707 0.464 0.912 0.472" stroke="hsl(0.0,100%,35%)" stroke-width="0.09593"></path>
<path d="M0.679 0.362 Q0.738 0.595 1.205 0.617" stroke="hsl(0.0,100%,35%)" stroke-width="0.01599"></path>
<path d="M0.679 0.362 Q0.865 0.683 1.532 0.663" stroke="hsl(0.0,100%,35%)" stroke-width="0.01799"></path>
<path d="M0.679 0.362 Q0.351 0.397 0.348 0.565" stroke="hsl(0.0,100%,35%)" stroke-width="0.00086"></path>
<path d="M0.679 0.362 Q0.890 0.483 1.172 0.406" stroke="hsl(0.0,100%,35%)" stroke-width="0.02941"></path>
<path d="M0.679 0.362 Q0.122 0.432 0.135 0.719" stroke="hsl(0.0,100%,35%)" stroke-width="0.00029"></path>
<path d="M0.679 0.362 Q0.395 0.264 0.141 0.381" stroke="hsl(0.0,100%,35%)" stroke-width="0.00057"></path>
<path d="M1.532 0.663 Q1.375 0.443 0.912 0.472" stroke="hsl(0.0,100%,35%)" stroke-width="0.02684"></path>
<path d="M1.532 0.663 Q1.406 0.574 1.205 0.617" stroke="hsl(0.0,100%,35%)" stroke-width="0.00628"></path>
<path d="M1.532 0.663 Q1.557 0.462 1.172 0.406" stroke="hsl(0.0,100%,35%)" stroke-width="0.00971"></path>
<path d="M1.532 0.663 Q1.346 0.342 0.679 0.362" stroke="hsl(0.0,100%,35%)" stroke-width="0.00286"></path>
<path d="M1.532 0.663 Q1.872 0.414 1.462 0.194" stroke="hsl(0.0,100%,35%)" stroke-width="0.00029"></path>
<path d="M1.532 0.663 Q1.435 0.720 1.525 0.780" stroke="hsl(0.0,100%,35%)" stroke-width="0.00029"></path>
<path d="M0.445 0.536 Q0.913 0.616 1.172 0.406" stroke="hsl(0.0,100%,35%)" stroke-width="0.00029"></path>
<path d="M0.445 0.536 Q0.701 0.496 0.679 0.362" stroke="hsl(0.0,100%,35%)" stroke-width="0.00029"></path>
<path d="M0.445 0.536 Q0.887 0.817 1.532 0.663" stroke="hsl(0.0,100%,35%)" stroke-width="0.00029"></path>
<path d="M1.172 0.406 Q0.989 0.387 0.912 0.472" stroke="hsl(0.0,100%,35%)" stroke-width="0.04511"></path>
<path d="M1.172 0.406 Q0.960 0.285 0.679 0.362" stroke="hsl(0.0,100%,35%)" stroke-width="0.01913"></path>
<path d="M1.172 0.406 Q1.146 0.607 1.532 0.663" stroke="hsl(0.0,100%,35%)" stroke-width="0.00771"></path>
<path d="M1.172 0.406 Q1.238 0.233 0.916 0.163" stroke="hsl(0.0,100%,35%)" stroke-width="0.00029"></path>
<path d="M1.172 0.406 Q1.455 0.244 1.202 0.071" stroke="hsl(0.0,100%,35%)" stroke-width="0.00029"></path>
<path d="M0.348 0.565 Q0.675 0.530 0.679 0.362" stroke="hsl(0.0,100%,35%)" stroke-width="0.00114"></path>
<path d="M0.348 0.565 Q0.862 0.851 1.532 0.663" stroke="hsl(0.0,100%,35%)" stroke-width="0.00057"></path>
<path d="M0.348 0.565 Q0.704 0.631 0.912 0.472" stroke="hsl(0.0,100%,35%)" stroke-width="0.00029"></path>
<path d="M0.135 0.719 Q0.721 0.750 0.912 0.472" stroke="hsl(0.0,100%,35%)" stroke-width="0.00257"></path>
<path d="M0.135 0.719 Q0.692 0.649 0.679 0.362" stroke="hsl(0.0,100%,35%)" stroke-width="0.00400"></path>
<path d="M0.135 0.719 Q0.904 0.770 1.172 0.406" stroke="hsl(0.0,100%,35%)" stroke-width="0.00143"></path>
<path d="M0.135 0.719 Q0.878 0.970 1.532 0.663" stroke="hsl(0.0,100%,35%)" stroke-width="0.00029"></path>
<path d="M0.141 0.381 Q0.453 0.581 0.912 0.472" stroke="hsl(0.0,100%,35%)" stroke-width="0.00200"></path>
<path d="M0.141 0.381 Q0.611 0.800 1.532 0.663" stroke="hsl(0.0,100%,35%)" stroke-width="0.00200"></path>
<path d="M0.141 0.381 Q0.293 0.328 0.223 0.242" stroke="hsl(0.0,100%,35%)" stroke-width="0.00057"></path>
<path d="M0.141 0.381 Q0.424 0.479 0.679 0.362" stroke="hsl(0.0,100%,35%)" stroke-width="0.00029"></path>
<path d="M0.703 0.566 Q1.040 0.780 1.532 0.663" stroke="hsl(0.0,100%,35%)" stroke-width="0.02256"></path>
<path d="M0.703 0.566 Q0.913 0.692 1.205 0.617" stroke="hsl(0.0,100%,35%)" stroke-width="0.00685"></path>
<path d="M0.703 0.566 Q1.065 0.580 1.172 0.406" stroke="hsl(0.0,100%,35%)" stroke-width="0.01713"></path>
<path d="M0.703 0.566 Q0.854 0.459 0.679 0.362" stroke="hsl(0.0,100%,35%)" stroke-width="0.02198"></path>
<path d="M0.703 0.566 Q0.616 0.615 0.692 0.668" stroke="hsl(0.0,100%,35%)" stroke-width="0.00029"></path>
<path d="M0.703 0.566 Q0.882 0.561 0.912 0.472" stroke="hsl(0.0,100%,35%)" stroke-width="0.00143"></path>
<path d="M0.703 0.566 Q0.943 0.837 1.525 0.780" stroke="hsl(0.0,100%,35%)" stroke-width="0.00086"></path>
<path d="M0.703 0.566 Q0.733 0.707 1.015 0.724" stroke="hsl(0.0,100%,35%)" stroke-width="0.00029"></path>
<path d="M0.703 0.566 Q0.297 0.529 0.135 0.719" stroke="hsl(0.0,100%,35%)" stroke-width="0.00029"></path>
<path d="M1.525 0.780 Q1.465 0.503 0.912 0.472" stroke="hsl(0.0,100%,35%)" stroke-width="0.00343"></path>
<path d="M1.525 0.780 Q1.436 0.402 0.679 0.362" stroke="hsl(0.0,100%,35%)" stroke-width="0.00057"></path>
<path d="M1.525 0.780 Q1.622 0.723 1.532 0.663" stroke="hsl(0.0,100%,35%)" stroke-width="0.00457"></path>
<path d="M1.462 0.194 Q1.122 0.442 1.532 0.663" stroke="hsl(0.0,100%,35%)" stroke-width="0.00086"></path>
<path d="M1.462 0.194 Q1.147 0.242 1.172 0.406" stroke="hsl(0.0,100%,35%)" stroke-width="0.00343"></path>
<path d="M1.462 0.194 Q0.964 0.223 0.912 0.472" stroke="hsl(0.0,100%,35%)" stroke-width="0.00143"></path>
<path d="M1.462 0.194 Q0.936 0.121 0.679 0.362" stroke="hsl(0.0,100%,35%)" stroke-width="0.00029"></path>
<path d="M1.202 0.225 Q1.042 0.309 1.172 0.406" stroke="hsl(0.0,100%,35%)" stroke-width="0.00086"></path>
<path d="M1.202 0.225 Q1.017 0.510 1.532 0.663" stroke="hsl(0.0,100%,35%)" stroke-width="0.00057"></path>
<path d="M1.202 0.225 Q0.830 0.189 0.679 0.362" stroke="hsl(0.0,100%,35%)" stroke-width="0.00029"></path>
<path d="M1.202 0.225 Q0.859 0.290 0.912 0.472" stroke="hsl(0.0,100%,35%)" stroke-width="0.00029"></path>
<path d="M1.175 0.477 Q1.047 0.422 0.912 0.472" stroke="hsl(0.0,100%,35%)" stroke-width="0.00114"></path>
<path d="M1.175 0.477 Q1.205 0.641 1.532 0.663" stroke="hsl(0.0,100%,35%)" stroke-width="0.00029"></path>
<path d="M1.175 0.477 Q1.018 0.320 0.679 0.362" stroke="hsl(0.0,100%,35%)" stroke-width="0.00029"></path>
<path d="M1.716 0.821 Q1.751 0.705 1.532 0.663" stroke="hsl(0.0,100%,35%)" stroke-width="0.00029"></path>
<path d="M1.716 0.821 Q1.654 0.762 1.525 0.780" stroke="hsl(0.0,100%,35%)" stroke-width="0.00029"></path>
<path d="M1.716 0.821 Q1.593 0.485 0.912 0.472" stroke="hsl(0.0,100%,35%)" stroke-width="0.00029"></path>
<path d="M1.568 0.288 Q1.064 0.147 0.679 0.362" stroke="hsl(0.0,100%,35%)" stroke-width="0.01285"></path>
<path d="M1.568 0.288 Q1.093 0.249 0.912 0.472" stroke="hsl(0.0,100%,35%)" stroke-width="0.00343"></path>
<path d="M1.568 0.288 Q1.275 0.268 1.172 0.406" stroke="hsl(0.0,100%,35%)" stroke-width="0.01599"></path>
<path d="M1.568 0.288 Q1.123 0.380 1.205 0.617" stroke="hsl(0.0,100%,35%)" stroke-width="0.00057"></path>
<path d="M1.568 0.288 Q1.250 0.469 1.532 0.663" stroke="hsl(0.0,100%,35%)" stroke-width="0.00371"></path>
<path d="M1.568 0.288 Q1.342 0.095 0.916 0.163" stroke="hsl(0.0,100%,35%)" stroke-width="0.00057"></path>
</g>
<text x="1.205" y="0.590" font-size="0.052950" fill="hsl(0.0,100%,20%)">amaiorano</text>
<text x="0.679" y="0.311" font-size="0.101638" fill="hsl(0.0,100%,20%)">bclayton</text>
<text x="0.912" y="0.425" font-size="0.092860" fill="hsl(0.0,100%,20%)">nicolascapens</text>
<text x="1.532" y="0.627" font-size="0.071565" fill="hsl(0.0,100%,20%)">sugoi</text>
<text x="0.445" y="0.533" font-size="0.006114" fill="hsl(0.0,100%,20%)">awoloszyn</text>
<text x="1.172" y="0.366" font-size="0.081114" fill="hsl(0.0,100%,20%)">chrisforbes</text>
<text x="0.348" y="0.559" font-size="0.011163" fill="hsl(0.0,100%,20%)">paulthomson</text>
<text x="0.135" y="0.709" font-size="0.019654" fill="hsl(0.0,100%,20%)">digit</text>
<text x="0.141" y="0.373" font-size="0.015387" fill="hsl(0.0,100%,20%)">jmadill</text>
<text x="0.703" y="0.538" font-size="0.055926" fill="hsl(0.0,100%,20%)">capn</text>
<text x="0.692" y="0.666" font-size="0.003530" fill="hsl(0.0,100%,20%)">madesroches</text>
<text x="1.525" y="0.769" font-size="0.020884" fill="hsl(0.0,100%,20%)">srisser</text>
<text x="1.015" y="0.722" font-size="0.003530" fill="hsl(0.0,100%,20%)">lfy</text>
<text x="0.916" y="0.160" font-size="0.006114" fill="hsl(0.0,100%,20%)">nicolas.capens</text>
<text x="1.202" y="0.069" font-size="0.003530" fill="hsl(0.0,100%,20%)">ghartman</text>
<text x="1.462" y="0.186" font-size="0.016557" fill="hsl(0.0,100%,20%)">hliatis</text>
<text x="0.223" y="0.239" font-size="0.004992" fill="hsl(0.0,100%,20%)">cwallez</text>
<text x="1.202" y="0.220" font-size="0.009340" fill="hsl(0.0,100%,20%)">natsu</text>
<text x="1.175" y="0.473" font-size="0.008647" fill="hsl(0.0,100%,20%)">samans</text>
<text x="1.716" y="0.818" font-size="0.006114" fill="hsl(0.0,100%,20%)">shrekshao</text>
<text x="1.568" y="0.268" font-size="0.040248" fill="hsl(0.0,100%,20%)">swiftshader.regress</text>
</svg>
