<svg width="4000" height="2000" viewBox="-0.025 -0.025 2.05 1.05" xmlns="http://www.w3.org/2000/svg">
  <style>
    path {
      fill: none;
      stroke-linecap: round;
      stroke-opacity: 0.4;
    }

    text {
      text-anchor: middle;
      alignment-baseline: hanging;
    }
  </style>
  <g opacity="0.4">
<path d="M0.449 0.464 Q0.448 0.389 0.300 0.373" stroke="hsl(0.0,100%,35%)" stroke-width="0.00153"></path>
<path d="M0.449 0.464 Q0.820 0.834 1.623 0.734" stroke="hsl(0.0,100%,35%)" stroke-width="0.00076"></path>
<path d="M0.449 0.464 Q1.047 0.454 1.160 0.161" stroke="hsl(0.0,100%,35%)" stroke-width="0.00076"></path>
<path d="M0.300 0.373 Q0.672 0.818 1.623 0.734" stroke="hsl(0.0,100%,35%)" stroke-width="0.00305"></path>
<path d="M0.300 0.373 Q0.715 0.629 1.306 0.482" stroke="hsl(0.0,100%,35%)" stroke-width="0.00229"></path>
<path d="M0.300 0.373 Q0.856 0.708 1.633 0.511" stroke="hsl(0.0,100%,35%)" stroke-width="0.00076"></path>
<path d="M1.623 0.734 Q1.250 0.289 0.300 0.373" stroke="hsl(0.0,100%,35%)" stroke-width="0.05799"></path>
<path d="M1.623 0.734 Q1.666 0.545 1.306 0.482" stroke="hsl(0.0,100%,35%)" stroke-width="0.00382"></path>
<path d="M1.623 0.734 Q1.501 0.519 1.055 0.531" stroke="hsl(0.0,100%,35%)" stroke-width="0.00076"></path>
<path d="M1.330 0.630 Q1.394 0.741 1.623 0.734" stroke="hsl(0.0,100%,35%)" stroke-width="0.13811"></path>
<path d="M1.330 0.630 Q1.438 0.683 1.564 0.642" stroke="hsl(0.0,100%,35%)" stroke-width="0.00076"></path>
<path d="M1.330 0.630 Q1.436 0.552 1.306 0.482" stroke="hsl(0.0,100%,35%)" stroke-width="0.05418"></path>
<path d="M1.330 0.630 Q1.578 0.631 1.633 0.511" stroke="hsl(0.0,100%,35%)" stroke-width="0.00610"></path>
<path d="M1.330 0.630 Q0.959 0.601 0.819 0.775" stroke="hsl(0.0,100%,35%)" stroke-width="0.00076"></path>
<path d="M1.330 0.630 Q1.272 0.526 1.055 0.531" stroke="hsl(0.0,100%,35%)" stroke-width="0.00229"></path>
<path d="M1.330 0.630 Q1.021 0.296 0.300 0.373" stroke="hsl(0.0,100%,35%)" stroke-width="0.02366"></path>
<path d="M1.330 0.630 Q1.145 0.758 1.353 0.876" stroke="hsl(0.0,100%,35%)" stroke-width="0.00076"></path>
<path d="M1.330 0.630 Q1.441 0.415 1.045 0.314" stroke="hsl(0.0,100%,35%)" stroke-width="0.00076"></path>
<path d="M1.330 0.630 Q1.080 0.557 0.881 0.662" stroke="hsl(0.0,100%,35%)" stroke-width="0.00153"></path>
<path d="M1.306 0.482 Q0.891 0.226 0.300 0.373" stroke="hsl(0.0,100%,35%)" stroke-width="0.02671"></path>
<path d="M1.306 0.482 Q1.491 0.292 1.160 0.161" stroke="hsl(0.0,100%,35%)" stroke-width="0.00305"></path>
<path d="M1.306 0.482 Q1.263 0.672 1.623 0.734" stroke="hsl(0.0,100%,35%)" stroke-width="0.00992"></path>
<path d="M0.552 0.613 Q0.990 0.887 1.623 0.734" stroke="hsl(0.0,100%,35%)" stroke-width="0.00076"></path>
<path d="M0.552 0.613 Q0.618 0.442 0.300 0.373" stroke="hsl(0.0,100%,35%)" stroke-width="0.00076"></path>
<path d="M0.403 0.164 Q0.557 0.693 1.623 0.734" stroke="hsl(0.0,100%,35%)" stroke-width="0.02289"></path>
<path d="M0.403 0.164 Q0.184 0.248 0.300 0.373" stroke="hsl(0.0,100%,35%)" stroke-width="0.03815"></path>
<path d="M0.403 0.164 Q0.741 0.583 1.633 0.511" stroke="hsl(0.0,100%,35%)" stroke-width="0.00076"></path>
<path d="M0.403 0.164 Q0.600 0.504 1.306 0.482" stroke="hsl(0.0,100%,35%)" stroke-width="0.00076"></path>
<path d="M0.403 0.164 Q0.784 0.313 1.160 0.161" stroke="hsl(0.0,100%,35%)" stroke-width="0.00076"></path>
<path d="M0.221 0.517 Q0.376 0.461 0.300 0.373" stroke="hsl(0.0,100%,35%)" stroke-width="0.01145"></path>
<path d="M0.221 0.517 Q0.749 0.906 1.623 0.734" stroke="hsl(0.0,100%,35%)" stroke-width="0.00534"></path>
<path d="M1.093 0.993 Q1.193 0.524 0.300 0.373" stroke="hsl(0.0,100%,35%)" stroke-width="0.00076"></path>
<path d="M1.093 0.993 Q1.565 0.969 1.623 0.734" stroke="hsl(0.0,100%,35%)" stroke-width="0.00076"></path>
<path d="M1.093 0.993 Q1.242 0.906 1.106 0.814" stroke="hsl(0.0,100%,35%)" stroke-width="0.00076"></path>
</g>
<text x="0.449" y="0.458" font-size="0.011995" fill="hsl(0.0,100%,20%)">andre.kempe</text>
<text x="0.300" y="0.328" font-size="0.088756" fill="hsl(0.0,100%,20%)">nicolascapens</text>
<text x="1.623" y="0.680" font-size="0.107288" fill="hsl(0.0,100%,20%)">sugoi</text>
<text x="1.160" y="0.153" font-size="0.014691" fill="hsl(0.0,100%,20%)">bclayton</text>
<text x="1.330" y="0.578" font-size="0.103882" fill="hsl(0.0,100%,20%)">capn</text>
<text x="1.564" y="0.639" font-size="0.005998" fill="hsl(0.0,100%,20%)">stevenperron</text>
<text x="1.306" y="0.448" font-size="0.068907" fill="hsl(0.0,100%,20%)">srisser</text>
<text x="1.633" y="0.501" font-size="0.018966" fill="hsl(0.0,100%,20%)">natsu</text>
<text x="0.819" y="0.772" font-size="0.005998" fill="hsl(0.0,100%,20%)">joshuaduong</text>
<text x="1.055" y="0.525" font-size="0.011995" fill="hsl(0.0,100%,20%)">amaiorano</text>
<text x="1.353" y="0.873" font-size="0.005998" fill="hsl(0.0,100%,20%)">liyl</text>
<text x="1.045" y="0.311" font-size="0.005998" fill="hsl(0.0,100%,20%)">rosasco</text>
<text x="0.881" y="0.658" font-size="0.008482" fill="hsl(0.0,100%,20%)">cwallez</text>
<text x="0.552" y="0.608" font-size="0.008482" fill="hsl(0.0,100%,20%)">kramerb</text>
<text x="0.403" y="0.136" font-size="0.054641" fill="hsl(0.0,100%,20%)">swiftshader.regress</text>
<text x="0.221" y="0.503" font-size="0.028131" fill="hsl(0.0,100%,20%)">thakis</text>
<text x="1.093" y="0.988" font-size="0.010388" fill="hsl(0.0,100%,20%)">tho.laroche</text>
<text x="1.106" y="0.811" font-size="0.005998" fill="hsl(0.0,100%,20%)">penghuang</text>
</svg>
