<svg width="4000" height="2000" viewBox="-0.025 -0.025 2.05 1.05" xmlns="http://www.w3.org/2000/svg">
  <style>
    path {
      fill: none;
      stroke-linecap: round;
      stroke-opacity: 0.4;
    }

    text {
      text-anchor: middle;
      alignment-baseline: hanging;
    }
  </style>
  <g opacity="0.4">
<path d="M1.660 0.968 Q2.202 0.527 1.460 0.165" stroke="hsl(0.0,100%,35%)" stroke-width="0.00906"></path>
<path d="M1.660 0.968 Q1.792 0.913 1.715 0.837" stroke="hsl(0.0,100%,35%)" stroke-width="0.00906"></path>
<path d="M1.660 0.968 Q1.692 0.243 0.283 0.068" stroke="hsl(0.0,100%,35%)" stroke-width="0.00151"></path>
<path d="M1.660 0.968 Q2.156 0.614 1.574 0.295" stroke="hsl(0.0,100%,35%)" stroke-width="0.00302"></path>
<path d="M1.660 0.968 Q1.890 0.857 1.724 0.721" stroke="hsl(0.0,100%,35%)" stroke-width="0.00151"></path>
<path d="M1.660 0.968 Q1.423 0.864 1.168 0.957" stroke="hsl(0.0,100%,35%)" stroke-width="0.00151"></path>
<path d="M1.660 0.968 Q2.083 0.507 1.277 0.199" stroke="hsl(0.0,100%,35%)" stroke-width="0.00302"></path>
<path d="M1.660 0.968 Q1.591 0.858 1.361 0.867" stroke="hsl(0.0,100%,35%)" stroke-width="0.00151"></path>
<path d="M1.460 0.165 Q1.424 0.082 1.254 0.082" stroke="hsl(0.0,100%,35%)" stroke-width="0.00604"></path>
<path d="M1.460 0.165 Q1.236 0.096 1.052 0.190" stroke="hsl(0.0,100%,35%)" stroke-width="0.00906"></path>
<path d="M1.460 0.165 Q1.414 0.253 1.574 0.295" stroke="hsl(0.0,100%,35%)" stroke-width="0.00604"></path>
<path d="M1.460 0.165 Q1.173 0.316 1.403 0.489" stroke="hsl(0.0,100%,35%)" stroke-width="0.00151"></path>
<path d="M1.460 0.165 Q1.341 0.146 1.277 0.199" stroke="hsl(0.0,100%,35%)" stroke-width="0.00906"></path>
<path d="M1.460 0.165 Q0.918 0.607 1.660 0.968" stroke="hsl(0.0,100%,35%)" stroke-width="0.00151"></path>
<path d="M1.460 0.165 Q1.148 0.496 1.724 0.721" stroke="hsl(0.0,100%,35%)" stroke-width="0.00151"></path>
<path d="M1.715 0.837 Q1.582 0.891 1.660 0.968" stroke="hsl(0.0,100%,35%)" stroke-width="0.01662"></path>
<path d="M1.715 0.837 Q2.125 0.450 1.460 0.165" stroke="hsl(0.0,100%,35%)" stroke-width="0.00302"></path>
<path d="M1.715 0.837 Q1.901 0.381 1.052 0.190" stroke="hsl(0.0,100%,35%)" stroke-width="0.00151"></path>
<path d="M0.283 0.068 Q0.014 0.689 1.168 0.957" stroke="hsl(0.0,100%,35%)" stroke-width="0.00151"></path>
<path d="M0.283 0.068 Q0.293 0.615 1.362 0.730" stroke="hsl(0.0,100%,35%)" stroke-width="0.00453"></path>
<path d="M0.283 0.068 Q0.472 0.178 0.728 0.110" stroke="hsl(0.0,100%,35%)" stroke-width="0.01057"></path>
<path d="M0.283 0.068 Q0.757 0.269 1.254 0.082" stroke="hsl(0.0,100%,35%)" stroke-width="0.00302"></path>
<path d="M0.283 0.068 Q0.251 0.793 1.660 0.968" stroke="hsl(0.0,100%,35%)" stroke-width="0.00151"></path>
<path d="M0.283 0.068 Q0.407 0.104 0.505 0.052" stroke="hsl(0.0,100%,35%)" stroke-width="0.00604"></path>
<path d="M1.574 0.295 Q1.621 0.207 1.460 0.165" stroke="hsl(0.0,100%,35%)" stroke-width="0.01964"></path>
<path d="M1.574 0.295 Q1.397 0.138 1.052 0.190" stroke="hsl(0.0,100%,35%)" stroke-width="0.00302"></path>
<path d="M1.574 0.295 Q0.569 0.342 0.440 0.843" stroke="hsl(0.0,100%,35%)" stroke-width="0.00151"></path>
<path d="M1.574 0.295 Q1.308 0.538 1.724 0.721" stroke="hsl(0.0,100%,35%)" stroke-width="0.00453"></path>
<path d="M1.574 0.295 Q1.333 0.358 1.403 0.489" stroke="hsl(0.0,100%,35%)" stroke-width="0.00151"></path>
<path d="M1.574 0.295 Q1.584 0.124 1.254 0.082" stroke="hsl(0.0,100%,35%)" stroke-width="0.00151"></path>
<path d="M1.574 0.295 Q0.841 0.544 1.168 0.957" stroke="hsl(0.0,100%,35%)" stroke-width="0.00151"></path>
<path d="M1.574 0.295 Q1.078 0.648 1.660 0.968" stroke="hsl(0.0,100%,35%)" stroke-width="0.00151"></path>
<path d="M1.724 0.721 Q1.494 0.832 1.660 0.968" stroke="hsl(0.0,100%,35%)" stroke-width="0.01057"></path>
<path d="M1.724 0.721 Q2.036 0.390 1.460 0.165" stroke="hsl(0.0,100%,35%)" stroke-width="0.00604"></path>
<path d="M1.724 0.721 Q1.990 0.478 1.574 0.295" stroke="hsl(0.0,100%,35%)" stroke-width="0.01057"></path>
<path d="M1.724 0.721 Q1.749 0.541 1.403 0.489" stroke="hsl(0.0,100%,35%)" stroke-width="0.00453"></path>
<path d="M1.724 0.721 Q1.257 0.728 1.168 0.957" stroke="hsl(0.0,100%,35%)" stroke-width="0.00302"></path>
<path d="M1.724 0.721 Q1.917 0.371 1.277 0.199" stroke="hsl(0.0,100%,35%)" stroke-width="0.00151"></path>
<path d="M1.724 0.721 Q1.714 0.216 0.728 0.110" stroke="hsl(0.0,100%,35%)" stroke-width="0.00151"></path>
<path d="M1.724 0.721 Q2.000 0.307 1.254 0.082" stroke="hsl(0.0,100%,35%)" stroke-width="0.00151"></path>
<path d="M1.724 0.721 Q1.470 0.563 1.106 0.652" stroke="hsl(0.0,100%,35%)" stroke-width="0.00151"></path>
<path d="M1.168 0.957 Q1.090 0.729 0.627 0.717" stroke="hsl(180.0,100%,35%)" stroke-width="0.00302"></path>
<path d="M1.168 0.957 Q1.253 0.862 1.086 0.799" stroke="hsl(180.0,100%,35%)" stroke-width="0.01964"></path>
<path d="M1.168 0.957 Q1.660 0.770 1.403 0.489" stroke="hsl(180.0,100%,35%)" stroke-width="0.00453"></path>
<path d="M1.168 0.957 Q1.381 0.792 1.106 0.652" stroke="hsl(180.0,100%,35%)" stroke-width="0.00151"></path>
<path d="M1.168 0.957 Q1.635 0.950 1.724 0.721" stroke="hsl(180.0,100%,35%)" stroke-width="0.00604"></path>
<path d="M1.168 0.957 Q1.560 0.372 0.505 0.052" stroke="hsl(180.0,100%,35%)" stroke-width="0.00151"></path>
<path d="M1.168 0.957 Q1.625 0.445 0.728 0.110" stroke="hsl(180.0,100%,35%)" stroke-width="0.00755"></path>
<path d="M1.168 0.957 Q0.895 0.754 0.440 0.843" stroke="hsl(180.0,100%,35%)" stroke-width="0.00906"></path>
<path d="M1.168 0.957 Q1.901 0.707 1.574 0.295" stroke="hsl(180.0,100%,35%)" stroke-width="0.00151"></path>
<path d="M1.168 0.957 Q1.911 0.536 1.254 0.082" stroke="hsl(180.0,100%,35%)" stroke-width="0.00453"></path>
<path d="M1.168 0.957 Q1.062 0.464 0.078 0.407" stroke="hsl(180.0,100%,35%)" stroke-width="0.00151"></path>
<path d="M1.168 0.957 Q0.974 0.535 0.109 0.537" stroke="hsl(180.0,100%,35%)" stroke-width="0.00151"></path>
<path d="M1.277 0.199 Q1.349 0.307 1.574 0.295" stroke="hsl(0.0,100%,35%)" stroke-width="0.00302"></path>
<path d="M1.277 0.199 Q1.396 0.219 1.460 0.165" stroke="hsl(0.0,100%,35%)" stroke-width="0.01057"></path>
<path d="M1.277 0.199 Q1.108 0.370 1.403 0.489" stroke="hsl(0.0,100%,35%)" stroke-width="0.00151"></path>
<path d="M0.938 0.706 Q1.065 0.713 1.106 0.652" stroke="hsl(180.0,100%,35%)" stroke-width="0.00604"></path>
<path d="M0.938 0.706 Q0.579 0.675 0.440 0.843" stroke="hsl(180.0,100%,35%)" stroke-width="0.00151"></path>
<path d="M0.938 0.706 Q1.309 0.366 0.728 0.110" stroke="hsl(180.0,100%,35%)" stroke-width="0.00151"></path>
<path d="M0.938 0.706 Q1.595 0.457 1.254 0.082" stroke="hsl(180.0,100%,35%)" stroke-width="0.00151"></path>
<path d="M1.106 0.652 Q0.815 0.589 0.627 0.717" stroke="hsl(180.0,100%,35%)" stroke-width="0.00604"></path>
<path d="M1.106 0.652 Q0.621 0.614 0.440 0.843" stroke="hsl(180.0,100%,35%)" stroke-width="0.01360"></path>
<path d="M1.106 0.652 Q1.385 0.630 1.403 0.489" stroke="hsl(180.0,100%,35%)" stroke-width="0.00151"></path>
<path d="M0.728 0.110 Q0.356 0.526 1.086 0.799" stroke="hsl(180.0,100%,35%)" stroke-width="0.00755"></path>
<path d="M0.728 0.110 Q0.439 0.615 1.361 0.867" stroke="hsl(180.0,100%,35%)" stroke-width="0.00302"></path>
<path d="M0.728 0.110 Q0.663 0.036 0.505 0.052" stroke="hsl(180.0,100%,35%)" stroke-width="0.00151"></path>
<path d="M0.728 0.110 Q-0.002 0.419 0.440 0.843" stroke="hsl(180.0,100%,35%)" stroke-width="0.00151"></path>
<path d="M0.728 0.110 Q1.003 0.372 1.574 0.295" stroke="hsl(180.0,100%,35%)" stroke-width="0.00151"></path>
<path d="M0.728 0.110 Q1.013 0.201 1.254 0.082" stroke="hsl(180.0,100%,35%)" stroke-width="0.00302"></path>
<path d="M0.728 0.110 Q0.762 0.435 1.403 0.489" stroke="hsl(180.0,100%,35%)" stroke-width="0.00151"></path>
<path d="M0.728 0.110 Q0.270 0.622 1.168 0.957" stroke="hsl(180.0,100%,35%)" stroke-width="0.00151"></path>
<path d="M1.254 0.082 Q1.290 0.165 1.460 0.165" stroke="hsl(0.0,100%,35%)" stroke-width="0.03928"></path>
<path d="M1.254 0.082 Q1.244 0.252 1.574 0.295" stroke="hsl(0.0,100%,35%)" stroke-width="0.00151"></path>
<path d="M1.254 0.082 Q1.003 0.315 1.403 0.489" stroke="hsl(0.0,100%,35%)" stroke-width="0.00151"></path>
<path d="M1.254 0.082 Q0.968 -0.009 0.728 0.110" stroke="hsl(0.0,100%,35%)" stroke-width="0.00151"></path>
<path d="M1.403 0.489 Q1.644 0.426 1.574 0.295" stroke="hsl(0.0,100%,35%)" stroke-width="0.00604"></path>
<path d="M1.403 0.489 Q1.378 0.669 1.724 0.721" stroke="hsl(0.0,100%,35%)" stroke-width="0.00604"></path>
<path d="M1.403 0.489 Q1.368 0.165 0.728 0.110" stroke="hsl(0.0,100%,35%)" stroke-width="0.00453"></path>
<path d="M1.403 0.489 Q1.254 0.514 1.271 0.593" stroke="hsl(0.0,100%,35%)" stroke-width="0.00453"></path>
<path d="M0.627 0.717 Q1.449 0.525 1.254 0.082" stroke="hsl(180.0,100%,35%)" stroke-width="0.00604"></path>
<path d="M0.627 0.717 Q1.439 0.695 1.574 0.295" stroke="hsl(180.0,100%,35%)" stroke-width="0.00151"></path>
<path d="M0.627 0.717 Q0.433 0.742 0.440 0.843" stroke="hsl(180.0,100%,35%)" stroke-width="0.00453"></path>
<path d="M0.627 0.717 Q0.791 0.850 1.086 0.799" stroke="hsl(180.0,100%,35%)" stroke-width="0.00302"></path>
<path d="M0.627 0.717 Q0.706 0.945 1.168 0.957" stroke="hsl(180.0,100%,35%)" stroke-width="0.00151"></path>
<path d="M1.086 0.799 Q0.728 0.692 0.440 0.843" stroke="hsl(180.0,100%,35%)" stroke-width="0.00302"></path>
<path d="M1.086 0.799 Q1.734 0.644 1.574 0.295" stroke="hsl(180.0,100%,35%)" stroke-width="0.00302"></path>
<path d="M1.086 0.799 Q1.393 0.309 0.505 0.052" stroke="hsl(180.0,100%,35%)" stroke-width="0.00453"></path>
<path d="M1.086 0.799 Q1.458 0.383 0.728 0.110" stroke="hsl(180.0,100%,35%)" stroke-width="0.00302"></path>
<path d="M1.086 0.799 Q1.279 0.820 1.362 0.730" stroke="hsl(180.0,100%,35%)" stroke-width="0.00151"></path>
<path d="M1.086 0.799 Q1.744 0.474 1.254 0.082" stroke="hsl(180.0,100%,35%)" stroke-width="0.00151"></path>
<path d="M1.086 0.799 Q0.923 0.666 0.627 0.717" stroke="hsl(180.0,100%,35%)" stroke-width="0.00302"></path>
<path d="M1.086 0.799 Q1.169 0.888 1.361 0.867" stroke="hsl(180.0,100%,35%)" stroke-width="0.00453"></path>
<path d="M1.086 0.799 Q1.493 0.707 1.403 0.489" stroke="hsl(180.0,100%,35%)" stroke-width="0.00151"></path>
<path d="M1.086 0.799 Q0.812 0.532 0.231 0.607" stroke="hsl(180.0,100%,35%)" stroke-width="0.00151"></path>
<path d="M0.505 0.052 Q0.198 0.542 1.086 0.799" stroke="hsl(180.0,100%,35%)" stroke-width="0.00302"></path>
<path d="M0.505 0.052 Q-0.077 0.275 0.231 0.607" stroke="hsl(180.0,100%,35%)" stroke-width="0.00302"></path>
<path d="M0.505 0.052 Q0.280 0.630 1.361 0.867" stroke="hsl(180.0,100%,35%)" stroke-width="0.00151"></path>
<path d="M0.505 0.052 Q0.198 0.465 0.938 0.706" stroke="hsl(180.0,100%,35%)" stroke-width="0.00151"></path>
<path d="M0.505 0.052 Q0.325 0.472 1.106 0.652" stroke="hsl(180.0,100%,35%)" stroke-width="0.00151"></path>
<path d="M1.362 0.730 Q1.816 0.555 1.574 0.295" stroke="hsl(180.0,100%,35%)" stroke-width="0.00151"></path>
<path d="M1.362 0.730 Q1.169 0.709 1.086 0.799" stroke="hsl(180.0,100%,35%)" stroke-width="0.00453"></path>
<path d="M1.362 0.730 Q1.826 0.384 1.254 0.082" stroke="hsl(180.0,100%,35%)" stroke-width="0.00453"></path>
<path d="M1.362 0.730 Q1.541 0.293 0.728 0.110" stroke="hsl(180.0,100%,35%)" stroke-width="0.00302"></path>
<path d="M1.362 0.730 Q1.252 0.798 1.361 0.867" stroke="hsl(180.0,100%,35%)" stroke-width="0.00151"></path>
<path d="M1.052 0.190 Q1.229 0.347 1.574 0.295" stroke="hsl(0.0,100%,35%)" stroke-width="0.00755"></path>
<path d="M1.052 0.190 Q1.275 0.259 1.460 0.165" stroke="hsl(0.0,100%,35%)" stroke-width="0.01360"></path>
<path d="M1.053 0.440 Q1.156 0.419 1.138 0.364" stroke="hsl(0.0,100%,35%)" stroke-width="0.00755"></path>
<path d="M1.053 0.440 Q0.935 0.462 0.951 0.524" stroke="hsl(0.0,100%,35%)" stroke-width="0.00906"></path>
<path d="M1.053 0.440 Q0.910 0.557 1.106 0.652" stroke="hsl(0.0,100%,35%)" stroke-width="0.00302"></path>
<path d="M0.783 0.401 Q0.988 0.244 0.728 0.110" stroke="hsl(0.0,100%,35%)" stroke-width="0.00151"></path>
<path d="M0.783 0.401 Q0.703 0.346 0.578 0.373" stroke="hsl(0.0,100%,35%)" stroke-width="0.00302"></path>
<path d="M0.783 0.401 Q0.743 0.591 1.106 0.652" stroke="hsl(0.0,100%,35%)" stroke-width="0.00151"></path>
<path d="M0.783 0.401 Q1.263 0.506 1.574 0.295" stroke="hsl(0.0,100%,35%)" stroke-width="0.00151"></path>
<path d="M0.578 0.373 Q0.674 0.162 0.283 0.068" stroke="hsl(0.0,100%,35%)" stroke-width="0.00151"></path>
<path d="M0.578 0.373 Q0.500 0.492 0.715 0.556" stroke="hsl(0.0,100%,35%)" stroke-width="0.00151"></path>
<path d="M0.578 0.373 Q0.809 0.343 0.802 0.224" stroke="hsl(0.0,100%,35%)" stroke-width="0.00453"></path>
<path d="M0.578 0.373 Q0.217 0.421 0.231 0.607" stroke="hsl(0.0,100%,35%)" stroke-width="0.00151"></path>
<path d="M0.802 0.224 Q1.142 0.243 1.254 0.082" stroke="hsl(0.0,100%,35%)" stroke-width="0.00906"></path>
<path d="M0.802 0.224 Q0.485 0.568 1.086 0.799" stroke="hsl(0.0,100%,35%)" stroke-width="0.00302"></path>
<path d="M0.802 0.224 Q1.178 0.326 1.460 0.165" stroke="hsl(0.0,100%,35%)" stroke-width="0.00151"></path>
<path d="M0.802 0.224 Q0.668 0.042 0.283 0.068" stroke="hsl(0.0,100%,35%)" stroke-width="0.00151"></path>
<path d="M0.802 0.224 Q0.321 0.436 0.627 0.717" stroke="hsl(0.0,100%,35%)" stroke-width="0.00151"></path>
<path d="M0.802 0.224 Q0.856 0.152 0.728 0.110" stroke="hsl(0.0,100%,35%)" stroke-width="0.01057"></path>
<path d="M0.802 0.224 Q0.612 0.499 1.106 0.652" stroke="hsl(0.0,100%,35%)" stroke-width="0.00151"></path>
<path d="M0.802 0.224 Q0.334 0.525 0.818 0.820" stroke="hsl(0.0,100%,35%)" stroke-width="0.00151"></path>
<path d="M0.818 0.820 Q1.096 0.794 1.106 0.652" stroke="hsl(0.0,100%,35%)" stroke-width="0.01209"></path>
<path d="M0.818 0.820 Q1.121 0.698 0.951 0.524" stroke="hsl(0.0,100%,35%)" stroke-width="0.00302"></path>
<path d="M0.818 0.820 Q0.695 0.596 0.231 0.607" stroke="hsl(0.0,100%,35%)" stroke-width="0.00453"></path>
<path d="M0.818 0.820 Q0.611 0.756 0.440 0.843" stroke="hsl(0.0,100%,35%)" stroke-width="0.00755"></path>
<path d="M0.818 0.820 Q1.627 0.538 1.254 0.082" stroke="hsl(0.0,100%,35%)" stroke-width="0.00302"></path>
<path d="M0.818 0.820 Q1.120 1.062 1.660 0.968" stroke="hsl(0.0,100%,35%)" stroke-width="0.00151"></path>
<path d="M0.818 0.820 Q1.663 0.621 1.460 0.165" stroke="hsl(0.0,100%,35%)" stroke-width="0.00151"></path>
<path d="M0.818 0.820 Q0.969 0.863 1.086 0.799" stroke="hsl(0.0,100%,35%)" stroke-width="0.00151"></path>
<path d="M0.818 0.820 Q0.690 0.536 0.109 0.537" stroke="hsl(0.0,100%,35%)" stroke-width="0.00151"></path>
<path d="M0.279 0.497 Q0.250 0.596 0.437 0.632" stroke="hsl(0.0,100%,35%)" stroke-width="0.01209"></path>
<path d="M0.279 0.497 Q1.135 0.567 1.460 0.165" stroke="hsl(0.0,100%,35%)" stroke-width="0.00302"></path>
<path d="M0.279 0.497 Q0.592 1.008 1.660 0.968" stroke="hsl(0.0,100%,35%)" stroke-width="0.00151"></path>
<path d="M0.279 0.497 Q0.162 0.483 0.109 0.537" stroke="hsl(0.0,100%,35%)" stroke-width="0.00151"></path>
<path d="M0.279 0.497 Q0.524 0.898 1.361 0.867" stroke="hsl(0.0,100%,35%)" stroke-width="0.00302"></path>
<path d="M0.279 0.497 Q1.099 0.484 1.254 0.082" stroke="hsl(0.0,100%,35%)" stroke-width="0.00151"></path>
<path d="M0.279 0.497 Q0.250 0.412 0.078 0.407" stroke="hsl(0.0,100%,35%)" stroke-width="0.00151"></path>
<path d="M0.279 0.497 Q0.822 0.898 1.724 0.721" stroke="hsl(0.0,100%,35%)" stroke-width="0.00151"></path>
<path d="M0.279 0.497 Q0.813 0.393 0.728 0.110" stroke="hsl(0.0,100%,35%)" stroke-width="0.00151"></path>
<path d="M0.624 0.970 Q1.310 0.633 0.802 0.224" stroke="hsl(0.0,100%,35%)" stroke-width="0.00151"></path>
<path d="M0.624 0.970 Q0.758 0.985 0.817 0.923" stroke="hsl(0.0,100%,35%)" stroke-width="0.00151"></path>
<path d="M0.624 0.970 Q1.078 0.662 0.578 0.373" stroke="hsl(0.0,100%,35%)" stroke-width="0.00151"></path>
<path d="M1.049 0.109 Q1.173 0.136 1.254 0.082" stroke="hsl(0.0,100%,35%)" stroke-width="0.00151"></path>
<path d="M1.049 0.109 Q0.699 -0.065 0.283 0.068" stroke="hsl(0.0,100%,35%)" stroke-width="0.00151"></path>
<path d="M1.049 0.109 Q1.210 0.220 1.460 0.165" stroke="hsl(0.0,100%,35%)" stroke-width="0.00151"></path>
<path d="M0.539 0.561 Q0.348 0.523 0.231 0.607" stroke="hsl(0.0,100%,35%)" stroke-width="0.00151"></path>
<path d="M0.539 0.561 Q0.705 0.878 1.361 0.867" stroke="hsl(0.0,100%,35%)" stroke-width="0.00151"></path>
<path d="M0.539 0.561 Q1.280 0.464 1.254 0.082" stroke="hsl(0.0,100%,35%)" stroke-width="0.00151"></path>
<path d="M0.539 0.561 Q0.709 0.475 0.578 0.373" stroke="hsl(0.0,100%,35%)" stroke-width="0.00151"></path>
<path d="M0.113 0.282 Q0.301 0.332 0.439 0.251" stroke="hsl(180.0,100%,35%)" stroke-width="0.01209"></path>
<path d="M0.113 0.282 Q0.470 0.880 1.715 0.837" stroke="hsl(180.0,100%,35%)" stroke-width="0.00151"></path>
<path d="M0.113 0.282 Q0.146 0.365 0.316 0.367" stroke="hsl(180.0,100%,35%)" stroke-width="0.00151"></path>
<path d="M0.113 0.282 Q0.834 0.581 1.574 0.295" stroke="hsl(180.0,100%,35%)" stroke-width="0.00151"></path>
<path d="M0.113 0.282 Q0.844 0.410 1.254 0.082" stroke="hsl(180.0,100%,35%)" stroke-width="0.00151"></path>
<path d="M1.514 0.811 Q1.310 0.720 1.086 0.799" stroke="hsl(0.0,100%,35%)" stroke-width="0.00302"></path>
<path d="M1.514 0.811 Q1.691 0.808 1.724 0.721" stroke="hsl(0.0,100%,35%)" stroke-width="0.00302"></path>
<path d="M1.514 0.811 Q0.952 0.612 0.440 0.843" stroke="hsl(0.0,100%,35%)" stroke-width="0.00302"></path>
<path d="M1.514 0.811 Q1.967 0.394 1.254 0.082" stroke="hsl(0.0,100%,35%)" stroke-width="0.00151"></path>
</g>
<text x="1.660" y="0.946" font-size="0.044773" fill="hsl(0.0,100%,20%)">ahaas</text>
<text x="1.460" y="0.132" font-size="0.066550" fill="hsl(0.0,100%,20%)">mliedtke</text>
<text x="1.715" y="0.821" font-size="0.031289" fill="hsl(0.0,100%,20%)">thibaudm</text>
<text x="0.283" y="0.052" font-size="0.032026" fill="hsl(0.0,100%,20%)">victorgomes</text>
<text x="1.574" y="0.269" font-size="0.051095" fill="hsl(0.0,100%,20%)">jkummerow</text>
<text x="1.724" y="0.698" font-size="0.044773" fill="hsl(0.0,100%,20%)">clemensb</text>
<text x="1.168" y="0.933" font-size="0.047305" fill="hsl(180.0,100%,20%)">saelo</text>
<text x="1.277" y="0.185" font-size="0.029762" fill="hsl(0.0,100%,20%)">evih</text>
<text x="1.361" y="0.856" font-size="0.022646" fill="hsl(0.0,100%,20%)">verwaest</text>
<text x="0.938" y="0.696" font-size="0.019312" fill="hsl(180.0,100%,20%)">bikineev</text>
<text x="1.106" y="0.633" font-size="0.039223" fill="hsl(180.0,100%,20%)">omerkatz</text>
<text x="0.440" y="0.824" font-size="0.037398" fill="hsl(180.0,100%,20%)">mlippautz</text>
<text x="0.728" y="0.087" font-size="0.045803" fill="hsl(180.0,100%,20%)">leszeks</text>
<text x="1.254" y="0.054" font-size="0.054623" fill="hsl(0.0,100%,20%)">dmercadier</text>
<text x="1.403" y="0.471" font-size="0.035479" fill="hsl(0.0,100%,20%)">machenbach</text>
<text x="0.627" y="0.702" font-size="0.030535" fill="hsl(180.0,100%,20%)">dinfuehr</text>
<text x="1.086" y="0.775" font-size="0.047305" fill="hsl(180.0,100%,20%)">ishell</text>
<text x="0.505" y="0.038" font-size="0.027312" fill="hsl(180.0,100%,20%)">pthier</text>
<text x="1.362" y="0.717" font-size="0.025548" fill="hsl(180.0,100%,20%)">olivf</text>
<text x="0.231" y="0.598" font-size="0.019312" fill="hsl(180.0,100%,20%)">cbruni</text>
<text x="1.052" y="0.173" font-size="0.032745" fill="hsl(0.0,100%,20%)">manoskouk</text>
<text x="1.053" y="0.428" font-size="0.024618" fill="hsl(0.0,100%,20%)">leese</text>
<text x="1.138" y="0.357" font-size="0.015268" fill="hsl(0.0,100%,20%)">bmeurer</text>
<text x="0.951" y="0.514" font-size="0.019312" fill="hsl(0.0,100%,20%)">szuend</text>
<text x="0.783" y="0.393" font-size="0.015268" fill="hsl(0.0,100%,20%)">lpardosixtos</text>
<text x="0.578" y="0.362" font-size="0.021592" fill="hsl(0.0,100%,20%)">syg</text>
<text x="1.271" y="0.587" font-size="0.011826" fill="hsl(0.0,100%,20%)">liviurau</text>
<text x="0.802" y="0.207" font-size="0.033450" fill="hsl(0.0,100%,20%)">marja</text>
<text x="0.818" y="0.803" font-size="0.034139" fill="hsl(0.0,100%,20%)">nikolaos</text>
<text x="0.279" y="0.482" font-size="0.028968" fill="hsl(0.0,100%,20%)">mfarazma</text>
<text x="0.437" y="0.623" font-size="0.019312" fill="hsl(0.0,100%,20%)">junyan</text>
<text x="0.109" y="0.531" font-size="0.011826" fill="hsl(0.0,100%,20%)">sroettger</text>
<text x="0.078" y="0.402" font-size="0.009656" fill="hsl(0.0,100%,20%)">nicohartmann</text>
<text x="0.624" y="0.964" font-size="0.011826" fill="hsl(0.0,100%,20%)">pkasting</text>
<text x="0.817" y="0.920" font-size="0.006828" fill="hsl(0.0,100%,20%)">pfaffe</text>
<text x="1.049" y="0.103" font-size="0.011826" fill="hsl(0.0,100%,20%)">sam.parker</text>
<text x="0.539" y="0.554" font-size="0.013656" fill="hsl(0.0,100%,20%)">seokho</text>
<text x="0.715" y="0.553" font-size="0.006828" fill="hsl(0.0,100%,20%)">gdeepti</text>
<text x="0.113" y="0.270" font-size="0.023652" fill="hsl(180.0,100%,20%)">yahan</text>
<text x="0.439" y="0.241" font-size="0.019312" fill="hsl(180.0,100%,20%)">qiuji</text>
<text x="0.316" y="0.364" font-size="0.006828" fill="hsl(180.0,100%,20%)">mseaborn</text>
<text x="1.514" y="0.802" font-size="0.018065" fill="hsl(0.0,100%,20%)">zhaojiazhong-hf</text>
</svg>
