<svg width="4000" height="2000" viewBox="-0.025 -0.025 2.05 1.05" xmlns="http://www.w3.org/2000/svg">
  <style>
    path {
      fill: none;
      stroke-linecap: round;
      stroke-opacity: 0.4;
    }

    text {
      text-anchor: middle;
      alignment-baseline: hanging;
    }
  </style>
  <g opacity="0.4">
<path d="M0.744 0.607 Q0.521 0.606 0.469 0.714" stroke="hsl(0.0,100%,35%)" stroke-width="0.02555"></path>
<path d="M0.744 0.607 Q0.837 0.887 1.403 0.903" stroke="hsl(0.0,100%,35%)" stroke-width="0.01704"></path>
<path d="M0.744 0.607 Q1.172 0.425 0.911 0.176" stroke="hsl(0.0,100%,35%)" stroke-width="0.00852"></path>
<path d="M1.403 0.903 Q1.578 0.784 1.383 0.672" stroke="hsl(0.0,100%,35%)" stroke-width="0.01704"></path>
<path d="M1.403 0.903 Q1.579 0.871 1.554 0.778" stroke="hsl(0.0,100%,35%)" stroke-width="0.00852"></path>
<path d="M1.403 0.903 Q1.200 0.859 1.070 0.949" stroke="hsl(0.0,100%,35%)" stroke-width="0.00852"></path>
<path d="M1.403 0.903 Q1.310 0.623 0.744 0.607" stroke="hsl(0.0,100%,35%)" stroke-width="0.00852"></path>
<path d="M1.403 0.903 Q1.087 0.622 0.469 0.714" stroke="hsl(0.0,100%,35%)" stroke-width="0.00852"></path>
<path d="M1.403 0.903 Q1.222 0.767 0.916 0.825" stroke="hsl(0.0,100%,35%)" stroke-width="0.00852"></path>
<path d="M0.364 0.342 Q0.281 0.237 0.057 0.254" stroke="hsl(0.0,100%,35%)" stroke-width="0.00852"></path>
<path d="M0.364 0.342 Q0.435 0.830 1.403 0.903" stroke="hsl(0.0,100%,35%)" stroke-width="0.00852"></path>
<path d="M0.364 0.342 Q0.486 0.363 0.555 0.309" stroke="hsl(0.0,100%,35%)" stroke-width="0.00852"></path>
<path d="M0.672 0.223 Q0.829 0.247 0.911 0.176" stroke="hsl(0.0,100%,35%)" stroke-width="0.01704"></path>
<path d="M0.672 0.223 Q0.838 0.506 1.426 0.487" stroke="hsl(0.0,100%,35%)" stroke-width="0.00852"></path>
<path d="M0.672 0.223 Q0.493 0.709 1.403 0.903" stroke="hsl(0.0,100%,35%)" stroke-width="0.00852"></path>
<path d="M0.450 0.199 Q0.541 0.255 0.672 0.223" stroke="hsl(0.0,100%,35%)" stroke-width="0.00852"></path>
<path d="M0.450 0.199 Q0.047 0.460 0.469 0.714" stroke="hsl(0.0,100%,35%)" stroke-width="0.00852"></path>
<path d="M0.450 0.199 Q0.208 0.336 0.422 0.484" stroke="hsl(0.0,100%,35%)" stroke-width="0.00852"></path>
<path d="M0.778 0.394 Q0.367 0.492 0.469 0.714" stroke="hsl(0.0,100%,35%)" stroke-width="0.00852"></path>
<path d="M0.778 0.394 Q0.683 0.773 1.403 0.903" stroke="hsl(0.0,100%,35%)" stroke-width="0.00852"></path>
<path d="M0.778 0.394 Q0.888 0.457 1.035 0.417" stroke="hsl(0.0,100%,35%)" stroke-width="0.00852"></path>
<path d="M0.040 0.454 Q0.207 0.545 0.422 0.484" stroke="hsl(0.0,100%,35%)" stroke-width="0.01704"></path>
<path d="M0.040 0.454 Q0.917 0.753 1.693 0.391" stroke="hsl(0.0,100%,35%)" stroke-width="0.00852"></path>
<path d="M0.040 0.454 Q0.698 0.489 0.911 0.176" stroke="hsl(0.0,100%,35%)" stroke-width="0.01704"></path>
<path d="M1.693 0.391 Q1.807 0.472 1.990 0.433" stroke="hsl(0.0,100%,35%)" stroke-width="0.00852"></path>
<path d="M1.693 0.391 Q1.882 0.348 1.840 0.246" stroke="hsl(0.0,100%,35%)" stroke-width="0.00852"></path>
<path d="M1.693 0.391 Q1.483 0.386 1.426 0.487" stroke="hsl(0.0,100%,35%)" stroke-width="0.00852"></path>
<path d="M0.173 0.561 Q0.198 0.697 0.469 0.714" stroke="hsl(0.0,100%,35%)" stroke-width="0.01704"></path>
<path d="M0.173 0.561 Q0.514 0.978 1.403 0.903" stroke="hsl(0.0,100%,35%)" stroke-width="0.00852"></path>
<path d="M0.173 0.561 Q0.192 0.481 0.040 0.454" stroke="hsl(0.0,100%,35%)" stroke-width="0.01704"></path>
<path d="M0.173 0.561 Q1.183 0.861 1.990 0.433" stroke="hsl(0.0,100%,35%)" stroke-width="0.00852"></path>
<path d="M0.173 0.561 Q0.690 0.946 1.554 0.778" stroke="hsl(0.0,100%,35%)" stroke-width="0.00852"></path>
<path d="M0.173 0.561 Q0.120 0.609 0.203 0.646" stroke="hsl(0.0,100%,35%)" stroke-width="0.00852"></path>
<path d="M0.502 0.827 Q0.799 0.765 0.744 0.607" stroke="hsl(0.0,100%,35%)" stroke-width="0.03407"></path>
<path d="M0.502 0.827 Q1.070 0.559 0.672 0.223" stroke="hsl(0.0,100%,35%)" stroke-width="0.01704"></path>
<path d="M0.502 0.827 Q1.227 0.583 0.911 0.176" stroke="hsl(0.0,100%,35%)" stroke-width="0.00852"></path>
<path d="M0.502 0.827 Q1.236 0.842 1.426 0.487" stroke="hsl(0.0,100%,35%)" stroke-width="0.00852"></path>
<path d="M1.001 0.549 Q0.603 0.525 0.469 0.714" stroke="hsl(0.0,100%,35%)" stroke-width="0.00852"></path>
<path d="M1.001 0.549 Q1.094 0.687 1.383 0.672" stroke="hsl(0.0,100%,35%)" stroke-width="0.01704"></path>
<path d="M1.001 0.549 Q1.264 0.603 1.426 0.487" stroke="hsl(0.0,100%,35%)" stroke-width="0.02555"></path>
<path d="M1.001 0.549 Q0.597 0.309 0.040 0.454" stroke="hsl(0.0,100%,35%)" stroke-width="0.01704"></path>
<path d="M1.281 0.275 Q0.685 0.208 0.422 0.484" stroke="hsl(0.0,100%,35%)" stroke-width="0.00852"></path>
<path d="M1.281 0.275 Q1.481 0.280 1.533 0.183" stroke="hsl(0.0,100%,35%)" stroke-width="0.00852"></path>
<path d="M1.281 0.275 Q0.518 0.116 0.040 0.454" stroke="hsl(0.0,100%,35%)" stroke-width="0.00852"></path>
</g>
<text x="0.744" y="0.577" font-size="0.060055" fill="hsl(0.0,100%,20%)">dmercadier</text>
<text x="0.469" y="0.687" font-size="0.054321" fill="hsl(0.0,100%,20%)">nicohartmann</text>
<text x="1.403" y="0.871" font-size="0.065286" fill="hsl(0.0,100%,20%)">jkummerow</text>
<text x="0.911" y="0.154" font-size="0.044353" fill="hsl(0.0,100%,20%)">verwaest</text>
<text x="0.364" y="0.326" font-size="0.031363" fill="hsl(0.0,100%,20%)">fgm</text>
<text x="0.057" y="0.245" font-size="0.018107" fill="hsl(0.0,100%,20%)">gdeepti</text>
<text x="0.555" y="0.300" font-size="0.018107" fill="hsl(0.0,100%,20%)">adamk</text>
<text x="1.383" y="0.654" font-size="0.036214" fill="hsl(0.0,100%,20%)">clemensb</text>
<text x="1.554" y="0.765" font-size="0.025607" fill="hsl(0.0,100%,20%)">ahaas</text>
<text x="1.070" y="0.940" font-size="0.018107" fill="hsl(0.0,100%,20%)">machenbach</text>
<text x="0.916" y="0.816" font-size="0.018107" fill="hsl(0.0,100%,20%)">evih</text>
<text x="0.672" y="0.199" font-size="0.047907" fill="hsl(0.0,100%,20%)">leszeks</text>
<text x="1.426" y="0.465" font-size="0.044353" fill="hsl(0.0,100%,20%)">ishell</text>
<text x="0.450" y="0.183" font-size="0.031363" fill="hsl(0.0,100%,20%)">marja</text>
<text x="0.422" y="0.466" font-size="0.036214" fill="hsl(0.0,100%,20%)">dinfuehr</text>
<text x="0.778" y="0.378" font-size="0.031363" fill="hsl(0.0,100%,20%)">mfarazma</text>
<text x="1.035" y="0.408" font-size="0.018107" fill="hsl(0.0,100%,20%)">junyan</text>
<text x="0.040" y="0.425" font-size="0.057260" fill="hsl(0.0,100%,20%)">mlippautz</text>
<text x="1.693" y="0.373" font-size="0.036214" fill="hsl(0.0,100%,20%)">pthier</text>
<text x="0.173" y="0.535" font-size="0.051215" fill="hsl(0.0,100%,20%)">nikolaos</text>
<text x="1.990" y="0.421" font-size="0.025607" fill="hsl(0.0,100%,20%)">cbruni</text>
<text x="0.203" y="0.637" font-size="0.018107" fill="hsl(0.0,100%,20%)">omerkatz</text>
<text x="0.502" y="0.801" font-size="0.051215" fill="hsl(0.0,100%,20%)">olivf</text>
<text x="1.840" y="0.237" font-size="0.018107" fill="hsl(0.0,100%,20%)">syg</text>
<text x="1.001" y="0.524" font-size="0.051215" fill="hsl(0.0,100%,20%)">saelo</text>
<text x="1.281" y="0.260" font-size="0.031363" fill="hsl(0.0,100%,20%)">sroettger</text>
<text x="1.533" y="0.174" font-size="0.018107" fill="hsl(0.0,100%,20%)">victorgomes</text>
</svg>
