<svg width="4000" height="2000" viewBox="-0.025 -0.025 2.05 1.05" xmlns="http://www.w3.org/2000/svg">
  <style>
    path {
      fill: none;
      stroke-linecap: round;
      stroke-opacity: 0.4;
    }

    text {
      text-anchor: middle;
      alignment-baseline: hanging;
    }
  </style>
  <g opacity="0.4">
<path d="M1.835 0.550 Q1.773 0.453 1.571 0.462" stroke="hsl(0.0,100%,35%)" stroke-width="0.00141"></path>
<path d="M1.835 0.550 Q1.609 0.574 1.607 0.690" stroke="hsl(0.0,100%,35%)" stroke-width="0.00141"></path>
<path d="M1.835 0.550 Q1.185 0.315 0.584 0.581" stroke="hsl(0.0,100%,35%)" stroke-width="0.00141"></path>
<path d="M0.584 0.581 Q0.493 0.672 0.650 0.736" stroke="hsl(180.0,100%,35%)" stroke-width="0.01548"></path>
<path d="M0.584 0.581 Q1.020 0.443 0.848 0.201" stroke="hsl(180.0,100%,35%)" stroke-width="0.00844"></path>
<path d="M0.584 0.581 Q1.227 0.559 1.325 0.241" stroke="hsl(180.0,100%,35%)" stroke-width="0.00985"></path>
<path d="M0.584 0.581 Q1.522 0.541 1.650 0.075" stroke="hsl(180.0,100%,35%)" stroke-width="0.00281"></path>
<path d="M0.584 0.581 Q0.563 0.466 0.335 0.452" stroke="hsl(180.0,100%,35%)" stroke-width="0.00281"></path>
<path d="M0.584 0.581 Q1.001 0.995 1.900 0.883" stroke="hsl(180.0,100%,35%)" stroke-width="0.00141"></path>
<path d="M0.584 0.581 Q0.834 0.458 0.650 0.309" stroke="hsl(180.0,100%,35%)" stroke-width="0.00563"></path>
<path d="M0.584 0.581 Q0.872 0.953 1.662 0.895" stroke="hsl(180.0,100%,35%)" stroke-width="0.00141"></path>
<path d="M0.584 0.581 Q0.503 0.368 0.071 0.361" stroke="hsl(180.0,100%,35%)" stroke-width="0.00563"></path>
<path d="M0.584 0.581 Q0.481 0.505 0.310 0.538" stroke="hsl(180.0,100%,35%)" stroke-width="0.00281"></path>
<path d="M0.584 0.581 Q0.950 0.554 0.978 0.369" stroke="hsl(180.0,100%,35%)" stroke-width="0.00141"></path>
<path d="M0.584 0.581 Q0.933 0.373 0.604 0.157" stroke="hsl(180.0,100%,35%)" stroke-width="0.00281"></path>
<path d="M0.650 0.736 Q1.177 0.508 0.848 0.201" stroke="hsl(180.0,100%,35%)" stroke-width="0.00422"></path>
<path d="M0.650 0.736 Q1.384 0.623 1.325 0.241" stroke="hsl(180.0,100%,35%)" stroke-width="0.00422"></path>
<path d="M0.650 0.736 Q0.720 0.531 0.335 0.452" stroke="hsl(180.0,100%,35%)" stroke-width="0.00422"></path>
<path d="M0.650 0.736 Q0.813 0.778 0.931 0.708" stroke="hsl(180.0,100%,35%)" stroke-width="0.00141"></path>
<path d="M0.650 0.736 Q1.170 0.699 1.212 0.438" stroke="hsl(180.0,100%,35%)" stroke-width="0.00281"></path>
<path d="M0.650 0.736 Q0.492 0.699 0.384 0.768" stroke="hsl(180.0,100%,35%)" stroke-width="0.00141"></path>
<path d="M0.650 0.736 Q0.742 0.645 0.584 0.581" stroke="hsl(180.0,100%,35%)" stroke-width="0.00141"></path>
<path d="M0.848 0.201 Q1.033 0.184 1.041 0.090" stroke="hsl(180.0,100%,35%)" stroke-width="0.00985"></path>
<path d="M0.848 0.201 Q0.662 0.215 0.650 0.309" stroke="hsl(180.0,100%,35%)" stroke-width="0.00563"></path>
<path d="M0.848 0.201 Q0.390 0.224 0.335 0.452" stroke="hsl(180.0,100%,35%)" stroke-width="0.00563"></path>
<path d="M0.848 0.201 Q0.412 0.338 0.584 0.581" stroke="hsl(180.0,100%,35%)" stroke-width="0.00563"></path>
<path d="M0.848 0.201 Q1.054 0.316 1.325 0.241" stroke="hsl(180.0,100%,35%)" stroke-width="0.00844"></path>
<path d="M0.848 0.201 Q0.761 0.130 0.604 0.157" stroke="hsl(180.0,100%,35%)" stroke-width="0.00141"></path>
<path d="M0.848 0.201 Q0.484 0.471 0.931 0.708" stroke="hsl(180.0,100%,35%)" stroke-width="0.00141"></path>
<path d="M0.848 0.201 Q0.478 0.715 1.399 1.008" stroke="hsl(180.0,100%,35%)" stroke-width="0.00141"></path>
<path d="M0.848 0.201 Q0.162 0.391 0.384 0.768" stroke="hsl(180.0,100%,35%)" stroke-width="0.00141"></path>
<path d="M1.325 0.241 Q1.304 0.108 1.041 0.090" stroke="hsl(180.0,100%,35%)" stroke-width="0.00141"></path>
<path d="M1.325 0.241 Q0.933 0.140 0.650 0.309" stroke="hsl(180.0,100%,35%)" stroke-width="0.00281"></path>
<path d="M1.325 0.241 Q0.970 0.635 1.662 0.895" stroke="hsl(180.0,100%,35%)" stroke-width="0.00141"></path>
<path d="M1.325 0.241 Q1.119 0.125 0.848 0.201" stroke="hsl(180.0,100%,35%)" stroke-width="0.01126"></path>
<path d="M1.325 0.241 Q0.683 0.263 0.584 0.581" stroke="hsl(180.0,100%,35%)" stroke-width="0.00704"></path>
<path d="M1.325 0.241 Q0.592 0.353 0.650 0.736" stroke="hsl(180.0,100%,35%)" stroke-width="0.00141"></path>
<path d="M1.325 0.241 Q1.032 0.055 0.604 0.157" stroke="hsl(180.0,100%,35%)" stroke-width="0.00422"></path>
<path d="M1.325 0.241 Q1.099 0.677 1.900 0.883" stroke="hsl(180.0,100%,35%)" stroke-width="0.00141"></path>
<path d="M1.325 0.241 Q0.726 0.082 0.284 0.340" stroke="hsl(180.0,100%,35%)" stroke-width="0.00141"></path>
<path d="M1.325 0.241 Q1.111 0.317 1.212 0.438" stroke="hsl(180.0,100%,35%)" stroke-width="0.00141"></path>
<path d="M0.335 0.452 Q0.792 0.429 0.848 0.201" stroke="hsl(180.0,100%,35%)" stroke-width="0.00844"></path>
<path d="M0.335 0.452 Q1.294 0.526 1.650 0.075" stroke="hsl(180.0,100%,35%)" stroke-width="0.00141"></path>
<path d="M0.335 0.452 Q0.356 0.566 0.584 0.581" stroke="hsl(180.0,100%,35%)" stroke-width="0.01126"></path>
<path d="M0.384 0.768 Q0.542 0.805 0.650 0.736" stroke="hsl(180.0,100%,35%)" stroke-width="0.00844"></path>
<path d="M0.384 0.768 Q1.069 0.577 0.848 0.201" stroke="hsl(180.0,100%,35%)" stroke-width="0.00281"></path>
<path d="M0.384 0.768 Q1.276 0.693 1.325 0.241" stroke="hsl(180.0,100%,35%)" stroke-width="0.00141"></path>
<path d="M1.416 0.834 Q1.203 0.541 0.584 0.581" stroke="hsl(180.0,100%,35%)" stroke-width="0.00141"></path>
<path d="M1.416 0.834 Q0.953 0.595 0.384 0.768" stroke="hsl(180.0,100%,35%)" stroke-width="0.00141"></path>
<path d="M1.416 0.834 Q1.269 0.918 1.399 1.008" stroke="hsl(180.0,100%,35%)" stroke-width="0.00141"></path>
<path d="M1.399 1.008 Q1.750 1.045 1.900 0.883" stroke="hsl(0.0,100%,35%)" stroke-width="0.01970"></path>
<path d="M1.399 1.008 Q1.584 0.509 0.650 0.309" stroke="hsl(0.0,100%,35%)" stroke-width="0.00422"></path>
<path d="M1.399 1.008 Q1.242 0.722 0.650 0.736" stroke="hsl(0.0,100%,35%)" stroke-width="0.00141"></path>
<path d="M1.399 1.008 Q1.328 0.942 1.183 0.962" stroke="hsl(0.0,100%,35%)" stroke-width="0.01407"></path>
<path d="M1.399 1.008 Q1.621 1.004 1.662 0.895" stroke="hsl(0.0,100%,35%)" stroke-width="0.00141"></path>
<path d="M1.399 1.008 Q1.539 0.733 1.032 0.604" stroke="hsl(0.0,100%,35%)" stroke-width="0.00281"></path>
<path d="M0.416 0.482 Q0.010 0.577 0.106 0.796" stroke="hsl(180.0,100%,35%)" stroke-width="0.00141"></path>
<path d="M0.416 0.482 Q0.341 0.353 0.071 0.361" stroke="hsl(180.0,100%,35%)" stroke-width="0.00141"></path>
<path d="M0.416 0.482 Q0.838 0.979 1.900 0.883" stroke="hsl(180.0,100%,35%)" stroke-width="0.00141"></path>
<path d="M0.416 0.482 Q0.671 0.442 0.650 0.309" stroke="hsl(180.0,100%,35%)" stroke-width="0.00141"></path>
<path d="M1.900 0.883 Q1.850 0.442 0.978 0.369" stroke="hsl(0.0,100%,35%)" stroke-width="0.00704"></path>
<path d="M1.900 0.883 Q1.733 0.346 0.650 0.309" stroke="hsl(0.0,100%,35%)" stroke-width="0.00281"></path>
<path d="M1.900 0.883 Q2.421 0.429 1.650 0.075" stroke="hsl(0.0,100%,35%)" stroke-width="0.00281"></path>
<path d="M1.900 0.883 Q1.771 0.841 1.662 0.895" stroke="hsl(0.0,100%,35%)" stroke-width="0.00141"></path>
<path d="M1.900 0.883 Q1.555 0.602 0.931 0.708" stroke="hsl(0.0,100%,35%)" stroke-width="0.00141"></path>
<path d="M1.900 0.883 Q1.978 0.670 1.579 0.585" stroke="hsl(0.0,100%,35%)" stroke-width="0.00141"></path>
<path d="M1.900 0.883 Q2.134 0.703 1.835 0.550" stroke="hsl(0.0,100%,35%)" stroke-width="0.00141"></path>
<path d="M0.650 0.309 Q0.835 0.295 0.848 0.201" stroke="hsl(180.0,100%,35%)" stroke-width="0.02815"></path>
<path d="M0.650 0.309 Q0.816 0.846 1.900 0.883" stroke="hsl(180.0,100%,35%)" stroke-width="0.00281"></path>
<path d="M0.650 0.309 Q0.749 0.224 0.604 0.157" stroke="hsl(180.0,100%,35%)" stroke-width="0.01830"></path>
<path d="M0.650 0.309 Q0.605 0.533 1.032 0.604" stroke="hsl(180.0,100%,35%)" stroke-width="0.00281"></path>
<path d="M0.650 0.309 Q0.766 0.405 0.978 0.369" stroke="hsl(180.0,100%,35%)" stroke-width="0.00141"></path>
<path d="M1.650 0.075 Q0.712 0.115 0.584 0.581" stroke="hsl(0.0,100%,35%)" stroke-width="0.00422"></path>
<path d="M1.650 0.075 Q1.575 0.142 1.690 0.193" stroke="hsl(0.0,100%,35%)" stroke-width="0.00422"></path>
<path d="M1.650 0.075 Q1.129 0.529 1.900 0.883" stroke="hsl(0.0,100%,35%)" stroke-width="0.00281"></path>
<path d="M1.650 0.075 Q1.148 -0.023 0.848 0.201" stroke="hsl(0.0,100%,35%)" stroke-width="0.00141"></path>
<path d="M1.650 0.075 Q1.141 0.169 1.212 0.438" stroke="hsl(0.0,100%,35%)" stroke-width="0.00141"></path>
<path d="M1.662 0.895 Q1.369 0.833 1.183 0.962" stroke="hsl(0.0,100%,35%)" stroke-width="0.00141"></path>
<path d="M1.662 0.895 Q2.312 0.483 1.650 0.075" stroke="hsl(0.0,100%,35%)" stroke-width="0.00141"></path>
<path d="M1.662 0.895 Q1.791 0.936 1.900 0.883" stroke="hsl(0.0,100%,35%)" stroke-width="0.01267"></path>
<path d="M1.662 0.895 Q1.375 0.522 0.584 0.581" stroke="hsl(0.0,100%,35%)" stroke-width="0.00281"></path>
<path d="M1.662 0.895 Q2.017 0.501 1.325 0.241" stroke="hsl(0.0,100%,35%)" stroke-width="0.00141"></path>
<path d="M1.662 0.895 Q1.625 0.400 0.650 0.309" stroke="hsl(0.0,100%,35%)" stroke-width="0.00422"></path>
<path d="M1.662 0.895 Q1.741 0.495 0.978 0.369" stroke="hsl(0.0,100%,35%)" stroke-width="0.00422"></path>
<path d="M1.662 0.895 Q1.724 0.315 0.604 0.157" stroke="hsl(0.0,100%,35%)" stroke-width="0.00141"></path>
<path d="M1.662 0.895 Q1.046 0.470 0.080 0.677" stroke="hsl(0.0,100%,35%)" stroke-width="0.00141"></path>
<path d="M1.662 0.895 Q0.963 0.535 0.106 0.796" stroke="hsl(0.0,100%,35%)" stroke-width="0.00141"></path>
<path d="M0.978 0.369 Q0.606 0.707 1.183 0.962" stroke="hsl(0.0,100%,35%)" stroke-width="0.00281"></path>
<path d="M0.978 0.369 Q0.200 0.408 0.106 0.796" stroke="hsl(0.0,100%,35%)" stroke-width="0.00141"></path>
<path d="M0.978 0.369 Q1.028 0.810 1.900 0.883" stroke="hsl(0.0,100%,35%)" stroke-width="0.00281"></path>
<path d="M0.978 0.369 Q0.817 0.497 1.032 0.604" stroke="hsl(0.0,100%,35%)" stroke-width="0.00141"></path>
<path d="M0.978 0.369 Q0.862 0.273 0.650 0.309" stroke="hsl(0.0,100%,35%)" stroke-width="0.00141"></path>
<path d="M0.978 0.369 Q1.139 0.345 1.126 0.261" stroke="hsl(0.0,100%,35%)" stroke-width="0.00281"></path>
<path d="M0.978 0.369 Q0.684 0.529 0.931 0.708" stroke="hsl(0.0,100%,35%)" stroke-width="0.00704"></path>
<path d="M0.978 0.369 Q1.549 0.356 1.650 0.075" stroke="hsl(0.0,100%,35%)" stroke-width="0.00141"></path>
<path d="M0.978 0.369 Q1.040 0.450 1.212 0.438" stroke="hsl(0.0,100%,35%)" stroke-width="0.00704"></path>
<path d="M0.978 0.369 Q1.254 0.374 1.325 0.241" stroke="hsl(0.0,100%,35%)" stroke-width="0.00141"></path>
<path d="M0.604 0.157 Q0.505 0.242 0.650 0.309" stroke="hsl(180.0,100%,35%)" stroke-width="0.00985"></path>
<path d="M0.604 0.157 Q0.691 0.228 0.848 0.201" stroke="hsl(180.0,100%,35%)" stroke-width="0.00141"></path>
<path d="M0.604 0.157 Q0.877 0.211 1.041 0.090" stroke="hsl(180.0,100%,35%)" stroke-width="0.00141"></path>
<path d="M0.604 0.157 Q0.898 0.343 1.325 0.241" stroke="hsl(180.0,100%,35%)" stroke-width="0.00141"></path>
<path d="M1.032 0.604 Q1.243 0.917 1.900 0.883" stroke="hsl(0.0,100%,35%)" stroke-width="0.00563"></path>
<path d="M1.032 0.604 Q0.899 0.636 0.931 0.708" stroke="hsl(0.0,100%,35%)" stroke-width="0.00844"></path>
<path d="M1.032 0.604 Q0.827 0.503 0.584 0.581" stroke="hsl(0.0,100%,35%)" stroke-width="0.00281"></path>
<path d="M1.032 0.604 Q1.469 0.481 1.325 0.241" stroke="hsl(0.0,100%,35%)" stroke-width="0.00141"></path>
<path d="M1.032 0.604 Q1.114 0.876 1.662 0.895" stroke="hsl(0.0,100%,35%)" stroke-width="0.00141"></path>
<path d="M1.032 0.604 Q0.893 0.880 1.399 1.008" stroke="hsl(0.0,100%,35%)" stroke-width="0.00141"></path>
<path d="M1.183 0.962 Q1.261 0.785 0.931 0.708" stroke="hsl(0.0,100%,35%)" stroke-width="0.00141"></path>
<path d="M1.183 0.962 Q1.617 0.706 1.212 0.438" stroke="hsl(0.0,100%,35%)" stroke-width="0.00563"></path>
<path d="M1.183 0.962 Q1.183 0.569 0.416 0.482" stroke="hsl(0.0,100%,35%)" stroke-width="0.00141"></path>
<path d="M1.183 0.962 Q1.108 0.439 0.071 0.361" stroke="hsl(0.0,100%,35%)" stroke-width="0.00141"></path>
<path d="M1.183 0.962 Q1.683 0.853 1.579 0.585" stroke="hsl(0.0,100%,35%)" stroke-width="0.00141"></path>
<path d="M1.183 0.962 Q1.394 0.753 1.032 0.604" stroke="hsl(0.0,100%,35%)" stroke-width="0.00141"></path>
<path d="M1.041 0.090 Q0.856 0.106 0.848 0.201" stroke="hsl(180.0,100%,35%)" stroke-width="0.00563"></path>
<path d="M1.041 0.090 Q1.062 0.222 1.325 0.241" stroke="hsl(180.0,100%,35%)" stroke-width="0.00563"></path>
<path d="M1.041 0.090 Q0.420 0.244 0.584 0.581" stroke="hsl(180.0,100%,35%)" stroke-width="0.00281"></path>
<path d="M0.284 0.340 Q-0.170 0.533 0.106 0.796" stroke="hsl(180.0,100%,35%)" stroke-width="0.00844"></path>
<path d="M0.284 0.340 Q0.161 0.308 0.071 0.361" stroke="hsl(180.0,100%,35%)" stroke-width="0.00844"></path>
<path d="M0.284 0.340 Q0.139 0.444 0.310 0.538" stroke="hsl(180.0,100%,35%)" stroke-width="0.00141"></path>
<path d="M0.284 0.340 Q0.670 0.574 1.212 0.438" stroke="hsl(180.0,100%,35%)" stroke-width="0.00141"></path>
<path d="M0.284 0.340 Q0.491 0.398 0.650 0.309" stroke="hsl(180.0,100%,35%)" stroke-width="0.00281"></path>
<path d="M0.284 0.340 Q0.150 0.611 0.650 0.736" stroke="hsl(180.0,100%,35%)" stroke-width="0.00141"></path>
<path d="M0.284 0.340 Q0.677 0.383 0.848 0.201" stroke="hsl(180.0,100%,35%)" stroke-width="0.00141"></path>
<path d="M0.284 0.340 Q0.608 0.493 0.978 0.369" stroke="hsl(180.0,100%,35%)" stroke-width="0.00141"></path>
<path d="M0.284 0.340 Q-0.087 0.468 0.080 0.677" stroke="hsl(180.0,100%,35%)" stroke-width="0.00141"></path>
<path d="M1.579 0.585 Q1.231 0.594 1.174 0.766" stroke="hsl(0.0,100%,35%)" stroke-width="0.00141"></path>
<path d="M1.579 0.585 Q1.558 0.711 1.799 0.750" stroke="hsl(0.0,100%,35%)" stroke-width="0.00281"></path>
<path d="M1.579 0.585 Q1.513 0.438 1.212 0.438" stroke="hsl(0.0,100%,35%)" stroke-width="0.00141"></path>
<path d="M1.579 0.585 Q1.736 0.618 1.835 0.550" stroke="hsl(0.0,100%,35%)" stroke-width="0.00281"></path>
<path d="M1.579 0.585 Q1.728 0.362 1.325 0.241" stroke="hsl(0.0,100%,35%)" stroke-width="0.00141"></path>
<path d="M1.579 0.585 Q1.079 0.694 1.183 0.962" stroke="hsl(0.0,100%,35%)" stroke-width="0.00141"></path>
<path d="M1.337 0.619 Q1.408 0.863 1.900 0.883" stroke="hsl(0.0,100%,35%)" stroke-width="0.00281"></path>
<path d="M1.337 0.619 Q1.486 0.650 1.579 0.585" stroke="hsl(0.0,100%,35%)" stroke-width="0.00422"></path>
<path d="M1.337 0.619 Q0.911 0.237 0.071 0.361" stroke="hsl(0.0,100%,35%)" stroke-width="0.00141"></path>
<path d="M1.337 0.619 Q1.634 0.428 1.325 0.241" stroke="hsl(0.0,100%,35%)" stroke-width="0.00141"></path>
<path d="M1.799 0.750 Q1.743 0.836 1.900 0.883" stroke="hsl(0.0,100%,35%)" stroke-width="0.01267"></path>
<path d="M1.799 0.750 Q1.246 0.210 0.071 0.361" stroke="hsl(0.0,100%,35%)" stroke-width="0.00141"></path>
<path d="M1.799 0.750 Q1.577 0.299 0.650 0.309" stroke="hsl(0.0,100%,35%)" stroke-width="0.00844"></path>
<path d="M1.799 0.750 Q1.370 0.242 0.284 0.340" stroke="hsl(0.0,100%,35%)" stroke-width="0.00281"></path>
<path d="M1.799 0.750 Q1.676 0.214 0.604 0.157" stroke="hsl(0.0,100%,35%)" stroke-width="0.00141"></path>
<path d="M0.710 0.875 Q0.518 0.815 0.357 0.895" stroke="hsl(180.0,100%,35%)" stroke-width="0.01548"></path>
<path d="M0.710 0.875 Q0.554 0.650 0.080 0.677" stroke="hsl(180.0,100%,35%)" stroke-width="0.00141"></path>
<path d="M0.710 0.875 Q1.319 0.565 0.848 0.201" stroke="hsl(180.0,100%,35%)" stroke-width="0.00422"></path>
<path d="M0.710 0.875 Q0.955 0.836 0.931 0.708" stroke="hsl(180.0,100%,35%)" stroke-width="0.00281"></path>
<path d="M0.710 0.875 Q1.133 0.580 0.650 0.309" stroke="hsl(180.0,100%,35%)" stroke-width="0.00281"></path>
<path d="M0.710 0.875 Q1.232 0.495 0.604 0.157" stroke="hsl(180.0,100%,35%)" stroke-width="0.00422"></path>
<path d="M0.710 0.875 Q0.883 0.703 0.584 0.581" stroke="hsl(180.0,100%,35%)" stroke-width="0.00141"></path>
<path d="M0.710 0.875 Q1.299 1.117 1.900 0.883" stroke="hsl(180.0,100%,35%)" stroke-width="0.00141"></path>
<path d="M0.080 0.677 Q0.328 0.517 0.071 0.361" stroke="hsl(180.0,100%,35%)" stroke-width="0.00844"></path>
<path d="M0.080 0.677 Q-0.002 0.742 0.106 0.796" stroke="hsl(180.0,100%,35%)" stroke-width="0.01830"></path>
<path d="M0.080 0.677 Q0.696 1.102 1.662 0.895" stroke="hsl(180.0,100%,35%)" stroke-width="0.00141"></path>
<path d="M1.348 0.731 Q1.515 0.557 1.212 0.438" stroke="hsl(0.0,100%,35%)" stroke-width="0.00281"></path>
<path d="M1.348 0.731 Q1.158 0.636 0.931 0.708" stroke="hsl(0.0,100%,35%)" stroke-width="0.00141"></path>
<path d="M1.348 0.731 Q1.336 0.381 0.650 0.309" stroke="hsl(0.0,100%,35%)" stroke-width="0.00141"></path>
<path d="M1.348 0.731 Q1.581 0.704 1.579 0.585" stroke="hsl(0.0,100%,35%)" stroke-width="0.00281"></path>
<path d="M0.722 0.429 Q0.898 0.450 0.978 0.369" stroke="hsl(180.0,100%,35%)" stroke-width="0.00281"></path>
<path d="M0.722 0.429 Q0.120 0.490 0.106 0.796" stroke="hsl(180.0,100%,35%)" stroke-width="0.00281"></path>
<path d="M0.722 0.429 Q0.532 0.477 0.584 0.581" stroke="hsl(180.0,100%,35%)" stroke-width="0.00281"></path>
<path d="M0.722 0.429 Q0.782 0.355 0.650 0.309" stroke="hsl(180.0,100%,35%)" stroke-width="0.00141"></path>
<path d="M0.722 0.429 Q0.968 0.340 0.848 0.201" stroke="hsl(180.0,100%,35%)" stroke-width="0.00281"></path>
<path d="M0.722 0.429 Q0.819 0.850 1.662 0.895" stroke="hsl(180.0,100%,35%)" stroke-width="0.00141"></path>
</g>
<text x="1.835" y="0.541" font-size="0.016552" fill="hsl(0.0,100%,20%)">adamk</text>
<text x="1.571" y="0.459" font-size="0.006757" fill="hsl(0.0,100%,20%)">rezvan</text>
<text x="1.607" y="0.687" font-size="0.006757" fill="hsl(0.0,100%,20%)">fgm</text>
<text x="0.584" y="0.551" font-size="0.058521" fill="hsl(180.0,100%,20%)">clemensb</text>
<text x="0.650" y="0.716" font-size="0.039402" fill="hsl(180.0,100%,20%)">ahaas</text>
<text x="0.848" y="0.169" font-size="0.062665" fill="hsl(180.0,100%,20%)">mliedtke</text>
<text x="1.325" y="0.217" font-size="0.048257" fill="hsl(180.0,100%,20%)">jkummerow</text>
<text x="0.335" y="0.435" font-size="0.033104" fill="hsl(180.0,100%,20%)">evih</text>
<text x="0.931" y="0.694" font-size="0.028669" fill="hsl(0.0,100%,20%)">verwaest</text>
<text x="1.212" y="0.424" font-size="0.027861" fill="hsl(0.0,100%,20%)">cbruni</text>
<text x="0.384" y="0.756" font-size="0.023408" fill="hsl(180.0,100%,20%)">thibaudm</text>
<text x="1.416" y="0.829" font-size="0.011704" fill="hsl(180.0,100%,20%)">anton.kirilov</text>
<text x="1.399" y="0.988" font-size="0.039402" fill="hsl(0.0,100%,20%)">victorgomes</text>
<text x="0.416" y="0.475" font-size="0.015110" fill="hsl(180.0,100%,20%)">bikineev</text>
<text x="0.106" y="0.780" font-size="0.033104" fill="hsl(180.0,100%,20%)">mlippautz</text>
<text x="0.071" y="0.346" font-size="0.030220" fill="hsl(180.0,100%,20%)">omerkatz</text>
<text x="1.900" y="0.856" font-size="0.052777" fill="hsl(0.0,100%,20%)">leszeks</text>
<text x="0.650" y="0.280" font-size="0.059296" fill="hsl(180.0,100%,20%)">dmercadier</text>
<text x="1.650" y="0.061" font-size="0.027861" fill="hsl(0.0,100%,20%)">machenbach</text>
<text x="1.662" y="0.877" font-size="0.037012" fill="hsl(0.0,100%,20%)">saelo</text>
<text x="0.310" y="0.532" font-size="0.011704" fill="hsl(180.0,100%,20%)">szuend</text>
<text x="0.978" y="0.349" font-size="0.039402" fill="hsl(0.0,100%,20%)">ishell</text>
<text x="0.604" y="0.137" font-size="0.039402" fill="hsl(180.0,100%,20%)">nicohartmann</text>
<text x="1.032" y="0.589" font-size="0.030966" fill="hsl(0.0,100%,20%)">olivf</text>
<text x="1.183" y="0.946" font-size="0.032407" fill="hsl(0.0,100%,20%)">pthier</text>
<text x="1.126" y="0.256" font-size="0.009556" fill="hsl(0.0,100%,20%)">dinfuehr</text>
<text x="1.041" y="0.075" font-size="0.029455" fill="hsl(180.0,100%,20%)">manoskouk</text>
<text x="0.284" y="0.324" font-size="0.032407" fill="hsl(180.0,100%,20%)">nikolaos</text>
<text x="1.579" y="0.572" font-size="0.026171" fill="hsl(0.0,100%,20%)">syg</text>
<text x="1.337" y="0.610" font-size="0.017878" fill="hsl(0.0,100%,20%)">lpardosixtos</text>
<text x="1.690" y="0.187" font-size="0.011704" fill="hsl(180.0,100%,20%)">liviurau</text>
<text x="1.799" y="0.734" font-size="0.030966" fill="hsl(0.0,100%,20%)">marja</text>
<text x="0.710" y="0.859" font-size="0.033104" fill="hsl(180.0,100%,20%)">mfarazma</text>
<text x="0.357" y="0.884" font-size="0.022412" fill="hsl(0.0,100%,20%)">junyan</text>
<text x="0.080" y="0.661" font-size="0.032407" fill="hsl(180.0,100%,20%)">sroettger</text>
<text x="1.348" y="0.723" font-size="0.016552" fill="hsl(0.0,100%,20%)">seokho</text>
<text x="1.174" y="0.763" font-size="0.006757" fill="hsl(0.0,100%,20%)">gdeepti</text>
<text x="0.722" y="0.418" font-size="0.021369" fill="hsl(180.0,100%,20%)">zhaojiazhong-hf</text>
</svg>
