<svg width="4000" height="2000" viewBox="-0.025 -0.025 2.05 1.05" xmlns="http://www.w3.org/2000/svg">
  <style>
    path {
      fill: none;
      stroke-linecap: round;
      stroke-opacity: 0.4;
    }

    text {
      text-anchor: middle;
      alignment-baseline: hanging;
    }
  </style>
  <g opacity="0.4">
<path d="M0.906 0.972 Q0.811 0.939 0.727 0.978" stroke="hsl(0.0,100%,35%)" stroke-width="0.00137"></path>
<path d="M0.906 0.972 Q1.077 0.985 1.142 0.905" stroke="hsl(0.0,100%,35%)" stroke-width="0.00137"></path>
<path d="M0.906 0.972 Q1.829 0.831 1.757 0.350" stroke="hsl(0.0,100%,35%)" stroke-width="0.00137"></path>
<path d="M1.757 0.350 Q0.593 0.236 0.115 0.778" stroke="hsl(180.0,100%,35%)" stroke-width="0.01648"></path>
<path d="M1.757 0.350 Q1.151 0.154 0.636 0.407" stroke="hsl(180.0,100%,35%)" stroke-width="0.00824"></path>
<path d="M1.757 0.350 Q0.983 0.273 0.663 0.634" stroke="hsl(180.0,100%,35%)" stroke-width="0.01098"></path>
<path d="M1.757 0.350 Q1.521 0.141 1.061 0.210" stroke="hsl(180.0,100%,35%)" stroke-width="0.00412"></path>
<path d="M1.757 0.350 Q1.116 0.224 0.729 0.509" stroke="hsl(180.0,100%,35%)" stroke-width="0.00275"></path>
<path d="M1.757 0.350 Q1.508 0.585 1.911 0.758" stroke="hsl(180.0,100%,35%)" stroke-width="0.00137"></path>
<path d="M1.757 0.350 Q1.313 0.166 0.857 0.342" stroke="hsl(180.0,100%,35%)" stroke-width="0.00549"></path>
<path d="M1.757 0.350 Q1.378 0.552 1.689 0.781" stroke="hsl(180.0,100%,35%)" stroke-width="0.00137"></path>
<path d="M1.757 0.350 Q1.106 -0.052 0.177 0.177" stroke="hsl(180.0,100%,35%)" stroke-width="0.00549"></path>
<path d="M1.757 0.350 Q1.717 0.457 1.917 0.500" stroke="hsl(180.0,100%,35%)" stroke-width="0.00275"></path>
<path d="M1.757 0.350 Q1.443 0.008 0.707 0.087" stroke="hsl(180.0,100%,35%)" stroke-width="0.00137"></path>
<path d="M1.757 0.350 Q1.302 0.088 0.691 0.252" stroke="hsl(180.0,100%,35%)" stroke-width="0.00275"></path>
<path d="M0.115 0.778 Q0.672 0.697 0.636 0.407" stroke="hsl(180.0,100%,35%)" stroke-width="0.00412"></path>
<path d="M0.115 0.778 Q0.505 0.816 0.663 0.634" stroke="hsl(180.0,100%,35%)" stroke-width="0.00412"></path>
<path d="M0.115 0.778 Q0.637 0.767 0.729 0.509" stroke="hsl(180.0,100%,35%)" stroke-width="0.00412"></path>
<path d="M0.115 0.778 Q1.263 0.778 1.515 0.218" stroke="hsl(180.0,100%,35%)" stroke-width="0.00137"></path>
<path d="M0.115 0.778 Q1.056 0.616 0.946 0.121" stroke="hsl(180.0,100%,35%)" stroke-width="0.00275"></path>
<path d="M0.115 0.778 Q0.209 0.753 0.180 0.701" stroke="hsl(180.0,100%,35%)" stroke-width="0.00137"></path>
<path d="M0.115 0.778 Q1.279 0.893 1.757 0.350" stroke="hsl(180.0,100%,35%)" stroke-width="0.00137"></path>
<path d="M0.636 0.407 Q0.798 0.419 0.857 0.342" stroke="hsl(180.0,100%,35%)" stroke-width="0.00686"></path>
<path d="M0.636 0.407 Q0.689 0.522 0.924 0.521" stroke="hsl(180.0,100%,35%)" stroke-width="0.00961"></path>
<path d="M0.636 0.407 Q0.601 0.477 0.729 0.509" stroke="hsl(180.0,100%,35%)" stroke-width="0.00549"></path>
<path d="M0.636 0.407 Q1.242 0.603 1.757 0.350" stroke="hsl(180.0,100%,35%)" stroke-width="0.00549"></path>
<path d="M0.636 0.407 Q0.469 0.526 0.663 0.634" stroke="hsl(180.0,100%,35%)" stroke-width="0.00824"></path>
<path d="M0.636 0.407 Q0.787 0.341 0.691 0.252" stroke="hsl(180.0,100%,35%)" stroke-width="0.00137"></path>
<path d="M0.636 0.407 Q1.226 0.489 1.515 0.218" stroke="hsl(180.0,100%,35%)" stroke-width="0.00137"></path>
<path d="M0.636 0.407 Q0.948 0.742 1.670 0.663" stroke="hsl(180.0,100%,35%)" stroke-width="0.00137"></path>
<path d="M0.636 0.407 Q0.172 0.463 0.180 0.701" stroke="hsl(180.0,100%,35%)" stroke-width="0.00137"></path>
<path d="M0.663 0.634 Q0.884 0.629 0.924 0.521" stroke="hsl(180.0,100%,35%)" stroke-width="0.00137"></path>
<path d="M0.663 0.634 Q0.830 0.515 0.636 0.407" stroke="hsl(180.0,100%,35%)" stroke-width="0.01236"></path>
<path d="M0.663 0.634 Q0.993 0.527 0.857 0.342" stroke="hsl(180.0,100%,35%)" stroke-width="0.00275"></path>
<path d="M0.663 0.634 Q1.058 0.912 1.689 0.781" stroke="hsl(180.0,100%,35%)" stroke-width="0.00137"></path>
<path d="M0.663 0.634 Q1.437 0.711 1.757 0.350" stroke="hsl(180.0,100%,35%)" stroke-width="0.00686"></path>
<path d="M0.663 0.634 Q0.273 0.596 0.115 0.778" stroke="hsl(180.0,100%,35%)" stroke-width="0.00137"></path>
<path d="M0.663 0.634 Q0.982 0.449 0.691 0.252" stroke="hsl(180.0,100%,35%)" stroke-width="0.00412"></path>
<path d="M0.663 0.634 Q1.188 0.945 1.911 0.758" stroke="hsl(180.0,100%,35%)" stroke-width="0.00137"></path>
<path d="M0.663 0.634 Q0.602 0.385 0.104 0.361" stroke="hsl(180.0,100%,35%)" stroke-width="0.00137"></path>
<path d="M0.663 0.634 Q1.214 0.434 0.946 0.121" stroke="hsl(180.0,100%,35%)" stroke-width="0.00137"></path>
<path d="M0.729 0.509 Q0.764 0.439 0.636 0.407" stroke="hsl(180.0,100%,35%)" stroke-width="0.00824"></path>
<path d="M0.729 0.509 Q1.134 0.426 1.061 0.210" stroke="hsl(180.0,100%,35%)" stroke-width="0.00137"></path>
<path d="M0.729 0.509 Q1.370 0.635 1.757 0.350" stroke="hsl(180.0,100%,35%)" stroke-width="0.01098"></path>
<path d="M0.180 0.701 Q0.086 0.727 0.115 0.778" stroke="hsl(180.0,100%,35%)" stroke-width="0.00824"></path>
<path d="M0.180 0.701 Q0.643 0.646 0.636 0.407" stroke="hsl(180.0,100%,35%)" stroke-width="0.00275"></path>
<path d="M0.180 0.701 Q0.476 0.764 0.663 0.634" stroke="hsl(180.0,100%,35%)" stroke-width="0.00137"></path>
<path d="M1.426 0.618 Q1.806 0.550 1.757 0.350" stroke="hsl(0.0,100%,35%)" stroke-width="0.00137"></path>
<path d="M1.426 0.618 Q0.736 0.410 0.180 0.701" stroke="hsl(0.0,100%,35%)" stroke-width="0.00137"></path>
<path d="M1.426 0.618 Q1.512 0.689 1.670 0.663" stroke="hsl(0.0,100%,35%)" stroke-width="0.00137"></path>
<path d="M1.670 0.663 Q1.715 0.759 1.911 0.758" stroke="hsl(0.0,100%,35%)" stroke-width="0.01922"></path>
<path d="M1.670 0.663 Q1.520 0.340 0.857 0.342" stroke="hsl(0.0,100%,35%)" stroke-width="0.00412"></path>
<path d="M1.670 0.663 Q0.800 0.410 0.115 0.778" stroke="hsl(0.0,100%,35%)" stroke-width="0.00137"></path>
<path d="M1.670 0.663 Q1.392 0.604 1.214 0.726" stroke="hsl(0.0,100%,35%)" stroke-width="0.01373"></path>
<path d="M1.670 0.663 Q1.585 0.726 1.689 0.781" stroke="hsl(0.0,100%,35%)" stroke-width="0.00137"></path>
<path d="M1.670 0.663 Q1.779 0.406 1.302 0.296" stroke="hsl(0.0,100%,35%)" stroke-width="0.00275"></path>
<path d="M1.416 0.766 Q1.028 0.472 0.370 0.597" stroke="hsl(0.0,100%,35%)" stroke-width="0.00137"></path>
<path d="M1.416 0.766 Q1.268 0.224 0.177 0.177" stroke="hsl(0.0,100%,35%)" stroke-width="0.00137"></path>
<path d="M1.416 0.766 Q1.670 0.861 1.911 0.758" stroke="hsl(0.0,100%,35%)" stroke-width="0.00137"></path>
<path d="M1.416 0.766 Q1.475 0.442 0.857 0.342" stroke="hsl(0.0,100%,35%)" stroke-width="0.00137"></path>
<path d="M1.911 0.758 Q2.145 0.409 1.515 0.218" stroke="hsl(0.0,100%,35%)" stroke-width="0.00275"></path>
<path d="M1.911 0.758 Q1.846 0.182 0.707 0.087" stroke="hsl(0.0,100%,35%)" stroke-width="0.00686"></path>
<path d="M1.911 0.758 Q1.717 0.339 0.857 0.342" stroke="hsl(0.0,100%,35%)" stroke-width="0.00275"></path>
<path d="M1.911 0.758 Q1.925 0.314 1.061 0.210" stroke="hsl(0.0,100%,35%)" stroke-width="0.00275"></path>
<path d="M1.911 0.758 Q1.782 0.725 1.689 0.781" stroke="hsl(0.0,100%,35%)" stroke-width="0.00137"></path>
<path d="M1.911 0.758 Q1.360 0.600 0.931 0.835" stroke="hsl(0.0,100%,35%)" stroke-width="0.00137"></path>
<path d="M1.911 0.758 Q1.238 0.664 0.906 0.972" stroke="hsl(0.0,100%,35%)" stroke-width="0.00137"></path>
<path d="M0.857 0.342 Q0.694 0.331 0.636 0.407" stroke="hsl(180.0,100%,35%)" stroke-width="0.03158"></path>
<path d="M0.857 0.342 Q1.051 0.761 1.911 0.758" stroke="hsl(180.0,100%,35%)" stroke-width="0.00275"></path>
<path d="M0.857 0.342 Q0.846 0.264 0.691 0.252" stroke="hsl(180.0,100%,35%)" stroke-width="0.01785"></path>
<path d="M0.857 0.342 Q1.116 0.409 1.302 0.296" stroke="hsl(180.0,100%,35%)" stroke-width="0.00275"></path>
<path d="M0.857 0.342 Q0.986 0.185 0.707 0.087" stroke="hsl(180.0,100%,35%)" stroke-width="0.00137"></path>
<path d="M1.061 0.210 Q1.297 0.419 1.757 0.350" stroke="hsl(180.0,100%,35%)" stroke-width="0.00412"></path>
<path d="M1.061 0.210 Q1.178 0.169 1.124 0.103" stroke="hsl(180.0,100%,35%)" stroke-width="0.00412"></path>
<path d="M1.061 0.210 Q1.047 0.654 1.911 0.758" stroke="hsl(180.0,100%,35%)" stroke-width="0.00275"></path>
<path d="M1.061 0.210 Q0.690 0.224 0.636 0.407" stroke="hsl(180.0,100%,35%)" stroke-width="0.00137"></path>
<path d="M1.061 0.210 Q1.074 0.143 0.946 0.121" stroke="hsl(180.0,100%,35%)" stroke-width="0.00137"></path>
<path d="M1.689 0.781 Q1.495 0.658 1.214 0.726" stroke="hsl(0.0,100%,35%)" stroke-width="0.00137"></path>
<path d="M1.689 0.781 Q1.831 0.370 1.061 0.210" stroke="hsl(0.0,100%,35%)" stroke-width="0.00137"></path>
<path d="M1.689 0.781 Q1.818 0.814 1.911 0.758" stroke="hsl(0.0,100%,35%)" stroke-width="0.01236"></path>
<path d="M1.689 0.781 Q2.068 0.579 1.757 0.350" stroke="hsl(0.0,100%,35%)" stroke-width="0.00275"></path>
<path d="M1.689 0.781 Q1.294 0.502 0.663 0.634" stroke="hsl(0.0,100%,35%)" stroke-width="0.00137"></path>
<path d="M1.689 0.781 Q1.753 0.237 0.707 0.087" stroke="hsl(0.0,100%,35%)" stroke-width="0.00549"></path>
<path d="M1.689 0.781 Q1.177 0.425 0.370 0.597" stroke="hsl(0.0,100%,35%)" stroke-width="0.00275"></path>
<path d="M1.689 0.781 Q1.623 0.395 0.857 0.342" stroke="hsl(0.0,100%,35%)" stroke-width="0.00412"></path>
<path d="M1.689 0.781 Q1.613 0.317 0.691 0.252" stroke="hsl(0.0,100%,35%)" stroke-width="0.00137"></path>
<path d="M1.689 0.781 Q1.160 0.491 0.478 0.685" stroke="hsl(0.0,100%,35%)" stroke-width="0.00137"></path>
<path d="M0.707 0.087 Q0.449 0.508 1.214 0.726" stroke="hsl(0.0,100%,35%)" stroke-width="0.00275"></path>
<path d="M0.707 0.087 Q0.130 0.274 0.370 0.597" stroke="hsl(0.0,100%,35%)" stroke-width="0.00137"></path>
<path d="M0.707 0.087 Q0.772 0.663 1.911 0.758" stroke="hsl(0.0,100%,35%)" stroke-width="0.00275"></path>
<path d="M0.707 0.087 Q0.837 0.311 1.302 0.296" stroke="hsl(0.0,100%,35%)" stroke-width="0.00137"></path>
<path d="M0.707 0.087 Q0.577 0.245 0.857 0.342" stroke="hsl(0.0,100%,35%)" stroke-width="0.00137"></path>
<path d="M0.707 0.087 Q0.605 0.043 0.497 0.083" stroke="hsl(0.0,100%,35%)" stroke-width="0.00275"></path>
<path d="M0.707 0.087 Q1.006 0.314 1.515 0.218" stroke="hsl(0.0,100%,35%)" stroke-width="0.00686"></path>
<path d="M0.707 0.087 Q0.785 0.219 1.061 0.210" stroke="hsl(0.0,100%,35%)" stroke-width="0.00137"></path>
<path d="M0.707 0.087 Q0.799 0.152 0.946 0.121" stroke="hsl(0.0,100%,35%)" stroke-width="0.00686"></path>
<path d="M0.707 0.087 Q0.248 0.351 0.663 0.634" stroke="hsl(0.0,100%,35%)" stroke-width="0.00137"></path>
<path d="M0.691 0.252 Q0.702 0.331 0.857 0.342" stroke="hsl(180.0,100%,35%)" stroke-width="0.00961"></path>
<path d="M0.691 0.252 Q0.540 0.319 0.636 0.407" stroke="hsl(180.0,100%,35%)" stroke-width="0.00137"></path>
<path d="M0.691 0.252 Q0.593 0.433 0.924 0.521" stroke="hsl(180.0,100%,35%)" stroke-width="0.00137"></path>
<path d="M0.691 0.252 Q0.372 0.437 0.663 0.634" stroke="hsl(180.0,100%,35%)" stroke-width="0.00137"></path>
<path d="M1.302 0.296 Q1.237 0.649 1.911 0.758" stroke="hsl(0.0,100%,35%)" stroke-width="0.00549"></path>
<path d="M1.302 0.296 Q1.471 0.300 1.515 0.218" stroke="hsl(0.0,100%,35%)" stroke-width="0.00824"></path>
<path d="M1.302 0.296 Q1.487 0.414 1.757 0.350" stroke="hsl(0.0,100%,35%)" stroke-width="0.00275"></path>
<path d="M1.302 0.296 Q0.713 0.337 0.663 0.634" stroke="hsl(0.0,100%,35%)" stroke-width="0.00137"></path>
<path d="M1.302 0.296 Q1.108 0.616 1.689 0.781" stroke="hsl(0.0,100%,35%)" stroke-width="0.00137"></path>
<path d="M1.302 0.296 Q1.192 0.554 1.670 0.663" stroke="hsl(0.0,100%,35%)" stroke-width="0.00137"></path>
<path d="M1.214 0.726 Q1.770 0.532 1.515 0.218" stroke="hsl(0.0,100%,35%)" stroke-width="0.00137"></path>
<path d="M1.214 0.726 Q1.564 0.370 0.946 0.121" stroke="hsl(0.0,100%,35%)" stroke-width="0.00549"></path>
<path d="M1.214 0.726 Q1.283 0.786 1.416 0.766" stroke="hsl(0.0,100%,35%)" stroke-width="0.00137"></path>
<path d="M1.214 0.726 Q1.135 0.244 0.177 0.177" stroke="hsl(0.0,100%,35%)" stroke-width="0.00137"></path>
<path d="M1.214 0.726 Q0.985 0.724 0.931 0.835" stroke="hsl(0.0,100%,35%)" stroke-width="0.00137"></path>
<path d="M1.214 0.726 Q1.601 0.529 1.302 0.296" stroke="hsl(0.0,100%,35%)" stroke-width="0.00137"></path>
<path d="M0.924 0.521 Q0.870 0.406 0.636 0.407" stroke="hsl(180.0,100%,35%)" stroke-width="0.00549"></path>
<path d="M0.924 0.521 Q0.703 0.525 0.663 0.634" stroke="hsl(180.0,100%,35%)" stroke-width="0.00549"></path>
<path d="M0.924 0.521 Q1.477 0.602 1.757 0.350" stroke="hsl(180.0,100%,35%)" stroke-width="0.00275"></path>
<path d="M0.104 0.361 Q0.048 0.532 0.370 0.597" stroke="hsl(180.0,100%,35%)" stroke-width="0.00824"></path>
<path d="M0.104 0.361 Q0.288 0.284 0.177 0.177" stroke="hsl(180.0,100%,35%)" stroke-width="0.00824"></path>
<path d="M0.104 0.361 Q0.899 0.793 1.917 0.500" stroke="hsl(180.0,100%,35%)" stroke-width="0.00137"></path>
<path d="M0.104 0.361 Q0.717 0.409 0.946 0.121" stroke="hsl(180.0,100%,35%)" stroke-width="0.00137"></path>
<path d="M0.104 0.361 Q0.495 0.502 0.857 0.342" stroke="hsl(180.0,100%,35%)" stroke-width="0.00275"></path>
<path d="M0.104 0.361 Q-0.225 0.572 0.115 0.778" stroke="hsl(180.0,100%,35%)" stroke-width="0.00137"></path>
<path d="M0.104 0.361 Q0.333 0.490 0.636 0.407" stroke="hsl(180.0,100%,35%)" stroke-width="0.00137"></path>
<path d="M0.104 0.361 Q0.625 0.344 0.707 0.087" stroke="hsl(180.0,100%,35%)" stroke-width="0.00137"></path>
<path d="M0.104 0.361 Q0.032 0.598 0.478 0.685" stroke="hsl(180.0,100%,35%)" stroke-width="0.00137"></path>
<path d="M0.931 0.835 Q0.721 0.696 0.403 0.768" stroke="hsl(0.0,100%,35%)" stroke-width="0.00137"></path>
<path d="M0.931 0.835 Q1.516 0.759 1.496 0.456" stroke="hsl(0.0,100%,35%)" stroke-width="0.00275"></path>
<path d="M0.931 0.835 Q1.509 0.481 0.946 0.121" stroke="hsl(0.0,100%,35%)" stroke-width="0.00137"></path>
<path d="M0.931 0.835 Q0.809 0.898 0.906 0.972" stroke="hsl(0.0,100%,35%)" stroke-width="0.00275"></path>
<path d="M0.931 0.835 Q0.958 0.681 0.663 0.634" stroke="hsl(0.0,100%,35%)" stroke-width="0.00137"></path>
<path d="M0.931 0.835 Q1.159 0.837 1.214 0.726" stroke="hsl(0.0,100%,35%)" stroke-width="0.00137"></path>
<path d="M0.559 0.781 Q1.253 1.040 1.911 0.758" stroke="hsl(0.0,100%,35%)" stroke-width="0.00275"></path>
<path d="M0.559 0.781 Q0.702 0.882 0.931 0.835" stroke="hsl(0.0,100%,35%)" stroke-width="0.00412"></path>
<path d="M0.559 0.781 Q0.851 0.403 0.177 0.177" stroke="hsl(0.0,100%,35%)" stroke-width="0.00137"></path>
<path d="M0.559 0.781 Q0.729 0.728 0.663 0.634" stroke="hsl(0.0,100%,35%)" stroke-width="0.00137"></path>
<path d="M1.496 0.456 Q1.462 0.690 1.911 0.758" stroke="hsl(0.0,100%,35%)" stroke-width="0.01236"></path>
<path d="M1.496 0.456 Q1.060 0.053 0.177 0.177" stroke="hsl(0.0,100%,35%)" stroke-width="0.00137"></path>
<path d="M1.496 0.456 Q1.267 0.272 0.857 0.342" stroke="hsl(0.0,100%,35%)" stroke-width="0.00824"></path>
<path d="M1.496 0.456 Q0.876 0.130 0.104 0.361" stroke="hsl(0.0,100%,35%)" stroke-width="0.00275"></path>
<path d="M1.496 0.456 Q1.257 0.193 0.691 0.252" stroke="hsl(0.0,100%,35%)" stroke-width="0.00137"></path>
<path d="M0.251 0.442 Q0.334 0.500 0.465 0.472" stroke="hsl(180.0,100%,35%)" stroke-width="0.01510"></path>
<path d="M0.251 0.442 Q0.170 0.609 0.478 0.685" stroke="hsl(180.0,100%,35%)" stroke-width="0.00137"></path>
<path d="M0.251 0.442 Q0.471 0.502 0.636 0.407" stroke="hsl(180.0,100%,35%)" stroke-width="0.00412"></path>
<path d="M0.251 0.442 Q1.062 0.583 1.515 0.218" stroke="hsl(180.0,100%,35%)" stroke-width="0.00275"></path>
<path d="M0.251 0.442 Q0.633 0.513 0.857 0.342" stroke="hsl(180.0,100%,35%)" stroke-width="0.00275"></path>
<path d="M0.251 0.442 Q0.623 0.435 0.691 0.252" stroke="hsl(180.0,100%,35%)" stroke-width="0.00412"></path>
<path d="M0.251 0.442 Q1.078 0.697 1.757 0.350" stroke="hsl(180.0,100%,35%)" stroke-width="0.00137"></path>
<path d="M0.251 0.442 Q0.828 0.932 1.911 0.758" stroke="hsl(180.0,100%,35%)" stroke-width="0.00137"></path>
<path d="M0.478 0.685 Q0.734 0.371 0.177 0.177" stroke="hsl(180.0,100%,35%)" stroke-width="0.00824"></path>
<path d="M0.478 0.685 Q0.494 0.619 0.370 0.597" stroke="hsl(180.0,100%,35%)" stroke-width="0.01785"></path>
<path d="M0.478 0.685 Q1.007 0.975 1.689 0.781" stroke="hsl(180.0,100%,35%)" stroke-width="0.00137"></path>
<path d="M0.723 0.862 Q1.427 0.536 0.946 0.121" stroke="hsl(0.0,100%,35%)" stroke-width="0.00275"></path>
<path d="M0.723 0.862 Q1.634 0.698 1.515 0.218" stroke="hsl(0.0,100%,35%)" stroke-width="0.00137"></path>
<path d="M0.723 0.862 Q1.205 0.629 0.857 0.342" stroke="hsl(0.0,100%,35%)" stroke-width="0.00137"></path>
<path d="M0.723 0.862 Q0.849 0.890 0.931 0.835" stroke="hsl(0.0,100%,35%)" stroke-width="0.00275"></path>
<path d="M0.992 0.446 Q1.136 0.209 0.707 0.087" stroke="hsl(0.0,100%,35%)" stroke-width="0.00275"></path>
<path d="M0.992 0.446 Q0.560 0.397 0.370 0.597" stroke="hsl(0.0,100%,35%)" stroke-width="0.00275"></path>
<path d="M0.992 0.446 Q1.451 0.551 1.757 0.350" stroke="hsl(0.0,100%,35%)" stroke-width="0.00275"></path>
<path d="M0.992 0.446 Q1.007 0.367 0.857 0.342" stroke="hsl(0.0,100%,35%)" stroke-width="0.00137"></path>
<path d="M0.992 0.446 Q0.844 0.355 0.636 0.407" stroke="hsl(0.0,100%,35%)" stroke-width="0.00275"></path>
<path d="M0.992 0.446 Q1.072 0.753 1.689 0.781" stroke="hsl(0.0,100%,35%)" stroke-width="0.00137"></path>
</g>
<text x="0.906" y="0.963" font-size="0.016348" fill="hsl(0.0,100%,20%)">adamk</text>
<text x="0.727" y="0.975" font-size="0.006674" fill="hsl(0.0,100%,20%)">rezvan</text>
<text x="1.142" y="0.902" font-size="0.006674" fill="hsl(0.0,100%,20%)">fgm</text>
<text x="1.757" y="0.321" font-size="0.058944" fill="hsl(180.0,100%,20%)">clemensb</text>
<text x="0.115" y="0.759" font-size="0.039484" fill="hsl(180.0,100%,20%)">ahaas</text>
<text x="0.636" y="0.376" font-size="0.063667" fill="hsl(180.0,100%,20%)">mliedtke</text>
<text x="0.663" y="0.609" font-size="0.048588" fill="hsl(180.0,100%,20%)">jkummerow</text>
<text x="0.729" y="0.493" font-size="0.032696" fill="hsl(180.0,100%,20%)">evih</text>
<text x="1.515" y="0.204" font-size="0.029092" fill="hsl(0.0,100%,20%)">verwaest</text>
<text x="0.946" y="0.107" font-size="0.027518" fill="hsl(0.0,100%,20%)">cbruni</text>
<text x="0.180" y="0.690" font-size="0.023120" fill="hsl(180.0,100%,20%)">thibaudm</text>
<text x="1.426" y="0.612" font-size="0.011560" fill="hsl(0.0,100%,20%)">anton.kirilov</text>
<text x="1.670" y="0.644" font-size="0.038916" fill="hsl(0.0,100%,20%)">victorgomes</text>
<text x="1.416" y="0.758" font-size="0.014924" fill="hsl(0.0,100%,20%)">bikineev</text>
<text x="0.370" y="0.580" font-size="0.033370" fill="hsl(180.0,100%,20%)">mlippautz</text>
<text x="0.177" y="0.162" font-size="0.029847" fill="hsl(180.0,100%,20%)">omerkatz</text>
<text x="1.911" y="0.732" font-size="0.052552" fill="hsl(0.0,100%,20%)">leszeks</text>
<text x="0.857" y="0.312" font-size="0.060067" fill="hsl(180.0,100%,20%)">dmercadier</text>
<text x="1.061" y="0.196" font-size="0.028316" fill="hsl(180.0,100%,20%)">machenbach</text>
<text x="1.689" y="0.762" font-size="0.037754" fill="hsl(0.0,100%,20%)">saelo</text>
<text x="1.917" y="0.494" font-size="0.011560" fill="hsl(180.0,100%,20%)">szuend</text>
<text x="0.707" y="0.067" font-size="0.039484" fill="hsl(0.0,100%,20%)">ishell</text>
<text x="0.691" y="0.233" font-size="0.038916" fill="hsl(180.0,100%,20%)">nicohartmann</text>
<text x="1.302" y="0.281" font-size="0.030585" fill="hsl(0.0,100%,20%)">olivf</text>
<text x="1.214" y="0.710" font-size="0.032008" fill="hsl(0.0,100%,20%)">pthier</text>
<text x="0.497" y="0.079" font-size="0.009439" fill="hsl(0.0,100%,20%)">dinfuehr</text>
<text x="0.924" y="0.506" font-size="0.029092" fill="hsl(180.0,100%,20%)">manoskouk</text>
<text x="0.104" y="0.345" font-size="0.032008" fill="hsl(180.0,100%,20%)">nikolaos</text>
<text x="0.931" y="0.822" font-size="0.025849" fill="hsl(0.0,100%,20%)">syg</text>
<text x="0.559" y="0.772" font-size="0.017658" fill="hsl(0.0,100%,20%)">lpardosixtos</text>
<text x="1.124" y="0.097" font-size="0.011560" fill="hsl(180.0,100%,20%)">liviurau</text>
<text x="1.496" y="0.441" font-size="0.030585" fill="hsl(0.0,100%,20%)">marja</text>
<text x="0.251" y="0.426" font-size="0.032696" fill="hsl(180.0,100%,20%)">mfarazma</text>
<text x="0.465" y="0.461" font-size="0.022135" fill="hsl(180.0,100%,20%)">junyan</text>
<text x="0.478" y="0.669" font-size="0.032008" fill="hsl(180.0,100%,20%)">sroettger</text>
<text x="0.723" y="0.854" font-size="0.016348" fill="hsl(0.0,100%,20%)">seokho</text>
<text x="0.403" y="0.765" font-size="0.006674" fill="hsl(0.0,100%,20%)">gdeepti</text>
<text x="0.992" y="0.435" font-size="0.021105" fill="hsl(0.0,100%,20%)">zhaojiazhong-hf</text>
</svg>
