<svg width="4000" height="2000" viewBox="-0.025 -0.025 2.05 1.05" xmlns="http://www.w3.org/2000/svg">
  <style>
    path {
      fill: none;
      stroke-linecap: round;
      stroke-opacity: 0.4;
    }

    text {
      text-anchor: middle;
      alignment-baseline: hanging;
    }
  </style>
  <g opacity="0.4">
<path d="M0.880 0.155 Q0.354 0.143 0.214 0.396" stroke="hsl(0.0,100%,35%)" stroke-width="0.01813"></path>
<path d="M0.880 0.155 Q0.536 0.181 0.512 0.355" stroke="hsl(0.0,100%,35%)" stroke-width="0.00604"></path>
<path d="M0.880 0.155 Q0.829 0.232 0.970 0.274" stroke="hsl(0.0,100%,35%)" stroke-width="0.00604"></path>
<path d="M0.880 0.155 Q1.011 0.207 1.140 0.154" stroke="hsl(0.0,100%,35%)" stroke-width="0.00604"></path>
<path d="M0.880 0.155 Q1.004 0.330 1.374 0.308" stroke="hsl(0.0,100%,35%)" stroke-width="0.00604"></path>
<path d="M0.214 0.396 Q0.485 0.614 0.969 0.530" stroke="hsl(0.0,100%,35%)" stroke-width="0.01209"></path>
<path d="M0.214 0.396 Q0.740 0.409 0.880 0.155" stroke="hsl(0.0,100%,35%)" stroke-width="0.00604"></path>
<path d="M0.214 0.396 Q0.396 0.435 0.512 0.355" stroke="hsl(0.0,100%,35%)" stroke-width="0.00604"></path>
<path d="M0.512 0.355 Q0.475 0.208 0.180 0.194" stroke="hsl(0.0,100%,35%)" stroke-width="0.01209"></path>
<path d="M0.512 0.355 Q0.330 0.316 0.214 0.396" stroke="hsl(0.0,100%,35%)" stroke-width="0.01209"></path>
<path d="M0.512 0.355 Q0.704 0.595 1.215 0.554" stroke="hsl(0.0,100%,35%)" stroke-width="0.00604"></path>
<path d="M0.512 0.355 Q0.805 0.406 0.970 0.274" stroke="hsl(0.0,100%,35%)" stroke-width="0.01209"></path>
<path d="M0.512 0.355 Q0.685 0.473 0.954 0.415" stroke="hsl(0.0,100%,35%)" stroke-width="0.00604"></path>
<path d="M0.970 0.274 Q1.020 0.197 0.880 0.155" stroke="hsl(0.0,100%,35%)" stroke-width="0.03022"></path>
<path d="M0.970 0.274 Q0.494 0.184 0.214 0.396" stroke="hsl(0.0,100%,35%)" stroke-width="0.00604"></path>
<path d="M0.970 0.274 Q0.676 0.223 0.512 0.355" stroke="hsl(0.0,100%,35%)" stroke-width="0.01209"></path>
<path d="M0.970 0.274 Q0.849 0.341 0.954 0.415" stroke="hsl(0.0,100%,35%)" stroke-width="0.01813"></path>
<path d="M0.970 0.274 Q1.145 0.372 1.374 0.308" stroke="hsl(0.0,100%,35%)" stroke-width="0.00604"></path>
<path d="M1.374 0.308 Q1.230 0.289 1.162 0.355" stroke="hsl(0.0,100%,35%)" stroke-width="0.00604"></path>
<path d="M1.374 0.308 Q1.078 0.278 0.954 0.415" stroke="hsl(0.0,100%,35%)" stroke-width="0.01209"></path>
<path d="M1.374 0.308 Q0.452 0.280 0.195 0.724" stroke="hsl(0.0,100%,35%)" stroke-width="0.00604"></path>
<path d="M1.374 0.308 Q1.199 0.210 0.970 0.274" stroke="hsl(0.0,100%,35%)" stroke-width="0.01209"></path>
<path d="M1.374 0.308 Q1.365 0.366 1.477 0.383" stroke="hsl(0.0,100%,35%)" stroke-width="0.03022"></path>
<path d="M1.374 0.308 Q1.097 0.399 1.215 0.554" stroke="hsl(0.0,100%,35%)" stroke-width="0.01813"></path>
<path d="M0.180 0.194 Q0.035 0.302 0.214 0.396" stroke="hsl(0.0,100%,35%)" stroke-width="0.01813"></path>
<path d="M0.180 0.194 Q0.217 0.341 0.512 0.355" stroke="hsl(0.0,100%,35%)" stroke-width="0.00604"></path>
<path d="M0.195 0.724 Q0.426 0.721 0.471 0.607" stroke="hsl(0.0,100%,35%)" stroke-width="0.01209"></path>
<path d="M0.195 0.724 Q0.974 0.733 1.162 0.355" stroke="hsl(0.0,100%,35%)" stroke-width="0.00604"></path>
<path d="M0.195 0.724 Q0.840 0.843 1.215 0.554" stroke="hsl(0.0,100%,35%)" stroke-width="0.00604"></path>
<path d="M0.195 0.724 Q0.648 0.603 0.512 0.355" stroke="hsl(0.0,100%,35%)" stroke-width="0.00604"></path>
<path d="M1.426 0.780 Q1.527 0.916 1.815 0.896" stroke="hsl(0.0,100%,35%)" stroke-width="0.03022"></path>
<path d="M1.426 0.780 Q1.127 0.346 0.214 0.396" stroke="hsl(0.0,100%,35%)" stroke-width="0.00604"></path>
<path d="M1.426 0.780 Q1.653 0.358 0.880 0.155" stroke="hsl(0.0,100%,35%)" stroke-width="0.00604"></path>
<path d="M1.026 0.677 Q1.026 0.413 0.512 0.355" stroke="hsl(0.0,100%,35%)" stroke-width="0.00604"></path>
<path d="M1.026 0.677 Q1.486 0.620 1.477 0.383" stroke="hsl(0.0,100%,35%)" stroke-width="0.01813"></path>
<path d="M1.026 0.677 Q1.116 0.592 0.969 0.530" stroke="hsl(0.0,100%,35%)" stroke-width="0.01209"></path>
<path d="M1.629 0.605 Q1.558 0.676 1.679 0.726" stroke="hsl(180.0,100%,35%)" stroke-width="0.02417"></path>
<path d="M1.629 0.605 Q1.745 0.282 1.140 0.154" stroke="hsl(180.0,100%,35%)" stroke-width="0.00604"></path>
<path d="M1.629 0.605 Q1.910 0.574 1.912 0.431" stroke="hsl(180.0,100%,35%)" stroke-width="0.00604"></path>
<path d="M1.629 0.605 Q1.271 0.257 0.512 0.355" stroke="hsl(180.0,100%,35%)" stroke-width="0.00604"></path>
</g>
<text x="0.880" y="0.124" font-size="0.061512" fill="hsl(0.0,100%,20%)">ahaas</text>
<text x="0.214" y="0.366" font-size="0.061512" fill="hsl(0.0,100%,20%)">mliedtke</text>
<text x="0.512" y="0.322" font-size="0.065760" fill="hsl(0.0,100%,20%)">jkummerow</text>
<text x="0.970" y="0.240" font-size="0.067783" fill="hsl(0.0,100%,20%)">clemensb</text>
<text x="1.140" y="0.143" font-size="0.023250" fill="hsl(0.0,100%,20%)">thibaudm</text>
<text x="1.374" y="0.275" font-size="0.065760" fill="hsl(0.0,100%,20%)">saelo</text>
<text x="0.954" y="0.395" font-size="0.040269" fill="hsl(0.0,100%,20%)">machenbach</text>
<text x="0.180" y="0.173" font-size="0.040269" fill="hsl(0.0,100%,20%)">manoskouk</text>
<text x="1.215" y="0.536" font-size="0.036761" fill="hsl(0.0,100%,20%)">mlippautz</text>
<text x="0.195" y="0.704" font-size="0.040269" fill="hsl(0.0,100%,20%)">leszeks</text>
<text x="0.471" y="0.596" font-size="0.023250" fill="hsl(0.0,100%,20%)">verwaest</text>
<text x="1.162" y="0.343" font-size="0.023250" fill="hsl(0.0,100%,20%)">pthier</text>
<text x="1.426" y="0.758" font-size="0.043496" fill="hsl(0.0,100%,20%)">mfarazma</text>
<text x="1.815" y="0.878" font-size="0.036761" fill="hsl(0.0,100%,20%)">junyan</text>
<text x="0.969" y="0.513" font-size="0.032880" fill="hsl(0.0,100%,20%)">dmercadier</text>
<text x="1.026" y="0.657" font-size="0.040269" fill="hsl(0.0,100%,20%)">olivf</text>
<text x="1.477" y="0.360" font-size="0.046499" fill="hsl(0.0,100%,20%)">ishell</text>
<text x="1.629" y="0.583" font-size="0.043496" fill="hsl(180.0,100%,20%)">yahan</text>
<text x="1.679" y="0.710" font-size="0.032880" fill="hsl(180.0,100%,20%)">qiuji</text>
<text x="1.912" y="0.423" font-size="0.016440" fill="hsl(180.0,100%,20%)">mseaborn</text>
</svg>
