<svg width="4000" height="2000" viewBox="-0.025 -0.025 2.05 1.05" xmlns="http://www.w3.org/2000/svg">
  <style>
    path {
      fill: none;
      stroke-linecap: round;
      stroke-opacity: 0.4;
    }

    text {
      text-anchor: middle;
      alignment-baseline: hanging;
    }
  </style>
  <g opacity="0.4">
<path d="M0.723 0.220 Q0.903 0.220 0.944 0.132" stroke="hsl(0.0,100%,35%)" stroke-width="0.00311"></path>
<path d="M0.723 0.220 Q0.715 0.314 0.896 0.338" stroke="hsl(0.0,100%,35%)" stroke-width="0.00311"></path>
<path d="M0.723 0.220 Q0.669 0.153 0.528 0.165" stroke="hsl(0.0,100%,35%)" stroke-width="0.00155"></path>
<path d="M0.723 0.220 Q0.286 0.285 0.316 0.512" stroke="hsl(0.0,100%,35%)" stroke-width="0.00155"></path>
<path d="M0.723 0.220 Q0.592 0.573 1.252 0.714" stroke="hsl(0.0,100%,35%)" stroke-width="0.00155"></path>
<path d="M0.723 0.220 Q0.051 0.591 0.627 1.000" stroke="hsl(0.0,100%,35%)" stroke-width="0.00155"></path>
<path d="M0.528 0.165 Q0.762 0.232 0.944 0.132" stroke="hsl(0.0,100%,35%)" stroke-width="0.01088"></path>
<path d="M0.528 0.165 Q-0.161 0.506 0.353 0.917" stroke="hsl(0.0,100%,35%)" stroke-width="0.00466"></path>
<path d="M0.528 0.165 Q0.091 0.596 0.836 0.904" stroke="hsl(0.0,100%,35%)" stroke-width="0.00311"></path>
<path d="M0.528 0.165 Q-0.063 0.441 0.345 0.790" stroke="hsl(0.0,100%,35%)" stroke-width="0.00466"></path>
<path d="M0.528 0.165 Q0.582 0.231 0.723 0.220" stroke="hsl(0.0,100%,35%)" stroke-width="0.00777"></path>
<path d="M0.528 0.165 Q0.999 0.457 1.672 0.291" stroke="hsl(0.0,100%,35%)" stroke-width="0.01088"></path>
<path d="M0.528 0.165 Q0.972 0.263 1.261 0.068" stroke="hsl(0.0,100%,35%)" stroke-width="0.00155"></path>
<path d="M0.528 0.165 Q0.376 0.199 0.409 0.280" stroke="hsl(0.0,100%,35%)" stroke-width="0.00311"></path>
<path d="M0.528 0.165 Q0.925 0.540 1.743 0.429" stroke="hsl(0.0,100%,35%)" stroke-width="0.00311"></path>
<path d="M0.528 0.165 Q0.249 0.380 0.607 0.564" stroke="hsl(0.0,100%,35%)" stroke-width="0.00155"></path>
<path d="M0.528 0.165 Q-0.046 0.311 0.112 0.623" stroke="hsl(0.0,100%,35%)" stroke-width="0.00155"></path>
<path d="M0.316 0.512 Q0.511 0.490 0.510 0.391" stroke="hsl(0.0,100%,35%)" stroke-width="0.00155"></path>
<path d="M0.316 0.512 Q0.480 0.329 0.160 0.209" stroke="hsl(0.0,100%,35%)" stroke-width="0.00155"></path>
<path d="M0.316 0.512 Q0.011 0.722 0.353 0.917" stroke="hsl(0.0,100%,35%)" stroke-width="0.00466"></path>
<path d="M1.252 0.714 Q1.205 0.651 1.073 0.661" stroke="hsl(120.0,100%,35%)" stroke-width="0.01088"></path>
<path d="M1.252 0.714 Q1.801 0.586 1.672 0.291" stroke="hsl(120.0,100%,35%)" stroke-width="0.00311"></path>
<path d="M1.252 0.714 Q1.419 0.672 1.374 0.582" stroke="hsl(120.0,100%,35%)" stroke-width="0.00311"></path>
<path d="M1.252 0.714 Q0.711 0.732 0.627 1.000" stroke="hsl(120.0,100%,35%)" stroke-width="0.00155"></path>
<path d="M0.627 1.000 Q1.169 0.982 1.252 0.714" stroke="hsl(240.0,100%,35%)" stroke-width="0.00311"></path>
<path d="M0.627 1.000 Q0.809 0.994 0.836 0.904" stroke="hsl(240.0,100%,35%)" stroke-width="0.00311"></path>
<path d="M0.627 1.000 Q0.672 0.709 0.112 0.623" stroke="hsl(240.0,100%,35%)" stroke-width="0.00311"></path>
<path d="M0.627 1.000 Q0.729 0.661 0.089 0.537" stroke="hsl(240.0,100%,35%)" stroke-width="0.00311"></path>
<path d="M0.261 0.325 Q0.079 0.467 0.316 0.587" stroke="hsl(240.0,100%,35%)" stroke-width="0.00777"></path>
<path d="M0.261 0.325 Q0.333 0.407 0.510 0.391" stroke="hsl(240.0,100%,35%)" stroke-width="0.00311"></path>
<path d="M0.261 0.325 Q0.967 0.396 1.261 0.068" stroke="hsl(240.0,100%,35%)" stroke-width="0.00155"></path>
<path d="M0.316 0.587 Q0.480 0.634 0.607 0.564" stroke="hsl(240.0,100%,35%)" stroke-width="0.00155"></path>
<path d="M0.316 0.587 Q0.185 0.564 0.112 0.623" stroke="hsl(240.0,100%,35%)" stroke-width="0.00466"></path>
<path d="M0.316 0.587 Q0.570 0.528 0.510 0.391" stroke="hsl(240.0,100%,35%)" stroke-width="0.00155"></path>
<path d="M0.510 0.391 Q0.256 0.450 0.316 0.587" stroke="hsl(240.0,100%,35%)" stroke-width="0.00155"></path>
<path d="M0.510 0.391 Q0.126 0.427 0.112 0.623" stroke="hsl(240.0,100%,35%)" stroke-width="0.00311"></path>
<path d="M0.510 0.391 Q0.081 0.719 0.627 1.000" stroke="hsl(240.0,100%,35%)" stroke-width="0.00155"></path>
<path d="M1.261 0.068 Q1.342 0.129 1.479 0.103" stroke="hsl(240.0,100%,35%)" stroke-width="0.02020"></path>
<path d="M1.261 0.068 Q0.906 0.347 1.374 0.582" stroke="hsl(240.0,100%,35%)" stroke-width="0.00155"></path>
<path d="M1.261 0.068 Q0.242 0.116 0.112 0.623" stroke="hsl(240.0,100%,35%)" stroke-width="0.00622"></path>
<path d="M1.261 0.068 Q1.113 0.087 1.119 0.164" stroke="hsl(240.0,100%,35%)" stroke-width="0.00155"></path>
<path d="M1.261 0.068 Q0.862 0.130 0.896 0.338" stroke="hsl(240.0,100%,35%)" stroke-width="0.00311"></path>
<path d="M1.261 0.068 Q0.537 0.185 0.607 0.564" stroke="hsl(240.0,100%,35%)" stroke-width="0.00155"></path>
<path d="M1.261 0.068 Q1.287 0.262 1.672 0.291" stroke="hsl(240.0,100%,35%)" stroke-width="0.00155"></path>
<path d="M0.112 0.623 Q0.243 0.645 0.316 0.587" stroke="hsl(240.0,100%,35%)" stroke-width="0.01554"></path>
<path d="M0.112 0.623 Q-0.002 0.818 0.353 0.917" stroke="hsl(240.0,100%,35%)" stroke-width="0.00155"></path>
<path d="M0.112 0.623 Q1.158 0.769 1.672 0.291" stroke="hsl(240.0,100%,35%)" stroke-width="0.00311"></path>
<path d="M0.112 0.623 Q0.610 0.896 1.252 0.714" stroke="hsl(240.0,100%,35%)" stroke-width="0.00311"></path>
<path d="M0.112 0.623 Q0.407 0.692 0.607 0.564" stroke="hsl(240.0,100%,35%)" stroke-width="0.00155"></path>
<path d="M0.112 0.623 Q0.634 0.739 0.975 0.510" stroke="hsl(240.0,100%,35%)" stroke-width="0.00155"></path>
<path d="M0.112 0.623 Q0.497 0.586 0.510 0.391" stroke="hsl(240.0,100%,35%)" stroke-width="0.00155"></path>
<path d="M0.112 0.623 Q1.131 0.575 1.261 0.068" stroke="hsl(240.0,100%,35%)" stroke-width="0.00155"></path>
<path d="M0.112 0.623 Q0.303 0.608 0.316 0.512" stroke="hsl(240.0,100%,35%)" stroke-width="0.00466"></path>
<path d="M0.112 0.623 Q0.170 0.575 0.089 0.537" stroke="hsl(240.0,100%,35%)" stroke-width="0.00466"></path>
<path d="M0.112 0.623 Q0.687 0.477 0.528 0.165" stroke="hsl(240.0,100%,35%)" stroke-width="0.00155"></path>
<path d="M0.112 0.623 Q0.562 0.834 1.073 0.661" stroke="hsl(240.0,100%,35%)" stroke-width="0.00155"></path>
<path d="M0.353 0.917 Q0.822 0.524 0.160 0.209" stroke="hsl(0.0,100%,35%)" stroke-width="0.00155"></path>
<path d="M0.353 0.917 Q1.513 0.868 1.672 0.291" stroke="hsl(0.0,100%,35%)" stroke-width="0.00155"></path>
<path d="M0.353 0.917 Q0.598 0.744 0.316 0.587" stroke="hsl(0.0,100%,35%)" stroke-width="0.00155"></path>
<path d="M0.353 0.917 Q0.658 0.707 0.316 0.512" stroke="hsl(0.0,100%,35%)" stroke-width="0.00155"></path>
<path d="M0.836 0.904 Q0.994 0.688 0.607 0.564" stroke="hsl(0.0,100%,35%)" stroke-width="0.00155"></path>
<path d="M0.836 0.904 Q1.744 0.765 1.672 0.291" stroke="hsl(0.0,100%,35%)" stroke-width="0.00155"></path>
<path d="M0.836 0.904 Q1.196 0.892 1.252 0.714" stroke="hsl(0.0,100%,35%)" stroke-width="0.00155"></path>
<path d="M0.836 0.904 Q1.035 0.858 0.988 0.751" stroke="hsl(0.0,100%,35%)" stroke-width="0.00155"></path>
<path d="M0.345 0.790 Q0.500 0.945 0.836 0.904" stroke="hsl(0.0,100%,35%)" stroke-width="0.00155"></path>
<path d="M0.345 0.790 Q0.248 0.855 0.353 0.917" stroke="hsl(0.0,100%,35%)" stroke-width="0.02486"></path>
<path d="M0.345 0.790 Q0.937 0.514 0.528 0.165" stroke="hsl(0.0,100%,35%)" stroke-width="0.00622"></path>
<path d="M0.345 0.790 Q0.363 0.660 0.112 0.623" stroke="hsl(0.0,100%,35%)" stroke-width="0.01088"></path>
<path d="M0.345 0.790 Q0.657 0.729 0.607 0.564" stroke="hsl(0.0,100%,35%)" stroke-width="0.02642"></path>
<path d="M0.345 0.790 Q0.860 0.933 1.252 0.714" stroke="hsl(0.0,100%,35%)" stroke-width="0.00155"></path>
<path d="M0.345 0.790 Q0.498 0.855 0.658 0.795" stroke="hsl(0.0,100%,35%)" stroke-width="0.00311"></path>
<path d="M0.345 0.790 Q0.812 0.871 1.073 0.661" stroke="hsl(0.0,100%,35%)" stroke-width="0.00155"></path>
<path d="M1.672 0.291 Q1.290 0.377 1.374 0.582" stroke="hsl(120.0,100%,35%)" stroke-width="0.00777"></path>
<path d="M1.672 0.291 Q1.201 -0.001 0.528 0.165" stroke="hsl(120.0,100%,35%)" stroke-width="0.00622"></path>
<path d="M1.672 0.291 Q0.610 0.275 0.345 0.790" stroke="hsl(120.0,100%,35%)" stroke-width="0.00155"></path>
<path d="M1.672 0.291 Q1.077 0.356 1.073 0.661" stroke="hsl(120.0,100%,35%)" stroke-width="0.00155"></path>
<path d="M1.672 0.291 Q1.124 0.419 1.252 0.714" stroke="hsl(120.0,100%,35%)" stroke-width="0.00155"></path>
<path d="M1.672 0.291 Q1.246 0.160 0.896 0.338" stroke="hsl(120.0,100%,35%)" stroke-width="0.00155"></path>
<path d="M1.672 0.291 Q1.255 0.066 0.723 0.220" stroke="hsl(120.0,100%,35%)" stroke-width="0.00155"></path>
<path d="M1.672 0.291 Q1.645 0.097 1.261 0.068" stroke="hsl(120.0,100%,35%)" stroke-width="0.00311"></path>
<path d="M1.672 0.291 Q1.148 0.261 0.975 0.510" stroke="hsl(120.0,100%,35%)" stroke-width="0.00155"></path>
<path d="M1.672 0.291 Q0.921 0.215 0.607 0.564" stroke="hsl(120.0,100%,35%)" stroke-width="0.00155"></path>
<path d="M1.743 0.429 Q1.818 0.346 1.672 0.291" stroke="hsl(0.0,100%,35%)" stroke-width="0.01088"></path>
<path d="M1.743 0.429 Q1.581 0.121 0.944 0.132" stroke="hsl(0.0,100%,35%)" stroke-width="0.00155"></path>
<path d="M1.743 0.429 Q1.401 0.120 0.723 0.220" stroke="hsl(0.0,100%,35%)" stroke-width="0.00155"></path>
<path d="M1.743 0.429 Q1.436 0.431 1.374 0.582" stroke="hsl(0.0,100%,35%)" stroke-width="0.00155"></path>
<path d="M0.607 0.564 Q0.878 0.640 1.087 0.525" stroke="hsl(0.0,100%,35%)" stroke-width="0.00311"></path>
<path d="M0.607 0.564 Q1.283 0.724 1.743 0.429" stroke="hsl(0.0,100%,35%)" stroke-width="0.00155"></path>
<path d="M0.607 0.564 Q0.450 0.780 0.836 0.904" stroke="hsl(0.0,100%,35%)" stroke-width="0.00466"></path>
<path d="M0.607 0.564 Q0.503 0.480 0.316 0.512" stroke="hsl(0.0,100%,35%)" stroke-width="0.00155"></path>
<path d="M0.607 0.564 Q0.443 0.517 0.316 0.587" stroke="hsl(0.0,100%,35%)" stroke-width="0.00311"></path>
<path d="M0.607 0.564 Q0.313 0.494 0.112 0.623" stroke="hsl(0.0,100%,35%)" stroke-width="0.00155"></path>
<path d="M1.073 0.661 Q1.668 0.596 1.672 0.291" stroke="hsl(120.0,100%,35%)" stroke-width="0.00622"></path>
<path d="M1.073 0.661 Q1.286 0.681 1.374 0.582" stroke="hsl(120.0,100%,35%)" stroke-width="0.01709"></path>
<path d="M1.073 0.661 Q1.120 0.723 1.252 0.714" stroke="hsl(120.0,100%,35%)" stroke-width="0.02486"></path>
<path d="M1.073 0.661 Q1.594 0.679 1.743 0.429" stroke="hsl(120.0,100%,35%)" stroke-width="0.00155"></path>
<path d="M1.073 0.661 Q0.753 0.472 0.316 0.587" stroke="hsl(120.0,100%,35%)" stroke-width="0.00155"></path>
<path d="M1.073 0.661 Q0.623 0.450 0.112 0.623" stroke="hsl(120.0,100%,35%)" stroke-width="0.00155"></path>
<path d="M1.374 0.582 Q1.756 0.496 1.672 0.291" stroke="hsl(120.0,100%,35%)" stroke-width="0.01088"></path>
<path d="M1.374 0.582 Q1.132 0.238 0.409 0.280" stroke="hsl(120.0,100%,35%)" stroke-width="0.00311"></path>
<path d="M1.374 0.582 Q1.681 0.579 1.743 0.429" stroke="hsl(120.0,100%,35%)" stroke-width="0.01088"></path>
<path d="M1.374 0.582 Q0.710 0.350 0.112 0.623" stroke="hsl(120.0,100%,35%)" stroke-width="0.00155"></path>
<path d="M1.374 0.582 Q1.207 0.624 1.252 0.714" stroke="hsl(120.0,100%,35%)" stroke-width="0.00155"></path>
<path d="M1.374 0.582 Q1.160 0.561 1.073 0.661" stroke="hsl(120.0,100%,35%)" stroke-width="0.00311"></path>
<path d="M1.374 0.582 Q1.284 0.204 0.528 0.165" stroke="hsl(120.0,100%,35%)" stroke-width="0.00311"></path>
<path d="M1.426 0.960 Q1.429 0.905 1.323 0.892" stroke="hsl(0.0,100%,35%)" stroke-width="0.00155"></path>
<path d="M1.426 0.960 Q1.847 0.449 0.944 0.132" stroke="hsl(0.0,100%,35%)" stroke-width="0.00155"></path>
<path d="M1.426 0.960 Q1.524 0.998 1.620 0.958" stroke="hsl(0.0,100%,35%)" stroke-width="0.00155"></path>
<path d="M1.426 0.960 Q2.084 0.675 1.672 0.291" stroke="hsl(0.0,100%,35%)" stroke-width="0.00155"></path>
<path d="M1.426 0.960 Q1.576 0.912 1.517 0.829" stroke="hsl(0.0,100%,35%)" stroke-width="0.00155"></path>
<path d="M0.160 0.209 Q0.155 0.180 0.096 0.176" stroke="hsl(240.0,100%,35%)" stroke-width="0.00466"></path>
<path d="M0.160 0.209 Q-0.195 0.407 0.112 0.623" stroke="hsl(240.0,100%,35%)" stroke-width="0.00466"></path>
<path d="M0.160 0.209 Q-0.310 0.601 0.353 0.917" stroke="hsl(240.0,100%,35%)" stroke-width="0.00155"></path>
<path d="M0.975 0.510 Q0.903 0.605 1.073 0.661" stroke="hsl(120.0,100%,35%)" stroke-width="0.01243"></path>
<path d="M0.975 0.510 Q0.510 0.346 0.089 0.537" stroke="hsl(120.0,100%,35%)" stroke-width="0.00622"></path>
<path d="M0.975 0.510 Q0.583 0.416 0.316 0.587" stroke="hsl(120.0,100%,35%)" stroke-width="0.00466"></path>
<path d="M0.975 0.510 Q0.453 0.394 0.112 0.623" stroke="hsl(120.0,100%,35%)" stroke-width="0.00777"></path>
<path d="M0.975 0.510 Q0.338 0.589 0.353 0.917" stroke="hsl(120.0,100%,35%)" stroke-width="0.00155"></path>
<path d="M0.975 0.510 Q1.498 0.540 1.672 0.291" stroke="hsl(120.0,100%,35%)" stroke-width="0.00155"></path>
<path d="M0.975 0.510 Q1.027 0.248 0.528 0.165" stroke="hsl(120.0,100%,35%)" stroke-width="0.00155"></path>
<path d="M0.089 0.537 Q0.032 0.584 0.112 0.623" stroke="hsl(240.0,100%,35%)" stroke-width="0.02331"></path>
<path d="M0.089 0.537 Q0.014 0.715 0.345 0.790" stroke="hsl(240.0,100%,35%)" stroke-width="0.00155"></path>
<path d="M0.089 0.537 Q0.553 0.700 0.975 0.510" stroke="hsl(240.0,100%,35%)" stroke-width="0.00311"></path>
<path d="M0.089 0.537 Q0.482 0.795 1.073 0.661" stroke="hsl(240.0,100%,35%)" stroke-width="0.00622"></path>
<path d="M0.089 0.537 Q0.416 0.548 0.510 0.391" stroke="hsl(240.0,100%,35%)" stroke-width="0.00155"></path>
<path d="M1.075 0.938 Q1.203 0.883 1.125 0.809" stroke="hsl(120.0,100%,35%)" stroke-width="0.00932"></path>
<path d="M1.075 0.938 Q1.296 0.799 1.073 0.661" stroke="hsl(120.0,100%,35%)" stroke-width="0.00155"></path>
<path d="M1.075 0.938 Q1.343 0.861 1.252 0.714" stroke="hsl(120.0,100%,35%)" stroke-width="0.00777"></path>
<path d="M1.075 0.938 Q1.891 0.734 1.672 0.291" stroke="hsl(120.0,100%,35%)" stroke-width="0.00155"></path>
<path d="M1.075 0.938 Q1.509 0.820 1.374 0.582" stroke="hsl(120.0,100%,35%)" stroke-width="0.00311"></path>
<path d="M1.075 0.938 Q1.140 0.657 0.607 0.564" stroke="hsl(120.0,100%,35%)" stroke-width="0.00311"></path>
<path d="M0.800 0.745 Q1.120 0.693 1.087 0.525" stroke="hsl(0.0,100%,35%)" stroke-width="0.01399"></path>
<path d="M0.800 0.745 Q0.849 0.616 0.607 0.564" stroke="hsl(0.0,100%,35%)" stroke-width="0.01865"></path>
<path d="M0.800 0.745 Q1.051 0.820 1.252 0.714" stroke="hsl(0.0,100%,35%)" stroke-width="0.00466"></path>
<path d="M0.800 0.745 Q1.599 0.693 1.672 0.291" stroke="hsl(0.0,100%,35%)" stroke-width="0.00155"></path>
<path d="M0.800 0.745 Q0.939 0.510 0.510 0.391" stroke="hsl(0.0,100%,35%)" stroke-width="0.00155"></path>
<path d="M0.800 0.745 Q1.182 0.467 0.723 0.220" stroke="hsl(0.0,100%,35%)" stroke-width="0.00155"></path>
<path d="M0.658 0.795 Q0.505 0.730 0.345 0.790" stroke="hsl(0.0,100%,35%)" stroke-width="0.00311"></path>
<path d="M0.658 0.795 Q0.522 0.600 0.112 0.623" stroke="hsl(0.0,100%,35%)" stroke-width="0.00155"></path>
<path d="M0.658 0.795 Q0.659 0.885 0.836 0.904" stroke="hsl(0.0,100%,35%)" stroke-width="0.00311"></path>
<path d="M0.658 0.795 Q0.580 0.552 0.089 0.537" stroke="hsl(0.0,100%,35%)" stroke-width="0.00155"></path>
<path d="M0.658 0.795 Q0.817 0.669 0.607 0.564" stroke="hsl(0.0,100%,35%)" stroke-width="0.00155"></path>
<path d="M1.338 0.420 Q0.947 0.240 0.510 0.391" stroke="hsl(240.0,100%,35%)" stroke-width="0.00155"></path>
<path d="M1.338 0.420 Q0.917 0.079 0.160 0.209" stroke="hsl(240.0,100%,35%)" stroke-width="0.00311"></path>
<path d="M1.338 0.420 Q1.320 0.336 1.153 0.326" stroke="hsl(240.0,100%,35%)" stroke-width="0.00155"></path>
<path d="M0.732 0.102 Q0.062 0.191 0.089 0.537" stroke="hsl(240.0,100%,35%)" stroke-width="0.00155"></path>
<path d="M0.732 0.102 Q0.005 0.238 0.112 0.623" stroke="hsl(240.0,100%,35%)" stroke-width="0.00311"></path>
<path d="M0.732 0.102 Q0.502 0.512 1.252 0.714" stroke="hsl(240.0,100%,35%)" stroke-width="0.00311"></path>
<path d="M0.732 0.102 Q0.579 0.093 0.528 0.165" stroke="hsl(240.0,100%,35%)" stroke-width="0.00466"></path>
<path d="M0.732 0.102 Q0.976 0.468 1.743 0.429" stroke="hsl(240.0,100%,35%)" stroke-width="0.00155"></path>
</g>
<text x="0.723" y="0.206" font-size="0.028040" fill="hsl(0.0,100%,20%)">ahaas</text>
<text x="0.944" y="0.120" font-size="0.023250" fill="hsl(0.0,100%,20%)">thibaudm</text>
<text x="0.896" y="0.331" font-size="0.015675" fill="hsl(0.0,100%,20%)">evih</text>
<text x="0.528" y="0.140" font-size="0.049568" fill="hsl(0.0,100%,20%)">clemensb</text>
<text x="0.316" y="0.501" font-size="0.023250" fill="hsl(0.0,100%,20%)">pthier</text>
<text x="1.252" y="0.690" font-size="0.048058" fill="hsl(120.0,100%,20%)">nicohartmann</text>
<text x="0.627" y="0.989" font-size="0.023250" fill="hsl(240.0,100%,20%)">marja</text>
<text x="0.261" y="0.315" font-size="0.019827" fill="hsl(240.0,100%,20%)">carlscab</text>
<text x="0.316" y="0.568" font-size="0.037093" fill="hsl(240.0,100%,20%)">verwaest</text>
<text x="0.510" y="0.379" font-size="0.024283" fill="hsl(240.0,100%,20%)">cbruni</text>
<text x="1.261" y="0.049" font-size="0.037093" fill="hsl(240.0,100%,20%)">machenbach</text>
<text x="0.112" y="0.592" font-size="0.060708" fill="hsl(240.0,100%,20%)">leszeks</text>
<text x="0.353" y="0.898" font-size="0.037750" fill="hsl(0.0,100%,20%)">ishell</text>
<text x="0.836" y="0.891" font-size="0.026229" fill="hsl(0.0,100%,20%)">dinfuehr</text>
<text x="0.345" y="0.764" font-size="0.052458" fill="hsl(0.0,100%,20%)">saelo</text>
<text x="1.672" y="0.265" font-size="0.051513" fill="hsl(120.0,100%,20%)">jkummerow</text>
<text x="0.409" y="0.273" font-size="0.014020" fill="hsl(0.0,100%,20%)">dlehmann</text>
<text x="1.743" y="0.412" font-size="0.032880" fill="hsl(0.0,100%,20%)">manoskouk</text>
<text x="0.607" y="0.540" font-size="0.048567" fill="hsl(0.0,100%,20%)">mlippautz</text>
<text x="0.988" y="0.747" font-size="0.007010" fill="hsl(0.0,100%,20%)">bikineev</text>
<text x="1.073" y="0.634" font-size="0.053845" fill="hsl(120.0,100%,20%)">dmercadier</text>
<text x="1.374" y="0.559" font-size="0.046499" fill="hsl(120.0,100%,20%)">mliedtke</text>
<text x="1.426" y="0.952" font-size="0.015675" fill="hsl(0.0,100%,20%)">fgm</text>
<text x="1.323" y="0.888" font-size="0.007010" fill="hsl(0.0,100%,20%)">irezvov</text>
<text x="1.620" y="0.955" font-size="0.007010" fill="hsl(120.0,100%,20%)">gdeepti</text>
<text x="1.517" y="0.825" font-size="0.007010" fill="hsl(0.0,100%,20%)">adamk</text>
<text x="0.160" y="0.198" font-size="0.023250" fill="hsl(240.0,100%,20%)">syg</text>
<text x="0.975" y="0.491" font-size="0.036425" fill="hsl(120.0,100%,20%)">olivf</text>
<text x="0.089" y="0.516" font-size="0.040875" fill="hsl(240.0,100%,20%)">victorgomes</text>
<text x="1.479" y="0.090" font-size="0.025275" fill="hsl(240.0,100%,20%)">liviurau</text>
<text x="1.119" y="0.160" font-size="0.007010" fill="hsl(240.0,100%,20%)">hpayer</text>
<text x="1.075" y="0.923" font-size="0.028903" fill="hsl(120.0,100%,20%)">mfarazma</text>
<text x="1.125" y="0.800" font-size="0.017171" fill="hsl(120.0,100%,20%)">junyan</text>
<text x="1.087" y="0.513" font-size="0.023250" fill="hsl(0.0,100%,20%)">omerkatz</text>
<text x="0.800" y="0.727" font-size="0.036425" fill="hsl(0.0,100%,20%)">nikolaos</text>
<text x="0.658" y="0.784" font-size="0.021030" fill="hsl(0.0,100%,20%)">sroettger</text>
<text x="1.338" y="0.413" font-size="0.014020" fill="hsl(240.0,100%,20%)">seokho</text>
<text x="1.153" y="0.323" font-size="0.007010" fill="hsl(240.0,100%,20%)">szuend</text>
<text x="0.096" y="0.170" font-size="0.012142" fill="hsl(240.0,100%,20%)">rezvan</text>
<text x="0.732" y="0.091" font-size="0.021030" fill="hsl(240.0,100%,20%)">zhaojiazhong-hf</text>
</svg>
