<svg width="4000" height="2000" viewBox="-0.025 -0.025 2.05 1.05" xmlns="http://www.w3.org/2000/svg">
  <style>
    path {
      fill: none;
      stroke-linecap: round;
      stroke-opacity: 0.4;
    }

    text {
      text-anchor: middle;
      alignment-baseline: hanging;
    }
  </style>
  <g opacity="0.4">
<path d="M0.606 0.843 Q0.686 0.686 0.398 0.613" stroke="hsl(0.0,100%,35%)" stroke-width="0.00299"></path>
<path d="M0.606 0.843 Q0.836 0.799 0.800 0.677" stroke="hsl(0.0,100%,35%)" stroke-width="0.00299"></path>
<path d="M0.606 0.843 Q0.507 0.691 0.188 0.705" stroke="hsl(0.0,100%,35%)" stroke-width="0.00299"></path>
<path d="M0.606 0.843 Q1.259 0.742 1.206 0.401" stroke="hsl(0.0,100%,35%)" stroke-width="0.00149"></path>
<path d="M0.606 0.843 Q0.954 0.507 0.375 0.263" stroke="hsl(0.0,100%,35%)" stroke-width="0.00149"></path>
<path d="M0.606 0.843 Q1.215 1.109 1.866 0.870" stroke="hsl(0.0,100%,35%)" stroke-width="0.00149"></path>
<path d="M0.188 0.705 Q0.367 0.701 0.398 0.613" stroke="hsl(0.0,100%,35%)" stroke-width="0.01045"></path>
<path d="M0.188 0.705 Q0.494 0.991 1.119 0.905" stroke="hsl(0.0,100%,35%)" stroke-width="0.00448"></path>
<path d="M0.188 0.705 Q1.098 1.039 1.948 0.669" stroke="hsl(0.0,100%,35%)" stroke-width="0.00299"></path>
<path d="M0.188 0.705 Q0.270 0.966 0.796 0.983" stroke="hsl(0.0,100%,35%)" stroke-width="0.00448"></path>
<path d="M0.188 0.705 Q0.287 0.858 0.606 0.843" stroke="hsl(0.0,100%,35%)" stroke-width="0.00746"></path>
<path d="M0.188 0.705 Q1.063 0.682 1.210 0.251" stroke="hsl(0.0,100%,35%)" stroke-width="0.01045"></path>
<path d="M0.188 0.705 Q0.615 0.622 0.546 0.395" stroke="hsl(0.0,100%,35%)" stroke-width="0.00149"></path>
<path d="M0.188 0.705 Q0.367 0.777 0.546 0.705" stroke="hsl(0.0,100%,35%)" stroke-width="0.00299"></path>
<path d="M0.188 0.705 Q1.239 0.623 1.308 0.092" stroke="hsl(0.0,100%,35%)" stroke-width="0.00299"></path>
<path d="M0.188 0.705 Q0.643 0.934 1.188 0.762" stroke="hsl(0.0,100%,35%)" stroke-width="0.00149"></path>
<path d="M0.188 0.705 Q0.007 0.805 0.161 0.915" stroke="hsl(0.0,100%,35%)" stroke-width="0.00149"></path>
<path d="M1.206 0.401 Q1.131 0.458 1.227 0.507" stroke="hsl(120.0,100%,35%)" stroke-width="0.00149"></path>
<path d="M1.206 0.401 Q1.587 0.491 1.845 0.325" stroke="hsl(120.0,100%,35%)" stroke-width="0.00149"></path>
<path d="M1.206 0.401 Q0.759 0.636 1.119 0.905" stroke="hsl(120.0,100%,35%)" stroke-width="0.00448"></path>
<path d="M0.375 0.263 Q0.636 0.255 0.677 0.126" stroke="hsl(0.0,100%,35%)" stroke-width="0.01045"></path>
<path d="M0.375 0.263 Q0.802 0.424 1.210 0.251" stroke="hsl(0.0,100%,35%)" stroke-width="0.00299"></path>
<path d="M0.375 0.263 Q0.505 0.172 0.357 0.089" stroke="hsl(0.0,100%,35%)" stroke-width="0.00597"></path>
<path d="M0.375 0.263 Q0.635 0.865 1.866 0.870" stroke="hsl(0.0,100%,35%)" stroke-width="0.00149"></path>
<path d="M1.866 0.870 Q1.606 0.268 0.375 0.263" stroke="hsl(240.0,100%,35%)" stroke-width="0.00299"></path>
<path d="M1.866 0.870 Q2.068 0.786 1.948 0.669" stroke="hsl(240.0,100%,35%)" stroke-width="0.00299"></path>
<path d="M1.866 0.870 Q0.977 0.551 0.161 0.915" stroke="hsl(240.0,100%,35%)" stroke-width="0.00299"></path>
<path d="M1.866 0.870 Q1.106 0.623 0.458 0.940" stroke="hsl(240.0,100%,35%)" stroke-width="0.00299"></path>
<path d="M0.725 0.635 Q0.416 0.662 0.400 0.818" stroke="hsl(240.0,100%,35%)" stroke-width="0.00746"></path>
<path d="M0.725 0.635 Q1.078 0.672 1.227 0.507" stroke="hsl(240.0,100%,35%)" stroke-width="0.00299"></path>
<path d="M0.725 0.635 Q0.827 0.480 0.546 0.395" stroke="hsl(240.0,100%,35%)" stroke-width="0.00149"></path>
<path d="M0.400 0.818 Q0.839 0.948 1.188 0.762" stroke="hsl(240.0,100%,35%)" stroke-width="0.00149"></path>
<path d="M0.400 0.818 Q0.203 0.818 0.161 0.915" stroke="hsl(240.0,100%,35%)" stroke-width="0.00448"></path>
<path d="M0.400 0.818 Q1.062 0.828 1.227 0.507" stroke="hsl(240.0,100%,35%)" stroke-width="0.00149"></path>
<path d="M1.227 0.507 Q0.565 0.497 0.400 0.818" stroke="hsl(240.0,100%,35%)" stroke-width="0.00149"></path>
<path d="M1.227 0.507 Q0.368 0.498 0.161 0.915" stroke="hsl(240.0,100%,35%)" stroke-width="0.00299"></path>
<path d="M1.227 0.507 Q1.257 0.816 1.866 0.870" stroke="hsl(240.0,100%,35%)" stroke-width="0.00149"></path>
<path d="M0.546 0.395 Q0.707 0.433 0.815 0.363" stroke="hsl(240.0,100%,35%)" stroke-width="0.01940"></path>
<path d="M0.546 0.395 Q0.697 0.204 0.357 0.089" stroke="hsl(240.0,100%,35%)" stroke-width="0.00149"></path>
<path d="M0.546 0.395 Q-0.062 0.578 0.161 0.915" stroke="hsl(240.0,100%,35%)" stroke-width="0.00597"></path>
<path d="M0.546 0.395 Q0.381 0.386 0.328 0.465" stroke="hsl(240.0,100%,35%)" stroke-width="0.00149"></path>
<path d="M0.546 0.395 Q0.448 0.587 0.800 0.677" stroke="hsl(240.0,100%,35%)" stroke-width="0.00299"></path>
<path d="M0.546 0.395 Q0.573 0.707 1.188 0.762" stroke="hsl(240.0,100%,35%)" stroke-width="0.00149"></path>
<path d="M0.546 0.395 Q0.994 0.456 1.210 0.251" stroke="hsl(240.0,100%,35%)" stroke-width="0.00299"></path>
<path d="M0.546 0.395 Q0.119 0.479 0.188 0.705" stroke="hsl(240.0,100%,35%)" stroke-width="0.00149"></path>
<path d="M0.161 0.915 Q0.358 0.914 0.400 0.818" stroke="hsl(240.0,100%,35%)" stroke-width="0.01493"></path>
<path d="M0.161 0.915 Q0.648 1.101 1.119 0.905" stroke="hsl(240.0,100%,35%)" stroke-width="0.00149"></path>
<path d="M0.161 0.915 Q1.217 0.793 1.210 0.251" stroke="hsl(240.0,100%,35%)" stroke-width="0.00299"></path>
<path d="M0.161 0.915 Q0.789 0.632 0.375 0.263" stroke="hsl(240.0,100%,35%)" stroke-width="0.00299"></path>
<path d="M0.161 0.915 Q0.796 1.044 1.188 0.762" stroke="hsl(240.0,100%,35%)" stroke-width="0.00149"></path>
<path d="M0.161 0.915 Q0.973 0.682 0.696 0.234" stroke="hsl(240.0,100%,35%)" stroke-width="0.00149"></path>
<path d="M0.161 0.915 Q1.020 0.924 1.227 0.507" stroke="hsl(240.0,100%,35%)" stroke-width="0.00149"></path>
<path d="M0.161 0.915 Q0.769 0.732 0.546 0.395" stroke="hsl(240.0,100%,35%)" stroke-width="0.00149"></path>
<path d="M0.161 0.915 Q1.094 0.867 1.206 0.401" stroke="hsl(240.0,100%,35%)" stroke-width="0.00448"></path>
<path d="M0.161 0.915 Q0.289 0.987 0.458 0.940" stroke="hsl(240.0,100%,35%)" stroke-width="0.00448"></path>
<path d="M0.161 0.915 Q0.342 0.816 0.188 0.705" stroke="hsl(240.0,100%,35%)" stroke-width="0.00149"></path>
<path d="M0.161 0.915 Q1.050 0.623 0.677 0.126" stroke="hsl(240.0,100%,35%)" stroke-width="0.00149"></path>
<path d="M1.119 0.905 Q1.946 0.760 1.845 0.325" stroke="hsl(120.0,100%,35%)" stroke-width="0.00149"></path>
<path d="M1.119 0.905 Q1.688 0.596 1.210 0.251" stroke="hsl(120.0,100%,35%)" stroke-width="0.00149"></path>
<path d="M1.119 0.905 Q0.829 0.718 0.400 0.818" stroke="hsl(120.0,100%,35%)" stroke-width="0.00149"></path>
<path d="M1.119 0.905 Q1.565 0.670 1.206 0.401" stroke="hsl(120.0,100%,35%)" stroke-width="0.00149"></path>
<path d="M1.948 0.669 Q1.493 0.564 1.188 0.762" stroke="hsl(120.0,100%,35%)" stroke-width="0.00149"></path>
<path d="M1.948 0.669 Q1.914 0.312 1.210 0.251" stroke="hsl(120.0,100%,35%)" stroke-width="0.00149"></path>
<path d="M1.948 0.669 Q1.486 0.151 0.375 0.263" stroke="hsl(120.0,100%,35%)" stroke-width="0.00149"></path>
<path d="M1.948 0.669 Q2.081 0.582 1.941 0.498" stroke="hsl(120.0,100%,35%)" stroke-width="0.00149"></path>
<path d="M0.796 0.983 Q1.623 1.056 1.948 0.669" stroke="hsl(120.0,100%,35%)" stroke-width="0.00149"></path>
<path d="M0.796 0.983 Q1.020 1.008 1.119 0.905" stroke="hsl(120.0,100%,35%)" stroke-width="0.02836"></path>
<path d="M0.796 0.983 Q0.714 0.723 0.188 0.705" stroke="hsl(120.0,100%,35%)" stroke-width="0.00896"></path>
<path d="M0.796 0.983 Q0.533 0.822 0.161 0.915" stroke="hsl(120.0,100%,35%)" stroke-width="0.01194"></path>
<path d="M0.796 0.983 Q1.168 0.951 1.188 0.762" stroke="hsl(120.0,100%,35%)" stroke-width="0.02537"></path>
<path d="M0.796 0.983 Q1.161 0.539 0.375 0.263" stroke="hsl(120.0,100%,35%)" stroke-width="0.00299"></path>
<path d="M0.796 0.983 Q1.205 0.852 1.040 0.624" stroke="hsl(120.0,100%,35%)" stroke-width="0.00299"></path>
<path d="M0.796 0.983 Q1.422 0.530 0.677 0.126" stroke="hsl(120.0,100%,35%)" stroke-width="0.00149"></path>
<path d="M0.796 0.983 Q1.292 0.448 0.357 0.089" stroke="hsl(120.0,100%,35%)" stroke-width="0.00149"></path>
<path d="M1.210 0.251 Q0.913 -0.001 0.357 0.089" stroke="hsl(0.0,100%,35%)" stroke-width="0.00746"></path>
<path d="M1.210 0.251 Q0.335 0.274 0.188 0.705" stroke="hsl(0.0,100%,35%)" stroke-width="0.00746"></path>
<path d="M1.210 0.251 Q0.417 0.534 0.796 0.983" stroke="hsl(0.0,100%,35%)" stroke-width="0.00149"></path>
<path d="M1.210 0.251 Q1.043 0.082 0.677 0.126" stroke="hsl(0.0,100%,35%)" stroke-width="0.00149"></path>
<path d="M1.210 0.251 Q0.783 0.090 0.375 0.263" stroke="hsl(0.0,100%,35%)" stroke-width="0.00149"></path>
<path d="M1.210 0.251 Q0.664 0.382 0.800 0.677" stroke="hsl(0.0,100%,35%)" stroke-width="0.00149"></path>
<path d="M1.210 0.251 Q0.434 0.426 0.606 0.843" stroke="hsl(0.0,100%,35%)" stroke-width="0.00149"></path>
<path d="M1.210 0.251 Q0.762 0.190 0.546 0.395" stroke="hsl(0.0,100%,35%)" stroke-width="0.00299"></path>
<path d="M1.210 0.251 Q0.966 0.140 0.696 0.234" stroke="hsl(0.0,100%,35%)" stroke-width="0.00149"></path>
<path d="M1.210 0.251 Q0.790 0.502 1.188 0.762" stroke="hsl(0.0,100%,35%)" stroke-width="0.00299"></path>
<path d="M1.308 0.092 Q1.132 0.152 1.210 0.251" stroke="hsl(0.0,100%,35%)" stroke-width="0.01045"></path>
<path d="M1.308 0.092 Q0.436 0.170 0.398 0.613" stroke="hsl(0.0,100%,35%)" stroke-width="0.00149"></path>
<path d="M1.308 0.092 Q0.356 0.327 0.606 0.843" stroke="hsl(0.0,100%,35%)" stroke-width="0.00149"></path>
<path d="M1.308 0.092 Q0.835 -0.100 0.357 0.089" stroke="hsl(0.0,100%,35%)" stroke-width="0.00149"></path>
<path d="M1.188 0.762 Q1.077 0.513 0.566 0.512" stroke="hsl(120.0,100%,35%)" stroke-width="0.00299"></path>
<path d="M1.188 0.762 Q1.784 0.451 1.308 0.092" stroke="hsl(120.0,100%,35%)" stroke-width="0.00149"></path>
<path d="M1.188 0.762 Q1.643 0.868 1.948 0.669" stroke="hsl(120.0,100%,35%)" stroke-width="0.00448"></path>
<path d="M1.188 0.762 Q1.486 0.585 1.206 0.401" stroke="hsl(120.0,100%,35%)" stroke-width="0.00149"></path>
<path d="M1.188 0.762 Q0.750 0.633 0.400 0.818" stroke="hsl(120.0,100%,35%)" stroke-width="0.00299"></path>
<path d="M1.188 0.762 Q0.553 0.633 0.161 0.915" stroke="hsl(120.0,100%,35%)" stroke-width="0.00149"></path>
<path d="M0.677 0.126 Q0.843 0.295 1.210 0.251" stroke="hsl(0.0,100%,35%)" stroke-width="0.00597"></path>
<path d="M0.677 0.126 Q0.547 0.043 0.357 0.089" stroke="hsl(0.0,100%,35%)" stroke-width="0.01642"></path>
<path d="M0.677 0.126 Q0.416 0.134 0.375 0.263" stroke="hsl(0.0,100%,35%)" stroke-width="0.02388"></path>
<path d="M0.677 0.126 Q1.019 0.235 1.308 0.092" stroke="hsl(0.0,100%,35%)" stroke-width="0.00149"></path>
<path d="M0.677 0.126 Q-0.015 0.417 0.400 0.818" stroke="hsl(0.0,100%,35%)" stroke-width="0.00149"></path>
<path d="M0.677 0.126 Q-0.213 0.417 0.161 0.915" stroke="hsl(0.0,100%,35%)" stroke-width="0.00149"></path>
<path d="M0.357 0.089 Q0.654 0.340 1.210 0.251" stroke="hsl(0.0,100%,35%)" stroke-width="0.01045"></path>
<path d="M0.357 0.089 Q-0.042 0.435 0.546 0.705" stroke="hsl(0.0,100%,35%)" stroke-width="0.00299"></path>
<path d="M0.357 0.089 Q0.830 0.280 1.308 0.092" stroke="hsl(0.0,100%,35%)" stroke-width="0.01045"></path>
<path d="M0.357 0.089 Q-0.402 0.462 0.161 0.915" stroke="hsl(0.0,100%,35%)" stroke-width="0.00149"></path>
<path d="M0.357 0.089 Q0.227 0.179 0.375 0.263" stroke="hsl(0.0,100%,35%)" stroke-width="0.00149"></path>
<path d="M0.357 0.089 Q0.487 0.171 0.677 0.126" stroke="hsl(0.0,100%,35%)" stroke-width="0.00299"></path>
<path d="M0.357 0.089 Q-0.221 0.363 0.188 0.705" stroke="hsl(0.0,100%,35%)" stroke-width="0.00299"></path>
<path d="M1.552 0.882 Q1.648 0.836 1.579 0.780" stroke="hsl(120.0,100%,35%)" stroke-width="0.00149"></path>
<path d="M1.552 0.882 Q1.191 0.517 0.398 0.613" stroke="hsl(120.0,100%,35%)" stroke-width="0.00149"></path>
<path d="M1.552 0.882 Q1.430 0.894 1.425 0.956" stroke="hsl(120.0,100%,35%)" stroke-width="0.00149"></path>
<path d="M1.552 0.882 Q1.886 0.498 1.210 0.251" stroke="hsl(120.0,100%,35%)" stroke-width="0.00149"></path>
<path d="M1.552 0.882 Q1.754 0.864 1.763 0.762" stroke="hsl(120.0,100%,35%)" stroke-width="0.00149"></path>
<path d="M1.845 0.325 Q1.962 0.244 1.829 0.169" stroke="hsl(120.0,100%,35%)" stroke-width="0.00448"></path>
<path d="M1.845 0.325 Q0.531 0.283 0.161 0.915" stroke="hsl(120.0,100%,35%)" stroke-width="0.00448"></path>
<path d="M1.845 0.325 Q1.018 0.470 1.119 0.905" stroke="hsl(120.0,100%,35%)" stroke-width="0.00149"></path>
<path d="M0.696 0.234 Q0.773 0.176 0.677 0.126" stroke="hsl(240.0,100%,35%)" stroke-width="0.01194"></path>
<path d="M0.696 0.234 Q0.013 0.540 0.458 0.940" stroke="hsl(240.0,100%,35%)" stroke-width="0.00597"></path>
<path d="M0.696 0.234 Q0.081 0.467 0.400 0.818" stroke="hsl(240.0,100%,35%)" stroke-width="0.00448"></path>
<path d="M0.696 0.234 Q-0.116 0.468 0.161 0.915" stroke="hsl(240.0,100%,35%)" stroke-width="0.00746"></path>
<path d="M0.696 0.234 Q0.371 0.654 1.119 0.905" stroke="hsl(240.0,100%,35%)" stroke-width="0.00149"></path>
<path d="M0.696 0.234 Q0.940 0.345 1.210 0.251" stroke="hsl(240.0,100%,35%)" stroke-width="0.00149"></path>
<path d="M0.696 0.234 Q0.065 0.368 0.188 0.705" stroke="hsl(240.0,100%,35%)" stroke-width="0.00149"></path>
<path d="M0.458 0.940 Q0.329 0.868 0.161 0.915" stroke="hsl(240.0,100%,35%)" stroke-width="0.02239"></path>
<path d="M0.458 0.940 Q0.593 1.029 0.796 0.983" stroke="hsl(240.0,100%,35%)" stroke-width="0.00149"></path>
<path d="M0.458 0.940 Q1.141 0.635 0.696 0.234" stroke="hsl(240.0,100%,35%)" stroke-width="0.00448"></path>
<path d="M0.458 0.940 Q1.219 0.577 0.677 0.126" stroke="hsl(240.0,100%,35%)" stroke-width="0.00597"></path>
<path d="M0.458 0.940 Q1.188 0.877 1.227 0.507" stroke="hsl(240.0,100%,35%)" stroke-width="0.00149"></path>
<path d="M1.597 0.654 Q1.740 0.600 1.667 0.519" stroke="hsl(0.0,100%,35%)" stroke-width="0.00896"></path>
<path d="M1.597 0.654 Q1.559 0.206 0.677 0.126" stroke="hsl(0.0,100%,35%)" stroke-width="0.00149"></path>
<path d="M1.597 0.654 Q1.298 0.214 0.375 0.263" stroke="hsl(0.0,100%,35%)" stroke-width="0.00896"></path>
<path d="M1.597 0.654 Q1.726 0.375 1.210 0.251" stroke="hsl(0.0,100%,35%)" stroke-width="0.00149"></path>
<path d="M1.597 0.654 Q1.429 0.123 0.357 0.089" stroke="hsl(0.0,100%,35%)" stroke-width="0.00299"></path>
<path d="M1.597 0.654 Q1.305 0.626 1.188 0.762" stroke="hsl(0.0,100%,35%)" stroke-width="0.00299"></path>
<path d="M0.818 0.531 Q0.707 0.471 0.566 0.512" stroke="hsl(120.0,100%,35%)" stroke-width="0.01343"></path>
<path d="M0.818 0.531 Q0.818 0.721 1.188 0.762" stroke="hsl(120.0,100%,35%)" stroke-width="0.01791"></path>
<path d="M0.818 0.531 Q0.811 0.308 0.375 0.263" stroke="hsl(120.0,100%,35%)" stroke-width="0.00448"></path>
<path d="M0.818 0.531 Q1.239 0.469 1.210 0.251" stroke="hsl(120.0,100%,35%)" stroke-width="0.00149"></path>
<path d="M0.818 0.531 Q1.042 0.601 1.227 0.507" stroke="hsl(120.0,100%,35%)" stroke-width="0.00149"></path>
<path d="M0.818 0.531 Q0.463 0.645 0.606 0.843" stroke="hsl(120.0,100%,35%)" stroke-width="0.00149"></path>
<path d="M1.579 0.376 Q1.753 0.404 1.845 0.325" stroke="hsl(120.0,100%,35%)" stroke-width="0.00448"></path>
<path d="M1.579 0.376 Q0.926 0.548 1.119 0.905" stroke="hsl(120.0,100%,35%)" stroke-width="0.00149"></path>
<path d="M1.579 0.376 Q1.298 0.371 1.227 0.507" stroke="hsl(120.0,100%,35%)" stroke-width="0.00149"></path>
<path d="M1.040 0.624 Q0.631 0.754 0.796 0.983" stroke="hsl(240.0,100%,35%)" stroke-width="0.00299"></path>
<path d="M1.040 0.624 Q0.367 0.593 0.161 0.915" stroke="hsl(240.0,100%,35%)" stroke-width="0.00149"></path>
<path d="M1.040 0.624 Q1.458 0.828 1.948 0.669" stroke="hsl(240.0,100%,35%)" stroke-width="0.00299"></path>
<path d="M1.040 0.624 Q0.496 0.665 0.458 0.940" stroke="hsl(240.0,100%,35%)" stroke-width="0.00149"></path>
<path d="M1.040 0.624 Q1.003 0.723 1.188 0.762" stroke="hsl(240.0,100%,35%)" stroke-width="0.00149"></path>
<path d="M1.650 0.245 Q1.228 0.291 1.227 0.507" stroke="hsl(120.0,100%,35%)" stroke-width="0.00149"></path>
<path d="M1.650 0.245 Q1.684 0.324 1.845 0.325" stroke="hsl(120.0,100%,35%)" stroke-width="0.00299"></path>
<path d="M1.650 0.245 Q1.562 0.218 1.490 0.254" stroke="hsl(120.0,100%,35%)" stroke-width="0.00149"></path>
<path d="M0.284 0.640 Q0.131 0.825 0.458 0.940" stroke="hsl(0.0,100%,35%)" stroke-width="0.00149"></path>
<path d="M0.284 0.640 Q0.002 0.753 0.161 0.915" stroke="hsl(0.0,100%,35%)" stroke-width="0.00299"></path>
<path d="M0.284 0.640 Q0.631 0.470 0.375 0.263" stroke="hsl(0.0,100%,35%)" stroke-width="0.00299"></path>
<path d="M0.284 0.640 Q0.184 0.654 0.188 0.705" stroke="hsl(0.0,100%,35%)" stroke-width="0.00448"></path>
<path d="M0.284 0.640 Q1.234 0.571 1.308 0.092" stroke="hsl(0.0,100%,35%)" stroke-width="0.00149"></path>
</g>
<text x="0.606" y="0.829" font-size="0.028152" fill="hsl(0.0,100%,20%)">ahaas</text>
<text x="0.398" y="0.601" font-size="0.022646" fill="hsl(0.0,100%,20%)">thibaudm</text>
<text x="0.800" y="0.669" font-size="0.015268" fill="hsl(0.0,100%,20%)">evih</text>
<text x="0.188" y="0.680" font-size="0.050637" fill="hsl(0.0,100%,20%)">clemensb</text>
<text x="1.206" y="0.390" font-size="0.022646" fill="hsl(120.0,100%,20%)">pthier</text>
<text x="0.375" y="0.239" font-size="0.048761" fill="hsl(0.0,100%,20%)">nicohartmann</text>
<text x="1.866" y="0.858" font-size="0.022646" fill="hsl(240.0,100%,20%)">marja</text>
<text x="0.725" y="0.626" font-size="0.019312" fill="hsl(240.0,100%,20%)">carlscab</text>
<text x="0.400" y="0.800" font-size="0.036130" fill="hsl(240.0,100%,20%)">verwaest</text>
<text x="1.227" y="0.495" font-size="0.024618" fill="hsl(240.0,100%,20%)">cbruni</text>
<text x="0.546" y="0.377" font-size="0.037398" fill="hsl(240.0,100%,20%)">machenbach</text>
<text x="0.161" y="0.885" font-size="0.059524" fill="hsl(240.0,100%,20%)">leszeks</text>
<text x="1.119" y="0.885" font-size="0.039223" fill="hsl(120.0,100%,20%)">ishell</text>
<text x="1.948" y="0.656" font-size="0.025548" fill="hsl(120.0,100%,20%)">dinfuehr</text>
<text x="0.796" y="0.955" font-size="0.054623" fill="hsl(120.0,100%,20%)">saelo</text>
<text x="1.210" y="0.225" font-size="0.051549" fill="hsl(0.0,100%,20%)">jkummerow</text>
<text x="0.546" y="0.698" font-size="0.013656" fill="hsl(0.0,100%,20%)">dlehmann</text>
<text x="1.308" y="0.076" font-size="0.032026" fill="hsl(0.0,100%,20%)">manoskouk</text>
<text x="1.188" y="0.739" font-size="0.047795" fill="hsl(120.0,100%,20%)">mlippautz</text>
<text x="1.941" y="0.495" font-size="0.006828" fill="hsl(120.0,100%,20%)">bikineev</text>
<text x="0.677" y="0.099" font-size="0.052446" fill="hsl(0.0,100%,20%)">dmercadier</text>
<text x="0.357" y="0.065" font-size="0.046810" fill="hsl(0.0,100%,20%)">mliedtke</text>
<text x="1.552" y="0.875" font-size="0.015268" fill="hsl(120.0,100%,20%)">fgm</text>
<text x="1.579" y="0.776" font-size="0.006828" fill="hsl(120.0,100%,20%)">irezvov</text>
<text x="1.425" y="0.952" font-size="0.006828" fill="hsl(120.0,100%,20%)">gdeepti</text>
<text x="1.763" y="0.758" font-size="0.006828" fill="hsl(120.0,100%,20%)">adamk</text>
<text x="1.845" y="0.312" font-size="0.025548" fill="hsl(120.0,100%,20%)">syg</text>
<text x="0.696" y="0.216" font-size="0.036130" fill="hsl(240.0,100%,20%)">olivf</text>
<text x="0.458" y="0.920" font-size="0.040394" fill="hsl(240.0,100%,20%)">victorgomes</text>
<text x="0.815" y="0.350" font-size="0.024618" fill="hsl(240.0,100%,20%)">liviurau</text>
<text x="0.328" y="0.461" font-size="0.006828" fill="hsl(240.0,100%,20%)">hpayer</text>
<text x="1.597" y="0.639" font-size="0.028968" fill="hsl(0.0,100%,20%)">mfarazma</text>
<text x="1.667" y="0.510" font-size="0.016725" fill="hsl(0.0,100%,20%)">junyan</text>
<text x="0.566" y="0.501" font-size="0.022646" fill="hsl(120.0,100%,20%)">omerkatz</text>
<text x="0.818" y="0.514" font-size="0.035479" fill="hsl(120.0,100%,20%)">nikolaos</text>
<text x="1.579" y="0.368" font-size="0.015268" fill="hsl(120.0,100%,20%)">nribaudo</text>
<text x="1.040" y="0.613" font-size="0.020484" fill="hsl(240.0,100%,20%)">sroettger</text>
<text x="1.650" y="0.238" font-size="0.013656" fill="hsl(120.0,100%,20%)">seokho</text>
<text x="1.490" y="0.251" font-size="0.006828" fill="hsl(120.0,100%,20%)">szuend</text>
<text x="1.829" y="0.163" font-size="0.011826" fill="hsl(120.0,100%,20%)">rezvan</text>
<text x="0.284" y="0.630" font-size="0.020484" fill="hsl(0.0,100%,20%)">zhaojiazhong-hf</text>
</svg>
