<svg width="4000" height="2000" viewBox="-0.025 -0.025 2.05 1.05" xmlns="http://www.w3.org/2000/svg">
  <style>
    path {
      fill: none;
      stroke-linecap: round;
      stroke-opacity: 0.4;
    }

    text {
      text-anchor: middle;
      alignment-baseline: hanging;
    }
  </style>
  <g opacity="0.4">
<path d="M0.362 0.645 Q0.268 0.589 0.139 0.623" stroke="hsl(0.0,100%,35%)" stroke-width="0.00137"></path>
<path d="M0.362 0.645 Q0.414 0.674 0.483 0.655" stroke="hsl(0.0,100%,35%)" stroke-width="0.00137"></path>
<path d="M0.362 0.645 Q0.692 0.669 0.812 0.513" stroke="hsl(0.0,100%,35%)" stroke-width="0.00137"></path>
<path d="M0.362 0.645 Q0.850 0.698 1.062 0.472" stroke="hsl(0.0,100%,35%)" stroke-width="0.00137"></path>
<path d="M0.812 0.513 Q0.880 0.764 1.386 0.787" stroke="hsl(180.0,100%,35%)" stroke-width="0.00546"></path>
<path d="M0.812 0.513 Q0.804 0.653 1.077 0.688" stroke="hsl(180.0,100%,35%)" stroke-width="0.00546"></path>
<path d="M0.812 0.513 Q0.714 0.444 0.559 0.477" stroke="hsl(180.0,100%,35%)" stroke-width="0.00273"></path>
<path d="M0.812 0.513 Q0.970 0.542 1.062 0.472" stroke="hsl(180.0,100%,35%)" stroke-width="0.01639"></path>
<path d="M0.812 0.513 Q1.161 0.344 0.909 0.137" stroke="hsl(180.0,100%,35%)" stroke-width="0.00137"></path>
<path d="M0.812 0.513 Q0.287 0.679 0.497 0.971" stroke="hsl(180.0,100%,35%)" stroke-width="0.00546"></path>
<path d="M0.812 0.513 Q1.340 0.356 1.150 0.064" stroke="hsl(180.0,100%,35%)" stroke-width="0.00137"></path>
<path d="M0.812 0.513 Q0.985 0.448 0.897 0.350" stroke="hsl(180.0,100%,35%)" stroke-width="0.00546"></path>
<path d="M0.812 0.513 Q0.645 0.538 0.658 0.625" stroke="hsl(180.0,100%,35%)" stroke-width="0.00273"></path>
<path d="M0.812 0.513 Q0.766 0.260 0.263 0.226" stroke="hsl(180.0,100%,35%)" stroke-width="0.00410"></path>
<path d="M0.812 0.513 Q0.388 0.566 0.400 0.785" stroke="hsl(180.0,100%,35%)" stroke-width="0.00273"></path>
<path d="M0.812 0.513 Q1.234 0.520 1.340 0.315" stroke="hsl(180.0,100%,35%)" stroke-width="0.00137"></path>
<path d="M1.062 0.472 Q0.806 0.374 0.559 0.477" stroke="hsl(180.0,100%,35%)" stroke-width="0.00410"></path>
<path d="M1.062 0.472 Q0.896 0.583 1.077 0.688" stroke="hsl(180.0,100%,35%)" stroke-width="0.00273"></path>
<path d="M1.062 0.472 Q0.972 0.694 1.386 0.787" stroke="hsl(180.0,100%,35%)" stroke-width="0.00273"></path>
<path d="M1.062 0.472 Q0.839 0.263 0.383 0.326" stroke="hsl(180.0,100%,35%)" stroke-width="0.00273"></path>
<path d="M1.062 0.472 Q1.250 0.526 1.396 0.446" stroke="hsl(180.0,100%,35%)" stroke-width="0.00137"></path>
<path d="M1.062 0.472 Q0.904 0.442 0.812 0.513" stroke="hsl(180.0,100%,35%)" stroke-width="0.00137"></path>
<path d="M0.559 0.477 Q0.649 0.686 1.077 0.688" stroke="hsl(180.0,100%,35%)" stroke-width="0.01366"></path>
<path d="M0.559 0.477 Q0.656 0.545 0.812 0.513" stroke="hsl(180.0,100%,35%)" stroke-width="0.01503"></path>
<path d="M1.077 0.688 Q0.994 0.593 0.791 0.612" stroke="hsl(180.0,100%,35%)" stroke-width="0.00956"></path>
<path d="M1.077 0.688 Q0.560 0.714 0.497 0.971" stroke="hsl(180.0,100%,35%)" stroke-width="0.00820"></path>
<path d="M1.077 0.688 Q0.987 0.479 0.559 0.477" stroke="hsl(180.0,100%,35%)" stroke-width="0.00683"></path>
<path d="M1.077 0.688 Q1.084 0.547 0.812 0.513" stroke="hsl(180.0,100%,35%)" stroke-width="0.00546"></path>
<path d="M1.077 0.688 Q1.153 0.799 1.386 0.787" stroke="hsl(180.0,100%,35%)" stroke-width="0.00820"></path>
<path d="M1.077 0.688 Q0.661 0.601 0.400 0.785" stroke="hsl(180.0,100%,35%)" stroke-width="0.00137"></path>
<path d="M1.077 0.688 Q1.631 0.745 1.863 0.486" stroke="hsl(180.0,100%,35%)" stroke-width="0.00137"></path>
<path d="M1.077 0.688 Q1.356 0.314 0.688 0.096" stroke="hsl(180.0,100%,35%)" stroke-width="0.00137"></path>
<path d="M1.077 0.688 Q1.430 0.631 1.396 0.446" stroke="hsl(180.0,100%,35%)" stroke-width="0.00137"></path>
<path d="M1.077 0.688 Q1.243 0.577 1.062 0.472" stroke="hsl(180.0,100%,35%)" stroke-width="0.00137"></path>
<path d="M1.386 0.787 Q0.793 0.701 0.497 0.971" stroke="hsl(180.0,100%,35%)" stroke-width="0.00273"></path>
<path d="M1.386 0.787 Q1.846 0.378 1.150 0.064" stroke="hsl(180.0,100%,35%)" stroke-width="0.00137"></path>
<path d="M1.386 0.787 Q1.310 0.676 1.077 0.688" stroke="hsl(180.0,100%,35%)" stroke-width="0.01093"></path>
<path d="M1.386 0.787 Q1.318 0.535 0.812 0.513" stroke="hsl(180.0,100%,35%)" stroke-width="0.00683"></path>
<path d="M1.386 0.787 Q1.476 0.564 1.062 0.472" stroke="hsl(180.0,100%,35%)" stroke-width="0.00137"></path>
<path d="M1.386 0.787 Q0.894 0.588 0.400 0.785" stroke="hsl(180.0,100%,35%)" stroke-width="0.00410"></path>
<path d="M1.386 0.787 Q1.667 0.366 0.909 0.137" stroke="hsl(180.0,100%,35%)" stroke-width="0.00137"></path>
<path d="M1.386 0.787 Q1.535 0.420 0.854 0.267" stroke="hsl(180.0,100%,35%)" stroke-width="0.00137"></path>
<path d="M1.386 0.787 Q1.253 0.356 0.383 0.326" stroke="hsl(180.0,100%,35%)" stroke-width="0.00137"></path>
<path d="M1.396 0.446 Q1.209 0.392 1.062 0.472" stroke="hsl(180.0,100%,35%)" stroke-width="0.01093"></path>
<path d="M1.396 0.446 Q1.043 0.503 1.077 0.688" stroke="hsl(180.0,100%,35%)" stroke-width="0.00273"></path>
<path d="M1.396 0.446 Q1.119 0.614 1.386 0.787" stroke="hsl(180.0,100%,35%)" stroke-width="0.00137"></path>
<path d="M0.691 0.369 Q0.636 0.465 0.812 0.513" stroke="hsl(0.0,100%,35%)" stroke-width="0.00137"></path>
<path d="M0.691 0.369 Q0.982 0.549 1.396 0.446" stroke="hsl(0.0,100%,35%)" stroke-width="0.00137"></path>
<path d="M0.691 0.369 Q0.908 0.232 0.688 0.096" stroke="hsl(0.0,100%,35%)" stroke-width="0.00137"></path>
<path d="M0.688 0.096 Q0.766 0.161 0.909 0.137" stroke="hsl(0.0,100%,35%)" stroke-width="0.02186"></path>
<path d="M0.688 0.096 Q-0.108 0.495 0.497 0.971" stroke="hsl(0.0,100%,35%)" stroke-width="0.00410"></path>
<path d="M0.688 0.096 Q0.575 0.359 1.062 0.472" stroke="hsl(0.0,100%,35%)" stroke-width="0.00137"></path>
<path d="M0.688 0.096 Q0.545 0.129 0.578 0.206" stroke="hsl(0.0,100%,35%)" stroke-width="0.01639"></path>
<path d="M0.688 0.096 Q0.945 0.172 1.150 0.064" stroke="hsl(0.0,100%,35%)" stroke-width="0.00137"></path>
<path d="M0.688 0.096 Q1.128 0.387 1.792 0.236" stroke="hsl(0.0,100%,35%)" stroke-width="0.00273"></path>
<path d="M1.094 0.910 Q1.171 0.937 1.240 0.906" stroke="hsl(180.0,100%,35%)" stroke-width="0.00137"></path>
<path d="M1.094 0.910 Q1.444 0.591 0.897 0.350" stroke="hsl(180.0,100%,35%)" stroke-width="0.00137"></path>
<path d="M1.094 0.910 Q1.620 0.486 0.909 0.137" stroke="hsl(180.0,100%,35%)" stroke-width="0.00137"></path>
<path d="M1.094 0.910 Q0.746 0.821 0.497 0.971" stroke="hsl(180.0,100%,35%)" stroke-width="0.00137"></path>
<path d="M1.240 0.906 Q1.887 0.821 1.863 0.486" stroke="hsl(180.0,100%,35%)" stroke-width="0.00273"></path>
<path d="M1.240 0.906 Q1.869 0.467 1.150 0.064" stroke="hsl(180.0,100%,35%)" stroke-width="0.00546"></path>
<path d="M1.240 0.906 Q1.164 0.879 1.094 0.910" stroke="hsl(180.0,100%,35%)" stroke-width="0.00410"></path>
<path d="M0.909 0.137 Q0.514 0.052 0.263 0.226" stroke="hsl(0.0,100%,35%)" stroke-width="0.00546"></path>
<path d="M0.909 0.137 Q0.035 0.472 0.497 0.971" stroke="hsl(0.0,100%,35%)" stroke-width="0.00137"></path>
<path d="M0.909 0.137 Q1.106 0.503 1.863 0.486" stroke="hsl(0.0,100%,35%)" stroke-width="0.00137"></path>
<path d="M0.909 0.137 Q0.027 0.284 0.121 0.747" stroke="hsl(0.0,100%,35%)" stroke-width="0.00137"></path>
<path d="M0.909 0.137 Q0.229 0.281 0.362 0.645" stroke="hsl(0.0,100%,35%)" stroke-width="0.00137"></path>
<path d="M0.909 0.137 Q0.981 0.312 1.340 0.315" stroke="hsl(0.0,100%,35%)" stroke-width="0.00137"></path>
<path d="M0.497 0.971 Q1.013 0.946 1.077 0.688" stroke="hsl(0.0,100%,35%)" stroke-width="0.02869"></path>
<path d="M0.497 0.971 Q1.370 0.636 0.909 0.137" stroke="hsl(0.0,100%,35%)" stroke-width="0.00273"></path>
<path d="M0.497 0.971 Q0.598 0.859 0.400 0.785" stroke="hsl(0.0,100%,35%)" stroke-width="0.02595"></path>
<path d="M0.497 0.971 Q1.732 0.863 1.792 0.236" stroke="hsl(0.0,100%,35%)" stroke-width="0.00273"></path>
<path d="M0.497 0.971 Q0.976 0.552 0.263 0.226" stroke="hsl(0.0,100%,35%)" stroke-width="0.00137"></path>
<path d="M1.150 0.064 Q0.690 0.472 1.386 0.787" stroke="hsl(0.0,100%,35%)" stroke-width="0.00137"></path>
<path d="M1.150 0.064 Q0.098 0.387 0.497 0.971" stroke="hsl(0.0,100%,35%)" stroke-width="0.00273"></path>
<path d="M1.150 0.064 Q0.971 0.052 0.909 0.137" stroke="hsl(0.0,100%,35%)" stroke-width="0.01093"></path>
<path d="M1.150 0.064 Q0.622 0.221 0.812 0.513" stroke="hsl(0.0,100%,35%)" stroke-width="0.00137"></path>
<path d="M1.150 0.064 Q0.577 -0.032 0.263 0.226" stroke="hsl(0.0,100%,35%)" stroke-width="0.00820"></path>
<path d="M1.150 0.064 Q0.199 0.274 0.400 0.785" stroke="hsl(0.0,100%,35%)" stroke-width="0.00137"></path>
<path d="M1.150 0.064 Q0.540 0.589 1.431 1.002" stroke="hsl(0.0,100%,35%)" stroke-width="0.00273"></path>
<path d="M1.150 0.064 Q0.522 0.503 1.240 0.906" stroke="hsl(0.0,100%,35%)" stroke-width="0.00410"></path>
<path d="M0.263 0.226 Q0.658 0.311 0.909 0.137" stroke="hsl(0.0,100%,35%)" stroke-width="0.00273"></path>
<path d="M0.263 0.226 Q1.020 0.537 1.792 0.236" stroke="hsl(0.0,100%,35%)" stroke-width="0.00137"></path>
<path d="M0.263 0.226 Q-0.216 0.645 0.497 0.971" stroke="hsl(0.0,100%,35%)" stroke-width="0.00137"></path>
<path d="M0.263 0.226 Q0.075 0.281 0.140 0.385" stroke="hsl(0.0,100%,35%)" stroke-width="0.00273"></path>
<path d="M0.263 0.226 Q0.855 0.676 1.863 0.486" stroke="hsl(0.0,100%,35%)" stroke-width="0.00683"></path>
<path d="M0.263 0.226 Q0.437 0.279 0.578 0.206" stroke="hsl(0.0,100%,35%)" stroke-width="0.00137"></path>
<path d="M0.263 0.226 Q0.730 0.486 1.340 0.315" stroke="hsl(0.0,100%,35%)" stroke-width="0.00137"></path>
<path d="M0.263 0.226 Q0.243 0.300 0.383 0.326" stroke="hsl(0.0,100%,35%)" stroke-width="0.00683"></path>
<path d="M0.263 0.226 Q0.376 0.731 1.386 0.787" stroke="hsl(0.0,100%,35%)" stroke-width="0.00137"></path>
<path d="M0.400 0.785 Q0.299 0.897 0.497 0.971" stroke="hsl(0.0,100%,35%)" stroke-width="0.01093"></path>
<path d="M0.400 0.785 Q0.815 0.872 1.077 0.688" stroke="hsl(0.0,100%,35%)" stroke-width="0.00137"></path>
<path d="M0.400 0.785 Q0.733 0.777 0.791 0.612" stroke="hsl(0.0,100%,35%)" stroke-width="0.00137"></path>
<path d="M0.400 0.785 Q0.891 0.983 1.386 0.787" stroke="hsl(0.0,100%,35%)" stroke-width="0.00137"></path>
<path d="M1.340 0.315 Q1.561 0.307 1.592 0.197" stroke="hsl(0.0,100%,35%)" stroke-width="0.00410"></path>
<path d="M1.340 0.315 Q1.267 0.140 0.909 0.137" stroke="hsl(0.0,100%,35%)" stroke-width="0.00273"></path>
<path d="M1.340 0.315 Q0.918 0.308 0.812 0.513" stroke="hsl(0.0,100%,35%)" stroke-width="0.00137"></path>
<path d="M1.340 0.315 Q0.910 0.449 1.077 0.688" stroke="hsl(0.0,100%,35%)" stroke-width="0.00137"></path>
<path d="M1.340 0.315 Q0.853 0.130 0.383 0.326" stroke="hsl(0.0,100%,35%)" stroke-width="0.00137"></path>
<path d="M1.340 0.315 Q1.386 0.416 1.592 0.416" stroke="hsl(0.0,100%,35%)" stroke-width="0.00137"></path>
<path d="M1.792 0.236 Q1.430 0.010 0.909 0.137" stroke="hsl(0.0,100%,35%)" stroke-width="0.00410"></path>
<path d="M1.792 0.236 Q1.627 0.376 1.863 0.486" stroke="hsl(0.0,100%,35%)" stroke-width="0.00820"></path>
<path d="M1.792 0.236 Q1.080 0.178 0.812 0.513" stroke="hsl(0.0,100%,35%)" stroke-width="0.00273"></path>
<path d="M1.792 0.236 Q1.149 0.430 1.386 0.787" stroke="hsl(0.0,100%,35%)" stroke-width="0.00137"></path>
<path d="M1.792 0.236 Q1.609 0.022 1.150 0.064" stroke="hsl(0.0,100%,35%)" stroke-width="0.00137"></path>
<path d="M1.792 0.236 Q1.352 -0.055 0.688 0.096" stroke="hsl(0.0,100%,35%)" stroke-width="0.00137"></path>
<path d="M0.578 0.206 Q0.997 0.603 1.863 0.486" stroke="hsl(0.0,100%,35%)" stroke-width="0.00137"></path>
<path d="M0.578 0.206 Q0.385 0.227 0.383 0.326" stroke="hsl(0.0,100%,35%)" stroke-width="0.00683"></path>
<path d="M0.578 0.206 Q0.273 0.661 1.094 0.910" stroke="hsl(0.0,100%,35%)" stroke-width="0.00137"></path>
<path d="M0.578 0.206 Q0.623 0.342 0.897 0.350" stroke="hsl(0.0,100%,35%)" stroke-width="0.00137"></path>
<path d="M0.578 0.206 Q-0.083 0.385 0.121 0.747" stroke="hsl(0.0,100%,35%)" stroke-width="0.00137"></path>
<path d="M0.578 0.206 Q1.161 0.464 1.792 0.236" stroke="hsl(0.0,100%,35%)" stroke-width="0.00137"></path>
<path d="M0.854 0.267 Q0.809 0.317 0.897 0.350" stroke="hsl(0.0,100%,35%)" stroke-width="0.00683"></path>
<path d="M0.854 0.267 Q0.469 0.407 0.658 0.625" stroke="hsl(0.0,100%,35%)" stroke-width="0.00137"></path>
<path d="M0.854 0.267 Q0.571 0.202 0.383 0.326" stroke="hsl(0.0,100%,35%)" stroke-width="0.00273"></path>
<path d="M0.854 0.267 Q0.112 0.548 0.497 0.971" stroke="hsl(0.0,100%,35%)" stroke-width="0.00273"></path>
<path d="M0.854 0.267 Q0.794 0.411 1.062 0.472" stroke="hsl(0.0,100%,35%)" stroke-width="0.00137"></path>
<path d="M0.854 0.267 Q0.628 0.522 1.077 0.688" stroke="hsl(0.0,100%,35%)" stroke-width="0.00137"></path>
<path d="M0.854 0.267 Q0.536 0.664 1.240 0.906" stroke="hsl(0.0,100%,35%)" stroke-width="0.00820"></path>
<path d="M0.854 0.267 Q0.591 0.129 0.263 0.226" stroke="hsl(0.0,100%,35%)" stroke-width="0.00137"></path>
<path d="M0.854 0.267 Q0.554 0.750 1.431 1.002" stroke="hsl(0.0,100%,35%)" stroke-width="0.00137"></path>
<path d="M0.251 0.047 Q0.332 0.327 0.897 0.350" stroke="hsl(0.0,100%,35%)" stroke-width="0.00137"></path>
<path d="M0.251 0.047 Q0.339 0.069 0.401 0.030" stroke="hsl(0.0,100%,35%)" stroke-width="0.00137"></path>
<path d="M0.251 0.047 Q0.317 0.421 1.062 0.472" stroke="hsl(0.0,100%,35%)" stroke-width="0.00137"></path>
<path d="M0.121 0.747 Q1.006 0.685 1.079 0.240" stroke="hsl(0.0,100%,35%)" stroke-width="0.00273"></path>
<path d="M0.121 0.747 Q0.589 0.589 0.383 0.326" stroke="hsl(0.0,100%,35%)" stroke-width="0.00137"></path>
<path d="M0.121 0.747 Q0.324 0.744 0.362 0.645" stroke="hsl(0.0,100%,35%)" stroke-width="0.00273"></path>
<path d="M0.121 0.747 Q0.722 1.020 1.386 0.787" stroke="hsl(0.0,100%,35%)" stroke-width="0.00137"></path>
<path d="M0.121 0.747 Q0.783 0.568 0.578 0.206" stroke="hsl(0.0,100%,35%)" stroke-width="0.00137"></path>
<path d="M0.121 0.747 Q0.554 1.050 1.240 0.906" stroke="hsl(0.0,100%,35%)" stroke-width="0.00137"></path>
<path d="M0.161 0.867 Q1.119 0.651 0.909 0.137" stroke="hsl(0.0,100%,35%)" stroke-width="0.00273"></path>
<path d="M0.161 0.867 Q0.237 0.799 0.121 0.747" stroke="hsl(0.0,100%,35%)" stroke-width="0.00410"></path>
<path d="M0.161 0.867 Q0.943 0.755 0.897 0.350" stroke="hsl(0.0,100%,35%)" stroke-width="0.00137"></path>
<path d="M0.161 0.867 Q0.838 1.072 1.386 0.787" stroke="hsl(0.0,100%,35%)" stroke-width="0.00137"></path>
<path d="M0.791 0.612 Q0.873 0.708 1.077 0.688" stroke="hsl(180.0,100%,35%)" stroke-width="0.00137"></path>
<path d="M0.791 0.612 Q0.949 0.819 1.386 0.787" stroke="hsl(180.0,100%,35%)" stroke-width="0.00410"></path>
<path d="M0.791 0.612 Q0.881 0.567 0.812 0.513" stroke="hsl(180.0,100%,35%)" stroke-width="0.00273"></path>
<path d="M1.079 0.240 Q0.899 0.258 0.897 0.350" stroke="hsl(0.0,100%,35%)" stroke-width="0.00137"></path>
<path d="M1.079 0.240 Q0.202 0.489 0.497 0.971" stroke="hsl(0.0,100%,35%)" stroke-width="0.00820"></path>
<path d="M1.079 0.240 Q1.076 0.154 0.909 0.137" stroke="hsl(0.0,100%,35%)" stroke-width="0.01093"></path>
<path d="M1.079 0.240 Q0.944 0.208 0.854 0.267" stroke="hsl(0.0,100%,35%)" stroke-width="0.00273"></path>
<path d="M1.079 0.240 Q0.303 0.376 0.400 0.785" stroke="hsl(0.0,100%,35%)" stroke-width="0.00137"></path>
<path d="M1.052 0.822 Q1.098 0.988 1.431 1.002" stroke="hsl(180.0,100%,35%)" stroke-width="0.00137"></path>
<path d="M1.052 0.822 Q0.903 0.780 0.787 0.843" stroke="hsl(180.0,100%,35%)" stroke-width="0.01366"></path>
<path d="M1.052 0.822 Q1.172 0.760 1.077 0.688" stroke="hsl(180.0,100%,35%)" stroke-width="0.00683"></path>
<path d="M1.052 0.822 Q1.726 0.817 1.863 0.486" stroke="hsl(180.0,100%,35%)" stroke-width="0.00273"></path>
<path d="M1.052 0.822 Q0.655 0.786 0.497 0.971" stroke="hsl(180.0,100%,35%)" stroke-width="0.00410"></path>
<path d="M1.052 0.822 Q0.756 0.673 0.400 0.785" stroke="hsl(180.0,100%,35%)" stroke-width="0.00410"></path>
<path d="M1.052 0.822 Q1.179 0.619 0.812 0.513" stroke="hsl(180.0,100%,35%)" stroke-width="0.00137"></path>
<path d="M1.052 0.822 Q1.529 0.451 0.909 0.137" stroke="hsl(180.0,100%,35%)" stroke-width="0.00137"></path>
<path d="M1.431 1.002 Q1.685 0.569 0.897 0.350" stroke="hsl(180.0,100%,35%)" stroke-width="0.00820"></path>
<path d="M1.431 1.002 Q1.412 0.916 1.240 0.906" stroke="hsl(180.0,100%,35%)" stroke-width="0.02049"></path>
<path d="M1.431 1.002 Q2.040 0.477 1.150 0.064" stroke="hsl(180.0,100%,35%)" stroke-width="0.00137"></path>
<path d="M0.273 0.463 Q0.437 0.417 0.383 0.326" stroke="hsl(0.0,100%,35%)" stroke-width="0.00273"></path>
<path d="M0.273 0.463 Q1.050 0.793 1.863 0.486" stroke="hsl(0.0,100%,35%)" stroke-width="0.00137"></path>
<path d="M0.273 0.463 Q-0.022 0.762 0.497 0.971" stroke="hsl(0.0,100%,35%)" stroke-width="0.00137"></path>
<path d="M0.273 0.463 Q-0.030 0.575 0.121 0.747" stroke="hsl(0.0,100%,35%)" stroke-width="0.00273"></path>
<path d="M0.632 0.659 Q0.794 0.369 0.263 0.226" stroke="hsl(180.0,100%,35%)" stroke-width="0.00273"></path>
<path d="M0.632 0.659 Q0.739 0.904 1.240 0.906" stroke="hsl(180.0,100%,35%)" stroke-width="0.00273"></path>
<path d="M0.632 0.659 Q0.839 0.622 0.812 0.513" stroke="hsl(180.0,100%,35%)" stroke-width="0.00273"></path>
<path d="M0.632 0.659 Q0.315 0.788 0.497 0.971" stroke="hsl(180.0,100%,35%)" stroke-width="0.00273"></path>
<path d="M0.632 0.659 Q0.831 0.763 1.077 0.688" stroke="hsl(180.0,100%,35%)" stroke-width="0.00273"></path>
<path d="M0.632 0.659 Q1.367 0.465 1.150 0.064" stroke="hsl(180.0,100%,35%)" stroke-width="0.00137"></path>
<path d="M0.632 0.659 Q1.188 0.453 0.909 0.137" stroke="hsl(180.0,100%,35%)" stroke-width="0.00137"></path>
</g>
<text x="0.362" y="0.636" font-size="0.017389" fill="hsl(0.0,100%,20%)">adamk</text>
<text x="0.139" y="0.620" font-size="0.006572" fill="hsl(0.0,100%,20%)">rezvan</text>
<text x="0.483" y="0.652" font-size="0.006572" fill="hsl(0.0,100%,20%)">fgm</text>
<text x="0.812" y="0.485" font-size="0.055769" fill="hsl(180.0,100%,20%)">clemensb</text>
<text x="1.062" y="0.452" font-size="0.039978" fill="hsl(180.0,100%,20%)">ahaas</text>
<text x="0.559" y="0.459" font-size="0.036594" fill="hsl(180.0,100%,20%)">evih</text>
<text x="1.077" y="0.657" font-size="0.062697" fill="hsl(180.0,100%,20%)">mliedtke</text>
<text x="1.386" y="0.764" font-size="0.044089" fill="hsl(180.0,100%,20%)">jkummerow</text>
<text x="0.383" y="0.312" font-size="0.028648" fill="hsl(0.0,100%,20%)">cbruni</text>
<text x="1.396" y="0.434" font-size="0.024592" fill="hsl(180.0,100%,20%)">thibaudm</text>
<text x="0.691" y="0.364" font-size="0.011384" fill="hsl(0.0,100%,20%)">anton.kirilov</text>
<text x="0.688" y="0.076" font-size="0.040515" fill="hsl(0.0,100%,20%)">victorgomes</text>
<text x="1.094" y="0.901" font-size="0.018590" fill="hsl(180.0,100%,20%)">bikineev</text>
<text x="1.240" y="0.886" font-size="0.039978" fill="hsl(180.0,100%,20%)">mlippautz</text>
<text x="0.897" y="0.335" font-size="0.029393" fill="hsl(180.0,100%,20%)">omerkatz</text>
<text x="0.909" y="0.112" font-size="0.049621" fill="hsl(0.0,100%,20%)">leszeks</text>
<text x="0.497" y="0.941" font-size="0.061303" fill="hsl(0.0,100%,20%)">dmercadier</text>
<text x="1.150" y="0.045" font-size="0.038323" fill="hsl(0.0,100%,20%)">saelo</text>
<text x="0.658" y="0.620" font-size="0.011384" fill="hsl(180.0,100%,20%)">szuend</text>
<text x="0.263" y="0.207" font-size="0.039434" fill="hsl(0.0,100%,20%)">ishell</text>
<text x="0.400" y="0.764" font-size="0.042084" fill="hsl(0.0,100%,20%)">nicohartmann</text>
<text x="1.340" y="0.304" font-size="0.022767" fill="hsl(0.0,100%,20%)">machenbach</text>
<text x="1.792" y="0.221" font-size="0.029393" fill="hsl(0.0,100%,20%)">olivf</text>
<text x="0.140" y="0.380" font-size="0.009295" fill="hsl(0.0,100%,20%)">dinfuehr</text>
<text x="1.863" y="0.472" font-size="0.028648" fill="hsl(0.0,100%,20%)">verwaest</text>
<text x="0.578" y="0.190" font-size="0.032198" fill="hsl(0.0,100%,20%)">pthier</text>
<text x="0.854" y="0.251" font-size="0.031520" fill="hsl(0.0,100%,20%)">nikolaos</text>
<text x="0.251" y="0.041" font-size="0.011384" fill="hsl(0.0,100%,20%)">leese</text>
<text x="0.401" y="0.027" font-size="0.006572" fill="hsl(0.0,100%,20%)">bmeurer</text>
<text x="0.121" y="0.734" font-size="0.025455" fill="hsl(0.0,100%,20%)">syg</text>
<text x="0.161" y="0.858" font-size="0.017389" fill="hsl(0.0,100%,20%)">lpardosixtos</text>
<text x="1.592" y="0.191" font-size="0.011384" fill="hsl(0.0,100%,20%)">liviurau</text>
<text x="1.592" y="0.412" font-size="0.006572" fill="hsl(0.0,100%,20%)">alexschulze</text>
<text x="0.791" y="0.600" font-size="0.024592" fill="hsl(180.0,100%,20%)">manoskouk</text>
<text x="1.079" y="0.225" font-size="0.029393" fill="hsl(0.0,100%,20%)">marja</text>
<text x="1.052" y="0.806" font-size="0.033513" fill="hsl(180.0,100%,20%)">mfarazma</text>
<text x="1.431" y="0.985" font-size="0.033513" fill="hsl(180.0,100%,20%)">sroettger</text>
<text x="0.787" y="0.832" font-size="0.020784" fill="hsl(180.0,100%,20%)">junyan</text>
<text x="0.273" y="0.455" font-size="0.016099" fill="hsl(0.0,100%,20%)">seokho</text>
<text x="0.632" y="0.648" font-size="0.022767" fill="hsl(180.0,100%,20%)">zhaojiazhong-hf</text>
</svg>
