<svg width="4000" height="2000" viewBox="-0.025 -0.025 2.05 1.05" xmlns="http://www.w3.org/2000/svg">
  <style>
    path {
      fill: none;
      stroke-linecap: round;
      stroke-opacity: 0.4;
    }

    text {
      text-anchor: middle;
      alignment-baseline: hanging;
    }
  </style>
  <g opacity="0.4">
<path d="M0.988 0.091 Q1.019 0.161 1.162 0.161" stroke="hsl(0.0,100%,35%)" stroke-width="0.00321"></path>
<path d="M0.988 0.091 Q0.842 0.044 0.719 0.106" stroke="hsl(0.0,100%,35%)" stroke-width="0.00321"></path>
<path d="M0.988 0.091 Q1.184 0.134 1.311 0.048" stroke="hsl(0.0,100%,35%)" stroke-width="0.00482"></path>
<path d="M0.988 0.091 Q0.506 0.167 0.548 0.419" stroke="hsl(0.0,100%,35%)" stroke-width="0.00161"></path>
<path d="M0.988 0.091 Q0.481 0.475 1.118 0.807" stroke="hsl(0.0,100%,35%)" stroke-width="0.00161"></path>
<path d="M0.988 0.091 Q0.775 0.502 1.530 0.696" stroke="hsl(0.0,100%,35%)" stroke-width="0.00161"></path>
<path d="M0.988 0.091 Q0.928 0.595 1.899 0.736" stroke="hsl(0.0,100%,35%)" stroke-width="0.00161"></path>
<path d="M0.988 0.091 Q0.642 0.112 0.608 0.286" stroke="hsl(0.0,100%,35%)" stroke-width="0.00161"></path>
<path d="M1.311 0.048 Q1.147 0.075 1.162 0.161" stroke="hsl(0.0,100%,35%)" stroke-width="0.00804"></path>
<path d="M1.311 0.048 Q0.532 0.144 0.547 0.544" stroke="hsl(0.0,100%,35%)" stroke-width="0.00643"></path>
<path d="M1.311 0.048 Q1.132 0.402 1.782 0.566" stroke="hsl(0.0,100%,35%)" stroke-width="0.00321"></path>
<path d="M1.311 0.048 Q0.692 0.152 0.759 0.477" stroke="hsl(0.0,100%,35%)" stroke-width="0.00161"></path>
<path d="M1.311 0.048 Q1.116 0.005 0.988 0.091" stroke="hsl(0.0,100%,35%)" stroke-width="0.02089"></path>
<path d="M1.311 0.048 Q0.479 0.017 0.235 0.416" stroke="hsl(0.0,100%,35%)" stroke-width="0.00804"></path>
<path d="M1.311 0.048 Q0.162 0.252 0.307 0.858" stroke="hsl(0.0,100%,35%)" stroke-width="0.00161"></path>
<path d="M1.311 0.048 Q1.345 0.188 1.624 0.202" stroke="hsl(0.0,100%,35%)" stroke-width="0.00321"></path>
<path d="M1.311 0.048 Q0.510 0.459 1.134 0.940" stroke="hsl(0.0,100%,35%)" stroke-width="0.00321"></path>
<path d="M0.548 0.419 Q1.376 0.454 1.626 0.057" stroke="hsl(120.0,100%,35%)" stroke-width="0.00161"></path>
<path d="M0.548 0.419 Q0.154 0.505 0.236 0.717" stroke="hsl(120.0,100%,35%)" stroke-width="0.00161"></path>
<path d="M0.548 0.419 Q0.447 0.481 0.547 0.544" stroke="hsl(120.0,100%,35%)" stroke-width="0.00482"></path>
<path d="M1.118 0.807 Q1.020 0.876 1.134 0.940" stroke="hsl(240.0,100%,35%)" stroke-width="0.01125"></path>
<path d="M1.118 0.807 Q0.989 0.435 0.235 0.416" stroke="hsl(240.0,100%,35%)" stroke-width="0.00321"></path>
<path d="M1.118 0.807 Q1.280 0.444 0.608 0.286" stroke="hsl(240.0,100%,35%)" stroke-width="0.00482"></path>
<path d="M1.118 0.807 Q1.626 0.423 0.988 0.091" stroke="hsl(240.0,100%,35%)" stroke-width="0.00161"></path>
<path d="M1.530 0.696 Q1.235 0.669 1.118 0.807" stroke="hsl(240.0,100%,35%)" stroke-width="0.00321"></path>
<path d="M1.530 0.696 Q1.760 0.682 1.782 0.566" stroke="hsl(240.0,100%,35%)" stroke-width="0.00321"></path>
<path d="M1.530 0.696 Q1.537 0.866 1.869 0.900" stroke="hsl(240.0,100%,35%)" stroke-width="0.00321"></path>
<path d="M1.530 0.696 Q1.370 0.851 1.638 0.963" stroke="hsl(240.0,100%,35%)" stroke-width="0.00321"></path>
<path d="M1.899 0.736 Q2.189 0.414 1.624 0.202" stroke="hsl(120.0,100%,35%)" stroke-width="0.00161"></path>
<path d="M1.899 0.736 Q1.636 0.172 0.478 0.177" stroke="hsl(120.0,100%,35%)" stroke-width="0.00161"></path>
<path d="M1.899 0.736 Q1.976 0.628 1.782 0.566" stroke="hsl(120.0,100%,35%)" stroke-width="0.00482"></path>
<path d="M1.899 0.736 Q1.477 0.307 0.548 0.419" stroke="hsl(120.0,100%,35%)" stroke-width="0.00161"></path>
<path d="M1.899 0.736 Q1.694 0.746 1.668 0.848" stroke="hsl(120.0,100%,35%)" stroke-width="0.00321"></path>
<path d="M1.899 0.736 Q1.753 0.812 1.869 0.900" stroke="hsl(120.0,100%,35%)" stroke-width="0.00161"></path>
<path d="M0.608 0.286 Q0.317 0.276 0.235 0.416" stroke="hsl(240.0,100%,35%)" stroke-width="0.00964"></path>
<path d="M0.608 0.286 Q0.400 0.209 0.204 0.294" stroke="hsl(240.0,100%,35%)" stroke-width="0.00321"></path>
<path d="M0.608 0.286 Q0.631 0.205 0.478 0.177" stroke="hsl(240.0,100%,35%)" stroke-width="0.01125"></path>
<path d="M0.608 0.286 Q0.748 0.845 1.869 0.900" stroke="hsl(240.0,100%,35%)" stroke-width="0.00161"></path>
<path d="M0.608 0.286 Q0.446 0.648 1.118 0.807" stroke="hsl(240.0,100%,35%)" stroke-width="0.00321"></path>
<path d="M0.608 0.286 Q0.348 0.718 1.134 0.940" stroke="hsl(240.0,100%,35%)" stroke-width="0.00161"></path>
<path d="M1.599 0.073 Q1.014 0.474 1.668 0.848" stroke="hsl(240.0,100%,35%)" stroke-width="0.00804"></path>
<path d="M1.599 0.073 Q1.625 0.071 1.626 0.057" stroke="hsl(240.0,100%,35%)" stroke-width="0.00482"></path>
<path d="M1.599 0.073 Q0.326 0.207 0.307 0.858" stroke="hsl(240.0,100%,35%)" stroke-width="0.00161"></path>
<path d="M1.668 0.848 Q1.873 0.838 1.899 0.736" stroke="hsl(240.0,100%,35%)" stroke-width="0.00161"></path>
<path d="M1.668 0.848 Q1.727 0.914 1.869 0.900" stroke="hsl(240.0,100%,35%)" stroke-width="0.00161"></path>
<path d="M1.668 0.848 Q1.328 0.787 1.134 0.940" stroke="hsl(240.0,100%,35%)" stroke-width="0.00161"></path>
<path d="M1.668 0.848 Q1.217 0.766 0.959 0.968" stroke="hsl(240.0,100%,35%)" stroke-width="0.00161"></path>
<path d="M0.307 0.858 Q0.409 0.918 0.549 0.882" stroke="hsl(0.0,100%,35%)" stroke-width="0.01607"></path>
<path d="M0.307 0.858 Q0.915 0.632 0.608 0.286" stroke="hsl(0.0,100%,35%)" stroke-width="0.00161"></path>
<path d="M0.307 0.858 Q1.055 1.191 1.869 0.900" stroke="hsl(0.0,100%,35%)" stroke-width="0.00643"></path>
<path d="M0.307 0.858 Q0.654 0.845 0.706 0.674" stroke="hsl(0.0,100%,35%)" stroke-width="0.00161"></path>
<path d="M0.307 0.858 Q1.114 0.564 0.719 0.106" stroke="hsl(0.0,100%,35%)" stroke-width="0.00321"></path>
<path d="M0.307 0.858 Q0.624 0.622 0.235 0.416" stroke="hsl(0.0,100%,35%)" stroke-width="0.00321"></path>
<path d="M0.307 0.858 Q1.456 0.654 1.311 0.048" stroke="hsl(0.0,100%,35%)" stroke-width="0.00161"></path>
<path d="M0.547 0.544 Q0.254 0.568 0.236 0.717" stroke="hsl(120.0,100%,35%)" stroke-width="0.00161"></path>
<path d="M0.547 0.544 Q0.493 0.418 0.235 0.416" stroke="hsl(120.0,100%,35%)" stroke-width="0.00161"></path>
<path d="M0.547 0.544 Q0.865 0.920 1.668 0.848" stroke="hsl(120.0,100%,35%)" stroke-width="0.00161"></path>
<path d="M0.547 0.544 Q0.648 0.482 0.548 0.419" stroke="hsl(120.0,100%,35%)" stroke-width="0.00161"></path>
<path d="M0.547 0.544 Q1.070 0.910 1.899 0.736" stroke="hsl(120.0,100%,35%)" stroke-width="0.00161"></path>
<path d="M1.782 0.566 Q1.705 0.674 1.899 0.736" stroke="hsl(120.0,100%,35%)" stroke-width="0.00161"></path>
<path d="M1.782 0.566 Q1.129 0.182 0.235 0.416" stroke="hsl(120.0,100%,35%)" stroke-width="0.00161"></path>
<path d="M1.782 0.566 Q1.258 0.554 1.118 0.807" stroke="hsl(120.0,100%,35%)" stroke-width="0.00161"></path>
<path d="M1.782 0.566 Q1.060 0.828 1.412 1.238" stroke="hsl(120.0,100%,35%)" stroke-width="0.00161"></path>
<path d="M0.759 0.477 Q1.199 0.726 1.782 0.566" stroke="hsl(120.0,100%,35%)" stroke-width="0.00161"></path>
<path d="M0.759 0.477 Q0.599 0.468 0.547 0.544" stroke="hsl(120.0,100%,35%)" stroke-width="0.03375"></path>
<path d="M0.759 0.477 Q1.378 0.373 1.311 0.048" stroke="hsl(120.0,100%,35%)" stroke-width="0.00964"></path>
<path d="M0.759 0.477 Q0.976 0.910 1.869 0.900" stroke="hsl(120.0,100%,35%)" stroke-width="0.00643"></path>
<path d="M0.759 0.477 Q1.122 0.835 1.899 0.736" stroke="hsl(120.0,100%,35%)" stroke-width="0.02732"></path>
<path d="M0.759 0.477 Q0.675 0.714 1.118 0.807" stroke="hsl(120.0,100%,35%)" stroke-width="0.00321"></path>
<path d="M0.759 0.477 Q1.080 0.688 1.562 0.578" stroke="hsl(120.0,100%,35%)" stroke-width="0.00321"></path>
<path d="M0.759 0.477 Q0.577 0.784 1.134 0.940" stroke="hsl(120.0,100%,35%)" stroke-width="0.00161"></path>
<path d="M0.759 0.477 Q0.837 0.351 0.608 0.286" stroke="hsl(120.0,100%,35%)" stroke-width="0.00161"></path>
<path d="M0.235 0.416 Q0.526 0.426 0.608 0.286" stroke="hsl(240.0,100%,35%)" stroke-width="0.01286"></path>
<path d="M0.235 0.416 Q1.067 0.448 1.311 0.048" stroke="hsl(240.0,100%,35%)" stroke-width="0.00964"></path>
<path d="M0.235 0.416 Q0.448 0.552 0.759 0.477" stroke="hsl(240.0,100%,35%)" stroke-width="0.00161"></path>
<path d="M0.235 0.416 Q0.266 0.858 1.134 0.940" stroke="hsl(240.0,100%,35%)" stroke-width="0.00161"></path>
<path d="M0.235 0.416 Q0.364 0.788 1.118 0.807" stroke="hsl(240.0,100%,35%)" stroke-width="0.00161"></path>
<path d="M0.235 0.416 Q0.725 0.358 0.719 0.106" stroke="hsl(240.0,100%,35%)" stroke-width="0.00161"></path>
<path d="M0.235 0.416 Q0.872 0.404 0.988 0.091" stroke="hsl(240.0,100%,35%)" stroke-width="0.00161"></path>
<path d="M0.235 0.416 Q-0.082 0.651 0.307 0.858" stroke="hsl(240.0,100%,35%)" stroke-width="0.00321"></path>
<path d="M0.235 0.416 Q0.811 0.909 1.899 0.736" stroke="hsl(240.0,100%,35%)" stroke-width="0.00161"></path>
<path d="M1.134 0.940 Q1.103 0.498 0.235 0.416" stroke="hsl(240.0,100%,35%)" stroke-width="0.00643"></path>
<path d="M1.134 0.940 Q1.394 0.508 0.608 0.286" stroke="hsl(240.0,100%,35%)" stroke-width="0.01768"></path>
<path d="M1.134 0.940 Q1.232 0.870 1.118 0.807" stroke="hsl(240.0,100%,35%)" stroke-width="0.02893"></path>
<path d="M1.134 0.940 Q1.417 0.427 0.478 0.177" stroke="hsl(240.0,100%,35%)" stroke-width="0.00161"></path>
<path d="M1.134 0.940 Q1.475 1.000 1.668 0.848" stroke="hsl(240.0,100%,35%)" stroke-width="0.00161"></path>
<path d="M1.134 0.940 Q1.534 1.067 1.869 0.900" stroke="hsl(240.0,100%,35%)" stroke-width="0.00161"></path>
<path d="M0.204 0.294 Q-0.195 0.596 0.307 0.858" stroke="hsl(240.0,100%,35%)" stroke-width="0.00161"></path>
<path d="M0.204 0.294 Q0.121 0.361 0.235 0.416" stroke="hsl(240.0,100%,35%)" stroke-width="0.00161"></path>
<path d="M0.204 0.294 Q0.152 0.803 1.134 0.940" stroke="hsl(240.0,100%,35%)" stroke-width="0.00161"></path>
<path d="M0.478 0.177 Q0.165 0.248 0.235 0.416" stroke="hsl(240.0,100%,35%)" stroke-width="0.00964"></path>
<path d="M0.478 0.177 Q0.833 0.306 1.162 0.161" stroke="hsl(240.0,100%,35%)" stroke-width="0.00161"></path>
<path d="M0.478 0.177 Q0.802 0.236 0.988 0.091" stroke="hsl(240.0,100%,35%)" stroke-width="0.00161"></path>
<path d="M1.869 0.900 Q1.810 0.833 1.668 0.848" stroke="hsl(240.0,100%,35%)" stroke-width="0.01607"></path>
<path d="M1.869 0.900 Q1.492 0.457 0.547 0.544" stroke="hsl(240.0,100%,35%)" stroke-width="0.00321"></path>
<path d="M1.869 0.900 Q1.439 0.331 0.235 0.416" stroke="hsl(240.0,100%,35%)" stroke-width="0.00321"></path>
<path d="M1.869 0.900 Q1.568 0.703 1.118 0.807" stroke="hsl(240.0,100%,35%)" stroke-width="0.00161"></path>
<path d="M1.869 0.900 Q2.015 0.824 1.899 0.736" stroke="hsl(240.0,100%,35%)" stroke-width="0.00161"></path>
<path d="M1.869 0.900 Q1.359 0.752 0.959 0.968" stroke="hsl(240.0,100%,35%)" stroke-width="0.00161"></path>
<path d="M1.869 0.900 Q1.370 0.977 1.412 1.238" stroke="hsl(240.0,100%,35%)" stroke-width="0.00161"></path>
<path d="M1.316 0.377 Q1.011 0.415 1.017 0.572" stroke="hsl(0.0,100%,35%)" stroke-width="0.00161"></path>
<path d="M1.316 0.377 Q1.412 0.238 1.162 0.161" stroke="hsl(0.0,100%,35%)" stroke-width="0.00161"></path>
<path d="M1.316 0.377 Q1.215 0.298 1.039 0.330" stroke="hsl(0.0,100%,35%)" stroke-width="0.00161"></path>
<path d="M1.316 0.377 Q0.744 0.180 0.235 0.416" stroke="hsl(0.0,100%,35%)" stroke-width="0.00161"></path>
<path d="M1.316 0.377 Q1.152 0.356 1.074 0.431" stroke="hsl(0.0,100%,35%)" stroke-width="0.00161"></path>
<path d="M0.236 0.717 Q0.294 0.625 0.128 0.577" stroke="hsl(120.0,100%,35%)" stroke-width="0.00482"></path>
<path d="M0.236 0.717 Q0.906 1.135 1.869 0.900" stroke="hsl(120.0,100%,35%)" stroke-width="0.00161"></path>
<path d="M0.236 0.717 Q0.529 0.693 0.547 0.544" stroke="hsl(120.0,100%,35%)" stroke-width="0.00161"></path>
<path d="M0.959 0.968 Q1.070 0.989 1.134 0.940" stroke="hsl(240.0,100%,35%)" stroke-width="0.01768"></path>
<path d="M0.959 0.968 Q1.303 1.102 1.638 0.963" stroke="hsl(240.0,100%,35%)" stroke-width="0.00482"></path>
<path d="M0.959 0.968 Q1.410 1.050 1.668 0.848" stroke="hsl(240.0,100%,35%)" stroke-width="0.00482"></path>
<path d="M0.959 0.968 Q1.469 1.116 1.869 0.900" stroke="hsl(240.0,100%,35%)" stroke-width="0.00964"></path>
<path d="M0.959 0.968 Q1.092 0.674 0.547 0.544" stroke="hsl(240.0,100%,35%)" stroke-width="0.00161"></path>
<path d="M1.638 0.963 Q1.804 0.978 1.869 0.900" stroke="hsl(240.0,100%,35%)" stroke-width="0.02089"></path>
<path d="M1.638 0.963 Q1.587 0.544 0.759 0.477" stroke="hsl(240.0,100%,35%)" stroke-width="0.00161"></path>
<path d="M1.638 0.963 Q1.294 0.830 0.959 0.968" stroke="hsl(240.0,100%,35%)" stroke-width="0.00482"></path>
<path d="M1.638 0.963 Q1.405 0.851 1.134 0.940" stroke="hsl(240.0,100%,35%)" stroke-width="0.00643"></path>
<path d="M1.638 0.963 Q2.011 0.397 0.988 0.091" stroke="hsl(240.0,100%,35%)" stroke-width="0.00161"></path>
<path d="M1.269 0.564 Q1.420 0.548 1.424 0.471" stroke="hsl(240.0,100%,35%)" stroke-width="0.01125"></path>
<path d="M1.269 0.564 Q0.901 0.725 1.134 0.940" stroke="hsl(240.0,100%,35%)" stroke-width="0.00161"></path>
<path d="M1.269 0.564 Q0.999 0.655 1.118 0.807" stroke="hsl(240.0,100%,35%)" stroke-width="0.00804"></path>
<path d="M1.269 0.564 Q0.870 0.283 0.235 0.416" stroke="hsl(240.0,100%,35%)" stroke-width="0.00161"></path>
<path d="M1.269 0.564 Q1.161 0.293 0.608 0.286" stroke="hsl(240.0,100%,35%)" stroke-width="0.00161"></path>
<path d="M1.269 0.564 Q1.300 0.852 1.869 0.900" stroke="hsl(240.0,100%,35%)" stroke-width="0.00161"></path>
<path d="M1.454 0.310 Q1.626 0.290 1.624 0.202" stroke="hsl(120.0,100%,35%)" stroke-width="0.01125"></path>
<path d="M1.454 0.310 Q1.336 0.612 1.899 0.736" stroke="hsl(120.0,100%,35%)" stroke-width="0.01446"></path>
<path d="M1.454 0.310 Q0.889 0.491 1.118 0.807" stroke="hsl(120.0,100%,35%)" stroke-width="0.00482"></path>
<path d="M1.454 0.310 Q0.760 0.119 0.235 0.416" stroke="hsl(120.0,100%,35%)" stroke-width="0.00161"></path>
<path d="M1.454 0.310 Q1.742 0.218 1.626 0.057" stroke="hsl(120.0,100%,35%)" stroke-width="0.00161"></path>
<path d="M1.454 0.310 Q1.397 0.107 0.988 0.091" stroke="hsl(120.0,100%,35%)" stroke-width="0.00161"></path>
<path d="M0.415 0.697 Q0.310 0.671 0.236 0.717" stroke="hsl(120.0,100%,35%)" stroke-width="0.00321"></path>
<path d="M0.415 0.697 Q0.603 0.647 0.547 0.544" stroke="hsl(120.0,100%,35%)" stroke-width="0.00161"></path>
<path d="M0.415 0.697 Q1.532 0.620 1.626 0.057" stroke="hsl(120.0,100%,35%)" stroke-width="0.00161"></path>
<path d="M1.562 0.578 Q1.241 0.367 0.759 0.477" stroke="hsl(120.0,100%,35%)" stroke-width="0.00161"></path>
<path d="M1.562 0.578 Q1.458 0.800 1.869 0.900" stroke="hsl(120.0,100%,35%)" stroke-width="0.00161"></path>
<path d="M1.562 0.578 Q1.681 0.616 1.782 0.566" stroke="hsl(120.0,100%,35%)" stroke-width="0.00321"></path>
<path d="M1.562 0.578 Q1.292 0.786 1.638 0.963" stroke="hsl(120.0,100%,35%)" stroke-width="0.00161"></path>
<path d="M1.562 0.578 Q1.604 0.724 1.899 0.736" stroke="hsl(120.0,100%,35%)" stroke-width="0.00161"></path>
<path d="M0.407 0.635 Q1.478 0.590 1.626 0.057" stroke="hsl(240.0,100%,35%)" stroke-width="0.00161"></path>
<path d="M0.407 0.635 Q0.256 0.641 0.236 0.717" stroke="hsl(240.0,100%,35%)" stroke-width="0.00321"></path>
<path d="M0.407 0.635 Q0.498 0.828 0.894 0.826" stroke="hsl(240.0,100%,35%)" stroke-width="0.00161"></path>
<path d="M0.894 0.826 Q0.828 0.746 0.657 0.760" stroke="hsl(120.0,100%,35%)" stroke-width="0.00643"></path>
<path d="M0.894 0.826 Q1.322 1.058 1.869 0.900" stroke="hsl(120.0,100%,35%)" stroke-width="0.00161"></path>
<path d="M0.894 0.826 Q1.144 0.813 1.174 0.688" stroke="hsl(120.0,100%,35%)" stroke-width="0.00161"></path>
<path d="M1.361 0.828 Q1.391 0.951 1.638 0.963" stroke="hsl(240.0,100%,35%)" stroke-width="0.00161"></path>
<path d="M1.361 0.828 Q1.558 0.965 1.869 0.900" stroke="hsl(240.0,100%,35%)" stroke-width="0.00161"></path>
<path d="M1.361 0.828 Q1.256 0.769 1.118 0.807" stroke="hsl(240.0,100%,35%)" stroke-width="0.00482"></path>
<path d="M1.361 0.828 Q1.960 0.428 1.311 0.048" stroke="hsl(240.0,100%,35%)" stroke-width="0.00161"></path>
<path d="M1.361 0.828 Q1.704 0.889 1.899 0.736" stroke="hsl(240.0,100%,35%)" stroke-width="0.00161"></path>
<path d="M1.361 0.828 Q1.127 0.397 0.235 0.416" stroke="hsl(240.0,100%,35%)" stroke-width="0.00161"></path>
</g>
<text x="0.988" y="0.072" font-size="0.038348" fill="hsl(0.0,100%,20%)">ahaas</text>
<text x="1.162" y="0.150" font-size="0.021004" fill="hsl(0.0,100%,20%)">thibaudm</text>
<text x="0.719" y="0.098" font-size="0.015656" fill="hsl(0.0,100%,20%)">evih</text>
<text x="1.311" y="0.023" font-size="0.050488" fill="hsl(0.0,100%,20%)">clemensb</text>
<text x="0.548" y="0.409" font-size="0.019803" fill="hsl(120.0,100%,20%)">pthier</text>
<text x="1.118" y="0.782" font-size="0.050488" fill="hsl(240.0,100%,20%)">nicohartmann</text>
<text x="1.530" y="0.686" font-size="0.021004" fill="hsl(240.0,100%,20%)">marja</text>
<text x="1.899" y="0.713" font-size="0.045911" fill="hsl(120.0,100%,20%)">mlippautz</text>
<text x="0.608" y="0.262" font-size="0.046967" fill="hsl(240.0,100%,20%)">mliedtke</text>
<text x="1.599" y="0.063" font-size="0.021004" fill="hsl(240.0,100%,20%)">carlscab</text>
<text x="1.668" y="0.830" font-size="0.035700" fill="hsl(240.0,100%,20%)">verwaest</text>
<text x="1.626" y="0.048" font-size="0.018524" fill="hsl(240.0,100%,20%)">cbruni</text>
<text x="0.307" y="0.840" font-size="0.035700" fill="hsl(0.0,100%,20%)">machenbach</text>
<text x="0.547" y="0.523" font-size="0.043160" fill="hsl(120.0,100%,20%)">ishell</text>
<text x="1.782" y="0.553" font-size="0.026197" fill="hsl(120.0,100%,20%)">dinfuehr</text>
<text x="0.759" y="0.450" font-size="0.053779" fill="hsl(120.0,100%,20%)">saelo</text>
<text x="0.235" y="0.390" font-size="0.052394" fill="hsl(240.0,100%,20%)">jkummerow</text>
<text x="1.624" y="0.190" font-size="0.022140" fill="hsl(240.0,100%,20%)">omerkatz</text>
<text x="1.134" y="0.911" font-size="0.056880" fill="hsl(240.0,100%,20%)">dmercadier</text>
<text x="1.412" y="1.233" font-size="0.009901" fill="hsl(120.0,100%,20%)">bikineev</text>
<text x="0.204" y="0.286" font-size="0.015656" fill="hsl(240.0,100%,20%)">dlehmann</text>
<text x="0.478" y="0.162" font-size="0.028868" fill="hsl(240.0,100%,20%)">manoskouk</text>
<text x="1.869" y="0.873" font-size="0.052394" fill="hsl(240.0,100%,20%)">leszeks</text>
<text x="1.316" y="0.369" font-size="0.015656" fill="hsl(0.0,100%,20%)">fgm</text>
<text x="1.017" y="0.568" font-size="0.007001" fill="hsl(120.0,100%,20%)">irezvov</text>
<text x="1.039" y="0.327" font-size="0.007001" fill="hsl(0.0,100%,20%)">gdeepti</text>
<text x="1.074" y="0.427" font-size="0.007001" fill="hsl(0.0,100%,20%)">adamk</text>
<text x="0.236" y="0.705" font-size="0.023221" fill="hsl(120.0,100%,20%)">syg</text>
<text x="0.959" y="0.949" font-size="0.037704" fill="hsl(240.0,100%,20%)">olivf</text>
<text x="0.549" y="0.871" font-size="0.022140" fill="hsl(0.0,100%,20%)">liviurau</text>
<text x="0.706" y="0.670" font-size="0.007001" fill="hsl(0.0,100%,20%)">hpayer</text>
<text x="1.638" y="0.944" font-size="0.037704" fill="hsl(240.0,100%,20%)">victorgomes</text>
<text x="1.269" y="0.550" font-size="0.028006" fill="hsl(240.0,100%,20%)">mfarazma</text>
<text x="1.424" y="0.462" font-size="0.018524" fill="hsl(240.0,100%,20%)">junyan</text>
<text x="1.454" y="0.294" font-size="0.032839" fill="hsl(120.0,100%,20%)">nikolaos</text>
<text x="0.415" y="0.690" font-size="0.014003" fill="hsl(120.0,100%,20%)">nribaudo</text>
<text x="1.562" y="0.568" font-size="0.019803" fill="hsl(120.0,100%,20%)">sroettger</text>
<text x="0.407" y="0.628" font-size="0.014003" fill="hsl(240.0,100%,20%)">seokho</text>
<text x="0.894" y="0.816" font-size="0.018524" fill="hsl(120.0,100%,20%)">szuend</text>
<text x="0.128" y="0.571" font-size="0.012127" fill="hsl(120.0,100%,20%)">rezvan</text>
<text x="0.657" y="0.753" font-size="0.014003" fill="hsl(120.0,100%,20%)">bmeurer</text>
<text x="1.174" y="0.684" font-size="0.007001" fill="hsl(240.0,100%,20%)">leese</text>
<text x="1.361" y="0.818" font-size="0.019803" fill="hsl(240.0,100%,20%)">zhaojiazhong-hf</text>
</svg>
