<svg width="4000" height="2000" viewBox="-0.025 -0.025 2.05 1.05" xmlns="http://www.w3.org/2000/svg">
  <style>
    path {
      fill: none;
      stroke-linecap: round;
      stroke-opacity: 0.4;
    }

    text {
      text-anchor: middle;
      alignment-baseline: hanging;
    }
  </style>
  <g opacity="0.4">
<path d="M1.333 0.168 Q0.521 0.264 0.530 0.681" stroke="hsl(0.0,100%,35%)" stroke-width="0.00723"></path>
<path d="M1.333 0.168 Q0.689 0.222 0.653 0.548" stroke="hsl(0.0,100%,35%)" stroke-width="0.00289"></path>
<path d="M1.333 0.168 Q1.312 0.083 1.141 0.075" stroke="hsl(0.0,100%,35%)" stroke-width="0.00145"></path>
<path d="M1.333 0.168 Q1.507 0.168 1.546 0.083" stroke="hsl(0.0,100%,35%)" stroke-width="0.00289"></path>
<path d="M1.333 0.168 Q1.442 0.368 1.857 0.359" stroke="hsl(0.0,100%,35%)" stroke-width="0.00145"></path>
<path d="M1.333 0.168 Q0.353 0.217 0.233 0.705" stroke="hsl(0.0,100%,35%)" stroke-width="0.00289"></path>
<path d="M1.333 0.168 Q1.077 0.297 1.272 0.450" stroke="hsl(0.0,100%,35%)" stroke-width="0.00145"></path>
<path d="M1.333 0.168 Q1.045 0.014 0.682 0.120" stroke="hsl(0.0,100%,35%)" stroke-width="0.00145"></path>
<path d="M0.530 0.681 Q0.489 0.505 0.137 0.487" stroke="hsl(0.0,100%,35%)" stroke-width="0.01012"></path>
<path d="M0.530 0.681 Q0.698 0.639 0.653 0.548" stroke="hsl(0.0,100%,35%)" stroke-width="0.01156"></path>
<path d="M0.530 0.681 Q0.740 0.777 0.972 0.695" stroke="hsl(0.0,100%,35%)" stroke-width="0.00145"></path>
<path d="M0.530 0.681 Q0.732 0.461 0.348 0.314" stroke="hsl(0.0,100%,35%)" stroke-width="0.00434"></path>
<path d="M0.530 0.681 Q1.342 0.585 1.333 0.168" stroke="hsl(0.0,100%,35%)" stroke-width="0.00145"></path>
<path d="M0.530 0.681 Q0.362 0.634 0.233 0.705" stroke="hsl(0.0,100%,35%)" stroke-width="0.00578"></path>
<path d="M0.530 0.681 Q1.321 0.500 1.141 0.075" stroke="hsl(0.0,100%,35%)" stroke-width="0.00578"></path>
<path d="M0.530 0.681 Q0.643 0.543 0.398 0.458" stroke="hsl(0.0,100%,35%)" stroke-width="0.00145"></path>
<path d="M0.530 0.681 Q1.086 0.714 1.272 0.450" stroke="hsl(0.0,100%,35%)" stroke-width="0.00145"></path>
<path d="M0.530 0.681 Q0.798 0.348 0.208 0.144" stroke="hsl(0.0,100%,35%)" stroke-width="0.00145"></path>
<path d="M0.653 0.548 Q0.485 0.590 0.530 0.681" stroke="hsl(0.0,100%,35%)" stroke-width="0.01734"></path>
<path d="M0.653 0.548 Q0.444 0.414 0.137 0.487" stroke="hsl(0.0,100%,35%)" stroke-width="0.00289"></path>
<path d="M0.653 0.548 Q0.999 0.536 1.051 0.365" stroke="hsl(0.0,100%,35%)" stroke-width="0.00145"></path>
<path d="M0.653 0.548 Q1.276 0.409 1.141 0.075" stroke="hsl(0.0,100%,35%)" stroke-width="0.00578"></path>
<path d="M0.653 0.548 Q0.695 0.685 0.972 0.695" stroke="hsl(0.0,100%,35%)" stroke-width="0.00145"></path>
<path d="M0.653 0.548 Q0.687 0.370 0.348 0.314" stroke="hsl(0.0,100%,35%)" stroke-width="0.00289"></path>
<path d="M0.653 0.548 Q1.406 0.694 1.857 0.359" stroke="hsl(0.0,100%,35%)" stroke-width="0.00145"></path>
<path d="M0.653 0.548 Q1.297 0.494 1.333 0.168" stroke="hsl(0.0,100%,35%)" stroke-width="0.00145"></path>
<path d="M0.653 0.548 Q0.598 0.452 0.398 0.458" stroke="hsl(0.0,100%,35%)" stroke-width="0.00289"></path>
<path d="M1.141 0.075 Q1.163 0.160 1.333 0.168" stroke="hsl(0.0,100%,35%)" stroke-width="0.01445"></path>
<path d="M1.141 0.075 Q0.351 0.256 0.530 0.681" stroke="hsl(0.0,100%,35%)" stroke-width="0.00578"></path>
<path d="M1.141 0.075 Q0.519 0.214 0.653 0.548" stroke="hsl(0.0,100%,35%)" stroke-width="0.01156"></path>
<path d="M1.141 0.075 Q0.561 0.351 0.972 0.695" stroke="hsl(0.0,100%,35%)" stroke-width="0.00434"></path>
<path d="M1.141 0.075 Q1.272 0.360 1.857 0.359" stroke="hsl(0.0,100%,35%)" stroke-width="0.00289"></path>
<path d="M1.141 0.075 Q0.183 0.208 0.233 0.705" stroke="hsl(0.0,100%,35%)" stroke-width="0.00145"></path>
<path d="M1.141 0.075 Q1.170 0.266 1.549 0.295" stroke="hsl(0.0,100%,35%)" stroke-width="0.00145"></path>
<path d="M1.141 0.075 Q0.553 0.036 0.348 0.314" stroke="hsl(0.0,100%,35%)" stroke-width="0.00578"></path>
<path d="M1.141 0.075 Q0.776 0.136 0.815 0.327" stroke="hsl(0.0,100%,35%)" stroke-width="0.00434"></path>
<path d="M1.141 0.075 Q0.910 0.067 0.843 0.178" stroke="hsl(0.0,100%,35%)" stroke-width="0.00145"></path>
<path d="M1.546 0.083 Q1.372 0.083 1.333 0.168" stroke="hsl(0.0,100%,35%)" stroke-width="0.01301"></path>
<path d="M1.546 0.083 Q0.519 0.003 0.137 0.487" stroke="hsl(0.0,100%,35%)" stroke-width="0.00145"></path>
<path d="M1.546 0.083 Q0.560 0.179 0.530 0.681" stroke="hsl(0.0,100%,35%)" stroke-width="0.00145"></path>
<path d="M1.546 0.083 Q0.728 0.137 0.653 0.548" stroke="hsl(0.0,100%,35%)" stroke-width="0.00145"></path>
<path d="M1.857 0.359 Q1.296 -0.026 0.421 0.163" stroke="hsl(180.0,100%,35%)" stroke-width="0.00145"></path>
<path d="M1.857 0.359 Q1.146 0.350 0.972 0.695" stroke="hsl(180.0,100%,35%)" stroke-width="0.00289"></path>
<path d="M1.857 0.359 Q1.755 0.265 1.549 0.295" stroke="hsl(180.0,100%,35%)" stroke-width="0.01301"></path>
<path d="M1.857 0.359 Q1.727 0.074 1.141 0.075" stroke="hsl(180.0,100%,35%)" stroke-width="0.00434"></path>
<path d="M1.857 0.359 Q1.673 0.413 1.738 0.515" stroke="hsl(180.0,100%,35%)" stroke-width="0.01301"></path>
<path d="M1.857 0.359 Q1.450 0.201 1.051 0.365" stroke="hsl(180.0,100%,35%)" stroke-width="0.00723"></path>
<path d="M1.857 0.359 Q1.104 0.213 0.653 0.548" stroke="hsl(180.0,100%,35%)" stroke-width="0.00145"></path>
<path d="M1.857 0.359 Q1.138 0.035 0.348 0.314" stroke="hsl(180.0,100%,35%)" stroke-width="0.00434"></path>
<path d="M1.857 0.359 Q1.049 0.117 0.398 0.458" stroke="hsl(180.0,100%,35%)" stroke-width="0.00145"></path>
<path d="M1.857 0.359 Q1.653 0.315 1.522 0.405" stroke="hsl(180.0,100%,35%)" stroke-width="0.00145"></path>
<path d="M0.233 0.705 Q0.569 0.711 0.653 0.548" stroke="hsl(0.0,100%,35%)" stroke-width="0.00145"></path>
<path d="M0.233 0.705 Q0.401 0.753 0.530 0.681" stroke="hsl(0.0,100%,35%)" stroke-width="0.00723"></path>
<path d="M0.233 0.705 Q0.611 0.848 0.972 0.695" stroke="hsl(0.0,100%,35%)" stroke-width="0.00145"></path>
<path d="M0.233 0.705 Q1.192 0.572 1.141 0.075" stroke="hsl(0.0,100%,35%)" stroke-width="0.00723"></path>
<path d="M0.633 0.269 Q0.678 0.335 0.815 0.327" stroke="hsl(180.0,100%,35%)" stroke-width="0.00578"></path>
<path d="M0.633 0.269 Q0.766 0.401 1.051 0.365" stroke="hsl(180.0,100%,35%)" stroke-width="0.00145"></path>
<path d="M0.633 0.269 Q1.071 0.465 1.549 0.295" stroke="hsl(180.0,100%,35%)" stroke-width="0.00145"></path>
<path d="M0.633 0.269 Q0.455 0.235 0.348 0.314" stroke="hsl(180.0,100%,35%)" stroke-width="0.00145"></path>
<path d="M1.549 0.295 Q1.287 0.317 1.272 0.450" stroke="hsl(180.0,100%,35%)" stroke-width="0.00434"></path>
<path d="M1.549 0.295 Q1.091 0.003 0.421 0.163" stroke="hsl(180.0,100%,35%)" stroke-width="0.00145"></path>
<path d="M1.549 0.295 Q1.244 0.230 1.051 0.365" stroke="hsl(180.0,100%,35%)" stroke-width="0.00145"></path>
<path d="M1.549 0.295 Q0.899 0.242 0.653 0.548" stroke="hsl(180.0,100%,35%)" stroke-width="0.00145"></path>
<path d="M1.549 0.295 Q1.468 0.442 1.738 0.515" stroke="hsl(180.0,100%,35%)" stroke-width="0.00578"></path>
<path d="M1.549 0.295 Q0.933 0.064 0.348 0.314" stroke="hsl(180.0,100%,35%)" stroke-width="0.00289"></path>
<path d="M1.549 0.295 Q0.941 0.379 0.972 0.695" stroke="hsl(180.0,100%,35%)" stroke-width="0.00145"></path>
<path d="M1.549 0.295 Q1.651 0.388 1.857 0.359" stroke="hsl(180.0,100%,35%)" stroke-width="0.00145"></path>
<path d="M0.348 0.314 Q0.145 0.534 0.530 0.681" stroke="hsl(0.0,100%,35%)" stroke-width="0.04336"></path>
<path d="M0.348 0.314 Q0.355 0.630 0.972 0.695" stroke="hsl(0.0,100%,35%)" stroke-width="0.00145"></path>
<path d="M0.348 0.314 Q0.964 0.545 1.549 0.295" stroke="hsl(0.0,100%,35%)" stroke-width="0.00289"></path>
<path d="M0.348 0.314 Q0.258 0.396 0.398 0.458" stroke="hsl(0.0,100%,35%)" stroke-width="0.00578"></path>
<path d="M0.348 0.314 Q0.574 0.561 1.105 0.505" stroke="hsl(0.0,100%,35%)" stroke-width="0.00289"></path>
<path d="M0.972 0.695 Q0.931 0.558 0.653 0.548" stroke="hsl(0.0,100%,35%)" stroke-width="0.00289"></path>
<path d="M0.972 0.695 Q1.553 0.419 1.141 0.075" stroke="hsl(0.0,100%,35%)" stroke-width="0.00578"></path>
<path d="M0.972 0.695 Q1.581 0.610 1.549 0.295" stroke="hsl(0.0,100%,35%)" stroke-width="0.00434"></path>
<path d="M0.972 0.695 Q0.832 0.673 0.757 0.736" stroke="hsl(0.0,100%,35%)" stroke-width="0.00434"></path>
<path d="M0.972 0.695 Q0.762 0.600 0.530 0.681" stroke="hsl(0.0,100%,35%)" stroke-width="0.00145"></path>
<path d="M0.972 0.695 Q1.287 0.349 0.682 0.120" stroke="hsl(0.0,100%,35%)" stroke-width="0.00145"></path>
<path d="M1.528 0.486 Q1.386 0.330 1.051 0.365" stroke="hsl(180.0,100%,35%)" stroke-width="0.00434"></path>
<path d="M1.528 0.486 Q1.610 0.542 1.738 0.515" stroke="hsl(180.0,100%,35%)" stroke-width="0.00289"></path>
<path d="M1.528 0.486 Q1.794 0.488 1.857 0.359" stroke="hsl(180.0,100%,35%)" stroke-width="0.00145"></path>
<path d="M1.738 0.515 Q1.361 0.075 0.421 0.163" stroke="hsl(180.0,100%,35%)" stroke-width="0.00434"></path>
<path d="M1.738 0.515 Q1.514 0.302 1.051 0.365" stroke="hsl(180.0,100%,35%)" stroke-width="0.00145"></path>
<path d="M1.738 0.515 Q1.820 0.367 1.549 0.295" stroke="hsl(180.0,100%,35%)" stroke-width="0.00289"></path>
<path d="M1.738 0.515 Q1.429 0.383 1.105 0.505" stroke="hsl(180.0,100%,35%)" stroke-width="0.00145"></path>
<path d="M1.738 0.515 Q1.203 0.136 0.348 0.314" stroke="hsl(180.0,100%,35%)" stroke-width="0.00145"></path>
<path d="M1.738 0.515 Q1.656 0.458 1.528 0.486" stroke="hsl(180.0,100%,35%)" stroke-width="0.00289"></path>
<path d="M1.738 0.515 Q1.557 0.389 1.272 0.450" stroke="hsl(180.0,100%,35%)" stroke-width="0.00434"></path>
<path d="M1.738 0.515 Q1.211 0.452 0.972 0.695" stroke="hsl(180.0,100%,35%)" stroke-width="0.00145"></path>
<path d="M1.738 0.515 Q1.525 0.106 0.682 0.120" stroke="hsl(180.0,100%,35%)" stroke-width="0.00145"></path>
<path d="M0.398 0.458 Q0.488 0.376 0.348 0.314" stroke="hsl(0.0,100%,35%)" stroke-width="0.00578"></path>
<path d="M0.398 0.458 Q0.285 0.596 0.530 0.681" stroke="hsl(0.0,100%,35%)" stroke-width="0.00145"></path>
<path d="M0.398 0.458 Q0.244 0.420 0.137 0.487" stroke="hsl(0.0,100%,35%)" stroke-width="0.00145"></path>
<path d="M1.105 0.505 Q0.845 0.436 0.653 0.548" stroke="hsl(180.0,100%,35%)" stroke-width="0.00145"></path>
<path d="M1.105 0.505 Q1.414 0.636 1.738 0.515" stroke="hsl(180.0,100%,35%)" stroke-width="0.00434"></path>
<path d="M1.105 0.505 Q0.879 0.258 0.348 0.314" stroke="hsl(180.0,100%,35%)" stroke-width="0.00289"></path>
<path d="M1.105 0.505 Q1.496 0.488 1.549 0.295" stroke="hsl(180.0,100%,35%)" stroke-width="0.00434"></path>
<path d="M1.105 0.505 Q1.233 0.511 1.272 0.450" stroke="hsl(180.0,100%,35%)" stroke-width="0.00578"></path>
<path d="M1.105 0.505 Q1.467 0.297 1.141 0.075" stroke="hsl(180.0,100%,35%)" stroke-width="0.00289"></path>
<path d="M0.421 0.163 Q0.617 0.476 1.272 0.450" stroke="hsl(180.0,100%,35%)" stroke-width="0.00145"></path>
<path d="M0.421 0.163 Q0.586 0.193 0.682 0.120" stroke="hsl(180.0,100%,35%)" stroke-width="0.00434"></path>
<path d="M0.421 0.163 Q0.442 0.258 0.633 0.269" stroke="hsl(180.0,100%,35%)" stroke-width="0.00145"></path>
<path d="M0.421 0.163 Q0.487 0.324 0.815 0.327" stroke="hsl(180.0,100%,35%)" stroke-width="0.00145"></path>
<path d="M0.137 0.487 Q0.178 0.662 0.530 0.681" stroke="hsl(0.0,100%,35%)" stroke-width="0.00867"></path>
<path d="M0.137 0.487 Q0.346 0.620 0.653 0.548" stroke="hsl(0.0,100%,35%)" stroke-width="0.00434"></path>
<path d="M0.137 0.487 Q0.969 0.482 1.141 0.075" stroke="hsl(0.0,100%,35%)" stroke-width="0.00289"></path>
<path d="M1.852 0.872 Q2.163 0.522 1.549 0.295" stroke="hsl(180.0,100%,35%)" stroke-width="0.00289"></path>
<path d="M1.852 0.872 Q1.585 0.837 1.458 0.959" stroke="hsl(180.0,100%,35%)" stroke-width="0.00434"></path>
<path d="M1.852 0.872 Q1.769 0.392 0.815 0.327" stroke="hsl(180.0,100%,35%)" stroke-width="0.00145"></path>
<path d="M1.852 0.872 Q1.512 0.470 0.653 0.548" stroke="hsl(180.0,100%,35%)" stroke-width="0.00145"></path>
<path d="M1.458 0.959 Q1.331 0.890 1.168 0.936" stroke="hsl(180.0,100%,35%)" stroke-width="0.00145"></path>
<path d="M1.458 0.959 Q2.175 0.615 1.661 0.190" stroke="hsl(180.0,100%,35%)" stroke-width="0.00434"></path>
<path d="M1.458 0.959 Q1.741 0.385 0.682 0.120" stroke="hsl(180.0,100%,35%)" stroke-width="0.00145"></path>
<path d="M1.458 0.959 Q1.617 0.810 1.360 0.700" stroke="hsl(180.0,100%,35%)" stroke-width="0.00289"></path>
<path d="M1.458 0.959 Q1.385 0.593 0.653 0.548" stroke="hsl(180.0,100%,35%)" stroke-width="0.00145"></path>
<path d="M1.661 0.190 Q1.522 0.220 1.549 0.295" stroke="hsl(180.0,100%,35%)" stroke-width="0.01301"></path>
<path d="M1.661 0.190 Q1.128 0.089 0.815 0.327" stroke="hsl(180.0,100%,35%)" stroke-width="0.00145"></path>
<path d="M1.661 0.190 Q0.905 -0.011 0.348 0.314" stroke="hsl(180.0,100%,35%)" stroke-width="0.00867"></path>
<path d="M1.661 0.190 Q1.370 0.134 1.197 0.264" stroke="hsl(180.0,100%,35%)" stroke-width="0.00289"></path>
<path d="M1.661 0.190 Q0.815 0.071 0.398 0.458" stroke="hsl(180.0,100%,35%)" stroke-width="0.00145"></path>
<path d="M1.197 0.264 Q0.955 0.219 0.815 0.327" stroke="hsl(180.0,100%,35%)" stroke-width="0.01012"></path>
<path d="M1.197 0.264 Q1.043 0.285 1.051 0.365" stroke="hsl(180.0,100%,35%)" stroke-width="0.00867"></path>
<path d="M1.197 0.264 Q1.089 0.150 0.843 0.178" stroke="hsl(180.0,100%,35%)" stroke-width="0.00145"></path>
<path d="M1.197 0.264 Q1.054 0.089 0.682 0.120" stroke="hsl(180.0,100%,35%)" stroke-width="0.00145"></path>
<path d="M1.197 0.264 Q0.732 0.119 0.348 0.314" stroke="hsl(180.0,100%,35%)" stroke-width="0.00289"></path>
<path d="M1.197 0.264 Q1.342 0.243 1.333 0.168" stroke="hsl(180.0,100%,35%)" stroke-width="0.00145"></path>
<path d="M1.197 0.264 Q0.530 0.339 0.530 0.681" stroke="hsl(180.0,100%,35%)" stroke-width="0.00145"></path>
<path d="M1.197 0.264 Q1.267 0.497 1.738 0.515" stroke="hsl(180.0,100%,35%)" stroke-width="0.00145"></path>
<path d="M1.197 0.264 Q1.247 0.399 1.522 0.405" stroke="hsl(180.0,100%,35%)" stroke-width="0.00145"></path>
<path d="M1.609 0.728 Q1.611 0.795 1.742 0.809" stroke="hsl(0.0,100%,35%)" stroke-width="0.01590"></path>
<path d="M1.609 0.728 Q1.107 0.489 0.530 0.681" stroke="hsl(0.0,100%,35%)" stroke-width="0.00578"></path>
<path d="M1.609 0.728 Q1.920 0.393 1.333 0.168" stroke="hsl(0.0,100%,35%)" stroke-width="0.00145"></path>
<path d="M1.609 0.728 Q1.825 0.549 1.522 0.405" stroke="hsl(0.0,100%,35%)" stroke-width="0.00145"></path>
<path d="M1.609 0.728 Q1.664 0.522 1.272 0.450" stroke="hsl(0.0,100%,35%)" stroke-width="0.00289"></path>
<path d="M1.609 0.728 Q1.310 0.269 0.348 0.314" stroke="hsl(0.0,100%,35%)" stroke-width="0.00289"></path>
<path d="M1.609 0.728 Q1.220 0.351 0.398 0.458" stroke="hsl(0.0,100%,35%)" stroke-width="0.00289"></path>
<path d="M1.609 0.728 Q1.898 0.308 1.141 0.075" stroke="hsl(0.0,100%,35%)" stroke-width="0.00145"></path>
<path d="M1.609 0.728 Q1.927 0.500 1.549 0.295" stroke="hsl(0.0,100%,35%)" stroke-width="0.00145"></path>
<path d="M0.208 0.144 Q0.758 0.488 1.549 0.295" stroke="hsl(180.0,100%,35%)" stroke-width="0.01590"></path>
<path d="M0.208 0.144 Q0.142 0.257 0.348 0.314" stroke="hsl(180.0,100%,35%)" stroke-width="0.00289"></path>
<path d="M0.208 0.144 Q0.751 0.381 1.333 0.168" stroke="hsl(180.0,100%,35%)" stroke-width="0.00145"></path>
<path d="M0.208 0.144 Q0.300 0.196 0.421 0.163" stroke="hsl(180.0,100%,35%)" stroke-width="0.01156"></path>
<path d="M0.208 0.144 Q0.860 0.582 1.857 0.359" stroke="hsl(180.0,100%,35%)" stroke-width="0.00145"></path>
<path d="M0.208 0.144 Q0.368 0.504 1.105 0.505" stroke="hsl(180.0,100%,35%)" stroke-width="0.00145"></path>
<path d="M1.943 0.703 Q2.212 0.390 1.661 0.190" stroke="hsl(180.0,100%,35%)" stroke-width="0.00145"></path>
<path d="M1.943 0.703 Q2.026 0.622 1.887 0.564" stroke="hsl(180.0,100%,35%)" stroke-width="0.00145"></path>
<path d="M1.943 0.703 Q1.495 0.734 1.458 0.959" stroke="hsl(180.0,100%,35%)" stroke-width="0.00145"></path>
<path d="M0.306 0.569 Q0.531 0.450 0.348 0.314" stroke="hsl(0.0,100%,35%)" stroke-width="0.00145"></path>
<path d="M0.306 0.569 Q0.597 0.337 0.208 0.144" stroke="hsl(0.0,100%,35%)" stroke-width="0.00145"></path>
<path d="M0.306 0.569 Q0.328 0.670 0.530 0.681" stroke="hsl(0.0,100%,35%)" stroke-width="0.00434"></path>
<path d="M1.197 0.817 Q1.497 0.365 0.682 0.120" stroke="hsl(180.0,100%,35%)" stroke-width="0.00145"></path>
<path d="M1.197 0.817 Q1.528 0.648 1.272 0.450" stroke="hsl(180.0,100%,35%)" stroke-width="0.00145"></path>
<path d="M1.197 0.817 Q1.174 0.396 0.348 0.314" stroke="hsl(180.0,100%,35%)" stroke-width="0.00145"></path>
<path d="M1.197 0.817 Q1.213 0.940 1.458 0.959" stroke="hsl(180.0,100%,35%)" stroke-width="0.00145"></path>
<path d="M0.745 0.895 Q0.599 0.868 0.514 0.934" stroke="hsl(0.0,100%,35%)" stroke-width="0.01590"></path>
<path d="M0.745 0.895 Q1.795 0.649 1.546 0.083" stroke="hsl(0.0,100%,35%)" stroke-width="0.00145"></path>
<path d="M0.745 0.895 Q0.591 0.762 0.297 0.807" stroke="hsl(0.0,100%,35%)" stroke-width="0.00145"></path>
<path d="M0.745 0.895 Q0.977 0.703 0.653 0.548" stroke="hsl(0.0,100%,35%)" stroke-width="0.00145"></path>
<path d="M0.745 0.895 Q1.011 0.525 0.348 0.314" stroke="hsl(0.0,100%,35%)" stroke-width="0.00145"></path>
<path d="M1.023 0.192 Q1.122 0.496 1.738 0.515" stroke="hsl(180.0,100%,35%)" stroke-width="0.00289"></path>
<path d="M1.023 0.192 Q1.176 0.157 1.141 0.075" stroke="hsl(180.0,100%,35%)" stroke-width="0.00434"></path>
<path d="M1.023 0.192 Q0.899 0.284 1.051 0.365" stroke="hsl(180.0,100%,35%)" stroke-width="0.00289"></path>
<path d="M1.023 0.192 Q0.587 0.118 0.348 0.314" stroke="hsl(180.0,100%,35%)" stroke-width="0.00145"></path>
<path d="M1.023 0.192 Q0.385 0.338 0.530 0.681" stroke="hsl(180.0,100%,35%)" stroke-width="0.00289"></path>
<path d="M1.023 0.192 Q1.306 0.442 1.857 0.359" stroke="hsl(180.0,100%,35%)" stroke-width="0.00145"></path>
</g>
<text x="1.333" y="0.147" font-size="0.041961" fill="hsl(0.0,100%,20%)">ahaas</text>
<text x="0.530" y="0.647" font-size="0.069178" fill="hsl(0.0,100%,20%)">mliedtke</text>
<text x="0.653" y="0.522" font-size="0.050728" fill="hsl(0.0,100%,20%)">jkummerow</text>
<text x="1.141" y="0.048" font-size="0.054586" fill="hsl(0.0,100%,20%)">clemensb</text>
<text x="1.546" y="0.070" font-size="0.026023" fill="hsl(0.0,100%,20%)">thibaudm</text>
<text x="1.857" y="0.337" font-size="0.044060" fill="hsl(180.0,100%,20%)">saelo</text>
<text x="0.233" y="0.691" font-size="0.029288" fill="hsl(0.0,100%,20%)">evih</text>
<text x="1.272" y="0.436" font-size="0.026877" fill="hsl(180.0,100%,20%)">verwaest</text>
<text x="0.682" y="0.110" font-size="0.020157" fill="hsl(180.0,100%,20%)">cbruni</text>
<text x="0.633" y="0.260" font-size="0.019005" fill="hsl(180.0,100%,20%)">bikineev</text>
<text x="0.815" y="0.313" font-size="0.027704" fill="hsl(180.0,100%,20%)">omerkatz</text>
<text x="1.051" y="0.350" font-size="0.030049" fill="hsl(180.0,100%,20%)">mlippautz</text>
<text x="1.549" y="0.269" font-size="0.051171" fill="hsl(180.0,100%,20%)">leszeks</text>
<text x="0.348" y="0.285" font-size="0.058960" fill="hsl(0.0,100%,20%)">dmercadier</text>
<text x="0.972" y="0.678" font-size="0.033596" fill="hsl(0.0,100%,20%)">machenbach</text>
<text x="0.843" y="0.173" font-size="0.009502" fill="hsl(180.0,100%,20%)">szuend</text>
<text x="1.528" y="0.476" font-size="0.019005" fill="hsl(180.0,100%,20%)">dinfuehr</text>
<text x="1.738" y="0.494" font-size="0.040315" fill="hsl(180.0,100%,20%)">ishell</text>
<text x="0.398" y="0.444" font-size="0.027704" fill="hsl(0.0,100%,20%)">nicohartmann</text>
<text x="1.105" y="0.490" font-size="0.029288" fill="hsl(180.0,100%,20%)">olivf</text>
<text x="0.421" y="0.148" font-size="0.029288" fill="hsl(180.0,100%,20%)">pthier</text>
<text x="0.137" y="0.471" font-size="0.031516" fill="hsl(0.0,100%,20%)">manoskouk</text>
<text x="1.852" y="0.863" font-size="0.017777" fill="hsl(180.0,100%,20%)">lpardosixtos</text>
<text x="1.458" y="0.947" font-size="0.024226" fill="hsl(180.0,100%,20%)">syg</text>
<text x="0.757" y="0.730" font-size="0.011638" fill="hsl(0.0,100%,20%)">liviurau</text>
<text x="1.661" y="0.174" font-size="0.032224" fill="hsl(180.0,100%,20%)">marja</text>
<text x="1.197" y="0.248" font-size="0.032224" fill="hsl(180.0,100%,20%)">nikolaos</text>
<text x="1.609" y="0.712" font-size="0.033596" fill="hsl(0.0,100%,20%)">mfarazma</text>
<text x="1.742" y="0.798" font-size="0.022285" fill="hsl(0.0,100%,20%)">junyan</text>
<text x="1.522" y="0.399" font-size="0.011638" fill="hsl(180.0,100%,20%)">sroettger</text>
<text x="0.208" y="0.127" font-size="0.034261" fill="hsl(180.0,100%,20%)">victorgomes</text>
<text x="1.943" y="0.697" font-size="0.011638" fill="hsl(180.0,100%,20%)">pkasting</text>
<text x="1.887" y="0.561" font-size="0.006719" fill="hsl(180.0,100%,20%)">pfaffe</text>
<text x="0.306" y="0.562" font-size="0.015024" fill="hsl(0.0,100%,20%)">sam.parker</text>
<text x="1.197" y="0.810" font-size="0.013438" fill="hsl(180.0,100%,20%)">seokho</text>
<text x="1.168" y="0.933" font-size="0.006719" fill="hsl(180.0,100%,20%)">gdeepti</text>
<text x="1.360" y="0.695" font-size="0.009502" fill="hsl(180.0,100%,20%)">adamk</text>
<text x="0.745" y="0.882" font-size="0.026023" fill="hsl(0.0,100%,20%)">yahan</text>
<text x="0.514" y="0.922" font-size="0.022285" fill="hsl(0.0,100%,20%)">qiuji</text>
<text x="0.297" y="0.804" font-size="0.006719" fill="hsl(0.0,100%,20%)">mseaborn</text>
<text x="1.023" y="0.181" font-size="0.022285" fill="hsl(180.0,100%,20%)">zhaojiazhong-hf</text>
</svg>
