<svg width="4000" height="2000" viewBox="-0.025 -0.025 2.05 1.05" xmlns="http://www.w3.org/2000/svg">
  <style>
    path {
      fill: none;
      stroke-linecap: round;
      stroke-opacity: 0.4;
    }

    text {
      text-anchor: middle;
      alignment-baseline: hanging;
    }
  </style>
  <g opacity="0.4">
<path d="M1.822 0.419 Q1.981 0.366 1.913 0.277" stroke="hsl(0.0,100%,35%)" stroke-width="0.01045"></path>
<path d="M1.822 0.419 Q1.567 0.269 1.218 0.360" stroke="hsl(0.0,100%,35%)" stroke-width="0.00448"></path>
<path d="M1.822 0.419 Q1.753 0.337 1.579 0.353" stroke="hsl(0.0,100%,35%)" stroke-width="0.00448"></path>
<path d="M1.822 0.419 Q1.031 0.545 1.103 0.958" stroke="hsl(0.0,100%,35%)" stroke-width="0.00149"></path>
<path d="M1.822 0.419 Q1.464 0.199 0.957 0.326" stroke="hsl(0.0,100%,35%)" stroke-width="0.00896"></path>
<path d="M1.822 0.419 Q1.976 0.188 1.559 0.062" stroke="hsl(0.0,100%,35%)" stroke-width="0.00149"></path>
<path d="M1.822 0.419 Q1.412 0.343 1.173 0.526" stroke="hsl(0.0,100%,35%)" stroke-width="0.00299"></path>
<path d="M1.822 0.419 Q1.290 0.170 0.688 0.374" stroke="hsl(0.0,100%,35%)" stroke-width="0.00149"></path>
<path d="M1.822 0.419 Q0.868 0.169 0.171 0.580" stroke="hsl(0.0,100%,35%)" stroke-width="0.00149"></path>
<path d="M1.913 0.277 Q1.992 0.191 1.842 0.134" stroke="hsl(0.0,100%,35%)" stroke-width="0.00149"></path>
<path d="M1.913 0.277 Q1.754 0.330 1.822 0.419" stroke="hsl(0.0,100%,35%)" stroke-width="0.01493"></path>
<path d="M1.913 0.277 Q1.396 0.110 0.957 0.326" stroke="hsl(0.0,100%,35%)" stroke-width="0.00299"></path>
<path d="M1.913 0.277 Q1.291 0.181 0.967 0.463" stroke="hsl(0.0,100%,35%)" stroke-width="0.00149"></path>
<path d="M1.218 0.360 Q1.063 0.434 1.173 0.526" stroke="hsl(0.0,100%,35%)" stroke-width="0.00299"></path>
<path d="M1.218 0.360 Q1.115 0.291 0.957 0.326" stroke="hsl(0.0,100%,35%)" stroke-width="0.01045"></path>
<path d="M1.218 0.360 Q1.327 0.548 1.719 0.537" stroke="hsl(0.0,100%,35%)" stroke-width="0.00149"></path>
<path d="M1.579 0.353 Q1.806 0.382 1.913 0.277" stroke="hsl(0.0,100%,35%)" stroke-width="0.00448"></path>
<path d="M1.579 0.353 Q1.042 0.087 0.405 0.290" stroke="hsl(0.0,100%,35%)" stroke-width="0.00597"></path>
<path d="M1.579 0.353 Q0.990 0.561 1.267 0.894" stroke="hsl(0.0,100%,35%)" stroke-width="0.00299"></path>
<path d="M1.579 0.353 Q1.116 0.185 0.688 0.374" stroke="hsl(0.0,100%,35%)" stroke-width="0.00299"></path>
<path d="M1.579 0.353 Q1.647 0.434 1.822 0.419" stroke="hsl(0.0,100%,35%)" stroke-width="0.02091"></path>
<path d="M1.579 0.353 Q1.237 0.358 1.173 0.526" stroke="hsl(0.0,100%,35%)" stroke-width="0.01195"></path>
<path d="M1.579 0.353 Q1.501 0.473 1.719 0.537" stroke="hsl(0.0,100%,35%)" stroke-width="0.00597"></path>
<path d="M1.579 0.353 Q1.070 0.409 1.069 0.670" stroke="hsl(0.0,100%,35%)" stroke-width="0.00299"></path>
<path d="M1.579 0.353 Q1.452 0.215 1.157 0.247" stroke="hsl(0.0,100%,35%)" stroke-width="0.00299"></path>
<path d="M1.579 0.353 Q1.289 0.215 0.957 0.326" stroke="hsl(0.0,100%,35%)" stroke-width="0.00597"></path>
<path d="M1.579 0.353 Q1.392 0.284 1.218 0.360" stroke="hsl(0.0,100%,35%)" stroke-width="0.00149"></path>
<path d="M0.957 0.326 Q0.905 0.469 1.173 0.526" stroke="hsl(0.0,100%,35%)" stroke-width="0.01045"></path>
<path d="M0.957 0.326 Q1.553 0.407 1.842 0.134" stroke="hsl(0.0,100%,35%)" stroke-width="0.00149"></path>
<path d="M0.957 0.326 Q1.008 0.409 1.182 0.402" stroke="hsl(0.0,100%,35%)" stroke-width="0.00149"></path>
<path d="M0.957 0.326 Q1.120 0.327 1.157 0.247" stroke="hsl(0.0,100%,35%)" stroke-width="0.00597"></path>
<path d="M0.957 0.326 Q0.852 0.397 0.967 0.463" stroke="hsl(0.0,100%,35%)" stroke-width="0.00597"></path>
<path d="M0.957 0.326 Q1.169 0.584 1.719 0.537" stroke="hsl(0.0,100%,35%)" stroke-width="0.00149"></path>
<path d="M0.957 0.326 Q1.060 0.395 1.218 0.360" stroke="hsl(0.0,100%,35%)" stroke-width="0.00597"></path>
<path d="M0.957 0.326 Q1.315 0.546 1.822 0.419" stroke="hsl(0.0,100%,35%)" stroke-width="0.00149"></path>
<path d="M0.957 0.326 Q1.246 0.464 1.579 0.353" stroke="hsl(0.0,100%,35%)" stroke-width="0.00149"></path>
<path d="M1.559 0.062 Q0.579 -0.077 0.093 0.371" stroke="hsl(120.0,100%,35%)" stroke-width="0.00747"></path>
<path d="M1.559 0.062 Q1.369 0.021 1.247 0.104" stroke="hsl(120.0,100%,35%)" stroke-width="0.00597"></path>
<path d="M1.559 0.062 Q1.405 0.293 1.822 0.419" stroke="hsl(120.0,100%,35%)" stroke-width="0.00149"></path>
<path d="M1.559 0.062 Q0.873 0.044 0.688 0.374" stroke="hsl(120.0,100%,35%)" stroke-width="0.00149"></path>
<path d="M1.559 0.062 Q0.748 0.420 1.267 0.894" stroke="hsl(120.0,100%,35%)" stroke-width="0.00149"></path>
<path d="M1.173 0.526 Q1.225 0.383 0.957 0.326" stroke="hsl(0.0,100%,35%)" stroke-width="0.01792"></path>
<path d="M1.173 0.526 Q1.514 0.520 1.579 0.353" stroke="hsl(0.0,100%,35%)" stroke-width="0.00597"></path>
<path d="M1.173 0.526 Q0.792 0.728 1.103 0.958" stroke="hsl(0.0,100%,35%)" stroke-width="0.00299"></path>
<path d="M1.173 0.526 Q1.120 0.453 0.967 0.463" stroke="hsl(0.0,100%,35%)" stroke-width="0.00299"></path>
<path d="M1.173 0.526 Q1.437 0.640 1.719 0.537" stroke="hsl(0.0,100%,35%)" stroke-width="0.00149"></path>
<path d="M1.173 0.526 Q1.388 0.383 1.157 0.247" stroke="hsl(0.0,100%,35%)" stroke-width="0.00149"></path>
<path d="M0.688 0.374 Q0.562 0.750 1.267 0.894" stroke="hsl(120.0,100%,35%)" stroke-width="0.00448"></path>
<path d="M0.688 0.374 Q0.614 0.276 0.405 0.290" stroke="hsl(120.0,100%,35%)" stroke-width="0.02539"></path>
<path d="M0.688 0.374 Q1.151 0.542 1.579 0.353" stroke="hsl(120.0,100%,35%)" stroke-width="0.00896"></path>
<path d="M0.688 0.374 Q0.393 0.254 0.093 0.371" stroke="hsl(120.0,100%,35%)" stroke-width="0.00747"></path>
<path d="M0.688 0.374 Q0.428 0.750 1.103 0.958" stroke="hsl(120.0,100%,35%)" stroke-width="0.01344"></path>
<path d="M0.688 0.374 Q0.861 0.404 0.957 0.326" stroke="hsl(120.0,100%,35%)" stroke-width="0.00149"></path>
<path d="M0.688 0.374 Q0.912 0.487 1.182 0.402" stroke="hsl(120.0,100%,35%)" stroke-width="0.00149"></path>
<path d="M0.688 0.374 Q1.073 0.662 1.719 0.537" stroke="hsl(120.0,100%,35%)" stroke-width="0.00448"></path>
<path d="M0.688 0.374 Q0.642 0.598 1.069 0.670" stroke="hsl(120.0,100%,35%)" stroke-width="0.00149"></path>
<path d="M0.688 0.374 Q0.717 0.418 0.808 0.413" stroke="hsl(120.0,100%,35%)" stroke-width="0.00149"></path>
<path d="M0.688 0.374 Q0.809 0.547 1.173 0.526" stroke="hsl(120.0,100%,35%)" stroke-width="0.00149"></path>
<path d="M0.688 0.374 Q1.024 0.405 1.157 0.247" stroke="hsl(120.0,100%,35%)" stroke-width="0.00299"></path>
<path d="M0.405 0.290 Q0.846 0.325 1.011 0.118" stroke="hsl(120.0,100%,35%)" stroke-width="0.00149"></path>
<path d="M0.405 0.290 Q0.220 0.764 1.103 0.958" stroke="hsl(120.0,100%,35%)" stroke-width="0.00299"></path>
<path d="M0.405 0.290 Q0.601 0.562 1.173 0.526" stroke="hsl(120.0,100%,35%)" stroke-width="0.00299"></path>
<path d="M0.405 0.290 Q0.509 0.432 0.808 0.413" stroke="hsl(120.0,100%,35%)" stroke-width="0.00448"></path>
<path d="M0.405 0.290 Q0.185 0.268 0.093 0.371" stroke="hsl(120.0,100%,35%)" stroke-width="0.00299"></path>
<path d="M0.405 0.290 Q0.976 0.366 1.247 0.104" stroke="hsl(120.0,100%,35%)" stroke-width="0.00149"></path>
<path d="M0.405 0.290 Q0.816 0.419 1.157 0.247" stroke="hsl(120.0,100%,35%)" stroke-width="0.00149"></path>
<path d="M0.405 0.290 Q0.354 0.764 1.267 0.894" stroke="hsl(120.0,100%,35%)" stroke-width="0.00299"></path>
<path d="M0.405 0.290 Q0.057 0.388 0.171 0.580" stroke="hsl(120.0,100%,35%)" stroke-width="0.00149"></path>
<path d="M1.267 0.894 Q1.134 0.893 1.103 0.958" stroke="hsl(120.0,100%,35%)" stroke-width="0.00597"></path>
<path d="M1.267 0.894 Q1.515 0.691 1.173 0.526" stroke="hsl(120.0,100%,35%)" stroke-width="0.00299"></path>
<path d="M1.267 0.894 Q1.729 0.548 1.157 0.247" stroke="hsl(120.0,100%,35%)" stroke-width="0.00597"></path>
<path d="M1.267 0.894 Q1.319 0.420 0.405 0.290" stroke="hsl(120.0,100%,35%)" stroke-width="0.00299"></path>
<path d="M1.719 0.537 Q1.631 0.440 1.424 0.462" stroke="hsl(0.0,100%,35%)" stroke-width="0.00747"></path>
<path d="M1.719 0.537 Q1.506 0.279 0.957 0.326" stroke="hsl(0.0,100%,35%)" stroke-width="0.00149"></path>
<path d="M1.719 0.537 Q1.455 0.422 1.173 0.526" stroke="hsl(0.0,100%,35%)" stroke-width="0.00896"></path>
<path d="M1.719 0.537 Q1.796 0.417 1.579 0.353" stroke="hsl(0.0,100%,35%)" stroke-width="0.00747"></path>
<path d="M1.719 0.537 Q1.039 0.129 0.093 0.371" stroke="hsl(0.0,100%,35%)" stroke-width="0.00149"></path>
<path d="M1.157 0.247 Q0.942 0.390 1.173 0.526" stroke="hsl(0.0,100%,35%)" stroke-width="0.00299"></path>
<path d="M1.157 0.247 Q0.993 0.247 0.957 0.326" stroke="hsl(0.0,100%,35%)" stroke-width="0.04181"></path>
<path d="M1.157 0.247 Q1.045 0.330 1.182 0.402" stroke="hsl(0.0,100%,35%)" stroke-width="0.00597"></path>
<path d="M1.157 0.247 Q1.206 0.504 1.719 0.537" stroke="hsl(0.0,100%,35%)" stroke-width="0.00149"></path>
<path d="M1.157 0.247 Q0.526 0.096 0.093 0.371" stroke="hsl(0.0,100%,35%)" stroke-width="0.00149"></path>
<path d="M1.182 0.402 Q1.294 0.320 1.157 0.247" stroke="hsl(0.0,100%,35%)" stroke-width="0.00448"></path>
<path d="M1.182 0.402 Q1.079 0.462 1.173 0.526" stroke="hsl(0.0,100%,35%)" stroke-width="0.00149"></path>
<path d="M1.182 0.402 Q1.130 0.319 0.957 0.326" stroke="hsl(0.0,100%,35%)" stroke-width="0.00299"></path>
<path d="M1.182 0.402 Q1.489 0.539 1.822 0.419" stroke="hsl(0.0,100%,35%)" stroke-width="0.00299"></path>
<path d="M0.093 0.371 Q-0.035 0.491 0.171 0.580" stroke="hsl(120.0,100%,35%)" stroke-width="0.01195"></path>
<path d="M0.093 0.371 Q0.021 0.430 0.121 0.478" stroke="hsl(120.0,100%,35%)" stroke-width="0.00149"></path>
<path d="M0.093 0.371 Q0.314 0.393 0.405 0.290" stroke="hsl(120.0,100%,35%)" stroke-width="0.00597"></path>
<path d="M0.093 0.371 Q0.417 0.535 0.808 0.413" stroke="hsl(120.0,100%,35%)" stroke-width="0.00149"></path>
<path d="M0.093 0.371 Q0.128 0.867 1.103 0.958" stroke="hsl(120.0,100%,35%)" stroke-width="0.00149"></path>
<path d="M0.093 0.371 Q0.509 0.664 1.173 0.526" stroke="hsl(120.0,100%,35%)" stroke-width="0.00149"></path>
<path d="M0.093 0.371 Q0.724 0.522 1.157 0.247" stroke="hsl(120.0,100%,35%)" stroke-width="0.00149"></path>
<path d="M0.093 0.371 Q0.773 0.779 1.719 0.537" stroke="hsl(120.0,100%,35%)" stroke-width="0.00149"></path>
<path d="M0.093 0.371 Q0.388 0.492 0.688 0.374" stroke="hsl(120.0,100%,35%)" stroke-width="0.00149"></path>
<path d="M1.011 0.118 Q0.905 0.111 0.870 0.162" stroke="hsl(120.0,100%,35%)" stroke-width="0.00149"></path>
<path d="M1.011 0.118 Q1.329 0.199 1.559 0.062" stroke="hsl(120.0,100%,35%)" stroke-width="0.00149"></path>
<path d="M1.011 0.118 Q0.778 0.070 0.634 0.172" stroke="hsl(120.0,100%,35%)" stroke-width="0.00149"></path>
<path d="M1.011 0.118 Q0.886 0.039 0.705 0.083" stroke="hsl(120.0,100%,35%)" stroke-width="0.00299"></path>
<path d="M1.011 0.118 Q0.319 0.414 0.744 0.816" stroke="hsl(120.0,100%,35%)" stroke-width="0.00149"></path>
<path d="M1.247 0.104 Q1.088 0.157 1.157 0.247" stroke="hsl(120.0,100%,35%)" stroke-width="0.01195"></path>
<path d="M1.247 0.104 Q0.457 0.007 0.093 0.371" stroke="hsl(120.0,100%,35%)" stroke-width="0.00299"></path>
<path d="M1.247 0.104 Q0.873 0.300 1.173 0.526" stroke="hsl(120.0,100%,35%)" stroke-width="0.00149"></path>
<path d="M1.247 0.104 Q0.677 0.029 0.405 0.290" stroke="hsl(120.0,100%,35%)" stroke-width="0.00448"></path>
<path d="M0.967 0.463 Q1.020 0.536 1.173 0.526" stroke="hsl(0.0,100%,35%)" stroke-width="0.01045"></path>
<path d="M0.967 0.463 Q1.589 0.559 1.913 0.277" stroke="hsl(0.0,100%,35%)" stroke-width="0.00149"></path>
<path d="M0.967 0.463 Q1.071 0.392 0.957 0.326" stroke="hsl(0.0,100%,35%)" stroke-width="0.01344"></path>
<path d="M1.761 0.643 Q1.704 0.715 1.832 0.758" stroke="hsl(120.0,100%,35%)" stroke-width="0.00747"></path>
<path d="M1.761 0.643 Q1.612 0.651 1.596 0.726" stroke="hsl(120.0,100%,35%)" stroke-width="0.00896"></path>
<path d="M1.761 0.643 Q1.393 0.518 1.069 0.670" stroke="hsl(120.0,100%,35%)" stroke-width="0.00299"></path>
<path d="M0.901 0.065 Q0.252 0.056 0.093 0.371" stroke="hsl(120.0,100%,35%)" stroke-width="0.00149"></path>
<path d="M0.901 0.065 Q0.914 0.113 1.011 0.118" stroke="hsl(120.0,100%,35%)" stroke-width="0.00299"></path>
<path d="M0.901 0.065 Q0.501 0.401 1.069 0.670" stroke="hsl(120.0,100%,35%)" stroke-width="0.00149"></path>
<path d="M0.901 0.065 Q0.668 0.350 1.173 0.526" stroke="hsl(120.0,100%,35%)" stroke-width="0.00149"></path>
<path d="M0.705 0.083 Q0.800 0.255 1.157 0.247" stroke="hsl(120.0,100%,35%)" stroke-width="0.00299"></path>
<path d="M0.705 0.083 Q0.390 0.127 0.405 0.290" stroke="hsl(120.0,100%,35%)" stroke-width="0.00299"></path>
<path d="M0.705 0.083 Q0.637 0.255 0.957 0.326" stroke="hsl(120.0,100%,35%)" stroke-width="0.00149"></path>
<path d="M0.705 0.083 Q1.149 0.243 1.559 0.062" stroke="hsl(120.0,100%,35%)" stroke-width="0.00149"></path>
<path d="M0.705 0.083 Q0.338 0.601 1.267 0.894" stroke="hsl(120.0,100%,35%)" stroke-width="0.00149"></path>
<path d="M0.705 0.083 Q0.169 0.105 0.093 0.371" stroke="hsl(120.0,100%,35%)" stroke-width="0.00299"></path>
<path d="M0.705 0.083 Q0.418 0.449 1.069 0.670" stroke="hsl(120.0,100%,35%)" stroke-width="0.00149"></path>
<path d="M0.613 0.606 Q0.539 0.508 0.333 0.523" stroke="hsl(240.0,100%,35%)" stroke-width="0.01493"></path>
<path d="M0.613 0.606 Q1.172 0.535 1.157 0.247" stroke="hsl(240.0,100%,35%)" stroke-width="0.00299"></path>
<path d="M0.613 0.606 Q1.060 0.618 1.182 0.402" stroke="hsl(240.0,100%,35%)" stroke-width="0.00149"></path>
<path d="M0.613 0.606 Q0.541 0.384 0.093 0.371" stroke="hsl(240.0,100%,35%)" stroke-width="0.00149"></path>
<path d="M0.613 0.606 Q1.009 0.535 0.957 0.326" stroke="hsl(240.0,100%,35%)" stroke-width="0.00299"></path>
<path d="M0.613 0.606 Q1.367 0.754 1.822 0.419" stroke="hsl(240.0,100%,35%)" stroke-width="0.00149"></path>
<path d="M0.613 0.606 Q0.337 0.661 0.384 0.808" stroke="hsl(240.0,100%,35%)" stroke-width="0.00149"></path>
<path d="M0.613 0.606 Q0.413 0.504 0.171 0.580" stroke="hsl(240.0,100%,35%)" stroke-width="0.00149"></path>
<path d="M0.979 0.803 Q1.131 0.755 1.069 0.670" stroke="hsl(120.0,100%,35%)" stroke-width="0.00747"></path>
<path d="M0.979 0.803 Q1.349 0.888 1.596 0.726" stroke="hsl(120.0,100%,35%)" stroke-width="0.00299"></path>
<path d="M0.979 0.803 Q0.851 0.763 0.744 0.816" stroke="hsl(120.0,100%,35%)" stroke-width="0.00597"></path>
<path d="M0.979 0.803 Q0.917 0.906 1.103 0.958" stroke="hsl(120.0,100%,35%)" stroke-width="0.00149"></path>
<path d="M0.979 0.803 Q1.513 0.561 1.157 0.247" stroke="hsl(120.0,100%,35%)" stroke-width="0.00299"></path>
<path d="M0.979 0.803 Q1.708 0.780 1.822 0.419" stroke="hsl(120.0,100%,35%)" stroke-width="0.00149"></path>
<path d="M0.979 0.803 Q1.350 0.560 0.957 0.326" stroke="hsl(120.0,100%,35%)" stroke-width="0.00149"></path>
<path d="M0.960 0.634 Q1.273 0.308 0.705 0.083" stroke="hsl(120.0,100%,35%)" stroke-width="0.00149"></path>
<path d="M0.960 0.634 Q0.812 0.615 0.742 0.683" stroke="hsl(120.0,100%,35%)" stroke-width="0.00149"></path>
<path d="M0.960 0.634 Q1.399 0.386 1.011 0.118" stroke="hsl(120.0,100%,35%)" stroke-width="0.00149"></path>
<path d="M0.121 0.213 Q0.311 0.188 0.305 0.090" stroke="hsl(0.0,100%,35%)" stroke-width="0.01195"></path>
<path d="M0.121 0.213 Q0.965 0.603 1.913 0.277" stroke="hsl(0.0,100%,35%)" stroke-width="0.00149"></path>
<path d="M0.121 0.213 Q0.358 0.244 0.473 0.135" stroke="hsl(0.0,100%,35%)" stroke-width="0.00149"></path>
<path d="M0.121 0.213 Q0.396 0.580 1.173 0.526" stroke="hsl(0.0,100%,35%)" stroke-width="0.00149"></path>
<path d="M0.121 0.213 Q0.611 0.437 1.157 0.247" stroke="hsl(0.0,100%,35%)" stroke-width="0.00149"></path>
<path d="M1.206 0.834 Q1.055 0.875 1.103 0.958" stroke="hsl(120.0,100%,35%)" stroke-width="0.00299"></path>
<path d="M1.206 0.834 Q1.436 0.673 1.173 0.526" stroke="hsl(120.0,100%,35%)" stroke-width="0.00149"></path>
<path d="M1.206 0.834 Q1.241 0.402 0.405 0.290" stroke="hsl(120.0,100%,35%)" stroke-width="0.00299"></path>
<path d="M1.206 0.834 Q1.778 0.668 1.579 0.353" stroke="hsl(120.0,100%,35%)" stroke-width="0.00299"></path>
<path d="M1.206 0.834 Q1.651 0.530 1.157 0.247" stroke="hsl(120.0,100%,35%)" stroke-width="0.00149"></path>
</g>
<text x="1.822" y="0.394" font-size="0.050344" fill="hsl(0.0,100%,20%)">ahaas</text>
<text x="1.913" y="0.260" font-size="0.034614" fill="hsl(0.0,100%,20%)">thibaudm</text>
<text x="1.218" y="0.346" font-size="0.028801" fill="hsl(0.0,100%,20%)">evih</text>
<text x="1.579" y="0.325" font-size="0.055566" fill="hsl(0.0,100%,20%)">clemensb</text>
<text x="1.103" y="0.942" font-size="0.031841" fill="hsl(120.0,100%,20%)">mlippautz</text>
<text x="0.957" y="0.292" font-size="0.067884" fill="hsl(0.0,100%,20%)">mliedtke</text>
<text x="1.559" y="0.049" font-size="0.026292" fill="hsl(120.0,100%,20%)">victorgomes</text>
<text x="1.173" y="0.498" font-size="0.055566" fill="hsl(0.0,100%,20%)">jkummerow</text>
<text x="0.688" y="0.349" font-size="0.050344" fill="hsl(120.0,100%,20%)">saelo</text>
<text x="0.171" y="0.568" font-size="0.022515" fill="hsl(120.0,100%,20%)">verwaest</text>
<text x="0.405" y="0.267" font-size="0.047519" fill="hsl(120.0,100%,20%)">ishell</text>
<text x="1.267" y="0.878" font-size="0.031109" fill="hsl(120.0,100%,20%)">dinfuehr</text>
<text x="1.719" y="0.518" font-size="0.037182" fill="hsl(0.0,100%,20%)">machenbach</text>
<text x="1.069" y="0.658" font-size="0.023516" fill="hsl(120.0,100%,20%)">omerkatz</text>
<text x="1.157" y="0.219" font-size="0.056796" fill="hsl(0.0,100%,20%)">dmercadier</text>
<text x="1.182" y="0.389" font-size="0.026292" fill="hsl(0.0,100%,20%)">nicohartmann</text>
<text x="0.093" y="0.350" font-size="0.042394" fill="hsl(120.0,100%,20%)">leszeks</text>
<text x="1.011" y="0.107" font-size="0.021467" fill="hsl(120.0,100%,20%)">syg</text>
<text x="0.808" y="0.405" font-size="0.015179" fill="hsl(120.0,100%,20%)">pthier</text>
<text x="1.247" y="0.089" font-size="0.029590" fill="hsl(120.0,100%,20%)">olivf</text>
<text x="0.967" y="0.446" font-size="0.033256" fill="hsl(0.0,100%,20%)">manoskouk</text>
<text x="1.761" y="0.630" font-size="0.024476" fill="hsl(120.0,100%,20%)">leese</text>
<text x="1.832" y="0.751" font-size="0.015179" fill="hsl(120.0,100%,20%)">bmeurer</text>
<text x="1.596" y="0.716" font-size="0.019201" fill="hsl(120.0,100%,20%)">szuend</text>
<text x="0.121" y="0.475" font-size="0.006788" fill="hsl(120.0,100%,20%)">bikineev</text>
<text x="0.901" y="0.057" font-size="0.015179" fill="hsl(120.0,100%,20%)">lpardosixtos</text>
<text x="1.424" y="0.454" font-size="0.015179" fill="hsl(0.0,100%,20%)">liviurau</text>
<text x="0.705" y="0.071" font-size="0.024476" fill="hsl(120.0,100%,20%)">marja</text>
<text x="0.613" y="0.591" font-size="0.029590" fill="hsl(240.0,100%,20%)">mfarazma</text>
<text x="0.333" y="0.512" font-size="0.021467" fill="hsl(240.0,100%,20%)">junyan</text>
<text x="0.384" y="0.804" font-size="0.006788" fill="hsl(240.0,100%,20%)">sroettger</text>
<text x="1.842" y="0.129" font-size="0.009600" fill="hsl(0.0,100%,20%)">dlehmann</text>
<text x="0.979" y="0.790" font-size="0.027154" fill="hsl(120.0,100%,20%)">nikolaos</text>
<text x="0.744" y="0.809" font-size="0.015179" fill="hsl(120.0,100%,20%)">cbruni</text>
<text x="0.960" y="0.628" font-size="0.011758" fill="hsl(120.0,100%,20%)">pkasting</text>
<text x="0.742" y="0.679" font-size="0.006788" fill="hsl(120.0,100%,20%)">pfaffe</text>
<text x="0.870" y="0.158" font-size="0.006788" fill="hsl(120.0,100%,20%)">rezvan</text>
<text x="0.634" y="0.169" font-size="0.006788" fill="hsl(120.0,100%,20%)">gdeepti</text>
<text x="0.121" y="0.201" font-size="0.023516" fill="hsl(0.0,100%,20%)">yahan</text>
<text x="0.305" y="0.081" font-size="0.019201" fill="hsl(0.0,100%,20%)">qiuji</text>
<text x="0.473" y="0.132" font-size="0.006788" fill="hsl(0.0,100%,20%)">mseaborn</text>
<text x="1.206" y="0.824" font-size="0.019201" fill="hsl(120.0,100%,20%)">zhaojiazhong-hf</text>
</svg>
