<svg width="4000" height="2000" viewBox="-0.025 -0.025 2.05 1.05" xmlns="http://www.w3.org/2000/svg">
  <style>
    path {
      fill: none;
      stroke-linecap: round;
      stroke-opacity: 0.4;
    }

    text {
      text-anchor: middle;
      alignment-baseline: hanging;
    }
  </style>
  <g opacity="0.4">
<path d="M0.823 0.954 Q1.124 0.832 0.953 0.659" stroke="hsl(0.0,100%,35%)" stroke-width="0.00124"></path>
<path d="M0.823 0.954 Q1.478 0.885 1.486 0.550" stroke="hsl(0.0,100%,35%)" stroke-width="0.00124"></path>
<path d="M0.823 0.954 Q0.935 0.868 0.791 0.794" stroke="hsl(0.0,100%,35%)" stroke-width="0.00248"></path>
<path d="M0.823 0.954 Q1.548 0.821 1.448 0.439" stroke="hsl(0.0,100%,35%)" stroke-width="0.00496"></path>
<path d="M0.823 0.954 Q1.867 0.881 1.953 0.355" stroke="hsl(0.0,100%,35%)" stroke-width="0.00496"></path>
<path d="M0.823 0.954 Q0.808 0.714 0.336 0.669" stroke="hsl(0.0,100%,35%)" stroke-width="0.00124"></path>
<path d="M0.823 0.954 Q1.852 0.706 1.594 0.150" stroke="hsl(0.0,100%,35%)" stroke-width="0.00372"></path>
<path d="M0.823 0.954 Q1.370 1.071 1.718 0.830" stroke="hsl(0.0,100%,35%)" stroke-width="0.00124"></path>
<path d="M0.823 0.954 Q1.401 0.649 0.932 0.300" stroke="hsl(0.0,100%,35%)" stroke-width="0.00372"></path>
<path d="M1.486 0.550 Q1.957 0.461 1.887 0.212" stroke="hsl(180.0,100%,35%)" stroke-width="0.00372"></path>
<path d="M1.486 0.550 Q1.475 0.635 1.637 0.659" stroke="hsl(180.0,100%,35%)" stroke-width="0.00496"></path>
<path d="M1.486 0.550 Q1.875 0.546 1.953 0.355" stroke="hsl(180.0,100%,35%)" stroke-width="0.00124"></path>
<path d="M1.486 0.550 Q1.860 0.371 1.594 0.150" stroke="hsl(180.0,100%,35%)" stroke-width="0.00124"></path>
<path d="M1.486 0.550 Q1.556 0.487 1.448 0.439" stroke="hsl(180.0,100%,35%)" stroke-width="0.00372"></path>
<path d="M1.486 0.550 Q1.321 0.549 1.284 0.630" stroke="hsl(180.0,100%,35%)" stroke-width="0.00621"></path>
<path d="M1.486 0.550 Q1.394 0.488 1.252 0.519" stroke="hsl(180.0,100%,35%)" stroke-width="0.00248"></path>
<path d="M1.486 0.550 Q1.223 0.794 1.641 0.976" stroke="hsl(180.0,100%,35%)" stroke-width="0.00124"></path>
<path d="M1.486 0.550 Q1.278 0.413 0.965 0.485" stroke="hsl(180.0,100%,35%)" stroke-width="0.00248"></path>
<path d="M0.791 0.794 Q0.679 0.881 0.823 0.954" stroke="hsl(0.0,100%,35%)" stroke-width="0.00124"></path>
<path d="M0.791 0.794 Q1.708 0.633 1.594 0.150" stroke="hsl(0.0,100%,35%)" stroke-width="0.00124"></path>
<path d="M0.791 0.794 Q1.227 0.997 1.718 0.830" stroke="hsl(0.0,100%,35%)" stroke-width="0.00124"></path>
<path d="M0.791 0.794 Q1.705 0.763 1.845 0.310" stroke="hsl(0.0,100%,35%)" stroke-width="0.00124"></path>
<path d="M1.448 0.439 Q1.285 0.440 1.252 0.519" stroke="hsl(180.0,100%,35%)" stroke-width="0.01738"></path>
<path d="M1.448 0.439 Q1.378 0.502 1.486 0.550" stroke="hsl(180.0,100%,35%)" stroke-width="0.02482"></path>
<path d="M1.448 0.439 Q1.213 0.502 1.284 0.630" stroke="hsl(180.0,100%,35%)" stroke-width="0.00248"></path>
<path d="M1.448 0.439 Q1.115 0.746 1.641 0.976" stroke="hsl(180.0,100%,35%)" stroke-width="0.00124"></path>
<path d="M1.448 0.439 Q1.849 0.413 1.887 0.212" stroke="hsl(180.0,100%,35%)" stroke-width="0.00248"></path>
<path d="M1.953 0.355 Q1.851 0.387 1.890 0.444" stroke="hsl(0.0,100%,35%)" stroke-width="0.00248"></path>
<path d="M1.953 0.355 Q1.935 0.311 1.845 0.310" stroke="hsl(0.0,100%,35%)" stroke-width="0.00496"></path>
<path d="M1.953 0.355 Q1.564 0.359 1.486 0.550" stroke="hsl(0.0,100%,35%)" stroke-width="0.00496"></path>
<path d="M1.594 0.150 Q1.208 0.413 1.637 0.659" stroke="hsl(180.0,100%,35%)" stroke-width="0.00124"></path>
<path d="M1.594 0.150 Q1.691 0.239 1.887 0.212" stroke="hsl(180.0,100%,35%)" stroke-width="0.00869"></path>
<path d="M1.594 0.150 Q0.677 0.312 0.791 0.794" stroke="hsl(180.0,100%,35%)" stroke-width="0.00124"></path>
<path d="M1.594 0.150 Q0.936 0.106 0.706 0.417" stroke="hsl(180.0,100%,35%)" stroke-width="0.00124"></path>
<path d="M1.594 0.150 Q0.956 0.573 1.641 0.976" stroke="hsl(180.0,100%,35%)" stroke-width="0.00124"></path>
<path d="M1.718 0.830 Q1.542 0.421 0.706 0.417" stroke="hsl(0.0,100%,35%)" stroke-width="0.00621"></path>
<path d="M1.718 0.830 Q1.749 0.407 0.932 0.300" stroke="hsl(0.0,100%,35%)" stroke-width="0.00248"></path>
<path d="M1.718 0.830 Q1.617 0.507 0.965 0.485" stroke="hsl(0.0,100%,35%)" stroke-width="0.00124"></path>
<path d="M1.718 0.830 Q1.814 0.728 1.637 0.659" stroke="hsl(0.0,100%,35%)" stroke-width="0.00124"></path>
<path d="M0.932 0.300 Q1.398 0.532 1.953 0.355" stroke="hsl(0.0,100%,35%)" stroke-width="0.00496"></path>
<path d="M0.932 0.300 Q0.901 0.722 1.718 0.830" stroke="hsl(0.0,100%,35%)" stroke-width="0.00869"></path>
<path d="M0.932 0.300 Q1.383 0.357 1.594 0.150" stroke="hsl(0.0,100%,35%)" stroke-width="0.00372"></path>
<path d="M0.932 0.300 Q0.662 0.217 0.441 0.331" stroke="hsl(0.0,100%,35%)" stroke-width="0.00248"></path>
<path d="M0.932 0.300 Q0.725 0.313 0.706 0.417" stroke="hsl(0.0,100%,35%)" stroke-width="0.00993"></path>
<path d="M0.932 0.300 Q1.009 0.536 1.486 0.550" stroke="hsl(0.0,100%,35%)" stroke-width="0.00124"></path>
<path d="M0.932 0.300 Q0.997 0.620 1.637 0.659" stroke="hsl(0.0,100%,35%)" stroke-width="0.00124"></path>
<path d="M0.932 0.300 Q1.380 0.488 1.845 0.310" stroke="hsl(0.0,100%,35%)" stroke-width="0.00124"></path>
<path d="M0.251 0.312 Q0.321 0.230 0.177 0.178" stroke="hsl(180.0,100%,35%)" stroke-width="0.00621"></path>
<path d="M0.251 0.312 Q0.678 0.678 1.486 0.550" stroke="hsl(180.0,100%,35%)" stroke-width="0.00124"></path>
<path d="M0.251 0.312 Q0.185 0.519 0.575 0.597" stroke="hsl(180.0,100%,35%)" stroke-width="0.00124"></path>
<path d="M0.141 0.809 Q0.944 0.713 0.932 0.300" stroke="hsl(0.0,100%,35%)" stroke-width="0.00248"></path>
<path d="M0.141 0.809 Q0.200 0.761 0.119 0.721" stroke="hsl(0.0,100%,35%)" stroke-width="0.00372"></path>
<path d="M0.141 0.809 Q1.021 0.949 1.486 0.550" stroke="hsl(0.0,100%,35%)" stroke-width="0.00124"></path>
<path d="M0.119 0.721 Q0.586 0.857 0.953 0.659" stroke="hsl(0.0,100%,35%)" stroke-width="0.00124"></path>
<path d="M0.119 0.721 Q0.270 0.738 0.336 0.669" stroke="hsl(0.0,100%,35%)" stroke-width="0.00124"></path>
<path d="M0.119 0.721 Q1.084 0.931 1.706 0.506" stroke="hsl(0.0,100%,35%)" stroke-width="0.00248"></path>
<path d="M0.119 0.721 Q1.328 0.905 1.953 0.355" stroke="hsl(0.0,100%,35%)" stroke-width="0.00124"></path>
<path d="M0.119 0.721 Q0.863 0.673 0.932 0.300" stroke="hsl(0.0,100%,35%)" stroke-width="0.00124"></path>
<path d="M0.441 0.331 Q0.680 0.836 1.718 0.830" stroke="hsl(0.0,100%,35%)" stroke-width="0.00124"></path>
<path d="M0.441 0.331 Q0.504 0.427 0.706 0.417" stroke="hsl(0.0,100%,35%)" stroke-width="0.00496"></path>
<path d="M0.441 0.331 Q0.711 0.413 0.932 0.300" stroke="hsl(0.0,100%,35%)" stroke-width="0.00124"></path>
<path d="M0.706 0.417 Q0.540 0.385 0.441 0.458" stroke="hsl(0.0,100%,35%)" stroke-width="0.01986"></path>
<path d="M0.706 0.417 Q0.882 0.826 1.718 0.830" stroke="hsl(0.0,100%,35%)" stroke-width="0.01117"></path>
<path d="M0.706 0.417 Q1.460 0.550 1.887 0.212" stroke="hsl(0.0,100%,35%)" stroke-width="0.00248"></path>
<path d="M0.706 0.417 Q0.783 0.314 0.599 0.253" stroke="hsl(0.0,100%,35%)" stroke-width="0.00496"></path>
<path d="M0.706 0.417 Q1.363 0.461 1.594 0.150" stroke="hsl(0.0,100%,35%)" stroke-width="0.00248"></path>
<path d="M0.706 0.417 Q1.134 0.662 1.706 0.506" stroke="hsl(0.0,100%,35%)" stroke-width="0.00372"></path>
<path d="M0.706 0.417 Q0.169 0.452 0.119 0.721" stroke="hsl(0.0,100%,35%)" stroke-width="0.00248"></path>
<path d="M0.706 0.417 Q0.913 0.404 0.932 0.300" stroke="hsl(0.0,100%,35%)" stroke-width="0.00745"></path>
<path d="M0.706 0.417 Q0.642 0.321 0.441 0.331" stroke="hsl(0.0,100%,35%)" stroke-width="0.00372"></path>
<path d="M1.637 0.659 Q1.295 0.522 0.953 0.659" stroke="hsl(180.0,100%,35%)" stroke-width="0.00124"></path>
<path d="M1.637 0.659 Q1.541 0.760 1.718 0.830" stroke="hsl(180.0,100%,35%)" stroke-width="0.00248"></path>
<path d="M1.637 0.659 Q1.649 0.574 1.486 0.550" stroke="hsl(180.0,100%,35%)" stroke-width="0.02358"></path>
<path d="M1.637 0.659 Q1.483 0.574 1.284 0.630" stroke="hsl(180.0,100%,35%)" stroke-width="0.00124"></path>
<path d="M1.637 0.659 Q2.038 0.570 1.953 0.355" stroke="hsl(180.0,100%,35%)" stroke-width="0.00248"></path>
<path d="M1.637 0.659 Q1.292 0.126 0.177 0.178" stroke="hsl(180.0,100%,35%)" stroke-width="0.00124"></path>
<path d="M1.637 0.659 Q1.440 0.438 0.965 0.485" stroke="hsl(180.0,100%,35%)" stroke-width="0.00124"></path>
<path d="M1.845 0.310 Q1.863 0.354 1.953 0.355" stroke="hsl(0.0,100%,35%)" stroke-width="0.00496"></path>
<path d="M1.845 0.310 Q1.761 0.386 1.890 0.444" stroke="hsl(0.0,100%,35%)" stroke-width="0.00621"></path>
<path d="M1.845 0.310 Q1.619 0.381 1.706 0.506" stroke="hsl(0.0,100%,35%)" stroke-width="0.00124"></path>
<path d="M1.945 0.550 Q1.716 0.458 1.486 0.550" stroke="hsl(180.0,100%,35%)" stroke-width="0.00248"></path>
<path d="M1.945 0.550 Q1.861 0.480 1.706 0.506" stroke="hsl(180.0,100%,35%)" stroke-width="0.00124"></path>
<path d="M1.945 0.550 Q1.863 0.570 1.884 0.615" stroke="hsl(180.0,100%,35%)" stroke-width="0.00248"></path>
<path d="M1.706 0.506 Q1.950 0.480 1.953 0.355" stroke="hsl(180.0,100%,35%)" stroke-width="0.00372"></path>
<path d="M1.706 0.506 Q1.469 0.422 1.252 0.519" stroke="hsl(180.0,100%,35%)" stroke-width="0.00372"></path>
<path d="M1.706 0.506 Q1.208 0.432 0.953 0.659" stroke="hsl(180.0,100%,35%)" stroke-width="0.00124"></path>
<path d="M1.706 0.506 Q1.935 0.306 1.594 0.150" stroke="hsl(180.0,100%,35%)" stroke-width="0.00248"></path>
<path d="M1.706 0.506 Q1.454 0.670 1.718 0.830" stroke="hsl(180.0,100%,35%)" stroke-width="0.00124"></path>
<path d="M1.706 0.506 Q2.032 0.395 1.887 0.212" stroke="hsl(180.0,100%,35%)" stroke-width="0.00124"></path>
<path d="M1.706 0.506 Q1.298 0.728 1.641 0.976" stroke="hsl(180.0,100%,35%)" stroke-width="0.00248"></path>
<path d="M1.706 0.506 Q1.278 0.261 0.706 0.417" stroke="hsl(180.0,100%,35%)" stroke-width="0.00248"></path>
<path d="M1.706 0.506 Q1.550 0.569 1.637 0.659" stroke="hsl(180.0,100%,35%)" stroke-width="0.00372"></path>
<path d="M1.706 0.506 Q1.561 0.484 1.486 0.550" stroke="hsl(180.0,100%,35%)" stroke-width="0.01241"></path>
<path d="M1.706 0.506 Q1.485 0.248 0.932 0.300" stroke="hsl(180.0,100%,35%)" stroke-width="0.00124"></path>
<path d="M1.300 0.105 Q1.509 0.276 1.887 0.212" stroke="hsl(0.0,100%,35%)" stroke-width="0.00124"></path>
<path d="M1.300 0.105 Q1.411 0.186 1.594 0.150" stroke="hsl(0.0,100%,35%)" stroke-width="0.00248"></path>
<path d="M1.300 0.105 Q0.930 0.551 1.718 0.830" stroke="hsl(0.0,100%,35%)" stroke-width="0.00124"></path>
<path d="M1.300 0.105 Q1.026 0.449 1.637 0.659" stroke="hsl(0.0,100%,35%)" stroke-width="0.00124"></path>
<path d="M1.300 0.105 Q1.037 0.365 1.486 0.550" stroke="hsl(0.0,100%,35%)" stroke-width="0.00248"></path>
<path d="M1.300 0.105 Q0.341 0.068 0.059 0.528" stroke="hsl(0.0,100%,35%)" stroke-width="0.00248"></path>
<path d="M1.300 0.105 Q0.872 0.364 1.284 0.630" stroke="hsl(0.0,100%,35%)" stroke-width="0.00124"></path>
<path d="M1.300 0.105 Q0.690 0.046 0.441 0.331" stroke="hsl(0.0,100%,35%)" stroke-width="0.00124"></path>
<path d="M1.300 0.105 Q0.494 0.348 0.791 0.794" stroke="hsl(0.0,100%,35%)" stroke-width="0.00248"></path>
<path d="M1.300 0.105 Q0.680 -0.083 0.177 0.178" stroke="hsl(0.0,100%,35%)" stroke-width="0.00124"></path>
<path d="M1.887 0.212 Q1.416 0.301 1.486 0.550" stroke="hsl(180.0,100%,35%)" stroke-width="0.00869"></path>
<path d="M1.887 0.212 Q1.790 0.122 1.594 0.150" stroke="hsl(180.0,100%,35%)" stroke-width="0.02358"></path>
<path d="M1.887 0.212 Q1.485 0.237 1.448 0.439" stroke="hsl(180.0,100%,35%)" stroke-width="0.00496"></path>
<path d="M1.887 0.212 Q1.339 0.065 0.932 0.300" stroke="hsl(180.0,100%,35%)" stroke-width="0.00124"></path>
<path d="M1.887 0.212 Q1.132 0.078 0.706 0.417" stroke="hsl(180.0,100%,35%)" stroke-width="0.01613"></path>
<path d="M1.887 0.212 Q1.207 0.164 0.965 0.485" stroke="hsl(180.0,100%,35%)" stroke-width="0.00124"></path>
<path d="M1.887 0.212 Q1.251 0.300 1.284 0.630" stroke="hsl(180.0,100%,35%)" stroke-width="0.00372"></path>
<path d="M0.059 0.528 Q0.181 0.618 0.384 0.578" stroke="hsl(0.0,100%,35%)" stroke-width="0.00372"></path>
<path d="M0.059 0.528 Q0.214 0.443 0.082 0.348" stroke="hsl(0.0,100%,35%)" stroke-width="0.00124"></path>
<path d="M0.059 0.528 Q1.129 0.646 1.594 0.150" stroke="hsl(0.0,100%,35%)" stroke-width="0.00124"></path>
<path d="M0.059 0.528 Q0.755 0.825 1.486 0.550" stroke="hsl(0.0,100%,35%)" stroke-width="0.00248"></path>
<path d="M0.965 0.485 Q1.093 0.446 1.045 0.376" stroke="hsl(180.0,100%,35%)" stroke-width="0.00496"></path>
<path d="M0.965 0.485 Q1.545 0.574 1.845 0.310" stroke="hsl(180.0,100%,35%)" stroke-width="0.00124"></path>
<path d="M0.965 0.485 Q1.645 0.533 1.887 0.212" stroke="hsl(180.0,100%,35%)" stroke-width="0.00496"></path>
<path d="M0.965 0.485 Q1.174 0.622 1.486 0.550" stroke="hsl(180.0,100%,35%)" stroke-width="0.00496"></path>
<path d="M0.965 0.485 Q1.563 0.618 1.953 0.355" stroke="hsl(180.0,100%,35%)" stroke-width="0.00248"></path>
<path d="M0.965 0.485 Q1.319 0.644 1.706 0.506" stroke="hsl(180.0,100%,35%)" stroke-width="0.00124"></path>
<path d="M0.965 0.485 Q1.243 0.559 1.448 0.439" stroke="hsl(180.0,100%,35%)" stroke-width="0.00248"></path>
<path d="M0.965 0.485 Q1.081 0.560 1.252 0.519" stroke="hsl(180.0,100%,35%)" stroke-width="0.00124"></path>
<path d="M0.471 0.786 Q1.556 0.867 1.953 0.355" stroke="hsl(0.0,100%,35%)" stroke-width="0.00745"></path>
<path d="M0.471 0.786 Q1.075 0.809 1.252 0.519" stroke="hsl(0.0,100%,35%)" stroke-width="0.00124"></path>
<path d="M0.471 0.786 Q0.498 0.700 0.336 0.669" stroke="hsl(0.0,100%,35%)" stroke-width="0.00621"></path>
<path d="M1.252 0.519 Q1.333 0.666 1.637 0.659" stroke="hsl(180.0,100%,35%)" stroke-width="0.01365"></path>
<path d="M1.252 0.519 Q1.414 0.518 1.448 0.439" stroke="hsl(180.0,100%,35%)" stroke-width="0.01613"></path>
<path d="M1.252 0.519 Q0.991 0.529 0.953 0.659" stroke="hsl(180.0,100%,35%)" stroke-width="0.00745"></path>
<path d="M1.252 0.519 Q1.632 0.609 1.890 0.444" stroke="hsl(180.0,100%,35%)" stroke-width="0.00124"></path>
<path d="M1.252 0.519 Q1.344 0.582 1.486 0.550" stroke="hsl(180.0,100%,35%)" stroke-width="0.00745"></path>
<path d="M1.252 0.519 Q1.136 0.445 0.965 0.485" stroke="hsl(180.0,100%,35%)" stroke-width="0.00496"></path>
<path d="M1.252 0.519 Q1.716 0.534 1.845 0.310" stroke="hsl(180.0,100%,35%)" stroke-width="0.00124"></path>
<path d="M1.252 0.519 Q1.816 0.492 1.887 0.212" stroke="hsl(180.0,100%,35%)" stroke-width="0.00372"></path>
<path d="M1.252 0.519 Q1.489 0.604 1.706 0.506" stroke="hsl(180.0,100%,35%)" stroke-width="0.00248"></path>
<path d="M1.252 0.519 Q1.058 0.586 1.145 0.695" stroke="hsl(180.0,100%,35%)" stroke-width="0.00124"></path>
<path d="M0.240 0.446 Q0.516 0.991 1.641 0.976" stroke="hsl(0.0,100%,35%)" stroke-width="0.00248"></path>
<path d="M0.240 0.446 Q1.154 0.569 1.594 0.150" stroke="hsl(0.0,100%,35%)" stroke-width="0.00248"></path>
<path d="M0.240 0.446 Q1.169 0.743 1.953 0.355" stroke="hsl(0.0,100%,35%)" stroke-width="0.00124"></path>
<path d="M0.240 0.446 Q0.780 0.747 1.486 0.550" stroke="hsl(0.0,100%,35%)" stroke-width="0.00372"></path>
<path d="M0.240 0.446 Q0.110 0.577 0.336 0.669" stroke="hsl(0.0,100%,35%)" stroke-width="0.00124"></path>
<path d="M0.240 0.446 Q0.571 0.611 0.965 0.485" stroke="hsl(0.0,100%,35%)" stroke-width="0.00124"></path>
<path d="M0.240 0.446 Q0.084 0.451 0.059 0.528" stroke="hsl(0.0,100%,35%)" stroke-width="0.00372"></path>
<path d="M0.240 0.446 Q0.287 0.588 0.575 0.597" stroke="hsl(0.0,100%,35%)" stroke-width="0.00124"></path>
<path d="M0.240 0.446 Q0.672 0.933 1.718 0.830" stroke="hsl(0.0,100%,35%)" stroke-width="0.00124"></path>
<path d="M1.641 0.976 Q1.905 0.732 1.486 0.550" stroke="hsl(180.0,100%,35%)" stroke-width="0.00248"></path>
<path d="M1.641 0.976 Q1.696 0.596 0.965 0.485" stroke="hsl(180.0,100%,35%)" stroke-width="0.00124"></path>
<path d="M1.641 0.976 Q1.621 0.509 0.706 0.417" stroke="hsl(180.0,100%,35%)" stroke-width="0.00124"></path>
<path d="M1.641 0.976 Q2.050 0.754 1.706 0.506" stroke="hsl(180.0,100%,35%)" stroke-width="0.00124"></path>
<path d="M1.641 0.976 Q1.331 0.526 0.384 0.578" stroke="hsl(180.0,100%,35%)" stroke-width="0.00124"></path>
<path d="M1.641 0.976 Q1.801 0.991 1.866 0.917" stroke="hsl(180.0,100%,35%)" stroke-width="0.00124"></path>
<path d="M1.641 0.976 Q2.279 0.554 1.594 0.150" stroke="hsl(180.0,100%,35%)" stroke-width="0.00124"></path>
<path d="M1.509 0.798 Q1.588 0.856 1.718 0.830" stroke="hsl(0.0,100%,35%)" stroke-width="0.03227"></path>
<path d="M1.509 0.798 Q0.999 0.373 0.059 0.528" stroke="hsl(0.0,100%,35%)" stroke-width="0.00372"></path>
<path d="M1.509 0.798 Q1.696 0.670 1.486 0.550" stroke="hsl(0.0,100%,35%)" stroke-width="0.00124"></path>
<path d="M1.509 0.798 Q1.152 0.653 0.791 0.794" stroke="hsl(0.0,100%,35%)" stroke-width="0.00248"></path>
<path d="M0.196 0.594 Q0.795 0.655 1.045 0.376" stroke="hsl(0.0,100%,35%)" stroke-width="0.00124"></path>
<path d="M0.196 0.594 Q0.180 0.534 0.059 0.528" stroke="hsl(0.0,100%,35%)" stroke-width="0.00496"></path>
<path d="M0.196 0.594 Q0.129 0.583 0.092 0.614" stroke="hsl(0.0,100%,35%)" stroke-width="0.00248"></path>
<path d="M0.840 0.175 Q0.777 0.100 0.616 0.114" stroke="hsl(0.0,100%,35%)" stroke-width="0.02358"></path>
<path d="M0.840 0.175 Q1.334 0.403 1.887 0.212" stroke="hsl(0.0,100%,35%)" stroke-width="0.00124"></path>
<path d="M0.840 0.175 Q1.237 0.313 1.594 0.150" stroke="hsl(0.0,100%,35%)" stroke-width="0.00124"></path>
<path d="M0.840 0.175 Q0.676 0.620 1.509 0.798" stroke="hsl(0.0,100%,35%)" stroke-width="0.00745"></path>
<path d="M0.840 0.175 Q0.756 0.678 1.718 0.830" stroke="hsl(0.0,100%,35%)" stroke-width="0.00372"></path>
<path d="M0.840 0.175 Q0.320 0.475 0.791 0.794" stroke="hsl(0.0,100%,35%)" stroke-width="0.00124"></path>
<path d="M1.680 0.316 Q1.315 0.219 1.045 0.376" stroke="hsl(0.0,100%,35%)" stroke-width="0.00124"></path>
<path d="M1.680 0.316 Q1.785 0.390 1.953 0.355" stroke="hsl(0.0,100%,35%)" stroke-width="0.00248"></path>
<path d="M1.680 0.316 Q1.132 0.639 1.641 0.976" stroke="hsl(0.0,100%,35%)" stroke-width="0.00124"></path>
<path d="M0.419 0.545 Q0.601 0.442 0.441 0.331" stroke="hsl(0.0,100%,35%)" stroke-width="0.00124"></path>
<path d="M0.419 0.545 Q0.685 1.005 1.641 0.976" stroke="hsl(0.0,100%,35%)" stroke-width="0.00124"></path>
<path d="M0.419 0.545 Q0.665 0.538 0.706 0.417" stroke="hsl(0.0,100%,35%)" stroke-width="0.00124"></path>
<path d="M0.419 0.545 Q0.201 0.514 0.092 0.614" stroke="hsl(0.0,100%,35%)" stroke-width="0.00124"></path>
<path d="M1.188 0.399 Q1.591 0.356 1.594 0.150" stroke="hsl(180.0,100%,35%)" stroke-width="0.00124"></path>
<path d="M1.188 0.399 Q0.723 0.376 0.575 0.597" stroke="hsl(180.0,100%,35%)" stroke-width="0.00124"></path>
<path d="M1.188 0.399 Q1.217 0.534 1.486 0.550" stroke="hsl(180.0,100%,35%)" stroke-width="0.00248"></path>
<path d="M1.188 0.399 Q1.135 0.359 1.045 0.376" stroke="hsl(180.0,100%,35%)" stroke-width="0.00248"></path>
<path d="M1.188 0.399 Q1.286 0.471 1.448 0.439" stroke="hsl(180.0,100%,35%)" stroke-width="0.00248"></path>
<path d="M1.188 0.399 Q1.688 0.445 1.887 0.212" stroke="hsl(180.0,100%,35%)" stroke-width="0.00124"></path>
<path d="M1.819 0.686 Q1.761 0.551 1.486 0.550" stroke="hsl(180.0,100%,35%)" stroke-width="0.00248"></path>
<path d="M1.819 0.686 Q1.669 0.489 1.252 0.519" stroke="hsl(180.0,100%,35%)" stroke-width="0.00124"></path>
<path d="M1.819 0.686 Q1.750 0.636 1.637 0.659" stroke="hsl(180.0,100%,35%)" stroke-width="0.00248"></path>
<path d="M1.819 0.686 Q1.553 0.415 0.965 0.485" stroke="hsl(180.0,100%,35%)" stroke-width="0.00124"></path>
<path d="M1.201 0.753 Q0.851 0.778 0.823 0.954" stroke="hsl(0.0,100%,35%)" stroke-width="0.00248"></path>
<path d="M1.201 0.753 Q1.222 0.486 0.706 0.417" stroke="hsl(0.0,100%,35%)" stroke-width="0.00124"></path>
<path d="M1.201 0.753 Q1.319 0.837 1.509 0.798" stroke="hsl(0.0,100%,35%)" stroke-width="0.00745"></path>
<path d="M1.201 0.753 Q1.429 0.472 0.932 0.300" stroke="hsl(0.0,100%,35%)" stroke-width="0.00124"></path>
<path d="M1.201 0.753 Q1.398 0.894 1.718 0.830" stroke="hsl(0.0,100%,35%)" stroke-width="0.00372"></path>
<path d="M1.201 0.753 Q1.880 0.530 1.594 0.150" stroke="hsl(0.0,100%,35%)" stroke-width="0.00124"></path>
<path d="M1.201 0.753 Q1.651 0.730 1.706 0.506" stroke="hsl(0.0,100%,35%)" stroke-width="0.00124"></path>
</g>
<text x="0.823" y="0.940" font-size="0.028559" fill="hsl(0.0,100%,20%)">ahaas</text>
<text x="0.953" y="0.649" font-size="0.018831" fill="hsl(180.0,100%,20%)">ishell</text>
<text x="1.486" y="0.519" font-size="0.063021" fill="hsl(180.0,100%,20%)">leszeks</text>
<text x="0.791" y="0.784" font-size="0.020628" fill="hsl(0.0,100%,20%)">thibaudm</text>
<text x="1.448" y="0.415" font-size="0.048743" fill="hsl(180.0,100%,20%)">victorgomes</text>
<text x="1.953" y="0.337" font-size="0.037662" fill="hsl(0.0,100%,20%)">mlippautz</text>
<text x="0.336" y="0.660" font-size="0.016843" fill="hsl(0.0,100%,20%)">nikolaos</text>
<text x="1.594" y="0.129" font-size="0.042527" fill="hsl(180.0,100%,20%)">nicohartmann</text>
<text x="1.718" y="0.806" font-size="0.048010" fill="hsl(0.0,100%,20%)">jkummerow</text>
<text x="0.932" y="0.280" font-size="0.039947" fill="hsl(0.0,100%,20%)">clemensb</text>
<text x="0.251" y="0.304" font-size="0.015755" fill="hsl(180.0,100%,20%)">bmeurer</text>
<text x="0.177" y="0.170" font-size="0.015755" fill="hsl(180.0,100%,20%)">szuend</text>
<text x="0.575" y="0.592" font-size="0.010314" fill="hsl(180.0,100%,20%)">yangguo</text>
<text x="0.141" y="0.802" font-size="0.014586" fill="hsl(0.0,100%,20%)">choongwoo.han</text>
<text x="0.119" y="0.711" font-size="0.019750" fill="hsl(0.0,100%,20%)">sroettger</text>
<text x="0.441" y="0.320" font-size="0.021471" fill="hsl(0.0,100%,20%)">dlehmann</text>
<text x="0.706" y="0.390" font-size="0.054252" fill="hsl(0.0,100%,20%)">mliedtke</text>
<text x="1.637" y="0.638" font-size="0.042527" fill="hsl(180.0,100%,20%)">verwaest</text>
<text x="1.845" y="0.298" font-size="0.025265" fill="hsl(0.0,100%,20%)">omerkatz</text>
<text x="1.945" y="0.543" font-size="0.013316" fill="hsl(180.0,100%,20%)">dima00782</text>
<text x="1.706" y="0.487" font-size="0.038130" fill="hsl(180.0,100%,20%)">saelo</text>
<text x="1.884" y="0.610" font-size="0.008422" fill="hsl(180.0,100%,20%)">wingo</text>
<text x="1.300" y="0.094" font-size="0.022281" fill="hsl(0.0,100%,20%)">dloehr</text>
<text x="1.887" y="0.186" font-size="0.050879" fill="hsl(180.0,100%,20%)">dmercadier</text>
<text x="0.059" y="0.515" font-size="0.025957" fill="hsl(0.0,100%,20%)">syg</text>
<text x="1.284" y="0.620" font-size="0.020628" fill="hsl(180.0,100%,20%)">marja</text>
<text x="0.965" y="0.469" font-size="0.033156" fill="hsl(180.0,100%,20%)">pthier</text>
<text x="0.471" y="0.775" font-size="0.020628" fill="hsl(0.0,100%,20%)">etiennep</text>
<text x="1.252" y="0.494" font-size="0.049822" fill="hsl(180.0,100%,20%)">olivf</text>
<text x="0.240" y="0.434" font-size="0.023063" fill="hsl(0.0,100%,20%)">hocheung</text>
<text x="1.641" y="0.964" font-size="0.024553" fill="hsl(180.0,100%,20%)">machenbach</text>
<text x="1.509" y="0.778" font-size="0.039500" fill="hsl(0.0,100%,20%)">irezvov</text>
<text x="0.196" y="0.587" font-size="0.015755" fill="hsl(0.0,100%,20%)">lpardosixtos</text>
<text x="1.045" y="0.367" font-size="0.016843" fill="hsl(180.0,100%,20%)">cbruni</text>
<text x="0.092" y="0.609" font-size="0.010314" fill="hsl(0.0,100%,20%)">seth.brenith</text>
<text x="0.384" y="0.572" font-size="0.011910" fill="hsl(0.0,100%,20%)">rezvan</text>
<text x="1.866" y="0.914" font-size="0.005955" fill="hsl(180.0,100%,20%)">liviurau</text>
<text x="0.840" y="0.158" font-size="0.033156" fill="hsl(0.0,100%,20%)">mfarazma</text>
<text x="0.616" y="0.101" font-size="0.025957" fill="hsl(0.0,100%,20%)">junyan</text>
<text x="1.680" y="0.310" font-size="0.011910" fill="hsl(0.0,100%,20%)">mic.besace</text>
<text x="0.441" y="0.447" font-size="0.023820" fill="hsl(0.0,100%,20%)">manoskouk</text>
<text x="0.599" y="0.247" font-size="0.011910" fill="hsl(0.0,100%,20%)">evih</text>
<text x="1.890" y="0.435" font-size="0.016843" fill="hsl(0.0,100%,20%)">bikineev</text>
<text x="1.145" y="0.692" font-size="0.005955" fill="hsl(180.0,100%,20%)">alexschulze</text>
<text x="0.419" y="0.539" font-size="0.011910" fill="hsl(0.0,100%,20%)">paolosev</text>
<text x="1.188" y="0.390" font-size="0.017865" fill="hsl(180.0,100%,20%)">snek</text>
<text x="0.082" y="0.346" font-size="0.005955" fill="hsl(0.0,100%,20%)">adamk</text>
<text x="1.819" y="0.679" font-size="0.014586" fill="hsl(180.0,100%,20%)">tao.pan</text>
<text x="1.201" y="0.741" font-size="0.023063" fill="hsl(0.0,100%,20%)">zhaojiazhong-hf</text>
</svg>
