<svg width="4000" height="2000" viewBox="-0.025 -0.025 2.05 1.05" xmlns="http://www.w3.org/2000/svg">
  <style>
    path {
      fill: none;
      stroke-linecap: round;
      stroke-opacity: 0.4;
    }

    text {
      text-anchor: middle;
      alignment-baseline: hanging;
    }
  </style>
  <g opacity="0.4">
<path d="M1.201 0.704 Q1.297 0.439 0.801 0.334" stroke="hsl(0.0,100%,35%)" stroke-width="0.00301"></path>
<path d="M1.201 0.704 Q1.046 0.480 0.576 0.507" stroke="hsl(0.0,100%,35%)" stroke-width="0.00301"></path>
<path d="M1.201 0.704 Q1.399 0.700 1.435 0.602" stroke="hsl(0.0,100%,35%)" stroke-width="0.00241"></path>
<path d="M1.201 0.704 Q1.217 0.752 1.314 0.755" stroke="hsl(0.0,100%,35%)" stroke-width="0.00060"></path>
<path d="M1.201 0.704 Q1.749 0.672 1.807 0.398" stroke="hsl(0.0,100%,35%)" stroke-width="0.00060"></path>
<path d="M1.201 0.704 Q1.572 0.569 1.391 0.359" stroke="hsl(0.0,100%,35%)" stroke-width="0.00121"></path>
<path d="M1.201 0.704 Q1.134 0.347 0.424 0.302" stroke="hsl(0.0,100%,35%)" stroke-width="0.00241"></path>
<path d="M1.201 0.704 Q0.916 0.690 0.828 0.826" stroke="hsl(0.0,100%,35%)" stroke-width="0.00121"></path>
<path d="M1.201 0.704 Q1.686 0.466 1.329 0.177" stroke="hsl(0.0,100%,35%)" stroke-width="0.00060"></path>
<path d="M1.201 0.704 Q0.914 0.326 0.114 0.384" stroke="hsl(0.0,100%,35%)" stroke-width="0.00060"></path>
<path d="M0.801 0.334 Q0.598 0.325 0.535 0.422" stroke="hsl(0.0,100%,35%)" stroke-width="0.00241"></path>
<path d="M0.801 0.334 Q0.964 0.246 0.828 0.147" stroke="hsl(0.0,100%,35%)" stroke-width="0.00060"></path>
<path d="M0.801 0.334 Q0.418 0.222 0.114 0.384" stroke="hsl(0.0,100%,35%)" stroke-width="0.00362"></path>
<path d="M0.801 0.334 Q0.904 0.595 1.435 0.602" stroke="hsl(0.0,100%,35%)" stroke-width="0.00362"></path>
<path d="M0.801 0.334 Q0.788 0.706 1.511 0.794" stroke="hsl(0.0,100%,35%)" stroke-width="0.00543"></path>
<path d="M0.801 0.334 Q0.706 0.599 1.201 0.704" stroke="hsl(0.0,100%,35%)" stroke-width="0.00362"></path>
<path d="M0.801 0.334 Q1.253 0.567 1.807 0.398" stroke="hsl(0.0,100%,35%)" stroke-width="0.00060"></path>
<path d="M0.801 0.334 Q0.638 0.243 0.424 0.302" stroke="hsl(0.0,100%,35%)" stroke-width="0.00060"></path>
<path d="M0.801 0.334 Q1.277 0.455 1.617 0.249" stroke="hsl(0.0,100%,35%)" stroke-width="0.00060"></path>
<path d="M0.576 0.507 Q1.279 0.699 1.807 0.398" stroke="hsl(120.0,100%,35%)" stroke-width="0.00060"></path>
<path d="M0.576 0.507 Q0.664 0.374 0.424 0.302" stroke="hsl(120.0,100%,35%)" stroke-width="0.00482"></path>
<path d="M0.576 0.507 Q0.624 0.456 0.535 0.422" stroke="hsl(120.0,100%,35%)" stroke-width="0.00362"></path>
<path d="M1.435 0.602 Q1.332 0.341 0.801 0.334" stroke="hsl(0.0,100%,35%)" stroke-width="0.00904"></path>
<path d="M1.435 0.602 Q1.320 0.713 1.511 0.794" stroke="hsl(0.0,100%,35%)" stroke-width="0.00181"></path>
<path d="M1.435 0.602 Q1.118 0.581 1.008 0.731" stroke="hsl(0.0,100%,35%)" stroke-width="0.00121"></path>
<path d="M1.435 0.602 Q1.081 0.697 1.187 0.891" stroke="hsl(0.0,100%,35%)" stroke-width="0.00362"></path>
<path d="M1.435 0.602 Q1.237 0.606 1.201 0.704" stroke="hsl(0.0,100%,35%)" stroke-width="0.01507"></path>
<path d="M1.435 0.602 Q1.130 0.332 0.535 0.422" stroke="hsl(0.0,100%,35%)" stroke-width="0.00844"></path>
<path d="M1.435 0.602 Q1.076 0.789 1.362 1.005" stroke="hsl(0.0,100%,35%)" stroke-width="0.00060"></path>
<path d="M1.435 0.602 Q1.808 0.462 1.617 0.249" stroke="hsl(0.0,100%,35%)" stroke-width="0.00121"></path>
<path d="M1.435 0.602 Q0.950 0.229 0.114 0.384" stroke="hsl(0.0,100%,35%)" stroke-width="0.00121"></path>
<path d="M1.435 0.602 Q0.952 0.593 0.828 0.826" stroke="hsl(0.0,100%,35%)" stroke-width="0.00121"></path>
<path d="M1.435 0.602 Q1.792 0.315 1.309 0.078" stroke="hsl(0.0,100%,35%)" stroke-width="0.00181"></path>
<path d="M1.435 0.602 Q1.899 0.526 1.852 0.283" stroke="hsl(0.0,100%,35%)" stroke-width="0.00121"></path>
<path d="M1.435 0.602 Q1.543 0.373 1.120 0.270" stroke="hsl(0.0,100%,35%)" stroke-width="0.00060"></path>
<path d="M1.435 0.602 Q1.489 0.800 1.888 0.817" stroke="hsl(0.0,100%,35%)" stroke-width="0.00060"></path>
<path d="M1.435 0.602 Q0.748 0.511 0.420 0.827" stroke="hsl(0.0,100%,35%)" stroke-width="0.00060"></path>
<path d="M1.435 0.602 Q1.785 0.574 1.807 0.398" stroke="hsl(0.0,100%,35%)" stroke-width="0.00181"></path>
<path d="M1.435 0.602 Q1.169 0.250 0.424 0.302" stroke="hsl(0.0,100%,35%)" stroke-width="0.00241"></path>
<path d="M1.435 0.602 Q1.380 0.849 1.849 0.930" stroke="hsl(0.0,100%,35%)" stroke-width="0.00060"></path>
<path d="M1.435 0.602 Q0.820 0.319 0.131 0.556" stroke="hsl(0.0,100%,35%)" stroke-width="0.00121"></path>
<path d="M1.435 0.602 Q1.252 0.654 1.314 0.755" stroke="hsl(0.0,100%,35%)" stroke-width="0.00060"></path>
<path d="M1.314 0.755 Q1.605 0.474 1.120 0.270" stroke="hsl(0.0,100%,35%)" stroke-width="0.00241"></path>
<path d="M1.314 0.755 Q1.164 0.573 0.775 0.606" stroke="hsl(0.0,100%,35%)" stroke-width="0.00121"></path>
<path d="M1.314 0.755 Q1.382 0.814 1.511 0.794" stroke="hsl(0.0,100%,35%)" stroke-width="0.00241"></path>
<path d="M1.314 0.755 Q1.784 0.469 1.329 0.177" stroke="hsl(0.0,100%,35%)" stroke-width="0.00301"></path>
<path d="M1.314 0.755 Q1.853 0.416 1.309 0.078" stroke="hsl(0.0,100%,35%)" stroke-width="0.00181"></path>
<path d="M1.314 0.755 Q2.019 0.505 1.686 0.106" stroke="hsl(0.0,100%,35%)" stroke-width="0.00060"></path>
<path d="M1.314 0.755 Q1.180 0.682 1.008 0.731" stroke="hsl(0.0,100%,35%)" stroke-width="0.00060"></path>
<path d="M1.807 0.398 Q1.921 0.349 1.852 0.283" stroke="hsl(120.0,100%,35%)" stroke-width="0.01266"></path>
<path d="M1.807 0.398 Q1.152 0.155 0.535 0.422" stroke="hsl(120.0,100%,35%)" stroke-width="0.00181"></path>
<path d="M1.807 0.398 Q1.192 0.073 0.424 0.302" stroke="hsl(120.0,100%,35%)" stroke-width="0.00603"></path>
<path d="M1.807 0.398 Q1.630 0.295 1.391 0.359" stroke="hsl(120.0,100%,35%)" stroke-width="0.00121"></path>
<path d="M1.807 0.398 Q1.457 0.426 1.435 0.602" stroke="hsl(120.0,100%,35%)" stroke-width="0.00060"></path>
<path d="M1.807 0.398 Q1.259 0.429 1.201 0.704" stroke="hsl(120.0,100%,35%)" stroke-width="0.00060"></path>
<path d="M1.391 0.359 Q1.568 0.461 1.807 0.398" stroke="hsl(0.0,100%,35%)" stroke-width="0.00181"></path>
<path d="M1.391 0.359 Q0.902 0.468 1.008 0.731" stroke="hsl(0.0,100%,35%)" stroke-width="0.00121"></path>
<path d="M1.391 0.359 Q1.575 0.202 1.309 0.078" stroke="hsl(0.0,100%,35%)" stroke-width="0.00121"></path>
<path d="M1.391 0.359 Q1.505 0.256 1.329 0.177" stroke="hsl(0.0,100%,35%)" stroke-width="0.00181"></path>
<path d="M1.391 0.359 Q1.682 0.413 1.852 0.283" stroke="hsl(0.0,100%,35%)" stroke-width="0.00060"></path>
<path d="M1.391 0.359 Q1.741 0.291 1.686 0.106" stroke="hsl(0.0,100%,35%)" stroke-width="0.00060"></path>
<path d="M1.391 0.359 Q0.886 0.359 0.775 0.606" stroke="hsl(0.0,100%,35%)" stroke-width="0.00060"></path>
<path d="M1.391 0.359 Q0.913 0.219 0.535 0.422" stroke="hsl(0.0,100%,35%)" stroke-width="0.00060"></path>
<path d="M0.424 0.302 Q0.384 0.384 0.535 0.422" stroke="hsl(120.0,100%,35%)" stroke-width="0.00723"></path>
<path d="M0.424 0.302 Q1.062 0.514 1.617 0.249" stroke="hsl(120.0,100%,35%)" stroke-width="0.00121"></path>
<path d="M0.424 0.302 Q0.204 0.281 0.114 0.384" stroke="hsl(120.0,100%,35%)" stroke-width="0.00784"></path>
<path d="M0.424 0.302 Q1.046 0.367 1.309 0.078" stroke="hsl(120.0,100%,35%)" stroke-width="0.00060"></path>
<path d="M0.424 0.302 Q1.039 0.627 1.807 0.398" stroke="hsl(120.0,100%,35%)" stroke-width="0.01025"></path>
<path d="M0.424 0.302 Q1.153 0.578 1.852 0.283" stroke="hsl(120.0,100%,35%)" stroke-width="0.00723"></path>
<path d="M0.424 0.302 Q0.689 0.655 1.435 0.602" stroke="hsl(120.0,100%,35%)" stroke-width="0.00181"></path>
<path d="M0.424 0.302 Q0.336 0.435 0.576 0.507" stroke="hsl(120.0,100%,35%)" stroke-width="0.00181"></path>
<path d="M0.424 0.302 Q0.206 0.645 0.828 0.826" stroke="hsl(120.0,100%,35%)" stroke-width="0.00121"></path>
<path d="M0.424 0.302 Q0.330 0.841 1.362 1.005" stroke="hsl(120.0,100%,35%)" stroke-width="0.00060"></path>
<path d="M0.828 0.826 Q0.696 0.552 0.131 0.556" stroke="hsl(0.0,100%,35%)" stroke-width="0.00301"></path>
<path d="M0.828 0.826 Q0.825 0.462 0.114 0.384" stroke="hsl(0.0,100%,35%)" stroke-width="0.00060"></path>
<path d="M0.828 0.826 Q0.994 0.815 1.008 0.731" stroke="hsl(0.0,100%,35%)" stroke-width="0.00603"></path>
<path d="M0.828 0.826 Q1.128 0.888 1.314 0.755" stroke="hsl(0.0,100%,35%)" stroke-width="0.00060"></path>
<path d="M0.828 0.826 Q1.503 0.535 1.083 0.141" stroke="hsl(0.0,100%,35%)" stroke-width="0.00362"></path>
<path d="M0.828 0.826 Q1.667 0.549 1.309 0.078" stroke="hsl(0.0,100%,35%)" stroke-width="0.00241"></path>
<path d="M0.828 0.826 Q0.633 0.636 0.219 0.689" stroke="hsl(0.0,100%,35%)" stroke-width="0.00121"></path>
<path d="M0.828 0.826 Q0.624 0.745 0.420 0.827" stroke="hsl(0.0,100%,35%)" stroke-width="0.00121"></path>
<path d="M0.828 0.826 Q1.774 0.760 1.852 0.283" stroke="hsl(0.0,100%,35%)" stroke-width="0.00121"></path>
<path d="M0.828 0.826 Q1.419 0.607 1.120 0.270" stroke="hsl(0.0,100%,35%)" stroke-width="0.00060"></path>
<path d="M1.329 0.177 Q1.399 0.124 1.309 0.078" stroke="hsl(0.0,100%,35%)" stroke-width="0.01025"></path>
<path d="M1.329 0.177 Q0.688 0.506 1.187 0.891" stroke="hsl(0.0,100%,35%)" stroke-width="0.00060"></path>
<path d="M1.329 0.177 Q1.564 0.213 1.686 0.106" stroke="hsl(0.0,100%,35%)" stroke-width="0.00181"></path>
<path d="M1.329 0.177 Q1.506 0.335 1.852 0.283" stroke="hsl(0.0,100%,35%)" stroke-width="0.00422"></path>
<path d="M1.329 0.177 Q1.235 0.110 1.083 0.141" stroke="hsl(0.0,100%,35%)" stroke-width="0.00121"></path>
<path d="M1.329 0.177 Q1.150 0.182 1.120 0.270" stroke="hsl(0.0,100%,35%)" stroke-width="0.00060"></path>
<path d="M1.329 0.177 Q0.927 0.522 1.511 0.794" stroke="hsl(0.0,100%,35%)" stroke-width="0.00060"></path>
<path d="M1.329 0.177 Q0.860 0.463 1.314 0.755" stroke="hsl(0.0,100%,35%)" stroke-width="0.00060"></path>
<path d="M1.329 0.177 Q1.392 0.383 1.807 0.398" stroke="hsl(0.0,100%,35%)" stroke-width="0.00060"></path>
<path d="M1.329 0.177 Q0.725 0.390 1.008 0.731" stroke="hsl(0.0,100%,35%)" stroke-width="0.00241"></path>
<path d="M1.329 0.177 Q0.844 0.415 1.201 0.704" stroke="hsl(0.0,100%,35%)" stroke-width="0.00060"></path>
<path d="M0.114 0.384 Q0.294 0.487 0.535 0.422" stroke="hsl(120.0,100%,35%)" stroke-width="0.00663"></path>
<path d="M0.114 0.384 Q0.497 0.496 0.801 0.334" stroke="hsl(120.0,100%,35%)" stroke-width="0.00301"></path>
<path d="M0.114 0.384 Q0.402 0.761 1.201 0.704" stroke="hsl(120.0,100%,35%)" stroke-width="0.00060"></path>
<path d="M0.114 0.384 Q0.334 0.405 0.424 0.302" stroke="hsl(120.0,100%,35%)" stroke-width="0.00301"></path>
<path d="M0.114 0.384 Q0.600 0.757 1.435 0.602" stroke="hsl(120.0,100%,35%)" stroke-width="0.00060"></path>
<path d="M0.114 0.384 Q1.063 0.681 1.852 0.283" stroke="hsl(120.0,100%,35%)" stroke-width="0.00121"></path>
<path d="M0.114 0.384 Q0.949 0.729 1.807 0.398" stroke="hsl(120.0,100%,35%)" stroke-width="0.00060"></path>
<path d="M0.114 0.384 Q0.973 0.617 1.617 0.249" stroke="hsl(120.0,100%,35%)" stroke-width="0.00060"></path>
<path d="M1.176 0.033 Q1.043 0.068 1.083 0.141" stroke="hsl(0.0,100%,35%)" stroke-width="0.00301"></path>
<path d="M1.176 0.033 Q0.958 0.140 1.120 0.270" stroke="hsl(0.0,100%,35%)" stroke-width="0.00121"></path>
<path d="M1.176 0.033 Q0.491 0.556 1.362 1.005" stroke="hsl(0.0,100%,35%)" stroke-width="0.00060"></path>
<path d="M1.083 0.141 Q0.407 0.433 0.828 0.826" stroke="hsl(0.0,100%,35%)" stroke-width="0.00121"></path>
<path d="M1.083 0.141 Q1.246 0.155 1.309 0.078" stroke="hsl(0.0,100%,35%)" stroke-width="0.01025"></path>
<path d="M1.083 0.141 Q1.354 0.366 1.852 0.283" stroke="hsl(0.0,100%,35%)" stroke-width="0.00121"></path>
<path d="M1.083 0.141 Q0.998 0.213 1.120 0.270" stroke="hsl(0.0,100%,35%)" stroke-width="0.00362"></path>
<path d="M1.083 0.141 Q0.573 0.421 1.008 0.731" stroke="hsl(0.0,100%,35%)" stroke-width="0.00060"></path>
<path d="M1.120 0.270 Q1.204 0.198 1.083 0.141" stroke="hsl(0.0,100%,35%)" stroke-width="0.00060"></path>
<path d="M1.120 0.270 Q1.368 0.212 1.309 0.078" stroke="hsl(0.0,100%,35%)" stroke-width="0.00181"></path>
<path d="M1.120 0.270 Q1.185 0.369 1.391 0.359" stroke="hsl(0.0,100%,35%)" stroke-width="0.00121"></path>
<path d="M1.120 0.270 Q0.850 0.720 1.670 0.951" stroke="hsl(0.0,100%,35%)" stroke-width="0.00060"></path>
<path d="M1.120 0.270 Q0.695 0.478 1.008 0.731" stroke="hsl(0.0,100%,35%)" stroke-width="0.00060"></path>
<path d="M1.362 1.005 Q1.312 0.955 1.204 0.969" stroke="hsl(120.0,100%,35%)" stroke-width="0.01387"></path>
<path d="M1.362 1.005 Q1.455 0.466 0.424 0.302" stroke="hsl(120.0,100%,35%)" stroke-width="0.00060"></path>
<path d="M1.362 1.005 Q2.077 0.531 1.309 0.078" stroke="hsl(120.0,100%,35%)" stroke-width="0.00543"></path>
<path d="M1.362 1.005 Q1.516 1.004 1.548 0.928" stroke="hsl(120.0,100%,35%)" stroke-width="0.00060"></path>
<path d="M1.362 1.005 Q1.367 0.599 0.576 0.507" stroke="hsl(120.0,100%,35%)" stroke-width="0.00121"></path>
<path d="M1.362 1.005 Q1.238 0.809 0.828 0.826" stroke="hsl(120.0,100%,35%)" stroke-width="0.00060"></path>
<path d="M1.362 1.005 Q1.415 0.548 0.535 0.422" stroke="hsl(120.0,100%,35%)" stroke-width="0.00181"></path>
<path d="M1.362 1.005 Q2.070 0.790 1.807 0.398" stroke="hsl(120.0,100%,35%)" stroke-width="0.00060"></path>
<path d="M1.362 1.005 Q1.721 0.818 1.435 0.602" stroke="hsl(120.0,100%,35%)" stroke-width="0.00060"></path>
<path d="M1.309 0.078 Q1.145 0.064 1.083 0.141" stroke="hsl(0.0,100%,35%)" stroke-width="0.00784"></path>
<path d="M1.309 0.078 Q0.837 0.476 1.511 0.794" stroke="hsl(0.0,100%,35%)" stroke-width="0.00060"></path>
<path d="M1.309 0.078 Q0.647 0.095 0.535 0.422" stroke="hsl(0.0,100%,35%)" stroke-width="0.00121"></path>
<path d="M1.309 0.078 Q1.303 0.337 1.807 0.398" stroke="hsl(0.0,100%,35%)" stroke-width="0.00422"></path>
<path d="M1.309 0.078 Q0.470 0.356 0.828 0.826" stroke="hsl(0.0,100%,35%)" stroke-width="0.00301"></path>
<path d="M1.309 0.078 Q1.475 0.167 1.686 0.106" stroke="hsl(0.0,100%,35%)" stroke-width="0.00181"></path>
<path d="M1.309 0.078 Q1.061 0.136 1.120 0.270" stroke="hsl(0.0,100%,35%)" stroke-width="0.00121"></path>
<path d="M1.309 0.078 Q0.594 0.552 1.362 1.005" stroke="hsl(0.0,100%,35%)" stroke-width="0.00121"></path>
<path d="M1.309 0.078 Q0.770 0.418 1.314 0.755" stroke="hsl(0.0,100%,35%)" stroke-width="0.00241"></path>
<path d="M1.309 0.078 Q0.266 0.275 0.420 0.827" stroke="hsl(0.0,100%,35%)" stroke-width="0.00121"></path>
<path d="M1.309 0.078 Q1.240 0.132 1.329 0.177" stroke="hsl(0.0,100%,35%)" stroke-width="0.00241"></path>
<path d="M1.309 0.078 Q0.953 0.365 1.435 0.602" stroke="hsl(0.0,100%,35%)" stroke-width="0.00121"></path>
<path d="M1.309 0.078 Q1.417 0.289 1.852 0.283" stroke="hsl(0.0,100%,35%)" stroke-width="0.00362"></path>
<path d="M1.309 0.078 Q0.687 0.013 0.424 0.302" stroke="hsl(0.0,100%,35%)" stroke-width="0.00060"></path>
<path d="M1.309 0.078 Q0.620 0.235 0.775 0.606" stroke="hsl(0.0,100%,35%)" stroke-width="0.00060"></path>
<path d="M1.008 0.731 Q0.841 0.743 0.828 0.826" stroke="hsl(0.0,100%,35%)" stroke-width="0.01989"></path>
<path d="M1.008 0.731 Q1.019 0.482 0.535 0.422" stroke="hsl(0.0,100%,35%)" stroke-width="0.00060"></path>
<path d="M1.008 0.731 Q1.674 0.724 1.807 0.398" stroke="hsl(0.0,100%,35%)" stroke-width="0.00060"></path>
<path d="M1.008 0.731 Q0.638 0.661 0.420 0.827" stroke="hsl(0.0,100%,35%)" stroke-width="0.00060"></path>
<path d="M1.008 0.731 Q1.681 0.465 1.309 0.078" stroke="hsl(0.0,100%,35%)" stroke-width="0.00060"></path>
<path d="M1.008 0.731 Q0.710 0.468 0.131 0.556" stroke="hsl(0.0,100%,35%)" stroke-width="0.00301"></path>
<path d="M1.008 0.731 Q1.517 0.451 1.083 0.141" stroke="hsl(0.0,100%,35%)" stroke-width="0.00060"></path>
<path d="M1.008 0.731 Q0.647 0.552 0.219 0.689" stroke="hsl(0.0,100%,35%)" stroke-width="0.00060"></path>
<path d="M1.511 0.794 Q1.293 0.553 0.775 0.606" stroke="hsl(0.0,100%,35%)" stroke-width="0.00060"></path>
<path d="M1.511 0.794 Q1.321 0.413 0.535 0.422" stroke="hsl(0.0,100%,35%)" stroke-width="0.00121"></path>
<path d="M1.511 0.794 Q1.819 0.382 1.083 0.141" stroke="hsl(0.0,100%,35%)" stroke-width="0.00603"></path>
<path d="M1.511 0.794 Q1.443 0.735 1.314 0.755" stroke="hsl(0.0,100%,35%)" stroke-width="0.00603"></path>
<path d="M1.511 0.794 Q1.983 0.396 1.309 0.078" stroke="hsl(0.0,100%,35%)" stroke-width="0.00301"></path>
<path d="M1.511 0.794 Q1.309 0.662 1.008 0.731" stroke="hsl(0.0,100%,35%)" stroke-width="0.00121"></path>
<path d="M1.511 0.794 Q1.976 0.655 1.807 0.398" stroke="hsl(0.0,100%,35%)" stroke-width="0.00181"></path>
<path d="M1.511 0.794 Q2.090 0.607 1.852 0.283" stroke="hsl(0.0,100%,35%)" stroke-width="0.00121"></path>
<path d="M1.511 0.794 Q2.148 0.485 1.686 0.106" stroke="hsl(0.0,100%,35%)" stroke-width="0.00181"></path>
<path d="M1.187 0.891 Q1.225 0.775 1.008 0.731" stroke="hsl(0.0,100%,35%)" stroke-width="0.00060"></path>
<path d="M1.187 0.891 Q1.427 0.907 1.511 0.794" stroke="hsl(0.0,100%,35%)" stroke-width="0.02652"></path>
<path d="M1.187 0.891 Q1.542 0.796 1.435 0.602" stroke="hsl(0.0,100%,35%)" stroke-width="0.00904"></path>
<path d="M1.187 0.891 Q1.898 0.509 1.309 0.078" stroke="hsl(0.0,100%,35%)" stroke-width="0.00904"></path>
<path d="M1.187 0.891 Q1.059 0.787 0.828 0.826" stroke="hsl(0.0,100%,35%)" stroke-width="0.02472"></path>
<path d="M1.187 0.891 Q1.892 0.768 1.807 0.398" stroke="hsl(0.0,100%,35%)" stroke-width="0.00121"></path>
<path d="M1.187 0.891 Q1.232 0.798 1.061 0.757" stroke="hsl(0.0,100%,35%)" stroke-width="0.00301"></path>
<path d="M1.187 0.891 Q2.006 0.720 1.852 0.283" stroke="hsl(0.0,100%,35%)" stroke-width="0.00121"></path>
<path d="M1.187 0.891 Q1.359 0.848 1.314 0.755" stroke="hsl(0.0,100%,35%)" stroke-width="0.00060"></path>
<path d="M1.187 0.891 Q1.735 0.495 1.083 0.141" stroke="hsl(0.0,100%,35%)" stroke-width="0.00121"></path>
<path d="M1.187 0.891 Q1.276 0.444 0.424 0.302" stroke="hsl(0.0,100%,35%)" stroke-width="0.00060"></path>
<path d="M0.535 0.422 Q0.575 0.340 0.424 0.302" stroke="hsl(120.0,100%,35%)" stroke-width="0.00965"></path>
<path d="M0.535 0.422 Q0.841 0.692 1.435 0.602" stroke="hsl(120.0,100%,35%)" stroke-width="0.00723"></path>
<path d="M0.535 0.422 Q0.486 0.787 1.187 0.891" stroke="hsl(120.0,100%,35%)" stroke-width="0.00060"></path>
<path d="M0.535 0.422 Q1.304 0.616 1.852 0.283" stroke="hsl(120.0,100%,35%)" stroke-width="0.00121"></path>
<path d="M0.535 0.422 Q1.190 0.664 1.807 0.398" stroke="hsl(120.0,100%,35%)" stroke-width="0.00121"></path>
<path d="M0.535 0.422 Q0.487 0.473 0.576 0.507" stroke="hsl(120.0,100%,35%)" stroke-width="0.00060"></path>
<path d="M0.535 0.422 Q0.643 0.696 1.201 0.704" stroke="hsl(120.0,100%,35%)" stroke-width="0.00060"></path>
<path d="M0.535 0.422 Q0.482 0.879 1.362 1.005" stroke="hsl(120.0,100%,35%)" stroke-width="0.00121"></path>
<path d="M0.535 0.422 Q1.363 0.494 1.686 0.106" stroke="hsl(120.0,100%,35%)" stroke-width="0.00060"></path>
<path d="M0.535 0.422 Q0.357 0.683 0.828 0.826" stroke="hsl(120.0,100%,35%)" stroke-width="0.00181"></path>
<path d="M0.535 0.422 Q0.355 0.318 0.114 0.384" stroke="hsl(120.0,100%,35%)" stroke-width="0.00181"></path>
<path d="M0.535 0.422 Q0.163 0.492 0.219 0.689" stroke="hsl(120.0,100%,35%)" stroke-width="0.00060"></path>
<path d="M1.617 0.249 Q0.885 0.576 1.362 1.005" stroke="hsl(120.0,100%,35%)" stroke-width="0.00121"></path>
<path d="M1.617 0.249 Q1.244 0.390 1.435 0.602" stroke="hsl(120.0,100%,35%)" stroke-width="0.00241"></path>
<path d="M1.617 0.249 Q1.527 0.298 1.601 0.352" stroke="hsl(120.0,100%,35%)" stroke-width="0.00060"></path>
<path d="M1.617 0.249 Q1.593 0.362 1.807 0.398" stroke="hsl(120.0,100%,35%)" stroke-width="0.00181"></path>
<path d="M1.617 0.249 Q1.707 0.313 1.852 0.283" stroke="hsl(120.0,100%,35%)" stroke-width="0.00422"></path>
<path d="M1.617 0.249 Q0.758 0.016 0.114 0.384" stroke="hsl(120.0,100%,35%)" stroke-width="0.00241"></path>
<path d="M1.617 0.249 Q1.046 0.394 1.201 0.704" stroke="hsl(120.0,100%,35%)" stroke-width="0.00060"></path>
<path d="M1.617 0.249 Q0.938 0.119 0.535 0.422" stroke="hsl(120.0,100%,35%)" stroke-width="0.00060"></path>
<path d="M1.852 0.283 Q1.083 0.089 0.535 0.422" stroke="hsl(120.0,100%,35%)" stroke-width="0.00241"></path>
<path d="M1.852 0.283 Q1.123 0.007 0.424 0.302" stroke="hsl(120.0,100%,35%)" stroke-width="0.01025"></path>
<path d="M1.852 0.283 Q1.738 0.331 1.807 0.398" stroke="hsl(120.0,100%,35%)" stroke-width="0.02291"></path>
<path d="M1.852 0.283 Q0.903 -0.014 0.114 0.384" stroke="hsl(120.0,100%,35%)" stroke-width="0.00181"></path>
<path d="M1.852 0.283 Q1.581 0.058 1.083 0.141" stroke="hsl(120.0,100%,35%)" stroke-width="0.00060"></path>
<path d="M1.852 0.283 Q1.745 0.072 1.309 0.078" stroke="hsl(120.0,100%,35%)" stroke-width="0.00181"></path>
<path d="M1.852 0.283 Q1.761 0.219 1.617 0.249" stroke="hsl(120.0,100%,35%)" stroke-width="0.00060"></path>
<path d="M1.888 0.817 Q2.190 0.332 1.309 0.078" stroke="hsl(0.0,100%,35%)" stroke-width="0.00060"></path>
<path d="M1.888 0.817 Q1.778 0.866 1.849 0.930" stroke="hsl(0.0,100%,35%)" stroke-width="0.00121"></path>
<path d="M1.888 0.817 Q1.156 0.419 0.219 0.689" stroke="hsl(0.0,100%,35%)" stroke-width="0.00060"></path>
<path d="M1.849 0.930 Q1.792 0.886 1.694 0.905" stroke="hsl(0.0,100%,35%)" stroke-width="0.00603"></path>
<path d="M1.849 0.930 Q2.261 0.396 1.309 0.078" stroke="hsl(0.0,100%,35%)" stroke-width="0.00121"></path>
<path d="M1.849 0.930 Q1.743 0.904 1.670 0.951" stroke="hsl(0.0,100%,35%)" stroke-width="0.00060"></path>
<path d="M1.849 0.930 Q1.959 0.881 1.888 0.817" stroke="hsl(0.0,100%,35%)" stroke-width="0.00060"></path>
<path d="M0.219 0.689 Q0.281 0.605 0.131 0.556" stroke="hsl(0.0,100%,35%)" stroke-width="0.00723"></path>
<path d="M0.219 0.689 Q0.413 0.879 0.828 0.826" stroke="hsl(0.0,100%,35%)" stroke-width="0.01206"></path>
<path d="M0.219 0.689 Q1.246 0.861 1.807 0.398" stroke="hsl(0.0,100%,35%)" stroke-width="0.00181"></path>
<path d="M0.219 0.689 Q0.590 0.618 0.535 0.422" stroke="hsl(0.0,100%,35%)" stroke-width="0.00060"></path>
<path d="M0.219 0.689 Q1.004 0.660 1.120 0.270" stroke="hsl(0.0,100%,35%)" stroke-width="0.00060"></path>
<path d="M0.219 0.689 Q0.698 0.893 1.201 0.704" stroke="hsl(0.0,100%,35%)" stroke-width="0.00060"></path>
<path d="M0.219 0.689 Q0.579 0.868 1.008 0.731" stroke="hsl(0.0,100%,35%)" stroke-width="0.00060"></path>
<path d="M0.219 0.689 Q0.029 0.738 0.084 0.841" stroke="hsl(0.0,100%,35%)" stroke-width="0.00060"></path>
<path d="M0.219 0.689 Q0.781 1.000 1.511 0.794" stroke="hsl(0.0,100%,35%)" stroke-width="0.00060"></path>
<path d="M0.219 0.689 Q1.252 0.602 1.309 0.078" stroke="hsl(0.0,100%,35%)" stroke-width="0.00060"></path>
<path d="M0.219 0.689 Q0.209 0.798 0.420 0.827" stroke="hsl(0.0,100%,35%)" stroke-width="0.00181"></path>
<path d="M1.197 0.380 Q1.023 0.650 1.511 0.794" stroke="hsl(0.0,100%,35%)" stroke-width="0.00060"></path>
<path d="M1.197 0.380 Q1.311 0.408 1.391 0.359" stroke="hsl(0.0,100%,35%)" stroke-width="0.00060"></path>
<path d="M1.197 0.380 Q0.655 0.529 0.828 0.826" stroke="hsl(0.0,100%,35%)" stroke-width="0.00060"></path>
<path d="M0.567 0.032 Q0.417 0.054 0.425 0.132" stroke="hsl(0.0,100%,35%)" stroke-width="0.00060"></path>
<path d="M0.567 0.032 Q0.443 0.230 0.801 0.334" stroke="hsl(0.0,100%,35%)" stroke-width="0.00241"></path>
<path d="M0.567 0.032 Q0.606 0.142 0.828 0.147" stroke="hsl(0.0,100%,35%)" stroke-width="0.00060"></path>
<path d="M0.567 0.032 Q0.240 0.221 0.535 0.422" stroke="hsl(0.0,100%,35%)" stroke-width="0.00060"></path>
<path d="M0.567 0.032 Q0.331 0.356 0.909 0.542" stroke="hsl(0.0,100%,35%)" stroke-width="0.00121"></path>
<path d="M0.567 0.032 Q0.654 0.262 1.120 0.270" stroke="hsl(0.0,100%,35%)" stroke-width="0.00060"></path>
<path d="M0.567 0.032 Q0.430 0.602 1.511 0.794" stroke="hsl(0.0,100%,35%)" stroke-width="0.00060"></path>
<path d="M0.775 0.606 Q0.669 0.578 0.592 0.624" stroke="hsl(0.0,100%,35%)" stroke-width="0.00422"></path>
<path d="M0.775 0.606 Q1.464 0.449 1.309 0.078" stroke="hsl(0.0,100%,35%)" stroke-width="0.00241"></path>
<path d="M0.775 0.606 Q0.992 0.847 1.511 0.794" stroke="hsl(0.0,100%,35%)" stroke-width="0.00060"></path>
<path d="M0.775 0.606 Q0.749 0.923 1.362 1.005" stroke="hsl(0.0,100%,35%)" stroke-width="0.00060"></path>
<path d="M0.775 0.606 Q0.893 0.601 0.909 0.542" stroke="hsl(0.0,100%,35%)" stroke-width="0.00241"></path>
<path d="M0.775 0.606 Q1.216 0.507 1.120 0.270" stroke="hsl(0.0,100%,35%)" stroke-width="0.00060"></path>
<path d="M0.775 0.606 Q0.791 0.715 1.008 0.731" stroke="hsl(0.0,100%,35%)" stroke-width="0.00060"></path>
<path d="M1.686 0.106 Q1.627 0.228 1.852 0.283" stroke="hsl(0.0,100%,35%)" stroke-width="0.00965"></path>
<path d="M1.686 0.106 Q1.451 0.071 1.329 0.177" stroke="hsl(0.0,100%,35%)" stroke-width="0.00543"></path>
<path d="M1.686 0.106 Q1.356 0.003 1.083 0.141" stroke="hsl(0.0,100%,35%)" stroke-width="0.00543"></path>
<path d="M1.686 0.106 Q1.520 0.017 1.309 0.078" stroke="hsl(0.0,100%,35%)" stroke-width="0.00663"></path>
<path d="M1.686 0.106 Q1.048 0.415 1.511 0.794" stroke="hsl(0.0,100%,35%)" stroke-width="0.00121"></path>
<path d="M1.686 0.106 Q0.858 0.034 0.535 0.422" stroke="hsl(0.0,100%,35%)" stroke-width="0.00060"></path>
<path d="M1.686 0.106 Q1.164 0.304 1.435 0.602" stroke="hsl(0.0,100%,35%)" stroke-width="0.00060"></path>
<path d="M1.686 0.106 Q1.272 0.075 1.120 0.270" stroke="hsl(0.0,100%,35%)" stroke-width="0.00121"></path>
<path d="M1.686 0.106 Q0.805 0.491 1.362 1.005" stroke="hsl(0.0,100%,35%)" stroke-width="0.00060"></path>
<path d="M1.538 0.461 Q1.838 0.435 1.852 0.283" stroke="hsl(120.0,100%,35%)" stroke-width="0.00060"></path>
<path d="M1.538 0.461 Q1.724 0.483 1.807 0.398" stroke="hsl(120.0,100%,35%)" stroke-width="0.00301"></path>
<path d="M1.538 0.461 Q1.567 0.210 1.083 0.141" stroke="hsl(120.0,100%,35%)" stroke-width="0.00060"></path>
<path d="M1.538 0.461 Q1.259 0.622 1.511 0.794" stroke="hsl(120.0,100%,35%)" stroke-width="0.00060"></path>
<path d="M0.858 0.159 Q0.900 0.267 1.120 0.270" stroke="hsl(0.0,100%,35%)" stroke-width="0.00121"></path>
<path d="M0.858 0.159 Q0.609 0.548 1.314 0.755" stroke="hsl(0.0,100%,35%)" stroke-width="0.00121"></path>
<path d="M0.858 0.159 Q0.737 0.743 1.849 0.930" stroke="hsl(0.0,100%,35%)" stroke-width="0.00060"></path>
<path d="M1.759 0.690 Q1.715 0.726 1.776 0.755" stroke="hsl(120.0,100%,35%)" stroke-width="0.01266"></path>
<path d="M1.759 0.690 Q2.130 0.505 1.852 0.283" stroke="hsl(120.0,100%,35%)" stroke-width="0.00060"></path>
<path d="M1.759 0.690 Q2.016 0.553 1.807 0.398" stroke="hsl(120.0,100%,35%)" stroke-width="0.00362"></path>
<path d="M1.759 0.690 Q1.361 0.311 0.535 0.422" stroke="hsl(120.0,100%,35%)" stroke-width="0.00060"></path>
<path d="M1.759 0.690 Q1.401 0.229 0.424 0.302" stroke="hsl(120.0,100%,35%)" stroke-width="0.00121"></path>
<path d="M1.759 0.690 Q1.184 0.572 0.828 0.826" stroke="hsl(120.0,100%,35%)" stroke-width="0.00121"></path>
<path d="M1.759 0.690 Q1.312 0.676 1.187 0.891" stroke="hsl(120.0,100%,35%)" stroke-width="0.00060"></path>
<path d="M1.759 0.690 Q1.931 0.694 1.977 0.611" stroke="hsl(120.0,100%,35%)" stroke-width="0.00301"></path>
<path d="M1.759 0.690 Q1.356 0.584 1.061 0.757" stroke="hsl(120.0,100%,35%)" stroke-width="0.00060"></path>
<path d="M1.759 0.690 Q1.551 0.692 1.511 0.794" stroke="hsl(120.0,100%,35%)" stroke-width="0.00060"></path>
<path d="M1.759 0.690 Q1.564 0.320 0.801 0.334" stroke="hsl(120.0,100%,35%)" stroke-width="0.00060"></path>
<path d="M1.759 0.690 Q1.667 0.581 1.435 0.602" stroke="hsl(120.0,100%,35%)" stroke-width="0.00181"></path>
<path d="M1.759 0.690 Q1.859 0.280 1.083 0.141" stroke="hsl(120.0,100%,35%)" stroke-width="0.00060"></path>
<path d="M1.061 0.757 Q1.017 0.849 1.187 0.891" stroke="hsl(0.0,100%,35%)" stroke-width="0.00241"></path>
<path d="M1.061 0.757 Q1.728 0.467 1.309 0.078" stroke="hsl(0.0,100%,35%)" stroke-width="0.00121"></path>
<path d="M1.061 0.757 Q1.055 0.733 1.008 0.731" stroke="hsl(0.0,100%,35%)" stroke-width="0.00362"></path>
<path d="M1.061 0.757 Q1.658 0.521 1.329 0.177" stroke="hsl(0.0,100%,35%)" stroke-width="0.00060"></path>
<path d="M1.061 0.757 Q0.888 0.745 0.828 0.826" stroke="hsl(0.0,100%,35%)" stroke-width="0.00241"></path>
<path d="M1.061 0.757 Q1.256 0.865 1.511 0.794" stroke="hsl(0.0,100%,35%)" stroke-width="0.00181"></path>
<path d="M1.061 0.757 Q0.694 0.554 0.219 0.689" stroke="hsl(0.0,100%,35%)" stroke-width="0.00060"></path>
<path d="M1.061 0.757 Q1.269 0.493 0.801 0.334" stroke="hsl(0.0,100%,35%)" stroke-width="0.00060"></path>
<path d="M1.061 0.757 Q1.174 0.758 1.201 0.704" stroke="hsl(0.0,100%,35%)" stroke-width="0.00060"></path>
<path d="M1.061 0.757 Q1.189 0.807 1.314 0.755" stroke="hsl(0.0,100%,35%)" stroke-width="0.00060"></path>
<path d="M1.061 0.757 Q1.372 0.754 1.435 0.602" stroke="hsl(0.0,100%,35%)" stroke-width="0.00060"></path>
<path d="M1.026 0.485 Q0.804 0.495 0.775 0.606" stroke="hsl(0.0,100%,35%)" stroke-width="0.00181"></path>
<path d="M1.026 0.485 Q1.022 0.736 1.511 0.794" stroke="hsl(0.0,100%,35%)" stroke-width="0.00060"></path>
<path d="M1.026 0.485 Q1.245 0.396 1.120 0.270" stroke="hsl(0.0,100%,35%)" stroke-width="0.00060"></path>
<path d="M0.592 0.624 Q0.698 0.651 0.775 0.606" stroke="hsl(0.0,100%,35%)" stroke-width="0.00362"></path>
<path d="M0.592 0.624 Q0.816 0.646 0.909 0.542" stroke="hsl(0.0,100%,35%)" stroke-width="0.00060"></path>
<path d="M0.592 0.624 Q0.622 0.918 1.204 0.969" stroke="hsl(0.0,100%,35%)" stroke-width="0.00181"></path>
<path d="M0.834 0.429 Q1.104 0.407 1.120 0.270" stroke="hsl(120.0,100%,35%)" stroke-width="0.00060"></path>
<path d="M0.834 0.429 Q0.663 0.506 0.775 0.606" stroke="hsl(120.0,100%,35%)" stroke-width="0.00121"></path>
<path d="M0.834 0.429 Q0.941 0.883 1.849 0.930" stroke="hsl(120.0,100%,35%)" stroke-width="0.00060"></path>
<path d="M1.067 0.235 Q1.150 0.191 1.083 0.141" stroke="hsl(0.0,100%,35%)" stroke-width="0.00060"></path>
<path d="M1.067 0.235 Q1.066 0.263 1.120 0.270" stroke="hsl(0.0,100%,35%)" stroke-width="0.00060"></path>
<path d="M1.067 0.235 Q1.314 0.205 1.309 0.078" stroke="hsl(0.0,100%,35%)" stroke-width="0.00060"></path>
<path d="M0.488 0.966 Q0.681 1.028 0.845 0.948" stroke="hsl(240.0,100%,35%)" stroke-width="0.01567"></path>
<path d="M0.488 0.966 Q1.539 0.740 1.329 0.177" stroke="hsl(240.0,100%,35%)" stroke-width="0.00121"></path>
<path d="M0.488 0.966 Q1.252 0.973 1.435 0.602" stroke="hsl(240.0,100%,35%)" stroke-width="0.00181"></path>
<path d="M0.488 0.966 Q1.137 1.084 1.511 0.794" stroke="hsl(240.0,100%,35%)" stroke-width="0.00060"></path>
<path d="M0.488 0.966 Q0.987 0.621 0.424 0.302" stroke="hsl(240.0,100%,35%)" stroke-width="0.00060"></path>
<path d="M1.012 0.598 Q1.507 0.451 1.329 0.177" stroke="hsl(0.0,100%,35%)" stroke-width="0.00121"></path>
<path d="M1.012 0.598 Q0.861 0.871 1.362 1.005" stroke="hsl(0.0,100%,35%)" stroke-width="0.00060"></path>
<path d="M1.012 0.598 Q0.737 0.675 0.828 0.826" stroke="hsl(0.0,100%,35%)" stroke-width="0.00060"></path>
<path d="M1.012 0.598 Q1.220 0.685 1.435 0.602" stroke="hsl(0.0,100%,35%)" stroke-width="0.00121"></path>
<path d="M1.012 0.598 Q1.165 0.931 1.849 0.930" stroke="hsl(0.0,100%,35%)" stroke-width="0.00060"></path>
<path d="M1.012 0.598 Q1.105 0.796 1.511 0.794" stroke="hsl(0.0,100%,35%)" stroke-width="0.00060"></path>
<path d="M1.130 0.501 Q1.488 0.379 1.329 0.177" stroke="hsl(0.0,100%,35%)" stroke-width="0.00060"></path>
<path d="M1.130 0.501 Q1.558 0.325 1.309 0.078" stroke="hsl(0.0,100%,35%)" stroke-width="0.00121"></path>
<path d="M1.130 0.501 Q1.551 0.585 1.807 0.398" stroke="hsl(0.0,100%,35%)" stroke-width="0.00301"></path>
<path d="M1.130 0.501 Q1.201 0.613 1.435 0.602" stroke="hsl(0.0,100%,35%)" stroke-width="0.00241"></path>
<path d="M1.130 0.501 Q0.716 0.239 0.114 0.384" stroke="hsl(0.0,100%,35%)" stroke-width="0.00060"></path>
<path d="M1.130 0.501 Q1.086 0.723 1.511 0.794" stroke="hsl(0.0,100%,35%)" stroke-width="0.00181"></path>
<path d="M1.130 0.501 Q0.718 0.603 0.828 0.826" stroke="hsl(0.0,100%,35%)" stroke-width="0.00181"></path>
<path d="M1.130 0.501 Q0.847 0.707 1.187 0.891" stroke="hsl(0.0,100%,35%)" stroke-width="0.00060"></path>
<path d="M1.130 0.501 Q0.936 0.260 0.424 0.302" stroke="hsl(0.0,100%,35%)" stroke-width="0.00241"></path>
<path d="M1.130 0.501 Q1.099 0.352 0.801 0.334" stroke="hsl(0.0,100%,35%)" stroke-width="0.00241"></path>
<path d="M1.130 0.501 Q1.394 0.311 1.083 0.141" stroke="hsl(0.0,100%,35%)" stroke-width="0.00121"></path>
<path d="M1.130 0.501 Q0.896 0.342 0.535 0.422" stroke="hsl(0.0,100%,35%)" stroke-width="0.00121"></path>
</g>
<text x="1.201" y="0.687" font-size="0.032404" fill="hsl(0.0,100%,20%)">ahaas</text>
<text x="0.801" y="0.317" font-size="0.033889" fill="hsl(0.0,100%,20%)">thibaudm</text>
<text x="0.576" y="0.497" font-size="0.020654" fill="hsl(120.0,100%,20%)">evih</text>
<text x="1.435" y="0.577" font-size="0.050266" fill="hsl(0.0,100%,20%)">clemensb</text>
<text x="1.314" y="0.742" font-size="0.026251" fill="hsl(0.0,100%,20%)">pthier</text>
<text x="1.807" y="0.373" font-size="0.048268" fill="hsl(120.0,100%,20%)">nicohartmann</text>
<text x="1.391" y="0.350" font-size="0.018562" fill="hsl(0.0,100%,20%)">marja</text>
<text x="0.424" y="0.278" font-size="0.048098" fill="hsl(120.0,100%,20%)">mliedtke</text>
<text x="0.828" y="0.801" font-size="0.050591" fill="hsl(0.0,100%,20%)">mlippautz</text>
<text x="1.329" y="0.161" font-size="0.033155" fill="hsl(0.0,100%,20%)">victorgomes</text>
<text x="0.114" y="0.368" font-size="0.031636" fill="hsl(120.0,100%,20%)">manoskouk</text>
<text x="1.176" y="0.027" font-size="0.011457" fill="hsl(0.0,100%,20%)">carlscab</text>
<text x="1.083" y="0.123" font-size="0.036902" fill="hsl(0.0,100%,20%)">verwaest</text>
<text x="1.120" y="0.258" font-size="0.023963" fill="hsl(0.0,100%,20%)">cbruni</text>
<text x="1.362" y="0.990" font-size="0.029765" fill="hsl(120.0,100%,20%)">machenbach</text>
<text x="1.309" y="0.052" font-size="0.051555" fill="hsl(0.0,100%,20%)">leszeks</text>
<text x="1.670" y="0.948" font-size="0.005728" fill="hsl(120.0,100%,20%)">pfaffe</text>
<text x="1.008" y="0.714" font-size="0.035312" fill="hsl(0.0,100%,20%)">dinfuehr</text>
<text x="1.511" y="0.772" font-size="0.043813" fill="hsl(0.0,100%,20%)">ishell</text>
<text x="1.187" y="0.867" font-size="0.048437" fill="hsl(0.0,100%,20%)">saelo</text>
<text x="0.535" y="0.400" font-size="0.043437" fill="hsl(120.0,100%,20%)">jkummerow</text>
<text x="1.617" y="0.238" font-size="0.022186" fill="hsl(120.0,100%,20%)">dlehmann</text>
<text x="1.852" y="0.258" font-size="0.050102" fill="hsl(120.0,100%,20%)">dmercadier</text>
<text x="1.888" y="0.812" font-size="0.009922" fill="hsl(0.0,100%,20%)">leese</text>
<text x="0.420" y="0.821" font-size="0.012152" fill="hsl(0.0,100%,20%)">bikineev</text>
<text x="1.849" y="0.921" font-size="0.018115" fill="hsl(0.0,100%,20%)">szuend</text>
<text x="0.131" y="0.546" font-size="0.019844" fill="hsl(0.0,100%,20%)">omerkatz</text>
<text x="0.219" y="0.674" font-size="0.028927" fill="hsl(0.0,100%,20%)">nikolaos</text>
<text x="1.601" y="0.350" font-size="0.004051" fill="hsl(120.0,100%,20%)">hao.a.xu</text>
<text x="1.197" y="0.377" font-size="0.007016" fill="hsl(0.0,100%,20%)">emromero</text>
<text x="0.567" y="0.026" font-size="0.013434" fill="hsl(0.0,100%,20%)">fgm</text>
<text x="0.425" y="0.130" font-size="0.004051" fill="hsl(0.0,100%,20%)">irezvov</text>
<text x="0.828" y="0.144" font-size="0.005728" fill="hsl(0.0,100%,20%)">gdeepti</text>
<text x="0.909" y="0.537" font-size="0.010717" fill="hsl(0.0,100%,20%)">adamk</text>
<text x="0.775" y="0.594" font-size="0.023963" fill="hsl(0.0,100%,20%)">syg</text>
<text x="1.686" y="0.090" font-size="0.032404" fill="hsl(0.0,100%,20%)">olivf</text>
<text x="1.538" y="0.455" font-size="0.011457" fill="hsl(120.0,100%,20%)">jianxiao.lu</text>
<text x="0.858" y="0.155" font-size="0.009057" fill="hsl(0.0,100%,20%)">joyee</text>
<text x="1.204" y="0.958" font-size="0.020654" fill="hsl(120.0,100%,20%)">liviurau</text>
<text x="1.548" y="0.926" font-size="0.004051" fill="hsl(120.0,100%,20%)">hpayer</text>
<text x="1.759" y="0.676" font-size="0.027472" fill="hsl(120.0,100%,20%)">mfarazma</text>
<text x="1.776" y="0.746" font-size="0.018562" fill="hsl(120.0,100%,20%)">junyan</text>
<text x="1.977" y="0.606" font-size="0.009057" fill="hsl(120.0,100%,20%)">midawson</text>
<text x="1.061" y="0.745" font-size="0.022552" fill="hsl(0.0,100%,20%)">sroettger</text>
<text x="0.084" y="0.839" font-size="0.004051" fill="hsl(0.0,100%,20%)">yangguo</text>
<text x="1.026" y="0.480" font-size="0.009057" fill="hsl(0.0,100%,20%)">nribaudo</text>
<text x="0.592" y="0.615" font-size="0.016701" fill="hsl(0.0,100%,20%)">rezvan</text>
<text x="0.834" y="0.425" font-size="0.008101" fill="hsl(120.0,100%,20%)">seokho</text>
<text x="1.067" y="0.232" font-size="0.007016" fill="hsl(0.0,100%,20%)">seth.brenith</text>
<text x="1.694" y="0.898" font-size="0.012809" fill="hsl(120.0,100%,20%)">bmeurer</text>
<text x="0.488" y="0.954" font-size="0.023269" fill="hsl(240.0,100%,20%)">yahan</text>
<text x="0.845" y="0.938" font-size="0.020654" fill="hsl(240.0,100%,20%)">qiuji</text>
<text x="1.012" y="0.592" font-size="0.011457" fill="hsl(0.0,100%,20%)">zcbenz</text>
<text x="1.130" y="0.489" font-size="0.022913" fill="hsl(0.0,100%,20%)">zhaojiazhong-hf</text>
</svg>
