<svg width="4000" height="2000" viewBox="-0.025 -0.025 2.05 1.05" xmlns="http://www.w3.org/2000/svg">
  <style>
    path {
      fill: none;
      stroke-linecap: round;
      stroke-opacity: 0.4;
    }

    text {
      text-anchor: middle;
      alignment-baseline: hanging;
    }
  </style>
  <g opacity="0.4">
<path d="M1.365 0.866 Q1.665 0.922 1.841 0.788" stroke="hsl(0.0,100%,35%)" stroke-width="0.00059"></path>
<path d="M1.365 0.866 Q0.832 0.677 0.344 0.895" stroke="hsl(0.0,100%,35%)" stroke-width="0.00351"></path>
<path d="M1.365 0.866 Q1.529 0.468 0.788 0.300" stroke="hsl(0.0,100%,35%)" stroke-width="0.00117"></path>
<path d="M1.365 0.866 Q1.695 0.849 1.735 0.684" stroke="hsl(0.0,100%,35%)" stroke-width="0.00410"></path>
<path d="M1.365 0.866 Q1.573 0.779 1.448 0.658" stroke="hsl(0.0,100%,35%)" stroke-width="0.00293"></path>
<path d="M1.365 0.866 Q1.468 0.722 1.209 0.639" stroke="hsl(0.0,100%,35%)" stroke-width="0.00644"></path>
<path d="M1.365 0.866 Q1.222 0.869 1.196 0.939" stroke="hsl(0.0,100%,35%)" stroke-width="0.00059"></path>
<path d="M1.365 0.866 Q1.234 0.846 1.166 0.906" stroke="hsl(0.0,100%,35%)" stroke-width="0.00059"></path>
<path d="M1.365 0.866 Q1.550 0.865 1.588 0.775" stroke="hsl(0.0,100%,35%)" stroke-width="0.00059"></path>
<path d="M1.365 0.866 Q0.774 0.719 0.356 0.974" stroke="hsl(0.0,100%,35%)" stroke-width="0.00059"></path>
<path d="M1.365 0.866 Q1.832 0.755 1.717 0.503" stroke="hsl(0.0,100%,35%)" stroke-width="0.00059"></path>
<path d="M1.365 0.866 Q1.581 0.670 1.246 0.522" stroke="hsl(0.0,100%,35%)" stroke-width="0.00059"></path>
<path d="M1.365 0.866 Q1.968 0.781 1.934 0.468" stroke="hsl(0.0,100%,35%)" stroke-width="0.00059"></path>
<path d="M1.365 0.866 Q1.931 0.618 1.571 0.288" stroke="hsl(0.0,100%,35%)" stroke-width="0.00059"></path>
<path d="M1.365 0.866 Q1.099 0.561 0.444 0.623" stroke="hsl(0.0,100%,35%)" stroke-width="0.00176"></path>
<path d="M1.365 0.866 Q0.688 0.691 0.197 0.982" stroke="hsl(0.0,100%,35%)" stroke-width="0.00059"></path>
<path d="M1.365 0.866 Q1.402 0.778 1.237 0.741" stroke="hsl(0.0,100%,35%)" stroke-width="0.00176"></path>
<path d="M1.841 0.788 Q2.143 0.647 1.934 0.468" stroke="hsl(120.0,100%,35%)" stroke-width="0.00059"></path>
<path d="M1.841 0.788 Q0.864 0.557 0.197 0.982" stroke="hsl(120.0,100%,35%)" stroke-width="0.00176"></path>
<path d="M1.841 0.788 Q1.719 0.446 1.025 0.430" stroke="hsl(120.0,100%,35%)" stroke-width="0.00117"></path>
<path d="M1.841 0.788 Q1.563 0.360 0.666 0.401" stroke="hsl(120.0,100%,35%)" stroke-width="0.00059"></path>
<path d="M1.841 0.788 Q1.407 0.605 0.954 0.776" stroke="hsl(120.0,100%,35%)" stroke-width="0.00059"></path>
<path d="M1.841 0.788 Q1.320 0.641 0.920 0.863" stroke="hsl(120.0,100%,35%)" stroke-width="0.00059"></path>
<path d="M1.841 0.788 Q1.676 0.772 1.609 0.849" stroke="hsl(120.0,100%,35%)" stroke-width="0.00059"></path>
<path d="M1.841 0.788 Q2.024 0.397 1.302 0.222" stroke="hsl(120.0,100%,35%)" stroke-width="0.00059"></path>
<path d="M0.344 0.895 Q0.287 0.937 0.356 0.974" stroke="hsl(0.0,100%,35%)" stroke-width="0.01816"></path>
<path d="M0.344 0.895 Q0.877 1.085 1.365 0.866" stroke="hsl(0.0,100%,35%)" stroke-width="0.00117"></path>
<path d="M0.344 0.895 Q1.344 0.974 1.717 0.503" stroke="hsl(0.0,100%,35%)" stroke-width="0.00117"></path>
<path d="M0.344 0.895 Q0.900 0.832 0.899 0.548" stroke="hsl(0.0,100%,35%)" stroke-width="0.00059"></path>
<path d="M0.344 0.895 Q0.981 0.940 1.209 0.639" stroke="hsl(0.0,100%,35%)" stroke-width="0.00469"></path>
<path d="M0.344 0.895 Q1.480 1.000 1.934 0.468" stroke="hsl(0.0,100%,35%)" stroke-width="0.00059"></path>
<path d="M0.344 0.895 Q0.745 0.957 0.954 0.776" stroke="hsl(0.0,100%,35%)" stroke-width="0.00059"></path>
<path d="M0.344 0.895 Q1.094 0.889 1.246 0.522" stroke="hsl(0.0,100%,35%)" stroke-width="0.00117"></path>
<path d="M0.344 0.895 Q1.062 1.084 1.588 0.775" stroke="hsl(0.0,100%,35%)" stroke-width="0.00059"></path>
<path d="M0.344 0.895 Q0.657 0.994 0.920 0.863" stroke="hsl(0.0,100%,35%)" stroke-width="0.00059"></path>
<path d="M0.788 0.300 Q0.924 0.755 1.841 0.788" stroke="hsl(120.0,100%,35%)" stroke-width="0.00059"></path>
<path d="M0.788 0.300 Q0.803 0.413 1.025 0.430" stroke="hsl(120.0,100%,35%)" stroke-width="0.00644"></path>
<path d="M0.788 0.300 Q1.108 0.364 1.302 0.222" stroke="hsl(120.0,100%,35%)" stroke-width="0.00469"></path>
<path d="M0.788 0.300 Q0.623 0.699 1.365 0.866" stroke="hsl(120.0,100%,35%)" stroke-width="0.00117"></path>
<path d="M0.788 0.300 Q1.189 0.451 1.571 0.288" stroke="hsl(120.0,100%,35%)" stroke-width="0.00234"></path>
<path d="M0.788 0.300 Q0.491 0.571 0.954 0.776" stroke="hsl(120.0,100%,35%)" stroke-width="0.00059"></path>
<path d="M1.735 0.684 Q0.728 0.526 0.197 0.982" stroke="hsl(0.0,100%,35%)" stroke-width="0.00351"></path>
<path d="M1.735 0.684 Q1.404 0.701 1.365 0.866" stroke="hsl(0.0,100%,35%)" stroke-width="0.01582"></path>
<path d="M1.735 0.684 Q1.589 0.700 1.588 0.775" stroke="hsl(0.0,100%,35%)" stroke-width="0.00469"></path>
<path d="M1.735 0.684 Q0.871 0.512 0.344 0.895" stroke="hsl(0.0,100%,35%)" stroke-width="0.00117"></path>
<path d="M1.735 0.684 Q1.621 0.505 1.246 0.522" stroke="hsl(0.0,100%,35%)" stroke-width="0.00469"></path>
<path d="M1.735 0.684 Q1.871 0.590 1.717 0.503" stroke="hsl(0.0,100%,35%)" stroke-width="0.00117"></path>
<path d="M1.735 0.684 Q1.613 0.614 1.448 0.658" stroke="hsl(0.0,100%,35%)" stroke-width="0.00996"></path>
<path d="M1.735 0.684 Q1.138 0.396 0.444 0.623" stroke="hsl(0.0,100%,35%)" stroke-width="0.00527"></path>
<path d="M1.735 0.684 Q1.184 0.611 0.920 0.863" stroke="hsl(0.0,100%,35%)" stroke-width="0.00176"></path>
<path d="M1.735 0.684 Q1.970 0.454 1.571 0.288" stroke="hsl(0.0,100%,35%)" stroke-width="0.00234"></path>
<path d="M1.735 0.684 Q1.524 0.643 1.396 0.737" stroke="hsl(0.0,100%,35%)" stroke-width="0.00059"></path>
<path d="M1.735 0.684 Q1.427 0.449 0.899 0.548" stroke="hsl(0.0,100%,35%)" stroke-width="0.00117"></path>
<path d="M1.735 0.684 Q0.814 0.554 0.356 0.974" stroke="hsl(0.0,100%,35%)" stroke-width="0.00234"></path>
<path d="M1.735 0.684 Q1.427 0.329 0.666 0.401" stroke="hsl(0.0,100%,35%)" stroke-width="0.00059"></path>
<path d="M1.735 0.684 Q1.508 0.557 1.209 0.639" stroke="hsl(0.0,100%,35%)" stroke-width="0.00234"></path>
<path d="M1.735 0.684 Q1.022 0.597 0.695 0.925" stroke="hsl(0.0,100%,35%)" stroke-width="0.00059"></path>
<path d="M1.735 0.684 Q1.743 0.400 1.189 0.333" stroke="hsl(0.0,100%,35%)" stroke-width="0.00059"></path>
<path d="M1.448 0.658 Q0.649 0.598 0.356 0.974" stroke="hsl(0.0,100%,35%)" stroke-width="0.00176"></path>
<path d="M1.448 0.658 Q1.570 0.728 1.735 0.684" stroke="hsl(0.0,100%,35%)" stroke-width="0.00527"></path>
<path d="M1.448 0.658 Q1.456 0.549 1.246 0.522" stroke="hsl(0.0,100%,35%)" stroke-width="0.00293"></path>
<path d="M1.448 0.658 Q1.343 0.601 1.209 0.639" stroke="hsl(0.0,100%,35%)" stroke-width="0.00586"></path>
<path d="M1.448 0.658 Q1.240 0.745 1.365 0.866" stroke="hsl(0.0,100%,35%)" stroke-width="0.00117"></path>
<path d="M1.448 0.658 Q0.706 0.556 0.344 0.895" stroke="hsl(0.0,100%,35%)" stroke-width="0.00117"></path>
<path d="M1.448 0.658 Q1.667 0.515 1.436 0.376" stroke="hsl(0.0,100%,35%)" stroke-width="0.00059"></path>
<path d="M1.448 0.658 Q1.805 0.498 1.571 0.288" stroke="hsl(0.0,100%,35%)" stroke-width="0.00059"></path>
<path d="M1.209 0.639 Q1.321 0.588 1.246 0.522" stroke="hsl(0.0,100%,35%)" stroke-width="0.01113"></path>
<path d="M1.209 0.639 Q1.314 0.696 1.448 0.658" stroke="hsl(0.0,100%,35%)" stroke-width="0.00410"></path>
<path d="M1.209 0.639 Q1.436 0.767 1.735 0.684" stroke="hsl(0.0,100%,35%)" stroke-width="0.00117"></path>
<path d="M1.209 0.639 Q0.572 0.594 0.344 0.895" stroke="hsl(0.0,100%,35%)" stroke-width="0.01054"></path>
<path d="M1.209 0.639 Q1.142 0.696 1.237 0.741" stroke="hsl(0.0,100%,35%)" stroke-width="0.00234"></path>
<path d="M1.209 0.639 Q0.514 0.636 0.356 0.974" stroke="hsl(0.0,100%,35%)" stroke-width="0.01113"></path>
<path d="M1.209 0.639 Q1.105 0.784 1.365 0.866" stroke="hsl(0.0,100%,35%)" stroke-width="0.00059"></path>
<path d="M1.209 0.639 Q1.572 0.673 1.717 0.503" stroke="hsl(0.0,100%,35%)" stroke-width="0.00176"></path>
<path d="M1.209 0.639 Q0.429 0.609 0.197 0.982" stroke="hsl(0.0,100%,35%)" stroke-width="0.00059"></path>
<path d="M1.209 0.639 Q1.001 0.403 0.493 0.452" stroke="hsl(0.0,100%,35%)" stroke-width="0.00059"></path>
<path d="M1.209 0.639 Q1.671 0.536 1.571 0.288" stroke="hsl(0.0,100%,35%)" stroke-width="0.00117"></path>
<path d="M1.588 0.775 Q1.734 0.759 1.735 0.684" stroke="hsl(0.0,100%,35%)" stroke-width="0.00234"></path>
<path d="M1.588 0.775 Q1.870 0.665 1.717 0.503" stroke="hsl(0.0,100%,35%)" stroke-width="0.00059"></path>
<path d="M1.588 0.775 Q1.137 0.470 0.444 0.623" stroke="hsl(0.0,100%,35%)" stroke-width="0.00059"></path>
<path d="M1.588 0.775 Q0.870 0.586 0.344 0.895" stroke="hsl(0.0,100%,35%)" stroke-width="0.00410"></path>
<path d="M1.588 0.775 Q0.813 0.628 0.356 0.974" stroke="hsl(0.0,100%,35%)" stroke-width="0.00176"></path>
<path d="M1.588 0.775 Q1.620 0.580 1.246 0.522" stroke="hsl(0.0,100%,35%)" stroke-width="0.00234"></path>
<path d="M1.588 0.775 Q1.404 0.776 1.365 0.866" stroke="hsl(0.0,100%,35%)" stroke-width="0.00059"></path>
<path d="M1.588 0.775 Q1.018 0.584 0.520 0.821" stroke="hsl(0.0,100%,35%)" stroke-width="0.00059"></path>
<path d="M0.356 0.974 Q0.414 0.932 0.344 0.895" stroke="hsl(0.0,100%,35%)" stroke-width="0.01582"></path>
<path d="M0.356 0.974 Q1.155 1.034 1.448 0.658" stroke="hsl(0.0,100%,35%)" stroke-width="0.00234"></path>
<path d="M0.356 0.974 Q0.947 1.122 1.365 0.866" stroke="hsl(0.0,100%,35%)" stroke-width="0.00117"></path>
<path d="M0.356 0.974 Q0.727 1.031 0.920 0.863" stroke="hsl(0.0,100%,35%)" stroke-width="0.00059"></path>
<path d="M0.356 0.974 Q0.270 0.947 0.197 0.982" stroke="hsl(0.0,100%,35%)" stroke-width="0.00234"></path>
<path d="M0.356 0.974 Q1.111 0.724 0.788 0.300" stroke="hsl(0.0,100%,35%)" stroke-width="0.00059"></path>
<path d="M0.356 0.974 Q0.517 1.007 0.615 0.935" stroke="hsl(0.0,100%,35%)" stroke-width="0.00117"></path>
<path d="M0.356 0.974 Q1.051 0.977 1.209 0.639" stroke="hsl(0.0,100%,35%)" stroke-width="0.00469"></path>
<path d="M0.356 0.974 Q0.969 0.750 0.666 0.401" stroke="hsl(0.0,100%,35%)" stroke-width="0.00059"></path>
<path d="M0.356 0.974 Q1.277 1.105 1.735 0.684" stroke="hsl(0.0,100%,35%)" stroke-width="0.00059"></path>
<path d="M1.717 0.503 Q0.717 0.424 0.344 0.895" stroke="hsl(240.0,100%,35%)" stroke-width="0.00059"></path>
<path d="M1.717 0.503 Q1.730 0.445 1.619 0.426" stroke="hsl(240.0,100%,35%)" stroke-width="0.01464"></path>
<path d="M1.717 0.503 Q1.735 0.279 1.302 0.222" stroke="hsl(240.0,100%,35%)" stroke-width="0.00059"></path>
<path d="M1.717 0.503 Q0.660 0.467 0.356 0.974" stroke="hsl(240.0,100%,35%)" stroke-width="0.00117"></path>
<path d="M1.717 0.503 Q1.579 0.467 1.477 0.526" stroke="hsl(240.0,100%,35%)" stroke-width="0.00176"></path>
<path d="M1.717 0.503 Q1.581 0.597 1.735 0.684" stroke="hsl(240.0,100%,35%)" stroke-width="0.00176"></path>
<path d="M1.717 0.503 Q1.354 0.470 1.209 0.639" stroke="hsl(240.0,100%,35%)" stroke-width="0.00176"></path>
<path d="M1.717 0.503 Q1.551 0.670 1.841 0.788" stroke="hsl(240.0,100%,35%)" stroke-width="0.00117"></path>
<path d="M1.717 0.503 Q1.031 0.524 0.920 0.863" stroke="hsl(240.0,100%,35%)" stroke-width="0.00293"></path>
<path d="M1.246 0.522 Q1.134 0.573 1.209 0.639" stroke="hsl(0.0,100%,35%)" stroke-width="0.00351"></path>
<path d="M1.246 0.522 Q1.238 0.630 1.448 0.658" stroke="hsl(0.0,100%,35%)" stroke-width="0.00644"></path>
<path d="M1.246 0.522 Q0.497 0.528 0.344 0.895" stroke="hsl(0.0,100%,35%)" stroke-width="0.00117"></path>
<path d="M1.246 0.522 Q0.439 0.570 0.356 0.974" stroke="hsl(0.0,100%,35%)" stroke-width="0.00059"></path>
<path d="M1.246 0.522 Q0.764 0.412 0.444 0.623" stroke="hsl(0.0,100%,35%)" stroke-width="0.00176"></path>
<path d="M1.246 0.522 Q1.215 0.717 1.588 0.775" stroke="hsl(0.0,100%,35%)" stroke-width="0.00059"></path>
<path d="M1.246 0.522 Q1.360 0.701 1.735 0.684" stroke="hsl(0.0,100%,35%)" stroke-width="0.00059"></path>
<path d="M1.934 0.468 Q1.111 0.463 0.920 0.863" stroke="hsl(120.0,100%,35%)" stroke-width="0.00234"></path>
<path d="M1.934 0.468 Q1.198 0.426 0.954 0.776" stroke="hsl(120.0,100%,35%)" stroke-width="0.00117"></path>
<path d="M1.934 0.468 Q0.798 0.364 0.344 0.895" stroke="hsl(120.0,100%,35%)" stroke-width="0.00117"></path>
<path d="M1.934 0.468 Q1.815 0.219 1.302 0.222" stroke="hsl(120.0,100%,35%)" stroke-width="0.00234"></path>
<path d="M1.934 0.468 Q1.151 0.109 0.277 0.412" stroke="hsl(120.0,100%,35%)" stroke-width="0.00059"></path>
<path d="M1.934 0.468 Q0.740 0.406 0.356 0.974" stroke="hsl(120.0,100%,35%)" stroke-width="0.00059"></path>
<path d="M1.934 0.468 Q1.354 0.181 0.666 0.401" stroke="hsl(120.0,100%,35%)" stroke-width="0.00059"></path>
<path d="M1.934 0.468 Q1.510 0.268 1.025 0.430" stroke="hsl(120.0,100%,35%)" stroke-width="0.00059"></path>
<path d="M1.571 0.288 Q1.616 0.153 1.362 0.101" stroke="hsl(120.0,100%,35%)" stroke-width="0.00351"></path>
<path d="M1.571 0.288 Q1.489 0.201 1.302 0.222" stroke="hsl(120.0,100%,35%)" stroke-width="0.00703"></path>
<path d="M1.571 0.288 Q0.873 0.408 0.954 0.776" stroke="hsl(120.0,100%,35%)" stroke-width="0.00293"></path>
<path d="M1.571 0.288 Q0.472 0.346 0.344 0.895" stroke="hsl(120.0,100%,35%)" stroke-width="0.00117"></path>
<path d="M1.571 0.288 Q1.306 0.592 1.841 0.788" stroke="hsl(120.0,100%,35%)" stroke-width="0.00059"></path>
<path d="M1.571 0.288 Q1.433 0.305 1.436 0.376" stroke="hsl(120.0,100%,35%)" stroke-width="0.00117"></path>
<path d="M1.571 0.288 Q0.785 0.445 0.920 0.863" stroke="hsl(120.0,100%,35%)" stroke-width="0.00176"></path>
<path d="M1.571 0.288 Q1.344 0.234 1.189 0.333" stroke="hsl(120.0,100%,35%)" stroke-width="0.00176"></path>
<path d="M0.444 0.623 Q0.919 0.841 1.448 0.658" stroke="hsl(0.0,100%,35%)" stroke-width="0.00351"></path>
<path d="M0.444 0.623 Q0.874 0.531 0.788 0.300" stroke="hsl(0.0,100%,35%)" stroke-width="0.00059"></path>
<path d="M0.444 0.623 Q0.926 0.733 1.246 0.522" stroke="hsl(0.0,100%,35%)" stroke-width="0.00644"></path>
<path d="M0.444 0.623 Q0.846 0.969 1.609 0.849" stroke="hsl(0.0,100%,35%)" stroke-width="0.00059"></path>
<path d="M0.444 0.623 Q1.041 0.912 1.735 0.684" stroke="hsl(0.0,100%,35%)" stroke-width="0.00586"></path>
<path d="M0.444 0.623 Q0.889 0.643 1.025 0.430" stroke="hsl(0.0,100%,35%)" stroke-width="0.00586"></path>
<path d="M0.444 0.623 Q0.710 0.929 1.365 0.866" stroke="hsl(0.0,100%,35%)" stroke-width="0.00410"></path>
<path d="M0.444 0.623 Q0.300 0.585 0.193 0.647" stroke="hsl(0.0,100%,35%)" stroke-width="0.00117"></path>
<path d="M0.444 0.623 Q0.814 0.784 1.209 0.639" stroke="hsl(0.0,100%,35%)" stroke-width="0.00059"></path>
<path d="M0.444 0.623 Q0.119 0.781 0.356 0.974" stroke="hsl(0.0,100%,35%)" stroke-width="0.00059"></path>
<path d="M0.197 0.982 Q0.283 1.010 0.356 0.974" stroke="hsl(0.0,100%,35%)" stroke-width="0.00117"></path>
<path d="M0.197 0.982 Q0.978 1.013 1.209 0.639" stroke="hsl(0.0,100%,35%)" stroke-width="0.00059"></path>
<path d="M0.197 0.982 Q0.654 1.067 0.920 0.863" stroke="hsl(0.0,100%,35%)" stroke-width="0.00176"></path>
<path d="M0.197 0.982 Q0.694 0.713 0.277 0.412" stroke="hsl(0.0,100%,35%)" stroke-width="0.00059"></path>
<path d="M0.197 0.982 Q1.082 1.070 1.448 0.658" stroke="hsl(0.0,100%,35%)" stroke-width="0.00059"></path>
<path d="M0.197 0.982 Q0.341 0.968 0.344 0.895" stroke="hsl(0.0,100%,35%)" stroke-width="0.00059"></path>
<path d="M0.197 0.982 Q0.621 0.966 0.682 0.756" stroke="hsl(0.0,100%,35%)" stroke-width="0.00059"></path>
<path d="M0.197 0.982 Q1.477 1.073 1.934 0.468" stroke="hsl(0.0,100%,35%)" stroke-width="0.00059"></path>
<path d="M1.237 0.741 Q1.409 0.741 1.448 0.658" stroke="hsl(0.0,100%,35%)" stroke-width="0.01113"></path>
<path d="M1.237 0.741 Q1.304 0.684 1.209 0.639" stroke="hsl(0.0,100%,35%)" stroke-width="0.00937"></path>
<path d="M1.237 0.741 Q1.531 0.812 1.735 0.684" stroke="hsl(0.0,100%,35%)" stroke-width="0.00059"></path>
<path d="M1.362 0.101 Q1.317 0.236 1.571 0.288" stroke="hsl(120.0,100%,35%)" stroke-width="0.00879"></path>
<path d="M1.362 0.101 Q1.235 0.149 1.302 0.222" stroke="hsl(120.0,100%,35%)" stroke-width="0.00117"></path>
<path d="M1.362 0.101 Q1.090 0.182 1.189 0.333" stroke="hsl(120.0,100%,35%)" stroke-width="0.00117"></path>
<path d="M1.362 0.101 Q0.161 0.336 0.356 0.974" stroke="hsl(120.0,100%,35%)" stroke-width="0.00059"></path>
<path d="M1.302 0.222 Q1.384 0.309 1.571 0.288" stroke="hsl(120.0,100%,35%)" stroke-width="0.03983"></path>
<path d="M1.302 0.222 Q1.156 0.255 1.189 0.333" stroke="hsl(120.0,100%,35%)" stroke-width="0.00410"></path>
<path d="M1.302 0.222 Q0.685 0.429 0.954 0.776" stroke="hsl(120.0,100%,35%)" stroke-width="0.00059"></path>
<path d="M1.302 0.222 Q1.245 0.326 1.436 0.376" stroke="hsl(120.0,100%,35%)" stroke-width="0.00059"></path>
<path d="M1.302 0.222 Q0.598 0.466 0.920 0.863" stroke="hsl(120.0,100%,35%)" stroke-width="0.00059"></path>
<path d="M1.189 0.333 Q1.334 0.300 1.302 0.222" stroke="hsl(120.0,100%,35%)" stroke-width="0.00351"></path>
<path d="M1.189 0.333 Q1.416 0.387 1.571 0.288" stroke="hsl(120.0,100%,35%)" stroke-width="0.00644"></path>
<path d="M1.189 0.333 Q1.461 0.252 1.362 0.101" stroke="hsl(120.0,100%,35%)" stroke-width="0.00059"></path>
<path d="M1.025 0.430 Q0.869 0.344 0.666 0.401" stroke="hsl(120.0,100%,35%)" stroke-width="0.00762"></path>
<path d="M1.025 0.430 Q0.714 0.589 0.954 0.776" stroke="hsl(120.0,100%,35%)" stroke-width="0.00762"></path>
<path d="M1.025 0.430 Q0.256 0.569 0.356 0.974" stroke="hsl(120.0,100%,35%)" stroke-width="0.00234"></path>
<path d="M1.025 0.430 Q1.055 0.629 1.448 0.658" stroke="hsl(120.0,100%,35%)" stroke-width="0.00059"></path>
<path d="M1.025 0.430 Q1.331 0.381 1.302 0.222" stroke="hsl(120.0,100%,35%)" stroke-width="0.00117"></path>
<path d="M1.025 0.430 Q0.626 0.626 0.920 0.863" stroke="hsl(120.0,100%,35%)" stroke-width="0.00293"></path>
<path d="M1.025 0.430 Q0.313 0.526 0.344 0.895" stroke="hsl(120.0,100%,35%)" stroke-width="0.00117"></path>
<path d="M1.025 0.430 Q0.593 0.524 0.682 0.756" stroke="hsl(120.0,100%,35%)" stroke-width="0.00176"></path>
<path d="M0.666 0.401 Q0.822 0.488 1.025 0.430" stroke="hsl(120.0,100%,35%)" stroke-width="0.00234"></path>
<path d="M0.666 0.401 Q0.510 0.646 0.954 0.776" stroke="hsl(120.0,100%,35%)" stroke-width="0.00059"></path>
<path d="M0.666 0.401 Q-0.033 0.598 0.197 0.982" stroke="hsl(120.0,100%,35%)" stroke-width="0.00059"></path>
<path d="M0.666 0.401 Q0.053 0.626 0.356 0.974" stroke="hsl(120.0,100%,35%)" stroke-width="0.00059"></path>
<path d="M0.666 0.401 Q0.807 0.375 0.788 0.300" stroke="hsl(120.0,100%,35%)" stroke-width="0.00059"></path>
<path d="M0.666 0.401 Q0.944 0.830 1.841 0.788" stroke="hsl(120.0,100%,35%)" stroke-width="0.00293"></path>
<path d="M0.666 0.401 Q1.246 0.689 1.934 0.468" stroke="hsl(120.0,100%,35%)" stroke-width="0.00234"></path>
<path d="M0.666 0.401 Q0.390 0.582 0.682 0.756" stroke="hsl(120.0,100%,35%)" stroke-width="0.00059"></path>
<path d="M0.666 0.401 Q0.463 0.329 0.277 0.412" stroke="hsl(120.0,100%,35%)" stroke-width="0.00059"></path>
<path d="M0.666 0.401 Q0.423 0.683 0.920 0.863" stroke="hsl(120.0,100%,35%)" stroke-width="0.00176"></path>
<path d="M0.666 0.401 Q1.127 0.439 1.302 0.222" stroke="hsl(120.0,100%,35%)" stroke-width="0.00059"></path>
<path d="M0.954 0.776 Q1.388 0.959 1.841 0.788" stroke="hsl(120.0,100%,35%)" stroke-width="0.00410"></path>
<path d="M0.954 0.776 Q1.571 0.568 1.302 0.222" stroke="hsl(120.0,100%,35%)" stroke-width="0.00059"></path>
<path d="M0.954 0.776 Q1.266 0.617 1.025 0.430" stroke="hsl(120.0,100%,35%)" stroke-width="0.00059"></path>
<path d="M0.954 0.776 Q0.867 0.813 0.920 0.863" stroke="hsl(120.0,100%,35%)" stroke-width="0.00762"></path>
<path d="M0.954 0.776 Q1.653 0.655 1.571 0.288" stroke="hsl(120.0,100%,35%)" stroke-width="0.00059"></path>
<path d="M0.920 0.863 Q0.606 0.764 0.344 0.895" stroke="hsl(120.0,100%,35%)" stroke-width="0.00293"></path>
<path d="M0.920 0.863 Q1.319 0.668 1.025 0.430" stroke="hsl(120.0,100%,35%)" stroke-width="0.00176"></path>
<path d="M0.920 0.863 Q0.886 0.762 0.682 0.756" stroke="hsl(120.0,100%,35%)" stroke-width="0.00176"></path>
<path d="M0.920 0.863 Q1.025 0.663 0.657 0.568" stroke="hsl(120.0,100%,35%)" stroke-width="0.00059"></path>
<path d="M0.920 0.863 Q1.468 0.806 1.477 0.526" stroke="hsl(120.0,100%,35%)" stroke-width="0.00059"></path>
<path d="M0.920 0.863 Q1.706 0.706 1.571 0.288" stroke="hsl(120.0,100%,35%)" stroke-width="0.00351"></path>
<path d="M0.920 0.863 Q1.007 0.826 0.954 0.776" stroke="hsl(120.0,100%,35%)" stroke-width="0.00351"></path>
<path d="M0.920 0.863 Q1.470 0.937 1.735 0.684" stroke="hsl(120.0,100%,35%)" stroke-width="0.00117"></path>
<path d="M0.920 0.863 Q1.162 0.581 0.666 0.401" stroke="hsl(120.0,100%,35%)" stroke-width="0.00117"></path>
<path d="M0.920 0.863 Q0.959 0.509 0.277 0.412" stroke="hsl(120.0,100%,35%)" stroke-width="0.00059"></path>
<path d="M0.920 0.863 Q0.549 0.806 0.356 0.974" stroke="hsl(120.0,100%,35%)" stroke-width="0.00176"></path>
<path d="M0.920 0.863 Q1.243 0.809 1.209 0.639" stroke="hsl(120.0,100%,35%)" stroke-width="0.00059"></path>
<path d="M0.920 0.863 Q1.440 1.010 1.841 0.788" stroke="hsl(120.0,100%,35%)" stroke-width="0.00059"></path>
<path d="M1.477 0.526 Q0.615 0.484 0.344 0.895" stroke="hsl(240.0,100%,35%)" stroke-width="0.00059"></path>
<path d="M1.477 0.526 Q0.558 0.526 0.356 0.974" stroke="hsl(240.0,100%,35%)" stroke-width="0.00059"></path>
<path d="M1.477 0.526 Q0.929 0.583 0.920 0.863" stroke="hsl(240.0,100%,35%)" stroke-width="0.00059"></path>
<path d="M1.477 0.526 Q1.449 0.730 1.841 0.788" stroke="hsl(240.0,100%,35%)" stroke-width="0.00059"></path>
<path d="M1.477 0.526 Q1.171 0.422 0.899 0.548" stroke="hsl(240.0,100%,35%)" stroke-width="0.00234"></path>
<path d="M1.477 0.526 Q1.016 0.547 0.954 0.776" stroke="hsl(240.0,100%,35%)" stroke-width="0.00234"></path>
<path d="M1.477 0.526 Q1.616 0.563 1.717 0.503" stroke="hsl(240.0,100%,35%)" stroke-width="0.00176"></path>
<path d="M0.899 0.548 Q1.443 0.552 1.571 0.288" stroke="hsl(120.0,100%,35%)" stroke-width="0.01816"></path>
<path d="M0.899 0.548 Q1.056 0.514 1.025 0.430" stroke="hsl(120.0,100%,35%)" stroke-width="0.02402"></path>
<path d="M0.899 0.548 Q0.344 0.610 0.344 0.895" stroke="hsl(120.0,100%,35%)" stroke-width="0.00117"></path>
<path d="M0.899 0.548 Q1.041 0.402 0.788 0.300" stroke="hsl(120.0,100%,35%)" stroke-width="0.00176"></path>
<path d="M0.899 0.548 Q0.744 0.673 0.954 0.776" stroke="hsl(120.0,100%,35%)" stroke-width="0.00527"></path>
<path d="M0.899 0.548 Q1.208 0.783 1.735 0.684" stroke="hsl(120.0,100%,35%)" stroke-width="0.00527"></path>
<path d="M0.899 0.548 Q0.900 0.428 0.666 0.401" stroke="hsl(120.0,100%,35%)" stroke-width="0.00117"></path>
<path d="M0.899 0.548 Q1.488 0.417 1.362 0.101" stroke="hsl(120.0,100%,35%)" stroke-width="0.00176"></path>
<path d="M0.899 0.548 Q1.086 0.712 1.448 0.658" stroke="hsl(120.0,100%,35%)" stroke-width="0.00059"></path>
<path d="M0.899 0.548 Q0.201 0.625 0.197 0.982" stroke="hsl(120.0,100%,35%)" stroke-width="0.00059"></path>
<path d="M0.899 0.548 Q0.657 0.709 0.920 0.863" stroke="hsl(120.0,100%,35%)" stroke-width="0.00293"></path>
<path d="M0.899 0.548 Q0.762 0.509 0.657 0.568" stroke="hsl(120.0,100%,35%)" stroke-width="0.00176"></path>
<path d="M0.618 0.829 Q0.741 0.906 0.920 0.863" stroke="hsl(120.0,100%,35%)" stroke-width="0.00117"></path>
<path d="M0.618 0.829 Q1.527 0.749 1.571 0.288" stroke="hsl(120.0,100%,35%)" stroke-width="0.00117"></path>
<path d="M0.618 0.829 Q1.428 0.886 1.717 0.503" stroke="hsl(120.0,100%,35%)" stroke-width="0.00059"></path>
<path d="M0.695 0.925 Q0.656 0.973 0.740 1.003" stroke="hsl(240.0,100%,35%)" stroke-width="0.00059"></path>
<path d="M0.695 0.925 Q0.857 0.939 0.920 0.863" stroke="hsl(240.0,100%,35%)" stroke-width="0.00176"></path>
<path d="M0.695 0.925 Q0.729 0.993 0.867 0.991" stroke="hsl(240.0,100%,35%)" stroke-width="0.00469"></path>
<path d="M0.695 0.925 Q1.213 1.070 1.609 0.849" stroke="hsl(240.0,100%,35%)" stroke-width="0.00059"></path>
<path d="M0.224 0.191 Q0.121 0.630 0.954 0.776" stroke="hsl(120.0,100%,35%)" stroke-width="0.00059"></path>
<path d="M0.224 0.191 Q0.462 0.669 1.448 0.658" stroke="hsl(120.0,100%,35%)" stroke-width="0.00059"></path>
<path d="M0.224 0.191 Q0.140 0.174 0.087 0.210" stroke="hsl(120.0,100%,35%)" stroke-width="0.00059"></path>
<path d="M1.436 0.376 Q1.574 0.359 1.571 0.288" stroke="hsl(120.0,100%,35%)" stroke-width="0.01172"></path>
<path d="M1.436 0.376 Q1.619 0.224 1.362 0.101" stroke="hsl(120.0,100%,35%)" stroke-width="0.00351"></path>
<path d="M1.436 0.376 Q1.347 0.305 1.189 0.333" stroke="hsl(120.0,100%,35%)" stroke-width="0.00644"></path>
<path d="M1.436 0.376 Q1.492 0.272 1.302 0.222" stroke="hsl(120.0,100%,35%)" stroke-width="0.00117"></path>
<path d="M1.436 0.376 Q1.112 0.462 1.209 0.639" stroke="hsl(120.0,100%,35%)" stroke-width="0.00059"></path>
<path d="M1.436 0.376 Q1.187 0.321 1.025 0.430" stroke="hsl(120.0,100%,35%)" stroke-width="0.00117"></path>
<path d="M1.436 0.376 Q0.788 0.517 0.920 0.863" stroke="hsl(120.0,100%,35%)" stroke-width="0.00059"></path>
<path d="M1.436 0.376 Q0.578 0.492 0.615 0.935" stroke="hsl(120.0,100%,35%)" stroke-width="0.00059"></path>
<path d="M0.520 0.821 Q1.085 0.727 1.025 0.430" stroke="hsl(0.0,100%,35%)" stroke-width="0.00059"></path>
<path d="M0.520 0.821 Q0.315 0.865 0.356 0.974" stroke="hsl(0.0,100%,35%)" stroke-width="0.00117"></path>
<path d="M0.520 0.821 Q0.686 0.922 0.920 0.863" stroke="hsl(0.0,100%,35%)" stroke-width="0.00059"></path>
<path d="M0.520 0.821 Q1.090 1.012 1.588 0.775" stroke="hsl(0.0,100%,35%)" stroke-width="0.00059"></path>
<path d="M0.279 0.505 Q0.356 0.933 1.208 0.989" stroke="hsl(120.0,100%,35%)" stroke-width="0.00059"></path>
<path d="M0.279 0.505 Q0.267 0.597 0.444 0.623" stroke="hsl(120.0,100%,35%)" stroke-width="0.00234"></path>
<path d="M0.279 0.505 Q0.712 0.617 1.025 0.430" stroke="hsl(120.0,100%,35%)" stroke-width="0.00117"></path>
<path d="M0.279 0.505 Q0.428 0.521 0.493 0.452" stroke="hsl(120.0,100%,35%)" stroke-width="0.00059"></path>
<path d="M0.279 0.505 Q0.833 0.959 1.841 0.788" stroke="hsl(120.0,100%,35%)" stroke-width="0.00059"></path>
<path d="M1.208 0.989 Q1.385 0.959 1.365 0.866" stroke="hsl(0.0,100%,35%)" stroke-width="0.00234"></path>
<path d="M1.208 0.989 Q1.119 0.654 0.444 0.623" stroke="hsl(0.0,100%,35%)" stroke-width="0.00059"></path>
<path d="M0.682 0.756 Q1.235 1.004 1.841 0.788" stroke="hsl(120.0,100%,35%)" stroke-width="0.00234"></path>
<path d="M0.682 0.756 Q1.114 0.662 1.025 0.430" stroke="hsl(120.0,100%,35%)" stroke-width="0.00176"></path>
<path d="M0.682 0.756 Q0.715 0.857 0.920 0.863" stroke="hsl(120.0,100%,35%)" stroke-width="0.00293"></path>
<path d="M0.682 0.756 Q0.401 0.758 0.344 0.895" stroke="hsl(120.0,100%,35%)" stroke-width="0.00527"></path>
<path d="M0.682 0.756 Q0.802 0.820 0.954 0.776" stroke="hsl(120.0,100%,35%)" stroke-width="0.00410"></path>
<path d="M0.682 0.756 Q1.402 0.837 1.717 0.503" stroke="hsl(120.0,100%,35%)" stroke-width="0.00059"></path>
<path d="M0.682 0.756 Q1.538 0.863 1.934 0.468" stroke="hsl(120.0,100%,35%)" stroke-width="0.00234"></path>
<path d="M0.571 0.905 Q0.733 0.739 0.444 0.623" stroke="hsl(0.0,100%,35%)" stroke-width="0.00059"></path>
<path d="M0.571 0.905 Q0.408 0.897 0.356 0.974" stroke="hsl(0.0,100%,35%)" stroke-width="0.00234"></path>
<path d="M0.571 0.905 Q0.866 0.917 0.954 0.776" stroke="hsl(0.0,100%,35%)" stroke-width="0.00059"></path>
<path d="M0.571 0.905 Q1.178 0.759 1.025 0.430" stroke="hsl(0.0,100%,35%)" stroke-width="0.00059"></path>
<path d="M0.653 0.822 Q0.440 0.797 0.344 0.895" stroke="hsl(120.0,100%,35%)" stroke-width="0.00059"></path>
<path d="M0.653 0.822 Q0.996 0.614 0.666 0.401" stroke="hsl(120.0,100%,35%)" stroke-width="0.00059"></path>
<path d="M0.653 0.822 Q0.753 0.896 0.920 0.863" stroke="hsl(120.0,100%,35%)" stroke-width="0.00059"></path>
<path d="M0.710 0.586 Q0.593 0.766 0.920 0.863" stroke="hsl(120.0,100%,35%)" stroke-width="0.00059"></path>
<path d="M0.710 0.586 Q0.136 0.681 0.197 0.982" stroke="hsl(120.0,100%,35%)" stroke-width="0.00059"></path>
<path d="M0.710 0.586 Q0.680 0.729 0.954 0.776" stroke="hsl(120.0,100%,35%)" stroke-width="0.00059"></path>
<path d="M0.710 0.586 Q1.114 0.913 1.841 0.788" stroke="hsl(120.0,100%,35%)" stroke-width="0.00059"></path>
<path d="M0.710 0.586 Q0.431 0.753 0.695 0.925" stroke="hsl(120.0,100%,35%)" stroke-width="0.00059"></path>
<path d="M0.710 0.586 Q0.835 0.485 0.666 0.401" stroke="hsl(120.0,100%,35%)" stroke-width="0.00117"></path>
<path d="M0.740 1.003 Q0.813 1.022 0.867 0.991" stroke="hsl(240.0,100%,35%)" stroke-width="0.00059"></path>
<path d="M0.740 1.003 Q0.779 0.955 0.695 0.925" stroke="hsl(240.0,100%,35%)" stroke-width="0.00176"></path>
<path d="M0.740 1.003 Q0.941 0.969 0.920 0.863" stroke="hsl(240.0,100%,35%)" stroke-width="0.00059"></path>
<path d="M0.657 0.568 Q1.256 0.524 1.302 0.222" stroke="hsl(120.0,100%,35%)" stroke-width="0.00234"></path>
<path d="M0.657 0.568 Q1.338 0.611 1.571 0.288" stroke="hsl(120.0,100%,35%)" stroke-width="0.00176"></path>
<path d="M0.657 0.568 Q0.506 0.553 0.444 0.623" stroke="hsl(120.0,100%,35%)" stroke-width="0.00059"></path>
<path d="M0.657 0.568 Q0.772 0.859 1.365 0.866" stroke="hsl(120.0,100%,35%)" stroke-width="0.00059"></path>
<path d="M0.657 0.568 Q0.552 0.768 0.920 0.863" stroke="hsl(120.0,100%,35%)" stroke-width="0.00059"></path>
<path d="M0.657 0.568 Q0.794 0.486 0.666 0.401" stroke="hsl(120.0,100%,35%)" stroke-width="0.00059"></path>
<path d="M0.657 0.568 Q1.102 0.842 1.735 0.684" stroke="hsl(120.0,100%,35%)" stroke-width="0.00059"></path>
<path d="M0.657 0.568 Q0.794 0.606 0.899 0.548" stroke="hsl(120.0,100%,35%)" stroke-width="0.00117"></path>
<path d="M0.657 0.568 Q0.951 0.573 1.025 0.430" stroke="hsl(120.0,100%,35%)" stroke-width="0.00176"></path>
<path d="M0.657 0.568 Q1.199 0.628 1.436 0.376" stroke="hsl(120.0,100%,35%)" stroke-width="0.00059"></path>
<path d="M0.277 0.412 Q0.758 0.913 1.841 0.788" stroke="hsl(240.0,100%,35%)" stroke-width="0.00117"></path>
<path d="M0.277 0.412 Q0.942 0.522 1.302 0.222" stroke="hsl(240.0,100%,35%)" stroke-width="0.00117"></path>
<path d="M0.277 0.412 Q-0.133 0.709 0.356 0.974" stroke="hsl(240.0,100%,35%)" stroke-width="0.00059"></path>
<path d="M0.277 0.412 Q0.636 0.571 1.025 0.430" stroke="hsl(240.0,100%,35%)" stroke-width="0.00059"></path>
<path d="M0.277 0.412 Q0.353 0.475 0.493 0.452" stroke="hsl(240.0,100%,35%)" stroke-width="0.00234"></path>
<path d="M0.277 0.412 Q0.137 0.378 0.041 0.439" stroke="hsl(240.0,100%,35%)" stroke-width="0.00234"></path>
<path d="M0.277 0.412 Q0.924 0.746 1.717 0.503" stroke="hsl(240.0,100%,35%)" stroke-width="0.00059"></path>
<path d="M1.619 0.426 Q1.606 0.484 1.717 0.503" stroke="hsl(240.0,100%,35%)" stroke-width="0.01406"></path>
<path d="M1.619 0.426 Q0.819 0.117 0.041 0.439" stroke="hsl(240.0,100%,35%)" stroke-width="0.00117"></path>
<path d="M1.619 0.426 Q0.959 0.151 0.277 0.412" stroke="hsl(240.0,100%,35%)" stroke-width="0.00293"></path>
<path d="M1.619 0.426 Q1.595 0.347 1.436 0.342" stroke="hsl(240.0,100%,35%)" stroke-width="0.00059"></path>
<path d="M0.041 0.439 Q0.181 0.473 0.277 0.412" stroke="hsl(240.0,100%,35%)" stroke-width="0.00527"></path>
<path d="M0.041 0.439 Q0.229 0.790 0.954 0.776" stroke="hsl(240.0,100%,35%)" stroke-width="0.00059"></path>
<path d="M0.041 0.439 Q0.257 0.536 0.493 0.452" stroke="hsl(240.0,100%,35%)" stroke-width="0.00117"></path>
<path d="M0.041 0.439 Q0.841 0.748 1.619 0.426" stroke="hsl(240.0,100%,35%)" stroke-width="0.00176"></path>
<path d="M0.315 0.737 Q0.736 1.011 1.365 0.866" stroke="hsl(0.0,100%,35%)" stroke-width="0.00117"></path>
<path d="M0.315 0.737 Q0.234 0.677 0.100 0.704" stroke="hsl(0.0,100%,35%)" stroke-width="0.01054"></path>
<path d="M0.315 0.737 Q1.066 0.994 1.735 0.684" stroke="hsl(0.0,100%,35%)" stroke-width="0.00234"></path>
<path d="M0.315 0.737 Q0.203 0.822 0.344 0.895" stroke="hsl(0.0,100%,35%)" stroke-width="0.00059"></path>
<path d="M0.315 0.737 Q0.556 0.567 0.277 0.412" stroke="hsl(0.0,100%,35%)" stroke-width="0.00059"></path>
<path d="M0.315 0.737 Q0.944 0.924 1.448 0.658" stroke="hsl(0.0,100%,35%)" stroke-width="0.00059"></path>
<path d="M0.315 0.737 Q0.603 0.884 0.954 0.776" stroke="hsl(0.0,100%,35%)" stroke-width="0.00059"></path>
<path d="M0.315 0.737 Q0.382 0.606 0.143 0.544" stroke="hsl(0.0,100%,35%)" stroke-width="0.00293"></path>
<path d="M0.315 0.737 Q0.915 0.726 1.025 0.430" stroke="hsl(0.0,100%,35%)" stroke-width="0.00059"></path>
<path d="M0.315 0.737 Q0.470 0.706 0.444 0.623" stroke="hsl(0.0,100%,35%)" stroke-width="0.00059"></path>
<path d="M0.315 0.737 Q0.621 0.721 0.657 0.568" stroke="hsl(0.0,100%,35%)" stroke-width="0.00059"></path>
<path d="M0.450 0.827 Q0.285 0.882 0.356 0.974" stroke="hsl(0.0,100%,35%)" stroke-width="0.00176"></path>
<path d="M0.450 0.827 Q1.343 0.919 1.717 0.503" stroke="hsl(0.0,100%,35%)" stroke-width="0.00059"></path>
<path d="M0.450 0.827 Q1.092 0.834 1.246 0.522" stroke="hsl(0.0,100%,35%)" stroke-width="0.00059"></path>
<path d="M0.450 0.827 Q0.610 0.724 0.444 0.623" stroke="hsl(0.0,100%,35%)" stroke-width="0.00059"></path>
<path d="M0.450 0.827 Q0.656 0.939 0.920 0.863" stroke="hsl(0.0,100%,35%)" stroke-width="0.00176"></path>
<path d="M0.450 0.827 Q1.442 0.782 1.571 0.288" stroke="hsl(0.0,100%,35%)" stroke-width="0.00059"></path>
<path d="M0.450 0.827 Q0.743 0.902 0.954 0.776" stroke="hsl(0.0,100%,35%)" stroke-width="0.00059"></path>
<path d="M1.825 0.923 Q1.508 0.675 0.954 0.776" stroke="hsl(120.0,100%,35%)" stroke-width="0.00059"></path>
<path d="M1.825 0.923 Q1.941 0.859 1.841 0.788" stroke="hsl(120.0,100%,35%)" stroke-width="0.00117"></path>
<path d="M1.825 0.923 Q1.050 0.655 0.356 0.974" stroke="hsl(120.0,100%,35%)" stroke-width="0.00059"></path>
<path d="M1.639 0.956 Q1.874 0.912 1.841 0.788" stroke="hsl(120.0,100%,35%)" stroke-width="0.00117"></path>
<path d="M1.639 0.956 Q1.441 0.729 0.954 0.776" stroke="hsl(120.0,100%,35%)" stroke-width="0.00117"></path>
<path d="M1.639 0.956 Q1.782 0.769 1.448 0.658" stroke="hsl(120.0,100%,35%)" stroke-width="0.00059"></path>
<path d="M1.639 0.956 Q1.040 0.666 0.344 0.895" stroke="hsl(120.0,100%,35%)" stroke-width="0.00059"></path>
<path d="M1.639 0.956 Q1.354 0.766 0.920 0.863" stroke="hsl(120.0,100%,35%)" stroke-width="0.00059"></path>
<path d="M0.129 0.622 Q-0.039 0.843 0.356 0.974" stroke="hsl(0.0,100%,35%)" stroke-width="0.00117"></path>
<path d="M0.129 0.622 Q0.049 0.657 0.100 0.704" stroke="hsl(0.0,100%,35%)" stroke-width="0.00059"></path>
<path d="M0.129 0.622 Q0.130 0.716 0.315 0.737" stroke="hsl(0.0,100%,35%)" stroke-width="0.00176"></path>
<path d="M1.515 0.451 Q1.272 0.230 0.788 0.300" stroke="hsl(240.0,100%,35%)" stroke-width="0.00059"></path>
<path d="M1.515 0.451 Q1.674 0.381 1.571 0.288" stroke="hsl(240.0,100%,35%)" stroke-width="0.00059"></path>
<path d="M1.515 0.451 Q1.574 0.518 1.717 0.503" stroke="hsl(240.0,100%,35%)" stroke-width="0.00117"></path>
<path d="M0.463 0.139 Q0.390 0.216 0.525 0.269" stroke="hsl(0.0,100%,35%)" stroke-width="0.01640"></path>
<path d="M0.463 0.139 Q0.662 0.666 1.735 0.684" stroke="hsl(0.0,100%,35%)" stroke-width="0.00293"></path>
<path d="M0.463 0.139 Q0.435 0.538 1.209 0.639" stroke="hsl(0.0,100%,35%)" stroke-width="0.00059"></path>
<path d="M0.463 0.139 Q0.511 0.397 1.025 0.430" stroke="hsl(0.0,100%,35%)" stroke-width="0.00059"></path>
<path d="M1.903 0.354 Q1.004 0.412 0.920 0.863" stroke="hsl(240.0,100%,35%)" stroke-width="0.00059"></path>
<path d="M1.903 0.354 Q1.247 0.250 0.899 0.548" stroke="hsl(240.0,100%,35%)" stroke-width="0.00059"></path>
<path d="M1.903 0.354 Q1.555 0.486 1.735 0.684" stroke="hsl(240.0,100%,35%)" stroke-width="0.00117"></path>
<path d="M1.903 0.354 Q1.827 0.418 1.934 0.468" stroke="hsl(240.0,100%,35%)" stroke-width="0.00117"></path>
<path d="M1.903 0.354 Q1.691 0.392 1.717 0.503" stroke="hsl(240.0,100%,35%)" stroke-width="0.00059"></path>
<path d="M1.903 0.354 Q1.790 0.255 1.571 0.288" stroke="hsl(240.0,100%,35%)" stroke-width="0.00059"></path>
<path d="M1.903 0.354 Q0.842 0.398 0.695 0.925" stroke="hsl(240.0,100%,35%)" stroke-width="0.00059"></path>
<path d="M1.903 0.354 Q1.403 0.217 1.025 0.430" stroke="hsl(240.0,100%,35%)" stroke-width="0.00059"></path>
<path d="M1.018 0.596 Q0.442 0.611 0.344 0.895" stroke="hsl(0.0,100%,35%)" stroke-width="0.00059"></path>
<path d="M1.018 0.596 Q0.795 0.356 0.277 0.412" stroke="hsl(0.0,100%,35%)" stroke-width="0.00059"></path>
<path d="M1.018 0.596 Q1.306 0.784 1.735 0.684" stroke="hsl(0.0,100%,35%)" stroke-width="0.00117"></path>
<path d="M1.018 0.596 Q0.709 0.495 0.444 0.623" stroke="hsl(0.0,100%,35%)" stroke-width="0.00234"></path>
<path d="M1.018 0.596 Q0.385 0.653 0.356 0.974" stroke="hsl(0.0,100%,35%)" stroke-width="0.00117"></path>
<path d="M1.018 0.596 Q1.184 0.713 1.448 0.658" stroke="hsl(0.0,100%,35%)" stroke-width="0.00059"></path>
<path d="M1.018 0.596 Q0.843 0.673 0.954 0.776" stroke="hsl(0.0,100%,35%)" stroke-width="0.00117"></path>
<path d="M1.018 0.596 Q1.079 0.656 1.209 0.639" stroke="hsl(0.0,100%,35%)" stroke-width="0.00234"></path>
<path d="M1.018 0.596 Q1.155 0.515 1.025 0.430" stroke="hsl(0.0,100%,35%)" stroke-width="0.00176"></path>
<path d="M1.018 0.596 Q1.542 0.553 1.571 0.288" stroke="hsl(0.0,100%,35%)" stroke-width="0.00117"></path>
<path d="M1.018 0.596 Q0.998 0.548 0.899 0.548" stroke="hsl(0.0,100%,35%)" stroke-width="0.00059"></path>
</g>
<text x="1.365" y="0.847" font-size="0.038033" fill="hsl(0.0,100%,20%)">ahaas</text>
<text x="1.841" y="0.776" font-size="0.024898" fill="hsl(120.0,100%,20%)">cbruni</text>
<text x="0.344" y="0.872" font-size="0.045942" fill="hsl(0.0,100%,20%)">dmercadier</text>
<text x="0.788" y="0.289" font-size="0.023051" fill="hsl(120.0,100%,20%)">jgruber</text>
<text x="1.735" y="0.660" font-size="0.049050" fill="hsl(0.0,100%,20%)">clemensb</text>
<text x="1.448" y="0.638" font-size="0.040111" fill="hsl(0.0,100%,20%)">jkummerow</text>
<text x="1.209" y="0.616" font-size="0.047366" fill="hsl(0.0,100%,20%)">mliedtke</text>
<text x="1.196" y="0.937" font-size="0.003842" fill="hsl(0.0,100%,20%)">mark</text>
<text x="1.166" y="0.904" font-size="0.003842" fill="hsl(0.0,100%,20%)">mseaborn</text>
<text x="1.588" y="0.764" font-size="0.022402" fill="hsl(0.0,100%,20%)">dlehmann</text>
<text x="0.356" y="0.951" font-size="0.046103" fill="hsl(0.0,100%,20%)">nicohartmann</text>
<text x="1.717" y="0.485" font-size="0.036040" fill="hsl(240.0,100%,20%)">machenbach</text>
<text x="1.246" y="0.505" font-size="0.033493" fill="hsl(0.0,100%,20%)">manoskouk</text>
<text x="1.934" y="0.458" font-size="0.021043" fill="hsl(120.0,100%,20%)">victorgomes</text>
<text x="1.571" y="0.260" font-size="0.055409" fill="hsl(120.0,100%,20%)">mlippautz</text>
<text x="0.444" y="0.606" font-size="0.034148" fill="hsl(0.0,100%,20%)">thibaudm</text>
<text x="0.197" y="0.972" font-size="0.020689" fill="hsl(0.0,100%,20%)">marja</text>
<text x="1.237" y="0.728" font-size="0.025193" fill="hsl(0.0,100%,20%)">evih</text>
<text x="1.362" y="0.089" font-size="0.023051" fill="hsl(120.0,100%,20%)">bikineev</text>
<text x="1.302" y="0.200" font-size="0.042782" fill="hsl(120.0,100%,20%)">dinfuehr</text>
<text x="1.189" y="0.321" font-size="0.024898" fill="hsl(120.0,100%,20%)">omerkatz</text>
<text x="1.025" y="0.408" font-size="0.044639" fill="hsl(120.0,100%,20%)">ishell</text>
<text x="0.666" y="0.388" font-size="0.026617" fill="hsl(120.0,100%,20%)">pthier</text>
<text x="0.954" y="0.758" font-size="0.035421" fill="hsl(120.0,100%,20%)">verwaest</text>
<text x="0.920" y="0.843" font-size="0.039368" fill="hsl(120.0,100%,20%)">leszeks</text>
<text x="1.609" y="0.846" font-size="0.006654" fill="hsl(240.0,100%,20%)">pfaffe</text>
<text x="1.477" y="0.518" font-size="0.016746" fill="hsl(240.0,100%,20%)">cffsmith</text>
<text x="0.899" y="0.526" font-size="0.042261" fill="hsl(120.0,100%,20%)">saelo</text>
<text x="0.618" y="0.824" font-size="0.008591" fill="hsl(120.0,100%,20%)">choongwoo.han</text>
<text x="1.396" y="0.735" font-size="0.003842" fill="hsl(0.0,100%,20%)">vahl</text>
<text x="0.695" y="0.917" font-size="0.016746" fill="hsl(240.0,100%,20%)">szuend</text>
<text x="0.224" y="0.188" font-size="0.006654" fill="hsl(120.0,100%,20%)">dcheng</text>
<text x="0.087" y="0.209" font-size="0.003842" fill="hsl(120.0,100%,20%)">ecmziegler</text>
<text x="1.436" y="0.363" font-size="0.026893" fill="hsl(120.0,100%,20%)">nikolaos</text>
<text x="0.520" y="0.816" font-size="0.009411" fill="hsl(0.0,100%,20%)">hao.a.xu</text>
<text x="0.279" y="0.499" font-size="0.011526" fill="hsl(120.0,100%,20%)">fgm</text>
<text x="1.208" y="0.984" font-size="0.009411" fill="hsl(0.0,100%,20%)">irezvov</text>
<text x="0.493" y="0.447" font-size="0.010867" fill="hsl(120.0,100%,20%)">adamk</text>
<text x="0.682" y="0.744" font-size="0.024600" fill="hsl(120.0,100%,20%)">olivf</text>
<text x="0.571" y="0.900" font-size="0.010165" fill="hsl(0.0,100%,20%)">jianxiao.lu</text>
<text x="0.653" y="0.819" font-size="0.006654" fill="hsl(120.0,100%,20%)">jing.bao</text>
<text x="0.710" y="0.581" font-size="0.010165" fill="hsl(120.0,100%,20%)">joyee</text>
<text x="0.740" y="0.998" font-size="0.009411" fill="hsl(240.0,100%,20%)">leese</text>
<text x="0.867" y="0.985" font-size="0.011526" fill="hsl(240.0,100%,20%)">bmeurer</text>
<text x="0.657" y="0.559" font-size="0.018425" fill="hsl(120.0,100%,20%)">sroettger</text>
<text x="0.277" y="0.400" font-size="0.022729" fill="hsl(240.0,100%,20%)">syg</text>
<text x="1.619" y="0.411" font-size="0.029759" fill="hsl(240.0,100%,20%)">liviurau</text>
<text x="0.041" y="0.431" font-size="0.017606" fill="hsl(240.0,100%,20%)">rezvan</text>
<text x="1.436" y="0.340" font-size="0.003842" fill="hsl(120.0,100%,20%)">almuthanna</text>
<text x="0.315" y="0.725" font-size="0.023993" fill="hsl(0.0,100%,20%)">mfarazma</text>
<text x="0.100" y="0.696" font-size="0.016746" fill="hsl(0.0,100%,20%)">junyan</text>
<text x="0.143" y="0.540" font-size="0.008591" fill="hsl(0.0,100%,20%)">midawson</text>
<text x="0.615" y="0.932" font-size="0.006654" fill="hsl(0.0,100%,20%)">yangguo</text>
<text x="0.450" y="0.821" font-size="0.012742" fill="hsl(0.0,100%,20%)">seth.brenith</text>
<text x="1.825" y="0.919" font-size="0.007684" fill="hsl(120.0,100%,20%)">stephen.belanger</text>
<text x="1.639" y="0.951" font-size="0.010165" fill="hsl(120.0,100%,20%)">tao.pan</text>
<text x="0.193" y="0.644" font-size="0.005433" fill="hsl(0.0,100%,20%)">gdeepti</text>
<text x="0.129" y="0.617" font-size="0.009411" fill="hsl(0.0,100%,20%)">tpearson</text>
<text x="1.515" y="0.447" font-size="0.007684" fill="hsl(240.0,100%,20%)">uioptt24</text>
<text x="0.463" y="0.127" font-size="0.022729" fill="hsl(0.0,100%,20%)">yahan</text>
<text x="0.525" y="0.259" font-size="0.020329" fill="hsl(0.0,100%,20%)">qiuji</text>
<text x="1.903" y="0.348" font-size="0.012149" fill="hsl(240.0,100%,20%)">zcbenz</text>
<text x="1.018" y="0.587" font-size="0.018425" fill="hsl(0.0,100%,20%)">zhaojiazhong-hf</text>
</svg>
