<svg width="4000" height="2000" viewBox="-0.025 -0.025 2.05 1.05" xmlns="http://www.w3.org/2000/svg">
  <style>
    path {
      fill: none;
      stroke-linecap: round;
      stroke-opacity: 0.4;
    }

    text {
      text-anchor: middle;
      alignment-baseline: hanging;
    }
  </style>
  <g opacity="0.4">
<path d="M0.815 0.269 Q1.067 0.470 1.515 0.391" stroke="hsl(0.0,100%,35%)" stroke-width="0.00122"></path>
<path d="M0.815 0.269 Q0.584 0.320 0.633 0.443" stroke="hsl(0.0,100%,35%)" stroke-width="0.00428"></path>
<path d="M0.815 0.269 Q0.777 0.371 0.968 0.412" stroke="hsl(0.0,100%,35%)" stroke-width="0.00061"></path>
<path d="M0.815 0.269 Q0.806 0.113 0.501 0.084" stroke="hsl(0.0,100%,35%)" stroke-width="0.00184"></path>
<path d="M0.815 0.269 Q0.497 0.372 0.627 0.550" stroke="hsl(0.0,100%,35%)" stroke-width="0.00061"></path>
<path d="M0.815 0.269 Q0.700 0.205 0.551 0.247" stroke="hsl(0.0,100%,35%)" stroke-width="0.00122"></path>
<path d="M0.815 0.269 Q0.698 0.629 1.374 0.765" stroke="hsl(0.0,100%,35%)" stroke-width="0.00061"></path>
<path d="M0.815 0.269 Q0.410 0.475 0.723 0.718" stroke="hsl(0.0,100%,35%)" stroke-width="0.00061"></path>
<path d="M0.815 0.269 Q0.569 0.171 0.324 0.269" stroke="hsl(0.0,100%,35%)" stroke-width="0.00245"></path>
<path d="M0.815 0.269 Q0.951 0.359 1.156 0.312" stroke="hsl(0.0,100%,35%)" stroke-width="0.00122"></path>
<path d="M0.815 0.269 Q0.644 0.374 0.812 0.481" stroke="hsl(0.0,100%,35%)" stroke-width="0.00245"></path>
<path d="M0.815 0.269 Q0.905 0.778 1.917 0.846" stroke="hsl(0.0,100%,35%)" stroke-width="0.00061"></path>
<path d="M0.815 0.269 Q0.889 0.463 1.285 0.470" stroke="hsl(0.0,100%,35%)" stroke-width="0.00061"></path>
<path d="M1.515 0.391 Q1.337 0.384 1.285 0.470" stroke="hsl(0.0,100%,35%)" stroke-width="0.01836"></path>
<path d="M1.515 0.391 Q1.032 0.241 0.633 0.443" stroke="hsl(0.0,100%,35%)" stroke-width="0.00734"></path>
<path d="M1.515 0.391 Q1.146 0.550 1.374 0.765" stroke="hsl(0.0,100%,35%)" stroke-width="0.00061"></path>
<path d="M1.515 0.391 Q1.005 0.512 1.129 0.788" stroke="hsl(0.0,100%,35%)" stroke-width="0.00122"></path>
<path d="M1.515 0.391 Q0.944 0.293 0.627 0.550" stroke="hsl(0.0,100%,35%)" stroke-width="0.00122"></path>
<path d="M1.515 0.391 Q1.253 0.395 1.203 0.523" stroke="hsl(0.0,100%,35%)" stroke-width="0.00061"></path>
<path d="M1.515 0.391 Q1.205 0.483 1.316 0.654" stroke="hsl(0.0,100%,35%)" stroke-width="0.00184"></path>
<path d="M1.515 0.391 Q1.254 0.035 0.501 0.084" stroke="hsl(0.0,100%,35%)" stroke-width="0.00122"></path>
<path d="M0.633 0.443 Q0.938 0.587 1.285 0.470" stroke="hsl(0.0,100%,35%)" stroke-width="0.01101"></path>
<path d="M0.633 0.443 Q0.826 0.495 0.968 0.412" stroke="hsl(0.0,100%,35%)" stroke-width="0.00184"></path>
<path d="M0.633 0.443 Q0.999 0.482 1.156 0.312" stroke="hsl(0.0,100%,35%)" stroke-width="0.00061"></path>
<path d="M0.633 0.443 Q1.116 0.594 1.515 0.391" stroke="hsl(0.0,100%,35%)" stroke-width="0.00979"></path>
<path d="M0.633 0.443 Q0.942 0.299 0.729 0.117" stroke="hsl(0.0,100%,35%)" stroke-width="0.00061"></path>
<path d="M0.633 0.443 Q0.854 0.237 0.501 0.084" stroke="hsl(0.0,100%,35%)" stroke-width="0.00367"></path>
<path d="M0.633 0.443 Q0.749 0.329 0.551 0.247" stroke="hsl(0.0,100%,35%)" stroke-width="0.00184"></path>
<path d="M0.633 0.443 Q0.458 0.599 0.723 0.718" stroke="hsl(0.0,100%,35%)" stroke-width="0.00122"></path>
<path d="M0.633 0.443 Q0.545 0.495 0.627 0.550" stroke="hsl(0.0,100%,35%)" stroke-width="0.00673"></path>
<path d="M0.633 0.443 Q0.692 0.498 0.812 0.481" stroke="hsl(0.0,100%,35%)" stroke-width="0.00184"></path>
<path d="M0.633 0.443 Q0.854 0.597 1.203 0.523" stroke="hsl(0.0,100%,35%)" stroke-width="0.00061"></path>
<path d="M0.968 0.412 Q0.957 0.350 0.835 0.342" stroke="hsl(0.0,100%,35%)" stroke-width="0.01285"></path>
<path d="M0.968 0.412 Q0.891 0.246 0.551 0.247" stroke="hsl(0.0,100%,35%)" stroke-width="0.00184"></path>
<path d="M0.968 0.412 Q0.775 0.360 0.633 0.443" stroke="hsl(0.0,100%,35%)" stroke-width="0.00184"></path>
<path d="M0.968 0.412 Q0.888 0.773 1.576 0.892" stroke="hsl(0.0,100%,35%)" stroke-width="0.00122"></path>
<path d="M0.968 0.412 Q1.080 0.504 1.285 0.470" stroke="hsl(0.0,100%,35%)" stroke-width="0.00061"></path>
<path d="M0.968 0.412 Q0.948 0.603 1.316 0.654" stroke="hsl(0.0,100%,35%)" stroke-width="0.00490"></path>
<path d="M0.968 0.412 Q0.601 0.516 0.723 0.718" stroke="hsl(0.0,100%,35%)" stroke-width="0.00061"></path>
<path d="M0.968 0.412 Q0.997 0.154 0.501 0.084" stroke="hsl(0.0,100%,35%)" stroke-width="0.00061"></path>
<path d="M0.968 0.412 Q0.835 0.415 0.812 0.481" stroke="hsl(0.0,100%,35%)" stroke-width="0.00122"></path>
<path d="M0.501 0.084 Q0.395 0.176 0.551 0.247" stroke="hsl(0.0,100%,35%)" stroke-width="0.00673"></path>
<path d="M0.501 0.084 Q0.510 0.239 0.815 0.269" stroke="hsl(0.0,100%,35%)" stroke-width="0.00184"></path>
<path d="M0.501 0.084 Q0.762 0.440 1.515 0.391" stroke="hsl(0.0,100%,35%)" stroke-width="0.00184"></path>
<path d="M0.501 0.084 Q0.279 0.290 0.633 0.443" stroke="hsl(0.0,100%,35%)" stroke-width="0.00734"></path>
<path d="M0.501 0.084 Q0.192 0.342 0.627 0.550" stroke="hsl(0.0,100%,35%)" stroke-width="0.00184"></path>
<path d="M0.501 0.084 Q0.584 0.434 1.285 0.470" stroke="hsl(0.0,100%,35%)" stroke-width="0.00122"></path>
<path d="M0.501 0.084 Q0.000 0.481 0.664 0.812" stroke="hsl(0.0,100%,35%)" stroke-width="0.00061"></path>
<path d="M0.501 0.084 Q0.105 0.445 0.723 0.718" stroke="hsl(0.0,100%,35%)" stroke-width="0.00122"></path>
<path d="M0.501 0.084 Q0.320 0.458 1.011 0.628" stroke="hsl(0.0,100%,35%)" stroke-width="0.00061"></path>
<path d="M0.501 0.084 Q0.472 0.341 0.968 0.412" stroke="hsl(0.0,100%,35%)" stroke-width="0.00122"></path>
<path d="M0.501 0.084 Q0.339 0.345 0.812 0.481" stroke="hsl(0.0,100%,35%)" stroke-width="0.00061"></path>
<path d="M0.501 0.084 Q0.827 0.346 1.411 0.245" stroke="hsl(0.0,100%,35%)" stroke-width="0.00061"></path>
<path d="M0.627 0.550 Q0.937 0.291 0.501 0.084" stroke="hsl(0.0,100%,35%)" stroke-width="0.00551"></path>
<path d="M0.627 0.550 Q0.715 0.497 0.633 0.443" stroke="hsl(0.0,100%,35%)" stroke-width="0.00306"></path>
<path d="M0.627 0.550 Q1.198 0.648 1.515 0.391" stroke="hsl(0.0,100%,35%)" stroke-width="0.00122"></path>
<path d="M0.627 0.550 Q1.020 0.641 1.285 0.470" stroke="hsl(0.0,100%,35%)" stroke-width="0.00061"></path>
<path d="M0.627 0.550 Q0.700 0.349 0.324 0.269" stroke="hsl(0.0,100%,35%)" stroke-width="0.00245"></path>
<path d="M0.627 0.550 Q0.936 0.651 1.203 0.523" stroke="hsl(0.0,100%,35%)" stroke-width="0.00061"></path>
<path d="M0.627 0.550 Q0.831 0.383 0.551 0.247" stroke="hsl(0.0,100%,35%)" stroke-width="0.00061"></path>
<path d="M0.627 0.550 Q0.946 0.447 0.815 0.269" stroke="hsl(0.0,100%,35%)" stroke-width="0.00061"></path>
<path d="M0.551 0.247 Q0.657 0.155 0.501 0.084" stroke="hsl(0.0,100%,35%)" stroke-width="0.00979"></path>
<path d="M0.551 0.247 Q0.261 0.517 0.723 0.718" stroke="hsl(0.0,100%,35%)" stroke-width="0.00245"></path>
<path d="M0.551 0.247 Q0.348 0.414 0.627 0.550" stroke="hsl(0.0,100%,35%)" stroke-width="0.00184"></path>
<path d="M0.551 0.247 Q0.666 0.311 0.815 0.269" stroke="hsl(0.0,100%,35%)" stroke-width="0.01224"></path>
<path d="M0.551 0.247 Q0.420 0.213 0.324 0.269" stroke="hsl(0.0,100%,35%)" stroke-width="0.00795"></path>
<path d="M0.551 0.247 Q0.628 0.413 0.968 0.412" stroke="hsl(0.0,100%,35%)" stroke-width="0.00061"></path>
<path d="M0.551 0.247 Q0.608 0.604 1.316 0.654" stroke="hsl(0.0,100%,35%)" stroke-width="0.00184"></path>
<path d="M0.551 0.247 Q0.756 0.820 1.917 0.846" stroke="hsl(0.0,100%,35%)" stroke-width="0.00061"></path>
<path d="M0.551 0.247 Q0.435 0.362 0.633 0.443" stroke="hsl(0.0,100%,35%)" stroke-width="0.00245"></path>
<path d="M0.551 0.247 Q0.740 0.505 1.285 0.470" stroke="hsl(0.0,100%,35%)" stroke-width="0.00184"></path>
<path d="M0.551 0.247 Q0.854 0.729 1.861 0.687" stroke="hsl(0.0,100%,35%)" stroke-width="0.00061"></path>
<path d="M0.551 0.247 Q0.983 0.418 1.411 0.245" stroke="hsl(0.0,100%,35%)" stroke-width="0.00306"></path>
<path d="M0.551 0.247 Q0.010 0.563 0.508 0.896" stroke="hsl(0.0,100%,35%)" stroke-width="0.00061"></path>
<path d="M0.551 0.247 Q0.918 0.512 1.515 0.391" stroke="hsl(0.0,100%,35%)" stroke-width="0.00061"></path>
<path d="M0.551 0.247 Q0.548 0.774 1.576 0.892" stroke="hsl(0.0,100%,35%)" stroke-width="0.00061"></path>
<path d="M0.551 0.247 Q0.942 0.653 1.819 0.551" stroke="hsl(0.0,100%,35%)" stroke-width="0.00061"></path>
<path d="M0.551 0.247 Q-0.048 0.589 0.488 0.956" stroke="hsl(0.0,100%,35%)" stroke-width="0.00061"></path>
<path d="M0.551 0.247 Q0.656 0.515 1.203 0.523" stroke="hsl(0.0,100%,35%)" stroke-width="0.00122"></path>
<path d="M1.374 0.765 Q1.233 0.727 1.129 0.788" stroke="hsl(72.0,100%,35%)" stroke-width="0.00184"></path>
<path d="M1.374 0.765 Q1.743 0.606 1.515 0.391" stroke="hsl(72.0,100%,35%)" stroke-width="0.00367"></path>
<path d="M1.374 0.765 Q1.433 0.698 1.316 0.654" stroke="hsl(72.0,100%,35%)" stroke-width="0.00551"></path>
<path d="M1.374 0.765 Q1.039 0.732 0.901 0.888" stroke="hsl(72.0,100%,35%)" stroke-width="0.00245"></path>
<path d="M1.374 0.765 Q1.740 0.347 1.005 0.077" stroke="hsl(72.0,100%,35%)" stroke-width="0.00061"></path>
<path d="M1.374 0.765 Q1.565 0.599 1.285 0.470" stroke="hsl(72.0,100%,35%)" stroke-width="0.00061"></path>
<path d="M1.374 0.765 Q1.581 0.914 1.917 0.846" stroke="hsl(72.0,100%,35%)" stroke-width="0.00061"></path>
<path d="M1.374 0.765 Q1.846 0.416 1.269 0.109" stroke="hsl(72.0,100%,35%)" stroke-width="0.00061"></path>
<path d="M1.374 0.765 Q1.373 0.868 1.576 0.892" stroke="hsl(72.0,100%,35%)" stroke-width="0.00061"></path>
<path d="M0.723 0.718 Q0.676 0.839 0.901 0.888" stroke="hsl(72.0,100%,35%)" stroke-width="0.00734"></path>
<path d="M0.723 0.718 Q0.415 0.790 0.488 0.956" stroke="hsl(72.0,100%,35%)" stroke-width="0.00184"></path>
<path d="M0.723 0.718 Q0.870 0.834 1.129 0.788" stroke="hsl(72.0,100%,35%)" stroke-width="0.00428"></path>
<path d="M0.723 0.718 Q1.381 0.713 1.515 0.391" stroke="hsl(72.0,100%,35%)" stroke-width="0.00122"></path>
<path d="M0.723 0.718 Q1.010 0.975 1.576 0.892" stroke="hsl(72.0,100%,35%)" stroke-width="0.00061"></path>
<path d="M0.723 0.718 Q0.618 0.753 0.664 0.812" stroke="hsl(72.0,100%,35%)" stroke-width="0.00122"></path>
<path d="M0.723 0.718 Q1.070 0.805 1.316 0.654" stroke="hsl(72.0,100%,35%)" stroke-width="0.00245"></path>
<path d="M0.723 0.718 Q0.472 0.764 0.508 0.896" stroke="hsl(72.0,100%,35%)" stroke-width="0.00245"></path>
<path d="M0.723 0.718 Q1.218 1.021 1.917 0.846" stroke="hsl(72.0,100%,35%)" stroke-width="0.00061"></path>
<path d="M0.723 0.718 Q0.810 0.615 0.627 0.550" stroke="hsl(72.0,100%,35%)" stroke-width="0.00061"></path>
<path d="M0.324 0.269 Q0.251 0.470 0.627 0.550" stroke="hsl(0.0,100%,35%)" stroke-width="0.00490"></path>
<path d="M0.324 0.269 Q0.455 0.304 0.551 0.247" stroke="hsl(0.0,100%,35%)" stroke-width="0.00551"></path>
<path d="M0.324 0.269 Q0.925 0.378 1.269 0.109" stroke="hsl(0.0,100%,35%)" stroke-width="0.00612"></path>
<path d="M0.324 0.269 Q0.570 0.367 0.815 0.269" stroke="hsl(0.0,100%,35%)" stroke-width="0.00428"></path>
<path d="M0.324 0.269 Q0.561 0.212 0.501 0.084" stroke="hsl(0.0,100%,35%)" stroke-width="0.00306"></path>
<path d="M0.324 0.269 Q0.339 0.418 0.633 0.443" stroke="hsl(0.0,100%,35%)" stroke-width="0.00061"></path>
<path d="M0.324 0.269 Q0.644 0.562 1.285 0.470" stroke="hsl(0.0,100%,35%)" stroke-width="0.00061"></path>
<path d="M0.324 0.269 Q0.214 0.320 0.288 0.385" stroke="hsl(0.0,100%,35%)" stroke-width="0.00061"></path>
<path d="M1.156 0.312 Q1.269 0.164 1.005 0.077" stroke="hsl(0.0,100%,35%)" stroke-width="0.00061"></path>
<path d="M1.156 0.312 Q1.011 0.067 0.501 0.084" stroke="hsl(0.0,100%,35%)" stroke-width="0.00061"></path>
<path d="M1.156 0.312 Q1.273 0.424 1.515 0.391" stroke="hsl(0.0,100%,35%)" stroke-width="0.00061"></path>
<path d="M1.156 0.312 Q0.831 0.441 1.011 0.628" stroke="hsl(0.0,100%,35%)" stroke-width="0.00061"></path>
<path d="M1.156 0.312 Q0.903 0.582 1.374 0.765" stroke="hsl(0.0,100%,35%)" stroke-width="0.00061"></path>
<path d="M1.156 0.312 Q1.094 0.417 1.285 0.470" stroke="hsl(0.0,100%,35%)" stroke-width="0.00122"></path>
<path d="M1.156 0.312 Q0.962 0.515 1.316 0.654" stroke="hsl(0.0,100%,35%)" stroke-width="0.00061"></path>
<path d="M1.156 0.312 Q0.568 0.549 0.901 0.888" stroke="hsl(0.0,100%,35%)" stroke-width="0.00061"></path>
<path d="M0.812 0.481 Q0.974 0.220 0.501 0.084" stroke="hsl(0.0,100%,35%)" stroke-width="0.00490"></path>
<path d="M0.812 0.481 Q0.753 0.426 0.633 0.443" stroke="hsl(0.0,100%,35%)" stroke-width="0.00612"></path>
<path d="M0.812 0.481 Q1.058 0.570 1.285 0.470" stroke="hsl(0.0,100%,35%)" stroke-width="0.00061"></path>
<path d="M1.917 0.846 Q1.710 0.800 1.576 0.892" stroke="hsl(72.0,100%,35%)" stroke-width="0.00428"></path>
<path d="M1.917 0.846 Q1.710 0.697 1.374 0.765" stroke="hsl(72.0,100%,35%)" stroke-width="0.00306"></path>
<path d="M1.917 0.846 Q1.638 0.556 1.011 0.628" stroke="hsl(72.0,100%,35%)" stroke-width="0.00061"></path>
<path d="M1.917 0.846 Q2.076 0.279 1.005 0.077" stroke="hsl(72.0,100%,35%)" stroke-width="0.00122"></path>
<path d="M1.917 0.846 Q1.769 0.630 1.316 0.654" stroke="hsl(72.0,100%,35%)" stroke-width="0.00184"></path>
<path d="M1.917 0.846 Q1.375 0.664 0.901 0.888" stroke="hsl(72.0,100%,35%)" stroke-width="0.00061"></path>
<path d="M1.917 0.846 Q2.183 0.348 1.269 0.109" stroke="hsl(72.0,100%,35%)" stroke-width="0.00245"></path>
<path d="M1.285 0.470 Q1.463 0.476 1.515 0.391" stroke="hsl(0.0,100%,35%)" stroke-width="0.01224"></path>
<path d="M1.285 0.470 Q0.593 0.435 0.373 0.765" stroke="hsl(0.0,100%,35%)" stroke-width="0.00061"></path>
<path d="M1.285 0.470 Q1.346 0.365 1.156 0.312" stroke="hsl(0.0,100%,35%)" stroke-width="0.00184"></path>
<path d="M1.285 0.470 Q1.096 0.212 0.551 0.247" stroke="hsl(0.0,100%,35%)" stroke-width="0.00061"></path>
<path d="M1.285 0.470 Q0.980 0.326 0.633 0.443" stroke="hsl(0.0,100%,35%)" stroke-width="0.00428"></path>
<path d="M1.285 0.470 Q1.202 0.120 0.501 0.084" stroke="hsl(0.0,100%,35%)" stroke-width="0.00122"></path>
<path d="M1.197 0.934 Q1.281 0.847 1.129 0.788" stroke="hsl(72.0,100%,35%)" stroke-width="0.00306"></path>
<path d="M1.197 0.934 Q1.421 0.989 1.576 0.892" stroke="hsl(72.0,100%,35%)" stroke-width="0.00122"></path>
<path d="M1.197 0.934 Q1.501 0.627 0.968 0.412" stroke="hsl(72.0,100%,35%)" stroke-width="0.00061"></path>
<path d="M1.129 0.788 Q1.270 0.929 1.576 0.892" stroke="hsl(72.0,100%,35%)" stroke-width="0.00490"></path>
<path d="M1.129 0.788 Q0.935 0.792 0.901 0.888" stroke="hsl(72.0,100%,35%)" stroke-width="0.00061"></path>
<path d="M1.129 0.788 Q1.743 0.476 1.269 0.109" stroke="hsl(72.0,100%,35%)" stroke-width="0.00061"></path>
<path d="M1.129 0.788 Q1.329 0.758 1.316 0.654" stroke="hsl(72.0,100%,35%)" stroke-width="0.01040"></path>
<path d="M1.129 0.788 Q0.982 0.672 0.723 0.718" stroke="hsl(72.0,100%,35%)" stroke-width="0.00122"></path>
<path d="M1.129 0.788 Q1.640 0.666 1.515 0.391" stroke="hsl(72.0,100%,35%)" stroke-width="0.00061"></path>
<path d="M1.576 0.892 Q1.829 0.518 1.156 0.312" stroke="hsl(72.0,100%,35%)" stroke-width="0.00184"></path>
<path d="M1.576 0.892 Q2.049 0.439 1.269 0.109" stroke="hsl(72.0,100%,35%)" stroke-width="0.00122"></path>
<path d="M1.576 0.892 Q1.783 0.937 1.917 0.846" stroke="hsl(72.0,100%,35%)" stroke-width="0.00061"></path>
<path d="M1.576 0.892 Q1.436 0.750 1.129 0.788" stroke="hsl(72.0,100%,35%)" stroke-width="0.00122"></path>
<path d="M1.576 0.892 Q1.635 0.721 1.316 0.654" stroke="hsl(72.0,100%,35%)" stroke-width="0.00184"></path>
<path d="M1.576 0.892 Q1.771 0.818 1.671 0.707" stroke="hsl(72.0,100%,35%)" stroke-width="0.00061"></path>
<path d="M1.576 0.892 Q1.241 0.755 0.901 0.888" stroke="hsl(72.0,100%,35%)" stroke-width="0.00061"></path>
<path d="M1.269 0.109 Q0.656 0.420 1.129 0.788" stroke="hsl(72.0,100%,35%)" stroke-width="0.00795"></path>
<path d="M1.269 0.109 Q0.988 0.292 1.285 0.470" stroke="hsl(72.0,100%,35%)" stroke-width="0.00245"></path>
<path d="M1.269 0.109 Q1.003 0.607 1.917 0.846" stroke="hsl(72.0,100%,35%)" stroke-width="0.00734"></path>
<path d="M1.269 0.109 Q0.905 -0.057 0.501 0.084" stroke="hsl(72.0,100%,35%)" stroke-width="0.00061"></path>
<path d="M1.269 0.109 Q0.462 0.425 0.901 0.888" stroke="hsl(72.0,100%,35%)" stroke-width="0.00122"></path>
<path d="M1.269 0.109 Q0.856 0.391 1.316 0.654" stroke="hsl(72.0,100%,35%)" stroke-width="0.00306"></path>
<path d="M1.269 0.109 Q1.166 0.299 1.515 0.391" stroke="hsl(72.0,100%,35%)" stroke-width="0.00122"></path>
<path d="M1.269 0.109 Q0.724 0.317 1.011 0.628" stroke="hsl(72.0,100%,35%)" stroke-width="0.00184"></path>
<path d="M1.316 0.654 Q1.463 0.870 1.917 0.846" stroke="hsl(72.0,100%,35%)" stroke-width="0.00306"></path>
<path d="M1.316 0.654 Q1.623 0.303 1.005 0.077" stroke="hsl(72.0,100%,35%)" stroke-width="0.00061"></path>
<path d="M1.316 0.654 Q1.448 0.556 1.285 0.470" stroke="hsl(72.0,100%,35%)" stroke-width="0.00428"></path>
<path d="M1.316 0.654 Q0.968 0.568 0.723 0.718" stroke="hsl(72.0,100%,35%)" stroke-width="0.00306"></path>
<path d="M1.316 0.654 Q1.184 0.580 1.011 0.628" stroke="hsl(72.0,100%,35%)" stroke-width="0.00184"></path>
<path d="M1.316 0.654 Q1.116 0.684 1.129 0.788" stroke="hsl(72.0,100%,35%)" stroke-width="0.00428"></path>
<path d="M1.316 0.654 Q1.143 0.412 0.633 0.443" stroke="hsl(72.0,100%,35%)" stroke-width="0.00061"></path>
<path d="M1.316 0.654 Q1.626 0.563 1.515 0.391" stroke="hsl(72.0,100%,35%)" stroke-width="0.00367"></path>
<path d="M1.316 0.654 Q1.256 0.825 1.576 0.892" stroke="hsl(72.0,100%,35%)" stroke-width="0.00122"></path>
<path d="M1.316 0.654 Q1.259 0.298 0.551 0.247" stroke="hsl(72.0,100%,35%)" stroke-width="0.00122"></path>
<path d="M1.316 0.654 Q1.336 0.464 0.968 0.412" stroke="hsl(72.0,100%,35%)" stroke-width="0.00122"></path>
<path d="M1.316 0.654 Q1.257 0.721 1.374 0.765" stroke="hsl(72.0,100%,35%)" stroke-width="0.00245"></path>
<path d="M1.316 0.654 Q0.660 0.640 0.488 0.956" stroke="hsl(72.0,100%,35%)" stroke-width="0.00061"></path>
<path d="M1.316 0.654 Q1.365 0.206 0.501 0.084" stroke="hsl(72.0,100%,35%)" stroke-width="0.00122"></path>
<path d="M1.316 0.654 Q1.729 0.372 1.269 0.109" stroke="hsl(72.0,100%,35%)" stroke-width="0.00061"></path>
<path d="M0.901 0.888 Q0.948 0.767 0.723 0.718" stroke="hsl(72.0,100%,35%)" stroke-width="0.02509"></path>
<path d="M0.901 0.888 Q0.697 0.814 0.508 0.896" stroke="hsl(72.0,100%,35%)" stroke-width="0.00428"></path>
<path d="M0.901 0.888 Q1.095 0.884 1.129 0.788" stroke="hsl(72.0,100%,35%)" stroke-width="0.00061"></path>
<path d="M0.901 0.888 Q0.843 0.803 0.664 0.812" stroke="hsl(72.0,100%,35%)" stroke-width="0.00061"></path>
<path d="M0.901 0.888 Q1.295 0.854 1.316 0.654" stroke="hsl(72.0,100%,35%)" stroke-width="0.00061"></path>
<path d="M0.901 0.888 Q0.640 0.840 0.488 0.956" stroke="hsl(72.0,100%,35%)" stroke-width="0.00061"></path>
<path d="M0.901 0.888 Q1.427 0.756 1.285 0.470" stroke="hsl(72.0,100%,35%)" stroke-width="0.00061"></path>
<path d="M1.861 0.687 Q1.772 0.630 1.641 0.661" stroke="hsl(144.0,100%,35%)" stroke-width="0.00612"></path>
<path d="M1.861 0.687 Q1.615 0.562 1.316 0.654" stroke="hsl(144.0,100%,35%)" stroke-width="0.00122"></path>
<path d="M1.861 0.687 Q1.750 0.659 1.671 0.707" stroke="hsl(144.0,100%,35%)" stroke-width="0.00061"></path>
<path d="M1.411 0.245 Q1.449 0.148 1.269 0.109" stroke="hsl(72.0,100%,35%)" stroke-width="0.02876"></path>
<path d="M1.411 0.245 Q0.836 0.460 1.129 0.788" stroke="hsl(72.0,100%,35%)" stroke-width="0.00367"></path>
<path d="M1.411 0.245 Q0.688 0.344 0.723 0.718" stroke="hsl(72.0,100%,35%)" stroke-width="0.02448"></path>
<path d="M1.411 0.245 Q0.380 0.416 0.488 0.956" stroke="hsl(72.0,100%,35%)" stroke-width="0.00122"></path>
<path d="M1.411 0.245 Q1.085 -0.018 0.501 0.084" stroke="hsl(72.0,100%,35%)" stroke-width="0.00061"></path>
<path d="M1.411 0.245 Q1.229 0.227 1.156 0.312" stroke="hsl(72.0,100%,35%)" stroke-width="0.00061"></path>
<path d="M1.411 0.245 Q1.036 0.430 1.316 0.654" stroke="hsl(72.0,100%,35%)" stroke-width="0.00734"></path>
<path d="M1.411 0.245 Q0.979 0.074 0.551 0.247" stroke="hsl(72.0,100%,35%)" stroke-width="0.00734"></path>
<path d="M1.411 0.245 Q1.231 0.209 1.122 0.289" stroke="hsl(72.0,100%,35%)" stroke-width="0.00306"></path>
<path d="M1.411 0.245 Q1.183 0.646 1.917 0.846" stroke="hsl(72.0,100%,35%)" stroke-width="0.00061"></path>
<path d="M1.411 0.245 Q1.346 0.339 1.515 0.391" stroke="hsl(72.0,100%,35%)" stroke-width="0.00122"></path>
<path d="M1.411 0.245 Q1.168 0.332 1.285 0.470" stroke="hsl(72.0,100%,35%)" stroke-width="0.00061"></path>
<path d="M1.819 0.551 Q1.032 0.451 0.664 0.812" stroke="hsl(0.0,100%,35%)" stroke-width="0.00061"></path>
<path d="M1.819 0.551 Q1.731 0.627 1.861 0.687" stroke="hsl(0.0,100%,35%)" stroke-width="0.00122"></path>
<path d="M1.819 0.551 Q1.484 0.502 1.316 0.654" stroke="hsl(0.0,100%,35%)" stroke-width="0.00061"></path>
<path d="M1.203 0.523 Q1.098 0.255 0.551 0.247" stroke="hsl(0.0,100%,35%)" stroke-width="0.00306"></path>
<path d="M1.203 0.523 Q1.175 0.421 0.968 0.412" stroke="hsl(0.0,100%,35%)" stroke-width="0.00184"></path>
<path d="M1.203 0.523 Q0.967 0.220 0.324 0.269" stroke="hsl(0.0,100%,35%)" stroke-width="0.00061"></path>
<path d="M1.203 0.523 Q1.465 0.520 1.515 0.391" stroke="hsl(0.0,100%,35%)" stroke-width="0.00428"></path>
<path d="M1.203 0.523 Q1.286 0.513 1.285 0.470" stroke="hsl(0.0,100%,35%)" stroke-width="0.00184"></path>
<path d="M1.203 0.523 Q0.894 0.421 0.627 0.550" stroke="hsl(0.0,100%,35%)" stroke-width="0.00245"></path>
<path d="M1.203 0.523 Q1.212 0.318 0.815 0.269" stroke="hsl(0.0,100%,35%)" stroke-width="0.00061"></path>
<path d="M1.203 0.523 Q1.105 0.499 1.035 0.541" stroke="hsl(0.0,100%,35%)" stroke-width="0.00061"></path>
<path d="M0.455 0.768 Q0.776 0.913 1.129 0.788" stroke="hsl(72.0,100%,35%)" stroke-width="0.00061"></path>
<path d="M0.455 0.768 Q1.025 0.435 0.501 0.084" stroke="hsl(72.0,100%,35%)" stroke-width="0.00061"></path>
<path d="M0.455 0.768 Q0.407 0.713 0.290 0.725" stroke="hsl(72.0,100%,35%)" stroke-width="0.00061"></path>
<path d="M0.664 0.812 Q0.769 0.777 0.723 0.718" stroke="hsl(72.0,100%,35%)" stroke-width="0.01469"></path>
<path d="M0.664 0.812 Q0.519 0.823 0.508 0.896" stroke="hsl(72.0,100%,35%)" stroke-width="0.00918"></path>
<path d="M0.664 0.812 Q0.944 0.621 0.633 0.443" stroke="hsl(72.0,100%,35%)" stroke-width="0.00061"></path>
<path d="M0.664 0.812 Q0.722 0.897 0.901 0.888" stroke="hsl(72.0,100%,35%)" stroke-width="0.00122"></path>
<path d="M0.664 0.812 Q1.530 0.581 1.269 0.109" stroke="hsl(72.0,100%,35%)" stroke-width="0.00122"></path>
<path d="M0.664 0.812 Q0.461 0.849 0.488 0.956" stroke="hsl(72.0,100%,35%)" stroke-width="0.00184"></path>
<path d="M0.664 0.812 Q1.116 0.864 1.316 0.654" stroke="hsl(72.0,100%,35%)" stroke-width="0.00061"></path>
<path d="M0.664 0.812 Q0.556 0.730 0.373 0.765" stroke="hsl(72.0,100%,35%)" stroke-width="0.00061"></path>
<path d="M0.664 0.812 Q1.249 0.765 1.285 0.470" stroke="hsl(72.0,100%,35%)" stroke-width="0.00184"></path>
<path d="M0.664 0.812 Q1.165 0.415 0.501 0.084" stroke="hsl(72.0,100%,35%)" stroke-width="0.00061"></path>
<path d="M0.664 0.812 Q1.057 1.034 1.576 0.892" stroke="hsl(72.0,100%,35%)" stroke-width="0.00061"></path>
<path d="M0.664 0.812 Q1.174 0.571 0.815 0.269" stroke="hsl(72.0,100%,35%)" stroke-width="0.00061"></path>
<path d="M0.756 1.061 Q1.014 0.883 0.723 0.718" stroke="hsl(0.0,100%,35%)" stroke-width="0.00061"></path>
<path d="M0.756 1.061 Q1.775 0.688 1.269 0.109" stroke="hsl(0.0,100%,35%)" stroke-width="0.00061"></path>
<path d="M0.756 1.061 Q1.555 0.767 1.156 0.312" stroke="hsl(0.0,100%,35%)" stroke-width="0.00061"></path>
<path d="M0.155 0.375 Q0.084 0.454 0.223 0.506" stroke="hsl(72.0,100%,35%)" stroke-width="0.00061"></path>
<path d="M0.155 0.375 Q0.324 0.356 0.324 0.269" stroke="hsl(72.0,100%,35%)" stroke-width="0.00245"></path>
<path d="M0.155 0.375 Q0.925 0.464 1.269 0.109" stroke="hsl(72.0,100%,35%)" stroke-width="0.00122"></path>
<path d="M0.155 0.375 Q0.649 0.361 0.729 0.117" stroke="hsl(72.0,100%,35%)" stroke-width="0.00122"></path>
<path d="M0.155 0.375 Q0.452 0.917 1.576 0.892" stroke="hsl(72.0,100%,35%)" stroke-width="0.00061"></path>
<path d="M0.155 0.375 Q0.213 0.407 0.288 0.385" stroke="hsl(72.0,100%,35%)" stroke-width="0.00061"></path>
<path d="M0.155 0.375 Q0.561 0.298 0.501 0.084" stroke="hsl(72.0,100%,35%)" stroke-width="0.00061"></path>
<path d="M1.011 0.628 Q1.453 0.610 1.515 0.391" stroke="hsl(72.0,100%,35%)" stroke-width="0.00857"></path>
<path d="M1.011 0.628 Q0.943 0.732 1.129 0.788" stroke="hsl(72.0,100%,35%)" stroke-width="0.00551"></path>
<path d="M1.011 0.628 Q1.163 0.511 0.968 0.412" stroke="hsl(72.0,100%,35%)" stroke-width="0.00061"></path>
<path d="M1.011 0.628 Q1.083 0.769 1.374 0.765" stroke="hsl(72.0,100%,35%)" stroke-width="0.00428"></path>
<path d="M1.011 0.628 Q1.143 0.702 1.316 0.654" stroke="hsl(72.0,100%,35%)" stroke-width="0.00612"></path>
<path d="M1.011 0.628 Q1.556 0.420 1.269 0.109" stroke="hsl(72.0,100%,35%)" stroke-width="0.00122"></path>
<path d="M1.011 0.628 Q1.083 0.873 1.576 0.892" stroke="hsl(72.0,100%,35%)" stroke-width="0.00122"></path>
<path d="M1.011 0.628 Q1.192 0.254 0.501 0.084" stroke="hsl(72.0,100%,35%)" stroke-width="0.00061"></path>
<path d="M1.011 0.628 Q1.086 0.346 0.551 0.247" stroke="hsl(72.0,100%,35%)" stroke-width="0.00061"></path>
<path d="M1.170 0.503 Q0.934 0.217 0.324 0.269" stroke="hsl(0.0,100%,35%)" stroke-width="0.00061"></path>
<path d="M1.170 0.503 Q1.254 0.509 1.285 0.470" stroke="hsl(0.0,100%,35%)" stroke-width="0.00306"></path>
<path d="M1.170 0.503 Q0.922 0.637 1.129 0.788" stroke="hsl(0.0,100%,35%)" stroke-width="0.00061"></path>
<path d="M1.170 0.503 Q1.535 0.326 1.269 0.109" stroke="hsl(0.0,100%,35%)" stroke-width="0.00061"></path>
<path d="M1.170 0.503 Q1.432 0.516 1.515 0.391" stroke="hsl(0.0,100%,35%)" stroke-width="0.00061"></path>
<path d="M0.880 0.563 Q1.335 0.604 1.515 0.391" stroke="hsl(72.0,100%,35%)" stroke-width="0.00061"></path>
<path d="M0.880 0.563 Q1.173 0.912 1.917 0.846" stroke="hsl(72.0,100%,35%)" stroke-width="0.00061"></path>
<path d="M0.880 0.563 Q1.025 0.696 1.316 0.654" stroke="hsl(72.0,100%,35%)" stroke-width="0.00061"></path>
<path d="M1.843 0.712 Q1.819 0.375 1.156 0.312" stroke="hsl(72.0,100%,35%)" stroke-width="0.00061"></path>
<path d="M1.843 0.712 Q1.426 0.607 1.129 0.788" stroke="hsl(72.0,100%,35%)" stroke-width="0.00061"></path>
<path d="M1.843 0.712 Q1.566 0.748 1.576 0.892" stroke="hsl(72.0,100%,35%)" stroke-width="0.00122"></path>
<path d="M1.843 0.712 Q1.872 0.703 1.861 0.687" stroke="hsl(72.0,100%,35%)" stroke-width="0.00061"></path>
<path d="M1.843 0.712 Q1.773 0.794 1.917 0.846" stroke="hsl(72.0,100%,35%)" stroke-width="0.00122"></path>
<path d="M1.005 0.077 Q0.638 0.598 1.576 0.892" stroke="hsl(72.0,100%,35%)" stroke-width="0.00122"></path>
<path d="M1.005 0.077 Q0.304 0.461 0.901 0.888" stroke="hsl(72.0,100%,35%)" stroke-width="0.00122"></path>
<path d="M1.005 0.077 Q0.830 0.329 1.285 0.470" stroke="hsl(72.0,100%,35%)" stroke-width="0.00061"></path>
<path d="M1.005 0.077 Q1.111 0.145 1.269 0.109" stroke="hsl(72.0,100%,35%)" stroke-width="0.00122"></path>
<path d="M1.005 0.077 Q0.835 0.041 0.729 0.117" stroke="hsl(72.0,100%,35%)" stroke-width="0.00245"></path>
<path d="M1.005 0.077 Q0.906 0.012 0.758 0.046" stroke="hsl(72.0,100%,35%)" stroke-width="0.00367"></path>
<path d="M1.005 0.077 Q0.718 0.237 0.968 0.412" stroke="hsl(72.0,100%,35%)" stroke-width="0.00061"></path>
<path d="M1.005 0.077 Q0.698 0.428 1.316 0.654" stroke="hsl(72.0,100%,35%)" stroke-width="0.00184"></path>
<path d="M0.753 0.996 Q0.871 1.019 0.942 0.966" stroke="hsl(216.0,100%,35%)" stroke-width="0.01224"></path>
<path d="M0.753 0.996 Q1.618 0.846 1.515 0.391" stroke="hsl(216.0,100%,35%)" stroke-width="0.00061"></path>
<path d="M0.753 0.996 Q1.614 0.587 1.005 0.077" stroke="hsl(216.0,100%,35%)" stroke-width="0.00061"></path>
<path d="M0.753 0.996 Q1.356 0.490 0.501 0.084" stroke="hsl(216.0,100%,35%)" stroke-width="0.00122"></path>
<path d="M0.753 0.996 Q1.366 0.645 0.815 0.269" stroke="hsl(216.0,100%,35%)" stroke-width="0.00061"></path>
<path d="M0.753 0.996 Q1.251 0.581 0.551 0.247" stroke="hsl(216.0,100%,35%)" stroke-width="0.00184"></path>
<path d="M0.753 0.996 Q1.108 0.967 1.129 0.788" stroke="hsl(216.0,100%,35%)" stroke-width="0.00061"></path>
<path d="M0.753 0.996 Q0.584 0.934 0.425 1.003" stroke="hsl(216.0,100%,35%)" stroke-width="0.00306"></path>
<path d="M0.753 0.996 Q1.721 0.656 1.269 0.109" stroke="hsl(216.0,100%,35%)" stroke-width="0.00061"></path>
<path d="M0.753 0.996 Q1.120 0.547 0.324 0.269" stroke="hsl(216.0,100%,35%)" stroke-width="0.00061"></path>
<path d="M0.753 0.996 Q1.503 0.717 1.122 0.289" stroke="hsl(216.0,100%,35%)" stroke-width="0.00061"></path>
<path d="M0.753 0.996 Q1.683 0.752 1.411 0.245" stroke="hsl(216.0,100%,35%)" stroke-width="0.00061"></path>
<path d="M0.753 0.996 Q1.440 0.839 1.285 0.470" stroke="hsl(216.0,100%,35%)" stroke-width="0.00306"></path>
<path d="M0.753 0.996 Q1.135 0.696 0.633 0.443" stroke="hsl(216.0,100%,35%)" stroke-width="0.00122"></path>
<path d="M0.753 0.996 Q0.960 0.851 0.723 0.718" stroke="hsl(216.0,100%,35%)" stroke-width="0.00122"></path>
<path d="M1.122 0.289 Q0.532 0.544 0.901 0.888" stroke="hsl(72.0,100%,35%)" stroke-width="0.00306"></path>
<path d="M1.122 0.289 Q0.579 0.424 0.723 0.718" stroke="hsl(72.0,100%,35%)" stroke-width="0.00245"></path>
<path d="M1.122 0.289 Q0.739 0.120 0.324 0.269" stroke="hsl(72.0,100%,35%)" stroke-width="0.00061"></path>
<path d="M1.122 0.289 Q0.985 0.218 0.815 0.269" stroke="hsl(72.0,100%,35%)" stroke-width="0.00061"></path>
<path d="M1.122 0.289 Q0.927 0.511 1.316 0.654" stroke="hsl(72.0,100%,35%)" stroke-width="0.00061"></path>
<path d="M1.122 0.289 Q1.074 0.726 1.917 0.846" stroke="hsl(72.0,100%,35%)" stroke-width="0.00061"></path>
<path d="M1.122 0.289 Q0.870 0.154 0.551 0.247" stroke="hsl(72.0,100%,35%)" stroke-width="0.00061"></path>
<path d="M1.122 0.289 Q1.302 0.325 1.411 0.245" stroke="hsl(72.0,100%,35%)" stroke-width="0.00184"></path>
<path d="M1.122 0.289 Q1.340 0.228 1.269 0.109" stroke="hsl(72.0,100%,35%)" stroke-width="0.00184"></path>
<path d="M1.122 0.289 Q0.475 0.459 0.664 0.812" stroke="hsl(72.0,100%,35%)" stroke-width="0.00061"></path>
<path d="M1.122 0.289 Q0.868 0.577 1.374 0.765" stroke="hsl(72.0,100%,35%)" stroke-width="0.00061"></path>
<path d="M0.758 0.046 Q0.857 0.111 1.005 0.077" stroke="hsl(72.0,100%,35%)" stroke-width="0.00428"></path>
<path d="M0.758 0.046 Q0.687 0.076 0.729 0.117" stroke="hsl(72.0,100%,35%)" stroke-width="0.00122"></path>
<path d="M0.758 0.046 Q0.560 0.210 0.835 0.342" stroke="hsl(72.0,100%,35%)" stroke-width="0.00184"></path>
<path d="M0.806 0.118 Q0.939 0.137 1.005 0.077" stroke="hsl(72.0,100%,35%)" stroke-width="0.00122"></path>
<path d="M0.806 0.118 Q0.879 0.614 1.861 0.687" stroke="hsl(72.0,100%,35%)" stroke-width="0.00061"></path>
<path d="M0.806 0.118 Q0.572 0.659 1.576 0.892" stroke="hsl(72.0,100%,35%)" stroke-width="0.00061"></path>
<path d="M1.442 0.743 Q1.262 0.282 0.324 0.269" stroke="hsl(72.0,100%,35%)" stroke-width="0.00061"></path>
<path d="M1.442 0.743 Q1.582 0.575 1.285 0.470" stroke="hsl(72.0,100%,35%)" stroke-width="0.00061"></path>
<path d="M1.442 0.743 Q1.102 0.587 0.723 0.718" stroke="hsl(72.0,100%,35%)" stroke-width="0.00061"></path>
<path d="M1.442 0.743 Q1.450 0.673 1.316 0.654" stroke="hsl(72.0,100%,35%)" stroke-width="0.00122"></path>
<path d="M1.442 0.743 Q1.250 0.703 1.129 0.788" stroke="hsl(72.0,100%,35%)" stroke-width="0.00122"></path>
<path d="M1.442 0.743 Q1.390 0.844 1.576 0.892" stroke="hsl(72.0,100%,35%)" stroke-width="0.00061"></path>
<path d="M1.302 0.915 Q1.457 0.958 1.576 0.892" stroke="hsl(0.0,100%,35%)" stroke-width="0.00061"></path>
<path d="M1.302 0.915 Q1.317 0.817 1.129 0.788" stroke="hsl(0.0,100%,35%)" stroke-width="0.00061"></path>
<path d="M1.302 0.915 Q1.566 0.339 0.501 0.084" stroke="hsl(0.0,100%,35%)" stroke-width="0.00061"></path>
<path d="M1.302 0.915 Q1.827 0.696 1.515 0.391" stroke="hsl(0.0,100%,35%)" stroke-width="0.00061"></path>
<path d="M1.302 0.915 Q1.517 0.787 1.316 0.654" stroke="hsl(0.0,100%,35%)" stroke-width="0.00061"></path>
<path d="M0.453 0.666 Q0.837 0.477 0.551 0.247" stroke="hsl(288.0,100%,35%)" stroke-width="0.00245"></path>
<path d="M0.453 0.666 Q0.388 0.618 0.280 0.638" stroke="hsl(288.0,100%,35%)" stroke-width="0.01652"></path>
<path d="M0.453 0.666 Q0.721 0.591 0.633 0.443" stroke="hsl(288.0,100%,35%)" stroke-width="0.00061"></path>
<path d="M0.453 0.666 Q1.307 0.551 1.269 0.109" stroke="hsl(288.0,100%,35%)" stroke-width="0.00061"></path>
<path d="M0.808 0.145 Q0.598 0.145 0.551 0.247" stroke="hsl(72.0,100%,35%)" stroke-width="0.00122"></path>
<path d="M0.808 0.145 Q0.595 0.568 1.374 0.765" stroke="hsl(72.0,100%,35%)" stroke-width="0.00122"></path>
<path d="M0.808 0.145 Q0.675 0.310 0.968 0.412" stroke="hsl(72.0,100%,35%)" stroke-width="0.00061"></path>
<path d="M0.808 0.145 Q0.307 0.414 0.723 0.718" stroke="hsl(72.0,100%,35%)" stroke-width="0.00061"></path>
<path d="M0.808 0.145 Q0.901 0.627 1.861 0.687" stroke="hsl(72.0,100%,35%)" stroke-width="0.00061"></path>
<path d="M0.808 0.145 Q1.068 0.219 1.269 0.109" stroke="hsl(72.0,100%,35%)" stroke-width="0.00061"></path>
<path d="M0.887 0.520 Q1.304 0.581 1.515 0.391" stroke="hsl(0.0,100%,35%)" stroke-width="0.00061"></path>
<path d="M0.887 0.520 Q1.301 0.322 1.005 0.077" stroke="hsl(0.0,100%,35%)" stroke-width="0.00061"></path>
<path d="M0.887 0.520 Q0.937 0.317 0.551 0.247" stroke="hsl(0.0,100%,35%)" stroke-width="0.00306"></path>
<path d="M0.887 0.520 Q0.806 0.282 0.324 0.269" stroke="hsl(0.0,100%,35%)" stroke-width="0.00245"></path>
<path d="M0.887 0.520 Q1.126 0.574 1.285 0.470" stroke="hsl(0.0,100%,35%)" stroke-width="0.00184"></path>
<path d="M0.887 0.520 Q1.043 0.225 0.501 0.084" stroke="hsl(0.0,100%,35%)" stroke-width="0.00061"></path>
<path d="M0.887 0.520 Q0.794 0.702 1.129 0.788" stroke="hsl(0.0,100%,35%)" stroke-width="0.00122"></path>
<path d="M0.887 0.520 Q0.821 0.431 0.633 0.443" stroke="hsl(0.0,100%,35%)" stroke-width="0.00245"></path>
<path d="M0.887 0.520 Q1.407 0.391 1.269 0.109" stroke="hsl(0.0,100%,35%)" stroke-width="0.00184"></path>
<path d="M0.887 0.520 Q0.646 0.586 0.723 0.718" stroke="hsl(0.0,100%,35%)" stroke-width="0.00122"></path>
<path d="M0.887 0.520 Q1.369 0.487 1.411 0.245" stroke="hsl(0.0,100%,35%)" stroke-width="0.00061"></path>
<path d="M0.887 0.520 Q0.994 0.673 1.316 0.654" stroke="hsl(0.0,100%,35%)" stroke-width="0.00061"></path>
<path d="M0.887 0.520 Q0.733 0.483 0.627 0.550" stroke="hsl(0.0,100%,35%)" stroke-width="0.00061"></path>
</g>
<text x="0.815" y="0.253" font-size="0.032603" fill="hsl(0.0,100%,20%)">ahaas</text>
<text x="1.515" y="0.367" font-size="0.048358" fill="hsl(0.0,100%,20%)">dmercadier</text>
<text x="0.633" y="0.420" font-size="0.046986" fill="hsl(0.0,100%,20%)">mliedtke</text>
<text x="0.968" y="0.396" font-size="0.030798" fill="hsl(0.0,100%,20%)">machenbach</text>
<text x="0.501" y="0.063" font-size="0.041831" fill="hsl(0.0,100%,20%)">jkummerow</text>
<text x="0.627" y="0.534" font-size="0.030798" fill="hsl(0.0,100%,20%)">manoskouk</text>
<text x="0.551" y="0.223" font-size="0.048863" fill="hsl(0.0,100%,20%)">clemensb</text>
<text x="1.374" y="0.751" font-size="0.028307" fill="hsl(72.0,100%,20%)">victorgomes</text>
<text x="0.723" y="0.692" font-size="0.052726" fill="hsl(72.0,100%,20%)">mlippautz</text>
<text x="0.324" y="0.251" font-size="0.035254" fill="hsl(0.0,100%,20%)">thibaudm</text>
<text x="1.156" y="0.303" font-size="0.018532" fill="hsl(0.0,100%,20%)">marja</text>
<text x="0.812" y="0.470" font-size="0.021777" fill="hsl(0.0,100%,20%)">evih</text>
<text x="1.917" y="0.831" font-size="0.028595" fill="hsl(72.0,100%,20%)">pthier</text>
<text x="1.285" y="0.447" font-size="0.045930" fill="hsl(0.0,100%,20%)">nicohartmann</text>
<text x="1.197" y="0.929" font-size="0.011438" fill="hsl(72.0,100%,20%)">carlscab</text>
<text x="1.129" y="0.768" font-size="0.039207" fill="hsl(72.0,100%,20%)">verwaest</text>
<text x="1.576" y="0.878" font-size="0.028017" fill="hsl(72.0,100%,20%)">cbruni</text>
<text x="1.269" y="0.086" font-size="0.045573" fill="hsl(72.0,100%,20%)">ishell</text>
<text x="1.316" y="0.630" font-size="0.048019" fill="hsl(72.0,100%,20%)">leszeks</text>
<text x="1.671" y="0.704" font-size="0.005719" fill="hsl(72.0,100%,20%)">pfaffe</text>
<text x="0.901" y="0.869" font-size="0.037063" fill="hsl(72.0,100%,20%)">dinfuehr</text>
<text x="1.861" y="0.678" font-size="0.017627" fill="hsl(144.0,100%,20%)">szuend</text>
<text x="1.411" y="0.221" font-size="0.048019" fill="hsl(72.0,100%,20%)">saelo</text>
<text x="0.508" y="0.886" font-size="0.021013" fill="hsl(72.0,100%,20%)">omerkatz</text>
<text x="1.819" y="0.546" font-size="0.009042" fill="hsl(0.0,100%,20%)">leese</text>
<text x="0.488" y="0.950" font-size="0.013412" fill="hsl(72.0,100%,20%)">bikineev</text>
<text x="1.203" y="0.512" font-size="0.022149" fill="hsl(0.0,100%,20%)">dlehmann</text>
<text x="0.455" y="0.764" font-size="0.007004" fill="hsl(72.0,100%,20%)">dcheng</text>
<text x="0.290" y="0.723" font-size="0.004044" fill="hsl(72.0,100%,20%)">ecmziegler</text>
<text x="0.664" y="0.796" font-size="0.031584" fill="hsl(72.0,100%,20%)">nikolaos</text>
<text x="1.035" y="0.539" font-size="0.004044" fill="hsl(0.0,100%,20%)">hao.a.xu</text>
<text x="0.756" y="1.058" font-size="0.007004" fill="hsl(0.0,100%,20%)">emromero</text>
<text x="0.155" y="0.368" font-size="0.014009" fill="hsl(72.0,100%,20%)">fgm</text>
<text x="0.223" y="0.504" font-size="0.004044" fill="hsl(72.0,100%,20%)">irezvov</text>
<text x="0.729" y="0.111" font-size="0.012132" fill="hsl(72.0,100%,20%)">adamk</text>
<text x="0.288" y="0.382" font-size="0.005719" fill="hsl(72.0,100%,20%)">gdeepti</text>
<text x="1.011" y="0.613" font-size="0.030262" fill="hsl(72.0,100%,20%)">olivf</text>
<text x="1.170" y="0.497" font-size="0.012132" fill="hsl(0.0,100%,20%)">jianxiao.lu</text>
<text x="0.880" y="0.560" font-size="0.007004" fill="hsl(72.0,100%,20%)">jing.bao</text>
<text x="1.843" y="0.707" font-size="0.010699" fill="hsl(72.0,100%,20%)">joyee</text>
<text x="1.005" y="0.064" font-size="0.024598" fill="hsl(72.0,100%,20%)">syg</text>
<text x="0.835" y="0.332" font-size="0.019811" fill="hsl(0.0,100%,20%)">liviurau</text>
<text x="0.753" y="0.982" font-size="0.027724" fill="hsl(216.0,100%,20%)">mfarazma</text>
<text x="0.942" y="0.957" font-size="0.018085" fill="hsl(216.0,100%,20%)">junyan</text>
<text x="0.425" y="0.998" font-size="0.009042" fill="hsl(216.0,100%,20%)">midawson</text>
<text x="1.122" y="0.279" font-size="0.021398" fill="hsl(72.0,100%,20%)">sroettger</text>
<text x="0.373" y="0.762" font-size="0.005719" fill="hsl(72.0,100%,20%)">yangguo</text>
<text x="0.758" y="0.037" font-size="0.017157" fill="hsl(72.0,100%,20%)">rezvan</text>
<text x="0.806" y="0.114" font-size="0.008088" fill="hsl(72.0,100%,20%)">seokho</text>
<text x="1.442" y="0.737" font-size="0.011438" fill="hsl(72.0,100%,20%)">seth.brenith</text>
<text x="1.641" y="0.654" font-size="0.012788" fill="hsl(144.0,100%,20%)">bmeurer</text>
<text x="1.302" y="0.910" font-size="0.009042" fill="hsl(0.0,100%,20%)">tao.pan</text>
<text x="0.453" y="0.655" font-size="0.023231" fill="hsl(288.0,100%,20%)">yahan</text>
<text x="0.280" y="0.628" font-size="0.021013" fill="hsl(288.0,100%,20%)">qiuji</text>
<text x="0.808" y="0.139" font-size="0.011438" fill="hsl(72.0,100%,20%)">zcbenz</text>
<text x="0.887" y="0.509" font-size="0.021777" fill="hsl(0.0,100%,20%)">zhaojiazhong-hf</text>
</svg>
