<svg width="4000" height="2000" viewBox="-0.025 -0.025 2.05 1.05" xmlns="http://www.w3.org/2000/svg">
  <style>
    path {
      fill: none;
      stroke-linecap: round;
      stroke-opacity: 0.4;
    }

    text {
      text-anchor: middle;
      alignment-baseline: hanging;
    }
  </style>
  <g opacity="0.4">
<path d="M0.824 0.691 Q1.002 0.628 0.920 0.528" stroke="hsl(0.0,100%,35%)" stroke-width="0.00366"></path>
<path d="M0.824 0.691 Q0.550 0.618 0.348 0.736" stroke="hsl(0.0,100%,35%)" stroke-width="0.00122"></path>
<path d="M0.824 0.691 Q1.020 0.793 1.262 0.720" stroke="hsl(0.0,100%,35%)" stroke-width="0.00061"></path>
<path d="M0.824 0.691 Q0.728 0.628 0.586 0.661" stroke="hsl(0.0,100%,35%)" stroke-width="0.00122"></path>
<path d="M0.824 0.691 Q1.165 0.912 1.671 0.794" stroke="hsl(0.0,100%,35%)" stroke-width="0.00061"></path>
<path d="M0.824 0.691 Q0.690 0.401 0.095 0.403" stroke="hsl(0.0,100%,35%)" stroke-width="0.00061"></path>
<path d="M0.824 0.691 Q0.698 0.715 0.718 0.782" stroke="hsl(0.0,100%,35%)" stroke-width="0.00244"></path>
<path d="M0.824 0.691 Q0.894 0.960 1.435 0.985" stroke="hsl(0.0,100%,35%)" stroke-width="0.00122"></path>
<path d="M0.824 0.691 Q1.314 0.659 1.360 0.413" stroke="hsl(0.0,100%,35%)" stroke-width="0.00244"></path>
<path d="M0.824 0.691 Q1.214 0.415 0.761 0.164" stroke="hsl(0.0,100%,35%)" stroke-width="0.00061"></path>
<path d="M0.824 0.691 Q1.226 0.490 0.924 0.250" stroke="hsl(0.0,100%,35%)" stroke-width="0.00061"></path>
<path d="M0.920 0.528 Q1.144 0.390 0.924 0.250" stroke="hsl(0.0,100%,35%)" stroke-width="0.01159"></path>
<path d="M0.920 0.528 Q1.082 0.482 1.028 0.392" stroke="hsl(0.0,100%,35%)" stroke-width="0.00976"></path>
<path d="M0.920 0.528 Q1.630 0.608 1.942 0.279" stroke="hsl(0.0,100%,35%)" stroke-width="0.00061"></path>
<path d="M0.920 0.528 Q0.467 0.518 0.348 0.736" stroke="hsl(0.0,100%,35%)" stroke-width="0.00549"></path>
<path d="M0.920 0.528 Q0.646 0.528 0.586 0.661" stroke="hsl(0.0,100%,35%)" stroke-width="0.00183"></path>
<path d="M0.920 0.528 Q0.607 0.301 0.095 0.403" stroke="hsl(0.0,100%,35%)" stroke-width="0.00122"></path>
<path d="M0.920 0.528 Q0.937 0.692 1.262 0.720" stroke="hsl(0.0,100%,35%)" stroke-width="0.00732"></path>
<path d="M0.920 0.528 Q1.232 0.558 1.360 0.413" stroke="hsl(0.0,100%,35%)" stroke-width="0.00183"></path>
<path d="M0.920 0.528 Q0.856 0.645 1.070 0.702" stroke="hsl(0.0,100%,35%)" stroke-width="0.00061"></path>
<path d="M0.920 0.528 Q1.219 0.838 1.890 0.761" stroke="hsl(0.0,100%,35%)" stroke-width="0.00061"></path>
<path d="M0.348 0.736 Q0.622 0.809 0.824 0.691" stroke="hsl(0.0,100%,35%)" stroke-width="0.00183"></path>
<path d="M0.348 0.736 Q0.963 0.700 1.028 0.392" stroke="hsl(0.0,100%,35%)" stroke-width="0.00183"></path>
<path d="M0.348 0.736 Q0.527 0.746 0.586 0.661" stroke="hsl(0.0,100%,35%)" stroke-width="0.00671"></path>
<path d="M0.348 0.736 Q0.801 0.747 0.920 0.528" stroke="hsl(0.0,100%,35%)" stroke-width="0.00732"></path>
<path d="M0.348 0.736 Q0.818 0.911 1.262 0.720" stroke="hsl(0.0,100%,35%)" stroke-width="0.00183"></path>
<path d="M0.348 0.736 Q1.024 0.609 0.924 0.250" stroke="hsl(0.0,100%,35%)" stroke-width="0.00122"></path>
<path d="M0.348 0.736 Q1.143 0.864 1.566 0.504" stroke="hsl(0.0,100%,35%)" stroke-width="0.00061"></path>
<path d="M0.348 0.736 Q0.488 0.519 0.095 0.403" stroke="hsl(0.0,100%,35%)" stroke-width="0.00122"></path>
<path d="M0.348 0.736 Q1.031 0.929 1.557 0.638" stroke="hsl(0.0,100%,35%)" stroke-width="0.00061"></path>
<path d="M0.348 0.736 Q1.510 0.827 1.942 0.279" stroke="hsl(0.0,100%,35%)" stroke-width="0.00122"></path>
<path d="M0.348 0.736 Q1.113 0.777 1.360 0.413" stroke="hsl(0.0,100%,35%)" stroke-width="0.00061"></path>
<path d="M0.348 0.736 Q0.633 0.702 0.629 0.556" stroke="hsl(0.0,100%,35%)" stroke-width="0.00061"></path>
<path d="M1.262 0.720 Q0.791 0.545 0.348 0.736" stroke="hsl(0.0,100%,35%)" stroke-width="0.00610"></path>
<path d="M1.262 0.720 Q1.244 0.555 0.920 0.528" stroke="hsl(0.0,100%,35%)" stroke-width="0.00305"></path>
<path d="M1.262 0.720 Q1.407 0.509 1.028 0.392" stroke="hsl(0.0,100%,35%)" stroke-width="0.00122"></path>
<path d="M1.262 0.720 Q1.468 0.417 0.924 0.250" stroke="hsl(0.0,100%,35%)" stroke-width="0.00061"></path>
<path d="M1.262 0.720 Q0.940 0.642 0.718 0.782" stroke="hsl(0.0,100%,35%)" stroke-width="0.00244"></path>
<path d="M1.262 0.720 Q1.180 0.672 1.070 0.702" stroke="hsl(0.0,100%,35%)" stroke-width="0.00061"></path>
<path d="M1.262 0.720 Q0.970 0.555 0.586 0.661" stroke="hsl(0.0,100%,35%)" stroke-width="0.00061"></path>
<path d="M1.262 0.720 Q1.066 0.618 0.824 0.691" stroke="hsl(0.0,100%,35%)" stroke-width="0.00061"></path>
<path d="M0.586 0.661 Q0.407 0.651 0.348 0.736" stroke="hsl(0.0,100%,35%)" stroke-width="0.00915"></path>
<path d="M0.586 0.661 Q0.547 0.434 0.095 0.403" stroke="hsl(0.0,100%,35%)" stroke-width="0.00244"></path>
<path d="M0.586 0.661 Q0.682 0.724 0.824 0.691" stroke="hsl(0.0,100%,35%)" stroke-width="0.01220"></path>
<path d="M0.586 0.661 Q0.556 0.748 0.718 0.782" stroke="hsl(0.0,100%,35%)" stroke-width="0.00915"></path>
<path d="M0.586 0.661 Q1.570 0.741 1.942 0.279" stroke="hsl(0.0,100%,35%)" stroke-width="0.00122"></path>
<path d="M0.586 0.661 Q1.158 0.972 1.890 0.761" stroke="hsl(0.0,100%,35%)" stroke-width="0.00183"></path>
<path d="M0.586 0.661 Q1.071 0.448 0.761 0.164" stroke="hsl(0.0,100%,35%)" stroke-width="0.00061"></path>
<path d="M0.586 0.661 Q0.860 0.661 0.920 0.528" stroke="hsl(0.0,100%,35%)" stroke-width="0.00244"></path>
<path d="M0.586 0.661 Q1.084 0.523 0.924 0.250" stroke="hsl(0.0,100%,35%)" stroke-width="0.00183"></path>
<path d="M0.586 0.661 Q1.623 0.624 1.778 0.110" stroke="hsl(0.0,100%,35%)" stroke-width="0.00061"></path>
<path d="M0.586 0.661 Q0.692 0.617 0.629 0.556" stroke="hsl(0.0,100%,35%)" stroke-width="0.00305"></path>
<path d="M0.586 0.661 Q1.393 0.722 1.689 0.342" stroke="hsl(0.0,100%,35%)" stroke-width="0.00061"></path>
<path d="M0.586 0.661 Q1.022 0.615 1.028 0.392" stroke="hsl(0.0,100%,35%)" stroke-width="0.00061"></path>
<path d="M0.586 0.661 Q0.891 1.030 1.679 0.962" stroke="hsl(0.0,100%,35%)" stroke-width="0.00061"></path>
<path d="M0.586 0.661 Q1.453 0.548 1.423 0.100" stroke="hsl(0.0,100%,35%)" stroke-width="0.00061"></path>
<path d="M0.586 0.661 Q0.473 0.486 0.107 0.503" stroke="hsl(0.0,100%,35%)" stroke-width="0.00061"></path>
<path d="M0.586 0.661 Q0.796 0.778 1.070 0.702" stroke="hsl(0.0,100%,35%)" stroke-width="0.00122"></path>
<path d="M0.586 0.661 Q0.877 0.826 1.262 0.720" stroke="hsl(0.0,100%,35%)" stroke-width="0.00122"></path>
<path d="M1.671 0.794 Q1.721 0.874 1.886 0.867" stroke="hsl(120.0,100%,35%)" stroke-width="0.00183"></path>
<path d="M1.671 0.794 Q1.671 0.465 1.028 0.392" stroke="hsl(120.0,100%,35%)" stroke-width="0.00488"></path>
<path d="M1.671 0.794 Q1.807 0.821 1.890 0.761" stroke="hsl(120.0,100%,35%)" stroke-width="0.01037"></path>
<path d="M1.671 0.794 Q1.343 0.234 0.177 0.271" stroke="hsl(120.0,100%,35%)" stroke-width="0.00244"></path>
<path d="M1.671 0.794 Q1.940 0.341 1.114 0.110" stroke="hsl(120.0,100%,35%)" stroke-width="0.00061"></path>
<path d="M1.671 0.794 Q1.733 0.373 0.924 0.250" stroke="hsl(120.0,100%,35%)" stroke-width="0.00061"></path>
<path d="M1.671 0.794 Q1.720 0.297 0.761 0.164" stroke="hsl(120.0,100%,35%)" stroke-width="0.00061"></path>
<path d="M1.671 0.794 Q1.503 0.421 0.738 0.421" stroke="hsl(120.0,100%,35%)" stroke-width="0.00061"></path>
<path d="M1.671 0.794 Q1.540 0.880 1.679 0.962" stroke="hsl(120.0,100%,35%)" stroke-width="0.00061"></path>
<path d="M1.671 0.794 Q1.341 0.467 0.629 0.556" stroke="hsl(120.0,100%,35%)" stroke-width="0.00061"></path>
<path d="M1.671 0.794 Q1.739 0.693 1.557 0.638" stroke="hsl(120.0,100%,35%)" stroke-width="0.00122"></path>
<path d="M0.095 0.403 Q0.242 0.354 0.177 0.271" stroke="hsl(120.0,100%,35%)" stroke-width="0.00610"></path>
<path d="M0.095 0.403 Q0.570 0.584 1.028 0.392" stroke="hsl(120.0,100%,35%)" stroke-width="0.00122"></path>
<path d="M0.095 0.403 Q0.440 1.000 1.679 0.962" stroke="hsl(120.0,100%,35%)" stroke-width="0.00061"></path>
<path d="M0.095 0.403 Q0.620 0.993 1.886 0.867" stroke="hsl(120.0,100%,35%)" stroke-width="0.00366"></path>
<path d="M0.095 0.403 Q0.021 0.455 0.107 0.503" stroke="hsl(120.0,100%,35%)" stroke-width="0.00122"></path>
<path d="M0.095 0.403 Q0.750 0.748 1.566 0.504" stroke="hsl(120.0,100%,35%)" stroke-width="0.00122"></path>
<path d="M0.095 0.403 Q0.707 0.941 1.890 0.761" stroke="hsl(120.0,100%,35%)" stroke-width="0.00244"></path>
<path d="M0.095 0.403 Q0.941 0.692 1.689 0.342" stroke="hsl(120.0,100%,35%)" stroke-width="0.00244"></path>
<path d="M0.095 0.403 Q0.619 0.417 0.761 0.164" stroke="hsl(120.0,100%,35%)" stroke-width="0.00061"></path>
<path d="M0.095 0.403 Q0.425 0.795 1.262 0.720" stroke="hsl(120.0,100%,35%)" stroke-width="0.00061"></path>
<path d="M0.718 0.782 Q1.016 0.605 0.738 0.421" stroke="hsl(0.0,100%,35%)" stroke-width="0.00610"></path>
<path d="M0.718 0.782 Q0.844 0.757 0.824 0.691" stroke="hsl(0.0,100%,35%)" stroke-width="0.00427"></path>
<path d="M0.718 0.782 Q0.748 0.695 0.586 0.661" stroke="hsl(0.0,100%,35%)" stroke-width="0.00488"></path>
<path d="M0.718 0.782 Q0.569 0.685 0.348 0.736" stroke="hsl(0.0,100%,35%)" stroke-width="0.00305"></path>
<path d="M0.718 0.782 Q1.040 0.859 1.262 0.720" stroke="hsl(0.0,100%,35%)" stroke-width="0.00427"></path>
<path d="M0.718 0.782 Q1.022 0.695 0.920 0.528" stroke="hsl(0.0,100%,35%)" stroke-width="0.00061"></path>
<path d="M0.718 0.782 Q1.246 0.557 0.924 0.250" stroke="hsl(0.0,100%,35%)" stroke-width="0.00061"></path>
<path d="M0.718 0.782 Q0.536 0.776 0.484 0.863" stroke="hsl(0.0,100%,35%)" stroke-width="0.00061"></path>
<path d="M1.435 0.985 Q1.975 0.483 1.114 0.110" stroke="hsl(120.0,100%,35%)" stroke-width="0.00061"></path>
<path d="M1.435 0.985 Q1.090 0.643 0.348 0.736" stroke="hsl(120.0,100%,35%)" stroke-width="0.00061"></path>
<path d="M1.435 0.985 Q1.706 0.607 1.028 0.392" stroke="hsl(120.0,100%,35%)" stroke-width="0.00061"></path>
<path d="M1.435 0.985 Q1.773 0.836 1.557 0.638" stroke="hsl(120.0,100%,35%)" stroke-width="0.00061"></path>
<path d="M1.435 0.985 Q1.706 0.937 1.671 0.794" stroke="hsl(120.0,100%,35%)" stroke-width="0.00183"></path>
<path d="M1.435 0.985 Q1.767 0.515 0.924 0.250" stroke="hsl(120.0,100%,35%)" stroke-width="0.00122"></path>
<path d="M1.435 0.985 Q1.842 0.964 1.890 0.761" stroke="hsl(120.0,100%,35%)" stroke-width="0.00061"></path>
<path d="M1.435 0.985 Q1.377 0.377 0.177 0.271" stroke="hsl(120.0,100%,35%)" stroke-width="0.00061"></path>
<path d="M1.360 0.413 Q0.595 0.372 0.348 0.736" stroke="hsl(0.0,100%,35%)" stroke-width="0.00427"></path>
<path d="M1.360 0.413 Q1.048 0.382 0.920 0.528" stroke="hsl(0.0,100%,35%)" stroke-width="0.00549"></path>
<path d="M1.360 0.413 Q1.272 0.244 0.924 0.250" stroke="hsl(0.0,100%,35%)" stroke-width="0.00061"></path>
<path d="M0.761 0.164 Q0.581 0.747 1.679 0.962" stroke="hsl(120.0,100%,35%)" stroke-width="0.00305"></path>
<path d="M0.761 0.164 Q0.712 0.661 1.671 0.794" stroke="hsl(120.0,100%,35%)" stroke-width="0.00305"></path>
<path d="M0.761 0.164 Q0.780 0.561 1.557 0.638" stroke="hsl(120.0,100%,35%)" stroke-width="0.00061"></path>
<path d="M0.761 0.164 Q0.981 0.208 1.114 0.110" stroke="hsl(120.0,100%,35%)" stroke-width="0.00122"></path>
<path d="M0.761 0.164 Q0.848 0.688 1.890 0.761" stroke="hsl(120.0,100%,35%)" stroke-width="0.00183"></path>
<path d="M0.761 0.164 Q0.384 0.101 0.177 0.271" stroke="hsl(120.0,100%,35%)" stroke-width="0.00061"></path>
<path d="M0.761 0.164 Q0.544 0.288 0.738 0.421" stroke="hsl(120.0,100%,35%)" stroke-width="0.00244"></path>
<path d="M0.924 0.250 Q0.862 0.342 1.028 0.392" stroke="hsl(0.0,100%,35%)" stroke-width="0.01281"></path>
<path d="M0.924 0.250 Q0.426 0.388 0.586 0.661" stroke="hsl(0.0,100%,35%)" stroke-width="0.00061"></path>
<path d="M0.924 0.250 Q0.700 0.388 0.920 0.528" stroke="hsl(0.0,100%,35%)" stroke-width="0.00488"></path>
<path d="M0.924 0.250 Q0.592 0.720 1.435 0.985" stroke="hsl(0.0,100%,35%)" stroke-width="0.00122"></path>
<path d="M0.924 0.250 Q0.247 0.378 0.348 0.736" stroke="hsl(0.0,100%,35%)" stroke-width="0.00183"></path>
<path d="M1.470 0.893 Q1.699 0.963 1.886 0.867" stroke="hsl(120.0,100%,35%)" stroke-width="0.00305"></path>
<path d="M1.470 0.893 Q1.519 0.969 1.679 0.962" stroke="hsl(120.0,100%,35%)" stroke-width="0.00122"></path>
<path d="M1.470 0.893 Q2.197 0.680 1.942 0.279" stroke="hsl(120.0,100%,35%)" stroke-width="0.00061"></path>
<path d="M1.886 0.867 Q1.706 0.873 1.679 0.962" stroke="hsl(120.0,100%,35%)" stroke-width="0.00427"></path>
<path d="M1.886 0.867 Q1.508 0.227 0.177 0.271" stroke="hsl(120.0,100%,35%)" stroke-width="0.00061"></path>
<path d="M1.886 0.867 Q1.668 0.414 0.738 0.421" stroke="hsl(120.0,100%,35%)" stroke-width="0.00061"></path>
<path d="M1.886 0.867 Q1.973 0.815 1.890 0.761" stroke="hsl(120.0,100%,35%)" stroke-width="0.01037"></path>
<path d="M1.886 0.867 Q1.362 0.277 0.095 0.403" stroke="hsl(120.0,100%,35%)" stroke-width="0.00122"></path>
<path d="M1.886 0.867 Q1.837 0.458 1.028 0.392" stroke="hsl(120.0,100%,35%)" stroke-width="0.00061"></path>
<path d="M1.679 0.962 Q1.539 0.925 1.435 0.985" stroke="hsl(120.0,100%,35%)" stroke-width="0.00183"></path>
<path d="M1.679 0.962 Q1.641 0.504 0.738 0.421" stroke="hsl(120.0,100%,35%)" stroke-width="0.00122"></path>
<path d="M1.679 0.962 Q1.858 0.380 0.761 0.164" stroke="hsl(120.0,100%,35%)" stroke-width="0.00061"></path>
<path d="M1.679 0.962 Q1.859 0.956 1.886 0.867" stroke="hsl(120.0,100%,35%)" stroke-width="0.00122"></path>
<path d="M1.679 0.962 Q1.946 0.904 1.890 0.761" stroke="hsl(120.0,100%,35%)" stroke-width="0.00183"></path>
<path d="M1.679 0.962 Q2.287 0.555 1.626 0.169" stroke="hsl(120.0,100%,35%)" stroke-width="0.00061"></path>
<path d="M1.679 0.962 Q1.481 0.316 0.177 0.271" stroke="hsl(120.0,100%,35%)" stroke-width="0.00061"></path>
<path d="M1.942 0.279 Q1.856 0.340 1.956 0.395" stroke="hsl(120.0,100%,35%)" stroke-width="0.01403"></path>
<path d="M1.942 0.279 Q0.958 0.199 0.586 0.661" stroke="hsl(120.0,100%,35%)" stroke-width="0.00122"></path>
<path d="M1.942 0.279 Q1.232 0.199 0.920 0.528" stroke="hsl(120.0,100%,35%)" stroke-width="0.00244"></path>
<path d="M1.942 0.279 Q1.264 0.568 1.679 0.962" stroke="hsl(120.0,100%,35%)" stroke-width="0.00122"></path>
<path d="M1.942 0.279 Q1.456 0.061 0.924 0.250" stroke="hsl(120.0,100%,35%)" stroke-width="0.00061"></path>
<path d="M1.942 0.279 Q1.531 0.510 1.890 0.761" stroke="hsl(120.0,100%,35%)" stroke-width="0.00549"></path>
<path d="M1.942 0.279 Q0.919 -0.028 0.095 0.403" stroke="hsl(120.0,100%,35%)" stroke-width="0.00061"></path>
<path d="M1.942 0.279 Q0.779 0.189 0.348 0.736" stroke="hsl(120.0,100%,35%)" stroke-width="0.00061"></path>
<path d="M1.942 0.279 Q1.544 0.230 1.360 0.413" stroke="hsl(120.0,100%,35%)" stroke-width="0.00122"></path>
<path d="M1.942 0.279 Q1.901 0.210 1.757 0.215" stroke="hsl(120.0,100%,35%)" stroke-width="0.00061"></path>
<path d="M0.738 0.421 Q0.955 0.298 0.761 0.164" stroke="hsl(120.0,100%,35%)" stroke-width="0.00732"></path>
<path d="M0.738 0.421 Q0.956 0.874 1.886 0.867" stroke="hsl(120.0,100%,35%)" stroke-width="0.00732"></path>
<path d="M0.738 0.421 Q0.968 0.373 0.924 0.250" stroke="hsl(120.0,100%,35%)" stroke-width="0.00183"></path>
<path d="M0.738 0.421 Q0.291 0.501 0.348 0.736" stroke="hsl(120.0,100%,35%)" stroke-width="0.00122"></path>
<path d="M0.738 0.421 Q0.578 0.234 0.177 0.271" stroke="hsl(120.0,100%,35%)" stroke-width="0.00122"></path>
<path d="M0.738 0.421 Q1.042 0.822 1.890 0.761" stroke="hsl(120.0,100%,35%)" stroke-width="0.00305"></path>
<path d="M0.738 0.421 Q0.906 0.465 1.028 0.392" stroke="hsl(120.0,100%,35%)" stroke-width="0.00122"></path>
<path d="M0.738 0.421 Q0.974 0.694 1.557 0.638" stroke="hsl(120.0,100%,35%)" stroke-width="0.00183"></path>
<path d="M1.890 0.761 Q2.023 0.280 1.114 0.110" stroke="hsl(120.0,100%,35%)" stroke-width="0.00061"></path>
<path d="M1.890 0.761 Q1.815 0.312 0.924 0.250" stroke="hsl(120.0,100%,35%)" stroke-width="0.00427"></path>
<path d="M1.890 0.761 Q1.279 0.223 0.095 0.403" stroke="hsl(120.0,100%,35%)" stroke-width="0.00305"></path>
<path d="M1.890 0.761 Q1.822 0.633 1.557 0.638" stroke="hsl(120.0,100%,35%)" stroke-width="0.00183"></path>
<path d="M1.890 0.761 Q1.804 0.813 1.886 0.867" stroke="hsl(120.0,100%,35%)" stroke-width="0.00549"></path>
<path d="M1.890 0.761 Q1.592 0.450 0.920 0.528" stroke="hsl(120.0,100%,35%)" stroke-width="0.00061"></path>
<path d="M1.890 0.761 Q1.754 0.404 1.028 0.392" stroke="hsl(120.0,100%,35%)" stroke-width="0.00366"></path>
<path d="M1.890 0.761 Q1.623 0.819 1.679 0.962" stroke="hsl(120.0,100%,35%)" stroke-width="0.00122"></path>
<path d="M1.890 0.761 Q1.318 0.450 0.586 0.661" stroke="hsl(120.0,100%,35%)" stroke-width="0.00122"></path>
<path d="M1.890 0.761 Q2.301 0.530 1.942 0.279" stroke="hsl(120.0,100%,35%)" stroke-width="0.00122"></path>
<path d="M1.890 0.761 Q1.754 0.734 1.671 0.794" stroke="hsl(120.0,100%,35%)" stroke-width="0.00244"></path>
<path d="M1.890 0.761 Q1.803 0.237 0.761 0.164" stroke="hsl(120.0,100%,35%)" stroke-width="0.00244"></path>
<path d="M1.890 0.761 Q1.205 0.275 0.107 0.503" stroke="hsl(120.0,100%,35%)" stroke-width="0.00061"></path>
<path d="M1.890 0.761 Q1.139 0.440 0.348 0.736" stroke="hsl(120.0,100%,35%)" stroke-width="0.00122"></path>
<path d="M1.890 0.761 Q1.586 0.361 0.738 0.421" stroke="hsl(120.0,100%,35%)" stroke-width="0.00061"></path>
<path d="M0.177 0.271 Q0.030 0.321 0.095 0.403" stroke="hsl(120.0,100%,35%)" stroke-width="0.02439"></path>
<path d="M0.177 0.271 Q0.876 0.609 1.689 0.342" stroke="hsl(120.0,100%,35%)" stroke-width="0.00427"></path>
<path d="M0.177 0.271 Q0.555 0.911 1.886 0.867" stroke="hsl(120.0,100%,35%)" stroke-width="0.00061"></path>
<path d="M0.177 0.271 Q0.685 0.665 1.566 0.504" stroke="hsl(120.0,100%,35%)" stroke-width="0.00061"></path>
<path d="M0.177 0.271 Q0.642 0.859 1.890 0.761" stroke="hsl(120.0,100%,35%)" stroke-width="0.00061"></path>
<path d="M0.177 0.271 Q-0.044 0.373 0.107 0.503" stroke="hsl(120.0,100%,35%)" stroke-width="0.00061"></path>
<path d="M0.177 0.271 Q0.567 0.410 0.924 0.250" stroke="hsl(120.0,100%,35%)" stroke-width="0.00061"></path>
<path d="M1.778 0.110 Q1.747 0.043 1.610 0.044" stroke="hsl(120.0,100%,35%)" stroke-width="0.00610"></path>
<path d="M1.778 0.110 Q1.313 0.458 1.890 0.761" stroke="hsl(120.0,100%,35%)" stroke-width="0.00122"></path>
<path d="M1.778 0.110 Q1.655 0.109 1.626 0.169" stroke="hsl(120.0,100%,35%)" stroke-width="0.00061"></path>
<path d="M0.629 0.556 Q0.791 0.510 0.738 0.421" stroke="hsl(120.0,100%,35%)" stroke-width="0.02866"></path>
<path d="M0.629 0.556 Q1.009 0.963 1.886 0.867" stroke="hsl(120.0,100%,35%)" stroke-width="0.00366"></path>
<path d="M0.629 0.556 Q0.484 0.373 0.095 0.403" stroke="hsl(120.0,100%,35%)" stroke-width="0.02622"></path>
<path d="M0.629 0.556 Q0.344 0.590 0.348 0.736" stroke="hsl(120.0,100%,35%)" stroke-width="0.00061"></path>
<path d="M0.629 0.556 Q0.689 0.932 1.435 0.985" stroke="hsl(120.0,100%,35%)" stroke-width="0.00061"></path>
<path d="M0.629 0.556 Q1.096 0.911 1.890 0.761" stroke="hsl(120.0,100%,35%)" stroke-width="0.00793"></path>
<path d="M0.629 0.556 Q0.523 0.600 0.586 0.661" stroke="hsl(120.0,100%,35%)" stroke-width="0.00732"></path>
<path d="M0.629 0.556 Q0.755 0.410 0.498 0.316" stroke="hsl(120.0,100%,35%)" stroke-width="0.00305"></path>
<path d="M0.629 0.556 Q1.008 0.387 0.761 0.164" stroke="hsl(120.0,100%,35%)" stroke-width="0.00061"></path>
<path d="M0.629 0.556 Q0.959 0.554 1.028 0.392" stroke="hsl(120.0,100%,35%)" stroke-width="0.00122"></path>
<path d="M0.629 0.556 Q1.021 0.462 0.924 0.250" stroke="hsl(120.0,100%,35%)" stroke-width="0.00061"></path>
<path d="M1.028 0.392 Q0.865 0.439 0.920 0.528" stroke="hsl(0.0,100%,35%)" stroke-width="0.00976"></path>
<path d="M1.028 0.392 Q1.028 0.722 1.671 0.794" stroke="hsl(0.0,100%,35%)" stroke-width="0.00061"></path>
<path d="M1.028 0.392 Q1.078 0.801 1.886 0.867" stroke="hsl(0.0,100%,35%)" stroke-width="0.00122"></path>
<path d="M1.028 0.392 Q1.089 0.301 0.924 0.250" stroke="hsl(0.0,100%,35%)" stroke-width="0.01891"></path>
<path d="M1.028 0.392 Q0.883 0.603 1.262 0.720" stroke="hsl(0.0,100%,35%)" stroke-width="0.00183"></path>
<path d="M1.028 0.392 Q0.801 0.555 1.070 0.702" stroke="hsl(0.0,100%,35%)" stroke-width="0.00061"></path>
<path d="M1.028 0.392 Q1.164 0.749 1.890 0.761" stroke="hsl(0.0,100%,35%)" stroke-width="0.00183"></path>
<path d="M1.028 0.392 Q0.413 0.428 0.348 0.736" stroke="hsl(0.0,100%,35%)" stroke-width="0.00183"></path>
<path d="M1.423 0.100 Q1.171 0.331 1.566 0.504" stroke="hsl(120.0,100%,35%)" stroke-width="0.00061"></path>
<path d="M1.423 0.100 Q1.593 0.176 1.778 0.110" stroke="hsl(120.0,100%,35%)" stroke-width="0.00122"></path>
<path d="M1.423 0.100 Q1.128 0.524 1.890 0.761" stroke="hsl(120.0,100%,35%)" stroke-width="0.00061"></path>
<path d="M1.070 0.702 Q0.860 0.585 0.586 0.661" stroke="hsl(0.0,100%,35%)" stroke-width="0.00305"></path>
<path d="M1.070 0.702 Q1.844 0.665 1.942 0.279" stroke="hsl(0.0,100%,35%)" stroke-width="0.00183"></path>
<path d="M1.070 0.702 Q0.830 0.671 0.718 0.782" stroke="hsl(0.0,100%,35%)" stroke-width="0.00061"></path>
<path d="M1.070 0.702 Q1.296 0.539 1.028 0.392" stroke="hsl(0.0,100%,35%)" stroke-width="0.00427"></path>
<path d="M1.070 0.702 Q1.358 0.447 0.924 0.250" stroke="hsl(0.0,100%,35%)" stroke-width="0.00183"></path>
<path d="M1.070 0.702 Q1.151 0.749 1.262 0.720" stroke="hsl(0.0,100%,35%)" stroke-width="0.00244"></path>
<path d="M1.070 0.702 Q0.956 0.647 0.824 0.691" stroke="hsl(0.0,100%,35%)" stroke-width="0.00061"></path>
<path d="M1.070 0.702 Q1.104 0.673 1.055 0.650" stroke="hsl(0.0,100%,35%)" stroke-width="0.00061"></path>
<path d="M1.393 0.206 Q1.111 0.635 1.886 0.867" stroke="hsl(120.0,100%,35%)" stroke-width="0.00061"></path>
<path d="M1.393 0.206 Q0.446 0.262 0.348 0.736" stroke="hsl(120.0,100%,35%)" stroke-width="0.00061"></path>
<path d="M1.393 0.206 Q1.372 0.169 1.297 0.172" stroke="hsl(120.0,100%,35%)" stroke-width="0.00061"></path>
<path d="M1.566 0.504 Q1.757 0.448 1.689 0.342" stroke="hsl(120.0,100%,35%)" stroke-width="0.00854"></path>
<path d="M1.566 0.504 Q0.911 0.160 0.095 0.403" stroke="hsl(120.0,100%,35%)" stroke-width="0.01342"></path>
<path d="M1.566 0.504 Q0.837 0.212 0.107 0.503" stroke="hsl(120.0,100%,35%)" stroke-width="0.00183"></path>
<path d="M1.566 0.504 Q1.218 0.297 0.738 0.421" stroke="hsl(120.0,100%,35%)" stroke-width="0.00061"></path>
<path d="M1.566 0.504 Q1.523 0.697 1.890 0.761" stroke="hsl(120.0,100%,35%)" stroke-width="0.00061"></path>
<path d="M1.566 0.504 Q1.445 0.455 1.323 0.503" stroke="hsl(120.0,100%,35%)" stroke-width="0.00061"></path>
<path d="M1.566 0.504 Q1.058 0.110 0.177 0.271" stroke="hsl(120.0,100%,35%)" stroke-width="0.00061"></path>
<path d="M1.566 0.504 Q1.448 0.249 0.924 0.250" stroke="hsl(120.0,100%,35%)" stroke-width="0.00183"></path>
<path d="M1.566 0.504 Q0.771 0.377 0.348 0.736" stroke="hsl(120.0,100%,35%)" stroke-width="0.00061"></path>
<path d="M1.566 0.504 Q1.256 0.756 1.679 0.962" stroke="hsl(120.0,100%,35%)" stroke-width="0.00061"></path>
<path d="M1.566 0.504 Q1.046 0.449 0.824 0.691" stroke="hsl(120.0,100%,35%)" stroke-width="0.00061"></path>
<path d="M0.312 0.415 Q0.213 0.366 0.095 0.403" stroke="hsl(120.0,100%,35%)" stroke-width="0.00061"></path>
<path d="M0.312 0.415 Q0.520 0.503 0.738 0.421" stroke="hsl(120.0,100%,35%)" stroke-width="0.00061"></path>
<path d="M0.312 0.415 Q0.417 0.925 1.435 0.985" stroke="hsl(120.0,100%,35%)" stroke-width="0.00061"></path>
<path d="M0.865 0.988 Q0.957 0.855 0.718 0.782" stroke="hsl(120.0,100%,35%)" stroke-width="0.00244"></path>
<path d="M0.865 0.988 Q1.255 0.679 0.738 0.421" stroke="hsl(120.0,100%,35%)" stroke-width="0.00061"></path>
<path d="M0.865 0.988 Q1.618 0.513 0.857 0.042" stroke="hsl(120.0,100%,35%)" stroke-width="0.00122"></path>
<path d="M0.865 0.988 Q1.292 1.138 1.679 0.962" stroke="hsl(120.0,100%,35%)" stroke-width="0.00061"></path>
<path d="M0.865 0.988 Q0.774 0.849 0.484 0.863" stroke="hsl(120.0,100%,35%)" stroke-width="0.00061"></path>
<path d="M0.865 0.988 Q0.808 0.758 0.348 0.736" stroke="hsl(120.0,100%,35%)" stroke-width="0.00061"></path>
<path d="M0.865 0.988 Q0.840 0.937 0.736 0.938" stroke="hsl(120.0,100%,35%)" stroke-width="0.00061"></path>
<path d="M1.557 0.638 Q1.489 0.409 1.028 0.392" stroke="hsl(120.0,100%,35%)" stroke-width="0.00915"></path>
<path d="M1.557 0.638 Q1.539 0.818 1.886 0.867" stroke="hsl(120.0,100%,35%)" stroke-width="0.00610"></path>
<path d="M1.557 0.638 Q2.037 0.536 1.942 0.279" stroke="hsl(120.0,100%,35%)" stroke-width="0.00061"></path>
<path d="M1.557 0.638 Q1.490 0.739 1.671 0.794" stroke="hsl(120.0,100%,35%)" stroke-width="0.00549"></path>
<path d="M1.557 0.638 Q1.626 0.766 1.890 0.761" stroke="hsl(120.0,100%,35%)" stroke-width="0.00610"></path>
<path d="M1.557 0.638 Q1.321 0.366 0.738 0.421" stroke="hsl(120.0,100%,35%)" stroke-width="0.00122"></path>
<path d="M1.557 0.638 Q1.359 0.825 1.679 0.962" stroke="hsl(120.0,100%,35%)" stroke-width="0.00122"></path>
<path d="M1.557 0.638 Q0.874 0.445 0.348 0.736" stroke="hsl(120.0,100%,35%)" stroke-width="0.00061"></path>
<path d="M1.557 0.638 Q1.053 0.456 0.586 0.661" stroke="hsl(120.0,100%,35%)" stroke-width="0.00061"></path>
<path d="M1.191 0.255 Q0.533 0.424 0.718 0.782" stroke="hsl(0.0,100%,35%)" stroke-width="0.00061"></path>
<path d="M1.191 0.255 Q1.061 0.199 0.924 0.250" stroke="hsl(0.0,100%,35%)" stroke-width="0.00305"></path>
<path d="M1.191 0.255 Q1.049 0.700 1.886 0.867" stroke="hsl(0.0,100%,35%)" stroke-width="0.00061"></path>
<path d="M1.191 0.255 Q0.831 0.248 0.738 0.421" stroke="hsl(0.0,100%,35%)" stroke-width="0.00061"></path>
<path d="M1.191 0.255 Q0.999 0.291 1.028 0.392" stroke="hsl(0.0,100%,35%)" stroke-width="0.00061"></path>
<path d="M1.801 0.573 Q1.559 0.328 1.028 0.392" stroke="hsl(120.0,100%,35%)" stroke-width="0.00061"></path>
<path d="M1.801 0.573 Q1.608 0.161 0.761 0.164" stroke="hsl(120.0,100%,35%)" stroke-width="0.00061"></path>
<path d="M1.801 0.573 Q1.695 0.685 1.890 0.761" stroke="hsl(120.0,100%,35%)" stroke-width="0.00061"></path>
<path d="M1.511 0.884 Q1.392 0.919 1.435 0.985" stroke="hsl(120.0,100%,35%)" stroke-width="0.00061"></path>
<path d="M1.511 0.884 Q1.713 0.951 1.886 0.867" stroke="hsl(120.0,100%,35%)" stroke-width="0.00061"></path>
<path d="M1.511 0.884 Q1.532 0.957 1.679 0.962" stroke="hsl(120.0,100%,35%)" stroke-width="0.00122"></path>
<path d="M1.511 0.884 Q2.264 0.550 1.778 0.110" stroke="hsl(120.0,100%,35%)" stroke-width="0.00061"></path>
<path d="M1.511 0.884 Q1.712 0.374 0.761 0.164" stroke="hsl(120.0,100%,35%)" stroke-width="0.00122"></path>
<path d="M1.114 0.110 Q0.714 0.649 1.679 0.962" stroke="hsl(120.0,100%,35%)" stroke-width="0.00122"></path>
<path d="M1.114 0.110 Q0.517 0.003 0.177 0.271" stroke="hsl(120.0,100%,35%)" stroke-width="0.00122"></path>
<path d="M1.114 0.110 Q0.906 0.142 0.924 0.250" stroke="hsl(120.0,100%,35%)" stroke-width="0.00061"></path>
<path d="M1.114 0.110 Q0.677 0.190 0.738 0.421" stroke="hsl(120.0,100%,35%)" stroke-width="0.00122"></path>
<path d="M1.114 0.110 Q1.040 0.025 0.857 0.042" stroke="hsl(120.0,100%,35%)" stroke-width="0.00244"></path>
<path d="M1.114 0.110 Q1.033 0.160 1.113 0.210" stroke="hsl(120.0,100%,35%)" stroke-width="0.00366"></path>
<path d="M1.114 0.110 Q1.392 0.360 1.942 0.279" stroke="hsl(120.0,100%,35%)" stroke-width="0.00061"></path>
<path d="M1.114 0.110 Q0.981 0.591 1.890 0.761" stroke="hsl(120.0,100%,35%)" stroke-width="0.00244"></path>
<path d="M0.303 0.129 Q0.393 0.177 0.507 0.143" stroke="hsl(0.0,100%,35%)" stroke-width="0.01159"></path>
<path d="M0.303 0.129 Q0.454 0.406 1.028 0.392" stroke="hsl(0.0,100%,35%)" stroke-width="0.00122"></path>
<path d="M0.303 0.129 Q0.724 0.282 1.114 0.110" stroke="hsl(0.0,100%,35%)" stroke-width="0.00061"></path>
<path d="M0.303 0.129 Q-0.161 0.441 0.348 0.736" stroke="hsl(0.0,100%,35%)" stroke-width="0.00122"></path>
<path d="M0.303 0.129 Q0.114 0.514 0.824 0.691" stroke="hsl(0.0,100%,35%)" stroke-width="0.00061"></path>
<path d="M0.303 0.129 Q0.018 0.452 0.586 0.661" stroke="hsl(0.0,100%,35%)" stroke-width="0.00183"></path>
<path d="M0.303 0.129 Q0.504 0.814 1.886 0.867" stroke="hsl(0.0,100%,35%)" stroke-width="0.00061"></path>
<path d="M0.303 0.129 Q0.515 0.135 0.574 0.033" stroke="hsl(0.0,100%,35%)" stroke-width="0.00305"></path>
<path d="M0.303 0.129 Q0.286 0.362 0.738 0.421" stroke="hsl(0.0,100%,35%)" stroke-width="0.00061"></path>
<path d="M0.303 0.129 Q-0.012 0.538 0.718 0.782" stroke="hsl(0.0,100%,35%)" stroke-width="0.00061"></path>
<path d="M0.303 0.129 Q0.250 0.261 0.498 0.316" stroke="hsl(0.0,100%,35%)" stroke-width="0.00061"></path>
<path d="M0.303 0.129 Q0.124 0.408 0.629 0.556" stroke="hsl(0.0,100%,35%)" stroke-width="0.00061"></path>
<path d="M0.303 0.129 Q0.516 0.314 0.924 0.250" stroke="hsl(0.0,100%,35%)" stroke-width="0.00305"></path>
<path d="M0.303 0.129 Q0.292 0.452 0.920 0.528" stroke="hsl(0.0,100%,35%)" stroke-width="0.00122"></path>
<path d="M0.303 0.129 Q-0.021 0.225 0.095 0.403" stroke="hsl(0.0,100%,35%)" stroke-width="0.00122"></path>
<path d="M0.498 0.316 Q0.373 0.229 0.177 0.271" stroke="hsl(120.0,100%,35%)" stroke-width="0.00366"></path>
<path d="M0.498 0.316 Q0.227 0.279 0.095 0.403" stroke="hsl(120.0,100%,35%)" stroke-width="0.00244"></path>
<path d="M0.498 0.316 Q0.235 0.593 0.718 0.782" stroke="hsl(120.0,100%,35%)" stroke-width="0.00061"></path>
<path d="M0.498 0.316 Q0.361 0.569 0.824 0.691" stroke="hsl(120.0,100%,35%)" stroke-width="0.00061"></path>
<path d="M0.498 0.316 Q0.838 0.817 1.890 0.761" stroke="hsl(120.0,100%,35%)" stroke-width="0.00122"></path>
<path d="M0.498 0.316 Q0.751 0.293 0.761 0.164" stroke="hsl(120.0,100%,35%)" stroke-width="0.00061"></path>
<path d="M0.498 0.316 Q0.265 0.506 0.586 0.661" stroke="hsl(120.0,100%,35%)" stroke-width="0.00061"></path>
<path d="M0.498 0.316 Q0.371 0.462 0.629 0.556" stroke="hsl(120.0,100%,35%)" stroke-width="0.00244"></path>
<path d="M0.498 0.316 Q0.533 0.417 0.738 0.421" stroke="hsl(120.0,100%,35%)" stroke-width="0.00183"></path>
<path d="M0.498 0.316 Q0.881 0.624 1.566 0.504" stroke="hsl(120.0,100%,35%)" stroke-width="0.00061"></path>
<path d="M0.498 0.316 Q0.702 0.790 1.671 0.794" stroke="hsl(120.0,100%,35%)" stroke-width="0.00061"></path>
<path d="M1.113 0.210 Q1.194 0.160 1.114 0.110" stroke="hsl(120.0,100%,35%)" stroke-width="0.00366"></path>
<path d="M1.113 0.210 Q1.119 0.075 0.857 0.042" stroke="hsl(120.0,100%,35%)" stroke-width="0.00122"></path>
<path d="M1.113 0.210 Q1.386 0.471 1.956 0.395" stroke="hsl(120.0,100%,35%)" stroke-width="0.00183"></path>
<path d="M0.909 0.141 Q1.036 0.166 1.114 0.110" stroke="hsl(120.0,100%,35%)" stroke-width="0.00122"></path>
<path d="M0.909 0.141 Q1.368 0.299 1.778 0.110" stroke="hsl(120.0,100%,35%)" stroke-width="0.00061"></path>
<path d="M0.909 0.141 Q0.637 0.705 1.679 0.962" stroke="hsl(120.0,100%,35%)" stroke-width="0.00061"></path>
<path d="M1.311 0.980 Q1.702 0.538 0.924 0.250" stroke="hsl(120.0,100%,35%)" stroke-width="0.00061"></path>
<path d="M1.311 0.980 Q1.165 0.449 0.095 0.403" stroke="hsl(120.0,100%,35%)" stroke-width="0.00061"></path>
<path d="M1.311 0.980 Q1.776 0.986 1.890 0.761" stroke="hsl(120.0,100%,35%)" stroke-width="0.00061"></path>
<path d="M1.311 0.980 Q1.509 1.045 1.679 0.962" stroke="hsl(120.0,100%,35%)" stroke-width="0.00061"></path>
<path d="M1.311 0.980 Q1.690 1.039 1.886 0.867" stroke="hsl(120.0,100%,35%)" stroke-width="0.00061"></path>
<path d="M0.987 0.767 Q0.692 0.624 0.348 0.736" stroke="hsl(0.0,100%,35%)" stroke-width="0.00061"></path>
<path d="M0.987 0.767 Q1.308 0.588 1.028 0.392" stroke="hsl(0.0,100%,35%)" stroke-width="0.00061"></path>
<path d="M0.987 0.767 Q1.444 0.945 1.890 0.761" stroke="hsl(0.0,100%,35%)" stroke-width="0.00061"></path>
<path d="M1.287 0.868 Q1.101 0.624 0.586 0.661" stroke="hsl(240.0,100%,35%)" stroke-width="0.00244"></path>
<path d="M1.287 0.868 Q1.110 0.828 0.993 0.905" stroke="hsl(240.0,100%,35%)" stroke-width="0.01647"></path>
<path d="M1.287 0.868 Q1.375 0.624 0.920 0.528" stroke="hsl(240.0,100%,35%)" stroke-width="0.00061"></path>
<path d="M1.287 0.868 Q1.370 0.535 0.738 0.421" stroke="hsl(240.0,100%,35%)" stroke-width="0.00061"></path>
<path d="M1.287 0.868 Q1.538 0.908 1.671 0.794" stroke="hsl(240.0,100%,35%)" stroke-width="0.00061"></path>
<path d="M1.466 0.794 Q1.132 0.552 0.586 0.661" stroke="hsl(120.0,100%,35%)" stroke-width="0.00122"></path>
<path d="M1.466 0.794 Q1.569 0.835 1.671 0.794" stroke="hsl(120.0,100%,35%)" stroke-width="0.00122"></path>
<path d="M1.466 0.794 Q2.116 0.632 1.942 0.279" stroke="hsl(120.0,100%,35%)" stroke-width="0.00061"></path>
<path d="M1.466 0.794 Q1.093 0.324 0.095 0.403" stroke="hsl(120.0,100%,35%)" stroke-width="0.00061"></path>
<path d="M1.466 0.794 Q2.170 0.514 1.778 0.110" stroke="hsl(120.0,100%,35%)" stroke-width="0.00061"></path>
<path d="M1.466 0.794 Q1.400 0.462 0.738 0.421" stroke="hsl(120.0,100%,35%)" stroke-width="0.00061"></path>
<path d="M0.348 0.569 Q0.829 0.617 1.028 0.392" stroke="hsl(0.0,100%,35%)" stroke-width="0.00061"></path>
<path d="M0.348 0.569 Q1.098 0.493 1.114 0.110" stroke="hsl(0.0,100%,35%)" stroke-width="0.00061"></path>
<path d="M0.348 0.569 Q0.393 0.663 0.586 0.661" stroke="hsl(0.0,100%,35%)" stroke-width="0.00305"></path>
<path d="M0.348 0.569 Q0.363 0.750 0.718 0.782" stroke="hsl(0.0,100%,35%)" stroke-width="0.00244"></path>
<path d="M0.348 0.569 Q0.891 0.525 0.924 0.250" stroke="hsl(0.0,100%,35%)" stroke-width="0.00244"></path>
<path d="M0.348 0.569 Q0.214 0.653 0.348 0.736" stroke="hsl(0.0,100%,35%)" stroke-width="0.00061"></path>
<path d="M0.348 0.569 Q0.879 1.026 1.886 0.867" stroke="hsl(0.0,100%,35%)" stroke-width="0.00122"></path>
<path d="M0.348 0.569 Q0.667 0.663 0.920 0.528" stroke="hsl(0.0,100%,35%)" stroke-width="0.00244"></path>
<path d="M0.348 0.569 Q0.661 0.573 0.738 0.421" stroke="hsl(0.0,100%,35%)" stroke-width="0.00183"></path>
<path d="M0.348 0.569 Q0.354 0.436 0.095 0.403" stroke="hsl(0.0,100%,35%)" stroke-width="0.00122"></path>
<path d="M0.348 0.569 Q0.499 0.619 0.629 0.556" stroke="hsl(0.0,100%,35%)" stroke-width="0.00061"></path>
<path d="M0.348 0.569 Q0.966 0.974 1.890 0.761" stroke="hsl(0.0,100%,35%)" stroke-width="0.00122"></path>
<path d="M0.348 0.569 Q0.684 0.827 1.262 0.720" stroke="hsl(0.0,100%,35%)" stroke-width="0.00061"></path>
<path d="M0.348 0.569 Q0.829 0.946 1.671 0.794" stroke="hsl(0.0,100%,35%)" stroke-width="0.00061"></path>
</g>
<text x="0.824" y="0.675" font-size="0.031134" fill="hsl(0.0,100%,20%)">ahaas</text>
<text x="0.920" y="0.504" font-size="0.047557" fill="hsl(0.0,100%,20%)">mliedtke</text>
<text x="0.348" y="0.715" font-size="0.042346" fill="hsl(0.0,100%,20%)">jkummerow</text>
<text x="1.262" y="0.704" font-size="0.030873" fill="hsl(0.0,100%,20%)">manoskouk</text>
<text x="0.586" y="0.637" font-size="0.048399" fill="hsl(0.0,100%,20%)">clemensb</text>
<text x="1.671" y="0.778" font-size="0.033144" fill="hsl(120.0,100%,20%)">victorgomes</text>
<text x="0.095" y="0.377" font-size="0.051786" fill="hsl(120.0,100%,20%)">mlippautz</text>
<text x="0.718" y="0.764" font-size="0.034809" fill="hsl(0.0,100%,20%)">thibaudm</text>
<text x="1.435" y="0.976" font-size="0.018419" fill="hsl(120.0,100%,20%)">marja</text>
<text x="1.360" y="0.403" font-size="0.020885" fill="hsl(0.0,100%,20%)">evih</text>
<text x="0.761" y="0.151" font-size="0.027555" fill="hsl(120.0,100%,20%)">pthier</text>
<text x="0.924" y="0.227" font-size="0.046179" fill="hsl(0.0,100%,20%)">nicohartmann</text>
<text x="1.470" y="0.887" font-size="0.011368" fill="hsl(120.0,100%,20%)">carlscab</text>
<text x="1.886" y="0.847" font-size="0.038552" fill="hsl(120.0,100%,20%)">verwaest</text>
<text x="1.679" y="0.949" font-size="0.026661" fill="hsl(120.0,100%,20%)">cbruni</text>
<text x="1.942" y="0.264" font-size="0.031134" fill="hsl(120.0,100%,20%)">machenbach</text>
<text x="0.738" y="0.399" font-size="0.044757" fill="hsl(120.0,100%,20%)">ishell</text>
<text x="1.890" y="0.736" font-size="0.050040" fill="hsl(120.0,100%,20%)">leszeks</text>
<text x="1.626" y="0.166" font-size="0.005684" fill="hsl(120.0,100%,20%)">pfaffe</text>
<text x="0.177" y="0.253" font-size="0.036174" fill="hsl(120.0,100%,20%)">dinfuehr</text>
<text x="1.778" y="0.101" font-size="0.017520" fill="hsl(120.0,100%,20%)">szuend</text>
<text x="0.629" y="0.532" font-size="0.048399" fill="hsl(120.0,100%,20%)">saelo</text>
<text x="1.689" y="0.332" font-size="0.020495" fill="hsl(120.0,100%,20%)">omerkatz</text>
<text x="1.028" y="0.367" font-size="0.049716" fill="hsl(0.0,100%,20%)">dmercadier</text>
<text x="1.423" y="0.096" font-size="0.008988" fill="hsl(120.0,100%,20%)">leese</text>
<text x="0.107" y="0.497" font-size="0.011368" fill="hsl(120.0,100%,20%)">bikineev</text>
<text x="1.070" y="0.691" font-size="0.022015" fill="hsl(0.0,100%,20%)">dlehmann</text>
<text x="1.393" y="0.202" font-size="0.006962" fill="hsl(120.0,100%,20%)">dcheng</text>
<text x="1.297" y="0.170" font-size="0.004019" fill="hsl(120.0,100%,20%)">ecmziegler</text>
<text x="1.566" y="0.489" font-size="0.029808" fill="hsl(120.0,100%,20%)">nikolaos</text>
<text x="1.055" y="0.648" font-size="0.004019" fill="hsl(0.0,100%,20%)">hao.a.xu</text>
<text x="0.312" y="0.411" font-size="0.006962" fill="hsl(120.0,100%,20%)">emromero</text>
<text x="0.865" y="0.981" font-size="0.013331" fill="hsl(120.0,100%,20%)">fgm</text>
<text x="0.857" y="0.036" font-size="0.011368" fill="hsl(120.0,100%,20%)">adamk</text>
<text x="0.484" y="0.860" font-size="0.005684" fill="hsl(0.0,100%,20%)">gdeepti</text>
<text x="0.736" y="0.936" font-size="0.004019" fill="hsl(120.0,100%,20%)">irezvov</text>
<text x="1.557" y="0.623" font-size="0.031648" fill="hsl(120.0,100%,20%)">olivf</text>
<text x="1.191" y="0.249" font-size="0.012058" fill="hsl(0.0,100%,20%)">jianxiao.lu</text>
<text x="1.801" y="0.570" font-size="0.006962" fill="hsl(120.0,100%,20%)">jing.bao</text>
<text x="1.511" y="0.879" font-size="0.010634" fill="hsl(120.0,100%,20%)">joyee</text>
<text x="1.114" y="0.098" font-size="0.024449" fill="hsl(120.0,100%,20%)">syg</text>
<text x="1.956" y="0.384" font-size="0.020495" fill="hsl(120.0,100%,20%)">liviurau</text>
<text x="1.757" y="0.213" font-size="0.004019" fill="hsl(120.0,100%,20%)">hpayer</text>
<text x="0.303" y="0.115" font-size="0.027555" fill="hsl(0.0,100%,20%)">mfarazma</text>
<text x="0.507" y="0.134" font-size="0.017520" fill="hsl(0.0,100%,20%)">junyan</text>
<text x="0.574" y="0.029" font-size="0.008988" fill="hsl(0.0,100%,20%)">midawson</text>
<text x="0.498" y="0.305" font-size="0.022379" fill="hsl(120.0,100%,20%)">sroettger</text>
<text x="1.323" y="0.501" font-size="0.004019" fill="hsl(120.0,100%,20%)">yangguo</text>
<text x="1.113" y="0.202" font-size="0.016572" fill="hsl(120.0,100%,20%)">rezvan</text>
<text x="0.909" y="0.137" font-size="0.008039" fill="hsl(120.0,100%,20%)">seokho</text>
<text x="1.311" y="0.976" font-size="0.008988" fill="hsl(120.0,100%,20%)">seth.brenith</text>
<text x="1.610" y="0.037" font-size="0.012710" fill="hsl(120.0,100%,20%)">bmeurer</text>
<text x="0.987" y="0.764" font-size="0.006962" fill="hsl(0.0,100%,20%)">tao.pan</text>
<text x="1.287" y="0.856" font-size="0.023437" fill="hsl(240.0,100%,20%)">yahan</text>
<text x="0.993" y="0.895" font-size="0.020885" fill="hsl(240.0,100%,20%)">qiuji</text>
<text x="1.466" y="0.788" font-size="0.011368" fill="hsl(120.0,100%,20%)">zcbenz</text>
<text x="0.348" y="0.558" font-size="0.022737" fill="hsl(0.0,100%,20%)">zhaojiazhong-hf</text>
</svg>
