<svg width="4000" height="2000" viewBox="-0.025 -0.025 2.05 1.05" xmlns="http://www.w3.org/2000/svg">
  <style>
    path {
      fill: none;
      stroke-linecap: round;
      stroke-opacity: 0.4;
    }

    text {
      text-anchor: middle;
      alignment-baseline: hanging;
    }
  </style>
  <g opacity="0.4">
<path d="M0.666 0.937 Q0.426 0.819 0.143 0.910" stroke="hsl(0.0,100%,35%)" stroke-width="0.00304"></path>
<path d="M0.666 0.937 Q1.334 0.694 1.006 0.314" stroke="hsl(0.0,100%,35%)" stroke-width="0.00304"></path>
<path d="M0.666 0.937 Q0.568 0.864 0.404 0.896" stroke="hsl(0.0,100%,35%)" stroke-width="0.00122"></path>
<path d="M0.666 0.937 Q1.301 1.021 1.604 0.730" stroke="hsl(0.0,100%,35%)" stroke-width="0.00061"></path>
<path d="M0.666 0.937 Q1.733 0.646 1.400 0.062" stroke="hsl(0.0,100%,35%)" stroke-width="0.00061"></path>
<path d="M0.666 0.937 Q1.462 1.005 1.770 0.632" stroke="hsl(0.0,100%,35%)" stroke-width="0.00122"></path>
<path d="M0.666 0.937 Q1.464 0.685 1.148 0.241" stroke="hsl(0.0,100%,35%)" stroke-width="0.00304"></path>
<path d="M0.666 0.937 Q0.935 0.984 1.086 0.863" stroke="hsl(0.0,100%,35%)" stroke-width="0.00061"></path>
<path d="M0.666 0.937 Q1.497 0.970 1.743 0.571" stroke="hsl(0.0,100%,35%)" stroke-width="0.00061"></path>
<path d="M0.666 0.937 Q1.504 0.604 1.037 0.122" stroke="hsl(0.0,100%,35%)" stroke-width="0.00061"></path>
<path d="M0.666 0.937 Q1.333 0.616 0.853 0.220" stroke="hsl(0.0,100%,35%)" stroke-width="0.00061"></path>
<path d="M0.143 0.910 Q1.050 0.707 0.853 0.220" stroke="hsl(0.0,100%,35%)" stroke-width="0.00304"></path>
<path d="M0.143 0.910 Q0.215 0.873 0.159 0.829" stroke="hsl(0.0,100%,35%)" stroke-width="0.00061"></path>
<path d="M0.143 0.910 Q1.220 0.695 1.037 0.122" stroke="hsl(0.0,100%,35%)" stroke-width="0.00365"></path>
<path d="M0.143 0.910 Q0.284 0.955 0.404 0.896" stroke="hsl(0.0,100%,35%)" stroke-width="0.00487"></path>
<path d="M0.143 0.910 Q1.034 0.981 1.369 0.562" stroke="hsl(0.0,100%,35%)" stroke-width="0.00609"></path>
<path d="M0.143 0.910 Q0.382 1.028 0.666 0.937" stroke="hsl(0.0,100%,35%)" stroke-width="0.00426"></path>
<path d="M0.143 0.910 Q1.450 0.737 1.400 0.062" stroke="hsl(0.0,100%,35%)" stroke-width="0.00061"></path>
<path d="M0.143 0.910 Q1.181 0.776 1.148 0.241" stroke="hsl(0.0,100%,35%)" stroke-width="0.00061"></path>
<path d="M1.006 0.314 Q1.405 0.267 1.400 0.062" stroke="hsl(0.0,100%,35%)" stroke-width="0.00061"></path>
<path d="M1.006 0.314 Q1.136 0.306 1.148 0.241" stroke="hsl(0.0,100%,35%)" stroke-width="0.00548"></path>
<path d="M1.006 0.314 Q1.005 0.236 0.853 0.220" stroke="hsl(0.0,100%,35%)" stroke-width="0.00426"></path>
<path d="M0.404 0.896 Q0.263 0.851 0.143 0.910" stroke="hsl(0.0,100%,35%)" stroke-width="0.01035"></path>
<path d="M0.404 0.896 Q1.154 0.922 1.369 0.562" stroke="hsl(0.0,100%,35%)" stroke-width="0.00183"></path>
<path d="M0.404 0.896 Q0.745 1.123 1.263 1.007" stroke="hsl(0.0,100%,35%)" stroke-width="0.00122"></path>
<path d="M0.404 0.896 Q0.986 0.976 1.269 0.710" stroke="hsl(0.0,100%,35%)" stroke-width="0.00365"></path>
<path d="M0.404 0.896 Q0.502 0.969 0.666 0.937" stroke="hsl(0.0,100%,35%)" stroke-width="0.01218"></path>
<path d="M0.404 0.896 Q1.170 0.648 0.853 0.220" stroke="hsl(0.0,100%,35%)" stroke-width="0.00792"></path>
<path d="M0.404 0.896 Q0.950 0.467 0.231 0.106" stroke="hsl(0.0,100%,35%)" stroke-width="0.00122"></path>
<path d="M0.404 0.896 Q1.044 0.759 0.916 0.417" stroke="hsl(0.0,100%,35%)" stroke-width="0.00122"></path>
<path d="M0.404 0.896 Q1.340 0.636 1.037 0.122" stroke="hsl(0.0,100%,35%)" stroke-width="0.00122"></path>
<path d="M0.404 0.896 Q0.772 1.016 1.086 0.863" stroke="hsl(0.0,100%,35%)" stroke-width="0.00122"></path>
<path d="M0.404 0.896 Q1.383 0.904 1.613 0.428" stroke="hsl(0.0,100%,35%)" stroke-width="0.00183"></path>
<path d="M0.404 0.896 Q1.544 0.793 1.594 0.215" stroke="hsl(0.0,100%,35%)" stroke-width="0.00061"></path>
<path d="M0.404 0.896 Q1.278 1.129 1.924 0.754" stroke="hsl(0.0,100%,35%)" stroke-width="0.00061"></path>
<path d="M0.404 0.896 Q1.346 0.535 0.849 -0.003" stroke="hsl(0.0,100%,35%)" stroke-width="0.00061"></path>
<path d="M0.404 0.896 Q0.624 1.002 0.880 0.919" stroke="hsl(0.0,100%,35%)" stroke-width="0.00061"></path>
<path d="M0.404 0.896 Q1.570 0.678 1.400 0.062" stroke="hsl(0.0,100%,35%)" stroke-width="0.00183"></path>
<path d="M0.404 0.896 Q1.301 0.717 1.148 0.241" stroke="hsl(0.0,100%,35%)" stroke-width="0.00244"></path>
<path d="M0.404 0.896 Q1.399 0.570 0.981 0.013" stroke="hsl(0.0,100%,35%)" stroke-width="0.00061"></path>
<path d="M0.404 0.896 Q0.694 1.065 1.087 0.961" stroke="hsl(0.0,100%,35%)" stroke-width="0.00061"></path>
<path d="M0.404 0.896 Q1.137 1.053 1.604 0.730" stroke="hsl(0.0,100%,35%)" stroke-width="0.00061"></path>
<path d="M1.604 0.730 Q1.745 0.806 1.924 0.754" stroke="hsl(120.0,100%,35%)" stroke-width="0.00304"></path>
<path d="M1.604 0.730 Q2.109 0.537 1.842 0.248" stroke="hsl(120.0,100%,35%)" stroke-width="0.00122"></path>
<path d="M1.604 0.730 Q1.621 0.599 1.369 0.562" stroke="hsl(120.0,100%,35%)" stroke-width="0.00244"></path>
<path d="M1.604 0.730 Q1.801 0.678 1.743 0.571" stroke="hsl(120.0,100%,35%)" stroke-width="0.00304"></path>
<path d="M1.604 0.730 Q1.850 0.581 1.613 0.428" stroke="hsl(120.0,100%,35%)" stroke-width="0.00183"></path>
<path d="M1.604 0.730 Q2.159 0.426 1.688 0.089" stroke="hsl(120.0,100%,35%)" stroke-width="0.00061"></path>
<path d="M1.604 0.730 Q1.212 0.800 1.263 1.007" stroke="hsl(120.0,100%,35%)" stroke-width="0.00061"></path>
<path d="M1.400 0.062 Q1.374 0.177 1.594 0.215" stroke="hsl(0.0,100%,35%)" stroke-width="0.01218"></path>
<path d="M1.400 0.062 Q1.000 0.031 0.853 0.220" stroke="hsl(0.0,100%,35%)" stroke-width="0.00183"></path>
<path d="M1.400 0.062 Q1.131 0.101 1.148 0.241" stroke="hsl(0.0,100%,35%)" stroke-width="0.00487"></path>
<path d="M1.400 0.062 Q1.129 0.421 1.770 0.632" stroke="hsl(0.0,100%,35%)" stroke-width="0.00122"></path>
<path d="M1.400 0.062 Q0.234 0.280 0.404 0.896" stroke="hsl(0.0,100%,35%)" stroke-width="0.00061"></path>
<path d="M1.770 0.632 Q2.041 0.273 1.400 0.062" stroke="hsl(120.0,100%,35%)" stroke-width="0.00183"></path>
<path d="M1.770 0.632 Q1.216 0.718 1.263 1.007" stroke="hsl(120.0,100%,35%)" stroke-width="0.00122"></path>
<path d="M1.770 0.632 Q1.854 0.499 1.613 0.428" stroke="hsl(120.0,100%,35%)" stroke-width="0.00122"></path>
<path d="M1.770 0.632 Q1.805 0.596 1.743 0.571" stroke="hsl(120.0,100%,35%)" stroke-width="0.00183"></path>
<path d="M1.770 0.632 Q2.016 0.388 1.594 0.215" stroke="hsl(120.0,100%,35%)" stroke-width="0.00061"></path>
<path d="M1.770 0.632 Q2.163 0.344 1.688 0.089" stroke="hsl(120.0,100%,35%)" stroke-width="0.00061"></path>
<path d="M1.770 0.632 Q2.113 0.454 1.842 0.248" stroke="hsl(120.0,100%,35%)" stroke-width="0.00061"></path>
<path d="M1.770 0.632 Q1.641 0.242 0.853 0.220" stroke="hsl(120.0,100%,35%)" stroke-width="0.00061"></path>
<path d="M1.148 0.241 Q1.017 0.171 0.853 0.220" stroke="hsl(0.0,100%,35%)" stroke-width="0.00609"></path>
<path d="M1.148 0.241 Q0.892 0.282 0.916 0.417" stroke="hsl(0.0,100%,35%)" stroke-width="0.00122"></path>
<path d="M1.148 0.241 Q1.188 0.159 1.037 0.122" stroke="hsl(0.0,100%,35%)" stroke-width="0.00792"></path>
<path d="M1.148 0.241 Q1.230 0.427 1.613 0.428" stroke="hsl(0.0,100%,35%)" stroke-width="0.00061"></path>
<path d="M1.148 0.241 Q1.417 0.202 1.400 0.062" stroke="hsl(0.0,100%,35%)" stroke-width="0.01035"></path>
<path d="M1.148 0.241 Q1.392 0.317 1.594 0.215" stroke="hsl(0.0,100%,35%)" stroke-width="0.00913"></path>
<path d="M1.148 0.241 Q0.252 0.420 0.404 0.896" stroke="hsl(0.0,100%,35%)" stroke-width="0.00183"></path>
<path d="M1.148 0.241 Q1.018 0.249 1.006 0.314" stroke="hsl(0.0,100%,35%)" stroke-width="0.00183"></path>
<path d="M1.148 0.241 Q0.619 0.540 1.086 0.863" stroke="hsl(0.0,100%,35%)" stroke-width="0.00122"></path>
<path d="M1.148 0.241 Q0.797 -0.010 0.231 0.106" stroke="hsl(0.0,100%,35%)" stroke-width="0.00061"></path>
<path d="M1.086 0.863 Q1.008 0.912 1.087 0.961" stroke="hsl(120.0,100%,35%)" stroke-width="0.00304"></path>
<path d="M1.086 0.863 Q1.655 0.483 1.037 0.122" stroke="hsl(120.0,100%,35%)" stroke-width="0.00061"></path>
<path d="M1.086 0.863 Q1.059 0.970 1.263 1.007" stroke="hsl(120.0,100%,35%)" stroke-width="0.00609"></path>
<path d="M1.086 0.863 Q1.452 0.900 1.604 0.730" stroke="hsl(120.0,100%,35%)" stroke-width="0.00061"></path>
<path d="M1.086 0.863 Q1.852 0.783 1.864 0.392" stroke="hsl(120.0,100%,35%)" stroke-width="0.00365"></path>
<path d="M1.086 0.863 Q1.697 0.751 1.613 0.428" stroke="hsl(120.0,100%,35%)" stroke-width="0.00244"></path>
<path d="M1.086 0.863 Q1.000 0.793 0.844 0.820" stroke="hsl(120.0,100%,35%)" stroke-width="0.00122"></path>
<path d="M1.086 0.863 Q0.939 0.850 0.880 0.919" stroke="hsl(120.0,100%,35%)" stroke-width="0.00122"></path>
<path d="M1.086 0.863 Q1.859 0.640 1.594 0.215" stroke="hsl(120.0,100%,35%)" stroke-width="0.00122"></path>
<path d="M1.086 0.863 Q1.592 0.976 1.924 0.754" stroke="hsl(120.0,100%,35%)" stroke-width="0.00061"></path>
<path d="M1.743 0.571 Q1.792 0.474 1.613 0.428" stroke="hsl(120.0,100%,35%)" stroke-width="0.01035"></path>
<path d="M1.743 0.571 Q1.395 0.546 1.269 0.710" stroke="hsl(120.0,100%,35%)" stroke-width="0.00061"></path>
<path d="M1.743 0.571 Q2.101 0.319 1.688 0.089" stroke="hsl(120.0,100%,35%)" stroke-width="0.00122"></path>
<path d="M1.743 0.571 Q1.953 0.363 1.594 0.215" stroke="hsl(120.0,100%,35%)" stroke-width="0.00487"></path>
<path d="M1.743 0.571 Q1.947 0.506 1.864 0.392" stroke="hsl(120.0,100%,35%)" stroke-width="0.00183"></path>
<path d="M1.743 0.571 Q1.687 0.699 1.924 0.754" stroke="hsl(120.0,100%,35%)" stroke-width="0.00061"></path>
<path d="M1.743 0.571 Q1.564 0.491 1.369 0.562" stroke="hsl(120.0,100%,35%)" stroke-width="0.00061"></path>
<path d="M1.743 0.571 Q1.547 0.623 1.604 0.730" stroke="hsl(120.0,100%,35%)" stroke-width="0.00061"></path>
<path d="M1.743 0.571 Q1.979 0.248 1.400 0.062" stroke="hsl(120.0,100%,35%)" stroke-width="0.00061"></path>
<path d="M1.743 0.571 Q1.154 0.693 1.263 1.007" stroke="hsl(120.0,100%,35%)" stroke-width="0.00244"></path>
<path d="M1.743 0.571 Q2.051 0.429 1.842 0.248" stroke="hsl(120.0,100%,35%)" stroke-width="0.00061"></path>
<path d="M1.037 0.122 Q0.866 0.134 0.853 0.220" stroke="hsl(0.0,100%,35%)" stroke-width="0.00731"></path>
<path d="M1.037 0.122 Q-0.041 0.337 0.143 0.910" stroke="hsl(0.0,100%,35%)" stroke-width="0.00304"></path>
<path d="M1.037 0.122 Q0.199 0.455 0.666 0.937" stroke="hsl(0.0,100%,35%)" stroke-width="0.00061"></path>
<path d="M1.037 0.122 Q0.997 0.204 1.148 0.241" stroke="hsl(0.0,100%,35%)" stroke-width="0.00304"></path>
<path d="M1.037 0.122 Q0.101 0.383 0.404 0.896" stroke="hsl(0.0,100%,35%)" stroke-width="0.00061"></path>
<path d="M1.037 0.122 Q1.241 0.280 1.594 0.215" stroke="hsl(0.0,100%,35%)" stroke-width="0.00122"></path>
<path d="M1.037 0.122 Q1.266 0.164 1.400 0.062" stroke="hsl(0.0,100%,35%)" stroke-width="0.00061"></path>
<path d="M1.037 0.122 Q0.741 0.245 0.916 0.417" stroke="hsl(0.0,100%,35%)" stroke-width="0.00061"></path>
<path d="M0.853 0.220 Q0.984 0.289 1.148 0.241" stroke="hsl(0.0,100%,35%)" stroke-width="0.00792"></path>
<path d="M0.853 0.220 Q0.087 0.468 0.404 0.896" stroke="hsl(0.0,100%,35%)" stroke-width="0.00609"></path>
<path d="M0.853 0.220 Q0.669 0.548 1.269 0.710" stroke="hsl(0.0,100%,35%)" stroke-width="0.00061"></path>
<path d="M0.853 0.220 Q1.227 0.365 1.594 0.215" stroke="hsl(0.0,100%,35%)" stroke-width="0.00183"></path>
<path d="M0.853 0.220 Q1.253 0.250 1.400 0.062" stroke="hsl(0.0,100%,35%)" stroke-width="0.00122"></path>
<path d="M0.853 0.220 Q0.854 0.298 1.006 0.314" stroke="hsl(0.0,100%,35%)" stroke-width="0.00061"></path>
<path d="M0.853 0.220 Q0.185 0.541 0.666 0.937" stroke="hsl(0.0,100%,35%)" stroke-width="0.00122"></path>
<path d="M0.853 0.220 Q0.633 0.039 0.231 0.106" stroke="hsl(0.0,100%,35%)" stroke-width="0.00122"></path>
<path d="M0.853 0.220 Q1.375 0.321 1.688 0.089" stroke="hsl(0.0,100%,35%)" stroke-width="0.00061"></path>
<path d="M0.853 0.220 Q0.455 0.588 1.086 0.863" stroke="hsl(0.0,100%,35%)" stroke-width="0.00122"></path>
<path d="M0.853 0.220 Q1.023 0.208 1.037 0.122" stroke="hsl(0.0,100%,35%)" stroke-width="0.00183"></path>
<path d="M0.853 0.220 Q0.368 0.518 0.844 0.820" stroke="hsl(0.0,100%,35%)" stroke-width="0.00061"></path>
<path d="M1.973 0.589 Q2.077 0.469 1.864 0.392" stroke="hsl(120.0,100%,35%)" stroke-width="0.00304"></path>
<path d="M1.973 0.589 Q1.817 0.662 1.924 0.754" stroke="hsl(120.0,100%,35%)" stroke-width="0.00122"></path>
<path d="M1.973 0.589 Q1.489 -0.001 0.231 0.106" stroke="hsl(120.0,100%,35%)" stroke-width="0.00061"></path>
<path d="M1.864 0.392 Q1.098 0.472 1.086 0.863" stroke="hsl(120.0,100%,35%)" stroke-width="0.00122"></path>
<path d="M1.864 0.392 Q1.709 0.360 1.613 0.428" stroke="hsl(120.0,100%,35%)" stroke-width="0.01035"></path>
<path d="M1.864 0.392 Q1.871 0.249 1.594 0.215" stroke="hsl(120.0,100%,35%)" stroke-width="0.00061"></path>
<path d="M1.864 0.392 Q1.604 0.585 1.924 0.754" stroke="hsl(120.0,100%,35%)" stroke-width="0.00426"></path>
<path d="M1.864 0.392 Q1.481 0.378 1.369 0.562" stroke="hsl(120.0,100%,35%)" stroke-width="0.00061"></path>
<path d="M1.864 0.392 Q1.071 0.579 1.263 1.007" stroke="hsl(120.0,100%,35%)" stroke-width="0.00061"></path>
<path d="M1.924 0.754 Q2.184 0.561 1.864 0.392" stroke="hsl(120.0,100%,35%)" stroke-width="0.00122"></path>
<path d="M1.924 0.754 Q2.029 0.529 1.613 0.428" stroke="hsl(120.0,100%,35%)" stroke-width="0.00183"></path>
<path d="M1.924 0.754 Q1.945 0.662 1.770 0.632" stroke="hsl(120.0,100%,35%)" stroke-width="0.00183"></path>
<path d="M1.924 0.754 Q1.678 0.754 1.624 0.875" stroke="hsl(120.0,100%,35%)" stroke-width="0.00061"></path>
<path d="M1.924 0.754 Q1.391 0.748 1.263 1.007" stroke="hsl(120.0,100%,35%)" stroke-width="0.00061"></path>
<path d="M1.924 0.754 Q1.801 0.547 1.369 0.562" stroke="hsl(120.0,100%,35%)" stroke-width="0.00122"></path>
<path d="M1.924 0.754 Q1.784 0.678 1.604 0.730" stroke="hsl(120.0,100%,35%)" stroke-width="0.00061"></path>
<path d="M0.231 0.106 Q0.407 0.153 0.537 0.078" stroke="hsl(120.0,100%,35%)" stroke-width="0.01522"></path>
<path d="M0.231 0.106 Q0.582 0.357 1.148 0.241" stroke="hsl(120.0,100%,35%)" stroke-width="0.00061"></path>
<path d="M0.231 0.106 Q0.664 0.544 1.613 0.428" stroke="hsl(120.0,100%,35%)" stroke-width="0.00548"></path>
<path d="M0.231 0.106 Q0.242 0.178 0.384 0.189" stroke="hsl(120.0,100%,35%)" stroke-width="0.00061"></path>
<path d="M0.231 0.106 Q0.452 0.365 1.006 0.314" stroke="hsl(120.0,100%,35%)" stroke-width="0.00122"></path>
<path d="M0.231 0.106 Q0.053 0.656 1.086 0.863" stroke="hsl(120.0,100%,35%)" stroke-width="0.00061"></path>
<path d="M0.231 0.106 Q0.451 0.287 0.853 0.220" stroke="hsl(120.0,100%,35%)" stroke-width="0.00061"></path>
<path d="M0.231 0.106 Q0.851 0.318 1.400 0.062" stroke="hsl(120.0,100%,35%)" stroke-width="0.00061"></path>
<path d="M0.231 0.106 Q-0.314 0.536 0.404 0.896" stroke="hsl(120.0,100%,35%)" stroke-width="0.00061"></path>
<path d="M0.231 0.106 Q0.559 0.769 1.924 0.754" stroke="hsl(120.0,100%,35%)" stroke-width="0.00061"></path>
<path d="M1.613 0.428 Q1.767 0.460 1.864 0.392" stroke="hsl(120.0,100%,35%)" stroke-width="0.00792"></path>
<path d="M1.613 0.428 Q1.384 0.446 1.369 0.562" stroke="hsl(120.0,100%,35%)" stroke-width="0.00061"></path>
<path d="M1.613 0.428 Q1.400 0.172 0.853 0.220" stroke="hsl(120.0,100%,35%)" stroke-width="0.00122"></path>
<path d="M1.613 0.428 Q1.800 0.203 1.400 0.062" stroke="hsl(120.0,100%,35%)" stroke-width="0.00426"></path>
<path d="M1.613 0.428 Q1.001 0.541 1.086 0.863" stroke="hsl(120.0,100%,35%)" stroke-width="0.00304"></path>
<path d="M1.613 0.428 Q1.922 0.274 1.688 0.089" stroke="hsl(120.0,100%,35%)" stroke-width="0.00183"></path>
<path d="M1.613 0.428 Q1.508 0.654 1.924 0.754" stroke="hsl(120.0,100%,35%)" stroke-width="0.00122"></path>
<path d="M1.613 0.428 Q1.180 -0.009 0.231 0.106" stroke="hsl(120.0,100%,35%)" stroke-width="0.00122"></path>
<path d="M1.613 0.428 Q1.367 0.578 1.604 0.730" stroke="hsl(120.0,100%,35%)" stroke-width="0.00244"></path>
<path d="M1.613 0.428 Q0.854 0.527 0.880 0.919" stroke="hsl(120.0,100%,35%)" stroke-width="0.00061"></path>
<path d="M1.613 0.428 Q1.564 0.526 1.743 0.571" stroke="hsl(120.0,100%,35%)" stroke-width="0.00244"></path>
<path d="M1.613 0.428 Q0.634 0.421 0.404 0.896" stroke="hsl(120.0,100%,35%)" stroke-width="0.00122"></path>
<path d="M1.613 0.428 Q1.774 0.318 1.594 0.215" stroke="hsl(120.0,100%,35%)" stroke-width="0.00365"></path>
<path d="M1.613 0.428 Q1.531 0.242 1.148 0.241" stroke="hsl(120.0,100%,35%)" stroke-width="0.00061"></path>
<path d="M1.613 0.428 Q1.871 0.384 1.842 0.248" stroke="hsl(120.0,100%,35%)" stroke-width="0.00061"></path>
<path d="M1.263 1.007 Q1.289 0.900 1.086 0.863" stroke="hsl(120.0,100%,35%)" stroke-width="0.02435"></path>
<path d="M1.263 1.007 Q1.687 0.532 0.853 0.220" stroke="hsl(120.0,100%,35%)" stroke-width="0.00061"></path>
<path d="M1.263 1.007 Q2.087 0.562 1.400 0.062" stroke="hsl(120.0,100%,35%)" stroke-width="0.00061"></path>
<path d="M1.263 1.007 Q1.142 0.886 0.880 0.919" stroke="hsl(120.0,100%,35%)" stroke-width="0.00061"></path>
<path d="M1.263 1.007 Q1.900 0.788 1.613 0.428" stroke="hsl(120.0,100%,35%)" stroke-width="0.00061"></path>
<path d="M1.263 1.007 Q1.212 0.949 1.087 0.961" stroke="hsl(120.0,100%,35%)" stroke-width="0.00365"></path>
<path d="M1.263 1.007 Q2.055 0.820 1.864 0.392" stroke="hsl(120.0,100%,35%)" stroke-width="0.00061"></path>
<path d="M1.263 1.007 Q1.203 0.830 0.844 0.820" stroke="hsl(120.0,100%,35%)" stroke-width="0.00061"></path>
<path d="M1.369 0.562 Q1.856 0.500 1.842 0.248" stroke="hsl(120.0,100%,35%)" stroke-width="0.00061"></path>
<path d="M1.369 0.562 Q1.384 0.288 0.853 0.220" stroke="hsl(120.0,100%,35%)" stroke-width="0.00122"></path>
<path d="M1.369 0.562 Q1.752 0.576 1.864 0.392" stroke="hsl(120.0,100%,35%)" stroke-width="0.00670"></path>
<path d="M1.369 0.562 Q1.352 0.693 1.604 0.730" stroke="hsl(120.0,100%,35%)" stroke-width="0.00731"></path>
<path d="M1.369 0.562 Q1.597 0.544 1.613 0.428" stroke="hsl(120.0,100%,35%)" stroke-width="0.00304"></path>
<path d="M1.369 0.562 Q0.959 0.763 1.263 1.007" stroke="hsl(120.0,100%,35%)" stroke-width="0.00122"></path>
<path d="M1.369 0.562 Q1.784 0.318 1.400 0.062" stroke="hsl(120.0,100%,35%)" stroke-width="0.00183"></path>
<path d="M1.369 0.562 Q1.759 0.433 1.594 0.215" stroke="hsl(120.0,100%,35%)" stroke-width="0.00122"></path>
<path d="M1.369 0.562 Q1.906 0.389 1.688 0.089" stroke="hsl(120.0,100%,35%)" stroke-width="0.00183"></path>
<path d="M1.269 0.710 Q1.028 0.857 1.263 1.007" stroke="hsl(120.0,100%,35%)" stroke-width="0.00061"></path>
<path d="M1.269 0.710 Q1.437 0.656 1.369 0.562" stroke="hsl(120.0,100%,35%)" stroke-width="0.02679"></path>
<path d="M1.269 0.710 Q0.687 0.630 0.404 0.896" stroke="hsl(120.0,100%,35%)" stroke-width="0.00792"></path>
<path d="M1.269 0.710 Q1.666 0.638 1.613 0.428" stroke="hsl(120.0,100%,35%)" stroke-width="0.00852"></path>
<path d="M1.269 0.710 Q1.055 0.750 1.086 0.863" stroke="hsl(120.0,100%,35%)" stroke-width="0.02557"></path>
<path d="M1.269 0.710 Q1.853 0.412 1.400 0.062" stroke="hsl(120.0,100%,35%)" stroke-width="0.00061"></path>
<path d="M1.269 0.710 Q1.169 0.811 1.345 0.882" stroke="hsl(120.0,100%,35%)" stroke-width="0.00304"></path>
<path d="M1.269 0.710 Q1.827 0.527 1.594 0.215" stroke="hsl(120.0,100%,35%)" stroke-width="0.00122"></path>
<path d="M1.269 0.710 Q1.421 0.787 1.604 0.730" stroke="hsl(120.0,100%,35%)" stroke-width="0.00061"></path>
<path d="M1.269 0.710 Q1.821 0.670 1.864 0.392" stroke="hsl(120.0,100%,35%)" stroke-width="0.00183"></path>
<path d="M0.916 0.417 Q0.822 0.124 0.231 0.106" stroke="hsl(0.0,100%,35%)" stroke-width="0.00183"></path>
<path d="M0.916 0.417 Q0.277 0.554 0.404 0.896" stroke="hsl(0.0,100%,35%)" stroke-width="0.00304"></path>
<path d="M0.916 0.417 Q0.738 0.399 0.665 0.483" stroke="hsl(0.0,100%,35%)" stroke-width="0.00061"></path>
<path d="M0.916 0.417 Q1.442 0.336 1.400 0.062" stroke="hsl(0.0,100%,35%)" stroke-width="0.00183"></path>
<path d="M0.916 0.417 Q1.417 0.451 1.594 0.215" stroke="hsl(0.0,100%,35%)" stroke-width="0.00426"></path>
<path d="M0.916 0.417 Q1.212 0.293 1.037 0.122" stroke="hsl(0.0,100%,35%)" stroke-width="0.00244"></path>
<path d="M0.916 0.417 Q0.375 0.627 0.666 0.937" stroke="hsl(0.0,100%,35%)" stroke-width="0.00061"></path>
<path d="M0.916 0.417 Q0.135 0.508 0.143 0.910" stroke="hsl(0.0,100%,35%)" stroke-width="0.00061"></path>
<path d="M1.594 0.215 Q1.219 0.069 0.853 0.220" stroke="hsl(0.0,100%,35%)" stroke-width="0.00244"></path>
<path d="M1.594 0.215 Q1.350 0.139 1.148 0.241" stroke="hsl(0.0,100%,35%)" stroke-width="0.01096"></path>
<path d="M1.594 0.215 Q1.619 0.099 1.400 0.062" stroke="hsl(0.0,100%,35%)" stroke-width="0.01948"></path>
<path d="M1.594 0.215 Q1.389 0.057 1.037 0.122" stroke="hsl(0.0,100%,35%)" stroke-width="0.00183"></path>
<path d="M1.594 0.215 Q1.587 0.357 1.864 0.392" stroke="hsl(0.0,100%,35%)" stroke-width="0.00122"></path>
<path d="M1.594 0.215 Q1.432 0.325 1.613 0.428" stroke="hsl(0.0,100%,35%)" stroke-width="0.00183"></path>
<path d="M1.594 0.215 Q1.093 0.180 0.916 0.417" stroke="hsl(0.0,100%,35%)" stroke-width="0.00061"></path>
<path d="M1.594 0.215 Q1.383 0.423 1.743 0.571" stroke="hsl(0.0,100%,35%)" stroke-width="0.00061"></path>
<path d="M0.849 -0.003 Q0.885 0.365 1.613 0.428" stroke="hsl(120.0,100%,35%)" stroke-width="0.00061"></path>
<path d="M0.849 -0.003 Q0.901 0.032 0.981 0.013" stroke="hsl(120.0,100%,35%)" stroke-width="0.00122"></path>
<path d="M0.849 -0.003 Q0.188 0.408 0.844 0.820" stroke="hsl(120.0,100%,35%)" stroke-width="0.00061"></path>
<path d="M0.981 0.013 Q0.860 0.033 0.872 0.096" stroke="hsl(120.0,100%,35%)" stroke-width="0.00609"></path>
<path d="M0.981 0.013 Q0.965 0.347 1.613 0.428" stroke="hsl(120.0,100%,35%)" stroke-width="0.00122"></path>
<path d="M0.981 0.013 Q0.613 0.573 1.624 0.875" stroke="hsl(120.0,100%,35%)" stroke-width="0.00061"></path>
<path d="M1.413 0.318 Q1.409 0.310 1.392 0.310" stroke="hsl(0.0,100%,35%)" stroke-width="0.00061"></path>
<path d="M1.413 0.318 Q1.579 0.445 1.864 0.392" stroke="hsl(0.0,100%,35%)" stroke-width="0.00061"></path>
<path d="M1.413 0.318 Q1.211 0.157 0.853 0.220" stroke="hsl(0.0,100%,35%)" stroke-width="0.00061"></path>
<path d="M0.844 0.820 Q0.853 0.939 1.087 0.961" stroke="hsl(120.0,100%,35%)" stroke-width="0.00852"></path>
<path d="M0.844 0.820 Q0.931 0.890 1.086 0.863" stroke="hsl(120.0,100%,35%)" stroke-width="0.01339"></path>
<path d="M0.844 0.820 Q1.729 0.552 1.400 0.062" stroke="hsl(120.0,100%,35%)" stroke-width="0.00183"></path>
<path d="M0.844 0.820 Q1.329 0.522 0.853 0.220" stroke="hsl(120.0,100%,35%)" stroke-width="0.00061"></path>
<path d="M0.844 0.820 Q1.437 1.003 1.924 0.754" stroke="hsl(120.0,100%,35%)" stroke-width="0.00061"></path>
<path d="M0.844 0.820 Q0.661 0.843 0.666 0.937" stroke="hsl(120.0,100%,35%)" stroke-width="0.00061"></path>
<path d="M0.844 0.820 Q0.904 0.997 1.263 1.007" stroke="hsl(120.0,100%,35%)" stroke-width="0.00061"></path>
<path d="M0.844 0.820 Q0.747 0.875 0.832 0.935" stroke="hsl(120.0,100%,35%)" stroke-width="0.00061"></path>
<path d="M0.844 0.820 Q1.313 0.796 1.369 0.562" stroke="hsl(120.0,100%,35%)" stroke-width="0.00061"></path>
<path d="M0.844 0.820 Q1.542 0.778 1.613 0.428" stroke="hsl(120.0,100%,35%)" stroke-width="0.00061"></path>
<path d="M0.844 0.820 Q0.783 0.876 0.880 0.919" stroke="hsl(120.0,100%,35%)" stroke-width="0.00183"></path>
<path d="M1.501 0.619 Q1.481 0.564 1.369 0.562" stroke="hsl(120.0,100%,35%)" stroke-width="0.00061"></path>
<path d="M1.501 0.619 Q1.625 0.679 1.770 0.632" stroke="hsl(120.0,100%,35%)" stroke-width="0.00061"></path>
<path d="M1.501 0.619 Q1.098 0.658 1.086 0.863" stroke="hsl(120.0,100%,35%)" stroke-width="0.00061"></path>
<path d="M0.198 0.849 Q0.198 0.804 0.110 0.795" stroke="hsl(0.0,100%,35%)" stroke-width="0.00061"></path>
<path d="M0.198 0.849 Q0.122 0.868 0.143 0.910" stroke="hsl(0.0,100%,35%)" stroke-width="0.00244"></path>
<path d="M0.198 0.849 Q0.195 0.831 0.159 0.829" stroke="hsl(0.0,100%,35%)" stroke-width="0.00061"></path>
<path d="M0.198 0.849 Q1.029 0.665 0.853 0.220" stroke="hsl(0.0,100%,35%)" stroke-width="0.00061"></path>
<path d="M0.198 0.849 Q1.540 0.906 1.946 0.264" stroke="hsl(0.0,100%,35%)" stroke-width="0.00122"></path>
<path d="M0.198 0.849 Q1.137 1.147 1.924 0.754" stroke="hsl(0.0,100%,35%)" stroke-width="0.00061"></path>
<path d="M0.198 0.849 Q1.014 0.939 1.369 0.562" stroke="hsl(0.0,100%,35%)" stroke-width="0.00061"></path>
<path d="M1.842 0.248 Q1.726 0.243 1.690 0.298" stroke="hsl(120.0,100%,35%)" stroke-width="0.00426"></path>
<path d="M1.842 0.248 Q1.583 0.292 1.613 0.428" stroke="hsl(120.0,100%,35%)" stroke-width="0.00244"></path>
<path d="M1.842 0.248 Q1.355 0.310 1.369 0.562" stroke="hsl(120.0,100%,35%)" stroke-width="0.00061"></path>
<path d="M1.842 0.248 Q1.150 -0.145 0.231 0.106" stroke="hsl(120.0,100%,35%)" stroke-width="0.00061"></path>
<path d="M1.842 0.248 Q1.882 0.277 1.946 0.264" stroke="hsl(120.0,100%,35%)" stroke-width="0.00244"></path>
<path d="M1.842 0.248 Q1.478 0.518 1.924 0.754" stroke="hsl(120.0,100%,35%)" stroke-width="0.00122"></path>
<path d="M1.842 0.248 Q0.945 0.512 1.263 1.007" stroke="hsl(120.0,100%,35%)" stroke-width="0.00122"></path>
<path d="M1.688 0.089 Q1.540 0.133 1.594 0.215" stroke="hsl(120.0,100%,35%)" stroke-width="0.01035"></path>
<path d="M1.688 0.089 Q1.330 0.341 1.743 0.571" stroke="hsl(120.0,100%,35%)" stroke-width="0.00548"></path>
<path d="M1.688 0.089 Q1.534 0.276 1.864 0.392" stroke="hsl(120.0,100%,35%)" stroke-width="0.00609"></path>
<path d="M1.688 0.089 Q1.379 0.244 1.613 0.428" stroke="hsl(120.0,100%,35%)" stroke-width="0.00609"></path>
<path d="M1.688 0.089 Q1.150 0.262 1.369 0.562" stroke="hsl(120.0,100%,35%)" stroke-width="0.00122"></path>
<path d="M1.688 0.089 Q1.166 -0.013 0.853 0.220" stroke="hsl(120.0,100%,35%)" stroke-width="0.00061"></path>
<path d="M1.688 0.089 Q0.400 0.236 0.404 0.896" stroke="hsl(120.0,100%,35%)" stroke-width="0.00061"></path>
<path d="M1.688 0.089 Q1.274 0.469 1.924 0.754" stroke="hsl(120.0,100%,35%)" stroke-width="0.00122"></path>
<path d="M1.688 0.089 Q0.946 -0.194 0.231 0.106" stroke="hsl(120.0,100%,35%)" stroke-width="0.00061"></path>
<path d="M1.167 0.069 Q1.264 0.227 1.594 0.215" stroke="hsl(0.0,100%,35%)" stroke-width="0.00061"></path>
<path d="M1.167 0.069 Q1.289 0.112 1.400 0.062" stroke="hsl(0.0,100%,35%)" stroke-width="0.00304"></path>
<path d="M1.167 0.069 Q1.257 0.370 1.864 0.392" stroke="hsl(0.0,100%,35%)" stroke-width="0.00061"></path>
<path d="M1.167 0.069 Q0.874 0.355 1.369 0.562" stroke="hsl(0.0,100%,35%)" stroke-width="0.00061"></path>
<path d="M1.167 0.069 Q-0.018 0.284 0.143 0.910" stroke="hsl(0.0,100%,35%)" stroke-width="0.00061"></path>
<path d="M1.718 0.784 Q1.950 0.585 1.613 0.428" stroke="hsl(120.0,100%,35%)" stroke-width="0.00061"></path>
<path d="M1.718 0.784 Q2.111 0.474 1.594 0.215" stroke="hsl(120.0,100%,35%)" stroke-width="0.00061"></path>
<path d="M1.718 0.784 Q1.704 0.734 1.604 0.730" stroke="hsl(120.0,100%,35%)" stroke-width="0.00061"></path>
<path d="M1.618 0.731 Q1.752 0.804 1.924 0.754" stroke="hsl(120.0,100%,35%)" stroke-width="0.00122"></path>
<path d="M1.618 0.731 Q1.612 0.728 1.604 0.730" stroke="hsl(120.0,100%,35%)" stroke-width="0.00122"></path>
<path d="M1.618 0.731 Q1.873 0.245 0.981 0.013" stroke="hsl(120.0,100%,35%)" stroke-width="0.00061"></path>
<path d="M0.055 0.358 Q0.125 0.410 0.243 0.388" stroke="hsl(0.0,100%,35%)" stroke-width="0.01218"></path>
<path d="M0.055 0.358 Q0.939 0.594 1.594 0.215" stroke="hsl(0.0,100%,35%)" stroke-width="0.00122"></path>
<path d="M0.055 0.358 Q0.965 0.479 1.400 0.062" stroke="hsl(0.0,100%,35%)" stroke-width="0.00304"></path>
<path d="M0.055 0.358 Q0.565 0.449 0.853 0.220" stroke="hsl(0.0,100%,35%)" stroke-width="0.00061"></path>
<path d="M0.055 0.358 Q0.696 0.518 1.148 0.241" stroke="hsl(0.0,100%,35%)" stroke-width="0.00122"></path>
<path d="M0.055 0.358 Q0.167 0.817 1.086 0.863" stroke="hsl(0.0,100%,35%)" stroke-width="0.00122"></path>
<path d="M0.055 0.358 Q0.381 0.777 1.269 0.710" stroke="hsl(0.0,100%,35%)" stroke-width="0.00061"></path>
<path d="M0.055 0.358 Q0.224 0.349 0.243 0.265" stroke="hsl(0.0,100%,35%)" stroke-width="0.00304"></path>
<path d="M0.055 0.358 Q0.281 0.878 1.345 0.882" stroke="hsl(0.0,100%,35%)" stroke-width="0.00061"></path>
<path d="M0.055 0.358 Q0.549 0.723 1.369 0.562" stroke="hsl(0.0,100%,35%)" stroke-width="0.00061"></path>
<path d="M0.055 0.358 Q-0.342 0.651 0.143 0.910" stroke="hsl(0.0,100%,35%)" stroke-width="0.00061"></path>
<path d="M0.055 0.358 Q-0.201 0.697 0.404 0.896" stroke="hsl(0.0,100%,35%)" stroke-width="0.00183"></path>
<path d="M0.055 0.358 Q0.933 0.737 1.864 0.392" stroke="hsl(0.0,100%,35%)" stroke-width="0.00061"></path>
<path d="M1.345 0.882 Q1.445 0.781 1.269 0.710" stroke="hsl(120.0,100%,35%)" stroke-width="0.00244"></path>
<path d="M1.345 0.882 Q1.842 0.709 1.613 0.428" stroke="hsl(120.0,100%,35%)" stroke-width="0.00122"></path>
<path d="M1.345 0.882 Q1.204 0.928 1.263 1.007" stroke="hsl(120.0,100%,35%)" stroke-width="0.00365"></path>
<path d="M1.345 0.882 Q1.793 0.806 1.743 0.571" stroke="hsl(120.0,100%,35%)" stroke-width="0.00061"></path>
<path d="M1.345 0.882 Q1.231 0.821 1.086 0.863" stroke="hsl(120.0,100%,35%)" stroke-width="0.00244"></path>
<path d="M1.345 0.882 Q1.613 0.726 1.369 0.562" stroke="hsl(120.0,100%,35%)" stroke-width="0.00183"></path>
<path d="M1.345 0.882 Q1.144 0.751 0.844 0.820" stroke="hsl(120.0,100%,35%)" stroke-width="0.00061"></path>
<path d="M1.345 0.882 Q0.722 0.655 0.143 0.910" stroke="hsl(120.0,100%,35%)" stroke-width="0.00061"></path>
<path d="M1.345 0.882 Q0.961 0.774 0.666 0.937" stroke="hsl(120.0,100%,35%)" stroke-width="0.00061"></path>
<path d="M1.345 0.882 Q1.597 0.858 1.604 0.730" stroke="hsl(120.0,100%,35%)" stroke-width="0.00061"></path>
<path d="M1.345 0.882 Q0.863 0.701 0.404 0.896" stroke="hsl(120.0,100%,35%)" stroke-width="0.00061"></path>
<path d="M1.690 0.298 Q1.806 0.304 1.842 0.248" stroke="hsl(120.0,100%,35%)" stroke-width="0.00304"></path>
<path d="M1.690 0.298 Q1.845 0.333 1.946 0.264" stroke="hsl(120.0,100%,35%)" stroke-width="0.00061"></path>
<path d="M1.690 0.298 Q1.289 -0.042 0.537 0.078" stroke="hsl(120.0,100%,35%)" stroke-width="0.00183"></path>
<path d="M1.936 0.226 Q1.507 0.488 1.924 0.754" stroke="hsl(120.0,100%,35%)" stroke-width="0.00061"></path>
<path d="M1.936 0.226 Q1.871 0.218 1.842 0.248" stroke="hsl(120.0,100%,35%)" stroke-width="0.00122"></path>
<path d="M1.936 0.226 Q1.628 -0.071 0.981 0.013" stroke="hsl(120.0,100%,35%)" stroke-width="0.00061"></path>
<path d="M1.779 0.913 Q2.238 0.669 1.864 0.392" stroke="hsl(120.0,100%,35%)" stroke-width="0.00061"></path>
<path d="M1.779 0.913 Q1.979 0.863 1.924 0.754" stroke="hsl(120.0,100%,35%)" stroke-width="0.00061"></path>
<path d="M1.779 0.913 Q2.083 0.637 1.613 0.428" stroke="hsl(120.0,100%,35%)" stroke-width="0.00061"></path>
<path d="M1.779 0.913 Q1.472 0.750 1.086 0.863" stroke="hsl(120.0,100%,35%)" stroke-width="0.00061"></path>
<path d="M0.595 0.325 Q1.183 0.469 1.594 0.215" stroke="hsl(0.0,100%,35%)" stroke-width="0.00061"></path>
<path d="M0.595 0.325 Q1.021 0.580 1.613 0.428" stroke="hsl(0.0,100%,35%)" stroke-width="0.00061"></path>
<path d="M0.595 0.325 Q0.808 0.324 0.853 0.220" stroke="hsl(0.0,100%,35%)" stroke-width="0.00061"></path>
<path d="M1.319 0.443 Q1.187 0.407 1.089 0.464" stroke="hsl(240.0,100%,35%)" stroke-width="0.01705"></path>
<path d="M1.319 0.443 Q1.428 0.592 1.743 0.571" stroke="hsl(240.0,100%,35%)" stroke-width="0.00122"></path>
<path d="M1.319 0.443 Q0.498 0.487 0.404 0.896" stroke="hsl(240.0,100%,35%)" stroke-width="0.00244"></path>
<path d="M1.319 0.443 Q1.249 0.512 1.369 0.562" stroke="hsl(240.0,100%,35%)" stroke-width="0.00061"></path>
<path d="M1.319 0.443 Q1.395 0.308 1.148 0.241" stroke="hsl(240.0,100%,35%)" stroke-width="0.00061"></path>
<path d="M0.642 0.784 Q1.363 0.898 1.743 0.571" stroke="hsl(120.0,100%,35%)" stroke-width="0.00122"></path>
<path d="M0.642 0.784 Q0.979 0.363 0.231 0.106" stroke="hsl(120.0,100%,35%)" stroke-width="0.00061"></path>
<path d="M0.642 0.784 Q0.801 0.913 1.086 0.863" stroke="hsl(120.0,100%,35%)" stroke-width="0.00061"></path>
<path d="M0.642 0.784 Q0.434 0.793 0.404 0.896" stroke="hsl(120.0,100%,35%)" stroke-width="0.00122"></path>
<path d="M0.642 0.784 Q1.428 0.467 0.981 0.013" stroke="hsl(120.0,100%,35%)" stroke-width="0.00061"></path>
<path d="M0.642 0.784 Q1.184 0.818 1.369 0.562" stroke="hsl(120.0,100%,35%)" stroke-width="0.00061"></path>
<path d="M0.395 0.636 Q1.121 0.873 1.743 0.571" stroke="hsl(0.0,100%,35%)" stroke-width="0.00061"></path>
<path d="M0.395 0.636 Q1.169 0.775 1.613 0.428" stroke="hsl(0.0,100%,35%)" stroke-width="0.00122"></path>
<path d="M0.395 0.636 Q1.356 0.550 1.400 0.062" stroke="hsl(0.0,100%,35%)" stroke-width="0.00244"></path>
<path d="M0.395 0.636 Q0.191 0.768 0.404 0.896" stroke="hsl(0.0,100%,35%)" stroke-width="0.00244"></path>
<path d="M0.395 0.636 Q1.127 0.507 1.037 0.122" stroke="hsl(0.0,100%,35%)" stroke-width="0.00061"></path>
<path d="M0.395 0.636 Q0.941 0.793 1.369 0.562" stroke="hsl(0.0,100%,35%)" stroke-width="0.00183"></path>
<path d="M0.395 0.636 Q0.558 0.888 1.086 0.863" stroke="hsl(0.0,100%,35%)" stroke-width="0.00122"></path>
<path d="M0.395 0.636 Q0.772 0.847 1.269 0.710" stroke="hsl(0.0,100%,35%)" stroke-width="0.00061"></path>
<path d="M0.395 0.636 Q1.087 0.589 1.148 0.241" stroke="hsl(0.0,100%,35%)" stroke-width="0.00244"></path>
<path d="M0.395 0.636 Q0.049 0.722 0.143 0.910" stroke="hsl(0.0,100%,35%)" stroke-width="0.00244"></path>
<path d="M0.395 0.636 Q1.324 0.807 1.864 0.392" stroke="hsl(0.0,100%,35%)" stroke-width="0.00122"></path>
<path d="M0.395 0.636 Q0.956 0.519 0.853 0.220" stroke="hsl(0.0,100%,35%)" stroke-width="0.00061"></path>
<path d="M0.395 0.636 Q1.331 0.665 1.594 0.215" stroke="hsl(0.0,100%,35%)" stroke-width="0.00061"></path>
<path d="M0.395 0.636 Q1.428 0.731 1.842 0.248" stroke="hsl(0.0,100%,35%)" stroke-width="0.00061"></path>
</g>
<text x="0.666" y="0.922" font-size="0.030586" fill="hsl(0.0,100%,20%)">ahaas</text>
<text x="0.143" y="0.892" font-size="0.035469" fill="hsl(0.0,100%,20%)">thibaudm</text>
<text x="1.006" y="0.304" font-size="0.021251" fill="hsl(0.0,100%,20%)">evih</text>
<text x="0.404" y="0.872" font-size="0.048693" fill="hsl(0.0,100%,20%)">clemensb</text>
<text x="1.604" y="0.716" font-size="0.027533" fill="hsl(120.0,100%,20%)">pthier</text>
<text x="1.400" y="0.039" font-size="0.045614" fill="hsl(0.0,100%,20%)">nicohartmann</text>
<text x="1.770" y="0.623" font-size="0.018837" fill="hsl(120.0,100%,20%)">marja</text>
<text x="1.148" y="0.217" font-size="0.047349" fill="hsl(0.0,100%,20%)">mliedtke</text>
<text x="1.086" y="0.837" font-size="0.051431" fill="hsl(120.0,100%,20%)">mlippautz</text>
<text x="1.743" y="0.554" font-size="0.033360" fill="hsl(120.0,100%,20%)">victorgomes</text>
<text x="1.037" y="0.106" font-size="0.031623" fill="hsl(0.0,100%,20%)">manoskouk</text>
<text x="0.853" y="0.199" font-size="0.042121" fill="hsl(0.0,100%,20%)">jkummerow</text>
<text x="1.973" y="0.584" font-size="0.011359" fill="hsl(120.0,100%,20%)">carlscab</text>
<text x="1.864" y="0.373" font-size="0.038311" fill="hsl(120.0,100%,20%)">verwaest</text>
<text x="1.924" y="0.741" font-size="0.026335" fill="hsl(120.0,100%,20%)">cbruni</text>
<text x="0.231" y="0.091" font-size="0.030321" fill="hsl(120.0,100%,20%)">machenbach</text>
<text x="1.613" y="0.403" font-size="0.050959" fill="hsl(120.0,100%,20%)">leszeks</text>
<text x="1.624" y="0.872" font-size="0.005680" fill="hsl(120.0,100%,20%)">pfaffe</text>
<text x="1.263" y="0.989" font-size="0.037027" fill="hsl(120.0,100%,20%)">dinfuehr</text>
<text x="1.369" y="0.539" font-size="0.044541" fill="hsl(120.0,100%,20%)">ishell</text>
<text x="1.269" y="0.686" font-size="0.047519" fill="hsl(120.0,100%,20%)">saelo</text>
<text x="0.916" y="0.405" font-size="0.022361" fill="hsl(0.0,100%,20%)">dlehmann</text>
<text x="1.594" y="0.189" font-size="0.050322" fill="hsl(0.0,100%,20%)">dmercadier</text>
<text x="0.849" y="-0.008" font-size="0.008980" fill="hsl(120.0,100%,20%)">leese</text>
<text x="0.880" y="0.913" font-size="0.011359" fill="hsl(240.0,100%,20%)">bikineev</text>
<text x="0.981" y="0.005" font-size="0.017506" fill="hsl(120.0,100%,20%)">szuend</text>
<text x="1.087" y="0.950" font-size="0.020478" fill="hsl(120.0,100%,20%)">omerkatz</text>
<text x="1.413" y="0.315" font-size="0.006956" fill="hsl(0.0,100%,20%)">dcheng</text>
<text x="1.392" y="0.308" font-size="0.004016" fill="hsl(0.0,100%,20%)">ecmziegler</text>
<text x="0.844" y="0.805" font-size="0.029784" fill="hsl(120.0,100%,20%)">nikolaos</text>
<text x="0.665" y="0.481" font-size="0.004016" fill="hsl(0.0,100%,20%)">hao.a.xu</text>
<text x="1.501" y="0.615" font-size="0.006956" fill="hsl(120.0,100%,20%)">emromero</text>
<text x="0.198" y="0.842" font-size="0.013320" fill="hsl(0.0,100%,20%)">fgm</text>
<text x="0.110" y="0.793" font-size="0.004016" fill="hsl(0.0,100%,20%)">irezvov</text>
<text x="0.159" y="0.826" font-size="0.005680" fill="hsl(0.0,100%,20%)">gdeepti</text>
<text x="1.946" y="0.259" font-size="0.010626" fill="hsl(120.0,100%,20%)">adamk</text>
<text x="1.842" y="0.236" font-size="0.023760" fill="hsl(120.0,100%,20%)">syg</text>
<text x="1.688" y="0.073" font-size="0.032129" fill="hsl(120.0,100%,20%)">olivf</text>
<text x="1.167" y="0.063" font-size="0.012048" fill="hsl(0.0,100%,20%)">jianxiao.lu</text>
<text x="1.718" y="0.780" font-size="0.006956" fill="hsl(120.0,100%,20%)">jing.bao</text>
<text x="1.618" y="0.726" font-size="0.008980" fill="hsl(120.0,100%,20%)">joyee</text>
<text x="0.537" y="0.067" font-size="0.021251" fill="hsl(120.0,100%,20%)">liviurau</text>
<text x="0.384" y="0.187" font-size="0.004016" fill="hsl(120.0,100%,20%)">hpayer</text>
<text x="0.055" y="0.345" font-size="0.026941" fill="hsl(0.0,100%,20%)">mfarazma</text>
<text x="0.243" y="0.379" font-size="0.017961" fill="hsl(0.0,100%,20%)">junyan</text>
<text x="0.243" y="0.260" font-size="0.008980" fill="hsl(0.0,100%,20%)">midawson</text>
<text x="1.345" y="0.871" font-size="0.022361" fill="hsl(120.0,100%,20%)">sroettger</text>
<text x="0.832" y="0.933" font-size="0.004016" fill="hsl(120.0,100%,20%)">yangguo</text>
<text x="1.690" y="0.290" font-size="0.016064" fill="hsl(120.0,100%,20%)">rezvan</text>
<text x="1.936" y="0.222" font-size="0.008032" fill="hsl(120.0,100%,20%)">seokho</text>
<text x="1.779" y="0.909" font-size="0.008032" fill="hsl(120.0,100%,20%)">seth.brenith</text>
<text x="0.872" y="0.090" font-size="0.012700" fill="hsl(120.0,100%,20%)">bmeurer</text>
<text x="0.595" y="0.321" font-size="0.006956" fill="hsl(0.0,100%,20%)">tao.pan</text>
<text x="1.319" y="0.431" font-size="0.024097" fill="hsl(240.0,100%,20%)">yahan</text>
<text x="1.089" y="0.453" font-size="0.021251" fill="hsl(240.0,100%,20%)">qiuji</text>
<text x="0.642" y="0.779" font-size="0.011359" fill="hsl(120.0,100%,20%)">zcbenz</text>
<text x="0.395" y="0.624" font-size="0.022361" fill="hsl(0.0,100%,20%)">zhaojiazhong-hf</text>
</svg>
