<svg width="4000" height="2000" viewBox="-0.025 -0.025 2.05 1.05" xmlns="http://www.w3.org/2000/svg">
  <style>
    path {
      fill: none;
      stroke-linecap: round;
      stroke-opacity: 0.4;
    }

    text {
      text-anchor: middle;
      alignment-baseline: hanging;
    }
  </style>
  <g opacity="0.4">
<path d="M0.503 0.357 Q0.473 0.290 0.336 0.290" stroke="hsl(0.0,100%,35%)" stroke-width="0.00691"></path>
<path d="M0.503 0.357 Q0.364 0.441 0.498 0.527" stroke="hsl(0.0,100%,35%)" stroke-width="0.00440"></path>
<path d="M0.503 0.357 Q0.316 0.351 0.263 0.441" stroke="hsl(0.0,100%,35%)" stroke-width="0.00251"></path>
<path d="M0.503 0.357 Q0.278 0.592 0.688 0.754" stroke="hsl(0.0,100%,35%)" stroke-width="0.00063"></path>
<path d="M0.503 0.357 Q0.840 0.626 1.439 0.520" stroke="hsl(0.0,100%,35%)" stroke-width="0.00063"></path>
<path d="M0.503 0.357 Q1.165 0.673 1.927 0.419" stroke="hsl(0.0,100%,35%)" stroke-width="0.00126"></path>
<path d="M0.503 0.357 Q0.420 0.539 0.757 0.620" stroke="hsl(0.0,100%,35%)" stroke-width="0.00440"></path>
<path d="M0.503 0.357 Q0.035 0.632 0.470 0.921" stroke="hsl(0.0,100%,35%)" stroke-width="0.00126"></path>
<path d="M0.503 0.357 Q1.011 0.768 1.926 0.611" stroke="hsl(0.0,100%,35%)" stroke-width="0.00126"></path>
<path d="M0.503 0.357 Q0.555 0.572 0.988 0.594" stroke="hsl(0.0,100%,35%)" stroke-width="0.00126"></path>
<path d="M0.503 0.357 Q0.150 0.658 0.661 0.896" stroke="hsl(0.0,100%,35%)" stroke-width="0.00063"></path>
<path d="M0.503 0.357 Q0.872 0.678 1.580 0.569" stroke="hsl(0.0,100%,35%)" stroke-width="0.00063"></path>
<path d="M0.336 0.290 Q0.419 0.572 0.988 0.594" stroke="hsl(0.0,100%,35%)" stroke-width="0.00063"></path>
<path d="M0.336 0.290 Q0.400 0.651 1.119 0.699" stroke="hsl(0.0,100%,35%)" stroke-width="0.00063"></path>
<path d="M0.336 0.290 Q0.390 0.478 0.768 0.493" stroke="hsl(0.0,100%,35%)" stroke-width="0.00126"></path>
<path d="M0.336 0.290 Q0.179 0.351 0.263 0.441" stroke="hsl(0.0,100%,35%)" stroke-width="0.00063"></path>
<path d="M0.336 0.290 Q-0.050 0.548 0.369 0.792" stroke="hsl(0.0,100%,35%)" stroke-width="0.00126"></path>
<path d="M0.336 0.290 Q0.366 0.357 0.503 0.357" stroke="hsl(0.0,100%,35%)" stroke-width="0.00817"></path>
<path d="M0.336 0.290 Q0.626 0.553 1.203 0.470" stroke="hsl(0.0,100%,35%)" stroke-width="0.00063"></path>
<path d="M0.336 0.290 Q0.283 0.539 0.757 0.620" stroke="hsl(0.0,100%,35%)" stroke-width="0.00126"></path>
<path d="M0.498 0.527 Q0.974 0.712 1.439 0.520" stroke="hsl(0.0,100%,35%)" stroke-width="0.00063"></path>
<path d="M0.498 0.527 Q0.554 0.625 0.757 0.620" stroke="hsl(0.0,100%,35%)" stroke-width="0.00629"></path>
<path d="M0.498 0.527 Q0.689 0.659 0.988 0.594" stroke="hsl(0.0,100%,35%)" stroke-width="0.00189"></path>
<path d="M0.498 0.527 Q0.804 0.476 0.772 0.316" stroke="hsl(0.0,100%,35%)" stroke-width="0.00063"></path>
<path d="M0.263 0.441 Q0.421 0.380 0.336 0.290" stroke="hsl(0.0,100%,35%)" stroke-width="0.00629"></path>
<path d="M0.263 0.441 Q0.035 0.638 0.369 0.792" stroke="hsl(0.0,100%,35%)" stroke-width="0.00251"></path>
<path d="M0.263 0.441 Q-0.137 0.647 0.176 0.887" stroke="hsl(0.0,100%,35%)" stroke-width="0.00126"></path>
<path d="M0.263 0.441 Q0.098 0.748 0.661 0.896" stroke="hsl(0.0,100%,35%)" stroke-width="0.00440"></path>
<path d="M0.263 0.441 Q0.451 0.447 0.503 0.357" stroke="hsl(0.0,100%,35%)" stroke-width="0.01760"></path>
<path d="M0.263 0.441 Q0.503 0.662 0.988 0.594" stroke="hsl(0.0,100%,35%)" stroke-width="0.00943"></path>
<path d="M0.263 0.441 Q0.618 0.480 0.772 0.316" stroke="hsl(0.0,100%,35%)" stroke-width="0.00251"></path>
<path d="M0.263 0.441 Q0.710 0.643 1.203 0.470" stroke="hsl(0.0,100%,35%)" stroke-width="0.00126"></path>
<path d="M0.263 0.441 Q0.474 0.568 0.768 0.493" stroke="hsl(0.0,100%,35%)" stroke-width="0.00126"></path>
<path d="M0.263 0.441 Q-0.018 0.722 0.470 0.921" stroke="hsl(0.0,100%,35%)" stroke-width="0.00063"></path>
<path d="M0.263 0.441 Q0.841 0.837 1.741 0.642" stroke="hsl(0.0,100%,35%)" stroke-width="0.00126"></path>
<path d="M0.263 0.441 Q0.837 0.561 1.197 0.307" stroke="hsl(0.0,100%,35%)" stroke-width="0.00189"></path>
<path d="M0.263 0.441 Q0.566 0.886 1.500 0.836" stroke="hsl(0.0,100%,35%)" stroke-width="0.00063"></path>
<path d="M0.263 0.441 Q1.241 0.628 1.820 0.192" stroke="hsl(0.0,100%,35%)" stroke-width="0.00063"></path>
<path d="M0.263 0.441 Q0.783 0.910 1.812 0.759" stroke="hsl(0.0,100%,35%)" stroke-width="0.00063"></path>
<path d="M0.263 0.441 Q0.788 0.716 1.439 0.520" stroke="hsl(0.0,100%,35%)" stroke-width="0.00063"></path>
<path d="M0.263 0.441 Q0.367 0.629 0.757 0.620" stroke="hsl(0.0,100%,35%)" stroke-width="0.00314"></path>
<path d="M0.263 0.441 Q1.189 0.501 1.510 0.063" stroke="hsl(0.0,100%,35%)" stroke-width="0.00063"></path>
<path d="M0.263 0.441 Q0.478 0.943 1.506 0.949" stroke="hsl(0.0,100%,35%)" stroke-width="0.00189"></path>
<path d="M0.263 0.441 Q0.312 0.531 0.498 0.527" stroke="hsl(0.0,100%,35%)" stroke-width="0.00063"></path>
<path d="M0.688 0.754 Q1.029 0.957 1.500 0.836" stroke="hsl(120.0,100%,35%)" stroke-width="0.00314"></path>
<path d="M0.688 0.754 Q1.478 0.545 1.243 0.114" stroke="hsl(120.0,100%,35%)" stroke-width="0.00126"></path>
<path d="M0.688 0.754 Q0.498 0.709 0.369 0.792" stroke="hsl(120.0,100%,35%)" stroke-width="0.00377"></path>
<path d="M0.688 0.754 Q1.422 0.930 1.926 0.611" stroke="hsl(120.0,100%,35%)" stroke-width="0.00126"></path>
<path d="M0.688 0.754 Q1.304 0.909 1.741 0.642" stroke="hsl(120.0,100%,35%)" stroke-width="0.00189"></path>
<path d="M0.688 0.754 Q1.121 0.947 1.593 0.778" stroke="hsl(120.0,100%,35%)" stroke-width="0.00063"></path>
<path d="M0.688 0.754 Q0.326 0.718 0.176 0.887" stroke="hsl(120.0,100%,35%)" stroke-width="0.00063"></path>
<path d="M1.439 0.520 Q1.488 0.365 1.197 0.307" stroke="hsl(0.0,100%,35%)" stroke-width="0.01006"></path>
<path d="M1.439 0.520 Q1.154 0.467 0.988 0.594" stroke="hsl(0.0,100%,35%)" stroke-width="0.00189"></path>
<path d="M1.439 0.520 Q1.018 0.433 0.757 0.620" stroke="hsl(0.0,100%,35%)" stroke-width="0.00314"></path>
<path d="M1.439 0.520 Q1.764 0.567 1.927 0.419" stroke="hsl(0.0,100%,35%)" stroke-width="0.00063"></path>
<path d="M1.439 0.520 Q1.101 0.251 0.503 0.357" stroke="hsl(0.0,100%,35%)" stroke-width="0.00126"></path>
<path d="M1.927 0.419 Q1.603 0.372 1.439 0.520" stroke="hsl(0.0,100%,35%)" stroke-width="0.00189"></path>
<path d="M1.927 0.419 Q0.678 0.303 0.176 0.887" stroke="hsl(0.0,100%,35%)" stroke-width="0.00189"></path>
<path d="M1.927 0.419 Q1.656 0.494 1.741 0.642" stroke="hsl(0.0,100%,35%)" stroke-width="0.00251"></path>
<path d="M1.927 0.419 Q1.774 0.515 1.926 0.611" stroke="hsl(0.0,100%,35%)" stroke-width="0.00189"></path>
<path d="M1.927 0.419 Q1.652 0.217 1.197 0.307" stroke="hsl(0.0,100%,35%)" stroke-width="0.00126"></path>
<path d="M1.927 0.419 Q0.850 0.294 0.369 0.792" stroke="hsl(0.0,100%,35%)" stroke-width="0.00126"></path>
<path d="M1.927 0.419 Q1.182 0.285 0.757 0.620" stroke="hsl(0.0,100%,35%)" stroke-width="0.00063"></path>
<path d="M1.927 0.419 Q1.293 0.600 1.506 0.949" stroke="hsl(0.0,100%,35%)" stroke-width="0.00063"></path>
<path d="M0.757 0.620 Q0.893 0.653 0.988 0.594" stroke="hsl(0.0,100%,35%)" stroke-width="0.00943"></path>
<path d="M0.757 0.620 Q1.100 0.634 1.203 0.470" stroke="hsl(0.0,100%,35%)" stroke-width="0.00126"></path>
<path d="M0.757 0.620 Q0.864 0.559 0.768 0.493" stroke="hsl(0.0,100%,35%)" stroke-width="0.00943"></path>
<path d="M0.757 0.620 Q1.231 0.828 1.741 0.642" stroke="hsl(0.0,100%,35%)" stroke-width="0.00063"></path>
<path d="M0.757 0.620 Q1.178 0.706 1.439 0.520" stroke="hsl(0.0,100%,35%)" stroke-width="0.00440"></path>
<path d="M0.757 0.620 Q1.227 0.551 1.197 0.307" stroke="hsl(0.0,100%,35%)" stroke-width="0.00503"></path>
<path d="M0.757 0.620 Q0.653 0.432 0.263 0.441" stroke="hsl(0.0,100%,35%)" stroke-width="0.00189"></path>
<path d="M0.757 0.620 Q0.701 0.522 0.498 0.527" stroke="hsl(0.0,100%,35%)" stroke-width="0.00377"></path>
<path d="M0.757 0.620 Q0.372 0.713 0.470 0.921" stroke="hsl(0.0,100%,35%)" stroke-width="0.00063"></path>
<path d="M0.757 0.620 Q1.008 0.471 0.772 0.316" stroke="hsl(0.0,100%,35%)" stroke-width="0.00063"></path>
<path d="M0.757 0.620 Q0.840 0.437 0.503 0.357" stroke="hsl(0.0,100%,35%)" stroke-width="0.00063"></path>
<path d="M0.470 0.921 Q0.966 1.142 1.506 0.949" stroke="hsl(120.0,100%,35%)" stroke-width="0.00251"></path>
<path d="M0.470 0.921 Q0.962 0.767 0.768 0.493" stroke="hsl(120.0,100%,35%)" stroke-width="0.00063"></path>
<path d="M0.470 0.921 Q0.350 0.846 0.176 0.887" stroke="hsl(120.0,100%,35%)" stroke-width="0.00377"></path>
<path d="M0.470 0.921 Q0.713 0.881 0.688 0.754" stroke="hsl(120.0,100%,35%)" stroke-width="0.00063"></path>
<path d="M0.470 0.921 Q1.307 0.967 1.580 0.569" stroke="hsl(120.0,100%,35%)" stroke-width="0.00189"></path>
<path d="M0.470 0.921 Q1.328 1.036 1.741 0.642" stroke="hsl(120.0,100%,35%)" stroke-width="0.00126"></path>
<path d="M0.470 0.921 Q1.100 1.185 1.753 0.935" stroke="hsl(120.0,100%,35%)" stroke-width="0.00063"></path>
<path d="M1.926 0.611 Q1.808 0.590 1.741 0.642" stroke="hsl(120.0,100%,35%)" stroke-width="0.01194"></path>
<path d="M1.926 0.611 Q1.065 0.501 0.661 0.896" stroke="hsl(120.0,100%,35%)" stroke-width="0.00126"></path>
<path d="M1.926 0.611 Q1.625 0.628 1.593 0.778" stroke="hsl(120.0,100%,35%)" stroke-width="0.00377"></path>
<path d="M1.926 0.611 Q1.804 0.313 1.197 0.307" stroke="hsl(120.0,100%,35%)" stroke-width="0.00377"></path>
<path d="M1.926 0.611 Q1.787 0.521 1.580 0.569" stroke="hsl(120.0,100%,35%)" stroke-width="0.00063"></path>
<path d="M1.926 0.611 Q1.533 0.638 1.500 0.836" stroke="hsl(120.0,100%,35%)" stroke-width="0.00063"></path>
<path d="M1.926 0.611 Q1.002 0.390 0.369 0.792" stroke="hsl(120.0,100%,35%)" stroke-width="0.00063"></path>
<path d="M1.926 0.611 Q1.417 0.199 0.503 0.357" stroke="hsl(120.0,100%,35%)" stroke-width="0.00063"></path>
<path d="M1.926 0.611 Q0.830 0.399 0.176 0.887" stroke="hsl(120.0,100%,35%)" stroke-width="0.00063"></path>
<path d="M0.988 0.594 Q0.852 0.561 0.757 0.620" stroke="hsl(0.0,100%,35%)" stroke-width="0.01132"></path>
<path d="M0.988 0.594 Q0.748 0.373 0.263 0.441" stroke="hsl(0.0,100%,35%)" stroke-width="0.00503"></path>
<path d="M0.988 0.594 Q0.582 0.680 0.661 0.896" stroke="hsl(0.0,100%,35%)" stroke-width="0.00063"></path>
<path d="M0.988 0.594 Q1.321 0.492 1.197 0.307" stroke="hsl(0.0,100%,35%)" stroke-width="0.00126"></path>
<path d="M0.988 0.594 Q1.272 0.647 1.439 0.520" stroke="hsl(0.0,100%,35%)" stroke-width="0.00063"></path>
<path d="M0.988 0.594 Q0.796 0.463 0.498 0.527" stroke="hsl(0.0,100%,35%)" stroke-width="0.00063"></path>
<path d="M0.988 0.594 Q0.935 0.378 0.503 0.357" stroke="hsl(0.0,100%,35%)" stroke-width="0.00063"></path>
<path d="M0.988 0.594 Q1.102 0.412 0.772 0.316" stroke="hsl(0.0,100%,35%)" stroke-width="0.00189"></path>
<path d="M0.988 0.594 Q1.143 0.807 1.593 0.778" stroke="hsl(0.0,100%,35%)" stroke-width="0.00063"></path>
<path d="M0.988 0.594 Q0.467 0.654 0.470 0.921" stroke="hsl(0.0,100%,35%)" stroke-width="0.00251"></path>
<path d="M0.988 0.594 Q0.959 0.500 0.768 0.493" stroke="hsl(0.0,100%,35%)" stroke-width="0.00251"></path>
<path d="M0.988 0.594 Q1.097 0.918 1.753 0.935" stroke="hsl(0.0,100%,35%)" stroke-width="0.00063"></path>
<path d="M0.661 0.896 Q0.426 0.795 0.176 0.887" stroke="hsl(120.0,100%,35%)" stroke-width="0.00189"></path>
<path d="M0.661 0.896 Q0.598 0.786 0.369 0.792" stroke="hsl(120.0,100%,35%)" stroke-width="0.02514"></path>
<path d="M0.661 0.896 Q0.827 0.589 0.263 0.441" stroke="hsl(120.0,100%,35%)" stroke-width="0.01006"></path>
<path d="M0.661 0.896 Q1.404 0.985 1.741 0.642" stroke="hsl(120.0,100%,35%)" stroke-width="0.00817"></path>
<path d="M0.661 0.896 Q0.546 0.870 0.470 0.921" stroke="hsl(120.0,100%,35%)" stroke-width="0.01949"></path>
<path d="M0.661 0.896 Q1.351 0.864 1.439 0.520" stroke="hsl(120.0,100%,35%)" stroke-width="0.00126"></path>
<path d="M0.661 0.896 Q0.515 0.787 0.268 0.834" stroke="hsl(120.0,100%,35%)" stroke-width="0.00189"></path>
<path d="M0.661 0.896 Q1.400 0.709 1.197 0.307" stroke="hsl(120.0,100%,35%)" stroke-width="0.00189"></path>
<path d="M0.661 0.896 Q0.931 0.777 0.757 0.620" stroke="hsl(120.0,100%,35%)" stroke-width="0.00063"></path>
<path d="M0.661 0.896 Q1.181 0.628 0.772 0.316" stroke="hsl(120.0,100%,35%)" stroke-width="0.00189"></path>
<path d="M0.661 0.896 Q1.042 1.092 1.506 0.949" stroke="hsl(120.0,100%,35%)" stroke-width="0.00063"></path>
<path d="M0.661 0.896 Q0.789 0.831 0.688 0.754" stroke="hsl(120.0,100%,35%)" stroke-width="0.00063"></path>
<path d="M0.661 0.896 Q1.066 0.810 0.988 0.594" stroke="hsl(120.0,100%,35%)" stroke-width="0.00063"></path>
<path d="M1.580 0.569 Q0.743 0.523 0.470 0.921" stroke="hsl(120.0,100%,35%)" stroke-width="0.00063"></path>
<path d="M1.580 0.569 Q1.602 0.638 1.741 0.642" stroke="hsl(120.0,100%,35%)" stroke-width="0.00880"></path>
<path d="M1.580 0.569 Q1.597 0.361 1.197 0.307" stroke="hsl(120.0,100%,35%)" stroke-width="0.00126"></path>
<path d="M1.580 0.569 Q1.326 0.686 1.500 0.836" stroke="hsl(120.0,100%,35%)" stroke-width="0.00251"></path>
<path d="M1.580 0.569 Q1.419 0.676 1.593 0.778" stroke="hsl(120.0,100%,35%)" stroke-width="0.00063"></path>
<path d="M1.398 0.693 Q1.588 0.667 1.580 0.569" stroke="hsl(120.0,100%,35%)" stroke-width="0.00314"></path>
<path d="M1.398 0.693 Q1.335 0.785 1.500 0.836" stroke="hsl(120.0,100%,35%)" stroke-width="0.00251"></path>
<path d="M1.398 0.693 Q1.387 0.379 0.772 0.316" stroke="hsl(120.0,100%,35%)" stroke-width="0.00063"></path>
<path d="M1.500 0.836 Q1.754 0.718 1.580 0.569" stroke="hsl(120.0,100%,35%)" stroke-width="0.00063"></path>
<path d="M1.500 0.836 Q1.775 0.787 1.741 0.642" stroke="hsl(120.0,100%,35%)" stroke-width="0.00126"></path>
<path d="M1.500 0.836 Q2.047 0.713 1.927 0.419" stroke="hsl(120.0,100%,35%)" stroke-width="0.00126"></path>
<path d="M0.772 0.316 Q0.865 0.358 0.969 0.322" stroke="hsl(0.0,100%,35%)" stroke-width="0.01006"></path>
<path d="M0.772 0.316 Q0.521 0.465 0.757 0.620" stroke="hsl(0.0,100%,35%)" stroke-width="0.00063"></path>
<path d="M0.772 0.316 Q0.995 0.673 1.741 0.642" stroke="hsl(0.0,100%,35%)" stroke-width="0.00377"></path>
<path d="M0.772 0.316 Q0.806 0.255 0.696 0.225" stroke="hsl(0.0,100%,35%)" stroke-width="0.00063"></path>
<path d="M0.772 0.316 Q0.466 0.367 0.498 0.527" stroke="hsl(0.0,100%,35%)" stroke-width="0.00126"></path>
<path d="M0.772 0.316 Q0.136 0.558 0.470 0.921" stroke="hsl(0.0,100%,35%)" stroke-width="0.00063"></path>
<path d="M0.772 0.316 Q0.657 0.498 0.988 0.594" stroke="hsl(0.0,100%,35%)" stroke-width="0.00440"></path>
<path d="M0.772 0.316 Q0.417 0.277 0.263 0.441" stroke="hsl(0.0,100%,35%)" stroke-width="0.00314"></path>
<path d="M1.741 0.642 Q1.720 0.573 1.580 0.569" stroke="hsl(120.0,100%,35%)" stroke-width="0.00880"></path>
<path d="M1.741 0.642 Q0.935 0.443 0.369 0.792" stroke="hsl(120.0,100%,35%)" stroke-width="0.00314"></path>
<path d="M1.741 0.642 Q1.403 0.467 0.988 0.594" stroke="hsl(120.0,100%,35%)" stroke-width="0.00189"></path>
<path d="M1.741 0.642 Q1.688 0.521 1.439 0.520" stroke="hsl(120.0,100%,35%)" stroke-width="0.00377"></path>
<path d="M1.741 0.642 Q0.882 0.527 0.470 0.921" stroke="hsl(120.0,100%,35%)" stroke-width="0.00314"></path>
<path d="M1.741 0.642 Q1.558 0.681 1.593 0.778" stroke="hsl(120.0,100%,35%)" stroke-width="0.00126"></path>
<path d="M1.741 0.642 Q1.466 0.691 1.500 0.836" stroke="hsl(120.0,100%,35%)" stroke-width="0.00126"></path>
<path d="M1.741 0.642 Q1.518 0.285 0.772 0.316" stroke="hsl(120.0,100%,35%)" stroke-width="0.00189"></path>
<path d="M1.741 0.642 Q1.126 0.488 0.688 0.754" stroke="hsl(120.0,100%,35%)" stroke-width="0.00314"></path>
<path d="M1.741 0.642 Q1.683 0.715 1.812 0.759" stroke="hsl(120.0,100%,35%)" stroke-width="0.00126"></path>
<path d="M1.741 0.642 Q1.859 0.663 1.926 0.611" stroke="hsl(120.0,100%,35%)" stroke-width="0.00251"></path>
<path d="M1.741 0.642 Q1.163 0.246 0.263 0.441" stroke="hsl(120.0,100%,35%)" stroke-width="0.00126"></path>
<path d="M1.741 0.642 Q1.737 0.366 1.197 0.307" stroke="hsl(120.0,100%,35%)" stroke-width="0.00440"></path>
<path d="M1.741 0.642 Q1.267 0.434 0.757 0.620" stroke="hsl(120.0,100%,35%)" stroke-width="0.00063"></path>
<path d="M1.741 0.642 Q0.998 0.553 0.661 0.896" stroke="hsl(120.0,100%,35%)" stroke-width="0.00063"></path>
<path d="M0.369 0.792 Q1.349 0.628 1.243 0.114" stroke="hsl(120.0,100%,35%)" stroke-width="0.00063"></path>
<path d="M0.369 0.792 Q0.837 0.817 0.988 0.594" stroke="hsl(120.0,100%,35%)" stroke-width="0.00189"></path>
<path d="M0.369 0.792 Q1.153 0.923 1.580 0.569" stroke="hsl(120.0,100%,35%)" stroke-width="0.00314"></path>
<path d="M0.369 0.792 Q0.559 0.837 0.688 0.754" stroke="hsl(120.0,100%,35%)" stroke-width="0.00817"></path>
<path d="M0.369 0.792 Q1.175 0.992 1.741 0.642" stroke="hsl(120.0,100%,35%)" stroke-width="0.00377"></path>
<path d="M0.369 0.792 Q0.197 0.801 0.176 0.887" stroke="hsl(120.0,100%,35%)" stroke-width="0.00189"></path>
<path d="M0.369 0.792 Q1.122 0.870 1.439 0.520" stroke="hsl(120.0,100%,35%)" stroke-width="0.00126"></path>
<path d="M0.369 0.792 Q1.171 0.715 1.197 0.307" stroke="hsl(120.0,100%,35%)" stroke-width="0.00189"></path>
<path d="M0.369 0.792 Q0.992 1.030 1.593 0.778" stroke="hsl(120.0,100%,35%)" stroke-width="0.00251"></path>
<path d="M0.369 0.792 Q0.316 0.877 0.470 0.921" stroke="hsl(120.0,100%,35%)" stroke-width="0.00126"></path>
<path d="M0.176 0.887 Q0.296 0.963 0.470 0.921" stroke="hsl(120.0,100%,35%)" stroke-width="0.00440"></path>
<path d="M0.176 0.887 Q0.817 0.903 0.988 0.594" stroke="hsl(120.0,100%,35%)" stroke-width="0.00126"></path>
<path d="M0.176 0.887 Q1.101 0.956 1.439 0.520" stroke="hsl(120.0,100%,35%)" stroke-width="0.00063"></path>
<path d="M0.176 0.887 Q1.097 1.150 1.812 0.759" stroke="hsl(120.0,100%,35%)" stroke-width="0.00063"></path>
<path d="M0.176 0.887 Q1.155 1.078 1.741 0.642" stroke="hsl(120.0,100%,35%)" stroke-width="0.00063"></path>
<path d="M0.176 0.887 Q0.792 1.184 1.506 0.949" stroke="hsl(120.0,100%,35%)" stroke-width="0.00189"></path>
<path d="M0.176 0.887 Q1.150 0.801 1.197 0.307" stroke="hsl(120.0,100%,35%)" stroke-width="0.00251"></path>
<path d="M0.176 0.887 Q0.349 0.878 0.369 0.792" stroke="hsl(120.0,100%,35%)" stroke-width="0.00126"></path>
<path d="M1.203 0.470 Q1.111 0.306 0.772 0.316" stroke="hsl(0.0,100%,35%)" stroke-width="0.00126"></path>
<path d="M1.203 0.470 Q0.756 0.267 0.263 0.441" stroke="hsl(0.0,100%,35%)" stroke-width="0.00251"></path>
<path d="M1.203 0.470 Q1.327 0.425 1.267 0.355" stroke="hsl(0.0,100%,35%)" stroke-width="0.00063"></path>
<path d="M1.203 0.470 Q1.281 0.542 1.439 0.520" stroke="hsl(0.0,100%,35%)" stroke-width="0.00126"></path>
<path d="M1.203 0.470 Q1.330 0.387 1.197 0.307" stroke="hsl(0.0,100%,35%)" stroke-width="0.00503"></path>
<path d="M1.203 0.470 Q0.967 0.394 0.768 0.493" stroke="hsl(0.0,100%,35%)" stroke-width="0.00251"></path>
<path d="M1.203 0.470 Q0.943 0.273 0.503 0.357" stroke="hsl(0.0,100%,35%)" stroke-width="0.00063"></path>
<path d="M1.203 0.470 Q0.996 0.489 0.988 0.594" stroke="hsl(0.0,100%,35%)" stroke-width="0.00063"></path>
<path d="M0.768 0.493 Q0.797 0.587 0.988 0.594" stroke="hsl(0.0,100%,35%)" stroke-width="0.00691"></path>
<path d="M0.768 0.493 Q0.715 0.305 0.336 0.290" stroke="hsl(0.0,100%,35%)" stroke-width="0.00189"></path>
<path d="M0.768 0.493 Q0.745 0.372 0.503 0.357" stroke="hsl(0.0,100%,35%)" stroke-width="0.00063"></path>
<path d="M0.768 0.493 Q0.661 0.554 0.757 0.620" stroke="hsl(0.0,100%,35%)" stroke-width="0.00691"></path>
<path d="M0.768 0.493 Q0.557 0.366 0.263 0.441" stroke="hsl(0.0,100%,35%)" stroke-width="0.00063"></path>
<path d="M0.768 0.493 Q1.131 0.486 1.197 0.307" stroke="hsl(0.0,100%,35%)" stroke-width="0.00063"></path>
<path d="M1.197 0.307 Q0.863 0.409 0.988 0.594" stroke="hsl(0.0,100%,35%)" stroke-width="0.00314"></path>
<path d="M1.197 0.307 Q0.727 0.376 0.757 0.620" stroke="hsl(0.0,100%,35%)" stroke-width="0.02326"></path>
<path d="M1.197 0.307 Q1.148 0.462 1.439 0.520" stroke="hsl(0.0,100%,35%)" stroke-width="0.01697"></path>
<path d="M1.197 0.307 Q0.834 0.314 0.768 0.493" stroke="hsl(0.0,100%,35%)" stroke-width="0.00189"></path>
<path d="M1.197 0.307 Q1.179 0.515 1.580 0.569" stroke="hsl(0.0,100%,35%)" stroke-width="0.00063"></path>
<path d="M1.197 0.307 Q1.201 0.584 1.741 0.642" stroke="hsl(0.0,100%,35%)" stroke-width="0.00251"></path>
<path d="M1.197 0.307 Q1.070 0.390 1.203 0.470" stroke="hsl(0.0,100%,35%)" stroke-width="0.00063"></path>
<path d="M1.197 0.307 Q0.978 0.227 0.772 0.316" stroke="hsl(0.0,100%,35%)" stroke-width="0.00063"></path>
<path d="M1.820 0.192 Q1.421 0.402 1.741 0.642" stroke="hsl(120.0,100%,35%)" stroke-width="0.00063"></path>
<path d="M1.820 0.192 Q1.768 0.066 1.510 0.063" stroke="hsl(120.0,100%,35%)" stroke-width="0.00503"></path>
<path d="M1.820 0.192 Q1.192 0.550 1.753 0.935" stroke="hsl(120.0,100%,35%)" stroke-width="0.00063"></path>
<path d="M1.820 0.192 Q1.684 0.101 1.477 0.147" stroke="hsl(120.0,100%,35%)" stroke-width="0.00314"></path>
<path d="M1.820 0.192 Q1.058 0.508 1.506 0.949" stroke="hsl(120.0,100%,35%)" stroke-width="0.00126"></path>
<path d="M1.510 0.063 Q1.426 0.099 1.477 0.147" stroke="hsl(120.0,100%,35%)" stroke-width="0.00566"></path>
<path d="M1.510 0.063 Q1.162 0.399 1.741 0.642" stroke="hsl(120.0,100%,35%)" stroke-width="0.00063"></path>
<path d="M1.510 0.063 Q1.432 0.165 1.614 0.225" stroke="hsl(120.0,100%,35%)" stroke-width="0.00063"></path>
<path d="M1.510 0.063 Q1.561 0.190 1.820 0.192" stroke="hsl(120.0,100%,35%)" stroke-width="0.00063"></path>
<path d="M1.648 0.393 Q0.689 0.337 0.369 0.792" stroke="hsl(120.0,100%,35%)" stroke-width="0.00063"></path>
<path d="M1.648 0.393 Q1.767 0.462 1.927 0.419" stroke="hsl(120.0,100%,35%)" stroke-width="0.00063"></path>
<path d="M1.648 0.393 Q0.636 0.422 0.470 0.921" stroke="hsl(120.0,100%,35%)" stroke-width="0.00063"></path>
<path d="M0.964 0.733 Q0.883 0.845 1.084 0.910" stroke="hsl(0.0,100%,35%)" stroke-width="0.00063"></path>
<path d="M0.964 0.733 Q1.004 0.386 0.336 0.290" stroke="hsl(0.0,100%,35%)" stroke-width="0.00251"></path>
<path d="M0.964 0.733 Q1.068 0.747 1.119 0.699" stroke="hsl(0.0,100%,35%)" stroke-width="0.00063"></path>
<path d="M0.964 0.733 Q1.087 0.668 0.988 0.594" stroke="hsl(0.0,100%,35%)" stroke-width="0.00126"></path>
<path d="M0.964 0.733 Q1.092 0.764 1.181 0.709" stroke="hsl(0.0,100%,35%)" stroke-width="0.00126"></path>
<path d="M0.964 0.733 Q1.150 0.891 1.500 0.836" stroke="hsl(0.0,100%,35%)" stroke-width="0.00063"></path>
<path d="M0.964 0.733 Q0.619 0.644 0.369 0.792" stroke="hsl(0.0,100%,35%)" stroke-width="0.00063"></path>
<path d="M1.243 0.114 Q1.304 0.071 1.234 0.031" stroke="hsl(0.0,100%,35%)" stroke-width="0.00314"></path>
<path d="M1.243 0.114 Q1.069 0.478 1.741 0.642" stroke="hsl(0.0,100%,35%)" stroke-width="0.00251"></path>
<path d="M1.243 0.114 Q0.263 0.278 0.369 0.792" stroke="hsl(0.0,100%,35%)" stroke-width="0.00063"></path>
<path d="M1.243 0.114 Q0.846 0.120 0.772 0.316" stroke="hsl(0.0,100%,35%)" stroke-width="0.00063"></path>
<path d="M1.243 0.114 Q0.736 0.399 1.181 0.709" stroke="hsl(0.0,100%,35%)" stroke-width="0.00063"></path>
<path d="M1.243 0.114 Q1.187 0.499 1.926 0.611" stroke="hsl(0.0,100%,35%)" stroke-width="0.00063"></path>
<path d="M1.243 0.114 Q0.712 0.382 1.119 0.699" stroke="hsl(0.0,100%,35%)" stroke-width="0.00063"></path>
<path d="M1.243 0.114 Q1.340 0.403 1.927 0.419" stroke="hsl(0.0,100%,35%)" stroke-width="0.00126"></path>
<path d="M1.243 0.114 Q0.794 0.526 1.500 0.836" stroke="hsl(0.0,100%,35%)" stroke-width="0.00063"></path>
<path d="M1.593 0.778 Q1.772 0.463 1.197 0.307" stroke="hsl(120.0,100%,35%)" stroke-width="0.01006"></path>
<path d="M1.593 0.778 Q1.893 0.761 1.926 0.611" stroke="hsl(120.0,100%,35%)" stroke-width="0.00314"></path>
<path d="M1.593 0.778 Q1.754 0.671 1.580 0.569" stroke="hsl(120.0,100%,35%)" stroke-width="0.00440"></path>
<path d="M1.593 0.778 Q1.776 0.740 1.741 0.642" stroke="hsl(120.0,100%,35%)" stroke-width="0.00754"></path>
<path d="M1.593 0.778 Q0.970 0.540 0.369 0.792" stroke="hsl(120.0,100%,35%)" stroke-width="0.00314"></path>
<path d="M1.593 0.778 Q1.438 0.565 0.988 0.594" stroke="hsl(120.0,100%,35%)" stroke-width="0.00126"></path>
<path d="M1.593 0.778 Q1.198 0.344 0.263 0.441" stroke="hsl(120.0,100%,35%)" stroke-width="0.00063"></path>
<path d="M1.593 0.778 Q1.500 0.788 1.500 0.836" stroke="hsl(120.0,100%,35%)" stroke-width="0.00126"></path>
<path d="M1.753 0.935 Q1.618 0.892 1.506 0.949" stroke="hsl(120.0,100%,35%)" stroke-width="0.00943"></path>
<path d="M1.753 0.935 Q1.123 0.671 0.470 0.921" stroke="hsl(120.0,100%,35%)" stroke-width="0.01069"></path>
<path d="M1.753 0.935 Q1.928 0.665 1.439 0.520" stroke="hsl(120.0,100%,35%)" stroke-width="0.00189"></path>
<path d="M1.753 0.935 Q1.643 0.611 0.988 0.594" stroke="hsl(120.0,100%,35%)" stroke-width="0.00063"></path>
<path d="M1.753 0.935 Q1.706 0.835 1.500 0.836" stroke="hsl(120.0,100%,35%)" stroke-width="0.00314"></path>
<path d="M1.753 0.935 Q1.591 0.396 0.503 0.357" stroke="hsl(120.0,100%,35%)" stroke-width="0.00126"></path>
<path d="M1.753 0.935 Q1.003 0.596 0.176 0.887" stroke="hsl(120.0,100%,35%)" stroke-width="0.00063"></path>
<path d="M1.753 0.935 Q1.917 0.891 1.867 0.802" stroke="hsl(120.0,100%,35%)" stroke-width="0.00063"></path>
<path d="M1.753 0.935 Q1.175 0.587 0.369 0.792" stroke="hsl(120.0,100%,35%)" stroke-width="0.00063"></path>
<path d="M1.753 0.935 Q1.981 0.786 1.741 0.642" stroke="hsl(120.0,100%,35%)" stroke-width="0.00063"></path>
<path d="M1.753 0.935 Q2.329 0.450 1.510 0.063" stroke="hsl(120.0,100%,35%)" stroke-width="0.00126"></path>
<path d="M1.753 0.935 Q1.977 0.510 1.197 0.307" stroke="hsl(120.0,100%,35%)" stroke-width="0.00126"></path>
<path d="M1.753 0.935 Q1.508 0.578 0.757 0.620" stroke="hsl(120.0,100%,35%)" stroke-width="0.00063"></path>
<path d="M0.860 0.160 Q0.915 0.578 1.741 0.642" stroke="hsl(120.0,100%,35%)" stroke-width="0.00063"></path>
<path d="M0.860 0.160 Q1.089 0.213 1.243 0.114" stroke="hsl(120.0,100%,35%)" stroke-width="0.00126"></path>
<path d="M0.860 0.160 Q0.552 0.684 1.506 0.949" stroke="hsl(120.0,100%,35%)" stroke-width="0.00063"></path>
<path d="M0.860 0.160 Q0.577 0.403 0.988 0.594" stroke="hsl(120.0,100%,35%)" stroke-width="0.00063"></path>
<path d="M0.121 0.733 Q0.253 0.733 0.281 0.668" stroke="hsl(0.0,100%,35%)" stroke-width="0.01194"></path>
<path d="M0.121 0.733 Q0.999 0.736 1.197 0.307" stroke="hsl(0.0,100%,35%)" stroke-width="0.00126"></path>
<path d="M0.121 0.733 Q0.950 0.890 1.439 0.520" stroke="hsl(0.0,100%,35%)" stroke-width="0.00377"></path>
<path d="M0.121 0.733 Q0.666 0.837 0.988 0.594" stroke="hsl(0.0,100%,35%)" stroke-width="0.00063"></path>
<path d="M0.121 0.733 Q0.530 0.804 0.757 0.620" stroke="hsl(0.0,100%,35%)" stroke-width="0.00251"></path>
<path d="M0.121 0.733 Q0.145 0.897 0.470 0.921" stroke="hsl(0.0,100%,35%)" stroke-width="0.00126"></path>
<path d="M0.121 0.733 Q0.260 0.923 0.661 0.896" stroke="hsl(0.0,100%,35%)" stroke-width="0.00063"></path>
<path d="M0.121 0.733 Q0.286 0.693 0.243 0.603" stroke="hsl(0.0,100%,35%)" stroke-width="0.00314"></path>
<path d="M0.121 0.733 Q0.114 0.813 0.268 0.834" stroke="hsl(0.0,100%,35%)" stroke-width="0.00126"></path>
<path d="M0.121 0.733 Q0.198 0.812 0.369 0.792" stroke="hsl(0.0,100%,35%)" stroke-width="0.00063"></path>
<path d="M0.121 0.733 Q0.583 0.555 0.336 0.290" stroke="hsl(0.0,100%,35%)" stroke-width="0.00063"></path>
<path d="M0.121 0.733 Q0.426 0.616 0.263 0.441" stroke="hsl(0.0,100%,35%)" stroke-width="0.00063"></path>
<path d="M0.121 0.733 Q1.004 1.012 1.741 0.642" stroke="hsl(0.0,100%,35%)" stroke-width="0.00063"></path>
<path d="M0.121 0.733 Q0.613 0.621 0.503 0.357" stroke="hsl(0.0,100%,35%)" stroke-width="0.00063"></path>
<path d="M0.121 0.733 Q0.982 0.943 1.580 0.569" stroke="hsl(0.0,100%,35%)" stroke-width="0.00063"></path>
<path d="M0.268 0.834 Q0.415 0.944 0.661 0.896" stroke="hsl(120.0,100%,35%)" stroke-width="0.00126"></path>
<path d="M0.268 0.834 Q1.158 1.033 1.741 0.642" stroke="hsl(120.0,100%,35%)" stroke-width="0.00063"></path>
<path d="M0.268 0.834 Q0.180 0.842 0.176 0.887" stroke="hsl(120.0,100%,35%)" stroke-width="0.00314"></path>
<path d="M0.268 0.834 Q1.276 1.054 1.926 0.611" stroke="hsl(120.0,100%,35%)" stroke-width="0.00063"></path>
<path d="M0.268 0.834 Q0.299 0.918 0.470 0.921" stroke="hsl(120.0,100%,35%)" stroke-width="0.00377"></path>
<path d="M0.268 0.834 Q0.352 0.833 0.369 0.792" stroke="hsl(120.0,100%,35%)" stroke-width="0.00126"></path>
<path d="M0.268 0.834 Q0.930 1.182 1.753 0.935" stroke="hsl(120.0,100%,35%)" stroke-width="0.00063"></path>
<path d="M0.268 0.834 Q0.795 1.139 1.506 0.949" stroke="hsl(120.0,100%,35%)" stroke-width="0.00063"></path>
<path d="M0.942 0.210 Q1.169 0.222 1.243 0.114" stroke="hsl(120.0,100%,35%)" stroke-width="0.00189"></path>
<path d="M0.942 0.210 Q0.189 0.386 0.369 0.792" stroke="hsl(120.0,100%,35%)" stroke-width="0.00063"></path>
<path d="M0.942 0.210 Q0.720 0.634 1.500 0.836" stroke="hsl(120.0,100%,35%)" stroke-width="0.00126"></path>
<path d="M1.408 0.192 Q1.486 0.410 1.927 0.419" stroke="hsl(120.0,100%,35%)" stroke-width="0.00063"></path>
<path d="M1.408 0.192 Q1.485 0.250 1.614 0.225" stroke="hsl(120.0,100%,35%)" stroke-width="0.00063"></path>
<path d="M1.408 0.192 Q1.388 0.120 1.243 0.114" stroke="hsl(120.0,100%,35%)" stroke-width="0.00063"></path>
<path d="M1.234 0.031 Q1.173 0.074 1.243 0.114" stroke="hsl(0.0,100%,35%)" stroke-width="0.00503"></path>
<path d="M1.234 0.031 Q0.666 0.359 1.181 0.709" stroke="hsl(0.0,100%,35%)" stroke-width="0.00063"></path>
<path d="M1.234 0.031 Q0.869 0.124 0.969 0.322" stroke="hsl(0.0,100%,35%)" stroke-width="0.00189"></path>
<path d="M1.007 0.087 Q0.655 0.560 1.500 0.836" stroke="hsl(0.0,100%,35%)" stroke-width="0.00063"></path>
<path d="M1.007 0.087 Q1.104 0.148 1.243 0.114" stroke="hsl(0.0,100%,35%)" stroke-width="0.00126"></path>
<path d="M1.007 0.087 Q1.278 0.176 1.510 0.063" stroke="hsl(0.0,100%,35%)" stroke-width="0.00063"></path>
<path d="M1.542 0.700 Q1.666 0.642 1.580 0.569" stroke="hsl(120.0,100%,35%)" stroke-width="0.00063"></path>
<path d="M1.542 0.700 Q1.412 0.760 1.500 0.836" stroke="hsl(120.0,100%,35%)" stroke-width="0.00063"></path>
<path d="M1.542 0.700 Q1.688 0.711 1.741 0.642" stroke="hsl(120.0,100%,35%)" stroke-width="0.00063"></path>
<path d="M1.291 0.888 Q1.185 0.795 0.981 0.826" stroke="hsl(240.0,100%,35%)" stroke-width="0.01320"></path>
<path d="M1.291 0.888 Q1.830 0.876 1.926 0.611" stroke="hsl(240.0,100%,35%)" stroke-width="0.00126"></path>
<path d="M1.291 0.888 Q1.135 0.459 0.263 0.441" stroke="hsl(240.0,100%,35%)" stroke-width="0.00063"></path>
<path d="M1.291 0.888 Q0.906 0.656 0.369 0.792" stroke="hsl(240.0,100%,35%)" stroke-width="0.00063"></path>
<path d="M1.291 0.888 Q1.292 0.398 0.336 0.290" stroke="hsl(240.0,100%,35%)" stroke-width="0.00063"></path>
<path d="M1.291 0.888 Q1.409 0.798 1.259 0.720" stroke="hsl(240.0,100%,35%)" stroke-width="0.00063"></path>
<path d="M1.291 0.888 Q1.374 0.680 0.988 0.594" stroke="hsl(240.0,100%,35%)" stroke-width="0.00063"></path>
<path d="M1.291 0.888 Q1.708 0.579 1.197 0.307" stroke="hsl(240.0,100%,35%)" stroke-width="0.00063"></path>
<path d="M0.516 0.699 Q1.291 0.937 1.926 0.611" stroke="hsl(120.0,100%,35%)" stroke-width="0.00063"></path>
<path d="M0.516 0.699 Q1.173 0.916 1.741 0.642" stroke="hsl(120.0,100%,35%)" stroke-width="0.00126"></path>
<path d="M0.516 0.699 Q1.120 0.794 1.439 0.520" stroke="hsl(120.0,100%,35%)" stroke-width="0.00251"></path>
<path d="M0.516 0.699 Q0.596 0.519 0.263 0.441" stroke="hsl(120.0,100%,35%)" stroke-width="0.00314"></path>
<path d="M0.516 0.699 Q0.807 0.646 0.768 0.493" stroke="hsl(120.0,100%,35%)" stroke-width="0.00063"></path>
<path d="M0.516 0.699 Q0.367 0.716 0.369 0.792" stroke="hsl(120.0,100%,35%)" stroke-width="0.00314"></path>
<path d="M0.516 0.699 Q0.315 0.801 0.470 0.921" stroke="hsl(120.0,100%,35%)" stroke-width="0.00251"></path>
<path d="M0.516 0.699 Q0.430 0.827 0.661 0.896" stroke="hsl(120.0,100%,35%)" stroke-width="0.00063"></path>
<path d="M0.516 0.699 Q0.700 0.707 0.757 0.620" stroke="hsl(120.0,100%,35%)" stroke-width="0.00126"></path>
<path d="M0.516 0.699 Q0.753 0.458 0.336 0.290" stroke="hsl(120.0,100%,35%)" stroke-width="0.00063"></path>
<path d="M0.516 0.699 Q0.835 0.741 0.988 0.594" stroke="hsl(120.0,100%,35%)" stroke-width="0.00063"></path>
<path d="M0.516 0.699 Q1.169 0.639 1.197 0.307" stroke="hsl(120.0,100%,35%)" stroke-width="0.00063"></path>
</g>
<text x="0.503" y="0.337" font-size="0.039674" fill="hsl(0.0,100%,20%)">ahaas</text>
<text x="0.336" y="0.275" font-size="0.030395" fill="hsl(0.0,100%,20%)">thibaudm</text>
<text x="0.498" y="0.516" font-size="0.023398" fill="hsl(0.0,100%,20%)">evih</text>
<text x="0.263" y="0.416" font-size="0.049979" fill="hsl(0.0,100%,20%)">clemensb</text>
<text x="0.688" y="0.741" font-size="0.026485" fill="hsl(120.0,100%,20%)">pthier</text>
<text x="1.439" y="0.500" font-size="0.040103" fill="hsl(0.0,100%,20%)">nicohartmann</text>
<text x="1.927" y="0.408" font-size="0.021887" fill="hsl(0.0,100%,20%)">marja</text>
<text x="0.757" y="0.593" font-size="0.053292" fill="hsl(0.0,100%,20%)">mliedtke</text>
<text x="0.470" y="0.900" font-size="0.041978" fill="hsl(120.0,100%,20%)">mlippautz</text>
<text x="1.926" y="0.595" font-size="0.031771" fill="hsl(120.0,100%,20%)">victorgomes</text>
<text x="0.988" y="0.571" font-size="0.046429" fill="hsl(0.0,100%,20%)">jkummerow</text>
<text x="0.661" y="0.872" font-size="0.047881" fill="hsl(120.0,100%,20%)">saelo</text>
<text x="1.580" y="0.552" font-size="0.032569" fill="hsl(120.0,100%,20%)">verwaest</text>
<text x="1.398" y="0.687" font-size="0.013080" fill="hsl(120.0,100%,20%)">carlscab</text>
<text x="1.500" y="0.823" font-size="0.024470" fill="hsl(120.0,100%,20%)">cbruni</text>
<text x="0.772" y="0.300" font-size="0.031771" fill="hsl(0.0,100%,20%)">machenbach</text>
<text x="1.741" y="0.616" font-size="0.052970" fill="hsl(120.0,100%,20%)">leszeks</text>
<text x="0.369" y="0.769" font-size="0.045873" fill="hsl(120.0,100%,20%)">ishell</text>
<text x="0.176" y="0.873" font-size="0.028053" fill="hsl(120.0,100%,20%)">dinfuehr</text>
<text x="1.203" y="0.459" font-size="0.022274" fill="hsl(0.0,100%,20%)">dlehmann</text>
<text x="0.768" y="0.477" font-size="0.032039" fill="hsl(0.0,100%,20%)">manoskouk</text>
<text x="1.197" y="0.281" font-size="0.053292" fill="hsl(0.0,100%,20%)">dmercadier</text>
<text x="1.820" y="0.183" font-size="0.018030" fill="hsl(120.0,100%,20%)">leese</text>
<text x="1.812" y="0.755" font-size="0.008273" fill="hsl(120.0,100%,20%)">bikineev</text>
<text x="1.510" y="0.053" font-size="0.020263" fill="hsl(120.0,100%,20%)">szuend</text>
<text x="1.506" y="0.937" font-size="0.023030" fill="hsl(120.0,100%,20%)">omerkatz</text>
<text x="1.267" y="0.353" font-size="0.004136" fill="hsl(0.0,100%,20%)">hao.a.xu</text>
<text x="1.648" y="0.390" font-size="0.007164" fill="hsl(120.0,100%,20%)">emromero</text>
<text x="0.964" y="0.726" font-size="0.014328" fill="hsl(0.0,100%,20%)">fgm</text>
<text x="1.084" y="0.908" font-size="0.004136" fill="hsl(0.0,100%,20%)">irezvov</text>
<text x="1.119" y="0.696" font-size="0.007164" fill="hsl(0.0,100%,20%)">gdeepti</text>
<text x="1.181" y="0.704" font-size="0.008273" fill="hsl(0.0,100%,20%)">adamk</text>
<text x="1.243" y="0.101" font-size="0.024818" fill="hsl(0.0,100%,20%)">syg</text>
<text x="1.593" y="0.762" font-size="0.033348" fill="hsl(120.0,100%,20%)">olivf</text>
<text x="1.753" y="0.920" font-size="0.030953" fill="hsl(120.0,100%,20%)">nikolaos</text>
<text x="1.477" y="0.140" font-size="0.015476" fill="hsl(120.0,100%,20%)">bmeurer</text>
<text x="0.860" y="0.156" font-size="0.009249" fill="hsl(120.0,100%,20%)">lpardosixtos</text>
<text x="0.969" y="0.313" font-size="0.018030" fill="hsl(0.0,100%,20%)">liviurau</text>
<text x="0.696" y="0.223" font-size="0.004136" fill="hsl(0.0,100%,20%)">hpayer</text>
<text x="0.121" y="0.719" font-size="0.028657" fill="hsl(0.0,100%,20%)">mfarazma</text>
<text x="0.281" y="0.659" font-size="0.018030" fill="hsl(0.0,100%,20%)">junyan</text>
<text x="0.243" y="0.598" font-size="0.009249" fill="hsl(0.0,100%,20%)">midawson</text>
<text x="0.268" y="0.824" font-size="0.020263" fill="hsl(120.0,100%,20%)">sroettger</text>
<text x="1.867" y="0.800" font-size="0.004136" fill="hsl(120.0,100%,20%)">yangguo</text>
<text x="0.942" y="0.205" font-size="0.010132" fill="hsl(120.0,100%,20%)">nribaudo</text>
<text x="1.408" y="0.189" font-size="0.007164" fill="hsl(120.0,100%,20%)">pkasting</text>
<text x="1.614" y="0.222" font-size="0.005850" fill="hsl(120.0,100%,20%)">pfaffe</text>
<text x="1.234" y="0.023" font-size="0.017054" fill="hsl(0.0,100%,20%)">rezvan</text>
<text x="1.007" y="0.083" font-size="0.008273" fill="hsl(0.0,100%,20%)">seokho</text>
<text x="1.542" y="0.697" font-size="0.007164" fill="hsl(120.0,100%,20%)">seth.brenith</text>
<text x="1.291" y="0.877" font-size="0.022274" fill="hsl(240.0,100%,20%)">yahan</text>
<text x="0.981" y="0.817" font-size="0.018955" fill="hsl(240.0,100%,20%)">qiuji</text>
<text x="1.259" y="0.718" font-size="0.004136" fill="hsl(240.0,100%,20%)">mseaborn</text>
<text x="0.516" y="0.688" font-size="0.021887" fill="hsl(120.0,100%,20%)">zhaojiazhong-hf</text>
</svg>
