<svg width="4000" height="2000" viewBox="-0.025 -0.025 2.05 1.05" xmlns="http://www.w3.org/2000/svg">
  <style>
    path {
      fill: none;
      stroke-linecap: round;
      stroke-opacity: 0.4;
    }

    text {
      text-anchor: middle;
      alignment-baseline: hanging;
    }
  </style>
  <g opacity="0.4">
<path d="M0.666 0.937 Q0.426 0.819 0.143 0.910" stroke="hsl(0.0,100%,35%)" stroke-width="0.00304"></path>
<path d="M0.666 0.937 Q1.334 0.694 1.006 0.314" stroke="hsl(0.0,100%,35%)" stroke-width="0.00304"></path>
<path d="M0.666 0.937 Q0.568 0.864 0.404 0.896" stroke="hsl(0.0,100%,35%)" stroke-width="0.00122"></path>
<path d="M0.666 0.937 Q1.301 1.021 1.604 0.730" stroke="hsl(0.0,100%,35%)" stroke-width="0.00061"></path>
<path d="M0.666 0.937 Q1.732 0.647 1.400 0.063" stroke="hsl(0.0,100%,35%)" stroke-width="0.00061"></path>
<path d="M0.666 0.937 Q1.462 1.005 1.770 0.632" stroke="hsl(0.0,100%,35%)" stroke-width="0.00122"></path>
<path d="M0.666 0.937 Q1.464 0.685 1.148 0.241" stroke="hsl(0.0,100%,35%)" stroke-width="0.00304"></path>
<path d="M0.666 0.937 Q0.936 0.984 1.086 0.863" stroke="hsl(0.0,100%,35%)" stroke-width="0.00061"></path>
<path d="M0.666 0.937 Q1.497 0.970 1.743 0.571" stroke="hsl(0.0,100%,35%)" stroke-width="0.00061"></path>
<path d="M0.666 0.937 Q1.500 0.606 1.037 0.126" stroke="hsl(0.0,100%,35%)" stroke-width="0.00061"></path>
<path d="M0.666 0.937 Q1.333 0.616 0.853 0.220" stroke="hsl(0.0,100%,35%)" stroke-width="0.00061"></path>
<path d="M0.143 0.910 Q1.050 0.707 0.853 0.220" stroke="hsl(0.0,100%,35%)" stroke-width="0.00304"></path>
<path d="M0.143 0.910 Q0.215 0.873 0.159 0.829" stroke="hsl(0.0,100%,35%)" stroke-width="0.00061"></path>
<path d="M0.143 0.910 Q1.217 0.697 1.037 0.126" stroke="hsl(0.0,100%,35%)" stroke-width="0.00365"></path>
<path d="M0.143 0.910 Q0.284 0.955 0.404 0.896" stroke="hsl(0.0,100%,35%)" stroke-width="0.00487"></path>
<path d="M0.143 0.910 Q1.035 0.981 1.369 0.561" stroke="hsl(0.0,100%,35%)" stroke-width="0.00609"></path>
<path d="M0.143 0.910 Q0.382 1.028 0.666 0.937" stroke="hsl(0.0,100%,35%)" stroke-width="0.00426"></path>
<path d="M0.143 0.910 Q1.448 0.738 1.400 0.063" stroke="hsl(0.0,100%,35%)" stroke-width="0.00061"></path>
<path d="M0.143 0.910 Q1.181 0.776 1.148 0.241" stroke="hsl(0.0,100%,35%)" stroke-width="0.00061"></path>
<path d="M1.006 0.314 Q1.403 0.268 1.400 0.063" stroke="hsl(0.0,100%,35%)" stroke-width="0.00061"></path>
<path d="M1.006 0.314 Q1.136 0.306 1.148 0.241" stroke="hsl(0.0,100%,35%)" stroke-width="0.00548"></path>
<path d="M1.006 0.314 Q1.005 0.236 0.853 0.220" stroke="hsl(0.0,100%,35%)" stroke-width="0.00426"></path>
<path d="M0.404 0.896 Q0.263 0.851 0.143 0.910" stroke="hsl(0.0,100%,35%)" stroke-width="0.01035"></path>
<path d="M0.404 0.896 Q1.155 0.922 1.369 0.561" stroke="hsl(0.0,100%,35%)" stroke-width="0.00183"></path>
<path d="M0.404 0.896 Q0.745 1.123 1.263 1.007" stroke="hsl(0.0,100%,35%)" stroke-width="0.00122"></path>
<path d="M0.404 0.896 Q0.986 0.976 1.269 0.710" stroke="hsl(0.0,100%,35%)" stroke-width="0.00365"></path>
<path d="M0.404 0.896 Q0.502 0.969 0.666 0.937" stroke="hsl(0.0,100%,35%)" stroke-width="0.01218"></path>
<path d="M0.404 0.896 Q1.170 0.648 0.853 0.220" stroke="hsl(0.0,100%,35%)" stroke-width="0.00792"></path>
<path d="M0.404 0.896 Q0.949 0.467 0.231 0.107" stroke="hsl(0.0,100%,35%)" stroke-width="0.00122"></path>
<path d="M0.404 0.896 Q1.051 0.755 0.916 0.408" stroke="hsl(0.0,100%,35%)" stroke-width="0.00122"></path>
<path d="M0.404 0.896 Q1.337 0.638 1.037 0.126" stroke="hsl(0.0,100%,35%)" stroke-width="0.00122"></path>
<path d="M0.404 0.896 Q0.772 1.016 1.086 0.863" stroke="hsl(0.0,100%,35%)" stroke-width="0.00122"></path>
<path d="M0.404 0.896 Q1.383 0.904 1.613 0.428" stroke="hsl(0.0,100%,35%)" stroke-width="0.00183"></path>
<path d="M0.404 0.896 Q1.545 0.793 1.594 0.214" stroke="hsl(0.0,100%,35%)" stroke-width="0.00061"></path>
<path d="M0.404 0.896 Q1.278 1.129 1.924 0.754" stroke="hsl(0.0,100%,35%)" stroke-width="0.00061"></path>
<path d="M0.404 0.896 Q1.346 0.535 0.849 -0.003" stroke="hsl(0.0,100%,35%)" stroke-width="0.00061"></path>
<path d="M0.404 0.896 Q0.631 0.998 0.880 0.910" stroke="hsl(0.0,100%,35%)" stroke-width="0.00061"></path>
<path d="M0.404 0.896 Q1.568 0.679 1.400 0.063" stroke="hsl(0.0,100%,35%)" stroke-width="0.00183"></path>
<path d="M0.404 0.896 Q1.301 0.717 1.148 0.241" stroke="hsl(0.0,100%,35%)" stroke-width="0.00244"></path>
<path d="M0.404 0.896 Q1.391 0.575 0.981 0.023" stroke="hsl(0.0,100%,35%)" stroke-width="0.00061"></path>
<path d="M0.404 0.896 Q0.694 1.065 1.087 0.961" stroke="hsl(0.0,100%,35%)" stroke-width="0.00061"></path>
<path d="M0.404 0.896 Q1.137 1.053 1.604 0.730" stroke="hsl(0.0,100%,35%)" stroke-width="0.00061"></path>
<path d="M1.604 0.730 Q1.745 0.806 1.924 0.754" stroke="hsl(120.0,100%,35%)" stroke-width="0.00304"></path>
<path d="M1.604 0.730 Q2.109 0.537 1.842 0.248" stroke="hsl(120.0,100%,35%)" stroke-width="0.00122"></path>
<path d="M1.604 0.730 Q1.622 0.598 1.369 0.561" stroke="hsl(120.0,100%,35%)" stroke-width="0.00244"></path>
<path d="M1.604 0.730 Q1.801 0.678 1.743 0.571" stroke="hsl(120.0,100%,35%)" stroke-width="0.00304"></path>
<path d="M1.604 0.730 Q1.850 0.581 1.613 0.428" stroke="hsl(120.0,100%,35%)" stroke-width="0.00183"></path>
<path d="M1.604 0.730 Q2.159 0.426 1.688 0.089" stroke="hsl(120.0,100%,35%)" stroke-width="0.00061"></path>
<path d="M1.604 0.730 Q1.212 0.800 1.263 1.007" stroke="hsl(120.0,100%,35%)" stroke-width="0.00061"></path>
<path d="M1.400 0.063 Q1.376 0.177 1.594 0.214" stroke="hsl(0.0,100%,35%)" stroke-width="0.01218"></path>
<path d="M1.400 0.063 Q1.001 0.032 0.853 0.220" stroke="hsl(0.0,100%,35%)" stroke-width="0.00183"></path>
<path d="M1.400 0.063 Q1.132 0.102 1.148 0.241" stroke="hsl(0.0,100%,35%)" stroke-width="0.00487"></path>
<path d="M1.400 0.063 Q1.130 0.422 1.770 0.632" stroke="hsl(0.0,100%,35%)" stroke-width="0.00122"></path>
<path d="M1.400 0.063 Q0.236 0.281 0.404 0.896" stroke="hsl(0.0,100%,35%)" stroke-width="0.00061"></path>
<path d="M1.770 0.632 Q2.040 0.274 1.400 0.063" stroke="hsl(120.0,100%,35%)" stroke-width="0.00183"></path>
<path d="M1.770 0.632 Q1.216 0.718 1.263 1.007" stroke="hsl(120.0,100%,35%)" stroke-width="0.00122"></path>
<path d="M1.770 0.632 Q1.854 0.499 1.613 0.428" stroke="hsl(120.0,100%,35%)" stroke-width="0.00122"></path>
<path d="M1.770 0.632 Q1.805 0.596 1.743 0.571" stroke="hsl(120.0,100%,35%)" stroke-width="0.00183"></path>
<path d="M1.770 0.632 Q2.016 0.388 1.594 0.214" stroke="hsl(120.0,100%,35%)" stroke-width="0.00061"></path>
<path d="M1.770 0.632 Q2.163 0.344 1.688 0.089" stroke="hsl(120.0,100%,35%)" stroke-width="0.00061"></path>
<path d="M1.770 0.632 Q2.113 0.455 1.842 0.248" stroke="hsl(120.0,100%,35%)" stroke-width="0.00061"></path>
<path d="M1.770 0.632 Q1.641 0.242 0.853 0.220" stroke="hsl(120.0,100%,35%)" stroke-width="0.00061"></path>
<path d="M1.148 0.241 Q1.017 0.171 0.853 0.220" stroke="hsl(0.0,100%,35%)" stroke-width="0.00609"></path>
<path d="M1.148 0.241 Q0.898 0.278 0.916 0.408" stroke="hsl(0.0,100%,35%)" stroke-width="0.00122"></path>
<path d="M1.148 0.241 Q1.184 0.161 1.037 0.126" stroke="hsl(0.0,100%,35%)" stroke-width="0.00792"></path>
<path d="M1.148 0.241 Q1.230 0.427 1.613 0.428" stroke="hsl(0.0,100%,35%)" stroke-width="0.00061"></path>
<path d="M1.148 0.241 Q1.416 0.202 1.400 0.063" stroke="hsl(0.0,100%,35%)" stroke-width="0.01035"></path>
<path d="M1.148 0.241 Q1.392 0.316 1.594 0.214" stroke="hsl(0.0,100%,35%)" stroke-width="0.00913"></path>
<path d="M1.148 0.241 Q0.252 0.420 0.404 0.896" stroke="hsl(0.0,100%,35%)" stroke-width="0.00183"></path>
<path d="M1.148 0.241 Q1.018 0.249 1.006 0.314" stroke="hsl(0.0,100%,35%)" stroke-width="0.00183"></path>
<path d="M1.148 0.241 Q0.620 0.539 1.086 0.863" stroke="hsl(0.0,100%,35%)" stroke-width="0.00122"></path>
<path d="M1.148 0.241 Q0.796 -0.009 0.231 0.107" stroke="hsl(0.0,100%,35%)" stroke-width="0.00061"></path>
<path d="M1.086 0.863 Q1.008 0.912 1.087 0.961" stroke="hsl(120.0,100%,35%)" stroke-width="0.00304"></path>
<path d="M1.086 0.863 Q1.651 0.484 1.037 0.126" stroke="hsl(120.0,100%,35%)" stroke-width="0.00061"></path>
<path d="M1.086 0.863 Q1.059 0.970 1.263 1.007" stroke="hsl(120.0,100%,35%)" stroke-width="0.00609"></path>
<path d="M1.086 0.863 Q1.451 0.900 1.604 0.730" stroke="hsl(120.0,100%,35%)" stroke-width="0.00061"></path>
<path d="M1.086 0.863 Q1.852 0.783 1.864 0.392" stroke="hsl(120.0,100%,35%)" stroke-width="0.00365"></path>
<path d="M1.086 0.863 Q1.697 0.751 1.613 0.428" stroke="hsl(120.0,100%,35%)" stroke-width="0.00244"></path>
<path d="M1.086 0.863 Q0.995 0.796 0.844 0.825" stroke="hsl(120.0,100%,35%)" stroke-width="0.00122"></path>
<path d="M1.086 0.863 Q0.945 0.845 0.880 0.910" stroke="hsl(120.0,100%,35%)" stroke-width="0.00122"></path>
<path d="M1.086 0.863 Q1.859 0.640 1.594 0.214" stroke="hsl(120.0,100%,35%)" stroke-width="0.00122"></path>
<path d="M1.086 0.863 Q1.592 0.976 1.924 0.754" stroke="hsl(120.0,100%,35%)" stroke-width="0.00061"></path>
<path d="M1.743 0.571 Q1.792 0.474 1.613 0.428" stroke="hsl(120.0,100%,35%)" stroke-width="0.01035"></path>
<path d="M1.743 0.571 Q1.395 0.546 1.269 0.710" stroke="hsl(120.0,100%,35%)" stroke-width="0.00061"></path>
<path d="M1.743 0.571 Q2.101 0.319 1.688 0.089" stroke="hsl(120.0,100%,35%)" stroke-width="0.00122"></path>
<path d="M1.743 0.571 Q1.954 0.363 1.594 0.214" stroke="hsl(120.0,100%,35%)" stroke-width="0.00487"></path>
<path d="M1.743 0.571 Q1.947 0.506 1.864 0.392" stroke="hsl(120.0,100%,35%)" stroke-width="0.00183"></path>
<path d="M1.743 0.571 Q1.687 0.699 1.924 0.754" stroke="hsl(120.0,100%,35%)" stroke-width="0.00061"></path>
<path d="M1.743 0.571 Q1.564 0.491 1.369 0.561" stroke="hsl(120.0,100%,35%)" stroke-width="0.00061"></path>
<path d="M1.743 0.571 Q1.547 0.623 1.604 0.730" stroke="hsl(120.0,100%,35%)" stroke-width="0.00061"></path>
<path d="M1.743 0.571 Q1.978 0.249 1.400 0.063" stroke="hsl(120.0,100%,35%)" stroke-width="0.00061"></path>
<path d="M1.743 0.571 Q1.154 0.693 1.263 1.007" stroke="hsl(120.0,100%,35%)" stroke-width="0.00244"></path>
<path d="M1.743 0.571 Q2.051 0.430 1.842 0.248" stroke="hsl(120.0,100%,35%)" stroke-width="0.00061"></path>
<path d="M1.037 0.126 Q0.870 0.136 0.853 0.220" stroke="hsl(0.0,100%,35%)" stroke-width="0.00731"></path>
<path d="M1.037 0.126 Q-0.037 0.339 0.143 0.910" stroke="hsl(0.0,100%,35%)" stroke-width="0.00304"></path>
<path d="M1.037 0.126 Q0.202 0.457 0.666 0.937" stroke="hsl(0.0,100%,35%)" stroke-width="0.00061"></path>
<path d="M1.037 0.126 Q1.001 0.206 1.148 0.241" stroke="hsl(0.0,100%,35%)" stroke-width="0.00304"></path>
<path d="M1.037 0.126 Q0.104 0.385 0.404 0.896" stroke="hsl(0.0,100%,35%)" stroke-width="0.00061"></path>
<path d="M1.037 0.126 Q1.245 0.281 1.594 0.214" stroke="hsl(0.0,100%,35%)" stroke-width="0.00122"></path>
<path d="M1.037 0.126 Q1.269 0.167 1.400 0.063" stroke="hsl(0.0,100%,35%)" stroke-width="0.00061"></path>
<path d="M1.037 0.126 Q0.751 0.243 0.916 0.408" stroke="hsl(0.0,100%,35%)" stroke-width="0.00061"></path>
<path d="M0.853 0.220 Q0.984 0.289 1.148 0.241" stroke="hsl(0.0,100%,35%)" stroke-width="0.00792"></path>
<path d="M0.853 0.220 Q0.087 0.468 0.404 0.896" stroke="hsl(0.0,100%,35%)" stroke-width="0.00609"></path>
<path d="M0.853 0.220 Q0.669 0.548 1.269 0.710" stroke="hsl(0.0,100%,35%)" stroke-width="0.00061"></path>
<path d="M0.853 0.220 Q1.228 0.365 1.594 0.214" stroke="hsl(0.0,100%,35%)" stroke-width="0.00183"></path>
<path d="M0.853 0.220 Q1.252 0.251 1.400 0.063" stroke="hsl(0.0,100%,35%)" stroke-width="0.00122"></path>
<path d="M0.853 0.220 Q0.854 0.298 1.006 0.314" stroke="hsl(0.0,100%,35%)" stroke-width="0.00061"></path>
<path d="M0.853 0.220 Q0.185 0.541 0.666 0.937" stroke="hsl(0.0,100%,35%)" stroke-width="0.00122"></path>
<path d="M0.853 0.220 Q0.632 0.039 0.231 0.107" stroke="hsl(0.0,100%,35%)" stroke-width="0.00122"></path>
<path d="M0.853 0.220 Q1.375 0.321 1.688 0.089" stroke="hsl(0.0,100%,35%)" stroke-width="0.00061"></path>
<path d="M0.853 0.220 Q0.455 0.588 1.086 0.863" stroke="hsl(0.0,100%,35%)" stroke-width="0.00122"></path>
<path d="M0.853 0.220 Q1.020 0.210 1.037 0.126" stroke="hsl(0.0,100%,35%)" stroke-width="0.00183"></path>
<path d="M0.853 0.220 Q0.364 0.521 0.844 0.825" stroke="hsl(0.0,100%,35%)" stroke-width="0.00061"></path>
<path d="M1.973 0.589 Q2.077 0.469 1.864 0.392" stroke="hsl(120.0,100%,35%)" stroke-width="0.00304"></path>
<path d="M1.973 0.589 Q1.817 0.662 1.924 0.754" stroke="hsl(120.0,100%,35%)" stroke-width="0.00122"></path>
<path d="M1.973 0.589 Q1.488 0.000 0.231 0.107" stroke="hsl(120.0,100%,35%)" stroke-width="0.00061"></path>
<path d="M1.864 0.392 Q1.098 0.472 1.086 0.863" stroke="hsl(120.0,100%,35%)" stroke-width="0.00122"></path>
<path d="M1.864 0.392 Q1.709 0.360 1.613 0.428" stroke="hsl(120.0,100%,35%)" stroke-width="0.01035"></path>
<path d="M1.864 0.392 Q1.871 0.249 1.594 0.214" stroke="hsl(120.0,100%,35%)" stroke-width="0.00061"></path>
<path d="M1.864 0.392 Q1.604 0.585 1.924 0.754" stroke="hsl(120.0,100%,35%)" stroke-width="0.00426"></path>
<path d="M1.864 0.392 Q1.481 0.377 1.369 0.561" stroke="hsl(120.0,100%,35%)" stroke-width="0.00061"></path>
<path d="M1.864 0.392 Q1.071 0.579 1.263 1.007" stroke="hsl(120.0,100%,35%)" stroke-width="0.00061"></path>
<path d="M1.924 0.754 Q2.184 0.561 1.864 0.392" stroke="hsl(120.0,100%,35%)" stroke-width="0.00122"></path>
<path d="M1.924 0.754 Q2.029 0.529 1.613 0.428" stroke="hsl(120.0,100%,35%)" stroke-width="0.00183"></path>
<path d="M1.924 0.754 Q1.945 0.662 1.770 0.632" stroke="hsl(120.0,100%,35%)" stroke-width="0.00183"></path>
<path d="M1.924 0.754 Q1.678 0.754 1.624 0.875" stroke="hsl(120.0,100%,35%)" stroke-width="0.00061"></path>
<path d="M1.924 0.754 Q1.391 0.748 1.263 1.007" stroke="hsl(120.0,100%,35%)" stroke-width="0.00061"></path>
<path d="M1.924 0.754 Q1.801 0.547 1.369 0.561" stroke="hsl(120.0,100%,35%)" stroke-width="0.00122"></path>
<path d="M1.924 0.754 Q1.784 0.678 1.604 0.730" stroke="hsl(120.0,100%,35%)" stroke-width="0.00061"></path>
<path d="M0.231 0.107 Q0.407 0.154 0.537 0.079" stroke="hsl(120.0,100%,35%)" stroke-width="0.01522"></path>
<path d="M0.231 0.107 Q0.583 0.357 1.148 0.241" stroke="hsl(120.0,100%,35%)" stroke-width="0.00061"></path>
<path d="M0.231 0.107 Q0.665 0.544 1.613 0.428" stroke="hsl(120.0,100%,35%)" stroke-width="0.00548"></path>
<path d="M0.231 0.107 Q0.243 0.179 0.384 0.189" stroke="hsl(120.0,100%,35%)" stroke-width="0.00061"></path>
<path d="M0.231 0.107 Q0.453 0.366 1.006 0.314" stroke="hsl(120.0,100%,35%)" stroke-width="0.00122"></path>
<path d="M0.231 0.107 Q0.055 0.656 1.086 0.863" stroke="hsl(120.0,100%,35%)" stroke-width="0.00061"></path>
<path d="M0.231 0.107 Q0.452 0.288 0.853 0.220" stroke="hsl(120.0,100%,35%)" stroke-width="0.00061"></path>
<path d="M0.231 0.107 Q0.851 0.319 1.400 0.063" stroke="hsl(120.0,100%,35%)" stroke-width="0.00061"></path>
<path d="M0.231 0.107 Q-0.313 0.536 0.404 0.896" stroke="hsl(120.0,100%,35%)" stroke-width="0.00061"></path>
<path d="M0.231 0.107 Q0.560 0.769 1.924 0.754" stroke="hsl(120.0,100%,35%)" stroke-width="0.00061"></path>
<path d="M1.613 0.428 Q1.767 0.460 1.864 0.392" stroke="hsl(120.0,100%,35%)" stroke-width="0.00792"></path>
<path d="M1.613 0.428 Q1.385 0.446 1.369 0.561" stroke="hsl(120.0,100%,35%)" stroke-width="0.00061"></path>
<path d="M1.613 0.428 Q1.400 0.172 0.853 0.220" stroke="hsl(120.0,100%,35%)" stroke-width="0.00122"></path>
<path d="M1.613 0.428 Q1.798 0.203 1.400 0.063" stroke="hsl(120.0,100%,35%)" stroke-width="0.00426"></path>
<path d="M1.613 0.428 Q1.002 0.540 1.086 0.863" stroke="hsl(120.0,100%,35%)" stroke-width="0.00304"></path>
<path d="M1.613 0.428 Q1.922 0.274 1.688 0.089" stroke="hsl(120.0,100%,35%)" stroke-width="0.00183"></path>
<path d="M1.613 0.428 Q1.508 0.654 1.924 0.754" stroke="hsl(120.0,100%,35%)" stroke-width="0.00122"></path>
<path d="M1.613 0.428 Q1.179 -0.008 0.231 0.107" stroke="hsl(120.0,100%,35%)" stroke-width="0.00122"></path>
<path d="M1.613 0.428 Q1.367 0.578 1.604 0.730" stroke="hsl(120.0,100%,35%)" stroke-width="0.00244"></path>
<path d="M1.613 0.428 Q0.861 0.522 0.880 0.910" stroke="hsl(120.0,100%,35%)" stroke-width="0.00061"></path>
<path d="M1.613 0.428 Q1.564 0.526 1.743 0.571" stroke="hsl(120.0,100%,35%)" stroke-width="0.00244"></path>
<path d="M1.613 0.428 Q0.634 0.421 0.404 0.896" stroke="hsl(120.0,100%,35%)" stroke-width="0.00122"></path>
<path d="M1.613 0.428 Q1.775 0.317 1.594 0.214" stroke="hsl(120.0,100%,35%)" stroke-width="0.00365"></path>
<path d="M1.613 0.428 Q1.531 0.242 1.148 0.241" stroke="hsl(120.0,100%,35%)" stroke-width="0.00061"></path>
<path d="M1.613 0.428 Q1.871 0.384 1.842 0.248" stroke="hsl(120.0,100%,35%)" stroke-width="0.00061"></path>
<path d="M1.263 1.007 Q1.290 0.900 1.086 0.863" stroke="hsl(120.0,100%,35%)" stroke-width="0.02435"></path>
<path d="M1.263 1.007 Q1.687 0.532 0.853 0.220" stroke="hsl(120.0,100%,35%)" stroke-width="0.00061"></path>
<path d="M1.263 1.007 Q2.086 0.563 1.400 0.063" stroke="hsl(120.0,100%,35%)" stroke-width="0.00061"></path>
<path d="M1.263 1.007 Q1.149 0.882 0.880 0.910" stroke="hsl(120.0,100%,35%)" stroke-width="0.00061"></path>
<path d="M1.263 1.007 Q1.900 0.788 1.613 0.428" stroke="hsl(120.0,100%,35%)" stroke-width="0.00061"></path>
<path d="M1.263 1.007 Q1.212 0.949 1.087 0.961" stroke="hsl(120.0,100%,35%)" stroke-width="0.00365"></path>
<path d="M1.263 1.007 Q2.055 0.820 1.864 0.392" stroke="hsl(120.0,100%,35%)" stroke-width="0.00061"></path>
<path d="M1.263 1.007 Q1.199 0.833 0.844 0.825" stroke="hsl(120.0,100%,35%)" stroke-width="0.00061"></path>
<path d="M1.369 0.561 Q1.856 0.499 1.842 0.248" stroke="hsl(120.0,100%,35%)" stroke-width="0.00061"></path>
<path d="M1.369 0.561 Q1.384 0.287 0.853 0.220" stroke="hsl(120.0,100%,35%)" stroke-width="0.00122"></path>
<path d="M1.369 0.561 Q1.752 0.575 1.864 0.392" stroke="hsl(120.0,100%,35%)" stroke-width="0.00670"></path>
<path d="M1.369 0.561 Q1.352 0.693 1.604 0.730" stroke="hsl(120.0,100%,35%)" stroke-width="0.00731"></path>
<path d="M1.369 0.561 Q1.597 0.543 1.613 0.428" stroke="hsl(120.0,100%,35%)" stroke-width="0.00304"></path>
<path d="M1.369 0.561 Q0.959 0.763 1.263 1.007" stroke="hsl(120.0,100%,35%)" stroke-width="0.00122"></path>
<path d="M1.369 0.561 Q1.782 0.318 1.400 0.063" stroke="hsl(120.0,100%,35%)" stroke-width="0.00183"></path>
<path d="M1.369 0.561 Q1.759 0.432 1.594 0.214" stroke="hsl(120.0,100%,35%)" stroke-width="0.00122"></path>
<path d="M1.369 0.561 Q1.906 0.389 1.688 0.089" stroke="hsl(120.0,100%,35%)" stroke-width="0.00183"></path>
<path d="M1.269 0.710 Q1.028 0.857 1.263 1.007" stroke="hsl(120.0,100%,35%)" stroke-width="0.00061"></path>
<path d="M1.269 0.710 Q1.438 0.655 1.369 0.561" stroke="hsl(120.0,100%,35%)" stroke-width="0.02679"></path>
<path d="M1.269 0.710 Q0.687 0.630 0.404 0.896" stroke="hsl(120.0,100%,35%)" stroke-width="0.00792"></path>
<path d="M1.269 0.710 Q1.666 0.638 1.613 0.428" stroke="hsl(120.0,100%,35%)" stroke-width="0.00852"></path>
<path d="M1.269 0.710 Q1.055 0.750 1.086 0.863" stroke="hsl(120.0,100%,35%)" stroke-width="0.02557"></path>
<path d="M1.269 0.710 Q1.852 0.413 1.400 0.063" stroke="hsl(120.0,100%,35%)" stroke-width="0.00061"></path>
<path d="M1.269 0.710 Q1.169 0.811 1.345 0.882" stroke="hsl(120.0,100%,35%)" stroke-width="0.00304"></path>
<path d="M1.269 0.710 Q1.828 0.527 1.594 0.214" stroke="hsl(120.0,100%,35%)" stroke-width="0.00122"></path>
<path d="M1.269 0.710 Q1.421 0.787 1.604 0.730" stroke="hsl(120.0,100%,35%)" stroke-width="0.00061"></path>
<path d="M1.269 0.710 Q1.821 0.670 1.864 0.392" stroke="hsl(120.0,100%,35%)" stroke-width="0.00183"></path>
<path d="M0.916 0.408 Q0.815 0.121 0.231 0.107" stroke="hsl(0.0,100%,35%)" stroke-width="0.00183"></path>
<path d="M0.916 0.408 Q0.270 0.550 0.404 0.896" stroke="hsl(0.0,100%,35%)" stroke-width="0.00304"></path>
<path d="M0.916 0.408 Q0.731 0.395 0.665 0.483" stroke="hsl(0.0,100%,35%)" stroke-width="0.00061"></path>
<path d="M0.916 0.408 Q1.434 0.333 1.400 0.063" stroke="hsl(0.0,100%,35%)" stroke-width="0.00183"></path>
<path d="M0.916 0.408 Q1.411 0.447 1.594 0.214" stroke="hsl(0.0,100%,35%)" stroke-width="0.00426"></path>
<path d="M0.916 0.408 Q1.202 0.291 1.037 0.126" stroke="hsl(0.0,100%,35%)" stroke-width="0.00244"></path>
<path d="M0.916 0.408 Q0.368 0.623 0.666 0.937" stroke="hsl(0.0,100%,35%)" stroke-width="0.00061"></path>
<path d="M0.916 0.408 Q0.128 0.504 0.143 0.910" stroke="hsl(0.0,100%,35%)" stroke-width="0.00061"></path>
<path d="M1.594 0.214 Q1.218 0.069 0.853 0.220" stroke="hsl(0.0,100%,35%)" stroke-width="0.00244"></path>
<path d="M1.594 0.214 Q1.349 0.138 1.148 0.241" stroke="hsl(0.0,100%,35%)" stroke-width="0.01096"></path>
<path d="M1.594 0.214 Q1.617 0.100 1.400 0.063" stroke="hsl(0.0,100%,35%)" stroke-width="0.01948"></path>
<path d="M1.594 0.214 Q1.385 0.059 1.037 0.126" stroke="hsl(0.0,100%,35%)" stroke-width="0.00183"></path>
<path d="M1.594 0.214 Q1.586 0.357 1.864 0.392" stroke="hsl(0.0,100%,35%)" stroke-width="0.00122"></path>
<path d="M1.594 0.214 Q1.431 0.325 1.613 0.428" stroke="hsl(0.0,100%,35%)" stroke-width="0.00183"></path>
<path d="M1.594 0.214 Q1.099 0.176 0.916 0.408" stroke="hsl(0.0,100%,35%)" stroke-width="0.00061"></path>
<path d="M1.594 0.214 Q1.382 0.422 1.743 0.571" stroke="hsl(0.0,100%,35%)" stroke-width="0.00061"></path>
<path d="M0.849 -0.003 Q0.885 0.365 1.613 0.428" stroke="hsl(120.0,100%,35%)" stroke-width="0.00061"></path>
<path d="M0.849 -0.003 Q0.894 0.036 0.981 0.023" stroke="hsl(120.0,100%,35%)" stroke-width="0.00122"></path>
<path d="M0.849 -0.003 Q0.183 0.410 0.844 0.825" stroke="hsl(120.0,100%,35%)" stroke-width="0.00061"></path>
<path d="M0.981 0.023 Q0.866 0.039 0.872 0.098" stroke="hsl(120.0,100%,35%)" stroke-width="0.00609"></path>
<path d="M0.981 0.023 Q0.973 0.352 1.613 0.428" stroke="hsl(120.0,100%,35%)" stroke-width="0.00122"></path>
<path d="M0.981 0.023 Q0.621 0.578 1.624 0.875" stroke="hsl(120.0,100%,35%)" stroke-width="0.00061"></path>
<path d="M1.413 0.318 Q1.409 0.310 1.392 0.310" stroke="hsl(0.0,100%,35%)" stroke-width="0.00061"></path>
<path d="M1.413 0.318 Q1.579 0.445 1.864 0.392" stroke="hsl(0.0,100%,35%)" stroke-width="0.00061"></path>
<path d="M1.413 0.318 Q1.211 0.157 0.853 0.220" stroke="hsl(0.0,100%,35%)" stroke-width="0.00061"></path>
<path d="M0.844 0.825 Q0.857 0.941 1.087 0.961" stroke="hsl(120.0,100%,35%)" stroke-width="0.00852"></path>
<path d="M0.844 0.825 Q0.935 0.892 1.086 0.863" stroke="hsl(120.0,100%,35%)" stroke-width="0.01339"></path>
<path d="M0.844 0.825 Q1.732 0.556 1.400 0.063" stroke="hsl(120.0,100%,35%)" stroke-width="0.00183"></path>
<path d="M0.844 0.825 Q1.333 0.524 0.853 0.220" stroke="hsl(120.0,100%,35%)" stroke-width="0.00061"></path>
<path d="M0.844 0.825 Q1.441 1.006 1.924 0.754" stroke="hsl(120.0,100%,35%)" stroke-width="0.00061"></path>
<path d="M0.844 0.825 Q0.666 0.846 0.666 0.937" stroke="hsl(120.0,100%,35%)" stroke-width="0.00061"></path>
<path d="M0.844 0.825 Q0.908 1.000 1.263 1.007" stroke="hsl(120.0,100%,35%)" stroke-width="0.00061"></path>
<path d="M0.844 0.825 Q0.751 0.878 0.832 0.935" stroke="hsl(120.0,100%,35%)" stroke-width="0.00061"></path>
<path d="M0.844 0.825 Q1.318 0.798 1.369 0.561" stroke="hsl(120.0,100%,35%)" stroke-width="0.00061"></path>
<path d="M0.844 0.825 Q1.546 0.781 1.613 0.428" stroke="hsl(120.0,100%,35%)" stroke-width="0.00061"></path>
<path d="M0.844 0.825 Q0.794 0.875 0.880 0.910" stroke="hsl(120.0,100%,35%)" stroke-width="0.00183"></path>
<path d="M1.501 0.619 Q1.481 0.563 1.369 0.561" stroke="hsl(120.0,100%,35%)" stroke-width="0.00061"></path>
<path d="M1.501 0.619 Q1.625 0.679 1.770 0.632" stroke="hsl(120.0,100%,35%)" stroke-width="0.00061"></path>
<path d="M1.501 0.619 Q1.098 0.658 1.086 0.863" stroke="hsl(120.0,100%,35%)" stroke-width="0.00061"></path>
<path d="M0.198 0.849 Q0.198 0.804 0.110 0.795" stroke="hsl(0.0,100%,35%)" stroke-width="0.00061"></path>
<path d="M0.198 0.849 Q0.122 0.868 0.143 0.910" stroke="hsl(0.0,100%,35%)" stroke-width="0.00244"></path>
<path d="M0.198 0.849 Q0.195 0.831 0.159 0.829" stroke="hsl(0.0,100%,35%)" stroke-width="0.00061"></path>
<path d="M0.198 0.849 Q1.029 0.665 0.853 0.220" stroke="hsl(0.0,100%,35%)" stroke-width="0.00061"></path>
<path d="M0.198 0.849 Q1.540 0.906 1.946 0.264" stroke="hsl(0.0,100%,35%)" stroke-width="0.00122"></path>
<path d="M0.198 0.849 Q1.137 1.147 1.924 0.754" stroke="hsl(0.0,100%,35%)" stroke-width="0.00061"></path>
<path d="M0.198 0.849 Q1.014 0.939 1.369 0.561" stroke="hsl(0.0,100%,35%)" stroke-width="0.00061"></path>
<path d="M1.842 0.248 Q1.726 0.243 1.690 0.298" stroke="hsl(120.0,100%,35%)" stroke-width="0.00426"></path>
<path d="M1.842 0.248 Q1.583 0.292 1.613 0.428" stroke="hsl(120.0,100%,35%)" stroke-width="0.00244"></path>
<path d="M1.842 0.248 Q1.355 0.310 1.369 0.561" stroke="hsl(120.0,100%,35%)" stroke-width="0.00061"></path>
<path d="M1.842 0.248 Q1.150 -0.144 0.231 0.107" stroke="hsl(120.0,100%,35%)" stroke-width="0.00061"></path>
<path d="M1.842 0.248 Q1.882 0.277 1.946 0.264" stroke="hsl(120.0,100%,35%)" stroke-width="0.00244"></path>
<path d="M1.842 0.248 Q1.478 0.518 1.924 0.754" stroke="hsl(120.0,100%,35%)" stroke-width="0.00122"></path>
<path d="M1.842 0.248 Q0.945 0.512 1.263 1.007" stroke="hsl(120.0,100%,35%)" stroke-width="0.00122"></path>
<path d="M1.688 0.089 Q1.541 0.133 1.594 0.214" stroke="hsl(120.0,100%,35%)" stroke-width="0.01035"></path>
<path d="M1.688 0.089 Q1.330 0.341 1.743 0.571" stroke="hsl(120.0,100%,35%)" stroke-width="0.00548"></path>
<path d="M1.688 0.089 Q1.534 0.276 1.864 0.392" stroke="hsl(120.0,100%,35%)" stroke-width="0.00609"></path>
<path d="M1.688 0.089 Q1.379 0.244 1.613 0.428" stroke="hsl(120.0,100%,35%)" stroke-width="0.00609"></path>
<path d="M1.688 0.089 Q1.151 0.261 1.369 0.561" stroke="hsl(120.0,100%,35%)" stroke-width="0.00122"></path>
<path d="M1.688 0.089 Q1.166 -0.013 0.853 0.220" stroke="hsl(120.0,100%,35%)" stroke-width="0.00061"></path>
<path d="M1.688 0.089 Q0.400 0.236 0.404 0.896" stroke="hsl(120.0,100%,35%)" stroke-width="0.00061"></path>
<path d="M1.688 0.089 Q1.274 0.469 1.924 0.754" stroke="hsl(120.0,100%,35%)" stroke-width="0.00122"></path>
<path d="M1.688 0.089 Q0.945 -0.193 0.231 0.107" stroke="hsl(120.0,100%,35%)" stroke-width="0.00061"></path>
<path d="M1.167 0.074 Q1.269 0.229 1.594 0.214" stroke="hsl(0.0,100%,35%)" stroke-width="0.00061"></path>
<path d="M1.167 0.074 Q1.292 0.115 1.400 0.063" stroke="hsl(0.0,100%,35%)" stroke-width="0.00304"></path>
<path d="M1.167 0.074 Q1.262 0.372 1.864 0.392" stroke="hsl(0.0,100%,35%)" stroke-width="0.00061"></path>
<path d="M1.167 0.074 Q0.879 0.358 1.369 0.561" stroke="hsl(0.0,100%,35%)" stroke-width="0.00061"></path>
<path d="M1.167 0.074 Q-0.013 0.287 0.143 0.910" stroke="hsl(0.0,100%,35%)" stroke-width="0.00061"></path>
<path d="M1.718 0.784 Q1.950 0.585 1.613 0.428" stroke="hsl(120.0,100%,35%)" stroke-width="0.00061"></path>
<path d="M1.718 0.784 Q2.112 0.474 1.594 0.214" stroke="hsl(120.0,100%,35%)" stroke-width="0.00061"></path>
<path d="M1.718 0.784 Q1.704 0.734 1.604 0.730" stroke="hsl(120.0,100%,35%)" stroke-width="0.00061"></path>
<path d="M1.618 0.731 Q1.752 0.804 1.924 0.754" stroke="hsl(120.0,100%,35%)" stroke-width="0.00122"></path>
<path d="M1.618 0.731 Q1.612 0.728 1.604 0.730" stroke="hsl(120.0,100%,35%)" stroke-width="0.00122"></path>
<path d="M1.618 0.731 Q1.866 0.250 0.981 0.023" stroke="hsl(120.0,100%,35%)" stroke-width="0.00061"></path>
<path d="M0.055 0.358 Q0.125 0.410 0.243 0.388" stroke="hsl(0.0,100%,35%)" stroke-width="0.01218"></path>
<path d="M0.055 0.358 Q0.940 0.594 1.594 0.214" stroke="hsl(0.0,100%,35%)" stroke-width="0.00122"></path>
<path d="M0.055 0.358 Q0.963 0.480 1.400 0.063" stroke="hsl(0.0,100%,35%)" stroke-width="0.00304"></path>
<path d="M0.055 0.358 Q0.565 0.449 0.853 0.220" stroke="hsl(0.0,100%,35%)" stroke-width="0.00061"></path>
<path d="M0.055 0.358 Q0.696 0.518 1.148 0.241" stroke="hsl(0.0,100%,35%)" stroke-width="0.00122"></path>
<path d="M0.055 0.358 Q0.167 0.817 1.086 0.863" stroke="hsl(0.0,100%,35%)" stroke-width="0.00122"></path>
<path d="M0.055 0.358 Q0.381 0.777 1.269 0.710" stroke="hsl(0.0,100%,35%)" stroke-width="0.00061"></path>
<path d="M0.055 0.358 Q0.224 0.349 0.243 0.265" stroke="hsl(0.0,100%,35%)" stroke-width="0.00304"></path>
<path d="M0.055 0.358 Q0.281 0.878 1.345 0.882" stroke="hsl(0.0,100%,35%)" stroke-width="0.00061"></path>
<path d="M0.055 0.358 Q0.550 0.722 1.369 0.561" stroke="hsl(0.0,100%,35%)" stroke-width="0.00061"></path>
<path d="M0.055 0.358 Q-0.342 0.651 0.143 0.910" stroke="hsl(0.0,100%,35%)" stroke-width="0.00061"></path>
<path d="M0.055 0.358 Q-0.201 0.697 0.404 0.896" stroke="hsl(0.0,100%,35%)" stroke-width="0.00183"></path>
<path d="M0.055 0.358 Q0.933 0.737 1.864 0.392" stroke="hsl(0.0,100%,35%)" stroke-width="0.00061"></path>
<path d="M1.345 0.882 Q1.445 0.781 1.269 0.710" stroke="hsl(120.0,100%,35%)" stroke-width="0.00244"></path>
<path d="M1.345 0.882 Q1.842 0.709 1.613 0.428" stroke="hsl(120.0,100%,35%)" stroke-width="0.00122"></path>
<path d="M1.345 0.882 Q1.204 0.928 1.263 1.007" stroke="hsl(120.0,100%,35%)" stroke-width="0.00365"></path>
<path d="M1.345 0.882 Q1.793 0.806 1.743 0.571" stroke="hsl(120.0,100%,35%)" stroke-width="0.00061"></path>
<path d="M1.345 0.882 Q1.231 0.820 1.086 0.863" stroke="hsl(120.0,100%,35%)" stroke-width="0.00244"></path>
<path d="M1.345 0.882 Q1.614 0.726 1.369 0.561" stroke="hsl(120.0,100%,35%)" stroke-width="0.00183"></path>
<path d="M1.345 0.882 Q1.140 0.753 0.844 0.825" stroke="hsl(120.0,100%,35%)" stroke-width="0.00061"></path>
<path d="M1.345 0.882 Q0.722 0.655 0.143 0.910" stroke="hsl(120.0,100%,35%)" stroke-width="0.00061"></path>
<path d="M1.345 0.882 Q0.961 0.774 0.666 0.937" stroke="hsl(120.0,100%,35%)" stroke-width="0.00061"></path>
<path d="M1.345 0.882 Q1.597 0.858 1.604 0.730" stroke="hsl(120.0,100%,35%)" stroke-width="0.00061"></path>
<path d="M1.345 0.882 Q0.863 0.701 0.404 0.896" stroke="hsl(120.0,100%,35%)" stroke-width="0.00061"></path>
<path d="M1.690 0.298 Q1.806 0.304 1.842 0.248" stroke="hsl(120.0,100%,35%)" stroke-width="0.00304"></path>
<path d="M1.690 0.298 Q1.845 0.333 1.946 0.264" stroke="hsl(120.0,100%,35%)" stroke-width="0.00061"></path>
<path d="M1.690 0.298 Q1.289 -0.042 0.537 0.079" stroke="hsl(120.0,100%,35%)" stroke-width="0.00183"></path>
<path d="M1.936 0.256 Q1.531 0.503 1.924 0.754" stroke="hsl(120.0,100%,35%)" stroke-width="0.00061"></path>
<path d="M1.936 0.256 Q1.895 0.233 1.842 0.248" stroke="hsl(120.0,100%,35%)" stroke-width="0.00122"></path>
<path d="M1.936 0.256 Q1.644 -0.052 0.981 0.023" stroke="hsl(120.0,100%,35%)" stroke-width="0.00061"></path>
<path d="M1.779 0.913 Q2.238 0.669 1.864 0.392" stroke="hsl(120.0,100%,35%)" stroke-width="0.00061"></path>
<path d="M1.779 0.913 Q1.979 0.863 1.924 0.754" stroke="hsl(120.0,100%,35%)" stroke-width="0.00061"></path>
<path d="M1.779 0.913 Q2.083 0.637 1.613 0.428" stroke="hsl(120.0,100%,35%)" stroke-width="0.00061"></path>
<path d="M1.779 0.913 Q1.473 0.749 1.086 0.863" stroke="hsl(120.0,100%,35%)" stroke-width="0.00061"></path>
<path d="M0.595 0.325 Q1.183 0.469 1.594 0.214" stroke="hsl(0.0,100%,35%)" stroke-width="0.00061"></path>
<path d="M0.595 0.325 Q1.021 0.580 1.613 0.428" stroke="hsl(0.0,100%,35%)" stroke-width="0.00061"></path>
<path d="M0.595 0.325 Q0.808 0.324 0.853 0.220" stroke="hsl(0.0,100%,35%)" stroke-width="0.00061"></path>
<path d="M1.319 0.443 Q1.187 0.407 1.089 0.463" stroke="hsl(240.0,100%,35%)" stroke-width="0.01705"></path>
<path d="M1.319 0.443 Q1.428 0.592 1.743 0.571" stroke="hsl(240.0,100%,35%)" stroke-width="0.00122"></path>
<path d="M1.319 0.443 Q0.498 0.487 0.404 0.896" stroke="hsl(240.0,100%,35%)" stroke-width="0.00244"></path>
<path d="M1.319 0.443 Q1.249 0.512 1.369 0.561" stroke="hsl(240.0,100%,35%)" stroke-width="0.00061"></path>
<path d="M1.319 0.443 Q1.395 0.308 1.148 0.241" stroke="hsl(240.0,100%,35%)" stroke-width="0.00061"></path>
<path d="M0.642 0.784 Q1.363 0.898 1.743 0.571" stroke="hsl(120.0,100%,35%)" stroke-width="0.00122"></path>
<path d="M0.642 0.784 Q0.978 0.364 0.231 0.107" stroke="hsl(120.0,100%,35%)" stroke-width="0.00061"></path>
<path d="M0.642 0.784 Q0.801 0.912 1.086 0.863" stroke="hsl(120.0,100%,35%)" stroke-width="0.00061"></path>
<path d="M0.642 0.784 Q0.434 0.793 0.404 0.896" stroke="hsl(120.0,100%,35%)" stroke-width="0.00122"></path>
<path d="M0.642 0.784 Q1.420 0.472 0.981 0.023" stroke="hsl(120.0,100%,35%)" stroke-width="0.00061"></path>
<path d="M0.642 0.784 Q1.184 0.818 1.369 0.561" stroke="hsl(120.0,100%,35%)" stroke-width="0.00061"></path>
<path d="M0.395 0.636 Q1.121 0.873 1.743 0.571" stroke="hsl(0.0,100%,35%)" stroke-width="0.00061"></path>
<path d="M0.395 0.636 Q1.169 0.775 1.613 0.428" stroke="hsl(0.0,100%,35%)" stroke-width="0.00122"></path>
<path d="M0.395 0.636 Q1.355 0.550 1.400 0.063" stroke="hsl(0.0,100%,35%)" stroke-width="0.00244"></path>
<path d="M0.395 0.636 Q0.191 0.768 0.404 0.896" stroke="hsl(0.0,100%,35%)" stroke-width="0.00244"></path>
<path d="M0.395 0.636 Q1.123 0.509 1.037 0.126" stroke="hsl(0.0,100%,35%)" stroke-width="0.00061"></path>
<path d="M0.395 0.636 Q0.942 0.793 1.369 0.561" stroke="hsl(0.0,100%,35%)" stroke-width="0.00183"></path>
<path d="M0.395 0.636 Q0.559 0.887 1.086 0.863" stroke="hsl(0.0,100%,35%)" stroke-width="0.00122"></path>
<path d="M0.395 0.636 Q0.772 0.847 1.269 0.710" stroke="hsl(0.0,100%,35%)" stroke-width="0.00061"></path>
<path d="M0.395 0.636 Q1.087 0.589 1.148 0.241" stroke="hsl(0.0,100%,35%)" stroke-width="0.00244"></path>
<path d="M0.395 0.636 Q0.049 0.722 0.143 0.910" stroke="hsl(0.0,100%,35%)" stroke-width="0.00244"></path>
<path d="M0.395 0.636 Q1.324 0.807 1.864 0.392" stroke="hsl(0.0,100%,35%)" stroke-width="0.00122"></path>
<path d="M0.395 0.636 Q0.956 0.519 0.853 0.220" stroke="hsl(0.0,100%,35%)" stroke-width="0.00061"></path>
<path d="M0.395 0.636 Q1.332 0.664 1.594 0.214" stroke="hsl(0.0,100%,35%)" stroke-width="0.00061"></path>
<path d="M0.395 0.636 Q1.428 0.731 1.842 0.248" stroke="hsl(0.0,100%,35%)" stroke-width="0.00061"></path>
</g>
<text x="0.666" y="0.922" font-size="0.030586" fill="hsl(0.0,100%,20%)">ahaas</text>
<text x="0.143" y="0.892" font-size="0.035469" fill="hsl(0.0,100%,20%)">thibaudm</text>
<text x="1.006" y="0.304" font-size="0.021251" fill="hsl(0.0,100%,20%)">evih</text>
<text x="0.404" y="0.872" font-size="0.048693" fill="hsl(0.0,100%,20%)">clemensb</text>
<text x="1.604" y="0.716" font-size="0.027533" fill="hsl(120.0,100%,20%)">pthier</text>
<text x="1.400" y="0.041" font-size="0.045614" fill="hsl(0.0,100%,20%)">nicohartmann</text>
<text x="1.770" y="0.623" font-size="0.018837" fill="hsl(120.0,100%,20%)">marja</text>
<text x="1.148" y="0.217" font-size="0.047349" fill="hsl(0.0,100%,20%)">mliedtke</text>
<text x="1.086" y="0.837" font-size="0.051431" fill="hsl(120.0,100%,20%)">mlippautz</text>
<text x="1.743" y="0.554" font-size="0.033360" fill="hsl(120.0,100%,20%)">victorgomes</text>
<text x="1.037" y="0.110" font-size="0.031623" fill="hsl(0.0,100%,20%)">manoskouk</text>
<text x="0.853" y="0.199" font-size="0.042121" fill="hsl(0.0,100%,20%)">jkummerow</text>
<text x="1.973" y="0.584" font-size="0.011359" fill="hsl(120.0,100%,20%)">carlscab</text>
<text x="1.864" y="0.373" font-size="0.038311" fill="hsl(120.0,100%,20%)">verwaest</text>
<text x="1.924" y="0.741" font-size="0.026335" fill="hsl(120.0,100%,20%)">cbruni</text>
<text x="0.231" y="0.092" font-size="0.030321" fill="hsl(120.0,100%,20%)">machenbach</text>
<text x="1.613" y="0.403" font-size="0.050959" fill="hsl(120.0,100%,20%)">leszeks</text>
<text x="1.624" y="0.872" font-size="0.005680" fill="hsl(120.0,100%,20%)">pfaffe</text>
<text x="1.263" y="0.989" font-size="0.037027" fill="hsl(120.0,100%,20%)">dinfuehr</text>
<text x="1.369" y="0.539" font-size="0.044541" fill="hsl(120.0,100%,20%)">ishell</text>
<text x="1.269" y="0.686" font-size="0.047519" fill="hsl(120.0,100%,20%)">saelo</text>
<text x="0.916" y="0.397" font-size="0.022361" fill="hsl(0.0,100%,20%)">dlehmann</text>
<text x="1.594" y="0.189" font-size="0.050322" fill="hsl(0.0,100%,20%)">dmercadier</text>
<text x="0.849" y="-0.008" font-size="0.008980" fill="hsl(120.0,100%,20%)">leese</text>
<text x="0.880" y="0.904" font-size="0.011359" fill="hsl(240.0,100%,20%)">bikineev</text>
<text x="0.981" y="0.014" font-size="0.017506" fill="hsl(120.0,100%,20%)">szuend</text>
<text x="1.087" y="0.950" font-size="0.020478" fill="hsl(120.0,100%,20%)">omerkatz</text>
<text x="1.413" y="0.315" font-size="0.006956" fill="hsl(0.0,100%,20%)">dcheng</text>
<text x="1.392" y="0.308" font-size="0.004016" fill="hsl(0.0,100%,20%)">ecmziegler</text>
<text x="0.844" y="0.811" font-size="0.029784" fill="hsl(120.0,100%,20%)">nikolaos</text>
<text x="0.665" y="0.481" font-size="0.004016" fill="hsl(0.0,100%,20%)">hao.a.xu</text>
<text x="1.501" y="0.615" font-size="0.006956" fill="hsl(120.0,100%,20%)">emromero</text>
<text x="0.198" y="0.842" font-size="0.013320" fill="hsl(0.0,100%,20%)">fgm</text>
<text x="0.110" y="0.793" font-size="0.004016" fill="hsl(0.0,100%,20%)">irezvov</text>
<text x="0.159" y="0.826" font-size="0.005680" fill="hsl(0.0,100%,20%)">gdeepti</text>
<text x="1.946" y="0.259" font-size="0.010626" fill="hsl(120.0,100%,20%)">adamk</text>
<text x="1.842" y="0.236" font-size="0.023760" fill="hsl(120.0,100%,20%)">syg</text>
<text x="1.688" y="0.073" font-size="0.032129" fill="hsl(120.0,100%,20%)">olivf</text>
<text x="1.167" y="0.068" font-size="0.012048" fill="hsl(0.0,100%,20%)">jianxiao.lu</text>
<text x="1.718" y="0.780" font-size="0.006956" fill="hsl(120.0,100%,20%)">jing.bao</text>
<text x="1.618" y="0.726" font-size="0.008980" fill="hsl(120.0,100%,20%)">joyee</text>
<text x="0.537" y="0.069" font-size="0.021251" fill="hsl(120.0,100%,20%)">liviurau</text>
<text x="0.384" y="0.187" font-size="0.004016" fill="hsl(120.0,100%,20%)">hpayer</text>
<text x="0.055" y="0.345" font-size="0.026941" fill="hsl(0.0,100%,20%)">mfarazma</text>
<text x="0.243" y="0.379" font-size="0.017961" fill="hsl(0.0,100%,20%)">junyan</text>
<text x="0.243" y="0.260" font-size="0.008980" fill="hsl(0.0,100%,20%)">midawson</text>
<text x="1.345" y="0.871" font-size="0.022361" fill="hsl(120.0,100%,20%)">sroettger</text>
<text x="0.832" y="0.933" font-size="0.004016" fill="hsl(120.0,100%,20%)">yangguo</text>
<text x="1.690" y="0.290" font-size="0.016064" fill="hsl(120.0,100%,20%)">rezvan</text>
<text x="1.936" y="0.252" font-size="0.008032" fill="hsl(120.0,100%,20%)">seokho</text>
<text x="1.779" y="0.909" font-size="0.008032" fill="hsl(120.0,100%,20%)">seth.brenith</text>
<text x="0.872" y="0.092" font-size="0.012700" fill="hsl(120.0,100%,20%)">bmeurer</text>
<text x="0.595" y="0.321" font-size="0.006956" fill="hsl(0.0,100%,20%)">tao.pan</text>
<text x="1.319" y="0.431" font-size="0.024097" fill="hsl(240.0,100%,20%)">yahan</text>
<text x="1.089" y="0.453" font-size="0.021251" fill="hsl(240.0,100%,20%)">qiuji</text>
<text x="0.642" y="0.779" font-size="0.011359" fill="hsl(120.0,100%,20%)">zcbenz</text>
<text x="0.395" y="0.624" font-size="0.022361" fill="hsl(0.0,100%,20%)">zhaojiazhong-hf</text>
</svg>
