<svg width="4000" height="2000" viewBox="-0.025 -0.025 2.05 1.05" xmlns="http://www.w3.org/2000/svg">
  <style>
    path {
      fill: none;
      stroke-linecap: round;
      stroke-opacity: 0.4;
    }

    text {
      text-anchor: middle;
      alignment-baseline: hanging;
    }
  </style>
  <g opacity="0.4">
<path d="M1.790 0.181 Q1.187 0.283 1.254 0.600" stroke="hsl(0.0,100%,35%)" stroke-width="0.02546"></path>
<path d="M1.790 0.181 Q1.720 0.233 1.807 0.279" stroke="hsl(0.0,100%,35%)" stroke-width="0.04243"></path>
<path d="M1.790 0.181 Q1.418 0.348 1.662 0.566" stroke="hsl(0.0,100%,35%)" stroke-width="0.00849"></path>
<path d="M1.790 0.181 Q1.572 0.267 1.693 0.392" stroke="hsl(0.0,100%,35%)" stroke-width="0.03394"></path>
<path d="M1.790 0.181 Q1.707 0.080 1.494 0.099" stroke="hsl(0.0,100%,35%)" stroke-width="0.01697"></path>
<path d="M1.790 0.181 Q1.174 0.154 0.986 0.448" stroke="hsl(0.0,100%,35%)" stroke-width="0.00849"></path>
<path d="M1.790 0.181 Q1.343 0.113 1.113 0.316" stroke="hsl(0.0,100%,35%)" stroke-width="0.00849"></path>
<path d="M1.693 0.392 Q1.464 0.238 1.113 0.316" stroke="hsl(0.0,100%,35%)" stroke-width="0.01697"></path>
<path d="M1.693 0.392 Q1.616 0.311 1.441 0.331" stroke="hsl(0.0,100%,35%)" stroke-width="0.00849"></path>
<path d="M1.693 0.392 Q1.605 0.101 1.017 0.081" stroke="hsl(0.0,100%,35%)" stroke-width="0.00849"></path>
<path d="M1.693 0.392 Q1.539 0.473 1.662 0.566" stroke="hsl(0.0,100%,35%)" stroke-width="0.00849"></path>
<path d="M1.693 0.392 Q1.420 0.361 1.299 0.487" stroke="hsl(0.0,100%,35%)" stroke-width="0.00849"></path>
<path d="M0.986 0.448 Q0.999 0.578 1.254 0.600" stroke="hsl(0.0,100%,35%)" stroke-width="0.01697"></path>
<path d="M0.986 0.448 Q1.602 0.475 1.790 0.181" stroke="hsl(0.0,100%,35%)" stroke-width="0.00849"></path>
<path d="M0.986 0.448 Q1.532 0.528 1.807 0.279" stroke="hsl(0.0,100%,35%)" stroke-width="0.00849"></path>
<path d="M1.113 0.316 Q0.940 0.194 0.665 0.252" stroke="hsl(0.0,100%,35%)" stroke-width="0.00849"></path>
<path d="M1.113 0.316 Q1.342 0.470 1.693 0.392" stroke="hsl(0.0,100%,35%)" stroke-width="0.00849"></path>
<path d="M1.113 0.316 Q1.138 0.112 0.744 0.055" stroke="hsl(0.0,100%,35%)" stroke-width="0.00849"></path>
<path d="M1.912 0.653 Q1.856 0.560 1.662 0.566" stroke="hsl(180.0,100%,35%)" stroke-width="0.06788"></path>
<path d="M1.912 0.653 Q1.623 0.691 1.635 0.841" stroke="hsl(180.0,100%,35%)" stroke-width="0.03394"></path>
<path d="M1.912 0.653 Q1.641 0.600 1.478 0.720" stroke="hsl(180.0,100%,35%)" stroke-width="0.00849"></path>
<path d="M1.912 0.653 Q1.387 0.658 1.282 0.914" stroke="hsl(180.0,100%,35%)" stroke-width="0.00849"></path>
<path d="M1.478 0.720 Q1.694 0.680 1.662 0.566" stroke="hsl(180.0,100%,35%)" stroke-width="0.02546"></path>
<path d="M1.478 0.720 Q1.286 0.663 1.131 0.744" stroke="hsl(180.0,100%,35%)" stroke-width="0.00849"></path>
<path d="M1.478 0.720 Q1.749 0.773 1.912 0.653" stroke="hsl(180.0,100%,35%)" stroke-width="0.00849"></path>
<path d="M1.478 0.720 Q1.760 0.308 1.017 0.081" stroke="hsl(180.0,100%,35%)" stroke-width="0.00849"></path>
</g>
<text x="1.790" y="0.138" font-size="0.084853" fill="hsl(0.0,100%,20%)">danilchap</text>
<text x="1.254" y="0.577" font-size="0.044721" fill="hsl(0.0,100%,20%)">sprang</text>
<text x="1.807" y="0.254" font-size="0.048990" fill="hsl(0.0,100%,20%)">philipel</text>
<text x="1.662" y="0.530" font-size="0.072111" fill="hsl(180.0,100%,20%)">hta</text>
<text x="1.693" y="0.359" font-size="0.066332" fill="hsl(0.0,100%,20%)">mbonadei</text>
<text x="1.494" y="0.085" font-size="0.028284" fill="hsl(0.0,100%,20%)">kthelgason</text>
<text x="0.986" y="0.426" font-size="0.044721" fill="hsl(0.0,100%,20%)">ssilkin</text>
<text x="1.113" y="0.292" font-size="0.048990" fill="hsl(0.0,100%,20%)">jleconte</text>
<text x="0.665" y="0.242" font-size="0.020000" fill="hsl(0.0,100%,20%)">manashi</text>
<text x="0.744" y="0.045" font-size="0.020000" fill="hsl(0.0,100%,20%)">henrika</text>
<text x="1.441" y="0.321" font-size="0.020000" fill="hsl(0.0,100%,20%)">titovartem</text>
<text x="1.017" y="0.066" font-size="0.028284" fill="hsl(180.0,100%,20%)">perkj</text>
<text x="1.299" y="0.477" font-size="0.020000" fill="hsl(0.0,100%,20%)">xalep</text>
<text x="1.912" y="0.614" font-size="0.077460" fill="hsl(180.0,100%,20%)">phancke</text>
<text x="1.635" y="0.821" font-size="0.040000" fill="hsl(180.0,100%,20%)">orphis</text>
<text x="1.478" y="0.694" font-size="0.052915" fill="hsl(180.0,100%,20%)">tommi</text>
<text x="1.282" y="0.904" font-size="0.020000" fill="hsl(180.0,100%,20%)">ilnik</text>
<text x="1.131" y="0.734" font-size="0.020000" fill="hsl(180.0,100%,20%)">eshr</text>
</svg>
