<svg width="4000" height="2000" viewBox="-0.025 -0.025 2.05 1.05" xmlns="http://www.w3.org/2000/svg">
  <style>
    path {
      fill: none;
      stroke-linecap: round;
      stroke-opacity: 0.4;
    }

    text {
      text-anchor: middle;
      alignment-baseline: hanging;
    }
  </style>
  <g opacity="0.4">
<path d="M1.113 0.428 Q0.311 0.392 0.064 0.776" stroke="hsl(0.0,100%,35%)" stroke-width="0.00898"></path>
<path d="M1.113 0.428 Q0.961 0.530 1.125 0.626" stroke="hsl(0.0,100%,35%)" stroke-width="0.00449"></path>
<path d="M1.113 0.428 Q1.211 0.475 1.324 0.438" stroke="hsl(0.0,100%,35%)" stroke-width="0.00449"></path>
<path d="M0.064 0.776 Q0.342 0.773 0.397 0.637" stroke="hsl(0.0,100%,35%)" stroke-width="0.06283"></path>
<path d="M0.064 0.776 Q0.246 0.797 0.328 0.713" stroke="hsl(0.0,100%,35%)" stroke-width="0.03590"></path>
<path d="M0.064 0.776 Q0.715 0.913 1.125 0.626" stroke="hsl(0.0,100%,35%)" stroke-width="0.02244"></path>
<path d="M0.064 0.776 Q0.579 0.986 1.101 0.781" stroke="hsl(0.0,100%,35%)" stroke-width="0.00449"></path>
<path d="M0.064 0.776 Q0.786 0.541 0.485 0.137" stroke="hsl(0.0,100%,35%)" stroke-width="0.00449"></path>
<path d="M0.064 0.776 Q0.121 0.890 0.357 0.888" stroke="hsl(0.0,100%,35%)" stroke-width="0.00449"></path>
<path d="M1.125 0.626 Q0.989 0.699 1.101 0.781" stroke="hsl(0.0,100%,35%)" stroke-width="0.01346"></path>
<path d="M1.125 0.626 Q0.752 0.486 0.397 0.637" stroke="hsl(0.0,100%,35%)" stroke-width="0.00449"></path>
<path d="M1.125 0.626 Q0.832 0.794 1.095 0.974" stroke="hsl(0.0,100%,35%)" stroke-width="0.00449"></path>
<path d="M0.485 0.137 Q0.369 0.141 0.352 0.198" stroke="hsl(180.0,100%,35%)" stroke-width="0.00449"></path>
<path d="M0.485 0.137 Q0.120 0.677 1.095 0.974" stroke="hsl(180.0,100%,35%)" stroke-width="0.01795"></path>
<path d="M0.485 0.137 Q0.721 0.256 1.004 0.167" stroke="hsl(180.0,100%,35%)" stroke-width="0.03141"></path>
<path d="M0.485 0.137 Q0.413 0.510 1.125 0.626" stroke="hsl(180.0,100%,35%)" stroke-width="0.01346"></path>
<path d="M0.485 0.137 Q0.440 0.057 0.275 0.062" stroke="hsl(180.0,100%,35%)" stroke-width="0.00449"></path>
<path d="M0.485 0.137 Q0.040 0.369 0.397 0.637" stroke="hsl(180.0,100%,35%)" stroke-width="0.00898"></path>
<path d="M0.485 0.137 Q-0.237 0.372 0.064 0.776" stroke="hsl(180.0,100%,35%)" stroke-width="0.00449"></path>
<path d="M0.485 0.137 Q0.294 0.072 0.127 0.151" stroke="hsl(180.0,100%,35%)" stroke-width="0.00898"></path>
<path d="M0.485 0.137 Q0.466 0.195 0.575 0.217" stroke="hsl(180.0,100%,35%)" stroke-width="0.01346"></path>
<path d="M0.485 0.137 Q0.316 0.173 0.351 0.264" stroke="hsl(180.0,100%,35%)" stroke-width="0.00898"></path>
<path d="M0.485 0.137 Q1.101 0.448 1.843 0.216" stroke="hsl(180.0,100%,35%)" stroke-width="0.00449"></path>
<path d="M1.095 0.974 Q0.993 0.548 0.139 0.504" stroke="hsl(180.0,100%,35%)" stroke-width="0.00449"></path>
<path d="M1.095 0.974 Q1.270 0.369 0.127 0.151" stroke="hsl(180.0,100%,35%)" stroke-width="0.00449"></path>
<path d="M1.095 0.974 Q1.112 0.489 0.170 0.375" stroke="hsl(180.0,100%,35%)" stroke-width="0.00449"></path>
<path d="M1.095 0.974 Q1.944 0.736 1.666 0.270" stroke="hsl(180.0,100%,35%)" stroke-width="0.00449"></path>
<path d="M1.095 0.974 Q1.399 0.958 1.434 0.806" stroke="hsl(180.0,100%,35%)" stroke-width="0.00449"></path>
<path d="M1.095 0.974 Q1.253 0.879 1.101 0.781" stroke="hsl(180.0,100%,35%)" stroke-width="0.00449"></path>
<path d="M0.397 0.637 Q0.120 0.640 0.064 0.776" stroke="hsl(0.0,100%,35%)" stroke-width="0.00898"></path>
<path d="M0.397 0.637 Q0.770 0.778 1.125 0.626" stroke="hsl(0.0,100%,35%)" stroke-width="0.01346"></path>
<path d="M0.397 0.637 Q0.634 0.850 1.101 0.781" stroke="hsl(0.0,100%,35%)" stroke-width="0.01346"></path>
<path d="M1.843 0.216 Q0.783 0.137 0.397 0.637" stroke="hsl(180.0,100%,35%)" stroke-width="0.00449"></path>
<path d="M1.843 0.216 Q1.711 0.208 1.666 0.270" stroke="hsl(180.0,100%,35%)" stroke-width="0.02244"></path>
<path d="M1.843 0.216 Q0.506 0.140 0.064 0.776" stroke="hsl(180.0,100%,35%)" stroke-width="0.00449"></path>
<path d="M1.843 0.216 Q1.156 0.277 1.125 0.626" stroke="hsl(180.0,100%,35%)" stroke-width="0.00449"></path>
<path d="M0.704 0.402 Q0.340 0.340 0.139 0.504" stroke="hsl(180.0,100%,35%)" stroke-width="0.00449"></path>
<path d="M0.704 0.402 Q0.459 0.282 0.170 0.375" stroke="hsl(180.0,100%,35%)" stroke-width="0.00898"></path>
<path d="M0.704 0.402 Q0.617 0.161 0.127 0.151" stroke="hsl(180.0,100%,35%)" stroke-width="0.00449"></path>
<path d="M0.704 0.402 Q1.291 0.529 1.666 0.270" stroke="hsl(180.0,100%,35%)" stroke-width="0.00449"></path>
<path d="M0.170 0.375 Q1.001 0.622 1.666 0.270" stroke="hsl(180.0,100%,35%)" stroke-width="0.00449"></path>
<path d="M0.170 0.375 Q0.203 0.452 0.361 0.453" stroke="hsl(180.0,100%,35%)" stroke-width="0.00449"></path>
<path d="M0.170 0.375 Q0.153 0.860 1.095 0.974" stroke="hsl(180.0,100%,35%)" stroke-width="0.00449"></path>
<path d="M0.632 0.594 Q0.480 0.569 0.397 0.637" stroke="hsl(0.0,100%,35%)" stroke-width="0.02693"></path>
<path d="M0.632 0.594 Q1.028 0.697 1.316 0.527" stroke="hsl(0.0,100%,35%)" stroke-width="0.00449"></path>
<path d="M0.632 0.594 Q1.408 0.639 1.666 0.270" stroke="hsl(0.0,100%,35%)" stroke-width="0.00449"></path>
<path d="M0.632 0.594 Q0.783 0.627 0.881 0.561" stroke="hsl(0.0,100%,35%)" stroke-width="0.00449"></path>
<path d="M0.632 0.594 Q0.202 0.571 0.064 0.776" stroke="hsl(0.0,100%,35%)" stroke-width="0.00898"></path>
<path d="M0.632 0.594 Q0.853 0.709 1.125 0.626" stroke="hsl(0.0,100%,35%)" stroke-width="0.00449"></path>
<path d="M0.632 0.594 Q0.924 0.336 0.485 0.137" stroke="hsl(0.0,100%,35%)" stroke-width="0.00898"></path>
<path d="M0.632 0.594 Q0.756 0.372 0.351 0.264" stroke="hsl(0.0,100%,35%)" stroke-width="0.00449"></path>
<path d="M0.440 0.351 Q0.286 0.309 0.170 0.375" stroke="hsl(180.0,100%,35%)" stroke-width="0.00898"></path>
<path d="M0.440 0.351 Q1.117 0.556 1.666 0.270" stroke="hsl(180.0,100%,35%)" stroke-width="0.00898"></path>
<path d="M0.440 0.351 Q0.869 0.372 1.004 0.167" stroke="hsl(180.0,100%,35%)" stroke-width="0.00898"></path>
<path d="M1.876 0.479 Q1.009 0.262 0.397 0.637" stroke="hsl(0.0,100%,35%)" stroke-width="0.00449"></path>
<path d="M1.876 0.479 Q0.732 0.265 0.064 0.776" stroke="hsl(0.0,100%,35%)" stroke-width="0.00449"></path>
<path d="M1.876 0.479 Q1.786 0.425 1.661 0.456" stroke="hsl(0.0,100%,35%)" stroke-width="0.00449"></path>
</g>
<text x="1.113" y="0.415" font-size="0.025820" fill="hsl(0.0,100%,20%)">aheggestad</text>
<text x="0.064" y="0.736" font-size="0.080623" fill="hsl(0.0,100%,20%)">hbos</text>
<text x="1.125" y="0.598" font-size="0.056273" fill="hsl(0.0,100%,20%)">mbonadei</text>
<text x="1.324" y="0.432" font-size="0.012910" fill="hsl(0.0,100%,20%)">tommi</text>
<text x="0.485" y="0.101" font-size="0.070711" fill="hsl(180.0,100%,20%)">danilchap</text>
<text x="0.352" y="0.192" font-size="0.012910" fill="hsl(180.0,100%,20%)">terelius</text>
<text x="1.095" y="0.952" font-size="0.044721" fill="hsl(180.0,100%,20%)">jleconte</text>
<text x="1.004" y="0.148" font-size="0.038730" fill="hsl(180.0,100%,20%)">philipel</text>
<text x="0.275" y="0.056" font-size="0.012910" fill="hsl(180.0,100%,20%)">henrika</text>
<text x="0.397" y="0.600" font-size="0.074162" fill="hsl(0.0,100%,20%)">hta</text>
<text x="0.127" y="0.138" font-size="0.025820" fill="hsl(180.0,100%,20%)">jakobi</text>
<text x="0.575" y="0.206" font-size="0.022361" fill="hsl(180.0,100%,20%)">saza</text>
<text x="0.351" y="0.252" font-size="0.022361" fill="hsl(180.0,100%,20%)">titovartem</text>
<text x="1.843" y="0.197" font-size="0.038730" fill="hsl(180.0,100%,20%)">perkj</text>
<text x="0.704" y="0.388" font-size="0.028868" fill="hsl(180.0,100%,20%)">dwtan</text>
<text x="0.139" y="0.495" font-size="0.018257" fill="hsl(180.0,100%,20%)">marpan</text>
<text x="0.170" y="0.356" font-size="0.036515" fill="hsl(180.0,100%,20%)">ssilkin</text>
<text x="1.666" y="0.249" font-size="0.042817" fill="hsl(180.0,100%,20%)">sprang</text>
<text x="0.328" y="0.695" font-size="0.036515" fill="hsl(0.0,100%,20%)">eshr</text>
<text x="1.101" y="0.763" font-size="0.036515" fill="hsl(0.0,100%,20%)">jansson</text>
<text x="0.357" y="0.881" font-size="0.012910" fill="hsl(0.0,100%,20%)">peterhanspers</text>
<text x="1.434" y="0.799" font-size="0.012910" fill="hsl(180.0,100%,20%)">manashi</text>
<text x="0.632" y="0.569" font-size="0.050000" fill="hsl(0.0,100%,20%)">phancke</text>
<text x="1.316" y="0.520" font-size="0.012910" fill="hsl(0.0,100%,20%)">kron</text>
<text x="0.881" y="0.554" font-size="0.012910" fill="hsl(0.0,100%,20%)">ilnik</text>
<text x="0.440" y="0.335" font-size="0.031623" fill="hsl(180.0,100%,20%)">qiujiao.wu</text>
<text x="0.361" y="0.447" font-size="0.012910" fill="hsl(180.0,100%,20%)">asapersson</text>
<text x="1.876" y="0.468" font-size="0.022361" fill="hsl(0.0,100%,20%)">zhaoliang.ma</text>
<text x="1.661" y="0.450" font-size="0.012910" fill="hsl(0.0,100%,20%)">handellm</text>
</svg>
