<svg width="4000" height="2000" viewBox="-0.025 -0.025 2.05 1.05" xmlns="http://www.w3.org/2000/svg">
  <style>
    path {
      fill: none;
      stroke-linecap: round;
      stroke-opacity: 0.4;
    }

    text {
      text-anchor: middle;
      alignment-baseline: hanging;
    }
  </style>
  <g opacity="0.4">
<path d="M1.372 0.878 Q1.062 0.775 0.794 0.903" stroke="hsl(0.0,100%,35%)" stroke-width="0.02499"></path>
<path d="M1.372 0.878 Q1.401 0.760 1.180 0.720" stroke="hsl(0.0,100%,35%)" stroke-width="0.01249"></path>
<path d="M1.372 0.878 Q1.701 0.782 1.586 0.600" stroke="hsl(0.0,100%,35%)" stroke-width="0.02499"></path>
<path d="M1.372 0.878 Q1.087 0.674 0.628 0.769" stroke="hsl(0.0,100%,35%)" stroke-width="0.01249"></path>
<path d="M1.372 0.878 Q0.875 0.767 0.551 0.986" stroke="hsl(0.0,100%,35%)" stroke-width="0.01249"></path>
<path d="M1.372 0.878 Q1.433 0.939 1.566 0.923" stroke="hsl(0.0,100%,35%)" stroke-width="0.02499"></path>
<path d="M1.372 0.878 Q1.723 0.854 1.754 0.677" stroke="hsl(0.0,100%,35%)" stroke-width="0.02499"></path>
<path d="M1.372 0.878 Q1.222 0.895 1.224 0.972" stroke="hsl(0.0,100%,35%)" stroke-width="0.02499"></path>
<path d="M1.372 0.878 Q1.330 0.971 1.504 1.012" stroke="hsl(0.0,100%,35%)" stroke-width="0.01249"></path>
<path d="M0.551 0.986 Q0.763 0.893 0.628 0.769" stroke="hsl(180.0,100%,35%)" stroke-width="0.04997"></path>
<path d="M0.551 0.986 Q0.738 0.993 0.794 0.903" stroke="hsl(180.0,100%,35%)" stroke-width="0.03748"></path>
<path d="M0.551 0.986 Q0.468 0.901 0.284 0.922" stroke="hsl(180.0,100%,35%)" stroke-width="0.02499"></path>
<path d="M0.551 0.986 Q1.048 1.096 1.372 0.878" stroke="hsl(180.0,100%,35%)" stroke-width="0.01249"></path>
<path d="M1.077 0.591 Q0.710 0.590 0.628 0.769" stroke="hsl(180.0,100%,35%)" stroke-width="0.02499"></path>
<path d="M1.077 0.591 Q0.498 0.683 0.551 0.986" stroke="hsl(180.0,100%,35%)" stroke-width="0.01249"></path>
<path d="M1.077 0.591 Q0.685 0.690 0.794 0.903" stroke="hsl(180.0,100%,35%)" stroke-width="0.01249"></path>
<path d="M0.676 0.294 Q0.407 0.743 1.224 0.972" stroke="hsl(0.0,100%,35%)" stroke-width="0.01249"></path>
<path d="M0.676 0.294 Q0.940 0.217 0.847 0.072" stroke="hsl(0.0,100%,35%)" stroke-width="0.01249"></path>
<path d="M0.676 0.294 Q0.717 0.378 0.889 0.376" stroke="hsl(0.0,100%,35%)" stroke-width="0.01249"></path>
</g>
<text x="1.372" y="0.828" font-size="0.098374" fill="hsl(0.0,100%,20%)">danilchap</text>
<text x="0.794" y="0.872" font-size="0.062217" fill="hsl(180.0,100%,20%)">mbonadei</text>
<text x="1.180" y="0.708" font-size="0.025400" fill="hsl(0.0,100%,20%)">henrika</text>
<text x="1.586" y="0.582" font-size="0.035921" fill="hsl(0.0,100%,20%)">jleconte</text>
<text x="0.628" y="0.735" font-size="0.067202" fill="hsl(180.0,100%,20%)">hta</text>
<text x="0.551" y="0.942" font-size="0.087988" fill="hsl(180.0,100%,20%)">hbos</text>
<text x="1.566" y="0.905" font-size="0.035921" fill="hsl(0.0,100%,20%)">jakobi</text>
<text x="1.754" y="0.659" font-size="0.035921" fill="hsl(0.0,100%,20%)">saza</text>
<text x="1.224" y="0.950" font-size="0.043994" fill="hsl(0.0,100%,20%)">philipel</text>
<text x="1.504" y="0.999" font-size="0.025400" fill="hsl(0.0,100%,20%)">titovartem</text>
<text x="0.284" y="0.904" font-size="0.035921" fill="hsl(180.0,100%,20%)">eshr</text>
<text x="1.077" y="0.565" font-size="0.050800" fill="hsl(180.0,100%,20%)">phancke</text>
<text x="0.676" y="0.272" font-size="0.043994" fill="hsl(0.0,100%,20%)">qiujiao.wu</text>
<text x="0.847" y="0.059" font-size="0.025400" fill="hsl(0.0,100%,20%)">sprang</text>
<text x="0.889" y="0.363" font-size="0.025400" fill="hsl(0.0,100%,20%)">ssilkin</text>
</svg>
