<svg width="4000" height="2000" viewBox="-0.025 -0.025 2.05 1.05" xmlns="http://www.w3.org/2000/svg">
  <style>
    path {
      fill: none;
      stroke-linecap: round;
      stroke-opacity: 0.4;
    }

    text {
      text-anchor: middle;
      alignment-baseline: hanging;
    }
  </style>
  <g opacity="0.4">
<path d="M0.211 0.886 Q0.841 0.557 0.338 0.177" stroke="hsl(0.0,100%,35%)" stroke-width="0.00445"></path>
<path d="M0.211 0.886 Q0.390 0.881 0.421 0.792" stroke="hsl(0.0,100%,35%)" stroke-width="0.00445"></path>
<path d="M0.211 0.886 Q1.113 0.624 0.800 0.126" stroke="hsl(0.0,100%,35%)" stroke-width="0.00445"></path>
<path d="M0.338 0.177 Q0.171 0.275 0.326 0.377" stroke="hsl(0.0,100%,35%)" stroke-width="0.01336"></path>
<path d="M0.338 0.177 Q0.609 0.244 0.800 0.126" stroke="hsl(0.0,100%,35%)" stroke-width="0.00445"></path>
<path d="M0.338 0.177 Q-0.113 0.501 0.421 0.792" stroke="hsl(0.0,100%,35%)" stroke-width="0.00445"></path>
<path d="M0.421 0.792 Q1.093 1.051 1.744 0.779" stroke="hsl(180.0,100%,35%)" stroke-width="0.00445"></path>
<path d="M0.421 0.792 Q1.201 0.883 1.548 0.522" stroke="hsl(180.0,100%,35%)" stroke-width="0.00445"></path>
<path d="M0.421 0.792 Q0.331 0.709 0.148 0.734" stroke="hsl(180.0,100%,35%)" stroke-width="0.00445"></path>
<path d="M0.421 0.792 Q1.502 0.798 1.749 0.272" stroke="hsl(180.0,100%,35%)" stroke-width="0.00445"></path>
<path d="M0.421 0.792 Q0.376 0.839 0.457 0.871" stroke="hsl(180.0,100%,35%)" stroke-width="0.00445"></path>
<path d="M0.800 0.126 Q0.959 0.135 1.012 0.060" stroke="hsl(0.0,100%,35%)" stroke-width="0.01336"></path>
<path d="M0.800 0.126 Q0.528 0.059 0.338 0.177" stroke="hsl(0.0,100%,35%)" stroke-width="0.01782"></path>
<path d="M0.800 0.126 Q0.362 0.157 0.326 0.377" stroke="hsl(0.0,100%,35%)" stroke-width="0.00445"></path>
<path d="M0.840 0.772 Q1.028 0.727 0.981 0.626" stroke="hsl(180.0,100%,35%)" stroke-width="0.00445"></path>
<path d="M0.840 0.772 Q0.614 0.698 0.421 0.792" stroke="hsl(180.0,100%,35%)" stroke-width="0.01782"></path>
<path d="M0.840 0.772 Q0.678 0.830 0.756 0.922" stroke="hsl(180.0,100%,35%)" stroke-width="0.02673"></path>
<path d="M0.840 0.772 Q1.065 0.374 0.338 0.177" stroke="hsl(180.0,100%,35%)" stroke-width="0.01336"></path>
<path d="M0.840 0.772 Q0.920 0.652 0.705 0.587" stroke="hsl(180.0,100%,35%)" stroke-width="0.00445"></path>
<path d="M0.840 0.772 Q1.336 0.441 0.800 0.126" stroke="hsl(180.0,100%,35%)" stroke-width="0.00445"></path>
<path d="M0.840 0.772 Q1.496 0.450 1.012 0.060" stroke="hsl(180.0,100%,35%)" stroke-width="0.00445"></path>
<path d="M0.840 0.772 Q1.394 0.788 1.548 0.522" stroke="hsl(180.0,100%,35%)" stroke-width="0.00891"></path>
<path d="M0.840 0.772 Q0.966 0.585 0.630 0.483" stroke="hsl(180.0,100%,35%)" stroke-width="0.00891"></path>
<path d="M0.840 0.772 Q1.151 0.714 1.107 0.550" stroke="hsl(180.0,100%,35%)" stroke-width="0.00445"></path>
<path d="M0.840 0.772 Q1.120 0.595 0.837 0.420" stroke="hsl(180.0,100%,35%)" stroke-width="0.00445"></path>
<path d="M0.840 0.772 Q0.525 0.614 0.148 0.734" stroke="hsl(180.0,100%,35%)" stroke-width="0.00445"></path>
<path d="M0.840 0.772 Q1.695 0.704 1.749 0.272" stroke="hsl(180.0,100%,35%)" stroke-width="0.00445"></path>
<path d="M1.012 0.060 Q0.852 0.051 0.800 0.126" stroke="hsl(0.0,100%,35%)" stroke-width="0.05345"></path>
<path d="M1.012 0.060 Q0.795 0.127 0.880 0.248" stroke="hsl(0.0,100%,35%)" stroke-width="0.03563"></path>
<path d="M1.012 0.060 Q0.581 -0.017 0.338 0.177" stroke="hsl(0.0,100%,35%)" stroke-width="0.02227"></path>
<path d="M1.012 0.060 Q0.415 0.081 0.326 0.377" stroke="hsl(0.0,100%,35%)" stroke-width="0.00445"></path>
<path d="M1.012 0.060 Q0.356 0.381 0.840 0.772" stroke="hsl(0.0,100%,35%)" stroke-width="0.00445"></path>
<path d="M1.012 0.060 Q0.890 0.122 0.984 0.195" stroke="hsl(0.0,100%,35%)" stroke-width="0.00445"></path>
<path d="M1.548 0.522 Q1.454 0.597 1.579 0.659" stroke="hsl(180.0,100%,35%)" stroke-width="0.01336"></path>
<path d="M1.548 0.522 Q1.679 0.445 1.556 0.364" stroke="hsl(180.0,100%,35%)" stroke-width="0.01336"></path>
<path d="M1.548 0.522 Q1.641 0.600 1.814 0.572" stroke="hsl(180.0,100%,35%)" stroke-width="0.00445"></path>
<path d="M1.548 0.522 Q1.219 0.107 0.338 0.177" stroke="hsl(180.0,100%,35%)" stroke-width="0.00445"></path>
<path d="M0.148 0.734 Q1.319 0.823 1.749 0.272" stroke="hsl(180.0,100%,35%)" stroke-width="0.00445"></path>
<path d="M0.148 0.734 Q0.744 0.715 0.837 0.420" stroke="hsl(180.0,100%,35%)" stroke-width="0.00445"></path>
<path d="M0.148 0.734 Q0.238 0.818 0.421 0.792" stroke="hsl(180.0,100%,35%)" stroke-width="0.00445"></path>
<path d="M0.148 0.734 Q0.689 0.493 0.338 0.177" stroke="hsl(180.0,100%,35%)" stroke-width="0.00445"></path>
<path d="M1.374 0.842 Q1.660 0.370 0.800 0.126" stroke="hsl(0.0,100%,35%)" stroke-width="0.00891"></path>
<path d="M1.374 0.842 Q1.496 0.849 1.535 0.791" stroke="hsl(0.0,100%,35%)" stroke-width="0.00445"></path>
<path d="M1.374 0.842 Q1.565 0.735 1.397 0.618" stroke="hsl(0.0,100%,35%)" stroke-width="0.00445"></path>
<path d="M1.374 0.842 Q1.388 0.302 0.338 0.177" stroke="hsl(0.0,100%,35%)" stroke-width="0.00445"></path>
<path d="M1.637 0.941 Q1.820 0.881 1.744 0.779" stroke="hsl(180.0,100%,35%)" stroke-width="0.00445"></path>
<path d="M1.637 0.941 Q1.058 0.540 0.148 0.734" stroke="hsl(180.0,100%,35%)" stroke-width="0.00891"></path>
<path d="M1.637 0.941 Q1.927 0.714 1.548 0.522" stroke="hsl(180.0,100%,35%)" stroke-width="0.00445"></path>
<path d="M1.637 0.941 Q2.228 0.629 1.749 0.272" stroke="hsl(180.0,100%,35%)" stroke-width="0.00445"></path>
<path d="M1.162 0.378 Q1.182 0.180 0.800 0.126" stroke="hsl(0.0,100%,35%)" stroke-width="0.00891"></path>
<path d="M1.162 0.378 Q1.541 0.442 1.749 0.272" stroke="hsl(0.0,100%,35%)" stroke-width="0.02227"></path>
<path d="M1.162 0.378 Q1.342 0.189 1.012 0.060" stroke="hsl(0.0,100%,35%)" stroke-width="0.00891"></path>
<path d="M1.162 0.378 Q0.911 0.113 0.338 0.177" stroke="hsl(0.0,100%,35%)" stroke-width="0.00445"></path>
<path d="M1.223 0.200 Q1.071 0.079 0.800 0.126" stroke="hsl(0.0,100%,35%)" stroke-width="0.02673"></path>
<path d="M1.223 0.200 Q1.380 0.151 1.318 0.063" stroke="hsl(0.0,100%,35%)" stroke-width="0.00445"></path>
<path d="M1.223 0.200 Q1.429 0.341 1.749 0.272" stroke="hsl(0.0,100%,35%)" stroke-width="0.00445"></path>
<path d="M1.223 0.200 Q1.496 0.249 1.651 0.126" stroke="hsl(0.0,100%,35%)" stroke-width="0.00445"></path>
<path d="M1.223 0.200 Q1.230 0.088 1.012 0.060" stroke="hsl(0.0,100%,35%)" stroke-width="0.01336"></path>
<path d="M1.223 0.200 Q0.799 0.012 0.338 0.177" stroke="hsl(0.0,100%,35%)" stroke-width="0.00445"></path>
<path d="M1.223 0.200 Q0.885 0.352 1.107 0.550" stroke="hsl(0.0,100%,35%)" stroke-width="0.00445"></path>
<path d="M1.223 0.200 Q0.259 0.252 0.148 0.734" stroke="hsl(0.0,100%,35%)" stroke-width="0.00445"></path>
<path d="M1.041 0.892 Q0.722 0.635 0.148 0.734" stroke="hsl(180.0,100%,35%)" stroke-width="0.00891"></path>
<path d="M1.041 0.892 Q1.892 0.724 1.749 0.272" stroke="hsl(180.0,100%,35%)" stroke-width="0.00891"></path>
<path d="M1.041 0.892 Q0.875 0.850 0.756 0.922" stroke="hsl(180.0,100%,35%)" stroke-width="0.00891"></path>
</g>
<text x="0.211" y="0.875" font-size="0.021736" fill="hsl(0.0,100%,20%)">daniel.l</text>
<text x="0.338" y="0.147" font-size="0.060183" fill="hsl(0.0,100%,20%)">mbonadei</text>
<text x="0.421" y="0.771" font-size="0.043471" fill="hsl(180.0,100%,20%)">jleconte</text>
<text x="0.800" y="0.090" font-size="0.072089" fill="hsl(0.0,100%,20%)">hta</text>
<text x="0.840" y="0.740" font-size="0.063988" fill="hsl(180.0,100%,20%)">danilchap</text>
<text x="0.981" y="0.619" font-size="0.012549" fill="hsl(180.0,100%,20%)">terelius</text>
<text x="0.756" y="0.904" font-size="0.035494" fill="hsl(180.0,100%,20%)">philipel</text>
<text x="0.705" y="0.581" font-size="0.012549" fill="hsl(180.0,100%,20%)">henrika</text>
<text x="1.012" y="0.021" font-size="0.076333" fill="hsl(0.0,100%,20%)">hbos</text>
<text x="1.548" y="0.500" font-size="0.043471" fill="hsl(180.0,100%,20%)">jakobi</text>
<text x="0.630" y="0.474" font-size="0.017747" fill="hsl(180.0,100%,20%)">saza</text>
<text x="1.107" y="0.541" font-size="0.017747" fill="hsl(0.0,100%,20%)">titovartem</text>
<text x="0.837" y="0.411" font-size="0.017747" fill="hsl(180.0,100%,20%)">asapersson</text>
<text x="0.148" y="0.713" font-size="0.041621" fill="hsl(180.0,100%,20%)">ssilkin</text>
<text x="1.749" y="0.250" font-size="0.043471" fill="hsl(0.0,100%,20%)">sprang</text>
<text x="1.374" y="0.828" font-size="0.028061" fill="hsl(0.0,100%,20%)">dorhen</text>
<text x="1.535" y="0.785" font-size="0.012549" fill="hsl(0.0,100%,20%)">guidou</text>
<text x="1.397" y="0.612" font-size="0.012549" fill="hsl(0.0,100%,20%)">gustaf</text>
<text x="1.637" y="0.927" font-size="0.028061" fill="hsl(180.0,100%,20%)">dwtan</text>
<text x="1.744" y="0.770" font-size="0.017747" fill="hsl(180.0,100%,20%)">marpan</text>
<text x="0.880" y="0.230" font-size="0.035494" fill="hsl(0.0,100%,20%)">eshr</text>
<text x="0.326" y="0.363" font-size="0.028061" fill="hsl(0.0,100%,20%)">jansson</text>
<text x="0.984" y="0.188" font-size="0.012549" fill="hsl(0.0,100%,20%)">peterhanspers</text>
<text x="1.579" y="0.648" font-size="0.021736" fill="hsl(180.0,100%,20%)">henrik.lundin</text>
<text x="1.556" y="0.353" font-size="0.021736" fill="hsl(180.0,100%,20%)">tomasl</text>
<text x="1.814" y="0.566" font-size="0.012549" fill="hsl(180.0,100%,20%)">hlundin</text>
<text x="0.457" y="0.865" font-size="0.012549" fill="hsl(180.0,100%,20%)">manashi</text>
<text x="1.162" y="0.358" font-size="0.039684" fill="hsl(0.0,100%,20%)">perkj</text>
<text x="1.223" y="0.176" font-size="0.048603" fill="hsl(0.0,100%,20%)">phancke</text>
<text x="1.318" y="0.057" font-size="0.012549" fill="hsl(0.0,100%,20%)">kron</text>
<text x="1.651" y="0.120" font-size="0.012549" fill="hsl(0.0,100%,20%)">ilnik</text>
<text x="1.041" y="0.877" font-size="0.030739" fill="hsl(180.0,100%,20%)">qiujiao.wu</text>
</svg>
