<svg width="4000" height="2000" viewBox="-0.025 -0.025 2.05 1.05" xmlns="http://www.w3.org/2000/svg">
  <style>
    path {
      fill: none;
      stroke-linecap: round;
      stroke-opacity: 0.4;
    }

    text {
      text-anchor: middle;
      alignment-baseline: hanging;
    }
  </style>
  <g opacity="0.4">
<path d="M1.113 0.832 Q1.261 0.811 1.252 0.734" stroke="hsl(0.0,100%,35%)" stroke-width="0.00347"></path>
<path d="M1.113 0.832 Q0.909 0.657 0.521 0.718" stroke="hsl(0.0,100%,35%)" stroke-width="0.00174"></path>
<path d="M1.113 0.832 Q1.454 0.478 0.838 0.235" stroke="hsl(0.0,100%,35%)" stroke-width="0.00174"></path>
<path d="M1.252 0.734 Q1.195 0.569 0.861 0.560" stroke="hsl(0.0,100%,35%)" stroke-width="0.02779"></path>
<path d="M1.252 0.734 Q1.399 0.678 1.322 0.594" stroke="hsl(0.0,100%,35%)" stroke-width="0.01389"></path>
<path d="M1.252 0.734 Q0.899 0.580 0.521 0.718" stroke="hsl(0.0,100%,35%)" stroke-width="0.00868"></path>
<path d="M1.252 0.734 Q0.995 0.296 0.085 0.326" stroke="hsl(0.0,100%,35%)" stroke-width="0.00174"></path>
<path d="M1.252 0.734 Q0.653 0.515 0.095 0.760" stroke="hsl(0.0,100%,35%)" stroke-width="0.00174"></path>
<path d="M1.252 0.734 Q1.511 0.905 1.902 0.817" stroke="hsl(0.0,100%,35%)" stroke-width="0.00174"></path>
<path d="M1.252 0.734 Q1.516 0.313 0.753 0.092" stroke="hsl(0.0,100%,35%)" stroke-width="0.00347"></path>
<path d="M0.521 0.718 Q0.617 0.434 0.085 0.326" stroke="hsl(180.0,100%,35%)" stroke-width="0.00521"></path>
<path d="M0.521 0.718 Q0.817 0.707 0.861 0.560" stroke="hsl(180.0,100%,35%)" stroke-width="0.00521"></path>
<path d="M0.521 0.718 Q0.775 0.435 0.279 0.250" stroke="hsl(180.0,100%,35%)" stroke-width="0.00695"></path>
<path d="M0.521 0.718 Q0.739 0.516 0.392 0.365" stroke="hsl(180.0,100%,35%)" stroke-width="0.00174"></path>
<path d="M0.521 0.718 Q0.997 0.610 0.891 0.355" stroke="hsl(180.0,100%,35%)" stroke-width="0.00174"></path>
<path d="M0.521 0.718 Q0.640 0.529 0.297 0.430" stroke="hsl(180.0,100%,35%)" stroke-width="0.00174"></path>
<path d="M0.521 0.718 Q1.024 0.735 1.167 0.493" stroke="hsl(180.0,100%,35%)" stroke-width="0.00174"></path>
<path d="M0.521 0.718 Q0.527 0.867 0.821 0.897" stroke="hsl(180.0,100%,35%)" stroke-width="0.00174"></path>
<path d="M0.838 0.235 Q0.768 0.305 0.891 0.355" stroke="hsl(0.0,100%,35%)" stroke-width="0.01042"></path>
<path d="M0.838 0.235 Q0.589 0.402 0.861 0.560" stroke="hsl(0.0,100%,35%)" stroke-width="0.02605"></path>
<path d="M0.838 0.235 Q0.915 0.344 1.146 0.331" stroke="hsl(0.0,100%,35%)" stroke-width="0.00174"></path>
<path d="M0.838 0.235 Q0.646 0.567 1.252 0.734" stroke="hsl(0.0,100%,35%)" stroke-width="0.00174"></path>
<path d="M0.838 0.235 Q0.793 0.511 1.322 0.594" stroke="hsl(0.0,100%,35%)" stroke-width="0.00174"></path>
<path d="M0.838 0.235 Q0.538 0.480 0.951 0.680" stroke="hsl(0.0,100%,35%)" stroke-width="0.00174"></path>
<path d="M0.838 0.235 Q0.796 0.430 1.167 0.493" stroke="hsl(0.0,100%,35%)" stroke-width="0.00174"></path>
<path d="M1.344 0.505 Q1.097 0.514 1.061 0.637" stroke="hsl(0.0,100%,35%)" stroke-width="0.00174"></path>
<path d="M1.344 0.505 Q1.058 0.436 0.861 0.560" stroke="hsl(0.0,100%,35%)" stroke-width="0.00695"></path>
<path d="M1.344 0.505 Q0.717 0.373 0.320 0.649" stroke="hsl(0.0,100%,35%)" stroke-width="0.00174"></path>
<path d="M1.061 0.637 Q1.338 0.895 1.902 0.817" stroke="hsl(0.0,100%,35%)" stroke-width="0.00174"></path>
<path d="M1.061 0.637 Q0.822 0.286 0.085 0.326" stroke="hsl(0.0,100%,35%)" stroke-width="0.00174"></path>
<path d="M1.061 0.637 Q0.845 0.381 0.297 0.430" stroke="hsl(0.0,100%,35%)" stroke-width="0.00174"></path>
<path d="M0.861 0.560 Q0.918 0.725 1.252 0.734" stroke="hsl(0.0,100%,35%)" stroke-width="0.00521"></path>
<path d="M0.861 0.560 Q1.110 0.393 0.838 0.235" stroke="hsl(0.0,100%,35%)" stroke-width="0.01216"></path>
<path d="M0.861 0.560 Q0.565 0.571 0.521 0.718" stroke="hsl(0.0,100%,35%)" stroke-width="0.01389"></path>
<path d="M0.861 0.560 Q0.660 0.288 0.085 0.326" stroke="hsl(0.0,100%,35%)" stroke-width="0.00521"></path>
<path d="M0.861 0.560 Q1.030 0.500 0.949 0.404" stroke="hsl(0.0,100%,35%)" stroke-width="0.00174"></path>
<path d="M0.861 0.560 Q0.899 0.639 1.061 0.637" stroke="hsl(0.0,100%,35%)" stroke-width="0.00174"></path>
<path d="M0.861 0.560 Q0.818 0.289 0.279 0.250" stroke="hsl(0.0,100%,35%)" stroke-width="0.00174"></path>
<path d="M0.450 0.793 Q0.545 0.770 0.521 0.718" stroke="hsl(0.0,100%,35%)" stroke-width="0.00174"></path>
<path d="M0.450 0.793 Q0.799 0.487 0.279 0.250" stroke="hsl(0.0,100%,35%)" stroke-width="0.00174"></path>
<path d="M0.450 0.793 Q0.841 0.759 0.861 0.560" stroke="hsl(0.0,100%,35%)" stroke-width="0.00174"></path>
<path d="M0.279 0.250 Q0.243 0.330 0.392 0.365" stroke="hsl(180.0,100%,35%)" stroke-width="0.00174"></path>
<path d="M0.279 0.250 Q0.147 0.668 0.935 0.824" stroke="hsl(180.0,100%,35%)" stroke-width="0.00174"></path>
<path d="M0.279 0.250 Q0.667 0.806 1.838 0.738" stroke="hsl(180.0,100%,35%)" stroke-width="0.00174"></path>
<path d="M0.279 0.250 Q0.690 0.715 1.688 0.616" stroke="hsl(180.0,100%,35%)" stroke-width="0.00174"></path>
<path d="M0.279 0.250 Q0.581 0.220 0.589 0.065" stroke="hsl(180.0,100%,35%)" stroke-width="0.00347"></path>
<path d="M0.279 0.250 Q0.121 0.249 0.085 0.326" stroke="hsl(180.0,100%,35%)" stroke-width="0.00174"></path>
<path d="M0.279 0.250 Q0.025 0.532 0.521 0.718" stroke="hsl(180.0,100%,35%)" stroke-width="0.00347"></path>
<path d="M0.279 0.250 Q0.484 0.194 0.421 0.082" stroke="hsl(180.0,100%,35%)" stroke-width="0.00174"></path>
<path d="M0.095 0.760 Q0.817 0.716 0.891 0.355" stroke="hsl(180.0,100%,35%)" stroke-width="0.00521"></path>
<path d="M0.095 0.760 Q0.595 0.541 0.279 0.250" stroke="hsl(180.0,100%,35%)" stroke-width="0.00868"></path>
<path d="M0.095 0.760 Q0.297 0.727 0.277 0.622" stroke="hsl(180.0,100%,35%)" stroke-width="0.02779"></path>
<path d="M0.095 0.760 Q0.342 0.824 0.521 0.718" stroke="hsl(180.0,100%,35%)" stroke-width="0.01389"></path>
<path d="M0.095 0.760 Q0.801 0.486 0.421 0.082" stroke="hsl(180.0,100%,35%)" stroke-width="0.00174"></path>
<path d="M0.095 0.760 Q0.638 0.813 0.861 0.560" stroke="hsl(180.0,100%,35%)" stroke-width="0.01737"></path>
<path d="M0.095 0.760 Q0.695 0.978 1.252 0.734" stroke="hsl(180.0,100%,35%)" stroke-width="0.00174"></path>
<path d="M0.095 0.760 Q0.464 0.960 0.935 0.824" stroke="hsl(180.0,100%,35%)" stroke-width="0.00521"></path>
<path d="M0.095 0.760 Q0.296 0.750 0.320 0.649" stroke="hsl(180.0,100%,35%)" stroke-width="0.00695"></path>
<path d="M0.095 0.760 Q0.460 0.635 0.297 0.430" stroke="hsl(180.0,100%,35%)" stroke-width="0.00521"></path>
<path d="M0.095 0.760 Q0.844 0.841 1.167 0.493" stroke="hsl(180.0,100%,35%)" stroke-width="0.00521"></path>
<path d="M0.095 0.760 Q0.449 0.892 0.784 0.748" stroke="hsl(180.0,100%,35%)" stroke-width="0.00174"></path>
<path d="M0.095 0.760 Q0.782 1.086 1.569 0.822" stroke="hsl(180.0,100%,35%)" stroke-width="0.00521"></path>
<path d="M0.095 0.760 Q0.256 0.776 0.322 0.701" stroke="hsl(180.0,100%,35%)" stroke-width="0.00174"></path>
<path d="M0.095 0.760 Q0.984 1.098 1.838 0.738" stroke="hsl(180.0,100%,35%)" stroke-width="0.00521"></path>
<path d="M0.095 0.760 Q1.006 1.006 1.688 0.616" stroke="hsl(180.0,100%,35%)" stroke-width="0.00868"></path>
<path d="M0.095 0.760 Q0.217 0.707 0.141 0.636" stroke="hsl(180.0,100%,35%)" stroke-width="0.00347"></path>
<path d="M0.095 0.760 Q0.887 0.646 0.838 0.235" stroke="hsl(180.0,100%,35%)" stroke-width="0.00347"></path>
<path d="M0.891 0.355 Q0.415 0.462 0.521 0.718" stroke="hsl(180.0,100%,35%)" stroke-width="0.00695"></path>
<path d="M0.891 0.355 Q1.057 0.736 1.838 0.738" stroke="hsl(180.0,100%,35%)" stroke-width="0.00347"></path>
<path d="M0.891 0.355 Q0.711 0.452 0.861 0.560" stroke="hsl(180.0,100%,35%)" stroke-width="0.00174"></path>
<path d="M0.891 0.355 Q0.918 0.479 1.167 0.493" stroke="hsl(180.0,100%,35%)" stroke-width="0.00174"></path>
<path d="M0.421 0.082 Q0.579 0.153 0.753 0.092" stroke="hsl(0.0,100%,35%)" stroke-width="0.00521"></path>
<path d="M0.421 0.082 Q0.683 0.220 1.010 0.123" stroke="hsl(0.0,100%,35%)" stroke-width="0.00347"></path>
<path d="M0.421 0.082 Q0.315 0.574 1.252 0.734" stroke="hsl(0.0,100%,35%)" stroke-width="0.00347"></path>
<path d="M0.421 0.082 Q-0.038 0.420 0.521 0.718" stroke="hsl(0.0,100%,35%)" stroke-width="0.00174"></path>
<path d="M0.935 0.824 Q0.891 0.763 0.763 0.770" stroke="hsl(180.0,100%,35%)" stroke-width="0.00521"></path>
<path d="M0.935 0.824 Q1.102 0.910 1.308 0.848" stroke="hsl(180.0,100%,35%)" stroke-width="0.00521"></path>
<path d="M0.935 0.824 Q0.767 0.614 0.320 0.649" stroke="hsl(180.0,100%,35%)" stroke-width="0.00174"></path>
<path d="M0.935 0.824 Q0.999 0.951 1.260 0.947" stroke="hsl(180.0,100%,35%)" stroke-width="0.00174"></path>
<path d="M0.935 0.824 Q0.813 0.688 0.521 0.718" stroke="hsl(180.0,100%,35%)" stroke-width="0.00174"></path>
<path d="M1.167 0.493 Q0.960 0.466 0.861 0.560" stroke="hsl(0.0,100%,35%)" stroke-width="0.02779"></path>
<path d="M1.167 0.493 Q1.329 0.659 1.688 0.616" stroke="hsl(0.0,100%,35%)" stroke-width="0.01389"></path>
<path d="M1.167 0.493 Q1.017 0.631 1.252 0.734" stroke="hsl(0.0,100%,35%)" stroke-width="0.00347"></path>
<path d="M1.167 0.493 Q0.665 0.477 0.521 0.718" stroke="hsl(0.0,100%,35%)" stroke-width="0.00695"></path>
<path d="M1.167 0.493 Q1.319 0.439 1.246 0.353" stroke="hsl(0.0,100%,35%)" stroke-width="0.00868"></path>
<path d="M1.167 0.493 Q1.483 0.539 1.642 0.395" stroke="hsl(0.0,100%,35%)" stroke-width="0.00174"></path>
<path d="M1.838 0.738 Q1.861 0.647 1.688 0.616" stroke="hsl(180.0,100%,35%)" stroke-width="0.01563"></path>
<path d="M1.838 0.738 Q1.636 0.726 1.569 0.822" stroke="hsl(180.0,100%,35%)" stroke-width="0.00521"></path>
<path d="M1.838 0.738 Q1.449 0.182 0.279 0.250" stroke="hsl(180.0,100%,35%)" stroke-width="0.00174"></path>
<path d="M1.838 0.738 Q1.196 0.465 0.521 0.718" stroke="hsl(180.0,100%,35%)" stroke-width="0.00347"></path>
<path d="M1.838 0.738 Q0.949 0.400 0.095 0.760" stroke="hsl(180.0,100%,35%)" stroke-width="0.00174"></path>
<path d="M1.838 0.738 Q1.151 0.368 0.277 0.622" stroke="hsl(180.0,100%,35%)" stroke-width="0.00174"></path>
<path d="M0.466 0.384 Q0.345 0.373 0.297 0.430" stroke="hsl(180.0,100%,35%)" stroke-width="0.00521"></path>
<path d="M0.466 0.384 Q-0.020 0.498 0.095 0.760" stroke="hsl(180.0,100%,35%)" stroke-width="0.00174"></path>
<path d="M0.466 0.384 Q0.522 0.551 0.861 0.560" stroke="hsl(180.0,100%,35%)" stroke-width="0.00695"></path>
<path d="M0.466 0.384 Q0.456 0.440 0.562 0.457" stroke="hsl(180.0,100%,35%)" stroke-width="0.00174"></path>
<path d="M0.466 0.384 Q0.679 0.305 0.570 0.183" stroke="hsl(180.0,100%,35%)" stroke-width="0.00174"></path>
<path d="M0.466 0.384 Q0.227 0.562 0.521 0.718" stroke="hsl(180.0,100%,35%)" stroke-width="0.00521"></path>
<path d="M1.530 0.687 Q1.218 0.298 0.392 0.365" stroke="hsl(180.0,100%,35%)" stroke-width="0.00174"></path>
<path d="M1.530 0.687 Q1.643 0.774 1.838 0.738" stroke="hsl(180.0,100%,35%)" stroke-width="0.00347"></path>
<path d="M1.530 0.687 Q1.123 0.636 0.935 0.824" stroke="hsl(180.0,100%,35%)" stroke-width="0.00174"></path>
<path d="M1.530 0.687 Q1.665 0.683 1.688 0.616" stroke="hsl(180.0,100%,35%)" stroke-width="0.00174"></path>
<path d="M1.057 0.202 Q1.097 0.153 1.010 0.123" stroke="hsl(0.0,100%,35%)" stroke-width="0.00868"></path>
<path d="M1.057 0.202 Q0.879 0.370 1.167 0.493" stroke="hsl(0.0,100%,35%)" stroke-width="0.00174"></path>
<path d="M1.057 0.202 Q1.278 0.196 1.314 0.086" stroke="hsl(0.0,100%,35%)" stroke-width="0.00347"></path>
<path d="M0.085 0.326 Q-0.011 0.609 0.521 0.718" stroke="hsl(180.0,100%,35%)" stroke-width="0.00868"></path>
<path d="M0.085 0.326 Q0.242 0.326 0.279 0.250" stroke="hsl(180.0,100%,35%)" stroke-width="0.01042"></path>
<path d="M0.085 0.326 Q0.285 0.598 0.861 0.560" stroke="hsl(180.0,100%,35%)" stroke-width="0.00174"></path>
<path d="M0.596 0.557 Q0.624 0.513 0.546 0.490" stroke="hsl(0.0,100%,35%)" stroke-width="0.00347"></path>
<path d="M0.596 0.557 Q0.725 0.611 0.861 0.560" stroke="hsl(0.0,100%,35%)" stroke-width="0.00347"></path>
<path d="M0.596 0.557 Q0.658 0.500 0.562 0.457" stroke="hsl(0.0,100%,35%)" stroke-width="0.00174"></path>
<path d="M0.244 0.512 Q0.173 0.573 0.277 0.622" stroke="hsl(180.0,100%,35%)" stroke-width="0.00521"></path>
<path d="M0.244 0.512 Q0.218 0.670 0.521 0.718" stroke="hsl(180.0,100%,35%)" stroke-width="0.00174"></path>
<path d="M0.244 0.512 Q0.860 0.944 1.838 0.738" stroke="hsl(180.0,100%,35%)" stroke-width="0.00174"></path>
<path d="M0.244 0.512 Q-0.029 0.606 0.095 0.760" stroke="hsl(180.0,100%,35%)" stroke-width="0.00347"></path>
<path d="M0.699 0.405 Q0.656 0.515 0.861 0.560" stroke="hsl(0.0,100%,35%)" stroke-width="0.00695"></path>
<path d="M0.699 0.405 Q0.713 0.680 1.252 0.734" stroke="hsl(0.0,100%,35%)" stroke-width="0.00174"></path>
<path d="M0.699 0.405 Q1.025 0.709 1.688 0.616" stroke="hsl(0.0,100%,35%)" stroke-width="0.00174"></path>
<path d="M0.955 0.963 Q1.056 0.890 0.935 0.824" stroke="hsl(180.0,100%,35%)" stroke-width="0.00174"></path>
<path d="M0.955 0.963 Q1.230 0.743 0.861 0.560" stroke="hsl(180.0,100%,35%)" stroke-width="0.00174"></path>
<path d="M0.955 0.963 Q0.688 0.690 0.095 0.760" stroke="hsl(180.0,100%,35%)" stroke-width="0.00174"></path>
<path d="M1.746 0.940 Q1.646 0.652 1.061 0.637" stroke="hsl(180.0,100%,35%)" stroke-width="0.00174"></path>
<path d="M1.746 0.940 Q1.923 0.910 1.902 0.817" stroke="hsl(180.0,100%,35%)" stroke-width="0.00174"></path>
<path d="M1.746 0.940 Q1.312 0.584 0.521 0.718" stroke="hsl(180.0,100%,35%)" stroke-width="0.00174"></path>
<path d="M0.951 0.680 Q1.348 0.887 1.838 0.738" stroke="hsl(0.0,100%,35%)" stroke-width="0.00695"></path>
<path d="M0.951 0.680 Q1.002 0.602 0.861 0.560" stroke="hsl(0.0,100%,35%)" stroke-width="0.05558"></path>
<path d="M0.951 0.680 Q0.814 0.681 0.784 0.748" stroke="hsl(0.0,100%,35%)" stroke-width="0.00174"></path>
<path d="M0.951 0.680 Q1.371 0.796 1.688 0.616" stroke="hsl(0.0,100%,35%)" stroke-width="0.00174"></path>
<path d="M0.951 0.680 Q1.427 0.413 1.010 0.123" stroke="hsl(0.0,100%,35%)" stroke-width="0.00695"></path>
<path d="M0.951 0.680 Q1.041 0.681 1.061 0.637" stroke="hsl(0.0,100%,35%)" stroke-width="0.02084"></path>
<path d="M0.951 0.680 Q0.460 0.549 0.095 0.760" stroke="hsl(0.0,100%,35%)" stroke-width="0.00695"></path>
<path d="M0.951 0.680 Q1.059 0.767 1.252 0.734" stroke="hsl(0.0,100%,35%)" stroke-width="0.01563"></path>
<path d="M0.951 0.680 Q0.706 0.613 0.521 0.718" stroke="hsl(0.0,100%,35%)" stroke-width="0.00695"></path>
<path d="M0.951 0.680 Q1.129 0.667 1.142 0.578" stroke="hsl(0.0,100%,35%)" stroke-width="0.00174"></path>
<path d="M0.951 0.680 Q0.714 0.675 0.651 0.790" stroke="hsl(0.0,100%,35%)" stroke-width="0.00174"></path>
<path d="M0.951 0.680 Q0.661 0.539 0.320 0.649" stroke="hsl(0.0,100%,35%)" stroke-width="0.00174"></path>
<path d="M0.951 0.680 Q0.825 0.424 0.297 0.430" stroke="hsl(0.0,100%,35%)" stroke-width="0.00174"></path>
<path d="M0.951 0.680 Q1.251 0.435 0.838 0.235" stroke="hsl(0.0,100%,35%)" stroke-width="0.00174"></path>
<path d="M1.496 0.753 Q1.679 0.814 1.838 0.738" stroke="hsl(180.0,100%,35%)" stroke-width="0.00347"></path>
<path d="M1.496 0.753 Q1.702 0.723 1.688 0.616" stroke="hsl(180.0,100%,35%)" stroke-width="0.00347"></path>
<path d="M1.496 0.753 Q0.992 0.444 0.277 0.622" stroke="hsl(180.0,100%,35%)" stroke-width="0.00347"></path>
<path d="M1.436 0.577 Q1.162 0.454 0.861 0.560" stroke="hsl(0.0,100%,35%)" stroke-width="0.00347"></path>
<path d="M1.436 0.577 Q1.219 0.619 1.252 0.734" stroke="hsl(0.0,100%,35%)" stroke-width="0.00347"></path>
<path d="M1.436 0.577 Q1.483 0.198 0.753 0.092" stroke="hsl(0.0,100%,35%)" stroke-width="0.00347"></path>
</g>
<text x="1.113" y="0.825" font-size="0.013688" fill="hsl(0.0,100%,20%)">aheggestad</text>
<text x="1.252" y="0.708" font-size="0.051670" fill="hsl(0.0,100%,20%)">hbos</text>
<text x="0.521" y="0.690" font-size="0.055600" fill="hsl(180.0,100%,20%)">mbonadei</text>
<text x="0.838" y="0.214" font-size="0.041630" fill="hsl(0.0,100%,20%)">tommi</text>
<text x="1.344" y="0.497" font-size="0.016764" fill="hsl(0.0,100%,20%)">boivie</text>
<text x="1.061" y="0.623" font-size="0.029036" fill="hsl(0.0,100%,20%)">orphis</text>
<text x="0.861" y="0.520" font-size="0.079812" fill="hsl(0.0,100%,20%)">hta</text>
<text x="0.320" y="0.640" font-size="0.018107" fill="hsl(180.0,100%,20%)">saza</text>
<text x="0.450" y="0.787" font-size="0.011854" fill="hsl(0.0,100%,20%)">daniel.l</text>
<text x="0.279" y="0.231" font-size="0.036214" fill="hsl(180.0,100%,20%)">jleconte</text>
<text x="0.095" y="0.728" font-size="0.062725" fill="hsl(180.0,100%,20%)">danilchap</text>
<text x="0.891" y="0.340" font-size="0.029036" fill="hsl(180.0,100%,20%)">terelius</text>
<text x="0.277" y="0.606" font-size="0.032101" fill="hsl(180.0,100%,20%)">philipel</text>
<text x="0.421" y="0.071" font-size="0.021642" fill="hsl(0.0,100%,20%)">henrika</text>
<text x="0.935" y="0.811" font-size="0.026506" fill="hsl(180.0,100%,20%)">jakobi</text>
<text x="0.297" y="0.420" font-size="0.020532" fill="hsl(180.0,100%,20%)">titovartem</text>
<text x="1.167" y="0.471" font-size="0.044878" fill="hsl(0.0,100%,20%)">perkj</text>
<text x="0.784" y="0.743" font-size="0.009679" fill="hsl(180.0,100%,20%)">kron</text>
<text x="1.569" y="0.814" font-size="0.016764" fill="hsl(180.0,100%,20%)">asapersson</text>
<text x="0.322" y="0.697" font-size="0.006844" fill="hsl(180.0,100%,20%)">lndmrk</text>
<text x="1.838" y="0.719" font-size="0.038715" fill="hsl(180.0,100%,20%)">ssilkin</text>
<text x="1.688" y="0.598" font-size="0.036214" fill="hsl(180.0,100%,20%)">sprang</text>
<text x="0.141" y="0.631" font-size="0.009679" fill="hsl(180.0,100%,20%)">kthelgason</text>
<text x="0.466" y="0.372" font-size="0.024676" fill="hsl(180.0,100%,20%)">dorhen</text>
<text x="0.562" y="0.452" font-size="0.009679" fill="hsl(0.0,100%,20%)">guidou</text>
<text x="0.570" y="0.180" font-size="0.006844" fill="hsl(180.0,100%,20%)">gustaf</text>
<text x="1.530" y="0.679" font-size="0.015303" fill="hsl(180.0,100%,20%)">dwtan</text>
<text x="0.392" y="0.359" font-size="0.011854" fill="hsl(180.0,100%,20%)">marpan</text>
<text x="1.057" y="0.192" font-size="0.019357" fill="hsl(0.0,100%,20%)">grulja</text>
<text x="1.010" y="0.111" font-size="0.022699" fill="hsl(0.0,100%,20%)">ilnik</text>
<text x="1.314" y="0.081" font-size="0.009679" fill="hsl(0.0,100%,20%)">alcooper</text>
<text x="1.322" y="0.584" font-size="0.020532" fill="hsl(0.0,100%,20%)">eshr</text>
<text x="0.085" y="0.310" font-size="0.031363" fill="hsl(180.0,100%,20%)">jansson</text>
<text x="1.902" y="0.811" font-size="0.011854" fill="hsl(180.0,100%,20%)">peterhanspers</text>
<text x="0.753" y="0.083" font-size="0.018107" fill="hsl(0.0,100%,20%)">handellm</text>
<text x="0.596" y="0.549" font-size="0.015303" fill="hsl(0.0,100%,20%)">herre</text>
<text x="0.546" y="0.486" font-size="0.009679" fill="hsl(0.0,100%,20%)">stefan</text>
<text x="0.949" y="0.400" font-size="0.006844" fill="hsl(0.0,100%,20%)">sergeysu</text>
<text x="0.763" y="0.764" font-size="0.011854" fill="hsl(180.0,100%,20%)">henrik.lundin</text>
<text x="1.308" y="0.842" font-size="0.011854" fill="hsl(180.0,100%,20%)">tomasl</text>
<text x="1.260" y="0.944" font-size="0.006844" fill="hsl(180.0,100%,20%)">hlundin</text>
<text x="0.244" y="0.503" font-size="0.018107" fill="hsl(180.0,100%,20%)">jianjun.zhu</text>
<text x="0.699" y="0.397" font-size="0.016764" fill="hsl(0.0,100%,20%)">jianlin.qiu</text>
<text x="0.589" y="0.061" font-size="0.009679" fill="hsl(180.0,100%,20%)">manashi</text>
<text x="0.955" y="0.957" font-size="0.011854" fill="hsl(180.0,100%,20%)">joachimr</text>
<text x="1.746" y="0.934" font-size="0.011854" fill="hsl(180.0,100%,20%)">karim</text>
<text x="0.821" y="0.894" font-size="0.006844" fill="hsl(180.0,100%,20%)">xalep</text>
<text x="1.246" y="0.345" font-size="0.015303" fill="hsl(0.0,100%,20%)">jonaso</text>
<text x="1.642" y="0.392" font-size="0.006844" fill="hsl(180.0,100%,20%)">diepbp</text>
<text x="0.951" y="0.650" font-size="0.060055" fill="hsl(0.0,100%,20%)">phancke</text>
<text x="1.142" y="0.574" font-size="0.006844" fill="hsl(0.0,100%,20%)">fhernqvist</text>
<text x="0.651" y="0.786" font-size="0.006844" fill="hsl(0.0,100%,20%)">natashenka</text>
<text x="1.496" y="0.745" font-size="0.016764" fill="hsl(180.0,100%,20%)">qiujiao.wu</text>
<text x="1.146" y="0.328" font-size="0.006844" fill="hsl(0.0,100%,20%)">alexfh</text>
<text x="1.436" y="0.569" font-size="0.016764" fill="hsl(0.0,100%,20%)">zhaoliang.ma</text>
</svg>
