<svg width="4000" height="2000" viewBox="-0.025 -0.025 2.05 1.05" xmlns="http://www.w3.org/2000/svg">
  <style>
    path {
      fill: none;
      stroke-linecap: round;
      stroke-opacity: 0.4;
    }

    text {
      text-anchor: middle;
      alignment-baseline: hanging;
    }
  </style>
  <g opacity="0.4">
<path d="M1.630 0.951 Q1.591 0.848 1.381 0.844" stroke="hsl(0.0,100%,35%)" stroke-width="0.00356"></path>
<path d="M1.630 0.951 Q2.252 0.725 1.946 0.372" stroke="hsl(0.0,100%,35%)" stroke-width="0.00178"></path>
<path d="M1.630 0.951 Q0.972 0.667 0.274 0.926" stroke="hsl(0.0,100%,35%)" stroke-width="0.00178"></path>
<path d="M1.381 0.844 Q1.154 0.887 1.187 1.007" stroke="hsl(0.0,100%,35%)" stroke-width="0.02847"></path>
<path d="M1.381 0.844 Q1.544 0.808 1.510 0.721" stroke="hsl(0.0,100%,35%)" stroke-width="0.01423"></path>
<path d="M1.381 0.844 Q2.042 0.721 1.946 0.372" stroke="hsl(0.0,100%,35%)" stroke-width="0.00890"></path>
<path d="M1.381 0.844 Q1.850 0.716 1.703 0.459" stroke="hsl(0.0,100%,35%)" stroke-width="0.00178"></path>
<path d="M1.381 0.844 Q2.028 0.606 1.704 0.238" stroke="hsl(0.0,100%,35%)" stroke-width="0.00178"></path>
<path d="M1.381 0.844 Q1.860 0.811 1.900 0.570" stroke="hsl(0.0,100%,35%)" stroke-width="0.00178"></path>
<path d="M1.381 0.844 Q1.325 0.566 0.769 0.532" stroke="hsl(0.0,100%,35%)" stroke-width="0.00356"></path>
<path d="M1.946 0.372 Q1.755 0.367 1.703 0.459" stroke="hsl(0.0,100%,35%)" stroke-width="0.00534"></path>
<path d="M1.946 0.372 Q1.058 0.537 1.187 1.007" stroke="hsl(0.0,100%,35%)" stroke-width="0.01068"></path>
<path d="M1.946 0.372 Q1.605 0.391 1.569 0.562" stroke="hsl(0.0,100%,35%)" stroke-width="0.00356"></path>
<path d="M1.946 0.372 Q1.649 0.074 1.002 0.153" stroke="hsl(0.0,100%,35%)" stroke-width="0.00178"></path>
<path d="M1.946 0.372 Q1.932 0.256 1.704 0.238" stroke="hsl(0.0,100%,35%)" stroke-width="0.00178"></path>
<path d="M0.274 0.926 Q1.296 0.872 1.414 0.361" stroke="hsl(0.0,100%,35%)" stroke-width="0.00712"></path>
<path d="M0.274 0.926 Q0.665 1.149 1.187 1.007" stroke="hsl(0.0,100%,35%)" stroke-width="0.01957"></path>
<path d="M0.274 0.926 Q0.455 0.818 0.285 0.706" stroke="hsl(0.0,100%,35%)" stroke-width="0.00178"></path>
<path d="M0.274 0.926 Q0.893 1.107 1.381 0.844" stroke="hsl(0.0,100%,35%)" stroke-width="0.00178"></path>
<path d="M0.274 0.926 Q1.356 0.805 1.358 0.251" stroke="hsl(0.0,100%,35%)" stroke-width="0.00178"></path>
<path d="M0.274 0.926 Q1.553 0.983 1.946 0.372" stroke="hsl(0.0,100%,35%)" stroke-width="0.00178"></path>
<path d="M1.482 0.642 Q1.351 0.639 1.315 0.702" stroke="hsl(0.0,100%,35%)" stroke-width="0.00534"></path>
<path d="M1.482 0.642 Q1.042 0.765 1.187 1.007" stroke="hsl(0.0,100%,35%)" stroke-width="0.01068"></path>
<path d="M1.482 0.642 Q1.968 0.372 1.548 0.076" stroke="hsl(0.0,100%,35%)" stroke-width="0.00178"></path>
<path d="M1.315 0.702 Q1.713 0.753 1.900 0.570" stroke="hsl(0.0,100%,35%)" stroke-width="0.00178"></path>
<path d="M1.315 0.702 Q1.703 0.658 1.703 0.459" stroke="hsl(0.0,100%,35%)" stroke-width="0.00178"></path>
<path d="M1.315 0.702 Q1.007 0.828 1.187 1.007" stroke="hsl(0.0,100%,35%)" stroke-width="0.00178"></path>
<path d="M1.187 1.007 Q1.414 0.964 1.381 0.844" stroke="hsl(0.0,100%,35%)" stroke-width="0.00356"></path>
<path d="M1.187 1.007 Q0.795 0.784 0.274 0.926" stroke="hsl(0.0,100%,35%)" stroke-width="0.01601"></path>
<path d="M1.187 1.007 Q2.074 0.841 1.946 0.372" stroke="hsl(0.0,100%,35%)" stroke-width="0.01423"></path>
<path d="M1.187 1.007 Q1.883 0.836 1.703 0.459" stroke="hsl(0.0,100%,35%)" stroke-width="0.00534"></path>
<path d="M1.187 1.007 Q1.176 0.911 0.987 0.895" stroke="hsl(0.0,100%,35%)" stroke-width="0.00178"></path>
<path d="M1.187 1.007 Q1.015 0.971 0.908 1.047" stroke="hsl(0.0,100%,35%)" stroke-width="0.01246"></path>
<path d="M1.187 1.007 Q2.061 0.726 1.704 0.238" stroke="hsl(0.0,100%,35%)" stroke-width="0.00178"></path>
<path d="M1.704 0.238 Q1.460 0.242 1.414 0.361" stroke="hsl(0.0,100%,35%)" stroke-width="0.00890"></path>
<path d="M1.704 0.238 Q1.377 0.373 1.569 0.562" stroke="hsl(0.0,100%,35%)" stroke-width="0.00712"></path>
<path d="M1.704 0.238 Q1.520 0.175 1.358 0.251" stroke="hsl(0.0,100%,35%)" stroke-width="0.01779"></path>
<path d="M1.704 0.238 Q1.718 0.353 1.946 0.372" stroke="hsl(0.0,100%,35%)" stroke-width="0.01779"></path>
<path d="M1.704 0.238 Q1.150 0.276 1.103 0.555" stroke="hsl(0.0,100%,35%)" stroke-width="0.00356"></path>
<path d="M1.704 0.238 Q0.830 0.519 1.187 1.007" stroke="hsl(0.0,100%,35%)" stroke-width="0.03559"></path>
<path d="M1.704 0.238 Q1.057 0.476 1.381 0.844" stroke="hsl(0.0,100%,35%)" stroke-width="0.00178"></path>
<path d="M1.704 0.238 Q1.273 0.165 1.036 0.359" stroke="hsl(0.0,100%,35%)" stroke-width="0.00534"></path>
<path d="M1.704 0.238 Q1.756 0.126 1.548 0.076" stroke="hsl(0.0,100%,35%)" stroke-width="0.00712"></path>
<path d="M1.704 0.238 Q1.708 0.144 1.526 0.122" stroke="hsl(0.0,100%,35%)" stroke-width="0.00534"></path>
<path d="M1.704 0.238 Q0.659 0.483 0.908 1.047" stroke="hsl(0.0,100%,35%)" stroke-width="0.00712"></path>
<path d="M1.704 0.238 Q1.030 0.384 1.166 0.744" stroke="hsl(0.0,100%,35%)" stroke-width="0.00178"></path>
<path d="M1.704 0.238 Q1.821 0.290 1.949 0.245" stroke="hsl(0.0,100%,35%)" stroke-width="0.00356"></path>
<path d="M1.704 0.238 Q1.628 0.131 1.402 0.145" stroke="hsl(0.0,100%,35%)" stroke-width="0.00356"></path>
<path d="M1.704 0.238 Q1.240 0.269 1.199 0.502" stroke="hsl(0.0,100%,35%)" stroke-width="0.00178"></path>
<path d="M1.414 0.361 Q1.672 0.473 1.946 0.372" stroke="hsl(0.0,100%,35%)" stroke-width="0.00712"></path>
<path d="M1.414 0.361 Q0.877 0.115 0.278 0.322" stroke="hsl(0.0,100%,35%)" stroke-width="0.00356"></path>
<path d="M1.414 0.361 Q0.784 0.639 1.187 1.007" stroke="hsl(0.0,100%,35%)" stroke-width="0.00178"></path>
<path d="M1.414 0.361 Q0.612 0.603 0.908 1.047" stroke="hsl(0.0,100%,35%)" stroke-width="0.00178"></path>
<path d="M1.414 0.361 Q1.331 0.493 1.569 0.562" stroke="hsl(0.0,100%,35%)" stroke-width="0.00178"></path>
<path d="M1.569 0.562 Q1.613 0.244 1.002 0.153" stroke="hsl(0.0,100%,35%)" stroke-width="0.00178"></path>
<path d="M1.569 0.562 Q1.465 0.354 1.036 0.359" stroke="hsl(0.0,100%,35%)" stroke-width="0.00178"></path>
<path d="M1.569 0.562 Q1.115 0.184 0.278 0.322" stroke="hsl(0.0,100%,35%)" stroke-width="0.00178"></path>
<path d="M1.569 0.562 Q1.128 0.484 0.879 0.682" stroke="hsl(0.0,100%,35%)" stroke-width="0.00178"></path>
<path d="M1.569 0.562 Q1.562 0.471 1.381 0.454" stroke="hsl(0.0,100%,35%)" stroke-width="0.00178"></path>
<path d="M1.569 0.562 Q1.719 0.537 1.703 0.459" stroke="hsl(0.0,100%,35%)" stroke-width="0.00178"></path>
<path d="M1.569 0.562 Q1.910 0.542 1.946 0.372" stroke="hsl(0.0,100%,35%)" stroke-width="0.00178"></path>
<path d="M1.103 0.555 Q0.955 0.477 0.769 0.532" stroke="hsl(0.0,100%,35%)" stroke-width="0.00712"></path>
<path d="M1.103 0.555 Q1.194 0.548 1.199 0.502" stroke="hsl(0.0,100%,35%)" stroke-width="0.00178"></path>
<path d="M1.103 0.555 Q1.011 0.755 1.381 0.844" stroke="hsl(0.0,100%,35%)" stroke-width="0.00178"></path>
<path d="M1.036 0.359 Q0.930 0.293 0.776 0.330" stroke="hsl(0.0,100%,35%)" stroke-width="0.00712"></path>
<path d="M1.036 0.359 Q0.820 0.311 0.679 0.406" stroke="hsl(0.0,100%,35%)" stroke-width="0.00356"></path>
<path d="M1.036 0.359 Q1.519 0.320 1.548 0.076" stroke="hsl(0.0,100%,35%)" stroke-width="0.00178"></path>
<path d="M0.908 1.047 Q1.080 1.083 1.187 1.007" stroke="hsl(0.0,100%,35%)" stroke-width="0.02669"></path>
<path d="M0.908 1.047 Q1.186 0.859 0.879 0.682" stroke="hsl(0.0,100%,35%)" stroke-width="0.01423"></path>
<path d="M0.908 1.047 Q1.307 1.040 1.381 0.844" stroke="hsl(0.0,100%,35%)" stroke-width="0.00356"></path>
<path d="M0.908 1.047 Q1.968 0.917 1.946 0.372" stroke="hsl(0.0,100%,35%)" stroke-width="0.00712"></path>
<path d="M0.908 1.047 Q1.007 0.881 0.704 0.797" stroke="hsl(0.0,100%,35%)" stroke-width="0.01068"></path>
<path d="M0.908 1.047 Q1.090 0.927 0.896 0.812" stroke="hsl(0.0,100%,35%)" stroke-width="0.00356"></path>
<path d="M0.908 1.047 Q1.954 0.802 1.704 0.238" stroke="hsl(0.0,100%,35%)" stroke-width="0.00356"></path>
<path d="M0.908 1.047 Q1.770 0.739 1.358 0.251" stroke="hsl(0.0,100%,35%)" stroke-width="0.00178"></path>
<path d="M0.908 1.047 Q1.710 0.805 1.414 0.361" stroke="hsl(0.0,100%,35%)" stroke-width="0.00178"></path>
<path d="M1.199 0.502 Q0.882 0.228 0.278 0.322" stroke="hsl(0.0,100%,35%)" stroke-width="0.00178"></path>
<path d="M1.199 0.502 Q0.960 0.431 0.769 0.532" stroke="hsl(0.0,100%,35%)" stroke-width="0.00178"></path>
<path d="M1.199 0.502 Q1.108 0.509 1.103 0.555" stroke="hsl(0.0,100%,35%)" stroke-width="0.00178"></path>
<path d="M0.644 0.224 Q0.880 0.260 1.002 0.153" stroke="hsl(0.0,100%,35%)" stroke-width="0.00178"></path>
<path d="M0.644 0.224 Q0.382 0.200 0.278 0.322" stroke="hsl(0.0,100%,35%)" stroke-width="0.00356"></path>
<path d="M0.644 0.224 Q0.732 0.370 1.036 0.359" stroke="hsl(0.0,100%,35%)" stroke-width="0.00178"></path>
<path d="M0.644 0.224 Q0.396 0.500 0.879 0.682" stroke="hsl(0.0,100%,35%)" stroke-width="0.00178"></path>
<path d="M0.278 0.322 Q0.291 0.622 0.879 0.682" stroke="hsl(0.0,100%,35%)" stroke-width="0.01246"></path>
<path d="M0.278 0.322 Q1.176 0.618 1.949 0.245" stroke="hsl(0.0,100%,35%)" stroke-width="0.00178"></path>
<path d="M0.278 0.322 Q0.732 0.700 1.569 0.562" stroke="hsl(0.0,100%,35%)" stroke-width="0.00178"></path>
<path d="M0.278 0.322 Q0.060 0.699 0.747 0.888" stroke="hsl(0.0,100%,35%)" stroke-width="0.00178"></path>
<path d="M0.278 0.322 Q0.456 0.219 0.293 0.109" stroke="hsl(0.0,100%,35%)" stroke-width="0.00534"></path>
<path d="M0.278 0.322 Q1.073 0.681 1.946 0.372" stroke="hsl(0.0,100%,35%)" stroke-width="0.00712"></path>
<path d="M0.278 0.322 Q0.185 0.846 1.187 1.007" stroke="hsl(0.0,100%,35%)" stroke-width="0.00178"></path>
<path d="M0.769 0.532 Q1.008 0.603 1.199 0.502" stroke="hsl(0.0,100%,35%)" stroke-width="0.00534"></path>
<path d="M0.769 0.532 Q0.427 0.818 0.908 1.047" stroke="hsl(0.0,100%,35%)" stroke-width="0.00178"></path>
<path d="M0.769 0.532 Q0.825 0.811 1.381 0.844" stroke="hsl(0.0,100%,35%)" stroke-width="0.00178"></path>
<path d="M0.769 0.532 Q0.705 0.629 0.879 0.682" stroke="hsl(0.0,100%,35%)" stroke-width="0.00356"></path>
<path d="M0.769 0.532 Q0.598 0.853 1.187 1.007" stroke="hsl(0.0,100%,35%)" stroke-width="0.00534"></path>
<path d="M0.769 0.532 Q1.486 0.687 1.946 0.372" stroke="hsl(0.0,100%,35%)" stroke-width="0.00356"></path>
<path d="M0.997 0.928 Q0.903 0.858 0.747 0.888" stroke="hsl(0.0,100%,35%)" stroke-width="0.00356"></path>
<path d="M0.997 0.928 Q1.028 1.005 1.187 1.007" stroke="hsl(0.0,100%,35%)" stroke-width="0.00890"></path>
<path d="M0.997 0.928 Q0.866 0.977 0.933 1.051" stroke="hsl(0.0,100%,35%)" stroke-width="0.00178"></path>
<path d="M1.824 0.557 Q1.454 0.527 1.315 0.702" stroke="hsl(0.0,100%,35%)" stroke-width="0.00178"></path>
<path d="M1.824 0.557 Q1.852 0.579 1.900 0.570" stroke="hsl(0.0,100%,35%)" stroke-width="0.00178"></path>
<path d="M1.824 0.557 Q2.034 0.489 1.946 0.372" stroke="hsl(0.0,100%,35%)" stroke-width="0.00178"></path>
<path d="M1.041 0.882 Q1.107 0.450 0.278 0.322" stroke="hsl(0.0,100%,35%)" stroke-width="0.00356"></path>
<path d="M1.041 0.882 Q1.014 0.974 1.187 1.007" stroke="hsl(0.0,100%,35%)" stroke-width="0.03915"></path>
<path d="M1.041 0.882 Q1.214 0.838 1.166 0.744" stroke="hsl(0.0,100%,35%)" stroke-width="0.00534"></path>
<path d="M1.041 0.882 Q1.120 0.749 0.879 0.682" stroke="hsl(0.0,100%,35%)" stroke-width="0.00178"></path>
<path d="M1.041 0.882 Q1.424 0.724 1.199 0.502" stroke="hsl(0.0,100%,35%)" stroke-width="0.00534"></path>
<path d="M1.041 0.882 Q1.322 0.847 1.315 0.702" stroke="hsl(0.0,100%,35%)" stroke-width="0.01246"></path>
<path d="M1.041 0.882 Q1.888 0.693 1.704 0.238" stroke="hsl(0.0,100%,35%)" stroke-width="0.00890"></path>
<path d="M1.041 0.882 Q1.241 0.931 1.381 0.844" stroke="hsl(0.0,100%,35%)" stroke-width="0.01601"></path>
<path d="M1.041 0.882 Q1.902 0.808 1.946 0.372" stroke="hsl(0.0,100%,35%)" stroke-width="0.00534"></path>
<path d="M1.041 0.882 Q1.122 0.799 0.977 0.741" stroke="hsl(0.0,100%,35%)" stroke-width="0.00178"></path>
<path d="M1.041 0.882 Q1.262 0.821 1.191 0.700" stroke="hsl(0.0,100%,35%)" stroke-width="0.00178"></path>
<path d="M1.041 0.882 Q1.940 0.580 1.548 0.076" stroke="hsl(0.0,100%,35%)" stroke-width="0.00178"></path>
<path d="M1.041 0.882 Q0.852 0.945 0.933 1.051" stroke="hsl(0.0,100%,35%)" stroke-width="0.00178"></path>
<path d="M1.041 0.882 Q1.892 0.599 1.526 0.122" stroke="hsl(0.0,100%,35%)" stroke-width="0.00178"></path>
<path d="M0.368 0.175 Q0.205 0.231 0.278 0.322" stroke="hsl(0.0,100%,35%)" stroke-width="0.00356"></path>
<path d="M0.368 0.175 Q0.218 0.531 0.879 0.682" stroke="hsl(0.0,100%,35%)" stroke-width="0.00356"></path>
<path d="M0.368 0.175 Q0.802 0.411 1.358 0.251" stroke="hsl(0.0,100%,35%)" stroke-width="0.00356"></path>
<path d="M0.571 0.611 Q0.562 0.932 1.187 1.007" stroke="hsl(0.0,100%,35%)" stroke-width="0.00356"></path>
<path d="M0.571 0.611 Q0.789 0.890 1.381 0.844" stroke="hsl(0.0,100%,35%)" stroke-width="0.00356"></path>
<path d="M0.571 0.611 Q0.733 0.611 0.769 0.532" stroke="hsl(0.0,100%,35%)" stroke-width="0.00356"></path>
</g>
<text x="1.630" y="0.944" font-size="0.014567" fill="hsl(0.0,100%,20%)">aheggestad</text>
<text x="1.381" y="0.817" font-size="0.054016" fill="hsl(0.0,100%,20%)">hbos</text>
<text x="1.946" y="0.344" font-size="0.054990" fill="hsl(0.0,100%,20%)">mbonadei</text>
<text x="0.274" y="0.906" font-size="0.039223" fill="hsl(0.0,100%,20%)">tommi</text>
<text x="1.482" y="0.631" font-size="0.023033" fill="hsl(0.0,100%,20%)">boivie</text>
<text x="1.315" y="0.688" font-size="0.027253" fill="hsl(0.0,100%,20%)">orphis</text>
<text x="1.187" y="0.964" font-size="0.086180" fill="hsl(0.0,100%,20%)">hta</text>
<text x="1.548" y="0.066" font-size="0.019271" fill="hsl(0.0,100%,20%)">saza</text>
<text x="1.704" y="0.205" font-size="0.065956" fill="hsl(0.0,100%,20%)">danilchap</text>
<text x="1.414" y="0.345" font-size="0.031748" fill="hsl(0.0,100%,20%)">terelius</text>
<text x="1.569" y="0.548" font-size="0.028209" fill="hsl(0.0,100%,20%)">jleconte</text>
<text x="1.358" y="0.238" font-size="0.027253" fill="hsl(0.0,100%,20%)">philipel</text>
<text x="1.103" y="0.544" font-size="0.021851" fill="hsl(0.0,100%,20%)">henrika</text>
<text x="1.036" y="0.347" font-size="0.025231" fill="hsl(0.0,100%,20%)">jakobi</text>
<text x="1.526" y="0.114" font-size="0.014567" fill="hsl(0.0,100%,20%)">titovartem</text>
<text x="0.908" y="1.021" font-size="0.053523" fill="hsl(0.0,100%,20%)">perkj</text>
<text x="1.166" y="0.737" font-size="0.014567" fill="hsl(0.0,100%,20%)">kron</text>
<text x="1.949" y="0.238" font-size="0.012616" fill="hsl(0.0,100%,20%)">asapersson</text>
<text x="1.402" y="0.140" font-size="0.010301" fill="hsl(0.0,100%,20%)">lndmrk</text>
<text x="1.199" y="0.490" font-size="0.024157" fill="hsl(0.0,100%,20%)">ilnik</text>
<text x="0.644" y="0.216" font-size="0.016287" fill="hsl(0.0,100%,20%)">dwtan</text>
<text x="1.002" y="0.147" font-size="0.012616" fill="hsl(0.0,100%,20%)">marpan</text>
<text x="0.278" y="0.303" font-size="0.038541" fill="hsl(0.0,100%,20%)">ssilkin</text>
<text x="0.879" y="0.665" font-size="0.034163" fill="hsl(0.0,100%,20%)">sprang</text>
<text x="0.769" y="0.516" font-size="0.033378" fill="hsl(0.0,100%,20%)">handellm</text>
<text x="1.510" y="0.710" font-size="0.020601" fill="hsl(0.0,100%,20%)">eshr</text>
<text x="1.703" y="0.448" font-size="0.021851" fill="hsl(0.0,100%,20%)">jansson</text>
<text x="1.900" y="0.564" font-size="0.012616" fill="hsl(0.0,100%,20%)">peterhanspers</text>
<text x="0.997" y="0.918" font-size="0.020601" fill="hsl(0.0,100%,20%)">herre</text>
<text x="0.747" y="0.882" font-size="0.012616" fill="hsl(0.0,100%,20%)">stefan</text>
<text x="0.933" y="1.046" font-size="0.010301" fill="hsl(0.0,100%,20%)">guidou</text>
<text x="0.987" y="0.892" font-size="0.007284" fill="hsl(0.0,100%,20%)">sergeysu</text>
<text x="0.776" y="0.323" font-size="0.014567" fill="hsl(0.0,100%,20%)">henrik.lundin</text>
<text x="0.679" y="0.401" font-size="0.010301" fill="hsl(0.0,100%,20%)">tomasl</text>
<text x="1.381" y="0.450" font-size="0.007284" fill="hsl(0.0,100%,20%)">manashi</text>
<text x="1.824" y="0.551" font-size="0.012616" fill="hsl(0.0,100%,20%)">karim</text>
<text x="0.704" y="0.788" font-size="0.017841" fill="hsl(0.0,100%,20%)">jonaso</text>
<text x="0.896" y="0.807" font-size="0.010301" fill="hsl(0.0,100%,20%)">diepbp</text>
<text x="1.041" y="0.854" font-size="0.056418" fill="hsl(0.0,100%,20%)">phancke</text>
<text x="0.977" y="0.737" font-size="0.007284" fill="hsl(0.0,100%,20%)">fhernqvist</text>
<text x="1.191" y="0.696" font-size="0.007284" fill="hsl(0.0,100%,20%)">natashenka</text>
<text x="0.368" y="0.166" font-size="0.017841" fill="hsl(0.0,100%,20%)">qiujiao.wu</text>
<text x="0.293" y="0.103" font-size="0.012616" fill="hsl(0.0,100%,20%)">brandtr</text>
<text x="0.285" y="0.702" font-size="0.007284" fill="hsl(0.0,100%,20%)">alexfh</text>
<text x="0.571" y="0.602" font-size="0.017841" fill="hsl(0.0,100%,20%)">zhaoliang.ma</text>
</svg>
