<svg width="4000" height="2000" viewBox="-0.025 -0.025 2.05 1.05" xmlns="http://www.w3.org/2000/svg">
  <style>
    path {
      fill: none;
      stroke-linecap: round;
      stroke-opacity: 0.4;
    }

    text {
      text-anchor: middle;
      alignment-baseline: hanging;
    }
  </style>
  <g opacity="0.4">
<path d="M1.945 0.692 Q1.491 0.267 0.561 0.395" stroke="hsl(0.0,100%,35%)" stroke-width="0.01286"></path>
<path d="M1.945 0.692 Q1.815 0.748 1.894 0.823" stroke="hsl(0.0,100%,35%)" stroke-width="0.01470"></path>
<path d="M1.945 0.692 Q1.822 0.639 1.691 0.687" stroke="hsl(0.0,100%,35%)" stroke-width="0.00184"></path>
<path d="M0.561 0.395 Q0.233 0.418 0.207 0.584" stroke="hsl(0.0,100%,35%)" stroke-width="0.00184"></path>
<path d="M0.561 0.395 Q0.465 0.444 0.541 0.502" stroke="hsl(0.0,100%,35%)" stroke-width="0.00184"></path>
<path d="M0.561 0.395 Q0.773 0.274 0.583 0.144" stroke="hsl(0.0,100%,35%)" stroke-width="0.00184"></path>
<path d="M0.561 0.395 Q0.907 0.702 1.582 0.601" stroke="hsl(0.0,100%,35%)" stroke-width="0.00184"></path>
<path d="M0.561 0.395 Q0.703 0.457 0.856 0.402" stroke="hsl(0.0,100%,35%)" stroke-width="0.02389"></path>
<path d="M0.561 0.395 Q0.319 0.619 0.703 0.787" stroke="hsl(0.0,100%,35%)" stroke-width="0.01838"></path>
<path d="M0.561 0.395 Q1.015 0.820 1.945 0.692" stroke="hsl(0.0,100%,35%)" stroke-width="0.00368"></path>
<path d="M0.561 0.395 Q0.448 0.699 1.017 0.822" stroke="hsl(0.0,100%,35%)" stroke-width="0.00184"></path>
<path d="M0.561 0.395 Q0.885 0.876 1.894 0.823" stroke="hsl(0.0,100%,35%)" stroke-width="0.00184"></path>
<path d="M0.561 0.395 Q1.049 0.656 1.666 0.476" stroke="hsl(0.0,100%,35%)" stroke-width="0.01286"></path>
<path d="M0.561 0.395 Q0.748 0.353 0.707 0.253" stroke="hsl(0.0,100%,35%)" stroke-width="0.00184"></path>
<path d="M0.561 0.395 Q0.600 0.514 0.841 0.522" stroke="hsl(0.0,100%,35%)" stroke-width="0.00184"></path>
<path d="M0.707 0.253 Q0.607 0.138 0.360 0.162" stroke="hsl(0.0,100%,35%)" stroke-width="0.00184"></path>
<path d="M0.707 0.253 Q0.278 0.519 0.703 0.787" stroke="hsl(0.0,100%,35%)" stroke-width="0.01654"></path>
<path d="M0.707 0.253 Q1.046 0.261 1.138 0.098" stroke="hsl(0.0,100%,35%)" stroke-width="0.00368"></path>
<path d="M0.707 0.253 Q0.195 0.546 0.655 0.860" stroke="hsl(0.0,100%,35%)" stroke-width="0.00184"></path>
<path d="M0.707 0.253 Q0.521 0.295 0.561 0.395" stroke="hsl(0.0,100%,35%)" stroke-width="0.05513"></path>
<path d="M0.707 0.253 Q0.333 0.166 0.082 0.330" stroke="hsl(0.0,100%,35%)" stroke-width="0.00184"></path>
<path d="M0.707 0.253 Q0.650 0.085 0.310 0.077" stroke="hsl(0.0,100%,35%)" stroke-width="0.00184"></path>
<path d="M0.707 0.253 Q0.732 0.173 0.583 0.144" stroke="hsl(0.0,100%,35%)" stroke-width="0.00368"></path>
<path d="M0.707 0.253 Q0.864 0.186 0.769 0.095" stroke="hsl(0.0,100%,35%)" stroke-width="0.00184"></path>
<path d="M0.707 0.253 Q0.671 0.158 0.477 0.154" stroke="hsl(0.0,100%,35%)" stroke-width="0.00184"></path>
<path d="M0.707 0.253 Q0.128 0.412 0.311 0.729" stroke="hsl(0.0,100%,35%)" stroke-width="0.00184"></path>
<path d="M0.707 0.253 Q0.343 0.234 0.227 0.408" stroke="hsl(0.0,100%,35%)" stroke-width="0.00551"></path>
<path d="M0.707 0.253 Q1.008 0.556 1.666 0.476" stroke="hsl(0.0,100%,35%)" stroke-width="0.00551"></path>
<path d="M0.707 0.253 Q0.407 0.599 1.017 0.822" stroke="hsl(0.0,100%,35%)" stroke-width="0.00368"></path>
<path d="M0.707 0.253 Q0.914 0.467 1.377 0.413" stroke="hsl(0.0,100%,35%)" stroke-width="0.00184"></path>
<path d="M0.707 0.253 Q0.724 0.101 0.432 0.060" stroke="hsl(0.0,100%,35%)" stroke-width="0.00368"></path>
<path d="M0.707 0.253 Q0.911 0.277 1.002 0.182" stroke="hsl(0.0,100%,35%)" stroke-width="0.00368"></path>
<path d="M0.703 0.787 Q0.621 0.814 0.655 0.860" stroke="hsl(0.0,100%,35%)" stroke-width="0.02389"></path>
<path d="M0.703 0.787 Q0.758 0.434 0.082 0.330" stroke="hsl(0.0,100%,35%)" stroke-width="0.00184"></path>
<path d="M0.703 0.787 Q1.149 0.369 0.432 0.060" stroke="hsl(0.0,100%,35%)" stroke-width="0.00184"></path>
<path d="M0.703 0.787 Q0.946 0.562 0.561 0.395" stroke="hsl(0.0,100%,35%)" stroke-width="0.01103"></path>
<path d="M0.703 0.787 Q0.832 0.867 1.017 0.822" stroke="hsl(0.0,100%,35%)" stroke-width="0.00184"></path>
<path d="M0.703 0.787 Q0.706 0.907 0.942 0.933" stroke="hsl(0.0,100%,35%)" stroke-width="0.00184"></path>
<path d="M0.703 0.787 Q1.132 0.520 0.707 0.253" stroke="hsl(0.0,100%,35%)" stroke-width="0.00184"></path>
<path d="M0.703 0.787 Q0.773 0.683 0.588 0.627" stroke="hsl(0.0,100%,35%)" stroke-width="0.00368"></path>
<path d="M1.138 0.098 Q0.219 0.248 0.311 0.729" stroke="hsl(180.0,100%,35%)" stroke-width="0.00184"></path>
<path d="M1.138 0.098 Q1.136 0.045 1.033 0.035" stroke="hsl(180.0,100%,35%)" stroke-width="0.00919"></path>
<path d="M1.138 0.098 Q0.943 0.503 1.691 0.687" stroke="hsl(180.0,100%,35%)" stroke-width="0.00184"></path>
<path d="M0.655 0.860 Q0.738 0.833 0.703 0.787" stroke="hsl(0.0,100%,35%)" stroke-width="0.01103"></path>
<path d="M0.655 0.860 Q0.740 0.954 0.942 0.933" stroke="hsl(0.0,100%,35%)" stroke-width="0.00735"></path>
<path d="M0.655 0.860 Q0.981 0.609 0.561 0.395" stroke="hsl(0.0,100%,35%)" stroke-width="0.00551"></path>
<path d="M0.655 0.860 Q1.326 0.916 1.582 0.601" stroke="hsl(0.0,100%,35%)" stroke-width="0.00184"></path>
<path d="M0.655 0.860 Q0.867 0.913 1.017 0.822" stroke="hsl(0.0,100%,35%)" stroke-width="0.00184"></path>
<path d="M0.655 0.860 Q1.184 0.415 0.432 0.060" stroke="hsl(0.0,100%,35%)" stroke-width="0.00184"></path>
<path d="M0.311 0.729 Q1.097 0.784 1.377 0.413" stroke="hsl(180.0,100%,35%)" stroke-width="0.00551"></path>
<path d="M0.311 0.729 Q0.934 0.754 1.120 0.456" stroke="hsl(180.0,100%,35%)" stroke-width="0.01470"></path>
<path d="M0.311 0.729 Q0.190 0.795 0.292 0.868" stroke="hsl(180.0,100%,35%)" stroke-width="0.00735"></path>
<path d="M0.311 0.729 Q0.375 0.636 0.207 0.584" stroke="hsl(180.0,100%,35%)" stroke-width="0.00184"></path>
<path d="M1.666 0.476 Q0.991 0.086 0.082 0.330" stroke="hsl(0.0,100%,35%)" stroke-width="0.00919"></path>
<path d="M1.666 0.476 Q1.370 0.441 1.236 0.579" stroke="hsl(0.0,100%,35%)" stroke-width="0.01838"></path>
<path d="M1.666 0.476 Q1.179 0.214 0.561 0.395" stroke="hsl(0.0,100%,35%)" stroke-width="0.02757"></path>
<path d="M1.666 0.476 Q1.065 0.519 1.017 0.822" stroke="hsl(0.0,100%,35%)" stroke-width="0.00368"></path>
<path d="M1.666 0.476 Q1.525 0.522 1.582 0.601" stroke="hsl(0.0,100%,35%)" stroke-width="0.01470"></path>
<path d="M1.666 0.476 Q1.365 0.173 0.707 0.253" stroke="hsl(0.0,100%,35%)" stroke-width="0.00368"></path>
<path d="M1.666 0.476 Q1.001 0.154 0.227 0.408" stroke="hsl(0.0,100%,35%)" stroke-width="0.00184"></path>
<path d="M1.666 0.476 Q0.850 0.238 0.207 0.584" stroke="hsl(0.0,100%,35%)" stroke-width="0.00184"></path>
<path d="M1.666 0.476 Q0.937 0.439 0.703 0.787" stroke="hsl(0.0,100%,35%)" stroke-width="0.00551"></path>
<path d="M1.017 0.822 Q0.888 0.741 0.703 0.787" stroke="hsl(0.0,100%,35%)" stroke-width="0.01286"></path>
<path d="M1.017 0.822 Q0.805 0.769 0.655 0.860" stroke="hsl(0.0,100%,35%)" stroke-width="0.00919"></path>
<path d="M1.017 0.822 Q1.131 0.517 0.561 0.395" stroke="hsl(0.0,100%,35%)" stroke-width="0.00184"></path>
<path d="M1.017 0.822 Q1.618 0.779 1.666 0.476" stroke="hsl(0.0,100%,35%)" stroke-width="0.00184"></path>
<path d="M1.204 0.334 Q0.592 0.460 0.703 0.787" stroke="hsl(0.0,100%,35%)" stroke-width="0.00184"></path>
<path d="M1.204 0.334 Q0.834 0.236 0.561 0.395" stroke="hsl(0.0,100%,35%)" stroke-width="0.00184"></path>
<path d="M1.204 0.334 Q1.270 0.340 1.297 0.310" stroke="hsl(0.0,100%,35%)" stroke-width="0.00184"></path>
<path d="M1.204 0.334 Q1.021 0.194 0.707 0.253" stroke="hsl(0.0,100%,35%)" stroke-width="0.00184"></path>
<path d="M1.120 0.456 Q0.647 0.538 0.703 0.787" stroke="hsl(180.0,100%,35%)" stroke-width="0.00551"></path>
<path d="M1.120 0.456 Q0.890 0.314 0.561 0.395" stroke="hsl(180.0,100%,35%)" stroke-width="0.00919"></path>
<path d="M1.120 0.456 Q1.283 0.486 1.377 0.413" stroke="hsl(180.0,100%,35%)" stroke-width="0.00735"></path>
<path d="M1.120 0.456 Q1.377 0.575 1.666 0.476" stroke="hsl(180.0,100%,35%)" stroke-width="0.00184"></path>
<path d="M1.120 0.456 Q0.561 0.337 0.207 0.584" stroke="hsl(180.0,100%,35%)" stroke-width="0.00184"></path>
<path d="M1.120 0.456 Q0.701 0.185 0.082 0.330" stroke="hsl(180.0,100%,35%)" stroke-width="0.00368"></path>
<path d="M0.541 0.502 Q0.637 0.452 0.561 0.395" stroke="hsl(0.0,100%,35%)" stroke-width="0.03859"></path>
<path d="M0.541 0.502 Q0.308 0.476 0.207 0.584" stroke="hsl(0.0,100%,35%)" stroke-width="0.02205"></path>
<path d="M0.541 0.502 Q0.961 0.933 1.894 0.823" stroke="hsl(0.0,100%,35%)" stroke-width="0.01654"></path>
<path d="M0.541 0.502 Q1.124 0.714 1.666 0.476" stroke="hsl(0.0,100%,35%)" stroke-width="0.00184"></path>
<path d="M0.541 0.502 Q0.596 0.623 0.845 0.623" stroke="hsl(0.0,100%,35%)" stroke-width="0.00184"></path>
<path d="M0.541 0.502 Q0.483 0.418 0.306 0.428" stroke="hsl(0.0,100%,35%)" stroke-width="0.00551"></path>
<path d="M0.541 0.502 Q0.539 0.547 0.627 0.558" stroke="hsl(0.0,100%,35%)" stroke-width="0.00551"></path>
<path d="M0.541 0.502 Q0.431 0.549 0.500 0.613" stroke="hsl(0.0,100%,35%)" stroke-width="0.00184"></path>
<path d="M0.541 0.502 Q0.823 0.411 0.707 0.253" stroke="hsl(0.0,100%,35%)" stroke-width="0.00184"></path>
<path d="M0.541 0.502 Q1.030 0.625 1.377 0.413" stroke="hsl(0.0,100%,35%)" stroke-width="0.00184"></path>
<path d="M0.541 0.502 Q0.968 0.824 1.691 0.687" stroke="hsl(0.0,100%,35%)" stroke-width="0.00184"></path>
<path d="M0.541 0.502 Q0.579 0.575 0.730 0.573" stroke="hsl(0.0,100%,35%)" stroke-width="0.00184"></path>
<path d="M0.541 0.502 Q0.552 0.255 0.072 0.195" stroke="hsl(0.0,100%,35%)" stroke-width="0.00184"></path>
<path d="M0.541 0.502 Q0.600 0.338 0.292 0.273" stroke="hsl(0.0,100%,35%)" stroke-width="0.00184"></path>
<path d="M0.856 0.402 Q0.714 0.339 0.561 0.395" stroke="hsl(0.0,100%,35%)" stroke-width="0.01470"></path>
<path d="M0.856 0.402 Q0.900 0.298 0.707 0.253" stroke="hsl(0.0,100%,35%)" stroke-width="0.00735"></path>
<path d="M0.856 0.402 Q0.536 0.279 0.227 0.408" stroke="hsl(0.0,100%,35%)" stroke-width="0.00551"></path>
<path d="M0.856 0.402 Q0.472 0.564 0.703 0.787" stroke="hsl(0.0,100%,35%)" stroke-width="0.00184"></path>
<path d="M0.856 0.402 Q1.068 0.371 1.055 0.261" stroke="hsl(0.0,100%,35%)" stroke-width="0.00184"></path>
<path d="M0.856 0.402 Q0.385 0.363 0.207 0.584" stroke="hsl(0.0,100%,35%)" stroke-width="0.00184"></path>
<path d="M0.841 0.522 Q0.803 0.402 0.561 0.395" stroke="hsl(0.0,100%,35%)" stroke-width="0.00184"></path>
<path d="M0.841 0.522 Q0.561 0.627 0.703 0.787" stroke="hsl(0.0,100%,35%)" stroke-width="0.00368"></path>
<path d="M0.841 0.522 Q1.329 0.369 1.138 0.098" stroke="hsl(0.0,100%,35%)" stroke-width="0.00184"></path>
<path d="M0.841 0.522 Q0.901 0.554 0.977 0.532" stroke="hsl(0.0,100%,35%)" stroke-width="0.00184"></path>
<path d="M1.331 0.055 Q1.267 0.155 1.448 0.209" stroke="hsl(180.0,100%,35%)" stroke-width="0.00551"></path>
<path d="M1.331 0.055 Q1.455 0.176 1.718 0.142" stroke="hsl(180.0,100%,35%)" stroke-width="0.00551"></path>
<path d="M1.331 0.055 Q0.589 -0.127 0.072 0.195" stroke="hsl(180.0,100%,35%)" stroke-width="0.00551"></path>
<path d="M0.072 0.195 Q0.241 0.212 0.311 0.134" stroke="hsl(180.0,100%,35%)" stroke-width="0.00184"></path>
<path d="M0.072 0.195 Q-0.031 0.265 0.082 0.330" stroke="hsl(180.0,100%,35%)" stroke-width="0.01470"></path>
<path d="M0.072 0.195 Q-0.085 0.617 0.703 0.787" stroke="hsl(180.0,100%,35%)" stroke-width="0.00919"></path>
<path d="M0.072 0.195 Q-0.021 0.333 0.227 0.408" stroke="hsl(180.0,100%,35%)" stroke-width="0.00184"></path>
<path d="M0.072 0.195 Q0.286 0.184 0.310 0.077" stroke="hsl(180.0,100%,35%)" stroke-width="0.00551"></path>
<path d="M0.072 0.195 Q0.157 0.393 0.561 0.395" stroke="hsl(180.0,100%,35%)" stroke-width="0.00184"></path>
<path d="M0.072 0.195 Q0.593 0.497 1.297 0.310" stroke="hsl(180.0,100%,35%)" stroke-width="0.00184"></path>
<path d="M0.257 0.144 Q0.021 0.202 0.082 0.330" stroke="hsl(180.0,100%,35%)" stroke-width="0.00184"></path>
<path d="M0.257 0.144 Q0.031 0.270 0.227 0.408" stroke="hsl(180.0,100%,35%)" stroke-width="0.00184"></path>
<path d="M0.257 0.144 Q0.124 0.133 0.072 0.195" stroke="hsl(180.0,100%,35%)" stroke-width="0.00184"></path>
</g>
<text x="1.945" y="0.677" font-size="0.030902" fill="hsl(0.0,100%,20%)">boivie</text>
<text x="0.561" y="0.352" font-size="0.085872" fill="hsl(0.0,100%,20%)">hta</text>
<text x="1.894" y="0.808" font-size="0.030902" fill="hsl(0.0,100%,20%)">orphis</text>
<text x="1.691" y="0.681" font-size="0.012616" fill="hsl(0.0,100%,20%)">saza</text>
<text x="0.707" y="0.222" font-size="0.062231" fill="hsl(0.0,100%,20%)">danilchap</text>
<text x="0.360" y="0.158" font-size="0.007284" fill="hsl(0.0,100%,20%)">yinwa</text>
<text x="0.703" y="0.755" font-size="0.062231" fill="hsl(0.0,100%,20%)">mbonadei</text>
<text x="1.138" y="0.086" font-size="0.023033" fill="hsl(180.0,100%,20%)">jakobi</text>
<text x="0.655" y="0.838" font-size="0.043090" fill="hsl(0.0,100%,20%)">jleconte</text>
<text x="0.082" y="0.315" font-size="0.030902" fill="hsl(180.0,100%,20%)">sprang</text>
<text x="0.310" y="0.069" font-size="0.014567" fill="hsl(180.0,100%,20%)">brandtr</text>
<text x="0.583" y="0.138" font-size="0.012616" fill="hsl(0.0,100%,20%)">titovartem</text>
<text x="0.769" y="0.092" font-size="0.007284" fill="hsl(0.0,100%,20%)">chxg</text>
<text x="0.477" y="0.151" font-size="0.007284" fill="hsl(0.0,100%,20%)">peterhanspers</text>
<text x="0.311" y="0.714" font-size="0.030902" fill="hsl(180.0,100%,20%)">henrika</text>
<text x="0.227" y="0.397" font-size="0.021851" fill="hsl(180.0,100%,20%)">philipel</text>
<text x="1.666" y="0.448" font-size="0.056418" fill="hsl(0.0,100%,20%)">perkj</text>
<text x="1.017" y="0.805" font-size="0.033378" fill="hsl(0.0,100%,20%)">terelius</text>
<text x="1.377" y="0.402" font-size="0.021851" fill="hsl(180.0,100%,20%)">ilnik</text>
<text x="0.432" y="0.052" font-size="0.014567" fill="hsl(0.0,100%,20%)">lndmrk</text>
<text x="1.002" y="0.177" font-size="0.010301" fill="hsl(0.0,100%,20%)">asapersson</text>
<text x="1.204" y="0.327" font-size="0.014567" fill="hsl(0.0,100%,20%)">dorhen</text>
<text x="1.297" y="0.305" font-size="0.010301" fill="hsl(180.0,100%,20%)">stefan</text>
<text x="1.120" y="0.438" font-size="0.035682" fill="hsl(180.0,100%,20%)">handellm</text>
<text x="0.207" y="0.569" font-size="0.030031" fill="hsl(0.0,100%,20%)">hbos</text>
<text x="0.292" y="0.861" font-size="0.014567" fill="hsl(180.0,100%,20%)">alcooper</text>
<text x="0.541" y="0.474" font-size="0.055470" fill="hsl(0.0,100%,20%)">phancke</text>
<text x="1.582" y="0.589" font-size="0.023033" fill="hsl(0.0,100%,20%)">jonaso</text>
<text x="0.856" y="0.381" font-size="0.040553" fill="hsl(0.0,100%,20%)">tommi</text>
<text x="0.841" y="0.513" font-size="0.017841" fill="hsl(0.0,100%,20%)">sergeysu</text>
<text x="1.033" y="0.026" font-size="0.016287" fill="hsl(180.0,100%,20%)">henrik.lundin</text>
<text x="0.942" y="0.925" font-size="0.016287" fill="hsl(0.0,100%,20%)">jansson</text>
<text x="1.331" y="0.044" font-size="0.021851" fill="hsl(180.0,100%,20%)">lnilsson</text>
<text x="1.448" y="0.203" font-size="0.012616" fill="hsl(180.0,100%,20%)">ranvr</text>
<text x="1.718" y="0.136" font-size="0.012616" fill="hsl(180.0,100%,20%)">xalep</text>
<text x="0.072" y="0.177" font-size="0.036418" fill="hsl(180.0,100%,20%)">ssilkin</text>
<text x="0.588" y="0.621" font-size="0.010301" fill="hsl(0.0,100%,20%)">marpan</text>
<text x="1.236" y="0.567" font-size="0.023033" fill="hsl(0.0,100%,20%)">diepbp</text>
<text x="0.845" y="0.619" font-size="0.007284" fill="hsl(0.0,100%,20%)">deadbeef</text>
<text x="0.306" y="0.421" font-size="0.012616" fill="hsl(0.0,100%,20%)">herre</text>
<text x="0.627" y="0.552" font-size="0.012616" fill="hsl(0.0,100%,20%)">kron</text>
<text x="0.500" y="0.610" font-size="0.007284" fill="hsl(0.0,100%,20%)">guidou</text>
<text x="0.730" y="0.569" font-size="0.007284" fill="hsl(0.0,100%,20%)">fhernqvist</text>
<text x="0.292" y="0.269" font-size="0.007284" fill="hsl(0.0,100%,20%)">natashenka</text>
<text x="0.257" y="0.138" font-size="0.012616" fill="hsl(180.0,100%,20%)">qiujiao.wu</text>
<text x="0.977" y="0.528" font-size="0.007284" fill="hsl(0.0,100%,20%)">peah</text>
<text x="0.311" y="0.130" font-size="0.007284" fill="hsl(180.0,100%,20%)">jianj</text>
<text x="1.055" y="0.257" font-size="0.007284" fill="hsl(0.0,100%,20%)">alexfh</text>
</svg>
