<svg width="4000" height="2000" viewBox="-0.025 -0.025 2.05 1.05" xmlns="http://www.w3.org/2000/svg">
  <style>
    path {
      fill: none;
      stroke-linecap: round;
      stroke-opacity: 0.4;
    }

    text {
      text-anchor: middle;
      alignment-baseline: hanging;
    }
  </style>
  <g opacity="0.4">
<path d="M1.204 0.519 Q1.119 0.414 0.896 0.433" stroke="hsl(0.0,100%,35%)" stroke-width="0.00451"></path>
<path d="M1.204 0.519 Q0.843 0.184 0.111 0.287" stroke="hsl(0.0,100%,35%)" stroke-width="0.00451"></path>
<path d="M1.204 0.519 Q1.695 0.533 1.829 0.296" stroke="hsl(0.0,100%,35%)" stroke-width="0.00451"></path>
<path d="M1.204 0.519 Q1.565 0.508 1.623 0.329" stroke="hsl(0.0,100%,35%)" stroke-width="0.01353"></path>
<path d="M1.204 0.519 Q1.097 0.597 1.226 0.667" stroke="hsl(0.0,100%,35%)" stroke-width="0.02256"></path>
<path d="M1.204 0.519 Q0.591 0.397 0.218 0.670" stroke="hsl(0.0,100%,35%)" stroke-width="0.02707"></path>
<path d="M1.204 0.519 Q0.890 0.696 1.166 0.888" stroke="hsl(0.0,100%,35%)" stroke-width="0.00451"></path>
<path d="M1.204 0.519 Q1.327 0.796 1.894 0.797" stroke="hsl(0.0,100%,35%)" stroke-width="0.00451"></path>
<path d="M1.204 0.519 Q1.255 0.607 1.438 0.601" stroke="hsl(0.0,100%,35%)" stroke-width="0.00451"></path>
<path d="M0.111 0.287 Q0.313 0.312 0.408 0.219" stroke="hsl(0.0,100%,35%)" stroke-width="0.00451"></path>
<path d="M0.111 0.287 Q0.773 0.456 1.249 0.171" stroke="hsl(0.0,100%,35%)" stroke-width="0.00451"></path>
<path d="M0.111 0.287 Q0.238 0.229 0.153 0.154" stroke="hsl(0.0,100%,35%)" stroke-width="0.00451"></path>
<path d="M0.111 0.287 Q0.594 0.898 1.894 0.797" stroke="hsl(0.0,100%,35%)" stroke-width="0.00451"></path>
<path d="M1.623 0.329 Q1.385 0.617 1.894 0.797" stroke="hsl(0.0,100%,35%)" stroke-width="0.00902"></path>
<path d="M1.623 0.329 Q1.155 0.419 1.226 0.667" stroke="hsl(0.0,100%,35%)" stroke-width="0.00902"></path>
<path d="M1.623 0.329 Q1.753 0.354 1.829 0.296" stroke="hsl(0.0,100%,35%)" stroke-width="0.00902"></path>
<path d="M1.623 0.329 Q1.262 0.340 1.204 0.519" stroke="hsl(0.0,100%,35%)" stroke-width="0.00451"></path>
<path d="M1.623 0.329 Q0.649 0.219 0.218 0.670" stroke="hsl(0.0,100%,35%)" stroke-width="0.00451"></path>
<path d="M1.166 0.888 Q0.816 0.800 0.567 0.951" stroke="hsl(0.0,100%,35%)" stroke-width="0.01353"></path>
<path d="M1.166 0.888 Q1.602 0.988 1.894 0.797" stroke="hsl(0.0,100%,35%)" stroke-width="0.01353"></path>
<path d="M1.166 0.888 Q1.053 0.858 0.971 0.907" stroke="hsl(0.0,100%,35%)" stroke-width="0.00451"></path>
<path d="M1.894 0.797 Q1.787 0.671 1.518 0.696" stroke="hsl(0.0,100%,35%)" stroke-width="0.00902"></path>
<path d="M1.894 0.797 Q1.411 0.185 0.111 0.287" stroke="hsl(0.0,100%,35%)" stroke-width="0.00902"></path>
<path d="M1.894 0.797 Q1.686 0.415 0.896 0.433" stroke="hsl(0.0,100%,35%)" stroke-width="0.00451"></path>
<path d="M1.894 0.797 Q1.618 0.815 1.592 0.953" stroke="hsl(0.0,100%,35%)" stroke-width="0.00451"></path>
<path d="M1.894 0.797 Q1.521 0.523 0.904 0.644" stroke="hsl(0.0,100%,35%)" stroke-width="0.00451"></path>
<path d="M1.894 0.797 Q1.457 0.697 1.166 0.888" stroke="hsl(0.0,100%,35%)" stroke-width="0.00451"></path>
<path d="M1.894 0.797 Q2.026 0.695 1.857 0.609" stroke="hsl(0.0,100%,35%)" stroke-width="0.00451"></path>
<path d="M1.724 0.931 Q1.480 0.798 1.166 0.888" stroke="hsl(0.0,100%,35%)" stroke-width="0.01805"></path>
<path d="M1.724 0.931 Q1.640 0.867 1.496 0.894" stroke="hsl(0.0,100%,35%)" stroke-width="0.00451"></path>
<path d="M1.724 0.931 Q1.627 0.859 1.466 0.891" stroke="hsl(0.0,100%,35%)" stroke-width="0.00451"></path>
<path d="M1.724 0.931 Q1.916 0.898 1.894 0.797" stroke="hsl(0.0,100%,35%)" stroke-width="0.01353"></path>
<path d="M1.724 0.931 Q1.641 0.916 1.592 0.953" stroke="hsl(0.0,100%,35%)" stroke-width="0.00902"></path>
<path d="M0.722 0.084 Q0.457 0.089 0.408 0.219" stroke="hsl(0.0,100%,35%)" stroke-width="0.00451"></path>
<path d="M0.722 0.084 Q0.977 0.387 1.623 0.329" stroke="hsl(0.0,100%,35%)" stroke-width="0.00451"></path>
<path d="M0.722 0.084 Q0.916 0.233 1.249 0.171" stroke="hsl(0.0,100%,35%)" stroke-width="0.00451"></path>
<path d="M1.249 0.171 Q1.316 0.088 1.169 0.037" stroke="hsl(0.0,100%,35%)" stroke-width="0.01353"></path>
<path d="M1.249 0.171 Q1.421 0.188 1.493 0.108" stroke="hsl(0.0,100%,35%)" stroke-width="0.00451"></path>
<path d="M1.249 0.171 Q1.071 0.613 1.894 0.797" stroke="hsl(0.0,100%,35%)" stroke-width="0.00451"></path>
<path d="M1.249 0.171 Q1.375 0.145 1.351 0.078" stroke="hsl(0.0,100%,35%)" stroke-width="0.00451"></path>
<path d="M1.328 0.353 Q1.256 0.688 1.894 0.797" stroke="hsl(0.0,100%,35%)" stroke-width="0.00451"></path>
<path d="M1.328 0.353 Q1.265 0.184 0.922 0.178" stroke="hsl(0.0,100%,35%)" stroke-width="0.00451"></path>
<path d="M1.328 0.353 Q0.470 0.500 0.567 0.951" stroke="hsl(0.0,100%,35%)" stroke-width="0.00451"></path>
<path d="M0.570 0.607 Q0.344 0.568 0.218 0.670" stroke="hsl(0.0,100%,35%)" stroke-width="0.01353"></path>
<path d="M0.570 0.607 Q1.080 0.967 1.894 0.797" stroke="hsl(0.0,100%,35%)" stroke-width="0.00451"></path>
<path d="M0.570 0.607 Q1.319 0.679 1.623 0.329" stroke="hsl(0.0,100%,35%)" stroke-width="0.00451"></path>
<path d="M0.570 0.607 Q0.957 0.690 1.204 0.519" stroke="hsl(0.0,100%,35%)" stroke-width="0.00902"></path>
<path d="M0.927 1.074 Q1.811 0.687 1.249 0.171" stroke="hsl(0.0,100%,35%)" stroke-width="0.00451"></path>
<path d="M0.927 1.074 Q1.195 1.028 1.166 0.888" stroke="hsl(0.0,100%,35%)" stroke-width="0.00451"></path>
<path d="M0.927 1.074 Q1.509 0.852 1.204 0.519" stroke="hsl(0.0,100%,35%)" stroke-width="0.00451"></path>
<path d="M0.904 0.644 Q0.840 0.818 1.166 0.888" stroke="hsl(0.0,100%,35%)" stroke-width="0.03158"></path>
<path d="M0.904 0.644 Q1.047 0.720 1.226 0.667" stroke="hsl(0.0,100%,35%)" stroke-width="0.01805"></path>
<path d="M0.904 0.644 Q0.491 0.730 0.567 0.951" stroke="hsl(0.0,100%,35%)" stroke-width="0.00902"></path>
<path d="M0.904 0.644 Q1.277 0.919 1.894 0.797" stroke="hsl(0.0,100%,35%)" stroke-width="0.00451"></path>
<path d="M0.904 0.644 Q0.681 0.624 0.592 0.728" stroke="hsl(0.0,100%,35%)" stroke-width="0.00451"></path>
<path d="M0.904 0.644 Q0.754 0.680 0.792 0.761" stroke="hsl(0.0,100%,35%)" stroke-width="0.00451"></path>
<path d="M1.296 1.005 Q1.325 0.920 1.166 0.888" stroke="hsl(0.0,100%,35%)" stroke-width="0.04511"></path>
<path d="M1.296 1.005 Q1.412 0.994 1.417 0.935" stroke="hsl(0.0,100%,35%)" stroke-width="0.00451"></path>
<path d="M1.296 1.005 Q1.532 0.822 1.226 0.667" stroke="hsl(0.0,100%,35%)" stroke-width="0.00451"></path>
<path d="M1.296 1.005 Q0.975 0.832 0.567 0.951" stroke="hsl(0.0,100%,35%)" stroke-width="0.01353"></path>
<path d="M1.296 1.005 Q1.486 1.038 1.592 0.953" stroke="hsl(0.0,100%,35%)" stroke-width="0.00451"></path>
<path d="M1.296 1.005 Q2.000 0.733 1.623 0.329" stroke="hsl(0.0,100%,35%)" stroke-width="0.00902"></path>
<path d="M1.296 1.005 Q1.212 0.891 0.971 0.907" stroke="hsl(0.0,100%,35%)" stroke-width="0.02256"></path>
<path d="M1.296 1.005 Q1.762 1.020 1.894 0.797" stroke="hsl(0.0,100%,35%)" stroke-width="0.00451"></path>
<path d="M0.947 0.333 Q0.842 0.372 0.896 0.433" stroke="hsl(0.0,100%,35%)" stroke-width="0.02256"></path>
<path d="M0.947 0.333 Q0.612 0.654 1.166 0.888" stroke="hsl(0.0,100%,35%)" stroke-width="0.01805"></path>
<path d="M0.947 0.333 Q0.554 0.281 0.367 0.461" stroke="hsl(0.0,100%,35%)" stroke-width="0.00451"></path>
<path d="M0.947 0.333 Q0.584 0.739 1.296 1.005" stroke="hsl(0.0,100%,35%)" stroke-width="0.00451"></path>
<path d="M0.947 0.333 Q0.676 0.480 0.904 0.644" stroke="hsl(0.0,100%,35%)" stroke-width="0.00451"></path>
</g>
<text x="1.204" y="0.489" font-size="0.060075" fill="hsl(0.0,100%,20%)">danilchap</text>
<text x="0.896" y="0.416" font-size="0.032444" fill="hsl(0.0,100%,20%)">terelius</text>
<text x="0.111" y="0.270" font-size="0.032444" fill="hsl(0.0,100%,20%)">jleconte</text>
<text x="1.829" y="0.286" font-size="0.021240" fill="hsl(0.0,100%,20%)">asapersson</text>
<text x="1.623" y="0.306" font-size="0.047494" fill="hsl(0.0,100%,20%)">ssilkin</text>
<text x="1.226" y="0.645" font-size="0.042480" fill="hsl(0.0,100%,20%)">sprang</text>
<text x="0.218" y="0.650" font-size="0.038778" fill="hsl(0.0,100%,20%)">philipel</text>
<text x="1.166" y="0.851" font-size="0.072548" fill="hsl(0.0,100%,20%)">hta</text>
<text x="1.894" y="0.767" font-size="0.060075" fill="hsl(0.0,100%,20%)">mbonadei</text>
<text x="1.438" y="0.595" font-size="0.012263" fill="hsl(0.0,100%,20%)">kthelgason</text>
<text x="1.724" y="0.911" font-size="0.040671" fill="hsl(0.0,100%,20%)">dorhen</text>
<text x="1.496" y="0.888" font-size="0.012263" fill="hsl(0.0,100%,20%)">guidou</text>
<text x="1.466" y="0.885" font-size="0.012263" fill="hsl(0.0,100%,20%)">gustaf</text>
<text x="1.592" y="0.941" font-size="0.024526" fill="hsl(0.0,100%,20%)">titovartem</text>
<text x="0.722" y="0.073" font-size="0.021240" fill="hsl(0.0,100%,20%)">dwtan</text>
<text x="0.408" y="0.211" font-size="0.017342" fill="hsl(0.0,100%,20%)">marpan</text>
<text x="1.249" y="0.152" font-size="0.036788" fill="hsl(0.0,100%,20%)">jakobi</text>
<text x="1.328" y="0.342" font-size="0.021240" fill="hsl(0.0,100%,20%)">henrika</text>
<text x="0.922" y="0.172" font-size="0.012263" fill="hsl(0.0,100%,20%)">ilnik</text>
<text x="0.567" y="0.932" font-size="0.036788" fill="hsl(0.0,100%,20%)">hbos</text>
<text x="0.971" y="0.892" font-size="0.030038" fill="hsl(0.0,100%,20%)">orphis</text>
<text x="1.169" y="0.026" font-size="0.021240" fill="hsl(0.0,100%,20%)">henrik.lundin</text>
<text x="1.493" y="0.102" font-size="0.012263" fill="hsl(0.0,100%,20%)">hlundin</text>
<text x="1.351" y="0.071" font-size="0.012263" fill="hsl(0.0,100%,20%)">tomasl</text>
<text x="0.570" y="0.591" font-size="0.032444" fill="hsl(0.0,100%,20%)">jianjun.zhu</text>
<text x="0.153" y="0.148" font-size="0.012263" fill="hsl(0.0,100%,20%)">manashi</text>
<text x="0.927" y="1.063" font-size="0.021240" fill="hsl(0.0,100%,20%)">joachimr</text>
<text x="1.518" y="0.687" font-size="0.017342" fill="hsl(0.0,100%,20%)">jansson</text>
<text x="0.904" y="0.618" font-size="0.052027" fill="hsl(0.0,100%,20%)">perkj</text>
<text x="1.857" y="0.602" font-size="0.012263" fill="hsl(0.0,100%,20%)">xalep</text>
<text x="0.592" y="0.722" font-size="0.012263" fill="hsl(0.0,100%,20%)">diepbp</text>
<text x="0.792" y="0.755" font-size="0.012263" fill="hsl(0.0,100%,20%)">jonaso</text>
<text x="1.296" y="0.974" font-size="0.061314" fill="hsl(0.0,100%,20%)">phancke</text>
<text x="1.417" y="0.929" font-size="0.012263" fill="hsl(0.0,100%,20%)">kron</text>
<text x="0.947" y="0.311" font-size="0.042480" fill="hsl(0.0,100%,20%)">tommi</text>
<text x="0.367" y="0.455" font-size="0.012263" fill="hsl(0.0,100%,20%)">eshr</text>
</svg>
