<svg width="4000" height="2000" viewBox="-0.025 -0.025 2.05 1.05" xmlns="http://www.w3.org/2000/svg">
  <style>
    path {
      fill: none;
      stroke-linecap: round;
      stroke-opacity: 0.4;
    }

    text {
      text-anchor: middle;
      alignment-baseline: hanging;
    }
  </style>
  <g opacity="0.4">
<path d="M0.573 0.844 Q0.758 0.792 0.697 0.690" stroke="hsl(0.0,100%,35%)" stroke-width="0.00187"></path>
<path d="M0.573 0.844 Q0.755 0.574 0.269 0.426" stroke="hsl(0.0,100%,35%)" stroke-width="0.00093"></path>
<path d="M0.573 0.844 Q1.070 0.828 1.148 0.582" stroke="hsl(0.0,100%,35%)" stroke-width="0.00093"></path>
<path d="M0.573 0.844 Q1.424 0.862 1.644 0.450" stroke="hsl(0.0,100%,35%)" stroke-width="0.00093"></path>
<path d="M0.573 0.844 Q0.918 0.678 0.671 0.474" stroke="hsl(0.0,100%,35%)" stroke-width="0.00093"></path>
<path d="M0.697 0.690 Q0.844 0.796 1.084 0.748" stroke="hsl(0.0,100%,35%)" stroke-width="0.01589"></path>
<path d="M0.697 0.690 Q0.608 0.722 0.653 0.773" stroke="hsl(0.0,100%,35%)" stroke-width="0.00748"></path>
<path d="M0.697 0.690 Q0.694 0.472 0.269 0.426" stroke="hsl(0.0,100%,35%)" stroke-width="0.00467"></path>
<path d="M0.697 0.690 Q0.748 0.501 0.390 0.434" stroke="hsl(0.0,100%,35%)" stroke-width="0.00093"></path>
<path d="M0.697 0.690 Q0.857 0.576 0.671 0.474" stroke="hsl(0.0,100%,35%)" stroke-width="0.00093"></path>
<path d="M0.697 0.690 Q0.472 0.638 0.322 0.736" stroke="hsl(0.0,100%,35%)" stroke-width="0.00093"></path>
<path d="M0.697 0.690 Q1.283 0.393 0.833 0.041" stroke="hsl(0.0,100%,35%)" stroke-width="0.00187"></path>
<path d="M0.269 0.426 Q0.323 0.454 0.390 0.434" stroke="hsl(0.0,100%,35%)" stroke-width="0.00467"></path>
<path d="M0.269 0.426 Q0.419 0.750 1.084 0.748" stroke="hsl(0.0,100%,35%)" stroke-width="0.00654"></path>
<path d="M0.269 0.426 Q0.470 0.428 0.520 0.331" stroke="hsl(0.0,100%,35%)" stroke-width="0.01215"></path>
<path d="M0.269 0.426 Q0.415 0.823 1.223 0.839" stroke="hsl(0.0,100%,35%)" stroke-width="0.00093"></path>
<path d="M0.269 0.426 Q0.432 0.530 0.671 0.474" stroke="hsl(0.0,100%,35%)" stroke-width="0.00093"></path>
<path d="M0.269 0.426 Q0.342 0.333 0.178 0.277" stroke="hsl(0.0,100%,35%)" stroke-width="0.00093"></path>
<path d="M0.269 0.426 Q0.921 0.822 1.838 0.590" stroke="hsl(0.0,100%,35%)" stroke-width="0.00093"></path>
<path d="M0.269 0.426 Q0.132 0.708 0.653 0.836" stroke="hsl(0.0,100%,35%)" stroke-width="0.00093"></path>
<path d="M0.269 0.426 Q1.094 0.450 1.321 0.052" stroke="hsl(0.0,100%,35%)" stroke-width="0.00093"></path>
<path d="M0.269 0.426 Q0.413 0.408 0.410 0.333" stroke="hsl(0.0,100%,35%)" stroke-width="0.00093"></path>
<path d="M0.269 0.426 Q0.259 0.615 0.626 0.661" stroke="hsl(0.0,100%,35%)" stroke-width="0.00093"></path>
<path d="M1.148 0.582 Q0.907 0.235 0.178 0.277" stroke="hsl(0.0,100%,35%)" stroke-width="0.00467"></path>
<path d="M1.148 0.582 Q0.984 0.652 1.084 0.748" stroke="hsl(0.0,100%,35%)" stroke-width="0.01963"></path>
<path d="M1.148 0.582 Q1.361 0.478 1.205 0.352" stroke="hsl(0.0,100%,35%)" stroke-width="0.00093"></path>
<path d="M1.148 0.582 Q0.837 0.546 0.697 0.690" stroke="hsl(0.0,100%,35%)" stroke-width="0.00093"></path>
<path d="M1.148 0.582 Q1.246 0.380 0.872 0.288" stroke="hsl(0.0,100%,35%)" stroke-width="0.00280"></path>
<path d="M1.148 0.582 Q0.834 0.328 0.269 0.426" stroke="hsl(0.0,100%,35%)" stroke-width="0.00187"></path>
<path d="M1.148 0.582 Q0.996 0.432 0.671 0.474" stroke="hsl(0.0,100%,35%)" stroke-width="0.00467"></path>
<path d="M1.148 0.582 Q1.832 0.465 1.753 0.106" stroke="hsl(0.0,100%,35%)" stroke-width="0.00187"></path>
<path d="M1.644 0.450 Q1.744 0.385 1.639 0.322" stroke="hsl(0.0,100%,35%)" stroke-width="0.00748"></path>
<path d="M1.644 0.450 Q1.571 0.501 1.653 0.548" stroke="hsl(0.0,100%,35%)" stroke-width="0.00280"></path>
<path d="M1.644 0.450 Q0.982 0.253 0.452 0.532" stroke="hsl(0.0,100%,35%)" stroke-width="0.00093"></path>
<path d="M1.644 0.450 Q1.801 0.187 1.321 0.052" stroke="hsl(0.0,100%,35%)" stroke-width="0.00093"></path>
<path d="M1.644 0.450 Q1.588 0.365 1.409 0.374" stroke="hsl(0.0,100%,35%)" stroke-width="0.00093"></path>
<path d="M1.644 0.450 Q0.976 0.163 0.269 0.426" stroke="hsl(0.0,100%,35%)" stroke-width="0.00093"></path>
<path d="M0.671 0.474 Q0.582 0.277 0.178 0.277" stroke="hsl(0.0,100%,35%)" stroke-width="0.00561"></path>
<path d="M0.671 0.474 Q0.709 0.372 0.520 0.331" stroke="hsl(0.0,100%,35%)" stroke-width="0.00467"></path>
<path d="M0.671 0.474 Q0.920 0.421 0.872 0.288" stroke="hsl(0.0,100%,35%)" stroke-width="0.01402"></path>
<path d="M0.671 0.474 Q0.508 0.369 0.269 0.426" stroke="hsl(0.0,100%,35%)" stroke-width="0.01122"></path>
<path d="M0.671 0.474 Q1.333 0.393 1.321 0.052" stroke="hsl(0.0,100%,35%)" stroke-width="0.00187"></path>
<path d="M0.671 0.474 Q0.658 0.693 1.084 0.748" stroke="hsl(0.0,100%,35%)" stroke-width="0.03646"></path>
<path d="M0.671 0.474 Q0.511 0.587 0.697 0.690" stroke="hsl(0.0,100%,35%)" stroke-width="0.00093"></path>
<path d="M0.671 0.474 Q1.176 0.657 1.644 0.450" stroke="hsl(0.0,100%,35%)" stroke-width="0.00467"></path>
<path d="M0.671 0.474 Q0.514 0.459 0.452 0.532" stroke="hsl(0.0,100%,35%)" stroke-width="0.00374"></path>
<path d="M0.671 0.474 Q0.575 0.442 0.491 0.482" stroke="hsl(0.0,100%,35%)" stroke-width="0.00467"></path>
<path d="M0.671 0.474 Q1.506 0.506 1.753 0.106" stroke="hsl(0.0,100%,35%)" stroke-width="0.00467"></path>
<path d="M0.671 0.474 Q0.575 0.852 1.293 0.982" stroke="hsl(0.0,100%,35%)" stroke-width="0.00093"></path>
<path d="M0.671 0.474 Q0.808 0.472 0.835 0.404" stroke="hsl(0.0,100%,35%)" stroke-width="0.01309"></path>
<path d="M0.671 0.474 Q0.372 0.651 0.653 0.836" stroke="hsl(0.0,100%,35%)" stroke-width="0.00187"></path>
<path d="M0.671 0.474 Q0.498 0.558 0.626 0.661" stroke="hsl(0.0,100%,35%)" stroke-width="0.00187"></path>
<path d="M0.671 0.474 Q0.286 0.535 0.322 0.736" stroke="hsl(0.0,100%,35%)" stroke-width="0.00093"></path>
<path d="M0.671 0.474 Q0.415 0.572 0.550 0.719" stroke="hsl(0.0,100%,35%)" stroke-width="0.00093"></path>
<path d="M0.671 0.474 Q1.161 0.765 1.838 0.590" stroke="hsl(0.0,100%,35%)" stroke-width="0.00374"></path>
<path d="M0.671 0.474 Q0.890 0.861 1.694 0.839" stroke="hsl(0.0,100%,35%)" stroke-width="0.00280"></path>
<path d="M0.671 0.474 Q1.029 0.897 1.934 0.816" stroke="hsl(0.0,100%,35%)" stroke-width="0.00093"></path>
<path d="M0.671 0.474 Q0.976 0.766 1.614 0.682" stroke="hsl(0.0,100%,35%)" stroke-width="0.00093"></path>
<path d="M0.382 0.580 Q0.530 0.640 0.678 0.581" stroke="hsl(0.0,100%,35%)" stroke-width="0.01122"></path>
<path d="M0.382 0.580 Q0.599 0.805 1.084 0.748" stroke="hsl(0.0,100%,35%)" stroke-width="0.01122"></path>
<path d="M0.382 0.580 Q0.455 0.570 0.452 0.532" stroke="hsl(0.0,100%,35%)" stroke-width="0.00093"></path>
<path d="M0.382 0.580 Q0.650 0.483 0.520 0.331" stroke="hsl(0.0,100%,35%)" stroke-width="0.00093"></path>
<path d="M0.678 0.581 Q0.375 0.587 0.322 0.736" stroke="hsl(0.0,100%,35%)" stroke-width="0.00093"></path>
<path d="M0.678 0.581 Q0.651 0.450 0.390 0.434" stroke="hsl(0.0,100%,35%)" stroke-width="0.00093"></path>
<path d="M0.678 0.581 Q0.747 0.746 1.084 0.748" stroke="hsl(0.0,100%,35%)" stroke-width="0.00280"></path>
<path d="M1.084 0.748 Q0.937 0.641 0.697 0.690" stroke="hsl(0.0,100%,35%)" stroke-width="0.00374"></path>
<path d="M1.084 0.748 Q1.249 0.678 1.148 0.582" stroke="hsl(0.0,100%,35%)" stroke-width="0.02150"></path>
<path d="M1.084 0.748 Q0.934 0.424 0.269 0.426" stroke="hsl(0.0,100%,35%)" stroke-width="0.01589"></path>
<path d="M1.084 0.748 Q0.988 0.452 0.390 0.434" stroke="hsl(0.0,100%,35%)" stroke-width="0.00280"></path>
<path d="M1.084 0.748 Q1.086 0.844 1.274 0.865" stroke="hsl(0.0,100%,35%)" stroke-width="0.00093"></path>
<path d="M1.084 0.748 Q1.932 0.561 1.753 0.106" stroke="hsl(0.0,100%,35%)" stroke-width="0.00748"></path>
<path d="M1.084 0.748 Q1.097 0.528 0.671 0.474" stroke="hsl(0.0,100%,35%)" stroke-width="0.00280"></path>
<path d="M1.084 0.748 Q0.867 0.524 0.382 0.580" stroke="hsl(0.0,100%,35%)" stroke-width="0.00187"></path>
<path d="M1.084 0.748 Q1.008 0.331 0.178 0.277" stroke="hsl(0.0,100%,35%)" stroke-width="0.00093"></path>
<path d="M1.084 0.748 Q1.015 0.583 0.678 0.581" stroke="hsl(0.0,100%,35%)" stroke-width="0.00093"></path>
<path d="M1.084 0.748 Q1.082 0.648 0.887 0.627" stroke="hsl(0.0,100%,35%)" stroke-width="0.00093"></path>
<path d="M1.084 0.748 Q1.001 0.496 0.491 0.482" stroke="hsl(0.0,100%,35%)" stroke-width="0.00093"></path>
<path d="M1.084 0.748 Q1.884 0.688 1.943 0.285" stroke="hsl(0.0,100%,35%)" stroke-width="0.00093"></path>
<path d="M1.084 0.748 Q0.798 0.706 0.653 0.836" stroke="hsl(0.0,100%,35%)" stroke-width="0.00093"></path>
<path d="M1.084 0.748 Q1.402 0.821 1.614 0.682" stroke="hsl(0.0,100%,35%)" stroke-width="0.00093"></path>
<path d="M0.520 0.331 Q0.465 0.725 1.223 0.839" stroke="hsl(0.0,100%,35%)" stroke-width="0.00093"></path>
<path d="M0.520 0.331 Q0.986 0.616 1.644 0.450" stroke="hsl(0.0,100%,35%)" stroke-width="0.00093"></path>
<path d="M0.520 0.331 Q0.786 0.725 1.614 0.682" stroke="hsl(0.0,100%,35%)" stroke-width="0.00093"></path>
<path d="M0.520 0.331 Q0.971 0.724 1.838 0.590" stroke="hsl(0.0,100%,35%)" stroke-width="0.00093"></path>
<path d="M0.520 0.331 Q0.471 0.344 0.487 0.371" stroke="hsl(0.0,100%,35%)" stroke-width="0.00093"></path>
<path d="M0.520 0.331 Q0.372 0.357 0.390 0.434" stroke="hsl(0.0,100%,35%)" stroke-width="0.00374"></path>
<path d="M0.520 0.331 Q0.318 0.328 0.269 0.426" stroke="hsl(0.0,100%,35%)" stroke-width="0.00561"></path>
<path d="M0.520 0.331 Q0.468 0.652 1.084 0.748" stroke="hsl(0.0,100%,35%)" stroke-width="0.00280"></path>
<path d="M0.520 0.331 Q0.392 0.235 0.178 0.277" stroke="hsl(0.0,100%,35%)" stroke-width="0.00187"></path>
<path d="M0.520 0.331 Q0.182 0.610 0.653 0.836" stroke="hsl(0.0,100%,35%)" stroke-width="0.00093"></path>
<path d="M0.520 0.331 Q1.268 0.593 1.943 0.285" stroke="hsl(0.0,100%,35%)" stroke-width="0.00093"></path>
<path d="M0.520 0.331 Q0.715 0.316 0.730 0.217" stroke="hsl(0.0,100%,35%)" stroke-width="0.00093"></path>
<path d="M1.432 0.291 Q1.568 0.150 1.321 0.052" stroke="hsl(0.0,100%,35%)" stroke-width="0.00093"></path>
<path d="M1.432 0.291 Q1.155 0.178 0.872 0.288" stroke="hsl(0.0,100%,35%)" stroke-width="0.00093"></path>
<path d="M1.432 0.291 Q1.125 0.617 1.694 0.839" stroke="hsl(0.0,100%,35%)" stroke-width="0.00093"></path>
<path d="M1.432 0.291 Q1.411 0.413 1.644 0.450" stroke="hsl(0.0,100%,35%)" stroke-width="0.00187"></path>
<path d="M1.432 0.291 Q0.906 0.230 0.671 0.474" stroke="hsl(0.0,100%,35%)" stroke-width="0.00093"></path>
<path d="M1.321 0.052 Q1.086 -0.051 0.833 0.041" stroke="hsl(0.0,100%,35%)" stroke-width="0.00841"></path>
<path d="M1.321 0.052 Q0.487 0.218 0.626 0.661" stroke="hsl(0.0,100%,35%)" stroke-width="0.00374"></path>
<path d="M1.321 0.052 Q0.499 0.246 0.697 0.690" stroke="hsl(0.0,100%,35%)" stroke-width="0.00093"></path>
<path d="M1.321 0.052 Q1.206 0.096 1.266 0.162" stroke="hsl(0.0,100%,35%)" stroke-width="0.00467"></path>
<path d="M1.321 0.052 Q0.564 0.511 1.293 0.982" stroke="hsl(0.0,100%,35%)" stroke-width="0.00093"></path>
<path d="M0.872 0.288 Q0.623 0.341 0.671 0.474" stroke="hsl(0.0,100%,35%)" stroke-width="0.00280"></path>
<path d="M0.872 0.288 Q1.458 0.373 1.753 0.106" stroke="hsl(0.0,100%,35%)" stroke-width="0.00093"></path>
<path d="M0.872 0.288 Q0.480 0.532 0.870 0.777" stroke="hsl(0.0,100%,35%)" stroke-width="0.00093"></path>
<path d="M0.872 0.288 Q0.460 0.236 0.269 0.426" stroke="hsl(0.0,100%,35%)" stroke-width="0.00093"></path>
<path d="M0.872 0.288 Q1.113 0.632 1.838 0.590" stroke="hsl(0.0,100%,35%)" stroke-width="0.00280"></path>
<path d="M0.872 0.288 Q0.928 0.633 1.614 0.682" stroke="hsl(0.0,100%,35%)" stroke-width="0.00561"></path>
<path d="M0.872 0.288 Q1.036 0.260 1.018 0.174" stroke="hsl(0.0,100%,35%)" stroke-width="0.00187"></path>
<path d="M0.434 0.469 Q0.386 0.414 0.269 0.426" stroke="hsl(0.0,100%,35%)" stroke-width="0.00093"></path>
<path d="M0.434 0.469 Q0.798 0.466 0.872 0.288" stroke="hsl(0.0,100%,35%)" stroke-width="0.00093"></path>
<path d="M0.434 0.469 Q0.587 0.417 0.520 0.331" stroke="hsl(0.0,100%,35%)" stroke-width="0.00093"></path>
<path d="M0.434 0.469 Q0.536 0.738 1.084 0.748" stroke="hsl(0.0,100%,35%)" stroke-width="0.00093"></path>
<path d="M0.178 0.277 Q0.104 0.369 0.269 0.426" stroke="hsl(0.0,100%,35%)" stroke-width="0.01122"></path>
<path d="M0.178 0.277 Q0.572 0.766 1.614 0.682" stroke="hsl(0.0,100%,35%)" stroke-width="0.00187"></path>
<path d="M0.178 0.277 Q0.254 0.694 1.084 0.748" stroke="hsl(0.0,100%,35%)" stroke-width="0.00187"></path>
<path d="M0.178 0.277 Q1.102 0.506 1.753 0.106" stroke="hsl(0.0,100%,35%)" stroke-width="0.00467"></path>
<path d="M0.178 0.277 Q0.305 0.372 0.520 0.331" stroke="hsl(0.0,100%,35%)" stroke-width="0.00374"></path>
<path d="M0.178 0.277 Q0.625 0.897 1.934 0.816" stroke="hsl(0.0,100%,35%)" stroke-width="0.00093"></path>
<path d="M0.178 0.277 Q0.757 0.766 1.838 0.590" stroke="hsl(0.0,100%,35%)" stroke-width="0.00093"></path>
<path d="M0.178 0.277 Q0.442 0.270 0.486 0.140" stroke="hsl(0.0,100%,35%)" stroke-width="0.00187"></path>
<path d="M0.491 0.482 Q0.415 0.599 0.626 0.661" stroke="hsl(0.0,100%,35%)" stroke-width="0.00093"></path>
<path d="M0.491 0.482 Q0.424 0.409 0.269 0.426" stroke="hsl(0.0,100%,35%)" stroke-width="0.00093"></path>
<path d="M0.491 0.482 Q0.575 0.733 1.084 0.748" stroke="hsl(0.0,100%,35%)" stroke-width="0.00093"></path>
<path d="M1.753 0.106 Q0.905 0.293 1.084 0.748" stroke="hsl(0.0,100%,35%)" stroke-width="0.01683"></path>
<path d="M1.753 0.106 Q1.408 0.365 1.838 0.590" stroke="hsl(0.0,100%,35%)" stroke-width="0.00935"></path>
<path d="M1.753 0.106 Q0.758 0.187 0.697 0.690" stroke="hsl(0.0,100%,35%)" stroke-width="0.00280"></path>
<path d="M1.753 0.106 Q0.755 -0.031 0.269 0.426" stroke="hsl(0.0,100%,35%)" stroke-width="0.00561"></path>
<path d="M1.753 0.106 Q1.705 0.234 1.943 0.285" stroke="hsl(0.0,100%,35%)" stroke-width="0.00748"></path>
<path d="M1.753 0.106 Q1.610 0.082 1.531 0.147" stroke="hsl(0.0,100%,35%)" stroke-width="0.01122"></path>
<path d="M1.753 0.106 Q0.918 0.073 0.671 0.474" stroke="hsl(0.0,100%,35%)" stroke-width="0.00187"></path>
<path d="M1.753 0.106 Q1.167 0.021 0.872 0.288" stroke="hsl(0.0,100%,35%)" stroke-width="0.00093"></path>
<path d="M1.753 0.106 Q0.829 -0.124 0.178 0.277" stroke="hsl(0.0,100%,35%)" stroke-width="0.00374"></path>
<path d="M1.293 0.982 Q1.224 0.912 1.073 0.930" stroke="hsl(0.0,100%,35%)" stroke-width="0.00187"></path>
<path d="M1.293 0.982 Q1.936 0.566 1.266 0.162" stroke="hsl(0.0,100%,35%)" stroke-width="0.00093"></path>
<path d="M1.293 0.982 Q1.376 0.823 1.084 0.748" stroke="hsl(0.0,100%,35%)" stroke-width="0.00093"></path>
<path d="M1.293 0.982 Q1.226 0.499 0.269 0.426" stroke="hsl(0.0,100%,35%)" stroke-width="0.00093"></path>
<path d="M0.653 0.836 Q0.940 0.878 1.084 0.748" stroke="hsl(0.0,100%,35%)" stroke-width="0.01122"></path>
<path d="M0.653 0.836 Q0.899 0.921 1.117 0.820" stroke="hsl(0.0,100%,35%)" stroke-width="0.00093"></path>
<path d="M0.653 0.836 Q0.790 0.554 0.269 0.426" stroke="hsl(0.0,100%,35%)" stroke-width="0.00561"></path>
<path d="M0.653 0.836 Q0.938 0.778 0.887 0.627" stroke="hsl(0.0,100%,35%)" stroke-width="0.00093"></path>
<path d="M0.653 0.836 Q0.863 0.462 0.178 0.277" stroke="hsl(0.0,100%,35%)" stroke-width="0.00093"></path>
<path d="M0.653 0.836 Q0.991 0.557 0.520 0.331" stroke="hsl(0.0,100%,35%)" stroke-width="0.00374"></path>
<path d="M0.653 0.836 Q0.809 0.850 0.870 0.777" stroke="hsl(0.0,100%,35%)" stroke-width="0.00187"></path>
<path d="M0.653 0.836 Q0.941 0.975 1.274 0.865" stroke="hsl(0.0,100%,35%)" stroke-width="0.00187"></path>
<path d="M0.626 0.661 Q1.104 0.869 1.614 0.682" stroke="hsl(0.0,100%,35%)" stroke-width="0.00093"></path>
<path d="M0.626 0.661 Q1.225 0.393 0.833 0.041" stroke="hsl(0.0,100%,35%)" stroke-width="0.00093"></path>
<path d="M0.626 0.661 Q1.461 0.496 1.321 0.052" stroke="hsl(0.0,100%,35%)" stroke-width="0.00187"></path>
<path d="M1.838 0.590 Q1.348 0.299 0.671 0.474" stroke="hsl(0.0,100%,35%)" stroke-width="0.00093"></path>
<path d="M1.838 0.590 Q2.183 0.331 1.753 0.106" stroke="hsl(0.0,100%,35%)" stroke-width="0.00093"></path>
<path d="M1.838 0.590 Q1.653 0.591 1.614 0.682" stroke="hsl(0.0,100%,35%)" stroke-width="0.00280"></path>
<path d="M1.934 0.816 Q2.082 0.575 1.644 0.450" stroke="hsl(0.0,100%,35%)" stroke-width="0.00093"></path>
<path d="M1.934 0.816 Q1.576 0.392 0.671 0.474" stroke="hsl(0.0,100%,35%)" stroke-width="0.00093"></path>
<path d="M1.934 0.816 Q1.487 0.195 0.178 0.277" stroke="hsl(0.0,100%,35%)" stroke-width="0.00187"></path>
<path d="M1.934 0.816 Q2.066 0.684 1.838 0.590" stroke="hsl(0.0,100%,35%)" stroke-width="0.00093"></path>
<path d="M1.934 0.816 Q1.795 0.779 1.694 0.839" stroke="hsl(0.0,100%,35%)" stroke-width="0.00093"></path>
<path d="M1.614 0.682 Q1.799 0.681 1.838 0.590" stroke="hsl(0.0,100%,35%)" stroke-width="0.00935"></path>
<path d="M1.614 0.682 Q1.446 0.387 0.835 0.404" stroke="hsl(0.0,100%,35%)" stroke-width="0.00187"></path>
<path d="M1.614 0.682 Q1.347 0.288 0.520 0.331" stroke="hsl(0.0,100%,35%)" stroke-width="0.00093"></path>
<path d="M1.614 0.682 Q1.166 0.581 0.870 0.777" stroke="hsl(0.0,100%,35%)" stroke-width="0.00093"></path>
<path d="M1.614 0.682 Q1.528 0.776 1.694 0.839" stroke="hsl(0.0,100%,35%)" stroke-width="0.00280"></path>
<path d="M1.614 0.682 Q1.146 0.285 0.269 0.426" stroke="hsl(0.0,100%,35%)" stroke-width="0.00561"></path>
<path d="M1.614 0.682 Q1.296 0.609 1.084 0.748" stroke="hsl(0.0,100%,35%)" stroke-width="0.00093"></path>
<path d="M1.614 0.682 Q1.558 0.337 0.872 0.288" stroke="hsl(0.0,100%,35%)" stroke-width="0.00093"></path>
<path d="M1.614 0.682 Q1.533 0.719 1.587 0.767" stroke="hsl(0.0,100%,35%)" stroke-width="0.00093"></path>
<path d="M1.614 0.682 Q1.722 0.309 1.018 0.174" stroke="hsl(0.0,100%,35%)" stroke-width="0.00093"></path>
<path d="M1.614 0.682 Q1.136 0.474 0.626 0.661" stroke="hsl(0.0,100%,35%)" stroke-width="0.00093"></path>
<path d="M1.054 0.426 Q0.728 0.341 0.491 0.482" stroke="hsl(0.0,100%,35%)" stroke-width="0.00093"></path>
<path d="M1.054 0.426 Q0.825 0.373 0.671 0.474" stroke="hsl(0.0,100%,35%)" stroke-width="0.00187"></path>
<path d="M1.054 0.426 Q0.662 0.269 0.269 0.426" stroke="hsl(0.0,100%,35%)" stroke-width="0.00187"></path>
<path d="M1.054 0.426 Q0.812 0.593 1.084 0.748" stroke="hsl(0.0,100%,35%)" stroke-width="0.00280"></path>
<path d="M1.054 0.426 Q0.681 0.565 0.870 0.777" stroke="hsl(0.0,100%,35%)" stroke-width="0.00093"></path>
<path d="M1.054 0.426 Q0.732 0.405 0.620 0.557" stroke="hsl(0.0,100%,35%)" stroke-width="0.00093"></path>
<path d="M1.054 0.426 Q1.235 0.448 1.318 0.365" stroke="hsl(0.0,100%,35%)" stroke-width="0.00093"></path>
<path d="M1.315 0.647 Q1.116 0.724 1.223 0.839" stroke="hsl(0.0,100%,35%)" stroke-width="0.00093"></path>
<path d="M1.315 0.647 Q1.436 0.724 1.614 0.682" stroke="hsl(0.0,100%,35%)" stroke-width="0.00187"></path>
<path d="M1.315 0.647 Q1.637 0.615 1.644 0.450" stroke="hsl(0.0,100%,35%)" stroke-width="0.00093"></path>
<path d="M1.315 0.647 Q1.622 0.723 1.838 0.590" stroke="hsl(0.0,100%,35%)" stroke-width="0.00187"></path>
<path d="M1.315 0.647 Q1.545 0.351 1.018 0.174" stroke="hsl(0.0,100%,35%)" stroke-width="0.00093"></path>
<path d="M0.069 0.639 Q0.394 0.601 0.390 0.434" stroke="hsl(0.0,100%,35%)" stroke-width="0.00093"></path>
<path d="M0.069 0.639 Q0.143 0.586 0.056 0.538" stroke="hsl(0.0,100%,35%)" stroke-width="0.00093"></path>
<path d="M0.069 0.639 Q0.340 0.573 0.269 0.426" stroke="hsl(0.0,100%,35%)" stroke-width="0.00093"></path>
<path d="M0.833 0.041 Q0.234 0.310 0.626 0.661" stroke="hsl(0.0,100%,35%)" stroke-width="0.00374"></path>
<path d="M0.833 0.041 Q1.241 0.258 1.753 0.106" stroke="hsl(0.0,100%,35%)" stroke-width="0.00093"></path>
<path d="M0.833 0.041 Q0.246 0.338 0.697 0.690" stroke="hsl(0.0,100%,35%)" stroke-width="0.00093"></path>
<path d="M0.833 0.041 Q0.896 0.517 1.838 0.590" stroke="hsl(0.0,100%,35%)" stroke-width="0.00561"></path>
<path d="M0.833 0.041 Q0.393 0.445 1.084 0.748" stroke="hsl(0.0,100%,35%)" stroke-width="0.00561"></path>
<path d="M0.833 0.041 Q0.243 0.121 0.269 0.426" stroke="hsl(0.0,100%,35%)" stroke-width="0.00467"></path>
<path d="M0.833 0.041 Q0.558 0.375 1.148 0.582" stroke="hsl(0.0,100%,35%)" stroke-width="0.00093"></path>
<path d="M0.833 0.041 Q0.317 0.028 0.178 0.277" stroke="hsl(0.0,100%,35%)" stroke-width="0.00093"></path>
<path d="M0.833 0.041 Q0.263 0.417 0.870 0.777" stroke="hsl(0.0,100%,35%)" stroke-width="0.00093"></path>
<path d="M0.800 0.646 Q0.730 0.725 0.870 0.777" stroke="hsl(0.0,100%,35%)" stroke-width="0.00280"></path>
<path d="M0.800 0.646 Q0.860 0.754 1.084 0.748" stroke="hsl(0.0,100%,35%)" stroke-width="0.00748"></path>
<path d="M0.800 0.646 Q0.781 0.565 0.620 0.557" stroke="hsl(0.0,100%,35%)" stroke-width="0.00093"></path>
<path d="M0.800 0.646 Q1.122 0.481 0.872 0.288" stroke="hsl(0.0,100%,35%)" stroke-width="0.00187"></path>
<path d="M0.800 0.646 Q1.011 0.532 0.835 0.404" stroke="hsl(0.0,100%,35%)" stroke-width="0.00093"></path>
<path d="M1.274 0.865 Q1.791 0.732 1.644 0.450" stroke="hsl(0.0,100%,35%)" stroke-width="0.00093"></path>
<path d="M1.274 0.865 Q1.122 0.444 0.269 0.426" stroke="hsl(0.0,100%,35%)" stroke-width="0.00187"></path>
<path d="M1.274 0.865 Q1.267 0.426 0.410 0.333" stroke="hsl(0.0,100%,35%)" stroke-width="0.00093"></path>
<path d="M1.274 0.865 Q1.272 0.768 1.084 0.748" stroke="hsl(0.0,100%,35%)" stroke-width="0.00093"></path>
<path d="M0.887 0.627 Q1.206 0.800 1.614 0.682" stroke="hsl(0.0,100%,35%)" stroke-width="0.00467"></path>
<path d="M0.887 0.627 Q0.888 0.727 1.084 0.748" stroke="hsl(0.0,100%,35%)" stroke-width="0.05422"></path>
<path d="M0.887 0.627 Q0.806 0.886 1.293 0.982" stroke="hsl(0.0,100%,35%)" stroke-width="0.00374"></path>
<path d="M0.887 0.627 Q1.391 0.799 1.838 0.590" stroke="hsl(0.0,100%,35%)" stroke-width="0.00093"></path>
<path d="M0.887 0.627 Q0.729 0.592 0.626 0.661" stroke="hsl(0.0,100%,35%)" stroke-width="0.00841"></path>
<path d="M0.887 0.627 Q0.819 0.562 0.678 0.581" stroke="hsl(0.0,100%,35%)" stroke-width="0.02244"></path>
<path d="M0.887 0.627 Q0.901 0.507 0.671 0.474" stroke="hsl(0.0,100%,35%)" stroke-width="0.00467"></path>
<path d="M0.887 0.627 Q0.742 0.620 0.697 0.690" stroke="hsl(0.0,100%,35%)" stroke-width="0.02524"></path>
<path d="M0.887 0.627 Q0.738 0.403 0.269 0.426" stroke="hsl(0.0,100%,35%)" stroke-width="0.00561"></path>
<path d="M0.887 0.627 Q0.350 0.821 0.612 1.125" stroke="hsl(0.0,100%,35%)" stroke-width="0.00093"></path>
<path d="M0.887 0.627 Q0.730 0.637 0.717 0.716" stroke="hsl(0.0,100%,35%)" stroke-width="0.00093"></path>
<path d="M0.887 0.627 Q0.745 0.493 0.452 0.532" stroke="hsl(0.0,100%,35%)" stroke-width="0.00093"></path>
<path d="M0.887 0.627 Q0.809 0.539 0.620 0.557" stroke="hsl(0.0,100%,35%)" stroke-width="0.00093"></path>
<path d="M0.887 0.627 Q0.828 0.619 0.800 0.646" stroke="hsl(0.0,100%,35%)" stroke-width="0.00280"></path>
<path d="M0.887 0.627 Q1.736 0.540 1.753 0.106" stroke="hsl(0.0,100%,35%)" stroke-width="0.00093"></path>
<path d="M0.887 0.627 Q0.848 0.769 1.117 0.820" stroke="hsl(0.0,100%,35%)" stroke-width="0.00093"></path>
<path d="M0.887 0.627 Q0.432 0.691 0.458 0.927" stroke="hsl(0.0,100%,35%)" stroke-width="0.00093"></path>
<path d="M0.887 0.627 Q0.602 0.685 0.653 0.836" stroke="hsl(0.0,100%,35%)" stroke-width="0.00093"></path>
<path d="M0.887 0.627 Q0.792 0.431 0.390 0.434" stroke="hsl(0.0,100%,35%)" stroke-width="0.00093"></path>
<path d="M0.887 0.627 Q0.805 0.475 0.491 0.482" stroke="hsl(0.0,100%,35%)" stroke-width="0.00093"></path>
<path d="M1.653 0.548 Q1.065 0.300 0.452 0.532" stroke="hsl(0.0,100%,35%)" stroke-width="0.00187"></path>
<path d="M1.653 0.548 Q1.727 0.497 1.644 0.450" stroke="hsl(0.0,100%,35%)" stroke-width="0.00280"></path>
<path d="M1.653 0.548 Q1.062 0.427 0.697 0.690" stroke="hsl(0.0,100%,35%)" stroke-width="0.00093"></path>
<path d="M1.214 0.638 Q1.061 0.667 1.084 0.748" stroke="hsl(0.0,100%,35%)" stroke-width="0.00374"></path>
<path d="M1.214 0.638 Q0.914 0.561 0.697 0.690" stroke="hsl(0.0,100%,35%)" stroke-width="0.00093"></path>
<path d="M1.214 0.638 Q1.564 0.739 1.838 0.590" stroke="hsl(0.0,100%,35%)" stroke-width="0.00093"></path>
<path d="M1.214 0.638 Q1.379 0.740 1.614 0.682" stroke="hsl(0.0,100%,35%)" stroke-width="0.00093"></path>
<path d="M1.214 0.638 Q0.901 0.532 0.626 0.661" stroke="hsl(0.0,100%,35%)" stroke-width="0.00093"></path>
<path d="M0.487 0.371 Q0.334 0.355 0.269 0.426" stroke="hsl(0.0,100%,35%)" stroke-width="0.00280"></path>
<path d="M0.487 0.371 Q0.484 0.679 1.084 0.748" stroke="hsl(0.0,100%,35%)" stroke-width="0.00093"></path>
<path d="M0.487 0.371 Q0.401 0.427 0.491 0.482" stroke="hsl(0.0,100%,35%)" stroke-width="0.00187"></path>
<path d="M1.091 0.264 Q0.962 0.233 0.872 0.288" stroke="hsl(0.0,100%,35%)" stroke-width="0.00187"></path>
<path d="M1.091 0.264 Q0.713 0.285 0.671 0.474" stroke="hsl(0.0,100%,35%)" stroke-width="0.00093"></path>
<path d="M1.091 0.264 Q0.701 0.505 1.084 0.748" stroke="hsl(0.0,100%,35%)" stroke-width="0.00093"></path>
<path d="M1.091 0.264 Q1.018 0.578 1.614 0.682" stroke="hsl(0.0,100%,35%)" stroke-width="0.00093"></path>
<path d="M1.091 0.264 Q1.219 0.468 1.644 0.450" stroke="hsl(0.0,100%,35%)" stroke-width="0.00093"></path>
<path d="M0.372 0.680 Q0.605 0.692 0.678 0.581" stroke="hsl(0.0,100%,35%)" stroke-width="0.00093"></path>
<path d="M0.372 0.680 Q0.303 0.698 0.322 0.736" stroke="hsl(0.0,100%,35%)" stroke-width="0.00093"></path>
<path d="M0.372 0.680 Q0.524 0.532 0.269 0.426" stroke="hsl(0.0,100%,35%)" stroke-width="0.00093"></path>
<path d="M0.344 0.867 Q0.369 0.939 0.514 0.943" stroke="hsl(0.0,100%,35%)" stroke-width="0.00467"></path>
<path d="M0.344 0.867 Q1.127 1.028 1.614 0.682" stroke="hsl(0.0,100%,35%)" stroke-width="0.00280"></path>
<path d="M0.344 0.867 Q0.274 0.810 0.147 0.832" stroke="hsl(0.0,100%,35%)" stroke-width="0.00280"></path>
<path d="M0.344 0.867 Q0.861 0.634 0.520 0.331" stroke="hsl(0.0,100%,35%)" stroke-width="0.00093"></path>
<path d="M0.656 0.764 Q0.895 0.622 0.671 0.474" stroke="hsl(0.0,100%,35%)" stroke-width="0.00093"></path>
<path d="M0.656 0.764 Q0.723 0.707 0.626 0.661" stroke="hsl(0.0,100%,35%)" stroke-width="0.00093"></path>
<path d="M0.656 0.764 Q1.047 0.771 1.148 0.582" stroke="hsl(0.0,100%,35%)" stroke-width="0.00093"></path>
<path d="M0.656 0.764 Q0.806 0.425 0.178 0.277" stroke="hsl(0.0,100%,35%)" stroke-width="0.00093"></path>
<path d="M1.500 0.538 Q1.442 0.633 1.614 0.682" stroke="hsl(0.0,100%,35%)" stroke-width="0.00748"></path>
<path d="M1.500 0.538 Q1.627 0.632 1.838 0.590" stroke="hsl(0.0,100%,35%)" stroke-width="0.00654"></path>
<path d="M1.500 0.538 Q1.386 0.288 0.872 0.288" stroke="hsl(0.0,100%,35%)" stroke-width="0.00467"></path>
<path d="M1.500 0.538 Q1.124 0.560 1.084 0.748" stroke="hsl(0.0,100%,35%)" stroke-width="0.00093"></path>
<path d="M1.500 0.538 Q0.974 0.236 0.269 0.426" stroke="hsl(0.0,100%,35%)" stroke-width="0.00093"></path>
<path d="M1.892 0.754 Q1.755 0.317 0.872 0.288" stroke="hsl(0.0,100%,35%)" stroke-width="0.00093"></path>
<path d="M1.892 0.754 Q1.491 0.489 0.887 0.627" stroke="hsl(0.0,100%,35%)" stroke-width="0.00093"></path>
<path d="M1.892 0.754 Q1.995 0.661 1.838 0.590" stroke="hsl(0.0,100%,35%)" stroke-width="0.00093"></path>
<path d="M0.759 0.147 Q0.441 0.512 1.084 0.748" stroke="hsl(0.0,100%,35%)" stroke-width="0.00187"></path>
<path d="M0.759 0.147 Q0.294 0.406 0.697 0.690" stroke="hsl(0.0,100%,35%)" stroke-width="0.00187"></path>
<path d="M0.759 0.147 Q0.880 0.109 0.833 0.041" stroke="hsl(0.0,100%,35%)" stroke-width="0.00187"></path>
</g>
<text x="0.573" y="0.838" font-size="0.011579" fill="hsl(0.0,100%,20%)">aheggestad</text>
<text x="0.697" y="0.669" font-size="0.042016" fill="hsl(0.0,100%,20%)">hbos</text>
<text x="0.269" y="0.399" font-size="0.054311" fill="hsl(0.0,100%,20%)">mbonadei</text>
<text x="1.148" y="0.563" font-size="0.038404" fill="hsl(0.0,100%,20%)">tommi</text>
<text x="1.644" y="0.437" font-size="0.026320" fill="hsl(0.0,100%,20%)">jakobi</text>
<text x="0.671" y="0.444" font-size="0.059232" fill="hsl(0.0,100%,20%)">danilchap</text>
<text x="0.382" y="0.568" font-size="0.025014" fill="hsl(0.0,100%,20%)">boivie</text>
<text x="0.678" y="0.565" font-size="0.030998" fill="hsl(0.0,100%,20%)">orphis</text>
<text x="1.084" y="0.708" font-size="0.080640" fill="hsl(0.0,100%,20%)">hta</text>
<text x="0.452" y="0.525" font-size="0.014182" fill="hsl(0.0,100%,20%)">saza</text>
<text x="0.520" y="0.314" font-size="0.034414" fill="hsl(0.0,100%,20%)">jleconte</text>
<text x="1.432" y="0.286" font-size="0.011579" fill="hsl(0.0,100%,20%)">brandstrom</text>
<text x="1.321" y="0.040" font-size="0.024563" fill="hsl(0.0,100%,20%)">henrika</text>
<text x="0.872" y="0.272" font-size="0.033090" fill="hsl(0.0,100%,20%)">philipel</text>
<text x="1.694" y="0.832" font-size="0.013371" fill="hsl(0.0,100%,20%)">brandtr</text>
<text x="0.434" y="0.464" font-size="0.009454" fill="hsl(0.0,100%,20%)">daniel.l</text>
<text x="0.178" y="0.260" font-size="0.034414" fill="hsl(0.0,100%,20%)">terelius</text>
<text x="0.491" y="0.473" font-size="0.017044" fill="hsl(0.0,100%,20%)">titovartem</text>
<text x="1.753" y="0.084" font-size="0.044345" fill="hsl(0.0,100%,20%)">perkj</text>
<text x="1.293" y="0.974" font-size="0.015678" fill="hsl(0.0,100%,20%)">kron</text>
<text x="0.835" y="0.395" font-size="0.019491" fill="hsl(0.0,100%,20%)">asapersson</text>
<text x="0.653" y="0.823" font-size="0.027966" fill="hsl(0.0,100%,20%)">lndmrk</text>
<text x="0.626" y="0.649" font-size="0.025014" fill="hsl(0.0,100%,20%)">ilnik</text>
<text x="0.322" y="0.731" font-size="0.009454" fill="hsl(0.0,100%,20%)">peterhanspers</text>
<text x="0.550" y="0.716" font-size="0.004727" fill="hsl(0.0,100%,20%)">chxg</text>
<text x="1.838" y="0.573" font-size="0.034738" fill="hsl(0.0,100%,20%)">sprang</text>
<text x="1.934" y="0.809" font-size="0.013371" fill="hsl(0.0,100%,20%)">yinwa</text>
<text x="1.614" y="0.663" font-size="0.037521" fill="hsl(0.0,100%,20%)">ssilkin</text>
<text x="1.054" y="0.419" font-size="0.015678" fill="hsl(0.0,100%,20%)">dorhen</text>
<text x="0.870" y="0.770" font-size="0.014182" fill="hsl(0.0,100%,20%)">stefan</text>
<text x="0.620" y="0.553" font-size="0.008188" fill="hsl(0.0,100%,20%)">guidou</text>
<text x="1.318" y="0.362" font-size="0.004727" fill="hsl(0.0,100%,20%)">gustaf</text>
<text x="1.315" y="0.641" font-size="0.012507" fill="hsl(0.0,100%,20%)">dwtan</text>
<text x="1.223" y="0.835" font-size="0.008188" fill="hsl(0.0,100%,20%)">marpan</text>
<text x="1.018" y="0.169" font-size="0.009454" fill="hsl(0.0,100%,20%)">mhoro</text>
<text x="0.069" y="0.635" font-size="0.008188" fill="hsl(0.0,100%,20%)">grt</text>
<text x="0.390" y="0.425" font-size="0.018909" fill="hsl(0.0,100%,20%)">jansson</text>
<text x="0.056" y="0.536" font-size="0.004727" fill="hsl(0.0,100%,20%)">metzman</text>
<text x="0.833" y="0.026" font-size="0.029897" fill="hsl(0.0,100%,20%)">handellm</text>
<text x="0.653" y="0.766" font-size="0.013371" fill="hsl(0.0,100%,20%)">eshr</text>
<text x="1.266" y="0.156" font-size="0.011579" fill="hsl(0.0,100%,20%)">alcooper</text>
<text x="0.800" y="0.636" font-size="0.020056" fill="hsl(0.0,100%,20%)">herre</text>
<text x="1.274" y="0.858" font-size="0.013371" fill="hsl(0.0,100%,20%)">sergeysu</text>
<text x="0.887" y="0.597" font-size="0.058853" fill="hsl(0.0,100%,20%)">phancke</text>
<text x="1.943" y="0.278" font-size="0.014949" fill="hsl(0.0,100%,20%)">jonaso</text>
<text x="1.639" y="0.315" font-size="0.013371" fill="hsl(0.0,100%,20%)">henrik.lundin</text>
<text x="1.653" y="0.541" font-size="0.014182" fill="hsl(0.0,100%,20%)">tomasl</text>
<text x="1.409" y="0.372" font-size="0.004727" fill="hsl(0.0,100%,20%)">hlundin</text>
<text x="1.214" y="0.632" font-size="0.013371" fill="hsl(0.0,100%,20%)">jianlin.qiu</text>
<text x="0.487" y="0.365" font-size="0.012507" fill="hsl(0.0,100%,20%)">manashi</text>
<text x="0.730" y="0.215" font-size="0.004727" fill="hsl(0.0,100%,20%)">magjed</text>
<text x="1.091" y="0.259" font-size="0.011579" fill="hsl(0.0,100%,20%)">joachimr</text>
<text x="0.372" y="0.676" font-size="0.008188" fill="hsl(0.0,100%,20%)">karim</text>
<text x="1.073" y="0.927" font-size="0.006685" fill="hsl(0.0,100%,20%)">mfoltz</text>
<text x="1.117" y="0.816" font-size="0.006685" fill="hsl(0.0,100%,20%)">deadbeef</text>
<text x="0.344" y="0.859" font-size="0.016375" fill="hsl(0.0,100%,20%)">lnilsson</text>
<text x="0.514" y="0.937" font-size="0.010570" fill="hsl(0.0,100%,20%)">xalep</text>
<text x="0.147" y="0.827" font-size="0.008188" fill="hsl(0.0,100%,20%)">ranvr</text>
<text x="0.410" y="0.330" font-size="0.006685" fill="hsl(0.0,100%,20%)">peah</text>
<text x="0.656" y="0.759" font-size="0.009454" fill="hsl(0.0,100%,20%)">mfroman</text>
<text x="1.531" y="0.138" font-size="0.016375" fill="hsl(0.0,100%,20%)">diepbp</text>
<text x="0.612" y="1.123" font-size="0.004727" fill="hsl(0.0,100%,20%)">fhernqvist</text>
<text x="0.717" y="0.713" font-size="0.004727" fill="hsl(0.0,100%,20%)">natashenka</text>
<text x="0.458" y="0.925" font-size="0.004727" fill="hsl(0.0,100%,20%)">davidben</text>
<text x="1.500" y="0.527" font-size="0.022173" fill="hsl(0.0,100%,20%)">qiujiao.wu</text>
<text x="1.587" y="0.764" font-size="0.004727" fill="hsl(0.0,100%,20%)">jianj</text>
<text x="0.486" y="0.136" font-size="0.006685" fill="hsl(0.0,100%,20%)">gureev</text>
<text x="1.205" y="0.349" font-size="0.004727" fill="hsl(0.0,100%,20%)">alexfh</text>
<text x="1.892" y="0.749" font-size="0.008188" fill="hsl(0.0,100%,20%)">weizhou</text>
<text x="0.759" y="0.141" font-size="0.011579" fill="hsl(0.0,100%,20%)">zhaoliang.ma</text>
</svg>
