<svg width="4000" height="2000" viewBox="-0.025 -0.025 2.05 1.05" xmlns="http://www.w3.org/2000/svg">
  <style>
    path {
      fill: none;
      stroke-linecap: round;
      stroke-opacity: 0.4;
    }

    text {
      text-anchor: middle;
      alignment-baseline: hanging;
    }
  </style>
  <g opacity="0.4">
<path d="M0.372 0.346 Q0.468 0.217 0.238 0.142" stroke="hsl(0.0,100%,35%)" stroke-width="0.00186"></path>
<path d="M0.372 0.346 Q0.846 0.537 1.323 0.347" stroke="hsl(0.0,100%,35%)" stroke-width="0.00093"></path>
<path d="M0.372 0.346 Q0.938 0.324 1.020 0.044" stroke="hsl(0.0,100%,35%)" stroke-width="0.00093"></path>
<path d="M0.372 0.346 Q0.435 0.888 1.508 0.977" stroke="hsl(0.0,100%,35%)" stroke-width="0.00093"></path>
<path d="M0.372 0.346 Q0.631 0.391 0.777 0.275" stroke="hsl(0.0,100%,35%)" stroke-width="0.00093"></path>
<path d="M0.238 0.142 Q0.479 0.225 0.693 0.126" stroke="hsl(0.0,100%,35%)" stroke-width="0.01674"></path>
<path d="M0.238 0.142 Q0.214 0.238 0.395 0.271" stroke="hsl(0.0,100%,35%)" stroke-width="0.00744"></path>
<path d="M0.238 0.142 Q0.616 0.462 1.323 0.347" stroke="hsl(0.0,100%,35%)" stroke-width="0.00465"></path>
<path d="M0.238 0.142 Q0.763 0.410 1.402 0.213" stroke="hsl(0.0,100%,35%)" stroke-width="0.00093"></path>
<path d="M0.238 0.142 Q0.401 0.316 0.777 0.275" stroke="hsl(0.0,100%,35%)" stroke-width="0.00093"></path>
<path d="M0.238 0.142 Q0.456 0.672 1.537 0.682" stroke="hsl(0.0,100%,35%)" stroke-width="0.00093"></path>
<path d="M0.238 0.142 Q-0.175 0.578 0.585 0.875" stroke="hsl(0.0,100%,35%)" stroke-width="0.00186"></path>
<path d="M1.323 0.347 Q1.470 0.296 1.402 0.213" stroke="hsl(0.0,100%,35%)" stroke-width="0.00372"></path>
<path d="M1.323 0.347 Q1.185 0.111 0.693 0.126" stroke="hsl(0.0,100%,35%)" stroke-width="0.00651"></path>
<path d="M1.323 0.347 Q1.590 0.332 1.618 0.198" stroke="hsl(0.0,100%,35%)" stroke-width="0.01395"></path>
<path d="M1.323 0.347 Q1.403 0.407 1.535 0.381" stroke="hsl(0.0,100%,35%)" stroke-width="0.00093"></path>
<path d="M1.323 0.347 Q1.108 0.202 0.777 0.275" stroke="hsl(0.0,100%,35%)" stroke-width="0.00093"></path>
<path d="M1.323 0.347 Q1.500 0.447 1.735 0.383" stroke="hsl(0.0,100%,35%)" stroke-width="0.00186"></path>
<path d="M1.323 0.347 Q0.883 0.429 0.946 0.662" stroke="hsl(0.0,100%,35%)" stroke-width="0.00093"></path>
<path d="M1.323 0.347 Q1.574 0.235 1.410 0.087" stroke="hsl(0.0,100%,35%)" stroke-width="0.00093"></path>
<path d="M1.323 0.347 Q0.387 0.452 0.386 0.932" stroke="hsl(0.0,100%,35%)" stroke-width="0.00093"></path>
<path d="M1.323 0.347 Q1.222 0.393 1.289 0.453" stroke="hsl(0.0,100%,35%)" stroke-width="0.00093"></path>
<path d="M1.020 0.044 Q1.106 0.356 1.735 0.383" stroke="hsl(0.0,100%,35%)" stroke-width="0.00558"></path>
<path d="M1.020 0.044 Q0.791 0.019 0.693 0.126" stroke="hsl(0.0,100%,35%)" stroke-width="0.02232"></path>
<path d="M1.020 0.044 Q1.122 0.017 1.093 -0.039" stroke="hsl(0.0,100%,35%)" stroke-width="0.00093"></path>
<path d="M1.020 0.044 Q0.550 -0.064 0.238 0.142" stroke="hsl(0.0,100%,35%)" stroke-width="0.00093"></path>
<path d="M1.020 0.044 Q1.073 0.466 1.909 0.533" stroke="hsl(0.0,100%,35%)" stroke-width="0.00279"></path>
<path d="M1.020 0.044 Q0.928 0.256 1.323 0.347" stroke="hsl(0.0,100%,35%)" stroke-width="0.00186"></path>
<path d="M1.020 0.044 Q0.713 0.111 0.777 0.275" stroke="hsl(0.0,100%,35%)" stroke-width="0.00465"></path>
<path d="M1.020 0.044 Q0.385 0.428 0.996 0.822" stroke="hsl(0.0,100%,35%)" stroke-width="0.00186"></path>
<path d="M1.508 0.977 Q1.447 0.880 1.245 0.888" stroke="hsl(0.0,100%,35%)" stroke-width="0.00744"></path>
<path d="M1.508 0.977 Q1.554 0.875 1.365 0.829" stroke="hsl(0.0,100%,35%)" stroke-width="0.00279"></path>
<path d="M1.508 0.977 Q1.731 0.572 0.990 0.374" stroke="hsl(0.0,100%,35%)" stroke-width="0.00093"></path>
<path d="M1.508 0.977 Q0.983 0.730 0.386 0.932" stroke="hsl(0.0,100%,35%)" stroke-width="0.00093"></path>
<path d="M1.508 0.977 Q1.675 0.891 1.546 0.791" stroke="hsl(0.0,100%,35%)" stroke-width="0.00093"></path>
<path d="M1.508 0.977 Q1.919 0.625 1.323 0.347" stroke="hsl(0.0,100%,35%)" stroke-width="0.00093"></path>
<path d="M0.777 0.275 Q1.170 0.520 1.735 0.383" stroke="hsl(0.0,100%,35%)" stroke-width="0.00558"></path>
<path d="M0.777 0.275 Q1.259 0.405 1.618 0.198" stroke="hsl(0.0,100%,35%)" stroke-width="0.00465"></path>
<path d="M0.777 0.275 Q1.137 0.630 1.909 0.533" stroke="hsl(0.0,100%,35%)" stroke-width="0.01209"></path>
<path d="M0.777 0.275 Q0.992 0.420 1.323 0.347" stroke="hsl(0.0,100%,35%)" stroke-width="0.01116"></path>
<path d="M0.777 0.275 Q0.056 0.525 0.386 0.932" stroke="hsl(0.0,100%,35%)" stroke-width="0.00186"></path>
<path d="M0.777 0.275 Q0.854 0.184 0.693 0.126" stroke="hsl(0.0,100%,35%)" stroke-width="0.03628"></path>
<path d="M0.777 0.275 Q0.614 0.101 0.238 0.142" stroke="hsl(0.0,100%,35%)" stroke-width="0.00093"></path>
<path d="M0.777 0.275 Q0.581 0.772 1.508 0.977" stroke="hsl(0.0,100%,35%)" stroke-width="0.00465"></path>
<path d="M0.777 0.275 Q0.804 0.367 0.990 0.374" stroke="hsl(0.0,100%,35%)" stroke-width="0.00372"></path>
<path d="M0.777 0.275 Q0.626 0.331 0.703 0.417" stroke="hsl(0.0,100%,35%)" stroke-width="0.00465"></path>
<path d="M0.777 0.275 Q0.448 0.592 0.996 0.822" stroke="hsl(0.0,100%,35%)" stroke-width="0.00465"></path>
<path d="M0.777 0.275 Q0.330 0.671 1.004 0.976" stroke="hsl(0.0,100%,35%)" stroke-width="0.00093"></path>
<path d="M0.777 0.275 Q0.797 0.308 0.867 0.306" stroke="hsl(0.0,100%,35%)" stroke-width="0.01116"></path>
<path d="M0.777 0.275 Q1.243 0.308 1.410 0.087" stroke="hsl(0.0,100%,35%)" stroke-width="0.00186"></path>
<path d="M0.777 0.275 Q0.171 0.482 0.442 0.823" stroke="hsl(0.0,100%,35%)" stroke-width="0.00186"></path>
<path d="M0.777 0.275 Q0.831 0.631 1.537 0.682" stroke="hsl(0.0,100%,35%)" stroke-width="0.00093"></path>
<path d="M0.777 0.275 Q0.678 0.243 0.594 0.284" stroke="hsl(0.0,100%,35%)" stroke-width="0.00093"></path>
<path d="M0.777 0.275 Q0.552 0.502 0.946 0.662" stroke="hsl(0.0,100%,35%)" stroke-width="0.00279"></path>
<path d="M0.777 0.275 Q0.574 0.543 1.054 0.701" stroke="hsl(0.0,100%,35%)" stroke-width="0.00186"></path>
<path d="M0.777 0.275 Q1.300 0.496 1.846 0.289" stroke="hsl(0.0,100%,35%)" stroke-width="0.00093"></path>
<path d="M0.777 0.275 Q0.684 0.455 1.015 0.539" stroke="hsl(0.0,100%,35%)" stroke-width="0.00186"></path>
<path d="M0.362 0.614 Q0.458 0.671 0.590 0.637" stroke="hsl(0.0,100%,35%)" stroke-width="0.01116"></path>
<path d="M0.362 0.614 Q0.918 0.436 0.693 0.126" stroke="hsl(0.0,100%,35%)" stroke-width="0.01116"></path>
<path d="M0.362 0.614 Q0.867 0.620 0.990 0.374" stroke="hsl(0.0,100%,35%)" stroke-width="0.00093"></path>
<path d="M0.362 0.614 Q1.323 0.657 1.618 0.198" stroke="hsl(0.0,100%,35%)" stroke-width="0.00093"></path>
<path d="M0.590 0.637 Q1.027 0.849 1.537 0.682" stroke="hsl(0.0,100%,35%)" stroke-width="0.00093"></path>
<path d="M0.590 0.637 Q1.335 0.587 1.402 0.213" stroke="hsl(0.0,100%,35%)" stroke-width="0.00093"></path>
<path d="M0.590 0.637 Q1.050 0.402 0.693 0.126" stroke="hsl(0.0,100%,35%)" stroke-width="0.00279"></path>
<path d="M0.693 0.126 Q0.453 0.043 0.238 0.142" stroke="hsl(0.0,100%,35%)" stroke-width="0.00372"></path>
<path d="M0.693 0.126 Q0.923 0.150 1.020 0.044" stroke="hsl(0.0,100%,35%)" stroke-width="0.02139"></path>
<path d="M0.693 0.126 Q0.831 0.363 1.323 0.347" stroke="hsl(0.0,100%,35%)" stroke-width="0.01581"></path>
<path d="M0.693 0.126 Q0.978 0.311 1.402 0.213" stroke="hsl(0.0,100%,35%)" stroke-width="0.00279"></path>
<path d="M0.693 0.126 Q0.697 0.465 1.359 0.538" stroke="hsl(0.0,100%,35%)" stroke-width="0.00093"></path>
<path d="M0.693 0.126 Q0.288 0.535 0.996 0.822" stroke="hsl(0.0,100%,35%)" stroke-width="0.00744"></path>
<path d="M0.693 0.126 Q0.616 0.217 0.777 0.275" stroke="hsl(0.0,100%,35%)" stroke-width="0.00186"></path>
<path d="M0.693 0.126 Q0.138 0.304 0.362 0.614" stroke="hsl(0.0,100%,35%)" stroke-width="0.00186"></path>
<path d="M0.693 0.126 Q1.009 0.463 1.735 0.383" stroke="hsl(0.0,100%,35%)" stroke-width="0.00093"></path>
<path d="M0.693 0.126 Q0.233 0.361 0.590 0.637" stroke="hsl(0.0,100%,35%)" stroke-width="0.00186"></path>
<path d="M0.693 0.126 Q0.478 0.127 0.432 0.232" stroke="hsl(0.0,100%,35%)" stroke-width="0.00093"></path>
<path d="M0.693 0.126 Q0.465 0.273 0.703 0.417" stroke="hsl(0.0,100%,35%)" stroke-width="0.00093"></path>
<path d="M0.693 0.126 Q0.168 0.447 0.679 0.774" stroke="hsl(0.0,100%,35%)" stroke-width="0.00093"></path>
<path d="M0.693 0.126 Q1.083 0.250 1.410 0.087" stroke="hsl(0.0,100%,35%)" stroke-width="0.00093"></path>
<path d="M0.693 0.126 Q0.523 0.397 1.015 0.539" stroke="hsl(0.0,100%,35%)" stroke-width="0.00093"></path>
<path d="M1.618 0.198 Q1.430 0.273 1.535 0.381" stroke="hsl(0.0,100%,35%)" stroke-width="0.00093"></path>
<path d="M1.618 0.198 Q0.940 0.565 1.508 0.977" stroke="hsl(0.0,100%,35%)" stroke-width="0.00093"></path>
<path d="M1.618 0.198 Q1.043 0.248 1.015 0.539" stroke="hsl(0.0,100%,35%)" stroke-width="0.00093"></path>
<path d="M1.618 0.198 Q0.911 0.295 0.946 0.662" stroke="hsl(0.0,100%,35%)" stroke-width="0.00093"></path>
<path d="M1.618 0.198 Q1.354 0.103 1.112 0.211" stroke="hsl(0.0,100%,35%)" stroke-width="0.00186"></path>
<path d="M1.618 0.198 Q1.498 0.162 1.402 0.213" stroke="hsl(0.0,100%,35%)" stroke-width="0.00372"></path>
<path d="M1.618 0.198 Q1.351 0.214 1.323 0.347" stroke="hsl(0.0,100%,35%)" stroke-width="0.00651"></path>
<path d="M1.618 0.198 Q1.213 -0.023 0.693 0.126" stroke="hsl(0.0,100%,35%)" stroke-width="0.00279"></path>
<path d="M1.618 0.198 Q1.528 0.314 1.735 0.383" stroke="hsl(0.0,100%,35%)" stroke-width="0.00186"></path>
<path d="M1.618 0.198 Q1.602 0.101 1.410 0.087" stroke="hsl(0.0,100%,35%)" stroke-width="0.00093"></path>
<path d="M1.618 0.198 Q0.687 0.298 0.679 0.774" stroke="hsl(0.0,100%,35%)" stroke-width="0.00093"></path>
<path d="M1.618 0.198 Q1.617 0.246 1.711 0.257" stroke="hsl(0.0,100%,35%)" stroke-width="0.00093"></path>
<path d="M1.591 0.851 Q0.924 0.650 0.386 0.932" stroke="hsl(0.0,100%,35%)" stroke-width="0.00093"></path>
<path d="M1.591 0.851 Q2.005 0.755 1.909 0.533" stroke="hsl(0.0,100%,35%)" stroke-width="0.00093"></path>
<path d="M1.591 0.851 Q1.442 0.668 1.054 0.701" stroke="hsl(0.0,100%,35%)" stroke-width="0.00093"></path>
<path d="M1.591 0.851 Q1.449 0.897 1.508 0.977" stroke="hsl(0.0,100%,35%)" stroke-width="0.00186"></path>
<path d="M1.591 0.851 Q1.645 0.400 0.777 0.275" stroke="hsl(0.0,100%,35%)" stroke-width="0.00093"></path>
<path d="M0.386 0.932 Q0.531 0.943 0.585 0.875" stroke="hsl(0.0,100%,35%)" stroke-width="0.00837"></path>
<path d="M0.386 0.932 Q0.501 0.889 0.442 0.823" stroke="hsl(0.0,100%,35%)" stroke-width="0.00465"></path>
<path d="M0.386 0.932 Q0.944 0.507 0.238 0.142" stroke="hsl(0.0,100%,35%)" stroke-width="0.00186"></path>
<path d="M0.386 0.932 Q0.363 0.886 0.268 0.887" stroke="hsl(0.0,100%,35%)" stroke-width="0.00465"></path>
<path d="M0.386 0.932 Q0.660 1.078 1.004 0.976" stroke="hsl(0.0,100%,35%)" stroke-width="0.00093"></path>
<path d="M0.386 0.932 Q1.322 0.827 1.323 0.347" stroke="hsl(0.0,100%,35%)" stroke-width="0.00093"></path>
<path d="M1.909 0.533 Q1.550 0.177 0.777 0.275" stroke="hsl(0.0,100%,35%)" stroke-width="0.00279"></path>
<path d="M1.909 0.533 Q1.221 0.495 0.996 0.822" stroke="hsl(0.0,100%,35%)" stroke-width="0.00093"></path>
<path d="M1.909 0.533 Q1.903 0.185 1.223 0.112" stroke="hsl(0.0,100%,35%)" stroke-width="0.00093"></path>
<path d="M1.909 0.533 Q1.764 0.323 1.323 0.347" stroke="hsl(0.0,100%,35%)" stroke-width="0.00093"></path>
<path d="M1.909 0.533 Q1.325 0.404 0.946 0.662" stroke="hsl(0.0,100%,35%)" stroke-width="0.00186"></path>
<path d="M1.909 0.533 Q1.457 0.357 1.015 0.539" stroke="hsl(0.0,100%,35%)" stroke-width="0.00558"></path>
<path d="M1.909 0.533 Q1.930 0.491 1.853 0.472" stroke="hsl(0.0,100%,35%)" stroke-width="0.00186"></path>
<path d="M1.206 0.168 Q1.121 0.281 1.323 0.347" stroke="hsl(0.0,100%,35%)" stroke-width="0.00093"></path>
<path d="M1.206 0.168 Q1.266 0.491 1.909 0.533" stroke="hsl(0.0,100%,35%)" stroke-width="0.00093"></path>
<path d="M1.206 0.168 Q1.388 0.265 1.618 0.198" stroke="hsl(0.0,100%,35%)" stroke-width="0.00093"></path>
<path d="M1.206 0.168 Q0.983 0.045 0.693 0.126" stroke="hsl(0.0,100%,35%)" stroke-width="0.00093"></path>
<path d="M1.735 0.383 Q1.557 0.283 1.323 0.347" stroke="hsl(0.0,100%,35%)" stroke-width="0.01116"></path>
<path d="M1.735 0.383 Q1.249 0.317 1.015 0.539" stroke="hsl(0.0,100%,35%)" stroke-width="0.00186"></path>
<path d="M1.735 0.383 Q1.419 0.046 0.693 0.126" stroke="hsl(0.0,100%,35%)" stroke-width="0.00186"></path>
<path d="M1.735 0.383 Q1.014 0.455 0.996 0.822" stroke="hsl(0.0,100%,35%)" stroke-width="0.00465"></path>
<path d="M1.735 0.383 Q1.824 0.267 1.618 0.198" stroke="hsl(0.0,100%,35%)" stroke-width="0.00372"></path>
<path d="M1.735 0.383 Q1.865 0.358 1.846 0.289" stroke="hsl(0.0,100%,35%)" stroke-width="0.00093"></path>
<path d="M1.735 0.383 Q1.117 0.364 0.946 0.662" stroke="hsl(0.0,100%,35%)" stroke-width="0.00093"></path>
<path d="M1.735 0.383 Q1.654 0.360 1.591 0.394" stroke="hsl(0.0,100%,35%)" stroke-width="0.00186"></path>
<path d="M0.996 0.822 Q1.401 0.414 0.693 0.126" stroke="hsl(0.0,100%,35%)" stroke-width="0.01674"></path>
<path d="M0.996 0.822 Q1.099 0.732 0.946 0.662" stroke="hsl(0.0,100%,35%)" stroke-width="0.01023"></path>
<path d="M0.996 0.822 Q1.161 0.331 0.238 0.142" stroke="hsl(0.0,100%,35%)" stroke-width="0.00279"></path>
<path d="M0.996 0.822 Q1.539 0.650 1.323 0.347" stroke="hsl(0.0,100%,35%)" stroke-width="0.00558"></path>
<path d="M0.996 0.822 Q0.876 0.735 0.679 0.774" stroke="hsl(0.0,100%,35%)" stroke-width="0.00744"></path>
<path d="M0.996 0.822 Q0.862 0.702 0.598 0.741" stroke="hsl(0.0,100%,35%)" stroke-width="0.01209"></path>
<path d="M0.996 0.822 Q1.324 0.505 0.777 0.275" stroke="hsl(0.0,100%,35%)" stroke-width="0.00186"></path>
<path d="M0.996 0.822 Q1.684 0.860 1.909 0.533" stroke="hsl(0.0,100%,35%)" stroke-width="0.00093"></path>
<path d="M0.996 0.822 Q1.717 0.750 1.735 0.383" stroke="hsl(0.0,100%,35%)" stroke-width="0.00372"></path>
<path d="M1.004 0.976 Q1.093 1.009 1.177 0.973" stroke="hsl(0.0,100%,35%)" stroke-width="0.00186"></path>
<path d="M1.004 0.976 Q0.707 0.784 0.268 0.887" stroke="hsl(0.0,100%,35%)" stroke-width="0.00093"></path>
<path d="M1.004 0.976 Q1.529 0.489 0.693 0.126" stroke="hsl(0.0,100%,35%)" stroke-width="0.00093"></path>
<path d="M1.004 0.976 Q1.666 0.725 1.323 0.347" stroke="hsl(0.0,100%,35%)" stroke-width="0.00093"></path>
<path d="M1.004 0.976 Q1.227 0.807 0.946 0.662" stroke="hsl(0.0,100%,35%)" stroke-width="0.00093"></path>
<path d="M1.410 0.087 Q1.021 -0.037 0.693 0.126" stroke="hsl(0.0,100%,35%)" stroke-width="0.01116"></path>
<path d="M1.410 0.087 Q1.231 0.135 1.284 0.232" stroke="hsl(0.0,100%,35%)" stroke-width="0.00093"></path>
<path d="M1.410 0.087 Q1.158 0.200 1.323 0.347" stroke="hsl(0.0,100%,35%)" stroke-width="0.00558"></path>
<path d="M1.410 0.087 Q0.805 -0.036 0.432 0.232" stroke="hsl(0.0,100%,35%)" stroke-width="0.00093"></path>
<path d="M1.410 0.087 Q1.336 0.300 1.735 0.383" stroke="hsl(0.0,100%,35%)" stroke-width="0.00093"></path>
<path d="M1.410 0.087 Q1.426 0.184 1.618 0.198" stroke="hsl(0.0,100%,35%)" stroke-width="0.00372"></path>
<path d="M1.410 0.087 Q1.297 0.062 1.223 0.112" stroke="hsl(0.0,100%,35%)" stroke-width="0.00186"></path>
<path d="M1.410 0.087 Q1.024 0.302 1.359 0.538" stroke="hsl(0.0,100%,35%)" stroke-width="0.00186"></path>
<path d="M0.442 0.823 Q0.955 0.796 1.015 0.539" stroke="hsl(0.0,100%,35%)" stroke-width="0.00093"></path>
<path d="M0.442 0.823 Q0.472 0.877 0.585 0.875" stroke="hsl(0.0,100%,35%)" stroke-width="0.00093"></path>
<path d="M0.442 0.823 Q0.327 0.866 0.386 0.932" stroke="hsl(0.0,100%,35%)" stroke-width="0.00186"></path>
<path d="M0.946 0.662 Q1.171 0.434 0.777 0.275" stroke="hsl(0.0,100%,35%)" stroke-width="0.00093"></path>
<path d="M0.946 0.662 Q0.842 0.752 0.996 0.822" stroke="hsl(0.0,100%,35%)" stroke-width="0.00093"></path>
<path d="M0.946 0.662 Q1.078 0.614 1.015 0.539" stroke="hsl(0.0,100%,35%)" stroke-width="0.00279"></path>
<path d="M1.846 0.289 Q1.127 0.565 1.508 0.977" stroke="hsl(0.0,100%,35%)" stroke-width="0.00093"></path>
<path d="M1.846 0.289 Q1.323 0.068 0.777 0.275" stroke="hsl(0.0,100%,35%)" stroke-width="0.00093"></path>
<path d="M1.846 0.289 Q1.716 0.314 1.735 0.383" stroke="hsl(0.0,100%,35%)" stroke-width="0.00186"></path>
<path d="M1.846 0.289 Q1.098 0.295 0.946 0.662" stroke="hsl(0.0,100%,35%)" stroke-width="0.00093"></path>
<path d="M1.846 0.289 Q1.120 0.337 1.054 0.701" stroke="hsl(0.0,100%,35%)" stroke-width="0.00093"></path>
<path d="M1.015 0.539 Q0.883 0.587 0.946 0.662" stroke="hsl(0.0,100%,35%)" stroke-width="0.01023"></path>
<path d="M1.015 0.539 Q1.128 0.393 0.867 0.306" stroke="hsl(0.0,100%,35%)" stroke-width="0.00372"></path>
<path d="M1.015 0.539 Q1.590 0.489 1.618 0.198" stroke="hsl(0.0,100%,35%)" stroke-width="0.00093"></path>
<path d="M1.015 0.539 Q1.461 0.367 1.223 0.112" stroke="hsl(0.0,100%,35%)" stroke-width="0.00093"></path>
<path d="M1.015 0.539 Q0.905 0.628 1.054 0.701" stroke="hsl(0.0,100%,35%)" stroke-width="0.00279"></path>
<path d="M1.015 0.539 Q1.322 0.505 1.323 0.347" stroke="hsl(0.0,100%,35%)" stroke-width="0.00651"></path>
<path d="M1.015 0.539 Q1.185 0.268 0.693 0.126" stroke="hsl(0.0,100%,35%)" stroke-width="0.00093"></path>
<path d="M1.015 0.539 Q1.467 0.715 1.909 0.533" stroke="hsl(0.0,100%,35%)" stroke-width="0.00093"></path>
<path d="M1.015 0.539 Q1.070 0.453 0.914 0.407" stroke="hsl(0.0,100%,35%)" stroke-width="0.00093"></path>
<path d="M1.015 0.539 Q1.488 0.673 1.853 0.472" stroke="hsl(0.0,100%,35%)" stroke-width="0.00093"></path>
<path d="M1.015 0.539 Q0.502 0.567 0.442 0.823" stroke="hsl(0.0,100%,35%)" stroke-width="0.00093"></path>
<path d="M0.971 0.142 Q0.617 0.226 0.703 0.417" stroke="hsl(0.0,100%,35%)" stroke-width="0.00279"></path>
<path d="M0.971 0.142 Q0.768 0.170 0.777 0.275" stroke="hsl(0.0,100%,35%)" stroke-width="0.00186"></path>
<path d="M0.971 0.142 Q0.983 0.315 1.323 0.347" stroke="hsl(0.0,100%,35%)" stroke-width="0.00372"></path>
<path d="M0.971 0.142 Q0.845 0.079 0.693 0.126" stroke="hsl(0.0,100%,35%)" stroke-width="0.00465"></path>
<path d="M0.971 0.142 Q1.122 0.178 1.223 0.112" stroke="hsl(0.0,100%,35%)" stroke-width="0.00093"></path>
<path d="M0.971 0.142 Q0.905 0.216 1.034 0.265" stroke="hsl(0.0,100%,35%)" stroke-width="0.00093"></path>
<path d="M0.971 0.142 Q0.954 0.153 0.971 0.164" stroke="hsl(0.0,100%,35%)" stroke-width="0.00093"></path>
<path d="M1.120 0.633 Q1.530 0.590 1.535 0.381" stroke="hsl(0.0,100%,35%)" stroke-width="0.00093"></path>
<path d="M1.120 0.633 Q1.143 0.565 1.015 0.539" stroke="hsl(0.0,100%,35%)" stroke-width="0.00186"></path>
<path d="M1.120 0.633 Q1.039 0.883 1.508 0.977" stroke="hsl(0.0,100%,35%)" stroke-width="0.00093"></path>
<path d="M1.120 0.633 Q1.011 0.613 0.946 0.662" stroke="hsl(0.0,100%,35%)" stroke-width="0.00186"></path>
<path d="M1.120 0.633 Q1.616 0.699 1.853 0.472" stroke="hsl(0.0,100%,35%)" stroke-width="0.00093"></path>
<path d="M0.099 0.291 Q0.813 0.513 1.402 0.213" stroke="hsl(0.0,100%,35%)" stroke-width="0.00093"></path>
<path d="M0.099 0.291 Q0.013 0.369 0.147 0.428" stroke="hsl(0.0,100%,35%)" stroke-width="0.00093"></path>
<path d="M0.099 0.291 Q0.665 0.564 1.323 0.347" stroke="hsl(0.0,100%,35%)" stroke-width="0.00093"></path>
<path d="M0.585 0.875 Q0.555 0.820 0.442 0.823" stroke="hsl(0.0,100%,35%)" stroke-width="0.00372"></path>
<path d="M0.585 0.875 Q0.833 0.931 0.996 0.822" stroke="hsl(0.0,100%,35%)" stroke-width="0.00093"></path>
<path d="M0.585 0.875 Q0.998 0.439 0.238 0.142" stroke="hsl(0.0,100%,35%)" stroke-width="0.00093"></path>
<path d="M0.585 0.875 Q0.936 0.840 0.946 0.662" stroke="hsl(0.0,100%,35%)" stroke-width="0.00558"></path>
<path d="M0.585 0.875 Q1.238 0.522 0.693 0.126" stroke="hsl(0.0,100%,35%)" stroke-width="0.00558"></path>
<path d="M0.585 0.875 Q1.376 0.759 1.323 0.347" stroke="hsl(0.0,100%,35%)" stroke-width="0.00465"></path>
<path d="M0.585 0.875 Q1.468 0.546 1.020 0.044" stroke="hsl(0.0,100%,35%)" stroke-width="0.00093"></path>
<path d="M0.585 0.875 Q1.554 0.859 1.735 0.383" stroke="hsl(0.0,100%,35%)" stroke-width="0.00093"></path>
<path d="M1.021 0.277 Q1.254 0.235 1.223 0.112" stroke="hsl(0.0,100%,35%)" stroke-width="0.00186"></path>
<path d="M1.021 0.277 Q0.978 0.136 0.693 0.126" stroke="hsl(0.0,100%,35%)" stroke-width="0.00651"></path>
<path d="M1.021 0.277 Q1.037 0.273 1.034 0.265" stroke="hsl(0.0,100%,35%)" stroke-width="0.00093"></path>
<path d="M1.021 0.277 Q1.261 0.582 1.909 0.533" stroke="hsl(0.0,100%,35%)" stroke-width="0.00186"></path>
<path d="M1.021 0.277 Q0.921 0.261 0.867 0.306" stroke="hsl(0.0,100%,35%)" stroke-width="0.00093"></path>
<path d="M1.359 0.538 Q1.082 0.787 1.508 0.977" stroke="hsl(0.0,100%,35%)" stroke-width="0.00093"></path>
<path d="M1.359 0.538 Q1.493 0.435 1.323 0.347" stroke="hsl(0.0,100%,35%)" stroke-width="0.00186"></path>
<path d="M1.359 0.538 Q1.392 0.481 1.289 0.453" stroke="hsl(0.0,100%,35%)" stroke-width="0.00093"></path>
<path d="M1.359 0.538 Q1.355 0.199 0.693 0.126" stroke="hsl(0.0,100%,35%)" stroke-width="0.00093"></path>
<path d="M0.432 0.232 Q0.478 0.502 1.015 0.539" stroke="hsl(0.0,100%,35%)" stroke-width="0.00558"></path>
<path d="M0.432 0.232 Q0.648 0.231 0.693 0.126" stroke="hsl(0.0,100%,35%)" stroke-width="0.05767"></path>
<path d="M0.432 0.232 Q0.123 0.719 1.004 0.976" stroke="hsl(0.0,100%,35%)" stroke-width="0.00372"></path>
<path d="M0.432 0.232 Q0.346 0.550 0.946 0.662" stroke="hsl(0.0,100%,35%)" stroke-width="0.00093"></path>
<path d="M0.432 0.232 Q-0.035 0.529 0.442 0.823" stroke="hsl(0.0,100%,35%)" stroke-width="0.00558"></path>
<path d="M0.432 0.232 Q0.188 0.466 0.590 0.637" stroke="hsl(0.0,100%,35%)" stroke-width="0.02325"></path>
<path d="M0.432 0.232 Q0.571 0.323 0.777 0.275" stroke="hsl(0.0,100%,35%)" stroke-width="0.00465"></path>
<path d="M0.432 0.232 Q0.408 0.148 0.238 0.142" stroke="hsl(0.0,100%,35%)" stroke-width="0.02325"></path>
<path d="M0.432 0.232 Q0.786 0.468 1.323 0.347" stroke="hsl(0.0,100%,35%)" stroke-width="0.00558"></path>
<path d="M0.432 0.232 Q0.690 0.059 0.408 -0.106" stroke="hsl(0.0,100%,35%)" stroke-width="0.00093"></path>
<path d="M0.432 0.232 Q0.341 0.294 0.442 0.352" stroke="hsl(0.0,100%,35%)" stroke-width="0.00093"></path>
<path d="M0.432 0.232 Q0.597 0.415 0.990 0.374" stroke="hsl(0.0,100%,35%)" stroke-width="0.00093"></path>
<path d="M0.432 0.232 Q0.707 0.369 1.034 0.265" stroke="hsl(0.0,100%,35%)" stroke-width="0.00093"></path>
<path d="M0.432 0.232 Q0.691 0.372 1.021 0.277" stroke="hsl(0.0,100%,35%)" stroke-width="0.00279"></path>
<path d="M0.432 0.232 Q0.242 0.640 0.996 0.822" stroke="hsl(0.0,100%,35%)" stroke-width="0.00093"></path>
<path d="M0.432 0.232 Q0.858 0.403 1.284 0.232" stroke="hsl(0.0,100%,35%)" stroke-width="0.00093"></path>
<path d="M0.432 0.232 Q0.654 0.097 0.439 -0.041" stroke="hsl(0.0,100%,35%)" stroke-width="0.00093"></path>
<path d="M0.432 0.232 Q1.037 0.355 1.410 0.087" stroke="hsl(0.0,100%,35%)" stroke-width="0.00093"></path>
<path d="M0.432 0.232 Q0.933 0.417 1.402 0.213" stroke="hsl(0.0,100%,35%)" stroke-width="0.00093"></path>
<path d="M0.432 0.232 Q0.420 0.379 0.703 0.417" stroke="hsl(0.0,100%,35%)" stroke-width="0.00093"></path>
<path d="M1.365 0.829 Q1.541 0.527 0.990 0.374" stroke="hsl(0.0,100%,35%)" stroke-width="0.00186"></path>
<path d="M1.365 0.829 Q1.318 0.932 1.508 0.977" stroke="hsl(0.0,100%,35%)" stroke-width="0.00279"></path>
<path d="M1.365 0.829 Q1.351 0.260 0.238 0.142" stroke="hsl(0.0,100%,35%)" stroke-width="0.00093"></path>
<path d="M1.006 0.175 Q0.889 0.088 0.693 0.126" stroke="hsl(0.0,100%,35%)" stroke-width="0.00372"></path>
<path d="M1.006 0.175 Q0.649 0.005 0.238 0.142" stroke="hsl(0.0,100%,35%)" stroke-width="0.00093"></path>
<path d="M1.006 0.175 Q0.587 0.406 0.946 0.662" stroke="hsl(0.0,100%,35%)" stroke-width="0.00093"></path>
<path d="M1.006 0.175 Q0.719 0.359 1.015 0.539" stroke="hsl(0.0,100%,35%)" stroke-width="0.00093"></path>
<path d="M1.112 0.211 Q1.108 0.322 1.323 0.347" stroke="hsl(0.0,100%,35%)" stroke-width="0.00279"></path>
<path d="M1.112 0.211 Q0.971 0.085 0.693 0.126" stroke="hsl(0.0,100%,35%)" stroke-width="0.00093"></path>
<path d="M1.112 0.211 Q0.743 0.233 0.703 0.417" stroke="hsl(0.0,100%,35%)" stroke-width="0.00186"></path>
<path d="M0.673 0.352 Q1.147 0.690 1.909 0.533" stroke="hsl(0.0,100%,35%)" stroke-width="0.00093"></path>
<path d="M0.673 0.352 Q0.787 0.334 0.777 0.275" stroke="hsl(0.0,100%,35%)" stroke-width="0.00093"></path>
<path d="M0.673 0.352 Q0.864 0.243 0.693 0.126" stroke="hsl(0.0,100%,35%)" stroke-width="0.00093"></path>
<path d="M0.673 0.352 Q0.591 0.831 1.508 0.977" stroke="hsl(0.0,100%,35%)" stroke-width="0.00093"></path>
<path d="M1.361 0.697 Q1.024 0.513 0.590 0.637" stroke="hsl(0.0,100%,35%)" stroke-width="0.00093"></path>
<path d="M1.361 0.697 Q1.461 0.725 1.537 0.682" stroke="hsl(0.0,100%,35%)" stroke-width="0.00093"></path>
<path d="M1.361 0.697 Q1.622 0.515 1.323 0.347" stroke="hsl(0.0,100%,35%)" stroke-width="0.00093"></path>
<path d="M0.101 0.665 Q0.047 0.675 0.054 0.703" stroke="hsl(0.0,100%,35%)" stroke-width="0.00372"></path>
<path d="M0.101 0.665 Q0.658 0.785 1.015 0.539" stroke="hsl(0.0,100%,35%)" stroke-width="0.00279"></path>
<path d="M0.101 0.665 Q0.114 0.714 0.212 0.718" stroke="hsl(0.0,100%,35%)" stroke-width="0.00279"></path>
<path d="M0.101 0.665 Q1.233 0.735 1.618 0.198" stroke="hsl(0.0,100%,35%)" stroke-width="0.00093"></path>
<path d="M0.764 0.504 Q0.861 0.572 1.015 0.539" stroke="hsl(0.0,100%,35%)" stroke-width="0.00558"></path>
<path d="M0.764 0.504 Q0.729 0.619 0.946 0.662" stroke="hsl(0.0,100%,35%)" stroke-width="0.00465"></path>
<path d="M0.764 0.504 Q1.314 0.747 1.909 0.533" stroke="hsl(0.0,100%,35%)" stroke-width="0.00279"></path>
<path d="M0.764 0.504 Q1.031 0.301 0.693 0.126" stroke="hsl(0.0,100%,35%)" stroke-width="0.00093"></path>
<path d="M0.630 0.507 Q1.249 0.776 1.909 0.533" stroke="hsl(0.0,100%,35%)" stroke-width="0.00093"></path>
<path d="M0.630 0.507 Q0.751 0.330 0.432 0.232" stroke="hsl(0.0,100%,35%)" stroke-width="0.00093"></path>
<path d="M0.630 0.507 Q0.665 0.647 0.946 0.662" stroke="hsl(0.0,100%,35%)" stroke-width="0.00093"></path>
<path d="M0.300 0.180 Q0.540 0.232 0.693 0.126" stroke="hsl(0.0,100%,35%)" stroke-width="0.00186"></path>
<path d="M0.300 0.180 Q0.299 0.149 0.238 0.142" stroke="hsl(0.0,100%,35%)" stroke-width="0.00186"></path>
<path d="M0.300 0.180 Q-0.113 0.584 0.585 0.875" stroke="hsl(0.0,100%,35%)" stroke-width="0.00186"></path>
</g>
<text x="0.372" y="0.340" font-size="0.011592" fill="hsl(0.0,100%,20%)">aheggestad</text>
<text x="0.238" y="0.121" font-size="0.042063" fill="hsl(0.0,100%,20%)">hbos</text>
<text x="1.323" y="0.320" font-size="0.055190" fill="hsl(0.0,100%,20%)">mbonadei</text>
<text x="1.020" y="0.024" font-size="0.039311" fill="hsl(0.0,100%,20%)">tommi</text>
<text x="1.508" y="0.964" font-size="0.026349" fill="hsl(0.0,100%,20%)">jakobi</text>
<text x="0.777" y="0.246" font-size="0.057961" fill="hsl(0.0,100%,20%)">danilchap</text>
<text x="0.362" y="0.601" font-size="0.025042" fill="hsl(0.0,100%,20%)">boivie</text>
<text x="0.590" y="0.621" font-size="0.031746" fill="hsl(0.0,100%,20%)">orphis</text>
<text x="0.693" y="0.085" font-size="0.081832" fill="hsl(0.0,100%,20%)">hta</text>
<text x="0.990" y="0.367" font-size="0.014197" fill="hsl(0.0,100%,20%)">saza</text>
<text x="1.618" y="0.180" font-size="0.035729" fill="hsl(0.0,100%,20%)">jleconte</text>
<text x="1.591" y="0.845" font-size="0.011592" fill="hsl(0.0,100%,20%)">brandstrom</text>
<text x="0.386" y="0.919" font-size="0.025921" fill="hsl(0.0,100%,20%)">henrika</text>
<text x="1.909" y="0.517" font-size="0.031033" fill="hsl(0.0,100%,20%)">philipel</text>
<text x="1.054" y="0.695" font-size="0.012521" fill="hsl(0.0,100%,20%)">brandtr</text>
<text x="1.206" y="0.163" font-size="0.009465" fill="hsl(0.0,100%,20%)">daniel.l</text>
<text x="1.735" y="0.365" font-size="0.034777" fill="hsl(0.0,100%,20%)">terelius</text>
<text x="0.703" y="0.409" font-size="0.016394" fill="hsl(0.0,100%,20%)">titovartem</text>
<text x="0.996" y="0.800" font-size="0.044896" fill="hsl(0.0,100%,20%)">perkj</text>
<text x="1.004" y="0.968" font-size="0.016394" fill="hsl(0.0,100%,20%)">kron</text>
<text x="0.867" y="0.296" font-size="0.019513" fill="hsl(0.0,100%,20%)">asapersson</text>
<text x="1.410" y="0.073" font-size="0.027998" fill="hsl(0.0,100%,20%)">lndmrk</text>
<text x="0.442" y="0.812" font-size="0.022197" fill="hsl(0.0,100%,20%)">ilnik</text>
<text x="1.537" y="0.677" font-size="0.009465" fill="hsl(0.0,100%,20%)">peterhanspers</text>
<text x="0.594" y="0.281" font-size="0.004732" fill="hsl(0.0,100%,20%)">chxg</text>
<text x="0.946" y="0.644" font-size="0.034453" fill="hsl(0.0,100%,20%)">sprang</text>
<text x="1.846" y="0.283" font-size="0.013385" fill="hsl(0.0,100%,20%)">yinwa</text>
<text x="1.015" y="0.520" font-size="0.038447" fill="hsl(0.0,100%,20%)">ssilkin</text>
<text x="0.971" y="0.132" font-size="0.019513" fill="hsl(0.0,100%,20%)">dorhen</text>
<text x="1.223" y="0.106" font-size="0.012521" fill="hsl(0.0,100%,20%)">stefan</text>
<text x="1.034" y="0.261" font-size="0.008197" fill="hsl(0.0,100%,20%)">guidou</text>
<text x="0.971" y="0.162" font-size="0.004732" fill="hsl(0.0,100%,20%)">gustaf</text>
<text x="1.120" y="0.627" font-size="0.012521" fill="hsl(0.0,100%,20%)">dwtan</text>
<text x="1.535" y="0.377" font-size="0.008197" fill="hsl(0.0,100%,20%)">marpan</text>
<text x="1.853" y="0.467" font-size="0.009465" fill="hsl(0.0,100%,20%)">mhoro</text>
<text x="0.099" y="0.287" font-size="0.008197" fill="hsl(0.0,100%,20%)">grt</text>
<text x="1.402" y="0.204" font-size="0.018329" fill="hsl(0.0,100%,20%)">jansson</text>
<text x="0.147" y="0.426" font-size="0.004732" fill="hsl(0.0,100%,20%)">metzman</text>
<text x="0.585" y="0.860" font-size="0.029554" fill="hsl(0.0,100%,20%)">handellm</text>
<text x="0.395" y="0.264" font-size="0.013385" fill="hsl(0.0,100%,20%)">eshr</text>
<text x="0.268" y="0.881" font-size="0.011592" fill="hsl(0.0,100%,20%)">alcooper</text>
<text x="1.021" y="0.267" font-size="0.018930" fill="hsl(0.0,100%,20%)">herre</text>
<text x="1.359" y="0.531" font-size="0.013385" fill="hsl(0.0,100%,20%)">sergeysu</text>
<text x="0.432" y="0.203" font-size="0.059109" fill="hsl(0.0,100%,20%)">phancke</text>
<text x="0.679" y="0.767" font-size="0.014965" fill="hsl(0.0,100%,20%)">jonaso</text>
<text x="1.245" y="0.882" font-size="0.013385" fill="hsl(0.0,100%,20%)">henrik.lundin</text>
<text x="1.365" y="0.822" font-size="0.014197" fill="hsl(0.0,100%,20%)">tomasl</text>
<text x="1.546" y="0.789" font-size="0.004732" fill="hsl(0.0,100%,20%)">hlundin</text>
<text x="1.006" y="0.169" font-size="0.012521" fill="hsl(0.0,100%,20%)">jianlin.qiu</text>
<text x="1.112" y="0.205" font-size="0.013385" fill="hsl(0.0,100%,20%)">manashi</text>
<text x="1.711" y="0.254" font-size="0.004732" fill="hsl(0.0,100%,20%)">magjed</text>
<text x="0.673" y="0.348" font-size="0.009465" fill="hsl(0.0,100%,20%)">joachimr</text>
<text x="1.361" y="0.693" font-size="0.008197" fill="hsl(0.0,100%,20%)">karim</text>
<text x="1.177" y="0.969" font-size="0.006693" fill="hsl(0.0,100%,20%)">mfoltz</text>
<text x="1.284" y="0.229" font-size="0.006693" fill="hsl(0.0,100%,20%)">deadbeef</text>
<text x="0.101" y="0.657" font-size="0.015696" fill="hsl(0.0,100%,20%)">lnilsson</text>
<text x="0.054" y="0.699" font-size="0.009465" fill="hsl(0.0,100%,20%)">xalep</text>
<text x="0.212" y="0.714" font-size="0.008197" fill="hsl(0.0,100%,20%)">ranvr</text>
<text x="1.289" y="0.449" font-size="0.006693" fill="hsl(0.0,100%,20%)">peah</text>
<text x="0.598" y="0.733" font-size="0.017063" fill="hsl(0.0,100%,20%)">diepbp</text>
<text x="0.408" y="-0.108" font-size="0.004732" fill="hsl(0.0,100%,20%)">fhernqvist</text>
<text x="0.442" y="0.350" font-size="0.004732" fill="hsl(0.0,100%,20%)">natashenka</text>
<text x="0.439" y="-0.043" font-size="0.004732" fill="hsl(0.0,100%,20%)">davidben</text>
<text x="0.764" y="0.495" font-size="0.018329" fill="hsl(0.0,100%,20%)">qiujiao.wu</text>
<text x="0.914" y="0.405" font-size="0.004732" fill="hsl(0.0,100%,20%)">jianj</text>
<text x="1.591" y="0.391" font-size="0.006693" fill="hsl(0.0,100%,20%)">gureev</text>
<text x="1.093" y="-0.041" font-size="0.004732" fill="hsl(0.0,100%,20%)">alexfh</text>
<text x="0.630" y="0.503" font-size="0.008197" fill="hsl(0.0,100%,20%)">weizhou</text>
<text x="0.300" y="0.174" font-size="0.011592" fill="hsl(0.0,100%,20%)">zhaoliang.ma</text>
</svg>
