<svg width="4000" height="2000" viewBox="-0.025 -0.025 2.05 1.05" xmlns="http://www.w3.org/2000/svg">
  <style>
    path {
      fill: none;
      stroke-linecap: round;
      stroke-opacity: 0.4;
    }

    text {
      text-anchor: middle;
      alignment-baseline: hanging;
    }
  </style>
  <g opacity="0.4">
<path d="M0.850 0.872 Q1.030 0.841 1.009 0.746" stroke="hsl(0.0,100%,35%)" stroke-width="0.00453"></path>
<path d="M0.850 0.872 Q0.462 0.804 0.244 0.977" stroke="hsl(0.0,100%,35%)" stroke-width="0.00905"></path>
<path d="M0.850 0.872 Q0.656 0.651 0.183 0.697" stroke="hsl(0.0,100%,35%)" stroke-width="0.00453"></path>
<path d="M0.244 0.977 Q1.077 1.233 1.757 0.882" stroke="hsl(0.0,100%,35%)" stroke-width="0.06337"></path>
<path d="M0.244 0.977 Q0.531 1.026 0.689 0.897" stroke="hsl(0.0,100%,35%)" stroke-width="0.00453"></path>
<path d="M0.244 0.977 Q0.548 0.940 0.541 0.783" stroke="hsl(0.0,100%,35%)" stroke-width="0.03621"></path>
<path d="M0.244 0.977 Q0.438 0.825 0.183 0.697" stroke="hsl(0.0,100%,35%)" stroke-width="0.02263"></path>
<path d="M0.244 0.977 Q0.862 0.618 0.295 0.237" stroke="hsl(0.0,100%,35%)" stroke-width="0.00453"></path>
<path d="M0.244 0.977 Q1.231 1.219 1.920 0.790" stroke="hsl(0.0,100%,35%)" stroke-width="0.00453"></path>
<path d="M0.183 0.697 Q0.976 1.091 1.920 0.790" stroke="hsl(0.0,100%,35%)" stroke-width="0.01811"></path>
<path d="M0.183 0.697 Q0.608 0.569 0.452 0.333" stroke="hsl(0.0,100%,35%)" stroke-width="0.00453"></path>
<path d="M0.183 0.697 Q0.822 1.105 1.757 0.882" stroke="hsl(0.0,100%,35%)" stroke-width="0.00453"></path>
<path d="M0.295 0.237 Q0.602 0.245 0.685 0.097" stroke="hsl(180.0,100%,35%)" stroke-width="0.01358"></path>
<path d="M0.295 0.237 Q0.510 0.852 1.757 0.882" stroke="hsl(180.0,100%,35%)" stroke-width="0.00905"></path>
<path d="M0.295 0.237 Q0.285 0.466 0.729 0.521" stroke="hsl(180.0,100%,35%)" stroke-width="0.00453"></path>
<path d="M0.295 0.237 Q0.410 0.149 0.263 0.074" stroke="hsl(180.0,100%,35%)" stroke-width="0.00905"></path>
<path d="M0.295 0.237 Q0.139 0.275 0.179 0.360" stroke="hsl(180.0,100%,35%)" stroke-width="0.03169"></path>
<path d="M0.295 0.237 Q-0.129 0.445 0.183 0.697" stroke="hsl(180.0,100%,35%)" stroke-width="0.01358"></path>
<path d="M0.295 0.237 Q0.435 0.437 0.855 0.413" stroke="hsl(180.0,100%,35%)" stroke-width="0.00453"></path>
<path d="M0.295 0.237 Q0.297 0.317 0.452 0.333" stroke="hsl(180.0,100%,35%)" stroke-width="0.01811"></path>
<path d="M0.295 0.237 Q-0.323 0.597 0.244 0.977" stroke="hsl(180.0,100%,35%)" stroke-width="0.00453"></path>
<path d="M0.295 0.237 Q0.471 0.258 0.550 0.177" stroke="hsl(180.0,100%,35%)" stroke-width="0.00905"></path>
<path d="M0.295 0.237 Q0.468 0.204 0.440 0.112" stroke="hsl(180.0,100%,35%)" stroke-width="0.00905"></path>
<path d="M1.757 0.882 Q1.912 0.869 1.920 0.790" stroke="hsl(0.0,100%,35%)" stroke-width="0.01358"></path>
<path d="M1.757 0.882 Q1.119 0.475 0.183 0.697" stroke="hsl(0.0,100%,35%)" stroke-width="0.01358"></path>
<path d="M1.757 0.882 Q1.780 0.927 1.872 0.926" stroke="hsl(0.0,100%,35%)" stroke-width="0.00453"></path>
<path d="M1.757 0.882 Q0.925 0.627 0.244 0.977" stroke="hsl(0.0,100%,35%)" stroke-width="0.00453"></path>
<path d="M0.729 0.521 Q0.316 0.500 0.183 0.697" stroke="hsl(180.0,100%,35%)" stroke-width="0.00453"></path>
<path d="M0.729 0.521 Q0.876 0.597 1.057 0.542" stroke="hsl(180.0,100%,35%)" stroke-width="0.02263"></path>
<path d="M0.729 0.521 Q0.122 0.652 0.244 0.977" stroke="hsl(180.0,100%,35%)" stroke-width="0.00453"></path>
<path d="M0.729 0.521 Q0.954 0.908 1.757 0.882" stroke="hsl(180.0,100%,35%)" stroke-width="0.00453"></path>
<path d="M0.452 0.333 Q0.532 0.420 0.718 0.400" stroke="hsl(180.0,100%,35%)" stroke-width="0.00453"></path>
<path d="M0.452 0.333 Q0.820 0.855 1.920 0.790" stroke="hsl(180.0,100%,35%)" stroke-width="0.00453"></path>
<path d="M0.452 0.333 Q0.834 0.428 1.102 0.262" stroke="hsl(180.0,100%,35%)" stroke-width="0.00453"></path>
<path d="M0.452 0.333 Q0.587 0.559 1.057 0.542" stroke="hsl(180.0,100%,35%)" stroke-width="0.00453"></path>
<path d="M0.452 0.333 Q0.873 0.687 1.657 0.560" stroke="hsl(180.0,100%,35%)" stroke-width="0.00453"></path>
<path d="M0.452 0.333 Q0.626 0.274 0.550 0.177" stroke="hsl(180.0,100%,35%)" stroke-width="0.00453"></path>
<path d="M1.416 0.421 Q1.386 0.279 1.102 0.262" stroke="hsl(180.0,100%,35%)" stroke-width="0.00905"></path>
<path d="M1.416 0.421 Q1.140 0.410 1.057 0.542" stroke="hsl(180.0,100%,35%)" stroke-width="0.00453"></path>
<path d="M1.416 0.421 Q1.179 0.126 0.550 0.177" stroke="hsl(180.0,100%,35%)" stroke-width="0.00453"></path>
<path d="M1.416 0.421 Q1.426 0.539 1.657 0.560" stroke="hsl(180.0,100%,35%)" stroke-width="0.00453"></path>
<path d="M1.102 0.262 Q0.721 0.168 0.452 0.333" stroke="hsl(180.0,100%,35%)" stroke-width="0.00905"></path>
<path d="M1.102 0.262 Q0.856 0.393 1.057 0.542" stroke="hsl(180.0,100%,35%)" stroke-width="0.00453"></path>
<path d="M1.102 0.262 Q1.235 0.318 1.372 0.265" stroke="hsl(180.0,100%,35%)" stroke-width="0.00453"></path>
<path d="M1.450 0.911 Q1.412 0.343 0.295 0.237" stroke="hsl(0.0,100%,35%)" stroke-width="0.00905"></path>
<path d="M1.450 0.911 Q1.627 0.958 1.757 0.882" stroke="hsl(0.0,100%,35%)" stroke-width="0.02716"></path>
<path d="M1.450 0.911 Q0.794 0.703 0.244 0.977" stroke="hsl(0.0,100%,35%)" stroke-width="0.00453"></path>
<path d="M1.450 0.911 Q0.988 0.550 0.183 0.697" stroke="hsl(0.0,100%,35%)" stroke-width="0.00453"></path>
<path d="M1.450 0.911 Q1.286 0.880 1.190 0.953" stroke="hsl(0.0,100%,35%)" stroke-width="0.00453"></path>
<path d="M1.450 0.911 Q1.558 0.826 1.415 0.755" stroke="hsl(0.0,100%,35%)" stroke-width="0.00453"></path>
<path d="M1.450 0.911 Q1.548 0.648 1.057 0.542" stroke="hsl(0.0,100%,35%)" stroke-width="0.00453"></path>
<path d="M1.065 0.380 Q0.639 0.193 0.179 0.360" stroke="hsl(180.0,100%,35%)" stroke-width="0.00905"></path>
<path d="M1.065 0.380 Q0.932 0.460 1.057 0.542" stroke="hsl(180.0,100%,35%)" stroke-width="0.00905"></path>
<path d="M1.065 0.380 Q1.178 0.329 1.102 0.262" stroke="hsl(180.0,100%,35%)" stroke-width="0.00905"></path>
<path d="M0.461 0.585 Q0.871 0.993 1.757 0.882" stroke="hsl(0.0,100%,35%)" stroke-width="0.00453"></path>
<path d="M0.461 0.585 Q0.039 0.738 0.244 0.977" stroke="hsl(0.0,100%,35%)" stroke-width="0.00453"></path>
<path d="M0.461 0.585 Q0.488 0.668 0.656 0.673" stroke="hsl(0.0,100%,35%)" stroke-width="0.00453"></path>
</g>
<text x="0.850" y="0.859" font-size="0.025713" fill="hsl(0.0,100%,20%)">aheggestad</text>
<text x="1.009" y="0.740" font-size="0.012856" fill="hsl(0.0,100%,20%)">tommi</text>
<text x="0.244" y="0.938" font-size="0.078203" fill="hsl(0.0,100%,20%)">hbos</text>
<text x="0.183" y="0.668" font-size="0.057496" fill="hsl(0.0,100%,20%)">mbonadei</text>
<text x="0.295" y="0.201" font-size="0.071582" fill="hsl(180.0,100%,20%)">danilchap</text>
<text x="0.685" y="0.086" font-size="0.022268" fill="hsl(180.0,100%,20%)">saza</text>
<text x="1.757" y="0.846" font-size="0.073855" fill="hsl(0.0,100%,20%)">hta</text>
<text x="0.729" y="0.502" font-size="0.038569" fill="hsl(180.0,100%,20%)">perkj</text>
<text x="0.263" y="0.065" font-size="0.018182" fill="hsl(180.0,100%,20%)">titovartem</text>
<text x="0.179" y="0.340" font-size="0.038569" fill="hsl(180.0,100%,20%)">philipel</text>
<text x="0.855" y="0.406" font-size="0.012856" fill="hsl(180.0,100%,20%)">henrika</text>
<text x="0.452" y="0.310" font-size="0.046355" fill="hsl(180.0,100%,20%)">jleconte</text>
<text x="0.550" y="0.164" font-size="0.025713" fill="hsl(180.0,100%,20%)">jakobi</text>
<text x="0.440" y="0.103" font-size="0.018182" fill="hsl(180.0,100%,20%)">terelius</text>
<text x="1.416" y="0.407" font-size="0.028748" fill="hsl(180.0,100%,20%)">dwtan</text>
<text x="1.102" y="0.243" font-size="0.038569" fill="hsl(180.0,100%,20%)">ssilkin</text>
<text x="1.057" y="0.521" font-size="0.042640" fill="hsl(180.0,100%,20%)">sprang</text>
<text x="1.657" y="0.551" font-size="0.018182" fill="hsl(180.0,100%,20%)">marpan</text>
<text x="0.689" y="0.890" font-size="0.012856" fill="hsl(0.0,100%,20%)">peterhanspers</text>
<text x="0.541" y="0.765" font-size="0.036364" fill="hsl(0.0,100%,20%)">eshr</text>
<text x="1.920" y="0.771" font-size="0.038569" fill="hsl(0.0,100%,20%)">jansson</text>
<text x="1.872" y="0.919" font-size="0.012856" fill="hsl(0.0,100%,20%)">olka</text>
<text x="0.718" y="0.394" font-size="0.012856" fill="hsl(180.0,100%,20%)">manashi</text>
<text x="1.450" y="0.888" font-size="0.046355" fill="hsl(0.0,100%,20%)">phancke</text>
<text x="1.190" y="0.947" font-size="0.012856" fill="hsl(0.0,100%,20%)">ilnik</text>
<text x="1.415" y="0.748" font-size="0.012856" fill="hsl(0.0,100%,20%)">kron</text>
<text x="1.065" y="0.365" font-size="0.031492" fill="hsl(180.0,100%,20%)">qiujiao.wu</text>
<text x="1.372" y="0.259" font-size="0.012856" fill="hsl(180.0,100%,20%)">asapersson</text>
<text x="0.461" y="0.574" font-size="0.022268" fill="hsl(0.0,100%,20%)">zhaoliang.ma</text>
<text x="0.656" y="0.666" font-size="0.012856" fill="hsl(0.0,100%,20%)">handellm</text>
</svg>
