<svg width="4000" height="2000" viewBox="-0.025 -0.025 2.05 1.05" xmlns="http://www.w3.org/2000/svg">
  <style>
    path {
      fill: none;
      stroke-linecap: round;
      stroke-opacity: 0.4;
    }

    text {
      text-anchor: middle;
      alignment-baseline: hanging;
    }
  </style>
  <g opacity="0.4">
<path d="M1.286 0.359 Q1.192 0.570 1.582 0.662" stroke="hsl(0.0,100%,35%)" stroke-width="0.01901"></path>
<path d="M1.286 0.359 Q1.350 0.249 1.150 0.193" stroke="hsl(0.0,100%,35%)" stroke-width="0.01901"></path>
<path d="M1.286 0.359 Q1.214 0.460 1.394 0.517" stroke="hsl(0.0,100%,35%)" stroke-width="0.06337"></path>
<path d="M1.286 0.359 Q1.014 0.275 0.790 0.389" stroke="hsl(0.0,100%,35%)" stroke-width="0.01901"></path>
<path d="M1.286 0.359 Q0.668 0.456 0.720 0.778" stroke="hsl(0.0,100%,35%)" stroke-width="0.01267"></path>
<path d="M1.286 0.359 Q0.792 0.184 0.342 0.387" stroke="hsl(0.0,100%,35%)" stroke-width="0.00634"></path>
<path d="M1.286 0.359 Q1.509 0.292 1.426 0.168" stroke="hsl(0.0,100%,35%)" stroke-width="0.00634"></path>
<path d="M1.286 0.359 Q1.451 0.371 1.510 0.293" stroke="hsl(0.0,100%,35%)" stroke-width="0.01267"></path>
<path d="M1.286 0.359 Q1.066 0.428 1.152 0.550" stroke="hsl(0.0,100%,35%)" stroke-width="0.00634"></path>
<path d="M1.582 0.662 Q1.676 0.451 1.286 0.359" stroke="hsl(0.0,100%,35%)" stroke-width="0.00634"></path>
<path d="M1.582 0.662 Q1.604 0.552 1.394 0.517" stroke="hsl(0.0,100%,35%)" stroke-width="0.01267"></path>
<path d="M1.582 0.662 Q1.411 0.668 1.386 0.753" stroke="hsl(0.0,100%,35%)" stroke-width="0.01267"></path>
<path d="M1.582 0.662 Q1.144 0.475 0.684 0.648" stroke="hsl(0.0,100%,35%)" stroke-width="0.00634"></path>
<path d="M1.394 0.517 Q1.194 0.332 0.790 0.389" stroke="hsl(0.0,100%,35%)" stroke-width="0.00634"></path>
<path d="M1.394 0.517 Q1.264 0.556 1.313 0.628" stroke="hsl(0.0,100%,35%)" stroke-width="0.03802"></path>
<path d="M1.394 0.517 Q1.076 0.552 1.076 0.715" stroke="hsl(0.0,100%,35%)" stroke-width="0.00634"></path>
<path d="M1.394 0.517 Q1.372 0.627 1.582 0.662" stroke="hsl(0.0,100%,35%)" stroke-width="0.01901"></path>
<path d="M0.790 0.389 Q0.648 0.342 0.525 0.400" stroke="hsl(0.0,100%,35%)" stroke-width="0.01267"></path>
<path d="M0.790 0.389 Q0.968 0.684 1.582 0.662" stroke="hsl(0.0,100%,35%)" stroke-width="0.01267"></path>
<path d="M0.790 0.389 Q0.912 0.444 1.047 0.396" stroke="hsl(0.0,100%,35%)" stroke-width="0.01267"></path>
<path d="M0.790 0.389 Q0.990 0.574 1.394 0.517" stroke="hsl(0.0,100%,35%)" stroke-width="0.02535"></path>
<path d="M0.790 0.389 Q0.659 0.393 0.639 0.458" stroke="hsl(0.0,100%,35%)" stroke-width="0.01267"></path>
<path d="M0.720 0.778 Q1.244 0.892 1.582 0.662" stroke="hsl(0.0,100%,35%)" stroke-width="0.00634"></path>
<path d="M0.720 0.778 Q0.806 0.706 0.684 0.648" stroke="hsl(0.0,100%,35%)" stroke-width="0.01267"></path>
<path d="M0.720 0.778 Q1.066 0.598 0.790 0.389" stroke="hsl(0.0,100%,35%)" stroke-width="0.00634"></path>
<path d="M0.685 0.940 Q0.956 0.595 0.342 0.387" stroke="hsl(180.0,100%,35%)" stroke-width="0.00634"></path>
<path d="M0.685 0.940 Q0.822 1.017 1.002 0.968" stroke="hsl(180.0,100%,35%)" stroke-width="0.01267"></path>
<path d="M0.685 0.940 Q1.181 0.541 0.511 0.212" stroke="hsl(180.0,100%,35%)" stroke-width="0.00634"></path>
<path d="M1.313 0.628 Q1.443 0.589 1.394 0.517" stroke="hsl(0.0,100%,35%)" stroke-width="0.01901"></path>
<path d="M1.313 0.628 Q1.026 0.663 1.032 0.811" stroke="hsl(0.0,100%,35%)" stroke-width="0.00634"></path>
<path d="M1.313 0.628 Q1.245 0.259 0.511 0.212" stroke="hsl(0.0,100%,35%)" stroke-width="0.00634"></path>
<path d="M0.135 0.337 Q0.423 0.349 0.511 0.212" stroke="hsl(180.0,100%,35%)" stroke-width="0.02535"></path>
<path d="M0.135 0.337 Q0.621 0.678 1.394 0.517" stroke="hsl(180.0,100%,35%)" stroke-width="0.02535"></path>
<path d="M0.135 0.337 Q0.198 0.403 0.342 0.387" stroke="hsl(180.0,100%,35%)" stroke-width="0.00634"></path>
<path d="M0.135 0.337 Q0.423 0.289 0.393 0.138" stroke="hsl(180.0,100%,35%)" stroke-width="0.00634"></path>
<path d="M0.135 0.337 Q-0.001 0.374 0.042 0.449" stroke="hsl(180.0,100%,35%)" stroke-width="0.00634"></path>
<path d="M0.135 0.337 Q0.310 0.367 0.407 0.288" stroke="hsl(180.0,100%,35%)" stroke-width="0.00634"></path>
<path d="M0.135 0.337 Q0.315 0.278 0.239 0.177" stroke="hsl(180.0,100%,35%)" stroke-width="0.00634"></path>
<path d="M0.135 0.337 Q0.058 0.474 0.308 0.541" stroke="hsl(180.0,100%,35%)" stroke-width="0.00634"></path>
</g>
<text x="1.286" y="0.319" font-size="0.081150" fill="hsl(0.0,100%,20%)">danilchap</text>
<text x="1.582" y="0.632" font-size="0.060486" fill="hsl(0.0,100%,20%)">mbonadei</text>
<text x="1.150" y="0.180" font-size="0.027050" fill="hsl(0.0,100%,20%)">philipel</text>
<text x="1.394" y="0.471" font-size="0.091064" fill="hsl(0.0,100%,20%)">hta</text>
<text x="0.790" y="0.357" font-size="0.064392" fill="hsl(0.0,100%,20%)">perkj</text>
<text x="0.720" y="0.759" font-size="0.038255" fill="hsl(0.0,100%,20%)">terelius</text>
<text x="0.342" y="0.373" font-size="0.027050" fill="hsl(180.0,100%,20%)">ilnik</text>
<text x="1.426" y="0.160" font-size="0.015617" fill="hsl(0.0,100%,20%)">lndmrk</text>
<text x="1.510" y="0.282" font-size="0.022086" fill="hsl(0.0,100%,20%)">asapersson</text>
<text x="1.152" y="0.543" font-size="0.015617" fill="hsl(0.0,100%,20%)">jakobi</text>
<text x="0.685" y="0.925" font-size="0.031235" fill="hsl(180.0,100%,20%)">henrika</text>
<text x="1.002" y="0.957" font-size="0.022086" fill="hsl(180.0,100%,20%)">handellm</text>
<text x="0.511" y="0.193" font-size="0.038255" fill="hsl(180.0,100%,20%)">hbos</text>
<text x="1.313" y="0.602" font-size="0.051797" fill="hsl(0.0,100%,20%)">tommi</text>
<text x="1.076" y="0.707" font-size="0.015617" fill="hsl(0.0,100%,20%)">sergeysu</text>
<text x="1.386" y="0.742" font-size="0.022086" fill="hsl(0.0,100%,20%)">marpan</text>
<text x="0.684" y="0.635" font-size="0.027050" fill="hsl(0.0,100%,20%)">jleconte</text>
<text x="0.525" y="0.389" font-size="0.022086" fill="hsl(0.0,100%,20%)">diepbp</text>
<text x="1.047" y="0.385" font-size="0.022086" fill="hsl(0.0,100%,20%)">sprang</text>
<text x="0.639" y="0.447" font-size="0.022086" fill="hsl(0.0,100%,20%)">jonaso</text>
<text x="0.135" y="0.307" font-size="0.058435" fill="hsl(180.0,100%,20%)">phancke</text>
<text x="0.393" y="0.130" font-size="0.015617" fill="hsl(180.0,100%,20%)">saza</text>
<text x="0.042" y="0.441" font-size="0.015617" fill="hsl(180.0,100%,20%)">orphis</text>
<text x="0.407" y="0.281" font-size="0.015617" fill="hsl(180.0,100%,20%)">fhernqvist</text>
<text x="0.239" y="0.169" font-size="0.015617" fill="hsl(180.0,100%,20%)">ssilkin</text>
<text x="0.308" y="0.533" font-size="0.015617" fill="hsl(180.0,100%,20%)">natashenka</text>
<text x="1.032" y="0.803" font-size="0.015617" fill="hsl(0.0,100%,20%)">alexfh</text>
</svg>
