<svg width="4000" height="2000" viewBox="-0.025 -0.025 2.05 1.05" xmlns="http://www.w3.org/2000/svg">
  <style>
    path {
      fill: none;
      stroke-linecap: round;
      stroke-opacity: 0.4;
    }

    text {
      text-anchor: middle;
      alignment-baseline: hanging;
    }
  </style>
  <g opacity="0.4">
<path d="M1.954 0.363 Q1.528 0.327 1.364 0.527" stroke="hsl(0.0,100%,35%)" stroke-width="0.01925"></path>
<path d="M1.954 0.363 Q1.781 0.334 1.687 0.412" stroke="hsl(0.0,100%,35%)" stroke-width="0.01925"></path>
<path d="M1.954 0.363 Q1.940 0.242 1.700 0.222" stroke="hsl(0.0,100%,35%)" stroke-width="0.06415"></path>
<path d="M1.954 0.363 Q0.812 0.236 0.313 0.764" stroke="hsl(0.0,100%,35%)" stroke-width="0.01925"></path>
<path d="M1.954 0.363 Q1.233 0.236 0.826 0.559" stroke="hsl(0.0,100%,35%)" stroke-width="0.01283"></path>
<path d="M1.954 0.363 Q1.846 0.390 1.875 0.449" stroke="hsl(0.0,100%,35%)" stroke-width="0.00642"></path>
<path d="M1.954 0.363 Q1.722 0.367 1.679 0.480" stroke="hsl(0.0,100%,35%)" stroke-width="0.01283"></path>
<path d="M1.954 0.363 Q1.768 0.289 1.583 0.363" stroke="hsl(0.0,100%,35%)" stroke-width="0.00642"></path>
<path d="M1.364 0.527 Q1.790 0.563 1.954 0.363" stroke="hsl(0.0,100%,35%)" stroke-width="0.00642"></path>
<path d="M1.364 0.527 Q1.776 0.442 1.700 0.222" stroke="hsl(0.0,100%,35%)" stroke-width="0.01283"></path>
<path d="M1.364 0.527 Q1.259 0.372 0.933 0.389" stroke="hsl(0.0,100%,35%)" stroke-width="0.01283"></path>
<path d="M1.364 0.527 Q1.013 0.347 0.586 0.479" stroke="hsl(0.0,100%,35%)" stroke-width="0.00642"></path>
<path d="M1.700 0.222 Q0.573 0.216 0.313 0.764" stroke="hsl(0.0,100%,35%)" stroke-width="0.00642"></path>
<path d="M1.700 0.222 Q1.560 0.204 1.494 0.269" stroke="hsl(0.0,100%,35%)" stroke-width="0.03849"></path>
<path d="M1.700 0.222 Q1.392 0.212 1.304 0.360" stroke="hsl(0.0,100%,35%)" stroke-width="0.00642"></path>
<path d="M1.700 0.222 Q1.288 0.307 1.364 0.527" stroke="hsl(0.0,100%,35%)" stroke-width="0.01925"></path>
<path d="M0.313 0.764 Q0.188 0.815 0.260 0.887" stroke="hsl(0.0,100%,35%)" stroke-width="0.01283"></path>
<path d="M0.313 0.764 Q1.029 0.856 1.364 0.527" stroke="hsl(0.0,100%,35%)" stroke-width="0.01283"></path>
<path d="M0.313 0.764 Q0.508 0.799 0.617 0.711" stroke="hsl(0.0,100%,35%)" stroke-width="0.01283"></path>
<path d="M0.313 0.764 Q1.441 0.771 1.700 0.222" stroke="hsl(0.0,100%,35%)" stroke-width="0.02566"></path>
<path d="M0.313 0.764 Q0.304 0.631 0.043 0.607" stroke="hsl(0.0,100%,35%)" stroke-width="0.01283"></path>
<path d="M0.826 0.559 Q1.121 0.651 1.364 0.527" stroke="hsl(0.0,100%,35%)" stroke-width="0.00642"></path>
<path d="M0.826 0.559 Q0.770 0.471 0.586 0.479" stroke="hsl(0.0,100%,35%)" stroke-width="0.01283"></path>
<path d="M0.826 0.559 Q0.406 0.559 0.313 0.764" stroke="hsl(0.0,100%,35%)" stroke-width="0.00642"></path>
<path d="M0.353 0.638 Q0.375 0.532 0.174 0.498" stroke="hsl(180.0,100%,35%)" stroke-width="0.00642"></path>
<path d="M0.353 0.638 Q0.170 0.629 0.112 0.716" stroke="hsl(180.0,100%,35%)" stroke-width="0.01283"></path>
<path d="M0.353 0.638 Q0.562 0.426 0.195 0.278" stroke="hsl(180.0,100%,35%)" stroke-width="0.00642"></path>
<path d="M1.494 0.269 Q1.635 0.287 1.700 0.222" stroke="hsl(0.0,100%,35%)" stroke-width="0.01925"></path>
<path d="M1.494 0.269 Q1.585 0.153 1.378 0.083" stroke="hsl(0.0,100%,35%)" stroke-width="0.00642"></path>
<path d="M1.494 0.269 Q0.837 0.014 0.195 0.278" stroke="hsl(0.0,100%,35%)" stroke-width="0.00642"></path>
<path d="M0.213 0.166 Q0.114 0.218 0.195 0.278" stroke="hsl(180.0,100%,35%)" stroke-width="0.02566"></path>
<path d="M0.213 0.166 Q0.911 0.491 1.700 0.222" stroke="hsl(180.0,100%,35%)" stroke-width="0.02566"></path>
<path d="M0.213 0.166 Q-0.073 0.324 0.174 0.498" stroke="hsl(180.0,100%,35%)" stroke-width="0.00642"></path>
<path d="M0.213 0.166 Q0.489 0.211 0.638 0.086" stroke="hsl(180.0,100%,35%)" stroke-width="0.00642"></path>
<path d="M0.213 0.166 Q0.210 0.277 0.427 0.303" stroke="hsl(180.0,100%,35%)" stroke-width="0.00642"></path>
<path d="M0.213 0.166 Q0.510 0.287 0.813 0.168" stroke="hsl(180.0,100%,35%)" stroke-width="0.00642"></path>
<path d="M0.213 0.166 Q0.407 0.155 0.428 0.057" stroke="hsl(180.0,100%,35%)" stroke-width="0.00642"></path>
<path d="M0.213 0.166 Q0.343 0.306 0.646 0.273" stroke="hsl(180.0,100%,35%)" stroke-width="0.00642"></path>
</g>
<text x="1.954" y="0.323" font-size="0.080123" fill="hsl(0.0,100%,20%)">danilchap</text>
<text x="1.364" y="0.497" font-size="0.060858" fill="hsl(0.0,100%,20%)">mbonadei</text>
<text x="1.687" y="0.398" font-size="0.027217" fill="hsl(0.0,100%,20%)">philipel</text>
<text x="1.700" y="0.176" font-size="0.091625" fill="hsl(0.0,100%,20%)">hta</text>
<text x="0.313" y="0.732" font-size="0.064788" fill="hsl(0.0,100%,20%)">perkj</text>
<text x="0.826" y="0.540" font-size="0.038490" fill="hsl(0.0,100%,20%)">terelius</text>
<text x="1.875" y="0.441" font-size="0.015713" fill="hsl(0.0,100%,20%)">lndmrk</text>
<text x="1.679" y="0.469" font-size="0.022222" fill="hsl(0.0,100%,20%)">asapersson</text>
<text x="1.583" y="0.355" font-size="0.015713" fill="hsl(0.0,100%,20%)">jakobi</text>
<text x="0.353" y="0.622" font-size="0.031427" fill="hsl(180.0,100%,20%)">henrika</text>
<text x="0.174" y="0.487" font-size="0.022222" fill="hsl(180.0,100%,20%)">ilnik</text>
<text x="0.112" y="0.705" font-size="0.022222" fill="hsl(180.0,100%,20%)">handellm</text>
<text x="0.195" y="0.259" font-size="0.038490" fill="hsl(180.0,100%,20%)">hbos</text>
<text x="1.494" y="0.243" font-size="0.052116" fill="hsl(0.0,100%,20%)">tommi</text>
<text x="1.304" y="0.352" font-size="0.015713" fill="hsl(0.0,100%,20%)">sergeysu</text>
<text x="0.933" y="0.378" font-size="0.022222" fill="hsl(0.0,100%,20%)">marpan</text>
<text x="0.586" y="0.466" font-size="0.027217" fill="hsl(0.0,100%,20%)">jleconte</text>
<text x="0.260" y="0.876" font-size="0.022222" fill="hsl(0.0,100%,20%)">diepbp</text>
<text x="0.617" y="0.700" font-size="0.022222" fill="hsl(0.0,100%,20%)">sprang</text>
<text x="0.043" y="0.596" font-size="0.022222" fill="hsl(0.0,100%,20%)">jonaso</text>
<text x="0.213" y="0.136" font-size="0.058794" fill="hsl(180.0,100%,20%)">phancke</text>
<text x="0.638" y="0.078" font-size="0.015713" fill="hsl(180.0,100%,20%)">saza</text>
<text x="0.427" y="0.295" font-size="0.015713" fill="hsl(180.0,100%,20%)">orphis</text>
<text x="0.813" y="0.161" font-size="0.015713" fill="hsl(180.0,100%,20%)">fhernqvist</text>
<text x="0.428" y="0.049" font-size="0.015713" fill="hsl(180.0,100%,20%)">ssilkin</text>
<text x="0.646" y="0.265" font-size="0.015713" fill="hsl(180.0,100%,20%)">natashenka</text>
<text x="1.378" y="0.075" font-size="0.015713" fill="hsl(0.0,100%,20%)">alexfh</text>
</svg>
