<svg width="4000" height="2000" viewBox="-0.025 -0.025 2.05 1.05" xmlns="http://www.w3.org/2000/svg">
  <style>
    path {
      fill: none;
      stroke-linecap: round;
      stroke-opacity: 0.4;
    }

    text {
      text-anchor: middle;
      alignment-baseline: hanging;
    }
  </style>
  <g opacity="0.4">
<path d="M1.500 0.416 Q1.676 0.430 1.742 0.347" stroke="hsl(0.0,100%,35%)" stroke-width="0.00200"></path>
<path d="M1.500 0.416 Q0.595 0.253 0.079 0.659" stroke="hsl(0.0,100%,35%)" stroke-width="0.00100"></path>
<path d="M1.500 0.416 Q1.067 0.577 1.286 0.823" stroke="hsl(0.0,100%,35%)" stroke-width="0.00100"></path>
<path d="M1.742 0.347 Q1.391 0.370 1.360 0.547" stroke="hsl(0.0,100%,35%)" stroke-width="0.01801"></path>
<path d="M1.742 0.347 Q1.830 0.382 1.917 0.346" stroke="hsl(0.0,100%,35%)" stroke-width="0.00800"></path>
<path d="M1.742 0.347 Q0.661 0.171 0.079 0.659" stroke="hsl(0.0,100%,35%)" stroke-width="0.00500"></path>
<path d="M1.742 0.347 Q0.875 0.146 0.293 0.525" stroke="hsl(0.0,100%,35%)" stroke-width="0.00100"></path>
<path d="M1.742 0.347 Q1.195 0.406 1.190 0.685" stroke="hsl(0.0,100%,35%)" stroke-width="0.00100"></path>
<path d="M1.742 0.347 Q1.384 0.499 1.602 0.707" stroke="hsl(0.0,100%,35%)" stroke-width="0.00100"></path>
<path d="M1.742 0.347 Q1.322 -0.045 0.466 0.074" stroke="hsl(0.0,100%,35%)" stroke-width="0.00200"></path>
<path d="M0.079 0.659 Q0.294 0.635 0.293 0.525" stroke="hsl(120.0,100%,35%)" stroke-width="0.00400"></path>
<path d="M0.079 0.659 Q0.809 0.859 1.360 0.547" stroke="hsl(120.0,100%,35%)" stroke-width="0.00800"></path>
<path d="M0.079 0.659 Q0.185 0.574 0.042 0.504" stroke="hsl(120.0,100%,35%)" stroke-width="0.01500"></path>
<path d="M0.079 0.659 Q0.196 0.611 0.127 0.543" stroke="hsl(120.0,100%,35%)" stroke-width="0.00100"></path>
<path d="M0.079 0.659 Q0.614 0.894 1.190 0.685" stroke="hsl(120.0,100%,35%)" stroke-width="0.00100"></path>
<path d="M0.079 0.659 Q0.121 0.729 0.268 0.724" stroke="hsl(120.0,100%,35%)" stroke-width="0.00200"></path>
<path d="M0.079 0.659 Q0.629 0.599 0.633 0.318" stroke="hsl(120.0,100%,35%)" stroke-width="0.00100"></path>
<path d="M0.079 0.659 Q0.617 0.959 1.321 0.763" stroke="hsl(120.0,100%,35%)" stroke-width="0.00100"></path>
<path d="M0.079 0.659 Q0.442 0.918 1.027 0.799" stroke="hsl(120.0,100%,35%)" stroke-width="0.00100"></path>
<path d="M0.079 0.659 Q1.143 0.620 1.300 0.092" stroke="hsl(120.0,100%,35%)" stroke-width="0.00100"></path>
<path d="M0.079 0.659 Q0.261 0.813 0.601 0.759" stroke="hsl(120.0,100%,35%)" stroke-width="0.00100"></path>
<path d="M1.286 0.823 Q0.856 0.570 0.268 0.724" stroke="hsl(0.0,100%,35%)" stroke-width="0.00600"></path>
<path d="M1.286 0.823 Q1.544 0.700 1.360 0.547" stroke="hsl(0.0,100%,35%)" stroke-width="0.02001"></path>
<path d="M1.286 0.823 Q1.044 0.769 0.886 0.876" stroke="hsl(0.0,100%,35%)" stroke-width="0.00100"></path>
<path d="M1.286 0.823 Q1.895 0.676 1.742 0.347" stroke="hsl(0.0,100%,35%)" stroke-width="0.00100"></path>
<path d="M1.286 0.823 Q1.698 0.386 0.937 0.090" stroke="hsl(0.0,100%,35%)" stroke-width="0.00300"></path>
<path d="M1.286 0.823 Q0.814 0.500 0.079 0.659" stroke="hsl(0.0,100%,35%)" stroke-width="0.00100"></path>
<path d="M1.286 0.823 Q1.349 0.735 1.190 0.685" stroke="hsl(0.0,100%,35%)" stroke-width="0.00400"></path>
<path d="M1.286 0.823 Q1.983 0.711 1.917 0.346" stroke="hsl(0.0,100%,35%)" stroke-width="0.00100"></path>
<path d="M1.286 0.823 Q1.477 0.810 1.494 0.715" stroke="hsl(0.0,100%,35%)" stroke-width="0.00100"></path>
<path d="M1.286 0.823 Q1.878 0.460 1.300 0.092" stroke="hsl(0.0,100%,35%)" stroke-width="0.00100"></path>
<path d="M1.825 0.477 Q1.731 0.572 1.897 0.638" stroke="hsl(0.0,100%,35%)" stroke-width="0.00900"></path>
<path d="M1.825 0.477 Q1.536 0.419 1.360 0.547" stroke="hsl(0.0,100%,35%)" stroke-width="0.00900"></path>
<path d="M1.825 0.477 Q1.416 0.369 1.116 0.544" stroke="hsl(0.0,100%,35%)" stroke-width="0.00100"></path>
<path d="M1.897 0.638 Q1.694 0.614 1.602 0.707" stroke="hsl(0.0,100%,35%)" stroke-width="0.00100"></path>
<path d="M1.897 0.638 Q1.186 0.261 0.293 0.525" stroke="hsl(0.0,100%,35%)" stroke-width="0.00100"></path>
<path d="M1.897 0.638 Q1.702 0.485 1.360 0.547" stroke="hsl(0.0,100%,35%)" stroke-width="0.00300"></path>
<path d="M1.897 0.638 Q1.334 0.545 1.027 0.799" stroke="hsl(0.0,100%,35%)" stroke-width="0.00100"></path>
<path d="M1.360 0.547 Q1.711 0.523 1.742 0.347" stroke="hsl(0.0,100%,35%)" stroke-width="0.00400"></path>
<path d="M1.360 0.547 Q1.102 0.670 1.286 0.823" stroke="hsl(0.0,100%,35%)" stroke-width="0.01400"></path>
<path d="M1.360 0.547 Q0.630 0.347 0.079 0.659" stroke="hsl(0.0,100%,35%)" stroke-width="0.01500"></path>
<path d="M1.360 0.547 Q0.844 0.323 0.293 0.525" stroke="hsl(0.0,100%,35%)" stroke-width="0.00300"></path>
<path d="M1.360 0.547 Q0.832 0.427 0.483 0.658" stroke="hsl(0.0,100%,35%)" stroke-width="0.00100"></path>
<path d="M1.360 0.547 Q1.694 0.308 1.300 0.092" stroke="hsl(0.0,100%,35%)" stroke-width="0.00800"></path>
<path d="M1.360 0.547 Q1.164 0.582 1.190 0.685" stroke="hsl(0.0,100%,35%)" stroke-width="0.00100"></path>
<path d="M1.360 0.547 Q1.648 0.605 1.825 0.477" stroke="hsl(0.0,100%,35%)" stroke-width="0.00200"></path>
<path d="M1.360 0.547 Q0.671 0.417 0.268 0.724" stroke="hsl(0.0,100%,35%)" stroke-width="0.00100"></path>
<path d="M1.360 0.547 Q1.555 0.700 1.897 0.638" stroke="hsl(0.0,100%,35%)" stroke-width="0.00200"></path>
<path d="M1.360 0.547 Q1.293 0.658 1.494 0.715" stroke="hsl(0.0,100%,35%)" stroke-width="0.00100"></path>
<path d="M1.360 0.547 Q0.992 0.606 1.027 0.799" stroke="hsl(0.0,100%,35%)" stroke-width="0.00100"></path>
<path d="M1.360 0.547 Q1.794 0.369 1.543 0.119" stroke="hsl(0.0,100%,35%)" stroke-width="0.00100"></path>
<path d="M1.360 0.547 Q1.168 0.647 1.321 0.763" stroke="hsl(0.0,100%,35%)" stroke-width="0.00100"></path>
<path d="M1.360 0.547 Q0.735 0.262 0.042 0.504" stroke="hsl(0.0,100%,35%)" stroke-width="0.00100"></path>
<path d="M0.235 0.373 Q-0.072 0.485 0.079 0.659" stroke="hsl(0.0,100%,35%)" stroke-width="0.00100"></path>
<path d="M0.235 0.373 Q0.813 0.372 0.937 0.090" stroke="hsl(0.0,100%,35%)" stroke-width="0.00100"></path>
<path d="M0.235 0.373 Q0.034 0.400 0.042 0.504" stroke="hsl(0.0,100%,35%)" stroke-width="0.00100"></path>
<path d="M0.235 0.373 Q0.658 0.685 1.360 0.547" stroke="hsl(0.0,100%,35%)" stroke-width="0.00100"></path>
<path d="M0.937 0.090 Q0.587 0.438 1.190 0.685" stroke="hsl(120.0,100%,35%)" stroke-width="0.00200"></path>
<path d="M0.937 0.090 Q1.116 0.164 1.300 0.092" stroke="hsl(120.0,100%,35%)" stroke-width="0.00100"></path>
<path d="M0.937 0.090 Q0.843 0.225 1.087 0.301" stroke="hsl(120.0,100%,35%)" stroke-width="0.00100"></path>
<path d="M0.937 0.090 Q0.052 0.203 0.079 0.659" stroke="hsl(120.0,100%,35%)" stroke-width="0.00100"></path>
<path d="M0.042 0.504 Q0.053 0.541 0.127 0.543" stroke="hsl(120.0,100%,35%)" stroke-width="0.00100"></path>
<path d="M0.042 0.504 Q0.658 1.065 1.888 0.888" stroke="hsl(120.0,100%,35%)" stroke-width="0.00100"></path>
<path d="M0.042 0.504 Q0.341 0.558 0.513 0.424" stroke="hsl(120.0,100%,35%)" stroke-width="0.00100"></path>
<path d="M0.042 0.504 Q0.486 0.529 0.633 0.318" stroke="hsl(120.0,100%,35%)" stroke-width="0.00100"></path>
<path d="M0.042 0.504 Q0.101 0.611 0.323 0.606" stroke="hsl(120.0,100%,35%)" stroke-width="0.00200"></path>
<path d="M0.042 0.504 Q0.151 0.565 0.293 0.525" stroke="hsl(120.0,100%,35%)" stroke-width="0.00400"></path>
<path d="M0.042 0.504 Q-0.063 0.589 0.079 0.659" stroke="hsl(120.0,100%,35%)" stroke-width="0.00700"></path>
<path d="M0.042 0.504 Q0.666 0.789 1.360 0.547" stroke="hsl(120.0,100%,35%)" stroke-width="0.00300"></path>
<path d="M0.042 0.504 Q-0.022 0.659 0.268 0.724" stroke="hsl(120.0,100%,35%)" stroke-width="0.00100"></path>
<path d="M0.042 0.504 Q0.474 0.889 1.321 0.763" stroke="hsl(120.0,100%,35%)" stroke-width="0.00100"></path>
<path d="M0.042 0.504 Q1.101 0.611 1.543 0.119" stroke="hsl(120.0,100%,35%)" stroke-width="0.00100"></path>
<path d="M0.042 0.504 Q0.582 0.476 0.645 0.206" stroke="hsl(120.0,100%,35%)" stroke-width="0.00100"></path>
<path d="M1.190 0.685 Q0.697 0.520 0.268 0.724" stroke="hsl(120.0,100%,35%)" stroke-width="0.00500"></path>
<path d="M1.190 0.685 Q0.761 0.365 0.042 0.504" stroke="hsl(120.0,100%,35%)" stroke-width="0.00600"></path>
<path d="M1.190 0.685 Q1.539 0.337 0.937 0.090" stroke="hsl(120.0,100%,35%)" stroke-width="0.01901"></path>
<path d="M1.190 0.685 Q0.655 0.450 0.079 0.659" stroke="hsl(120.0,100%,35%)" stroke-width="0.01600"></path>
<path d="M1.190 0.685 Q1.300 0.337 0.645 0.206" stroke="hsl(120.0,100%,35%)" stroke-width="0.00200"></path>
<path d="M1.190 0.685 Q1.385 0.650 1.360 0.547" stroke="hsl(120.0,100%,35%)" stroke-width="0.03601"></path>
<path d="M1.190 0.685 Q1.736 0.626 1.742 0.347" stroke="hsl(120.0,100%,35%)" stroke-width="0.00100"></path>
<path d="M1.190 0.685 Q1.377 0.926 1.888 0.888" stroke="hsl(120.0,100%,35%)" stroke-width="0.00400"></path>
<path d="M1.190 0.685 Q1.266 0.600 1.116 0.544" stroke="hsl(120.0,100%,35%)" stroke-width="0.00400"></path>
<path d="M1.190 0.685 Q1.017 0.709 1.027 0.799" stroke="hsl(120.0,100%,35%)" stroke-width="0.00500"></path>
<path d="M1.190 0.685 Q1.719 0.411 1.300 0.092" stroke="hsl(120.0,100%,35%)" stroke-width="0.00400"></path>
<path d="M1.190 0.685 Q1.401 0.824 1.719 0.752" stroke="hsl(120.0,100%,35%)" stroke-width="0.00100"></path>
<path d="M1.190 0.685 Q1.151 0.480 0.742 0.454" stroke="hsl(120.0,100%,35%)" stroke-width="0.00300"></path>
<path d="M1.190 0.685 Q1.193 0.750 1.321 0.763" stroke="hsl(120.0,100%,35%)" stroke-width="0.00200"></path>
<path d="M1.190 0.685 Q1.056 0.531 0.727 0.563" stroke="hsl(120.0,100%,35%)" stroke-width="0.00200"></path>
<path d="M1.190 0.685 Q1.378 0.778 1.602 0.707" stroke="hsl(120.0,100%,35%)" stroke-width="0.00100"></path>
<path d="M1.190 0.685 Q1.160 0.575 0.939 0.565" stroke="hsl(120.0,100%,35%)" stroke-width="0.00100"></path>
<path d="M1.190 0.685 Q1.205 0.390 0.633 0.318" stroke="hsl(120.0,100%,35%)" stroke-width="0.00600"></path>
<path d="M1.190 0.685 Q0.853 0.542 0.500 0.675" stroke="hsl(120.0,100%,35%)" stroke-width="0.00100"></path>
<path d="M1.190 0.685 Q1.337 0.561 1.128 0.462" stroke="hsl(120.0,100%,35%)" stroke-width="0.00100"></path>
<path d="M1.190 0.685 Q1.060 0.419 0.513 0.424" stroke="hsl(120.0,100%,35%)" stroke-width="0.00300"></path>
<path d="M1.190 0.685 Q1.206 0.590 1.024 0.562" stroke="hsl(120.0,100%,35%)" stroke-width="0.00200"></path>
<path d="M1.190 0.685 Q1.128 0.773 1.286 0.823" stroke="hsl(120.0,100%,35%)" stroke-width="0.00200"></path>
<path d="M0.268 0.724 Q0.226 0.654 0.079 0.659" stroke="hsl(120.0,100%,35%)" stroke-width="0.01100"></path>
<path d="M0.268 0.724 Q0.630 0.623 0.513 0.424" stroke="hsl(120.0,100%,35%)" stroke-width="0.00200"></path>
<path d="M0.268 0.724 Q0.956 0.854 1.360 0.547" stroke="hsl(120.0,100%,35%)" stroke-width="0.00200"></path>
<path d="M0.268 0.724 Q1.290 0.615 1.300 0.092" stroke="hsl(120.0,100%,35%)" stroke-width="0.00200"></path>
<path d="M0.268 0.724 Q0.331 0.569 0.042 0.504" stroke="hsl(120.0,100%,35%)" stroke-width="0.00300"></path>
<path d="M0.645 0.206 Q0.661 0.105 0.466 0.074" stroke="hsl(240.0,100%,35%)" stroke-width="0.00900"></path>
<path d="M0.645 0.206 Q0.401 0.401 0.727 0.563" stroke="hsl(240.0,100%,35%)" stroke-width="0.00400"></path>
<path d="M0.645 0.206 Q1.081 0.496 1.742 0.347" stroke="hsl(240.0,100%,35%)" stroke-width="0.00200"></path>
<path d="M0.645 0.206 Q0.522 0.138 0.361 0.183" stroke="hsl(240.0,100%,35%)" stroke-width="0.00400"></path>
<path d="M0.645 0.206 Q0.000 0.320 0.079 0.659" stroke="hsl(240.0,100%,35%)" stroke-width="0.00100"></path>
<path d="M1.888 0.888 Q1.773 0.879 1.731 0.933" stroke="hsl(120.0,100%,35%)" stroke-width="0.00800"></path>
<path d="M1.888 0.888 Q1.756 0.889 1.730 0.953" stroke="hsl(120.0,100%,35%)" stroke-width="0.00300"></path>
<path d="M1.888 0.888 Q1.777 0.561 1.116 0.544" stroke="hsl(120.0,100%,35%)" stroke-width="0.00100"></path>
<path d="M1.888 0.888 Q1.811 0.299 0.645 0.206" stroke="hsl(120.0,100%,35%)" stroke-width="0.00100"></path>
<path d="M1.888 0.888 Q1.750 0.888 1.721 0.956" stroke="hsl(120.0,100%,35%)" stroke-width="0.00100"></path>
<path d="M1.888 0.888 Q1.166 0.412 0.079 0.659" stroke="hsl(120.0,100%,35%)" stroke-width="0.00100"></path>
<path d="M1.300 0.092 Q0.966 0.331 1.360 0.547" stroke="hsl(0.0,100%,35%)" stroke-width="0.02701"></path>
<path d="M1.300 0.092 Q0.786 0.072 0.633 0.318" stroke="hsl(0.0,100%,35%)" stroke-width="0.01100"></path>
<path d="M1.300 0.092 Q1.317 0.308 1.742 0.347" stroke="hsl(0.0,100%,35%)" stroke-width="0.00300"></path>
<path d="M1.300 0.092 Q0.236 0.132 0.079 0.659" stroke="hsl(0.0,100%,35%)" stroke-width="0.00500"></path>
<path d="M1.300 0.092 Q1.400 0.154 1.543 0.119" stroke="hsl(0.0,100%,35%)" stroke-width="0.01100"></path>
<path d="M1.300 0.092 Q1.231 0.177 1.382 0.229" stroke="hsl(0.0,100%,35%)" stroke-width="0.01100"></path>
<path d="M1.300 0.092 Q0.771 0.366 1.190 0.685" stroke="hsl(0.0,100%,35%)" stroke-width="0.00200"></path>
<path d="M1.300 0.092 Q1.120 0.018 0.937 0.090" stroke="hsl(0.0,100%,35%)" stroke-width="0.00100"></path>
<path d="M1.300 0.092 Q0.278 0.202 0.268 0.724" stroke="hsl(0.0,100%,35%)" stroke-width="0.00200"></path>
<path d="M1.321 0.763 Q1.513 0.662 1.360 0.547" stroke="hsl(0.0,100%,35%)" stroke-width="0.00600"></path>
<path d="M1.321 0.763 Q1.170 0.853 1.313 0.946" stroke="hsl(0.0,100%,35%)" stroke-width="0.00100"></path>
<path d="M1.321 0.763 Q0.783 0.463 0.079 0.659" stroke="hsl(0.0,100%,35%)" stroke-width="0.00200"></path>
<path d="M1.321 0.763 Q1.446 0.773 1.494 0.715" stroke="hsl(0.0,100%,35%)" stroke-width="0.00100"></path>
<path d="M1.321 0.763 Q0.825 0.533 0.268 0.724" stroke="hsl(0.0,100%,35%)" stroke-width="0.00100"></path>
<path d="M0.727 0.563 Q0.731 0.451 0.513 0.424" stroke="hsl(240.0,100%,35%)" stroke-width="0.00100"></path>
<path d="M0.727 0.563 Q0.987 0.266 0.466 0.074" stroke="hsl(240.0,100%,35%)" stroke-width="0.00100"></path>
<path d="M0.727 0.563 Q0.971 0.368 0.645 0.206" stroke="hsl(240.0,100%,35%)" stroke-width="0.00200"></path>
<path d="M0.633 0.318 Q0.618 0.613 1.190 0.685" stroke="hsl(120.0,100%,35%)" stroke-width="0.00100"></path>
<path d="M0.633 0.318 Q1.147 0.338 1.300 0.092" stroke="hsl(120.0,100%,35%)" stroke-width="0.00100"></path>
<path d="M0.633 0.318 Q0.488 0.347 0.513 0.424" stroke="hsl(120.0,100%,35%)" stroke-width="0.00300"></path>
<path d="M0.633 0.318 Q0.968 0.264 0.937 0.090" stroke="hsl(120.0,100%,35%)" stroke-width="0.00100"></path>
<path d="M0.513 0.424 Q0.658 0.395 0.633 0.318" stroke="hsl(120.0,100%,35%)" stroke-width="0.01200"></path>
<path d="M0.513 0.424 Q0.604 0.485 0.742 0.454" stroke="hsl(120.0,100%,35%)" stroke-width="0.00400"></path>
<path d="M0.513 0.424 Q0.214 0.370 0.042 0.504" stroke="hsl(120.0,100%,35%)" stroke-width="0.00100"></path>
<path d="M0.513 0.424 Q0.899 0.477 1.087 0.301" stroke="hsl(120.0,100%,35%)" stroke-width="0.00100"></path>
<path d="M0.513 0.424 Q0.306 0.547 0.500 0.675" stroke="hsl(120.0,100%,35%)" stroke-width="0.00300"></path>
<path d="M0.513 0.424 Q0.108 0.455 0.079 0.659" stroke="hsl(120.0,100%,35%)" stroke-width="0.00700"></path>
<path d="M0.513 0.424 Q0.838 0.655 1.360 0.547" stroke="hsl(120.0,100%,35%)" stroke-width="0.00100"></path>
<path d="M0.513 0.424 Q0.992 0.342 0.937 0.090" stroke="hsl(120.0,100%,35%)" stroke-width="0.00200"></path>
<path d="M0.513 0.424 Q0.402 0.475 0.477 0.540" stroke="hsl(120.0,100%,35%)" stroke-width="0.00100"></path>
<path d="M0.513 0.424 Q0.339 0.495 0.438 0.595" stroke="hsl(120.0,100%,35%)" stroke-width="0.00100"></path>
<path d="M0.513 0.424 Q0.509 0.536 0.727 0.563" stroke="hsl(120.0,100%,35%)" stroke-width="0.00100"></path>
<path d="M0.513 0.424 Q0.643 0.690 1.190 0.685" stroke="hsl(120.0,100%,35%)" stroke-width="0.00100"></path>
<path d="M1.511 0.855 Q1.314 0.730 1.027 0.799" stroke="hsl(120.0,100%,35%)" stroke-width="0.00300"></path>
<path d="M1.511 0.855 Q1.486 0.705 1.190 0.685" stroke="hsl(120.0,100%,35%)" stroke-width="0.00200"></path>
<path d="M1.511 0.855 Q0.952 0.471 0.079 0.659" stroke="hsl(120.0,100%,35%)" stroke-width="0.00400"></path>
<path d="M1.511 0.855 Q1.682 0.670 1.360 0.547" stroke="hsl(120.0,100%,35%)" stroke-width="0.00500"></path>
<path d="M1.511 0.855 Q1.742 0.493 1.087 0.301" stroke="hsl(120.0,100%,35%)" stroke-width="0.00100"></path>
<path d="M1.511 0.855 Q1.446 0.865 1.451 0.899" stroke="hsl(120.0,100%,35%)" stroke-width="0.00100"></path>
<path d="M1.511 0.855 Q1.587 0.886 1.666 0.856" stroke="hsl(120.0,100%,35%)" stroke-width="0.00100"></path>
<path d="M0.531 0.481 Q0.279 0.432 0.127 0.543" stroke="hsl(120.0,100%,35%)" stroke-width="0.00100"></path>
<path d="M0.531 0.481 Q0.567 0.449 0.513 0.424" stroke="hsl(120.0,100%,35%)" stroke-width="0.00200"></path>
<path d="M0.531 0.481 Q0.884 0.956 1.888 0.888" stroke="hsl(120.0,100%,35%)" stroke-width="0.00100"></path>
<path d="M0.531 0.481 Q0.712 0.420 0.633 0.318" stroke="hsl(120.0,100%,35%)" stroke-width="0.00100"></path>
<path d="M0.801 0.745 Q0.911 0.639 0.727 0.563" stroke="hsl(240.0,100%,35%)" stroke-width="0.00700"></path>
<path d="M0.801 0.745 Q1.031 0.376 0.361 0.183" stroke="hsl(240.0,100%,35%)" stroke-width="0.00300"></path>
<path d="M0.801 0.745 Q1.573 0.518 1.300 0.092" stroke="hsl(240.0,100%,35%)" stroke-width="0.00100"></path>
<path d="M0.466 0.074 Q0.206 0.371 0.727 0.563" stroke="hsl(240.0,100%,35%)" stroke-width="0.00300"></path>
<path d="M0.466 0.074 Q0.869 0.250 1.300 0.092" stroke="hsl(240.0,100%,35%)" stroke-width="0.00100"></path>
<path d="M0.466 0.074 Q0.886 0.466 1.742 0.347" stroke="hsl(240.0,100%,35%)" stroke-width="0.00100"></path>
<path d="M0.466 0.074 Q0.355 0.230 0.633 0.318" stroke="hsl(240.0,100%,35%)" stroke-width="0.00200"></path>
<path d="M0.466 0.074 Q0.535 0.489 1.360 0.547" stroke="hsl(240.0,100%,35%)" stroke-width="0.00500"></path>
<path d="M0.466 0.074 Q-0.195 0.289 0.079 0.659" stroke="hsl(240.0,100%,35%)" stroke-width="0.00300"></path>
<path d="M0.466 0.074 Q0.595 0.312 1.087 0.301" stroke="hsl(240.0,100%,35%)" stroke-width="0.00100"></path>
<path d="M0.466 0.074 Q-0.153 0.360 0.268 0.724" stroke="hsl(240.0,100%,35%)" stroke-width="0.00100"></path>
<path d="M0.293 0.525 Q0.079 0.549 0.079 0.659" stroke="hsl(120.0,100%,35%)" stroke-width="0.00600"></path>
<path d="M0.293 0.525 Q0.185 0.464 0.042 0.504" stroke="hsl(120.0,100%,35%)" stroke-width="0.00900"></path>
<path d="M0.293 0.525 Q0.809 0.749 1.360 0.547" stroke="hsl(120.0,100%,35%)" stroke-width="0.00100"></path>
<path d="M1.002 0.418 Q1.139 0.377 1.087 0.301" stroke="hsl(0.0,100%,35%)" stroke-width="0.00200"></path>
<path d="M1.002 0.418 Q1.078 0.554 1.360 0.547" stroke="hsl(0.0,100%,35%)" stroke-width="0.00500"></path>
<path d="M1.002 0.418 Q0.842 0.749 1.451 0.899" stroke="hsl(0.0,100%,35%)" stroke-width="0.00100"></path>
<path d="M0.483 0.658 Q1.002 1.054 1.888 0.888" stroke="hsl(120.0,100%,35%)" stroke-width="0.00100"></path>
<path d="M0.483 0.658 Q0.281 0.578 0.079 0.659" stroke="hsl(120.0,100%,35%)" stroke-width="0.00200"></path>
<path d="M0.483 0.658 Q0.399 0.681 0.426 0.727" stroke="hsl(120.0,100%,35%)" stroke-width="0.00100"></path>
<path d="M0.483 0.658 Q1.010 0.778 1.360 0.547" stroke="hsl(120.0,100%,35%)" stroke-width="0.00100"></path>
<path d="M1.494 0.715 Q1.235 0.373 0.513 0.424" stroke="hsl(0.0,100%,35%)" stroke-width="0.00400"></path>
<path d="M1.494 0.715 Q1.561 0.604 1.360 0.547" stroke="hsl(0.0,100%,35%)" stroke-width="0.05402"></path>
<path d="M1.494 0.715 Q1.577 0.778 1.719 0.752" stroke="hsl(0.0,100%,35%)" stroke-width="0.00400"></path>
<path d="M1.494 0.715 Q1.381 0.344 0.633 0.318" stroke="hsl(0.0,100%,35%)" stroke-width="0.00100"></path>
<path d="M1.494 0.715 Q1.232 0.485 0.727 0.563" stroke="hsl(0.0,100%,35%)" stroke-width="0.00400"></path>
<path d="M1.494 0.715 Q1.756 0.757 1.897 0.638" stroke="hsl(0.0,100%,35%)" stroke-width="0.02301"></path>
<path d="M1.494 0.715 Q1.366 0.639 1.190 0.685" stroke="hsl(0.0,100%,35%)" stroke-width="0.00500"></path>
<path d="M1.494 0.715 Q1.912 0.580 1.742 0.347" stroke="hsl(0.0,100%,35%)" stroke-width="0.01901"></path>
<path d="M1.494 0.715 Q0.831 0.404 0.079 0.659" stroke="hsl(0.0,100%,35%)" stroke-width="0.00400"></path>
<path d="M1.494 0.715 Q1.534 0.772 1.655 0.765" stroke="hsl(0.0,100%,35%)" stroke-width="0.00100"></path>
<path d="M1.494 0.715 Q1.683 0.691 1.678 0.593" stroke="hsl(0.0,100%,35%)" stroke-width="0.00100"></path>
<path d="M1.494 0.715 Q1.441 0.554 1.116 0.544" stroke="hsl(0.0,100%,35%)" stroke-width="0.00100"></path>
<path d="M1.494 0.715 Q1.325 0.798 1.451 0.899" stroke="hsl(0.0,100%,35%)" stroke-width="0.00100"></path>
<path d="M1.494 0.715 Q1.485 0.468 1.002 0.418" stroke="hsl(0.0,100%,35%)" stroke-width="0.00300"></path>
<path d="M1.494 0.715 Q1.895 0.365 1.300 0.092" stroke="hsl(0.0,100%,35%)" stroke-width="0.00100"></path>
<path d="M1.494 0.715 Q1.218 0.794 1.313 0.946" stroke="hsl(0.0,100%,35%)" stroke-width="0.00100"></path>
<path d="M1.494 0.715 Q1.702 0.702 1.724 0.598" stroke="hsl(0.0,100%,35%)" stroke-width="0.00100"></path>
<path d="M1.494 0.715 Q1.369 0.704 1.321 0.763" stroke="hsl(0.0,100%,35%)" stroke-width="0.00100"></path>
<path d="M1.494 0.715 Q1.193 0.663 1.027 0.799" stroke="hsl(0.0,100%,35%)" stroke-width="0.00100"></path>
<path d="M1.494 0.715 Q1.303 0.727 1.286 0.823" stroke="hsl(0.0,100%,35%)" stroke-width="0.00100"></path>
<path d="M1.730 0.953 Q1.750 0.626 1.116 0.544" stroke="hsl(120.0,100%,35%)" stroke-width="0.00200"></path>
<path d="M1.730 0.953 Q1.861 0.952 1.888 0.888" stroke="hsl(120.0,100%,35%)" stroke-width="0.00300"></path>
<path d="M1.730 0.953 Q2.221 0.652 1.742 0.347" stroke="hsl(120.0,100%,35%)" stroke-width="0.00100"></path>
<path d="M0.666 0.112 Q0.819 0.155 0.937 0.090" stroke="hsl(120.0,100%,35%)" stroke-width="0.00300"></path>
<path d="M0.666 0.112 Q-0.065 0.268 0.079 0.659" stroke="hsl(120.0,100%,35%)" stroke-width="0.00100"></path>
<path d="M0.666 0.112 Q0.339 0.237 0.513 0.424" stroke="hsl(120.0,100%,35%)" stroke-width="0.00100"></path>
<path d="M0.666 0.112 Q0.469 0.503 1.190 0.685" stroke="hsl(120.0,100%,35%)" stroke-width="0.00200"></path>
<path d="M1.085 0.485 Q1.172 0.571 1.360 0.547" stroke="hsl(0.0,100%,35%)" stroke-width="0.00400"></path>
<path d="M1.085 0.485 Q1.523 0.547 1.742 0.347" stroke="hsl(0.0,100%,35%)" stroke-width="0.00100"></path>
<path d="M1.085 0.485 Q0.992 0.311 0.633 0.318" stroke="hsl(0.0,100%,35%)" stroke-width="0.00100"></path>
<path d="M0.323 0.606 Q0.159 0.584 0.079 0.659" stroke="hsl(120.0,100%,35%)" stroke-width="0.00300"></path>
<path d="M0.323 0.606 Q0.889 0.784 1.360 0.547" stroke="hsl(120.0,100%,35%)" stroke-width="0.00100"></path>
<path d="M0.323 0.606 Q0.521 0.843 1.027 0.799" stroke="hsl(120.0,100%,35%)" stroke-width="0.00200"></path>
<path d="M1.409 0.866 Q1.632 0.973 1.888 0.888" stroke="hsl(120.0,100%,35%)" stroke-width="0.00100"></path>
<path d="M1.409 0.866 Q1.640 0.697 1.360 0.547" stroke="hsl(120.0,100%,35%)" stroke-width="0.00100"></path>
<path d="M1.409 0.866 Q1.445 0.732 1.190 0.685" stroke="hsl(120.0,100%,35%)" stroke-width="0.00100"></path>
<path d="M1.645 0.558 Q1.707 0.649 1.897 0.638" stroke="hsl(0.0,100%,35%)" stroke-width="0.00100"></path>
<path d="M1.645 0.558 Q1.504 0.624 1.602 0.707" stroke="hsl(0.0,100%,35%)" stroke-width="0.00100"></path>
<path d="M1.645 0.558 Q0.782 0.296 0.079 0.659" stroke="hsl(0.0,100%,35%)" stroke-width="0.00100"></path>
<path d="M0.552 0.860 Q0.658 0.820 0.601 0.759" stroke="hsl(120.0,100%,35%)" stroke-width="0.00400"></path>
<path d="M0.552 0.860 Q0.881 0.635 0.513 0.424" stroke="hsl(120.0,100%,35%)" stroke-width="0.00300"></path>
<path d="M0.552 0.860 Q0.574 0.937 0.729 0.943" stroke="hsl(120.0,100%,35%)" stroke-width="0.00300"></path>
<path d="M0.620 0.434 Q0.574 0.407 0.513 0.424" stroke="hsl(120.0,100%,35%)" stroke-width="0.00300"></path>
<path d="M0.620 0.434 Q0.719 0.379 0.633 0.318" stroke="hsl(120.0,100%,35%)" stroke-width="0.00300"></path>
<path d="M0.620 0.434 Q1.053 0.325 0.937 0.090" stroke="hsl(120.0,100%,35%)" stroke-width="0.00300"></path>
<path d="M1.451 0.321 Q1.224 0.416 1.360 0.547" stroke="hsl(240.0,100%,35%)" stroke-width="0.00200"></path>
<path d="M1.451 0.321 Q1.575 0.392 1.742 0.347" stroke="hsl(240.0,100%,35%)" stroke-width="0.00200"></path>
<path d="M1.451 0.321 Q1.155 0.001 0.466 0.074" stroke="hsl(240.0,100%,35%)" stroke-width="0.00200"></path>
</g>
<text x="1.500" y="0.411" font-size="0.009963" fill="hsl(0.0,100%,20%)">aheggestad</text>
<text x="1.742" y="0.326" font-size="0.042561" fill="hsl(0.0,100%,20%)">hbos</text>
<text x="0.079" y="0.630" font-size="0.057663" fill="hsl(120.0,100%,20%)">mbonadei</text>
<text x="1.286" y="0.804" font-size="0.037608" fill="hsl(0.0,100%,20%)">tommi</text>
<text x="1.825" y="0.465" font-size="0.022827" fill="hsl(0.0,100%,20%)">boivie</text>
<text x="1.897" y="0.622" font-size="0.031896" fill="hsl(0.0,100%,20%)">orphis</text>
<text x="1.360" y="0.506" font-size="0.081700" fill="hsl(0.0,100%,20%)">hta</text>
<text x="1.116" y="0.536" font-size="0.014944" fill="hsl(120.0,100%,20%)">saza</text>
<text x="0.235" y="0.368" font-size="0.009963" fill="hsl(0.0,100%,20%)">daniel.l</text>
<text x="0.937" y="0.074" font-size="0.030707" fill="hsl(120.0,100%,20%)">philipel</text>
<text x="0.042" y="0.484" font-size="0.038585" fill="hsl(120.0,100%,20%)">jleconte</text>
<text x="1.190" y="0.654" font-size="0.061009" fill="hsl(120.0,100%,20%)">danilchap</text>
<text x="0.268" y="0.709" font-size="0.031109" fill="hsl(120.0,100%,20%)">terelius</text>
<text x="0.645" y="0.194" font-size="0.025400" fill="hsl(240.0,100%,20%)">henrika</text>
<text x="1.888" y="0.875" font-size="0.025400" fill="hsl(120.0,100%,20%)">jakobi</text>
<text x="1.027" y="0.789" font-size="0.018639" fill="hsl(120.0,100%,20%)">titovartem</text>
<text x="1.300" y="0.068" font-size="0.048296" fill="hsl(0.0,100%,20%)">perkj</text>
<text x="1.719" y="0.746" font-size="0.011139" fill="hsl(0.0,100%,20%)">kron</text>
<text x="0.742" y="0.447" font-size="0.013179" fill="hsl(120.0,100%,20%)">asapersson</text>
<text x="1.321" y="0.752" font-size="0.020539" fill="hsl(0.0,100%,20%)">lndmrk</text>
<text x="0.727" y="0.550" font-size="0.024907" fill="hsl(240.0,100%,20%)">ilnik</text>
<text x="1.602" y="0.702" font-size="0.009963" fill="hsl(0.0,100%,20%)">peterhanspers</text>
<text x="0.939" y="0.563" font-size="0.004981" fill="hsl(120.0,100%,20%)">chxg</text>
<text x="0.633" y="0.301" font-size="0.033416" fill="hsl(120.0,100%,20%)">sprang</text>
<text x="0.500" y="0.670" font-size="0.009963" fill="hsl(120.0,100%,20%)">brandtr</text>
<text x="1.128" y="0.460" font-size="0.004981" fill="hsl(120.0,100%,20%)">yinwa</text>
<text x="0.513" y="0.405" font-size="0.037937" fill="hsl(120.0,100%,20%)">ssilkin</text>
<text x="1.024" y="0.558" font-size="0.007045" fill="hsl(120.0,100%,20%)">kthelgason</text>
<text x="1.511" y="0.844" font-size="0.020539" fill="hsl(120.0,100%,20%)">dorhen</text>
<text x="1.087" y="0.295" font-size="0.012202" fill="hsl(0.0,100%,20%)">stefan</text>
<text x="1.451" y="0.895" font-size="0.008628" fill="hsl(0.0,100%,20%)">guidou</text>
<text x="1.666" y="0.854" font-size="0.004981" fill="hsl(120.0,100%,20%)">gustaf</text>
<text x="0.531" y="0.475" font-size="0.011139" fill="hsl(120.0,100%,20%)">dwtan</text>
<text x="0.127" y="0.539" font-size="0.008628" fill="hsl(120.0,100%,20%)">marpan</text>
<text x="0.801" y="0.737" font-size="0.016521" fill="hsl(240.0,100%,20%)">grulja</text>
<text x="0.361" y="0.176" font-size="0.013179" fill="hsl(240.0,100%,20%)">alcooper</text>
<text x="0.466" y="0.060" font-size="0.027735" fill="hsl(240.0,100%,20%)">handellm</text>
<text x="1.917" y="0.339" font-size="0.014944" fill="hsl(0.0,100%,20%)">eshr</text>
<text x="0.293" y="0.512" font-size="0.026825" fill="hsl(120.0,100%,20%)">jansson</text>
<text x="1.002" y="0.410" font-size="0.016521" fill="hsl(0.0,100%,20%)">herre</text>
<text x="0.483" y="0.652" font-size="0.012202" fill="hsl(120.0,100%,20%)">sergeysu</text>
<text x="1.494" y="0.686" font-size="0.057663" fill="hsl(0.0,100%,20%)">phancke</text>
<text x="1.543" y="0.110" font-size="0.017961" fill="hsl(0.0,100%,20%)">jonaso</text>
<text x="1.731" y="0.926" font-size="0.014089" fill="hsl(120.0,100%,20%)">henrik.lundin</text>
<text x="1.730" y="0.946" font-size="0.014944" fill="hsl(120.0,100%,20%)">tomasl</text>
<text x="1.721" y="0.953" font-size="0.004981" fill="hsl(120.0,100%,20%)">hlundin</text>
<text x="0.666" y="0.105" font-size="0.013179" fill="hsl(120.0,100%,20%)">jianjun.zhu</text>
<text x="1.085" y="0.479" font-size="0.012202" fill="hsl(0.0,100%,20%)">jianlin.qiu</text>
<text x="0.323" y="0.599" font-size="0.014089" fill="hsl(120.0,100%,20%)">manashi</text>
<text x="1.409" y="0.862" font-size="0.008628" fill="hsl(120.0,100%,20%)">joachimr</text>
<text x="1.645" y="0.554" font-size="0.008628" fill="hsl(0.0,100%,20%)">karim</text>
<text x="1.313" y="0.943" font-size="0.007045" fill="hsl(0.0,100%,20%)">deadbeef</text>
<text x="0.552" y="0.853" font-size="0.015752" fill="hsl(120.0,100%,20%)">lnilsson</text>
<text x="0.601" y="0.753" font-size="0.011139" fill="hsl(120.0,100%,20%)">xalep</text>
<text x="0.729" y="0.939" font-size="0.008628" fill="hsl(120.0,100%,20%)">ranvr</text>
<text x="1.382" y="0.221" font-size="0.016521" fill="hsl(0.0,100%,20%)">diepbp</text>
<text x="1.655" y="0.762" font-size="0.004981" fill="hsl(0.0,100%,20%)">fhernqvist</text>
<text x="1.678" y="0.591" font-size="0.004981" fill="hsl(0.0,100%,20%)">natashenka</text>
<text x="1.724" y="0.595" font-size="0.004981" fill="hsl(0.0,100%,20%)">davidben</text>
<text x="0.620" y="0.426" font-size="0.014944" fill="hsl(120.0,100%,20%)">qiujiao.wu</text>
<text x="0.426" y="0.725" font-size="0.004981" fill="hsl(120.0,100%,20%)">peah</text>
<text x="0.477" y="0.538" font-size="0.004981" fill="hsl(120.0,100%,20%)">jianj</text>
<text x="0.438" y="0.593" font-size="0.004981" fill="hsl(120.0,100%,20%)">mhoro</text>
<text x="0.886" y="0.873" font-size="0.004981" fill="hsl(0.0,100%,20%)">alexfh</text>
<text x="1.451" y="0.315" font-size="0.012202" fill="hsl(240.0,100%,20%)">zhaoliang.ma</text>
</svg>
