<svg width="4000" height="2000" viewBox="-0.025 -0.025 2.05 1.05" xmlns="http://www.w3.org/2000/svg">
  <style>
    path {
      fill: none;
      stroke-linecap: round;
      stroke-opacity: 0.4;
    }

    text {
      text-anchor: middle;
      alignment-baseline: hanging;
    }
  </style>
  <g opacity="0.4">
<path d="M1.237 0.590 Q0.997 0.531 0.829 0.635" stroke="hsl(0.0,100%,35%)" stroke-width="0.00344"></path>
<path d="M1.237 0.590 Q0.806 0.617 0.765 0.833" stroke="hsl(0.0,100%,35%)" stroke-width="0.00172"></path>
<path d="M1.237 0.590 Q1.224 0.483 1.014 0.467" stroke="hsl(0.0,100%,35%)" stroke-width="0.00172"></path>
<path d="M0.829 0.635 Q0.517 0.649 0.476 0.804" stroke="hsl(0.0,100%,35%)" stroke-width="0.02923"></path>
<path d="M0.829 0.635 Q0.947 0.606 0.916 0.542" stroke="hsl(0.0,100%,35%)" stroke-width="0.01375"></path>
<path d="M0.829 0.635 Q0.638 0.721 0.765 0.833" stroke="hsl(0.0,100%,35%)" stroke-width="0.00860"></path>
<path d="M0.829 0.635 Q0.803 0.695 0.916 0.721" stroke="hsl(0.0,100%,35%)" stroke-width="0.00172"></path>
<path d="M0.829 0.635 Q0.416 0.707 0.466 0.924" stroke="hsl(0.0,100%,35%)" stroke-width="0.00172"></path>
<path d="M0.829 0.635 Q1.239 0.322 0.718 0.053" stroke="hsl(0.0,100%,35%)" stroke-width="0.00172"></path>
<path d="M0.829 0.635 Q1.610 0.545 1.606 0.144" stroke="hsl(0.0,100%,35%)" stroke-width="0.00344"></path>
<path d="M0.765 0.833 Q0.930 0.808 0.916 0.721" stroke="hsl(180.0,100%,35%)" stroke-width="0.00516"></path>
<path d="M0.765 0.833 Q0.644 0.761 0.476 0.804" stroke="hsl(180.0,100%,35%)" stroke-width="0.00688"></path>
<path d="M0.765 0.833 Q1.101 0.410 0.349 0.153" stroke="hsl(180.0,100%,35%)" stroke-width="0.00688"></path>
<path d="M0.765 0.833 Q1.280 0.896 1.515 0.658" stroke="hsl(180.0,100%,35%)" stroke-width="0.00172"></path>
<path d="M0.765 0.833 Q0.543 0.819 0.466 0.924" stroke="hsl(180.0,100%,35%)" stroke-width="0.00172"></path>
<path d="M0.765 0.833 Q1.103 0.586 0.694 0.367" stroke="hsl(180.0,100%,35%)" stroke-width="0.00172"></path>
<path d="M1.014 0.467 Q0.934 0.353 0.694 0.367" stroke="hsl(0.0,100%,35%)" stroke-width="0.01031"></path>
<path d="M1.014 0.467 Q0.475 0.528 0.476 0.804" stroke="hsl(0.0,100%,35%)" stroke-width="0.02407"></path>
<path d="M1.014 0.467 Q1.065 0.394 0.933 0.353" stroke="hsl(0.0,100%,35%)" stroke-width="0.00172"></path>
<path d="M1.014 0.467 Q0.787 0.514 0.829 0.635" stroke="hsl(0.0,100%,35%)" stroke-width="0.00172"></path>
<path d="M1.014 0.467 Q0.792 0.606 1.015 0.745" stroke="hsl(0.0,100%,35%)" stroke-width="0.00172"></path>
<path d="M0.656 0.681 Q0.369 0.577 0.104 0.694" stroke="hsl(0.0,100%,35%)" stroke-width="0.00172"></path>
<path d="M0.656 0.681 Q0.467 0.706 0.476 0.804" stroke="hsl(0.0,100%,35%)" stroke-width="0.01031"></path>
<path d="M0.656 0.681 Q0.575 0.847 0.881 0.923" stroke="hsl(0.0,100%,35%)" stroke-width="0.00172"></path>
<path d="M0.104 0.694 Q0.924 0.496 0.718 0.053" stroke="hsl(0.0,100%,35%)" stroke-width="0.00172"></path>
<path d="M0.104 0.694 Q0.488 0.870 0.916 0.721" stroke="hsl(0.0,100%,35%)" stroke-width="0.00172"></path>
<path d="M0.104 0.694 Q0.202 0.823 0.476 0.804" stroke="hsl(0.0,100%,35%)" stroke-width="0.00172"></path>
<path d="M0.476 0.804 Q0.788 0.790 0.829 0.635" stroke="hsl(0.0,100%,35%)" stroke-width="0.00516"></path>
<path d="M0.476 0.804 Q1.015 0.743 1.014 0.467" stroke="hsl(0.0,100%,35%)" stroke-width="0.01203"></path>
<path d="M0.476 0.804 Q0.597 0.877 0.765 0.833" stroke="hsl(0.0,100%,35%)" stroke-width="0.01375"></path>
<path d="M0.476 0.804 Q0.762 0.851 0.916 0.721" stroke="hsl(0.0,100%,35%)" stroke-width="0.00516"></path>
<path d="M0.476 0.804 Q0.647 0.758 0.593 0.664" stroke="hsl(0.0,100%,35%)" stroke-width="0.00172"></path>
<path d="M0.476 0.804 Q1.163 0.654 1.022 0.286" stroke="hsl(0.0,100%,35%)" stroke-width="0.01031"></path>
<path d="M0.476 0.804 Q0.375 0.862 0.466 0.924" stroke="hsl(0.0,100%,35%)" stroke-width="0.00172"></path>
<path d="M0.476 0.804 Q0.378 0.675 0.104 0.694" stroke="hsl(0.0,100%,35%)" stroke-width="0.00172"></path>
<path d="M0.690 0.689 Q0.612 0.776 0.765 0.833" stroke="hsl(180.0,100%,35%)" stroke-width="0.00172"></path>
<path d="M0.690 0.689 Q0.948 0.353 0.349 0.153" stroke="hsl(180.0,100%,35%)" stroke-width="0.00172"></path>
<path d="M0.690 0.689 Q0.491 0.703 0.476 0.804" stroke="hsl(180.0,100%,35%)" stroke-width="0.00172"></path>
<path d="M0.349 0.153 Q0.528 0.639 1.515 0.658" stroke="hsl(180.0,100%,35%)" stroke-width="0.00172"></path>
<path d="M0.349 0.153 Q-0.001 0.258 0.127 0.452" stroke="hsl(180.0,100%,35%)" stroke-width="0.00172"></path>
<path d="M0.349 0.153 Q0.653 0.505 1.405 0.433" stroke="hsl(180.0,100%,35%)" stroke-width="0.00172"></path>
<path d="M0.349 0.153 Q0.706 0.415 1.295 0.299" stroke="hsl(180.0,100%,35%)" stroke-width="0.00172"></path>
<path d="M0.349 0.153 Q0.409 0.223 0.559 0.209" stroke="hsl(180.0,100%,35%)" stroke-width="0.00344"></path>
<path d="M0.349 0.153 Q0.178 0.551 0.916 0.721" stroke="hsl(180.0,100%,35%)" stroke-width="0.00172"></path>
<path d="M0.349 0.153 Q0.013 0.577 0.765 0.833" stroke="hsl(180.0,100%,35%)" stroke-width="0.00344"></path>
<path d="M0.466 0.924 Q1.026 0.691 0.694 0.367" stroke="hsl(180.0,100%,35%)" stroke-width="0.00860"></path>
<path d="M0.466 0.924 Q1.024 0.515 0.349 0.153" stroke="hsl(180.0,100%,35%)" stroke-width="0.00688"></path>
<path d="M0.466 0.924 Q0.883 0.944 1.015 0.745" stroke="hsl(180.0,100%,35%)" stroke-width="0.01891"></path>
<path d="M0.466 0.924 Q0.688 0.938 0.765 0.833" stroke="hsl(180.0,100%,35%)" stroke-width="0.01719"></path>
<path d="M0.466 0.924 Q1.649 0.690 1.452 0.061" stroke="hsl(180.0,100%,35%)" stroke-width="0.00172"></path>
<path d="M0.466 0.924 Q0.567 0.866 0.476 0.804" stroke="hsl(180.0,100%,35%)" stroke-width="0.03438"></path>
<path d="M0.466 0.924 Q0.879 0.852 0.829 0.635" stroke="hsl(180.0,100%,35%)" stroke-width="0.00172"></path>
<path d="M0.466 0.924 Q0.674 0.620 0.127 0.452" stroke="hsl(180.0,100%,35%)" stroke-width="0.00516"></path>
<path d="M0.466 0.924 Q0.674 1.007 0.881 0.923" stroke="hsl(180.0,100%,35%)" stroke-width="0.00688"></path>
<path d="M0.466 0.924 Q0.761 0.562 0.120 0.339" stroke="hsl(180.0,100%,35%)" stroke-width="0.00516"></path>
<path d="M0.466 0.924 Q1.254 0.716 1.022 0.286" stroke="hsl(180.0,100%,35%)" stroke-width="0.00688"></path>
<path d="M0.466 0.924 Q0.639 1.115 1.049 1.072" stroke="hsl(180.0,100%,35%)" stroke-width="0.00172"></path>
<path d="M0.466 0.924 Q1.456 0.881 1.589 0.389" stroke="hsl(180.0,100%,35%)" stroke-width="0.00516"></path>
<path d="M0.466 0.924 Q0.746 1.071 1.094 0.966" stroke="hsl(180.0,100%,35%)" stroke-width="0.00344"></path>
<path d="M0.466 0.924 Q1.723 0.839 1.834 0.208" stroke="hsl(180.0,100%,35%)" stroke-width="0.00172"></path>
<path d="M0.466 0.924 Q1.328 0.866 1.405 0.433" stroke="hsl(180.0,100%,35%)" stroke-width="0.00344"></path>
<path d="M0.466 0.924 Q1.380 0.777 1.295 0.299" stroke="hsl(180.0,100%,35%)" stroke-width="0.00344"></path>
<path d="M0.694 0.367 Q0.356 0.614 0.765 0.833" stroke="hsl(180.0,100%,35%)" stroke-width="0.00860"></path>
<path d="M0.694 0.367 Q0.996 0.542 1.405 0.433" stroke="hsl(180.0,100%,35%)" stroke-width="0.00344"></path>
<path d="M0.694 0.367 Q0.235 0.542 0.476 0.804" stroke="hsl(180.0,100%,35%)" stroke-width="0.00172"></path>
<path d="M0.694 0.367 Q0.922 0.392 1.022 0.286" stroke="hsl(180.0,100%,35%)" stroke-width="0.00172"></path>
<path d="M0.694 0.367 Q0.692 0.191 0.349 0.153" stroke="hsl(180.0,100%,35%)" stroke-width="0.00172"></path>
<path d="M1.452 0.061 Q1.463 0.134 1.606 0.144" stroke="hsl(180.0,100%,35%)" stroke-width="0.00688"></path>
<path d="M1.452 0.061 Q1.526 0.211 1.834 0.208" stroke="hsl(180.0,100%,35%)" stroke-width="0.00344"></path>
<path d="M1.452 0.061 Q0.682 0.223 0.829 0.635" stroke="hsl(180.0,100%,35%)" stroke-width="0.00344"></path>
<path d="M1.452 0.061 Q0.491 0.310 0.765 0.833" stroke="hsl(180.0,100%,35%)" stroke-width="0.00172"></path>
<path d="M0.127 0.452 Q0.219 0.523 0.378 0.493" stroke="hsl(180.0,100%,35%)" stroke-width="0.00688"></path>
<path d="M0.127 0.452 Q0.144 0.530 0.301 0.539" stroke="hsl(180.0,100%,35%)" stroke-width="0.00516"></path>
<path d="M0.127 0.452 Q0.127 0.838 0.881 0.923" stroke="hsl(180.0,100%,35%)" stroke-width="0.00172"></path>
<path d="M0.127 0.452 Q0.046 0.474 0.072 0.518" stroke="hsl(180.0,100%,35%)" stroke-width="0.00172"></path>
<path d="M0.127 0.452 Q0.141 0.770 0.765 0.833" stroke="hsl(180.0,100%,35%)" stroke-width="0.00172"></path>
<path d="M1.022 0.286 Q0.334 0.436 0.476 0.804" stroke="hsl(0.0,100%,35%)" stroke-width="0.02063"></path>
<path d="M1.022 0.286 Q1.148 0.347 1.295 0.299" stroke="hsl(0.0,100%,35%)" stroke-width="0.01547"></path>
<path d="M1.022 0.286 Q0.646 0.422 0.829 0.635" stroke="hsl(0.0,100%,35%)" stroke-width="0.00516"></path>
<path d="M1.022 0.286 Q0.455 0.508 0.765 0.833" stroke="hsl(0.0,100%,35%)" stroke-width="0.00860"></path>
<path d="M1.022 0.286 Q1.071 0.208 0.930 0.167" stroke="hsl(0.0,100%,35%)" stroke-width="0.01031"></path>
<path d="M1.022 0.286 Q0.908 0.321 0.952 0.384" stroke="hsl(0.0,100%,35%)" stroke-width="0.00516"></path>
<path d="M1.022 0.286 Q0.233 0.494 0.466 0.924" stroke="hsl(0.0,100%,35%)" stroke-width="0.00172"></path>
<path d="M1.022 0.286 Q0.651 0.514 1.015 0.745" stroke="hsl(0.0,100%,35%)" stroke-width="0.00172"></path>
<path d="M1.022 0.286 Q0.793 0.261 0.694 0.367" stroke="hsl(0.0,100%,35%)" stroke-width="0.00172"></path>
<path d="M1.834 0.208 Q1.439 0.235 1.405 0.433" stroke="hsl(180.0,100%,35%)" stroke-width="0.00172"></path>
<path d="M1.834 0.208 Q1.771 0.130 1.606 0.144" stroke="hsl(180.0,100%,35%)" stroke-width="0.00172"></path>
<path d="M1.834 0.208 Q1.760 0.058 1.452 0.061" stroke="hsl(180.0,100%,35%)" stroke-width="0.00172"></path>
<path d="M1.405 0.433 Q1.457 0.344 1.295 0.299" stroke="hsl(180.0,100%,35%)" stroke-width="0.01375"></path>
<path d="M1.405 0.433 Q1.533 0.448 1.589 0.389" stroke="hsl(180.0,100%,35%)" stroke-width="0.00516"></path>
<path d="M1.405 0.433 Q1.101 0.082 0.349 0.153" stroke="hsl(180.0,100%,35%)" stroke-width="0.00172"></path>
<path d="M1.405 0.433 Q0.995 0.706 1.437 0.965" stroke="hsl(180.0,100%,35%)" stroke-width="0.00172"></path>
<path d="M1.405 0.433 Q0.765 0.505 0.765 0.833" stroke="hsl(180.0,100%,35%)" stroke-width="0.00344"></path>
<path d="M0.242 0.309 Q0.158 0.300 0.120 0.339" stroke="hsl(180.0,100%,35%)" stroke-width="0.00516"></path>
<path d="M0.242 0.309 Q-0.138 0.661 0.466 0.924" stroke="hsl(180.0,100%,35%)" stroke-width="0.00172"></path>
<path d="M0.242 0.309 Q-0.037 0.603 0.476 0.804" stroke="hsl(180.0,100%,35%)" stroke-width="0.00688"></path>
<path d="M0.242 0.309 Q0.501 0.818 1.551 0.803" stroke="hsl(180.0,100%,35%)" stroke-width="0.00172"></path>
<path d="M0.242 0.309 Q0.250 0.249 0.133 0.232" stroke="hsl(180.0,100%,35%)" stroke-width="0.00172"></path>
<path d="M0.242 0.309 Q0.084 0.676 0.765 0.833" stroke="hsl(180.0,100%,35%)" stroke-width="0.00516"></path>
<path d="M1.623 0.515 Q1.454 0.565 1.515 0.658" stroke="hsl(180.0,100%,35%)" stroke-width="0.00172"></path>
<path d="M1.623 0.515 Q1.579 0.431 1.405 0.433" stroke="hsl(180.0,100%,35%)" stroke-width="0.00344"></path>
<path d="M1.623 0.515 Q0.925 0.184 0.127 0.452" stroke="hsl(180.0,100%,35%)" stroke-width="0.00172"></path>
<path d="M1.623 0.515 Q1.632 0.342 1.295 0.299" stroke="hsl(180.0,100%,35%)" stroke-width="0.00172"></path>
<path d="M1.606 0.144 Q1.670 0.222 1.834 0.208" stroke="hsl(180.0,100%,35%)" stroke-width="0.00516"></path>
<path d="M1.606 0.144 Q1.201 0.098 1.022 0.286" stroke="hsl(180.0,100%,35%)" stroke-width="0.00172"></path>
<path d="M1.606 0.144 Q0.825 0.234 0.829 0.635" stroke="hsl(180.0,100%,35%)" stroke-width="0.00172"></path>
<path d="M1.606 0.144 Q1.327 0.159 1.295 0.299" stroke="hsl(180.0,100%,35%)" stroke-width="0.00344"></path>
<path d="M1.372 0.856 Q1.317 0.924 1.437 0.965" stroke="hsl(0.0,100%,35%)" stroke-width="0.00344"></path>
<path d="M1.372 0.856 Q0.965 0.651 0.476 0.804" stroke="hsl(0.0,100%,35%)" stroke-width="0.00688"></path>
<path d="M1.372 0.856 Q1.504 0.866 1.551 0.803" stroke="hsl(0.0,100%,35%)" stroke-width="0.00172"></path>
<path d="M0.554 0.078 Q-0.164 0.296 0.104 0.694" stroke="hsl(0.0,100%,35%)" stroke-width="0.00172"></path>
<path d="M0.554 0.078 Q0.656 0.099 0.718 0.053" stroke="hsl(0.0,100%,35%)" stroke-width="0.00172"></path>
<path d="M0.554 0.078 Q0.055 0.498 0.765 0.833" stroke="hsl(0.0,100%,35%)" stroke-width="0.00172"></path>
<path d="M0.179 0.742 Q1.039 0.833 1.405 0.433" stroke="hsl(0.0,100%,35%)" stroke-width="0.00688"></path>
<path d="M0.179 0.742 Q0.278 0.832 0.476 0.804" stroke="hsl(0.0,100%,35%)" stroke-width="0.04126"></path>
<path d="M0.179 0.742 Q0.350 1.081 1.049 1.072" stroke="hsl(0.0,100%,35%)" stroke-width="0.00172"></path>
<path d="M0.179 0.742 Q1.091 0.744 1.295 0.299" stroke="hsl(0.0,100%,35%)" stroke-width="0.00172"></path>
<path d="M0.179 0.742 Q1.434 0.806 1.834 0.208" stroke="hsl(0.0,100%,35%)" stroke-width="0.00516"></path>
<path d="M0.179 0.742 Q0.180 0.703 0.104 0.694" stroke="hsl(0.0,100%,35%)" stroke-width="0.01203"></path>
<path d="M0.179 0.742 Q0.177 0.890 0.466 0.924" stroke="hsl(0.0,100%,35%)" stroke-width="0.00688"></path>
<path d="M0.179 0.742 Q0.590 0.818 0.829 0.635" stroke="hsl(0.0,100%,35%)" stroke-width="0.01719"></path>
<path d="M0.179 0.742 Q0.399 0.905 0.765 0.833" stroke="hsl(0.0,100%,35%)" stroke-width="0.00688"></path>
<path d="M0.179 0.742 Q0.238 0.632 0.037 0.579" stroke="hsl(0.0,100%,35%)" stroke-width="0.00172"></path>
<path d="M0.179 0.742 Q0.315 0.717 0.296 0.645" stroke="hsl(0.0,100%,35%)" stroke-width="0.00172"></path>
<path d="M0.179 0.742 Q0.385 0.973 0.881 0.923" stroke="hsl(0.0,100%,35%)" stroke-width="0.00172"></path>
<path d="M0.179 0.742 Q0.472 0.528 0.120 0.339" stroke="hsl(0.0,100%,35%)" stroke-width="0.00172"></path>
<path d="M1.322 0.718 Q1.591 0.592 1.405 0.433" stroke="hsl(180.0,100%,35%)" stroke-width="0.00344"></path>
<path d="M1.322 0.718 Q1.644 0.503 1.295 0.299" stroke="hsl(180.0,100%,35%)" stroke-width="0.00344"></path>
<path d="M1.322 0.718 Q1.147 0.670 1.015 0.745" stroke="hsl(180.0,100%,35%)" stroke-width="0.00344"></path>
<path d="M1.559 0.243 Q0.569 0.307 0.476 0.804" stroke="hsl(0.0,100%,35%)" stroke-width="0.00344"></path>
<path d="M1.559 0.243 Q0.881 0.293 0.829 0.635" stroke="hsl(0.0,100%,35%)" stroke-width="0.00344"></path>
<path d="M1.559 0.243 Q1.662 0.203 1.606 0.144" stroke="hsl(0.0,100%,35%)" stroke-width="0.00344"></path>
</g>
<text x="1.237" y="0.583" font-size="0.014089" fill="hsl(0.0,100%,20%)">aheggestad</text>
<text x="0.829" y="0.608" font-size="0.054568" fill="hsl(0.0,100%,20%)">hbos</text>
<text x="0.765" y="0.805" font-size="0.055916" fill="hsl(180.0,100%,20%)">mbonadei</text>
<text x="1.014" y="0.447" font-size="0.039223" fill="hsl(0.0,100%,20%)">tommi</text>
<text x="0.656" y="0.671" font-size="0.019925" fill="hsl(0.0,100%,20%)">boivie</text>
<text x="0.104" y="0.682" font-size="0.025400" fill="hsl(0.0,100%,20%)">orphis</text>
<text x="0.476" y="0.762" font-size="0.083354" fill="hsl(0.0,100%,20%)">hta</text>
<text x="0.881" y="0.914" font-size="0.018639" fill="hsl(0.0,100%,20%)">saza</text>
<text x="0.690" y="0.683" font-size="0.012202" fill="hsl(180.0,100%,20%)">daniel.l</text>
<text x="0.349" y="0.138" font-size="0.031505" fill="hsl(180.0,100%,20%)">jleconte</text>
<text x="0.466" y="0.891" font-size="0.065330" fill="hsl(180.0,100%,20%)">danilchap</text>
<text x="0.694" y="0.350" font-size="0.033785" fill="hsl(180.0,100%,20%)">terelius</text>
<text x="1.015" y="0.732" font-size="0.027284" fill="hsl(180.0,100%,20%)">philipel</text>
<text x="1.452" y="0.050" font-size="0.023365" fill="hsl(180.0,100%,20%)">henrika</text>
<text x="0.127" y="0.438" font-size="0.027284" fill="hsl(180.0,100%,20%)">jakobi</text>
<text x="0.120" y="0.329" font-size="0.018639" fill="hsl(180.0,100%,20%)">titovartem</text>
<text x="1.022" y="0.260" font-size="0.051286" fill="hsl(0.0,100%,20%)">perkj</text>
<text x="1.049" y="1.067" font-size="0.009963" fill="hsl(0.0,100%,20%)">kron</text>
<text x="1.589" y="0.380" font-size="0.017256" fill="hsl(180.0,100%,20%)">asapersson</text>
<text x="1.094" y="0.961" font-size="0.009963" fill="hsl(180.0,100%,20%)">lndmrk</text>
<text x="1.834" y="0.195" font-size="0.024404" fill="hsl(180.0,100%,20%)">ilnik</text>
<text x="1.405" y="0.414" font-size="0.037937" fill="hsl(180.0,100%,20%)">ssilkin</text>
<text x="1.295" y="0.281" font-size="0.035921" fill="hsl(180.0,100%,20%)">sprang</text>
<text x="0.242" y="0.297" font-size="0.025400" fill="hsl(180.0,100%,20%)">dorhen</text>
<text x="1.551" y="0.798" font-size="0.009963" fill="hsl(0.0,100%,20%)">guidou</text>
<text x="0.133" y="0.228" font-size="0.007045" fill="hsl(180.0,100%,20%)">gustaf</text>
<text x="1.623" y="0.507" font-size="0.015752" fill="hsl(180.0,100%,20%)">dwtan</text>
<text x="1.515" y="0.652" font-size="0.012202" fill="hsl(180.0,100%,20%)">marpan</text>
<text x="1.606" y="0.130" font-size="0.028179" fill="hsl(180.0,100%,20%)">handellm</text>
<text x="0.916" y="0.532" font-size="0.019925" fill="hsl(0.0,100%,20%)">eshr</text>
<text x="0.916" y="0.711" font-size="0.021134" fill="hsl(0.0,100%,20%)">jansson</text>
<text x="0.718" y="0.047" font-size="0.012202" fill="hsl(0.0,100%,20%)">peterhanspers</text>
<text x="1.372" y="0.847" font-size="0.018639" fill="hsl(0.0,100%,20%)">herre</text>
<text x="1.437" y="0.959" font-size="0.012202" fill="hsl(0.0,100%,20%)">stefan</text>
<text x="0.593" y="0.661" font-size="0.007045" fill="hsl(0.0,100%,20%)">sergeysu</text>
<text x="0.378" y="0.486" font-size="0.014089" fill="hsl(180.0,100%,20%)">henrik.lundin</text>
<text x="0.301" y="0.533" font-size="0.012202" fill="hsl(180.0,100%,20%)">tomasl</text>
<text x="0.072" y="0.515" font-size="0.007045" fill="hsl(180.0,100%,20%)">hlundin</text>
<text x="0.559" y="0.204" font-size="0.009963" fill="hsl(180.0,100%,20%)">manashi</text>
<text x="0.554" y="0.072" font-size="0.012202" fill="hsl(0.0,100%,20%)">karim</text>
<text x="0.930" y="0.158" font-size="0.017256" fill="hsl(0.0,100%,20%)">jonaso</text>
<text x="0.952" y="0.378" font-size="0.012202" fill="hsl(0.0,100%,20%)">diepbp</text>
<text x="0.179" y="0.714" font-size="0.055470" fill="hsl(0.0,100%,20%)">phancke</text>
<text x="0.037" y="0.576" font-size="0.007045" fill="hsl(0.0,100%,20%)">fhernqvist</text>
<text x="0.296" y="0.641" font-size="0.007045" fill="hsl(0.0,100%,20%)">natashenka</text>
<text x="1.322" y="0.710" font-size="0.017256" fill="hsl(180.0,100%,20%)">qiujiao.wu</text>
<text x="0.933" y="0.349" font-size="0.007045" fill="hsl(0.0,100%,20%)">alexfh</text>
<text x="1.559" y="0.235" font-size="0.017256" fill="hsl(0.0,100%,20%)">zhaoliang.ma</text>
</svg>
