<svg width="4000" height="2000" viewBox="-0.025 -0.025 2.05 1.05" xmlns="http://www.w3.org/2000/svg">
  <style>
    path {
      fill: none;
      stroke-linecap: round;
      stroke-opacity: 0.4;
    }

    text {
      text-anchor: middle;
      alignment-baseline: hanging;
    }
  </style>
  <g opacity="0.4">
<path d="M1.653 0.833 Q1.630 0.606 1.182 0.567" stroke="hsl(0.0,100%,35%)" stroke-width="0.01283"></path>
<path d="M1.653 0.833 Q1.548 0.890 1.635 0.954" stroke="hsl(0.0,100%,35%)" stroke-width="0.01466"></path>
<path d="M1.653 0.833 Q1.529 0.797 1.433 0.850" stroke="hsl(0.0,100%,35%)" stroke-width="0.00183"></path>
<path d="M1.182 0.567 Q0.810 0.648 0.887 0.847" stroke="hsl(0.0,100%,35%)" stroke-width="0.00183"></path>
<path d="M1.182 0.567 Q1.097 0.685 1.309 0.753" stroke="hsl(0.0,100%,35%)" stroke-width="0.00183"></path>
<path d="M1.182 0.567 Q1.135 0.376 0.752 0.357" stroke="hsl(0.0,100%,35%)" stroke-width="0.00183"></path>
<path d="M1.182 0.567 Q0.833 0.441 0.510 0.584" stroke="hsl(0.0,100%,35%)" stroke-width="0.00183"></path>
<path d="M1.182 0.567 Q0.837 0.598 0.821 0.773" stroke="hsl(0.0,100%,35%)" stroke-width="0.02383"></path>
<path d="M1.182 0.567 Q0.685 0.705 0.845 0.978" stroke="hsl(0.0,100%,35%)" stroke-width="0.01833"></path>
<path d="M1.182 0.567 Q1.205 0.794 1.653 0.833" stroke="hsl(0.0,100%,35%)" stroke-width="0.00367"></path>
<path d="M1.182 0.567 Q0.798 0.775 1.120 1.008" stroke="hsl(0.0,100%,35%)" stroke-width="0.00183"></path>
<path d="M1.182 0.567 Q1.099 0.851 1.635 0.954" stroke="hsl(0.0,100%,35%)" stroke-width="0.00183"></path>
<path d="M1.182 0.567 Q0.978 0.567 0.934 0.667" stroke="hsl(0.0,100%,35%)" stroke-width="0.01283"></path>
<path d="M1.182 0.567 Q1.091 0.488 0.916 0.514" stroke="hsl(0.0,100%,35%)" stroke-width="0.00183"></path>
<path d="M1.182 0.567 Q0.888 0.318 0.338 0.407" stroke="hsl(0.0,100%,35%)" stroke-width="0.00183"></path>
<path d="M0.916 0.514 Q0.938 0.443 0.804 0.417" stroke="hsl(0.0,100%,35%)" stroke-width="0.00183"></path>
<path d="M0.916 0.514 Q0.510 0.732 0.845 0.978" stroke="hsl(0.0,100%,35%)" stroke-width="0.01650"></path>
<path d="M0.916 0.514 Q0.468 0.480 0.302 0.690" stroke="hsl(0.0,100%,35%)" stroke-width="0.00367"></path>
<path d="M0.916 0.514 Q0.426 0.666 0.614 0.938" stroke="hsl(0.0,100%,35%)" stroke-width="0.00183"></path>
<path d="M0.916 0.514 Q1.006 0.594 1.182 0.567" stroke="hsl(0.0,100%,35%)" stroke-width="0.05499"></path>
<path d="M0.916 0.514 Q0.718 0.234 0.127 0.268" stroke="hsl(0.0,100%,35%)" stroke-width="0.00183"></path>
<path d="M0.916 0.514 Q1.059 0.231 0.537 0.099" stroke="hsl(0.0,100%,35%)" stroke-width="0.00183"></path>
<path d="M0.916 0.514 Q0.960 0.403 0.752 0.357" stroke="hsl(0.0,100%,35%)" stroke-width="0.00367"></path>
<path d="M0.916 0.514 Q1.109 0.497 1.118 0.399" stroke="hsl(0.0,100%,35%)" stroke-width="0.00183"></path>
<path d="M0.916 0.514 Q1.099 0.419 0.953 0.309" stroke="hsl(0.0,100%,35%)" stroke-width="0.00183"></path>
<path d="M0.916 0.514 Q1.303 0.331 1.030 0.101" stroke="hsl(0.0,100%,35%)" stroke-width="0.00183"></path>
<path d="M0.916 0.514 Q0.852 0.430 0.674 0.443" stroke="hsl(0.0,100%,35%)" stroke-width="0.00550"></path>
<path d="M0.916 0.514 Q0.803 0.594 0.934 0.667" stroke="hsl(0.0,100%,35%)" stroke-width="0.00550"></path>
<path d="M0.916 0.514 Q0.623 0.802 1.120 1.008" stroke="hsl(0.0,100%,35%)" stroke-width="0.00367"></path>
<path d="M0.916 0.514 Q1.381 0.375 1.212 0.118" stroke="hsl(0.0,100%,35%)" stroke-width="0.00183"></path>
<path d="M0.916 0.514 Q1.034 0.410 0.856 0.329" stroke="hsl(0.0,100%,35%)" stroke-width="0.00367"></path>
<path d="M0.916 0.514 Q1.059 0.495 1.054 0.421" stroke="hsl(0.0,100%,35%)" stroke-width="0.00367"></path>
<path d="M0.845 0.978 Q0.762 0.911 0.614 0.938" stroke="hsl(0.0,100%,35%)" stroke-width="0.02383"></path>
<path d="M0.845 0.978 Q1.053 0.479 0.127 0.268" stroke="hsl(0.0,100%,35%)" stroke-width="0.00183"></path>
<path d="M0.845 0.978 Q1.369 0.656 0.856 0.329" stroke="hsl(0.0,100%,35%)" stroke-width="0.00183"></path>
<path d="M0.845 0.978 Q1.342 0.840 1.182 0.567" stroke="hsl(0.0,100%,35%)" stroke-width="0.01100"></path>
<path d="M0.845 0.978 Q0.958 1.048 1.120 1.008" stroke="hsl(0.0,100%,35%)" stroke-width="0.00183"></path>
<path d="M0.845 0.978 Q0.695 0.833 0.380 0.875" stroke="hsl(0.0,100%,35%)" stroke-width="0.00183"></path>
<path d="M0.845 0.978 Q1.251 0.760 0.916 0.514" stroke="hsl(0.0,100%,35%)" stroke-width="0.00183"></path>
<path d="M0.845 0.978 Q1.011 0.813 0.727 0.696" stroke="hsl(0.0,100%,35%)" stroke-width="0.00367"></path>
<path d="M0.302 0.690 Q1.137 0.541 1.030 0.101" stroke="hsl(0.0,100%,35%)" stroke-width="0.00183"></path>
<path d="M0.302 0.690 Q0.182 0.731 0.235 0.798" stroke="hsl(0.0,100%,35%)" stroke-width="0.00916"></path>
<path d="M0.302 0.690 Q0.739 0.996 1.433 0.850" stroke="hsl(0.0,100%,35%)" stroke-width="0.00183"></path>
<path d="M0.614 0.938 Q0.697 1.004 0.845 0.978" stroke="hsl(0.0,100%,35%)" stroke-width="0.01100"></path>
<path d="M0.614 0.938 Q0.547 0.859 0.380 0.875" stroke="hsl(0.0,100%,35%)" stroke-width="0.00733"></path>
<path d="M0.614 0.938 Q1.194 0.866 1.182 0.567" stroke="hsl(0.0,100%,35%)" stroke-width="0.00550"></path>
<path d="M0.614 0.938 Q0.845 0.740 0.510 0.584" stroke="hsl(0.0,100%,35%)" stroke-width="0.00183"></path>
<path d="M0.614 0.938 Q0.811 1.074 1.120 1.008" stroke="hsl(0.0,100%,35%)" stroke-width="0.00183"></path>
<path d="M0.614 0.938 Q1.222 0.682 0.856 0.329" stroke="hsl(0.0,100%,35%)" stroke-width="0.00183"></path>
<path d="M1.030 0.101 Q1.107 0.146 1.212 0.118" stroke="hsl(0.0,100%,35%)" stroke-width="0.00550"></path>
<path d="M1.030 0.101 Q0.948 0.173 1.070 0.228" stroke="hsl(0.0,100%,35%)" stroke-width="0.01650"></path>
<path d="M1.030 0.101 Q0.864 0.087 0.801 0.165" stroke="hsl(0.0,100%,35%)" stroke-width="0.00733"></path>
<path d="M1.030 0.101 Q0.362 0.446 0.887 0.847" stroke="hsl(0.0,100%,35%)" stroke-width="0.00183"></path>
<path d="M0.934 0.667 Q0.849 0.306 0.127 0.268" stroke="hsl(0.0,100%,35%)" stroke-width="0.00916"></path>
<path d="M0.934 0.667 Q0.684 0.615 0.527 0.725" stroke="hsl(0.0,100%,35%)" stroke-width="0.01833"></path>
<path d="M0.934 0.667 Q1.137 0.666 1.182 0.567" stroke="hsl(0.0,100%,35%)" stroke-width="0.02749"></path>
<path d="M0.934 0.667 Q0.754 0.874 1.120 1.008" stroke="hsl(0.0,100%,35%)" stroke-width="0.00367"></path>
<path d="M0.934 0.667 Q0.788 0.540 0.510 0.584" stroke="hsl(0.0,100%,35%)" stroke-width="0.01466"></path>
<path d="M0.934 0.667 Q1.047 0.587 0.916 0.514" stroke="hsl(0.0,100%,35%)" stroke-width="0.00367"></path>
<path d="M0.934 0.667 Q0.983 0.503 0.674 0.443" stroke="hsl(0.0,100%,35%)" stroke-width="0.00183"></path>
<path d="M0.934 0.667 Q0.766 0.748 0.887 0.847" stroke="hsl(0.0,100%,35%)" stroke-width="0.00183"></path>
<path d="M0.934 0.667 Q0.641 0.804 0.845 0.978" stroke="hsl(0.0,100%,35%)" stroke-width="0.00550"></path>
<path d="M1.120 1.008 Q1.006 0.938 0.845 0.978" stroke="hsl(0.0,100%,35%)" stroke-width="0.01283"></path>
<path d="M1.120 1.008 Q0.923 0.871 0.614 0.938" stroke="hsl(0.0,100%,35%)" stroke-width="0.00916"></path>
<path d="M1.120 1.008 Q1.503 0.800 1.182 0.567" stroke="hsl(0.0,100%,35%)" stroke-width="0.00183"></path>
<path d="M1.120 1.008 Q1.300 0.800 0.934 0.667" stroke="hsl(0.0,100%,35%)" stroke-width="0.00183"></path>
<path d="M0.101 0.574 Q0.150 0.925 0.845 0.978" stroke="hsl(180.0,100%,35%)" stroke-width="0.00183"></path>
<path d="M0.101 0.574 Q0.647 0.787 1.182 0.567" stroke="hsl(180.0,100%,35%)" stroke-width="0.00183"></path>
<path d="M0.101 0.574 Q0.167 0.623 0.276 0.601" stroke="hsl(180.0,100%,35%)" stroke-width="0.00183"></path>
<path d="M0.101 0.574 Q0.556 0.707 0.916 0.514" stroke="hsl(180.0,100%,35%)" stroke-width="0.00183"></path>
<path d="M1.070 0.228 Q0.358 0.558 0.845 0.978" stroke="hsl(0.0,100%,35%)" stroke-width="0.00550"></path>
<path d="M1.070 0.228 Q0.855 0.420 1.182 0.567" stroke="hsl(0.0,100%,35%)" stroke-width="0.00916"></path>
<path d="M1.070 0.228 Q1.229 0.202 1.212 0.118" stroke="hsl(0.0,100%,35%)" stroke-width="0.00733"></path>
<path d="M1.070 0.228 Q0.651 0.420 0.934 0.667" stroke="hsl(0.0,100%,35%)" stroke-width="0.00183"></path>
<path d="M1.070 0.228 Q0.483 0.501 0.887 0.847" stroke="hsl(0.0,100%,35%)" stroke-width="0.00183"></path>
<path d="M1.070 0.228 Q0.566 0.060 0.127 0.268" stroke="hsl(0.0,100%,35%)" stroke-width="0.00367"></path>
<path d="M1.309 0.753 Q1.394 0.634 1.182 0.567" stroke="hsl(0.0,100%,35%)" stroke-width="0.03849"></path>
<path d="M1.309 0.753 Q1.022 0.715 0.887 0.847" stroke="hsl(0.0,100%,35%)" stroke-width="0.02199"></path>
<path d="M1.309 0.753 Q1.311 0.918 1.635 0.954" stroke="hsl(0.0,100%,35%)" stroke-width="0.01650"></path>
<path d="M1.309 0.753 Q1.190 0.635 0.934 0.667" stroke="hsl(0.0,100%,35%)" stroke-width="0.00183"></path>
<path d="M1.309 0.753 Q1.089 0.725 0.988 0.826" stroke="hsl(0.0,100%,35%)" stroke-width="0.00183"></path>
<path d="M1.309 0.753 Q1.079 0.680 0.886 0.776" stroke="hsl(0.0,100%,35%)" stroke-width="0.00550"></path>
<path d="M1.309 0.753 Q1.068 0.699 0.910 0.805" stroke="hsl(0.0,100%,35%)" stroke-width="0.00550"></path>
<path d="M1.309 0.753 Q1.119 0.707 0.989 0.790" stroke="hsl(0.0,100%,35%)" stroke-width="0.00183"></path>
<path d="M1.309 0.753 Q1.303 0.555 0.916 0.514" stroke="hsl(0.0,100%,35%)" stroke-width="0.00183"></path>
<path d="M1.309 0.753 Q1.768 0.416 1.212 0.118" stroke="hsl(0.0,100%,35%)" stroke-width="0.00183"></path>
<path d="M1.309 0.753 Q1.293 0.826 1.433 0.850" stroke="hsl(0.0,100%,35%)" stroke-width="0.00183"></path>
<path d="M1.309 0.753 Q1.107 0.696 0.953 0.783" stroke="hsl(0.0,100%,35%)" stroke-width="0.00183"></path>
<path d="M1.309 0.753 Q1.226 0.235 0.198 0.161" stroke="hsl(0.0,100%,35%)" stroke-width="0.00183"></path>
<path d="M1.309 0.753 Q1.082 0.605 0.744 0.684" stroke="hsl(0.0,100%,35%)" stroke-width="0.00183"></path>
<path d="M0.821 0.773 Q1.166 0.742 1.182 0.567" stroke="hsl(0.0,100%,35%)" stroke-width="0.01466"></path>
<path d="M0.821 0.773 Q1.075 0.663 0.916 0.514" stroke="hsl(0.0,100%,35%)" stroke-width="0.00733"></path>
<path d="M0.821 0.773 Q1.012 0.578 0.674 0.443" stroke="hsl(0.0,100%,35%)" stroke-width="0.00550"></path>
<path d="M0.821 0.773 Q0.669 0.880 0.845 0.978" stroke="hsl(0.0,100%,35%)" stroke-width="0.00183"></path>
<path d="M0.821 0.773 Q1.200 0.813 1.362 0.637" stroke="hsl(0.0,100%,35%)" stroke-width="0.00183"></path>
<path d="M0.821 0.773 Q0.795 0.823 0.887 0.847" stroke="hsl(0.0,100%,35%)" stroke-width="0.00183"></path>
<path d="M0.338 0.407 Q0.632 0.656 1.182 0.567" stroke="hsl(0.0,100%,35%)" stroke-width="0.00183"></path>
<path d="M0.338 0.407 Q0.135 0.794 0.845 0.978" stroke="hsl(0.0,100%,35%)" stroke-width="0.00367"></path>
<path d="M0.338 0.407 Q0.093 0.541 0.302 0.690" stroke="hsl(0.0,100%,35%)" stroke-width="0.00183"></path>
<path d="M0.338 0.407 Q0.284 0.361 0.184 0.378" stroke="hsl(0.0,100%,35%)" stroke-width="0.00183"></path>
<path d="M1.414 0.195 Q1.390 0.313 1.614 0.351" stroke="hsl(180.0,100%,35%)" stroke-width="0.00550"></path>
<path d="M1.414 0.195 Q1.270 0.257 1.359 0.340" stroke="hsl(180.0,100%,35%)" stroke-width="0.00550"></path>
<path d="M1.414 0.195 Q0.833 -0.065 0.198 0.161" stroke="hsl(180.0,100%,35%)" stroke-width="0.00550"></path>
<path d="M0.198 0.161 Q0.332 0.253 0.540 0.208" stroke="hsl(180.0,100%,35%)" stroke-width="0.00183"></path>
<path d="M0.198 0.161 Q0.077 0.201 0.127 0.268" stroke="hsl(180.0,100%,35%)" stroke-width="0.01466"></path>
<path d="M0.198 0.161 Q-0.132 0.699 0.845 0.978" stroke="hsl(180.0,100%,35%)" stroke-width="0.00916"></path>
<path d="M0.198 0.161 Q0.211 0.397 0.674 0.443" stroke="hsl(180.0,100%,35%)" stroke-width="0.00183"></path>
<path d="M0.198 0.161 Q0.418 0.198 0.537 0.099" stroke="hsl(180.0,100%,35%)" stroke-width="0.00550"></path>
<path d="M0.198 0.161 Q0.365 0.561 1.182 0.567" stroke="hsl(180.0,100%,35%)" stroke-width="0.00183"></path>
<path d="M0.198 0.161 Q-0.115 0.397 0.276 0.601" stroke="hsl(180.0,100%,35%)" stroke-width="0.00183"></path>
<path d="M0.374 0.284 Q0.263 0.227 0.127 0.268" stroke="hsl(180.0,100%,35%)" stroke-width="0.00183"></path>
<path d="M0.374 0.284 Q0.397 0.423 0.674 0.443" stroke="hsl(180.0,100%,35%)" stroke-width="0.00183"></path>
<path d="M0.374 0.284 Q0.384 0.188 0.198 0.161" stroke="hsl(180.0,100%,35%)" stroke-width="0.00183"></path>
</g>
<text x="1.653" y="0.817" font-size="0.030861" fill="hsl(0.0,100%,20%)">boivie</text>
<text x="1.182" y="0.524" font-size="0.085758" fill="hsl(0.0,100%,20%)">hta</text>
<text x="1.635" y="0.938" font-size="0.030861" fill="hsl(0.0,100%,20%)">orphis</text>
<text x="1.433" y="0.844" font-size="0.012599" fill="hsl(0.0,100%,20%)">saza</text>
<text x="0.916" y="0.483" font-size="0.062148" fill="hsl(0.0,100%,20%)">danilchap</text>
<text x="0.804" y="0.413" font-size="0.007274" fill="hsl(0.0,100%,20%)">yinwa</text>
<text x="0.845" y="0.947" font-size="0.062148" fill="hsl(0.0,100%,20%)">mbonadei</text>
<text x="0.302" y="0.679" font-size="0.023002" fill="hsl(0.0,100%,20%)">jakobi</text>
<text x="0.614" y="0.916" font-size="0.043033" fill="hsl(0.0,100%,20%)">jleconte</text>
<text x="0.127" y="0.253" font-size="0.030861" fill="hsl(180.0,100%,20%)">sprang</text>
<text x="0.537" y="0.092" font-size="0.014548" fill="hsl(180.0,100%,20%)">brandtr</text>
<text x="0.752" y="0.350" font-size="0.012599" fill="hsl(0.0,100%,20%)">titovartem</text>
<text x="1.118" y="0.396" font-size="0.007274" fill="hsl(0.0,100%,20%)">chxg</text>
<text x="0.953" y="0.305" font-size="0.007274" fill="hsl(0.0,100%,20%)">peterhanspers</text>
<text x="1.030" y="0.085" font-size="0.031706" fill="hsl(0.0,100%,20%)">henrika</text>
<text x="0.674" y="0.432" font-size="0.021822" fill="hsl(0.0,100%,20%)">philipel</text>
<text x="0.934" y="0.638" font-size="0.056344" fill="hsl(0.0,100%,20%)">perkj</text>
<text x="1.120" y="0.991" font-size="0.033333" fill="hsl(0.0,100%,20%)">terelius</text>
<text x="1.212" y="0.107" font-size="0.021822" fill="hsl(0.0,100%,20%)">ilnik</text>
<text x="0.856" y="0.322" font-size="0.014548" fill="hsl(0.0,100%,20%)">lndmrk</text>
<text x="1.054" y="0.416" font-size="0.010287" fill="hsl(0.0,100%,20%)">asapersson</text>
<text x="0.101" y="0.567" font-size="0.014548" fill="hsl(180.0,100%,20%)">dorhen</text>
<text x="0.276" y="0.596" font-size="0.010287" fill="hsl(180.0,100%,20%)">stefan</text>
<text x="1.070" y="0.210" font-size="0.036370" fill="hsl(0.0,100%,20%)">handellm</text>
<text x="0.887" y="0.832" font-size="0.029991" fill="hsl(0.0,100%,20%)">hbos</text>
<text x="0.801" y="0.158" font-size="0.014548" fill="hsl(0.0,100%,20%)">alcooper</text>
<text x="1.309" y="0.725" font-size="0.055397" fill="hsl(0.0,100%,20%)">phancke</text>
<text x="0.510" y="0.572" font-size="0.023002" fill="hsl(0.0,100%,20%)">jonaso</text>
<text x="0.821" y="0.753" font-size="0.040500" fill="hsl(0.0,100%,20%)">tommi</text>
<text x="0.338" y="0.398" font-size="0.017817" fill="hsl(0.0,100%,20%)">sergeysu</text>
<text x="0.235" y="0.790" font-size="0.016265" fill="hsl(0.0,100%,20%)">henrik.lundin</text>
<text x="0.380" y="0.867" font-size="0.016265" fill="hsl(0.0,100%,20%)">jansson</text>
<text x="1.414" y="0.184" font-size="0.021822" fill="hsl(180.0,100%,20%)">lnilsson</text>
<text x="1.614" y="0.344" font-size="0.012599" fill="hsl(180.0,100%,20%)">ranvr</text>
<text x="1.359" y="0.334" font-size="0.012599" fill="hsl(180.0,100%,20%)">xalep</text>
<text x="0.198" y="0.143" font-size="0.036370" fill="hsl(180.0,100%,20%)">ssilkin</text>
<text x="0.727" y="0.691" font-size="0.010287" fill="hsl(0.0,100%,20%)">marpan</text>
<text x="0.527" y="0.714" font-size="0.023002" fill="hsl(0.0,100%,20%)">diepbp</text>
<text x="0.988" y="0.823" font-size="0.007274" fill="hsl(0.0,100%,20%)">deadbeef</text>
<text x="0.886" y="0.769" font-size="0.012599" fill="hsl(0.0,100%,20%)">herre</text>
<text x="0.910" y="0.799" font-size="0.012599" fill="hsl(0.0,100%,20%)">kron</text>
<text x="0.989" y="0.786" font-size="0.007274" fill="hsl(0.0,100%,20%)">guidou</text>
<text x="0.953" y="0.779" font-size="0.007274" fill="hsl(0.0,100%,20%)">fhernqvist</text>
<text x="0.744" y="0.680" font-size="0.007274" fill="hsl(0.0,100%,20%)">natashenka</text>
<text x="0.374" y="0.278" font-size="0.012599" fill="hsl(180.0,100%,20%)">qiujiao.wu</text>
<text x="0.184" y="0.374" font-size="0.007274" fill="hsl(0.0,100%,20%)">peah</text>
<text x="0.540" y="0.204" font-size="0.007274" fill="hsl(180.0,100%,20%)">jianj</text>
<text x="1.362" y="0.633" font-size="0.007274" fill="hsl(180.0,100%,20%)">alexfh</text>
</svg>
