<svg width="4000" height="2000" viewBox="-0.025 -0.025 2.05 1.05" xmlns="http://www.w3.org/2000/svg">
  <style>
    path {
      fill: none;
      stroke-linecap: round;
      stroke-opacity: 0.4;
    }

    text {
      text-anchor: middle;
      alignment-baseline: hanging;
    }
  </style>
  <g opacity="0.4">
<path d="M1.921 0.474 Q1.701 0.528 1.758 0.648" stroke="hsl(0.0,100%,35%)" stroke-width="0.04865"></path>
<path d="M1.921 0.474 Q1.923 0.369 1.719 0.345" stroke="hsl(0.0,100%,35%)" stroke-width="0.07298"></path>
<path d="M1.921 0.474 Q1.679 0.423 1.527 0.531" stroke="hsl(0.0,100%,35%)" stroke-width="0.02433"></path>
<path d="M1.064 0.610 Q1.192 0.627 1.253 0.568" stroke="hsl(180.0,100%,35%)" stroke-width="0.02433"></path>
<path d="M1.064 0.610 Q1.059 0.495 0.835 0.473" stroke="hsl(180.0,100%,35%)" stroke-width="0.02433"></path>
<path d="M1.064 0.610 Q1.388 0.553 1.349 0.382" stroke="hsl(180.0,100%,35%)" stroke-width="0.02433"></path>
<path d="M1.222 0.902 Q1.477 0.924 1.577 0.805" stroke="hsl(0.0,100%,35%)" stroke-width="0.02433"></path>
<path d="M1.222 0.902 Q1.916 0.723 1.719 0.345" stroke="hsl(0.0,100%,35%)" stroke-width="0.04865"></path>
<path d="M1.222 0.902 Q1.693 0.882 1.758 0.648" stroke="hsl(0.0,100%,35%)" stroke-width="0.02433"></path>
</g>
<text x="1.921" y="0.426" font-size="0.096077" fill="hsl(0.0,100%,20%)">asully</text>
<text x="1.758" y="0.614" font-size="0.067937" fill="hsl(0.0,100%,20%)">ajgo</text>
<text x="1.719" y="0.301" font-size="0.087706" fill="hsl(0.0,100%,20%)">phillis</text>
<text x="1.527" y="0.511" font-size="0.039223" fill="hsl(0.0,100%,20%)">reillyg</text>
<text x="1.064" y="0.576" font-size="0.067937" fill="hsl(180.0,100%,20%)">lbrady</text>
<text x="1.253" y="0.548" font-size="0.039223" fill="hsl(180.0,100%,20%)">arthursonzogni</text>
<text x="0.835" y="0.453" font-size="0.039223" fill="hsl(180.0,100%,20%)">averge</text>
<text x="1.349" y="0.363" font-size="0.039223" fill="hsl(180.0,100%,20%)">ikilpatrick</text>
<text x="1.222" y="0.863" font-size="0.078446" fill="hsl(0.0,100%,20%)">shiyi.zou</text>
<text x="1.577" y="0.785" font-size="0.039223" fill="hsl(0.0,100%,20%)">ningxin.hu</text>
</svg>
