<svg width="4000" height="2000" viewBox="-0.025 -0.025 2.05 1.05" xmlns="http://www.w3.org/2000/svg">
  <style>
    path {
      fill: none;
      stroke-linecap: round;
      stroke-opacity: 0.4;
    }

    text {
      text-anchor: middle;
      alignment-baseline: hanging;
    }
  </style>
  <g opacity="0.4">
<path d="M1.051 0.540 Q0.911 0.451 0.706 0.500" stroke="hsl(0.0,100%,35%)" stroke-width="0.00382"></path>
<path d="M1.051 0.540 Q0.815 0.306 0.308 0.370" stroke="hsl(0.0,100%,35%)" stroke-width="0.00070"></path>
<path d="M1.051 0.540 Q0.779 0.419 0.483 0.525" stroke="hsl(0.0,100%,35%)" stroke-width="0.00035"></path>
<path d="M1.051 0.540 Q0.878 0.598 0.953 0.695" stroke="hsl(0.0,100%,35%)" stroke-width="0.00243"></path>
<path d="M0.706 0.500 Q0.995 0.498 1.055 0.357" stroke="hsl(0.0,100%,35%)" stroke-width="0.00070"></path>
<path d="M0.706 0.500 Q0.492 0.626 0.693 0.759" stroke="hsl(0.0,100%,35%)" stroke-width="0.01808"></path>
<path d="M0.706 0.500 Q0.992 0.442 0.942 0.289" stroke="hsl(0.0,100%,35%)" stroke-width="0.00243"></path>
<path d="M0.706 0.500 Q0.611 0.355 0.308 0.370" stroke="hsl(0.0,100%,35%)" stroke-width="0.00834"></path>
<path d="M0.706 0.500 Q0.575 0.468 0.483 0.525" stroke="hsl(0.0,100%,35%)" stroke-width="0.02399"></path>
<path d="M0.706 0.500 Q0.884 0.486 0.896 0.396" stroke="hsl(0.0,100%,35%)" stroke-width="0.01460"></path>
<path d="M0.706 0.500 Q0.673 0.647 0.953 0.695" stroke="hsl(0.0,100%,35%)" stroke-width="0.01565"></path>
<path d="M0.706 0.500 Q0.499 0.542 0.536 0.653" stroke="hsl(0.0,100%,35%)" stroke-width="0.02955"></path>
<path d="M0.706 0.500 Q0.810 0.565 0.960 0.528" stroke="hsl(0.0,100%,35%)" stroke-width="0.00174"></path>
<path d="M0.706 0.500 Q0.906 0.429 0.813 0.316" stroke="hsl(0.0,100%,35%)" stroke-width="0.00974"></path>
<path d="M0.706 0.500 Q0.320 0.713 0.651 0.948" stroke="hsl(0.0,100%,35%)" stroke-width="0.01217"></path>
<path d="M0.706 0.500 Q1.013 0.370 0.827 0.191" stroke="hsl(0.0,100%,35%)" stroke-width="0.00035"></path>
<path d="M0.706 0.500 Q0.177 0.640 0.334 0.929" stroke="hsl(0.0,100%,35%)" stroke-width="0.00278"></path>
<path d="M0.706 0.500 Q0.800 0.703 1.217 0.702" stroke="hsl(0.0,100%,35%)" stroke-width="0.00139"></path>
<path d="M0.706 0.500 Q0.963 0.687 1.384 0.602" stroke="hsl(0.0,100%,35%)" stroke-width="0.00035"></path>
<path d="M0.706 0.500 Q0.996 0.345 0.757 0.169" stroke="hsl(0.0,100%,35%)" stroke-width="0.00104"></path>
<path d="M0.706 0.500 Q0.847 0.589 1.051 0.540" stroke="hsl(0.0,100%,35%)" stroke-width="0.00035"></path>
<path d="M0.706 0.500 Q0.914 0.663 1.279 0.598" stroke="hsl(0.0,100%,35%)" stroke-width="0.00070"></path>
<path d="M0.706 0.500 Q0.497 0.470 0.393 0.566" stroke="hsl(0.0,100%,35%)" stroke-width="0.00035"></path>
<path d="M0.706 0.500 Q1.013 0.384 0.855 0.209" stroke="hsl(0.0,100%,35%)" stroke-width="0.00035"></path>
<path d="M0.706 0.500 Q0.705 0.521 0.747 0.527" stroke="hsl(0.0,100%,35%)" stroke-width="0.00035"></path>
<path d="M0.706 0.500 Q0.654 0.573 0.785 0.615" stroke="hsl(0.0,100%,35%)" stroke-width="0.00070"></path>
<path d="M0.706 0.500 Q0.941 0.611 1.209 0.521" stroke="hsl(0.0,100%,35%)" stroke-width="0.00035"></path>
<path d="M0.706 0.500 Q1.097 0.476 1.137 0.281" stroke="hsl(0.0,100%,35%)" stroke-width="0.00035"></path>
<path d="M0.308 0.370 Q0.403 0.515 0.706 0.500" stroke="hsl(0.0,100%,35%)" stroke-width="0.03094"></path>
<path d="M0.308 0.370 Q0.272 0.482 0.483 0.525" stroke="hsl(0.0,100%,35%)" stroke-width="0.01565"></path>
<path d="M0.308 0.370 Q0.196 0.557 0.536 0.653" stroke="hsl(0.0,100%,35%)" stroke-width="0.00730"></path>
<path d="M0.308 0.370 Q0.824 0.546 1.281 0.333" stroke="hsl(0.0,100%,35%)" stroke-width="0.00070"></path>
<path d="M0.308 0.370 Q-0.126 0.654 0.334 0.929" stroke="hsl(0.0,100%,35%)" stroke-width="0.00313"></path>
<path d="M0.308 0.370 Q0.189 0.641 0.693 0.759" stroke="hsl(0.0,100%,35%)" stroke-width="0.00765"></path>
<path d="M0.308 0.370 Q0.544 0.603 1.051 0.540" stroke="hsl(0.0,100%,35%)" stroke-width="0.00035"></path>
<path d="M0.308 0.370 Q0.370 0.662 0.953 0.695" stroke="hsl(0.0,100%,35%)" stroke-width="0.00348"></path>
<path d="M0.308 0.370 Q0.507 0.579 0.960 0.528" stroke="hsl(0.0,100%,35%)" stroke-width="0.00174"></path>
<path d="M0.308 0.370 Q0.581 0.500 0.896 0.396" stroke="hsl(0.0,100%,35%)" stroke-width="0.00243"></path>
<path d="M0.308 0.370 Q0.603 0.444 0.813 0.316" stroke="hsl(0.0,100%,35%)" stroke-width="0.00313"></path>
<path d="M0.308 0.370 Q0.017 0.728 0.651 0.948" stroke="hsl(0.0,100%,35%)" stroke-width="0.00243"></path>
<path d="M0.308 0.370 Q1.045 0.565 1.587 0.248" stroke="hsl(0.0,100%,35%)" stroke-width="0.00174"></path>
<path d="M0.308 0.370 Q0.592 0.380 0.675 0.244" stroke="hsl(0.0,100%,35%)" stroke-width="0.00035"></path>
<path d="M0.308 0.370 Q0.693 0.359 0.757 0.169" stroke="hsl(0.0,100%,35%)" stroke-width="0.00070"></path>
<path d="M0.308 0.370 Q0.351 0.588 0.785 0.615" stroke="hsl(0.0,100%,35%)" stroke-width="0.00035"></path>
<path d="M0.308 0.370 Q0.278 0.500 0.525 0.543" stroke="hsl(0.0,100%,35%)" stroke-width="0.00035"></path>
<path d="M0.308 0.370 Q0.238 0.527 0.529 0.595" stroke="hsl(0.0,100%,35%)" stroke-width="0.00070"></path>
<path d="M0.308 0.370 Q0.585 0.399 0.702 0.270" stroke="hsl(0.0,100%,35%)" stroke-width="0.00035"></path>
<path d="M0.308 0.370 Q0.465 0.579 0.907 0.548" stroke="hsl(0.0,100%,35%)" stroke-width="0.00035"></path>
<path d="M0.308 0.370 Q0.353 0.224 0.078 0.170" stroke="hsl(0.0,100%,35%)" stroke-width="0.00035"></path>
<path d="M0.483 0.525 Q0.615 0.557 0.706 0.500" stroke="hsl(0.0,100%,35%)" stroke-width="0.01773"></path>
<path d="M0.483 0.525 Q0.520 0.412 0.308 0.370" stroke="hsl(0.0,100%,35%)" stroke-width="0.00452"></path>
<path d="M0.483 0.525 Q0.228 0.770 0.651 0.948" stroke="hsl(0.0,100%,35%)" stroke-width="0.01182"></path>
<path d="M0.483 0.525 Q0.582 0.704 0.953 0.695" stroke="hsl(0.0,100%,35%)" stroke-width="0.00591"></path>
<path d="M0.483 0.525 Q0.815 0.487 0.813 0.316" stroke="hsl(0.0,100%,35%)" stroke-width="0.00243"></path>
<path d="M0.483 0.525 Q0.947 0.707 1.403 0.520" stroke="hsl(0.0,100%,35%)" stroke-width="0.00035"></path>
<path d="M0.483 0.525 Q0.901 0.499 0.942 0.289" stroke="hsl(0.0,100%,35%)" stroke-width="0.00035"></path>
<path d="M0.483 0.525 Q0.407 0.600 0.536 0.653" stroke="hsl(0.0,100%,35%)" stroke-width="0.00243"></path>
<path d="M0.953 0.695 Q0.986 0.548 0.706 0.500" stroke="hsl(0.0,100%,35%)" stroke-width="0.01252"></path>
<path d="M0.953 0.695 Q0.855 0.516 0.483 0.525" stroke="hsl(0.0,100%,35%)" stroke-width="0.00904"></path>
<path d="M0.953 0.695 Q0.934 0.621 0.785 0.615" stroke="hsl(0.0,100%,35%)" stroke-width="0.00104"></path>
<path d="M0.953 0.695 Q0.599 0.761 0.651 0.948" stroke="hsl(0.0,100%,35%)" stroke-width="0.00174"></path>
<path d="M0.953 0.695 Q0.772 0.675 0.693 0.759" stroke="hsl(0.0,100%,35%)" stroke-width="0.01008"></path>
<path d="M0.953 0.695 Q0.935 0.607 0.759 0.597" stroke="hsl(0.0,100%,35%)" stroke-width="0.00035"></path>
<path d="M0.953 0.695 Q1.221 0.659 1.209 0.521" stroke="hsl(0.0,100%,35%)" stroke-width="0.00070"></path>
<path d="M0.953 0.695 Q0.779 0.591 0.536 0.653" stroke="hsl(0.0,100%,35%)" stroke-width="0.00035"></path>
<path d="M0.953 0.695 Q0.601 0.479 0.101 0.603" stroke="hsl(0.0,100%,35%)" stroke-width="0.00035"></path>
<path d="M0.953 0.695 Q1.249 0.817 1.551 0.699" stroke="hsl(0.0,100%,35%)" stroke-width="0.00070"></path>
<path d="M0.953 0.695 Q1.164 0.534 0.896 0.396" stroke="hsl(0.0,100%,35%)" stroke-width="0.00035"></path>
<path d="M0.953 0.695 Q1.194 0.712 1.279 0.598" stroke="hsl(0.0,100%,35%)" stroke-width="0.00139"></path>
<path d="M0.953 0.695 Q0.457 0.688 0.334 0.929" stroke="hsl(0.0,100%,35%)" stroke-width="0.00070"></path>
<path d="M0.953 0.695 Q0.891 0.404 0.308 0.370" stroke="hsl(0.0,100%,35%)" stroke-width="0.00382"></path>
<path d="M0.953 0.695 Q1.080 0.752 1.217 0.702" stroke="hsl(0.0,100%,35%)" stroke-width="0.00035"></path>
<path d="M0.953 0.695 Q0.826 0.663 0.735 0.718" stroke="hsl(0.0,100%,35%)" stroke-width="0.00104"></path>
<path d="M0.953 0.695 Q1.276 0.393 0.757 0.169" stroke="hsl(0.0,100%,35%)" stroke-width="0.00035"></path>
<path d="M0.953 0.695 Q0.975 0.743 1.073 0.743" stroke="hsl(0.0,100%,35%)" stroke-width="0.00035"></path>
<path d="M0.740 0.571 Q0.781 0.529 0.706 0.500" stroke="hsl(0.0,100%,35%)" stroke-width="0.00070"></path>
<path d="M0.740 0.571 Q0.685 0.384 0.308 0.370" stroke="hsl(0.0,100%,35%)" stroke-width="0.00035"></path>
<path d="M0.740 0.571 Q0.748 0.676 0.953 0.695" stroke="hsl(0.0,100%,35%)" stroke-width="0.00070"></path>
<path d="M0.316 0.581 Q0.191 0.549 0.101 0.603" stroke="hsl(0.0,100%,35%)" stroke-width="0.00070"></path>
<path d="M0.316 0.581 Q0.481 0.474 0.308 0.370" stroke="hsl(0.0,100%,35%)" stroke-width="0.00070"></path>
<path d="M0.316 0.581 Q0.543 0.766 0.953 0.695" stroke="hsl(0.0,100%,35%)" stroke-width="0.00035"></path>
<path d="M0.101 0.603 Q0.487 0.673 0.706 0.500" stroke="hsl(0.0,100%,35%)" stroke-width="0.00243"></path>
<path d="M0.101 0.603 Q0.355 0.641 0.483 0.525" stroke="hsl(0.0,100%,35%)" stroke-width="0.00070"></path>
<path d="M0.101 0.603 Q0.454 0.820 0.953 0.695" stroke="hsl(0.0,100%,35%)" stroke-width="0.00104"></path>
<path d="M0.675 0.244 Q0.355 0.346 0.483 0.525" stroke="hsl(0.0,100%,35%)" stroke-width="0.00070"></path>
<path d="M0.675 0.244 Q0.772 0.320 0.942 0.289" stroke="hsl(0.0,100%,35%)" stroke-width="0.00035"></path>
<path d="M0.675 0.244 Q0.486 0.378 0.706 0.500" stroke="hsl(0.0,100%,35%)" stroke-width="0.00452"></path>
<path d="M0.675 0.244 Q0.279 0.421 0.536 0.653" stroke="hsl(0.0,100%,35%)" stroke-width="0.00104"></path>
<path d="M0.675 0.244 Q0.590 0.443 0.960 0.528" stroke="hsl(0.0,100%,35%)" stroke-width="0.00070"></path>
<path d="M0.675 0.244 Q0.686 0.308 0.813 0.316" stroke="hsl(0.0,100%,35%)" stroke-width="0.00070"></path>
<path d="M0.675 0.244 Q0.391 0.234 0.308 0.370" stroke="hsl(0.0,100%,35%)" stroke-width="0.00174"></path>
<path d="M0.942 0.289 Q0.623 0.495 0.953 0.695" stroke="hsl(0.0,100%,35%)" stroke-width="0.00035"></path>
<path d="M0.942 0.289 Q0.656 0.348 0.706 0.500" stroke="hsl(0.0,100%,35%)" stroke-width="0.00591"></path>
<path d="M0.942 0.289 Q0.269 0.561 0.651 0.948" stroke="hsl(0.0,100%,35%)" stroke-width="0.00313"></path>
<path d="M0.942 0.289 Q0.561 0.203 0.308 0.370" stroke="hsl(0.0,100%,35%)" stroke-width="0.00243"></path>
<path d="M0.942 0.289 Q0.524 0.315 0.483 0.525" stroke="hsl(0.0,100%,35%)" stroke-width="0.00278"></path>
<path d="M0.942 0.289 Q0.491 0.360 0.529 0.595" stroke="hsl(0.0,100%,35%)" stroke-width="0.00035"></path>
<path d="M0.942 0.289 Q0.856 0.277 0.813 0.316" stroke="hsl(0.0,100%,35%)" stroke-width="0.00104"></path>
<path d="M0.536 0.653 Q0.744 0.610 0.706 0.500" stroke="hsl(0.0,100%,35%)" stroke-width="0.02051"></path>
<path d="M0.536 0.653 Q1.164 0.642 1.281 0.333" stroke="hsl(0.0,100%,35%)" stroke-width="0.00174"></path>
<path d="M0.536 0.653 Q0.357 0.824 0.651 0.948" stroke="hsl(0.0,100%,35%)" stroke-width="0.01043"></path>
<path d="M0.536 0.653 Q0.612 0.578 0.483 0.525" stroke="hsl(0.0,100%,35%)" stroke-width="0.00209"></path>
<path d="M0.536 0.653 Q0.711 0.758 0.953 0.695" stroke="hsl(0.0,100%,35%)" stroke-width="0.00104"></path>
<path d="M0.536 0.653 Q0.649 0.466 0.308 0.370" stroke="hsl(0.0,100%,35%)" stroke-width="0.00174"></path>
<path d="M0.536 0.653 Q0.922 0.596 0.896 0.396" stroke="hsl(0.0,100%,35%)" stroke-width="0.00035"></path>
<path d="M0.536 0.653 Q0.214 0.750 0.334 0.929" stroke="hsl(0.0,100%,35%)" stroke-width="0.00070"></path>
<path d="M0.536 0.653 Q0.944 0.540 0.813 0.316" stroke="hsl(0.0,100%,35%)" stroke-width="0.00035"></path>
<path d="M0.536 0.653 Q0.530 0.737 0.693 0.759" stroke="hsl(0.0,100%,35%)" stroke-width="0.00035"></path>
<path d="M0.536 0.653 Q0.743 0.632 0.747 0.527" stroke="hsl(0.0,100%,35%)" stroke-width="0.00070"></path>
<path d="M0.960 0.528 Q0.856 0.463 0.706 0.500" stroke="hsl(0.0,100%,35%)" stroke-width="0.01078"></path>
<path d="M0.960 0.528 Q0.761 0.319 0.308 0.370" stroke="hsl(0.0,100%,35%)" stroke-width="0.00452"></path>
<path d="M0.960 0.528 Q0.469 0.677 0.651 0.948" stroke="hsl(0.0,100%,35%)" stroke-width="0.00243"></path>
<path d="M0.960 0.528 Q0.823 0.611 0.953 0.695" stroke="hsl(0.0,100%,35%)" stroke-width="0.00348"></path>
<path d="M0.960 0.528 Q1.056 0.393 0.813 0.316" stroke="hsl(0.0,100%,35%)" stroke-width="0.00139"></path>
<path d="M0.960 0.528 Q0.648 0.506 0.536 0.653" stroke="hsl(0.0,100%,35%)" stroke-width="0.00035"></path>
<path d="M0.813 0.316 Q0.613 0.387 0.706 0.500" stroke="hsl(0.0,100%,35%)" stroke-width="0.01704"></path>
<path d="M0.813 0.316 Q0.518 0.242 0.308 0.370" stroke="hsl(0.0,100%,35%)" stroke-width="0.00417"></path>
<path d="M0.813 0.316 Q0.717 0.452 0.960 0.528" stroke="hsl(0.0,100%,35%)" stroke-width="0.00035"></path>
<path d="M0.813 0.316 Q0.899 0.329 0.942 0.289" stroke="hsl(0.0,100%,35%)" stroke-width="0.00348"></path>
<path d="M0.813 0.316 Q0.083 0.527 0.334 0.929" stroke="hsl(0.0,100%,35%)" stroke-width="0.00104"></path>
<path d="M0.813 0.316 Q0.481 0.355 0.483 0.525" stroke="hsl(0.0,100%,35%)" stroke-width="0.00417"></path>
<path d="M0.813 0.316 Q0.226 0.600 0.651 0.948" stroke="hsl(0.0,100%,35%)" stroke-width="0.00626"></path>
<path d="M0.813 0.316 Q0.791 0.373 0.896 0.396" stroke="hsl(0.0,100%,35%)" stroke-width="0.00035"></path>
<path d="M0.813 0.316 Q0.399 0.513 0.693 0.759" stroke="hsl(0.0,100%,35%)" stroke-width="0.00070"></path>
<path d="M0.813 0.316 Q0.405 0.429 0.536 0.653" stroke="hsl(0.0,100%,35%)" stroke-width="0.00035"></path>
<path d="M0.813 0.316 Q0.580 0.534 0.953 0.695" stroke="hsl(0.0,100%,35%)" stroke-width="0.00035"></path>
<path d="M0.813 0.316 Q0.560 0.460 0.785 0.615" stroke="hsl(0.0,100%,35%)" stroke-width="0.00035"></path>
<path d="M0.813 0.316 Q0.706 0.590 1.217 0.702" stroke="hsl(0.0,100%,35%)" stroke-width="0.00035"></path>
<path d="M1.055 0.357 Q0.767 0.359 0.706 0.500" stroke="hsl(0.0,100%,35%)" stroke-width="0.00104"></path>
<path d="M1.055 0.357 Q0.945 0.345 0.896 0.396" stroke="hsl(0.0,100%,35%)" stroke-width="0.00035"></path>
<path d="M1.055 0.357 Q0.553 0.486 0.693 0.759" stroke="hsl(0.0,100%,35%)" stroke-width="0.00035"></path>
<path d="M0.896 0.396 Q0.718 0.410 0.706 0.500" stroke="hsl(0.0,100%,35%)" stroke-width="0.00765"></path>
<path d="M0.896 0.396 Q0.504 0.537 0.693 0.759" stroke="hsl(0.0,100%,35%)" stroke-width="0.00035"></path>
<path d="M0.896 0.396 Q0.685 0.557 0.953 0.695" stroke="hsl(0.0,100%,35%)" stroke-width="0.00174"></path>
<path d="M0.896 0.396 Q0.331 0.623 0.651 0.948" stroke="hsl(0.0,100%,35%)" stroke-width="0.00035"></path>
<path d="M0.896 0.396 Q0.623 0.265 0.308 0.370" stroke="hsl(0.0,100%,35%)" stroke-width="0.00070"></path>
<path d="M0.693 0.759 Q0.874 0.779 0.953 0.695" stroke="hsl(0.0,100%,35%)" stroke-width="0.00869"></path>
<path d="M0.693 0.759 Q0.811 0.487 0.308 0.370" stroke="hsl(0.0,100%,35%)" stroke-width="0.00313"></path>
<path d="M0.693 0.759 Q0.907 0.632 0.706 0.500" stroke="hsl(0.0,100%,35%)" stroke-width="0.00939"></path>
<path d="M0.693 0.759 Q1.107 0.561 0.813 0.316" stroke="hsl(0.0,100%,35%)" stroke-width="0.00070"></path>
<path d="M0.693 0.759 Q0.775 0.600 0.483 0.525" stroke="hsl(0.0,100%,35%)" stroke-width="0.00035"></path>
<path d="M0.693 0.759 Q1.000 0.835 1.217 0.702" stroke="hsl(0.0,100%,35%)" stroke-width="0.00070"></path>
<path d="M0.693 0.759 Q1.115 0.795 1.279 0.598" stroke="hsl(0.0,100%,35%)" stroke-width="0.00070"></path>
<path d="M0.651 0.948 Q0.508 0.875 0.334 0.929" stroke="hsl(0.0,100%,35%)" stroke-width="0.00278"></path>
<path d="M0.651 0.948 Q1.037 0.735 0.706 0.500" stroke="hsl(0.0,100%,35%)" stroke-width="0.00765"></path>
<path d="M0.651 0.948 Q0.830 0.778 0.536 0.653" stroke="hsl(0.0,100%,35%)" stroke-width="0.00348"></path>
<path d="M0.651 0.948 Q1.004 0.882 0.953 0.695" stroke="hsl(0.0,100%,35%)" stroke-width="0.00417"></path>
<path d="M0.651 0.948 Q0.942 0.591 0.308 0.370" stroke="hsl(0.0,100%,35%)" stroke-width="0.00243"></path>
<path d="M0.651 0.948 Q0.906 0.703 0.483 0.525" stroke="hsl(0.0,100%,35%)" stroke-width="0.00104"></path>
<path d="M0.651 0.948 Q1.237 0.665 0.813 0.316" stroke="hsl(0.0,100%,35%)" stroke-width="0.00348"></path>
<path d="M0.651 0.948 Q1.300 1.004 1.551 0.699" stroke="hsl(0.0,100%,35%)" stroke-width="0.00035"></path>
<path d="M0.735 0.718 Q0.862 0.750 0.953 0.695" stroke="hsl(0.0,100%,35%)" stroke-width="0.00626"></path>
<path d="M0.735 0.718 Q0.800 0.459 0.308 0.370" stroke="hsl(0.0,100%,35%)" stroke-width="0.00139"></path>
<path d="M0.735 0.718 Q0.895 0.603 0.706 0.500" stroke="hsl(0.0,100%,35%)" stroke-width="0.00487"></path>
<path d="M0.735 0.718 Q0.681 0.730 0.693 0.759" stroke="hsl(0.0,100%,35%)" stroke-width="0.00070"></path>
<path d="M1.281 0.333 Q0.653 0.344 0.536 0.653" stroke="hsl(0.0,100%,35%)" stroke-width="0.00243"></path>
<path d="M1.281 0.333 Q0.861 0.302 0.706 0.500" stroke="hsl(0.0,100%,35%)" stroke-width="0.00382"></path>
<path d="M1.281 0.333 Q0.765 0.157 0.308 0.370" stroke="hsl(0.0,100%,35%)" stroke-width="0.00139"></path>
<path d="M0.334 0.929 Q0.863 0.789 0.706 0.500" stroke="hsl(0.0,100%,35%)" stroke-width="0.00904"></path>
<path d="M0.334 0.929 Q0.476 1.002 0.651 0.948" stroke="hsl(0.0,100%,35%)" stroke-width="0.00834"></path>
<path d="M0.334 0.929 Q0.768 0.644 0.308 0.370" stroke="hsl(0.0,100%,35%)" stroke-width="0.00417"></path>
<path d="M0.334 0.929 Q0.655 0.831 0.536 0.653" stroke="hsl(0.0,100%,35%)" stroke-width="0.00522"></path>
<path d="M0.334 0.929 Q0.830 0.936 0.953 0.695" stroke="hsl(0.0,100%,35%)" stroke-width="0.00243"></path>
<path d="M0.334 0.929 Q1.041 0.775 0.896 0.396" stroke="hsl(0.0,100%,35%)" stroke-width="0.00035"></path>
<path d="M0.334 0.929 Q1.063 0.718 0.813 0.316" stroke="hsl(0.0,100%,35%)" stroke-width="0.00070"></path>
<path d="M0.334 0.929 Q0.967 0.854 0.960 0.528" stroke="hsl(0.0,100%,35%)" stroke-width="0.00035"></path>
<path d="M1.551 0.699 Q1.074 0.557 0.693 0.759" stroke="hsl(0.0,100%,35%)" stroke-width="0.00174"></path>
<path d="M1.551 0.699 Q1.381 0.634 1.217 0.702" stroke="hsl(0.0,100%,35%)" stroke-width="0.00348"></path>
<path d="M1.551 0.699 Q1.255 0.578 0.953 0.695" stroke="hsl(0.0,100%,35%)" stroke-width="0.00348"></path>
<path d="M1.551 0.699 Q1.288 0.430 0.706 0.500" stroke="hsl(0.0,100%,35%)" stroke-width="0.00382"></path>
<path d="M1.551 0.699 Q1.193 0.286 0.308 0.370" stroke="hsl(0.0,100%,35%)" stroke-width="0.00070"></path>
<path d="M1.279 0.598 Q1.038 0.581 0.953 0.695" stroke="hsl(0.0,100%,35%)" stroke-width="0.00104"></path>
<path d="M1.279 0.598 Q0.857 0.561 0.693 0.759" stroke="hsl(0.0,100%,35%)" stroke-width="0.00070"></path>
<path d="M1.279 0.598 Q1.071 0.434 0.706 0.500" stroke="hsl(0.0,100%,35%)" stroke-width="0.00104"></path>
<path d="M0.367 0.775 Q0.227 0.845 0.334 0.929" stroke="hsl(0.0,100%,35%)" stroke-width="0.00035"></path>
<path d="M0.367 0.775 Q0.757 0.705 0.706 0.500" stroke="hsl(0.0,100%,35%)" stroke-width="0.00035"></path>
<path d="M0.367 0.775 Q0.724 0.852 0.953 0.695" stroke="hsl(0.0,100%,35%)" stroke-width="0.00035"></path>
<path d="M1.137 0.281 Q0.651 0.160 0.308 0.370" stroke="hsl(0.0,100%,35%)" stroke-width="0.00348"></path>
<path d="M1.137 0.281 Q0.360 0.517 0.651 0.948" stroke="hsl(0.0,100%,35%)" stroke-width="0.00104"></path>
<path d="M1.137 0.281 Q0.747 0.304 0.706 0.500" stroke="hsl(0.0,100%,35%)" stroke-width="0.00209"></path>
<path d="M1.137 0.281 Q0.615 0.272 0.483 0.525" stroke="hsl(0.0,100%,35%)" stroke-width="0.00035"></path>
<path d="M0.914 0.244 Q0.605 0.330 0.706 0.500" stroke="hsl(0.0,100%,35%)" stroke-width="0.00070"></path>
<path d="M0.914 0.244 Q0.076 0.470 0.334 0.929" stroke="hsl(0.0,100%,35%)" stroke-width="0.00035"></path>
<path d="M0.914 0.244 Q0.510 0.186 0.308 0.370" stroke="hsl(0.0,100%,35%)" stroke-width="0.00139"></path>
<path d="M0.393 0.566 Q0.603 0.595 0.706 0.500" stroke="hsl(0.0,100%,35%)" stroke-width="0.00382"></path>
<path d="M0.393 0.566 Q0.889 0.537 0.942 0.289" stroke="hsl(0.0,100%,35%)" stroke-width="0.00035"></path>
<path d="M0.393 0.566 Q0.569 0.743 0.953 0.695" stroke="hsl(0.0,100%,35%)" stroke-width="0.00035"></path>
<path d="M0.393 0.566 Q0.507 0.451 0.308 0.370" stroke="hsl(0.0,100%,35%)" stroke-width="0.00070"></path>
<path d="M0.785 0.615 Q0.804 0.689 0.953 0.695" stroke="hsl(0.0,100%,35%)" stroke-width="0.00348"></path>
<path d="M0.785 0.615 Q0.837 0.541 0.706 0.500" stroke="hsl(0.0,100%,35%)" stroke-width="0.00452"></path>
<path d="M0.785 0.615 Q1.037 0.471 0.813 0.316" stroke="hsl(0.0,100%,35%)" stroke-width="0.00035"></path>
<path d="M0.759 0.597 Q0.777 0.685 0.953 0.695" stroke="hsl(0.0,100%,35%)" stroke-width="0.00382"></path>
<path d="M0.759 0.597 Q0.596 0.664 0.693 0.759" stroke="hsl(0.0,100%,35%)" stroke-width="0.00209"></path>
<path d="M0.759 0.597 Q0.810 0.538 0.706 0.500" stroke="hsl(0.0,100%,35%)" stroke-width="0.00522"></path>
<path d="M0.759 0.597 Q0.715 0.393 0.308 0.370" stroke="hsl(0.0,100%,35%)" stroke-width="0.00035"></path>
<path d="M0.759 0.597 Q0.904 0.741 1.217 0.702" stroke="hsl(0.0,100%,35%)" stroke-width="0.00035"></path>
<path d="M1.217 0.702 Q1.091 0.646 0.953 0.695" stroke="hsl(0.0,100%,35%)" stroke-width="0.00348"></path>
<path d="M1.217 0.702 Q0.910 0.626 0.693 0.759" stroke="hsl(0.0,100%,35%)" stroke-width="0.00278"></path>
<path d="M1.217 0.702 Q1.302 0.485 0.896 0.396" stroke="hsl(0.0,100%,35%)" stroke-width="0.00035"></path>
<path d="M1.217 0.702 Q1.124 0.499 0.706 0.500" stroke="hsl(0.0,100%,35%)" stroke-width="0.00209"></path>
<path d="M1.217 0.702 Q1.029 0.354 0.308 0.370" stroke="hsl(0.0,100%,35%)" stroke-width="0.00104"></path>
<path d="M1.217 0.702 Q1.387 0.767 1.551 0.699" stroke="hsl(0.0,100%,35%)" stroke-width="0.00070"></path>
<path d="M1.217 0.702 Q1.447 0.661 1.416 0.539" stroke="hsl(0.0,100%,35%)" stroke-width="0.00035"></path>
<path d="M0.757 0.169 Q0.467 0.325 0.706 0.500" stroke="hsl(0.0,100%,35%)" stroke-width="0.01113"></path>
<path d="M0.757 0.169 Q0.080 0.538 0.651 0.948" stroke="hsl(0.0,100%,35%)" stroke-width="0.00035"></path>
<path d="M0.757 0.169 Q0.434 0.472 0.953 0.695" stroke="hsl(0.0,100%,35%)" stroke-width="0.00417"></path>
<path d="M0.757 0.169 Q-0.062 0.464 0.334 0.929" stroke="hsl(0.0,100%,35%)" stroke-width="0.00035"></path>
<path d="M0.757 0.169 Q0.372 0.180 0.308 0.370" stroke="hsl(0.0,100%,35%)" stroke-width="0.00209"></path>
<path d="M0.757 0.169 Q0.335 0.292 0.483 0.525" stroke="hsl(0.0,100%,35%)" stroke-width="0.00035"></path>
<path d="M0.907 0.548 Q0.846 0.484 0.706 0.500" stroke="hsl(0.0,100%,35%)" stroke-width="0.00278"></path>
<path d="M0.907 0.548 Q1.046 0.413 0.813 0.316" stroke="hsl(0.0,100%,35%)" stroke-width="0.00035"></path>
<path d="M0.907 0.548 Q0.638 0.526 0.536 0.653" stroke="hsl(0.0,100%,35%)" stroke-width="0.00035"></path>
<path d="M0.907 0.548 Q0.950 0.549 0.960 0.528" stroke="hsl(0.0,100%,35%)" stroke-width="0.00070"></path>
<path d="M0.907 0.548 Q0.750 0.339 0.308 0.370" stroke="hsl(0.0,100%,35%)" stroke-width="0.00070"></path>
<path d="M0.907 0.548 Q0.813 0.631 0.953 0.695" stroke="hsl(0.0,100%,35%)" stroke-width="0.00070"></path>
<path d="M0.696 0.580 Q0.766 0.542 0.706 0.500" stroke="hsl(0.0,100%,35%)" stroke-width="0.00313"></path>
<path d="M0.696 0.580 Q0.379 0.755 0.651 0.948" stroke="hsl(0.0,100%,35%)" stroke-width="0.00035"></path>
<path d="M0.696 0.580 Q0.869 0.607 0.960 0.528" stroke="hsl(0.0,100%,35%)" stroke-width="0.00070"></path>
<path d="M0.696 0.580 Q0.732 0.689 0.953 0.695" stroke="hsl(0.0,100%,35%)" stroke-width="0.00104"></path>
<path d="M0.947 0.272 Q0.612 0.485 0.953 0.695" stroke="hsl(0.0,100%,35%)" stroke-width="0.00104"></path>
<path d="M0.947 0.272 Q0.431 0.464 0.693 0.759" stroke="hsl(0.0,100%,35%)" stroke-width="0.00035"></path>
<path d="M0.947 0.272 Q0.645 0.338 0.706 0.500" stroke="hsl(0.0,100%,35%)" stroke-width="0.00139"></path>
<path d="M1.587 0.248 Q0.945 0.198 0.706 0.500" stroke="hsl(0.0,100%,35%)" stroke-width="0.00070"></path>
<path d="M1.587 0.248 Q0.912 0.345 0.953 0.695" stroke="hsl(0.0,100%,35%)" stroke-width="0.00070"></path>
<path d="M1.587 0.248 Q0.731 0.325 0.693 0.759" stroke="hsl(0.0,100%,35%)" stroke-width="0.00035"></path>
<path d="M0.575 0.272 Q0.458 0.412 0.706 0.500" stroke="hsl(0.0,100%,35%)" stroke-width="0.00139"></path>
<path d="M0.575 0.272 Q0.244 0.539 0.693 0.759" stroke="hsl(0.0,100%,35%)" stroke-width="0.00035"></path>
<path d="M0.575 0.272 Q0.425 0.559 0.953 0.695" stroke="hsl(0.0,100%,35%)" stroke-width="0.00035"></path>
<path d="M1.384 0.602 Q0.914 0.542 0.693 0.759" stroke="hsl(0.0,100%,35%)" stroke-width="0.00070"></path>
<path d="M1.384 0.602 Q1.305 0.401 0.896 0.396" stroke="hsl(0.0,100%,35%)" stroke-width="0.00035"></path>
<path d="M1.384 0.602 Q1.094 0.563 0.953 0.695" stroke="hsl(0.0,100%,35%)" stroke-width="0.00035"></path>
<path d="M1.384 0.602 Q1.128 0.416 0.706 0.500" stroke="hsl(0.0,100%,35%)" stroke-width="0.00104"></path>
<path d="M0.833 0.566 Q0.790 0.655 0.953 0.695" stroke="hsl(0.0,100%,35%)" stroke-width="0.00070"></path>
<path d="M0.833 0.566 Q0.823 0.508 0.706 0.500" stroke="hsl(0.0,100%,35%)" stroke-width="0.00035"></path>
<path d="M0.833 0.566 Q0.916 0.711 1.217 0.702" stroke="hsl(0.0,100%,35%)" stroke-width="0.00035"></path>
<path d="M0.833 0.566 Q0.728 0.363 0.308 0.370" stroke="hsl(0.0,100%,35%)" stroke-width="0.00035"></path>
<path d="M0.833 0.566 Q1.058 0.619 1.209 0.521" stroke="hsl(0.0,100%,35%)" stroke-width="0.00035"></path>
<path d="M1.029 0.562 Q0.917 0.466 0.706 0.500" stroke="hsl(0.0,100%,35%)" stroke-width="0.01008"></path>
<path d="M1.029 0.562 Q0.703 0.593 0.693 0.759" stroke="hsl(0.0,100%,35%)" stroke-width="0.00452"></path>
<path d="M1.029 0.562 Q1.125 0.630 1.279 0.598" stroke="hsl(0.0,100%,35%)" stroke-width="0.00070"></path>
<path d="M1.029 0.562 Q0.884 0.613 0.953 0.695" stroke="hsl(0.0,100%,35%)" stroke-width="0.00209"></path>
<path d="M0.737 0.266 Q0.735 0.306 0.813 0.316" stroke="hsl(0.0,100%,35%)" stroke-width="0.00313"></path>
<path d="M0.737 0.266 Q0.535 0.377 0.706 0.500" stroke="hsl(0.0,100%,35%)" stroke-width="0.00800"></path>
<path d="M0.737 0.266 Q0.502 0.524 0.953 0.695" stroke="hsl(0.0,100%,35%)" stroke-width="0.00035"></path>
<path d="M0.737 0.266 Q0.439 0.232 0.308 0.370" stroke="hsl(0.0,100%,35%)" stroke-width="0.00035"></path>
<path d="M0.737 0.266 Q0.403 0.345 0.483 0.525" stroke="hsl(0.0,100%,35%)" stroke-width="0.00070"></path>
<path d="M0.737 0.266 Q0.005 0.517 0.334 0.929" stroke="hsl(0.0,100%,35%)" stroke-width="0.00035"></path>
<path d="M0.640 0.700 Q0.800 0.760 0.953 0.695" stroke="hsl(0.0,100%,35%)" stroke-width="0.00139"></path>
<path d="M0.640 0.700 Q0.448 0.544 0.101 0.603" stroke="hsl(0.0,100%,35%)" stroke-width="0.00104"></path>
<path d="M0.640 0.700 Q0.833 0.613 0.706 0.500" stroke="hsl(0.0,100%,35%)" stroke-width="0.00139"></path>
<path d="M0.286 0.529 Q0.424 0.454 0.308 0.370" stroke="hsl(0.0,100%,35%)" stroke-width="0.00070"></path>
<path d="M0.286 0.529 Q0.486 0.746 0.953 0.695" stroke="hsl(0.0,100%,35%)" stroke-width="0.00035"></path>
<path d="M0.286 0.529 Q0.519 0.598 0.706 0.500" stroke="hsl(0.0,100%,35%)" stroke-width="0.00035"></path>
<path d="M1.403 0.520 Q1.038 0.518 0.953 0.695" stroke="hsl(0.0,100%,35%)" stroke-width="0.00348"></path>
<path d="M1.403 0.520 Q1.071 0.370 0.706 0.500" stroke="hsl(0.0,100%,35%)" stroke-width="0.00313"></path>
<path d="M1.403 0.520 Q0.857 0.497 0.693 0.759" stroke="hsl(0.0,100%,35%)" stroke-width="0.00035"></path>
<path d="M1.403 0.520 Q1.334 0.639 1.551 0.699" stroke="hsl(0.0,100%,35%)" stroke-width="0.00035"></path>
<path d="M1.403 0.520 Q1.164 0.574 1.217 0.702" stroke="hsl(0.0,100%,35%)" stroke-width="0.00104"></path>
<path d="M0.702 0.270 Q0.487 0.533 0.953 0.695" stroke="hsl(0.0,100%,35%)" stroke-width="0.00035"></path>
<path d="M0.702 0.270 Q0.521 0.386 0.706 0.500" stroke="hsl(0.0,100%,35%)" stroke-width="0.00278"></path>
<path d="M0.702 0.270 Q0.425 0.241 0.308 0.370" stroke="hsl(0.0,100%,35%)" stroke-width="0.00070"></path>
<path d="M0.702 0.270 Q0.313 0.428 0.536 0.653" stroke="hsl(0.0,100%,35%)" stroke-width="0.00070"></path>
<path d="M0.702 0.270 Q-0.009 0.526 0.334 0.929" stroke="hsl(0.0,100%,35%)" stroke-width="0.00139"></path>
<path d="M0.815 0.280 Q0.198 0.581 0.651 0.948" stroke="hsl(0.0,100%,35%)" stroke-width="0.00035"></path>
<path d="M0.815 0.280 Q0.585 0.368 0.706 0.500" stroke="hsl(0.0,100%,35%)" stroke-width="0.00174"></path>
<path d="M0.815 0.280 Q0.453 0.336 0.483 0.525" stroke="hsl(0.0,100%,35%)" stroke-width="0.00035"></path>
<path d="M1.099 0.501 Q0.809 0.277 0.308 0.370" stroke="hsl(0.0,100%,35%)" stroke-width="0.00070"></path>
<path d="M1.099 0.501 Q0.834 0.460 0.696 0.580" stroke="hsl(0.0,100%,35%)" stroke-width="0.00035"></path>
<path d="M1.099 0.501 Q0.904 0.422 0.706 0.500" stroke="hsl(0.0,100%,35%)" stroke-width="0.00278"></path>
<path d="M1.099 0.501 Q0.871 0.569 0.953 0.695" stroke="hsl(0.0,100%,35%)" stroke-width="0.00104"></path>
<path d="M1.265 0.251 Q0.753 0.411 0.953 0.695" stroke="hsl(0.0,100%,35%)" stroke-width="0.00035"></path>
<path d="M1.265 0.251 Q0.880 0.467 1.217 0.702" stroke="hsl(0.0,100%,35%)" stroke-width="0.00104"></path>
<path d="M1.265 0.251 Q1.428 0.314 1.587 0.248" stroke="hsl(0.0,100%,35%)" stroke-width="0.00104"></path>
<path d="M1.265 0.251 Q0.787 0.264 0.706 0.500" stroke="hsl(0.0,100%,35%)" stroke-width="0.00139"></path>
<path d="M1.265 0.251 Q0.691 0.119 0.308 0.370" stroke="hsl(0.0,100%,35%)" stroke-width="0.00104"></path>
</g>
<text x="1.051" y="0.533" font-size="0.014685" fill="hsl(0.0,100%,20%)">amaiorano</text>
<text x="0.706" y="0.448" font-size="0.103071" fill="hsl(0.0,100%,20%)">jmadill</text>
<text x="0.308" y="0.339" font-size="0.062455" fill="hsl(0.0,100%,20%)">syoussefi</text>
<text x="0.483" y="0.498" font-size="0.054001" fill="hsl(0.0,100%,20%)">timvp</text>
<text x="0.953" y="0.665" font-size="0.060935" fill="hsl(0.0,100%,20%)">geofflang</text>
<text x="0.740" y="0.568" font-size="0.006847" fill="hsl(0.0,100%,20%)">amy.liu</text>
<text x="0.316" y="0.578" font-size="0.006847" fill="hsl(0.0,100%,20%)">artyom</text>
<text x="0.101" y="0.597" font-size="0.012991" fill="hsl(0.0,100%,20%)">rafael.cintron</text>
<text x="0.675" y="0.236" font-size="0.016490" fill="hsl(0.0,100%,20%)">b.schade</text>
<text x="0.942" y="0.277" font-size="0.024877" fill="hsl(0.0,100%,20%)">cclao</text>
<text x="0.536" y="0.628" font-size="0.050222" fill="hsl(0.0,100%,20%)">cnorthrop</text>
<text x="0.960" y="0.514" font-size="0.028065" fill="hsl(0.0,100%,20%)">m.maiya</text>
<text x="0.813" y="0.295" font-size="0.042319" fill="hsl(0.0,100%,20%)">tobine</text>
<text x="1.055" y="0.353" font-size="0.008102" fill="hsl(0.0,100%,20%)">bsheedy</text>
<text x="0.896" y="0.381" font-size="0.028561" fill="hsl(0.0,100%,20%)">ynovikov</text>
<text x="0.693" y="0.736" font-size="0.045211" fill="hsl(0.0,100%,20%)">jonahr</text>
<text x="0.651" y="0.924" font-size="0.048319" fill="hsl(0.0,100%,20%)">courtneygo</text>
<text x="0.529" y="0.593" font-size="0.005304" fill="hsl(0.0,100%,20%)">sunny.sun</text>
<text x="0.735" y="0.708" font-size="0.019607" fill="hsl(0.0,100%,20%)">clemendeng</text>
<text x="1.281" y="0.325" font-size="0.016490" fill="hsl(0.0,100%,20%)">nguyenmh</text>
<text x="0.334" y="0.911" font-size="0.034644" fill="hsl(0.0,100%,20%)">ianelliott</text>
<text x="0.747" y="0.524" font-size="0.005304" fill="hsl(0.0,100%,20%)">lfy</text>
<text x="1.551" y="0.689" font-size="0.020312" fill="hsl(0.0,100%,20%)">jdarpinian</text>
<text x="1.279" y="0.591" font-size="0.012991" fill="hsl(0.0,100%,20%)">cwallez</text>
<text x="0.367" y="0.772" font-size="0.005304" fill="hsl(0.0,100%,20%)">davidben</text>
<text x="1.137" y="0.274" font-size="0.014032" fill="hsl(0.0,100%,20%)">dongja</text>
<text x="0.914" y="0.240" font-size="0.008102" fill="hsl(0.0,100%,20%)">ericbinet</text>
<text x="0.393" y="0.560" font-size="0.012248" fill="hsl(0.0,100%,20%)">flibitijibibo</text>
<text x="0.785" y="0.606" font-size="0.017049" fill="hsl(0.0,100%,20%)">sugoi</text>
<text x="0.759" y="0.588" font-size="0.018116" fill="hsl(0.0,100%,20%)">lexa.knyazev</text>
<text x="1.209" y="0.518" font-size="0.006124" fill="hsl(0.0,100%,20%)">zmo</text>
<text x="1.217" y="0.691" font-size="0.023118" fill="hsl(0.0,100%,20%)">kbr</text>
<text x="0.757" y="0.158" font-size="0.023520" fill="hsl(0.0,100%,20%)">spang</text>
<text x="1.073" y="0.741" font-size="0.003062" fill="hsl(0.0,100%,20%)">brianosman</text>
<text x="0.907" y="0.542" font-size="0.012625" fill="hsl(0.0,100%,20%)">hckim.kim</text>
<text x="0.696" y="0.574" font-size="0.012248" fill="hsl(0.0,100%,20%)">j.vigil</text>
<text x="0.947" y="0.268" font-size="0.008661" fill="hsl(0.0,100%,20%)">jgilbert</text>
<text x="1.587" y="0.243" font-size="0.011041" fill="hsl(0.0,100%,20%)">jiajia.qin</text>
<text x="0.575" y="0.268" font-size="0.007501" fill="hsl(0.0,100%,20%)">jie.a.chen</text>
<text x="0.827" y="0.190" font-size="0.003062" fill="hsl(0.0,100%,20%)">nicolascapens</text>
<text x="1.384" y="0.598" font-size="0.008661" fill="hsl(0.0,100%,20%)">julien.isorce</text>
<text x="0.855" y="0.208" font-size="0.003062" fill="hsl(0.0,100%,20%)">le.hoang.q</text>
<text x="1.416" y="0.538" font-size="0.003062" fill="hsl(0.0,100%,20%)">kainino</text>
<text x="0.833" y="0.563" font-size="0.007501" fill="hsl(0.0,100%,20%)">khushalsagar</text>
<text x="1.029" y="0.551" font-size="0.021652" fill="hsl(0.0,100%,20%)">lehoangq</text>
<text x="0.737" y="0.257" font-size="0.018626" fill="hsl(0.0,100%,20%)">lujc</text>
<text x="0.640" y="0.694" font-size="0.010156" fill="hsl(0.0,100%,20%)">mihu</text>
<text x="0.286" y="0.526" font-size="0.006124" fill="hsl(0.0,100%,20%)">shaobo.yan</text>
<text x="1.403" y="0.512" font-size="0.015311" fill="hsl(0.0,100%,20%)">shrekshao</text>
<text x="0.525" y="0.542" font-size="0.003062" fill="hsl(0.0,100%,20%)">jaedon1.lee</text>
<text x="0.702" y="0.264" font-size="0.012991" fill="hsl(0.0,100%,20%)">xinyi.he</text>
<text x="0.078" y="0.168" font-size="0.003062" fill="hsl(0.0,100%,20%)">fei.yang</text>
<text x="0.815" y="0.276" font-size="0.008102" fill="hsl(0.0,100%,20%)">thakis</text>
<text x="1.099" y="0.496" font-size="0.011457" fill="hsl(0.0,100%,20%)">xiaoxuan.liu</text>
<text x="1.265" y="0.245" font-size="0.011457" fill="hsl(0.0,100%,20%)">xinghua.cao</text>
</svg>
