<svg width="4000" height="2000" viewBox="-0.025 -0.025 2.05 1.05" xmlns="http://www.w3.org/2000/svg">
  <style>
    path {
      fill: none;
      stroke-linecap: round;
      stroke-opacity: 0.4;
    }

    text {
      text-anchor: middle;
      alignment-baseline: hanging;
    }
  </style>
  <g opacity="0.4">
<path d="M1.539 0.532 Q1.347 0.520 1.282 0.611" stroke="hsl(0.0,100%,35%)" stroke-width="0.00607"></path>
<path d="M1.539 0.532 Q0.786 0.558 0.671 0.931" stroke="hsl(0.0,100%,35%)" stroke-width="0.02158"></path>
<path d="M1.539 0.532 Q0.607 0.586 0.508 1.052" stroke="hsl(0.0,100%,35%)" stroke-width="0.00202"></path>
<path d="M1.539 0.532 Q1.609 0.438 1.441 0.383" stroke="hsl(0.0,100%,35%)" stroke-width="0.01214"></path>
<path d="M1.539 0.532 Q1.819 0.242 1.315 0.042" stroke="hsl(0.0,100%,35%)" stroke-width="0.00067"></path>
<path d="M1.539 0.532 Q0.805 0.406 0.398 0.736" stroke="hsl(0.0,100%,35%)" stroke-width="0.00067"></path>
<path d="M1.539 0.532 Q1.075 0.538 0.985 0.765" stroke="hsl(0.0,100%,35%)" stroke-width="0.00067"></path>
<path d="M1.539 0.532 Q0.911 0.640 0.985 0.970" stroke="hsl(0.0,100%,35%)" stroke-width="0.00067"></path>
<path d="M1.282 0.611 Q0.720 0.649 0.671 0.931" stroke="hsl(0.0,100%,35%)" stroke-width="0.03641"></path>
<path d="M1.282 0.611 Q0.704 0.712 0.775 1.016" stroke="hsl(0.0,100%,35%)" stroke-width="0.00135"></path>
<path d="M1.282 0.611 Q1.473 0.623 1.539 0.532" stroke="hsl(0.0,100%,35%)" stroke-width="0.01888"></path>
<path d="M1.282 0.611 Q1.754 0.333 1.315 0.042" stroke="hsl(0.0,100%,35%)" stroke-width="0.00135"></path>
<path d="M1.282 0.611 Q1.544 0.529 1.441 0.383" stroke="hsl(0.0,100%,35%)" stroke-width="0.00135"></path>
<path d="M1.282 0.611 Q0.846 0.731 0.985 0.970" stroke="hsl(0.0,100%,35%)" stroke-width="0.00135"></path>
<path d="M1.282 0.611 Q0.542 0.677 0.508 1.052" stroke="hsl(0.0,100%,35%)" stroke-width="0.00202"></path>
<path d="M1.282 0.611 Q1.010 0.629 0.985 0.765" stroke="hsl(0.0,100%,35%)" stroke-width="0.00607"></path>
<path d="M0.671 0.931 Q1.424 0.905 1.539 0.532" stroke="hsl(0.0,100%,35%)" stroke-width="0.01348"></path>
<path d="M0.671 0.931 Q1.232 0.893 1.282 0.611" stroke="hsl(0.0,100%,35%)" stroke-width="0.02225"></path>
<path d="M0.671 0.931 Q0.961 0.911 0.985 0.765" stroke="hsl(0.0,100%,35%)" stroke-width="0.02764"></path>
<path d="M0.671 0.931 Q0.796 1.013 0.985 0.970" stroke="hsl(0.0,100%,35%)" stroke-width="0.02158"></path>
<path d="M0.671 0.931 Q0.655 0.994 0.775 1.016" stroke="hsl(0.0,100%,35%)" stroke-width="0.00539"></path>
<path d="M0.671 0.931 Q1.704 0.615 1.315 0.042" stroke="hsl(0.0,100%,35%)" stroke-width="0.00539"></path>
<path d="M0.671 0.931 Q0.738 1.058 1.000 1.053" stroke="hsl(0.0,100%,35%)" stroke-width="0.00135"></path>
<path d="M0.671 0.931 Q0.900 0.556 0.219 0.362" stroke="hsl(0.0,100%,35%)" stroke-width="0.00135"></path>
<path d="M0.671 0.931 Q1.494 0.811 1.441 0.383" stroke="hsl(0.0,100%,35%)" stroke-width="0.00270"></path>
<path d="M0.671 0.931 Q0.690 0.779 0.398 0.736" stroke="hsl(0.0,100%,35%)" stroke-width="0.00067"></path>
<path d="M0.671 0.931 Q1.025 0.788 0.825 0.584" stroke="hsl(0.0,100%,35%)" stroke-width="0.00067"></path>
<path d="M0.671 0.931 Q0.492 0.959 0.508 1.052" stroke="hsl(0.0,100%,35%)" stroke-width="0.00944"></path>
<path d="M0.671 0.931 Q0.607 0.688 0.120 0.666" stroke="hsl(0.0,100%,35%)" stroke-width="0.00067"></path>
<path d="M0.508 1.052 Q0.686 1.024 0.671 0.931" stroke="hsl(0.0,100%,35%)" stroke-width="0.02495"></path>
<path d="M0.508 1.052 Q1.720 0.709 1.315 0.042" stroke="hsl(0.0,100%,35%)" stroke-width="0.00472"></path>
<path d="M0.508 1.052 Q1.439 0.998 1.539 0.532" stroke="hsl(0.0,100%,35%)" stroke-width="0.00539"></path>
<path d="M0.508 1.052 Q1.510 0.904 1.441 0.383" stroke="hsl(0.0,100%,35%)" stroke-width="0.00809"></path>
<path d="M0.508 1.052 Q0.976 1.004 0.985 0.765" stroke="hsl(0.0,100%,35%)" stroke-width="0.00135"></path>
<path d="M0.508 1.052 Q0.812 1.107 0.985 0.970" stroke="hsl(0.0,100%,35%)" stroke-width="0.00135"></path>
<path d="M0.508 1.052 Q1.248 0.986 1.282 0.611" stroke="hsl(0.0,100%,35%)" stroke-width="0.00539"></path>
<path d="M0.508 1.052 Q0.915 0.649 0.219 0.362" stroke="hsl(0.0,100%,35%)" stroke-width="0.00067"></path>
<path d="M1.441 0.383 Q1.571 0.359 1.552 0.290" stroke="hsl(0.0,100%,35%)" stroke-width="0.00202"></path>
<path d="M1.441 0.383 Q1.494 0.525 1.783 0.531" stroke="hsl(0.0,100%,35%)" stroke-width="0.00135"></path>
<path d="M1.441 0.383 Q0.439 0.531 0.508 1.052" stroke="hsl(0.0,100%,35%)" stroke-width="0.00337"></path>
<path d="M1.441 0.383 Q0.618 0.503 0.671 0.931" stroke="hsl(0.0,100%,35%)" stroke-width="0.00202"></path>
<path d="M1.441 0.383 Q1.651 0.187 1.315 0.042" stroke="hsl(0.0,100%,35%)" stroke-width="0.00270"></path>
<path d="M1.441 0.383 Q1.796 0.412 1.930 0.245" stroke="hsl(0.0,100%,35%)" stroke-width="0.00135"></path>
<path d="M1.441 0.383 Q1.180 0.465 1.282 0.611" stroke="hsl(0.0,100%,35%)" stroke-width="0.00135"></path>
<path d="M1.441 0.383 Q1.371 0.477 1.539 0.532" stroke="hsl(0.0,100%,35%)" stroke-width="0.00067"></path>
<path d="M1.315 0.042 Q0.282 0.357 0.671 0.931" stroke="hsl(0.0,100%,35%)" stroke-width="0.00405"></path>
<path d="M1.315 0.042 Q0.408 0.440 0.985 0.970" stroke="hsl(0.0,100%,35%)" stroke-width="0.00270"></path>
<path d="M1.315 0.042 Q1.422 0.098 1.555 0.058" stroke="hsl(0.0,100%,35%)" stroke-width="0.00607"></path>
<path d="M1.315 0.042 Q1.218 0.123 1.354 0.188" stroke="hsl(0.0,100%,35%)" stroke-width="0.00202"></path>
<path d="M1.315 0.042 Q0.572 0.337 0.985 0.765" stroke="hsl(0.0,100%,35%)" stroke-width="0.00135"></path>
<path d="M1.315 0.042 Q0.103 0.385 0.508 1.052" stroke="hsl(0.0,100%,35%)" stroke-width="0.00472"></path>
<path d="M1.315 0.042 Q0.844 0.320 1.282 0.611" stroke="hsl(0.0,100%,35%)" stroke-width="0.00067"></path>
<path d="M1.315 0.042 Q1.105 0.238 1.441 0.383" stroke="hsl(0.0,100%,35%)" stroke-width="0.00067"></path>
<path d="M0.398 0.736 Q0.378 0.888 0.671 0.931" stroke="hsl(0.0,100%,35%)" stroke-width="0.00472"></path>
<path d="M0.398 0.736 Q0.200 0.916 0.508 1.052" stroke="hsl(0.0,100%,35%)" stroke-width="0.00135"></path>
<path d="M0.398 0.736 Q1.202 0.768 1.441 0.383" stroke="hsl(0.0,100%,35%)" stroke-width="0.00067"></path>
<path d="M0.398 0.736 Q0.500 0.777 0.602 0.736" stroke="hsl(0.0,100%,35%)" stroke-width="0.00067"></path>
<path d="M0.985 0.765 Q1.448 0.759 1.539 0.532" stroke="hsl(0.0,100%,35%)" stroke-width="0.00405"></path>
<path d="M0.985 0.765 Q0.695 0.785 0.671 0.931" stroke="hsl(0.0,100%,35%)" stroke-width="0.00270"></path>
<path d="M0.985 0.765 Q1.874 0.694 1.930 0.245" stroke="hsl(0.0,100%,35%)" stroke-width="0.00067"></path>
<path d="M0.985 0.765 Q1.257 0.747 1.282 0.611" stroke="hsl(0.0,100%,35%)" stroke-width="0.00135"></path>
<path d="M0.985 0.765 Q1.729 0.470 1.315 0.042" stroke="hsl(0.0,100%,35%)" stroke-width="0.00067"></path>
<path d="M0.985 0.970 Q0.859 0.888 0.671 0.931" stroke="hsl(0.0,100%,35%)" stroke-width="0.02495"></path>
<path d="M0.985 0.970 Q1.213 0.745 0.825 0.584" stroke="hsl(0.0,100%,35%)" stroke-width="0.00337"></path>
<path d="M0.985 0.970 Q1.478 0.764 1.184 0.478" stroke="hsl(0.0,100%,35%)" stroke-width="0.00270"></path>
<path d="M0.985 0.970 Q0.681 0.916 0.508 1.052" stroke="hsl(0.0,100%,35%)" stroke-width="0.00067"></path>
<path d="M0.985 0.970 Q1.088 0.513 0.219 0.362" stroke="hsl(0.0,100%,35%)" stroke-width="0.00067"></path>
<path d="M0.985 0.970 Q1.286 0.954 1.320 0.803" stroke="hsl(0.0,100%,35%)" stroke-width="0.00067"></path>
<path d="M0.985 0.970 Q0.919 0.577 0.137 0.523" stroke="hsl(0.0,100%,35%)" stroke-width="0.00202"></path>
<path d="M0.985 0.970 Q1.683 0.768 1.441 0.383" stroke="hsl(0.0,100%,35%)" stroke-width="0.00270"></path>
<path d="M0.985 0.970 Q1.893 0.572 1.315 0.042" stroke="hsl(0.0,100%,35%)" stroke-width="0.00067"></path>
<path d="M0.985 0.970 Q1.612 0.862 1.539 0.532" stroke="hsl(0.0,100%,35%)" stroke-width="0.00067"></path>
<path d="M0.985 0.970 Q1.149 0.868 0.985 0.765" stroke="hsl(0.0,100%,35%)" stroke-width="0.00067"></path>
<path d="M1.739 0.302 Q1.736 0.087 1.315 0.042" stroke="hsl(0.0,100%,35%)" stroke-width="0.00067"></path>
<path d="M1.739 0.302 Q1.525 0.283 1.441 0.383" stroke="hsl(0.0,100%,35%)" stroke-width="0.00135"></path>
<path d="M1.739 0.302 Q0.523 0.431 0.508 1.052" stroke="hsl(0.0,100%,35%)" stroke-width="0.00067"></path>
<path d="M0.775 1.016 Q0.791 0.952 0.671 0.931" stroke="hsl(0.0,100%,35%)" stroke-width="0.04315"></path>
<path d="M0.775 1.016 Q1.353 0.915 1.282 0.611" stroke="hsl(0.0,100%,35%)" stroke-width="0.01416"></path>
<path d="M0.775 1.016 Q1.544 0.927 1.539 0.532" stroke="hsl(0.0,100%,35%)" stroke-width="0.00067"></path>
<path d="M0.775 1.016 Q1.081 0.932 0.985 0.765" stroke="hsl(0.0,100%,35%)" stroke-width="0.00067"></path>
<path d="M0.775 1.016 Q0.917 1.035 0.985 0.970" stroke="hsl(0.0,100%,35%)" stroke-width="0.00202"></path>
<path d="M0.775 1.016 Q1.615 0.833 1.441 0.383" stroke="hsl(0.0,100%,35%)" stroke-width="0.00067"></path>
<path d="M1.241 0.813 Q1.424 0.720 1.282 0.611" stroke="hsl(0.0,100%,35%)" stroke-width="0.00337"></path>
<path d="M1.241 0.813 Q1.685 0.638 1.441 0.383" stroke="hsl(0.0,100%,35%)" stroke-width="0.00135"></path>
<path d="M1.241 0.813 Q0.862 0.758 0.671 0.931" stroke="hsl(0.0,100%,35%)" stroke-width="0.00067"></path>
<path d="M0.825 0.584 Q1.089 0.603 1.184 0.478" stroke="hsl(0.0,100%,35%)" stroke-width="0.00742"></path>
<path d="M0.825 0.584 Q0.470 0.727 0.671 0.931" stroke="hsl(0.0,100%,35%)" stroke-width="0.01214"></path>
<path d="M0.825 0.584 Q0.596 0.809 0.985 0.970" stroke="hsl(0.0,100%,35%)" stroke-width="0.00539"></path>
<path d="M0.825 0.584 Q0.292 0.755 0.508 1.052" stroke="hsl(0.0,100%,35%)" stroke-width="0.00067"></path>
<path d="M0.825 0.584 Q0.242 0.639 0.221 0.935" stroke="hsl(0.0,100%,35%)" stroke-width="0.00067"></path>
<path d="M1.184 0.478 Q0.919 0.459 0.825 0.584" stroke="hsl(0.0,100%,35%)" stroke-width="0.00472"></path>
<path d="M1.184 0.478 Q0.565 0.602 0.671 0.931" stroke="hsl(0.0,100%,35%)" stroke-width="0.00607"></path>
<path d="M1.184 0.478 Q0.691 0.684 0.985 0.970" stroke="hsl(0.0,100%,35%)" stroke-width="0.00067"></path>
<path d="M0.137 0.523 Q0.306 0.459 0.219 0.362" stroke="hsl(0.0,100%,35%)" stroke-width="0.01281"></path>
<path d="M0.137 0.523 Q0.078 0.834 0.671 0.931" stroke="hsl(0.0,100%,35%)" stroke-width="0.01618"></path>
<path d="M0.137 0.523 Q0.014 0.591 0.120 0.666" stroke="hsl(0.0,100%,35%)" stroke-width="0.00337"></path>
<path d="M0.137 0.523 Q0.361 0.521 0.407 0.412" stroke="hsl(0.0,100%,35%)" stroke-width="0.00337"></path>
<path d="M0.137 0.523 Q0.203 0.916 0.985 0.970" stroke="hsl(0.0,100%,35%)" stroke-width="0.00877"></path>
<path d="M0.137 0.523 Q0.639 0.796 1.282 0.611" stroke="hsl(0.0,100%,35%)" stroke-width="0.00067"></path>
<path d="M1.432 0.683 Q1.606 0.629 1.539 0.532" stroke="hsl(0.0,100%,35%)" stroke-width="0.00067"></path>
<path d="M1.432 0.683 Q1.415 0.617 1.282 0.611" stroke="hsl(0.0,100%,35%)" stroke-width="0.00135"></path>
<path d="M1.432 0.683 Q0.853 0.655 0.671 0.931" stroke="hsl(0.0,100%,35%)" stroke-width="0.00067"></path>
<path d="M1.065 0.928 Q0.991 0.933 0.985 0.970" stroke="hsl(0.0,100%,35%)" stroke-width="0.00067"></path>
<path d="M1.065 0.928 Q0.865 0.851 0.671 0.931" stroke="hsl(0.0,100%,35%)" stroke-width="0.00539"></path>
<path d="M1.065 0.928 Q1.427 0.813 1.282 0.611" stroke="hsl(0.0,100%,35%)" stroke-width="0.00270"></path>
<path d="M1.065 0.928 Q0.850 0.914 0.775 1.016" stroke="hsl(0.0,100%,35%)" stroke-width="0.00135"></path>
<path d="M0.407 0.412 Q0.250 0.807 0.985 0.970" stroke="hsl(0.0,100%,35%)" stroke-width="0.00202"></path>
<path d="M0.407 0.412 Q0.124 0.724 0.671 0.931" stroke="hsl(0.0,100%,35%)" stroke-width="0.01146"></path>
<path d="M0.407 0.412 Q0.353 0.350 0.219 0.362" stroke="hsl(0.0,100%,35%)" stroke-width="0.01011"></path>
<path d="M0.407 0.412 Q0.184 0.414 0.137 0.523" stroke="hsl(0.0,100%,35%)" stroke-width="0.00135"></path>
<path d="M0.407 0.412 Q0.061 0.482 0.120 0.666" stroke="hsl(0.0,100%,35%)" stroke-width="0.00067"></path>
<path d="M0.407 0.412 Q0.291 0.493 0.424 0.567" stroke="hsl(0.0,100%,35%)" stroke-width="0.00067"></path>
<path d="M0.445 0.304 Q0.285 0.288 0.219 0.362" stroke="hsl(0.0,100%,35%)" stroke-width="0.00135"></path>
<path d="M0.445 0.304 Q0.116 0.352 0.137 0.523" stroke="hsl(0.0,100%,35%)" stroke-width="0.00067"></path>
<path d="M0.445 0.304 Q0.056 0.663 0.671 0.931" stroke="hsl(0.0,100%,35%)" stroke-width="0.00135"></path>
<path d="M0.445 0.304 Q0.339 0.350 0.407 0.412" stroke="hsl(0.0,100%,35%)" stroke-width="0.00067"></path>
<path d="M0.221 0.935 Q0.449 1.023 0.671 0.931" stroke="hsl(0.0,100%,35%)" stroke-width="0.00067"></path>
<path d="M0.221 0.935 Q0.280 0.850 0.128 0.803" stroke="hsl(0.0,100%,35%)" stroke-width="0.00067"></path>
<path d="M0.221 0.935 Q1.482 0.707 1.315 0.042" stroke="hsl(0.0,100%,35%)" stroke-width="0.00067"></path>
<path d="M0.543 0.490 Q0.254 0.736 0.671 0.931" stroke="hsl(0.0,100%,35%)" stroke-width="0.00135"></path>
<path d="M0.543 0.490 Q0.537 0.424 0.407 0.412" stroke="hsl(0.0,100%,35%)" stroke-width="0.00270"></path>
<path d="M0.543 0.490 Q0.380 0.818 0.985 0.970" stroke="hsl(0.0,100%,35%)" stroke-width="0.00135"></path>
</g>
<text x="1.539" y="0.504" font-size="0.055665" fill="hsl(0.0,100%,20%)">abdolrashidi</text>
<text x="1.282" y="0.577" font-size="0.066784" fill="hsl(0.0,100%,20%)">cclao</text>
<text x="0.671" y="0.877" font-size="0.107686" fill="hsl(0.0,100%,20%)">syoussefi</text>
<text x="0.508" y="1.026" font-size="0.051731" fill="hsl(0.0,100%,20%)">romanl</text>
<text x="1.441" y="0.363" font-size="0.040246" fill="hsl(0.0,100%,20%)">cnorthrop</text>
<text x="1.315" y="0.023" font-size="0.037215" fill="hsl(0.0,100%,20%)">ynovikov</text>
<text x="0.398" y="0.727" font-size="0.017469" fill="hsl(0.0,100%,20%)">zzyiwei</text>
<text x="0.985" y="0.745" font-size="0.040825" fill="hsl(0.0,100%,20%)">yuxinhu</text>
<text x="0.985" y="0.942" font-size="0.055454" fill="hsl(0.0,100%,20%)">geofflang</text>
<text x="1.739" y="0.298" font-size="0.009690" fill="hsl(0.0,100%,20%)">banisingh</text>
<text x="0.775" y="0.991" font-size="0.049172" fill="hsl(0.0,100%,20%)">m.maiya</text>
<text x="1.241" y="0.806" font-size="0.013704" fill="hsl(0.0,100%,20%)">chrisforbes</text>
<text x="1.552" y="0.286" font-size="0.008392" fill="hsl(0.0,100%,20%)">mark</text>
<text x="1.783" y="0.528" font-size="0.006852" fill="hsl(0.0,100%,20%)">mikes</text>
<text x="1.930" y="0.241" font-size="0.008392" fill="hsl(0.0,100%,20%)">lpy</text>
<text x="0.825" y="0.567" font-size="0.034938" fill="hsl(0.0,100%,20%)">liza</text>
<text x="1.184" y="0.464" font-size="0.027408" fill="hsl(0.0,100%,20%)">mpdenton</text>
<text x="0.219" y="0.347" font-size="0.030643" fill="hsl(0.0,100%,20%)">kbr</text>
<text x="1.320" y="0.801" font-size="0.004845" fill="hsl(0.0,100%,20%)">penghuang</text>
<text x="0.137" y="0.502" font-size="0.041396" fill="hsl(0.0,100%,20%)">lexa.knyazev</text>
<text x="1.432" y="0.678" font-size="0.009690" fill="hsl(0.0,100%,20%)">hailinzhang</text>
<text x="1.065" y="0.919" font-size="0.018765" fill="hsl(0.0,100%,20%)">i.nazarov</text>
<text x="0.407" y="0.395" font-size="0.033915" fill="hsl(0.0,100%,20%)">kkinnunen</text>
<text x="0.120" y="0.660" font-size="0.012819" fill="hsl(0.0,100%,20%)">lehoangquyen</text>
<text x="0.424" y="0.565" font-size="0.004845" fill="hsl(0.0,100%,20%)">kpiddington</text>
<text x="0.445" y="0.298" font-size="0.011868" fill="hsl(0.0,100%,20%)">lerica</text>
<text x="0.221" y="0.930" font-size="0.009690" fill="hsl(0.0,100%,20%)">sokcevic</text>
<text x="0.543" y="0.483" font-size="0.013704" fill="hsl(0.0,100%,20%)">mscott</text>
<text x="0.128" y="0.800" font-size="0.004845" fill="hsl(0.0,100%,20%)">jwata</text>
<text x="1.000" y="1.050" font-size="0.006852" fill="hsl(0.0,100%,20%)">a.annestrand</text>
<text x="1.555" y="0.051" font-size="0.014535" fill="hsl(0.0,100%,20%)">bsheedy</text>
<text x="1.354" y="0.184" font-size="0.008392" fill="hsl(0.0,100%,20%)">solti</text>
<text x="0.602" y="0.734" font-size="0.004845" fill="hsl(0.0,100%,20%)">lepton</text>
</svg>
