<svg width="4000" height="2000" viewBox="-0.025 -0.025 2.05 1.05" xmlns="http://www.w3.org/2000/svg">
  <style>
    path {
      fill: none;
      stroke-linecap: round;
      stroke-opacity: 0.4;
    }

    text {
      text-anchor: middle;
      alignment-baseline: hanging;
    }
  </style>
  <g opacity="0.4">
<path d="M1.189 0.782 Q1.244 0.891 1.469 0.888" stroke="hsl(0.0,100%,35%)" stroke-width="0.00853"></path>
<path d="M1.189 0.782 Q0.856 0.414 0.064 0.495" stroke="hsl(0.0,100%,35%)" stroke-width="0.00853"></path>
<path d="M1.189 0.782 Q0.897 0.475 0.235 0.550" stroke="hsl(0.0,100%,35%)" stroke-width="0.00021"></path>
<path d="M1.189 0.782 Q0.894 0.612 0.497 0.719" stroke="hsl(0.0,100%,35%)" stroke-width="0.00213"></path>
<path d="M1.189 0.782 Q1.324 0.812 1.413 0.753" stroke="hsl(0.0,100%,35%)" stroke-width="0.00256"></path>
<path d="M1.189 0.782 Q1.078 0.891 1.267 0.969" stroke="hsl(0.0,100%,35%)" stroke-width="0.00107"></path>
<path d="M1.189 0.782 Q1.099 0.444 0.419 0.413" stroke="hsl(0.0,100%,35%)" stroke-width="0.00043"></path>
<path d="M1.189 0.782 Q1.465 0.736 1.437 0.592" stroke="hsl(0.0,100%,35%)" stroke-width="0.00107"></path>
<path d="M1.189 0.782 Q1.160 0.475 0.555 0.421" stroke="hsl(0.0,100%,35%)" stroke-width="0.00021"></path>
<path d="M1.189 0.782 Q1.170 0.790 1.182 0.802" stroke="hsl(0.0,100%,35%)" stroke-width="0.00021"></path>
<path d="M1.189 0.782 Q1.315 0.692 1.167 0.611" stroke="hsl(0.0,100%,35%)" stroke-width="0.00021"></path>
<path d="M1.469 0.888 Q1.414 0.779 1.189 0.782" stroke="hsl(0.0,100%,35%)" stroke-width="0.01642"></path>
<path d="M1.469 0.888 Q1.549 0.809 1.413 0.753" stroke="hsl(0.0,100%,35%)" stroke-width="0.03391"></path>
<path d="M1.469 0.888 Q1.303 0.888 1.267 0.969" stroke="hsl(0.0,100%,35%)" stroke-width="0.04798"></path>
<path d="M1.469 0.888 Q1.118 0.609 0.497 0.719" stroke="hsl(0.0,100%,35%)" stroke-width="0.01471"></path>
<path d="M1.469 0.888 Q1.380 0.794 1.178 0.817" stroke="hsl(0.0,100%,35%)" stroke-width="0.00618"></path>
<path d="M1.469 0.888 Q1.385 0.472 0.555 0.421" stroke="hsl(0.0,100%,35%)" stroke-width="0.00021"></path>
<path d="M1.469 0.888 Q1.324 0.441 0.419 0.413" stroke="hsl(0.0,100%,35%)" stroke-width="0.00064"></path>
<path d="M1.469 0.888 Q1.081 0.411 0.064 0.495" stroke="hsl(0.0,100%,35%)" stroke-width="0.00768"></path>
<path d="M1.469 0.888 Q1.498 0.470 0.688 0.364" stroke="hsl(0.0,100%,35%)" stroke-width="0.00043"></path>
<path d="M1.469 0.888 Q1.070 0.657 0.532 0.801" stroke="hsl(0.0,100%,35%)" stroke-width="0.00021"></path>
<path d="M1.469 0.888 Q1.797 0.794 1.685 0.613" stroke="hsl(0.0,100%,35%)" stroke-width="0.00021"></path>
<path d="M1.469 0.888 Q1.690 0.733 1.437 0.592" stroke="hsl(0.0,100%,35%)" stroke-width="0.00746"></path>
<path d="M1.469 0.888 Q1.586 0.301 0.466 0.115" stroke="hsl(0.0,100%,35%)" stroke-width="0.00021"></path>
<path d="M1.469 0.888 Q1.834 0.817 1.776 0.623" stroke="hsl(0.0,100%,35%)" stroke-width="0.00021"></path>
<path d="M0.064 0.495 Q0.105 0.557 0.235 0.550" stroke="hsl(180.0,100%,35%)" stroke-width="0.00021"></path>
<path d="M0.064 0.495 Q0.102 0.693 0.497 0.719" stroke="hsl(180.0,100%,35%)" stroke-width="0.00832"></path>
<path d="M0.064 0.495 Q0.421 0.441 0.394 0.255" stroke="hsl(180.0,100%,35%)" stroke-width="0.01962"></path>
<path d="M0.064 0.495 Q0.397 0.864 1.189 0.782" stroke="hsl(180.0,100%,35%)" stroke-width="0.00149"></path>
<path d="M0.064 0.495 Q-0.029 0.571 0.098 0.633" stroke="hsl(180.0,100%,35%)" stroke-width="0.00043"></path>
<path d="M0.064 0.495 Q0.364 0.879 1.178 0.817" stroke="hsl(180.0,100%,35%)" stroke-width="0.00064"></path>
<path d="M0.064 0.495 Q0.307 0.525 0.419 0.413" stroke="hsl(180.0,100%,35%)" stroke-width="0.00789"></path>
<path d="M0.064 0.495 Q0.569 0.385 0.466 0.115" stroke="hsl(180.0,100%,35%)" stroke-width="0.00107"></path>
<path d="M0.064 0.495 Q0.532 0.894 1.413 0.753" stroke="hsl(180.0,100%,35%)" stroke-width="0.00085"></path>
<path d="M0.064 0.495 Q0.471 0.353 0.283 0.124" stroke="hsl(180.0,100%,35%)" stroke-width="0.00085"></path>
<path d="M0.064 0.495 Q0.481 0.554 0.688 0.364" stroke="hsl(180.0,100%,35%)" stroke-width="0.00128"></path>
<path d="M0.064 0.495 Q0.452 0.973 1.469 0.888" stroke="hsl(180.0,100%,35%)" stroke-width="0.00171"></path>
<path d="M0.064 0.495 Q0.217 0.423 0.109 0.332" stroke="hsl(180.0,100%,35%)" stroke-width="0.00064"></path>
<path d="M0.064 0.495 Q0.286 0.973 1.267 0.969" stroke="hsl(180.0,100%,35%)" stroke-width="0.00021"></path>
<path d="M0.064 0.495 Q0.487 0.601 0.785 0.417" stroke="hsl(180.0,100%,35%)" stroke-width="0.00043"></path>
<path d="M0.064 0.495 Q-0.069 0.660 0.223 0.761" stroke="hsl(180.0,100%,35%)" stroke-width="0.00021"></path>
<path d="M0.064 0.495 Q0.673 0.818 1.437 0.592" stroke="hsl(180.0,100%,35%)" stroke-width="0.00021"></path>
<path d="M0.064 0.495 Q0.266 0.597 0.509 0.521" stroke="hsl(180.0,100%,35%)" stroke-width="0.00021"></path>
<path d="M0.064 0.495 Q0.061 0.562 0.191 0.579" stroke="hsl(180.0,100%,35%)" stroke-width="0.00021"></path>
<path d="M0.064 0.495 Q0.368 0.557 0.555 0.421" stroke="hsl(180.0,100%,35%)" stroke-width="0.00043"></path>
<path d="M0.235 0.550 Q0.193 0.489 0.064 0.495" stroke="hsl(180.0,100%,35%)" stroke-width="0.00171"></path>
<path d="M0.235 0.550 Q0.582 0.966 1.469 0.888" stroke="hsl(180.0,100%,35%)" stroke-width="0.00043"></path>
<path d="M0.235 0.550 Q0.498 0.550 0.555 0.421" stroke="hsl(180.0,100%,35%)" stroke-width="0.00021"></path>
<path d="M0.235 0.550 Q0.231 0.687 0.497 0.719" stroke="hsl(180.0,100%,35%)" stroke-width="0.00064"></path>
<path d="M0.235 0.550 Q0.527 0.857 1.189 0.782" stroke="hsl(180.0,100%,35%)" stroke-width="0.00043"></path>
<path d="M0.235 0.550 Q0.437 0.519 0.419 0.413" stroke="hsl(180.0,100%,35%)" stroke-width="0.00021"></path>
<path d="M0.235 0.550 Q0.699 0.379 0.466 0.115" stroke="hsl(180.0,100%,35%)" stroke-width="0.00043"></path>
<path d="M0.497 0.719 Q0.459 0.520 0.064 0.495" stroke="hsl(180.0,100%,35%)" stroke-width="0.03284"></path>
<path d="M0.497 0.719 Q0.847 0.998 1.469 0.888" stroke="hsl(180.0,100%,35%)" stroke-width="0.01343"></path>
<path d="M0.497 0.719 Q0.965 0.410 0.466 0.115" stroke="hsl(180.0,100%,35%)" stroke-width="0.00384"></path>
<path d="M0.497 0.719 Q0.366 0.596 0.098 0.633" stroke="hsl(180.0,100%,35%)" stroke-width="0.00043"></path>
<path d="M0.497 0.719 Q0.817 0.466 0.394 0.255" stroke="hsl(180.0,100%,35%)" stroke-width="0.01663"></path>
<path d="M0.497 0.719 Q0.702 0.550 0.419 0.413" stroke="hsl(180.0,100%,35%)" stroke-width="0.00363"></path>
<path d="M0.497 0.719 Q1.266 0.597 1.198 0.195" stroke="hsl(180.0,100%,35%)" stroke-width="0.00043"></path>
<path d="M0.497 0.719 Q1.068 0.843 1.437 0.592" stroke="hsl(180.0,100%,35%)" stroke-width="0.00021"></path>
<path d="M0.497 0.719 Q0.927 0.919 1.413 0.753" stroke="hsl(180.0,100%,35%)" stroke-width="0.00107"></path>
<path d="M0.497 0.719 Q0.783 0.752 0.911 0.620" stroke="hsl(180.0,100%,35%)" stroke-width="0.00021"></path>
<path d="M0.497 0.719 Q0.448 0.767 0.532 0.801" stroke="hsl(180.0,100%,35%)" stroke-width="0.00043"></path>
<path d="M0.497 0.719 Q0.876 0.579 0.688 0.364" stroke="hsl(180.0,100%,35%)" stroke-width="0.00085"></path>
<path d="M0.497 0.719 Q0.766 0.685 0.760 0.547" stroke="hsl(180.0,100%,35%)" stroke-width="0.00021"></path>
<path d="M0.497 0.719 Q0.792 0.889 1.189 0.782" stroke="hsl(180.0,100%,35%)" stroke-width="0.00021"></path>
<path d="M0.497 0.719 Q0.612 0.448 0.109 0.332" stroke="hsl(180.0,100%,35%)" stroke-width="0.00085"></path>
<path d="M0.497 0.719 Q0.489 0.787 0.620 0.805" stroke="hsl(180.0,100%,35%)" stroke-width="0.00043"></path>
<path d="M0.497 0.719 Q0.620 0.637 0.487 0.559" stroke="hsl(180.0,100%,35%)" stroke-width="0.00043"></path>
<path d="M0.497 0.719 Q0.681 0.998 1.267 0.969" stroke="hsl(180.0,100%,35%)" stroke-width="0.00021"></path>
<path d="M0.497 0.719 Q0.500 0.582 0.235 0.550" stroke="hsl(180.0,100%,35%)" stroke-width="0.00021"></path>
<path d="M0.497 0.719 Q0.326 0.685 0.223 0.761" stroke="hsl(180.0,100%,35%)" stroke-width="0.00021"></path>
<path d="M0.497 0.719 Q0.257 0.674 0.119 0.781" stroke="hsl(180.0,100%,35%)" stroke-width="0.00192"></path>
<path d="M0.497 0.719 Q0.301 0.641 0.108 0.719" stroke="hsl(180.0,100%,35%)" stroke-width="0.00149"></path>
<path d="M0.497 0.719 Q0.759 0.904 1.178 0.817" stroke="hsl(180.0,100%,35%)" stroke-width="0.00021"></path>
<path d="M1.413 0.753 Q1.167 0.832 1.267 0.969" stroke="hsl(0.0,100%,35%)" stroke-width="0.04350"></path>
<path d="M1.413 0.753 Q1.333 0.832 1.469 0.888" stroke="hsl(0.0,100%,35%)" stroke-width="0.02346"></path>
<path d="M1.413 0.753 Q1.278 0.723 1.189 0.782" stroke="hsl(0.0,100%,35%)" stroke-width="0.00490"></path>
<path d="M1.413 0.753 Q1.753 0.755 1.831 0.590" stroke="hsl(0.0,100%,35%)" stroke-width="0.00021"></path>
<path d="M1.413 0.753 Q0.982 0.553 0.497 0.719" stroke="hsl(0.0,100%,35%)" stroke-width="0.00299"></path>
<path d="M1.413 0.753 Q0.945 0.354 0.064 0.495" stroke="hsl(0.0,100%,35%)" stroke-width="0.00128"></path>
<path d="M1.413 0.753 Q1.554 0.677 1.437 0.592" stroke="hsl(0.0,100%,35%)" stroke-width="0.00043"></path>
<path d="M1.413 0.753 Q1.450 0.244 0.466 0.115" stroke="hsl(0.0,100%,35%)" stroke-width="0.00192"></path>
<path d="M1.413 0.753 Q1.351 0.212 0.283 0.124" stroke="hsl(0.0,100%,35%)" stroke-width="0.00021"></path>
<path d="M1.413 0.753 Q1.368 0.460 0.785 0.417" stroke="hsl(0.0,100%,35%)" stroke-width="0.00021"></path>
<path d="M1.413 0.753 Q1.188 0.384 0.419 0.413" stroke="hsl(0.0,100%,35%)" stroke-width="0.00043"></path>
<path d="M1.413 0.753 Q1.258 0.731 1.182 0.802" stroke="hsl(0.0,100%,35%)" stroke-width="0.00021"></path>
<path d="M1.413 0.753 Q0.967 0.692 0.750 0.895" stroke="hsl(0.0,100%,35%)" stroke-width="0.00021"></path>
<path d="M1.413 0.753 Q1.709 0.755 1.778 0.611" stroke="hsl(0.0,100%,35%)" stroke-width="0.00021"></path>
<path d="M1.267 0.969 Q1.433 0.969 1.469 0.888" stroke="hsl(0.0,100%,35%)" stroke-width="0.02730"></path>
<path d="M1.267 0.969 Q1.513 0.890 1.413 0.753" stroke="hsl(0.0,100%,35%)" stroke-width="0.02666"></path>
<path d="M1.267 0.969 Q1.083 0.690 0.497 0.719" stroke="hsl(0.0,100%,35%)" stroke-width="0.00149"></path>
<path d="M1.267 0.969 Q1.345 0.876 1.178 0.817" stroke="hsl(0.0,100%,35%)" stroke-width="0.00469"></path>
<path d="M1.267 0.969 Q1.378 0.860 1.189 0.782" stroke="hsl(0.0,100%,35%)" stroke-width="0.00171"></path>
<path d="M1.267 0.969 Q1.462 0.551 0.688 0.364" stroke="hsl(0.0,100%,35%)" stroke-width="0.00064"></path>
<path d="M1.267 0.969 Q1.045 0.492 0.064 0.495" stroke="hsl(0.0,100%,35%)" stroke-width="0.00235"></path>
<path d="M1.267 0.969 Q1.468 0.597 0.785 0.417" stroke="hsl(0.0,100%,35%)" stroke-width="0.00043"></path>
<path d="M1.267 0.969 Q1.222 0.813 0.908 0.801" stroke="hsl(0.0,100%,35%)" stroke-width="0.00021"></path>
<path d="M1.267 0.969 Q1.654 0.815 1.437 0.592" stroke="hsl(0.0,100%,35%)" stroke-width="0.00171"></path>
<path d="M1.267 0.969 Q1.359 0.868 1.182 0.802" stroke="hsl(0.0,100%,35%)" stroke-width="0.00064"></path>
<path d="M1.267 0.969 Q1.407 0.725 0.961 0.604" stroke="hsl(0.0,100%,35%)" stroke-width="0.00021"></path>
<path d="M0.419 0.413 Q0.176 0.383 0.064 0.495" stroke="hsl(180.0,100%,35%)" stroke-width="0.00448"></path>
<path d="M0.419 0.413 Q0.214 0.581 0.497 0.719" stroke="hsl(180.0,100%,35%)" stroke-width="0.00256"></path>
<path d="M0.419 0.413 Q0.534 0.329 0.394 0.255" stroke="hsl(180.0,100%,35%)" stroke-width="0.00320"></path>
<path d="M0.419 0.413 Q0.564 0.861 1.469 0.888" stroke="hsl(180.0,100%,35%)" stroke-width="0.00043"></path>
<path d="M0.419 0.413 Q0.043 0.548 0.223 0.761" stroke="hsl(180.0,100%,35%)" stroke-width="0.00021"></path>
<path d="M0.419 0.413 Q0.583 0.241 0.283 0.124" stroke="hsl(180.0,100%,35%)" stroke-width="0.00021"></path>
<path d="M0.419 0.413 Q0.481 0.445 0.555 0.421" stroke="hsl(180.0,100%,35%)" stroke-width="0.00107"></path>
<path d="M0.419 0.413 Q0.224 0.670 0.683 0.822" stroke="hsl(180.0,100%,35%)" stroke-width="0.00021"></path>
<path d="M0.419 0.413 Q0.644 0.782 1.413 0.753" stroke="hsl(180.0,100%,35%)" stroke-width="0.00085"></path>
<path d="M1.437 0.592 Q1.296 0.668 1.413 0.753" stroke="hsl(0.0,100%,35%)" stroke-width="0.00554"></path>
<path d="M1.437 0.592 Q0.828 0.269 0.064 0.495" stroke="hsl(0.0,100%,35%)" stroke-width="0.00064"></path>
<path d="M1.437 0.592 Q1.216 0.746 1.469 0.888" stroke="hsl(0.0,100%,35%)" stroke-width="0.00171"></path>
<path d="M1.437 0.592 Q1.050 0.747 1.267 0.969" stroke="hsl(0.0,100%,35%)" stroke-width="0.00704"></path>
<path d="M1.437 0.592 Q1.132 0.330 0.555 0.421" stroke="hsl(0.0,100%,35%)" stroke-width="0.00021"></path>
<path d="M1.437 0.592 Q1.127 0.653 1.178 0.817" stroke="hsl(0.0,100%,35%)" stroke-width="0.00043"></path>
<path d="M1.437 0.592 Q1.005 0.590 0.908 0.801" stroke="hsl(0.0,100%,35%)" stroke-width="0.00021"></path>
<path d="M0.555 0.421 Q0.250 0.360 0.064 0.495" stroke="hsl(180.0,100%,35%)" stroke-width="0.01088"></path>
<path d="M0.555 0.421 Q0.494 0.390 0.419 0.413" stroke="hsl(180.0,100%,35%)" stroke-width="0.00107"></path>
<path d="M0.555 0.421 Q0.719 0.759 1.413 0.753" stroke="hsl(180.0,100%,35%)" stroke-width="0.00064"></path>
<path d="M0.555 0.421 Q0.639 0.837 1.469 0.888" stroke="hsl(180.0,100%,35%)" stroke-width="0.00064"></path>
<path d="M0.555 0.421 Q0.292 0.422 0.235 0.550" stroke="hsl(180.0,100%,35%)" stroke-width="0.00021"></path>
<path d="M0.555 0.421 Q0.690 0.426 0.728 0.361" stroke="hsl(180.0,100%,35%)" stroke-width="0.00021"></path>
<path d="M1.182 0.802 Q1.477 0.748 1.437 0.592" stroke="hsl(0.0,100%,35%)" stroke-width="0.00064"></path>
<path d="M1.182 0.802 Q1.256 0.902 1.469 0.888" stroke="hsl(0.0,100%,35%)" stroke-width="0.00021"></path>
<path d="M1.182 0.802 Q1.201 0.793 1.189 0.782" stroke="hsl(0.0,100%,35%)" stroke-width="0.00043"></path>
<path d="M1.182 0.802 Q1.090 0.903 1.267 0.969" stroke="hsl(0.0,100%,35%)" stroke-width="0.00128"></path>
<path d="M1.182 0.802 Q1.336 0.823 1.413 0.753" stroke="hsl(0.0,100%,35%)" stroke-width="0.00213"></path>
<path d="M1.182 0.802 Q1.168 0.809 1.178 0.817" stroke="hsl(0.0,100%,35%)" stroke-width="0.00021"></path>
<path d="M1.182 0.802 Q0.906 0.623 0.497 0.719" stroke="hsl(0.0,100%,35%)" stroke-width="0.00021"></path>
<path d="M0.956 0.509 Q0.910 0.801 1.469 0.888" stroke="hsl(180.0,100%,35%)" stroke-width="0.00021"></path>
<path d="M0.956 0.509 Q0.990 0.723 1.413 0.753" stroke="hsl(180.0,100%,35%)" stroke-width="0.00021"></path>
<path d="M0.956 0.509 Q0.938 0.383 0.688 0.364" stroke="hsl(180.0,100%,35%)" stroke-width="0.00021"></path>
<path d="M0.956 0.509 Q0.559 0.522 0.497 0.719" stroke="hsl(180.0,100%,35%)" stroke-width="0.00021"></path>
<path d="M0.956 0.509 Q0.544 0.661 0.750 0.895" stroke="hsl(180.0,100%,35%)" stroke-width="0.00021"></path>
<path d="M0.688 0.364 Q0.514 0.335 0.419 0.413" stroke="hsl(180.0,100%,35%)" stroke-width="0.00192"></path>
<path d="M0.688 0.364 Q0.678 0.163 0.283 0.124" stroke="hsl(180.0,100%,35%)" stroke-width="0.00021"></path>
<path d="M0.688 0.364 Q0.309 0.503 0.497 0.719" stroke="hsl(180.0,100%,35%)" stroke-width="0.00043"></path>
<path d="M0.688 0.364 Q0.271 0.305 0.064 0.495" stroke="hsl(180.0,100%,35%)" stroke-width="0.00320"></path>
<path d="M0.688 0.364 Q0.628 0.251 0.394 0.255" stroke="hsl(180.0,100%,35%)" stroke-width="0.00064"></path>
<path d="M0.688 0.364 Q0.604 0.673 1.189 0.782" stroke="hsl(180.0,100%,35%)" stroke-width="0.00021"></path>
<path d="M0.688 0.364 Q0.571 0.689 1.178 0.817" stroke="hsl(180.0,100%,35%)" stroke-width="0.00021"></path>
<path d="M0.750 0.895 Q0.765 0.756 0.497 0.719" stroke="hsl(180.0,100%,35%)" stroke-width="0.00746"></path>
<path d="M0.750 0.895 Q0.727 0.558 0.064 0.495" stroke="hsl(180.0,100%,35%)" stroke-width="0.00043"></path>
<path d="M0.750 0.895 Q1.195 0.957 1.413 0.753" stroke="hsl(180.0,100%,35%)" stroke-width="0.00427"></path>
<path d="M0.750 0.895 Q0.526 0.712 0.119 0.781" stroke="hsl(180.0,100%,35%)" stroke-width="0.00085"></path>
<path d="M0.750 0.895 Q1.085 0.504 0.394 0.255" stroke="hsl(180.0,100%,35%)" stroke-width="0.00043"></path>
<path d="M0.750 0.895 Q0.495 0.714 0.086 0.799" stroke="hsl(180.0,100%,35%)" stroke-width="0.00021"></path>
<path d="M0.750 0.895 Q1.027 0.942 1.178 0.817" stroke="hsl(180.0,100%,35%)" stroke-width="0.00021"></path>
<path d="M0.750 0.895 Q1.134 0.416 0.283 0.124" stroke="hsl(180.0,100%,35%)" stroke-width="0.00021"></path>
<path d="M0.532 0.801 Q0.580 0.753 0.497 0.719" stroke="hsl(180.0,100%,35%)" stroke-width="0.00618"></path>
<path d="M0.532 0.801 Q0.542 0.554 0.064 0.495" stroke="hsl(180.0,100%,35%)" stroke-width="0.00085"></path>
<path d="M0.532 0.801 Q0.389 0.789 0.335 0.856" stroke="hsl(180.0,100%,35%)" stroke-width="0.00021"></path>
<path d="M0.532 0.801 Q0.931 1.032 1.469 0.888" stroke="hsl(180.0,100%,35%)" stroke-width="0.00149"></path>
<path d="M0.542 0.350 Q0.224 0.525 0.497 0.719" stroke="hsl(180.0,100%,35%)" stroke-width="0.00064"></path>
<path d="M0.542 0.350 Q0.429 0.357 0.419 0.413" stroke="hsl(180.0,100%,35%)" stroke-width="0.00064"></path>
<path d="M0.542 0.350 Q0.544 0.273 0.394 0.255" stroke="hsl(180.0,100%,35%)" stroke-width="0.00021"></path>
<path d="M0.542 0.350 Q0.593 0.185 0.283 0.124" stroke="hsl(180.0,100%,35%)" stroke-width="0.00021"></path>
<path d="M0.542 0.350 Q0.575 0.804 1.469 0.888" stroke="hsl(180.0,100%,35%)" stroke-width="0.00021"></path>
<path d="M0.542 0.350 Q0.186 0.327 0.064 0.495" stroke="hsl(180.0,100%,35%)" stroke-width="0.00021"></path>
<path d="M0.394 0.255 Q0.037 0.309 0.064 0.495" stroke="hsl(180.0,100%,35%)" stroke-width="0.01855"></path>
<path d="M0.394 0.255 Q0.074 0.507 0.497 0.719" stroke="hsl(180.0,100%,35%)" stroke-width="0.00682"></path>
<path d="M0.394 0.255 Q0.443 0.167 0.283 0.124" stroke="hsl(180.0,100%,35%)" stroke-width="0.00149"></path>
<path d="M0.394 0.255 Q0.425 0.786 1.469 0.888" stroke="hsl(180.0,100%,35%)" stroke-width="0.00043"></path>
<path d="M0.394 0.255 Q0.280 0.339 0.419 0.413" stroke="hsl(180.0,100%,35%)" stroke-width="0.00576"></path>
<path d="M0.394 0.255 Q0.460 0.414 0.785 0.417" stroke="hsl(180.0,100%,35%)" stroke-width="0.00021"></path>
<path d="M0.394 0.255 Q0.370 0.677 1.189 0.782" stroke="hsl(180.0,100%,35%)" stroke-width="0.00021"></path>
<path d="M0.394 0.255 Q0.496 0.588 1.167 0.611" stroke="hsl(180.0,100%,35%)" stroke-width="0.00021"></path>
<path d="M0.394 0.255 Q0.454 0.368 0.688 0.364" stroke="hsl(180.0,100%,35%)" stroke-width="0.00064"></path>
<path d="M0.394 0.255 Q0.259 0.787 1.267 0.969" stroke="hsl(180.0,100%,35%)" stroke-width="0.00021"></path>
<path d="M0.283 0.124 Q-0.124 0.266 0.064 0.495" stroke="hsl(180.0,100%,35%)" stroke-width="0.00704"></path>
<path d="M0.283 0.124 Q-0.086 0.464 0.497 0.719" stroke="hsl(180.0,100%,35%)" stroke-width="0.00064"></path>
<path d="M0.283 0.124 Q0.234 0.211 0.394 0.255" stroke="hsl(180.0,100%,35%)" stroke-width="0.00171"></path>
<path d="M0.283 0.124 Q0.119 0.296 0.419 0.413" stroke="hsl(180.0,100%,35%)" stroke-width="0.00043"></path>
<path d="M0.283 0.124 Q0.382 0.156 0.466 0.115" stroke="hsl(180.0,100%,35%)" stroke-width="0.00512"></path>
<path d="M0.283 0.124 Q0.264 0.743 1.469 0.888" stroke="hsl(180.0,100%,35%)" stroke-width="0.00107"></path>
<path d="M0.283 0.124 Q0.344 0.664 1.413 0.753" stroke="hsl(180.0,100%,35%)" stroke-width="0.00107"></path>
<path d="M0.283 0.124 Q0.098 0.743 1.267 0.969" stroke="hsl(180.0,100%,35%)" stroke-width="0.00021"></path>
<path d="M0.283 0.124 Q0.293 0.325 0.688 0.364" stroke="hsl(180.0,100%,35%)" stroke-width="0.00043"></path>
<path d="M0.283 0.124 Q0.299 0.371 0.785 0.417" stroke="hsl(180.0,100%,35%)" stroke-width="0.00043"></path>
<path d="M1.178 0.817 Q1.267 0.911 1.469 0.888" stroke="hsl(0.0,100%,35%)" stroke-width="0.00448"></path>
<path d="M1.178 0.817 Q1.347 0.832 1.413 0.753" stroke="hsl(0.0,100%,35%)" stroke-width="0.00299"></path>
<path d="M1.178 0.817 Q0.879 0.433 0.064 0.495" stroke="hsl(0.0,100%,35%)" stroke-width="0.00213"></path>
<path d="M1.178 0.817 Q1.101 0.911 1.267 0.969" stroke="hsl(0.0,100%,35%)" stroke-width="0.00384"></path>
<path d="M1.178 0.817 Q1.212 0.802 1.189 0.782" stroke="hsl(0.0,100%,35%)" stroke-width="0.00043"></path>
<path d="M1.178 0.817 Q1.056 0.755 0.908 0.801" stroke="hsl(0.0,100%,35%)" stroke-width="0.00085"></path>
<path d="M1.178 0.817 Q1.296 0.492 0.688 0.364" stroke="hsl(0.0,100%,35%)" stroke-width="0.00021"></path>
<path d="M1.178 0.817 Q0.917 0.632 0.497 0.719" stroke="hsl(0.0,100%,35%)" stroke-width="0.00043"></path>
<path d="M1.178 0.817 Q1.488 0.756 1.437 0.592" stroke="hsl(0.0,100%,35%)" stroke-width="0.00021"></path>
<path d="M1.178 0.817 Q1.193 0.810 1.182 0.802" stroke="hsl(0.0,100%,35%)" stroke-width="0.00021"></path>
<path d="M0.466 0.115 Q-0.040 0.225 0.064 0.495" stroke="hsl(180.0,100%,35%)" stroke-width="0.00725"></path>
<path d="M0.466 0.115 Q0.349 0.702 1.469 0.888" stroke="hsl(180.0,100%,35%)" stroke-width="0.00363"></path>
<path d="M0.466 0.115 Q0.429 0.623 1.413 0.753" stroke="hsl(180.0,100%,35%)" stroke-width="0.00192"></path>
<path d="M0.466 0.115 Q0.318 0.170 0.394 0.255" stroke="hsl(180.0,100%,35%)" stroke-width="0.00043"></path>
<path d="M0.466 0.115 Q0.378 0.284 0.688 0.364" stroke="hsl(180.0,100%,35%)" stroke-width="0.00021"></path>
<path d="M0.466 0.115 Q0.367 0.082 0.283 0.124" stroke="hsl(180.0,100%,35%)" stroke-width="0.00021"></path>
<path d="M0.466 0.115 Q0.384 0.330 0.785 0.417" stroke="hsl(180.0,100%,35%)" stroke-width="0.00043"></path>
<path d="M0.466 0.115 Q-0.002 0.423 0.497 0.719" stroke="hsl(180.0,100%,35%)" stroke-width="0.00043"></path>
<path d="M0.466 0.115 Q0.204 0.255 0.419 0.413" stroke="hsl(180.0,100%,35%)" stroke-width="0.00021"></path>
<path d="M0.466 0.115 Q0.183 0.702 1.267 0.969" stroke="hsl(180.0,100%,35%)" stroke-width="0.00064"></path>
<path d="M0.683 0.822 Q1.023 1.012 1.469 0.888" stroke="hsl(180.0,100%,35%)" stroke-width="0.00043"></path>
<path d="M0.683 0.822 Q0.878 0.565 0.419 0.413" stroke="hsl(180.0,100%,35%)" stroke-width="0.00171"></path>
<path d="M0.683 0.822 Q0.673 0.733 0.497 0.719" stroke="hsl(180.0,100%,35%)" stroke-width="0.00469"></path>
<path d="M0.683 0.822 Q0.635 0.535 0.064 0.495" stroke="hsl(180.0,100%,35%)" stroke-width="0.00171"></path>
<path d="M0.683 0.822 Q0.992 0.481 0.394 0.255" stroke="hsl(180.0,100%,35%)" stroke-width="0.00064"></path>
<path d="M0.086 0.799 Q0.160 0.763 0.108 0.719" stroke="hsl(180.0,100%,35%)" stroke-width="0.00064"></path>
<path d="M0.086 0.799 Q0.116 0.797 0.119 0.781" stroke="hsl(180.0,100%,35%)" stroke-width="0.00107"></path>
<path d="M0.086 0.799 Q0.356 0.841 0.497 0.719" stroke="hsl(180.0,100%,35%)" stroke-width="0.00043"></path>
<path d="M0.086 0.799 Q0.786 1.041 1.413 0.753" stroke="hsl(180.0,100%,35%)" stroke-width="0.00021"></path>
<path d="M0.108 0.719 Q0.653 1.076 1.469 0.888" stroke="hsl(180.0,100%,35%)" stroke-width="0.00085"></path>
<path d="M0.108 0.719 Q0.265 0.599 0.064 0.495" stroke="hsl(180.0,100%,35%)" stroke-width="0.00021"></path>
<path d="M0.108 0.719 Q0.303 0.797 0.497 0.719" stroke="hsl(180.0,100%,35%)" stroke-width="0.00021"></path>
<path d="M0.108 0.719 Q0.064 0.753 0.119 0.781" stroke="hsl(180.0,100%,35%)" stroke-width="0.00021"></path>
<path d="M0.119 0.781 Q0.358 0.826 0.497 0.719" stroke="hsl(180.0,100%,35%)" stroke-width="0.00661"></path>
<path d="M0.119 0.781 Q0.163 0.748 0.108 0.719" stroke="hsl(180.0,100%,35%)" stroke-width="0.00149"></path>
<path d="M0.119 0.781 Q0.709 1.105 1.469 0.888" stroke="hsl(180.0,100%,35%)" stroke-width="0.00021"></path>
<path d="M0.119 0.781 Q0.046 0.835 0.135 0.882" stroke="hsl(180.0,100%,35%)" stroke-width="0.00021"></path>
<path d="M0.119 0.781 Q0.078 0.870 0.242 0.909" stroke="hsl(180.0,100%,35%)" stroke-width="0.00021"></path>
<path d="M0.119 0.781 Q0.089 0.784 0.086 0.799" stroke="hsl(180.0,100%,35%)" stroke-width="0.00128"></path>
<path d="M0.119 0.781 Q0.320 0.627 0.064 0.495" stroke="hsl(180.0,100%,35%)" stroke-width="0.00043"></path>
<path d="M0.119 0.781 Q0.789 1.026 1.413 0.753" stroke="hsl(180.0,100%,35%)" stroke-width="0.00128"></path>
<path d="M0.119 0.781 Q0.678 0.573 0.394 0.255" stroke="hsl(180.0,100%,35%)" stroke-width="0.00021"></path>
<path d="M0.119 0.781 Q0.343 0.965 0.750 0.895" stroke="hsl(180.0,100%,35%)" stroke-width="0.00021"></path>
<path d="M1.198 0.195 Q0.429 0.317 0.497 0.719" stroke="hsl(180.0,100%,35%)" stroke-width="0.00618"></path>
<path d="M1.198 0.195 Q0.391 0.118 0.064 0.495" stroke="hsl(180.0,100%,35%)" stroke-width="0.00299"></path>
<path d="M1.198 0.195 Q1.423 0.238 1.555 0.138" stroke="hsl(180.0,100%,35%)" stroke-width="0.00064"></path>
<path d="M1.198 0.195 Q0.748 0.064 0.394 0.255" stroke="hsl(180.0,100%,35%)" stroke-width="0.00043"></path>
<path d="M0.218 0.664 Q0.314 0.747 0.497 0.719" stroke="hsl(180.0,100%,35%)" stroke-width="0.00128"></path>
<path d="M0.218 0.664 Q0.276 0.549 0.064 0.495" stroke="hsl(180.0,100%,35%)" stroke-width="0.00149"></path>
<path d="M0.218 0.664 Q0.664 1.026 1.469 0.888" stroke="hsl(180.0,100%,35%)" stroke-width="0.00064"></path>
<path d="M0.098 0.633 Q0.191 0.557 0.064 0.495" stroke="hsl(180.0,100%,35%)" stroke-width="0.00789"></path>
<path d="M0.098 0.633 Q0.229 0.755 0.497 0.719" stroke="hsl(180.0,100%,35%)" stroke-width="0.00384"></path>
<path d="M0.098 0.633 Q0.579 1.035 1.469 0.888" stroke="hsl(180.0,100%,35%)" stroke-width="0.00021"></path>
<path d="M0.098 0.633 Q0.549 0.503 0.394 0.255" stroke="hsl(180.0,100%,35%)" stroke-width="0.00128"></path>
<path d="M0.098 0.633 Q0.058 0.722 0.223 0.761" stroke="hsl(180.0,100%,35%)" stroke-width="0.00021"></path>
<path d="M0.098 0.633 Q0.800 0.880 1.437 0.592" stroke="hsl(180.0,100%,35%)" stroke-width="0.00021"></path>
<path d="M0.109 0.332 Q-0.044 0.405 0.064 0.495" stroke="hsl(180.0,100%,35%)" stroke-width="0.00618"></path>
<path d="M0.109 0.332 Q-0.006 0.603 0.497 0.719" stroke="hsl(180.0,100%,35%)" stroke-width="0.00512"></path>
<path d="M0.109 0.332 Q0.178 0.882 1.267 0.969" stroke="hsl(180.0,100%,35%)" stroke-width="0.00192"></path>
<path d="M0.109 0.332 Q0.344 0.882 1.469 0.888" stroke="hsl(180.0,100%,35%)" stroke-width="0.00021"></path>
<path d="M0.109 0.332 Q0.424 0.803 1.413 0.753" stroke="hsl(180.0,100%,35%)" stroke-width="0.00085"></path>
<path d="M0.109 0.332 Q0.363 0.263 0.283 0.124" stroke="hsl(180.0,100%,35%)" stroke-width="0.00043"></path>
<path d="M0.487 0.559 Q0.364 0.640 0.497 0.719" stroke="hsl(180.0,100%,35%)" stroke-width="0.00043"></path>
<path d="M0.487 0.559 Q0.326 0.442 0.064 0.495" stroke="hsl(180.0,100%,35%)" stroke-width="0.00064"></path>
<path d="M0.487 0.559 Q0.323 0.509 0.191 0.579" stroke="hsl(180.0,100%,35%)" stroke-width="0.00021"></path>
<path d="M0.223 0.761 Q0.394 0.795 0.497 0.719" stroke="hsl(180.0,100%,35%)" stroke-width="0.02794"></path>
<path d="M0.223 0.761 Q0.356 0.596 0.064 0.495" stroke="hsl(180.0,100%,35%)" stroke-width="0.02260"></path>
<path d="M0.223 0.761 Q0.744 1.074 1.469 0.888" stroke="hsl(180.0,100%,35%)" stroke-width="0.00427"></path>
<path d="M0.223 0.761 Q0.713 0.542 0.394 0.255" stroke="hsl(180.0,100%,35%)" stroke-width="0.00043"></path>
<path d="M0.223 0.761 Q0.578 1.074 1.267 0.969" stroke="hsl(180.0,100%,35%)" stroke-width="0.00299"></path>
<path d="M0.223 0.761 Q0.773 0.655 0.688 0.364" stroke="hsl(180.0,100%,35%)" stroke-width="0.00043"></path>
<path d="M0.223 0.761 Q0.965 0.919 1.437 0.592" stroke="hsl(180.0,100%,35%)" stroke-width="0.00064"></path>
<path d="M0.223 0.761 Q0.656 0.980 1.178 0.817" stroke="hsl(180.0,100%,35%)" stroke-width="0.00107"></path>
<path d="M0.223 0.761 Q0.263 0.672 0.098 0.633" stroke="hsl(180.0,100%,35%)" stroke-width="0.00085"></path>
<path d="M0.223 0.761 Q0.565 0.752 0.623 0.583" stroke="hsl(180.0,100%,35%)" stroke-width="0.00021"></path>
<path d="M0.223 0.761 Q0.824 0.995 1.413 0.753" stroke="hsl(180.0,100%,35%)" stroke-width="0.00085"></path>
<path d="M0.223 0.761 Q0.599 0.626 0.419 0.413" stroke="hsl(180.0,100%,35%)" stroke-width="0.00021"></path>
<path d="M0.399 0.519 Q0.639 0.918 1.469 0.888" stroke="hsl(180.0,100%,35%)" stroke-width="0.00021"></path>
<path d="M0.399 0.519 Q0.251 0.440 0.064 0.495" stroke="hsl(180.0,100%,35%)" stroke-width="0.00021"></path>
<path d="M0.399 0.519 Q0.289 0.639 0.497 0.719" stroke="hsl(180.0,100%,35%)" stroke-width="0.00021"></path>
<path d="M0.785 0.417 Q0.868 0.202 0.466 0.115" stroke="hsl(180.0,100%,35%)" stroke-width="0.00192"></path>
<path d="M0.785 0.417 Q0.362 0.312 0.064 0.495" stroke="hsl(180.0,100%,35%)" stroke-width="0.00299"></path>
<path d="M0.785 0.417 Q0.779 0.371 0.688 0.364" stroke="hsl(180.0,100%,35%)" stroke-width="0.00085"></path>
<path d="M0.785 0.417 Q0.751 0.789 1.469 0.888" stroke="hsl(180.0,100%,35%)" stroke-width="0.00128"></path>
<path d="M0.785 0.417 Q0.720 0.258 0.394 0.255" stroke="hsl(180.0,100%,35%)" stroke-width="0.00107"></path>
<path d="M0.785 0.417 Q0.400 0.510 0.497 0.719" stroke="hsl(180.0,100%,35%)" stroke-width="0.00064"></path>
<path d="M0.785 0.417 Q0.695 0.680 1.189 0.782" stroke="hsl(180.0,100%,35%)" stroke-width="0.00043"></path>
<path d="M0.785 0.417 Q0.605 0.342 0.419 0.413" stroke="hsl(180.0,100%,35%)" stroke-width="0.00021"></path>
<path d="M0.785 0.417 Q0.585 0.790 1.267 0.969" stroke="hsl(180.0,100%,35%)" stroke-width="0.00064"></path>
<path d="M0.785 0.417 Q0.831 0.711 1.413 0.753" stroke="hsl(180.0,100%,35%)" stroke-width="0.00021"></path>
<path d="M0.509 0.521 Q0.345 0.617 0.497 0.719" stroke="hsl(180.0,100%,35%)" stroke-width="0.00235"></path>
<path d="M0.509 0.521 Q0.307 0.419 0.064 0.495" stroke="hsl(180.0,100%,35%)" stroke-width="0.00320"></path>
<path d="M0.509 0.521 Q0.214 0.495 0.098 0.633" stroke="hsl(180.0,100%,35%)" stroke-width="0.00235"></path>
<path d="M0.509 0.521 Q0.460 0.346 0.109 0.332" stroke="hsl(180.0,100%,35%)" stroke-width="0.00021"></path>
<path d="M0.191 0.579 Q0.194 0.512 0.064 0.495" stroke="hsl(180.0,100%,35%)" stroke-width="0.00320"></path>
<path d="M0.191 0.579 Q0.101 0.587 0.098 0.633" stroke="hsl(180.0,100%,35%)" stroke-width="0.00043"></path>
<path d="M0.191 0.579 Q0.232 0.710 0.497 0.719" stroke="hsl(180.0,100%,35%)" stroke-width="0.00043"></path>
<path d="M0.191 0.579 Q0.663 0.910 1.413 0.753" stroke="hsl(180.0,100%,35%)" stroke-width="0.00021"></path>
<path d="M0.191 0.579 Q0.552 0.457 0.394 0.255" stroke="hsl(180.0,100%,35%)" stroke-width="0.00021"></path>
<path d="M0.191 0.579 Q0.611 0.571 0.688 0.364" stroke="hsl(180.0,100%,35%)" stroke-width="0.00043"></path>
<path d="M0.268 0.554 Q0.213 0.484 0.064 0.495" stroke="hsl(180.0,100%,35%)" stroke-width="0.00085"></path>
<path d="M0.268 0.554 Q0.250 0.682 0.497 0.719" stroke="hsl(180.0,100%,35%)" stroke-width="0.00043"></path>
<path d="M0.268 0.554 Q0.476 0.681 0.770 0.607" stroke="hsl(180.0,100%,35%)" stroke-width="0.00021"></path>
<path d="M0.974 0.657 Q1.006 0.340 0.394 0.255" stroke="hsl(180.0,100%,35%)" stroke-width="0.00021"></path>
<path d="M0.974 0.657 Q0.982 0.763 1.189 0.782" stroke="hsl(180.0,100%,35%)" stroke-width="0.00021"></path>
<path d="M0.974 0.657 Q0.648 0.394 0.064 0.495" stroke="hsl(180.0,100%,35%)" stroke-width="0.00021"></path>
<path d="M0.974 0.657 Q0.686 0.593 0.497 0.719" stroke="hsl(180.0,100%,35%)" stroke-width="0.00021"></path>
<path d="M0.302 0.594 Q0.300 0.696 0.497 0.719" stroke="hsl(180.0,100%,35%)" stroke-width="0.00341"></path>
<path d="M0.302 0.594 Q0.505 0.527 0.419 0.413" stroke="hsl(180.0,100%,35%)" stroke-width="0.00043"></path>
<path d="M0.302 0.594 Q0.129 0.662 0.223 0.761" stroke="hsl(180.0,100%,35%)" stroke-width="0.00043"></path>
<path d="M0.302 0.594 Q0.262 0.497 0.064 0.495" stroke="hsl(180.0,100%,35%)" stroke-width="0.00299"></path>
<path d="M0.302 0.594 Q0.620 0.443 0.394 0.255" stroke="hsl(180.0,100%,35%)" stroke-width="0.00021"></path>
<path d="M0.146 0.607 Q0.194 0.534 0.064 0.495" stroke="hsl(180.0,100%,35%)" stroke-width="0.00427"></path>
<path d="M0.146 0.607 Q0.232 0.733 0.497 0.719" stroke="hsl(180.0,100%,35%)" stroke-width="0.00299"></path>
<path d="M0.146 0.607 Q0.191 0.602 0.191 0.579" stroke="hsl(180.0,100%,35%)" stroke-width="0.00043"></path>
<path d="M1.550 0.745 Q1.395 0.800 1.469 0.888" stroke="hsl(0.0,100%,35%)" stroke-width="0.00149"></path>
<path d="M1.550 0.745 Q1.340 0.691 1.189 0.782" stroke="hsl(0.0,100%,35%)" stroke-width="0.00021"></path>
<path d="M1.550 0.745 Q1.229 0.801 1.267 0.969" stroke="hsl(0.0,100%,35%)" stroke-width="0.00021"></path>
<path d="M1.550 0.745 Q1.616 0.646 1.437 0.592" stroke="hsl(0.0,100%,35%)" stroke-width="0.00021"></path>
<path d="M1.550 0.745 Q1.006 0.323 0.064 0.495" stroke="hsl(0.0,100%,35%)" stroke-width="0.00021"></path>
<path d="M0.755 0.508 Q0.457 0.562 0.497 0.719" stroke="hsl(180.0,100%,35%)" stroke-width="0.00021"></path>
<path d="M0.755 0.508 Q0.420 0.364 0.064 0.495" stroke="hsl(180.0,100%,35%)" stroke-width="0.00021"></path>
<path d="M0.755 0.508 Q0.287 0.528 0.223 0.761" stroke="hsl(180.0,100%,35%)" stroke-width="0.00021"></path>
<path d="M0.623 0.583 Q0.414 0.427 0.064 0.495" stroke="hsl(180.0,100%,35%)" stroke-width="0.00213"></path>
<path d="M0.623 0.583 Q0.281 0.592 0.223 0.761" stroke="hsl(180.0,100%,35%)" stroke-width="0.00021"></path>
<path d="M0.623 0.583 Q0.452 0.626 0.497 0.719" stroke="hsl(180.0,100%,35%)" stroke-width="0.00235"></path>
<path d="M0.623 0.583 Q1.023 0.750 1.437 0.592" stroke="hsl(180.0,100%,35%)" stroke-width="0.00021"></path>
<path d="M0.623 0.583 Q0.771 0.373 0.394 0.255" stroke="hsl(180.0,100%,35%)" stroke-width="0.00021"></path>
<path d="M0.623 0.583 Q0.636 0.905 1.267 0.969" stroke="hsl(180.0,100%,35%)" stroke-width="0.00043"></path>
<path d="M0.623 0.583 Q0.591 0.749 0.908 0.801" stroke="hsl(180.0,100%,35%)" stroke-width="0.00064"></path>
<path d="M0.623 0.583 Q0.713 0.811 1.178 0.817" stroke="hsl(180.0,100%,35%)" stroke-width="0.00021"></path>
<path d="M0.053 0.646 Q0.568 1.050 1.469 0.888" stroke="hsl(0.0,100%,35%)" stroke-width="0.00021"></path>
<path d="M0.053 0.646 Q0.648 0.971 1.413 0.753" stroke="hsl(0.0,100%,35%)" stroke-width="0.00021"></path>
<path d="M0.053 0.646 Q0.094 0.618 0.049 0.592" stroke="hsl(0.0,100%,35%)" stroke-width="0.00021"></path>
<path d="M0.053 0.646 Q0.402 1.051 1.267 0.969" stroke="hsl(0.0,100%,35%)" stroke-width="0.00021"></path>
<path d="M0.728 0.534 Q0.464 0.580 0.497 0.719" stroke="hsl(180.0,100%,35%)" stroke-width="0.00043"></path>
<path d="M0.728 0.534 Q0.427 0.382 0.064 0.495" stroke="hsl(180.0,100%,35%)" stroke-width="0.00043"></path>
<path d="M0.728 0.534 Q0.844 0.441 0.688 0.364" stroke="hsl(180.0,100%,35%)" stroke-width="0.00021"></path>
<path d="M0.728 0.534 Q0.895 0.780 1.413 0.753" stroke="hsl(180.0,100%,35%)" stroke-width="0.00021"></path>
<path d="M0.461 0.545 Q0.302 0.441 0.064 0.495" stroke="hsl(180.0,100%,35%)" stroke-width="0.00021"></path>
<path d="M0.461 0.545 Q0.602 0.825 1.178 0.817" stroke="hsl(180.0,100%,35%)" stroke-width="0.00021"></path>
<path d="M0.461 0.545 Q0.340 0.639 0.497 0.719" stroke="hsl(180.0,100%,35%)" stroke-width="0.00021"></path>
<path d="M0.806 0.717 Q0.612 0.457 0.064 0.495" stroke="hsl(180.0,100%,35%)" stroke-width="0.00021"></path>
<path d="M0.806 0.717 Q0.970 0.403 0.394 0.255" stroke="hsl(180.0,100%,35%)" stroke-width="0.00064"></path>
<path d="M0.806 0.717 Q1.000 0.935 1.469 0.888" stroke="hsl(180.0,100%,35%)" stroke-width="0.00064"></path>
<path d="M0.806 0.717 Q0.945 0.826 1.189 0.782" stroke="hsl(180.0,100%,35%)" stroke-width="0.00021"></path>
<path d="M0.806 0.717 Q0.650 0.656 0.497 0.719" stroke="hsl(180.0,100%,35%)" stroke-width="0.00107"></path>
<path d="M0.100 0.572 Q0.181 0.724 0.497 0.719" stroke="hsl(180.0,100%,35%)" stroke-width="0.00043"></path>
<path d="M0.100 0.572 Q0.143 0.526 0.064 0.495" stroke="hsl(180.0,100%,35%)" stroke-width="0.00021"></path>
<path d="M0.100 0.572 Q0.296 0.454 0.109 0.332" stroke="hsl(180.0,100%,35%)" stroke-width="0.00021"></path>
</g>
<text x="1.189" y="0.764" font-size="0.036431" fill="hsl(0.0,100%,20%)">amaiorano</text>
<text x="1.469" y="0.849" font-size="0.077196" fill="hsl(0.0,100%,20%)">bclayton</text>
<text x="0.064" y="0.458" font-size="0.074899" fill="hsl(180.0,100%,20%)">enga</text>
<text x="0.235" y="0.545" font-size="0.011117" fill="hsl(180.0,100%,20%)">ynovikov</text>
<text x="0.497" y="0.682" font-size="0.072530" fill="hsl(180.0,100%,20%)">cwallez</text>
<text x="1.413" y="0.720" font-size="0.065236" fill="hsl(0.0,100%,20%)">dsinclair</text>
<text x="1.267" y="0.936" font-size="0.067463" fill="hsl(0.0,100%,20%)">jrprice</text>
<text x="0.419" y="0.398" font-size="0.031358" fill="hsl(180.0,100%,20%)">kainino</text>
<text x="1.437" y="0.578" font-size="0.027033" fill="hsl(0.0,100%,20%)">rharrison</text>
<text x="0.555" y="0.411" font-size="0.020075" fill="hsl(180.0,100%,20%)">bsheedy</text>
<text x="1.182" y="0.795" font-size="0.012697" fill="hsl(0.0,100%,20%)">chouinard</text>
<text x="1.167" y="0.610" font-size="0.003278" fill="hsl(0.0,100%,20%)">kbr</text>
<text x="0.956" y="0.507" font-size="0.005183" fill="hsl(180.0,100%,20%)">amir</text>
<text x="0.688" y="0.355" font-size="0.018545" fill="hsl(180.0,100%,20%)">bajones</text>
<text x="0.750" y="0.886" font-size="0.019255" fill="hsl(180.0,100%,20%)">jaswant.panchumarti</text>
<text x="0.532" y="0.793" font-size="0.015376" fill="hsl(180.0,100%,20%)">arthursonzogni</text>
<text x="0.335" y="0.855" font-size="0.002318" fill="hsl(180.0,100%,20%)">khaslett</text>
<text x="0.542" y="0.346" font-size="0.007330" fill="hsl(180.0,100%,20%)">austineng</text>
<text x="0.394" y="0.232" font-size="0.045720" fill="hsl(180.0,100%,20%)">lokokung</text>
<text x="0.283" y="0.112" font-size="0.023640" fill="hsl(180.0,100%,20%)">shrekshao</text>
<text x="1.178" y="0.803" font-size="0.027526" fill="hsl(0.0,100%,20%)">dneto</text>
<text x="1.685" y="0.612" font-size="0.002318" fill="hsl(0.0,100%,20%)">brucedawson</text>
<text x="0.466" y="0.101" font-size="0.027428" fill="hsl(180.0,100%,20%)">senorblanco</text>
<text x="1.776" y="0.622" font-size="0.002318" fill="hsl(0.0,100%,20%)">kjlubick</text>
<text x="0.683" y="0.815" font-size="0.015376" fill="hsl(180.0,100%,20%)">beaufort.francois</text>
<text x="0.086" y="0.794" font-size="0.009835" fill="hsl(180.0,100%,20%)">bentonian</text>
<text x="0.108" y="0.714" font-size="0.011356" fill="hsl(180.0,100%,20%)">nexa</text>
<text x="0.119" y="0.771" font-size="0.020208" fill="hsl(180.0,100%,20%)">jimblackler</text>
<text x="1.198" y="0.187" font-size="0.016391" fill="hsl(180.0,100%,20%)">blundell</text>
<text x="1.555" y="0.136" font-size="0.004015" fill="hsl(180.0,100%,20%)">nicolettep</text>
<text x="0.218" y="0.659" font-size="0.009272" fill="hsl(180.0,100%,20%)">brandon1.jones</text>
<text x="0.728" y="0.360" font-size="0.002318" fill="hsl(180.0,100%,20%)">chanli</text>
<text x="0.098" y="0.622" font-size="0.021372" fill="hsl(180.0,100%,20%)">penghuang</text>
<text x="0.911" y="0.619" font-size="0.002318" fill="hsl(180.0,100%,20%)">fhorschig</text>
<text x="0.760" y="0.546" font-size="0.002318" fill="hsl(180.0,100%,20%)">jamesgk</text>
<text x="0.109" y="0.322" font-size="0.020473" fill="hsl(180.0,100%,20%)">lehoangquyen</text>
<text x="0.620" y="0.804" font-size="0.003278" fill="hsl(180.0,100%,20%)">fbeaufort</text>
<text x="0.487" y="0.555" font-size="0.006556" fill="hsl(180.0,100%,20%)">shaobo.yan</text>
<text x="0.223" y="0.741" font-size="0.040217" fill="hsl(180.0,100%,20%)">jiawei.shao</text>
<text x="0.399" y="0.517" font-size="0.004015" fill="hsl(180.0,100%,20%)">danakj</text>
<text x="0.908" y="0.797" font-size="0.006954" fill="hsl(0.0,100%,20%)">alanbaker</text>
<text x="1.831" y="0.589" font-size="0.002318" fill="hsl(0.0,100%,20%)">yiwzhang</text>
<text x="0.785" y="0.408" font-size="0.017654" fill="hsl(180.0,100%,20%)">gman</text>
<text x="1.778" y="0.610" font-size="0.002318" fill="hsl(0.0,100%,20%)">ddoman</text>
<text x="0.509" y="0.514" font-size="0.014476" fill="hsl(180.0,100%,20%)">jie.a.chen</text>
<text x="0.191" y="0.573" font-size="0.012045" fill="hsl(180.0,100%,20%)">sunnyps</text>
<text x="0.268" y="0.551" font-size="0.006133" fill="hsl(180.0,100%,20%)">geofflang</text>
<text x="0.770" y="0.606" font-size="0.002318" fill="hsl(180.0,100%,20%)">fmalita</text>
<text x="0.974" y="0.655" font-size="0.004636" fill="hsl(180.0,100%,20%)">hans</text>
<text x="0.302" y="0.588" font-size="0.013714" fill="hsl(180.0,100%,20%)">hao.x.li</text>
<text x="0.146" y="0.600" font-size="0.013908" fill="hsl(180.0,100%,20%)">hitawala</text>
<text x="1.550" y="0.741" font-size="0.007688" fill="hsl(0.0,100%,20%)">jason.erb</text>
<text x="0.755" y="0.506" font-size="0.004015" fill="hsl(180.0,100%,20%)">jianlin.qiu</text>
<text x="0.623" y="0.577" font-size="0.012906" fill="hsl(180.0,100%,20%)">zhaoming.jiang</text>
<text x="0.135" y="0.881" font-size="0.002318" fill="hsl(180.0,100%,20%)">artyompp</text>
<text x="0.242" y="0.908" font-size="0.002318" fill="hsl(180.0,100%,20%)">vantablack</text>
<text x="0.053" y="0.644" font-size="0.004636" fill="hsl(0.0,100%,20%)">jojwang</text>
<text x="0.049" y="0.591" font-size="0.002318" fill="hsl(0.0,100%,20%)">gavinmak</text>
<text x="0.961" y="0.603" font-size="0.002318" fill="hsl(0.0,100%,20%)">johnstiles</text>
<text x="0.728" y="0.531" font-size="0.005678" fill="hsl(180.0,100%,20%)">rafael.cintron</text>
<text x="0.461" y="0.543" font-size="0.004015" fill="hsl(180.0,100%,20%)">srijan.dhungana6</text>
<text x="0.806" y="0.712" font-size="0.008358" fill="hsl(180.0,100%,20%)">tiszka</text>
<text x="0.100" y="0.569" font-size="0.004636" fill="hsl(180.0,100%,20%)">vollick</text>
</svg>
