<svg width="4000" height="2000" viewBox="-0.025 -0.025 2.05 1.05" xmlns="http://www.w3.org/2000/svg">
  <style>
    path {
      fill: none;
      stroke-linecap: round;
      stroke-opacity: 0.4;
    }

    text {
      text-anchor: middle;
      alignment-baseline: hanging;
    }
  </style>
  <g opacity="0.4">
<path d="M0.571 0.284 Q1.000 0.607 1.725 0.469" stroke="hsl(0.0,100%,35%)" stroke-width="0.00241"></path>
<path d="M0.571 0.284 Q0.910 0.247 0.911 0.073" stroke="hsl(0.0,100%,35%)" stroke-width="0.00241"></path>
<path d="M0.571 0.284 Q0.360 0.544 0.821 0.704" stroke="hsl(0.0,100%,35%)" stroke-width="0.00060"></path>
<path d="M0.571 0.284 Q0.417 0.385 0.581 0.483" stroke="hsl(0.0,100%,35%)" stroke-width="0.00241"></path>
<path d="M0.571 0.284 Q0.737 0.445 1.088 0.400" stroke="hsl(0.0,100%,35%)" stroke-width="0.00060"></path>
<path d="M0.571 0.284 Q0.775 0.290 0.832 0.192" stroke="hsl(0.0,100%,35%)" stroke-width="0.00060"></path>
<path d="M0.571 0.284 Q0.975 0.337 1.168 0.152" stroke="hsl(0.0,100%,35%)" stroke-width="0.00181"></path>
<path d="M0.571 0.284 Q1.181 0.474 1.685 0.218" stroke="hsl(0.0,100%,35%)" stroke-width="0.00060"></path>
<path d="M1.725 0.469 Q1.296 0.146 0.571 0.284" stroke="hsl(0.0,100%,35%)" stroke-width="0.00241"></path>
<path d="M1.725 0.469 Q1.085 0.406 0.821 0.704" stroke="hsl(0.0,100%,35%)" stroke-width="0.00603"></path>
<path d="M1.725 0.469 Q1.665 0.394 1.506 0.407" stroke="hsl(0.0,100%,35%)" stroke-width="0.00241"></path>
<path d="M1.725 0.469 Q1.906 0.335 1.685 0.218" stroke="hsl(0.0,100%,35%)" stroke-width="0.05305"></path>
<path d="M1.725 0.469 Q1.462 0.307 1.088 0.400" stroke="hsl(0.0,100%,35%)" stroke-width="0.00060"></path>
<path d="M1.725 0.469 Q1.700 0.199 1.168 0.152" stroke="hsl(0.0,100%,35%)" stroke-width="0.00723"></path>
<path d="M1.725 0.469 Q1.635 0.108 0.911 0.073" stroke="hsl(0.0,100%,35%)" stroke-width="0.01929"></path>
<path d="M0.911 0.073 Q0.976 0.164 1.168 0.152" stroke="hsl(0.0,100%,35%)" stroke-width="0.00301"></path>
<path d="M0.911 0.073 Q1.182 0.300 1.685 0.218" stroke="hsl(0.0,100%,35%)" stroke-width="0.00603"></path>
<path d="M0.911 0.073 Q1.001 0.434 1.725 0.469" stroke="hsl(0.0,100%,35%)" stroke-width="0.00362"></path>
<path d="M0.911 0.073 Q0.738 0.272 1.088 0.400" stroke="hsl(0.0,100%,35%)" stroke-width="0.00060"></path>
<path d="M0.911 0.073 Q0.941 0.359 1.506 0.407" stroke="hsl(0.0,100%,35%)" stroke-width="0.00060"></path>
<path d="M0.821 0.704 Q0.878 0.545 0.581 0.483" stroke="hsl(180.0,100%,35%)" stroke-width="0.03014"></path>
<path d="M0.821 0.704 Q1.461 0.767 1.725 0.469" stroke="hsl(180.0,100%,35%)" stroke-width="0.00844"></path>
<path d="M0.821 0.704 Q1.015 0.659 0.969 0.554" stroke="hsl(180.0,100%,35%)" stroke-width="0.00723"></path>
<path d="M0.821 0.704 Q1.175 0.546 0.944 0.339" stroke="hsl(180.0,100%,35%)" stroke-width="0.01025"></path>
<path d="M0.821 0.704 Q0.653 0.693 0.594 0.772" stroke="hsl(180.0,100%,35%)" stroke-width="0.00060"></path>
<path d="M0.821 0.704 Q1.139 0.796 1.389 0.661" stroke="hsl(180.0,100%,35%)" stroke-width="0.00121"></path>
<path d="M0.821 0.704 Q1.641 0.634 1.685 0.218" stroke="hsl(180.0,100%,35%)" stroke-width="0.00060"></path>
<path d="M0.821 0.704 Q1.081 0.540 0.818 0.376" stroke="hsl(180.0,100%,35%)" stroke-width="0.00060"></path>
<path d="M0.821 0.704 Q1.047 0.510 0.717 0.357" stroke="hsl(180.0,100%,35%)" stroke-width="0.00301"></path>
<path d="M0.821 0.704 Q1.436 0.497 1.168 0.152" stroke="hsl(180.0,100%,35%)" stroke-width="0.00121"></path>
<path d="M0.581 0.483 Q0.785 0.477 0.818 0.376" stroke="hsl(180.0,100%,35%)" stroke-width="0.00060"></path>
<path d="M0.581 0.483 Q0.524 0.641 0.821 0.704" stroke="hsl(180.0,100%,35%)" stroke-width="0.00723"></path>
<path d="M0.581 0.483 Q0.878 0.483 0.944 0.339" stroke="hsl(180.0,100%,35%)" stroke-width="0.01869"></path>
<path d="M0.581 0.483 Q0.660 0.598 0.903 0.585" stroke="hsl(180.0,100%,35%)" stroke-width="0.00121"></path>
<path d="M0.581 0.483 Q0.718 0.596 0.969 0.554" stroke="hsl(180.0,100%,35%)" stroke-width="0.00784"></path>
<path d="M0.581 0.483 Q0.670 0.579 0.876 0.556" stroke="hsl(180.0,100%,35%)" stroke-width="0.00060"></path>
<path d="M0.581 0.483 Q0.467 0.548 0.568 0.618" stroke="hsl(180.0,100%,35%)" stroke-width="0.00181"></path>
<path d="M0.581 0.483 Q0.750 0.447 0.717 0.357" stroke="hsl(180.0,100%,35%)" stroke-width="0.00060"></path>
<path d="M0.581 0.483 Q0.771 0.457 0.762 0.359" stroke="hsl(180.0,100%,35%)" stroke-width="0.00060"></path>
<path d="M0.581 0.483 Q1.164 0.705 1.725 0.469" stroke="hsl(180.0,100%,35%)" stroke-width="0.00121"></path>
<path d="M0.581 0.483 Q0.735 0.381 0.571 0.284" stroke="hsl(180.0,100%,35%)" stroke-width="0.00121"></path>
<path d="M0.581 0.483 Q0.901 0.543 1.088 0.400" stroke="hsl(180.0,100%,35%)" stroke-width="0.00121"></path>
<path d="M0.581 0.483 Q0.292 0.605 0.467 0.773" stroke="hsl(180.0,100%,35%)" stroke-width="0.00060"></path>
<path d="M0.832 0.192 Q0.966 0.148 0.911 0.073" stroke="hsl(0.0,100%,35%)" stroke-width="0.00121"></path>
<path d="M0.832 0.192 Q1.056 0.509 1.725 0.469" stroke="hsl(0.0,100%,35%)" stroke-width="0.00060"></path>
<path d="M0.832 0.192 Q0.628 0.186 0.571 0.284" stroke="hsl(0.0,100%,35%)" stroke-width="0.00060"></path>
<path d="M0.832 0.192 Q1.237 0.375 1.685 0.218" stroke="hsl(0.0,100%,35%)" stroke-width="0.00060"></path>
<path d="M0.832 0.192 Q1.031 0.239 1.168 0.152" stroke="hsl(0.0,100%,35%)" stroke-width="0.00060"></path>
<path d="M1.168 0.152 Q1.374 0.289 1.685 0.218" stroke="hsl(0.0,100%,35%)" stroke-width="0.04521"></path>
<path d="M1.168 0.152 Q1.193 0.422 1.725 0.469" stroke="hsl(0.0,100%,35%)" stroke-width="0.00121"></path>
<path d="M1.168 0.152 Q0.553 0.359 0.821 0.704" stroke="hsl(0.0,100%,35%)" stroke-width="0.00241"></path>
<path d="M1.168 0.152 Q0.968 0.105 0.832 0.192" stroke="hsl(0.0,100%,35%)" stroke-width="0.00060"></path>
<path d="M1.168 0.152 Q0.779 0.164 0.717 0.357" stroke="hsl(0.0,100%,35%)" stroke-width="0.00060"></path>
<path d="M1.168 0.152 Q0.764 0.099 0.571 0.284" stroke="hsl(0.0,100%,35%)" stroke-width="0.00060"></path>
<path d="M1.168 0.152 Q0.695 0.272 0.825 0.528" stroke="hsl(0.0,100%,35%)" stroke-width="0.00060"></path>
<path d="M1.168 0.152 Q1.115 0.222 1.239 0.263" stroke="hsl(0.0,100%,35%)" stroke-width="0.00060"></path>
<path d="M1.168 0.152 Q0.610 0.200 0.581 0.483" stroke="hsl(0.0,100%,35%)" stroke-width="0.00060"></path>
<path d="M1.685 0.218 Q1.504 0.352 1.725 0.469" stroke="hsl(0.0,100%,35%)" stroke-width="0.02351"></path>
<path d="M1.685 0.218 Q0.864 0.288 0.821 0.704" stroke="hsl(0.0,100%,35%)" stroke-width="0.00121"></path>
<path d="M1.685 0.218 Q1.479 0.082 1.168 0.152" stroke="hsl(0.0,100%,35%)" stroke-width="0.03798"></path>
<path d="M1.685 0.218 Q0.921 0.130 0.581 0.483" stroke="hsl(0.0,100%,35%)" stroke-width="0.00362"></path>
<path d="M1.685 0.218 Q1.075 0.028 0.571 0.284" stroke="hsl(0.0,100%,35%)" stroke-width="0.00241"></path>
<path d="M1.685 0.218 Q1.414 -0.009 0.911 0.073" stroke="hsl(0.0,100%,35%)" stroke-width="0.00060"></path>
<path d="M1.685 0.218 Q1.279 0.034 0.832 0.192" stroke="hsl(0.0,100%,35%)" stroke-width="0.00060"></path>
<path d="M1.685 0.218 Q1.479 0.185 1.369 0.278" stroke="hsl(0.0,100%,35%)" stroke-width="0.00060"></path>
<path d="M0.903 0.585 Q0.961 0.583 0.969 0.554" stroke="hsl(180.0,100%,35%)" stroke-width="0.00060"></path>
<path d="M0.903 0.585 Q1.121 0.470 0.944 0.339" stroke="hsl(180.0,100%,35%)" stroke-width="0.00060"></path>
<path d="M0.903 0.585 Q0.824 0.470 0.581 0.483" stroke="hsl(180.0,100%,35%)" stroke-width="0.00060"></path>
<path d="M0.969 0.554 Q1.152 0.501 1.088 0.400" stroke="hsl(180.0,100%,35%)" stroke-width="0.00181"></path>
<path d="M0.969 0.554 Q0.832 0.441 0.581 0.483" stroke="hsl(180.0,100%,35%)" stroke-width="0.00422"></path>
<path d="M0.969 0.554 Q1.129 0.441 0.944 0.339" stroke="hsl(180.0,100%,35%)" stroke-width="0.00060"></path>
<path d="M0.969 0.554 Q1.415 0.663 1.725 0.469" stroke="hsl(180.0,100%,35%)" stroke-width="0.00060"></path>
<path d="M0.969 0.554 Q0.550 0.413 0.182 0.586" stroke="hsl(180.0,100%,35%)" stroke-width="0.00060"></path>
<path d="M0.944 0.339 Q0.647 0.338 0.581 0.483" stroke="hsl(180.0,100%,35%)" stroke-width="0.01567"></path>
<path d="M0.944 0.339 Q0.590 0.497 0.821 0.704" stroke="hsl(180.0,100%,35%)" stroke-width="0.00181"></path>
<path d="M0.944 0.339 Q0.784 0.451 0.969 0.554" stroke="hsl(180.0,100%,35%)" stroke-width="0.00422"></path>
<path d="M0.944 0.339 Q0.533 0.403 0.568 0.618" stroke="hsl(180.0,100%,35%)" stroke-width="0.00241"></path>
<path d="M0.944 0.339 Q1.411 0.427 1.685 0.218" stroke="hsl(180.0,100%,35%)" stroke-width="0.00060"></path>
<path d="M1.506 0.407 Q1.566 0.482 1.725 0.469" stroke="hsl(0.0,100%,35%)" stroke-width="0.00181"></path>
<path d="M1.506 0.407 Q1.541 0.212 1.168 0.152" stroke="hsl(0.0,100%,35%)" stroke-width="0.00060"></path>
<path d="M1.506 0.407 Q0.983 0.260 0.581 0.483" stroke="hsl(0.0,100%,35%)" stroke-width="0.00301"></path>
<path d="M1.506 0.407 Q0.926 0.418 0.821 0.704" stroke="hsl(0.0,100%,35%)" stroke-width="0.00060"></path>
<path d="M1.506 0.407 Q1.747 0.348 1.685 0.218" stroke="hsl(0.0,100%,35%)" stroke-width="0.00241"></path>
<path d="M1.506 0.407 Q1.476 0.121 0.911 0.073" stroke="hsl(0.0,100%,35%)" stroke-width="0.00060"></path>
<path d="M0.182 0.586 Q1.047 0.836 1.725 0.469" stroke="hsl(180.0,100%,35%)" stroke-width="0.00060"></path>
<path d="M0.182 0.586 Q0.601 0.727 0.969 0.554" stroke="hsl(180.0,100%,35%)" stroke-width="0.00181"></path>
<path d="M0.182 0.586 Q0.407 0.773 0.821 0.704" stroke="hsl(180.0,100%,35%)" stroke-width="0.00060"></path>
<path d="M0.182 0.586 Q0.464 0.614 0.581 0.483" stroke="hsl(180.0,100%,35%)" stroke-width="0.00121"></path>
<path d="M0.868 0.573 Q0.740 0.629 0.821 0.704" stroke="hsl(180.0,100%,35%)" stroke-width="0.00362"></path>
<path d="M0.868 0.573 Q0.797 0.471 0.581 0.483" stroke="hsl(180.0,100%,35%)" stroke-width="0.00422"></path>
<path d="M0.868 0.573 Q0.954 0.553 0.933 0.506" stroke="hsl(180.0,100%,35%)" stroke-width="0.00060"></path>
<path d="M0.818 0.376 Q0.614 0.382 0.581 0.483" stroke="hsl(180.0,100%,35%)" stroke-width="0.00362"></path>
<path d="M0.818 0.376 Q0.783 0.346 0.717 0.357" stroke="hsl(180.0,100%,35%)" stroke-width="0.00121"></path>
<path d="M0.818 0.376 Q0.557 0.541 0.821 0.704" stroke="hsl(180.0,100%,35%)" stroke-width="0.00121"></path>
<path d="M0.717 0.357 Q0.548 0.392 0.581 0.483" stroke="hsl(180.0,100%,35%)" stroke-width="0.00965"></path>
<path d="M0.717 0.357 Q0.491 0.551 0.821 0.704" stroke="hsl(180.0,100%,35%)" stroke-width="0.00060"></path>
<path d="M0.717 0.357 Q1.106 0.344 1.168 0.152" stroke="hsl(180.0,100%,35%)" stroke-width="0.00060"></path>
<path d="M0.825 0.528 Q0.682 0.615 0.821 0.704" stroke="hsl(180.0,100%,35%)" stroke-width="0.01025"></path>
<path d="M0.825 0.528 Q1.297 0.409 1.168 0.152" stroke="hsl(180.0,100%,35%)" stroke-width="0.00784"></path>
<path d="M0.825 0.528 Q0.521 0.659 0.709 0.835" stroke="hsl(180.0,100%,35%)" stroke-width="0.00181"></path>
<path d="M0.825 0.528 Q1.036 0.457 0.944 0.339" stroke="hsl(180.0,100%,35%)" stroke-width="0.00060"></path>
<path d="M0.876 0.556 Q0.731 0.619 0.821 0.704" stroke="hsl(180.0,100%,35%)" stroke-width="0.00241"></path>
<path d="M0.876 0.556 Q0.788 0.461 0.581 0.483" stroke="hsl(180.0,100%,35%)" stroke-width="0.00362"></path>
<path d="M0.876 0.556 Q0.594 0.431 0.288 0.542" stroke="hsl(180.0,100%,35%)" stroke-width="0.00301"></path>
<path d="M0.568 0.618 Q0.683 0.553 0.581 0.483" stroke="hsl(180.0,100%,35%)" stroke-width="0.00603"></path>
<path d="M0.568 0.618 Q0.625 0.711 0.821 0.704" stroke="hsl(180.0,100%,35%)" stroke-width="0.00121"></path>
<path d="M0.568 0.618 Q1.241 0.505 1.168 0.152" stroke="hsl(180.0,100%,35%)" stroke-width="0.00181"></path>
<path d="M0.568 0.618 Q0.979 0.553 0.944 0.339" stroke="hsl(180.0,100%,35%)" stroke-width="0.00241"></path>
<path d="M0.568 0.618 Q0.852 0.517 0.717 0.357" stroke="hsl(180.0,100%,35%)" stroke-width="0.00181"></path>
<path d="M0.762 0.359 Q0.573 0.385 0.581 0.483" stroke="hsl(180.0,100%,35%)" stroke-width="0.00301"></path>
<path d="M0.762 0.359 Q0.379 0.355 0.288 0.542" stroke="hsl(180.0,100%,35%)" stroke-width="0.00060"></path>
<path d="M0.762 0.359 Q0.515 0.543 0.821 0.704" stroke="hsl(180.0,100%,35%)" stroke-width="0.00121"></path>
<path d="M0.762 0.359 Q1.130 0.337 1.168 0.152" stroke="hsl(180.0,100%,35%)" stroke-width="0.00060"></path>
<path d="M0.467 0.773 Q0.756 0.651 0.581 0.483" stroke="hsl(180.0,100%,35%)" stroke-width="0.00844"></path>
<path d="M0.467 0.773 Q1.520 0.739 1.685 0.218" stroke="hsl(180.0,100%,35%)" stroke-width="0.00543"></path>
<path d="M0.467 0.773 Q0.699 0.809 0.821 0.704" stroke="hsl(180.0,100%,35%)" stroke-width="0.00844"></path>
<path d="M0.467 0.773 Q1.339 0.873 1.725 0.469" stroke="hsl(180.0,100%,35%)" stroke-width="0.00060"></path>
<path d="M0.467 0.773 Q1.314 0.603 1.168 0.152" stroke="hsl(180.0,100%,35%)" stroke-width="0.00241"></path>
<path d="M1.369 0.278 Q0.754 0.381 0.821 0.704" stroke="hsl(0.0,100%,35%)" stroke-width="0.00060"></path>
<path d="M1.369 0.278 Q1.394 0.445 1.725 0.469" stroke="hsl(0.0,100%,35%)" stroke-width="0.00060"></path>
<path d="M1.369 0.278 Q1.574 0.311 1.685 0.218" stroke="hsl(0.0,100%,35%)" stroke-width="0.00121"></path>
<path d="M1.369 0.278 Q1.369 0.175 1.168 0.152" stroke="hsl(0.0,100%,35%)" stroke-width="0.00060"></path>
<path d="M0.429 0.582 Q0.528 0.721 0.821 0.704" stroke="hsl(180.0,100%,35%)" stroke-width="0.00362"></path>
<path d="M0.429 0.582 Q0.721 0.676 0.969 0.554" stroke="hsl(180.0,100%,35%)" stroke-width="0.00060"></path>
<path d="M0.429 0.582 Q0.585 0.563 0.581 0.483" stroke="hsl(180.0,100%,35%)" stroke-width="0.00241"></path>
<path d="M0.429 0.582 Q0.631 0.778 1.057 0.722" stroke="hsl(180.0,100%,35%)" stroke-width="0.00060"></path>
<path d="M1.057 0.722 Q0.954 0.666 0.821 0.704" stroke="hsl(180.0,100%,35%)" stroke-width="0.02532"></path>
<path d="M1.057 0.722 Q1.011 0.507 0.581 0.483" stroke="hsl(180.0,100%,35%)" stroke-width="0.02231"></path>
<path d="M1.057 0.722 Q1.147 0.621 0.969 0.554" stroke="hsl(180.0,100%,35%)" stroke-width="0.00060"></path>
<path d="M1.057 0.722 Q1.307 0.508 0.944 0.339" stroke="hsl(180.0,100%,35%)" stroke-width="0.00060"></path>
<path d="M1.057 0.722 Q1.503 0.369 0.911 0.073" stroke="hsl(180.0,100%,35%)" stroke-width="0.00121"></path>
<path d="M1.057 0.722 Q1.594 0.729 1.725 0.469" stroke="hsl(180.0,100%,35%)" stroke-width="0.00060"></path>
<path d="M1.057 0.722 Q1.774 0.596 1.685 0.218" stroke="hsl(180.0,100%,35%)" stroke-width="0.00663"></path>
<path d="M1.057 0.722 Q1.569 0.460 1.168 0.152" stroke="hsl(180.0,100%,35%)" stroke-width="0.00121"></path>
<path d="M0.709 0.835 Q0.870 0.792 0.821 0.704" stroke="hsl(180.0,100%,35%)" stroke-width="0.01507"></path>
<path d="M0.709 0.835 Q0.905 0.900 1.075 0.819" stroke="hsl(180.0,100%,35%)" stroke-width="0.00301"></path>
<path d="M0.709 0.835 Q0.706 0.951 0.931 0.977" stroke="hsl(180.0,100%,35%)" stroke-width="0.00060"></path>
<path d="M0.709 0.835 Q0.472 0.784 0.320 0.888" stroke="hsl(180.0,100%,35%)" stroke-width="0.00060"></path>
<path d="M0.709 0.835 Q0.551 0.841 0.527 0.919" stroke="hsl(180.0,100%,35%)" stroke-width="0.00181"></path>
<path d="M0.709 0.835 Q0.927 0.633 0.581 0.483" stroke="hsl(180.0,100%,35%)" stroke-width="0.00121"></path>
<path d="M0.709 0.835 Q1.485 0.585 1.168 0.152" stroke="hsl(180.0,100%,35%)" stroke-width="0.00301"></path>
<path d="M0.709 0.835 Q1.224 0.634 0.944 0.339" stroke="hsl(180.0,100%,35%)" stroke-width="0.00060"></path>
<path d="M0.288 0.542 Q0.482 0.571 0.581 0.483" stroke="hsl(180.0,100%,35%)" stroke-width="0.00784"></path>
<path d="M0.288 0.542 Q0.425 0.729 0.821 0.704" stroke="hsl(180.0,100%,35%)" stroke-width="0.00301"></path>
<path d="M0.288 0.542 Q0.778 0.571 0.944 0.339" stroke="hsl(180.0,100%,35%)" stroke-width="0.00301"></path>
<path d="M0.288 0.542 Q0.528 0.786 1.057 0.722" stroke="hsl(180.0,100%,35%)" stroke-width="0.00060"></path>
<path d="M0.288 0.542 Q0.974 0.432 0.911 0.073" stroke="hsl(180.0,100%,35%)" stroke-width="0.00060"></path>
<path d="M1.410 0.504 Q1.405 0.612 1.613 0.638" stroke="hsl(0.0,100%,35%)" stroke-width="0.00060"></path>
<path d="M1.410 0.504 Q1.776 0.416 1.685 0.218" stroke="hsl(0.0,100%,35%)" stroke-width="0.00060"></path>
<path d="M1.410 0.504 Q1.536 0.475 1.506 0.407" stroke="hsl(0.0,100%,35%)" stroke-width="0.00060"></path>
<path d="M1.410 0.504 Q1.013 0.328 0.581 0.483" stroke="hsl(0.0,100%,35%)" stroke-width="0.00060"></path>
</g>
<text x="0.571" y="0.272" font-size="0.024789" fill="hsl(0.0,100%,20%)">amaiorano</text>
<text x="1.725" y="0.435" font-size="0.067078" fill="hsl(0.0,100%,20%)">bclayton</text>
<text x="0.911" y="0.055" font-size="0.036169" fill="hsl(0.0,100%,20%)">rharrison</text>
<text x="0.821" y="0.668" font-size="0.072612" fill="hsl(180.0,100%,20%)">cwallez</text>
<text x="0.581" y="0.445" font-size="0.076468" fill="hsl(180.0,100%,20%)">enga</text>
<text x="1.088" y="0.393" font-size="0.012593" fill="hsl(180.0,100%,20%)">bsheedy</text>
<text x="0.832" y="0.185" font-size="0.013356" fill="hsl(0.0,100%,20%)">chouinard</text>
<text x="1.168" y="0.120" font-size="0.063589" fill="hsl(0.0,100%,20%)">dsinclair</text>
<text x="1.685" y="0.178" font-size="0.079767" fill="hsl(0.0,100%,20%)">jrprice</text>
<text x="0.903" y="0.580" font-size="0.009955" fill="hsl(180.0,100%,20%)">bajones</text>
<text x="0.969" y="0.538" font-size="0.031795" fill="hsl(180.0,100%,20%)">kainino</text>
<text x="0.944" y="0.316" font-size="0.045184" fill="hsl(180.0,100%,20%)">lokokung</text>
<text x="1.506" y="0.397" font-size="0.020402" fill="hsl(0.0,100%,20%)">dneto</text>
<text x="0.182" y="0.580" font-size="0.012593" fill="hsl(180.0,100%,20%)">beaufort.francois</text>
<text x="0.868" y="0.565" font-size="0.016658" fill="hsl(180.0,100%,20%)">blundell</text>
<text x="0.933" y="0.504" font-size="0.004452" fill="hsl(180.0,100%,20%)">nicolettep</text>
<text x="0.594" y="0.770" font-size="0.004452" fill="hsl(180.0,100%,20%)">fbeaufort</text>
<text x="1.389" y="0.658" font-size="0.006296" fill="hsl(180.0,100%,20%)">shaobo.yan</text>
<text x="0.818" y="0.369" font-size="0.015423" fill="hsl(180.0,100%,20%)">ynovikov</text>
<text x="0.717" y="0.344" font-size="0.024385" fill="hsl(180.0,100%,20%)">senorblanco</text>
<text x="0.825" y="0.515" font-size="0.026339" fill="hsl(180.0,100%,20%)">jaswant.panchumarti</text>
<text x="1.239" y="0.261" font-size="0.004452" fill="hsl(0.0,100%,20%)">ddoman</text>
<text x="0.876" y="0.548" font-size="0.017809" fill="hsl(180.0,100%,20%)">jie.a.chen</text>
<text x="0.568" y="0.606" font-size="0.023976" fill="hsl(180.0,100%,20%)">shrekshao</text>
<text x="0.762" y="0.352" font-size="0.014079" fill="hsl(180.0,100%,20%)">sunnyps</text>
<text x="0.467" y="0.758" font-size="0.029195" fill="hsl(180.0,100%,20%)">lehoangquyen</text>
<text x="1.369" y="0.272" font-size="0.010905" fill="hsl(0.0,100%,20%)">gman</text>
<text x="0.429" y="0.574" font-size="0.015423" fill="hsl(180.0,100%,20%)">hao.x.li</text>
<text x="1.057" y="0.700" font-size="0.044298" fill="hsl(180.0,100%,20%)">jiawei.shao</text>
<text x="0.709" y="0.820" font-size="0.030196" fill="hsl(180.0,100%,20%)">jimblackler</text>
<text x="0.288" y="0.529" font-size="0.024789" fill="hsl(180.0,100%,20%)">penghuang</text>
<text x="1.075" y="0.814" font-size="0.009955" fill="hsl(180.0,100%,20%)">nexa</text>
<text x="0.931" y="0.975" font-size="0.004452" fill="hsl(180.0,100%,20%)">artyompp</text>
<text x="0.320" y="0.886" font-size="0.004452" fill="hsl(180.0,100%,20%)">vantablack</text>
<text x="0.527" y="0.915" font-size="0.007711" fill="hsl(180.0,100%,20%)">bentonian</text>
<text x="1.410" y="0.500" font-size="0.008904" fill="hsl(0.0,100%,20%)">zhaoming.jiang</text>
<text x="1.613" y="0.636" font-size="0.004452" fill="hsl(0.0,100%,20%)">alanbaker</text>
</svg>
