<svg width="4000" height="2000" viewBox="-0.025 -0.025 2.05 1.05" xmlns="http://www.w3.org/2000/svg">
  <style>
    path {
      fill: none;
      stroke-linecap: round;
      stroke-opacity: 0.4;
    }

    text {
      text-anchor: middle;
      alignment-baseline: hanging;
    }
  </style>
  <g opacity="0.4">
<path d="M1.287 0.912 Q1.470 1.009 1.699 0.940" stroke="hsl(0.0,100%,35%)" stroke-width="0.06154"></path>
<path d="M1.287 0.912 Q1.051 0.569 0.330 0.609" stroke="hsl(0.0,100%,35%)" stroke-width="0.01538"></path>
<path d="M1.287 0.912 Q1.367 0.831 1.226 0.773" stroke="hsl(0.0,100%,35%)" stroke-width="0.01538"></path>
<path d="M1.287 0.912 Q1.473 0.755 1.207 0.630" stroke="hsl(0.0,100%,35%)" stroke-width="0.03077"></path>
<path d="M0.330 0.609 Q1.180 0.794 1.727 0.419" stroke="hsl(0.0,100%,35%)" stroke-width="0.01538"></path>
<path d="M0.330 0.609 Q0.751 0.795 1.207 0.630" stroke="hsl(0.0,100%,35%)" stroke-width="0.01538"></path>
<path d="M0.330 0.609 Q0.610 0.626 0.707 0.493" stroke="hsl(0.0,100%,35%)" stroke-width="0.01538"></path>
<path d="M0.330 0.609 Q0.389 0.702 0.584 0.693" stroke="hsl(0.0,100%,35%)" stroke-width="0.07692"></path>
<path d="M1.714 0.126 Q1.486 0.276 1.727 0.419" stroke="hsl(120.0,100%,35%)" stroke-width="0.01538"></path>
<path d="M1.714 0.126 Q1.521 0.135 1.495 0.231" stroke="hsl(120.0,100%,35%)" stroke-width="0.01538"></path>
<path d="M1.714 0.126 Q1.615 0.052 1.448 0.084" stroke="hsl(120.0,100%,35%)" stroke-width="0.01538"></path>
<path d="M0.939 0.076 Q1.020 0.206 1.290 0.195" stroke="hsl(240.0,100%,35%)" stroke-width="0.06154"></path>
<path d="M0.939 0.076 Q0.776 0.144 0.871 0.238" stroke="hsl(240.0,100%,35%)" stroke-width="0.01538"></path>
<path d="M0.939 0.076 Q0.769 0.201 0.976 0.312" stroke="hsl(240.0,100%,35%)" stroke-width="0.01538"></path>
<path d="M0.939 0.076 Q0.516 0.163 0.592 0.388" stroke="hsl(240.0,100%,35%)" stroke-width="0.01538"></path>
</g>
<text x="1.287" y="0.873" font-size="0.078446" fill="hsl(0.0,100%,20%)">alexrudenko</text>
<text x="1.699" y="0.913" font-size="0.055470" fill="hsl(0.0,100%,20%)">ergunsh</text>
<text x="0.330" y="0.567" font-size="0.083205" fill="hsl(0.0,100%,20%)">szuend</text>
<text x="1.226" y="0.759" font-size="0.027735" fill="hsl(0.0,100%,20%)">nvitkov</text>
<text x="1.207" y="0.606" font-size="0.048038" fill="hsl(0.0,100%,20%)">wolfi</text>
<text x="1.714" y="0.102" font-size="0.048038" fill="hsl(120.0,100%,20%)">alexschulze</text>
<text x="1.727" y="0.400" font-size="0.039223" fill="hsl(120.0,100%,20%)">bmeurer</text>
<text x="1.495" y="0.217" font-size="0.027735" fill="hsl(120.0,100%,20%)">liviurau</text>
<text x="1.448" y="0.070" font-size="0.027735" fill="hsl(120.0,100%,20%)">machenbach</text>
<text x="0.939" y="0.040" font-size="0.073380" fill="hsl(240.0,100%,20%)">asraine</text>
<text x="1.290" y="0.168" font-size="0.055470" fill="hsl(240.0,100%,20%)">paulirish</text>
<text x="0.871" y="0.224" font-size="0.027735" fill="hsl(240.0,100%,20%)">changhaohan</text>
<text x="0.976" y="0.298" font-size="0.027735" fill="hsl(240.0,100%,20%)">dsv</text>
<text x="0.592" y="0.374" font-size="0.027735" fill="hsl(240.0,100%,20%)">kprokopenko</text>
<text x="0.707" y="0.479" font-size="0.027735" fill="hsl(0.0,100%,20%)">leese</text>
<text x="0.584" y="0.662" font-size="0.062017" fill="hsl(0.0,100%,20%)">kimanh</text>
</svg>
