<svg width="4000" height="2000" viewBox="-0.025 -0.025 2.05 1.05" xmlns="http://www.w3.org/2000/svg">
  <style>
    path {
      fill: none;
      stroke-linecap: round;
      stroke-opacity: 0.4;
    }

    text {
      text-anchor: middle;
      alignment-baseline: hanging;
    }
  </style>
  <g opacity="0.4">
<path d="M0.990 0.039 Q0.964 0.339 1.544 0.419" stroke="hsl(0.0,100%,35%)" stroke-width="0.00214"></path>
<path d="M0.990 0.039 Q0.583 0.098 0.609 0.310" stroke="hsl(0.0,100%,35%)" stroke-width="0.00428"></path>
<path d="M0.990 0.039 Q1.054 0.413 1.798 0.465" stroke="hsl(0.0,100%,35%)" stroke-width="0.00214"></path>
<path d="M1.544 0.419 Q1.634 0.492 1.798 0.465" stroke="hsl(0.0,100%,35%)" stroke-width="0.00428"></path>
<path d="M1.544 0.419 Q1.164 0.177 0.609 0.310" stroke="hsl(0.0,100%,35%)" stroke-width="0.00855"></path>
<path d="M1.544 0.419 Q0.897 0.449 0.814 0.771" stroke="hsl(0.0,100%,35%)" stroke-width="0.00428"></path>
<path d="M1.544 0.419 Q1.098 0.619 1.390 0.881" stroke="hsl(0.0,100%,35%)" stroke-width="0.00214"></path>
<path d="M1.544 0.419 Q0.813 0.369 0.556 0.715" stroke="hsl(0.0,100%,35%)" stroke-width="0.00214"></path>
<path d="M1.544 0.419 Q0.957 0.135 0.276 0.360" stroke="hsl(0.0,100%,35%)" stroke-width="0.00214"></path>
<path d="M0.609 0.310 Q0.450 0.308 0.412 0.385" stroke="hsl(0.0,100%,35%)" stroke-width="0.00214"></path>
<path d="M0.609 0.310 Q0.181 0.654 0.758 0.938" stroke="hsl(0.0,100%,35%)" stroke-width="0.00214"></path>
<path d="M0.609 0.310 Q0.402 0.268 0.276 0.360" stroke="hsl(0.0,100%,35%)" stroke-width="0.00428"></path>
<path d="M0.609 0.310 Q0.280 0.307 0.202 0.466" stroke="hsl(0.0,100%,35%)" stroke-width="0.00214"></path>
<path d="M1.798 0.465 Q1.328 0.149 0.609 0.310" stroke="hsl(0.0,100%,35%)" stroke-width="0.00642"></path>
<path d="M1.798 0.465 Q1.708 0.391 1.544 0.419" stroke="hsl(0.0,100%,35%)" stroke-width="0.01283"></path>
<path d="M1.798 0.465 Q1.896 0.430 1.850 0.375" stroke="hsl(0.0,100%,35%)" stroke-width="0.00428"></path>
<path d="M0.202 0.466 Q0.075 0.508 0.128 0.578" stroke="hsl(180.0,100%,35%)" stroke-width="0.01069"></path>
<path d="M0.202 0.466 Q0.264 0.741 0.814 0.771" stroke="hsl(180.0,100%,35%)" stroke-width="0.00642"></path>
<path d="M0.202 0.466 Q0.158 0.885 0.966 0.998" stroke="hsl(180.0,100%,35%)" stroke-width="0.01711"></path>
<path d="M0.202 0.466 Q0.362 0.346 0.162 0.242" stroke="hsl(180.0,100%,35%)" stroke-width="0.00642"></path>
<path d="M0.202 0.466 Q0.164 0.574 0.365 0.615" stroke="hsl(180.0,100%,35%)" stroke-width="0.00214"></path>
<path d="M0.128 0.578 Q0.211 0.956 0.966 0.998" stroke="hsl(180.0,100%,35%)" stroke-width="0.00855"></path>
<path d="M0.128 0.578 Q0.414 0.417 0.162 0.242" stroke="hsl(180.0,100%,35%)" stroke-width="0.00214"></path>
<path d="M0.128 0.578 Q0.254 0.537 0.202 0.466" stroke="hsl(180.0,100%,35%)" stroke-width="0.00214"></path>
<path d="M0.814 0.771 Q1.049 0.321 0.221 0.108" stroke="hsl(180.0,100%,35%)" stroke-width="0.00214"></path>
<path d="M0.814 0.771 Q0.891 0.864 1.089 0.847" stroke="hsl(180.0,100%,35%)" stroke-width="0.01497"></path>
<path d="M0.814 0.771 Q0.752 0.496 0.202 0.466" stroke="hsl(180.0,100%,35%)" stroke-width="0.00214"></path>
<path d="M0.814 0.771 Q0.653 0.844 0.758 0.938" stroke="hsl(180.0,100%,35%)" stroke-width="0.00428"></path>
<path d="M0.814 0.771 Q1.027 0.747 1.025 0.637" stroke="hsl(180.0,100%,35%)" stroke-width="0.00214"></path>
<path d="M0.966 0.998 Q1.149 0.947 1.089 0.847" stroke="hsl(180.0,100%,35%)" stroke-width="0.01925"></path>
<path d="M0.966 0.998 Q0.910 0.927 0.758 0.938" stroke="hsl(180.0,100%,35%)" stroke-width="0.02994"></path>
<path d="M0.966 0.998 Q1.272 1.024 1.390 0.881" stroke="hsl(180.0,100%,35%)" stroke-width="0.01925"></path>
<path d="M0.966 0.998 Q0.988 0.775 0.556 0.715" stroke="hsl(180.0,100%,35%)" stroke-width="0.00428"></path>
<path d="M0.966 0.998 Q1.072 0.855 0.814 0.771" stroke="hsl(180.0,100%,35%)" stroke-width="0.01711"></path>
<path d="M0.966 0.998 Q1.169 0.459 0.162 0.242" stroke="hsl(180.0,100%,35%)" stroke-width="0.00855"></path>
<path d="M0.966 0.998 Q0.824 0.847 0.498 0.884" stroke="hsl(180.0,100%,35%)" stroke-width="0.01497"></path>
<path d="M0.966 0.998 Q0.883 0.621 0.128 0.578" stroke="hsl(180.0,100%,35%)" stroke-width="0.01069"></path>
<path d="M0.966 0.998 Q1.009 0.580 0.202 0.466" stroke="hsl(180.0,100%,35%)" stroke-width="0.00642"></path>
<path d="M0.966 0.998 Q1.339 0.583 0.609 0.310" stroke="hsl(180.0,100%,35%)" stroke-width="0.00214"></path>
<path d="M0.162 0.242 Q-0.020 0.557 0.556 0.715" stroke="hsl(180.0,100%,35%)" stroke-width="0.00428"></path>
<path d="M0.162 0.242 Q-0.042 0.781 0.966 0.998" stroke="hsl(180.0,100%,35%)" stroke-width="0.00642"></path>
<path d="M0.162 0.242 Q0.348 0.691 1.266 0.699" stroke="hsl(180.0,100%,35%)" stroke-width="0.00214"></path>
<path d="M0.162 0.242 Q0.298 0.187 0.221 0.108" stroke="hsl(180.0,100%,35%)" stroke-width="0.00214"></path>
<path d="M0.162 0.242 Q-0.124 0.403 0.128 0.578" stroke="hsl(180.0,100%,35%)" stroke-width="0.00214"></path>
<path d="M0.365 0.615 Q0.403 0.508 0.202 0.466" stroke="hsl(180.0,100%,35%)" stroke-width="0.00214"></path>
<path d="M0.365 0.615 Q0.277 0.549 0.128 0.578" stroke="hsl(180.0,100%,35%)" stroke-width="0.00214"></path>
<path d="M0.365 0.615 Q0.677 0.758 1.025 0.637" stroke="hsl(180.0,100%,35%)" stroke-width="0.00214"></path>
<path d="M0.276 0.360 Q0.483 0.401 0.609 0.310" stroke="hsl(0.0,100%,35%)" stroke-width="0.01711"></path>
<path d="M0.276 0.360 Q0.317 0.587 0.771 0.617" stroke="hsl(0.0,100%,35%)" stroke-width="0.00214"></path>
<path d="M0.276 0.360 Q0.323 0.400 0.412 0.385" stroke="hsl(0.0,100%,35%)" stroke-width="0.01283"></path>
<path d="M0.276 0.360 Q0.863 0.643 1.544 0.419" stroke="hsl(0.0,100%,35%)" stroke-width="0.00214"></path>
<path d="M0.758 0.938 Q0.835 0.786 0.556 0.715" stroke="hsl(180.0,100%,35%)" stroke-width="0.00855"></path>
<path d="M0.758 0.938 Q0.814 1.010 0.966 0.998" stroke="hsl(180.0,100%,35%)" stroke-width="0.00642"></path>
<path d="M0.758 0.938 Q0.919 0.866 0.814 0.771" stroke="hsl(180.0,100%,35%)" stroke-width="0.01711"></path>
<path d="M0.758 0.938 Q0.731 0.632 0.128 0.578" stroke="hsl(180.0,100%,35%)" stroke-width="0.00428"></path>
<path d="M0.758 0.938 Q0.996 0.959 1.089 0.847" stroke="hsl(180.0,100%,35%)" stroke-width="0.01069"></path>
<path d="M0.758 0.938 Q0.857 0.591 0.202 0.466" stroke="hsl(180.0,100%,35%)" stroke-width="0.00214"></path>
<path d="M0.758 0.938 Q1.132 0.841 1.025 0.637" stroke="hsl(180.0,100%,35%)" stroke-width="0.00428"></path>
<path d="M0.758 0.938 Q0.661 0.766 0.304 0.775" stroke="hsl(180.0,100%,35%)" stroke-width="0.00214"></path>
<path d="M1.850 0.375 Q1.662 0.336 1.544 0.419" stroke="hsl(0.0,100%,35%)" stroke-width="0.00855"></path>
<path d="M1.850 0.375 Q1.282 0.094 0.609 0.310" stroke="hsl(0.0,100%,35%)" stroke-width="0.00428"></path>
<path d="M1.850 0.375 Q1.753 0.409 1.798 0.465" stroke="hsl(0.0,100%,35%)" stroke-width="0.00214"></path>
<path d="M0.556 0.715 Q0.578 0.520 0.202 0.466" stroke="hsl(180.0,100%,35%)" stroke-width="0.00214"></path>
<path d="M0.556 0.715 Q0.382 0.695 0.304 0.775" stroke="hsl(180.0,100%,35%)" stroke-width="0.00214"></path>
<path d="M0.556 0.715 Q0.479 0.867 0.758 0.938" stroke="hsl(180.0,100%,35%)" stroke-width="0.00428"></path>
<path d="M1.089 0.847 Q1.012 0.754 0.814 0.771" stroke="hsl(180.0,100%,35%)" stroke-width="0.00428"></path>
<path d="M1.089 0.847 Q0.850 0.826 0.758 0.938" stroke="hsl(180.0,100%,35%)" stroke-width="0.00214"></path>
<path d="M1.089 0.847 Q1.212 0.924 1.390 0.881" stroke="hsl(180.0,100%,35%)" stroke-width="0.00855"></path>
<path d="M1.089 0.847 Q0.906 0.898 0.966 0.998" stroke="hsl(180.0,100%,35%)" stroke-width="0.00214"></path>
<path d="M1.025 0.637 Q1.079 0.391 0.609 0.310" stroke="hsl(180.0,100%,35%)" stroke-width="0.00428"></path>
<path d="M1.025 0.637 Q0.651 0.734 0.758 0.938" stroke="hsl(180.0,100%,35%)" stroke-width="0.00428"></path>
<path d="M1.025 0.637 Q0.889 0.755 1.089 0.847" stroke="hsl(180.0,100%,35%)" stroke-width="0.00855"></path>
<path d="M1.025 0.637 Q1.047 0.212 0.221 0.108" stroke="hsl(180.0,100%,35%)" stroke-width="0.00214"></path>
<path d="M1.025 0.637 Q0.910 0.267 0.162 0.242" stroke="hsl(180.0,100%,35%)" stroke-width="0.00214"></path>
<path d="M1.025 0.637 Q0.728 0.583 0.556 0.715" stroke="hsl(180.0,100%,35%)" stroke-width="0.00214"></path>
<path d="M0.498 0.884 Q0.946 1.061 1.390 0.881" stroke="hsl(180.0,100%,35%)" stroke-width="0.00428"></path>
<path d="M0.498 0.884 Q0.823 0.983 1.089 0.847" stroke="hsl(180.0,100%,35%)" stroke-width="0.00214"></path>
<path d="M0.498 0.884 Q0.640 1.035 0.966 0.998" stroke="hsl(180.0,100%,35%)" stroke-width="0.00214"></path>
<path d="M1.390 0.881 Q1.266 0.803 1.089 0.847" stroke="hsl(180.0,100%,35%)" stroke-width="0.01283"></path>
<path d="M1.390 0.881 Q1.028 0.783 0.758 0.938" stroke="hsl(180.0,100%,35%)" stroke-width="0.00428"></path>
<path d="M1.390 0.881 Q1.189 0.711 0.814 0.771" stroke="hsl(180.0,100%,35%)" stroke-width="0.00214"></path>
<path d="M0.550 0.828 Q1.374 0.822 1.544 0.419" stroke="hsl(180.0,100%,35%)" stroke-width="0.00214"></path>
<path d="M0.550 0.828 Q0.566 0.925 0.758 0.938" stroke="hsl(180.0,100%,35%)" stroke-width="0.00214"></path>
<path d="M0.550 0.828 Q0.621 0.996 0.966 0.998" stroke="hsl(180.0,100%,35%)" stroke-width="0.00214"></path>
<path d="M1.266 0.699 Q0.877 0.789 0.966 0.998" stroke="hsl(180.0,100%,35%)" stroke-width="0.00428"></path>
<path d="M1.266 0.699 Q1.478 0.757 1.638 0.667" stroke="hsl(180.0,100%,35%)" stroke-width="0.00214"></path>
<path d="M1.266 0.699 Q0.821 0.717 0.758 0.938" stroke="hsl(180.0,100%,35%)" stroke-width="0.00214"></path>
<path d="M0.570 0.169 Q0.049 0.591 0.758 0.938" stroke="hsl(180.0,100%,35%)" stroke-width="0.00214"></path>
<path d="M0.570 0.169 Q0.308 0.124 0.162 0.242" stroke="hsl(180.0,100%,35%)" stroke-width="0.00642"></path>
<path d="M0.570 0.169 Q0.681 0.282 0.925 0.253" stroke="hsl(180.0,100%,35%)" stroke-width="0.00214"></path>
<path d="M0.570 0.169 Q0.105 0.663 0.966 0.998" stroke="hsl(180.0,100%,35%)" stroke-width="0.00428"></path>
<path d="M0.570 0.169 Q0.127 0.439 0.556 0.715" stroke="hsl(180.0,100%,35%)" stroke-width="0.00214"></path>
<path d="M0.570 0.169 Q0.148 0.244 0.202 0.466" stroke="hsl(180.0,100%,35%)" stroke-width="0.00214"></path>
</g>
<text x="0.990" y="0.030" font-size="0.018144" fill="hsl(0.0,100%,20%)">aixba</text>
<text x="1.544" y="0.396" font-size="0.044444" fill="hsl(0.0,100%,20%)">paulirish</text>
<text x="0.609" y="0.286" font-size="0.047140" fill="hsl(0.0,100%,20%)">andoli</text>
<text x="1.798" y="0.447" font-size="0.035136" fill="hsl(0.0,100%,20%)">asraine</text>
<text x="0.202" y="0.442" font-size="0.049690" fill="hsl(180.0,100%,20%)">alexrudenko</text>
<text x="0.128" y="0.558" font-size="0.040572" fill="hsl(180.0,100%,20%)">yangguo</text>
<text x="0.814" y="0.744" font-size="0.054433" fill="hsl(180.0,100%,20%)">szuend</text>
<text x="0.966" y="0.956" font-size="0.084620" fill="hsl(180.0,100%,20%)">dsv</text>
<text x="0.162" y="0.221" font-size="0.040572" fill="hsl(180.0,100%,20%)">wolfi</text>
<text x="0.365" y="0.606" font-size="0.018144" fill="hsl(180.0,100%,20%)">nvitkov</text>
<text x="0.276" y="0.340" font-size="0.039545" fill="hsl(0.0,100%,20%)">alinavarkki</text>
<text x="0.771" y="0.613" font-size="0.009072" fill="hsl(0.0,100%,20%)">victorporof</text>
<text x="0.412" y="0.373" font-size="0.024003" fill="hsl(0.0,100%,20%)">nancyly</text>
<text x="0.758" y="0.905" font-size="0.066046" fill="hsl(180.0,100%,20%)">bmeurer</text>
<text x="1.850" y="0.361" font-size="0.027217" fill="hsl(0.0,100%,20%)">cjamcl</text>
<text x="0.556" y="0.698" font-size="0.035136" fill="hsl(180.0,100%,20%)">kprokopenko</text>
<text x="1.089" y="0.818" font-size="0.057378" fill="hsl(180.0,100%,20%)">pfaffe</text>
<text x="1.025" y="0.620" font-size="0.035136" fill="hsl(180.0,100%,20%)">kimanh</text>
<text x="0.304" y="0.769" font-size="0.012830" fill="hsl(180.0,100%,20%)">petermueller</text>
<text x="0.498" y="0.869" font-size="0.030089" fill="hsl(180.0,100%,20%)">changhaohan</text>
<text x="1.390" y="0.858" font-size="0.045361" fill="hsl(180.0,100%,20%)">ergunsh</text>
<text x="0.550" y="0.820" font-size="0.015713" fill="hsl(180.0,100%,20%)">elormcoch</text>
<text x="1.266" y="0.689" font-size="0.020286" fill="hsl(180.0,100%,20%)">jec</text>
<text x="1.638" y="0.662" font-size="0.009072" fill="hsl(180.0,100%,20%)">semel</text>
<text x="0.221" y="0.100" font-size="0.015713" fill="hsl(180.0,100%,20%)">mathias</text>
<text x="0.570" y="0.156" font-size="0.027217" fill="hsl(180.0,100%,20%)">leese</text>
<text x="0.925" y="0.249" font-size="0.009072" fill="hsl(180.0,100%,20%)">morlovich</text>
</svg>
