<svg width="4000" height="2000" viewBox="-0.025 -0.025 2.05 1.05" xmlns="http://www.w3.org/2000/svg">
  <style>
    path {
      fill: none;
      stroke-linecap: round;
      stroke-opacity: 0.4;
    }

    text {
      text-anchor: middle;
      alignment-baseline: hanging;
    }
  </style>
  <g opacity="0.4">
<path d="M0.878 0.291 Q0.935 0.434 1.225 0.437" stroke="hsl(0.0,100%,35%)" stroke-width="0.00111"></path>
<path d="M0.878 0.291 Q0.844 0.345 0.941 0.373" stroke="hsl(0.0,100%,35%)" stroke-width="0.00111"></path>
<path d="M0.878 0.291 Q0.598 0.111 0.184 0.208" stroke="hsl(0.0,100%,35%)" stroke-width="0.00111"></path>
<path d="M1.225 0.437 Q1.134 0.349 0.941 0.373" stroke="hsl(0.0,100%,35%)" stroke-width="0.04554"></path>
<path d="M1.225 0.437 Q1.082 0.470 1.115 0.547" stroke="hsl(0.0,100%,35%)" stroke-width="0.01000"></path>
<path d="M1.225 0.437 Q1.169 0.295 0.878 0.291" stroke="hsl(0.0,100%,35%)" stroke-width="0.00222"></path>
<path d="M1.225 0.437 Q1.024 0.551 1.203 0.674" stroke="hsl(0.0,100%,35%)" stroke-width="0.00777"></path>
<path d="M1.225 0.437 Q0.690 0.304 0.312 0.535" stroke="hsl(0.0,100%,35%)" stroke-width="0.00222"></path>
<path d="M1.225 0.437 Q1.333 0.518 1.514 0.483" stroke="hsl(0.0,100%,35%)" stroke-width="0.00889"></path>
<path d="M1.225 0.437 Q1.424 0.424 1.440 0.324" stroke="hsl(0.0,100%,35%)" stroke-width="0.00111"></path>
<path d="M1.225 0.437 Q1.114 0.410 1.037 0.459" stroke="hsl(0.0,100%,35%)" stroke-width="0.00111"></path>
<path d="M1.225 0.437 Q0.888 0.114 0.184 0.208" stroke="hsl(0.0,100%,35%)" stroke-width="0.01777"></path>
<path d="M1.225 0.437 Q1.304 0.245 0.946 0.165" stroke="hsl(0.0,100%,35%)" stroke-width="0.00666"></path>
<path d="M1.225 0.437 Q1.268 0.530 1.458 0.529" stroke="hsl(0.0,100%,35%)" stroke-width="0.00111"></path>
<path d="M1.225 0.437 Q1.170 0.473 1.228 0.507" stroke="hsl(0.0,100%,35%)" stroke-width="0.02221"></path>
<path d="M1.225 0.437 Q1.261 0.548 1.486 0.555" stroke="hsl(0.0,100%,35%)" stroke-width="0.00111"></path>
<path d="M1.225 0.437 Q1.298 0.324 1.094 0.264" stroke="hsl(0.0,100%,35%)" stroke-width="0.00222"></path>
<path d="M1.225 0.437 Q1.555 0.352 1.461 0.173" stroke="hsl(0.0,100%,35%)" stroke-width="0.00111"></path>
<path d="M1.225 0.437 Q0.672 0.387 0.453 0.646" stroke="hsl(0.0,100%,35%)" stroke-width="0.00111"></path>
<path d="M1.225 0.437 Q1.221 0.431 1.208 0.432" stroke="hsl(0.0,100%,35%)" stroke-width="0.00222"></path>
<path d="M1.225 0.437 Q0.973 0.356 0.759 0.461" stroke="hsl(0.0,100%,35%)" stroke-width="0.00111"></path>
<path d="M1.225 0.437 Q0.439 0.570 0.527 0.983" stroke="hsl(0.0,100%,35%)" stroke-width="0.00222"></path>
<path d="M1.225 0.437 Q1.392 0.322 1.204 0.215" stroke="hsl(0.0,100%,35%)" stroke-width="0.01222"></path>
<path d="M1.225 0.437 Q0.722 0.247 0.241 0.451" stroke="hsl(0.0,100%,35%)" stroke-width="0.00111"></path>
<path d="M1.225 0.437 Q1.314 0.309 1.082 0.237" stroke="hsl(0.0,100%,35%)" stroke-width="0.00222"></path>
<path d="M1.225 0.437 Q1.575 0.428 1.634 0.255" stroke="hsl(0.0,100%,35%)" stroke-width="0.00222"></path>
<path d="M1.225 0.437 Q1.372 0.689 1.895 0.673" stroke="hsl(0.0,100%,35%)" stroke-width="0.00111"></path>
<path d="M1.225 0.437 Q1.556 0.380 1.518 0.206" stroke="hsl(0.0,100%,35%)" stroke-width="0.00111"></path>
<path d="M1.225 0.437 Q1.310 0.335 1.128 0.271" stroke="hsl(0.0,100%,35%)" stroke-width="0.00111"></path>
<path d="M1.225 0.437 Q0.930 0.701 1.380 0.903" stroke="hsl(0.0,100%,35%)" stroke-width="0.00111"></path>
<path d="M1.225 0.437 Q1.317 0.477 1.415 0.441" stroke="hsl(0.0,100%,35%)" stroke-width="0.00111"></path>
<path d="M1.225 0.437 Q1.218 0.499 1.336 0.516" stroke="hsl(0.0,100%,35%)" stroke-width="0.00222"></path>
<path d="M1.225 0.437 Q1.335 0.473 1.430 0.427" stroke="hsl(0.0,100%,35%)" stroke-width="0.00222"></path>
<path d="M1.225 0.437 Q1.242 0.286 0.950 0.244" stroke="hsl(0.0,100%,35%)" stroke-width="0.00111"></path>
<path d="M1.225 0.437 Q0.506 0.469 0.411 0.827" stroke="hsl(0.0,100%,35%)" stroke-width="0.00111"></path>
<path d="M1.225 0.437 Q0.541 0.410 0.337 0.737" stroke="hsl(0.0,100%,35%)" stroke-width="0.00111"></path>
<path d="M1.225 0.437 Q1.289 0.547 1.517 0.539" stroke="hsl(0.0,100%,35%)" stroke-width="0.00222"></path>
<path d="M0.941 0.373 Q1.111 0.270 0.946 0.165" stroke="hsl(0.0,100%,35%)" stroke-width="0.00111"></path>
<path d="M0.941 0.373 Q1.032 0.462 1.225 0.437" stroke="hsl(0.0,100%,35%)" stroke-width="0.05220"></path>
<path d="M0.941 0.373 Q0.929 0.299 0.782 0.289" stroke="hsl(0.0,100%,35%)" stroke-width="0.01222"></path>
<path d="M0.941 0.373 Q0.737 0.424 0.791 0.535" stroke="hsl(0.0,100%,35%)" stroke-width="0.00222"></path>
<path d="M0.941 0.373 Q0.977 0.498 1.228 0.507" stroke="hsl(0.0,100%,35%)" stroke-width="0.03554"></path>
<path d="M0.941 0.373 Q1.140 0.543 1.514 0.483" stroke="hsl(0.0,100%,35%)" stroke-width="0.03554"></path>
<path d="M0.941 0.373 Q0.138 0.520 0.249 0.944" stroke="hsl(0.0,100%,35%)" stroke-width="0.00111"></path>
<path d="M0.941 0.373 Q0.766 0.461 0.898 0.566" stroke="hsl(0.0,100%,35%)" stroke-width="0.00333"></path>
<path d="M0.941 0.373 Q0.889 0.495 1.115 0.547" stroke="hsl(0.0,100%,35%)" stroke-width="0.00111"></path>
<path d="M0.941 0.373 Q0.748 0.469 0.892 0.584" stroke="hsl(0.0,100%,35%)" stroke-width="0.00111"></path>
<path d="M0.941 0.373 Q0.816 0.438 0.913 0.513" stroke="hsl(0.0,100%,35%)" stroke-width="0.00111"></path>
<path d="M0.941 0.373 Q0.831 0.576 1.203 0.674" stroke="hsl(0.0,100%,35%)" stroke-width="0.00444"></path>
<path d="M0.941 0.373 Q0.695 0.139 0.184 0.208" stroke="hsl(0.0,100%,35%)" stroke-width="0.00333"></path>
<path d="M0.941 0.373 Q1.199 0.347 1.204 0.215" stroke="hsl(0.0,100%,35%)" stroke-width="0.00222"></path>
<path d="M0.941 0.373 Q0.837 0.373 0.815 0.424" stroke="hsl(0.0,100%,35%)" stroke-width="0.00111"></path>
<path d="M0.941 0.373 Q1.363 0.405 1.518 0.206" stroke="hsl(0.0,100%,35%)" stroke-width="0.00111"></path>
<path d="M0.941 0.373 Q1.060 0.351 1.042 0.288" stroke="hsl(0.0,100%,35%)" stroke-width="0.00111"></path>
<path d="M0.941 0.373 Q0.780 0.381 0.759 0.461" stroke="hsl(0.0,100%,35%)" stroke-width="0.00333"></path>
<path d="M0.941 0.373 Q0.631 0.324 0.468 0.465" stroke="hsl(0.0,100%,35%)" stroke-width="0.00111"></path>
<path d="M0.941 0.373 Q0.783 0.393 0.787 0.475" stroke="hsl(0.0,100%,35%)" stroke-width="0.00111"></path>
<path d="M0.941 0.373 Q1.068 0.573 1.486 0.555" stroke="hsl(0.0,100%,35%)" stroke-width="0.00111"></path>
<path d="M0.941 0.373 Q0.656 0.602 1.039 0.791" stroke="hsl(0.0,100%,35%)" stroke-width="0.00111"></path>
<path d="M0.941 0.373 Q0.921 0.435 1.037 0.459" stroke="hsl(0.0,100%,35%)" stroke-width="0.00111"></path>
<path d="M0.941 0.373 Q0.773 0.395 0.779 0.482" stroke="hsl(0.0,100%,35%)" stroke-width="0.00111"></path>
<path d="M0.184 0.208 Q0.018 0.341 0.241 0.451" stroke="hsl(0.0,100%,35%)" stroke-width="0.04776"></path>
<path d="M0.184 0.208 Q0.521 0.531 1.225 0.437" stroke="hsl(0.0,100%,35%)" stroke-width="0.02554"></path>
<path d="M0.184 0.208 Q0.466 0.566 1.228 0.507" stroke="hsl(0.0,100%,35%)" stroke-width="0.01888"></path>
<path d="M0.184 0.208 Q0.320 0.645 1.203 0.674" stroke="hsl(0.0,100%,35%)" stroke-width="0.00111"></path>
<path d="M0.184 0.208 Q0.430 0.442 0.941 0.373" stroke="hsl(0.0,100%,35%)" stroke-width="0.00333"></path>
<path d="M0.184 0.208 Q-0.005 0.260 0.054 0.364" stroke="hsl(0.0,100%,35%)" stroke-width="0.00111"></path>
<path d="M0.184 0.208 Q0.838 0.514 1.578 0.262" stroke="hsl(0.0,100%,35%)" stroke-width="0.00111"></path>
<path d="M0.184 0.208 Q0.312 0.258 0.439 0.207" stroke="hsl(0.0,100%,35%)" stroke-width="0.00222"></path>
<path d="M0.184 0.208 Q-0.265 0.664 0.527 0.983" stroke="hsl(0.0,100%,35%)" stroke-width="0.00111"></path>
<path d="M1.412 0.527 Q1.500 0.481 1.430 0.427" stroke="hsl(180.0,100%,35%)" stroke-width="0.00111"></path>
<path d="M1.412 0.527 Q1.239 0.729 1.594 0.857" stroke="hsl(180.0,100%,35%)" stroke-width="0.00111"></path>
<path d="M1.412 0.527 Q0.989 0.307 0.468 0.465" stroke="hsl(180.0,100%,35%)" stroke-width="0.00111"></path>
<path d="M1.412 0.527 Q1.335 0.480 1.228 0.507" stroke="hsl(180.0,100%,35%)" stroke-width="0.00222"></path>
<path d="M1.412 0.527 Q1.390 0.445 1.225 0.437" stroke="hsl(180.0,100%,35%)" stroke-width="0.00111"></path>
<path d="M1.412 0.527 Q0.887 0.255 0.241 0.451" stroke="hsl(180.0,100%,35%)" stroke-width="0.00111"></path>
<path d="M1.412 0.527 Q1.720 0.360 1.461 0.173" stroke="hsl(180.0,100%,35%)" stroke-width="0.00111"></path>
<path d="M0.468 0.465 Q0.036 0.573 0.152 0.807" stroke="hsl(180.0,100%,35%)" stroke-width="0.00111"></path>
<path d="M0.468 0.465 Q0.334 0.469 0.312 0.535" stroke="hsl(180.0,100%,35%)" stroke-width="0.00222"></path>
<path d="M0.468 0.465 Q0.574 0.866 1.380 0.903" stroke="hsl(180.0,100%,35%)" stroke-width="0.00111"></path>
<path d="M0.468 0.465 Q0.573 0.565 0.791 0.535" stroke="hsl(180.0,100%,35%)" stroke-width="0.00111"></path>
<path d="M1.486 0.555 Q1.449 0.444 1.225 0.437" stroke="hsl(0.0,100%,35%)" stroke-width="0.00444"></path>
<path d="M1.486 0.555 Q1.395 0.479 1.228 0.507" stroke="hsl(0.0,100%,35%)" stroke-width="0.00333"></path>
<path d="M1.486 0.555 Q1.528 0.252 0.946 0.165" stroke="hsl(0.0,100%,35%)" stroke-width="0.00222"></path>
<path d="M1.486 0.555 Q1.359 0.355 0.941 0.373" stroke="hsl(0.0,100%,35%)" stroke-width="0.00111"></path>
<path d="M0.453 0.646 Q0.915 0.607 0.941 0.373" stroke="hsl(180.0,100%,35%)" stroke-width="0.00111"></path>
<path d="M0.453 0.646 Q0.287 0.728 0.411 0.827" stroke="hsl(180.0,100%,35%)" stroke-width="0.00444"></path>
<path d="M0.453 0.646 Q0.323 0.567 0.139 0.613" stroke="hsl(180.0,100%,35%)" stroke-width="0.00111"></path>
<path d="M0.453 0.646 Q0.319 0.620 0.238 0.680" stroke="hsl(180.0,100%,35%)" stroke-width="0.00111"></path>
<path d="M0.453 0.646 Q0.362 0.655 0.359 0.701" stroke="hsl(180.0,100%,35%)" stroke-width="0.00111"></path>
<path d="M0.453 0.646 Q0.357 0.672 0.387 0.724" stroke="hsl(180.0,100%,35%)" stroke-width="0.00111"></path>
<path d="M0.453 0.646 Q0.711 0.658 0.791 0.535" stroke="hsl(180.0,100%,35%)" stroke-width="0.00111"></path>
<path d="M0.453 0.646 Q0.294 0.588 0.146 0.653" stroke="hsl(180.0,100%,35%)" stroke-width="0.00111"></path>
<path d="M0.453 0.646 Q0.549 0.645 0.568 0.598" stroke="hsl(180.0,100%,35%)" stroke-width="0.00111"></path>
<path d="M0.453 0.646 Q1.116 0.732 1.430 0.427" stroke="hsl(180.0,100%,35%)" stroke-width="0.00111"></path>
<path d="M0.453 0.646 Q0.805 0.810 1.203 0.674" stroke="hsl(180.0,100%,35%)" stroke-width="0.00111"></path>
<path d="M0.411 0.827 Q0.929 0.909 1.203 0.674" stroke="hsl(180.0,100%,35%)" stroke-width="0.00111"></path>
<path d="M0.411 0.827 Q0.297 0.765 0.152 0.807" stroke="hsl(180.0,100%,35%)" stroke-width="0.00111"></path>
<path d="M0.411 0.827 Q0.344 0.928 0.527 0.983" stroke="hsl(180.0,100%,35%)" stroke-width="0.00111"></path>
<path d="M1.115 0.547 Q1.258 0.514 1.225 0.437" stroke="hsl(0.0,100%,35%)" stroke-width="0.02443"></path>
<path d="M1.115 0.547 Q1.203 0.550 1.228 0.507" stroke="hsl(0.0,100%,35%)" stroke-width="0.01999"></path>
<path d="M1.115 0.547 Q1.456 0.500 1.440 0.324" stroke="hsl(0.0,100%,35%)" stroke-width="0.00222"></path>
<path d="M1.115 0.547 Q1.366 0.595 1.514 0.483" stroke="hsl(0.0,100%,35%)" stroke-width="0.01666"></path>
<path d="M1.115 0.547 Q0.921 0.191 0.184 0.208" stroke="hsl(0.0,100%,35%)" stroke-width="0.00222"></path>
<path d="M1.115 0.547 Q1.167 0.425 0.941 0.373" stroke="hsl(0.0,100%,35%)" stroke-width="0.00889"></path>
<path d="M1.115 0.547 Q1.057 0.628 1.203 0.674" stroke="hsl(0.0,100%,35%)" stroke-width="0.00222"></path>
<path d="M1.115 0.547 Q1.184 0.641 1.383 0.628" stroke="hsl(0.0,100%,35%)" stroke-width="0.00111"></path>
<path d="M1.115 0.547 Q1.425 0.399 1.204 0.215" stroke="hsl(0.0,100%,35%)" stroke-width="0.00111"></path>
<path d="M1.115 0.547 Q0.755 0.324 0.241 0.451" stroke="hsl(0.0,100%,35%)" stroke-width="0.00222"></path>
<path d="M1.514 0.483 Q1.406 0.402 1.225 0.437" stroke="hsl(0.0,100%,35%)" stroke-width="0.04109"></path>
<path d="M1.514 0.483 Q1.605 0.389 1.440 0.324" stroke="hsl(0.0,100%,35%)" stroke-width="0.00889"></path>
<path d="M1.514 0.483 Q1.263 0.435 1.115 0.547" stroke="hsl(0.0,100%,35%)" stroke-width="0.01222"></path>
<path d="M1.514 0.483 Q1.598 0.580 1.805 0.560" stroke="hsl(0.0,100%,35%)" stroke-width="0.00111"></path>
<path d="M1.514 0.483 Q1.352 0.438 1.228 0.507" stroke="hsl(0.0,100%,35%)" stroke-width="0.01222"></path>
<path d="M1.514 0.483 Q1.315 0.314 0.941 0.373" stroke="hsl(0.0,100%,35%)" stroke-width="0.02999"></path>
<path d="M1.514 0.483 Q1.402 0.396 1.208 0.432" stroke="hsl(0.0,100%,35%)" stroke-width="0.00111"></path>
<path d="M1.514 0.483 Q0.904 0.212 0.241 0.451" stroke="hsl(0.0,100%,35%)" stroke-width="0.00111"></path>
<path d="M1.514 0.483 Q1.205 0.516 1.203 0.674" stroke="hsl(0.0,100%,35%)" stroke-width="0.00222"></path>
<path d="M1.514 0.483 Q1.069 0.080 0.184 0.208" stroke="hsl(0.0,100%,35%)" stroke-width="0.00111"></path>
<path d="M1.514 0.483 Q0.915 0.564 0.941 0.874" stroke="hsl(0.0,100%,35%)" stroke-width="0.00111"></path>
<path d="M1.440 0.324 Q1.242 0.337 1.225 0.437" stroke="hsl(0.0,100%,35%)" stroke-width="0.05331"></path>
<path d="M1.440 0.324 Q1.559 0.320 1.578 0.262" stroke="hsl(0.0,100%,35%)" stroke-width="0.00111"></path>
<path d="M1.440 0.324 Q1.592 0.328 1.634 0.255" stroke="hsl(0.0,100%,35%)" stroke-width="0.00333"></path>
<path d="M1.440 0.324 Q1.334 0.377 1.415 0.441" stroke="hsl(0.0,100%,35%)" stroke-width="0.00111"></path>
<path d="M1.440 0.324 Q1.187 0.373 1.228 0.507" stroke="hsl(0.0,100%,35%)" stroke-width="0.01999"></path>
<path d="M1.440 0.324 Q1.763 0.235 1.661 0.059" stroke="hsl(0.0,100%,35%)" stroke-width="0.00111"></path>
<path d="M1.440 0.324 Q0.739 0.147 0.241 0.451" stroke="hsl(0.0,100%,35%)" stroke-width="0.00222"></path>
<path d="M1.440 0.324 Q1.099 0.370 1.115 0.547" stroke="hsl(0.0,100%,35%)" stroke-width="0.01000"></path>
<path d="M1.440 0.324 Q0.523 0.369 0.411 0.827" stroke="hsl(0.0,100%,35%)" stroke-width="0.00111"></path>
<path d="M1.440 0.324 Q1.350 0.418 1.514 0.483" stroke="hsl(0.0,100%,35%)" stroke-width="0.03665"></path>
<path d="M1.440 0.324 Q1.624 0.333 1.682 0.245" stroke="hsl(0.0,100%,35%)" stroke-width="0.00111"></path>
<path d="M1.440 0.324 Q1.559 0.327 1.591 0.270" stroke="hsl(0.0,100%,35%)" stroke-width="0.00111"></path>
<path d="M1.440 0.324 Q1.041 0.451 1.203 0.674" stroke="hsl(0.0,100%,35%)" stroke-width="0.00333"></path>
<path d="M1.440 0.324 Q0.947 0.601 1.380 0.903" stroke="hsl(0.0,100%,35%)" stroke-width="0.00222"></path>
<path d="M1.440 0.324 Q1.571 0.252 1.461 0.173" stroke="hsl(0.0,100%,35%)" stroke-width="0.00111"></path>
<path d="M1.440 0.324 Q1.409 0.222 1.204 0.215" stroke="hsl(0.0,100%,35%)" stroke-width="0.00333"></path>
<path d="M1.440 0.324 Q1.151 0.249 0.941 0.373" stroke="hsl(0.0,100%,35%)" stroke-width="0.00222"></path>
<path d="M1.094 0.264 Q1.021 0.377 1.225 0.437" stroke="hsl(0.0,100%,35%)" stroke-width="0.00444"></path>
<path d="M1.094 0.264 Q0.966 0.412 1.228 0.507" stroke="hsl(0.0,100%,35%)" stroke-width="0.00444"></path>
<path d="M1.094 0.264 Q0.683 0.054 0.184 0.208" stroke="hsl(0.0,100%,35%)" stroke-width="0.00111"></path>
<path d="M1.094 0.264 Q0.930 0.288 0.941 0.373" stroke="hsl(0.0,100%,35%)" stroke-width="0.00111"></path>
<path d="M1.094 0.264 Q0.820 0.491 1.203 0.674" stroke="hsl(0.0,100%,35%)" stroke-width="0.00111"></path>
<path d="M1.204 0.215 Q1.037 0.330 1.225 0.437" stroke="hsl(0.0,100%,35%)" stroke-width="0.00777"></path>
<path d="M1.204 0.215 Q0.836 0.444 1.203 0.674" stroke="hsl(0.0,100%,35%)" stroke-width="0.00111"></path>
<path d="M1.204 0.215 Q0.982 0.366 1.228 0.507" stroke="hsl(0.0,100%,35%)" stroke-width="0.00333"></path>
<path d="M1.204 0.215 Q0.946 0.242 0.941 0.373" stroke="hsl(0.0,100%,35%)" stroke-width="0.00444"></path>
<path d="M1.204 0.215 Q1.033 0.324 1.208 0.432" stroke="hsl(0.0,100%,35%)" stroke-width="0.00222"></path>
<path d="M1.204 0.215 Q0.785 0.249 0.759 0.461" stroke="hsl(0.0,100%,35%)" stroke-width="0.00333"></path>
<path d="M1.204 0.215 Q0.700 0.007 0.184 0.208" stroke="hsl(0.0,100%,35%)" stroke-width="0.00222"></path>
<path d="M1.204 0.215 Q1.290 0.129 1.142 0.069" stroke="hsl(0.0,100%,35%)" stroke-width="0.00111"></path>
<path d="M1.895 0.673 Q1.658 0.332 0.941 0.373" stroke="hsl(0.0,100%,35%)" stroke-width="0.00111"></path>
<path d="M1.895 0.673 Q1.757 0.722 1.823 0.800" stroke="hsl(0.0,100%,35%)" stroke-width="0.00111"></path>
<path d="M1.895 0.673 Q1.030 0.453 0.411 0.827" stroke="hsl(0.0,100%,35%)" stroke-width="0.00111"></path>
<path d="M1.895 0.673 Q2.190 0.506 1.928 0.325" stroke="hsl(0.0,100%,35%)" stroke-width="0.00111"></path>
<path d="M1.518 0.206 Q1.608 0.232 1.678 0.193" stroke="hsl(0.0,100%,35%)" stroke-width="0.00111"></path>
<path d="M1.518 0.206 Q1.096 0.174 0.941 0.373" stroke="hsl(0.0,100%,35%)" stroke-width="0.00111"></path>
<path d="M1.518 0.206 Q1.541 0.327 1.781 0.342" stroke="hsl(0.0,100%,35%)" stroke-width="0.00111"></path>
<path d="M1.928 0.325 Q1.487 0.241 1.225 0.437" stroke="hsl(0.0,100%,35%)" stroke-width="0.00222"></path>
<path d="M1.928 0.325 Q1.432 0.276 1.228 0.507" stroke="hsl(0.0,100%,35%)" stroke-width="0.00111"></path>
<path d="M1.928 0.325 Q1.396 0.152 0.941 0.373" stroke="hsl(0.0,100%,35%)" stroke-width="0.00111"></path>
<path d="M1.928 0.325 Q1.992 0.289 1.936 0.250" stroke="hsl(0.0,100%,35%)" stroke-width="0.00111"></path>
<path d="M0.152 0.807 Q0.265 0.869 0.411 0.827" stroke="hsl(180.0,100%,35%)" stroke-width="0.00666"></path>
<path d="M0.152 0.807 Q0.893 0.748 0.941 0.373" stroke="hsl(180.0,100%,35%)" stroke-width="0.00111"></path>
<path d="M0.152 0.807 Q0.984 0.837 1.225 0.437" stroke="hsl(180.0,100%,35%)" stroke-width="0.00111"></path>
<path d="M0.152 0.807 Q0.135 0.883 0.279 0.907" stroke="hsl(180.0,100%,35%)" stroke-width="0.00222"></path>
<path d="M0.152 0.807 Q0.783 0.951 1.203 0.674" stroke="hsl(180.0,100%,35%)" stroke-width="0.00222"></path>
<path d="M0.152 0.807 Q0.097 0.879 0.226 0.922" stroke="hsl(180.0,100%,35%)" stroke-width="0.00222"></path>
<path d="M0.152 0.807 Q0.980 0.831 1.208 0.432" stroke="hsl(180.0,100%,35%)" stroke-width="0.00111"></path>
<path d="M0.152 0.807 Q1.314 0.752 1.461 0.173" stroke="hsl(180.0,100%,35%)" stroke-width="0.00111"></path>
<path d="M0.152 0.807 Q0.144 0.913 0.350 0.940" stroke="hsl(180.0,100%,35%)" stroke-width="0.00222"></path>
<path d="M0.152 0.807 Q1.073 0.708 1.082 0.237" stroke="hsl(180.0,100%,35%)" stroke-width="0.00111"></path>
<path d="M0.152 0.807 Q0.929 0.872 1.228 0.507" stroke="hsl(180.0,100%,35%)" stroke-width="0.00111"></path>
<path d="M0.152 0.807 Q0.300 0.809 0.337 0.737" stroke="hsl(180.0,100%,35%)" stroke-width="0.00111"></path>
<path d="M0.152 0.807 Q0.198 0.970 0.527 0.983" stroke="hsl(180.0,100%,35%)" stroke-width="0.00111"></path>
<path d="M0.152 0.807 Q0.090 0.895 0.249 0.944" stroke="hsl(180.0,100%,35%)" stroke-width="0.00111"></path>
<path d="M0.656 0.843 Q0.889 0.894 1.039 0.791" stroke="hsl(180.0,100%,35%)" stroke-width="0.00222"></path>
<path d="M0.656 0.843 Q1.211 0.789 1.228 0.507" stroke="hsl(180.0,100%,35%)" stroke-width="0.00222"></path>
<path d="M0.656 0.843 Q1.175 0.665 0.941 0.373" stroke="hsl(180.0,100%,35%)" stroke-width="0.00111"></path>
<path d="M0.656 0.843 Q0.523 0.854 0.516 0.922" stroke="hsl(180.0,100%,35%)" stroke-width="0.00111"></path>
<path d="M0.656 0.843 Q0.752 0.764 0.620 0.701" stroke="hsl(180.0,100%,35%)" stroke-width="0.00111"></path>
<path d="M0.656 0.843 Q0.824 0.763 0.705 0.664" stroke="hsl(180.0,100%,35%)" stroke-width="0.00111"></path>
<path d="M0.656 0.843 Q0.913 0.821 0.926 0.690" stroke="hsl(180.0,100%,35%)" stroke-width="0.00111"></path>
<path d="M0.656 0.843 Q0.581 0.860 0.597 0.901" stroke="hsl(180.0,100%,35%)" stroke-width="0.00111"></path>
<path d="M0.656 0.843 Q0.691 0.784 0.584 0.754" stroke="hsl(180.0,100%,35%)" stroke-width="0.00111"></path>
<path d="M0.656 0.843 Q0.595 0.891 0.676 0.932" stroke="hsl(180.0,100%,35%)" stroke-width="0.00111"></path>
<path d="M0.656 0.843 Q0.768 0.849 0.804 0.796" stroke="hsl(180.0,100%,35%)" stroke-width="0.00111"></path>
<path d="M0.656 0.843 Q0.702 0.920 0.862 0.915" stroke="hsl(180.0,100%,35%)" stroke-width="0.00111"></path>
<path d="M0.656 0.843 Q0.790 0.829 0.791 0.761" stroke="hsl(180.0,100%,35%)" stroke-width="0.00111"></path>
<path d="M0.656 0.843 Q0.865 0.616 0.468 0.465" stroke="hsl(180.0,100%,35%)" stroke-width="0.00111"></path>
<path d="M1.039 0.791 Q1.415 0.652 1.225 0.437" stroke="hsl(180.0,100%,35%)" stroke-width="0.00111"></path>
<path d="M1.039 0.791 Q1.015 0.514 0.468 0.465" stroke="hsl(180.0,100%,35%)" stroke-width="0.00111"></path>
<path d="M1.039 0.791 Q0.862 0.602 0.453 0.646" stroke="hsl(180.0,100%,35%)" stroke-width="0.00111"></path>
<path d="M1.039 0.791 Q0.924 0.813 0.941 0.874" stroke="hsl(180.0,100%,35%)" stroke-width="0.00111"></path>
<path d="M1.039 0.791 Q0.583 0.622 0.152 0.807" stroke="hsl(180.0,100%,35%)" stroke-width="0.00111"></path>
<path d="M1.039 0.791 Q1.078 0.329 0.184 0.208" stroke="hsl(180.0,100%,35%)" stroke-width="0.00111"></path>
<path d="M1.039 0.791 Q1.120 0.614 0.791 0.535" stroke="hsl(180.0,100%,35%)" stroke-width="0.00111"></path>
<path d="M1.039 0.791 Q0.876 0.872 0.996 0.969" stroke="hsl(180.0,100%,35%)" stroke-width="0.00111"></path>
<path d="M1.833 0.119 Q1.833 0.156 1.906 0.164" stroke="hsl(0.0,100%,35%)" stroke-width="0.00111"></path>
<path d="M1.833 0.119 Q1.220 0.192 1.228 0.507" stroke="hsl(0.0,100%,35%)" stroke-width="0.00111"></path>
<path d="M1.833 0.119 Q1.840 0.087 1.779 0.077" stroke="hsl(0.0,100%,35%)" stroke-width="0.00111"></path>
<path d="M0.591 0.041 Q0.500 0.277 0.941 0.373" stroke="hsl(180.0,100%,35%)" stroke-width="0.00333"></path>
<path d="M0.591 0.041 Q0.469 0.045 0.450 0.106" stroke="hsl(180.0,100%,35%)" stroke-width="0.00222"></path>
<path d="M0.591 0.041 Q0.552 0.099 0.656 0.130" stroke="hsl(180.0,100%,35%)" stroke-width="0.00222"></path>
<path d="M0.782 0.289 Q0.794 0.363 0.941 0.373" stroke="hsl(0.0,100%,35%)" stroke-width="0.01777"></path>
<path d="M0.782 0.289 Q0.830 0.487 1.228 0.507" stroke="hsl(0.0,100%,35%)" stroke-width="0.00666"></path>
<path d="M0.782 0.289 Q0.527 0.437 0.759 0.594" stroke="hsl(0.0,100%,35%)" stroke-width="0.00111"></path>
<path d="M0.782 0.289 Q0.200 0.558 0.597 0.901" stroke="hsl(0.0,100%,35%)" stroke-width="0.00111"></path>
<path d="M0.782 0.289 Q0.484 0.314 0.468 0.465" stroke="hsl(0.0,100%,35%)" stroke-width="0.00111"></path>
<path d="M0.782 0.289 Q0.926 0.297 0.973 0.228" stroke="hsl(0.0,100%,35%)" stroke-width="0.00222"></path>
<path d="M0.782 0.289 Q0.633 0.370 0.759 0.461" stroke="hsl(0.0,100%,35%)" stroke-width="0.00222"></path>
<path d="M0.782 0.289 Q1.000 0.263 0.998 0.151" stroke="hsl(0.0,100%,35%)" stroke-width="0.00111"></path>
<path d="M1.671 0.069 Q1.612 0.028 1.519 0.048" stroke="hsl(180.0,100%,35%)" stroke-width="0.00111"></path>
<path d="M1.671 0.069 Q1.099 0.199 1.228 0.507" stroke="hsl(180.0,100%,35%)" stroke-width="0.00111"></path>
<path d="M1.671 0.069 Q1.515 -0.003 1.341 0.058" stroke="hsl(180.0,100%,35%)" stroke-width="0.00111"></path>
<path d="M1.671 0.069 Q1.483 0.079 1.461 0.173" stroke="hsl(180.0,100%,35%)" stroke-width="0.00111"></path>
<path d="M1.468 0.983 Q1.677 1.029 1.814 0.938" stroke="hsl(180.0,100%,35%)" stroke-width="0.00333"></path>
<path d="M1.468 0.983 Q1.661 0.341 0.450 0.106" stroke="hsl(180.0,100%,35%)" stroke-width="0.00111"></path>
<path d="M1.468 0.983 Q1.744 0.394 0.656 0.130" stroke="hsl(180.0,100%,35%)" stroke-width="0.00111"></path>
<path d="M1.468 0.983 Q1.632 0.945 1.594 0.857" stroke="hsl(180.0,100%,35%)" stroke-width="0.00111"></path>
<path d="M1.468 0.983 Q1.378 0.894 1.186 0.919" stroke="hsl(180.0,100%,35%)" stroke-width="0.00222"></path>
<path d="M1.468 0.983 Q0.951 0.632 0.152 0.807" stroke="hsl(180.0,100%,35%)" stroke-width="0.00222"></path>
<path d="M1.468 0.983 Q1.488 0.925 1.380 0.903" stroke="hsl(180.0,100%,35%)" stroke-width="0.00222"></path>
<path d="M1.468 0.983 Q1.783 0.337 0.591 0.041" stroke="hsl(180.0,100%,35%)" stroke-width="0.00111"></path>
<path d="M1.116 0.190 Q0.973 0.335 1.225 0.437" stroke="hsl(0.0,100%,35%)" stroke-width="0.00777"></path>
<path d="M1.116 0.190 Q0.772 0.449 1.203 0.674" stroke="hsl(0.0,100%,35%)" stroke-width="0.00333"></path>
<path d="M1.116 0.190 Q1.051 0.143 0.946 0.165" stroke="hsl(0.0,100%,35%)" stroke-width="0.00111"></path>
<path d="M1.116 0.190 Q1.191 0.253 1.331 0.230" stroke="hsl(0.0,100%,35%)" stroke-width="0.00111"></path>
<path d="M1.116 0.190 Q0.882 0.247 0.941 0.373" stroke="hsl(0.0,100%,35%)" stroke-width="0.00444"></path>
<path d="M1.116 0.190 Q0.636 0.012 0.184 0.208" stroke="hsl(0.0,100%,35%)" stroke-width="0.00111"></path>
<path d="M1.116 0.190 Q1.065 0.375 1.415 0.441" stroke="hsl(0.0,100%,35%)" stroke-width="0.00111"></path>
<path d="M1.116 0.190 Q0.918 0.371 1.228 0.507" stroke="hsl(0.0,100%,35%)" stroke-width="0.00222"></path>
<path d="M1.116 0.190 Q0.969 0.329 1.208 0.432" stroke="hsl(0.0,100%,35%)" stroke-width="0.00111"></path>
<path d="M1.116 0.190 Q0.470 0.145 0.241 0.451" stroke="hsl(0.0,100%,35%)" stroke-width="0.00111"></path>
<path d="M1.116 0.190 Q0.830 0.368 1.115 0.547" stroke="hsl(0.0,100%,35%)" stroke-width="0.00111"></path>
<path d="M1.753 0.472 Q1.316 0.463 1.203 0.674" stroke="hsl(180.0,100%,35%)" stroke-width="0.00111"></path>
<path d="M1.753 0.472 Q1.783 0.512 1.869 0.506" stroke="hsl(180.0,100%,35%)" stroke-width="0.00111"></path>
<path d="M1.753 0.472 Q0.982 0.215 0.312 0.535" stroke="hsl(180.0,100%,35%)" stroke-width="0.00111"></path>
<path d="M0.922 0.577 Q1.130 0.603 1.228 0.507" stroke="hsl(0.0,100%,35%)" stroke-width="0.00222"></path>
<path d="M0.922 0.577 Q1.094 0.479 0.941 0.373" stroke="hsl(0.0,100%,35%)" stroke-width="0.00111"></path>
<path d="M0.922 0.577 Q1.185 0.568 1.225 0.437" stroke="hsl(0.0,100%,35%)" stroke-width="0.00222"></path>
</g>
<text x="0.878" y="0.286" font-size="0.010386" fill="hsl(0.0,100%,20%)">ajuma</text>
<text x="1.225" y="0.393" font-size="0.088253" fill="hsl(0.0,100%,20%)">bartekn</text>
<text x="0.941" y="0.335" font-size="0.076464" fill="hsl(0.0,100%,20%)">lizeb</text>
<text x="0.184" y="0.183" font-size="0.050882" fill="hsl(0.0,100%,20%)">bikineev</text>
<text x="1.412" y="0.520" font-size="0.013138" fill="hsl(180.0,100%,20%)">andre.kempe</text>
<text x="1.430" y="0.423" font-size="0.009290" fill="hsl(180.0,100%,20%)">agrieve</text>
<text x="1.594" y="0.854" font-size="0.006569" fill="hsl(180.0,100%,20%)">mfoltz</text>
<text x="0.468" y="0.458" font-size="0.014688" fill="hsl(180.0,100%,20%)">thakis</text>
<text x="1.228" y="0.479" font-size="0.055739" fill="hsl(0.0,100%,20%)">haraken</text>
<text x="0.241" y="0.434" font-size="0.033171" fill="hsl(0.0,100%,20%)">mlippautz</text>
<text x="1.461" y="0.168" font-size="0.010386" fill="hsl(180.0,100%,20%)">wez</text>
<text x="1.486" y="0.547" font-size="0.016090" fill="hsl(0.0,100%,20%)">arthursonzogni</text>
<text x="0.946" y="0.157" font-size="0.014688" fill="hsl(0.0,100%,20%)">glazunov</text>
<text x="0.453" y="0.637" font-size="0.018580" fill="hsl(180.0,100%,20%)">avi</text>
<text x="0.411" y="0.818" font-size="0.018580" fill="hsl(180.0,100%,20%)">danakj</text>
<text x="0.139" y="0.610" font-size="0.004645" fill="hsl(180.0,100%,20%)">garykac</text>
<text x="0.238" y="0.677" font-size="0.004645" fill="hsl(180.0,100%,20%)">khorimoto</text>
<text x="0.359" y="0.699" font-size="0.004645" fill="hsl(180.0,100%,20%)">mbonadei</text>
<text x="0.387" y="0.722" font-size="0.004645" fill="hsl(180.0,100%,20%)">rohitrao</text>
<text x="0.791" y="0.530" font-size="0.010386" fill="hsl(180.0,100%,20%)">rsesek</text>
<text x="0.146" y="0.651" font-size="0.004645" fill="hsl(180.0,100%,20%)">tedchoc</text>
<text x="0.568" y="0.596" font-size="0.004645" fill="hsl(180.0,100%,20%)">vovoy</text>
<text x="1.203" y="0.662" font-size="0.025013" fill="hsl(180.0,100%,20%)">dcheng</text>
<text x="1.115" y="0.523" font-size="0.047369" fill="hsl(0.0,100%,20%)">tasak</text>
<text x="0.312" y="0.530" font-size="0.010386" fill="hsl(180.0,100%,20%)">mark</text>
<text x="1.514" y="0.451" font-size="0.063857" fill="hsl(0.0,100%,20%)">yukishiino</text>
<text x="1.440" y="0.296" font-size="0.055155" fill="hsl(0.0,100%,20%)">kdlee</text>
<text x="1.037" y="0.456" font-size="0.006569" fill="hsl(0.0,100%,20%)">asully</text>
<text x="1.458" y="0.527" font-size="0.004645" fill="hsl(0.0,100%,20%)">hypan</text>
<text x="1.094" y="0.255" font-size="0.016747" fill="hsl(0.0,100%,20%)">richard.townsend</text>
<text x="1.208" y="0.426" font-size="0.012289" fill="hsl(180.0,100%,20%)">mpdenton</text>
<text x="0.759" y="0.454" font-size="0.013935" fill="hsl(0.0,100%,20%)">ssid</text>
<text x="0.527" y="0.978" font-size="0.010386" fill="hsl(180.0,100%,20%)">lukasza</text>
<text x="1.204" y="0.200" font-size="0.029377" fill="hsl(0.0,100%,20%)">keishi</text>
<text x="1.082" y="0.233" font-size="0.008045" fill="hsl(180.0,100%,20%)">gab</text>
<text x="1.634" y="0.250" font-size="0.010386" fill="hsl(0.0,100%,20%)">bgeffon</text>
<text x="1.895" y="0.668" font-size="0.010386" fill="hsl(0.0,100%,20%)">brucedawson</text>
<text x="1.518" y="0.201" font-size="0.010386" fill="hsl(0.0,100%,20%)">ellyjones</text>
<text x="1.128" y="0.268" font-size="0.004645" fill="hsl(0.0,100%,20%)">gbeaty</text>
<text x="1.380" y="0.897" font-size="0.011378" fill="hsl(180.0,100%,20%)">wfh</text>
<text x="1.415" y="0.437" font-size="0.008045" fill="hsl(180.0,100%,20%)">erikchen</text>
<text x="1.336" y="0.512" font-size="0.006569" fill="hsl(0.0,100%,20%)">agl</text>
<text x="0.950" y="0.242" font-size="0.004645" fill="hsl(0.0,100%,20%)">yukiy</text>
<text x="0.337" y="0.734" font-size="0.006569" fill="hsl(180.0,100%,20%)">kinuko</text>
<text x="1.517" y="0.536" font-size="0.006569" fill="hsl(0.0,100%,20%)">tikuta</text>
<text x="0.054" y="0.361" font-size="0.004645" fill="hsl(0.0,100%,20%)">oysteine</text>
<text x="1.578" y="0.258" font-size="0.006569" fill="hsl(0.0,100%,20%)">altimin</text>
<text x="0.439" y="0.204" font-size="0.006569" fill="hsl(0.0,100%,20%)">creis</text>
<text x="1.823" y="0.798" font-size="0.004645" fill="hsl(180.0,100%,20%)">cassew</text>
<text x="1.928" y="0.319" font-size="0.011378" fill="hsl(0.0,100%,20%)">palmer</text>
<text x="0.152" y="0.795" font-size="0.024578" fill="hsl(180.0,100%,20%)">pkasting</text>
<text x="0.656" y="0.834" font-size="0.018580" fill="hsl(180.0,100%,20%)">dsanders11</text>
<text x="1.039" y="0.784" font-size="0.015405" fill="hsl(180.0,100%,20%)">thestig</text>
<text x="0.516" y="0.920" font-size="0.004645" fill="hsl(180.0,100%,20%)">acourbot</text>
<text x="0.620" y="0.698" font-size="0.004645" fill="hsl(180.0,100%,20%)">aleventhal</text>
<text x="0.705" y="0.662" font-size="0.004645" fill="hsl(180.0,100%,20%)">austinct</text>
<text x="0.926" y="0.688" font-size="0.004645" fill="hsl(180.0,100%,20%)">eseckler</text>
<text x="0.597" y="0.897" font-size="0.006569" fill="hsl(180.0,100%,20%)">jamiewalch</text>
<text x="0.584" y="0.752" font-size="0.004645" fill="hsl(180.0,100%,20%)">michaeldo</text>
<text x="0.676" y="0.929" font-size="0.004645" fill="hsl(180.0,100%,20%)">mmoskvitin</text>
<text x="0.804" y="0.794" font-size="0.004645" fill="hsl(180.0,100%,20%)">olivierrobin</text>
<text x="0.862" y="0.912" font-size="0.004645" fill="hsl(180.0,100%,20%)">tbansal</text>
<text x="0.791" y="0.759" font-size="0.004645" fill="hsl(180.0,100%,20%)">tguilbert</text>
<text x="1.678" y="0.191" font-size="0.004645" fill="hsl(0.0,100%,20%)">elainechien</text>
<text x="1.781" y="0.340" font-size="0.004645" fill="hsl(0.0,100%,20%)">tkent</text>
<text x="1.833" y="0.115" font-size="0.008045" fill="hsl(0.0,100%,20%)">kbr</text>
<text x="1.906" y="0.162" font-size="0.004645" fill="hsl(0.0,100%,20%)">ccameron</text>
<text x="1.779" y="0.075" font-size="0.004645" fill="hsl(0.0,100%,20%)">martiniss</text>
<text x="1.661" y="0.056" font-size="0.004645" fill="hsl(0.0,100%,20%)">metzman</text>
<text x="1.682" y="0.243" font-size="0.004645" fill="hsl(0.0,100%,20%)">ayui</text>
<text x="1.591" y="0.268" font-size="0.004645" fill="hsl(0.0,100%,20%)">primiano</text>
<text x="1.142" y="0.066" font-size="0.004645" fill="hsl(0.0,100%,20%)">isherman</text>
<text x="0.591" y="0.035" font-size="0.013138" fill="hsl(180.0,100%,20%)">kmarshall</text>
<text x="0.450" y="0.102" font-size="0.008045" fill="hsl(180.0,100%,20%)">ddorwin</text>
<text x="0.656" y="0.126" font-size="0.008045" fill="hsl(180.0,100%,20%)">kylechar</text>
<text x="0.782" y="0.274" font-size="0.029742" fill="hsl(0.0,100%,20%)">thiabaud</text>
<text x="0.249" y="0.941" font-size="0.006569" fill="hsl(180.0,100%,20%)">fdoray</text>
<text x="0.898" y="0.562" font-size="0.008045" fill="hsl(0.0,100%,20%)">pasko</text>
<text x="0.892" y="0.582" font-size="0.004645" fill="hsl(0.0,100%,20%)">alexilin</text>
<text x="0.913" y="0.511" font-size="0.004645" fill="hsl(0.0,100%,20%)">msramek</text>
<text x="0.815" y="0.422" font-size="0.004645" fill="hsl(0.0,100%,20%)">mamir</text>
<text x="1.042" y="0.286" font-size="0.004645" fill="hsl(0.0,100%,20%)">amraboelkher</text>
<text x="0.787" y="0.473" font-size="0.004645" fill="hsl(0.0,100%,20%)">skyostil</text>
<text x="0.779" y="0.480" font-size="0.004645" fill="hsl(0.0,100%,20%)">etiennep</text>
<text x="1.936" y="0.247" font-size="0.004645" fill="hsl(0.0,100%,20%)">tsepez</text>
<text x="0.279" y="0.904" font-size="0.006569" fill="hsl(180.0,100%,20%)">behdadb</text>
<text x="0.226" y="0.919" font-size="0.006569" fill="hsl(180.0,100%,20%)">nicolaso</text>
<text x="0.350" y="0.937" font-size="0.006569" fill="hsl(180.0,100%,20%)">pbos</text>
<text x="1.671" y="0.064" font-size="0.009290" fill="hsl(180.0,100%,20%)">rohpavone</text>
<text x="1.519" y="0.045" font-size="0.004645" fill="hsl(180.0,100%,20%)">bsheedy</text>
<text x="1.341" y="0.056" font-size="0.004645" fill="hsl(180.0,100%,20%)">johnchen</text>
<text x="1.468" y="0.975" font-size="0.016747" fill="hsl(180.0,100%,20%)">rwkeane</text>
<text x="1.814" y="0.934" font-size="0.008045" fill="hsl(180.0,100%,20%)">ajgo</text>
<text x="1.186" y="0.916" font-size="0.006569" fill="hsl(180.0,100%,20%)">jshin</text>
<text x="1.116" y="0.179" font-size="0.022276" fill="hsl(0.0,100%,20%)">saelo</text>
<text x="1.331" y="0.228" font-size="0.004645" fill="hsl(0.0,100%,20%)">cbruni</text>
<text x="1.753" y="0.468" font-size="0.008045" fill="hsl(180.0,100%,20%)">ssyed</text>
<text x="1.869" y="0.504" font-size="0.004645" fill="hsl(180.0,100%,20%)">abhijeet</text>
<text x="0.922" y="0.571" font-size="0.010386" fill="hsl(0.0,100%,20%)">stha09</text>
<text x="1.383" y="0.626" font-size="0.004645" fill="hsl(0.0,100%,20%)">estaab</text>
<text x="0.941" y="0.871" font-size="0.006569" fill="hsl(180.0,100%,20%)">dpranke</text>
<text x="0.996" y="0.967" font-size="0.004645" fill="hsl(180.0,100%,20%)">sunnyps</text>
<text x="0.759" y="0.592" font-size="0.004645" fill="hsl(0.0,100%,20%)">dgozman</text>
<text x="0.973" y="0.225" font-size="0.006569" fill="hsl(0.0,100%,20%)">rkaplow</text>
<text x="0.998" y="0.149" font-size="0.004645" fill="hsl(0.0,100%,20%)">chanli</text>
<text x="1.805" y="0.558" font-size="0.004645" fill="hsl(0.0,100%,20%)">sdefresne</text>
</svg>
