<svg width="4000" height="2000" viewBox="-0.025 -0.025 2.05 1.05" xmlns="http://www.w3.org/2000/svg">
  <style>
    path {
      fill: none;
      stroke-linecap: round;
      stroke-opacity: 0.4;
    }

    text {
      text-anchor: middle;
      alignment-baseline: hanging;
    }
  </style>
  <g opacity="0.4">
<path d="M1.799 0.225 Q1.158 0.566 1.682 0.953" stroke="hsl(0.0,100%,35%)" stroke-width="0.00484"></path>
<path d="M1.799 0.225 Q1.093 0.465 1.405 0.862" stroke="hsl(0.0,100%,35%)" stroke-width="0.00074"></path>
<path d="M1.799 0.225 Q0.876 0.485 1.182 0.992" stroke="hsl(0.0,100%,35%)" stroke-width="0.00261"></path>
<path d="M1.682 0.953 Q1.401 0.873 1.182 0.992" stroke="hsl(0.0,100%,35%)" stroke-width="0.01155"></path>
<path d="M1.682 0.953 Q1.617 0.852 1.405 0.862" stroke="hsl(0.0,100%,35%)" stroke-width="0.03687"></path>
<path d="M1.682 0.953 Q1.490 1.114 1.762 1.243" stroke="hsl(0.0,100%,35%)" stroke-width="0.00149"></path>
<path d="M1.682 0.953 Q1.655 0.752 1.257 0.720" stroke="hsl(0.0,100%,35%)" stroke-width="0.00149"></path>
<path d="M1.682 0.953 Q-1.011 2.251 0.930 3.849" stroke="hsl(0.0,100%,35%)" stroke-width="0.00037"></path>
<path d="M1.405 0.862 Q1.444 0.761 1.257 0.720" stroke="hsl(0.0,100%,35%)" stroke-width="0.11583"></path>
<path d="M1.405 0.862 Q1.470 0.963 1.682 0.953" stroke="hsl(0.0,100%,35%)" stroke-width="0.01825"></path>
<path d="M1.405 0.862 Q1.189 0.882 1.182 0.992" stroke="hsl(0.0,100%,35%)" stroke-width="0.02793"></path>
<path d="M1.405 0.862 Q1.680 0.864 1.745 0.730" stroke="hsl(0.0,100%,35%)" stroke-width="0.00149"></path>
<path d="M1.405 0.862 Q1.663 0.675 1.356 0.508" stroke="hsl(0.0,100%,35%)" stroke-width="0.00112"></path>
<path d="M1.405 0.862 Q1.790 0.904 1.958 0.726" stroke="hsl(0.0,100%,35%)" stroke-width="0.00037"></path>
<path d="M1.405 0.862 Q1.878 0.758 1.779 0.505" stroke="hsl(0.0,100%,35%)" stroke-width="0.00037"></path>
<path d="M1.405 0.862 Q1.600 0.929 1.775 0.849" stroke="hsl(0.0,100%,35%)" stroke-width="0.00074"></path>
<path d="M1.405 0.862 Q1.339 0.900 1.399 0.941" stroke="hsl(0.0,100%,35%)" stroke-width="0.00037"></path>
<path d="M1.405 0.862 Q0.340 1.636 1.616 2.326" stroke="hsl(0.0,100%,35%)" stroke-width="0.00037"></path>
<path d="M1.182 0.992 Q1.463 1.073 1.682 0.953" stroke="hsl(0.0,100%,35%)" stroke-width="0.00186"></path>
<path d="M1.182 0.992 Q1.673 0.974 1.745 0.730" stroke="hsl(0.0,100%,35%)" stroke-width="0.00037"></path>
<path d="M1.182 0.992 Q1.437 0.871 1.257 0.720" stroke="hsl(0.0,100%,35%)" stroke-width="0.00149"></path>
<path d="M1.182 0.992 Q1.398 0.972 1.405 0.862" stroke="hsl(0.0,100%,35%)" stroke-width="0.00968"></path>
<path d="M1.257 0.720 Q1.218 0.821 1.405 0.862" stroke="hsl(0.0,100%,35%)" stroke-width="0.10912"></path>
<path d="M1.257 0.720 Q1.283 0.922 1.682 0.953" stroke="hsl(0.0,100%,35%)" stroke-width="0.00745"></path>
<path d="M1.257 0.720 Q1.002 0.841 1.182 0.992" stroke="hsl(0.0,100%,35%)" stroke-width="0.02458"></path>
<path d="M0.930 3.849 Q3.558 2.450 1.405 0.862" stroke="hsl(0.0,100%,35%)" stroke-width="0.00074"></path>
<path d="M0.930 3.849 Q3.597 2.350 1.257 0.720" stroke="hsl(0.0,100%,35%)" stroke-width="0.00037"></path>
<path d="M1.734 0.519 Q1.360 0.725 1.682 0.953" stroke="hsl(0.0,100%,35%)" stroke-width="0.00149"></path>
<path d="M1.734 0.519 Q1.079 0.645 1.182 0.992" stroke="hsl(0.0,100%,35%)" stroke-width="0.00149"></path>
<path d="M1.734 0.519 Q1.334 0.524 1.257 0.720" stroke="hsl(0.0,100%,35%)" stroke-width="0.00037"></path>
<path d="M1.734 0.519 Q1.295 0.624 1.405 0.862" stroke="hsl(0.0,100%,35%)" stroke-width="0.00596"></path>
<path d="M1.005 0.715 Q0.872 0.889 1.182 0.992" stroke="hsl(0.0,100%,35%)" stroke-width="0.00037"></path>
<path d="M1.005 0.715 Q1.127 0.768 1.257 0.720" stroke="hsl(0.0,100%,35%)" stroke-width="0.00484"></path>
<path d="M1.005 0.715 Q1.088 0.868 1.405 0.862" stroke="hsl(0.0,100%,35%)" stroke-width="0.00298"></path>
</g>
<text x="1.799" y="0.215" font-size="0.020241" fill="hsl(0.0,100%,20%)">awscreen</text>
<text x="1.682" y="0.920" font-size="0.065445" fill="hsl(0.0,100%,20%)">nigi</text>
<text x="1.405" y="0.797" font-size="0.129027" fill="hsl(0.0,100%,20%)">thestig</text>
<text x="1.182" y="0.960" font-size="0.064007" fill="hsl(0.0,100%,20%)">dhoss</text>
<text x="1.745" y="0.725" font-size="0.009649" fill="hsl(0.0,100%,20%)">bungeman</text>
<text x="1.257" y="0.663" font-size="0.115228" fill="hsl(0.0,100%,20%)">tsepez</text>
<text x="0.930" y="3.845" font-size="0.008631" fill="hsl(0.0,100%,20%)">dsinclair</text>
<text x="1.734" y="0.508" font-size="0.021577" fill="hsl(0.0,100%,20%)">kmoon</text>
<text x="1.762" y="1.239" font-size="0.008631" fill="hsl(0.0,100%,20%)">weili</text>
<text x="1.356" y="0.505" font-size="0.007474" fill="hsl(0.0,100%,20%)">thakis</text>
<text x="1.958" y="0.724" font-size="0.004315" fill="hsl(0.0,100%,20%)">brucedawson</text>
<text x="1.779" y="0.503" font-size="0.004315" fill="hsl(0.0,100%,20%)">drott</text>
<text x="1.775" y="0.846" font-size="0.006103" fill="hsl(0.0,100%,20%)">rbpotter</text>
<text x="1.399" y="0.938" font-size="0.004315" fill="hsl(0.0,100%,20%)">rharrison</text>
<text x="1.616" y="2.324" font-size="0.004315" fill="hsl(0.0,100%,20%)">hnakashima</text>
<text x="1.005" y="0.705" font-size="0.020241" fill="hsl(0.0,100%,20%)">vmiklos</text>
</svg>
