<svg width="4000" height="2000" viewBox="-0.025 -0.025 2.05 1.05" xmlns="http://www.w3.org/2000/svg">
  <style>
    path {
      fill: none;
      stroke-linecap: round;
      stroke-opacity: 0.4;
    }

    text {
      text-anchor: middle;
      alignment-baseline: hanging;
    }
  </style>
  <g opacity="0.4">
<path d="M0.997 0.543 Q1.366 0.631 1.618 0.470" stroke="hsl(0.0,100%,35%)" stroke-width="0.00380"></path>
<path d="M0.997 0.543 Q1.125 0.602 1.267 0.552" stroke="hsl(0.0,100%,35%)" stroke-width="0.00027"></path>
<path d="M0.997 0.543 Q1.603 0.503 1.658 0.199" stroke="hsl(0.0,100%,35%)" stroke-width="0.00136"></path>
<path d="M0.997 0.543 Q0.908 0.420 0.649 0.437" stroke="hsl(0.0,100%,35%)" stroke-width="0.00054"></path>
<path d="M0.997 0.543 Q0.742 0.314 0.239 0.388" stroke="hsl(0.0,100%,35%)" stroke-width="0.00027"></path>
<path d="M1.618 0.470 Q1.765 0.392 1.644 0.303" stroke="hsl(0.0,100%,35%)" stroke-width="0.01437"></path>
<path d="M1.618 0.470 Q1.377 0.441 1.267 0.552" stroke="hsl(0.0,100%,35%)" stroke-width="0.06346"></path>
<path d="M1.618 0.470 Q1.855 0.342 1.658 0.199" stroke="hsl(0.0,100%,35%)" stroke-width="0.05098"></path>
<path d="M1.618 0.470 Q1.216 0.460 1.108 0.654" stroke="hsl(0.0,100%,35%)" stroke-width="0.00081"></path>
<path d="M1.618 0.470 Q1.846 0.459 1.875 0.345" stroke="hsl(0.0,100%,35%)" stroke-width="0.00054"></path>
<path d="M1.618 0.470 Q2.483 -0.464 0.851 -1.090" stroke="hsl(0.0,100%,35%)" stroke-width="0.00027"></path>
<path d="M1.267 0.552 Q1.509 0.581 1.618 0.470" stroke="hsl(0.0,100%,35%)" stroke-width="0.10468"></path>
<path d="M1.267 0.552 Q1.655 0.503 1.644 0.303" stroke="hsl(0.0,100%,35%)" stroke-width="0.00054"></path>
<path d="M1.267 0.552 Q1.745 0.454 1.658 0.199" stroke="hsl(0.0,100%,35%)" stroke-width="0.00108"></path>
<path d="M1.267 0.552 Q1.032 0.701 1.270 0.848" stroke="hsl(0.0,100%,35%)" stroke-width="0.00027"></path>
<path d="M1.658 0.199 Q1.421 0.326 1.618 0.470" stroke="hsl(0.0,100%,35%)" stroke-width="0.02956"></path>
<path d="M1.658 0.199 Q1.568 0.248 1.644 0.303" stroke="hsl(0.0,100%,35%)" stroke-width="0.01003"></path>
<path d="M1.658 0.199 Q1.180 0.297 1.267 0.552" stroke="hsl(0.0,100%,35%)" stroke-width="0.00027"></path>
<path d="M1.658 0.199 Q0.963 0.116 0.649 0.437" stroke="hsl(0.0,100%,35%)" stroke-width="0.00027"></path>
<path d="M1.644 0.303 Q1.498 0.381 1.618 0.470" stroke="hsl(0.0,100%,35%)" stroke-width="0.01519"></path>
<path d="M1.644 0.303 Q1.734 0.254 1.658 0.199" stroke="hsl(0.0,100%,35%)" stroke-width="0.02956"></path>
<path d="M1.644 0.303 Q1.256 0.352 1.267 0.552" stroke="hsl(0.0,100%,35%)" stroke-width="0.00298"></path>
<path d="M1.644 0.303 Q1.040 0.171 0.649 0.437" stroke="hsl(0.0,100%,35%)" stroke-width="0.00054"></path>
</g>
<text x="0.997" y="0.534" font-size="0.019394" fill="hsl(0.0,100%,20%)">kjlubick</text>
<text x="1.618" y="0.405" font-size="0.130788" fill="hsl(0.0,100%,20%)">thestig</text>
<text x="1.267" y="0.501" font-size="0.102304" fill="hsl(0.0,100%,20%)">tsepez</text>
<text x="1.658" y="0.156" font-size="0.086165" fill="hsl(0.0,100%,20%)">nigi</text>
<text x="0.649" y="0.432" font-size="0.009042" fill="hsl(0.0,100%,20%)">bungeman</text>
<text x="0.239" y="0.386" font-size="0.004044" fill="hsl(0.0,100%,20%)">npm</text>
<text x="1.644" y="0.270" font-size="0.066448" fill="hsl(0.0,100%,20%)">kmoon</text>
<text x="1.108" y="0.650" font-size="0.007004" fill="hsl(0.0,100%,20%)">drott</text>
<text x="1.875" y="0.342" font-size="0.005719" fill="hsl(0.0,100%,20%)">thomasanderson</text>
<text x="0.851" y="-1.092" font-size="0.004044" fill="hsl(0.0,100%,20%)">thakis</text>
<text x="1.270" y="0.846" font-size="0.004044" fill="hsl(0.0,100%,20%)">dcheng</text>
</svg>
