<svg width="4000" height="2000" viewBox="-0.025 -0.025 2.05 1.05" xmlns="http://www.w3.org/2000/svg">
  <style>
    path {
      fill: none;
      stroke-linecap: round;
      stroke-opacity: 0.4;
    }

    text {
      text-anchor: middle;
      alignment-baseline: hanging;
    }
  </style>
  <g opacity="0.4">
<path d="M0.589 0.570 Q0.866 0.947 1.663 0.894" stroke="hsl(0.0,100%,35%)" stroke-width="0.01069"></path>
<path d="M0.589 0.570 Q0.991 0.885 1.694 0.758" stroke="hsl(0.0,100%,35%)" stroke-width="0.00037"></path>
<path d="M0.589 0.570 Q0.978 0.636 1.192 0.461" stroke="hsl(0.0,100%,35%)" stroke-width="0.00700"></path>
<path d="M1.663 0.894 Q1.787 0.832 1.694 0.758" stroke="hsl(0.0,100%,35%)" stroke-width="0.10504"></path>
<path d="M1.663 0.894 Q1.397 0.930 1.408 1.067" stroke="hsl(0.0,100%,35%)" stroke-width="0.00958"></path>
<path d="M1.663 0.894 Q1.774 0.584 1.192 0.461" stroke="hsl(0.0,100%,35%)" stroke-width="0.05492"></path>
<path d="M1.663 0.894 Q1.832 0.693 1.477 0.567" stroke="hsl(0.0,100%,35%)" stroke-width="0.00111"></path>
<path d="M1.663 0.894 Q1.520 0.636 0.984 0.649" stroke="hsl(0.0,100%,35%)" stroke-width="0.00885"></path>
<path d="M1.694 0.758 Q1.569 0.820 1.663 0.894" stroke="hsl(0.0,100%,35%)" stroke-width="0.06671"></path>
<path d="M1.694 0.758 Q1.944 0.700 1.886 0.566" stroke="hsl(0.0,100%,35%)" stroke-width="0.00037"></path>
<path d="M1.694 0.758 Q1.681 0.509 1.192 0.461" stroke="hsl(0.0,100%,35%)" stroke-width="0.00111"></path>
<path d="M1.694 0.758 Q1.426 0.561 0.984 0.649" stroke="hsl(0.0,100%,35%)" stroke-width="0.00074"></path>
<path d="M1.192 0.461 Q1.081 0.772 1.663 0.894" stroke="hsl(0.0,100%,35%)" stroke-width="0.01216"></path>
<path d="M1.192 0.461 Q0.938 0.513 0.984 0.649" stroke="hsl(0.0,100%,35%)" stroke-width="0.00700"></path>
<path d="M1.192 0.461 Q1.205 0.710 1.694 0.758" stroke="hsl(0.0,100%,35%)" stroke-width="0.00037"></path>
<path d="M1.155 0.573 Q1.152 0.835 1.663 0.894" stroke="hsl(0.0,100%,35%)" stroke-width="0.00111"></path>
<path d="M1.155 0.573 Q1.263 0.525 1.192 0.461" stroke="hsl(0.0,100%,35%)" stroke-width="0.00074"></path>
<path d="M1.155 0.573 Q1.009 0.577 0.984 0.649" stroke="hsl(0.0,100%,35%)" stroke-width="0.00074"></path>
<path d="M0.984 0.649 Q1.127 0.907 1.663 0.894" stroke="hsl(0.0,100%,35%)" stroke-width="0.00774"></path>
<path d="M0.984 0.649 Q1.252 0.845 1.694 0.758" stroke="hsl(0.0,100%,35%)" stroke-width="0.00258"></path>
<path d="M0.984 0.649 Q1.239 0.596 1.192 0.461" stroke="hsl(0.0,100%,35%)" stroke-width="0.01401"></path>
<path d="M1.477 0.567 Q1.308 0.768 1.663 0.894" stroke="hsl(0.0,100%,35%)" stroke-width="0.00037"></path>
<path d="M1.477 0.567 Q1.419 0.457 1.192 0.461" stroke="hsl(0.0,100%,35%)" stroke-width="0.00037"></path>
<path d="M1.104 0.763 Q1.278 0.941 1.663 0.894" stroke="hsl(0.0,100%,35%)" stroke-width="0.00184"></path>
<path d="M1.104 0.763 Q1.403 0.878 1.694 0.758" stroke="hsl(0.0,100%,35%)" stroke-width="0.00037"></path>
<path d="M1.104 0.763 Q1.390 0.630 1.192 0.461" stroke="hsl(0.0,100%,35%)" stroke-width="0.00037"></path>
</g>
<text x="0.589" y="0.553" font-size="0.033796" fill="hsl(0.0,100%,20%)">awscreen</text>
<text x="1.663" y="0.828" font-size="0.133100" fill="hsl(0.0,100%,20%)">thestig</text>
<text x="1.694" y="0.705" font-size="0.105997" fill="hsl(0.0,100%,20%)">tsepez</text>
<text x="1.192" y="0.422" font-size="0.078743" fill="hsl(0.0,100%,20%)">nigi</text>
<text x="1.155" y="0.567" font-size="0.012774" fill="hsl(0.0,100%,20%)">brianosman</text>
<text x="0.984" y="0.623" font-size="0.051323" fill="hsl(0.0,100%,20%)">kmoon</text>
<text x="1.477" y="0.561" font-size="0.010796" fill="hsl(0.0,100%,20%)">bungeman</text>
<text x="1.104" y="0.757" font-size="0.012774" fill="hsl(0.0,100%,20%)">kjlubick</text>
<text x="1.408" y="1.055" font-size="0.024618" fill="hsl(0.0,100%,20%)">drott</text>
<text x="1.886" y="0.563" font-size="0.004828" fill="hsl(0.0,100%,20%)">thakis</text>
</svg>
