<svg width="4000" height="2000" viewBox="-0.025 -0.025 2.05 1.05" xmlns="http://www.w3.org/2000/svg">
  <style>
    path {
      fill: none;
      stroke-linecap: round;
      stroke-opacity: 0.4;
    }

    text {
      text-anchor: middle;
      alignment-baseline: hanging;
    }
  </style>
  <g opacity="0.4">
<path d="M1.262 0.706 Q1.145 0.587 0.887 0.618" stroke="hsl(0.0,100%,35%)" stroke-width="0.00901"></path>
<path d="M1.262 0.706 Q1.479 0.725 1.563 0.623" stroke="hsl(0.0,100%,35%)" stroke-width="0.00350"></path>
<path d="M1.262 0.706 Q1.439 0.538 1.151 0.415" stroke="hsl(0.0,100%,35%)" stroke-width="0.00050"></path>
<path d="M0.887 0.618 Q0.986 0.834 1.430 0.833" stroke="hsl(0.0,100%,35%)" stroke-width="0.00250"></path>
<path d="M0.887 0.618 Q1.181 0.569 1.151 0.415" stroke="hsl(0.0,100%,35%)" stroke-width="0.23768"></path>
<path d="M0.887 0.618 Q0.817 0.500 0.571 0.508" stroke="hsl(0.0,100%,35%)" stroke-width="0.00100"></path>
<path d="M0.887 0.618 Q1.221 0.756 1.563 0.623" stroke="hsl(0.0,100%,35%)" stroke-width="0.02552"></path>
<path d="M0.887 0.618 Q0.899 0.799 1.255 0.833" stroke="hsl(0.0,100%,35%)" stroke-width="0.00250"></path>
<path d="M0.887 0.618 Q0.771 0.615 0.739 0.671" stroke="hsl(0.0,100%,35%)" stroke-width="0.00050"></path>
<path d="M0.887 0.618 Q0.552 0.649 0.539 0.819" stroke="hsl(0.0,100%,35%)" stroke-width="0.00050"></path>
<path d="M0.887 0.618 Q0.728 0.759 0.968 0.868" stroke="hsl(0.0,100%,35%)" stroke-width="0.00100"></path>
<path d="M0.887 0.618 Q0.630 0.664 0.662 0.799" stroke="hsl(0.0,100%,35%)" stroke-width="0.00050"></path>
<path d="M0.887 0.618 Q1.298 0.685 1.519 0.499" stroke="hsl(0.0,100%,35%)" stroke-width="0.02352"></path>
<path d="M0.887 0.618 Q1.091 0.839 1.568 0.788" stroke="hsl(0.0,100%,35%)" stroke-width="0.01501"></path>
<path d="M0.887 0.618 Q1.429 0.452 1.225 0.151" stroke="hsl(0.0,100%,35%)" stroke-width="0.00100"></path>
<path d="M0.887 0.618 Q0.855 0.706 1.019 0.741" stroke="hsl(0.0,100%,35%)" stroke-width="0.00250"></path>
<path d="M0.887 0.618 Q0.510 0.557 0.309 0.728" stroke="hsl(0.0,100%,35%)" stroke-width="0.00450"></path>
<path d="M1.563 0.623 Q1.229 0.485 0.887 0.618" stroke="hsl(0.0,100%,35%)" stroke-width="0.02102"></path>
<path d="M1.563 0.623 Q1.523 0.437 1.151 0.415" stroke="hsl(0.0,100%,35%)" stroke-width="0.00250"></path>
<path d="M1.563 0.623 Q1.770 0.443 1.464 0.303" stroke="hsl(0.0,100%,35%)" stroke-width="0.00050"></path>
<path d="M0.571 0.508 Q0.640 0.626 0.887 0.618" stroke="hsl(0.0,100%,35%)" stroke-width="0.05604"></path>
<path d="M0.571 0.508 Q0.935 0.577 1.151 0.415" stroke="hsl(0.0,100%,35%)" stroke-width="0.00050"></path>
<path d="M0.571 0.508 Q1.183 0.460 1.225 0.151" stroke="hsl(0.0,100%,35%)" stroke-width="0.00050"></path>
</g>
<text x="1.262" y="0.694" font-size="0.025121" fill="hsl(0.0,100%,20%)">awscreen</text>
<text x="0.887" y="0.548" font-size="0.140042" fill="hsl(0.0,100%,20%)">thestig</text>
<text x="1.563" y="0.598" font-size="0.050723" fill="hsl(0.0,100%,20%)">dhoss</text>
<text x="1.151" y="0.361" font-size="0.108162" fill="hsl(0.0,100%,20%)">tsepez</text>
<text x="1.464" y="0.300" font-size="0.004927" fill="hsl(0.0,100%,20%)">thomasanderson</text>
<text x="0.571" y="0.481" font-size="0.053062" fill="hsl(0.0,100%,20%)">nigi</text>
<text x="1.225" y="0.147" font-size="0.008533" fill="hsl(0.0,100%,20%)">reed</text>
<text x="1.430" y="0.828" font-size="0.011016" fill="hsl(0.0,100%,20%)">bungeman</text>
<text x="1.255" y="0.828" font-size="0.011016" fill="hsl(0.0,100%,20%)">thakis</text>
<text x="0.739" y="0.669" font-size="0.004927" fill="hsl(0.0,100%,20%)">brucedawson</text>
<text x="0.539" y="0.817" font-size="0.004927" fill="hsl(0.0,100%,20%)">drott</text>
<text x="0.968" y="0.864" font-size="0.006967" fill="hsl(0.0,100%,20%)">rbpotter</text>
<text x="0.662" y="0.797" font-size="0.004927" fill="hsl(0.0,100%,20%)">rharrison</text>
<text x="1.519" y="0.482" font-size="0.033775" fill="hsl(0.0,100%,20%)">hnakashima</text>
<text x="1.568" y="0.775" font-size="0.026984" fill="hsl(0.0,100%,20%)">dsinclair</text>
<text x="1.019" y="0.735" font-size="0.011016" fill="hsl(0.0,100%,20%)">palmer</text>
<text x="0.309" y="0.720" font-size="0.014780" fill="hsl(0.0,100%,20%)">npm</text>
</svg>
