<svg width="4000" height="2000" viewBox="-0.025 -0.025 2.05 1.05" xmlns="http://www.w3.org/2000/svg">
  <style>
    path {
      fill: none;
      stroke-linecap: round;
      stroke-opacity: 0.4;
    }

    text {
      text-anchor: middle;
      alignment-baseline: hanging;
    }
  </style>
  <g opacity="0.4">
<path d="M1.635 0.152 Q1.513 0.156 1.493 0.216" stroke="hsl(0.0,100%,35%)" stroke-width="0.00821"></path>
<path d="M1.635 0.152 Q1.203 0.201 1.202 0.422" stroke="hsl(0.0,100%,35%)" stroke-width="0.00259"></path>
<path d="M1.635 0.152 Q1.219 -0.012 0.807 0.155" stroke="hsl(0.0,100%,35%)" stroke-width="0.00231"></path>
<path d="M1.635 0.152 Q0.925 0.460 1.370 0.874" stroke="hsl(0.0,100%,35%)" stroke-width="0.00014"></path>
<path d="M1.635 0.152 Q0.790 0.177 0.653 0.595" stroke="hsl(0.0,100%,35%)" stroke-width="0.00187"></path>
<path d="M1.635 0.152 Q1.459 0.061 1.243 0.127" stroke="hsl(0.0,100%,35%)" stroke-width="0.00288"></path>
<path d="M1.635 0.152 Q0.786 0.279 0.846 0.721" stroke="hsl(0.0,100%,35%)" stroke-width="0.00014"></path>
<path d="M1.635 0.152 Q1.149 0.107 0.954 0.335" stroke="hsl(0.0,100%,35%)" stroke-width="0.00173"></path>
<path d="M1.635 0.152 Q0.954 0.146 0.793 0.477" stroke="hsl(0.0,100%,35%)" stroke-width="0.00058"></path>
<path d="M1.635 0.152 Q1.362 0.150 1.299 0.283" stroke="hsl(0.0,100%,35%)" stroke-width="0.00144"></path>
<path d="M1.635 0.152 Q0.503 0.352 0.645 0.948" stroke="hsl(0.0,100%,35%)" stroke-width="0.00014"></path>
<path d="M1.635 0.152 Q0.968 0.006 0.537 0.299" stroke="hsl(0.0,100%,35%)" stroke-width="0.00014"></path>
<path d="M1.635 0.152 Q1.256 0.336 1.532 0.561" stroke="hsl(0.0,100%,35%)" stroke-width="0.00014"></path>
<path d="M1.635 0.152 Q1.466 0.002 1.135 0.051" stroke="hsl(0.0,100%,35%)" stroke-width="0.00014"></path>
<path d="M1.493 0.216 Q1.439 0.122 1.243 0.127" stroke="hsl(0.0,100%,35%)" stroke-width="0.09264"></path>
<path d="M1.493 0.216 Q0.905 0.521 1.370 0.874" stroke="hsl(0.0,100%,35%)" stroke-width="0.00591"></path>
<path d="M1.493 0.216 Q0.770 0.238 0.653 0.595" stroke="hsl(0.0,100%,35%)" stroke-width="0.00490"></path>
<path d="M1.493 0.216 Q1.039 0.088 0.689 0.281" stroke="hsl(0.0,100%,35%)" stroke-width="0.00043"></path>
<path d="M1.493 0.216 Q0.887 0.416 1.144 0.755" stroke="hsl(0.0,100%,35%)" stroke-width="0.00922"></path>
<path d="M1.493 0.216 Q1.615 0.212 1.635 0.152" stroke="hsl(0.0,100%,35%)" stroke-width="0.02075"></path>
<path d="M1.493 0.216 Q1.183 0.261 1.202 0.422" stroke="hsl(0.0,100%,35%)" stroke-width="0.00663"></path>
<path d="M1.493 0.216 Q1.199 0.048 0.807 0.155" stroke="hsl(0.0,100%,35%)" stroke-width="0.00461"></path>
<path d="M1.493 0.216 Q1.129 0.168 0.954 0.335" stroke="hsl(0.0,100%,35%)" stroke-width="0.00245"></path>
<path d="M1.493 0.216 Q1.236 0.396 1.532 0.561" stroke="hsl(0.0,100%,35%)" stroke-width="0.00086"></path>
<path d="M1.493 0.216 Q1.238 0.156 1.066 0.268" stroke="hsl(0.0,100%,35%)" stroke-width="0.00014"></path>
<path d="M1.493 0.216 Q0.830 0.006 0.275 0.283" stroke="hsl(0.0,100%,35%)" stroke-width="0.00086"></path>
<path d="M1.493 0.216 Q1.342 0.211 1.299 0.283" stroke="hsl(0.0,100%,35%)" stroke-width="0.00245"></path>
<path d="M1.493 0.216 Q0.456 0.217 0.230 0.723" stroke="hsl(0.0,100%,35%)" stroke-width="0.00086"></path>
<path d="M1.493 0.216 Q0.949 0.066 0.537 0.299" stroke="hsl(0.0,100%,35%)" stroke-width="0.00014"></path>
<path d="M1.493 0.216 Q0.610 0.359 0.695 0.821" stroke="hsl(0.0,100%,35%)" stroke-width="0.00014"></path>
<path d="M1.493 0.216 Q0.934 0.206 0.793 0.477" stroke="hsl(0.0,100%,35%)" stroke-width="0.00130"></path>
<path d="M1.493 0.216 Q0.832 0.306 0.862 0.648" stroke="hsl(0.0,100%,35%)" stroke-width="0.00014"></path>
<path d="M1.493 0.216 Q0.766 0.339 0.846 0.721" stroke="hsl(0.0,100%,35%)" stroke-width="0.00130"></path>
<path d="M1.493 0.216 Q0.643 0.278 0.578 0.707" stroke="hsl(0.0,100%,35%)" stroke-width="0.00014"></path>
<path d="M1.493 0.216 Q0.915 0.335 1.022 0.643" stroke="hsl(0.0,100%,35%)" stroke-width="0.00029"></path>
<path d="M1.493 0.216 Q0.307 0.288 0.186 0.882" stroke="hsl(0.0,100%,35%)" stroke-width="0.00029"></path>
<path d="M1.493 0.216 Q0.483 0.412 0.645 0.948" stroke="hsl(0.0,100%,35%)" stroke-width="0.00086"></path>
<path d="M1.493 0.216 Q1.446 0.062 1.135 0.051" stroke="hsl(0.0,100%,35%)" stroke-width="0.00346"></path>
<path d="M1.493 0.216 Q1.031 0.296 1.086 0.539" stroke="hsl(0.0,100%,35%)" stroke-width="0.00014"></path>
<path d="M1.202 0.422 Q0.789 0.399 0.653 0.595" stroke="hsl(0.0,100%,35%)" stroke-width="0.00202"></path>
<path d="M1.202 0.422 Q1.459 0.283 1.243 0.127" stroke="hsl(0.0,100%,35%)" stroke-width="0.00447"></path>
<path d="M1.202 0.422 Q1.635 0.374 1.635 0.152" stroke="hsl(0.0,100%,35%)" stroke-width="0.00072"></path>
<path d="M1.202 0.422 Q0.907 0.577 1.144 0.755" stroke="hsl(0.0,100%,35%)" stroke-width="0.00677"></path>
<path d="M1.202 0.422 Q1.219 0.210 0.807 0.155" stroke="hsl(0.0,100%,35%)" stroke-width="0.00792"></path>
<path d="M1.202 0.422 Q0.503 0.574 0.645 0.948" stroke="hsl(0.0,100%,35%)" stroke-width="0.00086"></path>
<path d="M1.202 0.422 Q0.785 0.500 0.846 0.721" stroke="hsl(0.0,100%,35%)" stroke-width="0.00144"></path>
<path d="M1.202 0.422 Q1.148 0.329 0.954 0.335" stroke="hsl(0.0,100%,35%)" stroke-width="0.00389"></path>
<path d="M1.202 0.422 Q1.362 0.372 1.299 0.283" stroke="hsl(0.0,100%,35%)" stroke-width="0.00158"></path>
<path d="M1.202 0.422 Q1.513 0.377 1.493 0.216" stroke="hsl(0.0,100%,35%)" stroke-width="0.00072"></path>
<path d="M1.202 0.422 Q0.475 0.378 0.230 0.723" stroke="hsl(0.0,100%,35%)" stroke-width="0.00014"></path>
<path d="M1.202 0.422 Q1.035 0.404 0.964 0.482" stroke="hsl(0.0,100%,35%)" stroke-width="0.00014"></path>
<path d="M1.202 0.422 Q0.925 0.682 1.370 0.874" stroke="hsl(0.0,100%,35%)" stroke-width="0.00058"></path>
<path d="M1.202 0.422 Q0.968 0.227 0.537 0.299" stroke="hsl(0.0,100%,35%)" stroke-width="0.00014"></path>
<path d="M1.202 0.422 Q0.326 0.449 0.186 0.882" stroke="hsl(0.0,100%,35%)" stroke-width="0.00014"></path>
<path d="M0.807 0.155 Q0.092 0.519 0.645 0.948" stroke="hsl(0.0,100%,35%)" stroke-width="0.00086"></path>
<path d="M0.807 0.155 Q0.496 0.522 1.144 0.755" stroke="hsl(0.0,100%,35%)" stroke-width="0.00591"></path>
<path d="M0.807 0.155 Q0.737 0.274 0.954 0.335" stroke="hsl(0.0,100%,35%)" stroke-width="0.00850"></path>
<path d="M0.807 0.155 Q1.101 0.323 1.493 0.216" stroke="hsl(0.0,100%,35%)" stroke-width="0.00130"></path>
<path d="M0.807 0.155 Q0.791 0.368 1.202 0.422" stroke="hsl(0.0,100%,35%)" stroke-width="0.00576"></path>
<path d="M0.807 0.155 Q1.048 0.228 1.243 0.127" stroke="hsl(0.0,100%,35%)" stroke-width="0.00216"></path>
<path d="M0.807 0.155 Q0.064 0.323 0.230 0.723" stroke="hsl(0.0,100%,35%)" stroke-width="0.00029"></path>
<path d="M0.807 0.155 Q0.513 0.627 1.370 0.874" stroke="hsl(0.0,100%,35%)" stroke-width="0.00461"></path>
<path d="M0.807 0.155 Q0.374 0.445 0.846 0.721" stroke="hsl(0.0,100%,35%)" stroke-width="0.00086"></path>
<path d="M0.807 0.155 Q0.378 0.344 0.653 0.595" stroke="hsl(0.0,100%,35%)" stroke-width="0.00115"></path>
<path d="M0.807 0.155 Q0.647 0.194 0.689 0.281" stroke="hsl(0.0,100%,35%)" stroke-width="0.00029"></path>
<path d="M0.807 0.155 Q0.847 0.263 1.066 0.268" stroke="hsl(0.0,100%,35%)" stroke-width="0.00014"></path>
<path d="M0.807 0.155 Q0.950 0.317 1.299 0.283" stroke="hsl(0.0,100%,35%)" stroke-width="0.00187"></path>
<path d="M0.807 0.155 Q0.557 0.173 0.537 0.299" stroke="hsl(0.0,100%,35%)" stroke-width="0.00014"></path>
<path d="M0.807 0.155 Q1.223 0.319 1.635 0.152" stroke="hsl(0.0,100%,35%)" stroke-width="0.00029"></path>
<path d="M0.807 0.155 Q0.639 0.403 1.086 0.539" stroke="hsl(0.0,100%,35%)" stroke-width="0.00014"></path>
<path d="M0.807 0.155 Q0.543 0.313 0.793 0.477" stroke="hsl(0.0,100%,35%)" stroke-width="0.00029"></path>
<path d="M1.370 0.874 Q1.235 0.591 0.653 0.595" stroke="hsl(0.0,100%,35%)" stroke-width="0.00216"></path>
<path d="M1.370 0.874 Q1.905 0.475 1.243 0.127" stroke="hsl(0.0,100%,35%)" stroke-width="0.00792"></path>
<path d="M1.370 0.874 Q1.353 0.769 1.144 0.755" stroke="hsl(0.0,100%,35%)" stroke-width="0.02925"></path>
<path d="M1.370 0.874 Q1.400 0.560 0.793 0.477" stroke="hsl(0.0,100%,35%)" stroke-width="0.00403"></path>
<path d="M1.370 0.874 Q0.772 0.641 0.186 0.882" stroke="hsl(0.0,100%,35%)" stroke-width="0.00014"></path>
<path d="M1.370 0.874 Q1.958 0.570 1.493 0.216" stroke="hsl(0.0,100%,35%)" stroke-width="0.01081"></path>
<path d="M1.370 0.874 Q1.665 0.402 0.807 0.155" stroke="hsl(0.0,100%,35%)" stroke-width="0.00403"></path>
<path d="M1.370 0.874 Q1.807 0.564 1.299 0.283" stroke="hsl(0.0,100%,35%)" stroke-width="0.00058"></path>
<path d="M1.370 0.874 Q1.504 0.442 0.689 0.281" stroke="hsl(0.0,100%,35%)" stroke-width="0.00029"></path>
<path d="M1.370 0.874 Q1.594 0.521 0.954 0.335" stroke="hsl(0.0,100%,35%)" stroke-width="0.00058"></path>
<path d="M1.370 0.874 Q1.648 0.615 1.202 0.422" stroke="hsl(0.0,100%,35%)" stroke-width="0.00072"></path>
<path d="M1.370 0.874 Q0.921 0.571 0.230 0.723" stroke="hsl(0.0,100%,35%)" stroke-width="0.00029"></path>
<path d="M1.370 0.874 Q2.081 0.566 1.635 0.152" stroke="hsl(0.0,100%,35%)" stroke-width="0.00014"></path>
<path d="M0.653 0.595 Q0.818 0.564 0.793 0.477" stroke="hsl(180.0,100%,35%)" stroke-width="0.02046"></path>
<path d="M0.653 0.595 Q1.323 0.479 1.243 0.127" stroke="hsl(180.0,100%,35%)" stroke-width="0.01326"></path>
<path d="M0.653 0.595 Q1.066 0.618 1.202 0.422" stroke="hsl(180.0,100%,35%)" stroke-width="0.00706"></path>
<path d="M0.653 0.595 Q1.012 0.525 0.954 0.335" stroke="hsl(180.0,100%,35%)" stroke-width="0.00259"></path>
<path d="M0.653 0.595 Q1.376 0.573 1.493 0.216" stroke="hsl(180.0,100%,35%)" stroke-width="0.00749"></path>
<path d="M0.653 0.595 Q0.715 0.664 0.862 0.648" stroke="hsl(180.0,100%,35%)" stroke-width="0.00086"></path>
<path d="M0.653 0.595 Q0.339 0.574 0.230 0.723" stroke="hsl(180.0,100%,35%)" stroke-width="0.00231"></path>
<path d="M0.653 0.595 Q0.832 0.424 0.537 0.299" stroke="hsl(180.0,100%,35%)" stroke-width="0.00706"></path>
<path d="M0.653 0.595 Q0.788 0.878 1.370 0.874" stroke="hsl(180.0,100%,35%)" stroke-width="0.00432"></path>
<path d="M0.653 0.595 Q1.082 0.406 0.807 0.155" stroke="hsl(180.0,100%,35%)" stroke-width="0.00144"></path>
<path d="M0.653 0.595 Q0.366 0.770 0.645 0.948" stroke="hsl(180.0,100%,35%)" stroke-width="0.00014"></path>
<path d="M0.653 0.595 Q0.899 0.601 0.964 0.482" stroke="hsl(180.0,100%,35%)" stroke-width="0.00216"></path>
<path d="M0.653 0.595 Q0.649 0.696 0.846 0.721" stroke="hsl(180.0,100%,35%)" stroke-width="0.00058"></path>
<path d="M0.653 0.595 Q1.498 0.570 1.635 0.152" stroke="hsl(180.0,100%,35%)" stroke-width="0.00101"></path>
<path d="M0.653 0.595 Q0.714 0.363 0.275 0.283" stroke="hsl(180.0,100%,35%)" stroke-width="0.00475"></path>
<path d="M0.653 0.595 Q0.526 0.636 0.578 0.707" stroke="hsl(180.0,100%,35%)" stroke-width="0.00058"></path>
<path d="M0.653 0.595 Q1.225 0.568 1.299 0.283" stroke="hsl(180.0,100%,35%)" stroke-width="0.00259"></path>
<path d="M0.653 0.595 Q0.509 0.492 0.277 0.540" stroke="hsl(180.0,100%,35%)" stroke-width="0.00375"></path>
<path d="M0.653 0.595 Q1.119 0.754 1.532 0.561" stroke="hsl(180.0,100%,35%)" stroke-width="0.00115"></path>
<path d="M0.653 0.595 Q1.297 0.648 1.540 0.345" stroke="hsl(180.0,100%,35%)" stroke-width="0.00014"></path>
<path d="M0.653 0.595 Q0.493 0.717 0.695 0.821" stroke="hsl(180.0,100%,35%)" stroke-width="0.00144"></path>
<path d="M0.653 0.595 Q0.770 0.773 1.144 0.755" stroke="hsl(180.0,100%,35%)" stroke-width="0.00115"></path>
<path d="M0.653 0.595 Q0.922 0.445 0.689 0.281" stroke="hsl(180.0,100%,35%)" stroke-width="0.00432"></path>
<path d="M0.653 0.595 Q0.914 0.654 1.086 0.539" stroke="hsl(180.0,100%,35%)" stroke-width="0.00058"></path>
<path d="M0.653 0.595 Q0.799 0.693 1.022 0.643" stroke="hsl(180.0,100%,35%)" stroke-width="0.00043"></path>
<path d="M0.653 0.595 Q0.190 0.645 0.186 0.882" stroke="hsl(180.0,100%,35%)" stroke-width="0.00346"></path>
<path d="M0.653 0.595 Q0.833 0.490 0.668 0.379" stroke="hsl(180.0,100%,35%)" stroke-width="0.00043"></path>
<path d="M0.653 0.595 Q1.122 0.514 1.066 0.268" stroke="hsl(180.0,100%,35%)" stroke-width="0.00043"></path>
<path d="M1.243 0.127 Q0.636 0.312 0.862 0.648" stroke="hsl(0.0,100%,35%)" stroke-width="0.00014"></path>
<path d="M1.243 0.127 Q0.709 0.526 1.370 0.874" stroke="hsl(0.0,100%,35%)" stroke-width="0.00475"></path>
<path d="M1.243 0.127 Q1.297 0.222 1.493 0.216" stroke="hsl(0.0,100%,35%)" stroke-width="0.01023"></path>
<path d="M1.243 0.127 Q1.003 0.054 0.807 0.155" stroke="hsl(0.0,100%,35%)" stroke-width="0.00115"></path>
<path d="M1.243 0.127 Q1.261 0.268 1.540 0.291" stroke="hsl(0.0,100%,35%)" stroke-width="0.00043"></path>
<path d="M1.243 0.127 Q0.987 0.267 1.202 0.422" stroke="hsl(0.0,100%,35%)" stroke-width="0.00418"></path>
<path d="M1.243 0.127 Q0.691 0.421 1.144 0.755" stroke="hsl(0.0,100%,35%)" stroke-width="0.00173"></path>
<path d="M1.243 0.127 Q0.574 0.243 0.653 0.595" stroke="hsl(0.0,100%,35%)" stroke-width="0.00259"></path>
<path d="M1.243 0.127 Q0.739 0.212 0.793 0.477" stroke="hsl(0.0,100%,35%)" stroke-width="0.00245"></path>
<path d="M1.243 0.127 Q0.820 0.249 0.964 0.482" stroke="hsl(0.0,100%,35%)" stroke-width="0.00043"></path>
<path d="M1.243 0.127 Q0.635 0.011 0.275 0.283" stroke="hsl(0.0,100%,35%)" stroke-width="0.00014"></path>
<path d="M1.243 0.127 Q1.146 0.216 1.299 0.283" stroke="hsl(0.0,100%,35%)" stroke-width="0.00288"></path>
<path d="M1.243 0.127 Q1.217 0.296 1.540 0.345" stroke="hsl(0.0,100%,35%)" stroke-width="0.00029"></path>
<path d="M1.243 0.127 Q0.933 0.173 0.954 0.335" stroke="hsl(0.0,100%,35%)" stroke-width="0.00115"></path>
<path d="M1.243 0.127 Q0.260 0.222 0.230 0.723" stroke="hsl(0.0,100%,35%)" stroke-width="0.00014"></path>
<path d="M1.243 0.127 Q1.040 0.402 1.532 0.561" stroke="hsl(0.0,100%,35%)" stroke-width="0.00029"></path>
<path d="M1.243 0.127 Q1.419 0.218 1.635 0.152" stroke="hsl(0.0,100%,35%)" stroke-width="0.00072"></path>
<path d="M1.243 0.127 Q0.843 0.093 0.689 0.281" stroke="hsl(0.0,100%,35%)" stroke-width="0.00072"></path>
<path d="M1.243 0.127 Q0.111 0.293 0.186 0.882" stroke="hsl(0.0,100%,35%)" stroke-width="0.00014"></path>
<path d="M1.243 0.127 Q1.250 0.068 1.135 0.051" stroke="hsl(0.0,100%,35%)" stroke-width="0.00014"></path>
<path d="M0.846 0.721 Q1.573 0.598 1.493 0.216" stroke="hsl(0.0,100%,35%)" stroke-width="0.00115"></path>
<path d="M0.846 0.721 Q0.967 0.797 1.144 0.755" stroke="hsl(0.0,100%,35%)" stroke-width="0.00101"></path>
<path d="M0.846 0.721 Q1.209 0.549 0.954 0.335" stroke="hsl(0.0,100%,35%)" stroke-width="0.00187"></path>
<path d="M0.846 0.721 Q1.279 0.430 0.807 0.155" stroke="hsl(0.0,100%,35%)" stroke-width="0.00101"></path>
<path d="M0.846 0.721 Q0.912 0.688 0.862 0.648" stroke="hsl(0.0,100%,35%)" stroke-width="0.00014"></path>
<path d="M0.846 0.721 Q1.029 0.448 0.537 0.299" stroke="hsl(0.0,100%,35%)" stroke-width="0.00014"></path>
<path d="M0.846 0.721 Q1.263 0.643 1.202 0.422" stroke="hsl(0.0,100%,35%)" stroke-width="0.00158"></path>
<path d="M0.846 0.721 Q1.519 0.503 1.243 0.127" stroke="hsl(0.0,100%,35%)" stroke-width="0.00014"></path>
<path d="M0.846 0.721 Q0.850 0.619 0.653 0.595" stroke="hsl(0.0,100%,35%)" stroke-width="0.00043"></path>
<path d="M0.846 0.721 Q0.387 0.669 0.186 0.882" stroke="hsl(0.0,100%,35%)" stroke-width="0.00014"></path>
<path d="M0.954 0.335 Q1.025 0.215 0.807 0.155" stroke="hsl(0.0,100%,35%)" stroke-width="0.00461"></path>
<path d="M0.954 0.335 Q0.309 0.580 0.645 0.948" stroke="hsl(0.0,100%,35%)" stroke-width="0.00058"></path>
<path d="M0.954 0.335 Q0.713 0.583 1.144 0.755" stroke="hsl(0.0,100%,35%)" stroke-width="0.00274"></path>
<path d="M0.954 0.335 Q1.282 0.430 1.540 0.291" stroke="hsl(0.0,100%,35%)" stroke-width="0.00014"></path>
<path d="M0.954 0.335 Q0.591 0.506 0.846 0.721" stroke="hsl(0.0,100%,35%)" stroke-width="0.00259"></path>
<path d="M0.954 0.335 Q1.168 0.378 1.299 0.283" stroke="hsl(0.0,100%,35%)" stroke-width="0.00187"></path>
<path d="M0.954 0.335 Q1.265 0.289 1.243 0.127" stroke="hsl(0.0,100%,35%)" stroke-width="0.00043"></path>
<path d="M0.954 0.335 Q1.009 0.428 1.202 0.422" stroke="hsl(0.0,100%,35%)" stroke-width="0.00259"></path>
<path d="M0.954 0.335 Q1.319 0.383 1.493 0.216" stroke="hsl(0.0,100%,35%)" stroke-width="0.00014"></path>
<path d="M0.954 0.335 Q0.731 0.688 1.370 0.874" stroke="hsl(0.0,100%,35%)" stroke-width="0.00014"></path>
<path d="M0.954 0.335 Q0.864 0.255 0.689 0.281" stroke="hsl(0.0,100%,35%)" stroke-width="0.00014"></path>
<path d="M0.954 0.335 Q0.596 0.405 0.653 0.595" stroke="hsl(0.0,100%,35%)" stroke-width="0.00072"></path>
<path d="M0.954 0.335 Q0.656 0.173 0.275 0.283" stroke="hsl(0.0,100%,35%)" stroke-width="0.00029"></path>
<path d="M0.954 0.335 Q0.856 0.463 1.086 0.539" stroke="hsl(0.0,100%,35%)" stroke-width="0.00014"></path>
<path d="M0.954 0.335 Q0.774 0.233 0.537 0.299" stroke="hsl(0.0,100%,35%)" stroke-width="0.00014"></path>
<path d="M0.954 0.335 Q0.841 0.410 0.964 0.482" stroke="hsl(0.0,100%,35%)" stroke-width="0.00014"></path>
<path d="M0.793 0.477 Q0.314 0.487 0.230 0.723" stroke="hsl(180.0,100%,35%)" stroke-width="0.00144"></path>
<path d="M0.793 0.477 Q1.298 0.392 1.243 0.127" stroke="hsl(180.0,100%,35%)" stroke-width="0.00187"></path>
<path d="M0.793 0.477 Q0.763 0.791 1.370 0.874" stroke="hsl(180.0,100%,35%)" stroke-width="0.00720"></path>
<path d="M0.793 0.477 Q0.628 0.508 0.653 0.595" stroke="hsl(180.0,100%,35%)" stroke-width="0.00259"></path>
<path d="M0.793 0.477 Q0.697 0.603 0.924 0.678" stroke="hsl(180.0,100%,35%)" stroke-width="0.00014"></path>
<path d="M0.793 0.477 Q1.351 0.486 1.493 0.216" stroke="hsl(180.0,100%,35%)" stroke-width="0.00043"></path>
<path d="M0.793 0.477 Q1.094 0.667 1.532 0.561" stroke="hsl(180.0,100%,35%)" stroke-width="0.00014"></path>
<path d="M0.793 0.477 Q1.200 0.481 1.299 0.283" stroke="hsl(180.0,100%,35%)" stroke-width="0.00014"></path>
<path d="M0.793 0.477 Q0.807 0.336 0.537 0.299" stroke="hsl(180.0,100%,35%)" stroke-width="0.00029"></path>
<path d="M0.793 0.477 Q0.987 0.438 0.954 0.335" stroke="hsl(180.0,100%,35%)" stroke-width="0.00043"></path>
<path d="M0.793 0.477 Q0.746 0.686 1.144 0.755" stroke="hsl(180.0,100%,35%)" stroke-width="0.00014"></path>
<path d="M0.793 0.477 Q1.041 0.531 1.202 0.422" stroke="hsl(180.0,100%,35%)" stroke-width="0.00014"></path>
<path d="M0.793 0.477 Q0.889 0.567 1.086 0.539" stroke="hsl(180.0,100%,35%)" stroke-width="0.00072"></path>
<path d="M0.793 0.477 Q0.689 0.276 0.275 0.283" stroke="hsl(180.0,100%,35%)" stroke-width="0.00014"></path>
<path d="M1.299 0.283 Q0.412 0.289 0.230 0.723" stroke="hsl(0.0,100%,35%)" stroke-width="0.00173"></path>
<path d="M1.299 0.283 Q1.396 0.194 1.243 0.127" stroke="hsl(0.0,100%,35%)" stroke-width="0.00749"></path>
<path d="M1.299 0.283 Q1.450 0.289 1.493 0.216" stroke="hsl(0.0,100%,35%)" stroke-width="0.00115"></path>
<path d="M1.299 0.283 Q1.139 0.334 1.202 0.422" stroke="hsl(0.0,100%,35%)" stroke-width="0.00187"></path>
<path d="M1.299 0.283 Q0.862 0.593 1.370 0.874" stroke="hsl(0.0,100%,35%)" stroke-width="0.00144"></path>
<path d="M1.299 0.283 Q0.844 0.488 1.144 0.755" stroke="hsl(0.0,100%,35%)" stroke-width="0.00317"></path>
<path d="M1.299 0.283 Q0.972 0.316 0.964 0.482" stroke="hsl(0.0,100%,35%)" stroke-width="0.00043"></path>
<path d="M1.299 0.283 Q1.085 0.240 0.954 0.335" stroke="hsl(0.0,100%,35%)" stroke-width="0.00475"></path>
<path d="M1.299 0.283 Q1.156 0.121 0.807 0.155" stroke="hsl(0.0,100%,35%)" stroke-width="0.00115"></path>
<path d="M1.299 0.283 Q0.726 0.310 0.653 0.595" stroke="hsl(0.0,100%,35%)" stroke-width="0.00029"></path>
<path d="M1.299 0.283 Q1.572 0.285 1.635 0.152" stroke="hsl(0.0,100%,35%)" stroke-width="0.00029"></path>
<path d="M1.299 0.283 Q0.891 0.279 0.793 0.477" stroke="hsl(0.0,100%,35%)" stroke-width="0.00014"></path>
<path d="M1.299 0.283 Q0.995 0.160 0.689 0.281" stroke="hsl(0.0,100%,35%)" stroke-width="0.00014"></path>
<path d="M0.645 0.948 Q1.290 0.703 0.954 0.335" stroke="hsl(0.0,100%,35%)" stroke-width="0.00231"></path>
<path d="M0.645 0.948 Q1.344 0.797 1.202 0.422" stroke="hsl(0.0,100%,35%)" stroke-width="0.00187"></path>
<path d="M0.645 0.948 Q1.655 0.752 1.493 0.216" stroke="hsl(0.0,100%,35%)" stroke-width="0.00086"></path>
<path d="M0.645 0.948 Q0.927 0.875 0.846 0.721" stroke="hsl(0.0,100%,35%)" stroke-width="0.00029"></path>
<path d="M0.645 0.948 Q1.096 0.742 0.793 0.477" stroke="hsl(0.0,100%,35%)" stroke-width="0.00014"></path>
<path d="M0.645 0.948 Q1.049 0.951 1.144 0.755" stroke="hsl(0.0,100%,35%)" stroke-width="0.00245"></path>
<path d="M0.645 0.948 Q1.361 0.584 0.807 0.155" stroke="hsl(0.0,100%,35%)" stroke-width="0.00086"></path>
<path d="M0.645 0.948 Q1.601 0.657 1.243 0.127" stroke="hsl(0.0,100%,35%)" stroke-width="0.00029"></path>
<path d="M0.645 0.948 Q0.931 0.773 0.653 0.595" stroke="hsl(0.0,100%,35%)" stroke-width="0.00101"></path>
<path d="M0.645 0.948 Q0.992 0.541 0.275 0.283" stroke="hsl(0.0,100%,35%)" stroke-width="0.00014"></path>
<path d="M0.537 0.299 Q0.418 0.238 0.275 0.283" stroke="hsl(180.0,100%,35%)" stroke-width="0.00043"></path>
<path d="M0.537 0.299 Q0.358 0.470 0.653 0.595" stroke="hsl(180.0,100%,35%)" stroke-width="0.00058"></path>
<path d="M0.537 0.299 Q0.627 0.321 0.689 0.281" stroke="hsl(180.0,100%,35%)" stroke-width="0.00058"></path>
<path d="M0.537 0.299 Q0.493 0.753 1.370 0.874" stroke="hsl(180.0,100%,35%)" stroke-width="0.00014"></path>
<path d="M0.537 0.299 Q0.930 0.443 1.299 0.283" stroke="hsl(180.0,100%,35%)" stroke-width="0.00014"></path>
<path d="M0.537 0.299 Q0.475 0.648 1.144 0.755" stroke="hsl(180.0,100%,35%)" stroke-width="0.00014"></path>
<path d="M1.532 0.561 Q1.478 0.426 1.202 0.422" stroke="hsl(180.0,100%,35%)" stroke-width="0.00014"></path>
<path d="M1.532 0.561 Q1.735 0.287 1.243 0.127" stroke="hsl(180.0,100%,35%)" stroke-width="0.00043"></path>
<path d="M1.532 0.561 Q1.230 0.371 0.793 0.477" stroke="hsl(180.0,100%,35%)" stroke-width="0.00475"></path>
<path d="M1.532 0.561 Q1.065 0.403 0.653 0.595" stroke="hsl(180.0,100%,35%)" stroke-width="0.00072"></path>
<path d="M1.532 0.561 Q1.183 0.581 1.144 0.755" stroke="hsl(180.0,100%,35%)" stroke-width="0.00029"></path>
<path d="M1.532 0.561 Q1.495 0.213 0.807 0.155" stroke="hsl(180.0,100%,35%)" stroke-width="0.00014"></path>
<path d="M1.532 0.561 Q1.201 0.686 1.370 0.874" stroke="hsl(180.0,100%,35%)" stroke-width="0.00014"></path>
<path d="M1.135 0.051 Q1.182 0.205 1.493 0.216" stroke="hsl(0.0,100%,35%)" stroke-width="0.00288"></path>
<path d="M1.135 0.051 Q1.305 0.202 1.635 0.152" stroke="hsl(0.0,100%,35%)" stroke-width="0.00029"></path>
<path d="M1.135 0.051 Q1.129 0.111 1.243 0.127" stroke="hsl(0.0,100%,35%)" stroke-width="0.00259"></path>
<path d="M0.689 0.281 Q1.090 0.315 1.243 0.127" stroke="hsl(180.0,100%,35%)" stroke-width="0.00029"></path>
<path d="M0.689 0.281 Q0.481 0.199 0.275 0.283" stroke="hsl(180.0,100%,35%)" stroke-width="0.00101"></path>
<path d="M0.689 0.281 Q0.420 0.431 0.653 0.595" stroke="hsl(180.0,100%,35%)" stroke-width="0.00058"></path>
<path d="M0.689 0.281 Q0.599 0.260 0.537 0.299" stroke="hsl(180.0,100%,35%)" stroke-width="0.00043"></path>
<path d="M0.689 0.281 Q0.889 0.350 1.066 0.268" stroke="hsl(180.0,100%,35%)" stroke-width="0.00014"></path>
<path d="M0.689 0.281 Q0.681 0.490 1.086 0.539" stroke="hsl(180.0,100%,35%)" stroke-width="0.00014"></path>
<path d="M0.275 0.283 Q0.379 0.483 0.793 0.477" stroke="hsl(180.0,100%,35%)" stroke-width="0.00014"></path>
<path d="M0.275 0.283 Q0.070 0.412 0.277 0.540" stroke="hsl(180.0,100%,35%)" stroke-width="0.00014"></path>
<path d="M0.275 0.283 Q0.483 0.365 0.689 0.281" stroke="hsl(180.0,100%,35%)" stroke-width="0.00130"></path>
<path d="M0.275 0.283 Q0.393 0.343 0.537 0.299" stroke="hsl(180.0,100%,35%)" stroke-width="0.00173"></path>
<path d="M0.275 0.283 Q0.573 0.445 0.954 0.335" stroke="hsl(180.0,100%,35%)" stroke-width="0.00072"></path>
<path d="M0.275 0.283 Q0.214 0.515 0.653 0.595" stroke="hsl(180.0,100%,35%)" stroke-width="0.00058"></path>
<path d="M0.275 0.283 Q0.937 0.493 1.493 0.216" stroke="hsl(180.0,100%,35%)" stroke-width="0.00029"></path>
<path d="M0.275 0.283 Q0.883 0.399 1.243 0.127" stroke="hsl(180.0,100%,35%)" stroke-width="0.00014"></path>
<path d="M1.066 0.268 Q1.092 0.292 1.146 0.285" stroke="hsl(180.0,100%,35%)" stroke-width="0.00014"></path>
<path d="M1.066 0.268 Q0.867 0.199 0.689 0.281" stroke="hsl(180.0,100%,35%)" stroke-width="0.00014"></path>
<path d="M1.086 0.539 Q1.184 0.411 0.954 0.335" stroke="hsl(180.0,100%,35%)" stroke-width="0.00014"></path>
<path d="M1.086 0.539 Q1.070 0.486 0.964 0.482" stroke="hsl(180.0,100%,35%)" stroke-width="0.00101"></path>
<path d="M1.086 0.539 Q1.494 0.365 1.243 0.127" stroke="hsl(180.0,100%,35%)" stroke-width="0.00014"></path>
<path d="M1.086 0.539 Q1.548 0.459 1.493 0.216" stroke="hsl(180.0,100%,35%)" stroke-width="0.00014"></path>
<path d="M0.862 0.648 Q1.470 0.464 1.243 0.127" stroke="hsl(180.0,100%,35%)" stroke-width="0.00058"></path>
<path d="M0.862 0.648 Q1.487 0.605 1.540 0.291" stroke="hsl(180.0,100%,35%)" stroke-width="0.00014"></path>
<path d="M0.862 0.648 Q0.796 0.681 0.846 0.721" stroke="hsl(180.0,100%,35%)" stroke-width="0.00014"></path>
<path d="M0.862 0.648 Q1.046 0.586 0.964 0.482" stroke="hsl(180.0,100%,35%)" stroke-width="0.00029"></path>
<path d="M1.540 0.291 Q1.522 0.150 1.243 0.127" stroke="hsl(0.0,100%,35%)" stroke-width="0.00029"></path>
<path d="M1.540 0.291 Q1.496 0.318 1.540 0.345" stroke="hsl(0.0,100%,35%)" stroke-width="0.00014"></path>
<path d="M1.144 0.755 Q1.750 0.555 1.493 0.216" stroke="hsl(0.0,100%,35%)" stroke-width="0.00216"></path>
<path d="M1.144 0.755 Q1.456 0.388 0.807 0.155" stroke="hsl(0.0,100%,35%)" stroke-width="0.00432"></path>
<path d="M1.144 0.755 Q1.385 0.507 0.954 0.335" stroke="hsl(0.0,100%,35%)" stroke-width="0.01225"></path>
<path d="M1.144 0.755 Q0.740 0.752 0.645 0.948" stroke="hsl(0.0,100%,35%)" stroke-width="0.00360"></path>
<path d="M1.144 0.755 Q1.439 0.600 1.202 0.422" stroke="hsl(0.0,100%,35%)" stroke-width="0.01254"></path>
<path d="M1.144 0.755 Q1.022 0.678 0.846 0.721" stroke="hsl(0.0,100%,35%)" stroke-width="0.00043"></path>
<path d="M1.144 0.755 Q1.696 0.461 1.243 0.127" stroke="hsl(0.0,100%,35%)" stroke-width="0.00216"></path>
<path d="M1.144 0.755 Q1.295 0.427 0.689 0.281" stroke="hsl(0.0,100%,35%)" stroke-width="0.00173"></path>
<path d="M1.144 0.755 Q1.598 0.550 1.299 0.283" stroke="hsl(0.0,100%,35%)" stroke-width="0.00043"></path>
<path d="M1.144 0.755 Q0.712 0.556 0.230 0.723" stroke="hsl(0.0,100%,35%)" stroke-width="0.00029"></path>
<path d="M1.144 0.755 Q1.026 0.577 0.653 0.595" stroke="hsl(0.0,100%,35%)" stroke-width="0.00058"></path>
<path d="M1.144 0.755 Q1.162 0.860 1.370 0.874" stroke="hsl(0.0,100%,35%)" stroke-width="0.00086"></path>
<path d="M1.144 0.755 Q0.899 0.618 0.578 0.707" stroke="hsl(0.0,100%,35%)" stroke-width="0.00014"></path>
<path d="M1.144 0.755 Q1.205 0.405 0.537 0.299" stroke="hsl(0.0,100%,35%)" stroke-width="0.00029"></path>
<path d="M0.964 0.482 Q0.883 0.445 0.793 0.477" stroke="hsl(180.0,100%,35%)" stroke-width="0.00014"></path>
<path d="M0.964 0.482 Q0.780 0.545 0.862 0.648" stroke="hsl(180.0,100%,35%)" stroke-width="0.00029"></path>
<path d="M0.964 0.482 Q0.979 0.535 1.086 0.539" stroke="hsl(180.0,100%,35%)" stroke-width="0.00072"></path>
<path d="M0.964 0.482 Q1.441 0.455 1.493 0.216" stroke="hsl(180.0,100%,35%)" stroke-width="0.00014"></path>
<path d="M0.964 0.482 Q0.835 0.655 1.144 0.755" stroke="hsl(180.0,100%,35%)" stroke-width="0.00014"></path>
<path d="M0.964 0.482 Q1.077 0.407 0.954 0.335" stroke="hsl(180.0,100%,35%)" stroke-width="0.00014"></path>
<path d="M0.964 0.482 Q0.897 0.305 0.537 0.299" stroke="hsl(180.0,100%,35%)" stroke-width="0.00014"></path>
<path d="M0.964 0.482 Q1.387 0.361 1.243 0.127" stroke="hsl(180.0,100%,35%)" stroke-width="0.00029"></path>
<path d="M0.964 0.482 Q0.853 0.760 1.370 0.874" stroke="hsl(180.0,100%,35%)" stroke-width="0.00014"></path>
<path d="M1.540 0.345 Q1.566 0.177 1.243 0.127" stroke="hsl(0.0,100%,35%)" stroke-width="0.00620"></path>
<path d="M1.540 0.345 Q1.584 0.318 1.540 0.291" stroke="hsl(0.0,100%,35%)" stroke-width="0.00014"></path>
<path d="M1.540 0.345 Q1.620 0.271 1.493 0.216" stroke="hsl(0.0,100%,35%)" stroke-width="0.00014"></path>
<path d="M1.540 0.345 Q1.142 0.298 0.964 0.482" stroke="hsl(0.0,100%,35%)" stroke-width="0.00014"></path>
<path d="M1.540 0.345 Q1.032 0.576 1.370 0.874" stroke="hsl(0.0,100%,35%)" stroke-width="0.00014"></path>
<path d="M0.230 0.723 Q0.708 0.712 0.793 0.477" stroke="hsl(180.0,100%,35%)" stroke-width="0.00259"></path>
<path d="M0.230 0.723 Q0.679 1.027 1.370 0.874" stroke="hsl(180.0,100%,35%)" stroke-width="0.00058"></path>
<path d="M0.230 0.723 Q0.081 0.794 0.186 0.882" stroke="hsl(180.0,100%,35%)" stroke-width="0.00389"></path>
<path d="M0.230 0.723 Q1.267 0.722 1.493 0.216" stroke="hsl(180.0,100%,35%)" stroke-width="0.00029"></path>
<path d="M0.230 0.723 Q1.116 0.717 1.299 0.283" stroke="hsl(180.0,100%,35%)" stroke-width="0.00086"></path>
<path d="M0.230 0.723 Q0.544 0.744 0.653 0.595" stroke="hsl(180.0,100%,35%)" stroke-width="0.00072"></path>
<path d="M0.230 0.723 Q0.604 0.512 0.275 0.283" stroke="hsl(180.0,100%,35%)" stroke-width="0.00014"></path>
<path d="M0.230 0.723 Q0.606 0.812 0.862 0.648" stroke="hsl(180.0,100%,35%)" stroke-width="0.00014"></path>
<path d="M0.230 0.723 Q1.010 0.903 1.532 0.561" stroke="hsl(180.0,100%,35%)" stroke-width="0.00029"></path>
<path d="M0.230 0.723 Q0.661 0.922 1.144 0.755" stroke="hsl(180.0,100%,35%)" stroke-width="0.00014"></path>
<path d="M0.230 0.723 Q0.957 0.767 1.202 0.422" stroke="hsl(180.0,100%,35%)" stroke-width="0.00014"></path>
<path d="M0.230 0.723 Q0.257 0.919 0.645 0.948" stroke="hsl(180.0,100%,35%)" stroke-width="0.00014"></path>
<path d="M0.230 0.723 Q1.213 0.628 1.243 0.127" stroke="hsl(180.0,100%,35%)" stroke-width="0.00086"></path>
<path d="M0.230 0.723 Q0.903 0.674 0.954 0.335" stroke="hsl(180.0,100%,35%)" stroke-width="0.00014"></path>
<path d="M0.186 0.882 Q0.335 0.811 0.230 0.723" stroke="hsl(180.0,100%,35%)" stroke-width="0.00259"></path>
<path d="M0.186 0.882 Q0.649 0.832 0.653 0.595" stroke="hsl(180.0,100%,35%)" stroke-width="0.00158"></path>
<path d="M0.186 0.882 Q0.489 0.954 0.695 0.821" stroke="hsl(180.0,100%,35%)" stroke-width="0.00014"></path>
<path d="M0.186 0.882 Q0.895 0.838 0.964 0.482" stroke="hsl(180.0,100%,35%)" stroke-width="0.00086"></path>
<path d="M0.186 0.882 Q0.910 0.891 1.086 0.539" stroke="hsl(180.0,100%,35%)" stroke-width="0.00014"></path>
<path d="M0.186 0.882 Q0.814 0.801 0.793 0.477" stroke="hsl(180.0,100%,35%)" stroke-width="0.00014"></path>
<path d="M0.186 0.882 Q1.372 0.810 1.493 0.216" stroke="hsl(180.0,100%,35%)" stroke-width="0.00029"></path>
<path d="M0.186 0.882 Q1.318 0.716 1.243 0.127" stroke="hsl(180.0,100%,35%)" stroke-width="0.00029"></path>
<path d="M0.186 0.882 Q1.221 0.805 1.299 0.283" stroke="hsl(180.0,100%,35%)" stroke-width="0.00029"></path>
<path d="M0.924 0.678 Q1.019 0.551 0.793 0.477" stroke="hsl(180.0,100%,35%)" stroke-width="0.00403"></path>
<path d="M0.924 0.678 Q0.855 0.582 0.653 0.595" stroke="hsl(180.0,100%,35%)" stroke-width="0.00072"></path>
<path d="M0.924 0.678 Q0.541 0.562 0.230 0.723" stroke="hsl(180.0,100%,35%)" stroke-width="0.00086"></path>
<path d="M0.924 0.678 Q1.427 0.556 1.299 0.283" stroke="hsl(180.0,100%,35%)" stroke-width="0.00029"></path>
<path d="M0.924 0.678 Q0.972 0.760 1.144 0.755" stroke="hsl(180.0,100%,35%)" stroke-width="0.00014"></path>
<path d="M0.695 0.821 Q1.034 0.528 0.537 0.299" stroke="hsl(180.0,100%,35%)" stroke-width="0.00043"></path>
<path d="M0.695 0.821 Q0.855 0.700 0.653 0.595" stroke="hsl(180.0,100%,35%)" stroke-width="0.00864"></path>
<path d="M0.695 0.821 Q0.392 0.750 0.186 0.882" stroke="hsl(180.0,100%,35%)" stroke-width="0.00029"></path>
<path d="M0.695 0.821 Q1.579 0.678 1.493 0.216" stroke="hsl(180.0,100%,35%)" stroke-width="0.00029"></path>
<path d="M0.695 0.821 Q0.973 0.878 1.144 0.755" stroke="hsl(180.0,100%,35%)" stroke-width="0.00014"></path>
<path d="M0.695 0.821 Q1.268 0.723 1.202 0.422" stroke="hsl(180.0,100%,35%)" stroke-width="0.00014"></path>
<path d="M0.695 0.821 Q1.285 0.511 0.807 0.155" stroke="hsl(180.0,100%,35%)" stroke-width="0.00014"></path>
<path d="M0.695 0.821 Q1.214 0.630 0.954 0.335" stroke="hsl(180.0,100%,35%)" stroke-width="0.00014"></path>
<path d="M0.695 0.821 Q1.124 0.550 0.689 0.281" stroke="hsl(180.0,100%,35%)" stroke-width="0.00014"></path>
<path d="M0.440 0.528 Q0.657 0.573 0.793 0.477" stroke="hsl(0.0,100%,35%)" stroke-width="0.00014"></path>
<path d="M0.440 0.528 Q0.851 0.534 0.954 0.335" stroke="hsl(0.0,100%,35%)" stroke-width="0.00014"></path>
<path d="M0.440 0.528 Q0.493 0.604 0.653 0.595" stroke="hsl(0.0,100%,35%)" stroke-width="0.00014"></path>
<path d="M0.668 0.379 Q0.652 0.453 0.793 0.477" stroke="hsl(180.0,100%,35%)" stroke-width="0.00043"></path>
<path d="M0.668 0.379 Q0.488 0.484 0.653 0.595" stroke="hsl(180.0,100%,35%)" stroke-width="0.00043"></path>
<path d="M0.668 0.379 Q0.917 0.295 0.807 0.155" stroke="hsl(180.0,100%,35%)" stroke-width="0.00029"></path>
<path d="M0.668 0.379 Q0.847 0.414 0.954 0.335" stroke="hsl(180.0,100%,35%)" stroke-width="0.00014"></path>
<path d="M0.668 0.379 Q0.956 0.403 1.066 0.268" stroke="hsl(180.0,100%,35%)" stroke-width="0.00014"></path>
<path d="M0.668 0.379 Q0.667 0.313 0.537 0.299" stroke="hsl(180.0,100%,35%)" stroke-width="0.00029"></path>
<path d="M1.146 0.285 Q1.120 0.260 1.066 0.268" stroke="hsl(180.0,100%,35%)" stroke-width="0.00086"></path>
<path d="M1.146 0.285 Q0.920 0.192 0.689 0.281" stroke="hsl(180.0,100%,35%)" stroke-width="0.00029"></path>
<path d="M1.146 0.285 Q1.223 0.315 1.299 0.283" stroke="hsl(180.0,100%,35%)" stroke-width="0.00014"></path>
<path d="M1.146 0.285 Q0.651 0.341 0.653 0.595" stroke="hsl(180.0,100%,35%)" stroke-width="0.00014"></path>
<path d="M0.558 0.409 Q1.126 0.405 1.243 0.127" stroke="hsl(0.0,100%,35%)" stroke-width="0.00043"></path>
<path d="M0.558 0.409 Q0.622 0.490 0.793 0.477" stroke="hsl(0.0,100%,35%)" stroke-width="0.00014"></path>
<path d="M0.558 0.409 Q0.457 0.521 0.653 0.595" stroke="hsl(0.0,100%,35%)" stroke-width="0.00014"></path>
<path d="M0.277 0.540 Q0.482 0.411 0.275 0.283" stroke="hsl(180.0,100%,35%)" stroke-width="0.00101"></path>
<path d="M0.277 0.540 Q0.421 0.643 0.653 0.595" stroke="hsl(180.0,100%,35%)" stroke-width="0.00101"></path>
<path d="M0.277 0.540 Q0.600 0.471 0.537 0.299" stroke="hsl(180.0,100%,35%)" stroke-width="0.00014"></path>
<path d="M0.277 0.540 Q0.690 0.493 0.689 0.281" stroke="hsl(180.0,100%,35%)" stroke-width="0.00014"></path>
<path d="M0.277 0.540 Q0.834 0.666 1.202 0.422" stroke="hsl(180.0,100%,35%)" stroke-width="0.00014"></path>
<path d="M1.337 0.544 Q0.955 0.433 0.653 0.595" stroke="hsl(180.0,100%,35%)" stroke-width="0.00086"></path>
<path d="M1.337 0.544 Q1.527 0.406 1.299 0.283" stroke="hsl(180.0,100%,35%)" stroke-width="0.00014"></path>
<path d="M1.337 0.544 Q1.421 0.592 1.532 0.561" stroke="hsl(180.0,100%,35%)" stroke-width="0.00274"></path>
<path d="M1.337 0.544 Q1.678 0.411 1.493 0.216" stroke="hsl(180.0,100%,35%)" stroke-width="0.00014"></path>
<path d="M1.337 0.544 Q1.119 0.402 0.793 0.477" stroke="hsl(180.0,100%,35%)" stroke-width="0.00043"></path>
<path d="M1.295 0.239 Q1.359 0.173 1.243 0.127" stroke="hsl(0.0,100%,35%)" stroke-width="0.00115"></path>
<path d="M1.295 0.239 Q1.376 0.314 1.540 0.291" stroke="hsl(0.0,100%,35%)" stroke-width="0.00014"></path>
<path d="M1.295 0.239 Q0.935 0.294 0.964 0.482" stroke="hsl(0.0,100%,35%)" stroke-width="0.00014"></path>
<path d="M0.521 0.755 Q1.074 0.632 0.954 0.335" stroke="hsl(0.0,100%,35%)" stroke-width="0.00029"></path>
<path d="M0.521 0.755 Q1.145 0.512 0.807 0.155" stroke="hsl(0.0,100%,35%)" stroke-width="0.00014"></path>
<path d="M0.521 0.755 Q0.711 0.803 0.846 0.721" stroke="hsl(0.0,100%,35%)" stroke-width="0.00086"></path>
<path d="M0.521 0.755 Q1.128 0.725 1.202 0.422" stroke="hsl(0.0,100%,35%)" stroke-width="0.00086"></path>
<path d="M0.390 0.823 Q1.374 0.646 1.243 0.127" stroke="hsl(180.0,100%,35%)" stroke-width="0.00058"></path>
<path d="M0.390 0.823 Q0.390 0.741 0.230 0.723" stroke="hsl(180.0,100%,35%)" stroke-width="0.00130"></path>
<path d="M0.390 0.823 Q0.704 0.762 0.653 0.595" stroke="hsl(180.0,100%,35%)" stroke-width="0.00014"></path>
<path d="M0.390 0.823 Q1.063 0.692 0.954 0.335" stroke="hsl(180.0,100%,35%)" stroke-width="0.00014"></path>
<path d="M0.974 0.531 Q1.176 0.522 1.202 0.422" stroke="hsl(0.0,100%,35%)" stroke-width="0.00058"></path>
<path d="M0.974 0.531 Q1.121 0.429 0.954 0.335" stroke="hsl(0.0,100%,35%)" stroke-width="0.00202"></path>
<path d="M0.974 0.531 Q1.192 0.310 0.807 0.155" stroke="hsl(0.0,100%,35%)" stroke-width="0.00086"></path>
<path d="M0.974 0.531 Q1.432 0.383 1.243 0.127" stroke="hsl(0.0,100%,35%)" stroke-width="0.00014"></path>
<path d="M0.974 0.531 Q1.608 0.474 1.635 0.152" stroke="hsl(0.0,100%,35%)" stroke-width="0.00014"></path>
<path d="M0.974 0.531 Q0.898 0.782 1.370 0.874" stroke="hsl(0.0,100%,35%)" stroke-width="0.00014"></path>
<path d="M1.012 0.594 Q0.545 0.698 0.645 0.948" stroke="hsl(0.0,100%,35%)" stroke-width="0.00014"></path>
<path d="M1.012 0.594 Q1.190 0.453 0.954 0.335" stroke="hsl(0.0,100%,35%)" stroke-width="0.00029"></path>
<path d="M1.012 0.594 Q1.010 0.351 0.537 0.299" stroke="hsl(0.0,100%,35%)" stroke-width="0.00014"></path>
<path d="M1.012 0.594 Q0.687 0.420 0.277 0.540" stroke="hsl(0.0,100%,35%)" stroke-width="0.00014"></path>
</g>
<text x="1.635" y="0.133" font-size="0.038014" fill="hsl(0.0,100%,20%)">armansito</text>
<text x="1.493" y="0.176" font-size="0.080572" fill="hsl(0.0,100%,20%)">johnstiles</text>
<text x="1.202" y="0.397" font-size="0.050033" fill="hsl(0.0,100%,20%)">michaelludwig</text>
<text x="0.807" y="0.132" font-size="0.046390" fill="hsl(0.0,100%,20%)">jvanverth</text>
<text x="1.370" y="0.848" font-size="0.053345" fill="hsl(0.0,100%,20%)">herb</text>
<text x="0.653" y="0.563" font-size="0.064132" fill="hsl(180.0,100%,20%)">kjlubick</text>
<text x="1.243" y="0.089" font-size="0.075530" fill="hsl(0.0,100%,20%)">brianosman</text>
<text x="0.846" y="0.710" font-size="0.022415" fill="hsl(0.0,100%,20%)">nicolettep</text>
<text x="0.954" y="0.313" font-size="0.044582" fill="hsl(0.0,100%,20%)">egdaniel</text>
<text x="0.793" y="0.455" font-size="0.042383" fill="hsl(180.0,100%,20%)">bungeman</text>
<text x="1.299" y="0.265" font-size="0.035909" fill="hsl(0.0,100%,20%)">bsalomon</text>
<text x="0.645" y="0.937" font-size="0.023291" fill="hsl(0.0,100%,20%)">jamesgk</text>
<text x="0.537" y="0.288" font-size="0.020661" fill="hsl(180.0,100%,20%)">rmistry</text>
<text x="1.532" y="0.552" font-size="0.019441" fill="hsl(180.0,100%,20%)">jlavrova</text>
<text x="1.135" y="0.043" font-size="0.017131" fill="hsl(0.0,100%,20%)">ethannicholas</text>
<text x="0.689" y="0.271" font-size="0.020225" fill="hsl(180.0,100%,20%)">borenet</text>
<text x="0.275" y="0.272" font-size="0.020768" fill="hsl(180.0,100%,20%)">jcgregorio</text>
<text x="1.066" y="0.264" font-size="0.008167" fill="hsl(180.0,100%,20%)">hcm</text>
<text x="1.086" y="0.534" font-size="0.011355" fill="hsl(180.0,100%,20%)">djsollen</text>
<text x="0.862" y="0.644" font-size="0.009430" fill="hsl(180.0,100%,20%)">nscobie</text>
<text x="1.540" y="0.287" font-size="0.006668" fill="hsl(0.0,100%,20%)">jreck</text>
<text x="1.144" y="0.726" font-size="0.057284" fill="hsl(0.0,100%,20%)">robertphillips</text>
<text x="0.964" y="0.474" font-size="0.015638" fill="hsl(180.0,100%,20%)">scroggo</text>
<text x="1.540" y="0.338" font-size="0.015059" fill="hsl(0.0,100%,20%)">ccameron</text>
<text x="0.230" y="0.710" font-size="0.026756" fill="hsl(180.0,100%,20%)">fmalita</text>
<text x="0.186" y="0.871" font-size="0.021400" fill="hsl(180.0,100%,20%)">jmbetancourt</text>
<text x="0.924" y="0.671" font-size="0.013827" fill="hsl(180.0,100%,20%)">drott</text>
<text x="0.695" y="0.812" font-size="0.019326" fill="hsl(180.0,100%,20%)">cmumford</text>
<text x="0.440" y="0.526" font-size="0.003652" fill="hsl(0.0,100%,20%)">dnfield</text>
<text x="0.668" y="0.375" font-size="0.008167" fill="hsl(180.0,100%,20%)">erikrose</text>
<text x="1.146" y="0.281" font-size="0.006994" fill="hsl(180.0,100%,20%)">sharaks</text>
<text x="0.558" y="0.407" font-size="0.004715" fill="hsl(0.0,100%,20%)">iapres</text>
<text x="0.277" y="0.533" font-size="0.014145" fill="hsl(180.0,100%,20%)">lovisolo</text>
<text x="0.578" y="0.704" font-size="0.005165" fill="hsl(180.0,100%,20%)">tdenniston</text>
<text x="1.022" y="0.641" font-size="0.004715" fill="hsl(180.0,100%,20%)">wrightgeorge</text>
<text x="1.337" y="0.539" font-size="0.011550" fill="hsl(180.0,100%,20%)">jsimmons</text>
<text x="1.295" y="0.236" font-size="0.006668" fill="hsl(0.0,100%,20%)">kyslov</text>
<text x="0.521" y="0.751" font-size="0.008167" fill="hsl(0.0,100%,20%)">lehoangquyen</text>
<text x="0.390" y="0.819" font-size="0.008167" fill="hsl(180.0,100%,20%)">mike</text>
<text x="0.580" y="-6.009" font-size="0.003652" fill="hsl(0.0,100%,20%)">nathbappai</text>
<text x="0.974" y="0.526" font-size="0.010957" fill="hsl(0.0,100%,20%)">penghuang</text>
<text x="1.012" y="0.591" font-size="0.004715" fill="hsl(0.0,100%,20%)">shuangshuang.zhou</text>
</svg>
