<svg width="4000" height="2000" viewBox="-0.025 -0.025 2.05 1.05" xmlns="http://www.w3.org/2000/svg">
  <style>
    path {
      fill: none;
      stroke-linecap: round;
      stroke-opacity: 0.4;
    }

    text {
      text-anchor: middle;
      alignment-baseline: hanging;
    }
  </style>
  <g opacity="0.4">
<path d="M0.445 0.678 Q0.203 0.785 0.360 0.927" stroke="hsl(0.0,100%,35%)" stroke-width="0.00582"></path>
<path d="M0.445 0.678 Q0.293 0.605 0.118 0.664" stroke="hsl(0.0,100%,35%)" stroke-width="0.01641"></path>
<path d="M0.445 0.678 Q0.408 0.791 0.621 0.835" stroke="hsl(0.0,100%,35%)" stroke-width="0.00045"></path>
<path d="M0.445 0.678 Q0.984 0.941 1.616 0.736" stroke="hsl(0.0,100%,35%)" stroke-width="0.00060"></path>
<path d="M0.445 0.678 Q0.855 0.993 1.559 0.862" stroke="hsl(0.0,100%,35%)" stroke-width="0.00060"></path>
<path d="M0.445 0.678 Q1.223 0.777 1.587 0.419" stroke="hsl(0.0,100%,35%)" stroke-width="0.00060"></path>
<path d="M0.445 0.678 Q0.849 0.607 0.799 0.394" stroke="hsl(0.0,100%,35%)" stroke-width="0.00090"></path>
<path d="M0.445 0.678 Q1.353 0.803 1.796 0.387" stroke="hsl(0.0,100%,35%)" stroke-width="0.00015"></path>
<path d="M0.445 0.678 Q0.775 0.920 1.320 0.812" stroke="hsl(0.0,100%,35%)" stroke-width="0.00015"></path>
<path d="M0.445 0.678 Q1.601 0.653 1.807 0.084" stroke="hsl(0.0,100%,35%)" stroke-width="0.00060"></path>
<path d="M0.445 0.678 Q1.303 0.663 1.462 0.242" stroke="hsl(0.0,100%,35%)" stroke-width="0.00030"></path>
<path d="M0.445 0.678 Q1.205 0.968 1.938 0.661" stroke="hsl(0.0,100%,35%)" stroke-width="0.00030"></path>
<path d="M0.445 0.678 Q0.689 0.666 0.720 0.544" stroke="hsl(0.0,100%,35%)" stroke-width="0.00045"></path>
<path d="M0.445 0.678 Q0.643 1.007 1.329 0.983" stroke="hsl(0.0,100%,35%)" stroke-width="0.00015"></path>
<path d="M0.360 0.927 Q0.800 1.149 1.329 0.983" stroke="hsl(0.0,100%,35%)" stroke-width="0.00090"></path>
<path d="M0.360 0.927 Q0.306 0.843 0.131 0.852" stroke="hsl(0.0,100%,35%)" stroke-width="0.00656"></path>
<path d="M0.360 0.927 Q1.005 0.748 0.799 0.394" stroke="hsl(0.0,100%,35%)" stroke-width="0.00537"></path>
<path d="M0.360 0.927 Q0.564 0.933 0.621 0.835" stroke="hsl(0.0,100%,35%)" stroke-width="0.00075"></path>
<path d="M0.360 0.927 Q0.932 1.061 1.320 0.812" stroke="hsl(0.0,100%,35%)" stroke-width="0.00358"></path>
<path d="M0.360 0.927 Q0.449 0.747 0.118 0.664" stroke="hsl(0.0,100%,35%)" stroke-width="0.01358"></path>
<path d="M0.360 0.927 Q0.743 1.056 1.079 0.898" stroke="hsl(0.0,100%,35%)" stroke-width="0.00045"></path>
<path d="M0.360 0.927 Q1.510 0.944 1.796 0.387" stroke="hsl(0.0,100%,35%)" stroke-width="0.00075"></path>
<path d="M0.360 0.927 Q0.846 0.807 0.720 0.544" stroke="hsl(0.0,100%,35%)" stroke-width="0.01193"></path>
<path d="M0.360 0.927 Q0.602 0.819 0.445 0.678" stroke="hsl(0.0,100%,35%)" stroke-width="0.00179"></path>
<path d="M0.360 0.927 Q0.939 0.667 0.560 0.327" stroke="hsl(0.0,100%,35%)" stroke-width="0.00045"></path>
<path d="M0.360 0.927 Q0.786 0.593 0.228 0.312" stroke="hsl(0.0,100%,35%)" stroke-width="0.00030"></path>
<path d="M0.360 0.927 Q1.672 0.857 1.824 0.202" stroke="hsl(0.0,100%,35%)" stroke-width="0.00030"></path>
<path d="M0.360 0.927 Q1.380 0.918 1.587 0.419" stroke="hsl(0.0,100%,35%)" stroke-width="0.00090"></path>
<path d="M0.360 0.927 Q1.011 1.135 1.559 0.862" stroke="hsl(0.0,100%,35%)" stroke-width="0.00015"></path>
<path d="M0.360 0.927 Q1.459 0.805 1.462 0.242" stroke="hsl(0.0,100%,35%)" stroke-width="0.00015"></path>
<path d="M0.360 0.927 Q1.758 0.795 1.807 0.084" stroke="hsl(0.0,100%,35%)" stroke-width="0.00060"></path>
<path d="M0.360 0.927 Q0.838 0.524 0.157 0.203" stroke="hsl(0.0,100%,35%)" stroke-width="0.00075"></path>
<path d="M0.118 0.664 Q0.029 0.844 0.360 0.927" stroke="hsl(0.0,100%,35%)" stroke-width="0.00716"></path>
<path d="M0.118 0.664 Q0.747 0.510 0.585 0.170" stroke="hsl(0.0,100%,35%)" stroke-width="0.00015"></path>
<path d="M0.118 0.664 Q-0.026 0.760 0.131 0.852" stroke="hsl(0.0,100%,35%)" stroke-width="0.00910"></path>
<path d="M0.118 0.664 Q0.601 0.978 1.320 0.812" stroke="hsl(0.0,100%,35%)" stroke-width="0.00060"></path>
<path d="M0.118 0.664 Q0.233 0.850 0.621 0.835" stroke="hsl(0.0,100%,35%)" stroke-width="0.00104"></path>
<path d="M0.118 0.664 Q1.031 1.026 1.938 0.661" stroke="hsl(0.0,100%,35%)" stroke-width="0.00030"></path>
<path d="M0.118 0.664 Q0.515 0.724 0.720 0.544" stroke="hsl(0.0,100%,35%)" stroke-width="0.00462"></path>
<path d="M0.118 0.664 Q0.680 1.052 1.559 0.862" stroke="hsl(0.0,100%,35%)" stroke-width="0.00045"></path>
<path d="M0.118 0.664 Q1.179 0.861 1.796 0.387" stroke="hsl(0.0,100%,35%)" stroke-width="0.00030"></path>
<path d="M0.118 0.664 Q0.271 0.736 0.445 0.678" stroke="hsl(0.0,100%,35%)" stroke-width="0.00999"></path>
<path d="M0.118 0.664 Q1.426 0.712 1.807 0.084" stroke="hsl(0.0,100%,35%)" stroke-width="0.00015"></path>
<path d="M0.118 0.664 Q0.674 0.665 0.799 0.394" stroke="hsl(0.0,100%,35%)" stroke-width="0.00134"></path>
<path d="M0.118 0.664 Q0.745 1.113 1.758 0.906" stroke="hsl(0.0,100%,35%)" stroke-width="0.00015"></path>
<path d="M0.118 0.664 Q0.818 1.078 1.780 0.828" stroke="hsl(0.0,100%,35%)" stroke-width="0.00015"></path>
<path d="M0.118 0.664 Q0.971 0.983 1.779 0.637" stroke="hsl(0.0,100%,35%)" stroke-width="0.00015"></path>
<path d="M0.118 0.664 Q0.468 1.066 1.329 0.983" stroke="hsl(0.0,100%,35%)" stroke-width="0.00015"></path>
<path d="M0.621 0.835 Q0.843 0.495 0.228 0.312" stroke="hsl(0.0,100%,35%)" stroke-width="0.00015"></path>
<path d="M0.621 0.835 Q0.417 0.828 0.360 0.927" stroke="hsl(0.0,100%,35%)" stroke-width="0.01805"></path>
<path d="M0.621 0.835 Q0.362 0.745 0.131 0.852" stroke="hsl(0.0,100%,35%)" stroke-width="0.00865"></path>
<path d="M0.621 0.835 Q1.062 0.650 0.799 0.394" stroke="hsl(0.0,100%,35%)" stroke-width="0.00448"></path>
<path d="M0.621 0.835 Q0.989 0.963 1.320 0.812" stroke="hsl(0.0,100%,35%)" stroke-width="0.00403"></path>
<path d="M0.621 0.835 Q0.903 0.709 0.720 0.544" stroke="hsl(0.0,100%,35%)" stroke-width="0.00686"></path>
<path d="M0.621 0.835 Q0.856 1.050 1.329 0.983" stroke="hsl(0.0,100%,35%)" stroke-width="0.00298"></path>
<path d="M0.621 0.835 Q1.419 1.011 1.938 0.661" stroke="hsl(0.0,100%,35%)" stroke-width="0.00015"></path>
<path d="M0.621 0.835 Q1.516 0.706 1.462 0.242" stroke="hsl(0.0,100%,35%)" stroke-width="0.00075"></path>
<path d="M0.621 0.835 Q0.805 0.821 0.819 0.728" stroke="hsl(0.0,100%,35%)" stroke-width="0.00030"></path>
<path d="M0.621 0.835 Q0.506 0.649 0.118 0.664" stroke="hsl(0.0,100%,35%)" stroke-width="0.00820"></path>
<path d="M0.621 0.835 Q1.272 1.081 1.895 0.817" stroke="hsl(0.0,100%,35%)" stroke-width="0.00015"></path>
<path d="M0.621 0.835 Q1.814 0.696 1.807 0.084" stroke="hsl(0.0,100%,35%)" stroke-width="0.00194"></path>
<path d="M0.621 0.835 Q0.659 0.721 0.445 0.678" stroke="hsl(0.0,100%,35%)" stroke-width="0.00254"></path>
<path d="M0.621 0.835 Q1.567 0.846 1.796 0.387" stroke="hsl(0.0,100%,35%)" stroke-width="0.00134"></path>
<path d="M0.621 0.835 Q1.105 0.392 0.347 0.059" stroke="hsl(0.0,100%,35%)" stroke-width="0.00194"></path>
<path d="M0.621 0.835 Q0.895 0.426 0.157 0.203" stroke="hsl(0.0,100%,35%)" stroke-width="0.00015"></path>
<path d="M0.621 0.835 Q1.068 1.036 1.559 0.862" stroke="hsl(0.0,100%,35%)" stroke-width="0.00015"></path>
<path d="M0.621 0.835 Q1.436 0.820 1.587 0.419" stroke="hsl(0.0,100%,35%)" stroke-width="0.00030"></path>
<path d="M0.621 0.835 Q0.800 0.958 1.079 0.898" stroke="hsl(0.0,100%,35%)" stroke-width="0.00015"></path>
<path d="M1.616 0.736 Q1.837 0.763 1.938 0.661" stroke="hsl(120.0,100%,35%)" stroke-width="0.00015"></path>
<path d="M1.616 0.736 Q1.040 0.586 0.621 0.835" stroke="hsl(120.0,100%,35%)" stroke-width="0.00075"></path>
<path d="M1.616 0.736 Q1.487 0.788 1.559 0.862" stroke="hsl(120.0,100%,35%)" stroke-width="0.00209"></path>
<path d="M1.616 0.736 Q1.690 0.833 1.895 0.817" stroke="hsl(120.0,100%,35%)" stroke-width="0.00134"></path>
<path d="M1.616 0.736 Q0.925 0.401 0.118 0.664" stroke="hsl(120.0,100%,35%)" stroke-width="0.00104"></path>
<path d="M1.616 0.736 Q2.233 0.448 1.807 0.084" stroke="hsl(120.0,100%,35%)" stroke-width="0.00045"></path>
<path d="M1.616 0.736 Q0.835 0.580 0.360 0.927" stroke="hsl(120.0,100%,35%)" stroke-width="0.00015"></path>
<path d="M1.616 0.736 Q1.261 0.247 0.228 0.312" stroke="hsl(120.0,100%,35%)" stroke-width="0.00015"></path>
<path d="M1.616 0.736 Q1.625 0.815 1.780 0.828" stroke="hsl(120.0,100%,35%)" stroke-width="0.00045"></path>
<path d="M1.559 0.862 Q1.291 0.784 1.079 0.898" stroke="hsl(120.0,100%,35%)" stroke-width="0.00015"></path>
<path d="M1.559 0.862 Q1.689 0.811 1.616 0.736" stroke="hsl(120.0,100%,35%)" stroke-width="0.00269"></path>
<path d="M1.559 0.862 Q0.908 0.655 0.360 0.927" stroke="hsl(120.0,100%,35%)" stroke-width="0.00015"></path>
<path d="M1.559 0.862 Q1.394 0.535 0.720 0.544" stroke="hsl(120.0,100%,35%)" stroke-width="0.00015"></path>
<path d="M1.559 0.862 Q1.763 0.907 1.895 0.817" stroke="hsl(120.0,100%,35%)" stroke-width="0.00030"></path>
<path d="M1.559 0.862 Q2.306 0.523 1.807 0.084" stroke="hsl(120.0,100%,35%)" stroke-width="0.00045"></path>
<path d="M1.559 0.862 Q1.624 0.924 1.758 0.906" stroke="hsl(120.0,100%,35%)" stroke-width="0.00149"></path>
<path d="M1.559 0.862 Q1.928 0.646 1.587 0.419" stroke="hsl(120.0,100%,35%)" stroke-width="0.00015"></path>
<path d="M1.587 0.419 Q1.139 0.562 1.320 0.812" stroke="hsl(240.0,100%,35%)" stroke-width="0.01119"></path>
<path d="M1.587 0.419 Q1.717 0.445 1.796 0.387" stroke="hsl(240.0,100%,35%)" stroke-width="0.00567"></path>
<path d="M1.587 0.419 Q0.567 0.428 0.360 0.927" stroke="hsl(240.0,100%,35%)" stroke-width="0.00119"></path>
<path d="M1.587 0.419 Q0.772 0.434 0.621 0.835" stroke="hsl(240.0,100%,35%)" stroke-width="0.00075"></path>
<path d="M1.587 0.419 Q1.219 0.635 1.559 0.862" stroke="hsl(240.0,100%,35%)" stroke-width="0.00343"></path>
<path d="M1.587 0.419 Q1.286 0.094 0.585 0.170" stroke="hsl(240.0,100%,35%)" stroke-width="0.00090"></path>
<path d="M1.587 0.419 Q1.283 0.697 1.758 0.906" stroke="hsl(240.0,100%,35%)" stroke-width="0.00030"></path>
<path d="M1.587 0.419 Q0.809 0.320 0.445 0.678" stroke="hsl(240.0,100%,35%)" stroke-width="0.00045"></path>
<path d="M1.587 0.419 Q1.213 0.249 0.799 0.394" stroke="hsl(240.0,100%,35%)" stroke-width="0.00045"></path>
<path d="M1.587 0.419 Q1.667 0.305 1.462 0.242" stroke="hsl(240.0,100%,35%)" stroke-width="0.00970"></path>
<path d="M1.587 0.419 Q1.007 0.650 1.329 0.983" stroke="hsl(240.0,100%,35%)" stroke-width="0.00179"></path>
<path d="M1.587 0.419 Q0.950 0.557 1.079 0.898" stroke="hsl(240.0,100%,35%)" stroke-width="0.00015"></path>
<path d="M1.587 0.419 Q0.513 0.344 0.131 0.852" stroke="hsl(240.0,100%,35%)" stroke-width="0.00045"></path>
<path d="M1.587 0.419 Q1.509 0.566 1.779 0.637" stroke="hsl(240.0,100%,35%)" stroke-width="0.00015"></path>
<path d="M1.587 0.419 Q1.045 0.025 0.157 0.203" stroke="hsl(240.0,100%,35%)" stroke-width="0.00015"></path>
<path d="M1.587 0.419 Q1.569 0.610 1.938 0.661" stroke="hsl(240.0,100%,35%)" stroke-width="0.00045"></path>
<path d="M1.587 0.419 Q1.053 0.308 0.720 0.544" stroke="hsl(240.0,100%,35%)" stroke-width="0.00030"></path>
<path d="M1.587 0.419 Q1.423 0.680 1.895 0.817" stroke="hsl(240.0,100%,35%)" stroke-width="0.00045"></path>
<path d="M1.587 0.419 Q1.634 0.505 1.813 0.502" stroke="hsl(240.0,100%,35%)" stroke-width="0.00015"></path>
<path d="M1.587 0.419 Q1.965 0.296 1.807 0.084" stroke="hsl(240.0,100%,35%)" stroke-width="0.00060"></path>
<path d="M0.799 0.394 Q0.153 0.573 0.360 0.927" stroke="hsl(0.0,100%,35%)" stroke-width="0.00373"></path>
<path d="M0.799 0.394 Q0.639 0.453 0.720 0.544" stroke="hsl(0.0,100%,35%)" stroke-width="0.00716"></path>
<path d="M0.799 0.394 Q1.155 0.755 1.938 0.661" stroke="hsl(0.0,100%,35%)" stroke-width="0.00015"></path>
<path d="M0.799 0.394 Q0.725 0.707 1.320 0.812" stroke="hsl(0.0,100%,35%)" stroke-width="0.00283"></path>
<path d="M0.799 0.394 Q0.358 0.579 0.621 0.835" stroke="hsl(0.0,100%,35%)" stroke-width="0.00045"></path>
<path d="M0.799 0.394 Q0.395 0.465 0.445 0.678" stroke="hsl(0.0,100%,35%)" stroke-width="0.00134"></path>
<path d="M0.799 0.394 Q0.593 0.795 1.329 0.983" stroke="hsl(0.0,100%,35%)" stroke-width="0.00149"></path>
<path d="M0.799 0.394 Q0.099 0.489 0.131 0.852" stroke="hsl(0.0,100%,35%)" stroke-width="0.00045"></path>
<path d="M0.799 0.394 Q0.804 0.781 1.559 0.862" stroke="hsl(0.0,100%,35%)" stroke-width="0.00030"></path>
<path d="M0.799 0.394 Q1.303 0.590 1.796 0.387" stroke="hsl(0.0,100%,35%)" stroke-width="0.00015"></path>
<path d="M0.799 0.394 Q1.551 0.441 1.807 0.084" stroke="hsl(0.0,100%,35%)" stroke-width="0.00015"></path>
<path d="M0.799 0.394 Q0.869 0.842 1.758 0.906" stroke="hsl(0.0,100%,35%)" stroke-width="0.00030"></path>
<path d="M0.799 0.394 Q0.631 0.170 0.157 0.203" stroke="hsl(0.0,100%,35%)" stroke-width="0.00015"></path>
<path d="M0.799 0.394 Q0.242 0.393 0.118 0.664" stroke="hsl(0.0,100%,35%)" stroke-width="0.00030"></path>
<path d="M0.799 0.394 Q1.396 0.422 1.581 0.136" stroke="hsl(0.0,100%,35%)" stroke-width="0.00015"></path>
<path d="M0.799 0.394 Q0.934 0.729 1.616 0.736" stroke="hsl(0.0,100%,35%)" stroke-width="0.00030"></path>
<path d="M0.799 0.394 Q1.010 0.373 1.016 0.265" stroke="hsl(0.0,100%,35%)" stroke-width="0.00015"></path>
<path d="M0.799 0.394 Q1.252 0.451 1.462 0.242" stroke="hsl(0.0,100%,35%)" stroke-width="0.00030"></path>
<path d="M0.799 0.394 Q1.173 0.564 1.587 0.419" stroke="hsl(0.0,100%,35%)" stroke-width="0.00060"></path>
<path d="M0.799 0.394 Q0.536 0.702 1.079 0.898" stroke="hsl(0.0,100%,35%)" stroke-width="0.00015"></path>
<path d="M1.796 0.387 Q1.365 0.036 0.585 0.170" stroke="hsl(120.0,100%,35%)" stroke-width="0.00820"></path>
<path d="M1.796 0.387 Q1.847 0.309 1.705 0.267" stroke="hsl(120.0,100%,35%)" stroke-width="0.00015"></path>
<path d="M1.796 0.387 Q1.334 -0.067 0.347 0.059" stroke="hsl(120.0,100%,35%)" stroke-width="0.00060"></path>
<path d="M1.796 0.387 Q1.218 0.504 1.320 0.812" stroke="hsl(120.0,100%,35%)" stroke-width="0.00224"></path>
<path d="M1.796 0.387 Q1.746 0.248 1.462 0.242" stroke="hsl(120.0,100%,35%)" stroke-width="0.00104"></path>
<path d="M1.796 0.387 Q1.086 0.592 1.329 0.983" stroke="hsl(120.0,100%,35%)" stroke-width="0.00045"></path>
<path d="M1.796 0.387 Q0.592 0.286 0.131 0.852" stroke="hsl(120.0,100%,35%)" stroke-width="0.00119"></path>
<path d="M1.796 0.387 Q2.044 0.238 1.807 0.084" stroke="hsl(120.0,100%,35%)" stroke-width="0.00283"></path>
<path d="M1.796 0.387 Q1.648 0.552 1.938 0.661" stroke="hsl(120.0,100%,35%)" stroke-width="0.00090"></path>
<path d="M1.796 0.387 Q1.889 0.219 1.581 0.136" stroke="hsl(120.0,100%,35%)" stroke-width="0.00119"></path>
<path d="M1.796 0.387 Q1.774 0.321 1.640 0.317" stroke="hsl(120.0,100%,35%)" stroke-width="0.00015"></path>
<path d="M1.796 0.387 Q0.851 0.376 0.621 0.835" stroke="hsl(120.0,100%,35%)" stroke-width="0.00015"></path>
<path d="M1.796 0.387 Q1.588 0.508 1.779 0.637" stroke="hsl(120.0,100%,35%)" stroke-width="0.00194"></path>
<path d="M1.796 0.387 Q1.072 0.036 0.228 0.312" stroke="hsl(120.0,100%,35%)" stroke-width="0.00045"></path>
<path d="M1.796 0.387 Q0.646 0.370 0.360 0.927" stroke="hsl(120.0,100%,35%)" stroke-width="0.00298"></path>
<path d="M1.796 0.387 Q1.666 0.361 1.587 0.419" stroke="hsl(120.0,100%,35%)" stroke-width="0.00269"></path>
<path d="M1.796 0.387 Q1.124 -0.033 0.157 0.203" stroke="hsl(120.0,100%,35%)" stroke-width="0.00015"></path>
<path d="M1.796 0.387 Q0.735 0.190 0.118 0.664" stroke="hsl(120.0,100%,35%)" stroke-width="0.00015"></path>
<path d="M1.796 0.387 Q1.959 0.300 1.824 0.202" stroke="hsl(120.0,100%,35%)" stroke-width="0.00015"></path>
<path d="M1.796 0.387 Q1.767 0.324 1.637 0.324" stroke="hsl(120.0,100%,35%)" stroke-width="0.00015"></path>
<path d="M1.320 0.812 Q0.748 0.677 0.360 0.927" stroke="hsl(240.0,100%,35%)" stroke-width="0.00970"></path>
<path d="M1.320 0.812 Q1.399 0.885 1.559 0.862" stroke="hsl(240.0,100%,35%)" stroke-width="0.00104"></path>
<path d="M1.320 0.812 Q0.693 0.594 0.131 0.852" stroke="hsl(240.0,100%,35%)" stroke-width="0.00448"></path>
<path d="M1.320 0.812 Q1.898 0.695 1.796 0.387" stroke="hsl(240.0,100%,35%)" stroke-width="0.00298"></path>
<path d="M1.320 0.812 Q1.187 0.899 1.329 0.983" stroke="hsl(240.0,100%,35%)" stroke-width="0.03774"></path>
<path d="M1.320 0.812 Q1.847 0.555 1.462 0.242" stroke="hsl(240.0,100%,35%)" stroke-width="0.00075"></path>
<path d="M1.320 0.812 Q1.466 0.344 0.585 0.170" stroke="hsl(240.0,100%,35%)" stroke-width="0.00090"></path>
<path d="M1.320 0.812 Q2.145 0.545 1.807 0.084" stroke="hsl(240.0,100%,35%)" stroke-width="0.00269"></path>
<path d="M1.320 0.812 Q1.130 0.807 1.079 0.898" stroke="hsl(240.0,100%,35%)" stroke-width="0.00567"></path>
<path d="M1.320 0.812 Q1.603 0.930 1.895 0.817" stroke="hsl(240.0,100%,35%)" stroke-width="0.00090"></path>
<path d="M1.320 0.812 Q1.234 0.558 0.720 0.544" stroke="hsl(240.0,100%,35%)" stroke-width="0.00060"></path>
<path d="M1.320 0.812 Q1.750 0.860 1.938 0.661" stroke="hsl(240.0,100%,35%)" stroke-width="0.00015"></path>
<path d="M1.320 0.812 Q0.952 0.683 0.621 0.835" stroke="hsl(240.0,100%,35%)" stroke-width="0.00060"></path>
<path d="M1.320 0.812 Q1.553 0.411 0.822 0.209" stroke="hsl(240.0,100%,35%)" stroke-width="0.00030"></path>
<path d="M1.320 0.812 Q1.767 0.669 1.587 0.419" stroke="hsl(240.0,100%,35%)" stroke-width="0.00955"></path>
<path d="M1.320 0.812 Q1.393 0.499 0.799 0.394" stroke="hsl(240.0,100%,35%)" stroke-width="0.00060"></path>
<path d="M1.320 0.812 Q0.837 0.498 0.118 0.664" stroke="hsl(240.0,100%,35%)" stroke-width="0.00045"></path>
<path d="M1.320 0.812 Q1.173 0.344 0.228 0.312" stroke="hsl(240.0,100%,35%)" stroke-width="0.00030"></path>
<path d="M1.320 0.812 Q1.225 0.275 0.157 0.203" stroke="hsl(240.0,100%,35%)" stroke-width="0.00015"></path>
<path d="M1.320 0.812 Q1.537 0.912 1.780 0.828" stroke="hsl(240.0,100%,35%)" stroke-width="0.00015"></path>
<path d="M1.807 0.084 Q1.128 -0.117 0.585 0.170" stroke="hsl(120.0,100%,35%)" stroke-width="0.00045"></path>
<path d="M1.807 0.084 Q1.060 0.424 1.559 0.862" stroke="hsl(120.0,100%,35%)" stroke-width="0.00283"></path>
<path d="M1.807 0.084 Q1.411 0.399 1.938 0.661" stroke="hsl(120.0,100%,35%)" stroke-width="0.00119"></path>
<path d="M1.807 0.084 Q0.981 0.350 1.320 0.812" stroke="hsl(120.0,100%,35%)" stroke-width="0.00119"></path>
<path d="M1.807 0.084 Q1.559 0.233 1.796 0.387" stroke="hsl(120.0,100%,35%)" stroke-width="0.00224"></path>
<path d="M1.807 0.084 Q1.264 0.468 1.895 0.817" stroke="hsl(120.0,100%,35%)" stroke-width="0.00075"></path>
<path d="M1.807 0.084 Q0.614 0.222 0.621 0.835" stroke="hsl(120.0,100%,35%)" stroke-width="0.00104"></path>
<path d="M1.807 0.084 Q1.215 -0.050 0.822 0.209" stroke="hsl(120.0,100%,35%)" stroke-width="0.00030"></path>
<path d="M1.807 0.084 Q0.849 0.438 1.329 0.983" stroke="hsl(120.0,100%,35%)" stroke-width="0.00015"></path>
<path d="M1.807 0.084 Q1.665 0.091 1.646 0.162" stroke="hsl(120.0,100%,35%)" stroke-width="0.00149"></path>
<path d="M1.807 0.084 Q1.097 -0.221 0.347 0.059" stroke="hsl(120.0,100%,35%)" stroke-width="0.00015"></path>
<path d="M1.807 0.084 Q1.722 0.146 1.824 0.202" stroke="hsl(120.0,100%,35%)" stroke-width="0.00627"></path>
<path d="M1.807 0.084 Q1.509 0.094 1.462 0.242" stroke="hsl(120.0,100%,35%)" stroke-width="0.00060"></path>
<path d="M1.807 0.084 Q1.190 0.372 1.616 0.736" stroke="hsl(120.0,100%,35%)" stroke-width="0.00090"></path>
<path d="M1.807 0.084 Q0.835 -0.118 0.228 0.312" stroke="hsl(120.0,100%,35%)" stroke-width="0.00015"></path>
<path d="M1.807 0.084 Q1.055 0.038 0.799 0.394" stroke="hsl(120.0,100%,35%)" stroke-width="0.00030"></path>
<path d="M1.807 0.084 Q1.351 0.355 1.779 0.637" stroke="hsl(120.0,100%,35%)" stroke-width="0.00045"></path>
<path d="M1.807 0.084 Q1.125 0.485 1.758 0.906" stroke="hsl(120.0,100%,35%)" stroke-width="0.00015"></path>
<path d="M1.807 0.084 Q0.887 -0.186 0.157 0.203" stroke="hsl(120.0,100%,35%)" stroke-width="0.00045"></path>
<path d="M1.807 0.084 Q1.652 0.065 1.581 0.136" stroke="hsl(120.0,100%,35%)" stroke-width="0.00090"></path>
<path d="M1.807 0.084 Q1.199 0.451 1.780 0.828" stroke="hsl(120.0,100%,35%)" stroke-width="0.00015"></path>
<path d="M1.807 0.084 Q1.429 0.208 1.587 0.419" stroke="hsl(120.0,100%,35%)" stroke-width="0.00045"></path>
<path d="M1.807 0.084 Q1.738 0.029 1.615 0.050" stroke="hsl(120.0,100%,35%)" stroke-width="0.00015"></path>
<path d="M1.807 0.084 Q0.989 -0.044 0.560 0.327" stroke="hsl(120.0,100%,35%)" stroke-width="0.00015"></path>
<path d="M1.462 0.242 Q0.935 0.498 1.320 0.812" stroke="hsl(120.0,100%,35%)" stroke-width="0.00254"></path>
<path d="M1.462 0.242 Q1.513 0.381 1.796 0.387" stroke="hsl(120.0,100%,35%)" stroke-width="0.00239"></path>
<path d="M1.462 0.242 Q0.803 0.586 1.329 0.983" stroke="hsl(120.0,100%,35%)" stroke-width="0.00015"></path>
<path d="M1.462 0.242 Q0.568 0.370 0.621 0.835" stroke="hsl(120.0,100%,35%)" stroke-width="0.00104"></path>
<path d="M1.462 0.242 Q1.365 0.546 1.938 0.661" stroke="hsl(120.0,100%,35%)" stroke-width="0.00582"></path>
<path d="M1.462 0.242 Q1.329 0.273 1.362 0.345" stroke="hsl(120.0,100%,35%)" stroke-width="0.00015"></path>
<path d="M1.462 0.242 Q1.761 0.232 1.807 0.084" stroke="hsl(120.0,100%,35%)" stroke-width="0.00015"></path>
<path d="M1.462 0.242 Q0.363 0.364 0.360 0.927" stroke="hsl(120.0,100%,35%)" stroke-width="0.00119"></path>
<path d="M1.462 0.242 Q0.605 0.256 0.445 0.678" stroke="hsl(120.0,100%,35%)" stroke-width="0.00030"></path>
<path d="M1.462 0.242 Q0.452 0.184 0.118 0.664" stroke="hsl(120.0,100%,35%)" stroke-width="0.00880"></path>
<path d="M1.462 0.242 Q1.305 0.503 1.779 0.637" stroke="hsl(120.0,100%,35%)" stroke-width="0.00060"></path>
<path d="M1.462 0.242 Q0.309 0.280 0.131 0.852" stroke="hsl(120.0,100%,35%)" stroke-width="0.00224"></path>
<path d="M1.462 0.242 Q1.383 0.355 1.587 0.419" stroke="hsl(120.0,100%,35%)" stroke-width="0.00224"></path>
<path d="M1.462 0.242 Q1.008 0.185 0.799 0.394" stroke="hsl(120.0,100%,35%)" stroke-width="0.00030"></path>
<path d="M1.938 0.661 Q1.876 0.548 1.641 0.553" stroke="hsl(120.0,100%,35%)" stroke-width="0.00015"></path>
<path d="M1.938 0.661 Q2.086 0.495 1.796 0.387" stroke="hsl(120.0,100%,35%)" stroke-width="0.00224"></path>
<path d="M1.938 0.661 Q1.025 0.298 0.118 0.664" stroke="hsl(120.0,100%,35%)" stroke-width="0.00030"></path>
<path d="M1.938 0.661 Q1.655 0.145 0.585 0.170" stroke="hsl(120.0,100%,35%)" stroke-width="0.00104"></path>
<path d="M1.938 0.661 Q2.035 0.356 1.462 0.242" stroke="hsl(120.0,100%,35%)" stroke-width="0.00522"></path>
<path d="M1.938 0.661 Q1.725 0.713 1.780 0.828" stroke="hsl(120.0,100%,35%)" stroke-width="0.00015"></path>
<path d="M1.938 0.661 Q2.070 0.576 1.934 0.493" stroke="hsl(120.0,100%,35%)" stroke-width="0.00075"></path>
<path d="M1.938 0.661 Q1.422 0.359 0.720 0.544" stroke="hsl(120.0,100%,35%)" stroke-width="0.00030"></path>
<path d="M1.938 0.661 Q1.508 0.612 1.320 0.812" stroke="hsl(120.0,100%,35%)" stroke-width="0.00075"></path>
<path d="M1.938 0.661 Q2.334 0.346 1.807 0.084" stroke="hsl(120.0,100%,35%)" stroke-width="0.00075"></path>
<path d="M1.938 0.661 Q1.956 0.470 1.587 0.419" stroke="hsl(120.0,100%,35%)" stroke-width="0.00343"></path>
<path d="M1.938 0.661 Q1.376 0.700 1.329 0.983" stroke="hsl(120.0,100%,35%)" stroke-width="0.00015"></path>
<path d="M1.938 0.661 Q1.414 0.076 0.157 0.203" stroke="hsl(120.0,100%,35%)" stroke-width="0.00045"></path>
<path d="M1.938 0.661 Q1.878 0.617 1.779 0.637" stroke="hsl(120.0,100%,35%)" stroke-width="0.00090"></path>
<path d="M1.938 0.661 Q1.582 0.299 0.799 0.394" stroke="hsl(120.0,100%,35%)" stroke-width="0.00015"></path>
<path d="M1.938 0.661 Q1.717 0.634 1.616 0.736" stroke="hsl(120.0,100%,35%)" stroke-width="0.00015"></path>
<path d="M1.938 0.661 Q2.458 0.344 1.954 0.021" stroke="hsl(120.0,100%,35%)" stroke-width="0.00015"></path>
<path d="M0.720 0.544 Q0.234 0.664 0.360 0.927" stroke="hsl(0.0,100%,35%)" stroke-width="0.00940"></path>
<path d="M0.720 0.544 Q0.879 0.485 0.799 0.394" stroke="hsl(0.0,100%,35%)" stroke-width="0.00701"></path>
<path d="M0.720 0.544 Q0.438 0.670 0.621 0.835" stroke="hsl(0.0,100%,35%)" stroke-width="0.00164"></path>
<path d="M0.720 0.544 Q0.323 0.484 0.118 0.664" stroke="hsl(0.0,100%,35%)" stroke-width="0.00358"></path>
<path d="M0.720 0.544 Q1.384 0.681 1.796 0.387" stroke="hsl(0.0,100%,35%)" stroke-width="0.00015"></path>
<path d="M0.720 0.544 Q0.179 0.580 0.131 0.852" stroke="hsl(0.0,100%,35%)" stroke-width="0.00030"></path>
<path d="M0.720 0.544 Q0.712 0.261 0.157 0.203" stroke="hsl(0.0,100%,35%)" stroke-width="0.00015"></path>
<path d="M0.720 0.544 Q0.806 0.798 1.320 0.812" stroke="hsl(0.0,100%,35%)" stroke-width="0.00164"></path>
<path d="M0.720 0.544 Q1.631 0.532 1.807 0.084" stroke="hsl(0.0,100%,35%)" stroke-width="0.00015"></path>
<path d="M0.720 0.544 Q0.476 0.556 0.445 0.678" stroke="hsl(0.0,100%,35%)" stroke-width="0.00045"></path>
<path d="M0.720 0.544 Q0.673 0.886 1.329 0.983" stroke="hsl(0.0,100%,35%)" stroke-width="0.00045"></path>
<path d="M0.720 0.544 Q1.253 0.655 1.587 0.419" stroke="hsl(0.0,100%,35%)" stroke-width="0.00015"></path>
<path d="M0.720 0.544 Q0.660 0.330 0.228 0.312" stroke="hsl(0.0,100%,35%)" stroke-width="0.00015"></path>
<path d="M0.720 0.544 Q0.995 0.545 1.058 0.411" stroke="hsl(0.0,100%,35%)" stroke-width="0.00015"></path>
<path d="M0.720 0.544 Q0.722 0.461 0.560 0.441" stroke="hsl(0.0,100%,35%)" stroke-width="0.00015"></path>
<path d="M0.720 0.544 Q0.617 0.793 1.079 0.898" stroke="hsl(0.0,100%,35%)" stroke-width="0.00015"></path>
<path d="M0.720 0.544 Q1.333 0.541 1.462 0.242" stroke="hsl(0.0,100%,35%)" stroke-width="0.00015"></path>
<path d="M0.720 0.544 Q0.952 0.330 0.585 0.170" stroke="hsl(0.0,100%,35%)" stroke-width="0.00015"></path>
<path d="M1.329 0.983 Q1.273 0.891 1.079 0.898" stroke="hsl(240.0,100%,35%)" stroke-width="0.04311"></path>
<path d="M1.329 0.983 Q0.890 0.761 0.360 0.927" stroke="hsl(240.0,100%,35%)" stroke-width="0.00641"></path>
<path d="M1.329 0.983 Q1.462 0.895 1.320 0.812" stroke="hsl(240.0,100%,35%)" stroke-width="0.10964"></path>
<path d="M1.329 0.983 Q1.989 0.639 1.462 0.242" stroke="hsl(240.0,100%,35%)" stroke-width="0.00030"></path>
<path d="M1.329 0.983 Q0.835 0.678 0.131 0.852" stroke="hsl(240.0,100%,35%)" stroke-width="0.00164"></path>
<path d="M1.329 0.983 Q2.040 0.778 1.796 0.387" stroke="hsl(240.0,100%,35%)" stroke-width="0.00194"></path>
<path d="M1.329 0.983 Q1.368 0.359 0.157 0.203" stroke="hsl(240.0,100%,35%)" stroke-width="0.00015"></path>
<path d="M1.329 0.983 Q2.287 0.629 1.807 0.084" stroke="hsl(240.0,100%,35%)" stroke-width="0.00015"></path>
<path d="M1.329 0.983 Q1.670 0.917 1.616 0.736" stroke="hsl(240.0,100%,35%)" stroke-width="0.00030"></path>
<path d="M1.329 0.983 Q1.832 0.900 1.779 0.637" stroke="hsl(240.0,100%,35%)" stroke-width="0.00030"></path>
<path d="M1.329 0.983 Q0.979 0.581 0.118 0.664" stroke="hsl(240.0,100%,35%)" stroke-width="0.00090"></path>
<path d="M1.329 0.983 Q1.316 0.427 0.228 0.312" stroke="hsl(240.0,100%,35%)" stroke-width="0.00030"></path>
<path d="M1.329 0.983 Q1.745 1.013 1.895 0.817" stroke="hsl(240.0,100%,35%)" stroke-width="0.00015"></path>
<path d="M1.329 0.983 Q1.892 0.944 1.938 0.661" stroke="hsl(240.0,100%,35%)" stroke-width="0.00060"></path>
<path d="M1.329 0.983 Q1.535 0.583 0.799 0.394" stroke="hsl(240.0,100%,35%)" stroke-width="0.00060"></path>
<path d="M1.329 0.983 Q1.376 0.642 0.720 0.544" stroke="hsl(240.0,100%,35%)" stroke-width="0.00149"></path>
<path d="M1.329 0.983 Q1.909 0.753 1.587 0.419" stroke="hsl(240.0,100%,35%)" stroke-width="0.00373"></path>
<path d="M1.329 0.983 Q1.094 0.767 0.621 0.835" stroke="hsl(240.0,100%,35%)" stroke-width="0.00060"></path>
<path d="M1.329 0.983 Q1.132 0.654 0.445 0.678" stroke="hsl(240.0,100%,35%)" stroke-width="0.00045"></path>
<path d="M1.329 0.983 Q1.608 0.428 0.585 0.170" stroke="hsl(240.0,100%,35%)" stroke-width="0.00015"></path>
<path d="M1.079 0.898 Q0.697 0.768 0.360 0.927" stroke="hsl(240.0,100%,35%)" stroke-width="0.00030"></path>
<path d="M1.079 0.898 Q1.136 0.991 1.329 0.983" stroke="hsl(240.0,100%,35%)" stroke-width="0.02446"></path>
<path d="M1.079 0.898 Q1.268 0.903 1.320 0.812" stroke="hsl(240.0,100%,35%)" stroke-width="0.00999"></path>
<path d="M1.079 0.898 Q1.716 0.760 1.587 0.419" stroke="hsl(240.0,100%,35%)" stroke-width="0.00015"></path>
<path d="M1.079 0.898 Q1.342 0.590 0.799 0.394" stroke="hsl(240.0,100%,35%)" stroke-width="0.00015"></path>
<path d="M1.895 0.817 Q1.691 0.773 1.559 0.862" stroke="hsl(120.0,100%,35%)" stroke-width="0.00149"></path>
<path d="M1.895 0.817 Q1.040 0.565 0.360 0.927" stroke="hsl(120.0,100%,35%)" stroke-width="0.00030"></path>
<path d="M1.895 0.817 Q2.042 0.748 1.938 0.661" stroke="hsl(120.0,100%,35%)" stroke-width="0.00015"></path>
<path d="M1.895 0.817 Q2.060 0.557 1.587 0.419" stroke="hsl(120.0,100%,35%)" stroke-width="0.00030"></path>
<path d="M1.895 0.817 Q1.282 0.458 0.445 0.678" stroke="hsl(120.0,100%,35%)" stroke-width="0.00015"></path>
<path d="M1.895 0.817 Q1.821 0.721 1.616 0.736" stroke="hsl(120.0,100%,35%)" stroke-width="0.00030"></path>
<path d="M1.895 0.817 Q1.245 0.571 0.621 0.835" stroke="hsl(120.0,100%,35%)" stroke-width="0.00015"></path>
<path d="M1.895 0.817 Q1.829 0.800 1.780 0.828" stroke="hsl(120.0,100%,35%)" stroke-width="0.00045"></path>
<path d="M1.895 0.817 Q1.480 0.787 1.329 0.983" stroke="hsl(120.0,100%,35%)" stroke-width="0.00015"></path>
<path d="M1.895 0.817 Q2.438 0.433 1.807 0.084" stroke="hsl(120.0,100%,35%)" stroke-width="0.00015"></path>
<path d="M1.895 0.817 Q1.759 0.232 0.585 0.170" stroke="hsl(120.0,100%,35%)" stroke-width="0.00030"></path>
<path d="M1.758 0.906 Q2.440 0.505 1.807 0.084" stroke="hsl(120.0,100%,35%)" stroke-width="0.00075"></path>
<path d="M1.758 0.906 Q1.693 0.844 1.559 0.862" stroke="hsl(120.0,100%,35%)" stroke-width="0.00149"></path>
<path d="M1.758 0.906 Q2.297 0.511 1.646 0.162" stroke="hsl(120.0,100%,35%)" stroke-width="0.00015"></path>
<path d="M1.758 0.906 Q2.062 0.628 1.587 0.419" stroke="hsl(120.0,100%,35%)" stroke-width="0.00015"></path>
<path d="M1.758 0.906 Q1.131 0.457 0.118 0.664" stroke="hsl(120.0,100%,35%)" stroke-width="0.00015"></path>
<path d="M1.758 0.906 Q1.897 0.889 1.895 0.817" stroke="hsl(120.0,100%,35%)" stroke-width="0.00015"></path>
<path d="M1.758 0.906 Q1.528 0.517 0.720 0.544" stroke="hsl(120.0,100%,35%)" stroke-width="0.00015"></path>
<path d="M0.131 0.852 Q0.185 0.935 0.360 0.927" stroke="hsl(0.0,100%,35%)" stroke-width="0.00522"></path>
<path d="M0.131 0.852 Q0.274 0.755 0.118 0.664" stroke="hsl(0.0,100%,35%)" stroke-width="0.00507"></path>
<path d="M0.131 0.852 Q0.757 1.069 1.320 0.812" stroke="hsl(0.0,100%,35%)" stroke-width="0.00075"></path>
<path d="M0.131 0.852 Q0.390 0.941 0.621 0.835" stroke="hsl(0.0,100%,35%)" stroke-width="0.00179"></path>
<path d="M0.131 0.852 Q1.335 0.952 1.796 0.387" stroke="hsl(0.0,100%,35%)" stroke-width="0.00507"></path>
<path d="M0.131 0.852 Q0.611 0.601 0.228 0.312" stroke="hsl(0.0,100%,35%)" stroke-width="0.00075"></path>
<path d="M0.131 0.852 Q0.625 1.157 1.329 0.983" stroke="hsl(0.0,100%,35%)" stroke-width="0.00045"></path>
<path d="M0.131 0.852 Q0.671 0.816 0.720 0.544" stroke="hsl(0.0,100%,35%)" stroke-width="0.00045"></path>
<path d="M0.131 0.852 Q1.284 0.813 1.462 0.242" stroke="hsl(0.0,100%,35%)" stroke-width="0.00075"></path>
<path d="M0.131 0.852 Q0.904 0.601 0.585 0.170" stroke="hsl(0.0,100%,35%)" stroke-width="0.00134"></path>
<path d="M0.131 0.852 Q0.248 0.813 0.199 0.747" stroke="hsl(0.0,100%,35%)" stroke-width="0.00015"></path>
<path d="M0.131 0.852 Q0.873 0.498 0.347 0.059" stroke="hsl(0.0,100%,35%)" stroke-width="0.00015"></path>
<path d="M0.131 0.852 Q1.205 0.927 1.587 0.419" stroke="hsl(0.0,100%,35%)" stroke-width="0.00119"></path>
<path d="M0.131 0.852 Q0.831 0.756 0.799 0.394" stroke="hsl(0.0,100%,35%)" stroke-width="0.00075"></path>
<path d="M0.131 0.852 Q0.663 0.533 0.157 0.203" stroke="hsl(0.0,100%,35%)" stroke-width="0.00015"></path>
<path d="M0.585 0.170 Q0.869 0.686 1.938 0.661" stroke="hsl(120.0,100%,35%)" stroke-width="0.00179"></path>
<path d="M0.585 0.170 Q0.306 0.725 1.329 0.983" stroke="hsl(120.0,100%,35%)" stroke-width="0.00015"></path>
<path d="M0.585 0.170 Q1.264 0.371 1.807 0.084" stroke="hsl(120.0,100%,35%)" stroke-width="0.00075"></path>
<path d="M0.585 0.170 Q1.017 0.520 1.796 0.387" stroke="hsl(120.0,100%,35%)" stroke-width="0.00298"></path>
<path d="M0.585 0.170 Q0.672 0.237 0.822 0.209" stroke="hsl(120.0,100%,35%)" stroke-width="0.00403"></path>
<path d="M0.585 0.170 Q0.293 0.169 0.228 0.312" stroke="hsl(120.0,100%,35%)" stroke-width="0.00090"></path>
<path d="M0.585 0.170 Q0.555 0.066 0.347 0.059" stroke="hsl(120.0,100%,35%)" stroke-width="0.00627"></path>
<path d="M0.585 0.170 Q0.439 0.637 1.320 0.812" stroke="hsl(120.0,100%,35%)" stroke-width="0.00119"></path>
<path d="M0.585 0.170 Q0.887 0.495 1.587 0.419" stroke="hsl(120.0,100%,35%)" stroke-width="0.00090"></path>
<path d="M0.585 0.170 Q0.722 0.755 1.895 0.817" stroke="hsl(120.0,100%,35%)" stroke-width="0.00015"></path>
<path d="M0.585 0.170 Q0.109 0.396 0.445 0.678" stroke="hsl(120.0,100%,35%)" stroke-width="0.00015"></path>
<path d="M0.585 0.170 Q0.966 0.381 1.462 0.242" stroke="hsl(120.0,100%,35%)" stroke-width="0.00015"></path>
<path d="M0.585 0.170 Q1.179 0.433 1.824 0.202" stroke="hsl(120.0,100%,35%)" stroke-width="0.00015"></path>
<path d="M0.822 0.209 Q0.735 0.142 0.585 0.170" stroke="hsl(120.0,100%,35%)" stroke-width="0.00627"></path>
<path d="M0.822 0.209 Q1.167 0.493 1.796 0.387" stroke="hsl(120.0,100%,35%)" stroke-width="0.00015"></path>
<path d="M0.822 0.209 Q0.596 0.216 0.560 0.327" stroke="hsl(120.0,100%,35%)" stroke-width="0.00075"></path>
<path d="M0.822 0.209 Q1.414 0.343 1.807 0.084" stroke="hsl(120.0,100%,35%)" stroke-width="0.00015"></path>
<path d="M0.822 0.209 Q0.890 0.169 0.828 0.128" stroke="hsl(120.0,100%,35%)" stroke-width="0.00030"></path>
<path d="M0.822 0.209 Q0.443 0.142 0.228 0.312" stroke="hsl(120.0,100%,35%)" stroke-width="0.00075"></path>
<path d="M0.822 0.209 Q0.400 0.605 1.079 0.898" stroke="hsl(120.0,100%,35%)" stroke-width="0.00015"></path>
<path d="M0.822 0.209 Q0.806 0.710 1.780 0.828" stroke="hsl(120.0,100%,35%)" stroke-width="0.00015"></path>
<path d="M0.228 0.312 Q-0.198 0.646 0.360 0.927" stroke="hsl(120.0,100%,35%)" stroke-width="0.00015"></path>
<path d="M0.228 0.312 Q0.288 0.526 0.720 0.544" stroke="hsl(120.0,100%,35%)" stroke-width="0.00030"></path>
<path d="M0.228 0.312 Q0.374 0.780 1.320 0.812" stroke="hsl(120.0,100%,35%)" stroke-width="0.00015"></path>
<path d="M0.228 0.312 Q0.822 0.637 1.587 0.419" stroke="hsl(120.0,100%,35%)" stroke-width="0.00015"></path>
<path d="M0.228 0.312 Q0.280 0.243 0.157 0.203" stroke="hsl(120.0,100%,35%)" stroke-width="0.00015"></path>
<path d="M0.228 0.312 Q0.490 0.209 0.347 0.059" stroke="hsl(120.0,100%,35%)" stroke-width="0.00015"></path>
<path d="M0.157 0.203 Q0.460 0.761 1.616 0.736" stroke="hsl(120.0,100%,35%)" stroke-width="0.00015"></path>
<path d="M0.157 0.203 Q0.059 0.232 0.095 0.287" stroke="hsl(120.0,100%,35%)" stroke-width="0.00045"></path>
<path d="M0.157 0.203 Q1.077 0.473 1.807 0.084" stroke="hsl(120.0,100%,35%)" stroke-width="0.00030"></path>
<path d="M0.157 0.203 Q0.105 0.272 0.228 0.312" stroke="hsl(120.0,100%,35%)" stroke-width="0.00283"></path>
<path d="M0.157 0.203 Q0.251 0.740 1.320 0.812" stroke="hsl(120.0,100%,35%)" stroke-width="0.00015"></path>
<path d="M0.157 0.203 Q0.829 0.623 1.796 0.387" stroke="hsl(120.0,100%,35%)" stroke-width="0.00015"></path>
<path d="M0.157 0.203 Q0.331 0.813 1.559 0.862" stroke="hsl(120.0,100%,35%)" stroke-width="0.00015"></path>
<path d="M0.157 0.203 Q0.699 0.597 1.587 0.419" stroke="hsl(120.0,100%,35%)" stroke-width="0.00045"></path>
<path d="M0.157 0.203 Q0.166 0.486 0.720 0.544" stroke="hsl(120.0,100%,35%)" stroke-width="0.00015"></path>
<path d="M1.824 0.202 Q0.512 0.271 0.360 0.927" stroke="hsl(120.0,100%,35%)" stroke-width="0.00045"></path>
<path d="M1.824 0.202 Q0.990 -0.131 0.157 0.203" stroke="hsl(120.0,100%,35%)" stroke-width="0.00045"></path>
<path d="M1.824 0.202 Q1.909 0.139 1.807 0.084" stroke="hsl(120.0,100%,35%)" stroke-width="0.00358"></path>
<path d="M1.824 0.202 Q1.532 0.263 1.587 0.419" stroke="hsl(120.0,100%,35%)" stroke-width="0.00045"></path>
<path d="M1.824 0.202 Q0.716 0.277 0.621 0.835" stroke="hsl(120.0,100%,35%)" stroke-width="0.00030"></path>
<path d="M1.824 0.202 Q1.367 0.524 1.895 0.817" stroke="hsl(120.0,100%,35%)" stroke-width="0.00015"></path>
<path d="M1.824 0.202 Q1.866 0.224 1.919 0.209" stroke="hsl(120.0,100%,35%)" stroke-width="0.00015"></path>
<path d="M1.824 0.202 Q0.938 -0.062 0.228 0.312" stroke="hsl(120.0,100%,35%)" stroke-width="0.00030"></path>
<path d="M1.824 0.202 Q1.767 0.146 1.646 0.162" stroke="hsl(120.0,100%,35%)" stroke-width="0.00045"></path>
<path d="M1.824 0.202 Q1.230 -0.062 0.585 0.170" stroke="hsl(120.0,100%,35%)" stroke-width="0.00015"></path>
<path d="M1.779 0.637 Q1.839 0.680 1.938 0.661" stroke="hsl(120.0,100%,35%)" stroke-width="0.00791"></path>
<path d="M1.779 0.637 Q1.277 0.720 1.329 0.983" stroke="hsl(120.0,100%,35%)" stroke-width="0.00015"></path>
<path d="M1.779 0.637 Q2.235 0.366 1.807 0.084" stroke="hsl(120.0,100%,35%)" stroke-width="0.00030"></path>
<path d="M1.779 0.637 Q1.987 0.515 1.796 0.387" stroke="hsl(120.0,100%,35%)" stroke-width="0.00075"></path>
<path d="M1.779 0.637 Q1.937 0.376 1.462 0.242" stroke="hsl(120.0,100%,35%)" stroke-width="0.00015"></path>
<path d="M1.779 0.637 Q1.709 0.679 1.776 0.722" stroke="hsl(120.0,100%,35%)" stroke-width="0.00015"></path>
<path d="M0.347 0.059 Q0.809 0.513 1.796 0.387" stroke="hsl(120.0,100%,35%)" stroke-width="0.00075"></path>
<path d="M0.347 0.059 Q0.378 0.162 0.585 0.170" stroke="hsl(120.0,100%,35%)" stroke-width="0.00895"></path>
<path d="M0.347 0.059 Q-0.136 0.501 0.621 0.835" stroke="hsl(120.0,100%,35%)" stroke-width="0.00104"></path>
<path d="M0.347 0.059 Q1.057 0.363 1.807 0.084" stroke="hsl(120.0,100%,35%)" stroke-width="0.00045"></path>
<path d="M0.347 0.059 Q0.679 0.487 1.587 0.419" stroke="hsl(120.0,100%,35%)" stroke-width="0.00015"></path>
<path d="M0.347 0.059 Q0.440 0.651 1.616 0.736" stroke="hsl(120.0,100%,35%)" stroke-width="0.00015"></path>
<path d="M1.019 0.617 Q1.013 0.774 1.320 0.812" stroke="hsl(120.0,100%,35%)" stroke-width="0.00030"></path>
<path d="M1.019 0.617 Q1.071 0.551 0.954 0.511" stroke="hsl(120.0,100%,35%)" stroke-width="0.00030"></path>
<path d="M1.019 0.617 Q1.093 0.848 1.559 0.862" stroke="hsl(120.0,100%,35%)" stroke-width="0.00045"></path>
<path d="M1.019 0.617 Q0.441 0.640 0.360 0.927" stroke="hsl(120.0,100%,35%)" stroke-width="0.00030"></path>
<path d="M0.954 0.511 Q0.810 0.481 0.720 0.544" stroke="hsl(120.0,100%,35%)" stroke-width="0.00134"></path>
<path d="M0.954 0.511 Q0.902 0.577 1.019 0.617" stroke="hsl(120.0,100%,35%)" stroke-width="0.00060"></path>
<path d="M0.954 0.511 Q1.344 0.591 1.587 0.419" stroke="hsl(120.0,100%,35%)" stroke-width="0.00015"></path>
<path d="M0.954 0.511 Q0.812 0.397 0.560 0.441" stroke="hsl(120.0,100%,35%)" stroke-width="0.00015"></path>
<path d="M1.258 0.037 Q1.117 0.294 1.587 0.419" stroke="hsl(120.0,100%,35%)" stroke-width="0.00015"></path>
<path d="M1.258 0.037 Q1.100 0.485 1.938 0.661" stroke="hsl(120.0,100%,35%)" stroke-width="0.00030"></path>
<path d="M1.258 0.037 Q1.106 -0.015 0.969 0.047" stroke="hsl(120.0,100%,35%)" stroke-width="0.00015"></path>
<path d="M1.235 0.587 Q0.952 0.248 0.228 0.312" stroke="hsl(120.0,100%,35%)" stroke-width="0.00015"></path>
<path d="M1.235 0.587 Q1.315 0.816 1.780 0.828" stroke="hsl(120.0,100%,35%)" stroke-width="0.00015"></path>
<path d="M1.235 0.587 Q1.277 0.558 1.229 0.531" stroke="hsl(120.0,100%,35%)" stroke-width="0.00015"></path>
<path d="M1.713 0.523 Q2.111 0.323 1.807 0.084" stroke="hsl(120.0,100%,35%)" stroke-width="0.00015"></path>
<path d="M1.713 0.523 Q1.716 0.637 1.938 0.661" stroke="hsl(120.0,100%,35%)" stroke-width="0.00015"></path>
<path d="M1.713 0.523 Q1.864 0.472 1.796 0.387" stroke="hsl(120.0,100%,35%)" stroke-width="0.00015"></path>
<path d="M0.131 0.137 Q0.040 0.244 0.228 0.312" stroke="hsl(120.0,100%,35%)" stroke-width="0.00045"></path>
<path d="M0.131 0.137 Q0.091 0.175 0.157 0.203" stroke="hsl(120.0,100%,35%)" stroke-width="0.00045"></path>
<path d="M0.131 0.137 Q0.197 0.198 0.331 0.180" stroke="hsl(120.0,100%,35%)" stroke-width="0.00015"></path>
</g>
<text x="0.445" y="0.660" font-size="0.034546" fill="hsl(0.0,100%,20%)">adlai</text>
<text x="0.360" y="0.898" font-size="0.056856" fill="hsl(0.0,100%,20%)">bsalomon</text>
<text x="0.118" y="0.639" font-size="0.050094" fill="hsl(0.0,100%,20%)">robertphillips</text>
<text x="0.621" y="0.812" font-size="0.044805" fill="hsl(0.0,100%,20%)">csmartdalton</text>
<text x="1.616" y="0.727" font-size="0.017891" fill="hsl(120.0,100%,20%)">rmistry</text>
<text x="1.559" y="0.851" font-size="0.023097" fill="hsl(120.0,100%,20%)">borenet</text>
<text x="1.587" y="0.398" font-size="0.042310" fill="hsl(240.0,100%,20%)">mtklein</text>
<text x="0.799" y="0.377" font-size="0.033736" fill="hsl(0.0,100%,20%)">jvanverth</text>
<text x="1.796" y="0.367" font-size="0.039208" fill="hsl(120.0,100%,20%)">reed</text>
<text x="1.320" y="0.772" font-size="0.078491" fill="hsl(240.0,100%,20%)">brianosman</text>
<text x="1.807" y="0.068" font-size="0.033085" fill="hsl(120.0,100%,20%)">kjlubick</text>
<text x="1.462" y="0.224" font-size="0.035727" fill="hsl(120.0,100%,20%)">herb</text>
<text x="1.938" y="0.645" font-size="0.031494" fill="hsl(120.0,100%,20%)">bungeman</text>
<text x="0.720" y="0.524" font-size="0.040594" fill="hsl(0.0,100%,20%)">egdaniel</text>
<text x="1.329" y="0.943" font-size="0.080529" fill="hsl(240.0,100%,20%)">johnstiles</text>
<text x="1.079" y="0.874" font-size="0.047502" fill="hsl(240.0,100%,20%)">ethannicholas</text>
<text x="1.895" y="0.810" font-size="0.015008" fill="hsl(120.0,100%,20%)">jcgregorio</text>
<text x="1.758" y="0.900" font-size="0.012092" fill="hsl(120.0,100%,20%)">westont</text>
<text x="0.131" y="0.832" font-size="0.039609" fill="hsl(0.0,100%,20%)">michaelludwig</text>
<text x="0.585" y="0.152" font-size="0.035838" fill="hsl(120.0,100%,20%)">fmalita</text>
<text x="0.822" y="0.199" font-size="0.018754" fill="hsl(120.0,100%,20%)">jmbetancourt</text>
<text x="0.228" y="0.304" font-size="0.015526" fill="hsl(120.0,100%,20%)">djsollen</text>
<text x="0.157" y="0.195" font-size="0.015269" fill="hsl(120.0,100%,20%)">scroggo</text>
<text x="1.780" y="0.824" font-size="0.006886" fill="hsl(120.0,100%,20%)">hcm</text>
<text x="0.560" y="0.324" font-size="0.005964" fill="hsl(0.0,100%,20%)">stani</text>
<text x="1.824" y="0.192" font-size="0.018754" fill="hsl(120.0,100%,20%)">nifong</text>
<text x="1.641" y="0.552" font-size="0.001988" fill="hsl(120.0,100%,20%)">grieger</text>
<text x="1.934" y="0.490" font-size="0.004445" fill="hsl(120.0,100%,20%)">drott</text>
<text x="1.779" y="0.627" font-size="0.019171" fill="hsl(120.0,100%,20%)">jlavrova</text>
<text x="1.954" y="0.020" font-size="0.001988" fill="hsl(120.0,100%,20%)">xster</text>
<text x="0.819" y="0.727" font-size="0.002811" fill="hsl(0.0,100%,20%)">junov</text>
<text x="0.347" y="0.047" font-size="0.023521" fill="hsl(120.0,100%,20%)">tdenniston</text>
<text x="1.019" y="0.613" font-size="0.007168" fill="hsl(120.0,100%,20%)">cwallez</text>
<text x="0.954" y="0.507" font-size="0.008196" fill="hsl(120.0,100%,20%)">senorblanco</text>
<text x="1.058" y="0.410" font-size="0.001988" fill="hsl(0.0,100%,20%)">sugoi</text>
<text x="0.560" y="0.440" font-size="0.002811" fill="hsl(0.0,100%,20%)">enga</text>
<text x="1.362" y="0.344" font-size="0.001988" fill="hsl(120.0,100%,20%)">jiulongw</text>
<text x="1.258" y="0.035" font-size="0.003976" fill="hsl(120.0,100%,20%)">james</text>
<text x="0.969" y="0.046" font-size="0.001988" fill="hsl(120.0,100%,20%)">cbracken</text>
<text x="1.776" y="0.721" font-size="0.001988" fill="hsl(120.0,100%,20%)">jsimmons</text>
<text x="0.828" y="0.126" font-size="0.002811" fill="hsl(120.0,100%,20%)">fuego</text>
<text x="1.581" y="0.133" font-size="0.007699" fill="hsl(120.0,100%,20%)">yjbanov</text>
<text x="1.016" y="0.264" font-size="0.001988" fill="hsl(0.0,100%,20%)">chinmaygarde</text>
<text x="1.646" y="0.158" font-size="0.007438" fill="hsl(120.0,100%,20%)">lovisolo</text>
<text x="1.615" y="0.049" font-size="0.001988" fill="hsl(120.0,100%,20%)">het</text>
<text x="0.199" y="0.746" font-size="0.001988" fill="hsl(0.0,100%,20%)">fs</text>
<text x="1.813" y="0.501" font-size="0.001988" fill="hsl(240.0,100%,20%)">pefoley</text>
<text x="1.919" y="0.208" font-size="0.001988" fill="hsl(120.0,100%,20%)">alecmouri</text>
<text x="1.235" y="0.585" font-size="0.003443" fill="hsl(120.0,100%,20%)">nikolay.igotti</text>
<text x="1.229" y="0.530" font-size="0.001988" fill="hsl(120.0,100%,20%)">jsproch</text>
<text x="1.713" y="0.522" font-size="0.003443" fill="hsl(120.0,100%,20%)">pkasting</text>
<text x="1.705" y="0.266" font-size="0.001988" fill="hsl(120.0,100%,20%)">whesse</text>
<text x="1.640" y="0.316" font-size="0.001988" fill="hsl(120.0,100%,20%)">mdebbar</text>
<text x="1.637" y="0.323" font-size="0.001988" fill="hsl(120.0,100%,20%)">thiabaud</text>
<text x="0.095" y="0.285" font-size="0.003443" fill="hsl(120.0,100%,20%)">nigeltao</text>
<text x="0.131" y="0.134" font-size="0.005260" fill="hsl(120.0,100%,20%)">vigneshv</text>
<text x="0.331" y="0.179" font-size="0.001988" fill="hsl(120.0,100%,20%)">chz</text>
</svg>
