<svg width="4000" height="2000" viewBox="-0.025 -0.025 2.05 1.05" xmlns="http://www.w3.org/2000/svg">
  <style>
    path {
      fill: none;
      stroke-linecap: round;
      stroke-opacity: 0.4;
    }

    text {
      text-anchor: middle;
      alignment-baseline: hanging;
    }
  </style>
  <g opacity="0.4">
<path d="M1.653 0.698 Q1.764 0.269 0.951 0.121" stroke="hsl(0.0,100%,35%)" stroke-width="0.00042"></path>
<path d="M1.653 0.698 Q1.227 0.239 0.239 0.346" stroke="hsl(0.0,100%,35%)" stroke-width="0.00042"></path>
<path d="M1.653 0.698 Q1.513 0.807 1.696 0.899" stroke="hsl(0.0,100%,35%)" stroke-width="0.00084"></path>
<path d="M1.653 0.698 Q1.518 0.645 1.384 0.699" stroke="hsl(0.0,100%,35%)" stroke-width="0.00084"></path>
<path d="M1.653 0.698 Q1.253 0.468 0.717 0.612" stroke="hsl(0.0,100%,35%)" stroke-width="0.00042"></path>
<path d="M1.653 0.698 Q1.560 0.572 1.294 0.590" stroke="hsl(0.0,100%,35%)" stroke-width="0.00042"></path>
<path d="M0.951 0.121 Q0.208 0.121 0.045 0.483" stroke="hsl(0.0,100%,35%)" stroke-width="0.00712"></path>
<path d="M0.951 0.121 Q0.130 0.323 0.346 0.768" stroke="hsl(0.0,100%,35%)" stroke-width="0.00251"></path>
<path d="M0.951 0.121 Q0.100 0.390 0.438 0.864" stroke="hsl(0.0,100%,35%)" stroke-width="0.00084"></path>
<path d="M0.951 0.121 Q0.701 0.659 1.696 0.899" stroke="hsl(0.0,100%,35%)" stroke-width="0.00084"></path>
<path d="M0.951 0.121 Q0.747 0.424 1.294 0.590" stroke="hsl(0.0,100%,35%)" stroke-width="0.00168"></path>
<path d="M0.951 0.121 Q0.517 0.221 0.617 0.455" stroke="hsl(0.0,100%,35%)" stroke-width="0.00335"></path>
<path d="M0.951 0.121 Q0.284 0.277 0.441 0.637" stroke="hsl(0.0,100%,35%)" stroke-width="0.00084"></path>
<path d="M0.951 0.121 Q0.415 0.091 0.239 0.346" stroke="hsl(0.0,100%,35%)" stroke-width="0.00042"></path>
<path d="M0.951 0.121 Q0.616 0.287 0.867 0.487" stroke="hsl(0.0,100%,35%)" stroke-width="0.00042"></path>
<path d="M0.951 0.121 Q0.414 0.394 0.828 0.716" stroke="hsl(0.0,100%,35%)" stroke-width="0.00084"></path>
<path d="M0.951 0.121 Q0.441 0.320 0.717 0.612" stroke="hsl(0.0,100%,35%)" stroke-width="0.00042"></path>
<path d="M0.239 0.346 Q0.166 0.409 0.272 0.458" stroke="hsl(0.0,100%,35%)" stroke-width="0.00670"></path>
<path d="M0.239 0.346 Q-0.045 0.579 0.346 0.768" stroke="hsl(0.0,100%,35%)" stroke-width="0.00754"></path>
<path d="M0.239 0.346 Q0.321 0.254 0.159 0.194" stroke="hsl(0.0,100%,35%)" stroke-width="0.00251"></path>
<path d="M0.239 0.346 Q0.525 0.914 1.696 0.899" stroke="hsl(0.0,100%,35%)" stroke-width="0.01718"></path>
<path d="M0.239 0.346 Q0.529 0.752 1.384 0.699" stroke="hsl(0.0,100%,35%)" stroke-width="0.00670"></path>
<path d="M0.239 0.346 Q0.233 0.715 0.951 0.798" stroke="hsl(0.0,100%,35%)" stroke-width="0.00084"></path>
<path d="M0.239 0.346 Q0.444 0.281 0.361 0.166" stroke="hsl(0.0,100%,35%)" stroke-width="0.00251"></path>
<path d="M0.239 0.346 Q0.572 0.679 1.294 0.590" stroke="hsl(0.0,100%,35%)" stroke-width="0.00712"></path>
<path d="M0.239 0.346 Q0.032 0.376 0.045 0.483" stroke="hsl(0.0,100%,35%)" stroke-width="0.01508"></path>
<path d="M0.239 0.346 Q0.441 0.542 0.867 0.487" stroke="hsl(0.0,100%,35%)" stroke-width="0.00042"></path>
<path d="M0.239 0.346 Q0.348 0.755 1.170 0.792" stroke="hsl(0.0,100%,35%)" stroke-width="0.00168"></path>
<path d="M0.239 0.346 Q-0.075 0.645 0.438 0.864" stroke="hsl(0.0,100%,35%)" stroke-width="0.00335"></path>
<path d="M0.239 0.346 Q0.341 0.476 0.617 0.455" stroke="hsl(0.0,100%,35%)" stroke-width="0.00712"></path>
<path d="M0.239 0.346 Q0.776 0.376 0.951 0.121" stroke="hsl(0.0,100%,35%)" stroke-width="0.00503"></path>
<path d="M0.239 0.346 Q0.099 0.783 0.921 0.947" stroke="hsl(0.0,100%,35%)" stroke-width="0.00210"></path>
<path d="M0.239 0.346 Q0.608 0.821 1.615 0.746" stroke="hsl(0.0,100%,35%)" stroke-width="0.00042"></path>
<path d="M0.239 0.346 Q0.238 0.649 0.828 0.716" stroke="hsl(0.0,100%,35%)" stroke-width="0.00251"></path>
<path d="M0.239 0.346 Q0.265 0.575 0.717 0.612" stroke="hsl(0.0,100%,35%)" stroke-width="0.00042"></path>
<path d="M0.239 0.346 Q0.427 0.207 0.196 0.085" stroke="hsl(0.0,100%,35%)" stroke-width="0.00126"></path>
<path d="M0.239 0.346 Q0.604 0.362 0.715 0.187" stroke="hsl(0.0,100%,35%)" stroke-width="0.00042"></path>
<path d="M0.239 0.346 Q0.108 0.532 0.441 0.637" stroke="hsl(0.0,100%,35%)" stroke-width="0.00042"></path>
<path d="M0.239 0.346 Q0.420 0.375 0.516 0.293" stroke="hsl(0.0,100%,35%)" stroke-width="0.00042"></path>
<path d="M0.239 0.346 Q0.183 0.455 0.383 0.506" stroke="hsl(0.0,100%,35%)" stroke-width="0.00042"></path>
<path d="M1.696 0.899 Q1.527 0.843 1.381 0.913" stroke="hsl(0.0,100%,35%)" stroke-width="0.00503"></path>
<path d="M1.696 0.899 Q1.778 0.806 1.615 0.746" stroke="hsl(0.0,100%,35%)" stroke-width="0.00084"></path>
<path d="M1.696 0.899 Q1.742 0.664 1.294 0.590" stroke="hsl(0.0,100%,35%)" stroke-width="0.00293"></path>
<path d="M1.696 0.899 Q1.410 0.331 0.239 0.346" stroke="hsl(0.0,100%,35%)" stroke-width="0.00629"></path>
<path d="M1.696 0.899 Q1.700 0.737 1.384 0.699" stroke="hsl(0.0,100%,35%)" stroke-width="0.02472"></path>
<path d="M1.696 0.899 Q1.519 0.740 1.170 0.792" stroke="hsl(0.0,100%,35%)" stroke-width="0.00251"></path>
<path d="M1.696 0.899 Q1.203 0.361 0.045 0.483" stroke="hsl(0.0,100%,35%)" stroke-width="0.00042"></path>
<path d="M1.696 0.899 Q1.337 0.394 0.272 0.458" stroke="hsl(0.0,100%,35%)" stroke-width="0.00335"></path>
<path d="M1.696 0.899 Q1.269 0.768 0.921 0.947" stroke="hsl(0.0,100%,35%)" stroke-width="0.00293"></path>
<path d="M1.696 0.899 Q1.095 0.630 0.438 0.864" stroke="hsl(0.0,100%,35%)" stroke-width="0.00084"></path>
<path d="M1.696 0.899 Q1.511 0.461 0.617 0.455" stroke="hsl(0.0,100%,35%)" stroke-width="0.00084"></path>
<path d="M1.696 0.899 Q1.878 0.742 1.612 0.619" stroke="hsl(0.0,100%,35%)" stroke-width="0.00042"></path>
<path d="M1.696 0.899 Q1.521 0.868 1.422 0.946" stroke="hsl(0.0,100%,35%)" stroke-width="0.00042"></path>
<path d="M1.696 0.899 Q1.125 0.564 0.346 0.768" stroke="hsl(0.0,100%,35%)" stroke-width="0.00042"></path>
<path d="M1.384 0.699 Q0.780 0.592 0.438 0.864" stroke="hsl(0.0,100%,35%)" stroke-width="0.00377"></path>
<path d="M1.384 0.699 Q1.463 0.769 1.615 0.746" stroke="hsl(0.0,100%,35%)" stroke-width="0.00168"></path>
<path d="M1.384 0.699 Q1.427 0.627 1.294 0.590" stroke="hsl(0.0,100%,35%)" stroke-width="0.00503"></path>
<path d="M1.384 0.699 Q1.094 0.294 0.239 0.346" stroke="hsl(0.0,100%,35%)" stroke-width="0.00126"></path>
<path d="M1.384 0.699 Q1.196 0.424 0.617 0.455" stroke="hsl(0.0,100%,35%)" stroke-width="0.00419"></path>
<path d="M1.384 0.699 Q0.810 0.526 0.346 0.768" stroke="hsl(0.0,100%,35%)" stroke-width="0.00419"></path>
<path d="M1.384 0.699 Q1.380 0.861 1.696 0.899" stroke="hsl(0.0,100%,35%)" stroke-width="0.01048"></path>
<path d="M1.384 0.699 Q1.088 0.662 0.951 0.798" stroke="hsl(0.0,100%,35%)" stroke-width="0.00042"></path>
<path d="M1.384 0.699 Q1.631 0.323 0.951 0.121" stroke="hsl(0.0,100%,35%)" stroke-width="0.00251"></path>
<path d="M1.384 0.699 Q1.296 0.489 0.867 0.487" stroke="hsl(0.0,100%,35%)" stroke-width="0.00042"></path>
<path d="M1.384 0.699 Q1.021 0.356 0.272 0.458" stroke="hsl(0.0,100%,35%)" stroke-width="0.00210"></path>
<path d="M1.384 0.699 Q0.954 0.731 0.921 0.947" stroke="hsl(0.0,100%,35%)" stroke-width="0.00042"></path>
<path d="M1.384 0.699 Q1.176 0.201 0.159 0.194" stroke="hsl(0.0,100%,35%)" stroke-width="0.00042"></path>
<path d="M0.717 0.612 Q0.690 0.686 0.828 0.716" stroke="hsl(0.0,100%,35%)" stroke-width="0.00251"></path>
<path d="M0.717 0.612 Q1.228 0.413 0.951 0.121" stroke="hsl(0.0,100%,35%)" stroke-width="0.00084"></path>
<path d="M0.717 0.612 Q0.982 0.789 1.384 0.699" stroke="hsl(0.0,100%,35%)" stroke-width="0.00084"></path>
<path d="M0.717 0.612 Q0.816 0.751 1.109 0.734" stroke="hsl(0.0,100%,35%)" stroke-width="0.00042"></path>
<path d="M0.717 0.612 Q0.977 0.951 1.696 0.899" stroke="hsl(0.0,100%,35%)" stroke-width="0.00084"></path>
<path d="M0.717 0.612 Q1.024 0.717 1.294 0.590" stroke="hsl(0.0,100%,35%)" stroke-width="0.00042"></path>
<path d="M0.717 0.612 Q0.793 0.514 0.617 0.455" stroke="hsl(0.0,100%,35%)" stroke-width="0.00042"></path>
<path d="M0.717 0.612 Q0.407 0.616 0.346 0.768" stroke="hsl(0.0,100%,35%)" stroke-width="0.00042"></path>
<path d="M0.717 0.612 Q0.377 0.682 0.438 0.864" stroke="hsl(0.0,100%,35%)" stroke-width="0.00042"></path>
<path d="M0.717 0.612 Q0.773 0.291 0.159 0.194" stroke="hsl(0.0,100%,35%)" stroke-width="0.00042"></path>
<path d="M1.294 0.590 Q1.498 0.287 0.951 0.121" stroke="hsl(0.0,100%,35%)" stroke-width="0.00251"></path>
<path d="M1.294 0.590 Q1.252 0.663 1.384 0.699" stroke="hsl(0.0,100%,35%)" stroke-width="0.02807"></path>
<path d="M1.294 0.590 Q0.647 0.556 0.438 0.864" stroke="hsl(0.0,100%,35%)" stroke-width="0.00880"></path>
<path d="M1.294 0.590 Q0.962 0.257 0.239 0.346" stroke="hsl(0.0,100%,35%)" stroke-width="0.00880"></path>
<path d="M1.294 0.590 Q1.330 0.732 1.615 0.746" stroke="hsl(0.0,100%,35%)" stroke-width="0.00084"></path>
<path d="M1.294 0.590 Q1.064 0.387 0.617 0.455" stroke="hsl(0.0,100%,35%)" stroke-width="0.00964"></path>
<path d="M1.294 0.590 Q0.677 0.490 0.346 0.768" stroke="hsl(0.0,100%,35%)" stroke-width="0.00293"></path>
<path d="M1.294 0.590 Q0.755 0.287 0.045 0.483" stroke="hsl(0.0,100%,35%)" stroke-width="0.00335"></path>
<path d="M1.294 0.590 Q1.163 0.453 0.867 0.487" stroke="hsl(0.0,100%,35%)" stroke-width="0.00210"></path>
<path d="M1.294 0.590 Q1.167 0.192 0.361 0.166" stroke="hsl(0.0,100%,35%)" stroke-width="0.00042"></path>
<path d="M1.294 0.590 Q0.822 0.694 0.921 0.947" stroke="hsl(0.0,100%,35%)" stroke-width="0.00042"></path>
<path d="M1.294 0.590 Q1.248 0.825 1.696 0.899" stroke="hsl(0.0,100%,35%)" stroke-width="0.00210"></path>
<path d="M1.294 0.590 Q0.831 0.443 0.441 0.637" stroke="hsl(0.0,100%,35%)" stroke-width="0.00042"></path>
<path d="M1.294 0.590 Q0.889 0.320 0.272 0.458" stroke="hsl(0.0,100%,35%)" stroke-width="0.00126"></path>
<path d="M1.294 0.590 Q0.988 0.486 0.717 0.612" stroke="hsl(0.0,100%,35%)" stroke-width="0.00042"></path>
<path d="M1.294 0.590 Q0.961 0.560 0.828 0.716" stroke="hsl(0.0,100%,35%)" stroke-width="0.00042"></path>
<path d="M1.294 0.590 Q1.143 0.286 0.516 0.293" stroke="hsl(0.0,100%,35%)" stroke-width="0.00712"></path>
<path d="M0.441 0.637 Q0.774 0.647 0.867 0.487" stroke="hsl(0.0,100%,35%)" stroke-width="0.00168"></path>
<path d="M0.441 0.637 Q0.288 0.683 0.346 0.768" stroke="hsl(0.0,100%,35%)" stroke-width="0.00587"></path>
<path d="M0.441 0.637 Q0.675 0.581 0.617 0.455" stroke="hsl(0.0,100%,35%)" stroke-width="0.00545"></path>
<path d="M0.441 0.637 Q0.366 0.481 0.045 0.483" stroke="hsl(0.0,100%,35%)" stroke-width="0.00126"></path>
<path d="M0.441 0.637 Q0.863 0.857 1.384 0.699" stroke="hsl(0.0,100%,35%)" stroke-width="0.00042"></path>
<path d="M0.441 0.637 Q0.573 0.451 0.239 0.346" stroke="hsl(0.0,100%,35%)" stroke-width="0.00210"></path>
<path d="M0.441 0.637 Q0.258 0.750 0.438 0.864" stroke="hsl(0.0,100%,35%)" stroke-width="0.00042"></path>
<path d="M0.441 0.637 Q1.109 0.481 0.951 0.121" stroke="hsl(0.0,100%,35%)" stroke-width="0.00042"></path>
<path d="M0.441 0.637 Q1.109 0.812 1.598 0.525" stroke="hsl(0.0,100%,35%)" stroke-width="0.00042"></path>
<path d="M0.867 0.487 Q0.767 0.421 0.617 0.455" stroke="hsl(0.0,100%,35%)" stroke-width="0.00587"></path>
<path d="M0.867 0.487 Q0.351 0.589 0.438 0.864" stroke="hsl(0.0,100%,35%)" stroke-width="0.00084"></path>
<path d="M0.867 0.487 Q0.998 0.624 1.294 0.590" stroke="hsl(0.0,100%,35%)" stroke-width="0.00084"></path>
<path d="M0.867 0.487 Q0.459 0.320 0.045 0.483" stroke="hsl(0.0,100%,35%)" stroke-width="0.00042"></path>
<path d="M0.867 0.487 Q1.202 0.321 0.951 0.121" stroke="hsl(0.0,100%,35%)" stroke-width="0.00042"></path>
<path d="M0.867 0.487 Q0.747 0.199 0.159 0.194" stroke="hsl(0.0,100%,35%)" stroke-width="0.00042"></path>
<path d="M0.867 0.487 Q0.692 0.520 0.717 0.612" stroke="hsl(0.0,100%,35%)" stroke-width="0.00042"></path>
<path d="M0.346 0.768 Q0.732 0.666 0.617 0.455" stroke="hsl(0.0,100%,35%)" stroke-width="0.01886"></path>
<path d="M0.346 0.768 Q1.167 0.566 0.951 0.121" stroke="hsl(0.0,100%,35%)" stroke-width="0.00251"></path>
<path d="M0.346 0.768 Q0.963 0.869 1.294 0.590" stroke="hsl(0.0,100%,35%)" stroke-width="0.00293"></path>
<path d="M0.346 0.768 Q0.316 0.835 0.438 0.864" stroke="hsl(0.0,100%,35%)" stroke-width="0.01592"></path>
<path d="M0.346 0.768 Q0.916 1.104 1.696 0.899" stroke="hsl(0.0,100%,35%)" stroke-width="0.00210"></path>
<path d="M0.346 0.768 Q0.423 0.566 0.045 0.483" stroke="hsl(0.0,100%,35%)" stroke-width="0.00168"></path>
<path d="M0.346 0.768 Q0.630 0.536 0.239 0.346" stroke="hsl(0.0,100%,35%)" stroke-width="0.00335"></path>
<path d="M0.346 0.768 Q0.499 0.722 0.441 0.637" stroke="hsl(0.0,100%,35%)" stroke-width="0.00545"></path>
<path d="M0.346 0.768 Q0.832 0.732 0.867 0.487" stroke="hsl(0.0,100%,35%)" stroke-width="0.00168"></path>
<path d="M0.346 0.768 Q0.920 0.942 1.384 0.699" stroke="hsl(0.0,100%,35%)" stroke-width="0.00587"></path>
<path d="M0.346 0.768 Q0.999 1.011 1.615 0.746" stroke="hsl(0.0,100%,35%)" stroke-width="0.00084"></path>
<path d="M0.346 0.768 Q0.490 0.973 0.921 0.947" stroke="hsl(0.0,100%,35%)" stroke-width="0.00042"></path>
<path d="M0.617 0.455 Q0.201 0.624 0.438 0.864" stroke="hsl(0.0,100%,35%)" stroke-width="0.02724"></path>
<path d="M0.617 0.455 Q0.231 0.558 0.346 0.768" stroke="hsl(0.0,100%,35%)" stroke-width="0.01550"></path>
<path d="M0.617 0.455 Q0.515 0.325 0.239 0.346" stroke="hsl(0.0,100%,35%)" stroke-width="0.00126"></path>
<path d="M0.617 0.455 Q0.717 0.521 0.867 0.487" stroke="hsl(0.0,100%,35%)" stroke-width="0.01341"></path>
<path d="M0.617 0.455 Q0.384 0.511 0.441 0.637" stroke="hsl(0.0,100%,35%)" stroke-width="0.00335"></path>
<path d="M0.617 0.455 Q0.806 0.731 1.384 0.699" stroke="hsl(0.0,100%,35%)" stroke-width="0.00629"></path>
<path d="M0.617 0.455 Q0.848 0.658 1.294 0.590" stroke="hsl(0.0,100%,35%)" stroke-width="0.00377"></path>
<path d="M0.617 0.455 Q0.802 0.893 1.696 0.899" stroke="hsl(0.0,100%,35%)" stroke-width="0.00042"></path>
<path d="M0.617 0.455 Q1.052 0.355 0.951 0.121" stroke="hsl(0.0,100%,35%)" stroke-width="0.01048"></path>
<path d="M0.617 0.455 Q0.542 0.554 0.717 0.612" stroke="hsl(0.0,100%,35%)" stroke-width="0.00042"></path>
<path d="M0.617 0.455 Q0.309 0.355 0.045 0.483" stroke="hsl(0.0,100%,35%)" stroke-width="0.00126"></path>
<path d="M0.617 0.455 Q0.696 0.354 0.516 0.293" stroke="hsl(0.0,100%,35%)" stroke-width="0.00042"></path>
<path d="M0.045 0.483 Q0.353 0.584 0.617 0.455" stroke="hsl(0.0,100%,35%)" stroke-width="0.00210"></path>
<path d="M0.045 0.483 Q0.788 0.483 0.951 0.121" stroke="hsl(0.0,100%,35%)" stroke-width="0.00461"></path>
<path d="M0.045 0.483 Q0.251 0.454 0.239 0.346" stroke="hsl(0.0,100%,35%)" stroke-width="0.00084"></path>
<path d="M0.045 0.483 Q-0.063 0.752 0.438 0.864" stroke="hsl(0.0,100%,35%)" stroke-width="0.00210"></path>
<path d="M0.045 0.483 Q0.250 0.756 0.828 0.716" stroke="hsl(0.0,100%,35%)" stroke-width="0.00042"></path>
<path d="M0.045 0.483 Q-0.033 0.686 0.346 0.768" stroke="hsl(0.0,100%,35%)" stroke-width="0.00042"></path>
<path d="M0.438 0.864 Q0.468 0.798 0.346 0.768" stroke="hsl(0.0,100%,35%)" stroke-width="0.02975"></path>
<path d="M0.438 0.864 Q1.085 0.898 1.294 0.590" stroke="hsl(0.0,100%,35%)" stroke-width="0.00377"></path>
<path d="M0.438 0.864 Q1.289 0.595 0.951 0.121" stroke="hsl(0.0,100%,35%)" stroke-width="0.00754"></path>
<path d="M0.438 0.864 Q0.854 0.695 0.617 0.455" stroke="hsl(0.0,100%,35%)" stroke-width="0.00796"></path>
<path d="M0.438 0.864 Q0.680 0.628 0.272 0.458" stroke="hsl(0.0,100%,35%)" stroke-width="0.00084"></path>
<path d="M0.438 0.864 Q1.043 0.971 1.384 0.699" stroke="hsl(0.0,100%,35%)" stroke-width="0.00084"></path>
<path d="M0.438 0.864 Q0.753 0.565 0.239 0.346" stroke="hsl(0.0,100%,35%)" stroke-width="0.00126"></path>
<path d="M0.438 0.864 Q0.779 0.794 0.717 0.612" stroke="hsl(0.0,100%,35%)" stroke-width="0.00042"></path>
<path d="M0.438 0.864 Q1.039 1.133 1.696 0.899" stroke="hsl(0.0,100%,35%)" stroke-width="0.00042"></path>
<path d="M0.438 0.864 Q0.933 0.594 0.516 0.293" stroke="hsl(0.0,100%,35%)" stroke-width="0.00042"></path>
<path d="M1.598 0.525 Q1.352 0.569 1.384 0.699" stroke="hsl(0.0,100%,35%)" stroke-width="0.00796"></path>
<path d="M1.598 0.525 Q1.348 0.732 1.696 0.899" stroke="hsl(0.0,100%,35%)" stroke-width="0.00084"></path>
<path d="M1.598 0.525 Q1.088 0.393 0.717 0.612" stroke="hsl(0.0,100%,35%)" stroke-width="0.00042"></path>
<path d="M1.361 0.205 Q1.224 0.081 0.951 0.121" stroke="hsl(0.0,100%,35%)" stroke-width="0.00168"></path>
<path d="M1.361 0.205 Q0.789 0.182 0.617 0.455" stroke="hsl(0.0,100%,35%)" stroke-width="0.00084"></path>
<path d="M1.361 0.205 Q0.481 0.081 0.045 0.483" stroke="hsl(0.0,100%,35%)" stroke-width="0.00084"></path>
<path d="M0.921 0.947 Q1.061 0.511 0.239 0.346" stroke="hsl(0.0,100%,35%)" stroke-width="0.00126"></path>
<path d="M0.921 0.947 Q1.055 0.879 0.951 0.798" stroke="hsl(0.0,100%,35%)" stroke-width="0.00168"></path>
<path d="M0.921 0.947 Q1.347 1.078 1.696 0.899" stroke="hsl(0.0,100%,35%)" stroke-width="0.00042"></path>
<path d="M0.921 0.947 Q1.393 0.844 1.294 0.590" stroke="hsl(0.0,100%,35%)" stroke-width="0.00042"></path>
<path d="M0.921 0.947 Q0.776 0.743 0.346 0.768" stroke="hsl(0.0,100%,35%)" stroke-width="0.00042"></path>
<path d="M0.921 0.947 Q1.597 0.540 0.951 0.121" stroke="hsl(0.0,100%,35%)" stroke-width="0.00042"></path>
<path d="M0.921 0.947 Q0.746 0.809 0.438 0.864" stroke="hsl(0.0,100%,35%)" stroke-width="0.00042"></path>
<path d="M0.272 0.458 Q0.345 0.396 0.239 0.346" stroke="hsl(0.0,100%,35%)" stroke-width="0.00293"></path>
<path d="M0.272 0.458 Q0.031 0.694 0.438 0.864" stroke="hsl(0.0,100%,35%)" stroke-width="0.00042"></path>
<path d="M0.272 0.458 Q0.636 0.801 1.384 0.699" stroke="hsl(0.0,100%,35%)" stroke-width="0.00126"></path>
<path d="M0.272 0.458 Q0.631 0.963 1.696 0.899" stroke="hsl(0.0,100%,35%)" stroke-width="0.00168"></path>
<path d="M0.272 0.458 Q0.533 0.256 0.196 0.085" stroke="hsl(0.0,100%,35%)" stroke-width="0.00126"></path>
<path d="M0.272 0.458 Q0.447 0.526 0.617 0.455" stroke="hsl(0.0,100%,35%)" stroke-width="0.00042"></path>
<path d="M0.272 0.458 Q0.184 0.498 0.243 0.550" stroke="hsl(0.0,100%,35%)" stroke-width="0.00042"></path>
<path d="M0.272 0.458 Q0.427 0.303 0.159 0.194" stroke="hsl(0.0,100%,35%)" stroke-width="0.00084"></path>
<path d="M0.272 0.458 Q0.678 0.729 1.294 0.590" stroke="hsl(0.0,100%,35%)" stroke-width="0.00084"></path>
<path d="M0.159 0.194 Q-0.130 0.315 0.045 0.483" stroke="hsl(0.0,100%,35%)" stroke-width="0.00042"></path>
<path d="M0.159 0.194 Q-0.208 0.518 0.346 0.768" stroke="hsl(0.0,100%,35%)" stroke-width="0.00042"></path>
<path d="M0.159 0.194 Q0.265 0.147 0.196 0.085" stroke="hsl(0.0,100%,35%)" stroke-width="0.00084"></path>
<path d="M0.159 0.194 Q0.004 0.349 0.272 0.458" stroke="hsl(0.0,100%,35%)" stroke-width="0.00084"></path>
<path d="M0.607 0.542 Q1.116 0.400 0.951 0.121" stroke="hsl(0.0,100%,35%)" stroke-width="0.00251"></path>
<path d="M0.607 0.542 Q0.265 0.669 0.438 0.864" stroke="hsl(0.0,100%,35%)" stroke-width="0.00168"></path>
<path d="M0.607 0.542 Q0.295 0.603 0.346 0.768" stroke="hsl(0.0,100%,35%)" stroke-width="0.00126"></path>
<path d="M0.607 0.542 Q0.681 0.501 0.617 0.455" stroke="hsl(0.0,100%,35%)" stroke-width="0.00042"></path>
<path d="M1.381 0.913 Q1.263 0.401 0.239 0.346" stroke="hsl(0.0,100%,35%)" stroke-width="0.00210"></path>
<path d="M1.381 0.913 Q1.549 0.969 1.696 0.899" stroke="hsl(0.0,100%,35%)" stroke-width="0.01048"></path>
<path d="M1.381 0.913 Q1.372 0.810 1.170 0.792" stroke="hsl(0.0,100%,35%)" stroke-width="0.00042"></path>
<path d="M1.381 0.913 Q1.553 0.807 1.384 0.699" stroke="hsl(0.0,100%,35%)" stroke-width="0.00042"></path>
<path d="M1.381 0.913 Q1.289 0.630 0.717 0.612" stroke="hsl(0.0,100%,35%)" stroke-width="0.00042"></path>
<path d="M1.170 0.792 Q1.348 0.951 1.696 0.899" stroke="hsl(0.0,100%,35%)" stroke-width="0.00377"></path>
<path d="M1.170 0.792 Q1.061 0.383 0.239 0.346" stroke="hsl(0.0,100%,35%)" stroke-width="0.00042"></path>
<path d="M1.170 0.792 Q1.179 0.894 1.381 0.913" stroke="hsl(0.0,100%,35%)" stroke-width="0.00084"></path>
<path d="M1.170 0.792 Q0.989 0.446 0.272 0.458" stroke="hsl(0.0,100%,35%)" stroke-width="0.00084"></path>
<path d="M1.612 0.619 Q1.138 0.576 0.951 0.798" stroke="hsl(0.0,100%,35%)" stroke-width="0.00042"></path>
<path d="M1.612 0.619 Q1.434 0.614 1.384 0.699" stroke="hsl(0.0,100%,35%)" stroke-width="0.00042"></path>
<path d="M1.612 0.619 Q1.144 0.208 0.239 0.346" stroke="hsl(0.0,100%,35%)" stroke-width="0.00042"></path>
<path d="M1.612 0.619 Q1.430 0.776 1.696 0.899" stroke="hsl(0.0,100%,35%)" stroke-width="0.00042"></path>
<path d="M1.612 0.619 Q1.476 0.541 1.294 0.590" stroke="hsl(0.0,100%,35%)" stroke-width="0.00084"></path>
<path d="M1.612 0.619 Q1.680 0.238 0.951 0.121" stroke="hsl(0.0,100%,35%)" stroke-width="0.00126"></path>
<path d="M0.196 0.085 Q0.008 0.224 0.239 0.346" stroke="hsl(0.0,100%,35%)" stroke-width="0.00042"></path>
<path d="M0.196 0.085 Q-0.065 0.287 0.272 0.458" stroke="hsl(0.0,100%,35%)" stroke-width="0.00084"></path>
<path d="M0.196 0.085 Q0.090 0.132 0.159 0.194" stroke="hsl(0.0,100%,35%)" stroke-width="0.00042"></path>
<path d="M1.017 0.809 Q1.288 0.827 1.384 0.699" stroke="hsl(0.0,100%,35%)" stroke-width="0.00168"></path>
<path d="M1.017 0.809 Q1.024 0.651 0.717 0.612" stroke="hsl(0.0,100%,35%)" stroke-width="0.00042"></path>
<path d="M1.017 0.809 Q0.683 0.720 0.438 0.864" stroke="hsl(0.0,100%,35%)" stroke-width="0.00042"></path>
<path d="M1.017 0.809 Q1.331 0.755 1.294 0.590" stroke="hsl(0.0,100%,35%)" stroke-width="0.00084"></path>
<path d="M1.921 0.704 Q1.657 0.594 1.384 0.699" stroke="hsl(0.0,100%,35%)" stroke-width="0.00042"></path>
<path d="M1.921 0.704 Q1.652 0.756 1.696 0.899" stroke="hsl(0.0,100%,35%)" stroke-width="0.00084"></path>
<path d="M1.921 0.704 Q1.468 0.319 0.617 0.455" stroke="hsl(0.0,100%,35%)" stroke-width="0.00042"></path>
<path d="M1.694 0.749 Q1.621 0.589 1.294 0.590" stroke="hsl(0.0,100%,35%)" stroke-width="0.00042"></path>
<path d="M1.694 0.749 Q1.390 0.387 0.617 0.455" stroke="hsl(0.0,100%,35%)" stroke-width="0.00042"></path>
<path d="M1.694 0.749 Q1.579 0.662 1.384 0.699" stroke="hsl(0.0,100%,35%)" stroke-width="0.00084"></path>
<path d="M1.694 0.749 Q1.289 0.256 0.239 0.346" stroke="hsl(0.0,100%,35%)" stroke-width="0.00084"></path>
<path d="M0.828 0.716 Q1.366 0.443 0.951 0.121" stroke="hsl(0.0,100%,35%)" stroke-width="0.00084"></path>
<path d="M0.828 0.716 Q0.622 0.443 0.045 0.483" stroke="hsl(0.0,100%,35%)" stroke-width="0.00126"></path>
<path d="M0.828 0.716 Q0.855 0.642 0.717 0.612" stroke="hsl(0.0,100%,35%)" stroke-width="0.00461"></path>
<path d="M0.828 0.716 Q0.515 0.712 0.438 0.864" stroke="hsl(0.0,100%,35%)" stroke-width="0.00042"></path>
<path d="M0.828 0.716 Q0.545 0.646 0.346 0.768" stroke="hsl(0.0,100%,35%)" stroke-width="0.00042"></path>
<path d="M0.828 0.716 Q1.119 0.819 1.384 0.699" stroke="hsl(0.0,100%,35%)" stroke-width="0.00042"></path>
<path d="M1.022 0.318 Q1.144 0.205 0.951 0.121" stroke="hsl(0.0,100%,35%)" stroke-width="0.00042"></path>
<path d="M1.022 0.318 Q0.709 0.305 0.617 0.455" stroke="hsl(0.0,100%,35%)" stroke-width="0.00042"></path>
<path d="M1.022 0.318 Q0.898 0.581 1.384 0.699" stroke="hsl(0.0,100%,35%)" stroke-width="0.00042"></path>
<path d="M0.875 0.586 Q0.775 0.568 0.717 0.612" stroke="hsl(0.0,100%,35%)" stroke-width="0.00042"></path>
<path d="M0.875 0.586 Q1.039 0.744 1.384 0.699" stroke="hsl(0.0,100%,35%)" stroke-width="0.00042"></path>
<path d="M0.875 0.586 Q0.749 0.339 0.239 0.346" stroke="hsl(0.0,100%,35%)" stroke-width="0.00042"></path>
<path d="M0.361 0.166 Q0.156 0.232 0.239 0.346" stroke="hsl(0.0,100%,35%)" stroke-width="0.01173"></path>
<path d="M0.361 0.166 Q0.274 0.743 1.381 0.913" stroke="hsl(0.0,100%,35%)" stroke-width="0.00042"></path>
<path d="M0.361 0.166 Q0.446 0.637 1.384 0.699" stroke="hsl(0.0,100%,35%)" stroke-width="0.00084"></path>
<path d="M0.361 0.166 Q0.442 0.800 1.696 0.899" stroke="hsl(0.0,100%,35%)" stroke-width="0.00042"></path>
<path d="M0.516 0.293 Q0.437 0.395 0.617 0.455" stroke="hsl(0.0,100%,35%)" stroke-width="0.01006"></path>
<path d="M0.516 0.293 Q0.335 0.264 0.239 0.346" stroke="hsl(0.0,100%,35%)" stroke-width="0.00126"></path>
<path d="M0.516 0.293 Q0.537 0.460 0.867 0.487" stroke="hsl(0.0,100%,35%)" stroke-width="0.00629"></path>
<path d="M0.516 0.293 Q0.668 0.597 1.294 0.590" stroke="hsl(0.0,100%,35%)" stroke-width="0.00461"></path>
<path d="M0.516 0.293 Q0.204 0.450 0.441 0.637" stroke="hsl(0.0,100%,35%)" stroke-width="0.00042"></path>
<path d="M0.516 0.293 Q0.021 0.563 0.438 0.864" stroke="hsl(0.0,100%,35%)" stroke-width="0.00042"></path>
<path d="M0.516 0.293 Q0.129 0.294 0.045 0.483" stroke="hsl(0.0,100%,35%)" stroke-width="0.00084"></path>
<path d="M0.065 0.363 Q0.456 0.795 1.384 0.699" stroke="hsl(0.0,100%,35%)" stroke-width="0.00042"></path>
<path d="M0.065 0.363 Q0.267 0.519 0.617 0.455" stroke="hsl(0.0,100%,35%)" stroke-width="0.00042"></path>
<path d="M0.065 0.363 Q-0.041 0.419 0.045 0.483" stroke="hsl(0.0,100%,35%)" stroke-width="0.00042"></path>
<path d="M1.482 0.617 Q1.367 0.639 1.384 0.699" stroke="hsl(0.0,100%,35%)" stroke-width="0.00126"></path>
<path d="M1.482 0.617 Q1.363 0.801 1.696 0.899" stroke="hsl(0.0,100%,35%)" stroke-width="0.00084"></path>
<path d="M1.482 0.617 Q1.004 0.296 0.272 0.458" stroke="hsl(0.0,100%,35%)" stroke-width="0.00168"></path>
<path d="M1.482 0.617 Q0.762 0.532 0.438 0.864" stroke="hsl(0.0,100%,35%)" stroke-width="0.00042"></path>
<path d="M0.836 0.358 Q0.649 0.363 0.617 0.455" stroke="hsl(0.0,100%,35%)" stroke-width="0.00335"></path>
<path d="M0.836 0.358 Q0.546 0.535 0.828 0.716" stroke="hsl(0.0,100%,35%)" stroke-width="0.00042"></path>
<path d="M0.836 0.358 Q0.916 0.708 1.615 0.746" stroke="hsl(0.0,100%,35%)" stroke-width="0.00042"></path>
<path d="M0.836 0.358 Q0.833 0.801 1.696 0.899" stroke="hsl(0.0,100%,35%)" stroke-width="0.00042"></path>
<path d="M0.836 0.358 Q1.084 0.263 0.951 0.121" stroke="hsl(0.0,100%,35%)" stroke-width="0.00251"></path>
<path d="M0.836 0.358 Q0.263 0.465 0.346 0.768" stroke="hsl(0.0,100%,35%)" stroke-width="0.00042"></path>
<path d="M1.099 0.308 Q1.175 0.185 0.951 0.121" stroke="hsl(0.0,100%,35%)" stroke-width="0.00084"></path>
<path d="M1.099 0.308 Q0.740 0.285 0.617 0.455" stroke="hsl(0.0,100%,35%)" stroke-width="0.00084"></path>
<path d="M1.099 0.308 Q0.432 0.185 0.045 0.483" stroke="hsl(0.0,100%,35%)" stroke-width="0.00042"></path>
<path d="M1.099 0.308 Q0.324 0.454 0.438 0.864" stroke="hsl(0.0,100%,35%)" stroke-width="0.00042"></path>
<path d="M1.031 0.756 Q1.253 0.799 1.384 0.699" stroke="hsl(0.0,100%,35%)" stroke-width="0.00168"></path>
<path d="M1.031 0.756 Q0.678 0.625 0.346 0.768" stroke="hsl(0.0,100%,35%)" stroke-width="0.00126"></path>
<path d="M1.031 0.756 Q1.296 0.726 1.294 0.590" stroke="hsl(0.0,100%,35%)" stroke-width="0.00042"></path>
<path d="M1.031 0.756 Q1.065 0.523 0.617 0.455" stroke="hsl(0.0,100%,35%)" stroke-width="0.00084"></path>
<path d="M1.290 0.069 Q1.079 0.027 0.951 0.121" stroke="hsl(0.0,100%,35%)" stroke-width="0.00251"></path>
<path d="M1.290 0.069 Q0.258 0.230 0.346 0.768" stroke="hsl(0.0,100%,35%)" stroke-width="0.00042"></path>
<path d="M1.290 0.069 Q0.645 0.128 0.617 0.455" stroke="hsl(0.0,100%,35%)" stroke-width="0.00293"></path>
<path d="M0.323 0.437 Q0.640 0.943 1.696 0.899" stroke="hsl(0.0,100%,35%)" stroke-width="0.00042"></path>
<path d="M0.323 0.437 Q0.456 0.505 0.617 0.455" stroke="hsl(0.0,100%,35%)" stroke-width="0.00084"></path>
<path d="M0.323 0.437 Q0.644 0.781 1.384 0.699" stroke="hsl(0.0,100%,35%)" stroke-width="0.00042"></path>
</g>
<text x="1.653" y="0.693" font-size="0.009997" fill="hsl(0.0,100%,20%)">aperez</text>
<text x="0.951" y="0.098" font-size="0.045538" fill="hsl(0.0,100%,20%)">egdaniel</text>
<text x="0.239" y="0.314" font-size="0.064594" fill="hsl(0.0,100%,20%)">kjlubick</text>
<text x="1.696" y="0.871" font-size="0.056661" fill="hsl(0.0,100%,20%)">bungeman</text>
<text x="1.384" y="0.668" font-size="0.062330" fill="hsl(0.0,100%,20%)">brianosman</text>
<text x="0.717" y="0.601" font-size="0.022354" fill="hsl(0.0,100%,20%)">scroggo</text>
<text x="1.294" y="0.561" font-size="0.059037" fill="hsl(0.0,100%,20%)">johnstiles</text>
<text x="0.441" y="0.622" font-size="0.029359" fill="hsl(0.0,100%,20%)">armansito</text>
<text x="0.867" y="0.470" font-size="0.032586" fill="hsl(0.0,100%,20%)">jamesgk</text>
<text x="0.346" y="0.737" font-size="0.063620" fill="hsl(0.0,100%,20%)">jvanverth</text>
<text x="0.617" y="0.420" font-size="0.071567" fill="hsl(0.0,100%,20%)">michaelludwig</text>
<text x="0.045" y="0.465" font-size="0.036731" fill="hsl(0.0,100%,20%)">nicolettep</text>
<text x="0.438" y="0.834" font-size="0.060396" fill="hsl(0.0,100%,20%)">robertphillips</text>
<text x="1.598" y="0.517" font-size="0.016951" fill="hsl(0.0,100%,20%)">ccameron</text>
<text x="1.361" y="0.200" font-size="0.009997" fill="hsl(0.0,100%,20%)">blundell</text>
<text x="0.921" y="0.938" font-size="0.018365" fill="hsl(0.0,100%,20%)">borenet</text>
<text x="0.951" y="0.793" font-size="0.009997" fill="hsl(0.0,100%,20%)">rmistry</text>
<text x="1.615" y="0.740" font-size="0.012244" fill="hsl(0.0,100%,20%)">herb</text>
<text x="0.272" y="0.444" font-size="0.029146" fill="hsl(0.0,100%,20%)">fmalita</text>
<text x="0.159" y="0.186" font-size="0.014995" fill="hsl(0.0,100%,20%)">jmbetancourt</text>
<text x="0.607" y="0.535" font-size="0.013225" fill="hsl(0.0,100%,20%)">briansalomon</text>
<text x="1.381" y="0.900" font-size="0.024487" fill="hsl(0.0,100%,20%)">drott</text>
<text x="1.170" y="0.783" font-size="0.017672" fill="hsl(0.0,100%,20%)">jlavrova</text>
<text x="1.612" y="0.613" font-size="0.011177" fill="hsl(0.0,100%,20%)">jcgregorio</text>
<text x="1.422" y="0.945" font-size="0.003534" fill="hsl(0.0,100%,20%)">hcm</text>
<text x="0.196" y="0.078" font-size="0.012244" fill="hsl(0.0,100%,20%)">bwils</text>
<text x="1.017" y="0.804" font-size="0.009997" fill="hsl(0.0,100%,20%)">chengyangyang-hf</text>
<text x="1.921" y="0.700" font-size="0.007069" fill="hsl(0.0,100%,20%)">coldpalelight</text>
<text x="1.694" y="0.744" font-size="0.008658" fill="hsl(0.0,100%,20%)">dcheng</text>
<text x="0.828" y="0.705" font-size="0.021207" fill="hsl(0.0,100%,20%)">nscobie</text>
<text x="0.243" y="0.549" font-size="0.003534" fill="hsl(0.0,100%,20%)">sharaks</text>
<text x="1.022" y="0.314" font-size="0.006122" fill="hsl(0.0,100%,20%)">geofflang</text>
<text x="0.875" y="0.583" font-size="0.006122" fill="hsl(0.0,100%,20%)">jgaillard</text>
<text x="0.361" y="0.155" font-size="0.022073" fill="hsl(0.0,100%,20%)">lovisolo</text>
<text x="0.516" y="0.278" font-size="0.031014" fill="hsl(0.0,100%,20%)">nathanasanchez</text>
<text x="0.715" y="0.186" font-size="0.003534" fill="hsl(0.0,100%,20%)">mingkong</text>
<text x="0.383" y="0.504" font-size="0.003534" fill="hsl(0.0,100%,20%)">ashwinpv</text>
<text x="0.065" y="0.360" font-size="0.006122" fill="hsl(0.0,100%,20%)">lokokung</text>
<text x="1.482" y="0.611" font-size="0.011177" fill="hsl(0.0,100%,20%)">mike</text>
<text x="0.836" y="0.351" font-size="0.014995" fill="hsl(0.0,100%,20%)">penghuang</text>
<text x="1.099" y="0.304" font-size="0.008658" fill="hsl(0.0,100%,20%)">petermcneeley</text>
<text x="1.109" y="0.732" font-size="0.003534" fill="hsl(0.0,100%,20%)">jreck</text>
<text x="1.031" y="0.751" font-size="0.011177" fill="hsl(0.0,100%,20%)">sky</text>
<text x="1.290" y="0.063" font-size="0.013225" fill="hsl(0.0,100%,20%)">sunnyps</text>
<text x="0.323" y="0.434" font-size="0.007069" fill="hsl(0.0,100%,20%)">tangm</text>
</svg>
