<svg width="4000" height="2000" viewBox="-0.025 -0.025 2.05 1.05" xmlns="http://www.w3.org/2000/svg">
  <style>
    path {
      fill: none;
      stroke-linecap: round;
      stroke-opacity: 0.4;
    }

    text {
      text-anchor: middle;
      alignment-baseline: hanging;
    }
  </style>
  <g opacity="0.4">
<path d="M1.155 0.545 Q1.166 0.445 0.974 0.418" stroke="hsl(0.0,100%,35%)" stroke-width="0.00207"></path>
<path d="M1.155 0.545 Q1.097 0.192 0.395 0.142" stroke="hsl(0.0,100%,35%)" stroke-width="0.00103"></path>
<path d="M1.155 0.545 Q1.112 0.315 0.654 0.286" stroke="hsl(0.0,100%,35%)" stroke-width="0.00103"></path>
<path d="M0.643 0.207 Q0.571 0.125 0.395 0.142" stroke="hsl(0.0,100%,35%)" stroke-width="0.17042"></path>
<path d="M0.643 0.207 Q0.649 0.308 0.846 0.327" stroke="hsl(0.0,100%,35%)" stroke-width="0.00620"></path>
<path d="M0.643 0.207 Q0.998 0.165 0.993 -0.018" stroke="hsl(0.0,100%,35%)" stroke-width="0.00103"></path>
<path d="M0.643 0.207 Q0.267 0.197 0.164 0.379" stroke="hsl(0.0,100%,35%)" stroke-width="0.04958"></path>
<path d="M0.643 0.207 Q0.911 -0.012 0.542 -0.190" stroke="hsl(0.0,100%,35%)" stroke-width="0.00103"></path>
<path d="M0.643 0.207 Q0.431 0.184 0.339 0.282" stroke="hsl(0.0,100%,35%)" stroke-width="0.00103"></path>
<path d="M0.643 0.207 Q0.774 0.266 0.917 0.215" stroke="hsl(0.0,100%,35%)" stroke-width="0.00723"></path>
<path d="M0.643 0.207 Q0.640 0.379 0.974 0.418" stroke="hsl(0.0,100%,35%)" stroke-width="0.01343"></path>
<path d="M0.643 0.207 Q0.940 0.196 0.983 0.049" stroke="hsl(0.0,100%,35%)" stroke-width="0.00103"></path>
<path d="M0.643 0.207 Q0.554 0.244 0.607 0.296" stroke="hsl(0.0,100%,35%)" stroke-width="0.00103"></path>
<path d="M0.643 0.207 Q0.762 0.127 0.632 0.051" stroke="hsl(0.0,100%,35%)" stroke-width="0.00207"></path>
<path d="M0.164 0.379 Q0.538 0.560 0.974 0.418" stroke="hsl(0.0,100%,35%)" stroke-width="0.03305"></path>
<path d="M0.164 0.379 Q0.469 0.307 0.395 0.142" stroke="hsl(0.0,100%,35%)" stroke-width="0.00826"></path>
<path d="M0.164 0.379 Q0.484 0.430 0.654 0.286" stroke="hsl(0.0,100%,35%)" stroke-width="0.00413"></path>
<path d="M1.557 0.460 Q1.472 0.657 1.838 0.742" stroke="hsl(0.0,100%,35%)" stroke-width="0.00103"></path>
<path d="M1.557 0.460 Q1.299 0.322 0.974 0.418" stroke="hsl(0.0,100%,35%)" stroke-width="0.00103"></path>
<path d="M1.557 0.460 Q1.231 0.069 0.395 0.142" stroke="hsl(0.0,100%,35%)" stroke-width="0.00103"></path>
<path d="M0.774 0.465 Q0.912 0.481 0.974 0.418" stroke="hsl(0.0,100%,35%)" stroke-width="0.06404"></path>
<path d="M0.774 0.465 Q0.538 0.300 0.164 0.379" stroke="hsl(0.0,100%,35%)" stroke-width="0.00207"></path>
<path d="M0.774 0.465 Q0.843 0.228 0.395 0.142" stroke="hsl(0.0,100%,35%)" stroke-width="0.04648"></path>
<path d="M0.774 0.465 Q1.045 0.369 0.917 0.215" stroke="hsl(0.0,100%,35%)" stroke-width="0.00103"></path>
<path d="M0.774 0.465 Q0.858 0.351 0.654 0.286" stroke="hsl(0.0,100%,35%)" stroke-width="0.00103"></path>
<path d="M1.251 0.478 Q1.161 0.392 0.974 0.418" stroke="hsl(0.0,100%,35%)" stroke-width="0.01549"></path>
<path d="M1.251 0.478 Q1.092 0.139 0.395 0.142" stroke="hsl(0.0,100%,35%)" stroke-width="0.00723"></path>
<path d="M1.216 0.750 Q1.360 0.535 0.974 0.418" stroke="hsl(0.0,100%,35%)" stroke-width="0.00103"></path>
<path d="M1.216 0.750 Q0.989 0.648 0.741 0.737" stroke="hsl(0.0,100%,35%)" stroke-width="0.00103"></path>
<path d="M1.216 0.750 Q1.292 0.282 0.395 0.142" stroke="hsl(0.0,100%,35%)" stroke-width="0.00103"></path>
</g>
<text x="1.155" y="0.538" font-size="0.013593" fill="hsl(0.0,100%,20%)">andre.kempe</text>
<text x="0.974" y="0.380" font-size="0.076288" fill="hsl(0.0,100%,20%)">nicolascapens</text>
<text x="0.395" y="0.091" font-size="0.102622" fill="hsl(0.0,100%,20%)">sugoi</text>
<text x="0.654" y="0.277" font-size="0.016647" fill="hsl(0.0,100%,20%)">bclayton</text>
<text x="0.643" y="0.154" font-size="0.106595" fill="hsl(0.0,100%,20%)">capn</text>
<text x="0.846" y="0.319" font-size="0.016647" fill="hsl(0.0,100%,20%)">amaiorano</text>
<text x="0.993" y="-0.021" font-size="0.006796" fill="hsl(0.0,100%,20%)">aeubanks</text>
<text x="0.164" y="0.346" font-size="0.065892" fill="hsl(0.0,100%,20%)">srisser</text>
<text x="0.542" y="-0.194" font-size="0.006796" fill="hsl(0.0,100%,20%)">mikaelpessa</text>
<text x="0.339" y="0.279" font-size="0.006796" fill="hsl(0.0,100%,20%)">joshuaduong</text>
<text x="0.917" y="0.206" font-size="0.019223" fill="hsl(0.0,100%,20%)">natsu</text>
<text x="0.983" y="0.045" font-size="0.006796" fill="hsl(0.0,100%,20%)">liyl</text>
<text x="0.607" y="0.293" font-size="0.006796" fill="hsl(0.0,100%,20%)">rosasco</text>
<text x="0.632" y="0.047" font-size="0.009611" fill="hsl(0.0,100%,20%)">cwallez</text>
<text x="1.557" y="0.454" font-size="0.011771" fill="hsl(0.0,100%,20%)">ericcurtin17</text>
<text x="1.838" y="0.738" font-size="0.006796" fill="hsl(0.0,100%,20%)">caramelli.devel</text>
<text x="0.774" y="0.429" font-size="0.071603" fill="hsl(0.0,100%,20%)">swiftshader.regress</text>
<text x="1.251" y="0.462" font-size="0.031877" fill="hsl(0.0,100%,20%)">thakis</text>
<text x="1.216" y="0.744" font-size="0.011771" fill="hsl(0.0,100%,20%)">tho.laroche</text>
<text x="0.741" y="0.733" font-size="0.006796" fill="hsl(0.0,100%,20%)">penghuang</text>
</svg>
