<svg width="4000" height="2000" viewBox="-0.025 -0.025 2.05 1.05" xmlns="http://www.w3.org/2000/svg">
  <style>
    path {
      fill: none;
      stroke-linecap: round;
      stroke-opacity: 0.4;
    }

    text {
      text-anchor: middle;
      alignment-baseline: hanging;
    }
  </style>
  <g opacity="0.4">
<path d="M0.129 0.613 Q-0.090 0.738 0.106 0.872" stroke="hsl(0.0,100%,35%)" stroke-width="0.02885"></path>
<path d="M0.129 0.613 Q0.253 0.545 0.147 0.469" stroke="hsl(0.0,100%,35%)" stroke-width="0.07213"></path>
<path d="M0.129 0.613 Q0.233 0.716 0.457 0.688" stroke="hsl(0.0,100%,35%)" stroke-width="0.00721"></path>
<path d="M0.129 0.613 Q0.033 0.658 0.100 0.715" stroke="hsl(0.0,100%,35%)" stroke-width="0.00721"></path>
<path d="M0.106 0.872 Q0.452 0.961 0.700 0.812" stroke="hsl(0.0,100%,35%)" stroke-width="0.01443"></path>
<path d="M0.106 0.872 Q1.217 0.757 1.236 0.190" stroke="hsl(0.0,100%,35%)" stroke-width="0.01443"></path>
<path d="M0.106 0.872 Q0.449 0.679 0.147 0.469" stroke="hsl(0.0,100%,35%)" stroke-width="0.00721"></path>
<path d="M0.106 0.872 Q0.429 0.851 0.457 0.688" stroke="hsl(0.0,100%,35%)" stroke-width="0.00721"></path>
<path d="M0.106 0.872 Q0.325 0.748 0.129 0.613" stroke="hsl(0.0,100%,35%)" stroke-width="0.00721"></path>
<path d="M1.236 0.190 Q0.125 0.305 0.106 0.872" stroke="hsl(0.0,100%,35%)" stroke-width="0.00721"></path>
<path d="M1.236 0.190 Q0.471 0.393 0.700 0.812" stroke="hsl(0.0,100%,35%)" stroke-width="0.01443"></path>
<path d="M1.236 0.190 Q1.071 0.225 1.104 0.314" stroke="hsl(0.0,100%,35%)" stroke-width="0.01443"></path>
<path d="M1.104 0.314 Q1.275 0.406 1.493 0.342" stroke="hsl(120.0,100%,35%)" stroke-width="0.04328"></path>
<path d="M1.104 0.314 Q0.809 0.581 1.266 0.783" stroke="hsl(120.0,100%,35%)" stroke-width="0.00721"></path>
<path d="M1.104 0.314 Q1.044 0.426 1.249 0.480" stroke="hsl(120.0,100%,35%)" stroke-width="0.00721"></path>
<path d="M1.104 0.314 Q1.375 0.486 1.769 0.391" stroke="hsl(120.0,100%,35%)" stroke-width="0.00721"></path>
<path d="M1.104 0.314 Q0.923 0.258 0.775 0.334" stroke="hsl(120.0,100%,35%)" stroke-width="0.00721"></path>
<path d="M0.742 0.667 Q0.582 0.621 0.457 0.688" stroke="hsl(240.0,100%,35%)" stroke-width="0.00721"></path>
<path d="M0.742 0.667 Q0.796 0.560 0.598 0.510" stroke="hsl(240.0,100%,35%)" stroke-width="0.02885"></path>
<path d="M0.742 0.667 Q0.911 0.830 1.266 0.783" stroke="hsl(240.0,100%,35%)" stroke-width="0.01443"></path>
<path d="M1.324 0.635 Q1.176 0.697 1.266 0.783" stroke="hsl(240.0,100%,35%)" stroke-width="0.02885"></path>
<path d="M1.324 0.635 Q1.470 0.430 1.104 0.314" stroke="hsl(240.0,100%,35%)" stroke-width="0.00721"></path>
<path d="M1.324 0.635 Q1.290 0.374 0.775 0.334" stroke="hsl(240.0,100%,35%)" stroke-width="0.00721"></path>
<path d="M1.324 0.635 Q1.642 0.522 1.493 0.342" stroke="hsl(240.0,100%,35%)" stroke-width="0.00721"></path>
<path d="M1.324 0.635 Q0.847 0.488 0.457 0.688" stroke="hsl(240.0,100%,35%)" stroke-width="0.00721"></path>
<path d="M1.349 0.914 Q1.083 0.623 0.457 0.688" stroke="hsl(240.0,100%,35%)" stroke-width="0.00721"></path>
<path d="M1.349 0.914 Q1.526 0.509 0.775 0.334" stroke="hsl(240.0,100%,35%)" stroke-width="0.00721"></path>
<path d="M1.349 0.914 Q1.587 0.930 1.672 0.818" stroke="hsl(240.0,100%,35%)" stroke-width="0.00721"></path>
<path d="M0.475 0.356 Q0.676 0.665 1.324 0.635" stroke="hsl(240.0,100%,35%)" stroke-width="0.01443"></path>
<path d="M0.475 0.356 Q0.642 0.405 0.775 0.334" stroke="hsl(240.0,100%,35%)" stroke-width="0.02164"></path>
<path d="M0.475 0.356 Q0.888 0.385 1.036 0.189" stroke="hsl(240.0,100%,35%)" stroke-width="0.00721"></path>
</g>
<text x="0.129" y="0.576" font-size="0.074053" fill="hsl(0.0,100%,20%)">clemensb</text>
<text x="0.106" y="0.841" font-size="0.062217" fill="hsl(0.0,100%,20%)">mliedtke</text>
<text x="0.147" y="0.439" font-size="0.059568" fill="hsl(0.0,100%,20%)">evih</text>
<text x="0.457" y="0.668" font-size="0.040161" fill="hsl(0.0,100%,20%)">dmercadier</text>
<text x="0.100" y="0.706" font-size="0.017961" fill="hsl(0.0,100%,20%)">thibaudm</text>
<text x="1.236" y="0.166" font-size="0.047519" fill="hsl(0.0,100%,20%)">manoskouk</text>
<text x="0.700" y="0.794" font-size="0.035921" fill="hsl(0.0,100%,20%)">jkummerow</text>
<text x="1.104" y="0.282" font-size="0.064758" fill="hsl(120.0,100%,20%)">mlippautz</text>
<text x="0.742" y="0.644" font-size="0.047519" fill="hsl(240.0,100%,20%)">mfarazma</text>
<text x="0.598" y="0.492" font-size="0.035921" fill="hsl(240.0,100%,20%)">junyan</text>
<text x="1.266" y="0.759" font-size="0.047519" fill="hsl(240.0,100%,20%)">ishell</text>
<text x="1.493" y="0.319" font-size="0.047519" fill="hsl(120.0,100%,20%)">omerkatz</text>
<text x="1.249" y="0.471" font-size="0.017961" fill="hsl(120.0,100%,20%)">saelo</text>
<text x="1.769" y="0.382" font-size="0.017961" fill="hsl(120.0,100%,20%)">verwaest</text>
<text x="0.775" y="0.312" font-size="0.043994" fill="hsl(240.0,100%,20%)">leszeks</text>
<text x="1.324" y="0.606" font-size="0.056796" fill="hsl(240.0,100%,20%)">olivf</text>
<text x="1.349" y="0.898" font-size="0.031109" fill="hsl(240.0,100%,20%)">snek</text>
<text x="1.672" y="0.809" font-size="0.017961" fill="hsl(240.0,100%,20%)">nicohartmann</text>
<text x="0.475" y="0.334" font-size="0.043994" fill="hsl(240.0,100%,20%)">victorgomes</text>
<text x="1.036" y="0.180" font-size="0.017961" fill="hsl(240.0,100%,20%)">sroettger</text>
</svg>
