<svg width="4000" height="2000" viewBox="-0.025 -0.025 2.05 1.05" xmlns="http://www.w3.org/2000/svg">
  <style>
    path {
      fill: none;
      stroke-linecap: round;
      stroke-opacity: 0.4;
    }

    text {
      text-anchor: middle;
      alignment-baseline: hanging;
    }
  </style>
  <g opacity="0.4">
<path d="M1.570 0.264 Q1.124 0.148 0.799 0.340" stroke="hsl(0.0,100%,35%)" stroke-width="0.03402"></path>
<path d="M1.570 0.264 Q1.095 0.263 0.989 0.494" stroke="hsl(0.0,100%,35%)" stroke-width="0.03402"></path>
<path d="M1.570 0.264 Q1.256 0.093 0.853 0.209" stroke="hsl(0.0,100%,35%)" stroke-width="0.03402"></path>
<path d="M1.570 0.264 Q1.267 0.228 1.130 0.369" stroke="hsl(0.0,100%,35%)" stroke-width="0.03402"></path>
<path d="M1.357 0.559 Q1.608 0.602 1.747 0.488" stroke="hsl(120.0,100%,35%)" stroke-width="0.03402"></path>
<path d="M1.357 0.559 Q1.275 0.639 1.413 0.697" stroke="hsl(120.0,100%,35%)" stroke-width="0.03402"></path>
<path d="M1.357 0.559 Q1.141 0.542 1.060 0.643" stroke="hsl(120.0,100%,35%)" stroke-width="0.03402"></path>
<path d="M0.595 0.829 Q0.306 0.767 0.120 0.894" stroke="hsl(240.0,100%,35%)" stroke-width="0.03402"></path>
<path d="M0.595 0.829 Q0.650 0.877 0.755 0.861" stroke="hsl(240.0,100%,35%)" stroke-width="0.03402"></path>
<path d="M0.595 0.829 Q0.396 0.864 0.420 0.969" stroke="hsl(240.0,100%,35%)" stroke-width="0.03402"></path>
<path d="M0.595 0.829 Q0.504 0.739 0.308 0.764" stroke="hsl(240.0,100%,35%)" stroke-width="0.03402"></path>
</g>
<text x="1.570" y="0.221" font-size="0.085280" fill="hsl(0.0,100%,20%)">fergal</text>
<text x="0.799" y="0.319" font-size="0.042640" fill="hsl(0.0,100%,20%)">rakina</text>
<text x="0.989" y="0.473" font-size="0.042640" fill="hsl(0.0,100%,20%)">haraken</text>
<text x="0.853" y="0.188" font-size="0.042640" fill="hsl(0.0,100%,20%)">iclelland</text>
<text x="1.130" y="0.347" font-size="0.042640" fill="hsl(0.0,100%,20%)">domenic</text>
<text x="1.357" y="0.522" font-size="0.073855" fill="hsl(120.0,100%,20%)">msw</text>
<text x="1.747" y="0.467" font-size="0.042640" fill="hsl(120.0,100%,20%)">caseq</text>
<text x="1.413" y="0.675" font-size="0.042640" fill="hsl(120.0,100%,20%)">elklm</text>
<text x="1.060" y="0.622" font-size="0.042640" fill="hsl(120.0,100%,20%)">mkwst</text>
<text x="0.595" y="0.787" font-size="0.085280" fill="hsl(240.0,100%,20%)">wtlee</text>
<text x="0.120" y="0.873" font-size="0.042640" fill="hsl(240.0,100%,20%)">dullweber</text>
<text x="0.755" y="0.840" font-size="0.042640" fill="hsl(240.0,100%,20%)">guidou</text>
<text x="0.420" y="0.948" font-size="0.042640" fill="hsl(240.0,100%,20%)">khorimoto</text>
<text x="0.308" y="0.743" font-size="0.042640" fill="hsl(240.0,100%,20%)">toyoshim</text>
</svg>
